<svg xmlns="http://www.w3.org/2000/svg" width="284.986" height="284.986"><circle fill="#339967" cx="142.491" cy="142.499" r="88.435"/><path fill="#981B1E" d="M142.492 11.19c-44.942 0-84.649 22.551-108.42 56.945l25.464 14.707c18.621-25.672 48.842-42.385 82.956-42.385 34.116 0 64.337 16.713 82.958 42.385l25.462-14.707C227.141 33.74 187.436 11.19 142.492 11.19z"/><path fill="#04679A" d="M20.205 93.948c-6.067 15.134-9.418 31.648-9.418 48.949 0 67.755 51.249 123.613 117.072 130.9v-29.522c-49.617-7.11-87.804-49.806-87.804-101.378 0-11.97 2.059-23.456 5.835-34.135L20.205 93.948zm244.573 0l-25.683 14.814c3.777 10.679 5.836 22.165 5.836 34.135 0 51.572-38.188 94.268-87.805 101.378v29.522c65.824-7.287 117.072-63.146 117.072-130.9.002-17.3-3.35-33.816-9.42-48.949z"/><path fill="none" d="M0 0h284.986v284.986H0z"/><path fill="#FFF" d="M82.853 182.859s5.366 6.341 7.805 3.292 2.561-3.292 4.146-5.731 14.392-17.928 18.294-19.147 6.342-3.049 7.439-4.146 2.805-3.049 3.537-3.049 5.244 2.683 6.22 2.927 3.049.488 3.903.488 7.927.486 6.342 4.39-4.269 7.196-1.464 10.367 5.732 5.853.488 6.463c-5.244.61-12.196 3.05-12.684 9.025s-.967 7.561.98 7.927 3.289 1.22 3.533-2.073.854-9.558 7.317-9.718 14.026 1.546 11.342-3.941-2.303-7.317.556-9.146 6.518-3.536 5.542 3.293-1.263 4.146.161 6.951 5.327 3.781 3.254 6.83-13.172 9.511-13.294 14.146.812 6.463 4.857 3.902 1.24-3.049 2.826-5.976 10.732-9.757 13.659-11.464-4.636-3.781-2.562-8.537 5.122-7.806 6.342-9.391 5.123-4.269 4.879-10.61-.609-12.317 2.317-10.488 4.512 3.05 1.341 12.074-6.097 10.854-1.463 17.562 7.805 8.659 13.415 2.439 8.293-7.317 8.171-10.732-5.853 5-7.683 3.049.487-5.001 5.609-8.903 4.391-6.218 3.293-10.975-3.171-6.952-4.269-8.659-4.146-3.655-7.317-3.655-5.854 4.877-8.659 4.634-6.341-.477-10.854-3.775-6.953-4.152-9.27-4.884-4.879-.243-6.342-1.707-5.609-1.952-6.585-3.537-2.195-1.342-2.562-3.171-.973-2.927-2.925-3.902-4.514-2.562-5.124-5 0-6.585 1.219-6.951 2.683 1.341 2.683 2.317-1.341 1.83-.731 3.415 1.223 1.83 1.953 1.585 1.218.121 1.34.609-.122 1.585.976 1.708 2.438.366 3.78-.976 2.275-1.341 2.54-1.951.345-4.024 0-4.756-.954-2.439-.954-3.171-.043-2.561.954-3.171 4.167 1.341 4.655-3.903.122-3.292 0-4.878-.483-4.025 1.344-5 15.853-10.243 15.853-10.243 6.586-6.739-2.073-2.089-11.708 7.211-11.708 7.211-1.094.853-2.071 1.707-2.074 2.318-2.807 1.464-.245-1.342.487-2.439 3.415-5.244-1.829-2.805-5.123 1.097-5.61.122-1.586-1.951-2.195-1.951-3.286.366-2.68-.488.979-2.593 0-2.821-2.199-1.57-2.442.625-.487 5.854-1.707 4.391-1.098-1.22-2.439-2.805.245-1.861-2.805-2.211-4.146 1.204-5.732 0-2.439-3.521-5.488-2.789-1.951-.767-4.024-.14-1.829-.349-2.683 1.969-.976 1.951-2.683 3.659-2.684 2.196-4.513 4.025-1.951 3.398-2.439 4.382-.732 1.472-3.659 1.96-4.39-.367-4.024 2.195 2.439 4.269.488 5.488-2.805.854-2.683 3.171.122 4.024 1.219 5.122 1.342 1.22-.244 2.317-1.83 2.317-1.22 3.781 1.219 2.683 2.561 2.927 8.903-1.708 5.976 1.34-6.341 6.22-4.024 10.123 3.902 4.024 4.512.976 2.439-4.268 3.903-5.122 2.805-2.562 3.171-1.952 1.219 1.219.731 2.073-1.951 1.098-2.073 2.195-.244 1.098-.976 2.683-2.562 1.22-2.317 2.805 1.952.366 2.562 1.463.731 1.83.122 2.805-1.829 1.961-3.537 2.2-18.659-1.107-14.147 7.918 9.757 14.026 7.074 16.709-10.123 9.268-10.61 9.878-7.16 4.145-5.487 5.852z"/><path fill="#339967" d="M100.787 155.63s-6.071-5.127 1.282-5.262 13.693-1.484 9.916 2.631-4.587 8.636-6.611 7.286-3.472-3.54-4.587-4.655z"/></svg>