<svg xmlns="http://www.w3.org/2000/svg" viewBox="0 0 98 99.922"><defs><linearGradient id="a" x1="-38.891" x2="2.765" y1="154.08" y2="173.17" gradientTransform="translate(91.68 18.67)scale(.96104)" gradientUnits="userSpaceOnUse" spreadMethod="reflect"><stop offset="0" stop-color="#d8d8d8"/><stop offset=".116" stop-color="#b8b8b8"/><stop offset=".316" stop-color="#979797"/><stop offset="1" stop-color="#636363"/></linearGradient><linearGradient id="b" x1="65.228" x2="136.43" y1="193.73" y2="193.73" gradientTransform="translate(5.383 3.114)scale(.96104)" gradientUnits="userSpaceOnUse"><stop offset="0" stop-color="#868686"/><stop offset=".45" stop-color="#9b9b9b"/><stop offset=".55" stop-color="#9b9b9b"/><stop offset="1" stop-color="#868686"/></linearGradient><linearGradient id="c" x1="62.86" x2="137.5" y1="211.32" y2="211.32" gradientTransform="translate(5.392 -8.37)scale(.96104)" gradientUnits="userSpaceOnUse"><stop offset="0" stop-color="gray"/><stop offset=".45" stop-color="#e5e5e5"/><stop offset=".55" stop-color="#e5e5e5"/><stop offset="1" stop-color="gray"/></linearGradient><linearGradient id="d" x1="62.86" x2="137.73" y1="213.37" y2="213.37" gradientTransform="translate(5.392 -8.37)scale(.96104)" gradientUnits="userSpaceOnUse"><stop offset="0" stop-color="#444"/><stop offset=".45" stop-color="#a6a6a6"/><stop offset=".55" stop-color="#a6a6a6"/><stop offset="1" stop-color="#444"/></linearGradient><linearGradient id="e" x1="62.86" x2="137.5" y1="211.32" y2="211.32" gradientTransform="matrix(.83529 0 0 .69709 18.004 40.214)" gradientUnits="userSpaceOnUse"><stop offset="0" stop-color="gray"/><stop offset=".45" stop-color="#e5e5e5"/><stop offset=".55" stop-color="#e5e5e5"/><stop offset="1" stop-color="gray"/></linearGradient><linearGradient id="f" x1="62.86" x2="137.73" y1="213.37" y2="213.37" gradientTransform="matrix(.83529 0 0 .69709 18.004 40.214)" gradientUnits="userSpaceOnUse"><stop offset="0" stop-color="#444"/><stop offset=".45" stop-color="#a6a6a6"/><stop offset=".55" stop-color="#a6a6a6"/><stop offset="1" stop-color="#444"/></linearGradient><linearGradient id="i" x1="84.375" x2="115.13" y1="191.25" y2="191.25" gradientTransform="translate(5.116 .088)scale(.96104)" gradientUnits="userSpaceOnUse"><stop offset="0" stop-color="#4c4c4c" stop-opacity="0"/><stop offset=".45" stop-color="#696969"/><stop offset=".55" stop-color="#696969"/><stop offset="1" stop-color="#4b4b4b" stop-opacity="0"/></linearGradient><linearGradient id="j" x1="100.5" x2="100.5" y1="171.31" y2="172.19" gradientTransform="matrix(1.0777 0 0 .98674 -6.289 6.22)" gradientUnits="userSpaceOnUse"><stop offset="0" stop-color="#5b5b5b"/><stop offset="1" stop-color="#6e6e6e"/></linearGradient><linearGradient id="k" x1="-149.55" x2="-160.35" y1="30.781" y2="30.781" gradientTransform="translate(203.03 10.341)" gradientUnits="userSpaceOnUse"><stop offset="0" stop-color="#3d3d3d"/><stop offset="1" stop-color="#3d3d3d" stop-opacity="0"/></linearGradient><linearGradient id="l" x1="98.869" x2="104" y1="29.562" y2="29.562" gradientTransform="translate(5.91 4.06)scale(.96104)" gradientUnits="userSpaceOnUse" spreadMethod="reflect"><stop offset="0" stop-color="#9d9d9d"/><stop offset=".2" stop-color="#999"/><stop offset="1" stop-color="#6b6b6b"/></linearGradient><linearGradient id="n" x1="111.62" x2="117.22" y1="107.94" y2="107.94" gradientTransform="translate(-6.546 4.06)scale(.96104)" gradientUnits="userSpaceOnUse" spreadMethod="reflect"><stop offset="0" stop-color="#bfbfbf"/><stop offset=".95" stop-color="#818181"/><stop offset="1" stop-color="#818181"/></linearGradient><linearGradient id="o" x1="95.99" x2="104.65" y1="149.22" y2="149.22" gradientTransform="translate(5.516 4.06)scale(.96104)" gradientUnits="userSpaceOnUse"><stop offset="0" stop-color="#7f7f7f"/><stop offset="1" stop-color="#535353"/></linearGradient><linearGradient id="p" x1="99.187" x2="104.73" y1="43.591" y2="43.591" gradientTransform="translate(5.58 4.06)scale(.96104)" gradientUnits="userSpaceOnUse" spreadMethod="reflect"><stop offset="0" stop-color="#bfbfbf"/><stop offset=".95" stop-color="#818181"/><stop offset="1" stop-color="#818181"/></linearGradient><linearGradient id="w" x1="-38.891" x2="2.765" y1="154.08" y2="173.17" gradientTransform="translate(204 18.67)scale(.96104)" gradientUnits="userSpaceOnUse" spreadMethod="reflect"><stop offset="0" stop-color="#d8d8d8"/><stop offset=".116" stop-color="#b8b8b8"/><stop offset=".316" stop-color="#979797"/><stop offset="1" stop-color="#636363"/></linearGradient><linearGradient id="x" x1="-45.608" x2="-45.608" y1="131.76" y2="166.82" gradientTransform="translate(204 4.06)scale(.96104)" gradientUnits="userSpaceOnUse"><stop offset="0" stop-color="#999"/><stop offset="1" stop-color="#525252"/></linearGradient><linearGradient id="y" x1="-45.608" x2="-45.608" y1="131.76" y2="166.82" gradientTransform="rotate(-19.22 70.33 -557.023)scale(.96104)" gradientUnits="userSpaceOnUse"><stop offset="0" stop-color="#999"/><stop offset="1" stop-color="#525252"/></linearGradient><linearGradient id="z" x1="-49.497" x2="-5.013" y1="168.93" y2="170.35" gradientTransform="translate(204 18.67)scale(.96104)" gradientUnits="userSpaceOnUse" spreadMethod="reflect"><stop offset="0" stop-color="#d8d8d8"/><stop offset=".116" stop-color="#b8b8b8"/><stop offset=".316" stop-color="#979797"/><stop offset="1" stop-color="#636363"/></linearGradient><linearGradient id="A" x1="-45.608" x2="-45.608" y1="131.76" y2="166.82" gradientTransform="matrix(-.96104 0 0 .96104 -.326 4.06)" gradientUnits="userSpaceOnUse"><stop offset="0" stop-color="#999"/><stop offset="1" stop-color="#525252"/></linearGradient><linearGradient id="B" x1="-45.608" x2="-45.608" y1="131.76" y2="166.82" gradientTransform="rotate(-19.22 14.17 -225.343)scale(.96104)" gradientUnits="userSpaceOnUse"><stop offset="0" stop-color="#999"/><stop offset="1" stop-color="#525252"/></linearGradient><linearGradient id="C" x1="-49.497" x2="-5.013" y1="168.93" y2="170.35" gradientTransform="translate(91.68 18.67)scale(.96104)" gradientUnits="userSpaceOnUse" spreadMethod="reflect"><stop offset="0" stop-color="#d8d8d8"/><stop offset=".116" stop-color="#b8b8b8"/><stop offset=".316" stop-color="#979797"/><stop offset="1" stop-color="#636363"/></linearGradient><radialGradient id="v" cx="98.5" cy="5.188" r="5.5" gradientTransform="rotate(46.246 50.272 -3.775)scale(.555 .62031)" gradientUnits="userSpaceOnUse"><stop offset="0" stop-color="#dcdcdc"/><stop offset="1" stop-color="#434343"/></radialGradient></defs><g fill-rule="evenodd" stroke-width=".5"><path fill="url(#a)" stroke="#5c5c5c" d="M3.675 153.27c26.1 14.6 59.1 13.8 84.95 0 2.13-1.29-28.2-4.63-42.618-4.635-25.7 0-42.8 2.55-42.332 4.635z" transform="scale(.48039)"/><path fill="url(#b)" stroke="#444" d="M64.547 189.23s-.236-4.02 5.887-4.098c6.12-.09 59.6 0 63.62 0 3.99 0 4.99 2.73 4.952 4.114-.081 3.42-27.6 10.5-27.614 10.384l-36.46-2.927c-3.46-2.49-8.36-2.44-10.385-7.473z" transform="scale(.48039)"/><path fill="url(#c)" stroke="url(#d)" d="M64.579 188.75v7.806c-.268 8.24 74.4 8.64 74.402 0v-7.806c.073 8.69-74.6 8.7-74.402 0z" transform="scale(.48039)"/><path fill="#969696" stroke="#444" stroke-width=".240195" d="M33.355 88.104c.047-.683 4.852-2.455 15.047-2.454 10.28 0 16.045 1.413 16.031 2.504 0 .266-3.156 2.421-3.156 2.422l-13.2 1.266-14.522-2.36z"/><path fill="url(#e)" stroke="url(#f)" d="M69.442 183.2v5.66c.122 5.19 64.7 5.92 64.677 0v-5.66c-.024 5.6-64.6 5.53-64.677 0z" transform="scale(.48039)"/></g><path fill="none" stroke="url(#i)" stroke-linecap="round" stroke-width=".5" d="M116.29 183.77s-9.13-.96-11.294-2.407c-2.15-1.44-1.68-1.56-3.903-1.561-2.22 0-1.74.122-3.903 1.561-2.16 1.45-11.3 2.41-11.294 2.407" transform="scale(.48039)"/><path fill="#7c7c7c" fill-rule="evenodd" stroke="url(#j)" stroke-linejoin="round" stroke-width=".5" d="m93.934 175.22 15.694.024c.114.618-5 5.12-6.668 5.034l-3.22-.017c-1.89.057-5.83-4.79-5.805-5.041z" transform="scale(.48039)"/><path fill="#7f7f7f" stroke="#535353" stroke-linecap="round" stroke-linejoin="round" stroke-width=".1200368" d="M48.785 10.895c-.12 0-.246.004-.359.015-.137.008-.265.036-.39.055-.753.133-1.284.446-1.286.824v2.004c-2.276-1.32-5.078-2.031-7.11-2.031-2.695 0-4.099.316-7.331 2.106-2.687 1.486-3.43 2.123-5.309 1.714-1.874-.406-2.77-1.375-3.75-1.703-.979-.324-2.451.725-2.539 1.04-.102.347-.426-.087-.504-.333-.082-.242-1.93.804-1.848 1.457.083.656 1.667 2.447 1.903 1.676.226-.734.54-.803.824-.52.289.29 1.353.878 1.516 2.02.16 1.145-.415 1.464-.825 1.14-.406-.328-.568-.48-.648-.808-.082-.328-1.791.494-1.543.735.242.246.725 1.786 1.297 1.949s.577.9.578 1.226c0 .324.979.254.98.172s.07-1.154.07-1.152 1.889-.16 1.805-2.527c-.082-2.369-1.394-3.098-.82-3.258.573-.164 3.421 1.302 5.871 1.382 2.452.083 5.771-2.363 10.172-2.363 3.269 0 6.002 1.52 7.211 2.305v.797c0 .379.531.692 1.285.82.125.024.254.047.39.059.114.007.24.015.36.015h.16c.156 0 .313 0 .461-.015.928-.083 1.63-.446 1.63-.88v-.796c1.204-.785 3.947-2.304 7.214-2.305 4.405 0 7.71 2.447 10.172 2.363 2.452-.082 5.31-1.546 5.871-1.382.573.16-.743.89-.82 3.258-.082 2.368 1.8 2.525 1.8 2.527s.075 1.071.075 1.152.979.153.98-.172c0-.328.004-1.061.579-1.226.572-.164 1.052-1.704 1.296-1.95.247-.242-1.458-1.061-1.543-.734-.082.328-.242.48-.648.809-.41.324-.988.004-.824-1.14.164-1.141 1.228-1.732 1.515-2.02.286-.286.582-.215.809.52.235.77 1.838-1.021 1.918-1.677.082-.65-1.764-1.699-1.848-1.457-.082.246-.402.679-.504.332-.093-.312-1.56-1.362-2.539-1.039-.978.328-1.874 1.298-3.75 1.703-1.879.41-2.622-.226-5.312-1.714-3.232-1.792-4.663-2.106-7.344-2.106-2.018 0-4.802.711-7.098 2.031V11.79c0-.433-.697-.798-1.629-.879-.016-.003-.027 0-.043 0a4 4 0 0 0-.36-.015zm0 0"/><path fill="none" stroke="url(#k)" stroke-width=".52" d="M41.892 28.393s6.81 3.71 13.529 3.714 14.5-6.54 23.513-6.54c7.78 0 14.6 4.7 18.58 7.175" transform="translate(2.84 1.95)scale(.46168)"/><path fill="none" stroke="url(#k)" stroke-width=".52" d="M41.898 28.393s6.8 3.71 13.521 3.714 14.5-6.54 23.513-6.54c7.78 0 14.6 4.7 18.58 7.175" transform="matrix(-.46168 0 0 .46168 94.949 1.95)"/><path fill="#6a6a6a" fill-rule="evenodd" stroke="#585858" stroke-width=".240195" d="M47.3 11.121V9.469c1.149-.5 2.037-1.115 3.184 0v1.488z"/><path fill="url(#l)" stroke="#535353" stroke-linecap="round" stroke-linejoin="round" stroke-width=".5" d="M101.54 22.337c-.26 0-.529.016-.78.033a9 9 0 0 0-.838.121c-1.63.285-2.77.96-2.773 1.781v15.165c0 .821 1.15 1.5 2.773 1.773.268.049.545.106.837.13.252.016.52.024.781.024h.342c.342 0 .683 0 1-.024 2.01-.179 3.52-.968 3.52-1.903V24.272c0-.943-1.51-1.72-3.52-1.902h-.098c-.244-.025-.512-.025-.772-.033zm0 0" transform="scale(.48039)"/><path fill="url(#n)" fill-rule="evenodd" stroke="url(#o)" stroke-width=".7" d="M97.764 172.44V47.27l8.026-.04-.041 126.05z" transform="scale(.48039)"/><path fill="#7c7c7c" fill-rule="evenodd" stroke="url(#j)" stroke-linejoin="round" stroke-width=".5" d="m93.934 175.22 15.694.024c.114.618-5 5.12-6.668 5.042l-3.22-.025c-1.89.066-5.83-4.78-5.805-5.041z" transform="matrix(.48039 0 0 -.48039 0 168.35)"/><g fill="url(#p)" fill-rule="evenodd" stroke="#4a4a4a" stroke-linecap="round" stroke-linejoin="round" stroke-width=".5"><path stroke-width=".240195" d="M46.875 22.621h4.039s-.725-1.09-2.074-1.09c-1.345 0-1.965 1.033-1.965 1.09"/><path d="M97.577 47.09h8.408s-1.51-2.27-4.318-2.272c-2.8 0-4.09 2.16-4.09 2.272z" transform="matrix(.48039 0 0 .51069 0 -3.568)"/><path d="M97.577 47.089h8.408s-1.51-2.27-4.318-2.272c-2.8 0-4.09 2.16-4.09 2.272z" transform="matrix(.48039 0 0 -.51069 0 44.462)"/></g><path fill="#787878" fill-rule="evenodd" stroke="#686868" stroke-linejoin="round" stroke-width=".240195" d="M47.785 7.023v1.223s-.074.043-.086.047c-.004 0-.027-.004-.027 0-.477.082-1.144.25-1.36.488-.086.098-.062.16 0 .246.129.168 1.244.692 2.496.692h.16c1.254 0 2.369-.524 2.497-.692.101-.132.07-.156 0-.246-.137-.164-.884-.406-1.356-.488-.004-.004-.015 0-.015 0l-.102-.047V7.023z"/><path fill="url(#v)" d="M51.555 5.09c0 1.47-1.19 2.66-2.66 2.664s-2.66-1.2-2.664-2.664 1.2-2.66 2.664-2.66 2.66 1.19 2.66 2.66"/><path fill="#828282" fill-rule="evenodd" stroke="#535353" stroke-width=".192156" d="M75.421 20.375a9.3 9.3 0 0 0 0 2.336s-1.475-.02-1.472.316c0 .34.183 6.437-.344 7.07-.533.615-.87.486-1.113.16-.243-.327-.97-.28-1.051-.117-.082.165-.262 1.163.258 1.5.725.473 2.536.457 2.699-1.296.164-1.754.156-3.262.836-3.262.246 0 .23.836.23 1.773 0 .942-.082 1.182-.246 1.387s-.12 2.162 0 2.164h1.227c.125 0 .164-1.96 0-2.164s-.246-.445-.246-1.387c0-.936-.114-1.772.132-1.773.735 0 .644 1.35.805 3.101.164 1.754 1.854 1.802 2.672 1.516.817-.285.418-1.465.344-1.629-.11-.25-.591-.039-.895.145-.348.21-.696.453-1.226-.16-.529-.615-.577-6.678-.575-7.028 0-.335-1.345-.316-1.343-.316-.032-.778-.145-1.556 0-2.336-.352.191-.534.11-.692 0zm.375 2.812c.39 0 .706.07.707.16v1.094c0 .09-.316.16-.707.16s-.706-.07-.707-.16v-1.094c0-.09.317-.16.707-.16z"/><path fill="url(#w)" fill-rule="evenodd" stroke="#5c5c5c" stroke-width=".5" d="M116 153.27c26.1 14.6 59.1 13.8 84.94 0 2.14-1.29-28.2-4.63-42.608-4.635-25.7 0-42.8 2.55-42.332 4.635z" transform="scale(.48039)"/><path fill="none" stroke="url(#x)" stroke-linecap="round" stroke-width=".7" d="M159.33 62.774c1.5 6.89-1.28 4.11-1.382 5.448l-.155 94.958" transform="scale(.48039)"/><path fill="none" stroke="url(#y)" stroke-linecap="round" stroke-width=".7" d="M163.53 63.392c-.211.065-.252.594-.106 1.155.146.569.455 1.17.748 2.13 10.1 30.4 21.2 60.5 31.818 90.73" transform="matrix(-.48039 0 0 .48039 151.71 0)"/><path fill="#828282" fill-rule="evenodd" stroke="#535353" stroke-width=".192156" d="M22.372 20.375a9.3 9.3 0 0 1 0 2.336s1.475-.02 1.472.316c0 .34-.183 6.437.344 7.07.533.615.87.486 1.113.16.243-.327.97-.28 1.051-.117s.262 1.163-.258 1.5c-.725.473-2.536.457-2.699-1.296-.164-1.754-.156-3.262-.836-3.262-.246 0-.23.836-.23 1.773 0 .942.082 1.182.246 1.387.16.203.12 2.162 0 2.164h-1.227c-.125 0-.164-1.96 0-2.164s.246-.445.246-1.387c0-.936.114-1.772-.132-1.773-.735 0-.644 1.35-.81 3.101-.159 1.754-1.849 1.802-2.667 1.516-.817-.285-.418-1.465-.344-1.629.11-.25.591-.039.895.145.348.21.696.453 1.222-.16.534-.615.577-6.678.579-7.028 0-.335 1.345-.316 1.343-.316.032-.778.141-1.556 0-2.336.348.191.534.11.692 0zm-.375 2.812c-.39 0-.706.07-.707.16v1.094c0 .09.316.16.707.16s.706-.07.707-.16v-1.094c0-.09-.317-.16-.707-.16z"/><path fill="none" stroke="url(#y)" stroke-linecap="round" stroke-width=".7" d="M163.53 63.392c-.211.065-.252.594-.106 1.155.138.569.447 1.17.748 2.13 10.1 30.4 21.2 60.5 31.81 90.73" transform="scale(.48039)"/><path fill="url(#z)" fill-rule="evenodd" stroke="#5c5c5c" stroke-width=".5" d="M116 153.5c28.5 12.6 59.1 10.1 84.94 0-.577 2.94-15.2 21-43.633 20.963-28.1-.008-41.3-18.9-41.307-20.963z" transform="scale(.48039)"/><g fill="none" stroke-linecap="round" stroke-width=".7"><path stroke="url(#A)" d="M44.357 62.774c-1.51 6.89 1.28 4.11 1.374 5.448l.155 94.958" transform="scale(.48039)"/><path stroke="url(#y)" d="M163.53 63.392c-.22.065-.26.594-.114 1.155.146.569.455 1.17.748 2.13 10.1 30.4 21.2 60.5 31.818 90.73" transform="matrix(-.48039 0 0 .48039 97.756 0)"/><path stroke="url(#B)" d="M51.211 63.392c-.211.065-.26.594-.114 1.155.146.569.455 1.17.748 2.13 10.1 30.4 21.2 60.5 31.818 90.73" transform="scale(.48039)"/></g><path fill="url(#C)" fill-rule="evenodd" stroke="#5c5c5c" stroke-width=".5" d="M3.675 153.5c28.5 12.6 59.1 10.1 84.95 0-.586 2.94-15.2 21-43.634 20.963-28.1-.008-41.3-18.9-41.316-20.963z" transform="scale(.48039)"/></svg>