<svg xmlns="http://www.w3.org/2000/svg" xmlns:xlink="http://www.w3.org/1999/xlink" viewBox="0 0 100 100"><radialGradient id="c" cx="191.02" cy="76.567" r="72.693" gradientTransform="translate(.726 -.71)scale(.33629)" gradientUnits="userSpaceOnUse"><stop offset="0" stop-color="#fff" stop-opacity=".71"/><stop offset=".296" stop-color="#fcfeff" stop-opacity=".713"/><stop offset=".495" stop-color="#f3f9ff" stop-opacity=".715"/><stop offset=".666" stop-color="#e4f2ff" stop-opacity=".717"/><stop offset=".821" stop-color="#cfe7ff" stop-opacity=".718"/><stop offset=".964" stop-color="#b3daff" stop-opacity=".72"/><stop offset="1" stop-color="#abd6ff" stop-opacity=".72"/></radialGradient><linearGradient id="d" x1="86.786" x2="296.3" y1="64.37" y2="79.021" gradientTransform="translate(.726 -.71)scale(.33629)" gradientUnits="userSpaceOnUse"><stop offset="0" stop-color="#8b8e90"/><stop offset=".33" stop-color="#e0e0df"/><stop offset="1" stop-color="#757777"/></linearGradient><linearGradient id="a"><stop offset="0" stop-color="#a7aaab"/><stop offset=".24" stop-color="#fff"/><stop offset=".37" stop-color="#efeeed"/><stop offset=".45" stop-color="#8b8e90"/><stop offset=".82" stop-color="#5a5d5e"/><stop offset=".9" stop-color="#e0e0df"/><stop offset="1" stop-color="#a7aaab"/></linearGradient><linearGradient xlink:href="#a" id="g" x1="118.67" x2="130.63" y1="136.65" y2="147.81" gradientUnits="userSpaceOnUse"/><linearGradient xlink:href="#a" id="h" x1="109.94" x2="125.53" y1="142.28" y2="156.82" gradientUnits="userSpaceOnUse"/><linearGradient id="i" x1="70.956" x2="57.319" y1="207.49" y2="194.32" gradientUnits="userSpaceOnUse"><stop offset="0"/><stop offset=".201" stop-color="#5a5d5e"/><stop offset=".48"/><stop offset=".756" stop-color="#e0e0df"/><stop offset="1"/></linearGradient><linearGradient id="j" x1="105.61" x2="126.12" y1="142.99" y2="162.12" gradientUnits="userSpaceOnUse"><stop offset="0" stop-color="#5a5d5e"/><stop offset="1"/></linearGradient><linearGradient xlink:href="#a" id="k" x1="128.5" x2="144.34" y1="122.77" y2="137.55" gradientUnits="userSpaceOnUse"/><linearGradient id="l" x1="131.01" x2="165.65" y1="45.424" y2="60.222" gradientUnits="userSpaceOnUse"><stop offset="0" stop-color="#fff" stop-opacity=".71"/><stop offset=".875" stop-color="#fff" stop-opacity=".203"/><stop offset="1" stop-color="#fff" stop-opacity=".13"/></linearGradient><radialGradient id="m" cx="203.89" cy="69.25" r="51.76" gradientTransform="matrix(-.22219 -.2428 .24808 -.22703 100.68 91.895)" gradientUnits="userSpaceOnUse"><stop offset="0" stop-color="#fff"/><stop offset=".865" stop-color="#fff" stop-opacity=".377"/><stop offset="1" stop-color="#fff" stop-opacity=".28"/></radialGradient><g stroke-width=".336"><path d="M53.874 23.649c-3.03 2.83-5.44 6.53-6.073 10.694-.1.656-.09 1.35-.086 2.015.046 5.71 2.53 11 6.65 14.884 4.3 4.07 10 6.33 15.965 6.404 5.85.074 11.5-1.98 15.808-5.972 4.08-3.82 6.42-9.05 6.374-14.654-.01-1.16-.058-2.36-.333-3.487-.892-3.65-3.2-6.87-5.897-9.42-5.63-5.33-13.7-7.57-21.289-6.053-4.17.793-8.03 2.7-11.119 5.59zm-3.609-5.93c5.31-4.98 12.4-7.56 19.667-7.472h.011c7.34.093 14.4 2.89 19.731 7.92 4.13 3.91 6.93 8.94 7.93 14.45a25.4 25.4 0 0 1 .404 4.61c-.019 4.08-1.22 7.98-2.939 11.631-1.6 3.46-3.59 6.62-6.438 9.205a26.6 26.6 0 0 1-9.52 5.564c-6.6 2.2-13.9 1.88-20.34-.82a29 29 0 0 1-2.742-1.148 13 13 0 0 1-1.045-.564l-.244-.15c-.534-.322-1.12-.61-1.634-.97-.19-.133-.4-.248-.586-.386l-.136.118c-.619.536-1.48.834-2.236.774l-1.5 1.297-.556.497a2.8 2.8 0 0 1-.298 1.123 3.2 3.2 0 0 1-.743.95l-.133.117-.415.974a3.1 3.1 0 0 1-.363.761 2.7 2.7 0 0 1-.485.555L11.545 96.25c-.708.611-1.68.855-2.517.654-.094-.022-.197-.044-.29-.073a3.2 3.2 0 0 1-.779-.372c-1.3-.865-2.25-1.77-3.198-2.917a14 14 0 0 1-.49-.643l-.016-.022-.003-.003c-.718-.928-1.24-2.03-1.87-3.065-.716-1.18-.415-2.81.644-3.732l.023-.021 29.608-25.597.113-.097 1.591-1.32.655-.567c.014-.011.622-.519.633-.506l-.136-.187-.625-.931 4.056-1.067.745-.191.138-.135a2.8 2.8 0 0 1 .94-.593c.385-.137.834-.226 1.234-.199l1.508-1.303c-.007-.009.545-.501.538-.51.03-.788.35-1.56.952-2.123-.001-.002.103-.094.1-.096-2.4-4.52-3.24-9.61-2.917-14.753v-.01c.429-6.91 2.98-13.4 8.083-18.152z" opacity=".001"/><path d="M53.844 23.458c-3.08 2.87-5.52 6.61-6.162 10.84-.102.666-.098 1.37-.096 2.043.027 5.75 2.51 11.1 6.637 14.987 4.3 4.09 10 6.38 16.028 6.473 5.9.089 11.6-1.97 15.913-5.97 4.11-3.83 6.49-9.08 6.462-14.731-.005-1.17-.055-2.39-.327-3.534-.882-3.7-3.19-6.98-5.91-9.575-5.56-5.28-13.5-7.56-21.086-6.141-4.31.736-8.29 2.66-11.459 5.608zM50.4 17.805c5.29-4.94 12.3-7.5 19.597-7.4h.01c7.32.107 14.4 2.92 19.62 7.92 4.14 3.94 6.93 9.03 7.86 14.594.254 1.52.37 3.07.34 4.639-.082 4.1-1.36 8-3.163 11.616-1.65 3.39-3.68 6.47-6.548 8.984a26.4 26.4 0 0 1-9.525 5.349c-6.59 2.08-13.8 1.64-20.147-1.126a29 29 0 0 1-2.704-1 8 8 0 0 1-1.04-.538c-.074-.046-.166-.107-.24-.152-.507-.306-1.13-.523-1.618-.865-.18-.126-.403-.216-.58-.347l-.134.117c-.59.509-1.48.86-2.205.804l-1.491 1.289-.522.482c-.005.38-.107.764-.287 1.114a3.3 3.3 0 0 1-.736.928l-.126.113-.413.969a3.3 3.3 0 0 1-.36.758 2.5 2.5 0 0 1-.468.542l-33.938 29.34c-.672.58-1.69.891-2.483.7-.09-.02-.198-.034-.287-.06a2.9 2.9 0 0 1-.774-.356c-1.35-.897-2.2-1.72-3.17-2.917-.173-.213-.32-.44-.464-.646q-.006-.012-.014-.021l-.002-.003c-.682-.881-1.05-2.04-1.646-3.024-.68-1.12-.249-2.8.758-3.671l.023-.02L33.029 60.42c.003-.003.109-.094.113-.096l1.606-1.277.653-.564c.026-.023.626-.504.648-.478l-.122-.168-.558-.924 3.983-1.16.732-.201.123-.138a2.5 2.5 0 0 1 .897-.61c.365-.13.836-.253 1.216-.227l1.502-1.297c-.014-.018.503-.495.49-.513a3.05 3.05 0 0 1 .84-2.11c-.002-.003.096-.092.093-.096-2.4-4.49-3.25-9.55-2.939-14.674l.001-.01c.426-6.89 3.01-13.3 8.095-18.07z" opacity=".003"/><path d="M53.813 23.267c-3.13 2.9-5.59 6.7-6.251 10.987-.104.674-.105 1.39-.105 2.07.007 5.79 2.49 11.1 6.623 15.09 4.29 4.11 10.1 6.44 16.09 6.544 5.95.103 11.7-1.97 16.019-5.97 4.14-3.84 6.56-9.11 6.55-14.807 0-1.19-.051-2.42-.32-3.58-.873-3.76-3.18-7.09-5.926-9.732-5.5-5.24-13.3-7.56-20.88-6.227-4.44.678-8.55 2.62-11.8 5.625zm-3.278-5.375c5.26-4.89 12.3-7.45 19.526-7.33h.01c7.3.122 14.3 2.94 19.508 7.923 4.15 3.98 6.93 9.11 7.79 14.737.235 1.54.328 3.1.275 4.666-.146 4.12-1.49 8.02-3.388 11.602-1.69 3.33-3.77 6.33-6.658 8.765-2.83 2.4-6.08 4.11-9.53 5.133-6.58 1.95-13.7 1.4-19.955-1.431a29 29 0 0 1-2.665-.851 6 6 0 0 1-1.034-.514c-.07-.043-.166-.111-.237-.154-.48-.29-1.14-.436-1.6-.76-.17-.12-.408-.184-.575-.307l-.133.115c-.557.483-1.49.89-2.174.835l-1.48 1.28-.487.467a2.3 2.3 0 0 1-.276 1.104c-.16.305-.454.669-.73.908l-.118.108-.411.964a3.4 3.4 0 0 1-.356.755 2.3 2.3 0 0 1-.453.53L11.617 95.62c-.637.551-1.7.93-2.45.748-.084-.02-.196-.024-.282-.048a2.7 2.7 0 0 1-.77-.34c-1.4-.928-2.14-1.66-3.142-2.916-.17-.215-.306-.447-.437-.65q-.006-.01-.012-.02l-.002-.004c-.646-.835-.853-2.05-1.421-2.983-.645-1.06-.082-2.78.871-3.609l.023-.02 29.404-25.397.114-.094-.001-.001 1.62-1.233.651-.562c.04-.035.63-.488.663-.45l-.107-.149-.49-.918 3.91-1.25.718-.214.108-.14a2.3 2.3 0 0 1 .853-.628c.346-.123.84-.28 1.2-.255l1.495-1.292c-.02-.026.461-.488.442-.515-.02-.769.228-1.52.73-2.096-.004-.006.088-.092.084-.098-2.39-4.45-3.27-9.49-2.96-14.594v-.01c.421-6.88 3.04-13.3 8.106-17.988z" opacity=".004"/><path d="M53.782 23.075c-3.19 2.93-5.67 6.78-6.34 11.133-.107.683-.113 1.4-.116 2.099-.012 5.82 2.47 11.2 6.61 15.193 4.29 4.13 10.1 6.49 16.152 6.612 6 .117 11.8-1.97 16.124-5.968 4.17-3.84 6.62-9.15 6.638-14.884.004-1.21-.048-2.45-.314-3.627-.863-3.82-3.16-7.2-5.94-9.886-5.43-5.2-13.2-7.55-20.676-6.314-4.57.62-8.8 2.59-12.138 5.642zm-3.114-5.096c5.24-4.85 12.2-7.39 19.455-7.259h.01c7.28.135 14.2 2.96 19.398 7.923 4.16 4.01 6.92 9.2 7.718 14.88.218 1.55.29 3.12.213 4.695-.211 4.13-1.63 8.04-3.613 11.587-1.73 3.26-3.86 6.19-6.767 8.544a26.05 26.05 0 0 1-9.535 4.918c-6.57 1.82-13.7 1.16-19.763-1.737a29 29 0 0 1-2.627-.702 4.6 4.6 0 0 1-1.03-.489c-.065-.041-.165-.116-.232-.156-.454-.273-1.15-.35-1.583-.656-.161-.113-.411-.15-.57-.267l-.132.114c-.526.456-1.5.917-2.142.865l-1.472 1.273-.45.45c.019.37-.082.753-.265 1.095a3.6 3.6 0 0 1-.724.887l-.11.104-.409.96a3.5 3.5 0 0 1-.353.75 2.2 2.2 0 0 1-.436.518L11.653 95.304c-.6.52-1.7.965-2.416.794-.08-.019-.198-.014-.279-.035a2.5 2.5 0 0 1-.767-.323c-1.45-.96-2.09-1.61-3.113-2.916-.168-.216-.29-.455-.41-.652q-.005-.01-.01-.021l-.002-.003c-.61-.79-.66-2.06-1.196-2.943-.61-.999.085-2.77.985-3.547l.022-.02 29.3-25.296a2 2 0 0 1 .115-.093l-.001-.003 1.635-1.189v.001l.65-.56c.052-.047.632-.474.677-.422l-.091-.131-.424-.912 3.837-1.342.706-.225.092-.143a2.04 2.04 0 0 1 .81-.645c.327-.116.84-.306 1.181-.283l1.491-1.286c-.028-.035.42-.482.393-.517-.043-.76.167-1.51.62-2.083-.005-.007.08-.091.075-.098-2.39-4.42-3.29-9.42-2.982-14.515l.001-.01c.416-6.86 3.06-13.2 8.115-17.906z" opacity=".006"/><path d="M53.752 22.884c-3.24 2.96-5.74 6.86-6.43 11.28-.108.693-.119 1.42-.125 2.127-.031 5.86 2.45 11.3 6.598 15.296 4.29 4.15 10.1 6.55 16.213 6.682 6.05.132 11.9-1.97 16.23-5.967 4.2-3.85 6.69-9.18 6.727-14.96.009-1.23-.045-2.49-.308-3.674-.853-3.87-3.15-7.31-5.954-10.042-5.36-5.16-13-7.54-20.472-6.402-4.71.563-9.06 2.55-12.478 5.66zm-2.949-4.818c5.21-4.8 12.2-7.33 19.385-7.188h.01c7.27.149 14.2 2.99 19.287 7.925 4.17 4.04 6.92 9.29 7.648 15.022a25 25 0 0 1 .148 4.724c-.274 4.15-1.76 8.06-3.837 11.573-1.78 3.19-3.95 6.05-6.877 8.324-2.85 2.24-6.1 3.81-9.54 4.702-6.57 1.69-13.6.919-19.57-2.043a29 29 0 0 1-2.588-.553 3.7 3.7 0 0 1-1.024-.464c-.062-.04-.165-.12-.229-.159-.427-.258-1.16-.263-1.567-.55-.15-.107-.414-.118-.563-.228l-.131.113c-.496.43-1.5.944-2.111.896l-1.463 1.264-.415.436c.032.364-.068.748-.254 1.085a3.8 3.8 0 0 1-.717.866l-.103.099-.406.954a3.7 3.7 0 0 1-.35.749 2 2 0 0 1-.42.504L11.691 94.989c-.566.489-1.71 1-2.383.842-.076-.018-.198-.006-.274-.023a2.3 2.3 0 0 1-.764-.308c-1.5-.99-2.04-1.55-3.084-2.915-.167-.217-.272-.463-.384-.655q-.003-.011-.008-.02 0-.003-.002-.004c-.574-.743-.467-2.07-.97-2.902-.574-.94.251-2.75 1.099-3.485l.02-.02 29.2-25.195c.008-.008.104-.088.114-.093l-.002-.002 1.65-1.145.647-.558c.066-.058.637-.457.693-.393L37.166 58l-.356-.905 3.764-1.434.692-.236.077-.146a1.83 1.83 0 0 1 .766-.663c.308-.109.844-.332 1.165-.31l1.485-1.281c-.035-.044.378-.475.344-.52-.067-.75.106-1.49.508-2.07-.005-.008.073-.09.067-.098-2.39-4.39-3.31-9.36-3.003-14.435l.001-.01c.413-6.85 3.09-13.2 8.128-17.824z" opacity=".007"/><path d="M53.72 22.693c-3.29 2.99-5.82 6.95-6.518 11.427-.11.702-.127 1.44-.135 2.154-.05 5.9 2.43 11.4 6.585 15.4 4.29 4.17 10.1 6.6 16.274 6.75 6.1.147 12-1.97 16.335-5.964 4.24-3.86 6.76-9.21 6.815-15.038.013-1.24-.042-2.52-.3-3.72-.845-3.93-3.13-7.42-5.97-10.198-5.29-5.11-12.8-7.54-20.268-6.489-4.84.505-9.32 2.51-12.817 5.678zm-2.783-4.539c5.19-4.76 12.1-7.28 19.314-7.117h.01c7.25.162 14.1 3.01 19.175 7.925 4.18 4.07 6.92 9.38 7.577 15.165.181 1.58.21 3.17.084 4.753-.338 4.17-1.9 8.07-4.061 11.558-1.82 3.12-4.05 5.9-6.987 8.104a25.8 25.8 0 0 1-9.545 4.486c-6.56 1.57-13.5.678-19.38-2.348a30 30 0 0 1-2.547-.403 3 3 0 0 1-1.02-.44c-.057-.037-.164-.125-.224-.16-.4-.242-1.16-.177-1.55-.447-.142-.1-.418-.084-.558-.188l-.13.112c-.463.402-1.51.972-2.08.927l-1.453 1.255-.38.42c.044.36-.055.742-.242 1.076-.14.25-.481.646-.71.845l-.096.095-.405.949a4 4 0 0 1-.346.745 2 2 0 0 1-.403.492L11.727 94.674c-.531.46-1.72 1.04-2.35.889-.071-.017-.198.004-.27-.01a2.1 2.1 0 0 1-.76-.292c-1.54-1.02-1.99-1.5-3.057-2.915a2.2 2.2 0 0 1-.356-.658c-.004-.006-.003-.015-.007-.02v-.004c-.539-.696-.274-2.08-.747-2.86-.537-.882.418-2.74 1.213-3.424l.02-.018L34.51 60.266c.01-.01.103-.087.116-.092l-.003-.004 1.664-1.101h.002l.644-.556c.079-.069.64-.442.708-.365l-.063-.094-.288-.9 3.69-1.524.68-.248.062-.148a1.64 1.64 0 0 1 .722-.68c.288-.103.847-.36 1.148-.339l1.479-1.274c-.042-.053.336-.468.296-.522-.092-.74.044-1.47.397-2.057-.007-.01.065-.089.059-.1-2.39-4.36-3.33-9.3-3.025-14.356v-.009c.409-6.83 3.11-13.1 8.138-17.743z" opacity=".009"/><path d="M53.69 22.502c-3.34 3.02-5.89 7.03-6.608 11.573-.112.71-.134 1.45-.145 2.182-.07 5.94 2.41 11.4 6.572 15.502 4.29 4.19 10.1 6.66 16.335 6.821 6.15.16 12-1.96 16.441-5.963 4.27-3.87 6.83-9.25 6.903-15.114.018-1.26-.038-2.55-.294-3.766-.834-3.98-3.12-7.54-5.984-10.353-5.22-5.07-12.7-7.53-20.064-6.577-4.98.448-9.58 2.47-13.157 5.696zm-2.618-4.26c5.16-4.71 12.1-7.22 19.243-7.047h.01c7.23.176 14 3.04 19.063 7.926 4.2 4.11 6.92 9.47 7.508 15.308.162 1.59.168 3.19.02 4.781-.404 4.19-2.03 8.09-4.286 11.544-1.87 3.06-4.14 5.76-7.097 7.885a25.7 25.7 0 0 1-9.55 4.27c-6.55 1.44-13.4.437-19.187-2.655a31 31 0 0 1-2.51-.253c-.329-.047-.692-.203-1.014-.415-.053-.035-.165-.13-.22-.163-.374-.225-1.17-.09-1.533-.342-.132-.093-.422-.051-.553-.147l-.129.11c-.433.375-1.52 1-2.048.958l-1.445 1.247-.344.404c.057.353-.042.736-.231 1.067-.133.232-.49.638-.704.824l-.088.09-.403.945a4 4 0 0 1-.343.741 1.8 1.8 0 0 1-.387.48L11.762 94.36c-.495.428-1.73 1.08-2.317.935-.066-.015-.198.015-.266.004a1.9 1.9 0 0 1-.756-.277c-1.59-1.06-1.94-1.44-3.028-2.913-.163-.22-.286-.457-.33-.662-.003-.006 0-.015-.004-.02l-.001-.004c-.502-.65-.08-2.1-.521-2.82-.501-.822.585-2.72 1.326-3.362l.02-.017L34.88 60.229c.013-.011.102-.085.116-.091l-.002-.005 1.678-1.057h.002l.642-.554c.092-.08.644-.427.723-.336l-.048-.077-.221-.892 3.618-1.617.666-.26.046-.15c.117-.265.352-.535.68-.698.268-.096.848-.385 1.129-.366l1.474-1.27c-.05-.06.294-.461.247-.523-.115-.731-.017-1.46.286-2.044-.007-.012.059-.088.05-.1-2.38-4.32-3.34-9.24-3.045-14.277v-.01c.406-6.82 3.14-13.1 8.15-17.66z" opacity=".01"/><path d="M53.66 22.31c-3.4 3.06-5.97 7.12-6.697 11.72-.115.72-.142 1.47-.155 2.21-.089 5.97 2.39 11.5 6.559 15.604 4.29 4.21 10.1 6.72 16.397 6.89 6.2.176 12.1-1.96 16.547-5.961 4.3-3.88 6.9-9.28 6.992-15.191.021-1.28-.035-2.58-.288-3.813-.824-4.04-3.1-7.65-5.999-10.509-5.15-5.03-12.5-7.52-19.86-6.663-5.11.39-9.84 2.43-13.496 5.713zm-2.453-3.981c5.14-4.67 12-7.16 19.173-6.976h.01c7.21.19 14 3.06 18.951 7.928 4.21 4.14 6.91 9.55 7.437 15.45a24.4 24.4 0 0 1-.045 4.809c-.467 4.21-2.17 8.11-4.51 11.53-1.91 2.99-4.23 5.62-7.206 7.664-2.88 2-6.13 3.37-9.556 4.055-6.55 1.31-13.3.196-18.994-2.96a31 31 0 0 1-2.47-.105c-.325-.026-.691-.176-1.01-.39-.049-.033-.164-.134-.216-.165-.347-.21-1.18-.003-1.517-.238-.122-.086-.426-.018-.546-.107l-.128.11c-.403.347-1.52 1.03-2.017.987l-1.436 1.24-.308.388c.07.348-.03.73-.22 1.057-.125.215-.498.631-.698.804l-.08.085-.4.94a4.4 4.4 0 0 1-.34.738 1.7 1.7 0 0 1-.37.467L11.798 94.044c-.46.398-1.74 1.11-2.283.982-.062-.014-.202.036-.262.016-.246.01-.511-.101-.752-.26-1.64-1.09-1.89-1.38-3-2.913-.162-.221-.277-.462-.303-.665-.003-.004 0-.015-.003-.02v-.003c-.468-.603.112-2.11-.297-2.78-.465-.763.752-2.7 1.44-3.3l.02-.017L35.252 60.19c.014-.012.1-.083.116-.09l-.003-.005 1.693-1.014.002.002.64-.554c.106-.09.648-.41.739-.308l-.033-.057-.155-.887 3.545-1.708.653-.27.031-.154c.092-.264.312-.546.636-.715.25-.09.852-.412 1.113-.394l1.468-1.264c-.056-.07.253-.455.198-.526-.139-.722-.078-1.44.176-2.03-.009-.014.05-.087.042-.101-2.38-4.29-3.36-9.18-3.067-14.197v-.01c.4-6.8 3.16-13 8.16-17.578z" opacity=".011"/><path d="M53.629 22.12c-3.45 3.09-6.04 7.2-6.787 11.866-.117.729-.149 1.49-.164 2.238-.108 6.01 2.37 11.6 6.546 15.707 4.29 4.23 10.2 6.77 16.458 6.96 6.25.19 12.2-1.96 16.652-5.96 4.33-3.89 6.97-9.31 7.08-15.268.026-1.29-.032-2.61-.281-3.859-.814-4.09-3.09-7.76-6.014-10.665-5.09-4.99-12.3-7.52-19.656-6.75-5.24.333-10.1 2.4-13.836 5.731zm-2.289-3.704c5.11-4.62 11.9-7.11 19.102-6.904h.01c7.19.204 13.9 3.09 18.84 7.928 4.22 4.17 6.91 9.64 7.367 15.593a24.2 24.2 0 0 1-.108 4.838c-.53 4.23-2.3 8.13-4.735 11.515-1.95 2.92-4.32 5.47-7.316 7.444a25.45 25.45 0 0 1-9.56 3.84c-6.54 1.19-13.2-.046-18.803-3.267-.803.047-1.61.06-2.431.045-.321-.006-.689-.15-1.004-.365-.045-.032-.165-.14-.212-.168-.32-.193-1.19.084-1.5-.133-.113-.08-.43.015-.541-.068l-.126.109c-.371.32-1.53 1.05-1.986 1.019l-1.426 1.23-.273.373c.08.343-.016.723-.21 1.048-.117.196-.506.622-.69.782l-.073.08-.399.936c-.049.155-.246.6-.336.735a1.6 1.6 0 0 1-.355.454l-32.74 28.25c-.423.366-1.75 1.15-2.25 1.028-.056-.013-.201.047-.258.028-.243.024-.508-.085-.748-.244-1.69-1.12-1.83-1.33-2.972-2.913-.16-.222-.267-.467-.275-.667-.003-.005.002-.016-.002-.02v-.003c-.43-.557.307-2.12-.071-2.738-.43-.706.919-2.69 1.554-3.239l.018-.016 28.791-24.794c.016-.014.099-.08.118-.09l-.004-.005 1.707-.97.002.002.638-.552c.12-.103.652-.396.754-.28l-.018-.039-.088-.88 3.472-1.8.64-.281.016-.157c.066-.265.272-.558.592-.733.23-.082.855-.439 1.095-.422l1.463-1.257c-.063-.079.21-.45.15-.529-.163-.712-.14-1.42.064-2.017-.01-.016.043-.086.034-.102-2.38-4.26-3.38-9.12-3.089-14.118v-.01c.399-6.79 3.19-13 8.173-17.496z" opacity=".013"/><path d="M53.599 21.928c-3.5 3.12-6.12 7.29-6.876 12.012-.119.738-.156 1.51-.175 2.265-.127 6.05 2.35 11.7 6.534 15.81 4.28 4.25 10.2 6.83 16.52 7.03 6.3.204 12.3-1.96 16.758-5.959 4.36-3.9 7.04-9.35 7.168-15.344.03-1.31-.029-2.64-.275-3.905-.805-4.15-3.07-7.87-6.028-10.821-5.02-4.95-12.2-7.51-19.452-6.838-5.38.275-10.4 2.36-14.175 5.749zm-2.124-3.425c5.08-4.58 11.9-7.05 19.031-6.834h.01c7.18.218 13.8 3.11 18.73 7.93 4.23 4.21 6.91 9.73 7.296 15.735a24 24 0 0 1-.173 4.866c-.595 4.25-2.44 8.15-4.96 11.501-2 2.85-4.41 5.33-7.425 7.224-2.9 1.84-6.15 3.07-9.566 3.624-6.53 1.06-13.1-.287-18.61-3.572-.787.094-1.59.156-2.392.194-.318.014-.688-.123-1-.341-.04-.029-.164-.144-.207-.17-.294-.177-1.2.17-1.483-.028-.104-.073-.434.048-.536-.028l-.125.108c-.34.295-1.54 1.08-1.955 1.049l-1.416 1.223-.238.357c.094.338-.002.717-.198 1.038-.11.18-.516.615-.685.762l-.064.076-.397.93c-.045.143-.25.609-.332.733a1.4 1.4 0 0 1-.34.441L11.872 93.414c-.389.337-1.76 1.19-2.216 1.076-.053-.012-.203.058-.254.04-.24.037-.505-.07-.745-.228-1.74-1.15-1.78-1.27-2.943-2.912-.158-.224-.258-.472-.249-.67-.003-.004.003-.016 0-.02v-.003c-.395-.51.5-2.13.154-2.698-.394-.647 1.09-2.67 1.668-3.176l.017-.016 28.69-24.694c.017-.016.096-.079.117-.089l-.004-.005 1.722-.927.002.003.636-.55c.133-.115.655-.38.77-.251l-.005-.022-.02-.873 3.4-1.891.626-.294v-.159c.04-.266.233-.57.549-.75.212-.075.858-.465 1.078-.45l1.457-1.252c-.07-.088.169-.442.102-.53-.187-.704-.201-1.41-.047-2.004-.011-.018.035-.086.024-.103-2.38-4.23-3.4-9.06-3.11-14.04l.001-.009c.394-6.77 3.22-12.9 8.184-17.414z" opacity=".014"/><path d="M53.568 21.737c-3.55 3.15-6.19 7.37-6.965 12.159-.12.748-.164 1.52-.185 2.293-.146 6.09 2.33 11.7 6.521 15.913 4.28 4.27 10.2 6.88 16.582 7.1 6.35.219 12.4-1.96 16.863-5.958 4.39-3.91 7.11-9.38 7.257-15.42.035-1.33-.026-2.67-.269-3.952-.795-4.2-3.06-7.98-6.042-10.977-4.95-4.9-12-7.5-19.247-6.925-5.51.218-10.6 2.32-14.515 5.768zM51.61 18.59c5.06-4.53 11.8-6.99 18.96-6.763h.01c7.16.232 13.8 3.13 18.617 7.93 4.24 4.24 6.9 9.82 7.226 15.88a24 24 0 0 1-.237 4.895c-.659 4.27-2.57 8.17-5.184 11.486-2.04 2.79-4.5 5.19-7.534 7.004-2.9 1.77-6.16 2.92-9.572 3.408-6.53.93-13.1-.527-18.418-3.878-.77.142-1.56.253-2.353.343-.314.035-.685-.097-.994-.315-.037-.027-.165-.148-.204-.172-.267-.161-1.21.257-1.466.077-.094-.066-.438.08-.53.011l-.123.106c-.31.268-1.54 1.11-1.924 1.08l-1.408 1.215-.203.342c.106.332.012.71-.186 1.028-.101.162-.525.608-.679.74l-.056.072-.395.926c-.04.13-.255.616-.33.728a1.3 1.3 0 0 1-.322.43L11.908 93.098c-.354.306-1.77 1.22-2.184 1.123-.047-.011-.203.07-.25.054-.237.05-.503-.055-.741-.213-1.78-1.18-1.73-1.22-2.915-2.911-.157-.225-.25-.477-.221-.675-.003-.003.004-.015.002-.018v-.004c-.36-.464.693-2.14.378-2.656-.358-.588 1.25-2.66 1.782-3.116l.017-.015 28.587-24.594a1 1 0 0 1 .118-.087l-.004-.007 1.736-.882.003.003.633-.548c.146-.126.659-.365.784-.223l.011-.003.048-.867 3.326-1.983.614-.304-.015-.162c.014-.267.19-.582.504-.767.192-.069.861-.492 1.061-.478l1.451-1.247c-.077-.095.127-.435.053-.533-.21-.693-.262-1.39-.157-1.99-.012-.02.028-.084.016-.103-2.37-4.19-3.42-9-3.13-13.96v-.01c.39-6.76 3.24-12.9 8.195-17.333z" opacity=".016"/><path d="M53.537 21.546c-3.61 3.18-6.27 7.45-7.054 12.305-.123.757-.171 1.54-.195 2.321-.165 6.13 2.31 11.8 6.508 16.016 4.28 4.3 10.2 6.94 16.643 7.17 6.4.232 12.5-1.95 16.97-5.957 4.43-3.92 7.18-9.41 7.344-15.497.04-1.35-.022-2.7-.262-3.999-.785-4.26-3.04-8.09-6.057-11.132-4.88-4.86-11.8-7.5-19.043-7.012-5.65.16-10.9 2.28-14.854 5.785zm-1.793-2.868c5.03-4.49 11.8-6.94 18.89-6.693h.01c7.14.246 13.7 3.16 18.506 7.932 4.25 4.27 6.9 9.91 7.155 16.021a24 24 0 0 1-.3 4.924c-.724 4.29-2.71 8.19-5.409 11.472-2.09 2.72-4.59 5.04-7.644 6.784-2.91 1.69-6.16 2.77-9.577 3.193-6.52.804-13-.768-18.226-4.183a35 35 0 0 1-2.315.491c-.31.056-.683-.07-.988-.29-.034-.025-.165-.153-.2-.175-.24-.145-1.22.343-1.45.182-.085-.06-.442.113-.525.05l-.122.106c-.279.241-1.55 1.14-1.893 1.11l-1.398 1.207-.166.326c.119.327.025.705-.176 1.02-.092.145-.534.6-.672.72l-.049.066-.392.921a6 6 0 0 1-.327.725 1.2 1.2 0 0 1-.306.416L11.944 92.784c-.318.275-1.77 1.26-2.15 1.17-.043-.01-.205.08-.246.066-.234.063-.5-.04-.738-.196-1.83-1.21-1.68-1.16-2.886-2.91-.155-.227-.24-.483-.195-.678-.002-.003.006-.016.004-.02v-.002c-.322-.418.888-2.15.604-2.616-.322-.529 1.42-2.64 1.895-3.054l.017-.014 28.485-24.494a1 1 0 0 1 .119-.087l-.005-.007 1.75-.839.003.003.631-.546c.16-.138.663-.35.8-.194l.025.015.115-.86 3.253-2.075.601-.316-.03-.164c-.012-.268.15-.595.46-.785.175-.062.864-.518 1.044-.506l1.446-1.24c-.084-.106.086-.429.005-.536-.235-.684-.323-1.37-.269-1.977-.013-.021.021-.083.008-.104-2.37-4.16-3.43-8.94-3.152-13.88v-.009c.386-6.74 3.27-12.9 8.206-17.25z" opacity=".017"/><path d="M53.507 21.355c-3.66 3.21-6.34 7.54-7.143 12.452a19 19 0 0 0-.205 2.349c-.185 6.16 2.29 11.9 6.495 16.119 4.28 4.32 10.2 6.99 16.705 7.24 6.45.245 12.5-1.95 17.075-5.956 4.46-3.93 7.25-9.45 7.434-15.574.044-1.36-.02-2.73-.256-4.045-.775-4.31-3.03-8.2-6.072-11.288-4.81-4.82-11.7-7.49-18.839-7.1-5.78.103-11.1 2.24-15.193 5.803zm-1.628-2.59c5.01-4.44 11.7-6.88 18.819-6.621h.01c7.12.26 13.7 3.18 18.395 7.933 4.26 4.31 6.9 9.99 7.085 16.164a23.7 23.7 0 0 1-.365 4.952c-.787 4.31-2.84 8.21-5.633 11.457-2.13 2.65-4.69 4.9-7.754 6.564-2.92 1.61-6.17 2.62-9.581 2.977-6.51.677-12.9-1.01-18.034-4.489a35 35 0 0 1-2.276.641c-.307.076-.681-.044-.984-.266-.03-.022-.164-.157-.196-.176-.214-.13-1.23.43-1.432.286-.076-.053-.445.146-.52.091l-.12.104c-.249.215-1.56 1.17-1.862 1.142l-1.389 1.198-.131.31c.13.322.039.699-.165 1.01-.083.129-.543.594-.665.699l-.041.062-.39.917a7 7 0 0 1-.324.722 1.1 1.1 0 0 1-.29.403L11.981 92.47c-.283.245-1.78 1.3-2.117 1.217-.038-.01-.204.091-.241.079-.231.075-.497-.025-.734-.181-1.88-1.25-1.63-1.1-2.858-2.91-.154-.227-.231-.487-.168-.68-.002-.004.008-.016.006-.019v-.003c-.287-.371 1.08-2.16.828-2.574-.287-.47 1.59-2.63 2.01-2.993l.015-.013 28.382-24.394a1 1 0 0 1 .12-.086l-.006-.007 1.766-.795.002.003.63-.544c.171-.149.666-.335.814-.166l.04.034.182-.854 3.18-2.166.588-.327-.046-.168c-.037-.268.111-.607.418-.803.154-.054.866-.544 1.026-.533l1.44-1.235c-.091-.114.043-.422-.044-.538a5.4 5.4 0 0 1-.38-1.964c-.014-.022.014-.082 0-.105-2.37-4.13-3.45-8.88-3.174-13.8v-.01c.384-6.73 3.29-12.8 8.218-17.17z" opacity=".019"/><path d="M53.476 21.164c-3.71 3.24-6.42 7.62-7.232 12.598-.128.775-.187 1.57-.215 2.377-.203 6.2 2.27 11.9 6.482 16.22 4.28 4.34 10.2 7.05 16.766 7.31 6.5.26 12.6-1.95 17.18-5.954 4.49-3.94 7.32-9.48 7.521-15.65.049-1.38-.015-2.76-.249-4.091-.765-4.37-3.02-8.32-6.086-11.444-4.75-4.78-11.5-7.48-18.635-7.187-5.91.044-11.4 2.21-15.533 5.82zm-1.464-2.312c4.98-4.4 11.7-6.82 18.75-6.55h.01c7.1.273 13.6 3.21 18.282 7.934 4.27 4.34 6.89 10.1 7.015 16.306a23.6 23.6 0 0 1-.43 4.98c-.85 4.32-2.98 8.23-5.856 11.444-2.18 2.58-4.78 4.76-7.864 6.344-2.93 1.53-6.18 2.47-9.587 2.76-6.5.55-12.8-1.25-17.842-4.794a36 36 0 0 1-2.236.79c-.304.096-.68-.017-.979-.242-.026-.02-.164-.16-.192-.178-.187-.113-1.24.517-1.415.39-.066-.046-.45.18-.514.132l-.12.103c-.217.188-1.56 1.19-1.83 1.172l-1.38 1.19-.095.294c.144.316.051.692-.154 1-.074.112-.552.586-.659.68l-.033.056-.389.912c-.029.09-.267.64-.32.719a1.04 1.04 0 0 1-.273.39l-31.883 27.47c-.248.214-1.79 1.33-2.084 1.264-.034-.008-.205.103-.238.091-.228.089-.495-.008-.73-.165-1.93-1.28-1.59-1.05-2.83-2.91-.152-.227-.222-.491-.14-.682-.002-.003.009-.016.007-.018l.001-.004c-.252-.325 1.27-2.17 1.053-2.533-.251-.412 1.75-2.61 2.123-2.931l.015-.013 28.28-24.293a1 1 0 0 1 .12-.085l-.006-.008 1.78-.751.003.003.626-.542c.185-.16.671-.32.83-.138l.056.052.248-.848 3.107-2.257.575-.338-.06-.17c-.064-.27.07-.618.373-.82.135-.049.869-.572 1.009-.562l1.434-1.23c-.097-.121.003-.414-.092-.54a6.2 6.2 0 0 1-.49-1.95c-.016-.024.006-.08-.01-.105-2.37-4.1-3.47-8.82-3.194-13.721v-.01c.378-6.71 3.32-12.8 8.228-17.088z" opacity=".02"/><path d="M53.446 20.972c-3.76 3.28-6.49 7.71-7.322 12.744-.129.784-.193 1.59-.224 2.405-.223 6.24 2.25 12 6.469 16.324 4.28 4.36 10.2 7.1 16.828 7.378 6.55.275 12.7-1.95 17.286-5.952 4.52-3.95 7.38-9.52 7.61-15.727.053-1.4-.013-2.79-.243-4.138-.756-4.42-3-8.43-6.1-11.6-4.68-4.74-11.3-7.48-18.432-7.273a24.2 24.2 0 0 0-15.872 5.838zm-1.298-2.033c4.96-4.35 11.6-6.76 18.678-6.48h.01c7.09.287 13.5 3.23 18.172 7.935 4.29 4.37 6.89 10.2 6.945 16.449a23.4 23.4 0 0 1-.494 5.009c-.915 4.34-3.11 8.25-6.082 11.429-2.22 2.52-4.87 4.62-7.973 6.124-2.94 1.45-6.19 2.32-9.592 2.546a26.94 26.94 0 0 1-17.65-5.101 36 36 0 0 1-2.197.939c-.3.117-.677.008-.974-.217-.022-.017-.164-.166-.188-.18-.16-.097-1.24.603-1.399.495-.056-.04-.453.212-.509.17l-.118.102c-.186.161-1.57 1.22-1.8 1.203l-1.37 1.182-.06.28c.156.31.066.684-.142.99-.064.095-.561.577-.653.657l-.025.053-.387.907a9 9 0 0 1-.316.715.95.95 0 0 1-.258.378L12.054 91.838c-.212.184-1.8 1.37-2.051 1.31-.028-.008-.205.114-.233.105-.225.102-.492.006-.726-.15-1.98-1.31-1.54-.988-2.802-2.908-.151-.229-.212-.497-.113-.686-.002-.001.01-.016.008-.018l.002-.004c-.216-.278 1.47-2.18 1.278-2.493-.215-.353 1.92-2.59 2.237-2.869l.014-.012 28.178-24.192a.7.7 0 0 1 .12-.084l-.006-.008 1.794-.708.004.004.624-.54c.2-.173.675-.305.845-.11l.07.07.316-.841 3.034-2.349.562-.35-.077-.172c-.09-.27.032-.631.33-.838.116-.041.872-.598.992-.59l1.429-1.223c-.105-.131-.04-.41-.14-.543a7.2 7.2 0 0 1-.602-1.937c-.017-.026-.002-.08-.018-.106-2.37-4.06-3.49-8.76-3.216-13.64v-.01c.375-6.69 3.35-12.7 8.24-17.006z" opacity=".021"/><path d="M53.415 20.78c-3.82 3.31-6.57 7.79-7.41 12.892-.132.793-.202 1.61-.235 2.432-.242 6.28 2.23 12.1 6.456 16.427 4.28 4.38 10.3 7.16 16.89 7.449 6.6.289 12.8-1.95 17.391-5.951 4.55-3.96 7.45-9.55 7.699-15.803.057-1.42-.01-2.82-.236-4.184-.747-4.48-2.99-8.54-6.116-11.755-4.61-4.69-11.2-7.47-18.227-7.362-6.18-.07-11.9 2.13-16.213 5.856zm-1.133-1.754c4.93-4.31 11.6-6.71 18.607-6.409h.01c7.07.301 13.5 3.26 18.06 7.937 4.3 4.4 6.89 10.3 6.875 16.592a23.3 23.3 0 0 1-.558 5.037c-.979 4.36-3.25 8.27-6.306 11.414-2.26 2.45-4.96 4.47-8.083 5.904-2.95 1.37-6.2 2.17-9.597 2.33a26.83 26.83 0 0 1-17.458-5.406 35 35 0 0 1-2.158 1.088c-.297.138-.674.034-.969-.192-.018-.014-.164-.17-.184-.182-.134-.08-1.25.69-1.382.6-.047-.034-.457.244-.503.21l-.117.1c-.155.134-1.58 1.25-1.768 1.234l-1.361 1.172-.024.264c.168.306.079.678-.132.982-.054.079-.569.57-.646.636l-.018.049-.385.902c-.02.065-.275.655-.313.712a.87.87 0 0 1-.242.366L12.09 91.524c-.178.153-1.81 1.41-2.018 1.356-.024-.006-.206.125-.23.118-.222.114-.489.021-.722-.133-2.02-1.34-1.49-.932-2.774-2.909-.15-.23-.203-.5-.086-.689-.002-.001.012-.016.01-.018l.002-.003c-.18-.232 1.66-2.19 1.503-2.452-.18-.294 2.09-2.58 2.35-2.807l.014-.012 28.076-24.093a.7.7 0 0 1 .122-.084l-.007-.009 1.808-.664.004.004.623-.539c.212-.183.678-.288.86-.081l.085.089.383-.835 2.961-2.44.549-.362-.091-.175c-.116-.27-.01-.642.286-.855.096-.034.874-.624.974-.618l1.424-1.217c-.112-.14-.082-.402-.19-.545a8.5 8.5 0 0 1-.712-1.923c-.018-.029-.009-.08-.026-.108-2.36-4.03-3.51-8.7-3.238-13.562v-.009c.372-6.68 3.37-12.7 8.251-16.923z" opacity=".023"/><path d="M53.384 20.59c-3.87 3.34-6.64 7.88-7.5 13.038-.134.802-.208 1.63-.245 2.46-.26 6.31 2.21 12.2 6.444 16.53 4.27 4.4 10.3 7.21 16.95 7.518 6.65.304 12.9-1.94 17.497-5.95 4.59-3.97 7.52-9.58 7.787-15.88.061-1.43-.006-2.85-.23-4.23-.736-4.54-2.97-8.65-6.13-11.91-4.54-4.65-11-7.46-18.023-7.449-6.32-.128-12.2 2.09-16.551 5.873zm-.968-1.476c4.91-4.26 11.5-6.65 18.536-6.339h.01c7.05.316 13.4 3.28 17.95 7.938 4.31 4.44 6.88 10.3 6.803 16.735a23.2 23.2 0 0 1-.622 5.066c-1.04 4.38-3.38 8.29-6.53 11.4-2.31 2.38-5.05 4.33-8.193 5.684a25.6 25.6 0 0 1-9.602 2.114c-6.48.168-12.6-1.97-17.266-5.712a35 35 0 0 1-2.12 1.237c-.293.16-.672.061-.963-.167-.015-.011-.164-.175-.18-.185-.107-.064-1.26.776-1.365.705-.038-.027-.46.277-.498.25l-.115.1c-.124.107-1.58 1.28-1.737 1.264l-1.352 1.164.01.249c.182.301.094.672-.119.972-.044.063-.579.562-.64.615l-.01.044-.383.897c-.016.052-.279.664-.31.709a.8.8 0 0 1-.225.353l-31.37 27.002c-.141.122-1.82 1.44-1.983 1.404-.019-.005-.206.136-.225.13-.22.127-.486.037-.72-.118-2.07-1.37-1.44-.875-2.744-2.907-.148-.231-.194-.506-.06-.693 0 0 .014-.016.013-.017l.002-.003c-.144-.186 1.85-2.2 1.727-2.412-.143-.235 2.25-2.56 2.465-2.745l.013-.011 27.974-23.993a.7.7 0 0 1 .122-.083l-.007-.01 1.823-.619.004.004.62-.537c.226-.195.683-.273.876-.053l.1.107.45-.829 2.888-2.531.536-.373-.107-.178c-.142-.271-.049-.654.243-.873.077-.027.877-.651.957-.645l1.418-1.212c-.12-.148-.123-.395-.238-.547a10 10 0 0 1-.823-1.91c-.019-.03-.016-.078-.035-.108-2.36-4-3.52-8.63-3.258-13.482v-.01c.366-6.66 3.4-12.6 8.26-16.84z" opacity=".024"/><path d="M53.354 20.399c-3.92 3.37-6.72 7.96-7.59 13.184-.135.81-.214 1.64-.254 2.488-.28 6.35 2.19 12.2 6.431 16.633 4.27 4.42 10.3 7.27 17.012 7.588 6.7.318 13-1.94 17.602-5.949 4.62-3.98 7.59-9.62 7.875-15.956.066-1.45-.003-2.89-.223-4.277-.727-4.59-2.96-8.76-6.144-12.067-4.47-4.61-10.8-7.45-17.818-7.535-6.45-.186-12.4 2.05-16.892 5.89zM52.55 19.2c4.88-4.22 11.4-6.59 18.466-6.267h.01c7.03.329 13.3 3.31 17.837 7.938 4.32 4.47 6.88 10.4 6.734 16.877a23 23 0 0 1-.686 5.095c-1.11 4.4-3.52 8.31-6.755 11.385a25.3 25.3 0 0 1-8.303 5.464 25.8 25.8 0 0 1-9.606 1.899c-6.48.04-12.5-2.21-17.074-6.019a35 35 0 0 1-2.081 1.387c-.29.179-.67.088-.959-.143-.01-.008-.164-.18-.175-.186-.08-.049-1.27.863-1.348.808-.03-.02-.464.311-.493.29l-.114.099c-.093.08-1.59 1.3-1.705 1.295l-1.344 1.156.047.233c.193.295.107.665-.109.962-.033.047-.587.554-.633.595l-.003.039-.38.892c-.012.039-.284.672-.307.705a.7.7 0 0 1-.209.341L12.163 90.892c-.106.092-1.83 1.48-1.95 1.45-.015-.003-.208.148-.222.143-.216.14-.484.052-.715-.1-2.12-1.4-1.39-.818-2.716-2.909-.147-.232-.185-.512-.033-.695 0 0 .015-.016.014-.017l.003-.003c-.108-.14 2.05-2.22 1.952-2.37-.107-.177 2.42-2.55 2.579-2.685l.012-.01 27.872-23.892a.6.6 0 0 1 .122-.082l-.007-.01 1.837-.576.004.005.619-.535c.238-.206.685-.258.89-.025l.114.125.518-.822 2.815-2.623.523-.384-.122-.18c-.167-.273-.09-.668.199-.891.058-.021.879-.677.94-.673l1.412-1.207c-.126-.157-.165-.389-.287-.55a12.3 12.3 0 0 1-.934-1.896c-.02-.032-.023-.077-.043-.11-2.36-3.97-3.54-8.57-3.28-13.401v-.01c.362-6.65 3.42-12.6 8.272-16.758z" opacity=".026"/><path d="M53.323 20.208c-3.97 3.4-6.79 8.04-7.678 13.33a21 21 0 0 0-.264 2.517c-.3 6.39 2.17 12.3 6.417 16.736 4.27 4.44 10.3 7.32 17.074 7.657 6.76.333 13-1.94 17.708-5.947 4.65-3.99 7.66-9.65 7.964-16.033.07-1.47 0-2.92-.217-4.323-.717-4.65-2.94-8.87-6.16-12.223-4.41-4.57-10.7-7.45-17.613-7.623-6.58-.244-12.7 2.01-17.231 5.909zm-.638-.92c4.86-4.17 11.4-6.54 18.395-6.196h.01c7.01.343 13.3 3.33 17.727 7.94 4.33 4.5 6.88 10.5 6.662 17.02a23 23 0 0 1-.75 5.123c-1.17 4.42-3.65 8.32-6.979 11.37a25.4 25.4 0 0 1-8.412 5.245 26.1 26.1 0 0 1-9.612 1.683c-6.47-.087-12.4-2.46-16.881-6.325a35 35 0 0 1-2.042 1.536c-.286.2-.665.112-.953-.118-.007-.006-.164-.184-.172-.189-.054-.032-1.28.95-1.332.914-.019-.013-.468.343-.487.33l-.113.097c-.062.053-1.6 1.33-1.674 1.325l-1.334 1.148.082.217a.734.734 0 0 1-.097.953c-.017.035-.596.547-.627.574l.005.034-.379.888c-.008.026-.288.68-.303.702a.65.65 0 0 1-.193.328L12.2 90.577c-.07.061-1.83 1.52-1.918 1.498-.009-.004-.207.159-.216.155-.213.153-.481.068-.712-.085-2.17-1.44-1.35-.758-2.688-2.907-.146-.233-.176-.517-.006-.699l.015-.016.003-.004c-.071-.093 2.24-2.23 2.178-2.33-.072-.117 2.59-2.53 2.692-2.622l.011-.01 27.77-23.79a.5.5 0 0 1 .123-.081l-.007-.01 1.851-.533.005.005.616-.534c.251-.217.69-.242.905.004l.13.144.584-.816 2.742-2.715.51-.395-.137-.184c-.193-.273-.13-.679.155-.908.039-.014.882-.704.923-.7l1.406-1.201c-.133-.166-.207-.382-.335-.552a15 15 0 0 1-1.045-1.884c-.02-.034-.03-.076-.05-.11A23.3 23.3 0 0 1 44.4 35.974v-.009c.36-6.63 3.45-12.5 8.284-16.676z" opacity=".027"/><path d="M53.292 20.017c-4.03 3.43-6.87 8.13-7.767 13.477a22 22 0 0 0-.275 2.544c-.319 6.43 2.15 12.4 6.405 16.839 4.27 4.46 10.3 7.38 17.135 7.727 6.81.347 13.1-1.94 17.814-5.946 4.68-4 7.73-9.68 8.052-16.11a22 22 0 0 0-.21-4.37c-.708-4.7-2.93-8.98-6.174-12.378-4.34-4.52-10.5-7.44-17.41-7.71-6.72-.3-12.9 1.98-17.57 5.927zm-.473-.641c4.83-4.13 11.3-6.48 18.324-6.126h.01c7 .357 13.2 3.35 17.616 7.94 4.34 4.54 6.87 10.6 6.592 17.164a23 23 0 0 1-.813 5.15c-1.24 4.44-3.79 8.34-7.205 11.358a25.5 25.5 0 0 1-8.522 5.024 26.3 26.3 0 0 1-9.617 1.467c-6.46-.214-12.3-2.7-16.689-6.63a35 35 0 0 1-2.003 1.685c-.282.22-.665.141-.948-.093-.004-.002-.164-.189-.168-.19-.026-.016-1.29 1.04-1.314 1.018-.01-.007-.472.376-.481.37l-.112.095c-.032.027-1.6 1.36-1.643 1.356l-1.325 1.14.118.202a.7.7 0 0 1-.087.944c-.008.017-.605.539-.62.553l.012.03-.376.882c-.004.014-.292.687-.3.699a.6.6 0 0 1-.177.315L12.235 90.263c-.035.031-1.84 1.55-1.884 1.545-.005 0-.208.17-.213.168-.21.166-.478.083-.708-.07-2.21-1.47-1.3-.697-2.66-2.905-.145-.234-.167-.521.021-.702l.018-.017.003-.003c-.036-.047 2.43-2.24 2.402-2.289-.036-.058 2.75-2.51 2.806-2.56l.011-.01 27.668-23.691a.5.5 0 0 1 .123-.08l-.008-.01 1.866-.49.005.005.614-.531c.265-.23.693-.227.92.032l.145.162.651-.81 2.67-2.806.497-.407-.153-.186c-.219-.273-.169-.69.112-.925.02-.007.885-.73.905-.73l1.4-1.194c-.14-.175-.248-.376-.383-.555a19 19 0 0 1-1.156-1.87c-.022-.035-.038-.075-.06-.11-2.35-3.9-3.58-8.45-3.323-13.244v-.01c.355-6.62 3.47-12.5 8.295-16.595z" opacity=".029"/><path d="M88.377 21.678c-4.27-4.48-10.3-7.43-17.196-7.797h-.01c-6.85-.36-13.2 1.94-17.91 5.944-4.71 4-7.8 9.72-8.14 16.186v.01c-.338 6.47 2.13 12.5 6.392 16.941 4.27 4.48 10.3 7.43 17.197 7.797 6.86.36 13.2-1.94 17.919-5.944 4.71-4 7.8-9.72 8.14-16.186.34-6.47-2.13-12.5-6.393-16.95zm-17.16-8.27c6.98.37 13.2 3.38 17.504 7.941 4.35 4.57 6.87 10.7 6.522 17.306-.349 6.61-3.5 12.4-8.306 16.522-4.81 4.08-11.3 6.42-18.254 6.056-6.46-.34-12.2-2.94-16.497-6.935a35 35 0 0 1-1.964 1.834.67.67 0 0 1-.944-.069l-.163-.193-1.298 1.123-3.513 3.023.153.186a.67.67 0 0 1-.076.934l-.614.532.02.025-.67 1.574a.53.53 0 0 1-.16.302L10.42 91.54l-.208.18c-.207.18-.475.099-.705-.053-2.26-1.5-1.25-.642-2.631-2.905-.143-.235-.158-.526.048-.705l.02-.017.003-.003L40.07 59.69a.5.5 0 0 1 .124-.079l-.008-.011 1.88-.445.005.004.612-.529a.666.666 0 0 1 .935.06l.16.18 3.315-3.7.483-.418-.168-.189a.667.667 0 0 1 .068-.943l2.283-1.945c-3.48-4.35-5.42-9.83-5.11-15.69v-.009c.35-6.6 3.5-12.4 8.305-16.513 4.81-4.08 11.3-6.42 18.254-6.055z" opacity=".03"/></g><g fill-rule="evenodd" stroke-width=".336" clip-rule="evenodd"><path fill="gray" d="M46.495 11.939c8.8-10 24.7-11.4 35.47-2.988 5.63 4.37 8.76 10.5 9.212 16.847-.983-5.46-3.99-10.6-8.914-14.464-10.8-8.38-26.7-7.04-35.47 2.987-4.21 4.79-6.03 10.7-5.62 16.475-1.17-6.51.535-13.4 5.321-18.859z"/><path fill="url(#c)" d="M45.431 9.873c8.8-10 24.7-11.4 35.47-2.988 10.8 8.38 12.4 23.3 3.594 33.322-8.8 10-24.7 11.4-35.47 2.988-10.8-8.38-12.4-23.3-3.594-33.322" transform="translate(.838 3.737)"/><path fill="#4d4d4d" d="m41.08 32.512 3.342 6.62 4.414 5.234 4.161 3.279 4.356 1.69 3.337.958 4.162.575 3.846-.196 5.864-1.135 5.107-2.397 4.919-3.72 3.278-3.972-1.576 3.405-3.531 3.467-5.36 3.595-4.792 1.702-5.423.568-6.81-.316-6.242-2.206-5.17-2.9-4.099-4.73-2.648-4.477-1.261-4.099z"/><path fill="#666" d="M90.695 32.2c-.437 4.53-2.27 8.98-5.577 12.747-8.8 10-24.7 11.4-35.47 2.987-7.24-5.62-10.3-14.2-8.944-22.246-.728 7.55 2.43 15.3 9.17 20.576 10.8 8.38 26.7 7.04 35.47-2.988 2.9-3.3 4.66-7.13 5.35-11.075z"/></g><path fill="url(#d)" d="M45.248 7.957c4.49-5.11 10.8-8.01 17.318-8.568 6.54-.556 13.3 1.23 18.825 5.497 5.49 4.26 8.64 10.2 9.301 16.345.657 6.15-1.18 12.5-5.667 17.615-4.49 5.11-10.8 8.01-17.318 8.567-6.54.556-13.3-1.23-18.826-5.496-5.49-4.26-8.64-10.2-9.301-16.345-.658-6.15 1.18-12.5 5.667-17.614zM62.664.277c-6.3.536-12.4 3.33-16.678 8.253-4.32 4.92-6.09 11-5.46 16.964.633 5.92 3.67 11.6 8.959 15.736 5.29 4.11 11.8 5.83 18.125 5.295 6.3-.535 12.4-3.33 16.678-8.253 4.32-4.92 6.09-11 5.46-16.964-.634-5.92-3.67-11.6-8.959-15.736-5.29-4.11-11.8-5.83-18.125-5.294" transform="translate(.838 3.737)"/><g fill-rule="evenodd" clip-rule="evenodd"><path fill="url(#g)" d="m143.22 134.06-11.25-10.748-25.888 27.097 11.25 10.749z" transform="translate(1.564 3.028)scale(.33629)"/><path fill="#4d4d4d" d="m45.174 45.3-1.501 1.57c.3.133.67.37 1.122.768 1.147 1.002 1.678 2.563 1.917 3.627l1.995-2.09z"/><path fill="url(#h)" d="M121.34 158c-3.94-4.42-7.96-8.56-12.287-11.738-.867-.635-.795-2-.041-2.787l2.25-2.355a1.984 1.984 0 0 1 2.787-.086c4.38 4.12 8.56 7.98 12.287 11.738.756.763.795 2 .039 2.787l-2.248 2.354c-.755.79-2.07.89-2.787.087" transform="translate(1.564 3.028)scale(.33629)"/><path fill="url(#i)" d="M122.78 160.75c-7.13-5.22-12.4-10.3-16.852-15.799a1.493 1.493 0 0 0-2.101.04l-93.041 97.392c-.561.586-.435 1.44.056 2.1 4.72 6.31 9.74 12.3 16.86 16.107.722.385 1.54.549 2.1-.04l93.042-97.392c.561-.588.528-1.84-.064-2.408" transform="translate(1.564 3.028)scale(.33629)"/><path d="m5.376 84.346-.206.216c-.189.197-.146.484.02.706 1.586 2.122 3.275 4.137 5.669 5.417.243.13.518.184.706-.014l.206-.216c-.189.198-.464.143-.706.014-2.395-1.278-4.07-3.296-5.67-5.417-.165-.22-.207-.507-.02-.706"/><path fill="url(#j)" d="M104.14 144.69c4.55 5.12 11.8 12 18.895 18.142l1.736-5.462c-5.02-5.1-10-9.6-15.189-14.527z" transform="translate(1.564 3.028)scale(.33629)"/><path fill="url(#k)" d="M138.31 140.28c-4.44-4.34-8.52-8.26-12.338-11.787-.803-.742-.82-2.02-.064-2.811l5.277-5.525c.756-.79 1.94-.721 2.811-.063 4.64 3.49 8.72 7.44 12.338 11.787.701.841.82 2.02.064 2.811l-5.277 5.524c-.756.791-2.03.828-2.811.064" transform="translate(1.564 3.028)scale(.33629)"/><path fill="#666" d="m43.977 46.184-.162-.155 2.577-2.692.162.154zm6.692 1.184.162.155-2.581 2.707-.163-.154zm-6.217-.767-.161-.155 2.615-2.732.161.155zm5.789.302.161.154-2.612 2.734-.162-.154zm-5.202.258-.161-.155 2.662-2.78.16.155zm4.66-.869.162.155-2.659 2.783-.161-.154zm-3.937 1.555-.161-.155 2.687-2.813.162.155zm.712.685-.161-.154 2.7-2.82.16.154z"/><path fill="url(#l)" d="M137.61 106.93c-13.9-14.7-16.8-40-5.428-62.493 12.7-25.3 38.8-38.3 60.609-31.297-19.5 3.82-38.3 18.1-49.154 39.696-9.12 18.1-10.8 37.7-6.027 54.094" transform="translate(1.564 3.028)scale(.33629)"/></g><path fill="url(#m)" d="M80.956 8.756c8.01 8.75 7.25 22.5-1.691 30.67-4.42 4.05-10 5.98-15.516 5.839 6.01.698 12.3-1.15 17.216-5.612 8.81-8.06 9.55-21.6 1.666-30.2a20.7 20.7 0 0 0-7.958-5.397 21 21 0 0 1 6.283 4.7z" transform="translate(.838 3.737)"/></svg>