<svg xmlns="http://www.w3.org/2000/svg" width="37" height="38" viewBox="727.8 482.4 80.624 82.946"><path fill="#0e65c0" d="M798.886 506.025c-1.582 0-3.103.64-4.414 1.848a1.7 1.7 0 0 1-1.153.455c-.429 0-.87-.171-1.198-.469a1.68 1.68 0 0 1-.526-1.237v-19.913h-19.946c-.469 0-.91.185-1.238.526-.299.327-.469.753-.469 1.194s.158.824.453 1.151c1.214 1.308 1.853 2.814 1.853 4.406 0 4.307-4.77 7.803-10.649 7.803s-10.649-3.496-10.649-7.803c0-1.578.639-3.098 1.849-4.406.299-.327.457-.725.457-1.151s-.174-.867-.469-1.194a1.69 1.69 0 0 0-1.242-.526h-19.946v19.913c0 .469.186.91.53 1.237.328.299.753.469 1.193.469s.825-.156 1.153-.455c1.311-1.208 2.82-1.848 4.414-1.848 4.313 0 7.817 4.761 7.817 10.632s-3.504 10.632-7.817 10.632c-1.582 0-3.103-.64-4.414-1.848a1.7 1.7 0 0 0-1.153-.455c-.425 0-.866.171-1.193.469-.344.327-.53.753-.53 1.236v19.913h19.946c.473 0 .914.184 1.242.526.295.327.469.753.469 1.194s-.158.825-.457 1.151c-1.21 1.308-1.849 2.814-1.849 4.406 0 4.307 4.766 7.803 10.649 7.803s10.649-3.496 10.649-7.803c0-1.577-.639-3.098-1.853-4.406-.295-.327-.453-.725-.453-1.151s.17-.867.469-1.194a1.68 1.68 0 0 1 1.238-.526h19.946v-19.913c0-.469.186-.91.526-1.236.328-.299.757-.469 1.198-.469s.825.156 1.153.455c1.311 1.208 2.82 1.848 4.414 1.848 4.313 0 7.817-4.762 7.817-10.632s-3.504-10.632-7.817-10.632"/><path fill="#fff" d="m750.992 531.907.113-1.18c.174-.54.655-1.222 1.452-2.046.797-.825 2.419-2.26 4.871-4.293l3.572-2.971a14 14 0 0 0 1.521-1.492 8.3 8.3 0 0 0 1.096-1.649 8.2 8.2 0 0 0 .655-1.905c.142-.668.214-1.407.214-2.203 0-.853-.214-1.592-.639-2.203q-.645-.938-1.622-.938c-.769 0-1.525.242-2.221.725-.7.483-1.096.967-1.198 1.436a2.7 2.7 0 0 0 0 .952c.044.384.044.654.016.81-.089.37-.259.711-.514.995s-.554.512-.898.668c-.34.156-.684.227-1.011.227s-.655-.085-.91-.242a1.5 1.5 0 0 1-.57-.625 1.75 1.75 0 0 1-.17-.796c0-.426.113-.867.316-1.322.21-.441.498-.867.854-1.279a8.4 8.4 0 0 1 1.278-1.151 12 12 0 0 1 1.598-.952c1.392-.654 2.889-.995 4.527-.995s2.901.384 3.985 1.165c1.068.782 1.622 1.905 1.622 3.34 0 .625-.057 1.194-.17 1.72s-.344 1.052-.684 1.606c-.344.54-.672 1.023-.983 1.421-.312.412-.813.924-1.521 1.549a53 53 0 0 1-1.837 1.578l-2.339 1.876-2.46 1.947c-1.153.909-1.922 2.004-2.306 3.269h4.483c.797 0 1.509-.27 2.148-.81.401-.327.785-.796 1.169-1.379-.057.042 1.679.81 1.639.796-.643 1.805-1.226 3.255-1.768 4.307h-13.351.012l.028.042zM781.987 519.271c-.328.028-.757.057-1.311.099l-1.096.085a26 26 0 0 1-.724.043c-.316.014-.615.014-.914.014-2.12 0-3.771-.071-4.968-.199-.239.611-.809 2.231-1.691 4.861.441-.114 1.125-.213 2.019-.327a18 18 0 0 1 2.152-.156c1.691 0 3.018.441 3.957 1.336s1.408 2.061 1.408 3.525c0 2.829-1.21 5.345-3.601 7.533-1.792 1.62-3.787 2.43-5.951 2.43s-3.787-.341-4.855-1.023c-.668-.426-1.011-.981-1.011-1.649 0-.526.214-.995.627-1.407s.927-.625 1.537-.625c1.153 0 1.922.469 2.306 1.435.429 1.109.939 1.649 1.537 1.649.999 0 1.881-.526 2.662-1.563.514-.697.983-1.692 1.412-2.999.425-1.308.627-2.53.627-3.71 0-.64-.117-1.194-.328-1.635-.214-.441-.502-.767-.829-.952a2.3 2.3 0 0 0-1.125-.284c-.825 0-1.537.071-2.12.227s-3.204.725-3.204.725l3.718-10.93c.413.043 1.109.114 2.108.213.995.099 1.764.156 2.318.156.486 0 .999-.014 1.497-.043.51-.028.922-.057 1.25-.085.344-.028.858-.085 1.537-.156.7-.071 1.254-.142 1.695-.171l.684.469-1.323 3.155v-.043z"/></svg>