<svg width="85" height="85" fill="none" viewBox="0 0 85 85" xmlns="http://www.w3.org/2000/svg">
  <defs></defs>
  <path fill="#396" d="M29.903 17.174a28.173 28.173 0 0 0-8.02 5.961 25.639 25.639 0 0 0 3.37-.155 30.66 30.66 0 0 1 4.65-5.806Zm2.659-1.157a30.49 30.49 0 0 1 7.095.488c.8-.72 1.548-1.488 2.245-2.293-3.12.064-6.273.65-9.34 1.805Zm-1.472 2.609a28.709 28.709 0 0 0-3.336 3.95 25.94 25.94 0 0 0 4.445-1.386l-1.109-2.564Zm1.736-.749 1.097 2.537a25.89 25.89 0 0 0 3.784-2.318 28.578 28.578 0 0 0-4.881-.219ZM44.3 14.266a27.752 27.752 0 0 1-2.423 2.745 30.477 30.477 0 0 1 11.685 6.056 40.611 40.611 0 0 0 3.433-4.857A28.429 28.429 0 0 0 44.3 14.266Zm-23.99 10.69a28.599 28.599 0 0 0-5.59 12.087 40.37 40.37 0 0 0 5.961.704c.2-4.465 1.39-8.825 3.437-12.764-1.275.08-2.548.069-3.808-.027Zm19.896-6.424a27.611 27.611 0 0 1-5.534 3.615l5.062 11.705a40.315 40.315 0 0 0 12.598-9.36 28.573 28.573 0 0 0-12.126-5.96ZM26.37 24.746a28.728 28.728 0 0 0-3.814 13.037 40.227 40.227 0 0 0 15.452-3.16l-5.057-11.695a27.645 27.645 0 0 1-6.581 1.818Zm32.214-5.51a42.54 42.54 0 0 1-3.61 5.088 29.996 29.996 0 0 1 6.89 9.877c.344.794.652 1.594.922 2.4a56.27 56.27 0 0 0 5.252-6.274 28.216 28.216 0 0 0-9.454-11.091ZM14.408 38.908a28.332 28.332 0 0 0 1.864 14.472c2.693.297 5.419.404 8.155.305-.469-.848-.9-1.725-1.293-2.632a30.076 30.076 0 0 1-2.477-11.411 42.247 42.247 0 0 1-6.25-.734Zm39.328-13.162a42.149 42.149 0 0 1-13.25 9.845l5.572 12.884A56.138 56.138 0 0 0 61.28 38.102a28.573 28.573 0 0 0-1.149-3.147 28.195 28.195 0 0 0-6.395-9.209ZM22.53 39.673A28.284 28.284 0 0 0 24.862 50.3a28.55 28.55 0 0 0 1.67 3.268 56.091 56.091 0 0 0 17.8-4.324L38.76 36.361a42.063 42.063 0 0 1-16.23 3.312ZM68.9 32.32a58.168 58.168 0 0 1-5.504 6.345 30.176 30.176 0 0 1-.024 15.106 69.637 69.637 0 0 0 6.948-5.76A28.342 28.342 0 0 0 68.9 32.32ZM17.172 55.37A28.232 28.232 0 0 0 27.83 66.938a69.33 69.33 0 0 0 8.767-1.272 30.048 30.048 0 0 1-11.063-10.14 57.818 57.818 0 0 1-8.362-.157ZM61.82 40.184a57.993 57.993 0 0 1-15.008 10.035l4.564 10.554a70.295 70.295 0 0 0 9.534-5.285l.003-.008a28.401 28.401 0 0 0 .907-15.296ZM27.698 55.372a28.273 28.273 0 0 0 11.785 9.62 70.37 70.37 0 0 0 10.165-3.455l-4.565-10.554a57.957 57.957 0 0 1-17.385 4.39Zm41.768-4.039a71.438 71.438 0 0 1-7.01 5.393 30.783 30.783 0 0 1-7.38 11.369c7.092-3.517 12.113-9.677 14.39-16.762ZM30.839 68.527c6.622 2.997 14.365 3.444 21.616.708A30.576 30.576 0 0 1 39.36 66.97a71.267 71.267 0 0 1-8.521 1.558ZM59.67 58.513a72.302 72.302 0 0 1-7.54 4.003l1.776 4.107c2.4-2.37 4.34-5.122 5.764-8.11Zm-17.163 7.61a28.623 28.623 0 0 0 9.668 1.26l-1.776-4.107a72.356 72.356 0 0 1-7.892 2.846Z"></path>
  <path fill="#fbd017" d="M42.501 0C28 0 15.186 7.299 7.516 18.432l8.216 4.76c6.01-8.309 15.76-13.719 26.77-13.719 11.008 0 20.76 5.41 26.768 13.719l8.217-4.76C69.817 7.299 57.004 0 42.501 0Z"></path>
  <path d="M 3.031 26.722 C 1.017 31.761 -0.014 37.139 -0.009 42.566 C -0.009 64.497 16.528 82.578 37.769 84.936 L 37.769 75.38 C 21.758 73.078 9.435 59.26 9.435 42.566 C 9.435 38.692 10.099 34.975 11.318 31.518 L 3.031 26.722 Z" style="fill: rgb(0, 42, 126);"></path>
  <path d="M 81.963 26.787 L 73.676 31.583 C 74.926 35.132 75.563 38.868 75.559 42.631 C 75.559 59.325 63.237 73.143 47.226 75.445 L 47.226 85.001 C 68.466 82.643 85.003 64.562 85.003 42.631 C 85.008 37.204 83.977 31.826 81.963 26.787 Z" style="fill: rgb(205, 17, 38);"></path>
</svg>
