<svg xmlns="http://www.w3.org/2000/svg" viewBox="0 0 99.371 94"><defs><linearGradient id="a" x1="715.72" x2="650.84" y1="299.56" y2="230.35" gradientTransform="matrix(1 0 0 1 -476.47 -112.84)" gradientUnits="userSpaceOnUse"><stop offset="0" stop-color="#f4e3c9"/><stop offset="1" stop-color="#e8cc9c"/></linearGradient><linearGradient id="b" x1="791.06" x2="723.26" y1="-355.93" y2="-358.38" gradientTransform="matrix(1 0 0 1 -419.34 258.6)" gradientUnits="userSpaceOnUse"><stop offset="0" stop-color="#f4e3c9"/><stop offset="1" stop-color="#e8cc9c"/></linearGradient><linearGradient id="c" x1="175.47" x2="218.36" y1="955.27" y2="880.66" gradientTransform="translate(-137.36 -469.78)" gradientUnits="userSpaceOnUse"><stop offset="0" stop-color="#f4e3c9"/><stop offset="1" stop-color="#e8cc9c"/></linearGradient><linearGradient id="d" x1="758.9" x2="693.67" y1="200.79" y2="145.1" gradientTransform="matrix(1 0 0 1 -490.35 22.102)" gradientUnits="userSpaceOnUse"><stop offset="0" stop-color="#f4e3c9"/><stop offset="1" stop-color="#e8cc9c"/></linearGradient><linearGradient id="e" x1="870.86" x2="795.29" y1="-140.09" y2="-169.78" gradientTransform="translate(-450.41 198.75)" gradientUnits="userSpaceOnUse"><stop offset="0" stop-color="#f4e3c9"/><stop offset="1" stop-color="#e8cc9c"/></linearGradient><linearGradient id="f" x1="965.2" x2="901.4" y1="159.71" y2="103.76" gradientTransform="translate(-490.36 21.895)" gradientUnits="userSpaceOnUse"><stop offset="0" stop-color="#f4e3c9"/><stop offset="1" stop-color="#e8cc9c"/></linearGradient><linearGradient id="g" x1="412.32" x2="388.39" y1="743.89" y2="683.2" gradientTransform="matrix(1 0 0 1 -379.78 -307.21)" gradientUnits="userSpaceOnUse"><stop offset="0" stop-color="#f4e3c9"/><stop offset="1" stop-color="#e8cc9c"/></linearGradient><linearGradient id="h" x1="805.99" x2="741.84" y1="514.13" y2="450.75" gradientTransform="matrix(1 0 0 1 -476.47 -112.84)" gradientUnits="userSpaceOnUse"><stop offset="0" stop-color="#f4e3c9"/><stop offset="1" stop-color="#e8cc9c"/></linearGradient><linearGradient id="i" x1="974.97" x2="909.49" y1="357.18" y2="305.17" gradientTransform="matrix(1 0 0 1 -489.43 -30.476)" gradientUnits="userSpaceOnUse"><stop offset="0" stop-color="#f4e3c9"/><stop offset="1" stop-color="#e8cc9c"/></linearGradient><linearGradient id="j" x1="904.66" x2="947.51" y1="359.95" y2="414.23" gradientTransform="rotate(-2.651 371.03 8297.003) scale(.86899)" gradientUnits="userSpaceOnUse"><stop offset="0" stop-color="#006"/><stop offset="1" stop-color="#00004e"/></linearGradient><linearGradient id="k" x1="536.09" x2="439.25" y1="521.38" y2="434.3" gradientTransform="matrix(.4924 .57156 -.5038 .50537 233.62 -190.72)" gradientUnits="userSpaceOnUse"><stop offset="0" stop-color="#006"/><stop offset="1" stop-color="#00004e"/></linearGradient><linearGradient id="l" x1="366.09" x2="270.37" y1="184.23" y2="86.036" gradientTransform="matrix(.48599 .46026 -.48283 .46961 235.22 -80.236)" gradientUnits="userSpaceOnUse"><stop offset="0" stop-color="#006"/><stop offset="1" stop-color="#00004e"/></linearGradient><linearGradient id="m" x1="196.09" x2="95.29" y1="365.66" y2="255.57" gradientTransform="matrix(.62072 .13619 -.13295 .60595 365.14 10.093)" gradientUnits="userSpaceOnUse"><stop offset="0" stop-color="#006"/><stop offset="1" stop-color="#00004e"/></linearGradient><linearGradient id="n" x1="533.23" x2="454.66" y1="185.66" y2="89.025" gradientTransform="matrix(.6601 .05941 -.06 .65361 -116.44 105.73)" gradientUnits="userSpaceOnUse"><stop offset="0" stop-color="#006"/><stop offset="1" stop-color="#00004e"/></linearGradient><linearGradient id="o" x1="1090.1" x2="897.17" y1="429.68" y2="230.68" gradientTransform="matrix(.2791 0 0 .29445 61.366 240.55)" gradientUnits="userSpaceOnUse"><stop offset="0" stop-color="#006"/><stop offset="1" stop-color="#00004e"/></linearGradient><linearGradient id="p" x1="-190.77" x2="-514.01" y1="284.21" y2="-144.09" gradientTransform="matrix(.11096 -.03855 .03808 .11572 257.08 100.52)" gradientUnits="userSpaceOnUse"><stop offset="0" stop-color="#006"/><stop offset="1" stop-color="#00004e"/></linearGradient></defs><g fill="#e6c78d" stroke="#000" stroke-linecap="round" stroke-linejoin="round" stroke-width="1.083"><path d="m167.06 113.39 71.56-.003c5.05-.001 9.15 5.49 9.159 12.273l-.009 64.983c.009 6.77-4.09 12.3-9.152 12.27l-71.56.004c-5.06 0-9.16-5.5-9.158-12.273l-.006-64.985c.007-6.78 4.1-12.3 9.166-12.269z" transform="matrix(.26688 -.03012 .03255 .26659 -36.46 -15.817)"/><path d="m305.5-142.43 71.556-.008c5.05.003 9.16 5.5 9.16 12.29l.003 64.96c.002 6.79-4.11 12.3-9.166 12.291l-71.554-.012c-5.06.006-9.16-5.48-9.163-12.27v-64.98c.007-6.77 4.11-12.3 9.163-12.271z" transform="matrix(.20972 .16778 -.16586 .21124 -36.46 -15.817)"/><path d="m13.544 408.65 71.552-.006c5.07.006 9.17 5.51 9.166 12.277l-.003 64.981c.001 6.78-4.11 12.3-9.155 12.277l-71.552.006c-5.07-.005-9.17-5.51-9.167-12.277l.004-64.981c-.001-6.78 4.09-12.3 9.155-12.277z" transform="matrix(.10768 -.24604 .24701 .10543 -36.46 -15.817)"/><path d="m195.87 155.33 71.566-.012c5.06 0 9.15 5.5 9.155 12.29l.003 64.969c.003 6.77-4.1 12.3-9.158 12.282l-71.554-.005c-5.07.003-9.17-5.5-9.167-12.273l-.006-64.984c.013-6.77 4.1-12.3 9.16-12.268z" transform="matrix(.26494 .04404 -.04162 .26533 -36.46 -15.817)"/><path d="m349.24 5.92 71.559.007c5.06.001 9.16 5.49 9.166 12.267l.002 64.976c-.002 6.79-4.11 12.3-9.173 12.279l-71.552.006c-5.06-.001-9.16-5.5-9.16-12.287l.005-64.964c.002-6.79 4.09-12.3 9.153-12.284z" transform="matrix(.23081 .13732 -.13521 .23205 -36.46 -15.817)"/><path d="m407.93 113.79 71.564.003c5.06.002 9.16 5.49 9.162 12.277l-.007 64.982c-.001 6.77-4.09 12.3-9.15 12.276l-71.563-.003c-5.06-.002-9.16-5.49-9.162-12.277l.007-64.982c0-6.77 4.09-12.3 9.149-12.276z" transform="matrix(.26496 .04393 -.0415 .26534 -36.46 -15.817)"/><path d="M-22.208 367.33H49.34c5.07.004 9.17 5.5 9.173 12.276l-.011 64.974c-.004 6.79-4.1 12.3-9.158 12.273l-71.556.011c-5.06.004-9.16-5.49-9.153-12.28l-.009-64.97c.004-6.79 4.11-12.3 9.166-12.285z" transform="matrix(.22799 -.14195 .14403 .22669 -36.46 -15.817)"/><path d="m256.91 334.37 71.56-.003c5.06 0 9.16 5.5 9.157 12.288l.008 64.97c-.008 6.78-4.1 12.3-9.168 12.283l-71.558-.011c-5.05 0-9.15-5.49-9.159-12.273l.007-64.97c-.007-6.78 4.1-12.3 9.153-12.284z" transform="matrix(.26688 -.03012 .03255 .26659 -36.46 -15.817)"/><path d="m412.42 264.06 71.547.004c5.07 0 9.17 5.5 9.16 12.272l.002 64.974c.008 6.79-4.1 12.3-9.152 12.278l-71.561.011c-5.06 0-9.17-5.5-9.162-12.287v-64.974c.007-6.77 4.1-12.3 9.166-12.279z" transform="matrix(.26813 .01544 -.01299 .26826 -36.46 -15.817)"/></g><g stroke="#000"><g stroke-linecap="round" stroke-linejoin="round" stroke-width="1.083"><path fill="url(#a)" d="m168.67 105.61 71.56-.003c5.06 0 9.16 5.5 9.157 12.288l.008 64.97c-.008 6.78-4.1 12.3-9.168 12.283l-71.558-.011c-5.05 0-9.15-5.49-9.159-12.273l.007-64.97c-.007-6.78 4.1-12.3 9.153-12.284z" transform="matrix(.26688 -.03012 .03255 .26659 -36.46 -15.817)"/><path fill="url(#b)" d="m301.13-149.01 71.565.004c5.06-.007 9.16 5.48 9.163 12.269v64.98c-.007 6.77-4.11 12.3-9.164 12.272l-71.556.007c-5.07-.004-9.16-5.5-9.16-12.289l-.003-64.96c-.001-6.79 4.11-12.3 9.155-12.282z" transform="matrix(.20972 .16778 -.16586 .21124 -36.46 -15.817)"/><path fill="url(#c)" d="m21.065 406.09 71.558.008c5.05-.003 9.15 5.5 9.153 12.283l.004 64.962c.001 6.78-4.1 12.3-9.168 12.283l-71.552.005c-5.05-.01-9.15-5.5-9.153-12.283l-.01-64.975c-.001-6.78 4.11-12.3 9.168-12.283z" transform="matrix(.10768 -.24604 .24701 .10543 -36.46 -15.817)"/><path fill="url(#d)" d="m195.31 147.43 71.554.004c5.06 0 9.16 5.49 9.153 12.276l.003 64.97c.005 6.79-4.1 12.3-9.158 12.281l-71.554-.004c-5.06 0-9.16-5.49-9.167-12.273l.01-64.972c-.004-6.79 4.1-12.3 9.159-12.282z" transform="matrix(.26494 .04404 -.04162 .26533 -36.46 -15.817)"/><path fill="url(#e)" d="m345.84-1.189 71.564-.014c5.05.01 9.15 5.51 9.154 12.275l.001 64.976c-.002 6.79-4.1 12.3-9.152 12.284l-71.571.002c-5.05-.01-9.14-5.5-9.154-12.275l-.002-64.976c.003-6.79 4.11-12.3 9.16-12.272z" transform="matrix(.23081 .13732 -.13521 .23205 -36.46 -15.817)"/><path fill="url(#f)" d="m407.37 105.91 71.547-.008c5.06.001 9.16 5.51 9.162 12.277l-.007 64.982c.001 6.79-4.09 12.3-9.15 12.276l-71.563-.004c-5.05.012-9.16-5.49-9.162-12.277l.01-64.967c-.002-6.79 4.09-12.3 9.163-12.278z" transform="matrix(.26496 .04393 -.0415 .26534 -36.46 -15.817)"/><path fill="url(#g)" d="m-17.42 360.98 71.56.008c5.06-.004 9.16 5.49 9.153 12.28l.009 64.97c-.004 6.79-4.11 12.3-9.166 12.285l-71.56-.008c-5.06.004-9.16-5.49-9.153-12.28l-.009-64.97c.004-6.79 4.11-12.3 9.166-12.285z" transform="matrix(.22799 -.14195 .14403 .22669 -36.46 -15.817)"/><path fill="url(#h)" d="m258.53 326.6 71.558.011c5.05 0 9.15 5.49 9.158 12.273l-.006 64.97c.007 6.78-4.1 12.3-9.154 12.284l-71.56.003c-5.06 0-9.16-5.5-9.156-12.288l-.008-64.97c.007-6.78 4.1-12.3 9.168-12.283z" transform="matrix(.26688 -.03012 .03255 .26659 -36.46 -15.817)"/><path fill="url(#i)" d="m412.69 256.16 71.561-.012c5.06 0 9.15 5.5 9.162 12.287l-.014 64.975c.007 6.77-4.1 12.3-9.152 12.278l-71.56-.003c-5.06 0-9.15-5.5-9.162-12.272V268.44c.006-6.79 4.11-12.3 9.166-12.279z" transform="matrix(.26813 .01544 -.01299 .26826 -36.46 -15.817)"/></g><path fill="url(#j)" stroke-width=".838" d="m441.29 356.87-27.635-1.629c-.655-5.67-1.43-10.8-2.313-15.272-1.24-6.47-1.75-11.7-1.527-15.723.291-5.44 1.22-10.3 2.807-14.588-4.04-1.6-5.96-4.19-5.774-7.796.19-3.43 1.18-6.46 2.967-9.105l1.338.087c.262 1.37.713 2.34 1.382 2.924.655.596 2.08 1.21 4.262 1.847 3.26.96 4.76 3.88 4.494 8.77-.073 1.24-.218 2.21-.451 2.939-2.15.64-4.13.902-5.905.8-.96 3.71-1.57 7.88-1.818 12.508-.32 5.93 1.21 13.2 4.596 21.657l1.527.029c4.97-8.84 9.56-20.1 13.73-33.685-4-1.92-5.91-4.7-5.701-8.334.16-3.14 1.15-5.92 2.967-8.334l1.338.072c.29 2.07 1.15 3.35 2.574 3.84l3.07.946c3.29 1.03 4.81 3.65 4.595 7.839-.087 1.48-.305 2.78-.654 3.854-1.51.422-3.37.567-5.585.437-3.14 12.4-7.33 23.6-12.566 33.642l15.723.93c1.82-5.45 6.43-13.3 13.86-23.532 1.89-2.56 2.89-4.77 2.997-6.633.102-1.89-.727-3.21-2.473-3.97l-.625-.262c-3.23-1.44-4.77-3.68-4.596-6.749.175-3.46 1.31-6.52 3.36-9.178l1.294.073c.131 1.77.916 2.98 2.327 3.65l2.72 1.208c3.07 1.38 4.49 3.97 4.29 7.767-.174 3.27-1.93 7.46-5.294 12.552-3.35 5.08-6.36 10.7-9.032 16.843-2.69 6.15-4.77 12.7-6.269 19.577z" transform="translate(-36.46 -15.817) scale(.26857)"/><path fill="url(#k)" stroke-width=".736" d="m204.06 338.41 1.25-.829c1.72 2.63 3.19 4.04 4.451 4.247 1.25.204 3.4-.713 6.43-2.734l14.064-9.41-.494-.917c-.465-.785-1.02-1.32-1.644-1.614a3.848 3.848 0 0 0-1.978-.393c-.713.043-4.28.45-10.69 1.236l-16.377 2.08-6.56-10.996 1.251-.844c2.4 2.81 5.09 4.26 8.072 4.378 2.98.116 8.94-.29 17.904-1.236 3.27-.349 5.73-.189 7.36.48.233-1.93.829-3.69 1.774-5.25.945-1.56 3.04-4.16 6.254-7.84 2.53-2.91 4.03-4.83 4.51-5.745.48-.931.494-1.76.043-2.502-.422-.713-1.31-1.4-2.647-2.065-1.31-.64-2.18-1.35-2.647-2.11-.538-.901-.684-1.82-.48-2.792.218-.96.742-1.72 1.585-2.269 1.02-.684 2.2-.844 3.534-.494 1.32.364 2.52 1.41 3.564 3.141 1 1.7 1.45 3.53 1.338 5.513-.116 1.96-.625 3.65-1.527 5.047-.902 1.41-2.84 3.83-5.774 7.258-2.68 3.1-4.42 5.27-5.236 6.5-.8 1.24-1.22 2.52-1.251 3.826-.015 1.31.407 2.68 1.265 4.13.291.48.742 1.09 1.367 1.804l12.64-8.45c3.03-2.04 4.73-3.69 5.104-4.974.364-1.29-.218-3.32-1.73-6.065l1.25-.844 11.127 18.602-1.265.844c-1.69-2.62-3.16-4.01-4.407-4.204s-3.39.727-6.414 2.75l-12.654 8.45c.218.684.48 1.29.785 1.803.96 1.59 1.99 2.65 3.113 3.17 1.12.539 2.37.685 3.738.466 1.38-.218 4-.945 7.868-2.196 4.16-1.35 7.03-2.15 8.596-2.414 1.57-.247 3.24-.015 5.003.698 1.75.713 3.14 1.93 4.175 3.65.989 1.66 1.38 3.21 1.163 4.655-.204 1.45-.858 2.55-1.934 3.258-.844.567-1.72.742-2.618.552-.916-.189-1.64-.756-2.182-1.658-.436-.727-.655-1.88-.683-3.432 0-1.6-.218-2.76-.655-3.49-.422-.699-1.15-1-2.196-.932-1.05.073-3.3.684-6.778 1.804-4.54 1.5-7.68 2.37-9.396 2.618-1.72.233-3.46.058-5.221-.553a14.018 14.018 0 0 1-1.295 4.494c-.669 1.43-2.57 4.92-5.73 10.501-3.01 5.32-4.71 9.03-5.09 11.141-.365 2.09-.059 4.52.9 7.258l-1.25.844-6.56-10.996c.437-.64 2.72-4.47 6.866-11.447l6.82-11.52c.437-.712.815-1.57 1.12-2.588.32-1 .132-2.08-.537-3.2-.145-.233-.32-.495-.524-.8l-14.079 9.396c-3.03 2.04-4.73 3.68-5.105 4.96s.189 3.29 1.702 6.02l-1.251.83z" transform="translate(-36.46 -15.817) scale(.26857)"/><path fill="url(#l)" stroke-width=".839" d="m367.55 135.56-10.181-8.436-35.78 39.648-6.909-5.73 35.78-39.663-4.901-4.073 4.93-5.469 21.991 18.253zm-34.078-14.225c-3.83 4.25-8.36 6.87-13.614 7.869-5.25.989-10.5.32-15.824-2.037l1.818 23.024-8.843-.16-3.36-41.045 8.887.131.698 8.596c.03.262.378.67 1.033 1.207 3.21 2.68 7.24 3.52 12.057 2.546 4.35-.858 7.84-2.75 10.472-5.673 2.04-2.25 3.08-5.13 3.127-8.64.058-3.78-1.18-6.72-3.71-8.828-1.69-1.38-3.42-2.21-5.206-2.458-1.99-.262-3.65.32-4.945 1.76-1.85 2.05-1.4 4.22 1.353 6.502.625.509 1.38.974 2.24 1.381l-4.626 5.134c-1.25-.495-2.72-1.43-4.392-2.821-2.68-2.21-4.04-4.84-4.131-7.898-.102-2.84.902-5.41 2.996-7.738 2.69-3 6.21-4.35 10.53-4.057 4.06.218 7.81 1.75 11.243 4.596 5.05 4.19 7.69 8.96 7.956 14.312.19 5.06-1.73 9.83-5.76 14.297z" transform="translate(-36.46 -15.817) scale(.26857)"/><path fill="#006" stroke-width=".21888454999999996" d="m94.226 14.276-.172.403c-.368-.157-.69-.215-.976-.172-.29.039-.613.207-.98.496-.247.195-.723.712-1.427 1.543l-8.964 10.262-.414-.18.8-10.824-7.183 8.105-.375-.16 1.027-14.07c.078-1.048.11-1.673.098-1.875a1.516 1.516 0 0 0-.305-.86c-.18-.234-.472-.44-.883-.613l.172-.406 5.2 2.219-.168.402-.25-.105c-.368-.157-.685-.188-.95-.094a.883.883 0 0 0-.558.508c-.11.253-.203.905-.29 1.953l-.745 9.484 5.316-6.066.113-1.422.09-1.137a6.075 6.075 0 0 0-.082-1.168 1.336 1.336 0 0 0-.184-.488 1.877 1.877 0 0 0-.398-.504c-.113-.102-.309-.21-.594-.332l.172-.402 5.473 2.332-.172.402-.375-.16c-.387-.164-.706-.196-.961-.098-.254.098-.44.298-.566.594-.16.37-.277 1.085-.36 2.14l-.707 9.192 6.121-7.012c.688-.773 1.101-1.332 1.25-1.683a.877.877 0 0 0 .05-.532.885.885 0 0 0-.25-.468c-.218-.215-.539-.411-.96-.59l.172-.403z"/><path fill="url(#m)" stroke-width=".785" d="m445.04 194.83-4.814 5.323-4.698-5.512 4.712-5.353zm4.8 9.861-4.83 5.222-4.755-5.542 4.698-5.207zm-9.658 1.164-4.77 5.294-4.786-5.454 4.684-5.309zm.175 38.369-2.895-.902c-1.47-.465-2.68-1.11-3.65-1.934-.96-.814-1.85-1.92-2.677-3.302-1.37.756-2.52 1.19-3.432 1.309-1.32.145-3.07-.131-5.28-.829l-4.509-1.41c-.829 2.6-2.18 4.97-4.043 7.097-2.43 2.76-5.37 4.64-8.829 5.6-4.35 1.22-9.22.989-14.617-.728-4.9-1.54-8.32-3.71-10.268-6.516-2.14-3.08-2.49-6.87-1.047-11.374.785-2.44 1.83-4.83 3.142-7.17a62.45 62.45 0 0 1 4.509-6.865c1.03-1.37 2.71-3.42 5.047-6.182l1.221 1.222c-3.01 3.55-5.18 6.41-6.487 8.596-1.29 2.18-2.27 4.25-2.894 6.196-1.12 3.52-.902 6.53.684 9.047 1.57 2.52 4.36 4.41 8.377 5.672 4.68 1.48 9.19 1.85 13.483 1.12 5.35-.916 8.7-3.48 10.065-7.694.902-2.84 1.31-5.69 1.222-8.523a24.368 24.368 0 0 0-1.149-6.734l5.832-7.753c.48 2.71.655 5.03.524 6.953-.204 2.72-.989 6.25-2.4 10.632l4.509 1.41c2.33.743 4.12.845 5.352.335 1.08-.436 1.86-1.4 2.327-2.865.262-.83.495-1.67.67-2.531a39 39 0 0 0 .494-2.865l2.283-2.095-.727 4.305c-.349 2.95-.276 5.18.233 6.691.567 1.67 1.77 2.81 3.607 3.389.567.175 1.06.102 1.498-.218.436-.305.756-.785.96-1.397.451-1.43.553-3.05.32-4.916-.189-1.37-.553-2.79-1.09-4.276l3.94-3.869c.452 2.55.67 4.26.655 5.135-.029 1.95-.596 4.63-1.687 8.028z" transform="translate(-36.46 -15.817) scale(.26857)"/></g><path fill="#d40000" d="M53.266 52.652a12.273 12.273 0 0 1-2.367 2.926c-.875.797-1.9 1.4-3.02 1.785-1.09.371-2.27.492-3.523.352-1.25-.148-2.56-.625-3.93-1.434-.992-.582-1.89-1.3-2.683-2.14-.75-.825-1.32-1.69-1.711-2.594a6.725 6.725 0 0 1-.551-2.75c.027-.938.297-1.83.8-2.688.423-.71.935-1.25 1.532-1.621a4.455 4.455 0 0 1 1.933-.656 5.75 5.75 0 0 1 2.172.218c.797.227 1.56.56 2.27.989.145-.254.258-.523.336-.801.09-.305.133-.621.125-.938a2.09 2.09 0 0 0-.192-.921 1.56 1.56 0 0 0-.656-.72c-.223-.128-.395-.175-.523-.136a.505.505 0 0 0-.274.234c-.07.117-.125.25-.168.399a1.345 1.345 0 0 1-.148.394.51.51 0 0 1-.293.239 1.05 1.05 0 0 1-.395.054 1.668 1.668 0 0 1-.414-.09 1.647 1.647 0 0 1-.34-.148 1.212 1.212 0 0 1-.535-.695c-.093-.32-.043-.648.16-.988.324-.551.793-.84 1.407-.868.613-.027 1.31.191 2.086.653a3.426 3.426 0 0 1 1.664 2.62c.066.563.011 1.19-.16 1.864-.16.672-.457 1.38-.903 2.129l-1.398-.828a6.51 6.51 0 0 0-1.594-.707 4.132 4.132 0 0 0-1.363-.188c-.414.02-.777.11-1.094.278a1.777 1.777 0 0 0-.711.68c-.227.378-.332.77-.316 1.167.019.391.12.773.3 1.145.191.375.438.738.743 1.094.309.352.637.68.984.976.352.301.699.57 1.05.813.349.242.657.438.919.593.867.516 1.71.88 2.547 1.098.84.211 1.64.25 2.402.121a5.083 5.083 0 0 0 2.18-.98c.69-.508 1.31-1.23 1.87-2.172.302-.496.493-1.05.567-1.621a5.015 5.015 0 0 0-.035-1.707 6.846 6.846 0 0 0-.516-1.68 8.077 8.077 0 0 0-.898-1.562 8.823 8.823 0 0 0-1.16-1.344 7.443 7.443 0 0 0-1.317-1.004l-3.035-1.8c-2.03-1.2-2.66-2.45-1.879-3.759.22-.375.512-.625.875-.754a2.958 2.958 0 0 1 1.25-.132c.461.03.95.133 1.469.3.535.18 1.06.387 1.57.625.523.242 1.04.504 1.543.793.461.25.918.512 1.371.778.527.312 1.05.664 1.578 1.054.516.375 1.01.777 1.485 1.207.465.414.879.844 1.246 1.29.379.44.676.878.887 1.316.227.434.355.852.386 1.262a1.76 1.76 0 0 1-.242 1.128 2.09 2.09 0 0 1-.367.45c-.172.16-.363.293-.566.406a3.104 3.104 0 0 1-.743.262 3.352 3.352 0 0 1-.906.05c.172.504.297 1.02.367 1.555a7.12 7.12 0 0 1 .032 1.633 7.276 7.276 0 0 1-.364 1.71 8.653 8.653 0 0 1-.816 1.786zm1.738-8.816c.075-.13.067-.293-.03-.5a2.53 2.53 0 0 0-.462-.668 7.235 7.235 0 0 0-.812-.774 16.734 16.734 0 0 0-1.059-.851c-.395-.293-.797-.57-1.207-.836a26.624 26.624 0 0 0-1.25-.793l-3.867-2.29a4.357 4.357 0 0 0-.715-.359 1.568 1.568 0 0 0-.477-.125.563.563 0 0 0-.316.07.558.558 0 0 0-.184.2.882.882 0 0 0-.101.25c0 .097.023.199.074.285.063.105.164.223.305.351.148.121.355.262.629.422l3.36 1.993c.87.516 1.63 1.06 2.28 1.628.648.566 1.2 1.16 1.66 1.774.508.3.957.488 1.34.555.383.066.66-.043.832-.332z"/><g stroke="#000"><path fill="url(#n)" stroke-width=".824" d="m224.05 250.97 2.036.422c-.974 4.64-2.68 7.81-5.061 9.512-2.4 1.72-5.05 2.27-7.956 1.658-2.39-.495-4.52-1.67-6.429-3.52-1.89-1.85-3.07-5.99-3.505-12.436l-1.25-18.093-23.214 26.238-10.719-2.225 32.885-35.547c-.175-5.51-.887-9.73-2.167-12.625-1.28-2.91-3.26-4.64-5.949-5.193-2.15-.45-4.17-.204-6.05.742-1.88.931-3.19 2.72-3.942 5.353l-2.05-.422c1.03-4.29 2.88-7.52 5.555-9.672 2.66-2.15 5.59-2.91 8.756-2.24 2.05.422 3.84 1.47 5.396 3.17 1.56 1.69 2.68 4.25 3.345 7.68.67 3.43 1.37 10.4 2.095 20.915l1.062 14.792c.407 6.12 1.29 10.4 2.676 12.668 1.38 2.33 3.32 3.75 5.803 4.276 4.23.873 7.13-.945 8.683-5.454z" transform="translate(-36.46 -15.817) scale(.26857)"/><path fill="url(#o)" stroke-width=".838" d="M336.95 370.92c-.073-.364-1.02-10.1-2.109-21.57-1.08-11.5-2.05-21.5-2.138-22.326l-.175-1.41-.8 1.526c-1.7 3.29-3.65 5.57-4.741 5.571-.422 0-.829-.116-.916-.247-.088-.145.335-1.38.916-2.735 3.55-8.09 6.17-18.6 6.181-24.58 0-2.18.247-3.64.626-3.636.698 0 7.75 3.36 7.752 3.695 0 .204-.509.829-1.12 1.381-.989.887-1.22 1.37-2.08 4.364-.524 1.83-.916 3.4-.843 3.461.058.073 4.35-.335 9.54-.902l9.426-1.018 2.08-2.254c1.13-1.24 2.15-2.25 2.254-2.254.32 0 4.83 3.69 5.672 4.654.451.495.742 1.06.684 1.28-.087.276-2.17.61-7.447 1.163-4.03.436-7.36.83-7.417.888-.044.058.145 2.5.436 5.41.276 2.91.524 5.56.523 5.862 0 .509.175.538 1.891.378l1.891-.19 1.833-2.108c1.35-1.56 1.93-2.05 2.225-1.862 1.15.727 5.99 4.97 6.065 5.309.116.48-.29.553-7.621 1.323-3.21.35-5.88.64-5.89.67-.044.043.96 10.4 1.076 11.068.058.32.45.407 1.614.363 1.51-.058 1.54-.087 3.505-2.269 1.09-1.21 2.17-2.2 2.385-2.196.451 0 6.39 5.19 6.386 5.585a.55.55 0 0 1-.204.393c-.116.072-3.1.436-6.632.8-3.53.364-6.5.742-6.589.843-.204.218.931 12.3 1.178 12.537.102.102 1.35.058 2.778-.116l2.604-.306 2.254-2.356c1.24-1.31 2.4-2.37 2.589-2.37.436 0 7.04 5.53 7.04 5.89a.518.518 0 0 1-.233.407c-.131.088-7.13.887-15.534 1.79-8.42.901-15.4 1.69-15.432 1.774-.088.087 0 1.44.16 3.025l.305 2.865-.858.8c-.785.713-4 2.3-4.683 2.298-.145 0-.335-.305-.408-.669zm9.861-11.839c2.05-.233 3.77-.465 3.825-.524.131-.13-1.02-12.4-1.178-12.566-.145-.16-8.12.625-8.421.83-.189.13.785 12.1 1.033 12.624.058.131.974.059 4.741-.363zm-1.09-15.781c1.77-.189 3.27-.393 3.345-.465.175-.175-.844-11.1-1.062-11.345-.218-.233-8.19.61-8.45.887-.088.116.058 2.44.334 5.192.276 2.76.509 5.32.524 5.702.014.625.102.669 1.061.523.567-.087 2.49-.32 4.247-.494zm-2.095-14.428c1.7-.16 3.33-.364 3.636-.422l.567-.13-.552-5.891c-.524-5.56-.582-5.91-1.12-5.905-1.43.014-7.81.887-7.985 1.09-.116.132.029 2.62.32 5.542.29 2.91.524 5.45.523 5.658.015.45.684.465 4.61.058zm-35.969 36.303c-1.41-1.75-1.83-2.49-1.833-3.2-.014-.93 0-.945 2.007-1.294 3.05-.538 10.9-2.71 16.392-4.51 2.69-.886 4.97-1.56 5.091-1.483.131.088.218.436.218.8 0 .51-.64 1-3.272 2.531-1.8 1.03-6.2 3.59-9.76 5.673-3.56 2.07-6.59 3.77-6.734 3.767-.145 0-1.09-1.02-2.109-2.284zm-.16-15.955c-.771-1.63-1.41-3.13-1.41-3.36 0-.233.334-.509.726-.61 1.05-.277 3.29-2.6 4.742-4.917 1.35-2.14 5-9.92 4.77-10.167-.072-.072-.552.088-1.061.364-1.79.989-9.28 4.25-9.73 4.247-.452 0-3.62-4.6-3.622-5.25 0-.19.596-.656 1.338-1.048 1.25-.669 1.44-.931 2.545-3.432 2.3-5.22 4.29-11.7 5.629-18.166.422-2.04.742-3.03 1.004-3.026.64 0 5.92 3.94 5.934 4.422 0 .247-.48.8-1.077 1.236-.858.655-1.25 1.28-1.978 3.243-1.29 3.43-4.16 9.6-5.977 12.828-.844 1.5-1.5 2.72-1.47 2.72s2.12-.335 4.655-.742c2.53-.393 4.7-.727 4.829-.727.509-.014 3.83-8.32 3.825-9.585 0-1.11.93-.713 3.49 1.455 1.45 1.24 2.65 2.3 2.648 2.37 0 .059-.553.685-1.237 1.382-.8.83-2.39 3.4-4.494 7.302-3.48 6.4-6.12 10.9-8.116 13.643-.684.93-1.22 1.73-1.222 1.774s2.98-.349 6.618-.873c3.65-.538 7.11-.974 7.68-.974 1-.015 1.05.03 1.047 1.004s-.044 1.02-1.6 1.469c-4.03 1.18-11.3 3.83-13.875 5.032-1.54.727-2.88 1.32-2.996 1.324-.131 0-.858-1.32-1.615-2.938zm41.19-36.972c-.247-.262-.567-1.02-.742-1.702-.77-3.21-1.98-5.44-4.16-7.708-1.06-1.09-1.41-1.67-1.41-2.313 0-.829.043-.858 1.105-.698 1.93.262 5.57 2.37 7.621 4.407 1.88 1.86 1.88 1.86 1.877 3.462 0 1.86-.785 3.51-2.11 4.421-.988.698-1.61.727-2.181.131z" transform="translate(-36.46 -15.817) scale(.26857)"/><path fill="url(#p)" stroke-width=".838" d="M212.61 160.38c-.669-.305-1.76-1.11-4.276-3.112-1.85-1.48-3.42-2.78-3.476-2.88-.058-.102-.073-.218-.03-.277s.815-.567 1.702-1.134c9.15-5.77 16.8-12.5 22.05-19.373 6.43-8.39 11.5-18.7 13.832-28.173.247-1 .51-1.99.582-2.182l.117-.349 3.665 1.774c2.02.99 3.71 1.86 3.752 1.95.175.275-1.35 5.57-2.545 8.872-2.66 7.42-6.66 14.9-11.039 20.71-5.79 7.68-12.7 14.5-20.857 20.727l-1.6 1.221.015.67c0 .363-.044.901-.117 1.192-.102.436-.189.553-.494.655-.32.116-.553.058-1.28-.291zm-8.392-29.962c-6.07-1.82-10.3-2.82-14.385-3.447-.83-.116-1.54-.276-1.556-.335-.073-.218 2.43-8.07 2.574-8.116.189-.072 8.52 1.51 10.298 1.95 2.01.494 8.29 2.24 8.407 2.341.102.087-2.52 7.98-2.735 8.261-.043.059-1.22-.233-2.603-.654zm3.709-20.639c-4.16-1.19-6.59-1.79-9.556-2.385-4.86-.99-6.92-1.47-6.909-1.644 0-.349 1.8-7.62 1.906-7.767.087-.116.247-.145.494-.101.204.043 2.25.465 4.538.93 2.3.465 4.87 1 5.716 1.222 1.61.378 6.72 1.73 7.636 1.993l.523.16-.101.407c-.32 1.34-2.08 7.56-2.167 7.636-.059.058-.99-.145-2.08-.451z" transform="translate(-36.46 -15.817) scale(.26857)"/></g></svg>