<svg xmlns="http://www.w3.org/2000/svg" width="52" height="49" fill="none"><path fill="url(#a)" stroke="#000" stroke-width=".2" d="m45.877 45.74-4.532-.263c-.115-.936-.23-1.774-.378-2.513-.197-1.067-.295-1.92-.246-2.578.05-.886.197-1.69.46-2.397-.657-.263-.985-.69-.953-1.28a2.892 2.892 0 0 1 .493-1.495l.213.016c.05.23.115.378.23.477.115.098.345.197.706.295.542.164.789.64.74 1.445-.017.197-.033.361-.083.476-.361.099-.673.148-.969.132a9.5 9.5 0 0 0-.295 2.052c-.05.969.197 2.168.755 3.563h.246c.822-1.445 1.56-3.3 2.25-5.533-.657-.312-.969-.772-.936-1.363a2.5 2.5 0 0 1 .493-1.363l.213.016c.05.345.18.542.427.624l.51.148c.541.164.787.591.755 1.281-.017.246-.05.46-.115.64a2.661 2.661 0 0 1-.92.066c-.509 2.036-1.199 3.875-2.069 5.517l2.578.148c.296-.903 1.05-2.184 2.282-3.859.312-.427.477-.788.493-1.084.017-.312-.115-.525-.41-.656l-.099-.05c-.525-.23-.788-.607-.755-1.1a2.62 2.62 0 0 1 .558-1.51l.213.016c.017.296.148.493.378.591l.444.197c.508.23.738.657.706 1.281-.033.542-.313 1.231-.87 2.053a17.71 17.71 0 0 0-1.479 2.775 17.705 17.705 0 0 0-1.034 3.234Z"/><path fill="url(#b)" stroke="#000" stroke-miterlimit="10" stroke-width=".2" d="M9.424 44.262c-.444.755-.706 1.428-.772 2.036a3.26 3.26 0 0 0 .312 1.757l-.18.098a7.362 7.362 0 0 1-.625-1.757 7.768 7.768 0 0 1-.147-2.052c.049-.69.147-1.347.312-1.938a6.885 6.885 0 0 1-.033-1.625c.098-.657.361-1.248.755-1.807.378-.558.952-1.05 1.691-1.478 1.15-.673 2.3-.886 3.465-.64 1.166.246 2.053.887 2.627 1.872.559.952.674 1.987.312 3.136-.361 1.133-1.116 2.053-2.266 2.742-.936.542-1.905.805-2.906.723-.985-.082-1.84-.427-2.545-1.067Zm6.945-5.32c-.377-.657-.935-1.019-1.658-1.134-.903-.131-1.987.165-3.268.92-1.248.722-2.036 1.543-2.43 2.447-.279.69-.23 1.362.148 2.003.394.673.969 1.05 1.724 1.166.887.115 1.938-.181 3.136-.87.92-.542 1.61-1.117 2.086-1.758.378-.492.558-.968.59-1.428a2.316 2.316 0 0 0-.328-1.347Z"/><path fill="url(#c)" stroke="#000" stroke-width=".2" d="m33.759 9.401-1.675-1.38-5.879 6.52-1.133-.936 5.879-6.52-.805-.672.805-.903 3.612 2.988-.804.903ZM28.176 7.07c-.624.69-1.38 1.133-2.233 1.298-.87.164-1.725.049-2.595-.329l.296 3.777-1.445-.033-.559-6.732 1.462.016.115 1.412c0 .05.065.115.164.197.525.444 1.182.575 1.987.41.706-.147 1.28-.442 1.724-.935.328-.378.509-.838.509-1.412.016-.624-.197-1.1-.608-1.445a1.788 1.788 0 0 0-.853-.41c-.329-.05-.608.049-.805.295-.312.345-.23.69.213 1.067.099.082.23.164.362.23l-.756.837c-.213-.082-.443-.23-.722-.46-.444-.36-.657-.804-.673-1.296-.017-.46.147-.887.492-1.265.444-.492 1.018-.706 1.724-.673.674.033 1.281.295 1.84.755.837.69 1.264 1.478 1.313 2.348.017.821-.296 1.61-.952 2.348Z"/><path fill="url(#d)" stroke="#000" stroke-width=".2" d="m46.484 19.139-.788.87-.771-.903.771-.887.788.92Zm.789 1.609-.789.854-.788-.904.772-.854.805.904Zm-1.577.197-.788.87-.788-.887.772-.87.804.887Zm.033 6.305-.476-.148c-.246-.082-.444-.18-.591-.312a1.87 1.87 0 0 1-.444-.541c-.23.13-.41.197-.558.213-.213.016-.509-.017-.87-.131l-.74-.23a3.096 3.096 0 0 1-.672 1.166 2.96 2.96 0 0 1-1.445.92c-.706.196-1.511.163-2.398-.116-.804-.246-1.363-.607-1.691-1.067-.345-.51-.41-1.133-.164-1.872.131-.394.295-.788.509-1.182.213-.378.46-.756.739-1.133.164-.23.443-.559.82-1.018l.198.197c-.493.574-.854 1.05-1.067 1.412-.214.361-.378.69-.477 1.018-.18.575-.148 1.067.115 1.478.263.41.723.722 1.38.936.771.246 1.51.312 2.216.18.87-.148 1.429-.575 1.659-1.264.148-.46.213-.936.197-1.396a3.702 3.702 0 0 0-.197-1.1l.952-1.28c.082.442.099.82.082 1.149-.033.443-.164 1.034-.394 1.74l.74.23c.377.115.672.131.87.05.18-.066.311-.23.377-.477.05-.131.082-.279.115-.41.033-.148.05-.296.082-.477l.378-.344-.115.706c-.066.476-.05.854.033 1.1.098.279.295.46.59.558.1.033.181.017.247-.033a.49.49 0 0 0 .164-.23c.082-.23.099-.509.05-.804a2.98 2.98 0 0 0-.181-.706l.64-.64c.066.41.115.705.115.837 0 .328-.098.755-.279 1.313l-.509 1.708Z"/><path fill="url(#e)" stroke="#000" stroke-width=".2" d="m10.212 28.35.328.066c-.164.755-.443 1.28-.837 1.56-.394.28-.821.378-1.314.28-.394-.083-.739-.28-1.05-.576-.313-.312-.51-.985-.575-2.036l-.198-2.972-3.809 4.302L1 28.613l5.402-5.83c-.033-.902-.147-1.592-.36-2.068-.214-.476-.543-.756-.97-.854-.361-.066-.69-.033-.985.115-.312.148-.525.443-.657.887l-.328-.066c.164-.706.476-1.232.903-1.593.443-.361.92-.476 1.445-.361.328.066.624.246.887.525.262.28.443.69.541 1.265.115.558.23 1.707.345 3.432l.18 2.43c.067 1.001.214 1.691.444 2.085.23.378.542.608.953.706.673.099 1.15-.197 1.412-.936Z"/><path fill="url(#f)" stroke="#000" stroke-width=".2" d="M28.75 48.055c-.016-.066-.164-1.659-.345-3.547-.18-1.889-.344-3.53-.344-3.662l-.033-.23-.131.247c-.28.541-.608.92-.772.92-.066 0-.132-.017-.148-.05-.016-.017.05-.23.148-.444.575-1.33 1.018-3.054 1.018-4.039 0-.361.05-.591.098-.591.115 0 1.281.558 1.281.608 0 .032-.082.13-.18.23-.165.147-.197.23-.345.722-.082.295-.148.558-.148.575.016.016.722-.05 1.56-.148l1.543-.164.345-.378c.18-.197.361-.378.378-.378.05 0 .788.608.936.772.066.082.115.18.115.214-.017.049-.361.098-1.215.196-.657.066-1.216.132-1.216.148 0 .017.017.41.066.887.05.476.082.92.082.969 0 .082.033.082.312.066l.312-.033.296-.345c.213-.263.312-.345.361-.312.18.115.985.82 1.002.87.016.082-.05.082-1.248.214-.526.049-.969.098-.969.114 0 0 .164 1.708.18 1.823.017.05.066.066.263.066.247-.017.263-.017.575-.378.18-.197.361-.361.394-.361.082 0 1.051.854 1.051.92 0 .016-.016.049-.033.065-.016.017-.509.066-1.084.131-.574.066-1.067.115-1.083.132-.033.033.148 2.02.197 2.053.016.016.213.016.46-.017l.426-.05.378-.393c.197-.214.394-.394.427-.394.066 0 1.15.903 1.15.968 0 .017-.017.05-.033.066-.017.017-1.166.148-2.546.296-1.379.147-2.528.279-2.528.295-.017.017 0 .23.033.493l.049.476-.148.131c-.131.115-.657.378-.772.378-.082-.033-.115-.082-.115-.131Zm1.61-1.954c.344-.033.623-.082.623-.082.017-.017-.164-2.037-.197-2.07-.016-.032-1.33.1-1.379.132-.033.016.131 1.987.164 2.069.017.033.165.016.789-.05Zm-.181-2.595c.296-.033.542-.065.542-.082.033-.033-.132-1.822-.18-1.855-.034-.033-1.347.098-1.396.147-.017.017.016.395.049.854.049.46.082.87.082.936 0 .099.016.115.18.082.115-.016.444-.049.723-.082Zm-.345-2.364c.28-.033.542-.066.591-.066l.099-.016-.099-.97c-.082-.902-.098-.968-.18-.968-.23 0-1.281.148-1.314.18-.016.017 0 .428.05.904.048.476.081.903.081.936.017.065.132.065.772 0Zm-5.895 5.96c-.23-.295-.295-.41-.295-.525 0-.148 0-.148.328-.214.493-.082 1.79-.443 2.693-.739.443-.147.821-.246.837-.246.017 0 .033.066.033.132 0 .082-.098.164-.542.41-.295.164-1.018.591-1.609.936-.59.345-1.084.624-1.1.624-.033 0-.18-.164-.345-.378Zm-.033-2.61c-.131-.263-.23-.51-.23-.559 0-.05.05-.082.115-.098.165-.05.542-.427.772-.805.23-.345.821-1.626.788-1.675-.016-.016-.098.017-.18.066-.296.164-1.527.69-1.593.69-.066 0-.591-.756-.591-.87 0-.034.098-.116.213-.165.197-.115.23-.148.41-.558.378-.854.707-1.921.92-2.989.066-.328.115-.492.165-.492.098 0 .968.64.968.722 0 .033-.082.132-.18.197-.148.099-.197.214-.329.526-.213.558-.69 1.576-.985 2.101-.131.247-.246.444-.246.444s.345-.05.772-.115c.41-.066.771-.115.788-.115.082 0 .624-1.363.624-1.576 0-.181.148-.115.574.246.247.197.444.377.444.394 0 .016-.099.115-.197.23-.132.131-.394.558-.74 1.198-.574 1.051-1 1.79-1.33 2.234-.114.147-.196.279-.196.295 0 .017.492-.049 1.083-.148.592-.082 1.166-.164 1.265-.164.164 0 .164 0 .164.164 0 .165 0 .165-.263.247-.657.197-1.855.624-2.282.82a5.965 5.965 0 0 1-.493.214c-.016 0-.098-.197-.23-.46Zm6.766-6.076a.748.748 0 0 1-.115-.28 2.588 2.588 0 0 0-.69-1.264c-.18-.18-.23-.279-.23-.377 0-.132 0-.148.18-.115.313.05.92.394 1.249.722.312.312.312.312.312.575 0 .312-.132.575-.345.723-.164.114-.263.114-.361.016Z"/><path fill="url(#g)" stroke="#000" stroke-width=".2" d="M8.323 13.473c-.115-.049-.295-.18-.706-.509-.312-.246-.558-.46-.574-.476-.017-.016-.017-.033 0-.049 0-.017.131-.099.279-.18 1.494-.953 2.758-2.053 3.612-3.186 1.051-1.38 1.889-3.07 2.266-4.63.033-.165.082-.33.099-.362l.016-.066.608.296c.328.164.607.312.624.312.033.05-.23.92-.41 1.461-.444 1.215-1.101 2.447-1.807 3.4-.952 1.264-2.085 2.38-3.432 3.398l-.263.197v.115c0 .066 0 .148-.016.197-.016.066-.033.082-.082.115-.05.033-.099.033-.214-.033Zm-1.379-4.91c-1.002-.295-1.691-.459-2.364-.558-.132-.016-.247-.049-.263-.049-.017-.033.394-1.33.427-1.33.033-.016 1.395.246 1.691.312.328.082 1.363.378 1.38.394.016.017-.411 1.314-.444 1.363 0-.016-.197-.066-.427-.131Zm.608-3.398a18.247 18.247 0 0 0-1.577-.394c-.804-.165-1.133-.247-1.133-.263 0-.066.296-1.248.312-1.28.017-.017.033-.017.082-.017.033 0 .362.082.74.147.377.083.804.165.935.198.263.065 1.1.279 1.248.328l.082.033-.016.065c-.05.214-.345 1.248-.361 1.248.016.017-.132-.016-.312-.065Z"/><path fill="url(#h)" stroke="#000" stroke-width=".2" d="M43.233 1.224c.115.066.378.295.805.673.131.131.262.23.394.296.361.213.903.525 1.658.92l.92.41c.59.361.82.624.69.804-.05.066-.198.18-.428.312l-.18.132-1.757 1.724c-.082.082-.082.213.016.377.099.181.115.312.05.395-.132.197-.592.065-1.347-.378l-.197-.099-1.1-.59c-.591-.313-.87-.477-.87-.477-.05-.033-.165.033-.345.197l-.247.18-.164.034-.082-.033c-.164-.099.066-.657.706-1.675a.945.945 0 0 0 .066-.115l.739-1.264c.197-.329.312-.526.345-.624.098-.329.016-.64-.247-.953-.148-.18-.213-.312-.164-.41.099-.115.345-.066.739.164Zm-1.116 4.023 1.79 1.018c.344.148.623.148.837 0 .164-.115.525-.575 1.1-1.363.18-.246.328-.46.46-.64.098-.132.131-.247.065-.329-.032-.033-.065-.082-.131-.115l-2.282-1.33-1.84 2.759ZM41.558 7.2l.51.361c.607.427.984.673 1.116.755l1.231.74 1.265.722.016.016.542.18h.016c.493.296.674.51.575.674-.05.066-.164.132-.378.23a.621.621 0 0 0-.13.082c-.526.493-.79.755-.822.788-.016.05 0 .115.066.23.049.082.049.164.033.214-.017.033-.017.049-.033.065-.033.05-.099.066-.18.066-.149-.016-.592-.23-1.347-.657l-2.3-1.38c-.23-.13-.426-.098-.574.116l-.427.64c-.23.329-.098.624.394.92l1.248.722.017.017c.624.377.952.558 1.001.59a.49.49 0 0 0 .132.066l.886.28c.05.016.099.033.132.065.59.362.804.64.64.887-.131.197-.361.197-.673 0l-3.53-2.102-.247-.148c-.624-.377-.936-.739-.952-1.1 0-.213.082-.46.263-.706l.394-.575c.147-.213.114-.46-.115-.69l-.247-.278c-.032-.05-.016-.099.017-.148.082-.115.312-.066.673.131.033.017.066.033.082.05l.87.771c.05.033.082.05.115.066.526.312 1.33.788 2.398 1.396.328.197.624.197.854 0 .082-.082.18-.214.295-.378.164-.23.246-.361.246-.394.017-.082-.016-.164-.114-.23l-2.628-1.51a7.982 7.982 0 0 0-.607-.23.549.549 0 0 1-.197-.083c-.181-.098-.378-.344-.592-.739l-.147-.328c-.017-.082-.017-.148.016-.197.05-.016.115-.016.197.033Zm6.847 1.018c-.623.903-1.133 1.396-1.494 1.461h-.164l-.033-.016c-.131-.082.05-.476.526-1.182l2.282-3.284.18-.296.017-.016c.18-.263.115-.674-.148-1.232-.197-.378-.279-.624-.262-.722.065-.099.213-.083.443.065.312.18.64.526.985.985.18.23.263.411.263.526 0 .082-.033.18-.115.28l-.64.787-1.56 2.233c.164.099.509.23 1.034.378.213.066.394.131.526.214.558.328.771.607.607.837-.148.213-.591.099-1.346-.361l-.887-.542-.214-.115Z"/><path fill="url(#i)" stroke="#000" stroke-miterlimit="10" stroke-width=".2" d="M25.515 26.396c.477.46.756.92.854 1.363a2.34 2.34 0 0 1-.312 1.773c-.262.427-.64.756-1.133.986a2.535 2.535 0 0 1-1.56.213c-.541-.098-1.264-.41-2.15-.969l-3.728-2.298.148-.23.295.18c.329.197.64.247.92.099.18-.099.427-.378.722-.854l3.432-5.534c.329-.525.476-.903.46-1.1-.033-.279-.213-.509-.51-.69l-.295-.18.148-.23 3.416 2.118c.64.394 1.116.772 1.445 1.1.492.51.771 1.051.837 1.626a2.418 2.418 0 0 1-.361 1.61 2.194 2.194 0 0 1-1.084.919c-.46.197-.969.23-1.544.098Zm-5.385 1.856a6.46 6.46 0 0 0 1.231 1.001c.706.444 1.347.591 1.938.493a2.012 2.012 0 0 0 1.346-.92c.214-.328.329-.706.345-1.116.017-.41-.098-.821-.361-1.232-.263-.41-.673-.788-1.232-1.133-.246-.147-.443-.279-.624-.377a5.014 5.014 0 0 0-.443-.214l-2.2 3.498Zm2.545-4.089c.131.115.279.246.46.378.18.131.377.262.59.394.575.345 1.035.558 1.413.591.361.05.706-.017 1.034-.197.329-.18.575-.427.788-.755a1.95 1.95 0 0 0 .23-1.626c-.164-.591-.59-1.1-1.33-1.56a4.247 4.247 0 0 0-1.133-.509l-2.052 3.284Z"/><defs><linearGradient id="a" x1="41.565" x2="48.033" y1="36.952" y2="44.407" gradientUnits="userSpaceOnUse"><stop stop-color="#006"/><stop offset="1" stop-color="#00004F"/></linearGradient><linearGradient id="b" x1="12.884" x2="12.453" y1="48.008" y2="36.799" gradientUnits="userSpaceOnUse"><stop stop-color="#006"/><stop offset="1" stop-color="#00004F"/></linearGradient><linearGradient id="c" x1="28.015" x2="28.055" y1="15.848" y2="1.041" gradientUnits="userSpaceOnUse"><stop stop-color="#006"/><stop offset="1" stop-color="#00004F"/></linearGradient><linearGradient id="d" x1="45.124" x2="37.573" y1="29.708" y2="16.318" gradientUnits="userSpaceOnUse"><stop stop-color="#006"/><stop offset="1" stop-color="#00004F"/></linearGradient><linearGradient id="e" x1="8.366" x2=".905" y1="30.894" y2="19.688" gradientUnits="userSpaceOnUse"><stop stop-color="#006"/><stop offset="1" stop-color="#00004F"/></linearGradient><linearGradient id="f" x1="33.215" x2="23.886" y1="47.649" y2="38.527" gradientUnits="userSpaceOnUse"><stop stop-color="#006"/><stop offset="1" stop-color="#00004F"/></linearGradient><linearGradient id="g" x1="13.665" x2="4.871" y1="10.66" y2="4.913" gradientUnits="userSpaceOnUse"><stop stop-color="#006"/><stop offset="1" stop-color="#00004F"/></linearGradient><linearGradient id="h" x1="46.843" x2="42.095" y1="13.704" y2=".764" gradientUnits="userSpaceOnUse"><stop stop-color="#006"/><stop offset="1" stop-color="#00004F"/></linearGradient><linearGradient id="i" x1="24.811" x2="20.858" y1="30.576" y2="19.598" gradientUnits="userSpaceOnUse"><stop stop-color="#D40000"/><stop offset="1" stop-color="#570000"/></linearGradient></defs></svg>