<svg xmlns="http://www.w3.org/2000/svg" width="50" height="50"><path fill="#396" d="M17.59 10.102a16.572 16.572 0 0 0-4.718 3.507 15.1 15.1 0 0 0 1.982-.092 18.04 18.04 0 0 1 2.735-3.415zm1.563-.68c1.41-.067 2.81.03 4.174.287.471-.423.91-.876 1.32-1.349a16.52 16.52 0 0 0-5.494 1.062zm-.865 1.534a16.894 16.894 0 0 0-1.963 2.323 15.15 15.15 0 0 0 2.615-.815l-.652-1.508zm1.02-.44.646 1.492a15.235 15.235 0 0 0 2.226-1.363 16.801 16.801 0 0 0-2.872-.129zm6.75-2.124a16.318 16.318 0 0 1-1.425 1.614 17.927 17.927 0 0 1 6.873 3.562 23.878 23.878 0 0 0 2.02-2.856 16.721 16.721 0 0 0-7.468-2.32zM11.946 14.68a16.823 16.823 0 0 0-3.287 7.11 23.759 23.759 0 0 0 3.506.414 18.043 18.043 0 0 1 2.021-7.508 16.223 16.223 0 0 1-2.24-.016zm11.704-3.779a16.244 16.244 0 0 1-3.255 2.126l2.977 6.886a23.713 23.713 0 0 0 7.41-5.506 16.808 16.808 0 0 0-7.132-3.506zm-8.139 3.655a16.9 16.9 0 0 0-2.243 7.67 23.663 23.663 0 0 0 9.089-1.86l-2.975-6.879a16.27 16.27 0 0 1-3.871 1.07zm18.95-3.24a25.032 25.032 0 0 1-2.124 2.992 17.643 17.643 0 0 1 4.053 5.81c.202.467.383.938.542 1.412a33.104 33.104 0 0 0 3.09-3.69 16.597 16.597 0 0 0-5.562-6.525zM8.474 22.886A16.666 16.666 0 0 0 9.57 31.4a32.93 32.93 0 0 0 4.797.18 17.858 17.858 0 0 1-.76-1.549 17.693 17.693 0 0 1-1.457-6.712 24.865 24.865 0 0 1-3.676-.432zm23.134-7.742a24.794 24.794 0 0 1-7.795 5.79l3.278 7.58a33.023 33.023 0 0 0 8.954-6.102 16.829 16.829 0 0 0-.675-1.851 16.58 16.58 0 0 0-3.762-5.417zm-18.357 8.192a16.766 16.766 0 0 0 2.355 8.174 32.996 32.996 0 0 0 10.47-2.543l-3.278-7.58a24.743 24.743 0 0 1-9.546 1.949zm27.277-4.325a34.186 34.186 0 0 1-3.238 3.733 17.751 17.751 0 0 1-.014 8.886 40.99 40.99 0 0 0 4.087-3.388 16.672 16.672 0 0 0-.835-9.23zM10.1 32.571a16.606 16.606 0 0 0 6.27 6.805 40.779 40.779 0 0 0 5.157-.748 17.676 17.676 0 0 1-6.508-5.965 33.997 33.997 0 0 1-4.919-.092zm26.264-8.934a34.117 34.117 0 0 1-8.828 5.903l2.684 6.209a41.357 41.357 0 0 0 5.609-3.109l.002-.004a16.705 16.705 0 0 0 .533-8.998zm-20.071 8.935a16.63 16.63 0 0 0 6.932 5.659 41.38 41.38 0 0 0 5.979-2.033l-2.685-6.208a34.092 34.092 0 0 1-10.226 2.582zm24.569-2.376a42.037 42.037 0 0 1-4.124 3.172 18.107 18.107 0 0 1-4.341 6.688c4.172-2.07 7.125-5.692 8.465-9.86zM18.14 40.31a16.581 16.581 0 0 0 12.715.417 17.989 17.989 0 0 1-7.703-1.333 41.936 41.936 0 0 1-5.012.916zm16.96-5.89a42.526 42.526 0 0 1-4.436 2.354l1.044 2.416a16.937 16.937 0 0 0 3.391-4.77zm-10.097 4.476a16.835 16.835 0 0 0 5.688.74l-1.045-2.415a42.548 42.548 0 0 1-4.643 1.675z"/><path fill="#900" d="M25 0C16.469 0 8.932 4.294 4.42 10.842l4.834 2.8c3.534-4.887 9.27-8.07 15.746-8.07s12.212 3.183 15.746 8.07l4.834-2.8C41.068 4.294 33.531 0 25 0z"/><path fill="#069" d="M1.788 15.756A25.054 25.054 0 0 0 0 25.076C0 37.978 9.728 48.614 22.222 50v-5.621c-9.418-1.354-16.666-9.483-16.666-19.302 0-2.28.39-4.466 1.107-6.5l-4.875-2.82zm46.424 0-4.875 2.822a19.505 19.505 0 0 1 1.108 6.499c0 9.82-7.249 17.948-16.667 19.302V50C40.272 48.613 50 37.977 50 25.077c0-3.294-.636-6.438-1.788-9.32z"/></svg>