<svg xmlns="http://www.w3.org/2000/svg" viewBox="0 0 99.371 94"><defs><linearGradient id="a" x1="715.72" x2="650.84" y1="299.56" y2="230.35" gradientTransform="matrix(1 0 0 1 -476.47 -112.84)" gradientUnits="userSpaceOnUse"><stop offset="0" stop-color="#f4e3c9"/><stop offset="1" stop-color="#e8cc9c"/></linearGradient><linearGradient id="b" x1="791.06" x2="723.26" y1="-355.93" y2="-358.38" gradientTransform="matrix(1 0 0 1 -419.34 258.6)" gradientUnits="userSpaceOnUse"><stop offset="0" stop-color="#f4e3c9"/><stop offset="1" stop-color="#e8cc9c"/></linearGradient><linearGradient id="c" x1="175.47" x2="218.36" y1="955.27" y2="880.66" gradientTransform="translate(-137.36 -469.78)" gradientUnits="userSpaceOnUse"><stop offset="0" stop-color="#f4e3c9"/><stop offset="1" stop-color="#e8cc9c"/></linearGradient><linearGradient id="d" x1="758.9" x2="693.67" y1="200.79" y2="145.1" gradientTransform="matrix(1 0 0 1 -490.35 22.102)" gradientUnits="userSpaceOnUse"><stop offset="0" stop-color="#f4e3c9"/><stop offset="1" stop-color="#e8cc9c"/></linearGradient><linearGradient id="e" x1="870.86" x2="795.29" y1="-140.09" y2="-169.78" gradientTransform="translate(-450.41 198.75)" gradientUnits="userSpaceOnUse"><stop offset="0" stop-color="#f4e3c9"/><stop offset="1" stop-color="#e8cc9c"/></linearGradient><linearGradient id="i" x1="965.2" x2="901.4" y1="159.71" y2="103.76" gradientTransform="translate(-490.36 21.895)" gradientUnits="userSpaceOnUse"><stop offset="0" stop-color="#f4e3c9"/><stop offset="1" stop-color="#e8cc9c"/></linearGradient><linearGradient id="j" x1="412.32" x2="388.39" y1="743.89" y2="683.2" gradientTransform="matrix(1 0 0 1 -379.78 -307.21)" gradientUnits="userSpaceOnUse"><stop offset="0" stop-color="#f4e3c9"/><stop offset="1" stop-color="#e8cc9c"/></linearGradient><linearGradient id="k" x1="805.99" x2="741.84" y1="514.13" y2="450.75" gradientTransform="matrix(1 0 0 1 -476.47 -112.84)" gradientUnits="userSpaceOnUse"><stop offset="0" stop-color="#f4e3c9"/><stop offset="1" stop-color="#e8cc9c"/></linearGradient><linearGradient id="l" x1="974.97" x2="909.49" y1="357.18" y2="305.17" gradientTransform="matrix(1 0 0 1 -489.43 -30.476)" gradientUnits="userSpaceOnUse"><stop offset="0" stop-color="#f4e3c9"/><stop offset="1" stop-color="#e8cc9c"/></linearGradient><linearGradient id="m" x1="904.66" x2="947.51" y1="359.95" y2="414.23" gradientTransform="rotate(-2.651 371.03 8297.003)scale(.86899)" gradientUnits="userSpaceOnUse"><stop offset="0" stop-color="#006"/><stop offset="1" stop-color="#00004e"/></linearGradient><linearGradient id="n" x1="536.09" x2="439.25" y1="521.38" y2="434.3" gradientTransform="matrix(.4924 .57156 -.5038 .50537 233.62 -190.72)" gradientUnits="userSpaceOnUse"><stop offset="0" stop-color="#006"/><stop offset="1" stop-color="#00004e"/></linearGradient><linearGradient id="o" x1="366.09" x2="270.37" y1="184.23" y2="86.036" gradientTransform="matrix(.48599 .46026 -.48283 .46961 235.22 -80.236)" gradientUnits="userSpaceOnUse"><stop offset="0" stop-color="#006"/><stop offset="1" stop-color="#00004e"/></linearGradient><linearGradient id="s" x1="173.23" x2="114.66" y1="524.23" y2="451.38" gradientTransform="matrix(.57853 .35368 -.35104 .58287 520.71 -207.5)" gradientUnits="userSpaceOnUse"><stop offset="0" stop-color="#006"/><stop offset="1" stop-color="#00004e"/></linearGradient><linearGradient id="t" x1="196.09" x2="95.29" y1="365.66" y2="255.57" gradientTransform="matrix(.62072 .13619 -.13295 .60595 365.14 10.093)" gradientUnits="userSpaceOnUse"><stop offset="0" stop-color="#006"/><stop offset="1" stop-color="#00004e"/></linearGradient><linearGradient id="u" x1="533.23" x2="454.66" y1="185.66" y2="89.025" gradientTransform="matrix(.6601 .05941 -.06 .65361 -116.44 105.73)" gradientUnits="userSpaceOnUse"><stop offset="0" stop-color="#006"/><stop offset="1" stop-color="#00004e"/></linearGradient><linearGradient id="v" x1="1090.1" x2="897.17" y1="429.68" y2="230.68" gradientTransform="matrix(.2791 0 0 .29445 61.366 240.55)" gradientUnits="userSpaceOnUse"><stop offset="0" stop-color="#006"/><stop offset="1" stop-color="#00004e"/></linearGradient><linearGradient id="w" x1="-190.77" x2="-514.01" y1="284.21" y2="-144.09" gradientTransform="matrix(.11096 -.03855 .03808 .11572 257.08 100.52)" gradientUnits="userSpaceOnUse"><stop offset="0" stop-color="#006"/><stop offset="1" stop-color="#00004e"/></linearGradient><linearGradient id="x" x1="-15.83" x2="-57.044" y1="301.27" y2="276.78" gradientTransform="matrix(1.4719 -.05557 .05728 1.4719 437.16 -398.03)" gradientUnits="userSpaceOnUse"><stop offset="0" stop-color="#d40000"/><stop offset="1" stop-color="#560000"/></linearGradient></defs><g fill="#e6c78d" stroke="#000" stroke-linecap="round" stroke-linejoin="round" stroke-width="1.083"><path d="m167.06 113.39 71.56-.003c5.05-.001 9.15 5.49 9.159 12.273l-.009 64.983c.009 6.77-4.09 12.3-9.152 12.27l-71.56.004c-5.06 0-9.16-5.5-9.158-12.273l-.006-64.985c.007-6.78 4.1-12.3 9.166-12.269" transform="matrix(.26688 -.03012 .03255 .26659 -36.46 -15.817)"/><path d="m305.5-142.43 71.556-.008c5.05.003 9.16 5.5 9.16 12.29l.003 64.96c.002 6.79-4.11 12.3-9.166 12.291l-71.554-.012c-5.06.006-9.16-5.48-9.163-12.27v-64.98c.007-6.77 4.11-12.3 9.163-12.271z" transform="matrix(.20972 .16778 -.16586 .21124 -36.46 -15.817)"/><path d="m13.544 408.65 71.552-.006c5.07.006 9.17 5.51 9.166 12.277l-.003 64.981c.001 6.78-4.11 12.3-9.155 12.277l-71.552.006c-5.07-.005-9.17-5.51-9.167-12.277l.004-64.981c-.001-6.78 4.09-12.3 9.155-12.277" transform="matrix(.10768 -.24604 .24701 .10543 -36.46 -15.817)"/><path d="m195.87 155.33 71.566-.012c5.06 0 9.15 5.5 9.155 12.29l.003 64.969c.003 6.77-4.1 12.3-9.158 12.282l-71.554-.005c-5.07.003-9.17-5.5-9.167-12.273l-.006-64.984c.013-6.77 4.1-12.3 9.16-12.268z" transform="matrix(.26494 .04404 -.04162 .26533 -36.46 -15.817)"/><path d="m349.24 5.92 71.559.007c5.06.001 9.16 5.49 9.167 12.267V83.17c-.001 6.79-4.11 12.3-9.172 12.279l-71.552.006c-5.06-.001-9.16-5.5-9.16-12.287l.005-64.964c.002-6.79 4.09-12.3 9.153-12.284z" transform="matrix(.23081 .13732 -.13521 .23205 -36.46 -15.817)"/><path d="m407.93 113.79 71.564.003c5.06.002 9.16 5.49 9.162 12.277l-.007 64.982c-.001 6.77-4.09 12.3-9.15 12.276l-71.563-.003c-5.06-.002-9.16-5.49-9.162-12.277l.007-64.982c0-6.77 4.09-12.3 9.149-12.276" transform="matrix(.26496 .04393 -.0415 .26534 -36.46 -15.817)"/><path d="M-22.208 367.33H49.34c5.07.004 9.17 5.5 9.173 12.276l-.011 64.974c-.004 6.79-4.1 12.3-9.158 12.273l-71.556.011c-5.06.004-9.16-5.49-9.153-12.28l-.009-64.97c.004-6.79 4.11-12.3 9.166-12.285z" transform="matrix(.22799 -.14195 .14403 .22669 -36.46 -15.817)"/><path d="m256.91 334.37 71.56-.003c5.06 0 9.16 5.5 9.157 12.288l.008 64.97c-.008 6.78-4.1 12.3-9.168 12.283l-71.558-.011c-5.05 0-9.15-5.49-9.159-12.273l.007-64.97c-.007-6.78 4.1-12.3 9.153-12.284z" transform="matrix(.26688 -.03012 .03255 .26659 -36.46 -15.817)"/><path d="m412.42 264.06 71.547.004c5.07 0 9.17 5.5 9.16 12.272l.002 64.974c.008 6.79-4.1 12.3-9.152 12.278l-71.561.011c-5.06 0-9.17-5.5-9.162-12.287v-64.974c.007-6.77 4.1-12.3 9.166-12.279z" transform="matrix(.26813 .01544 -.01299 .26826 -36.46 -15.817)"/></g><g stroke="#000"><g stroke-linecap="round" stroke-linejoin="round" stroke-width="1.083"><path fill="url(#a)" d="m168.67 105.61 71.56-.003c5.06 0 9.16 5.5 9.157 12.288l.008 64.97c-.008 6.78-4.1 12.3-9.168 12.283l-71.558-.011c-5.05 0-9.15-5.49-9.159-12.273l.007-64.97c-.007-6.78 4.1-12.3 9.153-12.284z" transform="matrix(.26688 -.03012 .03255 .26659 -36.46 -15.817)"/><path fill="url(#b)" d="m301.13-149.01 71.565.004c5.06-.007 9.16 5.48 9.163 12.269v64.98c-.007 6.77-4.11 12.3-9.164 12.272l-71.556.007c-5.07-.004-9.16-5.5-9.16-12.289l-.003-64.96c-.001-6.79 4.11-12.3 9.155-12.282z" transform="matrix(.20972 .16778 -.16586 .21124 -36.46 -15.817)"/><path fill="url(#c)" d="m21.065 406.09 71.558.008c5.05-.003 9.15 5.5 9.153 12.283l.004 64.962c.001 6.78-4.1 12.3-9.168 12.283l-71.552.005c-5.05-.01-9.15-5.5-9.153-12.283l-.01-64.975c-.001-6.78 4.11-12.3 9.168-12.283z" transform="matrix(.10768 -.24604 .24701 .10543 -36.46 -15.817)"/><path fill="url(#d)" d="m195.31 147.43 71.554.004c5.06 0 9.16 5.49 9.153 12.276l.003 64.97c.005 6.79-4.1 12.3-9.158 12.281l-71.554-.004c-5.06 0-9.16-5.49-9.167-12.273l.01-64.972c-.004-6.79 4.1-12.3 9.159-12.282" transform="matrix(.26494 .04404 -.04162 .26533 -36.46 -15.817)"/><path fill="url(#e)" d="m345.84-1.189 71.564-.014c5.05.01 9.15 5.51 9.154 12.275l.001 64.976c-.002 6.79-4.1 12.3-9.152 12.284l-71.571.002c-5.05-.01-9.14-5.5-9.154-12.275l-.002-64.976c.003-6.79 4.11-12.3 9.16-12.272z" transform="matrix(.23081 .13732 -.13521 .23205 -36.46 -15.817)"/><path fill="url(#i)" d="m407.37 105.91 71.547-.008c5.06.001 9.16 5.51 9.162 12.277l-.007 64.982c.001 6.79-4.09 12.3-9.15 12.276l-71.563-.004c-5.05.012-9.16-5.49-9.162-12.277l.01-64.967c-.002-6.79 4.09-12.3 9.163-12.278z" transform="matrix(.26496 .04393 -.0415 .26534 -36.46 -15.817)"/><path fill="url(#j)" d="m-17.42 360.98 71.56.008c5.06-.004 9.16 5.49 9.153 12.28l.009 64.97c-.004 6.79-4.11 12.3-9.166 12.285l-71.56-.008c-5.06.004-9.16-5.49-9.153-12.28l-.009-64.97c.004-6.79 4.11-12.3 9.166-12.285" transform="matrix(.22799 -.14195 .14403 .22669 -36.46 -15.817)"/><path fill="url(#k)" d="m258.53 326.6 71.558.011c5.05 0 9.15 5.49 9.158 12.273l-.006 64.97c.007 6.78-4.1 12.3-9.154 12.284l-71.56.003c-5.06 0-9.16-5.5-9.156-12.288l-.008-64.97c.007-6.78 4.1-12.3 9.168-12.283z" transform="matrix(.26688 -.03012 .03255 .26659 -36.46 -15.817)"/><path fill="url(#l)" d="m412.69 256.16 71.561-.012c5.06 0 9.15 5.5 9.162 12.287l-.014 64.975c.007 6.77-4.1 12.3-9.152 12.278l-71.56-.003c-5.06 0-9.15-5.5-9.162-12.272V268.44c.006-6.79 4.11-12.3 9.166-12.279z" transform="matrix(.26813 .01544 -.01299 .26826 -36.46 -15.817)"/></g><path fill="url(#m)" stroke-width=".838" d="m441.29 356.87-27.635-1.629c-.655-5.67-1.43-10.8-2.313-15.272-1.24-6.47-1.75-11.7-1.527-15.723.291-5.44 1.22-10.3 2.807-14.588-4.04-1.6-5.96-4.19-5.774-7.796.19-3.43 1.18-6.46 2.967-9.105l1.338.087c.262 1.37.713 2.34 1.382 2.924.655.596 2.08 1.21 4.262 1.847 3.26.96 4.76 3.88 4.494 8.77-.073 1.24-.218 2.21-.451 2.939-2.15.64-4.13.902-5.905.8-.96 3.71-1.57 7.88-1.818 12.508-.32 5.93 1.21 13.2 4.596 21.657l1.527.029c4.97-8.84 9.56-20.1 13.73-33.685-4-1.92-5.91-4.7-5.701-8.334q.24-4.712 2.967-8.334l1.338.072q.436 3.105 2.574 3.84l3.07.946c3.29 1.03 4.81 3.65 4.595 7.839-.087 1.48-.305 2.78-.654 3.854q-2.264.633-5.585.437c-3.14 12.4-7.33 23.6-12.566 33.642l15.723.93c1.82-5.45 6.43-13.3 13.86-23.532q2.836-3.84 2.997-6.633c.102-1.89-.727-3.21-2.473-3.97l-.625-.262c-3.23-1.44-4.77-3.68-4.596-6.749.175-3.46 1.31-6.52 3.36-9.178l1.294.073c.131 1.77.916 2.98 2.327 3.65l2.72 1.208c3.07 1.38 4.49 3.97 4.29 7.767-.174 3.27-1.93 7.46-5.294 12.552-3.35 5.08-6.36 10.7-9.032 16.843-2.69 6.15-4.77 12.7-6.269 19.577z" transform="translate(-36.46 -15.817)scale(.26857)"/><path fill="url(#n)" stroke-width=".736" d="m204.06 338.41 1.25-.829c1.72 2.63 3.19 4.04 4.451 4.247 1.25.204 3.4-.713 6.43-2.734l14.064-9.41-.494-.917c-.465-.785-1.02-1.32-1.644-1.614a3.85 3.85 0 0 0-1.978-.393c-.713.043-4.28.45-10.69 1.236l-16.377 2.08-6.56-10.996 1.251-.844c2.4 2.81 5.09 4.26 8.072 4.378 2.98.116 8.94-.29 17.904-1.236 3.27-.349 5.73-.189 7.36.48.233-1.93.829-3.69 1.774-5.25s3.04-4.16 6.254-7.84c2.53-2.91 4.03-4.83 4.51-5.745.48-.931.494-1.76.043-2.502-.422-.713-1.31-1.4-2.647-2.065-1.31-.64-2.18-1.35-2.647-2.11-.538-.901-.684-1.82-.48-2.792.218-.96.742-1.72 1.585-2.269 1.02-.684 2.2-.844 3.534-.494 1.32.364 2.52 1.41 3.564 3.141 1 1.7 1.45 3.53 1.338 5.513-.116 1.96-.625 3.65-1.527 5.047-.902 1.41-2.84 3.83-5.774 7.258-2.68 3.1-4.42 5.27-5.236 6.5-.8 1.24-1.22 2.52-1.251 3.826-.015 1.31.407 2.68 1.265 4.13.291.48.742 1.09 1.367 1.804l12.64-8.45c3.03-2.04 4.73-3.69 5.104-4.974.364-1.29-.218-3.32-1.73-6.065l1.25-.844 11.127 18.602-1.265.844c-1.69-2.62-3.16-4.01-4.407-4.204s-3.39.727-6.414 2.75l-12.654 8.45c.218.684.48 1.29.785 1.803.96 1.59 1.99 2.65 3.113 3.17 1.12.539 2.37.685 3.738.466 1.38-.218 4-.945 7.868-2.196 4.16-1.35 7.03-2.15 8.596-2.414q2.357-.371 5.003.698 2.624 1.07 4.175 3.65c.989 1.66 1.38 3.21 1.163 4.655-.204 1.45-.858 2.55-1.934 3.258-.844.567-1.72.742-2.618.552-.916-.189-1.64-.756-2.182-1.658-.436-.727-.655-1.88-.683-3.432 0-1.6-.218-2.76-.655-3.49-.422-.699-1.15-1-2.196-.932-1.05.073-3.3.684-6.778 1.804-4.54 1.5-7.68 2.37-9.396 2.618-1.72.233-3.46.058-5.221-.553a14 14 0 0 1-1.295 4.494c-.669 1.43-2.57 4.92-5.73 10.501-3.01 5.32-4.71 9.03-5.09 11.141-.365 2.09-.059 4.52.9 7.258l-1.25.844-6.56-10.996c.437-.64 2.72-4.47 6.866-11.447l6.82-11.52c.437-.712.815-1.57 1.12-2.588.32-1 .132-2.08-.537-3.2-.145-.233-.32-.495-.524-.8l-14.079 9.396c-3.03 2.04-4.73 3.68-5.105 4.96s.189 3.29 1.702 6.02l-1.251.83z" transform="translate(-36.46 -15.817)scale(.26857)"/><path fill="url(#o)" stroke-width=".839" d="m367.55 135.56-10.181-8.436-35.78 39.648-6.909-5.73 35.78-39.663-4.901-4.073 4.93-5.469 21.991 18.253zm-34.078-14.225c-3.83 4.25-8.36 6.87-13.614 7.869-5.25.989-10.5.32-15.824-2.037l1.818 23.024-8.843-.16-3.36-41.045 8.887.131.698 8.596c.03.262.378.67 1.033 1.207 3.21 2.68 7.24 3.52 12.057 2.546q6.524-1.288 10.472-5.673 3.058-3.375 3.127-8.64.086-5.668-3.71-8.828c-1.69-1.38-3.42-2.21-5.206-2.458-1.99-.262-3.65.32-4.945 1.76-1.85 2.05-1.4 4.22 1.353 6.502.625.509 1.38.974 2.24 1.381l-4.626 5.134c-1.25-.495-2.72-1.43-4.392-2.821-2.68-2.21-4.04-4.84-4.131-7.898-.102-2.84.902-5.41 2.996-7.738 2.69-3 6.21-4.35 10.53-4.057q6.092.327 11.243 4.596c5.05 4.19 7.69 8.96 7.956 14.312.19 5.06-1.73 9.83-5.76 14.297z" transform="translate(-36.46 -15.817)scale(.26857)"/><path fill="url(#s)" stroke-width=".838" d="M425.16 85.742c.669.407 2.28 1.77 4.858 4.13q1.267 1.178 2.385 1.848c2.18 1.29 5.54 3.19 10.108 5.643l5.643 2.458q5.384 3.226 4.233 4.887c-.291.436-1.18 1.06-2.618 1.891l-1.105.77-10.632 10.459c-.538.509-.51 1.27.087 2.312.567 1.09.669 1.89.305 2.415-.844 1.21-3.56.422-8.174-2.342l-1.178-.596-6.647-3.578c-3.56-1.92-5.34-2.89-5.337-2.895-.276-.16-.974.233-2.138 1.179l-1.528 1.12-1.003.218-.51-.204c-1.02-.611.423-4 4.32-10.167.145-.32.276-.553.379-.698l4.494-7.709c1.25-1.98 1.93-3.23 2.05-3.767.612-1.95.117-3.88-1.454-5.774-.93-1.11-1.28-1.92-1.033-2.458.611-.858 2.09-.567 4.495.858zm-6.749 24.537 10.865 6.196c2.07.902 3.77.902 5.09-.015q1.53-1.135 6.662-8.26c1.06-1.53 2.01-2.84 2.822-3.913.596-.8.742-1.45.422-1.993q-.218-.349-.83-.698L429.51 93.45zm-3.447 11.897 3.055 2.24q5.611 3.884 6.806 4.596l7.505 4.494 7.753 4.436.13.088 3.259 1.134.072.044c2.97 1.77 4.12 3.14 3.462 4.101-.276.393-1.03.844-2.284 1.397q-.567.262-.829.523-4.738 4.5-5.047 4.83c-.13.261.03.726.437 1.395.29.495.349.945.203 1.338a1.7 1.7 0 0 1-.174.393c-.204.291-.582.436-1.15.437-.901-.059-3.65-1.4-8.231-4.015l-13.977-8.363c-1.41-.844-2.59-.596-3.52.756l-2.444 3.52c-1.37 1.98-.567 3.85 2.4 5.629l7.621 4.363.131.073c3.77 2.25 5.8 3.45 6.095 3.549.276.16.553.305.858.407l5.396 1.717c.305.102.582.247.858.407 3.59 2.14 4.89 3.94 3.883 5.381-.8 1.16-2.15 1.16-4.058.015l-21.54-12.785c-.48-.291-.974-.582-1.454-.887-3.81-2.28-5.75-4.52-5.789-6.72-.029-1.31.51-2.76 1.6-4.349l2.4-3.461c.93-1.35.684-2.75-.742-4.218l-1.469-1.702c-.16-.305-.145-.596.058-.887.495-.713 1.88-.436 4.116.843.233.131.378.233.48.277l5.294 4.712c.262.16.51.305.728.436 3.2 1.91 8.06 4.76 14.603 8.538 2.04 1.22 3.77 1.24 5.163.03.524-.496 1.15-1.25 1.847-2.255.96-1.4 1.45-2.2 1.47-2.386.115-.538-.132-1-.757-1.367l-15.955-9.163c-.175-.102-1.4-.567-3.665-1.367a5.4 5.4 0 0 1-1.164-.495q-1.588-.962-3.636-4.523l-.902-1.978c-.116-.538-.087-.931.073-1.178.204-.291.538-.291 1.033 0zm41.772 6.152c-3.84 5.53-6.85 8.48-9.061 8.858l-1.033-.015-.203-.116q-1.2-.72 3.185-7.17l13.89-20.043 1.134-1.774.059-.073c1.05-1.61.742-4.1-.931-7.49-1.19-2.34-1.72-3.81-1.557-4.407.393-.567 1.28-.451 2.662.378 1.91 1.13 3.9 3.16 5.978 6.036 1.06 1.37 1.6 2.44 1.629 3.214.029.495-.204 1.06-.713 1.717q-3.856 4.74-3.898 4.8l-9.454 13.627c1.02.611 3.11 1.4 6.298 2.342 1.29.378 2.36.8 3.156 1.28 3.4 2.05 4.65 3.74 3.724 5.09-.902 1.29-3.64.568-8.203-2.166l-5.411-3.331z" transform="translate(-36.46 -15.817)scale(.26857)"/><path fill="url(#t)" stroke-width=".785" d="m445.04 194.83-4.814 5.323-4.698-5.512 4.712-5.353zm4.8 9.861-4.83 5.222-4.755-5.542 4.698-5.207zm-9.658 1.164-4.77 5.294-4.786-5.454 4.684-5.309zm.175 38.369-2.895-.902c-1.47-.465-2.68-1.11-3.65-1.934-.96-.814-1.85-1.92-2.677-3.302-1.37.756-2.52 1.19-3.432 1.309-1.32.145-3.07-.131-5.28-.829l-4.509-1.41c-.829 2.6-2.18 4.97-4.043 7.097-2.43 2.76-5.37 4.64-8.829 5.6-4.35 1.22-9.22.989-14.617-.728q-7.348-2.308-10.268-6.516-3.21-4.619-1.047-11.374 1.176-3.66 3.142-7.17a62.5 62.5 0 0 1 4.509-6.865c1.03-1.37 2.71-3.42 5.047-6.182l1.221 1.222c-3.01 3.55-5.18 6.41-6.487 8.596-1.29 2.18-2.27 4.25-2.894 6.196-1.12 3.52-.902 6.53.684 9.047q2.353 3.78 8.377 5.672c4.68 1.48 9.19 1.85 13.483 1.12 5.35-.916 8.7-3.48 10.065-7.694.902-2.84 1.31-5.69 1.222-8.523a24.4 24.4 0 0 0-1.149-6.734l5.832-7.753q.72 4.067.524 6.953c-.204 2.72-.989 6.25-2.4 10.632l4.509 1.41c2.33.743 4.12.845 5.352.335 1.08-.436 1.86-1.4 2.327-2.865.262-.83.495-1.67.67-2.531a39 39 0 0 0 .494-2.865l2.283-2.095-.727 4.305c-.349 2.95-.276 5.18.233 6.691.567 1.67 1.77 2.81 3.607 3.389.567.175 1.06.102 1.498-.218.436-.305.756-.785.96-1.397.451-1.43.553-3.05.32-4.916-.189-1.37-.553-2.79-1.09-4.276l3.94-3.869q.678 3.824.655 5.135c-.029 1.95-.596 4.63-1.687 8.028z" transform="translate(-36.46 -15.817)scale(.26857)"/><path fill="url(#u)" stroke-width=".824" d="m224.05 250.97 2.036.422c-.974 4.64-2.68 7.81-5.061 9.512-2.4 1.72-5.05 2.27-7.956 1.658-2.39-.495-4.52-1.67-6.429-3.52-1.89-1.85-3.07-5.99-3.505-12.436l-1.25-18.093-23.214 26.238-10.719-2.225 32.885-35.547c-.175-5.51-.887-9.73-2.167-12.625-1.28-2.91-3.26-4.64-5.949-5.193-2.15-.45-4.17-.204-6.05.742-1.88.931-3.19 2.72-3.942 5.353l-2.05-.422c1.03-4.29 2.88-7.52 5.555-9.672 2.66-2.15 5.59-2.91 8.756-2.24 2.05.422 3.84 1.47 5.396 3.17 1.56 1.69 2.68 4.25 3.345 7.68q1.006 5.144 2.095 20.915l1.062 14.792c.407 6.12 1.29 10.4 2.676 12.668 1.38 2.33 3.32 3.75 5.803 4.276 4.23.873 7.13-.945 8.683-5.454z" transform="translate(-36.46 -15.817)scale(.26857)"/><path fill="url(#v)" stroke-width=".838" d="M336.95 370.92c-.073-.364-1.02-10.1-2.109-21.57-1.08-11.5-2.05-21.5-2.138-22.326l-.175-1.41-.8 1.526c-1.7 3.29-3.65 5.57-4.741 5.571-.422 0-.829-.116-.916-.247-.088-.145.335-1.38.916-2.735 3.55-8.09 6.17-18.6 6.181-24.58 0-2.18.247-3.64.626-3.636.698 0 7.75 3.36 7.752 3.695 0 .204-.509.829-1.12 1.381-.989.887-1.22 1.37-2.08 4.364-.524 1.83-.916 3.4-.843 3.461.058.073 4.35-.335 9.54-.902l9.426-1.018 2.08-2.254c1.13-1.24 2.15-2.25 2.254-2.254.32 0 4.83 3.69 5.672 4.654.451.495.742 1.06.684 1.28-.087.276-2.17.61-7.447 1.163-4.03.436-7.36.83-7.417.888-.044.058.145 2.5.436 5.41.276 2.91.524 5.56.523 5.862 0 .509.175.538 1.891.378l1.891-.19 1.833-2.108c1.35-1.56 1.93-2.05 2.225-1.862 1.15.727 5.99 4.97 6.065 5.309.116.48-.29.553-7.621 1.323-3.21.35-5.88.64-5.89.67-.044.043.96 10.4 1.076 11.068.058.32.45.407 1.614.363 1.51-.058 1.54-.087 3.505-2.269 1.09-1.21 2.17-2.2 2.385-2.196.451 0 6.39 5.19 6.386 5.585a.55.55 0 0 1-.204.393c-.116.072-3.1.436-6.632.8-3.53.364-6.5.742-6.589.843-.204.218.931 12.3 1.178 12.537.102.102 1.35.058 2.778-.116l2.604-.306 2.254-2.356c1.24-1.31 2.4-2.37 2.589-2.37.436 0 7.04 5.53 7.04 5.89a.52.52 0 0 1-.233.407c-.131.088-7.13.887-15.534 1.79-8.42.901-15.4 1.69-15.432 1.774-.088.087 0 1.44.16 3.025l.305 2.865-.858.8c-.785.713-4 2.3-4.683 2.298-.145 0-.335-.305-.408-.669zm9.861-11.839c2.05-.233 3.77-.465 3.825-.524.131-.13-1.02-12.4-1.178-12.566-.145-.16-8.12.625-8.421.83-.189.13.785 12.1 1.033 12.624.058.131.974.059 4.741-.363zm-1.09-15.781c1.77-.189 3.27-.393 3.345-.465.175-.175-.844-11.1-1.062-11.345-.218-.233-8.19.61-8.45.887-.088.116.058 2.44.334 5.192.276 2.76.509 5.32.524 5.702.014.625.102.669 1.061.523.567-.087 2.49-.32 4.247-.494zm-2.095-14.428c1.7-.16 3.33-.364 3.636-.422l.567-.13-.552-5.891c-.524-5.56-.582-5.91-1.12-5.905-1.43.014-7.81.887-7.985 1.09-.116.132.029 2.62.32 5.542.29 2.91.524 5.45.523 5.658.015.45.684.465 4.61.058zm-35.969 36.303c-1.41-1.75-1.83-2.49-1.833-3.2-.014-.93 0-.945 2.007-1.294 3.05-.538 10.9-2.71 16.392-4.51 2.69-.886 4.97-1.56 5.091-1.483.131.088.218.436.218.8 0 .51-.64 1-3.272 2.531-1.8 1.03-6.2 3.59-9.76 5.673-3.56 2.07-6.59 3.77-6.734 3.767-.145 0-1.09-1.02-2.109-2.284zm-.16-15.955c-.771-1.63-1.41-3.13-1.41-3.36 0-.233.334-.509.726-.61 1.05-.277 3.29-2.6 4.742-4.917 1.35-2.14 5-9.92 4.77-10.167-.072-.072-.552.088-1.061.364-1.79.989-9.28 4.25-9.73 4.247-.452 0-3.62-4.6-3.622-5.25 0-.19.596-.656 1.338-1.048 1.25-.669 1.44-.931 2.545-3.432 2.3-5.22 4.29-11.7 5.629-18.166.422-2.04.742-3.03 1.004-3.026.64 0 5.92 3.94 5.934 4.422 0 .247-.48.8-1.077 1.236-.858.655-1.25 1.28-1.978 3.243-1.29 3.43-4.16 9.6-5.977 12.828-.844 1.5-1.5 2.72-1.47 2.72s2.12-.335 4.655-.742c2.53-.393 4.7-.727 4.829-.727.509-.014 3.83-8.32 3.825-9.585 0-1.11.93-.713 3.49 1.455 1.45 1.24 2.65 2.3 2.648 2.37 0 .059-.553.685-1.237 1.382-.8.83-2.39 3.4-4.494 7.302-3.48 6.4-6.12 10.9-8.116 13.643-.684.93-1.22 1.73-1.222 1.774s2.98-.349 6.618-.873c3.65-.538 7.11-.974 7.68-.974 1-.015 1.05.03 1.047 1.004s-.044 1.02-1.6 1.469c-4.03 1.18-11.3 3.83-13.875 5.032-1.54.727-2.88 1.32-2.996 1.324-.131 0-.858-1.32-1.615-2.938zm41.19-36.972c-.247-.262-.567-1.02-.742-1.702-.77-3.21-1.98-5.44-4.16-7.708-1.06-1.09-1.41-1.67-1.41-2.313 0-.829.043-.858 1.105-.698 1.93.262 5.57 2.37 7.621 4.407 1.88 1.86 1.88 1.86 1.877 3.462 0 1.86-.785 3.51-2.11 4.421-.988.698-1.61.727-2.181.131z" transform="translate(-36.46 -15.817)scale(.26857)"/><path fill="url(#w)" stroke-width=".838" d="M212.61 160.38c-.669-.305-1.76-1.11-4.276-3.112-1.85-1.48-3.42-2.78-3.476-2.88-.058-.102-.073-.218-.03-.277s.815-.567 1.702-1.134c9.15-5.77 16.8-12.5 22.05-19.373 6.43-8.39 11.5-18.7 13.832-28.173.247-1 .51-1.99.582-2.182l.117-.349 3.665 1.774c2.02.99 3.71 1.86 3.752 1.95.175.275-1.35 5.57-2.545 8.872-2.66 7.42-6.66 14.9-11.039 20.71-5.79 7.68-12.7 14.5-20.857 20.727l-1.6 1.221.015.67c0 .363-.044.901-.117 1.192-.102.436-.189.553-.494.655-.32.116-.553.058-1.28-.291zm-8.392-29.962c-6.07-1.82-10.3-2.82-14.385-3.447-.83-.116-1.54-.276-1.556-.335-.073-.218 2.43-8.07 2.574-8.116.189-.072 8.52 1.51 10.298 1.95 2.01.494 8.29 2.24 8.407 2.341.102.087-2.52 7.98-2.735 8.261-.043.059-1.22-.233-2.603-.654zm3.709-20.639c-4.16-1.19-6.59-1.79-9.556-2.385-4.86-.99-6.92-1.47-6.909-1.644 0-.349 1.8-7.62 1.906-7.767.087-.116.247-.145.494-.101.204.043 2.25.465 4.538.93 2.3.465 4.87 1 5.716 1.222 1.61.378 6.72 1.73 7.636 1.993l.523.16-.101.407c-.32 1.34-2.08 7.56-2.167 7.636-.059.058-.99-.145-2.08-.451z" transform="translate(-36.46 -15.817)scale(.26857)"/><path fill="url(#x)" stroke-width=".792" d="M406.84 52.983c2.87-.106 5.12-1.97 6.686-5.59 1.64-3.69 2.34-8.55 2.104-14.551-.216-5.76-1.89-11-5.028-15.568-3.05-4.67-7.1-8.05-12.095-10.133q.217 5.432-3.674 9.443c-2.6 2.68-5.81 4.08-9.615 4.23-3.42.13-6.42-.98-8.974-3.348-2.54-2.36-3.88-5.26-4.02-8.69-.13-3.49 1.19-6.52 3.982-9.089 2.85-2.57 6.33-3.92 10.436-4.08 4.96-.184 9.73.674 14.287 2.595q6.93 2.866 11.94 8.395c3.39 3.81 6.05 7.94 7.942 12.416 1.95 4.4 3.01 8.92 3.193 13.522.34 8.52-1.06 15.4-4.17 20.688-3.05 5.22-7.28 7.92-12.668 8.133-3.38.119-6.45-.743-9.225-2.608-2.71-1.92-4.57-4.46-5.55-7.613-.729 3.21-2.41 5.89-5.032 8.025-2.56 2.06-5.52 3.15-8.898 3.269-4.29.164-8.04-1.19-11.218-4.079-3.12-2.95-4.76-6.58-4.937-10.87-.133-3.62.907-6.76 3.137-9.426 2.23-2.67 5-4.06 8.312-4.181 2.64-.102 4.92.889 6.845 2.962 1.99 2.01 3.02 4.49 3.133 7.435l-5.977.23c-.038-.989-.43-1.79-1.194-2.437-.708-.714-1.54-1.06-2.525-1.019q-1.473.062-2.516 1.845c-.63 1.19-.907 2.62-.848 4.272q.117 2.94 2.323 4.982c1.46 1.35 3.17 1.99 5.145 1.923 2.94-.114 5.4-1.5 7.392-4.148 2.04-2.66 2.99-5.8 2.857-9.41l7.166-.27c.145 3.62 1.31 6.66 3.493 9.173 2.24 2.49 4.84 3.67 7.79 3.571zM378.758 8.536c.058 1.65.701 3.05 1.915 4.154 1.21 1.13 2.63 1.66 4.3 1.587 1.65-.061 3.04-.69 4.158-1.898 1.13-1.22 1.65-2.64 1.583-4.3-.059-1.65-.701-3.05-1.904-4.163-1.21-1.13-2.64-1.65-4.299-1.587s-3.05.698-4.17 1.906c-1.12 1.21-1.65 2.64-1.583 4.301z" transform="matrix(.228 .15262 -.15495 .23147 -39.367 -19.643)"/></g></svg>