<svg width="52" height="50" viewBox="0 0 52 50" fill="none" xmlns="http://www.w3.org/2000/svg">
<path d="M45.8157 45.9152L41.1363 45.6355C41.0256 44.6611 40.8957 43.7862 40.7465 43.0106C40.5367 41.8984 40.4501 40.9977 40.4867 40.3087C40.5362 39.3753 40.6952 38.5397 40.9639 37.8016C40.2786 37.5282 39.9524 37.0814 39.9853 36.4612C40.0165 35.8724 40.1841 35.3514 40.4881 34.8983L40.7141 34.9118C40.7576 35.1469 40.8355 35.315 40.9477 35.4159C41.0599 35.5169 41.3006 35.6224 41.6699 35.7324C42.2209 35.8973 42.4742 36.3995 42.4297 37.2389C42.4184 37.4519 42.3927 37.62 42.3526 37.7433C41.9885 37.8535 41.6557 37.8996 41.3544 37.8815C41.1918 38.5191 41.0894 39.2356 41.0472 40.0311C40.9931 41.0522 41.252 42.2931 41.824 43.7537L42.0839 43.7598C42.9259 42.2392 43.7001 40.3091 44.4064 37.9697C43.7297 37.6402 43.4079 37.1623 43.4411 36.5358C43.4697 35.9971 43.6377 35.5202 43.9453 35.105L44.1713 35.1185C44.2196 35.4733 44.3648 35.6925 44.6067 35.776L45.1271 35.9391C45.6831 36.1169 45.9419 36.566 45.9038 37.2863C45.8901 37.5432 45.8532 37.764 45.7931 37.9489C45.5373 38.0217 45.2224 38.0468 44.8485 38.0244C44.316 40.148 43.6064 42.0756 42.7196 43.8072L45.3816 43.9664C45.6888 43.0296 46.4713 41.6813 47.729 39.9216C48.0491 39.482 48.2175 39.1025 48.2345 38.783C48.2517 38.4573 48.1127 38.229 47.8173 38.0983L47.7105 38.0542C47.1637 37.8078 46.9043 37.4215 46.9322 36.8954C46.9637 36.3003 47.154 35.7744 47.5029 35.3177L47.7205 35.3307C47.7437 35.6337 47.8753 35.8426 48.1156 35.9575L48.5749 36.1641C49.0941 36.4025 49.3364 36.8474 49.3019 37.4989C49.272 38.0627 48.9735 38.7816 48.4065 39.6558C47.8395 40.5299 47.3293 41.4954 46.8757 42.5523C46.4222 43.6091 46.0689 44.7301 45.8157 45.9152Z" fill="url(#paint0_linear_201_288)" stroke="black" stroke-width="0.2"/>
<path d="M6.38816 42.9306L6.60509 42.7897C6.89946 43.2327 7.15541 43.4709 7.37292 43.5044C7.59045 43.5379 7.96109 43.3845 8.48483 43.0443L10.9179 41.4638L10.8316 41.3101C10.7504 41.1781 10.6561 41.0871 10.5487 41.037C10.4413 40.9869 10.3267 40.9652 10.205 40.9718C10.0833 40.9785 9.46689 41.048 8.35585 41.1805L5.52561 41.5283L4.3898 39.6818L4.60673 39.5409C5.02145 40.0106 5.48652 40.2553 6.00194 40.2751C6.51736 40.2948 7.54985 40.2259 9.09944 40.0682C9.66545 40.0102 10.0894 40.0369 10.3714 40.1484C10.4116 39.8226 10.514 39.5289 10.6786 39.2672C10.8431 39.0055 11.2035 38.5666 11.76 37.9505C12.1976 37.4614 12.4575 37.139 12.5395 36.9834C12.6216 36.8277 12.6242 36.6874 12.5474 36.5626C12.4749 36.4448 12.3219 36.3295 12.0884 36.2165C11.8631 36.1082 11.7109 35.9898 11.6319 35.8613C11.5397 35.7115 11.5123 35.5557 11.5497 35.3941C11.587 35.2325 11.678 35.1048 11.8226 35.0108C11.9985 34.8966 12.2019 34.8693 12.4328 34.929C12.6638 34.9888 12.8692 35.1649 13.0492 35.4575C13.2248 35.743 13.3021 36.051 13.2813 36.3817C13.2604 36.7124 13.1721 36.9957 13.0164 37.2317C12.8607 37.4677 12.5278 37.8737 12.0178 38.4497C11.5554 38.9697 11.2543 39.3339 11.1144 39.5421C10.9744 39.7504 10.9024 39.9645 10.8982 40.1845C10.894 40.4044 10.9665 40.6357 11.1158 40.8784C11.1662 40.9604 11.2449 41.0616 11.3518 41.182L13.5386 39.7615C14.0623 39.4212 14.3561 39.143 14.42 38.9267C14.4839 38.7104 14.3843 38.3706 14.1212 37.9073L14.3381 37.7664L16.2608 40.8921L16.0438 41.033C15.7516 40.5936 15.4974 40.358 15.2809 40.3263C15.0645 40.2946 14.6944 40.4489 14.1707 40.7891L11.9839 42.2096C12.0218 42.3247 12.0672 42.4251 12.1199 42.5108C12.2845 42.7784 12.4638 42.9565 12.6578 43.0452C12.8519 43.1339 13.0675 43.1599 13.3048 43.1231C13.542 43.0864 13.9953 42.9629 14.6647 42.7528C15.3837 42.5255 15.8793 42.3908 16.1516 42.3488C16.4239 42.3067 16.7118 42.3457 17.0153 42.4656C17.3188 42.5856 17.5595 42.79 17.7373 43.0791C17.9085 43.3574 17.9759 43.6182 17.9396 43.8615C17.9033 44.1048 17.7913 44.2874 17.6037 44.4093C17.4591 44.5032 17.3083 44.5338 17.1513 44.5009C16.9943 44.468 16.8686 44.3749 16.7743 44.2215C16.6996 44.1001 16.6609 43.9081 16.6579 43.6454C16.6566 43.3765 16.6187 43.1815 16.5441 43.0601C16.4716 42.9424 16.3449 42.8899 16.164 42.9025C15.9831 42.9152 15.5927 43.0164 14.9929 43.2063C14.2065 43.4575 13.6645 43.6035 13.367 43.6445C13.0694 43.6855 12.7688 43.6548 12.4652 43.5524C12.432 43.8186 12.3573 44.0707 12.241 44.3085C12.1247 44.5463 11.7944 45.1342 11.2499 46.0722C10.7275 46.9659 10.4342 47.5896 10.3701 47.9434C10.3059 48.2971 10.3579 48.7041 10.5261 49.1642L10.3091 49.3051L9.17334 47.4586C9.24862 47.3497 9.64441 46.7081 10.3607 45.5337L11.5415 43.5981C11.6163 43.4796 11.6807 43.3354 11.7348 43.1654C11.7889 42.9954 11.7578 42.8159 11.6415 42.6268C11.6173 42.5875 11.5868 42.5424 11.55 42.4914L9.11693 44.0719C8.59319 44.4121 8.29882 44.6895 8.23383 44.904C8.16886 45.1185 8.26681 45.4556 8.52772 45.9154L8.31079 46.0563L6.38816 42.9306Z" fill="url(#paint1_linear_201_288)" stroke="black" stroke-width="0.2"/>
<path d="M33.2549 9.17983L31.6145 7.72546L25.8437 14.5593L24.729 13.571L30.4997 6.73716L29.708 6.03525L30.504 5.09264L34.0509 8.23723L33.2549 9.17983ZM27.7599 6.729C27.143 7.45952 26.411 7.91108 25.5638 8.08369C24.7166 8.2563 23.8664 8.13953 23.0132 7.73338L23.306 11.7017L21.8793 11.673L21.339 4.60079L22.7707 4.62356L22.8831 6.10368C22.8885 6.14971 22.944 6.21951 23.0496 6.3131C23.569 6.77356 24.2175 6.91929 24.9952 6.7503C25.696 6.60242 26.2586 6.27712 26.6832 5.7744C27.0115 5.38558 27.1797 4.88911 27.1878 4.285C27.1979 3.63468 26.9982 3.12796 26.5886 2.76483C26.3184 2.52525 26.0389 2.38397 25.7503 2.341C25.4274 2.29503 25.1614 2.39576 24.9525 2.64319C24.654 2.99667 24.7264 3.36994 25.1698 3.76302C25.2711 3.85286 25.392 3.93261 25.5326 4.00227L24.7864 4.88595C24.5837 4.80243 24.3472 4.64087 24.077 4.40128C23.6463 4.01944 23.4244 3.56519 23.4114 3.03853C23.3953 2.5504 23.5564 2.10604 23.8947 1.70543C24.3292 1.19093 24.8952 0.957869 25.5927 1.00623C26.2474 1.04412 26.8513 1.30826 27.4045 1.79866C28.2194 2.52117 28.6473 3.34352 28.6882 4.2657C28.7194 5.13811 28.4099 5.95921 27.7599 6.729Z" fill="url(#paint2_linear_201_288)" stroke="black" stroke-width="0.2"/>
<path d="M19.8544 29.8135L19.6441 29.6671L22.1738 21.2106C22.3629 20.58 22.4674 20.2021 22.4872 20.0767C22.5191 19.8691 22.4947 19.6812 22.4138 19.5129C22.3329 19.3447 22.1775 19.1806 21.9476 19.0206L22.1082 18.7966L25.0417 20.8384L24.8812 21.0625L24.7409 20.9649C24.5344 20.8211 24.342 20.7598 24.1635 20.7807C23.985 20.8016 23.8466 20.8807 23.7482 21.018C23.647 21.1592 23.4999 21.5438 23.3069 22.1717L21.5658 27.8651C21.5658 27.8651 25.8679 24.7601 27.1785 23.3923C27.3606 23.2022 27.277 22.8922 27.2856 22.6683C27.2899 22.5564 27.2738 22.4484 27.2374 22.3444C27.1921 22.204 27.1323 22.0837 27.058 21.9836C27.0013 21.9079 26.8931 21.8144 26.7334 21.7033L26.8939 21.4793L30.661 23.669L30.5005 23.8931L30.2901 23.7466C30.072 23.5948 29.6825 23.5412 29.5118 23.5676C29.3411 23.5939 28.7939 23.6756 28.6753 23.8411L19.8544 29.8135Z" fill="url(#paint3_linear_201_288)" stroke="black" stroke-width="0.2"/>
<path d="M46.8152 18.8686L46.0176 19.7507L45.2396 18.8371L46.019 17.9491L46.8152 18.8686ZM47.6102 20.5022L46.8109 21.3684L46.0208 20.4509L46.7996 19.586L47.6102 20.5022ZM46.0093 20.6958L45.22 21.5729L44.4254 20.6695L45.2026 19.7886L46.0093 20.6958ZM46.0392 27.0591L45.5591 26.9075C45.3161 26.8308 45.1148 26.7245 44.9554 26.5887C44.7959 26.4529 44.6481 26.2703 44.5119 26.0409C44.2845 26.1659 44.0942 26.2378 43.941 26.2568C43.7235 26.2813 43.4324 26.236 43.0679 26.1209L42.3205 25.8849C42.1819 26.3175 41.9581 26.7103 41.6488 27.0632C41.2477 27.5217 40.7605 27.8313 40.1872 27.9921C39.4667 28.1944 38.6589 28.1542 37.7637 27.8715C36.9535 27.6157 36.3864 27.2554 36.0624 26.7906C35.7085 26.2801 35.6512 25.651 35.8907 24.9032C36.0202 24.4988 36.1937 24.103 36.4113 23.716C36.6289 23.3291 36.8776 22.9493 37.1575 22.5768C37.3279 22.351 37.6068 22.0092 37.9943 21.5516L38.1966 21.7553C37.6962 22.343 37.338 22.8176 37.1218 23.1792C36.9057 23.5407 36.7457 23.8838 36.6418 24.2083C36.455 24.7914 36.4923 25.2913 36.7537 25.7078C37.0151 26.1243 37.4779 26.4375 38.1423 26.6473C38.92 26.8928 39.6652 26.9547 40.3778 26.8327C41.2643 26.6829 41.8198 26.2576 42.0442 25.5568C42.1948 25.0865 42.2629 24.6161 42.2485 24.1455C42.238 23.7745 42.1743 23.4023 42.0575 23.0288L43.0249 21.7419C43.1039 22.1915 43.1325 22.5759 43.1105 22.8953C43.0778 23.3458 42.9454 23.9332 42.7135 24.6574L43.4609 24.8934C43.8457 25.0149 44.141 25.0331 44.3467 24.9479C44.5261 24.8751 44.655 24.7164 44.7333 24.4718C44.777 24.3354 44.8139 24.1957 44.8442 24.0524C44.8744 23.9092 44.9017 23.7508 44.9261 23.5773L45.3046 23.2308L45.1828 23.9457C45.1243 24.4348 45.1376 24.804 45.2228 25.0536C45.3166 25.3318 45.5154 25.5188 45.8192 25.6148C45.9124 25.6442 45.9952 25.6328 46.0677 25.5806C46.1401 25.5284 46.1929 25.4506 46.2261 25.3471C46.3013 25.112 46.3191 24.8405 46.2794 24.5328C46.2495 24.3059 46.1892 24.0693 46.0985 23.8232L46.7518 23.1828C46.8262 23.6051 46.8626 23.8884 46.861 24.0329C46.8552 24.3573 46.762 24.8017 46.5813 25.3661L46.0392 27.0591Z" fill="url(#paint4_linear_201_288)" stroke="black" stroke-width="0.2"/>
<path d="M9.99478 27.9538L10.322 28.0205C10.1641 28.7493 9.89318 29.2479 9.50915 29.5163C9.12509 29.7847 8.69975 29.8713 8.23312 29.7762C7.85132 29.6983 7.50841 29.514 7.20438 29.2232C6.90034 28.9324 6.71236 28.2812 6.64044 27.2696L6.44021 24.4258L2.71808 28.5501L1 28.1997L6.27259 22.6145C6.2454 21.7469 6.12933 21.0851 5.92438 20.6291C5.71941 20.1732 5.40179 19.9013 4.97152 19.8135C4.62608 19.7431 4.30285 19.7819 4.00183 19.93C3.7008 20.0781 3.48968 20.3589 3.36845 20.7724L3.04119 20.7057C3.20626 20.0314 3.50269 19.5248 3.9305 19.1858C4.3583 18.8468 4.82673 18.7293 5.3358 18.8331C5.66305 18.8999 5.9514 19.0658 6.20086 19.331C6.45031 19.5962 6.6289 19.9987 6.73663 20.5383C6.84435 21.0781 6.9566 22.1737 7.07339 23.8254L7.24367 26.1501C7.30741 27.1119 7.44999 27.7755 7.6714 28.1409C7.89281 28.5063 8.20351 28.7298 8.60349 28.8114C9.28223 28.9499 9.74599 28.664 9.99478 27.9538Z" fill="url(#paint5_linear_201_288)" stroke="black" stroke-width="0.2"/>
<path d="M28.8307 48.3482C28.8188 48.288 28.662 46.6851 28.4822 44.7861C28.3025 42.8872 28.1428 41.2279 28.1273 41.0989L28.0992 40.8644L27.9675 41.1181C27.6856 41.6612 27.3637 42.0386 27.1824 42.0386C27.1127 42.0386 27.0443 42.0192 27.0304 41.9955C27.0165 41.9718 27.0853 41.7694 27.1831 41.5457C27.7682 40.2088 28.2032 38.4788 28.2041 37.4857C28.2044 37.1261 28.246 36.8839 28.3073 36.8839C28.4232 36.8839 29.5893 37.4393 29.5893 37.4945C29.5893 37.529 29.5065 37.6318 29.4053 37.7231C29.2411 37.8711 29.204 37.9488 29.0616 38.4428C28.9738 38.7474 28.9104 39.0054 28.9206 39.0162C28.9308 39.0269 29.6411 38.9599 30.4991 38.8673L32.0591 38.6988L32.4016 38.3263C32.59 38.1214 32.7582 37.9537 32.7755 37.9537C32.8276 37.9537 33.5732 38.5637 33.7146 38.722C33.7872 38.8033 33.8376 38.8986 33.8264 38.9338C33.8118 38.9799 33.468 39.0338 32.5956 39.1266C31.9298 39.1974 31.3778 39.2634 31.369 39.2732C31.3601 39.283 31.3918 39.6849 31.4393 40.1664C31.4869 40.6478 31.5263 41.0831 31.527 41.1338C31.5281 41.218 31.5552 41.2234 31.8399 41.1963L32.1515 41.1667L32.4551 40.8165C32.6782 40.5591 32.7761 40.4775 32.8244 40.5086C33.0133 40.6301 33.8154 41.3316 33.8278 41.3861C33.8458 41.4652 33.7796 41.4767 32.567 41.6053C32.0337 41.6618 31.5946 41.7113 31.591 41.7153C31.5838 41.7233 31.7516 43.4317 31.7706 43.5439C31.7797 43.5972 31.8448 43.6119 32.0363 43.6037C32.2876 43.5929 32.293 43.5895 32.6178 43.229C32.7981 43.029 32.9747 42.8655 33.0102 42.8658C33.0856 42.8665 34.0673 43.7229 34.0673 43.7881C34.0673 43.8123 34.0517 43.8419 34.0327 43.8539C34.0137 43.8658 33.5203 43.9246 32.9363 43.9845C32.3523 44.0444 31.8619 44.1071 31.8466 44.1237C31.8123 44.1608 32.0011 46.1522 32.043 46.1959C32.0595 46.2131 32.2662 46.2044 32.5024 46.1767L32.9317 46.1262L33.3043 45.7358C33.5092 45.521 33.7026 45.3454 33.7341 45.3454C33.8053 45.3454 34.8983 46.258 34.8983 46.3175C34.8983 46.3413 34.8806 46.3723 34.859 46.3864C34.8374 46.4005 33.6811 46.5329 32.2895 46.6807C30.8978 46.8285 29.7489 46.9603 29.7362 46.9737C29.7236 46.987 29.7361 47.2114 29.7639 47.4725L29.8146 47.947L29.6714 48.0788C29.5427 48.197 29.0103 48.4576 28.8972 48.4576C28.8726 48.4576 28.8427 48.4084 28.8307 48.3482ZM30.4601 46.3926C30.7994 46.3544 31.0847 46.315 31.0943 46.305C31.1148 46.2834 30.925 44.2603 30.8996 44.2311C30.8755 44.2032 29.5578 44.3329 29.5058 44.3683C29.4747 44.3896 29.6359 46.3597 29.6763 46.4517C29.6861 46.4739 29.8381 46.4625 30.4601 46.3926ZM30.2818 43.7859C30.5738 43.7557 30.8219 43.7215 30.8333 43.71C30.8632 43.6796 30.6951 41.8744 30.6587 41.8359C30.623 41.798 29.303 41.9372 29.2609 41.9833C29.2453 42.0003 29.27 42.3863 29.3158 42.841C29.3616 43.2956 29.4004 43.7188 29.4019 43.7813C29.4044 43.8848 29.4203 43.8926 29.5778 43.868C29.673 43.8531 29.9898 43.8162 30.2818 43.7859ZM29.9355 41.404C30.2148 41.3757 30.4855 41.3437 30.537 41.3327L30.6307 41.3127L30.5386 40.3383C30.452 39.422 30.441 39.364 30.3526 39.3649C30.1172 39.3673 29.0621 39.5111 29.0316 39.5449C29.0128 39.5658 29.0365 39.9767 29.0844 40.4581C29.1322 40.9396 29.1719 41.3608 29.1726 41.3942C29.1741 41.4685 29.2837 41.4698 29.9355 41.404ZM23.9857 47.3999C23.7512 47.1096 23.6812 46.9878 23.6807 46.8694C23.6802 46.7164 23.6816 46.7155 24.0149 46.657C24.5191 46.5684 25.8191 46.2106 26.7256 45.911C27.1691 45.7644 27.5482 45.655 27.5681 45.668C27.588 45.6809 27.604 45.7395 27.6036 45.7981C27.6032 45.8837 27.4968 45.9658 27.0612 46.2168C26.7632 46.3886 26.0373 46.8098 25.4482 47.1529C24.8591 47.4961 24.3575 47.7768 24.3336 47.7768C24.3097 47.7768 24.1531 47.6072 23.9857 47.3999ZM23.9576 44.7627C23.8304 44.4957 23.7264 44.2464 23.7264 44.2087C23.7264 44.171 23.7801 44.126 23.8458 44.1086C24.0179 44.0631 24.3893 43.6789 24.6303 43.2971C24.8542 42.9423 25.4581 41.6583 25.42 41.6181C25.4073 41.6047 25.3274 41.6316 25.2426 41.6779C24.9463 41.8393 23.7077 42.379 23.6333 42.379C23.5593 42.379 23.0339 41.6184 23.0339 41.5112C23.0339 41.4812 23.134 41.4032 23.2564 41.3379C23.4625 41.2279 23.4936 41.1859 23.6768 40.7705C24.0565 39.9098 24.3879 38.843 24.6085 37.7714C24.6779 37.434 24.7315 37.2729 24.7744 37.2729C24.8791 37.2729 25.7535 37.9237 25.7546 38.0024C25.7552 38.0425 25.6759 38.1347 25.5785 38.2072C25.4358 38.3136 25.3719 38.4175 25.2498 38.7422C25.037 39.3081 24.5616 40.3274 24.2624 40.8593C24.1232 41.1067 24.0131 41.3091 24.0179 41.3091C24.0226 41.3091 24.3692 41.2548 24.7882 41.1883C25.2071 41.1218 25.5668 41.0671 25.5874 41.0667C25.6714 41.0651 26.2193 39.6925 26.2193 39.4838C26.2193 39.3023 26.3736 39.3668 26.7964 39.725C27.0376 39.9293 27.2349 40.1049 27.2349 40.1151C27.2349 40.1253 27.143 40.2285 27.0307 40.3445C26.8983 40.4812 26.6365 40.9054 26.2866 41.5503C25.7128 42.6079 25.2734 43.3448 24.9439 43.8019C24.8329 43.956 24.742 44.0885 24.742 44.0963C24.742 44.1041 25.2354 44.0387 25.8384 43.951C26.4414 43.8633 27.0127 43.791 27.1079 43.7904C27.2745 43.7893 27.2811 43.7955 27.2811 43.956C27.2811 44.1176 27.2729 44.1251 27.0156 44.1998C26.3504 44.3929 25.1386 44.831 24.7204 45.0296C24.4673 45.1498 24.2441 45.2481 24.2245 45.2481C24.2049 45.2481 24.0848 45.0297 23.9576 44.7627ZM30.771 38.6567C30.7318 38.6153 30.6773 38.4895 30.65 38.377C30.5206 37.8449 30.3222 37.4786 29.9609 37.1045C29.7864 36.9239 29.7278 36.8275 29.7278 36.7213C29.7278 36.5839 29.7337 36.5801 29.9112 36.6052C30.2305 36.6503 30.831 36.9974 31.1705 37.3331C31.4816 37.6407 31.4821 37.6416 31.4818 37.9069C31.4816 38.2134 31.3518 38.485 31.1332 38.6368C30.9688 38.7509 30.8659 38.7566 30.771 38.6567Z" fill="url(#paint6_linear_201_288)" stroke="black" stroke-width="0.2"/>
<path d="M7.84715 12.8096C7.72865 12.7588 7.53668 12.6305 7.0926 12.3052C6.765 12.0652 6.48783 11.8558 6.47665 11.8397C6.46548 11.8236 6.46277 11.803 6.47064 11.7939C6.4785 11.7849 6.61461 11.7025 6.77309 11.611C8.39115 10.6761 9.74057 9.59226 10.6738 8.47798C11.8116 7.11945 12.7049 5.45575 13.1209 3.92044C13.1652 3.75724 13.2109 3.5979 13.2225 3.56634L13.2436 3.50897L13.8926 3.7983C14.2495 3.95744 14.5486 4.09849 14.5572 4.11175C14.5859 4.15602 14.3173 5.01252 14.107 5.5471C13.6351 6.74719 12.9276 7.96073 12.1537 8.89782C11.128 10.1397 9.91413 11.2429 8.46334 12.2518L8.1802 12.4487L8.18245 12.5567C8.18368 12.616 8.17479 12.7029 8.16269 12.7498C8.14429 12.8211 8.12967 12.8385 8.07338 12.8564C8.01875 12.8738 7.97615 12.865 7.84715 12.8096ZM6.3631 7.96196C5.28929 7.66778 4.54586 7.50507 3.81948 7.40525C3.67077 7.38481 3.54618 7.36 3.54263 7.35012C3.53016 7.31547 3.97186 6.04507 3.99942 6.03632C4.03217 6.02591 5.50705 6.28134 5.81909 6.35145C6.1761 6.43167 7.28801 6.71548 7.30848 6.73161C7.32556 6.74507 6.86199 8.02311 6.82429 8.06652C6.81588 8.0762 6.60835 8.02914 6.3631 7.96196ZM7.02068 4.62251C6.28391 4.43125 5.85423 4.33316 5.32913 4.23632C4.46895 4.0777 4.1044 3.9989 4.10542 3.97182C4.10757 3.91496 4.42473 2.73921 4.4447 2.71413C4.45973 2.69524 4.4866 2.69054 4.53152 2.69894C4.5673 2.70562 4.92881 2.77269 5.33487 2.84797C5.74093 2.92326 6.19618 3.01213 6.34653 3.04546C6.63205 3.10877 7.53486 3.32579 7.69518 3.36966L7.78791 3.39503L7.77128 3.45956C7.7152 3.67721 7.40212 4.68382 7.38647 4.69682C7.37606 4.70547 7.21145 4.67203 7.02068 4.62251Z" fill="url(#paint7_linear_201_288)" stroke="black" stroke-width="0.2"/>
<path d="M43.343 1.21774C43.4507 1.28248 43.7125 1.50607 44.1283 1.8885C44.2646 2.01458 44.3937 2.11426 44.5157 2.18755C44.8672 2.39888 45.4124 2.70456 46.1513 3.10457L47.0634 3.50369C47.6443 3.85293 47.8728 4.11733 47.7488 4.2969C47.7002 4.36716 47.5584 4.4696 47.3232 4.60425L47.1453 4.72933L45.4243 6.42777C45.3379 6.50858 45.3431 6.63324 45.4402 6.80178C45.5314 6.97829 45.5474 7.1094 45.4882 7.19514C45.3535 7.39018 44.9131 7.26348 44.1671 6.81503L43.9761 6.71687L42.8999 6.1362C42.3241 5.82343 42.0362 5.66705 42.0362 5.66705C41.9933 5.64126 41.8786 5.70472 41.6919 5.85742L41.444 6.0395L41.2828 6.07506L41.1991 6.04145C41.0343 5.94237 41.2672 5.39213 41.8978 4.39074C41.9228 4.33973 41.9435 4.30243 41.9597 4.27885L42.6874 3.02677C42.8888 2.70601 42.9995 2.50189 43.0193 2.41439C43.1163 2.09725 43.0375 1.78499 42.783 1.4776C42.6325 1.29852 42.5771 1.16576 42.6166 1.07933C42.7137 0.938824 42.9558 0.984962 43.343 1.21774ZM42.2522 5.20032L44.0087 6.2067C44.3441 6.35306 44.6186 6.3524 44.8321 6.20473C44.9974 6.08298 45.3567 5.63623 45.9102 4.8645C46.0826 4.61493 46.2344 4.40252 46.3656 4.2273C46.4642 4.09886 46.4876 3.99143 46.4358 3.905C46.4106 3.86794 46.3657 3.83 46.3011 3.79118L44.0471 2.46904L42.2522 5.20032ZM41.6933 7.13373L42.1883 7.49753C42.7924 7.91595 43.159 8.16398 43.2882 8.24161L44.5041 8.97252L45.7573 9.69304L45.779 9.70607L46.3065 9.89023L46.3174 9.89675C46.7979 10.1856 46.9842 10.4081 46.8763 10.5643C46.8332 10.6267 46.7102 10.7018 46.5074 10.7895C46.4463 10.8192 46.4015 10.8475 46.373 10.8745C45.8628 11.3629 45.5908 11.6245 45.5568 11.6593C45.5368 11.7026 45.5608 11.7779 45.6289 11.8852C45.6737 11.9674 45.6844 12.0401 45.661 12.1032C45.6521 12.1309 45.6422 12.1526 45.6314 12.1683C45.5991 12.2149 45.5372 12.2384 45.4457 12.2387C45.3004 12.2288 44.8565 12.0117 44.114 11.5873L41.8546 10.2291C41.6252 10.0912 41.435 10.1315 41.284 10.3502L40.888 10.9235C40.667 11.2436 40.7967 11.548 41.2772 11.8369L42.5093 12.5442L42.5307 12.557C43.1405 12.9236 43.4696 13.1159 43.518 13.1338C43.5611 13.1597 43.6067 13.1818 43.6549 13.2L44.5295 13.477C44.5781 13.4951 44.6238 13.517 44.6667 13.5428C45.2479 13.8922 45.4576 14.1839 45.2959 14.418C45.1665 14.6054 44.9475 14.6064 44.6391 14.421L41.1557 12.3437C41.0767 12.2962 40.9978 12.2488 40.919 12.2014C40.3021 11.8306 39.9902 11.4663 39.9833 11.1086C39.9783 10.8956 40.0647 10.6604 40.2425 10.403L40.6306 9.84105C40.7814 9.62267 40.7412 9.39427 40.51 9.15584L40.2732 8.88105C40.2466 8.83168 40.2494 8.78366 40.2816 8.73698C40.3625 8.61981 40.5849 8.66518 40.9487 8.87311C40.9846 8.89469 41.0098 8.90982 41.0243 8.91851L41.8819 9.6823C41.925 9.70822 41.9646 9.73197 42.0005 9.75356C42.5168 10.064 43.3041 10.5261 44.3621 11.1399C44.6922 11.3383 44.9704 11.3399 45.1967 11.1446C45.2828 11.0639 45.3824 10.9416 45.4956 10.7778C45.6518 10.5516 45.7308 10.4224 45.7325 10.3904C45.7523 10.3029 45.7121 10.229 45.6119 10.1688L43.0296 8.68268C43.0007 8.66532 42.8034 8.59084 42.4376 8.45928C42.3623 8.43594 42.2996 8.40921 42.2495 8.37907C42.0772 8.27551 41.8809 8.03057 41.6604 7.64426L41.5156 7.32515C41.4959 7.23614 41.4995 7.1721 41.5265 7.13305C41.5589 7.08613 41.6145 7.08635 41.6933 7.13373ZM48.4504 8.13109C47.8306 9.02844 47.3421 9.50791 46.9848 9.5695L46.818 9.56825L46.7858 9.54891C46.6566 9.47128 46.8284 9.08313 47.301 8.38447L49.5487 5.13016L49.7318 4.84287L49.7399 4.83108C49.9105 4.56931 49.8606 4.16386 49.5902 3.61476C49.3968 3.23325 49.3126 2.99493 49.3377 2.89982C49.4024 2.80623 49.5459 2.82628 49.7683 2.95997C50.0767 3.14538 50.3994 3.47182 50.7364 3.93928C50.9068 4.16306 50.9945 4.33727 50.9995 4.46193C51.005 4.54238 50.9663 4.6351 50.8836 4.74007C50.4688 5.25274 50.2587 5.513 50.2533 5.52085L48.7253 7.73314C48.8901 7.83223 49.2291 7.95864 49.7422 8.11237C49.9537 8.17347 50.124 8.24283 50.2532 8.32047C50.8054 8.65247 51.0061 8.92766 50.8553 9.14604C50.7097 9.3568 50.2676 9.24013 49.5288 8.79602L48.6547 8.25386L48.4504 8.13109Z" fill="url(#paint8_linear_201_288)" stroke="black" stroke-width="0.2"/>
<defs>
<linearGradient id="paint0_linear_201_288" x1="41.6" y1="36.5091" x2="48.3824" y2="44.21" gradientUnits="userSpaceOnUse">
<stop stop-color="#000066"/>
<stop offset="1" stop-color="#00004F"/>
</linearGradient>
<linearGradient id="paint1_linear_201_288" x1="11.7248" y1="49.7787" x2="11.871" y2="33.0929" gradientUnits="userSpaceOnUse">
<stop stop-color="#000066"/>
<stop offset="1" stop-color="#00004F"/>
</linearGradient>
<linearGradient id="paint2_linear_201_288" x1="26.2615" y1="15.9383" x2="26.3053" y2="0.400463" gradientUnits="userSpaceOnUse">
<stop stop-color="#000066"/>
<stop offset="1" stop-color="#00004F"/>
</linearGradient>
<linearGradient id="paint3_linear_201_288" x1="26.6282" y1="31.7382" x2="21.4675" y2="18.161" gradientUnits="userSpaceOnUse">
<stop stop-color="#D40000"/>
<stop offset="1" stop-color="#570000"/>
</linearGradient>
<linearGradient id="paint4_linear_201_288" x1="45.6873" y1="29.4044" x2="38.0618" y2="15.8881" gradientUnits="userSpaceOnUse">
<stop stop-color="#000066"/>
<stop offset="1" stop-color="#00004F"/>
</linearGradient>
<linearGradient id="paint5_linear_201_288" x1="10.0511" y1="29.1789" x2="2.96768" y2="18.3229" gradientUnits="userSpaceOnUse">
<stop stop-color="#000066"/>
<stop offset="1" stop-color="#00004F"/>
</linearGradient>
<linearGradient id="paint6_linear_201_288" x1="33.5724" y1="47.7112" x2="24.1875" y2="38.522" gradientUnits="userSpaceOnUse">
<stop stop-color="#000066"/>
<stop offset="1" stop-color="#00004F"/>
</linearGradient>
<linearGradient id="paint7_linear_201_288" x1="13.8849" y1="9.63393" x2="4.93406" y2="3.24072" gradientUnits="userSpaceOnUse">
<stop stop-color="#000066"/>
<stop offset="1" stop-color="#00004F"/>
</linearGradient>
<linearGradient id="paint8_linear_201_288" x1="45.043" y1="14.2456" x2="40.336" y2="1.46171" gradientUnits="userSpaceOnUse">
<stop stop-color="#000066"/>
<stop offset="1" stop-color="#00004F"/>
</linearGradient>
</defs>
</svg>
