<svg xmlns="http://www.w3.org/2000/svg" viewBox="0 0 99.068 50"><path fill="#080808" d="M74.535 25c0 4.65-3.77 8.42-8.422 8.422-4.65 0-8.42-3.77-8.422-8.422 0-4.65 3.77-8.42 8.422-8.418 4.65 0 8.42 3.77 8.422 8.418z"/><path fill="#0d0d0d" d="M55.711 25c0 4.65-3.77 8.42-8.422 8.422-4.65 0-8.42-3.77-8.422-8.422 0-4.65 3.77-8.42 8.422-8.418 4.65 0 8.42 3.77 8.422 8.418z"/><path fill="#252525" d="M36.887 25c0 4.65-3.77 8.42-8.422 8.422s-8.42-3.77-8.422-8.422c0-4.65 3.77-8.42 8.422-8.418s8.42 3.77 8.422 8.418z"/><path fill="#0d0d0d" d="M78.43 25c0 4.16-2.1 8.03-5.574 10.305l2.965 2.969c7.33-5.35 8.93-15.6 3.578-22.965-1-1.37-2.21-2.57-3.578-3.574l-2.965 2.964c3.48 2.27 5.57 6.15 5.574 10.301z"/><path fill="#252525" d="M86.238 25c0 6.22-2.88 12.1-7.797 15.891l3.078 3.082c10.5-8.49 12.1-23.9 3.602-34.34a24.526 24.526 0 0 0-3.602-3.602l-3.078 3.082c4.92 3.8 7.79 9.67 7.797 15.887z"/><path fill="#414141" d="M94.621 25c0 8.44-3.75 16.4-10.242 21.836l3.168 3.168c13.8-11.8 15.4-32.6 3.629-46.375-1.11-1.3-2.32-2.51-3.625-3.625l-3.168 3.164c6.48 5.4 10.2 13.4 10.234 21.836z"/><path fill="#040404" d="M15.844 31.566c-.719.07-1.51.215-2.375.426-.867.21-1.77.484-2.707.816-.938.332-1.89.703-2.871 1.117a52.71 52.71 0 0 0-2.875 1.328c-.938.47-1.84.961-2.691 1.477s-1.63 1.03-2.336 1.547c.94-1.07 2.03-2.09 3.27-3.074 1.25-.984 2.7-1.96 4.374-2.914 1.42-.81 2.76-1.5 4.031-2.059 1.27-.562 2.51-1.03 3.727-1.394-3.7-3.87-8.12-5.94-13.281-6.215l1.824-3.364c.387.016.781.028 1.188.028h1.242c4.03 0 7.5-.262 10.406-.774l.582 3.04c-2.38-.094-4.6-.235-6.668-.418-2.07-.18-4.03-.45-5.867-.801 4.93 1.11 9.01 4.04 12.23 8.808l-1.215 2.434z"/><path d="M53.293 31.09c-.32.297-.586.609-.89 1.04-.31.437-.454.741-.57 1.226a3.577 3.577 0 0 0-.095 1.394c.094.703.266 1.21.57 1.7.122.183.509.62.696.78 1 .853 2.41 1.52 4.637 2.176.367.11.648.2.652.215.008.04.008.63.004 1.164-.027 2.18-.188 4.43-.55 7.735-.095.832-.099.895-.063.941l.039.047.105-.074c.059-.04.223-.16.363-.266 1.21-.918 1.39-1.05 1.415-1.031.003.008.188.113.402.238.219.121.562.32.765.438l.372.21.132-.109.024-.343c.012-.188.055-.762.094-1.278.246-3.22.344-4.93.367-6.617 0-.164.008-.293.008-.293.003 0 .262.047.578.106 1.74.312 3.15.52 6.464.937.543.067 1.13.145 1.305.168l.317.043.07-.05.066-.055-.136-.399a39.286 39.286 0 0 1-.286-.816 6.6 6.6 0 0 0-.16-.434c-.015-.02.094-.113.89-.781.376-.312.724-.605.774-.656l.094-.082-.039-.047c-.035-.043-.105-.051-.945-.133-3.45-.328-5.66-.617-7.84-1.027a37.033 37.033 0 0 1-1.219-.246c-.015-.008-.047-.266-.086-.668-.18-1.91-.492-3.31-.976-4.352a4.034 4.034 0 0 0-.578-.95c-.398-.511-.73-.761-1.465-1.105-.578-.27-.914-.348-1.54-.363-.542-.016-.952.04-1.351.168-.188.062-.578.227-.59.25-.004.008-.086.05-.18.098-.457.21-.78.41-1.199.734a7.932 7.932 0 0 0-.445.367zm2.484 1.055c.22-.141.496-.305.66-.39.286-.146.47-.228.481-.216.016.02.176.332.234.457.344.742.61 1.71.793 2.867.059.371.152 1.12.145 1.122-.023 0-.723-.234-1.043-.348-1.31-.473-2.27-.961-3.02-1.543-.082-.066-.16-.125-.168-.137-.035-.047.551-.703.973-1.086.203-.188.695-.566.945-.726z"/></svg>