<svg xmlns="http://www.w3.org/2000/svg" viewBox="0 0 99 99.241"><g fill="#069" fill-rule="evenodd"><path d="M77.973 35.027c-.82 0-1.74.05-2.773.152-.867.102-1.74.152-2.618.16-.715 0-1.61-.054-2.668-.16a36.537 36.537 0 0 0-2.976-.152c-.31 0-.461.238-.461.719 0 .484.102.719.308.718 2.29.106 3.45.993 3.45 2.672a6.173 6.173 0 0 1-.516 2.309l-7.004 16.293 1.137 2.555 8.277-18.648c.863-1.95 1.68-3.27 2.488-3.961a5.411 5.411 0 0 1 3.106-1.219.549.549 0 0 0 .43-.254.942.942 0 0 0 .195-.57c-.012-.41-.133-.613-.375-.613zM53.035 36.465c2.3.109 3.45.945 3.45 2.512a5.574 5.574 0 0 1-.774 2.469l-.14.261 1.14 2.555 1.414-2.617c1.21-2.12 2.22-3.48 3.02-4.078a6.494 6.494 0 0 1 3.218-1.102c.375 0 .566-.277.567-.824 0-.43-.105-.613-.305-.613-.863 0-1.96.062-3.262.175-1.03.086-1.8.137-2.332.137-.738 0-1.68-.055-2.824-.16-1.2-.102-2.2-.148-3.02-.152-.097 0-.203.078-.304.234a.86.86 0 0 0-.156.484c-.008.473.093.72.308.719zM39.938 57.68l-7.46-16.852c-.247-.48-.396-1-.434-1.54a2.339 2.339 0 0 1 .992-1.952 5.08 5.08 0 0 1 2.707-.863c.168 0 .254-.238.254-.715 0-.48-.137-.723-.43-.723-1.14 0-2.46.055-3.95.152-1.42.11-2.65.164-3.698.16s-2.16-.058-3.282-.16a48.585 48.585 0 0 0-3.597-.152c-.27 0-.43.238-.43.723a.746.746 0 0 0 .18.496.52.52 0 0 0 .39.219c1.34.082 2.63.55 3.715 1.347.891.727 1.74 2 2.54 3.836l9.452 21.672z"/></g><path fill="#396" d="M59.289 71.016a.688.688 0 0 0 .621.434h5.629a.666.666 0 0 0 .664-.664.738.738 0 0 0-.062-.278l-13.746-30.84a8.433 8.433 0 0 0-1.77-2.515 6.967 6.967 0 0 0-2.73-1.555 14.6 14.6 0 0 0-4.348-.543c-1.72-.004-3.43.242-5.074.73a.669.669 0 0 0-.457.746l.789 4.778c.05.32.324.559.648.558a.834.834 0 0 0 .215-.043 8.658 8.658 0 0 1 2.766-.433 6.42 6.42 0 0 1 2.054.277c.5.16.953.434 1.328.8.363.38.652.817.864 1.294.234.508.484 1.09.75 1.727l.554 1.41-12.55 23.64a.672.672 0 0 0 .624.903h6.649a.662.662 0 0 0 .61-.398l.038-.075 8.45-15.617z"/><path fill="#900" d="M18.57 25.84c7.34-9.61 18.7-15.3 30.812-15.305 12.1-.04 23.5 5.55 30.906 15.121l8.758-5.887C79.666 7.27 64.946-.03 49.3.003A49.49 49.49 0 0 0 9.714 20.09z"/><path fill="#069" d="M85.574 34.785c1.91 4.67 2.89 9.67 2.89 14.711 0 21.5-17.5 39.2-38.968 39.211-21.5 0-39-17.7-38.961-39.211-.008-4.96.945-9.89 2.804-14.492l-8.972-5.828a49.033 49.033 0 0 0-4.368 20.32c0 27.3 22.2 49.7 49.496 49.746 27.3 0 49.5-22.4 49.504-49.746.008-7.14-1.54-14.2-4.535-20.695z"/></svg>