<svg xmlns="http://www.w3.org/2000/svg" width="50" height="50"><defs><linearGradient id="a" x1="91.252%" x2="18.396%" y1="78.586%" y2="20.938%"><stop offset="0%" stop-color="#F4E3CA"/><stop offset="100%" stop-color="#E9CC9D"/></linearGradient><linearGradient id="b" x1="91.252%" x2="18.396%" y1="78.586%" y2="20.938%"><stop offset="0%" stop-color="#F4E3CA"/><stop offset="100%" stop-color="#E9CC9D"/></linearGradient><linearGradient id="c" x1="91.252%" x2="18.396%" y1="78.586%" y2="20.938%"><stop offset="0%" stop-color="#F4E3CA"/><stop offset="100%" stop-color="#E9CC9D"/></linearGradient><linearGradient id="d" x1="91.252%" x2="18.396%" y1="78.586%" y2="20.937%"><stop offset="0%" stop-color="#F4E3CA"/><stop offset="100%" stop-color="#E9CC9D"/></linearGradient><linearGradient id="e" x1="91.252%" x2="18.396%" y1="78.586%" y2="20.937%"><stop offset="0%" stop-color="#F4E3CA"/><stop offset="100%" stop-color="#E9CC9D"/></linearGradient><linearGradient id="f" x1="91.252%" x2="18.396%" y1="78.586%" y2="20.937%"><stop offset="0%" stop-color="#F4E3CA"/><stop offset="100%" stop-color="#E9CC9D"/></linearGradient><linearGradient id="g" x1="91.252%" x2="18.396%" y1="78.586%" y2="20.938%"><stop offset="0%" stop-color="#F4E3CA"/><stop offset="100%" stop-color="#E9CC9D"/></linearGradient><linearGradient id="h" x1="91.252%" x2="18.396%" y1="78.586%" y2="20.938%"><stop offset="0%" stop-color="#F4E3CA"/><stop offset="100%" stop-color="#E9CC9D"/></linearGradient><linearGradient id="i" x1="91.252%" x2="18.396%" y1="78.586%" y2="20.938%"><stop offset="0%" stop-color="#F4E3CA"/><stop offset="100%" stop-color="#E9CC9D"/></linearGradient><linearGradient id="j" x1="25.901%" x2="78.681%" y1="14.621%" y2="85.445%"><stop offset="0%" stop-color="#006"/><stop offset="100%" stop-color="#00004F"/></linearGradient><linearGradient id="k" x1="53.425%" x2="49.355%" y1="103.287%" y2="-12.58%"><stop offset="0%" stop-color="#006"/><stop offset="100%" stop-color="#00004F"/></linearGradient><linearGradient id="l" x1="38.724%" x2="39.86%" y1="109.956%" y2="-4.226%"><stop offset="0%" stop-color="#006"/><stop offset="100%" stop-color="#00004F"/></linearGradient><linearGradient id="m" x1="61.506%" x2="26.642%" y1="105.424%" y2="4.847%"><stop offset="0%" stop-color="#D40000"/><stop offset="100%" stop-color="#570000"/></linearGradient><linearGradient id="n" x1="83.793%" x2="16.851%" y1="95.966%" y2="-.27%"><stop offset="0%" stop-color="#006"/><stop offset="100%" stop-color="#00004F"/></linearGradient><linearGradient id="o" x1="82.378%" x2="27.9%" y1="94.24%" y2="-2.503%"><stop offset="0%" stop-color="#006"/><stop offset="100%" stop-color="#00004F"/></linearGradient><linearGradient id="p" x1="88.706%" x2="13.861%" y1="93.708%" y2="12.144%"><stop offset="0%" stop-color="#006"/><stop offset="100%" stop-color="#00004F"/></linearGradient><linearGradient id="q" x1="93.056%" x2="10.841%" y1="68.234%" y2="9.218%"><stop offset="0%" stop-color="#006"/><stop offset="100%" stop-color="#00004F"/></linearGradient><linearGradient id="r" x1="47.293%" x2="27.569%" y1="97.686%" y2="-.501%"><stop offset="0%" stop-color="#006"/><stop offset="100%" stop-color="#00004F"/></linearGradient></defs><g fill="none" stroke="#000" stroke-width=".2" transform="translate(1 2)"><rect width="12.156" height="12.109" x="4.087" y="3.29" fill="#E7C78D" stroke-linecap="round" stroke-linejoin="round" rx="1.239" transform="rotate(-6.955 10.165 9.344)"/><rect width="12.156" height="12.109" x="18.433" y="3.579" fill="#E7C78D" stroke-linecap="round" stroke-linejoin="round" rx="1.239" transform="rotate(38.339 24.51 9.634)"/><rect width="12.156" height="12.109" x="33.31" y="3.096" fill="#E7C78D" stroke-linecap="round" stroke-linejoin="round" rx="1.239" transform="rotate(-66.447 39.388 9.15)"/><rect width="12.156" height="12.109" x=".947" y="17.008" fill="#E7C78D" stroke-linecap="round" stroke-linejoin="round" rx="1.239" transform="rotate(8.928 7.025 23.062)"/><rect width="12.156" height="12.109" x="15.534" y="17.684" fill="#E7C78D" stroke-linecap="round" stroke-linejoin="round" rx="1.239" transform="rotate(30.362 21.612 23.738)"/><rect width="12.156" height="12.109" x="30.122" y="16.138" fill="#E7C78D" stroke-linecap="round" stroke-linejoin="round" rx="1.239" transform="rotate(8.904 36.2 22.193)"/><rect width="12.156" height="12.109" x="5.681" y="31.209" fill="#E7C78D" stroke-linecap="round" stroke-linejoin="round" rx="1.239" transform="rotate(-32.281 11.758 37.263)"/><rect width="12.156" height="12.109" x="19.785" y="31.595" fill="#E7C78D" stroke-linecap="round" stroke-linejoin="round" rx="1.239" transform="rotate(-6.955 25.863 37.65)"/><rect width="12.156" height="12.109" x="32.731" y="30.339" fill="#E7C78D" stroke-linecap="round" stroke-linejoin="round" rx="1.239" transform="rotate(2.773 38.809 36.394)"/><rect width="12.156" height="12.109" x="4.176" y="2.222" fill="url(#a)" stroke-linecap="round" stroke-linejoin="round" rx="1.239" transform="rotate(-6.955 10.254 8.277)"/><rect width="12.156" height="12.109" x="18.522" y="2.512" fill="url(#b)" stroke-linecap="round" stroke-linejoin="round" rx="1.239" transform="rotate(38.339 24.6 8.567)"/><rect width="12.156" height="12.109" x="33.399" y="2.029" fill="url(#c)" stroke-linecap="round" stroke-linejoin="round" rx="1.239" transform="rotate(-66.447 39.477 8.083)"/><rect width="12.156" height="12.109" x="1.036" y="15.94" fill="url(#d)" stroke-linecap="round" stroke-linejoin="round" rx="1.239" transform="rotate(8.928 7.114 21.995)"/><rect width="12.156" height="12.109" x="15.623" y="16.616" fill="url(#e)" stroke-linecap="round" stroke-linejoin="round" rx="1.239" transform="rotate(30.362 21.701 22.67)"/><rect width="12.156" height="12.109" x="30.211" y="15.071" fill="url(#f)" stroke-linecap="round" stroke-linejoin="round" rx="1.239" transform="rotate(8.904 36.289 21.125)"/><rect width="12.156" height="12.109" x="5.77" y="30.141" fill="url(#g)" stroke-linecap="round" stroke-linejoin="round" rx="1.239" transform="rotate(-32.281 11.848 36.196)"/><rect width="12.156" height="12.109" x="19.875" y="30.528" fill="url(#h)" stroke-linecap="round" stroke-linejoin="round" rx="1.239" transform="rotate(-6.955 25.952 36.583)"/><rect width="12.156" height="12.109" x="32.82" y="29.272" fill="url(#i)" stroke-linecap="round" stroke-linejoin="round" rx="1.239" transform="rotate(2.773 38.898 35.327)"/><path fill="url(#j)" d="m39.996 39.455-3.739-.22a26.987 26.987 0 0 0-.311-2.066c-.168-.875-.237-1.584-.208-2.126.04-.735.167-1.393.381-1.973-.547-.216-.808-.567-.782-1.055.025-.464.16-.874.402-1.23l.18.01c.035.186.098.318.187.397.09.08.282.163.577.25.44.13.643.524.607 1.185-.009.167-.03.3-.061.397a2.352 2.352 0 0 1-.798.109 8.617 8.617 0 0 0-.245 1.691c-.043.804.163 1.78.62 2.93l.208.005c.673-1.197 1.291-2.716 1.856-4.557-.541-.26-.798-.635-.772-1.128.023-.424.158-.8.403-1.127l.18.011c.04.28.155.452.349.518l.415.128c.445.14.652.493.621 1.06a2.02 2.02 0 0 1-.088.522 2.327 2.327 0 0 1-.755.059c-.425 1.671-.992 3.188-1.701 4.55l2.127.126c.245-.737.87-1.798 1.875-3.183.256-.346.39-.645.404-.896a.511.511 0 0 0-.333-.539l-.085-.035c-.437-.193-.645-.497-.622-.912.025-.468.177-.882.456-1.241l.174.01c.018.239.123.403.315.493l.367.163c.415.188.609.538.581 1.05-.024.444-.262 1.01-.715 1.698a15.07 15.07 0 0 0-1.223 2.28 14.08 14.08 0 0 0-.847 2.646z"/><path fill="url(#k)" d="m7.91 36.96.17-.114c.23.357.43.549.6.576.17.027.46-.097.87-.37l1.903-1.273-.068-.124a.538.538 0 0 0-.221-.22.541.541 0 0 0-.269-.052c-.095.005-.577.061-1.446.168l-2.214.28-.888-1.486.17-.114c.324.378.688.575 1.09.591.404.016 1.212-.04 2.423-.166.443-.047.775-.026.995.064.032-.262.112-.499.24-.71.13-.21.411-.563.846-1.06.343-.393.546-.652.61-.778.064-.125.066-.238.006-.338-.056-.095-.176-.188-.359-.279-.176-.087-.295-.182-.357-.286a.497.497 0 0 1 .15-.684.562.562 0 0 1 .477-.066c.18.048.341.19.482.425.137.23.198.478.181.744a1.405 1.405 0 0 1-.207.684c-.122.19-.382.517-.78.98-.363.42-.598.712-.708.88a.968.968 0 0 0-.169.517c-.003.177.054.363.17.559.04.066.102.147.185.244l1.71-1.143c.41-.274.64-.498.69-.672.05-.174-.028-.448-.234-.82l.17-.114 1.504 2.516-.17.113c-.229-.354-.427-.543-.597-.569-.169-.025-.458.099-.868.373l-1.71 1.143c.03.093.065.174.106.243.129.215.269.359.42.43a.85.85 0 0 0 .507.063c.185-.03.54-.13 1.063-.298.563-.183.95-.292 1.163-.326a1.27 1.27 0 0 1 .676.094c.237.097.425.262.564.494.134.224.187.434.159.63a.607.607 0 0 1-.263.441.446.446 0 0 1-.354.074.448.448 0 0 1-.295-.225c-.058-.098-.088-.252-.09-.464-.002-.216-.031-.373-.09-.471-.056-.095-.156-.137-.297-.127-.142.01-.447.092-.916.245-.615.202-1.039.32-1.272.352a1.489 1.489 0 0 1-.705-.074 1.957 1.957 0 0 1-.175.609c-.091.191-.35.665-.776 1.42-.408.719-.638 1.221-.688 1.506-.05.285-.01.612.122.983l-.17.113-.888-1.486c.06-.088.369-.605.929-1.55l.924-1.558c.058-.095.108-.211.15-.348.043-.137.019-.282-.072-.434a1.815 1.815 0 0 0-.072-.109l-1.903 1.272c-.41.274-.64.498-.69.67-.051.173.025.444.23.814l-.17.114L7.91 36.96z"/><path fill="url(#l)" d="m30.022 9.523-1.376-1.141-4.84 5.363-.935-.775 4.84-5.364-.664-.551.668-.74 2.974 2.468-.667.74zM25.413 7.6c-.517.574-1.131.928-1.842 1.064-.71.135-1.423.044-2.139-.275l.246 3.114-1.197-.022-.453-5.55 1.2.017.095 1.162c.005.036.051.09.14.164.435.361.98.476 1.631.343.588-.116 1.06-.371 1.416-.766.276-.305.417-.695.423-1.169.009-.51-.159-.908-.502-1.193a1.405 1.405 0 0 0-.703-.333.721.721 0 0 0-.67.238c-.25.277-.189.57.183.879.085.07.186.133.304.187l-.626.694c-.17-.066-.368-.192-.595-.38-.36-.3-.547-.657-.558-1.07-.013-.383.122-.732.406-1.046.364-.404.839-.587 1.424-.55.549.03 1.055.238 1.52.623.683.567 1.041 1.212 1.076 1.936.026.685-.234 1.33-.779 1.933z"/><path fill="url(#m)" d="m28.017 22.317-.116.188a.93.93 0 0 0-.474-.16c-.146-.001-.321.057-.526.173-.137.08-.413.3-.826.662l-5.237 4.432-.193-.12 1.216-5.33-4.189 3.494-.174-.107 1.572-6.928c.118-.517.181-.826.19-.928a.77.77 0 0 0-.086-.45c-.072-.13-.204-.255-.393-.372l.115-.188 2.423 1.496-.116.188-.116-.071c-.17-.106-.325-.146-.466-.12a.448.448 0 0 0-.316.212c-.073.118-.17.435-.29.95l-1.089 4.666 3.107-2.62.163-.699.13-.558c.036-.211.052-.407.048-.588a.712.712 0 0 0-.055-.258 1.007 1.007 0 0 0-.16-.281 1.174 1.174 0 0 0-.27-.21l.115-.188 2.548 1.574-.116.188-.173-.107c-.18-.111-.338-.152-.471-.122a.514.514 0 0 0-.329.253c-.106.173-.219.52-.338 1.04l-1.047 4.522 3.577-3.03c.4-.333.65-.58.75-.743a.445.445 0 0 0 .064-.262.441.441 0 0 0-.088-.251 1.58 1.58 0 0 0-.434-.367l.115-.188 1.955 1.208z"/><path fill="url(#n)" d="m40.503 17.54-.65.72-.636-.746.636-.724.65.75zm.65 1.332-.653.707-.645-.749.636-.705.661.747zm-1.307.158-.645.716-.648-.737.634-.719.659.74zm.024 5.19-.392-.123a1.4 1.4 0 0 1-.493-.26 1.77 1.77 0 0 1-.362-.447c-.185.102-.34.16-.466.176-.177.02-.415-.017-.712-.11l-.61-.193a2.691 2.691 0 0 1-.548.96 2.427 2.427 0 0 1-1.193.759c-.588.165-1.248.132-1.978-.099-.662-.208-1.125-.502-1.389-.881-.289-.417-.336-.93-.14-1.54a5.19 5.19 0 0 1 .425-.968c.177-.316.38-.626.609-.93.139-.184.367-.462.683-.836l.165.166c-.409.48-.7.867-.877 1.162a4.075 4.075 0 0 0-.392.84c-.153.475-.122.883.091 1.222.214.34.591.596 1.134.767.634.2 1.243.25 1.824.151.724-.122 1.177-.47 1.36-1.04a3.36 3.36 0 0 0 .01-2.062l.79-1.05c.065.366.088.68.07.94-.026.368-.134.847-.323 1.438l.61.192c.314.1.555.114.723.045.146-.06.251-.19.315-.389.036-.111.066-.225.09-.342.025-.117.048-.246.067-.387l.31-.283-.1.583c-.048.399-.037.7.033.904.076.227.238.38.486.458a.217.217 0 0 0 .203-.028.361.361 0 0 0 .13-.19c.06-.193.075-.414.043-.665a2.698 2.698 0 0 0-.148-.579l.534-.522c.06.344.09.575.089.693-.005.265-.081.627-.229 1.088l-.442 1.38z"/><path fill="url(#o)" d="m10.614 25.132.276.057c-.133.627-.362 1.056-.685 1.287a1.317 1.317 0 0 1-1.077.224 1.734 1.734 0 0 1-.867-.476c-.257-.25-.415-.81-.476-1.681l-.169-2.448-3.14 3.55-1.449-.302 4.448-4.807c-.023-.747-.121-1.317-.294-1.71-.173-.392-.44-.626-.804-.701a1.219 1.219 0 0 0-.818.1c-.254.128-.432.37-.534.725l-.276-.057c.14-.58.39-1.017.75-1.308.361-.292.756-.393 1.185-.304.276.057.52.2.73.428.21.229.361.575.452 1.04.09.464.186 1.407.284 2.829l.144 2.001c.053.828.174 1.4.36 1.714.187.314.45.507.787.577.572.119.963-.127 1.173-.738z"/><path fill="url(#p)" d="M25.884 41.356c-.01-.05-.138-1.362-.285-2.917a539.717 539.717 0 0 0-.29-3.02l-.023-.192-.108.208c-.23.445-.494.754-.642.754-.057 0-.113-.016-.124-.036-.012-.019.044-.185.124-.368.479-1.095.835-2.511.835-3.325 0-.294.035-.493.085-.493.094 0 1.048.455 1.048.5 0 .029-.068.113-.15.188-.135.12-.165.184-.282.589-.071.25-.123.46-.115.47.008.008.59-.047 1.29-.122l1.277-.138.28-.305c.154-.168.291-.306.305-.306.043 0 .653.5.768.63.06.066.1.144.092.173-.012.038-.293.082-1.007.158-.544.058-.996.112-1.003.12-.007.008.019.337.058.731.039.395.07.751.071.793.001.069.023.073.256.051l.255-.024.248-.287c.183-.21.263-.278.302-.252.155.1.81.674.82.718.015.065-.039.075-1.03.18-.436.046-.795.087-.798.09-.006.007.131 1.406.147 1.497.007.044.06.056.217.05.205-.01.21-.012.475-.307.148-.164.292-.298.321-.298.062 0 .865.702.865.755a.07.07 0 0 1-.029.054 14.4 14.4 0 0 1-.896.107c-.478.05-.879.1-.891.114-.028.03.126 1.661.16 1.697.014.014.183.007.376-.015l.351-.042.305-.32c.167-.175.325-.32.351-.32.058 0 .952.748.952.797 0 .02-.014.045-.032.056-.018.012-.963.12-2.101.241s-2.078.23-2.088.24c-.01.011 0 .195.023.409l.041.388-.117.108c-.105.097-.54.31-.633.31-.02 0-.045-.04-.054-.09zm1.332-1.602c.277-.03.51-.063.519-.071.016-.018-.139-1.675-.16-1.699-.02-.023-1.097.084-1.14.113-.025.017.107 1.63.14 1.706.008.018.132.009.641-.049zm-.146-2.134c.239-.025.442-.053.451-.062.025-.025-.113-1.504-.143-1.535-.029-.031-1.108.083-1.143.12-.012.014.008.33.045.703.038.372.07.719.07.77.003.085.016.091.145.07a19.2 19.2 0 0 1 .575-.066zm-.283-1.951c.228-.023.45-.05.492-.058l.077-.017-.076-.798c-.07-.75-.08-.798-.152-.797-.192.002-1.055.12-1.08.148-.015.017.004.353.043.747.04.395.072.74.072.767.001.06.091.062.624.008zm-4.865 4.91c-.192-.237-.25-.337-.25-.434 0-.125.001-.126.274-.174.412-.073 1.475-.366 2.216-.611.363-.12.673-.21.69-.2.015.012.029.06.028.107 0 .07-.087.138-.443.343l-1.32.767c-.48.281-.891.51-.91.51-.02 0-.148-.138-.285-.308zm-.023-2.16c-.104-.218-.19-.422-.19-.453 0-.031.045-.068.099-.082.14-.037.444-.352.641-.665.183-.29.677-1.342.646-1.375-.01-.01-.076.011-.145.05-.243.132-1.255.573-1.316.573-.06 0-.49-.622-.49-.71 0-.025.082-.089.182-.142.168-.09.194-.125.343-.465.31-.705.582-1.578.762-2.456.057-.276.1-.408.136-.408.085 0 .8.533.801.597 0 .033-.064.109-.144.168-.116.087-.169.172-.268.438a16.091 16.091 0 0 1-.808 1.734 7.124 7.124 0 0 0-.2.368c.004 0 .288-.044.63-.099.343-.054.637-.099.654-.1.068 0 .516-1.125.516-1.295 0-.15.127-.096.472.197a5.2 5.2 0 0 1 .359.32c0 .008-.075.092-.167.187-.108.112-.323.46-.609.988-.469.866-.828 1.47-1.098 1.844-.09.126-.165.234-.165.24 0 .007.404-.046.897-.118s.96-.131 1.038-.132c.136 0 .142.005.142.136 0 .132-.007.138-.218.2-.543.158-1.534.517-1.876.68a4.36 4.36 0 0 1-.406.178c-.016 0-.114-.179-.218-.397zm5.571-5a.64.64 0 0 1-.099-.229 2.091 2.091 0 0 0-.563-1.042c-.143-.148-.19-.227-.19-.314 0-.112.004-.115.15-.095.26.037.751.321 1.029.596.254.252.255.253.254.47 0 .251-.106.474-.285.598-.134.093-.218.098-.296.016z"/><path fill="url(#q)" d="M9.066 12.882c-.091-.043-.238-.15-.577-.422-.25-.2-.463-.376-.471-.389-.009-.013-.01-.03-.005-.038.006-.008.11-.077.231-.153 1.237-.782 2.269-1.688 2.982-2.62.87-1.135 1.553-2.526 1.871-3.81.034-.136.069-.27.078-.296l.016-.048.496.242c.273.133.502.25.508.262.022.037-.183.753-.344 1.2a10.98 10.98 0 0 1-1.493 2.801 14.426 14.426 0 0 1-2.821 2.805l-.217.164.002.09c0 .05-.006.123-.015.162-.014.06-.026.074-.069.09-.041.014-.074.006-.172-.04zM7.93 8.829c-.82-.246-1.39-.382-1.945-.465a.895.895 0 0 1-.211-.047c-.01-.028.328-1.09.349-1.098.025-.009 1.153.205 1.391.264.273.067 1.123.304 1.139.317.013.012-.342 1.08-.37 1.116-.007.009-.166-.03-.353-.087zm.503-2.792a15.79 15.79 0 0 0-1.293-.323c-.658-.132-.937-.198-.936-.221.002-.048.244-1.03.26-1.051.01-.016.031-.02.066-.013l.614.124c.31.063.658.138.773.166.219.052.909.234 1.031.27l.071.022-.012.054a22.257 22.257 0 0 1-.295 1.034 1.336 1.336 0 0 1-.28-.062z"/><path fill="url(#r)" d="M37.814 2.786c.09.054.309.24.657.559.113.105.221.188.323.249.294.176.75.43 1.368.764l.762.332c.486.291.677.511.573.661-.04.059-.159.144-.356.256l-.148.104-1.439 1.415c-.072.068-.068.171.013.312.076.147.09.256.04.327-.112.163-.48.057-1.104-.316l-.16-.082-.9-.484-.721-.39c-.036-.022-.132.03-.288.158l-.208.152-.134.03-.07-.029c-.138-.082.057-.54.584-1.375a.781.781 0 0 1 .052-.093l.608-1.043c.168-.267.26-.437.277-.51.081-.264.016-.524-.197-.78-.126-.15-.172-.26-.14-.332.082-.117.284-.079.608.115zm-.912 3.318 1.469.838c.28.122.51.121.688-.002.138-.101.438-.473.901-1.116.144-.208.271-.385.38-.53.083-.108.103-.197.06-.27a.357.357 0 0 0-.113-.094l-1.884-1.102-1.501 2.276zm-.467 1.61.414.303c.505.349.811.556.92.62l1.016.61 1.047.6.018.01.442.154.009.005c.401.24.557.426.467.556-.036.052-.139.115-.309.188a.46.46 0 0 0-.112.07c-.426.407-.654.625-.682.654-.017.036.003.1.06.189.037.068.046.129.027.181a.21.21 0 0 1-.025.054c-.027.04-.079.059-.155.059-.122-.008-.493-.19-1.113-.543l-1.89-1.131c-.191-.115-.35-.081-.476.1l-.331.478c-.185.267-.077.52.325.761l1.03.59.018.01c.51.306.785.466.825.48a.72.72 0 0 0 .115.056l.73.23c.041.016.08.034.116.055.485.291.66.534.526.73-.109.156-.292.156-.55.002l-2.912-1.73-.198-.12c-.515-.308-.776-.611-.782-.91-.004-.177.068-.373.217-.587l.324-.468c.126-.182.093-.373-.1-.571l-.198-.23a.107.107 0 0 1 .007-.12c.067-.097.253-.059.557.114l.063.038.717.636.1.06c.431.258 1.09.643 1.974 1.155.276.165.508.166.698.004.072-.068.155-.17.25-.306.13-.188.196-.296.198-.323.016-.073-.017-.134-.101-.184l-2.16-1.238a7.614 7.614 0 0 0-.494-.186.723.723 0 0 1-.157-.067c-.144-.087-.308-.29-.493-.612l-.12-.266c-.017-.074-.014-.128.008-.16.027-.04.074-.04.14 0zm5.649.831c-.518.748-.927 1.147-1.225 1.198h-.14l-.027-.017c-.108-.064.036-.388.43-.97l1.88-2.71.153-.24.007-.01c.142-.218.1-.556-.125-1.013-.162-.318-.232-.517-.211-.596.054-.078.174-.061.36.05.257.155.527.427.809.816.142.187.216.332.22.436.004.067-.028.144-.097.231l-.527.65-1.277 1.844c.137.082.42.187.85.316.177.05.319.108.427.173.462.276.63.506.503.688-.121.175-.491.078-1.109-.292l-.73-.452-.171-.102z"/></g></svg>