<svg xmlns="http://www.w3.org/2000/svg" width="103" height="35" viewBox="0 0 103 35">
	<path d="M98.0195 16.3872c.7488 0 1.392.192 1.9296.576.5375.3648.9791.8448 1.3247 1.44.3456.576.5952 1.2192.7488 1.9296.1728.6912.2592 1.3632.2592 2.016 0 .8256-.1152 1.7088-.3456 2.6496-.2304.9408-.5664 1.872-1.008 2.7936s-.9791 1.8048-1.6127 2.6496c-.6144.8448-1.3152 1.5936-2.1024 2.2464-.7872.6528-1.6608 1.1712-2.6208 1.5552-.9408.384-1.9392.576-2.9952.576-.4992 0-1.008-.048-1.5264-.144-.5376-.096-1.104-.2304-1.6992-.4032l-.0576-.72c.9216.1152 1.728.1728 2.4192.1728 1.2288 0 2.3616-.2496 3.3984-.7488 1.056-.48 1.9968-1.1328 2.8224-1.9584.8256-.8256 1.5168-1.7856 2.0736-2.88a12.5298 12.5298 0 0 0 1.1808-3.3984c0-.1152-.0096-.2016-.0288-.2592 0-.0768-.0384-.1344-.1152-.1728-.5184.1152-1.0176.1728-1.4976.1728s-.9408-.0576-1.3824-.1728c-.4416-.1152-.8352-.288-1.1808-.5184-.3456-.2496-.624-.576-.8352-.9792-.192-.4032-.288-.8928-.288-1.4688 0-.576.048-1.152.144-1.728.096-.5952.2592-1.1232.4896-1.584.2496-.48.576-.8736.9792-1.1808.4032-.3072.912-.4608 1.5264-.4608Zm-55.234 13.248c.384 0 .6912.1248.9216.3744.2496.2496.3744.576.3744.9792s-.1248.72-.3744.9504c-.2304.2496-.5376.3744-.9216.3744-.4032 0-.7296-.1248-.9792-.3744-.2496-.2304-.3744-.5472-.3744-.9504s.1248-.7296.3744-.9792c.2496-.2496.576-.3744.9792-.3744Zm-1.872-2.8224c.4032 0 .72.1248.9504.3744.2496.2496.3744.576.3744.9792 0 .3528-.0955.6395-.2866.86l-.0878.0904c-.2304.2496-.5472.3744-.9504.3744-.384 0-.7008-.1248-.9504-.3744-.2496-.2304-.3744-.5472-.3744-.9504s.1248-.7296.3744-.9792c.2496-.2496.5664-.3744.9504-.3744Zm4.0032 0c.4032 0 .72.1248.9504.3744.2496.2496.3744.576.3744.9792s-.1248.72-.3744.9504c-.2304.2496-.5472.3744-.9504.3744-.384 0-.7008-.1248-.9504-.3744-.2496-.2304-.3744-.5472-.3744-.9504s.1248-.7296.3744-.9792c.2496-.2496.5664-.3744.9504-.3744Zm39.721-.4608c.384 0 .7009.1248.9505.3744.2496.2496.3744.576.3744.9792 0 .384-.1248.6912-.3744.9216-.2496.2496-.5664.3744-.9504.3744s-.7008-.1248-.9504-.3744c-.2496-.2304-.3744-.5376-.3744-.9216 0-.4032.1248-.7296.3744-.9792.2496-.2496.5664-.3744.9504-.3744Zm-75.1499 0c.384 0 .7008.1248.9504.3744.2496.2496.3744.576.3744.9792 0 .384-.1248.6912-.3744.9216-.2496.2496-.5664.3744-.9504.3744s-.7008-.1248-.9504-.3744c-.2496-.2304-.3744-.5376-.3744-.9216 0-.4032.1248-.7296.3744-.9792.2496-.2496.5664-.3744.9504-.3744Zm78.0876-.0864c.384 0 .7008.1248.9504.3744.2496.2496.3744.576.3744.9792 0 .384-.1248.6912-.3744.9216-.2496.2496-.5664.3744-.9504.3744s-.7008-.1248-.9504-.3744c-.2496-.2304-.3744-.5376-.3744-.9216 0-.4032.1248-.7296.3744-.9792.2496-.2496.5664-.3744.9504-.3744Zm-75.15 0c.384 0 .7008.1248.9504.3744.2496.2496.3744.576.3744.9792 0 .384-.1248.6912-.3744.9216-.2496.2496-.5664.3744-.9504.3744s-.7008-.1248-.9504-.3744c-.2496-.2304-.3744-.5376-.3744-.9216 0-.4032.1248-.7296.3744-.9792.2496-.2496.5664-.3744.9504-.3744Zm40.1553-.9216c.384 0 .7008.1248.9504.3744.2496.2688.3744.5952.3744.9792 0 .4032-.1248.72-.3744.9504-.2496.2496-.5664.3744-.9504.3744-.4032 0-.7296-.1248-.9792-.3744-.2304-.2304-.3456-.5472-.3456-.9504 0-.384.1152-.7104.3456-.9792.2496-.2496.576-.3744.9792-.3744Zm-3.1104 0c.4032 0 .7296.1248.9792.3744.2496.2496.3744.576.3744.9792 0 .384-.1248.7008-.3744.9504-.2496.2496-.576.3744-.9792.3744-.384 0-.7008-.1248-.9504-.3744-.2496-.2496-.3744-.5664-.3744-.9504 0-.4032.1248-.7296.3744-.9792.2496-.2496.5664-.3744.9504-.3744Zm-13.4834 0c.384 0 .7009.1248.9505.3744.2496.2688.3744.5952.3744.9792 0 .4032-.1248.72-.3744.9504-.2496.2496-.5664.3744-.9504.3744-.4032 0-.7296-.1248-.9793-.3744-.2304-.2304-.3456-.5472-.3456-.9504 0-.384.1152-.7104.3456-.9792.2497-.2496.576-.3744.9793-.3744Zm-3.1103 0c.4031 0 .7295.1248.9791.3744.2497.2496.3745.576.3745.9792 0 .384-.1249.7008-.3745.9504-.2495.2496-.576.3744-.9791.3744-.384 0-.7009-.1248-.9505-.3744-.2496-.2496-.3744-.5664-.3744-.9504 0-.4032.1248-.7296.3744-.9792.2496-.2496.5664-.3744.9505-.3744ZM68.8572 0c.4608 0 .864.1824 1.2096.5472s.5184.7776.5184 1.2384c0 .4992-.192.912-.576 1.2384-.3648.3264-.7776.4896-1.2384.4896-.0768 0-.1824-.0384-.3168-.1152l-.1696-.128-.1735-.1422-.4921-.421c-.3413 0-.7661.1441-1.2743.4324l-.1945.1148c-.5952.3456-1.2288.8064-1.9008 1.3824-.6528.5568-1.3152 1.1904-1.9872 1.9008-.6528.7104-1.248 1.4304-1.7856 2.16-.5184.7296-.9504 1.4304-1.296 2.1024-.3264.6528-.4896 1.2192-.4896 1.6992 0 .4416.1056.8448.3168 1.2096.2112.3456.48.6432.8064.8928a5.0987 5.0987 0 0 0 1.0944.6048c.4032.1344.7872.2016 1.152.2016h15.9552c.384 0 .768.144 1.152.432.384.2688.72.5952 1.008.9792.3072.384.5568.7872.7488 1.2096.192.4224.288.7776.288 1.0656 0 1.0752-.2976 2.1024-.8928 3.0816.2496.096.4896.144.72.144h5.0382c.3072 0 .624-.048.9504-.144.3456-.096.6624-.2304.9504-.4032.288-.192.5376-.4128.7488-.6624.2112-.2688.3456-.5664.4032-.8928-.0576-.672-.3456-1.2384-.864-1.6992-.0576-.0576-.144-.1152-.2592-.1728a4.5274 4.5274 0 0 0-.3168-.2304 4.7305 4.7305 0 0 1-.3168-.288c-.0768-.096-.1152-.192-.1152-.288 0-.072.0108-.1656.0324-.2808l.1404-.6984c.0384-.2112.0768-.3936.1152-.5472l.0645-.1797c.03-.076.0565-.1313.0795-.1659.0768-.1728.192-.2592.3456-.2592.3072.1152.6144.3168.9216.6048.3072.288.5856.6144.8352.9792.2496.3456.4512.7008.6048 1.0656.1536.3648.2304.672.2304.9216-.1536 1.0368-.4704 2.0352-.9504 2.9952-.4608.96-1.152 1.7088-2.0736 2.2464-.2688.1536-.7104.2784-1.3248.3744l-.2628.027-.3276.0234-.3924.0198-.4572.0162-.6375.0152-1.1175.0136h-2.0448c-.9408 0-1.7856-.1824-2.5344-.5472-.4992.3456-1.056.624-1.6704.8352-.6144.2112-1.2576.3168-1.9296.3168a4.9908 4.9908 0 0 1-.9216-.0864c-.288-.0384-.5856-.2112-.8928-.5184H54.774l-.001-.0034-.1645-.0024c-.8968-.0345-1.6304-.2246-2.2006-.5702-.6336-.384-1.1136-1.0176-1.44-1.9008-.3264.1728-.6432.4032-.9504.6912l-.4392.4032-.4536.4032a4.8137 4.8137 0 0 1-.9504.6912 2.257 2.257 0 0 1-.8956.2775l-.0004.0105h-.7744l-.0009-.0034-.1632-.0024c-.8969-.0345-1.6304-.2246-2.2007-.5702-.6336-.384-1.1136-1.0176-1.44-1.9008-.3264.1728-.6432.4032-.9504.6912l-.4392.4032-.4536.4032a4.8137 4.8137 0 0 1-.9504.6912 2.2598 2.2598 0 0 1-.9517.282l-.0005.006h-.7182l-.0001-.0024-.2202-.0034c-.8969-.0345-1.6304-.2246-2.2007-.5702-.6336-.384-1.1136-1.0176-1.44-1.9008-.3263.1728-.6431.4032-.9504.6912a37.488 37.488 0 0 1-.8927.8064 4.8128 4.8128 0 0 1-.9352.6827v.2965a2.0988 2.0988 0 0 1-.3455.0288h-.3168a6.8296 6.8296 0 0 1-.4884-.0266l-.535-.0022-.0008-.0714c-.5451-.1016-1.0294-.2794-1.4527-.5334-.6528-.4224-1.0944-.9984-1.3248-1.728l-.127.0047-.2961.0247-.268.0282c-.3456.0192-.72.048-1.1232.0864l-1.8144.0864c-.1345 0-.2593.0096-.3744.0288a.7704.7704 0 0 0-.288.0576c-.4992.5568-1.0272.9888-1.584 1.296-.5568.3072-1.0848.4608-1.584.4608-.3072 0-.6144-.048-.9216-.144-.288-.1152-.5569-.2784-.8065-.4896-.2304-.2304-.4224-.5088-.576-.8352-.1344-.3456-.2016-.7488-.2016-1.2096 0-.8064.1824-1.4208.5472-1.8432.3648-.4224.8448-.6336 1.44-.6336a.9835.9835 0 0 1 .256.1152l.5217.3744c.1536.096.336.1824.5472.2592.2111.0768.4703.1152.7776.1152h.4032a7.3215 7.3215 0 0 1 .6623-.0288l.6337-.0576c.192-.0192.3167-.048.3743-.0864-.6912-.6144-1.2672-1.2672-1.728-1.9584-.4415-.7104-.7967-1.4304-1.0655-2.16-.2689-.7296-.4609-1.4496-.576-2.16-.096-.7104-.144-1.3824-.144-2.016l.0063-.3616.0192-.432a32.477 32.477 0 0 1 .032-.5024c.0385-.5568.1057-1.1328.2017-1.728a21.3128 21.3128 0 0 1 .432-1.8432c.1728-.6336.384-1.2.6335-1.6992.2496-.4992.5472-.9024.8928-1.2096.3457-.3264.7489-.4896 1.2096-.4896.2112 0 .4225.1152.6336.3456.2112.2112.3168.5088.3168.8928 0 .2112-.1151.48-.3455.8064l-.272.387-.3087.424c-.0545.0737-.1105.149-.1682.2258-.288.3648-.576.7584-.864 1.1808-.288.4032-.5088.8064-.6623 1.2096-.1536.4416-.2592.8736-.3168 1.296a9.5824 9.5824 0 0 0-.0864 1.296c0 .9216.144 1.8144.432 2.6784.3072.864.7295 1.6512 1.2672 2.3616.5568.6912 1.2288 1.2864 2.016 1.7856.7872.48 1.6703.8064 2.6495.9792.288.0576.6432.0864 1.0657.0864h.8927c.2496.2112.4128.432.4896.6624.0769.2304.1152.4704.1152.72s-.0287.4992-.0863.7488c-.0577.2496-.1345.48-.2305.6912-.192.0384-.336.0576-.432.0576.1152.0576.2496.096.4032.1152l.1574-.0006.0002-.057c1.0368 0 2.1216-.624 3.2543-1.872l.8544-.7936.5039-.4506.192-.1638.152-.1229.1121-.0819c.1536-.096.3168-.144.4896-.144.2689 0 .4609.096.576.288.1153.1728.1729.3648.1729.576 0 .1584-.0217.3114-.0648.459l-.0504.1458c-.0577.1728-.1153.2976-.1729.3744.2497.7104.672 1.2 1.2673 1.4688.3597.1649.7954.2654 1.3072.3016.9553-.0969 1.9505-.7162 2.9857-1.8568l.8544-.7936.5039-.4506.192-.1638.152-.1229.1121-.0819c.1536-.096.3168-.144.4896-.144.2688 0 .4608.096.576.288.1152.1728.1728.3648.1728.576 0 .1584-.0216.3114-.0648.459l-.0504.1458c-.0576.1728-.1152.2976-.1728.3744.2496.7104.672 1.2 1.2672 1.4688.3512.161.7748.2606 1.271.2989.9492-.1028 1.9378-.7215 2.9658-1.8541l.7035-.6554.4228-.384.3329-.2918.172-.1434.1321-.1024a1.4662 1.4662 0 0 1 .0511-.0358c.1536-.096.3168-.144.4896-.144.2688 0 .4608.096.576.288.1152.1728.1728.3648.1728.576 0 .1584-.0216.3114-.0648.459l-.0504.1458c-.0576.1728-.1152.2976-.1728.3744.2496.7104.672 1.2 1.2672 1.4688.4032.1848.902.2888 1.4962.3118l.2605.005h20.3086c.8064-.1344 1.4304-.288 1.872-.4608.4416-.192.768-.3744.9792-.5472.2304-.192.3648-.3648.4032-.5184.0576-.1728.0864-.3072.0864-.4032 0-.4224-.1056-.7872-.3168-1.0944-.192-.3072-.4224-.5664-.6912-.7776-.2688-.2304-.5376-.4032-.8064-.5184l-.4216-.1763-.212-.0829H59.8428c-.3264 0-.6528-.1248-.9792-.3744-.3264-.2496-.624-.5568-.8928-.9216a5.9007 5.9007 0 0 1-.6624-1.2384c-.1728-.4416-.2592-.864-.2592-1.2672 0-.6912.192-1.5168.576-2.4768.384-.96.8928-1.9488 1.5264-2.9664.6336-1.0368 1.3536-2.064 2.16-3.0816.8256-1.0176 1.6704-1.92 2.5344-2.7072.8832-.8064 1.7568-1.4592 2.6208-1.9584C67.3308.2496 68.1276 0 68.8572 0ZM10.9278 22.32c.3072 0 .624-.048.9504-.144.3456-.096.6624-.2304.9504-.4032.288-.192.5376-.4128.7488-.6624.2112-.2688.3456-.5664.4032-.8928-.0576-.672-.3456-1.2384-.864-1.6992-.0576-.0576-.144-.1152-.2592-.1728a4.5274 4.5274 0 0 0-.3168-.2304 4.7305 4.7305 0 0 1-.3168-.288c-.0768-.096-.1152-.192-.1152-.288 0-.072.0108-.1656.0324-.2808l.1404-.6984c.0384-.2112.0768-.3936.1152-.5472l.0645-.1797c.03-.076.0565-.1313.0795-.1659.0768-.1728.192-.2592.3456-.2592.3072.1152.6144.3168.9216.6048.3072.288.5856.6144.8352.9792.2496.3456.4512.7008.6048 1.0656.1536.3648.2304.672.2304.9216-.1536 1.0368-.4704 2.0352-.9504 2.9952-.4608.96-1.152 1.7088-2.0736 2.2464-.2688.1536-.7104.2784-1.3248.3744l-.2628.027-.3276.0234-.3924.0198-.4572.0162-.6231.015-.7043.0095c-.124.0011-.2516.002-.3825.0027l-.0019.0016H6.5088c-.2304.096-.4896.144-.7776.144-.3072 0-.5568-.0288-.7488-.0864a8.7219 8.7219 0 0 0-.9792-.1728c-.3072-.0576-.5856-.144-.8352-.2592-.2496-.1152-.4512-.2784-.6048-.4896-.1536-.2112-.2304-.5376-.2304-.9792 0-.2112.0096-.4032.0288-.576.0192-.1728.0864-.384.2016-.6336V20.88c0-2.496-.096-5.0592-.288-7.6896l-.5472-7.632c-.0384-.2304-.1056-.4128-.2016-.5472a1.8368 1.8368 0 0 0-.2304-.2944l-.144-.1376a5.2506 5.2506 0 0 0-.3072-.2816l-.1824-.1504c-.192-.1536-.4032-.3456-.6336-.576L0 3.5136V3.456c.1728-.3456.3264-.672.4608-.9792.1344-.3264.2784-.6048.432-.8352.1536-.2496.3168-.4416.4896-.576.192-.1536.4224-.2304.6912-.2304.3456 0 .6144.1344.8064.4032.2112.2688.3648.5856.4608.9504.096.3648.1632.7488.2016 1.152.0307.3072.0492.5714.0553.7926l.0047.3388.0408.7154.036.9405.0072.2367.0948 1.766.6252 12.3172c.0192.288.096.5376.2304.7488.1344.2112.2976.4032.4896.576.2112.1536.432.2784.6624.3744.2304.096.4512.1536.6624.1728h4.4766Zm87.034-3.312c-.3647 0-.7391.1056-1.1231.3168-.384.2112-.624.5856-.72 1.1232.0192.5568.24.96.6624 1.2096.4416.2304.9216.3456 1.44.3456.4608 0 .8352-.0288 1.1232-.0864.288-.0576.5088-.1248.6624-.2016.1728-.096.2784-.192.3167-.288.0576-.1152.0864-.2208.0864-.3168 0-.3072-.0768-.5856-.2303-.8352-.1536-.2688-.3456-.4896-.576-.6624a2.3669 2.3669 0 0 0-.6083-.3686l-.1693-.0634c-.288-.1152-.576-.1728-.864-.1728Z"/>
</svg>