<svg xmlns="http://www.w3.org/2000/svg" width="146" height="29" fill="none"><path fill="#000078" d="M28.633 1v.56c-.535 0-.97.096-1.302.288-.334.192-.652.55-.955 1.076-.202.353-.52 1.197-.954 2.53l-5.727 16.559h-.606L14.408 8.878 9.757 22.013H9.21L3.106 4.954c-.455-1.273-.743-2.025-.864-2.257a1.934 1.934 0 0 0-.833-.849C1.066 1.656.596 1.56 0 1.56V1h7.605v.56h-.363c-.536 0-.945.122-1.227.364-.283.242-.425.535-.425.879 0 .353.223 1.166.667 2.439l4.045 11.529 3.409-9.802-1.091-3.106a7.498 7.498 0 0 0-.712-1.333 1.844 1.844 0 0 0-.485-.485 2.724 2.724 0 0 0-.757-.394c-.192-.06-.495-.09-.91-.09V1h8v.56h-.546c-.565 0-.98.122-1.242.364-.263.242-.394.57-.394.985 0 .515.227 1.414.682 2.696l3.939 11.166 3.909-11.317c.444-1.252.666-2.121.666-2.606 0-.232-.076-.45-.227-.651a1.123 1.123 0 0 0-.546-.424c-.383-.142-.883-.213-1.5-.213V1h6.136Zm4.757-1c.425 0 .783.151 1.076.454.303.293.455.652.455 1.076 0 .424-.152.788-.455 1.09a1.438 1.438 0 0 1-1.075.455c-.425 0-.788-.151-1.091-.454a1.488 1.488 0 0 1-.455-1.09c0-.425.147-.784.44-1.077A1.505 1.505 0 0 1 33.39 0Zm1.258 7.257v11.15c0 .869.06 1.45.182 1.742.131.283.318.495.56.637.253.141.707.212 1.364.212v.545h-6.742v-.545c.677 0 1.131-.066 1.363-.197.233-.131.415-.349.546-.652.141-.303.212-.883.212-1.742V13.06c0-1.505-.045-2.48-.136-2.924-.071-.323-.182-.545-.334-.666-.151-.132-.358-.197-.62-.197-.284 0-.627.076-1.031.227l-.212-.545 4.181-1.697h.667ZM42.602 0v13.817l3.53-3.227c.747-.687 1.181-1.121 1.303-1.303a.652.652 0 0 0 .12-.364.645.645 0 0 0-.257-.515c-.162-.151-.434-.237-.818-.257v-.485h6.03v.485c-.828.02-1.52.146-2.076.378-.545.233-1.146.647-1.803 1.243l-3.56 3.287 3.56 4.5c.99 1.242 1.657 2.03 2 2.363.485.475.91.783 1.273.924.252.101.691.152 1.318.152v.545H46.48v-.545c.384-.01.641-.066.773-.167a.547.547 0 0 0 .212-.454c0-.233-.202-.606-.606-1.121l-4.257-5.44v4.606c0 .9.06 1.49.181 1.773.132.283.313.485.546.606.232.121.737.187 1.515.197v.545h-7.06v-.545c.707 0 1.237-.086 1.59-.258.213-.11.374-.282.485-.515.152-.333.228-.909.228-1.727V5.863c0-1.606-.036-2.586-.106-2.94-.071-.363-.187-.61-.349-.741-.161-.142-.373-.213-.636-.213-.212 0-.53.086-.955.258l-.257-.53L41.904 0h.698ZM57.54 0c.424 0 .782.151 1.075.454.303.293.455.652.455 1.076 0 .424-.152.788-.455 1.09a1.438 1.438 0 0 1-1.076.455c-.424 0-.787-.151-1.09-.454a1.488 1.488 0 0 1-.455-1.09c0-.425.147-.784.44-1.077A1.505 1.505 0 0 1 57.538 0Zm1.257 7.257v11.15c0 .869.06 1.45.182 1.742.131.283.318.495.56.637.253.141.707.212 1.364.212v.545H54.16v-.545c.677 0 1.131-.066 1.364-.197.232-.131.414-.349.545-.652.141-.303.212-.883.212-1.742V13.06c0-1.505-.045-2.48-.136-2.924-.071-.323-.182-.545-.334-.666-.151-.132-.358-.197-.62-.197-.284 0-.627.076-1.031.227l-.212-.545 4.181-1.697h.667Zm3.136.409h6.53v.56h-.425c-.394 0-.697.096-.909.288-.202.192-.303.45-.303.773 0 .353.106.773.319 1.257l3.227 7.666 3.242-7.954c.232-.565.348-.994.348-1.287a.505.505 0 0 0-.121-.349.793.793 0 0 0-.424-.303c-.172-.06-.52-.09-1.046-.09v-.561h4.53v.56c-.525.04-.889.147-1.09.319-.354.303-.672.808-.955 1.515l-4.924 11.907h-.621l-4.954-11.71c-.222-.546-.434-.935-.636-1.167a2.455 2.455 0 0 0-.773-.606c-.172-.09-.51-.177-1.015-.258v-.56Zm18.559 5.227c-.01 2.06.49 3.676 1.5 4.848 1.01 1.171 2.196 1.757 3.56 1.757.909 0 1.697-.248 2.363-.742.677-.505 1.242-1.364 1.697-2.576l.47.303c-.212 1.384-.829 2.646-1.849 3.788-1.02 1.13-2.297 1.696-3.833 1.696-1.666 0-3.095-.646-4.287-1.939-1.182-1.303-1.773-3.05-1.773-5.242 0-2.373.606-4.221 1.818-5.545 1.222-1.333 2.753-2 4.59-2 1.556 0 2.834.516 3.834 1.546 1 1.02 1.5 2.389 1.5 4.106h-9.59Zm0-.88h6.423c-.05-.888-.156-1.514-.318-1.878a2.993 2.993 0 0 0-1.136-1.333 2.81 2.81 0 0 0-1.56-.485c-.839 0-1.591.329-2.258.985-.656.646-1.04 1.55-1.151 2.712Zm15.513-4.756v3.12c1.162-2.08 2.354-3.12 3.576-3.12.555 0 1.015.172 1.378.515.364.333.546.722.546 1.166 0 .394-.132.728-.394 1a1.26 1.26 0 0 1-.94.41c-.353 0-.752-.172-1.196-.516-.435-.353-.758-.53-.97-.53-.182 0-.379.101-.59.303-.455.414-.925 1.096-1.41 2.045v6.651c0 .768.096 1.349.288 1.742.131.273.364.5.697.682.333.182.813.273 1.44.273v.545h-7.106v-.545c.707 0 1.232-.111 1.575-.334.253-.161.43-.419.53-.772.051-.172.076-.662.076-1.47v-5.378c0-1.616-.035-2.575-.106-2.878-.06-.313-.181-.54-.363-.682a.99.99 0 0 0-.652-.212c-.313 0-.666.076-1.06.227l-.152-.545 4.197-1.697h.636Zm15.241 0v4.727h-.5c-.384-1.485-.879-2.495-1.485-3.03-.596-.536-1.358-.803-2.287-.803-.707 0-1.278.187-1.712.56-.434.374-.652.788-.652 1.243 0 .565.162 1.05.485 1.454.313.414.95.853 1.909 1.318l2.212 1.076c2.05 1 3.075 2.317 3.075 3.954 0 1.262-.479 2.282-1.439 3.06-.949.768-2.015 1.151-3.197 1.151-.848 0-1.818-.151-2.908-.454-.334-.101-.606-.152-.818-.152-.233 0-.414.132-.546.394h-.5v-4.954h.5c.283 1.414.823 2.48 1.621 3.197.798.717 1.692 1.076 2.682 1.076.697 0 1.262-.202 1.697-.606.444-.415.666-.91.666-1.485a2.34 2.34 0 0 0-.742-1.758c-.485-.474-1.46-1.075-2.924-1.802-1.465-.728-2.424-1.384-2.879-1.97-.454-.575-.681-1.303-.681-2.181 0-1.142.389-2.096 1.166-2.864.788-.767 1.803-1.151 3.045-1.151.546 0 1.207.116 1.985.348.515.152.858.228 1.03.228a.603.603 0 0 0 .379-.107c.091-.07.197-.227.318-.47h.5ZM117.897 0c.424 0 .783.151 1.075.454.303.293.455.652.455 1.076 0 .424-.152.788-.455 1.09a1.436 1.436 0 0 1-1.075.455c-.424 0-.788-.151-1.091-.454a1.487 1.487 0 0 1-.454-1.09c0-.425.146-.784.439-1.077A1.506 1.506 0 0 1 117.897 0Zm1.257 7.257v11.15c0 .869.061 1.45.182 1.742.131.283.318.495.561.637.252.141.707.212 1.363.212v.545h-6.742v-.545c.677 0 1.132-.066 1.364-.197.232-.131.414-.349.545-.652.142-.303.212-.883.212-1.742V13.06c0-1.505-.045-2.48-.136-2.924-.071-.323-.182-.545-.333-.666-.152-.132-.359-.197-.621-.197-.283 0-.627.076-1.031.227l-.212-.545 4.182-1.697h.666Zm7.878-4.151v4.56h3.242v1.06h-3.242v9c0 .898.127 1.504.379 1.817.263.314.596.47 1 .47.333 0 .656-.1.97-.303.313-.212.555-.52.727-.924h.591c-.354.99-.854 1.737-1.5 2.242-.647.495-1.313.742-2 .742-.465 0-.919-.126-1.364-.378a2.383 2.383 0 0 1-.984-1.106c-.212-.485-.318-1.227-.318-2.227V8.726h-2.197v-.5c.555-.222 1.121-.595 1.697-1.12a9.031 9.031 0 0 0 1.56-1.894c.232-.384.556-1.086.97-2.106h.469Zm3.818 4.56h6.469v.56h-.318c-.455 0-.798.101-1.03.303a.92.92 0 0 0-.334.728c0 .394.167.939.5 1.636l3.379 7 3.106-7.667c.171-.414.257-.823.257-1.227 0-.182-.035-.318-.106-.409a.766.766 0 0 0-.379-.258c-.171-.07-.474-.106-.909-.106v-.56H146v.56c-.374.04-.662.122-.864.243-.202.121-.424.348-.666.682-.091.141-.263.53-.515 1.166l-5.651 13.847c-.546 1.343-1.263 2.358-2.151 3.045-.879.687-1.728 1.03-2.546 1.03-.596 0-1.085-.171-1.469-.515-.384-.343-.576-.737-.576-1.181 0-.424.136-.768.409-1.03.283-.253.667-.38 1.152-.38.333 0 .787.112 1.363.334.404.152.657.227.758.227.303 0 .631-.156.984-.47.364-.312.727-.918 1.091-1.817l.985-2.41-4.985-10.468c-.151-.313-.393-.702-.727-1.166-.252-.354-.459-.591-.621-.712-.232-.162-.606-.303-1.121-.425v-.56Z"/></svg>