<svg viewBox="0 0 115 32" xmlns="http://www.w3.org/2000/svg"><g fill="#666" fill-rule="nonzero"><path d="m0 0 5.47 12.3h2.47l3.36-7.51 3.3 7.51h2.5L22.5 0h-3.3l-3.4 7.49L12.5 0H10L6.71 7.49 3.37 0zM24.6 12.3h3.1V0h-3.1zM31.8 12.3h3.08V0H31.8v12.3zm1.54-6.16 6.16 6.16h4.36L37.7 6.14l6.16-6.16H39.5l-6.16 6.16zM45.8 12.3h3.1V0h-3.1zM53 12.3h3.1V4.33l3.8 3.76 3.7-3.76v7.97h3.1V0h-3.1l-3.7 3.75L56.1 0H53zM69.8 12.3h8.9V9.73h-5.8V7.17h5.8V4.6h-5.8V2.55h5.8V0h-8.9zM81.8 12.3h6.16c3.4 0 6.16-2.76 6.16-6.16S91.36-.02 87.96-.02H81.8v12.3zm3.08-2.57V2.54h2.05c1.98 0 3.59 1.61 3.59 3.59s-1.61 3.59-3.59 3.59h-2.05zM96 12.3h3.1V0H96zM101 12.3h3.35l3.32-7.75 3.32 7.75h3.35L109.21 0h-3.08L101 12.3zm3.08-2.05h7.7V8.2h-7.7v2.05zM13.2 18.7v3.04c-1.54-1.14-3.86-1.48-5.87-.869-2.01.615-3.33 2.07-3.33 3.68s1.31 3.06 3.33 3.68c2.01.615 4.33.272 5.87-.869v3.04c-3.52 1.94-8.22 1.42-11-1.23-2.78-2.65-2.78-6.6 0-9.25 2.78-2.65 7.48-3.17 11-1.23zm9.6-1.17c4.4 0 7.96 3.14 7.96 7.02 0 3.88-3.56 7.02-7.96 7.02s-7.96-3.14-7.96-7.02c0-3.88 3.56-7.02 7.96-7.02zm13.5 0 4.29 4.29 4.29-4.29h3.51v14h-3.51v-9.09l-4.29 4.29-4.29-4.29v9.09h-3.51v-14h3.51zm19.1 0 4.29 4.29 4.29-4.29h3.51v14h-3.51v-9.09l-4.29 4.29-4.29-4.29v9.09h-3.51v-14h3.51zm22.2 0c4.4 0 7.96 3.14 7.96 7.02 0 3.88-3.56 7.02-7.96 7.02s-7.96-3.14-7.96-7.02c0-3.88 3.56-7.02 7.96-7.02zm13.5 0L97.42 26v-8.47h3.51v14h-3.51l-6.32-8.47v8.47h-3.51v-14h3.51zm18.4 0c2.15 0 3.41.585 4.49 1.27v2.93c-2.34-2.05-5.85-1.95-5.85-.39s4.58 1.89 5.75 4.55c1.17 2.65-1.17 5.7-4.29 5.7-1.54 0-3.36-.273-4.88-1.62v-3.16c2.63 2.44 6.15 2.05 6.15.488s-4.58-1.66-5.85-4.68c-1.27-3.02 2.34-5.07 4.49-5.07zm-86.6 3.04c-2.2 0-3.98 1.78-3.98 3.98s1.78 3.98 3.98 3.98 3.98-1.78 3.98-3.98-1.78-3.98-3.98-3.98zm54.7 0c-2.2 0-3.98 1.78-3.98 3.98s1.78 3.98 3.98 3.98 3.98-1.78 3.98-3.98-1.78-3.98-3.98-3.98z"/></g></svg>