<svg xmlns="http://www.w3.org/2000/svg" viewBox="0 0 115 32"><path fill="#666" d="m0 0 5.474 12.317h2.464l3.336-7.506 3.336 7.506h2.463L22.547 0h-3.37l-3.336 7.506L12.505 0h-2.463L6.706 7.506 3.37 0zm24.634 12.317h3.08V0h-3.08zm7.185 0h3.08V0h-3.08v12.317zm1.54-6.159 6.158 6.159h4.362l-6.158-6.159L43.879 0h-4.362L33.36 6.158zm12.488 6.159h3.08V0h-3.08zm7.185 0h3.08V4.345l3.763 3.764 3.764-3.764v7.972h3.079V0h-3.079l-3.764 3.763L56.112 0h-3.08zm16.765 0h8.896V9.751h-5.816V7.185h5.816V4.619h-5.816V2.566h5.816V0h-8.896zm11.975 0h6.159a6.16 6.16 0 0 0 0-12.317h-6.159v12.317zm3.08-2.566V2.566h2.052c1.98 0 3.59 1.61 3.593 3.592s-1.61 3.59-3.593 3.593h-2.053zm11.119 2.566h3.08V0h-3.08zm4.789 0h3.353l3.319-7.75 3.319 7.75h3.353L108.97 0h-3.079l-5.132 12.317zm3.08-2.053h7.698V8.211h-7.699v2.053zm-90.603 8.464v3.043c-1.54-1.14-3.86-1.48-5.87-.869-2.01.615-3.33 2.07-3.328 3.679s1.31 3.06 3.328 3.678c2.01.615 4.33.272 5.87-.87v3.044c-3.52 1.94-8.22 1.42-11.001-1.228-2.78-2.65-2.78-6.6 0-9.249 2.78-2.65 7.48-3.17 11.001-1.228zm9.598-1.17c4.4 0 7.96 3.14 7.96 7.023 0 3.88-3.56 7.02-7.96 7.023-4.4 0-7.96-3.14-7.96-7.023 0-3.88 3.56-7.02 7.96-7.023zm13.461 0 4.292 4.291 4.292-4.292h3.511v14.046H44.88v-9.09l-4.292 4.291-4.292-4.291v9.09h-3.511V17.557h3.511zm19.118 0 4.292 4.291 4.292-4.292h3.511v14.046h-3.511v-9.09l-4.292 4.291-4.292-4.291v9.09h-3.511V17.557h3.511zm22.161 0c4.4 0 7.96 3.14 7.96 7.023 0 3.88-3.56 7.02-7.96 7.023-4.4 0-7.96-3.14-7.96-7.023 0-3.88 3.56-7.02 7.96-7.023zm13.461 0 6.32 8.466v-8.466h3.512v14.046h-3.511l-6.321-8.467v8.466h-3.511V17.558h3.511zm18.435 0c2.15 0 3.41.585 4.487 1.268v2.926c-2.34-2.05-5.85-1.95-5.853-.39s4.58 1.89 5.755 4.545c1.17 2.65-1.17 5.7-4.291 5.696-1.54 0-3.36-.273-4.878-1.619v-3.16c2.63 2.44 6.15 2.05 6.146.488s-4.58-1.66-5.853-4.682c-1.27-3.02 2.34-5.07 4.487-5.073zM22.835 20.6c-2.2 0-3.98 1.78-3.98 3.98s1.78 3.98 3.98 3.98 3.98-1.78 3.98-3.98-1.78-3.98-3.98-3.98zm54.74 0c-2.2 0-3.98 1.78-3.98 3.98s1.78 3.98 3.98 3.98 3.98-1.78 3.98-3.98-1.78-3.98-3.98-3.98z"/></svg>