<svg xmlns="http://www.w3.org/2000/svg" width="125" height="25" viewBox="0 0 33.073 6.615"><path d="M3.87 4.078v.845q-.725.385-1.52.385-1.03 0-1.643-.568-.609-.57-.609-1.404T.741 1.92q.645-.582 1.684-.581.828 0 1.401.34v.862q-.704-.396-1.332-.396-.618 0-1.011.332-.391.33-.39.842 0 .515.384.85.388.336.992.336.3 0 .576-.078.277-.08.826-.349m2.028-1.487q.615 0 1.041.36.43.36.43 1.003 0 .645-.435 1t-1.036.354q-.651 0-1.067-.377-.413-.379-.412-.983 0-.615.42-.986.425-.371 1.059-.371m0 2.23q.59 0 .59-.89 0-.85-.59-.85-.283 0-.443.224-.158.224-.158.643 0 .873.6.872m2.847-2.178v.374q.363-.427.85-.426.407 0 .679.26.274.26.274.745v1.662h-.823V3.665q0-.524-.407-.523-.29 0-.573.432v1.684h-.823V2.643zm5.118-1.255v3.87h-.823v-.21q-.316.26-.725.26-.524 0-.876-.388-.349-.388-.349-.972 0-.598.355-.978.357-.379.914-.38.346 0 .681.167V1.388zm-.823 3.156v-1.25q-.224-.152-.46-.152-.31 0-.484.216-.172.216-.172.607 0 .36.172.578.172.216.457.217.252 0 .487-.217m3.304.714v-.374q-.363.424-.844.424-.427 0-.693-.263t-.266-.729V2.643h.823v1.618q0 .499.413.499.233 0 .396-.18.166-.183.166-.27V2.644h.828v2.615zm3.792-.714v.59q-.482.175-.884.174-.69 0-1.102-.368-.413-.371-.413-.981 0-.596.416-.98.418-.389 1.063-.388.416 0 .881.171v.613q-.34-.175-.67-.175-.368 0-.59.205t-.222.548q0 .346.216.56.216.211.568.21.26 0 .737-.18m2.432-1.9v.562h-.953v1.077q0 .194.105.308.108.11.296.11.255 0 .552-.152v.596q-.393.163-.762.163-.482 0-.748-.25-.266-.248-.266-.73V3.205h-.374v-.161l1.094-1.225h.103v.823zm2.304 1.24-.66 1.424h-.385l-1.18-2.665h.84l.55 1.44.585-1.44h.499l.579 1.44.548-1.44h.842l-1.174 2.665h-.393zm2.525-2.091q0-.188.133-.322.133-.133.319-.132.188 0 .321.132.133.133.133.322 0 .186-.133.321-.133.133-.321.133-.186 0-.319-.133-.133-.136-.133-.321m.867.85v2.615h-.822V2.643zm1.54-1.255v2.549h.01l1.017-1.294h.964l-1.022 1.294 1.067 1.321H30.83L29.815 3.97h-.011v1.288h-.823v-3.87zm2.265.405q0-.188.133-.321t.319-.133q.188 0 .32.133.134.133.134.32t-.133.322q-.133.133-.321.133-.186 0-.319-.133-.133-.136-.133-.321m.867.85v2.615h-.823V2.643z" aria-label="Conductwiki" opacity=".8"/></svg>