<svg xmlns="http://www.w3.org/2000/svg" width="93" height="45"><path fill="#555" d="M4.652 6.55c.312.318.329.358.355.834.02.34-.02.689-.123 1.093a31.29 31.29 0 0 0-.341 1.618c-.104.564-.23 1.098-.282 1.187-.061.108-.105.658-.13 1.646-.02.816-.07 1.533-.111 1.594-.04.062-.078.412-.084.78-.011.748-.141 2.856-.21 3.387-.022.18-.055 1.225-.076 2.379l-.011.653c-.022 1.085-.06 2.1-.09 2.37-.024.224-.036 1.165-.038 2.369v.805c0 .37.002.754.004 1.14l.003.58c.016 2.223.052 4.364.095 4.408.138.138 1.095-.802 1.217-1.196.029-.09.206-.374.396-.63.438-.594.863-1.562 1.344-3.063.315-.983.437-1.262.715-1.627.184-.243.368-.576.409-.742.04-.166.176-.492.3-.726.166-.314.237-.566.27-.964.038-.454.1-.645.4-1.207.194-.367.41-.901.48-1.187.069-.285.188-.623.264-.75.076-.127.139-.294.14-.371.003-.595 1.31-3.142 1.896-3.7.172-.163.458-.466.635-.674.583-.68.878-.898 1.295-.954l.378-.052.048.45.094.88c.041.385.021.479-.188.894-.129.255-.483 1.188-.787 2.074-.304.885-.602 1.71-.66 1.832-.06.123-.162.607-.228 1.076-.066.469-.236 1.42-.377 2.114a66.52 66.52 0 0 0-.32 1.735l-.099.583a84.263 84.263 0 0 0-.136.834l-.033.21-.07.42c-.142.837-.296 1.627-.377 1.914a4.474 4.474 0 0 0-.183 1.28c0 .727-.243 2.957-.407 3.737-.127.605-.144 1.53-.036 1.97.04.164.11.698.153 1.187.043.49.107 1.174.141 1.52l.069.724c.003.051.041.093.084.093.171 0 .365-.683.518-1.819.134-1.003.199-1.27.418-1.742.203-.434.26-.65.26-.988.002-.387-.022-.444.36-1.01l.359-.579-.083-.483c-.08-.463-.073-.509.148-1.067a9.82 9.82 0 0 0 .319-.936c.073-.289.118-.351.256-.351.092 0 .268-.02.392-.045.302-.06.362.137.171.57-.078.18-.166.461-.195.624a1.88 1.88 0 0 1-.182.52 1.877 1.877 0 0 0-.18.552c-.027.182-.084.372-.127.423-.054.066-.04.155.05.308.118.2.119.245.004.702-.067.268-.19.683-.273.92-.289.831-.555 1.855-.465 2.21.079.308.005.536-.078.849-.089.334-.127.669-.076.886.072.303.011.437-.072.635a1.572 1.572 0 0 0-.118.48c0 .108-.07.446-.154.752-.178.646-.39.907-.879 1.08-.187.068-.584.225-.882.351-.587.249-.634.237-.723-.172a3.976 3.976 0 0 0-.227-.586c-.16-.345-.18-.464-.138-.853.039-.362.018-.53-.104-.838-.207-.524-.454-1.512-.454-1.815 0-.194-.056-.292-.26-.454l-.259-.207v-1.017c0-1.067.134-2.831.347-4.572.114-.936.145-1.055.335-1.271.203-.232.207-.248.116-.604-.109-.424-.058-1.72.089-2.245.117-.42.095-.381.196-.19a.857.857 0 0 1 .104.342c0 .244.176.684.246.614.136-.137-.155-2.323-.319-2.18a1.104 1.104 0 0 0-.054.05l-.043.043c-.06.06-.056.04.105-.307.08-.173.06-.347-.01-.678-.052-.242-.119-.44-.15-.44-.03 0-.228.509-.44 1.13a89.794 89.794 0 0 1-.816 2.282 60.478 60.478 0 0 0-.854 2.474 37.04 37.04 0 0 1-1.022 2.735c-.671 1.574-.722 1.635-1.433 1.723-.587.074-.683.186-.89 1.04-.174.723-.176.75-.058 1.33.216 1.067.01 2.157-.508 2.693-.168.173-.216.267-.154.305.064.04.039.141-.094.375-.119.209-.182.436-.182.654 0 .46-.183.803-.609 1.14-.546.431-1.013.533-1.454.315-.212-.104-.24-.148-.197-.314.027-.105.178-.848.334-1.65.205-1.048.274-1.569.246-1.854-.023-.246.05-1.032.194-2.065.193-1.38.23-1.875.218-2.856-.007-.653.011-1.505.043-1.894a9.606 9.606 0 0 0-.037-1.631c-.051-.51-.1-1.593-.108-2.409-.008-.816-.054-1.823-.103-2.239-.067-.565-.068-.882-.006-1.26.048-.299.062-.81.034-1.248-.007-.12-.012-.33-.013-.603v-.355c.003-.508.014-1.145.031-1.793l.015-.486c.055-1.732.057-3.004.004-4.154-.132-2.9-.07-5.283.192-7.518.21-1.782.415-2.249 1.449-3.311C3.584 5.993 4 5.887 4.652 6.55zm49.673 13.395c.544.257-.04 1.635-.979 5.508-.363 1.388-.304 4.276-.304 4.456.608-.125 2.785-2.687 3.679-3.684.894-.997.506-.696.978-1.694.412-1.4 1.141-3.62 2.335-3.222 0 0-1.04 6.135.29 7.288.634.091 1.702-.664 2.482-4.057 1.884-3.772 2.548-2.944 2.548-2.944s-.58 7.367-.014 7.367c.232 0 .525-.021.797-.115.35-.122.509-.593.677-.506l-.084.427c-.619.665-2.473 1.797-3.082 1.827-.997-.23-.365-3.386-1.285-2.569-1.01.899-1.697 2.24-3.286 2.393-.155 0-.493-.165-.833-.696-.403-.63-.702-3.091-.702-3.091s-.608.593-1.242 1.206l-.272.262c-.36.347-.701.674-.915.874-.817.765-1.67 1.092-1.67 1.706 0 .398.587.83.813 1.342.34.771.839 1.57.752 2.724-.124 1.648-.988 4.28-1.904 5.805-.81 1.348-2.044 2.778-2.4 2.778-.13 0-.34-.196-.5-.457l-.064-.115c-.384-.744-.29-2.274.105-5.273.157-1.203.604-3.615.428-4.312-.176-.697-1.019-.17-1.211-.403.235-.599.927-.805 1.168-1.369-.232-1.127-.304-2.697-.304-2.697s-1.067.507-2.202 1.307c-2.097 1.41-1.419-2.216-1.305-3.4l-.027.024c-.251.215-2.174 1.875-3.414 3.24-1.123 1.237-1.588 1.58-1.588 1.202 0-.638 3.787-4.852 6.664-7.584 1.718-1.629 2.711-3.161 3.74-3.45.91-.257 1.723-.29 2.13-.098zM51.63 33.41c-.423 1.015-.777 5.177-.931 6.384-.581 3.283.47 2.607 1.31 1.275.957-1.515 1.915-3.514 1.921-6.426-.438-1.771-1.732-2.59-2.3-1.233zM32.209 13.797c.062.163-2.29 5.907-2.936 7.171-.436.853-.505 1.12-.332 1.294.153.153.277.154.786.006.56-.163 1.072-.464 2.068-1.213 1.125-.845 3.262-2.296 3.822-2.594.468-.25.874-.286.91-.081.011.06-.048.22-.13.356-.12.194-.35.339-1.132.71-1.116.531-2.358 1.303-4.392 2.73-1.695 1.19-1.763 1.274-1.726 2.175.028.666.194 1.14.732 2.089.6 1.055 1.39 1.669 2.427 1.884.416.087 1.91.058 2.218-.042.13-.043.167-.026.167.076 0 .085.084.015.235-.195.13-.18.448-.56.709-.845.618-.678.952-1.187 1.26-1.922.139-.33.466-1.04.727-1.578.62-1.274 1.057-1.705 2.086-2.056.338-.115.366-.114.453.005.139.19.125.27-.272 1.512-.61 1.912-.61 1.912-.648 3.408-.03 1.222-.02 1.4.1 1.632.12.232.165.258.419.25.23-.007.351-.073.63-.34.4-.383.746-.652.838-.652.137 0 .057.496-.123.761-.236.347-1.388 1.244-1.925 1.498-.77.364-1.487.319-1.708-.109-.06-.116-.158-.537-.218-.936-.19-1.264-.465-1.4-1.509-.743-1.505.946-2.243 1.246-3.678 1.493-.882.151-1.373.142-1.9-.035-.632-.213-.978-.456-1.955-1.374-.477-.448-.896-.824-.93-.836-.094-.032-.139.126-.232.814-.119.881-.765 2.818-1.047 3.139-.243.276-1.028.704-1.292.704a.657.657 0 0 1-.34-.142c-.155-.125-.175-.202-.17-.649.004-.415.066-.668.345-1.404.188-.493.365-1.052.393-1.242.062-.412-.01-.865-.137-.865-.05 0-.308.22-.572.49-.628.641-1.676 1.454-2.184 1.695-.77.364-1.487.319-1.708-.109-.06-.116-.158-.537-.218-.936-.19-1.263-.464-1.399-1.509-.745-.355.222-.758.461-.895.53l-.25.126.17-.302c.093-.166.432-.594.752-.952.74-.825 1.058-1.3 1.373-2.053.077-.183.212-.483.362-.806l.184-.393.18-.378c.62-1.274 1.058-1.705 2.087-2.056.338-.115.366-.114.453.005.139.19.124.27-.273 1.512-.61 1.912-.61 1.912-.647 3.408a46.788 46.788 0 0 0-.014.704v.248c.004.403.036.53.114.68.118.229.167.259.408.251.241-.007.375-.103 1.13-.807.47-.44.986-.97 1.146-1.179.172-.224.74-1.352 1.385-2.753l1.53-3.32c.24-.52.538-1.237.662-1.594.099-.285.398-1.068.723-1.896l.164-.415.082-.207c.943-2.369 1.106-2.562 2.254-2.67.383-.035.483-.022.518.068zM85.403 7.08l-.765 3.322s.494-.144 2.894.035l4.546-.312c.412-.028-.817 1.022-1.486 1.295-.94.212-.811.023-1.958.123-.574.05-.92.329-1.41.432-.215.045-.739.073-1.297.096l-.48.019c-.555.02-1.066.039-1.257.066l-3.691 10.15c-1.511 4.555-1.4 4.822-1.655 6.35-.13.779-.07 1.178.381 1.178.323 0 3.243-3.113 3.82-3.753 1.205-1.956 2.443-3.757 4.438-4.841.378-.08 1.153-.39 1.621-.244.191.413.288 1.259.14 1.87-.27.724-1.253 2.026-3.879 3.879-.236.375-.064 1.374-.064 1.802 0 .433.456.633 1.17.386.357-.123.904-.264 1.365-.638.46-.374.55-.949 1.066-1.626.408-.168.514-.112.753.181-.433.55-.833 1.054-1.294 1.503-.46.448-.699.808-1.124 1.131-.85.647-1.563 1.019-1.886 1.019-1.904-.32-2.564-1.742-2.232-3.598 0 0-1.35 1.109-2.789 3.049-.907.701-1.213 1.043-1.793 1.254-.58.21-1.435.29-1.654.108-.09-.926.346-2.617.837-4.334l.156-.543c.681-2.347 1.373-4.6.872-4.87 0 0-.79 1.024-1.672 2.108l-.296.363c-.645.784-1.296 1.543-1.69 1.914-1 .943-2.004 1.736-2.698 2.416-.601 1.138-2.394 2.83-2.825 2.833-1.736-.025-2.724-.973-2.346-2.924l.04-.383c.235-1.142 1.091-3.194 2.426-4.543 1.486-1.5 2.71-2.324 3.107-1.93.392.39.47.249.475 2.112.001.634-.302 2.148-.533 3.206l-.074.334c-.104.47-.18.788-.18.788s.351-.332.786-.763l.244-.243.125-.126.25-.257c.332-.343.643-.681.83-.925 1.364-1.787 2.303-2.776 3.66-5.547 2.364-4.833 3.39-7.818 3.39-7.818h-.043a220.07 220.07 0 0 0-1.71.03l-.551.012c-.427.01-.838.023-1.155.037-1.131.052-1.216.265-1.278.048-.06-.213.551-.75.887-1.232.336-.483.396-.912.661-.912 1.053-.18 2.247.24 3.201.214.835-.022 1.007-.078 1.037-.092l.006-.003s.948-2.57 1.278-2.57c.224 0 1.303-.636 1.303-.636zM17.867 17.141a.639.639 0 0 0-.162.46c0 .26-.514 1.736-.673 1.933-.035.044-.087.277-.115.52-.028.241-.184.773-.347 1.181a8.103 8.103 0 0 0-.396 1.311 5.664 5.664 0 0 1-.36 1.14c-.143.315-.26.67-.26.79 0 .355-.154.858-.304.994-.114.103-.14.232-.14.668 0 .46-.04.626-.26 1.11-.143.314-.26.676-.26.805s-.067.366-.148.526c-.082.16-.149.342-.149.405 0 .194-.404 1.486-.466 1.486-.032 0-.077-.05-.1-.11-.066-.173.33-1.893.503-2.186.117-.196.166-.433.194-.93.032-.574.072-.735.287-1.143.137-.261.25-.546.25-.633 0-.087.046-.324.103-.526.183-.648 1.15-3.907 1.354-4.56.108-.346.345-1.148.526-1.78.382-1.333.509-1.621.755-1.716.272-.105.369.042.168.255zm51.57 8.092c-.211 3.195-.044 3.989.537 3.964 1.365.526 2.403-4.325 1.785-4.26-.355-.35-2.218-1.297-2.323.296zm-17.645-3.277c-.918-.102-2.778 2.832-2.778 4.488 0 .545-.2 1.889.194 1.889.292 0 .651-.443 1.045-.891.106-.881 1.399-3.453 1.7-4.513.107-.377.25-.927-.16-.973zm34.805.901c-.55.103-1.383 2.063-1.184 2.917.058.25 1.615-1.298 1.446-1.373.511-.415.146-1.833-.262-1.544zm-44.371-7.174c.027.116.183.35.346.521.378.393.346.566-.185.99-.783.625-1.477.855-1.853.615-.196-.126-.428-.567-.428-.815 0-.193.335-.713.571-.887.333-.245.93-.529 1.228-.585.254-.047.274-.037.32.161zm-17.135 0c.028.116.184.35.347.521.378.393.346.566-.185.99-.784.625-1.477.855-1.853.615-.196-.126-.428-.567-.428-.815 0-.193.335-.713.57-.887.334-.245.93-.529 1.23-.585.252-.047.273-.037.32.161zM25.777.852c-.022.562-.041.626-.254.853-.205.22-.222.27-.157.482.065.21.044.276-.186.593-.142.196-.282.457-.311.58a1.224 1.224 0 0 1-.259.444c-.113.123-.3.39-.414.594-.115.204-.354.575-.531.825s-.322.528-.322.617c0 .09-.2.443-.444.787a10.81 10.81 0 0 0-.698 1.13c-.14.278-.31.552-.378.608-.383.318-1.678 2.899-2.003 3.993a1.451 1.451 0 0 1-.256.408c-.113.13-.228.336-.256.459a57.708 57.708 0 0 0-.123.552c-.04.18-.135.398-.213.482-.078.084-.194.355-.258.602-.152.593-.603 1.56-.753 1.619-.16.061-.181.058-.181-.03 0-.209.332-1.214.796-2.41.609-1.567 1.442-4.144 1.387-4.288-.035-.09.252-.664.585-1.171.07-.106.258-.581.417-1.055.204-.608.497-1.23.99-2.107 1.226-2.179 1.538-2.877 1.648-3.69.067-.495.202-.743.654-1.207.323-.333.419-.39.656-.39.152 0 .366-.04.474-.09.318-.144.42.066.39.81z"/></svg>