<svg xmlns="http://www.w3.org/2000/svg" width="120" height="19" fill="none"><path fill="#666" d="M4.986.095v1.369H1.825V2.99h3.16v1.37h-3.16v2.97H0V.095h4.986Zm7.971 0v3.936c0 .983-.208 1.726-.626 2.228-.445.537-1.05.887-1.813 1.05a5.963 5.963 0 0 1-1.231.117c-.884 0-1.62-.177-2.207-.53a2.872 2.872 0 0 1-.838-.754c-.367-.495-.551-1.181-.551-2.058V.095h1.824v3.586c0 .644.078 1.114.234 1.41.31.588.838.881 1.58.881.439 0 .82-.12 1.146-.36.325-.248.527-.566.605-.955.035-.17.053-.322.053-.456V.095h1.824Zm8.213 0V7.33h-1.506l-4-4.476V7.33h-1.792V.095h1.644l3.872 4.265V.095h1.782Zm.983 0h2.95c.332 0 .604.011.816.032a4.52 4.52 0 0 1 1.485.403c.785.375 1.348.945 1.687 1.708.191.425.287.913.287 1.464 0 .87-.244 1.613-.732 2.228-.488.615-1.16 1.029-2.016 1.241-.467.113-1.022.17-1.665.17l-2.811-.01V.094Zm1.825 1.38V5.95h.732c.721 0 1.252-.07 1.591-.212.807-.34 1.21-1.022 1.21-2.047 0-1.019-.407-1.694-1.22-2.027-.311-.127-.778-.19-1.4-.19h-.913ZM34.901.562v1.485l-.127-.063c-.849-.425-1.584-.637-2.207-.637-.325 0-.587.053-.785.16-.198.105-.297.247-.297.424 0 .283.393.569 1.178.859l.573.212c.693.255 1.198.562 1.517.923.318.36.477.813.477 1.358 0 .643-.262 1.163-.785 1.56-.516.388-1.199.583-2.047.583-.595 0-1.231-.131-1.91-.393a3.755 3.755 0 0 1-.647-.308V5.166c.48.297.87.506 1.167.626.46.184.905.276 1.336.276.729 0 1.093-.22 1.093-.658a.562.562 0 0 0-.212-.445c-.142-.12-.396-.244-.764-.372l-.392-.138a7.216 7.216 0 0 1-1.199-.52 2.36 2.36 0 0 1-.679-.53c-.318-.36-.477-.81-.477-1.347 0-.622.247-1.121.742-1.496C30.958.187 31.623 0 32.45 0c.778 0 1.595.187 2.451.562Zm3.201-.467h2.95c.331 0 .604.011.816.032.544.057 1.04.191 1.485.403.785.375 1.347.945 1.687 1.708.19.425.286.913.286 1.464 0 .87-.244 1.613-.732 2.228-.488.615-1.16 1.029-2.015 1.241-.467.113-1.022.17-1.666.17l-2.81-.01V.094Zm1.825 1.38V5.95h.732c.72 0 1.251-.07 1.59-.212.807-.34 1.21-1.022 1.21-2.047 0-1.019-.407-1.694-1.22-2.027-.311-.127-.778-.19-1.4-.19h-.912Zm7.942-1.38V7.33h-1.825V.095h1.825Zm5.886.467v1.485l-.127-.063c-.849-.425-1.584-.637-2.206-.637-.326 0-.587.053-.785.16-.198.105-.297.247-.297.424 0 .283.392.569 1.177.859l.573.212c.693.255 1.199.562 1.517.923.318.36.477.813.477 1.358 0 .643-.261 1.163-.785 1.56-.516.388-1.198.583-2.047.583-.594 0-1.23-.131-1.91-.393a3.755 3.755 0 0 1-.647-.308V5.166c.481.297.87.506 1.167.626.46.184.905.276 1.337.276.728 0 1.093-.22 1.093-.658a.562.562 0 0 0-.213-.445c-.141-.12-.396-.244-.763-.372l-.393-.138a7.216 7.216 0 0 1-1.199-.52 2.36 2.36 0 0 1-.678-.53c-.319-.36-.478-.81-.478-1.347 0-.622.248-1.121.743-1.496C49.813.187 50.477 0 51.305 0c.778 0 1.595.187 2.45.562Zm5.765 0v1.485l-.127-.063c-.849-.425-1.584-.637-2.206-.637-.326 0-.587.053-.785.16-.198.105-.297.247-.297.424 0 .283.392.569 1.177.859l.573.212c.693.255 1.199.562 1.517.923.318.36.477.813.477 1.358 0 .643-.261 1.163-.785 1.56-.516.388-1.198.583-2.047.583-.594 0-1.23-.131-1.91-.393a3.755 3.755 0 0 1-.646-.308V5.166c.48.297.87.506 1.166.626.46.184.906.276 1.337.276.728 0 1.093-.22 1.093-.658a.562.562 0 0 0-.213-.445c-.141-.12-.396-.244-.763-.372l-.393-.138a7.216 7.216 0 0 1-1.199-.52 2.36 2.36 0 0 1-.678-.53c-.319-.36-.478-.81-.478-1.347 0-.622.248-1.121.743-1.496C55.578.187 56.243 0 57.07 0c.778 0 1.595.187 2.45.562Zm6.264 5.442V7.33h-5.336V.095h5.262v1.348h-3.437v1.464h3.278v1.357h-3.278v1.74h3.511ZM74.31.095V7.33h-1.825V2.907h-.02l-1.92 2.333h-.266l-1.92-2.333h-.021V7.33h-1.825V.095h1.602l2.291 2.748L72.73.095h1.58Zm2.84 0V7.33h-1.825V.095h1.825Zm8.348 0V7.33H83.99l-3.999-4.476V7.33H78.2V.095h1.645l3.872 4.265V.095h1.782Zm5.226 0 3.214 7.235h-1.94l-.595-1.432h-3.235l-.541 1.432h-1.91L88.635.095h2.09Zm-1.018 1.74-1.06 2.8h2.227l-1.167-2.8Zm10.971-1.74v1.358h-2.61V7.33h-1.835V1.453h-2.62V.095h7.065Zm2.33 0V7.33h-1.824V.095h1.824Zm9.016 3.628c0 1.047-.403 1.928-1.209 2.642-.799.707-1.789 1.06-2.97 1.06-1.153 0-2.129-.357-2.928-1.07-.792-.715-1.188-1.592-1.188-2.632 0-1.053.396-1.937 1.188-2.652.799-.714 1.786-1.071 2.96-1.071 1.166 0 2.149.36 2.949 1.082.799.714 1.198 1.595 1.198 2.641Zm-1.867.043c0-.68-.208-1.22-.626-1.623-.41-.403-.965-.605-1.665-.605-.693 0-1.245.202-1.655.605-.41.396-.615.933-.615 1.612 0 .658.209 1.192.626 1.602.424.403.979.605 1.665.605.658 0 1.199-.205 1.623-.616.432-.417.647-.944.647-1.58ZM120 .096V7.33h-1.506l-4-4.476V7.33h-1.792V.095h1.644l3.872 4.265V.095H120Zm-84.138 15.55v1.666a5.938 5.938 0 0 1-2.843.722c-1.237 0-2.249-.343-3.034-1.03-.785-.685-1.177-1.573-1.177-2.662 0-.679.18-1.305.54-1.878a3.75 3.75 0 0 1 1.486-1.347c.658-.34 1.44-.509 2.344-.509.68 0 1.34.117 1.984.35.248.092.453.188.615.287v1.665c-.7-.523-1.524-.785-2.471-.785-.771 0-1.4.205-1.889.615-.488.403-.732.93-.732 1.58 0 .651.237 1.185.711 1.603.481.41 1.1.615 1.857.615.728 0 1.453-.212 2.174-.637l.435-.254Zm8.788-1.315c0 1.047-.403 1.928-1.21 2.642-.798.707-1.788 1.06-2.97 1.06-1.152 0-2.128-.357-2.927-1.07-.792-.715-1.188-1.592-1.188-2.632 0-1.053.396-1.937 1.188-2.652.799-.714 1.785-1.071 2.96-1.071 1.166 0 2.15.36 2.949 1.082.799.714 1.198 1.595 1.198 2.641Zm-1.867.043c0-.68-.209-1.22-.626-1.623-.41-.403-.965-.605-1.665-.605-.693 0-1.245.202-1.655.605-.41.396-.615.933-.615 1.612 0 .658.208 1.192.626 1.602.424.403.98.605 1.665.605.658 0 1.199-.205 1.623-.616.431-.417.647-.944.647-1.58Zm10.31-3.67v7.234H51.27v-4.423h-.021l-1.92 2.333h-.265l-1.92-2.333h-.022v4.423h-1.824v-7.235H46.9l2.29 2.748 2.324-2.748h1.58Zm8.75 0v7.234h-1.825v-4.423h-.022l-1.92 2.333h-.265l-1.92-2.333h-.021v4.423h-1.825v-7.235h1.602l2.291 2.748 2.324-2.748h1.58Zm2.84 0v7.234h-1.826v-7.235h1.825Zm7.562 0v1.357h-2.61v5.877H67.8v-5.877h-2.62v-1.358h7.065Zm6.987 0v1.357h-2.61v5.877h-1.834v-5.877h-2.62v-1.358h7.064Zm5.81 5.908v1.326h-5.335v-7.235h5.261v1.348h-3.437v1.464h3.278v1.357h-3.278v1.74h3.511Zm6.097 0v1.326h-5.336v-7.235h5.262v1.348h-3.437v1.464h3.278v1.357h-3.278v1.74h3.511Z"/></svg>