<svg xmlns="http://www.w3.org/2000/svg" viewBox="0 0 141 31"><path d="M7.414 9.762 10.402 0h3.922l2.965 9.762L20.633 0h4.07L18.82 16.965h-2.789L12.34 5.16 8.668 16.965h-2.79L0 0h4.07zM26.738 0h3.77v16.965h-3.77zm7.914 0h3.77v6.98L44.78 0h4.648l-6.71 7.508c.577.812 1.66 2.33 3.218 4.527 1.55 2.2 2.71 3.84 3.492 4.93H45.03l-4.95-6.7-1.683 1.895v4.805h-3.77V0zm17.114 0h3.77v16.965h-3.77zm23.019 6.297-4.547 9.277H68l-4.524-9.277v10.668h-3.77V0h5.103l4.347 9.332L73.527 0h5.078v16.965h-3.77V6.297zM94.863 0v3.363h-8.395V6.88h7.54v3.234h-7.54v3.516h8.672v3.336H82.726V0zm16.487 2.227c1.61 1.49 2.41 3.54 2.414 6.168 0 2.63-.78 4.73-2.363 6.27-1.56 1.54-3.97 2.3-7.188 2.3H98.46V0h5.953c3.04 0 5.33.758 6.938 2.227zm-2.738 10.086c.93-.883 1.38-2.15 1.383-3.817 0-1.67-.454-2.96-1.383-3.844-.93-.91-2.34-1.34-4.246-1.34h-2.114V13.63h2.387c1.71 0 3.04-.43 3.973-1.317zM117.03 0h3.77v16.965h-3.77zm19.92 16.965-1.559-3.664h-7.058l-1.559 3.664h-3.996L130.068 0h3.64l7.289 16.965zm-5.102-11.906-2.109 4.93h4.223zM6.86 24.68v2.047h3.269v1.164h-3.27v3.059H5.605v-7.434h4.922v1.164zm17.64 5.207c-.754.734-1.66 1.09-2.762 1.086s-2.01-.352-2.765-1.086-1.13-1.64-1.133-2.73.379-2 1.133-2.731 1.66-1.09 2.765-1.086 2.01.352 2.762 1.086 1.13 1.64 1.133 2.73-.38 2-1.133 2.731zm-.902-4.625c-.504-.531-1.13-.785-1.86-.785-.73 0-1.36.254-1.86.785a2.651 2.651 0 0 0-.753 1.895c0 .758.25 1.39.754 1.898.5.504 1.13.78 1.86.781.726 0 1.36-.25 1.859-.781.5-.531.754-1.16.754-1.898 0-.758-.254-1.39-.754-1.895zM35.18 29.23c.328.402.805.605 1.383.605s1.03-.203 1.383-.605c.352-.406.504-.938.504-1.617v-4.121h1.253v4.168c0 1.06-.3 1.9-.878 2.48s-1.33.86-2.235.86c-.906 0-1.66-.277-2.238-.86-.578-.582-.88-1.39-.88-2.48v-4.168h1.255v4.12c-.047.68.129 1.21.453 1.618zm18.32-5.738h1.258v7.434h-1.36l-4.172-5.414v5.414h-1.253v-7.434h1.254l4.296 5.535v-5.535zm15.203.985c.703.656 1.05 1.54 1.055 2.703 0 1.16-.352 2.07-1.028 2.734-.68.68-1.73 1.01-3.168 1.012h-2.437v-7.433h2.539c1.3 0 2.34.328 3.04.984zm-.176 2.73c0-1.7-.98-2.55-2.89-2.554h-1.258v5.082h1.383c.906 0 1.59-.2 2.062-.63.453-.433.703-1.06.703-1.898zm10.227 2.023-.727 1.695h-1.332l3.243-7.433h1.332l3.242 7.433h-1.336l-.727-1.695zm3.191-1.164-1.332-3.059-1.332 3.059zm12.137-3.414v6.273h-1.254v-6.273H90.59v-1.137h5.73v1.137zm9.928-1.16h1.258v7.434h-1.258zm15.78 6.395c-.75.734-1.66 1.09-2.762 1.086-1.11 0-2.01-.352-2.765-1.086-.754-.734-1.13-1.64-1.13-2.73s.376-2 1.13-2.731c.754-.734 1.66-1.09 2.765-1.086 1.11 0 2.01.352 2.762 1.086.758.734 1.13 1.64 1.133 2.73s-.375 2-1.133 2.731zm-.902-4.625c-.504-.531-1.13-.785-1.86-.785-.73 0-1.36.254-1.86.785a2.651 2.651 0 0 0-.753 1.895c0 .758.25 1.39.754 1.898a2.56 2.56 0 0 0 1.86.781c.726 0 1.36-.25 1.859-.781.504-.531.754-1.16.754-1.898 0-.758-.25-1.39-.754-1.895zm15.452-1.77h1.258v7.434h-1.356l-4.172-5.414v5.414h-1.257v-7.434h1.257l4.297 5.535v-5.535z"/></svg>