<svg xmlns="http://www.w3.org/2000/svg" viewBox="0 0 120 29"><path fill="#484848" d="m11.755 5.14-4.219 8.897H6.071L.075.219h3.604l3.212 7.539 3.506-7.54h2.735l3.506 7.54 3.193-7.54h3.603l-5.976 13.819h-1.465L11.755 5.14M28.493.219v13.643h-3.398V.219h3.398m14.619 0-4.443 6.406 6.025 7.237h-4.258l-5.4-6.397v6.397h-3.398V.219h3.398v6.143L39.372.219h3.74m6.436 0v13.643h-3.399V.219h3.399m10.498 5.059L64.43.218h2.959v13.644h-3.398V5.346l-3.682 4.277h-.517L56.11 5.346v8.516h-3.398V.219h2.959l4.375 5.059m20.459 6.084v2.5H70.446V.219h9.922v2.5h-6.523v2.86h6.22v2.5h-6.22v3.283h6.66M83.083.219h6.015c2.32 0 4.16.638 5.508 1.914 1.35 1.27 2.03 2.91 2.031 4.932 0 2.12-.686 3.78-2.06 4.99-1.37 1.2-3.32 1.81-5.859 1.807h-5.635V.219m3.398 2.5v8.643h2.217c1.44 0 2.54-.394 3.301-1.182.762-.794 1.14-1.84 1.142-3.135 0-1.34-.387-2.4-1.162-3.164-.768-.775-1.88-1.16-3.32-1.162h-2.178m16.194-2.5v13.643h-3.399V.219h3.399m11.14 0 6.055 13.643h-3.652l-1.123-2.696h-6.104l-1.016 2.696h-3.603L109.87.219h3.945m.274 8.564-2.198-5.302-2.002 5.302h4.2"/><path fill="#666" d="m23.631 17.99-1.342 10.442h-2.023l1.342-10.442zm10.929 0-1.328 10.442h-1.92l-3.936-7.073-.893 7.07h-2.02l1.341-10.442h2.022l3.86 6.821.852-6.817h2.022zm9.792.246-.334 1.93a7.133 7.133 0 0 0-2.3-.383c-1.29 0-2.28.404-2.994 1.211a4.156 4.156 0 0 0-1.065 2.848c0 .853.244 1.53.734 2.037.491.506 1.15.759 1.982.759 1.02 0 2.18-.408 3.46-1.219l-.293 2.324c-1.13.548-2.24.823-3.344.823-1.38 0-2.5-.441-3.35-1.323-.854-.883-1.28-2.03-1.28-3.454 0-1.74.575-3.16 1.729-4.27 1.15-1.11 2.65-1.66 4.475-1.664.798 0 1.66.127 2.58.382zm10.426-.246-.838 6.51c-.345 2.71-1.8 4.06-4.378 4.065-1.36 0-2.4-.335-3.126-1.006-.726-.67-1.09-1.6-1.09-2.8 0-.263.02-.54.055-.828l.783-5.942h2.023l-.77 5.911c-.023.2-.034.387-.034.56 0 .719.2 1.26.6 1.627.398.367.92.55 1.559.55.65 0 1.18-.2 1.607-.595.422-.396.68-.973.777-1.73l.81-6.323h2.022zm1.982 0h3.023c1.03 0 1.82.228 2.36.684.538.456.806 1.07.806 1.843 0 1.03-.46 1.81-1.382 2.324.553.185.987.51 1.301.979.313.469.47.993.47 1.576 0 .797-.291 1.5-.875 2.116-.584.614-1.38.919-2.386.919h-4.659l1.342-10.442zm1.81 1.748-.318 2.295h1.369c.43 0 .763-.112.997-.336.232-.224.35-.526.35-.904 0-.703-.444-1.05-1.335-1.055zm-.53 4.037-.402 2.915h1.921c.55 0 .968-.138 1.256-.411.289-.274.433-.648.432-1.12a1.066 1.17 0 0 0-.475-1.022c-.32-.242-.75-.362-1.295-.362zm12.045-5.92L71.76 28.43h-2.077l-.292-2.28h-2.955l-.927 2.28h-2.227l4.66-10.576h2.145zm-3.065 6.809h2.2l-.504-4.619zm14.644-6.674-.225 1.748h-3.093l-1.116 8.693h-2.023l1.117-8.693h-3.017l.224-1.748h8.13zm5.773-.135c1.38 0 2.51.443 3.378 1.33.87.887 1.31 2.03 1.307 3.431 0 1.76-.513 3.19-1.538 4.294-1.03 1.1-2.34 1.66-3.944 1.656-1.39 0-2.54-.456-3.439-1.368-.904-.912-1.36-2.07-1.355-3.483 0-1.68.53-3.08 1.59-4.19 1.06-1.11 2.4-1.67 4.003-1.67zm-.783 8.783c.94 0 1.74-.377 2.394-1.13.656-.75.984-1.67.984-2.743 0-.862-.258-1.57-.773-2.137-.515-.564-1.17-.846-1.958-.845-.917 0-1.71.377-2.37 1.13a3.412 3.745 0 0 0-.994 2.697c0 .89.253 1.62.759 2.182.507.563 1.16.846 1.958.846zm7.912-8.648h3.262c1.02 0 1.81.309 2.367.93.559.62.84 1.36.84 2.209 0 .688-.182 1.28-.548 1.77-.365.494-.889.814-1.57.958v.03c.382.164.716.573 1 1.225l1.465 3.319h-2.233l-.905-2.114c-.405-.937-.718-1.52-.94-1.757-.223-.234-.584-.351-1.084-.352h-.43l-.53 4.223H93.24l1.327-10.442zm1.798 1.748-.36 2.848h1c.613 0 1.09-.143 1.43-.43.34-.287.51-.649.51-1.087 0-.414-.14-.739-.422-.975-.281-.237-.672-.355-1.172-.356z"/></svg>