<svg viewBox="0 0 120 29" xmlns="http://www.w3.org/2000/svg"><g fill="#484848"><path d="m11.7 4.92-4.22 8.9H6.02L.02.02h3.6l3.21 7.54L10.34.02h2.74l3.51 7.54L19.78.02h3.6l-5.98 13.8h-1.46l-4.24-8.9M28.4 0v13.6H25V0h3.4M43 0l-4.44 6.41 6.02 7.24h-4.26l-5.4-6.4v6.4h-3.4V.05h3.4v6.14L39.26.05H43M49.5 0v13.6h-3.4V0h3.4M60 5.06 64.38 0h2.96v13.6h-3.4V5.08l-3.68 4.28h-.517l-3.68-4.28v8.52h-3.4V0h2.96l4.38 5.06M80.4 11.1v2.5H70.3V0h9.92v2.5H73.7v2.86h6.22v2.5H73.7v3.28h6.66M83 0h6.02c2.32 0 4.16.638 5.51 1.91 1.35 1.27 2.03 2.91 2.03 4.93 0 2.12-.686 3.78-2.06 4.99-1.37 1.2-3.32 1.81-5.86 1.81H83V.04m3.4 2.5v8.64h2.22c1.44 0 2.54-.394 3.3-1.18.762-.794 1.14-1.84 1.14-3.14 0-1.34-.387-2.4-1.16-3.16-.768-.775-1.88-1.16-3.32-1.16H86.4M103 0v13.6h-3.4V0h3.4M114 0l6.06 13.6h-3.65l-1.12-2.7h-6.1l-1.02 2.7h-3.6l5.5-13.6h3.94m.274 8.56-2.2-5.3-2 5.3h4.2"/></g><g fill="#666"><path d="m38.8 19.8.387 8.19h-1.68l-.275-5.53-3.04 5.53h-.827l-1.46-5.69-1.85 5.69h-1.75l2.67-8.19h1.91l1.32 5.15 2.76-5.15h1.85M46.6 19.8l-.194 1.37h-3.37l-.275 1.93h2.96l-.193 1.37h-2.96l-.299 2.15h4.25l-.194 1.36h-5.99l1.15-8.19h5.11M54.8 19.8l-.193 1.37h-2.66l-.96 6.81h-1.74l.961-6.81h-2.6l.193-1.37h7M58.9 19.7l1.44 8.29h-1.79l-.252-1.79h-2.54l-.796 1.79h-1.92l4.01-8.29h1.85m-2.64 5.34h1.89l-.434-3.62-1.46 3.62M64.9 24.5l-.241 1.66h-3.74l.229-1.66h3.76M77 19.8l-4.03 8.29h-.709l-1.32-5.06-2.76 5.06h-.721l-1.67-8.29h1.65l.885 4.82 2.61-4.82h.85l1.25 4.82 2.21-4.82h1.76M79.8 19.8l-1.15 8.19h-1.74l1.15-8.19h1.74M88.5 19.8l-3.67 3.7 3.18 4.49h-2.02l-3.09-4.34-.61 4.34h-1.74l1.15-8.19h1.74l-.492 3.49 3.48-3.49h2.06M91.2 19.8l-1.16 8.19H88.3l1.15-8.19h1.74"/></g></svg>