<svg viewBox="0 0 140 34" xmlns="http://www.w3.org/2000/svg"><g fill="#000" fill-rule="nonzero"><path d="m4.03.025 3.31 9.6 2.96-9.6h3.88l2.93 9.6 3.31-9.6h4.03l-5.82 16.7h-2.76l-3.66-11.6-3.63 11.6H5.82L0 .025h4.03zm26.2 0v16.7H26.5V.025h3.73zm7.83 0v6.86l6.29-6.86h4.6l-6.64 7.39 6.64 9.3H44.6l-4.87-6.59-1.67 1.87v4.73h-3.73V.025h3.73zm16.9 0v16.7h-3.73V.025h3.73zm9.15 0 4.3 9.18 4.33-9.18h5.02v16.7h-3.73v-10.5h-.025l-4.5 9.13h-2.24l-4.48-9.13v10.5h-3.73V.025h5.05zm39.2 0c3.01 0 5.27.746 6.86 2.19 1.59 1.47 2.39 3.48 2.39 6.07 0 2.59-.771 4.65-2.34 6.17-1.54 1.52-3.93 2.26-7.11 2.26h-5.7V.015h5.89zm16.2 0v16.7h-3.73V.025h3.73zm12.8 0 7.21 16.7h-4l-1.54-3.61h-6.99l-1.54 3.61h-3.95l7.21-16.7h3.61zM93.81 0v3.33H85.5v3.43h7.46v3.18H85.5v3.46h8.56v3.28h-12.3V-.02h12zm9.38 3.28h-2.09v10.1h2.36c1.72 0 3.03-.423 3.93-1.29.92-.871 1.37-2.11 1.37-3.76 0-1.64-.448-2.91-1.37-3.78-.92-.895-2.31-1.32-4.2-1.32zM130.39 5l-2.09 4.85h4.18L130.39 5zM34.1 33.9c.934 0 1.78-.202 2.53-.607a4.536 4.536 0 0 0 1.77-1.68c.428-.714.642-1.52.642-2.42s-.214-1.7-.642-2.42a4.572 4.572 0 0 0-1.77-1.68c-.751-.405-1.59-.607-2.53-.607-.934 0-1.78.202-2.53.607a4.505 4.505 0 0 0-1.77 1.69c-.428.719-.642 1.52-.642 2.41s.214 1.69.642 2.41a4.561 4.561 0 0 0 1.77 1.69c.751.405 1.59.607 2.53.607zm0-1.49a3.31 3.31 0 0 1-1.65-.412 2.957 2.957 0 0 1-1.15-1.15 3.28 3.28 0 0 1-.419-1.65c0-.61.14-1.16.419-1.65a2.997 2.997 0 0 1 1.15-1.15 3.32 3.32 0 0 1 1.65-.412c.611 0 1.16.137 1.65.412.489.274.873.658 1.15 1.15a3.28 3.28 0 0 1 .419 1.65c0 .61-.14 1.16-.419 1.65a2.997 2.997 0 0 1-1.15 1.15 3.32 3.32 0 0 1-1.65.412zm15 1.36v-3.5h4.43v-1.44H49.1v-2.78h4.99v-1.42H47.4v9.15h1.7zm14.9 0v-3.5h4.43v-1.44H64v-2.78h4.99v-1.42H62.3v9.15H64zm14.9 0v-9.15h-1.7v9.15h1.7zm13.3.131c.751 0 1.44-.131 2.06-.392s1.15-.64 1.58-1.14l-1.1-1.05c-.664.723-1.48 1.08-2.45 1.08-.629 0-1.19-.137-1.69-.412-.498-.274-.886-.655-1.17-1.14s-.419-1.04-.419-1.66.14-1.17.419-1.66a2.918 2.918 0 0 1 1.17-1.14 3.444 3.444 0 0 1 1.69-.412c.969 0 1.79.357 2.45 1.07l1.1-1.03a4.259 4.259 0 0 0-1.57-1.14 5.27 5.27 0 0 0-2.06-.392c-.926 0-1.76.202-2.51.607-.747.405-1.33.965-1.76 1.68s-.642 1.52-.642 2.42.212 1.7.635 2.42a4.518 4.518 0 0 0 1.76 1.68c.747.405 1.58.607 2.51.607zm18.7-.131v-1.42h-5.17v-2.52h4.43v-1.4h-4.43v-2.38h4.99v-1.42h-6.69v9.15h6.88z"/></g></svg>