<svg xmlns="http://www.w3.org/2000/svg" width="50" height="50"><path fill="#900" d="M16.735 8.292C16.735 3.712 20.435 0 25 0s8.264 3.712 8.264 8.292-3.7 8.291-8.264 8.291c-4.564 0-8.264-3.712-8.264-8.291z"/><path fill="#396" d="M35.001 13.284a15.069 15.069 0 0 1 5.034 11.263c0 7.73-5.795 14.102-13.264 14.981V21.542l8.23-8.258zM9.965 24.547c0-4.478 1.945-8.5 5.034-11.263l8.23 8.257v17.987c-7.469-.88-13.264-7.25-13.264-14.98z"/><path fill="#069" d="M0 24.917A25.056 25.056 0 0 1 8.137 6.399l4.568 4.583A18.383 18.383 0 0 0 6.658 24.64c0 10.163 8.212 18.403 18.342 18.403 10.13 0 18.342-8.24 18.342-18.403a18.383 18.383 0 0 0-6.047-13.657L41.864 6.4A25.054 25.054 0 0 1 50 24.917C50 38.77 38.808 50 25 50 11.193 50 0 38.77 0 24.917z"/></svg>