<svg xmlns="http://www.w3.org/2000/svg" width="50" height="50" viewBox="0 0 50 50">
	<path fill="#900" d="M16.7354 8.292C16.7354 3.7122 20.4354 0 25 0c4.5646 0 8.2644 3.7122 8.2644 8.292 0 4.5794-3.6999 8.2913-8.2644 8.2913-4.5644 0-8.2645-3.712-8.2645-8.2913Z"/>
	<path fill="#396" d="M35.0011 13.2838c3.0888 2.7631 5.0335 6.785 5.0335 11.2636 0 7.7298-5.7951 14.1012-13.2635 14.9808V21.5415l8.23-8.2577ZM9.9654 24.5474c0-4.4787 1.9448-8.5005 5.0333-11.2636l8.23 8.2577v17.9867c-7.4687-.8796-13.2633-7.251-13.2633-14.9808Z"/>
	<path fill="#069" d="M0 24.9168c0-7.3334 3.1366-13.9314 8.1369-18.518l4.5682 4.5836C8.9915 14.35 6.6579 19.221 6.6579 24.6386c0 10.1638 8.212 18.4034 18.342 18.4034 10.1304 0 18.342-8.2396 18.342-18.4034 0-5.4175-2.3333-10.2886-6.0467-13.6562l4.5685-4.5836C46.8643 10.9853 50 17.5836 50 24.9168 50 38.7696 38.808 50 25 50 11.1925 50 0 38.7697 0 24.9168Z"/>
</svg>