<svg xmlns="http://www.w3.org/2000/svg" width="122" height="18" fill="none"><path fill="#1F1A17" d="M23.028.822v.454c-.428 0-.777.075-1.048.229-.266.158-.524.445-.765.865-.162.287-.42.965-.77 2.038l-4.603 13.317h-.487L11.587 7.16 7.848 17.725h-.44L2.5 4.005c-.366-1.024-.6-1.63-.695-1.818A1.61 1.61 0 0 0 1.14 1.5C.86 1.35.478 1.276 0 1.276V.822h6.118v.454h-.291c-.433 0-.761.095-.99.291a.91.91 0 0 0-.341.707c0 .283.179.94.537 1.963l3.252 9.27 2.74-7.88-.486-1.39-.387-1.11a5.923 5.923 0 0 0-.574-1.073 1.589 1.589 0 0 0-.39-.391 2.3 2.3 0 0 0-.608-.316c-.158-.046-.4-.07-.732-.07V.821h6.434v.454h-.441c-.453 0-.786.095-.998.291-.212.195-.316.458-.316.79 0 .416.183 1.14.549 2.171l3.165 8.98 3.144-9.1c.358-1.01.537-1.706.537-2.097a.879.879 0 0 0-.175-.523.933.933 0 0 0-.445-.341c-.308-.117-.712-.17-1.206-.17V.821h4.932ZM29 17.01v.336h-5.313v-.337h.44c.512 0 .883-.15 1.114-.449.147-.193.221-.664.221-1.407V7.147c0-.627-.04-1.042-.118-1.242-.063-.153-.187-.284-.375-.393a1.731 1.731 0 0 0-.842-.218h-.44v-.34H29v.34h-.449c-.505 0-.873.15-1.104.446-.153.196-.23.664-.23 1.407v8.006c0 .627.04 1.042.118 1.242.062.152.19.284.383.393.263.147.54.221.833.221H29Zm6.05-6.535 4.57 4.541c.748.749 1.388 1.26 1.918 1.531.53.272 1.06.425 1.59.462v.337h-5.895v-.337c.353 0 .609-.06.765-.18.156-.12.234-.25.234-.397a.886.886 0 0 0-.088-.393c-.059-.115-.249-.33-.57-.649l-4.28-4.23v3.993c0 .627.04 1.042.122 1.242.059.152.187.284.383.393.262.147.537.221.83.221h.421v.337h-5.28v-.337h.436c.512 0 .883-.15 1.117-.449.147-.193.218-.664.218-1.407V7.147c0-.627-.04-1.045-.118-1.251-.063-.147-.187-.275-.375-.384a1.731 1.731 0 0 0-.842-.218h-.436v-.34h5.28v.34h-.42a1.75 1.75 0 0 0-.83.209.778.778 0 0 0-.394.44c-.074.193-.112.595-.112 1.204v3.793c.125-.116.54-.503 1.254-1.161 1.81-1.656 2.904-2.763 3.281-3.316.163-.243.247-.458.247-.64a.474.474 0 0 0-.194-.37c-.127-.106-.343-.16-.648-.16h-.284v-.34h4.55v.34a2.64 2.64 0 0 0-.73.11c-.217.065-.486.196-.804.387-.315.193-.705.502-1.17.929-.134.122-.751.746-1.855 1.872l-1.89 1.884Zm13.7 6.535v.336h-5.313v-.337h.44c.512 0 .883-.15 1.114-.449.147-.193.221-.664.221-1.407V7.147c0-.627-.04-1.042-.118-1.242-.063-.153-.187-.284-.375-.393a1.731 1.731 0 0 0-.842-.218h-.44v-.34h5.312v.34H48.3c-.505 0-.873.15-1.104.446-.153.196-.23.664-.23 1.407v8.006c0 .627.04 1.042.118 1.242.062.152.19.284.383.393.263.147.54.221.833.221h.45Zm9.032-12.337V8.96h-.337c-.112-.824-.309-1.479-.59-1.965a3.042 3.042 0 0 0-1.213-1.16 3.332 3.332 0 0 0-1.625-.431c-.633 0-1.157.193-1.572.58-.414.387-.62.827-.62 1.32 0 .377.13.723.393 1.032.377.458 1.275 1.067 2.695 1.828 1.157.62 1.949 1.098 2.37 1.431.425.33.752.724.98 1.173.227.452.343.923.343 1.416 0 .94-.365 1.747-1.092 2.427-.73.68-1.666 1.02-2.81 1.02a5.86 5.86 0 0 1-1.017-.084c-.187-.028-.58-.14-1.173-.331-.593-.193-.97-.29-1.13-.29a.488.488 0 0 0-.361.137c-.087.09-.153.281-.197.568h-.336v-4.248h.336c.16.889.375 1.553.643 1.996.268.44.677.808 1.23 1.1a3.806 3.806 0 0 0 1.811.438c.761 0 1.364-.2 1.806-.602.44-.402.661-.877.661-1.426a1.95 1.95 0 0 0-.249-.923c-.169-.312-.43-.599-.783-.867-.237-.184-.886-.571-1.947-1.167-1.06-.592-1.811-1.066-2.26-1.419a3.906 3.906 0 0 1-1.02-1.17 2.922 2.922 0 0 1-.347-1.41c0-.888.34-1.652 1.023-2.295.684-.643 1.55-.964 2.605-.964.658 0 1.357.16 2.093.483.34.153.583.228.72.228.16 0 .29-.046.39-.14.1-.097.181-.287.243-.57h.337Zm5.665 6.871v3.61c0 .78.087 1.263.258 1.453.231.268.58.402 1.049.402h.477v.337h-5.31v-.337h.466c.524 0 .898-.171 1.122-.511.122-.19.185-.64.185-1.345V7.147c0-.78-.082-1.264-.247-1.45-.237-.27-.593-.403-1.06-.403h-.465v-.34h4.541c1.108 0 1.98.115 2.62.343a3.6 3.6 0 0 1 1.62 1.157c.44.543.657 1.185.657 1.928 0 1.01-.334 1.834-1 2.467-.668.633-1.61.951-2.83.951-.296 0-.62-.022-.967-.065a13.51 13.51 0 0 1-1.117-.19Zm0-.52c.324.059.61.106.86.137.25.028.462.044.64.044.633 0 1.179-.244 1.64-.736.459-.49.69-1.124.69-1.903 0-.537-.11-1.036-.328-1.495-.221-.461-.53-.804-.932-1.032a2.71 2.71 0 0 0-1.373-.343c-.309 0-.708.056-1.198.172v5.155ZM73.93 5.63v4.898h2.723c.708 0 1.18-.106 1.416-.319.318-.28.493-.773.53-1.481h.337v4.314H78.6c-.085-.602-.172-.99-.256-1.16a1.15 1.15 0 0 0-.54-.503c-.25-.121-.633-.184-1.15-.184H73.93v4.086c0 .55.025.883.072 1.001.05.119.134.213.256.284.121.069.355.103.695.103h2.102c.7 0 1.21-.047 1.526-.146.318-.097.62-.287.914-.574.377-.378.764-.948 1.16-1.71h.365l-1.067 3.107h-9.55v-.337h.44c.29 0 .567-.072.829-.212a.772.772 0 0 0 .4-.437c.068-.196.102-.595.102-1.197v-8.05c0-.787-.078-1.27-.237-1.454-.218-.244-.583-.365-1.095-.365h-.44v-.34h9.551l.138 2.713h-.36c-.127-.651-.267-1.098-.423-1.341a1.458 1.458 0 0 0-.69-.558c-.243-.09-.673-.137-1.288-.137h-3.4Zm18.788-.957.284 4.21h-.284c-.377-1.26-.917-2.167-1.615-2.722-.702-.555-1.541-.833-2.524-.833a4.1 4.1 0 0 0-2.23.627c-.664.418-1.185 1.082-1.566 1.996-.38.914-.57 2.053-.57 3.41 0 1.12.177 2.092.54 2.916.358.82.897 1.45 1.62 1.89.721.44 1.545.658 2.471.658.805 0 1.513-.171 2.13-.517.615-.344 1.292-1.027 2.028-2.05l.284.181c-.62 1.104-1.347 1.912-2.174 2.424-.83.511-1.812.767-2.954.767-2.052 0-3.643-.761-4.769-2.286-.84-1.133-1.26-2.468-1.26-4.002 0-1.235.278-2.374.83-3.41.555-1.035 1.319-1.837 2.289-2.407a6.204 6.204 0 0 1 3.185-.852c.895 0 1.78.218 2.65.655.257.134.44.203.55.203.162 0 .306-.06.427-.175.16-.162.272-.393.34-.683h.318ZM99.71 17.01v.336h-5.312v-.337h.44c.512 0 .883-.15 1.114-.449.147-.193.221-.664.221-1.407V7.147c0-.627-.04-1.042-.118-1.242-.063-.153-.187-.284-.375-.393a1.731 1.731 0 0 0-.842-.218h-.44v-.34h5.312v.34h-.449c-.505 0-.873.15-1.104.446-.153.196-.23.664-.23 1.407v8.006c0 .627.04 1.042.118 1.242.062.152.19.284.383.393.263.147.54.221.833.221h.45Zm4.369-11.38v4.898h2.723c.707 0 1.178-.106 1.416-.319.318-.28.493-.773.53-1.481h.337v4.314h-.337c-.084-.602-.172-.99-.256-1.16a1.148 1.148 0 0 0-.539-.503c-.25-.121-.634-.184-1.151-.184h-2.723v4.086c0 .55.024.883.071 1.001a.59.59 0 0 0 .256.284c.122.069.356.103.696.103h2.102c.699 0 1.21-.047 1.525-.146.318-.097.621-.287.914-.574.377-.378.764-.948 1.16-1.71h.365l-1.066 3.107h-9.551v-.337h.44c.29 0 .567-.072.829-.212a.772.772 0 0 0 .4-.437c.068-.196.103-.595.103-1.197v-8.05c0-.787-.078-1.27-.238-1.454-.218-.244-.583-.365-1.094-.365h-.44v-.34h9.551l.137 2.713h-.359c-.128-.651-.268-1.098-.424-1.341a1.456 1.456 0 0 0-.689-.558c-.243-.09-.674-.137-1.289-.137h-3.399Zm16.102-.957V8.96h-.337c-.113-.824-.309-1.479-.59-1.965a3.038 3.038 0 0 0-1.213-1.16 3.335 3.335 0 0 0-1.625-.431c-.633 0-1.157.193-1.572.58-.415.387-.621.827-.621 1.32 0 .377.131.723.393 1.032.377.458 1.276 1.067 2.695 1.828 1.157.62 1.949 1.098 2.371 1.431.424.33.751.724.979 1.173.228.452.343.923.343 1.416 0 .94-.365 1.747-1.091 2.427-.731.68-1.666 1.02-2.811 1.02-.362 0-.699-.028-1.017-.084-.187-.028-.58-.14-1.173-.331-.592-.193-.97-.29-1.129-.29a.489.489 0 0 0-.362.137c-.087.09-.152.281-.196.568h-.337v-4.248h.337c.159.889.374 1.553.642 1.996.269.44.677.808 1.23 1.1a3.81 3.81 0 0 0 1.812.438c.761 0 1.363-.2 1.806-.602.439-.402.661-.877.661-1.426a1.96 1.96 0 0 0-.249-.923c-.169-.312-.431-.599-.783-.867-.237-.184-.886-.571-1.947-1.167-1.06-.592-1.812-1.066-2.261-1.419a3.906 3.906 0 0 1-1.02-1.17 2.92 2.92 0 0 1-.346-1.41c0-.888.339-1.652 1.023-2.295.683-.643 1.55-.964 2.604-.964.658 0 1.357.16 2.093.483.34.153.583.228.721.228.159 0 .29-.046.39-.14.099-.097.18-.287.243-.57h.337Z"/></svg>