<svg viewBox="0 0 142 28" xmlns="http://www.w3.org/2000/svg"><g fill="#636467"><path d="m29.1 0-6.07 14.3h-2.45l-3.64-8.32-3.73 8.32h-2.47L4.79 0h4.38l2.91 7.83L15.42 0h3.03l3.28 7.83L24.78 0zM35.3 14.1h-4.23V0h4.23zM53.6 14.1h-5.16l-5.36-6.62v6.62h-4.23V0h4.23v6.32L48.16 0h4.59l-5.22 6.61zM59.7 14.1h-4.23V0h4.23zM79.5 14.1h-4.23V5.91l-3.82 4.74h-.332l-3.83-4.74v8.19h-4.11V0h3.84l4.31 5.3 4.34-5.3h3.84zM93.7 14.1H83.1V0h10.4v2.83h-6.18v2.59h5.89v2.84h-5.89v3.02h6.35zM111 7.32c0 1.45-.262 2.61-.785 3.49-.523.875-1.14 1.59-1.85 2.13-1.01.797-2.41 1.19-4.22 1.19h-7.57V.03h5.83c.879 0 1.63.047 2.25.137.625.094 1.19.223 1.68.387.5.168.926.355 1.28.562.352.207.664.43.941.668.48.395.898.859 1.26 1.39.359.539.648 1.16.859 1.87s.32 1.47.32 2.3zm-4.3-.184c0-1.14-.219-2.04-.652-2.68s-.957-1.07-1.57-1.29a5.476 5.476 0 0 0-1.87-.328h-1.8v8.37h1.8c1.11 0 2.07-.266 2.88-.797s1.21-1.62 1.21-3.27zM118 14.1h-4.23V0H118zM137 14.1h-4.33l-1.14-2.86h-6.09l-1.16 2.86h-4.33l6.2-14.1h4.68zm-6.45-5.32-2.05-5.16-2.07 5.16z"/></g><g fill="#808285"><path d="m6.03 19.9-.273 1.68a3.207 3.207 0 0 0-.418-.254 4.45 4.45 0 0 0-.691-.285 2.419 2.419 0 0 0-.777-.125c-.277 0-.488.074-.641.223a.735.735 0 0 0-.223.527c0 .176.05.332.152.473.102.141.359.387.781.734.625.5 1.05.938 1.29 1.31.234.375.352.797.352 1.27 0 .387-.09.773-.266 1.16-.18.387-.484.711-.914.977-.434.266-1 .398-1.72.398-.527 0-1.04-.074-1.51-.223a4.926 4.926 0 0 1-1.17-.512l.262-1.72c.871.551 1.58.824 2.12.824.344 0 .59-.094.73-.285a1.01 1.01 0 0 0 .219-.625.983.983 0 0 0-.234-.652c-.156-.184-.527-.543-1.11-1.08a6.318 6.318 0 0 1-.801-.848c-.188-.246-.305-.461-.355-.648a2.381 2.381 0 0 1-.078-.633c0-.273.055-.543.16-.816.105-.27.27-.52.496-.746.223-.227.512-.406.859-.539.352-.137.762-.203 1.23-.203.855 0 1.7.203 2.53.613zM15 19.4l-.25 1.72h-2.72l-1.01 6.75H8.88l.992-6.75h-2.71l.262-1.72zM23.2 27.9h-2.35l-.836-1.77c-.246-.531-.461-.934-.645-1.2-.184-.27-.344-.434-.48-.496s-.32-.094-.551-.094h-.324l-.531 3.56h-2.13l1.22-8.48h3.29c1.19 0 2 .266 2.43.793.43.531.641 1.11.641 1.72 0 .648-.176 1.15-.531 1.52-.352.36-.848.582-1.48.668.324.188.574.41.75.66.176.254.387.648.629 1.18zm-2.53-6.02c0-.328-.117-.613-.355-.855-.234-.242-.715-.363-1.43-.363h-.336l-.352 2.45h.852c.598 0 1.02-.125 1.26-.383.242-.254.363-.535.363-.844z"/><path d="M31.2 27.9h-2.24l-.227-1.88h-2.57l-.848 1.88h-2.2l4.26-8.48h2.28zm-2.61-3.07-.402-3.24-1.46 3.24zM39.6 19.4l-.25 1.72h-2.72l-1.01 6.75h-2.14l.992-6.75h-2.71l.262-1.72zM46.8 19.4l-.215 1.51h-3.41l-.262 1.84h2.96l-.211 1.52h-2.98l-.285 2.09h4.14l-.215 1.52h-6.31l1.22-8.48zM56.1 19.7l-.285 1.84c-.883-.25-1.71-.379-2.5-.379s-1.43.145-1.95.434c-.52.293-.895.652-1.12 1.09-.23.438-.348.871-.348 1.31 0 .371.082.719.246 1.05.164.324.406.586.727.785.32.199.695.297 1.13.297a3.867 3.867 0 0 0 1.008-.149c.133-.035.246-.07.34-.102l.172-1.12h-1.48l.219-1.52h3.39l-.59 4.11c-.301.113-.609.22-.93.316-.32.098-.68.184-1.08.258-.398.07-.797.11-1.2.11-.57 0-1.11-.079-1.61-.239-.5-.16-.949-.402-1.35-.73a3.401 3.401 0 0 1-.922-1.21c-.219-.48-.328-1.04-.328-1.66 0-.438.063-.914.188-1.43.125-.516.379-1.04.762-1.57.383-.527.965-.973 1.75-1.33s1.77-.535 2.98-.535c.957 0 1.88.125 2.78.38zM60.1 19.4l-1.26 8.48h-2.16l1.24-8.48zM68.8 19.6l-.359 1.91a7.01 7.01 0 0 0-2.051-.355c-.406 0-.793.066-1.16.199a3.05 3.05 0 0 0-.992.582c-.293.254-.52.559-.68.906-.16.348-.238.727-.238 1.13 0 .41.09.773.266 1.1.18.324.426.578.746.758.316.184.668.273 1.05.273.988 0 2.01-.375 3.06-1.12l-.383 2.34c-.199.078-.422.168-.672.262a9.571 9.571 0 0 1-.641.215 4.848 4.848 0 0 1-.656.14 5.115 5.115 0 0 1-.816.067c-.566 0-1.1-.078-1.6-.238-.5-.16-.949-.406-1.35-.742a3.441 3.441 0 0 1-.93-1.22c-.219-.484-.328-1.04-.328-1.65 0-.504.086-1.03.254-1.57.168-.543.453-1.07.852-1.57s.953-.91 1.67-1.23c.711-.324 1.58-.484 2.61-.484.418 0 .785.024 1.11.07.32.047.734.126 1.25.23zm13 2.39c0 .516-.105.992-.312 1.43-.207.43-.539.781-.992 1.05-.453.27-1.02.402-1.71.402h-1.74l-.434 3.02h-2.17l1.23-8.48h3.16c1.04 0 1.79.242 2.26.727s.703 1.1.703 1.85zm-2.23.117c0-.277-.063-.527-.191-.746a1.274 1.274 0 0 0-.578-.52c-.258-.129-.57-.191-.93-.191h-.199l-.438 2.98h.602c.551 0 .977-.125 1.28-.375.305-.25.453-.637.453-1.15zM88.9 26.4l-.219 1.52h-6l1.22-8.48h2.17l-1.01 6.96zM96.8 27.9h-2.24l-.227-1.88h-2.57l-.848 1.88h-2.2l4.26-8.48h2.28zm-2.61-3.07-.402-3.24-1.46 3.24zM107 19.4l-1.25 8.48h-2.01l-3.29-5.1-.77 5.1h-2.14l1.25-8.48h2.02l3.3 5.09.758-5.09zM118 19.4l-1.26 8.48h-2.01l-3.29-5.1-.773 5.1h-2.14l1.25-8.48h2.02l3.3 5.09.758-5.09zM122 19.4l-1.25 8.48h-2.16l1.24-8.48zM133 19.4l-1.26 8.48h-2l-3.29-5.1-.773 5.1h-2.14l1.25-8.48h2.02l3.3 5.09.758-5.09zM142 19.7l-.285 1.84c-.883-.25-1.71-.379-2.5-.379s-1.43.145-1.95.434c-.52.293-.895.652-1.13 1.09-.23.438-.344.871-.344 1.31 0 .371.082.719.246 1.05.164.324.406.586.727.785s.695.297 1.13.297c.184 0 .367-.016.547-.047.176-.031.332-.062.461-.102a7.53 7.53 0 0 0 .34-.102l.172-1.12h-1.48l.219-1.52h3.39l-.586 4.11c-.301.113-.609.22-.93.316-.32.098-.68.184-1.08.258-.402.07-.801.11-1.2.11-.574 0-1.11-.079-1.61-.239-.5-.16-.949-.402-1.34-.73a3.323 3.323 0 0 1-.922-1.21c-.219-.48-.328-1.04-.328-1.66 0-.438.063-.914.188-1.43.125-.516.379-1.04.762-1.57.383-.527.965-.973 1.75-1.33s1.77-.535 2.98-.535c.953 0 1.88.125 2.78.38z"/></g></svg>