<svg xmlns="http://www.w3.org/2000/svg" width="94" height="30" fill="none"><g clip-path="url(#a)"><path fill="#636467" d="m17.299 0-4.32 10.176h-1.742L8.646 4.255 5.99 10.176H4.233L0 0h3.117L5.19 5.567 7.566 0H9.72l2.332 5.567L14.218 0h3.08ZM21.704 10.046h-3.009V0h3.01v10.046ZM34.72 10.046H31.05l-3.816-4.704v4.704h-3.009V0h3.01v4.494L30.846 0h3.269L30.4 4.704l4.32 5.342ZM39.054 10.046h-3.01V0h3.01v10.046ZM53.178 10.046h-3.01v-5.82l-2.713 3.37h-.238l-2.721-3.37v5.82h-2.923V0h2.728l3.067 3.769L50.449 0h2.729v10.046ZM63.22 10.046h-7.523V0h7.4v2.015h-4.39v1.84h4.189v2.023h-4.19v2.145h4.514v2.023ZM75.494 5.204c0 1.03-.186 1.856-.558 2.479-.372.623-.81 1.128-1.314 1.515-.715.565-1.716.848-3.002.848h-5.384V0h4.146c.624 0 1.158.033 1.602.098.444.065.843.157 1.198.275.356.119.658.252.908.399.25.147.472.306.67.475.34.28.638.611.895.993s.461.824.612 1.326c.151.503.227 1.049.227 1.638Zm-3.06-.13c0-.817-.154-1.454-.464-1.91-.31-.457-.682-.762-1.116-.917a3.935 3.935 0 0 0-1.328-.232h-1.281v5.95h1.28c.788 0 1.47-.188 2.045-.565.576-.377.864-1.152.864-2.326ZM80.375 10.046h-3.01V0h3.01v10.046ZM93.85 10.046h-3.08l-.814-2.037h-4.333l-.828 2.037h-3.081L86.127 0h3.325l4.399 10.046Zm-4.585-3.784-1.461-3.667-1.476 3.667h2.937Z"/><path fill="#808285" d="M2.365 16.493H5.12v1.03H2.365v-1.03Zm.098 2.355h3.115v1.063H1.146v-5.724h4.326v1.063h-3.01v3.598ZM5.84 19.911l2.462-3.394v.965l-2.355-3.295h1.505l1.627 2.298-.63.008 1.603-2.306h1.44l-2.34 3.238v-.949l2.479 3.435H10.1l-1.684-2.429h.605l-1.66 2.43H5.84ZM13.286 16.493h2.756v1.03h-2.756v-1.03Zm.098 2.355H16.5v1.063h-4.433v-5.724h4.326v1.063h-3.01v3.598ZM20.211 20.01a3.52 3.52 0 0 1-1.234-.213 2.919 2.919 0 0 1-1.636-1.562 3.006 3.006 0 0 1-.229-1.186c0-.43.076-.826.229-1.186a2.92 2.92 0 0 1 .654-.94c.284-.268.614-.472.99-.614a3.36 3.36 0 0 1 1.235-.22c.496 0 .943.087 1.34.261.404.17.742.42 1.015.752l-.85.786a1.94 1.94 0 0 0-.655-.5 1.799 1.799 0 0 0-.785-.171c-.267 0-.512.044-.736.13a1.668 1.668 0 0 0-.58.377 1.77 1.77 0 0 0-.385.58 2.03 2.03 0 0 0-.13.745c0 .272.043.52.13.744.093.224.22.417.384.58.164.164.358.29.581.377.224.087.469.13.736.13.284 0 .545-.054.785-.163.24-.114.458-.286.654-.515l.85.785a2.65 2.65 0 0 1-1.013.76 3.328 3.328 0 0 1-1.35.262ZM25.899 20.01c-.812 0-1.447-.227-1.905-.68-.458-.452-.687-1.098-.687-1.938v-3.205h1.325v3.156c0 .545.111.938.335 1.178.223.24.537.36.94.36.404 0 .717-.12.94-.36.224-.24.336-.633.336-1.178v-3.156h1.308v3.205c0 .84-.229 1.486-.687 1.939-.457.452-1.093.678-1.905.678ZM30.809 19.911v-4.645h-1.832v-1.08h4.988v1.08h-1.832v4.645H30.81ZM34.596 19.911v-5.724h1.325v5.724h-1.325ZM38.891 19.911l-2.47-5.724h1.432l2.159 5.07h-.843l2.192-5.07h1.317L40.2 19.91H38.89ZM44.292 16.493h2.756v1.03h-2.756v-1.03Zm.098 2.355h3.116v1.063h-4.432v-5.724H47.4v1.063h-3.01v3.598ZM50.713 19.911v-5.724h2.6c.622 0 1.17.12 1.644.36.474.234.845.564 1.112.989.267.425.4.93.4 1.513 0 .578-.133 1.082-.4 1.513a2.744 2.744 0 0 1-1.112.997c-.474.235-1.022.352-1.644.352h-2.6Zm1.324-1.088h1.21c.382 0 .712-.07.99-.212.284-.147.502-.355.654-.622.159-.267.238-.58.238-.94 0-.365-.08-.679-.237-.94a1.515 1.515 0 0 0-.655-.614c-.278-.147-.608-.22-.99-.22h-1.21v3.548ZM57.387 19.911v-5.724h1.325v5.724h-1.325ZM59.989 19.911v-5.724h2.478c.512 0 .954.084 1.324.253.371.164.657.4.859.712.202.31.303.681.303 1.112 0 .425-.101.793-.303 1.104-.202.305-.488.54-.859.703-.37.164-.812.245-1.324.245h-1.742l.588-.58v2.175H59.99Zm3.639 0-1.431-2.077h1.414l1.448 2.077h-1.431Zm-2.315-2.028-.588-.621h1.668c.409 0 .714-.088.916-.262.202-.18.302-.425.302-.736 0-.316-.1-.562-.302-.736-.202-.175-.507-.262-.916-.262h-1.668l.588-.63v3.247ZM67.139 16.493h2.756v1.03h-2.756v-1.03Zm.098 2.355h3.116v1.063H65.92v-5.724h4.326v1.063h-3.009v3.598ZM74.065 20.01a3.52 3.52 0 0 1-1.235-.213 2.917 2.917 0 0 1-1.636-1.562 3.004 3.004 0 0 1-.229-1.186c0-.43.077-.826.23-1.186.157-.36.375-.673.654-.94.283-.268.613-.472.989-.614a3.36 3.36 0 0 1 1.235-.22c.496 0 .943.087 1.341.261.403.17.742.42 1.014.752l-.85.786a1.94 1.94 0 0 0-.655-.5 1.798 1.798 0 0 0-.785-.171c-.267 0-.512.044-.736.13a1.668 1.668 0 0 0-.58.377 1.77 1.77 0 0 0-.385.58c-.087.224-.13.472-.13.745 0 .272.043.52.13.744.093.224.221.417.385.58.163.164.357.29.58.377.224.087.47.13.736.13.284 0 .545-.054.785-.163.24-.114.458-.286.655-.515l.85.785a2.65 2.65 0 0 1-1.014.76 3.328 3.328 0 0 1-1.35.262ZM78.37 19.911v-4.645H76.54v-1.08h4.988v1.08h-1.831v4.645H78.37ZM84.859 20.01c-.453 0-.872-.074-1.26-.222a3.026 3.026 0 0 1-.997-.621 2.917 2.917 0 0 1-.654-.94 2.986 2.986 0 0 1-.23-1.178c0-.425.077-.818.23-1.178.158-.36.379-.673.662-.94.284-.267.616-.474.998-.622.382-.147.796-.22 1.243-.22.452 0 .867.073 1.243.22a2.935 2.935 0 0 1 1.652 1.562c.158.355.237.747.237 1.178 0 .425-.08.82-.237 1.186-.158.36-.38.673-.663.94a3.003 3.003 0 0 1-.99.613 3.36 3.36 0 0 1-1.234.221Zm-.008-1.13c.256 0 .49-.043.703-.13a1.687 1.687 0 0 0 .949-.957c.092-.223.139-.472.139-.744 0-.273-.047-.52-.14-.744a1.67 1.67 0 0 0-.375-.58 1.601 1.601 0 0 0-.565-.377 1.897 1.897 0 0 0-.711-.131c-.256 0-.493.044-.712.13-.212.088-.4.213-.564.377a1.769 1.769 0 0 0-.384.58 2.03 2.03 0 0 0-.131.745c0 .267.043.515.13.744.093.224.219.417.377.58.164.164.354.29.572.377.219.087.456.13.712.13ZM88.897 19.911v-5.724h2.478c.512 0 .954.084 1.325.253.37.164.656.4.858.712.202.31.303.681.303 1.112 0 .425-.101.793-.303 1.104-.202.305-.488.54-.859.703-.37.164-.812.245-1.324.245h-1.742l.589-.58v2.175h-1.325Zm3.639 0-1.431-2.077h1.414l1.448 2.077h-1.431Zm-2.314-2.028-.59-.621h1.67c.408 0 .713-.088.915-.262.202-.18.302-.425.302-.736 0-.316-.1-.562-.302-.736-.202-.175-.507-.262-.916-.262h-1.668l.589-.63v3.247ZM2.332 29.867v-4.645H.5v-1.08h4.988v1.08H3.657v4.645H2.332ZM6.12 29.867v-5.725h2.477c.513 0 .954.085 1.325.254.37.163.657.4.859.711.201.31.302.682.302 1.112 0 .426-.1.794-.302 1.104-.202.306-.488.54-.859.704-.37.163-.812.245-1.325.245H6.855l.59-.58v2.175H6.118Zm3.639 0-1.432-2.078h1.415l1.448 2.078H9.759Zm-2.315-2.029-.589-.621h1.669c.409 0 .714-.087.916-.262.201-.18.302-.425.302-.736 0-.316-.1-.561-.302-.736-.202-.174-.507-.261-.916-.261H6.855l.59-.63v3.247ZM11.299 29.867l2.551-5.725h1.309l2.56 5.725h-1.39l-2.094-5.054h.523l-2.102 5.054H11.3Zm1.276-1.227.351-1.006h2.944l.36 1.006h-3.655ZM18.23 29.867v-5.725h1.096l3.378 4.122h-.532v-4.122h1.309v5.725h-1.088l-3.386-4.122h.532v4.122h-1.308ZM26.634 29.965a4.77 4.77 0 0 1-1.316-.18c-.42-.125-.758-.286-1.015-.483l.45-.997a3.312 3.312 0 0 0 1.89.597c.261 0 .471-.025.63-.074a.77.77 0 0 0 .359-.22.488.488 0 0 0 .114-.32.42.42 0 0 0-.18-.36 1.37 1.37 0 0 0-.474-.22 7.159 7.159 0 0 0-.654-.164 9.274 9.274 0 0 1-.711-.196 3.036 3.036 0 0 1-.647-.294 1.487 1.487 0 0 1-.482-.475c-.12-.196-.18-.447-.18-.752 0-.327.087-.624.262-.892.18-.272.447-.487.801-.646.36-.163.81-.245 1.35-.245.36 0 .714.044 1.063.13.349.083.657.208.924.377l-.41 1.006a3.347 3.347 0 0 0-.8-.335 2.848 2.848 0 0 0-.786-.115c-.256 0-.466.03-.63.09a.727.727 0 0 0-.351.237.523.523 0 0 0-.106.327c0 .148.06.268.18.36.12.087.278.158.474.213.196.054.412.109.646.163.24.055.477.118.711.189.24.07.458.166.655.286.196.12.354.278.474.474.125.196.188.444.188.744 0 .322-.09.616-.27.883-.18.267-.45.483-.81.646-.354.164-.804.246-1.349.246ZM29.887 29.867v-5.725h1.324v5.725h-1.324ZM33.674 29.867v-4.645h-1.832v-1.08h4.988v1.08H35v4.645h-1.325ZM37.461 29.867v-5.725h1.325v5.725h-1.325ZM42.843 29.965c-.452 0-.872-.074-1.259-.221a3.025 3.025 0 0 1-.998-.622 2.918 2.918 0 0 1-.654-.94 2.983 2.983 0 0 1-.229-1.178c0-.425.076-.817.23-1.177.157-.36.378-.674.662-.94.283-.268.616-.475.997-.622.382-.147.796-.22 1.243-.22.453 0 .867.073 1.243.22a2.933 2.933 0 0 1 1.652 1.562c.158.354.237.747.237 1.177 0 .426-.079.82-.237 1.186-.158.36-.379.673-.662.94a3.002 3.002 0 0 1-.99.614 3.36 3.36 0 0 1-1.235.22Zm-.008-1.129c.257 0 .49-.043.704-.13a1.686 1.686 0 0 0 .948-.957c.093-.224.14-.472.14-.745 0-.272-.047-.52-.14-.744a1.668 1.668 0 0 0-.376-.58 1.604 1.604 0 0 0-.564-.377 1.898 1.898 0 0 0-.712-.13c-.256 0-.493.043-.711.13a1.71 1.71 0 0 0-.565.377 1.772 1.772 0 0 0-.384.58c-.087.224-.13.472-.13.744 0 .268.043.516.13.745.093.223.218.417.376.58.164.164.355.29.573.376.218.088.455.131.711.131ZM46.881 29.867v-5.725h1.096l3.378 4.122h-.532v-4.122h1.308v5.725h-1.087l-3.386-4.122h.532v4.122H46.88ZM56.824 29.867v-4.645h-1.832v-1.08h4.989v1.08h-1.832v4.645h-1.325ZM61.83 26.448h2.756v1.03H61.83v-1.03Zm.098 2.355h3.116v1.064h-4.432v-5.725h4.326v1.063h-3.01v3.599ZM65.264 29.867l2.551-5.725h1.309l2.56 5.725h-1.39L68.2 24.813h.523l-2.102 5.054h-1.357Zm1.276-1.227.351-1.006h2.944l.36 1.006H66.54ZM72.196 29.867v-5.725h1.095l2.437 4.04h-.58l2.396-4.04h1.088l.016 5.725h-1.243l-.008-3.82h.229l-1.914 3.215h-.597l-1.954-3.214h.278v3.819h-1.243Z"/></g><defs><clipPath id="a"><path fill="#fff" d="M0 0h94v30H0z"/></clipPath></defs></svg>