<svg width="100" height="12" viewBox="0 0 100 12" fill="none" xmlns="http://www.w3.org/2000/svg">
<path d="M91.8895 0H95.1729L100 11.6252H96.9124L96.0426 9.44824H91.0198L90.15 11.6252H87.0407L91.8895 0ZM91.7808 7.38007H95.2598L93.5203 2.89543L91.7808 7.38007ZM82.8441 0.19593H85.6925V11.6252H82.8441V0.19593ZM69.3412 0.19593H73.6464C75.973 0.19593 77.756 0.674873 78.9085 1.61099C80.0826 2.56887 80.648 3.98393 80.648 5.87794C80.648 7.79371 80.0826 9.23053 78.9737 10.1667C77.843 11.1245 76.1687 11.647 73.9291 11.6252H69.3412V0.19593ZM72.1461 9.51355H73.9291C75.1903 9.51355 76.1035 9.18699 76.7341 8.5992C77.3646 8.01141 77.6691 7.11883 77.6691 5.8997C77.6691 4.70235 77.3212 3.788 76.6471 3.20021C76.0165 2.59064 74.9946 2.28586 73.6464 2.28586H72.1461V9.51355ZM58.7519 11.6252V0.19593H67.1668V2.24232H61.6003V4.70235H66.8189V6.74874H61.6003V9.53532H67.1668V11.6252H58.7519ZM46.7928 11.6252H43.9443V0.19593H46.5101L50.0761 4.31049L53.6204 0.19593H56.1861V11.6252H53.3159V4.5935L50.3153 8.09849H49.8152L46.7928 4.5935V11.6252ZM38.4649 0.19593H41.3351V11.6252H38.4649V0.19593ZM26.3753 11.6252V0.19593H29.202V5.61669L32.855 0.19593H36.0513L32.0939 5.66023L37.269 11.6252H33.6377L29.202 6.16095V11.6252H26.3753ZM20.9176 0.19593H23.766V11.6252H20.9176V0.19593ZM5.00109 11.7994L0 0.174162H3.13111L5.71864 6.59635L8.6758 0.174162H10.8937L13.8291 6.59635L16.4166 0.174162H19.5477L14.5684 11.7994H13.329L9.78474 4.57173L6.21874 11.7994H5.00109Z" fill="#484848"/>
</svg>
