<svg xmlns="http://www.w3.org/2000/svg" width="100" height="10" viewBox="0 0 100 10">
  <path fill="#666" d="m7.722 1.052-.688 4.903c-.144 1.031-.498 1.814-1.063 2.349-.565.53-1.314.796-2.247.796-.826 0-1.488-.224-1.985-.671C1.246 7.98 1 7.384 1 6.637c0-.155.011-.312.034-.472l.722-5.113h1.047l-.734 5.199c-.015.11-.023.216-.023.318 0 .49.162.874.484 1.155.322.28.74.42 1.251.42.444 0 .834-.104 1.172-.312.341-.213.576-.476.705-.79.129-.316.237-.79.324-1.423l.643-4.567h1.097Zm5.05.21L12.62 2.35a2.478 2.478 0 0 0-1.393-.42c-.425 0-.764.11-1.018.329-.254.22-.381.51-.381.87 0 .178.06.366.182.563.121.197.476.533 1.063 1.007.588.47.975.883 1.16 1.24.19.356.285.713.285 1.069 0 .569-.214 1.06-.643 1.473-.428.413-.999.62-1.712.62-.633 0-1.274-.19-1.922-.569l.165-1.166c.724.505 1.346.757 1.865.757.281 0 .546-.091.797-.273a.883.883 0 0 0 .38-.751c0-.2-.064-.41-.193-.626-.125-.216-.483-.565-1.075-1.046-.587-.482-.972-.899-1.154-1.251a2.351 2.351 0 0 1-.267-1.058c0-.614.254-1.128.762-1.541.508-.418 1.107-.626 1.797-.626.481 0 .967.104 1.456.313Zm4.335-.255 1.547 7.99h-.979l-.477-2.49h-2.491l-1.047 2.49h-1.063l3.509-7.99h1Zm-2.053 4.658h1.984l-.608-3.26-1.377 3.26Zm5.585-4.613h1.165c.816 0 1.44.18 1.872.54.432.36.648.854.648 1.48 0 .69-.366 1.213-1.098 1.57 1.096.378 1.644 1.09 1.644 2.132 0 .66-.265 1.196-.796 1.61-.531.409-1.221.614-2.07.614h-2.469l1.104-7.946Zm.92.91-.312 2.27h.569c.436 0 .783-.108 1.04-.325.262-.22.393-.508.393-.864 0-.732-.453-1.098-1.36-1.098-.102 0-.212.006-.33.017Zm-.443 3.157-.415 2.991h1.2c.61 0 1.079-.12 1.405-.358.326-.239.489-.58.489-1.024 0-.45-.188-.832-.563-1.143a2.037 2.037 0 0 0-1.342-.466h-.774Zm6.57-4.067-1.121 7.946h-1.092l1.114-7.946h1.098Zm2.706 0-1.04 7.058h3.264l-.13.888h-4.26l1.114-7.946h1.052Zm4.96 0-1.12 7.946h-1.093l1.115-7.946h1.098Zm6.62 0-.142.99h-2.236l-.978 6.956H37.52l.978-6.956h-2.235l.142-.99h5.568Zm5.938 0L45.123 5.04l-.558 3.959H43.52l.557-3.959-1.865-3.987h1.109l1.348 2.912 2.03-2.912h1.212Zm5.118 0-1.12 7.946h-1.092l1.114-7.946h1.098Zm8.03 0-1.12 7.946h-.569l-3.952-5.802-.814 5.802h-.99l1.116-7.946h.54l3.97 5.847.824-5.847h.996Zm2.776 0-1.12 7.946h-1.092l1.114-7.946h1.098Zm6.62 0-.142.99h-2.235l-.978 6.956H66l.978-6.956h-2.235l.142-.99h5.568Zm2.116 0-1.12 7.946h-1.093l1.115-7.946h1.098Zm4.231-.045 1.547 7.99h-.978l-.478-2.49h-2.49l-1.047 2.49H72.29l3.51-7.99h1Zm-2.053 4.658h1.985l-.609-3.26-1.376 3.26Zm10.516-4.613-.142.99h-2.235l-.978 6.956H80.81l.978-6.956h-2.235l.142-.99h5.568Zm2.116 0-1.12 7.946h-1.093l1.115-7.946h1.098Zm6.71 0-3.878 8.014h-.41l-1.546-8.014h1.023l1.064 5.546 2.656-5.546h1.092Zm5.16 0-.132.944H95.94l-.347 2.491h2.804l-.125.945h-2.82l-.382 2.621h4.18l-.142.945h-5.215l1.154-7.946h4.203Z"/>
</svg>
