<svg xmlns="http://www.w3.org/2000/svg" height="50" width="135"><path d="M132.124 30.778c0 4.672-1.609 8.673-4.827 12.005-1.012 1.046-1.657 1.568-1.935 1.568-1.748 0-3.781-.18-6.1-.539-.801-.13-1.201-.253-1.201-.367 0-.13.425-.319 1.274-.564 2.548-.735 4.908-2.041 7.08-3.92a15.145 15.145 0 0 0 2.5-2.768c.947-1.323 1.42-2.434 1.42-3.332v-1.03l-4.091.148c-2.891.098-4.337-1.103-4.337-3.602 0-1.551.45-3.217 1.348-4.998 1.029-2.025 2.205-3.038 3.528-3.038 1.96 0 3.414 1.348 4.361 4.043.653 1.878.98 4.01.98 6.394zm-2.254-2.597c0-.996-.343-1.952-1.029-2.866-.751-.98-1.609-1.47-2.573-1.47-.653 0-1.22.245-1.702.735s-.723 1.061-.723 1.715c0 1.437 1.029 2.156 3.087 2.156.768 0 1.748-.09 2.94-.27zM117.974 25.81c0 4.15-2.066 6.224-6.198 6.224h-3.65v-3.626h3.209c3.12 0 4.68-.564 4.68-1.69 0-.785-.711-2.083-2.132-3.896l1.274-3.087c.13-.31.237-.466.318-.466.082 0 .254.188.515.564 1.323 1.943 1.984 3.936 1.984 5.978z"/><path d="M109.845 32.033h-1.618c-1.617 0-3.274-.882-4.973-2.646-.833-.866-2.05-2.467-3.65-4.802.163 4.965-2.639 7.448-8.404 7.448h-5.4v-3.626h5.84c4.215 0 6.322-1.168 6.322-3.504 0-1.241-.735-2.76-2.205-4.557-.931-1.143-2.287-2.54-4.067-4.19-1.47-1.371-2.205-2.13-2.205-2.278 0-2.074.351-3.593 1.053-4.557.164-.212 2.214-1.045 6.15-2.499 4.165-1.535 7.914-2.81 11.245-3.822 0 .457-.27 1.617-.808 3.479-3.97 1.307-9.081 3.144-15.338 5.512 2.908 2.565 6.468 6.583 10.682 12.055 1.487 1.927 2.695 3.168 3.626 3.724.719.424 1.756.637 3.112.637h.637zM85.8 32.033h-6.493c-.849 0-1.698.139-2.548.416-1.127.392-1.69.923-1.69 1.593 0 .245 1.507.665 4.52 1.261 3.014.597 4.52 1.254 4.52 1.973 0 2.466-.71 4.304-2.131 5.512-2.401 2.058-6.631 3.087-12.69 3.087-7.318 0-10.977-2.703-10.977-8.11 0-1.208.261-2.564.784-4.066.523-1.503 1.16-2.744 1.911-3.724.294-.376.563-.58.808-.613.245-.016.368.114.368.392 0 .245-.098.555-.294.931-.947 1.797-1.421 3.659-1.421 5.586 0 1.584.596 2.891 1.789 3.92 1.535 1.34 3.92 2.01 7.154 2.01 2.499 0 4.818-.132 6.958-.393 3.789-.473 5.684-1.282 5.684-2.425 0-.474-.825-.85-2.475-1.127-2.613-.441-4.132-.719-4.557-.833-1.65-.458-2.475-1.16-2.475-2.107 0-.752.4-1.691 1.201-2.818.67-.947 1.372-1.715 2.107-2.303 1.47-1.192 3.56-1.788 6.272-1.788H85.8zM56.689 25.81c0 4.15-2.066 6.224-6.199 6.224h-3.65l-.819-.001v-3.626h4.029c3.12 0 4.679-.563 4.679-1.69 0-.784-.71-2.082-2.132-3.895l1.274-3.087c.131-.31.237-.466.319-.466.082 0 .253.188.514.564 1.323 1.943 1.985 3.936 1.985 5.978z"/><path d="M46.021 32.033h-.76c-1.175 0-2.171-.376-2.988-1.127-.506-.458-1.119-1.29-1.838-2.5-.75 1.324-1.625 2.263-2.621 2.818-1.225.67-2.956 1.005-5.194 1.005-4.394 0-6.59-1.577-6.59-4.729 0-1.062.326-2.156.98-3.283.212-.376.424-.563.636-.563.196 0 .294.163.294.49 0 .18-.024.445-.073.796a6.282 6.282 0 0 0-.074.796c0 1.878 1.593 2.818 4.778 2.818 4.492 0 6.738-.874 6.738-2.622 0-.947-1.299-4.353-3.896-10.216l1.397-2.426c.18-.31.302-.474.367-.49.098.066.22.27.368.613 1.078 2.548 2.507 6.272 4.287 11.172.931 2.548 2.246 3.822 3.945 3.822h.245zM21.703 25.81c0 4.15-2.066 6.224-6.198 6.224h-3.65l-.795-.001v-3.626h4.004c3.12 0 4.68-.563 4.68-1.69 0-.784-.711-2.082-2.132-3.895l1.274-3.087c.13-.31.237-.466.318-.466.082 0 .254.188.515.564 1.323 1.943 1.984 3.936 1.984 5.978z"/><path d="M11.06 32.033H9.59c-1.013 0-1.883-.168-2.61-.503-.726-.334-1.327-.857-1.8-1.568-.474-.71-.821-1.625-1.041-2.744-.221-1.118-.331-2.47-.331-4.054l.024-5.978c0-2.842-.245-6.91-.735-12.202l1.936-2.057c.163-.164.302-.245.416-.246.098 0 .188.197.27.588.081.393.155.92.22 1.58.066.662.123 1.426.172 2.292.049.865.09 1.768.122 2.707a160.866 160.866 0 0 1 .098 5.525v9.138c0 2.597 1.25 3.896 3.749 3.896h.98z"/><text style="line-height:1.25;-inkscape-font-specification:BBCNassim" x="109.798" y="30.314" font-weight="400" font-size="50.176" font-family="BBCNassim" letter-spacing="0" word-spacing="0" stroke-width="1.254"/><text style="line-height:1.25;-inkscape-font-specification:BBCNassim" x="127.566" y="40.801" font-weight="400" font-size="50.176" font-family="BBCNassim" letter-spacing="0" word-spacing="0" stroke-width="1.254"/><path d="M117.372 38.252l-2.426 2.425-2.425-2.45 2.425-2.425zm-5.366 0l-2.426 2.425-2.425-2.45 2.401-2.425zM22.009 38.252l-2.426 2.425-2.425-2.45 2.425-2.425zm-5.366 0l-2.426 2.425-2.425-2.45 2.401-2.425zM48.5 43.127l2.28-2.278 2.302 2.303-2.278 2.278zm-2.841-4.9l2.327-2.278 2.303 2.303-2.303 2.278zm5.586 0l2.303-2.278 2.327 2.303-2.303 2.278z"/></svg>