<svg xmlns="http://www.w3.org/2000/svg" width="120" height="9"><path fill="#000" fill-rule="nonzero" d="M6.804 2.289c.071 0 .088.03.107.071.042.092.058.322.072.59.004.086.048.092.098.036.353-.398.809-.67 1.225-.67.912 0 1.582.876 1.582 1.823 0 .725-.241 1.279-.661 1.69-.367.349-.814.5-1.315.5-.282 0-.558-.05-.777-.138-.092-.037-.126-.049-.126.067v.966c0 .742.099.778.734.814.053.053.053.24 0 .295a39.053 39.053 0 0 0-1.082-.018 34.3 34.3 0 0 0-1.002.018c-.053-.054-.053-.242 0-.295.546-.027.644-.072.644-.814V3.406c0-.518-.098-.563-.581-.608a.595.595 0 0 1-.018-.25c.617-.08.85-.16 1.1-.26ZM2.744.358c1.601 0 2.88 1.09 2.88 2.941 0 .751-.197 1.397-.553 1.904-.49.7-1.282 1.127-2.273 1.127C1.278 6.33 0 5.23 0 3.469 0 1.735 1.013.358 2.745.358Zm5.311 2.369c-.26 0-.67.268-.903.554a.517.517 0 0 0-.143.394v1.627c0 .322.035.374.215.535.16.144.474.189.635.189 1.001 0 1.26-.912 1.26-1.645 0-1.01-.491-1.654-1.064-1.654ZM2.63.679c-.886 0-1.77.76-1.77 2.638 0 1.717 1.027 2.691 2.118 2.691 1.02 0 1.788-.939 1.788-2.54C4.765 1.664 3.81.68 2.63.68Zm12.507 1.61c.072 0 .117.027.117.062 0 0-.036.573-.036 1.017V5.15c0 .742.098.778.644.813.053.054.053.242 0 .295a32.552 32.552 0 0 0-.993-.017c-.357 0-.706.008-1.001.017-.03-.03-.044-.102-.04-.17a1.28 1.28 0 0 1-.738.242c-.45 0-.545-.241-.6-.519h-.017l-.179.143c-.393.304-.663.376-.974.376-.626 0-1.127-.233-1.127-.966 0-.608.617-1.081 1.475-1.296l.77-.188c.026-.009.053-.045.053-.107 0-1.01-.42-1.162-.724-1.162-.34 0-.715.098-.715.375 0 .098.008.152.017.179a.402.402 0 0 1 .027.16c0 .117-.16.305-.42.305-.206 0-.313-.107-.313-.322 0-.51.742-.992 1.475-.992.653 0 1.35.241 1.35 1.51v1.425c.004.362.033.65.269.65.113 0 .263-.088.33-.143.081.045.12.102.14.18l.011.054-.005-.034c.488-.043.579-.097.579-.808V3.406c0-.51-.094-.562-.582-.608a.595.595 0 0 1-.018-.25c.617-.08.97-.16 1.225-.26Zm1.997-1.25c.042 0 .069.021.069.079 0 0-.036.357-.036.938v.349h1.073c.044 0 .071.018.071.054v.178c0 .08-.125.117-.214.117h-.93v2.262c0 .554.053.822.295.822.232 0 .5-.071.733-.25.09.009.143.06.16.152-.348.393-.795.59-1.206.59-.411 0-.688-.25-.688-.885V2.754h-.528c-.036 0-.045-.01-.045-.054v-.116c0-.072.036-.179.161-.179h.412c0-.817-.019-.921-.025-.99l-.002-.03v-.017c0-.062.09-.092.196-.123a1.33 1.33 0 0 0 .304-.126.57.57 0 0 1 .2-.08ZM12.49 4.157l-.706.188c-.662.17-.85.581-.85.984 0 .277.197.634.644.634.25 0 .554-.205.787-.393.071-.054.125-.116.125-.232v-1.18ZM14.868.456c.242 0 .43.25.43.465 0 .189-.215.429-.466.429-.214 0-.429-.232-.429-.465 0-.214.25-.429.465-.429Zm4.372 3.263c.17-1.01.796-1.09 1.01-1.09.34 0 .742.187.742.938 0 .08-.035.124-.134.125l-1.618.027Zm2.342 1.69c-.33.34-.59.483-1.108.483-.322 0-.698-.188-.975-.644-.178-.295-.286-.706-.286-1.225l2.378.018c.108 0 .17-.054.17-.152 0-.75-.268-1.556-1.51-1.556-.778 0-1.789.743-1.789 2.102 0 .5.125.983.42 1.323.304.357.725.572 1.368.572.68 0 1.163-.313 1.52-.778-.027-.09-.08-.134-.188-.143Zm2.45-3.004c-.125 0-.16.107-.16.179V2.7c0 .045.008.054.044.054h.527v2.69c0 .636.278.886.689.886.411 0 .858-.197 1.207-.59-.018-.092-.072-.143-.161-.152-.233.179-.5.25-.733.25-.242 0-.295-.268-.295-.822V2.754h.93c.089 0 .214-.036.214-.117V2.46c0-.036-.027-.054-.071-.054H25.15v-.349c0-.58.036-.938.036-.938 0-.058-.027-.08-.07-.08a.57.57 0 0 0-.199.081 1.33 1.33 0 0 1-.304.126c-.107.03-.196.061-.196.123 0 .104.026.045.026 1.036l-.41.001Zm3.192 1.314c.17-1.01.796-1.09 1.01-1.09.34 0 .742.187.742.938 0 .08-.035.124-.134.125l-1.618.027Zm2.342 1.69c-.33.34-.59.483-1.108.483-.322 0-.698-.188-.975-.644-.179-.295-.286-.706-.286-1.225l2.378.018c.108 0 .17-.054.17-.152 0-.75-.268-1.556-1.51-1.556-.779 0-1.789.743-1.789 2.102 0 .5.125.983.42 1.323.304.357.725.572 1.368.572.68 0 1.163-.313 1.52-.778-.027-.09-.08-.134-.188-.143ZM37.783 0c.08 0 .116.027.116.09 0 0-.036.357-.036.938v1.645c0 .08.033.096.09.045.277-.25.617-.402 1.001-.402.778 0 1.582.67 1.582 1.76 0 1.422-1.063 2.254-1.975 2.254-.316 0-.582-.05-.787-.222-.099-.082-.152-.082-.244.025-.07.08-.158.163-.212.215-.107 0-.152-.036-.197-.107.027-.126.036-.287.036-.635V1.243c0-.751-.107-.707-.572-.733-.054-.054-.072-.197-.054-.269C36.89.215 37.56.09 37.783 0Zm-6.688 2.289c.072 0 .089.03.108.071.042.092.06.414.071.68.004.107.066.045.107 0 .373-.417.84-.724 1.36-.724.464 0 .808.29.893.656.018.077.072.032.099.003.465-.491 1.017-.66 1.475-.66.787 0 .92.626.92 1.422V5.15c0 .733.081.778.573.813.045.054.045.242 0 .295a23.684 23.684 0 0 0-1.833 0c-.045-.053-.045-.241 0-.295.465-.035.554-.08.554-.813V3.576c0-.599-.196-.795-.536-.795-.349 0-.751.116-1.18.59.009.107.009.232.009.357V5.15c0 .733.08.778.527.813.045.054.045.242 0 .295a21.641 21.641 0 0 0-1.788 0c-.045-.053-.045-.241 0-.295.483-.035.554-.08.554-.813V3.594c0-.599-.25-.813-.59-.813-.276 0-.611.181-.965.527a.52.52 0 0 0-.152.376V5.15c0 .733.098.769.552.813.054.054.054.242 0 .295a25.145 25.145 0 0 0-1.866 0c-.054-.053-.054-.241 0-.295.491-.035.608-.08.608-.813V3.406c0-.518-.099-.563-.582-.608a.595.595 0 0 1-.017-.25c.616-.08.849-.16 1.1-.26Zm7.68.42c-.26 0-.527.08-.76.286-.115.102-.152.188-.152.376v2.235c.179.223.367.42.644.42.85 0 1.26-.769 1.26-1.788 0-.867-.446-1.529-.992-1.529Zm11.936-.322c.044 0 .071.027.071.054l-.02.414-.009.222c-.004.11-.006.211-.006.285v1.716c0 .438.08.608.652.653.054.054.054.188 0 .241-.545.063-.858.197-1.055.358a.204.204 0 0 1-.17 0s-.076-.3-.098-.528c-.006-.062-.09-.044-.134-.009-.438.358-.858.537-1.207.537-.885 0-1.153-.6-1.153-1.216V3.397c0-.58-.126-.68-.555-.715-.053-.053-.053-.241 0-.295.304.01.626.018.912.018.134 0 .268-.009.313-.018.045 0 .072.027.072.054 0 0-.036.652-.036.92V4.99c0 .796.447.92.715.92.224 0 .563-.142.894-.428.125-.108.143-.18.143-.35V3.407c0-.59-.116-.697-.554-.724-.054-.053-.054-.241 0-.295.304.01.626.018.912.018.134 0 .268-.009.313-.018ZM43.97 0c.08 0 .116.027.116.09 0 0-.03.295-.035.785v3.272c.168-.024.409-.13.607-.276.23-.17.51-.474.715-.733.083-.104.295-.42-.205-.456-.054-.053-.054-.241 0-.295.205.01.536.018.876.018.322 0 .572-.009.778-.018.053.054.053.242 0 .295-.358.036-.67.107-.94.394l-.786.813c-.036.036-.036.054-.036.09 0 .044.03.084.063.125l1.18 1.484c.239.3.465.34.769.375.054.054.054.242 0 .295a11.475 11.475 0 0 0-1.287 0c-.027 0-.034-.017-.036-.044-.012-.105-.113-.273-.376-.626l-.652-.876a1.16 1.16 0 0 0-.286-.29 1.351 1.351 0 0 0-.385-.05v.778c0 .742.098.778.465.813.054.054.054.242 0 .295a19.355 19.355 0 0 0-1.547-.006l-.223.006c-.289-.01-.619-.017-.966-.017-.357 0-.706.008-1.001.017-.054-.053-.054-.241 0-.295.545-.044.644-.071.644-.813V3.406c0-.51-.094-.562-.582-.608a.595.595 0 0 1-.017-.25c.616-.08.97-.16 1.224-.26.072 0 .117.028.117.063 0 0-.036.573-.036 1.017V5.15c0 .742.098.778.644.813h-.014c.49-.036.586-.078.586-.813V1.243c0-.751-.108-.707-.572-.733-.054-.054-.072-.197-.054-.269C43.076.215 43.746.09 43.97 0Zm-2.19.456c.24 0 .428.25.428.465 0 .189-.214.429-.465.429-.214 0-.429-.232-.429-.465 0-.214.25-.429.465-.429Zm11.372 1.86c.652 0 1.35.241 1.35 1.51v1.425c.003.362.032.65.268.65.113 0 .264-.088.33-.143.102.056.137.131.153.241-.185.179-.507.33-.85.33-.45 0-.545-.24-.599-.518h-.018l-.178.143c-.394.304-.664.376-.975.376-.626 0-1.127-.233-1.127-.966 0-.608.617-1.081 1.476-1.296l.769-.188c.026-.009.053-.045.053-.107 0-1.01-.42-1.162-.724-1.162-.34 0-.715.098-.715.375 0 .098.009.152.018.179a.402.402 0 0 1 .026.16c0 .117-.16.305-.42.305-.205 0-.313-.107-.313-.322 0-.51.742-.992 1.476-.992Zm3.728 0c.652 0 1.35.241 1.35 1.51v1.315c0 .411.009.76.268.76.114 0 .264-.088.33-.143.102.056.138.131.153.241-.185.179-.507.33-.85.33-.45 0-.545-.24-.599-.518h-.017l-.18.143c-.393.304-.663.376-.974.376-.626 0-1.126-.233-1.126-.966 0-.608.617-1.081 1.475-1.296l.769-.188c.027-.009.053-.045.053-.107 0-1.01-.42-1.162-.724-1.162-.34 0-.715.098-.715.375 0 .098.009.152.018.179a.402.402 0 0 1 .027.16c0 .117-.161.305-.42.305-.206 0-.313-.107-.313-.322 0-.51.742-.992 1.475-.992Zm-3.076 1.841-.706.188c-.662.17-.85.581-.85.984 0 .277.197.634.644.634.25 0 .555-.205.787-.393.072-.054.125-.116.125-.232v-1.18Zm3.728 0-.706.188c-.661.17-.85.581-.85.984 0 .277.197.634.644.634.25 0 .555-.205.787-.393.072-.054.125-.116.125-.232v-1.18Zm4.48-.473a.52.52 0 0 1 .152-.376c.34-.333.792-.527 1.144-.527.182 0 .37.117.474.321.09.177.107.42.107.689V5.15c0 .733-.09.769-.554.813-.045.054-.045.242 0 .295.25-.009.554-.017.912-.017.357 0 .652.008.947.017.045-.053.045-.241 0-.295-.5-.044-.599-.08-.599-.813V3.818c0-.492-.033-.926-.241-1.198-.15-.197-.43-.304-.742-.304-.439 0-.975.116-1.52.724-.03.034-.088.125-.088 0l.008-2.012c0-.581.035-.939.035-.939 0-.062-.035-.089-.116-.089-.223.09-.894.215-1.252.241-.017.072 0 .215.054.269.465.026.572-.018.572.733V5.15c0 .742-.105.778-.624.813-.053.054-.053.242 0 .295a24.072 24.072 0 0 1 1.865 0c.054-.053.054-.241 0-.295-.454-.035-.534-.071-.534-.813V3.684Zm4.068.035c.17-1.01.795-1.09 1.01-1.09.34 0 .742.187.742.938 0 .08-.036.124-.134.125l-1.618.027Zm2.342 1.69c-.33.34-.59.483-1.109.483-.321 0-.697-.188-.974-.644-.179-.295-.286-.706-.286-1.225l2.378.018c.107 0 .17-.054.17-.152 0-.75-.268-1.556-1.511-1.556-.778 0-1.788.743-1.788 2.102 0 .5.125.983.42 1.323.304.357.724.572 1.368.572.68 0 1.162-.313 1.52-.778-.027-.09-.08-.134-.188-.143Zm.957-.26c0 .743-.099.779-.6.814-.053.054-.053.242 0 .295.296-.009.6-.017.957-.017.313 0 .608.008.814.017.053-.053.053-.241 0-.295-.367-.035-.465-.071-.465-.813v-.777c.172.004.298.018.384.048.099.067.18.148.286.29l.653.877c.263.353.364.521.376.626.002.027.009.044.035.044a11.475 11.475 0 0 1 1.288 0c.053-.053.053-.241 0-.295-.304-.035-.53-.075-.769-.375l-1.18-1.484c-.032-.04-.063-.08-.063-.125 0-.036 0-.054.036-.09l.787-.813c.268-.287.58-.358.939-.394.053-.053.053-.241 0-.295-.206.01-.456.018-.778.018-.34 0-.67-.009-.876-.018-.054.054-.054.242 0 .295.5.036.288.352.205.456-.205.26-.485.563-.715.733-.199.147-.44.252-.608.276V1.028c0-.581.036-.939.036-.939 0-.062-.036-.089-.117-.089-.223.09-.894.215-1.251.241-.018.072 0 .215.053.269.465.026.573-.018.573.733V5.15Zm3.817-.741c0 .912.608 1.922 1.878 1.922.576 0 1.008-.203 1.313-.5.4-.392.582-.955.582-1.503 0-.93-.51-2.011-1.877-2.011-.589 0-1.074.241-1.401.625-.325.381-.495.902-.495 1.467Zm1.762-1.78c.768 0 1.242.698 1.242 1.985 0 1.127-.58 1.404-1.001 1.404-.93 0-1.234-1.127-1.234-1.815 0-.778.188-1.573.993-1.573Zm2.45 2.379c.035.438.062.858.062 1.234a1.33 1.33 0 0 1 .223-.027c.063 0 .117 0 .18.018.24.062.482.098.813.098.5 0 1.421-.241 1.421-1.127 0-.61-.438-.965-1.046-1.19-.538-.2-.894-.338-.894-.83 0-.367.322-.572.626-.572.197 0 .715.071.831.831.054.054.233.045.287-.009.026-.322.044-.652.053-.948-.277-.044-.706-.17-1.171-.17-.662 0-1.26.43-1.26 1.002 0 .653.294.93.983 1.216.742.304.912.492.912.876 0 .438-.43.626-.76.626-.349 0-.543-.119-.635-.215-.197-.205-.295-.599-.349-.822-.053-.054-.223-.045-.277.009Zm5.23-3.89a.763.763 0 0 1-.465-.17c-.18-.124-.376-.303-.644-.303-.385 0-.59.348-.715.876.053.054.143.062.241.045.09-.295.179-.43.411-.43.152 0 .322.072.483.17.188.125.376.286.572.286.411 0 .67-.348.778-.885a.388.388 0 0 0-.241-.053c-.126.375-.224.465-.42.465Zm.089 3.04v1.18c0 .117-.054.18-.125.233-.233.188-.537.393-.787.393-.447 0-.644-.357-.644-.634 0-.403.188-.814.85-.984l.706-.188Zm0 1.654c.054.278.148.519.599.519.342 0 .664-.152.85-.33-.016-.11-.052-.186-.153-.242-.067.055-.217.143-.33.143-.26 0-.269-.349-.269-.76V3.827c0-1.27-.697-1.511-1.35-1.511-.733 0-1.475.482-1.475.992 0 .215.107.322.313.322.26 0 .42-.188.42-.304a.402.402 0 0 0-.027-.161.618.618 0 0 1-.018-.179c0-.277.376-.375.716-.375.304 0 .724.152.724 1.162 0 .062-.027.098-.054.107l-.769.188c-.858.215-1.475.688-1.475 1.296 0 .733.5.966 1.127.966.31 0 .58-.072.974-.376l.179-.143h.018Zm1.538-.804c.035.438.062.858.062 1.234a1.33 1.33 0 0 1 .224-.027c.062 0 .116 0 .179.018.24.062.482.098.813.098.5 0 1.422-.241 1.422-1.127 0-.61-.438-.965-1.046-1.19-.539-.2-.894-.338-.894-.83 0-.367.321-.572.625-.572.197 0 .716.071.832.831.054.054.232.045.286-.009.027-.322.045-.652.054-.948-.278-.044-.707-.17-1.172-.17-.661 0-1.26.43-1.26 1.002 0 .653.295.93.983 1.216.742.304.912.492.912.876 0 .438-.429.626-.76.626-.348 0-.542-.119-.635-.215-.196-.205-.295-.599-.348-.822-.054-.054-.224-.045-.277.009ZM89.379.24l-.676 1.064c-.073.115-.102.15-.102.25 0 .063.062.117.125.117s.134-.036.268-.17l1.028-.975-.026-.098a.722.722 0 0 0-.492-.205.466.466 0 0 0-.125.017ZM87.33 4.408c0 .912.608 1.922 1.878 1.922.576 0 1.008-.203 1.313-.5.4-.392.582-.955.582-1.503 0-.93-.51-2.011-1.877-2.011-.589 0-1.074.241-1.401.625-.325.381-.495.902-.495 1.467Zm1.762-1.78c.768 0 1.242.698 1.242 1.985 0 1.127-.58 1.404-1.001 1.404-.93 0-1.234-1.127-1.234-1.815 0-.778.188-1.573.993-1.573Zm4.863.054c.483.036.533.145.346.6l-.721 1.752c-.145.353-.192.346-.331-.027l-.645-1.726c-.16-.429-.198-.536.278-.599.054-.053.054-.241 0-.295a30.42 30.42 0 0 1-.903.018c-.295 0-.563-.009-.831-.018-.054.054-.054.242 0 .295.474.056.536.2.719.653l1.14 2.825c.054.134.108.188.224.188.09 0 .151-.057.215-.206l1.192-2.798c.167-.393.265-.617.766-.662.053-.053.053-.241 0-.295-.18.01-.394.018-.626.018-.295 0-.6-.009-.823-.018-.053.054-.053.242 0 .295Zm3.8 1.475v1.18c0 .117-.054.18-.125.233-.233.188-.537.393-.787.393-.447 0-.644-.357-.644-.634 0-.403.188-.814.85-.984l.706-.188Zm0 1.654c.054.278.148.519.599.519.342 0 .664-.152.85-.33-.016-.11-.052-.186-.153-.242-.067.055-.217.143-.33.143-.26 0-.269-.349-.269-.76V3.827c0-1.27-.697-1.511-1.35-1.511-.733 0-1.475.482-1.475.992 0 .215.107.322.313.322.26 0 .42-.188.42-.304a.402.402 0 0 0-.027-.161.618.618 0 0 1-.018-.179c0-.277.376-.375.716-.375.304 0 .724.152.724 1.162 0 .062-.027.098-.054.107l-.769.188c-.858.215-1.475.688-1.475 1.296 0 .733.5.966 1.127.966.31 0 .58-.072.974-.376l.179-.143h.018Zm4.56-2.771c-.016-.358-.03-.588-.072-.68-.019-.04-.036-.071-.107-.071-.25.098-.483.179-1.1.26a.595.595 0 0 0 .018.25c.483.044.581.089.581.607V5.15c0 .742-.107.778-.661.813-.054.054-.054.242 0 .295.312-.009.661-.017 1.019-.017.357 0 .769.008 1.082.017.053-.053.053-.241 0-.295-.626-.044-.734-.071-.734-.813V3.907c0-.232.108-.438.215-.599.098-.143.304-.438.411-.438.08 0 .161.021.23.113.069.09.169.209.325.209.214 0 .42-.224.42-.447 0-.171-.161-.43-.537-.43-.42 0-.786.394-.992.743-.054.098-.097.026-.098-.018Zm2.431.68c.17-1.011.796-1.091 1.01-1.091.34 0 .743.187.743.938 0 .08-.036.124-.134.125l-1.619.027Zm2.343 1.689c-.33.34-.59.483-1.109.483-.322 0-.697-.188-.974-.644-.18-.295-.286-.706-.286-1.225l2.378.018c.107 0 .17-.054.17-.152 0-.75-.269-1.556-1.511-1.556-.778 0-1.788.743-1.788 2.102 0 .5.125.983.42 1.323.304.357.724.572 1.368.572.68 0 1.162-.313 1.52-.778-.027-.09-.08-.134-.188-.143Zm1.833-2.37c-.055.063-.105.085-.108 0-.009-.24-.03-.587-.071-.679-.019-.04-.036-.071-.107-.071-.25.098-.483.179-1.1.26a.595.595 0 0 0 .018.25c.483.044.58.089.58.607V5.15c0 .733-.089.769-.625.813-.054.054-.054.242 0 .295.268-.009.626-.017.984-.017.357 0 .625.008.894.017.053-.053.053-.241 0-.295-.456-.044-.546-.08-.546-.813V3.684c0-.188.08-.296.152-.376.34-.33.742-.527 1.09-.527.18 0 .367.116.475.321.09.18.107.42.107.689V5.15c0 .733-.09.769-.554.813-.045.054-.045.242 0 .295a25.8 25.8 0 0 1 1.86 0c.044-.053.044-.241 0-.295-.501-.044-.6-.08-.6-.813V3.818c0-.492-.035-.921-.241-1.198-.152-.197-.43-.304-.742-.304-.438 0-.936.116-1.466.724Zm5.927 2.093c0 .17-.017.24-.143.349-.33.286-.617.429-.84.429-.483 0-.984-.528-.984-1.645 0-.644.125-1.002.26-1.19a.938.938 0 0 1 .831-.446c.322 0 .545.116.724.321.125.143.152.206.152.483v1.699Zm-.098.659c.043-.035.128-.051.134.011.022.22.098.528.098.528a.204.204 0 0 0 .17 0c.197-.161.51-.295 1.055-.358.054-.053.054-.187 0-.241-.572-.045-.652-.215-.652-.653v-4.05c0-.581.035-.939.035-.939 0-.062-.035-.089-.116-.089-.223.09-.894.215-1.252.241-.017.072 0 .215.054.269.465.026.572-.018.572.733v1.144c0 .063-.018.08-.08.08-.036 0-.403-.151-.698-.151-.59 0-.983.196-1.34.536-.385.384-.618.912-.618 1.574 0 1.1.555 1.904 1.52 1.904.349 0 .68-.179 1.118-.54Zm3.8-1.634v1.18c0 .117-.054.18-.126.233-.232.188-.536.393-.786.393-.447 0-.644-.357-.644-.634 0-.403.188-.814.85-.984l.706-.188Zm0 1.654c.053.278.148.519.599.519.342 0 .664-.152.849-.33-.015-.11-.051-.186-.152-.242-.067.055-.217.143-.33.143-.26 0-.269-.349-.269-.76V3.827c0-1.27-.697-1.511-1.35-1.511-.733 0-1.475.482-1.475.992 0 .215.107.322.313.322.259 0 .42-.188.42-.304a.402.402 0 0 0-.027-.161.618.618 0 0 1-.018-.179c0-.277.376-.375.715-.375.304 0 .725.152.725 1.162 0 .062-.027.098-.054.107l-.769.188c-.858.215-1.475.688-1.475 1.296 0 .733.5.966 1.126.966.312 0 .582-.072.975-.376l.179-.143h.018Z"/></svg>