<svg xmlns="http://www.w3.org/2000/svg" width="124" height="20"><path fill="#000" fill-rule="evenodd" d="M115.706 0c.122 0 .228.055.319.165.09.11.189.29.295.54l4.773 12.613c.159.447.367.771.625.972.257.2.621.328 1.09.38l.262.023c.152 0 .227.061.227.182v.443l-.068.046c-1.197-.03-2.098-.046-2.704-.046l-3.091.046-.023-.046v-.443c0-.121.053-.182.16-.182l.658-.045c.447-.038.75-.135.91-.29.158-.155.181-.392.068-.71l-1.421-3.943h-4.841c-.273 0-.462.028-.568.085a.578.578 0 0 0-.25.312l-1.352 3.375c-.122.303-.1.565.062.785.163.22.453.348.87.386l.681.045c.121 0 .182.061.182.182v.443l-.045.046c-1.69-.03-2.72-.046-3.091-.046l-2.103.046-.045-.046v-.443c0-.121.06-.182.182-.182.568-.037 1.011-.164 1.33-.38.317-.216.628-.673.931-1.37L114.9.841c.107-.242.234-.443.381-.602.148-.16.29-.239.426-.239Zm-.579 2.523h-.023l-2.33 5.909c-.045.106-.01.182.103.227.114.046.276.068.489.068h4.045l-2.284-6.204Zm-8.648 2.045.046.046v.488c0 .053-.053.091-.16.114l-.306.045c-.372.069-.627.15-.767.245-.14.094-.21.255-.21.483v7.09c0 2.448-.762 4.274-2.285 5.478-.666.553-1.488.83-2.466.83-.303 0-.611-.106-.926-.319-.314-.212-.471-.492-.471-.84a.7.7 0 0 1 .284-.569c.189-.151.375-.227.556-.227.463 0 .834.197 1.114.591.19.258.394.386.614.386.166 0 .322-.032.466-.096.144-.065.297-.201.46-.41.163-.208.303-.48.42-.818.118-.337.216-.806.296-1.409.08-.602.12-1.305.12-2.108v-7.58c0-.25-.075-.427-.222-.533-.148-.106-.408-.17-.779-.194l-.648-.045c-.09 0-.136-.038-.136-.114v-.488l.023-.046a146.1 146.1 0 0 0 2.693.046l2.284-.046Zm-6.92 0 .022.046v.488c0 .076-.045.114-.136.114h-.705c-.416 0-.68.078-.79.233-.11.155-.164.483-.164.983v7.09c0 .448.06.749.182.904.12.156.378.237.772.245h.705c.09 0 .136.045.136.136v.489l-.022.045a99.165 99.165 0 0 0-2.682-.045l-2.603.045v-.557c0-.076.038-.113.114-.113h.727c.41-.008.67-.091.784-.25.114-.16.17-.459.17-.898v-6.16l-4.795 6.49v.045c0 .31.05.517.148.62.099.102.337.153.716.153.091 0 .136.045.136.136v.489l-.022.045a50.89 50.89 0 0 0-1.887-.045l-2.58.045-.022-.045v-.512c0-.075.038-.113.114-.113h.716c.409-.008.666-.084.772-.228.106-.144.16-.435.16-.875v-7.09c0-.523-.054-.864-.16-1.023-.106-.16-.363-.239-.772-.239h-.694c-.09 0-.136-.03-.136-.09v-.512l.068-.046 2.534.068 2.648-.068.045.046v.488c0 .076-.045.114-.136.114h-.693c-.417 0-.68.08-.79.239-.11.159-.165.492-.165 1v6.307l4.796-6.523c0-.175-.006-.309-.017-.404a1.071 1.071 0 0 0-.091-.307.455.455 0 0 0-.25-.238 1.206 1.206 0 0 0-.46-.074c-.076 0-.114-.03-.114-.091v-.511l.046-.046c.681.03 1.246.046 1.693.046l2.682-.046Zm-22.177.034c.557.023.88.034.972.034.113 0 .454-.008 1.022-.022a53.528 53.528 0 0 1 1.341-.023c.341 0 .853.008 1.534.023.682.015 1.175.022 1.478.022.265 0 .693-.01 1.284-.034.59-.022.992-.034 1.204-.034v.489c0 .038-.02.074-.062.108a.204.204 0 0 1-.13.05h-.364c-.417 0-.701.084-.853.25-.151.168-.227.455-.227.865v7.216c0 .439.053.738.16.897.105.16.332.243.68.25h.399c.098 0 .204.044.318.131.113.087.17.199.17.335l.137 3.137h-.58a7.486 7.486 0 0 0-.187-.836 4.097 4.097 0 0 0-.336-.79 2.488 2.488 0 0 0-.545-.698c-.212-.186-.494-.341-.847-.466a3.572 3.572 0 0 0-1.199-.188h-4.397c-.447 0-.847.078-1.2.233-.352.156-.624.34-.817.551a2.937 2.937 0 0 0-.495.768 3.88 3.88 0 0 0-.273.767c-.045.212-.08.431-.102.659h-.59l.147-3.137c0-.144.04-.257.12-.34a.362.362 0 0 1 .266-.126h.375c.614 0 1.012-.333 1.194-1 .553-2.47.83-5 .83-7.59 0-.092-.012-.18-.035-.268a1.125 1.125 0 0 0-.125-.284.622.622 0 0 0-.295-.244 1.229 1.229 0 0 0-.5-.091h-.625c-.091 0-.137-.038-.137-.114v-.534c.303 0 .733.012 1.29.034Zm4.528.898h-2.375a.613.613 0 0 0-.414.142.711.711 0 0 0-.21.261.583.583 0 0 0-.046.2 78.859 78.859 0 0 1-.375 4.25 58.961 58.961 0 0 1-.38 2.806c-.103.591-.154.917-.154.978 0 .181.148.272.443.272h3.511c.402 0 .658-.083.768-.25.11-.166.164-.462.164-.886v-6.66c0-.431-.053-.725-.159-.88-.106-.155-.363-.233-.773-.233Zm-8.659-.886c.015.78.121 1.712.318 2.795l-.58.068a4.487 4.487 0 0 0-.232-.693 4.022 4.022 0 0 0-.37-.642 1.61 1.61 0 0 0-.636-.54 2.083 2.083 0 0 0-.92-.193h-1.864c-.235 0-.405.034-.511.102-.106.069-.16.197-.16.387V9.34h1.74c.302 0 .516-.06.641-.182.125-.121.214-.31.267-.568l.137-.489c0-.075.049-.113.147-.113h.387c.038 0 .057.022.057.068-.099.886-.148 1.462-.148 1.727 0 .144.05.678.148 1.603l-.057.045h-.387c-.113 0-.17-.038-.17-.114l-.114-.511c-.045-.25-.136-.434-.272-.551-.137-.118-.349-.176-.637-.176h-1.738v3.886c0 .212.055.358.164.438.11.08.279.119.506.119h2c.652 0 1.144-.18 1.477-.54.334-.36.61-.884.83-1.574l.58.068c-.28 1.114-.444 2.061-.49 2.841h-6.147l-2.295.046-.023-.046v-.511c0-.076.045-.114.136-.114l.534-.045c.356-.038.6-.11.733-.216s.2-.277.2-.511V5.989c0-.258-.07-.438-.211-.54-.14-.102-.38-.165-.722-.188l-.534-.045c-.09-.015-.136-.046-.136-.091v-.511l.023-.046 2.318.046H73.252ZM53.433 6.386c0-.507-.051-.83-.154-.966-.102-.136-.361-.204-.778-.204h-.693c-.091 0-.137-.03-.137-.091v-.511l.046-.046 2.58.046 1.727-.023h2.954l1.739.023 2.682-.046.045.046v.488c0 .076-.045.114-.136.114h-.727c-.417 0-.677.066-.779.199-.102.132-.153.449-.153.949v7.227c0 .455.055.748.165.88.11.133.365.2.767.2h.727c.09 0 .136.045.136.136v.489l-.045.045-2.682-.045-2.466.045-.045-.045v-.512c0-.075.045-.113.136-.113h.636c.41 0 .667-.072.773-.216.106-.144.16-.432.16-.864V6.41c0-.379-.082-.625-.245-.738-.163-.114-.392-.17-.688-.171h-2.84c-.296 0-.53.059-.7.176-.17.118-.255.362-.255.733v7.182c0 .455.057.748.17.88.114.133.375.2.784.2h.603c.09 0 .136.045.136.136v.489l-.045.045-2.557-.045-2.58.045-.023-.045v-.512c0-.075.038-.113.114-.113h.716c.409 0 .667-.07.773-.21.106-.14.159-.43.159-.87V6.386Zm-12.387-1.75 2.648-.068.045.046v.488c0 .076-.045.114-.136.114h-.693c-.417 0-.68.08-.79.239-.11.159-.165.492-.165 1v6.307l4.796-6.523c0-.175-.006-.309-.017-.404a1.07 1.07 0 0 0-.091-.307.455.455 0 0 0-.25-.238 1.206 1.206 0 0 0-.46-.074c-.076 0-.114-.03-.114-.091v-.511l.045-.046c.682.03 1.247.046 1.694.046l2.681-.046.023.046v.488c0 .076-.045.114-.136.114h-.705c-.416 0-.68.078-.79.233-.11.155-.164.483-.164.983v7.09c0 .448.06.749.182.904.12.156.378.237.772.245h.705c.09 0 .136.045.136.136v.489l-.023.045a99.165 99.165 0 0 0-2.681-.045l-2.603.045v-.557c0-.076.038-.113.114-.113h.727c.41-.008.67-.091.784-.25.114-.16.17-.459.17-.898v-6.16l-4.795 6.49v.045c0 .31.05.517.148.62.098.102.337.153.716.153.09 0 .136.045.136.136v.489l-.022.045a50.89 50.89 0 0 0-1.887-.045l-2.58.045-.022-.045v-.512c0-.075.038-.113.113-.113h.716c.41-.008.667-.084.773-.228.106-.144.16-.435.16-.875v-7.09c0-.523-.054-.864-.16-1.023-.106-.16-.364-.239-.773-.239h-.693c-.09 0-.136-.03-.136-.09v-.512l.068-.046 2.534.068Zm-10.5 9.08c0 .212.038.388.114.529.075.14.181.238.318.295.136.057.26.093.37.108.109.015.236.023.38.023.121 0 .182.06.182.181v.444l-.046.045a66.352 66.352 0 0 0-2.227-.045l-2.42.045-.046-.045v-.444c0-.12.06-.181.182-.181h.443c.386 0 .65-.074.79-.222.14-.148.21-.392.21-.733V6.24c0-.349-.072-.606-.216-.773-.144-.167-.405-.25-.784-.25h-.443c-.121 0-.182-.06-.182-.182v-.42l.045-.046c1.053.03 1.86.046 2.42.046l2.183-.046.045.046v.42c0 .121-.06.182-.182.182-.181 0-.33.009-.443.028-.113.02-.23.06-.352.125a.554.554 0 0 0-.261.313c-.054.144-.08.33-.08.557v2.795c.348 0 .67-.05.966-.153.295-.103.54-.224.733-.364.193-.14.379-.33.557-.568.178-.239.314-.45.409-.636.094-.186.206-.419.335-.7l.301-.653c.072-.155.182-.356.33-.602.147-.246.288-.436.42-.568.133-.133.298-.25.494-.353.197-.102.402-.153.614-.153.424 0 .748.099.972.296a.956.956 0 0 1 .335.75.859.859 0 0 1-.261.619.844.844 0 0 1-.625.267 1.34 1.34 0 0 1-.67-.205c-.13-.06-.308-.09-.535-.09-.205 0-.47.386-.795 1.159-.122.28-.235.522-.341.727a6.549 6.549 0 0 1-.426.693 2.455 2.455 0 0 1-.62.63 1.99 1.99 0 0 1-.773.325c.584 0 1.103.21 1.557.63.455.42.818.945 1.091 1.574a12.58 12.58 0 0 0 .87 1.818c.2.357.412.644.636.864.223.22.434.33.63.33h.194c.166 0 .25.06.25.181v.444l-.046.045-1.693-.023c-.19 0-.37-.04-.54-.119-.17-.08-.33-.203-.477-.37a8.31 8.31 0 0 1-.386-.465 3.61 3.61 0 0 1-.347-.585 14.921 14.921 0 0 1-.489-1.086c-.318-.818-.575-1.375-.772-1.67-.447-.674-1.08-1.064-1.898-1.17v3.863ZM16.5 4.636l2.648-.068.046.046v.488c0 .076-.046.114-.137.114h-.693c-.417 0-.68.08-.79.239-.11.159-.165.492-.165 1v6.307l4.796-6.523c0-.175-.006-.309-.017-.404a1.07 1.07 0 0 0-.091-.307.455.455 0 0 0-.25-.238 1.206 1.206 0 0 0-.46-.074c-.076 0-.114-.03-.114-.091v-.511l.046-.046c.681.03 1.246.046 1.693.046l2.682-.046.022.046v.488c0 .076-.045.114-.136.114h-.705c-.416 0-.68.078-.79.233-.11.155-.164.483-.164.983v7.09c0 .448.06.749.182.904.12.156.378.237.772.245h.705c.09 0 .136.045.136.136v.489l-.022.045a99.165 99.165 0 0 0-2.682-.045l-2.603.045v-.557c0-.076.038-.113.114-.113h.727c.41-.008.67-.091.784-.25.114-.16.17-.459.17-.898v-6.16l-4.795 6.49v.045c0 .31.05.517.148.62.099.102.337.153.716.153.09 0 .136.045.136.136v.489l-.022.045a50.89 50.89 0 0 0-1.887-.045l-2.58.045-.022-.045v-.512c0-.075.038-.113.114-.113h.716c.409-.008.666-.084.772-.228.106-.144.16-.435.16-.875v-7.09c0-.523-.054-.864-.16-1.023-.106-.16-.363-.239-.772-.239h-.694c-.09 0-.136-.03-.136-.09v-.512l.068-.046 2.534.068ZM5.818.284c3.334 0 5 1.186 5 3.557 0 .621-.206 1.218-.619 1.79a4.137 4.137 0 0 1-1.54 1.312c1.084.31 1.943.805 2.58 1.483.636.678.954 1.547.954 2.608 0 .424-.053.832-.159 1.222-.106.39-.299.778-.58 1.164-.28.387-.634.72-1.062 1-.428.28-.988.508-1.682.682-.693.175-1.486.262-2.38.262-.75 0-1.4-.008-1.95-.023-.548-.015-1.009-.023-1.38-.023l-2.955.046L0 15.318v-.443c0-.121.053-.182.16-.182l.704-.045c.507-.038.835-.112.983-.222.147-.11.221-.361.221-.755V1.954c0-.386-.074-.636-.221-.75-.148-.113-.476-.189-.983-.227L.159.932C.053.932 0 .879 0 .772V.308L.045.284c1.064.013 1.96.02 2.69.022H3c.386 0 .89-.003 1.511-.01.466-.007.828-.01 1.085-.011l.222-.001Zm.205 7.307H3.955v5.91c0 .4.127.68.38.834.254.156.771.233 1.551.233.857 0 1.572-.077 2.148-.233.576-.155 1.012-.382 1.307-.681.296-.3.5-.622.614-.966.113-.345.17-.748.17-1.21 0-1.107-.358-2.03-1.074-2.773-.716-.743-1.725-1.114-3.028-1.114ZM5.977 1.08c-.34 0-.625.006-.852.017a2.7 2.7 0 0 0-.915.193.33.33 0 0 0-.176.193.96.96 0 0 0-.068.25 3.71 3.71 0 0 0-.011.346v4.717h1.727c2.227 0 3.34-.89 3.34-2.671 0-.56-.094-1.05-.283-1.466-.19-.417-.442-.735-.756-.954a3.355 3.355 0 0 0-.972-.478 3.63 3.63 0 0 0-1.034-.147Z"/></svg>