<svg xmlns="http://www.w3.org/2000/svg" width="120" height="18"><path fill="#000" fill-rule="nonzero" d="M29.94 0a1.69 1.69 0 0 0-.814.19c-.239.124-.374.273-.374.433v6.69c0 .107.053.23.136.407.084.16.176.244.272.244h3.157c.25 0 .373.187.373.542v2.248a.549.549 0 0 1-.136.325c-.071.089-.12.136-.203.136h-3.157c-.167 0-.31.112-.442.325-.119.213-.203.438-.203.704v4.957c0 .142.133.274.407.434a1.984 1.984 0 0 0 1.8 0c.298-.16.44-.328.44-.488v-3.332c0-.248.075-.483.17-.731.108-.266.23-.407.374-.407h2.953c.12 0 .22-.112.34-.325.119-.23.17-.456.17-.704V6.962c0-.16-.031-.3-.103-.407-.06-.124-.142-.19-.237-.19H31.57c-.107 0-.21-.065-.306-.189a.618.618 0 0 1-.101-.379V.623c0-.16-.123-.31-.374-.433a1.866 1.866 0 0 0-.848-.19ZM3.396.38c-.597 0-1.16.186-1.698.541A3.746 3.746 0 0 0 .441 2.384C.131 2.987 0 3.652 0 4.36c0 .834.062 1.574.17 2.194.12.621.294 1.146.509 1.572.227.425.504.735.815.948.31.195.636.298 1.018.298.12 0 .355-.038.713-.109.394.142.61.536.61 1.192 0 .727-.104 1.346-.27 1.842 0 1.667.34 2.98.984 3.955.656.958 1.62 1.436 2.885 1.436.406 0 .816-.113 1.222-.38.406-.283.742-.676 1.053-1.137.31-.461.567-.95.746-1.517a5.399 5.399 0 0 0 .272-1.734c.024-.39.034-.68.034-.84 0-.354-.008-.776-.068-1.273a.556.556 0 0 0-.034-.162c-.012-.089-.034-.173-.034-.244 0-.284.052-.547.136-.813.083-.266.194-.425.373-.46.43.195.768.298 1.019.298.441 0 .842-.178 1.188-.515s.624-.787.815-1.354c.19-.585.271-1.196.271-1.87 0-1.187-.123-2.181-.373-2.98-.25-.797-.577-1.387-1.019-1.76A2.404 2.404 0 0 0 11.44.38c-.979 0-1.697.432-2.139 1.3-.441.852-.645 1.948-.645 3.278 0 1.454.276 3.33.849 5.635.012.142 0 .282 0 .406v.46c0 1.224-.133 2.162-.407 2.818-.263.656-.714.975-1.358.975-.585 0-1.036-.207-1.358-.65-.31-.444-.475-1.118-.475-2.005 0-.62.144-1.567.407-2.844.179-1.366.272-2.612.272-3.711 0-.834-.05-1.575-.17-2.249a6.381 6.381 0 0 0-.543-1.815c-.251-.514-.579-.898-.985-1.164-.406-.284-.92-.434-1.493-.434Zm13.578.026c-.262 0-.466.113-.645.325a1.153 1.153 0 0 0-.271.732c0 .213.094.465.237.731L19.01 6.8v.298c0 .249-.05.455-.17.65-.12.178-.323.346-.645.488a3.783 3.783 0 0 0-1.29 1.87c-.215.726-.305 1.617-.305 2.68 0 1.1.233 2.047.747 2.845.525.798 1.18 1.407 1.968 1.815.788.39 1.579.569 2.343.569a5.17 5.17 0 0 0 1.765-.325 5.615 5.615 0 0 0 1.63-1.002c.513-.444.911-1.006 1.221-1.68.31-.674.476-1.405.476-2.221 0-1.082-.091-1.982-.306-2.709-.215-.727-.645-1.346-1.29-1.842-.644-.301-.984-.686-.984-1.165 0-.018.022-.055.034-.108.012-.053 0-.1 0-.136l2.308-4.794c.191-.39.306-.71.306-.976a.641.641 0 0 0-.204-.487c-.108-.107-.249-.163-.475-.163h-9.166Zm20.198 0a.87.87 0 0 0-.679.325 1.124 1.124 0 0 0-.237.732c0 .213.06.465.203.731l2.75 4.605v.298c0 .249-.084.455-.204.65-.12.178-.322.346-.645.488a3.783 3.783 0 0 0-1.29 1.87c-.215.726-.305 1.617-.305 2.68 0 1.1.267 2.047.78 2.845.526.798 1.182 1.407 1.97 1.815.787.39 1.544.569 2.308.569a5.17 5.17 0 0 0 1.765-.325 5.615 5.615 0 0 0 1.63-1.002 4.932 4.932 0 0 0 1.255-1.68c.31-.674.476-1.405.476-2.221 0-1.082-.125-1.982-.34-2.709-.215-.727-.645-1.346-1.29-1.842-.644-.301-.95-.686-.95-1.165 0-.018-.012-.055 0-.108s.034-.1.034-.136l2.308-4.794c.191-.39.272-.71.272-.976 0-.212-.05-.38-.17-.487-.108-.107-.283-.163-.51-.163h-9.13Zm13.51 0c-.226 0-.443.131-.61.38-.167.248-.238.576-.238 1.002v4.849c0 .213-.04.4-.136.542-.095.141-.218.19-.373.19h-.883c-.131 0-.222.149-.305.433a3.305 3.305 0 0 0-.136.92c0 .355.052.656.136.922.083.248.174.379.305.379h.917c.155 0 .256.084.34.244.083.16.135.338.135.568v6.014c0 .23.11.446.374.623.262.16.582.217.916.217.334 0 .59-.048.78-.19.192-.16.272-.374.272-.623V3.196c0-.283.125-.5.34-.677.227-.177.41-.27.577-.27.179 0 .356.205.475.595.12.373.17.87.17 1.49v.352c0 .834.103 1.667.305 2.465.215.798.513 1.446.883 1.978.37.514.769.785 1.222.785.346 0 .696-.168 1.018-.487.323-.337.576-.778.815-1.327a9.444 9.444 0 0 0 .577-1.897c.144-.709.204-1.422.204-2.167.012-.124.034-.264.034-.406.012-.142 0-.254 0-.325 0-1.064-.175-1.796-.51-2.221-.322-.444-.77-.678-1.391-.678h-6.212Zm32.59 0c-.753 0-1.42.206-1.97.596-.549.373-.97.888-1.256 1.544a5.262 5.262 0 0 0-.441 2.14c-.036.302-.034.498-.034.57 0 .354.072.916.204 1.679.06.177.068.346.068.541 0 .657-.534 1.003-1.596 1.003-.406 0-.774.216-1.12.677-.334.461-.612 1.042-.815 1.734a7.137 7.137 0 0 0-.271 1.95c0 .851.122 1.648.373 2.41.263.746.633 1.345 1.086 1.789.466.443.977.65 1.562.65.632 0 1.188-.132 1.63-.434.453-.319.769-.797.984-1.435.226-.639.34-1.454.34-2.411 0-.568-.053-1.187-.137-1.896a29.433 29.433 0 0 0-.373-2.411 42.024 42.024 0 0 0-.679-2.763c0-.053.012-.128 0-.217 0-.089-.022-.173-.034-.244 0-.088.012-.155 0-.244 0-.585.093-1.119.272-1.598.179-.496.424-.871.746-1.138.323-.265.68-.406 1.087-.406.537 0 .935.282 1.222.867.286.585.441 1.39.441 2.384 0 .532-.052 1.076-.136 1.68a17.8 17.8 0 0 1-.34 1.814c-.202 1.206-.305 2.256-.305 3.143 0 .798.073 1.547.204 2.22.143.657.359 1.202.645 1.68.286.461.624.836 1.018 1.084.406.248.857.352 1.358.352.645 0 1.166-.076 1.596-.27.441-.196.79-.514 1.052-.922a4.14 4.14 0 0 0 .611-1.517c.131-.62.204-1.37.204-2.275 0-.798-.083-1.482-.238-2.032-.155-.567-.35-1.017-.577-1.354a2.417 2.417 0 0 0-.747-.732c-.262-.16-.498-.244-.713-.244-.334 0-.59-.028-.78-.08a.883.883 0 0 1-.442-.407c-.107-.213-.17-.513-.17-.921 0-.32.053-.835.136-1.544v-.054c0-.621-.07-1.24-.237-1.842a5.397 5.397 0 0 0-.68-1.599A3.305 3.305 0 0 0 84.833.84 2.894 2.894 0 0 0 83.27.406Zm11.439 0a3.562 3.562 0 0 0-1.63.46c-.5.285-.9.697-1.221 1.247-.31.532-.476 1.178-.476 1.923 0 .62.103 1.222.306 1.842.203.62.48 1.146.815 1.571.334.426.66.697 1.018.786.49 0 .84-.019 1.018-.054.191-.036.407-.157.645-.352a.56.56 0 0 1 .306-.082c.131 0 .244.075.34.217.107.142.169.301.169.46 0 .125-.042.275-.102.488l-3.021 7.206a2.123 2.123 0 0 0-.136.731c0 .266.07.49.238.65.167.142.34.19.543.19h8.69a.686.686 0 0 0 .51-.19.883.883 0 0 0 .27-.65c0-.248-.04-.483-.135-.731L99.87 8.912c-.072-.213-.136-.363-.136-.487 0-.16.074-.32.17-.46.095-.143.208-.218.34-.218.143 0 .255.028.339.082.238.195.432.316.61.352.192.035.542.054 1.02.054.37-.089.717-.36 1.051-.786.335-.425.578-.95.781-1.57.203-.621.306-1.222.306-1.843 0-.745-.153-1.391-.475-1.923-.31-.55-.71-.962-1.223-1.246a3.522 3.522 0 0 0-1.629-.46H94.71ZM67.417.433c-.847 0-1.298.075-1.358.217l-5.533 15.17c-.024.07-.042.183-.102.325-.047.142-.1.255-.135.38-.036.123-.034.217-.034.27 0 .372.13.634.44.758.311.107.752.136 1.325.136h10.727c.585 0 1.013-.03 1.324-.136.31-.124.475-.386.475-.758.012-.089 0-.182 0-.27 0-.09-.01-.183-.034-.272a.498.498 0 0 0-.17-.27L68.742.65C68.716.58 68.55.523 68.3.488a6.288 6.288 0 0 0-.883-.055Zm45.42 0c-.847 0-1.298.075-1.358.217l-5.499 15.17c-.024.07-.076.183-.136.325-.047.142-.1.255-.135.38-.036.123-.034.217-.034.27 0 .372.13.634.441.758.31.107.751.136 1.324.136h10.727c.585 0 1.013-.03 1.324-.136.31-.124.475-.386.475-.758.012-.089.034-.182.034-.27 0-.09-.01-.183-.034-.272-.024-.106-.108-.182-.204-.27L114.162.65c-.025-.07-.157-.127-.408-.162a6.816 6.816 0 0 0-.917-.055Zm-92.809 1.3h3.157c.12 0 .232.057.34.163.107.089.136.239.136.434 0 .106-.02.256-.068.433l-1.12 2.52c-.18.443-.435.65-.781.65-.335 0-.622-.207-.849-.65l-1.222-2.33c-.06-.178-.068-.3-.068-.407 0-.212.04-.409.136-.569.107-.16.208-.243.34-.243Zm20.198 0h3.123c.12 0 .232.057.34.163.107.089.17.239.17.434 0 .106-.02.256-.068.433l-1.12 2.52c-.18.443-.47.65-.815.65-.334 0-.588-.207-.815-.65l-1.222-2.33c-.06-.178-.102-.3-.102-.407 0-.212.04-.409.136-.569.107-.16.242-.243.373-.243Zm57.234.028h.848c.55 0 .815.346.815 1.002 0 .302-.07.63-.238 1.002a2.826 2.826 0 0 1-.61.894c-.108.195-.243.298-.374.298-.084 0-.154-.037-.238-.108a1.436 1.436 0 0 1-.17-.19 2.78 2.78 0 0 1-.644-.867 2.485 2.485 0 0 1-.238-1.029c0-.284.06-.527.204-.704.143-.195.37-.298.645-.298Zm-93.862.135c.502 0 .85.337 1.053.975.203.639.305 1.361.305 2.195 0 .673-.145 1.273-.407 1.787-.25.515-.587.759-1.053.759-.966 0-1.46-.779-1.46-2.357 0-1.046.112-1.853.374-2.438.263-.603.675-.92 1.188-.92Zm90.908.136c.418.195.724.56.95 1.11a4.27 4.27 0 0 1 .374 1.707c0 .425-.06.773-.203 1.056-.144.284-.359.434-.645.434-.43 0-.84-.235-1.222-.732-.382-.514-.578-1.039-.578-1.57 0-.728.103-1.243.306-1.545.203-.301.54-.46 1.018-.46Zm6.756 0c.477 0 .815.159 1.018.46.203.302.306.817.306 1.544 0 .337-.093.684-.272 1.057-.179.354-.426.645-.713.894-.274.23-.54.352-.815.352-.298 0-.523-.14-.679-.407-.143-.283-.203-.64-.203-1.083 0-.568.1-1.14.34-1.707.25-.567.6-.933 1.018-1.11Zm-45.658.054c.382 0 .69.206.917.596.238.39.373.972.373 1.788v.135c0 .426-.074.866-.17 1.327a4.674 4.674 0 0 1-.373 1.192c-.155.32-.307.48-.51.515-.286 0-.585-.366-.848-1.11a6.494 6.494 0 0 1-.373-2.168c0-.62.08-1.128.271-1.57.191-.462.426-.705.713-.705Zm-44.334.27c.227 0 .42.132.611.38.203.248.39.586.51 1.03.119.425.17.894.17 1.408 0 .833-.136 1.536-.374 2.086-.239.532-.577.785-1.019.785-.441 0-.79-.3-1.052-.92a5.324 5.324 0 0 1-.373-2.005c0-.745.144-1.4.407-1.95.274-.55.643-.813 1.12-.813Zm56.08 2.005c.166 0 .291.03.339.136l1.154 3.332c.179.408.272.755.272 1.056 0 .266-.093.406-.272.406H65.89c-.156 0-.238-.13-.238-.379 0-.213.052-.41.136-.623l1.222-3.792c.06-.107.172-.136.34-.136Zm45.453 0c.167 0 .258.03.306.136l1.154 3.332c.18.408.272.755.272 1.056 0 .266-.093.406-.272.406h-2.953c-.155 0-.238-.13-.238-.379 0-.213.052-.41.136-.623l1.256-3.792c.06-.107.172-.136.34-.136Zm-92.775 4.01c.144.088.298.21.442.406.143.177.314.458.577.812.274.337.48.582.61.759.418-.568.736-.97.951-1.22a2.94 2.94 0 0 1 .68-.568c.321.266.597.697.848 1.3.25.585.395 1.176.407 1.761 0 .497-.104 1.03-.271 1.598a6.569 6.569 0 0 1-.68 1.544c-.274.48-.57.881-.916 1.165-.346.266-.684.38-1.018.38-.454 0-.917-.226-1.358-.705-.442-.479-.8-1.097-1.086-1.842-.275-.745-.408-1.448-.408-2.14.036-.55.18-1.15.408-1.788.226-.638.492-1.126.814-1.463Zm20.164 0c.144.088.298.21.442.406.143.177.348.458.61.812.275.337.48.582.612.759.417-.568.735-.97.95-1.22a2.82 2.82 0 0 1 .645-.568c.322.266.632.697.883 1.3.25.585.361 1.176.373 1.761 0 .497-.07 1.03-.237 1.598a6.569 6.569 0 0 1-.68 1.544c-.274.48-.604.881-.95 1.165-.346.266-.684.38-1.018.38-.454 0-.882-.226-1.324-.705-.442-.479-.8-1.097-1.086-1.842-.275-.745-.442-1.448-.442-2.14.036-.55.18-1.15.408-1.788.226-.638.492-1.126.814-1.463Zm57.675.975c.084 0 .144.056.204.162a.832.832 0 0 1 .17.406l1.357 4.47c.036.16.034.301.034.46 0 .249-.04.464-.136.624-.095.142-.208.216-.339.216h-2.58c-.107 0-.232-.074-.34-.216-.095-.16-.135-.375-.135-.623 0-.125.02-.266.068-.46l1.324-4.39c.095-.425.218-.65.373-.65Zm-18.5.596c.489 0 .825.188 1.052.595.238.39.373 1.093.373 2.086v.109c0 .744-.103 1.4-.305 1.95-.203.532-.553.786-1.019.786-.334 0-.642-.282-.916-.867-.275-.585-.408-1.27-.408-2.032 0-.745.113-1.372.34-1.869.238-.514.548-.758.882-.758Zm7.705.054c.43 0 .788.197 1.086.623.299.408.442 1.017.442 1.815 0 1.01-.111 1.798-.374 2.384-.262.585-.632.893-1.086.893-.537 0-.915-.355-1.154-1.029-.239-.674-.374-1.565-.374-2.682a2.53 2.53 0 0 1 .442-1.381c.298-.426.648-.623 1.018-.623Zm-21.76.216h.612c.203.054.356.186.475.434.12.248.17.51.17.758v3.143c0 .195-.07.373-.238.568a.799.799 0 0 1-.645.298h-1.222c-.263 0-.436-.009-.543-.027a.37.37 0 0 1-.238-.135c-.036-.071-.034-.193-.034-.352 0-.284.019-.575.102-.894l.78-2.465c.275-.887.519-1.328.782-1.328Zm3.497 0h.611c.298 0 .574.508.849 1.572l.78 2.275c.024.124.034.35.034.704 0 .426-.277.65-.814.65h-1.222a.867.867 0 0 1-.68-.298.857.857 0 0 1-.203-.568V11.404c0-.23.05-.483.17-.731.12-.266.284-.407.475-.46Zm41.924 0h.61c.204.054.357.186.476.434.12.248.17.51.17.758v3.143c0 .195-.07.373-.238.568a.734.734 0 0 1-.611.298h-1.256c-.263 0-.436-.009-.543-.027a.37.37 0 0 1-.238-.135c-.036-.071-.034-.193-.034-.352 0-.284.053-.575.136-.894l.747-2.465c.274-.887.518-1.328.78-1.328Zm3.496 0h.611c.299 0 .574.508.849 1.572l.78 2.275c.024.124.035.35.035.704 0 .426-.278.65-.815.65h-1.222a.799.799 0 0 1-.645-.298c-.155-.195-.238-.373-.238-.568V11.404c0-.23.084-.483.204-.731.12-.266.25-.407.441-.46Z"/></svg>