<?xml version="1.0" encoding="UTF-8"?>
<svg width="120px" height="18px" viewBox="0 0 120 18" version="1.1" xmlns="http://www.w3.org/2000/svg" xmlns:xlink="http://www.w3.org/1999/xlink">
    <title>pih-wordmark</title>
    <g id="Page-1" stroke="none" stroke-width="1" fill="none" fill-rule="evenodd">
        <path d="M18.5379306,0.00112909058 L18.9131018,0.00178231465 C18.9727503,0.00189615282 19.0308213,0.0020116468 19.0871086,0.00212755475 L19.4017803,0.00281803495 C19.4501086,0.00293063124 19.496241,0.00304115774 19.5399714,0.00314837259 L19.8631224,0.00399036103 L19.9020251,0.00409917997 L19.9020251,0.00409917997 L20.0344947,0.00448710938 L20.0920418,0.0579958887 L20.0920418,0.558757295 C20.0920418,0.697072442 20.0143027,0.765725215 19.8608435,0.765725215 C19.1076822,0.801061201 18.9532135,0.875771572 18.6775928,1.27254422 C18.5438769,1.46548992 18.2944934,1.85467188 18.024458,2.305366 L17.9224123,2.47699655 L15.2792805,7.41999624 C15.2792805,7.41999624 15.2534608,7.47393483 15.2055156,7.57389898 L18.4352889,14.1843136 L18.6311512,14.2378224 L23.7195332,2.16200148 C23.8962132,1.67537446 23.868954,1.3300914 23.6417941,1.12716188 C23.4136245,0.929280352 23.2530982,0.812166797 22.663492,0.787936406 L22.1859514,0.763706016 C22.1273946,0.763706016 22.0718667,0.742504424 22.0183579,0.703130039 C21.9658587,0.665774854 21.9385995,0.616304473 21.9385995,0.556738096 L21.9385995,0.0539574902 L22.0112907,0.00246791016 L27.7599509,0.00246791016 L27.8185076,0.0539574902 L27.8185076,0.556738096 C27.8185076,0.693034043 27.7407685,0.761686817 27.5873093,0.761686817 C26.834148,0.795003604 26.2758394,0.95855874 25.9144028,1.25033303 C25.5519565,1.54412651 25.2692686,1.94897596 25.0663391,2.47497735 C25.0663391,2.47497735 23.6220508,5.78079287 22.0636805,9.32969476 L21.7956619,9.93988772 C20.6315567,12.5894233 19.4464429,15.2765241 18.7856199,16.7456678 C18.172793,17.912765 17.570062,17.8057474 17.0400222,16.712351 C16.6058738,15.8182167 15.8660055,14.2189836 15.1227821,12.5958997 L14.7716683,11.8279683 C14.4985278,11.2297311 14.2314883,10.6430003 13.9859573,10.1024905 C13.7054415,10.6810618 13.3978511,11.3134814 13.0833718,11.9564412 L12.8372933,12.4588029 L12.7138653,12.7101764 L12.7138653,12.7101764 L12.4675457,13.2104949 C11.7721423,14.620287 11.1064438,15.9459034 10.6856023,16.7264854 C9.97080574,17.9693026 9.38220917,17.806757 8.91375495,16.7587926 C7.28728998,12.9213045 3.94753447,6.18323672 2.37558788,2.40733418 C2.08482319,1.71172005 1.86574008,1.26547702 1.65877216,1.08879709 C1.45079464,0.914136358 1.01868601,0.809137998 0.36143666,0.773802012 C0.154612969,0.751302363 0.0367988756,0.705066822 0.00735859774,0.632552257 L7.10542736e-15,0.594093281 L7.10542736e-15,0.0680918848 L0.0585567774,0.0166023047 C0.184459787,0.0158896461 0.367235745,0.015344672 0.591760176,0.0149377908 L1.59988279,0.0140015017 L1.71539787,0.0139657262 L1.71539787,0.0139657262 L2.56907786,0.0139515663 C2.65303409,0.0139677491 2.73747273,0.0139884014 2.82215744,0.0140130608 L4.55565261,0.0149613714 L4.66939221,0.0150490474 L4.66939221,0.0150490474 L5.73042954,0.0159905958 L5.80499758,0.0160650944 L5.80499758,0.0160650944 L6.30797836,0.0166023047 L6.36653514,0.0680918848 L6.36653514,0.568853291 C6.36653514,0.684115913 6.3055385,0.749599666 6.18529799,0.768225844 L6.10605844,0.773802012 L5.45385709,0.801061201 C4.89453891,0.824281992 4.61487982,0.991875528 4.61487982,1.30182261 C4.61487982,1.44619535 4.67343659,1.68042246 4.80367494,1.99642714 C6.03399392,4.99384135 10.2314994,13.8515221 10.3758753,14.1560683 L10.3796936,14.1641216 L10.5382007,14.2055152 L13.3256675,8.64631871 C12.9847843,7.89322789 12.7673967,7.41090985 12.7673967,7.41090985 L10.8511766,3.6451033 C10.8511766,3.6451033 10.4806535,2.89194199 10.3544536,2.64156129 C9.51244752,0.972693135 9.53062031,0.883848369 8.67952784,0.771782813 C8.44126234,0.740485225 8.31809118,0.710197237 8.31809118,0.592074082 L8.31809118,0.0640534863 L8.38977276,0.0125639063 L8.90227076,0.0120167033 L8.99644142,0.0119364307 L8.99644142,0.0119364307 L10.579461,0.0110576584 C10.65299,0.011030661 10.7264507,0.0110050845 10.7996466,0.0109808541 L13.348926,0.010544707 L13.480174,0.0539574902 L13.480174,0.579958887 C13.480174,0.70010124 13.394358,0.761686817 13.2196973,0.761686817 L12.8602798,0.813176397 C11.9516402,0.883848369 12.1000513,1.25538103 12.7037919,2.45781416 L14.542,6.219 L16.5756064,2.16402067 C16.8931591,1.47143534 16.8536456,1.26343987 16.7328688,1.09924218 L16.7058447,1.0645667 C16.6331536,0.977337293 16.4067206,0.843494673 15.933074,0.799934488 L15.7659075,0.788946006 L15.5347092,0.763706016 C15.4761524,0.763706016 15.421634,0.743514024 15.3681253,0.704139639 C15.3331258,0.679236182 15.3097928,0.649396904 15.2981264,0.614023526 L15.2893765,0.556738096 L15.2893765,0.0559766895 L15.3610581,0.00448710938 C15.6092803,0.00274642039 15.9108337,0.00160596899 16.2399493,0.000910521313 L18.3392401,0.000836009062 C18.406498,0.000928735419 18.4727969,0.00102684322 18.5379306,0.00112909058 Z M111.416384,0.120591064 C111.782869,0.120591064 111.915126,0.384096563 112.124113,0.90908836 L117.505279,15.1363661 C117.873783,16.1611097 118.398775,16.5538439 119.448759,16.6588423 L119.737504,16.6840823 C119.868752,16.6840823 120,16.762831 120,16.8950886 L120,17.3928212 L119.921251,17.4453204 C119.921251,17.4453204 119.172369,17.4258689 118.355406,17.410646 L117.827536,17.4016753 C117.478303,17.3963939 117.14336,17.3928212 116.876299,17.3928212 C116.582303,17.3928212 116.118863,17.3981971 115.624528,17.4055083 L115.250149,17.4113009 C114.310543,17.4264207 113.384094,17.4453204 113.384094,17.4453204 L113.358854,17.3928212 L113.358854,16.8950886 C113.358854,16.762831 113.411353,16.6840823 113.54462,16.6840823 L114.279609,16.6315831 C115.276083,16.5538439 115.645597,16.2368296 115.382091,15.5028507 L113.780866,11.0656604 L108.320952,11.0656604 C107.690962,11.0656604 107.533464,11.1706588 107.403226,11.5108939 L105.87974,15.318094 C105.617244,15.9763529 105.958489,16.5548535 106.929723,16.6336023 L107.690962,16.6871111 C107.79596,16.6871111 107.900958,16.7658598 107.900958,16.8960982 L107.900958,17.3948404 L107.848459,17.4483492 C107.848459,17.4483492 104.987254,17.3948404 104.357264,17.3948404 C104.141422,17.3948404 103.826209,17.4001764 103.495909,17.4074784 L103.163703,17.4153109 C102.556885,17.4304141 101.993791,17.4483492 101.993791,17.4483492 L101.940282,17.3948404 L101.940282,16.8960982 C101.940282,16.7658598 102.019031,16.6871111 102.151289,16.6871111 C103.30728,16.6083623 103.961501,16.397356 104.696489,14.7173822 L110.522888,1.0665859 C110.810624,0.384096563 111.021631,0.120591064 111.416384,0.120591064 Z M79.9575876,5.34425464 C80.0059476,5.34425464 80.0287082,5.36273464 80.0258693,5.39963927 C80.051112,5.52850086 80.1073024,5.89848869 80.1944423,6.50962124 C80.2815651,7.12077224 80.3505604,7.64308628 80.4014247,8.07652645 C80.2358306,8.16730187 80.0480546,8.19807727 79.8380934,8.16883418 C79.6734245,7.52770162 79.4650218,7.0330799 79.2128819,6.68500592 C78.9859421,6.37175595 78.6112318,6.1977413 78.088746,6.16297542 L77.9091108,6.15654418 L76.1166951,6.15654418 C75.9118432,6.16271033 75.7582089,6.24272267 75.6557872,6.39654427 C75.5738457,6.51963109 75.5246825,6.66633686 75.5082966,6.83667106 L75.5021529,6.96885218 L75.5021529,10.6611059 L77.2566066,10.661652 C77.8360649,10.6548766 78.2029342,10.5723779 78.3572156,10.4141827 C78.5286275,10.2384288 78.612558,9.902281 78.6090073,9.40573927 C78.6708823,9.35037309 78.7647703,9.32268077 78.8906729,9.32266231 C79.016562,9.32268077 79.1104499,9.35037309 79.1723386,9.40573927 C79.1634413,9.67498245 79.1556177,9.93036101 79.1488662,10.1718934 C79.1421027,10.4134258 79.1385469,10.6872659 79.1381969,10.9934137 C79.1385452,11.2953338 79.1421027,11.5638016 79.1488662,11.7987802 C79.155616,12.0337957 79.1634396,12.3068604 79.1723386,12.6180113 C79.1104499,12.6733959 79.016562,12.7010882 78.8906729,12.7010882 C78.7647703,12.7010882 78.6708823,12.6733959 78.6090073,12.6180113 C78.612558,12.2022573 78.5286275,11.8891679 78.3572156,11.6787986 C78.2029342,11.4894496 77.8360649,11.3851581 77.2566066,11.3659107 L77.0555801,11.3626446 L75.5021529,11.3626446 L75.5021529,15.8118217 C75.5042817,16.0629726 75.5597619,16.2575757 75.6685903,16.3956496 C75.7556476,16.5061088 75.8686547,16.5730045 76.0076118,16.5963275 L76.1166951,16.6056497 L78.4383005,16.6056497 C79.0777319,16.5879636 79.5699342,16.3510465 79.9149105,15.8948987 C80.2598715,15.4387508 80.5130869,14.869526 80.6745549,14.1872242 C80.8967492,14.1339995 81.0959063,14.1647565 81.2720263,14.2795319 C81.2008903,14.762209 81.1084243,15.2783569 80.9946283,15.8279756 C80.8808152,16.3775758 80.7627447,16.8891083 80.6404132,17.3625731 C80.6005733,17.3610223 80.3388242,17.3548746 79.8551642,17.3441115 C79.532714,17.3369238 79.2178539,17.3317956 78.9105838,17.3287214 L78.4553713,17.32565 L74.7634514,17.3259022 C74.6832598,17.3269193 74.4251993,17.33069 73.9892673,17.3371885 C73.4988405,17.3444808 73.0244193,17.3529546 72.5660037,17.3625731 C72.5147912,17.29565 72.4891849,17.1941115 72.4891849,17.0579576 C72.4891849,16.9218037 72.5147912,16.8202652 72.5660037,16.7533421 C73.1506719,16.7548744 73.5475624,16.659502 73.7566804,16.4671881 C73.9467829,16.2923741 74.0451854,15.892497 74.0518891,15.2675846 L74.0518891,7.47615229 C74.0451854,6.85125366 73.9467829,6.45137506 73.7566804,6.27654422 C73.5475641,6.08424876 73.1506719,5.98887642 72.5660037,5.99039027 C72.5147912,5.92348563 72.4891849,5.82194713 72.4891849,5.68579323 C72.4891849,5.54963933 72.5147912,5.44810083 72.5660037,5.38117773 C73.0311776,5.39079619 73.504887,5.39927004 73.9871335,5.40656235 C74.415794,5.41306082 74.6691135,5.41683153 74.747092,5.41784856 L74.7681148,5.41810082 L79.1211261,5.41810082 C79.3170756,5.41848851 79.4714234,5.4131162 79.5841678,5.40194696 C79.6968969,5.39079619 79.8213708,5.37157772 79.9575876,5.34425464 Z M57.6534684,5.17810073 C57.7694354,5.17891303 57.8605499,5.22669151 57.9268116,5.32139924 C57.9764982,5.39245773 58.024088,5.48720354 58.0695811,5.60562887 L58.1143754,5.73194709 L61.6138553,15.7379755 C61.7746289,16.1922034 61.9873715,16.4721912 62.2520835,16.5779574 C62.5167739,16.6837236 62.8161499,16.7421913 63.1502123,16.7533421 C63.2014124,16.8202652 63.2270299,16.9218037 63.2270299,17.0579576 C63.2270299,17.1941115 63.2014121,17.29565 63.1502123,17.3625731 C62.836528,17.3529546 62.5207217,17.3444808 62.2027919,17.3371885 C61.8848408,17.3298777 61.5519637,17.3260192 61.2041601,17.32565 C60.8591819,17.3260192 60.4822057,17.3298777 60.0732306,17.3371885 C59.6642382,17.3444808 59.2957975,17.3529546 58.9679072,17.3625731 C58.9166878,17.29565 58.8910817,17.1941115 58.891089,17.0579576 C58.8910813,16.9218037 58.9166874,16.8202652 58.9679072,16.7533421 C59.3919269,16.7418775 59.7358288,16.7029605 59.9996139,16.6365728 C60.2340743,16.5775615 60.3211018,16.4024093 60.2606967,16.1111162 L60.2311339,15.9964372 L59.1898254,12.8764729 L55.6391336,12.8764729 C55.4403276,12.8745529 55.3002062,12.8968544 55.2187688,12.943396 C55.1576851,12.9783022 55.1092066,13.0333233 55.0733332,13.1084595 L55.0416614,13.1903007 L54.1027764,15.8672064 C53.9952287,16.2330773 54.0780211,16.4696066 54.3511539,16.5768128 C54.6242808,16.6840005 54.9341127,16.7428375 55.2806503,16.7533421 C55.3318583,16.8202652 55.357464,16.9218037 55.3574678,17.0579576 C55.3574637,17.1941115 55.3318579,17.29565 55.2806503,17.3625731 C54.9570159,17.3529546 54.601378,17.3444808 54.2137355,17.3371885 C53.8260873,17.3298777 53.4533788,17.3260192 53.0956091,17.32565 C52.7805125,17.3260192 52.5230306,17.3298777 52.323163,17.3371885 C52.1232935,17.3444808 51.8743471,17.3529546 51.5763227,17.3625731 C51.5251107,17.29565 51.4995046,17.1941115 51.4995046,17.0579576 C51.4995046,16.9218037 51.5251104,16.8202652 51.5763227,16.7533421 C51.9441588,16.7458098 52.2651575,16.6630282 52.5393196,16.5050343 C52.7830174,16.3645953 53.0060628,16.0691704 53.2084565,15.6187598 L53.2833861,15.4425908 L57.0781878,5.8371779 C57.1716082,5.59326396 57.2604463,5.42157159 57.3447027,5.32210078 C57.4289472,5.22264843 57.5318691,5.17464842 57.6534684,5.17810073 Z M87.1073697,5.38117773 C88.7866859,5.42733159 90.1779417,6.04117798 91.2811387,7.22269843 C92.3843187,8.40421888 92.9561838,9.87650868 92.996739,11.6395678 C92.9723857,13.1399376 92.6682753,14.307335 92.0844078,15.1417415 C91.500518,15.9761479 90.7829208,16.5582405 89.931611,16.8880375 C89.0802841,17.2178346 88.241296,17.3760131 87.4146417,17.3625731 C86.5554144,17.3610223 85.8967731,17.3548746 85.4387143,17.3441115 C84.9806504,17.33333 84.603673,17.3271823 84.3077856,17.32565 C83.8867074,17.3260192 83.5125775,17.3298777 83.1853907,17.3371885 C82.8582022,17.3444808 82.4926076,17.3529546 82.0886037,17.3625731 C82.0373911,17.29565 82.0117849,17.1941115 82.0117849,17.0579576 C82.0117849,16.9218037 82.0373911,16.8202652 82.0886037,16.7533421 C82.6732719,16.7548744 83.0701624,16.659502 83.2792804,16.4671881 C83.4693829,16.2923741 83.5677854,15.892497 83.574489,15.2675846 L83.5737492,15.0733599 L83.5737492,7.67037245 C83.5865489,6.93347986 83.4883932,6.46885814 83.2792804,6.27654422 C83.0701641,6.08424876 82.6732719,5.98887642 82.0886037,5.99039027 C82.0373911,5.92348563 82.0117849,5.82194713 82.0117849,5.68579323 C82.0117849,5.54963933 82.0373911,5.44810083 82.0886037,5.38117773 C82.5004312,5.39079619 82.8674494,5.39927004 83.1896584,5.40656235 C83.5118656,5.41387312 83.8788838,5.41773159 84.2907148,5.41810082 C84.6310581,5.41656851 85.047155,5.41042081 85.5390056,5.39963927 C86.0308493,5.38887619 86.5536356,5.3827285 87.1073697,5.38117773 Z M68.1573961,5.28887 C69.6983684,5.34850079 70.7304295,5.72310401 71.2535811,6.41269812 C71.7767174,7.10231069 72.0192618,7.74924017 71.9812177,8.35344963 C72.0068138,9.19690226 71.7208821,10.0207487 71.1234176,10.8249521 C70.5259394,11.629174 69.4632925,12.0607126 67.9354767,12.1195495 C67.6399376,12.1199372 67.3817443,12.1053341 67.160897,12.0757034 C67.0136609,12.0559618 66.8744867,12.0285321 66.7433756,11.9934032 L66.5527564,11.9349341 L66.5527564,15.0733599 C66.5420837,15.8091263 66.6658456,16.2714219 66.9240423,16.460265 C67.1822304,16.6491082 67.6388706,16.7468067 68.2939612,16.7533421 C68.3451669,16.8202652 68.3707732,16.9218037 68.3707783,17.0579576 C68.3707732,17.1941115 68.3451669,17.29565 68.2939612,17.3625731 C67.8778592,17.3529546 67.4809669,17.3444808 67.1032845,17.3371885 C66.7255919,17.3298777 66.3030951,17.3260192 65.835789,17.32565 C65.4147108,17.3260192 65.0405809,17.3298777 64.7133941,17.3371885 C64.3862056,17.3444808 64.0206107,17.3529546 63.6166068,17.3625731 C63.5653947,17.29565 63.5397886,17.1941115 63.5397886,17.0579576 C63.5397886,16.9218037 63.5653944,16.8202652 63.6166068,16.7533421 C64.2012753,16.7548744 64.5981658,16.659502 64.8072838,16.4671881 C64.9973864,16.2923741 65.0957888,15.892497 65.1024925,15.2675846 L65.1017526,15.0733599 L65.1017526,7.67037245 C65.1145523,6.93347986 65.0163966,6.46885814 64.8072838,6.27654422 C64.5981675,6.08424876 64.2012753,5.98887642 63.6166068,5.99039027 C63.5653947,5.92348563 63.5397886,5.82194713 63.5397886,5.68579323 C63.5397886,5.54963933 63.5653944,5.44810083 63.6166068,5.38117773 C64.028435,5.39079619 64.3954529,5.39927004 64.7176618,5.40656235 C65.039869,5.41387312 65.4068873,5.41773159 65.8187182,5.41810082 C66.1871567,5.41272851 66.6068095,5.39118388 67.0776766,5.35348541 C67.5485385,5.31580539 67.9084433,5.29426077 68.1573961,5.28887 Z M51.0859355,5.38117773 C51.137137,5.44810083 51.1627427,5.54963933 51.1627532,5.68579323 C51.1627424,5.82194713 51.1371366,5.92348563 51.0859355,5.99039027 C50.7438011,6.01732566 50.3867407,6.08810723 50.0147531,6.20269804 C49.6892474,6.30299731 49.3555804,6.52519355 49.0137512,6.86929913 L48.8667533,7.02423682 L46.4768645,9.81189327 C46.2063247,10.1266257 46.0312797,10.3426996 45.9517288,10.4601151 C45.8721673,10.5775489 45.8366747,10.6630074 45.845251,10.7164905 C45.8441784,10.7888044 45.8591151,10.8611183 45.8900611,10.9334137 C45.9106847,10.9816229 45.9412684,11.0339348 45.9818124,11.0903437 L46.0500986,11.1780292 L49.7885674,15.9779756 C50.0829904,16.3432742 50.3668605,16.5625051 50.6401783,16.6356497 C50.913476,16.7088128 51.1303441,16.7480252 51.2907832,16.7533421 C51.3419843,16.8202652 51.3676007,16.9218037 51.3676007,17.0579576 C51.3676007,17.1941115 51.341984,17.29565 51.2907832,17.3625731 C50.9095284,17.3529546 50.6051023,17.3444808 50.377504,17.3371885 C50.1498862,17.3298777 49.8796015,17.3260192 49.5666492,17.32565 C49.3162712,17.3260192 49.1043111,17.3298777 48.9307683,17.3371885 C48.7572089,17.3444808 48.5879252,17.3529546 48.4229167,17.3625731 C48.3894789,17.36141 48.3667181,17.3498715 48.3546342,17.3279577 C48.3425348,17.3060254 48.3368446,17.2806407 48.3375635,17.2518038 C48.3445616,17.0796499 48.3301226,16.8811883 48.2942464,16.656419 C48.2655332,16.4766035 48.1961969,16.2959019 48.0862373,16.1143236 L47.9961509,15.9779756 L45.2136376,12.3226265 C45.0432114,12.0870572 44.8446233,11.9134448 44.6178725,11.8017894 C44.4364656,11.7124651 44.235942,11.6564483 44.0163016,11.6337391 L43.8479869,11.6229524 L43.8472454,15.2675846 C43.8539441,15.892497 43.9523472,16.2923741 44.142455,16.4671881 C44.3515667,16.659502 44.7484585,16.7548744 45.333132,16.7533421 C45.3843391,16.8202652 45.409945,16.9218037 45.4099496,17.0579576 C45.4099446,17.1941115 45.3843388,17.29565 45.333132,17.3625731 C45.0242569,17.3553592 44.7405903,17.3487892 44.4821318,17.3428787 L43.9820161,17.3323533 C43.7235549,17.3281665 43.4398897,17.3259269 43.1310203,17.32565 C42.7099426,17.3260192 42.3358114,17.3298777 42.0086258,17.3371885 C41.6814375,17.3444808 41.3158418,17.3529546 40.911838,17.3625731 C40.8606258,17.29565 40.8350199,17.1941115 40.8350199,17.0579576 C40.8350199,16.9218037 40.8606255,16.8202652 40.911838,16.7533421 C41.496506,16.7548744 41.8933977,16.659502 42.1025143,16.4671881 C42.2926177,16.2923741 42.3910205,15.892497 42.3977233,15.2675846 L42.3969831,15.0733599 L42.3969831,7.67037245 C42.4097841,6.93347986 42.311628,6.46885814 42.1025147,6.27654422 C41.8933981,6.08424876 41.4965064,5.98887642 40.911838,5.99039027 C40.8606258,5.92348563 40.8350199,5.82194713 40.8350199,5.68579323 C40.8350199,5.54963933 40.8606255,5.44810083 40.911838,5.38117773 C41.323666,5.39079619 41.6906843,5.39927004 42.0128935,5.40656235 C42.3350999,5.41387312 42.7021183,5.41773159 43.1139496,5.41810082 C43.5350223,5.41773159 43.9091533,5.41387312 44.2363435,5.40656235 C44.5635266,5.39927004 44.9291223,5.39079619 45.333132,5.38117773 C45.3843391,5.44810083 45.409945,5.54963933 45.4099496,5.68579323 C45.4099446,5.82194713 45.3843388,5.92348563 45.333132,5.99039027 C44.7484585,5.98887642 44.3515668,6.08424876 44.1424554,6.27654422 C43.9523477,6.45137506 43.8539444,6.85125366 43.8472455,7.47615229 L43.8479869,10.9140291 C44.1419893,10.8842691 44.3900111,10.8067306 44.592053,10.6814136 C44.7435784,10.5874397 44.8852038,10.4736001 45.0169294,10.3399024 L45.145355,10.1995857 L48.0132215,6.95039063 C48.3910438,6.48301815 48.4910492,6.20764573 48.3132381,6.12423647 C48.1354116,6.04086413 47.8760804,5.99626104 47.5352438,5.99039027 C47.484025,5.92348563 47.458419,5.82194713 47.4584257,5.68579323 C47.4584186,5.54963933 47.4840246,5.44810083 47.5352438,5.38117773 C47.923949,5.39079619 48.2603825,5.39927004 48.5445451,5.40656235 C48.8286917,5.41387312 49.1352517,5.41773159 49.4642254,5.41810082 C49.7803785,5.41773159 50.0357264,5.41387312 50.2302699,5.40656235 C50.4247942,5.39927004 50.7100157,5.39079619 51.0859355,5.38117773 Z M97.5064744,5.38117773 C97.5576818,5.44810083 97.5832881,5.54963933 97.5832915,5.68579323 C97.5832864,5.82194713 97.5576818,5.92348563 97.5064744,5.99039027 C97.0297008,5.99471027 96.7276935,6.02026105 96.6004491,6.06700568 C96.4873384,6.10858929 96.5065795,6.27780827 96.6581723,6.5746367 L96.7212237,6.691929 L98.8755381,10.7903367 C98.9471588,10.9407245 99.0087556,11.023026 99.0603283,11.0372599 C99.1015783,11.048647 99.1497954,11.0061204 99.2049814,10.9096897 L99.2476775,10.8272598 L101.279083,6.691929 C101.459456,6.32613193 101.467848,6.11899339 101.304263,6.07047645 C101.140661,6.02197797 100.864828,5.99530104 100.476764,5.99039027 C100.425546,5.92426101 100.39994,5.82580559 100.399946,5.695024 C100.39994,5.56426087 100.425544,5.46580545 100.476764,5.39963927 C100.81568,5.40850081 101.110859,5.41387312 101.362302,5.41579312 C101.529921,5.41708543 101.68474,5.41785261 101.82676,5.4181056 L102.236456,5.4181056 C102.378946,5.41785261 102.531398,5.41708543 102.693812,5.41579312 C102.937416,5.41387312 103.188496,5.40850081 103.447055,5.39963927 C103.498257,5.46580545 103.523872,5.56426087 103.523872,5.695024 C103.523872,5.82580559 103.498255,5.92426101 103.447055,5.99039027 C103.081342,6.00432873 102.798751,6.04802721 102.599284,6.12146724 C102.424733,6.18575957 102.241123,6.39121436 102.048452,6.73781924 L101.965323,6.895006 L99.7854026,11.1595676 C99.6220874,11.459457 99.5291964,11.6558324 99.5067243,11.7487125 C99.4874552,11.8283239 99.4797899,11.9951764 99.4837304,12.2492465 L99.4866678,12.3835496 L99.4866678,15.0733599 C99.4703019,15.8102709 99.5755711,16.2748927 99.8024734,16.4671881 C100.029364,16.659502 100.476047,16.7548744 101.142518,16.7533421 C101.193722,16.8202652 101.219329,16.9218037 101.219335,17.0579576 C101.219329,17.1941115 101.193722,17.29565 101.142518,17.3625731 C100.727837,17.3529546 100.340904,17.3444808 99.9817157,17.3371885 C99.6225142,17.3298777 99.2185103,17.3260192 98.7697005,17.32565 C98.3116348,17.3260192 97.9005175,17.3298777 97.5363467,17.3371885 C97.1721707,17.3444808 96.786658,17.3529546 96.3798117,17.3625731 C96.3285975,17.29565 96.3029912,17.1941115 96.3029929,17.0579576 C96.3029912,16.9218037 96.3285975,16.8202652 96.3798117,16.7533421 C97.0462749,16.7548744 97.492956,16.659502 97.7198566,16.4671881 C97.9261222,16.2923741 98.0318729,15.892497 98.0371087,15.2675846 L98.035664,15.0733599 L98.0353503,12.3937358 C98.0311979,12.1559203 98.0088969,11.9826049 97.9684475,11.8737894 C97.9296079,11.7693266 97.8597032,11.6275745 97.7587325,11.4485329 L97.6771795,11.30726 L95.4358055,7.22731382 C95.1107508,6.6267782 94.847153,6.26971345 94.6450084,6.15608264 C94.4428622,6.04248875 94.1732896,5.9872518 93.836287,5.99039027 C93.7843643,5.92348563 93.755914,5.82194713 93.7509344,5.68579323 C93.7459549,5.54963933 93.7687154,5.44810083 93.8192162,5.38117773 C94.0742086,5.39079619 94.345205,5.39927004 94.6322053,5.40656235 C94.9192039,5.41387312 95.2286097,5.41773159 95.560421,5.41810082 C95.8975635,5.41773159 96.2219063,5.41387312 96.5334477,5.40656235 C96.8449839,5.39927004 97.169325,5.39079619 97.5064744,5.38117773 Z M40.2166031,5.38117773 C40.2678046,5.44810083 40.2934103,5.54963933 40.2934207,5.68579323 C40.29341,5.82194713 40.2678042,5.92348563 40.2166031,5.99039027 C39.8744687,6.01732566 39.5174083,6.08810723 39.1454207,6.20269804 C38.819915,6.30299731 38.486248,6.52519355 38.1444188,6.86929913 L37.9974208,7.02423682 L35.6075321,9.81189327 C35.3369924,10.1266257 35.1619473,10.3426996 35.0823965,10.4601151 C35.0028348,10.5775489 34.9673423,10.6630074 34.9759185,10.7164905 C34.974846,10.7888044 34.9897826,10.8611183 35.0207287,10.9334137 C35.0413522,10.9816229 35.071936,11.0339348 35.11248,11.0903437 L35.1807662,11.1780292 L38.919235,15.9779756 C39.213658,16.3432742 39.4975281,16.5625051 39.7708459,16.6356497 C40.0441436,16.7088128 40.2610117,16.7480252 40.4214508,16.7533421 C40.4726519,16.8202652 40.4982683,16.9218037 40.4982683,17.0579576 C40.4982683,17.1941115 40.4726516,17.29565 40.4214508,17.3625731 C40.040196,17.3529546 39.7357699,17.3444808 39.5081716,17.3371885 C39.2805538,17.3298777 39.0102691,17.3260192 38.6973168,17.32565 C38.4469387,17.3260192 38.2349787,17.3298777 38.0614359,17.3371885 C37.8878765,17.3444808 37.7185927,17.3529546 37.5535843,17.3625731 C37.5201464,17.36141 37.4973857,17.3498715 37.4853017,17.3279577 C37.4732024,17.3060254 37.4675122,17.2806407 37.468231,17.2518038 C37.4752292,17.0796499 37.4607902,16.8811883 37.4249141,16.656419 C37.3962008,16.4766035 37.3268644,16.2959019 37.2169049,16.1143236 L37.1268184,15.9779756 L34.3443052,12.3226265 C34.173879,12.0870572 33.9752908,11.9134448 33.7485401,11.8017894 C33.5671332,11.7124651 33.3666096,11.6564483 33.1469692,11.6337391 L32.9786545,11.6229524 L32.9786545,15.0733599 C32.9658481,15.8102709 33.064004,16.2748927 33.2731226,16.4671881 C33.4822342,16.659502 33.8791261,16.7548744 34.4637996,16.7533421 C34.5150067,16.8202652 34.5406126,16.9218037 34.5406172,17.0579576 C34.5406123,17.1941115 34.5150064,17.29565 34.4637996,17.3625731 C34.1549245,17.3553592 33.8712579,17.3487892 33.6127994,17.3428787 L33.1126837,17.3323533 C32.8542225,17.3281665 32.5705573,17.3259269 32.2616879,17.32565 C31.8406102,17.3260192 31.466479,17.3298777 31.1392934,17.3371885 C30.8121051,17.3444808 30.4465094,17.3529546 30.0425056,17.3625731 C29.9912934,17.29565 29.9656874,17.1941115 29.9656874,17.0579576 C29.9656874,16.9218037 29.991293,16.8202652 30.0425056,16.7533421 C30.6271736,16.7548744 31.0240653,16.659502 31.2331819,16.4671881 C31.4232853,16.2923741 31.5216881,15.892497 31.5283909,15.2675846 L31.5276507,15.0733599 L31.5276507,7.67037245 C31.5404516,6.93347986 31.4422956,6.46885814 31.2331823,6.27654422 C31.0240657,6.08424876 30.627174,5.98887642 30.0425056,5.99039027 C29.9912934,5.92348563 29.9656874,5.82194713 29.9656874,5.68579323 C29.9656874,5.54963933 29.991293,5.44810083 30.0425056,5.38117773 C30.4543336,5.39079619 30.8213518,5.39927004 31.1435611,5.40656235 C31.4657675,5.41387312 31.8327859,5.41773159 32.2446172,5.41810082 C32.6656899,5.41773159 33.0398209,5.41387312 33.3670111,5.40656235 C33.6941941,5.39927004 34.0597899,5.39079619 34.4637996,5.38117773 C34.5150067,5.44810083 34.5406126,5.54963933 34.5406172,5.68579323 C34.5406123,5.82194713 34.5150064,5.92348563 34.4637996,5.99039027 C33.8791261,5.98887642 33.4822344,6.08424876 33.2731229,6.27654422 C33.0830152,6.45137506 32.984612,6.85125366 32.977913,7.47615229 L32.9786545,7.67037245 L32.9786545,10.9140291 C33.2726569,10.8842691 33.5206787,10.8067306 33.7227206,10.6814136 C33.874246,10.5874397 34.0158714,10.4736001 34.147597,10.3399024 L34.2760226,10.1995857 L37.1438891,6.95039063 C37.5217113,6.48301815 37.6217168,6.20764573 37.4439058,6.12423647 C37.2660792,6.04086413 37.006748,5.99626104 36.6659113,5.99039027 C36.6146925,5.92348563 36.5890865,5.82194713 36.5890932,5.68579323 C36.5890862,5.54963933 36.6146921,5.44810083 36.6659113,5.38117773 C37.0546166,5.39079619 37.3910501,5.39927004 37.6752127,5.40656235 C37.9593593,5.41387312 38.2659192,5.41773159 38.594893,5.41810082 C38.9110461,5.41773159 39.166394,5.41387312 39.3609375,5.40656235 C39.5554617,5.39927004 39.8406833,5.39079619 40.2166031,5.38117773 Z M29.3958897,5.38117773 C29.4470971,5.44810083 29.4727068,5.54963933 29.4727068,5.68579323 C29.4727068,5.82194713 29.4470971,5.92348563 29.3958897,5.99039027 C28.8112164,5.98887642 28.4143241,6.08424876 28.205213,6.27654422 C28.0151058,6.45137506 27.9167029,6.85125366 27.9100031,7.47615229 L27.9100027,15.2675846 C27.9167015,15.892497 28.0151058,16.2923741 28.205213,16.4671881 C28.4143241,16.659502 28.8112164,16.7548744 29.3958897,16.7533421 C29.4470971,16.8202652 29.4727068,16.9218037 29.4727068,17.0579576 C29.4727068,17.1941115 29.4470971,17.29565 29.3958897,17.3625731 C29.0870152,17.3553592 28.8033488,17.3487892 28.5448898,17.3428787 L28.0447739,17.3323533 C27.786313,17.3281665 27.502648,17.3259269 27.1937786,17.32565 C26.7727004,17.3260192 26.3985687,17.3298777 26.0713837,17.3371885 C25.7441951,17.3444808 25.3786006,17.3529546 24.9745967,17.3625731 C24.9233841,17.29565 24.8977778,17.1941115 24.8977778,17.0579576 C24.8977778,16.9218037 24.9233841,16.8202652 24.9745967,16.7533421 C25.5592632,16.7548744 25.9561554,16.659502 26.1652716,16.4671881 C26.3553758,16.2923741 26.4537784,15.892497 26.4604807,15.2675846 L26.4597404,15.0733599 L26.4597404,7.67037245 C26.4725419,6.93347986 26.3743862,6.46885814 26.1652733,6.27654422 C25.9561554,6.08424876 25.5592649,5.98887642 24.9745967,5.99039027 C24.9233841,5.92348563 24.8977778,5.82194713 24.8977778,5.68579323 C24.8977778,5.54963933 24.9233841,5.44810083 24.9745967,5.38117773 C25.3864242,5.39079619 25.7534424,5.39927004 26.0756514,5.40656235 C26.3978586,5.41387312 26.7648768,5.41773159 27.1767078,5.41810082 C27.5977808,5.41773159 27.9719108,5.41387312 28.299101,5.40656235 C28.6262844,5.39927004 28.9918806,5.39079619 29.3958897,5.38117773 Z M86.4586858,6.00877787 C86.0329831,6.00617489 85.6894373,6.07618107 85.4280467,6.21885189 C85.199324,6.34372117 85.0678097,6.53659211 85.0335039,6.79748945 L85.0247529,6.91346754 L85.0247529,15.7933602 C84.9977195,16.0910341 85.0987209,16.3218035 85.3277555,16.4856497 C85.5567831,16.6494959 86.0760136,16.7325728 86.885452,16.7348805 C88.1248438,16.7741113 89.1711301,16.4648804 90.0243142,15.8072063 C90.8774813,15.1495138 91.3220286,13.9079933 91.3579576,12.0826264 C91.3657453,11.1126199 91.2154808,10.1665396 90.9071659,9.2443669 C90.5988321,8.32223116 90.0856601,7.55801548 89.367648,6.95175679 C88.6496206,6.3454981 87.6799671,6.03120874 86.4586858,6.00877787 Z M57.2608437,7.17192918 L57.2267025,7.17192918 L55.5162248,11.8555494 C55.4790918,11.9530264 55.4944552,12.0188603 55.5623151,12.053088 C55.6165965,12.0804849 55.7093918,12.0961964 55.8407014,12.1002414 L55.9464049,12.101088 L58.9166951,12.101088 L57.2608437,7.17192918 Z M68.2396643,5.9135738 L68.0379001,5.91656255 C67.4382898,5.93232871 67.0371316,6.06233491 66.8344203,6.30654423 C66.66549,6.51008277 66.572135,6.72722388 66.5543552,6.95798893 L66.5527564,7.098083 L66.5527564,11.3995677 C66.6622898,11.4276477 66.8486437,11.4499493 67.1118183,11.4664908 C67.3749877,11.4830324 67.6210879,11.4914878 67.8501241,11.4918754 C68.6805341,11.4995739 69.3114353,11.2811 69.7428294,10.8364906 C70.1742133,10.3918812 70.3911514,9.67498245 70.3936489,8.68575745 C70.3691027,7.5446124 70.1237126,6.79001519 69.6574768,6.42192889 C69.2948398,6.13566827 68.8876735,5.97014593 68.4359755,5.92537055 L68.2396643,5.9135738 Z M110.814663,2.95655637 L110.762164,2.95655637 L108.137205,9.62395219 C108.032206,9.88745769 108.214944,9.96519686 108.792435,9.96519686 L113.360873,9.96519686 L113.360873,9.96418726 L110.814663,2.95655637 Z" id="pih-wordmark" fill="#000000" fill-rule="nonzero"></path>
    </g>
</svg>