<?xml version="1.0" encoding="UTF-8"?>
<svg width="50px" height="10px" viewBox="0 0 50 10" version="1.1" xmlns="http://www.w3.org/2000/svg" xmlns:xlink="http://www.w3.org/1999/xlink">
    <title>dz-tagline</title>
    <g id="Page-1" stroke="none" stroke-width="1" fill="none" fill-rule="evenodd">
        <path d="M2.26485497e-14,4.80577095 L2.26485497e-14,4.70868467 C0.0189748344,4.43220891 0.140092724,4.17267058 0.339801986,3.98053755 C0.550667036,3.78980362 0.834544712,3.70109185 1.11649224,3.73782185 L1.65046679,3.73782185 C1.63323865,3.42271457 1.49394277,3.12671081 1.26212166,2.91258845 L0.339801986,2.91258845 C0.36018108,2.69839952 0.444780647,2.49536056 0.582517691,2.33007076 L2.81550217,2.33007076 C2.81792338,2.50295691 2.7434169,2.66798448 2.61213909,2.78050833 C2.48086127,2.89303217 2.30638009,2.94142259 2.1358982,2.91258845 L1.8931825,2.91258845 L1.8931825,3.83490813 C2.28207102,4.0881516 2.54637485,4.49341748 2.62132961,4.95140037 C2.72776555,5.44571477 2.77663381,5.95068682 2.76695903,6.45623774 C2.81550217,7.08729857 2.81550217,7.76690254 2.81550217,8.59213594 L2.81550217,8.83485164 L2.71841589,8.83485164 C2.64908019,8.51600082 2.61650567,8.19025561 2.62132961,7.86398883 C2.62132961,7.57272998 2.57278647,7.23292799 2.52424333,6.79603973 C2.5348247,6.50159884 2.5021137,6.20719985 2.42715704,5.92226319 C2.41829902,5.77238838 2.38552282,5.6248955 2.33007076,5.48537492 C2.25614051,5.1922179 2.10532323,4.92409829 1.8931825,4.70868467 C1.92111834,5.11030982 1.6853245,5.48365006 1.3106648,5.63100434 L0.631060832,5.63100434 C0.278848066,5.50107215 0.0331102586,5.17972271 2.26485497e-14,4.80577095 Z M0.291258845,4.66014153 L0.291258845,4.75722781 C0.276349509,4.84135871 0.293681484,4.92801858 0.339801986,4.99994351 C0.376174321,5.0999439 0.444397363,5.18522271 0.53397455,5.24265922 C0.658720488,5.34674073 0.810013797,5.4139822 0.970862818,5.43683178 C1.16365941,5.42402128 1.34884491,5.3566811 1.50483737,5.24265922 C1.62742459,5.11046638 1.69661251,4.93749657 1.69900993,4.75722781 L1.69900993,4.61159839 C1.56973713,4.43558131 1.37923698,4.31435394 1.16503538,4.2717964 L0.922319677,4.2717964 C0.646133821,4.23353271 0.381562137,4.39634605 0.291258845,4.66014153 L0.291258845,4.66014153 Z M3.39801986,3.05821788 L3.2038473,3.05821788 C3.19206144,2.92678741 3.2086151,2.79435807 3.25239044,2.66987275 C3.30654551,2.581463 3.33975493,2.48183475 3.34947672,2.3786139 L4.12616698,2.3786139 L3.93199441,2.66987275 L3.93199441,2.96113159 L3.68927871,3.10676102 L3.39801986,3.05821788 Z M7.524,8.058 L7.52418684,8.10670453 L7.37855742,8.39796338 L7.18438485,8.59213594 C7.00923634,8.69806035 6.80625676,8.74880525 6.60186716,8.73776536 L5.72809063,8.59213594 L5.04848665,8.39796338 L4.56305524,8.39796338 L5.09702979,8.59213594 L5.48537492,8.88339478 L5.72809063,9.07756735 C5.91271807,9.252478 6.15370589,9.3557585 6.4076946,9.36882619 L6.89312601,9.27173991 L7.23292799,9.12611049 L7.52418684,8.93193793 L7.81544568,8.73776536 C7.99743528,8.57828972 8.21318854,8.46211489 8.44650652,8.39796338 C8.44650652,8.49504966 8.34942023,8.59213594 8.20379081,8.73776536 L7.91253197,8.98048107 L7.62127312,9.27173991 L7.33001428,9.51445562 C7.28147113,9.6115419 7.18438485,9.66008504 7.08729857,9.75717132 C6.87896593,9.91800068 6.62231518,10.0035509 6.35915146,9.99988703 L5.92226319,9.99988703 L5.5824612,9.80571446 L5.29120236,9.56299876 L5.04848665,9.27173991 C4.91068035,9.07332037 4.74748225,8.89380245 4.56305524,8.73776536 L4.2717964,8.73776536 C4.3675686,8.35044178 4.75720913,8.11232812 5.14557294,8.20379081 L6.21352204,8.34942023 L6.69895344,8.34942023 C6.8723218,8.31474656 7.04569016,8.28007289 7.16598658,8.19232727 L7.22,8.142 L7.23292799,8.15524767 L7.33001428,8.25233395 L7.42710056,8.25233395 L7.524,8.058 Z M11.0678361,2.42715704 C11.0764577,2.69963927 10.8949448,2.94165645 10.6309479,3.00967474 L9.6115419,3.00967474 C9.39095063,2.98833017 9.16941212,3.03945445 8.98048107,3.15530416 C8.86033646,3.22621068 8.76012874,3.32641839 8.68922222,3.446563 C8.57351095,3.70709445 8.50764998,3.98700355 8.49504966,4.2717964 C8.81835648,4.13284334 9.16322004,4.05073297 9.51445562,4.02908069 C10.5338616,4.02908069 11.0678361,4.56305524 11.2134655,5.63100434 C11.359095,6.69895344 11.4076381,7.4756437 11.4076381,7.62127312 C11.4076381,7.76690254 11.4076381,7.86398883 11.4561813,8.30087709 C11.5110801,8.52361616 11.5436035,8.75127989 11.5532675,8.98048107 C11.4164131,8.83364278 11.3311969,8.64616723 11.3105518,8.44650652 C11.2134655,8.05816139 11.1163793,7.42710056 10.9222067,6.45623774 C10.7280341,5.48537492 10.1940596,4.66014153 9.36882619,4.66014153 L8.68922222,4.75722781 L8.20379081,4.90285723 L8.15524767,4.80577095 C8.15831281,4.76836244 8.17570309,4.73358189 8.20379081,4.70868467 L8.20379081,4.56305524 C8.25233395,4.56305524 8.25233395,4.5145121 8.30087709,4.46596896 L8.34942023,4.46596896 C8.34942023,4.36888268 8.30087709,4.2717964 8.30087709,4.17471012 C8.28511874,3.75217204 8.42309269,3.33825019 8.68922222,3.00967474 L8.30087709,3.00967474 C8.34942023,2.71841589 8.39796338,2.52424333 8.5435928,2.42715704 L11.0678361,2.42715704 Z M6.4076946,5.19411608 C6.37202105,5.42422109 6.25063176,5.63231702 6.06789261,5.77663377 C5.56754777,5.76888654 5.118142,6.08151663 4.95140037,6.55332402 C4.89594831,6.6928446 4.86317211,6.84033748 4.85431409,6.99021229 C4.95546544,6.88602866 5.097945,6.83259883 5.24265922,6.84458287 L5.5824612,6.84458287 C6.24846083,6.94520048 6.84194561,7.31224182 7.22951816,7.8567753 L7.315,7.987 L7.28147113,8.05816139 C7.26760167,8.08590033 7.25076017,8.11066724 7.23137122,8.13288669 L7.22,8.142 L7.14095447,8.06220665 C6.81115327,7.76555412 6.25099689,7.60374365 5.51666952,7.57677524 L5.29120236,7.57272998 C4.98035595,7.54018808 4.66614017,7.57326343 4.36888268,7.66981626 C4.38878197,7.48408359 4.47495183,7.31174389 4.61159839,7.18438485 C4.66014153,6.45623774 4.80577095,6.01934947 5.14557294,5.77663377 L4.70868467,5.77663377 C4.71884141,5.65816734 4.75180856,5.54278231 4.80577095,5.43683178 C4.85431409,5.29120236 4.90285723,5.19411608 4.95140037,5.19411608 L6.4076946,5.19411608 Z M7.81544568,5.24265922 C7.71164066,5.47323117 7.64605895,5.71916259 7.62127312,5.97080633 C7.55995915,6.42926908 7.52636813,6.89087278 7.52063247,7.35310163 L7.522,7.584 L7.51584349,7.48853797 C7.50256997,7.30839741 7.47507483,7.05714873 7.44520942,6.74664329 L7.42710056,6.55332402 L7.33001428,6.4076946 C7.29451721,6.44750949 7.27696242,6.50017387 7.28147113,6.55332402 L7.28147113,6.55332402 L7.31012277,6.68106059 C7.3250921,6.76698975 7.33177281,6.85426093 7.33001428,6.94166915 C7.33001428,7.03875543 7.37855742,7.13584171 7.37855742,7.23292799 L7.37855742,7.23292799 L7.37855742,7.66981626 C7.38083449,7.73780448 7.37356474,7.80543174 7.35722481,7.87079146 L7.327,7.959 L7.31624897,7.75885989 C7.25102396,6.78340127 7.06489404,6.13884028 6.79603973,5.82517691 L6.99021229,5.24265922 L7.81544568,5.24265922 Z M7.86398883,2.33007076 C7.62318634,2.93049532 7.52353731,3.57821406 7.57272998,4.22325326 L7.57272998,5.19411608 C7.52418684,5.24265922 7.4756437,5.19411608 7.42710056,5.14557294 L7.23292799,4.90285723 L6.50478088,4.12616698 C6.14603946,3.78307803 5.75599579,3.47429345 5.3397455,3.2038473 C5.09702979,3.25239044 4.95140037,3.49510614 4.95140037,3.83490813 C5.23212743,3.90496956 5.48562173,4.05706614 5.67954749,4.2717964 L5.97080633,4.66014153 C6.04675575,4.77758884 6.09643229,4.91005961 6.11643575,5.04848665 C6.03658308,4.96104157 5.93660801,4.89439152 5.82517691,4.85431409 L5.53391806,4.66014153 C5.32228482,4.50560716 5.06779816,4.42077827 4.80577095,4.41742582 L4.36888268,4.41742582 L4.32033954,4.56305524 C4.32033954,4.46596896 4.36888268,4.41742582 4.36888268,4.36888268 C4.36888268,4.32033954 4.56305524,3.98053755 4.70868467,3.98053755 C4.85431409,3.98053755 4.80577095,3.49510614 4.80577095,3.39801986 C4.87963152,3.23817753 4.97789094,3.0907884 5.09702979,2.96113159 L4.66014153,2.96113159 C4.6904152,2.74953904 4.77393096,2.54910121 4.90285723,2.3786139 L6.50478088,2.3786139 C6.45623774,2.76695903 6.31060832,2.96113159 6.01934947,2.96113159 L6.94166915,4.22325326 L7.37855742,4.90285723 C7.40848407,4.36162075 7.34275384,3.81934635 7.18438485,3.30093358 L6.89312601,2.91258845 L7.13584171,2.33007076 L7.86398883,2.33007076 Z M9.80571446,2.66453526e-15 C9.42381409,0.389392259 8.95930577,0.68800475 8.44650652,0.873776536 L7.62127312,1.01940596 L6.99021229,1.01940596 C6.69330122,1.0455424 6.4248496,1.20661338 6.26206518,1.45629423 C6.18497771,1.65902449 6.13598051,1.87134571 6.11643575,2.08735506 L5.92226319,1.94172564 L5.82517691,1.74755307 L5.67954749,1.60192365 L5.43683178,1.45629423 L5.04848665,1.35920795 L4.12616698,1.35920795 C4.20250352,1.0526884 4.35246881,0.769420626 4.56305524,0.53397455 C5.09218075,0.589548306 5.56206937,0.896783172 5.82517691,1.35920795 C5.89824189,1.51755611 5.96305297,1.6795838 6.01934947,1.84463935 C6.04676402,1.51797349 6.18359154,1.21011156 6.4076946,0.970862818 C6.65590522,0.65576861 7.02674304,0.461520225 7.42710056,0.436888268 L8.73776536,0.436888268 L9.07756735,0.339801986 C9.3257423,0.276295621 9.55746126,0.160436144 9.75717132,2.66453526e-15 L9.80571446,2.66453526e-15 Z M12.0386989,3.05821788 L11.8445264,3.05821788 C11.8327405,2.92678741 11.8492942,2.79435807 11.8930695,2.66987275 L11.9901558,2.3786139 L12.7183029,2.3786139 C12.6697598,2.47570019 12.5726735,2.57278647 12.5726735,2.66987275 C12.5411636,2.71188591 12.5241304,2.76298572 12.5241304,2.81550217 L12.5241304,2.96113159 L12.2814146,3.10676102 L12.0386989,3.05821788 Z M12.9610186,4.70868467 L12.9610186,4.5145121 C12.9959868,4.43852571 13.0126146,4.355387 13.0095618,4.2717964 C13.0220058,4.13154054 13.0723438,3.99730585 13.1551912,3.88345127 C13.1551912,3.829832 13.1986582,3.78636499 13.2522775,3.78636499 L13.3493637,3.78636499 L13.6406226,3.68927871 C13.7377089,3.64073557 13.7377089,3.49510614 13.7377089,3.25239044 L13.7377089,3.25239044 L13.7377089,2.96113159 L13.3493637,2.96113159 C13.372569,2.74765882 13.456841,2.54540617 13.5920795,2.3786139 L16.3590385,2.3786139 C16.2619522,3.15530416 16.2134091,4.36888268 16.1648659,6.06789261 L16.1648659,6.84458287 C16.1740537,7.04343576 16.1409636,7.24197629 16.0677796,7.42710056 C15.981307,7.24591358 15.9476583,7.04402112 15.9706934,6.84458287 L15.9706934,6.01934947 C15.9706934,5.67954749 15.9221502,5.19411608 15.8736071,4.66014153 C15.8677247,4.10464854 15.8026326,3.55136588 15.6794345,3.00967474 L15.0969168,3.00967474 C15.0645547,3.30093358 15.0160116,3.68927871 14.9512874,4.17471012 L14.9512874,5.09702979 C14.9519725,5.21207262 14.9356139,5.32658249 14.9027443,5.43683178 C14.8542011,5.43683178 14.805658,5.3397455 14.805658,5.14557294 L14.805658,4.75722781 C14.805658,4.66014153 14.7571148,4.5145121 14.7571148,4.32033954 C14.7571148,4.12616698 14.7085717,3.98053755 14.7085717,3.83490813 C14.6634712,3.55054175 14.5818934,3.2731773 14.465856,3.00967474 L14.126054,3.00967474 C14.0163651,3.16794339 13.9494749,3.35189136 13.9318814,3.54364929 C13.8833383,3.73782185 13.8833383,3.88345127 13.8347952,3.93199441 C13.8202591,4.14395369 13.7138743,4.33899253 13.5435363,4.46596896 L13.3493637,4.46596896 C13.1551912,4.56305524 13.0095618,4.61159839 12.9610186,4.70868467 Z M13.2037343,5.48537492 C13.3965176,5.57048109 13.563817,5.70432062 13.6891657,5.87372005 C13.9819698,6.23739662 14.2116922,6.64761516 14.3687697,7.08729857 C14.4402073,7.40102599 14.5721156,7.69781954 14.7571148,7.96107511 C14.8441252,8.1269549 14.9795802,8.26240991 15.14546,8.34942023 L15.4852619,8.34942023 C15.7765208,8.34942023 15.9706934,8.25233395 15.9706934,8.00961825 C15.9643549,7.76836653 15.8099104,7.55600544 15.5823482,7.4756437 L15.3881757,7.4756437 C15.2159411,7.47790568 15.0477815,7.52835355 14.9027443,7.62127312 C15.14546,7.18438485 15.3396325,6.94166915 15.6308914,6.94166915 C15.7523338,6.93018732 15.8736477,6.96484842 15.9706934,7.03875543 C16.0781946,7.06051456 16.1685828,7.13282509 16.2134091,7.23292799 C16.3122959,7.33746586 16.3648051,7.47749021 16.3590385,7.62127312 C16.3355338,7.79667223 16.2688102,7.96348124 16.1648659,8.10670453 L15.9221502,8.39796338 C15.8674593,8.50141022 15.7828814,8.58598819 15.6794345,8.64067908 C15.5303737,8.78333534 15.346102,8.88384721 15.14546,8.93193793 C14.6614315,8.97477282 14.2144535,8.67001511 14.0775109,8.20379081 C14.0312728,7.98040995 14.0149487,7.75187178 14.0289677,7.52418684 C14.0233356,7.02926332 13.8895379,6.54424666 13.6406226,6.11643575 L13.2037343,5.48537492 Z M16.6017542,4.80577095 L16.6017542,4.70868467 C16.641875,4.43811095 16.7599532,4.18508628 16.9415562,3.98053755 C17.1777728,3.80158829 17.4713037,3.71525565 17.7667896,3.73782185 L18.3007641,3.73782185 C18.283536,3.42271457 18.1442401,3.12671081 17.912419,2.91258845 L16.9415562,2.91258845 C16.9420918,2.69392817 17.0293873,2.484419 17.1842719,2.33007076 L19.4172564,2.33007076 C19.4057783,2.50713246 19.3202901,2.67118175 19.1817379,2.78202348 C19.0431857,2.89286521 18.8643719,2.94025754 18.6891092,2.91258845 L18.4949367,2.91258845 L18.4949367,3.83490813 C18.9116591,4.06793298 19.1980714,4.4796507 19.2716269,4.95140037 C19.3780629,5.44571477 19.4269311,5.95068682 19.4172564,6.45623774 L19.4172564,8.83485164 L19.3687132,8.83485164 C19.2993775,8.51600082 19.266803,8.19025561 19.2716269,7.86398883 C19.2230838,7.57272998 19.2230838,7.23292799 19.1745407,6.79603973 C19.185122,6.50159884 19.152411,6.20719985 19.0774544,5.92226319 C19.0289112,5.77663377 19.0289112,5.63100434 18.9803681,5.48537492 C18.8666563,5.20977643 18.719957,4.94897762 18.5434798,4.70868467 C18.5488972,5.11850863 18.2963684,5.48758923 17.912419,5.63100434 L17.232815,5.63100434 C16.8640202,5.52441941 16.6079882,5.18960833 16.6017542,4.80577095 Z M16.893013,4.66014153 L16.893013,4.75722781 C16.8781037,4.84135871 16.8954357,4.92801858 16.9415562,4.99994351 C16.9779285,5.0999439 17.0461516,5.18522271 17.1357287,5.24265922 L17.5240739,5.43683178 C17.7335879,5.4335145 17.93699,5.36571379 18.1065916,5.24265922 C18.211697,5.10350778 18.2633725,4.93125633 18.252221,4.75722781 L18.252221,4.61159839 C18.1113428,4.4249442 17.9015237,4.3025497 17.6697033,4.2717964 L17.4755307,4.2717964 C17.3465275,4.24330064 17.2114826,4.26861499 17.1015579,4.34189806 C16.9916333,4.41518114 16.9163259,4.53010175 16.893013,4.66014153 L16.893013,4.66014153 Z M19.9997741,3.05821788 L19.8056015,3.05821788 C19.7938156,2.92678741 19.8103693,2.79435807 19.8541446,2.66987275 L19.9512309,2.3786139 L20.679378,2.3786139 C20.6308349,2.47570019 20.5337486,2.57278647 20.5337486,2.66987275 C20.5022387,2.71188591 20.4852055,2.76298572 20.4852055,2.81550217 L20.4852055,2.96113159 L20.2424898,3.10676102 L19.9997741,3.05821788 Z M27.232702,2.3786139 C27.232702,2.76695903 26.9899863,2.96113159 26.5045549,2.96113159 L25.9220372,2.96113159 C25.5659905,2.95924495 25.234759,3.14326247 25.0482607,3.446563 C24.9511744,3.49510614 24.9026313,3.64073557 24.8540881,3.78636499 L24.8540881,4.22325326 C25.2550434,4.05480196 25.7035004,4.03755362 26.1162098,4.17471012 C26.5985412,4.31709956 27.0018256,4.65024756 27.232702,5.09702979 C27.2830106,5.20298961 27.348415,5.30109623 27.4268746,5.38828864 L27.572504,5.63100434 L27.6695903,5.77663377 L27.8637629,6.11643575 C27.6961878,6.01401221 27.5482385,5.88250175 27.4268746,5.72809063 L27.0385295,5.38828864 C26.9328776,5.25040615 26.8008712,5.13490059 26.6501844,5.04848665 C26.2987541,4.83937384 25.8936405,4.73809542 25.485149,4.75722781 C25.1070553,4.73268844 24.727806,4.78215574 24.3686567,4.90285723 C24.3721988,4.76786237 24.4053414,4.63529209 24.465743,4.5145121 L24.6599156,4.36888268 C24.620137,4.22685175 24.6037416,4.07929306 24.6113724,3.93199441 C24.6064365,3.80077227 24.6228307,3.66961883 24.6599156,3.54364929 C24.6969533,3.32484613 24.7983545,3.12204368 24.9511744,2.96113159 L24.5628293,2.96113159 L24.8540881,2.3786139 L27.232702,2.3786139 Z M24.3686567,1.3106648 L24.3686567,1.45629423 C24.3551236,1.58155964 24.3044035,1.69990642 24.2230273,1.79609621 C24.1014583,1.92516233 23.9520343,2.02477834 23.786139,2.08735506 L23.6405096,2.08735506 C23.6950346,2.21023262 23.7278815,2.34161998 23.7375959,2.47570019 C23.7375959,2.71841589 23.5434233,2.91258845 23.1550782,2.96113159 L22.6696468,2.96113159 C22.6280384,3.00274 22.6220943,3.08001276 22.6212452,3.25408874 L22.6211037,3.49510614 L22.9609056,3.49510614 L23.3007076,3.59219243 C23.701672,3.69831411 24.01598,4.00960903 24.125959,4.40953262 C24.235938,4.8094562 24.1250013,5.23769341 23.8346822,5.53391806 C23.7501391,5.64802049 23.6208958,5.71821656 23.4820054,5.72892716 L23.3977939,5.72809063 L23.0094488,5.63100434 L22.7667331,5.48537492 C22.6163932,5.3087583 22.5307762,5.08615418 22.5240174,4.85431409 C22.4393056,5.1335803 22.2207659,5.35211999 21.9414997,5.43683178 L21.4075251,5.43683178 L21.1648094,5.29120236 C21.0499574,5.17739167 20.9717135,5.03302777 20.9384637,4.87655992 L20.9220937,4.75722781 C20.8999064,4.40857794 21.0667497,4.07489133 21.358982,3.88345127 C21.673999,3.67320598 22.0487919,3.57098971 22.4269311,3.59219243 L22.4269311,3.446563 C22.416007,3.28468763 22.3249344,3.13897147 22.1842154,3.05821788 L21.9900428,2.96113159 L21.2133526,2.96113159 C21.2097941,2.7355486 21.277768,2.51463357 21.4075251,2.33007076 L23.5434233,2.33007076 C23.5342279,2.21784522 23.4820571,2.11350358 23.3977939,2.03881192 L23.1065351,1.65046679 L23.2036213,1.65046679 C23.6170493,1.65508159 24.0225352,1.53681485 24.3686567,1.3106648 Z M22.9609056,4.17471012 L22.6211037,4.17471012 C22.6223522,4.42453426 22.6717993,4.67177013 22.7667331,4.90285723 C22.9609056,5.24265922 23.1550782,5.38828864 23.4463371,5.38828864 C23.6454815,5.41927787 23.8352368,5.29277434 23.8832253,5.09702979 C23.8832253,4.99994351 23.9317685,4.95140037 23.9317685,4.90285723 C23.9317685,4.85431409 23.5919665,4.22325326 22.9609056,4.17471012 Z M22.4269311,4.22325326 L21.6016977,4.22325326 L21.358982,4.32033954 C21.2939621,4.33199595 21.2365018,4.36964969 21.1998603,4.424612 C21.1632187,4.4795743 21.1505616,4.54709679 21.1648094,4.61159839 C21.16664,4.73144536 21.2001346,4.84867639 21.2618957,4.95140037 C21.4150195,5.07070257 21.6018805,5.13865203 21.7958703,5.14557294 C22.1842154,5.14557294 22.4269311,4.85431409 22.4269311,4.22325326 Z M32.5239044,1.3106648 C32.5594015,1.3504797 32.5769563,1.40314407 32.5724475,1.45629423 C32.5589144,1.58155964 32.5081944,1.69990642 32.4268181,1.79609621 C32.3318132,1.93218052 32.1957153,2.03425398 32.038473,2.08735506 L31.8443004,2.08735506 C31.9352108,2.19669859 31.9865269,2.33354137 31.9899299,2.47570019 C31.9899299,2.71841589 31.7957573,2.91258845 31.4074122,2.96113159 L30.8248945,2.96113159 L30.8248945,3.49510614 L31.1646965,3.49510614 L31.5044984,3.59219243 C32.0492402,3.66773376 32.4358645,4.16175367 32.378275,4.70868467 C32.3790334,5.01796116 32.2567861,5.31484748 32.038473,5.53391806 C31.9495642,5.63332397 31.8299921,5.69844532 31.7003667,5.72012527 L31.6015847,5.72809689 L31.2132396,5.63100434 L30.9705239,5.48537492 C30.820184,5.3087583 30.734567,5.08615418 30.7278082,4.85431409 C30.6430964,5.1335803 30.4245567,5.35211999 30.1452905,5.43683178 L29.5627728,5.43683178 L29.3200571,5.29120236 C29.2161834,5.17353901 29.1510117,5.02791469 29.1316784,4.87395439 L29.1258845,4.75722781 C29.1036972,4.40857794 29.2705405,4.07489133 29.5627728,3.88345127 C29.8596668,3.67347453 30.2191678,3.57075995 30.5821788,3.59219243 L30.5821788,3.446563 C30.5909114,3.29183841 30.5170254,3.14406654 30.3880062,3.05821788 L30.1938336,2.96113159 L29.4171434,2.96113159 C29.3912304,2.73292267 29.4615948,2.50423841 29.6113159,2.33007076 L31.7472141,2.33007076 L31.6015847,2.03881192 C31.4746441,1.93470506 31.3747251,1.80147968 31.3103259,1.65046679 L31.4074122,1.65046679 C31.8070254,1.66463954 32.1999412,1.54505648 32.5239044,1.3106648 Z M31.1646965,4.17471012 L30.8248945,4.17471012 C30.826143,4.42453426 30.8755902,4.67177013 30.9705239,4.90285723 C31.0725283,5.19141304 31.3440872,5.38538368 31.6501279,5.38828864 C31.8402293,5.38513726 32.0109912,5.27129597 32.0870161,5.09702979 L32.0870161,4.90285723 C32.0870161,4.46596896 31.7957573,4.22325326 31.1646965,4.17471012 Z M30.5821788,4.22325326 L29.8054885,4.22325326 L29.5627728,4.32033954 C29.4211035,4.3442716 29.3180499,4.46793594 29.3200571,4.61159839 C29.3159239,4.74083532 29.3692507,4.86526444 29.4656865,4.95140037 C29.6150826,5.07729044 29.8042967,5.14609556 29.9996611,5.14557589 C30.3880062,5.14557589 30.5821788,4.85431409 30.5821788,4.22325326 Z M28.8831688,2.3786139 L28.6889963,2.66987275 C28.6574864,2.71188591 28.6404531,2.76298572 28.6404531,2.81550217 L28.6404531,2.96113159 L28.3977374,3.10676102 L28.1550217,3.05821788 L27.9608492,3.05821788 C27.9490633,2.92678741 27.965617,2.79435807 28.0093923,2.66987275 C28.0635474,2.581463 28.0967568,2.48183475 28.1064786,2.3786139 L28.8831688,2.3786139 Z M29.8540317,0.194172564 C30.2636121,0.226618479 30.6289631,0.464096608 30.8248945,0.825233395 C30.9796875,1.05866048 31.0792919,1.3242722 31.1161533,1.60192365 C31.1936327,1.83794431 31.242525,2.08240576 31.2617827,2.33007076 L31.0676102,2.03881192 L30.9219808,1.79609621 L30.7763513,1.60192365 L30.5821788,1.35920795 L30.2909199,1.11649224 L29.9996611,0.873776536 C29.8124328,0.749552787 29.593277,0.682120207 29.3686002,0.679603973 L29.0773414,0.679603973 C28.9802551,0.776690254 28.931712,0.825233395 28.931712,0.922319677 C28.9430776,1.00411392 28.9592871,1.08516161 28.9802551,1.16503538 L29.1744277,1.3106648 C29.2789655,1.40955168 29.4189899,1.46206081 29.5627728,1.45629423 C29.7518424,1.46689559 29.9392389,1.41578745 30.0967474,1.3106648 C29.9511179,1.74755307 29.8054885,1.99026878 29.6113159,2.03881192 L28.9802551,2.03881192 L28.6889963,1.84463935 C28.5575257,1.69426994 28.4731262,1.508591 28.4462806,1.3106648 C28.4809372,0.95195985 28.7024093,0.638207646 29.0287983,0.485431409 C29.2702789,0.311265254 29.5567255,0.210166449 29.8540317,0.194172564 Z M32.8151632,4.85431409 C32.7917579,4.5792139 32.8997491,4.30923582 33.1064221,4.12616698 C33.0872897,3.71767547 33.1885681,3.3125618 33.3976809,2.96113159 L33.057879,2.96113159 C33.091468,2.73550847 33.174336,2.52005175 33.3005947,2.33007076 L36.4073557,2.33007076 C36.3102694,3.65691661 36.2131831,5.74427167 36.1160968,8.59213594 L36.0675537,8.59213594 L36.0675537,8.68922222 C36.0675537,8.7863085 36.0675537,8.83485164 36.0190105,8.83485164 C35.9704674,8.83485164 35.9704674,8.68922222 35.9704674,8.5435928 C35.9783462,8.41225937 35.9618889,8.28060066 35.9219243,8.15524767 L35.9219243,6.6504103 C35.8796191,6.21488109 35.8634091,5.7772109 35.8733811,5.3397455 C35.8733811,4.85431409 35.824838,4.46596896 35.824838,4.22325326 C35.7911267,3.78233 35.7262403,3.34434674 35.6306654,2.91258845 L34.805432,2.91258845 C34.9289015,3.38836353 34.9941035,3.87737849 34.9996046,4.36888268 L34.9996046,5.82517691 L34.9025183,5.72809063 L34.6112595,5.3397455 C34.2498167,4.97821677 33.763119,4.76963204 33.2520515,4.75722781 L32.8151632,4.85431409 Z M33.3005947,4.12616698 C33.6403966,4.02908069 33.9801986,4.2717964 34.3685438,4.70868467 C34.5579535,4.93182249 34.7208517,5.1761698 34.8539752,5.43683178 C34.8333524,5.02944185 34.7846941,4.62395611 34.7083457,4.22325326 C34.6680156,3.74729813 34.4618529,3.30061222 34.1258281,2.96113159 L34.0287418,2.96113159 C33.6403966,2.96113159 33.3976809,3.34947672 33.3005947,4.12616698 Z M37.0869596,3.05821788 L36.8927871,3.05821788 C36.8810012,2.92678741 36.8975549,2.79435807 36.9413302,2.66987275 L37.0384165,2.3786139 L37.7665636,2.3786139 C37.7180205,2.47570019 37.6209342,2.57278647 37.6209342,2.66987275 C37.5894243,2.71188591 37.5723911,2.76298572 37.5723911,2.81550217 C37.536894,2.85531706 37.5193392,2.90798144 37.5238479,2.96113159 L37.2811322,3.10676102 L37.0869596,3.05821788 Z M48.1547958,2.42715704 C48.1634174,2.69963927 47.9819045,2.94165645 47.7179075,3.00967474 L46.6985015,3.00967474 C46.4624263,2.98794073 46.2253386,3.03874522 46.0188976,3.15530416 C45.9100513,3.22521753 45.8253211,3.32689372 45.7761819,3.446563 C45.6604706,3.70709445 45.5946096,3.98700355 45.5820093,4.2717964 C45.9020116,4.12310392 46.2487406,4.04054941 46.6014153,4.02908069 C47.5722781,4.02908069 48.1547958,4.56305524 48.2518821,5.63100434 C48.3489683,6.69895344 48.4460546,7.4756437 48.4460546,7.62127312 C48.4460546,7.76690254 48.4945978,7.86398883 48.5431409,8.30087709 C48.5438504,8.528252 48.5600691,8.7553137 48.591684,8.98048107 C48.4548296,8.83364278 48.3696134,8.64616723 48.3489683,8.44650652 C48.3004252,8.05816139 48.1547958,7.42710056 48.0091663,6.45623774 C47.8635369,5.48537492 47.2324761,4.66014153 46.4072427,4.66014153 L45.7276387,4.75722781 L45.2422073,4.90285723 L45.2422073,4.70868467 C45.2777044,4.66886978 45.2952592,4.6162054 45.2907505,4.56305524 C45.3392936,4.56305524 45.3392936,4.5145121 45.3878367,4.46596896 L45.4363799,4.46596896 L45.4363799,4.17471012 C45.406839,3.75824205 45.5273798,3.34495944 45.7761819,3.00967474 L45.3878367,3.00967474 C45.411042,2.79620196 45.495314,2.59394932 45.6305524,2.42715704 L48.1547958,2.42715704 Z M45.2422073,1.35920795 L45.2422073,1.65046679 L45.0965779,1.84463935 L44.9994916,1.99026878 L44.8538622,2.08735506 L44.5140602,2.08735506 C44.5912089,2.15626381 44.6407677,2.24968019 44.6553891,2.3504597 L44.6596896,2.42715704 C44.6733679,2.57698035 44.6232085,2.72562234 44.5215481,2.83652452 C44.4198878,2.9474267 44.2761602,3.01029782 44.1257151,3.00967474 L42.9606797,3.00967474 C42.7665071,3.04203683 42.5723346,3.28475253 42.378162,3.73782185 L42.2810757,3.88345127 C42.4752483,3.64073557 43.0092228,3.54364929 43.8344562,3.54364929 L44.6111465,3.54364929 C44.5615524,3.80898239 44.3777553,4.02953899 44.1257151,4.12616698 L43.6888268,4.12616698 L43.0092228,3.93199441 L42.5237914,3.93199441 L42.378162,4.02908069 L42.2325326,4.12616698 C42.2325326,4.2717964 42.1839894,4.36888268 42.1839894,4.5145121 L42.1839894,4.70868467 C42.4660196,4.55568489 42.786531,4.48820881 43.1063091,4.5145121 C43.5482407,4.49089182 43.9769337,4.66951392 44.2713445,4.99994351 L44.5626033,5.43683178 L45.2422073,6.35915146 L45.3392936,6.45623774 C45.3392936,6.50478088 45.3392936,6.55332402 45.2907505,6.55332402 L44.9994916,6.35915146 L44.0771719,5.48537492 C43.7111965,5.21949464 43.2671897,5.08287716 42.8150503,5.09702979 L42.3296189,5.09702979 L41.7956443,5.29120236 C41.8595688,5.13676681 41.9410069,4.99017822 42.03836,4.85431409 L42.03836,4.5145121 C41.9739905,3.97325249 42.0936843,3.42608088 42.378162,2.96113159 L42.0869032,2.96113159 C42.1443352,2.74954112 42.2433489,2.55151384 42.378162,2.3786139 L44.4655171,2.3786139 L44.3684308,2.1358982 L44.2228014,1.99026878 L44.0771719,1.79609621 C44.0270091,1.74191751 43.9933309,1.67456117 43.9800857,1.60192365 L44.7082328,1.60192365 L44.9994916,1.50483737 L45.2422073,1.35920795 Z M41.7956443,2.23298448 C41.6490909,2.48434212 41.5657971,2.76754112 41.5529286,3.05821788 C41.4844915,3.55685009 41.4520456,4.05976278 41.4558423,4.56305524 C41.4962949,5.12939189 41.503037,5.45975493 41.5041607,5.55414437 L41.5043855,5.5824612 C41.5192948,5.6665921 41.5019628,5.75325197 41.4558423,5.82517691 L41.3102129,5.72809063 L40.7762384,5.19411608 L39.8539187,4.46596896 C39.85655,4.93972692 39.4998193,5.33842592 39.0286853,5.38828864 C38.7535851,5.41169402 38.483607,5.30370279 38.3005382,5.09702979 C38.1618902,5.00470677 38.059088,4.86763718 38.0092793,4.70868467 C38.0136363,4.52672332 38.0463934,4.34655961 38.1063656,4.17471012 C38.1586183,4.0434908 38.2419018,3.926894 38.3490813,3.83490813 C38.5360161,3.66968882 38.7793796,3.58277327 39.0286853,3.59219243 L39.1257716,3.59219243 L39.6597461,3.68927871 C39.5989562,3.40480569 39.4452564,3.14863938 39.2228578,2.96113159 L38.3976245,2.96113159 C38.4027827,2.73687529 38.4699946,2.51843657 38.591797,2.33007076 L40.4849795,2.33007076 L40.3878932,2.57278647 C40.3292324,2.78030673 40.152965,2.92910847 39.9448236,2.9568406 L39.8539187,2.96113159 L39.8539187,3.68927871 L40.4849795,4.36888268 L40.9704109,4.95140037 L41.3102129,5.53391806 C41.3102129,4.22325326 41.1160403,3.34947672 40.7762384,2.86404531 C40.827305,2.64339795 40.9090027,2.43098387 41.0189541,2.23298448 L41.7956443,2.23298448 Z M38.9801421,4.12616698 C38.5432539,4.12616698 38.3005382,4.32033954 38.3005382,4.66014153 C38.3142454,4.82347446 38.3826592,4.97740542 38.4947107,5.09702979 C38.6040543,5.18794019 38.740897,5.23925623 38.8830559,5.24265922 C39.0956565,5.26069409 39.306314,5.19047492 39.4655736,5.04848665 C39.5968272,4.93838732 39.6806709,4.78370776 39.7026449,4.6162591 L39.7082893,4.5145121 C39.7082893,4.41742582 39.611203,4.32033954 39.4170304,4.22325326 L38.9801421,4.12616698 Z M46.9897604,4.17443857e-14 C46.6248086,0.409709691 46.154799,0.711858686 45.6305524,0.873776536 C45.3668251,0.972853403 45.0870288,1.02222922 44.805319,1.01940596 L44.2228014,1.01940596 C43.9258903,1.0455424 43.6574387,1.20661338 43.4946542,1.45629423 C43.4170909,1.66248082 43.352245,1.87322998 43.3004817,2.08735506 L43.1548523,1.94172564 L43.057766,1.74755307 L42.9121366,1.60192365 L42.6208777,1.45629423 L42.2810757,1.35920795 L41.358756,1.35920795 C41.4350926,1.0526884 41.5850579,0.769420626 41.7956443,0.53397455 C42.3159784,0.579785594 42.775337,0.892149479 43.0092228,1.35920795 C43.1188795,1.50497108 43.2011221,1.66945611 43.2519385,1.84463935 C43.2901567,1.52949784 43.4070068,1.22902604 43.5917405,0.970862818 C43.8588581,0.653218137 44.2453033,0.459995504 44.6596896,0.436888268 L45.9703544,0.436888268 L46.3101564,0.339801986 C46.5434744,0.275650475 46.7592277,0.159475641 46.9412172,4.17443857e-14 L46.9897604,4.17443857e-14 Z M49.4169174,7.96107511 L49.4169174,6.26206518 C49.3768485,6.07062688 49.3605444,5.87497735 49.3683743,5.67954749 L49.3683743,4.61159839 C49.3683743,4.2717964 49.3198312,4.02908069 49.3198312,3.88345127 C49.3067936,3.6381221 49.2224397,3.40193121 49.0771154,3.2038473 C48.9963619,3.06312832 48.8506457,2.97205572 48.6887703,2.96113159 L48.931486,2.3786139 L49.8052626,2.3786139 C49.7567194,2.52424333 49.7567194,2.66987275 49.7081763,2.71841589 C49.6968106,2.80021013 49.6806011,2.88125782 49.6596331,2.96113159 C49.6596331,3.25239044 49.61109,3.49510614 49.61109,3.78636499 L49.61109,7.86398883 C49.6155987,7.91713898 49.5980439,7.96980336 49.5625469,8.00961825 L49.4654606,8.00961825 L49.4169174,7.96107511 Z" id="dz-tagline" fill="#000000" fill-rule="nonzero"></path>
    </g>
</svg>