<svg xmlns="http://www.w3.org/2000/svg" width="110" height="16"><path fill="#000" fill-rule="nonzero" d="M2.306 11.99c-.928.01-1.672.022-2.23.033-.05-.05-.076-.143-.076-.277 0-.14.025-.235.075-.285.643-.022 1.051-.117 1.225-.285.178-.168.268-.595.268-1.283V3.01c0-.688-.09-1.113-.268-1.275-.174-.167-.582-.262-1.225-.285C.025 1.4 0 1.305 0 1.165 0 1.025.025.93.075.88 1.221.902 1.96.914 2.29.914 2.658.914 3.4.902 4.519.88c.05.05.076.145.076.285 0 .134-.026.23-.076.285-.643.023-1.054.118-1.232.285-.174.162-.26.587-.26 1.275v7.453c0 .263.07.473.21.63.145.15.343.225.595.225h1.945c.592 0 1.04-.19 1.341-.57.308-.385.565-.944.771-1.677a.995.995 0 0 1 .562.083 33.5 33.5 0 0 1-.444 2.868 128.222 128.222 0 0 0-2.046-.033H2.306Zm11.528-4-1.358.36c-1.09.286-1.633.914-1.627 1.887 0 .307.103.59.31.847.213.251.52.377.923.377.402 0 .905-.249 1.509-.746a.516.516 0 0 0 .243-.445V7.99Zm0 3.178H13.8l-.343.268c-.38.296-.69.489-.931.578-.24.095-.553.143-.94.143-.653 0-1.178-.148-1.575-.444-.392-.297-.587-.766-.587-1.409 0-.57.26-1.073.78-1.51.52-.435 1.204-.762 2.054-.98l1.475-.36c.067-.023.1-.09.1-.202 0-1.487-.463-2.23-1.39-2.23-.381 0-.714.061-.999.184-.285.118-.427.297-.427.537 0 .162.011.274.033.335.034.067.05.17.05.31 0 .13-.07.258-.209.386-.134.123-.316.185-.545.185-.402 0-.6-.201-.595-.604 0-.47.296-.903.888-1.3a3.416 3.416 0 0 1 1.946-.603c1.727 0 2.59.967 2.59 2.9V9.91c0 .33.009.581.025.755.017.173.079.335.185.486a.567.567 0 0 0 .478.218c.14 0 .26-.045.36-.134.1-.09.157-.135.168-.135.034 0 .078.034.134.101.062.067.092.129.092.185 0 .033-.061.111-.184.234a2.159 2.159 0 0 1-.537.36c-.24.118-.486.177-.737.177-.688.006-1.13-.324-1.325-.99Zm5.978-5.324c.48-.537.93-.903 1.35-1.099a3.208 3.208 0 0 1 1.358-.293c.654 0 1.129.195 1.425.587.308.413.464 1.18.47 2.297v2.557c0 .676.064 1.096.192 1.258.135.156.453.26.956.31.045.05.067.145.067.285 0 .134-.022.226-.067.277-.983-.023-1.59-.034-1.82-.034-.206 0-.79.011-1.751.034-.045-.05-.067-.143-.067-.277 0-.14.022-.235.067-.285.47-.045.763-.148.88-.31.123-.162.184-.582.184-1.258V7.286c0-.61-.07-1.051-.21-1.325-.217-.414-.519-.62-.905-.62-.631 0-1.296.338-1.995 1.014a1.056 1.056 0 0 0-.294.721v2.817c0 .676.056 1.096.168 1.258.118.156.405.26.864.31.05.05.075.145.075.285 0 .134-.025.226-.075.277-.962-.023-1.526-.034-1.694-.034-.318 0-.95.011-1.895.034-.05-.05-.075-.143-.075-.277 0-.14.025-.235.075-.285.537-.045.872-.145 1.006-.302.135-.156.202-.578.202-1.266V6.548c0-.48-.067-.783-.202-.906-.128-.128-.436-.215-.922-.26-.067-.195-.078-.357-.033-.486 1.1-.15 1.892-.316 2.372-.494.14 0 .21.044.21.134-.056.525-.087.961-.092 1.308.005.15.064.15.176 0Zm6.85 3.772c.055-.055.153-.083.293-.083.112 0 .193.022.243.067.196.81.42 1.338.67 1.584.252.274.658.411 1.217.411a1.74 1.74 0 0 0 1.006-.31c.302-.207.452-.503.452-.889 0-.38-.117-.684-.352-.914-.234-.229-.701-.486-1.4-.771-.687-.285-1.174-.592-1.459-.922-.285-.336-.427-.808-.427-1.417 0-.537.24-.99.72-1.358.481-.375 1.049-.562 1.703-.562.262 0 .53.02.805.059.274.039.561.092.863.159.308.061.5.098.579.109 0 .15-.017.436-.05.855-.034.414-.05.735-.05.964-.057.056-.157.084-.303.084-.117 0-.2-.022-.251-.067a2.481 2.481 0 0 0-.285-.855c-.129-.23-.283-.391-.461-.486a1.964 1.964 0 0 0-.47-.202 1.49 1.49 0 0 0-.377-.05c-.308 0-.587.1-.839.302-.246.195-.369.46-.369.796 0 .23.034.425.101.587a1.1 1.1 0 0 0 .386.428c.19.123.36.218.511.285.151.067.391.165.721.293 1.342.509 2.012 1.269 2.012 2.28 0 .403-.095.755-.285 1.057-.19.296-.433.523-.73.68-.295.15-.589.26-.88.326-.284.067-.564.1-.838.1a6.279 6.279 0 0 1-1.56-.184 1.333 1.333 0 0 0-.343-.033c-.112 0-.254.017-.428.05a35.535 35.535 0 0 0-.125-2.372Zm7.294-7.914c0-.207.098-.394.293-.562.196-.173.397-.26.604-.26.218 0 .408.095.57.285.168.19.252.392.252.604 0 .196-.093.383-.277.562a.843.843 0 0 1-.612.268c-.207 0-.397-.095-.57-.285-.174-.19-.26-.394-.26-.612Zm1.568 8.191c0 .688.067 1.112.2 1.275.14.156.484.254 1.032.293.05.05.076.145.076.285 0 .134-.026.226-.076.277a111.3 111.3 0 0 0-1.903-.034c-.319 0-.961.011-1.928.034-.05-.05-.076-.143-.076-.277 0-.14.025-.235.076-.285.547-.045.891-.145 1.03-.302.14-.156.21-.578.21-1.266V6.548c0-.48-.067-.783-.2-.906-.13-.128-.434-.215-.915-.26-.067-.195-.078-.357-.033-.486 1.062-.14 1.844-.304 2.347-.494.151 0 .227.039.227.117a32.43 32.43 0 0 0-.067 1.953v3.421Zm3.026 0V2.39c0-.369-.008-.642-.025-.821-.017-.185-.09-.319-.218-.403-.123-.09-.22-.137-.293-.142L37.452.98c-.078-.078-.117-.207-.117-.386 0-.05.005-.092.016-.125C38.37.39 39.168.235 39.75 0c.151 0 .227.059.227.176-.045.458-.067 1.06-.067 1.803v5.936c.447-.129 1.185-.758 2.213-1.887.207-.207.31-.385.31-.536 0-.207-.207-.319-.62-.336-.05-.05-.076-.142-.076-.276 0-.14.025-.238.076-.294.85.022 1.378.034 1.584.034.151 0 .649-.012 1.493-.034.05.05.075.145.075.285 0 .14-.025.235-.075.285-.8.034-1.428.285-1.887.755l-1.308 1.442a.238.238 0 0 0-.067.176c0 .078.028.156.084.235l2.012 2.968c.174.262.37.438.587.528.224.084.52.15.889.201.05.05.075.145.075.285 0 .134-.025.227-.075.277a52.366 52.366 0 0 0-1.409-.034c-.33 0-.726.012-1.19.034-.045 0-.067-.028-.067-.084v-.277c0-.24-.132-.55-.394-.93l-1.25-1.761c-.162-.24-.315-.402-.46-.486a.946.946 0 0 0-.52-.134v1.542c0 .677.053 1.099.159 1.266.112.162.355.263.73.302.05.05.075.145.075.285.005.134-.02.227-.076.277-.983-.022-1.503-.034-1.56-.034-.262 0-.874.012-1.835.034-.05-.05-.076-.143-.076-.277 0-.14.025-.235.076-.285.503-.033.819-.131.947-.293.134-.162.201-.587.201-1.275Zm8.443 0V2.39c0-.369-.011-.642-.033-.821-.017-.185-.09-.319-.218-.403-.123-.09-.218-.137-.285-.142-.067-.006-.258-.02-.57-.042-.079-.078-.115-.207-.11-.386 0-.05.003-.092.009-.125C46.803.39 47.606.235 48.192 0c.151 0 .226.059.226.176-.044.458-.07 1.06-.075 1.803v7.914c0 .688.073 1.115.218 1.283.145.162.486.257 1.023.285.05.05.075.145.075.285 0 .134-.025.227-.075.277-.984-.022-1.621-.034-1.912-.034-.318 0-.958.012-1.92.034-.05-.05-.075-.143-.075-.277 0-.14.025-.235.075-.285.537-.022.878-.117 1.023-.285.145-.168.218-.595.218-1.283Zm3.597-1.425c0-1.135.324-2.088.973-2.86.653-.77 1.542-1.156 2.666-1.156.642 0 1.204.114 1.685.344.48.229.855.536 1.123.922.269.38.467.79.596 1.232.134.442.2.897.2 1.367 0 .62-.12 1.21-.36 1.769-.24.559-.648 1.045-1.224 1.459-.57.408-1.255.612-2.054.612-1.135 0-2.02-.375-2.658-1.124a3.868 3.868 0 0 1-.947-2.565Zm3.454-3.446c-.665 0-1.162.299-1.492.897-.324.593-.486 1.31-.486 2.155 0 .352.044.724.134 1.115.095.391.229.771.402 1.14.179.363.433.665.763.906.335.24.716.36 1.14.36.503 0 .937-.198 1.3-.595.369-.403.553-1.115.553-2.138 0-1.247-.201-2.197-.603-2.85-.397-.66-.967-.99-1.71-.99Zm7.496 1.216c-.185.195-.274.447-.269.754v3.195c0 .301.023.508.067.62.05.112.165.249.344.41.268.241.674.361 1.216.361.458 0 .852-.095 1.182-.285.335-.19.587-.447.755-.771.173-.324.296-.657.369-.998.078-.346.117-.715.117-1.106 0-.94-.199-1.702-.595-2.29-.392-.592-.875-.888-1.45-.888-.515 0-1.094.333-1.736.998Zm-.134-.57c.38-.38.782-.677 1.207-.89.43-.217.813-.326 1.148-.326.861 0 1.582.35 2.164 1.048.58.699.872 1.517.872 2.456 0 1.342-.422 2.423-1.266 3.245-.677.643-1.52.961-2.532.956-.56 0-1.057-.087-1.493-.26-.09-.045-.15-.062-.184-.05-.034.01-.05.07-.05.176v1.853c0 .687.075 1.112.226 1.274.156.162.55.26 1.182.293.05.05.075.143.075.277 0 .14-.025.235-.075.285a106.34 106.34 0 0 0-2.08-.033c-.318 0-.96.01-1.928.033-.05-.05-.075-.145-.075-.285 0-.134.025-.226.075-.277.537-.022.878-.117 1.023-.285.145-.167.218-.595.218-1.282V6.548c0-.48-.067-.783-.201-.906-.129-.128-.433-.215-.914-.26-.067-.195-.078-.357-.033-.486 1.05-.14 1.822-.304 2.314-.494.15 0 .226.039.226.117a7.983 7.983 0 0 0-.067 1.098c0 .056.022.087.067.092.045.006.078-.008.1-.042ZM72.196.469a.775.775 0 0 1 .243-.033c.352 0 .665.131.94.394l.05.184-1.97 1.878c-.219.218-.392.325-.52.32a.237.237 0 0 1-.16-.068.199.199 0 0 1-.075-.15c0-.113.064-.272.192-.479l1.3-2.046Zm-2.507 6.674 3.11-.05c.174 0 .258-.078.252-.235 0-.654-.14-1.118-.42-1.392a1.386 1.386 0 0 0-1.005-.41 1.7 1.7 0 0 0-.445.058c-.145.04-.324.123-.536.252-.213.123-.405.338-.579.645-.173.308-.299.685-.377 1.132Zm4.502 3.253c.196.011.316.1.36.269-.765.994-1.74 1.492-2.925 1.492-1.135 0-2.01-.366-2.624-1.098-.537-.62-.805-1.468-.805-2.54 0-1.214.363-2.19 1.09-2.927.726-.738 1.506-1.107 2.339-1.107 1.934 0 2.9.995 2.9 2.985 0 .196-.105.294-.318.294l-4.57-.034c0 .961.182 1.747.546 2.356.503.822 1.129 1.233 1.878 1.233.48 0 .872-.068 1.174-.202.307-.14.626-.38.955-.72Zm7.077-.536V6.598c0-.263-.02-.447-.06-.553a1.072 1.072 0 0 0-.234-.377c-.352-.414-.816-.618-1.392-.612-.687 0-1.22.285-1.601.855-.33.47-.495 1.23-.495 2.28 0 1.006.188 1.786.562 2.34.38.547.822.821 1.325.821.447 0 .986-.274 1.618-.822.184-.162.277-.385.277-.67Zm-.193 1.266c-.839.687-1.554 1.03-2.147 1.03-.905 0-1.618-.334-2.138-1.005-.52-.677-.78-1.56-.78-2.65 0-1.224.395-2.23 1.183-3.018a3.602 3.602 0 0 1 2.574-1.031c.173 0 .363.025.57.075.207.05.383.1.528.151.151.045.232.067.243.067.1 0 .154-.053.16-.159V2.389c0-.369-.012-.642-.034-.821-.017-.185-.09-.319-.218-.403-.123-.09-.218-.137-.285-.142-.067-.006-.257-.02-.57-.042-.078-.078-.115-.207-.11-.386 0-.05.004-.092.01-.125C81.077.39 81.88.235 82.465 0c.151 0 .227.059.227.176-.045.458-.07 1.06-.076 1.803v7.78c0 .447.079.758.235.93.157.169.498.275 1.023.32.05.05.075.128.075.234 0 .1-.025.179-.075.235-.961.112-1.654.338-2.08.68a.953.953 0 0 1-.175.033.465.465 0 0 1-.151-.034c-.129-.402-.19-.738-.185-1.006-.005-.056-.03-.084-.075-.084s-.09.02-.134.059Zm4.494-9.424c0-.207.097-.394.293-.562.196-.173.397-.26.604-.26.218 0 .408.095.57.285.168.19.251.392.251.604 0 .196-.092.383-.276.562a.843.843 0 0 1-.612.268c-.207 0-.397-.095-.57-.285-.174-.19-.26-.394-.26-.612Zm1.567 8.191c0 .688.068 1.112.202 1.275.14.156.483.254 1.031.293.05.05.075.145.075.285 0 .134-.025.226-.075.277a111.3 111.3 0 0 0-1.903-.034c-.319 0-.962.011-1.929.034-.05-.05-.075-.143-.075-.277 0-.14.025-.235.075-.285.548-.045.892-.145 1.032-.302.14-.156.21-.578.21-1.266V6.548c0-.48-.068-.783-.202-.906-.129-.128-.433-.215-.914-.26-.067-.195-.078-.357-.033-.486 1.062-.14 1.844-.304 2.347-.494.151 0 .227.039.227.117a32.43 32.43 0 0 0-.068 1.953v3.421Zm7.48 0V2.39c0-.369-.012-.642-.034-.821-.017-.185-.09-.319-.218-.403-.123-.09-.218-.137-.285-.142l-.57-.042c-.079-.078-.115-.207-.11-.386 0-.05.003-.092.009-.125C94.425.39 95.228.235 95.814 0c.151 0 .226.059.226.176-.044.458-.07 1.06-.075 1.803v7.914c0 .688.073 1.115.218 1.283.145.162.486.257 1.023.285.05.05.075.145.075.285 0 .134-.025.227-.075.277-.984-.022-1.621-.034-1.912-.034-.318 0-.958.012-1.92.034-.05-.05-.075-.143-.075-.277 0-.14.025-.235.075-.285.537-.022.878-.117 1.023-.285.145-.168.218-.595.218-1.283Zm4.434-8.191c0-.207.098-.394.294-.562.195-.173.397-.26.603-.26.218 0 .408.095.57.285.168.19.252.392.252.604 0 .196-.092.383-.277.562a.843.843 0 0 1-.612.268c-.206 0-.396-.095-.57-.285-.173-.19-.26-.394-.26-.612Zm1.568 8.191c0 .688.067 1.112.201 1.275.14.156.484.254 1.032.293.05.05.075.145.075.285 0 .134-.025.226-.075.277-.984-.023-1.618-.034-1.904-.034-.318 0-.96.011-1.928.034-.05-.05-.075-.143-.075-.277 0-.14.025-.235.075-.285.548-.045.892-.145 1.031-.302.14-.156.21-.578.21-1.266V6.548c0-.48-.067-.783-.201-.906-.129-.128-.433-.215-.914-.26-.067-.195-.078-.357-.034-.486 1.062-.14 1.845-.304 2.348-.494.15 0 .226.039.226.117a32.418 32.418 0 0 0-.067 1.953v3.421Zm4.536-4.133c-.196.173-.29.413-.285.72v4.294c.436.536.847.804 1.232.804.789 0 1.39-.315 1.803-.947.414-.637.62-1.467.62-2.49 0-.822-.187-1.515-.561-2.08-.37-.57-.82-.855-1.35-.855-.56 0-1.045.185-1.459.554Zm-.117-.537c.57-.514 1.21-.771 1.92-.771.788 0 1.492.316 2.112.947.62.626.931 1.437.931 2.432 0 1.28-.397 2.322-1.19 3.127-.789.8-1.658 1.199-2.608 1.199-.67 0-1.174-.14-1.51-.42-.089-.072-.164-.111-.226-.117-.072 0-.153.053-.243.16-.084.095-.218.234-.402.419-.173 0-.3-.07-.377-.21.044-.218.067-.623.067-1.215V2.389a9.7 9.7 0 0 0-.025-.821c-.017-.185-.09-.319-.218-.403-.123-.09-.221-.137-.294-.142-.067-.006-.254-.02-.562-.042-.078-.078-.117-.207-.117-.386a.73.73 0 0 1 .01-.125C103.32.39 104.122.235 104.71 0c.151 0 .227.059.227.176-.045.458-.067 1.06-.067 1.803v3.16c0 .157.056.185.167.084Z"/></svg>