<svg xmlns="http://www.w3.org/2000/svg" width="120" height="20"><path fill="#000" fill-rule="nonzero" d="m17.862.317.057.058v.547c0 .144-.086.23-.23.23-1.585.087-2.075.865-2.478 1.902L9.363 18.639c-.173.433-.375.663-.692.663-.288 0-.518-.23-.662-.663L2.42 2.94c-.432-1.21-.691-1.643-2.19-1.787A.227.227 0 0 1 0 .922V.375L.058.317s.877.022 1.81.04l.374.006c.435.007.859.012 1.186.012h.133C4.622.37 6.712.316 6.712.316l.058.058v.547c0 .144-.086.202-.23.23l-.49.058c-1.354.173-1.585.403-1.268 1.268l4.552 12.82h.115l4.495-12.619c.403-1.095-.202-1.44-1.268-1.498l-.461-.029a.227.227 0 0 1-.23-.23V.375l.057-.058s.8.022 1.673.04l.351.006c.411.007.817.012 1.145.012h.148c1.013-.006 2.503-.058 2.503-.058Zm-.425 5.33s2.276.057 3.169.057c.27 0 .715-.007 1.18-.016l.35-.007c.757-.016 1.466-.034 1.466-.034l.029.057v.634c0 .086-.058.144-.173.144l-.605.058c-.893.086-1.21.317-1.21.893v9.593c0 .634.288 1.008 1.21 1.095l.605.057c.087 0 .173.058.173.173v.605l-.029.058s-2.19-.058-3.082-.058h-.113c-.885.005-2.941.058-2.941.058l-.058-.058v-.605c0-.115.087-.173.202-.173l.576-.057c.95-.087 1.239-.548 1.239-1.095V7.433c0-.634-.346-.807-1.239-.893l-.576-.058c-.115 0-.202-.029-.202-.115v-.663Zm20.03 10.947-.575-.461c-1.326 1.556-2.334 2.132-4.264 2.132-3.486 0-4.523-3.198-4.523-6.05 0-4.84 2.247-5.963 4.408-5.963 2.506 0 3.774 1.382 4.12 3.399l.748-.086c-.172-1.182-.317-2.392-.345-3.688-1.095 0-2.391-.46-4.696-.46-3.803 0-6.741 2.88-6.741 7.086 0 3.313 2.448 6.741 6.885 6.741 2.247 0 3.63-.835 4.984-2.65ZM45.08 6.54l.605-.058c.115 0 .173-.058.173-.144v-.634l-.03-.057s-2.217.057-2.995.057c-.893 0-3.17-.057-3.17-.057l-.028.057v.663c0 .086.086.115.202.115l.576.058c.893.086 1.239.259 1.239.893v9.593c0 .547-.289 1.008-1.24 1.095l-.575.057c-.116 0-.202.058-.202.173v.605l.058.058s2.247-.058 3.053-.058c.893 0 3.083.058 3.083.058l.029-.058v-.605c0-.115-.087-.173-.173-.173l-.605-.057c-.922-.087-1.21-.461-1.21-1.095V7.433c0-.576.317-.807 1.21-.893Zm8.68-.893c4.09 0 4.84 2.016 4.84 3.514 0 1.729-.836 4.437-4.927 4.437-.72 0-1.296-.058-1.815-.288v3.86c0 .634.346.778 1.268.922l.576.086c.115.03.202.058.202.173v.605l-.029.058s-2.305-.058-3.198-.058h-.112c-.878.005-2.855.058-2.855.058l-.029-.058v-.605c0-.115.058-.144.173-.173l.605-.086c.893-.115 1.181-.375 1.181-.922V7.49c0-.893-.374-.922-1.728-1.008-.173 0-.202-.086-.202-.144v-.663l.058-.028c.432 0 2.131.057 2.967.057.807 0 1.959-.057 3.025-.057Zm8.97 0s1.904.043 3.837.054l.446.002.442.001H71.4c.864 0 2.91-.057 2.91-.057l.057.057c.029 1.239.23 2.363.432 3.457l-.72.115c-.317-1.065-.864-2.592-2.708-2.592h-2.017c-.547 0-.835.173-.835.662v4.494h1.757c.778 0 .98-.345 1.124-.921l.144-.605c.029-.116.086-.173.173-.173h.49c.057 0 .086.029.086.086-.058.663-.173 1.47-.173 2.16 0 .721.086 1.297.173 1.989l-.058.057h-.518c-.116 0-.173-.086-.202-.144l-.115-.634c-.144-.605-.375-.893-1.124-.893H68.52v4.495c0 .547.345.72.835.72h2.046c1.757 0 2.42-1.153 2.852-2.593l.749.086c-.346 1.412-.576 2.564-.605 3.486h-7.071c-1.12.005-2.695.058-2.695.058l-.03-.058v-.634c0-.057.03-.144.145-.144l.49-.057c.921-.115 1.18-.346 1.18-.922v-4.465H63.19c-.547 0-.72.144-.835.374l-2.075 4.149c-.259.518.087.605.951.864l.288.057c.087.03.173.087.173.173v.605l-.029.058s-2.362-.058-2.91-.058h-.11c-.58.007-1.618.058-1.618.058l-.029-.058v-.605c0-.086.058-.173.173-.173.95-.086 1.498-.576 1.729-.98.576-.921 1.901-3.37 2.794-5.098.461-.922 2.103-4.206 2.103-5.013 0-.346-.202-.519-.95-.605-.173-.029-.173-.086-.173-.115v-.663Zm-9.143.835c-1.383 0-1.729.26-1.729 1.008v5.013c.577.23 1.297.26 1.873.26 1.729 0 2.564-1.038 2.564-3.256 0-2.478-1.124-3.025-2.708-3.025Zm12.197 0c-.288 0-.663.461-.98 1.152l-1.7 3.918a.487.487 0 0 0-.057.144c0 .116.173.144.576.144h2.795V7.692c0-.893-.26-1.21-.634-1.21Zm11.066 12.474.029.058s2.189-.058 3.053-.058c.893 0 1.902.058 4.206.058 3.198 0 6.77-1.498 6.77-6.54 0-3.831-2.362-6.827-7.173-6.827-.749 0-3.255.057-3.803.057-.518 0-3.053-.057-3.053-.057l-.03.057v.634c0 .086.087.144.202.144l.634.058c.95.086 1.153.086 1.153.835v9.507c0 .893-.289 1.152-1.153 1.239l-.662.057c-.116 0-.173.087-.173.173v.605Zm4.206-11.58c0-.721.72-.894 1.844-.894 4.84 0 5.502 3.486 5.502 6.482 0 4.033-1.786 5.214-4.955 5.214-2.19 0-2.391-.49-2.391-1.296V7.375Zm17.387-.836.605-.058c.116 0 .173-.058.173-.144v-.634l-.029-.057s-2.218.057-2.996.057c-.893 0-3.169-.057-3.169-.057l-.029.057v.663c0 .086.087.115.202.115l.576.058c.893.086 1.24.259 1.24.893v9.593c0 .547-.289 1.008-1.24 1.095l-.576.057c-.115 0-.202.058-.202.173v.605l.058.058s2.247-.058 3.054-.058c.893 0 3.082.058 3.082.058l.03-.058v-.605c0-.115-.087-.173-.174-.173l-.605-.057c-.922-.087-1.21-.461-1.21-1.095V7.433c0-.576.317-.807 1.21-.893Zm8.536 3.889 2.881-7.318h.058l2.794 7.692H107.7c-.634 0-.836-.086-.72-.374Zm-.806 2.074c.144-.374.317-.49 1.008-.49h5.992l1.758 4.869c.288.807-.116 1.152-1.21 1.239l-.807.057c-.144 0-.202.087-.202.23v.548l.03.058s2.822-.058 3.83-.058c1.124 0 3.343.058 3.343.058l.086-.058v-.547c0-.144-.144-.23-.288-.23l-.317-.03c-1.152-.115-1.729-.547-2.132-1.67L111.357.864c-.23-.576-.374-.864-.778-.864-.432 0-.662.288-.979 1.037l-6.396 14.98c-.806 1.845-1.526 2.075-2.794 2.161-.144 0-.23.087-.23.23v.548l.057.058s1.844-.058 2.593-.058c.691 0 3.831.058 3.831.058l.058-.058v-.547a.227.227 0 0 0-.23-.23l-.836-.058c-1.066-.087-1.44-.72-1.152-1.44l1.67-4.178Z"/></svg>