<svg xmlns="http://www.w3.org/2000/svg" width="146" height="44" fill="none"><path fill="#fff" d="M0 0h146v44H0z"/><path fill="#555" d="M7.226 32.735h-.347l-2.78-1.778.14-17.367H1.18L0 11.367v-.341h4.412c-.417-.639-.718-1.265-.903-1.88a6.613 6.613 0 0 1-.278-1.847c0-.912.231-1.755.695-2.53.486-.775 1.227-1.401 2.223-1.88.996-.502 2.246-.752 3.752-.752 1.366 0 2.756.24 4.169.718 1.412.456 2.918 1.208 4.516 2.256 1.598 1.049 3.335 2.427 5.21 4.137l-.937 1.06a35.54 35.54 0 0 0-3.787-2.77 19.896 19.896 0 0 0-3.995-2.017 11.637 11.637 0 0 0-4.1-.752c-1.227 0-2.234.205-3.022.616-.764.387-1.32.889-1.667 1.504a3.968 3.968 0 0 0-.521 1.983c0 .387.046.752.139 1.094.116.342.266.695.451 1.06h3.683l1.181 2.222v.342H7.156l.07 19.145Z"/><path fill="#555" d="M18.954 27.675c-1.204 0-2.258-.205-3.161-.615-.903-.41-1.668-.946-2.293-1.607a7.63 7.63 0 0 1-1.39-2.12c-.3-.752-.451-1.458-.451-2.12 0-.957.29-1.811.868-2.563.602-.753 1.39-1.334 2.363-1.744a7.683 7.683 0 0 1 3.16-.65c1.39 0 2.664.32 3.822.958a11.093 11.093 0 0 1 3.023 2.427l.07-6.051H10.442l-1.181-2.223v-.341h21.504l1.18 2.222v.342h-4.064l.07 18.974h-.348l-2.779-1.778.035-5.436c-.81.525-1.517.958-2.12 1.3a8.862 8.862 0 0 1-1.806.786c-.579.16-1.239.24-1.98.24Zm5.94-6.154c-.74-.706-1.667-1.31-2.778-1.812-1.089-.524-2.19-.786-3.3-.786-1.275 0-2.363.33-3.266.992-.904.638-1.355 1.56-1.355 2.769 0 .911.324 1.607.973 2.085.648.479 1.412.718 2.292.718.857 0 1.853-.273 2.988-.82 1.135-.547 2.617-1.505 4.447-2.872v-.274Z"/><path fill="#555" d="M37.216 32.735h-.347l-2.78-1.778.14-17.367h-3.057l-1.182-2.223v-.341h4.412c-.417-.639-.718-1.265-.903-1.88a6.612 6.612 0 0 1-.278-1.847c0-.912.232-1.755.695-2.53.486-.775 1.227-1.401 2.223-1.88.996-.502 2.247-.752 3.752-.752 1.367 0 2.756.24 4.169.718 1.413.456 2.918 1.208 4.516 2.256 1.598 1.049 3.335 2.427 5.211 4.137l-.938 1.06a35.55 35.55 0 0 0-3.786-2.77 19.901 19.901 0 0 0-3.995-2.017 11.637 11.637 0 0 0-4.1-.752c-1.227 0-2.235.205-3.022.616-.764.387-1.32.889-1.668 1.504a3.968 3.968 0 0 0-.52 1.983c0 .387.045.752.138 1.094.116.342.267.695.452 1.06h3.682l1.181 2.222v.342h-4.064l.07 19.145Z"/><path fill="#555" d="M62.632 29.897h-.278l-2.397-2.017a14.986 14.986 0 0 0 2.05-3.042c.579-1.094.868-2.018.868-2.77 0-.592-.173-1.037-.52-1.333a1.581 1.581 0 0 0-1.147-.479c-.487 0-1.042.16-1.668.479-.625.296-1.25.661-1.876 1.094-.625.433-1.193.843-1.702 1.23l.035 9.505h-.348l-2.779-1.846.035-5.436a27.794 27.794 0 0 1-2.015 1.368c-.51.319-.984.547-1.424.683-.44.114-.927.171-1.46.171-1.18 0-2.246-.307-3.196-.923a7.154 7.154 0 0 1-2.223-2.325c-.533-.957-.799-1.903-.799-2.837 0-.98.266-1.824.8-2.53a5.336 5.336 0 0 1 2.049-1.641 6.345 6.345 0 0 1 2.64-.581c1.181 0 2.246.307 3.196.923a9.85 9.85 0 0 1 2.501 2.154l.07-6.154h-12.61l-1.182-2.223v-.341h27.27l1.182 2.222v.342H55.893l.034 6.017a19.827 19.827 0 0 1 2.224-1.334c.74-.387 1.378-.58 1.91-.58.417 0 .904.136 1.46.41.578.25 1.134.638 1.667 1.162.556.524 1.007 1.174 1.355 1.949.37.775.556 1.675.556 2.7 0 1.049-.22 2.04-.66 2.975-.417.934-1.02 1.937-1.807 3.008ZM52.94 21.83v-.205a8.615 8.615 0 0 0-2.154-1.641 5.36 5.36 0 0 0-2.606-.684c-.996 0-1.899.296-2.71.889-.787.593-1.18 1.447-1.18 2.564 0 .866.23 1.516.694 1.949.463.41 1.008.615 1.633.615.556 0 1.181-.17 1.876-.513.718-.364 1.459-.809 2.223-1.333a39.67 39.67 0 0 0 2.224-1.64Z"/><path fill="#555" d="M77.699 32.906h-.348l-6.149-7.385c-1.135-1.39-1.899-2.438-2.293-3.145-.393-.73-.59-1.345-.59-1.846 0-.73.59-1.094 1.772-1.094.347 0 .822.023 1.424.068.625.046 1.146.091 1.563.137.116-.57.185-1.22.209-1.949.046-.752.07-1.401.07-1.948 0-.502-.013-.912-.036-1.231 0-.342-.011-.65-.034-.923h-6.358l-1.181-2.223v-.341h24.353l1.18 2.222v.342h-4.064l.07 18.974h-.348l-2.779-1.778.035-6.735a8.752 8.752 0 0 1-2.988.513c-.648 0-1.482-.125-2.501-.376-1.019-.273-2.189-.934-3.509-1.983-.556 1.003-1.54 1.641-2.953 1.915l7.226 7.35-1.771 1.436Zm-1.946-12.068c.278.16.672.33 1.181.512.533.16 1.089.297 1.668.41a9.18 9.18 0 0 0 1.702.172c.81 0 1.575-.126 2.293-.376.718-.274 1.262-.57 1.633-.89l.07-7.076h-8.2c.047.433.07.911.07 1.436.023.524.035.889.035 1.094 0 1.002-.047 1.914-.14 2.735-.069.82-.173 1.481-.312 1.983ZM94.607 42a64.016 64.016 0 0 0-1.529-1.914 22.143 22.143 0 0 0-2.05-2.154 11.48 11.48 0 0 0-2.396-1.71 5.623 5.623 0 0 0-2.675-.684c-.927 0-1.656.228-2.189.684-.556.479-.834 1.049-.834 1.71 0 .524.162.945.487 1.265.324.319.764.478 1.32.478.579 0 1.123-.16 1.633-.478.509-.297.984-.627 1.424-.992l1.772 2.257c-.487.41-1.02.729-1.598.957-.603.25-1.251.376-1.946.376-.996 0-1.887-.24-2.675-.718a5.153 5.153 0 0 1-1.841-1.88c-.463-.753-.695-1.528-.695-2.325 0-1.071.37-1.949 1.112-2.633.74-.683 1.679-1.025 2.814-1.025 1.042 0 2.142.273 3.3.82a19.974 19.974 0 0 1 3.3 2.017 31.192 31.192 0 0 1 2.849 2.462c.857.82 1.505 1.516 1.945 2.085L94.85 42h-.243Z"/><path fill="#555" d="M96.552 32.735h-.347l-2.78-1.778.14-17.367h-3.057l-1.182-2.223v-.341h4.412c-.486-.775-.81-1.448-.972-2.017a7.223 7.223 0 0 1-.209-1.641c0-1.755.718-3.089 2.154-4C96.171 2.456 98.22 2 100.86 2c2.594 0 5.755.524 9.484 1.573 3.752 1.025 7.898 2.826 12.437 5.401l-.66 1.197a55.32 55.32 0 0 0-6.462-2.77 51.716 51.716 0 0 0-6.913-2.016c-2.293-.502-4.493-.753-6.601-.753-.833 0-1.667.057-2.5.171a8.89 8.89 0 0 0-2.294.616 4.08 4.08 0 0 0-1.632 1.265c-.417.524-.626 1.22-.626 2.085 0 .297.035.627.105.992.092.364.254.786.486 1.265h3.682l1.181 2.222v.342h-4.064l.07 19.145Z"/><path fill="#555" d="M107.447 27.504c-1.251 0-2.351-.307-3.3-.923a6.708 6.708 0 0 1-2.224-2.325c-.533-.957-.799-1.903-.799-2.837 0-.98.266-1.824.799-2.53a5.338 5.338 0 0 1 2.05-1.641 6.345 6.345 0 0 1 2.64-.581c1.181 0 2.247.307 3.196.923a9.83 9.83 0 0 1 2.501 2.154l.07-6.154H99.77l-1.182-2.223v-.341h40.194l1.181 2.222v.342h-4.064l.069 18.974h-.347l-2.779-1.778.069-10.872h-4.481c-1.691 0-2.953.377-3.787 1.129-.811.73-1.216 1.63-1.216 2.7 0 .502.07.98.209 1.437.162.455.417.957.764 1.504.37.547.868 1.196 1.494 1.948l2.432 2.735-1.494 1.197h-.348c-1.644-2.097-3.01-3.988-4.099-5.675-1.089-1.687-1.633-3.26-1.633-4.718 0-.524.07-1.003.209-1.436a1.808 1.808 0 0 0-.348-.034 1.635 1.635 0 0 0-.312-.034c-.788 0-1.587.25-2.397.752a28.378 28.378 0 0 0-2.606 1.846l.035 9.3h-.348l-2.779-1.847.035-5.23a31.43 31.43 0 0 1-2.05 1.367c-.741.433-1.656.65-2.744.65Zm7.816-7.692a14.886 14.886 0 0 1 2.05-1.197c.672-.319 1.332-.478 1.98-.478.834 0 1.679.364 2.536 1.094.625-.661 1.471-1.14 2.536-1.436 1.089-.296 2.316-.445 3.683-.445h4.898l.035-3.76h-17.752l.034 6.222Zm-2.987 2.222v-.444a9.075 9.075 0 0 0-2.154-1.607 5.36 5.36 0 0 0-2.606-.684 4.48 4.48 0 0 0-2.709.889c-.788.593-1.182 1.447-1.182 2.564 0 .866.232 1.516.695 1.949.463.41 1.008.615 1.633.615.903 0 1.899-.33 2.988-.991a41.693 41.693 0 0 0 3.335-2.29ZM143.325 24.94 146 27.538l-2.675 2.496-2.605-2.495 2.605-2.599Zm0-9.299L146 18.239l-2.675 2.496-2.605-2.496 2.605-2.598Z"/></svg>