<svg xmlns="http://www.w3.org/2000/svg" xmlns:xlink="http://www.w3.org/1999/xlink" viewBox="0 0 135 13"><defs><symbol id="a" overflow="visible"><path d="M1.969-1.125h3.515V0H.75v-1.125c.383-.52.906-1.22 1.563-2.11q.995-1.323 1.25-1.703.482-.716.671-1.218.201-.498.203-.985 0-.779-.421-1.28a1.37 1.37 0 0 0-1.094-.5c-.312 0-.648.073-1 .218a6.2 6.2 0 0 0-1.125.656V-9.39a6 6 0 0 1 1.14-.484q.529-.17.97-.172c.77 0 1.38.258 1.843.766.469.512.703 1.2.703 2.047q-.001.61-.172 1.156-.174.55-.64 1.281-.13.205-.797 1.125c-.438.605-1.06 1.45-1.875 2.547z"/></symbol><symbol id="b" overflow="visible"><path d="M1.11-9.86h3.952v1.126h-3.03v2.406q.215-.095.437-.14a2 2 0 0 1 .437-.048q1.249.002 1.97.907.732.91.733 2.437 0 1.592-.75 2.484c-.492.586-1.2.875-2.109.875-.312 0-.633-.039-.953-.109a4.8 4.8 0 0 1-1-.312v-1.344q.435.33.922.484.481.157 1.015.156c.57 0 1.02-.195 1.36-.593q.516-.61.515-1.64c0-1.03-.172-1.23-.515-1.626q-.505-.593-1.36-.594-.409.001-.812.125a3.5 3.5 0 0 0-.813.36z"/></symbol><symbol id="d" overflow="visible"><path d="M.969-10.281h.922V0H.969z"/></symbol><symbol id="e" overflow="visible"><path d="M5.75-4v.594H1.531q.048 1.253.563 1.906c.515.653.816.656 1.422.656q.528.002 1.03-.172.498-.17.985-.515v1.156A4.15 4.15 0 0 1 3.47.187c-.898 0-1.61-.344-2.125-1.03C.82-1.533.563-2.454.562-3.626c0-1.21.242-2.16.735-2.875q.749-1.08 2.015-1.078c.75 0 1.34.324 1.782.969.438.637.656 1.51.656 2.609zm-.922-.36c0-.663-.14-1.2-.422-1.593q-.409-.593-1.094-.594-.767.002-1.234.578-.456.58-.531 1.61z"/></symbol><symbol id="g" overflow="visible"><path d="M1.875-9.5v2.094h1.89v.953h-1.89v4.016q0 .908.188 1.171.185.251.765.25h.938V0h-.938Q1.763 0 1.36-.516.951-1.044.953-2.437v-4.016H.281v-.953h.672V-9.5z"/></symbol><symbol id="h" overflow="visible"><path d="M1.86-1.11v3.923H.921v-10.22h.937v1.126c.188-.438.426-.758.72-.97a1.76 1.76 0 0 1 1.062-.327q1.016 0 1.656 1.078.64 1.067.64 2.812c0 1.16-.215 2.09-.64 2.813-.43.71-.98 1.06-1.656 1.062q-.61 0-1.063-.312c-.293-.22-.53-.547-.719-.985zm3.124-2.577q0-1.344-.421-2.11c-.281-.508-.664-.766-1.141-.766-.492 0-.875.258-1.156.766-.273.512-.406 1.21-.407 2.11 0 .886.133 1.59.407 2.093q.419.767 1.156.766.717.001 1.14-.766c.282-.508.423-1.21.422-2.093"/></symbol><symbol id="j" overflow="visible"><path d="M4.203-6.266a1.5 1.5 0 0 0-.344-.171 1.2 1.2 0 0 0-.39-.063c-.523 0-.922.227-1.203.672-.273.449-.406 1.09-.407 1.937V0H.922v-7.406h.937v1.156q.282-.67.75-1c.468-.33.688-.328 1.125-.328.063 0 .13.008.203.016q.126.017.266.046z"/></symbol><symbol id="k" overflow="visible"><path d="M3.14-6.547q-.751.002-1.187.766-.421.768-.422 2.094c0 .887.141 1.59.422 2.093q.436.75 1.188.75.733 0 1.156-.765c.289-.508.438-1.2.437-2.078q-.002-1.324-.437-2.094c-.281-.508-.668-.766-1.156-.766m0-1.031c.79 0 1.41.344 1.876 1.031q.687 1.031.687 2.86 0 1.817-.687 2.843C4.555-.156 3.926.186 3.14.187q-1.22 0-1.907-1.03C.785-1.533.562-2.474.563-3.688c0-1.22.223-2.17.671-2.86.457-.688 1.09-1.03 1.907-1.031"/></symbol><symbol id="l" overflow="visible"><path d="M4.531-7.187v1.156a3 3 0 0 0-.812-.39 2.7 2.7 0 0 0-.86-.142q-.691 0-1.03.282-.345.283-.345.828c0 .28.078.508.235.672.164.156.5.309 1 .453l.312.094c.645.188 1.1.449 1.375.78q.422.506.422 1.407c0 .688-.21 1.23-.625 1.64q-.61.597-1.687.594-.457-.001-.938-.125A6 6 0 0 1 .563-.266V-1.53q.498.363.984.53.498.175.984.173.656 0 1-.281.358-.293.36-.844-.002-.48-.25-.75-.254-.264-1.11-.516l-.328-.094c-.562-.156-.977-.395-1.234-.718Q.594-4.53.594-5.391q0-1.041.562-1.61.562-.575 1.594-.577.497.002.953.11.452.093.828.28z"/></symbol><symbol id="m" overflow="visible"><path d="M5.61-4.469V0h-.907v-4.422c0-.707-.105-1.23-.312-1.578q-.316-.516-.938-.516c-.492 0-.883.211-1.172.625q-.421.626-.422 1.703V0H.922v-7.406h.937v1.156q.328-.67.766-1a1.7 1.7 0 0 1 1.031-.328q.968 0 1.453.797c.332.523.5 1.29.5 2.312z"/></symbol><symbol id="q" overflow="visible"><path d="M5-7.11v1.126a3.1 3.1 0 0 0-.797-.422 2.3 2.3 0 0 0-.781-.14c-.594 0-1.06.25-1.39.75-.337.5-.5 1.2-.5 2.109 0 .897.163 1.59.5 2.093q.498.75 1.39.75.388 0 .781-.14A3.1 3.1 0 0 0 5-1.406v1.125a3 3 0 0 1-.812.344 3 3 0 0 1-.875.125c-.845 0-1.52-.348-2.016-1.047C.805-1.554.563-2.5.563-3.687q0-1.816.75-2.844c.5-.695 1.19-1.05 2.062-1.047q.42.001.828.125.404.11.797.344"/></symbol><symbol id="r" overflow="visible"><path d="M.969-7.406h.922V0H.969zm0-2.875h.922v1.547H.969z"/></symbol><symbol id="s" overflow="visible"><path d="M.922-10.281h.937v6.078l2.735-3.203h1.172l-2.97 3.469L5.892 0H4.703L1.86-3.61V0H.922z"/></symbol><symbol id="t" overflow="visible"><path d="M4.64-6.281v-4h.922v10.28h-.921V-1.11q-.283.657-.735.985A1.77 1.77 0 0 1 2.86.187Q1.84.19 1.203-.875c-.43-.72-.64-1.66-.64-2.813 0-1.16.21-2.1.64-2.812q.638-1.08 1.656-1.078.608 0 1.047.328c.301.21.547.53.735.969zM1.517-3.687c0 .887.133 1.59.406 2.093q.419.767 1.156.766.731.001 1.14-.766c.282-.508.423-1.21.423-2.093q0-1.344-.422-2.11c-.273-.508-.652-.766-1.141-.765-.492 0-.875.258-1.156.765-.273.512-.406 1.21-.406 2.11"/></symbol><symbol id="u" overflow="visible"><path d="M.969-7.406h.922V.125c0 .945-.141 1.63-.422 2.047q-.408.64-1.297.64h-.36v-1.03h.25q.516 0 .704-.329Q.967 1.14.969.125zm0-2.875h.922v1.547H.969z"/></symbol></defs><use xlink:href="#a" x="-.805" y="10.281"/><use xlink:href="#b" x="5.711" y="10.281"/><use xlink:href="#c" x="12.228" y="10.281"/><use xlink:href="#d" x="15.483" y="10.281"/><use xlink:href="#e" x="18.329" y="10.281"/><use xlink:href="#g" x="24.63" y="10.281"/><use xlink:href="#c" x="28.645" y="10.281"/><use xlink:href="#h" x="31.901" y="10.281"/><use xlink:href="#j" x="38.402" y="10.281"/><use xlink:href="#k" x="42.388" y="10.281"/><use xlink:href="#l" x="48.654" y="10.281"/><use xlink:href="#g" x="53.99" y="10.281"/><use xlink:href="#e" x="58.005" y="10.281"/><use xlink:href="#c" x="64.306" y="10.281"/><use xlink:href="#e" x="67.562" y="10.281"/><use xlink:href="#m" x="73.863" y="10.281"/><use xlink:href="#q" x="80.354" y="10.281"/><use xlink:href="#r" x="85.985" y="10.281"/><use xlink:href="#s" x="88.83" y="10.281"/><use xlink:href="#d" x="94.761" y="10.281"/><use xlink:href="#k" x="97.607" y="10.281"/><use xlink:href="#h" x="103.873" y="10.281"/><use xlink:href="#e" x="110.374" y="10.281"/><use xlink:href="#t" x="116.675" y="10.281"/><use xlink:href="#r" x="123.176" y="10.281"/><use xlink:href="#u" x="126.021" y="10.281"/><use xlink:href="#e" x="128.867" y="10.281"/></svg>