<svg xmlns="http://www.w3.org/2000/svg" width="35" height="12"><path d="M3.038 6.446c.579-.588.99-1.055 1.232-1.4.252-.355.378-.695.378-1.022a1.1 1.1 0 0 0-.322-.812 1.094 1.094 0 0 0-.826-.336c-.616 0-1.2.439-1.75 1.316L0 3.156c.457-.71.957-1.246 1.498-1.61C2.048 1.182 2.744 1 3.584 1c.85 0 1.591.27 2.226.812.644.532.966 1.26.966 2.184 0 .504-.13.99-.392 1.456-.252.457-.723 1.045-1.414 1.764L3.206 9.05H7.07v1.96H.168V9.386l2.87-2.94Zm8.182-2.744c-.307.597-.461 1.386-.461 2.366 0 .98.154 1.769.462 2.366.308.597.788.896 1.442.896.653 0 1.134-.299 1.442-.896.308-.597.462-1.386.462-2.366 0-.98-.154-1.769-.462-2.366-.308-.597-.79-.896-1.442-.896-.654 0-1.134.299-1.442.896Zm1.443 7.42c-1.354 0-2.366-.457-3.038-1.372-.672-.924-1.008-2.151-1.008-3.682 0-1.54.336-2.767 1.008-3.682C10.297 1.462 11.309 1 12.663 1c1.353 0 2.366.462 3.038 1.386.672.915 1.008 2.142 1.008 3.682 0 1.53-.336 2.758-1.008 3.682-.672.915-1.685 1.372-3.038 1.372Zm8.224-7.42c-.308.597-.462 1.386-.462 2.366 0 .98.154 1.769.462 2.366.308.597.788.896 1.442.896.653 0 1.134-.299 1.442-.896.308-.597.462-1.386.462-2.366 0-.98-.154-1.769-.462-2.366-.308-.597-.79-.896-1.442-.896-.654 0-1.134.299-1.442.896Zm1.442 7.42c-1.354 0-2.366-.457-3.038-1.372-.672-.924-1.008-2.151-1.008-3.682 0-1.54.336-2.767 1.008-3.682C19.963 1.462 20.975 1 22.329 1c1.353 0 2.366.462 3.038 1.386.672.915 1.008 2.142 1.008 3.682 0 1.53-.336 2.758-1.008 3.682-.672.915-1.685 1.372-3.038 1.372Zm5.494-6.762V1.224h7.07v1.652L30.93 11.01h-2.38l3.78-7.91h-2.464v1.26h-2.044Z"/></svg>