<svg xmlns="http://www.w3.org/2000/svg" width="120" height="10"><path fill="#000" fill-rule="nonzero" d="M1.772 6.175v-4.83c0-.351.351-.492.843-.492 2.17 0 2.882 1.757 2.882 3.304 0 2.028-1.215 2.53-2.63 2.53-.984 0-1.095-.191-1.095-.512M1.34.532C.838.532.547.522.045.512c-.06.06-.06.271 0 .331.703.03.874.08.874.914v4.026c0 .833-.171.884-.874.914-.06.06-.06.27 0 .331.492-.01.793-.02 1.305-.02.372 0 .794.02 1.828.02 1.415 0 3.283-.642 3.283-3.112C6.46 2.048 4.925.512 2.997.512c-.643 0-1.265.02-1.657.02m7.524 6.576c.391 0 .803-.2 1.295-.602.04-.04.12-.06.12.01 0 .241.11.592.11.592.071.03.111.03.192 0 .22-.18.602-.33 1.215-.401.06-.06.06-.211 0-.271-.643-.05-.733-.241-.733-.733V3.775c0-.301.04-1.024.04-1.024 0-.04-.03-.07-.08-.07-.05.01-.201.02-.352.02-.321 0-.653-.01-1.024-.02-.06.06-.06.27 0 .331.492.03.622.15.622.813v1.938c0 .19-.02.271-.16.392-.372.32-.693.482-.944.482-.301 0-.803-.141-.803-1.035V3.775c0-.301.04-1.024.04-1.024 0-.04-.03-.07-.08-.07-.05.01-.201.02-.352.02-.321 0-.652-.01-1.024-.02-.06.06-.06.27 0 .331.482.04.623.15.623.803v1.928c0 .693.3 1.365 1.295 1.365m3.891-3.283v1.958c0 .833-.12.874-.743.914-.06.06-.06.27 0 .331.422-.01.743-.02 1.145-.02.411 0 .783.01 1.214.02.06-.06.06-.271 0-.331-.702-.05-.823-.08-.823-.914V4.388c0-.261.12-.492.241-.673.11-.16.341-.492.462-.492.07 0 .15.01.21.07.101.1.202.291.412.291.241 0 .472-.25.472-.502 0-.19-.18-.482-.602-.482-.472 0-.884.442-1.115.834-.06.11-.09.06-.09.01 0-.322.05-.803.05-.803 0-.04-.05-.07-.13-.07-.281.11-.683.2-1.376.29-.02.06-.02.221.02.282.543.05.653.13.653.682m5.454.844v1.335c0 .13-.06.2-.14.261-.261.21-.603.432-.884.432-.502 0-.723-.402-.723-.713 0-.452.211-.904.954-1.104l.793-.211m0 1.857c.06.21.231.582.773.582.492 0 .854-.401.854-.451 0-.07-.09-.171-.13-.171-.06 0-.101.16-.312.16-.391 0-.401-.391-.401-.853V4.297c0-1.426-.784-1.697-1.517-1.697-.823 0-1.656.573-1.656 1.115 0 .24.12.351.351.351.291 0 .442-.2.442-.331 0-.07-.01-.14-.03-.18a.694.694 0 0 1-.02-.202c0-.31.452-.421.833-.421.342 0 .813.17.813 1.305 0 .07-.03.11-.06.12l-.863.211c-.964.241-1.657.773-1.657 1.456 0 .793.562 1.084 1.265 1.084.462 0 .653-.08 1.095-.421l.2-.16h.02m4.255-2.702v1.958c0 .833-.12.874-.743.914-.06.06-.06.27 0 .331.422-.01.743-.02 1.145-.02.411 0 .783.01 1.214.02.06-.06.06-.271 0-.331-.702-.05-.823-.08-.823-.914V4.388c0-.261.12-.492.241-.673.11-.16.341-.492.462-.492.07 0 .15.01.21.07.101.1.202.291.412.291.241 0 .472-.25.472-.502 0-.19-.18-.482-.602-.482-.472 0-.884.442-1.115.834-.06.11-.09.06-.09.01 0-.322.05-.803.05-.803 0-.04-.05-.07-.13-.07-.281.11-.683.2-1.376.29-.02.06-.02.221.02.282.543.05.653.13.653.682m3.68.352c.19-1.135.893-1.225 1.134-1.225.381 0 .833.21.833 1.054 0 .09-.04.14-.15.14l-1.818.03m2.63 1.898c-.37.382-.662.542-1.244.542-.362 0-.783-.21-1.095-.722-.2-.332-.321-.794-.321-1.376l2.67.02c.121 0 .191-.06.191-.17 0-.844-.3-1.748-1.696-1.748-.874 0-2.008.834-2.008 2.36 0 .562.14 1.104.472 1.486.34.401.813.642 1.536.642.763 0 1.305-.351 1.707-.873-.03-.1-.09-.15-.211-.16M31.91.802c.612 0 1.335.221 1.335 1.406 0 1.255-.713 1.536-1.687 1.536h-.482v-2.3c0-.29.12-.642.834-.642m-.834 4.98V4.086c.844 0 1.024.15 1.175.382l1.074 1.747c.281.472.723.893 1.325.893.151 0 .322-.02.422-.07.03-.06.03-.16-.01-.24-.452 0-.703-.332-.964-.774l-1.265-2.108c.432-.14 1.336-.663 1.336-1.717 0-.502-.171-.914-.533-1.255C33.156.492 32.533.462 31.9.462c-.25 0-.873.07-1.255.07-.502 0-.793-.01-1.295-.02-.06.06-.06.271 0 .331.703.03.874.08.874.914v4.026c0 .833-.17.884-.874.914-.06.06-.06.27 0 .331.492-.01.793-.02 1.306-.02.502 0 .793.01 1.295.02.06-.06.06-.271 0-.331-.703-.03-.874-.08-.874-.914m5.975 1.325c.391 0 .803-.2 1.295-.602.04-.04.12-.06.12.01 0 .241.11.592.11.592.071.03.111.03.192 0 .22-.18.602-.33 1.214-.401.06-.06.06-.211 0-.271-.642-.05-.733-.241-.733-.733V3.775c0-.301.04-1.024.04-1.024 0-.04-.03-.07-.08-.07-.05.01-.2.02-.351.02-.321 0-.653-.01-1.024-.02-.06.06-.06.27 0 .331.492.03.622.15.622.813v1.938c0 .19-.02.271-.16.392-.372.32-.693.482-.944.482-.301 0-.803-.141-.803-1.035V3.775c0-.301.04-1.024.04-1.024 0-.04-.03-.07-.08-.07-.05.01-.201.02-.352.02-.321 0-.653-.01-1.024-.02-.06.06-.06.27 0 .331.482.04.622.15.622.803v1.928c0 .693.302 1.365 1.296 1.365m3.5-4.538c-.03 0-.061.04-.061.06-.01.452-.07.834-.15 1.326.08.04.21.06.33.03.202-.733.513-.944.814-.944h1.386L40.4 6.687c-.08.12-.09.15-.09.2 0 .07.08.121.23.121h3.133c.05-.311.15-.783.321-1.365a.782.782 0 0 0-.301-.07l-.13.29c-.242.533-.412.804-.995.804h-1.335l2.41-3.545c.17-.26.22-.381.22-.421 0-.04-.05-.07-.12-.07-.05 0-.371.07-.663.07h-2.038c-.331 0-.321-.09-.492-.13M44.89.993c0 .261.24.522.481.522.282 0 .523-.261.523-.482 0-.24-.211-.522-.482-.522-.241 0-.522.241-.522.482m.913 4.79V3.784c0-.502.04-1.144.04-1.144 0-.04-.05-.07-.13-.07-.291.11-.683.2-1.376.29-.02.06 0 .221.02.282.543.06.653.11.653.682v1.958c0 .833-.11.864-.723.914-.06.06-.06.27 0 .331.422-.01.683-.02 1.125-.02.431 0 .682.01 1.114.02.06-.06.06-.271 0-.331-.612-.04-.723-.08-.723-.914m3.963-2.771c.542.04.592.17.381.673l-.803 1.968c-.17.401-.221.391-.372-.03l-.733-1.938c-.17-.482-.31-.613.322-.673.06-.06.06-.271 0-.331-.372.01-.653.02-1.065.02-.35 0-.512-.01-.883-.02-.06.06-.06.27 0 .331.572.07.602.231.803.733L48.7 6.918c.06.15.12.21.251.21.1 0 .16-.06.241-.23l1.336-3.143c.19-.432.3-.693.863-.743.06-.06.06-.271 0-.331-.22.01-.402.02-.663.02-.371 0-.592-.01-.963-.02-.06.06-.06.27 0 .331m1.841 1.938c0 1.024.693 2.158 2.109 2.158 1.496 0 2.128-1.245 2.128-2.249 0-1.044-.552-2.259-2.108-2.259-1.356 0-2.129 1.075-2.129 2.35m2.018-2.018c.864 0 1.356.773 1.356 2.249 0 1.325-.613 1.596-1.084 1.596-1.045 0-1.426-1.285-1.426-2.058 0-.874.311-1.787 1.154-1.787M60.59.803c.612 0 1.335.221 1.335 1.406 0 1.255-.713 1.536-1.687 1.536h-.482v-2.3c0-.29.12-.642.834-.642m-.834 4.98V4.086c.844 0 1.024.15 1.175.382l1.074 1.747c.281.472.723.893 1.326.893.15 0 .32-.02.421-.07.03-.06.03-.16-.01-.24-.452 0-.703-.332-.964-.774l-1.265-2.108c.432-.14 1.336-.663 1.336-1.717 0-.502-.171-.914-.532-1.255-.482-.452-1.105-.482-1.737-.482-.251 0-.874.07-1.255.07-.502 0-.794-.01-1.296-.02-.06.06-.06.271 0 .331.703.03.874.08.874.914v4.026c0 .833-.17.884-.874.914-.06.06-.06.27 0 .331.492-.01.794-.02 1.306-.02.502 0 .793.01 1.295.02.06-.06.06-.271 0-.331-.703-.03-.874-.08-.874-.914m6.738-1.114v1.335c0 .13-.06.2-.14.261-.262.21-.603.432-.884.432-.502 0-.723-.402-.723-.713 0-.452.21-.904.954-1.104l.793-.211m0 1.857c.06.21.23.582.773.582.492 0 .853-.401.853-.451 0-.07-.09-.171-.13-.171-.06 0-.1.16-.311.16-.392 0-.402-.391-.402-.853V4.297c0-1.426-.783-1.697-1.516-1.697-.823 0-1.657.573-1.657 1.115 0 .24.12.351.352.351.29 0 .441-.2.441-.331 0-.07-.01-.14-.03-.18a.694.694 0 0 1-.02-.202c0-.31.452-.421.834-.421.34 0 .813.17.813 1.305 0 .07-.03.11-.06.12l-.864.211c-.964.241-1.657.773-1.657 1.456 0 .793.563 1.084 1.266 1.084.461 0 .652-.08 1.094-.421l.2-.16h.02m2.302-.744c0 .833-.11.874-.673.914-.06.06-.06.27 0 .331.422-.01.653-.02 1.075-.02.351 0 .482.01.913.02.06-.06.06-.271 0-.331-.411-.04-.522-.08-.522-.914V4.88c.231.01.372.08.572.361l.733 1.034c.201.291.231.412.231.542v.16c0 .031.01.051.04.051.201-.01.392-.02.693-.02.311 0 .522.01.824.02.06-.06.06-.271 0-.331-.342-.04-.643-.08-.864-.422l-1.175-1.737a.24.24 0 0 1-.05-.14c0-.04.01-.07.04-.1l.763-.844c.292-.301.603-.422 1.105-.442.06-.06.06-.271 0-.331-.372.01-.512.02-.874.02-.381 0-.552-.01-.923-.02-.06.06-.06.27 0 .331.602.03.28.412.18.512-.532.582-1.034 1.024-1.295 1.105V1.155c0-.653.04-1.055.04-1.055 0-.07-.04-.1-.13-.1-.251.1-1.004.241-1.406.271-.02.08 0 .241.06.301.523.03.643-.02.643.824v4.387m6.654-1.114v1.335c0 .13-.06.2-.14.261-.262.21-.603.432-.884.432-.502 0-.723-.402-.723-.713 0-.452.21-.904.954-1.104l.793-.211m0 1.857c.06.21.23.582.773.582.492 0 .853-.401.853-.451 0-.07-.09-.171-.13-.171-.06 0-.1.16-.311.16-.392 0-.402-.391-.402-.853V4.297c0-1.426-.783-1.697-1.516-1.697-.823 0-1.657.573-1.657 1.115 0 .24.12.351.352.351.29 0 .442-.2.442-.331 0-.07-.01-.14-.03-.18a.694.694 0 0 1-.02-.202c0-.31.451-.421.833-.421.341 0 .813.17.813 1.305 0 .07-.03.11-.06.12l-.864.211c-.964.241-1.656.773-1.656 1.456 0 .793.562 1.084 1.265 1.084.461 0 .652-.08 1.094-.421l.2-.16h.02m1.92-.905c.04.492.07.964.07 1.386.101-.02.202-.03.252-.03.07 0 .13 0 .2.02.272.07.543.11.914.11.563 0 1.597-.27 1.597-1.265 0-.682-.502-1.074-1.175-1.335-.602-.23-1.004-.381-1.004-.934 0-.411.361-.642.703-.642.22 0 .803.08.934.933.06.06.26.05.32-.01 0-.361.051-.733.061-1.064-.311-.05-.793-.19-1.315-.19-.743 0-1.416.481-1.416 1.124 0 .733.331 1.044 1.105 1.365.823.352 1.024.553 1.024.984 0 .492-.482.703-.854.703-.391 0-.612-.13-.713-.24-.24-.232-.331-.674-.391-.925-.06-.06-.251-.05-.311.01m5.33 1.486c.392 0 .804-.2 1.296-.602.04-.04.12-.06.12.01 0 .241.11.592.11.592.071.03.111.03.192 0 .22-.18.602-.33 1.214-.401.06-.06.06-.211 0-.271-.642-.05-.733-.241-.733-.733V3.775c0-.301.04-1.024.04-1.024 0-.04-.03-.07-.08-.07-.05.01-.2.02-.351.02-.321 0-.653-.01-1.024-.02-.06.06-.06.27 0 .331.492.03.622.15.622.813v1.938c0 .19-.02.271-.16.392-.372.32-.693.482-.944.482-.301 0-.803-.141-.803-1.035V3.775c0-.301.04-1.024.04-1.024 0-.04-.03-.07-.08-.07-.05.01-.201.02-.352.02-.321 0-.653-.01-1.024-.02-.06.06-.06.27 0 .331.482.04.622.15.622.803v1.928c0 .693.302 1.365 1.296 1.365m4.734-3.694c-.03.04-.1.14-.1 0 0-.302.05-.763.05-.763 0-.05-.04-.08-.12-.08-.282.11-.693.2-1.386.29-.02.06 0 .221.02.282.542.05.653.1.653.682v1.958c0 .823-.1.864-.703.914-.06.06-.06.27 0 .331.411-.01.673-.02 1.104-.02.392 0 .573.01.994.02.06-.06.06-.271 0-.331-.512-.05-.602-.09-.602-.914V4.137c0-.211.09-.332.17-.422.382-.372.774-.593 1.165-.593.201 0 .412.131.532.362.1.2.12.472.12.773v1.526c0 .823-.1.864-.622.914-.05.06-.05.27 0 .331.422-.01.623-.02 1.024-.02.412 0 .633.01 1.065.02.05-.06.05-.271 0-.331-.563-.05-.673-.09-.673-.914V4.287c0-.552-.04-1.034-.271-1.345-.17-.221-.482-.342-.833-.342-.492 0-.974.13-1.587.814m6.52.793c0 .934-.472 1.124-.844 1.124-.843 0-.934-.713-.934-1.355 0-.703.251-1.064.804-1.064.632 0 .973.461.973 1.295m-1.877 2.901c.11.03.271.05.402.05.31 0 .592-.03.733-.03.502 0 .923.01 1.214.171.392.221.512.362.512.623 0 .723-1.064 1.104-1.967 1.104-.362 0-1.205-.291-1.205-.974 0-.341.02-.592.311-.944m3.133-3.986c.19 0 .371-.18.371-.381 0-.21-.19-.372-.462-.372-.26 0-.743.171-1.004.513-.12-.08-.452-.282-1.044-.282-.894 0-1.717.603-1.717 1.527 0 .542.241.853.522 1.124-.281.241-.442.673-.442 1.014 0 .362.201.643.462.773-.542.321-.823.783-.823 1.215 0 .874.823 1.145 1.596 1.145 1.356 0 2.822-.653 2.822-1.737 0-.322-.151-.573-.442-.814-.392-.32-1.095-.33-1.466-.33-.18 0-.432.02-.673.05-.15.01-.25.02-.3.02-.292 0-.643-.141-.643-.573 0-.2.06-.412.18-.582.241.14.522.21.914.21.883 0 1.697-.552 1.697-1.536 0-.471-.14-.743-.432-1.044.07-.1.271-.24.402-.24.07 0 .14.03.2.12.04.08.171.18.282.18m2.531 3.986c.392 0 .804-.2 1.295-.602.04-.04.121-.06.121.01 0 .241.11.592.11.592.07.03.11.03.191 0 .221-.18.603-.33 1.215-.401.06-.06.06-.211 0-.271-.643-.05-.733-.241-.733-.733V3.775c0-.301.04-1.024.04-1.024 0-.04-.03-.07-.08-.07-.05.01-.2.02-.351.02-.322 0-.653-.01-1.025-.02-.06.06-.06.27 0 .331.492.03.623.15.623.813v1.938c0 .19-.02.271-.16.392-.372.32-.693.482-.945.482-.3 0-.803-.141-.803-1.035V3.775c0-.301.04-1.024.04-1.024 0-.04-.03-.07-.08-.07-.05.01-.2.02-.351.02-.322 0-.653-.01-1.024-.02-.06.06-.06.27 0 .331.482.04.622.15.622.803v1.928c0 .693.301 1.365 1.295 1.365m4.735-3.694c-.03.04-.1.14-.1 0 0-.302.05-.763.05-.763 0-.05-.04-.08-.12-.08-.282.11-.694.2-1.386.29-.02.06 0 .221.02.282.542.05.652.1.652.682v1.958c0 .823-.1.864-.703.914-.06.06-.06.27 0 .331.412-.01.673-.02 1.105-.02.391 0 .572.01.994.02.06-.06.06-.271 0-.331-.512-.05-.603-.09-.603-.914V4.137c0-.211.09-.332.171-.422.382-.372.773-.593 1.165-.593.2 0 .411.131.532.362.1.2.12.472.12.773v1.526c0 .823-.1.864-.622.914-.05.06-.05.27 0 .331.422-.01.622-.02 1.024-.02.412 0 .633.01 1.064.02.05-.06.05-.271 0-.331-.562-.05-.672-.09-.672-.914V4.287c0-.552-.04-1.034-.272-1.345-.17-.221-.481-.342-.833-.342-.492 0-.974.13-1.586.814m5.495 3.694c.392 0 .803-.2 1.295-.602.04-.04.12-.06.12.01 0 .241.111.592.111.592.07.03.11.03.19 0 .222-.18.603-.33 1.216-.401.06-.06.06-.211 0-.271-.643-.05-.733-.241-.733-.733V3.775c0-.301.04-1.024.04-1.024 0-.04-.03-.07-.08-.07-.05.01-.201.02-.352.02-.321 0-.652-.01-1.024-.02-.06.06-.06.27 0 .331.492.03.623.15.623.813v1.938c0 .19-.02.271-.161.392-.371.32-.693.482-.944.482-.301 0-.803-.141-.803-1.035V3.775c0-.301.04-1.024.04-1.024 0-.04-.03-.07-.08-.07-.05.01-.201.02-.352.02-.32 0-.652-.01-1.024-.02-.06.06-.06.27 0 .331.482.04.623.15.623.803v1.928c0 .693.301 1.365 1.295 1.365m3.75-1.325c0 .833-.11.874-.672.914-.06.06-.06.27 0 .331.422-.01.653-.02 1.074-.02.352 0 .482.01.914.02.06-.06.06-.271 0-.331-.412-.04-.522-.08-.522-.914V4.88c.23.01.371.08.572.361l.733 1.034c.2.291.23.412.23.542v.16c0 .031.01.051.041.051.2-.01.392-.02.693-.02.311 0 .522.01.823.02.06-.06.06-.271 0-.331-.341-.04-.642-.08-.863-.422l-1.175-1.737a.24.24 0 0 1-.05-.14c0-.04.01-.07.04-.1l.763-.844c.291-.301.602-.422 1.104-.442.06-.06.06-.271 0-.331-.371.01-.512.02-.873.02-.382 0-.552-.01-.924-.02-.06.06-.06.27 0 .331.603.03.281.412.18.512-.531.582-1.033 1.024-1.294 1.105V1.155c0-.653.04-1.055.04-1.055 0-.07-.04-.1-.13-.1-.252.1-1.005.241-1.406.271-.02.08 0 .241.06.301.522.03.643-.02.643.824v4.387m6.653-1.114v1.335c0 .13-.06.2-.14.261-.261.21-.602.432-.884.432-.502 0-.722-.402-.722-.713 0-.452.21-.904.953-1.104l.793-.211m0 1.857c.06.21.231.582.774.582.492 0 .853-.401.853-.451 0-.07-.09-.171-.13-.171-.06 0-.1.16-.312.16-.391 0-.401-.391-.401-.853V4.297c0-1.426-.784-1.697-1.516-1.697-.824 0-1.657.573-1.657 1.115 0 .24.12.351.351.351.292 0 .442-.2.442-.331 0-.07-.01-.14-.03-.18a.694.694 0 0 1-.02-.202c0-.31.452-.421.833-.421.342 0 .813.17.813 1.305 0 .07-.03.11-.06.12l-.863.211c-.964.241-1.657.773-1.657 1.456 0 .793.562 1.084 1.265 1.084.462 0 .653-.08 1.095-.421l.2-.16h.02"/></svg>