<svg xmlns="http://www.w3.org/2000/svg" viewBox="0 0 116.8 40"><path d="M17.938 6.809 16.747 8H7.75q-.62.867-.93 2.047a8.8 8.8 0 0 0-.308 2.238c0 1.01.188 1.93.57 2.774.388.84.954 1.52 1.692 2.023q1.106.75 2.71.75 1.419 0 2.622-.691.163-.346.238-.727.07-.381.07-.75 0-.57-.406-1.07-.404-.498-.902-.715a1.1 1.1 0 0 1-.5.383 1.7 1.7 0 0 1-.621.117c-.223 0-.441-.05-.664-.152q-.335-.17-.336-.563.001-.557.383-.926.392-.38.93-.574a3.1 3.1 0 0 1 1.023-.187q.011-.75-.395-1.204a2.27 2.27 0 0 0-1.035-.668 4.1 4.1 0 0 0-1.262-.199q-.322 0-.715.117l-.023.407q.416-.024.727.07.321.095.32.617c0 .414-.164.781-.5 1.11-.324.324-.7.488-1.117.488q-.428 0-.657-.313a1.2 1.2 0 0 1-.226-.71c0-.653.195-1.21.586-1.68a3.94 3.94 0 0 1 1.473-1.082 4.5 4.5 0 0 1 1.773-.383q.587-.001 1.191.215c.406.145.742.359 1.012.656q.417.426.418 1.106 0 .44-.18.867a3.2 3.2 0 0 1-.441.773q.775.263 1.215.977.451.716.453 1.5c0 .73-.176 1.39-.524 1.988a5 5 0 0 1-1.37 1.535c-.57.422-1.2.746-1.88.977a6.4 6.4 0 0 1-2.011.332q-1.605 0-2.82-.832a5.6 5.6 0 0 1-1.868-2.168 6.4 6.4 0 0 1-.668-2.88q-.001-.96.367-2.01c.246-.708.57-1.37.965-2A8.4 8.4 0 0 1 7.438 8h-5.38L3.25 6.81z"/><path d="M30.031 6.809 28.84 8h-6.332v3.332q-.001.358.332.36c.137 0 .3-.114.5-.337q.31-.346.656-.796.357-.45.715-.786.352-.345.652-.343c.645 0 1.09.242 1.356.726q.408.709.406 1.559-.001 1.178-.64 2.023a5.6 5.6 0 0 1-1.587 1.403q-.949.573-1.914.953.322.058.938.261c.414.137.863.301 1.347.5s.941.418 1.38.657q.666.352 1.093.746c.29.254.43.508.43.761q0 .368-.332.778-.322.404-.739.761-.405.352-.667.583.12-.277.12-.5 0-.595-.644-1.133c-.426-.363-.977-.695-1.64-1-.66-.301-1.36-.562-2.083-.785-.73-.223-1.41-.391-2.023-.512-.62-.125-1.09-.188-1.418-.188q-.393 0-.832.118l1.738-1.786q.427-.07.856-.07h.855a7.4 7.4 0 0 0 1.203-.11 6 6 0 0 0 1.309-.378 2.9 2.9 0 0 0 1.035-.739q.405-.464.406-1.156 0-.293-.046-.726a1.7 1.7 0 0 0-.227-.746c-.121-.223-.32-.336-.61-.336q-.187.001-.546.394-.357.381-.785.89a8 8 0 0 1-.868.907q-.428.38-.773.379c-.168 0-.285-.086-.36-.262a2.3 2.3 0 0 1-.14-.594 8 8 0 0 1-.024-.5V8h-4.906l1.192-1.192z"/><path d="M47.215 6.809 46.028 8h-1.883v8.473q0 .515.144.976.152.452.809.453.238 0 .476-.058c.156-.047.31-.102.454-.156l-1.454 1.453a.6.6 0 0 1-.308.144 3 3 0 0 1-.336.024c-.426 0-.738-.117-.926-.348a1.74 1.74 0 0 1-.348-.844 9 9 0 0 1-.058-1v-6.855a6 6 0 0 0-.024-.383q-.022-.284-.168-.285a.7.7 0 0 0-.343.086 1.6 1.6 0 0 0-.297.175l-4.047 2.739v3.953q0 .51.152.937.157.42.801.418.236 0 .473-.058c.16-.047.312-.102.453-.157l-1.45 1.454a.6.6 0 0 1-.312.144 3 3 0 0 1-.332.024q-.644 0-.93-.348a1.74 1.74 0 0 1-.343-.844 9 9 0 0 1-.059-1v-3.476l-3.668 2.5a2.4 2.4 0 0 1-.547.285 1.8 1.8 0 0 1-.594.097c-.336 0-.527-.137-.586-.406a4 4 0 0 1-.082-.785V8h-3.214l1.191-1.191zM42.598 8h-4.88v3.309zm-6.426 4.356V8h-3.93v6.355c0 .207.098.31.285.31a.8.8 0 0 0 .325-.071c.102-.055.19-.11.273-.168z"/><path d="M53.145 6.809 51.954 8h-1.88v8.402q0 .539.13 1.024.145.476.82.476.241 0 .476-.058.239-.073.454-.157L50.5 19.141q-.08.081-.296.128a2 2 0 0 1-.344.04q-.644-.001-.93-.348a1.7 1.7 0 0 1-.344-.844 9 9 0 0 1-.058-1V8h-3.215l1.191-1.192h2.024v-.5c0-.195-.012-.496-.028-.89q-.011-.607-.105-1.25a3.5 3.5 0 0 0-.332-1.11q-.228-.462-.656-.46a1.63 1.63 0 0 0-.88.25q-.404.247-.714.605c-.43.523-.832 1.07-1.215 1.656-.383.57-.762 1.14-1.144 1.7l-.38-.286q.3-.728.774-1.691.466-.963 1.106-1.88a6.7 6.7 0 0 1 1.418-1.534c.523-.406 1.09-.605 1.703-.606q.725-.001 1.14.38.415.367.61.952.199.581.262 1.227c.039.418.058.805.058 1.152q0 .572-.035 1.145c-.023.379-.035.762-.035 1.14z"/><path d="M70.496 6.809 69.309 8h-1.883v8.547q-.002.498.168.926.163.432.785.43.235 0 .476-.06c.156-.046.31-.101.454-.155l-1.454 1.453a.6.6 0 0 1-.308.144 3 3 0 0 1-.336.024c-.426 0-.738-.117-.926-.348a1.7 1.7 0 0 1-.348-.844 9 9 0 0 1-.058-1V9.785q0-.092-.094-.144a.4.4 0 0 0-.168-.047q-.105.001-.762.43c-.438.284-.984.66-1.644 1.117q-.97.68-2.082 1.476-1.109.795-2.129 1.535-1.025.739-1.762 1.286a49 49 0 0 1-.976.703 1.93 1.93 0 0 1-1.14.383c-.298 0-.48-.145-.563-.43a3.3 3.3 0 0 1-.106-.762V8h-3.215L52.43 6.81zM65.786 8H56v6.356c0 .07.027.144.082.214a.27.27 0 0 0 .203.094.75.75 0 0 0 .32-.07q.157-.082.274-.168z"/><path d="M76.426 6.809 75.235 8h-1.883v8.402q.002.539.133 1.024.14.476.82.476.238 0 .476-.058.239-.073.454-.157l-1.453 1.454q-.081.081-.297.128-.216.041-.344.04-.644-.001-.93-.348a1.7 1.7 0 0 1-.344-.844 8 8 0 0 1-.062-1V8h-3.211l1.188-1.192h2.023v-.5c0-.195-.008-.496-.024-.89q-.011-.607-.105-1.25a3.5 3.5 0 0 0-.332-1.11q-.228-.462-.656-.46-.474-.001-.883.25a2.9 2.9 0 0 0-.711.605 18 18 0 0 0-1.215 1.656c-.383.57-.762 1.14-1.144 1.7l-.38-.286q.3-.728.774-1.691.466-.963 1.106-1.88a6.7 6.7 0 0 1 1.418-1.534c.523-.406 1.09-.605 1.703-.606q.725-.001 1.14.38.416.367.606.952c.137.387.223.797.266 1.227.039.418.058.805.058 1.152q0 .572-.035 1.145c-.023.379-.04.762-.04 1.14z"/><path d="M90.992 6.809 89.801 8h-5.996v3.309q0 .141.011.5.024.345.106.656c.062.195.168.297.308.297.32 0 .637-.11.953-.32.316-.216.633-.462.942-.739s.605-.523.89-.738q.444-.323.813-.324.51.001.773.5c.172.328.29.695.344 1.109.063.41.094.742.094.988 0 1.08-.254 2.08-.762 3.012a6.2 6.2 0 0 1-2.082 2.234c-.879.566-1.88.848-2.988.848q-1.664 0-3.035-.809a6.13 6.13 0 0 1-2.176-2.18 5.87 5.87 0 0 1-.809-3.034q0-.18.035-.559.047-.381.118-.738c.054-.246.125-.41.203-.489l2.308-2.308c-.223.578-.426 1.18-.605 1.797a6.4 6.4 0 0 0-.274 1.867c0 .883.223 1.68.664 2.406A5.04 5.04 0 0 0 81.41 17a4.74 4.74 0 0 0 2.418.64q.702.001 1.355-.19a13 13 0 0 0 1.309-.45c.285-.36.512-.754.68-1.191s.25-.883.25-1.332a3 3 0 0 0-.094-.668 2.1 2.1 0 0 0-.313-.715.66.66 0 0 0-.57-.309q-.369 0-.75.309-.381.299-.762.691a8 8 0 0 1-.773.703c-.254.195-.516.297-.785.297q-.586 0-.82-.465a2.9 2.9 0 0 1-.262-1.07 18 18 0 0 1-.035-1.012V8h-7.739l1.192-1.191z"/><path d="M96.445 6.809 95.254 8H93.37v8.402q.002.539.133 1.024.14.476.82.476.238 0 .476-.058.239-.073.454-.157L93.8 19.141q-.082.081-.297.128-.216.041-.344.04-.644-.001-.93-.348a1.7 1.7 0 0 1-.344-.844 8 8 0 0 1-.062-1V8h-3.211l1.188-1.192h2.023v-.5c0-.195-.008-.496-.024-.89q-.011-.607-.105-1.25a3.5 3.5 0 0 0-.332-1.11q-.228-.462-.656-.46-.474-.001-.883.25a2.9 2.9 0 0 0-.711.605 18 18 0 0 0-1.215 1.656c-.383.57-.762 1.14-1.144 1.7l-.38-.286q.3-.728.774-1.691.466-.963 1.106-1.88c.422-.616.895-1.13 1.418-1.534s1.09-.605 1.703-.606q.725-.001 1.14.38.415.367.61.952.198.581.262 1.227c.039.418.058.805.058 1.152q0 .572-.035 1.145c-.023.379-.04.762-.04 1.14z"/><path d="M114.61 6.809 113.423 8h-1.883v8.426q0 .515.144 1 .153.476.809.476.238 0 .476-.058c.156-.047.31-.102.454-.156q-.265.276-.598.656-.323.381-.703.676-.381.287-.797.289c-.426 0-.738-.117-.926-.348a1.7 1.7 0 0 1-.348-.844 9 9 0 0 1-.058-1V9.144l-10.188 9.09a5.6 5.6 0 0 1-.75.575c-.324.203-.617.309-.871.308q-.677.001-1.223-.191a5.4 5.4 0 0 1-1.11-.57l1.524-1.524c.16.125.324.258.488.39a.93.93 0 0 0 .582.204q.24 0 .54-.094c.202-.07.366-.16.488-.262L109.753 8h-15.21l1.191-1.191zM31.832 27.078l-.664.66h-1.043v4.707q0 .286.078.543.087.251.45.25c.09 0 .175-.008.265-.031a3 3 0 0 0 .25-.086l-.805.805a.3.3 0 0 1-.172.082q-.105.01-.187.011-.357.001-.516-.191a.97.97 0 0 1-.191-.469 6 6 0 0 1-.031-.554v-3.81c0-.034-.004-.108-.016-.214q-.014-.157-.09-.156a.4.4 0 0 0-.191.047.8.8 0 0 0-.168.097l-2.246 1.52v2.195c0 .191.027.363.086.524.054.156.203.23.441.23.09 0 .176-.008.266-.031a3 3 0 0 0 .25-.086l-.805.805a.3.3 0 0 1-.172.082q-.105.01-.187.011-.357.001-.516-.191a.97.97 0 0 1-.192-.469 6 6 0 0 1-.03-.555v-1.933l-2.04 1.39a1.3 1.3 0 0 1-.3.157 1 1 0 0 1-.333.054c-.188 0-.293-.074-.324-.226s-.047-.297-.047-.434v-4.074h-1.785l.66-.66zm-2.566.66h-2.711v1.84zm-3.57 2.418v-2.418h-2.184v3.531q0 .17.16.172a.4.4 0 0 0 .176-.039q.087-.046.152-.094z"/><path d="m33.512 27.078-.664.66h-2.074l.66-.66zm-.887 6.414q.002.358-.168.692a2 2 0 0 1-.414.59l-.847.831a5.2 5.2 0 0 1-1.442.989q-.843.41-1.765.62a7.5 7.5 0 0 1-1.739.22l.887-.887c.477 0 .969-.067 1.48-.192q.761-.186 1.481-.511.716-.322 1.297-.739.13-.21.23-.457.101-.239.102-.484-.001-.395-.266-.566a1.35 1.35 0 0 0-.61-.227l.876-.871c.262.039.48.145.644.316q.253.258.254.676z"/><path d="m40.215 27.078-.66.66h-1.047v4.707q0 .286.082.543.084.251.45.25a1 1 0 0 0 .26-.031q.134-.04.255-.086l-.809.805a.3.3 0 0 1-.172.082 2 2 0 0 1-.183.011q-.357.001-.516-.191a.93.93 0 0 1-.191-.469 5 5 0 0 1-.035-.554v-4.34l-2.5 2.422a2 2 0 0 1-.547.382 1.46 1.46 0 0 1-.657.145q-.204.001-.449-.086a1.2 1.2 0 0 1-.394-.23l.71-.782a.78.78 0 0 0 .544.227q.406-.001.687-.266l2.606-2.539h-5.461l.66-.66zM37 34.086l-.883.87q-.584.012-.875-.323-.29-.33-.289-.89 0-.67.27-1.216.277-.551.687-1.027c.277-.316.56-.625.84-.918l.145.289a3.3 3.3 0 0 0-.496.629q-.236.376-.395.793a2.3 2.3 0 0 0-.152.773q0 .558.308.793c.215.156.492.23.84.227"/><path d="m43.508 27.078-.66.66H41.8v4.551q-.001.211.016.434.018.221.125.37.11.147.39.145a1 1 0 0 0 .262-.031c.09-.027.172-.055.254-.086l-.809.805a.3.3 0 0 1-.164.074c-.078.012-.145.02-.191.02q-.357 0-.516-.192a.93.93 0 0 1-.191-.469 5 5 0 0 1-.035-.554v-5.067h-1.786l.66-.66zM55.344 27.078l-.66.66h-1.047v4.469q.001.217.008.457.011.24.12.41.112.165.403.164a1 1 0 0 0 .262-.031c.09-.027.172-.055.254-.086a9 9 0 0 0-.34.363 2.7 2.7 0 0 1-.395.375.68.68 0 0 1-.43.16q-.356.001-.515-.19a.97.97 0 0 1-.191-.47 5 5 0 0 1-.035-.554v-5.067h-2.446a2.5 2.5 0 0 1 .594.762q.258.466.398.992.146.523.145.957c0 .516-.121.965-.371 1.348a4.2 4.2 0 0 1-.95 1.047q-.14.105-.304.203a.7.7 0 0 1-.36.101.82.82 0 0 1-.5-.171 1.5 1.5 0 0 1-.378-.438 1.06 1.06 0 0 1-.137-.516q0-.515.316-1.011a4.4 4.4 0 0 1 .766-.907q.45-.417.848-.675a5 5 0 0 0-.657-1.004 2.2 2.2 0 0 0-.972-.688h-1.957l.664-.66zm-4.59 3.941a4 4 0 0 0-.05-.664 2.3 2.3 0 0 0-.2-.632c-.14.156-.297.32-.469.48q-.258.245-.445.531a1.16 1.16 0 0 0-.183.64q0 .342.183.622.195.276.57.277a1 1 0 0 0 .29-.039q.305-.57.304-1.215"/><path d="m58.637 27.078-.66.66H56.93v4.668c0 .2.027.387.074.57.055.176.203.262.457.262a1 1 0 0 0 .262-.031c.09-.027.172-.055.254-.086l-.809.805a.3.3 0 0 1-.164.074c-.078.012-.145.02-.191.02q-.357 0-.516-.192a.97.97 0 0 1-.191-.469 5 5 0 0 1-.035-.554v-5.067h-1.786l.664-.66h1.122v-.277q0-.169-.012-.496a5 5 0 0 0-.059-.696 1.9 1.9 0 0 0-.187-.617q-.123-.258-.364-.258a.9.9 0 0 0-.488.14 1.8 1.8 0 0 0-.398.337q-.356.438-.672.922c-.211.316-.426.633-.637.945l-.21-.16q.163-.404.429-.938c.172-.359.379-.707.613-1.047a3.6 3.6 0 0 1 .79-.851c.288-.227.604-.336.945-.336q.404 0 .632.21.234.206.34.528c.074.215.121.445.145.68a8.557 8.557 0 0 1 .012 1.277q-.019.319-.02.637z"/><path d="m68.727 27.078-.66.66H67.02v4.68q0 .284.082.558.084.263.45.262.129.002.265-.031.131-.04.25-.086-.146.153-.332.363a2.3 2.3 0 0 1-.39.375.7.7 0 0 1-.442.16q-.357.001-.516-.191a.97.97 0 0 1-.191-.469 5 5 0 0 1-.035-.554V28.37l-5.66 5.055c-.094.09-.235.199-.415.316-.18.113-.344.172-.484.172q-.375 0-.68-.106a3 3 0 0 1-.617-.316l.848-.848q.134.106.273.22c.14.113.203.112.32.112q.133-.002.301-.054a.8.8 0 0 0 .27-.145l5.715-5.039h-8.454l.665-.66z"/><path d="m75.949 27.078-.664.66h-1.043v4.668c0 .2.023.387.074.57q.077.263.453.262.136.002.266-.031a3 3 0 0 0 .25-.086l-.805.805a.3.3 0 0 1-.172.082 2 2 0 0 1-.183.011q-.356.001-.52-.191a1 1 0 0 1-.191-.469 6 6 0 0 1-.031-.554v-4.22a.26.26 0 0 0-.098-.214.38.38 0 0 0-.234-.078 2.1 2.1 0 0 0-.606.086 1 1 0 0 0-.504.336q.25.322.332.73c.051.27.078.531.078.793q.001.52-.074.86a1.7 1.7 0 0 1-.238.582 3 3 0 0 1-.414.507q-.252.259-.621.63-.168.163-.418.277-.245.105-.485.105c-.28 0-.48-.105-.593-.324a1.5 1.5 0 0 1-.172-.695q0-.645.277-1.29a6 6 0 0 1 .734-1.234q.457-.595.985-1.086a8.5 8.5 0 0 1 1.031-.832h-4.695l.664-.66zm-4.473 3.82q.001-.358-.086-.715a1.5 1.5 0 0 0-.308-.648 8 8 0 0 0-.61.855q-.305.492-.304.973 0 .165.047.383c.035.141.093.262.171.371a.41.41 0 0 0 .336.156q.274.002.543-.156.114-.292.16-.602.053-.314.051-.617"/><path d="m85.852 27.078-.66.66h-1.043v4.707q0 .286.078.543.087.251.45.25.132.002.265-.031c.086-.027.172-.055.25-.086l-.805.805a.3.3 0 0 1-.172.082q-.105.01-.187.011-.357.001-.516-.191a.97.97 0 0 1-.191-.469 5 5 0 0 1-.032-.554v-3.81c0-.034-.003-.108-.015-.214q-.013-.157-.09-.156a.4.4 0 0 0-.191.047.8.8 0 0 0-.168.097l-2.246 1.52v2.195c0 .191.027.363.085.524.055.156.203.23.442.23q.133.002.265-.031.131-.04.25-.086l-.804.805a.32.32 0 0 1-.172.082q-.105.01-.188.011-.357.001-.515-.191a.97.97 0 0 1-.192-.469 5 5 0 0 1-.03-.555v-1.933l-2.04 1.39a1.4 1.4 0 0 1-.305.157 1 1 0 0 1-.328.054c-.188 0-.293-.074-.324-.226s-.047-.297-.047-.434v-4.074h-1.785l.66-.66zm-2.562.66h-2.711v1.84zm-3.57 2.418v-2.418h-2.184v3.531q0 .17.16.172a.4.4 0 0 0 .176-.039q.087-.046.152-.094z"/><path d="m87.531 27.078-.66.66h-2.074l.66-.66zm-.883 6.414q-.002.358-.168.692a2 2 0 0 1-.414.59l-.848.831a5.3 5.3 0 0 1-1.44.989c-.567.273-1.15.48-1.767.62a7.5 7.5 0 0 1-1.738.22l.887-.887c.473 0 .969-.067 1.48-.192q.761-.186 1.48-.511a7.7 7.7 0 0 0 1.298-.739q.13-.21.23-.457.1-.239.098-.484.001-.395-.262-.566a1.35 1.35 0 0 0-.61-.227l.872-.871q.398.059.648.316c.25.257.254.398.254.676"/><path d="m92.77 27.078-.66.66h-3.254v4.59q0 .098.012.309.023.205.082.378.065.17.21.172.206-.001.462-.23c.172-.156.34-.344.496-.563.164-.227.297-.445.406-.664q.157-.328.156-.515c0-.297-.086-.531-.265-.692a1.3 1.3 0 0 0-.653-.332 2.1 2.1 0 0 0-.762-.02l.81-.937q.421-.001.85.125c.294.082.536.223.727.414q.299.294.297.793.002.645-.367 1.172a11 11 0 0 1-1.285 1.496 4.2 4.2 0 0 1-.649.547c-.227.16-.445.238-.644.238q-.356.001-.52-.191a1 1 0 0 1-.191-.469 6 6 0 0 1-.031-.554v-5.067H86.21l.66-.66z"/><path d="m95.797 27.078-.66.66h-1.043v4.551q0 .211.012.434.017.221.125.37c.074.098.207.146.39.145q.133.002.266-.031c.086-.027.172-.055.25-.086l-.805.805a.3.3 0 0 1-.168.074q-.116.019-.191.02-.357 0-.516-.192a.97.97 0 0 1-.191-.469 5 5 0 0 1-.032-.554v-5.067H91.45l.66-.66z"/></svg>