<?xml version="1.0" encoding="UTF-8"?>
<svg width="119px" height="20px" viewBox="0 0 119 20" version="1.1" xmlns="http://www.w3.org/2000/svg" xmlns:xlink="http://www.w3.org/1999/xlink">
    <title>kbd-wordmark</title>
    <g id="Page-1" stroke="none" stroke-width="1" fill="none" fill-rule="evenodd">
        <path d="M2.53838852,3.27803 L6.87267152,12.67505 C6.50287452,13.56892 6.14977852,14.18507 5.81338152,14.52349 C5.47697352,14.86192 5.11780752,15.02279 4.73588252,15.00609 C4.56135252,14.99709 4.39441552,14.93579 4.23507152,14.82094 C4.07571952,14.70611 3.95127552,14.58976 3.86174052,14.47189 C3.73021052,14.32519 3.55619252,14.21188 3.33968352,14.13195 C3.12316952,14.05205 2.92486852,14.01156 2.74478252,14.01054 C2.37650752,14.01654 2.08715052,14.12588 1.87671152,14.33834 C1.66626842,14.55081 1.55902452,14.83005 1.55497932,15.17606 C1.58229432,15.57165 1.81904082,15.89136 2.26521952,16.13519 C2.71139252,16.37902 3.20309652,16.50447 3.74033252,16.51156 C4.82136852,16.49186 5.72484952,16.08207 6.45077652,15.2823 C7.17669152,14.48252 7.79486252,13.41109 8.30529252,12.06801 L11.7460095,3.32659 C11.9470295,2.73687 12.2096765,2.2397 12.5339505,1.83509 C12.8581995,1.43051 13.4073695,1.17495 14.1814635,1.0684 C14.2542935,0.9804 14.2907305,0.84684 14.2907305,0.66775 C14.2907305,0.48869 14.2542905,0.35514 14.1814635,0.2671 C13.7023915,0.2798 13.2946625,0.2909 12.9582725,0.3005 C12.6218575,0.3105 12.3173245,0.3152 12.0446735,0.3157 C11.7613755,0.31521 11.3931025,0.3097 10.9398565,0.3005 C10.4865875,0.2905 9.97262552,0.2798 9.39796852,0.2671 C9.32510852,0.3551 9.28869052,0.48869 9.28870052,0.66775 C9.28869152,0.84684 9.32511052,0.98039 9.39796852,1.0684 C10.2660285,1.1235 10.7577325,1.31679 10.8730815,1.64812 C10.9884095,1.97948 10.9094915,2.48231 10.6363355,3.15662 L7.98962952,10.41685 L7.94106952,10.41685 L4.57562552,3.01093 C4.23729552,2.33298 4.11629152,1.85686 4.21261352,1.58256 C4.30892352,1.30829 4.75854252,1.13691 5.56146252,1.0684 C5.63430252,0.9804 5.67072452,0.84684 5.67073052,0.66775 C5.67072452,0.48869 5.63430052,0.35514 5.56146252,0.2671 C4.99893152,0.2798 4.48496952,0.2909 4.01957452,0.3005 C3.55417152,0.3105 3.08877352,0.3152 2.62337752,0.3157 C2.16455252,0.31521 1.76491612,0.3097 1.42446802,0.3005 C1.08401702,0.2905 0.641888219,0.2798 0.0980803193,0.2671 C0.0262473193,0.3551 -0.00612868074,0.48869 0.000953319264,0.66775 C0.00803331926,0.84684 0.0485053193,0.98039 0.122361819,1.0684 C0.778928019,1.106 1.25535452,1.27425 1.55164282,1.57315 C1.84792802,1.87208 2.17684332,2.44038 2.53839132,3.27803 L2.53838852,3.27803 Z M17.5829795,5.56051 C17.0158975,5.55851 16.4442665,5.55041 15.8680845,5.53621 C15.2918985,5.52201 14.9812955,5.51401 14.9362745,5.51185 L14.8634225,5.56051 L14.8634225,6.09471 C14.8634225,6.14181 14.8755645,6.17331 14.8998445,6.18911 C14.9241245,6.20501 14.9605445,6.21401 15.0091125,6.21611 L15.7375635,6.26471 C16.1785275,6.28121 16.4548325,6.37576 16.5664805,6.5485 C16.6781225,6.72127 16.7255735,7.05564 16.7088315,7.55164 L16.7088315,14.1077 C16.7255715,14.52444 16.6781215,14.81764 16.5664795,14.9873 C16.4548315,15.15697 16.1785265,15.25228 15.7375635,15.27322 L14.9848305,15.32182 C14.9079405,15.32782 14.8674685,15.36882 14.8634225,15.44323 L14.8634225,15.97743 L14.8877025,16.02603 C15.3596765,16.01343 15.7997815,16.00223 16.2080195,15.99263 C16.6162525,15.98263 17.0745695,15.97793 17.5829705,15.97743 C17.9441565,15.97794 18.2476775,15.98343 18.4935345,15.99263 C18.7393815,16.00263 19.0914665,16.01333 19.5497885,16.02603 L19.5740685,15.97743 L19.5740685,15.46751 C19.5740625,15.37521 19.5254985,15.32668 19.4283785,15.32182 C19.0297485,15.28792 18.7768135,15.19789 18.6695745,15.05169 C18.5623255,14.90549 18.5157855,14.68797 18.5299555,14.39912 L18.5299555,14.35052 L23.5319855,8.32865 L23.5319855,14.05914 C23.5478655,14.4779 23.4966655,14.77919 23.3784035,14.96302 C23.2601215,15.14686 22.9794665,15.25026 22.5364355,15.27322 L21.7837025,15.32182 C21.7068025,15.32782 21.6663335,15.36882 21.6622945,15.44323 L21.6622945,15.97743 L21.7108545,16.02603 C22.1818105,16.01343 22.6178695,16.00223 23.0190315,15.99263 C23.4201765,15.98263 23.8744455,15.97793 24.3818415,15.97743 C24.9155225,15.97794 25.3960975,15.98343 25.8235675,15.99263 C26.2510145,16.00263 26.7012375,16.01333 27.1742375,16.02603 L27.1985175,15.97743 L27.1985175,15.46751 C27.1985175,15.37401 27.1499375,15.32547 27.0528265,15.32182 L26.3243755,15.27322 C25.9142055,15.25432 25.6467025,15.15733 25.5218655,14.98214 C25.3970055,14.80696 25.3407525,14.49929 25.3531075,14.05914 L25.3531075,7.52736 C25.3375675,7.03237 25.3874475,6.70204 25.5027435,6.53636 C25.6180195,6.3707 25.8918965,6.28015 26.3243755,6.26471 L27.0528265,6.21611 C27.1499365,6.21211 27.1985175,6.16391 27.1985175,6.07042 L27.1985175,5.5605 L27.1742375,5.51185 C27.1261675,5.5139 26.7973525,5.522 26.1877935,5.5362 C25.5782095,5.5504 24.9762265,5.5585 24.3818415,5.5605 C24.0105245,5.5585 23.6301115,5.5504 23.2406015,5.5362 C22.8510735,5.522 22.6406325,5.514 22.6092775,5.51185 L22.5607175,5.5605 L22.5607175,6.0947 C22.5612145,6.1418 22.5723475,6.1733 22.5941075,6.1891 C22.6158475,6.205 22.6451875,6.214 22.6821275,6.2161 C23.0787205,6.2561 23.3235605,6.3704 23.4166485,6.55908 C23.5097185,6.74777 23.5481655,6.98958 23.5319875,7.28449 L18.5299575,13.30635 L18.5299575,7.52731 C18.5137675,7.04295 18.5643475,6.71565 18.6817175,6.54542 C18.7990745,6.3752 19.0803375,6.28162 19.5255065,6.26466 L20.2539575,6.21606 C20.3510775,6.21206 20.3996415,6.16386 20.3996485,6.07037 L20.3996485,5.56045 L20.3510885,5.51185 C20.3025185,5.51385 19.9747165,5.52195 19.3676795,5.53615 C18.7606325,5.55035 18.1657315,5.55845 17.5829745,5.56045 L17.5829795,5.56051 Z M28.8540225,15.97736 L28.9026015,16.02596 C28.9536915,16.02396 29.2642965,16.01586 29.8344115,16.00166 C30.4045235,15.98746 30.9275915,15.97936 31.4036165,15.97736 C31.9160585,15.97936 32.4269855,15.98746 32.9363995,16.00166 C33.4458035,16.01586 33.7199845,16.02396 33.7589415,16.02596 L33.8075015,15.97736 L33.8075015,15.51601 C33.8055015,15.45631 33.7852415,15.4118 33.7467915,15.38246 C33.7083415,15.35316 33.6638215,15.33286 33.6132425,15.32176 C33.3269155,15.29746 33.0496995,15.21857 32.7815935,15.08502 C32.5134785,14.95147 32.3698125,14.69044 32.3505945,14.30193 L32.3505945,10.90249 C33.2358595,10.96929 33.8752765,11.20602 34.2688485,11.61273 C34.6624085,12.01946 34.9618825,12.55972 35.1672715,13.23354 C35.3499845,13.81372 35.6328655,14.40528 36.0159175,15.00823 C36.3989525,15.61117 36.8930845,15.94231 37.4983145,16.00165 L39.2465975,16.02596 L39.3194375,15.97735 L39.3194375,15.54028 C39.3143375,15.45678 39.2819975,15.39914 39.2223075,15.36727 C39.1626075,15.33537 39.1059465,15.32027 39.0523355,15.32177 L38.8580815,15.29747 C38.4058255,15.1705 37.9687555,14.74456 37.5468705,14.01965 C37.1249665,13.29474 36.8093045,12.66848 36.5998835,12.14085 C36.3570585,11.54848 36.0110445,11.11242 35.5618415,10.83267 C35.1126225,10.55293 34.5602145,10.41433 33.9046155,10.41685 L33.9046155,10.31975 C34.3519985,10.17746 34.7247225,9.92119 35.0227875,9.55093 C35.3208385,9.1807 35.5551565,8.74899 35.7257425,8.25581 C35.8678835,7.87287 36.0327965,7.56429 36.2204825,7.33007 C36.4081505,7.09586 36.5669935,6.97546 36.6970105,6.96888 C36.8057635,6.96988 36.9039015,6.98608 36.9914265,7.01748 C37.0789365,7.04888 37.1588595,7.08928 37.2312085,7.13889 C37.3156785,7.20109 37.4138175,7.25272 37.5256235,7.29369 C37.6374105,7.33469 37.7659015,7.35589 37.9110955,7.35739 C38.1726195,7.34939 38.3901435,7.25622 38.5636665,7.07815 C38.7371685,6.90009 38.8272125,6.6856 38.8338005,6.43468 C38.8434005,6.13421 38.7574005,5.87925 38.5758075,5.66981 C38.3941895,5.46039 38.0593045,5.35112 37.5711515,5.34201 C36.9893935,5.37291 36.5017365,5.63896 36.1081795,6.14027 C35.7146055,6.64159 35.4090615,7.19299 35.1915455,7.79446 C34.9506935,8.47283 34.6165165,9.01614 34.1890135,9.42437 C33.7614985,9.83261 33.1486905,10.04204 32.3505865,10.05266 L32.3505865,7.28454 C32.3571865,6.86215 32.4714845,6.58392 32.6935655,6.44986 C32.9156375,6.31581 33.2060055,6.23791 33.5646715,6.21615 C33.6152515,6.21315 33.6597715,6.18835 33.6982205,6.14025 C33.7366605,6.09215 33.7569005,6.03655 33.7589205,5.97331 L33.7589205,5.56052 L33.7103605,5.51192 C33.6734305,5.51392 33.4073395,5.52202 32.9120995,5.53622 C32.4168505,5.55042 31.9140165,5.55852 31.4035985,5.56052 C30.9275735,5.55852 30.4045055,5.55042 29.8343935,5.53622 C29.2642785,5.52202 28.9536755,5.51402 28.9025835,5.51192 L28.8540225,5.56052 L28.8540225,6.02187 C28.8545285,6.08157 28.8717235,6.12609 28.9056235,6.15542 C28.9395135,6.18482 28.9870635,6.20502 29.0482785,6.21612 L29.5096305,6.26472 C29.8920655,6.29862 30.1591645,6.40081 30.3109265,6.57128 C30.4626845,6.74176 30.5355295,6.99571 30.5294615,7.33311 L30.5294615,14.2534 C30.5400815,14.58727 30.4763415,14.83009 30.3382435,14.98185 C30.2001395,15.13361 29.9239355,15.23074 29.5096305,15.27323 L29.0482785,15.32183 C28.9870685,15.33293 28.9395155,15.35323 28.9056225,15.38253 C28.8717325,15.41183 28.8545325,15.45643 28.8540225,15.51608 L28.8540225,15.97736 Z M43.1454875,5.56051 C42.5784055,5.55851 42.0067745,5.55041 41.4305915,5.53621 C40.8544055,5.52201 40.5438035,5.51401 40.4987825,5.51185 L40.4259305,5.56051 L40.4259305,6.09471 C40.4259305,6.14181 40.4380725,6.17331 40.4623525,6.18911 C40.4866325,6.20501 40.5230525,6.21401 40.5716205,6.21611 L41.3000715,6.26471 C41.7410345,6.28121 42.0173405,6.37576 42.1289875,6.5485 C42.2406305,6.72127 42.2880805,7.05564 42.2713395,7.55164 L42.2713395,14.1077 C42.2880795,14.52444 42.2406295,14.81764 42.1289875,14.9873 C42.0173395,15.15697 41.7410345,15.25228 41.3000715,15.27322 L40.5473385,15.32182 C40.4704485,15.32782 40.4299755,15.36882 40.4259305,15.44323 L40.4259305,15.97743 L40.4502105,16.02603 C40.9221855,16.01343 41.3622905,16.00223 41.7705275,15.99263 C42.1787615,15.98263 42.6370785,15.97793 43.1454795,15.97743 C43.5066655,15.97794 43.8101865,15.98343 44.0560425,15.99263 C44.3018905,16.00263 44.6539745,16.01333 45.1122975,16.02603 L45.1365775,15.97743 L45.1365775,15.46751 C45.1365725,15.37521 45.0880075,15.32668 44.9908875,15.32182 C44.5922575,15.28792 44.3393235,15.19789 44.2320835,15.05169 C44.1248355,14.90549 44.0782955,14.68797 44.0924645,14.39912 L44.0924645,14.35052 L49.0944955,8.32865 L49.0944955,14.05914 C49.1103655,14.4779 49.0591755,14.77919 48.9409125,14.96302 C48.8226315,15.14686 48.5419755,15.25026 48.0989455,15.27322 L47.3462125,15.32182 C47.2693125,15.32782 47.2288435,15.36882 47.2248045,15.44323 L47.2248045,15.97743 L47.2733645,16.02603 C47.7443205,16.01343 48.1803785,16.00223 48.5815415,15.99263 C48.9826855,15.98263 49.4369555,15.97793 49.9443515,15.97743 C50.4780325,15.97794 50.9586065,15.98343 51.3860765,15.99263 C51.8135235,16.00263 52.2637465,16.01333 52.7367475,16.02603 L52.7610275,15.97743 L52.7610275,15.46751 C52.7610275,15.37401 52.7124475,15.32547 52.6153375,15.32182 L51.8868865,15.27322 C51.4767165,15.25432 51.2092135,15.15733 51.0843765,14.98214 C50.9595165,14.80696 50.9032635,14.49929 50.9156185,14.05914 L50.9156185,7.52736 C50.9000785,7.03237 50.9499585,6.70204 51.0652545,6.53636 C51.1805305,6.3707 51.4544075,6.28015 51.8868865,6.26471 L52.6153375,6.21611 C52.7124475,6.21211 52.7610275,6.16391 52.7610275,6.07042 L52.7610275,5.5605 L52.7367475,5.51185 C52.6886775,5.5139 52.3598625,5.522 51.7503025,5.5362 C51.1407195,5.5504 50.5387355,5.5585 49.9443515,5.5605 C49.5730345,5.5585 49.1926215,5.5504 48.8031115,5.5362 C48.4135835,5.522 48.2031425,5.514 48.1717875,5.51185 L48.1232275,5.5605 L48.1232275,6.0947 C48.1237245,6.1418 48.1348575,6.1733 48.1566175,6.1891 C48.1783575,6.205 48.2076975,6.214 48.2446375,6.2161 C48.6412295,6.2561 48.8860695,6.3704 48.9791585,6.55908 C49.0722285,6.74777 49.1106745,6.98958 49.0944975,7.28449 L44.0924665,13.30635 L44.0924665,7.52731 C44.0762765,7.04295 44.1268565,6.71565 44.2442275,6.54542 C44.3615845,6.3752 44.6428465,6.28162 45.0880165,6.26466 L45.8164675,6.21606 C45.9135875,6.21206 45.9621515,6.16386 45.9621575,6.07037 L45.9621575,5.56045 L45.9135975,5.51185 C45.8650275,5.51385 45.5372245,5.52195 44.9301885,5.53615 C44.3231405,5.55035 43.7282395,5.55845 43.1454835,5.56045 L43.1454875,5.56051 Z M56.2133985,7.45448 L56.2133985,14.13195 C56.2260985,14.54767 56.1685285,14.83683 56.0406945,14.99941 C55.9128595,15.162 55.6385775,15.25326 55.2178485,15.27319 L54.4893975,15.32179 C54.3922675,15.32979 54.3437075,15.36999 54.3437075,15.4432 L54.3437075,15.9774 L54.3922675,16.026 C54.4392575,16.024 54.7598815,16.0159 55.3541265,16.0017 C55.9483675,15.9875 56.5342645,15.9794 57.1118175,15.9774 C57.6735805,15.9794 58.2436945,15.9875 58.8221595,16.0017 C59.4006155,16.0159 59.7127355,16.024 59.7585225,16.026 L59.7828025,15.9774 L59.7828025,15.46748 C59.7787025,15.37278 59.7382825,15.32422 59.6613945,15.32179 L59.0057885,15.27319 C58.6073105,15.25679 58.3431455,15.17429 58.2132935,15.02582 C58.0834325,14.87735 58.0238415,14.57939 58.0345205,14.13195 L58.0345205,7.45448 C58.0441205,7.04322 58.1463135,6.77916 58.3410775,6.66229 C58.5358325,6.54545 58.7654965,6.49385 59.0300695,6.5075 L61.9681555,6.5075 C62.2220935,6.4908 62.4487225,6.5363 62.6480435,6.64408 C62.8473465,6.75184 62.9525665,7.02197 62.9637055,7.45448 L62.9637055,14.13195 C62.9763955,14.54737 62.9188255,14.83592 62.7910015,14.99759 C62.6631595,15.15927 62.3888775,15.25114 61.9681555,15.27319 L61.3125495,15.32179 C61.2356495,15.32779 61.1951805,15.36879 61.1911415,15.4432 L61.1911415,15.9774 L61.2154215,16.026 C61.2616015,16.024 61.5765535,16.0159 62.1602835,16.0017 C62.7439965,15.9875 63.3193715,15.9794 63.8864085,15.9774 C64.4639485,15.9794 65.0498455,15.9875 65.6441005,16.0017 C66.2383315,16.0159 66.5589515,16.024 66.6059595,16.026 L66.6302395,15.9774 L66.6302395,15.46748 C66.6302395,15.37398 66.5816595,15.32544 66.4845485,15.32179 L65.7560975,15.27319 C65.3459775,15.25889 65.0747305,15.17699 64.9423565,15.02764 C64.8099595,14.87826 64.7493575,14.5797 64.7605485,14.13195 L64.7605485,7.4302 C64.7444985,6.94989 64.7953885,6.63878 64.9132195,6.49687 C65.0310245,6.35499 65.3119845,6.27759 65.7560975,6.26468 L66.4845485,6.21608 C66.5816585,6.21208 66.6302395,6.16388 66.6302395,6.07039 L66.6302395,5.56047 L66.6059595,5.51187 C66.5578895,5.51387 66.2290745,5.52197 65.6195155,5.53617 C65.0099315,5.55037 64.4079485,5.55847 63.8135635,5.56047 L57.0875325,5.56047 C56.5205025,5.55847 55.9451275,5.55037 55.3614075,5.53617 C54.7776845,5.52197 54.4627305,5.51397 54.4165455,5.51187 L54.3679855,5.56047 L54.3679855,6.09467 C54.3684905,6.14197 54.3796155,6.17367 54.4013755,6.18997 C54.4231255,6.20627 54.4524655,6.21497 54.4893955,6.21607 L55.2178465,6.26467 C55.6385755,6.27597 55.9128575,6.35407 56.0406925,6.49899 C56.1685225,6.64388 56.2260905,6.96237 56.2133965,7.45447 L56.2133985,7.45448 Z M70.3565235,9.12992 C70.6362665,7.80607 71.0783945,6.96936 71.6829125,6.6198 C72.2874205,6.27025 72.7599015,6.11951 73.1003565,6.16755 C73.5880075,6.14635 74.0392415,6.31629 74.4540605,6.67747 C74.8688655,7.03867 75.0894245,7.71855 75.1157375,8.71713 C75.1172375,8.82661 75.0899275,8.90998 75.0337875,8.96723 C74.9776275,9.02453 74.8835365,9.05443 74.7515125,9.05703 L70.3565235,9.12992 Z M76.7183295,13.71916 C76.2878265,14.17748 75.8497445,14.51135 75.4040825,14.72078 C74.9584045,14.93021 74.3928435,15.03341 73.7073985,15.03037 C73.2617225,15.03537 72.8054285,14.89834 72.3385175,14.62062 C71.8715965,14.3429 71.4456555,13.89672 71.0606935,13.28209 C70.8158495,12.88094 70.6256425,12.40239 70.4900725,11.84644 C70.3544965,11.29049 70.2856985,10.66018 70.2836785,9.9555 L76.7426115,10.0041 C76.8893035,10.0036 77.0026175,9.9682 77.0825545,9.89787 C77.1624745,9.82757 77.2029415,9.72537 77.2039635,9.59131 C77.2439135,8.52293 76.9818775,7.5638 76.4178435,6.71393 C75.8537915,5.86408 74.7479635,5.41487 73.1003565,5.3663 C71.9737815,5.3733 70.9003295,5.86307 69.8799955,6.83534 C68.8596565,7.80763 68.3143305,9.22001 68.2439658,11.0725 C68.2415165,11.75947 68.3315265,12.41305 68.5141505,13.03324 C68.6967675,13.65344 68.9871355,14.19776 69.3852555,14.66619 C69.7919715,15.15587 70.2958165,15.53628 70.8967915,15.80743 C71.4977595,16.07857 72.2322805,16.21617 73.1003565,16.22022 C74.0190065,16.21122 74.8162555,16.01686 75.4921035,15.63746 C76.1679355,15.25806 76.7466485,14.74814 77.2282455,14.10771 C77.1933255,13.98681 77.1356655,13.89474 77.0552375,13.8315 C76.9747975,13.7683 76.8624915,13.73084 76.7183295,13.7192 L76.7183295,13.71916 Z M78.7888655,19.08542 L79.4201895,19.10972 C79.4970795,18.58614 79.7439445,17.95178 80.1607815,17.20664 C80.5776145,16.4615 81.2858305,16.05174 82.2854305,15.97738 L86.2190665,15.97738 C87.2100535,16.04618 87.9233285,16.44278 88.3588905,17.16718 C88.7944325,17.89159 89.0524255,18.531 89.1328705,19.08544 L89.7399125,19.08544 L89.5942225,15.83169 C89.5962225,15.66657 89.5496925,15.54881 89.4546025,15.47839 C89.3594925,15.40799 89.2036805,15.35577 88.9871795,15.32177 C88.7661045,15.29647 88.5526275,15.20138 88.3467495,15.03646 C88.1408505,14.87155 88.0305715,14.57005 88.0159115,14.13197 L88.0159115,7.40594 C88.0078115,7.00358 88.0847015,6.72292 88.2465875,6.56397 C88.4084555,6.40504 88.7038825,6.30528 89.1328705,6.2647 L89.5456585,6.2161 C89.5845985,6.2151 89.6220385,6.1989 89.6579625,6.1675 C89.6938625,6.1361 89.7130925,6.0957 89.7156325,6.04609 L89.7156325,5.56046 L89.6913525,5.51186 C89.6341725,5.51386 89.3053635,5.52196 88.7049075,5.53616 C88.1044315,5.55036 87.5752935,5.55846 87.1174915,5.56046 L82.5039685,5.56046 C82.2272545,5.55846 81.7911965,5.55036 81.1957925,5.53616 C80.6003825,5.52196 80.2675205,5.51396 80.1972075,5.51186 L80.1243575,5.56046 L80.1243575,6.09466 C80.1253575,6.14226 80.1415575,6.17456 80.1729175,6.19176 C80.2042775,6.20896 80.2447475,6.21706 80.2943265,6.21606 L80.9499325,6.26466 C81.3632235,6.31376 81.6353805,6.42806 81.7664035,6.60764 C81.8974195,6.78723 81.9571125,6.95619 81.9454815,7.11452 C81.9366815,8.54816 81.8443545,9.84521 81.6683665,11.00566 C81.4923715,12.16613 81.2852685,13.25678 81.0470585,14.27762 C80.9630785,14.6034 80.7850165,14.85027 80.5128615,15.01821 C80.2407015,15.18616 79.9412275,15.28734 79.6144385,15.32173 C79.4389005,15.33793 79.2861285,15.37843 79.1561215,15.44314 C79.0261115,15.50794 78.9522555,15.64549 78.9345505,15.85593 L78.7888655,19.08542 Z M81.8726415,14.73899 C81.8908515,14.58673 82.0061875,13.95642 82.2186555,12.84806 C82.4311165,11.7397 82.6314405,9.82853 82.8196275,7.11454 C82.8130275,7.04574 82.8565475,6.92839 82.9501415,6.76245 C83.0437215,6.59654 83.2268465,6.50346 83.4995155,6.4831891 L85.2235165,6.4831891 C85.6570385,6.48122 85.9312185,6.57632 86.0460585,6.76853 C86.1608825,6.96076 86.2104585,7.26226 86.1947845,7.67302 L86.1947845,13.84057 C86.2104545,14.24071 86.1608845,14.53918 86.0460585,14.73596 C85.9312185,14.93274 85.6570375,15.03088 85.2235165,15.03037 L82.3339935,15.03037 C82.2085345,15.03537 82.1012895,15.01977 82.0122605,14.98487 C81.9232205,14.94997 81.8766845,14.86801 81.8726415,14.73901 L81.8726415,14.73899 Z M93.9859605,5.56051 C93.4188705,5.55851 92.8472405,5.55041 92.2710605,5.53621 C91.6948755,5.52201 91.3842725,5.51401 91.3392515,5.51185 L91.2663995,5.56051 L91.2663995,6.09471 C91.2663995,6.14181 91.2785415,6.17331 91.3028215,6.18911 C91.3271015,6.20501 91.3635215,6.21401 91.4120895,6.21611 L92.1405435,6.26471 C92.5815035,6.28121 92.8578135,6.37576 92.9694535,6.5485 C93.0811035,6.72127 93.1285535,7.05564 93.1118135,7.55164 L93.1118135,14.1077 C93.1285135,14.52444 93.0811135,14.81764 92.9694535,14.9873 C92.8578135,15.15697 92.5815035,15.25228 92.1405435,15.27322 L91.3878075,15.32182 C91.3109175,15.32782 91.2704455,15.36882 91.2663995,15.44323 L91.2663995,15.97743 L91.2906795,16.02603 C91.7626535,16.01343 92.2027615,16.00223 92.6109915,15.99263 C93.0192315,15.98263 93.4775415,15.97793 93.9859515,15.97743 C94.3471315,15.97794 94.6506515,15.98343 94.8965115,15.99263 C95.1423615,16.00263 95.4944415,16.01333 95.9527615,16.02603 L95.9770615,15.97743 L95.9770615,15.46751 C95.9770515,15.37521 95.9284615,15.32668 95.8313715,15.32182 C95.4327415,15.28792 95.1798015,15.19789 95.0725615,15.05169 C94.9653115,14.90549 94.9187715,14.68797 94.9329415,14.39912 L94.9329415,14.35052 L99.9349715,8.32865 L99.9349715,14.05914 C99.9508715,14.4779 99.8996715,14.77919 99.7813915,14.96302 C99.6631115,15.14686 99.3824515,15.25026 98.9394215,15.27322 L98.1866915,15.32182 C98.1097915,15.32782 98.0693215,15.36882 98.0652815,15.44323 L98.0652815,15.97743 L98.1138815,16.02603 C98.5848315,16.01343 99.0208915,16.00223 99.4220515,15.99263 C99.8232015,15.98263 100.277472,15.97793 100.784862,15.97743 C101.318542,15.97794 101.799122,15.98343 102.226592,15.99263 C102.654032,16.00263 103.104262,16.01333 103.577262,16.02603 L103.601562,15.97743 L103.601562,15.46751 C103.601562,15.37401 103.552962,15.32547 103.455872,15.32182 L102.727422,15.27322 C102.317252,15.25432 102.049752,15.15733 101.924912,14.98214 C101.800052,14.80696 101.743802,14.49929 101.756152,14.05914 L101.756152,7.52736 C101.740652,7.03237 101.790452,6.70204 101.905792,6.53636 C102.021062,6.3707 102.294942,6.28015 102.727422,6.26471 L103.455872,6.21611 C103.552972,6.21211 103.601562,6.16391 103.601562,6.07042 L103.601562,5.5605 L103.577262,5.51185 C103.529162,5.5139 103.200372,5.522 102.590812,5.5362 C101.981232,5.5504 101.379252,5.5585 100.784862,5.5605 C100.413552,5.5585 100.033132,5.5504 99.6436215,5.5362 C99.2540915,5.522 99.0436515,5.514 99.0123015,5.51185 L98.9637015,5.5605 L98.9637015,6.0947 C98.9642015,6.1418 98.9753015,6.1733 98.9971015,6.1891 C99.0188015,6.205 99.0482015,6.214 99.0851015,6.2161 C99.4817015,6.2561 99.7265415,6.3704 99.8196215,6.55908 C99.9127215,6.74777 99.9511415,6.98958 99.9349615,7.28449 L94.9329315,13.30635 L94.9329315,7.52731 C94.9167315,7.04295 94.9673315,6.71565 95.0846915,6.54542 C95.2020515,6.3752 95.4833115,6.28162 95.9284815,6.26466 L96.6569315,6.21606 C96.7540315,6.21206 96.8026215,6.16386 96.8026215,6.07037 L96.8026215,5.56045 L96.7540215,5.51185 C96.7054215,5.51385 96.3776515,5.52195 95.7706115,5.53615 C95.1635615,5.55035 94.5686615,5.55845 93.9859115,5.56045 L93.9859605,5.56051 Z M111.060341,16.22022 C113.662011,16.16198 115.585321,15.36779 116.830281,13.83753 C118.075211,12.30729 118.693381,10.39004 118.684879,8.08581 C118.647391,5.52865 117.993761,3.54666 116.724051,2.13983 C115.454311,0.73302 113.793031,0.01975 111.740231,0 C110.250941,0.041 109.131961,0.214 108.383281,0.51902 C107.634591,0.82408 106.940541,1.01529 106.301131,1.09268 C106.251531,1.74425 106.180731,2.3776 106.088661,2.99272 C105.996561,3.60787 105.889351,4.22908 105.766931,4.85634 L106.495381,4.95344 C106.785751,3.87089 107.340181,2.93402 108.158681,2.14283 C108.977171,1.35167 110.211491,0.93685 111.861641,0.89839 C112.897141,0.86549 113.922031,1.3805 114.936311,2.44332 C115.950561,3.50616 116.495891,5.31413 116.572291,7.86724 L116.547991,7.89154 C115.778051,7.48382 115.065791,7.19447 114.411211,7.02347 C113.756601,6.8525 113.335721,6.76954 113.148561,6.77459 C112.401891,6.81299 111.722001,6.96682 111.108891,7.23594 C110.495781,7.50507 109.840171,7.65885 109.142081,7.69729 C108.687801,7.68109 108.345831,7.61639 108.116171,7.50304 C107.886511,7.38973 107.726651,7.32498 107.636611,7.30878 C107.585011,7.30879 107.536451,7.33308 107.490921,7.38168 C107.445421,7.43028 107.421121,7.5031 107.418121,7.60021 C107.452021,7.92044 107.766661,8.21485 108.362071,8.48346 C108.957471,8.75208 109.630271,8.89474 110.380481,8.91143 C111.160021,8.87903 111.810571,8.74955 112.332121,8.52292 C112.853671,8.2963 113.449581,8.16679 114.119861,8.13441 C114.574631,8.13391 114.994501,8.17741 115.379481,8.26492 C115.764431,8.35242 116.153951,8.48701 116.548031,8.66861 C116.433701,10.62633 115.921761,12.22285 115.012221,13.45817 C114.102651,14.69351 112.753001,15.3309 110.963241,15.37036 C110.045591,15.35616 109.331311,15.17813 108.820381,14.83616 C108.309451,14.49419 107.971531,14.07331 107.806621,13.57351 C107.654861,13.1157 107.472751,12.7444 107.260281,12.45959 C107.047821,12.17479 106.768581,12.02809 106.422571,12.01948 C106.122581,12.02848 105.909111,12.12572 105.782141,12.31086 C105.655161,12.49601 105.593451,12.71455 105.596991,12.96647 C105.620791,13.57232 105.918491,14.1197 106.490011,14.60863 C107.061531,15.09756 107.763901,15.48667 108.597131,15.77595 C109.430341,16.06523 110.251421,16.21332 111.060371,16.22022 L111.060341,16.22022 Z" id="kbd-wordmark" fill="#000000" fill-rule="nonzero"></path>
    </g>
</svg>