<svg xmlns="http://www.w3.org/2000/svg" width="103" height="18"><path fill="#000" fill-rule="nonzero" d="M17.87 3.625c0 .819-.273 1.555-.82 2.209-.537.653-1.234 1.17-2.089 1.551-.855.38-1.76.571-2.715.571-.258 0-.522-.012-.79-.037-.269-.033-.532-.066-.79-.1l-.672 6.64c-.01.083.005.19.045.323.05.124.144.186.283.186.279 0 .557-.012.836-.037.288-.025.571-.046.85-.062.199-.398.527-.704.984-.919a5.635 5.635 0 0 1 1.522-.447 9.156 9.156 0 0 1 1.491-.136c.14 0 .309.008.508.024.208.017.377.05.507.1a1.043 1.043 0 0 0-.433.583c-.06.24-.09.472-.09.695 0 .455.09.857.27 1.204.188.34.526.629 1.013.869-.447.248-.93.422-1.446.521-.508.1-1.025.15-1.552.15-.795 0-1.442-.113-1.939-.336-.497-.223-.795-.7-.895-1.427-.696.058-1.457.128-2.282.21-.816.083-1.482.125-1.999.125-.587 0-1.02-.083-1.298-.249-.278-.165-.417-.504-.417-1.017 0-.141.01-.344.03-.608l.044-.609.597-5.423c-.458.232-.94.422-1.447.57a5.53 5.53 0 0 1-1.566.224c-1.213 0-2.118-.298-2.715-.893C.298 7.476 0 6.685 0 5.71c0-.944.264-1.743.79-2.396.528-.662 1.224-1.196 2.089-1.601.865-.414 1.81-.712 2.834-.894A16.553 16.553 0 0 1 8.741.534c.875 0 1.73-.087 2.566-.261C12.152.091 12.997 0 13.843 0c1.253 0 2.237.356 2.953 1.067a3.451 3.451 0 0 1 1.074 2.557Zm-4.251-.683c0-.414-.12-.81-.358-1.191-.229-.39-.637-.584-1.223-.584-.13 0-.259.008-.388.025l-.373.05-.522 5.671c.348.05.69.075 1.03.075.387 0 .7-.166.939-.497.248-.339.432-.744.552-1.216.129-.471.218-.927.268-1.365.05-.439.075-.761.075-.968ZM7.264 1.44c-.825.067-1.456.344-1.894.832a3.91 3.91 0 0 0-.895 1.713 8.07 8.07 0 0 0-.224 1.812c0 .198.025.442.075.732.06.281.169.534.328.757.169.223.418.335.746.335.199 0 .422-.041.671-.124.259-.091.472-.17.641-.236l.552-5.82Zm33.03 16.088a8.425 8.425 0 0 1-1.228.297c-.353.06-.78.089-1.282.089-.696 0-1.224-.086-1.585-.258-.352-.165-.59-.524-.713-1.079l-3.607.248c-.176.007-.352.017-.528.03-.176.012-.352.019-.528.019-.397 0-.674-.073-.833-.218-.158-.145-.237-.449-.237-.911 0-.977.03-1.95.092-2.921.062-.97.093-1.945.093-2.922 0-.72-.044-1.27-.133-1.653-.079-.39-.242-.657-.488-.802-.247-.146-.626-.218-1.136-.218-.282 0-.555.03-.82.089a1.94 1.94 0 0 0-.7.316c-.387.284-.7.836-.937 1.654-.238.819-.357 2.08-.357 3.783 0 .905.022 1.588.066 2.05.044.455.128.769.251.94a.594.594 0 0 0 .251.199c.115.046.229.086.344.119v.257l-2.722.307c-.14.02-.29.03-.449.03-.29 0-.506-.063-.647-.188-.44-.364-.66-1.367-.66-3.01 0-.615.039-1.268.118-1.962.08-.7.251-1.376.515-2.03a4.697 4.697 0 0 1 1.229-1.723c-.3.027-.603.056-.912.09-.299.032-.603.049-.911.049-.282 0-.51-.043-.687-.13-.176-.092-.26-.257-.25-.494l.158-2.961a1.562 1.562 0 0 0-.066-.515c-.044-.191-.194-.31-.45-.357v-.247l3.118-.525c.176-.033.343-.05.502-.05.255 0 .467.053.634.159.167.099.247.25.238.455l-.132 3.714a7.341 7.341 0 0 1 2.206-.644c.792-.112 1.58-.168 2.364-.168 1.092 0 1.929.145 2.51.436.581.29.978.71 1.189 1.257.22.542.33 1.195.33 1.961 0 .522-.017 1.12-.053 1.792-.026.674-.057 1.344-.092 2.01-.035.66-.053 1.245-.053 1.754 0 .198.207.297.621.297.15 0 .392-.014.726-.04.335-.026.639-.053.912-.08.167-.277.45-.498.845-.663a5.845 5.845 0 0 1 1.295-.356c.467-.073.88-.109 1.242-.109.396 0 .757.033 1.083.099-.106.185-.211.39-.317.614a1.624 1.624 0 0 0-.145.644c0 .303.057.567.171.792.124.218.308.446.555.683ZM62.747 7.464a5.14 5.14 0 0 1-1.064.328 6.238 6.238 0 0 1-1.14.114c-2.189 0-3.268-.824-3.238-2.47l-3.207.124-1.778 9.168-.137.77c-.05.28-.076.533-.076.76 0 .423.197.748.593.975v.294l-2.341.193c-.162.008-.35.023-.563.045a7.44 7.44 0 0 1-.547.023c-.587 0-.967-.102-1.14-.306-.162-.204-.243-.499-.243-.884 0-.174.02-.367.06-.578l.107-.578 1.794-9.7c-.264.007-.633.022-1.11.045-.466.015-.891.033-1.277.056-.374.015-.562.034-.562.057.06.438-.066.865-.38 1.28-.314.416-.745.76-1.292 1.032a3.75 3.75 0 0 1-1.718.408c-.314 0-.658-.038-1.033-.114a8.692 8.692 0 0 1-.988-.26c.273-.167.491-.382.653-.646.163-.272.244-.537.244-.794 0-.241-.056-.506-.168-.793a1.84 1.84 0 0 0-.456-.736l20.49-.93a1.944 1.944 0 0 0-.182.635 5.24 5.24 0 0 0-.046.646c0 .25.05.574.152.974.111.4.31.688.593.862Zm22.702 1.87c-.296.166-.635.28-1.017.34a8.04 8.04 0 0 1-1.102.08c-1.03 0-1.794-.254-2.29-.76-.487-.514-.73-1.148-.73-1.904h-2.291c-.41.552-.955.997-1.632 1.337a8.997 8.997 0 0 1-2.22.76c-.791.166-1.57.264-2.333.294a11.74 11.74 0 0 0 1.146 2.482c.486.8 1.064 1.556 1.732 2.267h5.397c-.048.158-.09.324-.129.498a2.932 2.932 0 0 0-.043.499c0 .31.062.684.186 1.122.124.43.334.763.63.997-.238.189-.558.329-.959.42-.4.09-.764.135-1.088.135-.954 0-1.713-.264-2.276-.793-.554-.529-.83-1.156-.83-1.881h-6.457c-.105.725-.434 1.352-.988 1.881-.553.529-1.327.793-2.32.793-.247 0-.605-.022-1.073-.068-.458-.053-.787-.155-.988-.306.21-.098.368-.276.473-.532.114-.257.19-.526.229-.805.038-.287.057-.506.057-.657 0-.197-.019-.386-.057-.567a5.804 5.804 0 0 1-.086-.567h5.784c-.907-1.035-1.642-2.1-2.205-3.195a7.762 7.762 0 0 1-.845-3.581c0-.831.258-1.545.773-2.142.525-.597 1.203-1.084 2.033-1.462.83-.378 1.723-.657 2.677-.839.964-.181 1.89-.272 2.778-.272 1.097 0 1.913.17 2.448.51.534.34.801.96.801 1.859 0 .378-.066.725-.2 1.042h6.099a3.635 3.635 0 0 0-.086.794c0 .211.028.468.086.77.066.302.171.59.315.861.152.265.353.461.6.59Zm-10.68-4.272c0-.265-.081-.54-.243-.828-.163-.294-.444-.442-.845-.442-.4 0-.744.106-1.03.318-.287.211-.52.476-.702.793-.172.317-.3.642-.387.975a3.52 3.52 0 0 0-.129.86c0 .583.058 1.164.172 1.746.993-.257 1.766-.684 2.32-1.28a3.038 3.038 0 0 0 .844-2.142Zm28.21-2.211c0 .856-.228 1.562-.683 2.12-.446.556-1.04.996-1.783 1.32a9.894 9.894 0 0 1-2.452.665c-.881.13-1.758.202-2.63.218.238.953.58 1.902 1.026 2.846.455.945.956 1.849 1.5 2.713l-5.75 1.683c.06.097.1.226.12.388.02.161.03.286.03.375 0 .509-.219.937-.655 1.284a4.25 4.25 0 0 1-1.545.8 5.784 5.784 0 0 1-1.693.278 2.46 2.46 0 0 1-.55-.073c-.198-.04-.362-.1-.49-.182a2.59 2.59 0 0 0 .252-.75c.06-.275.09-.53.09-.763 0-.315-.035-.634-.105-.957a6.836 6.836 0 0 0-.237-.945 7.45 7.45 0 0 1 1.262-.424c.486-.129.927-.193 1.323-.193.247 0 .544.032.891.097.347.064.61.177.788.339l2.466-.69a23.169 23.169 0 0 1-1.382-2.35 18.161 18.161 0 0 1-1.129-2.713c-.297-.92-.446-1.764-.446-2.53 0-.937.238-1.74.713-2.41.476-.679 1.11-1.236 1.902-1.672a9.666 9.666 0 0 1 2.674-.981c.981-.21 1.976-.315 2.987-.315.98 0 1.807.27 2.48.811.684.533 1.026 1.203 1.026 2.01Zm-3.655-.642a1.54 1.54 0 0 0-.223-.8c-.148-.258-.43-.387-.847-.387-.594 0-1.094.186-1.5.557a3.938 3.938 0 0 0-.951 1.38 7.28 7.28 0 0 0-.475 1.708c-.08.59-.095 1.11-.045 1.563a6.481 6.481 0 0 0 1.887-.884 6.02 6.02 0 0 0 1.545-1.442c.406-.549.61-1.114.61-1.695Z"/></svg>