<?xml version="1.0" encoding="UTF-8"?>
<svg width="120px" height="13px" viewBox="0 0 120 13" version="1.1" xmlns="http://www.w3.org/2000/svg" xmlns:xlink="http://www.w3.org/1999/xlink">
    <title>rmy-tagline</title>
    <g id="Page-1" stroke="none" stroke-width="1" fill="none" fill-rule="evenodd">
        <path d="M2.31636794,7.55936527 L2.31636794,2.29668216 C2.31636794,1.20739953 2.53947511,1.14177913 3.45814707,1.10240744 C3.53689036,1.02366405 3.53689036,0.748062189 3.45814707,0.6693188 C2.8150767,0.682442698 2.42135848,0.695566596 1.75204032,0.695566596 C1.09584606,0.695566596 0.715251737,0.682442698 0.0590574728,0.6693188 C-0.0196858243,0.748062189 -0.0196858243,1.02366405 0.0590574728,1.10240744 C0.977729425,1.14177913 1.2008366,1.20739953 1.2008366,2.29668216 L1.2008366,7.55936527 C1.2008366,8.64864699 0.977729425,8.7142683 0.0590574728,8.75364 C-0.0196858243,8.83238338 -0.0196858243,9.10798524 0.0590574728,9.18672863 C0.702127839,9.17360473 1.09584606,9.16048083 1.76516422,9.16048083 C2.42135848,9.16048083 2.8019528,9.17360473 3.45814707,9.18672863 C3.53689036,9.10798524 3.53689036,8.83238338 3.45814707,8.75364 C2.53947511,8.7142683 2.31636794,8.64864699 2.31636794,7.55936527 M15.6748553,7.63810866 C15.7404748,8.70114258 15.7011022,8.7142683 14.8480497,8.75364 C14.7693063,8.83238338 14.7693063,9.10798524 14.8480497,9.18672863 C15.4648729,9.17360473 15.8585908,9.16048083 16.2523068,9.16048083 C16.6460237,9.16048083 17.2366001,9.17360473 17.6828117,9.18672863 C17.7615551,9.10798524 17.7615551,8.83238338 17.6828117,8.75364 C16.7903875,8.7142683 16.7510149,8.66177089 16.6722715,7.57248917 L16.2785546,2.04732809 C16.226059,1.3386376 16.2916794,1.15490303 17.1841036,1.10240744 C17.262847,1.02366405 17.262847,0.748062189 17.1841036,0.6693188 L15.4648729,0.695566596 L12.6826065,7.3493829 C12.6301109,7.48062097 12.5907393,7.53311748 12.5644915,7.53311748 C12.5251198,7.53311748 12.5119959,7.48062189 12.4595003,7.3625068 L9.76910117,0.695566596 L7.86613596,0.6693188 C7.78739257,0.748062189 7.78739257,1.02366405 7.86613596,1.10240744 C8.77168401,1.15490303 8.85042831,1.18115174 8.75856102,2.16544318 L8.2204812,7.57248917 C8.15486171,8.35992214 7.99737494,8.68802051 7.24931275,8.75364 C7.17056936,8.83238338 7.17056936,9.10798524 7.24931275,9.18672863 C7.64302969,9.17360473 8.06299534,9.16048083 8.37796798,9.16048083 C8.69294153,9.16048083 9.21789837,9.17360473 9.6116144,9.18672863 C9.69035779,9.10798524 9.69035779,8.83238338 9.6116144,8.75364 C8.74543804,8.68802051 8.66669374,8.29430265 8.74543713,7.54624138 L9.24414525,2.28355826 L9.27039305,2.28355826 L11.9870399,9.09486134 C12.0132877,9.19985253 12.105155,9.23922422 12.1838984,9.23922422 C12.2626418,9.23922422 12.3151374,9.19985253 12.367633,9.09486134 L15.32051,2.15231928 L15.3467578,2.15231928 L15.6748553,7.63810866 M19.6362219,5.45954159 C19.885576,3.97654202 20.8042497,3.85842603 21.1192224,3.85842603 C21.6179305,3.85842603 22.2085059,4.1340288 22.2085059,5.23643532 C22.2085059,5.3545504 22.1560103,5.42016989 22.0116474,5.42016989 L19.6362219,5.45954159 M23.0746832,7.93995832 C22.5890999,8.43866553 22.2085059,8.64864881 21.4473198,8.64864881 C20.9748604,8.64864881 20.4236558,8.37304604 20.0168149,7.70372815 C19.7543379,7.27063952 19.5968502,6.6669393 19.5968502,5.90575412 L23.0878071,5.93200192 C23.2452939,5.93200192 23.3371611,5.85325762 23.3371611,5.70889565 C23.3371611,4.60648912 22.9434424,3.42533739 21.1192224,3.42533739 C19.9774451,3.42533739 18.4944428,4.51462275 18.4944428,6.50945343 C18.4944428,7.24439081 18.6781782,7.95308221 19.111266,8.45179034 C19.5574785,8.97674535 20.1743026,9.29171982 21.1192224,9.29171982 C22.1166377,9.29171982 22.82533,8.83238247 23.350285,8.14994069 C23.3109133,8.01870171 23.23217,7.95308221 23.0746832,7.93995832 M24.5086741,7.3493829 C24.5611697,7.992453 24.6005414,8.60927712 24.6005414,9.16048083 C24.7317804,9.13423304 24.8630194,9.12110914 24.9286388,9.12110914 C25.0205061,9.12110914 25.0992504,9.12110914 25.1911168,9.14735694 C25.545462,9.23922422 25.8998082,9.29171982 26.3853915,9.29171982 C27.1203298,9.29171982 28.4720913,8.93737275 28.4720913,7.63810866 C28.4720913,6.74568451 27.8158955,6.23385066 26.9365952,5.89263022 C26.1491623,5.59078057 25.6242054,5.39392118 25.6242054,4.6721077 C25.6242054,4.13402788 26.0966667,3.83217823 26.5428783,3.83217823 C26.8316041,3.83217823 27.5927911,3.93717032 27.7634008,5.05270075 C27.8421442,5.13144414 28.1046222,5.11832024 28.1833656,5.03957685 C28.1833656,4.56711652 28.248985,4.08153138 28.2621089,3.64844366 C27.855269,3.58282417 27.225321,3.39908959 26.5428783,3.39908959 C25.5717108,3.39908959 24.6924087,4.02903761 24.6924087,4.86896617 C24.6924087,5.82700982 25.1254991,6.23385157 26.1360375,6.65381631 C27.2121962,7.11315183 27.4746751,7.3756307 27.4746751,7.93995832 C27.4746751,8.58302841 26.844728,8.85863118 26.3591437,8.85863118 C25.8473126,8.85863118 25.5585859,8.68801959 25.427347,8.54365763 C25.1123743,8.24180797 24.9942583,7.66435555 24.9155149,7.33625901 C24.8367716,7.25751562 24.5874175,7.27063952 24.5086741,7.3493829 M29.4670468,3.53032857 C29.2833132,3.53032857 29.2308167,3.68781535 29.2308167,3.79280653 L29.2308167,3.96341721 C29.2308167,4.0290367 29.2439406,4.0421606 29.2964362,4.0421606 L30.0707461,4.0421606 L30.0707461,7.99245391 C30.0707461,8.92424976 30.4775879,9.29171982 31.0812863,9.29171982 C31.6849856,9.29171982 32.3411814,9.00299315 32.8530125,8.42554254 C32.8267647,8.29430356 32.7480213,8.21556018 32.6167824,8.20243628 C32.2755619,8.46491333 31.8818441,8.56990542 31.5406227,8.56990542 C31.1862784,8.56990542 31.1075341,8.17618757 31.1075341,7.3625068 L31.1075341,4.0421606 L32.4724195,4.0421606 C32.6036585,4.0421606 32.787393,3.98966501 32.787393,3.87154992 L32.787393,3.60907196 C32.787393,3.55657637 32.7480213,3.53032857 32.6824019,3.53032857 L31.1075341,3.53032857 L31.1075341,3.01849655 C31.1075341,2.16544409 31.1600297,1.64048726 31.1600297,1.64048726 C31.1600297,1.54861997 31.1075341,1.50924828 30.989419,1.50924828 L30.2282329,1.86359352 C30.1494895,1.90296522 30.0313744,1.92921301 30.0444983,2.0210803 C30.0707461,2.32292904 30.0707461,2.44104595 30.0707461,3.53032857 L29.4670468,3.53032857 M34.2363534,1.29926591 C34.2363534,1.64048634 34.5513279,1.9817086 34.8663005,1.9817086 C35.2337697,1.9817086 35.5487432,1.64048634 35.5487432,1.3517615 C35.5487432,1.03678795 35.2731414,0.6693188 34.9187961,0.6693188 C34.6038235,0.6693188 34.2363534,0.984292353 34.2363534,1.29926591 M35.4306281,7.55936527 L35.4306281,4.94770956 C35.4306281,4.29151466 35.4831237,3.45158519 35.4831237,3.45158519 C35.4831237,3.39908959 35.4175042,3.3597179 35.312513,3.3597179 C34.9319209,3.50407987 34.4200871,3.62219586 33.514539,3.74031094 C33.4882912,3.81905433 33.514539,4.0290367 33.5407868,4.10778009 C34.2494773,4.18652348 34.3938402,4.25214297 34.3938402,5.00020515 L34.3938402,7.55936527 C34.3938402,8.64864699 34.2494773,8.68802051 33.4489195,8.75364 C33.3701761,8.83238338 33.3701761,9.10798524 33.4489195,9.18672863 C34.0001232,9.17360473 34.3413455,9.16048083 34.9187961,9.16048083 C35.4831237,9.16048083 35.8112221,9.17360473 36.3755488,9.18672863 C36.4542922,9.10798524 36.4542922,8.83238338 36.3755488,8.75364 C35.5749919,8.7011444 35.4306281,8.64864699 35.4306281,7.55936527 M43.4819345,4.42275364 L42.2876598,4.42275364 L42.2876598,1.79797403 C42.2876598,1.48300048 42.4451475,1.22052252 42.7601201,1.22052252 L44.1381294,1.22052252 C45.1224209,1.22052252 45.3324051,1.74547935 45.6211299,2.6510274 C45.7786167,2.6772752 45.9229805,2.6510274 46.0542185,2.58540791 C45.988599,2.04732809 45.7917406,0.787433883 45.7654928,0.682442698 C45.7654928,0.656194902 45.7523689,0.643071004 45.7129972,0.643071004 C45.4898918,0.682442698 45.3848997,0.695566596 45.0699262,0.695566596 L41.7233322,0.695566596 C41.7233322,0.695566596 40.6865442,0.682442698 40.0303493,0.6693188 C39.9516059,0.748062189 39.9516059,1.02366405 40.0303493,1.10240744 C40.9490213,1.14177913 41.1721285,1.20739953 41.1721285,2.29668216 L41.1721285,7.55936527 C41.1721285,8.64864699 40.9490213,8.7142683 40.0303493,8.75364 C39.9516059,8.83238338 39.9516059,9.10798524 40.0303493,9.18672863 C40.6734203,9.17360473 41.7364561,9.16048083 41.7364561,9.16048083 L44.5580942,9.16048083 C45.1880413,9.16048083 46.2379531,9.18672863 46.2379531,9.18672863 C46.4216877,8.53053373 46.6185471,7.66435555 46.7235373,6.99503766 C46.5791754,6.92941817 46.4348116,6.89004647 46.2642009,6.92941817 C46.0017239,7.87433792 45.5423856,8.64864881 44.5449703,8.64864881 L42.7601201,8.64864881 C42.4713953,8.64864881 42.2876598,8.43866553 42.2876598,8.0843212 L42.2876598,4.92146177 L43.4819345,4.92146177 C44.5974649,4.92146177 44.6368375,5.22331142 44.6762092,5.81388683 C44.7549526,5.89263022 45.0305545,5.89263022 45.1092979,5.81388683 C45.096174,5.3545504 45.0830501,5.10519543 45.0830501,4.65898381 C45.0830501,4.21277127 45.096174,3.9240446 45.1092979,3.53032857 C45.0305545,3.45158519 44.7549526,3.45158519 44.6762092,3.53032857 C44.6368375,4.25214205 44.5974649,4.42275364 43.4819345,4.42275364 M49.5166719,4.46212534 C49.4773003,4.51462093 49.385433,4.645859 49.385433,4.46212534 C49.385433,4.06840839 49.4510525,3.46470908 49.4510525,3.46470908 C49.4510525,3.39908959 49.3985569,3.3597179 49.2935657,3.3597179 C48.9260974,3.50407987 48.3880158,3.62219586 47.4824678,3.74031094 C47.45622,3.81905433 47.4824678,4.0290367 47.5087155,4.10778009 C48.217406,4.17339958 48.3617689,4.23901907 48.3617689,5.00020515 L48.3617689,7.55936527 C48.3617689,8.63552309 48.2305299,8.68802051 47.4430961,8.75364 C47.3643527,8.83238338 47.3643527,9.10798524 47.4430961,9.18672863 C47.9811759,9.17360473 48.3223981,9.16048083 48.8867248,9.16048083 C49.3985569,9.16048083 49.6347879,9.17360473 50.1859907,9.18672863 C50.2647341,9.10798524 50.2647341,8.83238338 50.1859907,8.75364 C49.5166729,8.68802051 49.3985569,8.63552309 49.3985569,7.55936527 L49.3985569,5.40704599 C49.3985569,5.13144414 49.5166729,4.97395736 49.6216631,4.85584228 C50.1203713,4.37025805 50.6322042,4.08153229 51.1440353,4.08153229 C51.4065133,4.08153229 51.682116,4.25214297 51.8396019,4.55399262 C51.9708409,4.81646967 51.9970887,5.17081583 51.9970887,5.56453277 L51.9970887,7.55936527 C51.9970887,8.63552309 51.8658497,8.68802051 51.183407,8.75364 C51.1177875,8.83238338 51.1177875,9.10798524 51.183407,9.18672863 C51.7346107,9.17360473 51.9970896,9.16048083 52.5220446,9.16048083 C53.0601244,9.16048083 53.3488511,9.17360473 53.9131778,9.18672863 C53.9787973,9.10798524 53.9787973,8.83238338 53.9131778,8.75364 C53.1782404,8.68802051 53.0338766,8.63552309 53.0338766,7.55936527 L53.0338766,5.60390446 C53.0338766,4.88209007 52.981381,4.25214205 52.6795314,3.84530213 C52.456426,3.55657637 52.0495843,3.39908959 51.5902478,3.39908959 C50.9471777,3.39908959 50.3172297,3.56970118 49.5166719,4.46212534 M59.3485222,7.96620611 C59.2960266,7.84809103 59.1910354,7.79559544 59.0729203,7.78247154 C58.6267087,8.35992214 58.0623802,8.64864881 57.4980526,8.64864881 C56.5400089,8.64864881 55.7394502,7.67747853 55.7394502,6.14198428 C55.7394502,4.69835641 56.3693982,3.83217823 57.2355746,3.83217823 C58.0098846,3.83217823 58.1148758,4.29151466 58.1673714,4.75085109 C58.2067431,5.10519543 58.3904785,5.22331142 58.6660795,5.22331142 C58.9416814,5.22331142 59.3091505,5.05269984 59.3091505,4.64585991 C59.3091505,3.92404552 58.5610874,3.39908959 57.3011941,3.39908959 C56.00193,3.39908959 54.610795,4.56711834 54.610795,6.43071004 C54.610795,8.12369107 55.5557175,9.29171982 57.2093268,9.29171982 C57.9967607,9.29171982 58.6923282,9.04236393 59.3485222,7.96620611 M61.8791788,5.42016989 C61.8791788,5.13144414 61.9972948,4.97395736 62.1022851,4.85584228 C62.6009932,4.37025805 63.1784457,4.08153229 63.7034007,4.08153229 C63.9658786,4.08153229 64.2414814,4.26526686 64.3989673,4.55399262 C64.5302063,4.81646967 64.556454,5.17081583 64.556454,5.56453277 L64.556454,7.55936527 C64.556454,8.63552309 64.4252151,8.68802051 63.7427724,8.75364 C63.6771529,8.83238338 63.6771529,9.10798524 63.7427724,9.18672863 C64.2939761,9.17360473 64.556455,9.16048083 65.08141,9.16048083 C65.6194898,9.16048083 65.9082165,9.17360473 66.4725432,9.18672863 C66.5381627,9.10798524 66.5381627,8.83238338 66.4725432,8.75364 C65.7376058,8.68802051 65.593242,8.63552309 65.593242,7.55936527 L65.593242,5.60390446 C65.593242,4.88209007 65.5407464,4.25214205 65.2388967,3.84530213 C65.0157914,3.55657637 64.6089496,3.39908959 64.1496132,3.39908959 C63.4934192,3.39908959 62.7978517,3.56970118 61.9972939,4.46212534 C61.9447983,4.51462093 61.8660549,4.645859 61.8660549,4.46212534 L61.8791788,1.50924828 C61.8791788,0.656195814 61.9316744,0.13123898 61.9316744,0.13123898 C61.9316744,0.0393716941 61.8791788,2.66453526e-15 61.7610638,2.66453526e-15 C61.4329672,0.131238069 60.448674,0.314973553 59.923718,0.354345247 C59.8974702,0.459336432 59.923718,0.6693188 60.0024614,0.748062189 C60.6849041,0.787433883 60.8423909,0.721815304 60.8423909,1.82422183 L60.8423909,7.55936527 C60.8423909,8.64864699 60.6849041,8.7011444 59.923718,8.75364 C59.8449746,8.83238338 59.8449746,9.10798524 59.923718,9.18672863 C60.4617979,9.17360473 60.8030201,9.16048083 61.3673468,9.16048083 C61.8791788,9.16048083 62.102286,9.17360473 62.6534888,9.18672863 C62.7322322,9.10798524 62.7322322,8.83238338 62.6534888,8.75364 C61.9972948,8.7011444 61.8791788,8.64864699 61.8791788,7.55936527 L61.8791788,5.42016989 M67.8407095,1.29926591 C67.8407095,1.64048634 68.155684,1.9817086 68.4706566,1.9817086 C68.8381258,1.9817086 69.1530993,1.64048634 69.1530993,1.3517615 C69.1530993,1.03678795 68.8774975,0.6693188 68.5231522,0.6693188 C68.2081796,0.6693188 67.8407095,0.984292353 67.8407095,1.29926591 M69.0349843,7.55936527 L69.0349843,4.94770956 C69.0349843,4.29151466 69.0874798,3.45158519 69.0874798,3.45158519 C69.0874798,3.39908959 69.0218604,3.3597179 68.9168692,3.3597179 C68.536277,3.50407987 68.0244432,3.62219586 67.1188951,3.74031094 C67.0926473,3.81905433 67.1188951,4.0290367 67.1451429,4.10778009 C67.8538334,4.18652348 67.9981963,4.25214297 67.9981963,5.00020515 L67.9981963,7.55936527 C67.9981963,8.64864699 67.8538334,8.68802051 67.0532757,8.75364 C66.9745323,8.83238338 66.9745323,9.10798524 67.0532757,9.18672863 C67.6044794,9.17360473 67.9457016,9.16048083 68.5231522,9.16048083 C69.0874798,9.16048083 69.4155782,9.17360473 69.9799049,9.18672863 C70.0586483,9.10798524 70.0586483,8.83238338 69.9799049,8.75364 C69.179348,8.7011444 69.0349843,8.64864699 69.0349843,7.55936527 M71.3511472,7.55936527 C71.3511472,8.64864699 71.2067843,8.7011444 70.471846,8.75364 C70.3931026,8.83238338 70.3931026,9.10798524 70.471846,9.18672863 C71.0230497,9.17360473 71.3249003,9.16048083 71.8761031,9.16048083 C72.3354396,9.16048083 72.5060511,9.17360473 73.0703778,9.18672863 C73.1491212,9.10798524 73.1491212,8.83238338 73.0703778,8.75364 C72.5322989,8.7011444 72.3879351,8.64864699 72.3879351,7.55936527 L72.3879351,6.37821445 C72.6897848,6.39133835 72.8735203,6.48320563 73.1359973,6.85067478 L74.0940419,8.20243628 C74.3565199,8.58302841 74.3958915,8.7405161 74.3958915,8.91112677 L74.3958915,9.12110914 C74.3958915,9.16048083 74.4090154,9.18672863 74.4483871,9.18672863 C74.7108651,9.17360473 74.9602201,9.16048083 75.3539361,9.16048083 C75.7607769,9.16048083 76.0363797,9.17360473 76.4300957,9.18672863 C76.5088391,9.10798524 76.5088391,8.83238338 76.4300957,8.75364 C75.9838841,8.7011444 75.5901663,8.6486479 75.3014405,8.20243628 L73.7659444,5.93200192 C73.7265727,5.87950632 73.7003249,5.81388683 73.7003249,5.74826734 C73.7003249,5.69577175 73.7134488,5.65640006 73.7528205,5.61702836 L74.7502368,4.51462093 C75.1308298,4.12090399 75.5376716,3.96341721 76.1938656,3.93716941 C76.272609,3.85842603 76.272609,3.58282417 76.1938656,3.50408078 C75.7082823,3.51720468 75.5245468,3.53032857 75.0520864,3.53032857 C74.5533792,3.53032857 74.3302721,3.51720468 73.8446878,3.50408078 C73.7659444,3.58282417 73.7659444,3.85842603 73.8446878,3.93716941 C74.6321217,3.97654111 74.212157,4.47524923 74.080918,4.60648821 C73.3853523,5.36767339 72.7291565,5.94512581 72.3879351,6.050117 L72.3879351,1.50924828 C72.3879351,0.656195814 72.4404307,0.13123898 72.4404307,0.13123898 C72.4404307,0.0393716941 72.3879351,2.66453526e-15 72.2698201,2.66453526e-15 C71.9417235,0.131238069 70.9574303,0.314973553 70.4324743,0.354345247 C70.4062265,0.459336432 70.4324743,0.6693188 70.5112177,0.748062189 C71.1936604,0.787433883 71.3511472,0.721815304 71.3511472,1.82422183 L71.3511472,7.55936527 M77.8005178,7.55936527 C77.8005178,8.64864699 77.6561549,8.7142683 76.8555971,8.75364 C76.7768537,8.83238338 76.7768537,9.10798524 76.8555971,9.18672863 C77.4068008,9.17360473 77.7480231,9.16048083 78.3254737,9.16048083 C78.8898013,9.16048083 79.2178997,9.17360473 79.7822264,9.18672863 C79.8609698,9.10798524 79.8609698,8.83238338 79.7822264,8.75364 C78.9816695,8.7142683 78.8373057,8.64864699 78.8373057,7.55936527 L78.8373057,1.50924828 C78.8373057,0.656195814 78.8898013,0.13123898 78.8898013,0.13123898 C78.8898013,0.0393716941 78.8373057,2.66453526e-15 78.7191906,2.66453526e-15 C78.3910941,0.131238069 77.4068008,0.314973553 76.8818449,0.354345247 C76.8555971,0.459336432 76.8818449,0.6693188 76.9605883,0.748062189 C77.643031,0.787433883 77.8005178,0.721815304 77.8005178,1.82422183 L77.8005178,7.55936527 M80.5522301,6.47008174 C80.5522301,7.80871751 81.4577809,9.29171982 83.3082487,9.29171982 C85.2637077,9.29171982 86.0905151,7.66435464 86.0905151,6.35196665 C86.0905151,4.98708217 85.3686989,3.39908959 83.3344965,3.39908959 C81.5627721,3.39908959 80.5522301,4.8033476 80.5522301,6.47008174 M83.1901336,3.83217823 C84.3187879,3.83217823 84.9618598,4.8427202 84.9618598,6.77193139 C84.9618598,8.50428411 84.1613021,8.85863118 83.5444788,8.85863118 C82.1795953,8.85863118 81.6808853,7.17877132 81.6808853,6.16823208 C81.6808853,5.02645386 82.087728,3.83217823 83.1901336,3.83217823 M88.9240494,4.76397499 C89.3308903,4.34401025 89.8558462,4.0027889 90.2495631,4.0027889 C91.0894926,4.0027889 91.811307,4.94771047 91.811307,6.43071004 C91.811307,7.50686786 91.4307139,8.84550728 89.9608374,8.84550728 C89.7246072,8.84550728 89.2652708,8.77988688 89.0290406,8.56990542 C88.7534387,8.33367526 88.714067,8.26805486 88.714067,7.78247154 L88.714067,5.3414265 C88.714067,5.06582465 88.7534387,4.94770865 88.9240494,4.76397499 M88.8190582,4.33088635 C88.7665626,4.38338195 88.6878192,4.39650584 88.6878192,4.29151466 C88.6878192,3.81905433 88.7403148,3.45158519 88.7403148,3.45158519 C88.7403148,3.39908959 88.6746954,3.3597179 88.5697042,3.3597179 C88.2022332,3.50407987 87.7035233,3.62219586 86.7979752,3.74031094 C86.7717274,3.81905433 86.7979752,4.0290367 86.824223,4.10778009 C87.5329135,4.17339958 87.6772764,4.25214297 87.6772764,5.00020515 L87.6772764,10.6041096 C87.6772764,11.6933913 87.5329135,11.7590126 86.7323557,11.7983843 C86.6536123,11.8771277 86.6536123,12.1527296 86.7323557,12.231473 C87.2835594,12.2183491 87.6247817,12.2052252 88.2022323,12.2052252 C88.8190582,12.2052252 89.2258991,12.2183491 89.7902267,12.231473 C89.8689701,12.1527296 89.8689701,11.8771277 89.7902267,11.7983843 C88.8584299,11.7458887 88.714067,11.6933913 88.714067,10.6041096 L88.714067,9.18672863 C88.714067,9.01611796 88.7534387,9.04236575 88.8978016,9.09486134 C89.2127752,9.22609941 89.619616,9.29171982 90.0395807,9.29171982 C90.774519,9.29171982 91.4307139,9.06861264 91.9687938,8.55678152 C92.585617,7.95308221 92.9399622,7.13939871 92.9399622,6.07636479 C92.9399622,4.68523251 91.9556699,3.39908959 90.6170323,3.39908959 C90.131448,3.39908959 89.4096336,3.72718704 88.8190582,4.33088635 M94.6267932,1.29926591 C94.6267932,1.64048634 94.9417668,1.9817086 95.2567403,1.9817086 C95.6242095,1.9817086 95.939183,1.64048634 95.939183,1.3517615 C95.939183,1.03678795 95.6635812,0.6693188 95.3092359,0.6693188 C94.9942624,0.6693188 94.6267932,0.984292353 94.6267932,1.29926591 M95.821068,7.55936527 L95.821068,4.94770956 C95.821068,4.29151466 95.8735636,3.45158519 95.8735636,3.45158519 C95.8735636,3.39908959 95.8079441,3.3597179 95.7029529,3.3597179 C95.3223598,3.50407987 94.8105278,3.62219586 93.9049788,3.74031094 C93.878731,3.81905433 93.9049788,4.0290367 93.9312266,4.10778009 C94.6399171,4.18652348 94.78428,4.25214297 94.78428,5.00020515 L94.78428,7.55936527 C94.78428,8.64864699 94.6399171,8.68802051 93.8393594,8.75364 C93.760616,8.83238338 93.760616,9.10798524 93.8393594,9.18672863 C94.3905631,9.17360473 94.7317844,9.16048083 95.3092359,9.16048083 C95.8735636,9.16048083 96.201661,9.17360473 96.7659886,9.18672863 C96.844732,9.10798524 96.844732,8.83238338 96.7659886,8.75364 C95.9654308,8.7011444 95.821068,8.64864699 95.821068,7.55936527 M101.536316,7.53311748 C101.536316,7.78247063 101.510068,7.88746272 101.326334,8.0449495 C100.840749,8.46491333 100.420785,8.67489661 100.092687,8.67489661 C99.3839967,8.67489661 98.6490584,7.9005848 98.6490584,6.26009937 C98.6490584,5.31517962 98.8327929,4.79022187 99.0296514,4.51462093 C99.4364923,3.89779772 99.987696,3.85842603 100.250174,3.85842603 C100.722634,3.85842603 101.050732,4.0290367 101.31321,4.33088635 C101.496944,4.54086781 101.536316,4.63273601 101.536316,5.03957685 L101.536316,7.53311748 M101.391953,8.50428593 C101.444449,8.45179034 101.54944,8.42554254 101.54944,8.51740983 C101.54944,8.83238247 101.693803,9.29171982 101.693803,9.29171982 C101.798794,9.33109151 101.838166,9.31796761 101.943157,9.29171982 C102.231883,9.05548965 102.730591,8.85863118 103.531148,8.76676389 C103.609892,8.68802051 103.609892,8.49116203 103.531148,8.41241865 C102.691219,8.34679916 102.573104,8.09744418 102.573104,7.45437409 L102.573104,1.50924828 C102.573104,0.656195814 102.625599,0.13123898 102.625599,0.13123898 C102.625599,0.0393716941 102.573104,2.66453526e-15 102.454989,2.66453526e-15 C102.126891,0.131238069 101.142599,0.314973553 100.617643,0.354345247 C100.591395,0.459336432 100.617643,0.6693188 100.696386,0.748062189 C101.378829,0.787433883 101.536316,0.721815304 101.536316,1.82422183 L101.536316,3.50408078 C101.536316,3.59594806 101.510068,3.62219586 101.418201,3.62219586 C101.365705,3.62219586 100.827625,3.39908959 100.394537,3.39908959 C99.5283595,3.39908959 98.950908,3.68781535 98.4259521,4.18652348 C97.8616245,4.75085018 97.5204031,5.52516199 97.5204031,6.49632953 C97.5204031,8.11056717 98.3340848,9.29171982 99.7514658,9.29171982 C100.263298,9.29171982 100.748882,9.02924094 101.391953,8.50428593 M104.828573,1.29926591 C104.828573,1.64048634 105.143547,1.9817086 105.45852,1.9817086 C105.82599,1.9817086 106.140963,1.64048634 106.140963,1.3517615 C106.140963,1.03678795 105.865361,0.6693188 105.511016,0.6693188 C105.196043,0.6693188 104.828573,0.984292353 104.828573,1.29926591 M106.022848,7.55936527 L106.022848,4.94770956 C106.022848,4.29151466 106.075344,3.45158519 106.075344,3.45158519 C106.075344,3.39908959 106.009724,3.3597179 105.904733,3.3597179 C105.52414,3.50407987 105.012308,3.62219586 104.106759,3.74031094 C104.080511,3.81905433 104.106759,4.0290367 104.133007,4.10778009 C104.841697,4.18652348 104.98606,4.25214297 104.98606,5.00020515 L104.98606,7.55936527 C104.98606,8.64864699 104.841697,8.68802051 104.041139,8.75364 C103.962396,8.83238338 103.962396,9.10798524 104.041139,9.18672863 C104.592343,9.17360473 104.933565,9.16048083 105.511016,9.16048083 C106.075344,9.16048083 106.403441,9.17360473 106.967769,9.18672863 C107.046512,9.10798524 107.046512,8.83238338 106.967769,8.75364 C106.167211,8.7011444 106.022848,8.64864699 106.022848,7.55936527 M109.940122,11.2603045 C110.13698,10.9059593 110.307591,10.5253653 110.478202,10.1316493 C111.528114,7.61186269 112.105565,6.24697365 112.801132,4.77709889 C112.984866,4.39650584 113.378583,3.97654111 113.864168,3.93716941 C113.942911,3.85842603 113.942911,3.58282417 113.864168,3.50408078 C113.53607,3.51720468 113.29984,3.53032857 112.932371,3.53032857 C112.473034,3.53032857 112.22368,3.51720468 111.738096,3.50408078 C111.659353,3.58282417 111.659353,3.85842603 111.738096,3.93716941 C112.144937,3.97654111 112.564902,4.0552845 112.368043,4.52774483 L111.055653,7.53311748 C110.963786,7.75622283 110.858795,7.78247063 110.74068,7.51999358 L109.585777,4.79022279 C109.349547,4.23901907 109.205184,4.0027889 110.005742,3.93716941 C110.084485,3.85842603 110.084485,3.58282417 110.005742,3.50408078 C109.520157,3.51720468 108.995201,3.53032857 108.522741,3.53032857 C108.076529,3.53032857 107.722183,3.51720468 107.459705,3.50408078 C107.380962,3.58282417 107.380962,3.85842603 107.459705,3.93716941 C108.037157,3.98966501 108.142148,4.0946571 108.496493,4.92146177 L109.979494,8.37304695 C110.097609,8.6486479 110.294467,9.23922422 110.163228,9.60669337 C110.018865,10.052905 109.848255,10.4072511 109.651396,10.814092 C109.507033,11.076569 109.323299,11.194685 108.995201,11.194685 C108.811467,11.194685 108.758971,11.1553133 108.614608,11.1553133 C108.234015,11.1553133 108.037157,11.5490303 108.037157,11.719641 C108.037157,11.9952419 108.299635,12.2052252 108.65398,12.2052252 C108.929582,12.2052252 109.454538,12.1002331 109.926998,11.2603045 L109.940122,11.2603045 M117.873929,6.10261259 L117.873929,7.84809103 C117.873929,8.01870079 117.795185,8.11056899 117.690194,8.18931238 C117.348973,8.46491333 116.90276,8.75364 116.535291,8.75364 C115.879096,8.75364 115.59037,8.22868316 115.59037,7.82184323 C115.59037,7.23126782 115.865972,6.6406915 116.837141,6.37821445 L117.873929,6.10261259 M117.873929,8.53053373 C117.952672,8.80613468 118.175778,9.29171982 118.884469,9.29171982 C119.52754,9.29171982 120,8.76676389 120,8.7011444 C120,8.60927712 119.881885,8.47803814 119.829389,8.47803814 C119.750646,8.47803814 119.69815,8.68802051 119.422548,8.68802051 C118.910716,8.68802051 118.897593,8.17618757 118.897593,7.57248917 L118.897593,5.61702836 C118.897593,3.75343666 117.873929,3.39908959 116.915884,3.39908959 C115.839724,3.39908959 114.750441,4.14715178 114.750441,4.85584228 C114.750441,5.17081492 114.907928,5.31517871 115.209777,5.31517871 C115.59037,5.31517871 115.787229,5.05269984 115.787229,4.88209007 C115.787229,4.79022279 115.774105,4.6983555 115.747857,4.64585991 C115.734733,4.60648821 115.721609,4.52774391 115.721609,4.38338195 C115.721609,3.97654111 116.312185,3.83217823 116.810893,3.83217823 C117.257105,3.83217823 117.873929,4.05528541 117.873929,5.53828497 C117.873929,5.63015226 117.834557,5.68264785 117.795185,5.69577175 L116.66653,5.97137361 C115.406636,6.28634625 114.501087,6.98191467 114.501087,7.87433883 C114.501087,8.91112495 115.236025,9.29171982 116.154698,9.29171982 C116.758397,9.29171982 117.007751,9.18672772 117.585203,8.7405161 L117.847681,8.53053373 L117.873929,8.53053373" id="rmy-tagline" fill="#000000" fill-rule="nonzero"></path>
    </g>
</svg>