<?xml version="1.0" encoding="UTF-8" standalone="no"?>
<svg xmlns="http://www.w3.org/2000/svg" width="119" height="17" viewBox="0 0 119 17">
	<path d="M10.748 3.61s-.367-.746-.492-.994C9.422.963 9.44.876 8.597.764c-.236-.03-.358-.06-.358-.178V.063l.071-.05C9.833.01 13.222.01 13.222.01l.13.043v.521c0 .12-.085.18-.258.18l-.356.051c-.9.07-.753.438-.155 1.63l5.677 11.614.194.053 5.04-11.96c.175-.483.148-.825-.077-1.026-.226-.196-.385-.312-.969-.336l-.473-.024a.277.277 0 01-.166-.06.172.172 0 01-.079-.145V.053l.072-.05h5.694l.058.05v.498c0 .135-.077.203-.229.203-.746.033-1.299.195-1.657.484-.359.291-.639.692-.84 1.213 0 0-4.635 10.61-6.221 14.135-.607 1.156-1.204 1.05-1.729-.033-1.109-2.284-4.232-9.213-4.232-9.213z"/>
	<path d="M19.844.004s-3.203-.01-4.629 0l-.071.051v.496a.17.17 0 00.078.146.273.273 0 00.165.06l.229.024c.583.024.851.177.931.273.139.17.208.354-.129 1.09l-5.98 11.926-.157-.04S5.998 4.997 4.758 1.976c-.129-.313-.187-.545-.187-.688 0-.307.277-.473.831-.496l.646-.027c.171 0 .258-.066.258-.203V.067l-.058-.05S1.118.01.058.016L0 .066v.521C0 .682.119.74.358.766c.651.035 1.079.14 1.285.312.205.175.422.617.71 1.306C3.91 6.124 7.218 12.798 8.829 16.6c.464 1.038 1.047 1.2 1.755-.032 1.226-2.274 4.55-9.218 4.55-9.218l2.618-4.896c.305-.517.599-.978.748-1.193.273-.393.426-.467 1.172-.502.152 0 .229-.068.229-.205V.057zm9.939 15.483c0 .572.26.91 1.092.988l.546.053c.078 0 .156.051.156.155v.546l-.026.053s-1.976-.053-2.782-.053c-.728 0-2.756.053-2.756.053l-.052-.053v-.546c0-.104.078-.155.182-.155l.52-.053c.858-.078 1.118-.494 1.118-.988V6.83c0-.57-.313-.729-1.118-.805l-.52-.054c-.104 0-.182-.024-.182-.104v-.599l.026-.052s2.054.052 2.86.052c.702 0 2.704-.052 2.704-.052l.026.052v.572c0 .078-.052.13-.156.13l-.546.053c-.806.077-1.092.286-1.092.807z"/>
	<path style="line-height:125%;-inkscape-font-specification:'Linux Libertine O C';text-align:start" d="M39.611 17.477c2.004 0 3.238-.753 4.445-2.388l-.514-.415c-1.181 1.401-2.08 1.92-3.802 1.92-3.109 0-4.034-2.881-4.034-5.45 0-4.362 2.004-5.374 3.931-5.374 2.235 0 3.366 1.246 3.674 3.063l.668-.078c-.154-1.064-.282-2.155-.308-3.323-.976 0-2.133-.415-4.188-.415-3.391 0-6.012 2.596-6.012 6.386 0 2.985 2.184 6.074 6.14 6.074" font-family="Linux Libertine O C" font-size="25.825" font-weight="400"/>
	<path d="M50.273 15.487c0 .572.26.91 1.092.988l.546.053c.078 0 .156.051.156.155v.546l-.026.053s-1.976-.053-2.782-.053c-.728 0-2.756.053-2.756.053l-.052-.053v-.546c0-.104.078-.155.182-.155l.52-.053c.858-.078 1.118-.494 1.118-.988V6.83c0-.57-.312-.729-1.118-.805l-.52-.054c-.104 0-.182-.024-.182-.104v-.599l.026-.052s2.054.052 2.86.052c.702 0 2.704-.052 2.704-.052l.026.052v.572c0 .078-.052.13-.156.13l-.546.053c-.806.077-1.092.286-1.092.807zm5.918-8.607c0-.806-.338-.832-1.56-.91-.156 0-.182-.077-.182-.13v-.598l.052-.026c.39 0 1.924.052 2.678.052.728 0 1.768-.052 2.73-.052 3.69 0 4.366 1.82 4.366 3.173 0 1.561-.754 4.004-4.444 4.004-.65 0-1.17-.053-1.639-.26v3.482c0 .572.312.703 1.145.832l.521.078c.104.026.182.053.182.156v.546l-.025.052s-2.08-.052-2.886-.052c-.728 0-2.678.052-2.678.052l-.026-.052v-.546c0-.104.052-.13.156-.156l.546-.078c.806-.104 1.066-.338 1.066-.832zm2.002 4.525c.52.21 1.17.234 1.69.234 1.561 0 2.312-.938 2.312-2.938 0-2.236-1.014-2.73-2.442-2.73-1.249 0-1.561.234-1.561.91zm20.738 5.123l.598-.053c.781-.078 1.041-.312 1.041-1.117v-8.58c0-.678-.184-.678-1.041-.754l-.57-.054c-.104 0-.184-.052-.184-.13v-.572l.025-.052s2.289.052 2.758.052c.492 0 2.756-.052 3.432-.052 4.342 0 6.475 2.704 6.475 6.162 0 4.551-3.225 5.901-6.11 5.901-2.08 0-2.989-.052-3.795-.052-.781 0-2.757.052-2.757.052l-.026-.052v-.546a.147.147 0 01.154-.153zm5.799 0c2.859 0 4.473-1.065 4.473-4.707 0-2.703-.599-5.85-4.967-5.85-1.014 0-1.664.155-1.664.807v8.58c0 .726.181 1.17 2.158 1.17zm13.073-1.041c0 .572.26.91 1.092.988l.546.053c.078 0 .156.051.156.155v.546l-.026.053s-1.976-.053-2.781-.053c-.729 0-2.756.053-2.756.053l-.053-.053v-.546c0-.104.078-.155.182-.155l.521-.053c.857-.078 1.118-.494 1.118-.988V6.83c0-.57-.313-.729-1.118-.805l-.521-.054c-.104 0-.182-.024-.182-.104v-.599l.026-.052s2.054.052 2.858.052c.702 0 2.705-.052 2.705-.052l.025.052v.572c0 .078-.053.13-.156.13l-.546.053c-.806.077-1.092.286-1.092.807zm8.11.988l.754.053c.104 0 .208.078.208.207v.494l-.052.053s-2.834-.053-3.458-.053c-.677 0-2.341.053-2.341.053l-.053-.053v-.494c0-.129.078-.207.209-.207 1.145-.078 1.793-.287 2.521-1.95l5.771-13.522c.285-.676.494-.937.885-.937.363 0 .494.261.701.781l5.33 14.092c.365 1.015.885 1.404 1.925 1.508l.286.025c.13 0 .26.078.26.21v.492l-.078.052s-2.002-.052-3.016-.052c-.91 0-3.459.052-3.459.052l-.025-.052v-.493c0-.13.052-.209.184-.209l.728-.052c.987-.077 1.353-.39 1.092-1.118l-1.586-4.395h-5.408c-.624 0-.78.104-.909.441l-1.509 3.771c-.26.652.078 1.225 1.04 1.303zm6.37-6.606l-2.522-6.94h-.052l-2.6 6.603c-.104.261.077.338.649.338h4.525zm-43.43 7.361c-.78 0-2.573.052-2.573.052l-.027-.053v-.572c0-.05.027-.129.156-.129l.599-.053c.807-.078 1.041-.598 1.041-1.117v-8.58c0-.6-.313-.703-1.041-.754l-.599-.054c-.156-.024-.156-.077-.156-.104v-.599l.027-.052s2.027.052 2.807.052h3.822c.78 0 2.627-.052 2.627-.052l.053.052c.025 1.118.207 2.134.39 3.121l-.649.104c-.285-.963-.779-2.34-2.443-2.34h-2.08c-.494 0-.754.182-.754.623v3.771h1.949c.729 0 .91-.312 1.015-.832l.155-.546c0-.078.053-.13.156-.13h.441c.053 0 .053.026.053.077-.053.572-.156 1.301-.156 1.925 0 .65.104 1.196.156 1.794l-.053.053h-.441c-.129 0-.183-.053-.183-.13l-.13-.572c-.104-.52-.338-.807-1.016-.807h-1.948v3.98c0 .492.284.986.754.986h2.47c1.326 0 2.055-.832 2.366-2.185l.649.078-.521 2.99-.052.051s-1.534-.052-2.314-.052z"/>
</svg>
