<?xml version="1.0" encoding="UTF-8"?>
<svg width="119px" height="13px" viewBox="0 0 119 13" version="1.1" xmlns="http://www.w3.org/2000/svg" xmlns:xlink="http://www.w3.org/1999/xlink">
    <title>tl-tagline</title>
    <g id="Page-1" stroke="none" stroke-width="1" fill="none" fill-rule="evenodd">
        <path d="M4.2067042,0.52001 C4.3698442,0.52001 4.4397622,0.66302 4.5213322,0.91002 L4.5213322,0.91002 L6.9101812,7.95602 C7.0733212,8.46302 7.3063802,8.65802 7.7724962,8.71002 L7.7724962,8.71002 L7.889,8.722 L8.1006272,8.69702 C8.4467186,8.66192 8.57571623,8.54258 8.59805484,8.24423 L8.6017022,8.13802 L8.6017022,4.90102 C8.6017022,4.25102 8.5084792,4.12102 8.3453382,4.09502 L8.3453382,4.09502 L7.8442632,4.04302 L7.8209532,3.73102 C8.6366562,3.58802 9.1027742,3.47102 9.4290562,3.32802 C9.4523562,3.32802 9.4756662,3.34102 9.4756662,3.36702 L9.4756892,3.36702 L9.4407292,4.52402 L9.4756892,4.52402 C10.2214752,3.54902 10.7808162,3.36702 11.3751152,3.36702 C12.4238762,3.36702 12.6569362,4.26402 12.6569362,5.42102 L12.6569362,5.42102 L12.6569362,8.13802 C12.6569362,8.51502 12.7851182,8.65802 13.1463592,8.69702 L13.1463592,8.69702 L13.3677642,8.72302 C13.4260302,8.73606 13.4726402,8.76206 13.4726402,8.82706 L13.4726402,8.82706 L13.4726402,9.07406 L13.4493302,9.10006 C12.9832142,9.08706 12.6802372,9.07406 12.2024672,9.07406 C11.7480042,9.07406 11.5149442,9.08706 11.0488282,9.10006 L11.0488282,9.10006 L11.0255182,9.07406 L11.0255182,8.82706 C11.0255182,8.76202 11.0604782,8.73602 11.1187382,8.72302 L11.1187382,8.72302 L11.2818792,8.69702 C11.6547722,8.63202 11.7829552,8.51502 11.7829552,8.13802 L11.7829552,8.13802 L11.7829552,5.33002 C11.7829552,4.42002 11.6431182,3.99102 11.0255152,3.99102 C10.5127872,3.99102 10.0699742,4.21202 9.4756772,4.99202 L9.4756772,4.99202 L9.4756772,8.13802 C9.4756772,8.51502 9.5922062,8.63202 9.9767522,8.69702 L9.9767522,8.69702 L10.1398932,8.72302 C10.1981632,8.73606 10.2331232,8.76206 10.2331232,8.82706 L10.2331232,8.82706 L10.2331232,9.07406 L10.2098132,9.10006 C9.7436962,9.08706 9.4989832,9.07406 9.0212152,9.07406 C8.5667512,9.07406 8.2754282,9.08706 7.8093112,9.10006 L7.998,9.094 C7.96312466,9.09913213 7.93223237,9.09820427 7.90122135,9.09728113 L7.8093112,9.10006 C7.43182256,9.08359652 7.03971254,9.07406 6.6305072,9.07406 C6.1760442,9.07406 5.5118262,9.08706 5.0806682,9.10006 L5.0806682,9.10006 L5.0690182,9.07406 L5.0690182,8.82706 C5.0690182,8.76202 5.0923282,8.72302 5.1505882,8.72302 L5.1505882,8.72302 L5.4768702,8.69702 C5.9196822,8.65802 6.0828222,8.50202 5.9662922,8.13802 L5.9662922,8.13802 L5.2554642,5.94102 L2.8316562,5.94102 C2.5519872,5.94102 2.4820652,5.99302 2.4238052,6.16202 L2.4238052,6.16202 L1.747946,8.04702 C1.6197644,8.39802 1.7829056,8.65802 2.2140632,8.69702 L2.2140632,8.69702 L2.5519972,8.72302 C2.5986072,8.72302 2.6452172,8.76206 2.6452172,8.82706 L2.6452172,8.82706 L2.6452172,9.07406 L2.6219072,9.10006 C2.1907482,9.08706 1.5731434,9.07406 1.0953746,9.07406 C0.6409111,9.07406 0.4544636,9.08706 0.023306,9.10006 L0.023306,9.10006 L0,9.07406 L0,8.82706 C0,8.76202 0.034959,8.72302 0.093223,8.72302 C0.6059509,8.68402 0.9205806,8.55402 1.2235561,7.74802 L1.2235561,7.74802 L3.8105042,0.98802 C3.9503392,0.63702 4.0319092,0.52001 4.2067042,0.52001 Z M3.9386852,1.92402 L3.9153752,1.92402 L2.7500832,5.22602 C2.7034712,5.35602 2.7850422,5.39502 3.0414052,5.39502 L3.0414092,5.39502 L5.0690172,5.39502 L3.9386852,1.92402 Z M16.6921292,5.44702 C16.6921292,6.65602 16.1560942,6.90302 15.7482422,6.90302 C14.8160102,6.90302 14.6994802,5.98002 14.6994802,5.14802 C14.6994802,4.23803 14.9908032,3.77002 15.5967552,3.77002 C16.2959292,3.77002 16.6921292,4.36802 16.6921292,5.44702 M14.5946042,9.20402 C14.7227852,9.24302 14.8975792,9.26902 15.0374152,9.26902 C15.3870022,9.26902 15.6783252,9.23002 15.8414662,9.23002 C16.4008052,9.23002 16.8785762,9.24302 17.2048582,9.45102 C17.6360152,9.73702 17.7758512,9.91902 17.7758512,10.25702 C17.7758512,11.19302 16.5755982,11.68701 15.5734492,11.68701 C15.1772502,11.68701 14.2450162,11.31002 14.2450162,10.42602 C14.2450162,9.98402 14.2683262,9.65902 14.5946042,9.20402 M18.0904792,4.03002 C18.3235382,4.03002 18.4866792,3.84802 18.4866792,3.56202 C18.4866792,3.28902 18.2769262,3.06802 17.9739502,3.06802 C17.6826282,3.06802 17.1582452,3.28902 16.8669232,3.73102 C16.7387412,3.62698 16.3541942,3.36702 15.7016312,3.36702 C14.7111332,3.36702 13.7905522,4.14702 13.7905522,5.34302 C13.7905522,6.04502 14.0585692,6.44802 14.3731982,6.79902 C14.0585692,7.11102 13.8837752,7.67002 13.8837752,8.11202 C13.8837752,8.58002 14.0935282,8.94402 14.3848512,9.11302 C13.7905522,9.52902 13.4759242,10.12702 13.4759242,10.68602 C13.4759242,11.81701 14.3965052,12.16802 15.2471672,12.16802 C16.7503932,12.16802 18.3818022,11.32302 18.3818022,9.91902 C18.3818022,9.50302 18.2186612,9.17802 17.8923792,8.86602 C17.4612222,8.45002 16.6571702,8.43702 16.2493182,8.43702 C16.0512192,8.43702 15.7832012,8.46302 15.5151842,8.50202 C15.3520442,8.51502 15.2355142,8.52802 15.1772492,8.52802 C14.8509682,8.52802 14.4664212,8.34602 14.4664212,7.78701 C14.4664212,7.52702 14.5363412,7.25401 14.6645212,7.03301 C14.9325382,7.21502 15.2588212,7.30601 15.6899782,7.30601 C16.6688222,7.30601 17.5777512,6.59102 17.5777512,5.31701 C17.5777512,4.70602 17.4262622,4.35502 17.0999812,3.96502 C17.1815512,3.83502 17.4029582,3.65301 17.5427922,3.65301 C17.6243622,3.65301 17.6709752,3.69201 17.7408922,3.80902 C17.7875022,3.91305 17.9040332,4.03002 18.0904792,4.03002 M22.5792772,3.36702 C22.5792772,3.34102 22.5559672,3.32802 22.5326672,3.32802 C22.1947332,3.47102 21.7519212,3.58802 20.9245642,3.73102 L20.9478742,4.04302 L21.4489502,4.09502 C21.6120902,4.12102 21.7053142,4.25102 21.7053142,4.90102 L21.7053142,8.13802 C21.7053142,8.51502 21.6004372,8.64502 21.2042382,8.69702 L20.9828332,8.72302 C20.9245732,8.73602 20.8896032,8.76202 20.8896032,8.82706 L20.8896032,9.07406 L20.9129132,9.10006 C21.3790292,9.08706 21.6703532,9.07406 22.1248162,9.07406 C22.6025852,9.07406 22.8472982,9.08706 23.3134152,9.10006 L23.3367252,9.07406 L23.3367252,8.82706 C23.3367252,8.76206 23.2901152,8.73606 23.2434952,8.72302 L23.0803552,8.69702 C22.7540742,8.64502 22.5792802,8.51502 22.5792802,8.13802 L22.5792802,4.91402 C23.1269662,4.27702 23.5581252,3.99102 23.9659772,3.99102 C24.4087872,3.99102 24.7350692,4.30302 24.7350692,5.17402 L24.7350692,8.13802 C24.7350692,8.51502 24.5835812,8.64502 24.2456472,8.69702 L24.0708542,8.72302 C24.0125942,8.73602 23.9776342,8.76202 23.9776342,8.82706 L23.9776342,9.07406 L24.0009442,9.10006 C24.4670612,9.08706 24.7001192,9.07406 25.1545832,9.07406 C25.6323522,9.07406 25.8770652,9.08706 26.3431812,9.10006 L26.3664912,9.07406 L26.3664912,8.82706 C26.3664912,8.76206 26.3198812,8.73606 26.2616152,8.72302 L26.1217802,8.69702 C25.7838462,8.63202 25.6090512,8.51502 25.6090512,8.13802 L25.6090512,5.42102 C25.6090512,5.23901 25.6090512,5.05702 25.5974012,4.90102 C26.1567412,4.21202 26.5645942,3.99102 27.0190572,3.99102 C27.4618682,3.99102 27.7881502,4.27702 27.7881502,5.14802 L27.7881502,8.13802 C27.7881502,8.51502 27.5900502,8.64502 27.2870742,8.69702 L27.1239332,8.72302 C27.0656732,8.73602 27.0307132,8.76202 27.0307132,8.82706 L27.0307132,9.07406 L27.0540232,9.10006 C27.5201392,9.08706 27.7531982,9.07406 28.2076612,9.07406 C28.6737782,9.07406 28.9884082,9.08706 29.4545242,9.10006 L29.4778342,9.07406 L29.4778342,8.82706 C29.4778342,8.76206 29.4312242,8.72302 29.3846142,8.72302 L29.1632082,8.69702 C28.7786632,8.65802 28.6621332,8.51502 28.6621332,8.13802 L28.6621332,5.43402 C28.6621332,4.27702 28.4640322,3.36702 27.4385762,3.36702 C26.8093202,3.36702 26.1917132,3.66602 25.5274982,4.44602 C25.4459282,3.86102 25.0380752,3.36702 24.3855122,3.36702 C23.6630312,3.36702 23.1269952,3.80902 22.5793092,4.45902 L22.5443492,4.45902 L22.5793092,3.36702 M35.6668202,1.99999999e-05 C35.7716972,1.99999999e-05 35.8183072,0.03902 35.8183072,0.13002 C35.8183072,0.13002 35.7833572,0.65003 35.7833572,1.49502 L35.7833572,8.13802 C35.7833572,8.51502 35.8882332,8.65802 36.2727792,8.69702 L36.2727792,8.69702 L36.5524492,8.72302 C36.5990692,8.72302 36.6456792,8.76206 36.6456792,8.82706 L36.6456792,8.82706 L36.6456792,9.07406 L36.6223692,9.10006 C36.0397252,9.08706 35.8066652,9.07406 35.3288962,9.07406 L35.1677353,9.07464398 C34.8107052,9.07731 34.5685426,9.088685 34.0587282,9.10006 L34.0587282,9.10006 L34.0470782,9.07406 L34.0488879,8.93306954 C33.8782831,9.07224181 33.6351366,9.20402 33.3476942,9.20402 C32.7300912,9.20402 32.5436462,8.72302 32.4737262,8.45002 L32.4737322,8.45002 L32.4504222,8.45002 L32.2173632,8.65802 C31.7046362,9.09998 31.4832292,9.20402 30.9471952,9.20402 C30.1314922,9.20402 29.5022342,8.82702 29.5022342,7.80002 C29.5022342,6.91602 30.2829802,6.22702 31.4016592,5.91502 L31.4016592,5.91502 L32.4038102,5.64202 C32.4387802,5.62902 32.4737302,5.57702 32.4737302,5.48602 C32.4737302,4.01702 31.9260422,3.75702 31.5298432,3.75702 C31.0870322,3.75702 30.5626512,3.93902 30.5626512,4.34202 C30.5626512,4.48502 30.5743112,4.56302 30.5859612,4.60202 C30.6092612,4.65402 30.6209112,4.74503 30.6209112,4.83603 C30.6209112,5.00502 30.4461172,5.26502 30.1081832,5.26502 C29.8401662,5.26502 29.7003302,5.12202 29.7003302,4.81002 C29.7003302,4.10803 30.6675242,3.36702 31.6230632,3.36702 C32.4737252,3.36702 33.3360412,3.71803 33.3360412,5.56402 L33.3360412,5.56402 L33.3363243,7.61961467 C33.3395631,8.16771778 33.3779927,8.63202 33.8021582,8.63202 C34.0818282,8.63202 34.1167842,8.42403 34.1867042,8.42403 C34.2333172,8.42403 34.3148872,8.52802 34.3148872,8.61902 C34.3148872,8.63253064 34.2977697,8.66569914 34.2655231,8.70976979 L34.4083182,8.69702 C34.7928642,8.65802 34.9093942,8.51502 34.9093942,8.13802 L34.9093872,8.13811 L34.9093872,1.75511 C34.9093872,0.91012 34.7928572,0.74111 34.5598002,0.74111 L34.5598002,0.74111 L34.1869062,0.71511 C34.1519462,0.71511 34.1169862,0.68901 34.1169862,0.65001 L34.1169862,0.65001 L34.0936762,0.33802 C34.5714452,0.29902 35.3754972,0.13002 35.6668202,1.99999999e-05 Z M32.4737262,6.04502 L31.5531442,6.31802 C30.6908302,6.57802 30.4228122,7.16303 30.4228122,7.74802 C30.4228122,8.15102 30.7024832,8.67102 31.2851272,8.67102 C31.6114092,8.67102 32.0076092,8.38502 32.3105842,8.11202 C32.4038062,8.03402 32.4737262,7.94302 32.4737262,7.77402 L32.4737262,7.77402 L32.4737262,6.04502 Z M46.7677472,3.47102 L46.8027072,3.49708 L46.8027072,3.74408 C46.8027072,3.80912 46.7560952,3.83512 46.6745252,3.84812 C46.2433672,3.88713 46.0103082,4.35513 45.8471672,4.73212 C45.2295642,6.18812 44.7168332,7.52712 43.7846012,10.03612 C43.4350142,10.97212 42.9922022,12.09012 42.1648452,12.09012 C41.9434402,12.09012 41.4889762,11.94713 41.4889762,11.47913 C41.4889762,11.08912 41.7453402,10.97212 41.9317872,10.97212 C42.1065802,10.97212 42.2231072,11.05008 42.2930272,11.15412 C42.4095562,11.28412 42.4911272,11.37512 42.6076562,11.37512 C42.7824502,11.37512 43.2136082,10.23112 43.5049312,9.43812 C43.5748412,9.28213 43.5981512,9.15213 43.5981512,9.03512 C43.5981512,8.92369143 43.5210965,8.64990286 43.4403767,8.41021353 L43.4000512,8.29412 L41.9317842,4.48513 C41.7453372,3.99112 41.6055022,3.88712 41.2209562,3.84812 C41.1685162,3.838295 41.1291881,3.82121375 41.1128015,3.79134969 L41.1044262,3.75702 L41.1044262,3.49702 L41.1277362,3.47102 C41.3607942,3.48402 41.7103822,3.49702 42.1065812,3.49702 C42.3862512,3.49702 42.6659216,3.49124222 42.9490444,3.48353852 L43.3767492,3.47102 L43.4000592,3.51002 L43.4000482,3.74404 C43.4000482,3.80908 43.3301272,3.84808 43.2718672,3.84808 C42.8631112,3.88408923 42.6926675,3.97546604 42.8063435,4.33696377 L42.8407082,4.43309 L44.1225292,7.78708 L45.4160042,4.48509 C45.6723682,3.96509 45.3227802,3.88708 44.9615392,3.84808 C44.9178382,3.84808 44.8741417,3.833455 44.8550248,3.79872063 L44.8450112,3.75708 L44.8450112,3.51008 L44.8683212,3.47102 C45.2994792,3.48408 45.5558442,3.49708 45.9636952,3.49708 C46.2899772,3.49708 46.4764242,3.48408 46.7677472,3.47102 Z M38.8319072,3.36702 C39.6498514,3.36702 40.4785714,3.69154848 40.5411091,5.35759059 L40.5448862,5.56402 L40.5448862,7.50102 C40.5448862,8.09902 40.5565392,8.63202 41.0110022,8.63202 C41.2906722,8.63202 41.3256292,8.42403 41.3955492,8.42403 C41.4421612,8.42403 41.5237312,8.52802 41.5237312,8.61902 C41.5237312,8.68402 41.1275312,9.20402 40.5565392,9.20402 C39.9864432,9.20402 39.7837253,8.79417385 39.7009173,8.5163987 L39.6825772,8.45002 L39.6592672,8.45002 L39.4262082,8.65802 C38.9134812,9.09998 38.6920742,9.20402 38.1560402,9.20402 C37.3403372,9.20402 36.7110792,8.82702 36.7110792,7.80002 C36.7110792,6.96802 37.4026743,6.30875356 38.4166883,5.97395527 L38.6105042,5.91502 L39.6126552,5.64202 C39.6476252,5.62902 39.6825752,5.57702 39.6825752,5.48602 C39.6825752,4.01702 39.1348882,3.75702 38.7386892,3.75702 C38.2958772,3.75702 37.7714962,3.93902 37.7714962,4.34202 C37.7714962,4.48502 37.7831562,4.56302 37.7948062,4.60202 C37.8181062,4.65402 37.8297562,4.74503 37.8297562,4.83603 C37.8297562,5.00502 37.6549612,5.26502 37.3170272,5.26502 C37.0490102,5.26502 36.9091752,5.12202 36.9091752,4.81002 C36.9091752,4.10803 37.8763682,3.36702 38.8319072,3.36702 Z M52.9755382,3.32802 C52.9910715,3.32802 53.0066093,3.33379778 53.0152419,3.34535333 L53.0221712,3.36702 L52.9872212,4.52402 L53.0221712,4.52402 C53.7679572,3.54902 54.3272982,3.36702 54.9215972,3.36702 C55.9226882,3.36702 56.1805448,4.18432785 56.2019179,5.26491867 L56.2034172,5.42102 L56.2034172,8.13802 C56.2034172,8.47732 56.3072454,8.62708 56.591355,8.68207 L56.6928402,8.69702 L56.9142462,8.72302 C56.9579465,8.7328 56.9950896,8.74987 57.01093,8.78521562 L57.0191232,8.82706 L57.0191232,9.07406 L56.9958132,9.10006 C56.5296962,9.08706 56.2267192,9.07406 55.7489502,9.07406 C55.3853798,9.07406 55.163508,9.08238 54.8506501,9.092364 L54.5953112,9.10006 L54.5720012,9.07406 L54.5720012,8.82706 C54.5720012,8.77828 54.5916718,8.75146 54.6260856,8.73561437 L54.6652312,8.72302 L54.8283712,8.69702 C55.1639749,8.63852 55.3013635,8.5379 55.3254852,8.243528 L55.3294472,8.13802 L55.3294472,5.33002 C55.3294472,4.42002 55.1896112,3.99102 54.5720072,3.99102 C54.0959036,3.99102 53.6800829,4.18157612 53.1472808,4.83331009 L53.0221692,4.99202 L53.0221692,8.13802 C53.0221692,8.47732 53.1165577,8.60602 53.4157694,8.675752 L53.5232442,8.69702 L53.6863862,8.72302 C53.7300887,8.7328 53.7606737,8.74987 53.7732348,8.78521562 L53.7796062,8.82706 L53.7796062,9.07406 L53.7562962,9.10006 C53.2901802,9.08706 53.0454682,9.07406 52.5676992,9.07406 C52.204128,9.07406 51.9449664,9.08238 51.6171932,9.092364 L51.3557952,9.10006 L51.3324852,9.07406 L51.333828,8.93344225 C51.1632462,9.07247699 50.9202775,9.20402 50.6330922,9.20402 C50.0629962,9.20402 49.8602783,8.79417385 49.7774703,8.5163987 L49.7591292,8.45002 L49.7358192,8.45002 L49.5027602,8.65802 C48.9900332,9.09998 48.7686262,9.20402 48.2325922,9.20402 C47.4168892,9.20402 46.7876312,8.82702 46.7876312,7.80002 C46.7876312,6.96802 47.4792263,6.30875356 48.4932403,5.97395527 L48.6870562,5.91502 L49.6892072,5.64202 C49.7241672,5.62902 49.7591272,5.57702 49.7591272,5.48602 C49.7591272,4.01702 49.2114392,3.75702 48.8152412,3.75702 C48.3724292,3.75702 47.8480482,3.93902 47.8480482,4.34202 C47.8480482,4.48502 47.8597082,4.56302 47.8713582,4.60202 C47.8946582,4.65402 47.9063082,4.74503 47.9063082,4.83603 C47.9063082,5.00502 47.7315142,5.26502 47.3935802,5.26502 C47.1255632,5.26502 46.9857282,5.12202 46.9857282,4.81002 C46.9857282,4.10803 47.9529212,3.36702 48.9084602,3.36702 C49.7264044,3.36702 50.5551234,3.69154848 50.6176611,5.35759059 L50.6214382,5.56402 L50.6217213,7.61961467 C50.6249601,8.16771778 50.6633897,8.63202 51.0875552,8.63202 C51.3672252,8.63202 51.4021822,8.42403 51.4721022,8.42403 C51.5187142,8.42403 51.6002842,8.52802 51.6002842,8.61902 C51.6002842,8.63231787 51.5837016,8.66465934 51.5524323,8.70769586 L51.6471102,8.69702 C51.9932016,8.66192 52.1222,8.54258 52.1445388,8.24423 L52.1481862,8.13802 L52.1481862,4.90102 C52.1481862,4.30102 52.0687536,4.14409692 51.9282184,4.1030555 L51.8918222,4.09502 L51.3907462,4.04302 L51.3674362,3.73102 C52.1831392,3.58802 52.6492572,3.47102 52.9755382,3.32802 Z M39.6825702,6.04502 L38.7619892,6.31802 C37.8996742,6.57802 37.6316562,7.16303 37.6316562,7.74802 C37.6316562,8.15102 37.9113272,8.67102 38.4939722,8.67102 C38.8202542,8.67102 39.2164542,8.38502 39.5194292,8.11202 C39.594006,8.04962 39.6536702,7.9789 39.6745528,7.86658 L39.6825702,7.77402 L39.6825702,6.04502 Z M49.7591232,6.04502 L48.8385422,6.31802 C47.9762272,6.57802 47.7082092,7.16303 47.7082092,7.74802 C47.7082092,8.15102 47.9878802,8.67102 48.5705252,8.67102 C48.8968072,8.67102 49.2930072,8.38502 49.5959822,8.11202 C49.670559,8.04962 49.7302232,7.9789 49.7511058,7.86658 L49.7591232,7.77402 L49.7591232,6.04502 Z M60.2386102,5.44702 C60.2386102,6.65602 59.7025752,6.90302 59.2947242,6.90302 C58.3624912,6.90302 58.2459612,5.98002 58.2459612,5.14802 C58.2459612,4.23803 58.5372852,3.77002 59.1432352,3.77002 C59.8424102,3.77002 60.2386102,4.36802 60.2386102,5.44702 M58.1410842,9.20402 C58.2692672,9.24302 58.4440612,9.26902 58.5838952,9.26902 C58.9334832,9.26902 59.2248062,9.23002 59.3879472,9.23002 C59.9472872,9.23002 60.4250582,9.24302 60.7513382,9.45102 C61.1824972,9.73702 61.3223322,9.91902 61.3223322,10.25702 C61.3223322,11.19302 60.1220802,11.68701 59.1199302,11.68701 C58.7237312,11.68701 57.7914972,11.31002 57.7914972,10.42602 C57.7914972,9.98402 57.8148072,9.65902 58.1410842,9.20402 M61.6369612,4.03002 C61.8700182,4.03002 62.0331592,3.84802 62.0331592,3.56202 C62.0331592,3.28902 61.8234072,3.06802 61.5204312,3.06802 C61.2291092,3.06802 60.7047272,3.28902 60.4134042,3.73102 C60.2852222,3.62698 59.9006742,3.36702 59.2481122,3.36702 C58.2576152,3.36702 57.3370332,4.14702 57.3370332,5.34302 C57.3370332,6.04502 57.6050512,6.44802 57.9196802,6.79902 C57.6050512,7.11102 57.4302572,7.67002 57.4302572,8.11202 C57.4302572,8.58002 57.6400102,8.94402 57.9313322,9.11302 C57.3370342,9.52902 57.0224042,10.12702 57.0224042,10.68602 C57.0224042,11.81701 57.9429862,12.16802 58.7936482,12.16802 C60.2968732,12.16802 61.9282832,11.32302 61.9282832,9.91902 C61.9282832,9.50302 61.7651422,9.17802 61.4388612,8.86602 C61.0077032,8.45002 60.2036512,8.43702 59.7957992,8.43702 C59.5977002,8.43702 59.3296822,8.46302 59.0616652,8.50202 C58.8985252,8.51502 58.7819952,8.52802 58.7237312,8.52802 C58.3974492,8.52802 58.0129032,8.34602 58.0129032,7.78701 C58.0129032,7.52702 58.0828232,7.25401 58.2110022,7.03301 C58.4790192,7.21502 58.8053012,7.30601 59.2364592,7.30601 C60.2153032,7.30601 61.1242322,6.59102 61.1242322,5.31701 C61.1242322,4.70602 60.9727442,4.35502 60.6464622,3.96502 C60.7280322,3.83502 60.9494382,3.65301 61.0892732,3.65301 C61.1708432,3.65301 61.2174552,3.69201 61.2873722,3.80902 C61.3339822,3.91305 61.4505142,4.03002 61.6369612,4.03002 M65.4265862,5.34302 C65.6363372,3.87402 66.4986542,3.80902 66.7666712,3.80902 C67.1861762,3.80902 67.7338632,4.06902 67.7338632,5.16102 C67.7338632,5.27802 67.6872532,5.34302 67.5707232,5.34302 L65.4265862,5.34302 M68.5029562,7.83902 C68.0951042,8.33302 67.6872512,8.56702 67.0463412,8.56702 C66.3937782,8.56702 65.3916272,7.78702 65.3916272,5.85002 L68.4563442,5.85002 C68.5845272,5.85002 68.6660972,5.77202 68.6660972,5.62902 C68.6660972,4.53702 68.3048552,3.36702 66.7666712,3.36702 C65.6596452,3.36702 64.4593932,4.51103 64.4593932,6.48702 C64.4593932,7.98202 65.1702222,9.20402 66.7666712,9.20402 C67.6056802,9.20402 68.2932042,8.72302 68.7360142,8.04702 C68.7010542,7.91702 68.6311382,7.85202 68.5029562,7.83902 M70.4441052,3.36702 C70.4441052,3.34102 70.4207952,3.32802 70.3974952,3.32802 C70.0712132,3.47102 69.6050952,3.58802 68.7893922,3.73102 L68.8127022,4.04302 L69.3137772,4.09502 C69.4769182,4.12102 69.5701422,4.25102 69.5701422,4.90102 L69.5701422,8.13802 C69.5701422,8.51502 69.4536122,8.65802 69.0690662,8.69702 L68.8476602,8.72302 C68.7894002,8.73602 68.7544402,8.76202 68.7544402,8.82706 L68.7544402,9.07406 L68.7777502,9.10006 C69.2438662,9.08706 69.5351892,9.07406 69.9896532,9.07406 C70.4674222,9.07406 70.7121352,9.08706 71.1782512,9.10006 L71.2015612,9.07406 L71.2015612,8.82706 C71.2015612,8.76206 71.1666112,8.73606 71.1083412,8.72302 L70.9452002,8.69702 C70.5606542,8.63202 70.4441242,8.51502 70.4441242,8.13802 L70.4441242,4.99202 C71.0384232,4.21202 71.4812352,3.99102 71.9939632,3.99102 C72.6115672,3.99102 72.7514032,4.42002 72.7514032,5.33002 L72.7514032,8.13802 C72.7514032,8.51502 72.6232202,8.63202 72.2503272,8.69702 L72.0871862,8.72302 C72.0289162,8.73602 71.9939662,8.76202 71.9939662,8.82706 L71.9939662,9.07406 L72.0172762,9.10006 C72.4833922,9.08706 72.7164512,9.07406 73.1709162,9.07406 C73.6486842,9.07406 73.9516612,9.08706 74.4177772,9.10006 L74.4410872,9.07406 L74.4410872,8.82706 C74.4410872,8.76206 74.3944772,8.73606 74.3362112,8.72302 L74.1148052,8.69702 C73.7535652,8.65802 73.6253832,8.51502 73.6253832,8.13802 L73.6253832,5.42102 C73.6253832,4.26402 73.3923232,3.36702 72.3435612,3.36702 C71.7492642,3.36702 71.1899222,3.54902 70.4441362,4.52402 L70.4091862,4.52402 L70.4441362,3.36702 M74.5725422,7.25402 C74.6191532,7.89101 74.6541132,8.52802 74.6541132,9.07402 C74.7706422,9.04802 74.8638662,9.03502 74.9221302,9.03502 C75.0037002,9.03502 75.0619652,9.03502 75.1435362,9.06102 C75.4465112,9.15202 75.7844472,9.20402 76.1922992,9.20402 C76.7399852,9.20402 77.9635422,8.85302 77.9635422,7.56602 C77.9635422,6.52602 77.2061022,6.05802 76.2622162,5.66802 C75.6213062,5.40802 75.4348592,5.14802 75.4348592,4.62802 C75.4348592,3.91302 75.9126292,3.75702 76.3554392,3.75702 C76.6001502,3.75702 77.2061032,3.96502 77.4508132,5.03103 L77.7654432,5.01803 C77.7421332,4.55003 77.7071832,4.10803 77.6372602,3.69203 C77.2760202,3.48403 76.9380852,3.36704 76.3554392,3.36704 C75.4348602,3.36704 74.7240312,3.95203 74.7240312,4.82303 C74.7240312,5.79803 75.1318842,6.07103 75.9825462,6.48703 C76.9031252,6.94203 77.1827962,7.30603 77.1827962,7.86503 C77.1827962,8.50203 76.5768452,8.84003 76.1689932,8.84003 C75.7378352,8.84003 75.4232062,8.60603 75.3066762,8.46303 C75.0386602,8.16403 74.9221302,7.56603 74.8871722,7.24103 L74.5725422,7.25403 M85.8879409,9.09469617 L85.8817512,9.10006 L85.798,9.097 L85.6645742,9.10006 L85.66,9.091 L85.3908712,9.08215 C85.2320999,9.07727 85.0718722,9.07402 84.8912522,9.07402 C84.5999297,9.07402 84.4138065,9.08304778 84.2249862,9.09360333 L84.1105072,9.10006 L84.0755572,9.07402 L84.0755572,8.82701 C84.0755572,8.67679667 84.0479353,8.53684704 83.878113,8.24282246 L83.8075402,8.12502 L82.9568772,6.78602 C82.7497136,6.45090889 82.5977939,6.34177309 82.3619861,6.32165786 L82.2693542,6.31802 L82.2693542,8.13802 C82.2693542,8.63202 82.4907602,8.68402 82.7937362,8.72302 C82.8287012,8.72302 82.8636606,8.74498 82.8789549,8.78338187 L82.8869662,8.82706 L82.8869662,9.07406 L82.8636562,9.10006 C82.4741165,9.08891714 82.3328541,9.07777429 81.9995734,9.07481802 L81.6567369,9.07464398 C81.3560458,9.07697675 81.1740378,9.08597733 80.7916983,9.09581138 L80.645,9.099 L80.6446642,9.10006 L80.6146432,9.10006 L80.6146432,9.10006 C80.1625691,9.08645475 79.8301822,9.07406 79.3978012,9.07406 C79.062198,9.07406 78.7862562,9.08238 78.4506523,9.092364 L78.1858982,9.10006 L78.1625882,9.07406 L78.1625882,8.82706 C78.1625882,8.77828 78.1822532,8.75146 78.2166641,8.73561437 L78.2558082,8.72302 L78.4772142,8.69702 C78.8373942,8.64974727 78.956813,8.53801174 78.9755489,8.23484119 L78.9782892,8.13802 L78.9782892,4.90102 C78.9782892,4.30102 78.8988557,4.14409692 78.7583212,4.1030555 L78.7219252,4.09502 L78.2208492,4.04302 L78.1975392,3.73102 C79.0248952,3.58802 79.5143192,3.47102 79.8406002,3.32802 C79.8639002,3.32802 79.8872102,3.34102 79.8872102,3.36702 C79.8872195,3.36702 79.8567748,4.13708222 79.8527155,4.76823126 L79.8522702,8.13802 C79.8522702,8.47732 79.9560984,8.62708 80.240208,8.68207 L80.3416932,8.69702 L80.5630992,8.72302 C80.5856107,8.72805818 80.6063823,8.73503099 80.6233981,8.74544029 L80.6355794,8.73561437 L80.6729032,8.72302 L80.8943092,8.69702 C81.2404006,8.66192 81.3693982,8.54258 81.3917368,8.24423 L81.3953842,8.13802 L81.3954002,1.75509 C81.3954002,0.966423333 81.2938905,0.766627778 81.0908711,0.743493556 L81.0458132,0.74109 L80.6729192,0.71509 C80.6466917,0.71509 80.6204754,0.70040875 80.6090065,0.676615 L80.6029992,0.64999 L80.5796892,0.338 C81.0458052,0.299 81.8615102,0.12999 82.1528332,0 C82.2577102,0 82.3043202,0.03899 82.3043202,0.12999 C82.3043202,0.12999 82.2741761,0.578365969 82.2698698,1.31897398 L82.2693602,5.993 C82.5723362,5.91499 83.1666362,5.33 83.7958932,4.563 C83.9240742,4.42 84.3435792,3.88699 83.6444042,3.84799 C83.6007017,3.84799 83.5701167,3.81872312 83.5575556,3.78215219 L83.5511842,3.74396 L83.5511842,3.49696 C83.5511842,3.49696 83.5861342,3.48396 83.5861342,3.47096 C84.0172922,3.48396 84.1804342,3.49696 84.6232442,3.49696 C84.9728309,3.49696 85.1443891,3.48793222 85.4413765,3.47739981 L85.6370482,3.47096 L85.6836582,3.49696 L85.6836582,3.74396 C85.6836582,3.7927325 85.6443271,3.81955062 85.6000831,3.83539578 L85.5554762,3.84799 L85.4739062,3.86099 C85.1986067,3.90648125 84.7716361,4.08137844 84.4740314,4.35082553 L84.3552262,4.47199 L83.4696052,5.56399 C83.4346552,5.60299 83.4229952,5.64199 83.4229952,5.69399 C83.4229952,5.73732333 83.4333552,5.78065667 83.4506174,5.82013815 L83.4812552,5.87599 L84.8446472,8.12499 C85.0281802,8.432115 85.3366188,8.60984172 85.6060237,8.68431051 L85.7186152,8.70998 L85.78,8.719 L86.0141542,8.69702 C86.3602456,8.66192 86.489244,8.54258 86.5115828,8.24423 L86.5151712,8.13811 L86.5151712,1.75511 C86.5151712,0.91012 86.3986412,0.74111 86.1655822,0.74111 L86.1655822,0.74111 L85.7926892,0.71511 C85.7577192,0.71511 85.7227692,0.68901 85.7227692,0.65001 L85.7227692,0.65001 L85.6994592,0.33802 C86.1772282,0.29902 86.9812772,0.13002 87.2725992,1.99999999e-05 C87.3775122,1.99999999e-05 87.4240922,0.03902 87.4240922,0.13002 C87.4240922,0.13002 87.3891522,0.65003 87.3891522,1.49502 L87.3891522,8.13802 C87.3891522,8.51502 87.4940262,8.65802 87.8785672,8.69702 L87.8785672,8.69702 L88.1582442,8.72302 C88.2049242,8.72302 88.2515042,8.76206 88.2515042,8.82706 L88.2515042,8.82706 L88.2515042,9.07406 L88.2282142,9.10006 C87.6455702,9.08706 87.4125122,9.07406 86.9347422,9.07406 L86.7735817,9.07464398 C86.5695648,9.07616742 86.4030555,9.08053461 86.2026798,9.08612055 L85.8879409,9.09469617 L85.8879409,9.09469617 Z M79.3511762,1.04002 C79.6541512,1.04002 79.9105162,1.32602 79.9105162,1.66402 C79.9105162,2.00202 79.6541512,2.28802 79.3511762,2.28802 C79.0482002,2.28802 78.7918362,2.00202 78.7918362,1.66402 C78.7918362,1.32602 79.0482002,1.04002 79.3511762,1.04002 Z M88.3169082,6.40902 C88.3169082,7.73502 89.1442642,9.20402 90.7057572,9.20402 C92.3604722,9.20402 93.1179022,7.59202 93.1179022,6.29202 C93.1179022,4.94002 92.4536922,3.36702 90.7290672,3.36702 C89.1792282,3.36702 88.3169082,4.62802 88.3169082,6.40902 M90.6008832,3.79602 C91.5564232,3.79602 92.1274122,4.79702 92.1274122,6.70802 C92.1274122,8.42401 91.4282392,8.77502 90.9038602,8.77502 C89.7502172,8.77502 89.3074022,7.11102 89.3074022,6.11002 C89.3074022,4.97902 89.6686432,3.79602 90.6008832,3.79602 M94.8101622,5.03102 C95.0665222,4.34202 95.6258722,3.96502 96.0220622,3.96502 C96.7328922,3.96502 97.3388422,4.90103 97.3388422,6.37002 C97.3388422,7.43602 97.0242122,8.76202 95.7773522,8.76202 C95.5909022,8.76202 95.2180122,8.73602 94.8101622,8.20302 L94.8101622,5.03102 M93.9361922,4.90103 L93.9361922,11.16702 C93.9361922,11.53102 93.8080122,11.67402 93.4351122,11.71302 L93.2137122,11.73902 C93.1555122,11.75202 93.1204122,11.77802 93.1204122,11.84306 L93.1204122,12.09006 L93.1437122,12.11606 C93.5748722,12.10306 93.9361122,12.09006 94.3556222,12.09006 C94.7984222,12.09006 95.1713222,12.10306 95.6024822,12.11606 L95.6257822,12.09006 L95.6257822,11.84306 C95.6257822,11.77806 95.5791822,11.75206 95.5209022,11.73902 L95.2994922,11.71302 C94.9382522,11.67402 94.8100722,11.53102 94.8100722,11.16702 L94.8100722,8.91802 C95.1130522,9.10002 95.4276822,9.20402 95.8471822,9.20402 C96.4647922,9.20402 97.0241322,8.98302 97.4786022,8.47602 C98.0029822,7.87802 98.2943022,7.07202 98.2943022,6.01902 C98.2943022,4.64103 97.4669422,3.36702 96.3366122,3.36702 C95.9637122,3.36702 95.3461022,3.49702 94.8100722,4.40702 L94.7751722,4.40702 L94.8100722,3.36702 C94.8100722,3.34102 94.7867722,3.32802 94.7634722,3.32802 C94.4255422,3.47102 93.9827222,3.58802 93.1553722,3.73102 L93.1786722,4.04302 L93.6797422,4.09502 C93.8428822,4.12102 93.9361022,4.25102 93.9361022,4.90102 M99.6332222,5.34302 C99.8429722,3.87402 100.705292,3.80902 100.973312,3.80902 C101.392812,3.80902 101.940502,4.06902 101.940502,5.16102 C101.940502,5.27802 101.893902,5.34302 101.777362,5.34302 L99.6332222,5.34302 M102.709592,7.83902 C102.301742,8.33302 101.893892,8.56702 101.252982,8.56702 C100.600422,8.56702 99.5982622,7.78702 99.5982622,5.85002 L102.662982,5.85002 C102.791172,5.85002 102.872732,5.77202 102.872732,5.62902 C102.872732,4.53702 102.511492,3.36702 100.973312,3.36702 C99.8662822,3.36702 98.6660322,4.51103 98.6660322,6.48702 C98.6660322,7.98202 99.3768622,9.20402 100.973312,9.20402 C101.812322,9.20402 102.499842,8.72302 102.942652,8.04702 C102.907752,7.91702 102.837772,7.85202 102.709592,7.83902 M113.875342,3.47102 L113.910242,3.49708 L113.910242,3.74408 C113.910242,3.80912 113.863662,3.83512 113.782062,3.84812 C113.350902,3.88713 113.117842,4.35513 112.954702,4.73212 C112.337092,6.18812 111.824372,7.52712 110.892142,10.03612 C110.542542,10.97212 110.099742,12.09012 109.272382,12.09012 C109.050972,12.09012 108.596512,11.94713 108.596512,11.47913 C108.596512,11.08912 108.852872,10.97212 109.039322,10.97212 C109.214122,10.97212 109.330662,11.05008 109.400562,11.15412 C109.517092,11.28412 109.598662,11.37512 109.715192,11.37512 C109.838573,11.37512 110.089696,10.8050992 110.329205,10.190879 L110.447347,9.88251996 C110.505288,9.72893315 110.561053,9.57806118 110.612462,9.43812 C110.682462,9.28213 110.705762,9.15213 110.705762,9.03512 C110.705762,8.92369143 110.628693,8.64990286 110.547981,8.41021353 L110.507662,8.29412 L109.039392,4.48513 C108.852942,3.99112 108.713102,3.88712 108.328562,3.84812 C108.276115,3.838295 108.23679,3.82121375 108.220406,3.79134969 L108.212032,3.75702 L108.212032,3.49702 L108.235332,3.47102 C108.468382,3.48402 108.817972,3.49702 109.214172,3.49702 C109.493846,3.49702 109.773519,3.49124222 110.056641,3.48353852 L110.484342,3.47102 L110.507642,3.51002 L110.507652,3.74404 C110.507652,3.80908 110.437672,3.84808 110.379472,3.84808 C109.970771,3.88408923 109.800283,3.97546604 109.913949,4.33696377 L109.948312,4.43309 L111.230142,7.78708 L112.523612,4.48509 C112.779982,3.96509 112.430392,3.88708 112.069152,3.84808 C112.025405,3.84808 111.98173,3.833455 111.962627,3.79872063 L111.952622,3.75708 L111.952622,3.51008 L111.975922,3.47102 C112.407082,3.48408 112.663452,3.49708 113.071302,3.49708 C113.397572,3.49708 113.584022,3.48408 113.875342,3.47102 Z M107.538972,1.99999999e-05 C107.643862,1.99999999e-05 107.690462,0.03902 107.690462,0.13002 C107.690462,0.13002 107.66037,0.578395969 107.656071,1.31899597 L107.655632,1.49512 L107.655632,7.56611 C107.655632,8.16608231 107.695347,8.27872112 107.893928,8.31294975 L107.946952,8.32011 L108.506292,8.38511 L108.541192,8.68412 C107.898988,8.81122222 107.422512,8.95887556 107.144507,9.15446392 L107.049622,9.23011 L106.781602,9.23011 L106.804902,8.32011 L106.781602,8.30711 C106.245572,8.78811 105.662922,9.20411 105.196802,9.20411 C103.938292,9.20411 103.239112,8.03411 103.239112,6.43511 C103.239112,5.47311 103.518782,4.70611 104.019862,4.14711 C104.485972,3.65311 104.998712,3.36712 105.767802,3.36712 C105.967568,3.36712 106.372798,3.45307184 106.653284,3.58405516 L106.781602,3.65311 L106.781602,1.75511 C106.781602,0.966452667 106.680092,0.766649022 106.477079,0.74351368 L106.432022,0.74111 L106.059122,0.71511 C106.032797,0.71511 106.006585,0.70042875 105.995124,0.676635 L105.989122,0.65001 L105.965822,0.33802 C106.443592,0.29902 107.247652,0.13002 107.538972,1.99999999e-05 Z M116.016042,3.36702 C116.866692,3.36702 117.729012,3.71803 117.729012,5.56402 L117.729012,5.56402 L117.729295,7.61961467 C117.732535,8.16771778 117.77097,8.63202 118.195132,8.63202 C118.474802,8.63202 118.509782,8.42403 118.579682,8.42403 C118.626262,8.42403 118.707862,8.52802 118.707862,8.61902 C118.707862,8.68402 118.311662,9.20402 117.740672,9.20402 C117.123062,9.20402 116.936602,8.72302 116.866702,8.45002 L116.866782,8.45002 L116.843482,8.45002 L116.610422,8.65802 C116.097692,9.09998 115.876282,9.20402 115.340252,9.20402 C114.524552,9.20402 113.895282,8.82702 113.895282,7.80002 C113.895282,6.91602 114.676032,6.22702 115.794722,5.91502 L115.794722,5.91502 L116.796872,5.64202 C116.831872,5.62902 116.866772,5.57702 116.866772,5.48602 C116.866772,4.01702 116.319082,3.75702 115.922872,3.75702 C115.480072,3.75702 114.955692,3.93902 114.955692,4.34202 C114.955692,4.48502 114.967292,4.56302 114.978992,4.60202 C115.002192,4.65402 115.013892,4.74503 115.013892,4.83603 C115.013892,5.00502 114.839092,5.26502 114.501152,5.26502 C114.233142,5.26502 114.093302,5.12202 114.093302,4.81002 C114.093302,4.10803 115.060502,3.36702 116.016042,3.36702 Z M116.866702,6.04502 L115.946122,6.31802 C115.083812,6.57802 114.815782,7.16303 114.815782,7.74802 C114.815782,8.15102 115.095452,8.67102 115.678092,8.67102 C116.004382,8.67102 116.400582,8.38502 116.703552,8.11202 C116.796802,8.03402 116.866702,7.94302 116.866702,7.77402 L116.866702,7.77402 L116.866702,6.04502 Z M105.639612,3.82202 C105.406552,3.82202 104.917122,3.86102 104.555882,4.47202 C104.381092,4.74502 104.229612,5.26502 104.229612,6.20102 C104.229612,7.82601 104.870512,8.59302 105.499772,8.59302 C105.772445,8.59302 106.167833,8.37189 106.626457,7.986492 L106.781592,7.85202 L106.781592,4.58902 C106.501922,4.09502 106.187302,3.82202 105.639612,3.82202 Z" id="tl-tagline" fill="#000000" fill-rule="nonzero"></path>
    </g>
</svg>