<svg xmlns="http://www.w3.org/2000/svg" width="121" height="25"><path fill="#000" fill-rule="nonzero" d="M18.207 16.68c0 2.103-.439 3.818-1.316 5.146-1.112 1.77-2.662 2.656-4.65 2.656-1.96 0-3.437-.761-4.432-2.283a4.925 4.925 0 0 1-1.58 1.66c-.643.415-1.403.623-2.28.623-1.112 0-2.048-.415-2.808-1.245C.38 22.407 0 21.453 0 20.374c0-1.024.366-1.881 1.097-2.573.76-.691 1.682-1.037 2.764-1.037 1.228 0 2.15.263 2.764.788a6.527 6.527 0 0 1 1.58 1.743 4.971 4.971 0 0 0 2.895.913c1.638 0 2.939-.512 3.904-1.536.995-1.023 1.492-2.282 1.492-3.776 0-2.13-.717-3.83-2.15-5.103-1.433-1.273-3.29-1.992-5.572-2.158.264.802.293 1.48.088 2.033a2.47 2.47 0 0 1-1.053 1.287c-.497.304-1.097.484-1.799.539a4.715 4.715 0 0 1-1.886-.208c-.819-.331-1.36-.816-1.623-1.452a2.538 2.538 0 0 1-.044-1.909c.263-.636.775-1.19 1.535-1.66.79-.47 1.814-.705 3.071-.705 1.755.028 3.32.332 4.695.913 1.374.581 2.53 1.37 3.466 2.365.965.969 1.696 2.13 2.193 3.486.527 1.355.79 2.808.79 4.357M7.634 8.797c0-.36-.088-.76-.263-1.204-.644-.248-1.214-.18-1.712.208-.467.36-.745.802-.833 1.328-.059.498.132.844.57 1.037.468.194.907.208 1.316.042.556-.222.863-.692.922-1.411M6.318 19.212c-.41-.913-1.2-1.356-2.37-1.328-.701 0-1.213.152-1.535.457-.322.276-.483.58-.483.912 0 .332.161.637.483.913.322.25.804.374 1.448.374.555 0 1.082-.125 1.58-.374.526-.249.818-.567.877-.954M27.436 3.983c.029.084-.015.153-.132.208-.088.055-.22.11-.395.166-.175.028-.35.07-.526.124-.176.028-.278.028-.307 0-.585-.442-.878-1.134-.878-2.074 0-.72.307-1.3.921-1.743A3.779 3.779 0 0 1 28.313 0c.702 0 1.36.207 1.974.622.615.415.936.955.966 1.619.087.58.029.926-.176 1.037-.205.083-.526.125-.965.125 0-.332-.176-.623-.527-.872-.35-.276-.702-.415-1.053-.415-.848 0-1.316.18-1.403.54-.088.36.014.802.307 1.327m1.053 5.353c-.293.166-.702.36-1.229.581-.526.194-.994.29-1.404.29-.468 0-.921-.069-1.36-.207a6.046 6.046 0 0 1-1.228-.54 2.704 2.704 0 0 1-.922-.87c-.204-.36-.307-.803-.307-1.328 0-1.55.95-2.6 2.852-3.154.819-.249 1.726-.29 2.72-.125.995.139 1.857.43 2.589.872a3.682 3.682 0 0 1 1.447 1.577c.351.636.527 1.203.527 1.7 0 1.66-.834 2.85-2.5 3.57-.995.387-1.946.608-2.853.663a10.418 10.418 0 0 1-2.851-.332 16.074 16.074 0 0 1-2.15-.705c-.673-.304-1.009-.636-1.009-.996 0-.415.234-.622.702-.622.088 0 .395.124.921.373.556.25 1.156.47 1.799.664.76.194 1.52.29 2.281.29.76 0 1.492-.18 2.194-.539a2.742 2.742 0 0 0 1.097-.871c.292-.388.438-.872.438-1.453 0-.387-.058-.83-.175-1.327a8.78 8.78 0 0 1-.351 1.161c-.146.388-.556.83-1.228 1.328M25.856 6.64c-.321.166-.57.374-.746.623-.146.248-.219.497-.219.746 0 .222.088.415.263.581.205.166.527.208.965.125.702-.166 1.185-.526 1.448-1.079.263-.553.351-.996.263-1.328-.818 0-1.477.11-1.974.332m7.459 13.735c0 .774-.22 1.424-.659 1.95-.41.498-.936.913-1.579 1.245a7.52 7.52 0 0 1-2.062.705c-.731.139-1.433.208-2.106.208-2.193 0-3.875-.415-5.045-1.245-1.14-.858-1.638-2.38-1.492-4.565h1.14c.147 1.273 1.844 1.91 5.09 1.91 2.954 0 4.431-.457 4.431-1.37 0-.332-.336-.595-1.009-.788-.643-.194-1.418-.346-2.325-.457-.907-.138-1.799-.263-2.676-.373-.849-.111-1.507-.236-1.975-.374-.76-.276-1.403-.608-1.93-.996-.497-.387-.746-.94-.746-1.66 0-.663.22-1.217.658-1.66a5.506 5.506 0 0 1 1.711-1.078 9.095 9.095 0 0 1 2.106-.581c.731-.138 1.39-.207 1.974-.207 1.258 0 2.472.262 3.642.788 1.404.636 2.281 1.494 2.632 2.573.059.276.03.497-.088.663-.087.139-.234.222-.438.25-.176.027-.38.013-.615-.042a1.062 1.062 0 0 1-.482-.374c-.556-.608-1.36-1.05-2.413-1.327a10.248 10.248 0 0 0-3.159-.332c-1.024.027-1.916.193-2.676.498-.76.304-1.14.719-1.14 1.244 0 .415.438.734 1.315.955.907.221 1.916.429 3.028.622.643.11 1.36.208 2.15.29.789.084 1.535.263 2.237.54.731.25 1.33.595 1.799 1.037.468.443.702 1.093.702 1.95m7.62-15.31c.059.027.03.082-.088.165a1.57 1.57 0 0 1-.438.208c-.176.027-.351.069-.527.124-.146.028-.248.028-.307 0-.556-.442-.833-1.134-.833-2.074 0-.747.307-1.342.92-1.785a3.708 3.708 0 0 1 2.15-.664c.732 0 1.39.208 1.975.623.614.387.965.94 1.053 1.66 0 .58-.059.926-.176 1.037-.146.028-.482.041-1.009.041 0-.304-.175-.594-.526-.87-.351-.278-.717-.416-1.097-.416-.79 0-1.243.194-1.36.581-.117.387-.03.844.263 1.37m1.097 5.352c-.292.166-.717.346-1.272.54-.527.166-.995.249-1.404.249a5.54 5.54 0 0 1-1.36-.166c-.41-.111-.805-.29-1.185-.54a3.361 3.361 0 0 1-.921-.871c-.234-.332-.351-.761-.351-1.287 0-1.549.95-2.6 2.852-3.153.848-.25 1.755-.29 2.72-.125.994.139 1.857.415 2.588.83a3.892 3.892 0 0 1 1.536 1.577c.35.664.497 1.245.438 1.743 0 1.66-.819 2.835-2.456 3.527-.966.415-1.916.65-2.852.705a10.6 10.6 0 0 1-2.896-.332c-.76-.193-1.272-.36-1.535-.498a.789.789 0 0 1-.395-.705c0-.498.205-.705.614-.623.146 0 .293.042.439.125.146.083.541.221 1.184.415.76.194 1.521.29 2.282.29.76 0 1.491-.18 2.193-.539a3.832 3.832 0 0 0 1.097-.913c.293-.36.439-.83.439-1.41 0-.194-.015-.402-.044-.623a3.521 3.521 0 0 0-.175-.706c-.059.36-.176.747-.351 1.162-.147.388-.542.83-1.185 1.328m-2.676-2.697a2.125 2.125 0 0 0-.702.622c-.176.25-.263.498-.263.747 0 .222.102.415.307.581.204.139.54.18 1.009.125.643-.166 1.097-.526 1.36-1.08.263-.552.38-1.009.35-1.368-.76 0-1.447.124-2.061.373m15.223 10.457a6.94 6.94 0 0 1-.394 2.323 6.49 6.49 0 0 1-1.053 2.033 5.236 5.236 0 0 1-1.8 1.411c-.73.36-1.55.54-2.456.54-.877 0-1.638-.083-2.281-.25-.644-.193-1.331-.815-2.062-1.867-.322.526-.805 1.01-1.448 1.453-.614.442-1.36.664-2.238.664-1.257 0-2.222-.388-2.895-1.162-.673-.802-1.01-1.688-1.01-2.656-.028-.968.264-1.853.878-2.655.644-.83 1.638-1.273 2.984-1.328.468-.056.965 0 1.491.166.527.138.995.387 1.404.747.439.36.746.719.921 1.079.205.36.425.677.659.954.234.277.555.525.965.747.438.193 1.126.29 2.062.29 1.345 0 2.442-.276 3.29-.83.848-.58 1.258-1.563 1.229-2.946 0-1.217-.483-2.213-1.448-2.987-.965-.775-2.106-1.162-3.422-1.162-.293 0-.63-.042-1.01-.125-.38-.083-.555-.387-.526-.913 0-.553.439-.83 1.316-.83 1.99 0 3.642.761 4.958 2.283 1.258 1.41 1.886 3.084 1.886 5.02m-13.907 2.407c.907.056 1.55-.055 1.93-.332.41-.304.6-.622.57-.954-.029-.36-.248-.678-.657-.954-.38-.305-.936-.457-1.668-.457-.643 0-1.14.138-1.491.415-.351.277-.541.595-.57.954 0 .332.146.637.438.913.322.277.805.415 1.448.415M68.197 9.046c-.263.193-.658.387-1.184.58-.527.167-1.01.25-1.448.25-.439 0-.878-.056-1.316-.166a4.023 4.023 0 0 1-1.229-.54A3.36 3.36 0 0 1 62.1 8.3c-.234-.36-.35-.789-.35-1.286 0-1.55.95-2.615 2.85-3.196.849-.248 1.77-.29 2.765-.124.994.166 1.842.443 2.544.83.644.387 1.14.913 1.492 1.577.35.664.526 1.258.526 1.784 0 1.632-.833 2.794-2.5 3.485-.995.443-1.96.678-2.896.706a9.99 9.99 0 0 1-2.808-.332c-.76-.166-1.36-.332-1.798-.498-.41-.194-.615-.456-.615-.788 0-.443.234-.664.702-.664.059 0 .234.069.527.207.321.138.804.29 1.448.457.76.22 1.52.332 2.28.332.761 0 1.507-.18 2.238-.54a4.07 4.07 0 0 0 1.053-.913c.293-.36.439-.83.439-1.41 0-.388-.059-.844-.175-1.37a8.21 8.21 0 0 1-.351 1.203c-.147.36-.57.789-1.273 1.287m-2.632-2.697a2.6 2.6 0 0 0-.702.664c-.176.249-.263.497-.263.746 0 .222.087.402.263.54.205.138.541.194 1.009.166.673-.194 1.14-.567 1.404-1.12.292-.554.395-1.01.307-1.37-.731 0-1.404.125-2.018.374m9.871 12.904c0 1.467-.497 2.711-1.492 3.735-.965.996-2.252 1.494-3.86 1.494-.878 0-1.667-.139-2.37-.415-.701-.305-1.36-.927-1.974-1.868-.292.83-.848 1.425-1.667 1.785-.79.332-1.52.498-2.193.498-.849 0-1.594-.152-2.238-.457a5.348 5.348 0 0 1-1.58-1.286 6.27 6.27 0 0 1-.964-1.784 6.196 6.196 0 0 1-.351-2.075c0-2.296.936-4.219 2.807-5.768 1.814-1.521 3.934-2.282 6.362-2.282 2.778 0 4.84.47 6.186 1.41.146.112.278.222.395.333.117.11.131.263.044.456-.147.36-.454.498-.922.415a4.968 4.968 0 0 1-.526-.29 3.13 3.13 0 0 0-.483-.374c-1.082-.498-2.705-.747-4.87-.747-.76 0-1.535.125-2.325.374-.79.249-1.52.595-2.193 1.037a5.482 5.482 0 0 0-1.624 1.618c-.41.637-.614 1.356-.614 2.158 0 .913.263 1.715.79 2.407.526.691 1.287 1.037 2.281 1.037 1.58 0 2.603-.94 3.071-2.821.117-.47.322-.706.614-.706.234 0 .41.221.527.664.205.94.658 1.66 1.36 2.158.731.47 1.609.705 2.632.705 1.024 0 1.799-.18 2.325-.54.556-.359.936-.76 1.141-1.203-.38.443-.892.761-1.535.955a4.553 4.553 0 0 1-1.93.083 3.465 3.465 0 0 1-1.624-.747c-.468-.415-.702-.996-.702-1.743 0-.443.102-.83.307-1.162.205-.332.468-.608.79-.83a3.64 3.64 0 0 1 1.053-.498 3.58 3.58 0 0 1 1.14-.207c1.463-.028 2.53.401 3.203 1.286.673.858 1.01 1.923 1.01 3.195m-3.686-.747c.497 0 .848-.138 1.053-.414.234-.277.336-.568.307-.872 0-.332-.146-.622-.439-.871-.263-.25-.629-.36-1.097-.332-.468.028-.819.18-1.053.456-.204.277-.292.567-.263.872.03.304.161.58.395.83.263.248.629.36 1.097.331M103.254 7.18a65.213 65.213 0 0 1-3.773 2.365 99.66 99.66 0 0 1-3.904 2.199c-.41.221-.805.332-1.185.332s-.76-.07-1.14-.208a6.324 6.324 0 0 1-1.053-.539 7.242 7.242 0 0 0-1.01-.581 14.634 14.634 0 0 1-1.403-.913c-.38-.332-.57-.705-.57-1.12 0-.387.19-.76.57-1.12.38-.36.819-.498 1.316-.415.41.055.79.22 1.14.497.38.25.702.54.966.872.292.304.555.636.79.996.263.36.511.664.745.913a75.038 75.038 0 0 1 1.799-1.577 79.799 79.799 0 0 0 1.58-1.453c.526-.47 1.067-.94 1.623-1.41.584-.498 1.243-1.051 1.974-1.66.526-.498 1.038-.705 1.535-.623.497.056.892.263 1.185.623.468.58.526 1.106.175 1.577a5.19 5.19 0 0 1-1.36 1.245m-.131 10.705c0 4.37-1.901 6.556-5.704 6.556-1.257 0-2.398-.249-3.422-.747-.994-.525-1.681-1.48-2.062-2.863-.672 1.024-1.623 1.895-2.851 2.614a7.521 7.521 0 0 1-3.817 1.038 9.59 9.59 0 0 1-2.984-.457 8.016 8.016 0 0 1-2.456-1.37 7.141 7.141 0 0 1-1.624-2.157c-.38-.857-.57-1.812-.57-2.863s.19-1.992.57-2.822c.38-.857.892-1.59 1.536-2.199a7.157 7.157 0 0 1 2.369-1.41c.936-.36 1.96-.54 3.071-.54 2.077 0 3.73.65 4.958 1.95 1.257 1.3 1.988 2.863 2.193 4.69.322.912.892 1.687 1.711 2.323.848.636 1.77.954 2.764.954 1.2 0 2.238-.373 3.115-1.12.877-.747 1.316-1.701 1.316-2.863 0-1.3-.497-2.31-1.491-3.03a7.33 7.33 0 0 0-3.29-1.369c-.498-.083-.908-.11-1.23-.083-.292 0-.628-.013-1.008-.041-.44-.083-.717-.25-.834-.498-.058-.138-.015-.277.132-.415.175-.138.336-.235.482-.29h.965c2.428 0 4.388.608 5.88 1.825 1.52 1.217 2.28 2.946 2.28 5.187m-12.898-1.12c.059-.692-.087-1.314-.438-1.868a4.62 4.62 0 0 0-1.273-1.41 5.718 5.718 0 0 0-1.755-.872 5.903 5.903 0 0 0-1.93-.332 6.21 6.21 0 0 0-1.974.457 5.631 5.631 0 0 0-1.536.954c-.41.387-.73.844-.965 1.37a4.002 4.002 0 0 0-.307 1.535c0 .664.16 1.245.483 1.743.321.497.716.912 1.184 1.244a8.16 8.16 0 0 0 1.58.747 5.397 5.397 0 0 0 1.535.25c.556 0 1.14-.056 1.755-.167a6.847 6.847 0 0 0 1.755-.622 3.597 3.597 0 0 0 1.36-1.162c.35-.498.526-1.12.526-1.867m30.58-2.863c.028 1.078-.264 1.936-.878 2.572-.585.637-1.36.955-2.326.955a3.218 3.218 0 0 1-1.535-.374 3.553 3.553 0 0 1-1.097-.954 2.006 2.006 0 0 1-.35-1.287c.028-.47.248-.912.657-1.327h-9.827c-.41 0-.673-.097-.79-.29-.117-.194-.175-.499-.175-.914 0-.58.073-.94.22-1.079.175-.138.584-.207 1.227-.207h10.179c3.042 0 4.606.968 4.694 2.905m-1.755.995c-.088-.83-.775-1.313-2.062-1.452-.38.25-.614.512-.702.789-.058.249-.088.47-.087.663 0 .305.131.581.394.83.293.222.615.332.966.332.497 0 .877-.11 1.14-.332.263-.249.38-.525.351-.83m-6.098 6.308c-.351.94-1.024 1.729-2.018 2.365-.995.608-2.018.913-3.071.913-.79 0-1.536-.139-2.238-.415a7.026 7.026 0 0 1-1.798-1.162 9.233 9.233 0 0 1-1.273-1.577c-.35-.553-.526-1.203-.526-1.95l.307-1.079c.059-.166.146-.346.263-.54.117-.193.278-.414.483-.663.029.166.044.332.044.498l.044.58c.087.47.277.886.57 1.245.322.36.673.623 1.053.789.38.166.775.29 1.184.373.41.056.849.083 1.317.083.526 0 1.053-.097 1.579-.29a6.36 6.36 0 0 0 1.448-.789 4.35 4.35 0 0 0 1.009-1.162c.263-.442.395-.94.395-1.493 0-.637-.176-1.217-.527-1.743-.35-.526-.863-.94-1.535-1.245a4.572 4.572 0 0 0-1.975-.456h-1.842c-.205.027-.395-.042-.57-.208a8.626 8.626 0 0 0-.44-.456 2.23 2.23 0 0 1-.219-.457 2.466 2.466 0 0 1-.043-.415c0-.387.102-.636.307-.747.234-.138.643-.207 1.228-.207.877 0 1.799.166 2.764.498a5.615 5.615 0 0 1 2.457 1.535c.526.553.921 1.12 1.184 1.701.293.581.498 1.148.615 1.702.146.525.234.982.263 1.37.029.359.029.829 0 1.41 0 .553-.146 1.217-.439 1.992"/></svg>