<svg xmlns="http://www.w3.org/2000/svg" width="122" height="14" fill="none"><path fill="#000" stroke="#000" stroke-miterlimit="3" stroke-width=".009" d="M1.01 10.39a.76.76 0 0 1-.007-.193l.01-.124.24-.04c.131-.022.31-.065.397-.096.194-.069.447-.296.583-.524.057-.094.809-1.823 1.671-3.843.863-2.02 1.604-3.733 1.647-3.807.178-.307.433-.314.584-.015.033.064.695 1.799 1.472 3.854.776 2.055 1.458 3.822 1.515 3.928.174.321.406.444.968.512.16.02.167.025.188.134a.445.445 0 0 1-.007.193l-.029.08-1.667.004c-1.641.004-1.667.003-1.684-.06-.024-.092-.021-.25.006-.292.013-.02.124-.045.247-.057.42-.04.653-.088.734-.152.151-.118.123-.244-.346-1.543l-.426-1.182-1.338-.01c-1.543-.01-1.769.001-1.884.1-.058.051-.185.344-.463 1.074-.21.552-.397 1.066-.414 1.142-.036.162.016.322.131.403.074.052.408.134.679.167.186.023.242.106.195.292l-.03.116-1.477.002c-1.476.003-1.479.003-1.496-.064Zm5.852-3.838c-.036-.17-1.286-3.565-1.316-3.575-.017-.005-.345.784-.728 1.754-.506 1.28-.689 1.778-.667 1.813.05.079.19.087 1.489.092l1.241.004-.019-.088Zm3.86 3.862c-.026-.067-.02-.32.008-.337.013-.008.138-.03.276-.05.339-.047.492-.134.594-.337l.08-.16.009-1.876c.006-1.236-.002-1.917-.024-2-.07-.26-.223-.364-.628-.424l-.23-.034-.014-.132a.628.628 0 0 1 0-.17c.007-.02.137-.054.29-.075.433-.06 1.048-.186 1.359-.278.353-.106.37-.094.335.252-.04.4-.034.889.012.888.022 0 .155-.117.296-.26.588-.596 1.082-.853 1.745-.909.478-.04.959.103 1.222.362.068.067.17.222.23.345.193.407.21.596.235 2.539.014 1.157.034 1.776.058 1.848.088.261.242.365.626.422.228.034.24.04.26.13a.59.59 0 0 1 .002.197l-.02.101-1.411-.003-1.412-.003-.028-.086a.456.456 0 0 1-.01-.192c.02-.103.026-.106.247-.143.34-.056.482-.151.573-.387.057-.145.083-3.176.031-3.526-.072-.482-.355-.837-.73-.915-.37-.077-.944.135-1.437.532a2.124 2.124 0 0 0-.384.39l-.117.176-.01 1.472c-.004.838.005 1.557.022 1.67.063.4.182.518.605.594l.213.039.01.124a.756.756 0 0 1-.006.192c-.017.066-.022.067-1.439.067-1.155 0-1.425-.009-1.438-.043Zm12.333 3.22c-.694-.126-1.192-.427-1.394-.843-.29-.596-.157-1.246.368-1.803a2.71 2.71 0 0 1 .409-.356.766.766 0 0 0 .179-.135c0-.013-.039-.044-.088-.07-.107-.055-.334-.295-.4-.422-.124-.241-.159-.629-.084-.95.058-.25.26-.657.412-.827l.136-.153-.146-.157c-.386-.412-.546-.807-.546-1.342 0-.818.391-1.418 1.186-1.816.338-.17.673-.24 1.128-.24.485 0 .78.061 1.132.233l.254.124.188-.17c.424-.383 1.058-.59 1.433-.466.293.097.434.441.276.674-.108.159-.266.256-.418.256-.112 0-.149-.022-.32-.192-.174-.17-.208-.191-.324-.191-.137 0-.4.13-.508.25-.058.064-.056.068.106.266.3.37.417.703.417 1.195 0 .796-.338 1.381-1.026 1.78-.377.22-.902.328-1.443.299-.39-.022-.59-.066-.867-.193l-.18-.082-.062.102c-.121.198-.175.412-.175.696 0 .25.009.289.097.431.074.12.141.18.285.253.173.088.215.096.51.096.177 0 .569-.02.871-.046 1.234-.103 2.077.089 2.567.583.352.356.48.772.383 1.24-.182.878-1.168 1.597-2.603 1.899-.314.066-.498.083-.992.093-.334.006-.676 0-.761-.016Zm1.738-.496c.604-.09 1.22-.34 1.539-.624.308-.275.465-.714.375-1.05-.054-.198-.303-.432-.642-.603-.452-.228-.584-.245-1.846-.237-.604.003-1.157-.008-1.23-.024-.156-.035-.183-.015-.353.27-.138.23-.172.34-.207.672-.07.654.171 1.123.722 1.4.532.267.885.31 1.642.196Zm-.206-4.98c.365-.11.604-.369.735-.8.074-.244.083-1.116.015-1.389-.114-.453-.365-.802-.683-.951a1.559 1.559 0 0 0-.782-.104c-.628.09-.903.549-.902 1.513 0 .417.035.664.144 1.008.13.413.368.63.794.722.263.057.486.057.679 0Zm6.062 2.347c-1.057-.212-1.767-.885-2.112-2-.083-.268-.088-.318-.087-.875.002-.535.01-.621.087-.91.047-.176.15-.456.23-.622.454-.941 1.162-1.442 2.215-1.568.721-.086 1.62.152 2.123.562.46.375.862 1.142.979 1.873.057.356.025 1.09-.062 1.413-.192.72-.651 1.401-1.175 1.745-.582.38-1.45.532-2.198.382Zm1.422-.467c.564-.269.807-.724.895-1.68.082-.888-.08-1.928-.393-2.53-.34-.652-.98-.996-1.642-.882-.53.09-.86.371-1.098.929-.453 1.065-.327 2.551.295 3.48.383.574.81.806 1.448.79.246-.007.317-.023.495-.107Zm7.49.522a2.806 2.806 0 0 1-.123-.553c-.03-.2-.055-.288-.088-.294-.026-.006-.19.1-.366.232-.364.275-.783.503-1.055.574-.53.138-1.275-.032-1.73-.394-.937-.746-1.247-2.609-.648-3.89.31-.662.776-1.148 1.39-1.45.396-.195.691-.26 1.182-.26.374-.002.448.008.75.098.408.122.497.127.523.029.03-.113.021-1.856-.011-2.217-.039-.427-.087-.539-.266-.618a1.466 1.466 0 0 0-.37-.083c-.242-.023-.278-.048-.291-.204-.015-.174-.005-.191.11-.191.173 0 1.019-.15 1.451-.258.329-.082.403-.091.438-.056.033.034.036.137.012.521-.043.697-.04 7.348.003 7.55.072.333.265.488.707.565.276.048.311.072.312.21a.177.177 0 0 1-.18.186c-.157 0-.728.133-.967.225a2.857 2.857 0 0 0-.418.205c-.177.113-.342.146-.365.073Zm-1.308-.664c.242-.083.548-.267.819-.491.353-.293.328-.144.328-1.983V5.825l-.073-.147c-.096-.195-.409-.49-.623-.588a1.638 1.638 0 0 0-1.404.04c-.186.102-.486.418-.606.638-.387.71-.412 2.328-.05 3.196.321.773.974 1.15 1.61.932Zm3.542.518c-.024-.064-.018-.272.009-.313.013-.019.138-.052.278-.072.432-.064.584-.186.654-.526.024-.115.032-1.276.026-3.774-.008-3.46-.011-3.613-.069-3.73-.078-.156-.197-.215-.53-.259l-.272-.036-.04-.123c-.066-.2-.04-.231.224-.257.342-.033 1.051-.166 1.393-.262.347-.097.408-.084.394.089-.004.06-.017 1.103-.027 2.32-.015 1.745-.01 2.21.02 2.21.023 0 .187-.14.366-.313.18-.172.437-.383.573-.467.794-.496 1.864-.526 2.374-.067.443.398.523.924.517 3.37-.003 1.258.014 1.434.152 1.6.11.13.168.156.484.218.262.051.275.058.293.148a.6.6 0 0 1 0 .187l-.017.093-1.412.003c-1.55.004-1.446.018-1.445-.199 0-.162.024-.187.207-.214.377-.056.53-.158.613-.412.046-.14.055-.366.066-1.63.013-1.526-.008-1.935-.113-2.2a.962.962 0 0 0-.424-.514c-.152-.083-.204-.095-.414-.091-.688.011-1.675.633-1.816 1.144-.047.168-.048 2.826-.002 3.113.065.408.173.517.578.584l.234.039.01.125a.763.763 0 0 1-.006.191c-.017.067-.022.067-1.439.067-1.155 0-1.425-.008-1.438-.042Zm9.852.105c-.997-.188-1.66-.738-2.058-1.708-.155-.376-.215-.694-.214-1.15 0-.637.117-1.144.383-1.66.5-.973 1.346-1.478 2.472-1.477.786 0 1.434.22 1.887.64.823.762 1.168 2.189.807 3.337a3.35 3.35 0 0 1-.819 1.374c-.265.258-.711.493-1.14.598-.36.088-.98.11-1.318.046Zm1.35-.467c.65-.303.926-.944.926-2.16 0-1.434-.402-2.438-1.119-2.797-.754-.377-1.61-.103-1.96.628-.593 1.235-.383 3.028.46 3.929.331.355.705.506 1.213.491.247-.008.337-.024.48-.09Zm2.977.375c-.03-.048-.02-.306.011-.336.016-.016.137-.044.269-.064.317-.048.51-.145.583-.292.112-.23.122-.436.113-2.27-.01-1.725-.012-1.804-.073-1.927-.08-.158-.262-.255-.574-.304a2.117 2.117 0 0 1-.231-.043.938.938 0 0 1-.017-.165l-.009-.156.607-.104c.334-.057.736-.141.894-.187.158-.047.33-.087.384-.09l.095-.005v.192c0 .105-.01.368-.025.583-.02.327-.017.395.021.41.029.01.151-.088.328-.265.156-.156.379-.35.495-.434.955-.681 2.24-.602 2.656.163.224.412.277.963.278 2.881 0 1.494.016 1.652.184 1.828.087.092.285.162.56.201.127.018.16.036.186.104a.37.37 0 0 1 .005.193l-.026.11-1.411.003c-1.385.003-1.412.002-1.428-.06-.025-.092-.021-.25.006-.292.013-.02.127-.054.254-.075.255-.043.407-.127.493-.273.111-.19.128-.498.116-2.115-.012-1.504-.015-1.564-.083-1.765-.095-.28-.244-.474-.456-.59-.287-.156-.682-.12-1.13.104-.412.206-.836.568-.959.818l-.083.17.01 1.594.01 1.593.08.158c.093.186.212.258.514.31.112.02.214.052.227.071.03.046.03.282 0 .323-.03.042-2.848.044-2.874.002Zm7.322-.013c-.024-.064-.019-.272.008-.313.013-.019.138-.052.279-.072.363-.053.523-.14.623-.34l.08-.16V7.583c0-1.907-.002-1.95-.066-2.06-.086-.147-.268-.244-.539-.287a1.643 1.643 0 0 1-.247-.052c-.015-.008-.027-.085-.027-.17v-.154l.264-.037a9.86 9.86 0 0 0 1.221-.245c.394-.113.446-.121.485-.072.023.03.026.19.008.506a78.024 78.024 0 0 0-.027 2.363c-.002 2.026.01 2.222.155 2.425.083.116.27.19.59.237.235.034.256.043.277.122a.496.496 0 0 1 .001.189l-.021.103-1.524.003c-1.242.002-1.527-.005-1.54-.04Zm1.277-7.465a.75.75 0 0 1-.41-.626c-.005-.386.48-.726.857-.601.28.093.506.487.433.758-.044.163-.237.386-.4.459-.158.072-.353.076-.48.01Zm3.666 7.57c-.597-.13-.978-.489-1.092-1.03-.14-.668.142-1.267.811-1.72.469-.319.927-.493 1.916-.729.351-.084.659-.168.683-.188.035-.028.04-.109.025-.39-.034-.64-.174-1.07-.417-1.278-.279-.24-.565-.308-.998-.24-.324.05-.54.127-.669.24-.137.12-.174.258-.136.516.046.317.04.417-.033.52-.096.134-.307.228-.512.228-.313 0-.473-.18-.44-.494.026-.26.136-.455.407-.724.2-.2.304-.273.576-.407.483-.238.744-.3 1.29-.302.41-.002.47.006.703.087.664.23.978.574 1.17 1.281.066.24.071.353.093 1.884.023 1.638.036 1.808.148 1.997.143.243.535.28.753.072l.092-.089.078.09c.042.05.077.11.077.134 0 .063-.323.336-.52.438-.35.183-.802.2-1.123.043-.197-.096-.332-.241-.453-.489-.046-.092-.096-.168-.112-.168s-.146.093-.29.206c-.336.264-.662.45-.902.511-.236.062-.847.062-1.125.002Zm1.379-.56c.206-.078.697-.4.847-.556l.112-.116.009-1.004c.005-.553-.002-1.004-.015-1.004-.114 0-1.296.352-1.503.448-.33.153-.572.374-.704.646-.225.465-.218.896.022 1.275.232.365.742.494 1.232.31Zm8.072.6c-.041-.05-.126-.403-.154-.64-.013-.113-.039-.193-.066-.204-.048-.018-.056-.013-.4.25-.33.252-.706.46-.98.541-.466.139-1.157.027-1.597-.257-.725-.469-1.122-1.37-1.122-2.547 0-.967.302-1.75.909-2.357.447-.447.957-.71 1.559-.8.408-.063.714-.04 1.16.085.378.107.477.115.504.043.031-.081.02-2.114-.013-2.368a1.32 1.32 0 0 0-.08-.33c-.068-.13-.262-.214-.556-.241-.255-.024-.29-.058-.29-.281v-.105l.218-.02a10.43 10.43 0 0 0 1.359-.25c.319-.082.385-.09.421-.054.036.036.038.193.011.921-.017.483-.027 2.287-.022 4.008.01 3.329.005 3.219.16 3.442.088.124.282.215.576.266a2 2 0 0 1 .282.062c.041.026.037.262-.006.288-.02.012-.189.048-.377.08-.438.075-.837.21-1.113.376-.226.137-.328.162-.383.093Zm-1.154-.731c.267-.128.697-.437.849-.61a.505.505 0 0 0 .121-.254c.011-.075.016-.82.01-1.654-.009-1.433-.013-1.523-.072-1.643-.089-.179-.39-.465-.595-.565-.419-.205-.955-.2-1.402.012-.217.103-.517.425-.652.7-.24.492-.345 1.249-.278 2.025.081.94.34 1.53.832 1.9.226.17.408.224.708.211.2-.008.286-.03.48-.122Zm6.037.695c-.734-.14-1.233-.422-1.628-.92a3.145 3.145 0 0 1-.676-1.769c-.075-1.263.54-2.499 1.487-2.993.822-.43 1.905-.432 2.768-.008.486.24.868.66 1.136 1.251.402.886.4 1.975-.002 2.842-.495 1.064-1.29 1.59-2.46 1.627a3.136 3.136 0 0 1-.625-.03Zm1.337-.478a1.45 1.45 0 0 0 .657-.657c.18-.39.239-.753.24-1.487 0-.893-.107-1.482-.366-2.02-.377-.778-1.165-1.133-1.933-.87-.487.169-.796.584-.994 1.338-.111.426-.138 1.2-.058 1.654.111.624.302 1.092.608 1.495.36.472.756.66 1.358.645.26-.007.331-.021.488-.098Zm2.957.357c-.042-.077-.036-.229.01-.288.026-.033.13-.063.29-.083.136-.018.316-.066.398-.107.334-.165.368-.423.353-2.65-.01-1.509-.012-1.548-.08-1.695-.082-.178-.208-.265-.457-.314-.345-.068-.364-.076-.384-.159a.527.527 0 0 1-.006-.163c.012-.082.025-.088.29-.123a11.126 11.126 0 0 0 1.355-.279c.372-.11.38-.102.34.31-.016.167-.03.43-.03.583 0 .35.036.36.227.064.178-.276.603-.701.814-.814.09-.048.253-.11.363-.138.61-.157 1.16.289.99.802-.056.17-.281.385-.45.43-.202.055-.338.003-.526-.2-.191-.207-.253-.245-.404-.246-.15-.002-.275.104-.54.458-.23.304-.397.637-.442.878-.042.22-.041 2.408 0 2.696.067.46.228.594.806.665l.31.038.021.111a.445.445 0 0 1-.007.192l-.029.08-1.592.004c-1.461.002-1.594-.002-1.62-.051Zm8.444.028a.786.786 0 0 1 0-.333c.012-.019.111-.043.221-.055.472-.05.652-.159.75-.452.047-.135.055-.385.065-1.902.012-1.806 0-2.042-.115-2.198-.09-.122-.286-.216-.532-.255-.122-.02-.233-.053-.246-.074a.467.467 0 0 1-.025-.17v-.133l.279-.038c.456-.063 1.086-.19 1.355-.276.147-.046.28-.07.319-.058.062.02.065.037.046.242-.011.122-.03.394-.041.604-.026.476.007.494.25.134.226-.335.588-.684.835-.805.302-.148.52-.181.775-.118.115.028.251.081.303.118.141.101.264.331.261.493-.005.357-.38.7-.7.64-.084-.015-.17-.079-.33-.242-.204-.21-.223-.222-.36-.222-.182 0-.27.07-.538.426-.28.373-.434.71-.478 1.04-.054.399-.02 2.518.043 2.743.087.311.27.428.76.488.166.02.313.053.326.073.012.02.023.094.023.164s-.01.143-.023.16c-.029.039-3.2.045-3.223.007Zm6.049 3.143a.614.614 0 0 1-.396-.27c-.117-.216.018-.563.268-.69.107-.055.179-.063.519-.056.379.006.399.004.545-.082a.682.682 0 0 0 .236-.235c.128-.217.407-.854.524-1.196.09-.263.101-.328.086-.528a3.005 3.005 0 0 0-.087-.474c-.074-.264-1.676-4.02-1.893-4.436-.071-.138-.18-.3-.242-.36a.874.874 0 0 0-.52-.203c-.056 0-.102-.023-.122-.062-.039-.073-.043-.256-.007-.314.02-.031.312-.038 1.349-.031l1.323.008.011.125c.019.235.001.256-.253.296a.88.88 0 0 0-.312.099c-.075.056-.084.083-.079.25.004.168.068.337.599 1.577.817 1.91.819 1.915.886 1.95.038.022.079.022.117.001.037-.02.324-.641.771-1.67.781-1.798.814-1.898.663-2.049-.081-.081-.246-.139-.502-.176-.132-.019-.146-.03-.171-.132a.342.342 0 0 1 .008-.2l.034-.087h1.099c1.208 0 1.138-.012 1.138.196 0 .145-.05.21-.183.234-.305.057-.72.388-.908.725-.227.408-1.071 2.32-1.985 4.497-.343.817-.682 1.613-.754 1.768-.205.444-.466.864-.678 1.09-.311.334-.743.507-1.084.435Zm10.57-3.06a3.069 3.069 0 0 1-.125-.615c0-.122-.03-.192-.081-.192-.024 0-.134.069-.244.153-.696.53-1.097.71-1.59.708a2.067 2.067 0 0 1-1.759-.953c-.653-.994-.672-2.633-.043-3.682a3.56 3.56 0 0 1 .829-.908c.271-.193.679-.378.988-.447.37-.083.912-.075 1.245.018.429.12.519.139.574.118.049-.02.052-.13.043-1.29-.01-1.147-.016-1.283-.069-1.404-.074-.17-.236-.253-.555-.283-.127-.012-.246-.04-.263-.061a.513.513 0 0 1-.053-.183l-.019-.144.251-.023a10.37 10.37 0 0 0 1.397-.26c.281-.078.385-.08.41-.004a2.61 2.61 0 0 1-.01.358c-.039.554-.033 7.57.007 7.728.076.303.308.462.767.527.202.029.25.062.251.177.001.13-.072.177-.352.225-.539.091-1.069.28-1.305.464-.117.092-.253.079-.294-.027Zm-1.298-.619c.37-.124.988-.563 1.088-.772.047-.1.053-.282.053-1.705l-.001-1.592-.075-.16c-.093-.2-.381-.473-.605-.576a1.654 1.654 0 0 0-1.391.032c-.195.099-.545.474-.652.7-.189.399-.277.904-.277 1.585 0 .55.06.988.187 1.367.118.35.223.537.427.76.36.393.784.517 1.246.361Zm3.549.495a.707.707 0 0 1-.007-.191l.011-.125.269-.041c.458-.07.599-.191.672-.58.021-.108.033-1.432.032-3.639 0-3.672-.003-3.743-.147-3.905-.089-.1-.228-.148-.5-.173-.234-.02-.244-.025-.277-.118a.684.684 0 0 1-.033-.18c0-.085.003-.086.343-.124.38-.042 1.178-.2 1.418-.28a.485.485 0 0 1 .222-.028c.068.021.069.028.049.537-.015.397-.035 3.903-.023 4.1.005.082.082.033.314-.201.453-.456.821-.69 1.301-.829.551-.159 1.087-.135 1.5.068.221.108.378.277.5.538.187.399.194.477.219 2.428.019 1.537.03 1.811.075 1.951.091.279.226.37.66.441l.208.035.01.124a.758.758 0 0 1-.006.192c-.017.067-.022.067-1.425.067-1.402 0-1.408 0-1.424-.067a.706.706 0 0 1-.007-.191l.011-.125.221-.04c.313-.056.435-.126.523-.301.108-.217.133-.562.133-1.895.001-1.726-.046-2.063-.329-2.37-.187-.203-.344-.276-.596-.276-.114 0-.287.018-.383.041-.462.107-1.186.583-1.388.91l-.097.158V9.562l.08.16c.095.19.251.283.534.318.101.013.195.04.208.06.03.048.03.283 0 .324-.016.02-.532.032-1.438.032-1.41 0-1.415 0-1.432-.067h-.001Z"/></svg>