<svg xmlns="http://www.w3.org/2000/svg" width="96" height="18"><path fill="#000" fill-rule="nonzero" d="M5.059 10.235c.056-.044.268-.236.635-.576.192-.215.289-.684.289-1.41V5.38H2.936v4.266c0 .616.183 1.055.55 1.318l3.381 2.398c.271.192.537.389.8.59.27.262.406.552.406.871 0 .253-.14.535-.42.845-.122.18-.294.32-.517.42l-.662-.63c.21-.047.395-.163.557-.347a.828.828 0 0 0 .236-.583c-.005-.11-.064-.23-.177-.36a4.016 4.016 0 0 0-.387-.295l-3.348-2.405c-.153-.1-.435-.297-.845-.59a1.378 1.378 0 0 1-.472-.59c-.11-.266-.164-.624-.164-1.074V5.38h-.97L0 4.475h8.414l.897.898-2.24.007v3.086c-.005.459-.031.773-.08.944-.082.297-.268.567-.556.812l-1.042.885-.623-.63c.048-.043.144-.124.289-.242m5.89.839-1.356-1.77a1.256 1.256 0 0 1-.256-.537V8.46c.044-.126.169-.19.374-.19h1.212V5.38H8.374l-.904-.904h9.547l.917.905h-2.227v8.492L14.48 12.64V5.38H11.9v5.281c.008.061.013.14.013.236 0 .31-.107.498-.321.564a.38.38 0 0 1-.099.02c-.083 0-.174-.049-.275-.145l-.269-.262M18 5.38h-.976l-.905-.905h4.299l.898.905h-2.241v8.492L18 12.784V5.38m.74-.905c-.345-.533-.622-.939-.832-1.218-.869-1.167-1.371-1.824-1.507-1.973C15.628.428 14.921 0 14.278 0c-.463 0-1.002.092-1.618.275l1.192 1.212c.415-.06.717-.091.904-.091.608 0 1.298.375 2.071 1.127a8.609 8.609 0 0 1 1.52 1.952h.393m9.99 7.195c-.035.026-.168.04-.4.04-.1 0-.591-.523-1.474-1.567l-.4-.445c-.135-.157-.203-.312-.203-.465 0-.297.19-.446.57-.446.232 0 .555.004.97.013V5.38h-2.516l-.898-.905h9.823l.897.905h-2.26v8.492l-1.2-1.2V9.928h-2.79c0 .498.004.94.012 1.324.005.21-.039.35-.13.42M31.64 5.38h-2.792V8.8h2.792V5.38m.039 10.189-.773-.806c.485-.376 1.007-.55 1.566-.524.472.022.87.249 1.192.681.297.402.446.848.446 1.337 0 .585-.243 1.033-.727 1.343-.411.267-.924.4-1.54.4-.874 0-1.809-.426-2.805-1.278a10.633 10.633 0 0 1-2.07-2.411h.412c.38.65 1.038 1.289 1.973 1.913.983.656 1.83.983 2.542.983 1.175 0 1.763-.34 1.763-1.022 0-.227-.116-.448-.347-.662-.232-.21-.461-.314-.689-.314-.37 0-.685.12-.943.36m10.163-7.018v5.308l-1.088-1.095V8.466h-2.149c-.542 0-.97.135-1.284.406-.341.289-.511.7-.511 1.232 0 .72.262 1.409.786 2.064l1.48 1.704h-.432a9.537 9.537 0 0 1-1.94-1.815c-.672-.843-1.008-1.625-1.008-2.346 0-.441.188-.856.563-1.245h-1.002l-1.075-1.088h6.572V5.38h-6.592l-.904-.905h14.619l.898.905h-6.933v2.123c.28-.013.59-.018.93-.013.359.004.802.026 1.33.065.7.157 1.24.435 1.62.832.515.542.772 1.162.772 1.861 0 .573-.203 1.22-.609 1.94-.197.345-.555.9-1.075 1.664l-.963-.937c.328-.244.762-.611 1.304-1.1.537-.603.806-1.182.806-1.737 0-.459-.181-.845-.544-1.16-.35-.301-.92-.472-1.71-.511-.363-.017-.983.03-1.861.144M59.996 5.38H52.69l-.904-.905h7.306l.904.905m-.917 2.588h-3.237c.201.074.535.293 1.003.655.528.406.847.73.956.97.083.18.125.384.125.616 0 .446-.175.852-.524 1.219-.35.367-.747.583-1.193.648l.681 1.645-.4.413-.792-1.9c-.17.052-.367.078-.59.078-.384 0-.712-.109-.983-.327a1.124 1.124 0 0 1-.439-.918c0-.65.313-.983.937-.996.31-.008.575.099.793.321.162.166.269.356.321.57.254 0 .474-.1.662-.3a.96.96 0 0 0 .288-.682c0-.437-.129-.736-.386-.898l-2.523-1.599V6.96h5.301v1.009m0-2.588h-.714l-.891-.905h4.134l.898.905h-2.202v8.492l-1.225-1.225V5.38m3.5 0h-.977l-.905-.905h4.299l.898.905h-2.241v8.492l-1.075-1.088V5.38m3.853 3.977c-.306-.384-.459-.71-.459-.976 0-.459.177-.712.531-.76h4.148V5.38h-5.668l-.898-.905h8.944l.898.905H71.7v8.492l-1.048-1.035V8.649h-2.759v1.468c-.026.25-.1.402-.223.459a.645.645 0 0 1-.465-.25l-.773-.969m6.572-3.977-.897-.905h12.246l.898.905H79.19v2.522c.131-.118.227-.198.288-.242.149-.11.295-.183.44-.223.296-.083.574-.124.831-.124.669 0 1.221.233 1.658.7.437.464.656 1.034.656 1.711 0 .542-.193 1.053-.577 1.533-.288.372-.74.682-1.356.93l-.479-.93c.62-.288 1.035-.515 1.245-.681.463-.363.695-.76.695-1.193 0-.388-.182-.74-.544-1.055-.232-.196-.592-.27-1.081-.222-.232.021-.516.174-.852.458a5.31 5.31 0 0 0-.924 1.029v4.279L78.1 12.77v-1.907c-.188.21-.465.391-.832.544-.367.149-.697.223-.99.223a2.26 2.26 0 0 1-1.624-.649 2.14 2.14 0 0 1-.669-1.599c0-.646.212-1.18.636-1.599.424-.423.959-.635 1.605-.635.821 0 1.446.35 1.874 1.048v.4a1.938 1.938 0 0 0-1.323-.511c-.638 0-1.132.124-1.481.373-.48.341-.743.795-.787 1.363-.026.359.072.647.295.865.184.175.437.262.76.262.463 0 .994-.235 1.593-.707.629-.498.943-.974.943-1.429V5.38h-5.098m12.352 0h-.976l-.905-.905h4.299l.898.905H86.43v8.492l-1.075-1.088V5.38m.74-.905c-.345-.533-.622-.939-.832-1.218-.87-1.167-1.371-1.824-1.507-1.973C82.983.428 82.276 0 81.633 0c-.463 0-1.002.092-1.618.275l1.192 1.212c.415-.06.717-.091.904-.091.608 0 1.298.375 2.071 1.127a8.609 8.609 0 0 1 1.52 1.952h.393M89.74 8.69c0 .358.137.642.412.852.193.148.481.227.865.235.35.01.793-.249 1.33-.773L89.74 5.42v3.27m.406-3.31 2.536 3.513v.845c-.367.41-.828.616-1.383.616-.498 0-.963-.146-1.396-.439-.76-.511-1.14-1.083-1.14-1.717V5.38h-.976l-.898-.905h8.198l.917.905h-2.248v8.492l-1.074-1.081V5.38h-2.536"/></svg>