<svg xmlns="http://www.w3.org/2000/svg" width="120" height="20"><path fill="#000" fill-rule="nonzero" d="M24.575 14.153c1.215 0 2.259 1.027 2.259 2.19 0 1.044-.856 2.054-2.379 2.054-2.02 0-3.765-1.386-4.946-2.635l.548-.582c.873 1.06 2.242 2.293 3.936 2.293 1.3 0 1.985-.77 1.985-1.557 0-.548-.41-.925-.89-.925-.445 0-1.026.308-1.283.942l-.976-.788c.394-.684 1.027-.992 1.746-.992Zm3.628-10.148.41.581.292.343v.154h-3.953c.12.137.616.701.616 1.489 0 .513-.206.718-.206 1.044 0 .17.137.29.308.427.77.6 2.02 1.387 2.02 2.875 0 1.643-1.49 2.875-3.474 2.875-2.465 0-4.433-1.916-4.433-3.542 0-.873.53-1.574 1.951-2.037l1.335-.444c.975-.309 1.37-.72 1.37-1.387 0-.736-.531-1.163-.703-1.3h-6.742l-.001.445c-.008 1.415-.086 2.42-.102 2.55.24-.411.821-.993 1.797-.993.565 0 1.147.257 1.66.65v.959c-.291-.291-.667-.565-1.266-.565-1.387 0-2.123 1.215-2.123 2.824v4.278h-.205l-.41-.325-.548-.342c.034-1.318.085-2.14.102-2.875-.256.41-.855.992-1.848.992-.77 0-1.608-.48-2.225-1.198-.496-.582-.89-1.352-.89-2.122 0-1.506 1.062-2.344 2.396-2.344.206 0 .343.017.548.068l.719 1.01-.052.137a3.794 3.794 0 0 0-.753-.103c-1.043 0-1.848.616-1.848 1.728 0 .925.685 1.797 1.712 1.797 1.403 0 2.139-1.18 2.139-2.806V5.083h-7.12v3.183c0 1.283-.598 1.95-1.574 2.293l-1.198-.684c1.13-.274 1.592-.753 1.592-1.61v-.212c-.004-.699-.017-2.547-.017-2.97h-3.85v5.579l4.517 2.618c.856.496 1.438 1.13 1.438 2.002 0 .377-.137.839-.428 1.25l-1.267-.343c.343-.342.53-.787.53-1.163 0-.548-.376-.942-1.094-1.352l-4.912-2.858V5.083H.702L.29 4.5 0 4.159v-.154h28.203Zm-3.44 4.483c-.36 0-1.01.154-2.396.668-1.026.393-1.437.941-1.437 1.591 0 1.078.975 2.105 2.755 2.105 1.643 0 2.841-.941 2.841-2.293 0-1.232-1.13-2.07-1.763-2.07Zm31.609-3.405V15.23h-.205l-.428-.325-.565-.36s.051-2.258.051-5.904c-.36-.137-.77-.273-1.335-.273-.975 0-1.728.684-1.728 1.916 0 .685.205 1.198.428 1.66l-.051.052-1.113-.462a3.269 3.269 0 0 1-.36-2.157c-.444-.479-.94-.736-1.608-.736-.89 0-1.626.6-1.626 1.66 0 1.404 1.096 2.858 2.79 4.125l-.53.462c-2.345-1.763-3.458-3.491-3.458-5.014 0-1.352.959-2.294 2.294-2.294 1.078 0 1.933.616 2.378 1.13.377-.805 1.147-1.25 2.054-1.25.719 0 1.318.189 1.814.48V5.083H44.238v10.134c.932.274 1.643 1.141 1.643 2.102 0 1.044-.855 2.054-2.378 2.054-2.02 0-3.765-1.387-4.946-2.636l.547-.582c.873 1.061 2.242 2.293 3.937 2.293 1.3 0 1.985-.77 1.985-1.557 0-.548-.411-.924-.89-.924-.445 0-1.027.308-1.284.941l-.975-.787c.393-.685 1.027-.993 1.745-.993.105 0 .209.008.31.023l-.31-.245-.547-.342s.051-.839.068-1.318c-.736.547-1.95 1.13-3.525 1.13-2.55 0-4.878-1.73-6.264-4.964l.582-.599c.205.086.514.206.804.206.428 0 .72-.188.72-.582V5.083h-2.653l-.411-.582-.291-.342v-.154h30.53l.411.581.308.343v.154h-2.327V15.23h-.206l-.427-.325-.565-.36V5.083h-3.457Zm-13.297 0H36.64V8.35c0 .856-.257 1.267-1.3 2.003-.206.137-.257.17-.257.308 0 .24 1.078 2.687 4.227 2.687 2.002 0 3.337-.856 3.85-1.284v-.274c0-.616.052-1.283.052-1.283-.291.29-.976.838-2.02.838-1.643 0-3.046-1.694-3.046-2.96 0-1.198.907-2.071 2.19-2.071.702 0 1.096.171 1.404.325l.393 1.01-.102.068c-.394-.222-.787-.36-1.25-.36-.992 0-1.642.6-1.642 1.524 0 .702.547 1.523 1.728 1.523 1.215 0 1.985-.702 2.208-1.078V5.083Zm76.206-1.078.411.581.308.343v.154h-2.379v3.44c0 1.01-.36 1.437-1.386 2.139-.103.051-.205.102-.205.24 0 .307 1.112 1.916 3.08 3.935l-.838.462-1.951-2.515c-1.352-1.78-1.814-2.67-1.986-3.15l.548-.58c.274.119.582.187.89.187.394 0 .667-.188.667-.547V5.083h-4.38V15.23h-.206l-.428-.325-.565-.36V5.083h-3.303v2.242c0 .29-.136.462-.684.462h-2.618c-1.01 0-1.524.462-1.524 1.163 0 .72.548 1.267 1.147 1.267.291-.086 1.865-.582 2.447-.582.65 0 1.061.205 1.49.804.376.548.564 1.147.564 1.694 0 1.387-1.215 2.396-3.012 2.396-1.934 0-3.32-1.095-4.176-2.002l.497-.513c.616.65 1.796 1.42 3.234 1.42 1.831 0 2.584-.958 2.584-1.882 0-.514-.308-.839-.77-.839-.787 0-2.499.65-2.499.65-1.146-.205-2.43-1.625-2.43-3.046 0-.975.753-1.66 2.054-1.66 1.164 0 2.362.137 2.533.154V5.083h-7.428V15.23h-.205l-.428-.325-.564-.36s.044-1.23.05-3.831v-.6h-3.713v1.625h-.667c-.633-.616-1.164-1.523-1.164-2.037 0-.308.171-.445.702-.701 0 0-.046-.645-.051-2.023V5.357c0-.189-.103-.326-.463-.326-.479 0-.89.189-1.215.565l-.29-.514h-1.421v10.149h-.188l-.428-.325-.565-.36v-.016c.008-.168.069-1.658.069-5.066h-3.252c-.24 0-.308.137-.308.804 0 .41.034.822.034.822l-.684.068c-.377-.496-.805-1.42-.805-2.19 0-.394.257-.617.565-.617h4.381V5.083h-6.982V15.23h-.206l-.427-.325-.565-.36V5.083H76.72V15.23h-.205l-.411-.325-.565-.36v-.102l.001-.056.001-.149c.004-.63.011-2.186.014-4.27v-.581l.001-.3v-.617H71.09v.069c1.01.65 2.259 1.608 2.259 2.943 0 1.626-1.54 2.43-3.32 2.345l2.276 2.464-1.267.377-1.865-2.824c-.993-.24-1.66-.787-1.677-2.088l.616-.342 1.352 1.591c1.489.154 2.72-.53 2.72-1.694 0-1.369-1.625-2.379-3.25-3.32l.205-.565h6.4V5.083h-8.3l-.41-.582-.292-.342v-.154h24.627l.029.041a2.22 2.22 0 0 1 .655-.093c.48 0 .89.171 1.37.565.53.445.89.873.89 1.557v2.978h3.662v-3.97h-1.712l-.41-.582-.291-.342v-.154h23.924ZM98.37 0l-1.113 1.095 1.147 1.147 1.112-1.13L98.37 0Z"/></svg>