<?xml version="1.0" encoding="UTF-8"?>
<svg id="Layer_2" data-name="Layer 2" xmlns="http://www.w3.org/2000/svg" viewBox="0 0 121.51 50.29">
  <defs>
    <style>
      .cls-1 {
        fill: #4d4d4d;
        stroke-width: 0px;
      }
    </style>
  </defs>
  <g id="svg2">
    <g id="g3249">
      <g id="g2736">
        <g id="text895">
          <path id="path902" class="cls-1" d="m28.92,1.41c.04-.21,0-.54,0-.79,0-.21-.17-.62-.33-.62s-.29.17-.33.17c-.17,0-.42-.08-.54-.04-.91.66-1.33,1.58-1.25,2.2-.21.37-.29.83-.37,1.04-.42.87-1,1.75-1.37,2.54-.21.46-.83,1.41-.91,1.66-.25.58-.29,1.41-.62,1.87-.08.29-.33.46-.46.62-.17.29-.12.66-.42.75.04.08.12.08.12.17-.08.33-.21.75-.29,1-.21.58-.5,1.21-.5,1.58-.42,1.29-1.45,3.74-1.45,3.91l-.29,1.08.37-.08c.17-.37.5-.87.58-1.25.08-.33.12-.79.29-1.04.08-.08.17-.25.25-.25.08-.21.12-.46.17-.62l-.04-.08c.08-.12.17-.42.17-.5l-.08-.08c.37-.25.71-.91.75-1.21.04-.08.08-.08.08-.08.17-.46.37-1.04.58-1.45.42-.83.91-1.75,1.25-2.24.08-.12.29-.25.33-.33.21-.37.46-.87.62-1.21.17-.25.79-1.04.96-1.37,0-.08-.04-.25-.04-.29.33-.46.66-.96.96-1.37.12-.17.17-.5.29-.58.12-.17.33-.25.37-.33.08-.21.21-.46.17-.62.33-.42.5-.46.58-.79.08-.33,0-.17-.17-.58.29-.21.54-.58.58-.75h0Zm-8.73,17.62l-.12-.21c-.17.08-.33.17-.42.21-.04.12-.21.29-.25.46-.21.75-.46,1.75-.71,2.58-.04.04-.08.12-.12.21-.08.46-.25.96-.37,1.29-.42,1.16-.71,2.62-1.08,3.74-.04.08-.17.25-.21.29,0,.42-.12.91-.21,1.37-.17.21-.46.75-.5.91-.08.33-.04,1.16-.04,1.29,0,.25-.29.54-.37.75-.17.62-.25,1.33-.42,1.91-.04.17.12.33.21.33.08-.29.17-.66.29-.91.17-.33.17-.71.21-1,.5-.5.33-.79.33-1.16.21-.46.46-.91.5-1.08.04-.21,0-.58.08-.87.04-.17-.08-.25-.04-.42.04-.21.25-.17.33-.33.21-.37.12-.83.21-1.25.12-.42.33-.79.5-1.12.17-.46.17-.91.25-1.29.04-.25.25-.71.37-1,.17-.29.33-.66.33-.87,0-.25.04-.62.12-.91.08-.08.12-.17.12-.17.17-.46.33-.96.46-1.29.08-.17.25-.46.25-.58-.04-.21-.12-.42-.04-.54.12-.08.25-.29.33-.33Zm-6.9,27.89c.04-.17,0-.25,0-.42.17-.29.33-.66.29-.83,0-.17-.17-.29-.12-.46.04-.46.21-.91.29-1.37.04-.17-.17-.29-.12-.46.12-.96.5-2.12.83-3.03-.04-.29.17-.54.21-.83-.08-.08-.21-.29-.29-.46l.04-.04v-.08c.08-.08.12-.08.12-.08.04-.08-.08-.08-.04-.29h.08c.04-.17,0-.33.04-.46.08-.17.25-.33.29-.46.12-.33.08-.66.17-.91.04-.17.25-.33.29-.5.04-.21-.08-.29-.17-.37-.25.12-.58.17-.79.12-.17.79-.66,1.91-.75,2.08-.04.21.25.91.21,1.08-.08.21-.83,1.16-.87,1.37-.04.17.08.42.12.46-.04.08-.12.25-.12.33l.08.08c-.17.62-.42.5-.62,1.41-.04.17-.29,2.29-.33,2.49-.12.37-.08.66-.46.79-.12-.5-.25-.62-.12-1.5.04-.29-.17-.62-.21-.83,0-.12.08-.33.08-.46-.08-.5-.25-1.08-.29-1.58v-1.21c.08-.66.33-1.5.33-1.95-.04-.71.17-1.41.25-2.24.04-.42-.04-.96,0-1.41.17-.37.29-.87.37-1.25.21-1.29.46-2.78.62-3.95.08-.66.37-1.75.5-2.41.21-.91.42-2.7.46-2.87.04-.17.17-.25.21-.33.33-1.04.91-2.41,1.25-3.7.08-.33.5-.87.54-1.04.04-.17-.29-.96-.21-1.41.04-.17.12-.42-.08-.54-.21.08-.58.12-.75.08-.54.46-.96.87-1.33,1.37-.17.21-.58.5-.71.66-.75,1.29-1.75,2.62-1.91,4.2-.04.08-.12.21-.21.25-.12.42-.21.91-.33,1.29-.25.54-.54,1.04-.79,1.5-.04.08-.08.25-.08.33.04.37-.08,1-.21,1.25-.04.17-.25.33-.29.5-.08.29-.12.66-.25.87-.17.29-.58.66-.71.91-.29.75-.5,1.87-.83,2.58-.46.91-.5,1.58-1.21,2.29-.29.29-.29.66-.42.83-.33.5-.79.91-1.25,1.21-.04-.08-.08-.17-.17-.17.12-.96,0-1.83.04-2.78.04-.66-.04-1.45-.08-2.12-.04-.42.12-.96.12-1.25,0-1.04-.08-2.08-.12-3.16,0-.46.21-1.29.17-1.66-.04-1.08.04-2.45.12-3.49,0-.17-.12-.37-.12-.54.25-1.54.17-3.2.29-4.24,0-.08.08-.25.12-.29-.04-.46,0-.96-.08-1.37.17-.17.21-.33.21-.42,0-.96.04-2.2.08-3.16.04-.17.21-.33.21-.37.08-1.5.42-2.29.75-3.57.08-.42-.08-.75-.04-1.08,0-.12-.62-.96-1.12-.96-.58,0-1.41.62-2.04,1.5-.12.17-.46.37-.54.58-.21.46-.5,1.33-.54,1.5-.37,1.54-.29,2.54-.33,3.62-.04.62-.17,1.87-.17,2.58,0,1.62.12,3.16.17,4.36.04,2.37-.12,5.11-.12,7.27.04,0,.08.17.08.25-.04.37-.04.79-.04,1.04s-.12.5-.12.71c.04.75.17,1.54.25,2.33.04.5-.12,1.21-.08,1.66.04,1.16.25,2.58.29,3.37,0,.42-.17,1-.17,1.41-.04.37.08.66.08.91,0,.5,0,1.25-.04,1.66-.12,1.25-.5,3.37-.54,4.03,0,.21.12.37.12.54-.17,1.21-.71,2.66-.75,3.78.17.12.54.29.71.29.75,0,2.2-.87,1.87-2.16.17-.25.33-.5.42-.71-.08,0-.12,0-.21-.08.66-.62.66-.83.79-1.41.08-.21.21-.91.17-1.25-.08-.42-.29-.83-.25-1.12.04-.54.25-1.29.42-1.91.54-.54,1.37-.04,1.75-.75.58-1.04,1.08-2.62,1.5-3.57.25-.58.66-2.37.83-2.7.58-1.04,1.21-3.32,1.45-3.95.17-.42.29-.83.37-1.04.08.33.33.96.29,1.12-.04.21-.25.46-.29.62l.21-.08c.17,0,.42,2.16.33,2.41-.04.21,0,.08-.08.08-.08-.29-.21-.58-.29-.87.08-.21,0-.33-.12-.5-.33.75-.33,1.99-.33,2.49,0,.33.21.66.21.87-.37.17-.37.29-.46.58-.04.21-.58,3.99-.54,5.82,0,.96-.37,1.62.62,1.99,0,.17-.12.37-.08.46.12.33.25.79.29,1.12.08.33.37.83.42,1.16,0,.29-.08.75-.08,1,.04.21.29.54.37.75.04.12,0,.37,0,.37.17.21.29.33.25.46.37-.08.79-.37,1.08-.5.17-.04.42-.04.58-.12.29-.17.71-.5.79-.66.17-.33.29-1.12.33-1.29h0Zm-3.2-12.13c-.17-.08-.25-.17-.33-.33l.08-.33c.12,0,.21.21.33.29l-.08.37Z"/>
          <path id="path904" class="cls-1" d="m31.63,19.03c.58-.5-.17-.87-.42-1.21l-.12-.46c-.91,0-1.91.71-2.29,1.5-.21.46.29,1.33.91,1.25.71-.12,1.33-.54,1.91-1.08Zm-1.62,11.89c-.75.25-.91,1.12-1.62,1.16-.42.04-.66-.33-.62-.96v-1.7c0-1.66.83-3.2,1.21-4.78l-.21-.37c-.96.21-2.08.91-2.49,1.79-.37.79-.62,1.12-.91,1.95-.12.42-.46.58-.62.87-.79,1.37-3.57,4.95-2.29,3.82,4.03-3.53,2.54.33,3.57.87,1.16.62,2.54-.54,3.53-1.41.33-.29.83-1.33.46-1.25Z"/>
          <path id="path906" class="cls-1" d="m43.97,20.61c0-.62-1.45.29-1.99.66-.79.54-1.41.91-2.2,1.5-1.29.91-3.03,2.49-4.16,2.29-.79-.12.29-1.62.62-2.37,1-2.37,1.91-4.82,2.95-7.19l-.08-.08c-.79-.21-1.91.25-2.29.96-.96,1.79-1.5,3.62-2.12,5.49-.25.79-.66,1.5-1.04,2.24-.79,1.7-1.37,3.41-2.37,5.15-.62,1.08-2.78,1.79-1.91,2.91.42.58,1.29-1.7,1.54-1.04.5,1.41-1.25,2.91-.75,4.41.25.83,2.08-.17,2.33-1.04.33-1.21.75-1.87.83-2.95.04-.42-.04-1.21.37-.87,1.37,1.08,2.33,2.78,4.36,2.58,1.25-.12,2.54-.33,3.62-.96.21-.12.29-.66.17-.66s-.21.08-.29.12c-1.87.37-3.78-.08-4.78-1.62-.75-1.21-1.83-3.12-.62-4.24,1.41-1.37,3.7-2.41,5.61-3.74.71-.5,2.24-.62,2.2-1.54Z"/>
          <path id="path908" class="cls-1" d="m50.12,19.03c.58-.5-.17-.87-.42-1.21l-.12-.46c-.91,0-1.91.71-2.29,1.5-.21.46.29,1.33.91,1.25.71-.12,1.33-.54,1.91-1.08Zm-1.62,11.89c-.75.25-.91,1.12-1.62,1.16-.42.04-.66-.33-.62-.96v-1.7c0-1.66.83-3.2,1.21-4.78l-.21-.37c-.96.21-2.08.91-2.49,1.79-.37.79-.62,1.12-.91,1.95-.12.42-.46.58-.62.87-.79,1.37-3.57,4.95-2.29,3.82,4.03-3.53,2.54.33,3.57.87,1.16.62,2.54-.54,3.53-1.41.33-.29.83-1.33.46-1.25Z"/>
          <path id="path910" class="cls-1" d="m58.76,30.71c.33-.25-.08-.54-.17-.71l-.04.12c-.83.79-1.58,1.83-2.29,2.45-.46.46-1.33.08-1.62-.42-.62-1.12-.79-2.45-.66-3.82.21-2.78.75-5.07,1.5-7.61.12-.37.21-.58.37-1,.33-1,.42-2.04.58-3.03.25-1.41.79-2.87,1.08-4.32.17-.91-.79,0-1.08.17-1.87,1.08-1.45,3.32-2.2,4.99-.25.5-.25,1.08-.46,1.66-.42,1.33-.37,2.78-1.04,3.99-.75,1.41-1.66,2.54-2.54,3.91-.37.58-1.29,1.12-.75,1.87l.21-.37c1.04-.75,1.25-2.29,2.45-2.83.42-.21.46.5.46.79-.08,1.79.46,3.24.71,4.82.17.91.5,1.95,1.21,2.2,1.21.37,1.95-1.16,3.03-1.79.5-.29.83-.71,1.25-1.08Z"/>
          <path id="path912" class="cls-1" d="m57.47,32c-.04.21.29-.29.46-.46.66-.75,1-1.7,1.99-1.87.71-.08.71.71.71,1.04,0,.25,0,.54.08.79.33.87.58,1.66,1.41,1.7.58.04,1.12-.21,1.66-.62.54-.42.96-1.25,1.75-1.41.71-.12.96.66,1.12,1.12.12.33.21.87.58,1.04.17.04.37.12.54.17.08.04.08-.08.29-.12.83-.04,1.45-.37,2.12-1.16.66-.79,1.29-1.58,1.75-2.49.21-.33.25-.46-.08-.42-.25.29-.5.77-.71,1.06-.08.12-.17.29-.25.42-.37.54-.92,1.07-1.37.94-.71-.29-.62-1.04-.75-1.83-.21-1.62.17-3.62.42-5.19,0-.08-.04-.12-.04-.21,0-.04,0-.12-.04-.21,0-.04,0-.08-.04-.08-.37,0-.58.5-1.12.83-.83.5-1.25,1-1.54,1.79-.29.87-.5,1.79-1.12,2.54-.17.21-.25.54-.37.79-.17.33-.37.87-.96.87-.96-.04-1.08-.96-1.08-1.54,0-.25.04-.54,0-.83,0-.25-.17-.46-.12-.71.04-1,.33-1.75.42-2.62l-.17-1.08c-.29-.08-.54.08-.87.46-.42.42-.87.83-1.33,1.21-.29.25-.08.75-.21,1.08-.25.54-.37,1-.71,1.54-.37.66-2.24,2.2-2.41,3.49Z"/>
          <path id="path914" class="cls-1" d="m89.93,29.84h-.17c-.17.5-.71.5-1.12.54-.58.04-1.04-.25-1.08-.83-.25-2.24.75-4.82.58-7.06-.04-.54.21-1.99-.75-1.33-2.74,1.87-3.86,5.07-5.69,7.61h-.33c.12-.71.08-1.21.04-2.04,0-.75.54-.96.25-1.58-.12-.29.17-.91.21-1.33.21-1.25.58-2.87-.29-3.66-.37-.29-.96.29-1.33.62-.71.62-.87,1.45-1.29,2.24-.5.91-.58,1.95-.96,2.99-.12.42-.21.66-.37,1-.21.5-.21,1.21-.66,1.5-.25.12-.37-.46-.29-.71.21-.5.33-.79.33-1.25-.04-.75.12-1.33.29-2.12.29-1.41.25-3.08,1.75-3.91.21-.12-.17-.29-.25-.46-.12-.33.37-.62.29-.96-.21-1.12.83-3.86-.5-3.45-2.74.83-3.37,4.11-4.41,6.44-.37.79-.71,2.11-.96,2.94-.33.96.46-.2-.9,2.86-.5.95-.28,1-.07.8.22-.22.45-.75.76-1.49.48-1.16,1.07-2.33,1.35-2.54.33-.79.33-2.12,1.37-2.04.66.04,0,1.41-.04,2.04-.08.71-.29,1.5-.42,2.24l.08.08c-.5,1.08-.25,2.54-.75,3.62l-.25,3.91.33.37c1.25.12,1.58-1.21,2.24-1.95.71-.79.5-1.91,1-2.87.25-.5.21-1.08.37-1.58.12-.54.42-.96.5-1.5.17-1,.5-1.99.83-2.95.08-.12.29-.37.42-.25.37.46.08,1.16-.04,1.87-.17,1.04-.25,2.29-.46,3.45-.12.79-.58,1.95-.08,2.58.12.21.58.21.79,0,1.41-1.37,2.41-2.99,3.41-4.61.79-1.25.96-2.78,2.33-3.37.33-.17.37.5.33.79-.04,1.21-.21,1.99-.5,3.08-.08.29,0,.42-.08.91-.21,1.21-.25,2.66.42,3.66.08.12.21.04.54.08.62.08,1.29-.08,1.75-.54.62-.62,1.12-1.12,1.5-1.87h0Z"/>
          <path id="path916" class="cls-1" d="m98.28,31.5c.21-.17.29-.79,0-.79-.33,0-.58.21-.87.33-.54.12-1.33.17-1.54-.33-.5-1.21.25-2.41.29-3.78.04-.46.79-1.16.25-1.25-.87-.08-1.33.87-1.99,1.41v.29c-.42.71-.75,1.45-1.25,2.16-.66.96-1.16,2.87-2.49,2.66-.5-.08-.12-1,0-1.58.21-.75.42-1.41.75-2.04.25-.46.75-.5,1.33-.62,1-.25,1.5-1.62,1.7-2.62.08-.37,0-1-.54-.79-1.25.54-2.2,1.45-2.95,2.62-.58.83-.91,1.79-1.33,2.74-.25.62-.5,1.21-.79,1.83-.25.58-.46,1.29-.37,1.87.08.46.71.54,1.16.37,1.45-.46,2.24-1.75,3.32-2.74.17-.12.46-.33.5-.12.12.71.46,1.58,1.08,1.79,1.33.5,2.66-.58,3.74-1.41Z"/>
          <path id="path918" class="cls-1" d="m111.25,15.04c0-.91-1.41.33-2.12.54-.62.21-.62.83-1,1.37-1.29,1.75-1.62,3.99-2.2,6.03-.54,1.87-2.33,1.87-3.32,3.16h-.17c-1.54,1.29-3.12,2.49-4.57,3.86-.75.71-.33.83,0,.79.12-.17.25-.29.37-.42.42-.33,1.41-1.41,1.58-.79.25.96-1.21,2.74-.25,2.99,1.25.37,2.16-1.54,3.45-2.29.66-.37.46.96.5,1.54.12,1.5.37,2.54.33,3.99,0,.79.33,1.33.66,2.04.12.42.5.62.54,1.12.04.91.83,1.54,1.16,2.37.04.17.12-.04.37,0,.37.04.79-.25.91-.58.5-1.08-1.25-1.29-1.62-2.29-.21-.54-.42-1.04-.62-1.54-.5-1.21-.71-2.54-.54-3.86.12-1,.17-1.87.46-2.78.42-1.45.66-2.99,1.25-4.41.04-.08.04-.12.08-.29.25-1.12.96-2.04,1.41-3.08.54-1.12,1.25-2.12,1.79-3.24.62-1.37,1.54-2.74,1.54-4.24Zm-6.86,11.18c.62.62-.37,1.58-.83,2.2-.71,1-1.29,1.87-2.24,2.58-.12.08-.42.08-.42-.04.04-1.37,1-2.37,1.79-3.41.46-.58,1.16-1.91,1.7-1.33Z"/>
          <path id="path920" class="cls-1" d="m106.89,32c-.04.21.29-.29.46-.46.66-.75,1-1.7,1.99-1.87.71-.08.71.71.71,1.04,0,.25,0,.54.08.79.33.87.58,1.66,1.41,1.7.58.04,1.12-.21,1.66-.62.54-.42.96-1.25,1.75-1.41.71-.12.96.66,1.12,1.12.12.33.21.87.58,1.04.17.04.37.12.54.17.08.04.08-.08.29-.12.83-.04,1.45-.37,2.12-1.16.66-.79,1.29-1.58,1.75-2.49.21-.33.25-.46-.08-.42-.25.29-.37.83-.58,1.12-.08.12-.17.29-.25.42-.37.54-.87,1.12-1.5.87-.71-.29-.62-1.04-.75-1.83-.21-1.62.17-3.62.42-5.19,0-.08-.04-.12-.04-.21,0-.04,0-.12-.04-.21,0-.04,0-.08-.04-.08-.37,0-.58.5-1.12.83-.83.5-1.25,1-1.54,1.79-.29.87-.5,1.79-1.12,2.54-.17.21-.25.54-.37.79-.17.33-.37.87-.96.87-.96-.04-1.08-.96-1.08-1.54,0-.25.04-.54,0-.83,0-.25-.17-.46-.12-.71.04-1,.33-1.75.42-2.62l-.17-1.08c-.29-.08-.54.08-.87.46-.42.42-.87.83-1.33,1.21-.29.25-.08.75-.21,1.08-.25.54-.37,1-.71,1.54-.37.66-2.24,2.2-2.41,3.49Z"/>
        </g>
      </g>
    </g>
  </g>
</svg>