<svg xmlns="http://www.w3.org/2000/svg" width="112" height="21"><path fill="#000" fill-rule="nonzero" d="m86.647 5.151.041.038v.37c0 .116-.08.15-.162.156l-.59.037c-.607.041-.734.26-.748.86l-.002 9.627c0 .67.394.903.736.979l.078.015c.439.073.596.138.608.37l.141 2.885-.48.01c-.068.005-.068.002-.068.002l-.068-.263c-.297-1.074-1.036-2.476-2.529-2.476h-5.882c-1.686 0-2.212 1.734-2.436 2.747l-.548-.02.142-2.884c.014-.233.226-.342.427-.371l.284-.046c.273-.052.51-.131.73-.344.53-.508.894-1.91 1.543-4.95l.148-.775c.35-1.91.541-3.6.541-4.681 0-.41-.183-.613-.71-.663l-.608-.059c-.103 0-.162-.04-.162-.117v-.409l.04-.038 1.66.035.252.003 5.786-.003c.723-.008 1.836-.035 1.836-.035zM112 .027v.576c0 .11-.055.19-.188.19L111 .85l-.316.028c-.878.1-1.119.34-1.119 1.179v13.697c0 .778.315 1.091 1.283 1.193l.909.073c.106 0 .216.08.216.218v.522l-.054.056-2.96-.054a49.425 49.425 0 0 0-.448-.002l-1.835.023c-.864.015-1.653.033-1.653.033l-.055-.056v-.522c0-.137.081-.218.218-.218l.702-.058c1.137-.087 1.487-.438 1.487-1.208v-6.89c-2.703 0-3.338.709-4.354 3.23l-.406 1.027c-1.075 2.697-2.067 4.638-3.867 4.666l-1.786.026-.025-.055v-.522l-.002-.001.007-.062c.017-.078.066-.13.13-.148l.295-.035c.84-.104 2.127-1.513 3.471-4.943l.126-.328c.678-1.783 1.488-2.47 2.22-2.909v-.082c-1.841-.273-4.03-1.647-4.03-4.447l.005-.234c.077-1.848 1.12-4.02 5.944-4.02l3.148.026L112 .027zM6.99 0c5.031 0 5.815 2.388 5.815 4.225 0 1.492-1.214 2.901-2.568 3.597v.056c2.353.687 4.165 2.195 4.165 4.831 0 2.359-1.435 5.107-6.817 5.107l-1.468-.009c-1.176-.015-1.607-.047-2.48-.047l-.846.004c-.918.008-1.639.03-2.67.052-.162-.165-.162-.742 0-.907l.34-.016c1.61-.091 2.014-.346 2.014-2.482V3.404L2.47 3C2.412 1.11 1.897.984.122.906-.041.742-.041.166.122 0l1.745.037C2.4.048 2.935.056 3.61.056 4.773.056 6.043 0 6.99 0zm52.246 5.151c.123.115.123.525 0 .642l-.298.015c-1.17.068-1.467.26-1.467 1.76v7.816l.006.335c.05 1.297.445 1.385 1.76 1.44.122.115.122.526 0 .642l-1.61-.031c-.312-.004-.64-.007-1.027-.007l-.786.005c-.6.007-1.108.02-1.831.033-.122-.115-.122-.526 0-.642l.298-.015c1.124-.064 1.442-.246 1.466-1.586l.001-8.145c0-1.208-.445-1.441-.935-1.441h-3.995c-.487 0-.934.231-.934 1.44v7.972l.006.335c.05 1.297.444 1.385 1.76 1.44.121.115.121.526 0 .642l-1.481-.03a70.995 70.995 0 0 0-1.137-.008l-.708.004c-.655.006-1.184.021-1.93.034-.121-.115-.121-.526 0-.642l.299-.015c1.124-.064 1.442-.246 1.466-1.586l.001-7.99c0-1.617-.344-1.715-1.765-1.775-.122-.116-.122-.526 0-.642l2.498.038 8.04-.001c.585-.005 1.46-.022 2.303-.037zm-25.338-.078c1.074 0 1.441.565 1.441 1.013 0 .566-.467.78-.893.78-.264 0-.548-.097-.75-.292-.225-.215-.387-.314-.648-.314-.528 0-.704.485-.81.98l-.108.553c-.242 1.167-.72 2.607-2.128 3.106v.099c1.333 0 2.115.76 2.66 2.01l.079.192c1.057 2.63 2.09 3.957 2.8 4.014l.324.02c.101 0 .161.06.161.155v.371l-.02.038-1.604-.02c-1.466-.019-2.2-1.374-2.993-3.275l-.346-.839c-.7-1.66-1.177-2.22-3.335-2.22v4.932c0 .545.266.732.96.804l.683.052c.08 0 .162.06.162.155v.371l-.041.038-.671-.022c-.416-.01-.787-.014-1.213-.015h-1.49l-.598.004c-.394.005-.788.015-1.262.033l-.04-.038v-.369c0-.097.062-.155.142-.155l.549-.038c.852-.062 1.096-.274 1.096-.818V6.574c0-.585-.306-.76-1.096-.82l-.527-.037c-.082 0-.163-.06-.163-.156v-.37l.041-.038 1.493.03c.233.003.47.006.732.007l.412.001c1.014 0 1.604-.02 2.598-.038l.04.038v.37c0 .1-.06.156-.162.156l-.526.037c-.812.062-1.116.274-1.116.82v4.053c.73 0 1.643-.02 2.13-.292 1.131-.588 1.448-1.735 1.632-2.778l.032-.183c.203-1.208.771-2.301 2.373-2.301zm60.664.074c.12.116.12.526 0 .644l-.298.015c-1.125.064-1.443.245-1.466 1.586l-.002 7.99c0 1.617.346 1.717 1.766 1.774.12.114.12.526 0 .642l-1.48-.029a69.128 69.128 0 0 0-1.136-.009l-.71.003c-.654.007-1.183.022-1.929.035-.12-.115-.12-.527 0-.642l.299-.015c1.171-.068 1.467-.261 1.467-1.76V7.566l-.006-.335c-.051-1.298-.444-1.386-1.76-1.44-.12-.117-.12-.527 0-.644l1.481.031c.23.004.465.007.725.008l.41.001c1.036 0 1.645-.02 2.639-.04zm-51.009 0c.121.116.121.526 0 .644l-.298.015c-1.124.064-1.443.245-1.467 1.586l-.001 7.99c.003 1.617.346 1.717 1.766 1.774.121.114.121.526 0 .642l-1.481-.029a69.146 69.146 0 0 0-1.136-.009l-.709.003c-.654.007-1.183.022-1.928.035-.122-.115-.122-.527 0-.642l.298-.015c1.124-.065 1.443-.246 1.467-1.586l.001-7.99c0-1.618-.345-1.715-1.766-1.774-.122-.117-.122-.527 0-.644l1.481.031c.23.004.466.007.725.008l.411.001c1.035 0 1.643-.02 2.637-.04zm-21.587 0c.122.116.122.526 0 .644l-.298.015c-1.125.064-1.444.245-1.467 1.586l-.002 7.99c.001 1.617.347 1.717 1.767 1.774.122.114.122.526 0 .642l-1.482-.029a69.146 69.146 0 0 0-1.135-.009l-.71.003c-.654.007-1.182.022-1.928.035-.122-.115-.122-.527 0-.642l.299-.015c1.124-.065 1.443-.246 1.466-1.586l.002-7.99c0-1.618-.346-1.715-1.767-1.774-.122-.117-.122-.527 0-.644l1.482.031c.23.004.465.007.725.008l.41.001c1.036 0 1.644-.02 2.638-.04zm48.71-.039c.046 0 .07.011.078.033l.041.217c.095.528.324 1.961.409 2.634-.2.09-.42.133-.67.098l-.17-.497c-.381-1.038-.8-1.626-2.123-1.626h-2.13c-.486 0-.73.389-.73.855v3.9h1.846c1.73.001 1.79-.252 1.85-1.324.124-.117.549-.117.672 0l-.029.809c-.005.175-.009.355-.01.553l-.002.314c0 .662.02 1.033.04 1.716-.122.115-.547.115-.67 0l-.025-.297c-.075-.682-.304-1.03-1.822-1.03h-1.846v4.698c0 .526.283.837.73.837h2.76c1.542 0 2.25-1.149 2.656-2.553a.95.95 0 0 1 .71.098 30.1 30.1 0 0 1-.75 3.254l-1.952-.034c-.229-.003-.45-.004-.645-.004l-4.712.005c-.537.007-1.58.02-2.289.033-.12-.115-.12-.526 0-.643l.435-.023c1.058-.076 1.33-.312 1.33-1.75V7.563l-.005-.335c-.051-1.297-.444-1.385-1.76-1.44-.12-.116-.12-.526 0-.642l2.575.038h5.215c.486 0 .648-.02.993-.077zm12.037.86h-2.497c-.547 0-.75.273-.79.76-.164 1.97-.487 3.995-.73 5.32l-.217 1.063c-.379 1.796-.736 3.212-.736 3.556 0 .232.264.331.548.331h4.442c.487 0 .73-.06.73-.78V6.727c0-.604-.121-.758-.75-.758zM6.64 8.646H4.773v6.422c0 .906.353 1.84 2.244 1.84 4.112 0 4.869-1.673 4.869-3.678 0-2.47-1.542-4.584-5.247-4.584zM104.914.989l-.28.005c-1.477.056-3.29.588-3.29 2.986 0 2.909 1.677 3.842 3.922 3.842h2.109V1.978c0-.908-.107-.99-2.46-.99zM7.128.934l-.44.004c-1.914.035-1.914.33-1.914 1.177l-.001 5.598h2.002c2.244 0 3.84-.824 3.84-3.156 0-2.8-1.973-3.623-3.487-3.623z"/></svg>