<svg xmlns="http://www.w3.org/2000/svg" width="112" height="14"><path fill="#000" fill-rule="nonzero" d="M3.745 4.718H2.471v-2.52c0-.616.168-.896.924-.896h1.05c1.05 0 1.274.56 1.582 1.526a.78.78 0 0 0 .462-.07c-.07-.574-.28-1.918-.308-2.03 0-.028-.014-.042-.056-.042-.238.042-.35.056-.686.056h-3.57C1.442.742.623.728.063.714c-.084.084-.084.378 0 .462.98.042 1.218.112 1.218 1.274v5.614c0 1.162-.238 1.232-1.218 1.274-.084.084-.084.378 0 .462a84.025 84.025 0 0 1 1.82-.028h3.01c.672 0 1.792.028 1.792.028.196-.7.406-1.624.518-2.338a.645.645 0 0 0-.49-.07c-.28 1.008-.77 1.834-1.834 1.834H3.255c-.588 0-.784-.224-.784-.882V5.25h1.274c1.19 0 1.232.322 1.274.952.084.084.378.084.462 0a30.279 30.279 0 0 1-.028-1.232c0-.392.014-.868.028-1.204-.084-.084-.378-.084-.462 0-.042.77-.084.952-1.274.952Zm6.54.042c-.085.098-.164.132-.168 0-.014-.378-.046-.92-.112-1.064-.03-.064-.056-.112-.168-.112-.392.154-.756.28-1.722.406-.028.084 0 .308.028.392.756.07.91.14.91.952v2.73c0 1.148-.14 1.204-.98 1.274-.084.084-.084.378 0 .462a38.698 38.698 0 0 1 2.94 0c.084-.084.084-.378 0-.462-.714-.07-.854-.126-.854-1.274V5.768c0-.294.126-.462.238-.588.532-.518 1.162-.826 1.708-.826.28 0 .574.182.742.504.14.28.168.658.168 1.078v2.128c0 1.148-.14 1.204-.868 1.274-.07.084-.07.378 0 .462a40.4 40.4 0 0 1 1.428-.028c.56 0 1.064.014 1.484.028.07-.084.07-.378 0-.462-.784-.07-.938-.126-.938-1.274V5.978c0-.77-.056-1.442-.378-1.876-.238-.308-.672-.476-1.162-.476-.686 0-1.466.182-2.296 1.134Zm5.784 3.08c.056.686.098 1.344.098 1.932.14-.028.28-.042.35-.042.098 0 .182 0 .28.028.378.098.756.154 1.274.154.784 0 2.226-.378 2.226-1.764 0-.956-.686-1.512-1.638-1.865-.843-.312-1.4-.529-1.4-1.299 0-.574.504-.896.98-.896.308 0 1.12.112 1.302 1.302.084.084.364.07.448-.014.042-.504.07-1.022.084-1.484-.434-.07-1.106-.266-1.834-.266-1.036 0-1.974.672-1.974 1.568 0 1.022.462 1.456 1.54 1.904 1.162.476 1.428.77 1.428 1.372 0 .686-.672.98-1.19.98-.546 0-.85-.186-.994-.336-.308-.322-.462-.938-.546-1.288-.084-.084-.35-.07-.434.014ZM22.931.532a.916.916 0 0 0-.448 0c-.406.644-1.05 1.4-1.554 1.96.084.126.182.21.308.238.546-.308 1.008-.714 1.456-1.162.42.434.91.826 1.442 1.162.132-.027.252-.14.322-.238-.504-.56-1.12-1.302-1.526-1.96Zm.56 7.532v-2.79c0-.696.056-1.592.056-1.592 0-.056-.07-.098-.182-.098-.399.154-.952.28-1.918.406-.028.084 0 .308.028.392.763.071.91.154.91.952v2.73c0 1.162-.154 1.204-1.008 1.274-.084.084-.084.378 0 .462a51.948 51.948 0 0 1 1.568-.028c.56 0 1.092.014 1.554.028.084-.084.084-.378 0-.462-.854-.056-1.008-.112-1.008-1.274Zm2.564 0c0 1.162-.154 1.218-.938 1.274-.084.084-.084.378 0 .462.462-.014.938-.028 1.498-.028.49 0 .952.014 1.274.028.084-.084.084-.378 0-.462-.574-.056-.728-.112-.728-1.274V6.847c.269.007.466.028.602.076.154.105.281.231.448.455l1.022 1.372c.412.553.57.816.588.98.004.042.014.07.056.07.28-.014.588-.028.868-.028.434 0 .868.014 1.148.028.084-.084.084-.378 0-.462-.476-.056-.83-.118-1.204-.588l-1.848-2.324c-.05-.063-.098-.126-.098-.196 0-.056 0-.084.056-.14l1.232-1.274c.42-.448.91-.56 1.47-.616.084-.084.084-.378 0-.462a26.88 26.88 0 0 1-1.218.028c-.532 0-1.05-.014-1.372-.028-.084.084-.084.378 0 .462.784.056.452.55.322.714-.322.406-.76.882-1.12 1.148-.31.23-.687.395-.952.431V1.61c0-.91.056-1.47.056-1.47 0-.098-.056-.14-.182-.14-.35.14-1.4.336-1.96.378-.028.112 0 .336.084.42.728.042.896-.028.896 1.148v6.118Zm7.394 0c0 1.162-.154 1.232-1.008 1.274-.084.084-.084.378 0 .462a53.71 53.71 0 0 1 1.568-.028c.56 0 1.092.014 1.554.028.084-.084.084-.378 0-.462-.854-.042-1.008-.112-1.008-1.274V1.61c0-.91.056-1.47.056-1.47 0-.098-.056-.14-.182-.14-.35.14-1.4.336-1.96.378-.028.112 0 .336.084.42.812.056.896.098.896 1.148v6.118Zm3.04-1.162c0 1.428.952 3.01 2.94 3.01.902 0 1.58-.318 2.057-.784.627-.613.911-1.494.911-2.352 0-1.456-.798-3.15-2.94-3.15-.921 0-1.681.378-2.194.98-.508.596-.774 1.411-.774 2.296Zm2.758-2.786c1.204 0 1.946 1.092 1.946 3.108 0 1.764-.91 2.198-1.568 2.198-1.456 0-1.932-1.764-1.932-2.842 0-1.218.294-2.464 1.554-2.464Zm6.274 1.022c.364-.448 1.005-.868 1.414-.868.896 0 1.666 1.008 1.666 2.59 0 1.148-.406 2.576-1.974 2.576-.252 0-.742-.07-.994-.295-.281-.252-.336-.334-.336-.839V5.754c0-.294.062-.416.224-.616Zm-.266-.518c-.021-.42-.046-.78-.112-.924-.03-.064-.056-.112-.168-.112-.392.154-.756.28-1.722.406-.028.084 0 .308.028.392.756.07.91.14.91.952v5.978c0 1.162-.154 1.232-1.008 1.274-.084.084-.084.378 0 .462a53.71 53.71 0 0 1 1.568-.028c.56 0 1.232.014 1.694.028.084-.084.084-.378 0-.462-.994-.056-1.148-.112-1.148-1.274V9.8c0-.182.053-.164.196-.105.343.139.776.217 1.218.217.784 0 1.484-.238 2.058-.784.658-.644 1.036-1.512 1.036-2.646 0-1.484-1.05-2.856-2.478-2.856-.651 0-1.365.427-1.918 1.05-.078.088-.147.078-.154-.056Zm7.016 1.204c.266-1.582 1.246-1.708 1.582-1.708.532 0 1.162.294 1.162 1.47 0 .126-.056.193-.21.196l-2.534.042Zm3.668 2.646c-.518.532-.924.756-1.736.756-.504 0-1.092-.294-1.526-1.008-.28-.462-.448-1.106-.448-1.918l3.724.028c.168 0 .266-.084.266-.238 0-1.176-.42-2.436-2.366-2.436-1.218 0-2.8 1.162-2.8 3.29 0 .784.196 1.54.658 2.072.476.56 1.134.896 2.142.896 1.064 0 1.82-.49 2.38-1.218-.042-.14-.126-.21-.294-.224Zm5.882-.434c0 .266-.027.375-.224.546-.518.448-.966.672-1.316.672-.756 0-1.54-.826-1.54-2.576 0-1.008.196-1.568.406-1.862.434-.658 1.022-.7 1.302-.7.504 0 .854.182 1.134.504.196.224.238.322.238.756v2.66Zm-.154 1.032c.067-.055.2-.08.21.018.035.343.154.826.154.826a.319.319 0 0 0 .266 0c.308-.252.798-.462 1.652-.56.084-.084.084-.294 0-.378-.896-.07-1.022-.336-1.022-1.022V1.61c0-.91.056-1.47.056-1.47 0-.098-.056-.14-.182-.14-.35.14-1.4.336-1.96.378-.028.112 0 .336.084.42.728.042.896-.028.896 1.148v1.792c0 .098-.028.126-.126.126-.056 0-.63-.238-1.092-.238-.924 0-1.54.308-2.1.84-.602.602-.966 1.428-.966 2.464 0 1.722.868 2.982 2.38 2.982.546 0 1.064-.28 1.75-.844Zm3.768-7.682c0 .364.336.728.672.728.392 0 .728-.377.728-.672 0-.336-.294-.728-.672-.728-.336 0-.728.336-.728.672Zm1.274 6.678v-2.79c0-.696.056-1.592.056-1.592 0-.056-.07-.098-.182-.098-.399.154-.952.28-1.918.406-.028.084 0 .308.028.392.763.071.91.154.91.952v2.73c0 1.162-.154 1.204-1.008 1.274-.084.084-.084.378 0 .462a51.948 51.948 0 0 1 1.568-.028c.56 0 1.092.014 1.554.028.084-.084.084-.378 0-.462-.854-.056-1.008-.112-1.008-1.274Zm4.216 3.948c.218-.39.402-.79.574-1.204 1.12-2.702 1.747-4.138 2.478-5.712.276-.592.476-.816 1.134-.896.084-.084.084-.378 0-.462-.28.014-.602.028-.994.028-.42 0-.854-.014-1.274-.028-.084.084-.084.378 0 .462.442.042.896.126.672.63l-1.389 3.206c-.098.225-.215.263-.334-.014L70.55 5.11c-.252-.59-.325-.85.459-.91.084-.084.084-.378 0-.462a60.69 60.69 0 0 1-1.582.028c-.476 0-.854-.014-1.134-.028-.084.084-.084.378 0 .462.556.07.738.196 1.105 1.05l1.583 3.682c.122.281.336.924.196 1.316-.167.468-.336.854-.546 1.288-.154.28-.35.406-.7.406-.196 0-.252-.042-.406-.042-.406 0-.616.42-.616.602 0 .294.28.518.658.518.294 0 .854-.112 1.358-1.008Zm8.556-5.502v1.848c0 .182-.084.28-.196.364-.364.294-.84.616-1.232.616-.7 0-1.008-.56-1.008-.994 0-.63.294-1.274 1.33-1.54l1.106-.294Zm0 2.59c.084.434.232.812.938.812.536 0 1.04-.238 1.33-.518-.024-.172-.08-.29-.238-.378-.105.087-.34.224-.518.224-.406 0-.42-.546-.42-1.19V5.992c0-1.988-1.092-2.366-2.114-2.366-1.148 0-2.31.756-2.31 1.554 0 .336.168.504.49.504.406 0 .658-.294.658-.476a.63.63 0 0 0-.042-.252.968.968 0 0 1-.028-.28c0-.434.588-.588 1.12-.588.476 0 1.134.238 1.134 1.82 0 .098-.042.154-.084.168l-1.204.294c-1.344.336-2.31 1.078-2.31 2.03 0 1.148.784 1.512 1.764 1.512.487 0 .91-.112 1.526-.588l.28-.224h.028Zm10.098-2.59v1.848c0 .182-.084.28-.196.364-.364.294-.84.616-1.232.616-.7 0-1.008-.56-1.008-.994 0-.63.294-1.274 1.33-1.54l1.106-.294Zm0 2.59c.084.434.232.812.938.812.536 0 1.04-.238 1.33-.518-.024-.172-.08-.29-.238-.378-.105.087-.34.224-.518.224-.406 0-.42-.546-.42-1.19V5.992c0-1.988-1.092-2.366-2.114-2.366-1.148 0-2.31.756-2.31 1.554 0 .336.168.504.49.504.406 0 .658-.294.658-.476a.63.63 0 0 0-.042-.252.968.968 0 0 1-.028-.28c0-.434.588-.588 1.12-.588.476 0 1.134.238 1.134 1.82 0 .098-.042.154-.084.168l-1.204.294c-1.344.336-2.31 1.078-2.31 2.03 0 1.148.784 1.512 1.764 1.512.487 0 .91-.112 1.526-.588l.28-.224h.028Zm3.39-5.474c-.034 0-.084.05-.084.084-.014.63-.084 1.12-.21 1.806a.8.8 0 0 0 .462.042c.28-1.022.714-1.264 1.134-1.274l1.792-.042c-.952 1.596-2.352 3.612-3.444 5.082-.12.162-.126.21-.126.28 0 .098.112.168.322.168l4.368.042c.168-.476.35-1.204.448-1.904a.929.929 0 0 0-.42-.084l-.196.406c-.357.74-.643 1.047-1.372 1.064h-1.862c1.036-1.316 2.492-3.514 3.36-4.942.214-.353.252-.462.252-.518 0-.056-.07-.098-.168-.098-.07 0-.462.028-.868.028h-2.562c-.45 0-.623-.064-.826-.14Zm9.144 2.884v1.848c0 .182-.084.28-.196.364-.364.294-.84.616-1.232.616-.7 0-1.008-.56-1.008-.994 0-.63.294-1.274 1.33-1.54l1.106-.294Zm0 2.59c.084.434.232.812.938.812.536 0 1.04-.238 1.33-.518-.024-.172-.08-.29-.238-.378-.105.087-.34.224-.518.224-.406 0-.42-.546-.42-1.19V5.992c0-1.988-1.092-2.366-2.114-2.366-1.148 0-2.31.756-2.31 1.554 0 .336.168.504.49.504.406 0 .658-.294.658-.476a.63.63 0 0 0-.042-.252.968.968 0 0 1-.028-.28c0-.434.588-.588 1.12-.588.476 0 1.134.238 1.134 1.82 0 .098-.042.154-.084.168l-1.204.294c-1.344.336-2.31 1.078-2.31 2.03 0 1.148.784 1.512 1.764 1.512.487 0 .91-.112 1.526-.588l.28-.224h.028Zm7.226-1.064c0 .266-.027.375-.224.546-.518.448-.966.672-1.316.672-.756 0-1.54-.826-1.54-2.576 0-1.008.196-1.568.406-1.862.434-.658 1.022-.7 1.302-.7.504 0 .854.182 1.134.504.196.224.238.322.238.756v2.66Zm-.154 1.032c.067-.055.2-.08.21.018.035.343.154.826.154.826a.319.319 0 0 0 .266 0c.308-.252.798-.462 1.652-.56.084-.084.084-.294 0-.378-.896-.07-1.022-.336-1.022-1.022V1.61c0-.91.056-1.47.056-1.47 0-.098-.056-.14-.182-.14-.35.14-1.4.336-1.96.378-.028.112 0 .336.084.42.728.042.896-.028.896 1.148v1.792c0 .098-.028.126-.126.126-.056 0-.63-.238-1.092-.238-.924 0-1.54.308-2.1.84-.602.602-.966 1.428-.966 2.464 0 1.722.868 2.982 2.38 2.982.546 0 1.064-.28 1.75-.844Z"/></svg>