<svg xmlns="http://www.w3.org/2000/svg" width="120" height="13"><path fill="#000" fill-rule="nonzero" d="M6.516 9.552c.191-.682.396-1.583.505-2.279a.629.629 0 0 0-.478-.068c-.273.983-.75 1.788-1.787 1.788H3.173c-.573 0-.764-.219-.764-.86V5.117H3.65c1.16 0 1.201.314 1.242.928.082.082.369.082.45 0a29.513 29.513 0 0 1-.027-1.2c0-.383.014-.847.027-1.174-.081-.082-.368-.082-.45 0-.04.75-.082.928-1.242.928H2.41V2.142c0-.6.163-.873.9-.873h1.024c1.023 0 1.241.546 1.542 1.487a.76.76 0 0 0 .45-.068c-.068-.56-.273-1.87-.3-1.978 0-.028-.014-.041-.055-.041-.232.04-.341.054-.669.054h-3.48C1.407.723.608.71.062.696c-.081.082-.081.368 0 .45.956.041 1.188.11 1.188 1.242V7.86c0 1.133-.232 1.2-1.188 1.242-.081.082-.081.368 0 .45a81.9 81.9 0 0 1 1.774-.027H4.77c.655 0 1.747.027 1.747.027Zm8.59 0c.068-.082.068-.368 0-.45-.765-.068-.915-.123-.915-1.242V5.827c0-.75-.054-1.406-.368-1.829-.232-.3-.655-.464-1.133-.464-.668 0-1.429.178-2.238 1.106-.083.095-.16.128-.163 0-.014-.369-.045-.897-.11-1.037-.028-.063-.054-.11-.163-.11-.382.15-.737.273-1.679.396-.027.082 0 .3.027.382.737.068.887.137.887.928V7.86c0 1.119-.136 1.174-.955 1.242-.082.082-.082.368 0 .45a37.719 37.719 0 0 1 2.866 0c.082-.082.082-.368 0-.45-.696-.068-.833-.123-.833-1.242V5.622c0-.286.123-.45.232-.573.519-.505 1.133-.805 1.665-.805.273 0 .56.177.723.491.137.273.164.642.164 1.05V7.86c0 1.119-.136 1.174-.846 1.242-.068.082-.068.368 0 .45.41-.013.846-.027 1.392-.027.546 0 1.037.014 1.447.027Zm3.022.11c.627 0 1.31-.3 1.842-.901-.027-.14-.11-.219-.246-.232a1.847 1.847 0 0 1-1.119.382c-.368 0-.45-.41-.45-1.256V4.203h1.42c.136 0 .327-.055.327-.177v-.273c0-.055-.041-.082-.11-.082h-1.637v-.532c0-.887.054-1.433.054-1.433 0-.088-.04-.12-.105-.12-.061 0-.177.053-.304.122a2.03 2.03 0 0 1-.464.193c-.164.046-.3.093-.3.187v.038c.007.117.04.168.04 1.543l-.627.002c-.19 0-.245.164-.245.273v.177c0 .068.013.082.068.082h.805V8.31c0 .97.423 1.351 1.05 1.351Zm7.648-.096c.163-.464.34-1.174.436-1.856a.905.905 0 0 0-.41-.082l-.19.396c-.348.72-.626 1.02-1.337 1.037H22.46c1.01-1.283 2.429-3.425 3.275-4.817.209-.344.245-.45.245-.505 0-.055-.068-.096-.163-.096-.061 0-.37.022-.715.027h-2.629c-.438 0-.607-.062-.805-.136-.033 0-.082.05-.082.082-.013.614-.082 1.092-.204 1.76a.78.78 0 0 0 .45.041c.273-.996.696-1.232 1.105-1.241l1.747-.041c-.928 1.555-2.293 3.52-3.357 4.953-.117.159-.123.205-.123.273 0 .096.11.164.314.164l4.258.04Zm3.117-7.505c.382 0 .71-.368.71-.655 0-.328-.287-.71-.655-.71-.328 0-.71.327-.71.655 0 .355.328.71.655.71Zm1.57 7.491c.081-.082.081-.368 0-.45-.833-.055-.983-.11-.983-1.242V5.14c0-.678.055-1.551.055-1.551 0-.055-.069-.096-.178-.096-.389.15-.928.273-1.87.396-.027.082 0 .3.028.382.744.07.887.15.887.928V7.86c0 1.133-.15 1.174-.983 1.242-.081.082-.081.368 0 .45.45-.013.983-.027 1.529-.027.546 0 1.064.014 1.515.027Zm7.634 0c.082-.082.082-.368 0-.45-.464-.055-.81-.115-1.174-.573l-1.8-2.266c-.05-.06-.096-.122-.096-.19 0-.055 0-.082.054-.137l1.201-1.242c.41-.436.887-.546 1.433-.6.082-.082.082-.369 0-.45a26.2 26.2 0 0 1-1.187.027c-.519 0-1.024-.014-1.338-.028-.082.082-.082.369 0 .45.764.055.441.537.314.697-.314.395-.74.86-1.091 1.119-.303.223-.67.385-.928.42v-4.76c0-.887.054-1.433.054-1.433 0-.095-.054-.136-.177-.136-.341.136-1.365.328-1.91.368-.028.11 0 .328.081.41.71.04.874-.027.874 1.119V7.86c0 1.133-.15 1.187-.915 1.242-.082.082-.082.368 0 .45.45-.013.915-.027 1.46-.027.478 0 .928.014 1.242.027.082-.082.082-.368 0-.45-.56-.055-.71-.11-.71-1.242V6.674c.263.007.455.028.587.074.15.102.275.225.437.443l.996 1.338c.401.539.556.795.573.955.004.04.014.068.055.068.273-.013.573-.027.846-.027.423 0 .846.014 1.119.027Zm4.004 0c.082-.082.082-.368 0-.45-.832-.041-.982-.11-.982-1.242V1.57c0-.888.055-1.434.055-1.434 0-.095-.055-.136-.178-.136-.341.136-1.364.328-1.91.368-.028.11 0 .328.082.41.791.054.873.095.873 1.119V7.86c0 1.133-.15 1.2-.983 1.242-.081.082-.081.368 0 .45.478-.013.983-.027 1.529-.027.546 0 1.064.014 1.514.027Zm4.196.11c.879 0 1.54-.31 2.005-.765.611-.598.888-1.456.888-2.292 0-1.42-.778-3.07-2.866-3.07-.898 0-1.639.368-2.138.955-.495.58-.755 1.375-.755 2.237 0 1.392.928 2.934 2.866 2.934Zm.191-.478c-1.419 0-1.883-1.72-1.883-2.77 0-1.188.287-2.402 1.515-2.402 1.173 0 1.896 1.064 1.896 3.03 0 1.719-.887 2.142-1.528 2.142Zm7.075 3.534c.082-.082.082-.368 0-.45-.969-.055-1.119-.11-1.119-1.242V9.552c0-.177.052-.16.191-.102.334.135.756.211 1.187.211.764 0 1.447-.232 2.006-.764.642-.628 1.01-1.474 1.01-2.579 0-1.446-1.023-2.784-2.415-2.784-.635 0-1.33.417-1.87 1.024-.076.086-.143.076-.15-.055-.02-.41-.045-.76-.109-.9-.029-.063-.055-.11-.164-.11-.382.15-.737.273-1.678.396-.028.082 0 .3.027.382.737.068.887.137.887.928v5.827c0 1.133-.15 1.2-.982 1.242-.082.082-.082.368 0 .45.477-.014.982-.027 1.528-.027s1.2.013 1.651.027Zm.177-3.52c-.245 0-.723-.069-.968-.289-.275-.245-.328-.324-.328-.817V5.608c0-.286.06-.405.218-.6.355-.437.98-.846 1.379-.846.873 0 1.624.983 1.624 2.525 0 1.118-.396 2.51-1.925 2.51Zm7.471.463c1.037 0 1.774-.477 2.32-1.187-.041-.136-.123-.205-.287-.218-.505.518-.9.737-1.692.737-.491 0-1.064-.287-1.487-.983-.273-.45-.437-1.078-.437-1.87l3.63.028c.164 0 .26-.082.26-.232 0-1.146-.41-2.374-2.307-2.374-1.187 0-2.73 1.132-2.73 3.206 0 .765.192 1.501.642 2.02.464.546 1.106.873 2.088.873ZM59.67 5.677c.26-1.542 1.215-1.665 1.542-1.665.519 0 1.133.286 1.133 1.433 0 .123-.055.188-.205.19l-2.47.042Zm10.2 3.984c.3-.245.778-.45 1.61-.545.082-.082.082-.287 0-.369-.873-.068-.996-.327-.996-.996V1.569c0-.887.055-1.433.055-1.433 0-.095-.055-.136-.178-.136-.341.136-1.364.328-1.91.368-.028.11 0 .328.082.41.71.04.873-.027.873 1.119v1.746c0 .096-.027.123-.123.123-.054 0-.614-.232-1.064-.232-.9 0-1.501.3-2.047.82-.587.586-.942 1.391-.942 2.4 0 1.68.846 2.907 2.32 2.907.532 0 1.037-.273 1.706-.823.065-.053.195-.077.205.018.034.335.15.805.15.805a.31.31 0 0 0 .259 0Zm-1.965-.641c-.737 0-1.501-.805-1.501-2.51 0-.983.19-1.53.396-1.816a1.431 1.431 0 0 1 1.269-.682c.49 0 .832.177 1.105.491.191.219.232.314.232.737v2.593c0 .26-.026.365-.218.532-.505.437-.942.655-1.283.655Zm6.106-6.96c.382 0 .71-.367.71-.654 0-.328-.287-.71-.655-.71-.328 0-.71.327-.71.655 0 .355.327.71.655.71Zm1.57 7.492c.081-.082.081-.368 0-.45-.833-.055-.983-.11-.983-1.242V5.14c0-.678.054-1.551.054-1.551 0-.055-.068-.096-.177-.096-.389.15-.928.273-1.87.396-.027.082 0 .3.028.382.743.07.887.15.887.928V7.86c0 1.133-.15 1.174-.983 1.242-.082.082-.082.368 0 .45.45-.013.983-.027 1.529-.027.545 0 1.064.014 1.514.027Zm5.682.11c.523 0 1.014-.233 1.297-.506-.024-.167-.078-.282-.232-.368-.103.085-.332.218-.505.218-.368 0-.406-.459-.41-1.027V5.84c0-1.937-1.064-2.306-2.06-2.306-1.12 0-2.252.737-2.252 1.515 0 .328.164.491.478.491.396 0 .641-.286.641-.464a.614.614 0 0 0-.04-.245.943.943 0 0 1-.028-.273c0-.423.573-.573 1.092-.573.464 0 1.105.232 1.105 1.774 0 .095-.041.15-.082.163l-1.173.287c-1.31.327-2.252 1.05-2.252 1.979 0 1.119.764 1.473 1.72 1.473.474 0 .886-.109 1.487-.573l.273-.218h.027c.082.423.226.791.914.791Zm-2.306-.56c-.682 0-.982-.546-.982-.969 0-.614.286-1.242 1.296-1.501l1.078-.287v1.802c0 .177-.082.273-.191.354-.355.287-.819.6-1.2.6Zm13.004.56c.522 0 1.014-.233 1.296-.506-.023-.167-.078-.282-.232-.368-.102.085-.332.218-.505.218-.367 0-.405-.459-.409-1.027V5.84c0-1.937-1.065-2.306-2.06-2.306-1.12 0-2.252.737-2.252 1.515 0 .328.163.491.477.491.396 0 .642-.286.642-.464a.614.614 0 0 0-.041-.245.943.943 0 0 1-.028-.273c0-.423.573-.573 1.092-.573.464 0 1.105.232 1.105 1.774 0 .095-.04.15-.082.163l-1.173.287c-1.31.327-2.252 1.05-2.252 1.979 0 1.119.765 1.473 1.72 1.473.475 0 .887-.109 1.487-.573l.273-.218h.027c.082.423.227.791.915.791Zm-2.307-.56c-.682 0-.982-.546-.982-.969 0-.614.287-1.242 1.296-1.501l1.078-.287v1.802c0 .177-.082.273-.19.354-.355.287-.82.6-1.202.6Zm6.762.56c.764 0 2.17-.37 2.17-1.72 0-.932-.67-1.474-1.597-1.818-.822-.304-1.365-.516-1.365-1.266 0-.56.491-.873.955-.873.3 0 1.092.109 1.27 1.269.081.082.354.068.436-.014.041-.491.068-.996.082-1.446-.423-.069-1.078-.26-1.788-.26-1.01 0-1.924.655-1.924 1.529 0 .996.45 1.419 1.501 1.856 1.133.463 1.392.75 1.392 1.337 0 .668-.655.955-1.16.955-.532 0-.828-.181-.969-.327-.3-.314-.45-.915-.532-1.256-.082-.082-.341-.068-.423.014.055.668.096 1.31.096 1.883.136-.027.273-.041.34-.041.096 0 .178 0 .274.027.368.096.737.15 1.242.15Zm10.104-.11c.082-.082.082-.368 0-.45-.464-.055-.81-.115-1.174-.573l-1.801-2.266c-.05-.06-.096-.122-.096-.19 0-.055 0-.082.055-.137l1.2-1.242c.41-.436.888-.546 1.434-.6.082-.082.082-.369 0-.45a26.2 26.2 0 0 1-1.187.027c-.519 0-1.024-.014-1.338-.028-.082.082-.082.369 0 .45.764.055.441.537.314.697-.314.395-.74.86-1.092 1.119-.303.223-.67.385-.928.42v-4.76c0-.887.055-1.433.055-1.433 0-.095-.055-.136-.177-.136-.341.136-1.365.328-1.91.368-.028.11 0 .328.081.41.71.04.873-.027.873 1.119V7.86c0 1.133-.15 1.187-.914 1.242-.082.082-.082.368 0 .45.45-.013.914-.027 1.46-.027.478 0 .928.014 1.242.027.082-.082.082-.368 0-.45-.56-.055-.71-.11-.71-1.242V6.674c.263.007.455.028.587.074.15.102.275.225.437.443l.996 1.338c.401.539.555.795.573.955.004.04.014.068.055.068.273-.013.573-.027.846-.027.423 0 .846.014 1.119.027Zm3.882.11c1.037 0 1.774-.478 2.32-1.188-.042-.136-.123-.205-.287-.218-.505.518-.9.737-1.692.737-.492 0-1.065-.287-1.488-.983-.273-.45-.436-1.078-.436-1.87l3.63.028c.163 0 .259-.082.259-.232 0-1.146-.41-2.374-2.306-2.374-1.188 0-2.73 1.132-2.73 3.206 0 .765.191 1.501.642 2.02.464.546 1.105.873 2.088.873Zm-1.542-3.985c.259-1.542 1.214-1.665 1.542-1.665.518 0 1.132.286 1.132 1.433 0 .123-.054.188-.204.19l-2.47.042Zm9.845 3.984c.522 0 1.014-.232 1.296-.505-.023-.167-.078-.282-.232-.368-.102.085-.332.218-.505.218-.367 0-.405-.459-.409-1.027V5.84c0-1.937-1.065-2.306-2.06-2.306-1.12 0-2.252.737-2.252 1.515 0 .328.163.491.477.491.396 0 .642-.286.642-.464a.614.614 0 0 0-.041-.245.943.943 0 0 1-.028-.273c0-.423.573-.573 1.092-.573.464 0 1.105.232 1.105 1.774 0 .095-.04.15-.082.163l-1.173.287c-1.31.327-2.252 1.05-2.252 1.979 0 1.119.765 1.473 1.72 1.473.475 0 .887-.109 1.487-.573l.273-.218h.027c.082.423.227.791.915.791Zm-2.307-.56c-.682 0-.982-.545-.982-.968 0-.614.287-1.242 1.296-1.501l1.078-.287v1.802c0 .177-.082.273-.19.354-.355.287-.82.6-1.202.6Z"/></svg>