<svg xmlns="http://www.w3.org/2000/svg" width="120" height="14" viewBox="0 0 31.75 3.704"><path d="M1.115 1.42q.074 0 .121-.004.048-.003.083-.014.034-.013.052-.027.018-.013.028-.044t.015-.059.006-.082q.015-.015.056-.015t.056.015q-.007.2-.007.29 0 .06.007.296-.015.015-.056.015t-.056-.015q-.003-.056-.008-.082-.005-.028-.021-.063t-.048-.049q-.03-.015-.088-.024-.056-.012-.14-.012H.81v.81q0 .068.03.108.034.037.09.037h.457q.178 0 .28-.116.103-.118.16-.324.061-.016.119.017-.042.268-.125.561-.269-.006-.43-.006H.669l-.439.006q-.014-.015-.014-.054 0-.041.014-.056l.104-.006q.037-.004.075-.015.04-.013.056-.031.018-.018.033-.053.016-.034.021-.082.005-.047.005-.12V.875q0-.085-.01-.138Q.506.684.49.652.473.617.432.6.392.584.352.579.31.573.23.57.216.556.216.515T.23.458l.435.006h.857q.087 0 .164-.013.013 0 .013.01.007.023.035.209.03.185.04.279-.052.026-.11.016-.022-.069-.037-.108-.015-.04-.04-.087Q1.566.72 1.54.694t-.062-.05-.084-.035q-.048-.01-.11-.01H.93q-.058 0-.09.043-.03.04-.03.105v.673zm1.546.01q.141-.158.274-.215.135-.058.278-.058.19 0 .279.115.052.072.07.182.02.108.02.268v.5q0 .061.003.104.003.04.008.075.005.033.018.053.014.02.027.034.014.013.042.022t.055.013l.072.006q.011.015.011.056 0 .04-.011.054-.29-.006-.356-.006-.061 0-.343.006-.012-.015-.012-.054 0-.041.012-.056.074-.006.106-.014.035-.01.061-.042.028-.032.034-.088t.007-.163v-.51q0-.18-.04-.26-.029-.057-.078-.088-.05-.033-.1-.033-.099 0-.207.053-.107.052-.204.146-.057.064-.057.14v.552q0 .107.005.163.006.056.033.088.026.032.059.041t.105.015q.015.015.015.056 0 .04-.015.054L2.5 2.633q-.095 0-.37.006-.015-.015-.015-.054 0-.041.014-.056l.087-.008q.031-.005.063-.016.033-.014.044-.032.013-.018.025-.052.013-.036.014-.08.004-.047.004-.119v-.655q0-.075-.008-.114-.007-.042-.035-.066-.028-.025-.064-.033t-.113-.015q-.005-.016-.008-.047-.004-.031.001-.048.269-.034.424-.097.03 0 .04.027.027.055.027.256 0 .044.028.005zm1.364.738q.015-.015.053-.016.037-.002.052.013l.025.107q.01.034.04.101.03.068.066.102.071.08.238.08.109 0 .197-.06.09-.061.089-.174 0-.11-.069-.177-.067-.066-.274-.153-.204-.085-.287-.182t-.082-.276q0-.158.14-.266.143-.11.334-.11.077 0 .16.012.081.011.168.03t.112.022q-.002.044-.012.168-.008.121-.008.188-.015.015-.054.017-.04.001-.054-.013-.013-.08-.044-.142-.03-.06-.065-.091-.032-.032-.075-.05-.043-.02-.072-.024-.028-.005-.056-.005-.093 0-.166.059-.07.057-.07.156 0 .04.008.072.01.033.021.057.012.023.04.048l.049.038q.02.013.064.034l.07.03.084.033q.187.07.29.177t.104.27q0 .094-.038.171-.037.076-.097.122-.057.046-.13.077-.075.03-.142.041t-.128.012q-.164 0-.305-.037-.023-.006-.068-.006-.034 0-.083.01 0-.156-.025-.465M6.16 1.85l-.266.07q-.319.084-.319.37 0 .09.063.165.064.074.179.074t.295-.146q.048-.036.048-.087zm0 .622h-.007l-.067.052q-.112.087-.182.114t-.184.028q-.19 0-.307-.087t-.117-.276q0-.168.153-.296.153-.13.402-.192l.29-.07q.019-.007.019-.04 0-.437-.273-.436-.111 0-.195.036-.084.034-.084.105 0 .046.007.066.01.02.01.06t-.041.076q-.04.036-.107.036-.117 0-.117-.118 0-.089.08-.176t.21-.141q.13-.056.265-.056.08 0 .148.013t.136.05q.07.037.117.098.047.06.077.166.03.103.03.241v.576l.004.067q.005.038.013.06.009.02.023.042t.038.031q.025.01.056.01t.052-.013.033-.026.018-.013q.01 0 .027.02t.018.036q0 .011-.036.045-.035.035-.105.071-.071.035-.145.035-.062 0-.112-.02t-.078-.051q-.028-.033-.045-.062-.016-.03-.024-.061m.838-.25V.753q0-.057-.003-.096L6.988.586Q6.984.555 6.97.536L6.948.508Q6.94.496 6.914.491 6.887.484 6.869.483L6.814.479 6.782.478q-.014-.015-.02-.046-.004-.033 0-.054.1-.007.254-.037t.216-.055q.044 0 .044.034-.013.135-.013.353v1.172q.109-.015.229-.103.12-.09.269-.276.016-.022.026-.043.011-.021.016-.05.007-.032-.024-.052-.03-.021-.095-.026-.015-.015-.015-.056 0-.04.015-.056.25.007.33.007.042 0 .292-.007.014.015.014.056t-.014.056q-.117.012-.2.043-.084.03-.153.105l-.296.305q-.014.015-.014.035 0 .016.024.047l.443.557q.063.077.125.105.062.026.164.037.015.015.015.056 0 .04-.015.054-.2-.006-.276-.006-.074 0-.208.006-.008 0-.013-.016-.018-.07-.141-.236l-.245-.329q-.054-.075-.108-.11-.044-.014-.145-.018v.292q0 .086.005.138.007.053.015.087.01.033.035.05.024.016.047.023l.072.01q.015.014.015.055 0 .04-.015.054l-.305-.006q-.077 0-.36.006-.014-.014-.014-.054t.015-.056l.082-.006q.03-.005.059-.017.03-.013.042-.03.014-.017.025-.052.012-.036.013-.082.004-.047.004-.12zm2.16.444q-.096 0-.172-.027-.075-.024-.125-.067-.047-.043-.078-.102-.031-.06-.045-.125-.013-.064-.013-.136v-.645q0-.16-.043-.208-.04-.051-.165-.061Q8.5 1.28 8.5 1.239q0-.04.015-.056.25.007.343.007.085 0 .118-.007.026 0 .026.022-.013.246-.013.346v.61q0 .106.026.18.028.074.072.108.045.033.086.046t.085.013q.066 0 .156-.041.09-.043.18-.12.035-.03.043-.054.01-.026.01-.077v-.649q0-.162-.04-.213-.042-.05-.168-.059-.015-.015-.015-.056 0-.04.015-.056.25.007.343.007.085 0 .118-.007.026 0 .026.022-.013.246-.013.346v.645q0 .13.046.182t.2.063q.015.014.015.046 0 .03-.015.046-.284.03-.407.133-.037.01-.064 0-.037-.12-.038-.197 0-.012-.006-.014-.007-.003-.017 0l-.016.01q-.25.2-.455.2m1.376-.444V.753q0-.067-.003-.111-.002-.044-.014-.076-.011-.03-.02-.046t-.037-.024q-.026-.01-.046-.012-.02-.003-.066-.005l-.03-.001q-.016-.015-.02-.046-.005-.033 0-.054.101-.009.254-.038.154-.03.217-.054.044 0 .044.034-.015.135-.015.353v1.55q0 .108.007.165.008.056.04.089.03.033.07.04t.126.012q.015.015.015.056 0 .04-.015.054-.29-.006-.374-.006-.094 0-.376.006-.015-.014-.015-.054t.015-.056q.087-.005.126-.011.04-.008.07-.041.032-.033.039-.089.008-.057.008-.166m.704-.279q0-.334.185-.551.2-.235.527-.235.15 0 .271.046.121.044.2.12.08.074.133.174.055.1.077.205.025.104.025.212 0 .162-.054.31t-.164.254q-.192.188-.494.188-.138 0-.256-.042t-.2-.113q-.08-.072-.138-.166-.058-.093-.086-.195-.026-.102-.026-.207m.661-.668q-.373 0-.372.591 0 .107.024.218.025.11.076.219.05.108.146.177t.218.069q.066 0 .127-.025.06-.024.12-.078.059-.056.093-.165.036-.11.036-.26 0-.361-.125-.552-.123-.194-.343-.194m1.483.245q-.032.036-.043.067-.01.03-.01.08v.613q0 .089.013.121.015.033.067.08.042.037.11.055.071.016.128.016.135 0 .232-.056.097-.057.148-.15.05-.096.072-.198.023-.101.023-.215 0-.276-.118-.45-.117-.172-.283-.172-.072 0-.172.063-.1.062-.167.146m-.053-.125q0 .018.01.021t.016-.006q.1-.117.222-.184.123-.069.24-.069.165 0 .303.097.14.097.215.254t.076.335q0 .392-.248.635-.197.188-.496.188-.164 0-.292-.051-.026-.013-.036-.01t-.01.034v.363q0 .074.003.118.004.046.017.082t.028.053q.014.018.05.03.038.012.073.016.036.005.105.008.015.015.015.054 0 .041-.015.056-.29-.007-.407-.007-.096 0-.378.007-.015-.015-.015-.056 0-.04.015-.054.087-.005.127-.013.04-.007.07-.04t.038-.09q.008-.056.008-.164V1.567q0-.075-.008-.114-.007-.041-.035-.066-.027-.025-.064-.033-.034-.008-.111-.015-.005-.016-.008-.047-.004-.031.001-.048.269-.034.424-.097.028 0 .04.027.027.059.027.221m1.51-.776q0-.06.057-.11.058-.051.119-.051.065 0 .113.056.048.054.048.118 0 .056-.055.11-.052.053-.12.052-.06 0-.111-.054-.05-.056-.051-.121m.307 1.603q0 .072.002.119.003.046.014.082.014.036.027.054.013.016.044.03.033.01.064.016l.09.006q.015.015.015.056 0 .04-.015.054-.29-.006-.372-.006-.096 0-.378.006-.015-.015-.015-.054 0-.041.015-.056l.09-.008q.03-.005.063-.016.034-.014.046-.03.013-.018.026-.052.013-.037.015-.083.003-.046.003-.118v-.655q0-.075-.008-.114-.007-.04-.035-.064-.026-.027-.064-.035-.036-.008-.111-.015-.005-.016-.008-.047-.004-.031.001-.048.319-.041.46-.097.044 0 .044.023-.013.215-.013.383zm1.462-.006v-.639q0-.075-.011-.108t-.046-.074q-.105-.12-.273-.12-.203 0-.313.168-.097.134-.097.446 0 .295.11.458.11.161.26.161.13 0 .316-.16.035-.03.045-.055t.01-.077m-.037.248q-.135.106-.227.152-.098.05-.194.05-.265 0-.418-.2-.153-.198-.153-.516 0-.36.232-.591.106-.102.225-.151.12-.05.279-.05.049 0 .111.014.063.013.105.028l.046.015q.031 0 .031-.032v-.43q0-.067-.003-.111-.002-.044-.013-.076-.011-.03-.021-.046-.009-.016-.036-.024-.027-.01-.046-.012-.02-.003-.066-.005L16.39.478q-.015-.015-.02-.046-.005-.033 0-.054.102-.009.254-.038.155-.03.217-.054.044 0 .044.034-.014.135-.014.353v1.523q0 .13.046.182t.2.063q.015.014.015.046 0 .03-.015.046-.284.03-.407.133-.038.01-.064 0-.036-.117-.036-.197 0-.012-.007-.015t-.016 0-.018.01m.88-1.845q0-.06.057-.11t.118-.051q.066 0 .113.056.048.054.048.118 0 .056-.054.11-.053.053-.12.052-.06 0-.112-.054-.05-.056-.05-.121m.306 1.603q0 .072.002.119.003.046.015.082t.026.054q.013.016.044.03.033.01.064.016l.09.006q.015.015.015.056 0 .04-.014.054-.29-.006-.373-.006-.095 0-.378.006-.014-.015-.014-.054 0-.041.014-.056l.09-.008q.03-.005.063-.016.035-.014.046-.03.013-.018.026-.052.013-.037.015-.083.003-.046.003-.118v-.655q0-.075-.008-.114-.006-.04-.034-.064-.027-.027-.064-.035-.036-.008-.112-.015-.005-.016-.008-.047t.002-.048q.318-.041.46-.097.043 0 .043.023-.013.215-.013.383zm.988.949q-.136.241-.326.241-.068 0-.113-.036t-.045-.088q0-.043.041-.094.041-.05.107-.05.018 0 .044.004.028.005.053.005.115 0 .169-.097.079-.16.131-.308.021-.063.002-.155-.018-.088-.05-.162l-.38-.885q-.07-.16-.112-.2-.043-.041-.153-.051-.014-.015-.014-.056 0-.04.014-.056.135.007.273.007.13 0 .38-.007.014.015.014.056t-.015.056q-.074.007-.112.02-.036.011-.042.04-.005.027.003.055t.033.085l.008.018.299.7q.04.095.08.003l.333-.77q.014-.031.015-.053t-.011-.037q-.01-.017-.025-.027-.015-.011-.04-.018l-.049-.01-.052-.006q-.015-.015-.015-.056 0-.04.015-.056.25.007.307.007.07 0 .238-.007.015.015.015.056t-.015.056q-.087.007-.16.07-.071.063-.113.145-.191.403-.594 1.372-.069.168-.138.289m2.03-1.321-.267.07q-.318.084-.318.37 0 .09.062.165.064.074.179.074t.295-.146q.048-.036.048-.087zm0 .622h-.007l-.068.052q-.111.087-.182.114-.069.028-.184.028-.19 0-.307-.087t-.116-.276q0-.168.152-.296.153-.13.402-.192l.29-.07q.02-.007.02-.04 0-.437-.273-.436-.112 0-.196.036-.083.034-.083.105 0 .046.006.066.01.02.01.06t-.041.076q-.04.036-.107.036-.116 0-.116-.118 0-.089.08-.176t.21-.141q.13-.056.265-.056.08 0 .147.013.068.012.136.05.07.037.117.098.048.06.077.166.03.103.03.241v.576q.001.028.005.067.005.038.013.06.008.02.023.042t.037.031q.025.01.056.01t.053-.013.033-.026.018-.013q.01 0 .026.02.018.02.018.036 0 .011-.036.045-.035.035-.105.071t-.145.035q-.062 0-.111-.02t-.079-.051q-.028-.033-.044-.062-.017-.03-.025-.061m2.031-.25q0 .072.005.12.005.046.02.082.014.035.032.053t.056.03q.038.012.074.016l.105.006q.015.015.015.056 0 .04-.015.054-.334-.006-.433-.006-.108 0-.437.006-.015-.015-.015-.054 0-.041.015-.056l.104-.006q.037-.004.075-.015.038-.013.056-.031t.033-.053q.015-.036.02-.082.004-.047.004-.12V.875q0-.107-.011-.164t-.05-.089q-.037-.033-.085-.04-.046-.008-.146-.012-.015-.015-.015-.056t.015-.056q.335.006.434.006.108 0 .436-.006.015.015.015.056 0 .04-.015.056-.1.004-.148.013-.046.006-.085.04-.038.03-.05.088-.009.057-.009.164zm.975-.792q.141-.158.274-.215.135-.058.277-.058.19 0 .28.115.052.072.07.182.02.108.02.268v.5q0 .061.003.104.003.04.008.075.005.033.018.053t.027.034q.014.013.042.022t.054.013l.073.006q.011.015.011.056 0 .04-.011.054-.29-.006-.357-.006-.06 0-.343.006-.011-.015-.011-.054 0-.041.011-.056.074-.006.107-.015.035-.01.06-.04.029-.033.035-.09.007-.055.007-.162v-.51q0-.18-.04-.26-.029-.057-.078-.088-.05-.033-.1-.033-.099 0-.207.053-.107.052-.204.146-.057.064-.057.14v.552q0 .107.005.163.006.056.033.088.026.032.059.041t.105.015q.014.015.014.056 0 .04-.014.054l-.332-.006q-.095 0-.37.006-.016-.015-.016-.054 0-.041.015-.056l.087-.008q.031-.005.063-.016.032-.014.044-.032.013-.018.025-.052.013-.036.014-.08.004-.047.004-.119v-.655q0-.075-.009-.114-.006-.042-.034-.066-.028-.025-.064-.033t-.113-.015q-.005-.016-.009-.047t.002-.048q.269-.034.424-.097.029 0 .04.027.027.055.027.256 0 .044.028.004zm2.537 1.203-.436.006q-.015-.015-.015-.054 0-.041.015-.056l.103-.006q.038-.004.076-.015.037-.013.056-.031.018-.018.032-.053t.02-.082.005-.12V.875q0-.107-.011-.164t-.05-.089q-.037-.033-.085-.04Q25.98.575 25.88.57q-.015-.015-.015-.056t.015-.056q.334.006.433.006.108 0 .437-.006.015.015.015.056 0 .04-.015.056-.1.004-.148.013-.046.006-.085.039-.038.031-.05.089-.01.057-.01.164v1.459q0 .077.043.123.043.044.115.044h.246q.104 0 .187-.023t.14-.06q.057-.04.102-.097.044-.06.07-.12.028-.06.05-.14.059-.01.11.017-.032.279-.087.561-.308-.006-.401-.006zm1.691-.949.609-.01q.05 0 .05-.046 0-.1-.025-.172-.025-.074-.068-.11-.042-.038-.088-.054-.046-.017-.099-.017-.033 0-.066.007-.03.005-.083.03-.051.022-.094.063-.04.041-.08.122-.038.08-.056.187m.881.637q.056.005.07.052-.225.293-.572.292-.329 0-.514-.215-.157-.18-.157-.497 0-.148.04-.277.044-.13.112-.222.07-.092.156-.159.09-.067.18-.098.094-.033.183-.033.569 0 .568.584 0 .057-.062.057l-.895-.006q0 .284.107.461.074.121.17.182.099.06.197.06.142 0 .23-.04.09-.041.187-.141m.524-.099V.753q0-.067-.003-.111-.002-.044-.013-.076-.012-.03-.022-.046-.008-.016-.036-.024-.026-.01-.046-.012-.02-.003-.066-.005l-.03-.001q-.015-.015-.02-.046-.005-.033 0-.054.101-.009.254-.038.154-.03.217-.054.044 0 .044.034-.015.135-.015.353v1.55q0 .108.007.165.008.056.04.089.03.033.07.04t.126.012q.015.015.015.056 0 .04-.015.054-.29-.006-.374-.006-.094 0-.376.006-.015-.014-.015-.054 0-.041.015-.056.087-.005.126-.011.04-.008.071-.041t.038-.089q.008-.057.008-.166m.704-.279q0-.334.186-.551.2-.235.526-.235.15 0 .271.046.122.044.2.12.08.074.133.174.055.1.078.205.024.104.024.212 0 .162-.054.31t-.164.254q-.192.188-.494.188-.138 0-.256-.042t-.2-.113q-.08-.072-.138-.166-.058-.093-.086-.195-.026-.102-.026-.207m.662-.668q-.374 0-.373.591 0 .107.025.218.024.11.075.219.05.108.146.177t.218.069q.066 0 .127-.025.06-.024.12-.078.059-.056.093-.165.036-.11.036-.26 0-.361-.124-.552-.124-.194-.343-.194" aria-label="Ensakulopidiya In Lelo"/></svg>