<svg viewBox="0 0 103 35" xmlns="http://www.w3.org/2000/svg"><path d="M98 16.4c.749 0 1.39.192 1.93.576.538.365.979.845 1.32 1.44a6.32 6.32 0 0 1 .749 1.93c.173.691.259 1.36.259 2.02 0 .826-.115 1.71-.346 2.65s-.566 1.87-1.01 2.79-.979 1.8-1.61 2.65c-.614.845-1.32 1.59-2.1 2.25s-1.66 1.17-2.62 1.56a7.86 7.86 0 0 1-3 .576c-.499 0-1.01-.048-1.53-.144-.538-.096-1.1-.23-1.7-.403l-.058-.72c.922.115 1.73.173 2.42.173 1.23 0 2.36-.25 3.4-.749 1.06-.48 2-1.13 2.82-1.96s1.52-1.79 2.07-2.88a12.5 12.5 0 0 0 1.18-3.4.87.87 0 0 0-.028-.259c0-.077-.039-.134-.115-.173-.518.115-1.02.173-1.5.173s-.941-.058-1.38-.173-.835-.288-1.18-.518a2.77 2.77 0 0 1-.835-.979c-.192-.403-.288-.893-.288-1.47s.048-1.15.144-1.73c.096-.595.259-1.12.49-1.58.25-.48.576-.874.979-1.18s.912-.461 1.53-.461zM42.8 29.6c.384 0 .691.125.922.374.25.25.374.576.374.979s-.125.72-.374.95c-.23.25-.538.374-.922.374-.403 0-.73-.125-.979-.374-.25-.23-.374-.547-.374-.95s.125-.73.374-.979.576-.374.979-.374zm-1.87-2.82c.403 0 .72.125.95.374.25.25.374.576.374.979 0 .353-.095.64-.287.86l-.088.09c-.23.25-.547.374-.95.374-.384 0-.7-.125-.95-.374-.25-.23-.374-.547-.374-.95s.125-.73.374-.979.566-.374.95-.374zm4 0c.403 0 .72.125.95.374.25.25.374.576.374.979s-.125.72-.374.95c-.23.25-.547.374-.95.374-.384 0-.701-.125-.95-.374-.25-.23-.374-.547-.374-.95s.125-.73.374-.979.566-.374.95-.374zm39.7-.461c.384 0 .701.125.95.374s.374.576.374.979c0 .384-.125.691-.374.922-.25.25-.566.374-.95.374s-.701-.125-.95-.374c-.25-.23-.374-.538-.374-.922 0-.403.125-.73.374-.979s.566-.374.95-.374zm-75.1 0c.384 0 .701.125.95.374s.374.576.374.979c0 .384-.125.691-.374.922-.25.25-.566.374-.95.374s-.701-.125-.95-.374c-.25-.23-.374-.538-.374-.922 0-.403.125-.73.374-.979s.566-.374.95-.374zm78.1-.086c.384 0 .701.125.95.374s.374.576.374.979c0 .384-.125.69-.374.922-.25.25-.566.374-.95.374s-.701-.125-.95-.374c-.25-.23-.374-.538-.374-.922 0-.403.125-.73.374-.98s.566-.373.95-.373zm-75.2 0c.384 0 .701.125.95.374s.374.576.374.979c0 .384-.125.69-.374.922-.25.25-.566.374-.95.374s-.701-.125-.95-.374c-.25-.23-.374-.538-.374-.922 0-.403.125-.73.374-.98s.566-.373.95-.373zm40.2-.922c.384 0 .701.125.95.374.25.269.374.595.374.979 0 .403-.125.72-.374.95-.25.25-.566.374-.95.374-.403 0-.73-.125-.979-.374-.23-.23-.346-.547-.346-.95 0-.384.115-.71.346-.98.25-.25.576-.373.979-.373zm-3.11 0c.403 0 .73.125.979.374s.374.576.374.979c0 .384-.125.7-.374.95s-.576.374-.979.374c-.384 0-.701-.125-.95-.374s-.374-.566-.374-.95c0-.403.125-.73.374-.98s.566-.373.95-.373zm-13.5 0c.384 0 .701.125.95.374.25.269.374.595.374.979 0 .403-.125.72-.374.95-.25.25-.566.374-.95.374-.403 0-.73-.125-.979-.374-.23-.23-.346-.547-.346-.95 0-.384.115-.71.346-.98.25-.25.576-.373.979-.373zm-3.11 0c.403 0 .73.125.979.374.25.25.374.576.374.979 0 .384-.125.7-.374.95-.25.25-.576.374-.979.374-.384 0-.701-.125-.95-.374s-.374-.566-.374-.95c0-.403.125-.73.374-.98s.566-.373.95-.373zm36-25.3c.461 0 .864.182 1.21.547s.518.778.518 1.24c0 .499-.192.912-.576 1.24-.365.326-.778.49-1.24.49-.077 0-.182-.039-.317-.115l-.17-.128-.174-.142-.492-.421c-.341 0-.766.144-1.27.432l-.194.115c-.595.346-1.23.806-1.9 1.38-.653.557-1.32 1.19-1.99 1.9-.653.71-1.25 1.43-1.79 2.16-.518.73-.95 1.43-1.3 2.1-.326.653-.49 1.22-.49 1.7 0 .442.106.845.317 1.21.211.346.48.643.806.893a5.1 5.1 0 0 0 1.09.605c.403.134.787.202 1.15.202h16c.384 0 .768.144 1.15.432.384.269.72.595 1.01.979.307.384.557.787.749 1.21s.288.778.288 1.07c0 1.08-.298 2.1-.893 3.08.25.096.49.144.72.144h5.04c.307 0 .624-.048.95-.144.346-.096.662-.23.95-.403.288-.192.538-.413.749-.662.211-.27.346-.566.403-.893a2.488 2.488 0 0 0-.864-1.7 1.017 1.017 0 0 0-.259-.173 4.53 4.53 0 0 0-.317-.23 4.73 4.73 0 0 1-.317-.288.46.46 0 0 1-.115-.288c0-.072.01-.166.032-.281l.14-.698c.039-.211.077-.394.115-.547l.065-.18a.967.967 0 0 1 .08-.166c.076-.173.191-.26.345-.26.307.116.614.318.922.606s.586.614.835.979c.25.346.451.7.605 1.07s.23.672.23.922a9.918 9.918 0 0 1-.95 3 5.125 5.125 0 0 1-2.07 2.25c-.269.154-.71.278-1.32.374l-.263.027-.328.023-.392.02-.457.016-.638.015-1.12.014h-2.04c-.94 0-1.79-.182-2.53-.547-.499.346-1.06.624-1.67.835s-1.26.317-1.93.317a4.99 4.99 0 0 1-.922-.087c-.288-.038-.586-.21-.893-.518h-18.3v-.003l-.165-.002c-.897-.035-1.63-.225-2.2-.57-.634-.384-1.11-1.02-1.44-1.9a4.43 4.43 0 0 0-.95.69l-.439.404-.454.403a4.81 4.81 0 0 1-.95.69 2.26 2.26 0 0 1-.896.279v.01h-.774v-.003l-.164-.003c-.897-.034-1.63-.225-2.2-.57-.634-.384-1.11-1.02-1.44-1.9a4.43 4.43 0 0 0-.95.691l-.439.403-.454.403a4.81 4.81 0 0 1-.95.691 2.26 2.26 0 0 1-.952.282v.006h-.718v-.002l-.22-.004c-.898-.034-1.63-.225-2.2-.57-.635-.384-1.11-1.02-1.44-1.9a4.43 4.43 0 0 0-.95.691 37.5 37.5 0 0 1-.894.806 4.81 4.81 0 0 1-.935.683v.296a2.1 2.1 0 0 1-.346.03h-.317a6.83 6.83 0 0 1-.488-.027l-.535-.003v-.07a4.312 4.312 0 0 1-1.45-.534 3.109 3.109 0 0 1-1.32-1.73l-.127.005-.296.024-.268.029c-.346.019-.72.048-1.12.086l-1.81.086c-.134 0-.26.01-.374.03a.77.77 0 0 0-.288.057c-.5.557-1.03.989-1.58 1.3s-1.08.46-1.58.46c-.307 0-.614-.047-.922-.143a2.894 2.894 0 0 1-.806-.49 2.95 2.95 0 0 1-.576-.835 3.338 3.338 0 0 1-.202-1.21c0-.806.182-1.42.547-1.84s.845-.634 1.44-.634a.984.984 0 0 1 .256.115l.522.374c.154.096.336.182.547.259.21.077.47.115.778.115h.403a7.32 7.32 0 0 1 .662-.029l.634-.058c.192-.019.317-.048.374-.086a10.228 10.228 0 0 1-1.73-1.96 11.619 11.619 0 0 1-1.646-4.32c-.096-.71-.144-1.38-.144-2.02l.006-.362.02-.432a32.5 32.5 0 0 1 .031-.502c.039-.557.106-1.13.202-1.73a21.3 21.3 0 0 1 .432-1.84 9.23 9.23 0 0 1 .634-1.7c.25-.499.547-.902.893-1.21a1.71 1.71 0 0 1 1.21-.49c.211 0 .422.115.634.346.211.211.317.51.317.893 0 .211-.115.48-.346.806l-.272.387-.309.424c-.054.074-.11.15-.168.226-.288.365-.576.758-.864 1.18a5.348 5.348 0 0 0-.662 1.21 6.684 6.684 0 0 0-.317 1.3 9.58 9.58 0 0 0-.086 1.3c0 .922.144 1.81.432 2.68.307.864.73 1.65 1.27 2.36a8.217 8.217 0 0 0 2.02 1.79 7.56 7.56 0 0 0 2.65.98c.288.057.643.085 1.07.085h.893c.25.211.413.432.49.662.077.23.115.47.115.72s-.029.5-.087.75a3.64 3.64 0 0 1-.23.69 2.426 2.426 0 0 1-.432.058c.115.058.25.096.403.115h.157v-.058c1.04 0 2.12-.624 3.25-1.87l.855-.794.504-.45.192-.165.152-.123.112-.081a.91.91 0 0 1 .49-.144c.269 0 .46.096.576.288.115.173.173.365.173.576 0 .158-.022.31-.065.459l-.05.146a1.353 1.353 0 0 1-.174.374c.25.71.672 1.2 1.27 1.47.36.165.795.265 1.31.302.955-.097 1.95-.716 2.99-1.86l.854-.794.504-.451.192-.164.152-.123.112-.082a.91.91 0 0 1 .49-.144c.27 0 .461.096.576.288.115.173.173.365.173.576 0 .158-.021.31-.064.459l-.05.146a1.35 1.35 0 0 1-.174.374c.25.71.672 1.2 1.27 1.47.351.16.775.26 1.27.299.95-.103 1.94-.722 2.97-1.85l.704-.655.423-.384.333-.292.172-.143.132-.102a1.47 1.47 0 0 1 .051-.036.91.91 0 0 1 .49-.144c.27 0 .461.096.576.288.115.173.173.365.173.576 0 .158-.021.31-.064.459l-.05.146a1.35 1.35 0 0 1-.174.374c.25.71.672 1.2 1.27 1.47.403.185.902.289 1.5.312l.26.005h20.3c.806-.134 1.43-.288 1.87-.461.442-.192.768-.374.98-.547.23-.192.364-.365.402-.518.058-.173.087-.307.087-.403 0-.422-.106-.787-.317-1.09a3.013 3.013 0 0 0-.691-.778 3.191 3.191 0 0 0-.806-.518l-.422-.176-.212-.083h-16.9c-.326 0-.653-.125-.98-.374s-.623-.557-.892-.922a5.9 5.9 0 0 1-.662-1.24 3.475 3.475 0 0 1-.26-1.27c0-.691.193-1.52.577-2.48s.893-1.95 1.53-2.97c.634-1.04 1.35-2.06 2.16-3.08.826-1.02 1.67-1.92 2.53-2.71.883-.806 1.76-1.46 2.62-1.96s1.66-.749 2.39-.749zm-57.9 22.3c.307 0 .624-.048.95-.144.346-.096.662-.23.95-.403.288-.192.538-.413.749-.662.211-.27.346-.566.403-.893a2.488 2.488 0 0 0-.864-1.7 1.017 1.017 0 0 0-.259-.173 4.53 4.53 0 0 0-.317-.23 4.73 4.73 0 0 1-.317-.288.46.46 0 0 1-.115-.288c0-.072.01-.166.032-.281l.14-.698c.039-.211.077-.394.115-.547l.065-.18a.967.967 0 0 1 .08-.166c.076-.173.191-.26.345-.26.307.116.614.318.922.606s.586.614.835.979c.25.346.451.7.605 1.07s.23.672.23.922a9.918 9.918 0 0 1-.95 3 5.125 5.125 0 0 1-2.07 2.25c-.269.154-.71.278-1.32.374l-.263.027-.328.023-.392.02-.457.016-.623.015-.704.01-.382.002-.001.002h-1.47c-.23.096-.49.144-.778.144-.307 0-.557-.029-.75-.087a8.72 8.72 0 0 0-.978-.173c-.307-.057-.586-.144-.835-.259s-.451-.278-.605-.49-.23-.538-.23-.979c0-.21.01-.403.028-.576s.087-.384.202-.634v-.778c0-2.5-.096-5.06-.288-7.69l-.547-7.63a1.304 1.304 0 0 0-.202-.547 1.84 1.84 0 0 0-.23-.294l-.144-.138a5.25 5.25 0 0 0-.307-.282l-.182-.15a8.111 8.111 0 0 1-.634-.576l-.028-.057V3.46c.173-.346.326-.672.46-.979.135-.326.279-.605.433-.835.154-.25.317-.442.49-.576.192-.154.422-.23.69-.23.347 0 .615.134.807.403.21.27.365.586.46.95s.164.75.203 1.15c.03.307.049.571.055.793l.005.34.04.714.036.94.008.237.094 1.77.625 12.3c.02.288.096.538.23.75s.298.402.49.575c.211.154.432.278.662.374s.451.154.662.173h4.48zm87-3.31c-.365 0-.739.106-1.12.317s-.624.586-.72 1.12c.02.557.24.96.662 1.21.442.23.922.346 1.44.346.461 0 .835-.03 1.12-.087s.509-.125.662-.202c.173-.096.278-.192.317-.288a.717.717 0 0 0 .086-.317c0-.307-.076-.586-.23-.835a2.143 2.143 0 0 0-.576-.662 2.37 2.37 0 0 0-.608-.369l-.169-.063a2.315 2.315 0 0 0-.864-.173z"/></svg>