<?xml version="1.0" encoding="UTF-8"?>
<svg width="120px" height="15px" viewBox="0 0 120 15" version="1.1" xmlns="http://www.w3.org/2000/svg" xmlns:xlink="http://www.w3.org/1999/xlink">
    <title>co-tagline</title>
    <g id="Page-1" stroke="none" stroke-width="1" fill="none" fill-rule="evenodd">
        <path d="M4.14594769,5.22311915 L2.73555053,5.22311915 L2.73555053,2.43332257 C2.73555053,1.7513723 2.92153697,1.4413949 3.75847594,1.4413949 L4.92089119,1.4413949 C6.08330643,1.4413949 6.33128834,2.06134969 6.67226348,3.13077171 C6.86444937,3.15866949 7.03183745,3.12612224 7.18372619,3.05327737 C7.10623184,2.4178237 6.87374879,0.929932192 6.84275105,0.805941233 C6.84275105,0.774943494 6.82725218,0.759444624 6.78075557,0.759444624 C6.51727478,0.805941233 6.39328382,0.821440103 6.02131095,0.821440103 L2.06909913,0.821440103 C1.5963836,0.821440103 0.689699709,0.805941233 0.0697449144,0.790442364 C-0.0232483048,0.883435583 -0.0232483048,1.20891185 0.0697449144,1.30190507 C1.15466581,1.34840168 1.41814659,1.42589603 1.41814659,2.71230223 L1.41814659,8.92734905 C1.41814659,10.2137552 1.15466581,10.2912496 0.0697449144,10.3377462 C-0.0232483048,10.4307394 -0.0232483048,10.7562157 0.0697449144,10.8492089 C0.6432031,10.83371 1.57313529,10.8182112 2.084598,10.8182112 L5.41685502,10.8182112 C6.16080077,10.8182112 7.40071036,10.8492089 7.40071036,10.8492089 C7.61769454,10.0742654 7.85017759,9.05134001 7.97416855,8.26089764 C7.81297993,8.16945441 7.63474339,8.13380696 7.4317081,8.18340329 C7.12173071,9.29932192 6.57927026,10.2137552 5.40135615,10.2137552 L3.60348725,10.2137552 C2.95253471,10.2137552 2.73555053,9.96577333 2.73555053,9.23732644 L2.73555053,5.8120762 L4.14594769,5.8120762 C5.46335163,5.8120762 5.50984824,6.16855021 5.55634485,6.86599935 C5.64933807,6.95899257 5.97481434,6.95899257 6.06780756,6.86599935 C6.05230869,6.46302874 6.03680982,6.03370985 6.03680982,5.50209881 C6.03680982,5.06813045 6.05230869,4.54116887 6.06780756,4.169196 C5.97481434,4.07620278 5.64933807,4.07620278 5.55634485,4.169196 C5.50984824,5.02163384 5.46335163,5.22311915 4.14594769,5.22311915 Z M11.2754278,5.26961576 C11.1808846,5.37810785 11.0940911,5.41530504 11.0894414,5.26961576 C11.0739425,4.85114627 11.0382951,4.25133982 10.9654504,4.09170165 C10.9329027,4.02040675 10.903455,3.96771069 10.779464,3.96771069 C10.3454956,4.13819826 9.94252502,4.27768809 8.873103,4.41717791 C8.84210526,4.51017113 8.873103,4.75815305 8.90410074,4.85114627 C9.74103972,4.92864062 9.91152728,5.00613497 9.91152728,5.90506942 L9.91152728,8.92734905 C9.91152728,10.1982564 9.75653859,10.2602519 8.82660639,10.3377462 C8.73361317,10.4307394 8.73361317,10.7562157 8.82660639,10.8492089 C9.29157249,10.83371 9.91152728,10.8182112 10.5314821,10.8182112 C11.1514369,10.8182112 11.616403,10.83371 12.0813691,10.8492089 C12.1743623,10.7562157 12.1743623,10.4307394 12.0813691,10.3377462 C11.2909267,10.2602519 11.135938,10.1982564 11.135938,8.92734905 L11.135938,6.38553439 C11.135938,6.06005812 11.2754278,5.87407168 11.3994188,5.73458185 C11.9883758,5.16112367 12.685825,4.82014853 13.2902809,4.82014853 C13.6002583,4.82014853 13.9257346,5.02163384 14.111721,5.37810785 C14.2667097,5.68808524 14.2977075,6.10655473 14.2977075,6.57152083 L14.2977075,8.92734905 C14.2977075,10.1982564 14.1427188,10.2602519 13.3367775,10.3377462 C13.2592832,10.4307394 13.2592832,10.7562157 13.3367775,10.8492089 C13.8017436,10.83371 14.2977075,10.8182112 14.9176623,10.8182112 C15.537617,10.8182112 16.0955764,10.83371 16.5605425,10.8492089 C16.6380368,10.7562157 16.6380368,10.4307394 16.5605425,10.3377462 C15.6926057,10.2602519 15.5221182,10.1982564 15.5221182,8.92734905 L15.5221182,6.61801744 C15.5221182,5.76557959 15.4601227,5.02163384 15.1036487,4.54116887 C14.8401679,4.20019374 14.3597029,4.0142073 13.8172425,4.0142073 C13.0577979,4.0142073 12.1945109,4.21569261 11.2754278,5.26961576 Z M22.9925735,9.40781401 C22.930578,9.26832418 22.806587,9.20632871 22.6670972,9.19082984 C22.1401356,9.87278011 21.4736842,10.2137552 20.8072328,10.2137552 C19.6758153,10.2137552 18.7303842,9.06683888 18.7303842,7.2534711 C18.7303842,5.54859541 19.47433,4.52567 20.4972554,4.52567 C21.4116887,4.52567 21.5356797,5.06813045 21.5976752,5.61059089 C21.6441718,6.02906038 21.861156,6.16855021 22.1866322,6.16855021 C22.5121085,6.16855021 22.9460768,5.9670649 22.9460768,5.48659994 C22.9460768,4.63416209 22.0626413,4.0142073 20.5747498,4.0142073 C19.0403616,4.0142073 17.3974814,5.39360672 17.3974814,7.59444624 C17.3974814,9.59380045 18.5134001,10.9731999 20.4662577,10.9731999 C21.3961899,10.9731999 22.21763,10.6787213 22.9925735,9.40781401 Z M24.8524378,1.53438812 C24.8524378,1.93735873 25.2244107,2.34032935 25.5963836,2.34032935 C26.030352,2.34032935 26.4023248,1.92340937 26.4023248,1.5963836 C26.4023248,1.22441072 26.0768486,0.790442364 25.6583791,0.790442364 C25.2864062,0.790442364 24.8524378,1.16241524 24.8524378,1.53438812 Z M26.262835,8.92734905 L26.262835,5.83842447 C26.262835,5.06813045 26.3248305,4.07620278 26.3248305,4.07620278 C26.3248305,4.0142073 26.2473361,3.96771069 26.1233452,3.96771069 C25.6816274,4.13819826 25.069422,4.27768809 24,4.41717791 C23.9690023,4.51017113 24,4.75815305 24.0309977,4.85114627 C24.8756861,4.9301906 25.0384243,5.02163384 25.0384243,5.90506942 L25.0384243,8.92734905 C25.0384243,10.2137552 24.8679367,10.2602519 23.9225057,10.3377462 C23.8295124,10.4307394 23.8295124,10.7562157 23.9225057,10.8492089 C24.4339684,10.83371 25.0384243,10.8182112 25.6583791,10.8182112 C26.2783339,10.8182112 26.8672909,10.83371 27.3787536,10.8492089 C27.4717469,10.7562157 27.4717469,10.4307394 27.3787536,10.3377462 C26.4333226,10.2757507 26.262835,10.2137552 26.262835,8.92734905 Z M33.8262835,9.40781401 C33.764288,9.26832418 33.6402971,9.20632871 33.5008072,9.19082984 C32.9738457,9.87278011 32.3073943,10.2137552 31.6409428,10.2137552 C30.5095253,10.2137552 29.5640943,9.06683888 29.5640943,7.2534711 C29.5640943,5.54859541 30.30804,4.52567 31.3309655,4.52567 C32.2453988,4.52567 32.3693897,5.06813045 32.4313852,5.61059089 C32.4778818,6.02906038 32.694866,6.16855021 33.0203423,6.16855021 C33.3458185,6.16855021 33.7797869,5.9670649 33.7797869,5.48659994 C33.7797869,4.63416209 32.8963513,4.0142073 31.4084598,4.0142073 C29.8740717,4.0142073 28.2311915,5.39360672 28.2311915,7.59444624 C28.2311915,9.59380045 29.3471101,10.9731999 31.2999677,10.9731999 C32.2298999,10.9731999 33.05134,10.6787213 33.8262835,9.40781401 Z M35.7636422,8.92734905 C35.7636422,10.2137552 35.5931547,10.2912496 34.6477236,10.3377462 C34.5547304,10.4307394 34.5547304,10.7562157 34.6477236,10.8492089 C35.190184,10.83371 35.7636422,10.8182112 36.383597,10.8182112 C37.0035518,10.8182112 37.5925089,10.83371 38.1039716,10.8492089 C38.1969648,10.7562157 38.1969648,10.4307394 38.1039716,10.3377462 C37.1585405,10.2912496 36.988053,10.2137552 36.988053,8.92734905 L36.988053,1.78237004 C36.988053,0.774943494 37.0500484,0.154988699 37.0500484,0.154988699 C37.0500484,0.0464966096 36.988053,8.8817842e-16 36.8485631,8.8817842e-16 C36.4610914,0.154988699 35.2986761,0.371972877 34.6787213,0.418469487 C34.6477236,0.542460446 34.6787213,0.790442364 34.7717146,0.883435583 C35.670649,0.945431062 35.7636422,0.991927672 35.7636422,2.15434291 L35.7636422,8.92734905 Z M39.0184049,7.64094285 C39.0184049,9.22182758 40.0723281,10.9731999 42.2731676,10.9731999 C43.2712947,10.9731999 44.0214399,10.6213756 44.5499515,10.1052632 C45.2443011,9.42641261 45.558928,8.45153379 45.558928,7.50145302 C45.558928,5.88957055 44.6754924,4.0142073 42.3041653,4.0142073 C41.2843396,4.0142073 40.442751,4.43267678 39.8754925,5.09912819 C39.3128834,5.75938014 39.0184049,6.66141408 39.0184049,7.64094285 Z M42.0716823,4.55666774 C43.4045851,4.55666774 44.2260252,5.76557959 44.2260252,7.99741686 C44.2260252,9.95027446 43.2185986,10.4307394 42.4901518,10.4307394 C40.8782693,10.4307394 40.3513077,8.47788182 40.3513077,7.28446884 C40.3513077,5.93606716 40.676784,4.55666774 42.0716823,4.55666774 Z M48.9066839,5.68808524 C49.3096545,5.19212141 50.0195028,4.72715531 50.4720697,4.72715531 C51.4639974,4.72715531 52.3164353,5.84307394 52.3164353,7.59444624 C52.3164353,8.86535357 51.866968,10.4462383 50.1310946,10.4462383 C49.8521149,10.4462383 49.3096545,10.3687439 49.0306748,10.119212 C48.7191475,9.84023239 48.658702,9.75033913 48.658702,9.19082984 L48.658702,6.37003552 C48.658702,6.04455925 48.7268969,5.90971889 48.9066839,5.68808524 Z M48.6122054,5.11462706 C48.5889571,4.64966096 48.561059,4.25133982 48.4882144,4.09170165 C48.4556667,4.02040675 48.4262189,3.96771069 48.302228,3.96771069 C47.8682596,4.13819826 47.465289,4.27768809 46.395867,4.41717791 C46.3648692,4.51017113 46.395867,4.75815305 46.4268647,4.85114627 C47.2638037,4.92864062 47.4342912,5.00613497 47.4342912,5.90506942 L47.4342912,12.5230869 C47.4342912,13.8094931 47.2638037,13.8869874 46.3183726,13.933484 C46.2253794,14.0264772 46.2253794,14.3519535 46.3183726,14.4449467 C46.8608331,14.4294479 47.4342912,14.413949 48.054246,14.413949 C48.6742008,14.413949 49.4181466,14.4294479 49.9296093,14.4449467 C50.0226025,14.3519535 50.0226025,14.0264772 49.9296093,13.933484 C48.8291895,13.8714885 48.658702,13.8094931 48.658702,12.5230869 L48.658702,10.8492089 C48.658702,10.6477236 48.7175977,10.6678722 48.8756861,10.7329674 C49.2554085,10.8864061 49.7343234,10.9731999 50.2240878,10.9731999 C51.0920245,10.9731999 51.866968,10.7097191 52.5024217,10.1052632 C53.2308686,9.39231514 53.6493381,8.43138521 53.6493381,7.17597675 C53.6493381,5.53309655 52.4869228,4.0142073 50.9060381,4.0142073 C50.1853407,4.0142073 49.3948983,4.48692283 48.7826929,5.17662254 C48.6958992,5.27426523 48.6199548,5.2634163 48.6122054,5.11462706 Z M56.160155,6.44752987 C56.4546335,4.69615757 57.5395544,4.55666774 57.9115273,4.55666774 C58.5004843,4.55666774 59.1979335,4.88214401 59.1979335,6.18404908 C59.1979335,6.32353891 59.135938,6.39793329 58.9654504,6.40103326 L56.160155,6.44752987 Z M60.2208589,9.37681627 C59.6474007,9.96577333 59.1979335,10.2137552 58.298999,10.2137552 C57.7410397,10.2137552 57.0900872,9.88827898 56.6096222,9.09783662 C56.2996448,8.58637391 56.1136584,7.8734259 56.1136584,6.97449144 L60.2363578,7.00548918 C60.4223442,7.00548918 60.5308363,6.91249596 60.5308363,6.7420084 C60.5308363,5.44010333 60.0658702,4.04520504 57.9115273,4.04520504 C56.5631256,4.04520504 54.8117533,5.33161124 54.8117533,7.68743946 C54.8117533,8.55537617 55.0287375,9.39231514 55.5402002,9.9812722 C56.0671618,10.601227 56.7956087,10.9731999 57.9115273,10.9731999 C59.0894414,10.9731999 59.9263804,10.4307394 60.5463352,9.62479819 C60.4998386,9.46980949 60.4068453,9.39231514 60.2208589,9.37681627 Z M66.5134001,8.89635131 C66.5134001,9.19082984 66.4839523,9.31172107 66.2654181,9.50080723 C65.69196,9.99677107 65.1959961,10.244753 64.8085244,10.244753 C63.9715854,10.244753 63.1036487,9.33031966 63.1036487,7.39296093 C63.1036487,6.2770423 63.3206329,5.6570875 63.5531159,5.33161124 C64.0335809,4.60316435 64.6845334,4.55666774 64.9945108,4.55666774 C65.5524701,4.55666774 65.9399419,4.75815305 66.2499193,5.11462706 C66.4669035,5.36260898 66.5134001,5.47110107 66.5134001,5.95156603 L66.5134001,8.89635131 Z M66.3429125,10.0386182 C66.4173069,9.97817247 66.5645461,9.95027446 66.5753955,10.0587665 C66.6141427,10.4384889 66.7458831,10.9731999 66.7458831,10.9731999 C66.8698741,11.0196965 66.9473684,11.011947 67.0403616,10.9731999 C67.3813368,10.6942202 67.9237972,10.4617372 68.8692283,10.3532451 C68.9622215,10.2602519 68.9622215,10.0277688 68.8692283,9.93477559 C67.8773006,9.85728124 67.7378108,9.56280271 67.7378108,8.80335809 L67.7378108,1.78237004 C67.7378108,0.774943494 67.7998063,0.154988699 67.7998063,0.154988699 C67.7998063,0.0464966096 67.7378108,8.8817842e-16 67.598321,8.8817842e-16 C67.2108492,0.154988699 66.048434,0.371972877 65.4284792,0.418469487 C65.3974814,0.542460446 65.4284792,0.790442364 65.5214724,0.883435583 C66.3274136,0.929932192 66.5134001,0.852437843 66.5134001,2.15434291 L66.5134001,4.13819826 C66.5134001,4.24669035 66.4824023,4.27768809 66.3739102,4.27768809 C66.3119148,4.27768809 65.6764611,4.0142073 65.1649984,4.0142073 C64.142073,4.0142073 63.4601227,4.35518243 62.8401679,4.94413949 C62.1737165,5.61059089 61.7707459,6.52502422 61.7707459,7.67194059 C61.7707459,9.57830158 62.7316758,10.9731999 64.4055538,10.9731999 C65.0100097,10.9731999 65.5834679,10.6632225 66.3429125,10.0386182 Z M70.4036164,1.53438812 C70.4036164,1.93735873 70.7755893,2.34032935 71.1475622,2.34032935 C71.5815305,2.34032935 71.9535034,1.92340937 71.9535034,1.5963836 C71.9535034,1.22441072 71.6280271,0.790442364 71.2095576,0.790442364 C70.8375848,0.790442364 70.4036164,1.16241524 70.4036164,1.53438812 Z M71.8140136,8.92734905 L71.8140136,5.83842447 C71.8140136,5.06813045 71.876009,4.07620278 71.876009,4.07620278 C71.876009,4.0142073 71.7985147,3.96771069 71.6745237,3.96771069 C71.2328059,4.13819826 70.6206006,4.27768809 69.5511786,4.41717791 C69.5201808,4.51017113 69.5511786,4.75815305 69.5821763,4.85114627 C70.4268647,4.9301906 70.5896028,5.02163384 70.5896028,5.90506942 L70.5896028,8.92734905 C70.5896028,10.2137552 70.4191153,10.2602519 69.4736842,10.3377462 C69.380691,10.4307394 69.380691,10.7562157 69.4736842,10.8492089 C69.9851469,10.83371 70.5896028,10.8182112 71.2095576,10.8182112 C71.8295124,10.8182112 72.4184695,10.83371 72.9299322,10.8492089 C73.0229254,10.7562157 73.0229254,10.4307394 72.9299322,10.3377462 C71.9845011,10.2757507 71.8140136,10.2137552 71.8140136,8.92734905 Z M77.7500807,7.20697449 L77.7500807,9.25282531 C77.7500807,9.45431062 77.6570875,9.56280271 77.5330965,9.65579593 C77.1301259,9.9812722 76.6031644,10.3377462 76.169196,10.3377462 C75.3942525,10.3377462 75.0532774,9.71779141 75.0532774,9.23732644 C75.0532774,8.5398773 75.3787536,7.82692929 76.52567,7.53245076 L77.7500807,7.20697449 Z M77.7500807,10.0742654 C77.8430739,10.5547304 78.0073621,10.9731999 78.788505,10.9731999 C79.3821115,10.9731999 79.9400708,10.7097191 80.2608976,10.3997417 C80.2345494,10.2091058 80.1725539,10.0789151 79.9974169,9.9812722 C79.8811753,10.0773654 79.6207945,10.2292541 79.4239587,10.2292541 C78.9744914,10.2292541 78.9589926,9.62479819 78.9589926,8.91185018 L78.9589926,6.63351631 C78.9589926,4.43267678 77.7500807,4.0142073 76.6186632,4.0142073 C75.3477559,4.0142073 74.0613497,4.85114627 74.0613497,5.73458185 C74.0613497,6.10655473 74.2473361,6.29254117 74.6038101,6.29254117 C75.0532774,6.29254117 75.332257,5.9670649 75.332257,5.76557959 C75.332257,5.6570875 75.3167582,5.54859541 75.2857604,5.48659994 C75.2702615,5.44010333 75.2547627,5.34711011 75.2547627,5.17662254 C75.2547627,4.69615757 75.9057152,4.52567 76.4946723,4.52567 C77.0216338,4.52567 77.7500807,4.78915079 77.7500807,6.54052309 C77.7500807,6.64901518 77.7035841,6.71101066 77.6570875,6.72650953 L76.3241847,7.05198579 C74.8362932,7.42395867 73.7668712,8.24539877 73.7668712,9.29932192 C73.7668712,10.5702293 74.6348079,10.9731999 75.7197288,10.9731999 C76.2590895,10.9731999 76.7271553,10.8492089 77.4091056,10.3222473 L77.719083,10.0742654 L77.7500807,10.0742654 Z M85.6390055,8.92734905 C85.6390055,10.2137552 85.4685179,10.2912496 84.5230869,10.3377462 C84.4300936,10.4307394 84.4300936,10.7562157 84.5230869,10.8492089 C85.0655473,10.83371 85.6390055,10.8182112 86.2589603,10.8182112 C86.8789151,10.8182112 87.4678721,10.83371 87.9793348,10.8492089 C88.0723281,10.7562157 88.0723281,10.4307394 87.9793348,10.3377462 C87.0339038,10.2912496 86.8634162,10.2137552 86.8634162,8.92734905 L86.8634162,1.78237004 C86.8634162,0.774943494 86.9254117,0.154988699 86.9254117,0.154988699 C86.9254117,0.0464966096 86.8634162,8.8817842e-16 86.7239264,8.8817842e-16 C86.3364546,0.154988699 85.1740394,0.371972877 84.5540846,0.418469487 C84.5230869,0.542460446 84.5540846,0.790442364 84.6470778,0.883435583 C85.5460123,0.945431062 85.6390055,0.991927672 85.6390055,2.15434291 L85.6390055,8.92734905 Z M89.6532128,1.53438812 C89.6532128,1.93735873 90.0251857,2.34032935 90.3971585,2.34032935 C90.8311269,2.34032935 91.2030998,1.92340937 91.2030998,1.5963836 C91.2030998,1.22441072 90.8776235,0.790442364 90.459154,0.790442364 C90.0871811,0.790442364 89.6532128,1.16241524 89.6532128,1.53438812 Z M91.0636099,8.92734905 L91.0636099,5.83842447 C91.0636099,5.06813045 91.1256054,4.07620278 91.1256054,4.07620278 C91.1256054,4.0142073 91.0481111,3.96771069 90.9241201,3.96771069 C90.4824023,4.13819826 89.870197,4.27768809 88.8007749,4.41717791 C88.7697772,4.51017113 88.8007749,4.75815305 88.8317727,4.85114627 C89.6764611,4.9301906 89.8391992,5.02163384 89.8391992,5.90506942 L89.8391992,8.92734905 C89.8391992,10.2137552 89.6687117,10.2602519 88.7232806,10.3377462 C88.6302874,10.4307394 88.6302874,10.7562157 88.7232806,10.8492089 C89.2347433,10.83371 89.8391992,10.8182112 90.459154,10.8182112 C91.0791088,10.8182112 91.6680659,10.83371 92.1795286,10.8492089 C92.2725218,10.7562157 92.2725218,10.4307394 92.1795286,10.3377462 C91.2340975,10.2757507 91.0636099,10.2137552 91.0636099,8.92734905 Z M95.1553116,5.19212141 C95.5582822,4.8356474 96.0232483,4.69615757 96.4727155,4.69615757 C97.4181466,4.69615757 98.1930901,5.84307394 98.1930901,7.34646432 C98.1930901,9.11333549 97.4801421,10.4462383 96.0077494,10.4462383 C95.5272845,10.4462383 95.2018082,10.1052632 94.8918308,9.71779141 L94.8918308,5.84307394 C94.8918308,5.51759768 94.9553763,5.36880843 95.1553116,5.19212141 Z M95.0468195,4.71165644 C94.9491766,4.80000019 94.8918308,4.77365192 94.8918308,4.63416209 L94.8918308,1.78237004 C94.8918308,0.774943494 94.9538263,0.154988699 94.9538263,0.154988699 C94.9538263,0.0464966096 94.8918308,8.8817842e-16 94.752341,8.8817842e-16 C94.3648692,0.154988699 93.202454,0.371972877 92.5824992,0.418469487 C92.5515015,0.542460446 92.5824992,0.790442364 92.6754924,0.883435583 C93.4814336,0.929932192 93.6674201,0.852437843 93.6674201,2.15434291 L93.6674201,9.71779141 C93.6674201,10.3222473 93.6519212,10.601227 93.6054246,10.8182112 C93.682919,10.9422021 93.7604133,11.0041976 93.9463997,11.0041976 C94.0409429,10.9143041 94.1943817,10.7701646 94.3137229,10.6322247 C94.4733613,10.4462383 94.5663545,10.4462383 94.7368421,10.5888279 C95.0917661,10.8879561 95.5536325,10.9731999 96.1007427,10.9731999 C97.6816274,10.9731999 99.5259929,9.53180497 99.5259929,7.06748466 C99.5259929,5.17662254 98.1310946,4.0142073 96.7826929,4.0142073 C96.1177915,4.0142073 95.5272845,4.27768809 95.0468195,4.71165644 Z M104.64062,7.20697449 L104.64062,9.25282531 C104.64062,9.45431062 104.547627,9.56280271 104.423636,9.65579593 C104.020665,9.9812722 103.493704,10.3377462 103.059735,10.3377462 C102.284792,10.3377462 101.943817,9.71779141 101.943817,9.23732644 C101.943817,8.5398773 102.269293,7.82692929 103.416209,7.53245076 L104.64062,7.20697449 Z M104.64062,10.0742654 C104.733613,10.5547304 104.897901,10.9731999 105.679044,10.9731999 C106.272651,10.9731999 106.83061,10.7097191 107.151437,10.3997417 C107.125089,10.2091058 107.063093,10.0789151 106.887956,9.9812722 C106.771715,10.0773654 106.511334,10.2292541 106.314498,10.2292541 C105.865031,10.2292541 105.849532,9.62479819 105.849532,8.91185018 L105.849532,6.63351631 C105.849532,4.43267678 104.64062,4.0142073 103.509202,4.0142073 C102.238295,4.0142073 100.951889,4.85114627 100.951889,5.73458185 C100.951889,6.10655473 101.137875,6.29254117 101.494349,6.29254117 C101.943817,6.29254117 102.222796,5.9670649 102.222796,5.76557959 C102.222796,5.6570875 102.207297,5.54859541 102.1763,5.48659994 C102.160801,5.44010333 102.145302,5.34711011 102.145302,5.17662254 C102.145302,4.69615757 102.796254,4.52567 103.385211,4.52567 C103.912173,4.52567 104.64062,4.78915079 104.64062,6.54052309 C104.64062,6.64901518 104.594123,6.71101066 104.547627,6.72650953 L103.214724,7.05198579 C101.726832,7.42395867 100.65741,8.24539877 100.65741,9.29932192 C100.65741,10.5702293 101.525347,10.9731999 102.610268,10.9731999 C103.149629,10.9731999 103.617695,10.8492089 104.299645,10.3222473 L104.609622,10.0742654 L104.64062,10.0742654 Z M109.910236,5.26961576 C109.883888,4.64966096 109.859089,4.25133982 109.786245,4.09170165 C109.753697,4.02040675 109.724249,3.96771069 109.600258,3.96771069 C109.16629,4.13819826 108.763319,4.27768809 107.693897,4.41717791 C107.6629,4.51017113 107.693897,4.75815305 107.724895,4.85114627 C108.561834,4.92864062 108.732322,5.00613497 108.732322,5.90506942 L108.732322,8.92734905 C108.732322,10.2137552 108.546335,10.2757507 107.585405,10.3377462 C107.492412,10.4307394 107.492412,10.7562157 107.585405,10.8492089 C108.127866,10.83371 108.732322,10.8182112 109.352276,10.8182112 C109.972231,10.8182112 110.685179,10.83371 111.22764,10.8492089 C111.320633,10.7562157 111.320633,10.4307394 111.22764,10.3377462 C110.142719,10.2602519 109.956732,10.2137552 109.956732,8.92734905 L109.956732,6.77300613 C109.956732,6.37003552 110.142719,6.01356151 110.328705,5.73458185 C110.499193,5.48659994 110.855667,4.97513723 111.041653,4.97513723 C111.181143,4.97513723 111.320633,5.01233442 111.441524,5.17197307 C111.559315,5.32696176 111.732903,5.53309655 112.002583,5.53309655 C112.374556,5.53309655 112.73103,5.1456248 112.73103,4.75815305 C112.73103,4.46212454 112.45205,4.0142073 111.801098,4.0142073 C111.072651,4.0142073 110.437197,4.69615757 110.080723,5.3006135 C109.98773,5.47110107 109.913335,5.34711011 109.910236,5.26961576 Z M117.489183,7.20697449 L117.489183,9.25282531 C117.489183,9.45431062 117.39619,9.56280271 117.272199,9.65579593 C116.869228,9.9812722 116.342267,10.3377462 115.908298,10.3377462 C115.133355,10.3377462 114.79238,9.71779141 114.79238,9.23732644 C114.79238,8.5398773 115.117856,7.82692929 116.264772,7.53245076 L117.489183,7.20697449 Z M117.489183,10.0742654 C117.582176,10.5547304 117.746464,10.9731999 118.527607,10.9731999 C119.121214,10.9731999 119.679173,10.7097191 120,10.3997417 C119.973652,10.2091058 119.911656,10.0789151 119.736519,9.9812722 C119.620278,10.0773654 119.359897,10.2292541 119.163061,10.2292541 C118.713594,10.2292541 118.698095,9.62479819 118.698095,8.91185018 L118.698095,6.63351631 C118.698095,4.43267678 117.489183,4.0142073 116.357766,4.0142073 C115.086858,4.0142073 113.800452,4.85114627 113.800452,5.73458185 C113.800452,6.10655473 113.986438,6.29254117 114.342912,6.29254117 C114.79238,6.29254117 115.071359,5.9670649 115.071359,5.76557959 C115.071359,5.6570875 115.055861,5.54859541 115.024863,5.48659994 C115.009364,5.44010333 114.993865,5.34711011 114.993865,5.17662254 C114.993865,4.69615757 115.644818,4.52567 116.233775,4.52567 C116.760736,4.52567 117.489183,4.78915079 117.489183,6.54052309 C117.489183,6.64901518 117.442686,6.71101066 117.39619,6.72650953 L116.063287,7.05198579 C114.575396,7.42395867 113.505974,8.24539877 113.505974,9.29932192 C113.505974,10.5702293 114.37391,10.9731999 115.458831,10.9731999 C115.998192,10.9731999 116.466258,10.8492089 117.148208,10.3222473 L117.458185,10.0742654 L117.489183,10.0742654 Z" id="co-tagline" fill="#000000" fill-rule="nonzero"></path>
    </g>
</svg>