<svg xmlns="http://www.w3.org/2000/svg" width="120" height="27"><path fill="#000" fill-rule="nonzero" d="M3.95 18.293C2.097 17.963.613 16.6.169 14.82c-.202-.81-.225-1.83-.058-2.623a4.715 4.715 0 0 1 2.066-3.021c.708-.464 1.415-.705 2.327-.791 2.206-.21 4.092.777 5.01 2.62.596 1.198.678 2.942.2 4.251a4.71 4.71 0 0 1-3.636 3.046c-.555.097-1.554.093-2.128-.009Zm2.064-1.486c1.586-.411 2.655-1.94 2.556-3.656-.056-.97-.36-1.651-1.04-2.325-.688-.684-1.458-.996-2.463-.998-1.759-.004-3.162 1.073-3.517 2.698-.13.6-.086 1.512.102 2.067.41 1.209 1.358 2.022 2.64 2.265.485.092 1.258.07 1.722-.051ZM4.32 7.399c-1.041-.173-2.08-.962-2.594-1.97-.357-.7-.477-1.823-.281-2.635C1.751 1.518 2.852.42 4.138.106c.476-.116 1.426-.116 1.871 0 1.462.379 2.502 1.599 2.684 3.148C8.991 5.78 6.84 7.819 4.32 7.399ZM5.752 5.78c.273-.107.782-.439.812-.529.026-.078-.522-.338-.94-.446a2.775 2.775 0 0 0-.57-.08c-.43 0-1.096.24-1.415.51l-.129.109.129.108c.17.145.572.346.811.406.288.073 1.032.028 1.302-.078ZM3.653 3.9c.392-.184 1.057-.36 1.362-.36.532 0 1.305.234 1.864.564.144.085.274.132.29.105.017-.027.03-.252.03-.5-.002-.76-.194-1.23-.693-1.703-.336-.318-.635-.458-1.122-.527-.688-.098-1.357.082-1.837.493-.51.436-.738.988-.737 1.783 0 .28.015.533.032.56.017.029.132-.019.26-.107a4.68 4.68 0 0 1 .551-.309Zm8.404 18.475c-.072-.188.112-.463.773-1.157.915-.96 1.566-1.89 1.682-2.405.053-.238-.028-.478-.174-.51l-.456-.102c-.897-.2-1.398-.695-1.545-1.529-.065-.37.013-.88.188-1.224.15-.299.573-.698.892-.846.199-.092.338-.112.759-.112.471 0 .544.013.858.162.403.19.871.638 1.09 1.04.283.519.31 1.75.057 2.62-.262.905-.673 1.558-1.485 2.36a9.467 9.467 0 0 1-1.97 1.5c-.492.29-.62.329-.669.203Zm2.607-5.514c.254-.23.235-.792-.033-1.003-.152-.12-.546-.145-.76-.047-.331.15-.376.768-.075 1.042.148.134.19.145.462.125.196-.014.337-.055.406-.117Zm7.859 1.465a4.821 4.821 0 0 1-2.876-1.49c-.805-.87-1.152-1.717-1.014-2.477.074-.408.192-.641.446-.879.47-.44.91-.588 1.743-.585 1.142.004 2.042.358 3.055 1.203.608.507 1.117 1.302 1.25 1.955.033.16.07.322.08.36.027.092.568-.336.948-.75.53-.578.797-1.258.858-2.18.04-.62-.07-1.21-.328-1.749-.28-.584-.908-1.192-1.56-1.51-.48-.235-1.079-.397-1.462-.397-.172 0-.18.009-.232.25-.156.728-.504 1.236-.997 1.453-.232.102-.378.123-.993.14-1.42.04-1.961-.222-2.294-1.11-.099-.264-.102-.32-.046-.786l.061-.5.843-.337c.464-.185.843-.33.843-.323 0 .008-.058.118-.128.245-.17.302-.25.73-.18.944.112.339.582.628.92.565.257-.049.561-.214.59-.322.014-.05.065-.31.113-.58.161-.892.407-1.14 1.166-1.176.87-.042 1.774.176 2.692.647.925.475 1.818 1.597 2.185 2.745.184.578.235.932.232 1.623-.013 2.627-1.427 4.44-3.857 4.945-.494.103-1.562.142-2.058.076Zm1.14-1.685c-.056-.433-.403-1.048-.847-1.501-.577-.59-1.106-.83-1.839-.83-.479 0-.737.075-.81.236-.05.11-.028.185.164.564.516 1.018 1.772 1.757 3.01 1.771l.355.005-.032-.245Zm-.972-9.234a3.724 3.724 0 0 1-2.905-2.681c-.144-.526-.132-1.56.024-2.061.205-.66.449-1.063.934-1.546C21.414.453 22 .16 22.91.036c1.614-.22 3.096.576 3.795 2.038.23.48.325.96.326 1.644.002.939-.244 1.646-.82 2.359-.707.877-1.593 1.32-2.708 1.356a5.313 5.313 0 0 1-.811-.026Zm1.484-1.671c.284-.13.739-.435.742-.498.003-.051-.394-.254-.701-.36-.761-.262-1.482-.161-2.174.304l-.224.15.172.129c.455.341.828.452 1.44.429.348-.013.51-.047.745-.154Zm-2.727-1.53c.524-.36 1.405-.665 1.924-.665.435 0 1 .156 1.556.43.635.313.607.326.608-.301 0-1.426-1.112-2.388-2.533-2.19-1.214.169-1.993 1.214-1.872 2.512.02.205.046.373.06.373.014 0 .13-.072.257-.16Zm8.966 18.21c-.058-.059-.038-.221.05-.394.047-.09.31-.396.585-.68 1.108-1.14 1.803-2.175 1.804-2.684 0-.272-.092-.35-.513-.43-.556-.106-.874-.252-1.148-.526-1-1-.565-2.778.774-3.167.443-.13 1.001-.08 1.419.127.388.19.931.732 1.114 1.11.229.472.242 1.68.027 2.511-.358 1.387-1.545 2.726-3.41 3.85-.51.307-.63.355-.702.283Zm2.492-5.505c.202-.105.256-.223.256-.56 0-.365-.134-.54-.447-.583-.526-.07-.79.132-.787.602.003.413.2.613.606.617a.954.954 0 0 0 .372-.076Zm8.408 1.47c-.784-.068-2.025-.537-2.63-.995-.61-.462-1.386-1.52-1.625-2.218-.194-.566-.252-.966-.253-1.75 0-.974.22-1.898.614-2.572.188-.322.19-.324.419-.32.187.002.343.068.845.36l.616.358h.442c.542 0 .867-.141 1.105-.48.3-.426.222-1.141-.165-1.518-.378-.368-1.069-.548-1.467-.381-.14.058-.193.063-.192.019 0-.034.09-.352.197-.706l.196-.644.4-.015c.27-.01.49.013.667.07.402.128.934.461 1.247.779 1.159 1.178.771 3.243-.746 3.974-.355.17-.425.185-.954.203-.493.017-.627.002-.983-.106a9.77 9.77 0 0 1-.499-.163c-.071-.03-.105.024-.193.308-.129.417-.14 1.068-.028 1.596.266 1.258 1.274 2.263 2.605 2.598 1.212.306 2.026.122 3.113-.701.395-.3.515-.429.807-.868.336-.507.342-.521.298-.747-.077-.401-.057-1.868.032-2.306.167-.821.567-1.564 1.202-2.236.88-.93 1.88-1.41 3.2-1.536 1.325-.126 2.591.195 3.547.9.492.362.75.644 1.143 1.248l.357.547-.188.211c-.104.116-.356.39-.56.608l-.37.397-.11-.298c-.36-.99-1.404-1.874-2.47-2.093a4.01 4.01 0 0 0-2.482.294c-.358.17-.52.291-.88.653-.736.74-.992 1.332-.997 2.308-.001.317.013.592.032.611.02.02.205-.07.412-.2 1.421-.886 2.977-1.144 4.59-.76 1.05.249 2.267.889 3.182 1.671.17.146.171.148.108.383-.277 1.038-1.026 2.094-1.907 2.688-.783.529-1.576.776-2.61.815-1.75.066-3.017-.415-4.062-1.54l-.392-.42-.116.149c-.24.31-.585.653-.887.88-.405.307-1.238.708-1.734.834-.47.12-1.242.166-1.876.111Zm9.904-1.623a3.411 3.411 0 0 0 1.36-.81c.285-.28.599-.693.556-.732-.166-.15-1.195-.768-1.448-.87-.797-.318-1.754-.374-2.463-.143-.356.116-1.906.871-2.097 1.021l-.114.09.243.293c.608.733 1.402 1.166 2.38 1.296.403.054 1.18-.018 1.583-.145Zm-2.432-9.384c-1.591-.355-2.744-1.725-2.845-3.378-.074-1.211.293-2.165 1.143-2.972A3.625 3.625 0 0 1 48.579.15c.533-.16 1.515-.178 2.036-.039.919.247 1.735.875 2.213 1.705.287.496.426 1.02.452 1.7.03.785-.058 1.229-.37 1.862-.43.87-1.283 1.622-2.16 1.905-.538.173-1.418.214-1.964.092Zm1.41-1.56c.361-.113.702-.302.874-.486l.12-.129-.33-.158c-.686-.327-1.333-.393-1.897-.194-.308.109-.873.43-.873.497 0 .015.112.1.25.19a2.21 2.21 0 0 0 1.856.28ZM47.642 4.24c.238-.18.837-.47 1.195-.578.203-.061.476-.093.799-.094.587 0 1.051.126 1.682.46l.42.221.03-.155c.047-.23.038-.609-.02-.917-.22-1.157-1.262-1.87-2.482-1.697-1.118.158-1.9 1.069-1.897 2.212 0 .3.049.672.087.672.012 0 .096-.056.186-.124Zm10.434 8.351c-.8-.337-1.216-1.014-1.165-1.895.044-.746.504-1.397 1.164-1.645.425-.159 1.154-.131 1.556.06.356.169.735.549.916.92.125.252.14.342.14.8-.002.462-.017.543-.146.79a2.08 2.08 0 0 1-.871.888c-.29.155-.372.174-.812.189-.423.014-.529 0-.782-.107Zm1.012-1.19c.262-.11.354-.285.326-.622-.027-.333-.13-.468-.41-.543-.26-.07-.57.013-.71.19-.12.153-.144.546-.047.76.116.253.509.354.84.215Zm-.777 6.802c-.543-.132-.995-.514-1.249-1.055-.118-.252-.136-.355-.136-.806 0-.478.012-.54.168-.857.196-.397.475-.67.882-.86.253-.119.356-.136.805-.136.45 0 .552.017.808.137.41.192.733.508.931.911.153.312.167.382.167.831 0 .588-.095.838-.47 1.24-.303.324-.608.507-.99.598a1.704 1.704 0 0 1-.916-.003Zm.832-1.277c.174-.08.282-.291.282-.552 0-.429-.207-.623-.664-.623-.383 0-.533.147-.558.546-.021.344.05.526.244.624.163.083.52.085.696.005Zm8.397 1.422c-.805-.114-1.27-.254-1.889-.571-1.744-.892-2.708-2.802-2.517-4.983.119-1.346.572-2.323 1.466-3.16.985-.921 2.254-1.352 3.79-1.285 1.653.072 2.97.765 3.903 2.056.098.135.193.245.211.245.019 0 .092-.087.163-.193.21-.313.878-.988 1.219-1.231.435-.311 1.1-.613 1.647-.75.374-.093.608-.114 1.282-.115.49-.002.949.025 1.133.065 2.028.44 3.404 1.778 3.822 3.72.138.64.126 1.874-.024 2.481-.23.933-.614 1.625-1.272 2.29-.843.854-1.773 1.286-3.054 1.42a4.899 4.899 0 0 1-2.17-.244c-.299-.1-.55-.19-.56-.198-.014-.015.495-1.274.532-1.315.011-.011.27.04.574.114.758.183 1.048.209 1.56.14.875-.119 1.498-.42 2.086-1.008.658-.658.954-1.426.953-2.466 0-.33-.034-.713-.08-.906-.283-1.2-1.292-2.209-2.532-2.529-.499-.129-1.39-.141-1.888-.026-.99.23-1.81.875-2.23 1.756-.237.5-.314.846-.404 1.829-.094 1.023-.22 1.57-.491 2.15-.272.582-.579 1-1.07 1.46-.634.596-1.35.958-2.284 1.158-.37.08-1.564.14-1.876.097Zm1.601-1.593c.456-.116 1.092-.449 1.424-.745.68-.608 1.064-1.458 1.11-2.451.053-1.153-.253-2-.987-2.732-.638-.636-1.225-.916-2.083-.995-1.476-.134-2.716.41-3.458 1.519-.677 1.012-.76 2.493-.202 3.627.393.8 1.205 1.476 2.08 1.73.648.187 1.487.206 2.116.047Zm16.265-4.115c-.437-.143-.876-.523-1.092-.947-.36-.707-.209-1.668.352-2.23.35-.35.655-.475 1.222-.502.757-.037 1.284.197 1.69.749.383.522.467 1.28.206 1.862-.167.372-.625.833-.99.996-.308.139-1.063.178-1.388.072Zm1.037-1.288c.246-.161.29-.722.075-.953-.237-.254-.833-.242-1.005.02-.214.326-.11.842.196.98.204.093.556.07.734-.047Zm-.827 6.87c-.743-.147-1.326-.754-1.47-1.53-.15-.812.292-1.698 1.027-2.06.265-.13.347-.143.835-.143s.57.014.835.144a1.91 1.91 0 0 1 1.066 1.422c.1.62-.084 1.181-.533 1.63a1.912 1.912 0 0 1-1.76.538Zm.854-1.362c.165-.15.236-.45.163-.694-.087-.292-.268-.415-.606-.415-.231 0-.302.024-.443.15-.154.138-.167.173-.167.468 0 .298.012.33.174.475.16.142.198.153.473.133.196-.014.337-.055.406-.117ZM76.126 7.4c-.38-.063-.967-.3-1.313-.53-.414-.274-1.015-.933-1.234-1.352-.601-1.15-.573-2.6.073-3.696.246-.417.77-.962 1.19-1.237.678-.443 1.664-.66 2.502-.553.866.11 1.487.406 2.073.985a3.683 3.683 0 0 1 1.084 3.136c-.28 2.177-2.207 3.608-4.375 3.247Zm1.432-1.619c.273-.107.782-.439.812-.529.026-.078-.521-.338-.939-.446a2.775 2.775 0 0 0-.57-.08c-.431 0-1.096.24-1.416.51l-.129.109.129.108c.17.145.572.346.812.406.287.073 1.031.028 1.3-.078ZM75.459 3.9c.393-.184 1.057-.36 1.362-.36.534 0 1.407.268 1.911.587.124.078.225.112.243.082.067-.107.032-.929-.051-1.22-.119-.412-.277-.666-.612-.983-.336-.318-.635-.458-1.122-.527-1.026-.146-1.917.3-2.35 1.174-.183.372-.194.423-.212.975-.024.768-.017.784.277.582.128-.088.378-.228.554-.31Zm19.024 14.409c-1.12-.185-1.98-.613-2.732-1.357a4.844 4.844 0 0 1-1.271-2.26c-.167-.664-.168-2.005-.002-2.665.296-1.175.969-2.113 2.01-2.802.497-.33 1.126-.674 1.159-.634.062.075.713 1.247.699 1.259-.01.007-.153.074-.319.149-1.085.49-1.877 1.395-2.125 2.43-.115.48-.116 1.384-.003 1.829a3.41 3.41 0 0 0 2.18 2.396 4 4 0 0 0 3.005-.166c.3-.143.484-.284.826-.628.716-.719.993-1.418.993-2.504 0-.672-.095-1.119-.344-1.612-.342-.68-.89-1.21-1.64-1.589l-.347-.174.132-.296.293-.67c.089-.205.18-.373.204-.373.08 0 .582.271.992.538 1.176.763 1.915 1.852 2.134 3.146l.11.644c.032.184.068.497.08.695.029.503.107.818.307 1.237.43.9 1.284 1.596 2.29 1.863.504.133 1.45.12 1.981-.028a3.503 3.503 0 0 0 1.497-.838c.422-.4.696-.836.886-1.41.122-.367.137-.49.137-1.133s-.015-.766-.138-1.138a3.562 3.562 0 0 0-2.542-2.318c-.42-.097-1.13-.1-1.577-.006a4.84 4.84 0 0 1-.348.068l-.127-.651c-.07-.354-.128-.683-.129-.73-.002-.186 1.2-.305 2.03-.2 1.302.163 2.239.634 3.089 1.552.834.902 1.218 1.979 1.217 3.415-.001 1.478-.432 2.596-1.365 3.543-.64.65-1.323 1.056-2.144 1.278-1.573.425-3.256.166-4.443-.685-.358-.256-.956-.861-1.22-1.234L99.74 16l-.104.126c-.057.07-.238.292-.4.494-.606.751-1.526 1.336-2.49 1.582-.635.162-1.642.21-2.264.106Zm19.669-10.183v16.385h2.834v1.597h-4.328V9.672h-1.237V8.126h2.731Zm3.942 6.364c.45 0 .552.017.807.137.41.192.733.508.932.911.153.312.167.382.167.831 0 .588-.095.838-.471 1.24-.302.324-.607.507-.99.598a1.704 1.704 0 0 1-.915-.003c-.543-.132-.996-.514-1.25-1.055-.118-.252-.135-.355-.135-.806 0-.478.012-.54.168-.857.195-.397.475-.67.882-.86.252-.119.356-.136.805-.136Zm-.02 1.262c-.384 0-.534.147-.558.546-.022.344.05.526.244.624.162.083.52.085.696.005.173-.08.282-.291.282-.552 0-.429-.208-.623-.665-.623Zm.752-6.69c.38.143.839.57 1.032.966.127.257.142.344.14.803 0 .463-.015.544-.144.79a2.08 2.08 0 0 1-.871.888c-.29.156-.372.175-.812.19-.424.014-.529 0-.782-.107-.797-.335-1.216-1.015-1.165-1.885.044-.758.495-1.404 1.15-1.65.4-.149 1.046-.147 1.452.005Zm-1.22 1.365c-.12.153-.144.546-.047.76.116.253.51.354.841.215.263-.11.355-.285.327-.622-.028-.333-.13-.468-.41-.543-.26-.07-.57.013-.71.19Z"/></svg>