<svg xmlns="http://www.w3.org/2000/svg" width="86" height="32"><path fill="#000" fill-rule="nonzero" d="M6.498 25.432c.772.607 1.403 1.215 2.127 2.01-.49.748-.865 1.239-1.402 1.706a39.691 39.691 0 0 0-2.197-1.94 17.485 17.485 0 0 1 1.472-1.776Zm3.623-.234c.772.608 1.403 1.215 2.127 2.01-.514.725-.888 1.216-1.402 1.707a39.691 39.691 0 0 0-2.197-1.94 17.485 17.485 0 0 1 1.472-1.777ZM1.753 2.408l.14.07c.283 3.798.303 8.262.304 12.567v2.065c0 1.192.678 1.73 1.403 2.01.41.144.84.198 1.096.209.117-.03.25-.045.4-.045H5.4c1.589 0 2.875-.047 3.693-.35.654-.234 1.075-.515 1.075-.819 0-.888-.888-2.711-1.87-4.628.444-.795.912-1.52 1.403-2.104h.093c.865 1.52 1.87 3.857 1.87 5.704 0 1.402-.561 2.501-1.309 3.483-.841.841-2.174 1.122-5.026 1.122h-.233l-.048-.003-.186.003c-1.473 0-2.431-.304-3.202-1.075C.514 19.447.49 18.115.49 15.38.49 11.828.28 8.088 0 4.137c.631-.7 1.215-1.309 1.753-1.73Zm38.545 25.875c.771.608 1.403 1.216 2.127 2.01-.49.725-.865 1.216-1.402 1.707a39.691 39.691 0 0 0-2.198-1.94 17.485 17.485 0 0 1 1.473-1.777Zm6.124-2.851c.772.607 1.403 1.215 2.127 2.01-.49.748-.865 1.239-1.402 1.706a39.691 39.691 0 0 0-2.197-1.94 17.485 17.485 0 0 1 1.472-1.776Zm22.86 0c.772.607 1.403 1.215 2.128 2.01-.514.748-.888 1.239-1.403 1.706a39.691 39.691 0 0 0-2.197-1.94 17.485 17.485 0 0 1 1.473-1.776Zm-19.237-.234c.772.608 1.403 1.215 2.127 2.01-.514.725-.888 1.216-1.402 1.707a39.691 39.691 0 0 0-2.197-1.94 17.485 17.485 0 0 1 1.472-1.777Zm22.837 0c.772.608 1.403 1.215 2.127 2.01-.49.725-.864 1.216-1.402 1.707a39.691 39.691 0 0 0-2.197-1.94 17.485 17.485 0 0 1 1.472-1.777Zm-35.202-.631c.771.608 1.403 1.215 2.127 2.01-.49.725-.865 1.216-1.402 1.706a39.691 39.691 0 0 0-2.198-1.94 17.485 17.485 0 0 1 1.473-1.776Zm3.623-.257c.772.607 1.403 1.215 2.127 2.01-.514.748-.888 1.215-1.402 1.706a39.691 39.691 0 0 0-2.197-1.94 17.485 17.485 0 0 1 1.472-1.776ZM65.66 1.38l.07.116c-.398.795-.889 1.543-1.45 2.29-1.121.281-2.734.819-4.277 1.38-2.244.841-4.371 1.683-5.68 2.384v.047c1.005.654 2.104 1.122 2.875 1.449l-.561.935c2.01 1.823 4.371 4.441 6.896 7.41 1.051 1.239 2.103 1.917 3.623 1.917h.724v-.024c1.45 0 2.945-.584 3.226-1.636l.538-2.01 1.285-.935.117.14c-.257.958-.42 1.753-.42 2.174 0 .654.163 1.192.607 1.543.608.49 1.332.748 2.314.748l.078-.001c.091-.015.19-.023.296-.023h1.566c1.613 0 3.016-.047 4.09-.374 1.193-.35 2.198-1.075 2.198-1.543 0-.14 0-.28-.047-.42-.678.07-1.449.07-2.103.07-2.174 0-3.834-.585-4.488-2.01a3.502 3.502 0 0 1-.28-1.356c0-1.38.513-2.758 1.402-3.693.748-.772 1.566-1.263 2.407-1.263 1.52 0 2.735 1.45 3.577 3.717.467 1.239.794 2.665.794 4.465 0 1.192-.28 2.197-.911 2.968-1.17 1.356-3.343 1.847-6.686 1.847h-1.519l-.047-.003v.026h-.42c-1.824 0-3.226-.514-3.857-1.917h-.07c-.631 1.263-2.104 1.917-3.717 1.917h-.35c-.106 0-.204-.008-.294-.022l-.057-.001c-2.29 0-3.53-1.262-4.839-3.039-.607-.795-1.192-1.566-1.636-2.08h-.07c-.023 2.922-1.66 5.119-6.966 5.119h-.514l-.047-.003v.026h-.42c-1.824 0-3.226-.514-3.857-1.917h-.07c-.632 1.263-2.104 1.917-3.717 1.917h-.35l-.025-.001-.42.001c-1.823 0-3.225-.514-3.857-1.917h-.07c-.63 1.263-2.103 1.917-3.716 1.917h-.35l-.048-.002-.42.002c-1.824 0-3.226-.514-3.857-1.917h-.07c-.631 1.263-2.104 1.917-3.717 1.917h-.35c-.106 0-.204-.008-.294-.022l-.034-.001c-1.683 0-3.085-.701-3.81-3.062h-.093c-.14.7-.538 1.309-1.356 1.8-1.239.748-2.501 1.262-3.763 1.262-2.104 0-3.25-1.262-3.25-3.46 0-.467.024-.911.047-1.379l.725-.047c.07 1.543.841 2.502 2.641 2.502.982 0 2.174-.421 3.062-.935.701-.398 1.216-.959 1.216-1.403 0-1.262-.678-3.763-1.543-6.966.42-.654.841-1.332 1.332-1.916l.117.07c.701 2.688 1.262 5.586 1.777 8.321.327 1.847 1.542 2.829 2.968 2.829h.678v-.024c1.45 0 2.945-.584 3.226-1.636l.538-2.01 1.285-.935.117.14c-.257.958-.42 1.753-.42 2.174 0 .654.163 1.192.607 1.543.608.49 1.332.748 2.314.748h.795v-.024c1.45 0 2.945-.584 3.226-1.636l.537-2.01 1.286-.935.117.14c-.257.958-.421 1.753-.421 2.174 0 .654.164 1.192.608 1.543.607.49 1.332.748 2.314.748h.771v-.024c1.45 0 2.945-.584 3.226-1.636l.537-2.01 1.286-.935.117.14c-.257.958-.42 1.753-.42 2.174 0 .654.163 1.192.607 1.543.608.49 1.332.748 2.314.748l.078-.001c.09-.015.19-.023.296-.023h.748c1.52 0 3.32-.257 4.535-1.075.374-.234.911-.655.911-.912 0-.397-.163-.818-.374-1.262-.794-1.683-2.618-3.693-4.628-5.68a21.132 21.132 0 0 1-1.169-1.262c-.046-.327-.14-.678-.14-1.029 0-.514.187-1.052.514-1.613.14-.257.421-.514.678-.7 1.94-1.263 6.358-2.782 11.5-4.372Zm14.609 9.793c-1.24 0-2.244.958-2.244 1.66 0 1.52 2.478 1.987 5.423 1.963-.374-1.776-1.66-3.623-3.18-3.623ZM32.28 6.802c.748 0 1.17.42 1.17.912 0 .49-.305.865-.609 1.215h-.046c-.21-.42-.398-.678-.608-.724-.14-.047-.35-.047-.584-.047-.655 0-1.31.374-1.31.654 0 .889 1.567 1.192 2.689 1.192.63 0 1.262-.046 1.916-.07v.047c-.233.468-.467.888-.724 1.262-1.87.304-3.506.795-4.862 1.403l-.047-.047.444-.795c.164-.21.538-.514.865-.608v-.046c-.888-.257-1.45-.818-1.45-1.636 0-.515.352-1.17.89-1.637.607-.607 1.495-1.075 2.266-1.075Zm45.488-2.805c.771.608 1.402 1.216 2.127 2.01-.514.725-.888 1.216-1.403 1.707a39.691 39.691 0 0 0-2.197-1.94 17.485 17.485 0 0 1 1.473-1.777Zm3.6-.257c.77.608 1.402 1.215 2.127 2.01-.491.748-.865 1.216-1.403 1.707a39.691 39.691 0 0 0-2.197-1.94 17.485 17.485 0 0 1 1.472-1.777ZM78.772 0c.771.608 1.402 1.215 2.127 2.01-.514.725-.888 1.216-1.403 1.707a39.691 39.691 0 0 0-2.197-1.94A17.485 17.485 0 0 1 78.773 0Z"/></svg>