<svg xmlns="http://www.w3.org/2000/svg" width="120" height="18" fill="none"><path fill="#000" d="M29.52 14.66V7.12c0-1.561.32-1.655 1.636-1.712.113-.112.113-.507 0-.62-.921.019-1.485.038-2.444.038-.94 0-1.486-.02-2.426-.038-.113.113-.113.508 0 .62 1.316.057 1.636.15 1.636 1.711v7.54c0 1.56-.32 1.655-1.636 1.711-.113.113-.113.508 0 .62.921-.018 1.485-.037 2.444-.037.94 0 1.486.019 2.426.038.113-.113.113-.508 0-.62-1.316-.057-1.636-.151-1.636-1.712Zm8.703 2.481c1.824 0 3.498-.865 4.776-2.538-.094-.17-.226-.282-.432-.282-1.335 1.466-2.614 2.05-4.362 2.05-2.915 0-4.287-2.953-4.287-5.698 0-1.617.413-2.877 1.109-3.723.94-1.147 2.03-1.673 3.008-1.673 2.595 0 3.63 1.542 4.118 3.159.226.075.395.018.62-.094-.094-.978-.244-1.88-.413-2.915-.96-.094-1.805-.846-4.118-.846-1.598 0-2.933.583-4.042 1.598-1.26 1.147-1.994 2.896-1.994 4.851 0 3.027 1.975 6.111 6.017 6.111Zm9.035-2.482V7.12c0-1.56.32-1.654 1.635-1.71.113-.113.113-.508 0-.621-.92.019-1.485.038-2.444.038-.94 0-1.485-.02-2.425-.038-.113.113-.113.508 0 .62 1.316.057 1.635.15 1.635 1.711v7.54c0 1.56-.32 1.655-1.635 1.711-.113.113-.113.508 0 .62.92-.018 1.485-.037 2.444-.037.94 0 1.485.019 2.425.038.113-.113.113-.508 0-.62-1.316-.057-1.635-.151-1.635-1.712Zm6.022.733V6.35c0-.659.658-.922 1.58-.922 4.06 0 5.396 3.29 5.396 6.186 0 3.798-2.275 4.738-4.926 4.738-1.843 0-2.05-.357-2.05-.958Zm-.808-10.566c-.94 0-1.486-.02-2.426-.038-.113.113-.113.508 0 .62 1.316.057 1.636.15 1.636 1.711v7.54c0 1.56-.32 1.655-1.636 1.711-.113.113-.113.508 0 .62.922-.018 1.486-.037 2.444-.037.696 0 1.486.038 3.423.038 2.65 0 6.148-1.204 6.148-5.83 0-3.496-2.877-6.373-6.487-6.373-1.203 0-2.369.038-3.102.038Zm15.534 5.34h-1.711V6.404c0-.451.225-.827.677-.827h1.974c1.41 0 1.71.752 2.124 2.05.226.037.433 0 .621-.095a66.012 66.012 0 0 0-.414-2.726c0-.038-.018-.057-.075-.057-.32.057-.47.076-.921.076h-4.795s-1.485-.02-2.425-.038c-.113.113-.113.508 0 .62 1.316.057 1.636.15 1.636 1.711v7.54c0 1.56-.32 1.655-1.636 1.711-.113.113-.113.508 0 .62.921-.018 2.444-.037 2.444-.037h4.043c.902 0 2.406.038 2.406.038.264-.94.546-2.181.696-3.14-.207-.094-.414-.15-.658-.094-.376 1.353-1.034 2.463-2.463 2.463h-2.557c-.414 0-.677-.301-.677-.809V10.88h1.71c1.599 0 1.655.432 1.712 1.278.113.113.507.113.62 0-.019-.658-.037-1.015-.037-1.654 0-.64.018-1.053.037-1.617-.113-.113-.507-.113-.62 0-.057 1.034-.113 1.278-1.711 1.278ZM80.6 5.088c-1.09-.15-1.034-.508-2.877-.508-1.71 0-3.572 1.26-3.572 3.253 0 1.767 1.24 2.67 2.707 3.29 1.185.527 3.103.884 3.103 3.027 0 1.524-.865 2.313-2.35 2.313-1.768 0-2.896-.79-3.31-2.67a.732.732 0 0 0-.601.057c.075 1.447.15 1.936.376 2.858 1.184 0 1.692.432 3.365.432 2.275 0 4.1-1.73 4.1-3.648 0-1.786-1.223-2.688-2.596-3.271-.902-.376-3.46-1.053-3.46-2.896 0-1.147.866-2.106 2.05-2.106 1.843 0 2.426 1.166 2.802 2.407.207 0 .432.019.602-.113-.057-.902-.132-1.429-.339-2.425Zm8.28 9.57V6.725c0-.64.376-1.166 1.053-1.166H91.1c1.034 0 1.166.3 1.485 1.748.207 0 .414.02.64-.094a19.21 19.21 0 0 1-.245-2.895c-.188.019-.376.019-.564.075 0 .113-.019.433-.414.433h-8.179c-.395 0-.395-.32-.395-.433-.15-.038-.3-.094-.582-.075-.076.921-.188 1.899-.414 2.895.17.094.395.113.64.094.375-1.504.62-1.748 1.654-1.748h1.485c.696 0 1.072.526 1.072 1.11v7.99c0 1.56-.32 1.655-1.824 1.711-.113.113-.113.508 0 .62.921-.018 1.598-.037 2.633-.037 1.015 0 1.673.019 2.613.038.113-.113.113-.508 0-.62-1.504-.057-1.824-.151-1.824-1.712Zm8.405-7.54c0-1.56.282-1.654 1.73-1.71.113-.113.113-.508 0-.621-.922.019-1.542.038-2.539.038-.864 0-1.297-.02-2.237-.038-.113.113-.113.508 0 .62 1.128.057 1.448.15 1.448 1.711v5.397c0 3.835 2.707 4.625 4.399 4.625 3.855 0 4.776-2.388 4.776-5.735V7.12c0-1.56.32-1.579 1.448-1.71.113-.113.113-.508 0-.621-.921.019-1.166.038-1.918.038-.846 0-1.241-.02-2.181-.038-.113.113-.113.508 0 .62 1.41.132 1.73.15 1.73 1.711v4.626c0 2.106-.282 4.625-3.46 4.625-.902 0-1.673-.395-2.237-.94-.921-.884-.96-2.313-.96-3.535V7.12Zm20.073.207v6.28c0 .357 0 .564-.131.564-.151 0-.358-.338-.903-1.034l-6.449-8.31-2.538-.038c-.113.113-.113.508 0 .62.808.057 1.372.715 1.485 1.204v7.84c0 1.674-.32 1.787-1.636 1.918-.113.113-.113.508 0 .62.921-.018 1.279-.037 2.106-.037.809 0 1.147.019 2.087.038.113-.113.113-.508 0-.62-1.316-.132-1.636-.208-1.636-1.919V8.7c0-.64 0-.921.151-.921.113 0 .319.206.639.62l6.562 8.292c.207.282.451.451.752.451.263 0 .433-.225.433-.583V7.326c0-1.673.319-1.786 1.635-1.918.113-.112.113-.507 0-.62-.921.019-1.278.038-2.105.038-.809 0-1.147-.02-2.088-.038-.112.113-.112.508 0 .62 1.317.132 1.636.207 1.636 1.918ZM26.138.295c0 .098-.03.187-.088.27-.058.081-.122.122-.191.122-.574.057-1.044.251-1.408.582-.365.331-.74.963-1.128 1.894L17.39 17.248c-.039.13-.147.196-.326.196-.14 0-.248-.065-.325-.196l-3.327-7.33-3.827 7.33c-.077.13-.186.196-.325.196-.171 0-.284-.065-.338-.196L3.094 3.163C2.73 2.29 2.346 1.677 1.943 1.33 1.538.983.976.77.255.687.194.687.136.652.08.582A.378.378 0 0 1 0 .343C0 .114.062 0 .186 0c.52 0 1.063.025 1.629.074a16.16 16.16 0 0 0 1.489.073c.472 0 1.03-.024 1.674-.073A24.89 24.89 0 0 1 6.77 0c.124 0 .186.114.186.343 0 .23-.038.344-.116.344-.52.04-.929.18-1.228.417a1.132 1.132 0 0 0-.448.931c0 .196.063.441.187.736l4.816 11.461L12.9 8.79l-2.547-5.627C9.895 2.158 9.519 1.51 9.224 1.22 8.93.93 8.484.752 7.886.687c-.054 0-.106-.035-.156-.105a.397.397 0 0 1-.076-.239c0-.229.054-.343.163-.343.52 0 .996.025 1.43.074.42.049.865.073 1.338.073.465 0 .958-.024 1.477-.073C12.598.024 13.126 0 13.645 0c.125 0 .187.114.187.343 0 .23-.039.344-.116.344-1.04.073-1.56.384-1.56.931 0 .246.12.626.361 1.14l1.687 3.605 1.675-3.298c.233-.466.35-.858.35-1.177 0-.752-.52-1.152-1.56-1.201-.093 0-.139-.115-.139-.344a.43.43 0 0 1 .07-.233c.046-.073.093-.11.14-.11.371 0 .829.025 1.372.074.52.049.946.073 1.28.073.24 0 .593-.02 1.058-.061A15.73 15.73 0 0 1 19.926 0c.093 0 .14.098.14.295 0 .261-.086.392-.256.392-.605.065-1.092.24-1.46.527-.368.286-.828.936-1.379 1.95l-2.233 4.35 3.024 6.497L22.23 3.066c.156-.4.233-.768.233-1.103 0-.801-.52-1.226-1.559-1.275-.093 0-.14-.115-.14-.344 0-.229.07-.343.21-.343.38 0 .83.025 1.35.074.48.049.883.073 1.21.073.34 0 .736-.024 1.186-.073.465-.05.883-.074 1.255-.074.11 0 .164.098.164.295Z"/></svg>