<svg xmlns="http://www.w3.org/2000/svg" width="121" height="18"><path fill="#000" fill-rule="nonzero" d="M78.735 14.865V7.517c0-1.231.192-1.962.884-1.962h.424c1.442 0 2.346.5 2.673 1.981.212 0 .481-.02.655-.096a22.179 22.179 0 0 1-.25-2.732c0-.019-.039-.057-.058-.057-.654.057-2.79.154-4.31.154H77.1c-1.48 0-3.75-.097-4.482-.154-.038 0-.077.038-.077.057-.077.866-.269 1.866-.48 2.79.192.077.423.096.653.096.385-1.54 1.27-2.04 2.54-2.04h.942c.712 0 .904.732.904 1.905v7.406c0 1.597-.327 1.693-1.866 1.75-.115.116-.115.52 0 .636.943-.02 1.922-.039 2.694-.039.738 0 1.712.02 2.673.039.116-.116.116-.52 0-.635-1.538-.058-1.865-.154-1.865-1.75ZM18.165.001H18.733l.172.001h.312l.137.001.32.001H19.844l.056.053v.496c0 .137-.076.205-.228.205-.746.035-.9.11-1.172.502-.15.215-.443.677-.748 1.194l-2.62 4.896-.073.153 3.2 6.546.194.053 5.041-11.96c.175-.483.147-.825-.078-1.026-.226-.196-.385-.312-.969-.336l-.472-.024a.278.278 0 0 1-.166-.06.173.173 0 0 1-.08-.145V.053l.072-.05h5.695l.057.05v.498c0 .135-.077.203-.229.203-.746.033-1.298.196-1.656.485-.359.29-.639.692-.84 1.213 0 0-3.782 8.655-5.683 12.928l-.196.44-.343.767c-.607 1.156-1.204 1.05-1.729-.034-.715-1.473-2.013-4.318-3.025-6.55-.285.588-.591 1.22-.902 1.857l-.375.766c-.75 1.53-1.49 3.012-1.99 3.94-.709 1.232-1.293 1.072-1.757.034-1.61-3.8-4.92-10.475-6.476-14.215-.288-.689-.504-1.131-.71-1.306C1.438.906 1.009.8.358.766.118.74 0 .682 0 .588V.067L.057.016h.227L.426.014h.333L.948.013H5.15l.19.001.907.001.057.05v.497c0 .137-.087.203-.258.203L5.4.793c-.554.023-.83.19-.83.496 0 .143.059.375.188.688 1.196 2.915 5.225 11.427 5.506 12.02l.015.033.159.04 2.761-5.507-.554-1.222-1.897-3.731-.363-.734-.13-.26C9.423.963 9.44.876 8.596.764c-.235-.03-.357-.06-.357-.177V.063l.07-.05.328-.001h1.19L10.04.01h3.18l.13.042v.522c0 .119-.084.18-.257.18l-.358.05c-.9.07-.752.438-.154 1.63l1.822 3.726 2.014-4.018c.337-.735.268-.918.129-1.088-.08-.096-.349-.25-.932-.273l-.228-.026a.276.276 0 0 1-.166-.058.171.171 0 0 1-.078-.147V.055l.072-.05.87-.004ZM24.9 4.743s2.133.054 2.97.054c.73 0 2.808-.054 2.808-.054l.027.054v.594c0 .081-.054.135-.162.135l-.567.054c-.837.081-1.134.297-1.134.837v8.991c0 .594.27.945 1.134 1.026l.567.054c.081 0 .162.054.162.162v.567l-.027.054s-2.052-.054-2.889-.054h-.11c-.833.005-2.752.054-2.752.054l-.054-.054v-.567c0-.108.081-.162.19-.162l.54-.054c.89-.08 1.16-.513 1.16-1.026v-8.99c0-.595-.324-.757-1.16-.838l-.54-.054c-.109 0-.19-.027-.19-.108v-.62Zm11.183 6.664c.594 0 1.026.135 1.431.675l2.997 3.726c.378.432.405.73.405 1.08v.324l.027.027s.972-.027 1.647-.027c.756 0 2.187.027 2.187.027l.081-.027v-.567c0-.08-.108-.135-.189-.162l-.135-.027c-.54-.108-1.188-.27-1.512-.648l-4.077-4.914c-.135-.162-.243-.297-.243-.459 0-.216.162-.513.621-.999l2.322-2.673c.972-1.107 1.701-1.16 2.754-1.242.135 0 .216-.054.216-.135v-.62l-.08-.028s-1.189.054-1.89.054c-.784 0-2.97-.054-2.97-.054l-.028.027v.621c0 .081.054.108.162.135.54.081.783.324.783.54 0 .513-.837 1.512-1.917 2.7-1.188 1.27-1.7 1.728-2.592 1.728V6.412c0-.54.297-.675 1.134-.837l.297-.054c.108-.027.162-.054.162-.135v-.594l-.027-.054s-1.7.054-2.457.054c-.837 0-3.05-.054-3.05-.054l-.028.054v.621c0 .081.081.108.19.108l.54.054c.863.081 1.16.243 1.16.837v8.991c0 .513-.35.945-1.16 1.026l-.54.054c-.109 0-.19.054-.19.162v.567l.054.054s2.214-.054 2.97-.054c.81 0 2.511.054 2.511.054l.027-.054v-.567c0-.108-.08-.135-.162-.162l-.297-.054c-.783-.135-1.134-.432-1.134-1.026v-3.996m13.833-4.995c0-.54.297-.756 1.134-.837l.567-.054c.108 0 .162-.054.162-.135v-.594l-.027-.054s-2.079.054-2.808.054c-.837 0-2.97-.054-2.97-.054l-.027.054v.621c0 .081.081.108.19.108l.54.054c.836.081 1.16.243 1.16.837v8.991c0 .513-.27.945-1.16 1.026l-.54.054c-.109 0-.19.054-.19.162v.567l.054.054s2.106-.054 2.862-.054c.837 0 2.89.054 2.89.054l.026-.054v-.567c0-.108-.08-.162-.162-.162l-.567-.054c-.864-.08-1.134-.432-1.134-1.026v-8.99m3.353-1.68-.053.027v.62c0 .055.028.136.19.136 1.269.08 1.62.108 1.62.945v9.072c0 .513-.271.755-1.108.863l-.567.08c-.108.028-.162.055-.162.163v.568l.027.053s2.026-.053 2.782-.053c.837 0 2.996.053 2.996.053l.027-.053v-.568c0-.108-.081-.135-.19-.162l-.538-.08c-.864-.136-1.19-.27-1.19-.864v-3.619c.486.216 1.026.27 1.701.27 3.834 0 4.618-2.539 4.618-4.159 0-1.404-.702-3.293-4.536-3.293-.999 0-2.08.055-2.836.055-.783 0-2.376-.055-2.78-.055Zm5.455.783c1.485 0 2.537.512 2.537 2.834 0 2.079-.782 3.05-2.402 3.05-.54 0-1.216-.026-1.756-.242V6.461c0-.702.325-.945 1.621-.945ZM112.141.092c.363 0 .495.261.702.781l5.33 14.092c.365 1.015.884 1.404 1.924 1.508l.287.025c.13 0 .26.078.26.21v.493l-.079.051s-2.001-.05-3.015-.05h-.117c-.993.003-3.342.05-3.342.05l-.026-.05v-.495c0-.13.052-.209.184-.209l.728-.05c.987-.078 1.353-.393 1.092-1.12l-1.586-4.394h-5.408c-.624 0-.78.104-.908.441l-1.51 3.77c-.26.652.08 1.226 1.041 1.304l.754.053c.104 0 .207.078.207.207v.494l-.05.053-1.591-.028-.382-.006c-.634-.01-1.237-.019-1.487-.019h-.114c-.733.006-2.228.053-2.228.053l-.052-.053v-.494c0-.129.078-.207.209-.207 1.145-.078 1.793-.287 2.521-1.951l5.772-13.522c.285-.676.493-.937.884-.937ZM92.4 4.716c.243 0 1.917.054 2.214.054.064 0 .606-.006 1.194-.015l.394-.007c.522-.009 1.003-.02 1.139-.032l.027.027v.621c0 .054-.054.135-.135.135l-.594.054c-.648.054-.54.297-.27.73l2.727 4.454h.054l2.511-4.455c.351-.648.351-.675-.297-.729l-.621-.054c-.081 0-.108-.08-.108-.135v-.62l.054-.028c.297 0 1.809.054 2.079.054.189 0 1.431-.027 1.836-.054l.027.054v.594c0 .054 0 .108-.189.135l-.459.054c-.864.108-.999.27-1.404 1l-2.97 5.237v3.753c0 .594.297.783 1.134.864l.567.054c.108 0 .189.081.189.162v.567l-.054.054s-2.052-.054-2.889-.054h-.111c-.832.005-2.751.054-2.751.054l-.054-.054v-.567c0-.08.081-.162.189-.162l.54-.054c.837-.08 1.161-.324 1.161-.864v-3.645L94.128 6.31c-.351-.567-.783-.729-1.566-.81-.081 0-.216-.027-.216-.135V4.77ZM111.546 2.9h-.053l-2.6 6.606c-.104.26.077.338.649.338h4.525L111.546 2.9ZM68.69 6.39c0-.54.297-.756 1.134-.837l.567-.054c.108 0 .162-.054.162-.135V4.77l-.027-.054s-2.08.054-2.808.054c-.837 0-2.97-.054-2.97-.054l-.027.054v.621c0 .081.08.108.189.108l.54.054c.837.081 1.16.243 1.16.837v8.991c0 .513-.27.945-1.16 1.026l-.54.054c-.108 0-.19.054-.19.162v.567l.055.054s2.106-.054 2.862-.054c.837 0 2.889.054 2.889.054l.027-.054v-.567c0-.108-.081-.162-.162-.162l-.567-.054c-.864-.08-1.134-.432-1.134-1.026v-8.99m20.292 0c0-.54.297-.757 1.134-.838l.567-.054c.108 0 .162-.054.162-.135V4.77l-.027-.054s-2.079.054-2.808.054c-.837 0-2.97-.054-2.97-.054l-.027.054v.621c0 .081.081.108.189.108l.54.054c.837.081 1.161.243 1.161.837v8.991c0 .513-.27.945-1.161 1.026l-.54.054c-.108 0-.189.054-.189.162v.567l.054.054s2.106-.054 2.862-.054c.837 0 2.889.054 2.889.054l.027-.054v-.567c0-.108-.081-.162-.162-.162l-.567-.054c-.864-.08-1.134-.432-1.134-1.026v-8.99"/></svg>