<svg xmlns="http://www.w3.org/2000/svg" viewBox="0 0 134.78 40"><path d="M17.445 22.262q0 3.586-2.59 6.207-2.608 2.567-6.187 2.574-3.613 0-6.156-2.574C.831 26.759.002 24.679 0 22.262c0-2.46.832-4.52 2.496-6.172 1.66-1.66 3.72-2.49 6.172-2.492q3.598 0 6.187 2.555c1.73 1.71 2.59 3.74 2.59 6.109m-3.633 0q.002-2.056-1.531-3.535c-1.03-1.01-2.23-1.52-3.613-1.516-1.45 0-2.66.48-3.617 1.438-.958.926-1.43 2.13-1.434 3.613 0 1.45.488 2.66 1.465 3.648 1 1 2.2 1.5 3.586 1.5q2.13 0 3.629-1.515c1.01-1.02 1.52-2.23 1.515-3.633m2.196-15.184c0 1.84-.688 3.46-2.067 4.875-1.41 1.39-3.03 2.09-4.863 2.086q-2.82 0-4.863-2.04c-1.35-1.4-2.02-3.04-2.02-4.921 0-1.93.664-3.58 1.988-4.961C5.503.747 7.133.067 9.078.067q2.834-.002 4.894 2.1c1.36 1.39 2.04 3.02 2.036 4.911m-10.844.738q.14-.142.28-.265a2 2 0 0 1 .317-.254c-.012.62-.074 1-.187 1.152q-.175.206-.461-.27a.3.3 0 0 1-.032-.187q0-.111.083-.176m7.261-.738c0-.918-.332-1.72-.996-2.418-.672-.703-1.46-1.06-2.351-1.059q-1.435.001-2.383 1.028-.933.95-.934 2.449v.219c.875-.633 1.91-.945 3.11-.946a5.968 5.968 0 0 1 2.48.535c.219.106.422.208.598.301q.271.14.476.285zm-1.531 3.266-.129-.125a1 1 0 0 0-.14-.114 1 1 0 0 0 .156-.078q.08-.06.16-.125zm-1.816.16c.578 0 1.09-.133 1.547-.399q-.57-.347-1.672-.441c-.664 0-1.18.129-1.551.379q.724.459 1.676.46M50.727 24.246c0 1.77-.645 3.32-1.941 4.664a7 7 0 0 1-2.297 1.469q-1.279.509-2.961.473l-.45-.059a2 2 0 0 1-.234-.047 2.5 2.5 0 0 1-.344-.094q-.89-.404-.89-1.293c0-.906.469-1.36 1.398-1.36l.356.095.425.082q1.905 0 3.09-1.22c.355-.331.63-.737.817-1.218q.285-.725.285-1.492c0-1.13-.371-2.05-1.113-2.773-.75-.727-1.65-1.09-2.711-1.086-.535 0-1.04.09-1.493.27q-.674.274-1.277.913a2.1 2.1 0 0 0-.414.508q-.18.309-.32.676c-.094.242-.18.504-.25.781a10 10 0 0 0-.153.805 10 10 0 0 1-.203 2.094 6.6 6.6 0 0 1-.578 1.707 5.7 5.7 0 0 1-.984 1.359 6.2 6.2 0 0 1-1.371 1.066h.011a1.3 1.3 0 0 1-.687.215q-.603-.002-.984-.449a1.8 1.8 0 0 1-.274-.426 1.4 1.4 0 0 1-.094-.512q.002-.803.653-1.136.78-.499 1.242-1.371a5.5 5.5 0 0 0 .582-1.98c0-1.36-.371-2.46-1.113-3.278q-1.089-1.24-2.746-1.242-1.56 0-2.727 1.195-1.15 1.182-1.148 2.828.002 1.041.546 2.121c.164.332.387.648.664.957q.422.464.84.77.675.345.676 1.078c0 .34-.137.664-.402.972a1.4 1.4 0 0 1-.5.344 1.5 1.5 0 0 1-.637.13l-.547-.192a8.2 8.2 0 0 1-1.445-1.242 7.4 7.4 0 0 1-1.078-1.54c-.566-1.11-.852-2.25-.852-3.398 0-1.81.641-3.38 1.918-4.723 1.29-1.34 2.85-2 4.692-2.004 1.23 0 2.36.32 3.37.961h-.011q1.307.79 1.824 1.54c.063-.079.145-.16.238-.25l.332-.333a6.8 6.8 0 0 1 2.204-1.453q1.196-.499 2.496-.5c1.75 0 3.28.656 4.605 1.965 1.31 1.29 1.96 2.83 1.965 4.633m-.887-11.344q0 2.071-1.55 3.656c-1.06 1.04-2.27 1.57-3.649 1.567-1.41 0-2.63-.512-3.644-1.528-1.01-1.05-1.52-2.28-1.516-3.695 0-1.45.496-2.68 1.492-3.719.984-1.03 2.21-1.54 3.668-1.539 1.42 0 2.64.523 3.672 1.574q1.53 1.562 1.527 3.684m-8.133.555q.106-.105.211-.2c.07-.07.152-.137.239-.19q-.011.696-.145.866-.129.154-.34-.203a.2.2 0 0 1-.027-.14.16.16 0 0 1 .062-.133m5.446-.555q-.001-1.03-.746-1.812-.754-.793-1.766-.793c-.719 0-1.31.258-1.785.77-.47.472-.7 1.09-.7 1.835v.164c.657-.473 1.43-.711 2.333-.71a4.6 4.6 0 0 1 1.86.401c.163.082.315.156.448.227s.254.141.356.215zm-1.149 2.45-.093-.095a.5.5 0 0 0-.11-.082 1 1 0 0 0 .121-.058c.04-.031.078-.067.118-.098zm-1.363.12c.438 0 .824-.102 1.16-.297q-.42-.263-1.254-.332-.744-.001-1.16.286c.363.227.781.344 1.254.343M72.325 37.21h1.008c.852 0 1.31.43 1.383 1.29q0 1.367-1.371 1.433h-2.403c-.816-.023-1.25-.477-1.316-1.363V24.859q0-2.086-1.078-3.207a3.6 3.6 0 0 0-1.23-.84q-.665-.286-1.505-.285c-.844 0-1.66.309-2.437.922a5.4 5.4 0 0 0-.77.734q-.297.37-.43.71c1.57.048 2.79.536 3.637 1.458q1.603 1.725 1.598 3.93.002 2.608-1.598 2.617c-1.79.031-3.31-.594-4.57-1.883-1.25-1.29-1.87-2.84-1.871-4.676 0-1.85.633-3.4 1.894-4.664 1.25-1.25 2.77-1.87 4.547-1.871.891 0 1.73.16 2.5.484a6.7 6.7 0 0 1 2.118 1.422c.324.301.613.66.863 1.09q.394.627.617 1.313c.277.828.414 1.75.414 2.746zm-7.469-8.703v-.144c0-.047-.008-.098-.015-.153q.074.024.132.047l.153.024zm-.511-.547a2.2 2.2 0 0 0 .496.25 4 4 0 0 0-.07-.379 8 8 0 0 0-.118-.437v.012c-.426-1.16-1.27-1.78-2.523-1.86q.033.093.097.215.06.117.153.281c.402.871 1.06 1.51 1.965 1.918m22.094.133c-1.17 1.94-2.99 2.87-5.47 2.781-1.75 0-3.28-.648-4.57-1.941a7.1 7.1 0 0 1-1.457-2.133q-.485-1.148-.484-2.508c0-1.84.63-3.38 1.895-4.629 1.27-1.25 2.81-1.87 4.628-1.87q1.514-.002 2.793.6 1.278.594 2.274 1.673.119.128.203.332.094.198.117.449.023.26-.105.555a2 2 0 0 1-.414.57q-.451.282-.891.281-.4 0-.852-.258c-.828-.996-1.87-1.49-3.125-1.492-1.09 0-1.99.36-2.71 1.078-.727.703-1.09 1.61-1.09 2.711q0 1.562 1.125 2.723c.758.758 1.65 1.14 2.676 1.137q2.326.094 3.207-1.621c.348-.54.75-.805 1.21-.805q.41 0 .805.246c.203.152.352.316.438.5q.14.269.14.578.001.498-.343 1.055zm-.817-16.852c0 .406-.109.73-.332.985q-.33.368-1.004.496-1.32-.001-1.316-1.004.002-.627-.653-1.008-.71-.392-1.265-.39c-.953 0-1.52.433-1.68 1.3q0 .678.293 1.27.299.58.88 1.113c.323.316.858.648 1.608 1.004l1.137.558q.651.34.652 1.16c0 .79-.477 1.27-1.421 1.446l-.57-.203-1.466-.746a8.5 8.5 0 0 1-1.847-1.301 6.7 6.7 0 0 1-1.246-1.551 5.5 5.5 0 0 1-.496-1.398 7.6 7.6 0 0 1-.176-1.692c.188-1.11.688-2 1.492-2.64q1.206-.996 2.84-.996 1.65 0 2.973.972c.883.63 1.42 1.5 1.597 2.59zm2.64 9.379q0-.603.239-1.137.224-.534.613-.922.404-.405.938-.628.533-.236 1.137-.239c.604-.003.78.082 1.136.239q.53.223.922.628c.27.258.477.566.629.922q.234.532.234 1.137c0 .605-.078.781-.234 1.137a2.95 2.95 0 0 1-1.55 1.562q-.534.227-1.137.227c-.603 0-.781-.074-1.137-.227a3.2 3.2 0 0 1-.938-.625 3 3 0 0 1-.613-.937 2.7 2.7 0 0 1-.238-1.137m2.391 0q-.001.227.157.379a.52.52 0 0 0 .379.156.53.53 0 0 0 .53-.535.52.52 0 0 0-.53-.531.51.51 0 0 0-.38.152.5.5 0 0 0-.156.379m-2.332 7.258q-.001-.603.239-1.137c.148-.355.355-.664.613-.922.27-.27.582-.477.937-.629q.532-.234 1.137-.234c.605 0 .781.078 1.137.234q.534.227.922.63.405.386.629.921.236.532.238 1.137c.002.605-.082.78-.238 1.137a2.9 2.9 0 0 1-.63.937 2.8 2.8 0 0 1-.921.613q-.532.239-1.137.239c-.605 0-.78-.079-1.137-.239a3 3 0 0 1-.937-.613 3 3 0 0 1-.613-.937 2.7 2.7 0 0 1-.239-1.137m2.391 0c0 .152.055.277.156.379a.52.52 0 0 0 .38.156.523.523 0 0 0 .53-.535.52.52 0 0 0-.53-.531.51.51 0 0 0-.38.152.52.52 0 0 0-.156.379m11.652-14.598c0-.773.137-1.5.414-2.192l-.012.012c.531-1.36 1.46-2.35 2.809-2.973A6 6 0 0 1 108 7.643h5.933c1.92 0 3.39.785 4.438 2.356q.903 1.364.902 3.125v.367c0 .91-.465 1.36-1.387 1.363q-1.359.001-1.363-1.363v-.367c0-.773-.125-1.29-.379-1.563q-.283-.458-.98-.828c-.457-.242-.871-.367-1.23-.367H108q-.698-.001-1.23.203a2.7 2.7 0 0 0-.915.578c-.504.516-.758 1.22-.758 2.133l-.023 20.805q0 1.442.914 2.273h-.012q.342.304.578.496.239.187.368.235.275.121 1.101.12h5.387c1.05 0 1.8-.28 2.238-.84.562-.561.84-1.29.84-2.167v-6.383q-.001-1.31 1.352-1.312 1.37 0 1.37 1.312v6.383c0 .844-.116 1.57-.355 2.168a5 5 0 0 1-.472.91 7 7 0 0 1-.676.875v-.012a5.7 5.7 0 0 1-1.75 1.328c-.703.31-1.55.461-2.547.461h-5.387c-1.55 0-2.89-.562-4.004-1.683a5.9 5.9 0 0 1-1.242-1.88q-.415-1.032-.414-2.284zM120.02 24.1c0 1.81-.648 3.39-1.945 4.762-1.28 1.34-2.83 2.01-4.664 2.011-1.78 0-3.31-.672-4.606-2.011-1.29-1.36-1.93-2.95-1.93-4.762 0-2.61 1.14-4.67 3.434-6.18l.543-.14c.887 0 1.38.449 1.469 1.347q0 .71-.66 1.137a4.46 4.46 0 0 0-1.493 1.648 4.5 4.5 0 0 0-.414 1.075 5.2 5.2 0 0 0-.168 1.09l.07.523q1.286-1.341 3.755-1.34c.844 0 1.59.113 2.25.344s1.2.55 1.632.972V24.1q0-1.197-.543-2.164a5 5 0 0 0-1.55-1.672q-.51-.305-.618-.992c-.03-.855.41-1.35 1.328-1.493l.555.153q1.693.974 2.617 2.64h-.011c.633 1.12.949 2.3.949 3.528zm-3.992 3.21-.106-.144.106-.129zm-2.617.84c1.09 0 1.93-.327 2.511-.984-.617-.812-1.45-1.22-2.511-1.219q-.78-.001-1.372.344a3.1 3.1 0 0 0-1.019.938 3.1 3.1 0 0 0 1.043.683q.604.239 1.348.239zm21.37-3.8c0 1.75-.66 3.29-1.988 4.594-1.33 1.29-2.87 1.93-4.617 1.93q-2.477-.002-4.582-1.919c-1.25-1.37-1.87-2.92-1.871-4.664 0-1.88.621-3.43 1.86-4.64 1.26-1.24 2.81-1.86 4.64-1.86q2.79-.002 4.652 1.918c1.27 1.29 1.91 2.83 1.906 4.64zm-2.722 0c0-1.01-.375-1.91-1.125-2.711-.75-.805-1.64-1.21-2.676-1.207h-.273q-.048 0-.047-.012v.012h-.024q.674.699 1.031 1.691.368.985.368 2.227c0 .96-.22 1.84-.653 2.629q-.199.38-.414.676a7 7 0 0 1-.367.496h.297q1.588 0 2.676-1.16c.805-.673 1.21-1.55 1.207-2.641m-5.457 0q.001-1.125-.356-1.68a2.4 2.4 0 0 0-.402-.465 6 6 0 0 0-.547-.426 3.4 3.4 0 0 0-.637 1.102 4.1 4.1 0 0 0-.226 1.41q-.001.744.226 1.371.224.627.637 1.125c.871-.574 1.3-1.39 1.305-2.437m6.687-13.11c0 .407-.109.73-.328.985q-.335.368-1.008.496c-.875 0-1.32-.336-1.316-1.004q0-.627-.648-1.007-.714-.392-1.27-.391c-.953 0-1.52.434-1.68 1.3q0 .68.297 1.27.293.58.875 1.113c.324.316.86.648 1.61 1.004l1.136.559q.651.34.653 1.16 0 1.184-1.422 1.445l-.567-.203-1.468-.746a8.5 8.5 0 0 1-1.848-1.3 6.8 6.8 0 0 1-1.242-1.551 5.5 5.5 0 0 1-.5-1.399 7.6 7.6 0 0 1-.176-1.691c.19-1.11.688-2 1.492-2.64q1.206-.997 2.84-.997 1.65 0 2.973.973c.887.629 1.42 1.5 1.597 2.59z"/></svg>