<?xml version="1.0" encoding="UTF-8"?>
<svg width="120px" height="18px" viewBox="0 0 120 18" version="1.1" xmlns="http://www.w3.org/2000/svg" xmlns:xlink="http://www.w3.org/1999/xlink">
    <title>ay-wordmark</title>
    <g id="Page-1" stroke="none" stroke-width="1" fill="none" fill-rule="evenodd">
        <path d="M28.7727327,5.54012177 C29.0080835,5.54012177 29.3959763,5.53369062 29.8008012,5.52533013 L30.1487777,5.51779649 C30.7827396,5.50350359 31.3628353,5.48762259 31.3628353,5.48762259 L31.3877391,5.54012177 L31.3877391,6.11761275 C31.3877391,6.19636152 31.3379305,6.24886069 31.2383113,6.24886069 L30.7153094,6.30236947 C29.9432595,6.38010864 29.6693067,6.59111496 29.6693067,7.11711636 L29.6693067,15.8582298 C29.6693067,16.4357208 29.9183547,16.7769654 30.7153094,16.8557142 L31.2383113,16.909223 C31.3130257,16.909223 31.3877391,16.9607126 31.3877391,17.0657109 L31.3877391,17.6169523 L31.3628353,17.6704611 C31.3628353,17.6704611 30.7447886,17.6529888 30.0709785,17.6380126 L29.7320296,17.6308249 C29.3372419,17.6228977 28.955368,17.6169523 28.6980183,17.6169523 C28.0006818,17.6169523 26.0581062,17.6704611 26.0581062,17.6704611 L26.0082955,17.6169523 L26.0082955,17.0657109 C26.0082955,16.9607126 26.08301,16.909223 26.1826292,16.909223 L26.6807262,16.8557142 C27.5025858,16.7769654 27.7516348,16.356972 27.7516348,15.8582298 L27.7516348,7.11711636 C27.7516348,6.54063498 27.451818,6.38111824 26.6807262,6.30438867 L26.1826292,6.24987029 C26.08301,6.24987029 26.0082955,6.2256399 26.0082955,6.14487194 L26.0082955,5.54012177 L26.0332003,5.48762259 C26.0332003,5.48762259 28.0006818,5.54012177 28.7727327,5.54012177 Z M18.3392401,0.000836009062 C18.406498,0.000928735419 18.4727969,0.00102684322 18.5379306,0.00112909058 L18.9131018,0.00178231465 C18.9727503,0.00189615282 19.0308213,0.0020116468 19.0871086,0.00212755475 L19.4017803,0.00281803495 C19.4501086,0.00293063124 19.496241,0.00304115774 19.5399714,0.00314837259 L19.8631224,0.00399036103 C19.890585,0.00406652911 19.915027,0.00413565992 19.9362424,0.0041965116 L20.0344947,0.00448710938 L20.0920418,0.0579958887 L20.0920418,0.558757295 C20.0920418,0.697072442 20.0143027,0.765725215 19.8608435,0.765725215 C19.1076822,0.801061201 18.9532135,0.875771572 18.6775928,1.27254422 C18.5271624,1.48960814 18.2303402,1.95503356 17.9224123,2.47699655 L15.2792805,7.41999624 C15.2792805,7.41999624 15.2534608,7.47393483 15.2055156,7.57389898 L18.4352889,14.1843136 L18.6311512,14.2378224 L23.7195332,2.16200148 C23.8962132,1.67537446 23.868954,1.3300914 23.6417941,1.12716188 C23.4136245,0.929280352 23.2530982,0.812166797 22.663492,0.787936406 L22.1859514,0.763706016 C22.1273946,0.763706016 22.0718667,0.742504424 22.0183579,0.703130039 C21.9658587,0.665774854 21.9385995,0.616304473 21.9385995,0.556738096 L21.9385995,0.0539574902 L22.0112907,0.00246791016 L27.7599509,0.00246791016 L27.8185076,0.0539574902 L27.8185076,0.556738096 C27.8185076,0.693034043 27.7407685,0.761686817 27.5873093,0.761686817 C26.834148,0.795003604 26.2758394,0.95855874 25.9144028,1.25033303 C25.5519565,1.54412651 25.2692686,1.94897596 25.0663391,2.47497735 C25.0663391,2.47497735 23.6220508,5.78079287 22.0636805,9.32969476 L21.7956619,9.93988772 C20.6315567,12.5894233 19.4464429,15.2765241 18.7856199,16.7456678 C18.172793,17.912765 17.570062,17.8057474 17.0400222,16.712351 C16.6058738,15.8182167 15.8660055,14.2189836 15.1227821,12.5958997 L14.7716683,11.8279683 C14.4985278,11.2297311 14.2314883,10.6430003 13.9859573,10.1024905 C13.7054415,10.6810618 13.3978511,11.3134814 13.0833718,11.9564412 L12.8372933,12.4588029 C12.7961646,12.5426352 12.7550073,12.6264577 12.7138653,12.7101764 L12.4675457,13.2104949 C11.7721423,14.620287 11.1064438,15.9459034 10.6856023,16.7264854 C9.97080574,17.9693026 9.38220917,17.806757 8.91375495,16.7587926 C7.28728998,12.9213045 3.94753447,6.18323672 2.37558788,2.40733418 C2.08482319,1.71172005 1.86574008,1.26547702 1.65877216,1.08879709 C1.45079464,0.914136358 1.01868601,0.809137998 0.36143666,0.773802012 C0.120142354,0.747552422 0,0.688995645 0,0.594093281 L0,0.0680918848 L0.0585567774,0.0166023047 C0.184459787,0.0158896461 0.367235745,0.015344672 0.591760176,0.0149377908 L1.59988279,0.0140015017 C1.67619869,0.0139745304 1.75394228,0.0139538781 1.83287723,0.0139390824 L2.56907786,0.0139515663 C2.65303409,0.0139677491 2.73747273,0.0139884014 2.82215744,0.0140130608 L4.55565261,0.0149613714 C4.63220278,0.0150194753 4.7073448,0.0150783497 4.78084233,0.0151375325 L5.73042954,0.0159905958 C5.7815743,0.0160413019 5.82989298,0.0160900043 5.87514926,0.0161362408 L6.30797836,0.0166023047 L6.36653514,0.0680918848 L6.36653514,0.568853291 C6.36653514,0.707168438 6.27869997,0.773802012 6.10605844,0.773802012 L5.45385709,0.801061201 C4.89453891,0.824281992 4.61487982,0.991875528 4.61487982,1.30182261 C4.61487982,1.44619535 4.67343659,1.68042246 4.80367494,1.99642714 C6.05557846,5.04642756 10.3796936,14.1641216 10.3796936,14.1641216 L10.5382007,14.2055152 L13.3256675,8.64631871 C12.9847843,7.89322789 12.7673967,7.41090985 12.7673967,7.41090985 L10.8511766,3.6451033 C10.8511766,3.6451033 10.4806535,2.89194199 10.3544536,2.64156129 C9.51244752,0.972693135 9.53062031,0.883848369 8.67952784,0.771782813 C8.44126234,0.740485225 8.31809118,0.710197237 8.31809118,0.592074082 L8.31809118,0.0640534863 L8.38977276,0.0125639063 L8.90227076,0.0120167033 C8.9643157,0.0119621849 9.02786439,0.0119096857 9.09272032,0.0118591309 L10.579461,0.0110576584 C10.65299,0.011030661 10.7264507,0.0110050845 10.7996466,0.0109808541 L13.348926,0.010544707 L13.480174,0.0539574902 L13.480174,0.579958887 C13.480174,0.70010124 13.394358,0.761686817 13.2196973,0.761686817 L12.8602798,0.813176397 C11.9516402,0.883848369 12.1000513,1.25538103 12.7037919,2.45781416 L14.542,6.219 L16.5756064,2.16402067 C16.8931591,1.47143534 16.8536456,1.26343987 16.7328688,1.09924218 L16.7058447,1.0645667 C16.6250768,0.967645137 16.3545041,0.813176397 15.7659075,0.788946006 L15.5347092,0.763706016 C15.4761524,0.763706016 15.421634,0.743514024 15.3681253,0.704139639 C15.3156261,0.666784453 15.2893765,0.618323672 15.2893765,0.556738096 L15.2893765,0.0559766895 L15.3610581,0.00448710938 C15.6092803,0.00274642039 15.9108337,0.00160596899 16.2399493,0.000910521313 Z M37.019106,15.8582298 C37.019106,16.4357208 37.3428695,16.7244662 38.0651087,16.8557142 L38.3390616,16.909223 C38.413777,16.934463 38.4884914,16.9607126 38.4884914,17.0657109 L38.4884914,17.6169523 L38.4635866,17.6704611 C38.4635866,17.6704611 36.894582,17.6169523 36.1474369,17.6169523 C35.4501024,17.6169523 33.4079055,17.6704611 33.4079055,17.6704611 L33.3580949,17.6169523 L33.3580949,17.0657109 C33.3580949,16.9607126 33.4328103,16.909223 33.5324295,16.909223 L34.0305256,16.8557142 C34.7776707,16.7769654 35.1014341,16.356972 35.1014341,15.8582298 L35.1014341,7.11711636 C35.1014341,6.54063498 34.8274813,6.38111824 34.0305256,6.30438867 L33.5324295,6.24987029 C33.4328103,6.24987029 33.3580949,6.2256399 33.3580949,6.14487194 L33.3580949,5.54012177 L33.3829997,5.48762259 C33.3829997,5.48762259 35.4251966,5.54012177 36.1972475,5.54012177 C36.8955401,5.54012177 38.4635866,5.48762259 38.4635866,5.48762259 L38.4884914,5.54012177 L38.4884914,6.11761275 C38.4884914,6.19636152 38.4386818,6.22261111 38.3390616,6.24886069 L38.0651087,6.30236947 C37.2930588,6.45885741 37.019106,6.59111496 37.019106,7.11711636 L37.019106,11.0808044 C37.8409655,11.0808044 38.3141578,10.635571 39.4099701,9.40083068 C40.4061633,8.24483912 41.1782142,7.2756235 41.1782142,6.77587169 C41.1782142,6.56486537 40.9540699,6.32962866 40.4559739,6.24987029 C40.3563537,6.2246303 40.3065441,6.19737111 40.3065441,6.11862235 L40.3065441,5.51387218 L40.3314499,5.48863219 C40.3314499,5.48863219 42.3487409,5.54113137 43.0709812,5.54113137 C43.7185071,5.54113137 44.8143195,5.48863219 44.8143195,5.48863219 L44.8890339,5.51387218 L44.8890339,6.11862235 C44.8890339,6.19737111 44.8143195,6.24987029 44.6897955,6.24987029 C43.7185071,6.32861906 43.0460764,6.38111824 42.1495025,7.45735143 L40.0076864,10.0550512 C39.5843048,10.5285534 39.4348749,10.8162893 39.4348749,11.0272956 C39.4348749,11.1847932 39.5344941,11.3150315 39.6590192,11.4725291 L43.4196495,16.2499544 C43.7185071,16.6164391 44.3162224,16.7749462 44.8143195,16.878935 L44.9388435,16.904175 C45.0135589,16.9304246 45.1131781,16.9829237 45.1131781,17.0616725 L45.1131781,17.6129139 L45.0384627,17.6391635 C45.0384627,17.6391635 43.7185071,17.6129139 43.0211706,17.6129139 C42.3985506,17.6129139 41.5019766,17.6391635 41.5019766,17.6391635 L41.4770718,17.6129139 L41.4770718,17.2979188 C41.4770718,16.9556646 41.452167,16.6689383 41.1034988,16.2489448 L38.3390616,12.6254918 C37.9654895,12.0994904 37.5670127,11.9702617 37.019106,11.9702617 L37.019106,15.8582298 L37.019106,15.8582298 L37.019106,15.8582298 Z M50.4456854,15.8582298 C50.4456854,16.4357208 50.6947344,16.7769654 51.4916891,16.8557142 L52.01469,16.909223 C52.0894054,16.909223 52.1641198,16.9607126 52.1641198,17.0657109 L52.1641198,17.6169523 L52.139215,17.6704611 C52.139215,17.6704611 50.246447,17.6169523 49.4743971,17.6169523 C48.7770626,17.6169523 46.8344849,17.6704611 46.8344849,17.6704611 L46.7846743,17.6169523 L46.7846743,17.0657109 C46.7846743,16.9607126 46.8593897,16.909223 46.9590089,16.909223 L47.457105,16.8557142 C48.2789645,16.7769654 48.5280135,16.356972 48.5280135,15.8582298 L48.5280135,7.11711636 C48.5280135,6.54063498 48.2291559,6.38111824 47.457105,6.30438867 L46.9590089,6.24987029 C46.8593897,6.24987029 46.7846743,6.2256399 46.7846743,6.14487194 L46.7846743,5.54012177 L46.8095801,5.48762259 C46.8095801,5.48762259 48.7770626,5.54012177 49.5491115,5.54012177 C50.2215422,5.54012177 52.139215,5.48762259 52.139215,5.48762259 L52.1641198,5.54012177 L52.1641198,6.11761275 C52.1641198,6.19636152 52.1143092,6.24886069 52.01469,6.24886069 L51.4916891,6.30236947 C50.7196382,6.38010864 50.4456854,6.59111496 50.4456854,7.11711636 L50.4456854,15.8582298 L50.4456854,15.8582298 Z M55.8270452,7.16860594 C55.8270452,6.35486865 55.5032827,6.32861906 54.3327549,6.24987029 C54.1833271,6.24987029 54.1584223,6.17213112 54.1584223,6.11862235 L54.1584223,5.51488178 L54.2082319,5.48863219 C54.581804,5.48863219 56.0511894,5.54113137 56.7734287,5.54113137 C57.4707652,5.54113137 58.4669593,5.48863219 59.3884371,5.48863219 C62.9230079,5.48863219 63.5705338,7.32509388 63.5705338,8.69209175 C63.5705338,10.2680767 62.8482935,12.7345286 59.3137237,12.7345286 C58.6911016,12.7345286 58.1930055,12.6810198 57.7437609,12.4720327 L57.7437609,15.9874585 C57.7437609,16.5649495 58.0426186,16.6972071 58.8405314,16.8274454 L59.3395856,16.9061942 C59.4392048,16.9324438 59.5139192,16.959703 59.5139192,17.0636917 L59.5139192,17.6149331 L59.4899725,17.6674323 C59.4899725,17.6674323 57.4975862,17.6149331 56.7255353,17.6149331 C56.0282008,17.6149331 54.1603375,17.6674323 54.1603375,17.6674323 L54.1354327,17.6149331 L54.1354327,17.0636917 C54.1354327,16.9586934 54.1852423,16.9324438 54.2848616,16.9061942 L54.8078634,16.8274454 C55.5799133,16.722447 55.8289614,16.4862007 55.8289614,15.9874585 L55.8270452,7.16860594 L55.8270452,7.16860594 L55.8270452,7.16860594 Z M57.744718,11.7370442 C58.2428151,11.9480505 58.8654362,11.9732905 59.3635323,11.9732905 C60.8587806,11.9732905 61.5781465,11.026286 61.5781465,9.00708683 C61.5781465,6.7496221 60.6068582,6.25087989 59.2390082,6.25087989 C58.0426186,6.25087989 57.7437609,6.4871262 57.7437609,7.16961554 L57.744718,11.7370442 L57.744718,11.7370442 L57.744718,11.7370442 Z M71.2393071,16.899127 L71.8121186,16.8456182 C72.5602208,16.7668694 72.8092698,16.5306231 72.8092698,15.7178954 L72.8092698,7.05553078 C72.8092698,6.37102225 72.63302,6.37102225 71.8121186,6.29429268 L71.2661281,6.2397743 C71.1665089,6.2397743 71.0898772,6.18727512 71.0898772,6.10852635 L71.0898772,5.53103537 L71.113825,5.47853619 C71.113825,5.47853619 73.3064088,5.53103537 73.7556533,5.53103537 C74.2269294,5.53103537 76.3955655,5.47853619 77.0430914,5.47853619 C81.2021996,5.47853619 83.2453536,8.20849354 83.2453536,11.699689 C83.2453536,16.2943768 80.1561968,17.6573363 77.3927167,17.6573363 C75.4003305,17.6573363 74.5296195,17.6048371 73.7575696,17.6048371 C73.0094653,17.6048371 71.1166983,17.6573363 71.1166983,17.6573363 L71.0917935,17.6048371 L71.0917935,17.0535957 C71.0898772,16.9778757 71.140646,16.899127 71.2393071,16.899127 L71.2393071,16.899127 Z M76.7940434,16.899127 C79.5326176,16.899127 81.0786327,15.8239034 81.0786327,12.1469416 C81.0786327,9.41799387 80.5048631,6.2397743 76.3208521,6.2397743 C75.3495628,6.2397743 74.7269427,6.39727184 74.7269427,7.05553078 L74.7269427,15.7178954 C74.7269427,16.4508648 74.9003182,16.899127 76.7940434,16.899127 Z M68.0514882,15.8461146 C68.0514882,16.4236056 68.3005373,16.7648502 69.097491,16.843599 L69.6204929,16.8971078 C69.6952083,16.8971078 69.7699217,16.9485974 69.7699217,17.0535957 L69.7699217,17.6048371 L69.7450169,17.6583459 C69.7450169,17.6583459 67.8522498,17.6048371 67.081158,17.6048371 C66.3828644,17.6048371 64.4412458,17.6583459 64.4412458,17.6583459 L64.3904781,17.6048371 L64.3904781,17.0535957 C64.3904781,16.9485974 64.4651925,16.8971078 64.5648118,16.8971078 L65.0638659,16.843599 C65.8847673,16.7648502 66.1347745,16.3448568 66.1347745,15.8461146 L66.1347745,7.10500116 C66.1347745,6.52851979 65.8349577,6.36900305 65.0638659,6.29227348 L64.5648118,6.2377551 C64.4651925,6.2377551 64.3904781,6.21352471 64.3904781,6.13275674 L64.3904781,5.52800657 L64.4153819,5.47550739 C64.4153819,5.47550739 66.3828644,5.52800657 67.1529981,5.52800657 C67.8254288,5.52800657 69.7440598,5.47550739 69.7440598,5.47550739 L69.7680065,5.52800657 L69.7680065,6.10549755 C69.7680065,6.18424632 69.7172387,6.2367455 69.6185766,6.2367455 L69.0955758,6.29025428 C68.3235248,6.36799345 68.049573,6.57899977 68.049573,7.10500116 L68.0514882,15.8461146 L68.0514882,15.8461146 L68.0514882,15.8461146 Z M89.9097882,5.65508488 C89.9789226,5.7226069 90.0135004,5.82504087 90.0135004,5.96238681 C90.0135004,6.09975293 89.9789226,6.20217681 89.9097882,6.26969883 C89.1204197,6.26814405 88.5845757,6.36436899 88.3022543,6.55837365 C88.0199228,6.7523985 87.8874027,7.22110512 87.9046921,7.96452379 L87.9046921,15.4329561 C87.8874017,16.176395 88.0199228,16.6450915 88.3022533,16.8391063 C88.5845757,17.0331109 89.1204197,17.1293359 89.9097882,17.1277811 C89.9789226,17.1953031 90.0135004,17.2977371 90.0135004,17.4350931 C90.0135004,17.5724491 89.9789226,17.6748831 89.9097882,17.7424051 C89.3537714,17.7327029 88.8582589,17.7241617 88.4232507,17.7167916 C87.9882324,17.7094114 87.492721,17.7055346 86.9367143,17.7051509 L86.6032217,17.7058004 C86.1687061,17.7072254 85.7747554,17.7108875 85.4213688,17.7167916 C84.9796307,17.7241617 84.4860394,17.7326928 83.9405931,17.7424051 C83.8714517,17.6748831 83.836881,17.5724491 83.836881,17.4350931 C83.836881,17.2977371 83.8714507,17.1953031 83.9405931,17.1277811 C84.7299536,17.1293359 85.2657976,17.0331109 85.5481271,16.8391063 C85.8304515,16.6450915 85.9629716,16.176395 85.9456903,15.4329561 L85.9456903,7.96452379 C85.9629716,7.22110512 85.8304515,6.7523985 85.5481271,6.55837365 C85.2657996,6.36436899 84.7299536,6.26814405 83.9405931,6.26969883 C83.8714517,6.20217681 83.836881,6.09975293 83.836881,5.96238681 C83.836881,5.82504087 83.8714507,5.7226069 83.9405931,5.65508488 C84.4966029,5.66478713 84.9921144,5.67332834 85.4271296,5.68068832 C85.8621409,5.68807859 86.3576534,5.69196555 86.9136661,5.69231891 C87.4821585,5.69196555 87.9872733,5.68807859 88.4290135,5.68068832 C88.8707426,5.67332834 89.3643349,5.66478713 89.9097882,5.65508488 Z M95.4382992,5.65508488 C95.5074365,5.7226069 95.5420052,5.82504087 95.5420153,5.96238681 C95.5420052,6.09975293 95.5074365,6.20217681 95.4382992,6.26969883 C94.7946087,6.27405021 94.3868718,6.29980509 94.2150683,6.34698368 C94.0432748,6.39417237 94.0976316,6.60432053 94.3781388,6.97742816 L97.2866741,11.1120616 C97.3833635,11.2637742 97.4665343,11.3468238 97.5361664,11.3611601 C97.6057783,11.3755267 97.6900798,11.3049153 97.7891014,11.1493159 L100.531699,6.97742816 C100.775224,6.60838921 100.786562,6.39942228 100.565702,6.3504668 C100.344822,6.30157189 99.9724211,6.27463577 99.4484894,6.26969883 C99.3793419,6.20297439 99.3447732,6.10362979 99.3447833,5.97168522 C99.3447732,5.83979113 99.3793419,5.74045662 99.4484894,5.67370189 C99.9060601,5.68264695 100.304579,5.68807859 100.644057,5.69000693 C100.813781,5.69098624 100.973787,5.69166772 101.124074,5.69205263 L101.824252,5.69233873 C102.01663,5.69208895 102.222459,5.69131268 102.44173,5.69000693 C102.770617,5.68807859 103.109611,5.68264695 103.45868,5.67370189 C103.527807,5.74045662 103.562396,5.83979113 103.562396,5.97168522 C103.562396,6.10362979 103.527807,6.20297439 103.45868,6.26969883 C102.964935,6.28375246 102.583407,6.32783158 102.314117,6.40192609 C102.044786,6.4760509 101.759483,6.73617423 101.458188,7.18229611 L98.5150843,11.4845635 C98.2945978,11.78709 98.1691752,11.9852139 98.1388368,12.0789148 C98.1084882,12.1726056 98.0994523,12.3861057 98.1117593,12.7193644 L98.1117593,15.4329561 C98.0896693,16.176395 98.2317906,16.6450915 98.5381334,16.8391063 C98.844456,17.0331109 99.4475202,17.1293359 100.347326,17.1277811 C100.416463,17.1953031 100.451032,17.2977371 100.451042,17.4350931 C100.451032,17.5724491 100.416463,17.6748831 100.347326,17.7424051 C99.7874625,17.7327029 99.2650653,17.7241617 98.7801344,17.7167916 C98.2951733,17.7094114 97.749727,17.7055346 97.1437754,17.7051509 L96.7803231,17.7058004 C96.305861,17.7072254 95.8719626,17.7108875 95.4786226,17.7167916 C94.9869577,17.7241617 94.4664788,17.7326928 93.9171859,17.7424051 C93.8480485,17.6748831 93.8134798,17.5724491 93.8134798,17.4350931 C93.8134798,17.2977371 93.8480485,17.1953031 93.9171859,17.1277811 C94.8169815,17.1293359 95.4200456,17.0331109 95.7263884,16.8391063 C96.032711,16.6450915 96.1748425,16.176395 96.1527625,15.4329561 L96.1523368,12.7296397 C96.1467276,12.4897256 96.1166205,12.31487 96.0620096,12.2050845 C95.9964563,12.0733721 95.86538,11.8828505 95.6687706,11.6335501 L92.6426906,7.51754376 C92.2038237,6.91170322 91.8479378,6.55147808 91.5750279,6.43684814 C91.3021119,6.3222283 90.9381603,6.26651859 90.4831732,6.26969883 C90.4130716,6.20217681 90.3746594,6.09975293 90.3679375,5.96238681 C90.3612156,5.82504087 90.3919437,5.7226069 90.460126,5.65508488 C90.8043904,5.66478713 91.1702622,5.67332834 91.5577435,5.68068832 C91.9452198,5.68807859 92.3629467,5.69196555 92.8109313,5.69231891 C93.2661052,5.69196555 93.704009,5.68807859 94.1246182,5.68068832 C94.5452174,5.67332834 94.9831111,5.66478713 95.4382992,5.65508488 Z M111.416384,0.396211758 C111.782869,0.396211758 111.915126,0.659717256 112.124113,1.18470905 L117.505279,15.4119868 C117.873783,16.4367304 118.398775,16.8294646 119.448759,16.934463 L119.737504,16.959703 C119.868752,16.959703 120,17.0384517 120,17.1707093 L120,17.6684419 L119.921251,17.7209411 C119.921251,17.7209411 119.172369,17.7014896 118.355406,17.6862667 L117.827536,17.677296 C117.536508,17.6728948 117.255404,17.6696803 117.015238,17.668731 L116.876299,17.6684419 C115.957563,17.6684419 113.384094,17.7209411 113.384094,17.7209411 L113.358854,17.6684419 L113.358854,17.1707093 C113.358854,17.0384517 113.411353,16.959703 113.54462,16.959703 L114.279609,16.9072038 C115.276083,16.8294646 115.645597,16.5124503 115.382091,15.7784714 L113.780866,11.3412811 L108.320952,11.3412811 C107.690962,11.3412811 107.533464,11.4462795 107.403226,11.7865146 L105.87974,15.5937147 C105.617244,16.2519736 105.958489,16.8304742 106.929723,16.909223 L107.690962,16.9627318 C107.79596,16.9627318 107.900958,17.0414805 107.900958,17.1717189 L107.900958,17.6704611 L107.848459,17.7239699 C107.848459,17.7239699 105.211572,17.6746562 104.443246,17.6707111 L104.357264,17.6704611 C103.673765,17.6704611 101.993791,17.7239699 101.993791,17.7239699 L101.940282,17.6704611 L101.940282,17.1717189 C101.940282,17.0414805 102.019031,16.9627318 102.151289,16.9627318 C103.30728,16.883983 103.961501,16.6729767 104.696489,14.9930029 L110.522888,1.34220659 C110.810624,0.659717256 111.021631,0.396211758 111.416384,0.396211758 Z M110.814663,3.23217706 L110.762164,3.23217706 L108.137205,9.89957288 C108.032206,10.1630784 108.214944,10.2408176 108.792435,10.2408176 L113.360873,10.2408176 L110.814663,3.23217706 Z" id="ay-wordmark" fill="#000000" fill-rule="nonzero"></path>
    </g>
</svg>