<svg xmlns="http://www.w3.org/2000/svg" xml:space="preserve" viewBox="0 0 103.3 17.6"><path d="M18.1 0h-2.8l-.1.1v.5c0 .1 0 .1.1.1s.1.1.2.1h.2c.6 0 .8.2.9.3.1.2.2.4-.1 1.1l-2 4-1.8-3.7c-.6-1.2-.7-1.6.2-1.6l.4-.1c.2 0 .3-.1.3-.2V.1H8.2v.5c0 .1.1.1.4.2.8.1.8.2 1.7 1.8l.5 1 1.9 3.7s.4.9.6 1.2L10.5 14h-.2S6 5 4.8 2c-.2-.3-.2-.6-.2-.7 0-.3.3-.5.8-.5H6c.2 0 .3-.1.3-.2V.1L6.2 0H0v.6c0 .1.1.2.4.2.7 0 1.1.1 1.3.3s.4.6.7 1.3C4 6.1 7.3 12.8 8.9 16.6c.5 1 1 1.2 1.8 0 .8-1.5 2.2-4.3 3.3-6.6 1 2.2 2.3 5.1 3 6.6.5 1.1 1.1 1.2 1.7 0 1.6-3.5 6.2-14.1 6.2-14.1.2-.5.5-.9.8-1.2.4-.3.9-.5 1.7-.5.2 0 .2-.1.2-.2V.1l-.1-.1h-5.7l-.1.1v.5c0 .1 0 .1.1.1s.1.1.2.1h.5c.6 0 .7.1 1 .3.2.2.3.5.1 1l-5 12-.3-.1-3.2-6.5.1-.2 2.6-4.9c.3-.5.6-1 .7-1.2.3-.4.4-.5 1.2-.5.2 0 .2-.1.2-.2V.1l-.1-.1zm78.1 0v.9c0 .1.1.2.2.2l.6.1c1 .1 1.4.3 1.4 1.2V15c0 .7-.3 1.3-1.4 1.4l-.6.1c-.1 0-.2.1-.2.2v.8l.1.1s2.5-.1 3.4-.1c1 0 3.4.1 3.4.1v-.9c0-.2-.1-.2-.2-.2l-.7-.1c-1-.1-1.3-.6-1.3-1.4V2.4c0-.8.4-1.1 1.3-1.2l.7-.1c.1 0 .2-.1.2-.2V0s-2.5.1-3.3.1c-1.1 0-3.6-.1-3.6-.1M74.7.2c-.1 0-.3 0-.4.1l-2.1 3.3c-.2.3-.2.4-.2.6s.2.3.4.3.4-.1.8-.5l3-2.8-.1-.3c-.1 0-.1-.1-.2-.1-.1-.3-.5-.6-1.2-.6M26 5.4v.7c0 .1.1.1.2.1l.5.1c.8.1 1.1.2 1.1.8v8.7c0 .5-.3.9-1.1 1l-.5.1c-.1 0-.2.1-.2.2v.5l.1.1s2.1-.1 2.8-.1c.8 0 2.9.1 2.9.1v-.6c0-.1-.1-.2-.2-.2l-.6-.2c-.9-.1-1.1-.4-1.1-1V7.1c0-.5.3-.7 1.1-.8l.6-.1c.1 0 .2-.1.2-.1v-.7s-2.1.1-2.8.1c-.9 0-3-.1-3-.1m7.9 0v.7c0 .1.1.1.2.1l.5.1c.9.1 1.1.2 1.1.8v8.7c0 .5-.3.9-1.1 1H34c-.1 0-.2.1-.2.2v.5l.1.1s2.2-.1 2.9-.1c.8 0 2.5.1 2.5.1V17c0-.1-.1-.1-.2-.2l-.3-.1c-.8-.1-1.1-.4-1.1-1v-3.9c.6 0 1 .1 1.4.7l3 3.6c.4.4.4.7.4 1v.3h3.9v-.5c0-.1-.1-.1-.2-.2h-.1c-.5-.1-1.2-.3-1.5-.6l-4-4.7c-.1-.2-.2-.3-.2-.4 0-.2.2-.5.6-1l2.3-2.6c1-1.1 1.7-1.1 2.7-1.2.1 0 .2-.1.2-.1v-.6h-.1s-1.2.1-1.9.1c-.8 0-2.9-.1-2.9-.1v.6c0 .1.1.1.2.1.5.1.8.3.8.5 0 .5-.8 1.5-1.9 2.6-1.2 1.2-1.7 1.7-2.6 1.7V7.1c0-.5.3-.7 1.1-.8l.3-.1c.1 0 .2-.1.2-.1v-.7s-1.7.1-2.4.1c-.9 0-3.1-.1-3.1-.1m14.4 0v.7c0 .1.1.1.2.1l.5.1c.8.1 1.1.2 1.1.8v8.7c0 .5-.3.9-1.1 1l-.5.1c-.1 0-.2.1-.2.2v.5l.1.1s2.1-.1 2.8-.1c.8 0 2.9.1 2.9.1v-.6c0-.1-.1-.2-.2-.2l-.6-.1c-.9-.1-1.1-.4-1.1-1V7.1c0-.5.3-.7 1.1-.8l.6-.1c.1 0 .2-.1.2-.1v-.7s-2.1.1-2.8.1c-.9 0-3-.1-3-.1m7.9 0-.1.6c0 .1 0 .1.2.1 1.3.1 1.6.1 1.6.9v8.7c0 .5-.3.7-1.1.8l-.6.1c-.1 0-.2.1-.2.2v.6s2-.1 2.8-.1 3 .1 3 .1v-.6c0-.1-.1-.1-.2-.2l-.5-.1c-.9-.1-1.2-.3-1.2-.8v-3.5c.5.2 1 .3 1.7.3 3.8 0 4.6-2.4 4.6-4 0-1.4-.7-3.2-4.5-3.2-1 0-2.1.1-2.8.1-.7.1-2.3 0-2.7 0m12 0v.7s0 .1.2.1l.6.1c.7 0 1 .1 1 .7v8.6c0 .5-.2 1-1.1 1.1l-.6.1c-.1 0-.2.1-.2.1v.7s1.8-.1 2.6-.1h4.7c.8 0 2.4.1 2.4.1l.1-.1.5-3-.7-.1c-.3 1.4-1.1 2.2-2.4 2.2h-2.5c-.5 0-.8-.5-.8-1v-4h2c.7 0 .9.3 1 .8l.1.6c0 .1.1.1.2.1h.5l.1-.1c-.1-.6-.2-1.1-.2-1.8 0-.6.1-1.4.2-1.9 0-.1 0-.1-.1-.1h-.5c-.1 0-.2.1-.2.1l-.2.5c-.1.5-.3.8-1 .8h-2V7c0-.4.3-.6.8-.6H75c1.7 0 2.2 1.4 2.5 2.3l.7-.1c-.2-1-.4-2-.4-3.1l-.1-.1s-1.9.1-2.7.1h-3.9c-.8 0-2.9-.1-2.9-.1m12.5 0V6c0 .1.1.1.2.1l.6.1c.9.1 1.1.1 1.1.8v8.6c0 .8-.3 1-1.1 1.1l-.6.1c-.1 0-.2.1-.2.2v.6s2-.1 2.8-.1 1.8.1 3.9.1c3 0 6.3-1.3 6.3-5.9 0-3.5-2.2-6.2-6.6-6.2-.7 0-3 .1-3.5.1-.5-.1-2.9-.2-2.9-.2m5.6.8c4.5 0 5.1 3.1 5.1 5.9 0 3.6-1.7 4.7-4.6 4.7-2 0-2.2-.4-2.2-1.2V7c0-.6.7-.8 1.7-.8m-24.7 0c1.5 0 2.5.5 2.5 2.7 0 2-.8 2.9-2.4 2.9-.5 0-1.2 0-1.7-.2V7.1c0-.7.3-.9 1.6-.9"/></svg>