<svg xmlns="http://www.w3.org/2000/svg" width="120" height="12"><path fill="#000" fill-rule="nonzero" d="M3.408 4.612c1.074 0 1.112.283 1.15.837.076.074.342.074.418 0-.013-.43-.026-.664-.026-1.083 0-.418.013-.688.026-1.057-.076-.074-.342-.074-.418 0-.038.676-.076.836-1.15.836H2.232V1.562c0-.295.151-.418.455-.418h1.328c.948 0 1.15.492 1.428 1.34l.392-.06C5.76 1.918 5.57.737 5.557.64c-.012-.025-.025-.037-.05-.037-.228.049-.291.049-.595.049H1.688S.689.64.057.627c-.076.074-.076.332 0 .406.885.037 1.1.099 1.1 1.12v4.932c0 1.02-.215 1.082-1.1 1.119-.076.074-.076.332 0 .406.62-.013.999-.025 1.644-.025.632 0 .999.012 1.63.025.077-.074.077-.332 0-.406-.884-.037-1.1-.099-1.1-1.12V4.613h1.177m3.813.074v2.399c0 1.02-.152 1.07-.936 1.119-.076.074-.076.332 0 .406.531-.012.936-.025 1.442-.025.518 0 .986.013 1.53.025.075-.074.075-.332 0-.406-.886-.061-1.037-.098-1.037-1.12V5.376c0-.32.151-.603.303-.824.14-.197.43-.603.582-.603.088 0 .19.013.265.086.127.123.253.357.519.357.303 0 .594-.307.594-.615 0-.234-.228-.59-.759-.59-.594 0-1.112.54-1.403 1.02-.076.136-.114.074-.114.013 0-.394.063-.984.063-.984 0-.05-.063-.086-.164-.086-.354.135-.86.246-1.732.356-.026.074-.026.271.025.345.683.061.822.16.822.836m4.566-3.468c0 .32.303.64.607.64.354 0 .657-.32.657-.591 0-.295-.265-.64-.607-.64-.303 0-.657.295-.657.59m1.15 5.868V4.637c0-.615.05-1.402.05-1.402 0-.05-.062-.086-.163-.086-.367.135-.86.246-1.733.356-.025.074 0 .271.026.345.682.074.821.135.821.836v2.399c0 1.02-.139 1.057-.91 1.119-.076.074-.076.332 0 .406.531-.012.86-.025 1.416-.025.544 0 .86.013 1.404.025.076-.074.076-.332 0-.406-.772-.05-.91-.098-.91-1.12m5.506-.024c0 .234-.025.332-.203.48-.467.393-.872.59-1.188.59-.683 0-1.391-.725-1.391-2.263 0-.886.177-1.378.367-1.636.392-.578.923-.615 1.176-.615.455 0 .771.16 1.024.443.177.197.215.283.215.664V7.06m-.14.91c.051-.049.152-.073.152.013 0 .295.14.725.14.725.1.037.139.025.24 0 .278-.221.758-.406 1.53-.492.076-.073.076-.258 0-.332-.81-.061-.923-.295-.923-.898V1.415c0-.8.05-1.292.05-1.292 0-.086-.05-.123-.164-.123-.316.123-1.265.295-1.77.332-.026.099 0 .295.076.37.657.036.809-.026.809 1.008v1.574c0 .086-.025.11-.114.11-.05 0-.569-.208-.986-.208-.835 0-1.391.27-1.897.738-.544.529-.872 1.254-.872 2.164 0 1.513.784 2.62 2.15 2.62.492 0 .96-.246 1.58-.738M29.188 3.15c.101 0 .164.037.164.086 0 0-.05.787-.05 1.402v2.595c0 2.325-.354 3.21-.948 3.678-.468.381-1.126.418-1.391.418-.24 0-.696-.172-.696-.529 0-.221.266-.467.405-.467.199 0 .333.1.44.202l.116.118c.089.086.253.135.392.135.632 0 .683-1.513.683-3.136V4.686c0-.7-.14-.775-.822-.836-.025-.074-.05-.27-.025-.345.872-.11 1.378-.22 1.732-.356ZM25.725 0c.114 0 .165.037.165.123 0 0-.05.492-.05 1.292v5.571c0 .603.113.837.922.898.076.074.076.259 0 .332-.771.086-1.252.27-1.53.492-.101.025-.139.037-.24 0 0 0-.14-.43-.14-.725 0-.086-.1-.062-.15-.013-.62.492-1.088.738-1.582.738-1.365 0-2.15-1.107-2.15-2.62 0-.91.33-1.635.873-2.164.506-.468 1.063-.738 1.897-.738.417 0 .936.209.986.209.089 0 .114-.025.114-.11V1.71c0-1.034-.152-.972-.81-1.009-.075-.074-.1-.27-.075-.369.506-.037 1.454-.209 1.77-.332Zm-2.124 3.616c-.253 0-.784.037-1.176.615-.19.258-.367.75-.367 1.636 0 1.538.708 2.263 1.391 2.263.316 0 .721-.197 1.189-.59.177-.148.202-.246.202-.48V4.723c0-.381-.038-.467-.215-.664-.253-.283-.569-.443-1.024-.443ZM28.783.627c.342 0 .607.345.607.64 0 .27-.303.59-.657.59-.304 0-.607-.32-.607-.64 0-.295.354-.59.657-.59Zm5.229 5.092v1.636c0 .16-.076.246-.177.32-.329.258-.759.529-1.113.529a.871.871 0 0 1-.91-.873c0-.554.265-1.107 1.2-1.353l1-.259m0 2.276c.076.258.29.713.973.713.62 0 1.075-.492 1.075-.553 0-.086-.114-.21-.164-.21-.076 0-.127.197-.392.197-.493 0-.506-.48-.506-1.045V5.264c0-1.746-.986-2.078-1.91-2.078-1.036 0-2.086.7-2.086 1.365 0 .295.152.43.443.43.367 0 .556-.246.556-.405a.54.54 0 0 0-.038-.222.828.828 0 0 1-.025-.246c0-.381.57-.516 1.05-.516.43 0 1.024.209 1.024 1.599 0 .086-.038.135-.076.147l-1.088.258c-1.213.296-2.086.948-2.086 1.784 0 .972.708 1.328 1.593 1.328.582 0 .822-.098 1.379-.516l.252-.197h.026m9.597-.935c0 .234-.025.332-.202.48-.468.393-.872.59-1.189.59-.682 0-1.39-.725-1.39-2.263 0-.886.177-1.378.366-1.636.392-.578.923-.615 1.176-.615.455 0 .772.16 1.024.443.177.197.215.283.215.664V7.06m-.139.91c.05-.049.152-.073.152.013 0 .295.14.725.14.725.1.037.138.025.24 0 .278-.221.758-.406 1.53-.492.075-.073.075-.258 0-.332-.81-.061-.924-.295-.924-.898V1.415c0-.8.05-1.292.05-1.292 0-.086-.05-.123-.164-.123-.316.123-1.264.295-1.77.332-.025.099 0 .295.076.37.658.036.81-.026.81 1.008v1.574c0 .086-.026.11-.114.11-.051 0-.57-.208-.987-.208-.834 0-1.39.27-1.896.738-.544.529-.873 1.254-.873 2.164 0 1.513.784 2.62 2.15 2.62.493 0 .96-.246 1.58-.738m3.311-6.752c0 .32.304.64.607.64.354 0 .658-.32.658-.591 0-.295-.266-.64-.607-.64-.304 0-.658.295-.658.59m1.151 5.868V4.637c0-.615.05-1.402.05-1.402 0-.05-.063-.086-.164-.086-.366.135-.86.246-1.732.356-.025.074 0 .271.025.345.683.074.822.135.822.836v2.399c0 1.02-.139 1.057-.91 1.119-.076.074-.076.332 0 .406.53-.012.86-.025 1.416-.025.544 0 .86.013 1.403.025.076-.074.076-.332 0-.406-.77-.05-.91-.098-.91-1.12m2.712-1.967c.24-1.39 1.125-1.5 1.429-1.5.48 0 1.05.257 1.05 1.29 0 .111-.051.173-.19.173l-2.289.037m3.313 2.324c-.468.468-.835.665-1.568.665-.455 0-.986-.259-1.378-.886-.253-.406-.405-.972-.405-1.685l3.364.025c.151 0 .24-.074.24-.21 0-1.033-.38-2.14-2.137-2.14-1.1 0-2.529 1.021-2.529 2.89 0 .69.177 1.354.594 1.821.43.492 1.024.787 1.935.787.96 0 1.644-.43 2.15-1.07-.038-.123-.114-.184-.266-.197m2.886-2.361c0-.27.114-.418.215-.53.48-.454 1.037-.725 1.543-.725.253 0 .518.172.67.443.126.246.152.578.152.947v1.87c0 1.008-.127 1.057-.784 1.119-.063.074-.063.332 0 .406.53-.012.784-.025 1.29-.025.518 0 .796.013 1.34.025.063-.074.063-.332 0-.406-.708-.061-.847-.11-.847-1.12V5.253c0-.676-.051-1.267-.342-1.648-.215-.27-.607-.418-1.05-.418-.631 0-1.302.16-2.073.996-.05.05-.126.172-.126 0l.012-2.768c0-.799.05-1.291.05-1.291 0-.086-.05-.123-.164-.123-.316.123-1.264.295-1.77.332-.025.099 0 .295.076.37.658.036.81-.026.81 1.008v5.375c0 1.02-.152 1.07-.886 1.119-.076.074-.076.332 0 .406.519-.012.847-.025 1.391-.025.493 0 .708.013 1.24.025.075-.074.075-.332 0-.406-.633-.05-.747-.098-.747-1.12V5.08m5.15-1.771c-.177 0-.228.147-.228.246v.16c0 .061.013.073.063.073h.746v3.703c0 .873.392 1.217.974 1.217s1.214-.27 1.707-.812c-.025-.123-.101-.196-.228-.209a1.744 1.744 0 0 1-1.036.345c-.342 0-.418-.37-.418-1.132V3.788h1.315c.127 0 .304-.049.304-.16v-.246c0-.049-.038-.073-.101-.073h-1.518v-.48c0-.8.05-1.292.05-1.292 0-.086-.05-.123-.164-.123l-.733.333c-.076.036-.19.061-.177.147.025.283.025.394.025 1.415h-.581m3.975 2.755c0 1.254.873 2.644 2.656 2.644 1.884 0 2.68-1.525 2.68-2.755 0-1.28-.695-2.767-2.655-2.767-1.707 0-2.68 1.316-2.68 2.878m2.54-2.472c1.088 0 1.708.947 1.708 2.755 0 1.623-.772 1.955-1.366 1.955-1.315 0-1.795-1.574-1.795-2.521 0-1.07.392-2.19 1.454-2.19m3.918 3.297c.051.603.089 1.18.089 1.697.126-.024.253-.037.316-.037.089 0 .164 0 .253.025.341.086.683.135 1.15.135.709 0 2.011-.332 2.011-1.55 0-.836-.632-1.316-1.48-1.635-.758-.283-1.264-.468-1.264-1.144 0-.505.455-.787.885-.787.278 0 1.012.098 1.176 1.143.076.074.329.062.405-.012 0-.443.063-.898.076-1.304-.392-.061-1-.233-1.657-.233-.935 0-1.783.59-1.783 1.377 0 .898.418 1.28 1.391 1.673 1.037.43 1.29.676 1.29 1.205 0 .603-.607.861-1.075.861-.493 0-.771-.16-.897-.295-.304-.283-.418-.824-.494-1.131-.076-.074-.316-.062-.392.012m7.32-6.556-.962 1.464c-.1.16-.139.209-.139.344 0 .086.089.16.177.16.089 0 .19-.05.38-.234l1.454-1.34L80.62.59c-.291-.27-.62-.282-.696-.282a.675.675 0 0 0-.177.024m.62 5.387v1.636c0 .16-.076.246-.177.32-.329.258-.759.529-1.113.529a.871.871 0 0 1-.91-.873c0-.554.265-1.107 1.2-1.353l1-.259m0 2.276c.076.258.29.713.973.713.62 0 1.075-.492 1.075-.553 0-.086-.114-.21-.164-.21-.076 0-.127.198-.392.198-.493 0-.506-.48-.506-1.046V5.264c0-1.746-.986-2.078-1.91-2.078-1.036 0-2.086.7-2.086 1.365 0 .295.152.43.443.43.367 0 .556-.246.556-.405a.54.54 0 0 0-.038-.222.828.828 0 0 1-.025-.246c0-.381.57-.516 1.05-.516.43 0 1.024.209 1.024 1.599 0 .086-.038.135-.076.147l-1.088.258c-1.213.296-2.086.948-2.086 1.784 0 .972.708 1.328 1.593 1.328.582 0 .822-.098 1.379-.516l.252-.197h.026m2.618-4.686c-.177 0-.228.147-.228.246v.16c0 .061.013.073.063.073h.746v3.703c0 .873.392 1.217.974 1.217s1.214-.27 1.707-.812c-.025-.123-.101-.196-.228-.209a1.744 1.744 0 0 1-1.037.345c-.341 0-.417-.37-.417-1.132V3.788h1.315c.127 0 .304-.049.304-.16v-.246c0-.049-.038-.073-.102-.073h-1.517v-.48c0-.8.05-1.292.05-1.292 0-.086-.05-.123-.164-.123l-.733.333c-.076.036-.19.061-.177.147.025.283.025.394.025 1.415h-.581m5.783.873c-.038.05-.126.172-.126 0 0-.369.063-.935.063-.935 0-.061-.05-.098-.152-.098-.354.135-.872.246-1.745.356-.025.074 0 .271.026.345.682.061.822.123.822.836v2.399c0 1.008-.127 1.057-.886 1.119-.075.074-.075.332 0 .406.519-.012.848-.025 1.391-.025.493 0 .721.013 1.252.025.076-.074.076-.332 0-.406-.645-.061-.759-.11-.759-1.12V5.069c0-.259.114-.406.215-.517.48-.455.974-.726 1.467-.726.253 0 .519.16.67.443.127.246.152.578.152.947v1.87c0 1.008-.126 1.057-.784 1.119-.063.074-.063.332 0 .406.531-.012.784-.025 1.29-.025.518 0 .796.013 1.34.025.063-.074.063-.332 0-.406-.708-.061-.847-.11-.847-1.12V5.253c0-.676-.05-1.267-.341-1.648-.215-.27-.607-.418-1.05-.418-.62 0-1.226.16-1.998.996m6.008.935c.24-1.39 1.126-1.5 1.43-1.5.48 0 1.049.257 1.049 1.29 0 .111-.05.173-.19.173l-2.289.037M98.09 7.44c-.468.468-.834.665-1.568.665-.455 0-.986-.259-1.378-.886-.253-.406-.405-.972-.405-1.685l3.364.025c.152 0 .24-.074.24-.21 0-1.033-.38-2.14-2.137-2.14-1.1 0-2.529 1.021-2.529 2.89 0 .69.177 1.354.595 1.821.43.492 1.024.787 1.934.787.961 0 1.644-.43 2.15-1.07-.038-.123-.114-.184-.266-.197m4.809-2.287c0 1.144-.595 1.377-1.063 1.377-1.062 0-1.176-.873-1.176-1.66 0-.861.317-1.304 1.012-1.304.797 0 1.227.566 1.227 1.587m-2.365 3.554c.14.037.341.062.506.062.392 0 .746-.037.923-.037.632 0 1.163.012 1.53.209.493.27.645.443.645.762 0 .886-1.34 1.353-2.479 1.353-.455 0-1.517-.356-1.517-1.193 0-.418.025-.725.392-1.156m3.945-4.883c.24 0 .468-.221.468-.467 0-.259-.24-.455-.582-.455-.328 0-.935.209-1.264.627-.152-.098-.57-.344-1.315-.344-1.126 0-2.162.738-2.162 1.87 0 .663.303 1.045.657 1.377-.354.295-.556.824-.556 1.242 0 .443.253.787.581.947-.682.394-1.036.96-1.036 1.488 0 1.07 1.036 1.403 2.01 1.403 1.707 0 3.553-.8 3.553-2.128 0-.394-.19-.701-.556-.997-.493-.393-1.378-.405-1.846-.405-.228 0-.544.024-.848.061-.19.012-.316.025-.379.025-.367 0-.81-.173-.81-.701 0-.246.077-.505.229-.714.303.172.657.258 1.15.258 1.113 0 2.137-.676 2.137-1.881 0-.579-.177-.91-.544-1.28.089-.123.342-.295.506-.295.089 0 .177.037.253.148.05.098.215.221.354.221m1.846-2.607c0 .32.304.64.607.64.354 0 .658-.32.658-.591 0-.295-.266-.64-.607-.64-.304 0-.658.295-.658.59m1.15 5.868V4.637c0-.615.051-1.402.051-1.402 0-.05-.063-.086-.164-.086-.367.135-.86.246-1.732.356-.026.074 0 .271.025.345.683.074.822.135.822.836v2.399c0 1.02-.14 1.057-.91 1.119-.076.074-.076.332 0 .406.53-.012.86-.025 1.416-.025.543 0 .86.013 1.403.025.076-.074.076-.332 0-.406-.771-.05-.91-.098-.91-1.12m8.15-3.935c.101 0 .165.037.165.086 0 0-.051.787-.051 1.402v2.595c0 2.325-.354 3.21-.948 3.678-.468.381-1.126.418-1.391.418-.24 0-.696-.172-.696-.529 0-.221.266-.467.405-.467.199 0 .333.1.44.202l.116.118c.089.086.253.135.392.135.633 0 .683-1.513.683-3.136V4.686c0-.7-.139-.775-.822-.836-.025-.074-.05-.27-.025-.345.872-.11 1.378-.22 1.732-.356Zm-4.856 0c.1 0 .164.037.164.086 0 0-.063.59-.063.984 0 .061.038.123.113-.012.291-.48.81-1.021 1.404-1.021.531 0 .759.356.759.59 0 .308-.291.615-.595.615-.265 0-.392-.234-.518-.357-.076-.073-.177-.086-.266-.086-.151 0-.442.406-.581.603-.152.221-.304.504-.304.824v1.71c0 1.02.152 1.058 1.037 1.119.076.074.076.332 0 .406-.544-.012-1.011-.025-1.53-.025-.506 0-.91.013-1.441.025-.076-.074-.076-.332 0-.406.784-.05.935-.098.935-1.12V4.687c0-.676-.139-.775-.821-.836-.051-.074-.051-.27-.026-.345.873-.11 1.378-.22 1.733-.356ZM115.22.627c.341 0 .607.345.607.64 0 .27-.304.59-.658.59-.303 0-.607-.32-.607-.64 0-.295.354-.59.658-.59Zm2.661.59c0 .32.304.64.607.64.354 0 .658-.32.658-.59 0-.295-.266-.64-.607-.64-.304 0-.658.295-.658.59m1.15 5.868V4.637c0-.615.051-1.402.051-1.402 0-.05-.063-.086-.164-.086-.367.135-.86.246-1.732.356-.026.074 0 .271.025.345.683.074.822.135.822.836v2.399c0 1.02-.14 1.057-.91 1.119-.076.074-.076.332 0 .406.53-.012.86-.025 1.416-.025.543 0 .86.013 1.403.025.076-.074.076-.332 0-.406-.771-.05-.91-.098-.91-1.12"/></svg>