<?xml version="1.0" encoding="UTF-8"?>
<svg width="120px" height="28px" viewBox="0 0 120 28" version="1.1" xmlns="http://www.w3.org/2000/svg" xmlns:xlink="http://www.w3.org/1999/xlink">
    <title>wikipedia-wordmark-zh-classical</title>
    <g id="Page-1" stroke="none" stroke-width="1" fill="none" fill-rule="evenodd">
        <path d="M6.38568588,18.2157235 C4.44450978,18.4183829 2.46290215,18.6615777 0.440856087,18.9452732 C-0.0646588804,19.0061453 -0.135431321,19.2391371 0.228540491,19.6444386 C0.552065239,19.9686867 0.936254544,20.1916138 1.38111013,20.3132025 C1.8866182,20.4550071 2.33146861,20.4652101 2.71566309,20.3436386 C8.53916032,18.6413446 16.1521757,17.8003227 25.5547317,17.8205731 L25.6760504,17.8205731 C26.1613134,17.8205904 26.454511,17.7192348 26.5556434,17.5165927 C26.6971503,17.2531475 26.5656512,16.9491671 26.1613427,16.6046513 C24.8065412,15.6116565 23.4214368,15.3177926 22.0060276,15.7230941 C21.3387261,15.8446655 20.64112,15.9865565 19.9132039,16.1486806 C20.519796,12.1969173 21.4297195,9.62319986 22.6429727,8.4275111 C23.0271378,7.94115619 23.0372475,7.4851855 22.6733067,7.05959901 C22.2284304,6.73536817 21.3589488,6.29966515 20.0648602,5.75247265 C19.6199856,5.5700982 19.1245837,5.60046512 18.5786527,5.84360799 C17.6080474,6.22867642 16.6576838,6.58332606 15.72756,6.9075569 C15.7882108,5.9348298 16.0712902,4.48584703 16.5768207,2.56059132 C16.6576769,2.31743116 16.4959128,2.02358453 16.0915284,1.67905143 C15.3433517,1.25349954 14.7064067,0.97992058 14.1806915,0.858297267 C13.8167059,0.777192001 13.5538388,0.827861176 13.3920902,1.01030479 C13.2100896,1.15210931 13.2100896,1.39537323 13.3920902,1.73985444 C13.958249,2.67209809 14.2312257,3.44218308 14.211022,4.05012671 C14.2110048,5.10395909 14.1907821,6.20842605 14.150354,7.36354489 C13.2808569,7.50534941 12.2698321,7.72834566 11.117278,8.03230882 C11.1374834,6.43135312 11.1981514,5.39780571 11.2992631,4.93168389 C11.3801365,4.42506132 11.2588005,4.0197598 10.935293,3.71574475 C10.4297677,3.33072819 9.86359331,3.01661389 9.23676994,2.77340185 C8.91323138,2.65183042 8.6604739,2.66203343 8.47850093,2.80383794 C8.27628459,2.94564246 8.25606538,3.18890638 8.41783293,3.5333876 C9.08509819,5.01280645 9.50972766,6.60364561 9.69172478,8.30592237 C8.41782085,8.50859907 7.14393072,8.69099081 5.8700475,8.85309758 C5.36452735,8.52886674 4.82868356,8.32620733 4.26251784,8.24511936 C3.93898274,8.16401409 3.69633659,8.20465319 3.53457939,8.36669079 C3.39303796,8.50849531 3.41324338,8.73147427 3.5952474,9.03543744 C4.16141484,9.84607506 4.60626526,10.7073646 4.92980036,11.619306 C5.19266055,12.4907293 5.67795112,14.6895294 6.38567725,18.2157235 M14.9086213,16.9997844 C15.0299263,15.5204174 15.1613633,14.0815685 15.3029237,12.6832376 C15.6062137,12.6021323 15.9297419,12.5312301 16.2735083,12.4704443 C17.0823098,12.2678022 17.5473811,12.115812 17.668724,12.0144736 C17.8102482,11.8726691 17.8506884,11.7206443 17.7900428,11.5585029 C17.6484841,11.3558608 17.3148411,11.1734691 16.7891277,11.0113277 C16.3038164,10.9302225 15.8488564,10.9606586 15.4242442,11.1024631 C15.4848776,10.068933 15.5657683,9.05565323 15.6668903,8.06262386 C16.1521636,7.92081935 16.6880057,7.79919603 17.27442,7.69785768 C18.0832198,7.45468023 18.669615,7.50534941 19.0336058,7.84986521 C19.4177727,8.23491635 19.5795368,8.8226269 19.5188981,9.61296227 C19.1549056,12.186697 18.7100552,14.4665677 18.1843434,16.4525746 C17.1328578,16.5943791 16.040951,16.7768227 14.9086213,16.9997844 M12.8157976,17.3037129 C12.3102706,17.3645851 11.8249783,17.4354874 11.3599207,17.5165062 C11.2992527,16.0574069 11.248696,14.7300128 11.208268,13.5343414 C12.0777358,13.3316993 12.9775479,13.1391737 13.9077061,12.9567647 L13.5437378,17.2125257 C13.3010761,17.212543 13.05843,17.2429618 12.8157993,17.3036611 M7.68989966,18.033228 C6.96195086,14.3246594 6.53732139,11.6698714 6.4160078,10.0688811 C6.73952565,10.048648 7.0933844,9.97774574 7.47758406,9.85608784 C8.22573137,9.67373069 8.98400037,9.51160663 9.75239106,9.36971564 C9.77259648,10.1803533 9.81304181,11.2240345 9.87370982,12.5007421 C9.44906655,12.5209752 9.02443708,12.5616143 8.59981797,12.6223135 C7.93253028,12.7438849 7.84153689,12.9567128 8.32683954,13.2606759 C8.81212149,13.503888 9.33785395,13.6457444 9.90404037,13.6862624 C9.92424579,14.8413986 9.96469113,16.1789264 10.0253591,17.6988288 C9.2367475,17.779934 8.45825929,17.8913543 7.68989103,18.033228 M13.9986909,11.5583819 C13.432501,11.7001864 12.8461057,11.8623797 12.2395068,12.0447541 C11.8755229,12.1056263 11.5216641,12.1865586 11.1779288,12.2879315 C11.1576889,10.7680465 11.1374662,9.69396378 11.1172608,9.06571789 C12.1080508,8.82255773 13.1089659,8.59963065 14.1200062,8.39695395 C14.0997663,9.43051865 14.059321,10.4843164 13.9986875,11.5583819 M7.84154034,21.0426311 C7.63932573,22.4004267 6.01157685,24.4067185 2.95828681,27.0614893 C2.45277011,27.4465404 2.52354083,27.5883968 3.1706024,27.4870757 C4.74779461,27.3452712 7.18436398,25.6226403 10.4803174,22.3193733 C10.7431707,22.0153928 10.8442737,21.7519304 10.7836264,21.5290033 C10.7027357,21.2047725 10.3488718,20.9413101 9.72204843,20.7386507 C9.03453979,20.4954732 8.53913788,20.4144198 8.23584098,20.4954732 C8.03362464,20.5157063 7.90219282,20.6981326 7.84154034,21.0426311 M15.1209248,21.4986191 C16.7183276,22.836147 18.5078406,24.4675042 20.4894724,26.3927253 C20.9140794,26.8993652 21.3285993,27.2033457 21.7330337,27.304684 C21.9352138,27.3249171 22.137418,27.2033457 22.3396482,26.9399005 C22.6631522,26.5751171 22.6328199,25.8354336 22.2486634,24.7208328 C21.9251111,23.6872854 20.7624318,22.714541 18.760624,21.8025996 C18.1944289,21.4175484 16.9710903,20.9109259 15.0906012,20.28268 C14.8479378,20.1408755 14.7063946,20.2422138 14.6659717,20.5866604 C14.6659717,20.9109259 14.8176072,21.2149063 15.1209317,21.4986191 M43.1769089,14.7503151 C43.6015246,15.5406851 44.5619978,17.0707212 46.0583321,19.3404581 C47.7163943,21.7925868 49.1621599,23.7076741 50.3956323,25.08572 C50.9617842,25.7747516 51.5279568,26.1192674 52.0941553,26.1192674 C53.7522123,25.997696 55.3091905,25.8963576 56.7650932,25.815287 C57.3919011,25.7950539 57.705318,25.7037456 57.7053473,25.541708 C57.7255354,25.3593163 57.4020107,25.1059877 56.7347627,24.7817396 C53.2163685,23.2010342 51.1134369,22.1067011 50.4259628,21.4987402 C48.3027896,19.6140544 46.0886454,17.1315242 43.7835251,14.051167 L43.3892245,13.5039917 C43.4700979,13.1189579 43.54086,12.7237902 43.6015401,12.3184541 C44.5721091,12.1360797 47.615293,11.8827684 52.7311004,11.5585029 C53.1759283,11.5382699 53.448905,11.4267285 53.5500322,11.224121 C53.6308884,10.9606931 53.4893469,10.6769631 53.125401,10.3729653 C51.952588,9.56236227 50.9314536,9.26851564 50.0619927,9.49142542 C48.5252148,9.87647657 46.4323928,10.3527149 43.7835251,10.9201405 C43.9857139,7.08998322 44.2688002,4.64798839 44.6327858,3.59415602 C44.7540873,3.33072819 44.7035479,3.09766728 44.481133,2.89499058 C44.0362671,2.50997402 43.3892107,2.14519055 42.5399638,1.80065745 C42.0344385,1.59803263 41.5794768,1.56763113 41.1750803,1.70952211 C40.6897759,1.89193114 40.6493341,2.18577777 41.0537616,2.591062 C41.741246,3.2801109 42.0849952,3.98941017 42.085009,4.71894253 C42.1052144,7.2318915 42.024341,9.43069159 41.8423628,11.3153601 L35.0786012,12.5312992 C34.593302,12.6124045 34.5427505,12.835297 34.9269484,13.2000632 C35.5942189,13.7472384 36.4636988,13.8992286 37.535395,13.6560339 C38.8092765,13.2304647 40.1943809,12.8960827 41.6907101,12.652888 C41.0234206,16.5033475 39.8000803,19.401313 38.0206873,21.3468018 C37.8791286,21.4683733 37.7477002,21.6001131 37.6263866,21.7419695 C36.6962353,22.7147139 35.1898086,23.8394485 33.1071032,25.1161734 C32.8037908,25.2579779 32.6218057,25.3796358 32.5611481,25.4809569 C32.4398293,25.6227614 32.5813707,25.7140178 32.9857793,25.7545358 C34.0170198,25.7545358 35.5942189,25.0452538 37.71738,23.6266553 C39.4361119,22.2283417 40.5886798,21.0732229 41.1750872,20.1612642 C41.7816897,19.1885198 42.4489653,17.3849047 43.1769175,14.750367 M76.510423,15.5102836 C76.5710737,15.5913888 76.6620585,15.6926753 76.7834014,15.814264 C78.6841097,18.0637333 80.6859383,20.2017476 82.7888923,22.2282898 C83.2943814,22.7349297 83.9616587,22.9882583 84.7907243,22.988241 C86.3072347,23.0693463 87.8541033,22.9477748 89.4313317,22.6234748 C89.81549,22.6032417 90.0278056,22.5221365 90.0682768,22.3802801 C90.1289103,22.2384755 89.9873688,22.1067011 89.6436473,21.9851124 C88.6123706,21.6000612 87.4901349,21.2251612 86.2769318,20.8603777 C83.8908863,20.0700251 81.0094665,18.2967942 77.6326621,15.5406678 L77.5719941,15.4797956 C78.9874101,15.3986903 80.5949397,15.3886602 82.3945865,15.4493595 C83.7291153,15.5102317 84.4671633,15.4389835 84.6087324,15.2365662 C84.7300339,14.9933888 84.6289205,14.7299437 84.3054251,14.4462136 C83.2134924,13.5748075 81.9497119,13.3113624 80.5140784,13.6558609 L78.0876169,14.0814301 C78.2898039,11.2037496 78.4616776,8.45777426 78.6032398,5.84350423 C81.1712237,5.2355606 82.4754444,4.93158013 82.5159087,4.93156284 C82.7180905,4.78975832 82.768642,4.61746583 82.6675615,4.41478914 C82.5259855,4.15136131 82.1721354,3.93856806 81.6059835,3.7764267 C80.9993483,3.63462219 80.0489846,3.75619362 78.7548925,4.14121018 C78.8357487,3.45219586 79.0278503,2.61117403 79.3311765,1.61814467 C79.39181,1.37498451 79.2199518,1.10140555 78.8155536,0.797390498 C78.0673753,0.412373942 77.4405415,0.159062653 76.9350455,0.0374393405 C76.6115001,-0.0436659259 76.3587443,0.00700324904 76.1767765,0.189446865 C76.0352179,0.371855895 76.0352179,0.615050641 76.1767765,0.919013811 C76.6822725,1.70938377 76.9451396,2.3781477 76.9653761,2.92528833 C76.9855815,3.47248083 76.9956928,4.02978987 76.9957101,4.59719816 C74.9736451,5.02278465 73.2549028,5.35716662 71.8394799,5.60034407 C71.8596853,4.97213277 71.910242,4.52629591 71.9911326,4.2628162 C72.0720061,3.75619362 71.9607814,3.36102594 71.6574931,3.07727856 C71.1721904,2.692262 70.6363467,2.3781477 70.0499634,2.13493566 C69.7466458,2.01336423 69.4938883,2.01336423 69.2916944,2.13493566 C69.1501358,2.27674018 69.1299131,2.50987026 69.2310264,2.8341011 C69.6556473,3.8068628 69.9690659,4.79987486 70.1712805,5.81312002 C69.3017885,5.8333531 68.4323086,5.88402228 67.5628357,5.96512754 C66.8146694,6.04623281 66.6933454,6.27927643 67.1988656,6.66429298 C68.1087804,7.21148548 69.1096939,7.37360955 70.201611,7.15066518 C70.2218164,7.1304321 70.2622618,7.1304321 70.3229298,7.15066518 C70.3835805,8.63006674 70.4341372,11.2544533 70.4745826,15.0238249 C68.816491,15.1656294 67.0876392,15.3379392 65.28802,15.5405813 C64.8633837,15.5608144 64.8027226,15.7533918 65.106035,16.118158 C65.3688969,16.4221558 65.6924251,16.6247979 66.0766196,16.7261189 C66.5012439,16.8476904 66.8753236,16.8679235 67.1988587,16.7869911 C67.8863483,16.6045994 68.6041754,16.4526092 69.3523435,16.3310031 C69.3523331,17.729334 68.1188831,19.6140371 65.6519901,21.9850951 C65.5913221,22.0053282 65.5407654,22.0457943 65.5003374,22.1066665 C64.7521728,22.7754305 63.4782827,23.738041 61.6786601,24.9944982 C61.5371186,25.0756035 61.5573413,25.1565358 61.7393281,25.237693 C62.9121135,25.237693 64.6510767,24.3156004 66.9562194,22.47145 C68.7760561,20.6272822 70.1207186,19.208701 70.9902123,18.2156889 C71.1721853,18.0130468 71.323838,17.8610566 71.4451741,17.7597182 C71.5866982,17.678613 71.6574758,17.5368084 71.6574879,17.3341317 C71.6574758,17.1517573 71.5563746,16.9389641 71.3541807,16.6957693 C71.1519643,16.4525919 70.9093182,16.2600836 70.6262422,16.1182099 C72.5067365,15.7534437 74.4681249,15.5507843 76.5104109,15.510249 M74.2659345,14.5678888 C73.4571002,14.648994 72.6280604,14.7502978 71.7788119,14.8718692 C71.7585719,14.1423369 71.7383493,13.4634391 71.7181404,12.8351932 C73.1740069,12.6528188 74.4478971,12.4805609 75.5398194,12.3184195 C75.9846543,12.2373143 76.1261992,12.0752594 75.9644506,11.8320473 C75.7622291,11.5280841 75.3982607,11.3355586 74.8725438,11.2544879 C74.0839287,11.1733826 73.0324638,11.3962924 71.7181404,11.9232518 L71.7181404,10.0385488 L71.8394626,10.0385488 C73.3155466,9.79538859 74.5894368,9.61299686 75.6611399,9.49139084 C76.1059748,9.41028557 76.2475179,9.24821338 76.0857711,9.00501864 C75.8835496,8.74157351 75.5398004,8.55918178 75.0545237,8.45784343 C74.4478936,8.39697125 73.3357676,8.65038629 71.7181404,9.21779459 C71.7181404,8.06269304 71.7383458,7.30272459 71.7788084,6.93792382 C73.4975386,6.63396065 75.2466097,6.36038169 77.026032,6.11716965 C77.026032,8.67065396 76.9350128,11.3862278 76.7530536,14.2639083 C75.9644385,14.3450136 75.1353971,14.4463173 74.265931,14.5678888 M73.3863398,25.7240652 C71.2429525,25.8658697 68.947928,26.0483133 66.5012542,26.2712231 C66.0766179,26.2914562 66.015955,26.4840163 66.3192692,26.8487998 C66.5821294,27.1122449 66.8854366,27.3047705 67.2291927,27.4263592 C67.6133751,27.5681637 67.9773434,27.5985998 68.3211012,27.5174945 C72.2236467,26.6663562 76.7934782,26.4434291 82.0306078,26.8487479 C82.4147747,26.8487479 82.6574208,26.7676426 82.7585462,26.6055532 C82.8798477,26.4028938 82.7888457,26.1495825 82.4855695,25.845602 C81.3936403,24.9944463 80.251182,24.7005997 79.0581929,24.9640448 C77.885385,25.1058493 76.4295099,25.3085606 74.6905622,25.5720057 C74.751213,24.4776726 74.821975,23.4441425 74.9028778,22.4713981 C77.147337,22.0458116 78.3201258,21.7925003 78.4212461,21.7114297 C78.6234331,21.5696251 78.6739846,21.3973327 78.5728989,21.194656 C78.4313402,20.9514785 78.057257,20.7488364 77.4506598,20.586695 C76.7833669,20.4651236 75.9745464,20.5867123 75.0241983,20.9514785 C75.0444037,20.2219288 75.1252944,19.715289 75.2668444,19.4315589 C75.4690349,19.1073281 75.4488139,18.8134814 75.2061764,18.550019 C74.5793254,18.0636468 74.0131511,17.7596663 73.5076534,17.6380603 C73.2447725,17.5771881 72.9920167,17.6484363 72.7493844,17.8508536 C72.6887164,17.9319588 72.7999238,18.2865739 73.0830222,18.9148025 C73.0830084,19.0363739 73.1335616,19.8571454 73.2346749,21.3770477 L70.8992051,21.6202424 C70.1510354,21.7418139 70.0398228,21.9850259 70.5655673,22.3497921 C71.4148176,22.7753786 72.3247394,22.9273688 73.2953361,22.8057801 C73.3155415,23.7379891 73.3458755,24.7107335 73.3863208,25.7240133 M102.079262,15.479882 C102.321896,15.9662542 102.615094,16.2702347 102.958853,16.3918234 C103.161047,16.4729287 103.373361,16.3715904 103.5958,16.087843 C103.676673,15.8852009 103.676673,15.5812204 103.5958,15.1759016 C103.514909,14.8719211 103.292479,14.5983422 102.928523,14.3551474 C102.382557,13.9093106 101.988258,13.6357316 101.745622,13.5343932 C101.604064,13.453288 101.492856,13.5141602 101.411985,13.716785 C101.351317,13.7978903 101.482747,14.213291 101.806285,14.9631083 C100.694147,15.2265708 99.5415793,15.6014881 98.3485764,16.087843 C97.9037191,16.2905024 97.8127257,16.1891813 98.0755997,15.7838625 C98.8844133,14.5679407 100.239185,12.7440406 102.139923,10.3121796 C102.685864,9.56236227 103.201487,8.95440134 103.686792,8.48827952 C103.929426,8.28563741 103.979977,8.082978 103.838444,7.88031859 C103.636226,7.51555241 103.191376,7.15076894 102.503891,6.78596817 C102.180351,6.60361102 101.927595,6.55294185 101.745621,6.63396065 C101.543406,6.69483283 101.472634,6.87717269 101.533307,7.18113586 C101.593958,7.91070281 101.149106,9.13677579 100.198752,10.8593202 C99.228159,10.8795533 98.3586774,10.8997864 97.5903057,10.9201924 C96.9028022,10.9404255 96.7309285,10.7276841 97.0746828,10.28183 C98.4092289,7.8905216 99.7235609,5.78290874 101.017682,3.95899137 C101.280539,3.57395752 101.391752,3.3105124 101.351322,3.16863871 C101.290654,2.86467554 100.835689,2.39857101 99.9864366,1.77030783 C99.6628998,1.50688 99.2989314,1.41569278 98.8945298,1.49672887 C98.6923169,1.57783414 98.651875,1.77034242 98.773211,2.07428829 C99.1978336,3.10785299 98.3890131,5.48906211 96.3467496,9.21788105 C95.982776,9.70427054 95.5480352,10.2109104 95.0425272,10.7378007 C94.6583327,11.0620661 94.486459,11.3457789 94.5269043,11.5889563 C94.6482231,11.9740075 94.8605387,12.3590586 95.1638494,12.7440925 C95.3660502,12.9467519 95.6086963,12.9771534 95.8917878,12.8352278 C96.639942,12.3286052 97.9037225,11.9435541 99.6831345,11.6800917 C97.6610764,14.6793956 96.3770749,16.3513054 95.8311267,16.6958039 C95.5682544,16.8984806 95.4671532,17.1315242 95.5278195,17.3949693 C95.5884702,17.6584318 95.881673,17.9624122 96.4074107,18.3069107 C96.6096097,18.5501055 96.8623672,18.5399716 97.1656814,18.2764746 C98.4395646,17.2226941 100.077425,16.2904678 102.079265,15.4798475 M94.3752498,22.3802455 L95.376165,24.7513208 C95.5177064,25.0755689 95.7300185,25.3086125 96.0131117,25.4504689 C96.2153108,25.5315742 96.4074055,25.470702 96.5893957,25.2680772 C96.7915948,25.0654351 96.9432493,24.6601162 97.0443575,24.0521553 C97.1050082,23.6063185 96.9129101,23.0996786 96.4680735,22.5322357 C95.9625551,22.0256131 95.4166017,21.5291071 94.8302116,21.0427176 C94.587562,20.8400755 94.4055769,20.7387371 94.2842582,20.7387371 C94.1629221,20.7589702 94.0618278,20.9009477 93.9809492,21.1643236 C93.9607265,21.366983 94.0921566,21.7722845 94.3752498,22.3802455 M98.0756032,20.2827664 C98.8844167,21.7621507 99.4910313,22.5829049 99.8954501,22.7450289 C100.138086,22.8261342 100.350402,22.7145929 100.532395,22.410647 C100.613269,22.1674695 100.613269,21.8432214 100.532395,21.4379026 C100.28974,20.7488883 99.5719133,20.1307762 98.3789121,19.583601 C98.2373535,19.5024957 98.1261477,19.5732251 98.0452726,19.7963942 C97.9643819,19.9381988 97.9744933,20.100392 98.0756066,20.2827664 M101.715299,19.249219 C102.018596,19.6950732 102.321903,20.2017131 102.625222,20.7691386 C102.766747,21.0326011 102.958848,21.1947251 103.201506,21.2555108 C103.34303,21.2757439 103.484581,21.2048417 103.626137,21.0427176 C103.767662,20.8400755 103.838453,20.4955597 103.838453,20.0091875 C103.838453,19.6849394 103.636235,19.3505574 103.231839,19.0060416 C102.261242,18.2562243 101.654627,17.9117085 101.411992,17.9724942 C101.331101,17.9927273 101.270433,18.1042686 101.230007,18.3068761 C101.230007,18.5095528 101.391753,18.8236671 101.715299,19.249219 M111.876107,5.50920873 L113.483638,6.99872683 C113.746481,7.24193887 114.029569,7.3635103 114.332899,7.3635103 C114.53508,7.34327722 114.686735,7.2014727 114.78786,6.93792382 C114.868717,6.67449599 114.828283,6.2489268 114.666542,5.66119896 C114.484532,5.05325533 113.51395,4.53649891 111.754788,4.11089514 C111.451458,4.02978987 111.239144,4.0197598 111.117841,4.08045905 C111.036933,4.16156431 110.996522,4.32367109 110.996522,4.56683125 C111.077378,4.76950795 111.37058,5.08362224 111.876113,5.50917414 M112.331075,21.8938387 C110.854958,22.0964981 109.287869,22.3396928 107.629807,22.6234056 C107.569121,17.1922581 107.629789,13.828188 107.81179,12.5311782 C107.993758,11.9232345 107.963426,11.5077819 107.720805,11.2848548 L106.71989,10.1601202 C106.598554,10.0183157 106.477228,9.91694273 106.35592,9.85612243 C107.993765,7.12029826 108.913798,5.53959294 109.116021,5.11400646 C109.43953,4.30340342 109.783278,3.70557633 110.147267,3.32050789 C110.288791,3.07734773 110.309014,2.83415298 110.207935,2.59094094 C110.086599,2.34778078 109.722623,2.03366649 109.116028,1.64859805 C108.570056,1.38517022 108.115096,1.26358149 107.751143,1.28381458 C107.387157,1.36491984 107.306275,1.6080973 107.508497,2.01338152 C107.751125,2.4389853 107.801677,3.00641088 107.660149,3.71567557 C106.911974,6.3299456 105.547091,9.17725925 103.565495,12.2575992 C103.383498,12.4602586 103.282395,12.6325165 103.262188,12.7743556 C103.241948,12.9770323 103.353173,13.0479692 103.595826,12.9871489 C103.899121,12.8655774 104.536066,12.227215 105.506665,11.0720616 C105.52687,11.1531668 105.587538,11.2544706 105.68865,11.376042 C106.113264,12.166412 106.325579,13.7268496 106.325595,16.0573723 C106.325579,18.9148198 106.012162,21.6506612 105.385341,24.264914 C105.12246,25.197123 105.344878,26.1901351 106.052618,27.2439329 C106.072823,27.3250381 106.133491,27.4059705 106.234603,27.4871276 C106.618777,27.8518938 106.942305,27.7303051 107.205188,27.1223442 C107.447816,26.3927772 107.58936,25.1667215 107.629819,23.4441598 C108.115094,23.6873373 108.8127,23.7278726 109.722641,23.5657312 C112.10864,22.9983056 114.990061,22.7044417 118.366916,22.6841741 C118.690409,22.7044071 118.993715,22.7044071 119.276832,22.6841741 C119.640771,22.6841914 119.873315,22.6030688 119.974445,22.4409966 C120.05537,22.2383372 119.944077,21.9951597 119.640806,21.7114297 C118.548868,20.921077 117.43674,20.7184349 116.304417,21.1034687 C115.515794,21.2452732 114.615981,21.4378507 113.604979,21.6810282 C113.625185,20.4448386 113.655501,19.2593183 113.695981,18.1244325 C115.47536,17.6988806 116.435834,17.445552 116.577404,17.3644814 C116.718929,17.2226769 116.749245,17.0706347 116.668389,16.9085107 C116.526813,16.7058686 116.183071,16.5336107 115.637143,16.391737 C115.010282,16.3106317 114.373337,16.4221731 113.726305,16.7261189 C113.746493,15.9155159 113.776827,15.1352971 113.81729,14.3854452 C114.423882,14.2030707 115.060827,14.0409467 115.728128,13.899073 C116.294277,13.7572684 116.617805,13.6356451 116.698713,13.5343068 C116.840237,13.3925023 116.870554,13.250594 116.789698,13.1087203 C116.648122,12.9060782 116.3246,12.754088 115.819113,12.6527496 C115.09115,12.5311782 114.433984,12.6631255 113.847613,13.0479346 C113.847591,12.7237037 113.87793,12.2778496 113.938615,11.7104067 C114.120576,11.2037841 113.847596,10.7174119 113.119683,10.2512901 C115.808986,9.5622758 117.2042,9.17724195 117.305331,9.09615398 C117.446838,8.95434946 117.477172,8.80232464 117.396316,8.64018328 C117.25474,8.43754117 116.910997,8.26528327 116.36507,8.12340958 C115.79887,8.04230431 115.252916,8.12342687 114.727208,8.36660433 C113.918363,8.67060208 113.058993,8.95431488 112.149092,9.21774271 C111.158267,9.48122242 110.07647,9.68386453 108.9037,9.82572092 C108.236406,9.96752544 108.145414,10.1803706 108.630724,10.4640834 C109.297982,10.7883488 110.369668,10.818733 111.845785,10.5552187 C112.047968,11.0010729 112.209732,11.9940849 112.331077,13.5342549 C111.522236,13.7166466 110.652754,13.8787707 109.72263,14.0206271 C109.095776,14.1421985 109.014894,14.3448752 109.479984,14.628588 C110.106801,14.9933715 111.057164,15.023773 112.331077,14.7197234 L112.331077,17.1515844 C111.785103,17.2933889 110.925731,17.4454483 109.752961,17.6075724 C109.085666,17.7291438 108.994675,17.9419543 109.479984,18.2459348 C110.268565,18.6309859 111.178487,18.7019055 112.209755,18.4587107 C112.22996,18.4384777 112.270388,18.4384777 112.331073,18.4587107 L112.331073,21.8937176" id="wikipedia-wordmark-zh-classical" fill="#000000" fill-rule="nonzero"></path>
    </g>
</svg>