<svg xmlns="http://www.w3.org/2000/svg" width="120" height="15"><path fill="#000" fill-rule="nonzero" d="M2.052 10.648h3.234c.427 0 1.83.03 1.83.03.153-.762.306-1.754.397-2.547a1.095 1.095 0 0 0-.503-.076c-.305 1.098-.717 1.998-1.877 1.998H3.41c-.442 0-.717-.29-.717-.763V2.67c0-1.267.26-1.343 1.328-1.389.091-.091.091-.411 0-.503-.748.015-1.205.03-1.983.03C1.274.809.83.794.069.779c-.092.092-.092.412 0 .503 1.067.046 1.327.122 1.327 1.389v6.117c0 1.266-.26 1.342-1.327 1.388-.092.092-.092.412 0 .503.747-.015 1.983-.03 1.983-.03m6.977-6.499.412-.06s.504-2.518.504-2.762c0-.244-.138-.503-.534-.503-.458 0-.778.427-.778.763 0 .137.396 2.562.396 2.562m3.22 2.197c.29-1.724 1.357-1.861 1.723-1.861.58 0 1.266.32 1.266 1.602 0 .137-.06.213-.229.213l-2.76.046m3.996 2.883c-.564.58-1.007.824-1.892.824-.549 0-1.19-.32-1.662-1.098-.305-.504-.489-1.206-.489-2.09l4.058.03c.183 0 .29-.091.29-.26 0-1.28-.458-2.653-2.578-2.653-1.327 0-3.05 1.266-3.05 3.584 0 .855.213 1.678.716 2.258.519.61 1.236.976 2.334.976 1.16 0 1.983-.533 2.593-1.327-.045-.152-.137-.229-.32-.244m3.742-4.042c-.046.06-.153.213-.153 0 0-.458.076-1.16.076-1.16 0-.076-.06-.122-.183-.122-.427.168-1.052.305-2.105.443-.03.091 0 .335.03.427.824.076.992.152.992 1.037v2.975c0 1.25-.152 1.312-1.068 1.388-.091.092-.091.412 0 .503.626-.015 1.022-.03 1.678-.03.595 0 .87.015 1.51.03.092-.091.092-.411 0-.503-.777-.076-.915-.137-.915-1.388V6.285c0-.32.138-.503.26-.64.58-.565 1.174-.9 1.77-.9.304 0 .625.198.808.548.152.306.183.717.183 1.175v2.319c0 1.25-.153 1.312-.946 1.388-.076.092-.076.412 0 .503.64-.015.946-.03 1.556-.03.625 0 .961.015 1.617.03.076-.091.076-.411 0-.503-.854-.076-1.022-.137-1.022-1.388V6.514c0-.84-.061-1.571-.412-2.044-.26-.336-.732-.519-1.266-.519-.748 0-1.48.198-2.41 1.236M31.415 9.26c-.061-.138-.183-.199-.32-.214-.52.671-1.175 1.007-1.831 1.007-1.114 0-2.044-1.129-2.044-2.914 0-1.678.732-2.685 1.739-2.685.9 0 1.022.534 1.083 1.068.046.412.26.55.58.55.32 0 .747-.199.747-.672 0-.839-.87-1.449-2.334-1.449-1.51 0-3.127 1.358-3.127 3.524 0 1.968 1.098 3.325 3.02 3.325.916 0 1.724-.29 2.487-1.54m1.767-7.75c0 .397.366.793.732.793.427 0 .793-.396.793-.732 0-.366-.32-.793-.732-.793-.366 0-.793.366-.793.732m1.388 7.277V5.75c0-.763.061-1.739.061-1.739 0-.061-.076-.107-.198-.107-.443.168-1.038.305-2.09.443-.03.091 0 .335.03.427.824.091.992.168.992 1.037v2.975c0 1.266-.168 1.312-1.099 1.388-.091.092-.091.412 0 .503.641-.015 1.038-.03 1.709-.03.656 0 1.037.015 1.693.03.092-.091.092-.411 0-.503-.93-.061-1.098-.122-1.098-1.388m7.452.473c-.061-.138-.183-.199-.32-.214-.52.671-1.175 1.007-1.831 1.007-1.114 0-2.044-1.129-2.044-2.914 0-1.678.732-2.685 1.739-2.685.9 0 1.022.534 1.083 1.068.046.412.26.55.58.55.32 0 .747-.199.747-.672 0-.839-.87-1.449-2.334-1.449-1.51 0-3.127 1.358-3.127 3.524 0 1.968 1.098 3.325 3.02 3.325.915 0 1.724-.29 2.487-1.54m1.843-.473c0 1.266-.168 1.342-1.098 1.388-.092.092-.092.412 0 .503.64-.015 1.037-.03 1.708-.03.656 0 1.038.015 1.693.03.092-.091.092-.411 0-.503-.93-.046-1.098-.122-1.098-1.388V1.754c0-.991.061-1.601.061-1.601 0-.107-.06-.153-.198-.153-.382.153-1.526.366-2.136.412-.03.122 0 .366.092.458.793.045.976-.031.976 1.25v6.667m3.198-1.266c0 1.556 1.053 3.28 3.204 3.28 2.273 0 3.234-1.892 3.234-3.418 0-1.586-.839-3.432-3.203-3.432-2.06 0-3.235 1.632-3.235 3.57m3.067-3.067c1.312 0 2.06 1.175 2.06 3.418 0 2.013-.931 2.425-1.648 2.425-1.587 0-2.167-1.953-2.167-3.127 0-1.327.473-2.716 1.755-2.716m6.665 1.084c.473-.489 1.083-.885 1.54-.885.977 0 1.816 1.098 1.816 2.822 0 1.25-.443 2.807-2.151 2.807-.275 0-.809-.076-1.083-.32-.32-.275-.366-.351-.366-.916V6.21c0-.32.045-.458.244-.671m-.122-.504c-.061.061-.153.076-.153-.046 0-.549.061-.976.061-.976 0-.061-.076-.107-.198-.107-.427.168-1.007.305-2.06.443-.03.091 0 .335.03.427.825.076.992.168.992 1.037v6.514c0 1.266-.167 1.342-1.098 1.388-.091.092-.091.412 0 .504.64-.016 1.037-.03 1.709-.03.717 0 1.19.014 1.846.03.091-.092.091-.412 0-.504-1.084-.06-1.251-.122-1.251-1.388v-1.648c0-.198.045-.167.213-.106.366.152.84.228 1.327.228.855 0 1.617-.259 2.243-.854.717-.702 1.129-1.647 1.129-2.883 0-1.617-1.144-3.112-2.7-3.112-.565 0-1.404.381-2.09 1.083m7.388 1.312c.29-1.724 1.358-1.861 1.724-1.861.58 0 1.266.32 1.266 1.602 0 .137-.06.213-.229.213l-2.76.046m3.996 2.883c-.564.58-1.007.824-1.892.824-.549 0-1.19-.32-1.662-1.098-.305-.504-.489-1.206-.489-2.09l4.058.03c.183 0 .29-.091.29-.26 0-1.28-.458-2.653-2.578-2.653-1.327 0-3.05 1.266-3.05 3.584 0 .855.213 1.678.716 2.258.519.61 1.236.976 2.334.976 1.16 0 1.983-.533 2.593-1.327-.045-.152-.137-.229-.32-.244m6.287-.473c0 .29-.03.412-.244.595-.565.488-1.053.732-1.434.732-.824 0-1.678-.9-1.678-2.806 0-1.099.213-1.709.442-2.03.473-.716 1.114-.762 1.419-.762.55 0 .93.198 1.236.55.213.243.259.35.259.823v2.898m-.168 1.13c.061-.062.183-.092.183.014 0 .367.168.9.168.9.122.046.168.031.29 0 .335-.274.915-.503 1.846-.61.091-.091.091-.32 0-.412-.977-.076-1.114-.366-1.114-1.113v-6.91c0-.992.061-1.602.061-1.602 0-.107-.06-.153-.198-.153-.382.153-1.526.366-2.136.412-.03.122 0 .366.092.458.793.045.976-.031.976 1.25v1.953c0 .107-.03.137-.137.137-.061 0-.687-.259-1.19-.259-1.007 0-1.678.336-2.288.915-.656.656-1.053 1.556-1.053 2.685 0 1.877.946 3.25 2.593 3.25.595 0 1.16-.306 1.907-.916m3.995-8.375c0 .397.366.793.732.793.427 0 .793-.396.793-.732 0-.366-.32-.793-.732-.793-.366 0-.793.366-.793.732m1.388 7.277V5.75c0-.763.061-1.739.061-1.739 0-.061-.076-.107-.198-.107-.443.168-1.038.305-2.09.443-.03.091 0 .335.03.427.824.091.992.168.992 1.037v2.975c0 1.266-.168 1.312-1.098 1.388-.092.092-.092.412 0 .503.64-.015 1.037-.03 1.708-.03.656 0 1.037.015 1.693.03.092-.091.092-.411 0-.503-.93-.061-1.098-.122-1.098-1.388m5.85-1.693v2.028c0 .199-.092.306-.214.397-.396.32-.915.656-1.342.656-.763 0-1.098-.61-1.098-1.083 0-.687.32-1.373 1.449-1.678l1.205-.32m0 2.822c.092.32.35.884 1.175.884.747 0 1.296-.61 1.296-.686 0-.107-.137-.26-.198-.26-.092 0-.153.245-.473.245-.595 0-.61-.595-.61-1.297V6.53c0-2.166-1.19-2.578-2.304-2.578-1.25 0-2.517.87-2.517 1.693 0 .366.183.534.534.534.443 0 .671-.305.671-.503a.686.686 0 0 0-.045-.275 1.054 1.054 0 0 1-.03-.305c0-.473.686-.64 1.265-.64.519 0 1.236.259 1.236 1.983 0 .106-.046.167-.092.183l-1.311.32c-1.465.366-2.518 1.175-2.518 2.212 0 1.205.855 1.647 1.923 1.647.701 0 .991-.122 1.662-.64l.305-.244h.031m7.765-1.13c0 1.267-.168 1.343-1.098 1.389-.092.092-.092.412 0 .503.64-.015 1.037-.03 1.708-.03.656 0 1.038.015 1.694.03.091-.091.091-.411 0-.503-.93-.046-1.099-.122-1.099-1.388V1.754c0-.991.061-1.601.061-1.601 0-.107-.06-.153-.198-.153-.381.153-1.525.366-2.136.412-.03.122 0 .366.092.458.793.045.976-.031.976 1.25v6.667m3.946-7.277c0 .397.366.793.732.793.428 0 .794-.396.794-.732 0-.366-.32-.793-.733-.793-.366 0-.793.366-.793.732m1.388 7.277V5.75c0-.763.061-1.739.061-1.739 0-.061-.076-.107-.198-.107-.442.168-1.037.305-2.09.443-.03.091 0 .335.03.427.824.091.992.168.992 1.037v2.975c0 1.266-.168 1.312-1.098 1.388-.092.092-.092.412 0 .503.64-.015 1.037-.03 1.708-.03.656 0 1.038.015 1.694.03.091-.091.091-.411 0-.503-.93-.061-1.099-.122-1.099-1.388m4.035-3.677c.397-.35.854-.488 1.297-.488.93 0 1.693 1.13 1.693 2.609 0 1.739-.702 3.05-2.15 3.05-.474 0-.794-.335-1.1-.716V5.75c0-.32.062-.458.26-.64m-.107-.474c-.106.092-.152.062-.152-.076V1.754c0-.991.06-1.601.06-1.601 0-.107-.06-.153-.198-.153-.38.153-1.525.366-2.135.412-.03.122 0 .366.091.458.794.045.977-.031.977 1.25v7.445c0 .595-.016.87-.061 1.083.076.122.152.183.335.183.092-.076.244-.229.351-.366.168-.183.26-.183.427-.03.336.29.793.365 1.343.365 1.556 0 3.371-1.418 3.371-3.844 0-1.86-1.373-3.005-2.7-3.005-.656 0-1.236.26-1.709.686m6.487 1.175v2.975c0 1.266-.184 1.327-1.13 1.388-.09.092-.09.412 0 .503.641-.015 1.13-.03 1.74-.03.625 0 1.19.015 1.846.03.091-.091.091-.411 0-.503-1.068-.076-1.251-.122-1.251-1.388v-2.12c0-.397.183-.748.366-1.023.168-.244.518-.747.701-.747.107 0 .23.015.32.107.153.152.306.442.626.442.366 0 .717-.381.717-.763 0-.29-.274-.732-.915-.732-.717 0-1.342.671-1.693 1.266-.092.168-.138.092-.138.015 0-.488.077-1.22.077-1.22 0-.061-.077-.107-.199-.107-.427.168-1.037.305-2.09.443-.03.091-.03.335.03.427.825.076.993.198.993 1.037m8.605 1.282v2.028c0 .199-.092.306-.214.397-.396.32-.915.656-1.342.656-.763 0-1.099-.61-1.099-1.083 0-.687.32-1.373 1.45-1.678l1.205-.32m0 2.822c.091.32.35.884 1.174.884.748 0 1.297-.61 1.297-.686 0-.107-.137-.26-.198-.26-.092 0-.153.245-.473.245-.595 0-.61-.595-.61-1.297V6.53c0-2.166-1.19-2.578-2.304-2.578-1.25 0-2.517.87-2.517 1.693 0 .366.183.534.534.534.442 0 .671-.305.671-.503a.686.686 0 0 0-.046-.275 1.054 1.054 0 0 1-.03-.305c0-.473.686-.64 1.266-.64.519 0 1.236.259 1.236 1.983 0 .106-.046.167-.092.183l-1.312.32c-1.464.366-2.517 1.175-2.517 2.212 0 1.205.854 1.647 1.922 1.647.702 0 .992-.122 1.663-.64l.305-.244h.03"/></svg>