<svg xmlns="http://www.w3.org/2000/svg" width="118" height="20"><path fill="#000" fill-rule="nonzero" d="M17 13.236c0 2.195-.259 3.792-.777 4.792-.69 1.315-1.936 1.972-3.735 1.972-1.3 0-2.34-.648-3.122-1.944-.237-.38-.51-1.047-.818-2 0 .61-.21 1.277-.627 2C7.166 19.352 5.953 20 4.28 20c-1.6 0-2.759-.602-3.477-1.806-.536-.88-.804-2-.804-3.36 0-1.223.336-2.172 1.009-2.848.581-.592 1.309-.889 2.181-.889.745 0 1.377.24 1.895.722.554.51.832 1.163.832 1.959 0 .574-.178 1.041-.532 1.403-.345.36-.74.541-1.186.541-.373 0-.682-.139-.927-.416.045.055.259-.028.64-.25.446-.25.669-.612.669-1.084 0-.537-.164-.963-.491-1.278-.3-.287-.677-.43-1.132-.43-.527 0-.99.199-1.39.597-.446.454-.668 1.051-.668 1.792 0 1.676 1.104 2.514 3.313 2.514 1.245 0 2.235-.278 2.971-.834.528-.398.923-.94 1.186-1.625.119-.36.232-.717.341-1.07l.137.917c.154.704.445 1.269.872 1.695.59.611 1.409.917 2.454.917 2.536 0 3.804-1.574 3.804-4.723a10.96 10.96 0 0 0-.805-4.125c-.6-1.49-1.404-2.564-2.413-3.222.027.39.041.597.041.625 0 1.611-.709 2.417-2.127 2.417-.918 0-1.7-.408-2.344-1.222-.591-.75-.882-1.584-.873-2.5.01-.704.214-1.269.614-1.695C8.516 2.241 9.148 2 9.966 2c1.935 0 3.617 1.236 5.044 3.708C16.337 8.023 17 10.532 17 13.236m-4.935-8.028c0-.333-.027-.55-.082-.652-.39-.362-.963-.542-1.718-.542-1.09 0-1.635.523-1.635 1.57 0 .953.504 1.43 1.513 1.43.5 0 .936-.153 1.308-.458.41-.343.614-.792.614-1.348M33 11.472h-3.33c.515.287.983.741 1.405 1.361.515.769.773 1.593.773 2.473 0 1.509-.497 2.694-1.49 3.555-.88.76-1.967 1.139-3.26 1.139-1.274 0-2.346-.38-3.217-1.139-.984-.861-1.476-2.046-1.476-3.555 0-.88.262-1.704.787-2.473.412-.62.88-1.074 1.405-1.36H21V9.43h5.55c1.124-1.084 1.72-1.95 1.785-2.598-.543.556-1.129.834-1.757.834-.74 0-1.316-.255-1.728-.764-.356-.454-.534-1.037-.534-1.75 0-.797.234-1.505.703-2.125C25.534 2.343 26.18 2 26.958 2c.946 0 1.723.236 2.332.708.61.463.914 1.08.914 1.848 0 1.546-.834 3.17-2.501 4.875H33v2.041m-4.778-6.597c0-.167-.08-.356-.238-.57-.281-.342-.708-.513-1.28-.513-.505 0-.908.125-1.208.375-.29.24-.435.514-.435.82 0 .851.515 1.277 1.546 1.277 1.011 0 1.55-.463 1.615-1.389m2.193 9.472c0-.898-.277-1.634-.83-2.208-.6-.63-1.428-.945-2.487-.945-.936 0-1.733.315-2.388.945-.647.62-.97 1.356-.97 2.208 0 .972.347 1.727 1.04 2.264.618.482 1.391.722 2.318.722.918 0 1.682-.24 2.29-.722.685-.537 1.027-1.292 1.027-2.264m16.538-7.466c0 .999-.261 1.817-.783 2.455-.577.712-1.397 1.068-2.46 1.068-.632 0-1.196-.139-1.69-.416-.541-.305-.811-.698-.811-1.18 0-.276.1-.484.302-.623.348.703 1.09 1.054 2.226 1.054.77 0 1.375-.254 1.814-.763.385-.444.578-.984.578-1.622 0-.721-.055-1.165-.165-1.332.036.084-.188.38-.674.888-.595.62-1.282.929-2.061.929-.816 0-1.475-.287-1.98-.86a2.831 2.831 0 0 1-.686-1.9c0-.72.206-1.317.618-1.789.458-.526 1.095-.79 1.91-.79 1.191 0 2.149.527 2.873 1.58.66.944.99 2.044.99 3.301M53 13.676c0 1.757-.325 3.2-.976 4.327C51.264 19.334 50.132 20 48.63 20c-1.072 0-2.098-.555-3.079-1.664-.778-.878-1.168-1.456-1.168-1.734 0 .352-.307.93-.92 1.734C42.61 19.446 41.565 20 40.328 20c-1.475 0-2.607-.633-3.394-1.9-.623-1.008-.935-2.2-.935-3.578 0-1.155.344-2.08 1.03-2.773.615-.62 1.348-.934 2.2-.943.77-.01 1.415.222 1.937.693.568.527.852 1.244.852 2.15 0 .527-.252.984-.755 1.373-.44.332-.885.499-1.334.499-.366 0-.55-.134-.55-.402.862-.333 1.293-.823 1.293-1.47 0-.444-.184-.805-.55-1.082a1.976 1.976 0 0 0-1.25-.43c-.55 0-1.009.171-1.375.513-.421.398-.632.976-.632 1.734 0 1.858 1.127 2.787 3.38 2.787 1.567 0 2.726-.527 3.478-1.58.44-.62.66-1.175.66-1.665 0 .472.228 1.017.686 1.636.78 1.073 1.988 1.609 3.628 1.609 2.245 0 3.367-.957 3.367-2.87 0-1.24-.563-2.441-1.69-3.606-.531-.555-.797-1.072-.797-1.553 0-.315.11-.578.33-.79.192-.185.39-.278.59-.278.679 0 1.265.569 1.76 1.706.495 1.137.742 2.436.742 3.896M45.455 4.58c-.376-.656-.985-.984-1.828-.984-.55 0-1.003.176-1.36.527-.348.351-.522.753-.522 1.206 0 .814.494 1.22 1.484 1.22 1.08 0 1.823-.656 2.226-1.969M64 20h-4.292c-1.21-.832-2.146-2.057-2.806-3.675C56.3 14.854 56 13.272 56 11.581c0-1.855.347-3.39 1.041-4.607C57.795 5.658 58.815 5 60.101 5c.991 0 1.749.357 2.274 1.07.465.63.698 1.416.698 2.358-.008.978-.25 1.823-.724 2.536-.508.786-1.151 1.18-1.93 1.18-.77 0-1.367-.339-1.79-1.015-.373-.594-.56-1.353-.56-2.276 0-.21.01-.503.026-.878-.88.96-1.32 2.162-1.32 3.606 0 1.691.58 3.286 1.74 4.786 1.32 1.7 3.148 2.91 5.485 3.633M62.387 8.537c0-1.115-.63-1.672-1.892-1.672-.61 0-1.206.205-1.79.617 0 1.846.656 2.77 1.968 2.77a1.65 1.65 0 0 0 1.244-.535c.314-.339.47-.732.47-1.18M84 15.222c-.018 1.306-.391 2.398-1.119 3.278-.811 1-1.93 1.5-3.358 1.5-2.304 0-3.717-1.231-4.24-3.694-.55 2.463-1.935 3.694-4.155 3.694-1.128 0-2.075-.444-2.84-1.333C67.43 17.685 67 16.338 67 14.625c0-1.296.303-2.537.91-3.722a9.597 9.597 0 0 1 1.678-2.292c.513-.518.798-.778.854-.778-.616 0-1.203-.32-1.763-.958-.56-.639-.84-1.269-.84-1.889 0-.842.406-1.537 1.218-2.083C69.96 2.3 71.225 2 72.848 2c2.258 0 4.216.574 5.877 1.722 1.315.908 2.36 2.097 3.134 3.57.625 1.185.937 2.208.937 3.07 0 .184-.023.448-.07.79-.037.297-.056.45-.056.46.905.87 1.348 2.073 1.33 3.61m-2.7-6.875c-.187-.444-.379-.893-.575-1.347a7.842 7.842 0 0 0-2.252-2.542c-1.269-.916-2.752-1.375-4.45-1.375-1.678 0-2.816.26-3.413.778-.383.343-.574.87-.574 1.583 0 .362.117.75.35 1.167.261.472.546.708.853.708 1.4-.592 2.855-.888 4.366-.888 2.136 0 4.034.638 5.694 1.916m.35 3.209c-.466-.473-1.077-.709-1.833-.709-.55 0-1.003.12-1.357.361-.317.213-.476.473-.476.778 0 .639.42.958 1.26.958.708 0 1.329-.226 1.86-.68.476-.417.658-.653.546-.708m1.539 2.625a3.196 3.196 0 0 0-.798-2.028c.02.01-.102.19-.363.541a3.991 3.991 0 0 1-1.106 1.028c-.597.38-1.273.57-2.028.57-.71 0-1.274-.209-1.693-.625-.383-.37-.574-.838-.574-1.403.01-.583.233-1.083.672-1.5.503-.472 1.17-.708 2-.708.635 0 1.213.12 1.735.36.392.177.588.283.588.32 0-.972-.606-1.82-1.819-2.542-1.24-.731-2.747-1.097-4.52-1.097-1.92 0-3.548.584-4.882 1.75-1.409 1.232-2.113 2.82-2.113 4.764 0 1.139.317 2.033.952 2.68.578.603 1.315.903 2.21.903 2.09 0 3.367-1.018 3.834-3.055 0 .361.256.861.77 1.5.81 1.018 1.967 1.528 3.47 1.528 1.24 0 2.187-.31 2.84-.93.587-.547.862-1.232.825-2.056M118 13.08c0 1.953-.405 3.549-1.216 4.787-.923 1.421-2.257 2.132-4 2.132-2.205 0-3.718-1.311-4.538-3.934-.188 1.165-.683 2.1-1.484 2.806-.867.752-1.993 1.128-3.379 1.128-1.13 0-2.153-.431-3.067-1.293-.66-.624-1.23-1.43-1.71-2.42-.35-.735-.523-1.184-.523-1.349 0 .614-.326 1.472-.976 2.572-.98 1.66-2.304 2.49-3.972 2.49-1.941 0-3.482-.912-4.622-2.737C87.504 15.649 87 13.718 87 11.472c0-1.88.42-3.448 1.258-4.704.924-1.376 2.172-2.064 3.746-2.064 2.14 0 3.807 1.069 5.004 3.205.905 1.614 1.357 3.297 1.357 5.048.735 2.779 2.319 4.168 4.75 4.168 1.121 0 1.984-.348 2.587-1.045.546-.624.824-1.458.834-2.504.019-1.494-.467-2.865-1.456-4.112-1.075-1.367-2.403-2.05-3.987-2.05h-2.205V5.048h5.019c2.082 0 3.124-.798 3.124-2.393 0-.66-.406-1.34-1.216-2.036L106.45 0c1.253 1.174 1.88 2.302 1.88 3.384 0 2.687-1.475 4.03-4.424 4.03h-.27a9.936 9.936 0 0 1 2.305 1.857c1.546 1.687 2.342 3.65 2.39 5.887v.165c.875 1.266 2.45 1.898 4.72 1.898 1.103 0 2.055-.307 2.856-.921.933-.716 1.4-1.688 1.4-2.916 0-2.889-2.088-4.888-6.263-5.998-.83-.22-1.244-.664-1.244-1.334 0-.33.123-.623.368-.88.254-.257.58-.385.975-.385 1.498 0 2.987.811 4.467 2.434 1.593 1.752 2.389 3.705 2.389 5.86m-20.44-.426c0-1.743-.528-3.137-1.584-4.182-.952-.935-2.101-1.403-3.449-1.403-1.3 0-2.394.422-3.28 1.266-.98.935-1.47 2.214-1.47 3.837 0 1.32.406 2.449 1.216 3.384.914 1.045 2.12 1.568 3.619 1.568 1.743 0 3.049-.504 3.916-1.513.688-.798 1.032-1.784 1.032-2.957"/></svg>