<svg xmlns="http://www.w3.org/2000/svg" width="120" height="12"><path fill="#000" fill-rule="nonzero" d="M116.33 8.59c.473 0 1.043-.242 1.638-.727.06-.049.17-.073.182.012.024.315.133.716.133.716.097.036.146.036.23 0 .268-.219.692-.4 1.432-.485.073-.073.073-.255 0-.328-.776-.06-.885-.291-.885-.886v-2.33c0-.363.048-1.25.048-1.25 0-.036-.036-.072-.097-.072-.06.012-.243.024-.425.024-.388 0-.825-.012-1.237-.024-.073.073-.073.328 0 .4.594.037.752.182.752.983v2.342c0 .23-.024.328-.194.473-.45.389-.91.583-1.214.583-.364 0-.97-.17-.97-1.25V4.563c0-.364.048-1.25.048-1.25 0-.036-.036-.073-.097-.073-.06.012-.243.024-.425.024-.388 0-.825-.012-1.237-.024-.073.073-.073.328 0 .4.582.049.752.183.752.971v2.33c0 .837.364 1.65 1.565 1.65Zm-10.145-4.464c-.024-.352-.049-.79-.097-.923-.037-.048-.049-.097-.146-.097-.34.134-.655.243-1.492.352-.024.073 0 .267.024.34.655.06.789.121.789.825V6.99c0 .995-.158 1.056-.825 1.104-.073.073-.073.328 0 .4.364-.012.825-.024 1.31-.024.485 0 .85.013 1.214.025.072-.073.072-.328 0-.4-.607-.061-.74-.11-.74-1.105V5c0-.255.109-.4.206-.51.473-.46.934-.715 1.31-.715.461 0 .8.29.8 1.104v2.111c0 .995-.096 1.056-.751 1.104-.061.073-.061.328 0 .4a29.442 29.442 0 0 1 2.427 0c.06-.072.06-.327 0-.4-.607-.048-.717-.109-.717-1.104V5.06c0-.17 0-.339-.012-.485.583-.643 1.129-.8 1.602-.8.461 0 .728.267.728 1.08v2.135c0 .995-.121 1.056-.752 1.104-.061.073-.061.328 0 .4a31.969 31.969 0 0 1 2.487 0c.06-.072.06-.327 0-.4-.667-.048-.777-.109-.777-1.104V5.072c0-1.08-.182-1.93-1.25-1.93-.63 0-1.37.231-2.001.899-.037.036-.11.097-.134 0-.121-.498-.582-.898-1.213-.898-.704 0-1.347.424-1.845.983-.06.072-.145.145-.145 0ZM101.944 1.2c0 .316.291.631.582.631.34 0 .631-.315.631-.582 0-.291-.255-.631-.582-.631-.291 0-.631.291-.631.582Zm1.104 5.788V4.575c0-.607.048-1.384.048-1.384 0-.048-.06-.085-.157-.085-.352.134-.825.243-1.663.352-.024.073 0 .267.025.34.655.073.788.133.788.825V6.99c0 1.007-.133 1.044-.873 1.104-.073.073-.073.328 0 .4.4-.011.873-.024 1.359-.024.485 0 .946.013 1.346.025.073-.073.073-.328 0-.4-.74-.05-.873-.098-.873-1.105Zm-4.243 0c0 1.007-.133 1.068-.873 1.104-.073.073-.073.328 0 .4.424-.011.873-.024 1.359-.024.485 0 .946.013 1.346.025.073-.073.073-.328 0-.4-.74-.037-.873-.098-.873-1.105V1.396c0-.79.048-1.275.048-1.275 0-.084-.048-.12-.158-.12-.303.12-1.213.29-1.698.327-.025.097 0 .29.073.364.703.048.776.085.776.995v5.302Zm-3.33-5.788c0 .316.29.631.581.631.34 0 .631-.315.631-.582 0-.291-.254-.631-.582-.631-.291 0-.63.291-.63.582Zm1.103 5.788V4.575c0-.607.049-1.384.049-1.384 0-.048-.061-.085-.158-.085-.352.134-.825.243-1.662.352-.025.073 0 .267.024.34.655.073.789.133.789.825V6.99c0 1.007-.134 1.044-.874 1.104-.073.073-.073.328 0 .4.4-.011.874-.024 1.359-.024s.946.013 1.347.025c.073-.073.073-.328 0-.4-.74-.05-.874-.098-.874-1.105Zm-9.561-2.863c-.085.085-.146.12-.146 0-.012-.328-.049-.79-.097-.923-.036-.048-.049-.097-.146-.097-.34.134-.655.243-1.492.352-.024.073 0 .267.024.34.655.06.789.121.789.825V6.99c0 .995-.121 1.044-.85 1.104-.072.073-.072.328 0 .4.365-.012.85-.024 1.335-.024.486 0 .85.013 1.214.025.072-.073.072-.328 0-.4-.62-.061-.74-.11-.74-1.105V5c0-.255.109-.4.206-.51.46-.448 1.007-.715 1.48-.715.243 0 .498.157.643.436.122.243.146.57.146.935v1.844c0 .995-.122 1.044-.752 1.104-.061.073-.061.328 0 .4a34.92 34.92 0 0 1 1.237-.024c.486 0 .922.013 1.286.025.061-.073.061-.328 0-.4-.68-.061-.813-.11-.813-1.105V5.181c0-.667-.048-1.25-.327-1.626-.206-.267-.583-.412-1.007-.412-.595 0-1.274.157-1.99.983Zm-4.223 1.516v1.602c0 .158-.073.243-.17.316-.316.254-.728.533-1.068.533-.607 0-.873-.485-.873-.861 0-.546.254-1.104 1.152-1.335l.959-.255Zm0 2.245c.073.376.194.704.813.704.46 0 .898-.206 1.152-.45-.024-.145-.072-.242-.206-.327-.097.085-.303.194-.449.194-.352 0-.364-.473-.364-1.031V5.193c0-1.723-.946-2.05-1.832-2.05-.995 0-2.002.655-2.002 1.347 0 .29.146.436.425.436.352 0 .57-.254.57-.412a.546.546 0 0 0-.036-.219.839.839 0 0 1-.025-.242c0-.376.51-.51.971-.51.413 0 .983.206.983 1.578 0 .084-.037.133-.073.145l-1.043.255c-1.165.291-2.002.934-2.002 1.76 0 .994.679 1.31 1.528 1.31.413 0 .79-.097 1.323-.51l.243-.194h.024ZM77.06 1.201c0 .316.291.631.583.631.34 0 .63-.315.63-.582 0-.291-.254-.631-.582-.631-.291 0-.63.291-.63.582Zm1.104 5.788V4.575c0-.607.049-1.384.049-1.384 0-.048-.06-.085-.158-.085-.352.134-.825.243-1.662.352-.024.073 0 .267.024.34.655.073.789.133.789.825V6.99c0 1.007-.134 1.044-.874 1.104-.073.073-.073.328 0 .4.4-.011.874-.024 1.36-.024.484 0 .946.013 1.346.025.073-.073.073-.328 0-.4-.74-.05-.874-.098-.874-1.105Zm-6.376-2.536c.315-.388.861-.752 1.225-.752.777 0 1.444.874 1.444 2.245 0 .995-.352 2.232-1.71 2.232-.22 0-.644-.06-.862-.255-.255-.218-.292-.279-.292-.728V4.987c0-.255.049-.352.195-.534Zm-.23-.449c-.025-.364-.05-.667-.098-.8-.036-.05-.048-.098-.146-.098-.34.134-.655.243-1.492.352-.024.073 0 .267.024.34.656.06.789.121.789.825v5.181c0 1.007-.133 1.068-.874 1.104-.072.073-.072.328 0 .4.425-.011.874-.024 1.36-.024.485 0 1.067.013 1.468.025.072-.073.072-.328 0-.4-.862-.05-.995-.098-.995-1.105v-1.31c0-.158.036-.134.17-.085.29.121.667.182 1.055.182.68 0 1.286-.206 1.784-.68.57-.558.898-1.31.898-2.293 0-1.286-.91-2.475-2.148-2.475-.57 0-1.19.376-1.662.91-.073.085-.134.073-.134-.049Zm-3.884 1.638v1.602c0 .158-.073.243-.17.315-.315.255-.728.534-1.068.534-.606 0-.873-.485-.873-.861 0-.546.254-1.104 1.152-1.335l.959-.255Zm0 2.245c.073.376.194.704.813.704.46 0 .898-.206 1.153-.45-.025-.145-.073-.242-.207-.327-.097.085-.303.194-.449.194-.351 0-.364-.473-.364-1.031V5.193c0-1.723-.946-2.05-1.832-2.05-.995 0-2.002.655-2.002 1.347 0 .29.146.436.425.436.352 0 .57-.254.57-.412a.546.546 0 0 0-.036-.219.839.839 0 0 1-.025-.242c0-.376.51-.51.971-.51.413 0 .983.206.983 1.578 0 .084-.036.133-.073.145l-1.043.255c-1.165.291-2.002.934-2.002 1.76 0 .994.68 1.31 1.529 1.31.412 0 .788-.097 1.322-.51l.243-.194h.024ZM60.8 3.264c-.17 0-.218.146-.218.243v.158c0 .06.012.072.06.072h.716V7.39c0 .861.377 1.2.935 1.2s1.165-.266 1.638-.8c-.024-.121-.097-.194-.219-.206-.315.242-.679.34-.994.34-.328 0-.4-.364-.4-1.117v-3.07h1.261c.121 0 .291-.048.291-.157v-.243c0-.049-.036-.073-.097-.073h-1.456v-.473c0-.789.049-1.274.049-1.274 0-.073-.037-.097-.097-.097-.061 0-.158.048-.267.109a2.955 2.955 0 0 1-.413.17c-.146.036-.267.085-.267.158 0 .145.036.06.036 1.407h-.558Zm-5.545 2.378v1.602c0 .158-.073.243-.17.315-.315.255-.728.534-1.068.534-.606 0-.873-.485-.873-.861 0-.546.254-1.104 1.152-1.335l.959-.255Zm0 2.245c.073.376.194.704.813.704.46 0 .898-.206 1.153-.45-.025-.145-.073-.242-.207-.327-.097.085-.303.194-.449.194-.352 0-.364-.473-.364-1.031V5.193c0-1.723-.946-2.05-1.832-2.05-.995 0-2.002.655-2.002 1.347 0 .29.146.436.425.436.352 0 .57-.254.57-.412a.546.546 0 0 0-.036-.219.839.839 0 0 1-.025-.242c0-.376.51-.51.971-.51.413 0 .983.206.983 1.578 0 .084-.036.133-.073.145l-1.043.255c-1.165.291-2.002.934-2.002 1.76 0 .994.68 1.31 1.528 1.31.413 0 .79-.097 1.323-.51l.243-.194h.024Zm-8.745-.898c0 1.007-.133 1.056-.813 1.104-.072.073-.072.328 0 .4.4-.011.813-.024 1.299-.024.424 0 .825.013 1.104.025.073-.073.073-.328 0-.4-.498-.05-.631-.098-.631-1.105V5.946c.23 0 .4.024.522.06.133.085.242.194.388.389l.886 1.189c.352.485.485.716.51.85 0 .035.011.06.048.06a15.52 15.52 0 0 1 1.747 0c.073-.073.073-.328 0-.4-.412-.05-.728-.098-1.043-.51l-1.602-2.015c-.049-.048-.085-.109-.085-.17 0-.048 0-.072.049-.12l1.067-1.105c.364-.388.789-.485 1.274-.534.073-.072.073-.327 0-.4-.279.012-.618.024-1.055.024-.461 0-.91-.012-1.19-.024-.072.073-.072.327 0 .4.68.049.389.486.28.62-.28.351-.668.764-.97.994-.28.206-.608.352-.826.376V1.396c0-.79.048-1.275.048-1.275 0-.084-.048-.12-.157-.12-.304.12-1.214.29-1.699.327-.024.097 0 .291.073.364.63.036.776-.024.776.995v5.302Zm-3.033-1.347v1.602c0 .158-.073.243-.17.315-.316.255-.728.534-1.068.534-.607 0-.874-.485-.874-.861 0-.546.255-1.104 1.153-1.335l.959-.255Zm0 2.245c.072.376.194.704.813.704.46 0 .897-.206 1.152-.45-.024-.145-.073-.242-.206-.327-.097.085-.303.194-.449.194-.352 0-.364-.473-.364-1.031V5.193c0-1.723-.946-2.05-1.832-2.05-.995 0-2.002.655-2.002 1.347 0 .29.145.436.425.436.351 0 .57-.254.57-.412a.546.546 0 0 0-.037-.219.839.839 0 0 1-.024-.242c0-.376.51-.51.97-.51.413 0 .984.206.984 1.578 0 .084-.037.133-.073.145l-1.044.255c-1.164.291-2.002.934-2.002 1.76 0 .994.68 1.31 1.53 1.31.412 0 .788-.097 1.322-.51l.242-.194h.025Zm-11.779-.898c0 1.007-.133 1.056-.812 1.104-.073.073-.073.328 0 .4.4-.011.812-.024 1.298-.024.425 0 .825.013 1.104.025.073-.073.073-.328 0-.4-.498-.05-.631-.098-.631-1.105V5.946c.23 0 .4.024.522.06.133.085.242.194.388.389l.886 1.189c.352.485.485.716.51.849 0 .036.012.06.048.06a15.52 15.52 0 0 1 1.747 0c.073-.072.073-.327 0-.4-.412-.048-.728-.097-1.043-.51L34.114 5.57c-.048-.048-.085-.109-.085-.17 0-.048 0-.072.049-.12l1.067-1.105c.364-.388.79-.485 1.274-.534.073-.072.073-.327 0-.4-.279.012-.618.024-1.055.024-.461 0-.91-.012-1.19-.024-.072.073-.072.327 0 .4.68.049.389.486.28.62-.28.351-.668.763-.97.994-.28.206-.608.352-.826.376V1.396c0-.79.049-1.275.049-1.275 0-.084-.049-.12-.158-.12-.304.12-1.214.29-1.699.327-.024.097 0 .291.073.364.63.036.776-.024.776.995v5.302Zm-3.033-1.347v1.602c0 .158-.073.243-.17.315-.316.255-.728.534-1.068.534-.607 0-.874-.485-.874-.861 0-.546.255-1.104 1.153-1.335l.959-.255Zm0 2.245c.072.376.194.704.813.704.46 0 .897-.206 1.152-.45-.024-.145-.072-.242-.206-.327-.097.085-.303.194-.449.194-.352 0-.364-.473-.364-1.031V5.193c0-1.723-.946-2.05-1.832-2.05-.995 0-2.002.655-2.002 1.347 0 .29.146.436.425.436.351 0 .57-.254.57-.412a.546.546 0 0 0-.037-.219.839.839 0 0 1-.024-.242c0-.376.51-.51.97-.51.413 0 .984.206.984 1.578 0 .084-.037.133-.073.145l-1.044.255c-1.164.291-2.002.934-2.002 1.76 0 .994.68 1.31 1.53 1.31.412 0 .788-.097 1.322-.51l.243-.194h.024Zm-7.369.704c.474 0 1.044-.243 1.639-.728.06-.049.17-.073.182.012.024.315.133.716.133.716.097.036.146.036.23 0 .268-.219.692-.4 1.432-.486.073-.072.073-.254 0-.327-.776-.06-.885-.291-.885-.886v-2.33c0-.364.048-1.25.048-1.25 0-.036-.036-.072-.097-.072-.06.012-.243.024-.425.024-.388 0-.825-.012-1.237-.024-.073.073-.073.328 0 .4.594.037.752.182.752.983v2.342c0 .23-.024.328-.194.473-.45.388-.91.583-1.214.583-.364 0-.97-.17-.97-1.25V4.563c0-.364.048-1.25.048-1.25 0-.037-.036-.073-.097-.073-.06.012-.242.024-.424.024-.389 0-.826-.012-1.238-.024-.073.073-.073.328 0 .4.582.049.752.182.752.971v2.33c0 .837.364 1.65 1.565 1.65Zm-6.493-4.526c.315-.28.68-.388 1.031-.388.74 0 1.347.897 1.347 2.074 0 1.384-.558 2.427-1.711 2.427-.376 0-.63-.267-.874-.57V4.574c0-.254.049-.364.207-.51Zm-.085-.376c-.085.073-.122.048-.122-.061V1.395c0-.788.049-1.274.049-1.274 0-.085-.049-.121-.158-.121-.303.121-1.213.291-1.699.328-.024.097 0 .29.073.364.631.036.777-.025.777.995v5.92c0 .474-.012.692-.049.862.06.097.122.146.267.146.073-.06.194-.182.28-.291.133-.146.206-.146.339-.025.267.231.631.292 1.068.292 1.237 0 2.681-1.129 2.681-3.058 0-1.48-1.092-2.39-2.147-2.39-.522 0-.983.206-1.36.546ZM8.879 8.59c.474 0 1.044-.243 1.639-.728.06-.049.17-.073.182.012.024.315.133.716.133.716.097.036.146.036.23 0 .268-.219.692-.4 1.432-.486.073-.072.073-.254 0-.327-.776-.06-.885-.291-.885-.886v-2.33c0-.364.048-1.25.048-1.25 0-.036-.036-.072-.097-.072-.06.012-.243.024-.425.024-.388 0-.825-.012-1.237-.024-.073.073-.073.327 0 .4.594.037.752.182.752.983v2.342c0 .23-.024.328-.194.473-.45.388-.91.583-1.214.583-.364 0-.97-.17-.97-1.25V4.563c0-.364.048-1.25.048-1.25 0-.037-.036-.073-.097-.073-.06.012-.242.024-.425.024-.388 0-.825-.012-1.237-.024-.073.073-.073.328 0 .4.582.049.752.182.752.971v2.33c0 .837.364 1.65 1.565 1.65Zm-7.247-.122h2.572c.34 0 1.456.025 1.456.025a27.13 27.13 0 0 0 .316-2.027.872.872 0 0 0-.4-.06c-.243.873-.692 1.59-1.978 1.59h-.765c-.473 0-.691-.231-.691-.85V2.123c0-1.007.206-1.067 1.055-1.104.073-.073.073-.327 0-.4C2.651.63 2.081.643 1.62.643 1.17.643.613.631.055.62c-.073.073-.073.327 0 .4.849.037 1.055.097 1.055 1.104V6.99c0 1.007-.206 1.068-1.055 1.104-.073.073-.073.328 0 .4a73.734 73.734 0 0 1 1.577-.024Z"/></svg>