<?xml version="1.0" encoding="UTF-8"?>
<svg id="Layer_2" data-name="Layer 2" xmlns="http://www.w3.org/2000/svg" viewBox="0 0 126.41 20.42">
  <defs>
    <style>
      .cls-1 {
        fill-rule: evenodd;
        stroke-width: 0px;
      }
    </style>
  </defs>
  <g id="svg3857">
    <g id="g3">
      <path id="text2" class="cls-1" d="m11.57,8.42c1.19.25,2.08.66,2.68,1.22.82.78,1.23,1.73,1.23,2.85,0,.85-.27,1.67-.81,2.46-.54.78-1.29,1.35-2.23,1.71-.94.36-2.38.53-4.31.53H0v-.47h.65c.72,0,1.23-.23,1.55-.68.19-.3.29-.93.29-1.89V3.04c0-1.07-.12-1.74-.37-2.02-.33-.37-.82-.56-1.47-.56h-.65V0h7.43C8.82,0,9.93.1,10.77.3c1.27.3,2.24.85,2.9,1.62.67.77,1,1.66,1,2.66,0,.86-.26,1.64-.79,2.32-.52.68-1.3,1.18-2.32,1.51h0Zm-6.65-.68c.31.06.67.11,1.07.14.41.03.85.04,1.33.04,1.23,0,2.16-.13,2.78-.39.63-.27,1.1-.68,1.43-1.23.33-.55.49-1.15.49-1.8,0-1.01-.41-1.86-1.23-2.57-.82-.71-2.02-1.07-3.59-1.07-.85,0-1.61.09-2.28.28v6.61Zm0,8.22c.98.23,1.95.34,2.9.34,1.53,0,2.7-.34,3.5-1.03.8-.69,1.2-1.55,1.2-2.56,0-.67-.18-1.31-.55-1.93-.36-.62-.96-1.1-1.78-1.46-.82-.36-1.83-.53-3.04-.53-.52,0-.97,0-1.34.03-.37.02-.67.05-.9.09v7.05Zm16.41-2.33l5.02-5.81c-.02-.65-.14-1.1-.37-1.36-.23-.25-.62-.38-1.18-.39v-.48h5.4v.48c-.57,0-.95.06-1.14.18-.19.11-.35.25-.46.42-.11.17-.16.72-.16,1.65v6.16c0,.9.05,1.43.14,1.61.09.17.24.32.43.46.2.13.6.19,1.19.19v.47h-5.62v-.47c.7,0,1.17-.13,1.41-.38.24-.26.36-.89.36-1.88v-5.47l-5.02,5.82c.02.72.12,1.21.3,1.48.19.27.59.41,1.2.42v.47h-5.37v-.47c.75,0,1.23-.14,1.45-.41.21-.28.32-.9.32-1.85v-6.16c0-.9-.05-1.44-.14-1.6-.09-.17-.24-.32-.43-.44-.19-.14-.59-.2-1.19-.2v-.48h5.62v.48c-.57,0-.95.06-1.14.18-.19.11-.35.25-.46.42-.11.17-.16.72-.16,1.65v5.31Zm21.93,3.58h-3.42c-1.07-1.55-2.03-3.13-2.89-4.76-.2-.37-.39-.65-.56-.82-.16-.19-.38-.28-.67-.28-.1,0-.26,0-.48.03v3.11c0,.84.05,1.37.14,1.61.1.23.28.39.53.49.25.1.68.15,1.28.15v.47h-5.81v-.47c.75,0,1.23-.14,1.45-.41.21-.28.32-.9.32-1.85v-6.16c0-.9-.05-1.44-.14-1.6-.09-.17-.24-.32-.43-.44-.19-.14-.59-.2-1.19-.2v-.48h5.81v.48c-.7,0-1.14.05-1.31.15-.16.1-.31.23-.44.38-.14.14-.2.71-.2,1.71v2.28c.19.02.33.03.39.03.52,0,1-.14,1.45-.43.46-.3.86-.92,1.22-1.86.33-.9.6-1.5.81-1.81.22-.31.52-.57.9-.76.39-.2.79-.3,1.22-.3.46,0,.82.11,1.09.33.27.22.41.51.41.86,0,.3-.1.55-.29.76-.19.2-.47.3-.81.3-.19,0-.42-.05-.7-.15-.36-.13-.63-.19-.81-.19-.39,0-.71.33-.96,1-.29.77-.5,1.27-.63,1.5-.14.22-.39.52-.77.89.26.08.55.27.85.58.31.31.89,1.2,1.73,2.68.67,1.18,1.17,1.92,1.5,2.23.34.31.82.48,1.46.49v.47Zm4.59-3.58l5.02-5.81c-.02-.65-.14-1.1-.37-1.36-.23-.25-.62-.38-1.18-.39v-.48h5.4v.48c-.57,0-.95.06-1.14.18-.19.11-.35.25-.46.42-.11.17-.16.72-.16,1.65v6.16c0,.9.05,1.43.14,1.61.09.17.24.32.43.46.2.13.6.19,1.19.19v.47h-5.62v-.47c.7,0,1.17-.13,1.41-.38.24-.26.36-.89.36-1.88v-5.47l-5.02,5.82c.02.72.12,1.21.3,1.48.19.27.59.41,1.2.42v.47h-5.37v-.47c.75,0,1.23-.14,1.45-.41.21-.28.32-.9.32-1.85v-6.16c0-.9-.05-1.44-.14-1.6-.09-.17-.24-.32-.43-.44-.19-.14-.59-.2-1.19-.2v-.48h5.62v.48c-.57,0-.95.06-1.14.18-.19.11-.35.25-.46.42-.11.17-.16.72-.16,1.65v5.31Zm18.92-7.22h-5.02v8.07c0,.9.05,1.43.14,1.61.09.17.24.32.43.46.2.13.6.19,1.19.19v.47h-5.62v-.47c.75,0,1.23-.14,1.45-.41.21-.28.32-.9.32-1.85v-6.16c0-.9-.05-1.44-.14-1.6-.09-.17-.24-.32-.43-.44-.19-.14-.59-.2-1.19-.2v-.48h12.73v.48c-.57,0-.95.06-1.14.18-.19.11-.35.25-.46.42-.11.17-.16.72-.16,1.65v6.16c0,.9.05,1.43.14,1.61.09.17.24.32.43.46.2.13.6.19,1.19.19v.47h-5.62v-.47c.7,0,1.17-.13,1.41-.38.24-.26.36-.89.36-1.88V6.41Zm7.2,3.55c0,1.73.41,3.08,1.26,4.06.85.98,1.84,1.47,2.98,1.47.76,0,1.42-.21,1.98-.62.57-.42,1.04-1.14,1.42-2.16l.39.25c-.18,1.16-.69,2.22-1.55,3.17-.85.95-1.92,1.42-3.21,1.42-1.4,0-2.59-.54-3.59-1.62-.99-1.09-1.48-2.55-1.48-4.39,0-1.99.51-3.53,1.52-4.64,1.02-1.12,2.3-1.67,3.84-1.67,1.3,0,2.37.43,3.21,1.29.84.85,1.26,2,1.26,3.44h-8.03Zm0-.74h5.38c-.04-.74-.13-1.27-.27-1.57-.21-.47-.53-.85-.95-1.12-.41-.27-.85-.41-1.31-.41-.7,0-1.33.27-1.89.82-.55.54-.87,1.3-.96,2.27Zm10.82-3.64h10.25v.48c-.57,0-.96.06-1.15.18-.19.11-.33.25-.44.42-.11.17-.16.72-.16,1.65v5.75c0,1.21.1,1.95.3,2.23.21.27.7.42,1.46.44v3.69h-.48c-.03-.69-.21-1.3-.52-1.81-.3-.52-.73-.88-1.28-1.09-.55-.21-1.36-.32-2.44-.32h-2.99c-.93,0-1.66.08-2.18.24-.52.17-.96.52-1.32,1.04-.35.52-.56,1.17-.63,1.94h-.47v-3.69c.69-.03,1.32-.3,1.89-.82.57-.52,1.07-1.55,1.5-3.08.43-1.53.65-3.04.65-4.52,0-1.45-.66-2.2-1.97-2.25v-.48Zm2.8.82v.7c0,4.15-.75,7.24-2.26,9.27h4.31c.78,0,1.23-.06,1.34-.19.12-.14.18-.62.18-1.46V6.41h-3.58Zm12.46,7.22l5.02-5.81c-.02-.65-.14-1.1-.37-1.36-.23-.25-.62-.38-1.18-.39v-.48h5.4v.48c-.57,0-.95.06-1.14.18-.19.11-.35.25-.46.42-.11.17-.16.72-.16,1.65v6.16c0,.9.05,1.43.14,1.61.09.17.24.32.43.46.2.13.6.19,1.19.19v.47h-5.62v-.47c.7,0,1.17-.13,1.41-.38.24-.26.36-.89.36-1.88v-5.47l-5.02,5.82c.02.72.12,1.21.3,1.48.19.27.59.41,1.2.42v.47h-5.37v-.47c.75,0,1.23-.14,1.45-.41.21-.28.32-.9.32-1.85v-6.16c0-.9-.05-1.44-.14-1.6-.09-.17-.24-.32-.43-.44-.19-.14-.59-.2-1.19-.2v-.48h5.62v.48c-.57,0-.95.06-1.14.18-.19.11-.35.25-.46.42-.11.17-.16.72-.16,1.65v5.31Zm9.23,3.58h4.59l5.82-8.04c.43.02.78.03,1.05.03h.36c.13,0,.26-.02.39-.03v5c0,1.08-.12,1.75-.36,2.02-.32.37-.8.56-1.45.56h-.67v.47h7.37v-.47h-.65c-.73,0-1.25-.24-1.56-.71-.18-.26-.27-.88-.27-1.86V3.04c0-1.08.12-1.75.36-2.02.33-.37.82-.56,1.47-.56h.65v-.47h-6.27c-1.83,0-3.18.14-4.05.41-.86.26-1.6.75-2.21,1.47-.6.71-.9,1.56-.9,2.55,0,1.06.34,1.97,1.03,2.75.69.78,1.76,1.33,3.21,1.65l-3.55,4.93c-.81,1.13-1.51,1.89-2.09,2.26s-1.34.61-2.28.71v.47Zm12.21-8.84c-.16,0-.3,0-.42.01h-.29c-1.64,0-2.88-.36-3.72-1.07-.83-.71-1.24-1.62-1.24-2.71,0-1.07.33-1.94,1-2.61s1.57-1.01,2.68-1.01c.49,0,1.15.08,1.99.24v7.15Z"/>
    </g>
  </g>
</svg>