<?xml version="1.0" encoding="UTF-8"?>
<svg width="119px" height="13px" viewBox="0 0 119 13" version="1.1" xmlns="http://www.w3.org/2000/svg" xmlns:xlink="http://www.w3.org/1999/xlink">
    <title>nap-tagline</title>
    <g id="Page-1" stroke="none" stroke-width="1" fill="none" fill-rule="evenodd">
        <path d="M1.7485,9.074 L4.5045004,9.074 C4.8684994,9.074 6.0645004,9.1 6.0645004,9.1 C6.1944994,8.45 6.3245004,7.605 6.4025004,6.929 C6.2725004,6.877 6.1294994,6.851 5.9735004,6.864 C5.7135004,7.8 5.3624994,8.567 4.3745004,8.567 L2.9055004,8.567 C2.5285004,8.567 2.2945004,8.32 2.2945004,7.917 L2.2945004,2.275 C2.2945004,1.196 2.5155014,1.131 3.4255004,1.092 C3.5035004,1.014 3.5035004,0.741 3.4255004,0.663 C2.7885004,0.676 2.3984994,0.689 1.7355,0.689 C1.0855007,0.689 0.7084994,0.676 0.0585,0.663 C-0.0195,0.741 -0.0195,1.014 0.0585,1.092 C0.9684991,1.131 1.1895,1.196 1.1895,2.275 L1.1895,7.488 C1.1895,8.567 0.9684991,8.632 0.0585,8.671 C-0.0195,8.749 -0.0195,9.022 0.0585,9.1 C0.6954994,9.087 1.7485,9.074 1.7485,9.074 M7.8945784,3.536 L8.2455784,3.484 C8.2455784,3.484 8.6745784,1.339 8.6745784,1.131 C8.6745784,0.923 8.5575774,0.702 8.2195784,0.702 C7.8295784,0.702 7.5565784,1.066 7.5565784,1.352 C7.5565784,1.469 7.8945784,3.536 7.8945784,3.536 M10.8377804,5.408 C11.0847804,3.939 11.9947814,3.822 12.3067804,3.822 C12.8007804,3.822 13.3857804,4.095 13.3857804,5.187 C13.3857804,5.304 13.3337804,5.369 13.1907804,5.369 L10.8377804,5.408 M14.2437804,7.865 C13.7627814,8.359 13.3857804,8.567 12.6317804,8.567 C12.1637814,8.567 11.6177804,8.294 11.2147804,7.631 C10.9547814,7.202 10.7987804,6.604 10.7987804,5.85 L14.2567804,5.876 C14.4127804,5.876 14.5037804,5.798 14.5037804,5.655 C14.5037804,4.563 14.1137794,3.393 12.3067804,3.393 C11.1757824,3.393 9.7067804,4.472 9.7067804,6.448 C9.7067804,7.176 9.8887814,7.878 10.3177804,8.372 C10.7597804,8.892 11.3707814,9.204 12.3067804,9.204 C13.2947804,9.204 13.9967814,8.749 14.5167804,8.073 C14.4777804,7.943 14.3997804,7.878 14.2437804,7.865 M17.6322344,4.42 C17.5932344,4.472 17.5022344,4.602 17.5022344,4.42 C17.5022344,4.03 17.5672344,3.432 17.5672344,3.432 C17.5672344,3.367 17.5152344,3.328 17.4112344,3.328 C17.0472354,3.471 16.5142334,3.588 15.6172344,3.705 C15.5912344,3.783 15.6172344,3.991 15.6432344,4.069 C16.3452344,4.134 16.4882344,4.199 16.4882344,4.953 L16.4882344,7.488 C16.4882344,8.554 16.3582344,8.606 15.5782344,8.671 C15.5002344,8.749 15.5002344,9.022 15.5782344,9.1 C16.1112344,9.087 16.4492354,9.074 17.0082344,9.074 C17.5152344,9.074 17.7492354,9.087 18.2952344,9.1 C18.3732344,9.022 18.3732344,8.749 18.2952344,8.671 C17.6322354,8.606 17.5152344,8.554 17.5152344,7.488 L17.5152344,5.356 C17.5152344,5.083 17.6322344,4.927 17.7362344,4.81 C18.2302344,4.329 18.7372354,4.043 19.2442344,4.043 C19.5042344,4.043 19.7772354,4.212 19.9332344,4.511 C20.0632344,4.771 20.0892344,5.122 20.0892344,5.512 L20.0892344,7.488 C20.0892344,8.554 19.9592344,8.606 19.2832344,8.671 C19.2182344,8.749 19.2182344,9.022 19.2832344,9.1 C19.8292344,9.087 20.0892354,9.074 20.6092344,9.074 C21.1422344,9.074 21.4282354,9.087 21.9872344,9.1 C22.0522344,9.022 22.0522344,8.749 21.9872344,8.671 C21.2592354,8.606 21.1162344,8.554 21.1162344,7.488 L21.1162344,5.551 C21.1162344,4.836 21.0642344,4.212 20.7652344,3.809 C20.5442354,3.523 20.1412344,3.367 19.6862344,3.367 C19.0492354,3.367 18.4252344,3.536 17.6322344,4.42 M27.5712644,7.891 C27.5192644,7.774 27.4152644,7.722 27.2982644,7.709 C26.8562654,8.281 26.2972644,8.567 25.7382644,8.567 C24.7892654,8.567 23.9962644,7.605 23.9962644,6.084 C23.9962644,4.654 24.6202654,3.796 25.4782644,3.796 C26.2452644,3.796 26.3492654,4.251 26.4012644,4.706 C26.4402644,5.057 26.6222654,5.174 26.8952644,5.174 C27.1682644,5.174 27.5322644,5.005 27.5322644,4.602 C27.5322644,3.887 26.7912634,3.367 25.5432644,3.367 C24.2562664,3.367 22.8782644,4.524 22.8782644,6.37 C22.8782644,8.047 23.8142664,9.204 25.4522644,9.204 C26.2322644,9.204 26.9212654,8.957 27.5712644,7.891 M29.2770314,1.287 C29.2770314,1.625 29.5890314,1.963 29.9010314,1.963 C30.2650314,1.963 30.5770314,1.625 30.5770314,1.339 C30.5770314,1.027 30.3040314,0.663 29.9530314,0.663 C29.6410314,0.663 29.2770314,0.975 29.2770314,1.287 M30.4600314,7.488 L30.4600314,4.901 C30.4600314,4.251 30.5120314,3.419 30.5120314,3.419 C30.5120314,3.367 30.4470314,3.328 30.3430314,3.328 C29.9660314,3.471 29.4590304,3.588 28.5620314,3.705 C28.5360314,3.783 28.5620314,3.991 28.5880314,4.069 C29.2900304,4.147 29.4330314,4.212 29.4330314,4.953 L29.4330314,7.488 C29.4330314,8.567 29.2900304,8.606 28.4970314,8.671 C28.4190314,8.749 28.4190314,9.022 28.4970314,9.1 C29.0430304,9.087 29.3810314,9.074 29.9530314,9.074 C30.5120304,9.074 30.8370314,9.087 31.3960314,9.1 C31.4740314,9.022 31.4740314,8.749 31.3960314,8.671 C30.6030324,8.619 30.4600314,8.567 30.4600314,7.488 M37.0103294,7.891 C36.9583294,7.774 36.8543284,7.722 36.7373294,7.709 C36.2953294,8.281 35.7363284,8.567 35.1773294,8.567 C34.2283294,8.567 33.4353294,7.605 33.4353294,6.084 C33.4353294,4.654 34.0593294,3.796 34.9173294,3.796 C35.6843284,3.796 35.7883294,4.251 35.8403294,4.706 C35.8793294,5.057 36.0613294,5.174 36.3343294,5.174 C36.6073284,5.174 36.9713294,5.005 36.9713294,4.602 C36.9713294,3.887 36.2303274,3.367 34.9823294,3.367 C33.6953304,3.367 32.3173294,4.524 32.3173294,6.37 C32.3173294,8.047 33.2533304,9.204 34.8913294,9.204 C35.6713284,9.204 36.3603294,8.957 37.0103294,7.891 M38.7810954,7.488 C38.7810954,8.567 38.6380944,8.632 37.8450954,8.671 C37.7670954,8.749 37.7670954,9.022 37.8450954,9.1 C38.3910944,9.087 38.7290954,9.074 39.3010954,9.074 C39.8600944,9.074 40.1850954,9.087 40.7440954,9.1 C40.8220954,9.022 40.8220954,8.749 40.7440954,8.671 C39.9510964,8.632 39.8080954,8.567 39.8080954,7.488 L39.8080954,1.495 C39.8080954,0.65 39.8600954,0.13 39.8600954,0.13 C39.8600954,0.039 39.8080954,5.68434189e-14 39.6910954,5.68434189e-14 C39.3660954,0.13 38.3910944,0.312 37.8710954,0.351 C37.8450954,0.455 37.8710954,0.663 37.9490954,0.741 C38.6250944,0.78 38.7810954,0.715 38.7810954,1.807 L38.7810954,7.488 M41.7068264,6.409 C41.7068264,7.735 42.6038284,9.204 44.4368264,9.204 C46.3738244,9.204 47.1928264,7.592 47.1928264,6.292 C47.1928264,4.94 46.4778244,3.367 44.4628264,3.367 C42.7078284,3.367 41.7068264,4.758 41.7068264,6.409 M44.3198264,3.796 C45.4378254,3.796 46.0748264,4.797 46.0748264,6.708 C46.0748264,8.424 45.2818264,8.775 44.6708264,8.775 C43.3188284,8.775 42.8248264,7.111 42.8248264,6.11 C42.8248264,4.979 43.2278274,3.796 44.3198264,3.796 M50.1996084,4.719 C50.6026084,4.303 51.1226094,3.965 51.5126084,3.965 C52.3446074,3.965 53.0596084,4.901 53.0596084,6.37 C53.0596084,7.436 52.6826074,8.762 51.2266084,8.762 C50.9926084,8.762 50.5376084,8.697 50.3036084,8.489 C50.0306094,8.255 49.9916084,8.19 49.9916084,7.709 L49.9916084,5.291 C49.9916084,5.018 50.0306084,4.901 50.1996084,4.719 M50.0956084,4.29 C50.0436084,4.342 49.9656084,4.355 49.9656084,4.251 C49.9656084,3.783 50.0176084,3.419 50.0176084,3.419 C50.0176084,3.367 49.9526084,3.328 49.8486084,3.328 C49.4846094,3.471 48.9906074,3.588 48.0936084,3.705 C48.0676084,3.783 48.0936084,3.991 48.1196084,4.069 C48.8216084,4.134 48.9646084,4.212 48.9646084,4.953 L48.9646084,10.504 C48.9646084,11.583 48.8216074,11.648 48.0286084,11.687 C47.9506084,11.765 47.9506084,12.038 48.0286084,12.116 C48.5746084,12.103 48.9126094,12.09 49.4846084,12.09 C50.0956084,12.09 50.4986094,12.103 51.0576084,12.116 C51.1356084,12.038 51.1356084,11.765 51.0576084,11.687 C50.1346094,11.635 49.9916084,11.583 49.9916084,10.504 L49.9916084,9.1 C49.9916084,8.931 50.0306084,8.957 50.1736084,9.009 C50.4856084,9.139 50.8886094,9.204 51.3046084,9.204 C52.0326084,9.204 52.6826094,8.983 53.2156084,8.476 C53.8266084,7.878 54.1776084,7.072 54.1776084,6.019 C54.1776084,4.641 53.2026074,3.367 51.8766084,3.367 C51.3956094,3.367 50.6806084,3.692 50.0956084,4.29 M56.5920784,5.408 C56.8390784,3.939 57.7490784,3.822 58.0610784,3.822 C58.5550774,3.822 59.1400784,4.095 59.1400784,5.187 C59.1400784,5.304 59.0880784,5.369 58.9450784,5.369 L56.5920784,5.408 M59.9980784,7.865 C59.5170784,8.359 59.1400774,8.567 58.3860784,8.567 C57.9180784,8.567 57.3720774,8.294 56.9690784,7.631 C56.7090784,7.202 56.5530784,6.604 56.5530784,5.85 L60.0110784,5.876 C60.1670784,5.876 60.2580784,5.798 60.2580784,5.655 C60.2580784,4.563 59.8680764,3.393 58.0610784,3.393 C56.9300794,3.393 55.4610784,4.472 55.4610784,6.448 C55.4610784,7.176 55.6430784,7.878 56.0720784,8.372 C56.5140774,8.892 57.1250794,9.204 58.0610784,9.204 C59.0490774,9.204 59.7510784,8.749 60.2710784,8.073 C60.2320784,7.943 60.1540784,7.878 59.9980784,7.865 M65.5557044,7.462 C65.5557044,7.709 65.5297044,7.813 65.3477044,7.969 C64.8667044,8.385 64.4507034,8.593 64.1257044,8.593 C63.4237044,8.593 62.6957044,7.826 62.6957044,6.201 C62.6957044,5.265 62.8777044,4.745 63.0727044,4.472 C63.4757034,3.861 64.0217044,3.822 64.2817044,3.822 C64.7497034,3.822 65.0747044,3.991 65.3347044,4.29 C65.5167034,4.498 65.5557044,4.589 65.5557044,4.992 L65.5557044,7.462 M65.4127044,8.424 C65.4647044,8.372 65.5687044,8.346 65.5687044,8.437 C65.5687044,8.749 65.7117044,9.204 65.7117044,9.204 C65.8157034,9.243 65.8547044,9.23 65.9587044,9.204 C66.2447034,8.97 66.7387044,8.775 67.5317044,8.684 C67.6097044,8.606 67.6097044,8.411 67.5317044,8.333 C66.6997044,8.268 66.5827044,8.021 66.5827044,7.384 L66.5827044,1.495 C66.5827044,0.65 66.6347044,0.13 66.6347044,0.13 C66.6347044,0.039 66.5827044,0 66.4657044,0 C66.1407044,0.13 65.1657034,0.312 64.6457044,0.351 C64.6197044,0.455 64.6457044,0.663 64.7237044,0.741 C65.3997034,0.78 65.5557044,0.715 65.5557044,1.807 L65.5557044,3.471 C65.5557044,3.562 65.5297044,3.588 65.4387044,3.588 C65.3867044,3.588 64.8537034,3.367 64.4247044,3.367 C63.5667044,3.367 62.9947034,3.653 62.4747044,4.147 C61.9157044,4.706 61.5777044,5.473 61.5777044,6.435 C61.5777044,8.034 62.3837054,9.204 63.7877044,9.204 C64.2947034,9.204 64.7757044,8.944 65.4127044,8.424 M69.9658764,0.351 L68.9778764,1.898 C68.8738764,2.067 68.8348764,2.119 68.8348764,2.262 C68.8348764,2.353 68.9258764,2.431 69.0168764,2.431 C69.1078764,2.431 69.2118764,2.379 69.4068764,2.184 L70.9018764,0.767 L70.8628764,0.624 C70.5638764,0.338 70.2258764,0.325 70.1478764,0.325 C70.0828764,0.325 70.0048764,0.338 69.9658764,0.351 M70.1998764,7.488 L70.1998764,4.901 C70.1998764,4.251 70.2518764,3.419 70.2518764,3.419 C70.2518764,3.367 70.1868764,3.328 70.0828764,3.328 C69.7058774,3.471 69.1988754,3.588 68.3018764,3.705 C68.2758764,3.783 68.3018764,3.991 68.3278764,4.069 C69.0298754,4.147 69.1728764,4.212 69.1728764,4.953 L69.1728764,7.488 C69.1728764,8.567 69.0298754,8.606 68.2368764,8.671 C68.1588764,8.749 68.1588764,9.022 68.2368764,9.1 C68.7828764,9.087 69.1208774,9.074 69.6928764,9.074 C70.2518764,9.074 70.5768774,9.087 71.1358764,9.1 C71.2138764,9.022 71.2138764,8.749 71.1358764,8.671 C70.3428774,8.619 70.1998764,8.567 70.1998764,7.488 M75.3851704,6.045 L75.3851704,7.774 C75.3851704,7.943 75.3071704,8.034 75.2031704,8.112 C74.8651704,8.385 74.4231704,8.671 74.0591704,8.671 C73.4091714,8.671 73.1231704,8.151 73.1231704,7.748 C73.1231704,7.163 73.3961714,6.578 74.3581704,6.318 L75.3851704,6.045 M75.3851704,8.45 C75.4631704,8.723 75.6841714,9.204 76.3861704,9.204 C77.0231694,9.204 77.4911704,8.684 77.4911704,8.619 C77.4911704,8.528 77.3741704,8.398 77.3221704,8.398 C77.2441704,8.398 77.1921704,8.606 76.9191704,8.606 C76.4121704,8.606 76.3991704,8.099 76.3991704,7.501 L76.3991704,5.564 C76.3991704,3.718 75.3851694,3.367 74.4361704,3.367 C73.3701714,3.367 72.2911704,4.108 72.2911704,4.81 C72.2911704,5.122 72.4471704,5.265 72.7461704,5.265 C73.1231704,5.265 73.3181704,5.005 73.3181704,4.836 C73.3181704,4.745 73.3051704,4.654 73.2791704,4.602 C73.2661704,4.563 73.2531704,4.485 73.2531704,4.342 C73.2531704,3.939 73.8381704,3.796 74.3321704,3.796 C74.7741704,3.796 75.3851704,4.017 75.3851704,5.486 C75.3851704,5.577 75.3461704,5.629 75.3071704,5.642 L74.1891704,5.915 C72.9411714,6.227 72.0441704,6.916 72.0441704,7.8 C72.0441704,8.827 72.7721714,9.204 73.6821704,9.204 C74.2801694,9.204 74.5271714,9.1 75.0991704,8.658 L75.3591704,8.45 L75.3851704,8.45 M82.4025784,7.488 C82.4025784,8.567 82.2595774,8.632 81.4665784,8.671 C81.3885784,8.749 81.3885784,9.022 81.4665784,9.1 C82.0125774,9.087 82.3505784,9.074 82.9225784,9.074 C83.4815774,9.074 83.8065784,9.087 84.3655784,9.1 C84.4435784,9.022 84.4435784,8.749 84.3655784,8.671 C83.5725794,8.632 83.4295784,8.567 83.4295784,7.488 L83.4295784,1.495 C83.4295784,0.65 83.4815784,0.13 83.4815784,0.13 C83.4815784,0.039 83.4295784,5.68434189e-14 83.3125784,5.68434189e-14 C82.9875784,0.13 82.0125774,0.312 81.4925784,0.351 C81.4665784,0.455 81.4925784,0.663 81.5705784,0.741 C82.2465774,0.78 82.4025784,0.715 82.4025784,1.807 L82.4025784,7.488 M86.9143094,0.351 L85.9263094,1.898 C85.8223094,2.067 85.7833094,2.119 85.7833094,2.262 C85.7833094,2.353 85.8743094,2.431 85.9653094,2.431 C86.0563094,2.431 86.1603094,2.379 86.3553094,2.184 L87.8503094,0.767 L87.8113094,0.624 C87.5123094,0.338 87.1743094,0.325 87.0963094,0.325 C87.0313094,0.325 86.9533094,0.338 86.9143094,0.351 M87.1483094,7.488 L87.1483094,4.901 C87.1483094,4.251 87.2003094,3.419 87.2003094,3.419 C87.2003094,3.367 87.1353094,3.328 87.0313094,3.328 C86.6543094,3.471 86.1473084,3.588 85.2503094,3.705 C85.2243094,3.783 85.2503094,3.991 85.2763094,4.069 C85.9783084,4.147 86.1213094,4.212 86.1213094,4.953 L86.1213094,7.488 C86.1213094,8.567 85.9783084,8.606 85.1853094,8.671 C85.1073094,8.749 85.1073094,9.022 85.1853094,9.1 C85.7313094,9.087 86.0693104,9.074 86.6413094,9.074 C87.2003094,9.074 87.5253104,9.087 88.0843094,9.1 C88.1623094,9.022 88.1623094,8.749 88.0843094,8.671 C87.2913104,8.619 87.1483094,8.567 87.1483094,7.488 M90.7866114,4.355 C91.1246104,4.056 91.5146114,3.939 91.8916114,3.939 C92.6846124,3.939 93.3346124,4.901 93.3346124,6.162 C93.3346124,7.644 92.7366124,8.762 91.5016114,8.762 C91.0986114,8.762 90.8256104,8.476 90.5656114,8.151 L90.5656114,4.901 C90.5656114,4.628 90.6176114,4.511 90.7866114,4.355 M90.6956114,3.952 C90.6046114,4.03 90.5656114,4.004 90.5656114,3.887 L90.5656114,1.495 C90.5656114,0.65 90.6176114,0.13 90.6176114,0.13 C90.6176114,0.039 90.5656114,1.13686838e-13 90.4486114,1.13686838e-13 C90.1236114,0.13 89.1486104,0.312 88.6286114,0.351 C88.6026114,0.455 88.6286114,0.663 88.7066114,0.741 C89.3826104,0.78 89.5386114,0.715 89.5386114,1.807 L89.5386114,8.151 C89.5386114,8.658 89.5256114,8.892 89.4866114,9.074 C89.5516114,9.178 89.6166114,9.23 89.7726114,9.23 C89.8506114,9.165 89.9806114,9.035 90.0716114,8.918 C90.2146104,8.762 90.2926114,8.762 90.4356114,8.892 C90.7216104,9.139 91.1116114,9.204 91.5796114,9.204 C92.9056124,9.204 94.4526124,7.995 94.4526124,5.928 C94.4526124,4.342 93.2826124,3.367 92.1516124,3.367 C91.5926114,3.367 91.0986104,3.588 90.6956114,3.952 M97.3850424,4.355 C97.7230424,4.056 98.1130424,3.939 98.4900424,3.939 C99.2830424,3.939 99.9330424,4.901 99.9330424,6.162 C99.9330424,7.644 99.3350424,8.762 98.1000424,8.762 C97.6970424,8.762 97.4240424,8.476 97.1640424,8.151 L97.1640424,4.901 C97.1640424,4.628 97.2160424,4.511 97.3850424,4.355 M97.2940424,3.952 C97.2030424,4.03 97.1640424,4.004 97.1640424,3.887 L97.1640424,1.495 C97.1640424,0.65 97.2160424,0.13 97.2160424,0.13 C97.2160424,0.039 97.1640424,1.13686838e-13 97.0470424,1.13686838e-13 C96.7220424,0.13 95.7470424,0.312 95.2270424,0.351 C95.2010424,0.455 95.2270424,0.663 95.3050424,0.741 C95.9810424,0.78 96.1370424,0.715 96.1370424,1.807 L96.1370424,8.151 C96.1370424,8.658 96.1240424,8.892 96.0850424,9.074 C96.1500424,9.178 96.2150424,9.23 96.3710424,9.23 C96.4490424,9.165 96.5790424,9.035 96.6700424,8.918 C96.8130424,8.762 96.8910424,8.762 97.0340424,8.892 C97.3200424,9.139 97.7100424,9.204 98.1780424,9.204 C99.5040424,9.204 101.051042,7.995 101.051042,5.928 C101.051042,4.342 99.8810424,3.367 98.7500424,3.367 C98.1910424,3.367 97.6970424,3.588 97.2940424,3.952 M103.409662,5.408 C103.656662,3.939 104.566662,3.822 104.878662,3.822 C105.372662,3.822 105.957662,4.095 105.957662,5.187 C105.957662,5.304 105.905662,5.369 105.762662,5.369 L103.409662,5.408 M106.815662,7.865 C106.334662,8.359 105.957662,8.567 105.203662,8.567 C104.735662,8.567 104.189662,8.294 103.786662,7.631 C103.526662,7.202 103.370662,6.604 103.370662,5.85 L106.828662,5.876 C106.984662,5.876 107.075662,5.798 107.075662,5.655 C107.075662,4.563 106.685662,3.393 104.878662,3.393 C103.747662,3.393 102.278662,4.472 102.278662,6.448 C102.278662,7.176 102.460662,7.878 102.889662,8.372 C103.331662,8.892 103.942662,9.204 104.878662,9.204 C105.866662,9.204 106.568662,8.749 107.088662,8.073 C107.049662,7.943 106.971662,7.878 106.815662,7.865 M109.112112,4.953 L109.112112,7.488 C109.112112,8.567 108.956112,8.619 108.150112,8.671 C108.072112,8.749 108.072112,9.022 108.150112,9.1 C108.696112,9.087 109.112112,9.074 109.632112,9.074 C110.165112,9.074 110.646112,9.087 111.205112,9.1 C111.283112,9.022 111.283112,8.749 111.205112,8.671 C110.295112,8.606 110.139112,8.567 110.139112,7.488 L110.139112,5.681 C110.139112,5.343 110.295112,5.044 110.451112,4.81 C110.594112,4.602 110.893112,4.173 111.049112,4.173 C111.140112,4.173 111.244112,4.186 111.322112,4.264 C111.452112,4.394 111.582112,4.641 111.855112,4.641 C112.167112,4.641 112.466112,4.316 112.466112,3.991 C112.466112,3.744 112.232112,3.367 111.686112,3.367 C111.075112,3.367 110.542112,3.939 110.243112,4.446 C110.165112,4.589 110.126112,4.524 110.126112,4.459 C110.126112,4.043 110.191112,3.419 110.191112,3.419 C110.191112,3.367 110.126112,3.328 110.022112,3.328 C109.658112,3.471 109.138112,3.588 108.241112,3.705 C108.215112,3.783 108.215112,3.991 108.267112,4.069 C108.969112,4.134 109.112112,4.238 109.112112,4.953 M116.645322,6.045 L116.645322,7.774 C116.645322,7.943 116.567322,8.034 116.463322,8.112 C116.125322,8.385 115.683322,8.671 115.319322,8.671 C114.669322,8.671 114.383322,8.151 114.383322,7.748 C114.383322,7.163 114.656322,6.578 115.618322,6.318 L116.645322,6.045 M116.645322,8.45 C116.723322,8.723 116.944322,9.204 117.646322,9.204 C118.283322,9.204 118.751322,8.684 118.751322,8.619 C118.751322,8.528 118.634322,8.398 118.582322,8.398 C118.504322,8.398 118.452322,8.606 118.179322,8.606 C117.672322,8.606 117.659322,8.099 117.659322,7.501 L117.659322,5.564 C117.659322,3.718 116.645322,3.367 115.696322,3.367 C114.630322,3.367 113.551322,4.108 113.551322,4.81 C113.551322,5.122 113.707322,5.265 114.006322,5.265 C114.383322,5.265 114.578322,5.005 114.578322,4.836 C114.578322,4.745 114.565322,4.654 114.539322,4.602 C114.526322,4.563 114.513322,4.485 114.513322,4.342 C114.513322,3.939 115.098322,3.796 115.592322,3.796 C116.034322,3.796 116.645322,4.017 116.645322,5.486 C116.645322,5.577 116.606322,5.629 116.567322,5.642 L115.449322,5.915 C114.201322,6.227 113.304322,6.916 113.304322,7.8 C113.304322,8.827 114.032322,9.204 114.942322,9.204 C115.540322,9.204 115.787322,9.1 116.359322,8.658 L116.619322,8.45 L116.645322,8.45" id="nap-tagline" fill="#000000" fill-rule="nonzero"></path>
    </g>
</svg>