<svg xmlns="http://www.w3.org/2000/svg" width="87" height="32" fill="none"><path fill="#000" d="M18.192 17.622c0 2.22-.439 4.033-1.315 5.436-1.11 1.87-2.66 2.805-4.647 2.805-1.958 0-3.434-.804-4.427-2.41a5.091 5.091 0 0 1-1.578 1.753c-.643.438-1.403.657-2.28.657-1.11 0-2.045-.438-2.805-1.315C.38 23.67 0 22.663 0 21.523c0-1.081.365-1.987 1.096-2.718.76-.73 1.68-1.095 2.762-1.095 1.227 0 2.147.277 2.761.832a6.775 6.775 0 0 1 1.578 1.842c.877.642 1.841.964 2.893.964 1.637 0 2.937-.54 3.902-1.622.993-1.081 1.49-2.41 1.49-3.989 0-2.25-.716-4.047-2.148-5.392-1.432-1.344-3.287-2.104-5.567-2.28.263.848.292 1.564.088 2.149a2.584 2.584 0 0 1-1.052 1.359c-.497.321-1.096.511-1.798.57a4.472 4.472 0 0 1-1.884-.22c-.819-.35-1.36-.862-1.622-1.534a2.823 2.823 0 0 1-.044-2.016c.263-.673.774-1.257 1.534-1.754.79-.497 1.812-.745 3.069-.745 1.753.03 3.316.35 4.69.964 1.373.614 2.528 1.447 3.463 2.499.964 1.023 1.695 2.25 2.192 3.682.526 1.432.789 2.966.789 4.603ZM7.627 9.293c0-.38-.087-.803-.263-1.271-.643-.263-1.212-.19-1.71.22-.467.379-.744.847-.832 1.402-.059.526.131.891.57 1.096.467.204.906.219 1.315.044.555-.234.862-.731.92-1.49ZM6.312 20.296c-.409-.965-1.198-1.432-2.367-1.403-.701 0-1.213.16-1.534.482-.321.293-.482.614-.482.965 0 .35.16.672.482.964.321.263.804.395 1.447.395.555 0 1.08-.132 1.578-.395.526-.263.818-.599.876-1.008ZM27.413 4.208c.03.088-.015.161-.132.22-.087.058-.219.116-.394.175-.175.029-.35.073-.526.131-.176.03-.278.03-.307 0-.584-.467-.877-1.198-.877-2.192 0-.76.307-1.373.92-1.84A3.633 3.633 0 0 1 28.29 0c.702 0 1.36.22 1.973.658.614.438.935 1.008.965 1.71.087.613.029.978-.176 1.095-.204.088-.526.132-.964.132 0-.351-.175-.658-.526-.921-.35-.292-.702-.438-1.052-.438-.848 0-1.315.19-1.403.57-.088.38.015.847.307 1.402Zm1.052 5.655c-.292.175-.701.38-1.227.614-.526.204-.994.307-1.403.307a4.27 4.27 0 0 1-1.36-.22 5.884 5.884 0 0 1-1.227-.57 2.772 2.772 0 0 1-.92-.92c-.205-.38-.307-.848-.307-1.403 0-1.636.95-2.747 2.85-3.331.818-.263 1.724-.307 2.717-.132.994.146 1.856.453 2.586.92.643.41 1.126.965 1.447 1.667.35.672.526 1.27.526 1.797 0 1.753-.833 3.01-2.499 3.77-.993.409-1.943.643-2.849.701-.906.03-1.856-.088-2.85-.35a15.441 15.441 0 0 1-2.147-.746c-.672-.321-1.008-.672-1.008-1.052 0-.438.233-.657.701-.657.088 0 .395.131.92.394a14.37 14.37 0 0 0 1.798.701c.76.205 1.52.307 2.28.307.76 0 1.49-.19 2.191-.57a2.772 2.772 0 0 0 1.096-.92c.292-.41.438-.92.438-1.534 0-.41-.058-.877-.175-1.403a9.68 9.68 0 0 1-.35 1.227c-.147.41-.556.877-1.228 1.403Zm-2.63-2.85c-.322.176-.57.395-.745.658-.147.263-.22.526-.22.79a.84.84 0 0 0 .263.613c.205.175.526.22.965.131.701-.175 1.183-.555 1.446-1.14.263-.584.351-1.051.263-1.402-.818 0-1.476.117-1.972.35Zm7.452 14.51c0 .819-.22 1.505-.658 2.06-.409.527-.935.965-1.578 1.316-.643.35-1.33.599-2.06.745-.73.146-1.432.219-2.104.219-2.192 0-3.872-.438-5.041-1.315-1.14-.906-1.637-2.513-1.49-4.822h1.139c.146 1.344 1.841 2.017 5.085 2.017 2.952 0 4.427-.483 4.427-1.447 0-.35-.336-.628-1.008-.833-.643-.204-1.417-.365-2.323-.482a98.883 98.883 0 0 0-2.674-.395c-.848-.117-1.505-.248-1.973-.394-.76-.292-1.402-.643-1.928-1.052-.497-.41-.746-.994-.746-1.754 0-.701.22-1.285.658-1.753a5.47 5.47 0 0 1 1.71-1.14 8.707 8.707 0 0 1 2.104-.614 10.16 10.16 0 0 1 1.972-.219c1.257 0 2.47.278 3.639.833 1.402.672 2.279 1.578 2.63 2.718.058.292.029.526-.088.701-.088.146-.234.234-.438.263a1.52 1.52 0 0 1-.614-.044 1.072 1.072 0 0 1-.482-.394c-.556-.643-1.36-1.11-2.411-1.403a9.709 9.709 0 0 0-3.156-.35c-1.023.029-1.915.204-2.674.526-.76.321-1.14.76-1.14 1.315 0 .438.438.774 1.315 1.008.906.234 1.914.453 3.025.657.642.117 1.358.22 2.148.307a8.109 8.109 0 0 1 2.235.57c.73.263 1.33.628 1.797 1.096.468.468.702 1.154.702 2.06ZM53 17.096c0 2.075-.497 3.96-1.49 5.655-.556.964-1.243 1.724-2.06 2.28a4.534 4.534 0 0 1-2.675.832c-.643 0-1.242-.19-1.797-.57-.526-.38-1.008-.877-1.447-1.49l-1.797-3.332c-.321-.584-.716-1.037-1.184-1.359-.467-.321-.92-.482-1.358-.482-.41-.03-.775.088-1.096.35-.292.264-.439.673-.439 1.228 0 .643.497 1.461 1.49 2.455.994.994 1.491 1.447 1.491 1.359 0 .76-.321 1.315-.964 1.666-.614.321-1.228.292-1.841-.088-1.55-.994-2.324-2.44-2.324-4.34 0-1.11.322-2.045.965-2.805.672-.76 1.563-1.14 2.674-1.14.613 0 1.198.205 1.753.614.585.38 1.154.803 1.71 1.271.555.468 1.11.906 1.666 1.315.584.38 1.198.57 1.84.57 1.462 0 2.558-.438 3.288-1.315.76-.906 1.228-1.987 1.403-3.244.175-1.257.088-2.572-.263-3.945-.35-1.374-.862-2.513-1.534-3.42-.76-1.022-1.695-1.724-2.806-2.103-1.081-.38-2.308-.556-3.682-.526-1.286.087-1.929-.234-1.929-.965 0-.614.629-.92 1.885-.92 1.345 0 2.645.219 3.902.657 1.256.41 2.469 1.374 3.638 2.893 1.987 2.572 2.98 5.538 2.98 8.899Zm4.866-7.759c1.285.468 2.191 1.096 2.717 1.885.526.76.79 1.593.79 2.499 0 .876-.322 1.636-.965 2.279a3.044 3.044 0 0 1-2.236.92 2.84 2.84 0 0 1-1.49-.394 2.534 2.534 0 0 1-.92-1.008 2.252 2.252 0 0 1-.22-1.315c.059-.468.292-.935.702-1.403-.293-.03-.819-.044-1.578-.044a61.893 61.893 0 0 0-4.69 0c-.731 0-1.199.015-1.404.044-.847.205-1.49.511-1.928.92a11.4 11.4 0 0 0-1.228 1.36c-.818-1.52-2.425-2.28-4.822-2.28-2.22 0-3.331.365-3.331 1.096 0 .234.102.424.307.57.233.117.482.204.745.263.292.058.57.102.833.131h.613c.76.088 1.155.293 1.184.614.03.292-.278.438-.92.438a9.847 9.847 0 0 1-1.622-.131 5.564 5.564 0 0 1-1.447-.439 2.578 2.578 0 0 1-1.052-.876c-.263-.38-.395-.891-.395-1.534 0-.731.147-1.345.439-1.842a3.811 3.811 0 0 1 1.183-1.183 4.684 4.684 0 0 1 1.622-.614 7.925 7.925 0 0 1 1.841-.219c1.841 0 3.434.54 4.778 1.622.877-.672 1.827-1.096 2.85-1.271 1.023-.176 2.03-.336 3.024-.483 1.783-.233 3.99-.102 6.62.395Zm.306 6.4c.38 0 .629-.16.746-.482.146-.322.175-.658.087-1.008a1.461 1.461 0 0 0-.482-.877c-.263-.263-.57-.35-.92-.263-.176.058-.307.234-.395.526a2.852 2.852 0 0 0-.044.877c.03.321.132.613.307.876.175.234.41.351.701.351Zm-.482-6.444c-.38.117-.672.176-.877.176-.175 0-.482-.103-.92-.307-.438-.439-.687-.906-.745-1.403a2.548 2.548 0 0 1 .219-1.403 2.899 2.899 0 0 1 1.052-1.096 2.916 2.916 0 0 1 1.578-.438c.877 0 1.549.278 2.017.833.467.526.788 1.008.964 1.446.03.117.014.263-.044.439a.799.799 0 0 1-.263.35c-.088.088-.22.132-.395.132-.175 0-.336-.088-.482-.263a6.99 6.99 0 0 0-.657-.658c-.205-.204-.526-.263-.965-.175-.38.088-.657.263-.832.526a1.757 1.757 0 0 0-.264.745c-.029.263.015.512.132.745.117.234.278.351.482.351ZM77.29 3.068c.468 0 .834.074 1.097.22.263.117.453.263.57.438.116.175.175.365.175.57.03.175.044.336.044.482v.745c0 .234-.044.453-.132.658-.087.204-.278.38-.57.526-.263.117-.657.175-1.183.175h-7.847c-.701 0-1.052.249-1.052.745 0 .497.35.746 1.052.746h3.814c.76 0 1.154.248 1.183.745 0 .292-.087.497-.263.613-.146.088-.453.132-.92.132-.848.03-1.578.015-2.192-.044a11.722 11.722 0 0 0-1.753-.044c-.672 0-.98.307-.92.92.087.322.394.512.92.57h4.296c.409.06.7.118.876.176.205.03.307.205.307.526 0 .35-.102.585-.307.701-.175.088-.467.132-.876.132h-1.93a66.149 66.149 0 0 0-2.235-.044c-.964.088-1.68-.03-2.148-.35-.467-.322-.774-.702-.92-1.14a2.245 2.245 0 0 1 .043-1.315c.147-.439.38-.716.702-.833-.438-.146-.79-.453-1.052-.92a3.66 3.66 0 0 1-.35-1.579c.058-1.256.496-2.162 1.314-2.718.848-.555 1.841-.833 2.981-.833h7.277Zm1.623 15.562c0 2.28-.702 4.062-2.104 5.348-1.374 1.257-3.186 1.885-5.436 1.885-1.11 0-2.133-.16-3.069-.482a8.388 8.388 0 0 1-2.454-1.36 6.026 6.026 0 0 1-1.71-2.19c-.38-.878-.57-1.886-.57-3.026 0-1.022.19-1.972.57-2.849.41-.906.95-1.68 1.622-2.323a7.829 7.829 0 0 1 2.41-1.578 7.518 7.518 0 0 1 2.938-.57c.935 0 1.87.19 2.805.57a7.997 7.997 0 0 1 4.296 3.77c.468.847.702 1.782.702 2.805Zm-2.411-1.315c0-.73-.161-1.359-.483-1.885a4.029 4.029 0 0 0-1.227-1.403 5.566 5.566 0 0 0-1.71-.876 5.61 5.61 0 0 0-1.928-.351c-.702 0-1.374.117-2.017.35a5.086 5.086 0 0 0-1.71.921c-.496.38-.905.862-1.227 1.447a4.4 4.4 0 0 0-.526 1.972c-.087.79.015 1.462.307 2.017a3.44 3.44 0 0 0 1.184 1.315 5.265 5.265 0 0 0 1.71.701c.671.146 1.358.22 2.06.22.76 0 1.475-.059 2.147-.176a5.766 5.766 0 0 0 1.798-.701c.526-.35.92-.804 1.183-1.36.293-.584.439-1.314.439-2.19Z"/><path fill="#000" d="M86.617 24.592c0 .672-.029 1.417-.087 2.235a8.181 8.181 0 0 1-.526 2.367c-.293.76-.687 1.403-1.184 1.93-.468.525-1.14.788-2.016.788-.731 0-1.316-.292-1.754-.876-.058-.03-.38-.556-.964-1.579-.439-.788-.92-1.183-1.447-1.183-.555 0-.833.263-.833.789 0 .38.293.906.877 1.578.117.263.175.424.175.482a.92.92 0 0 1-.131.482c-.088.176-.278.307-.57.395h-.263a.755.755 0 0 1-.482-.175c-.38-.38-.643-.775-.79-1.184a3.27 3.27 0 0 1-.218-1.183c0-.614.19-1.155.57-1.622.35-.439.832-.658 1.446-.658.555 0 1.271.468 2.148 1.403.818.847 1.52 1.271 2.104 1.271 1.929 0 2.893-1.753 2.893-5.26 0-2.601-.438-4.75-1.315-6.444-.876-1.695-1.929-2.703-3.156-3.025-.35-.058-.555-.16-.614-.307-.087-.146-.131-.35-.131-.613 0-.205.117-.38.35-.526.205-.146.453-.19.746-.132.935.205 1.753.702 2.455 1.49.7.76 1.241 1.681 1.621 2.762.38 1.081.658 2.221.833 3.42.176 1.168.263 2.294.263 3.375Z"/></svg>