<svg xmlns="http://www.w3.org/2000/svg" width="120" height="28"><path fill="#000" fill-rule="nonzero" d="M18.344.288c1.19 0 2.339.201 3.449.604.971.365 1.427.806 1.368 1.324l-.179 1.87v16.55c0 2.724-.297 4.7-.892 5.928-.178.326-.367.557-.565.69a.807.807 0 0 1-.535.202c-.198 0-.367-.134-.505-.403-.179-.345-.278-1.467-.298-3.367l-.03-8.202c-1.863.537-4.667 1.093-8.413 1.669l.03 2.36c0 3.492-.437 5.65-1.309 6.476-.218.21-.456.316-.713.316-.674 0-.952-1.305-.833-3.914l-.018-1.267a308.3 308.3 0 0 1-.011-2.877l-.03-.374v-.432l-2.098.195c-.259.028-.422.05-.489.064l-.357.086-1.516.633-.327.03c-.594 0-1.447-.346-2.557-1.037C.506 16.779 0 16.242 0 15.8c0-.204.172-.31.517-.318l.315.002c1.725.134 3.211.201 4.46.201 4.559 0 9.524-.46 14.895-1.381V4.778c0-.826-.06-1.392-.178-1.699-.103-.249-.593-.65-1.47-1.202l-.76-.464c-.495-.312-.743-.524-.743-.636 0-.326.436-.49 1.308-.49ZM49.127.259c1.21 0 2.379.202 3.509.604.97.346 1.457.768 1.457 1.267l-.15 1.9-.029 16.72c0 2.13-.238 3.886-.713 5.267-.318.96-.724 1.44-1.22 1.44-.515-.173-.802-1.046-.862-2.62V4.288c0-.71-.089-1.18-.267-1.41-.12-.153-.704-.556-1.754-1.209l-.892-.604c-.139-.134-.208-.25-.208-.345 0-.288.376-.442 1.13-.461Zm33.727 17.01c1.665 0 2.498.277 2.498.834 0 .134-.11.614-.327 1.439a3.71 3.71 0 0 0-.12.863l.06 1.9c0 2.743-.476 4.403-1.427 4.979l-.446.172h-.208c-.535 0-.803-.604-.803-1.813v-5.986c0-.499-.218-.748-.654-.748h-.178l-1.484.087c-1.132.058-2.807.135-5.027.23-.714.038-1.24.124-1.576.258l-1.1.49a.577.577 0 0 1-.179.028c-.436 0-1.097-.266-1.982-.798l-.247-.151c-.813-.5-1.22-.912-1.22-1.238 0-.173.209-.259.625-.259l.13.007c.193.017.536.062 1.03.137a20.66 20.66 0 0 0 2.705.173l3.877-.003c2.333-.014 3.805-.1 4.418-.256l.434-.115c.606-.154 1.007-.23 1.201-.23ZM109.713.287c1.05 0 2.16.192 3.33.575 1.09.365 1.605.787 1.546 1.267l-.044.467c-.164 1.969-.22 5.123-.164 9.462v2.1c0 .25.01.433.03.548.04.038.168.057.386.057.357 0 .902-.182 1.635-.547.555-.268 1.06-.402 1.517-.403 1.209 0 1.882.298 2.021.893.02.076.03.144.03.201 0 .714-.93 1.08-2.79 1.094h-.778l-2.051.057v5.296c0 2.57-.327 4.375-.981 5.41l-.357.432-.387.23c-.099.02-.198.03-.297.03-.515 0-.783-.682-.803-2.044v-7.627a90.382 90.382 0 0 1-11.302 2.64l-1.304.21c-.574.095-.921.162-1.04.2l-1.19.519c-.099.02-.198.029-.297.029-.495 0-1.367-.374-2.616-1.123l-.422-.26c-.848-.547-1.273-.978-1.273-1.294 0-.192.496-.268 1.487-.23l4.222.144.29-.005c.274-.008.623-.025 1.048-.053v-3.828c0-.602-.389-1.147-1.166-1.634l-.202-.121c-.535-.307-.813-.528-.833-.662 0-.288.407-.432 1.22-.432 2.715 0 4.033.413 3.954 1.238l-.083.675c-.037.323-.058.56-.064.712l-.002 3.736.594-.057c1.723-.182 4.557-.614 8.504-1.296.158-.038.317-.067.475-.086V4.288c0-.575-.06-.988-.178-1.237-.119-.269-.743-.739-1.873-1.41l-.327-.208c-.496-.326-.743-.544-.743-.656 0-.326.426-.49 1.278-.49Zm-65.878 4.95.744.115 1.724.173c.555.134.832.355.832.662v.115l-3.002 5.871c-1.527 2.725-3.33 4.921-5.411 6.59-.377.327-.773.634-1.19.922-1.684 1.15-3.19 1.957-4.519 2.417-.436.154-.793.23-1.07.23a.542.542 0 0 1-.238-.057c-.04-.038-.06-.067-.06-.086 0-.072.1-.187.302-.346l.234-.172c2.596-1.9 4.48-3.492 5.649-4.778a21.151 21.151 0 0 0 2.408-3.166l.26-.416c.401-.653.652-1.1.75-1.34l-.158.052c-.558.171-1.863.49-3.914.956l-.863.201-1.546.662-.297.03c-.416 0-1.17-.308-2.26-.922-.812-.46-1.219-.815-1.219-1.065 0-.153.14-.23.417-.23l3.21.115c1.943 0 4.282-.288 7.017-.863.142-.035.443-.745.902-2.13l.273-.844c.089-.291.133-.48.133-.566 0-.307-.237-.451-.713-.432l-2.612.103a9.764 9.764 0 0 0-.659.04 8.981 8.981 0 0 0-1.278.231l-1.219.46-.178.03c-.421 0-1.095-.262-2.023-.785l-.237-.137c-.773-.44-1.16-.796-1.16-1.064 0-.096.06-.163.179-.202l3.122.26h.446l4.519-.087.132-.018a20.45 20.45 0 0 0 1.163-.248l.697-.166c.297-.077.535-.115.713-.115ZM80.981 0c.951 0 2.002.201 3.152.604 1.11.403 1.635.854 1.575 1.353l-.188 1.54c-.025.22-.042.379-.05.475v5.612l-.005.853c-.032 2.194-.188 3.752-.47 4.673-.337 1.112-.862 1.669-1.576 1.669-.495 0-.723-1.132-.684-3.396v-2.389h-2.438c0 2.149-.158 3.617-.475 4.403-.278.634-.654.998-1.13 1.094l-.238.029c-.496-.115-.763-.998-.803-2.648V5.44c0-.498-.04-.863-.119-1.093-.138-.403-.654-.892-1.546-1.468l-.684-.518c-.099-.115-.148-.211-.148-.288 0-.307.386-.46 1.16-.46.891 0 1.853.21 2.883.633.892.364 1.318.787 1.279 1.266l-.179 1.986v4.058h2.438V4.029c0-.94-.575-1.784-1.724-2.532L80 .835c-.139-.135-.208-.26-.208-.375 0-.306.396-.46 1.19-.46ZM71.29 3.885c.912 0 1.803.183 2.676.547.436.192.703.393.802.605l.06.518v.057l-.112 1.166a8.818 8.818 0 0 0-.037.619v4.374c0 1.957-.337 3.281-1.01 3.972l-.387.316-.506.115h-.06c-.415 0-.673-.249-.772-.748-.08-.422-.208-.652-.387-.69l-.74.001c-2.018.011-3.336.068-3.957.171l-.044.057c-.086.12-.28.417-.58.893-.318.48-.674.72-1.07.72-.714 0-1.071-1.18-1.071-3.54l.06-3.281-.006-.537c-.019-1.01-.097-1.647-.233-1.91-.082-.16-.42-.433-1.011-.82l-.386-.245c-.456-.287-.684-.489-.684-.604 0-.307.446-.46 1.338-.46 1.19 0 2.2.191 3.033.575.515.25.773.547.773.892l-.06 1.986 4.936-.115V6.907c0-.671-.516-1.362-1.546-2.072l-.595-.46a.249.249 0 0 1-.03-.116c0-.249.535-.374 1.606-.374Zm35.302 1.036c1.11 0 1.953.144 2.527.432.238.115.357.24.357.374 0 .23-.148.653-.446 1.267-.099.23-.168.431-.208.604-.436 2.437-.902 4.202-1.397 5.296-.02.076-.05.153-.09.23-.614 1.305-1.209 2.158-1.783 2.561-.159.115-.298.173-.417.173-.178 0-.267-.106-.267-.317l.119-.633.476-3.05v-.03l.04-.314c.101-.86.187-2.28.257-4.261-.179-.422-.506-.653-.981-.691l-.803.086-3.925.144-.683.086-1.903.547c-.1.02-.198.03-.297.03-.455 0-1.117-.259-1.988-.775l-.242-.147c-.773-.46-1.16-.835-1.16-1.122 0-.173.129-.26.387-.26l1.189.173 1.713.118c.254.014.444.023.568.025l4.706.001c1.348 0 2.319-.077 2.913-.23l1.16-.317h.178ZM71.824 9.785l-4.816.144h-.09v3.655l4.936-.115v-2.964l-.03-.72ZM8.681 2.418c.555 0 1.19.153 1.903.46.377.173.565.345.565.518 0 .115-.149.403-.446.863.892 0 1.814.23 2.765.691l.106.064.043.023c1.467.805 2.25 1.937 2.349 3.396.02.134.03.278.03.431 0 .768-.308 1.535-.922 2.303-1.19 1.535-2.924 2.302-5.203 2.302-1.963 0-3.558-.537-4.787-1.612-.971-.844-1.457-1.909-1.457-3.194 0-1.689 1.11-2.993 3.33-3.914.317-.135.644-.25.981-.346l.862-.23c.179-.096.268-.21.268-.345 0-.151-.144-.369-.433-.652l-.132-.125c-.198-.173-.297-.307-.297-.403 0-.154.158-.23.475-.23Zm.744 3.338c-1.09 0-1.943.432-2.557 1.295a2.825 2.825 0 0 0-.506 1.612c0 1.055.506 1.87 1.517 2.446a3.41 3.41 0 0 0 1.754.49c1.467 0 2.527-.461 3.181-1.382.317-.46.476-.988.476-1.583 0-1.554-.912-2.485-2.735-2.792a7.092 7.092 0 0 0-1.13-.086Z"/></svg>