<svg xmlns="http://www.w3.org/2000/svg" viewBox="0 0 90 18"><defs><clipPath id="a"><path fill="none" stroke="#000" d="m217.29 201.6 3.036 2.321 6.964.536 1.607-24.464-1.428-12.679-11.25.357z"/></clipPath><clipPath id="b"><path fill="none" stroke="#000" d="m250.32 195.35 5.179 2.5h7.5v-26.786l-6.072-11.429-16.25 1.607-8.928-1.25-8.215 1.607 3.215 36.607 10.536 1.786 5.535-6.25-3.035-17.857 4.107-3.75 3.571 5z"/></clipPath><clipPath id="c"><path fill="none" stroke="#000" d="m325.81 76.515-8.08-20.179-9.197-.09 13.26 36.965 12.053-.313L343.98 65.22l3.304-11.964-15.312.045-4.688 11.562z"/></clipPath><clipPath id="d"><path fill="none" stroke="#000" d="m349.39 55.22 13.393-.625-1.473 16.295-16.116-1.25-.313-14.107z"/></clipPath><clipPath id="e"><path fill="none" stroke="#000" d="m324.79 90.711 14.866-36.071 22.946-.357-1.696 37.054-32.634.268z"/></clipPath></defs><g fill-rule="evenodd"><path d="m.078 5.13 7.276-.401.098.167c-1 1.34-1.33 2.85-1.136 4.677L0 5.334zm8.678 6.664c1.54.162 2.94-.15 4.16-1.183l.174.113-.409 7.088-.175.05-3.83-5.878zm5.281-4.227c-.823-1.71-1.96-2.89-3.643-3.516l-.03-.202 7.01-3.572.163.147z" opacity=".5"/><g fill-rule="nonzero"><path d="M49.205 10.97c0 .104.144.234.424.382.28.156.645.26 1.094.338 1.09.173 1.87.468 2.35.884.484.416.721 1.02.721 1.812 0 .78-.356 1.4-1.069 1.839-.713.442-1.66.668-2.841.667-1.1 0-1.99-.234-2.655-.72-.67-.477-1-1.13-1.001-1.95 0-.573.178-1.06.534-1.466.356-.408.78-.642 1.256-.694-.407-.199-.602-.494-.603-.901 0-.442.263-.806.798-1.102.127-.069.22-.086.28-.034-.212-.009-.441-.13-.688-.356-.568-.546-.857-1.24-.856-2.08 0-.85.288-1.55.856-2.09.577-.546 1.31-.815 2.206-.816.229 0 .441.018.636.053h3.147v1.586h-1.086c.238.26.365.737.374 1.44 0 .72-.297 1.36-.874 1.916-.51.477-1.15.737-1.909.79l-.517.034a1.203 1.203 0 0 0-.382.147c-.127.087-.195.191-.195.321zm.806-4.717c-.373 0-.687.121-.925.364-.246.251-.365.572-.364.971 0 .4.118.72.364.963.238.243.543.364.925.364s.687-.121.933-.373c.238-.243.356-.564.356-.954 0-.399-.119-.72-.365-.97-.238-.244-.543-.365-.924-.365zM48 14.23c0 .312.17.572.508.78.34.209.806.313 1.391.313.645 0 1.15-.087 1.519-.26s.543-.4.543-.66c0-.268-.127-.502-.373-.702-.246-.19-.611-.329-1.103-.407l-.22-.035c-.196-.026-.383-.052-.569-.06a2.088 2.088 0 0 0-.424.008c-.356.06-.645.156-.857.295-.28.173-.416.416-.416.728zm10.197-.988c-1.24 0-2.24-.399-3.02-1.197-.789-.806-1.18-1.83-1.179-3.07 0-1.25.34-2.27 1.018-3.077.679-.806 1.55-1.21 2.63-1.214 1.16 0 2.06.382 2.697 1.136.636.754.95 1.8.95 3.156v.45h-5.344c.06.469.229.885.5 1.24.527.495 1.13.747 1.807.746.51 0 .967-.095 1.4-.277.433-.182.975-.486 1.637-.92v1.891c-.543.416-1.05.711-1.527.885-.475.165-1 .25-1.57.251zm1.272-5.194a2.522 2.522 0 0 0-.415-1.032c-.305-.416-.746-.624-1.332-.624-.517 0-.942.225-1.272.685a2.618 2.618 0 0 0-.467.971zm-28.457 4.978v-8.16h1.934v8.342h-1.552zm.967-11.593c.314 0 .585.113.797.33.221.224.331.493.331.806 0 .312-.11.572-.33.798a1.084 1.084 0 0 1-.798.33 1.07 1.07 0 0 1-.806-.33 1.108 1.108 0 0 1-.322-.798c0-.312.11-.581.33-.807a1.07 1.07 0 0 1 .798-.329zM36.78.895v12.313h-1.925V.722h1.925zm3.681 12.131-3.986-3.98 3.605-4.179h2.163l-3.436 4.136 4.046 4.205h-2.01zm2.994 0v-8.16h1.925v8.342h-1.543zm.959-11.593c.322 0 .585.113.805.33.212.224.322.493.323.806 0 .312-.11.572-.323.798a1.104 1.104 0 0 1-.805.33 1.05 1.05 0 0 1-.798-.33 1.073 1.073 0 0 1-.322-.798c0-.312.102-.581.322-.807.212-.217.484-.329.798-.329zm27.991 9.528c0 .104.136.234.424.382.28.156.645.26 1.086.329 1.09.182 1.87.477 2.35.893.484.416.729 1.02.73 1.812 0 .78-.366 1.4-1.078 1.839-.713.442-1.65.668-2.833.667-1.11 0-1.99-.243-2.664-.72-.662-.476-1-1.13-1-1.95 0-.572.186-1.06.542-1.466.356-.416.772-.642 1.247-.694-.399-.199-.602-.503-.602-.901 0-.442.27-.815.797-1.102.127-.069.221-.086.28-.034-.204-.009-.433-.13-.687-.364-.568-.538-.857-1.23-.857-2.081 0-.841.288-1.54.865-2.081.568-.546 1.31-.815 2.197-.815.23 0 .441.017.645.052h3.147v1.586h-1.086c.238.26.356.737.365 1.431 0 .728-.288 1.37-.874 1.925-.5.468-1.14.737-1.908.789l-.51.035a.933.933 0 0 0-.38.147c-.137.087-.196.191-.196.32zm.797-4.726c-.373 0-.679.13-.924.373-.238.243-.356.572-.357.963 0 .399.12.72.357.962.238.243.55.364.924.364.382 0 .696-.12.933-.364.238-.243.365-.564.365-.962 0-.39-.127-.711-.365-.963a1.27 1.27 0 0 0-.933-.373zm-2.01 7.986c0 .312.17.572.509.78.339.209.806.313 1.4.313.644 0 1.15-.087 1.51-.26.364-.182.542-.4.542-.66 0-.268-.119-.511-.373-.702-.246-.19-.611-.329-1.103-.407l-.212-.035a4.662 4.662 0 0 0-.577-.06 2.088 2.088 0 0 0-.424.008c-.356.06-.636.156-.856.295-.28.173-.416.416-.416.728zm-9.204-1.135V11.36l3.07-3.598c.5-.59.875-1.01 1.12-1.257-.254.017-.585.026-1 .034l-2.893.01v-1.83h6.777v1.569l-3.138 3.685-1.103 1.223c.602-.035.975-.052 1.12-.052h3.36v1.942z"/><path d="M217.6 203.62v-34.193h9.07v34.193z" clip-path="url(#a)" transform="matrix(.2394 0 0 .24471 26.455 -36.698)"/><path d="M260.52 197.19h-9.07v-17.469c0-3.69-.178-6.06-.568-7.157-.39-1.1-1.03-1.91-1.878-2.516-.886-.602-1.91-.921-3.153-.922-1.56 0-2.98.425-4.217 1.311-1.24.85-2.09 1.98-2.551 3.402-.461 1.42-.709 4.04-.709 7.866v15.484h-9.07v-34.193h8.433v4.996c2.98-3.86 6.73-5.78 11.268-5.775 2.02 0 3.83.354 5.492 1.063 1.63.709 2.91 1.63 3.756 2.763.85 1.1 1.42 2.37 1.771 3.792.32 1.42.496 3.47.496 6.094z" clip-path="url(#b)" transform="matrix(.2394 0 0 .24471 26.839 -35.037)"/></g><g fill-rule="nonzero" clip-path="url(#c)" transform="matrix(.25972 0 0 .24471 -59.132 -8.989)"><path d="m321.69 90.727-14.669-34.583h8.362l7.902 20.055 8.15-20.551h5.03l8.08 20.445 7.972-19.949h8.362l-14.846 34.583h-3.083l-9.106-22.039-9.07 22.039h-1.524z" clip-path="url(#d)" transform="matrix(-1 0 0 1 670.63 .58)"/><path d="m321.69 90.727-14.669-34.583h8.362l7.902 20.055 8.15-20.551h5.03l8.08 20.445 7.972-19.949h8.362l-14.846 34.583h-3.083l-9.106-22.039-9.07 22.039h-1.524z" clip-path="url(#e)" transform="translate(-18.75 .446)"/></g><path fill-rule="nonzero" d="M80.685 2.584c0 .663-.496 1.201-1.11 1.2s-1.112-.535-1.111-1.2.496-1.202 1.11-1.201 1.112.536 1.111 1.2z"/></g></svg>