<?xml version="1.0" encoding="UTF-8"?>
<svg width="120px" height="29px" viewBox="0 0 120 29" version="1.1" xmlns="http://www.w3.org/2000/svg" xmlns:xlink="http://www.w3.org/1999/xlink">
    <title>bpy-wordmark</title>
    <g id="Page-1" stroke="none" stroke-width="1" fill="none" fill-rule="evenodd">
        <path d="M2.37705147,1.77635684e-15 L3.04262588,0.443716274 C2.85246176,0.633880392 2.69399167,0.855738529 2.56721559,1.10929069 C2.46156886,1.36284284 2.40874549,1.58470098 2.40874549,1.7748651 C2.40874549,2.38761614 2.66229765,2.86302644 3.16940196,3.20109598 C3.67650627,3.51803618 4.47942144,3.67650627 5.57814745,3.67650627 C5.85282895,3.67650627 6.69800281,3.63424758 8.11366902,3.54973019 C9.52933523,3.44408346 10.3956384,3.3912601 10.7125786,3.3912601 C12.4240557,3.3912601 13.7340752,3.85610572 14.6426371,4.78579696 C15.5723283,5.69435885 16.0583033,6.80364954 16.100562,8.11366902 L27.8743956,8.11366902 C28.085689,7.98689294 28.2441591,7.83898751 28.3498059,7.66995274 C28.4554526,7.50091797 28.508276,7.34244787 28.508276,7.19454245 C28.508276,6.66630879 28.2652885,6.28598055 27.7793135,6.05355774 C27.3144679,5.80000559 26.6383288,5.67322951 25.7508963,5.67322951 C25.3916974,5.67322951 24.8845931,5.70492353 24.2295833,5.76831157 C23.5745736,5.83169961 23.1519867,5.86339363 22.9618225,5.86339363 C20.8700173,5.88452297 19.2853163,5.57814745 18.2077196,4.94426706 C17.1512523,4.31038667 16.6230186,3.38069542 16.6230186,2.15519333 C16.6230186,1.85938248 16.675842,1.55300696 16.7814887,1.23606676 C16.8660061,0.919126568 17.0033469,0.665574412 17.193511,0.475410294 L17.8907794,0.919126568 C17.7006153,1.10929069 17.5738392,1.2994548 17.5104512,1.48961892 C17.4259338,1.67978304 17.3836751,1.88051183 17.3836751,2.09180529 C17.3836751,2.62003895 17.5949686,3.06375523 18.0175555,3.42295412 C18.4401424,3.78215301 19.1691049,3.96175245 20.2044428,3.96175245 C20.5002537,3.96175245 21.1975221,3.93005843 22.2962481,3.86667039 C23.3949741,3.80328235 24.1028072,3.77158833 24.4197474,3.77158833 C26.1734832,3.77158833 27.4306793,4.16248124 28.1913358,4.94426706 C28.9519922,5.72605287 29.3534498,6.78252019 29.3957085,8.11366902 L33.2415797,8.11366902 C32.8189928,7.71221144 32.4386645,7.23680114 32.100595,6.68743813 C31.7836548,6.13807513 31.6251847,5.66266483 31.6251847,5.26120725 C31.6251847,4.24699863 32.2801945,3.21166065 33.5902139,2.15519333 C34.9213628,1.07759667 36.4849344,0.538798333 38.2809288,0.538798333 C39.7177244,0.538798333 41.281296,0.961385261 42.9716437,1.80655912 C44.6831208,2.63060363 46.2889511,3.85610572 47.7891347,5.48306539 L47.7891347,6.24372186 C46.2678218,4.76466761 44.7676382,3.71876497 43.2885839,3.10601392 C41.8095297,2.49326287 40.4466868,2.18688735 39.2000554,2.18688735 C37.6364838,2.18688735 36.2630762,2.65173297 35.0798328,3.58142421 C33.8965895,4.48998611 33.3049678,5.4408067 33.3049678,6.43388598 C33.3049678,6.70856748 33.3789205,7.014943 33.5268259,7.35301255 C33.6958607,7.66995274 33.8965895,7.9235049 34.1290123,8.11366902 L57.1358992,8.11366902 C56.7133122,7.71221144 56.332984,7.23680114 55.9949145,6.68743813 C55.6779743,6.13807513 55.5195042,5.66266483 55.5195042,5.26120725 C55.5195042,4.24699863 56.1745139,3.21166065 57.4845334,2.15519333 C58.8156822,1.07759667 60.3792538,0.538798333 62.1752483,0.538798333 C63.6120438,0.538798333 65.1756155,0.961385261 66.8659632,1.80655912 C68.5774402,2.63060363 70.1832706,3.85610572 71.6834542,5.48306539 L71.6834542,6.24372186 C70.1621412,4.76466761 68.6619576,3.71876497 67.1829034,3.10601392 C65.7038491,2.49326287 64.3410063,2.18688735 63.0943749,2.18688735 C61.5308032,2.18688735 60.1573957,2.65173297 58.9741523,3.58142421 C57.7909089,4.48998611 57.1992872,5.4408067 57.1992872,6.43388598 C57.1992872,6.70856748 57.2732399,7.014943 57.4211453,7.35301255 C57.5901801,7.66995274 57.7909089,7.9235049 58.0233317,8.11366902 L59.7981968,8.11366902 L61.0025696,9.31804176 L58.3402719,9.31804176 L58.6255181,25.9890961 L56.9774291,24.341007 L57.1042052,9.31804176 L47.3627505,9.31804176 L47.3627505,10.5224145 C49.1798743,10.5224145 50.7223166,11.1879889 51.9900774,12.5191377 C53.2789675,13.8291572 53.9234126,15.4244229 53.9234126,17.3049347 C53.9234126,18.2557553 53.6698604,19.0269764 53.1627561,19.6185981 C52.6767812,20.1890905 52.1062888,20.4743367 51.4512791,20.4743367 C50.9653041,20.4743367 50.5427172,20.2947372 50.1835183,19.9355383 C49.8243194,19.5552101 49.6447199,19.1326232 49.6447199,18.6677775 C49.6447199,18.2240613 49.7926254,17.8331684 50.0884362,17.4950988 C50.4053764,17.1570293 50.7645753,16.9879945 51.1660329,16.9879945 C51.5252318,16.9879945 51.8527366,17.0936412 52.1485475,17.3049347 C52.4654877,17.4950988 52.7084752,17.7697803 52.8775099,18.1289792 C52.9620273,18.0022031 53.0254154,17.8648624 53.0676741,17.716957 C53.1099328,17.5690515 53.1310621,17.4211461 53.1310621,17.2732407 C53.1310621,15.9420919 52.5605697,14.8116718 51.419585,13.8819806 C50.2997297,12.93116 48.9474515,12.4557497 47.3627505,12.4557497 L47.3627505,25.4819918 L46.7922582,24.9431934 C46.6654821,24.1402783 46.4330593,23.4218805 46.0949897,22.7880001 C45.7780496,22.1329904 45.2815099,21.4462866 44.6053708,20.7278888 C43.8024557,19.8404563 42.8516351,19.1220585 41.7529091,18.5726955 C40.6753124,18.0022031 39.6611038,17.6746983 38.7102832,17.5901809 L37.1889702,15.2131294 C38.0341441,14.579249 38.8159299,14.0404507 39.5343277,13.5967344 C40.2527255,13.1318888 40.9922526,12.6881725 41.7529091,12.2655856 C42.6192123,11.80074 43.4115628,11.4309764 44.1299605,11.1562949 C44.8694877,10.860484 45.5033681,10.6703199 46.0316017,10.5858025 L46.0316017,9.31804176 L34.4459525,9.31804176 L34.7311986,25.9890961 L33.0831096,24.341007 L33.2098857,9.31804176 L24.4831355,9.31804176 C24.4989825,9.36558279 24.5445426,9.50226325 24.6198159,9.72808314 L24.7049936,9.98361617 C24.8317697,10.3639444 24.8951577,10.702014 24.8951577,10.9978248 C26.0572718,10.9978248 27.1559978,11.3887177 28.1913358,12.1705035 C29.2478031,12.93116 29.7760368,14.0193213 29.7760368,15.4349875 C29.7760368,16.6604896 29.3534498,17.7275216 28.508276,18.6360835 C27.6631021,19.5446454 26.3213886,20.2524785 24.4831355,20.7595828 L24.4831355,20.8229709 C25.2860506,21.0342643 26.6171995,21.8054855 28.476582,23.1366343 C30.3359644,24.4677831 31.7516306,25.6827205 32.7235806,26.7814466 L33.1356028,28.2076774 C30.9804095,26.2637776 28.9202982,24.7424646 26.955269,23.6437386 C25.0113691,22.5450126 22.8456111,21.7104034 20.457995,21.1399111 L18.7148239,17.6218749 C19.327575,17.9599444 20.0354081,18.2768846 20.8383232,18.5726955 C21.6412384,18.847377 22.2328601,18.9847177 22.6131883,18.9847177 C23.9232078,18.9847177 25.2543566,18.5515661 26.6066348,17.6852629 C27.9800423,16.8189597 28.6667461,15.8364451 28.6667461,14.7377191 C28.6667461,14.1460974 28.4343233,13.6495578 27.9694776,13.2481002 C27.504632,12.8255133 26.9024456,12.6142198 26.1629185,12.6142198 C25.9516251,12.6142198 25.7297669,12.6459138 25.4973441,12.7093019 C25.2649213,12.7515606 25.0324985,12.8255133 24.8000757,12.93116 C24.6310409,13.8397219 24.2612773,14.5581197 23.690785,15.0863533 C23.1202926,15.614587 22.4652829,15.8787038 21.7257558,15.8787038 C21.1763928,15.8787038 20.7115472,15.709669 20.3312189,15.3715995 C19.97202,15.03353 19.7924206,14.5581197 19.7924206,13.9453686 C19.7924206,13.1424535 20.2044428,12.4557497 21.0284873,11.8852573 C21.8525319,11.2936356 22.7716584,10.9978248 23.7858671,10.9978248 C23.7858671,10.6174966 23.659091,10.279427 23.4055388,9.98361617 C23.1519867,9.68780532 22.8139171,9.46594719 22.3913302,9.31804176 L9.69837,9.31804176 L9.69837,15.5617636 C9.69837,15.7519277 9.75119336,15.8892685 9.85684009,15.9737859 C9.96248683,16.0583033 10.1103923,16.100562 10.3005564,16.100562 C10.7865313,16.100562 11.378153,15.7941864 12.0754215,15.1814354 C12.7938192,14.547555 13.6072991,13.5861697 14.515861,12.2972796 C15.3399055,12.8466426 15.9632212,13.543911 16.3858081,14.3890849 C16.8295244,15.2342588 17.0513825,16.2484674 17.0513825,17.4317108 C17.0513825,19.333352 16.5337136,20.8652296 15.4983756,22.0273436 C14.4630376,23.1894577 13.1107594,23.7705147 11.4415411,23.7705147 C9.18070101,23.7705147 7.26849516,22.7140474 5.70492353,20.6011127 C4.16248124,18.4881781 3.08488457,15.0124006 2.47213353,10.1737803 L3.29617804,10.6174966 C4.05683451,14.5052963 5.09217248,17.29437 6.40219196,18.9847177 C7.73334078,20.6539361 9.30747709,21.4885453 11.1246009,21.4885453 C12.5191377,21.4885453 13.7023811,21.0342643 14.6743311,20.1257024 C15.646281,19.2171405 16.132256,18.1712379 16.132256,16.9879945 C16.132256,16.2062087 16.0054799,15.677975 15.7519277,15.4032935 C15.4983756,15.128612 15.3610348,14.9701419 15.3399055,14.9278832 C14.3468262,15.9843505 13.4699583,16.7661364 12.7093019,17.2732407 C11.9697747,17.780345 11.2408123,18.0338972 10.5224145,18.0338972 C10.1420863,18.0338972 9.82514607,17.9388151 9.57159392,17.748651 C9.33917111,17.5584869 9.09618362,17.199288 8.84263147,16.6710543 C8.69472604,16.4175022 8.57851464,16.1745147 8.49399725,15.9420919 C8.43060921,15.6885397 8.39891519,15.4561169 8.39891519,15.2448234 L8.39891519,9.31804176 L1.33114882,9.31804176 L0,8.11366902 L14.4207789,8.11366902 C14.6320724,7.98689294 14.7799778,7.84955219 14.8644952,7.70164676 C14.9490126,7.53261199 14.9912713,7.36357722 14.9912713,7.19454245 C14.9912713,6.68743813 14.8328012,6.28598055 14.515861,5.9901697 C14.1989208,5.69435885 13.6389931,5.54645343 12.8360779,5.54645343 C12.476879,5.54645343 11.6105758,5.58871212 10.2371683,5.67322951 C8.88489016,5.73661755 8.12423369,5.76831157 7.95519892,5.76831157 C5.94791101,5.78944091 4.3737747,5.41967735 3.23279,4.65902088 C2.11293464,3.89836441 1.55300696,3.02149653 1.55300696,2.02841725 C1.55300696,1.75373575 1.63752435,1.39453686 1.80655912,0.950820588 C1.99672323,0.507104314 2.18688735,0.190164118 2.37705147,1.77635684e-15 Z M112.71136,8.11366902 L112.776909,8.17625492 C113.367693,8.26395428 113.842055,8.44382111 114.199994,8.71585539 C114.749357,9.09618362 115.372673,10.0258749 116.069942,11.5049291 L116.13333,11.5049291 L116.13333,5.29290127 L116.862292,6.05355774 C116.862292,6.68743813 116.978503,7.19454245 117.210926,7.57487068 C117.464478,7.93406957 117.823677,8.11366902 118.288523,8.11366902 L118.763933,8.11366902 L120,9.31804176 L118.605463,9.31804176 C118.351911,9.31804176 118.119488,9.28634774 117.908195,9.2229597 C117.718031,9.15957166 117.548996,9.07505428 117.40109,8.96940755 L117.337702,9.03279558 L117.591255,25.9890961 L115.943165,24.341007 L116.006554,12.7409959 C115.583967,11.7056579 115.14025,10.8816134 114.675405,10.2688623 C114.210559,9.63498196 113.798537,9.31804176 113.439338,9.31804176 L111.380211,9.31804176 L111.380211,25.1967456 L110.841413,24.6579472 C110.587861,23.0943756 109.520829,21.625886 107.640317,20.2524785 C105.759805,18.8579417 104.16454,18.2134966 102.85452,18.3191433 L101.269819,16.3858081 C101.502242,16.1745147 102.146687,15.614587 103.203154,14.7060251 C104.259622,13.7974632 105.210442,13.0262421 106.055616,12.3923617 C105.485124,11.8429987 104.904067,11.4204117 104.312445,11.1246009 C103.720823,10.82879 103.19259,10.6597553 102.727744,10.6174966 C101.755794,10.5329792 101.111349,10.3956384 100.794409,10.2054743 C100.477469,9.99418085 100.255611,9.69837 100.128834,9.31804176 L91.9047333,9.31804176 L91.9047333,15.5617636 C91.9047333,15.7519277 91.9575567,15.8892685 92.0632034,15.9737859 C92.1688502,16.0583033 92.3167556,16.100562 92.5069197,16.100562 C92.7816012,16.100562 93.1091061,15.9949152 93.4894343,15.7836218 C93.8697625,15.5511989 94.2817848,15.2131294 94.7255011,14.7694131 C95.0213119,14.4736023 95.3276874,14.1355327 95.6446276,13.7552045 C95.9615678,13.3537469 96.3207667,12.867772 96.7222243,12.2972796 C97.5462696,12.8466426 98.1695857,13.543911 98.5921726,14.3890849 C99.0358889,15.2342588 99.257747,16.2484674 99.257747,17.4317108 C99.257747,19.333352 98.740078,20.8652296 97.70474,22.0273436 C96.6694013,23.1894577 95.3171228,23.7705147 93.6479044,23.7705147 C92.1477208,23.7705147 90.7954426,23.3162337 89.5910699,22.4076719 C88.3866971,21.49911 87.3619238,20.0306204 86.51675,18.0022031 C86.1152924,16.9879945 85.7560935,15.8364451 85.4391533,14.547555 C85.1433425,13.2375355 84.8897903,11.7796106 84.6784969,10.1737803 L85.5025414,10.6174966 C85.7983522,12.0965508 86.1364218,13.417135 86.51675,14.579249 C86.8970782,15.7413631 87.3196652,16.7555717 87.7845108,17.6218749 C88.5240379,18.9741531 89.3480824,19.9566677 90.2566443,20.5694187 C91.1863355,21.1821698 92.2111088,21.4885453 93.3309642,21.4885453 C94.7255011,21.4885453 95.9087448,21.0342643 96.8806955,20.1257024 C97.8526455,19.2171405 98.3386204,18.1712379 98.3386204,16.9879945 C98.3386204,16.2062087 98.2118444,15.677975 97.9582922,15.4032935 C97.70474,15.128612 97.5673993,14.9701419 97.5462699,14.9278832 L96.7222243,15.7519277 C96.4898015,15.9843505 96.2573787,16.2062087 96.0249559,16.4175022 C95.4122048,16.9668652 94.8417125,17.3788874 94.3134788,17.6535689 C93.7852452,17.9071211 93.2570115,18.0338972 92.7287778,18.0338972 C92.3484496,18.0338972 92.0315094,17.9388151 91.7779572,17.748651 C91.5455344,17.5584869 91.302547,17.199288 91.0489948,16.6710543 C90.9010894,16.4175022 90.784878,16.1745147 90.7003606,15.9420919 C90.6369725,15.6885397 90.6052785,15.4561169 90.6052785,15.2448234 L90.6052785,9.31804176 L81.4917628,9.31804176 L81.777009,25.9890961 L80.12892,24.341007 L80.255696,9.31804176 L76.8352174,9.31804176 C76.4971479,9.31804176 76.2330311,9.28634774 76.042867,9.2229597 C75.8527028,9.15957166 75.7364914,9.07505428 75.6942327,8.96940755 L75.6308447,9.03279558 L75.8843969,25.9890961 L74.2363078,24.341007 L74.3313899,15.3715995 C74.0567084,14.8222365 73.6658155,14.2411795 73.1587112,13.6284284 C72.6516069,12.994548 72.3346667,12.5930905 72.2078906,12.4240557 C71.4472341,13.1213241 70.4435902,14.1144034 69.1969587,15.4032935 C67.9714566,16.6710543 67.0312007,17.6958276 66.376191,18.4776134 L63.9991395,17.716957 C64.823184,16.8506538 65.3302883,16.2695967 65.5204524,15.9737859 C65.7317459,15.677975 65.8373926,15.3082115 65.8373926,14.8644952 C65.8373926,14.4207789 65.7106166,14.0193213 65.4570644,13.6601224 C65.2035123,13.3009236 64.8971367,13.1213241 64.5379378,13.1213241 C64.242127,13.1213241 63.8829281,13.2586649 63.4603412,13.5333464 C63.0588836,13.8080279 62.7630727,13.9453686 62.5729086,13.9453686 C62.1925804,13.9453686 61.8650755,13.8291572 61.590394,13.5967344 C61.3157125,13.3431822 61.1783718,13.0051127 61.1783718,12.5825258 C61.1783718,11.6317052 61.8016875,10.6597553 63.0483189,9.66667598 C64.3160797,8.65246735 65.6894872,8.14536304 67.1685415,8.14536304 C68.4996903,8.14536304 69.7357571,8.61020866 70.8767418,9.5398999 C72.0388558,10.4695911 73.2115345,12.0225981 74.3947779,14.1989208 L74.458166,14.1989208 L74.458166,5.29290127 L75.1554344,6.05355774 C75.1554344,6.66630879 75.3244692,7.16284843 75.6625387,7.54317666 C76.0006083,7.9235049 76.4231952,8.11366902 76.9302995,8.11366902 L80.2873901,8.11366902 C79.8648031,7.71221144 79.4844749,7.23680114 79.1464053,6.68743813 C78.8294651,6.13807513 78.6709951,5.66266483 78.6709951,5.26120725 C78.6709951,4.24699863 79.3260048,3.21166065 80.6360243,2.15519333 C81.9671731,1.07759667 83.5307447,0.538798333 85.3267392,0.538798333 C86.7635347,0.538798333 88.3271064,0.961385261 90.0174541,1.80655912 C91.7289311,2.63060363 93.3347615,3.85610572 94.834945,5.48306539 L94.834945,6.24372186 C93.3136321,4.76466761 91.8134485,3.71876497 90.3343943,3.10601392 C88.85534,2.49326287 87.4924972,2.18688735 86.2458657,2.18688735 C84.6822941,2.18688735 83.3088866,2.65173297 82.1256432,3.58142421 C80.9423998,4.48998611 80.3507781,5.4408067 80.3507781,6.43388598 C80.3507781,6.70856748 80.4247308,7.014943 80.5726362,7.35301255 C80.741671,7.66995274 80.9423998,7.9235049 81.1748226,8.11366902 L112.71136,8.11366902 Z M105.6119,21.4251572 C106.034487,21.4251572 106.393686,21.5836273 106.689497,21.9005675 C107.006437,22.1963784 107.164907,22.5555773 107.164907,22.9781642 C107.164907,23.4007511 107.006437,23.75995 106.689497,24.0557609 C106.393686,24.3515717 106.034487,24.4994771 105.6119,24.4994771 C105.189313,24.4994771 104.830114,24.3515717 104.534303,24.0557609 C104.238492,23.75995 104.090587,23.4007511 104.090587,22.9781642 C104.090587,22.5555773 104.238492,22.1963784 104.534303,21.9005675 C104.830114,21.5836273 105.189313,21.4251572 105.6119,21.4251572 Z M110.080757,9.31804176 L104.312445,9.31804176 L108.052339,13.5333464 C107.333942,14.0827094 106.689497,14.5898137 106.119004,15.0546593 C105.569641,15.5195049 104.946325,16.0477386 104.249057,16.6393603 C104.967455,16.8506538 105.833758,17.3683227 106.847967,18.1923672 C107.883305,19.0164118 108.939772,20.1362671 110.017369,21.5519333 L110.080757,21.5519333 L110.080757,9.31804176 Z M46.0316017,12.5508318 C45.6090148,12.6353491 45.1336045,12.7832546 44.6053708,12.994548 C44.0771372,13.2058415 43.5172095,13.4593937 42.9255878,13.7552045 C42.3762248,14.0510154 41.8268618,14.3679556 41.2774988,14.7060251 C40.7492651,15.0229653 40.2315961,15.3610348 39.7244918,15.7202337 C40.8654765,16.1850793 41.9536379,16.8612184 42.9889758,17.748651 C44.0454431,18.6149542 45.0385224,19.7770682 45.9682137,21.2349931 L46.0316017,21.2349931 L46.0316017,12.5508318 Z M67.9291979,9.79345206 C67.1685415,9.79345206 66.407885,10.0047455 65.6472285,10.4273324 C64.8865721,10.8499194 64.337209,11.314765 63.9991395,11.8218693 L64.3477737,11.8218693 C64.9182661,11.8218693 65.4781938,12.1916329 66.0275568,12.93116 C66.5980491,13.6495578 66.8516013,14.2940028 66.7882132,14.8644952 L70.7816597,10.9978248 C70.5492369,10.702014 70.1477793,10.4273324 69.577287,10.1737803 C69.0067946,9.92022813 68.4574316,9.79345206 67.9291979,9.79345206 Z" id="bpy-wordmark" fill="#000000" fill-rule="nonzero"></path>
    </g>
</svg>