<svg xmlns="http://www.w3.org/2000/svg" width="120" height="10"><path fill="#000" fill-rule="nonzero" d="M120 2.913a.52.52 0 0 1-.06.266.38.38 0 0 1-.17.146.888.888 0 0 1-.265.07c-.101.008-.216.013-.344.013l-.225-.45a1.374 1.374 0 0 0-.376.257c-.132.12-.257.257-.376.413a3.36 3.36 0 0 0-.312.477 1.61 1.61 0 0 0-.174.45l-.491 2.366h-.872l.808-3.99-.79-.087v-.27l1.418-.294h.376l-.197.949c.192-.297.411-.529.656-.697.244-.168.509-.252.793-.252.113 0 .208.021.285.064a.565.565 0 0 1 .284.362.74.74 0 0 1 .032.207m-5.256.325c.003-.015-.01-.05-.037-.105a1.337 1.337 0 0 0-.211-.33c-.04-.046-.073-.07-.1-.07-.24 0-.453.04-.643.12-.187.076-.35.182-.49.316-.141.132-.262.285-.363.459a2.983 2.983 0 0 0-.239.546c-.06.19-.105.38-.133.573a3.895 3.895 0 0 0-.04.55c0 .132.01.264.031.395.022.132.058.25.11.358a.735.735 0 0 0 .22.261c.095.067.216.101.363.101.11 0 .22-.024.33-.073a2.183 2.183 0 0 0 .555-.362l.156-.147.49-2.592m1.381 3.431-.202.087a4.628 4.628 0 0 1-.697.23c-.122.033-.229.05-.32.05a.889.889 0 0 1-.29-.041.487.487 0 0 1-.192-.124.59.59 0 0 1-.115-.202 1.152 1.152 0 0 1-.055-.275 2.458 2.458 0 0 1-.564.422 1.79 1.79 0 0 1-.367.156 1.268 1.268 0 0 1-.404.064c-.183 0-.345-.026-.486-.078a1.206 1.206 0 0 1-.358-.206c-.1-.09-.185-.19-.252-.303a2.046 2.046 0 0 1-.238-.734 3.073 3.073 0 0 1-.023-.362 3.5 3.5 0 0 1 .078-.73 3.251 3.251 0 0 1 .615-1.353 2.478 2.478 0 0 1 2.009-.99c.085 0 .169.01.251.032.086.018.166.044.239.078.073.03.14.065.202.105.06.04.113.081.156.124l.137-.225h.642a.855.855 0 0 0-.179.537l-.091.376a30.215 30.215 0 0 0-.266 1.215 28.927 28.927 0 0 0-.216 1.188c-.024.156-.037.27-.037.34 0 .165.036.278.106.34a.44.44 0 0 0 .298.09c.03 0 .075-.005.133-.017l.188-.05a25.354 25.354 0 0 1 .298-.083v.339m-4.89.01-.205.082c-.101.036-.214.076-.34.119-.125.04-.257.075-.394.105-.135.034-.257.05-.367.05-.144 0-.266-.016-.367-.05a.652.652 0 0 1-.248-.142.565.565 0 0 1-.142-.215.91.91 0 0 1-.041-.28c0-.095.009-.205.027-.33L110.19.647l-.835-.083V.28l1.468-.28h.363l-1.143 5.99a.411.411 0 0 0 .01.193.476.476 0 0 0 .087.165.5.5 0 0 0 .147.115c.058.03.12.045.188.045a.917.917 0 0 0 .178-.022 6.318 6.318 0 0 0 .44-.124c.068-.022.115-.035.143-.042v.358m-3.724-2.633c0-.21-.025-.388-.074-.532a1.22 1.22 0 0 0-.179-.357.666.666 0 0 0-.224-.198.444.444 0 0 0-.198-.06.986.986 0 0 0-.252.037c-.092.025-.186.06-.284.106-.095.043-.19.093-.285.151-.094.058-.182.121-.261.188l-.523 2.844c.03.046.072.09.124.133.052.043.111.083.179.12.067.033.14.06.22.082.08.021.162.032.248.032a.81.81 0 0 0 .408-.11c.131-.073.252-.173.362-.298.113-.126.216-.272.307-.44a3.778 3.778 0 0 0 .376-1.115c.037-.202.056-.396.056-.583m.93-.036a3.489 3.489 0 0 1-.266 1.303 3.38 3.38 0 0 1-.343.646 2.468 2.468 0 0 1-1.179.936c-.254.095-.54.142-.858.142a2.89 2.89 0 0 1-.789-.11 2.615 2.615 0 0 1-.715-.326L105.4.647l-.84-.083V.28L106.03 0h.367l-.537 2.844a2.509 2.509 0 0 1 .601-.395c.11-.052.223-.093.34-.124.116-.03.23-.045.344-.045.241 0 .445.053.61.16.165.107.298.245.399.413.104.168.177.355.22.56.046.201.069.4.069.596m-5.734-.77c.003-.016-.009-.051-.036-.106a1.333 1.333 0 0 0-.211-.33c-.04-.046-.074-.07-.101-.07-.239 0-.453.04-.642.12-.187.076-.35.182-.491.316-.14.132-.262.285-.362.459a2.983 2.983 0 0 0-.239.546c-.061.19-.105.38-.133.573a3.895 3.895 0 0 0-.041.55c0 .132.01.264.032.395.021.131.058.25.11.358a.735.735 0 0 0 .22.261c.095.067.216.101.362.101.11 0 .22-.024.33-.073a2.184 2.184 0 0 0 .555-.362c.071-.065.123-.114.157-.147l.49-2.592m1.381 3.431-.202.087a4.628 4.628 0 0 1-.697.23c-.122.033-.23.05-.321.05a.889.889 0 0 1-.289-.041.487.487 0 0 1-.193-.124.59.59 0 0 1-.114-.202 1.152 1.152 0 0 1-.055-.275 2.458 2.458 0 0 1-.564.422 1.79 1.79 0 0 1-.367.156 1.268 1.268 0 0 1-.404.064c-.184 0-.346-.026-.486-.078a1.206 1.206 0 0 1-.358-.206c-.1-.09-.185-.19-.252-.303a2.046 2.046 0 0 1-.239-.734 3.073 3.073 0 0 1-.023-.362c0-.242.026-.485.078-.73a3.251 3.251 0 0 1 .615-1.353 2.478 2.478 0 0 1 2.009-.99c.085 0 .17.01.252.032.086.018.165.044.239.078.073.03.14.065.201.105.062.04.114.081.156.124l.138-.225h.642a.855.855 0 0 0-.179.537 30.248 30.248 0 0 0-.358 1.592 28.95 28.95 0 0 0-.215 1.187c-.025.156-.037.27-.037.34 0 .165.035.278.106.34a.44.44 0 0 0 .298.09c.03 0 .075-.005.133-.017l.188-.05a25.4 25.4 0 0 1 .298-.083v.339m-5.793-3.683-.592 2.95a.396.396 0 0 0 .01.224c.024.064.062.12.114.165a.653.653 0 0 0 .418.138c.088 0 .18-.008.275-.023a4.844 4.844 0 0 0 .702-.206v.375a6.4 6.4 0 0 1-1.083.367c-.162.04-.31.06-.445.06-.171 0-.313-.021-.426-.064a.677.677 0 0 1-.27-.165.671.671 0 0 1-.148-.257c-.027-.101-.041-.21-.041-.326 0-.061.002-.124.005-.188.006-.064.016-.13.032-.197l.573-2.853-.592.055v-.307l.707-.312.458-.94h.574l-.188 1.073h1.298v.43h-1.38m-1.923 3.666-.202.087a4.868 4.868 0 0 1-.344.133c-.131.043-.27.08-.417.114-.144.034-.28.05-.408.05a.767.767 0 0 1-.385-.082.53.53 0 0 1-.211-.215.73.73 0 0 1-.078-.298c-.006-.11.001-.219.023-.326l.6-3.183-.807-.087v-.27l1.417-.294h.386l-.711 3.756a.463.463 0 0 0 0 .183c.015.059.038.11.069.156a.413.413 0 0 0 .123.106c.052.024.11.037.175.037.055 0 .119-.01.192-.028a4.816 4.816 0 0 0 .436-.147c.064-.024.112-.041.142-.05v.358M96.333.899c0 .07-.014.138-.041.202a.489.489 0 0 1-.11.165.518.518 0 0 1-.175.12.664.664 0 0 1-.243.04c-.192 0-.338-.05-.436-.15a.53.53 0 0 1-.11-.56.554.554 0 0 1 .303-.29.6.6 0 0 1 .252-.05.573.573 0 0 1 .413.165.502.502 0 0 1 .147.358m-2.55 5.807c-.08.04-.171.08-.275.119a3.397 3.397 0 0 1-.629.179c-.1.021-.188.032-.261.032a.635.635 0 0 1-.225-.041 1.092 1.092 0 0 1-.21-.097 1.093 1.093 0 0 1-.316-.307 3.342 3.342 0 0 1-.148-.248l-.17-.34a51.784 51.784 0 0 1-.514-1.114 5.073 5.073 0 0 0-.119-.261l-.431.385-.385 1.908h-.863L90.485.647l-.826-.083V.28L91.113 0h.377l-.872 4.366 1.518-1.568c.089-.092.17-.17.243-.234.074-.067.144-.12.211-.16a.79.79 0 0 1 .211-.092.785.785 0 0 1 .23-.032c.104 0 .194.015.27.045.08.031.144.07.193.12a.46.46 0 0 1 .147.344c0 .107-.05.218-.152.334-.098.114-.257.208-.477.285l-.32-.34a18.261 18.261 0 0 0-1.115.95 14.793 14.793 0 0 1 .28.683c.054.135.113.274.174.418.064.14.131.275.202.403.07.132.143.259.22.381.08.12.16.226.243.321.082.092.166.165.252.22.086.055.17.083.252.083a.996.996 0 0 0 .28-.042c.055-.012.109-.027.16-.045.056-.019.103-.037.143-.055v.32m-8.779-3.43c.006-.034-.01-.081-.046-.142a.922.922 0 0 0-.133-.188 1.054 1.054 0 0 0-.165-.166c-.055-.045-.1-.068-.133-.068a1.42 1.42 0 0 0-.725.197 1.943 1.943 0 0 0-.587.546 2.811 2.811 0 0 0-.399.82 3.534 3.534 0 0 0-.142 1.024c0 .177.017.337.05.481.037.144.088.266.152.367.067.101.148.179.243.234.095.055.2.083.316.083a.807.807 0 0 0 .28-.05c.095-.038.185-.085.27-.143.09-.058.177-.122.262-.193.086-.07.17-.142.252-.215l.505-2.587m-.133 5.1c-.01.052-.002.093.023.124.027.034.082.055.165.064l.583.05v.354h-2.367v-.353l.5-.05a.29.29 0 0 0 .151-.056.218.218 0 0 0 .083-.133l.385-1.954c-.217.18-.439.329-.665.445-.226.113-.45.17-.67.17-.19 0-.364-.037-.523-.11a1.108 1.108 0 0 1-.408-.321 1.607 1.607 0 0 1-.266-.532 2.544 2.544 0 0 1-.096-.739c0-.241.029-.484.087-.729.058-.245.14-.48.248-.706.107-.227.238-.438.394-.633.156-.2.332-.37.528-.514.195-.147.41-.261.642-.344.232-.086.478-.128.738-.128a1.48 1.48 0 0 1 .885.275l.225-.275h.564l-1.206 6.095m-3.43-1.724c-.038.015-.105.044-.203.087a4.868 4.868 0 0 1-.344.133c-.131.043-.27.08-.417.114-.144.034-.28.05-.408.05a.767.767 0 0 1-.385-.082.53.53 0 0 1-.211-.215.73.73 0 0 1-.078-.298c-.007-.11.001-.219.022-.326l.601-3.183-.807-.087v-.27l1.417-.294h.386l-.711 3.756a.463.463 0 0 0 0 .183c.015.059.038.11.069.156a.413.413 0 0 0 .123.106c.052.024.11.037.175.037.055 0 .119-.01.192-.028a4.815 4.815 0 0 0 .436-.147c.064-.024.112-.041.142-.05v.358m-3.775 1.32a.892.892 0 0 1-.105.436.966.966 0 0 1-.29.33c-.121.092-.264.161-.426.207a1.706 1.706 0 0 1-.724.06 3.855 3.855 0 0 1-.211-.033 1.573 1.573 0 0 1-.188-.036 2.993 2.993 0 0 1-.133-.032l.087-.376c.07.018.163.04.28.064.116.027.226.041.33.041.043 0 .1-.006.17-.018a.686.686 0 0 0 .201-.07.492.492 0 0 0 .175-.132.337.337 0 0 0 .073-.225.217.217 0 0 0-.032-.12.254.254 0 0 0-.17-.118.453.453 0 0 0-.11-.014.256.256 0 0 0-.096.023l-.202.1.193-1.027a1.637 1.637 0 0 1-.468-.11 1.276 1.276 0 0 1-.454-.34 1.616 1.616 0 0 1-.285-.55 2.51 2.51 0 0 1-.1-.743c0-.281.032-.55.096-.807.067-.257.159-.497.275-.72a3.02 3.02 0 0 1 .931-1.073c.187-.132.384-.233.592-.303a1.95 1.95 0 0 1 .628-.105c.168 0 .314.02.436.064a.945.945 0 0 1 .298.16.624.624 0 0 1 .17.216c.036.076.055.15.055.22 0 .061-.01.124-.028.188a.414.414 0 0 1-.11.179.749.749 0 0 1-.22.151 1.221 1.221 0 0 1-.362.092l-.537-.725a.898.898 0 0 0-.45.143 1.33 1.33 0 0 0-.348.32 2.117 2.117 0 0 0-.252.45 3.74 3.74 0 0 0-.257 1.005 3.874 3.874 0 0 0-.028.43c0 .154.014.305.042.455.03.147.078.28.142.399a.886.886 0 0 0 .257.284.68.68 0 0 0 .394.11c.125 0 .252-.021.38-.064.13-.046.258-.109.386-.188a3.18 3.18 0 0 0 .394-.284c.132-.11.265-.231.4-.363v.592c-.098.095-.21.196-.335.303a3.089 3.089 0 0 1-.418.298 2.535 2.535 0 0 1-.504.23 1.42 1.42 0 0 1-.225.054l-.087.496a.684.684 0 0 1 .142-.019c.419 0 .628.165.628.496m-4.201-4.734c.003-.015-.01-.05-.037-.105a1.333 1.333 0 0 0-.21-.33c-.04-.046-.074-.07-.102-.07-.238 0-.452.04-.642.12-.186.076-.35.182-.49.316-.141.132-.262.285-.363.459a2.983 2.983 0 0 0-.238.546c-.061.19-.106.38-.133.573a3.895 3.895 0 0 0-.042.55c0 .132.011.264.033.395.02.131.058.25.11.358a.735.735 0 0 0 .22.261c.095.067.215.101.362.101.11 0 .22-.024.33-.073a2.184 2.184 0 0 0 .555-.362 5.16 5.16 0 0 0 .156-.147l.491-2.592m1.38 3.431a7.225 7.225 0 0 1-.532.211c-.119.04-.241.075-.366.105-.123.034-.23.05-.321.05a.889.889 0 0 1-.29-.04.487.487 0 0 1-.192-.124.59.59 0 0 1-.115-.202 1.152 1.152 0 0 1-.055-.275 2.458 2.458 0 0 1-.564.422 1.79 1.79 0 0 1-.367.156 1.268 1.268 0 0 1-.403.064c-.184 0-.346-.026-.487-.078a1.206 1.206 0 0 1-.357-.206c-.101-.09-.185-.19-.253-.303a2.046 2.046 0 0 1-.238-.734 3.073 3.073 0 0 1-.023-.362 3.5 3.5 0 0 1 .078-.73 3.251 3.251 0 0 1 .615-1.353 2.478 2.478 0 0 1 2.009-.99c.085 0 .17.01.252.032.085.018.165.044.238.078.074.03.14.065.202.105.061.04.113.081.156.124l.138-.225h.642a.855.855 0 0 0-.179.537c-.022.082-.052.208-.092.376a30.244 30.244 0 0 0-.266 1.215 28.948 28.948 0 0 0-.215 1.188c-.025.156-.037.27-.037.34 0 .165.035.278.105.34a.44.44 0 0 0 .298.09c.031 0 .075-.005.133-.017l.189-.05a25.416 25.416 0 0 1 .298-.083v.339m-7.642.064c-.04.015-.11.04-.21.074l-.33.1a4.818 4.818 0 0 1-.377.088 1.646 1.646 0 0 1-.34.04c-.054 0-.13-.005-.229-.017a.875.875 0 0 1-.275-.074.505.505 0 0 1-.216-.165c-.055-.073-.068-.173-.04-.298l.573-2.885a.758.758 0 0 0 0-.312.413.413 0 0 0-.097-.197.319.319 0 0 0-.151-.106.478.478 0 0 0-.165-.032.79.79 0 0 0-.285.069 2.5 2.5 0 0 0-.353.174c-.122.074-.246.16-.371.262-.126.098-.24.202-.344.312l-.647 3.155h-.876l.816-3.99-.789-.087v-.27l1.418-.294h.376l-.175.876a3.736 3.736 0 0 1 .79-.597c.152-.082.31-.15.472-.201a1.6 1.6 0 0 1 .481-.078c.343 0 .586.094.73.284.146.19.183.495.11.917l-.5 2.651a.33.33 0 0 0 .018.211c.03.052.069.092.115.12.049.027.1.045.151.055.052.006.092.009.12.009.085 0 .178-.012.28-.037.1-.024.204-.053.311-.087l.01.33m-4.982-.037c-.058.034-.139.07-.243.11a3.48 3.48 0 0 1-.697.193 1.72 1.72 0 0 1-.335.037c-.177 0-.309-.03-.394-.092a.483.483 0 0 1-.18-.202.595.595 0 0 1-.04-.238l.004-.174a2.723 2.723 0 0 1-.78.532c-.269.116-.56.174-.876.174-.217 0-.394-.038-.532-.115a.818.818 0 0 1-.312-.289.923.923 0 0 1-.128-.38 1.266 1.266 0 0 1 .014-.39l.61-2.931-.79-.087v-.27l1.418-.294h.385L58.6 5.862a.416.416 0 0 0 .009.23.62.62 0 0 0 .115.187c.052.052.11.095.174.129.064.03.127.045.188.045.113 0 .226-.015.34-.045.116-.034.23-.078.343-.133.114-.056.222-.118.326-.189.104-.073.2-.15.289-.233l.71-3.459h.877l-.752 3.614a.482.482 0 0 0 0 .248.403.403 0 0 0 .096.16.411.411 0 0 0 .151.092.549.549 0 0 0 .166.028 1.115 1.115 0 0 0 .592-.17v.33M60.042.9c0 .07-.013.138-.04.202a.537.537 0 0 1-.478.325.498.498 0 0 1-.353-.156.6.6 0 0 1-.11-.165.475.475 0 0 1 0-.39.58.58 0 0 1 .11-.17.498.498 0 0 1 .16-.114.425.425 0 0 1 .193-.046.521.521 0 0 1 .477.316.475.475 0 0 1 .042.198m1.944 0c0 .07-.013.138-.041.202a.485.485 0 0 1-.27.284.507.507 0 0 1-.399 0 .498.498 0 0 1-.161-.114.58.58 0 0 1-.11-.17.507.507 0 0 1-.042-.202c0-.064.014-.127.042-.188a.553.553 0 0 1 .472-.326.521.521 0 0 1 .362.151c.046.047.082.102.106.166a.475.475 0 0 1 .041.197m-5.99 7.073a.892.892 0 0 1-.105.435.966.966 0 0 1-.29.33c-.122.092-.264.161-.426.207a1.706 1.706 0 0 1-.725.06 3.854 3.854 0 0 1-.21-.033 1.573 1.573 0 0 1-.189-.036 2.993 2.993 0 0 1-.133-.032l.088-.376c.07.018.163.04.28.064.116.027.226.041.33.041.042 0 .099-.006.17-.018a.686.686 0 0 0 .201-.07.492.492 0 0 0 .174-.132.337.337 0 0 0 .074-.225.217.217 0 0 0-.032-.12.254.254 0 0 0-.17-.118.453.453 0 0 0-.11-.014.256.256 0 0 0-.096.023l-.202.1.192-1.027a1.637 1.637 0 0 1-.467-.11 1.276 1.276 0 0 1-.455-.34 1.616 1.616 0 0 1-.284-.55 2.51 2.51 0 0 1-.1-.743c0-.28.031-.55.096-.807.067-.257.159-.497.275-.72a3.02 3.02 0 0 1 .93-1.073c.187-.132.385-.233.592-.303a1.95 1.95 0 0 1 .629-.105c.168 0 .313.02.436.064a.945.945 0 0 1 .298.16.624.624 0 0 1 .17.216c.036.076.054.15.054.22 0 .061-.009.124-.027.188a.414.414 0 0 1-.11.179.749.749 0 0 1-.22.151 1.221 1.221 0 0 1-.363.092l-.536-.725a.898.898 0 0 0-.45.143 1.33 1.33 0 0 0-.348.32 2.117 2.117 0 0 0-.253.45 3.74 3.74 0 0 0-.256 1.005 3.882 3.882 0 0 0-.028.43c0 .154.014.305.041.455.03.147.078.28.142.399a.886.886 0 0 0 .257.284.68.68 0 0 0 .395.11c.125 0 .252-.021.38-.064.129-.046.257-.108.386-.188a3.18 3.18 0 0 0 .394-.284c.132-.11.265-.231.4-.363v.592c-.099.095-.21.196-.336.303a3.089 3.089 0 0 1-.417.298 2.535 2.535 0 0 1-.505.23 1.42 1.42 0 0 1-.224.054l-.087.496a.684.684 0 0 1 .142-.019c.419 0 .628.165.628.496m-2.82-1.276c-.059.034-.14.07-.244.11a3.48 3.48 0 0 1-.697.193 1.72 1.72 0 0 1-.335.037c-.177 0-.309-.03-.394-.092a.483.483 0 0 1-.179-.202.595.595 0 0 1-.041-.238c.003-.08.004-.138.004-.174a2.723 2.723 0 0 1-.78.532c-.269.116-.56.174-.876.174-.217 0-.394-.038-.532-.115a.818.818 0 0 1-.311-.289.923.923 0 0 1-.129-.38 1.266 1.266 0 0 1 .014-.39l.61-2.931-.789-.087v-.27l1.417-.294h.386l-.748 3.582a.416.416 0 0 0 .01.23c.027.07.065.132.114.187.052.052.11.095.174.129.064.03.127.045.188.045.113 0 .226-.015.34-.045.116-.034.23-.078.344-.133.113-.056.221-.118.325-.189.104-.073.2-.15.29-.233l.71-3.459h.876l-.752 3.614a.482.482 0 0 0 0 .248.403.403 0 0 0 .096.16.411.411 0 0 0 .152.092.549.549 0 0 0 .165.028 1.115 1.115 0 0 0 .592-.17v.33M50.997.9c0 .07-.013.138-.04.202a.537.537 0 0 1-.478.325.498.498 0 0 1-.353-.156.6.6 0 0 1-.11-.165.475.475 0 0 1 0-.39.58.58 0 0 1 .11-.17.498.498 0 0 1 .16-.114.425.425 0 0 1 .193-.046.521.521 0 0 1 .477.316A.475.475 0 0 1 51 .9m1.944 0c0 .07-.013.138-.04.202a.485.485 0 0 1-.27.284.507.507 0 0 1-.399 0 .498.498 0 0 1-.162-.114.58.58 0 0 1-.11-.17.507.507 0 0 1-.041-.202c0-.064.013-.127.04-.188a.553.553 0 0 1 .472-.326.521.521 0 0 1 .362.151c.048.047.083.102.107.166a.475.475 0 0 1 .041.197m-8.852 2.34c.003-.016-.009-.051-.036-.106a1.333 1.333 0 0 0-.211-.33c-.04-.046-.074-.07-.101-.07-.239 0-.453.04-.642.12-.187.076-.35.182-.491.316-.14.132-.262.285-.363.459a2.983 2.983 0 0 0-.238.546c-.061.19-.106.38-.133.573a3.895 3.895 0 0 0-.041.55c0 .132.01.264.032.395.021.132.058.25.11.358a.735.735 0 0 0 .22.261c.095.067.216.101.362.101.11 0 .22-.024.33-.073a2.184 2.184 0 0 0 .555-.362l.157-.147.49-2.592m1.38 3.431a7.225 7.225 0 0 1-.532.211c-.118.04-.24.075-.366.105-.122.034-.23.05-.321.05a.889.889 0 0 1-.29-.04.487.487 0 0 1-.192-.124.59.59 0 0 1-.114-.202 1.152 1.152 0 0 1-.055-.275 2.458 2.458 0 0 1-.564.422 1.79 1.79 0 0 1-.368.156 1.268 1.268 0 0 1-.403.064c-.184 0-.346-.026-.486-.078a1.206 1.206 0 0 1-.358-.206c-.101-.09-.185-.19-.252-.303a2.046 2.046 0 0 1-.239-.734 3.073 3.073 0 0 1-.023-.362 3.5 3.5 0 0 1 .078-.73 3.251 3.251 0 0 1 .615-1.353 2.478 2.478 0 0 1 2.009-.99c.085 0 .17.01.252.032.086.018.165.044.238.078.074.03.141.065.202.105.061.04.113.081.156.124l.138-.225h.642a.855.855 0 0 0-.179.537 30.244 30.244 0 0 0-.358 1.592 28.948 28.948 0 0 0-.215 1.187c-.025.156-.037.27-.037.34 0 .165.035.278.106.34a.44.44 0 0 0 .298.09c.03 0 .075-.005.133-.017l.188-.05a25.416 25.416 0 0 1 .298-.083v.339M40.38 3.041c-.037.037-.09.104-.16.202a6.178 6.178 0 0 0-.441.71 4.36 4.36 0 0 0-.17.34c-.067.15-.147.332-.238.546-.089.214-.19.445-.303.692-.11.245-.231.5-.362.766a12.67 12.67 0 0 1-.422.776c-.147.247-.305.49-.473.729-.165.241-.34.455-.527.642-.187.19-.384.34-.592.454a1.284 1.284 0 0 1-.642.174c-.171 0-.314-.021-.427-.064a.794.794 0 0 1-.27-.16.478.478 0 0 1-.138-.202.457.457 0 0 1 .01-.399.552.552 0 0 1 .132-.175.717.717 0 0 1 .207-.119.873.873 0 0 1 .257-.055l.545.546a.574.574 0 0 0 .29-.12c.094-.067.194-.169.297-.307.107-.137.224-.31.35-.518.124-.208.267-.457.426-.747a32.766 32.766 0 0 0-.394-1.981c-.05-.221-.102-.441-.157-.661a11.122 11.122 0 0 0-.156-.601 6.864 6.864 0 0 0-.133-.436c-.04-.113-.07-.171-.091-.174l-.854-.064V2.6l.129-.042c.061-.021.128-.042.202-.064a7.33 7.33 0 0 1 .234-.073 3.2 3.2 0 0 1 .233-.069 2.705 2.705 0 0 1 .33-.073c.102 0 .19.024.267.073a.635.635 0 0 1 .202.202c.06.088.116.195.165.32.052.123.1.262.146.418.08.278.163.624.248 1.037.086.41.174.867.266 1.371l1.431-3.421h.27l.78.256v.216l-.467.289m-4.477 3.692c-.04.015-.11.04-.21.074l-.331.1a4.819 4.819 0 0 1-.376.088 1.646 1.646 0 0 1-.34.04c-.055 0-.131-.005-.229-.017a.875.875 0 0 1-.275-.074.505.505 0 0 1-.216-.165c-.055-.073-.069-.173-.041-.298l.573-2.885a.758.758 0 0 0 0-.312.413.413 0 0 0-.096-.197.319.319 0 0 0-.151-.106.478.478 0 0 0-.165-.032.79.79 0 0 0-.285.069 2.5 2.5 0 0 0-.353.174c-.122.074-.246.16-.372.262-.125.098-.24.202-.344.312l-.646 3.155h-.876l.816-3.99-.789-.087v-.27l1.418-.294h.376l-.175.876a3.736 3.736 0 0 1 .79-.597c.152-.082.31-.15.472-.201a1.6 1.6 0 0 1 .481-.078c.343 0 .586.094.73.284.146.19.183.495.11.917l-.5 2.651a.33.33 0 0 0 .018.211c.03.052.069.092.115.12.049.027.099.045.151.055.052.006.092.009.12.009.085 0 .178-.012.28-.037.1-.024.204-.053.311-.087l.01.33m-4.982-.037c-.058.034-.14.07-.243.11a3.48 3.48 0 0 1-.697.193 1.72 1.72 0 0 1-.335.037c-.177 0-.309-.03-.394-.092a.483.483 0 0 1-.18-.202.595.595 0 0 1-.04-.238l.004-.174a2.723 2.723 0 0 1-.78.532c-.269.116-.56.174-.876.174-.217 0-.394-.038-.532-.115a.818.818 0 0 1-.312-.289.923.923 0 0 1-.128-.38 1.266 1.266 0 0 1 .014-.39l.61-2.931-.79-.087v-.27l1.418-.294h.385L27.3 5.862a.416.416 0 0 0 .009.23c.027.07.066.132.114.187.052.052.11.095.175.129.064.03.127.045.188.045.113 0 .226-.015.34-.045.115-.034.23-.078.343-.133.113-.056.222-.118.326-.189.104-.073.2-.15.289-.233l.71-3.459h.877l-.752 3.614a.482.482 0 0 0 0 .248.403.403 0 0 0 .096.16.411.411 0 0 0 .151.092.549.549 0 0 0 .165.028 1.115 1.115 0 0 0 .592-.17v.33M28.744.9c0 .07-.013.138-.04.202a.537.537 0 0 1-.478.325.498.498 0 0 1-.353-.156.6.6 0 0 1-.11-.165.475.475 0 0 1 0-.39.58.58 0 0 1 .11-.17.498.498 0 0 1 .16-.114.425.425 0 0 1 .193-.046.521.521 0 0 1 .477.316.475.475 0 0 1 .041.198m1.945 0c0 .07-.014.138-.041.202a.485.485 0 0 1-.27.284.507.507 0 0 1-.399 0 .498.498 0 0 1-.161-.114.58.58 0 0 1-.11-.17.507.507 0 0 1-.042-.202c0-.064.014-.127.042-.188a.553.553 0 0 1 .472-.326.521.521 0 0 1 .362.151c.046.047.081.102.106.166a.475.475 0 0 1 .041.197m-5.724 5.215a.376.376 0 0 0 .014.216c.024.055.056.099.096.133a.42.42 0 0 0 .23.082.705.705 0 0 0 .128-.023 12.534 12.534 0 0 0 .417-.119l.129-.037v.349a7.143 7.143 0 0 1-.202.078c-.098.033-.207.069-.326.105-.119.037-.243.07-.371.097a1.567 1.567 0 0 1-.33.04.962.962 0 0 1-.354-.054.503.503 0 0 1-.215-.142.573.573 0 0 1-.11-.225 1.36 1.36 0 0 1-.028-.284 3.235 3.235 0 0 1-.275.261 1.864 1.864 0 0 1-.674.38 1.184 1.184 0 0 1-.386.065c-.263 0-.481-.05-.655-.151a1.174 1.174 0 0 1-.409-.395 1.687 1.687 0 0 1-.215-.541 3.033 3.033 0 0 1-.06-.596 3.512 3.512 0 0 1 .316-1.459c.108-.23.238-.442.39-.637.153-.196.328-.366.523-.51a2.37 2.37 0 0 1 .652-.344c.241-.082.5-.123.775-.123.07 0 .139.007.206.022a1.782 1.782 0 0 1 .363.106c.051.021.097.038.137.05l.317-1.811-.854-.083V.28L25.648 0h.386l-1.069 6.114m-.367-2.894c.003-.012-.015-.046-.055-.101a1.052 1.052 0 0 0-.147-.179 1.248 1.248 0 0 0-.192-.165.351.351 0 0 0-.198-.073c-.229 0-.448.067-.655.201a1.905 1.905 0 0 0-.55.546 2.938 2.938 0 0 0-.382.826 3.534 3.534 0 0 0-.142 1.023c0 .201.02.376.06.522.043.147.098.268.165.363a.7.7 0 0 0 .239.21.583.583 0 0 0 .545.005c.101-.042.202-.099.303-.17.1-.073.2-.155.298-.247.101-.095.194-.191.28-.289l.431-2.472m-7.641.055c.006-.034-.01-.081-.046-.142a.922.922 0 0 0-.133-.188 1.054 1.054 0 0 0-.165-.165c-.055-.046-.1-.07-.133-.07a1.42 1.42 0 0 0-.725.198 1.943 1.943 0 0 0-.587.546 2.811 2.811 0 0 0-.4.82 3.534 3.534 0 0 0-.141 1.024c0 .177.017.337.05.481.037.144.087.266.152.367.067.101.148.179.243.234.094.055.2.083.316.083a.807.807 0 0 0 .28-.05c.095-.038.185-.085.27-.143.09-.058.176-.122.262-.193.086-.07.17-.142.252-.215l.505-2.587m-.133 5.1c-.01.052-.002.093.023.124.027.034.082.055.165.064l.582.05v.354h-2.366v-.353l.5-.05a.29.29 0 0 0 .15-.056.218.218 0 0 0 .083-.133l.386-1.954c-.217.18-.439.329-.665.445-.227.113-.45.17-.67.17-.19 0-.364-.037-.523-.11a1.108 1.108 0 0 1-.408-.321 1.607 1.607 0 0 1-.266-.532 2.544 2.544 0 0 1-.096-.739c0-.241.029-.484.087-.729.058-.245.14-.48.247-.706.107-.227.239-.438.395-.633.156-.2.332-.37.527-.514.196-.147.41-.261.642-.344.233-.086.479-.128.739-.128a1.48 1.48 0 0 1 .885.275l.225-.275h.564l-1.206 6.095m-3.431-1.724-.202.087a4.869 4.869 0 0 1-.344.133c-.131.043-.27.08-.417.114-.144.034-.28.05-.408.05a.767.767 0 0 1-.386-.082.53.53 0 0 1-.21-.215.73.73 0 0 1-.079-.298c-.006-.11.002-.219.023-.326l.601-3.183-.807-.087v-.27l1.417-.294h.385l-.71 3.756a.463.463 0 0 0 0 .183c.015.059.038.11.068.156a.413.413 0 0 0 .124.106c.052.024.11.037.174.037.055 0 .12-.01.193-.028a4.815 4.815 0 0 0 .436-.147 2.33 2.33 0 0 1 .142-.05v.358M9.618 7.97a.892.892 0 0 1-.105.436.966.966 0 0 1-.29.33c-.122.092-.264.161-.426.207a1.706 1.706 0 0 1-.725.06 3.855 3.855 0 0 1-.21-.033 1.573 1.573 0 0 1-.189-.036 2.993 2.993 0 0 1-.133-.032l.088-.376c.07.018.163.04.28.064.116.027.226.041.33.041.042 0 .099-.006.17-.018a.686.686 0 0 0 .201-.07.492.492 0 0 0 .174-.132.337.337 0 0 0 .074-.225.217.217 0 0 0-.032-.12.254.254 0 0 0-.17-.118.453.453 0 0 0-.11-.014.256.256 0 0 0-.096.023l-.202.1.192-1.027a1.637 1.637 0 0 1-.467-.11 1.276 1.276 0 0 1-.455-.34 1.616 1.616 0 0 1-.284-.55 2.51 2.51 0 0 1-.1-.743c0-.28.031-.55.096-.807.067-.257.159-.497.275-.72a3.02 3.02 0 0 1 .93-1.073c.187-.132.385-.233.592-.303a1.95 1.95 0 0 1 .629-.105c.168 0 .313.02.436.064a.945.945 0 0 1 .298.16.624.624 0 0 1 .17.216c.036.076.054.15.054.22 0 .061-.009.124-.027.188a.414.414 0 0 1-.11.179.749.749 0 0 1-.22.151 1.221 1.221 0 0 1-.363.092l-.536-.725a.898.898 0 0 0-.45.143 1.33 1.33 0 0 0-.348.32 2.117 2.117 0 0 0-.253.45 3.74 3.74 0 0 0-.256 1.005 3.88 3.88 0 0 0-.028.43c0 .154.014.305.041.455.03.147.078.28.142.399a.886.886 0 0 0 .257.284.68.68 0 0 0 .395.11c.125 0 .252-.021.38-.064.129-.046.257-.108.386-.188a3.18 3.18 0 0 0 .394-.284c.132-.11.265-.231.4-.363v.592c-.099.095-.21.196-.336.303a3.088 3.088 0 0 1-.417.298 2.535 2.535 0 0 1-.505.23 1.42 1.42 0 0 1-.224.054l-.087.496a.685.685 0 0 1 .142-.019c.419 0 .628.165.628.496M4.013 1.624l-1.39 2.44h1.794l-.404-2.44m.16 5.297v-.394l.432-.046c.138-.018.197-.078.179-.179l-.285-1.793H2.371l-.958 1.793c-.034.061-.035.104-.005.128a.402.402 0 0 0 .184.05l.43.047v.394H0v-.394l.527-.055L3.995.468h.752l1.014 5.834c.009.061.026.106.05.133.025.025.07.04.138.046l.431.046v.394H4.174"/></svg>