<svg xmlns="http://www.w3.org/2000/svg" width="118" height="13"><path fill="#000" fill-rule="nonzero" d="M4.59.876c.02.16.042.353.063.578.025.22.048.412.07.577.02.161.048.335.082.52l-.4.077a5.629 5.629 0 0 0-.171-.501 2.415 2.415 0 0 0-.222-.445 1.341 1.341 0 0 0-.33-.38 1.444 1.444 0 0 0-.464-.242 2.042 2.042 0 0 0-.647-.095c-.42 0-.762.142-1.029.425-.266.28-.4.622-.4 1.029 0 .757.589 1.347 1.765 1.77.25.09.47.178.66.267.195.085.398.201.61.35.216.143.393.298.533.463a2.237 2.237 0 0 1 .489 1.416c0 .672-.265 1.26-.794 1.764a2.656 2.656 0 0 1-1.898.755c-.393 0-.81-.032-1.25-.095a7.646 7.646 0 0 0-1.01-.095C.228 8.557.145 7.863 0 6.932l.4-.038c.258 1.231.994 1.847 2.209 1.847.5 0 .882-.136 1.149-.406.266-.271.4-.67.4-1.194a2.15 2.15 0 0 0-.108-.717 1.31 1.31 0 0 0-.324-.52 2.023 2.023 0 0 0-.444-.343 4.213 4.213 0 0 0-.565-.267A10.44 10.44 0 0 1 2 4.996a6.25 6.25 0 0 1-.654-.362 2.886 2.886 0 0 1-.572-.476 2.27 2.27 0 0 1-.368-.603 2.067 2.067 0 0 1-.146-.781 2 2 0 0 1 .375-1.187c.25-.351.556-.616.92-.793A2.536 2.536 0 0 1 2.691.52c.356 0 .635.02.838.063.203.042.387.095.553.159.165.063.334.108.507.133m2.274 7.268V1.758c0-.402-.031-.67-.095-.806-.06-.14-.159-.21-.298-.21L6.057.718c-.055 0-.082-.02-.082-.063L5.949.343c.271-.021.59-.066.959-.134.368-.071.635-.141.8-.209.11 0 .165.044.165.133-.026.347-.038.802-.038 1.365v6.646c0 .19.038.326.114.406.076.08.22.131.431.153l.312.025c.071 0 .107.034.107.102v.247l-.025.026c-.872-.017-1.354-.026-1.447-.026-.08 0-.552.008-1.416.026L5.9 9.077V8.83c0-.068.03-.102.088-.102l.311-.025c.216-.022.364-.072.445-.153.08-.08.12-.216.12-.406m2.51-1.733c0-.91.236-1.644.71-2.202.474-.56 1.134-.838 1.98-.838.373 0 .712.059 1.016.177.305.115.557.27.756.464.203.19.372.414.507.673.14.254.24.516.299.787.06.27.089.546.089.825 0 .338-.057.675-.172 1.01-.11.33-.27.638-.482.926a2.32 2.32 0 0 1-.844.705 2.631 2.631 0 0 1-1.194.266 2.64 2.64 0 0 1-1.149-.247 2.347 2.347 0 0 1-.844-.654 2.992 2.992 0 0 1-.673-1.892m2.546-2.609a1.1 1.1 0 0 0-.832.356 1.96 1.96 0 0 0-.476.85 4.294 4.294 0 0 0-.076 1.771c.042.229.11.464.203.705.093.241.205.457.336.647.132.19.299.347.502.47.207.119.434.178.68.178.164 0 .319-.028.462-.083.149-.059.292-.158.432-.298.144-.144.258-.36.343-.647.085-.288.127-.635.127-1.041 0-.944-.148-1.664-.444-2.159-.297-.499-.716-.749-1.257-.749m5.168 4.355c.157.194.305.345.445.45a.814.814 0 0 0 .495.16c.592 0 1.043-.24 1.352-.718.313-.478.47-1.107.47-1.885 0-.627-.14-1.154-.42-1.581-.279-.427-.617-.641-1.015-.641a1.92 1.92 0 0 0-.298.025c-.11.013-.271.064-.483.153a1.636 1.636 0 0 0-.546.368v3.669m-.971-6.399c0-.402-.032-.67-.095-.806-.06-.14-.159-.21-.299-.21L15.31.718c-.055 0-.083-.02-.083-.063l-.025-.311c.267-.021.586-.068.958-.14.377-.072.644-.14.8-.203.11 0 .165.044.165.133-.025.347-.038.802-.038 1.365v2.59c.44-.478.97-.717 1.587-.717.284 0 .56.061.832.184a2.318 2.318 0 0 1 1.25 1.314c.131.326.197.679.197 1.06 0 .495-.087.954-.26 1.377-.17.423-.392.77-.667 1.041-.275.271-.58.483-.914.635-.334.148-.67.222-1.01.222-.532 0-.983-.159-1.351-.476a3.13 3.13 0 0 1-.425.508.457.457 0 0 1-.273-.07c.042-.237.063-.573.063-1.01V1.759m5.753 4.653c0-.91.237-1.644.71-2.202.474-.56 1.135-.838 1.981-.838.372 0 .71.059 1.016.177.304.115.556.27.755.464.203.19.372.414.508.673.14.254.239.516.298.787.06.27.089.546.089.825a3.34 3.34 0 0 1-.654 1.936 2.32 2.32 0 0 1-.844.705 2.631 2.631 0 0 1-1.193.266 2.64 2.64 0 0 1-1.15-.247 2.347 2.347 0 0 1-.844-.654 2.992 2.992 0 0 1-.673-1.892m2.546-2.609a1.1 1.1 0 0 0-.832.356 1.96 1.96 0 0 0-.476.85 4.294 4.294 0 0 0-.076 1.771c.043.229.11.464.203.705.093.241.206.457.337.647.13.19.298.347.501.47.208.119.434.178.68.178.164 0 .319-.028.463-.083.148-.059.292-.158.431-.298.144-.144.259-.36.343-.647.085-.288.127-.635.127-1.041 0-.944-.148-1.664-.444-2.159-.296-.499-.715-.749-1.257-.749m7.714 4.05V4.59c-.165-.258-.345-.448-.54-.57-.194-.128-.438-.191-.73-.191-.52 0-.924.215-1.212.647-.241.347-.362.923-.362 1.727 0 .761.14 1.352.42 1.77.283.415.615.623.996.623.338 0 .814-.248 1.428-.743m.977-6.354v6.068c0 .322.02.525.058.61.038.084.127.133.266.146l.629.063.038.305c-.842.148-1.397.33-1.663.546h-.305l.032-.914-.032-.013c-.736.597-1.325.895-1.765.895-.685 0-1.22-.256-1.606-.768-.385-.512-.577-1.178-.577-2 0-.943.29-1.705.87-2.285.274-.262.564-.457.869-.584a2.744 2.744 0 0 1 1.08-.196c.143 0 .331.027.564.082.237.055.425.123.565.203V1.758c0-.402-.03-.67-.089-.806-.06-.14-.159-.21-.298-.21l-.42-.025c-.05 0-.075-.02-.075-.063l-.026-.311c.271-.021.59-.066.959-.134.368-.071.634-.141.8-.209.11 0 .165.044.165.133-.026.347-.039.802-.039 1.365m3.176 1.873-.038 1.155h.038c.385-.453.74-.758 1.066-.914.33-.161.682-.241 1.054-.241.284 0 .52.05.71.152.196.102.344.252.445.45.102.195.172.409.21.642.042.228.063.5.063.812v2.717c0 .186.04.322.12.406.081.08.223.132.426.153l.248.025c.076.017.114.05.114.102v.247l-.025.026a70.97 70.97 0 0 0-1.39-.026c-.166 0-.595.008-1.29.026l-.025-.026V8.83c0-.055.036-.09.108-.102l.178-.025c.216-.034.362-.09.438-.165.08-.08.12-.212.12-.394V5.332c0-.482-.059-.825-.177-1.028-.114-.208-.336-.311-.667-.311-.3 0-.584.074-.85.222-.267.148-.559.408-.876.78v3.15c0 .185.038.316.114.393.08.076.229.13.444.165l.185.025c.067.013.101.047.101.102v.247l-.025.026a73.844 73.844 0 0 0-1.327-.026c-.207 0-.658.008-1.352.026l-.025-.026V8.83c0-.055.033-.09.101-.102l.248-.025c.216-.022.362-.072.438-.153.08-.08.12-.216.12-.406V4.907c0-.31-.023-.517-.07-.622-.042-.11-.114-.172-.215-.184l-.559-.057-.025-.312c.83-.126 1.428-.26 1.796-.4.034 0 .05.013.05.039m8.33 2.678-1.028.273c-.838.229-1.257.705-1.257 1.429 0 .232.085.446.254.64.17.191.404.286.705.286.296 0 .677-.188 1.142-.565a.39.39 0 0 0 .185-.336V6.049m0 2.406h-.026l-.26.203c-.288.225-.523.37-.705.438-.177.072-.414.108-.71.108-.491 0-.883-.112-1.175-.336-.292-.225-.438-.58-.438-1.067 0-.431.193-.812.578-1.142.39-.335.903-.582 1.542-.743l1.117-.273c.051-.017.077-.068.077-.152a3.49 3.49 0 0 0-.07-.743 1.907 1.907 0 0 0-.172-.508.858.858 0 0 0-.254-.292.835.835 0 0 0-.558-.19c-.28 0-.53.05-.75.152-.22.102-.33.248-.33.438 0 .119.01.203.026.254a.577.577 0 0 1 .038.235c0 .102-.053.199-.158.292a.587.587 0 0 1-.413.14c-.3 0-.45-.153-.45-.457 0-.229.103-.455.31-.68.208-.224.478-.406.813-.546a2.548 2.548 0 0 1 1.015-.215c.208 0 .396.017.565.05.174.034.347.1.52.197.174.093.318.218.433.375.118.156.213.37.285.64.076.267.114.578.114.934V7.8c.005.072.011.159.02.26.012.098.03.176.05.235.021.055.049.113.083.172.038.059.087.101.146.127a.577.577 0 0 0 .216.038.456.456 0 0 0 .361-.152c.03-.034.053-.051.07-.051.026 0 .055.02.09.063a.191.191 0 0 1 .056.127c0 .017-.017.047-.05.09a2.024 2.024 0 0 1-.375.311c-.085.05-.186.092-.305.126-.114.038-.23.057-.349.057-.512 0-.838-.25-.977-.749m6.655-3.11h2.387c.122 0 .184-.06.184-.178 0-.258-.034-.48-.102-.666a.898.898 0 0 0-.266-.42.966.966 0 0 0-.343-.203 1.052 1.052 0 0 0-.368-.063c-.085 0-.17.006-.254.02-.08.007-.19.041-.33.1a1.19 1.19 0 0 0-.375.235 1.77 1.77 0 0 0-.317.458 2.423 2.423 0 0 0-.216.717m3.428 2.494c.135.013.222.083.26.21a2.885 2.885 0 0 1-.952.844 2.537 2.537 0 0 1-1.244.311c-.847 0-1.488-.254-1.924-.762-.431-.507-.647-1.16-.647-1.955 0-.474.076-.912.228-1.314.153-.402.352-.732.597-.99.246-.258.519-.457.819-.597a2.15 2.15 0 0 1 .927-.215c.33 0 .622.044.876.133.254.089.457.205.61.35.156.139.283.31.38.513.097.203.163.407.197.61.038.203.057.42.057.653 0 .149-.078.223-.235.223h-3.421c0 .372.04.715.12 1.028.085.309.19.565.318.768.13.203.279.377.444.52.17.14.334.242.495.305.16.064.317.095.47.095.351 0 .651-.057.901-.171.25-.118.491-.305.724-.559m2.667-4.468-.038 1.155h.038c.385-.453.74-.758 1.067-.914.33-.161.681-.241 1.053-.241.284 0 .521.05.711.152.195.102.343.252.445.45.101.195.171.409.21.642.042.228.063.5.063.812v2.717c0 .186.04.322.12.406.08.08.222.132.426.153l.247.025c.076.017.114.05.114.102v.247l-.025.026a70.97 70.97 0 0 0-1.39-.026c-.165 0-.595.008-1.289.026l-.025-.026V8.83c0-.055.036-.09.108-.102l.178-.025c.215-.034.361-.09.438-.165.08-.08.12-.212.12-.394V5.332c0-.482-.06-.825-.178-1.028-.114-.208-.336-.311-.666-.311-.3 0-.584.074-.85.222-.267.148-.56.408-.877.78v3.15c0 .185.038.316.115.393.08.076.228.13.444.165l.184.025c.068.013.102.047.102.102v.247l-.026.026a73.845 73.845 0 0 0-1.326-.026c-.208 0-.659.008-1.353.026l-.025-.026V8.83c0-.055.034-.09.102-.102l.247-.025c.216-.022.362-.072.438-.153.08-.08.12-.216.12-.406V4.907c0-.31-.022-.517-.069-.622-.042-.11-.114-.172-.216-.184l-.558-.057-.026-.312c.83-.126 1.428-.26 1.797-.4.033 0 .05.013.05.039m9.695 4.526a3.158 3.158 0 0 1-.673.812c-.237.199-.468.33-.692.394a2.57 2.57 0 0 1-.755.101c-.804 0-1.43-.258-1.88-.774-.444-.517-.666-1.202-.666-2.057 0-.448.074-.863.222-1.244.149-.38.347-.698.597-.952a2.7 2.7 0 0 1 .857-.59 2.488 2.488 0 0 1 1.016-.216c.596 0 1.068.13 1.415.393.347.258.52.57.52.933a.5.5 0 0 1-.19.413.673.673 0 0 1-.419.146c-.279 0-.436-.152-.47-.457a2.288 2.288 0 0 0-.063-.337 1.31 1.31 0 0 0-.133-.304.551.551 0 0 0-.273-.254 1.048 1.048 0 0 0-.457-.09c-.44.001-.804.206-1.092.617-.283.406-.425.958-.425 1.656 0 .754.16 1.367.482 1.841.326.47.74.705 1.244.705.284 0 .565-.08.845-.241.279-.165.518-.392.717-.68.135.017.226.079.273.184m1.436-5.789a.598.598 0 0 1-.184-.438c0-.169.061-.315.184-.438a.588.588 0 0 1 .438-.19c.17 0 .315.061.438.184.127.123.19.271.19.444 0 .17-.063.316-.19.438a.598.598 0 0 1-.438.185.598.598 0 0 1-.438-.185m1.04 1.264c-.029.588-.044 1.1-.043 1.536v3.237c0 .186.04.322.12.406.085.08.229.132.432.153l.241.025c.08.013.12.047.12.102v.247l-.025.026a70.97 70.97 0 0 0-1.39-.026c-.207 0-.658.008-1.352.026l-.025-.026V8.83c0-.055.033-.09.101-.102l.248-.025c.22-.03.368-.083.444-.159.076-.08.114-.214.114-.4V4.907c0-.31-.023-.517-.07-.622-.042-.11-.114-.172-.215-.184l-.559-.057-.025-.312c.871-.13 1.48-.264 1.828-.4.038 0 .057.013.057.039m2.179-1.613c0-.402-.03-.67-.09-.806-.058-.14-.158-.21-.297-.21l-.42-.025c-.05 0-.076-.02-.076-.063l-.025-.311a8.65 8.65 0 0 0 .952-.14c.373-.072.64-.14.8-.203.114 0 .171.044.171.133-.025.347-.038.802-.038 1.365v4.5c.339-.084.906-.562 1.701-1.434.051-.05.098-.106.14-.165.047-.064.087-.138.12-.222.035-.085.016-.157-.056-.216-.068-.064-.193-.1-.375-.108-.068 0-.102-.036-.102-.108v-.247c.026-.008.039-.017.039-.026.643.017 1.03.026 1.161.026.11 0 .487-.008 1.13-.026l.05.026v.247c0 .055-.048.091-.145.108l-.089.013c-.195.03-.415.1-.66.21a1.93 1.93 0 0 0-.59.4l-.984 1.09a.18.18 0 0 0-.051.134c0 .064.021.123.063.178l1.517 2.247c.11.165.254.296.432.394.178.097.36.162.546.196l.089.013c.08.013.12.047.12.102v.247l-.025.026a39.87 39.87 0 0 0-1.104-.026c-.237 0-.53.008-.876.026l-.039-.026V8.83c0-.178-.099-.413-.298-.705l-.946-1.333c-.127-.186-.245-.311-.355-.374a.794.794 0 0 0-.413-.096v1.822c0 .22.047.368.14.444.093.072.241.119.444.14.068 0 .102.034.102.102v.247l-.026.026a88.704 88.704 0 0 0-1.168-.026c-.03 0-.476.008-1.339.026l-.025-.026V8.83c0-.055.03-.09.089-.102l.247-.025c.216-.022.362-.072.438-.153.08-.08.12-.216.12-.406V1.758m6.217 6.386V1.758c0-.402-.032-.67-.096-.806-.059-.14-.158-.21-.298-.21l-.412-.025c-.055 0-.083-.02-.083-.063l-.025-.311c.27-.021.59-.066.958-.134.368-.071.635-.141.8-.209.11 0 .165.044.165.133-.025.347-.038.802-.038 1.365v6.646c0 .19.038.326.114.406.076.08.22.131.432.153l.31.025c.073 0 .109.034.109.102v.247l-.026.026c-.871-.017-1.354-.026-1.447-.026-.08 0-.552.008-1.415.026l-.013-.026V8.83c0-.068.03-.102.089-.102l.31-.025c.217-.022.365-.072.445-.153.08-.08.12-.216.12-.406m2.51-1.733c0-.91.237-1.644.71-2.202.474-.56 1.135-.838 1.981-.838.372 0 .71.059 1.016.177.304.115.556.27.755.464.203.19.372.414.508.673.14.254.239.516.298.787.06.27.089.546.089.825a3.34 3.34 0 0 1-.654 1.936 2.32 2.32 0 0 1-.844.705 2.631 2.631 0 0 1-1.193.266 2.64 2.64 0 0 1-1.15-.247 2.347 2.347 0 0 1-.844-.654 2.992 2.992 0 0 1-.673-1.892m2.546-2.609a1.1 1.1 0 0 0-.832.356 1.96 1.96 0 0 0-.476.85 4.294 4.294 0 0 0-.076 1.771c.042.229.11.464.203.705.093.241.206.457.337.647.13.19.298.347.501.47.208.119.434.178.68.178.164 0 .319-.028.463-.083.148-.059.292-.158.431-.298.144-.144.259-.36.343-.647.085-.288.127-.635.127-1.041 0-.944-.148-1.664-.444-2.159-.296-.499-.715-.749-1.257-.749m5.194 1.232v3.174c.317.372.677.558 1.079.558.267 0 .504-.049.71-.146.213-.101.382-.23.509-.387s.23-.343.31-.559a2.83 2.83 0 0 0 .172-.64 4.76 4.76 0 0 0 .045-.66c0-.716-.144-1.296-.432-1.74-.284-.445-.63-.667-1.041-.667-.237 0-.489.098-.755.292-.263.19-.462.449-.597.775m-.971-.127c0-.305-.024-.512-.07-.622-.047-.11-.119-.172-.216-.184l-.559-.057-.025-.312c.808-.122 1.405-.256 1.79-.4.034 0 .05.013.05.039l-.037 1.04h.038c.457-.693 1.026-1.04 1.707-1.04.407 0 .78.125 1.118.374.338.25.6.578.787.984.186.406.279.838.279 1.295 0 1.02-.305 1.839-.914 2.457-.478.482-1.083.723-1.815.723-.42 0-.807-.095-1.162-.285v2.253c0 .182.04.313.12.393.085.085.227.136.426.153l.247.025c.08.013.121.047.121.102v.247l-.025.026a60.053 60.053 0 0 0-1.39-.026c-.267 0-.718.008-1.353.026l-.031-.026v-.247c0-.055.036-.09.108-.102l.247-.025c.207-.017.351-.068.432-.152.084-.08.127-.212.127-.394V4.907m6.857.438h2.386c.123 0 .185-.06.185-.178 0-.258-.034-.48-.102-.666a.898.898 0 0 0-.267-.42.966.966 0 0 0-.342-.203 1.052 1.052 0 0 0-.369-.063c-.084 0-.169.006-.253.02-.08.007-.19.041-.33.1a1.19 1.19 0 0 0-.375.235 1.77 1.77 0 0 0-.317.458 2.423 2.423 0 0 0-.216.717m3.427 2.494c.136.013.223.083.26.21a2.885 2.885 0 0 1-.951.844 2.537 2.537 0 0 1-1.245.311c-.846 0-1.487-.254-1.923-.762-.432-.507-.647-1.16-.647-1.955 0-.474.076-.912.228-1.314.153-.402.351-.732.597-.99.245-.258.518-.457.819-.597a2.15 2.15 0 0 1 .926-.215c.33 0 .623.044.876.133.254.089.457.205.61.35.156.139.283.31.38.513.098.203.164.407.197.61.039.203.058.42.058.653 0 .149-.079.223-.235.223h-3.422c0 .372.04.715.12 1.028.085.309.191.565.318.768.131.203.28.377.445.52.169.14.334.242.495.305.16.064.317.095.47.095.35 0 .651-.057.9-.171.25-.118.492-.305.724-.559m5.042.013V4.59c-.165-.258-.345-.448-.54-.57-.194-.128-.437-.191-.73-.191-.52 0-.924.215-1.212.647-.241.347-.362.923-.362 1.727 0 .761.14 1.352.42 1.77.283.415.615.623.996.623.338 0 .814-.248 1.428-.743m.978-6.354v6.068c0 .322.019.525.057.61.038.084.127.133.266.146l.629.063.038.305c-.842.148-1.397.33-1.663.546h-.305l.032-.914-.032-.013c-.736.597-1.324.895-1.765.895-.685 0-1.22-.256-1.606-.768-.385-.512-.577-1.178-.577-2 0-.943.29-1.705.87-2.285.275-.262.564-.457.87-.584a2.744 2.744 0 0 1 1.078-.196c.144 0 .332.027.565.082.237.055.425.123.565.203V1.758c0-.402-.03-.67-.089-.806-.059-.14-.159-.21-.298-.21l-.42-.025c-.05 0-.075-.02-.075-.063l-.026-.311c.271-.021.59-.066.959-.134.368-.071.635-.141.8-.209.11 0 .165.044.165.133a19.51 19.51 0 0 0-.039 1.365m6.853 1.835c.033 0 .05.012.05.038a57.876 57.876 0 0 0-.037 1.536v2.742c0 2.086-.316 3.385-.946 3.897a1.654 1.654 0 0 1-.476.28c-.17.067-.299.106-.388.114a3.524 3.524 0 0 1-.323.013.781.781 0 0 1-.445-.159.478.478 0 0 1-.228-.419c0-.106.044-.197.133-.273.09-.076.174-.114.254-.114.106 0 .199.017.28.05.08.035.137.066.17.096.035.034.075.08.121.14.098.14.197.209.299.209a.262.262 0 0 0 .19-.083.589.589 0 0 0 .14-.253c.042-.119.078-.237.108-.356.03-.118.053-.28.07-.482a20.423 20.423 0 0 0 .063-1.098c.004-.246.006-.434.006-.565v-3.74c0-.312-.023-.522-.07-.628-.042-.11-.116-.169-.222-.177l-.559-.057-.025-.311c.86-.132 1.47-.265 1.835-.4Zm-3.55 0c.038 0 .057.012.057.038-.03.588-.044 1.1-.044 1.536v3.237c0 .186.04.322.12.406.085.08.229.132.432.153l.241.025c.08.013.12.047.12.102v.247l-.025.026a85.615 85.615 0 0 0-1.304-.025h-.086c-.207 0-.658.007-1.352.025l-.025-.026V8.83c0-.055.034-.09.101-.102l.248-.025c.22-.03.368-.083.444-.159.076-.08.114-.214.114-.4V4.907c0-.31-.023-.517-.07-.622-.042-.11-.114-.172-.215-.184l-.559-.057-.025-.312c.872-.13 1.481-.264 1.828-.4Zm-.546-2.292c.17 0 .315.061.438.184.127.123.19.271.19.444 0 .17-.063.316-.19.438a.598.598 0 0 1-.438.185.598.598 0 0 1-.438-.185.598.598 0 0 1-.184-.438c0-.169.061-.315.184-.438a.589.589 0 0 1 .438-.19Zm3.55 0c.17 0 .315.064.438.19a.598.598 0 0 1 .184.438c0 .17-.061.316-.184.438a.598.598 0 0 1-.438.185.598.598 0 0 1-.438-.185.598.598 0 0 1-.184-.438c0-.169.061-.315.184-.438a.588.588 0 0 1 .438-.19Zm5.302 5.008-1.028.273c-.838.229-1.257.705-1.257 1.429 0 .232.084.446.254.64.169.191.404.286.704.286.296 0 .677-.188 1.143-.565a.39.39 0 0 0 .184-.336V6.049m0 2.406h-.026l-.26.203c-.288.225-.522.37-.704.438-.178.072-.415.108-.711.108-.491 0-.883-.112-1.175-.336-.292-.225-.438-.58-.438-1.067 0-.431.193-.812.578-1.142.39-.335.903-.582 1.542-.743l1.118-.273c.05-.017.076-.068.076-.152 0-.284-.023-.531-.07-.743a1.908 1.908 0 0 0-.171-.508.858.858 0 0 0-.254-.292.835.835 0 0 0-.559-.19c-.28 0-.529.05-.749.152-.22.102-.33.248-.33.438 0 .119.008.203.025.254a.576.576 0 0 1 .039.235c0 .102-.053.199-.16.292a.587.587 0 0 1-.412.14c-.3 0-.45-.153-.45-.457 0-.229.103-.455.31-.68.208-.224.479-.406.813-.546a2.548 2.548 0 0 1 1.016-.215c.207 0 .395.017.565.05.173.034.347.1.52.197.174.093.318.218.432.375.118.156.214.37.285.64.077.267.115.578.115.934V7.8c.004.072.01.159.019.26.012.098.03.176.05.235.022.055.05.113.083.172.038.059.087.101.146.127a.577.577 0 0 0 .216.038.456.456 0 0 0 .362-.152c.03-.034.053-.051.07-.051.025 0 .054.02.088.063a.191.191 0 0 1 .057.127c0 .017-.016.047-.05.09a2.026 2.026 0 0 1-.375.311c-.084.05-.186.092-.305.126-.114.038-.23.057-.349.057-.512 0-.838-.25-.977-.749"/></svg>