<svg width="118.93" height="10" xmlns="http://www.w3.org/2000/svg"><g stroke-width=".2" aria-label="თავისუფალი ენციკლოპედია"><path d="M1.811 6.286q-.895 0-1.35-.576-.456-.575-.456-1.67 0-2.23 1.806-2.23.464 0 .84.24.383.239.511.607h.032q.128-.368.472-.608t.767-.24q.791 0 1.223.576.432.567.432 1.686 0 .4-.104.792-.096.392-.288.711-.184.32-.44.512-.255.184-.567.184-.192 0-.264-.096-.072-.096-.072-.272.4-.032.616-.52.215-.487.215-1.342 0-.504-.071-.912-.064-.407-.24-.647-.176-.24-.488-.24-.368 0-.56.304-.191.296-.191.975v.512q0 2.254-1.823 2.254zm.016-.44q.376 0 .576-.232.208-.24.28-.647.08-.408.08-.936 0-.56-.08-.959-.072-.4-.28-.607-.2-.216-.576-.216-.52 0-.72.448-.2.44-.2 1.342 0 .92.2 1.367.2.44.72.44zM8.64 6.286q-.832 0-1.303-.4-.472-.408-.472-1.031 0-.336.176-.608.184-.271.487-.271.192 0 .384.12-.096.183-.136.36-.032.167-.032.39 0 .448.24.728.24.272.656.272.423 0 .647-.288.232-.296.232-.791 0-.448-.192-.728-.192-.287-.432-.52-.255-.239-.48-.51-.215-.273-.215-.68 0-.248.128-.384.136-.136.36-.136.255 0 .383.104-.112.176-.112.4 0 .28.16.48.168.191.392.375.208.176.416.384.215.208.351.495.144.288.144.704 0 .488-.232.831-.231.336-.64.52-.399.184-.91.184zM12.897 8.206q-.568 0-.992-.208-.415-.208-.647-.584-.224-.367-.224-.855 0-.384.208-.655.208-.28.504-.28.183 0 .383.12-.104.191-.16.407-.056.208-.056.48 0 .296.104.552.104.263.32.423.216.16.552.16.511 0 .76-.368.247-.367.247-1.015 0-.743-.28-1.111-.28-.376-.791-.376h-.344v-.463h.344q.487 0 .711-.312.232-.312.232-.807 0-.432-.224-.744-.216-.32-.655-.32-.4 0-.624.264-.224.256-.224.616 0 .16.016.288.024.12.096.287-.184.08-.343.08-.264 0-.44-.216-.168-.223-.168-.535 0-.312.224-.592.232-.28.615-.455t.848-.176q.575 0 .967.224.392.223.591.56.208.335.208.679 0 .487-.335.855-.328.368-.88.504v.04q.368.055.672.271.311.208.495.576.192.36.192.863 0 .552-.24.96t-.671.63q-.424.233-.991.233zM16.754 6.266q-.288 0-.512-.2-.224-.2-.376-.528-.152-.327-.231-.711-.08-.392-.08-.76 0-1.087.487-1.67.496-.592 1.4-.592.91 0 1.39.584.488.583.488 1.678 0 .368-.088.76-.08.384-.24.711-.152.328-.376.528-.216.2-.495.2-.128 0-.208-.072-.072-.072-.072-.168.32-.16.447-.672.128-.511.128-1.287 0-.87-.24-1.342-.231-.48-.743-.48t-.743.488q-.232.48-.232 1.334 0 .784.128 1.295.128.504.447.664 0 .096-.08.168-.071.072-.2.072zM22.243 6.286q-.888 0-1.36-.536-.47-.535-.47-1.519V1.01q0-.272-.137-.4-.128-.136-.471-.136h-.032v-.36h1.518v4.181q0 .808.248 1.183.256.368.712.368.487 0 .743-.352.256-.36.256-.91 0-.377-.12-.608-.12-.24-.272-.464-.144-.224-.264-.48-.112-.255-.112-.663 0-.256.128-.408.136-.152.36-.152.256 0 .384.104-.112.176-.112.4 0 .288.104.496.112.2.256.383.136.168.255.352.128.176.208.424.088.24.088.575 0 .472-.224.871-.223.392-.655.632-.424.24-1.031.24zM26.827 8.206q-.624 0-1.072-.232-.447-.224-.687-.624-.24-.391-.24-.887 0-.304.104-.551.112-.248.28-.392.176-.144.376-.144.175 0 .383.12-.112.192-.184.44-.072.24-.072.607 0 .512.264.863.264.36.848.36.607 0 .91-.384.313-.375.313-1.079V2.93q0-.352-.136-.536-.136-.184-.376-.184-.512 0-.512.72v1.247h-.823V2.61q0-.16-.072-.264-.064-.104-.208-.104-.112 0-.216.072-.103.072-.191.168-.088.08-.208.144-.12.056-.296.056-.144 0-.304-.096t-.16-.336q0-.327.328-.44.064.105.168.153.112.04.208.04.16 0 .312-.08.16-.08.407-.08.232 0 .408.112.184.112.272.335h.032q.12-.247.375-.36.264-.12.552-.12.64 0 .983.4.344.4.344 1.112v2.805q0 .968-.544 1.52-.535.559-1.566.559zM33.786 8.206q-.6 0-1.08-.168-.48-.168-.759-.456-.272-.288-.272-.655 0-.296.16-.432.168-.136.384-.136.208 0 .384.112-.016.08-.024.16t-.008.16q0 .384.295.68.304.295.912.295.655 0 .959-.368.312-.36.312-.95 0-.568-.232-.912-.224-.344-.616-.344h-.184v-.464h.192q.488 0 .72-.327t.232-.928q0-.56-.2-.895-.192-.336-.624-.336-.36 0-.551.296-.192.296-.192.927v.304q0 .895-.456 1.415-.447.52-1.367.52-.6 0-.999-.24-.4-.248-.607-.68-.2-.44-.2-1.007 0-.919.447-1.439.456-.527 1.36-.527.463 0 .839.248t.503.615h.04q.128-.368.456-.615.336-.248.791-.248.528 0 .895.232.368.231.56.6t.192.774q0 .6-.336.992-.328.391-.88.527v.04q.552.08.832.48.288.4.288.991 0 .52-.272.911-.272.4-.76.624-.487.224-1.134.224zm-1.999-2.95q.376 0 .576-.216.208-.224.28-.567.08-.344.08-.704 0-.423-.08-.767-.072-.352-.28-.552-.2-.2-.576-.2-.52 0-.72.416-.199.408-.199 1.111 0 .672.2 1.08.2.399.72.399zM38.632 6.286q-.832 0-1.303-.4-.472-.408-.472-1.031 0-.336.176-.608.184-.271.487-.271.192 0 .384.12-.096.183-.136.36-.032.167-.032.39 0 .448.24.728.24.272.656.272.423 0 .647-.288.232-.296.232-.791 0-.448-.192-.728-.192-.287-.432-.52-.255-.239-.48-.51-.215-.273-.215-.68 0-.248.128-.384.136-.136.36-.136.255 0 .383.104-.112.176-.112.4 0 .28.16.48.168.191.392.375.208.176.416.384.215.208.351.495.144.288.144.704 0 .488-.232.831-.231.336-.64.52-.399.184-.91.184zM47.504 1.806q.583 0 .935.295.352.296.512.808.167.503.167 1.127 0 .384-.088.767-.08.376-.24.688-.16.304-.383.495-.224.184-.496.184-.128 0-.216-.072-.08-.08-.08-.2.6-.263.6-1.862 0-.871-.16-1.327-.16-.456-.631-.456-.4 0-.544.328t-.144 1.111v1.055h-.871V3.692q0-.783-.16-1.111-.16-.328-.512-.328-.375 0-.535.328-.152.328-.152 1.111v1.055h-.871V3.692q0-.783-.152-1.111-.144-.328-.52-.328-.344 0-.52.248-.167.24-.223.632-.048.391-.048.83 0 .688.224 1.16.231.472.6.775.375.304.815.48.447.176.87.264.48.096.888.256.408.167.656.391.255.224.255.488 0 .216-.16.32-.151.104-.383.104 0-.256-.192-.448-.184-.184-.48-.304-.295-.12-.615-.176-.32-.056-.584-.056-.52 0-.895.072-.376.08-.647.256l-.176-.264q.184-.184.503-.295.328-.112.6-.128v-.032q-.6-.208-1.095-.576-.496-.36-.792-.92-.295-.567-.295-1.366 0-.991.415-1.575.424-.583 1.2-.583.439 0 .743.24.311.24.431.607h.032q.112-.368.368-.608.264-.24.735-.24.44 0 .704.24.272.24.392.608h.032q.12-.368.415-.608.296-.24.768-.24zM51.164 6.266q-.288 0-.512-.2-.224-.2-.376-.528-.152-.327-.231-.711-.08-.392-.08-.76 0-1.087.487-1.67.496-.592 1.4-.592.91 0 1.39.584.488.583.488 1.678 0 .368-.088.76-.08.384-.24.711-.152.328-.376.528-.216.2-.495.2-.128 0-.208-.072-.072-.072-.072-.168.32-.16.447-.672.128-.511.128-1.287 0-.87-.24-1.342-.231-.48-.743-.48-.511 0-.743.488-.232.48-.232 1.334 0 .784.128 1.295.128.504.447.664 0 .096-.08.168-.071.072-.2.072zM58.398 8.206q-.864 0-1.327-.472t-.464-1.27q0-.305.104-.552.104-.248.272-.392.176-.144.376-.144.183 0 .383.128-.112.184-.184.431-.072.24-.072.608 0 .344.08.624.088.28.288.44.2.167.544.167.503 0 .72-.392.223-.383.223-1.159V3.481q0-.56-.224-.895-.224-.344-.663-.344-.392 0-.616.288-.224.288-.224.72 0 .367.136.695-.168.08-.336.08-.271 0-.455-.248t-.184-.623q0-.368.224-.672.232-.312.607-.487.384-.184.848-.184.575 0 .967.24.4.24.6.663.2.424.2.975v2.526q0 .951-.488 1.471-.48.52-1.335.52zM63.308 6.286q-.88 0-1.375-.544-.488-.543-.488-1.687V1.681q0-.767.432-1.167.431-.407 1.11-.407.193 0 .329.016t.263.048q.112.024.208.04.104.008.232.008.152 0 .288-.04.144-.048.208-.16.327.088.327.4 0 .247-.151.351-.152.096-.32.096-.192 0-.368-.056-.168-.064-.328-.144-.128-.056-.287-.096-.152-.04-.36-.04-.272 0-.488.216-.216.208-.216.656v.223q0 .184-.016.424-.008.24-.032.432h.048q.176-.296.464-.48.288-.192.743-.192.808 0 1.215.552.416.551.416 1.686 0 1.152-.464 1.695-.455.544-1.39.544zm0-.44q.52 0 .735-.424.216-.431.216-1.35 0-.856-.216-1.296-.208-.447-.703-.447-.592 0-.808.455-.208.456-.208 1.28 0 .927.208 1.358.208.424.776.424zM68.366 8.206q-1.12 0-1.743-.8Q66 6.607 66 4.936q0-.76.175-1.35.176-.6.448-1.032.28-.44.592-.735l.4.296q-.169.303-.328.679-.16.368-.272.887-.104.512-.104 1.255 0 .872.128 1.503.128.64.44.983.32.344.887.344.6 0 .903-.36.304-.36.304-1.007 0-.735-.28-1.071-.272-.336-.775-.336h-.32v-.471h.352q.463 0 .671-.176.216-.176.216-.504 0-.248-.152-.408-.152-.167-.352-.32-.184-.143-.336-.335-.151-.2-.151-.52 0-.207.135-.327.136-.12.352-.12.112 0 .192.032.08.024.136.072-.056.144-.056.271 0 .232.152.4.16.16.36.296.223.152.423.344.2.191.2.511 0 .384-.264.64-.264.247-.831.36v.04q.567.071.895.495.336.416.336 1.103 0 .847-.56 1.335-.551.496-1.55.496zM72.429 6.266q-.288 0-.512-.2-.224-.2-.376-.528-.152-.327-.231-.711-.08-.392-.08-.76 0-1.087.487-1.67.496-.592 1.4-.592.91 0 1.39.584.488.583.488 1.678 0 .368-.088.76-.08.384-.24.711-.152.328-.376.528-.216.2-.495.2-.128 0-.208-.072-.072-.072-.072-.168.32-.16.447-.672.128-.511.128-1.287 0-.87-.24-1.342-.231-.48-.743-.48t-.743.488q-.232.48-.232 1.334 0 .784.128 1.295.128.504.447.664 0 .096-.08.168-.071.072-.2.072zM77.047 8.206q-.568 0-.976-.208-.407-.208-.631-.584-.216-.367-.216-.855 0-.384.208-.655.208-.28.504-.28.175 0 .383.12-.112.191-.168.407-.048.208-.048.48 0 .296.096.552.096.263.296.423.208.16.544.16.511 0 .735-.376.232-.375.232-1.087 0-.76-.28-1.167-.272-.416-.791-.416h-.344v-.455h.344q.487 0 .711-.272.232-.28.232-.751 0-.424-.232-.704-.224-.288-.655-.288V1.86q.575 0 .967.192.392.191.591.503.208.304.208.64 0 .535-.327.871t-.88.416v.04q.368.088.672.311.311.224.495.592.192.368.192.887 0 .592-.24 1.015-.231.424-.655.648-.416.232-.967.232zM85.88 1.806q.583 0 .935.295.352.296.511.808.168.503.168 1.127 0 .384-.088.767-.08.376-.24.688-.16.304-.383.495-.224.184-.496.184-.128 0-.216-.072-.08-.08-.08-.2.6-.263.6-1.862 0-.871-.16-1.327t-.631-.456q-.4 0-.544.328t-.144 1.111v1.055h-.871V3.692q0-.783-.16-1.111t-.512-.328q-.375 0-.535.328-.152.328-.152 1.111v1.055h-.871V3.692q0-.783-.152-1.111-.144-.328-.52-.328-.344 0-.52.248-.167.24-.223.632-.048.391-.048.83 0 .688.224 1.16.231.472.6.775.375.304.815.48.447.176.87.264.48.096.888.256.408.167.656.391.255.224.255.488 0 .216-.16.32-.151.104-.383.104 0-.256-.192-.448-.184-.184-.48-.304-.295-.12-.615-.176-.32-.056-.584-.056-.52 0-.895.072-.376.08-.647.256l-.176-.264q.184-.184.503-.295.328-.112.6-.128v-.032q-.6-.208-1.095-.576-.496-.36-.792-.92-.295-.567-.295-1.366 0-.991.415-1.575.424-.583 1.2-.583.439 0 .743.24.311.24.431.607h.032q.112-.368.368-.608.264-.24.735-.24.44 0 .704.24.272.24.392.608h.032q.12-.368.415-.608.296-.24.768-.24zM89.54 6.266q-.28 0-.504-.192-.216-.192-.376-.512-.152-.32-.24-.711-.08-.4-.08-.808 0-1.047.424-1.638.432-.6 1.24-.6.463 0 .775.24t.431.608h.032q.12-.368.432-.608.32-.24.783-.24.576 0 .944.304.367.296.535.807.176.504.176 1.127 0 .416-.088.816-.08.392-.24.711-.16.32-.383.512-.216.184-.488.184-.136 0-.216-.08-.08-.08-.08-.2.312-.136.448-.6.144-.463.144-1.342 0-.864-.184-1.327-.176-.464-.64-.464-.407 0-.567.336-.16.335-.16 1.11v1.048h-.871V3.7q0-.776-.16-1.111-.152-.336-.552-.336-.367 0-.543.256-.176.248-.232.655-.056.408-.056.88 0 .879.144 1.342.144.464.447.608 0 .112-.08.192-.071.08-.215.08zM96.724 6.286q-.536 0-.952-.176-.407-.184-.647-.504-.232-.328-.232-.751 0-.344.176-.608.184-.271.488-.271.191 0 .383.12-.088.175-.128.343-.04.16-.04.376.008.487.256.76.248.271.68.271.447 0 .711-.288.264-.288.264-.935 0-.623-.272-.943-.272-.32-.76-.32h-.343v-.472h.344q.471 0 .68-.175.215-.176.215-.504 0-.304-.2-.48-.2-.184-.44-.343-.255-.16-.463-.36-.208-.208-.208-.56 0-.208.136-.327.136-.12.352-.12.207 0 .327.104-.056.143-.056.271 0 .224.168.376.176.144.408.28.2.12.4.264.207.144.343.335.136.184.136.456 0 .384-.264.64-.255.247-.823.36v.04q.568.071.895.47.328.4.328.984 0 .52-.232.895-.232.376-.647.584-.416.208-.983.208zM101.054 8.206q-.864 0-1.327-.472t-.464-1.27q0-.305.104-.552.104-.248.272-.392.176-.144.375-.144.184 0 .384.128-.112.184-.184.431-.072.24-.072.608 0 .344.08.624.088.28.288.44.2.167.544.167.503 0 .719-.392.224-.383.224-1.159V3.481q0-.56-.224-.895-.224-.344-.663-.344-.392 0-.616.288t-.224.72q0 .367.136.695-.168.08-.336.08-.271 0-.455-.248t-.184-.623q0-.368.224-.672.232-.312.607-.487.384-.184.848-.184.575 0 .967.24.4.24.6.663.2.424.2.975v2.526q0 .951-.488 1.471-.48.52-1.335.52zM108.184 6.176q-.92 0-1.375-.552-.448-.551-.448-1.615v-.487q0-.68-.192-.975-.192-.304-.551-.304-.32 0-.496.248t-.248.64q-.064.39-.064.83 0 .696.184 1.176.192.471.512.775.32.304.711.488.4.183.816.303.431.112.815.272.384.16.623.36.248.2.248.447 0 .216-.16.32-.151.104-.383.104 0-.256-.184-.448-.176-.183-.464-.303-.28-.12-.615-.176-.336-.056-.648-.056-.415 0-.743.072-.32.08-.584.256l-.176-.264q.176-.184.464-.296.296-.112.568-.128v-.032q-.544-.24-.976-.607-.423-.368-.671-.92-.24-.551-.24-1.342 0-1.016.432-1.583.431-.568 1.223-.568.44 0 .775.248t.464.616h.032q.128-.368.503-.616.384-.248.848-.248 1.806 0 1.806 2.206 0 1.032-.463 1.6-.456.559-1.343.559zm-.016-3.925q-.376 0-.584.216-.2.207-.28.6-.072.39-.072.942 0 .488.072.88.08.383.28.615.2.232.584.232.511 0 .711-.432.208-.44.208-1.287 0-.879-.208-1.319-.2-.447-.711-.447zM112.034 6.266q-.288 0-.512-.2t-.376-.528-.231-.711q-.08-.392-.08-.76 0-1.087.487-1.67.496-.592 1.4-.592.91 0 1.39.584.488.583.488 1.678 0 .368-.088.76-.08.384-.24.711-.152.328-.376.528-.216.2-.495.2-.128 0-.208-.072-.072-.072-.072-.168.32-.16.447-.672.128-.511.128-1.287 0-.87-.24-1.342-.231-.48-.743-.48-.511 0-.743.488-.232.48-.232 1.334 0 .784.128 1.295.128.504.447.664 0 .096-.08.168-.071.072-.2.072zM117.144 6.286q-.832 0-1.303-.4-.472-.408-.472-1.031 0-.336.176-.608.184-.271.487-.271.192 0 .384.12-.096.183-.136.36-.032.167-.032.39 0 .448.24.728.24.272.656.272.423 0 .647-.288.232-.296.232-.791 0-.448-.192-.728-.192-.287-.432-.52-.255-.239-.48-.51-.215-.273-.215-.68 0-.248.128-.384.136-.136.36-.136.255 0 .383.104-.112.176-.112.4 0 .28.16.48.168.191.392.375.208.176.416.384.215.208.351.495.144.288.144.704 0 .488-.232.831-.231.336-.64.52-.399.184-.91.184z"/></g></svg>