<svg xmlns="http://www.w3.org/2000/svg" width="120" height="26"><path fill="#000" fill-rule="nonzero" d="M14.991 18.79c0 1.135-.2 2.134-.599 2.996-.399.861-.93 1.581-1.592 2.16a6.788 6.788 0 0 1-2.27 1.308 7.818 7.818 0 0 1-2.6.441 9.663 9.663 0 0 1-3.106-.489 8.438 8.438 0 0 1-2.522-1.308 6.272 6.272 0 0 1-1.687-1.97A4.93 4.93 0 0 1 0 19.515c0-.81.12-1.487.363-2.034a3.852 3.852 0 0 1 1.008-1.371 4.8 4.8 0 0 1 1.514-.836c.578-.21 1.203-.373 1.876-.489l.362 1.04a4.23 4.23 0 0 0-.725.71 3.39 3.39 0 0 0-.489.852 4.438 4.438 0 0 0-.268 1.056c-.052.399-.078.85-.078 1.355 0 .789.084 1.435.252 1.94.178.514.446.919.804 1.213.368.294.825.5 1.371.615.557.116 1.22.173 1.986.173.6 0 1.11-.105 1.53-.315.43-.21.783-.51 1.056-.898.283-.379.494-.841.63-1.388.137-.536.205-1.14.205-1.813l.016-2.096c0-.799-.095-1.466-.284-2.002-.178-.547-.43-.983-.756-1.309a2.733 2.733 0 0 0-1.104-.725 4.027 4.027 0 0 0-1.34-.22H6.59V11.35h1.482c.41 0 .81-.063 1.198-.19a2.76 2.76 0 0 0 1.04-.614c.316-.284.563-.657.741-1.12.19-.462.284-1.024.284-1.686 0-.914-.068-1.66-.205-2.238-.126-.578-.336-1.03-.63-1.356a2.21 2.21 0 0 0-1.135-.662c-.463-.126-1.025-.19-1.687-.19-.589 0-1.135.048-1.64.143a3.347 3.347 0 0 0-1.292.488 2.382 2.382 0 0 0-.867.978c-.21.41-.315.935-.315 1.576 0 .252.136.504.41.757.273.252.656.441 1.15.567l-1.056 2.759a2.352 2.352 0 0 1-.898-.268 3.133 3.133 0 0 1-.71-.583 4.36 4.36 0 0 1-.552-.757 5.636 5.636 0 0 1-.63-1.64 3.301 3.301 0 0 1-.079-.662c0-.809.158-1.545.473-2.207A4.913 4.913 0 0 1 3.027 2.76c.578-.473 1.266-.836 2.065-1.088.798-.263 1.676-.394 2.632-.394.852 0 1.692.105 2.522.315.841.2 1.593.515 2.255.946a5.05 5.05 0 0 1 1.608 1.624c.42.651.63 1.424.63 2.317 0 .914-.126 1.681-.378 2.301a4.654 4.654 0 0 1-1.009 1.561c-.42.42-.899.757-1.435 1.009-.525.242-1.066.447-1.623.615.546.22 1.098.483 1.655.788a6.205 6.205 0 0 1 1.513 1.135c.452.441.82.967 1.104 1.576.284.61.425 1.33.425 2.16v1.166m12.283-6.149c0 1.21-.207 2.312-.622 3.304a6.338 6.338 0 0 1-1.846 2.499h-1.264v-.877c.224-.061.428-.146.612-.255a1.43 1.43 0 0 0 .49-.53c.135-.238.24-.555.315-.949.082-.4.123-.918.123-1.55v-1.387c0-.843-.038-1.536-.113-2.08-.068-.55-.197-.986-.387-1.305a1.482 1.482 0 0 0-.795-.673c-.334-.13-.765-.194-1.296-.194-.462 0-.846.051-1.152.153-.299.095-.54.296-.724.602-.177.306-.302.74-.377 1.305-.068.564-.102 1.312-.102 2.243v1.132c0 .633.024 1.156.071 1.57.048.415.126.755.235 1.02.115.259.265.456.449.592.183.136.407.238.673.306v.877h-1.387a7.177 7.177 0 0 1-1.744-2.499c-.401-.965-.602-2.05-.602-3.253 0-.788.11-1.509.327-2.161.224-.66.537-1.224.938-1.693a4.181 4.181 0 0 1 1.468-1.101 4.567 4.567 0 0 1 1.927-.398c.721 0 1.374.13 1.958.387a4.215 4.215 0 0 1 1.51 1.071c.421.462.744 1.02.968 1.672.231.653.347 1.377.347 2.172m11.42 5.854c0 .87-.135 1.6-.407 2.192-.265.592-.625 1.067-1.08 1.428a4.168 4.168 0 0 1-1.571.785 6.948 6.948 0 0 1-1.856.245 5.42 5.42 0 0 1-1.06-.113 5.85 5.85 0 0 1-1.092-.316 5.094 5.094 0 0 1-1.03-.53 4.24 4.24 0 0 1-.866-.765 3.663 3.663 0 0 1-.592-1 3.35 3.35 0 0 1-.214-1.223c0-.55.095-1.01.285-1.376a2.74 2.74 0 0 1 .745-.908c.299-.238.625-.415.979-.53.36-.123.707-.21 1.04-.265l.255.724c-.15.142-.286.292-.408.448a2.544 2.544 0 0 0-.316.53c-.089.191-.16.409-.214.653a4.409 4.409 0 0 0-.072.836c0 .544.048.983.143 1.316.102.34.258.602.47.785.217.184.489.306.815.367.333.068.73.102 1.193.102.585 0 1.047-.078 1.387-.234.34-.15.595-.384.765-.704.176-.32.285-.724.326-1.213.048-.483.071-1.061.071-1.734v-.5c0-.353-.044-.707-.132-1.06a4.268 4.268 0 0 0-.337-.969 2.357 2.357 0 0 0-.479-.693c-.184-.177-.374-.265-.571-.265h-2.702v-1.183c.265 0 .547-.034.846-.102a5.7 5.7 0 0 0 .908-.306c.299-.136.584-.293.856-.47.272-.183.51-.383.714-.6.21-.225.377-.46.5-.705.122-.251.183-.51.183-.775s-.017-.489-.05-.673a.838.838 0 0 0-.225-.458c-.109-.123-.275-.211-.5-.266a3.758 3.758 0 0 0-.877-.081c-.258 0-.49.037-.693.112-.197.068-.418.21-.663.428l-.724-1.866a4.18 4.18 0 0 1 .418-.102c.15-.034.292-.058.428-.071a4.831 4.831 0 0 1 .653-.051c1.21 0 2.131.265 2.763.795.633.53.949 1.261.949 2.193 0 .408-.095.764-.286 1.07a2.97 2.97 0 0 1-.754.826c-.313.245-.68.473-1.102.684-.414.21-.85.421-1.305.632h1.112c.428 0 .846.126 1.254.377.408.252.768.574 1.08.969.313.394.565.833.755 1.315.19.476.286.942.286 1.397v.898M50.4 12.64c0 1.21-.207 2.312-.622 3.304a6.338 6.338 0 0 1-1.845 2.499h-1.265v-.877c.224-.061.428-.146.612-.255a1.43 1.43 0 0 0 .49-.53c.135-.238.24-.555.316-.949.081-.4.122-.918.122-1.55v-1.387c0-.843-.038-1.536-.112-2.08-.068-.55-.197-.986-.388-1.305a1.482 1.482 0 0 0-.795-.673c-.333-.13-.765-.194-1.295-.194-.462 0-.847.051-1.152.153-.3.095-.54.296-.724.602-.177.306-.303.74-.378 1.305-.068.564-.102 1.312-.102 2.243v1.132c0 .633.024 1.156.072 1.57.047.415.125.755.234 1.02.116.259.265.456.449.592.183.136.408.238.673.306v.877h-1.387a7.177 7.177 0 0 1-1.744-2.499c-.4-.965-.601-2.05-.601-3.253 0-.788.108-1.509.326-2.161.224-.66.537-1.224.938-1.693a4.181 4.181 0 0 1 1.469-1.101 4.567 4.567 0 0 1 1.927-.398c.72 0 1.373.13 1.958.387a4.215 4.215 0 0 1 1.509 1.071c.421.462.744 1.02.969 1.672.23.653.346 1.377.346 2.172m11.92.959a5.94 5.94 0 0 1-.305 1.948 4.218 4.218 0 0 1-.908 1.53c-.394.42-.88.75-1.458.988s-1.24.357-1.988.357c-.789 0-1.492-.105-2.111-.316-.619-.21-1.142-.49-1.57-.836a3.713 3.713 0 0 1-.98-1.203 3.087 3.087 0 0 1-.336-1.397c0-.435.068-.833.204-1.193.136-.36.33-.684.581-.97.252-.291.55-.543.898-.754a5.78 5.78 0 0 1 1.152-.53l.132.744a.942.942 0 0 0-.346.347c-.082.15-.146.313-.194.49a3.58 3.58 0 0 0-.082.55 7.055 7.055 0 0 0 .102 1.846c.089.394.232.734.429 1.02.204.285.472.51.805.673.34.156.762.234 1.265.234.55 0 .985-.081 1.305-.244.32-.17.557-.405.714-.704.156-.3.255-.66.296-1.081.04-.428.06-.897.06-1.407 0-.755-.057-1.4-.173-1.938-.108-.544-.278-.985-.51-1.325a2.04 2.04 0 0 0-.887-.745c-.353-.163-.778-.244-1.274-.244H56.04V8.39h1.938c.333 0 .608-.059.826-.174a1.34 1.34 0 0 0 .53-.48c.136-.21.231-.458.286-.744.054-.285.081-.598.081-.938 0-.36-.068-.656-.204-.887a1.742 1.742 0 0 0-.52-.592 2.94 2.94 0 0 0-.724-.387 23.94 23.94 0 0 0-.836-.316c-.286-.102-.568-.21-.846-.326a2.872 2.872 0 0 1-.735-.45c-.21-.19-.38-.42-.51-.693-.129-.278-.193-.625-.193-1.04V1.13h1.244v.255a.78.78 0 0 0 .234.591c.157.15.36.275.612.377.259.102.55.19.877.266.333.074.67.16 1.01.255.34.088.673.2 1 .336.332.136.624.316.876.54.258.225.466.507.622.847.156.333.235.744.235 1.234 0 .408-.058.765-.174 1.07a2.681 2.681 0 0 1-1.121 1.367c-.252.156-.51.285-.775.387a6.789 6.789 0 0 1-.806.235 8.904 8.904 0 0 1-.744.122 6.5 6.5 0 0 1 1.56.408c.496.19.928.466 1.295.826.374.354.67.806.887 1.356.224.544.343 1.21.357 1.999m11.523 5.017c0 .707-.102 1.34-.306 1.897a3.712 3.712 0 0 1-.908 1.417 3.81 3.81 0 0 1-1.478.897c-.585.211-1.265.317-2.04.317a5.05 5.05 0 0 1-2.029-.398 5.237 5.237 0 0 1-1.56-1.03 4.632 4.632 0 0 1-1-1.397c-.237-.51-.356-1.01-.356-1.499 0-.408.05-.772.153-1.091.108-.32.248-.598.418-.836.17-.238.363-.439.58-.602a3.684 3.684 0 0 1 1.346-.663c.218-.06.416-.102.592-.122l.225.693c-.11.082-.221.2-.337.357a2.84 2.84 0 0 0-.326.561 4.408 4.408 0 0 0-.245.765 4.588 4.588 0 0 0-.092.958c0 1.04.2 1.805.602 2.295.408.496 1.067.744 1.978.744.456 0 .84-.061 1.153-.183a1.76 1.76 0 0 0 .775-.53c.203-.239.35-.534.438-.888.088-.347.133-.751.133-1.213v-8.393c0-.428-.062-.775-.184-1.04a1.425 1.425 0 0 0-.5-.622 1.786 1.786 0 0 0-.764-.295 5.383 5.383 0 0 0-.98-.082c-.326 0-.628.04-.907.122a2.054 2.054 0 0 0-.734.357c-.204.157-.367.36-.49.612-.115.245-.173.54-.173.887 0 .32.085.592.255.816.17.224.469.449.897.673l-.948 1.754a2.083 2.083 0 0 1-.775-.47 3.554 3.554 0 0 1-.928-1.61 3.126 3.126 0 0 1-.122-.816c0-.66.112-1.217.336-1.672.231-.463.537-.837.918-1.122a3.74 3.74 0 0 1 1.326-.632 6.13 6.13 0 0 1 1.55-.194c.707 0 1.339.085 1.896.255.558.163 1.03.408 1.418.734.387.32.683.717.887 1.193.204.47.306 1.01.306 1.621v7.475m14.194 4.426h-1.458a2.07 2.07 0 0 0-.194-.837 2.822 2.822 0 0 0-.601-.846 4.169 4.169 0 0 0-1.02-.724 5.547 5.547 0 0 0-1.479-.5c-.346-.074-.66-.132-.938-.173a6.287 6.287 0 0 0-.754-.05c-.252 0-.48.016-.684.05-.204.04-.4.112-.591.214a3.384 3.384 0 0 0-.571.439 7.76 7.76 0 0 0-.632.734l-1.275-1.336c.184-.183.367-.347.55-.49a3.89 3.89 0 0 1 .613-.356c.217-.095.458-.174.724-.235.271-.061.58-.109.927-.143-.333-.204-.673-.414-1.02-.632-.346-.224-.682-.469-1.009-.734a7.963 7.963 0 0 1-.907-.887 5.47 5.47 0 0 1-.755-1.132 6.555 6.555 0 0 1-.5-1.458 8.635 8.635 0 0 1-.183-1.866c0-.633.102-1.234.306-1.805.204-.578.503-1.081.897-1.51.401-.435.89-.778 1.469-1.03.577-.258 1.244-.387 1.998-.387.388 0 .71.034.969.102.265.061.5.153.704.275.203.116.387.262.55.439.17.17.354.367.55.591a5.73 5.73 0 0 1 1.5-1.04 4.042 4.042 0 0 1 1.733-.367c.68 0 1.295.116 1.846.347.55.231 1.02.57 1.407 1.02.395.441.697.985.908 1.631.217.646.326 1.384.326 2.213 0 .754-.105 1.434-.316 2.04a4.362 4.362 0 0 1-.897 1.54c-.381.414-.843.733-1.387.958a4.614 4.614 0 0 1-1.795.336 4.773 4.773 0 0 1-1.907-.377 4.864 4.864 0 0 1-1.499-1.03 4.834 4.834 0 0 1-.989-1.5 4.738 4.738 0 0 1-.347-1.794c0-.38.014-.727.041-1.04.027-.32.075-.615.143-.887a4.01 4.01 0 0 1 .306-.795c.13-.252.292-.5.49-.745a3.973 3.973 0 0 0-.5-.316 2.405 2.405 0 0 0-.51-.194 2.998 2.998 0 0 0-.592-.091c-.217-.02-.479-.031-.785-.031-.462 0-.843.088-1.142.265-.299.17-.534.422-.703.755-.17.333-.29.747-.357 1.244a14.055 14.055 0 0 0-.092 1.703c0 .686.095 1.315.285 1.886.19.571.463 1.091.816 1.56.36.463.799.88 1.316 1.255.516.373 1.104.71 1.764 1.01.428.196.856.376 1.285.54.428.17.836.346 1.223.53.388.183.748.38 1.081.591.333.218.622.47.867.755.245.285.435.615.57.989.144.38.218.823.225 1.326m.99-10.238v-.928c0-.483-.024-.921-.072-1.316a2.961 2.961 0 0 0-.296-1.03 1.607 1.607 0 0 0-.632-.663c-.265-.156-.622-.234-1.07-.234-.483 0-.881.061-1.194.183-.312.123-.56.337-.744.643-.177.306-.303.717-.377 1.234a15.368 15.368 0 0 0-.102 1.947c0 .66.037 1.217.112 1.673.075.448.204.812.387 1.09.184.273.429.47.734.592.313.123.707.184 1.183.184.449 0 .806-.051 1.071-.153.272-.109.483-.289.632-.54.15-.259.248-.606.296-1.04.048-.436.071-.983.071-1.642m14.113-.164c0 1.21-.207 2.312-.622 3.304a6.338 6.338 0 0 1-1.845 2.499h-1.265v-.877c.225-.061.428-.146.612-.255a1.43 1.43 0 0 0 .49-.53c.135-.238.24-.555.316-.949.081-.4.122-.918.122-1.55v-1.387c0-.843-.037-1.536-.112-2.08-.068-.55-.197-.986-.388-1.305a1.481 1.481 0 0 0-.795-.673c-.333-.13-.765-.194-1.295-.194-.462 0-.847.051-1.152.153-.3.095-.54.296-.724.602-.177.306-.303.74-.378 1.305-.068.564-.102 1.312-.102 2.243v1.132c0 .633.024 1.156.072 1.57.047.415.125.755.234 1.02.116.259.265.456.449.592.183.136.408.238.673.306v.877h-1.387a7.177 7.177 0 0 1-1.744-2.499c-.4-.965-.601-2.05-.601-3.253 0-.788.109-1.509.326-2.161.224-.66.537-1.224.938-1.693a4.181 4.181 0 0 1 1.469-1.101 4.567 4.567 0 0 1 1.927-.398c.72 0 1.373.13 1.958.387a4.215 4.215 0 0 1 1.509 1.071c.421.462.744 1.02.969 1.672.23.653.346 1.377.346 2.172m16.859-.85c0 1.135-.21 2.123-.63 2.964a6.008 6.008 0 0 1-1.64 2.065 7.038 7.038 0 0 1-2.365 1.23 9.564 9.564 0 0 1-2.742.394 7.97 7.97 0 0 1-2.507-.394 6.344 6.344 0 0 1-2.112-1.198 5.824 5.824 0 0 1-1.45-1.97c-.358-.79-.537-1.703-.537-2.744 0-.63.053-1.219.158-1.765a5.606 5.606 0 0 1 .536-1.514 4.66 4.66 0 0 1 .946-1.214c.389-.346.856-.63 1.403-.85l1.04 2.774a3.552 3.552 0 0 0-.835.33c-.242.137-.442.31-.6.52-.157.2-.278.448-.362.742a3.879 3.879 0 0 0-.126 1.056c0 .694.126 1.303.378 1.829.253.525.584.966.994 1.324.41.347.877.61 1.403.788a5.152 5.152 0 0 0 1.639.268c.736 0 1.345-.131 1.829-.394a3.102 3.102 0 0 0 1.182-1.088c.294-.473.5-1.03.615-1.67.126-.652.189-1.367.189-2.145 0-.735-.079-1.371-.237-1.907a5.214 5.214 0 0 0-.63-1.403 5.287 5.287 0 0 0-.899-1.072 15.703 15.703 0 0 0-1.009-.867l-1.008-.851a6.146 6.146 0 0 1-.883-.993 4.67 4.67 0 0 1-.63-1.277c-.158-.484-.237-1.062-.237-1.734V0h2.459v.993c0 .715.094 1.319.284 1.813.189.483.441.904.756 1.261.316.357.673.673 1.072.946.4.273.804.546 1.214.82.42.273.83.572 1.23.898.399.315.756.699 1.072 1.15.315.453.567.994.756 1.625.19.63.284 1.392.284 2.285"/></svg>