<svg xmlns="http://www.w3.org/2000/svg" width="120" height="26"><path fill="#000" fill-rule="nonzero" d="m23.198 20.495 2.832 2.13c-.218.35-.572.458-1.334.458h-9.965v1.24c0 .243-.844.998-2.233.998h-.49V8.9a22.046 22.046 0 0 1-2.15 2.292c.789.727 1.116 1.456 1.116 2.05 0 .943-.708 1.59-1.444 1.59-.408 0-.816-.162-1.143-.593 0-.54-.082-1.187-.245-1.807l-1.198.35v11.81c0 .163-.845.756-2.179.756h-.463v-8.575a1.577 1.577 0 0 1-.599.108c-.735 2.56-1.824 4.934-3.267 6.363L0 23.028c.708-1.727 1.225-4.638 1.416-7.362l2.886.595v-2.778c-.79.215-1.606.431-2.532.647-.163.35-.463.54-.735.593l-.98-2.805c.68 0 1.715 0 2.967-.027 1.47-2.697 3.05-6.12 4.056-8.6l3.566 1.456c-.109.216-.3.35-.68.35-.11 0-.246-.028-.409-.054-1.361 1.968-3.485 4.611-5.554 6.823 1.199-.027 2.533-.054 3.92-.108-.272-.728-.599-1.403-.98-1.915l.272-.16c.872.349 1.552.7 2.097 1.078 1.607-2.644 3.24-6.77 4.247-10.733l3.729 1.214c-.11.324-.382.54-1.062.485-.654 1.484-1.362 2.913-2.179 4.233l1.035.405h2.505c.381-1.618 1.008-4.206 1.389-6.04l3.974.78c-.082.432-.354.621-1.116.621a94.044 94.044 0 0 1-3.186 4.638h2.805l1.497-1.968 2.805 2.022c-.245.35-.6.458-1.307.458h-4.029v4.69h.899l1.388-1.886 2.614 1.942c-.217.349-.571.484-1.28.484h-3.62v4.881h.899l1.389-1.887 2.614 1.941c-.218.35-.572.486-1.28.486h-3.62v5.042h1.252l1.526-2.074ZM.276 4.558c.899.189 1.634.432 2.206.703.49-1.458 1.062-3.48 1.497-5.26l3.675 1.24c-.109.325-.381.486-1.035.486-1.034 1.403-2.232 2.86-3.376 3.965.817.565 1.144 1.24 1.144 1.806 0 .782-.6 1.43-1.307 1.43-.354 0-.708-.164-1.035-.488C1.855 7.201.983 5.664.057 4.774l.22-.216Zm7.35 11.137c2.479 1.295 3.296 2.751 3.296 3.829 0 .997-.681 1.7-1.416 1.7-.381 0-.763-.19-1.09-.621.082-1.484-.408-3.533-1.089-4.773l.3-.135Zm10.1-8.816h-2.995v4.69h2.996v-4.69Zm0 10.111v-4.882h-2.995v4.882h2.996Zm-2.993.54v5.042h2.995v-5.043h-2.995Zm42.312-3.669c-.19.351-.545.486-1.307.486h-6.86c2.232 1.834 5.607 2.886 8.466 3.29l-.027.27c-1.252.565-1.688 1.7-1.797 3.02-3.022-1.186-5.771-3.37-7.432-6.579H41.39c-1.96 3.129-5.499 5.367-9.964 6.822l-.218-.431c2.859-1.563 5.09-3.883 6.425-6.39h-6.071l-.136-.54h5.853V4.263h-4.791l-.137-.54h4.928V.057l4.084.376c-.027.404-.327.593-1.143.701v2.59h7.895V.056l4.139.376c-.027.404-.3.593-1.144.701v2.59h.79l1.525-2.022 2.777 2.102c-.19.324-.544.459-1.307.459H51.11v9.546h1.47l1.58-2.183 2.885 2.235Zm-6.37 10.004 1.797-2.237 3.294 2.292c-.217.35-.571.484-1.334.484h-21.4l-.163-.54h9.774V19.74h-5.472l-.136-.54h5.608v-3.585l4.056.376c-.055.379-.272.54-1.062.647V19.2h1.525l1.497-1.915 2.723 1.998c-.19.323-.544.457-1.252.457h-4.492v4.125h5.036ZM48.114 4.26H40.22v2.805h7.895V4.261ZM40.22 7.606v2.805h7.895V7.606H40.22Zm0 6.202h7.895v-2.886H40.22v2.886ZM84.902.54l3.295 2.265c-.218.324-.545.457-1.307.457h-9.15c-1.114 1.807-2.559 3.99-3.728 5.421h6.887l1.199-1.59 3.158 2.292c-.163.215-.544.457-1.089.565v14.185c0 .053-.817.835-2.995.835v-2.13H69.765v1.375c0 .08-.354 1.132-2.94 1.132V7.39l3.158 1.294h3.213c.135-1.456.327-3.694.462-5.42H63.04l-.164-.512h20.255l1.77-2.211Zm-3.73 8.683H69.765v5.96h11.407v-5.96ZM69.765 22.329h11.407v-6.607H69.765v6.607Zm31.532-13.32v3.074c3.13 1.025 4.138 2.507 4.138 3.612 0 .864-.654 1.51-1.389 1.51-.353 0-.762-.161-1.115-.566-.082-1.266-.79-2.938-1.634-4.07v11.944c-.027.19-.927.837-2.343.837h-.489v-9.897a22.4 22.4 0 0 1-4.22 5.097l-.382-.35c2.07-3.047 3.431-7.253 4.167-11.19h-3.785l-.135-.54h4.355V4.183a71.039 71.039 0 0 1-4.438.835l-.11-.35c2.887-1.24 6.644-3.317 8.521-4.638l3.323 2.67c-.164.161-.408.241-.762.241-.274 0-.572-.053-.953-.16-.788.241-1.715.484-2.749.726V8.47h.763l1.387-1.942 2.56 2.021c-.218.35-.571.459-1.28.459h-3.43v.001Zm16.17 4.367L120 15.318c-.109.297-.354.485-.899.565l-3.402.62v7.792c0 .055-.436 1.026-2.832 1.026v-8.278l-8.085 1.483-.245-.487 8.331-1.563V0l3.92.378c-.054.377-.272.566-1.089.674v14.885l.626-.108 1.143-2.453Zm-11.651-3.478c4.138.216 5.5 1.752 5.5 2.966 0 .863-.68 1.565-1.497 1.565-.353 0-.736-.135-1.115-.431-.409-1.376-1.69-2.994-3.023-3.857l.135-.243Zm.844-7.146c3.894.511 5.172 2.077 5.172 3.264 0 .888-.68 1.59-1.47 1.59-.381 0-.762-.135-1.144-.486-.298-1.456-1.47-3.182-2.723-4.152l.165-.216Z"/></svg>