<?xml version="1.0" encoding="UTF-8"?>
<svg width="29.775mm" height="6.6143mm" version="1.1" viewBox="0 0 29.775 6.6143" xmlns="http://www.w3.org/2000/svg">
<g transform="translate(-197.5 -248.01)">
<g transform="matrix(1.0035 0 0 1.0035 -.72547 -.87654)" stroke-width=".16667">
<path d="m201.99 250.17h-2.1401v1.1467q0 0.11333 0.06 0.21334 0.0667 0.1 0.18001 0.1 0.26001-0.0867 0.48002-0.38001 0.22-0.32001 0.29334-0.32001 0.26668 0 0.48668 0.42001 0.20001 0.37335 0.20001 0.68002 0.0267 0.66003-0.33334 1.1134-0.43335 0.44002-1.0267 0.46002-1.64 0-1.9801-3.1801l0.26001 0.14667q0.0267 0.40002 0.12667 0.78003 0.1 0.38001 0.28667 0.73336 0.49335 0.87336 1.2334 0.87336 0.22667 0 0.42001-0.0733t0.36668-0.21334q0.35335-0.28001 0.35335-0.72002 0-0.25334-0.20668-0.48002-0.08 0.13334-0.19334 0.26668-0.11333 0.13334-0.26001 0.24667-0.13333 0.11334-0.26667 0.17334t-0.23334 0.06q-0.12001 0-0.23334-0.0467-0.10667-0.0467-0.19334-0.13334-0.08-0.0867-0.13334-0.20667-0.0533-0.12001-0.0533-0.26668v-1.3934h-1.5867l-0.36667-0.37335h3.1601q0.24001 7e-3 0.24001-0.2 0-0.17334-0.21334-0.26668-0.16667-0.0667-0.35335-0.0667-0.0933 0-0.22667 7e-3 -0.12667 7e-3 -0.31334 0.02-0.17334 0.0133-0.31335 0.02-0.13334 7e-3 -0.22001 7e-3 -0.42001 0-0.77336-0.21334-0.40001-0.24001-0.40001-0.63336 0-0.32001 0.20001-0.43334 0.0267 0.0133 0.0667 0.0333 0.0467 0.02 0.08 0.0333-0.14001 0.11334-0.14001 0.26668 0 0.20667 0.26668 0.33334 0.0933 0.04 0.20667 0.0667 0.12001 0.0267 0.23335 0.0267 0.0933 0 0.22667-7e-3 0.14-7e-3 0.33334-0.02 0.18668-0.0133 0.32668-0.02 0.14667-0.0133 0.24001-0.0133 0.52002 0 0.82003 0.28001 0.30001 0.27334 0.28001 0.78002h0.36668z"/>
<path d="m205.56 250.17h-1.9734q0.0467 0.0733 0.10001 0.14667 0.0533 0.0667 0.10667 0.12667 0.56668 0.20001 0.76002 0.42668 0.30001 0.29335 0.30001 0.75336 0 0.46002-0.36668 0.76003-0.27334 0.23334-0.83336 0.38001 0.38001 0.22668 0.80669 0.59335 0.43335 0.36668 0.93337 0.87337l0.0867 0.38668q-0.26668-0.30001-0.58669-0.56002-0.32001-0.26668-0.72002-0.50002-0.38001-0.21334-0.78669-0.37335-0.40668-0.16-0.81337-0.26l-0.44668-0.93337q0.47335 0.26001 1.0467 0.30668 0.43335 0.0333 0.7667-0.14001 0.46001-0.22667 0.44001-0.60668 0-0.12001-0.04-0.23334-0.0333-0.11334-0.10667-0.20001-0.0667-0.0867-0.16-0.14001-0.0933-0.0533-0.21335-0.0533-0.0533 0-0.1 0.0133-0.04 0.0133-0.0933 0.0267 0 0.26668-0.22667 0.48668-0.23334 0.22001-0.49335 0.22001-0.16667 0-0.30668-0.1-0.14-0.10667-0.14-0.27335 0-0.31334 0.26667-0.56001 0.25335-0.23334 0.60669-0.26668 0-0.10667-0.25334-0.30001h-1.2l-0.37335-0.37335h2.5334q0.0733 0 0.16001-0.0133 0.0867-0.02 0.16-0.0467 0.20668-0.0733 0.20668-0.22 0-0.14001-0.23334-0.20668-0.0733-0.0267-0.16001-0.0333-0.0867-0.0133-0.18001-0.0133-0.0933 0-0.23334 7e-3 -0.13334 7e-3 -0.32001 0.02-0.18667 0.0133-0.32668 0.02-0.13333 7e-3 -0.22667 7e-3 -0.42001 0-0.77336-0.20667-0.40668-0.24001-0.40668-0.62669 0-0.08 0.0933-0.25334 0.0933-0.16668 0.17334-0.15334 0.02 0 0.0467 7e-3 0.0267 0 0.0533 0-0.16001 0.11334-0.16001 0.31335 0 0.18667 0.20001 0.30667 0.16001 0.10001 0.36668 0.10001 0.08 0 0.32001-0.0133 0.24668-0.02 0.64669-0.0533 0.70002 0.0133 1.06 0.28001 0.36002 0.26001 0.32668 0.78002h0.31335z"/>
<path d="m209.42 249.35q-0.18001-0.16001-0.40001-0.31335-0.22001-0.16-0.50002-0.31334-0.25334-0.14667-0.52669-0.21334-0.26667-0.0667-0.55335-0.0667-0.42001 0-0.86003 0.29334-0.48668 0.32001-0.51335 0.71336l0.14667 0.35334h0.40669l0.38001 0.37335h-0.65336v3.9001l-0.38001-0.37334v-3.5268h-0.56669l-0.36667-0.37335h0.99336l-0.26001-0.24667q-0.14667-0.14667-0.14667-0.30001 0-0.45335 0.50669-0.85336 0.49335-0.37335 0.95336-0.37335 1.1867 0 2.2667 1.12z"/>
<path d="m209.57 250.17v0.27334q0.65336 0 1.0534 0.53335 0.38002 0.48002 0.38002 1.0534 0 0.14001-0.0467 0.26668t-0.12667 0.22667q-0.08 0.0933-0.19334 0.15334-0.11334 0.0533-0.24668 0.0533-0.0933 0-0.18-0.0333-0.0867-0.04-0.16001-0.1-0.0667-0.06-0.11334-0.14001-0.04-0.0867-0.04-0.18667 0-0.18001 0.12667-0.30001t0.31335-0.12q0.11333 0 0.2 0.0533 0.0933 0.0533 0.16668 0.14667l0.0333-0.0867q0-0.38668-0.30668-0.69335-0.30001-0.32668-0.86669-0.32001v3.1134q-0.04-7e-3 -0.08-0.0267-0.04-0.0267-0.0533-0.06-0.13334-0.32667-0.32001-0.60668-0.18001-0.28668-0.40001-0.50669-0.50669-0.50668-1.1334-0.58002l-0.52668-0.65335q0.95337-0.75336 2.1667-1.1467v-0.31334h-2.4268l-0.38001-0.37335h4.7202l0.38668 0.37335zm-0.37334 0.82669q-0.34001 0.12668-0.68002 0.32002-0.34002 0.18667-0.72003 0.45334 0.93337 0.39335 1.3867 1.2467h0.0133z"/>
<path d="m214.28 250.17v3.9201l-0.20667-0.24667q-0.02-0.06-0.0533-0.12001-0.0267-0.0667-0.11334-0.22667-0.08-0.16001-0.23334-0.34668-0.15334-0.19334-0.28668-0.32001-0.48002-0.44002-1.2734-0.52002l-0.48668-0.69335q1.12-0.78003 2.2934-1.1734v-0.27334h-2.5534l-0.36668-0.37335h3.6868l0.36002 0.37335zm-0.36001 0.88003q-0.36001 0.13334-0.73336 0.32001-0.36667 0.18667-0.77336 0.46002 1.0067 0.42001 1.5067 1.28z" fill="#0a4e98"/>
<path d="m218.48 250.17h-1.9734q0.0467 0.0733 0.1 0.14667 0.0533 0.0667 0.10667 0.12667 0.56669 0.20001 0.76003 0.42668 0.30001 0.29335 0.30001 0.75336 0 0.46002-0.36668 0.76003-0.27335 0.23334-0.83336 0.38001 0.38001 0.22668 0.80669 0.59335 0.43335 0.36668 0.93336 0.87337l0.0867 0.38668q-0.26667-0.30001-0.58668-0.56002-0.32001-0.26668-0.72003-0.50002-0.38001-0.21334-0.78669-0.37335-0.40668-0.16-0.81336-0.26l-0.44668-0.93337q0.47335 0.26001 1.0467 0.30668 0.43335 0.0333 0.76669-0.14001 0.46002-0.22667 0.44002-0.60668 0-0.12001-0.04-0.23334-0.0333-0.11334-0.10667-0.20001-0.0667-0.0867-0.16-0.14001-0.0933-0.0533-0.21334-0.0533-0.0533 0-0.1 0.0133-0.04 0.0133-0.0933 0.0267 0 0.26668-0.22668 0.48668-0.23334 0.22001-0.49335 0.22001-0.16667 0-0.30667-0.1-0.14001-0.10667-0.14001-0.27335 0-0.31334 0.26668-0.56001 0.25334-0.23334 0.60669-0.26668 0-0.10667-0.25335-0.30001h-1.2l-0.37334-0.37335h2.5334q0.0733 0 0.16-0.0133 0.0867-0.02 0.16001-0.0467 0.20667-0.0733 0.20667-0.22 0-0.14001-0.23334-0.20668-0.0733-0.0267-0.16001-0.0333-0.0867-0.0133-0.18-0.0133t-0.23334 7e-3q-0.13334 7e-3 -0.32001 0.02-0.18668 0.0133-0.32668 0.02-0.13334 7e-3 -0.22668 7e-3 -0.42001 0-0.77336-0.20667-0.40668-0.24001-0.40668-0.62669 0-0.08 0.0933-0.25334 0.0933-0.16668 0.17334-0.15334 0.02 0 0.0467 7e-3 0.0267 0 0.0533 0-0.16 0.11334-0.16 0.31335 0 0.18667 0.2 0.30667 0.16001 0.10001 0.36668 0.10001 0.08 0 0.32001-0.0133 0.24668-0.02 0.64669-0.0533 0.70003 0.0133 1.06 0.28001 0.36001 0.26001 0.32668 0.78002h0.31334z" fill="#0a4e98"/>
</g>
</g>
</svg>