<svg xmlns="http://www.w3.org/2000/svg" width="120" height="18" fill="none"><path fill="#000" fill-rule="evenodd" d="M15.702.9c1.172.163 1.036.763.218 2.344L14.475 5.97l-.136-.137-1.336-2.753c-.736-1.554-.845-2.017.3-2.18.164-.164.164-.736 0-.9-.266.007-.493.015-.702.022H12.6c-.562.018-1.004.033-1.777.033-.845 0-1.314-.017-1.887-.037L8.396 0c-.163.164-.136.736.028.9 1.172.163 1.39.545 2.29 2.48l2.29 4.88-3.026 6.187H9.84L4.853 3.08C4.17 1.526 4.253 1.09 5.97.9c.163-.164.163-.736 0-.9L5 .023h-.009c-.725.018-1.29.032-2.047.032-.727 0-1.175-.013-1.772-.029H1.15C.859.018.528.009.11 0c-.164.164-.136.736.027.9 1.442.126 1.593.487 2.26 2.085l.166.395 5.943 13.957c.163.408.354.627.627.627.3 0 .49-.219.654-.627l4.007-7.905 3.68 7.905c.136.408.354.627.627.627.3 0 .463-.219.654-.627l6.433-13.902c.045-.1.09-.198.132-.295l.001-.001c.5-1.122.91-2.039 2.566-2.24.163-.163.163-.735 0-.899l-.902.024h-.006c-.6.018-1.059.03-1.491.03-.413 0-.897-.011-1.546-.027h-.006C23.602.018 23.224.009 22.789 0c-.163.164-.163.736 0 .9 1.772.136 1.8.872 1.172 2.344l-5.179 11.203h-.136l-3.49-7.196 1.99-3.816c.682-1.254 1.282-2.317 2.7-2.535.163-.164.163-.736 0-.9h-.002c-.681.027-1.362.055-1.989.055-.413 0-.779-.012-1.269-.028-.254-.008-.54-.018-.884-.027-.164.164-.164.736 0 .9ZM29.869 15.92c0 .578.262.919 1.102.998l.551.053c.08 0 .158.052.158.157v.55l-.026.054s-1.995-.053-2.81-.053c-.734 0-2.782.053-2.782.053l-.052-.053v-.551c0-.105.079-.157.184-.157l.525-.053c.866-.08 1.128-.5 1.128-.998v-8.74c0-.577-.316-.737-1.128-.814l-.525-.054c-.105 0-.184-.024-.184-.105v-.605l.026-.052s2.074.052 2.888.052c.708 0 2.73-.052 2.73-.052l.026.052v.578c0 .078-.053.13-.158.13l-.55.054c-.815.078-1.103.29-1.103.815v8.741Zm8.849.998c-.762-.132-1.103-.42-1.103-.998v-3.888c.578 0 .998.13 1.391.655l2.914 3.624c.367.42.394.706.394 1.049v.315l.026.026s.945-.026 1.601-.026c.735 0 2.126.026 2.126.026l.08-.026v-.551c0-.08-.106-.132-.185-.158l-.13-.025c-.526-.104-1.156-.263-1.47-.63l-3.964-4.777c-.132-.157-.237-.287-.237-.445 0-.21.158-.498.604-.972l2.258-2.598c.943-1.074 1.65-1.128 2.67-1.207h.007c.131 0 .21-.053.21-.131v-.605l-.079-.025s-1.155.052-1.837.052c-.761 0-2.888-.052-2.888-.052l-.026.025v.605c0 .078.053.106.157.13.526.08.762.316.762.527 0 .5-.814 1.469-1.864 2.625-1.155 1.234-1.654 1.68-2.52 1.68V7.18c0-.526.289-.658 1.103-.815l.288-.053c.105-.026.158-.053.158-.131v-.578l-.026-.052s-1.653.052-2.39.052c-.813 0-2.965-.052-2.965-.052l-.026.052v.605c0 .08.078.105.183.105l.525.054c.84.077 1.129.237 1.129.813v8.741c0 .499-.341.919-1.129.998l-.525.053c-.105 0-.183.052-.183.157v.55l.052.054s2.153-.053 2.887-.053c.788 0 2.442.053 2.442.053l.026-.053v-.551c0-.105-.079-.132-.158-.157l-.288-.053Zm13.048-.998c0 .578.263.919 1.103.998l.551.053c.079 0 .158.052.158.157v.55l-.027.054s-1.995-.053-2.808-.053c-.735 0-2.783.053-2.783.053l-.052-.053v-.551c0-.105.079-.157.184-.157l.525-.053c.866-.08 1.128-.5 1.128-.998v-8.74c0-.577-.315-.737-1.128-.814l-.525-.054c-.105 0-.184-.024-.184-.105v-.605l.026-.052s2.074.052 2.888.052c.708 0 2.73-.052 2.73-.052l.026.052v.578c0 .078-.053.13-.158.13l-.551.054c-.814.078-1.102.29-1.102.815v8.741Zm4.097-9.608c1.234.079 1.575.105 1.575.919l.002 8.818c0 .499-.262.735-1.076.84l-.551.079c-.105.026-.158.052-.158.157v.552l.027.052s1.968-.052 2.703-.052c.814 0 2.914.052 2.914.052l.025-.052v-.552c0-.103-.079-.13-.184-.157l-.526-.079c-.84-.13-1.155-.262-1.155-.84v-3.515c.473.209.998.262 1.654.262 3.725 0 4.487-2.466 4.487-4.042 0-1.367-.683-3.203-4.408-3.203-.52 0-1.061.015-1.566.029h-.001a45.95 45.95 0 0 1-1.19.023c-.442 0-1.151-.018-1.745-.032-.426-.011-.793-.02-.958-.02l-.052.026v.604c0 .053.026.13.183.13Zm5.303 5.723c-.525 0-1.182-.025-1.706-.236l-.002-4.567c0-.683.315-.92 1.576-.92 1.442 0 2.466.5 2.466 2.757 0 2.02-.758 2.966-2.334 2.966Zm8.955 5.644c-.788 0-2.598.053-2.598.053l-.027-.053v-.578c0-.051.027-.13.157-.13l.605-.053c.815-.08 1.05-.604 1.05-1.128V7.129c0-.606-.315-.71-1.05-.762l-.605-.054c-.157-.024-.157-.078-.157-.105v-.605l.027-.052s2.046.052 2.834.052h3.859c.787 0 2.652-.052 2.652-.052l.053.052c.025 1.129.21 2.155.394 3.151l-.655.105c-.288-.972-.787-2.362-2.467-2.362h-2.1c-.498 0-.76.183-.76.629v3.807H73.3c.736 0 .919-.315 1.025-.84l.156-.551c0-.08.053-.133.157-.133h.446c.053 0 .053.028.053.079-.014.153-.032.317-.05.487-.051.473-.107.994-.107 1.457 0 .436.046.827.093 1.218.023.196.047.391.064.593l-.053.053h-.446c-.13 0-.184-.053-.184-.132l-.131-.576c-.105-.526-.342-.815-1.026-.815H71.33v4.017c0 .498.287.996.761.996h2.494c1.339 0 2.075-.84 2.389-2.206l.655.08-.526 3.017-.053.052s-1.548-.052-2.336-.052l-4.593.003Zm10.475-.761-.604.053a.148.148 0 0 0-.155.154v.552l.026.052s1.995-.052 2.784-.052c.312 0 .64.008 1.043.017.648.015 1.494.035 2.788.035 2.913 0 6.168-1.363 6.168-5.957 0-3.491-2.153-6.221-6.537-6.221-.368 0-1.203.015-1.972.03-.656.011-1.264.022-1.493.022-.473 0-2.784-.052-2.784-.052l-.025.052v.578c0 .078.08.13.186.13l.575.055.06.006c.814.072.991.087.991.756v8.662c0 .813-.263 1.049-1.05 1.128Zm9.767-4.699c0 3.677-1.63 4.752-4.516 4.752-1.996 0-2.179-.448-2.179-1.181V7.129c0-.659.656-.816 1.68-.816 4.41 0 5.015 3.178 5.015 5.907Zm8.48 3.701c0 .578.263.919 1.103.998l.551.053c.079 0 .157.052.157.157v.55l-.026.054s-1.995-.053-2.808-.053c-.735 0-2.782.053-2.782.053l-.053-.053v-.551c0-.105.078-.157.183-.157l.526-.053c.866-.08 1.13-.5 1.13-.998v-8.74c0-.577-.317-.737-1.13-.814l-.526-.054c-.105 0-.183-.024-.183-.105v-.605l.026-.052s2.074.052 2.885.052c.709 0 2.731-.052 2.731-.052l.025.052v.578c0 .078-.053.13-.157.13l-.551.054c-.814.078-1.103.29-1.103.815l.002 8.741Zm8.848 1.051-.761-.053c-.971-.08-1.312-.658-1.05-1.316l1.523-3.807c.131-.34.288-.445.918-.445h5.46l1.601 4.437c.264.734-.106 1.05-1.102 1.128l-.735.053c-.134 0-.186.079-.186.211v.498l.025.052s2.574-.052 3.492-.052c1.024 0 3.045.052 3.045.052l.079-.052v-.498c0-.132-.131-.211-.262-.211l-.289-.025c-1.05-.105-1.575-.498-1.944-1.523l-5.381-14.227c-.209-.525-.341-.788-.707-.788-.395 0-.606.263-.894.946l-5.826 13.65c-.735 1.68-1.389 1.891-2.545 1.97-.133 0-.211.079-.211.21v.498l.053.053s1.68-.053 2.364-.053c.63 0 3.491.053 3.491.053l.052-.053v-.499a.207.207 0 0 0-.21-.209Zm3.124-13.73 2.546 7.007v.001h-4.568c-.578 0-.761-.078-.656-.341l2.625-6.667h.053Z" clip-rule="evenodd"/></svg>