<svg xmlns="http://www.w3.org/2000/svg" width="119" height="12"><path fill="#000" fill-rule="nonzero" d="M17.062 3.104c.313 0 .53.201.53.45 0 .26-.17.425-.41.425a.394.394 0 0 1-.36-.2c-.073-.107-.121-.143-.205-.143-.145 0-.373.166-.458.284.337.355.494.674.494 1.23 0 1.16-.939 1.81-1.95 1.81-.445 0-.782-.083-1.058-.249-.133.201-.205.45-.205.686 0 .509.397.674.734.674.06 0 .18-.012.35-.023a6.45 6.45 0 0 1 .757-.06c.421 0 1.251.012 1.697.39.337.285.505.58.505.959 0 1.277-1.685 2.046-3.237 2.046-.878 0-1.829-.32-1.829-1.349 0-.508.325-1.052.939-1.43-.3-.154-.517-.485-.517-.911 0-.402.18-.91.505-1.195-.325-.319-.602-.685-.602-1.324 0-1.088.95-1.798 1.974-1.798.673 0 1.07.237 1.203.331.3-.402.842-.603 1.143-.603Zm-3.49 5.582c-.336.414-.36.71-.36 1.112 0 .804.962 1.147 1.371 1.147 1.035 0 2.274-.45 2.274-1.3 0-.308-.144-.474-.59-.734-.336-.19-.83-.201-1.407-.201-.168 0-.47.035-.83.035-.145 0-.325-.023-.458-.059ZM3.801 0c.126 0 .19.101.253.28l.031.096 2.158 6.798c.134.445.32.641.67.71l.11.018.115.012c.04 0 .08.022.096.059l.01.042v.019c0-.044.017-.068.049-.082l.035-.012.202-.023c.315-.031.432-.138.452-.406l.004-.095V4.514c0-.534-.072-.676-.198-.714l-.036-.008-.456-.047-.02-.28c.741-.128 1.166-.232 1.462-.36.015 0 .029.005.037.015l.006.02-.032 1.036h.032c.678-.874 1.187-1.037 1.728-1.037.906 0 1.143.726 1.165 1.688l.001.153v2.436c0 .3.092.435.344.486l.102.015.201.023c.04.009.074.024.088.056l.007.038v.221l-.02.023c-.425-.011-.7-.023-1.135-.023-.331 0-.533.007-.818.016l-.232.007-.021-.023v-.221c0-.044.018-.068.05-.082l.035-.012.148-.023c.306-.052.43-.143.452-.406l.004-.095V4.899c0-.816-.127-1.2-.69-1.2-.43 0-.806.168-1.287.744l-.122.153v2.82c0 .304.086.42.358.482l.098.019.148.023c.04.009.068.024.08.056l.005.038v.221l-.021.023c-.424-.011-.647-.023-1.082-.023-.33 0-.566.007-.864.016l-.238.007-.022-.023v-.002l-.02.025c-.39-.012-.8-.025-1.232-.025-.329 0-.779.008-1.145.018l-.256.007-.01-.025v-.238c0-.047.012-.08.04-.094l.034-.007.294-.025c.364-.034.519-.161.465-.448l-.023-.09-.642-2.12h-2.19c-.22 0-.297.038-.348.157l-.02.056-.61 1.818c-.106.308.006.543.32.612l.1.015.306.025c.031 0 .063.022.077.059l.007.042v.238l-.021.025c-.39-.012-.948-.025-1.38-.025-.328 0-.501.008-.757.018l-.21.007L0 8.253v-.238c0-.063.032-.1.084-.1.433-.036.709-.147.967-.794l.054-.147L3.443.452C3.569.112 3.643 0 3.8 0Zm10.806 3.743c-.625 0-.926.426-.926 1.254 0 .756.12 1.596 1.083 1.596.42 0 .974-.225.974-1.324 0-.982-.409-1.526-1.13-1.526ZM3.56 1.355h-.021L2.485 4.54c-.037.11.015.153.183.162l.08.002H4.58l-1.021-3.35Zm20.746 1.75c.313 0 .53.2.53.449 0 .26-.169.425-.41.425a.394.394 0 0 1-.36-.2c-.072-.107-.12-.143-.205-.143-.144 0-.373.166-.457.284.337.355.493.674.493 1.23 0 1.16-.938 1.81-1.949 1.81-.445 0-.782-.083-1.059-.249-.132.201-.204.45-.204.686 0 .509.397.674.734.674.06 0 .18-.012.349-.023a6.45 6.45 0 0 1 .758-.06c.42 0 1.25.012 1.696.39.337.285.505.58.505.959 0 1.277-1.684 2.046-3.236 2.046-.879 0-1.83-.32-1.83-1.349 0-.508.326-1.052.94-1.43-.301-.154-.518-.485-.518-.911 0-.402.18-.91.505-1.195-.325-.319-.601-.685-.601-1.324 0-1.088.95-1.798 1.973-1.798.674 0 1.07.237 1.203.331.301-.402.843-.603 1.143-.603Zm-3.489 5.581c-.337.414-.361.71-.361 1.112 0 .804.963 1.147 1.372 1.147 1.034 0 2.274-.45 2.274-1.3 0-.308-.145-.474-.59-.734-.337-.19-.83-.201-1.408-.201-.168 0-.469.035-.83.035-.144 0-.325-.023-.457-.059Zm5.843-5.582c.731 0 1.473.311 1.473 1.948V6.89c.004.479.04.881.4.881.241 0 .272-.184.332-.184.04 0 .11.092.11.173 0 .057-.34.518-.832.518-.531 0-.691-.426-.752-.668h-.02l-.2.184c-.441.392-.631.484-1.092.484-.702 0-1.243-.334-1.243-1.244 0-.784.671-1.395 1.633-1.671l.862-.242c.03-.012.06-.058.06-.138 0-1.302-.47-1.533-.811-1.533-.381 0-.832.161-.832.519 0 .126.01.195.02.23.02.046.03.127.03.207 0 .15-.15.38-.441.38-.23 0-.35-.126-.35-.403 0-.622.831-1.279 1.653-1.279Zm.731 2.374-.791.242c-.742.23-.972.75-.972 1.268 0 .357.24.818.741.818.28 0 .622-.254.882-.496a.36.36 0 0 0 .14-.3V5.479Zm-5.54-1.735c-.625 0-.926.426-.926 1.254 0 .756.12 1.596 1.083 1.596.421 0 .975-.225.975-1.324 0-.982-.41-1.526-1.131-1.526Zm15.38-.639.022.024v.222c0 .07-.068.081-.137.093-.297.035-.583.129-.789.642l-1.555 3.948c-.069.175-.16.245-.263.245-.114 0-.206-.07-.274-.233l-1.144-2.92-1.143 2.896c-.08.187-.172.257-.275.257-.114 0-.205-.07-.274-.233L29.83 4.004c-.182-.467-.388-.526-.72-.56-.057-.013-.137-.024-.137-.083v-.233l.023-.024c.423.012.606.024 1.04.024.412 0 .71-.012 1.132-.024l.023.035v.21c0 .06-.046.094-.103.094l-.171.012c-.378.023-.343.233-.229.525l1.2 3.084.995-2.535-.205-.525c-.15-.386-.4-.526-.732-.56-.057-.013-.115-.024-.115-.083v-.233l.023-.024c.423.012.64.024 1.04.024.401 0 .721-.012 1.144-.024l.034.024v.222c0 .058-.057.093-.114.093l-.206.012c-.4.023-.354.175-.217.525l1.19 3.084 1.188-3.025c.103-.21.126-.55-.457-.584l-.171-.012c-.058 0-.103-.047-.103-.082v-.233l.022-.024c.424.012.755.024 1.19.024.411 0 .548-.012.834-.024Zm1.846 0c.732 0 1.473.311 1.473 1.948V6.89c.004.479.04.881.401.881.24 0 .27-.184.331-.184.04 0 .11.092.11.173 0 .057-.34.518-.832.518-.53 0-.691-.426-.751-.668h-.02l-.2.184c-.442.392-.632.484-1.093.484-.702 0-1.243-.334-1.243-1.244 0-.784.672-1.395 1.634-1.671l.862-.242c.03-.012.06-.058.06-.138 0-1.302-.471-1.533-.812-1.533-.38 0-.832.161-.832.519 0 .126.01.195.02.23.02.046.03.127.03.207 0 .15-.15.38-.44.38-.231 0-.351-.126-.351-.403 0-.622.831-1.279 1.653-1.279Zm.732 2.374-.792.242c-.742.23-.972.75-.972 1.268 0 .357.24.818.742.818.28 0 .62-.254.882-.496a.36.36 0 0 0 .14-.3V5.479Zm3.215-2.374c.534 0 .843.104 1.174.288.064.37.096.761.117 1.176l-.288.011c-.224-.945-.778-1.129-1.003-1.129-.405 0-.842.138-.842.772 0 .461.17.691.757.922.864.346 1.558.76 1.558 1.682 0 1.141-1.12 1.452-1.622 1.452a3.38 3.38 0 0 1-.96-.126c-.075-.024-.128-.024-.203-.024-.053 0-.138.012-.245.035 0-.484-.032-1.049-.075-1.613l.288-.012c.032.288.139.818.384 1.083.107.127.395.335.79.335.373 0 .928-.3.928-.865 0-.495-.256-.818-1.099-1.221-.779-.369-1.152-.61-1.152-1.475 0-.772.65-1.29 1.493-1.29Zm2.968 0c.02 0 .042.012.042.035l-.032 1.037h.032c.679-.874 1.187-1.037 1.728-1.037.954 0 1.166.804 1.166 1.841v2.436c0 .338.117.466.446.501l.201.023c.053.012.096.035.096.094v.221l-.022.023c-.424-.011-.7-.023-1.134-.023-.414 0-.626.012-1.05.023l-.02-.023v-.221c0-.059.03-.082.084-.094l.148-.023c.34-.058.456-.163.456-.501V4.899c0-.816-.127-1.2-.689-1.2-.466 0-.87.198-1.41.897v2.82c0 .338.106.443.456.501l.148.023c.053.012.085.035.085.094v.221l-.021.023c-.424-.011-.647-.023-1.082-.023-.413 0-.678.012-1.102.023l-.021-.023v-.221c0-.059.031-.082.084-.094l.202-.023c.35-.035.456-.163.456-.501V4.514c0-.582-.085-.699-.233-.722l-.456-.047-.022-.28c.743-.128 1.167-.232 1.464-.36Zm4.713 2.697c0 1.175.714 2.477 2.06 2.477 1.426 0 2.08-1.429 2.08-2.58 0-1.2-.573-2.594-2.06-2.594-1.336 0-2.08 1.118-2.08 2.697m1.97-2.316c.823 0 1.316.887 1.316 2.58 0 1.522-.603 1.833-1.055 1.833-.995 0-1.377-1.475-1.377-2.362 0-1.003.312-2.051 1.115-2.051m11.989-.38c.313 0 .53.2.53.449 0 .26-.17.425-.41.425a.394.394 0 0 1-.36-.2c-.073-.107-.121-.143-.205-.143-.145 0-.373.166-.458.284.337.355.494.674.494 1.23 0 1.16-.939 1.81-1.95 1.81-.445 0-.782-.083-1.058-.249-.133.201-.205.45-.205.686 0 .509.397.674.734.674.06 0 .18-.012.35-.023a6.45 6.45 0 0 1 .757-.06c.421 0 1.251.012 1.697.39.337.285.505.58.505.959 0 1.277-1.685 2.046-3.237 2.046-.878 0-1.829-.32-1.829-1.349 0-.508.325-1.052.939-1.43-.3-.154-.517-.485-.517-.911 0-.402.18-.91.505-1.195-.325-.319-.602-.685-.602-1.324 0-1.088.95-1.798 1.974-1.798.673 0 1.07.237 1.203.331.3-.402.842-.603 1.143-.603Zm-3.49 5.581c-.336.414-.36.71-.36 1.112 0 .804.962 1.147 1.371 1.147 1.035 0 2.274-.45 2.274-1.3 0-.308-.144-.474-.59-.734-.336-.19-.83-.201-1.407-.201-.168 0-.47.035-.83.035-.145 0-.325-.023-.458-.059Zm-4.834-5.582c.022 0 .043.012.043.035l-.032 1.037h.032c.678-.874 1.187-1.037 1.728-1.037.954 0 1.166.804 1.166 1.841v2.436c0 .338.117.466.446.501l.201.023c.053.012.095.035.095.094v.221l-.02.023c-.425-.011-.7-.023-1.135-.023-.414 0-.626.012-1.05.023l-.021-.023v-.221c0-.059.032-.082.085-.094l.148-.023c.34-.058.456-.163.456-.501V4.899c0-.816-.127-1.2-.69-1.2-.466 0-.868.198-1.41.897v2.82c0 .338.107.443.457.501l.148.023c.053.012.085.035.085.094v.221l-.021.023c-.424-.011-.647-.023-1.082-.023-.413 0-.678.012-1.102.023l-.022-.023v-.221c0-.059.032-.082.085-.094l.202-.023c.35-.035.456-.163.456-.501V4.514c0-.582-.085-.699-.234-.722l-.456-.047-.02-.28c.741-.128 1.166-.232 1.462-.36Zm5.87.639c-.626 0-.927.426-.927 1.254 0 .756.12 1.596 1.083 1.596.42 0 .974-.225.974-1.324 0-.982-.409-1.526-1.13-1.526Zm7.286-.639c1.489 0 1.838 1.037 1.838 2.005 0 .106-.054.172-.145.19l-.058.006h-2.966c0 1.717.97 2.409 1.602 2.409.62 0 1.015-.208 1.41-.646.123.012.191.07.225.185-.429.599-1.094 1.025-1.906 1.025-1.545 0-2.233-1.083-2.233-2.408 0-1.752 1.162-2.766 2.233-2.766Zm3.4 0c.015 0 .03.006.037.016l.006.02-.031 1.036h.031c.679-.874 1.188-1.037 1.729-1.037.906 0 1.143.726 1.164 1.688l.002.153v2.436c0 .3.092.435.343.486l.102.015.201.023c.04.009.074.024.088.056l.008.038v.221l-.021.023c-.424-.011-.7-.023-1.135-.023-.33 0-.532.007-.817.016l-.232.007-.022-.023v-.221c0-.044.018-.068.05-.082l.035-.012.149-.023c.305-.052.43-.143.452-.406l.004-.095V4.899c0-.816-.128-1.2-.69-1.2-.43 0-.807.168-1.287.744l-.123.153v2.82c0 .304.086.42.358.482l.098.019.149.023c.04.009.067.024.079.056l.005.038v.221l-.02.023c-.425-.011-.647-.023-1.082-.023-.33 0-.567.007-.865.016l-.238.007-.021-.023v-.221c0-.044.018-.068.05-.082l.035-.012.201-.023c.315-.031.433-.138.453-.406l.003-.095V4.514c0-.534-.071-.676-.197-.714l-.036-.008-.456-.047-.021-.28c.742-.128 1.166-.232 1.463-.36Zm5.312 0c.533 0 .843.104 1.174.288.064.37.096.761.117 1.176l-.288.011c-.224-.945-.779-1.129-1.003-1.129-.405 0-.843.138-.843.772 0 .461.171.691.758.922.864.346 1.557.76 1.557 1.682 0 1.141-1.12 1.452-1.621 1.452a3.38 3.38 0 0 1-.96-.126c-.075-.024-.128-.024-.203-.024-.053 0-.139.012-.245.035 0-.484-.032-1.049-.075-1.613l.288-.012c.032.288.139.818.384 1.083.107.127.395.335.79.335.373 0 .928-.3.928-.865 0-.495-.257-.818-1.1-1.221-.778-.369-1.151-.61-1.151-1.475 0-.772.65-1.29 1.493-1.29Zm-8.712.392c-.247 0-1.016.052-1.264 1.182l-.033.178h2.075c.113 0 .158-.058.158-.161 0-.968-.53-1.199-.936-1.199Zm11.739-1.9c0 .303.212.56.462.56s.462-.257.462-.56c0-.304-.212-.561-.462-.561s-.462.257-.462.56m.905 1.531c0-.023-.02-.035-.039-.035-.27.129-.674.234-1.357.362l.02.28.413.047c.135.024.212.14.212.725v2.909c0 .339-.087.455-.414.502l-.183.023c-.048.012-.077.035-.077.094v.222l.02.023c.384-.011.654-.023 1-.023.366 0 .645.012 1.03.023l.02-.023v-.222c0-.058-.039-.082-.087-.094l-.183-.023c-.298-.035-.404-.163-.404-.502v-2.91c0-.584.029-1.378.029-1.378m13.67-.022c.016 0 .031.006.04.017l.007.02-.035.98h.035c.536-.857 1.154-.98 1.526-.98 1.13 0 1.958 1.2 1.958 2.498 0 .992-.291 1.751-.816 2.315-.454.477-1.013.686-1.631.686-.36 0-.642-.072-.906-.201l-.131-.069v2.119c0 .308.104.448.388.5l.101.014.222.024c.043.01.08.026.096.059l.009.04v.232l-.024.025c-.43-.013-.804-.025-1.247-.025-.28 0-.533.006-.799.013l-.412.012-.024-.025v-.233c0-.046.02-.07.054-.086l.04-.012.22-.024c.336-.033.474-.146.498-.418l.004-.096V4.586c0-.561-.078-.71-.217-.75l-.04-.01-.5-.048-.024-.294c.828-.135 1.27-.245 1.608-.38ZM89.246 0c.084 0 .121.035.121.118 0 0-.024.403-.027 1.07v6.215c0 .305.065.442.295.493l.094.016.223.023c.028 0 .056.02.068.055l.006.04v.225l-.018.023c-.464-.012-.65-.023-1.03-.023-.31 0-.492.008-.83.018l-.182.005-.01-.023-.022.023c-.34-.012-.611-.023-.962-.023-.204 0-.355.004-.492.01l-.267.013-.034-.023V8.03c0-.135-.026-.26-.184-.52l-.076-.119-.827-1.218c-.201-.305-.349-.404-.578-.422l-.09-.004v1.656c0 .45.215.497.51.532a.09.09 0 0 1 .082.055l.008.04v.225l-.022.023c-.442-.012-.555-.023-1.02-.023-.386 0-.555.009-.971.019l-.194.004-.023-.023V8.03c0-.044.013-.069.043-.083l.036-.012.215-.023c.336-.032.462-.14.484-.412l.003-.097V1.596c0-.717-.098-.899-.296-.92l-.044-.002-.362-.024a.072.072 0 0 1-.058-.028l-.01-.03-.022-.285C83.235.272 84.028.118 84.31 0c.102 0 .147.035.147.118 0 0-.029.403-.033 1.07v4.264c.294-.071.871-.603 1.482-1.301.125-.13.533-.615-.147-.65a.088.088 0 0 1-.084-.06l-.006-.035V3.18s.034-.012.034-.023c.418.011.577.023 1.007.023.34 0 .507-.008.795-.018l.19-.005.045.023v.225c0 .044-.038.069-.08.083l-.044.012-.08.011c-.267.042-.682.2-.97.446l-.116.11-.86.994a.155.155 0 0 0-.046.118c0 .04.01.079.027.115l.03.05 1.324 2.046c.179.28.478.441.74.51l.11.022.079.012c.06.01.087.025.097.057l.005.038.003-.04c.005-.023.015-.04.032-.048l.03-.007.222-.023c.272-.032.376-.138.396-.402l.003-.107V1.596c0-.713-.08-.897-.24-.92l-.038-.002-.297-.024a.056.056 0 0 1-.048-.028l-.008-.03-.018-.285c.38-.035 1.02-.189 1.252-.307Zm2.86 3.104c1.487 0 2.06 1.395 2.06 2.593 0 1.152-.654 2.581-2.08 2.581-1.347 0-2.06-1.302-2.06-2.477 0-1.579.744-2.697 2.08-2.697Zm4.96.6c-.362 0-.863.299-1.14.848l-.071.157v2.988c.408.502.78.526.967.526 1.247 0 1.562-1.249 1.562-2.253 0-1.384-.606-2.266-1.317-2.266Zm-5.07-.22c-.805 0-1.116 1.05-1.116 2.052 0 .887.382 2.362 1.376 2.362.452 0 1.055-.311 1.055-1.832 0-1.694-.492-2.581-1.316-2.581Zm10.611-.38c1.489 0 1.838 1.037 1.838 2.005 0 .127-.079.196-.203.196h-2.966c0 1.717.97 2.409 1.602 2.409.62 0 1.015-.208 1.41-.646.124.012.191.07.225.185-.429.599-1.094 1.025-1.906 1.025-1.545 0-2.233-1.083-2.233-2.408 0-1.752 1.162-2.766 2.233-2.766ZM108.709 0c.102 0 .148.035.148.117 0 0-.034.466-.034 1.224v5.445c0 .583.045.653.284.676l.546.058.034.269c-.705.128-1.205.28-1.456.49h-.261l.023-.817-.023-.012c-.523.432-1.092.805-1.547.805-1.228 0-1.91-1.05-1.91-2.484 0-.862.273-1.55.762-2.052.455-.443.955-.7 1.706-.7.227 0 .727.106.989.257V1.574c0-.758-.114-.91-.341-.91l-.364-.023c-.034 0-.068-.023-.068-.058l-.023-.28c.466-.035 1.25-.186 1.535-.303Zm-1.854 3.428c-.227 0-.705.035-1.057.583-.17.245-.318.711-.318 1.55 0 1.458.625 2.146 1.239 2.146.296 0 .74-.245 1.25-.665V4.116c-.272-.443-.58-.688-1.114-.688Zm-4.248.068c-.26 0-1.094.058-1.297 1.36h2.075c.113 0 .158-.058.158-.161 0-.968-.53-1.199-.936-1.199Zm12.222-.392.032.025v.238c0 .062-.042.087-.117.1-.391.037-.603.486-.75.849a71.51 71.51 0 0 0-.093.232l-.182.463c-.452 1.163-.893 2.39-1.599 4.399-.317.899-.719 1.973-1.47 1.973-.201 0-.614-.138-.614-.587 0-.375.233-.487.402-.487a.37.37 0 0 1 .328.175c.106.124.18.212.286.212.159 0 .55-1.099.815-1.86a.97.97 0 0 0 .084-.388c0-.124-.095-.462-.18-.711l-1.333-3.659c-.17-.474-.296-.574-.645-.612-.064-.012-.106-.037-.106-.087v-.25l.021-.025c.212.013.53.025.889.025.38 0 .762-.012 1.153-.025l.021.038v.225c0 .062-.063.1-.116.1-.402.037-.55.137-.392.561l1.164 3.222 1.175-3.172c.233-.5-.085-.574-.413-.612-.053 0-.106-.025-.106-.087v-.237l.022-.038c.391.013.624.025.994.025.296 0 .466-.012.73-.025Zm1.856 0c.731 0 1.473.311 1.473 1.948V6.89c.004.479.04.881.401.881.24 0 .27-.184.33-.184.04 0 .111.092.111.173 0 .057-.34.518-.832.518-.531 0-.691-.426-.752-.668h-.02l-.2.184c-.44.392-.631.484-1.092.484-.702 0-1.243-.334-1.243-1.244 0-.784.671-1.395 1.634-1.671l.861-.242c.03-.012.06-.058.06-.138 0-1.302-.47-1.533-.811-1.533-.381 0-.832.161-.832.519 0 .126.01.195.02.23.02.046.03.127.03.207 0 .15-.15.38-.441.38-.23 0-.35-.126-.35-.403 0-.622.831-1.279 1.653-1.279Zm.731 2.374-.791.242c-.742.23-.972.75-.972 1.268 0 .357.24.818.741.818.28 0 .622-.254.882-.496a.36.36 0 0 0 .14-.3V5.479Z"/></svg>