<?xml version="1.0" encoding="UTF-8"?>
<svg xmlns="http://www.w3.org/2000/svg" width="119" height="18" viewBox="0 0 119 18">
	<title>
		cs-wordmark
	</title>
	<g id="Page-1" fill="none" fill-rule="evenodd" stroke="none" stroke-width="1">
		<path id="cs-wordmark" fill="#000" fill-rule="nonzero" d="M25.8662675,0.11868 C26.0182675,0.27968 26.0182675,0.84768 25.8662675,1.00968 C24.1972675,1.22568 23.9072675,2.25668 23.3812675,3.51968 L17.3962675,17.28668 C17.2192675,17.69168 17.0672675,17.90768 16.7902675,17.90768 C16.5372675,17.90768 16.3422675,17.68868 16.2082675,17.28668 L12.8072675,9.45068 L9.07826753,17.28668 C8.92726753,17.69168 8.74926753,17.90768 8.47126753,17.90768 C8.21926753,17.90768 8.04126753,17.69168 7.89026753,17.28668 L2.39026753,3.46668 C1.61926753,1.54968 1.56826753,1.14568 0.127267529,1.01068 C-0.0247324708,0.84868 -0.0497324708,0.28168 0.102267529,0.11968 C1.29026753,0.14568 1.72026753,0.17368 2.73126753,0.17368 C3.71726753,0.17368 4.34926753,0.14668 5.53826753,0.11968 C5.69026753,0.28068 5.69026753,0.84868 5.53826753,1.01068 C3.94526753,1.19868 3.87726753,1.62568 4.51226753,3.16968 L9.14126753,14.42568 L9.25726753,14.42568 L12.0812675,8.29268 L9.95026753,3.46668 C9.10326753,1.54968 8.90126753,1.17268 7.81326753,1.01068 C7.66226753,0.84868 7.63626753,0.28168 7.78826753,0.11968 C8.59726753,0.14568 9.02726753,0.17368 10.0382675,0.17368 C11.0242675,0.17368 11.4292675,0.14668 12.3392675,0.11968 C12.4912675,0.28068 12.4912675,0.84868 12.3392675,1.01068 C11.2772675,1.17268 11.3782675,1.63068 12.0712675,3.16968 L13.3152675,5.89668 L13.4262675,6.01768 L14.7662675,3.33168 C15.5472675,1.76668 15.6512675,1.17268 14.5642675,1.01068 C14.4122675,0.84668 14.4122675,0.27968 14.5642675,0.11868 C15.5002675,0.14468 15.9802675,0.17268 16.5612675,0.17268 C17.1432675,0.17268 17.7752675,0.14568 18.4072675,0.11868 C18.5582675,0.27968 18.5582675,0.84768 18.4072675,1.00968 C17.0922675,1.22568 16.5432675,2.25368 15.9212675,3.51968 L14.0732675,7.27468 L17.3072675,14.42468 L17.4232675,14.42468 L22.2252675,3.33068 C22.8242675,1.86968 22.7812675,1.14368 21.1382675,1.00968 C20.9862675,0.84768 20.9862675,0.28068 21.1382675,0.11868 C22.3262675,0.14468 23.0592675,0.17268 23.6412675,0.17268 C24.2232675,0.17268 24.8552675,0.14568 25.8662675,0.11868 Z M87.3450915,5.04893 C89.5978655,5.09113 91.2819675,5.70875 92.3973975,6.90179 C93.5128075,8.09484 94.0700075,9.6102 94.0680129,11.44785 C93.9909275,13.77039 93.3080675,15.38249 92.0194075,16.28417 C90.7307255,17.18584 89.2986205,17.61667 87.7230865,17.57677 C86.6661565,17.57457 85.8437925,17.56547 85.2559935,17.54977 C84.6681845,17.53397 84.1765665,17.52477 83.7811375,17.52277 C83.3075155,17.52507 82.7292735,17.53407 82.0464105,17.54977 C81.3635425,17.56547 80.9877945,17.57477 80.9191745,17.57677 L80.9191745,17.57677 L80.8921735,17.52277 L80.8921735,16.95576 C80.8921735,16.91359 80.9056735,16.87649 80.9326735,16.84439 C80.9596725,16.81239 81.0001725,16.79579 81.0541725,16.79379 L81.0541725,16.79379 L81.6751645,16.73979 C82.0745325,16.7083 82.3557785,16.6093 82.5189035,16.4428 C82.6820205,16.2763 82.7607505,15.98831 82.7551505,15.57881 L82.7551505,15.57881 L82.7551505,6.66892 C82.7658355,6.33425 82.6972105,6.12616 82.5492775,6.04456 C82.4013395,5.96303 82.1099695,5.91013 81.6751645,5.88593 L81.6751645,5.88593 L81.0811725,5.83193 C81.0260445,5.83143 80.9810445,5.81903 80.9461745,5.79483 C80.9112945,5.77063 80.8932745,5.73803 80.8921735,5.69693 L80.8921735,5.69693 L80.8921735,5.10293 L80.9191745,5.04893 C80.9455065,5.04963 81.1568365,5.05393 81.5531665,5.06293 C81.9494925,5.07163 82.3728205,5.07993 82.8231505,5.08893 C83.2734745,5.09793 83.5928035,5.10228 83.7811375,5.10293 C84.1101915,5.10073 84.6805585,5.09173 85.4922405,5.07593 C86.3039115,5.06023 86.9215275,5.05093 87.3450915,5.04893 Z M30.9881155,5.04893 L31.0151165,5.10293 L31.0151165,5.69693 C31.0151165,5.78242 30.9611095,5.82792 30.8531175,5.83192 L30.8531175,5.83192 L30.2861245,5.88592 C29.8726865,5.9225 29.5790655,6.00462 29.4052605,6.1323 C29.2314495,6.25999 29.1470395,6.45687 29.1521395,6.72291 L29.1521395,6.72291 L29.1521445,15.71381 C29.1453895,16.01137 29.2263885,16.24649 29.3951415,16.41917 C29.5638835,16.59186 29.8608795,16.69869 30.2861295,16.73979 L30.2861295,16.73979 L30.8531225,16.79379 C30.8953065,16.79379 30.9324265,16.80729 30.9644965,16.83429 C30.9965465,16.86129 31.0134165,16.90179 31.0151165,16.95579 L31.0151165,16.95579 L31.0151165,17.52278 L30.9881165,17.57678 C30.9200485,17.57458 30.5431785,17.56548 29.8575065,17.54978 C29.1718225,17.53398 28.5857055,17.52478 28.0991535,17.52278 C27.6491555,17.52508 27.0776635,17.53408 26.3846755,17.54978 C25.6916835,17.56548 25.3091905,17.57478 25.2371905,17.57678 L25.2371905,17.57678 L25.1831905,17.52278 L25.1831905,16.95579 C25.1843105,16.90179 25.2023205,16.86129 25.2371905,16.83429 C25.2720645,16.80729 25.3170585,16.79379 25.3721885,16.79379 L25.3721885,16.79379 L25.9121825,16.73979 C26.3503615,16.69367 26.6552315,16.57667 26.8267945,16.3888 C26.9983575,16.20093 27.0804675,15.97593 27.0731675,15.71381 L27.0731675,15.71381 L27.0731675,6.72292 C27.0771015,6.43325 26.9882275,6.22963 26.8065455,6.11206 C26.6248585,5.99451 26.3267375,5.91913 25.9121825,5.88593 L25.3721885,5.83193 C25.3170605,5.83253 25.2720605,5.82463 25.2371905,5.80833 C25.2023105,5.79203 25.1842905,5.76383 25.1831905,5.72393 L25.1831905,5.72393 L25.1831905,5.10293 L25.2101905,5.04893 C25.2816255,5.05123 25.6719945,5.06023 26.3812995,5.07593 C27.0905995,5.09173 27.6902165,5.10093 28.1801515,5.10293 C28.6160795,5.10073 29.1751965,5.09173 29.8575055,5.07593 C30.5398035,5.06023 30.9166755,5.05093 30.9881155,5.04893 L30.9881155,5.04893 Z M116.599948,-7.10542736e-15 C116.676438,-7.10542736e-15 116.711938,0.027 116.707938,0.081 L116.707938,0.081 C116.747908,0.26947 116.836778,0.81059 116.974608,1.70437 C117.112398,2.59819 117.221578,3.36205 117.301978,3.99597 L117.301978,3.99597 L116.518988,4.13097 C116.256288,3.19331 115.917668,2.46994 115.503128,1.96087 C115.088558,1.45183 114.392188,1.194 113.414028,1.188 L113.414028,1.188 L110.579058,1.188 C110.255058,1.18352 110.012068,1.24652 109.850068,1.377 C109.688078,1.50752 109.607068,1.73251 109.607078,2.05199 L109.607078,2.05199 L109.607078,7.77592 L113.036028,7.77592 C113.500638,7.77593 113.833638,7.68143 114.035018,7.49242 C114.236378,7.30344 114.353408,7.01994 114.386008,6.64193 L114.386008,6.64193 L114.467008,5.96694 C114.468108,5.91074 114.486108,5.86124 114.521008,5.81844 C114.555878,5.77574 114.600908,5.75294 114.656008,5.75094 L114.656008,5.75094 L115.249998,5.75094 C115.289898,5.75204 115.318098,5.76324 115.334398,5.78464 C115.350998,5.80594 115.358548,5.83074 115.357998,5.85884 C115.353498,5.89992 115.335498,6.17554 115.303998,6.68571 C115.272498,7.1959 115.253998,7.69427 115.249998,8.18081 C115.254498,8.68482 115.272498,9.20906 115.303998,9.75354 C115.335498,10.29804 115.352998,10.59278 115.357998,10.63778 L115.357998,10.63778 L115.276998,10.71878 L114.656008,10.71878 C114.587888,10.71598 114.535088,10.69458 114.497388,10.65468 C114.459688,10.6147 114.440548,10.5731 114.439988,10.5298 L114.439988,10.5298 L114.385988,9.82781 C114.363488,9.44251 114.246488,9.17364 114.034998,9.0212 C113.823488,8.86873 113.490498,8.79583 113.036008,8.80183 L113.036008,8.80183 L109.607058,8.80183 L109.607058,15.57874 C109.610428,15.9348 109.698168,16.17442 109.870298,16.2976 C110.042418,16.42083 110.278668,16.47773 110.579038,16.46973 L110.579038,16.46973 L114.250998,16.46973 C115.266848,16.44385 116.063338,16.09736 116.640468,15.43024 C117.217568,14.76313 117.636058,13.93064 117.895948,12.93277 L117.895948,12.93277 L118.732938,13.06777 L117.733948,17.57671 C117.670938,17.57451 117.256948,17.56541 116.491968,17.54971 C115.726968,17.53391 114.988978,17.52471 114.277998,17.52271 L114.277998,17.52271 L108.527068,17.52271 L105.071108,17.57671 L105.017108,17.52271 L105.017108,16.98272 C105.015908,16.93945 105.031708,16.89775 105.064308,16.85785 C105.096938,16.81795 105.153158,16.79675 105.233058,16.79375 L105.233058,16.79375 L106.043048,16.73975 C106.561108,16.70319 106.922228,16.59407 107.126408,16.41238 C107.330628,16.2307 107.428028,15.95283 107.420028,15.57877 L107.420028,15.57877 L107.420028,2.05194 C107.426778,1.64246 107.325528,1.35447 107.116288,1.18795 C106.907038,1.02147 106.549288,0.92246 106.043048,0.89096 L106.043048,0.89096 L105.233058,0.83696 C105.141388,0.83416 105.081788,0.81286 105.054188,0.77286 C105.027088,0.73299 105.014088,0.69129 105.017088,0.64799 L105.017088,0.64799 L105.017088,0.108 L105.071088,0.081 C105.100258,0.081 105.344918,0.084 105.805078,0.088 C106.265238,0.092 106.765898,0.097 107.307068,0.101 C107.693603,0.103857143 108.011522,0.106040816 108.260823,0.107172012 L115.506855,0.1073408 C115.729777,0.105104 115.906272,0.09744 116.036328,0.0844 C116.198878,0.0681 116.386748,0.04 116.599948,-7.10542736e-15 Z M102.331868,5.04893 L102.358868,5.10293 L102.358868,5.69693 C102.358868,5.78242 102.304858,5.82792 102.196868,5.83192 L102.196868,5.83192 L101.629878,5.88592 C101.216438,5.9225 100.922818,6.00462 100.749008,6.1323 C100.575188,6.25999 100.490888,6.45687 100.495888,6.72291 L100.495888,6.72291 L100.495918,15.71381 C100.489168,16.01137 100.570168,16.24649 100.738918,16.41917 C100.907658,16.59186 101.204658,16.69869 101.629908,16.73979 L101.629908,16.73979 L102.196898,16.79379 C102.239068,16.79379 102.276168,16.80729 102.308268,16.83429 C102.340268,16.86129 102.356868,16.90179 102.358868,16.95579 L102.358868,16.95579 L102.358868,17.52278 L102.331868,17.57678 C102.263798,17.57458 101.886928,17.56548 101.201258,17.54978 C100.515568,17.53398 99.9294575,17.52478 99.4429075,17.52278 C98.9929075,17.52508 98.4214175,17.53408 97.7284275,17.54978 C97.0354275,17.56548 96.6529375,17.57478 96.5809375,17.57678 L96.5809375,17.57678 L96.5269375,17.52278 L96.5269375,16.95579 C96.5280375,16.90179 96.5460375,16.86129 96.5809375,16.83429 C96.6158175,16.80729 96.6608375,16.79379 96.7159375,16.79379 L96.7159375,16.79379 L97.2559275,16.73979 C97.6941075,16.69367 97.9989775,16.57667 98.1705475,16.3888 C98.3421175,16.20093 98.4239175,15.97593 98.4169175,15.71381 L98.4169175,15.71381 L98.4169175,6.72292 C98.4208475,6.43325 98.3319775,6.22963 98.1502975,6.11206 C97.9686075,5.99451 97.6704875,5.91913 97.2559275,5.88593 L97.2559275,5.88593 L96.7159375,5.83193 C96.6608375,5.83253 96.6158375,5.82463 96.5809375,5.80833 C96.5460375,5.79203 96.5279375,5.76383 96.5269375,5.72393 L96.5269375,5.72393 L96.5269375,5.10293 L96.5539375,5.04893 C96.6253775,5.05123 97.0157475,5.06023 97.7250475,5.07593 C98.4343475,5.09173 99.0339675,5.10093 99.5238975,5.10293 C99.9598275,5.10073 100.518948,5.09173 101.201258,5.07593 C101.883558,5.06023 102.260468,5.05093 102.331868,5.04893 L102.331868,5.04893 Z M77.7967255,5.04892 L77.8507255,5.10292 C77.8675895,5.68174 77.9148335,6.23861 77.9924735,6.77353 C78.0700875,7.30847 78.1578405,7.83159 78.2557205,8.34288 L78.2557205,8.34288 L77.5807295,8.45088 C77.4530335,7.91259 77.2089115,7.38272 76.8483645,6.86128 C76.4877975,6.33986 75.8859305,6.05971 75.0427625,6.02091 L75.0427625,6.02091 L72.8827895,6.02091 C72.6257255,6.01924 72.4311035,6.06986 72.2989225,6.17278 C72.1667305,6.27573 72.1003575,6.44111 72.0998005,6.6689 L72.0998005,6.6689 L72.0998005,10.58385 L74.1247735,10.58385 C74.4926365,10.58161 74.7491325,10.50511 74.8942635,10.35436 C75.0393795,10.20362 75.1338805,9.99212 75.1777605,9.71986 L75.1777605,9.71986 L75.3397585,9.15287 C75.3397505,9.06737 75.3937495,9.02287 75.5017565,9.01787 L75.5017565,9.01787 L75.9607505,9.01787 C75.9866205,9.01787 76.0024005,9.02457 76.0080005,9.03807 C76.0136005,9.05167 76.0158005,9.07187 76.0147005,9.09887 C75.9843215,9.4015 75.9505715,9.72775 75.9134515,10.07761 C75.8763215,10.42749 75.8561015,10.76723 75.8527015,11.09685 C75.8560715,11.43097 75.8763215,11.74822 75.9134515,12.04858 C75.9505705,12.34896 75.9843205,12.65271 76.0147005,12.95982 L76.0147005,12.95982 L75.9607005,13.01382 L75.5017065,13.01382 C75.3711985,13.00933 75.3082085,12.96432 75.3127085,12.87882 L75.3127085,12.87882 L75.1777105,12.28483 C75.1304535,12.01372 75.0292045,11.80672 74.8739645,11.66384 C74.7187085,11.52094 74.4689625,11.44884 74.1247235,11.44784 L74.1247235,11.44784 L72.0997505,11.44784 L72.0997505,15.57879 C72.1019945,15.84597 72.1717435,16.0811 72.3089965,16.28416 C72.4462395,16.48722 72.6374875,16.59408 72.8827395,16.60478 L72.8827395,16.60478 L75.4477065,16.60478 C76.1322515,16.59803 76.6733695,16.39553 77.0710615,15.99728 C77.4687335,15.59904 77.7466045,15.04555 77.9046755,14.33681 L77.9046755,14.33681 L78.5796665,14.41781 L78.0396735,17.52277 L77.9856735,17.57677 C77.9361625,17.57457 77.6369175,17.56547 77.0879345,17.54977 C76.5389325,17.53397 76.0371895,17.52477 75.5827045,17.52277 L75.5827045,17.52277 L70.8578205,17.52267 C70.3920725,17.52497 69.8453305,17.53397 69.2175915,17.54967 C68.5898485,17.56537 68.2456045,17.57467 68.1848545,17.57677 L68.1848545,17.57677 L68.1578545,17.52267 L68.1578545,16.92868 C68.1561645,16.89948 68.1662845,16.87028 68.1882245,16.84098 C68.2101605,16.81178 68.2540375,16.79578 68.3198475,16.79378 L68.3198475,16.79378 L68.9408395,16.73978 C69.3520195,16.68972 69.6366405,16.5536 69.7947035,16.33141 C69.9527655,16.10923 70.0281255,15.85836 70.0208255,15.5788 L70.0208255,15.5788 L70.0208255,6.66891 C70.0230725,6.36799 69.9375735,6.16662 69.7643285,6.0648 C69.5910795,5.96302 69.3165825,5.90332 68.9408395,5.88592 L68.9408395,5.88592 L68.3198475,5.83192 C68.2422195,5.81732 68.1949695,5.79932 68.1780995,5.77792 C68.1612495,5.75652 68.1544495,5.73852 68.1578495,5.72392 L68.1578495,5.72392 L68.1578495,5.10292 L68.1848495,5.04892 C68.2557225,5.05122 68.6404665,5.06022 69.3390835,5.07592 C70.0376965,5.09172 70.6249395,5.10092 71.1008115,5.10292 L71.1008115,5.10292 L75.0697605,5.10292 C75.5377455,5.10072 76.0934885,5.09172 76.7369885,5.07592 C77.3804705,5.06022 77.7337155,5.05092 77.7967255,5.04892 L77.7967255,5.04892 Z M53.6619435,5.04893 L53.6889445,5.10293 L53.6889445,5.69693 C53.6889445,5.78242 53.6349375,5.82792 53.5269455,5.83192 L53.5269455,5.83192 L52.9599525,5.88592 C52.5465145,5.9225 52.2528935,6.00462 52.0790885,6.1323 C51.9052775,6.25999 51.8208675,6.45687 51.8259675,6.72291 L51.8259675,6.72291 L51.8259725,15.71381 C51.8192175,16.01137 51.9002165,16.24649 52.0689695,16.41917 C52.2377125,16.59186 52.5347075,16.69869 52.9599575,16.73979 L52.9599575,16.73979 L53.5269505,16.79379 C53.5691345,16.79379 53.6062545,16.80729 53.6383245,16.83429 C53.6703745,16.86129 53.6872445,16.90179 53.6889445,16.95579 L53.6889445,16.95579 L53.6889445,17.52278 L53.6619445,17.57678 C53.5938765,17.57458 53.2170065,17.56548 52.5313345,17.54978 C51.8456505,17.53398 51.2595335,17.52478 50.7729815,17.52278 C50.3229835,17.52508 49.7514915,17.53408 49.0585035,17.54978 C48.3655115,17.56548 47.9830185,17.57478 47.9110185,17.57678 L47.9110185,17.57678 L47.8570185,17.52278 L47.8570185,16.95579 C47.8581385,16.90179 47.8761485,16.86129 47.9110185,16.83429 C47.9458925,16.80729 47.9908875,16.79379 48.0460175,16.79379 L48.0460175,16.79379 L48.5860105,16.73979 C49.0241895,16.69367 49.3290595,16.57667 49.5006225,16.3888 C49.6721755,16.20093 49.7542955,15.97593 49.7469955,15.71381 L49.7469955,15.71381 L49.7469955,6.72292 C49.7509295,6.43325 49.6620555,6.22963 49.4803735,6.11206 C49.2986865,5.99451 49.0005655,5.91913 48.5860105,5.88593 L48.0460175,5.83193 C47.9908885,5.83253 47.9458885,5.82463 47.9110185,5.80833 C47.8761385,5.79203 47.8581185,5.76383 47.8570185,5.72393 L47.8570185,5.72393 L47.8570185,5.10293 L47.8840185,5.04893 C47.9554535,5.05123 48.3458225,5.06023 49.0551275,5.07593 C49.7644275,5.09173 50.3640445,5.10093 50.8539795,5.10293 C51.2899075,5.10073 51.8490245,5.09173 52.5313335,5.07593 C53.2136315,5.06023 53.5905035,5.05093 53.6619435,5.04893 L53.6619435,5.04893 Z M61.5949605,5.04893 C63.4613035,5.09845 64.6965365,5.47194 65.3006635,6.16942 C65.9047695,6.86692 66.1815125,7.59141 66.1309025,8.34289 C66.1781405,9.22489 65.8878945,10.12038 65.2601635,11.02936 C64.6324125,11.93835 63.3836795,12.42884 61.5139615,12.50084 C61.1781475,12.50314 60.8710275,12.48514 60.5925985,12.44684 C60.3141595,12.4086 60.0542875,12.3366 59.8129835,12.23084 L59.8129835,12.23084 L59.8129835,15.8488 C59.8084785,16.13623 59.8984775,16.3376 60.0829805,16.45291 C60.2674725,16.56822 60.5734685,16.65488 61.0009685,16.71278 L61.0009685,16.71278 L61.5409615,16.79378 C61.5960795,16.80558 61.6410795,16.82248 61.6759595,16.84438 C61.7108295,16.86635 61.7288595,16.90345 61.7299595,16.95575 L61.7299595,16.95575 L61.7299595,17.52274 L61.7029595,17.57674 C61.6303915,17.57454 61.2355215,17.56544 60.5183495,17.54974 C59.8011665,17.53394 59.1970495,17.52474 58.7059975,17.52274 C58.2593755,17.52504 57.7013835,17.53404 57.0320195,17.54974 C56.3626525,17.56544 55.9936535,17.57474 55.9250335,17.57674 L55.9250335,17.57674 L55.8980335,17.52274 L55.8980335,16.95575 C55.8980335,16.90348 55.9115335,16.86628 55.9385335,16.84438 C55.9655325,16.82248 56.0060325,16.80558 56.0600325,16.79378 L56.0600325,16.79378 L56.6270245,16.71278 C57.0393295,16.6616 57.3284505,16.56822 57.4943885,16.43266 C57.6603205,16.2971 57.7402105,16.10248 57.7340105,15.8488 L57.7340105,15.8488 L57.7340105,6.77682 C57.7458195,6.37634 57.6344465,6.12434 57.3998895,6.02083 C57.1653275,5.91733 56.7367085,5.85433 56.1140315,5.83183 C56.0352835,5.82963 55.9835335,5.81393 55.9587835,5.78463 C55.9340335,5.75543 55.9227335,5.72623 55.9250335,5.69693 L55.9250335,5.69693 L55.9250335,5.07593 L55.9790335,5.04893 C56.2231535,5.05123 56.6393975,5.06023 57.2277675,5.07593 C57.8161315,5.09173 58.3268745,5.10093 58.7599975,5.10293 C59.1464255,5.10073 59.5885445,5.09173 60.0863555,5.07593 C60.5841555,5.06023 61.0870235,5.05093 61.5949605,5.04893 Z M45.6440545,5.04888 L45.7250545,5.07588 L45.7250545,5.69688 C45.7205405,5.78237 45.6485415,5.82787 45.5090565,5.83187 C44.9943635,5.84989 44.5252445,5.92863 44.1017005,6.06812 C43.6781325,6.20763 43.2292635,6.54288 42.7550925,7.07386 L42.7550925,7.07386 L40.4331225,9.74682 C40.2064305,9.98758 40.0455535,10.18783 39.9505035,10.34757 C39.8554305,10.50732 39.8093305,10.64007 39.8121305,10.74581 C39.8138105,10.82569 39.8374305,10.90221 39.8830005,10.97531 C39.9285555,11.04844 39.9859245,11.12491 40.0551245,11.20481 L40.0551245,11.20481 L44.1320715,16.11874 C44.3030575,16.30437 44.5280545,16.44609 44.8070625,16.54399 C45.0860465,16.64186 45.3650425,16.71613 45.6440525,16.76673 L45.6440525,16.76673 L45.7790505,16.79373 C45.8223535,16.80723 45.8639735,16.82753 45.9039235,16.85453 C45.9438435,16.88148 45.9652435,16.91528 45.9680435,16.95578 L45.9680435,16.95578 L45.9680435,17.52277 L45.8870435,17.54977 C45.8431565,17.54867 45.5731595,17.54427 45.0770545,17.53627 C44.5809235,17.52877 44.1219305,17.52377 43.7000725,17.52277 C43.3361285,17.52387 42.9772585,17.52827 42.6234615,17.53627 C42.2696435,17.54377 42.0795235,17.54877 42.0530935,17.54977 L42.0530935,17.54977 L42.0260935,17.52277 L42.0260935,17.19878 C42.0328335,17.02722 42.0125835,16.85735 41.9653435,16.68916 C41.9180845,16.52098 41.8033355,16.33085 41.6210975,16.11879 L41.6210975,16.11879 L38.6241365,12.39284 C38.4244455,12.12847 38.2095735,11.94845 37.9795195,11.85285 C37.7494545,11.75725 37.4873335,11.71185 37.1931545,11.71785 L37.1931545,11.71785 L37.1931665,15.71379 C37.1914745,16.00797 37.2825985,16.23634 37.4665385,16.3989 C37.6504685,16.56146 37.9373395,16.67507 38.3271525,16.73977 L38.3271525,16.73977 L38.6241485,16.79377 C38.6663325,16.80557 38.7034525,16.82247 38.7355225,16.84437 C38.7675725,16.86634 38.7844425,16.90344 38.7861425,16.95574 L38.7861425,16.95574 L38.7861425,17.52273 L38.7591425,17.57673 C38.7051375,17.57453 38.3878915,17.56543 37.8074055,17.54973 C37.2269075,17.53393 36.7071645,17.52473 36.2481755,17.52273 C35.7936775,17.52503 35.2041855,17.53403 34.4796975,17.54973 C33.7552055,17.56543 33.3547135,17.57473 33.2782135,17.57673 L33.2782135,17.57673 L33.2242135,17.52273 L33.2242135,16.95574 C33.2253435,16.90174 33.2433335,16.86124 33.2782135,16.83424 C33.3130865,16.80724 33.3580915,16.79374 33.4132115,16.79374 L33.4132115,16.79374 L33.9532045,16.73974 C34.3559475,16.69362 34.6506925,16.57662 34.8374425,16.38875 C35.0241895,16.20088 35.1163895,15.97588 35.1141895,15.71376 L35.1141895,15.71376 L35.1141895,6.72287 C35.1198115,6.4332 35.0343125,6.22958 34.8576925,6.11201 C34.6810675,5.99446 34.3795715,5.91908 33.9532045,5.88588 L33.9532045,5.88588 L33.4132115,5.83188 C33.3580835,5.83248 33.3130835,5.82458 33.2782135,5.80828 C33.2433335,5.79198 33.2253135,5.76378 33.2242135,5.72388 L33.2242135,5.72388 L33.2242135,5.10288 L33.2512135,5.04888 C33.3260235,5.05118 33.7298925,5.06018 34.4628225,5.07588 C35.1957475,5.09168 35.8088645,5.10088 36.3021745,5.10288 C36.7352895,5.10068 37.2392825,5.09168 37.8141545,5.07588 C38.3890165,5.06018 38.7040125,5.05088 38.7591425,5.04888 L38.7591425,5.04888 L38.7861425,5.10288 L38.7861425,5.69688 C38.7861325,5.73618 38.7726325,5.76548 38.7456425,5.78458 C38.7186345,5.80368 38.6781345,5.81938 38.6241445,5.83178 L38.6241445,5.83178 L38.3271485,5.88578 C37.9137105,5.95779 37.6200895,6.05004 37.4462845,6.16253 C37.2724725,6.27504 37.1880625,6.46179 37.1931625,6.72277 L37.1931625,6.72277 L37.1931625,10.79972 C37.6167145,10.80704 38.0115845,10.67767 38.3777725,10.4116 C38.7439495,10.14555 39.2130675,9.69893 39.7851295,9.07174 C40.3374885,8.47157 40.7919825,7.9372 41.1486115,7.46864 C41.5052235,7.00009 41.6897245,6.63447 41.7021045,6.37178 C41.7032205,6.25985 41.6402215,6.15298 41.5131075,6.05116 C41.3859745,5.94936 41.1879775,5.87628 40.9191145,5.83178 C40.8651065,5.81948 40.8246065,5.80368 40.7976165,5.78458 C40.7706065,5.76548 40.7571075,5.73628 40.7571165,5.69688 L40.7571165,5.69688 L40.7571165,5.07588 L40.7841165,5.04888 C40.8589195,5.05118 41.2560385,5.06018 41.9754765,5.07588 C42.6948945,5.09168 43.2877615,5.10088 43.7540785,5.10288 C44.1399365,5.10068 44.5426805,5.09168 44.9623125,5.07588 C45.3819195,5.06018 45.6091645,5.05088 45.6440545,5.04888 L45.6440545,5.04888 Z M86.5621015,5.83192 C86.0294145,5.82462 85.6097955,5.87975 85.3032425,5.9973 C84.9966795,6.11487 84.8403245,6.33874 84.8341245,6.66891 L84.8341245,6.66891 L84.8341245,15.5788 C84.7992445,15.96017 84.9162435,16.25717 85.1851195,16.46979 C85.4539855,16.68241 86.0839765,16.79078 87.0750955,16.79378 C88.5679425,16.82641 89.7131765,16.48441 90.5108005,15.7678 C91.3084045,15.05118 91.7111355,13.7642 91.7190355,11.90685 C91.7876475,10.42525 91.4951515,9.06177 90.8415465,7.8164 C90.1879195,6.57105 88.7614395,5.90952 86.5621015,5.83192 Z M61.6551847,5.83009777 L61.4329625,5.83192 C60.7984655,5.82744 60.3664715,5.89718 60.1369795,6.04117 C59.9074735,6.18518 59.7994835,6.43043 59.8129835,6.77691 L59.8129835,6.77691 L59.8129835,11.47485 C60.0885995,11.57945 60.3810955,11.64695 60.6904725,11.67735 C60.9998375,11.70775 61.2923335,11.72085 61.5679615,11.71785 C62.3768175,11.72067 62.9798095,11.47204 63.3769375,10.97198 C63.7740495,10.47193 63.9720305,9.70357 63.9709351,8.66689 C63.9579835,7.53291 63.7206115,6.77017 63.2588135,6.37867 C62.7969995,5.98718 62.1883835,5.80492 61.4329625,5.83192 Z"/>
	</g>
</svg>
