<svg xmlns="http://www.w3.org/2000/svg" width="120" height="12"><path fill="#000" fill-rule="evenodd" d="M1.273 2.012c.03.213.048.33.057.35.041.143.117.214.225.214h2.56c.635 0 1.11.08 1.423.238.435.226.652.634.652 1.223v.81l-.063 3.198a3.48 3.48 0 0 1-.965 1.21l.056-4.151c.008-.933-.27-1.399-.834-1.399H0a6.722 6.722 0 0 1 1.273-1.693Zm.464 2.377c-.017.368-.025.719-.025 1.053l-.031 2.503c-.234.485-.558.909-.972 1.273v-.055c.002-.287.014-1.493.037-3.62.276-.36.607-.745.991-1.154ZM12.123 8.36a4.442 4.442 0 0 1-.86.966l-.068-3.406c-.026-1.48-.402-2.22-1.13-2.22H7.012c.155-.614.56-1.187 1.217-1.718l.057.401c.037.126.117.188.238.188h1.825c1.183 0 1.775.993 1.775 2.98v2.81Zm4.12-4.035c0 .351-.163.782-.489 1.292-.113.171-.422.59-.928 1.254l-.765.232c.736-1.104 1.103-1.883 1.103-2.34 0-.392-.42-.817-1.26-1.272l-.81-.433c.034-.042.32-.42.86-1.135l.797.54c.995.672 1.492 1.293 1.492 1.862Zm6.43 3.321-.747 1.13H16.84l.759-1.13h3.223c0-.075.002-.184.006-.326.005-.146.007-.257.007-.332 0-1.505-.09-2.502-.27-2.992a.946.946 0 0 0-.107-.225c-.046-.046-.133-.07-.263-.07h-3.148A5.798 5.798 0 0 1 18.2 2.009l.144.565h2.17c.53 0 .89.186 1.079.558.12.242.182.633.182 1.173 0 .945-.028 2.059-.082 3.342h.978Zm3.53-3.321c0 .351-.163.782-.49 1.292-.112.171-.422.59-.928 1.254l-.765.232c.736-1.104 1.104-1.883 1.104-2.34 0-.392-.42-.817-1.26-1.272l-.81-.433c.034-.042.32-.42.86-1.135l.796.54c.995.672 1.493 1.293 1.493 1.862Zm5.695-.43c0 1.204-.496 2.368-1.486 3.493-.615.69-1.69 1.28-3.224 1.769l.64-1.424c.828-.188 1.453-.41 1.875-.665.372-.226.663-.562.872-1.01.2-.426.3-.882.3-1.367 0-.66-.206-.99-.62-.99H27.89c-.317 0-.529-.028-.633-.082-.092-.042-.142-.134-.15-.276l-.05-1.098a3.09 3.09 0 0 0-.308-1.104L27.633 0c.18.25.27.556.27.916v.859c0 .531.077.796.232.796h2.684c.46 0 .765.122.916.364.109.18.163.5.163.96Zm4.922-1.883c.03.213.048.33.057.35.041.143.117.214.225.214h2.56c.635 0 1.11.08 1.423.238.435.226.652.634.652 1.223v.81l-.063 3.198a3.48 3.48 0 0 1-.965 1.21l.056-4.151c.008-.933-.27-1.399-.834-1.399h-4.384a6.722 6.722 0 0 1 1.273-1.693Zm.464 2.377c-.016.367-.025.719-.025 1.053l-.031 2.503c-.234.485-.558.909-.972 1.273v-.056c.002-.286.014-1.492.037-3.62.276-.36.607-.744.991-1.153Zm9.277-2.466.796.54c.995.672 1.493 1.293 1.493 1.862 0 .351-.163.782-.49 1.292-.108.171-.415.59-.921 1.254l-.772.232c.736-1.104 1.104-1.884 1.104-2.34 0-.392-.42-.817-1.26-1.272l-.81-.433c.034-.042.32-.42.86-1.135Zm-3.105 0 .797.54c.995.672 1.492 1.293 1.492 1.862 0 .351-.163.782-.489 1.292-.113.171-.422.59-.928 1.254l-.765.232c.736-1.104 1.104-1.884 1.104-2.34 0-.392-.42-.817-1.261-1.272l-.81-.433c.034-.042.32-.42.86-1.135Zm11.703.654-.514 1.129h-.696v4.51c-.234.28-.554.59-.96.934V3.706h-3.455a16.84 16.84 0 0 1 1.36-1.775c.021.234.049.389.082.464.05.121.142.182.276.182h2.057c.21-.251.44-.462.69-.634v.634h1.16Zm3.657 1.748c0 .351-.163.782-.49 1.292-.112.171-.422.59-.928 1.254l-.765.232C57.37 6 57.737 5.22 57.737 4.763c0-.392-.42-.817-1.26-1.272l-.81-.433c.034-.042.32-.42.86-1.135l.796.54c.995.672 1.493 1.293 1.493 1.862Zm5.788 1.235c0 .477-.04 1.123-.119 1.938-.07.192-.3.617-.69 1.273h-4.459c.251-.376.475-.752.671-1.129h3.657c.07-.397.106-.788.106-1.172a7.54 7.54 0 0 0-.282-2.026c-.518-.481-1.29-.897-2.314-1.248-.301.259-.452.585-.452.978 0 .251.103.47.308.659.096.087.29.215.583.382l-.62.935c-.444-.272-.718-.456-.823-.552-.28-.251-.42-.53-.42-.834 0-.481.216-1.031.646-1.65.372-.53.73-.9 1.073-1.11.614.176 1.21.445 1.787.81.56.35.962.697 1.204 1.04.096.552.145 1.12.145 1.706Zm3.7-.906-.05 3.569c-.254.405-.55.757-.884 1.053l-.094-4.236c-.008-.506-.2-.882-.577-1.13l-1.298-.858.784-1.11 1.593 1.135c.247.171.405.412.477.721.041.171.058.458.05.86v-.004Zm5.814-.76c0 1.205-.495 2.37-1.486 3.494-.615.69-1.69 1.28-3.224 1.769l.64-1.424c.828-.188 1.453-.41 1.875-.665.372-.226.663-.562.872-1.01.2-.426.3-.882.3-1.367 0-.66-.206-.99-.62-.99h-2.364c-.318 0-.53-.028-.634-.082-.092-.042-.142-.134-.15-.276l-.05-1.098a3.09 3.09 0 0 0-.308-1.104L69.854 0c.18.25.27.556.27.916v.859c0 .53.077.796.231.796h2.685c.46 0 .765.122.915.364.109.18.163.5.163.96Zm2.333.383.395 5.933c-.171.452-.424.851-.759 1.198l-.508-5.676c.184-.535.475-1.02.872-1.455ZM76.27 1.97l.05.39c.026.141.099.213.22.213h4.095c.314 0 .559.133.734.401.147.226.22.493.22.803 0 1.371-.429 2.567-1.286 3.587-.619.736-1.572 1.275-2.86 1.618.142-.305.335-.746.577-1.323a4.006 4.006 0 0 0 1.68-.734c.565-.41.848-1.112.848-2.107 0-.744-.214-1.116-.64-1.116h-4.949a5.245 5.245 0 0 1 1.311-1.732Zm9.239 2.356c0 .351-.163.782-.49 1.292-.112.171-.422.59-.928 1.254l-.765.232C84.061 6 84.43 5.22 84.43 4.763c0-.392-.42-.817-1.26-1.272l-.81-.433c.034-.042.32-.42.86-1.135l.796.54c.995.672 1.493 1.293 1.493 1.862Zm2.096-2.447c.042.16.107.391.195.696h4.22c.72 0 1.08.63 1.08 1.888 0 .903-.37 1.852-1.11 2.847-.816 1.092-1.7 1.637-2.654 1.637-.514 0-.878-.131-1.091-.395-.172-.209-.347-.665-.527-1.367l-.602-2.39c-.163-.643-.466-1.036-.91-1.178.427-.603.893-1.182 1.4-1.738Zm4.045 1.825h-3.675l.772 3.261c.07.301.138.504.2.609a.523.523 0 0 0 .483.263c.72 0 1.34-.282 1.863-.847a2.847 2.847 0 0 0 .784-2c0-.54-.142-.968-.427-1.286Zm5.183 1.482c0 .31-.026 1.074-.076 2.295l-.734 1.299h-2.515c.138-.222.34-.598.603-1.13h1.787c.059-.493.088-.93.088-1.31 0-.623-.055-1.231-.163-1.825a5.596 5.596 0 0 0-1.813-1.411l.721-1.091c.711.38 1.378.915 2.001 1.605.067.418.1.94.1 1.568Zm7.713 2.782-.577 1.235c-.735-1.05-1.726-2.22-2.972-3.512a71.945 71.945 0 0 0-1.142-1.141c-.435.53-.648 1.187-.64 1.969.005.36.046.736.126 1.129h.834l-.527 1.129H97.98l.207-.602a7.88 7.88 0 0 1-.05-.734c0-.623.115-1.198.345-1.725.154-.347.468-.863.94-1.549l-1.555-1.248.703-.922c.698.527 1.597 1.332 2.696 2.415.301.292.709.71 1.223 1.254.293-.452.44-.926.44-1.424 0-.389-.095-.719-.283-.99l.96-1.242c.305.656.455 1.16.451 1.511-.004.406-.15.861-.439 1.367-.25.397-.504.795-.759 1.192a18.27 18.27 0 0 1 1.687 1.888Zm4.755-5.955c.03.213.048.33.056.35.042.143.118.214.226.214h2.56c.635 0 1.11.08 1.423.238.435.226.652.634.652 1.223v.81l-.063 3.198a3.48 3.48 0 0 1-.965 1.21l.056-4.151c.008-.933-.27-1.399-.834-1.399h-4.384a6.722 6.722 0 0 1 1.273-1.693Zm.464 2.377c-.017.367-.025.719-.025 1.053l-.031 2.503c-.234.485-.558.909-.972 1.273v-.056c.002-.286.014-1.492.037-3.62.276-.36.607-.744.991-1.153ZM120 3.895c0 1.204-.496 2.368-1.486 3.493-.615.69-1.69 1.28-3.224 1.769l.64-1.424c.828-.188 1.453-.41 1.875-.665.372-.226.663-.562.872-1.01.2-.426.3-.882.3-1.367 0-.66-.206-.99-.62-.99h-2.365c-.317 0-.529-.028-.633-.082-.092-.042-.142-.134-.15-.276l-.05-1.098a3.09 3.09 0 0 0-.308-1.104L115.735 0c.18.25.27.556.27.916v.859c0 .53.077.796.232.796h2.684c.46 0 .765.122.916.364.109.18.163.5.163.96Z"/></svg>