<svg xmlns="http://www.w3.org/2000/svg" width="120" height="14"><path fill="#000" fill-rule="nonzero" d="M6.785 2.161c.355-.422.814-.78 1.377-1.075C8.92.73 9.616.613 10.253.734c.643.114 1.551.82 2.724 2.12l2.433 3.147-.06.764-3.62-3.619a3.065 3.065 0 0 0-1.346-.311c-.43.06-1.11.318-2.04.774L6.784 2.16m5.066 5.569c-.409 1.079-.868 1.756-1.377 2.03-.502.268-.968.403-1.397.403-.436 0-.828-.101-1.176-.302-.342-.208-.794-.854-1.357-1.94-.496-.925-1.09-1.444-1.78-1.558-.69-.114-1.32.114-1.89.683l-1.427 1.93L0 7.428c.637-.971 1.206-1.742 1.709-2.312.764-.63 1.521-.918 2.272-.864.757.047 1.538.472 2.342 1.277C7.328 7.137 8.132 7.94 8.735 7.94c.59-.054 1.113-.643 1.568-1.77l1.548 1.559m8.776-4.594 6.966 6.966-.764.764-5.509-5.518-2.764 2.764-1.448-1.458 3.519-3.518m10.775 1.026c1.863-1.662 3.843-1.448 5.94.643l2.434 3.046-.06.854-2.413-2.412c-.804-.805-1.609-1.207-2.413-1.207-.804 0-1.608.402-2.412 1.207l-2.222 2.512-1.548-1.95 2.694-2.693m12.867.26c1.863-1.862 3.843-1.748 5.94.343l3.137 3.146-.764.764-2.413-2.423c-.804-.804-1.608-1.206-2.412-1.206-.804 0-1.609.402-2.413 1.206l-2.422 2.423-1.448-1.458 2.795-2.794m1.699 4.352c1.038-.985 2.389-.693 4.05.875l2.483 2.352-.683.653-1.84-1.749c-.616-.576-1.183-.914-1.699-1.015-.509-.1-.965.044-1.367.432l-1.226 1.156-1.287-1.216 1.569-1.488m24.054-5.599 1.457 1.448-5.589 5.589-6.282-6.273.764-.764 4.825 4.825 4.825-4.825m5.247 1.247c1.863-1.863 3.843-1.75 5.94.342l3.137 3.146-.764.764-2.413-2.423c-.804-.804-1.608-1.206-2.412-1.206-.804 0-1.608.402-2.413 1.206l-2.422 2.423-1.448-1.458 2.795-2.794m1.699 4.352c1.038-.985 2.389-.693 4.05.875l2.483 2.352-.683.653-1.84-1.749c-.616-.576-1.182-.914-1.698-1.015-.51-.1-.965.044-1.367.432l-1.227 1.156-1.286-1.216 1.568-1.488m12.052-5.72 1.457 1.448-2.764 2.765 5.519 5.508-.764.764-6.966-6.966 3.518-3.518m15.62.321 1.458 1.448-5.589 5.589-6.282-6.273.764-.764 4.825 4.825 4.825-4.825M99.816 0l1.447 1.458-1.447 1.447-1.448-1.447L99.816 0m12.866 3.176 1.448 1.448-5.59 5.589-1.447-1.448 5.59-5.589m5.87-.01L120 4.615l-5.589 5.59-1.447-1.448 5.589-5.59"/></svg>