<?xml version="1.0" encoding="UTF-8"?>
<svg width="114px" height="13px" viewBox="0 0 114 13" version="1.1" xmlns="http://www.w3.org/2000/svg" xmlns:xlink="http://www.w3.org/1999/xlink">
    <title>als-tagline</title>
    <g id="Page-1" stroke="none" stroke-width="1" fill="none" fill-rule="evenodd">
        <path d="M2.46190987,8.56437768 L2.46190987,1.86909871 C2.46190987,1.38090129 2.9501073,1.18562232 3.63358369,1.18562232 C6.64645923,1.18562232 7.63680258,3.62660944 7.63680258,5.77467811 C7.63680258,8.59227468 5.94903433,9.28969957 3.98229614,9.28969957 C2.61534335,9.28969957 2.46190987,9.01072961 2.46190987,8.56437768 Z M1.86212446,0.739270386 C1.36416313,0.739270386 0.620708155,0.725321888 0.0627682403,0.711373391 C-0.0209227468,0.795064378 -0.0209227468,1.08798283 0.0627682403,1.17167382 C1.03916309,1.21351931 1.27628755,1.2832618 1.27628755,2.44098712 L1.27628755,8.03433476 C1.27628755,9.19206009 1.03916309,9.26180258 0.0627682403,9.30364807 C-0.0209227468,9.38733906 -0.0209227468,9.68025751 0.0627682403,9.7639485 C0.606759657,9.75 1.35021463,9.7360515 1.87607296,9.7360515 C2.39216738,9.7360515 2.97800429,9.7639485 4.41469957,9.7639485 C6.38143777,9.7639485 8.97585837,8.87124464 8.97585837,5.43991416 C8.97585837,2.84549356 6.8417382,0.711373391 4.16362661,0.711373391 C3.17328326,0.711373391 2.40611588,0.739270386 1.86212446,0.739270386 Z M10.8310086,1.38090129 C10.8310086,1.74356223 11.1657725,2.10622318 11.5005365,2.10622318 C11.8910944,2.10622318 12.2258584,1.73100824 12.2258584,1.43669528 C12.2258584,1.10193133 11.9329399,0.711373391 11.5563305,0.711373391 C11.2215665,0.711373391 10.8310086,1.04613734 10.8310086,1.38090129 Z M12.1003219,8.03433476 L12.1003219,5.25439931 C12.1003219,4.5611588 12.1561159,3.66845494 12.1561159,3.66845494 C12.1561159,3.61266094 12.0863734,3.57081545 11.9747854,3.57081545 C11.5772532,3.72424893 11.0262876,3.84978541 10.0638412,3.97532189 C10.0359442,4.05901288 10.0638412,4.28218884 10.0917382,4.36587983 C10.8519313,4.43701725 10.9983906,4.5193133 10.9983906,5.31437768 L10.9983906,8.03433476 C10.9983906,9.19206009 10.8449571,9.23390558 9.99409871,9.30364807 C9.91040773,9.38733906 9.91040773,9.68025751 9.99409871,9.7639485 C10.4543991,9.75 10.9983906,9.7360515 11.5563305,9.7360515 C12.1142704,9.7360515 12.6443133,9.75 13.1046137,9.7639485 C13.1883047,9.68025751 13.1883047,9.38733906 13.1046137,9.30364807 C12.2537554,9.24785408 12.1003219,9.19206009 12.1003219,8.03433476 Z M20.6507511,-8.8817842e-16 C21.180794,-8.8817842e-16 21.5434549,0.0418454936 21.9061159,0.292918455 C22.1990343,0.516094421 22.3524678,0.767167382 22.3524678,1.00429185 C22.3524678,1.2832618 22.0177039,1.57618026 21.7805794,1.57618026 C21.4876609,1.57618026 21.3342275,1.38090129 21.2226395,1.12982833 C21.0273605,0.641630901 20.8041845,0.474248927 20.3857296,0.474248927 C19.9254292,0.474248927 19.2837983,0.809012876 19.2837983,2.95708155 L19.2837983,3.75214592 L20.7902361,3.75214592 C20.8599785,3.75214592 20.901824,3.78004292 20.901824,3.83583691 L20.901824,4.11480687 C20.901824,4.24034335 20.7065451,4.29613734 20.5810086,4.29613734 L19.2837983,4.29613734 L19.2837983,8.03433476 C19.2837983,9.19206009 19.3674893,9.24785408 20.4554721,9.30364807 C20.5391631,9.38733906 20.5391631,9.68025751 20.4554721,9.7639485 C19.9672747,9.75 19.2977468,9.7360515 18.7398069,9.7360515 C18.181867,9.7360515 17.6936695,9.75 17.2054721,9.7639485 C17.1217811,9.68025751 17.1217811,9.38733906 17.2054721,9.30364807 C17.958691,9.24785408 18.181867,9.19206009 18.181867,8.03433476 L18.181867,4.29613734 L17.2194206,4.29613734 C17.1636266,4.29613734 17.1496781,4.28218884 17.1496781,4.21244635 L17.1496781,4.03111588 C17.1496781,3.9195279 17.2194206,3.75214592 17.4704936,3.75214592 L18.181867,3.75214592 L18.181867,3.19420601 C18.181867,1.01824034 19.4790773,-8.8817842e-16 20.6507511,-8.8817842e-16 Z M23.3428112,3.57081545 C23.4543991,3.57081545 23.4809012,3.61824026 23.5101931,3.68240343 C23.575751,3.82607279 23.5980687,4.18454936 23.6217811,4.74248927 C23.6245708,4.81223176 23.6915236,4.92381974 23.7752146,4.77038627 C24.09603,4.22639485 24.6679185,3.61266094 25.3234979,3.61266094 C25.9093348,3.61266094 26.1604077,4.01577245 26.1604077,4.28218884 C26.1604077,4.63090129 25.8395923,4.97961373 25.5048283,4.97961373 C25.2621245,4.97961373 25.1059012,4.79409888 24.9998925,4.6546139 C24.8910944,4.51094412 24.7655579,4.47746781 24.6400215,4.47746781 C24.4726395,4.47746781 24.151824,4.93776824 23.9983906,5.16094421 C23.8310086,5.41201717 23.6636266,5.73283262 23.6636266,6.09549356 L23.6636266,8.03433476 C23.6636266,9.19206009 23.8310086,9.23390558 24.8074034,9.30364807 C24.8910944,9.38733906 24.8910944,9.68025751 24.8074034,9.7639485 C24.319206,9.75 23.6775751,9.7360515 23.1196352,9.7360515 C22.5616953,9.7360515 22.0177039,9.75 21.5295064,9.7639485 C21.4458155,9.68025751 21.4458155,9.38733906 21.5295064,9.30364807 C22.3943133,9.24785408 22.5616953,9.19206009 22.5616953,8.03433476 L22.5616953,5.31437768 C22.5616953,4.50536481 22.4082618,4.43562232 21.6550429,4.36587983 C21.6271459,4.28218884 21.5992489,4.05901288 21.6271459,3.97532189 C22.5895923,3.84978541 22.9522532,3.72424893 23.3428112,3.57081545 Z M28.0853004,5.80257511 C28.3503219,4.22639485 29.3267167,4.10085837 29.6614807,4.10085837 C30.1915236,4.10085837 30.819206,4.39377682 30.819206,5.56545064 C30.819206,5.69098712 30.763412,5.75793974 30.6099785,5.76072961 L28.0853004,5.80257511 Z M31.7398069,8.4388412 C31.2237124,8.96888412 30.819206,9.19206009 30.0101931,9.19206009 C29.5080472,9.19206009 28.9222103,8.89914163 28.4898069,8.18776824 C28.2108369,7.72746781 28.0434549,7.08583691 28.0434549,6.27682403 L31.7537554,6.30472103 C31.9211373,6.30472103 32.0187768,6.22103004 32.0187768,6.06759657 C32.0187768,4.89592275 31.6003219,3.64055794 29.6614807,3.64055794 C28.4479614,3.64055794 26.8717811,4.79828326 26.8717811,6.91845494 C26.8717811,7.69957082 27.0670601,8.4527897 27.5273605,8.98283262 C28.0016094,9.54077253 28.6571888,9.87553648 29.6614807,9.87553648 C30.7215665,9.87553648 31.4747854,9.38733906 32.0327253,8.66201717 C31.9908798,8.52253219 31.9071888,8.4527897 31.7398069,8.4388412 Z M33.84603,1.38090129 C33.84603,1.74356223 34.180794,2.10622318 34.5155579,2.10622318 C34.9061159,2.10622318 35.2408798,1.73100824 35.2408798,1.43669528 C35.2408798,1.10193133 34.9479614,0.711373391 34.5713519,0.711373391 C34.236588,0.711373391 33.84603,1.04613734 33.84603,1.38090129 Z M35.1153433,8.03433476 L35.1153433,5.25439931 C35.1153433,4.5611588 35.1711373,3.66845494 35.1711373,3.66845494 C35.1711373,3.61266094 35.1013948,3.57081545 34.9898069,3.57081545 C34.5922747,3.72424893 34.041309,3.84978541 33.0788627,3.97532189 C33.0509657,4.05901288 33.0788627,4.28218884 33.1067597,4.36587983 C33.8669528,4.43701725 34.013412,4.5193133 34.013412,5.31437768 L34.013412,8.03433476 C34.013412,9.19206009 33.8599785,9.23390558 33.0091202,9.30364807 C32.9254292,9.38733906 32.9254292,9.68025751 33.0091202,9.7639485 C33.4694206,9.75 34.013412,9.7360515 34.5713519,9.7360515 C35.1292918,9.7360515 35.6593348,9.75 36.1196352,9.7639485 C36.2033262,9.68025751 36.2033262,9.38733906 36.1196352,9.30364807 C35.2687768,9.24785408 35.1153433,9.19206009 35.1153433,8.03433476 Z M43.7773605,4.70064378 L42.5080472,4.70064378 L42.5080472,2.18991416 C42.5080472,1.57618026 42.6754292,1.2972103 43.4286481,1.2972103 L44.4747854,1.2972103 C45.5209227,1.2972103 45.7440987,1.85515021 46.0509657,2.81759657 C46.223927,2.84270369 46.374571,2.81341219 46.5112661,2.74785408 C46.4415236,2.17596567 46.2322961,0.836909871 46.2043991,0.725321888 C46.2043991,0.697424893 46.1904506,0.683476395 46.1486052,0.683476395 C45.9114807,0.725321888 45.7998927,0.739270386 45.4651288,0.739270386 L41.9082618,0.739270386 C41.4828326,0.739270386 40.6668455,0.725321888 40.1089056,0.711373391 C40.0252146,0.795064378 40.0252146,1.08798283 40.1089056,1.17167382 C41.0853004,1.21351931 41.3224249,1.2832618 41.3224249,2.44098712 L41.3224249,8.03433476 C41.3224249,9.19206009 41.0853004,9.26180258 40.1089056,9.30364807 C40.0252146,9.38733906 40.0252146,9.68025751 40.1089056,9.7639485 C40.625,9.75 41.4619099,9.7360515 41.9222103,9.7360515 L44.9211373,9.7360515 C45.5906652,9.7360515 46.7065451,9.7639485 46.7065451,9.7639485 C46.901824,9.06652361 47.1110515,8.14592275 47.2226395,7.43454936 C47.0775748,7.3522533 46.9171675,7.32017172 46.7344421,7.36480687 C46.4554721,8.36909871 45.9672747,9.19206009 44.9071888,9.19206009 L43.2891631,9.19206009 C42.7033262,9.19206009 42.5080472,8.96888412 42.5080472,8.31330472 L42.5080472,5.2306867 L43.7773605,5.2306867 C44.9629828,5.2306867 45.0048283,5.55150215 45.0466738,6.17918455 C45.1303648,6.26287554 45.4232833,6.26287554 45.5069742,6.17918455 C45.4930258,5.81652361 45.4790773,5.43015004 45.4790773,4.95171674 C45.4790773,4.5611588 45.4930258,4.08690987 45.5069742,3.75214592 C45.4232833,3.66845494 45.1303648,3.66845494 45.0466738,3.75214592 C45.0048283,4.5193133 44.9629828,4.70064378 43.7773605,4.70064378 Z M50.1936695,4.74248927 C50.1085836,4.84012876 50.0304721,4.87360507 50.0262876,4.74248927 C50.0123391,4.36587983 49.9802575,3.82607279 49.9146996,3.68240343 C49.8854076,3.61824026 49.8589056,3.57081545 49.7473176,3.57081545 C49.3567597,3.72424893 48.9940987,3.84978541 48.0316524,3.97532189 C48.0037554,4.05901288 48.0316524,4.28218884 48.0595494,4.36587983 C48.8127682,4.43562232 48.9662017,4.50536481 48.9662017,5.31437768 L48.9662017,8.03433476 C48.9662017,9.17811159 48.8267167,9.23390558 47.9898069,9.30364807 C47.9061159,9.38733906 47.9061159,9.68025751 47.9898069,9.7639485 C48.4082618,9.75 48.9662017,9.7360515 49.5241416,9.7360515 C50.0820815,9.7360515 50.5005365,9.75 50.9189914,9.7639485 C51.0026824,9.68025751 51.0026824,9.38733906 50.9189914,9.30364807 C50.207618,9.23390558 50.068133,9.17811159 50.068133,8.03433476 L50.068133,5.74678112 C50.068133,5.45386266 50.1936695,5.28648069 50.3052575,5.16094421 C50.8353004,4.64484979 51.4629828,4.33798283 52.0069742,4.33798283 C52.2859442,4.33798283 52.5788627,4.5193133 52.7462446,4.84012876 C52.8857296,5.11909871 52.9136266,5.49570815 52.9136266,5.91416309 L52.9136266,8.03433476 C52.9136266,9.17811159 52.7741416,9.23390558 52.0488197,9.30364807 C51.9790773,9.38733906 51.9790773,9.68025751 52.0488197,9.7639485 C52.4672747,9.75 52.9136266,9.7360515 53.4715665,9.7360515 C54.0295064,9.7360515 54.5316524,9.75 54.9501073,9.7639485 C55.0198498,9.68025751 55.0198498,9.38733906 54.9501073,9.30364807 C54.1689914,9.23390558 54.0155579,9.17811159 54.0155579,8.03433476 L54.0155579,5.95600858 C54.0155579,5.1888412 53.9597639,4.5193133 53.6389485,4.08690987 C53.401824,3.78004292 52.9694206,3.61266094 52.4812232,3.61266094 C51.7977468,3.61266094 51.0208155,3.79399142 50.1936695,4.74248927 Z M56.1775751,3.61266094 C56.1440988,3.61266094 56.0938841,3.66287562 56.0938841,3.69635193 C56.0799356,4.32403433 56.0101931,4.81223176 55.8846567,5.49570815 C56.0074033,5.54731777 56.1831544,5.57381983 56.3449571,5.53755365 C56.623927,4.5193133 57.0563305,4.27800446 57.4747854,4.26824034 L59.2601931,4.22639485 C58.3116953,5.81652361 56.9168455,7.8251073 55.8288627,9.28969957 C55.7089055,9.45150223 55.7033262,9.49892704 55.7033262,9.56866953 C55.7033262,9.66630901 55.8149142,9.7360515 56.0241416,9.7360515 L60.376073,9.777897 C60.5434549,9.30364807 60.7247854,8.57832618 60.8224249,7.88090129 C60.7317597,7.82929189 60.5713519,7.7972103 60.40397,7.7972103 L60.208691,8.20171674 C59.8530043,8.93819747 59.568455,9.24506442 58.8417382,9.26180258 L56.986588,9.26180258 C58.0187768,7.95064378 59.4694206,5.76072961 60.3342275,4.33798283 C60.5476393,3.98648052 60.5853004,3.8776824 60.5853004,3.82188841 C60.5853004,3.76609442 60.5155579,3.72424893 60.4179185,3.72424893 C60.348176,3.72424893 59.957618,3.75214592 59.5531116,3.75214592 L57.0005365,3.75214592 C56.5527896,3.75214592 56.3798283,3.68798275 56.1775751,3.61266094 Z M63.9468884,11.9678112 C64.1644851,11.5800429 64.3472103,11.181116 64.5187768,10.7682403 C65.6346567,8.07618026 66.2595492,6.64506429 66.9876609,5.07725322 C67.2624465,4.48723193 67.4619099,4.26405596 68.1174893,4.18454936 C68.2011803,4.10085837 68.2011803,3.80793991 68.1174893,3.72424893 C67.8385193,3.73819742 67.5177039,3.75214592 67.1271459,3.75214592 C66.708691,3.75214592 66.2762876,3.73819742 65.8578326,3.72424893 C65.7741416,3.80793991 65.7741416,4.10085837 65.8578326,4.18454936 C66.2986052,4.22639485 66.7505365,4.31008584 66.5273605,4.81223176 L65.1436694,8.00643777 C65.0460299,8.23100867 64.9288626,8.26866957 64.8103003,7.99248927 L63.5730686,5.09120172 C63.3219955,4.50257494 63.2494633,4.24452773 64.0305792,4.18454936 C64.1142702,4.10085837 64.1142702,3.80793991 64.0305792,3.72424893 C63.5144848,3.73819742 62.9565449,3.75214592 62.4543989,3.75214592 C61.98015,3.75214592 61.6035406,3.73819742 61.3245706,3.72424893 C61.2408796,3.80793991 61.2408796,4.10085837 61.3245706,4.18454936 C61.8783259,4.25429185 62.0596564,4.37982833 62.425107,5.2306867 L64.0026822,8.89914163 C64.1240341,9.17950652 64.3374461,9.81974249 64.1979612,10.2103004 C64.0319741,10.6761802 63.8631972,11.0611588 63.6539697,11.4935622 C63.5005363,11.7725322 63.3052573,11.8980687 62.9565449,11.8980687 C62.7612659,11.8980687 62.7054719,11.8562232 62.5520384,11.8562232 C62.147532,11.8562232 61.9383045,12.2746781 61.9383045,12.4560086 C61.9383045,12.748927 62.2172745,12.972103 62.5938839,12.972103 C62.8868024,12.972103 63.4447423,12.860515 63.9468882,11.9678112 L63.9468884,11.9678112 Z M69.4844421,8.03433476 C69.4844421,9.19206009 69.3310086,9.24785408 68.5498927,9.30364807 C68.4662017,9.38733906 68.4662017,9.68025751 68.5498927,9.7639485 C69.0101931,9.75 69.4844421,9.7360515 70.042382,9.7360515 C70.5305794,9.7360515 70.9908798,9.75 71.3116953,9.7639485 C71.3953863,9.68025751 71.3953863,9.38733906 71.3116953,9.30364807 C70.7398069,9.24785408 70.5863734,9.19206009 70.5863734,8.03433476 L70.5863734,6.82221039 C70.8541845,6.82918463 71.0508584,6.85010738 71.1861588,6.89753219 C71.3395923,7.00214592 71.4665237,7.1276824 71.6325107,7.35085837 L72.6507511,8.71781116 C73.0608368,9.26877682 73.2184551,9.53100863 73.236588,9.69420601 C73.2407724,9.7360515 73.2505365,9.7639485 73.292382,9.7639485 C73.5713519,9.75 73.8782189,9.7360515 74.1571888,9.7360515 C74.5895923,9.7360515 75.0219957,9.75 75.3009657,9.7639485 C75.3846567,9.68025751 75.3846567,9.38733906 75.3009657,9.30364807 C74.8267167,9.24785408 74.4738199,9.18648077 74.1013948,8.71781116 L72.2601931,6.40236052 C72.2099785,6.33959227 72.1625536,6.27682403 72.1625536,6.20708155 C72.1625536,6.15128755 72.1625536,6.12339056 72.2183476,6.06759657 L73.4458155,4.79828326 C73.8642704,4.35193133 74.3524678,4.24034335 74.9104077,4.18454936 C74.9940987,4.10085837 74.9940987,3.80793991 74.9104077,3.72424893 C74.5895923,3.73819742 74.1990343,3.75214592 73.6968884,3.75214592 C73.1668455,3.75214592 72.6507511,3.73819742 72.3299356,3.72424893 C72.2462446,3.80793991 72.2462446,4.10085837 72.3299356,4.18454936 C73.1110515,4.24034335 72.7804719,4.73272515 72.6507511,4.89592275 C72.3299356,5.30042918 71.8933478,5.77467811 71.5348712,6.03969957 C71.2252146,6.26845485 70.8499999,6.43304717 70.5863734,6.46931335 L70.5863734,1.60407747 C70.5863734,0.697425106 70.6421674,0.139485191 70.6421674,0.139485191 C70.6421674,0.0418457064 70.5863734,2.12836993e-07 70.4608369,2.12836993e-07 C70.1121245,0.139485191 69.0659871,0.334764161 68.5080472,0.376609655 C68.4801502,0.488197638 68.5080472,0.711373603 68.5917382,0.795064591 C69.3170601,0.836910084 69.4844421,0.767167595 69.4844421,1.93884141 L69.4844421,8.03433476 Z M76.7516094,8.03433476 C76.7516094,9.19206009 76.598176,9.26180258 75.7473176,9.30364807 C75.6636266,9.38733906 75.6636266,9.68025751 75.7473176,9.7639485 C76.235515,9.75 76.7516094,9.7360515 77.3095494,9.7360515 C77.8674893,9.7360515 78.3975322,9.75 78.8578326,9.7639485 C78.9415236,9.68025751 78.9415236,9.38733906 78.8578326,9.30364807 C78.0069742,9.26180258 77.8535408,9.19206009 77.8535408,8.03433476 L77.8535408,1.60407725 C77.8535408,0.697424893 77.9093348,0.139484979 77.9093348,0.139484979 C77.9093348,0.0418454936 77.8535408,-8.8817842e-16 77.7280043,-8.8817842e-16 C77.3792918,0.139484979 76.3331545,0.334763948 75.7752146,0.376609442 C75.7473176,0.488197425 75.7752146,0.711373391 75.8589056,0.795064378 C76.6679185,0.850858369 76.7516094,0.892703863 76.7516094,1.9388412 L76.7516094,8.03433476 Z M79.680794,6.87660944 C79.680794,8.29935622 80.6292918,9.87553648 82.6099785,9.87553648 C83.5082617,9.87553648 84.1833689,9.55890562 84.6590128,9.0944206 C85.2839057,8.48347635 85.5670601,7.60611592 85.5670601,6.75107296 C85.5670601,5.30042918 84.7719957,3.61266094 82.6378755,3.61266094 C81.7200643,3.61266094 80.9626609,3.98927039 80.452146,4.58905579 C79.9458155,5.18326189 79.680794,5.99506421 79.680794,6.87660944 Z M82.4286481,4.10085837 C83.6282189,4.10085837 84.3674893,5.1888412 84.3674893,7.19742489 C84.3674893,8.95493562 83.4608369,9.38733906 82.8052575,9.38733906 C81.3546137,9.38733906 80.8803648,7.62982833 80.8803648,6.55579399 C80.8803648,5.34227468 81.1732833,4.10085837 82.4286481,4.10085837 Z M88.5799356,5.11909871 C88.9425966,4.67274678 89.5814378,4.25429185 89.9887339,4.25429185 C90.8814378,4.25429185 91.6486052,5.25858369 91.6486052,6.83476395 C91.6486052,7.97854077 91.2440987,9.40128755 89.681867,9.40128755 C89.430794,9.40128755 88.9425966,9.33154506 88.6915236,9.10697416 C88.4111587,8.8559012 88.3567597,8.77500009 88.3567597,8.27145923 L88.3567597,5.73283262 C88.3567597,5.43991416 88.418133,5.31856206 88.5799356,5.11909871 Z M88.3149142,4.60300429 C88.2939914,4.18454936 88.2688841,3.82607279 88.2033262,3.68240343 C88.1740342,3.61824026 88.1475322,3.57081545 88.0359442,3.57081545 C87.6453863,3.72424893 87.2827253,3.84978541 86.320279,3.97532189 C86.292382,4.05901288 86.320279,4.28218884 86.348176,4.36587983 C87.1013948,4.43562232 87.2548283,4.50536481 87.2548283,5.31437768 L87.2548283,11.2703863 C87.2548283,12.4281116 87.1013948,12.4978541 86.2505365,12.5396996 C86.1668455,12.6233906 86.1668455,12.916309 86.2505365,13 C86.7387339,12.9860515 87.2548283,12.972103 87.8127682,12.972103 C88.3707082,12.972103 89.0402361,12.9860515 89.5005365,13 C89.5842275,12.916309 89.5842275,12.6233906 89.5005365,12.5396996 C88.5101931,12.4839056 88.3567597,12.4281116 88.3567597,11.2703863 L88.3567597,9.7639485 C88.3567597,9.58261803 88.409764,9.60075112 88.5520386,9.65933476 C88.8937768,9.79742481 89.3247853,9.87553648 89.7655579,9.87553648 C90.5466738,9.87553648 91.2440987,9.63841202 91.8159871,9.0944206 C92.4715665,8.4527897 92.848176,7.58798283 92.848176,6.45815451 C92.848176,4.97961373 91.8020386,3.61266094 90.3792918,3.61266094 C89.7306867,3.61266094 89.0193133,4.03809013 88.4683476,4.65879828 C88.390236,4.74667365 88.3218884,4.73690996 88.3149142,4.60300429 Z M95.1078326,5.80257511 C95.3728541,4.22639485 96.3492489,4.10085837 96.6840129,4.10085837 C97.2140558,4.10085837 97.8417382,4.39377682 97.8417382,5.56545064 C97.8417382,5.69098712 97.7859442,5.75793974 97.6325107,5.76072961 L95.1078326,5.80257511 Z M98.7623391,8.4388412 C98.2462446,8.96888412 97.8417382,9.19206009 97.0327253,9.19206009 C96.5305794,9.19206009 95.9447425,8.89914163 95.5123391,8.18776824 C95.2333691,7.72746781 95.0659871,7.08583691 95.0659871,6.27682403 L98.7762876,6.30472103 C98.9436695,6.30472103 99.041309,6.22103004 99.041309,6.06759657 C99.041309,4.89592275 98.6228541,3.64055794 96.6840129,3.64055794 C95.4704936,3.64055794 93.8943133,4.79828326 93.8943133,6.91845494 C93.8943133,7.69957082 94.0895923,8.4527897 94.5498927,8.98283262 C95.0241416,9.54077253 95.679721,9.87553648 96.6840129,9.87553648 C97.7440987,9.87553648 98.4973176,9.38733906 99.0552575,8.66201717 C99.013412,8.52253219 98.929721,8.4527897 98.7623391,8.4388412 Z M104.425429,8.00643777 C104.425429,8.27145923 104.398927,8.38025755 104.202253,8.55042918 C103.686159,8.99678112 103.239807,9.21995708 102.891094,9.21995708 C102.137876,9.21995708 101.35676,8.39699571 101.35676,6.65343348 C101.35676,5.64914163 101.552039,5.09120172 101.761266,4.79828326 C102.19367,4.14270386 102.779506,4.10085837 103.058476,4.10085837 C103.560622,4.10085837 103.909335,4.28218884 104.188305,4.60300429 C104.383584,4.82618026 104.425429,4.92381974 104.425429,5.35622318 L104.425429,8.00643777 Z M104.271996,9.03444223 C104.338948,8.98004296 104.471459,8.95493562 104.481223,9.05257511 C104.516094,9.3943133 104.634657,9.87553648 104.634657,9.87553648 C104.746245,9.91738197 104.815987,9.91040773 104.899678,9.87553648 C105.206545,9.62446352 105.694742,9.41523605 106.545601,9.31759657 C106.629292,9.23390558 106.629292,9.02467811 106.545601,8.94098712 C105.652897,8.87124464 105.527361,8.60622318 105.527361,7.92274678 L105.527361,1.60407725 C105.527361,0.697424893 105.583155,0.139484979 105.583155,0.139484979 C105.583155,0.0418454936 105.527361,-8.8817842e-16 105.401824,-8.8817842e-16 C105.053112,0.139484979 104.006974,0.334763948 103.449034,0.376609442 C103.421137,0.488197425 103.449034,0.711373391 103.532725,0.795064378 C104.258047,0.836909871 104.425429,0.767167382 104.425429,1.9388412 L104.425429,3.72424893 C104.425429,3.82188841 104.397532,3.84978541 104.299893,3.84978541 C104.244099,3.84978541 103.67221,3.61266094 103.21191,3.61266094 C102.291309,3.61266094 101.677575,3.9195279 101.119635,4.44957082 C100.51985,5.04935622 100.157189,5.8723176 100.157189,6.90450644 C100.157189,8.62017167 101.021996,9.87553648 102.528433,9.87553648 C103.072425,9.87553648 103.588519,9.59656652 104.271996,9.03444223 Z M109.516631,11.9678112 C109.734228,11.5800429 109.916953,11.181116 110.088519,10.7682403 C111.204399,8.07618026 111.829292,6.64506429 112.557403,5.07725322 C112.832189,4.48723193 113.031652,4.26405596 113.687232,4.18454936 C113.770923,4.10085837 113.770923,3.80793991 113.687232,3.72424893 C113.408262,3.73819742 113.087446,3.75214592 112.696888,3.75214592 C112.278433,3.75214592 111.84603,3.73819742 111.427575,3.72424893 C111.343884,3.80793991 111.343884,4.10085837 111.427575,4.18454936 C111.868348,4.22639485 112.320279,4.31008584 112.097103,4.81223176 L110.713412,8.00643777 C110.615772,8.23100867 110.498605,8.26866957 110.380043,7.99248927 L109.142811,5.09120172 C108.891738,4.50257494 108.819206,4.24452773 109.600322,4.18454936 C109.684013,4.10085837 109.684013,3.80793991 109.600322,3.72424893 C109.084227,3.73819742 108.526287,3.75214592 108.024141,3.75214592 C107.549892,3.75214592 107.173283,3.73819742 106.894313,3.72424893 C106.810622,3.80793991 106.810622,4.10085837 106.894313,4.18454936 C107.448068,4.25429185 107.629399,4.37982833 107.994849,5.2306867 L109.572425,8.89914163 C109.693777,9.17950652 109.907189,9.81974249 109.767704,10.2103004 C109.601717,10.6761802 109.43294,11.0611588 109.223712,11.4935622 C109.070279,11.7725322 108.875,11.8980687 108.526287,11.8980687 C108.331008,11.8980687 108.275214,11.8562232 108.121781,11.8562232 C107.717274,11.8562232 107.508047,12.2746781 107.508047,12.4560086 C107.508047,12.748927 107.787017,12.972103 108.163626,12.972103 C108.456545,12.972103 109.014485,12.860515 109.516631,11.9678112 L109.516631,11.9678112 Z" id="als-tagline" fill="#000000" fill-rule="nonzero"></path>
    </g>
</svg>