<?xml version="1.0" encoding="UTF-8"?>
<svg width="120px" height="15px" viewBox="0 0 120 15" version="1.1" xmlns="http://www.w3.org/2000/svg" xmlns:xlink="http://www.w3.org/1999/xlink">
    <title>rm-tagline</title>
    <g id="Page-1" stroke="none" stroke-width="1" fill="none" fill-rule="evenodd">
        <path d="M2.05178316,10.6479164 L5.28582068,10.6479164 C5.71295728,10.6479164 7.11640774,10.6784262 7.11640774,10.6784262 C7.26895668,9.91568149 7.42150562,8.92411233 7.51303498,8.1308589 C7.36048604,8.06983933 7.19268221,8.03932954 7.00962348,8.05458443 C6.7045256,9.15293574 6.29264251,10.0529755 5.13327174,10.0529755 L3.40946872,10.0529755 C2.96707722,10.0529755 2.6924887,9.76313149 2.6924887,9.29023084 L2.6924887,2.66960687 C2.6924887,1.40345173 2.95182296,1.3271762 4.01966448,1.28141152 C4.11119374,1.18988215 4.11119374,0.869529379 4.01966448,0.778000015 C3.27217542,0.793254909 2.81452711,0.808509803 2.03652826,0.808509803 C1.27378431,0.808509803 0.831390899,0.793254909 0.0686469433,0.778000015 C-0.0228823144,0.869529379 -0.0228823144,1.18988215 0.0686469433,1.28141152 C1.13648846,1.3271762 1.39582272,1.40345173 1.39582272,2.66960687 L1.39582272,8.78681934 C1.39582272,10.0529734 1.13648846,10.12925 0.0686469433,10.1750147 C-0.0228823144,10.2665441 -0.0228823144,10.5868968 0.0686469433,10.6784262 C0.816136006,10.6631713 2.05178316,10.6479164 2.05178316,10.6479164 M9.02922843,4.14933158 L9.44111056,4.088312 C9.44111056,4.088312 9.94452206,1.57125344 9.94452206,1.3271762 C9.94452206,1.08309789 9.80722802,0.823764697 9.41060077,0.823764697 C8.95295501,0.823764697 8.63260118,1.25090173 8.63260118,1.58650939 C8.63260118,1.72380238 9.02922843,4.14933158 9.02922843,4.14933158 M12.2482494,6.34603631 C12.5380924,4.62223435 13.605936,4.48493925 13.9720524,4.48493925 C14.5517384,4.48493925 15.2382086,4.80529308 15.2382086,6.08670311 C15.2382086,6.2239961 15.177189,6.30027163 15.0093852,6.30027163 L12.2482494,6.34603631 M16.2450316,9.22921127 C15.6806016,9.80889618 15.2382076,10.0529755 14.3534248,10.0529755 C13.8042496,10.0529755 13.163543,9.73262171 12.6906413,8.95462317 C12.3855435,8.45121167 12.2024847,7.74948549 12.2024847,6.8647027 L16.2602865,6.89521249 C16.4433452,6.89521249 16.5501295,6.80368207 16.5501295,6.63587929 C16.5501295,5.35446926 16.0924806,3.98152775 13.9720524,3.98152775 C12.6448777,3.98152775 10.9210736,5.24768606 10.9210736,7.56642782 C10.9210736,8.42070083 11.1346432,9.24446616 11.6380536,9.82415213 C12.15672,10.4343468 12.8737011,10.8004653 13.9720524,10.8004653 C15.1314233,10.8004653 15.9551897,10.266543 16.5653844,9.47328957 C16.5196197,9.32074063 16.4280904,9.24446616 16.2450316,9.22921127 M19.9865327,5.18666437 C19.940768,5.24768394 19.8339838,5.40023182 19.8339838,5.18666437 C19.8339838,4.72901755 19.9102583,4.02729243 19.9102583,4.02729243 C19.9102583,3.95101796 19.8492387,3.90525328 19.7271995,3.90525328 C19.3000636,4.07305605 18.6746108,4.21035115 17.6220242,4.3476452 C17.5915144,4.43917456 17.6220242,4.68325287 17.6525339,4.77478223 C18.4762972,4.8510567 18.6441021,4.92733117 18.6441021,5.81211502 L18.6441021,8.78681934 C18.6441021,10.0377185 18.4915521,10.0987402 17.5762595,10.1750147 C17.4847301,10.2665441 17.4847301,10.5868968 17.5762595,10.6784262 C18.2017101,10.6631713 18.5983384,10.6479164 19.2542978,10.6479164 C19.8492387,10.6479164 20.1238278,10.6631713 20.7645323,10.6784262 C20.8560617,10.5868968 20.8560617,10.2665441 20.7645323,10.1750147 C19.9865338,10.0987402 19.8492387,10.0377185 19.8492387,8.78681934 L19.8492387,6.28501673 C19.8492387,5.96466396 19.9865327,5.78160417 20.1085719,5.64431119 C20.6882578,5.07988011 21.2831998,4.74427244 21.8781396,4.74427244 C22.1832375,4.74427244 22.5035902,4.94258606 22.686649,5.29344863 C22.8391979,5.59854545 22.8697077,6.01042864 22.8697077,6.46807546 L22.8697077,8.78681934 C22.8697077,10.0377185 22.7171577,10.0987402 21.9239043,10.1750147 C21.8476298,10.2665441 21.8476298,10.5868968 21.9239043,10.6784262 C22.5646098,10.6631713 22.8697087,10.6479164 23.4799034,10.6479164 C24.1053541,10.6479164 24.4409628,10.6631713 25.0969222,10.6784262 C25.1731967,10.5868968 25.1731967,10.2665441 25.0969222,10.1750147 C24.2426492,10.0987402 24.0748443,10.0377185 24.0748443,8.78681934 L24.0748443,6.51384014 C24.0748443,5.67482097 24.0138247,4.94258501 23.6629622,4.46968435 C23.403629,4.13407669 22.9307273,3.95101796 22.396806,3.95101796 C21.6493172,3.95101796 20.9170802,4.14933264 19.9865327,5.18666437 M31.4148319,9.25972105 C31.3538123,9.12242701 31.2317731,9.06140743 31.0944791,9.04615254 C30.5758138,9.71736681 29.9198523,10.0529755 29.2638918,10.0529755 C28.1502856,10.0529755 27.219736,8.92411127 27.219736,7.13929079 C27.219736,5.46125352 27.951972,4.45442946 28.9587939,4.45442946 C29.8588316,4.45442946 29.9808718,4.98835075 30.0418914,5.52227203 C30.0876561,5.93415311 30.3012246,6.07144822 30.6215774,6.07144822 C30.9419302,6.07144822 31.3690672,5.87313354 31.3690672,5.40023288 C31.3690672,4.56121372 30.4995372,3.95101796 29.0350684,3.95101796 C27.524836,3.95101796 25.9078152,5.30870564 25.9078152,7.47489846 C25.9078152,9.44277766 27.0061696,10.8004653 28.9282842,10.8004653 C29.8435767,10.8004653 30.6520882,10.5106202 31.4148319,9.25972105 M33.1817776,1.51023493 C33.1817776,1.90686111 33.5478961,2.30348941 33.9140125,2.30348941 C34.3411496,2.30348941 34.707267,1.90686111 34.707267,1.5712545 C34.707267,1.20513705 34.3869143,0.778000015 33.9750321,0.778000015 C33.6089157,0.778000015 33.1817776,1.14411747 33.1817776,1.51023493 M34.569973,8.78681934 L34.569973,5.75109544 C34.569973,4.98835075 34.6309926,4.01203753 34.6309926,4.01203753 C34.6309926,3.95101796 34.5547181,3.90525328 34.4326789,3.90525328 C33.9902881,4.07305605 33.3953451,4.21035115 32.3427585,4.3476452 C32.3122487,4.43917456 32.3427585,4.68325287 32.3732683,4.77478223 C33.1970315,4.86631159 33.3648364,4.94258606 33.3648364,5.81211502 L33.3648364,8.78681934 C33.3648364,10.0529734 33.1970315,10.0987402 32.266484,10.1750147 C32.1749546,10.2665441 32.1749546,10.5868968 32.266484,10.6784262 C32.9071895,10.6631713 33.3038178,10.6479164 33.9750321,10.6479164 C34.6309926,10.6479164 35.012366,10.6631713 35.6683253,10.6784262 C35.7598547,10.5868968 35.7598547,10.2665441 35.6683253,10.1750147 C34.7377779,10.1139951 34.569973,10.0529734 34.569973,8.78681934 M42.0217503,9.25972105 C41.9607307,9.12242701 41.8386916,9.06140743 41.7013976,9.04615254 C41.1827322,9.71736681 40.5267707,10.0529755 39.8708103,10.0529755 C38.7572041,10.0529755 37.8266545,8.92411127 37.8266545,7.13929079 C37.8266545,5.46125352 38.5588905,4.45442946 39.5657124,4.45442946 C40.4657501,4.45442946 40.5877903,4.98835075 40.6488099,5.52227203 C40.6945745,5.93415311 40.9081431,6.07144822 41.2284958,6.07144822 C41.5488486,6.07144822 41.9759856,5.87313354 41.9759856,5.40023288 C41.9759856,4.56121372 41.1064556,3.95101796 39.6419869,3.95101796 C38.1317545,3.95101796 36.5147336,5.30870564 36.5147336,7.47489846 C36.5147336,9.44277766 37.6130881,10.8004653 39.5352026,10.8004653 C40.4504952,10.8004653 41.2590067,10.5106202 42.0217503,9.25972105 M43.8649706,8.78681934 C43.8649706,10.0529734 43.6971657,10.12925 42.7666182,10.1750147 C42.6750888,10.2665441 42.6750888,10.5868968 42.7666182,10.6784262 C43.4073237,10.6631713 43.803952,10.6479164 44.4751663,10.6479164 C45.1311268,10.6479164 45.5125002,10.6631713 46.1684595,10.6784262 C46.2599889,10.5868968 46.2599889,10.2665441 46.1684595,10.1750147 C45.2379121,10.12925 45.0701072,10.0529734 45.0701072,8.78681934 L45.0701072,1.75431323 C45.0701072,0.762746181 45.1311268,0.15254894 45.1311268,0.15254894 C45.1311268,0.0457647878 45.0701072,0 44.9328131,0 C44.5514418,0.152548834 43.4073237,0.366117561 42.797128,0.411882137 C42.7666182,0.533921712 42.797128,0.778000015 42.8886573,0.869529379 C43.6819108,0.915294061 43.8649706,0.839020651 43.8649706,2.12043068 L43.8649706,8.78681934 M47.0634928,7.52066314 C47.0634928,9.07666021 48.1160826,10.8004653 50.2670205,10.8004653 C52.5399976,10.8004653 53.501058,8.90885637 53.501058,7.3833691 C53.501058,5.79686119 52.6620367,3.95101796 50.2975303,3.95101796 C48.2381217,3.95101796 47.0634928,5.58329267 47.0634928,7.52066314 M50.1297265,4.45442946 C51.4416463,4.45442946 52.1891371,5.62905841 52.1891371,7.8715257 C52.1891371,9.88516959 51.2585886,10.2970538 50.5416086,10.2970538 C48.9551017,10.2970538 48.3754137,8.34442636 48.3754137,7.16980058 C48.3754137,5.84262587 48.8483164,4.45442946 50.1297265,4.45442946 M56.794685,5.53752693 C57.2675867,5.04937032 57.8777835,4.65274308 58.3354293,4.65274308 C59.3117414,4.65274308 60.1507616,5.7510965 60.1507616,7.47489846 C60.1507616,8.72579765 59.7083687,10.2817989 57.9998216,10.2817989 C57.7252335,10.2817989 57.1913122,10.2055234 56.9167241,9.96144618 C56.5963713,9.68685808 56.5506067,9.61058256 56.5506067,9.04615254 L56.5506067,6.20874226 C56.5506067,5.88838949 56.5963713,5.75109438 56.794685,5.53752693 M56.6726458,5.03411543 C56.6116262,5.095135 56.5200969,5.1103899 56.5200969,4.98835075 C56.5200969,4.43917456 56.5811165,4.01203753 56.5811165,4.01203753 C56.5811165,3.95101796 56.504842,3.90525328 56.3828028,3.90525328 C55.9556669,4.07305605 55.3759788,4.21035115 54.3233922,4.3476452 C54.2928824,4.43917456 54.3233922,4.68325287 54.3539019,4.77478223 C55.1776652,4.8510567 55.34547,4.94258606 55.34547,5.81211502 L55.34547,12.3259547 C55.34547,13.5921088 55.1776652,13.6683854 54.2471177,13.7141501 C54.1555883,13.8056795 54.1555883,14.1260322 54.2471177,14.2175616 C54.8878232,14.2023067 55.2844515,14.1870518 55.9556658,14.1870518 C56.6726458,14.1870518 57.1455486,14.2023067 57.801508,14.2175616 C57.8930373,14.1260322 57.8930373,13.8056795 57.801508,13.7141501 C56.7184116,13.6531305 56.5506067,13.5921088 56.5506067,12.3259547 L56.5506067,10.6784262 C56.5506067,10.4801126 56.5963713,10.5106224 56.7641752,10.5716419 C57.1302926,10.7241898 57.6031954,10.8004653 58.091351,10.8004653 C58.945624,10.8004653 59.7083708,10.5411311 60.3338204,9.94619128 C61.0508004,9.24446616 61.4626825,8.29866062 61.4626825,7.06301632 C61.4626825,5.44599862 60.3185644,3.95101796 58.7625663,3.95101796 C58.1981363,3.95101796 57.359116,4.33239031 56.6726458,5.03411543 M64.0612584,6.34603631 C64.3511013,4.62223435 65.418945,4.48493925 65.7850614,4.48493925 C66.3647473,4.48493925 67.0512176,4.80529308 67.0512176,6.08670311 C67.0512176,6.2239961 66.990198,6.30027163 66.8223942,6.30027163 L64.0612584,6.34603631 M68.0580406,9.22921127 C67.4936106,9.80889618 67.0512165,10.0529755 66.1664337,10.0529755 C65.6172586,10.0529755 64.976552,9.73262171 64.5036503,8.95462317 C64.1985524,8.45121167 64.0154937,7.74948549 64.0154937,6.8647027 L68.0732955,6.89521249 C68.2563542,6.89521249 68.3631385,6.80368207 68.3631385,6.63587929 C68.3631385,5.35446926 67.9054895,3.98152775 65.7850614,3.98152775 C64.4578867,3.98152775 62.7340826,5.24768606 62.7340826,7.56642782 C62.7340826,8.42070083 62.9476522,9.24446616 63.4510626,9.82415213 C63.969729,10.4343468 64.6867101,10.8004653 65.7850614,10.8004653 C66.9444323,10.8004653 67.7681987,10.266543 68.3783934,9.47328957 C68.3326287,9.32074063 68.2410993,9.24446616 68.0580406,9.22921127 M74.3449637,8.75630955 C74.3449637,9.04615148 74.314454,9.16819169 74.1008854,9.35125042 C73.5364554,9.83940596 73.0482978,10.0834853 72.6669254,10.0834853 C71.8431622,10.0834853 70.9888871,9.18344447 70.9888871,7.27658484 C70.9888871,6.17823353 71.2024556,5.56803566 71.431279,5.24768394 C71.9041807,4.53070393 72.5448863,4.48493925 72.8499841,4.48493925 C73.3991603,4.48493925 73.7805327,4.68325287 74.0856306,5.03411543 C74.2991991,5.27819267 74.3449637,5.38497799 74.3449637,5.8578797 L74.3449637,8.75630955 M74.1771599,9.88517171 C74.2381795,9.82415213 74.3602186,9.79364234 74.3602186,9.9004266 C74.3602186,10.266543 74.5280225,10.8004653 74.5280225,10.8004653 C74.6500616,10.84623 74.6958263,10.8309751 74.8178655,10.8004653 C75.1534731,10.5258773 75.7331602,10.2970538 76.6637076,10.1902696 C76.755237,10.0987402 76.755237,9.86991681 76.6637076,9.77838745 C75.6873955,9.70211298 75.5501004,9.41226893 75.5501004,8.66478019 L75.5501004,1.75431323 C75.5501004,0.762746181 75.6111199,0.15254894 75.6111199,0.15254894 C75.6111199,0.0457647878 75.5501004,0 75.4128063,0 C75.031435,0.152548834 73.8873169,0.366117561 73.2771212,0.411882137 C73.2466114,0.533921712 73.2771212,0.778000015 73.3686505,0.869529379 C74.161904,0.915294061 74.3449637,0.839020651 74.3449637,2.12043068 L74.3449637,4.07305711 C74.3449637,4.17984137 74.314454,4.21035115 74.2076697,4.21035115 C74.1466501,4.21035115 73.5211995,3.95101796 73.017788,3.95101796 C72.010966,3.95101796 71.3397496,4.28662562 70.7295539,4.86631159 C70.0735945,5.52227098 69.6769662,6.42231184 69.6769662,7.55117293 C69.6769662,9.42752277 70.6227717,10.8004653 72.2702982,10.8004653 C72.865239,10.8004653 73.4296712,10.4953664 74.1771599,9.88517171 M78.1717969,1.51023493 C78.1717969,1.90686111 78.5379154,2.30348941 78.9040318,2.30348941 C79.3311689,2.30348941 79.6972863,1.90686111 79.6972863,1.5712545 C79.6972863,1.20513705 79.3769335,0.778000015 78.9650514,0.778000015 C78.598935,0.778000015 78.1717969,1.14411747 78.1717969,1.51023493 M79.5599923,8.78681934 L79.5599923,5.75109544 C79.5599923,4.98835075 79.6210118,4.01203753 79.6210118,4.01203753 C79.6210118,3.95101796 79.5447374,3.90525328 79.4226982,3.90525328 C78.9803074,4.07305605 78.3853644,4.21035115 77.3327777,4.3476452 C77.302268,4.43917456 77.3327777,4.68325287 77.3632875,4.77478223 C78.1870507,4.86631159 78.3548556,4.94258606 78.3548556,5.81211502 L78.3548556,8.78681934 C78.3548556,10.0529734 78.1870507,10.0987402 77.2565033,10.1750147 C77.1649739,10.2665441 77.1649739,10.5868968 77.2565033,10.6784262 C77.8972088,10.6631713 78.2938371,10.6479164 78.9650514,10.6479164 C79.6210118,10.6479164 80.0023852,10.6631713 80.6583446,10.6784262 C80.749874,10.5868968 80.749874,10.2665441 80.6583446,10.1750147 C79.7277972,10.1139951 79.5599923,10.0529734 79.5599923,8.78681934 M85.4100057,7.09352611 L85.4100057,9.12242701 C85.4100057,9.32073957 85.3184764,9.42752489 85.1964372,9.51905425 C84.799811,9.83940596 84.2811436,10.1750147 83.8540066,10.1750147 C83.0912629,10.1750147 82.7556542,9.56481787 82.7556542,9.09191722 C82.7556542,8.40544699 83.076008,7.7189757 84.2048691,7.41387889 L85.4100057,7.09352611 M85.4100057,9.91568149 C85.5015351,10.2360332 85.7608694,10.8004653 86.5846326,10.8004653 C87.3321213,10.8004653 87.8812986,10.1902696 87.8812986,10.1139951 C87.8812986,10.0072109 87.7440045,9.85466192 87.6829849,9.85466192 C87.5914556,9.85466192 87.530436,10.0987402 87.2100832,10.0987402 C86.6151434,10.0987402 86.5998875,9.5037983 86.5998875,8.80207423 L86.5998875,6.52909504 C86.5998875,4.36290221 85.4100047,3.95101796 84.2963985,3.95101796 C83.0454982,3.95101796 81.779341,4.82054691 81.779341,5.64431119 C81.779341,6.01042758 81.9624008,6.17823247 82.3132623,6.17823247 C82.7556542,6.17823247 82.9844776,5.87313354 82.9844776,5.67482097 C82.9844776,5.56803672 82.9692227,5.46125246 82.9387129,5.40023288 C82.923458,5.3544682 82.9082031,5.26293778 82.9082031,5.095135 C82.9082031,4.62223329 83.5946744,4.45442946 84.1743593,4.45442946 C84.6930257,4.45442946 85.4100057,4.71376371 85.4100057,6.43756567 C85.4100057,6.54434993 85.3642411,6.60536951 85.3184764,6.6206244 L84.0065555,6.94097717 C82.5420878,7.30709357 81.489498,8.11560507 81.489498,9.1529368 C81.489498,10.3580713 82.3437731,10.8004653 83.4116146,10.8004653 C84.1133397,10.8004653 84.4031838,10.6784251 85.0743981,10.1597598 L85.3794959,9.91568149 L85.4100057,9.91568149 M93.1752235,8.78681934 C93.1752235,10.0529734 93.0074186,10.12925 92.0768711,10.1750147 C91.9853417,10.2665441 91.9853417,10.5868968 92.0768711,10.6784262 C92.7175767,10.6631713 93.114205,10.6479164 93.7854192,10.6479164 C94.4413797,10.6479164 94.8227531,10.6631713 95.4787125,10.6784262 C95.5702418,10.5868968 95.5702418,10.2665441 95.4787125,10.1750147 C94.548165,10.12925 94.3803601,10.0529734 94.3803601,8.78681934 L94.3803601,1.75431323 C94.3803601,0.762746181 94.4413797,0.15254894 94.4413797,0.15254894 C94.4413797,0.0457647878 94.3803601,0 94.243066,0 C93.8616948,0.152548834 92.7175767,0.366117561 92.1073809,0.411882137 C92.0768711,0.533921712 92.1073809,0.778000015 92.1989103,0.869529379 C92.9921637,0.915294061 93.1752235,0.839020651 93.1752235,2.12043068 L93.1752235,8.78681934 M97.1212355,1.51023493 C97.1212355,1.90686111 97.487354,2.30348941 97.8534704,2.30348941 C98.2806074,2.30348941 98.6467249,1.90686111 98.6467249,1.5712545 C98.6467249,1.20513705 98.3263721,0.778000015 97.91449,0.778000015 C97.5483736,0.778000015 97.1212355,1.14411747 97.1212355,1.51023493 M98.5094308,8.78681934 L98.5094308,5.75109544 C98.5094308,4.98835075 98.5704504,4.01203753 98.5704504,4.01203753 C98.5704504,3.95101796 98.494176,3.90525328 98.3721368,3.90525328 C97.9297459,4.07305605 97.334803,4.21035115 96.2822163,4.3476452 C96.2517065,4.43917456 96.2822163,4.68325287 96.3127261,4.77478223 C97.1364893,4.86631159 97.3042942,4.94258606 97.3042942,5.81211502 L97.3042942,8.78681934 C97.3042942,10.0529734 97.1364893,10.0987402 96.2059419,10.1750147 C96.1144125,10.2665441 96.1144125,10.5868968 96.2059419,10.6784262 C96.8466474,10.6631713 97.2432757,10.6479164 97.91449,10.6479164 C98.5704504,10.6479164 98.9518238,10.6631713 99.6077832,10.6784262 C99.6993126,10.5868968 99.6993126,10.2665441 99.6077832,10.1750147 C98.6772357,10.1139951 98.5094308,10.0529734 98.5094308,8.78681934 M102.544111,5.1103899 C102.940738,4.75952734 103.398385,4.62223329 103.840777,4.62223329 C104.771325,4.62223329 105.53407,5.7510965 105.53407,7.23082016 C105.53407,8.96987595 104.832345,10.2817989 103.38313,10.2817989 C102.910228,10.2817989 102.589876,9.94619022 102.284778,9.56481893 L102.284778,5.75109544 C102.284778,5.43074267 102.345797,5.29344757 102.544111,5.1103899 M102.437327,4.63748819 C102.330542,4.72901755 102.284778,4.6985067 102.284778,4.56121372 L102.284778,1.75431323 C102.284778,0.762746181 102.345797,0.15254894 102.345797,0.15254894 C102.345797,0.0457647878 102.284778,0 102.147484,0 C101.766113,0.152548834 100.621995,0.366117561 100.0118,0.411882137 C99.9812898,0.533921712 100.0118,0.778000015 100.103329,0.869529379 C100.896582,0.915294061 101.079642,0.839020651 101.079642,2.12043068 L101.079642,9.56481893 C101.079642,10.1597587 101.064387,10.4343479 101.018623,10.6479164 C101.094897,10.7699556 101.171171,10.8309751 101.35423,10.8309751 C101.44576,10.7547007 101.598309,10.6021507 101.705093,10.4648577 C101.872897,10.2817989 101.964425,10.2817989 102.132229,10.4343479 C102.467836,10.7241898 102.925483,10.8004653 103.474659,10.8004653 C105.030659,10.8004653 106.845991,9.38175703 106.845991,6.95623207 C106.845991,5.09513606 105.473051,3.95101796 104.145875,3.95101796 C103.489914,3.95101796 102.910228,4.21035115 102.437327,4.63748819 M108.923517,5.81211502 L108.923517,8.78681934 C108.923517,10.0529734 108.740458,10.1139951 107.794655,10.1750147 C107.703125,10.2665441 107.703125,10.5868968 107.794655,10.6784262 C108.43536,10.6631713 108.923517,10.6479164 109.533713,10.6479164 C110.159163,10.6479164 110.723594,10.6631713 111.379555,10.6784262 C111.471084,10.5868968 111.471084,10.2665441 111.379555,10.1750147 C110.311712,10.0987402 110.128653,10.0529734 110.128653,8.78681934 L110.128653,6.66638908 C110.128653,6.26976184 110.311712,5.91889822 110.494771,5.64431119 C110.662575,5.40023288 111.013437,4.89682138 111.196496,4.89682138 C111.30328,4.89682138 111.425319,4.91207628 111.516849,5.00360564 C111.669398,5.15615352 111.821947,5.44599757 112.142299,5.44599757 C112.508417,5.44599757 112.859279,5.06462416 112.859279,4.68325287 C112.859279,4.39340988 112.584691,3.95101796 111.943986,3.95101796 C111.227006,3.95101796 110.601555,4.62223329 110.250693,5.21717416 C110.159163,5.38497693 110.113399,5.30870352 110.113399,5.23242905 C110.113399,4.74427244 110.189673,4.01203753 110.189673,4.01203753 C110.189673,3.95101796 110.113399,3.90525328 109.991359,3.90525328 C109.564222,4.07305605 108.954027,4.21035115 107.901439,4.3476452 C107.870929,4.43917456 107.870929,4.68325287 107.931949,4.77478223 C108.755713,4.8510567 108.923517,4.97309585 108.923517,5.81211502 M117.528707,7.09352611 L117.528707,9.12242701 C117.528707,9.32073957 117.437178,9.42752489 117.315139,9.51905425 C116.918511,9.83940596 116.399845,10.1750147 115.972708,10.1750147 C115.209963,10.1750147 114.874356,9.56481787 114.874356,9.09191722 C114.874356,8.40544699 115.194708,7.7189757 116.323571,7.41387889 L117.528707,7.09352611 M117.528707,9.91568149 C117.620237,10.2360332 117.87957,10.8004653 118.703334,10.8004653 C119.450824,10.8004653 120,10.1902696 120,10.1139951 C120,10.0072109 119.862706,9.85466192 119.801686,9.85466192 C119.710157,9.85466192 119.649137,10.0987402 119.328785,10.0987402 C118.733844,10.0987402 118.718589,9.5037983 118.718589,8.80207423 L118.718589,6.52909504 C118.718589,4.36290221 117.528707,3.95101796 116.4151,3.95101796 C115.164199,3.95101796 113.898042,4.82054691 113.898042,5.64431119 C113.898042,6.01042758 114.081101,6.17823247 114.431964,6.17823247 C114.874356,6.17823247 115.103179,5.87313354 115.103179,5.67482097 C115.103179,5.56803672 115.087924,5.46125246 115.057414,5.40023288 C115.042159,5.3544682 115.026905,5.26293778 115.026905,5.095135 C115.026905,4.62223329 115.713375,4.45442946 116.293061,4.45442946 C116.811727,4.45442946 117.528707,4.71376371 117.528707,6.43756567 C117.528707,6.54434993 117.482942,6.60536951 117.437178,6.6206244 L116.125257,6.94097717 C114.660787,7.30709357 113.608199,8.11560507 113.608199,9.1529368 C113.608199,10.3580713 114.462473,10.8004653 115.530316,10.8004653 C116.232041,10.8004653 116.521884,10.6784251 117.1931,10.1597598 L117.498197,9.91568149 L117.528707,9.91568149" id="rm-tagline" fill="#000000" fill-rule="nonzero"></path>
    </g>
</svg>