<svg viewBox="0 0 129 21" xmlns="http://www.w3.org/2000/svg"><path d="m126 5.02-4.57-3.53 1.1-1.43 4.44 3.77zm-12.4 15.9-1.35-1.26 4.33-4.33q-.927-.154-1.9-.64-.949-.486-1.59-1.39-.64-.927-.64-2.32 0-1.06.53-1.9.53-.861 1.35-1.21h-2.47V6.26h15.8v1.61h-2.65q.839.375 1.39 1.26.552.883.552 1.99t-.552 2.01q-.552.883-1.52 1.46-.949.574-2.16.75l2.16 2.74q.419.508.772.861.375.331.861.331.287 0 .772-.177l.331 1.63q-.353.132-.662.154-.287.044-.596.044-1.43 0-2.69-1.7l-2.63-3.53v-1.74h.309q1.63 0 2.71-.75 1.1-.75 1.1-2.23 0-1.5-1.17-2.3-1.15-.795-3.2-.795h-2.3q-2.05 0-3.16.795-1.1.772-1.1 2.23 0 1.54 1.02 2.3 1.04.75 2.71.75h.353v1.83zm-9.12-.11V8.01h-2.1v-1.7h2.1V5.12q0-1.48.772-2.18.772-.728 2.18-.728.728 0 1.39.287.684.265 1.1.883.419.596.419 1.59 0 1.17-.574 1.83-.574.64-1.48.927-.905.265-1.94.287v12.8zm1.88-14.5q.971 0 1.54-.309.596-.309.596-1.13 0-.64-.309-.861-.309-.243-.75-.243-.552 0-.817.287-.265.287-.265 1.06zm-16.3 14.6q-.883 0-1.79-.419-.883-.441-1.48-1.3-.596-.883-.596-2.21 0-1.63.971-2.87.971-1.26 2.67-2.23-.795-.861-1.74-1.83-.949-.993-2.36-2.14v-1.61h15v1.61h-12.5q.905.883 1.74 1.72.839.817 1.43 1.5 1.3-.552 2.94-.993 1.63-.463 3.4-.839l1.81 1.77q-.684.927-1.06 1.88-.375.949-.53 1.77-.132.817-.132 1.35 0 1.54.706 2.27.706.728 1.92.75h.287l.309-.044.221 1.66q-.177.022-.397.044h-.419q-1.15 0-2.16-.486-1.02-.486-1.66-1.5-.618-1.04-.618-2.63 0-1.37.463-2.69.486-1.35 1.19-2.49-1.28.265-2.6.64-1.32.353-2.56.861.861 1.17 1.28 2.21.441 1.04.441 2.07 0 1.57-.64 2.49-.64.927-1.61 1.32-.949.375-1.9.375zm.088-1.7q.574 0 1.08-.221.53-.243.861-.795.331-.552.331-1.5 0-.839-.397-1.68-.397-.861-1.13-1.81-1.28.728-2.1 1.68-.795.949-.795 2.14 0 1.04.618 1.61.618.574 1.52.574zm-8.8-7.48q-.772 0-1.46-.331-.662-.353-1.06-.949-.397-.618-.397-1.41 0-.817.397-1.43.397-.64 1.06-.993.684-.375 1.46-.375.84 0 1.52.375.706.353 1.1.993.42.618.42 1.43 0 .795-.42 1.41-.397.596-1.1.949-.684.331-1.52.331zm0-1.41q.596 0 .971-.375.397-.375.397-.971 0-.574-.397-.949-.375-.397-.97-.397-.553 0-.928.397-.375.375-.375.949 0 .596.375.971t.927.375zm-23.7 10.5-.508-1.61q1.43-.309 2.23-1.04.817-.75 1.15-1.72.331-.971.331-1.92 0-1.52-.86-3.31-.862-1.79-2.52-3.33V6.28h19.7v1.61q-1.72 1.54-2.56 3.31-.818 1.74-.818 3.33 0 .949.331 1.92.353.971 1.15 1.72.817.728 2.23 1.04l-.486 1.61q-1.7-.287-2.82-1.19-1.13-.905-1.68-2.16-.53-1.28-.53-2.65 0-1.68.75-3.47.772-1.81 2.14-3.47h-4.57v12.9h-1.81V7.88h-2.32v12.9h-1.81V7.88h-4.59q1.39 1.66 2.14 3.47.772 1.79.772 3.47 0 1.37-.552 2.65-.53 1.26-1.66 2.16-1.1.905-2.8 1.19zm-7.45 0V8.02h-2.1v-1.7h2.1V5.13q0-1.48.772-2.18.772-.728 2.18-.728.728 0 1.39.287.684.265 1.1.883.42.596.42 1.59 0 1.17-.575 1.83-.574.64-1.48.927-.905.265-1.94.287v12.8zm1.88-14.5q.971 0 1.54-.309.596-.309.596-1.13 0-.64-.309-.861-.309-.243-.75-.243-.552 0-.817.287-.265.287-.265 1.06zm-22.2 14.5V7.92h-.728V6.29h17.3v1.63h-.839v12.9zm1.83-3.55 2.89-2.21V7.91h-2.89zm4.7-3.58 2.74-2.1V7.9h-2.74zm4.5-3.42 2.96-2.25v-.11h-2.96zm0 9.03h2.96V9.77l-2.96 2.3zm-4.5 0h2.74v-5.87l-2.74 2.12zm-4.7 0h2.89v-2.36l-2.89 2.25zm-10.1 1.52V8.02h-2.1v-1.7h2.1V5.13q0-1.48.772-2.18.772-.728 2.18-.728.728 0 1.39.287.684.265 1.1.883.42.596.42 1.59 0 1.17-.575 1.83-.574.64-1.48.927-.905.265-1.94.287v12.8zm1.88-14.5q.971 0 1.54-.309.596-.309.596-1.13 0-.64-.309-.861-.309-.243-.75-.243-.552 0-.817.287-.265.287-.265 1.06zm-21.3 14.5-.486-1.77q1.41-.309 2.23-.971.84-.684 1.19-1.59.353-.905.353-1.88 0-1.06-.419-2.25t-1.19-2.36q-.772-1.17-1.83-2.16v-1.57h16.2v1.57q-1.77 1.74-2.67 3.55-.905 1.81-.905 3.44 0 1.41.905 2.65.905 1.21 2.89 1.72l-.508 1.61q-1.46-.353-2.78-1.26-1.3-.927-2.43-2.12-1.1-1.21-2.03-2.45-.905-1.26-1.61-2.27l1.48-1.04q.574.883 1.17 1.77.596.861 1.21 1.63-.022-.154-.022-.243v-.221q0-1.96.84-3.6.86-1.66 2.18-3.13h-11.6q1.39 1.61 2.14 3.33.75 1.7.75 3.53 0 1.54-.487 2.65-.463 1.08-1.24 1.79-.75.706-1.66 1.1-.883.375-1.72.53z"/></svg>