<svg width="120" height="10" viewBox="0 0 120 10" fill="none" xmlns="http://www.w3.org/2000/svg">
<path d="M5.47438 1.86661V5.21847C5.47438 5.40915 5.47438 5.51954 5.40413 5.51954C5.32385 5.51954 5.21346 5.3389 4.92243 4.96759L1.48024 0.531883L0.125444 0.511812C0.0652309 0.572024 0.0652309 0.782771 0.125444 0.842984C0.556971 0.87309 0.858037 1.22433 0.918251 1.48526V5.67007C0.918251 6.56323 0.747646 6.62345 0.0451598 6.6937C-0.0150533 6.75391 -0.0150533 6.96466 0.0451598 7.02487C0.5369 7.01483 0.727576 7.0048 1.16914 7.0048C1.60067 7.0048 1.78131 7.01483 2.28308 7.02487C2.3433 6.96466 2.3433 6.75391 2.28308 6.6937C1.5806 6.62345 1.40999 6.5833 1.40999 5.67007V2.5992C1.40999 2.25799 1.40999 2.10746 1.49028 2.10746C1.55049 2.10746 1.66088 2.21785 1.83148 2.43863L5.33388 6.8643C5.44427 7.01483 5.57473 7.10515 5.7353 7.10515C5.8758 7.10515 5.96612 6.98472 5.96612 6.79405V1.86661C5.96612 0.973446 6.13672 0.913232 6.83921 0.842984C6.89942 0.782771 6.89942 0.572024 6.83921 0.511812C6.34747 0.521847 6.15679 0.531883 5.71523 0.531883C5.28371 0.531883 5.10306 0.521847 4.60129 0.511812C4.54108 0.572024 4.54108 0.782771 4.60129 0.842984C5.30377 0.913232 5.47438 0.953375 5.47438 1.86661ZM8.72028 8.61048C8.87081 8.33952 9.00127 8.04849 9.13174 7.74743C9.93458 5.82061 10.3761 4.77691 10.908 3.65293C11.0485 3.3619 11.3496 3.04076 11.7209 3.01066C11.7811 2.95044 11.7811 2.7397 11.7209 2.67949C11.47 2.68952 11.2894 2.69956 11.0084 2.69956C10.6571 2.69956 10.4665 2.68952 10.0951 2.67949C10.0349 2.7397 10.0349 2.95044 10.0951 3.01066C10.4062 3.04076 10.7274 3.10098 10.5769 3.46226L9.5733 5.76039C9.50305 5.93099 9.42277 5.95107 9.33245 5.75036L8.44932 3.66297C8.26868 3.24147 8.15829 3.06083 8.77046 3.01066C8.83067 2.95044 8.83067 2.7397 8.77046 2.67949C8.39914 2.68952 7.99772 2.69956 7.63644 2.69956C7.29523 2.69956 7.02428 2.68952 6.82357 2.67949C6.76335 2.7397 6.76335 2.95044 6.82357 3.01066C7.26513 3.0508 7.34541 3.13108 7.61637 3.76332L8.75039 6.40267C8.84071 6.61341 8.99124 7.06501 8.89088 7.34601C8.78049 7.68721 8.65003 7.95817 8.4995 8.26927C8.38911 8.46998 8.24861 8.5603 7.99772 8.5603C7.85722 8.5603 7.81708 8.5302 7.70669 8.5302C7.41566 8.5302 7.26513 8.83126 7.26513 8.96172C7.26513 9.17247 7.46584 9.33304 7.7368 9.33304C7.94754 9.33304 8.34896 9.25275 8.71024 8.61048H8.72028ZM14.5083 4.66652V6.00124C14.5083 6.13171 14.4481 6.20196 14.3678 6.26217C14.1069 6.47291 13.7657 6.6937 13.4847 6.6937C12.9829 6.6937 12.7621 6.29227 12.7621 5.98117C12.7621 5.52958 12.9729 5.07797 13.7155 4.87727L14.5083 4.66652ZM14.5083 6.52309C14.5685 6.73384 14.7391 7.10515 15.281 7.10515C15.7728 7.10515 16.1341 6.70373 16.1341 6.65355C16.1341 6.5833 16.0437 6.48295 16.0036 6.48295C15.9434 6.48295 15.9032 6.64352 15.6925 6.64352C15.3011 6.64352 15.2911 6.25213 15.2911 5.7905V4.29521C15.2911 2.87016 14.5083 2.5992 13.7757 2.5992C12.9528 2.5992 12.1198 3.17123 12.1198 3.71314C12.1198 3.954 12.2403 4.06439 12.4711 4.06439C12.7621 4.06439 12.9127 3.86368 12.9127 3.73322C12.9127 3.66297 12.9026 3.59272 12.8825 3.55258C12.8725 3.52247 12.8625 3.46226 12.8625 3.35187C12.8625 3.04076 13.3141 2.93037 13.6954 2.93037C14.0366 2.93037 14.5083 3.10098 14.5083 4.23499C14.5083 4.30524 14.4782 4.34538 14.4481 4.35542L13.585 4.56616C12.6216 4.80702 11.9292 5.3389 11.9292 6.02132C11.9292 6.81412 12.4912 7.10515 13.1936 7.10515C13.6553 7.10515 13.846 7.02487 14.2875 6.68366L14.4882 6.52309H14.5083ZM17.7824 3.71314C18.1738 3.33179 18.4949 3.12105 18.8061 3.12105C19.1874 3.12105 19.4684 3.3619 19.4684 4.03428V5.78046C19.4684 6.60337 19.3881 6.65355 18.8462 6.6937C18.796 6.75391 18.796 6.96466 18.8462 7.02487C19.2677 7.01483 19.4684 7.0048 19.8698 7.0048C20.2813 7.0048 20.4218 7.01483 20.8533 7.02487C20.9035 6.96466 20.9035 6.75391 20.8533 6.6937C20.3515 6.65355 20.2612 6.60337 20.2612 5.78046V4.18481C20.2612 4.04432 20.2612 3.90382 20.2512 3.78339C20.7329 3.25151 21.1243 3.12105 21.5156 3.12105C21.897 3.12105 22.1378 3.34183 22.1378 4.01421V5.78046C22.1378 6.60337 22.0375 6.65355 21.5156 6.6937C21.4655 6.75391 21.4655 6.96466 21.5156 7.02487C21.9371 7.01483 22.1378 7.0048 22.5393 7.0048C22.9507 7.0048 23.1414 7.01483 23.5729 7.02487C23.6231 6.96466 23.6231 6.75391 23.5729 6.6937C23.021 6.65355 22.9307 6.60337 22.9307 5.78046V4.19485C22.9307 3.30169 22.76 2.5992 21.8769 2.5992C21.3551 2.5992 20.8031 2.78988 20.2813 3.34183C20.2512 3.37194 20.191 3.42211 20.1709 3.34183C20.0705 2.93037 19.6892 2.5992 19.1673 2.5992C18.5853 2.5992 18.1437 2.95044 17.7021 3.41208C17.662 3.45222 17.6018 3.55257 17.6018 3.41208C17.6018 3.11101 17.652 2.64938 17.652 2.64938C17.652 2.5992 17.6118 2.56909 17.5315 2.56909C17.2405 2.67948 16.8391 2.7698 16.1466 2.86012C16.1266 2.92034 16.1466 3.08091 16.1667 3.14112C16.7086 3.20133 16.819 3.24147 16.819 3.82354V5.78046C16.819 6.60337 16.6886 6.65355 16.1366 6.6937C16.0764 6.75391 16.0764 6.96466 16.1366 7.02487C16.5481 7.01483 16.7889 7.0048 17.2204 7.0048C17.6118 7.0048 17.7824 7.01483 18.2039 7.02487C18.2641 6.96466 18.2641 6.75391 18.2039 6.6937C17.7021 6.64352 17.6118 6.60337 17.6118 5.78046V4.13464C17.6118 3.92389 17.7021 3.80346 17.7824 3.71314ZM24.662 4.17478C24.8526 3.04076 25.5551 2.95044 25.796 2.95044C26.1773 2.95044 26.6289 3.16119 26.6289 4.00417C26.6289 4.09449 26.5888 4.14467 26.4784 4.14467L24.662 4.17478ZM27.2913 6.07149C26.92 6.45284 26.6289 6.61341 26.0469 6.61341C25.6856 6.61341 25.2641 6.40266 24.953 5.89085C24.7523 5.55968 24.6319 5.09805 24.6319 4.51599L27.3013 4.53606C27.4217 4.53606 27.492 4.47584 27.492 4.36545C27.492 3.52247 27.1909 2.61927 25.796 2.61927C24.9229 2.61927 23.7889 3.45222 23.7889 4.97762C23.7889 5.53961 23.9294 6.08153 24.2606 6.46288C24.6018 6.8643 25.0734 7.10515 25.796 7.10515C26.5587 7.10515 27.1006 6.75391 27.502 6.23206C27.4719 6.13171 27.4117 6.08153 27.2913 6.07149ZM31.1484 5.76039C31.1484 5.95107 31.1283 6.03135 30.9878 6.15178C30.6165 6.47291 30.2954 6.63348 30.0445 6.63348C29.5026 6.63348 28.9406 6.04139 28.9406 4.78695C28.9406 4.06439 29.0811 3.66297 29.2316 3.45222C29.5427 2.98055 29.9642 2.95044 30.1649 2.95044C30.5262 2.95044 30.7771 3.08091 30.9778 3.31172C31.1183 3.47229 31.1484 3.54254 31.1484 3.85364V5.76039ZM31.038 6.50302C31.0782 6.46288 31.1584 6.44281 31.1584 6.51306C31.1584 6.75391 31.2688 7.10515 31.2688 7.10515C31.3491 7.13526 31.3792 7.12522 31.4595 7.10515C31.6803 6.92451 32.0616 6.77398 32.6738 6.70373C32.734 6.64352 32.734 6.49298 32.6738 6.43277C32.0315 6.38259 31.9412 6.19192 31.9412 5.70018V1.15409C31.9412 0.501776 31.9814 0.100355 31.9814 0.100355C31.9814 0.0301062 31.9412 0 31.8509 0C31.6 0.100355 30.8473 0.240853 30.4459 0.270959C30.4258 0.351243 30.4459 0.511812 30.5061 0.572025C31.028 0.602131 31.1484 0.551954 31.1484 1.39494V2.67949C31.1484 2.74973 31.1283 2.76981 31.0581 2.76981C31.0179 2.76981 30.6065 2.5992 30.2753 2.5992C29.613 2.5992 29.1714 2.81998 28.77 3.20133C28.3385 3.63286 28.0775 4.22496 28.0775 4.96759C28.0775 6.20195 28.6997 7.10515 29.7836 7.10515C30.175 7.10515 30.5463 6.90444 31.038 6.50302ZM33.0961 2.56909C33.066 2.56909 33.0359 2.60924 33.0359 2.62931C33.0259 3.08091 32.9657 3.46226 32.8854 3.954C32.9657 3.99414 33.0961 4.01421 33.2165 3.9841C33.4173 3.25151 33.7284 3.04076 34.0294 3.04076H35.4143L32.9456 6.68366C32.8653 6.80409 32.8553 6.83419 32.8553 6.88437C32.8553 6.95462 32.9355 7.0048 33.0861 7.0048H36.2172C36.2673 6.6937 36.3677 6.22202 36.5383 5.63997C36.4681 5.60986 36.3577 5.56972 36.2372 5.56972L36.1068 5.86075C35.8659 6.39263 35.6953 6.66359 35.1133 6.66359H33.7785L36.1871 3.12105C36.3577 2.86012 36.4078 2.7397 36.4078 2.69956C36.4078 2.65941 36.3577 2.62931 36.2874 2.62931C36.2372 2.62931 35.9161 2.69956 35.6251 2.69956H33.5879C33.2567 2.69956 33.2667 2.60924 33.0961 2.56909ZM37.4621 3.82354V5.78046C37.4621 6.61341 37.3417 6.65355 36.7194 6.6937C36.6592 6.75391 36.6592 6.96466 36.7194 7.02487C37.1409 7.01483 37.4621 7.0048 37.8635 7.0048C38.275 7.0048 38.6463 7.01483 39.0778 7.02487C39.138 6.96466 39.138 6.75391 39.0778 6.6937C38.3753 6.64352 38.2549 6.61341 38.2549 5.78046V4.38552C38.2549 4.1246 38.3753 3.89378 38.4957 3.71314C38.6061 3.55258 38.8369 3.2214 38.9574 3.2214C39.0276 3.2214 39.1079 3.23144 39.1681 3.29165C39.2685 3.39201 39.3688 3.58268 39.5796 3.58268C39.8204 3.58268 40.0512 3.33179 40.0512 3.08091C40.0512 2.89023 39.8706 2.5992 39.4491 2.5992C38.9774 2.5992 38.566 3.04076 38.3352 3.43215C38.275 3.54254 38.2448 3.49236 38.2448 3.44219C38.2448 3.12105 38.295 2.63934 38.295 2.63934C38.295 2.5992 38.2448 2.56909 38.1646 2.56909C37.8836 2.67948 37.4822 2.7698 36.7897 2.86012C36.7696 2.92034 36.7696 3.08091 36.8098 3.14112C37.3517 3.1913 37.4621 3.27158 37.4621 3.82354ZM40.2369 4.94751C40.2369 5.97114 40.9294 7.10515 42.3444 7.10515C43.8397 7.10515 44.4719 5.86075 44.4719 4.85719C44.4719 3.8135 43.92 2.5992 42.3645 2.5992C41.0097 2.5992 40.2369 3.673 40.2369 4.94751ZM42.2541 2.93037C43.1171 2.93037 43.6089 3.70311 43.6089 5.17833C43.6089 6.50302 42.9967 6.77398 42.525 6.77398C41.4813 6.77398 41.1 5.48943 41.1 4.7167C41.1 3.84361 41.4111 2.93037 42.2541 2.93037ZM47.805 4.20489C47.805 5.13819 47.3333 5.32886 46.962 5.32886C46.119 5.32886 46.0287 4.61634 46.0287 3.97407C46.0287 3.27158 46.2796 2.9103 46.8316 2.9103C47.4638 2.9103 47.805 3.37194 47.805 4.20489ZM45.9284 7.10515C46.0388 7.13526 46.1993 7.15533 46.3298 7.15533C46.6409 7.15533 46.9219 7.12522 47.0624 7.12522C47.5642 7.12522 47.9857 7.13526 48.2767 7.29583C48.6681 7.51661 48.7885 7.65711 48.7885 7.91803C48.7885 8.64059 47.7247 9.02194 46.8215 9.02194C46.4603 9.02194 45.6173 8.73091 45.6173 8.04849C45.6173 7.70728 45.6373 7.45639 45.9284 7.10515ZM49.0595 3.12105C49.2501 3.12105 49.4308 2.94041 49.4308 2.7397C49.4308 2.52895 49.2401 2.36838 48.9691 2.36838C48.7082 2.36838 48.2265 2.53899 47.9656 2.8802C47.8452 2.79991 47.514 2.5992 46.9219 2.5992C46.0287 2.5992 45.2058 3.20133 45.2058 4.1246C45.2058 4.66652 45.4467 4.97762 45.7277 5.24858C45.4467 5.48943 45.2861 5.92096 45.2861 6.26217C45.2861 6.62345 45.4868 6.90444 45.7477 7.0349C45.2058 7.35604 44.9248 7.81767 44.9248 8.2492C44.9248 9.12229 45.7477 9.39325 46.5205 9.39325C47.8753 9.39325 49.3405 8.74094 49.3405 7.65711C49.3405 7.33597 49.1899 7.08508 48.8989 6.84423C48.5075 6.52309 47.805 6.51306 47.4337 6.51306C47.2531 6.51306 47.0022 6.53313 46.7613 6.56323C46.6108 6.57327 46.5104 6.58331 46.4603 6.58331C46.1692 6.58331 45.818 6.44281 45.818 6.01128C45.818 5.81057 45.8782 5.59982 45.9986 5.42922C46.2395 5.56972 46.5205 5.63997 46.9119 5.63997C47.795 5.63997 48.6079 5.08801 48.6079 4.10453C48.6079 3.63286 48.4674 3.3619 48.1763 3.06084C48.2466 2.96048 48.4473 2.81998 48.5777 2.81998C48.648 2.81998 48.7182 2.85009 48.7785 2.94041C48.8186 3.02069 48.9491 3.12105 49.0595 3.12105ZM51.0889 3.3619C51.3498 3.13108 51.6508 3.04076 51.9419 3.04076C52.554 3.04076 53.0558 3.78339 53.0558 4.75684C53.0558 5.90089 52.5942 6.76394 51.6408 6.76394C51.3297 6.76394 51.119 6.54316 50.9183 6.29227V3.78339C50.9183 3.57265 50.9584 3.48233 51.0889 3.3619ZM51.0186 3.0508C50.9484 3.11101 50.9183 3.09094 50.9183 3.00062V1.15409C50.9183 0.501776 50.9584 0.100355 50.9584 0.100355C50.9584 0.0301062 50.9183 0 50.8279 0C50.577 0.100355 49.8244 0.240853 49.423 0.270959C49.4029 0.351243 49.423 0.511812 49.4832 0.572025C50.005 0.602131 50.1254 0.551954 50.1254 1.39494V6.29227C50.1254 6.68366 50.1154 6.8643 50.0853 7.0048C50.1355 7.08508 50.1857 7.12522 50.3061 7.12522C50.3663 7.07505 50.4667 6.97469 50.5369 6.88437C50.6473 6.76394 50.7075 6.76394 50.8179 6.8643C51.0387 7.05497 51.3397 7.10515 51.701 7.10515C52.7246 7.10515 53.9189 6.17185 53.9189 4.5762C53.9189 3.35187 53.0157 2.5992 52.1426 2.5992C51.7111 2.5992 51.3297 2.76981 51.0186 3.0508ZM56.9437 4.66652V6.00124C56.9437 6.13171 56.8835 6.20196 56.8032 6.26217C56.5423 6.47291 56.2011 6.6937 55.9201 6.6937C55.4183 6.6937 55.1975 6.29227 55.1975 5.98117C55.1975 5.52958 55.4082 5.07797 56.1509 4.87727L56.9437 4.66652ZM56.9437 6.52309C57.0039 6.73384 57.1745 7.10515 57.7164 7.10515C58.2082 7.10515 58.5694 6.70373 58.5694 6.65355C58.5694 6.5833 58.4791 6.48295 58.439 6.48295C58.3788 6.48295 58.3386 6.64352 58.1279 6.64352C57.7365 6.64352 57.7265 6.25213 57.7265 5.7905V4.29521C57.7265 2.87016 56.9437 2.5992 56.2111 2.5992C55.3882 2.5992 54.5552 3.17123 54.5552 3.71314C54.5552 3.954 54.6757 4.06439 54.9065 4.06439C55.1975 4.06439 55.348 3.86368 55.348 3.73322C55.348 3.66297 55.338 3.59272 55.3179 3.55258C55.3079 3.52247 55.2979 3.46226 55.2979 3.35187C55.2979 3.04076 55.7495 2.93037 56.1308 2.93037C56.472 2.93037 56.9437 3.10098 56.9437 4.23499C56.9437 4.30524 56.9136 4.34538 56.8835 4.35542L56.0204 4.56616C55.057 4.80702 54.3646 5.3389 54.3646 6.02132C54.3646 6.81412 54.9265 7.10515 55.629 7.10515C56.0907 7.10515 56.2813 7.02487 56.7229 6.68366L56.9236 6.52309H56.9437ZM59.2644 5.78046C59.2644 6.61341 59.154 6.66359 58.5419 6.6937C58.4817 6.75391 58.4817 6.96466 58.5419 7.02487C58.9634 7.01483 59.2243 7.0048 59.6659 7.0048C60.0974 7.0048 60.3483 7.01483 60.7798 7.02487C60.84 6.96466 60.84 6.75391 60.7798 6.6937C60.1676 6.66359 60.0572 6.61341 60.0572 5.78046V1.15409C60.0572 0.501776 60.0974 0.100355 60.0974 0.100355C60.0974 0.0301062 60.0572 0 59.9669 0C59.716 0.100355 58.9634 0.240853 58.5619 0.270959C58.5419 0.351243 58.5619 0.511812 58.6222 0.572025C59.144 0.602131 59.2644 0.551954 59.2644 1.39494V5.78046ZM63.5786 1.25444C63.388 1.25444 63.2174 1.18419 63.0568 1.06377C62.8561 0.923268 62.6353 0.722558 62.3342 0.722558C61.9027 0.722558 61.6719 1.11394 61.5314 1.70604C61.5916 1.76625 61.692 1.77629 61.8024 1.75622C61.9027 1.42504 62.0031 1.27451 62.264 1.27451C62.4346 1.27451 62.6253 1.3548 62.8059 1.46519C63.0167 1.60568 63.2274 1.78632 63.4482 1.78632C63.9098 1.78632 64.2008 1.39494 64.3213 0.792806C64.2611 0.752664 64.1607 0.722558 64.0503 0.732593C63.9098 1.15408 63.7994 1.25444 63.5786 1.25444ZM61.9228 4.17478C62.1135 3.04076 62.8159 2.95044 63.0568 2.95044C63.4381 2.95044 63.8898 3.16119 63.8898 4.00417C63.8898 4.09449 63.8496 4.14467 63.7392 4.14467L61.9228 4.17478ZM64.5521 6.07149C64.1808 6.45284 63.8897 6.61341 63.3077 6.61341C62.9464 6.61341 62.5249 6.40266 62.2138 5.89085C62.0131 5.55968 61.8927 5.09805 61.8927 4.51599L64.5621 4.53606C64.6826 4.53606 64.7528 4.47584 64.7528 4.36545C64.7528 3.52247 64.4517 2.61927 63.0568 2.61927C62.1837 2.61927 61.0497 3.45222 61.0497 4.97762C61.0497 5.53961 61.1902 6.08153 61.5214 6.46288C61.8626 6.8643 62.3342 7.10515 63.0568 7.10515C63.8195 7.10515 64.3614 6.75391 64.7628 6.23206C64.7327 6.13171 64.6725 6.08153 64.5521 6.07149ZM67.2515 5.61989C67.2917 6.11163 67.3218 6.5833 67.3218 7.0048C67.4221 6.98473 67.5225 6.97469 67.5727 6.97469C67.6429 6.97469 67.7031 6.97469 67.7734 6.99476C68.0443 7.06501 68.3153 7.10515 68.6866 7.10515C69.2486 7.10515 70.2823 6.83419 70.2823 5.84068C70.2823 5.15826 69.7805 4.76687 69.1081 4.50595C68.506 4.27513 68.1045 4.1246 68.1045 3.57265C68.1045 3.16119 68.4658 2.93037 68.807 2.93037C69.0278 2.93037 69.6099 3.01066 69.7403 3.86368C69.8005 3.92389 70.0013 3.91385 70.0615 3.85364C70.0615 3.49236 70.1116 3.12105 70.1217 2.78988C69.8106 2.7397 69.3289 2.5992 68.807 2.5992C68.0644 2.5992 67.392 3.08091 67.392 3.72318C67.392 4.45577 67.7232 4.76687 68.4959 5.08801C69.3188 5.43925 69.5196 5.63997 69.5196 6.07149C69.5196 6.56323 69.0379 6.77398 68.6665 6.77398C68.2752 6.77398 68.0544 6.64352 67.954 6.53313C67.7132 6.30231 67.6228 5.86075 67.5626 5.60986C67.5024 5.54965 67.3117 5.55968 67.2515 5.61989ZM71.236 0.993517C71.236 1.25444 71.4768 1.51536 71.7177 1.51536C71.9987 1.51536 72.2395 1.25444 72.2395 1.03366C72.2395 0.792807 72.0288 0.511812 71.7578 0.511812C71.517 0.511812 71.236 0.752664 71.236 0.993517ZM72.1492 5.78046V3.78339C72.1492 3.28162 72.1893 2.63934 72.1893 2.63934C72.1893 2.5992 72.1392 2.56909 72.0589 2.56909C71.7679 2.67948 71.3765 2.7698 70.684 2.86012C70.664 2.92034 70.684 3.08091 70.7041 3.14112C71.246 3.20133 71.3564 3.25151 71.3564 3.82354V5.78046C71.3564 6.61341 71.246 6.64352 70.6338 6.6937C70.5736 6.75391 70.5736 6.96466 70.6338 7.02487C71.0553 7.01483 71.3163 7.0048 71.7578 7.0048C72.1893 7.0048 72.4402 7.01483 72.8718 7.02487C72.932 6.96466 72.932 6.75391 72.8718 6.6937C72.2596 6.65355 72.1492 6.61341 72.1492 5.78046ZM79.0658 5.90089V4.18481C79.0658 3.29165 78.8651 2.5992 77.9619 2.5992C77.45 2.5992 76.9683 2.7397 76.3261 3.49236H76.296L76.3261 2.5992C76.3261 2.57913 76.306 2.56909 76.2859 2.56909C75.9949 2.67948 75.6035 2.76981 74.901 2.8802L74.9211 3.12105L75.3526 3.16119C75.4931 3.18126 75.5734 3.28162 75.5734 3.78339V6.28224C75.5734 6.57327 75.4831 6.68366 75.1419 6.71377L74.9512 6.73384C74.901 6.74387 74.8709 6.76394 74.8709 6.81412V7.0048L74.891 7.02487C74.891 7.02487 75.5232 7.0048 75.9347 7.0048C76.3261 7.0048 76.9583 7.02487 76.9583 7.02487L76.9784 7.0048V6.81412C76.9784 6.76394 76.9382 6.74387 76.8981 6.73384L76.7576 6.71377C76.4365 6.67362 76.3261 6.57327 76.3261 6.28224V3.85364C76.8379 3.25151 77.2192 3.08091 77.6608 3.08091C78.1927 3.08091 78.3131 3.41208 78.3131 4.11457V6.2421C78.3131 7.33597 78.4134 8.86137 77.9719 8.86137C77.8615 8.86137 77.8013 8.79112 77.7411 8.7008C77.6608 8.60045 77.5604 8.48002 77.2995 8.48002C77.1891 8.48002 76.9984 8.60045 76.9984 8.78109C76.9984 9.08215 77.3396 9.22265 77.5203 9.22265C77.721 9.22265 78.0622 9.22265 78.4335 8.91155C78.9052 8.5302 79.0658 7.52664 79.0658 5.90089ZM81.7337 7.10515C82.1251 7.10515 82.5365 6.90444 83.0283 6.50302C83.0684 6.46288 83.1487 6.44281 83.1487 6.51306C83.1487 6.75391 83.2591 7.10515 83.2591 7.10515C83.3293 7.13526 83.3695 7.13526 83.4498 7.10515C83.6705 6.92451 84.0519 6.77398 84.664 6.70373C84.7243 6.64352 84.7243 6.49298 84.664 6.43277C84.0218 6.38259 83.9315 6.19192 83.9315 5.70018V3.77336C83.9315 3.47229 83.9716 2.74973 83.9716 2.74973C83.9716 2.70959 83.9415 2.67949 83.8913 2.67949C83.8411 2.68952 83.6906 2.69956 83.5401 2.69956C83.2189 2.69956 82.8878 2.68952 82.5165 2.67949C82.4562 2.7397 82.4562 2.95044 82.5165 3.01066C83.0082 3.04076 83.1387 3.16119 83.1387 3.82354V5.76039C83.1387 5.95107 83.1186 6.03135 82.9781 6.15178C82.6068 6.47291 82.2856 6.63348 82.0347 6.63348C81.7337 6.63348 81.2319 6.49298 81.2319 5.59982V3.77336C81.2319 3.47229 81.272 2.74973 81.272 2.74973C81.272 2.70959 81.2419 2.67949 81.1918 2.67949C81.1416 2.68952 80.9911 2.69956 80.8405 2.69956C80.5194 2.69956 80.1882 2.68952 79.8169 2.67949C79.7567 2.7397 79.7567 2.95044 79.8169 3.01066C80.2986 3.0508 80.4391 3.16119 80.4391 3.8135V5.74032C80.4391 6.43277 80.7402 7.10515 81.7337 7.10515ZM88.3382 3.71314C88.7296 3.33179 89.0507 3.12105 89.3618 3.12105C89.7432 3.12105 90.0241 3.3619 90.0241 4.03428V5.78046C90.0241 6.60337 89.9439 6.65355 89.4019 6.6937C89.3518 6.75391 89.3518 6.96466 89.4019 7.02487C89.8234 7.01483 90.0241 7.0048 90.4256 7.0048C90.837 7.0048 90.9775 7.01483 91.4091 7.02487C91.4592 6.96466 91.4592 6.75391 91.4091 6.6937C90.9073 6.65355 90.817 6.60337 90.817 5.78046V4.18481C90.817 4.04432 90.817 3.90382 90.8069 3.78339C91.2886 3.25151 91.68 3.12105 92.0714 3.12105C92.4527 3.12105 92.6936 3.34183 92.6936 4.01421V5.78046C92.6936 6.60337 92.5932 6.65355 92.0714 6.6937C92.0212 6.75391 92.0212 6.96466 92.0714 7.02487C92.4929 7.01483 92.6936 7.0048 93.095 7.0048C93.5065 7.0048 93.6972 7.01483 94.1287 7.02487C94.1789 6.96466 94.1789 6.75391 94.1287 6.6937C93.5767 6.65355 93.4864 6.60337 93.4864 5.78046V4.19485C93.4864 3.30169 93.3158 2.5992 92.4327 2.5992C91.9108 2.5992 91.3589 2.78988 90.837 3.34183C90.8069 3.37194 90.7467 3.42211 90.7266 3.34183C90.6263 2.93037 90.2449 2.5992 89.7231 2.5992C89.141 2.5992 88.6995 2.95044 88.2579 3.41208C88.2178 3.45222 88.1575 3.55257 88.1575 3.41208C88.1575 3.11101 88.2077 2.64938 88.2077 2.64938C88.2077 2.5992 88.1676 2.56909 88.0873 2.56909C87.7963 2.67948 87.3948 2.7698 86.7024 2.86012C86.6823 2.92034 86.7024 3.08091 86.7225 3.14112C87.2644 3.20133 87.3748 3.24147 87.3748 3.82354V5.78046C87.3748 6.60337 87.2443 6.65355 86.6924 6.6937C86.6321 6.75391 86.6321 6.96466 86.6924 7.02487C87.1038 7.01483 87.3447 7.0048 87.7762 7.0048C88.1676 7.0048 88.3382 7.01483 88.7597 7.02487C88.8199 6.96466 88.8199 6.75391 88.7597 6.6937C88.2579 6.64352 88.1676 6.60337 88.1676 5.78046V4.13464C88.1676 3.92389 88.2579 3.80346 88.3382 3.71314ZM94.1038 3.61279C94.1439 3.70311 94.2242 3.74325 94.3145 3.75329C94.6557 3.31172 95.0873 3.09094 95.5188 3.09094C96.2514 3.09094 96.8636 3.83357 96.8636 5.00773C96.8636 6.11163 96.3818 6.77398 95.7195 6.77398C95.1274 6.77398 95.0471 6.42274 95.007 6.07149C94.9668 5.80053 94.8364 5.71021 94.6256 5.71021C94.4149 5.71021 94.1339 5.84068 94.1339 6.15178C94.1339 6.70373 94.7059 7.10515 95.6693 7.10515C96.6628 7.10515 97.7266 6.21199 97.7266 4.78695C97.7266 3.49236 97.0041 2.5992 95.7396 2.5992C95.1374 2.5992 94.6056 2.78988 94.1038 3.61279ZM100.783 5.78046C100.783 6.61341 100.673 6.66359 100.06 6.6937C100 6.75391 100 6.96466 100.06 7.02487C100.482 7.01483 100.743 7.0048 101.184 7.0048C101.616 7.0048 101.867 7.01483 102.298 7.02487C102.359 6.96466 102.359 6.75391 102.298 6.6937C101.686 6.66359 101.576 6.61341 101.576 5.78046V1.15409C101.576 0.501776 101.616 0.100355 101.616 0.100355C101.616 0.0301062 101.576 0 101.485 0C101.235 0.100355 100.482 0.240853 100.08 0.270959C100.06 0.351243 100.08 0.511812 100.141 0.572025C100.663 0.602131 100.783 0.551954 100.783 1.39494V5.78046ZM103.441 4.17478C103.632 3.04076 104.334 2.95044 104.575 2.95044C104.957 2.95044 105.408 3.16119 105.408 4.00417C105.408 4.09449 105.368 4.14467 105.258 4.14467L103.441 4.17478ZM106.071 6.07149C105.699 6.45284 105.408 6.61341 104.826 6.61341C104.465 6.61341 104.043 6.40266 103.732 5.89085C103.532 5.55968 103.411 5.09805 103.411 4.51599L106.081 4.53606C106.201 4.53606 106.271 4.47584 106.271 4.36545C106.271 3.52247 105.97 2.61927 104.575 2.61927C103.702 2.61927 102.568 3.45222 102.568 4.97762C102.568 5.53961 102.709 6.08153 103.04 6.46288C103.381 6.8643 103.853 7.10515 104.575 7.10515C105.338 7.10515 105.88 6.75391 106.281 6.23206C106.251 6.13171 106.191 6.08153 106.071 6.07149ZM110.045 5.78046V3.09094H110.978C111.068 3.09094 111.209 3.0508 111.209 2.96048V2.75977C111.209 2.71963 111.179 2.69956 111.128 2.69956H110.045V2.12753C110.045 0.582062 110.506 0.341208 110.837 0.341208C111.138 0.341208 111.299 0.461634 111.439 0.812878C111.52 0.993516 111.63 1.13401 111.841 1.13401C112.012 1.13401 112.252 0.923267 112.252 0.722558C112.252 0.551954 112.142 0.371313 111.931 0.210746C111.67 0.0301062 111.409 0 111.028 0C110.185 0 109.252 0.732595 109.252 2.29814V2.69956H108.74C108.559 2.69956 108.509 2.81998 108.509 2.90027V3.03073C108.509 3.08091 108.519 3.09094 108.559 3.09094H109.252V5.78046C109.252 6.61341 109.141 6.65355 108.599 6.6937C108.539 6.75391 108.539 6.96466 108.599 7.02487C109.021 7.01483 109.242 7.0048 109.653 7.0048C110.115 7.0048 110.406 7.01483 110.837 7.02487C110.898 6.96466 110.898 6.75391 110.837 6.6937C110.155 6.65355 110.045 6.61341 110.045 5.78046ZM114.066 4.66652V6.00124C114.066 6.13171 114.006 6.20196 113.926 6.26217C113.665 6.47291 113.324 6.6937 113.043 6.6937C112.541 6.6937 112.32 6.29227 112.32 5.98117C112.32 5.52958 112.531 5.07797 113.274 4.87727L114.066 4.66652ZM114.066 6.52309C114.127 6.73384 114.297 7.10515 114.839 7.10515C115.331 7.10515 115.692 6.70373 115.692 6.65355C115.692 6.5833 115.602 6.48295 115.562 6.48295C115.502 6.48295 115.461 6.64352 115.251 6.64352C114.859 6.64352 114.849 6.25213 114.849 5.7905V4.29521C114.849 2.87016 114.066 2.5992 113.334 2.5992C112.511 2.5992 111.678 3.17123 111.678 3.71314C111.678 3.954 111.798 4.06439 112.029 4.06439C112.32 4.06439 112.471 3.86368 112.471 3.73322C112.471 3.66297 112.461 3.59272 112.441 3.55258C112.431 3.52247 112.421 3.46226 112.421 3.35187C112.421 3.04076 112.872 2.93037 113.254 2.93037C113.595 2.93037 114.066 3.10098 114.066 4.23499C114.066 4.30524 114.036 4.34538 114.006 4.35542L113.143 4.56616C112.18 4.80702 111.487 5.3389 111.487 6.02132C111.487 6.81412 112.049 7.10515 112.752 7.10515C113.213 7.10515 113.404 7.02487 113.846 6.68366L114.046 6.52309H114.066ZM118.374 4.66652V6.00124C118.374 6.13171 118.314 6.20196 118.234 6.26217C117.973 6.47291 117.632 6.6937 117.351 6.6937C116.849 6.6937 116.628 6.29227 116.628 5.98117C116.628 5.52958 116.839 5.07797 117.581 4.87727L118.374 4.66652ZM118.374 6.52309C118.434 6.73384 118.605 7.10515 119.147 7.10515C119.639 7.10515 120 6.70373 120 6.65355C120 6.5833 119.91 6.48295 119.87 6.48295C119.809 6.48295 119.769 6.64352 119.558 6.64352C119.167 6.64352 119.157 6.25213 119.157 5.7905V4.29521C119.157 2.87016 118.374 2.5992 117.642 2.5992C116.819 2.5992 115.986 3.17123 115.986 3.71314C115.986 3.954 116.106 4.06439 116.337 4.06439C116.628 4.06439 116.779 3.86368 116.779 3.73322C116.779 3.66297 116.769 3.59272 116.748 3.55258C116.738 3.52247 116.728 3.46226 116.728 3.35187C116.728 3.04076 117.18 2.93037 117.561 2.93037C117.903 2.93037 118.374 3.10098 118.374 4.23499C118.374 4.30524 118.344 4.34538 118.314 4.35542L117.451 4.56616C116.488 4.80702 115.795 5.3389 115.795 6.02132C115.795 6.81412 116.357 7.10515 117.06 7.10515C117.521 7.10515 117.712 7.02487 118.153 6.68366L118.354 6.52309H118.374Z" fill="black"/>
</svg>
