<?xml version="1.0" encoding="UTF-8"?>
<svg xmlns="http://www.w3.org/2000/svg" width="50" height="50" viewBox="0 0 50 50">
	<title>
		wikispecies-logo
	</title>
	<defs>
		<radialGradient id="radialGradient-1" cx="63.835%" cy="28.864%" r="63.835%" fx="63.835%" fy="28.864%">
			<stop offset="0%" stop-color="#E29988"/>
			<stop offset="100%" stop-color="#651300"/>
		</radialGradient>
		<radialGradient id="radialGradient-2" cx="50%" cy="58.909%" r="64.723%" fx="50%" fy="58.909%" gradientTransform="matrix(.82316 0 0 1 .088 0)">
			<stop offset="0%" stop-color="#68C5FF"/>
			<stop offset="41.086%" stop-color="#3485B8"/>
			<stop offset="100%" stop-color="#004672"/>
		</radialGradient>
		<radialGradient id="radialGradient-3" cx="50%" cy="50%" r="75.567%" fx="50%" fy="50%" gradientTransform="matrix(.66166 0 0 1 .17 0)">
			<stop offset="0%" stop-color="#1489CC"/>
			<stop offset="100%" stop-color="#041B28"/>
		</radialGradient>
		<radialGradient id="radialGradient-4" cx="50%" cy="50%" r="83.788%" fx="50%" fy="50%" gradientTransform="matrix(.66028 0 0 1 .17 0)">
			<stop offset="0%" stop-color="#06B160"/>
			<stop offset="64.434%" stop-color="#038748"/>
			<stop offset="100%" stop-color="#011B0F"/>
		</radialGradient>
		<radialGradient id="radialGradient-5" cx="50%" cy="64.918%" r="74.362%" fx="50%" fy="64.918%" gradientTransform="matrix(.6724 0 0 1 .164 0)">
			<stop offset="0%" stop-color="#B5F0D4"/>
			<stop offset="66.3%" stop-color="#66A788"/>
			<stop offset="100%" stop-color="#185E3C"/>
		</radialGradient>
		<radialGradient id="radialGradient-6" cx="50%" cy="50%" r="71.644%" fx="50%" fy="50%" gradientTransform="matrix(.6979 0 0 1 .151 0)">
			<stop offset="0%" stop-color="#0C81C8"/>
			<stop offset="65.376%" stop-color="#07476F"/>
			<stop offset="100%" stop-color="#020E16"/>
		</radialGradient>
		<radialGradient id="radialGradient-7" cx="50%" cy="50%" r="74.97%" fx="50%" fy="50%" gradientTransform="matrix(.66693 0 0 1 .167 0)">
			<stop offset="0%" stop-color="#B1E8CE"/>
			<stop offset="66%" stop-color="#62B18C"/>
			<stop offset="100%" stop-color="#2E6049"/>
		</radialGradient>
		<radialGradient id="radialGradient-8" cx="50%" cy="50%" r="75.672%" fx="50%" fy="50%" gradientTransform="matrix(.66075 0 0 1 .17 0)">
			<stop offset="0%" stop-color="#B2D4E7"/>
			<stop offset="65.868%" stop-color="#6692A9"/>
			<stop offset="100%" stop-color="#1A506C"/>
		</radialGradient>
	</defs>
	<g id="wikispecies-logo" fill="none" fill-rule="evenodd" stroke="none" stroke-width="1">
		<g id="Group-11" transform="translate(4)">
			<path id="path2468" fill="url(#radialGradient-1)" d="M27.3350561,6.14638984 C27.3350561,9.54094722 24.5832236,12.2927797 21.1886663,12.2927797 C17.7941089,12.2927797 15.0422764,9.54094722 15.0422764,6.14638984 C15.0422764,2.75183247 17.7941089,-1.60272798e-13 21.1886663,-1.60272798e-13 C24.5832236,-1.60272798e-13 27.3350561,2.75183247 27.3350561,6.14638984 Z"/>
			<path id="path2490" fill="url(#radialGradient-2)" d="M37.135812,14.7969672 L33.5996278,18.2509145 C36.2068534,21.1084345 37.7937068,24.8790878 37.7937068,29.0121927 C37.7937068,37.9305017 30.4119398,45.1658589 21.3110902,45.1658589 C12.210244,45.1658589 4.81672932,37.9305017 4.81672932,29.0121927 C4.81672932,24.9216995 6.3782109,21.1915551 8.94031955,18.3448995 L5.34539474,14.8557078 C2.02264624,18.5667563 -2.09957365e-12,23.4367679 -2.09957365e-12,28.7772303 C-2.09957365e-12,40.3814642 9.52948158,49.7946183 21.2640977,49.7946183 C32.998718,49.7946183 42.5164511,40.3814642 42.5164511,28.7772303 C42.5164511,23.4119326 40.483485,18.5143457 37.135812,14.7969672 Z"/>
			<path id="path3715" fill="url(#radialGradient-3)" d="M8.42060639,9.34541716 L8.35379774,13.7547841 C8.35379774,13.7547841 8.90262632,16.069022 12.7297602,17.267966 C16.4504782,18.4335724 21.6874857,18.0162709 25.3565831,19.6673439 C28.5397944,21.0997709 29.6323327,23.4754333 29.6323327,23.4754333 L29.7090989,19.3421585 C29.7090989,19.3421585 29.4319071,17.162022 26.4923293,16.2601059 C23.5527511,15.3581901 18.6365887,15.0649611 12.9190113,13.1096232 C10.353965,12.2324104 8.38720188,9.41222581 8.42060639,9.34541716 Z"/>
			<path id="path3717" fill="url(#radialGradient-4)" d="M12.586359,18.8025375 L12.4261692,23.649286 C12.4261692,23.649286 12.8269038,24.6830239 16.3722184,25.7054157 C18.4937357,26.3172153 24.7843019,26.8679946 28.0410846,28.1894916 C30.8893068,29.3452081 32.2044635,32.0603371 32.2044635,32.0603371 L32.5051019,28.0184175 C31.5657929,25.7287457 30.480197,25.1614213 26.6475278,24.1738454 C24.0380026,23.5014408 21.0453338,23.3818476 18.7381677,22.6179822 C14.2076643,21.1180055 12.586359,18.8025375 12.586359,18.8025375 Z"/>
			<path id="path3709" fill="url(#radialGradient-5)" d="M33.7410605,9.31201302 L33.7410605,13.6378687 C33.7410605,13.6378687 33.1312759,15.6476247 29.8494609,16.8613833 C25.6214267,18.4250946 19.1622515,18.3135679 14.8342308,20.7362811 C12.8783008,21.83116 12.4291214,23.6424551 12.4291214,23.6424551 L12.4959301,18.6652153 C12.4959301,18.6652153 13.2444301,16.8156439 17.072318,15.6254243 C21.9848568,14.0979502 25.1011545,14.6804781 29.4820135,12.8194638 C32.3350977,11.607457 33.774465,9.34541716 33.7410605,9.31201302 Z"/>
			<path id="path3719" fill="url(#radialGradient-6)" d="M9.73147895,27.9182044 L9.55947857,32.6939187 C9.55947857,32.6939187 10.3121827,34.2143044 12.5411447,35.1612059 C16.8001075,36.9704792 19.8022492,35.6383224 26.0580733,38.4739642 C28.8810635,39.7535694 29.5459568,41.8663814 29.5459568,41.8663814 L29.5321199,37.0709792 C29.5321199,37.0709792 29.1646729,35.6011908 26.4255207,34.6992762 C23.686368,33.7973604 17.7038026,33.1826555 13.6394335,31.6608164 C10.8441391,30.6141623 9.69807481,27.8848002 9.73147895,27.9182044 Z"/>
			<path id="path3713" fill="url(#radialGradient-7)" d="M12.4625259,41.3801333 C12.4625259,41.2465168 12.5293342,36.8037461 12.5293342,36.8037461 C12.5293342,36.8037461 12.8449733,35.4840329 17.1057222,34.1314033 C21.1230218,32.8560566 26.1150977,32.8816074 28.4533981,31.9128829 C30.7916989,30.9441585 32.5052756,28.0163912 32.5052756,28.0163912 L32.4875602,32.8718239 C32.4875602,32.8718239 32.6102778,34.602786 29.0408395,35.7331307 C24.398582,37.2032085 21.4624105,36.678216 16.8897812,38.385904 C14.298518,39.3536371 12.5293342,41.4803476 12.4625259,41.3801333 Z"/>
			<path id="path3711" fill="url(#radialGradient-8)" d="M29.7090992,19.3415803 L29.76595,23.5088378 C29.76595,23.5088378 29.1091432,24.7338202 26.220347,25.9017893 C22.2861064,27.4924412 18.7109259,26.5927999 13.6984846,28.7199078 C11.8287921,29.5133408 9.55635226,32.6950187 9.55635226,32.6950187 L9.68996955,27.6509702 C9.68996955,27.6509702 11.0374583,25.4824807 13.4646545,24.6111796 C18.6757244,22.740539 20.6131729,24.1101153 26.0580733,21.8720273 C27.8999553,21.1149348 29.6557797,19.5491852 29.7090992,19.3415803 Z"/>
		</g>
	</g>
</svg>
