<svg xmlns="http://www.w3.org/2000/svg" width="120" height="17"><path fill="#000" fill-rule="nonzero" d="M25.523.28c.065.081.097.224.097.427 0 .194-.032.328-.097.402a2.745 2.745 0 0 0-.463.085l-.378.11a1.01 1.01 0 0 0-.317.17 5.063 5.063 0 0 1-.268.195.962.962 0 0 0-.231.244 4.59 4.59 0 0 1-.183.243c-.032.041-.09.138-.17.293l-.146.304a19.056 19.056 0 0 1-.293.67l-5.909 12.72c-.186.38-.385.576-.596.584-.252 0-.443-.195-.573-.585l-3.362-7.236-3.68 7.236c-.146.382-.345.577-.597.585-.235 0-.426-.195-.572-.585L2.363 3.375c-.04-.09-.093-.212-.158-.366-.333-.78-.61-1.28-.828-1.498-.212-.22-.63-.354-1.255-.402C.04 1.027 0 .889 0 .694 0 .5.032.361.097.28c1.384.029 2.22.045 2.509.048h.213C3.203.325 4.087.308 5.47.28c.065.081.098.224.098.427 0 .194-.033.328-.098.402-.763.08-1.21.255-1.34.523-.122.268-.016.756.317 1.462l4.568 10.404h.122l2.79-5.665-2.108-4.458c-.438-.926-.771-1.52-.999-1.78-.227-.259-.597-.421-1.108-.486-.082-.082-.122-.22-.122-.415 0-.195.032-.333.097-.414.976.03 1.678.046 2.107.049h.11c.317 0 1.073-.016 2.267-.049.08.081.121.224.121.427.009.194-.032.328-.121.402-.504.073-.764.247-.78.523-.016.268.158.756.524 1.462l1.23 2.522.11.11 1.316-2.473c.284-.512.463-.906.536-1.182.073-.276.056-.491-.05-.646-.105-.162-.332-.268-.681-.316-.082-.065-.126-.2-.134-.402 0-.203.044-.346.134-.427 1.08.029 1.715.045 1.906.048h.055c.382 0 .99-.015 1.827-.048.082.081.122.224.122.427 0 .194-.04.328-.122.402-.584.089-1.043.316-1.376.682-.333.365-.69.91-1.072 1.632l-1.828 3.472 3.192 6.603h.11l4.739-10.245c.333-.666.426-1.174.28-1.523-.138-.35-.589-.556-1.352-.621-.081-.065-.122-.2-.122-.402 0-.203.04-.346.122-.427 1.393.029 2.2.045 2.418.048h.132c.245-.003.95-.02 2.116-.048Zm5.19 4.617c.08.065.122.2.122.402 0 .195-.041.333-.122.415-.796.065-1.296.21-1.499.438-.203.228-.304.84-.304 1.84v5.385c0 .999.097 1.616.292 1.851.203.228.707.37 1.51.427.082.081.123.223.123.426 0 .195-.041.325-.122.39a181.79 181.79 0 0 0-2.687-.048h-.091c-.463 0-1.393.016-2.79.048-.065-.065-.097-.195-.097-.39 0-.203.032-.345.097-.426.796-.065 1.292-.211 1.486-.439.204-.227.305-.84.305-1.84V7.993c0-1-.101-1.612-.305-1.84-.194-.235-.69-.381-1.486-.438-.065-.082-.097-.22-.097-.415 0-.203.032-.337.097-.402 1.43.033 2.351.05 2.766.05.463 0 1.397-.017 2.802-.05Zm3.776 3.095c0-1-.101-1.608-.304-1.828-.195-.227-.69-.377-1.487-.45-.064-.082-.097-.22-.097-.415 0-.203.033-.337.097-.402 1.397.033 2.327.05 2.79.05.163 0 .963-.017 2.4-.05.065.065.098.2.098.402 0 .195-.033.333-.098.415-.633.065-1.031.21-1.194.438-.154.228-.231.84-.231 1.84v2.217c.796 0 1.669-.532 2.62-1.596 1.234-1.397 1.79-2.258 1.668-2.583-.073-.178-.32-.284-.743-.316-.081-.082-.122-.22-.122-.415 0-.203.04-.337.122-.402 1.43.033 2.343.05 2.741.05.268 0 .853-.017 1.755-.05.08.065.121.2.121.402 0 .195-.04.333-.121.415-1.235.065-2.128.414-2.68 1.047l-2.145 2.473c-.382.398-.572.707-.572.926 0 .098.077.24.231.427l3.691 4.337c.35.398.882.641 1.596.73.065.082.098.216.098.403 0 .178-.033.308-.098.39-.812-.017-1.453-.025-1.924-.025-.666 0-1.182.017-1.548.049v-.353c0-.382-.126-.71-.377-.987l-2.766-3.448c-.317-.414-.832-.621-1.547-.621v2.315c0 .999.077 1.612.231 1.84.163.218.56.365 1.194.438.065.081.098.223.098.426 0 .195-.033.325-.098.39-1.43-.032-2.23-.049-2.4-.049-.463 0-1.393.017-2.79.049-.064-.065-.097-.195-.097-.39 0-.203.033-.345.097-.426.796-.065 1.292-.211 1.487-.439.203-.227.304-.84.304-1.84V7.993Zm15.814 0v5.385c0 .999.097 1.616.292 1.851.203.228.707.37 1.51.427.082.081.122.223.122.426 0 .195-.04.325-.121.39-1.43-.032-2.356-.049-2.778-.049-.463 0-1.393.017-2.79.049-.065-.065-.097-.195-.097-.39 0-.203.032-.345.097-.426.796-.065 1.291-.211 1.486-.439.203-.227.305-.84.305-1.84V7.993c0-1-.102-1.612-.305-1.84-.195-.235-.69-.381-1.486-.438-.065-.082-.097-.22-.097-.415 0-.203.032-.337.097-.402 1.43.033 2.351.05 2.766.05.463 0 1.397-.017 2.802-.05.08.065.121.2.121.402 0 .195-.04.333-.121.415-.796.065-1.296.21-1.499.438-.203.228-.304.84-.304 1.84Zm7.504-1.145v3.886c.463.187 1.003.28 1.62.28 1.43 0 2.145-.926 2.145-2.778 0-1.68-.756-2.521-2.266-2.521-.585 0-.983.085-1.194.256-.203.17-.305.462-.305.877Zm0 6.53c0 .999.098 1.616.293 1.851.203.228.706.37 1.51.427.081.081.122.223.122.426 0 .195-.04.325-.122.39-1.43-.032-2.355-.049-2.777-.049-.463 0-1.393.017-2.79.049-.065-.065-.098-.195-.098-.39 0-.203.033-.345.098-.426.796-.065 1.291-.211 1.486-.439.203-.227.305-.84.305-1.84V7.993c0-1-.102-1.612-.305-1.84-.195-.235-.69-.381-1.486-.438-.065-.082-.098-.22-.098-.415 0-.203.033-.337.098-.402 1.43.033 2.35.05 2.765.05.203 0 .61-.009 1.218-.025a58.237 58.237 0 0 1 1.426-.025c1.6 0 2.712.305 3.338.914.633.601.95 1.312.95 2.132 0 .95-.353 1.836-1.06 2.656-.706.82-1.807 1.23-3.301 1.23-.601 0-1.125-.097-1.572-.292v1.84Zm11.55-5.385v5.385c0 .999.097 1.616.292 1.851.203.228.706.37 1.51.427.082.081.122.223.122.426 0 .195-.04.325-.122.39-1.429-.032-2.355-.049-2.777-.049-.463 0-1.393.017-2.79.049-.065-.065-.098-.195-.098-.39 0-.203.033-.345.098-.426.796-.065 1.291-.211 1.486-.439.203-.227.305-.84.305-1.84V7.993c0-1-.102-1.612-.305-1.84-.195-.235-.69-.381-1.486-.438-.065-.082-.098-.22-.098-.415 0-.203.033-.337.098-.402 1.43.033 2.351.05 2.765.05.463 0 1.397-.017 2.802-.05.082.065.122.2.122.402 0 .195-.04.333-.122.415-.796.065-1.295.21-1.498.438-.203.228-.305.84-.305 1.84Zm10.001 5.385c0 .999.098 1.616.293 1.851.203.228.702.37 1.498.427.081.081.122.223.122.426.008.195-.032.325-.122.39-1.43-.032-2.351-.049-2.765-.049-.463 0-1.393.017-2.79.049-.065-.065-.102-.195-.11-.39 0-.203.037-.345.11-.426.796-.065 1.291-.211 1.486-.439.203-.227.305-.84.305-1.84v-6.31c0-.333-.081-.625-.244-.877-.154-.26-.398-.39-.73-.39h-1.073c-.552 0-.946.15-1.182.45-.227.293-.475.906-.743 1.84a1.832 1.832 0 0 1-.67-.073c.13-.78.2-1.92.207-3.423.252-.033.46-.033.622 0 .08.235.304.353.67.353h8.004c.365 0 .593-.118.682-.353.235-.065.443-.065.621 0 0 1.364.065 2.505.195 3.423-.162.098-.386.122-.67.073-.252-.917-.5-1.527-.743-1.827-.236-.309-.621-.463-1.157-.463h-.817a.846.846 0 0 0-.743.402c-.17.26-.256.556-.256.89v6.286Zm9.734-5.385v5.385c0 .999.098 1.616.293 1.851.203.228.706.37 1.51.427.082.081.122.223.122.426 0 .195-.04.325-.122.39-1.429-.032-2.355-.049-2.777-.049-.463 0-1.393.017-2.79.049-.065-.065-.098-.195-.098-.39 0-.203.033-.345.098-.426.796-.065 1.291-.211 1.486-.439.203-.227.305-.84.305-1.84V7.993c0-1-.102-1.612-.305-1.84-.195-.235-.69-.381-1.486-.438-.065-.082-.098-.22-.098-.415 0-.203.033-.337.098-.402 1.43.033 2.351.05 2.765.05.463 0 1.397-.017 2.802-.05.082.065.122.2.122.402 0 .195-.04.333-.122.415-.795.065-1.295.21-1.498.438-.203.228-.305.84-.305 1.84Zm14.34-3.095c.08.065.121.2.121.402 0 .195-.04.333-.121.415-.195.016-.37.044-.524.085-.155.032-.297.09-.427.17-.122.082-.223.15-.304.208a.99.99 0 0 0-.268.28c-.098.138-.167.24-.207.304-.041.065-.118.195-.232.39-.106.195-.179.333-.22.414l-2.18 3.862v1.95c0 .999.098 1.616.292 1.851.204.228.703.37 1.499.427.065.081.097.223.097.426 0 .195-.032.325-.097.39-1.334-.03-2.226-.046-2.676-.048h-.09c-.462 0-1.392.016-2.79.048-.08-.065-.125-.195-.133-.39 0-.203.044-.345.134-.426.796-.065 1.291-.211 1.486-.439.203-.227.304-.84.304-1.84v-1.839L94.66 7.541a56.07 56.07 0 0 1-.366-.597 5.673 5.673 0 0 0-.316-.512 2.611 2.611 0 0 0-.305-.304 1.136 1.136 0 0 0-.5-.28 5.886 5.886 0 0 0-.694-.134c-.065-.082-.097-.22-.097-.415 0-.203.032-.337.097-.402 1.235.033 1.966.05 2.193.05.536 0 1.417-.017 2.644-.05.065.065.097.2.097.402.008.195-.024.333-.097.415-.723.065-1.105.227-1.145.487-.041.26.142.658.548 1.194l1.852 3.07h.048l1.694-3.07c.333-.601.43-1.015.292-1.243-.13-.235-.536-.381-1.218-.438-.081-.082-.122-.22-.122-.415 0-.203.04-.337.122-.402 1.234.033 2.034.05 2.4.05.365 0 .914-.017 1.645-.05ZM111.85 0c.268 0 .495.252.682.755l5.117 13.523c.113.3.24.548.377.743.147.187.342.321.585.402.252.082.435.13.548.147.122.016.366.044.731.085.073.073.11.211.11.414 0 .195-.037.329-.11.402a116.474 116.474 0 0 0-2.85-.049c-.95 0-2.039.017-3.265.05-.073-.074-.11-.208-.11-.403 0-.203.037-.341.11-.414.097-.008.235-.016.414-.024l.414-.037c.098-.008.215-.02.353-.037.138-.016.24-.036.305-.06.073-.025.146-.057.22-.098a.429.429 0 0 0 .17-.17.513.513 0 0 0 .048-.232c0-.106-.024-.227-.073-.365l-1.523-4.228h-5.19c-.3 0-.507.033-.62.098-.106.056-.192.166-.257.329l-1.376 3.618c-.049.138-.073.26-.073.365 0 .163.049.3.146.414.106.106.26.187.463.244.203.057.386.098.548.122l.646.06c.073.074.11.212.11.415 0 .195-.037.329-.11.402a123.774 123.774 0 0 0-3.192-.049c-.252 0-.995.017-2.23.05-.073-.074-.11-.208-.11-.403 0-.203.037-.341.11-.414.431-.033.768-.081 1.012-.146.243-.073.5-.236.767-.488.268-.26.508-.641.719-1.145L111.009.902c.146-.342.276-.577.39-.707a.593.593 0 0 1 .45-.195Zm-.573 2.705h-.048l-2.498 6.322a.401.401 0 0 0-.024.122c0 .138.219.207.658.207h4.337l-2.425-6.651Z"/></svg>