<?xml version="1.0" encoding="UTF-8"?>
<svg width="120px" height="8px" viewBox="0 0 120 8" version="1.1" xmlns="http://www.w3.org/2000/svg" xmlns:xlink="http://www.w3.org/1999/xlink">
    <title>zu-tagline</title>
    <g id="Page-1" stroke="none" stroke-width="1" fill="none" fill-rule="evenodd">
        <path d="M6.37678777,0.561 C6.43596909,0.627 6.43596909,0.858 6.37678777,0.924 C5.78497452,1.001 5.6172941,1.04170013 5.6172941,1.925 L5.6172941,4.433 C5.6172941,6.391 5.13397994,7.788 3.11195134,7.788 C2.10093704,7.788 0.803879665,7.359 0.803879665,5.115 L0.803879665,1.925 C0.803879665,1.012 0.636199244,0.957 0.0443859938,0.924 C-0.0147953313,0.858 -0.0147953313,0.627 0.0443859938,0.561 C0.429064606,0.572 0.833470327,0.583 1.21814894,0.583 C1.60677291,0.583 2.08614171,0.572 2.54972875,0.561 C2.60891008,0.627 2.60891008,0.858 2.54972875,0.924 C1.79023508,0.957 1.64228177,1.012 1.64228177,1.925 L1.64294961,4.9330162 C1.64878897,5.60411806 1.70228506,6.34608333 2.14532303,6.82 C2.44221607,7.13789993 2.84563538,7.337 3.31908598,7.337 C4.92649304,7.337 5.12147437,5.96640561 5.13335134,4.76384785 L5.13397994,1.925 C5.13397994,1.034 4.96629952,1.001 4.22653296,0.924 C4.16735164,0.858 4.16735164,0.627 4.22653296,0.561 C4.62354102,0.570625 5.03942853,0.58025 5.27926509,0.582505859 L5.4986575,0.582134259 C5.73291696,0.579333333 6.06444189,0.570166667 6.37678777,0.561 Z M17.1576525,3.10862447e-15 C17.2464245,3.10862447e-15 17.2858787,0.033 17.2858787,0.11 C17.2858787,0.11 17.2464245,0.55 17.2464245,1.265 L17.2385336,3.74 C17.2385336,3.894 17.3016604,3.78179987 17.3351964,3.74 C17.9368733,2.992 18.5277001,2.849 19.0120007,2.849 C19.3572251,2.849 19.6649681,2.981 19.8306757,3.223 C20.0604963,3.5585 20.0969916,4.092 20.0969916,4.697 L20.0969916,6.336 C20.0969916,7.238 20.2054907,7.282 20.7578497,7.337 C20.8071675,7.403 20.8071675,7.634 20.7578497,7.7 C20.4323525,7.689 20.1068552,7.678 19.712313,7.678 C19.3177708,7.678 18.98241,7.689 18.7062305,7.7 C18.6569127,7.634 18.6569127,7.403 18.7062305,7.337 C19.2191353,7.282 19.3177708,7.238 19.3177708,6.336 L19.3177708,4.664 C19.3177708,4.334 19.2980437,4.03479987 19.1994082,3.817 C19.0849909,3.56510007 18.8778563,3.421 18.6766398,3.421 C18.2880158,3.421 17.7889199,3.65970013 17.4141049,4.07 C17.3351964,4.16570013 17.2464245,4.301 17.2464245,4.53310007 L17.2464245,6.336 C17.2464245,7.249 17.3351964,7.293 17.836265,7.337 C17.8954464,7.403 17.8954464,7.634 17.836265,7.7 C17.5600855,7.689 17.2365609,7.678 16.8617458,7.678 C16.4672037,7.678 16.1042249,7.689 15.7787276,7.7 C15.7313825,7.6472 15.7219135,7.4888 15.7503205,7.39376 L15.772,7.348 L15.6277056,7.46533333 C15.3339909,7.68044444 15.0139734,7.788 14.711491,7.788 C14.2577675,7.788 13.9519974,7.48 13.9519974,6.699 L13.9519974,3.388 L13.3700477,3.388 C13.3305935,3.388 13.3207299,3.377 13.3207299,3.322 L13.3207299,3.179 C13.3207299,3.091 13.3601841,2.959 13.4982739,2.959 L13.9519974,2.95789993 L13.9510828,2.61389134 C13.9472691,1.95408363 13.932519,1.82579424 13.925789,1.75089807 L13.9233213,1.71838083 C13.9227346,1.70764482 13.9224067,1.69643155 13.9224067,1.683 C13.9224067,1.60709973 14.0210422,1.56970013 14.1394049,1.53229987 C14.2626993,1.49379987 14.3633075,1.4465 14.4747657,1.37720013 C14.5664968,1.32109973 14.650337,1.27820013 14.694723,1.27820013 C14.7410817,1.27820013 14.7706724,1.30459973 14.7706724,1.375 C14.7706724,1.375 14.7370546,1.74991124 14.7318826,2.36995676 L14.7312181,2.959 L15.9148446,2.959 C15.9641624,2.959 15.9937531,2.981 15.9937531,3.025 L15.9937531,3.245 C15.9937531,3.344 15.8556633,3.388 15.7570278,3.388 L14.7312181,3.388 L14.7312181,6.171 C14.7312181,6.853 14.7903995,7.183 15.0567154,7.183 C15.3131678,7.183 15.6090745,7.095 15.8655269,6.875 C15.9641624,6.886 16.0233437,6.94869997 16.0430709,7.062 C15.9615842,7.16452598 15.8752289,7.25619289 15.7854114,7.33700074 C16.3517998,7.29261078 16.4672037,7.24512432 16.4672037,6.336 L16.4672037,1.529 C16.4672037,0.605 16.348841,0.66 15.8359362,0.627 C15.7767549,0.561 15.7570278,0.385 15.7767549,0.297 C16.1712971,0.264 16.9110636,0.11 17.1576525,3.10862447e-15 Z M22.809469,2.849 C24.3185928,2.849 24.8808154,4.18 24.8808154,5.324 C24.8808154,5.99830003 24.6805854,6.69019997 24.238698,7.172 C23.9023507,7.53830003 23.4249547,7.788 22.7897419,7.788 C21.3891172,7.788 20.7183955,6.545 20.7183955,5.423 C20.7183955,4.72779987 20.9058031,4.08760007 21.2638501,3.619 C21.6248561,3.146 22.1604471,2.849 22.809469,2.849 Z M7.35327963,2.816 C7.43218807,2.816 7.45092876,2.85339993 7.47164228,2.904 C7.51800096,3.01729987 7.53772806,3.41329987 7.55055072,3.74 C7.55548249,3.872 7.62354096,3.79610007 7.66891337,3.74 C8.08022354,3.22739993 8.59608746,2.849 9.1681736,2.849 C9.68107842,2.849 10.0608253,3.20539993 10.154529,3.65639993 C10.1742561,3.751 10.2334374,3.696 10.2630281,3.66079987 C10.7769193,3.05579987 11.3855005,2.849 11.8905145,2.849 C12.7585073,2.849 12.9064606,3.619 12.9064606,4.598 L12.9064606,6.336 C12.9064606,7.238 12.9952326,7.293 13.5377281,7.337 C13.5870459,7.403 13.5870459,7.634 13.5377281,7.7 C13.2615486,7.689 12.9163242,7.678 12.521782,7.678 C12.1272398,7.678 11.7622883,7.689 11.5156995,7.7 C11.4663817,7.634 11.4663817,7.403 11.5156995,7.337 C12.0286043,7.293 12.1272398,7.238 12.1272398,6.336 L12.1272398,4.4 C12.1272398,3.663 11.9102417,3.421 11.5354266,3.421 C11.150748,3.421 10.706888,3.564 10.2334374,4.147 C10.243301,4.279 10.243301,4.433 10.243301,4.587 L10.243301,6.336 C10.243301,7.238 10.332073,7.293 10.8252507,7.337 C10.8745685,7.403 10.8745685,7.634 10.8252507,7.7 C10.5786618,7.689 10.2531646,7.678 9.85862239,7.678 C9.46408022,7.678 9.09912872,7.689 8.85253987,7.7 C8.80322209,7.634 8.80322209,7.403 8.85253987,7.337 C9.38517179,7.293 9.46408022,7.238 9.46408022,6.336 L9.46408022,4.422 C9.46408022,3.685 9.18790071,3.421 8.81308565,3.421 C8.50830188,3.421 8.1384186,3.64429987 7.7478218,4.07 C7.66891337,4.16570013 7.58014138,4.301 7.58014138,4.532 L7.58014138,6.336 C7.58014138,7.238 7.68864047,7.282 8.18970906,7.337 C8.24889038,7.403 8.24889038,7.634 8.18970906,7.7 C7.89380243,7.689 7.59000493,7.678 7.19546277,7.678 C6.8009206,7.678 6.42610554,7.689 6.13019892,7.7 C6.07101759,7.634 6.07101759,7.403 6.13019892,7.337 C6.67269439,7.293 6.8009206,7.238 6.8009206,6.336 L6.8009206,4.191 C6.8009206,3.553 6.6924215,3.498 6.15978958,3.443 C6.14006247,3.377 6.12033536,3.201 6.14006247,3.135 C6.82064771,3.036 7.07710012,2.937 7.35327963,2.816 Z M22.6615157,3.234 C21.7737958,3.234 21.5666612,4.213 21.5666612,5.17 C21.5666612,6.017 21.902022,7.403 22.9278317,7.403 C23.3914187,7.403 24.0325497,7.062 24.0325497,5.676 C24.0325497,4.092 23.5097814,3.234 22.6615157,3.234 Z M33.3536084,3.10862447e-15 C33.4423804,3.10862447e-15 33.4818346,0.033 33.4818346,0.11 C33.4818346,0.11 33.4423804,0.55 33.4423804,1.265 L33.4423804,3.289 C33.4423804,3.388 33.4788755,3.40670013 33.5410159,3.344 C33.8467861,3.036 34.2225876,2.849 34.645734,2.849 C35.5038632,2.849 36.3915831,3.674 36.3915831,5.016 C36.3915831,6.765 35.2178202,7.788 34.2117376,7.788 C33.8635541,7.788 33.5696202,7.7275 33.3437449,7.51519997 C33.2352458,7.414 33.1760644,7.414 33.0744698,7.546 C32.9985205,7.64389993 32.9008713,7.74619997 32.8407036,7.81 C32.722341,7.81 32.6730232,7.766 32.6237054,7.678 C32.6532961,7.524 32.6631596,7.326 32.6631596,6.897 L32.6631596,1.529 C32.6631596,0.605 32.544797,0.66 32.0318922,0.627 C31.9727108,0.561 31.9529837,0.385 31.9727108,0.297 C32.367253,0.264 33.1070196,0.11 33.3536084,3.10862447e-15 Z M26.172941,2.816 C26.2518494,2.816 26.2705901,2.85339993 26.2913036,2.904 C26.3376623,3.01729987 26.3573894,3.41329987 26.3702121,3.74 C26.3751438,3.872 26.4432023,3.79610007 26.4885747,3.74 C26.8998849,3.22739993 27.4157488,2.849 27.9878349,2.849 C28.5007398,2.849 28.8804866,3.20539993 28.9741904,3.65639993 C28.9939175,3.751 29.0530988,3.696 29.0826895,3.66079987 C29.5965807,3.05579987 30.2051618,2.849 30.7101759,2.849 C31.5781687,2.849 31.726122,3.619 31.726122,4.598 L31.726122,6.336 C31.726122,7.238 31.814894,7.293 32.3573894,7.337 C32.4067072,7.403 32.4067072,7.634 32.3573894,7.7 C32.0812099,7.689 31.7359855,7.678 31.3414434,7.678 C30.9469012,7.678 30.5819497,7.689 30.3353608,7.7 C30.2860431,7.634 30.2860431,7.403 30.3353608,7.337 C30.8482657,7.293 30.9469012,7.238 30.9469012,6.336 L30.9469012,4.4 C30.9469012,3.663 30.729903,3.421 30.355088,3.421 C29.9704093,3.421 29.5265494,3.564 29.0530988,4.147 C29.0629624,4.279 29.0629624,4.433 29.0629624,4.587 L29.0629624,6.336 C29.0629624,7.238 29.1517343,7.293 29.644912,7.337 C29.6942298,7.403 29.6942298,7.634 29.644912,7.7 C29.3983232,7.689 29.0728259,7.678 28.6782837,7.678 C28.2837416,7.678 27.9187901,7.689 27.6722012,7.7 C27.6228834,7.634 27.6228834,7.403 27.6722012,7.337 C28.2048331,7.293 28.2837416,7.238 28.2837416,6.336 L28.2837416,4.422 C28.2837416,3.685 28.0075621,3.421 27.632747,3.421 C27.3279632,3.421 26.95808,3.64429987 26.5674831,4.07 C26.4885747,4.16570013 26.3998027,4.301 26.3998027,4.532 L26.3998027,6.336 C26.3998027,7.238 26.5083018,7.282 27.0093704,7.337 C27.0685517,7.403 27.0685517,7.634 27.0093704,7.7 C26.7134638,7.689 26.4096663,7.678 26.0151241,7.678 C25.6205819,7.678 25.2457669,7.689 24.9498603,7.7 C24.8906789,7.634 24.8906789,7.403 24.9498603,7.337 C25.4923557,7.293 25.6205819,7.238 25.6205819,6.336 L25.6205819,4.191 C25.6205819,3.553 25.5120829,3.498 24.9794509,3.443 C24.9597238,3.377 24.9399967,3.201 24.9597238,3.135 C25.6403091,3.036 25.8967615,2.937 26.172941,2.816 Z M34.4484629,3.333 C34.1624199,3.333 33.8665132,3.432 33.6100608,3.685 C33.482821,3.81039993 33.4423804,3.916 33.4423804,4.147 L33.4423804,6.897 C33.6396515,7.172 33.8467861,7.414 34.1525563,7.414 C35.089594,7.414 35.5433174,6.468 35.5433174,5.214 C35.5433174,4.147 35.0501397,3.333 34.4484629,3.333 Z M36.6677626,5.423 C36.6677626,6.545 37.3384843,7.788 38.739109,7.788 C39.3743218,7.788 39.8517178,7.53830003 40.188065,7.172 C40.6299524,6.69019997 40.8301825,5.99830003 40.8301825,5.324 C40.8301825,4.18 40.2679599,2.849 38.7588361,2.849 C38.1098142,2.849 37.5742232,3.146 37.2132172,3.619 C36.8551701,4.08760007 36.6677626,4.72779987 36.6677626,5.423 Z M38.6108828,3.234 C39.4591484,3.234 39.9819168,4.092 39.9819168,5.676 C39.9819168,7.062 39.3407858,7.403 38.8771988,7.403 C37.8513891,7.403 37.5160283,6.017 37.5160283,5.17 C37.5160283,4.213 37.7231629,3.234 38.6108828,3.234 Z M49.7665626,2.937 C49.8257439,3.003 49.8257439,3.234 49.7665626,3.3 C49.2635213,3.333 49.0958409,3.64210007 48.9340783,4.092 L47.6458984,7.579 C47.5867171,7.744 47.5078086,7.81 47.4190367,7.81 C47.3204011,7.81 47.2414927,7.744 47.1823114,7.59 L46.1663653,4.862 L45.1701463,7.568 C45.1011014,7.744 45.022193,7.81 44.933421,7.81 C44.8347855,7.81 44.755877,7.744 44.6966957,7.59 L43.4055565,4.037 C43.1974355,3.465 43.0899228,3.35279987 42.6253493,3.3 C42.566168,3.234 42.566168,3.003 42.6253493,2.937 C42.8837744,2.948 43.1481177,2.959 43.5229328,2.959 C43.8780207,2.959 44.2232451,2.948 44.5191517,2.937 C44.5783331,3.003 44.5783331,3.234 44.5191517,3.3 C44.0457011,3.333 44.0358376,3.509 44.2222587,4.037 L45.011343,6.303 C45.1385828,6.6605 45.1602828,6.644 45.288509,6.281 L45.9789578,4.334 L45.9158311,4.158 C45.7392735,3.66520013 45.6238698,3.3495 45.1602828,3.3 C45.1011014,3.234 45.1011014,3.003 45.1602828,2.937 C45.4561894,2.948 45.7816867,2.959 46.0282755,2.959 C46.3241821,2.959 46.7187243,2.948 47.0146309,2.937 C47.0738123,3.003 47.0738123,3.234 47.0146309,3.3 C46.4918626,3.344 46.4721355,3.454 46.6546112,3.971 L47.5058358,6.38 C47.5867171,6.60880003 47.6261713,6.611 47.7248068,6.336 L48.5493997,4.048 C48.6884762,3.66189993 48.7900707,3.344 48.0503041,3.3 C47.9911228,3.234 47.9911228,3.003 48.0503041,2.937 C48.3462108,2.948 48.76048,2.959 49.0563867,2.959 C49.3522933,2.959 49.5692915,2.948 49.7665626,2.937 Z M51.5518659,2.871 C52.9228999,2.871 53.2188065,3.861 53.2188065,4.785 C53.2188065,4.906 53.1497616,4.972 53.031399,4.972 L50.4076936,4.95 C50.4076936,5.588 50.5260562,6.094 50.7233273,6.457 C51.0290975,7.018 51.4433668,7.249 51.7984547,7.249 C52.3705409,7.249 52.6565839,7.073 53.0215354,6.655 C53.1398981,6.666 53.1990794,6.721 53.2286701,6.831 C52.8341279,7.403 52.301496,7.788 51.5518659,7.788 C50.84169,7.788 50.3781029,7.524 50.0427421,7.084 C49.7172448,6.666 49.579155,6.072 49.579155,5.456 C49.579155,3.784 50.6937366,2.871 51.5518659,2.871 Z M51.5518659,3.234 C51.3151406,3.234 50.6246918,3.333 50.4372842,4.576 L52.2225875,4.543 C52.3310866,4.54079987 52.3705409,4.488 52.3705409,4.389 C52.3705409,3.465 51.9266809,3.234 51.5518659,3.234 Z M75.1750781,3.10862447e-15 C75.2638501,3.10862447e-15 75.3033043,0.033 75.3033043,0.11 C75.3033043,0.11 75.2638501,0.55 75.2638501,1.265 L75.2638501,6.336 C75.2638501,7.249 75.3723492,7.304 75.974026,7.337 C76.0332073,7.403 76.0332073,7.634 75.974026,7.7 C75.6485287,7.689 75.2737136,7.678 74.8791715,7.678 C74.4846293,7.678 74.1196778,7.689 73.7744534,7.7 C73.7152721,7.634 73.7152721,7.403 73.7744534,7.337 L73.7487271,7.38440102 C73.2878565,7.47076209 73.0050011,7.61708671 72.8176886,7.788 C72.7535755,7.8155 72.7091895,7.821 72.6302811,7.788 C72.6302811,7.788 72.5464409,7.4195 72.521782,7.139 C72.5148774,7.062 72.4231465,7.084 72.3738287,7.128 C71.8905145,7.568 71.4269275,7.788 71.0422489,7.788 C70.065757,7.788 69.7698504,7.051 69.7698504,6.292 L69.7698504,4.18 C69.7698504,3.465 69.6317606,3.344 69.15831,3.3 C69.0991287,3.234 69.0991287,3.003 69.15831,2.937 C69.4936709,2.948 69.8487588,2.959 70.1643926,2.959 C70.3123459,2.959 70.4602992,2.948 70.509617,2.937 C70.5589347,2.937 70.5885254,2.97 70.5885254,3.003 C70.5885254,3.003 70.5549076,3.68721302 70.5497356,4.0520305 L70.5490712,6.138 C70.5490712,7.117 71.0422489,7.271 71.3381555,7.271 C71.5847444,7.271 71.9595594,7.095 72.3245109,6.743 C72.4626007,6.611 72.4823278,6.523 72.4823278,6.314 L72.4823278,4.191 C72.4823278,3.465 72.3541016,3.333 71.8707874,3.3 C71.8116061,3.234 71.8116061,3.003 71.8707874,2.937 C72.2061483,2.948 72.5612362,2.959 72.87687,2.959 C73.0248233,2.959 73.1727766,2.948 73.2220944,2.937 C73.2714121,2.937 73.3010028,2.97 73.3010028,3.003 C73.3010028,3.003 73.2615486,3.806 73.2615486,4.136 L73.2615486,6.248 C73.2615486,6.787 73.3503206,6.996 73.981588,7.051 C74.0289331,7.1038 74.0384021,7.21996 74.0099951,7.298104 L73.997,7.32 C74.4043119,7.27191711 74.4846293,7.12152941 74.4846293,6.336 L74.4846293,1.529 C74.4846293,0.704 74.425448,0.671 73.8533618,0.627 C73.7941805,0.561 73.7744534,0.385 73.7941805,0.297 C74.1887227,0.264 74.9284892,0.11 75.1750781,3.10862447e-15 Z M58.202,7.691 C58.1730955,7.69863685 58.1355172,7.69727371 58.0970676,7.69593149 L57.9730396,7.7 C57.7280987,7.68405826 57.4570282,7.678 57.1642282,7.678 C56.769686,7.678 56.4540523,7.689 56.1581457,7.7 C56.1088279,7.634 56.1088279,7.403 56.1581457,7.337 C56.6710505,7.282 56.769686,7.238 56.769686,6.336 L56.769686,4.664 C56.769686,4.334 56.7499589,4.037 56.6513234,3.817 C56.5329607,3.564 56.3258261,3.421 56.128555,3.421 C55.7438764,3.421 55.3000164,3.663 54.9252014,4.07 C54.8462929,4.169 54.757521,4.301 54.757521,4.532 L54.757521,6.336 C54.757521,7.238 54.8561565,7.282 55.3591978,7.337 C55.4183791,7.403 55.4183791,7.634 55.3591978,7.7 C55.0632911,7.689 54.7673845,7.678 54.3728423,7.678 C53.9783002,7.678 53.583758,7.689 53.2878514,7.7 C53.2286701,7.634 53.2286701,7.403 53.2878514,7.337 C53.8796646,7.282 53.9783002,7.238 53.9783002,6.336 L53.9783002,4.191 C53.9783002,3.553 53.8698011,3.498 53.3371692,3.443 C53.3174421,3.377 53.2977149,3.201 53.3174421,3.135 C53.9980273,3.036 54.2544797,2.937 54.5306592,2.816 C54.6095676,2.816 54.6283083,2.85339993 54.6490219,2.904 C54.6953805,3.01729987 54.7180667,3.443 54.7279303,3.74 C54.7308894,3.84339993 54.7861252,3.817 54.8462929,3.74 C55.4312017,2.992 55.9806017,2.849 56.4639158,2.849 C56.8091402,2.849 57.1149104,2.981 57.2825908,3.223 C57.5094526,3.564 57.5489068,4.092 57.5489068,4.697 L57.5489068,6.336 C57.5489068,7.17609804 57.6430249,7.27191984 58.1022069,7.32555102 C58.5429462,7.27937578 58.6338977,7.17191626 58.6338977,6.336 L58.6338977,1.52900017 C58.6338977,0.605000168 58.5155351,0.660000168 58.0026303,0.627000168 C57.943449,0.561000168 57.9237218,0.385000168 57.943449,0.297000168 C58.3379911,0.264000168 59.0777577,0.110000168 59.3243465,1.67846341e-07 C59.4131185,1.67846341e-07 59.4525727,0.0330001678 59.4525727,0.110000168 C59.4525727,0.110000168 59.4189549,0.48491141 59.413783,1.10495693 L59.4131185,5.10180003 C59.5995396,5.07319997 59.8648693,4.94339993 60.0838402,4.763 C60.3373337,4.554 60.6460628,4.18 60.8729245,3.861 C60.9646555,3.73229987 61.1984218,3.344 60.6460628,3.3 C60.5868815,3.234 60.5868815,3.003 60.6460628,2.937 C60.8729245,2.948 61.237876,2.959 61.6126911,2.959 C61.9677791,2.959 62.2439586,2.948 62.4708203,2.937 L62.4836894,2.96294197 C62.4886075,2.95272299 62.4941814,2.94394737 62.500411,2.937 C62.8357718,2.948 63.1908598,2.959 63.5064935,2.959 C63.6544468,2.959 63.8024001,2.948 63.8517179,2.937 C63.9010357,2.937 63.9306263,2.97 63.9306263,3.003 C63.9306263,3.003 63.8970085,3.68721302 63.8918366,4.0520305 L63.8911721,6.138 C63.8911721,7.117 64.3843498,7.271 64.6802565,7.271 C64.9268453,7.271 65.3016604,7.095 65.6666119,6.743 C65.8047016,6.611 65.8244287,6.523 65.8244287,6.314 L65.8244287,4.191 C65.8244287,3.465 65.6962025,3.333 65.2128884,3.3 C65.1537071,3.234 65.1537071,3.003 65.2128884,2.937 C65.5482492,2.948 65.9033372,2.959 66.2189709,2.959 C66.3669242,2.959 66.5148775,2.948 66.5641953,2.937 C66.6135131,2.937 66.6431037,2.97 66.6431037,3.003 C66.6431037,3.003 66.6036495,3.806 66.6036495,4.136 L66.6036495,6.248 C66.6036495,6.787 66.6924215,6.996 67.323689,7.051 C67.371034,7.1038 67.380503,7.21996 67.352096,7.298104 L67.34,7.32 C67.7464629,7.27182339 67.8267302,7.12128479 67.8267302,6.336 L67.8260235,1.39146977 C67.817993,0.700079585 67.7338968,0.668411765 67.1954628,0.627 C67.1362814,0.561 67.1165543,0.385 67.1362814,0.297 C67.5308236,0.264 68.2705902,0.11 68.517179,3.10862447e-15 C68.605951,3.10862447e-15 68.6454052,0.033 68.6454052,0.11 C68.6454052,0.11 68.605951,0.55 68.605951,1.265 L68.605951,6.336 C68.605951,7.249 68.7144501,7.304 69.3161269,7.337 C69.3753082,7.403 69.3753082,7.634 69.3161269,7.7 C68.9906296,7.689 68.6158146,7.678 68.2212724,7.678 C67.8267302,7.678 67.4617787,7.689 67.1165543,7.7 C67.057373,7.634 67.057373,7.403 67.1165543,7.337 L67.090828,7.38440102 C66.6299574,7.47076209 66.3471021,7.61708671 66.1597896,7.788 C66.0956765,7.8155 66.0512905,7.821 65.972382,7.788 C65.972382,7.788 65.8885418,7.4195 65.863883,7.139 C65.8569783,7.062 65.7652474,7.084 65.7159296,7.128 C65.2326155,7.568 64.7690284,7.788 64.3843498,7.788 C63.407858,7.788 63.1119513,7.051 63.1119513,6.292 L63.1119513,4.18 C63.1119513,3.465 62.9738616,3.344 62.500411,3.3 L62.4875419,3.27405803 C62.4826238,3.28427701 62.4770499,3.29305263 62.4708203,3.3 C62.0762782,3.344 61.7310538,3.432 61.4351471,3.784 L60.5671544,4.785 C60.5277001,4.829 60.5277001,4.851 60.5277001,4.895 C60.5277001,4.95 60.5612362,4.9995 60.596745,5.049 L61.8987342,6.875 C62.1620912,7.24460007 62.411639,7.293 62.7469998,7.337 C62.8061812,7.403 62.8061812,7.634 62.7469998,7.7 C62.5497288,7.689 62.2439586,7.678 61.9381884,7.678 C61.7409173,7.678 61.5239191,7.689 61.326648,7.7 C61.2970574,7.7 61.2901528,7.678 61.2871938,7.645 C61.2743713,7.51630003 61.162913,7.3095 60.8729245,6.875 L60.1528851,5.797 C60.0355089,5.621 59.9457505,5.522 59.8372514,5.4395 C59.7415749,5.40210007 59.6024987,5.38560007 59.4131185,5.38010007 L59.4131185,6.336 C59.4131185,7.249 59.5216176,7.293 59.9260233,7.337 C59.9852047,7.403 59.9852047,7.634 59.9260233,7.7 C59.6991616,7.689 59.3736643,7.678 59.0284399,7.678 C58.7325333,7.678 58.4699162,7.6841875 58.2197826,7.69192188 L58.202,7.691 Z M86.3307578,2.849 C87.8398816,2.849 88.4021042,4.18 88.4021042,5.324 C88.4021042,5.99830003 88.2018742,6.69019997 87.7599868,7.172 C87.4236395,7.53830003 86.9462436,7.788 86.3110307,7.788 C84.910406,7.788 84.2396844,6.545 84.2396844,5.423 C84.2396844,4.72779987 84.4270919,4.08760007 84.7851389,3.619 C85.1461449,3.146 85.681736,2.849 86.3307578,2.849 Z M77.897419,2.871 C79.2684531,2.871 79.5643597,3.861 79.5643597,4.785 C79.5643597,4.906 79.4953148,4.972 79.3769522,4.972 L76.7532468,4.95 C76.7532468,5.588 76.8716094,6.094 77.0688805,6.457 C77.3746507,7.018 77.7889199,7.249 78.1440079,7.249 C78.716094,7.249 79.0021371,7.073 79.3670886,6.655 C79.4854513,6.666 79.5446326,6.721 79.5742232,6.831 C79.1796811,7.403 78.6470492,7.788 77.897419,7.788 C77.1872431,7.788 76.7236561,7.524 76.3882952,7.084 C76.062798,6.666 75.9247082,6.072 75.9247082,5.456 C75.9247082,3.784 77.0392898,2.871 77.897419,2.871 Z M80.9156666,1.67846341e-07 C81.0044386,1.67846341e-07 81.0438928,0.0330001678 81.0438928,0.110000168 C81.0438928,0.110000168 81.0044386,0.550000168 81.0044386,1.26500017 L81.0044386,5.10180003 C81.1908597,5.07319997 81.4561894,4.94339993 81.6751603,4.763 C81.9286537,4.554 82.2373829,4.18 82.4642446,3.861 C82.5559755,3.73229987 82.7897419,3.344 82.2373829,3.3 C82.1782015,3.234 82.1782015,3.003 82.2373829,2.937 C82.4642446,2.948 82.8291961,2.959 83.2040112,2.959 C83.5590991,2.959 83.8352786,2.948 84.0621404,2.937 C84.1213217,3.003 84.1213217,3.234 84.0621404,3.3 C83.6675982,3.344 83.3223738,3.432 83.0264672,3.784 L82.1584744,4.785 C82.1190202,4.829 82.1190202,4.851 82.1190202,4.895 C82.1190202,4.95 82.1525562,4.9995 82.1880651,5.049 L83.4900542,6.875 C83.7534113,7.24460007 84.0029591,7.293 84.3383199,7.337 C84.3975012,7.403 84.3975012,7.634 84.3383199,7.7 C84.1410488,7.689 83.8352786,7.678 83.5295085,7.678 C83.3322374,7.678 83.1152392,7.689 82.9179681,7.7 C82.8883774,7.7 82.8814728,7.678 82.8785139,7.645 C82.8656914,7.51630003 82.754233,7.3095 82.4642446,6.875 L81.7442052,5.797 C81.6268289,5.621 81.5370705,5.522 81.4285714,5.4395 C81.332895,5.40210007 81.1938188,5.38560007 81.0044386,5.38010007 L81.0044386,6.336 C81.0044386,7.249 81.1129377,7.293 81.5173434,7.337 C81.5765247,7.403 81.5765247,7.634 81.5173434,7.7 C81.2904817,7.689 80.9649844,7.678 80.61976,7.678 C80.2252178,7.678 79.889857,7.689 79.5643597,7.7 C79.5051784,7.634 79.5051784,7.403 79.5643597,7.337 C80.1167187,7.293 80.2252178,7.249 80.2252178,6.336 L80.2252178,1.52900017 C80.2252178,0.605000168 80.1068552,0.660000168 79.5939504,0.627000168 C79.534769,0.561000168 79.5150419,0.385000168 79.534769,0.297000168 C79.9293112,0.264000168 80.6690778,0.110000168 80.9156666,1.67846341e-07 Z M86.1828045,3.234 C85.2950847,3.234 85.08795,4.213 85.08795,5.17 C85.08795,6.017 85.4233109,7.403 86.4491205,7.403 C86.9127075,7.403 87.5538386,7.062 87.5538386,5.676 C87.5538386,4.092 87.0310702,3.234 86.1828045,3.234 Z M77.897419,3.234 C77.6606937,3.234 76.9702449,3.333 76.7828374,4.576 L78.5681407,4.543 C78.6766398,4.54079987 78.716094,4.488 78.716094,4.389 C78.716094,3.465 78.2722341,3.234 77.897419,3.234 Z M97.3384843,2.937 C97.3976656,3.003 97.3976656,3.234 97.3384843,3.3 C96.835443,3.333 96.6677626,3.64210007 96.5060001,4.092 L95.2178202,7.579 C95.1586388,7.744 95.0797304,7.81 94.9909584,7.81 C94.8923229,7.81 94.8134144,7.744 94.7542331,7.59 L93.738287,4.862 L92.7420681,7.568 C92.6730232,7.744 92.5941147,7.81 92.5053428,7.81 C92.4067072,7.81 92.3277988,7.744 92.2686175,7.59 L90.9774783,4.037 C90.7693572,3.465 90.6618445,3.35279987 90.1972711,3.3 C90.1380898,3.234 90.1380898,3.003 90.1972711,2.937 C90.4556962,2.948 90.7200395,2.959 91.0948545,2.959 C91.4499425,2.959 91.7951669,2.948 92.0910735,2.937 C92.1502548,3.003 92.1502548,3.234 92.0910735,3.3 C91.6176229,3.333 91.6077593,3.509 91.7941804,4.037 L92.5832648,6.303 C92.7105046,6.6605 92.7322045,6.644 92.8604307,6.281 L93.5508795,4.334 L93.4877528,4.158 C93.3111953,3.66520013 93.1957916,3.3495 92.7322045,3.3 C92.6730232,3.234 92.6730232,3.003 92.7322045,2.937 C93.0281111,2.948 93.3536084,2.959 93.6001973,2.959 C93.8961039,2.959 94.2906461,2.948 94.5865527,2.937 C94.645734,3.003 94.645734,3.234 94.5865527,3.3 C94.0637843,3.344 94.0440572,3.454 94.226533,3.971 L95.0777576,6.38 C95.1586388,6.60880003 95.198093,6.611 95.2967286,6.336 L96.1213215,4.048 C96.260398,3.66189993 96.3619924,3.344 95.6222259,3.3 C95.5630446,3.234 95.5630446,3.003 95.6222259,2.937 C95.9181325,2.948 96.3324018,2.959 96.6283084,2.959 C96.924215,2.959 97.1412132,2.948 97.3384843,2.937 Z M110.427421,2.937 C110.486602,3.003 110.486602,3.234 110.427421,3.3 C109.924379,3.333 109.756699,3.64210007 109.594936,4.092 L108.306757,7.579 C108.247575,7.744 108.168667,7.81 108.079895,7.81 C107.981259,7.81 107.902351,7.744 107.843169,7.59 L106.827223,4.862 L105.831004,7.568 C105.76196,7.744 105.683051,7.81 105.594279,7.81 C105.495644,7.81 105.416735,7.744 105.357554,7.59 L104.066415,4.037 C103.858294,3.465 103.750781,3.35279987 103.286207,3.3 C103.227026,3.234 103.227026,3.003 103.286207,2.937 C103.544633,2.948 103.808976,2.959 104.183791,2.959 C104.538879,2.959 104.884103,2.948 105.18001,2.937 C105.239191,3.003 105.239191,3.234 105.18001,3.3 C104.706559,3.333 104.696696,3.509 104.883117,4.037 L105.672201,6.303 C105.799441,6.6605 105.821141,6.644 105.949367,6.281 L106.639816,4.334 L106.576689,4.158 C106.400132,3.66520013 106.284728,3.3495 105.821141,3.3 C105.76196,3.234 105.76196,3.003 105.821141,2.937 C106.117048,2.948 106.442545,2.959 106.689134,2.959 C106.98504,2.959 107.379582,2.948 107.675489,2.937 C107.73467,3.003 107.73467,3.234 107.675489,3.3 C107.152721,3.344 107.132994,3.454 107.315469,3.971 L108.166694,6.38 C108.247575,6.60880003 108.287029,6.611 108.385665,6.336 L109.210258,4.048 C109.349334,3.66189993 109.450929,3.344 108.711162,3.3 C108.651981,3.234 108.651981,3.003 108.711162,2.937 C109.007069,2.948 109.421338,2.959 109.717245,2.959 C110.013151,2.959 110.23015,2.948 110.427421,2.937 Z M114.570113,2.849 C114.713135,2.90839993 114.835443,2.959 115.152063,2.959 L117.063474,2.95805469 C117.308637,2.95384375 117.525481,2.937 117.568634,2.937 C117.637679,2.937 117.686997,2.97 117.686997,3.014 C117.686997,3.058 117.660365,3.14379987 117.509453,3.421 C116.897912,4.543 115.872103,6.27 115.1422,7.304 L116.454052,7.304 C116.967944,7.29080003 117.16916,7.04880003 117.420681,6.468 L117.55877,6.149 C117.677133,6.149 117.790564,6.17430003 117.854677,6.215 C117.785632,6.765 117.657406,7.337 117.539043,7.711 L114.461614,7.678 C114.313661,7.678 114.234753,7.623 114.234753,7.546 C114.036813,7.69115984 113.776706,7.788 113.50485,7.788 C113.007727,7.788 112.903173,7.491 112.843991,7.15 L112.824264,7.15 L112.626993,7.326 C112.192997,7.7 111.895118,7.788 111.551866,7.788 C110.861417,7.788 110.309058,7.502 110.309058,6.6 C110.309058,5.852 110.989643,5.269 111.936544,5.005 L112.78481,4.774 C112.814401,4.763 112.843991,4.719 112.843991,4.642 C112.843991,3.399 112.380404,3.212 112.045044,3.212 C111.670229,3.212 111.255959,3.333 111.255959,3.674 C111.255959,3.795 111.265823,3.861 111.275686,3.894 C111.295413,3.938 111.305277,4.015 111.305277,4.092 C111.305277,4.235 111.127733,4.466 110.84169,4.466 C110.614828,4.466 110.496466,4.334 110.496466,4.07 C110.496466,3.443 111.315141,2.849 112.123952,2.849 C112.843991,2.849 113.613349,3.146 113.613349,4.708 L113.613708,6.44969213 C113.616911,6.89952083 113.647049,7.26 113.909255,7.26 C114.034523,7.26 114.20023,7.15220013 114.274207,7.084 C114.333011,7.12056174 114.371772,7.16355332 114.397734,7.21588237 C115.152864,6.0745081 116.099731,4.54868333 116.749959,3.333 L115.487424,3.366 C115.191517,3.37370013 114.885747,3.564 114.688476,4.367 C114.574059,4.39560007 114.449778,4.37470013 114.362979,4.334 C114.451751,3.795 114.501069,3.41 114.510932,2.915 C114.510932,2.88860007 114.546441,2.849 114.570113,2.849 Z M99.2816045,2.849 C100.790728,2.849 101.352951,4.18 101.352951,5.324 C101.352951,5.99830003 101.152721,6.69019997 100.710833,7.172 C100.374486,7.53830003 99.8970902,7.788 99.2618774,7.788 C97.8612527,7.788 97.190531,6.545 97.190531,5.423 C97.190531,4.72779987 97.3779385,4.08760007 97.7359856,3.619 C98.0969916,3.146 98.6325826,2.849 99.2816045,2.849 Z M102.79303,3.10862447e-15 C102.881802,3.10862447e-15 102.921256,0.033 102.921256,0.11 C102.921256,0.11 102.881802,0.55 102.881802,1.265 L102.881802,6.336 C102.881802,7.249 102.990301,7.304 103.591978,7.337 C103.651159,7.403 103.651159,7.634 103.591978,7.7 C103.26648,7.689 102.891665,7.678 102.497123,7.678 C102.102581,7.678 101.737629,7.689 101.392405,7.7 C101.333224,7.634 101.333224,7.403 101.392405,7.337 C101.994082,7.304 102.102581,7.249 102.102581,6.336 L102.102581,1.529 C102.102581,0.704 102.0434,0.671 101.471313,0.627 C101.412132,0.561 101.392405,0.385 101.412132,0.297 C101.806674,0.264 102.546441,0.11 102.79303,3.10862447e-15 Z M119.156666,2.816 C119.235575,2.816 119.284892,2.849 119.284892,2.893 C119.284892,2.893 119.245438,3.597 119.245438,4.14370013 L119.245438,6.336 C119.245438,7.249 119.353937,7.293 119.955614,7.337 C120.014795,7.403 120.014795,7.634 119.955614,7.7 C119.630117,7.689 119.255302,7.678 118.860759,7.678 C118.466217,7.678 118.081539,7.689 117.756041,7.7 C117.69686,7.634 117.69686,7.403 117.756041,7.337 C118.357718,7.282 118.466217,7.249 118.466217,6.336 L118.466217,4.191 C118.466217,3.564 118.36265,3.49910007 117.825086,3.443 C117.805359,3.377 117.785632,3.201 117.805359,3.135 C118.485944,3.036 118.875555,2.937 119.156666,2.816 Z M99.1336512,3.234 C98.2459313,3.234 98.0387966,4.213 98.0387966,5.17 C98.0387966,6.017 98.3741575,7.403 99.3999671,7.403 C99.8635542,7.403 100.504685,7.062 100.504685,5.676 C100.504685,4.092 99.9819168,3.234 99.1336512,3.234 Z M112.843991,5.115 L112.064771,5.346 C111.334868,5.555 111.127733,6.061 111.127733,6.556 C111.127733,6.897 111.344731,7.337 111.837909,7.337 C112.114088,7.337 112.449449,7.084 112.705902,6.853 C112.78481,6.787 112.843991,6.71 112.843991,6.567 L112.843991,5.115 Z M118.860759,0.561 C119.127075,0.561 119.33421,0.869 119.33421,1.133 C119.33421,1.36509973 119.097485,1.661 118.821305,1.661 C118.58458,1.661 118.347855,1.375 118.347855,1.089 C118.347855,0.825 118.624034,0.561 118.860759,0.561 Z" id="zu-tagline" fill="#000000" fill-rule="nonzero"></path>
    </g>
</svg>