<?xml version="1.0" encoding="UTF-8"?>
<svg width="120px" height="12px" viewBox="0 0 120 12" version="1.1" xmlns="http://www.w3.org/2000/svg" xmlns:xlink="http://www.w3.org/1999/xlink">
    <title>nso-tagline</title>
    <g id="Page-1" stroke="none" stroke-width="1" fill="none" fill-rule="evenodd">
        <path d="M118.077042,5.53729116 L118.077042,7.10415003 C118.077042,7.25846388 118.00578,7.34154585 117.910848,7.41276763 C117.602231,7.66204384 117.198651,7.93505056 116.866343,7.93505056 C116.272838,7.93505056 116.011712,7.46024881 116.011712,7.09226964 C116.011712,6.55813661 116.260978,6.01213328 117.13939,5.78653709 L118.077123,5.53726088 L118.077042,5.53729116 Z M118.077042,7.7332959 C118.148304,8.10126498 118.266957,8.42175287 118.872322,8.42175287 C119.323383,8.42175287 119.750704,8.21995784 120,7.98257211 C119.97628,7.84012856 119.928738,7.7451662 119.798215,7.66208422 C119.703233,7.7451561 119.501468,7.85199886 119.359024,7.85199886 C119.014786,7.85199886 119.002925,7.38906741 119.002925,6.8430439 L119.002925,5.09813059 C119.002925,3.41256876 118.077073,3.09209096 117.210571,3.09209096 C116.237237,3.09209096 115.251972,3.73307684 115.251972,4.40963324 C115.251972,4.69452034 115.394416,4.8369538 115.667423,4.8369538 C116.011661,4.8369538 116.225317,4.58768768 116.225317,4.43337383 C116.225317,4.35030195 116.213406,4.26719978 116.189685,4.2197186 C116.177775,4.18408752 116.165965,4.11288593 116.165965,3.98232277 C116.165965,3.61435369 116.664507,3.48378044 117.115569,3.48378044 C117.519149,3.48378044 118.077042,3.68557547 118.077042,5.02691891 C118.077042,5.11009173 118.041411,5.15749216 118.00578,5.16937255 L116.984995,5.41863867 C115.845507,5.70352577 115.026396,6.33263127 115.026396,7.13983157 C115.026396,8.11317565 115.691113,8.42175287 116.521993,8.42175287 C116.925573,8.42175287 117.293542,8.32676023 117.815815,7.92320045 L118.053211,7.73328581 L118.076931,7.73328581 L118.077042,7.7332959 Z M112.597023,6.85492429 C112.597023,7.84012856 112.46646,7.89942957 111.742392,7.93506065 C111.67113,8.0063228 111.67113,8.25554854 111.742392,8.32676023 C112.157843,8.31484956 112.597023,8.30303982 113.071845,8.30303982 C113.546647,8.30303982 113.997718,8.31495049 114.389388,8.32676023 C114.46065,8.25549808 114.46065,8.00627233 114.389388,7.93506065 C113.66532,7.89942957 113.534746,7.84007809 113.534746,6.85492429 L113.534746,1.38287938 C113.534746,0.611330332 113.582288,0.136498309 113.582288,0.136498309 C113.582288,0.0533254874 113.534746,0.0178054438 113.427974,0.0178054438 C113.131227,0.136498309 112.240945,0.302682452 111.766133,0.338293339 C111.742413,0.433275894 111.766133,0.623170347 111.837395,0.694392122 C112.525862,0.741933869 112.597074,0.777464006 112.597074,1.6677261 L112.597074,6.85492429 L112.597023,6.85492429 Z M109.522354,5.537382 L109.522354,7.10424087 C109.522354,7.25855472 109.451092,7.3416367 109.35617,7.41285847 C109.047553,7.66213469 108.643973,7.9351414 108.311665,7.9351414 C107.71816,7.9351414 107.457024,7.46033966 107.457024,7.09236048 C107.457024,6.55822745 107.70629,6.01222412 108.584702,5.78662794 L109.522435,5.53735172 L109.522354,5.537382 Z M109.522354,7.73338674 C109.593616,8.10135582 109.712269,8.42184372 110.317634,8.42184372 C110.768695,8.42184372 111.196016,8.22004869 111.445312,7.98266296 C111.421592,7.84021941 111.37405,7.74525704 111.243527,7.66217506 C111.148544,7.74524695 110.94677,7.8520897 110.804326,7.8520897 C110.460108,7.8520897 110.448227,7.38915826 110.448227,6.84313474 L110.448227,5.09822143 C110.448227,3.4126596 109.522374,3.0921818 108.655873,3.0921818 C107.682539,3.0921818 106.697274,3.73316768 106.697274,4.40972408 C106.697274,4.69461118 106.839728,4.83704464 107.112735,4.83704464 C107.456963,4.83704464 107.670628,4.58777852 107.670628,4.43346467 C107.670628,4.35039279 107.658718,4.26729062 107.634997,4.21980944 C107.623087,4.18417837 107.611277,4.11297678 107.611277,3.98241362 C107.611277,3.61444454 108.109819,3.48387128 108.56088,3.48387128 C108.96446,3.48387128 109.522354,3.68566631 109.522354,5.02700975 C109.522354,5.11018257 109.486723,5.157583 109.451092,5.16946339 L108.430307,5.41872951 C107.290819,5.70361662 106.471708,6.33272211 106.471708,7.13992242 C106.471708,8.11326649 107.136435,8.42184372 107.967305,8.42184372 C108.370885,8.42184372 108.738844,8.32685107 109.261127,7.92329129 L109.498533,7.73337665 L109.522253,7.73337665 L109.522354,7.73338674 Z M101.651218,4.92024774 C101.651218,4.65911133 101.75805,4.51666778 101.853003,4.40983511 C102.304064,3.97064426 102.897508,3.70950784 103.37232,3.70950784 C103.609726,3.70950784 103.858992,3.87569199 104.001425,4.1368284 C104.120138,4.37422423 104.143879,4.69472221 104.143879,5.050821 L104.143879,6.85508579 C104.143879,7.82841977 104.025166,7.87587067 103.407931,7.93522215 C103.348579,8.0064843 103.348579,8.25571005 103.407931,8.32693182 C103.740299,8.31501106 104.143879,8.30320132 104.618681,8.30320132 C105.093482,8.30320132 105.485192,8.31511199 105.876871,8.32693182 C105.936223,8.25565958 105.936223,8.00643383 105.876871,7.93522215 C105.212145,7.87587067 105.081582,7.82838949 105.081582,6.85508579 L105.081582,5.08645207 C105.081582,4.43359589 105.03404,3.86389235 104.761094,3.4958728 C104.559299,3.23474648 104.19133,3.09229283 103.775879,3.09229283 C103.182385,3.09229283 102.482058,3.24660668 101.75803,4.05376661 C101.710488,4.10130836 101.639317,4.21995075 101.639317,4.05376661 L101.651228,1.38305097 C101.651228,0.611501927 101.698769,0.136669903 101.698769,0.136669903 C101.698769,0.0534970818 101.651228,0.0179770383 101.544456,0.0179770383 C101.247708,0.136669903 100.357426,0.302854046 99.8826142,0.338464934 C99.8588938,0.433447488 99.8826142,0.623341941 99.9538763,0.694563717 C100.571122,0.730194792 100.713555,0.670843313 100.713555,1.6678977 L100.713555,6.85509588 C100.713555,7.84030016 100.571122,7.88779144 99.8826545,7.93523224 C99.8113924,8.00649439 99.8113924,8.25572014 99.8826545,8.32693182 C100.274374,8.31502115 100.713555,8.30321142 101.188387,8.30321142 C101.639438,8.30321142 102.019288,8.31512209 102.351595,8.32693182 C102.422857,8.25566967 102.422857,8.00644393 102.351595,7.93523224 C101.758101,7.8876905 101.651268,7.84024969 101.651268,6.85509588 L101.651268,4.9203184 L101.651218,4.92024774 Z M97.7219074,5.53748294 L97.7219074,7.10434181 C97.7219074,7.25865566 97.6506452,7.34173764 97.5557233,7.41295941 C97.2471057,7.66223563 96.8435257,7.93524234 96.511218,7.93524234 C95.9177133,7.93524234 95.6565768,7.4604406 95.6565768,7.09246142 C95.6565768,6.55832839 95.9058531,6.01232506 96.784255,5.78672887 L97.7219881,5.53745266 L97.7219074,5.53748294 Z M97.7219074,7.73348768 C97.7931695,8.10145676 97.911822,8.42194466 98.517197,8.42194466 C98.9682582,8.42194466 99.3955787,8.22014963 99.6448751,7.9827639 C99.6211547,7.84032035 99.573613,7.74535798 99.4430801,7.662276 C99.3480976,7.74534788 99.1463328,7.85219064 99.0038994,7.85219064 C98.6596608,7.85219064 98.6478006,7.3892592 98.6478006,6.84323568 L98.6478006,5.09832237 C98.6478006,3.41276054 97.7219377,3.09228274 96.8554464,3.09228274 C95.8821125,3.09228274 94.8968476,3.73326862 94.8968476,4.40982502 C94.8968476,4.69471212 95.0392811,4.83714558 95.3122979,4.83714558 C95.6565264,4.83714558 95.8701816,4.58787946 95.8701816,4.43356561 C95.8701816,4.35049373 95.8582709,4.26739156 95.8345505,4.21991038 C95.8226399,4.1842793 95.8108301,4.11307772 95.8108301,3.98251455 C95.8108301,3.61454548 96.3093725,3.48397222 96.7604235,3.48397222 C97.1640136,3.48397222 97.7218973,3.68576725 97.7218973,5.02711069 C97.7218973,5.11028351 97.6862662,5.15768394 97.6506351,5.16956433 L96.6298503,5.41883045 C95.4903624,5.70371755 94.6712514,6.33282305 94.6712514,7.14002336 C94.6712514,8.11336743 95.3359577,8.42194466 96.1668482,8.42194466 C96.5704281,8.42194466 96.9384073,8.32695201 97.46067,7.92339223 L97.6980558,7.73347759 L97.7217762,7.73347759 L97.7219074,7.73348768 Z M86.8953093,4.05379689 C86.8715687,3.70956841 86.8478281,3.28224785 86.8003469,3.15168469 C86.7647461,3.10414294 86.7528657,3.05670213 86.6579034,3.05670213 C86.3255452,3.18727539 86.0169276,3.29409796 85.1979377,3.40093062 C85.1741971,3.47219277 85.1979377,3.66207713 85.2216783,3.73328881 C85.8626541,3.79264029 85.9932274,3.85199177 85.9932274,4.54044874 L85.9932274,6.85515644 C85.9932274,7.82849042 85.8389135,7.887852 85.1860674,7.93529281 C85.1148456,8.00655496 85.1148456,8.2557807 85.1860674,8.32699238 C85.5421662,8.31508171 85.9932274,8.30327198 86.4679786,8.30327198 C86.9427804,8.30327198 87.2988792,8.31518265 87.6550082,8.32699238 C87.72623,8.25573023 87.72623,8.00650449 87.6550082,7.93529281 C87.0615136,7.87594133 86.9309404,7.82846014 86.9309404,6.85515644 L86.9309404,4.90846829 C86.9309404,4.65920217 87.037773,4.51675862 87.1327354,4.40992596 C87.5956668,3.9588749 88.046728,3.70959869 88.4146466,3.70959869 C88.8657077,3.70959869 89.1980659,3.99448579 89.1980659,4.78973505 L89.1980659,6.85512616 C89.1980659,7.82846014 89.1031036,7.88782172 88.4621278,7.93526253 C88.4027763,8.00652468 88.4027763,8.25575042 88.4621278,8.32699238 C88.7588751,8.31505143 89.1980659,8.3032417 89.6728778,8.3032417 C90.1476795,8.3032417 90.5393892,8.31515237 90.836086,8.32699238 C90.8954375,8.25569995 90.8954375,8.00647421 90.836086,7.93526253 C90.2425914,7.88772078 90.1357587,7.82842986 90.1357587,6.85512616 L90.1357587,4.96778949 C90.1357587,4.80160535 90.1357587,4.6354313 90.1238885,4.49299784 C90.6936425,3.86388225 91.2278462,3.70956841 91.6907473,3.70956841 C92.1418085,3.70956841 92.4029449,3.97070482 92.4029449,4.76598437 L92.4029449,6.85509588 C92.4029449,7.82842986 92.2842419,7.88779144 91.6670067,7.93523224 C91.6076553,8.00649439 91.6076553,8.25572014 91.6670067,8.32693182 C91.963754,8.31502115 92.4029449,8.30321142 92.8777567,8.30321142 C93.3525585,8.30321142 93.7680087,8.31512209 94.1003165,8.32693182 C94.1596679,8.25566967 94.1596679,8.00644393 94.1003165,7.93523224 C93.4474704,7.8876905 93.3406377,7.82839958 93.3406377,6.85509588 L93.3406377,4.97966988 C93.3406377,3.92325392 93.1625833,3.09233321 92.117977,3.09233321 C91.5007418,3.09233321 90.7767144,3.31786883 90.1593782,3.97071492 C90.1237774,4.00634599 90.0525456,4.06569747 90.028805,3.97071492 C89.910102,3.48405297 89.4590509,3.09233321 88.8417754,3.09233321 C88.1533184,3.09233321 87.5242331,3.50779356 87.0375106,4.05380699 C86.9781591,4.12506914 86.895067,4.19626063 86.895067,4.05380699 L86.8953093,4.05379689 Z M79.962895,5.53758388 L79.962895,7.10444275 C79.962895,7.2587566 79.8916732,7.34183857 79.7967108,7.41306035 C79.4880932,7.66233656 79.0845133,7.93534328 78.7521046,7.93534328 C78.15861,7.93534328 77.8974635,7.46054153 77.8974635,7.09256236 C77.8974635,6.55842933 78.1467296,6.012426 79.0251416,5.78682981 L79.962895,5.5375536 L79.962895,5.53758388 Z M79.962895,7.73358862 C80.0341168,8.1015577 80.1528197,8.42204559 80.7581846,8.42204559 C81.2092458,8.42204559 81.6365663,8.22025056 81.8858627,7.98286483 C81.8621221,7.84042128 81.814641,7.74545892 81.6840677,7.66237694 C81.5891053,7.74544882 81.3873204,7.85229158 81.2448768,7.85229158 C80.9006484,7.85229158 80.8887781,7.38936013 80.8887781,6.84333662 L80.8887781,5.09842331 C80.8887781,3.41286148 79.9629152,3.09238368 79.0964239,3.09238368 C78.1230799,3.09238368 77.1378251,3.73336956 77.1378251,4.40992596 C77.1378251,4.69481306 77.2802687,4.83724652 77.5532754,4.83724652 C77.8975039,4.83724652 78.1111591,4.5879804 78.1111591,4.43366655 C78.1111591,4.35059467 78.0992888,4.2674925 78.0755482,4.22001132 C78.0636779,4.18438024 78.0518076,4.11317865 78.0518076,3.98261549 C78.0518076,3.61464641 78.55035,3.48407316 79.0014111,3.48407316 C79.4049911,3.48407316 79.9628849,3.68586819 79.9628849,5.02721163 C79.9628849,5.11038445 79.927274,5.15778488 79.8916631,5.16966527 L78.8708782,5.41893139 C77.7313904,5.70381849 76.9122794,6.33292399 76.9122794,7.14012429 C76.9122794,8.11346837 77.5769958,8.42204559 78.4078761,8.42204559 C78.8114561,8.42204559 79.1794252,8.32705295 79.701698,7.92349317 L79.9390938,7.73357853 L79.9628344,7.73357853 L79.962895,7.73358862 Z M72.8092248,10.2025294 C72.9872793,9.88203143 73.141583,9.53780294 73.2958969,9.18174453 C74.2455003,6.89085817 74.7677732,5.68010818 75.396919,4.33874456 C75.6224446,3.84020222 75.800499,3.65027749 76.3583928,3.57906581 C76.4296146,3.50780366 76.4296146,3.25857791 76.3583928,3.18735614 C76.120997,3.19926681 75.8479802,3.21107654 75.515622,3.21107654 C75.1595232,3.21107654 74.7915541,3.19916587 74.4354856,3.18735614 C74.3642639,3.25861829 74.3642639,3.50784403 74.4354856,3.57906581 C74.8034547,3.61469688 75.1951644,3.68589847 75.0052397,4.11320893 L73.8182101,6.83146632 C73.735118,7.03325126 73.6401556,7.05699185 73.5333331,6.81955565 L72.4887268,4.35061485 C72.2750615,3.85208261 72.2157201,3.63842738 72.8804365,3.5790759 C72.9516583,3.50781375 72.9516583,3.25858801 72.8804365,3.18735614 C72.4412456,3.1992769 71.9664439,3.21108663 71.5391738,3.21108663 C71.1355938,3.21108663 70.815106,3.19917596 70.5777,3.18735614 C70.5064783,3.25862838 70.5064783,3.50785413 70.5777,3.5790759 C71.0406315,3.63842738 71.1949352,3.74524995 71.5035629,4.46932791 L72.8567363,7.59113498 C72.9516987,7.8404011 73.1416133,8.37454422 73.0229204,8.70690241 C72.8804769,9.11048238 72.7380434,9.43096018 72.559989,9.79894945 C72.4294157,10.0363453 72.2632417,10.1431779 71.9664843,10.1431779 C71.8003001,10.1431779 71.752829,10.1075469 71.6222558,10.1075469 C71.2780273,10.1075469 71.0999729,10.4636456 71.0999729,10.6179595 C71.0999729,10.8672256 71.3373687,11.0571503 71.6578667,11.0571503 C71.9071328,11.0571503 72.3819345,10.9621678 72.8092652,10.2025092 L72.8092248,10.2025294 Z M65.4731599,5.53758388 L65.4731599,7.10444275 C65.4731599,7.2587566 65.4019381,7.34183857 65.3069758,7.41306035 C64.9983582,7.66233656 64.5947782,7.93534328 64.2623695,7.93534328 C63.6688749,7.93534328 63.4077284,7.46054153 63.4077284,7.09256236 C63.4077284,6.55842933 63.6569945,6.012426 64.5354065,5.78682981 L65.4731599,5.5375536 L65.4731599,5.53758388 Z M65.4731599,7.73358862 C65.5443817,8.1015577 65.6630846,8.42204559 66.2684495,8.42204559 C66.7195107,8.42204559 67.1468312,8.22025056 67.3961276,7.98286483 C67.372387,7.84042128 67.3249059,7.74545892 67.1943427,7.66237694 C67.0993904,7.74544882 66.8975954,7.85229158 66.7551518,7.85229158 C66.4109234,7.85229158 66.3990531,7.38936013 66.3990531,6.84333662 L66.3990531,5.09842331 C66.3990531,3.41286148 65.4731902,3.09238368 64.6066989,3.09238368 C63.6333549,3.09238368 62.6481001,3.73336956 62.6481001,4.40992596 C62.6481001,4.69481306 62.7905437,4.83724652 63.0635504,4.83724652 C63.4077789,4.83724652 63.6214442,4.5879804 63.6214442,4.43366655 C63.6214442,4.35059467 63.6095739,4.2674925 63.5858333,4.22001132 C63.573963,4.18438024 63.5620927,4.11317865 63.5620927,3.98261549 C63.5620927,3.61464641 64.0606351,3.48407316 64.5116962,3.48407316 C64.9152762,3.48407316 65.47317,3.68586819 65.47317,5.02721163 C65.47317,5.11038445 65.4375591,5.15778488 65.4019482,5.16966527 L64.3811633,5.41893139 C63.2416755,5.70381849 62.4225645,6.33292399 62.4225645,7.14012429 C62.4225645,8.11346837 63.0872809,8.42204559 63.9181612,8.42204559 C64.3217412,8.42204559 64.6897103,8.32705295 65.2119831,7.92349317 L65.4493789,7.73357853 L65.4731195,7.73357853 L65.4731599,7.73358862 Z M59.8642331,1.19321708 C59.8642331,1.50183468 60.1491202,1.81045228 60.4339972,1.81045228 C60.7663554,1.81045228 61.0512324,1.50183468 61.0512324,1.24068817 C61.0512324,0.955811164 60.8019663,0.623452973 60.4814683,0.623452973 C60.1965913,0.623452973 59.8642331,0.908329981 59.8642331,1.19321708 L59.8642331,1.19321708 Z M60.9443796,6.8552271 L60.9443796,4.49307859 C60.9443796,3.8995638 60.9918608,3.13990523 60.9918608,3.13990523 C60.9918608,3.09236349 60.9325093,3.05683335 60.8375469,3.05683335 C60.4933184,3.18740661 60.030387,3.29422917 59.2113366,3.40106184 C59.187596,3.47232399 59.2113366,3.66220835 59.2350771,3.73342003 C59.8760529,3.80468218 60.0066262,3.86399328 60.0066262,4.54057996 L60.0066262,6.85528766 C60.0066262,7.84049194 59.8760529,7.87607255 59.1519851,7.93542403 C59.0807633,8.00668618 59.0807633,8.25591192 59.1519851,8.3271236 C59.5436947,8.31521293 60.0066262,8.3034032 60.481438,8.3034032 C60.9562398,8.3034032 61.4073009,8.31531387 61.7989803,8.3271236 C61.8702021,8.25586145 61.8702021,8.00663571 61.7989803,7.93542403 C61.0749124,7.88788228 60.9443392,7.84044147 60.9443392,6.85528766 L60.9443796,6.8552271 Z M56.8864745,6.8315067 C56.8864745,7.05703222 56.8627339,7.15199459 56.6965498,7.29442805 C56.2573589,7.67426742 55.8775195,7.86419216 55.5807823,7.86419216 C54.9398065,7.86419216 54.2750498,7.16385479 54.2750498,5.68009809 C54.2750498,4.82544688 54.4412339,4.35064513 54.6192783,4.10142948 C54.9872473,3.54353567 55.4857897,3.50793488 55.723236,3.50793488 C56.1505565,3.50793488 56.4473038,3.66224872 56.6847098,3.93525543 C56.8508939,4.12517007 56.8865048,4.20826215 56.8865048,4.57623123 L56.8865048,6.83158745 L56.8864745,6.8315067 Z M56.7559013,7.70987831 C56.8033824,7.66233656 56.9220854,7.63861616 56.9339557,7.72178898 C56.9576963,8.01854638 57.0645289,8.42211625 57.0645289,8.42211625 C57.1594812,8.45774733 57.2188428,8.45774733 57.2900545,8.42211625 C57.5511909,8.20846102 57.9666412,8.03040658 58.6906686,7.94731451 C58.7618904,7.87605236 58.7618904,7.69804839 58.6906686,7.62682661 C57.9309899,7.56747513 57.8241572,7.34194961 57.8241572,6.76032529 L57.8241572,1.383162 C57.8241572,0.611612959 57.8716384,0.136780935 57.8716384,0.136780935 C57.8716384,0.0537090514 57.8241572,0.0180880699 57.7173246,0.0180880699 C57.4205773,0.136780935 56.530295,0.302965078 56.0554831,0.338575965 C56.0317425,0.43355852 56.0554831,0.623452973 56.1267049,0.694674748 C56.7439401,0.730305824 56.8863837,0.670954344 56.8863837,1.66800873 L56.8863837,3.18732585 C56.8863837,3.27039774 56.8626431,3.29414842 56.779551,3.29414842 C56.7320698,3.29414842 56.2453978,3.09235339 55.8536881,3.09235339 C55.0702688,3.09235339 54.5479556,3.3534999 54.0731437,3.80456105 C53.5627311,4.31497368 53.2541135,5.01531105 53.2541135,5.89367257 C53.2541135,7.35363821 53.9900516,8.42196484 55.2719629,8.42196484 C55.7348943,8.42196484 56.1740852,8.18456902 56.7557498,7.70976728 L56.7559013,7.70987831 Z M50.660252,1.19322718 C50.660252,1.50184478 50.9451391,1.81046238 51.2300161,1.81046238 C51.5623743,1.81046238 51.8472513,1.50184478 51.8472513,1.24069827 C51.8472513,0.955821258 51.5979852,0.623463067 51.2774872,0.623463067 C50.9926102,0.623463067 50.660252,0.908340075 50.660252,1.19322718 L50.660252,1.19322718 Z M51.7403984,6.85523719 L51.7403984,4.49308868 C51.7403984,3.89957389 51.7878796,3.13991533 51.7878796,3.13991533 C51.7878796,3.09237358 51.7285281,3.05684344 51.6335658,3.05684344 C51.2893373,3.1874167 50.8264058,3.29423927 50.0073554,3.40107193 C49.9836148,3.47233408 50.0073554,3.66221844 50.031096,3.73343012 C50.6720718,3.80469227 50.802645,3.86400338 50.802645,4.54059006 L50.802645,6.85529776 C50.802645,7.84050203 50.6720718,7.87608264 49.9480039,7.93543412 C49.8767822,8.00669627 49.8767822,8.25592201 49.9480039,8.3271337 C50.3397136,8.31522303 50.802645,8.30341329 51.2774569,8.30341329 C51.7522586,8.30341329 52.2033198,8.31532396 52.5949992,8.3271337 C52.6662209,8.25587155 52.6662209,8.0066458 52.5949992,7.93543412 C51.8709313,7.88789237 51.740358,7.84045156 51.740358,6.85529776 L51.7403984,6.85523719 Z M45.5023359,4.37438573 C45.8109535,3.99455644 46.3451067,3.63845766 46.7011752,3.63845766 C47.4608539,3.63845766 48.1137,4.49309878 48.1137,5.83436146 C48.1137,6.80770554 47.7694715,8.01845553 46.4400489,8.01845553 C46.2263835,8.01845553 45.8109434,7.95910405 45.597278,7.76917932 C45.3480119,7.55552409 45.312401,7.49616251 45.312401,7.05698175 L45.312401,4.89660809 C45.312401,4.64733187 45.3598822,4.55236951 45.5023258,4.37431507 L45.5023359,4.37438573 Z M45.2768103,3.93520497 C45.2530697,3.57910618 45.2293292,3.28234878 45.181848,3.15178562 C45.1462371,3.10424388 45.1343668,3.05680307 45.0394044,3.05680307 C44.7070462,3.18737632 44.3984286,3.29419889 43.5794388,3.40103156 C43.5556982,3.47229371 43.5794388,3.66217807 43.6031794,3.73338975 C44.2441552,3.79274123 44.3747284,3.85209271 44.3747284,4.54054968 L44.3747284,9.6090449 C44.3747284,10.5942593 44.2441552,10.6536511 43.5200873,10.6891813 C43.4488655,10.7604434 43.4488655,11.0096793 43.5200873,11.080901 C43.9355376,11.0689904 44.3747284,11.0571806 44.8495402,11.0571806 C45.324342,11.0571806 45.8941465,11.0690913 46.2857855,11.080901 C46.3570073,11.0096389 46.3570073,10.760403 46.2857855,10.6891813 C45.4430147,10.6416395 45.3124414,10.5941987 45.3124414,9.6090449 L45.3124414,8.3271337 C45.3124414,8.17282994 45.3480523,8.19656044 45.4786256,8.24396087 C45.7635026,8.36266383 46.1314716,8.42200522 46.5113211,8.42200522 C47.1760375,8.42200522 47.7695119,8.22021019 48.2562344,7.75728884 C48.8141282,7.21127541 49.1346161,6.47537763 49.1346161,5.51384329 C49.1346161,4.25565249 48.2443641,3.0923433 47.0335939,3.0923433 C46.4757001,3.0923433 45.8703857,3.46032247 45.4073836,3.9826054 C45.3361618,4.06567728 45.2768103,4.05386755 45.2768103,3.93506365 L45.2768103,3.93520497 Z M37.9303084,5.86998245 C37.9303084,7.08073244 38.7375087,8.42199513 40.42301,8.42199513 C41.1826888,8.42199513 41.752463,8.16085871 42.1560126,7.75727874 C42.6901659,7.24686611 42.939432,6.49908794 42.939432,5.76314978 C42.939432,4.52867938 42.2628453,3.09243414 40.4467708,3.09243414 C39.6633514,3.09243414 39.0105255,3.41293213 38.5831545,3.92333467 C38.155834,4.4337473 37.9303084,5.12217399 37.9303084,5.87002282 L37.9303084,5.86998245 Z M40.2687769,3.50783394 C41.2895618,3.50783394 41.9187077,4.43368674 41.9187077,6.1429185 C41.9187077,7.63851522 41.1471586,8.00653477 40.5892547,8.00653477 C39.3547843,8.00653477 38.9512346,6.51093805 38.9512346,5.59694545 C38.9512346,4.5642499 39.2005007,3.50783394 40.2687769,3.50783394 Z M35.4416242,6.85513626 C35.4416242,7.84034053 35.3110509,7.89964154 34.5869831,7.93527262 C34.5157613,8.00653477 34.5157613,8.25576051 34.5869831,8.3269722 C35.0024333,8.31506152 35.4416242,8.30325179 35.916436,8.30325179 C36.3912378,8.30325179 36.8422989,8.31516246 37.2339783,8.3269722 C37.3052001,8.25571005 37.3052001,8.0064843 37.2339783,7.93527262 C36.5099104,7.89964154 36.3793372,7.84029006 36.3793372,6.85513626 L36.3793372,1.38309135 C36.3793372,0.611542302 36.4268184,0.136710279 36.4268184,0.136710279 C36.4268184,0.053537457 36.3793372,0.0180174134 36.2725045,0.0180174134 C35.9757572,0.136710279 35.0854749,0.302894421 34.6106631,0.338505309 C34.5869225,0.433487864 34.6106631,0.623382317 34.6818849,0.694604092 C35.3703418,0.742145838 35.4415636,0.777675976 35.4415636,1.66793807 L35.4415636,6.85513626 L35.4416242,6.85513626 Z M29.2374768,6.85513626 C29.2374768,7.84034053 29.1069035,7.88783181 28.4421871,7.93527262 C28.3709653,8.00653477 28.3709653,8.25576051 28.4421871,8.32700248 C28.8338968,8.31506152 29.2374768,8.30325179 29.7122886,8.30325179 C30.1277389,8.30325179 30.5194485,8.31516246 30.792425,8.32700248 C30.8636467,8.25571005 30.8636467,8.0064843 30.792425,7.93527262 C30.3057529,7.88773087 30.1751898,7.84029006 30.1751898,6.85513626 L30.1751898,5.83435137 C30.4007254,5.83435137 30.5668994,5.85807178 30.6856024,5.89370285 C30.8161756,5.97677473 30.9229982,6.08361749 31.0654418,6.27354223 L31.9319532,7.43675047 C32.2761817,7.91155221 32.4067549,8.13707774 32.4304955,8.267651 C32.4304955,8.30328207 32.4423658,8.32700248 32.4779767,8.32700248 C32.7153725,8.31509181 32.976519,8.30328207 33.2139149,8.30328207 C33.5818839,8.30328207 33.949853,8.31519274 34.1872589,8.32700248 C34.2584807,8.25574033 34.2584807,8.00651458 34.1872589,7.9353029 C33.783679,7.88776115 33.4750614,7.84032035 33.166474,7.43676057 L31.599918,5.44828413 C31.5524368,5.40074238 31.5168259,5.34145147 31.5168259,5.28211008 C31.5168259,5.23456833 31.5168259,5.21084793 31.5643071,5.16339703 L32.6089133,4.08326066 C32.9650121,3.70342129 33.3804624,3.60845892 33.8552944,3.56098783 C33.9265162,3.48972568 33.9265162,3.24049994 33.8552944,3.16927816 C33.5822877,3.18118883 33.2499295,3.19299856 32.8225988,3.19299856 C32.3715377,3.19299856 31.9323468,3.18108789 31.6592897,3.16927816 C31.5880679,3.24054031 31.5880679,3.48976606 31.6592897,3.56098783 C32.324006,3.60842864 32.039129,4.03577948 31.9322964,4.16635273 C31.6592897,4.51058122 31.2794503,4.91416119 30.9826929,5.13968672 C30.7096862,5.34148175 30.3891983,5.4839253 30.1755329,5.50766589 L30.1755329,1.36507393 C30.1755329,0.593524889 30.2230141,0.118692865 30.2230141,0.118692865 C30.2230141,0.0356209815 30.1755329,8.8817842e-16 30.0687003,8.8817842e-16 C29.771953,0.118692865 28.8816707,0.284877008 28.4068589,0.320487895 C28.3831183,0.41547045 28.4068589,0.605364903 28.4780806,0.676586678 C29.0953158,0.712217754 29.2377594,0.652866274 29.2377594,1.64992066 L29.2377594,6.83711884 L29.2374768,6.85513626 Z M24.3793361,4.94741013 C24.6048616,3.60614744 25.4357521,3.49925422 25.7205988,3.49925422 C26.1716599,3.49925422 26.7058132,3.74852034 26.7058132,4.74563529 C26.7058132,4.85246795 26.658332,4.91181943 26.5277587,4.91181943 L24.3792957,4.9474505 L24.3793361,4.94741013 Z M27.4892325,7.19085568 C27.0500416,7.64191683 26.7058132,7.83184156 26.0173562,7.83184156 C25.5900356,7.83184156 25.0914933,7.58257544 24.7235343,6.97720045 C24.4861385,6.58549078 24.3436949,6.03946726 24.3436949,5.3509901 L27.5011331,5.3747105 C27.6435766,5.3747105 27.7266687,5.30344835 27.7266687,5.17291547 C27.7266687,4.1758409 27.3705699,3.10752436 25.7206291,3.10752436 C24.6879335,3.10752436 23.3466708,4.09273873 23.3466708,5.89694296 C23.3466708,6.56165934 23.512855,7.20267551 23.9045545,7.653666 C24.3081345,8.12845765 24.8660283,8.41333465 25.7206291,8.41333465 C26.6227514,8.41333465 27.2637675,7.99788439 27.7384784,7.3806391 C27.7028675,7.26193614 27.6316458,7.20259475 27.4892123,7.19071437 L27.4892325,7.19085568 Z M20.9603679,5.52901425 L20.9603679,7.09587312 C20.9603679,7.25018697 20.8891461,7.33326895 20.7941837,7.40449072 C20.4855661,7.65376694 20.0819862,7.92677365 19.7495775,7.92677365 C19.1560829,7.92677365 18.8949364,7.45197191 18.8949364,7.08399273 C18.8949364,6.5498597 19.1442025,6.00385637 20.0226145,5.77826019 L20.9603679,5.52898397 L20.9603679,5.52901425 Z M20.9603679,7.72501899 C21.0315897,8.09298807 21.1502926,8.41347597 21.7556575,8.41347597 C22.2067187,8.41347597 22.6340392,8.21168094 22.8833356,7.97429521 C22.859595,7.83185166 22.8121139,7.73688929 22.6815507,7.65380731 C22.5865883,7.7368792 22.3848034,7.84372195 22.2423598,7.84372195 C21.8981313,7.84372195 21.8862611,7.38079051 21.8862611,6.83476699 L21.8862611,5.08985368 C21.8862611,3.40429185 20.9603982,3.08381405 20.0939069,3.08381405 C19.1205629,3.08381405 18.1353081,3.72479993 18.1353081,4.40135633 C18.1353081,4.68624343 18.2777517,4.82867689 18.5507584,4.82867689 C18.8949869,4.82867689 19.1086522,4.57941077 19.1086522,4.42509692 C19.1086522,4.34202504 19.0967819,4.25892287 19.0730413,4.21144169 C19.0611811,4.17581061 19.0493007,4.10460903 19.0493007,3.97404587 C19.0493007,3.60607679 19.547843,3.47550353 19.9989042,3.47550353 C20.4024842,3.47550353 20.960378,3.67729856 20.960378,5.018642 C20.960378,5.10181482 20.9247671,5.14921525 20.8891562,5.16109564 L19.8683713,5.41036176 C18.7288835,5.69524886 17.9097725,6.32435436 17.9097725,7.13155467 C17.9097725,8.10489874 18.5744889,8.41347597 19.4053692,8.41347597 C19.8089492,8.41347597 20.1769183,8.31848332 20.6991911,7.91492354 L20.9365869,7.7250089 L20.9603275,7.7250089 L20.9603679,7.72501899 Z M13.4386782,6.65669236 C13.4861594,7.23832677 13.5217702,7.79618021 13.5217702,8.29471245 C13.6404732,8.27099204 13.7591762,8.25908137 13.8185175,8.25908137 C13.9016096,8.25908137 13.9728314,8.25908137 14.0559134,8.28280178 C14.3764013,8.3659746 14.6968892,8.41336494 15.1360497,8.41336494 C15.8007661,8.41336494 17.0233864,8.09287704 17.0233864,6.91776822 C17.0233864,6.11060828 16.4417621,5.63585701 15.634582,5.33909961 C14.9105141,5.0779632 14.4475524,4.88804856 14.4475524,4.23524284 C14.4475524,3.74857081 14.8748729,3.47556409 15.2784529,3.47556409 C15.5395994,3.47556409 16.2280564,3.57054665 16.3824106,4.57942086 C16.4536324,4.65068301 16.6910282,4.63877234 16.76225,4.56751019 C16.7978609,4.14018963 16.8216015,3.70099878 16.8334718,3.30931939 C16.4655027,3.24996791 15.8957386,3.08378377 15.2785236,3.08378377 C14.4001419,3.08378377 13.6048724,3.65355797 13.6048724,4.41323672 C13.6048724,5.27973804 13.9965821,5.64770712 14.910605,6.0275364 C15.8958193,6.43111637 16.121355,6.68038249 16.121355,7.19074465 C16.121355,7.77237905 15.5516009,8.02164517 15.1124101,8.02164517 C14.6494786,8.02164517 14.3883422,7.86734142 14.2696393,7.73676816 C14.0084928,7.46376145 13.8779296,6.94147853 13.8067078,6.64472113 C13.735486,6.57345898 13.5099605,6.58536965 13.4387387,6.6566318 L13.4386782,6.65669236 Z M8.6311074,4.0453282 C8.54801532,4.12840009 8.48866385,4.16403116 8.48866385,4.0453282 C8.47678346,3.72484031 8.44118266,3.27377916 8.39370148,3.143216 C8.35809059,3.09567425 8.34622029,3.04823344 8.25125793,3.04823344 C7.91889974,3.1788067 7.61028214,3.28562927 6.79129228,3.39246193 C6.76755169,3.46372408 6.79129228,3.65360844 6.81503287,3.72482012 C7.45600867,3.7841716 7.58658192,3.84352308 7.58658192,4.53198005 L7.58658192,6.84668775 C7.58658192,7.82002174 7.46787896,7.86747264 6.75568139,7.92682412 C6.68445962,7.99808627 6.68445962,8.24731201 6.75568139,8.31854388 C7.11178018,8.30661302 7.58658192,8.29480329 8.06141394,8.29480329 C8.53621569,8.29480329 8.89231447,8.30671396 9.24844353,8.31854388 C9.31966531,8.24726154 9.31966531,7.9980358 9.24844353,7.92682412 C8.64307863,7.86747264 8.52437567,7.81999145 8.52437567,6.84668775 L8.52437567,4.8999996 C8.52437567,4.65073348 8.63120833,4.50828993 8.7261707,4.40145727 C9.17723185,3.96226641 9.71138507,3.70113 10.1743266,3.70113 C10.4117325,3.70113 10.6609987,3.85544384 10.8034321,4.12845056 C10.9221351,4.36584638 10.9458757,4.68634437 10.9458757,5.04244315 L10.9458757,6.84670794 C10.9458757,7.82004192 10.8271727,7.86749283 10.2099375,7.92684431 C10.150586,7.99810646 10.150586,8.2473322 10.2099375,8.31854388 C10.5660363,8.30663321 10.9458757,8.29482348 11.4206875,8.29482348 C11.8954892,8.29482348 12.3228098,8.30673415 12.6788783,8.31854388 C12.7382298,8.24728173 12.7382298,7.99805599 12.6788783,7.92684431 C12.0141619,7.86749283 11.8835887,7.82001164 11.8835887,6.84670794 L11.8835887,5.07807423 C11.8835887,4.42521805 11.8361075,3.8555145 11.5631008,3.48749495 C11.3613057,3.22636863 10.9933367,3.08391499 10.5778864,3.08391499 C9.99625199,3.08391499 9.33150532,3.23822883 8.63119824,4.04538877 L8.6311074,4.0453282 Z M3.17521255,4.00969713 L2.09507619,4.00969713 L2.09507619,1.87304387 C2.09507619,1.35076094 2.23751974,1.11336512 2.87849553,1.11336512 L3.76874753,1.11336512 C4.65899954,1.11336512 4.8488839,1.58816686 5.11001022,2.40718699 C5.25245377,2.4309074 5.38301693,2.40718699 5.50171989,2.34783552 C5.44236841,1.86116348 5.26432407,0.721625165 5.24058347,0.62664261 C5.24058347,0.602922206 5.22872327,0.591011535 5.19310229,0.591011535 C4.99130726,0.62664261 4.89635499,0.638553281 4.61146789,0.638553281 L1.58464337,0.638553281 C1.21667429,0.638553281 0.52822741,0.62664261 0.0534155745,0.614832877 C-0.0178051915,0.686095028 -0.0178051915,0.935320773 0.0534155745,1.00654255 C0.8843161,1.04217362 1.08611113,1.1015251 1.08611113,2.08667891 L1.08611113,6.84650607 C1.08611113,7.83171034 0.8843161,7.89101135 0.0534155745,7.92664243 C-0.0178051915,7.99790458 -0.0178051915,8.24713032 0.0534155745,8.31834201 C0.492606429,8.30643134 1.20481409,8.2946216 1.59655404,8.2946216 L4.14856672,8.2946216 C4.71833083,8.2946216 5.66788385,8.31834201 5.66788385,8.31834201 C5.83406799,7.7248474 6.01211233,6.94144825 6.1070747,6.33602278 C5.97650144,6.2766713 5.84593828,6.24104022 5.69162444,6.2766713 C5.45422861,7.13131242 5.03877835,7.8316195 4.13667624,7.8316195 L2.75978248,7.8316195 C2.26124014,7.8316195 2.09506609,7.64169477 2.09506609,7.08380095 L2.09506609,4.46052612 L3.17520246,4.46052612 C4.18414733,4.46052612 4.21980868,4.73353283 4.25533882,5.26768605 C4.3265606,5.33894821 4.57582672,5.33894821 4.64704849,5.26768605 C4.63518829,4.95905836 4.6233079,4.63857047 4.6233079,4.22307983 C4.6233079,3.89071154 4.6351782,3.48713158 4.64704849,3.20229494 C4.57582672,3.13103279 4.3265606,3.13103279 4.25533882,3.20229494 C4.21972793,3.85514103 4.18411705,4.00945488 3.17520246,4.00945488 L3.17521255,4.00969713 Z" id="nso-tagline" fill="#000000" fill-rule="nonzero"></path>
    </g>
</svg>