<svg xmlns="http://www.w3.org/2000/svg" width="110" height="15"><path fill="#000" fill-rule="nonzero" d="m109.023 3.248-.166.68-.977.564.434.102h.312l.383-.037.427-.1.564-.196-.152.492-.18.18-.876.47-1.975 1.23.174-.687.89-.665-.348-.073-.195-.137.159-.868.666-.514.86-.44m-1.345 7.226h-.861V9.274h.904c.203 0 .456-.154.76-.463-.16-.246-.239-.395-.239-.449 0-.598.13-1.036.39-1.316.14-.01.213-.005.218.014.125.391.383.864.774 1.418-.347 1.331-.996 1.997-1.946 1.997m-.673-1.201v1.2h-.354c-.4 0-.69-.088-.868-.267-.015.535-.056.88-.123 1.035-.184.501-.994 1.268-2.431 2.3-1.191.858-2.103 1.355-2.734 1.49 0-.28.07-.65.21-1.114.294-.106 1.014-.513 2.162-1.222.049-.03.579-.446 1.592-1.252.39-.304.574-.658.55-1.063l-1.722.434c-.063-.179-.094-.427-.094-.745 0-.675.11-1.317.333-1.925.265-.684.58-1.027.947-1.027.425 0 .866.545 1.324 1.635.169.347.453.521.854.521h.354m-3.197.362c.55-.087.803-.172.76-.254-.252-.438-.432-.694-.543-.766l-.217 1.02m-11.712.839H90.93V9.274l.97-.043.882-.311 1.143-.63c-.583-.217-.964-.386-1.143-.506a22.088 22.088 0 0 0-1.345-.774l.737-1.367c1.94.848 3.446 1.249 4.522 1.2a9.008 9.008 0 0 0 3.262-.76c-.516.618-.878 1.028-1.085 1.23l-3.653 1.852-1.939.717c-.79.366-1.186.564-1.186.593m4.622 1.027.89.897-.926.97-.839-.89.875-.977m-1.953-.014.89.897-.926.969-.84-.89.876-.976m.962 1.62.89.897-.926.97-.839-.89.875-.977m-6.423-7.596-.529-.383c-.564.66-1.027.991-1.388.991-.073 0-.232-.046-.478-.137.227-.14.456-.3.687-.478.237-.178.485-.383.745-.615-.197-.222-.296-.398-.296-.528 0-.11.02-.229.058-.354.038-.13.094-.258.166-.384.072-.13.157-.238.253-.325a.453.453 0 0 1 .319-.138c.308 0 .463.212.463.637 0 .265-.07.535-.21.81a.487.487 0 0 1 .123.087c.048.038.096.087.144.145l-.057.672m-.47-1.295a.215.215 0 0 0-.03-.108.252.252 0 0 0-.05-.08.15.15 0 0 0-.08-.058.23.23 0 0 0-.116-.028c-.053 0-.08.024-.08.072 0 .116.107.239.32.369a.174.174 0 0 0 .035-.101v-.066m2.257 5.057v1.2h-.354c-.4 0-.69-.088-.868-.267-.015.535-.056.88-.123 1.035-.183.501-.994 1.268-2.43 2.3-1.192.858-2.103 1.355-2.735 1.49 0-.28.07-.65.21-1.114.294-.106 1.015-.513 2.163-1.222.048-.03.578-.446 1.591-1.252.39-.304.574-.658.55-1.063l-1.722.434c-.063-.179-.094-.427-.094-.745 0-.675.111-1.317.333-1.925.265-.684.58-1.027.947-1.027.425 0 .866.545 1.324 1.635.17.347.454.521.854.521h.354m-3.197.362c.55-.087.803-.172.76-.254-.251-.438-.432-.694-.543-.766l-.217 1.02m-5.816-4.333.427.188c0 .091.12.354.361.788.3.555.516 1.025.651 1.41.241.661.37 1.327.384 1.997-.217 1.07-.837 2.011-1.86 2.822-.342.246-.79.46-1.345.643-.588.198-1.138.297-1.65.297-.8 0-1.366-.215-1.7-.644-.554-.7-.831-1.45-.831-2.25 0-.709.227-1.468.68-2.278l.39.318c-.173.42-.26.808-.26 1.165 0 .78.4 1.463 1.2 2.047.353.15.712.224 1.079.224 1.037 0 2.184-.545 3.443-1.635.015-.26-.036-.564-.152-.911-.11-.347-.166-.579-.166-.695a1.45 1.45 0 0 1-.948.362c-.053 0-.376-.12-.97-.362-.009-1.167.413-2.329 1.267-3.486m-.29 1.765-.166.528c.28.168.458.253.535.253.039 0 .058-.024.058-.072 0-.092-.142-.328-.427-.71m1.418-4.21.89.897-.926.97-.839-.89.875-.977m-1.953-.007.89.897-.926.97-.84-.89.876-.977m-11.9.398-.166.68-.977.564.434.102h.311l.384-.037.427-.1.564-.196-.152.492-.18.18-.876.47-1.975 1.23.173-.687.89-.665-.347-.073-.195-.137.159-.868.665-.514.861-.44m-1.345 7.226h-.861V9.274h.904c.203 0 .456-.154.76-.463-.16-.246-.239-.395-.239-.449 0-.598.13-1.036.39-1.316.14-.01.213-.005.218.014.125.391.383.864.774 1.418-.348 1.331-.996 1.997-1.946 1.997m-3.082-2.923c.492-.072.748-.055.767.05.082.334.195.686.34 1.057.15.371.296.576.441.615h.695v1.2h-.651c-.058 0-.21-.06-.456-.18-.357-.188-.581-.379-.673-.572l-.123.138c-.02.092-.152.224-.398.398-.217.144-.335.217-.354.217h-1.245V9.274h.897c.116 0 .37-.574.76-1.722m-.637 3.53.89.897-.926.97-.839-.89.875-.977m0 1.997.89.897-.926.97-.839-.89.875-.977m-3.154-5.527c.492-.072.748-.055.767.05.082.334.196.686.34 1.057.15.371.297.576.441.615h.695v1.2h-.651c-.058 0-.21-.06-.456-.18-.357-.188-.581-.379-.673-.572l-.123.138c-.019.092-.151.224-.397.398-.217.144-.336.217-.355.217h-1.244V9.274h.897c.116 0 .369-.574.76-1.722m-.24-3.631.89.897-.925.97-.84-.89.876-.977m-3.581 3.631c.492-.072.747-.055.767.05.082.334.195.686.34 1.057.15.371.296.576.44.615h.695v1.2h-.65c-.059 0-.21-.06-.456-.18-.357-.188-.582-.379-.673-.572l-.123.138c-.02.092-.152.224-.398.398-.217.144-.335.217-.354.217h-1.245V9.274h.897c.116 0 .37-.574.76-1.722m-5.968.71c.15 0 .224.009.224.028.029.179.06.287.094.326.318.482.84.677 1.563.586.308.01.578-.147.81-.47l.593-.688.217.753.535.477h.377v1.2h-.37c-.212 0-.417-.086-.614-.26l-.615-.578c-.135.588-.511.882-1.129.882-.439 0-.998-.22-1.678-.658-.043.145-.248.304-.615.477-.27.14-.562.21-.875.21-.405 0-.777-.12-1.114-.362-.16.213-.42.321-.781.326h-.362l-.311-.036h-.463V9.274h.47c.4.067.63.067.687 0 .323-.309.536-.673.637-1.092.154.752.65 1.128 1.49 1.128.386 0 .656-.096.81-.29.16-.197.3-.45.42-.759m-6.677-.709c.492-.072.747-.055.767.05.082.334.195.686.34 1.057.15.371.296.576.44.615h.695v1.2h-.65c-.059 0-.21-.06-.456-.18-.357-.188-.582-.379-.673-.572l-.123.138c-.02.092-.152.224-.398.398-.217.144-.335.217-.354.217h-1.245V9.274h.897c.116 0 .37-.574.76-1.722m-5.49 1.982c-.748.425-1.476.738-2.185.94h-1.1v-1.2h.268c.622-.048 1.138-.244 1.548-.586-.073-.222-.335-.644-.789-1.266-.414-.569-.685-1.037-.81-1.403.029-.405.176-.864.441-1.375.319-.675.514-1.121.586-1.338.622-.15 1.57-.523 2.843-1.121 1.394-.632 2.274-1.143 2.64-1.534.097 0 .145.058.145.174 0 .144-.096.407-.289.788l-.369.738c-.622.362-1.136.64-1.54.832-.57.28-1.77.81-3.603 1.591.159.58.508 1.252 1.049 2.019.535.839.967 1.4 1.294 1.685.613.53 1.397.796 2.352.796h1.577v1.2H41.66c-.367 0-.902-.096-1.606-.289-.314-.077-.606-.294-.876-.65m-4.673-.55c.015.193.282.289.803.289h.666v1.2h-.659c-.226 0-.528-.3-.904-.903.063.086-.087.267-.448.542-.227.179-.526.3-.897.362h-.702V9.274h.723c.145 0 .304-.09.478-.268.048-.043.072-1.058.072-3.045 0-2.228-.203-3.641-.608-4.24.386-.694.654-1.268.803-1.721.463.304.76.723.89 1.259.082.275.123.713.123 1.316 0 .512-.075 1.3-.224 2.366-.15 1.066-.224 1.912-.224 2.539 0 .492.036.993.108 1.505m-1.953.289v1.2h-.355c-.4 0-.69-.088-.868-.267-.014.535-.055.88-.123 1.035-.183.501-.993 1.268-2.43 2.3-1.191.858-2.103 1.355-2.735 1.49 0-.28.07-.65.21-1.114.294-.106 1.015-.513 2.163-1.222.048-.03.579-.446 1.592-1.252.39-.304.573-.658.55-1.063l-1.722.434c-.063-.179-.094-.427-.094-.745 0-.675.11-1.317.332-1.925.266-.684.582-1.027.948-1.027.424 0 .866.545 1.324 1.635.169.347.453.521.853.521h.355m-3.197.362c.55-.087.802-.172.76-.254-.252-.438-.433-.694-.543-.766l-.217 1.02m-6.866.839h-.86V9.274h.904c.202 0 .456-.154.76-.463-.16-.246-.24-.395-.24-.449 0-.598.13-1.036.391-1.316.14-.01.213-.005.217.014.126.391.384.864.774 1.418-.347 1.331-.995 1.997-1.946 1.997m1.05 2.235s.296.3.89.897l-.927.97-.839-.89.875-.977m.991-1.606.89.897-.926.97-.839-.89.875-.977m-1.953-.007.89.897-.926.97-.839-.89.875-.977M19.41 7.552c.492-.072.747-.055.767.05.082.334.195.686.34 1.057.15.371.296.576.44.615h.695v1.2h-.65c-.059 0-.21-.06-.456-.18-.357-.188-.582-.379-.673-.572l-.123.138c-.02.092-.152.224-.398.398-.217.144-.335.217-.355.217h-1.244V9.274h.897c.116 0 .37-.574.76-1.722m-.637 3.53.89.897-.926.97-.84-.89.876-.977m0 1.997.89.897-.926.97-.84-.89.876-.977m-3.747-9.448c.11-.01.263.295.456.912.183.608.431 1.661.745 3.161.241.767.574 1.29.998 1.57h.651v1.2h-.644c-.405 0-.752-.204-1.041-.614-.12-.164-.297-.519-.528-1.063-.396.762-.712 1.164-.948 1.208-.227.048-.87.243-1.932.586-.564.164-1.003.426-1.316.788-.077-.087-.116-.21-.116-.369 0-.116.024-.28.072-.492.068-.255.107-.424.116-.506.584-.492 1.162-.774 1.736-.847 1.08-.168 1.778-.385 2.091-.65.024-.772-.294-1.988-.955-3.647l.615-1.237m-6.134 6.844H8.03V9.274h.904c.203 0 .456-.154.76-.463-.16-.246-.24-.395-.24-.449 0-.598.131-1.036.391-1.316.14-.01.213-.005.217.014.126.391.384.864.775 1.418-.348 1.331-.996 1.997-1.946 1.997M5.896 7.552c.492-.072.747-.055.767.05.081.334.195.686.34 1.057.149.371.296.576.44.615h.695v1.2h-.65c-.059 0-.21-.06-.457-.18-.356-.188-.58-.379-.672-.572l-.123.138c-.02.092-.152.224-.398.398-.217.144-.335.217-.355.217H4.24V9.274h.897c.116 0 .37-.574.76-1.722m1.215 3.805.89.897-.926.97-.84-.89.876-.977m-1.953-.007s.296.3.89.897l-.926.97-.84-.89.876-.977M2.763 9.245c-.299.492-.757.738-1.374.738a1.97 1.97 0 0 1-.738-.145C.217 9.665 0 9.318 0 8.797c0-.295.072-.584.217-.869a3.357 3.357 0 0 0 1.57-.795c.492-.425.738-.902.738-1.433 0-.053-.003-.108-.008-.166.343.082.514.482.514 1.2v.297l-.007.283c0 .598.06 1.012.18 1.244.232.38.435.62.608.716h.659v1.2h-.81c-.01 0-.14-.076-.391-.23-.338-.213-.507-.546-.507-.999M1.1 8.753c.231.13.434.195.607.195a.668.668 0 0 0 .507-.224.895.895 0 0 0 .137-.513c0-.121-.017-.249-.05-.384-.097.265-.497.574-1.201.926"/></svg>