<?xml version="1.0" encoding="UTF-8"?>
<svg width="121px" height="25px" viewBox="0 0 121 25" version="1.1" xmlns="http://www.w3.org/2000/svg" xmlns:xlink="http://www.w3.org/1999/xlink">
    <title>te-wordmark</title>
    <g id="Page-1" stroke="none" stroke-width="1" fill="none" fill-rule="evenodd">
        <path d="M18.2069104,16.6807411 C18.2069104,18.7831252 17.7681719,20.4982306 16.8907483,21.8260475 C15.7793059,23.5964701 14.2291609,24.4816814 12.2403082,24.4816814 C10.2806785,24.4816814 8.80365353,23.7209533 7.80922925,22.199497 C7.39974858,22.8910689 6.87328474,23.4443284 6.22983464,23.8592657 C5.58637118,24.2742128 4.82592352,24.4816814 3.94848653,24.4816814 C2.83705749,24.4816814 1.9011212,24.0667441 1.14067354,23.23685 C0.380223829,22.4069656 -1.0658141e-14,21.4525981 -1.0658141e-14,20.3737377 C-1.0658141e-14,19.350214 0.365600033,18.492671 1.09680216,17.8010894 C1.85724879,17.1095272 2.77856231,16.7637363 3.86074273,16.7637266 C5.08915493,16.7637363 6.01046742,17.0265319 6.6246833,17.5521231 C7.26813236,18.0500654 7.79459723,18.6309835 8.20407791,19.2948871 C9.08150976,19.9034735 10.0466947,20.2077667 11.0996347,20.2077667 C12.7375121,20.2077667 14.0390495,19.6960048 15.0042488,18.6724714 C15.9986669,17.6489476 16.4958832,16.3902869 16.4958996,14.8964795 C16.4958832,12.7664465 15.7793059,11.0651801 14.3461677,9.79267063 C12.9130008,8.52020006 11.055751,7.8009598 8.77441416,7.63496931 C9.03763837,8.43720481 9.06688596,9.11494744 8.86215488,9.66818748 C8.6574094,10.2214664 8.30643317,10.6502428 7.80922514,10.9545165 C7.31200066,11.2588195 6.71241579,11.4386295 6.01046948,11.4939467 C5.33775946,11.5492834 4.70892699,11.4801369 4.12397105,11.2864683 C3.30502204,10.9545263 2.76393337,10.4704327 2.50070402,9.83416825 C2.23746953,9.19793296 2.22284573,8.56168795 2.45682852,7.92542349 C2.7200589,7.28919793 3.23189895,6.73593844 3.99235175,6.26565474 C4.78204391,5.79540022 5.80572503,5.56024379 7.06339614,5.56024379 C8.81827013,5.58796074 10.3830399,5.89222477 11.7577086,6.4731234 C13.1323536,7.05406094 14.2876499,7.84245742 15.2236016,8.83830311 C16.1887711,9.80651938 16.9199722,10.9683653 17.4172059,12.3238311 C17.9436523,13.6793261 18.2069104,15.1316262 18.2069104,16.6807411 M7.63373342,8.79680549 C7.63373342,8.43720481 7.54598242,8.03609678 7.37050099,7.59347169 C6.72703753,7.34452485 6.15670127,7.41368107 5.65949016,7.80094035 C5.19151636,8.16057993 4.91366013,8.60318558 4.82592044,9.12876702 C4.7674232,9.62670931 4.95753254,9.97250014 5.39625772,10.1661201 C5.86422021,10.3597789 6.30294128,10.3736082 6.7124199,10.2076469 C7.26812516,9.98635862 7.57523001,9.51608465 7.63373342,8.79683466 M6.31757125,19.2119307 C5.90809263,18.2990608 5.11839635,17.8564552 3.94847933,17.8841041 C3.24652274,17.8841138 2.7346827,18.0362555 2.41295713,18.3405487 C2.09122643,18.6171833 1.93036365,18.9214765 1.93036365,19.2534186 C1.93036365,19.5853802 2.09122643,19.8896734 2.41295713,20.1662982 C2.7346827,20.4152645 3.21727515,20.5397477 3.86073553,20.5397477 C4.41644388,20.5397477 4.94290772,20.4152645 5.44013014,20.1662982 C5.96658884,19.9173417 6.25906887,19.5992095 6.31757125,19.2119307 M27.4356401,3.98346056 C27.4648836,4.06651415 27.4210081,4.13563147 27.3040239,4.19092922 C27.2162729,4.24626587 27.0846567,4.30160251 26.9091753,4.35690998 C26.7336805,4.38462693 26.5581929,4.42605648 26.3827104,4.48139313 C26.2072166,4.50911008 26.104849,4.50911008 26.0756066,4.48139313 C25.4906404,4.03880693 25.1981644,3.347235 25.1981644,2.40667733 C25.1981644,1.68746625 25.5052642,1.10653843 26.119478,0.663913335 C26.7629291,0.221327137 27.4941292,-1.42108547e-14 28.3130823,-1.42108547e-14 C29.0150265,-1.42108547e-14 29.6731066,0.207497838 30.2873255,0.622415712 C30.9015239,1.03738221 31.2232515,1.5768124 31.2525105,2.24069656 C31.3402409,2.82164383 31.2817436,3.16742493 31.0770228,3.27805932 C30.8722753,3.36111292 30.5505477,3.40256192 30.1118369,3.40254247 C30.1118277,3.07061011 29.936339,2.78014621 29.585372,2.53116047 C29.2343865,2.25455504 28.8834103,2.11623287 28.5324423,2.11621342 C27.6842416,2.11623287 27.2162729,2.29604294 27.1285363,2.65564361 C27.0407853,3.01528319 27.1431581,3.45788884 27.4356401,3.98346056 M28.4885699,9.33623568 C28.1960816,9.50222617 27.7866092,9.69586553 27.2601525,9.91715377 C26.7336805,10.1108126 26.2657128,10.2076371 25.8562455,10.2076177 C25.3882717,10.2076371 24.9349279,10.1384712 24.496212,10.000149 C24.0574868,9.8618463 23.6480154,9.68203623 23.2677936,9.46071882 C22.8875667,9.23943059 22.5804618,8.94896668 22.3464801,8.58933683 C22.1417418,8.22973615 22.0393742,7.7871305 22.0393752,7.26151988 C22.0393742,5.7124147 22.9899343,4.66122264 24.8910606,4.1079437 C25.7100004,3.85899686 26.6166891,3.81750897 27.6111288,3.98346056 C28.6055541,4.12179245 29.4683704,4.41225636 30.1995807,4.85484255 C30.8430277,5.24214073 31.3256202,5.76774162 31.6473591,6.43162578 C31.998324,7.06789024 32.173824,7.63497903 32.173824,8.13290188 C32.173824,9.79269008 31.340244,10.9821946 29.6731158,11.7014154 C28.6786741,12.0887136 27.728114,12.3100115 26.8214315,12.3653287 C25.9147366,12.3930457 24.9641755,12.2823724 23.9697471,12.0333672 C23.2092943,11.8397473 22.492718,11.6046103 21.8200152,11.327966 C21.1473093,11.0236922 20.8109579,10.6917307 20.8109579,10.3321008 C20.8109579,9.91717322 21.0449417,9.70970456 21.5129103,9.70968511 C21.6006511,9.70970456 21.907758,9.8341877 22.4342239,10.0831345 C22.9899343,10.3321203 23.5895192,10.5534182 24.2329795,10.7470479 C24.9934241,10.940697 25.7538728,11.0375215 26.5143266,11.0375021 C27.2747691,11.0375215 28.0059702,10.8577114 28.7079309,10.4980816 C29.1466427,10.3044519 29.5122428,10.013988 29.8047321,9.62669959 C30.0972028,9.23943059 30.2434428,8.75532732 30.2434531,8.17438978 C30.2434428,7.7871305 30.1849456,7.34452485 30.0679645,6.84657283 C29.9802135,7.23387101 29.863219,7.62114974 29.7169883,8.00841874 C29.570739,8.39571691 29.1612665,8.83832256 28.4885699,9.33623568 M25.8562455,6.63910417 C25.5345117,6.80509466 25.2859041,7.01257305 25.1104206,7.26151988 C24.9641755,7.51049589 24.8910606,7.75946218 24.8910606,8.00841874 C24.8910606,8.22973615 24.9788013,8.42337551 25.1542931,8.58933683 C25.3590241,8.75532443 25.6807528,8.79682494 26.119478,8.71381997 C26.8214253,8.54785865 27.3040178,8.18823853 27.5672564,7.63496931 C27.8304816,7.08172927 27.9182254,6.63912362 27.8304888,6.30714264 C27.0115367,6.30714264 26.3534566,6.41781593 25.8562455,6.63910417 M33.3145016,20.3737377 C33.3145016,21.1483049 33.0951252,21.7983889 32.6564175,22.3239801 C32.2469327,22.8219127 31.7204678,23.2368597 31.0770228,23.5688115 C30.4335553,23.9007633 29.7462266,24.1359003 29.0150348,24.2742128 C28.2838265,24.4125252 27.581874,24.4816814 26.9091753,24.4816814 C24.7155679,24.4816814 23.0338067,24.0667441 21.8638876,23.23685 C20.723213,22.379307 20.2259968,20.8578507 20.3722368,18.6724714 L21.5129103,18.6724714 C21.6591493,19.9449711 23.3555343,20.5812161 26.6020714,20.5812161 C29.5561152,20.5812161 31.0331401,20.1247812 31.0331504,19.2119016 C31.0331401,18.8799497 30.6967877,18.6171542 30.0240931,18.4235051 C29.3806266,18.2298754 28.6055541,18.077724 27.6988726,17.9670701 C26.7921767,17.8287577 25.9001128,17.7042745 25.0226768,17.5936207 C24.1744792,17.4829766 23.5163991,17.3584934 23.0484336,17.2201713 C22.2879818,16.9435464 21.6445255,16.6115946 21.1180617,16.2243061 C20.6208454,15.8370274 20.3722368,15.2837776 20.3722368,14.5645277 C20.3722368,13.9006241 20.5915968,13.3473743 21.0303179,12.9047492 C21.4982855,12.462163 22.0686218,12.1025429 22.7413287,11.8258985 C23.4140305,11.5492834 24.115983,11.355644 24.8471882,11.2449804 C25.5783842,11.1066777 26.2364642,11.0375021 26.8214315,11.0375021 C28.0790902,11.0375021 29.2928828,11.3003171 30.4628131,11.8258985 C31.8667078,12.462163 32.7441489,13.319706 33.0951375,14.3985469 C33.1536245,14.6751912 33.1243707,14.8964892 33.0073968,15.0624602 C32.9196355,15.2007824 32.7733996,15.2837776 32.5686757,15.3114265 C32.3931758,15.3391435 32.1884395,15.3252364 31.954467,15.2698997 C31.7497195,15.1869434 31.5888557,15.0624408 31.4718746,14.8964503 C30.9161508,14.2878833 30.1118307,13.8452777 29.0589103,13.5686333 C28.0059733,13.2920182 26.9530446,13.1813643 25.900121,13.2366815 C24.8764348,13.2643985 23.9843699,13.4303306 23.2239243,13.7346141 C22.4634735,14.038917 22.0832487,14.4538544 22.0832507,14.9794455 C22.0832487,15.3943926 22.5219697,15.7125151 23.3994129,15.9338131 C24.3060985,16.1551207 25.3151548,16.3625991 26.4265859,16.5562288 C27.070036,16.6668923 27.7866123,16.7637072 28.5763178,16.8466927 C29.3660058,16.929649 30.1118307,17.109498 30.8137935,17.3861131 C31.5449833,17.6350891 32.1445671,17.98088 32.6125481,18.4234759 C33.0805044,18.8660913 33.3145016,19.5161656 33.3145016,20.3737086 M40.9352143,5.06231122 C40.9937013,5.09002817 40.9644578,5.14536481 40.8474736,5.22829198 C40.730476,5.31134558 40.584236,5.38045317 40.4087525,5.43576064 C40.2332598,5.46347759 40.0577711,5.50490714 39.8822876,5.56024379 C39.7360435,5.58796074 39.6336749,5.58796074 39.5751828,5.56024379 C39.0194672,5.11765759 38.7416141,4.42608566 38.7416141,3.48552799 C38.7416141,2.73864858 39.0487148,2.14390119 39.6629276,1.70126637 C40.3063798,1.2586899 41.022956,1.03736276 41.8126585,1.03736276 C42.5438534,1.03736276 43.2019335,1.24485087 43.7869018,1.65977847 C44.4011022,2.04707665 44.7520784,2.60033614 44.8398315,3.31954722 C44.8398315,3.90049449 44.781324,4.24627559 44.6643439,4.35690998 C44.5180946,4.38462693 44.1817422,4.39843678 43.6552855,4.39843678 C43.6552773,4.09416303 43.4797897,3.80369912 43.1288207,3.52705479 C42.7778372,3.25043963 42.4122372,3.11212719 42.0320195,3.11210774 C41.2423161,3.11212719 40.7889722,3.30576655 40.671985,3.69302583 C40.5549874,4.08033373 40.6427312,4.53676867 40.9352174,5.06234039 M42.0320195,10.4151155 C41.7395323,10.581106 41.3154361,10.7609161 40.7597288,10.9545457 C40.2332598,11.1205362 39.7652911,11.2035217 39.3558228,11.203512 C38.887851,11.2035217 38.4345062,11.1481753 37.9957882,11.0375312 C37.5863137,10.9268968 37.1914661,10.7470868 36.8112422,10.4981108 C36.4310174,10.2491542 36.1239125,9.95870002 35.8899287,9.62672876 C35.6559449,9.29478668 35.5389525,8.86601033 35.5389525,8.34039972 C35.5389525,6.79129454 36.4895136,5.74010248 38.3906368,5.18682353 C39.2388273,4.9378767 40.145516,4.8963888 41.110706,5.06234039 C42.1051324,5.20068201 42.9679497,5.47730689 43.699158,5.89223449 C44.3718546,6.27953267 44.8836947,6.80512384 45.2346802,7.46901772 C45.5856471,8.13294078 45.7318871,8.71386859 45.6734012,9.21178171 C45.6733909,10.8715699 44.8544471,12.0472451 43.2165655,12.7388073 C42.2513724,13.1537641 41.3008123,13.3888914 40.3648801,13.4442086 C39.4289387,13.4719255 38.4637548,13.3612522 37.4693233,13.1122568 C36.7088736,12.9186271 36.1970325,12.7526463 35.9338011,12.6143242 C35.6705687,12.4483531 35.5389525,12.2132259 35.5389525,11.9089132 C35.5389525,11.4110001 35.7436887,11.2035217 36.1531611,11.2864975 C36.2994012,11.286517 36.4456412,11.3280243 36.5918822,11.4109807 C36.7381212,11.493937 37.1329698,11.6322981 37.7764282,11.8259277 C38.5368748,12.0195768 39.2973225,12.1164013 40.0577763,12.1163916 C40.8182198,12.1164013 41.5494199,11.9365913 42.2513796,11.5769614 C42.6900934,11.3280049 43.0556935,11.0237214 43.3481817,10.6640818 C43.6406535,10.3044811 43.7868935,9.83421688 43.7869018,9.25327934 C43.7868935,9.0596497 43.7722697,8.85218104 43.7430263,8.63086362 C43.7137725,8.40957539 43.6552753,8.1744384 43.5675376,7.92545267 C43.5090301,8.28509225 43.3920418,8.67237097 43.2165614,9.08729857 C43.0703131,9.47459675 42.6754655,9.9172024 42.0320154,10.4151155 M39.3558187,7.717984 C39.0633345,7.88397449 38.8293507,8.09145288 38.6538652,8.34039972 C38.4783745,8.58938545 38.3906327,8.83835174 38.3906327,9.08729857 C38.3906327,9.30861598 38.4929952,9.50225535 38.6977376,9.66821666 C38.9024707,9.80654855 39.2388232,9.84804617 39.7067949,9.7926998 C40.3502471,9.62673849 40.8035919,9.26712809 41.0668295,8.71384914 C41.3300558,8.1606091 41.4470482,7.70417416 41.4178057,7.34453458 C40.6573519,7.34453458 39.9700232,7.46903717 39.3558187,7.717984 M54.5794275,18.174568 C54.5794275,18.9768035 54.4477928,19.7513609 54.1845788,20.49825 C53.9505765,21.2451586 53.5996003,21.9229013 53.1316491,22.531478 C52.663664,23.1124058 52.0640791,23.58267 51.3328945,23.9422901 C50.6016779,24.3019103 49.7827341,24.4817106 48.8760587,24.4817106 C47.9986043,24.4817106 47.2381556,24.3987543 46.5947106,24.2327443 C45.9512431,24.039105 45.2639144,23.4166892 44.5327236,22.3654972 C44.2109857,22.8910981 43.7283932,23.3752013 43.0849452,23.817807 C42.4707293,24.2604126 41.7249044,24.4817106 40.8474695,24.4817106 C39.5897994,24.4817106 38.6246145,24.0944319 37.9519127,23.3198744 C37.2792057,22.5176487 36.9428533,21.6324374 36.9428543,20.6642308 C36.9136006,19.696034 37.2060857,18.8108227 37.8202965,18.0085872 C38.4637507,17.1787126 39.4581832,16.7361069 40.8035971,16.6807703 C41.2715606,16.6254336 41.7687768,16.68078 42.2952479,16.846751 C42.8217055,16.9850732 43.2896732,17.2340395 43.6991538,17.5936499 C44.1378657,17.95327 44.4449705,18.3128901 44.6204674,18.6725005 C44.8251943,19.0321207 45.0445544,19.3502432 45.2785485,19.6268681 C45.512523,19.9035027 45.8342506,20.1524689 46.2437344,20.3737669 C46.6824442,20.567416 47.3697718,20.6642308 48.3057215,20.6642308 C49.6511179,20.6642308 50.747918,20.3876059 51.5961269,19.8343464 C52.4443029,19.2534284 52.8537754,18.2713925 52.8245453,16.8882389 C52.8245278,15.6710855 52.3419353,14.6752204 51.3767669,13.9006435 C50.4115665,13.1260958 49.270893,12.738817 47.9547452,12.7388073 C47.6622518,12.738817 47.3259004,12.6972805 46.9456869,12.6143242 C46.5654517,12.5313678 46.3899631,12.2270552 46.419222,11.7014446 C46.4192117,11.1482045 46.8579318,10.8715602 47.7353842,10.8715602 C49.7242379,10.8715602 51.3767504,11.6322981 52.6929291,13.1537446 C53.9505765,14.5645666 54.5794275,16.2381743 54.5794275,18.174568 M40.6719808,20.5812453 C41.5786644,20.6365819 42.2221207,20.5259086 42.6023517,20.2492838 C43.0118169,19.9450003 43.2019294,19.6268778 43.172689,19.2949162 C43.1434352,18.9353058 42.9240731,18.6171833 42.5146079,18.3405487 C42.1343769,18.0362555 41.5786644,17.8841041 40.8474695,17.8841041 C40.204007,17.8841041 39.7067908,18.0224262 39.3558187,18.2990511 C39.0048383,18.5756857 38.8147269,18.8938082 38.7854814,19.2534186 C38.7854814,19.5853802 38.9317183,19.8896734 39.2242024,20.1662982 C39.545927,20.4429329 40.0285194,20.5812453 40.6719808,20.5812453 M68.1972516,9.04577177 C67.9340079,9.23943059 67.5391603,9.43306995 67.0127057,9.62669959 C66.4862315,9.79269008 66.0036391,9.8756756 65.5649273,9.87566587 C65.126198,9.8756756 64.6874779,9.82032923 64.2487651,9.70968511 C63.8100368,9.59905071 63.4005654,9.41924065 63.0203467,9.17025492 C62.6401167,8.92130808 62.3330119,8.63084417 62.0990332,8.29887292 C61.8650442,7.93927224 61.7480518,7.51049589 61.748057,7.0125536 C61.7480518,5.46344842 62.6986129,4.39842706 64.5997413,3.81747979 C65.4479266,3.56854268 66.3692391,3.52704506 67.3636819,3.69299665 C68.3581041,3.85899686 69.2062966,4.13563147 69.9082625,4.52289075 C70.5517054,4.91018893 71.0489216,5.43578009 71.3999133,6.09967398 C71.7508741,6.76360676 71.9263781,7.35835415 71.9263781,7.88393559 C71.9263781,9.51605547 71.092794,10.6779014 69.42567,11.3694636 C68.4312241,11.812079 67.4660392,12.0472159 66.5301132,12.0748648 C65.6234142,12.1025818 64.6874779,11.9919085 63.7223002,11.742913 C62.9618443,11.576942 62.3622605,11.4109709 61.9235456,11.2449804 C61.514068,11.0513508 61.3093359,10.7885552 61.3093359,10.456584 C61.3093359,10.013988 61.5433156,9.79269008 62.0112894,9.79267063 C62.0697764,9.79269008 62.2452681,9.86181712 62.5377543,10.000149 C62.8594767,10.1384712 63.3420692,10.2906226 63.9855327,10.456584 C64.7459741,10.6779014 65.5064228,10.7885552 66.2668808,10.7885358 C67.0273192,10.7885552 67.7731441,10.6087452 68.5043565,10.2491153 C68.9138166,10.0001587 69.2647928,9.69586553 69.5572862,9.33623568 C69.8497529,8.976635 69.9959929,8.50636103 69.9960063,7.92542349 C69.9959929,7.53816422 69.9374987,7.08172927 69.8205187,6.55610892 C69.7327574,6.97107542 69.6157691,7.37218345 69.4695414,7.75945245 C69.323289,8.1190823 68.8991928,8.54785865 68.1972516,9.04577177 M65.5649273,6.34864026 C65.272438,6.54229908 65.0384542,6.76360676 64.8629738,7.0125536 C64.6874779,7.26152961 64.5997413,7.51049589 64.5997413,7.75945245 C64.5997413,7.98076986 64.6874821,8.16057993 64.8629738,8.29887292 C65.0677018,8.43720481 65.4040542,8.49253173 65.8720321,8.46485368 C66.5447267,8.27123377 67.0126954,7.89778434 67.2759381,7.3445054 C67.5684078,6.79126536 67.6707754,6.33483041 67.583043,5.97519084 C66.8518316,5.97519084 66.1791267,6.09969343 65.5649273,6.34864026 M75.4361467,19.2533894 C75.4361467,20.7195286 74.9389088,21.96436 73.9444928,22.9878837 C72.9792914,23.9837489 71.6923789,24.4816814 70.0837511,24.4816814 C69.2062966,24.4816814 68.4166003,24.343369 67.7146592,24.0667441 C67.0126954,23.7624509 66.3546153,23.1400352 65.7404159,22.199497 C65.4479266,23.0293813 64.8922142,23.6241385 64.0732765,23.9837489 C63.283573,24.3157104 62.5523729,24.4816814 61.8796732,24.4816814 C61.0314756,24.4816814 60.2856507,24.3295397 59.6421975,24.0252465 C59.0279857,23.6932947 58.5015219,23.2645183 58.0628029,22.7389174 C57.6533294,22.2133263 57.3316007,21.6185789 57.0976169,20.9546655 C56.8636331,20.2907522 56.7466407,19.5991803 56.7466407,18.87994 C56.7466407,16.5839263 57.682577,14.6613619 59.5544537,13.1122276 C61.367828,11.590781 63.4883092,10.8300334 65.9159035,10.8300334 C68.6944566,10.8300334 70.7564416,11.3003171 72.1018657,12.2408456 C72.2480903,12.3515091 72.3797065,12.462163 72.4967144,12.5727974 C72.6136914,12.683461 72.6283152,12.8356027 72.5405899,13.0292323 C72.3943345,13.3888622 72.0872296,13.5271843 71.6192764,13.4441794 C71.4437733,13.361223 71.2682857,13.264379 71.0928115,13.1537155 C70.9465571,13.0154128 70.7856933,12.8909296 70.610219,12.780266 C69.5280283,12.2823529 67.9047634,12.0333866 65.740419,12.0333672 C64.9799611,12.0333866 64.2048886,12.1578698 63.4151985,12.4068166 C62.625496,12.6558024 61.8942949,13.0015835 61.2215952,13.4441794 C60.5488862,13.8867948 60.0077975,14.4262249 59.5983282,15.0624602 C59.1888536,15.698715 58.9841174,16.4179552 58.9841195,17.2201713 C58.9841174,18.1330509 59.2473499,18.9352767 59.7738168,19.6268389 C60.3002786,20.3184205 61.0607262,20.6642016 62.0551649,20.6642016 C63.6345523,20.6642016 64.6582334,19.7236634 65.1262093,17.842587 C65.2431935,17.3723227 65.4479297,17.1371858 65.740419,17.137176 C65.9743936,17.1371858 66.1498822,17.3584934 66.2668839,17.8010894 C66.4716098,18.7416373 66.9249547,19.4608678 67.6269174,19.9588004 C68.3581072,20.4290744 69.2355483,20.6642016 70.2592418,20.6642016 C71.2829095,20.6642016 72.057982,20.4844013 72.5844623,20.1247714 C73.1401583,19.765161 73.5203832,19.364053 73.7251358,18.9214376 C73.3448945,19.364053 72.8330545,19.6821755 72.1896137,19.8758052 C71.546142,20.0417957 70.9026847,20.0694542 70.2592418,19.9587615 C69.6450197,19.8481077 69.1039321,19.5991414 68.6359758,19.2118627 C68.1679948,18.7969253 67.934011,18.2159975 67.9340223,17.4690987 C67.934011,17.026493 68.0363744,16.6392143 68.2411271,16.3072528 C68.445851,15.9753107 68.7090834,15.6986761 69.0308244,15.4773684 C69.3525397,15.2560704 69.7035159,15.0900897 70.0837542,14.9794358 C70.4932133,14.8411234 70.8734371,14.7719671 71.2244277,14.7719574 C72.6868145,14.7443377 73.754367,15.1730849 74.4270894,16.0582865 C75.0997757,16.9158489 75.4361467,17.9808703 75.4361467,19.2533505 M71.7508926,18.5064517 C72.2480934,18.5064614 72.5990696,18.368149 72.8038223,18.0915144 C73.0377907,17.8148895 73.1401583,17.5244256 73.1109272,17.2201324 C73.1109107,16.8881806 72.9646707,16.5977264 72.6722061,16.3487504 C72.4089582,16.0997938 72.0433582,15.98914 71.575404,16.0167888 C71.1074209,16.0445058 70.7564447,16.1966086 70.5224742,16.4732335 C70.3177246,16.7498681 70.2299808,17.040332 70.2592418,17.3446155 C70.288475,17.6489087 70.4200922,17.9255433 70.6540904,18.1744999 C70.9173095,18.4234759 71.2829095,18.53412 71.7508926,18.5064517 M103.254294,7.17852464 C102.025852,8.00842846 100.768187,8.79682494 99.4812996,9.54370434 C98.2236038,10.2906226 96.9220736,11.0236922 95.5766783,11.742913 C95.1671873,11.9642304 94.7723387,12.0748648 94.3921323,12.0748648 C94.0118951,12.0748648 93.6316682,12.0057183 93.2514619,11.8673962 C92.9004681,11.7290934 92.549495,11.5492834 92.1985321,11.327966 C91.8767891,11.1066777 91.5404366,10.9130384 91.1894738,10.7470479 C90.6629955,10.4427644 90.1950279,10.1384712 89.7855678,9.83416825 C89.4053306,9.50222617 89.2152305,9.12877674 89.2152305,8.71381997 C89.2152305,8.32655097 89.4053306,7.95311126 89.7855678,7.59347169 C90.1657793,7.23387101 90.6045003,7.09555857 91.10173,7.17852464 C91.511188,7.23386128 91.8914129,7.39985177 92.2424076,7.67645721 C92.622614,7.92544294 92.9443436,8.21590685 93.2075864,8.5478392 C93.500052,8.85215186 93.7632844,9.18410366 93.9972837,9.54370434 C94.2605058,9.90334392 94.5091062,10.2076371 94.7431158,10.456584 C95.3865545,9.8756756 95.9861384,9.35008443 96.5418673,8.87980073 C97.0975551,8.38187789 97.62402,7.89778434 98.1212619,7.42749092 C98.6477062,6.95724613 99.1887928,6.48697215 99.744532,6.01668846 C100.329463,5.51877534 100.987544,4.96551585 101.718775,4.35690998 C102.245209,3.85899686 102.757052,3.6515282 103.254294,3.73449427 C103.751485,3.78983092 104.146334,3.99730931 104.43884,4.35690998 C104.906777,4.93784752 104.965274,5.46344842 104.614332,5.93369321 C104.263328,6.40398663 103.809982,6.81892396 103.254294,7.17852464 M103.122678,17.8840749 C103.122678,22.2548239 101.221533,24.4401935 97.4193053,24.4401935 C96.1616198,24.4401935 95.0209494,24.1912272 93.9972837,23.6932947 C93.0028409,23.1676938 92.315506,22.2133263 91.9352987,20.8301824 C91.2625804,21.8537061 90.3120193,22.7250881 89.0836143,23.4443284 C87.8844342,24.1359003 86.6121455,24.4816814 85.266744,24.4816814 C84.2138081,24.4816814 83.2193745,24.3295397 82.2834434,24.0252465 C81.3475019,23.6932947 80.5285571,23.2368597 79.8266066,22.6559319 C79.1539007,22.0473552 78.6128121,21.328115 78.2033406,20.4982209 C77.8231158,19.6406779 77.6330034,18.6863104 77.6330034,17.6351086 C77.6330034,16.5839263 77.8231158,15.643388 78.2033406,14.8134939 C78.5835645,13.955951 79.0954045,13.2228911 79.7388628,12.614295 C80.4115657,12.0057183 81.2012619,11.5354541 82.1079547,11.2034828 C83.0438869,10.8438821 84.067568,10.6640526 85.1790002,10.6640526 C87.2556018,10.6640526 88.9081143,11.3141464 90.136544,12.614295 C91.3941966,13.9144631 92.1253967,15.477417 92.3301483,17.3031568 C92.6518574,18.2160364 93.2221978,18.9906036 94.0411592,19.6268389 C94.8893331,20.2630936 95.8106467,20.5812161 96.8050997,20.5812161 C98.0042469,20.5812161 99.0425549,20.2077667 99.9200135,19.4608678 C100.797431,18.713969 101.236155,17.7596015 101.236176,16.5977556 C101.236155,15.2976069 100.738934,14.2879125 99.744532,13.5686625 C98.7793224,12.8494417 97.6825172,12.392997 96.4541266,12.199348 C95.9568846,12.1163916 95.5474142,12.0887136 95.2257051,12.1163916 C94.9332086,12.1164013 94.5968572,12.1025818 94.2166509,12.0748648 C93.7779062,11.9919085 93.500052,11.8259083 93.3830781,11.5769322 C93.3245706,11.4386295 93.3684769,11.3003171 93.5146943,11.1619852 C93.6901654,11.0236922 93.8510251,10.9268677 93.9972837,10.871531 L94.9624727,10.871531 C97.3900413,10.8715407 99.3496525,11.4801271 100.841327,12.6972805 C102.362204,13.9144631 103.122678,15.643388 103.122678,17.8840749 M90.2242878,16.7637266 C90.2827748,16.0721644 90.1365265,15.4497487 89.7855678,14.8964795 C89.4638268,14.3432394 89.0397306,13.8729655 88.513277,13.485677 C87.9868018,13.098408 87.4018418,12.8079441 86.7583948,12.614295 C86.1149293,12.392997 85.471472,12.2823335 84.8280229,12.2823335 C84.0968156,12.3376701 83.4387356,12.4898216 82.8537796,12.7387781 C82.2688144,12.9877542 81.7569744,13.3058767 81.3182574,13.6931457 C80.9087819,14.0804341 80.5870533,14.5368788 80.3530715,15.0624602 C80.1483332,15.5604025 80.0459677,16.0721644 80.0459677,16.5977556 C80.0459677,17.2616689 80.2068294,17.842587 80.5285601,18.3405196 C80.8502857,18.8384521 81.2451333,19.2533992 81.7131061,19.585351 C82.2103182,19.8896442 82.7367831,20.1386105 83.2925007,20.3322498 C83.848207,20.4982306 84.3600481,20.5812161 84.8280229,20.5812161 C85.3837282,20.5812161 85.9686892,20.5258795 86.5829061,20.4152354 C87.2263532,20.2769229 87.8113142,20.0694542 88.3377894,19.7928196 C88.8934905,19.5161948 89.3468354,19.128916 89.697823,18.6309737 C90.0487879,18.1330509 90.2242755,17.5106352 90.2242878,16.7637266 M120.803127,13.9006143 C120.832329,14.9794844 120.539843,15.8370274 119.925679,16.4732724 C119.340675,17.1095272 118.56561,17.4276399 117.600462,17.4276399 C117.044713,17.4276399 116.53287,17.3031665 116.064943,17.0541905 C115.626178,16.8052339 115.260583,16.4871114 114.968138,16.099823 C114.704864,15.7125443 114.58788,15.2837776 114.617165,14.8134939 C114.646367,14.3432394 114.865734,13.9006241 115.275246,13.485677 L105.447895,13.485677 C105.038393,13.4856867 104.775161,13.3889108 104.658197,13.1952131 C104.541182,13.0015835 104.482716,12.6972903 104.482716,12.2823335 C104.482716,11.7014251 104.555825,11.3418147 104.702073,11.2034828 C104.877534,11.0651801 105.287004,10.9960142 105.930494,10.9960142 L116.108808,10.9960142 C119.150562,10.9960142 120.715335,11.9642304 120.803127,13.9006143 M119.048241,14.8964795 C118.960428,14.0666048 118.273124,13.5825015 116.986257,13.4441794 C116.605988,13.6931554 116.37201,13.955951 116.2843,14.2325759 C116.225792,14.4815519 116.196487,14.7028498 116.19659,14.8964795 C116.196549,15.2007824 116.328165,15.477417 116.591439,15.7263736 C116.883874,15.9476813 117.205603,16.0583254 117.556617,16.0583254 C118.053798,16.0583254 118.434025,15.9476813 118.697298,15.7263736 C118.96049,15.477417 119.077474,15.2007824 119.048271,14.8964795 M112.95005,21.2036318 C112.599046,22.14417 111.926333,22.9325665 110.931941,23.5688115 C109.937468,24.1773979 108.913792,24.4816814 107.860893,24.4816814 C107.071165,24.4816814 106.325343,24.343369 105.623417,24.0667441 C104.950683,23.7624509 104.3511,23.3751722 103.824666,22.9048982 C103.327424,22.4069656 102.903321,21.8813745 102.552369,21.328115 C102.201375,20.7748555 102.025904,20.1247812 102.025904,19.3778726 L102.333012,18.2990219 C102.391519,18.1330509 102.479229,17.9532408 102.596244,17.7595917 C102.713208,17.5659621 102.874078,17.3446544 103.078834,17.0956881 C103.108036,17.2616689 103.122637,17.4276497 103.12274,17.5936207 L103.166646,18.1745388 C103.254356,18.6448128 103.44447,19.0597598 103.736976,19.4193702 C104.058685,19.7789903 104.409659,20.0417957 104.789906,20.2077667 C105.170102,20.3737475 105.564951,20.4982306 105.974452,20.5812161 C106.383902,20.6365528 106.822616,20.6641725 107.290614,20.6641725 C107.817048,20.6641725 108.343513,20.5674063 108.870009,20.3737086 C109.425697,20.1524106 109.908286,19.889615 110.317787,19.5853218 C110.727227,19.25337 111.063578,18.8660913 111.326852,18.4234759 C111.590043,17.98088 111.721659,17.4829474 111.7217,16.9296782 C111.721659,16.2934429 111.546178,15.7125151 111.195235,15.1869142 C110.844221,14.6613328 110.332378,14.2463857 109.659706,13.9420828 C109.016216,13.6377993 108.358145,13.4856576 107.685463,13.4856478 C107.012729,13.4856576 106.398524,13.4856576 105.842836,13.4856478 C105.63807,13.5133648 105.447967,13.444121 105.272506,13.2781694 C105.096983,13.0845398 104.950745,12.9323981 104.833782,12.8217345 C104.745969,12.6834318 104.672891,12.53129 104.614425,12.3652995 C104.585119,12.1993285 104.570518,12.0610161 104.570518,11.9503525 C104.570487,11.5630835 104.672829,11.3141172 104.877626,11.2034536 C105.111574,11.0651509 105.521055,10.995985 106.106037,10.995985 C106.983455,10.995985 107.904768,11.1619755 108.869978,11.4939175 C109.835136,11.7982205 110.654077,12.3099823 111.326821,13.0292032 C111.853245,13.5824724 112.248093,14.1495612 112.511367,14.7304793 C112.803812,15.3114071 113.008547,15.8784959 113.125572,16.4317456 C113.27178,16.9573465 113.35952,17.4137912 113.388805,17.8010602 C113.418007,18.1606803 113.418007,18.6309543 113.388805,19.2118724 C113.388764,19.7651319 113.242526,20.4290452 112.950081,21.2036027" id="te-wordmark" fill="#000000" fill-rule="nonzero"></path>
    </g>
</svg>