<?xml version="1.0" encoding="UTF-8"?>
<svg id="Layer_2" data-name="Layer 2" xmlns="http://www.w3.org/2000/svg" viewBox="0 0 119 10.34">
  <defs>
    <style>
      .cls-1 {
        stroke-width: 0px;
      }
    </style>
  </defs>
  <g id="svg3857">
    <path id="The_Free_Encyclopedia" data-name="The Free Encyclopedia" class="cls-1" d="m43.95,0c-.28.11-1.11.26-1.55.3-.02.09,0,.27.07.33.57.03.71-.02.71.91v5.39c0,.43-.01.63-.04.78.06.09.11.13.24.13.07-.06.18-.16.25-.26.12-.13.19-.13.31-.02.24.21.58.27.97.27,1.13,0,2.44-1.03,2.44-2.78,0-1.35-.99-2.18-1.96-2.18-.47,0-.89.19-1.24.5-.08.07-.11.04-.11-.06V1.27c0-.72.04-1.16.04-1.16,0-.08-.04-.11-.14-.11h0ZM104.57,0c-.28.11-1.1.26-1.54.3-.02.09,0,.27.07.33.64.04.71.08.71.91v4.83c0,.92-.12.97-.8,1-.07.07-.07.3,0,.37.39-.01.8-.02,1.24-.02s.86.01,1.22.02c.07-.07.07-.3,0-.37-.67-.03-.79-.09-.79-1V1.27c0-.72.04-1.16.04-1.16,0-.08-.05-.11-.14-.11h0ZM.05.56C-.02.63-.02.86.05.93c.77.03.96.09.96,1v4.43c0,.92-.19.97-.96,1-.07.07-.07.3,0,.37.43-.01,1.02-.02,1.44-.02.39,0,.68.02,1.61.02,2.2,0,2.78-1.1,2.78-2.05,0-1.06-.74-1.67-1.7-1.94v-.02c.55-.28,1.05-.84,1.05-1.45,0-.74-.32-1.7-2.37-1.7-.39,0-.98.02-1.38.02s-.99-.01-1.42-.02h0Zm59.71.23c-.47,0-.73.43-.88,1.08.07.07.18.08.3.05.11-.36.22-.53.51-.53.19,0,.4.09.6.21.23.15.46.35.71.35.51,0,.83-.43.96-1.09-.07-.04-.18-.08-.3-.07-.15.46-.28.57-.52.57-.21,0-.4-.08-.57-.21-.22-.15-.46-.38-.79-.38h0ZM2.91.94c.62,0,1.42.33,1.42,1.46,0,.94-.65,1.27-1.57,1.27h-.82V1.63c0-.59,0-.7.96-.7h0Zm18.94,1.67c-.29,0-.82.19-1.11.56-.13-.09-.5-.31-1.15-.31-.98,0-1.89.66-1.89,1.68,0,.6.26.94.57,1.24-.31.27-.48.74-.48,1.12,0,.4.22.71.51.85-.6.35-.91.86-.91,1.34,0,.96.91,1.26,1.76,1.26,1.49,0,3.1-.72,3.1-1.91,0-.35-.17-.63-.49-.89-.43-.35-1.2-.37-1.61-.37-.2,0-.48.02-.74.06-.17.01-.28.02-.33.02-.32,0-.71-.15-.71-.63,0-.22.07-.45.2-.64.27.15.58.23,1.01.23.97,0,1.87-.61,1.87-1.69,0-.52-.15-.82-.47-1.15.08-.11.3-.27.44-.27.08,0,.15.03.22.13.04.09.19.2.31.2.21,0,.41-.2.41-.42,0-.23-.21-.41-.51-.41h0Zm-9.01.22c-.31.12-.6.22-1.36.32-.02.07,0,.24.02.31.6.06.72.11.72.75v2.15c0,.91-.11.95-.77,1-.07.07-.07.3,0,.37.33-.01.77-.02,1.21-.02s.77.01,1.11.02c.07-.07.07-.3,0-.37-.56-.06-.67-.1-.67-1v-1.81c0-.23.1-.36.19-.46.42-.41.92-.65,1.35-.65.22,0,.45.14.59.4.11.22.13.52.13.85v1.68c0,.91-.11.95-.69,1-.06.07-.06.3,0,.37.33-.01.69-.02,1.13-.02s.84.01,1.17.02c.06-.07.06-.3,0-.37-.62-.06-.74-.1-.74-1v-1.65c0-.61-.04-1.14-.3-1.48-.19-.24-.53-.38-.92-.38-.54,0-1.16.14-1.81.89-.08.08-.13.11-.13,0-.01-.3-.04-.72-.09-.84-.03-.04-.04-.09-.13-.09h0Zm11.34,0c-.31.12-.6.22-1.36.32-.02.07,0,.24.02.31.6.06.72.11.72.75v2.15c0,.92-.13.96-.82,1-.07.07-.07.3,0,.37.39-.01.82-.02,1.26-.02s.95.01,1.34.02c.07-.07.07-.3,0-.37-.77-.06-.91-.09-.91-1v-1.54c0-.29.13-.54.27-.74.12-.18.38-.54.51-.54.1,0,.2.03.28.14.09.11.21.25.41.25.27,0,.52-.28.52-.55,0-.21-.2-.53-.66-.53-.52,0-.97.49-1.23.92-.07.12-.12.03-.12-.02-.02-.44-.04-.72-.09-.84-.03-.04-.04-.09-.13-.09h0Zm25.19,0c-.31.12-.6.22-1.36.32-.02.07,0,.24.02.31.6.06.72.11.72.75v2.15c0,.92-.13.96-.82,1-.07.07-.07.3,0,.37.39-.01.82-.02,1.26-.02s.95.01,1.34.02c.07-.07.07-.3,0-.37-.77-.06-.9-.09-.9-1v-1.54c0-.29.13-.54.26-.74.12-.18.38-.54.51-.54.1,0,.2.03.28.14.09.11.21.25.41.25.27,0,.52-.28.52-.55,0-.21-.2-.53-.66-.53-.52,0-.97.49-1.22.92-.07.12-.12.03-.12-.02-.02-.44-.05-.72-.09-.84-.03-.04-.04-.09-.13-.09h0Zm15.08,0c-.31.12-.6.22-1.36.32-.02.07,0,.24.02.31.6.06.72.11.72.75v2.15c0,.91-.11.95-.77,1-.07.07-.07.3,0,.37.33-.01.77-.02,1.21-.02s.77.01,1.11.02c.07-.07.07-.3,0-.37-.56-.06-.67-.1-.67-1v-1.81c0-.23.1-.36.19-.46.42-.41.92-.65,1.35-.65.22,0,.45.14.58.4.11.22.13.52.13.85v1.68c0,.91-.11.95-.68,1-.06.07-.06.3,0,.37.33-.01.68-.02,1.12-.02s.84.01,1.17.02c.06-.07.06-.3,0-.37-.62-.06-.74-.1-.74-1v-1.65c0-.61-.04-1.14-.3-1.48-.19-.24-.53-.38-.92-.38-.54,0-1.16.14-1.81.89-.08.08-.13.11-.13,0-.01-.3-.04-.72-.09-.84-.03-.04-.04-.09-.13-.09h0Zm47.59,0c-.31.12-.6.22-1.36.32-.02.07,0,.24.02.31.6.06.72.11.72.75v2.15c0,.91-.14.96-.75,1-.07.07-.07.3,0,.37.33-.01.75-.02,1.19-.02s.77.01,1.1.02c.07-.07.07-.3,0-.37-.55-.06-.67-.1-.67-1v-1.81c0-.23.1-.36.19-.46.43-.42.85-.65,1.19-.65.42,0,.73.27.73,1.01v1.92c0,.91-.09.96-.68,1-.06.07-.06.3,0,.37.28-.01.69-.02,1.13-.02s.81.01,1.08.02c.06-.07.06-.3,0-.37-.55-.04-.65-.1-.65-1v-1.76c0-.15,0-.31-.01-.44.53-.59,1.03-.73,1.46-.73s.66.24.66.98v1.95c0,.91-.11.96-.69,1-.06.07-.06.3,0,.37.28-.01.69-.02,1.13-.02s.83.01,1.14.02c.06-.07.06-.3,0-.37-.61-.04-.71-.1-.71-1v-1.75c0-.98-.17-1.76-1.14-1.76-.57,0-1.25.21-1.82.82-.03.03-.1.09-.12,0-.11-.45-.53-.82-1.1-.82-.64,0-1.23.39-1.68.89-.06.07-.13.13-.13,0-.02-.32-.04-.72-.09-.84-.03-.04-.04-.09-.13-.09h0Zm-103.38.03c-.91,0-1.82.6-1.82,1.23,0,.27.13.4.39.4.32,0,.52-.23.52-.38,0-.08-.01-.16-.03-.2-.01-.03-.02-.1-.02-.22,0-.34.47-.46.88-.46.38,0,.89.19.89,1.44,0,.08-.03.12-.07.13l-.95.23c-1.06.27-1.82.85-1.82,1.6,0,.91.62,1.19,1.39,1.19.38,0,.72-.09,1.2-.46l.22-.18h.02c.07.34.18.64.74.64.42,0,.82-.19,1.05-.41-.02-.13-.07-.22-.19-.3-.09.08-.28.18-.41.18-.32,0-.33-.43-.33-.94v-1.62c0-1.57-.86-1.87-1.67-1.87h0Zm26.88,0c-.82,0-1.56.53-1.56,1.24,0,.81.36,1.15,1.21,1.5.92.38,1.13.61,1.13,1.08,0,.54-.53.77-.94.77-.43,0-.67-.14-.79-.26-.24-.25-.36-.74-.43-1.02-.07-.07-.28-.05-.34.01.04.54.08,1.06.08,1.52.11-.02.22-.03.28-.03.08,0,.14,0,.22.02.3.08.6.12,1,.12.62,0,1.76-.3,1.76-1.39,0-.75-.54-1.19-1.29-1.47-.67-.24-1.11-.42-1.11-1.03,0-.45.4-.71.77-.71.24,0,.88.09,1.03,1.03.07.07.29.05.35-.01.03-.4.06-.81.07-1.17-.34-.06-.87-.21-1.45-.21h0Zm20.44,0c-.82,0-1.56.53-1.56,1.24,0,.81.36,1.15,1.21,1.5.92.38,1.13.61,1.13,1.08,0,.54-.53.77-.94.77-.43,0-.67-.14-.78-.26-.24-.25-.37-.74-.43-1.02-.07-.07-.28-.05-.34.01.04.54.08,1.06.08,1.52.11-.02.22-.03.28-.03.08,0,.14,0,.22.02.3.08.6.12,1.01.12.62,0,1.76-.3,1.76-1.39,0-.75-.54-1.19-1.29-1.47-.67-.24-1.1-.42-1.1-1.03,0-.45.4-.71.77-.71.24,0,.88.09,1.03,1.03.07.07.29.05.35-.01.03-.4.06-.81.07-1.17-.34-.06-.87-.21-1.45-.21h0Zm22.79,0c-.91,0-1.82.6-1.82,1.23,0,.27.13.4.39.4.32,0,.52-.23.52-.38,0-.08-.01-.16-.03-.2-.01-.03-.02-.1-.02-.22,0-.34.46-.46.88-.46.38,0,.89.19.89,1.44,0,.08-.03.12-.07.13l-.95.23c-1.06.27-1.82.85-1.82,1.6,0,.91.62,1.19,1.39,1.19.38,0,.72-.09,1.21-.46l.22-.18h.02c.07.34.18.64.74.64.42,0,.82-.19,1.05-.41-.02-.13-.07-.22-.19-.3-.09.08-.28.18-.41.18-.32,0-.33-.43-.33-.94v-1.62c0-1.57-.86-1.87-1.67-1.87h0Zm4.94,0c-.91,0-1.82.6-1.82,1.23,0,.27.13.4.39.4.32,0,.52-.23.52-.38,0-.08-.01-.16-.03-.2-.01-.03-.02-.1-.02-.22,0-.34.47-.46.88-.46.38,0,.89.19.89,1.44,0,.08-.03.12-.07.13l-.95.23c-1.06.27-1.82.85-1.82,1.6,0,.91.62,1.19,1.39,1.19.38,0,.72-.09,1.2-.46l.22-.18h.02c.07.34.18.64.74.64.42,0,.82-.19,1.05-.41-.02-.13-.07-.22-.19-.3-.09.08-.28.18-.41.18-.32,0-.33-.43-.33-.94v-1.62c0-1.57-.86-1.87-1.67-1.87h0Zm5.39,0s-.07.04-.07.07c-.01.5-.06.88-.16,1.42.09.04.23.07.36.03.22-.81.56-.99.89-1l1.41-.03c-.75,1.26-1.86,2.85-2.72,4.01-.1.13-.1.17-.1.22,0,.08.09.13.25.13l3.45.03c.13-.38.28-.95.35-1.5-.08-.03-.2-.07-.33-.07l-.15.32c-.29.59-.51.83-1.08.84h-1.47c.82-1.04,1.97-2.77,2.65-3.9.17-.28.2-.36.2-.41s-.06-.08-.13-.08c-.06,0-.36.02-.68.02h-2.02c-.36,0-.5-.05-.65-.11h0Zm6.22,0c-.91,0-1.82.6-1.82,1.23,0,.27.13.4.39.4.32,0,.52-.23.52-.38,0-.08-.01-.16-.03-.2-.01-.03-.02-.1-.02-.22,0-.34.47-.46.88-.46.38,0,.89.19.89,1.44,0,.08-.03.12-.07.13l-.95.23c-1.06.27-1.82.85-1.82,1.6,0,.91.62,1.19,1.39,1.19.38,0,.72-.09,1.2-.46l.22-.18h.02c.07.34.18.64.74.64.42,0,.82-.19,1.05-.41-.02-.13-.07-.22-.19-.3-.09.08-.28.18-.41.18-.32,0-.33-.43-.33-.94v-1.62c0-1.57-.86-1.87-1.67-1.87h0Zm4.94,0c-.91,0-1.82.6-1.82,1.23,0,.27.13.4.39.4.32,0,.52-.23.52-.38,0-.08-.01-.16-.03-.2-.01-.03-.02-.1-.02-.22,0-.34.46-.46.88-.46.38,0,.89.19.89,1.44,0,.08-.03.12-.07.13l-.95.23c-1.06.27-1.82.85-1.82,1.6,0,.91.62,1.19,1.39,1.19.38,0,.72-.09,1.2-.46l.22-.18h.02c.07.34.18.64.74.64.42,0,.82-.19,1.05-.41-.02-.13-.07-.22-.19-.3-.09.08-.28.18-.41.18-.32,0-.33-.43-.33-.94v-1.62c0-1.57-.86-1.87-1.67-1.87h0Zm-71.27.02c-.96,0-2.21.92-2.21,2.6,0,.62.15,1.22.52,1.63.38.44.89.71,1.69.71.84,0,1.44-.39,1.88-.96-.03-.11-.1-.16-.23-.18-.41.42-.73.6-1.37.6-.4,0-.86-.23-1.2-.79-.22-.36-.35-.87-.35-1.51l2.94.02c.13,0,.21-.07.21-.19,0-.93-.33-1.92-1.87-1.92h0Zm11.13,0c-.96,0-2.21.92-2.21,2.6,0,.62.15,1.22.52,1.63.38.44.9.71,1.69.71.84,0,1.44-.39,1.88-.96-.03-.11-.1-.16-.23-.18-.41.42-.73.6-1.37.6-.4,0-.86-.23-1.2-.79-.22-.36-.35-.87-.35-1.51l2.94.02c.13,0,.21-.07.21-.19,0-.93-.33-1.92-1.87-1.92h0Zm20.44,0c-.96,0-2.21.92-2.21,2.6,0,.62.16,1.22.52,1.63.38.44.89.71,1.69.71.84,0,1.44-.39,1.88-.96-.03-.11-.1-.16-.23-.18-.41.42-.73.6-1.37.6-.4,0-.86-.23-1.2-.79-.22-.36-.35-.87-.35-1.51l2.94.02c.13,0,.21-.07.21-.19,0-.93-.33-1.92-1.87-1.92h0Zm47.62,0c-.96,0-2.21.92-2.21,2.6,0,.62.16,1.22.52,1.63.38.44.89.71,1.69.71.84,0,1.44-.39,1.88-.96-.03-.11-.1-.16-.23-.18-.41.42-.73.6-1.37.6-.4,0-.86-.23-1.2-.79-.22-.36-.35-.87-.35-1.51l2.94.02c.13,0,.21-.07.21-.19,0-.93-.33-1.92-1.87-1.92h0Zm-37.24.07c-.07.07-.07.3,0,.37.43.06.57.15.86.83l1.26,2.9c.09.23.26.73.15,1.04-.13.38-.26.67-.43,1.02-.12.22-.28.32-.55.32-.15,0-.2-.03-.32-.03-.32,0-.49.33-.49.47,0,.23.22.41.52.41.23,0,.67-.09,1.07-.79.17-.3.31-.62.45-.95.88-2.13,1.37-3.26,1.95-4.51.21-.46.38-.64.89-.71.07-.07.07-.3,0-.37-.22.01-.47.02-.78.02-.33,0-.67-.01-1.01-.02-.07.07-.07.3,0,.37.34.03.71.1.53.5l-1.11,2.53c-.08.19-.16.21-.26,0l-.97-2.3c-.2-.46-.25-.66.37-.72.07-.07.07-.3,0-.37-.41.01-.85.02-1.25.02-.38,0-.67-.01-.89-.02h0Zm-51.43.25c.7,0,1.07.51,1.07,1.43,0,1.03-.52,1.24-.93,1.24-.93,0-1.03-.78-1.03-1.49,0-.77.28-1.17.88-1.17h0Zm9.48.04c.42,0,.92.23.92,1.16,0,.1-.04.15-.17.15l-2,.03c.21-1.25.98-1.35,1.25-1.35h0Zm11.13,0c.42,0,.92.23.92,1.16,0,.1-.04.15-.17.15l-2,.03c.21-1.25.98-1.35,1.25-1.35h0Zm20.44,0c.42,0,.92.23.92,1.16,0,.1-.04.15-.17.15l-2,.03c.21-1.25.98-1.35,1.25-1.35h0Zm47.62,0c.42,0,.92.23.92,1.16,0,.1-.04.15-.17.15l-2,.03c.21-1.25.98-1.35,1.25-1.35h0Zm-62.99.1c.67,0,1.23.82,1.23,1.89,0,1.26-.51,2.21-1.56,2.21-.34,0-.57-.24-.79-.52v-2.76c0-.23.04-.33.19-.46.29-.25.62-.35.94-.35h0ZM1.95,4.04h.76c1.51,0,2.14.85,2.14,1.84,0,.81-.31,1.48-1.99,1.48-.77,0-.92-.29-.92-.96v-2.36Zm7.51,1.09v1.46c0,.14-.07.22-.16.29-.29.23-.66.49-.97.49-.55,0-.79-.44-.79-.78,0-.5.23-1.01,1.05-1.21l.87-.23Zm70.11,0v1.46c0,.14-.07.22-.15.29-.29.23-.66.49-.97.49-.55,0-.79-.44-.79-.78,0-.5.23-1.01,1.05-1.21l.87-.23Zm4.94,0v1.46c0,.14-.07.22-.16.29-.29.23-.66.49-.97.49-.55,0-.79-.44-.79-.78,0-.5.23-1.01,1.05-1.21l.87-.23Zm11.61,0v1.46c0,.14-.07.22-.15.29-.29.23-.66.49-.97.49-.55,0-.79-.44-.79-.78,0-.5.23-1.01,1.05-1.21l.87-.23Zm4.94,0v1.46c0,.14-.07.22-.15.29-.29.23-.66.49-.97.49-.55,0-.79-.44-.79-.78,0-.5.23-1.01,1.05-1.21l.87-.23ZM18.5,7.82c.12.03.3.05.44.05.34,0,.65-.03.8-.03.55,0,1.02.01,1.34.19.43.24.56.4.56.69,0,.8-1.17,1.21-2.16,1.21-.4,0-1.33-.32-1.33-1.07,0-.38.02-.65.34-1.04h0Z"/>
  </g>
</svg>