<svg xmlns="http://www.w3.org/2000/svg" width="120" height="9"><path fill="#000" fill-rule="nonzero" d="M.015 8.816c-.027-.08-.014-.25.021-.292.019-.022.064-.031.16-.031.304 0 .655-.1.768-.217.072-.075.133-.223.164-.4.04-.224.04-5.98 0-6.203-.051-.289-.149-.437-.344-.52a1.78 1.78 0 0 0-.567-.1c-.117 0-.162-.007-.181-.03C.002.982-.013.78.013.712l.019-.05h3.324l.02.058a.38.38 0 0 1-.007.26l-.028.067-.237.012c-.58.03-.77.175-.847.644-.012.07-.02.673-.02 1.442v1.321l.115-.017c.248-.038.51-.159.694-.32.124-.11 2.258-2.34 2.39-2.498.19-.228.253-.394.178-.47-.046-.046-.226-.088-.43-.102-.169-.01-.185-.016-.206-.06C4.952.941 4.95.735 4.976.694c.017-.026.19-.03 1.35-.03l1.33-.002.02.06a.381.381 0 0 1-.009.262c-.025.06-.038.07-.096.07-.236 0-.768.134-.993.25-.303.156-.444.29-1.506 1.435-1.113 1.199-1.274 1.38-1.324 1.485-.041.087-.03.19.035.294.037.062 1.056 1.277 2.588 3.088.442.523.607.678.812.766.105.044.452.121.55.121.08 0 .11.055.11.2 0 .209.111.19-1.135.19-.89 0-1.093-.005-1.101-.027a.95.95 0 0 1-.01-.17c-.001-.2-.046-.39-.13-.548C5.384 7.98 3.34 5.483 3.12 5.27c-.198-.192-.431-.293-.757-.329l-.125-.014v1.398c0 1.396.006 1.546.072 1.743.09.268.33.391.813.418.133.007.223.021.235.037.033.04.047.217.022.291l-.022.068H.037l-.022-.067Zm10.82.165a21.167 21.167 0 0 0-.237-.04 2.65 2.65 0 0 1-1.085-.446c-.489-.371-.876-1.025-1.009-1.702-.054-.275-.049-.841.01-1.168.167-.929.681-1.677 1.402-2.04.801-.405 1.936-.365 2.71.094.521.31.946.963 1.12 1.724.047.204.057.299.065.625.01.42-.007.599-.087.904a3.303 3.303 0 0 1-.532 1.105c-.355.48-.821.761-1.487.897-.192.039-.748.07-.87.047Zm.974-.453c.304-.126.558-.356.686-.622.087-.178.16-.435.204-.714.042-.265.036-1.246-.01-1.539-.12-.77-.323-1.237-.69-1.583a1.337 1.337 0 0 0-.953-.364c-.38-.001-.67.11-.912.347-.254.251-.449.693-.55 1.25-.056.305-.052.98.007 1.29.052.275.136.573.222.787.182.452.523.875.838 1.038.269.14.431.175.775.167.226-.005.276-.012.383-.057Zm8.286.442a2.273 2.273 0 0 1-1.84-1.4 3.155 3.155 0 0 1-.218-1.217c0-.6.121-1.13.365-1.608.334-.654 1.055-1.22 1.75-1.375.323-.072.853-.044 1.252.065.25.069.54.22.693.363.335.314.55.806.61 1.397.03.307.014.421-.068.49l-.063.054-1.749-.015-1.748-.015.012.277c.036.854.296 1.5.796 1.975.133.127.217.187.372.266.28.142.438.175.785.16.55-.023.9-.172 1.312-.558l.132-.124.083.03c.055.018.095.05.12.093l.038.066-.11.134c-.24.292-.56.545-.904.715-.243.12-.425.177-.71.22a4.584 4.584 0 0 1-.91.008Zm.504-3.696c.581-.011.938-.026.963-.039.071-.038.087-.134.062-.383-.041-.412-.153-.698-.337-.861-.209-.185-.428-.265-.732-.266-.227-.001-.319.024-.59.16-.3.15-.424.28-.59.618a3.09 3.09 0 0 0-.239.705l-.014.085h.277c.152 0 .692-.01 1.2-.019Zm7.637 3.68a.924.924 0 0 1-.392-.262 1.365 1.365 0 0 1-.212-.479c-.032-.137-.036-.332-.042-2.234l-.007-2.085-.404-.005-.404-.005-.006-.11c-.008-.141.03-.254.102-.308.05-.038.09-.042.387-.049l.33-.007-.006-.757c-.005-.518 0-.764.015-.778.011-.012.214-.11.451-.219.437-.2.502-.217.558-.15.017.021.017.116 0 .378-.012.193-.022.616-.022.94v.59h.759c.452 0 .78.008.81.02.052.02.053.023.047.193-.01.272.044.256-.867.263l-.749.006V5.75c0 2.042.006 2.145.115 2.363.086.17.128.191.382.19.311 0 .618-.094.875-.268.102-.069.127-.073.206-.032.073.038.114.132.083.19-.031.059-.34.323-.498.428a2.095 2.095 0 0 1-1.19.372c-.14 0-.239-.012-.32-.039Zm5.02.009c-.919-.15-1.487-.556-1.922-1.373a3.316 3.316 0 0 1-.28-.835c-.04-.239-.04-.741-.001-1.016.098-.69.376-1.272.82-1.716.298-.3.61-.486 1-.599.31-.09.515-.118.84-.116.666.003 1.28.195 1.7.533.415.333.763.96.902 1.625.048.227.054.302.055.647 0 .453-.027.641-.147 1.002-.137.414-.392.859-.648 1.134-.328.352-.801.592-1.372.697-.24.044-.727.053-.947.017Zm1.048-.416c.26-.088.54-.303.68-.52.276-.425.384-1.357.267-2.3-.139-1.12-.577-1.796-1.288-1.985a1.823 1.823 0 0 0-.709-.001c-.378.093-.668.339-.851.723-.403.844-.414 1.98-.028 2.93.14.347.415.728.658.913.256.195.532.281.91.284.188 0 .254-.007.361-.043Zm2.816.29a.56.56 0 0 1 .004-.29c.02-.044.038-.05.2-.06.366-.027.572-.146.643-.374.075-.24.078-.404.07-3.7-.006-3.019-.008-3.217-.042-3.346-.067-.253-.2-.334-.595-.363-.183-.014-.194-.017-.218-.067a.688.688 0 0 1-.034-.175l-.01-.123.137-.014A10.381 10.381 0 0 0 38.75.05c.2-.058.223-.06.27-.034.061.035.059-.059.026.938-.013.39-.023 1.324-.023 2.075 0 1.176.003 1.367.028 1.377.02.007.095-.058.215-.183.353-.37.72-.629 1.082-.765.312-.117.504-.151.854-.153.354 0 .492.026.74.144.281.133.497.419.59.779.091.36.095.443.11 2.085.01 1.029.022 1.603.037 1.666a.92.92 0 0 0 .139.32c.086.096.394.194.606.194.066 0 .082.008.098.051.025.064.026.231.002.293l-.017.046h-1.324c-1.138-.001-1.326-.006-1.342-.03-.024-.04-.024-.244 0-.309.017-.042.033-.051.096-.051.104 0 .328-.05.408-.09.29-.146.317-.324.317-2.01 0-1.457-.02-1.684-.17-1.992a.87.87 0 0 0-.424-.41c-.296-.116-.813-.009-1.256.262-.315.193-.594.445-.687.619-.101.19-.108.31-.097 1.73.01 1.307.017 1.416.1 1.614.063.15.258.25.53.272.132.01.15.016.166.06.024.062.023.266 0 .304-.017.025-.206.03-1.353.03l-1.333.001-.018-.046Zm6.921-.024a.351.351 0 0 1 .008-.247c.028-.066.03-.067.195-.08.334-.025.561-.123.637-.272.108-.212.108-.204.116-1.96.004-1.088 0-1.673-.015-1.765-.028-.18-.088-.306-.178-.367-.1-.069-.294-.125-.482-.14l-.158-.014-.013-.102a.965.965 0 0 1-.006-.171l.007-.069.32-.046a8.373 8.373 0 0 0 1.166-.24c.129-.041.26-.073.29-.073.114.002.116.016.09.467-.016.268-.025 1.047-.026 2.25 0 1.672.003 1.853.034 1.987.047.2.106.314.193.373.107.074.308.13.516.143.168.01.185.016.205.06a.614.614 0 0 1 .003.295c-.015.04-.041.04-1.449.04l-1.433.001-.02-.07Zm1.226-6.958a.717.717 0 0 1-.395-.47c-.051-.2.004-.364.181-.53.157-.149.296-.208.465-.197a.699.699 0 0 1 .214.046c.184.09.344.33.364.546a.36.36 0 0 1-.04.231.817.817 0 0 1-.341.351c-.137.066-.335.077-.448.023Zm6.087.998c-.365-.076-.623-.449-.622-.898 0-.469.333-.972.785-1.19.174-.083.462-.17.486-.146a.503.503 0 0 1 .038.1l.027.09-.057.012c-.135.027-.332.144-.46.272-.172.174-.263.355-.275.552-.015.23.055.329.232.329.097 0 .29.05.355.092.123.081.199.325.148.478a.5.5 0 0 1-.276.278.805.805 0 0 1-.381.031Zm1.495 5.996a.596.596 0 0 1 .005-.305c.02-.044.037-.051.115-.052.14 0 .381-.049.498-.099.14-.06.213-.15.269-.325l.045-.145v-3.52l-.048-.105a.432.432 0 0 0-.235-.235 1.768 1.768 0 0 0-.444-.09c-.092 0-.098-.01-.116-.2-.014-.16-.047-.14.313-.19.52-.073.933-.16 1.284-.273.187-.06.195-.061.246-.028.052.034.053.037.042.218-.006.101-.017 1.086-.023 2.189-.013 2.104-.01 2.235.073 2.455a.46.46 0 0 0 .254.261c.095.041.345.087.478.087.127.001.153.035.153.202 0 .208.157.188-1.467.189-1.315 0-1.425-.002-1.442-.034Zm1.257-6.975c-.157-.048-.349-.238-.414-.412-.083-.222-.038-.414.138-.59.144-.143.272-.205.446-.215a.379.379 0 0 1 .245.046c.21.103.372.356.374.585.003.291-.334.61-.64.604a.688.688 0 0 1-.149-.018Zm2.119 6.969a.523.523 0 0 1 .002-.305c.022-.039.042-.045.143-.045.156 0 .398-.048.496-.097.163-.084.244-.23.284-.513.028-.198.028-6.455 0-6.659-.055-.39-.149-.472-.599-.518-.205-.022-.21-.024-.239-.082a.599.599 0 0 1-.037-.173L56.266.34l.138-.014A10.374 10.374 0 0 0 57.879.05c.2-.058.222-.06.27-.034l.052.03-.01.279c-.006.153-.01 1.926-.01 3.938 0 3.454.002 3.667.035 3.79.02.072.059.165.087.207.089.135.37.232.67.233.1 0 .114.005.134.05.028.062.03.268.004.31-.016.025-.21.029-1.441.03-1.403 0-1.423 0-1.445-.04Zm5.865.119a2.911 2.911 0 0 1-1.001-.342c-.564-.336-1.019-1.017-1.183-1.773-.036-.17-.044-.267-.044-.584 0-.215.01-.45.025-.54.161-1 .685-1.782 1.442-2.15a2.837 2.837 0 0 1 1.44-.262c.594.056 1.06.214 1.422.483.434.322.813.979.963 1.666.06.276.066 1.004.01 1.279-.142.7-.563 1.412-1.044 1.77-.252.187-.639.348-1.021.425a3.62 3.62 0 0 1-1.009.028Zm.997-.398c.247-.066.531-.26.686-.47.256-.345.374-.95.351-1.788-.023-.813-.162-1.414-.436-1.88a1.848 1.848 0 0 0-.257-.315c-.284-.282-.581-.404-.99-.405-.388-.001-.678.111-.92.356-.164.166-.24.288-.352.563-.402.983-.288 2.343.268 3.196.27.413.592.654.993.74.173.038.521.04.657.003Zm7.695.408c-.31-.078-.535-.32-.64-.693-.044-.156-.045-.157-.05-2.27l-.006-2.115h-.819v-.142c0-.157.033-.252.105-.298.034-.022.13-.031.383-.037l.338-.008-.011-.759-.012-.758.073-.046c.04-.024.247-.123.458-.219.323-.146.392-.17.434-.155.08.031.09.073.07.302-.009.115-.023.53-.03.923l-.015.714.804.006c.689.005.807.01.823.036.025.04.025.293 0 .34-.01.02-.056.05-.1.068-.07.028-.184.032-.802.032h-.72l.008 1.905c.006 1.613.012 1.928.038 2.055.073.356.172.46.436.46.278 0 .632-.105.876-.26a.587.587 0 0 1 .16-.08c.051 0 .12.054.156.124l.031.061-.126.129a2.454 2.454 0 0 1-.663.476c-.325.161-.521.212-.854.221a2.056 2.056 0 0 1-.345-.012Zm3.797-.01c-.472-.094-.833-.333-.99-.655a1.75 1.75 0 0 1-.142-.65c-.002-.752.624-1.383 1.738-1.756.115-.039.466-.133.78-.21.314-.076.604-.148.644-.158.115-.031.127-.085.1-.435-.064-.8-.225-1.124-.663-1.333-.128-.06-.134-.061-.42-.059a1.637 1.637 0 0 0-.448.045c-.187.05-.363.127-.428.189-.118.11-.165.302-.122.503.014.066.029.175.033.241.008.111.003.128-.06.22-.168.245-.612.31-.805.118-.12-.12-.139-.356-.049-.596.177-.473.83-.928 1.54-1.073a3.09 3.09 0 0 1 .87-.041c.548.072 1.058.391 1.263.791.15.29.232.638.266 1.12.01.154.02.798.02 1.43.002 1.239.01 1.374.105 1.558.061.118.19.2.337.215a.438.438 0 0 0 .371-.118c.072-.066.097-.079.124-.062.045.028.123.145.123.185 0 .05-.264.29-.414.38-.347.203-.814.237-1.139.084-.15-.071-.32-.252-.415-.444a.897.897 0 0 1-.072-.17c0-.016-.007-.028-.016-.028-.01 0-.115.077-.235.172-.415.326-.696.482-.973.537a3.67 3.67 0 0 1-.923 0Zm1.044-.49c.144-.034.513-.224.713-.368.239-.172.344-.276.37-.367.012-.045.02-.411.02-.949 0-.776-.003-.875-.03-.875-.068 0-1.158.302-1.288.357-.393.165-.63.368-.777.664a1.313 1.313 0 0 0-.144.622c0 .218.048.383.165.557a.84.84 0 0 0 .574.366c.103.017.306.013.397-.008Zm7.949.546c-.034-.006-.052-.033-.076-.115a3.371 3.371 0 0 1-.106-.55c-.014-.143-.017-.15-.067-.156-.038-.004-.087.021-.18.094-.38.3-.774.526-1.097.634-.158.052-.193.056-.49.056-.265 0-.35-.007-.496-.043-.348-.088-.596-.24-.768-.471a2.072 2.072 0 0 1-.29-.608c-.043-.152-.045-.194-.057-1.776-.008-1.173-.019-1.651-.037-1.736-.073-.34-.229-.479-.6-.53a.573.573 0 0 1-.172-.044c-.044-.036-.058-.186-.027-.282l.027-.084.899.003c.695.002.904.009.922.028.016.018.018.095.005.275-.029.426-.044 3.374-.018 3.618.063.6.258.893.693 1.043.142.048.41.052.579.009.378-.1 1.07-.6 1.128-.82.014-.053.021-.574.021-1.573 0-1.234-.005-1.52-.029-1.647-.068-.358-.225-.485-.667-.54-.088-.011-.109-.022-.125-.062a.527.527 0 0 1 .002-.28l.02-.057.904.005c.497.003.912.013.922.023.01.01.007.25-.006.564a56.727 56.727 0 0 0-.017 2.087c.006 1.513.007 1.542.049 1.643.065.16.139.24.275.306.127.06.379.121.502.121.096 0 .15.057.15.16 0 .162-.007.167-.356.225-.5.083-.866.208-1.128.384-.126.084-.206.11-.29.096Zm2.948-6.165c-.223-.046-.394-.187-.51-.42a.971.971 0 0 1-.108-.538c.016-.306.163-.607.425-.873a.988.988 0 0 1 .35-.254c.178-.085.468-.173.492-.149a.503.503 0 0 1 .038.1l.027.09-.058.012c-.031.006-.118.04-.193.077-.19.091-.357.261-.458.465a.534.534 0 0 0-.078.326c0 .164.001.17.065.226.05.046.085.059.151.059.117 0 .306.051.379.103.078.056.155.222.154.337 0 .173-.127.349-.292.407a.832.832 0 0 1-.384.032Zm2.697 6.102a1.74 1.74 0 0 1-.614-.26c-.278-.197-.417-.461-.468-.89-.052-.443.11-.845.484-1.202a2.75 2.75 0 0 1 .74-.498c.333-.16.61-.248 1.328-.421.482-.117.648-.165.674-.195.09-.101.01-.844-.13-1.206a.684.684 0 0 0-.203-.301 1.033 1.033 0 0 0-.281-.21c-.139-.068-.143-.068-.41-.068-.53.002-.88.132-1.003.375-.033.064-.039.107-.032.241.004.09.02.214.035.277.037.155.007.25-.12.377-.244.245-.73.202-.821-.073-.06-.182-.003-.463.139-.681.153-.237.492-.51.825-.666.387-.18.719-.25 1.187-.25.39 0 .58.042.88.19.541.266.765.6.904 1.35.023.126.033.462.044 1.6.016 1.507.022 1.596.11 1.765.09.174.352.27.553.2a.56.56 0 0 0 .153-.1.439.439 0 0 1 .1-.076c.024 0 .137.123.15.162.03.083-.246.337-.495.457a1.258 1.258 0 0 1-.881.1.798.798 0 0 1-.45-.283c-.087-.11-.199-.315-.199-.364 0-.068-.051-.045-.255.114-.398.312-.594.43-.854.514-.122.04-.193.046-.53.052-.324.006-.42.001-.56-.03Zm1.24-.536c.278-.108.757-.427.874-.58l.055-.073.006-.926c.004-.705 0-.927-.018-.927-.053 0-1.04.27-1.212.33-.361.13-.602.3-.762.539-.185.277-.27.62-.228.914.041.28.209.547.422.672.237.14.586.16.864.051Zm4.874.553c-.31-.078-.535-.32-.64-.693-.044-.156-.044-.157-.05-2.27l-.006-2.115h-.819v-.142c0-.157.034-.252.105-.298.034-.022.13-.031.383-.037l.338-.008-.011-.759-.012-.758.074-.046c.04-.024.246-.123.457-.219.323-.146.392-.17.434-.155.08.031.09.073.07.302-.01.115-.023.53-.03.923l-.015.714.804.006c.689.005.807.01.823.036.025.04.025.293 0 .34-.01.02-.056.05-.1.068-.07.028-.184.032-.802.032h-.72l.008 1.905c.007 1.613.012 1.928.038 2.055.073.356.172.46.436.46.279 0 .632-.105.876-.26a.587.587 0 0 1 .16-.08c.052 0 .12.054.156.124l.032.061-.127.13a2.62 2.62 0 0 1-1.067.638c-.142.04-.236.052-.45.058a2.056 2.056 0 0 1-.345-.012Zm3.797-.01c-.472-.094-.833-.333-.99-.655a1.748 1.748 0 0 1-.142-.65c-.001-.752.624-1.383 1.738-1.756.115-.039.467-.133.78-.21.315-.076.604-.148.644-.158.115-.031.127-.085.1-.435-.064-.8-.225-1.124-.663-1.333-.128-.06-.134-.061-.42-.059a1.637 1.637 0 0 0-.448.045c-.186.05-.363.127-.428.189-.118.11-.165.302-.122.503.014.066.029.175.033.241.008.111.003.128-.06.22-.125.182-.411.275-.647.209-.323-.09-.355-.528-.069-.932.165-.233.392-.417.718-.584a2.6 2.6 0 0 1 1.129-.297c.44-.022.821.066 1.16.266.504.299.731.773.794 1.657.01.154.02.798.02 1.43.002 1.239.01 1.374.105 1.558.061.118.19.2.337.215a.438.438 0 0 0 .371-.118c.072-.066.097-.079.124-.062.045.028.123.145.123.185 0 .05-.264.29-.414.38-.347.203-.814.237-1.139.084-.15-.071-.32-.252-.415-.444a.896.896 0 0 1-.072-.17c0-.016-.008-.028-.016-.028-.01 0-.115.077-.235.172-.415.326-.696.482-.973.537a3.67 3.67 0 0 1-.923 0Zm1.044-.49c.144-.034.513-.224.713-.368.24-.172.344-.276.37-.367.012-.045.02-.411.02-.949 0-.776-.003-.875-.03-.875-.068 0-1.157.302-1.288.357-.393.165-.63.368-.777.664a1.313 1.313 0 0 0-.144.622c0 .218.048.383.165.557a.84.84 0 0 0 .575.366c.102.017.305.013.396-.008ZM98.73 2.26c-.02-.005-.054-.046-.077-.091-.05-.1-.04-.198.038-.34.103-.19-.04-.175 1.634-.175.914 0 1.487.007 1.51.02.02.01.05.054.067.098.028.068.028.093.006.18a.501.501 0 0 1-.17.272c-.05.039-.085.04-1.512.043a54.012 54.012 0 0 1-1.495-.007Zm4.985 6.577a.55.55 0 0 1 .006-.293c.02-.044.036-.051.115-.052.139 0 .384-.05.493-.098.18-.08.252-.183.3-.438.046-.234.043-3.398-.003-3.572a.438.438 0 0 0-.236-.306c-.1-.05-.348-.104-.473-.104-.087 0-.092-.008-.111-.179-.01-.08-.006-.13.009-.149.012-.015.079-.034.147-.041a8.924 8.924 0 0 0 1.432-.293c.164-.054.194-.058.246-.037l.06.025-.012.222c-.025.47-.036 4.147-.013 4.32.045.337.114.466.297.552.108.05.345.097.499.098.082.001.108.01.125.04a.4.4 0 0 1 .016.28l-.028.07h-1.426l-1.426.001-.018-.046Zm1.222-6.978c-.112-.04-.295-.219-.358-.35a.753.753 0 0 1-.057-.215c-.01-.107-.004-.135.053-.25.153-.311.517-.47.798-.35.249.107.443.456.382.687-.095.361-.492.593-.818.478Zm2.185 6.966a.38.38 0 0 1 .01-.263c.025-.06.037-.069.1-.069.106 0 .344-.04.439-.073.2-.07.285-.176.343-.427.03-.134.035-.315.043-1.688.009-1.68 0-1.867-.087-2.047-.079-.162-.272-.253-.592-.278-.171-.014-.158 0-.186-.206-.018-.137 0-.15.297-.19.511-.068.995-.169 1.305-.271.15-.05.192-.057.238-.04l.056.022-.014.214c-.054.827-.054.905-.005.904.013 0 .135-.113.273-.251.303-.305.579-.518.826-.637.633-.307 1.383-.306 1.845 0 .25.167.422.485.498.927.057.328.07.719.07 1.995 0 1.327.009 1.5.083 1.699.075.2.276.311.617.34.154.012.16.015.18.073a.566.566 0 0 1 .003.274l-.014.05h-1.335c-1.316 0-1.334 0-1.347-.04a.658.658 0 0 1 .011-.305c.018-.034.042-.045.098-.045.104 0 .328-.05.408-.09.16-.081.222-.187.267-.448.027-.155.03-.387.024-1.656-.007-1.298-.012-1.492-.041-1.613a1.066 1.066 0 0 0-.272-.512c-.209-.206-.416-.266-.733-.213-.319.054-.596.184-.923.432-.25.19-.413.361-.488.514l-.067.136v1.42c0 1.298.003 1.433.036 1.574.02.084.056.183.08.22.088.13.259.205.517.23.127.011.136.015.156.072a.584.584 0 0 1 .003.283c-.015.039-.045.04-1.359.04l-1.342.001-.02-.058Zm8.1.13c-.462-.098-.799-.325-.955-.644a1.376 1.376 0 0 1-.139-.57c-.036-.59.284-1.093.95-1.49.406-.242.73-.357 1.593-.567.753-.184.684-.16.71-.241.03-.09-.005-.557-.061-.837-.092-.45-.253-.676-.599-.84-.128-.062-.134-.062-.42-.06a1.637 1.637 0 0 0-.448.045c-.187.05-.363.127-.429.189-.117.11-.164.302-.121.503.013.066.029.175.033.241.008.111.003.128-.06.22a.548.548 0 0 1-.422.224c-.336.027-.52-.152-.486-.473.06-.569.735-1.12 1.599-1.305.292-.062.853-.063 1.077-.002.347.096.681.285.868.492.188.207.33.542.399.943.056.321.07.74.07 1.88-.003 1.213.007 1.358.105 1.548.06.118.19.2.337.215a.438.438 0 0 0 .371-.119c.072-.066.097-.078.123-.061.046.028.124.145.124.185 0 .048-.27.294-.419.382-.343.201-.816.234-1.134.08a.703.703 0 0 1-.293-.24c-.071-.091-.194-.328-.194-.375 0-.045-.03-.027-.251.147-.415.326-.696.481-.973.537-.218.044-.73.04-.956-.008Zm1.09-.492c.247-.062.738-.352.96-.567a.442.442 0 0 0 .105-.158c.017-.056.024-.335.024-.952 0-.775-.003-.873-.03-.873-.053 0-1.09.28-1.225.331-.415.157-.688.38-.84.69-.105.213-.144.38-.144.612 0 .319.129.603.35.772.202.153.532.212.8.145Z"/></svg>