<svg xmlns="http://www.w3.org/2000/svg" width="120" height="14"><path fill="#000" fill-rule="nonzero" d="M3.805 6.062c-.16.003-.27-.011-.328-.038-.058-.027-.072-.079-.04-.156l1.464-3.706h.029l1.417 3.9H3.805Zm-1.577 2.98.803-2.118a.325.325 0 0 1 .152-.195c.07-.037.19-.055.36-.053H6.58l.89 2.468c.094.286.028.454-.197.507-.226.053-.52.083-.883.092-.044.053-.066.134-.066.241 0 .108.022.188.066.241a85.037 85.037 0 0 1 1.913-.029c.298 0 .583.004.855.01.272.005.542.012.81.02.044-.054.066-.134.066-.242 0-.107-.022-.188-.065-.24a2.43 2.43 0 0 1-.769-.14c-.226-.083-.409-.305-.546-.664L5.66 1.023A1.232 1.232 0 0 0 5.5.698a.28.28 0 0 0-.234-.114.334.334 0 0 0-.264.114 1.453 1.453 0 0 0-.228.408l-3.248 7.6c-.19.436-.402.716-.636.84-.235.126-.51.191-.824.197-.044.053-.066.134-.066.241 0 .108.022.188.066.241l.639-.02c.17-.005.391-.009.66-.009a85.925 85.925 0 0 1 1.87.03c.044-.054.066-.134.066-.242 0-.107-.022-.188-.065-.24a2.519 2.519 0 0 1-.796-.14c-.234-.085-.304-.272-.212-.562Zm10.58-4.075a.42.42 0 0 1-.09.098c-.034.028-.053-.005-.056-.098a9.58 9.58 0 0 1 .037-.72c.02-.241.033-.372.036-.39 0-.076-.058-.115-.175-.117-.2.08-.461.154-.784.222-.322.07-.733.136-1.232.201a.596.596 0 0 0-.007.205c.008.086.02.154.036.204.385.02.642.09.77.207.13.117.19.38.18.787v2.848c.012.575-.049.937-.183 1.086-.134.15-.414.23-.84.243-.044.053-.066.134-.066.241 0 .108.022.188.066.241l.793-.02a34.726 34.726 0 0 1 2.26.02c.044-.053.066-.133.066-.24 0-.108-.022-.189-.066-.242-.362-.012-.602-.093-.717-.243-.116-.149-.17-.511-.16-1.086V6.018a.84.84 0 0 1 .249-.613c.278-.272.558-.484.842-.634.283-.15.567-.226.852-.228.15.001.293.047.431.137.139.09.253.22.344.389.07.147.118.316.142.508.024.19.035.396.033.617v2.22c.01.575-.046.937-.168 1.086-.122.15-.368.23-.738.243a.428.428 0 0 0-.054.241c0 .108.018.188.054.241l.756-.02a27.634 27.634 0 0 1 1.497 0l.786.02a.428.428 0 0 0 .054-.24.428.428 0 0 0-.054-.242c-.399-.012-.664-.093-.796-.243-.133-.149-.193-.511-.183-1.086V6.238a6.766 6.766 0 0 0-.071-1.11 1.955 1.955 0 0 0-.323-.848 1.198 1.198 0 0 0-.508-.369 1.892 1.892 0 0 0-.705-.128 2.522 2.522 0 0 0-1.088.22c-.372.158-.779.48-1.22.964Zm13.997 5.375c.712 0 1.383-.167 2.014-.498.63-.332 1.195-.823 1.696-1.474a.464.464 0 0 0-.135-.159.34.34 0 0 0-.201-.06c-.51.565-1.035.973-1.574 1.224-.54.25-1.144.373-1.815.368-.754-.015-1.377-.24-1.87-.673a3.934 3.934 0 0 1-1.1-1.657 6.13 6.13 0 0 1-.36-2.096c.002-.63.08-1.188.233-1.673.153-.484.365-.89.634-1.219.367-.444.75-.772 1.153-.984.401-.212.794-.318 1.178-.316.992.024 1.73.276 2.213.756.484.48.813 1.046.986 1.698a.476.476 0 0 0 .245.018.844.844 0 0 0 .238-.091 21.923 21.923 0 0 0-.14-1.116c-.055-.367-.116-.75-.182-1.148a6.328 6.328 0 0 1-1.205-.356c-.456-.178-1.121-.279-1.994-.302a4.51 4.51 0 0 0-1.713.326c-.521.214-.997.52-1.427.916-.49.45-.869 1-1.138 1.646a5.536 5.536 0 0 0-.41 2.123c-.001.799.17 1.558.513 2.276.343.718.86 1.306 1.553 1.763.692.457 1.561.693 2.608.708Zm6.668-4.322a.853.853 0 0 1 .248-.615c.281-.274.576-.486.883-.635.308-.15.608-.225.9-.227a.791.791 0 0 1 .434.138c.139.09.252.22.34.388.07.146.118.315.142.506.024.192.034.398.033.619v2.22c.01.575-.047.937-.168 1.086-.122.15-.368.23-.738.243a.428.428 0 0 0-.055.241c0 .108.018.188.055.241l.756-.02a27.634 27.634 0 0 1 1.497 0l.785.02a.428.428 0 0 0 .055-.24.428.428 0 0 0-.055-.242c-.398-.012-.664-.093-.796-.243-.132-.149-.193-.511-.182-1.086V6.238a6.883 6.883 0 0 0-.07-1.113 1.89 1.89 0 0 0-.325-.845 1.183 1.183 0 0 0-.506-.369A1.9 1.9 0 0 0 36 3.783a2.778 2.778 0 0 0-1.133.22c-.397.158-.818.48-1.263.964a.648.648 0 0 1-.09.097c-.032.028-.05-.005-.053-.097l.012-3.287c.003-.48.014-.854.03-1.123.017-.27.026-.406.028-.41.003-.1-.06-.15-.19-.147a6.193 6.193 0 0 1-.94.236c-.419.08-.787.132-1.105.159a.605.605 0 0 0 0 .23c.015.09.044.158.088.208.371-.008.622.044.752.155s.191.459.183 1.043v6.383c.01.582-.054.948-.192 1.097-.139.15-.415.227-.828.232-.044.053-.066.134-.066.241 0 .108.022.188.066.241l.792-.02a34.425 34.425 0 0 1 2.255.02c.044-.053.066-.133.066-.24 0-.108-.022-.189-.066-.242-.36-.005-.6-.082-.715-.232-.115-.149-.168-.515-.158-1.097V6.02Zm6.635-4.574c.008.198.08.372.22.523.138.15.299.229.481.237a.775.775 0 0 0 .534-.235c.144-.147.22-.302.226-.466a.812.812 0 0 0-.203-.512.667.667 0 0 0-.498-.248.806.806 0 0 0-.511.22.68.68 0 0 0-.249.481Zm1.33 6.968V5.503c.002-.387.012-.755.029-1.103s.027-.534.029-.558c0-.03-.018-.054-.051-.073a.29.29 0 0 0-.139-.03c-.202.08-.462.155-.779.223a15.3 15.3 0 0 1-1.222.201.596.596 0 0 0-.007.205c.008.086.02.154.036.204.388.022.646.093.773.213.128.12.187.38.177.78v2.85c.011.58-.052.944-.192 1.091-.14.147-.427.226-.86.237-.044.053-.066.134-.066.241 0 .108.022.188.066.241l.807-.02a35.821 35.821 0 0 1 1.64 0l.81.02c.044-.053.066-.133.066-.24 0-.108-.022-.189-.066-.242-.433-.005-.72-.082-.86-.232-.14-.149-.203-.515-.191-1.097Zm7.135.453a.321.321 0 0 0-.126-.146.432.432 0 0 0-.18-.059 2.646 2.646 0 0 1-.828.723c-.3.161-.609.241-.926.241-.548-.009-1.007-.26-1.378-.754-.371-.493-.564-1.172-.579-2.036.01-.81.166-1.439.471-1.888.305-.448.703-.676 1.194-.682.417.01.69.117.82.32.13.201.203.436.217.702.024.195.084.331.18.41.096.08.221.119.376.116a.82.82 0 0 0 .472-.152c.152-.102.233-.266.243-.49-.005-.41-.202-.742-.591-.996-.39-.254-.937-.385-1.644-.393-.757.012-1.437.315-2.04.91-.601.595-.92 1.417-.954 2.465.005.957.257 1.723.756 2.299.498.575 1.21.87 2.136.885.437.014.852-.083 1.245-.288.394-.206.772-.602 1.136-1.187Zm1.765-.453c.012.583-.052.95-.192 1.103-.14.152-.426.228-.86.226-.043.053-.065.134-.065.241 0 .108.022.188.065.241l.807-.02a35.821 35.821 0 0 1 1.64 0l.81.02c.045-.053.067-.133.067-.24 0-.108-.022-.189-.066-.242-.434.001-.72-.074-.86-.226-.14-.152-.204-.52-.192-1.103V1.68c.003-.48.012-.854.03-1.123.016-.27.026-.406.029-.41.002-.1-.061-.15-.19-.147a6.193 6.193 0 0 1-.94.236c-.42.08-.787.132-1.105.159a.605.605 0 0 0 0 .23c.014.09.043.158.087.208.372-.008.622.044.753.155.13.111.19.459.182 1.043v6.383Zm3.779-6.968c.007.198.08.372.219.523.139.15.3.229.482.237a.775.775 0 0 0 .533-.235c.145-.147.22-.302.227-.466a.812.812 0 0 0-.203-.512.667.667 0 0 0-.499-.248.806.806 0 0 0-.51.22.681.681 0 0 0-.25.481Zm1.329 6.968V5.503a35.416 35.416 0 0 1 .058-1.66c0-.03-.017-.055-.05-.074a.29.29 0 0 0-.14-.03c-.202.08-.462.155-.778.223a15.3 15.3 0 0 1-1.223.201.596.596 0 0 0-.007.205c.009.086.02.154.037.204.387.022.645.093.773.213s.186.38.176.78v2.85c.012.58-.052.944-.192 1.091-.14.147-.426.226-.86.237-.044.053-.065.134-.065.241 0 .108.021.188.065.241l.807-.02a35.821 35.821 0 0 1 1.64 0l.81.02c.045-.053.067-.133.067-.24 0-.108-.022-.189-.066-.242-.434-.005-.72-.082-.86-.232-.14-.149-.204-.515-.192-1.097Zm3.878-3.111c.233-.24.482-.44.748-.6.265-.159.508-.241.727-.248.482.01.889.254 1.22.733.332.478.505 1.135.519 1.97a3.593 3.593 0 0 1-.417 1.793c-.294.56-.841.857-1.643.895a2.27 2.27 0 0 1-.518-.066 1.234 1.234 0 0 1-.519-.243.99.99 0 0 1-.285-.338c-.048-.107-.07-.286-.066-.537V5.945c-.001-.149.014-.27.047-.364a.763.763 0 0 1 .187-.278Zm-.117-.482a.115.115 0 0 1-.09.034c-.034-.002-.053-.028-.056-.078a7.792 7.792 0 0 1 .059-.935c-.001-.03-.018-.054-.051-.073a.29.29 0 0 0-.14-.03c-.197.08-.451.155-.76.223-.31.07-.714.136-1.211.201a.596.596 0 0 0-.008.205c.009.086.021.154.037.204.385.022.641.092.77.212.13.12.19.38.18.782v6.237c.011.583-.053.95-.192 1.103-.14.152-.427.227-.86.226-.044.053-.066.134-.066.241 0 .108.022.188.066.241l.807-.02a45.69 45.69 0 0 1 1.735 0l.861.02c.044-.053.066-.133.066-.24 0-.108-.022-.189-.066-.242-.503-.005-.833-.082-.988-.232-.154-.15-.224-.515-.21-1.097v-1.578c0-.091.015-.14.047-.149.032-.007.084.006.158.04.18.073.38.128.596.167.217.04.442.059.675.06.41 0 .795-.064 1.156-.196.36-.132.69-.34.991-.623.345-.335.611-.731.798-1.188.187-.458.28-.982.283-1.573-.015-.801-.26-1.491-.734-2.07-.475-.579-1.092-.882-1.852-.91-.278.002-.597.09-.956.267-.36.177-.708.433-1.045.77ZM68.301.395l-1.104 1.738a2.08 2.08 0 0 0-.128.213.434.434 0 0 0-.039.196.183.183 0 0 0 .064.133c.04.036.087.055.14.057a.33.33 0 0 0 .176-.057c.067-.04.155-.113.263-.22l1.68-1.593-.044-.16c-.175-.155-.339-.251-.493-.29a1.096 1.096 0 0 0-.31-.047.814.814 0 0 0-.205.03Zm-2.133 5.682c.169-.797.435-1.3.798-1.51.364-.21.648-.301.853-.272.293-.013.565.09.814.307.25.217.383.626.398 1.227.001.065-.015.116-.049.15-.034.034-.09.052-.17.054l-2.644.044Zm3.827 2.76a2.656 2.656 0 0 1-.79.603c-.268.126-.609.188-1.02.186-.269.003-.543-.079-.824-.246-.281-.167-.538-.436-.77-.805a3.026 3.026 0 0 1-.342-.864 4.876 4.876 0 0 1-.125-1.137l3.886.029a.301.301 0 0 0 .205-.064c.048-.042.072-.104.073-.185a2.859 2.859 0 0 0-.473-1.73c-.34-.512-1.005-.782-1.996-.811-.678.004-1.324.299-1.937.883-.614.585-.942 1.435-.985 2.55a4.1 4.1 0 0 0 .163 1.179c.11.373.284.7.524.982a2.5 2.5 0 0 0 .91.687c.36.163.803.246 1.325.248.553-.005 1.032-.122 1.439-.35a3.348 3.348 0 0 0 1.044-.92.315.315 0 0 0-.104-.167.37.37 0 0 0-.203-.067Zm2.21-7.39c.007.197.08.371.22.522.138.15.299.229.481.237a.775.775 0 0 0 .533-.235c.145-.147.22-.302.227-.466a.812.812 0 0 0-.203-.512.667.667 0 0 0-.498-.248.806.806 0 0 0-.512.22.68.68 0 0 0-.248.481Zm1.33 6.967V5.503c.002-.387.012-.755.029-1.103s.026-.534.029-.558c0-.03-.018-.054-.051-.073a.29.29 0 0 0-.14-.03c-.202.08-.461.155-.778.223a15.3 15.3 0 0 1-1.222.201.596.596 0 0 0-.008.205c.009.086.021.154.037.204.388.022.646.093.773.213.128.12.187.38.176.78v2.85c.012.58-.052.944-.191 1.091-.14.147-.427.226-.86.237-.044.053-.066.134-.066.241 0 .108.022.188.066.241l.807-.02a35.821 35.821 0 0 1 1.64 0l.81.02c.044-.053.066-.133.066-.24 0-.108-.022-.189-.066-.242-.434-.005-.72-.082-.86-.232-.14-.149-.203-.515-.192-1.097Zm6.36-.03a.898.898 0 0 1-.039.323.624.624 0 0 1-.194.248c-.27.233-.522.409-.752.525-.23.117-.438.176-.621.176-.412.002-.778-.218-1.1-.66-.32-.441-.49-1.117-.507-2.028.004-.522.047-.939.13-1.25.082-.313.18-.543.294-.693.236-.33.483-.538.74-.623.256-.084.462-.12.618-.107.261 0 .488.046.68.137.191.09.36.22.503.389.1.106.167.21.201.312.034.101.05.26.048.476v2.776Zm-.16 1.077a.208.208 0 0 1 .114-.05c.038-.003.058.02.061.07.007.189.034.376.08.562.048.185.074.285.081.3.055.02.102.03.139.027a.698.698 0 0 0 .139-.028c.158-.133.382-.25.67-.352a5.19 5.19 0 0 1 1.097-.232.286.286 0 0 0 .066-.197.286.286 0 0 0-.066-.197c-.453-.032-.748-.13-.884-.293-.135-.163-.196-.42-.182-.774V1.68c.002-.48.012-.854.029-1.123.017-.27.027-.406.03-.41.002-.1-.062-.15-.19-.147a6.193 6.193 0 0 1-.941.236c-.418.08-.787.132-1.105.159a.605.605 0 0 0 0 .23c.015.09.044.158.088.208.371-.008.622.044.752.155s.191.459.183 1.043V3.9c0 .05-.008.084-.028.103-.019.02-.053.029-.104.028-.043-.01-.18-.052-.41-.124a2.808 2.808 0 0 0-.729-.125c-.477.003-.89.079-1.238.23a3.17 3.17 0 0 0-.953.647 3.338 3.338 0 0 0-.74 1.116c-.176.429-.265.914-.268 1.455.005.916.221 1.659.65 2.23.428.57 1.04.864 1.833.881a1.9 1.9 0 0 0 .858-.22c.292-.146.614-.366.968-.66ZM91.662.98a3.21 3.21 0 0 1-.639-.154A3.902 3.902 0 0 0 90.45.66c-.223-.048-.565-.074-1.026-.077-.7.01-1.33.237-1.892.683-.56.447-.857 1.062-.89 1.845.018.67.228 1.205.63 1.603.404.398.897.716 1.48.953a9.05 9.05 0 0 1 1.547.697c.529.296.815.848.857 1.655-.003.592-.161 1.04-.475 1.342-.313.302-.763.453-1.35.454-.683.005-1.24-.16-1.673-.492-.432-.332-.73-.86-.891-1.582a.59.59 0 0 0-.475.044c.027.54.06.961.102 1.263.042.303.105.622.19.957.431.014.821.07 1.171.168.35.098.834.154 1.453.168.904-.025 1.654-.31 2.25-.858.595-.547.903-1.206.925-1.976-.017-.686-.22-1.227-.606-1.623a3.966 3.966 0 0 0-1.396-.918c-.259-.097-.597-.23-1.017-.4a4.036 4.036 0 0 1-1.139-.698c-.34-.295-.52-.679-.54-1.152.009-.458.159-.842.45-1.152.292-.31.675-.471 1.15-.484.692.018 1.194.209 1.504.573.31.365.53.797.66 1.297.084.001.168 0 .25-.007a.424.424 0 0 0 .224-.081 13.525 13.525 0 0 0-.261-1.884Zm3.75 5.04a.853.853 0 0 1 .249-.614c.281-.274.575-.486.883-.635.308-.15.608-.225.899-.227a.791.791 0 0 1 .435.138c.138.09.251.22.34.388.07.146.118.315.142.506.023.192.034.398.032.619v2.22c.01.575-.046.937-.168 1.086-.121.15-.367.23-.737.243a.428.428 0 0 0-.055.241c0 .108.018.188.055.241l.756-.02a27.635 27.635 0 0 1 1.497 0l.785.02a.428.428 0 0 0 .055-.24.428.428 0 0 0-.055-.242c-.399-.012-.664-.093-.796-.243-.132-.149-.193-.511-.183-1.086V6.238a6.918 6.918 0 0 0-.07-1.113 1.89 1.89 0 0 0-.324-.845 1.183 1.183 0 0 0-.506-.369 1.9 1.9 0 0 0-.706-.128 2.778 2.778 0 0 0-1.133.22c-.397.158-.818.48-1.263.964a.648.648 0 0 1-.09.097c-.033.028-.05-.005-.053-.097l.012-3.287c.003-.48.013-.854.03-1.123.016-.27.026-.406.028-.41.002-.1-.06-.15-.19-.147a6.193 6.193 0 0 1-.94.236c-.419.08-.787.132-1.105.159a.605.605 0 0 0 0 .23c.015.09.044.158.088.208.371-.008.622.044.752.155s.191.459.183 1.043v6.383c.01.582-.054.948-.193 1.097-.138.15-.414.227-.827.232-.044.053-.066.134-.066.241 0 .108.022.188.066.241l.792-.02a34.425 34.425 0 0 1 2.255.02c.044-.053.066-.133.066-.24 0-.108-.022-.189-.066-.242-.361-.005-.6-.082-.715-.232-.116-.149-.168-.515-.158-1.097V6.02Zm9.601.774v1.942a.426.426 0 0 1-.058.229.548.548 0 0 1-.146.151 4.13 4.13 0 0 1-.632.43 1.454 1.454 0 0 1-.654.198c-.363-.015-.63-.13-.8-.348a1.088 1.088 0 0 1-.251-.689c-.01-.336.087-.65.29-.942.202-.292.568-.513 1.097-.665l1.154-.306Zm0 2.702c.037.17.138.35.303.539.166.19.44.292.822.308.365-.023.661-.123.89-.301.227-.178.345-.297.352-.356a.291.291 0 0 0-.073-.163c-.045-.053-.084-.082-.117-.085-.037.01-.085.048-.143.116-.059.069-.162.107-.31.117-.273-.01-.442-.132-.506-.369a3.027 3.027 0 0 1-.078-.872V6.252c-.026-1.01-.26-1.68-.703-2.012a2.258 2.258 0 0 0-1.503-.457 3.038 3.038 0 0 0-1.654.515c-.479.325-.73.694-.756 1.107 0 .175.043.304.13.387.086.083.213.125.381.124.212-.008.372-.065.48-.17.108-.105.163-.209.163-.312a.89.89 0 0 0-.011-.148.394.394 0 0 0-.033-.115.509.509 0 0 1-.02-.102 1.654 1.654 0 0 1-.01-.19c.016-.224.15-.383.399-.477.25-.094.52-.14.814-.136.267-.025.526.086.778.33.252.244.387.767.405 1.568 0 .052-.01.092-.027.121-.017.03-.038.048-.06.055l-1.257.306c-.714.18-1.29.453-1.73.818-.44.366-.667.8-.68 1.3.013.571.192.978.537 1.222.345.244.78.363 1.304.356.32.006.589-.035.807-.12.218-.086.48-.25.785-.493l.292-.234h.03Zm2.995-2.293c0 .782.253 1.492.762 2.129.508.636 1.277.974 2.306 1.011 1.081-.045 1.87-.408 2.365-1.088.495-.68.739-1.408.732-2.184a3.67 3.67 0 0 0-.685-2.213c-.47-.674-1.264-1.032-2.383-1.074-.992.027-1.754.365-2.288 1.014-.533.649-.803 1.45-.809 2.405Zm2.937-2.936c.631.002 1.117.279 1.457.83.34.552.51 1.366.515 2.442-.023.94-.2 1.568-.532 1.884-.331.316-.68.462-1.046.438-.504-.016-.908-.191-1.213-.526a3.012 3.012 0 0 1-.661-1.192 4.42 4.42 0 0 1-.2-1.276c-.007-.665.12-1.257.38-1.777s.693-.795 1.3-.823Zm5.286 1.3v2.848c.012.582-.055.948-.2 1.097-.146.15-.44.227-.88.232-.045.053-.066.134-.066.241 0 .108.021.188.065.241l.844-.02a38.144 38.144 0 0 1 1.694 0l.895.02c.044-.053.066-.133.066-.24 0-.108-.022-.189-.066-.242-.497-.011-.825-.09-.982-.237-.158-.147-.23-.51-.216-1.092v-2.03c.004-.19.04-.369.11-.534.07-.164.15-.313.24-.445.088-.132.198-.28.331-.446.133-.165.247-.255.342-.27a.59.59 0 0 1 .159.018.328.328 0 0 1 .147.084c.07.082.15.17.24.267a.51.51 0 0 0 .36.157.67.67 0 0 0 .474-.228.756.756 0 0 0 .212-.502c.002-.152-.068-.303-.208-.456-.14-.152-.364-.234-.668-.246a1.495 1.495 0 0 0-.943.393c-.28.247-.507.52-.679.82-.044.075-.077.107-.098.095-.022-.012-.033-.04-.033-.08.003-.254.015-.507.036-.76.021-.253.034-.39.037-.41-.001-.029-.018-.053-.051-.072a.29.29 0 0 0-.14-.03c-.199.08-.457.155-.775.223-.318.07-.727.136-1.225.201a.648.648 0 0 0-.019.205.45.45 0 0 0 .048.204c.384.023.641.098.77.223.13.125.189.382.18.77Z"/></svg>