<?xml version="1.0" encoding="UTF-8"?>
<svg width="120px" height="13px" viewBox="0 0 120 13" version="1.1" xmlns="http://www.w3.org/2000/svg" xmlns:xlink="http://www.w3.org/1999/xlink">
    <title>vls-tagline</title>
    <g id="Page-1" stroke="none" stroke-width="1" fill="none" fill-rule="evenodd">
        <path d="M0,8.97868103 C0,8.90130592 0.0300790161,8.86265898 0.0902376574,8.86265898 L0.489861525,8.83686728 C0.726197203,8.82397143 0.898078295,8.77238802 1.00550521,8.68216783 C1.11722665,8.59189686 1.17308802,8.44368595 1.17308944,8.23743356 L1.17308944,1.66941372 C1.17308802,1.43738993 1.13011783,1.28698571 1.04417845,1.21823153 C0.958236226,1.1494875 0.773464562,1.10436217 0.489861525,1.08287585 L0.116019816,1.05708415 C0.0386731367,1.0570943 0,1.02276291 0,0.953947797 L0,0.702580227 L0.025782565,0.676788523 C0.850811444,0.693949145 1.40942482,0.702580227 1.70162482,0.702580227 C1.85201787,0.702580227 2.1699981,0.698518541 2.65556551,0.689684375 C3.14542307,0.681561004 3.54504724,0.676788523 3.85443701,0.676788523 C4.47750162,0.676788523 5.07049147,0.794963267 5.63340759,1.03129245 C6.19631254,1.26763178 6.67972726,1.58776369 7.0836558,1.99167801 C7.4875681,2.39130726 7.80769696,2.86612847 8.04404137,3.41614163 C8.2846668,3.96616494 8.4049922,4.54411235 8.4049922,5.14999399 C8.4049922,5.60118634 8.35771418,6.01799652 8.26319064,6.40042453 C8.16864475,6.77856747 8.03973599,7.10728984 7.87645724,7.38660181 C7.71316224,7.66160839 7.51764793,7.90869088 7.28991328,8.12783913 C7.06216339,8.34269214 6.82152984,8.51886776 6.56801161,8.65636597 C6.31877744,8.79387434 6.04806508,8.90774369 5.75587249,8.99798419 C5.467966,9.08825516 5.18865911,9.15267349 4.91795182,9.19135089 C4.64723438,9.22577368 4.37222476,9.24295461 4.09292193,9.24295461 C3.56868016,9.24295461 3.06378014,9.23887261 2.57821883,9.23003845 C2.09694868,9.22145814 1.80475102,9.2171629 1.70162482,9.2171629 C1.40942461,9.2171629 0.850811241,9.22528628 0.0257823619,9.24295461 L0,9.2171629 L0,8.97868103 M2.24305056,8.25032941 C2.24305056,8.40502886 2.27312734,8.51674552 2.33329106,8.58549971 C2.39773986,8.65424374 2.52880334,8.70581699 2.72646934,8.74018901 C2.9284265,8.77461179 3.24640673,8.79177242 3.68041003,8.79177242 C4.07573287,8.79177242 4.43668269,8.76384832 4.76326151,8.70800015 C5.08983119,8.6478872 5.4078104,8.54255754 5.7172022,8.39216347 C6.02658282,8.23747417 6.28655304,8.03765955 6.49711387,7.79272975 C6.7076615,7.54779995 6.87524564,7.22982074 6.99986627,6.83878196 C7.12876996,6.44345809 7.19323297,5.98582797 7.19323297,5.46588144 C7.19323297,5.04048079 7.15240288,4.63011854 7.07076706,4.23478452 C6.98911702,3.83516543 6.8516117,3.44628949 6.65825211,3.06814656 C6.46487932,2.68570839 6.22424577,2.35269079 5.93635146,2.06908359 C5.65274122,1.78548654 5.28749414,1.55774783 4.84060819,1.38585729 C4.39800935,1.21397691 3.90170284,1.12803164 3.35168765,1.12803164 C3.16691142,1.12803164 3.01651532,1.13412417 2.90049937,1.14732465 C2.7844763,1.15544802 2.67060491,1.17738112 2.5588852,1.21180391 C2.45145666,1.24186038 2.37196135,1.29344379 2.32040029,1.36649321 C2.26883719,1.43523724 2.24305056,1.52549805 2.24305056,1.63721471 L2.24305056,8.25033956 M10.2982972,5.42718373 L12.7218218,5.42718373 C12.8464322,5.42718373 12.9087426,5.36707078 12.9087426,5.24670273 C12.9087426,4.984592 12.8743604,4.75899583 12.8056143,4.56992436 C12.7411554,4.38086305 12.6509169,4.23905945 12.534901,4.14451356 C12.4231752,4.04571306 12.3071551,3.97693856 12.1868419,3.93826116 C12.0708189,3.89530884 11.9462053,3.8737819 11.8130003,3.8737819 C11.727055,3.8737819 11.6411159,3.87987443 11.5551787,3.89317645 C11.4735287,3.90129982 11.361809,3.93612878 11.2200094,3.99630265 C11.0782058,4.05215083 10.9514437,4.13165832 10.8397229,4.23478452 C10.7322954,4.33792088 10.6248689,4.49261017 10.5174455,4.69886257 C10.4143152,4.90512512 10.3412658,5.14791238 10.2982972,5.42721419 M13.7788917,7.9603149 C13.9163919,7.97321075 14.0044808,8.04408717 14.0431592,8.17301522 C13.7810353,8.53396707 13.4587578,8.81971681 13.0763267,9.03027459 C12.6938875,9.24082222 12.2727791,9.34610111 11.8130003,9.34610111 C10.9535923,9.34610111 10.3025924,9.08828562 9.8599997,8.57263432 C9.42170218,8.05699317 9.20255393,7.3952532 9.20255393,6.58741439 C9.20255393,6.10614525 9.27989858,5.66140083 9.43459397,5.25318112 C9.58928632,4.84497156 9.79124653,4.50980126 10.0404746,4.24768037 C10.2897017,3.98555949 10.5668599,3.78360233 10.8719504,3.64179873 C11.1813341,3.4956999 11.495017,3.42265048 11.8130003,3.42265048 C12.1481655,3.42265048 12.4446605,3.46773519 12.7024851,3.55800615 C12.9603036,3.64827712 13.1665601,3.76641124 13.3212575,3.91251008 C13.4802431,4.05431368 13.6091539,4.22834675 13.7079909,4.43459915 C13.8068219,4.6408617 13.8734213,4.8471141 13.9078025,5.05336649 C13.9464697,5.25962904 13.9658034,5.48092998 13.9658135,5.71725916 C13.9658084,5.86766338 13.8863162,5.94285534 13.7273286,5.94285534 L10.253179,5.94285534 C10.253178,6.32099827 10.2939989,6.66905427 10.3756449,6.98703348 C10.46158,7.30071746 10.5690086,7.56068565 10.6979214,7.7669482 C10.8311274,7.9732006 10.9815235,8.14938637 11.1491097,8.2954852 C11.320989,8.43727865 11.4885722,8.540415 11.6518621,8.60486379 C11.8151469,8.66934305 11.9741365,8.70153191 12.1288329,8.70153191 C12.4854824,8.70153191 12.7905719,8.64355135 13.0441003,8.52749884 C13.2976205,8.40718155 13.5425513,8.21811009 13.7788927,7.96029459 M16.2845232,3.42262002 L16.2458458,4.59570591 L16.2845232,4.59570591 C16.6755508,4.13593325 17.0365007,3.8265445 17.3673747,3.66754982 C17.7025399,3.50427005 18.0591925,3.42262002 18.4373354,3.42262002 C18.7252318,3.42262002 18.9658653,3.47420343 19.1592371,3.57730932 C19.356895,3.68044567 19.507291,3.83299243 19.6104254,4.03493944 C19.7135485,4.23261152 19.7844493,4.44960708 19.8231277,4.68594641 C19.8660902,4.91799051 19.8875765,5.19299709 19.8875867,5.5109763 L19.8875867,8.26966303 C19.8875806,8.4587345 19.9284066,8.59624287 20.0100516,8.68217798 C20.0916915,8.76381786 20.2356396,8.81539112 20.4419032,8.83687743 L20.6932799,8.86266914 C20.7706144,8.87982976 20.8092999,8.91425254 20.8092999,8.96579533 L20.8092999,9.21717306 L20.7835184,9.24296476 C20.0787956,9.22575337 19.6082706,9.2171629 19.3719394,9.2171629 C19.2043502,9.2171629 18.7682024,9.22528628 18.0634938,9.24296476 L18.0377112,9.2171629 L18.0377112,8.96578518 C18.0377082,8.909937 18.074236,8.87551422 18.1472864,8.86265898 L18.3277613,8.83686728 C18.5469055,8.80244449 18.6951529,8.74659631 18.7725037,8.66928213 C18.8541436,8.58764225 18.8949645,8.45442911 18.8949696,8.26965288 L18.8949696,5.41427772 C18.8949645,4.92442828 18.8348059,4.57636213 18.7144937,4.37009958 C18.5984696,4.15955195 18.3728754,4.05427306 18.0377112,4.05427306 C17.7326187,4.05427306 17.4447183,4.12951579 17.174009,4.27986923 C16.9032926,4.4302633 16.6067977,4.69453687 16.2845232,5.07266965 L16.2845232,8.26965288 C16.2845212,8.45872435 16.3231905,8.59193748 16.4005432,8.66928213 C16.4821831,8.74665724 16.6325802,8.80248511 16.8517315,8.83686728 L17.0386523,8.86265898 C17.1074065,8.87555483 17.1417775,8.90987608 17.1417806,8.96578518 L17.1417806,9.2171629 L17.115999,9.24296476 C16.4112834,9.22575337 15.9622437,9.2171629 15.768879,9.2171629 C15.5583233,9.2171629 15.1006901,9.22528628 14.3959785,9.24296476 L14.370196,9.2171629 L14.370196,8.96578518 C14.370196,8.909937 14.404568,8.87551422 14.4733252,8.86265898 L14.7247009,8.83686728 C14.9438491,8.81534034 15.0920966,8.76385848 15.1694433,8.68216783 C15.2510832,8.60052795 15.2919082,8.46301958 15.2919092,8.26965288 L15.2919092,4.98242915 C15.2919082,4.66875532 15.2682702,4.45819754 15.2210125,4.35076596 C15.1780398,4.23904929 15.1049914,4.17674304 15.0018632,4.16384718 L14.4346559,4.10586662 L14.4088744,3.79002995 C15.2510913,3.66113235 15.8591205,3.52577668 16.2329642,3.38396292 C16.2673362,3.38396292 16.2845273,3.39685878 16.2845273,3.42265048 M27.9411437,3.91247961 C27.9110567,3.91247961 27.8852752,3.90435624 27.863799,3.88668791 C27.8466079,3.86516098 27.8380175,3.8416032 27.8380175,3.8158115 L27.8380175,3.55154807 L27.863799,3.52575637 C28.5169424,3.54291699 28.9401995,3.55154807 29.1335713,3.55154807 C29.2581798,3.55155823 29.5568223,3.5434247 30.029502,3.52575637 L30.0552835,3.55154807 L30.0552835,3.79002995 C30.0552835,3.85450921 30.0080055,3.89531899 29.9134809,3.91249992 C29.7029211,3.93402686 29.5245938,3.9941398 29.3785011,4.09297077 C29.2323962,4.19177127 29.1099313,4.35939704 29.0111044,4.59572622 L27.1934604,9.06893169 C27.1032199,9.27519424 26.9979421,9.37832044 26.8776288,9.37832044 C26.7916836,9.37832044 26.7250811,9.3567935 26.6778173,9.31384118 C26.6305494,9.27515362 26.5854241,9.20426705 26.5424606,9.10114085 L24.7505992,4.54414281 C24.664654,4.32499456 24.5550829,4.17245796 24.4218758,4.08651269 C24.2886678,4.00060804 24.1167864,3.94256655 23.9062327,3.91247961 C23.8159922,3.89531899 23.770876,3.86302859 23.770876,3.8158115 L23.770876,3.55154807 L23.8095534,3.52575637 C24.4627009,3.54291699 24.8472846,3.55154807 24.9633056,3.55154807 C25.1953436,3.55155823 25.6336412,3.5434247 26.2781972,3.52575637 L26.3362082,3.55154807 L26.3362082,3.8029258 C26.3362051,3.8759346 26.2953882,3.91249992 26.2137433,3.91249992 L25.9881491,3.93829163 C25.7990777,3.95981856 25.6895035,4.02419628 25.6594258,4.13165832 C25.6336442,4.23908991 25.6594237,4.36799766 25.7367704,4.51839172 L26.8776319,7.3931005 L27.0967801,8.00543007 L27.3223743,7.43822583 L28.4954642,4.54417327 C28.5985884,4.28635778 28.6179241,4.12306786 28.5534753,4.05431368 C28.4890163,3.98130488 28.2849065,3.93399639 27.9411477,3.91251008 M31.1428953,8.26966303 L31.1428953,4.98243931 C31.1428943,4.67306071 31.1192563,4.46250293 31.0719986,4.35077611 C31.0247307,4.23905945 30.9516803,4.17675319 30.8528503,4.16385734 L30.285642,4.10587678 L30.2534126,3.7900401 C31.104223,3.66114251 31.7122522,3.52578683 32.0775014,3.38397308 C32.1118734,3.38397308 32.1290645,3.39686893 32.1290645,3.42266063 L32.0903871,4.60864238 L32.1290645,4.60864238 C32.6618926,3.81799465 33.1775358,3.42266063 33.675995,3.42266063 C34.1701488,3.42266063 34.4172333,3.62462795 34.4172333,4.02854228 C34.4172333,4.20042266 34.3656601,4.33577834 34.26254,4.4346093 C34.1594067,4.53340981 34.0197537,4.58286083 33.8435791,4.58286083 C33.6373176,4.58286083 33.4589913,4.50335333 33.3085993,4.3443688 C33.2269493,4.26699369 33.1388635,4.22835691 33.0443318,4.22834675 C32.9669872,4.22835691 32.8595566,4.28856124 32.7220543,4.40882775 C32.584547,4.52914504 32.4405957,4.69673018 32.2902027,4.9115832 C32.1827742,5.04909157 32.1290614,5.20378087 32.1290645,5.37566125 L32.1290645,8.26970365 C32.1290614,8.46307035 32.1720269,8.60273141 32.2579752,8.68866652 C32.3439104,8.77457117 32.4900122,8.8240222 32.6962717,8.83691805 L33.0830051,8.86270975 C33.1603498,8.86270975 33.1990211,8.89713254 33.1990252,8.96583595 L33.1990252,9.21721368 L33.1732436,9.24300538 C32.5200911,9.22575337 32.0001506,9.2171629 31.6134203,9.2171629 C31.3513004,9.2171629 30.8936662,9.22528628 30.2405187,9.24300538 L30.2276229,9.2171629 L30.2276229,8.96578518 C30.2276229,8.909937 30.2598524,8.87551422 30.3243012,8.86265898 L30.5756768,8.83686728 C30.7905278,8.81534034 30.9387753,8.76385848 31.0204203,8.68216783 C31.1020601,8.59626318 31.1428841,8.45872435 31.1428852,8.26965288 M37.0840041,3.80290549 C37.0840011,3.87591429 37.0345836,3.91247961 36.9357567,3.91247961 C36.7552787,3.92537547 36.6242193,3.94903478 36.5425784,3.98335603 C36.4609283,4.01777881 36.405071,4.07789176 36.3749942,4.16383703 C36.3492127,4.24547691 36.3749922,4.35935642 36.4523389,4.5054451 L37.9025861,7.90870103 L39.3657251,4.5570082 C39.4215834,4.45389215 39.4516602,4.36580435 39.4559656,4.29274478 C39.4645967,4.21536967 39.4559605,4.15524656 39.430184,4.11227393 C39.4043923,4.0693216 39.3571346,4.03276643 39.2883814,4.00269981 C39.2239225,3.97264333 39.1594656,3.95324878 39.0950158,3.94471924 C39.0305568,3.93182339 38.9489118,3.92105992 38.8500849,3.91253038 C38.7641397,3.91253038 38.7211691,3.88034153 38.7211741,3.81586227 L38.7211741,3.5644947 L38.7469557,3.52576652 C39.4000991,3.54296776 39.8126141,3.55159884 39.9845005,3.55159884 C40.1563758,3.551609 40.4614653,3.54347547 40.8997679,3.52576652 L40.9384453,3.55159884 L40.9384453,3.80297657 C40.9384453,3.86308952 40.8890247,3.89964469 40.7901978,3.91255069 C40.5753407,3.92971131 40.3970135,4.01998228 40.255218,4.18326204 C40.1134103,4.34225672 39.9802023,4.55066181 39.8555938,4.80847731 C39.3012722,5.97298289 38.5213616,7.76913136 37.5158608,10.1969532 C37.4170298,10.4375877 37.3310856,10.6331071 37.2580392,10.7835012 C37.189285,10.9381905 37.0926007,11.120814 36.9679892,11.3313718 C36.8476699,11.5419296 36.7295012,11.7073621 36.6134842,11.8276793 C36.5017595,11.9479966 36.3642541,12.0532755 36.2009693,12.143516 C36.0376804,12.233787 35.865799,12.2788717 35.6853251,12.2788717 C35.5134427,12.2788717 35.3415623,12.2272883 35.1696819,12.1241722 C35.0020968,12.0253717 34.9183052,11.870652 34.9183052,11.6600942 C34.9183052,11.4796233 34.9698683,11.3485629 35.0729986,11.2669129 C35.1761268,11.185273 35.2921468,11.144453 35.4210586,11.144453 C35.6058288,11.144453 35.7411855,11.2067999 35.8271277,11.3313718 C35.8872812,11.38722 35.9302549,11.4259076 35.9560385,11.4473939 C35.98182,11.4731856 36.016192,11.4968449 36.0591677,11.5182703 C36.1021404,11.5397972 36.1451028,11.5504591 36.1880785,11.5504591 C36.3298781,11.5504591 36.667195,10.8951569 37.2000292,9.58457283 C37.2730786,9.4513597 37.3096003,9.31600402 37.3096033,9.17849566 C37.3096003,9.06248376 37.2344012,8.81110604 37.0840092,8.42437264 L35.4210586,4.55703866 C35.3179284,4.31211902 35.2126515,4.1488291 35.105226,4.06717907 C34.9978005,3.98553918 34.8345126,3.93397608 34.6153654,3.91248977 C34.5251249,3.89959392 34.4800087,3.86740506 34.4800087,3.81582165 L34.4800087,3.55155823 L34.5057903,3.52576652 C34.8581466,3.54292715 35.2298395,3.55155823 35.6208702,3.55155823 C35.9259576,3.55156838 36.4050761,3.54343486 37.0582266,3.52576652 L37.0840082,3.56445408 L37.0840082,3.80293595 M42.2452013,5.42718373 L44.6687268,5.42718373 C44.7933363,5.42718373 44.8556476,5.36707078 44.8556476,5.24670273 C44.8556476,4.984592 44.8212655,4.75899583 44.7525184,4.56992436 C44.6880594,4.38086305 44.597822,4.23905945 44.481806,4.14451356 C44.3700792,4.04571306 44.2540592,3.97693856 44.133746,3.93826116 C44.0177229,3.89530884 43.8931094,3.8737819 43.7599044,3.8737819 C43.6739591,3.8737819 43.5880209,3.87987443 43.5020828,3.89317645 C43.4204327,3.90129982 43.308714,3.93612878 43.1669145,3.99630265 C43.0251099,4.05215083 42.8983477,4.13165832 42.786627,4.23478452 C42.6791995,4.33792088 42.571774,4.49261017 42.4643495,4.69886257 C42.3612192,4.90512512 42.2881698,5.14791238 42.2452013,5.42721419 M45.7257957,7.9603149 C45.863296,7.97321075 45.9513848,8.04408717 45.9900632,8.17301522 C45.7279393,8.53396707 45.4056628,8.81971681 45.0232318,9.03027459 C44.6407916,9.24082222 44.2196831,9.34610111 43.7599044,9.34610111 C42.9004964,9.34610111 42.2494965,9.08828562 41.8069037,8.57263432 C41.3686062,8.05699317 41.149459,7.3952532 41.149459,6.58741439 C41.149459,6.10614525 41.2268036,5.66140083 41.381498,5.25318112 C41.5361904,4.84497156 41.7381506,4.50980126 41.9873797,4.24768037 C42.2366057,3.98555949 42.513764,3.78360233 42.8188555,3.64179873 C43.1282391,3.4956999 43.4419221,3.42265048 43.7599044,3.42265048 C44.0950696,3.42265048 44.3915645,3.46773519 44.6493902,3.55800615 C44.9072077,3.64827712 45.1134652,3.76641124 45.2681626,3.91251008 C45.4271481,4.05431368 45.5560589,4.22834675 45.654895,4.43459915 C45.7537259,4.6408617 45.8203254,4.8471141 45.8547076,5.05336649 C45.8933748,5.25962904 45.9127084,5.48092998 45.9127186,5.71725916 C45.9127125,5.86766338 45.8332212,5.94285534 45.6742326,5.94285534 L42.2000841,5.94285534 C42.200082,6.32099827 42.240904,6.66905427 42.322549,6.98703348 C42.4084841,7.30071746 42.5159136,7.56068565 42.6448264,7.7669482 C42.7780325,7.9732006 42.9284276,8.14938637 43.0960147,8.2954852 C43.2678931,8.43727865 43.4354772,8.540415 43.5987671,8.60486379 C43.762051,8.66934305 43.9210416,8.70153191 44.075737,8.70153191 C44.4323875,8.70153191 44.7374759,8.64355135 44.9910053,8.52749884 C45.2445256,8.40718155 45.4894554,8.21811009 45.7257968,7.96029459 M48.2314252,3.42262002 L48.1927478,4.59570591 L48.2314252,4.59570591 C48.6224518,4.13593325 48.9834027,3.8265445 49.3142767,3.66754982 C49.6494409,3.50427005 50.0060945,3.42262002 50.3842374,3.42262002 C50.6721338,3.42262002 50.9127673,3.47420343 51.1061381,3.57730932 C51.303797,3.68044567 51.454192,3.83299243 51.5573264,4.03493944 C51.6604495,4.23261152 51.7313503,4.44960708 51.7700297,4.68594641 C51.8129922,4.91799051 51.8344785,5.19299709 51.8344887,5.5109763 L51.8344887,8.26966303 C51.8344836,8.4587345 51.8753086,8.59624287 51.9569546,8.68217798 C52.0385945,8.76381786 52.1825427,8.81539112 52.3888062,8.83687743 L52.6401819,8.86266914 C52.7175266,8.87982976 52.7562019,8.91425254 52.7562019,8.96579533 L52.7562019,9.21717306 L52.7304204,9.24296476 C52.0256966,9.22575337 51.5551727,9.2171629 51.3188415,9.2171629 C51.1512522,9.2171629 50.7151044,9.22528628 50.0103958,9.24296476 L49.9846133,9.2171629 L49.9846133,8.96578518 C49.9846092,8.909937 50.021138,8.87551422 50.0941874,8.86265898 L50.2746633,8.83686728 C50.4938075,8.80244449 50.6420539,8.74659631 50.7194057,8.66928213 C50.8010456,8.58764225 50.8418665,8.45442911 50.8418706,8.26965288 L50.8418706,5.41427772 C50.8418665,4.92442828 50.7817069,4.57636213 50.6613957,4.37009958 C50.5453716,4.15955195 50.3197775,4.05427306 49.9846133,4.05427306 C49.6795208,4.05427306 49.3916193,4.12951579 49.12091,4.27986923 C48.8501946,4.4302633 48.5536997,4.69453687 48.2314252,5.07266965 L48.2314252,8.26965288 C48.2314222,8.45872435 48.2700925,8.59193748 48.3474442,8.66928213 C48.4290841,8.74665724 48.5794823,8.80248511 48.7986325,8.83686728 L48.9855533,8.86265898 C49.0543075,8.87555483 49.0886795,8.90987608 49.0886826,8.96578518 L49.0886826,9.2171629 L49.062901,9.24296476 C48.3581854,9.22575337 47.9091457,9.2171629 47.715781,9.2171629 C47.5052253,9.2171629 47.0475921,9.22528628 46.3428795,9.24296476 L46.317098,9.2171629 L46.317098,8.96578518 C46.317098,8.909937 46.35147,8.87551422 46.4202262,8.86265898 L46.6716029,8.83686728 C46.8907501,8.81534034 47.0389976,8.76385848 47.1163453,8.68216783 C47.1979852,8.60052795 47.2388092,8.46301958 47.2388112,8.26965288 L47.2388112,4.98242915 C47.2388092,4.66875532 47.2151722,4.45819754 47.1679043,4.35076596 C47.1249317,4.23904929 47.0518833,4.17674304 46.9487561,4.16384718 L46.3815478,4.10586662 L46.3557662,3.79002995 C47.1979831,3.66113235 47.8060124,3.52577668 48.179855,3.38396292 C48.214227,3.38396292 48.2314181,3.39685878 48.2314181,3.42265048 M57.1873639,5.42718373 L59.6108894,5.42718373 C59.7354989,5.42718373 59.7978103,5.36707078 59.7978103,5.24670273 C59.7978103,4.984592 59.7634281,4.75899583 59.694681,4.56992436 C59.6302221,4.38086305 59.5399846,4.23905945 59.4239686,4.14451356 C59.3122418,4.04571306 59.1962218,3.97693856 59.0759086,3.93826116 C58.9598855,3.89530884 58.835272,3.8737819 58.702067,3.8737819 C58.6161217,3.8737819 58.5301836,3.87987443 58.4442454,3.89317645 C58.3625954,3.90129982 58.2508767,3.93612878 58.1090771,3.99630265 C57.9672725,4.05215083 57.8405103,4.13165832 57.7287896,4.23478452 C57.6213621,4.33792088 57.5139366,4.49261017 57.4065121,4.69886257 C57.3033819,4.90512512 57.2303325,5.14791238 57.1873639,5.42721419 M60.6679584,7.9603149 C60.8054586,7.97321075 60.8935474,8.04408717 60.9322259,8.17301522 C60.6701019,8.53396707 60.3478254,8.81971681 59.9653944,9.03027459 C59.5829542,9.24082222 59.1618457,9.34610111 58.702067,9.34610111 C57.842659,9.34610111 57.1916591,9.08828562 56.7490664,8.57263432 C56.3107689,8.05699317 56.0916206,7.3952532 56.0916206,6.58741439 C56.0916206,6.10614525 56.1689653,5.66140083 56.3236606,5.25318112 C56.478353,4.84497156 56.6803132,4.50980126 56.9295423,4.24768037 C57.1787683,3.98555949 57.4559266,3.78360233 57.7610171,3.64179873 C58.0704007,3.4956999 58.3840837,3.42265048 58.702067,3.42265048 C59.0372322,3.42265048 59.3337271,3.46773519 59.5915528,3.55800615 C59.8493703,3.64827712 60.0556278,3.76641124 60.2103252,3.91251008 C60.3693107,4.05431368 60.4982215,4.22834675 60.5970576,4.43459915 C60.6958885,4.6408617 60.762488,4.8471141 60.7968692,5.05336649 C60.8355364,5.25962904 60.85487,5.48092998 60.8548802,5.71725916 C60.8548751,5.86766338 60.7753828,5.94285534 60.6163953,5.94285534 L57.1422457,5.94285534 C57.1422446,6.32099827 57.1830656,6.66905427 57.2647116,6.98703348 C57.3506467,7.30071746 57.4580762,7.56068565 57.5869891,7.7669482 C57.7201951,7.9732006 57.8705902,8.14938637 58.0381774,8.2954852 C58.2100557,8.43727865 58.3776398,8.540415 58.5409298,8.60486379 C58.7042136,8.66934305 58.8632032,8.70153191 59.0178996,8.70153191 C59.3745501,8.70153191 59.6796386,8.64355135 59.933168,8.52749884 C60.1866882,8.40718155 60.431618,8.21811009 60.6679594,7.96029459 M63.1735909,3.42262002 L63.1349135,4.59570591 L63.1735909,4.59570591 C63.5646185,4.13593325 63.9255683,3.8265445 64.2564424,3.66754982 C64.5916076,3.50427005 64.9482612,3.42262002 65.3264031,3.42262002 C65.6143005,3.42262002 65.854933,3.47420343 66.0483048,3.57730932 C66.2459626,3.68044567 66.3963587,3.83299243 66.4994931,4.03493944 C66.6026162,4.23261152 66.673517,4.44960708 66.7121964,4.68594641 C66.7551589,4.91799051 66.7766452,5.19299709 66.7766554,5.5109763 L66.7766554,8.26966303 C66.7766493,8.4587345 66.8174753,8.59624287 66.8991213,8.68217798 C66.9807612,8.76381786 67.1247083,8.81539112 67.3309729,8.83687743 L67.5823486,8.86266914 C67.6596831,8.87982976 67.6983686,8.91425254 67.6983686,8.96579533 L67.6983686,9.21717306 L67.6725871,9.24296476 C66.9678633,9.22575337 66.4973393,9.2171629 66.2610081,9.2171629 C66.0934179,9.2171629 65.65727,9.22528628 64.9525615,9.24296476 L64.9267799,9.2171629 L64.9267799,8.96578518 C64.9267759,8.909937 64.9633047,8.87551422 65.0363541,8.86265898 L65.216829,8.83686728 C65.4359732,8.80244449 65.5842206,8.74659631 65.6615724,8.66928213 C65.7432123,8.58764225 65.7840322,8.45442911 65.7840373,8.26965288 L65.7840373,5.41427772 C65.7840322,4.92442828 65.7238736,4.57636213 65.6035624,4.37009958 C65.4875373,4.15955195 65.2619442,4.05427306 64.9267799,4.05427306 C64.6216864,4.05427306 64.333786,4.12951579 64.0630767,4.27986923 C63.7923603,4.4302633 63.4958664,4.69453687 63.1735909,5.07266965 L63.1735909,8.26965288 C63.1735889,8.45872435 63.2122582,8.59193748 63.2896109,8.66928213 C63.3712508,8.74665724 63.5216479,8.80248511 63.7407992,8.83686728 L63.92772,8.86265898 C63.9964742,8.87555483 64.0308462,8.90987608 64.0308493,8.96578518 L64.0308493,9.2171629 L64.0050677,9.24296476 C63.300351,9.22575337 62.8513124,9.2171629 62.6579477,9.2171629 C62.447392,9.2171629 61.9897578,9.22528628 61.2850462,9.24296476 L61.2592636,9.2171629 L61.2592636,8.96578518 C61.2592636,8.909937 61.2936357,8.87551422 61.3623929,8.86265898 L61.6137686,8.83686728 C61.8329168,8.81534034 61.9811643,8.76385848 62.058512,8.68216783 C62.1401519,8.60052795 62.1809759,8.46301958 62.1809769,8.26965288 L62.1809769,4.98242915 C62.1809759,4.66875532 62.1573379,4.45819754 62.1100802,4.35076596 C62.0671075,4.23904929 61.9940591,4.17674304 61.8909319,4.16384718 L61.3237236,4.10586662 L61.2979421,3.79002995 C62.140159,3.66113235 62.7481882,3.52577668 63.1220319,3.38396292 C63.1564039,3.38396292 63.173595,3.39685878 63.173595,3.42265048 M72.8144435,8.01829546 C72.6038837,8.36635146 72.3761409,8.64135804 72.1312152,8.84332536 C71.8905775,9.04528252 71.6563889,9.1784855 71.4286502,9.24294445 C71.2052016,9.31168848 70.9495286,9.34607065 70.6616303,9.34607065 C69.8451929,9.34607065 69.2092324,9.08395992 68.7537489,8.55971816 C68.3025606,8.03547639 68.0769665,7.3393644 68.0769665,6.47136187 C68.0769665,6.01587429 68.1521686,5.59476888 68.3025606,5.20803548 C68.4529557,4.82130208 68.6549159,4.49902764 68.9084423,4.24120199 C69.1619656,3.98338649 69.4520146,3.78357187 69.7785904,3.64176827 C70.1094593,3.49566943 70.4532221,3.42262002 70.8098777,3.42262002 C71.4157553,3.42262002 71.8948738,3.55583315 72.2472352,3.82223911 C72.5995864,4.08436 72.7757651,4.40019667 72.7757701,4.76973898 C72.7757651,4.9459146 72.7113112,5.08557566 72.5824034,5.1886917 C72.4534876,5.28749221 72.311686,5.33694323 72.1569977,5.33694323 C71.8733895,5.33694323 71.7143989,5.18225393 71.6800269,4.87286518 C71.6628358,4.73536697 71.6413495,4.62149761 71.6155679,4.53124696 C71.5897864,4.43671122 71.544661,4.33359518 71.4802112,4.22186836 C71.4200475,4.10584631 71.3276624,4.0199112 71.203053,3.96404271 C71.0784354,3.90392977 70.923742,3.87377175 70.7389729,3.87377175 C70.2920788,3.8737819 69.9225355,4.08218699 69.6303388,4.49899717 C69.3424364,4.91151212 69.1984862,5.47227859 69.1984872,6.18127628 C69.1984862,6.94615261 69.3617731,7.56922535 69.6883488,8.05048432 C70.0192178,8.52745822 70.4403263,8.76594009 70.9516763,8.76594009 C71.2395736,8.76594009 71.5253254,8.68430021 71.8089336,8.52101029 C72.0925337,8.35342515 72.3353149,8.12354389 72.5372801,7.83133607 C72.6747804,7.8484967 72.7671665,7.91084357 72.8144435,8.018265 M75.4554276,3.80290549 C75.4554256,3.87591429 75.4060071,3.91247961 75.3071802,3.91247961 C75.1267032,3.92537547 74.9956438,3.94903478 74.9140019,3.98335603 C74.832362,4.01777881 74.7764956,4.07789176 74.7464178,4.16383703 C74.7206362,4.24547691 74.7464157,4.35935642 74.8237624,4.5054451 L76.2740106,7.90870103 L77.7371496,4.5570082 C77.7930079,4.45389215 77.8230847,4.36580435 77.8273901,4.29274478 C77.8360212,4.21536967 77.827385,4.15524656 77.8016086,4.11227393 C77.7758169,4.0693216 77.7285591,4.03276643 77.659807,4.00269981 C77.595348,3.97264333 77.5308911,3.95324878 77.4664403,3.94471924 C77.4019813,3.93182339 77.3203364,3.92105992 77.2215095,3.91253038 C77.1355642,3.91253038 77.0925946,3.88034153 77.0925987,3.81586227 L77.0925987,3.5644947 L77.1183802,3.52576652 C77.7715236,3.54296776 78.1840386,3.55159884 78.3559251,3.55159884 C78.5278004,3.551609 78.8328888,3.54347547 79.2711924,3.52576652 L79.3098698,3.55159884 L79.3098698,3.80297657 C79.3098698,3.86308952 79.2604493,3.89964469 79.1616224,3.91255069 C78.9467643,3.92971131 78.768438,4.01998228 78.6266415,4.18326204 C78.4848338,4.34225672 78.3516258,4.55066181 78.2270183,4.80847731 C77.6726957,5.97298289 76.8927861,7.76913136 75.8872843,10.1969532 C75.7884534,10.4375877 75.7025091,10.6331071 75.6294627,10.7835012 C75.5607086,10.9381905 75.4640242,11.120814 75.3394137,11.3313718 C75.2190944,11.5419296 75.1009257,11.7073621 74.9849088,11.8276793 C74.873183,11.9479966 74.7356787,12.0532755 74.5723938,12.143516 C74.4091049,12.233787 74.2372235,12.2788717 74.0567496,12.2788717 C73.8848672,12.2788717 73.7129858,12.2272883 73.5411065,12.1241722 C73.3735213,12.0253717 73.2897287,11.870652 73.2897297,11.6600942 C73.2897287,11.4796233 73.3412928,11.3485629 73.4444231,11.2669129 C73.5475503,11.185273 73.6635703,11.144453 73.7924821,11.144453 C73.9772533,11.144453 74.11261,11.2067999 74.1985512,11.3313718 C74.2587048,11.38722 74.3016784,11.4259076 74.327463,11.4473939 C74.3532446,11.4731856 74.3876166,11.4968449 74.4305912,11.5182703 C74.4735639,11.5397972 74.5165264,11.5504591 74.559502,11.5504591 C74.7013026,11.5504591 75.0386185,10.8951569 75.5714527,9.58457283 C75.6445021,9.4513597 75.6810248,9.31600402 75.6810269,9.17849566 C75.6810248,9.06248376 75.6058247,8.81110604 75.4554327,8.42437264 L73.7924821,4.55703866 C73.6893529,4.31211902 73.584075,4.1488291 73.4766505,4.06717907 C73.369224,3.98553918 73.2059372,3.93397608 72.9867889,3.91248977 C72.8965484,3.89959392 72.8514322,3.86740506 72.8514322,3.81582165 L72.8514322,3.55155823 L72.8772138,3.52576652 C73.2295701,3.54292715 73.601262,3.55155823 73.9922927,3.55155823 C74.2973811,3.55156838 74.7764996,3.54343486 75.4296501,3.52576652 L75.4554317,3.56445408 L75.4554317,3.80293595 M84.2970359,8.01829546 C84.0864771,8.36635146 83.8587343,8.64135804 83.6138086,8.84332536 C83.37317,9.04528252 83.1389823,9.1784855 82.9112436,9.24294445 C82.687794,9.31168848 82.4321211,9.34607065 82.1442237,9.34607065 C81.3277853,9.34607065 80.6918259,9.08395992 80.2363423,8.55971816 C79.785153,8.03547639 79.5595599,7.3393644 79.5595599,6.47136187 C79.5595599,6.01587429 79.634762,5.59476888 79.7851541,5.20803548 C79.9355491,4.82130208 80.1375093,4.49902764 80.3910357,4.24120199 C80.644558,3.98338649 80.934608,3.78357187 81.2611838,3.64176827 C81.5920528,3.49566943 81.9358146,3.42262002 82.2924712,3.42262002 C82.8983488,3.42262002 83.3774672,3.55583315 83.7298276,3.82223911 C84.0821799,4.08436 84.2583575,4.40019667 84.2583626,4.76973898 C84.2583575,4.9459146 84.1939036,5.08557566 84.0649969,5.1886917 C83.936081,5.28749221 83.7942784,5.33694323 83.6395902,5.33694323 C83.3559819,5.33694323 83.1969923,5.18225393 83.1626203,4.87286518 C83.1454292,4.73536697 83.1239429,4.62149761 83.0981614,4.53124696 C83.0723798,4.43671122 83.0272545,4.33359518 82.9628047,4.22186836 C82.902641,4.10584631 82.8102569,4.0199112 82.6856464,3.96404271 C82.5610288,3.90392977 82.4063365,3.87377175 82.2215674,3.87377175 C81.7746733,3.8737819 81.4051289,4.08218699 81.1129333,4.49899717 C80.8250309,4.91151212 80.6810797,5.47227859 80.6810817,6.18127628 C80.6810797,6.94615261 80.8443675,7.56922535 81.1709433,8.05048432 C81.5018123,8.52745822 81.9229208,8.76594009 82.4342707,8.76594009 C82.7221681,8.76594009 83.0079198,8.68430021 83.2915281,8.52101029 C83.5751271,8.35342515 83.8179093,8.12354389 84.0198746,7.83133607 C84.1573749,7.8484967 84.2497609,7.91084357 84.2970359,8.018265 M85.4877729,8.26966303 L85.4877729,1.78544593 C85.4877719,1.37723637 85.4555434,1.10437232 85.3910946,0.966863957 C85.3309309,0.825070512 85.2299543,0.754173789 85.0881538,0.754163635 L84.6691929,0.728371931 C84.6133346,0.728382085 84.5854004,0.706844997 84.5854004,0.663892671 L84.5596188,0.348055996 C84.8346284,0.326529062 85.1590535,0.281444352 85.5328962,0.212700323 C85.9067357,0.139691523 86.1774491,0.0687643378 86.3450353,8.8817842e-16 C86.456756,8.8817842e-16 86.5126174,0.0450847106 86.5126194,0.135355674 C86.4868379,0.487727211 86.473942,0.949652564 86.473942,1.52115204 L86.473942,8.26963257 C86.47394,8.46299927 86.5126093,8.60050764 86.589962,8.68214752 C86.6673067,8.7637874 86.8134045,8.81536065 87.0282585,8.83684697 L87.3440901,8.86263867 C87.4171396,8.86263867 87.4536653,8.89706146 87.4536653,8.96576487 L87.4536653,9.2171426 L87.4278837,9.24295461 C86.5426921,9.22575337 86.0528315,9.2171629 85.9582978,9.2171629 C85.876658,9.2171629 85.3975344,9.22528628 84.5209414,9.24295461 L84.5080506,9.2171629 L84.5080506,8.96578518 C84.5080506,8.89704115 84.5381274,8.86265898 84.5982911,8.86265898 L84.9141227,8.83686728 C85.13327,8.81534034 85.2836661,8.76385848 85.365311,8.68216783 C85.4469509,8.60052795 85.4877749,8.46301958 85.4877759,8.26965288 M87.8322631,6.51002912 C87.8322631,5.58617841 88.0728967,4.84064586 88.5541648,4.27343146 C89.0354299,3.70622722 89.7057664,3.42262002 90.5651744,3.42262002 C90.9433102,3.42262002 91.287072,3.48273296 91.5964618,3.60309086 C91.9058434,3.71911291 92.1615164,3.87595491 92.3634816,4.07361684 C92.569734,4.26698354 92.7416154,4.4947324 92.8791258,4.75684313 C93.0209233,5.01466878 93.121907,5.2810849 93.1820707,5.55609148 C93.2421837,5.83110821 93.2723417,6.11041002 93.2723417,6.39401722 C93.2723417,6.73777799 93.2143611,7.07939621 93.0983188,7.41885159 C92.9865818,7.75402189 92.8233,8.06770587 92.6084531,8.35990353 C92.3978943,8.6521012 92.1121415,8.89059322 91.7511957,9.0753593 C91.3902408,9.25584031 90.9863204,9.34607065 90.5394335,9.34607065 C90.1140247,9.34607065 89.7251437,9.26229839 89.3727894,9.09469293 C89.0204311,8.92711793 88.7346793,8.70581699 88.5155321,8.43081041 C88.2963818,8.15579368 88.12665,7.85285285 88.0063338,7.52198794 C87.8903127,7.19111288 87.8322631,6.85380004 87.8322631,6.51002912 M90.4169675,3.86091651 C90.0817962,3.86091651 89.8003417,3.9812338 89.572601,4.22186836 C89.3448562,4.4582077 89.1837179,4.74611013 89.0891852,5.0855655 C88.9989447,5.42504119 88.9538286,5.79887874 88.9538286,6.2070883 C88.9538286,6.42195147 88.9731622,6.64753749 89.0118396,6.88387682 C89.0548122,7.11592092 89.1235603,7.35440279 89.2180971,7.59933259 C89.3126328,7.84426239 89.4265011,8.06341064 89.5597112,8.25677734 C89.6929172,8.45014403 89.862649,8.60913872 90.0689095,8.73375123 C90.2794612,8.85406852 90.5093516,8.91422208 90.7585827,8.91422208 C90.9261638,8.91422208 91.0830048,8.88629799 91.2291077,8.83044981 C91.3794997,8.77033687 91.5255985,8.66931259 91.6674052,8.52750899 C91.8134989,8.38141016 91.929519,8.16226191 92.0154642,7.87006425 C92.1013993,7.57786658 92.144375,7.22551535 92.144375,6.81299025 C92.144375,5.85475738 91.9939749,5.12426321 91.6931867,4.62150777 C91.3923905,4.11446724 90.9669848,3.86091651 90.4169686,3.86091651 M95.4878897,5.11134705 L95.4878897,8.33412198 C95.8101641,8.71226492 96.1754112,8.90132623 96.5836309,8.90132623 C96.8543422,8.90132623 97.0949768,8.85187521 97.3055346,8.75308486 C97.5203775,8.64995866 97.692268,8.51889822 97.8211757,8.35990353 C97.9500835,8.200919 98.0553624,8.01184754 98.1370124,7.79269929 C98.2229171,7.57355104 98.2809586,7.35655549 98.3110353,7.14169232 C98.3410918,6.92684945 98.35612,6.70340597 98.35612,6.47136187 C98.35612,5.74516294 98.2100111,5.15647238 97.9178236,4.70528003 C97.629911,4.25409784 97.2775597,4.02850166 96.8607496,4.02850166 C96.620115,4.02850166 96.364442,4.12730217 96.0937307,4.32499456 C95.8273146,4.51836126 95.6253574,4.78048214 95.487849,5.11134705 M94.5016819,4.98243931 C94.5016819,4.67306071 94.4780226,4.46250293 94.4308055,4.35077611 C94.3835884,4.23905945 94.3104882,4.17675319 94.2116573,4.16385734 L93.6444429,4.10587678 L93.6186512,3.7900401 C94.4393858,3.66543774 95.0452675,3.53008207 95.4362961,3.38397308 C95.4707189,3.38397308 95.4878795,3.39686893 95.4878795,3.42266063 L95.4491919,4.47972448 L95.4878795,4.47972448 C95.9519575,3.77502202 96.529905,3.42266063 97.2217319,3.42266063 C97.6342468,3.42266063 98.0123796,3.54942584 98.3561505,3.80294611 C98.6999011,4.05647652 98.9663172,4.38949413 99.1553989,4.80200908 C99.3444602,5.21452402 99.4389959,5.65282052 99.4389959,6.11689857 C99.4389959,7.15248625 99.1296072,7.98395391 98.5108398,8.61132187 C98.0252754,9.10118147 97.4107932,9.34611127 96.6674133,9.34611127 C96.2420025,9.34611127 95.8488314,9.24944315 95.4878795,9.0560663 L95.4878795,11.3442372 C95.4878795,11.5290033 95.5286994,11.6622164 95.6103495,11.7438563 C95.6962541,11.829761 95.8402307,11.8813647 96.0421981,11.8985456 L96.2935758,11.9243373 C96.3752157,11.9372332 96.4160356,11.9715544 96.4160356,12.0274635 L96.4160356,12.2788412 L96.3902439,12.3046329 C95.7370944,12.2874723 95.2665684,12.2788412 94.9786761,12.2788412 C94.7079546,12.2788311 94.2503245,12.2869646 93.6057756,12.3046329 L93.5735868,12.2788412 L93.5735868,12.0274635 C93.5735868,11.9716153 93.6101419,11.9371925 93.6831609,11.9243373 L93.9345386,11.8985456 C94.1450862,11.881385 94.2911851,11.8298016 94.3728351,11.7438563 C94.4587398,11.6622164 94.5017428,11.5290033 94.5017428,11.3442372 L94.5017428,4.98247992 M101.261413,5.42718373 L103.68494,5.42718373 C103.809542,5.42718373 103.871859,5.36707078 103.871859,5.24670273 C103.871859,4.984592 103.837436,4.75899583 103.768732,4.56992436 C103.704253,4.38086305 103.614033,4.23905945 103.498011,4.14451356 C103.386294,4.04571306 103.270272,3.97693856 103.149955,3.93826116 C103.033933,3.89530884 102.90932,3.8737819 102.776117,3.8737819 C102.690213,3.8737819 102.604227,3.87987443 102.518292,3.89317645 C102.436652,3.90129982 102.324925,3.93612878 102.183121,3.99630265 C102.041318,4.05215083 101.914553,4.13165832 101.802836,4.23478452 C101.695404,4.33792088 101.587983,4.49261017 101.480562,4.69886257 C101.377425,4.90512512 101.304376,5.14791238 101.261413,5.42721419 M104.742004,7.9603149 C104.879502,7.97321075 104.9676,8.04408717 105.006277,8.17301522 C104.744146,8.53396707 104.421872,8.81971681 104.039444,9.03027459 C103.657006,9.24082222 103.23589,9.34610111 102.776117,9.34610111 C101.916705,9.34610111 101.265709,9.08828562 100.823117,8.57263432 C100.38482,8.05699317 100.165672,7.3952532 100.165672,6.58741439 C100.165672,6.10614525 100.243047,5.66140083 100.397706,5.25318112 C100.552395,4.84497156 100.754363,4.50980126 101.003588,4.24768037 C101.252813,3.98555949 101.529972,3.78360233 101.835065,3.64179873 C102.144444,3.4956999 102.458128,3.42265048 102.776117,3.42265048 C103.111278,3.42265048 103.40777,3.46773519 103.665596,3.55800615 C103.923422,3.64827712 104.129674,3.76641124 104.284374,3.91251008 C104.443358,4.05431368 104.572266,4.22834675 104.671107,4.43459915 C104.769908,4.6408617 104.836539,4.8471141 104.870922,5.05336649 C104.909609,5.25962904 104.928902,5.48092998 104.928902,5.71725916 C104.928902,5.86766338 104.849395,5.94285534 104.69042,5.94285534 L101.216268,5.94285534 C101.216268,6.32099827 101.257088,6.66905427 101.338738,6.98703348 C101.424642,7.30071746 101.532104,7.56068565 101.661012,7.7669482 C101.794225,7.9732006 101.944619,8.14938637 102.112204,8.2954852 C102.284085,8.43727865 102.45167,8.540415 102.61496,8.60486379 C102.77824,8.66934305 102.937234,8.70153191 103.091924,8.70153191 C103.44858,8.70153191 103.753664,8.64355135 104.007194,8.52749884 C104.260714,8.40718155 104.505644,8.21811009 104.741983,7.96029459 M109.658278,7.97317014 L109.658278,4.66016486 C109.490693,4.39804398 109.30807,4.20467728 109.110408,4.08006476 C108.912735,3.95115702 108.665663,3.88669806 108.36917,3.88669806 C107.840633,3.88669806 107.430261,4.10584631 107.138063,4.54414281 C106.893133,4.89650419 106.770674,5.48089952 106.770674,6.2973288 C106.770674,7.07079559 106.912477,7.67022931 107.196074,8.09564011 C107.483977,8.51674552 107.821289,8.72730331 108.208033,8.72730331 C108.551784,8.72730331 109.035205,8.47592558 109.658278,7.97317014 M110.650893,1.5211825 L110.650893,7.68312516 C110.650883,8.00969484 110.670186,8.21595739 110.708874,8.30189251 C110.747561,8.38779716 110.837771,8.43724818 110.979585,8.45014403 L111.617696,8.51462329 L111.656384,8.82400189 C110.801267,8.97440611 110.238358,9.15917219 109.967657,9.37832044 L109.658268,9.37832044 L109.690457,8.45016434 L109.658268,8.43726849 C108.910583,9.04315014 108.313292,9.34609096 107.866405,9.34609096 C107.170283,9.34609096 106.626707,9.08612277 106.235678,8.56618639 C105.84465,8.04623986 105.649141,7.36946149 105.649141,6.53583098 C105.649141,5.5775981 105.943481,4.80414146 106.532182,4.21544075 C106.811483,3.94902463 107.105824,3.7513627 107.415212,3.6224448 C107.728896,3.48925197 108.094143,3.42264033 108.510964,3.42264033 C108.657052,3.42264033 108.848277,3.45056441 109.084616,3.50641259 C109.32524,3.56226077 109.516464,3.63102511 109.658268,3.71266499 L109.658268,1.78544593 C109.658258,1.37723637 109.628212,1.10437232 109.567997,0.966863957 C109.507884,0.825070512 109.40686,0.754173789 109.265056,0.754163635 L108.839656,0.728371931 C108.788072,0.728382085 108.76228,0.706844997 108.76228,0.663892671 L108.736489,0.348055996 C109.011495,0.326529062 109.335923,0.281444352 109.70977,0.212700323 C110.083608,0.139691523 110.354319,0.0687643378 110.521904,8.8817842e-16 C110.633631,8.8817842e-16 110.689489,0.0450847106 110.689489,0.135355674 C110.663698,0.487727211 110.650802,0.949652564 110.650802,1.52115204 M112.802013,2.13994985 C112.6774,2.01534749 112.615094,1.86709596 112.615094,1.69521558 C112.615094,1.5233352 112.677441,1.37509383 112.802013,1.25047116 C112.926625,1.12156341 113.074877,1.05710446 113.246757,1.05710446 C113.418638,1.05710446 113.566879,1.11945133 113.691502,1.24402323 C113.820409,1.3686459 113.884868,1.51903997 113.884868,1.69521558 C113.884868,1.86709596 113.820389,2.01534749 113.691502,2.13994985 C113.566879,2.26457252 113.418638,2.32687878 113.246757,2.32687878 C113.074877,2.32687878 112.926625,2.2645319 112.802013,2.13994985 M113.859087,3.42262002 C113.82903,4.0199112 113.814002,4.53984758 113.814002,4.98243931 L113.814002,8.26966303 C113.814002,8.4587345 113.854822,8.59624287 113.936472,8.68217798 C114.022377,8.76381786 114.168506,8.81539112 114.374768,8.83687743 L114.619698,8.86266914 C114.701338,8.87556499 114.742168,8.90988623 114.742168,8.96579533 L114.742168,9.21717306 L114.716377,9.24296476 C114.011623,9.22575337 113.541097,9.2171629 113.304768,9.2171629 C113.09421,9.2171629 112.63658,9.22528628 111.931868,9.24296476 L111.906076,9.2171629 L111.906076,8.96578518 C111.906076,8.909937 111.940499,8.87551422 112.009202,8.86265898 L112.26058,8.83686728 C112.484023,8.8068108 112.634417,8.75309501 112.711762,8.67573005 C112.789137,8.59409017 112.827784,8.45872435 112.827784,8.26965288 L112.827784,4.98242915 C112.827784,4.66875532 112.804125,4.45819754 112.756908,4.35076596 C112.713955,4.23904929 112.640886,4.17674304 112.537759,4.16384718 L111.970545,4.10586662 L111.944753,3.79002995 C112.829947,3.65682697 113.448714,3.52147129 113.801076,3.38396292 C113.839763,3.38396292 113.859056,3.39685878 113.859056,3.42265048 M116.255136,5.42718373 L118.678663,5.42718373 C118.803275,5.42718373 118.865581,5.36707078 118.865581,5.24670273 C118.865581,4.984592 118.831159,4.75899583 118.762455,4.56992436 C118.697976,4.38086305 118.607756,4.23905945 118.491744,4.14451356 C118.380017,4.04571306 118.263995,3.97693856 118.143688,3.93826116 C118.027656,3.89530884 117.903043,3.8737819 117.76984,3.8737819 C117.683935,3.8737819 117.59796,3.87987443 117.512025,3.89317645 C117.430385,3.90129982 117.318648,3.93612878 117.176854,3.99630265 C117.035051,4.05215083 116.908286,4.13165832 116.796569,4.23478452 C116.689137,4.33792088 116.581706,4.49261017 116.474284,4.69886257 C116.371158,4.90512512 116.298109,5.14791238 116.255136,5.42721419 M119.735737,7.9603149 C119.873235,7.97321075 119.961323,8.04408717 120,8.17301522 C119.737879,8.53396707 119.415595,8.81971681 119.033167,9.03027459 C118.650728,9.24082222 118.229623,9.34610111 117.76984,9.34610111 C116.910428,9.34610111 116.259431,9.08828562 115.81684,8.57263432 C115.378543,8.05699317 115.159395,7.3952532 115.159395,6.58741439 C115.159395,6.10614525 115.23677,5.66140083 115.391439,5.25318112 C115.546128,4.84497156 115.748085,4.50980126 115.997321,4.24768037 C116.246546,3.98555949 116.523705,3.78360233 116.828788,3.64179873 C117.138177,3.4956999 117.451861,3.42265048 117.76984,3.42265048 C118.10501,3.42265048 118.401503,3.46773519 118.659329,3.55800615 C118.917144,3.64827712 119.123397,3.76641124 119.278096,3.91251008 C119.437081,4.05431368 119.565999,4.22834675 119.66483,4.43459915 C119.76363,4.6408617 119.830262,4.8471141 119.864644,5.05336649 C119.903332,5.25962904 119.922625,5.48092998 119.922625,5.71725916 C119.922615,5.86766338 119.843117,5.94285534 119.684143,5.94285534 L116.20999,5.94285534 C116.20999,6.32099827 116.25081,6.66905427 116.33245,6.98703348 C116.418355,7.30071746 116.525817,7.56068565 116.654735,7.7669482 C116.787938,7.9732006 116.938332,8.14938637 117.105917,8.2954852 C117.277797,8.43727865 117.445383,8.540415 117.608672,8.60486379 C117.771952,8.66934305 117.930947,8.70153191 118.085646,8.70153191 C118.442293,8.70153191 118.747386,8.64355135 119.000907,8.52749884 C119.254427,8.40718155 119.499357,8.21811009 119.735706,7.96029459" id="vls-tagline" fill="#000000" fill-rule="nonzero"></path>
    </g>
</svg>