<svg xmlns="http://www.w3.org/2000/svg" width="122" height="41" fill="none"><path fill="#2A62A1" d="M86.746 6.808c3.419.17 5.154.256 5.21.256 1.764.03 3.88.037 6.344.022 2.464-.015 4.576-.107 6.344-.278v4.27c-2.278-.142-3.659-.215-4.143-.215h-2.777c0 .714.14 1.432.427 2.158.284.727.576 1.338.876 1.837.298.498.805 1.103 1.516 1.815.712.712 1.231 1.21 1.56 1.494.328.285.955.791 1.879 1.517l1.602 1.26c-.058.085-.591.527-1.602 1.324-1.011.8-1.545 1.198-1.602 1.198-.057 0-.215-.113-.469-.343l-.384-.297c-3.048-2.478-4.955-4.57-5.724-6.278-.825 1.338-1.936 2.71-3.331 4.12-1.396 1.41-2.749 2.527-4.058 3.354l-3.331-2.308c.141-.199.37-.419.683-.662.314-.24.655-.491 1.025-.747.371-.256.627-.441.771-.554a25.502 25.502 0 0 0 4.291-4.293c1.24-1.58 1.858-3.108 1.858-4.592h-2.734c-.485 0-1.893.072-4.228.216l-.003-4.274Zm4.101-5.211h9.738v3.674h-9.738V1.597Zm.298 23.619c13.041.173 22.822.257 29.342.257v14.692h-4.184V29.316l-17.938.043c-.912 0-2.214.03-3.907.085-1.695.058-2.799.086-3.311.086l-.002-4.314ZM116.432 1c2.475 0 3.899.113 4.271.34.198.114.297.314.297.598 0 .257-.058.649-.171 1.175-.114.527-.171.918-.171 1.173v19.177h-4.228v-8.414h-4.741v7.988h-4.143V1.895l2.776.13c.257.028.513.043.771.043.256 0 .47.078.641.233.17.158.242.406.213.75a343.902 343.902 0 0 0-.256 2.732v5.467h4.741V1Z"/><path stroke="#15304F" stroke-miterlimit="10" stroke-width=".25" d="M86.746 6.808c3.419.17 5.154.256 5.21.256 1.764.03 3.88.037 6.344.022 2.464-.015 4.576-.107 6.344-.278v4.27c-2.278-.142-3.659-.215-4.143-.215h-2.777c0 .714.14 1.432.427 2.158.284.727.576 1.338.876 1.837.298.498.805 1.103 1.516 1.815.712.712 1.231 1.21 1.56 1.494.328.285.955.791 1.879 1.517l1.602 1.26c-.058.085-.591.527-1.602 1.324-1.011.8-1.545 1.198-1.602 1.198-.057 0-.215-.113-.469-.343l-.384-.297c-3.048-2.478-4.955-4.57-5.724-6.278-.825 1.338-1.936 2.71-3.331 4.12-1.396 1.41-2.749 2.527-4.058 3.354l-3.331-2.308c.141-.199.37-.419.683-.662.314-.24.655-.491 1.025-.747.371-.256.627-.441.771-.554a25.502 25.502 0 0 0 4.291-4.293c1.24-1.58 1.858-3.108 1.858-4.592h-2.734c-.485 0-1.893.072-4.228.216l-.003-4.274Zm4.101-5.211h9.738v3.674h-9.738V1.597Zm.298 23.619c13.041.173 22.822.257 29.342.257v14.692h-4.184V29.316l-17.938.043c-.912 0-2.214.03-3.907.085-1.695.058-2.799.086-3.311.086l-.002-4.314ZM116.432 1c2.475 0 3.899.113 4.271.34.198.114.297.314.297.598 0 .257-.058.649-.171 1.175-.114.527-.171.918-.171 1.173v19.177h-4.228v-8.414h-4.741v7.988h-4.143V1.895l2.776.13c.257.028.513.043.771.043.256 0 .47.078.641.233.17.158.242.406.213.75a343.902 343.902 0 0 0-.256 2.732v5.467h4.741V1Z"/><path fill="#15304F" d="M1 21.77c1.48.058 2.577.085 3.289.085 4.641 0 10.62-.155 17.938-.469 3.957-.14 6.464-.256 7.517-.34v3.714l-11.788.6v13.497H13.6V25.616a619.74 619.74 0 0 0-8.2.428l-1.624.128c-.142 0-.392.058-.747.17-.356.115-.619.173-.79.173h-.086l-.085-.042c-.398-.375-.754-1.941-1.067-4.703ZM16.034 1.91c2.905 0 5.446.74 7.625 2.221 2.178 1.482 3.265 3.602 3.265 6.364 0 1.451-.512 2.826-1.536 4.121-1.025 1.296-2.265 2.258-3.716 2.883-1.71.77-3.945 1.153-6.706 1.153-1.623 0-3.253-.276-4.89-.833-1.638-.554-3.074-1.466-4.313-2.734-1.239-1.266-1.859-2.74-1.859-4.42 0-1.623.356-3.025 1.068-4.208a7.273 7.273 0 0 1 2.905-2.734 14.986 14.986 0 0 1 3.865-1.387 20.74 20.74 0 0 1 4.292-.426Zm-1.537 3.97c-1.51 0-2.947.358-4.314 1.068-1.366.712-2.05 1.737-2.05 3.075 0 1.652.748 2.834 2.242 3.544 1.494.712 3.167 1.068 5.018 1.068 4.812 0 7.218-1.437 7.218-4.314 0-.824-.192-1.536-.576-2.135-.384-.6-.832-1.039-1.344-1.324-.513-.286-1.19-.506-2.03-.662-.84-.157-1.53-.25-2.073-.278a43.907 43.907 0 0 0-2.091-.042Zm17.426-4.867c2.562 0 4.029.113 4.399.341.114.142.17.498.17 1.068 0 .426-.042 1.068-.127 1.92-.086.854-.129 1.496-.129 1.922v33.314h-4.313V1.013ZM46.316 5.412c2.05.142 4.107.227 6.171.257 2.065.027 4.784.027 8.158 0 3.374-.028 5.431-.043 6.171-.043-.115 4.156-.47 7.622-1.067 10.4-.598 2.775-1.631 5.31-3.097 7.602-1.467 2.293-3.36 4.271-5.68 5.938-2.322 1.665-5.36 3.339-9.118 5.018-1.452-1.852-2.422-3.048-2.905-3.589a54.098 54.098 0 0 0 4.59-2.028 41.091 41.091 0 0 0 4.143-2.434 18.505 18.505 0 0 0 3.78-3.308 16.153 16.153 0 0 0 2.606-4.143c-3.218.284-8.045.654-14.48 1.11l-1.025-4.313c4.213-.171 7.304-.314 9.27-.429.198 0 1.423-.056 3.672-.17 2.25-.113 3.402-.185 3.46-.216.228-.17.434-.973.619-2.412.185-1.438.277-2.471.277-3.098-6.92-.056-12.101.03-15.547.258V5.41h.002ZM74.42 1.013a86.217 86.217 0 0 1 3.183.213c.613.058.975.128 1.088.213.173.115.257.486.257 1.11 0 .314-.036.77-.106 1.367a12.556 12.556 0 0 0-.107 1.365v34.297H74.42l-.001-38.565Z"/><path stroke="#15304F" stroke-miterlimit="10" stroke-width=".25" d="M1 21.77c1.48.058 2.577.085 3.289.085 4.641 0 10.62-.155 17.938-.469 3.957-.14 6.464-.256 7.517-.34v3.714l-11.788.6v13.497H13.6V25.616a619.74 619.74 0 0 0-8.2.428l-1.624.128c-.142 0-.392.058-.747.17-.356.115-.619.173-.79.173h-.086l-.085-.042c-.398-.375-.754-1.941-1.067-4.703ZM16.034 1.91c2.905 0 5.446.74 7.625 2.221 2.178 1.482 3.265 3.602 3.265 6.364 0 1.451-.512 2.826-1.536 4.121-1.025 1.296-2.265 2.258-3.716 2.883-1.71.77-3.945 1.153-6.706 1.153-1.623 0-3.253-.276-4.89-.833-1.638-.554-3.074-1.466-4.313-2.734-1.239-1.266-1.859-2.74-1.859-4.42 0-1.623.356-3.025 1.068-4.208a7.273 7.273 0 0 1 2.905-2.734 14.986 14.986 0 0 1 3.865-1.387 20.74 20.74 0 0 1 4.292-.426Zm-1.537 3.97c-1.51 0-2.947.358-4.314 1.068-1.366.712-2.05 1.737-2.05 3.075 0 1.652.748 2.834 2.242 3.544 1.494.712 3.167 1.068 5.018 1.068 4.812 0 7.218-1.437 7.218-4.314 0-.824-.192-1.536-.576-2.135-.384-.6-.832-1.039-1.344-1.324-.513-.286-1.19-.506-2.03-.662-.84-.157-1.53-.25-2.073-.278a43.907 43.907 0 0 0-2.091-.042Zm17.426-4.867c2.562 0 4.029.113 4.399.341.114.142.17.498.17 1.068 0 .426-.042 1.068-.127 1.92-.086.854-.129 1.496-.129 1.922v33.314h-4.313V1.013ZM46.316 5.412c2.05.142 4.107.227 6.171.257 2.065.027 4.784.027 8.158 0 3.374-.028 5.431-.043 6.171-.043-.115 4.156-.47 7.622-1.067 10.4-.598 2.775-1.631 5.31-3.097 7.602-1.467 2.293-3.36 4.271-5.68 5.938-2.322 1.665-5.36 3.339-9.118 5.018-1.452-1.852-2.422-3.048-2.905-3.589a54.098 54.098 0 0 0 4.59-2.028 41.091 41.091 0 0 0 4.143-2.434 18.505 18.505 0 0 0 3.78-3.308 16.153 16.153 0 0 0 2.606-4.143c-3.218.284-8.045.654-14.48 1.11l-1.025-4.313c4.213-.171 7.304-.314 9.27-.429.198 0 1.423-.056 3.672-.17 2.25-.113 3.402-.185 3.46-.216.228-.17.434-.973.619-2.412.185-1.438.277-2.471.277-3.098-6.92-.056-12.101.03-15.547.258l.002-4.4ZM74.42 1.013a86.217 86.217 0 0 1 3.183.213c.613.058.975.128 1.088.213.173.115.257.486.257 1.11 0 .314-.036.77-.106 1.367a12.576 12.576 0 0 0-.107 1.365v34.297H74.42l-.001-38.565Z"/></svg>