<?xml version="1.0" encoding="UTF-8"?>
<svg width="120px" height="13px" viewBox="0 0 120 13" version="1.1" xmlns="http://www.w3.org/2000/svg" xmlns:xlink="http://www.w3.org/1999/xlink">
    <title>ms-tagline</title>
    <g id="Page-1" stroke="none" stroke-width="1" fill="none" fill-rule="evenodd">
        <path d="M5.80065457,0.700562283 C5.81374312,0.761724693 5.85739225,1.0388327 5.93159473,1.53203069 C6.01015697,2.02088646 6.06471115,2.3918834 6.0952707,2.64502152 L5.70899656,2.71051583 C5.63916002,2.49665368 5.57805022,2.32643034 5.52568055,2.19984581 C5.47765826,2.07328191 5.41219282,1.94234485 5.3292698,1.80702431 C5.24633439,1.66737186 5.15467742,1.56261189 5.05429474,1.49277535 C4.95827079,1.42294913 4.83605633,1.36620114 4.68766271,1.32255201 C4.53925878,1.27459161 4.36685401,1.25055984 4.17044842,1.25055984 L2.75629306,1.25055984 C2.59479748,1.25057015 2.47476857,1.28769047 2.39620737,1.36185892 C2.31764513,1.43168514 2.27835885,1.5473677 2.27836092,1.70885503 L2.27836092,4.52406894 L3.98058503,4.52406894 C4.20754399,4.52407926 4.36903647,4.48044045 4.46506351,4.39313188 C4.56545032,4.30143984 4.62655187,4.15744516 4.64838056,3.9610241 L4.68766684,3.62058773 C4.68766168,3.59439001 4.69643379,3.57035823 4.71385425,3.54859555 C4.7356685,3.52672973 4.75967964,3.51589997 4.78586706,3.51589997 L5.08048319,3.51589997 L5.13285801,3.56829542 C5.09793458,4.04405233 5.08047287,4.44778611 5.08048319,4.77949678 C5.08047803,5.0806675 5.09793458,5.46911584 5.13285801,5.94486243 L5.08048319,5.98415902 L4.78586706,5.98415902 C4.72039337,5.98415902 4.68765652,5.94919434 4.68766684,5.87940937 L4.64838056,5.53896269 C4.63091885,5.34691479 4.57199459,5.21380146 4.47161088,5.13959176 C4.37122408,5.06543362 4.20754399,5.02830299 3.98058503,5.02829267 L2.27836092,5.02829267 L2.27836092,8.400002 C2.27835885,8.57022534 2.31763688,8.68589759 2.39620737,8.74699811 C2.47476961,8.80805738 2.59479748,8.83869016 2.75629306,8.83869016 L4.58290997,8.83869016 C5.46893359,8.83869016 6.07125852,8.25382075 6.3898858,7.08409224 L6.80889472,7.14958656 L6.3113215,9.38866708 C5.59550884,9.37098877 5.02373726,9.36226307 4.59600367,9.36226307 L1.72841184,9.36226307 C1.43161222,9.36226307 0.86420494,9.37051432 0.0261881347,9.3884608 L0,9.36226307 L0,9.09383951 C0,9.03278024 0.034917238,9.00214747 0.10475223,9.00214747 L0.504120176,8.97594974 C0.761635167,8.95408392 0.940586682,8.89952251 1.04097524,8.81227583 C1.14136204,8.72501884 1.19155544,8.58749109 1.19155647,8.39980603 L1.19155647,1.7087622 C1.19155544,1.4992629 1.14135791,1.35086412 1.04097524,1.26356587 C0.940586372,1.17630888 0.761635167,1.12171653 0.504120176,1.09989196 L0.10475223,1.07369424 C0.0349167223,1.07370455 0,1.0431646 0,0.982002193 L0,0.713578634 L0.0261884442,0.687380907 C0.864205249,0.704811678 1.43161222,0.713578634 1.72841184,0.713578634 L5.11976534,0.713578634 C5.33362852,0.713578634 5.54313298,0.696147863 5.74827871,0.66118318 C5.78319183,0.66118318 5.80064323,0.674282044 5.80065354,0.700479771 M10.5557008,3.47650023 L10.5164146,4.6680533 L10.5557008,4.6680533 C10.9528842,4.20104272 11.3195162,3.88678345 11.6556,3.72528581 C11.9960405,3.55943564 12.3583087,3.47650023 12.7424045,3.47650023 C13.034833,3.47650023 13.2792547,3.52889569 13.4756695,3.63362471 C13.676439,3.73838468 13.8292027,3.89333289 13.9339606,4.09845902 C14.0387072,4.29924294 14.1107241,4.51965452 14.1500124,4.7597144 C14.1936513,4.99541143 14.2154758,5.27474727 14.2154861,5.59773224 L14.2154861,8.39984729 C14.215481,8.59189519 14.2569487,8.73156827 14.33988,8.81885621 C14.422805,8.9017813 14.5690193,8.95416643 14.7785299,8.975991 L15.0338629,9.00218872 C15.1124251,9.0196195 15.1517093,9.05458418 15.1517093,9.10693838 L15.1517093,9.36227339 L15.1255219,9.38847111 C14.4097041,9.37098877 13.931773,9.36226307 13.6917214,9.36226307 C13.5214939,9.36226307 13.078479,9.37051432 12.3626777,9.38847111 L12.3364892,9.36226307 L12.3364892,9.10692806 C12.3364851,9.0502007 12.3735889,9.01523602 12.4477883,9.00217841 L12.6311043,8.97598068 C12.8536984,8.941016 13.0042796,8.88428864 13.0828491,8.80575734 C13.1657742,8.72283226 13.2072377,8.58752203 13.2072419,8.39983697 L13.2072419,5.49951139 C13.2072377,5.00195055 13.146131,4.64840501 13.0239258,4.43889539 C12.9060753,4.22503324 12.6769297,4.118097 12.3364892,4.118097 C12.0265939,4.118097 11.7341602,4.19452423 11.4591893,4.3472446 C11.1842121,4.50000623 10.8830497,4.7684401 10.5557008,5.15252559 L10.5557008,8.39983697 C10.5556988,8.59188488 10.5949768,8.72719511 10.6735473,8.80575734 C10.7564724,8.88435052 10.9092371,8.94105726 11.1318383,8.97598068 L11.3217017,9.00217841 C11.3915383,9.01527727 11.4264514,9.05013882 11.4264545,9.10692806 L11.4264545,9.36226307 L11.4002671,9.38847111 C10.6844565,9.37098877 10.2283489,9.36226307 10.0319402,9.36226307 C9.81806979,9.36226307 9.35323239,9.37051432 8.63742591,9.38847111 L8.6112385,9.36226307 L8.6112385,9.10692806 C8.6112385,9.0502007 8.64615161,9.01523602 8.71599021,9.00217841 L8.97132419,8.97598068 C9.19392133,8.95411486 9.34450256,8.90182255 9.42306789,8.81884589 C9.50599298,8.73592081 9.54745965,8.59624773 9.54746068,8.39983697 L9.54746068,5.06086449 C9.54745965,4.74225269 9.52344954,4.52838022 9.47544788,4.41925741 C9.43179875,4.30578206 9.35760039,4.24249495 9.25284971,4.22939609 L8.67671219,4.17050277 L8.65052478,3.84969407 C9.5060002,3.71876732 10.1236013,3.58128083 10.5033301,3.43723459 C10.5382432,3.43723459 10.555705,3.45033345 10.555705,3.47653118 M17.0587997,7.48326721 L17.4188864,7.47016835 C17.5018115,8.07248916 17.6633071,8.49368466 17.9033659,8.73373422 C17.9950167,8.82975817 18.1281445,8.91924301 18.3027338,9.0021681 C18.4773189,9.08076128 18.6759111,9.12001661 18.8985113,9.12001661 C19.1691194,9.12001661 19.4309997,9.02832457 19.6841533,8.84504362 C19.9373007,8.66172142 20.063877,8.41948527 20.0638801,8.11832487 C20.063877,7.82152731 19.9634933,7.56836857 19.7627176,7.35886927 C19.5619399,7.1449968 19.2018542,6.92239864 18.6824605,6.69107477 C18.4031195,6.56886341 18.1870677,6.46629002 18.0343061,6.38336494 C17.8815403,6.29610794 17.735324,6.18695418 17.5956561,6.05600681 C17.46035,5.92506974 17.3665095,5.7744947 17.3141347,5.60427136 C17.2617599,5.43404802 17.2355725,5.22454871 17.2355725,4.97575282 C17.2355714,4.53492965 17.4123411,4.17484499 17.7658805,3.89549884 C18.1237816,3.616163 18.5711615,3.47648992 19.1080179,3.47648992 C19.6623287,3.47648992 20.1555371,3.587789 20.5876438,3.81038717 C20.6531072,4.17702126 20.7011212,4.63312987 20.7316777,5.17871301 L20.371592,5.19181187 C20.3061183,4.93430059 20.2144603,4.71388901 20.0966169,4.53056681 C19.9831323,4.34289207 19.860922,4.20540557 19.7299849,4.11810732 C19.6034055,4.03085032 19.4877426,3.96970854 19.3829929,3.93478512 C19.2826061,3.89548852 19.190944,3.8758918 19.1080179,3.8758918 C18.405303,3.87590211 18.0539472,4.17706252 18.0539492,4.77938333 C18.0539472,5.04999347 18.1194229,5.26386593 18.2503589,5.42099041 C18.385662,5.57376235 18.636631,5.7156117 19.0032661,5.84654876 C19.3087904,5.96003442 19.5663058,6.07133351 19.7758134,6.18044601 C19.9853147,6.28956882 20.1860894,6.42050589 20.3781393,6.57326751 C20.5745449,6.72602914 20.7207623,6.90498849 20.8167893,7.11012495 C20.912803,7.3152614 20.9608232,7.54659558 20.9608232,7.80410686 C20.9608232,8.05725528 20.9084381,8.28640288 20.8036946,8.49153933 C20.7033078,8.69231294 20.5767274,8.85381058 20.4239678,8.97602194 C20.2755649,9.0982333 20.1053426,9.20079637 19.9133009,9.28373178 C19.721252,9.36232496 19.5423009,9.41685542 19.3764455,9.44740568 C19.21495,9.47793532 19.0643687,9.49320014 18.9247018,9.49320014 C18.4882322,9.49320014 18.0845005,9.44523973 17.7135046,9.34916421 C17.6523938,9.33173344 17.5694687,9.32296648 17.464718,9.32296648 C17.3948815,9.32296648 17.2901297,9.33606534 17.1504608,9.36226307 C17.1504608,8.88215363 17.1199105,8.25582168 17.0587997,7.48326721 M23.8565136,2.17363777 C23.7299374,2.04707387 23.6666503,1.89648851 23.6666503,1.72190232 C23.6666503,1.54731613 23.7299374,1.39674109 23.8565136,1.27015656 C23.9830879,1.1392195 24.1336691,1.07374581 24.3082573,1.07374581 C24.4828425,1.07374581 24.6334237,1.13707417 24.7600021,1.26360713 C24.8909391,1.39019166 24.9564118,1.54295328 24.9564118,1.72190232 C24.9564118,1.89648851 24.8909381,2.04707387 24.7600021,2.17363777 C24.6334237,2.3002223 24.4828425,2.36350941 24.3082573,2.36350941 C24.1336691,2.36350941 23.9830879,2.30018104 23.8565136,2.17363777 M24.9302244,3.47650023 C24.8996638,4.08319421 24.8843887,4.61131563 24.884399,5.06087481 L24.884399,8.39984729 C24.8843969,8.59189519 24.9258615,8.73156827 25.0087928,8.81885621 C25.0960808,8.9017813 25.2444826,8.95416643 25.4539891,8.975991 L25.7027758,9.00218872 C25.7857008,9.01528759 25.8271696,9.05014913 25.8271696,9.10693838 L25.8271696,9.36227339 L25.8009822,9.38847111 C25.0851674,9.37098877 24.6072363,9.36226307 24.3671806,9.36226307 C24.1533102,9.36226307 23.6884728,9.37051432 22.9726673,9.38847111 L22.9464789,9.36226307 L22.9464789,9.10692806 C22.9464789,9.0502007 22.981392,9.01523602 23.0512306,9.00217841 L23.3065646,8.97598068 C23.5335266,8.94545105 23.6862903,8.89088964 23.7648556,8.81230678 C23.8434179,8.72938169 23.8827,8.59188488 23.8827021,8.39983697 L23.8827021,5.06086449 C23.8827,4.74225269 23.8586909,4.52838022 23.8106893,4.41925741 C23.7670402,4.30578206 23.6928418,4.24249495 23.5880901,4.22939609 L23.0119526,4.17050277 L22.9857652,3.84969407 C23.8848866,3.71439416 24.5134,3.57690766 24.8713053,3.43723459 C24.9105812,3.43723459 24.9302295,3.45033345 24.9302295,3.47653118 M28.4151502,1.81355311 C28.4151492,1.39891736 28.3845999,1.12175778 28.3234891,0.982084706 C28.2623782,0.838059093 28.1598121,0.766046286 28.0157792,0.766035972 L27.5836756,0.739838245 C27.5313008,0.739848559 27.5051134,0.717972426 27.5051134,0.674343928 L27.4789259,0.353535229 C27.7539,0.33166941 28.0812498,0.283709005 28.4609776,0.209509616 C28.8450683,0.135351484 29.1200423,0.065484003 29.2859018,-4.4408921e-15 C29.4037462,-4.4408921e-15 29.4626694,0.0457944516 29.4626714,0.137486496 C29.436484,0.495405203 29.4233852,0.964602365 29.4233852,1.54509861 L29.4233852,6.18693355 C29.7725565,6.09967656 30.3574228,5.606427 31.1779851,4.70730863 C31.23036,4.65491318 31.2783719,4.59819613 31.322019,4.53708529 C31.370031,4.47159098 31.4114935,4.39523595 31.4464128,4.3079377 C31.4813259,4.2206807 31.461688,4.14645037 31.3874886,4.08533953 C31.317652,4.01984521 31.1888912,3.98281772 31.0012144,3.97404045 C30.9313779,3.97404045 30.8964586,3.93690981 30.8964617,3.86274137 L30.8964617,3.60740636 C30.9226491,3.5991551 30.9357377,3.58997559 30.935748,3.58120863 C31.5991745,3.5986394 31.9985423,3.60740636 32.1338515,3.60740636 C32.2473289,3.60741667 32.6357845,3.5991551 33.2992202,3.58120863 L33.3515951,3.60740636 L33.3515951,3.86274137 C33.3515889,3.91946873 33.3013965,3.95659936 33.2010128,3.97404045 L33.1093517,3.98713931 C32.9085709,4.01766895 32.6816078,4.08976427 32.4284625,4.20319836 C32.1796707,4.31668402 31.9767136,4.45417052 31.8195902,4.61565785 L30.8048027,5.74174754 C30.7698792,5.77671222 30.7524278,5.82250667 30.7524278,5.87923403 C30.7524247,5.94472835 30.7742524,6.00580825 30.8179015,6.06254592 L32.3826371,8.38018868 C32.4961135,8.55041202 32.6445122,8.68572225 32.8278344,8.78610905 C33.0111453,8.88646491 33.1988262,8.95414581 33.3908772,8.98905892 L33.4825383,9.00215778 C33.5654634,9.01525665 33.6069311,9.05011819 33.6069311,9.10690743 L33.6069311,9.36224244 L33.5807437,9.38847111 C33.0395183,9.37098877 32.6597925,9.36226307 32.4415634,9.36226307 C32.1971365,9.36226307 31.8959741,9.37051432 31.538076,9.38847111 L31.4987938,9.36226307 L31.4987938,9.10692806 C31.4987897,8.92361617 31.3962205,8.68136971 31.191084,8.38020931 L30.2155786,7.00533404 C30.0846354,6.81329645 29.9624251,6.68453565 29.8489456,6.61906196 C29.7398269,6.55356765 29.5979745,6.52087206 29.4233903,6.52087206 L29.4233903,8.3998576 C29.4233883,8.62682893 29.4714023,8.77959056 29.5674242,8.8581528 C29.6634481,8.93231093 29.8162087,8.98036416 30.0257153,9.00218872 C30.0955518,9.00218872 30.1304649,9.03715341 30.130468,9.10693838 L30.130468,9.36227339 L30.1042806,9.38847111 C29.4059296,9.37098877 29.0043793,9.36226307 28.8996287,9.36226307 C28.8690784,9.36226307 28.4086018,9.37051432 27.5182091,9.38847111 L27.4920207,9.36226307 L27.4920207,9.10692806 C27.4920207,9.0502007 27.5225709,9.01523602 27.5836818,9.00217841 L27.8390158,8.97598068 C28.0616129,8.95411486 28.2121941,8.90182255 28.2907595,8.81884589 C28.3736845,8.73592081 28.4151522,8.59624773 28.4151533,8.39983697 L28.4151533,1.8135428 M36.0639767,8.39984729 L36.0639767,1.81355311 C36.0639757,1.39891736 36.0312399,1.12175778 35.9657765,0.982084706 C35.9046657,0.838059093 35.8021005,0.766046286 35.6580667,0.766035972 L35.2325114,0.739838245 C35.1757737,0.739848559 35.1473997,0.717972426 35.1473997,0.674343928 L35.1212123,0.353535229 C35.4005502,0.33166941 35.7300836,0.285874958 36.1098114,0.216048734 C36.4895361,0.141890602 36.7645101,0.0698468528 36.9347345,-4.4408921e-15 C37.048214,-4.4408921e-15 37.1049547,0.0457944516 37.1049568,0.137486496 C37.0787694,0.495405203 37.0656705,0.964602365 37.0656705,1.54509861 L37.0656705,8.39981635 C37.0656685,8.5962271 37.1049465,8.73590018 37.183517,8.81882526 C37.2620792,8.90175035 37.410478,8.95413549 37.6287143,8.97596006 L37.9495179,9.00215778 C38.0237173,9.00215778 38.060817,9.03712247 38.060817,9.10690743 L38.060817,9.36224244 L38.0346295,9.3884608 C37.1355029,9.37098877 36.6379297,9.36226307 36.5419089,9.36226307 C36.4589838,9.36226307 35.9723177,9.37051432 35.081925,9.3884608 L35.0688262,9.36226307 L35.0688262,9.10692806 C35.0688262,9.03710184 35.0993764,9.00217841 35.1604873,9.00217841 L35.4812918,8.97598068 C35.703889,8.95411486 35.8566527,8.90182255 35.9395829,8.81884589 C36.022508,8.73592081 36.0639747,8.59624773 36.0639757,8.39983697 M39.8893451,6.61251253 C39.8893451,5.67411821 40.1337668,4.91684919 40.6226112,4.34070548 C41.1114525,3.76457209 41.7923418,3.47650023 42.6652789,3.47650023 C43.0493675,3.47650023 43.3985409,3.5375595 43.7128012,3.65981212 C44.0270543,3.77766064 44.2867521,3.9369717 44.4918968,4.1377453 C44.7013951,4.33415605 44.8759823,4.56549023 45.0156575,4.83172721 C45.1596862,5.09361165 45.2622554,5.36422179 45.3233673,5.64355763 C45.3844678,5.92290379 45.4150284,6.20660248 45.4150284,6.49467433 C45.4150284,6.84384671 45.3561041,7.19084282 45.2382587,7.53564204 C45.124772,7.87608872 44.9589146,8.19471084 44.7406865,8.49150839 C44.526812,8.78830594 44.2365608,9.03055241 43.8699329,9.21822714 C43.5032967,9.40154935 43.0930166,9.49320014 42.6390946,9.49320014 C42.2069889,9.49320014 41.8119859,9.40810909 41.4540847,9.23786513 C41.0961795,9.0676521 40.8059293,8.84286735 40.5833321,8.56353151 C40.3607329,8.28418536 40.1883282,7.97647552 40.0661178,7.640402 C39.9482714,7.30431817 39.8893451,6.96169523 39.8893451,6.61251253 M42.5147008,3.92169657 C42.1742541,3.92169657 41.8883678,4.04390793 41.6570418,4.28833066 C41.4257128,4.52839054 41.2620368,4.82082524 41.166016,5.16562446 C41.0743549,5.5104443 41.0285285,5.89016694 41.0285285,6.3048027 C41.0285285,6.52304833 41.0481664,6.75218561 41.0874527,6.99224549 C41.1311018,7.22794252 41.2009332,7.47017866 41.2969572,7.71896424 C41.3929811,7.96774982 41.508642,8.19034799 41.6439492,8.38675874 C41.7792522,8.58316949 41.9516559,8.74466713 42.1611635,8.87124135 C42.3750297,8.99345271 42.6085392,9.05455324 42.8616938,9.05455324 C43.031913,9.05455324 43.191223,9.02618956 43.3396259,8.96946219 C43.4923855,8.90840293 43.6407843,8.80578829 43.7848233,8.66175236 C43.9332179,8.51335358 44.0510633,8.29075542 44.1383616,7.99395786 C44.2256495,7.69716031 44.2693018,7.33926223 44.2693018,6.920243 C44.2693018,5.94692525 44.1165339,5.20493136 43.8110107,4.69426134 C43.5054792,4.17923879 43.0733776,3.92169657 42.5147018,3.92169657 M49.1094535,5.19181187 L49.1094535,8.46532098 C49.4368054,8.84941678 49.8078034,9.04145437 50.2224505,9.04145437 C50.4974214,9.04145437 50.7418431,8.99122487 50.9557156,8.89087933 C51.1739458,8.78612968 51.348532,8.65300603 51.4794773,8.49150839 C51.6104123,8.33002106 51.7173475,8.13797316 51.8002808,7.915375 C51.8875687,7.69277683 51.946492,7.47236525 51.9770495,7.25411962 C52.0075997,7.03589462 52.0228748,6.8089336 52.0228748,6.57323657 C52.0228748,5.83560554 51.8744709,5.23764758 51.5776775,4.77935238 C51.2852407,4.3210675 50.9273375,4.09191991 50.5039678,4.09191991 C50.259542,4.09191991 49.9998441,4.19227576 49.7248732,4.39308031 C49.454261,4.58949106 49.2491214,4.85573835 49.1094535,5.19181187 M48.1077607,5.06087481 C48.1077597,4.74662585 48.0837496,4.53275339 48.0357376,4.41926772 C47.9877256,4.30579237 47.9135262,4.24250526 47.8131394,4.2294064 L47.2370019,4.17051309 L47.2108145,3.84970439 C48.0444664,3.72314049 48.659885,3.58565399 49.0570725,3.4372449 C49.0919856,3.4372449 49.1094473,3.45034376 49.1094473,3.47654149 L49.070161,4.55024604 L49.1094473,4.55024604 C49.58083,3.83444988 50.1678778,3.47654149 50.8705946,3.47654149 C51.2895984,3.47654149 51.6736901,3.60530229 52.0228687,3.86281356 C52.3720379,4.12033516 52.6426471,4.45859525 52.8346981,4.87760417 C53.0267387,5.29661309 53.1227668,5.74180942 53.1227668,6.21319317 C53.1227668,7.26508347 52.8085045,8.10964042 52.1799973,8.74688466 C51.6867838,9.24445581 51.0626364,9.49324139 50.3075508,9.49324139 C49.8754451,9.49324139 49.4760773,9.39505149 49.1094473,9.19863042 L49.1094473,11.5228226 C49.1094452,11.7104973 49.1509099,11.8458076 49.2338401,11.9287327 C49.321128,12.0159897 49.4673485,12.0684057 49.6724901,12.0858571 L49.9278241,12.1120549 C50.0107492,12.1251537 50.0522148,12.1600153 50.0522179,12.2168045 L50.0522179,12.4721395 L50.0260305,12.4983373 C49.3625968,12.4809065 48.8846657,12.4721395 48.592234,12.4721395 C48.317258,12.4721292 47.8524206,12.4803908 47.1977198,12.4983373 L47.1649829,12.4721395 L47.1649829,12.2168045 C47.1649829,12.1600772 47.2020826,12.1251125 47.276282,12.1120549 L47.531616,12.0858571 C47.7454843,12.0684264 47.8938831,12.0160309 47.9768123,11.9287327 C48.0641002,11.8458076 48.1077525,11.7104973 48.1077535,11.5228226 L48.1077535,5.06091606 M56.4178375,5.51262057 L58.8795151,5.51262057 C59.0060862,5.51262057 59.0693785,5.4515613 59.0693785,5.32929837 C59.0693785,5.06306139 59.0344551,4.83391379 58.9646268,4.64186589 C58.8991531,4.4498283 58.8074941,4.30579237 58.6896517,4.20975811 C58.5761661,4.10940225 58.4583207,4.03954508 58.3361134,4.0002588 C58.2182639,3.95663031 58.0916876,3.93476449 57.9563867,3.93476449 C57.8690884,3.93476449 57.7817963,3.94095293 57.6945053,3.95446435 C57.6115699,3.9627156 57.4980925,3.99809285 57.3540607,4.059214 C57.2100237,4.11594136 57.081266,4.1967005 56.9677866,4.30145015 C56.8586679,4.40621012 56.7495512,4.56333459 56.6404367,4.77283389 C56.5356819,4.98234351 56.4614825,5.22895282 56.4178375,5.51265151 M59.9532259,8.08562928 C60.0928897,8.09872814 60.1823652,8.17072032 60.2216536,8.30167801 C59.9554032,8.6683121 59.6280523,8.95856023 59.2396008,9.17243269 C58.8511411,9.38629484 58.4234034,9.49323108 57.9563867,9.49323108 C57.0834485,9.49323108 56.4222014,9.23135695 55.9726411,8.70758807 C55.5274427,8.1838295 55.3048456,7.51167215 55.3048456,6.69111603 C55.3048456,6.20227057 55.3834079,5.75052481 55.5405375,5.33587874 C55.6976651,4.92124298 55.9028046,4.5807963 56.1559572,4.31454901 C56.4091066,4.04830172 56.690628,3.84316527 57.0005224,3.69912934 C57.3147765,3.55073057 57.6333976,3.47653118 57.9563867,3.47653118 C58.2968271,3.47653118 58.5979896,3.52232563 58.8598741,3.61401767 C59.1217502,3.70570972 59.3312547,3.82570356 59.4883874,3.97410233 C59.6498758,4.11813826 59.7808159,4.29491103 59.8812079,4.50441033 C59.9815947,4.71391995 60.0492436,4.92341925 60.084166,5.13291855 C60.123442,5.34242817 60.14308,5.56721292 60.1430903,5.80726248 C60.1430851,5.96003442 60.0623415,6.03641008 59.90085,6.03641008 L56.37201,6.03641008 C56.372008,6.42050589 56.4134726,6.77404112 56.4964028,7.09702608 C56.5836907,7.4156482 56.6928115,7.67970891 56.8237537,7.88921853 C56.9590567,8.09871783 57.1118204,8.27767718 57.2820448,8.42607596 C57.4566289,8.57010157 57.6268512,8.67486154 57.7927117,8.74032491 C57.958566,8.80581923 58.1200595,8.83851482 58.2771912,8.83851482 C58.6394552,8.83851482 58.9493465,8.7796215 59.2068671,8.66174204 C59.4643783,8.53953068 59.713165,8.34748278 59.9532269,8.08560865 M66.3908572,8.09868689 L66.3908572,4.73352699 C66.2206298,4.4672797 66.0351313,4.27086895 65.8343608,4.14429473 C65.633582,4.01335767 65.382613,3.94788398 65.0814536,3.94788398 C64.5445962,3.94788398 64.1277697,4.17048214 63.8309742,4.61567848 C63.5821855,4.97358687 63.4577948,5.56718198 63.4577948,6.3964638 C63.4577948,7.18210681 63.6018266,7.79097705 63.8898974,8.22308483 C64.182328,8.65081945 64.5249551,8.86469192 64.9177786,8.86469192 C65.266949,8.86469192 65.7579748,8.60935691 66.3908572,8.09868689 M67.3990974,1.54512955 L67.3990974,7.80407591 C67.3990912,8.13578658 67.4187354,8.3452962 67.4580216,8.43258413 C67.4972976,8.51984113 67.5889556,8.57007063 67.7329957,8.58316949 L68.3811501,8.64866381 L68.4204364,8.96291276 C67.55186,9.1156847 66.9800885,9.30335944 66.7051186,9.52595761 L66.3908624,9.52595761 L66.4235992,8.58319012 L66.3908624,8.57009126 C65.6314047,9.18551093 65.0247149,9.49322076 64.5707918,9.49322076 C63.8637121,9.49322076 63.3115816,9.22916005 62.9143972,8.70103863 C62.5172108,8.1729069 62.3186186,7.48547442 62.3186186,6.63872057 C62.3186186,5.66540282 62.6175986,4.87977013 63.2155597,4.28180185 C63.4992625,4.01119171 63.7982425,3.81041811 64.1125007,3.67947073 C64.4311198,3.54418113 64.8021167,3.47652086 65.2254936,3.47652086 C65.3738883,3.47652086 65.5681166,3.50488454 65.8081775,3.5616119 C66.0525951,3.61833927 66.2468234,3.68818612 66.3908624,3.77111121 L66.3908624,1.81355311 C66.3908572,1.39891736 66.3603018,1.12175778 66.2992013,0.982084706 C66.2380904,0.838059093 66.1355222,0.766046286 65.9914925,0.766035972 L65.5593888,0.739838245 C65.5070037,0.739848559 65.4808266,0.717972426 65.4808266,0.674343928 L65.4546392,0.353535229 C65.733974,0.33166941 66.0635073,0.285874958 66.4432382,0.216048734 C66.8229599,0.141890602 67.0979339,0.0698468528 67.2681613,-4.4408921e-15 C67.3816377,-4.4408921e-15 67.4383785,0.0457944516 67.4383847,0.137486496 C67.412187,0.495405203 67.3990984,0.964602365 67.3990984,1.54509861 M71.028055,2.17363777 C70.9014787,2.04707387 70.8381916,1.89648851 70.8381916,1.72190232 C70.8381916,1.54731613 70.9014787,1.39674109 71.028055,1.27015656 C71.1546292,1.1392195 71.3052104,1.07374581 71.4797987,1.07374581 C71.6543838,1.07374581 71.8049651,1.13707417 71.9315434,1.26360713 C72.0624805,1.39019166 72.1279531,1.54295328 72.1279531,1.72190232 C72.1279531,1.89648851 72.0624794,2.04707387 71.9315434,2.17363777 C71.8049651,2.3002223 71.6543838,2.36350941 71.4797987,2.36350941 C71.3052104,2.36350941 71.1546292,2.30018104 71.028055,2.17363777 M72.1017657,3.47650023 C72.0712154,4.08319421 72.05593,4.61131563 72.0559403,5.06087481 L72.0559403,8.39984729 C72.0559383,8.59189519 72.0974029,8.73156827 72.1803341,8.81885621 C72.2676221,8.9017813 72.4160239,8.95416643 72.6255305,8.975991 L72.8743171,9.00218872 C72.9572422,9.01528759 72.9987109,9.05014913 72.9987109,9.10693838 L72.9987109,9.36227339 L72.9725235,9.38847111 C72.2567088,9.37098877 71.7787776,9.36226307 71.5387219,9.36226307 C71.3248515,9.36226307 70.8600141,9.37051432 70.1442086,9.38847111 L70.1180202,9.36226307 L70.1180202,9.10692806 C70.1180202,9.0502007 70.1529333,9.01523602 70.2227719,9.00217841 L70.4781059,8.97598068 C70.7050679,8.94545105 70.8578316,8.89088964 70.936397,8.81230678 C71.0149592,8.72938169 71.0542414,8.59188488 71.0542434,8.39983697 L71.0542434,5.06086449 C71.0542414,4.74225269 71.0302323,4.52838022 70.9822306,4.41925741 C70.9385815,4.30578206 70.8643831,4.24249495 70.7596314,4.22939609 L70.1834939,4.17050277 L70.1573065,3.84969407 C71.0564279,3.71439416 71.6849413,3.57690766 72.0428466,3.43723459 C72.0821226,3.43723459 72.1017709,3.45033345 72.1017709,3.47653118 M78.3102474,6.23933932 L77.2496304,6.52086175 C76.3854231,6.75655877 75.9533225,7.2475805 75.9533225,7.99393723 C75.9533225,8.23399711 76.0406104,8.4544087 76.2152028,8.6551823 C76.389788,8.85159305 76.6320272,8.94980359 76.9419216,8.94980359 C77.2474459,8.94980359 77.6402663,8.7555691 78.120384,8.36712076 C78.2469551,8.27986376 78.3102474,8.16416057 78.3102474,8.02012465 L78.3102474,6.23933932 M78.3102474,8.72065599 L78.28406,8.72065599 L78.0156323,8.93015529 C77.7188317,9.16148947 77.4765924,9.31206451 77.2889136,9.38190105 C77.1055944,9.45605918 76.8611738,9.49321045 76.5556485,9.49321045 C76.0493444,9.49321045 75.6456127,9.3775382 75.3444512,9.14621434 C75.0432877,8.91488016 74.8927065,8.54825638 74.8927065,8.04631206 C74.8927065,7.60111573 75.0912987,7.20829422 75.4884851,6.86784754 C75.8900333,6.52304833 76.4203413,6.26771332 77.0794091,6.10185283 L78.2316841,5.8203304 C78.284059,5.80289963 78.3102464,5.75050418 78.3102464,5.66319561 C78.3102423,5.37077122 78.2862352,5.11543621 78.2382336,4.8972009 C78.1902216,4.67460273 78.1312953,4.50001654 78.0614639,4.37344233 C77.9916274,4.24686811 77.9043322,4.14648131 77.7995836,4.07227161 C77.6991968,3.99367843 77.6031697,3.94134486 77.5115148,3.91514713 C77.4242166,3.88894941 77.3281957,3.87585054 77.2234461,3.87585054 C76.9353752,3.87586086 76.6778588,3.928246 76.4508978,4.03298533 C76.2239337,4.1377453 76.1104521,4.28832034 76.1104532,4.4847311 C76.1104521,4.60694246 76.1192201,4.69424071 76.1366406,4.74660522 C76.162828,4.80333259 76.1759165,4.88410203 76.1759269,4.98885169 C76.1759248,5.09360134 76.1213654,5.19398814 76.0122509,5.29001209 C75.9074981,5.38603604 75.7656457,5.43404802 75.5866956,5.43404802 C75.2768023,5.43404802 75.1218572,5.27692354 75.1218572,4.96265396 C75.1218572,4.72696724 75.2287914,4.4934568 75.4426607,4.26213293 C75.6565291,4.03080907 75.935868,3.84312401 76.2806786,3.69908809 C76.625486,3.55068931 76.9746594,3.47648992 77.3282009,3.47648992 C77.5420671,3.47648992 77.7362954,3.49392069 77.9108858,3.52888537 C78.0898338,3.56385006 78.2687849,3.63140719 78.4477411,3.73184556 C78.6266881,3.82786951 78.7750869,3.95663031 78.8929375,4.11811763 C79.0151437,4.27961527 79.113349,4.50002686 79.1875536,4.7793627 C79.2661158,5.054346 79.3053949,5.37514439 79.3054,5.74177848 L79.3054,7.73861254 C79.3053949,7.86518675 79.3053949,7.96776014 79.3054,8.04632237 C79.3097319,8.12048051 79.316302,8.20999628 79.325038,8.31474593 C79.3381266,8.41510179 79.3555883,8.49588155 79.3774128,8.55699239 C79.3992271,8.61371975 79.4276011,8.67265433 79.4625245,8.73375485 C79.5018005,8.79481412 79.551999,8.83851482 79.6131057,8.86470223 C79.6785691,8.89089996 79.7527706,8.90399882 79.8357049,8.90399882 C79.9317186,8.90399882 80.010286,8.88656805 80.0713968,8.85160337 C80.1324973,8.81663868 80.1783258,8.78177714 80.2088843,8.74685371 C80.2394346,8.71188903 80.2634354,8.69445826 80.2808971,8.69445826 C80.3070742,8.69445826 80.3376348,8.71632408 80.3725583,8.75995258 C80.4118342,8.80358108 80.4314825,8.84720957 80.4314825,8.89088964 C80.4314825,8.90832041 80.4140208,8.93885005 80.3791077,8.98258169 C80.3441843,9.02621018 80.2918094,9.07643968 80.2219791,9.13315673 C80.1565054,9.18988409 80.0801215,9.2466424 79.9928335,9.30338007 C79.9055353,9.35577552 79.8007825,9.39940402 79.6785774,9.43431713 C79.5607258,9.47361372 79.4406979,9.49321045 79.3184917,9.49321045 C78.790361,9.49321045 78.4542813,9.23569917 78.3102515,8.7206663 M88.1280539,8.41294615 C88.2895443,8.61371975 88.442308,8.76866796 88.586345,8.87778046 C88.7347417,8.98690328 88.904964,9.04145437 89.0970119,9.04145437 C89.7080635,9.04145437 90.1729009,8.79485538 90.4915262,8.30164707 C90.814507,7.80843876 90.9760057,7.16028225 90.9760057,6.35718784 C90.9760057,5.7112179 90.8319656,5.16781104 90.543902,4.72697756 C90.2558291,4.28615439 89.9066557,4.06573249 89.4963797,4.06573249 C89.4047186,4.06573249 89.3021483,4.07398375 89.1886699,4.09193022 C89.0751853,4.10502908 88.9093279,4.15742454 88.6910967,4.2490547 C88.4728614,4.34074674 88.2851804,4.46729001 88.1280539,4.62877734 L88.1280539,8.41295647 M87.1263611,1.81356342 C87.1263601,1.39892767 87.0936243,1.1217681 87.0281609,0.98209502 C86.96705,0.838069407 86.8644849,0.7660566 86.7204511,0.766046286 L86.2948948,0.739848559 C86.2381571,0.739858873 86.2097831,0.71798274 86.2097831,0.674354242 L86.1835957,0.353545543 C86.4585697,0.331679724 86.7881031,0.283719319 87.1721948,0.20951993 C87.5606493,0.135361798 87.8356243,0.0654943171 87.9971189,1.03140664e-05 C88.1105984,1.03140664e-05 88.1673391,0.0458047657 88.1673412,0.13749681 C88.1411538,0.495415517 88.1280549,0.964612679 88.1280549,1.54510892 L88.1280549,4.21628691 C88.581979,3.72308892 89.1275632,3.47647961 89.7648084,3.47647961 C90.057238,3.47647961 90.3431243,3.53980797 90.6224673,3.66634093 C90.9018022,3.78855229 91.1527702,3.96096221 91.3753745,4.18355007 C91.5979676,4.40179569 91.7769187,4.68113154 91.9122289,5.0215679 C92.0475278,5.35765173 92.115187,5.72210956 92.115187,6.11492075 C92.115187,6.62559077 92.0257022,7.09916109 91.8467593,7.53562141 C91.6721669,7.97209204 91.4430214,8.33000044 91.1593227,8.60933628 C90.8756137,8.88867212 90.5613575,9.10690743 90.2165521,9.26404222 C89.8717395,9.41680385 89.5247475,9.49317951 89.1755772,9.49317951 C88.625625,9.49317951 88.1607876,9.3295056 87.7810629,9.00215778 C87.637027,9.21165708 87.4908107,9.38624327 87.3424129,9.52591635 C87.2202016,9.52591635 87.1263611,9.50188458 87.0608915,9.45392417 C87.1045407,9.20950144 87.1263652,8.86250533 87.1263652,8.41294615 L87.1263652,1.81355311 M95.3840589,5.51262057 L97.8457376,5.51262057 C97.9723118,5.51262057 98.0355989,5.4515613 98.0355989,5.32929837 C98.0355989,5.06306139 98.0006342,4.83391379 97.9308493,4.64186589 C97.8653549,4.4498283 97.7737145,4.30579237 97.6558763,4.20975811 C97.5423906,4.10940225 97.4245421,4.03954508 97.3023307,4.0002588 C97.1844822,3.95663031 97.057908,3.93476449 96.9226081,3.93476449 C96.8353511,3.93476449 96.7480116,3.94095293 96.6607236,3.95446435 C96.5777986,3.9627156 96.4643129,3.99809285 96.320277,4.059214 C96.176241,4.11594136 96.0474906,4.1967005 95.9340049,4.30145015 C95.8248924,4.40621012 95.7157696,4.56333459 95.6066571,4.77283389 C95.5019074,4.98234351 95.427708,5.22895282 95.3840589,5.51265151 M98.9194421,8.08562928 C99.0591152,8.09872814 99.1485897,8.17072032 99.187876,8.30167801 C98.9216184,8.6683121 98.5942706,8.95856023 98.2058223,9.17243269 C97.8173636,9.38629484 97.3896187,9.49323108 96.9226081,9.49323108 C96.0496668,9.49323108 95.3884218,9.23135695 94.9388626,8.70758807 C94.4936662,8.1838295 94.2710681,7.51167215 94.2710681,6.69111603 C94.2710681,6.20227057 94.3496613,5.75052481 94.5067548,5.33587874 C94.6638896,4.92124298 94.869026,4.5807963 95.1221745,4.31454901 C95.3753229,4.04830172 95.6568453,3.84316527 95.9667417,3.69912934 C96.281001,3.55073057 96.5996128,3.47653118 96.9226081,3.47653118 C97.2630445,3.47653118 97.5642152,3.52232563 97.8260893,3.61401767 C98.0879737,3.70570972 98.297473,3.82570356 98.4546078,3.97410233 C98.6160952,4.11813826 98.7470322,4.29491103 98.8474293,4.50441033 C98.9477852,4.71391995 99.0154661,4.92341925 99.0503895,5.13291855 C99.0896861,5.34242817 99.1092828,5.56721292 99.1092828,5.80726248 C99.1092725,5.96003442 99.0285237,6.03641008 98.8670364,6.03641008 L95.3382026,6.03641008 C95.3381923,6.42050589 95.3796651,6.77404112 95.4625902,7.09702608 C95.5498472,7.4156482 95.659001,7.67970891 95.789938,7.88921853 C95.9252483,8.09871783 96.0780099,8.27767718 96.2482332,8.42607596 C96.4228194,8.57010157 96.5930427,8.67486154 96.7589032,8.74032491 C96.9247534,8.80581923 97.0862511,8.83851482 97.2433755,8.83851482 C97.6056468,8.83851482 97.9155329,8.7796215 98.1730545,8.66174204 C98.4305657,8.53953068 98.6793513,8.34748278 98.9194112,8.08560865 M102.731717,8.41294615 C102.893214,8.61371975 103.045976,8.76866796 103.190012,8.87778046 C103.338411,8.98690328 103.508634,9.04145437 103.700682,9.04145437 C104.311729,9.04145437 104.776563,8.79485538 105.095195,8.30164707 C105.41817,7.80843876 105.579668,7.16028225 105.579668,6.35718784 C105.579668,5.7112179 105.435632,5.16781104 105.14757,4.72697756 C104.859498,4.28615439 104.510326,4.06573249 104.100043,4.06573249 C104.008351,4.06573249 103.905818,4.07398375 103.792333,4.09193022 C103.678847,4.10502908 103.512997,4.15742454 103.294762,4.2490547 C103.076526,4.34074674 102.888841,4.46729001 102.731717,4.62877734 L102.731717,8.41295647 M101.730025,1.81356342 C101.730025,1.39892767 101.697329,1.1217681 101.631835,0.98209502 C101.570776,0.838069407 101.468151,0.7660566 101.324125,0.766046286 L100.898567,0.739848559 C100.84184,0.739858873 100.813476,0.71798274 100.813476,0.674354242 L100.787278,0.353545543 C101.062251,0.331679724 101.391786,0.283719319 101.775881,0.20951993 C102.16433,0.135361798 102.439303,0.0654943171 102.6008,1.03140664e-05 C102.714276,1.03140664e-05 102.771024,0.0458047657 102.771024,0.13749681 C102.744826,0.495415517 102.731727,0.964612679 102.731727,1.54510892 L102.731727,4.21628691 C103.185659,3.72308892 103.731243,3.47647961 104.368487,3.47647961 C104.660911,3.47647961 104.946796,3.53980797 105.226143,3.66634093 C105.505478,3.78855229 105.756451,3.96096221 105.979049,4.18355007 C106.201647,4.40179569 106.380596,4.68113154 106.515906,5.0215679 C106.651206,5.35765173 106.718866,5.72210956 106.718866,6.11492075 C106.718866,6.62559077 106.62934,7.09916109 106.450433,7.53562141 C106.275846,7.97209204 106.046699,8.33000044 105.763,8.60933628 C105.479291,8.88867212 105.165032,9.10690743 104.820233,9.26404222 C104.475413,9.41680385 104.128427,9.49317951 103.779255,9.49317951 C103.229298,9.49317951 102.764464,9.3295056 102.384741,9.00215778 C102.240705,9.21165708 102.094483,9.38624327 101.946084,9.52591635 C101.823873,9.52591635 101.730035,9.50188458 101.664572,9.45392417 C101.7082,9.20950144 101.730066,8.86250533 101.730066,8.41294615 L101.730066,1.81355311 M112.239893,6.23933932 L111.179277,6.52086175 C110.315072,6.75655877 109.882974,7.2475805 109.882974,7.99393723 C109.882974,8.23399711 109.970231,8.4544087 110.144848,8.6551823 C110.319435,8.85159305 110.561681,8.94980359 110.871567,8.94980359 C111.177101,8.94980359 111.569912,8.7555691 112.050032,8.36712076 C112.176606,8.27986376 112.239893,8.16416057 112.239893,8.02012465 L112.239893,6.23933932 M112.239893,8.72065599 L112.213695,8.72065599 L111.945272,8.93015529 C111.648474,9.16148947 111.406228,9.31206451 111.218553,9.38190105 C111.035231,9.45605918 110.790808,9.49321045 110.485285,9.49321045 C109.978988,9.49321045 109.575254,9.3775382 109.274094,9.14621434 C108.972923,8.91488016 108.822348,8.54825638 108.822348,8.04631206 C108.822348,7.60111573 109.020935,7.20829422 109.418119,6.86784754 C109.819677,6.52304833 110.349985,6.26771332 111.009043,6.10185283 L112.16132,5.8203304 C112.213716,5.80289963 112.239914,5.75050418 112.239914,5.66319561 C112.239914,5.37077122 112.215882,5.11543621 112.167921,4.8972009 C112.119961,4.67460273 112.060985,4.50001654 111.991149,4.37344233 C111.921322,4.24686811 111.834024,4.14648131 111.729274,4.07227161 C111.628919,3.99367843 111.532853,3.94134486 111.441203,3.91514713 C111.353946,3.88894941 111.25788,3.87585054 111.153131,3.87585054 C110.865059,3.87586086 110.607548,3.928246 110.380587,4.03298533 C110.153626,4.1377453 110.04014,4.28832034 110.04014,4.4847311 C110.04014,4.60694246 110.048391,4.69424071 110.066338,4.74660522 C110.092535,4.80333259 110.105634,4.88410203 110.105634,4.98885169 C110.105634,5.09360134 110.051073,5.19398814 109.94196,5.29001209 C109.8372,5.38603604 109.695351,5.43404802 109.516402,5.43404802 C109.206506,5.43404802 109.051557,5.27692354 109.051568,4.96265396 C109.051557,4.72696724 109.158494,4.4934568 109.372366,4.26213293 C109.586239,4.03080907 109.865574,3.84312401 110.210384,3.69908809 C110.555193,3.55068931 110.904366,3.47648992 111.257911,3.47648992 C111.471774,3.47648992 111.665998,3.49392069 111.840594,3.52888537 C112.019543,3.56385006 112.198492,3.63140719 112.377441,3.73184556 C112.55639,3.82786951 112.704789,3.95663031 112.822648,4.11811763 C112.944849,4.27961527 113.04306,4.50002686 113.117259,4.7793627 C113.195852,5.054346 113.235097,5.37514439 113.235107,5.74177848 L113.235107,7.73861254 C113.235097,7.86518675 113.235097,7.96776014 113.235107,8.04632237 C113.239233,8.12048051 113.24604,8.20999628 113.254704,8.31474593 C113.267803,8.41510179 113.285234,8.49588155 113.3071,8.55699239 C113.328965,8.61371975 113.357329,8.67265433 113.392191,8.73375485 C113.431487,8.79481412 113.481614,8.83851482 113.542776,8.86470223 C113.60827,8.89089996 113.682439,8.90399882 113.765374,8.90399882 C113.861398,8.90399882 113.93995,8.88656805 114.001061,8.85160337 C114.06212,8.81663868 114.107997,8.78177714 114.138547,8.74685371 C114.169077,8.71188903 114.193109,8.69445826 114.21054,8.69445826 C114.236737,8.69445826 114.267267,8.71632408 114.302232,8.75995258 C114.341528,8.80358108 114.361125,8.84720957 114.361125,8.89088964 C114.361125,8.90832041 114.343694,8.93885005 114.308729,8.98258169 C114.273765,9.02621018 114.221473,9.07643968 114.151605,9.13315673 C114.086111,9.18988409 114.009745,9.2466424 113.922457,9.30338007 C113.8352,9.35577552 113.73041,9.39940402 113.608198,9.43431713 C113.49035,9.47361372 113.370325,9.49321045 113.248113,9.49321045 C112.719982,9.49321045 112.383908,9.23569917 112.239872,8.7206663 M116.098003,7.48326721 L116.458088,7.47016835 C116.541013,8.07248916 116.702511,8.49368466 116.942571,8.73373422 C117.034263,8.82975817 117.167345,8.91924301 117.341931,9.0021681 C117.516517,9.08076128 117.715115,9.12001661 117.937713,9.12001661 C118.208323,9.12001661 118.470197,9.02832457 118.723356,8.84504362 C118.976504,8.66172142 119.103079,8.41948527 119.103079,8.11832487 C119.103079,7.82152731 119.002723,7.56836857 118.801918,7.35886927 C118.601145,7.1449968 118.24105,6.92239864 117.721664,6.69107477 C117.442318,6.56886341 117.226269,6.46629002 117.073508,6.38336494 C116.920746,6.29610794 116.774523,6.18695418 116.634861,6.05600681 C116.499551,5.92506974 116.405713,5.7744947 116.353338,5.60427136 C116.300943,5.43404802 116.274745,5.22454871 116.274745,4.97575282 C116.274745,4.53492965 116.451518,4.17484499 116.805053,3.89549884 C117.162962,3.616163 117.610334,3.47648992 118.147192,3.47648992 C118.701511,3.47648992 119.194719,3.587789 119.626816,3.81038717 C119.692311,4.17702126 119.740302,4.63312987 119.770852,5.17871301 L119.410768,5.19181187 C119.345273,4.93430059 119.253633,4.71388901 119.135795,4.53056681 C119.022309,4.34289207 118.900098,4.20540557 118.769161,4.11810732 C118.642586,4.03085032 118.526925,3.96970854 118.422175,3.93478512 C118.321819,3.89548852 118.230127,3.8758918 118.147192,3.8758918 C117.444484,3.87590211 117.093125,4.17706252 117.093125,4.77938333 C117.093125,5.04999347 117.158619,5.26386593 117.289536,5.42099041 C117.424836,5.57376235 117.675808,5.7156117 118.042442,5.84654876 C118.347965,5.96003442 118.605487,6.07133351 118.814986,6.18044601 C119.024496,6.28956882 119.225269,6.42050589 119.417317,6.57326751 C119.613728,6.72602914 119.75994,6.90498849 119.855964,7.11012495 C119.951988,7.3152614 120,7.54659558 120,7.80410686 C120,8.05725528 119.947605,8.28640288 119.842876,8.49153933 C119.74252,8.69231294 119.615904,8.85381058 119.463143,8.97602194 C119.314744,9.0982333 119.14452,9.20079637 118.952483,9.28373178 C118.760425,9.36232496 118.581476,9.41685542 118.415625,9.44740568 C118.254128,9.47793532 118.103542,9.49320014 117.96388,9.49320014 C117.527409,9.49320014 117.123675,9.44523973 116.752678,9.34916421 C116.691619,9.33173344 116.608642,9.32296648 116.503893,9.32296648 C116.434067,9.32296648 116.329307,9.33606534 116.189633,9.36226307 C116.189633,8.88215363 116.159104,8.25582168 116.097941,7.48326721" id="ms-tagline" fill="#000000" fill-rule="nonzero"></path>
    </g>
</svg>