<svg xmlns="http://www.w3.org/2000/svg" width="120" height="15" viewBox="0 0 31.75 3.969"><path d="m3.725.79-.57 1.635h-.008L2.631.83c-.065-.19.064-.204.186-.215.022-.022.022-.097 0-.119C2.65.5 2.524.503 2.38.503c-.14 0-.216-.004-.36-.008-.02.022-.02.097 0 .119.191.01.28.125.313.215l.054.165c.01.043.018.068.018.1q-.002.071-.025.137l-.452 1.187H1.92L1.382.765c-.043-.126.054-.144.18-.151.021-.022.021-.097 0-.119-.119.004-.267.008-.406.008-.143 0-.19-.004-.333-.008C.8.517.8.592.823.614c.16.01.2.018.265.208l.653 1.951q.028.087.111.087c.05 0 .083-.036.1-.087l.5-1.284c.014-.043.031-.09.05-.09.014 0 .032.054.05.1l.42 1.274c.021.062.064.087.11.087q.073-.002.098-.083L3.886.833c.043-.126.111-.208.309-.22.021-.02.021-.096 0-.118-.133.004-.22.008-.312.008S3.632.499 3.488.495c-.021.022-.021.097 0 .119.147.01.287.025.237.176M5.024.41A.2.2 0 0 0 4.97.401a.4.4 0 0 0-.233.082l-.007.04.409.391c.057.054.082.072.104.072.028 0 .054-.022.054-.04a.2.2 0 0 0-.022-.086zm-.657 1.672c0 .367.249.772.754.771.535 0 .76-.445.76-.803 0-.374-.197-.808-.753-.808-.483 0-.76.385-.76.84m.72-.721c.31 0 .484.275.485.803 0 .475-.219.571-.388.57-.373 0-.51-.458-.509-.735 0-.31.111-.638.413-.638M6.369 2.379c0 .297-.04.315-.258.326-.022.022-.022.097 0 .118.15-.003.244-.007.402-.007.154 0 .243.004.398.007.021-.021.021-.096 0-.118-.22-.01-.258-.029-.259-.326V.725c0-.233.015-.376.015-.377q0-.037-.047-.036c-.09.036-.358.086-.502.097-.007.029 0 .086.021.108.187.01.23-.007.23.294zM7.634 1.533c-.01.014-.036.05-.036 0 0-.108.018-.273.018-.273q0-.028-.043-.029c-.1.04-.248.072-.495.104a.24.24 0 0 0 .007.1c.194.019.233.037.233.245v.7c0 .292-.035.308-.25.326-.022.021-.022.097 0 .118.146-.003.239-.007.394-.007.14 0 .205.004.355.007.022-.021.022-.097 0-.118-.183-.018-.215-.033-.215-.327v-.588a.2.2 0 0 1 .06-.15c.137-.133.276-.212.417-.212.072 0 .147.046.19.129a.64.64 0 0 1 .043.276v.545c0 .293-.036.31-.222.327-.018.021-.018.097 0 .118.15-.003.222-.007.366-.007.147 0 .226.004.38.007.018-.021.018-.097 0-.118-.201-.018-.24-.033-.24-.327v-.534c0-.198-.015-.37-.097-.481-.061-.079-.172-.122-.298-.122-.176 0-.347.047-.567.29M9.855.45a.25.25 0 0 0-.114 0 4 4 0 0 1-.399.502q.032.049.08.06c.14-.078.257-.182.372-.297q.163.168.37.298c.032-.004.065-.036.082-.061a4 4 0 0 1-.39-.503M9.04 2.082c0 .367.248.772.753.771.535 0 .761-.445.76-.804 0-.373-.196-.807-.752-.807-.484 0-.761.385-.761.84m.721-.721c.309 0 .484.275.484.803 0 .475-.218.57-.387.57-.374 0-.51-.458-.51-.735 0-.31.112-.638.413-.638M12.043 1.806c.069-.405.32-.439.406-.438.136 0 .298.075.298.377 0 .032-.015.05-.054.05zm.94.679c-.132.136-.237.193-.444.193-.13 0-.28-.075-.391-.258a.95.95 0 0 1-.115-.491l.954.007q.066-.001.068-.061c0-.302-.108-.625-.606-.624-.311 0-.719.297-.718.843 0 .2.05.394.169.53.122.144.29.231.549.23a.74.74 0 0 0 .61-.312c-.011-.036-.032-.054-.076-.057M13.863 1.533c-.01.014-.036.05-.036 0 0-.108.018-.273.018-.273q0-.028-.043-.029c-.1.04-.248.072-.495.104a.24.24 0 0 0 .007.1c.194.019.233.037.233.245v.7c0 .292-.035.308-.25.326-.022.021-.022.097 0 .118.146-.003.239-.007.394-.007.14 0 .205.004.355.007.022-.021.022-.097 0-.118-.183-.018-.215-.033-.215-.327v-.588a.2.2 0 0 1 .06-.15c.137-.133.276-.212.417-.212.072 0 .147.046.19.129a.64.64 0 0 1 .043.276v.545c0 .293-.036.31-.222.327-.018.021-.018.097 0 .118.15-.003.222-.007.366-.007.147 0 .226.004.38.007.018-.021.018-.097 0-.118-.201-.018-.24-.033-.24-.327v-.534c0-.198-.015-.37-.097-.481-.061-.079-.172-.122-.298-.122-.176 0-.347.047-.567.29M16.55 2.49c-.014-.032-.043-.046-.075-.05-.122.158-.275.237-.43.237-.263 0-.482-.266-.481-.685 0-.394.172-.631.409-.632.211 0 .239.126.254.252.011.096.061.129.137.129.075 0 .175-.047.175-.158 0-.198-.204-.34-.549-.34-.355 0-.736.32-.735.828 0 .463.257.78.71.782.216 0 .405-.068.585-.362M17.39 3.39q.078-.146.146-.308c.287-.69.446-1.061.635-1.464.05-.104.158-.219.291-.23.022-.021.022-.097 0-.118-.09.004-.154.007-.255.007-.125 0-.194-.003-.326-.007-.022.022-.022.097 0 .118.111.011.226.033.172.162l-.359.821c-.025.061-.053.069-.086-.003l-.316-.746c-.064-.151-.104-.216.115-.234.022-.021.022-.097 0-.118-.132.004-.275.007-.405.007q-.183 0-.29-.007c-.022.022-.022.097 0 .118.157.015.186.043.283.27l.405.943c.032.075.086.237.05.337a2.5 2.5 0 0 1-.14.33c-.039.072-.09.104-.179.104-.05 0-.065-.01-.104-.01-.104 0-.158.107-.158.154 0 .075.072.132.169.132.075 0 .219-.028.348-.258zM18.815 2.379c0 .297-.04.31-.24.326-.022.022-.022.097 0 .118.15-.003.232-.007.383-.007.126 0 .173.004.327.007.021-.021.021-.096 0-.118-.147-.014-.187-.029-.187-.326v-.323c.083.003.133.028.205.129l.262.37c.072.103.082.146.082.193v.057q0 .017.015.018c.071-.003.14-.007.247-.007.111 0 .187.004.294.007.022-.021.022-.096 0-.118-.122-.014-.23-.029-.308-.15l-.42-.621a.1.1 0 0 1-.018-.05q0-.022.014-.036l.273-.302c.104-.107.215-.15.395-.158.021-.021.021-.096 0-.118-.133.004-.183.007-.312.007-.137 0-.198-.003-.33-.007-.022.022-.022.097 0 .118.215.011.1.148.064.183-.19.209-.37.367-.463.395V.725c0-.233.015-.376.015-.377q0-.037-.047-.036c-.09.036-.358.086-.502.097-.007.029 0 .086.021.108.187.01.23-.007.23.294zM20.579 2.379c0 .297-.04.315-.259.326-.021.022-.021.097 0 .118.15-.003.244-.007.402-.007.154 0 .244.004.398.007.022-.021.022-.096 0-.118-.219-.01-.257-.029-.258-.326V.725c0-.233.014-.376.014-.377q.001-.037-.046-.036c-.09.036-.358.086-.503.097-.007.029 0 .086.022.108.187.01.23-.007.23.294zM21.33 2.08c0 .368.249.773.754.772.535 0 .76-.445.76-.803 0-.374-.197-.808-.753-.808-.483 0-.76.385-.76.84m.72-.721c.31 0 .484.275.485.803 0 .475-.219.571-.388.57-.373 0-.51-.458-.509-.735 0-.31.111-.637.413-.638M23.62 1.615c.111-.114.255-.208.362-.208.23 0 .428.258.427.664 0 .293-.104.66-.506.66-.064 0-.19-.018-.254-.075-.076-.065-.087-.083-.086-.215v-.668c0-.075.01-.107.057-.158m-.029-.118c-.014.014-.036.018-.036-.01 0-.13.015-.231.015-.23q-.002-.024-.047-.025c-.1.039-.237.071-.484.104a.24.24 0 0 0 .007.1c.194.018.233.04.233.244v1.532c0 .298-.04.315-.258.326-.022.022-.022.097 0 .119.15-.004.244-.007.402-.007.168 0 .28.003.434.007.021-.022.021-.097 0-.119-.255-.014-.293-.028-.294-.326v-.388c0-.046.01-.039.05-.025a.8.8 0 0 0 .312.054c.2 0 .38-.061.527-.2a.9.9 0 0 0 .266-.679c0-.38-.269-.732-.635-.732-.133 0-.33.09-.492.255M25.328 1.806c.068-.405.32-.439.405-.438.136 0 .298.075.298.377 0 .032-.015.05-.054.05zm.94.679c-.132.136-.237.193-.444.193-.13 0-.28-.075-.391-.258a.95.95 0 0 1-.115-.491l.954.007q.066-.001.068-.061c0-.302-.107-.625-.606-.624-.311 0-.718.297-.718.843 0 .2.05.394.17.53.121.144.29.231.548.23a.74.74 0 0 0 .61-.312c-.01-.036-.032-.054-.076-.057M27.747 2.372c0 .068-.007.097-.058.14-.132.115-.248.172-.337.172-.194 0-.394-.212-.394-.66 0-.257.05-.403.104-.477a.38.38 0 0 1 .333-.18.36.36 0 0 1 .29.13c.051.057.062.082.062.193zm-.04.265c.015-.014.043-.021.043.004 0 .086.04.212.04.212.029.01.04.007.068 0 .079-.065.215-.119.434-.144.022-.021.022-.075 0-.097-.23-.018-.262-.086-.262-.262V.725c0-.233.015-.376.015-.376q0-.037-.047-.036c-.09.035-.358.086-.502.096-.007.03 0 .087.021.108.187.01.23-.007.23.294v.46c0 .025-.007.032-.032.032-.015 0-.162-.061-.28-.061a.72.72 0 0 0-.538.215.86.86 0 0 0-.248.631c0 .441.223.764.61.765.14 0 .273-.072.448-.216M28.647.669c0 .093.086.186.172.186.1 0 .186-.093.186-.172 0-.086-.075-.187-.172-.186-.086 0-.187.086-.186.172m.326 1.711v-.714c0-.18.014-.41.014-.409 0-.014-.018-.025-.046-.025-.104.04-.244.072-.492.104a.24.24 0 0 0 .007.1c.194.022.233.04.234.244v.7c0 .298-.04.309-.259.326-.021.022-.021.097 0 .119.15-.004.244-.007.402-.007.154 0 .244.003.398.007.022-.022.022-.097 0-.119-.219-.014-.257-.028-.258-.326M30.244.438a.25.25 0 0 0-.114 0 4 4 0 0 1-.399.502q.032.05.08.061c.14-.079.257-.183.372-.297q.163.167.37.297c.032-.003.065-.035.082-.06a4 4 0 0 1-.39-.503m-.815 1.633c0 .367.249.772.753.77.535 0 .761-.445.761-.803 0-.374-.197-.808-.753-.807-.484 0-.761.385-.76.84m.72-.722c.309 0 .484.276.484.804 0 .474-.218.57-.387.57-.374 0-.51-.458-.51-.735 0-.311.112-.638.413-.639"/></svg>