<svg xmlns="http://www.w3.org/2000/svg" width="98" height="50" fill="none"><path fill="#555" fill-rule="evenodd" d="M.019 49.527c-.048.184-.017.233.22.35.492.242 1.012.13 1.62-.352.475-.375.68-.758.68-1.271 0-.243.07-.496.202-.73.148-.26.177-.373.105-.418-.069-.042-.016-.147.171-.34.579-.596.808-1.812.567-3.002-.131-.647-.13-.677.065-1.482.23-.953.337-1.078.992-1.16.793-.099.85-.166 1.598-1.921.369-.865.882-2.238 1.14-3.05a67.26 67.26 0 0 1 .95-2.758c.266-.705.676-1.85.912-2.543.235-.694.456-1.261.49-1.261.034 0 .11.22.166.49.079.37.101.564.012.756-.197.426-.182.41-.095.321.024-.024.054-.054.086-.082.183-.16.508 2.278.355 2.43-.077.078-.274-.411-.274-.684a.957.957 0 0 0-.116-.381 3.33 3.33 0 0 1-.033-.065c-.027-.056-.044-.09-.06-.089-.024 0-.046.079-.1.275l-.025.09c-.164.586-.22 2.031-.1 2.504.102.396.098.414-.129.673-.211.24-.246.373-.373 1.417-.237 1.941-.386 3.908-.387 5.098v1.133l.29.231c.226.18.289.29.289.507 0 .337.276 1.44.506 2.023.136.344.16.53.116.934-.046.434-.025.567.154.951.114.246.228.54.253.654.099.456.151.469.806.192.333-.14.775-.316.983-.39.546-.195.782-.486.98-1.206.095-.34.171-.718.171-.838s.06-.362.133-.536l.007-.017c.089-.211.151-.362.073-.69-.057-.243-.015-.616.084-.988l.02-.074c.084-.312.15-.554.068-.873-.1-.396.196-1.537.518-2.464.093-.265.23-.726.305-1.026.127-.51.127-.559-.005-.783-.1-.17-.117-.269-.056-.342.048-.057.111-.27.142-.472.03-.203.12-.48.2-.616.08-.137.171-.397.203-.58.032-.181.13-.494.218-.695.212-.483.146-.703-.192-.636-.137.028-.334.05-.436.05-.154 0-.205.07-.286.392-.054.216-.214.685-.356 1.043-.246.623-.253.674-.165 1.19l.093.539-.4.644c-.401.596-.401.686-.4 1.056v.07c-.001.377-.065.62-.291 1.103-.245.525-.317.824-.467 1.942-.17 1.267-.386 2.028-.576 2.028-.049 0-.09-.047-.095-.104-.004-.056-.038-.42-.076-.806-.038-.387-.11-1.15-.158-1.695-.049-.546-.125-1.142-.17-1.323-.12-.492-.102-1.523.04-2.198.183-.87.454-3.356.454-4.166 0-.492.06-.915.204-1.427.112-.4.353-1.676.535-2.836.182-1.16.46-2.742.618-3.515.158-.773.348-1.834.421-2.357.073-.523.188-1.063.253-1.199.066-.137.398-1.056.737-2.043.339-.988.734-2.028.878-2.312.233-.463.255-.568.21-.996l-.159-1.484-.422.058c-.465.063-.793.305-1.443 1.064-.198.231-.517.57-.708.751-.654.622-2.11 3.462-2.115 4.125-.001.086-.07.272-.156.414-.084.142-.217.518-.294.836-.077.319-.318.914-.536 1.324-.333.626-.403.84-.445 1.345-.037.444-.115.725-.301 1.075-.138.26-.289.625-.335.81-.045.184-.25.556-.456.827-.309.407-.445.717-.797 1.814-.536 1.674-1.01 2.753-1.498 3.414-.211.286-.41.602-.441.703-.137.44-1.204 1.488-1.358 1.334-.096-.097-.16-9.55-.07-10.371.037-.341.086-1.75.108-3.129.022-1.38.062-2.682.09-2.894.075-.592.22-2.943.233-3.777.006-.41.048-.8.093-.868.046-.069.101-.869.124-1.778.028-1.102.076-1.715.145-1.835.057-.1.198-.695.314-1.323.116-.629.287-1.44.38-1.804.115-.451.16-.84.138-1.22-.03-.53-.048-.574-.396-.93-.726-.739-1.191-.62-2.388.608-1.153 1.184-1.382 1.706-1.615 3.692C.889 14.094.82 16.75.968 19.984c.06 1.282.058 2.7-.005 4.63-.049 1.531-.065 3.155-.036 3.61.032.488.016 1.058-.038 1.391-.069.422-.067.776.007 1.406.055.463.106 1.586.115 2.496.009.91.063 2.118.12 2.685.067.656.082 1.319.042 1.82a29.399 29.399 0 0 0-.047 2.11c.013 1.095-.03 1.647-.244 3.185-.16 1.152-.242 2.029-.216 2.303.031.318-.046.899-.274 2.067a82.814 82.814 0 0 1-.373 1.84Zm9.88-15.453c.073.078.165.187.165.29v.024c.001.093.001.172-.066.163-.09-.014-.264-.201-.264-.39 0-.17.002-.263.165-.087Z" clip-rule="evenodd"/><path fill="#555" d="M26.982 34.744c-.005.498.018.584.19.724a.734.734 0 0 0 .38.158c.293 0 1.17-.478 1.44-.786.313-.358 1.034-2.517 1.167-3.5.104-.766.154-.943.258-.907.038.013.505.433 1.037.932 1.09 1.024 1.475 1.295 2.18 1.532.588.198 1.135.208 2.118.039 1.6-.276 2.423-.61 4.101-1.665 1.164-.731 1.471-.58 1.683.83.067.444.176.913.243 1.043.246.476 1.045.527 1.904.12.598-.283 1.883-1.282 2.146-1.67.2-.294.29-.848.138-.848-.103 0-.489.3-.935.728-.31.297-.447.37-.703.379-.283.009-.333-.021-.467-.28-.133-.257-.145-.457-.111-1.819.042-1.668.042-1.668.722-3.8.443-1.385.459-1.474.304-1.686-.097-.133-.129-.133-.505-.005-1.148.391-1.635.872-2.326 2.293a44.7 44.7 0 0 0-.81 1.758c-.345.82-.716 1.387-1.406 2.143-.29.318-.646.743-.79.943-.168.234-.262.311-.262.218 0-.115-.04-.133-.186-.086-.343.112-2.01.144-2.473.047-1.157-.24-2.037-.924-2.706-2.101-.6-1.057-.785-1.586-.816-2.329-.041-1.004.034-1.098 1.924-2.424 2.268-1.592 3.653-2.452 4.897-3.043.873-.415 1.128-.576 1.262-.793.092-.15.157-.329.145-.397-.04-.228-.493-.188-1.015.09-.624.333-3.007 1.95-4.26 2.893-1.111.835-1.683 1.17-2.307 1.352-.567.165-.705.164-.876-.007-.192-.193-.116-.492.37-1.442.721-1.41 3.343-7.814 3.273-7.995-.038-.1-.15-.115-.577-.075-1.28.12-1.46.334-2.512 2.976a103.46 103.46 0 0 0-1.081 2.807 24.71 24.71 0 0 1-.738 1.778l-1.706 3.701c-.72 1.562-1.352 2.82-1.544 3.07-.178.232-.753.824-1.278 1.314-.841.785-.99.892-1.26.9-.269.008-.323-.025-.455-.28-.134-.258-.146-.458-.111-1.82.041-1.668.041-1.668.722-3.8.442-1.385.458-1.474.303-1.686-.097-.132-.128-.133-.505-.005-1.147.392-1.635.872-2.326 2.293-.29.599-.656 1.39-.81 1.758-.351.838-.706 1.37-1.53 2.289-.358.399-.735.876-.84 1.061l-.188.337.278-.14c.152-.078.602-.344.998-.592 1.165-.729 1.47-.577 1.682.831.067.445.177.914.244 1.044.246.476 1.044.527 1.904.12.566-.268 1.734-1.174 2.435-1.889.295-.3.581-.546.637-.546.142 0 .223.505.153.965-.031.211-.228.835-.437 1.384-.312.82-.382 1.103-.386 1.566Z"/><path fill="#555" fill-rule="evenodd" d="M52.294 32.3c-.353.358-1.018.787-1.941 1.251-.606.305-.767.349-1.45.393-.51.034-.869.017-1.072-.05-.696-.23-1.016-1.134-.939-2.651.058-1.15.267-2.717.43-3.226.065-.204.248-.864.407-1.466.286-1.08.597-1.816 1.039-2.462.124-.182.378-.628.564-.992.186-.364.405-.742.487-.839.223-.268.636-.443 1.032-.44.299.003.419.06.747.352.357.317.404.404.529.968.075.341.139.974.142 1.406.005.677-.03.89-.256 1.547-.304.88-.778 1.857-1.074 2.216-.208.251-.815.703-.944.703-.113 0-.081-.218.087-.598.22-.496.422-1.23.422-1.536 0-.425-.518-.573-1.002-.287-.197.116-.319.341-.662 1.22-.348.892-.434 1.22-.502 1.916-.136 1.39.084 2.301.662 2.742.255.195.368.223.896.223.584 0 .638-.018 1.73-.579.62-.318 1.157-.635 1.194-.704.012-.023.08-.061.18-.116.062-.035.137-.076.217-.125l.087-.096c.689-.756 1.06-1.322 1.405-2.143.154-.368.519-1.159.81-1.758.691-1.421 1.178-1.901 2.326-2.292.376-.129.408-.128.505.005.155.211.139.3-.304 1.686-.68 2.131-.68 2.131-.722 3.8-.034 1.362-.022 1.56.111 1.819.134.258.185.288.468.279.255-.008.391-.081.703-.38.322-.308.613-.55.789-.661 2.177-2.049 7.051-8.616 8.353-11.5.25-.556.521-1.105.601-1.218.253-.358.588-1.245.535-1.412-.047-.15-.145-.16-1.72-.161-1.143 0-1.848-.04-2.239-.122-.524-.111-.877-.299-.877-.465 0-.138.532-.666.871-.865.592-.346 1.011-.346 2.364.004 1.24.321 1.83.352 2.207.117.31-.193.518-.708.688-1.705.196-1.146.353-1.543.753-1.893.408-.358 1.157-.711 1.442-.678.217.025.233.05.219.357-.009.182-.2.908-.425 1.613-.633 1.982-.636 2.222-.028 2.404.307.092 3.167.063 5.446-.055 1.06-.055 1.474.049.85.213a3.537 3.537 0 0 0-.72.301c-.194.112-.64.277-.993.368-.585.15-.801.16-2.465.109-2.033-.063-2.4-.017-3.196.4-.61.321-.672.397-.962 1.182a124.94 124.94 0 0 1-.579 1.528c-.184.478-.488 1.52-.674 2.316-.187.796-.505 2.084-.708 2.863-.567 2.18-1.526 6.387-1.526 6.695 0 .711.378.903 1.29.656.834-.226 1.473-.678 2.515-1.826.111-.248.239-.53.385-.85 1.29-2.836 1.34-2.92 2.365-3.986.696-.724 1.02-.996 1.422-1.194.838-.413 2.658.024 2.782.92.15-.002.26.041.293.127.027.072-.045.342-.162.6-.408.902-.757 3.457-.566 4.14.146.521 1.054.689 1.86.343l.112-.046c2.356-2.418 6.733-8.095 7.945-10.78.25-.556.522-1.105.602-1.218.252-.358.588-1.245.535-1.412-.048-.15-.146-.16-1.72-.161-1.144 0-1.849-.04-2.24-.122-.523-.111-.876-.299-.876-.465 0-.138.531-.666.87-.865.592-.346 1.012-.346 2.364.004 1.24.321 1.831.352 2.207.117.31-.193.518-.708.689-1.705.195-1.146.353-1.543.752-1.893.408-.358 1.158-.711 1.442-.678.218.025.234.05.22.357-.01.182-.2.908-.425 1.613-.633 1.982-.636 2.222-.029 2.404.308.092 3.168.063 5.446-.055 1.061-.055 1.474.049.85.213a3.537 3.537 0 0 0-.72.301c-.193.112-.64.277-.992.368-.585.15-.802.16-2.466.109-2.032-.063-2.4-.017-3.195.4-.611.321-.673.397-.962 1.182-.134.363-.395 1.05-.58 1.528-.184.478-.487 1.52-.674 2.316a145.35 145.35 0 0 1-.707 2.863c-.567 2.18-1.527 6.387-1.527 6.695 0 .711.378.903 1.291.656.947-.256 1.644-.805 2.965-2.335.792-.918 1.085-1.165 1.222-1.029.202.202-.686 1.496-1.874 2.73-.405.421-.758.696-1.144.891-.667.337-3.51 1.521-3.646 1.518h-.026c-.093.004-.345.011-.327-.129-.68-.28-.591-.683-.294-2.054.032-.145.065-.301.1-.469.297-1.398.623-2.582 1.403-5.09.516-1.659.895-3.214.804-3.305-.084-.084-.501.458-.981 1.276-1.182 2.014-1.657 2.637-3.42 4.489-1.29 1.914-2.168 2.465-2.978 2.77-.92.664-1.705 1.02-2.336 1.06-.942.06-1.376-.268-1.724-1.303-.115-.343-.234-.554-.32-.571-.088-.017-.604.426-1.397 1.2-1.368 1.336-1.857 1.656-2.658 1.739-.23.023-.428-.13-.54-.216-.029-.023-.052-.04-.068-.05l-.03-.067c-.056-.126-.147-.328-.123-.564.025-.235.057-.43.136-.688-.227.19-.448.337-.68.454-.668.337-3.51 1.521-3.647 1.518H65.4c-.092.004-.344.011-.327-.129-.017-.046-.042-.097-.07-.155-.161-.323-.438-.88-.123-2.368.297-1.398.623-2.582 1.403-5.09.516-1.659.894-3.214.804-3.305-.085-.084-.502.458-.981 1.276-1.182 2.014-1.657 2.637-3.421 4.489-.385.404-.732.824-1.07 1.232-.746.903-1.438 1.74-2.357 2.18-.432.455-1.478 1.248-2 1.496-.86.406-1.659.355-1.905-.121-.067-.13-.176-.599-.243-1.044-.212-1.41-.519-1.56-1.682-.829-.18.193-.901.414-1.133.416Zm23.126-4.916c-.415.14-.835.245-1.19.334-.2.05-.381.095-.529.138-.864.255-1.08.412-1.328.967-.234.523-.57 1.63-.73 2.41-.093.447-.089.516.039.657.122.135.197.147.532.084.546-.101.947-.539 1.658-1.806.319-.569.824-1.46 1.124-1.98.17-.298.324-.59.424-.804Z" clip-rule="evenodd"/><path fill="#555" d="M69.757 33.672c.032 0 .03-.026.012-.072-.031-.018-.037-.003-.012.072ZM15.866 31.412c-.194.326-.635 2.244-.561 2.437.026.068.076.123.111.123.069 0 .52-1.44.52-1.657 0-.07.074-.274.165-.452.091-.178.166-.442.166-.586 0-.144.13-.548.29-.897.245-.54.289-.725.289-1.238 0-.487.03-.63.157-.745.168-.152.339-.712.339-1.109 0-.133.13-.529.29-.88.16-.35.34-.922.4-1.27.061-.35.26-1.007.442-1.462.182-.455.356-1.048.387-1.318.032-.27.09-.53.128-.579.178-.22.751-1.866.751-2.155 0-.216.06-.383.181-.513.223-.238.115-.402-.188-.285-.274.106-.416.428-.841 1.914-.203.705-.467 1.598-.587 1.985a434.37 434.37 0 0 0-1.51 5.083 3.1 3.1 0 0 0-.115.587c0 .097-.125.415-.278.706-.24.455-.285.634-.32 1.273-.032.556-.086.82-.216 1.038ZM25.612 18.947c0 .277.258.769.477.908.42.268 1.193.012 2.066-.685.592-.472.628-.665.207-1.104-.182-.19-.356-.45-.387-.58-.052-.221-.075-.233-.357-.18-.333.063-.998.38-1.37.653-.262.193-.636.773-.636.988ZM44.715 18.947c0 .277.259.769.477.908.42.268 1.193.012 2.066-.685.592-.472.629-.665.207-1.104-.182-.19-.356-.45-.386-.58-.052-.221-.075-.233-.358-.18-.333.063-.998.38-1.369.653-.263.193-.637.773-.637.988ZM20.71 15.654c-.517 1.333-.887 2.454-.887 2.687 0 .097.023.101.202.032.167-.064.67-1.143.84-1.804.07-.276.2-.578.287-.672.087-.093.194-.335.238-.537.044-.202.105-.48.137-.616.031-.136.16-.366.285-.511.126-.145.255-.35.286-.455.362-1.22 1.806-4.097 2.233-4.452.076-.062.265-.367.421-.678.157-.31.507-.878.779-1.26s.494-.777.494-.877c0-.1.162-.409.36-.688.196-.278.463-.692.591-.92.129-.227.337-.525.463-.661.126-.137.255-.36.288-.497.032-.136.188-.427.347-.645.256-.354.28-.427.207-.662-.072-.236-.053-.293.176-.537.236-.253.258-.325.283-.951.032-.83-.08-1.064-.435-.902-.121.055-.36.1-.53.1-.263 0-.37.063-.73.434-.504.518-.654.794-.729 1.345-.123.907-.47 1.686-1.838 4.115-.55.977-.876 1.671-1.104 2.348-.177.53-.386 1.059-.464 1.177-.372.566-.692 1.206-.653 1.306.062.16-.868 3.034-1.546 4.781ZM58.765 20.469c-.218-.14-.477-.632-.477-.909 0-.214.374-.795.637-.988.371-.273 1.036-.59 1.37-.653.282-.053.305-.041.357.18.03.13.204.39.386.58.422.44.386.632-.207 1.104-.873.697-1.646.953-2.066.686Z"/></svg>