<svg xmlns="http://www.w3.org/2000/svg" width="121" height="10" fill="none"><path fill="#000" d="M5.551 7.326H.983V6.91l.575-.048c.138-.01.217-.072.236-.188l1.029-5.322a.17.17 0 0 0-.024-.135c-.026-.036-.08-.057-.164-.063l-.551-.048V.69h2.57v.416l-.585.048a.285.285 0 0 0-.174.067.253.253 0 0 0-.072.13L2.775 6.834H4.72a.22.22 0 0 0 .154-.053.382.382 0 0 0 .097-.145l.352-1.14h.585l-.358 1.83m3.305-.286-.213.093a5.13 5.13 0 0 1-.362.14 5.1 5.1 0 0 1-.44.12 1.888 1.888 0 0 1-.43.053.807.807 0 0 1-.405-.086.557.557 0 0 1-.222-.227.768.768 0 0 1-.082-.314c-.006-.116.002-.23.024-.343l.633-3.352-.85-.092v-.285L8 2.438h.406l-.749 3.956a.487.487 0 0 0 0 .193.52.52 0 0 0 .073.164.435.435 0 0 0 .13.111.426.426 0 0 0 .184.039c.057 0 .125-.01.202-.03a5.077 5.077 0 0 0 .46-.154 2.41 2.41 0 0 1 .149-.053v.377M8.81.985a.534.534 0 0 1-.043.212.515.515 0 0 1-.116.174.546.546 0 0 1-.183.126.699.699 0 0 1-.256.043c-.203 0-.356-.053-.46-.16a.557.557 0 0 1-.115-.588.582.582 0 0 1 .319-.305.631.631 0 0 1 .265-.053.603.603 0 0 1 .435.174c.051.052.09.111.116.179a.52.52 0 0 1 .038.198Zm4.686 2.047c0 .084-.008.163-.024.237a1.769 1.769 0 0 1-.058.208 2.858 2.858 0 0 1-.126.3c-.219.405-.454.793-.705 1.163-.25.37-.497.713-.739 1.029a24.225 24.225 0 0 1-1.236 1.477h-.57c.068-.144.12-.278.155-.4a1.07 1.07 0 0 0 .043-.353l-.01-.145c-.006-.09-.016-.204-.029-.343-.01-.141-.022-.302-.038-.483a53.553 53.553 0 0 0-.116-1.14c-.02-.196-.042-.378-.068-.545a6.986 6.986 0 0 0-.072-.45 1.696 1.696 0 0 0-.072-.299.546.546 0 0 0-.097-.15.176.176 0 0 0-.13-.048l-.706-.038v-.285l1.058-.329c.27.007.467.068.59.184.122.113.196.286.221.521l.31 3.043c.167-.219.321-.427.463-.623a11.279 11.279 0 0 0 .71-1.135 6.16 6.16 0 0 0 .26-.575l-.188-1.197a.819.819 0 0 1 .57-.217c.213 0 .366.054.46.164.096.106.144.25.144.43m4.008.072c0 .116-.02.21-.063.28a.4.4 0 0 1-.178.154.935.935 0 0 1-.28.073c-.107.01-.227.014-.363.014l-.236-.473a1.446 1.446 0 0 0-.396.27c-.139.126-.27.271-.396.435a3.546 3.546 0 0 0-.329.502 1.71 1.71 0 0 0-.183.474l-.517 2.492h-.918l.85-4.202-.83-.092v-.285l1.492-.309h.396l-.208 1c.203-.312.433-.557.691-.734.258-.177.536-.266.835-.266.12 0 .22.023.3.068a.596.596 0 0 1 .3.382.78.78 0 0 1 .033.217m3.361 1.212a2.58 2.58 0 0 0-.067-.623 1.55 1.55 0 0 0-.184-.454.83.83 0 0 0-.28-.28.658.658 0 0 0-.348-.097.919.919 0 0 0-.603.237 2.043 2.043 0 0 0-.479.613 4.004 4.004 0 0 0-.435 1.811c0 .245.023.46.069.643.045.183.107.338.188.463.08.123.174.214.28.276a.685.685 0 0 0 .348.091.85.85 0 0 0 .434-.116c.139-.08.263-.186.372-.318.113-.136.213-.292.3-.469a3.897 3.897 0 0 0 .357-1.173c.032-.21.048-.41.048-.604Zm1 .043c0 .268-.03.53-.092.788a3.282 3.282 0 0 1-.256.724 3.18 3.18 0 0 1-.4.633c-.155.19-.33.355-.527.497a2.398 2.398 0 0 1-.633.324c-.228.08-.47.12-.724.12-.27 0-.515-.043-.734-.13a1.52 1.52 0 0 1-.555-.372 1.743 1.743 0 0 1-.353-.589 2.362 2.362 0 0 1-.12-.778 3.694 3.694 0 0 1 .333-1.526c.109-.231.24-.446.395-.642.155-.2.329-.37.522-.512.196-.145.409-.257.637-.338a2.222 2.222 0 0 1 1.41-.01c.216.074.405.19.566.348.164.158.293.358.386.599.097.241.145.53.145.864Zm3.757-1.299c0 .116-.026.21-.077.28a.56.56 0 0 1-.189.16.858.858 0 0 1-.236.082c-.08.013-.152.02-.213.024l-.444-.604a.336.336 0 0 0-.092-.048.368.368 0 0 0-.154-.029.494.494 0 0 0-.276.073.592.592 0 0 0-.183.173.69.69 0 0 0-.097.223.882.882 0 0 0-.029.212c0 .09.026.182.078.275.051.09.119.182.203.276.083.09.177.18.28.27.106.087.212.172.318.256.11.087.214.177.314.27.103.09.195.186.276.285.08.097.144.2.193.31a.84.84 0 0 1 .072.342c0 .203-.042.398-.125.585a1.438 1.438 0 0 1-.363.497c-.157.145-.355.26-.594.348a2.412 2.412 0 0 1-.811.125 2.07 2.07 0 0 1-.618-.082 1.369 1.369 0 0 1-.43-.203.86.86 0 0 1-.251-.294.738.738 0 0 1-.082-.333c0-.158.047-.285.14-.382.096-.1.246-.15.449-.15.061 0 .12.008.174.025a.9.9 0 0 1 .265.125.471.471 0 0 1 .078.058l-.189.483c.071.1.158.185.261.256a.753.753 0 0 0 .41.101.75.75 0 0 0 .537-.222.752.752 0 0 0 .174-.256.904.904 0 0 0 .062-.343c0-.1-.02-.193-.062-.28a.975.975 0 0 0-.17-.26 1.876 1.876 0 0 0-.255-.247 6.316 6.316 0 0 0-.324-.26 2.75 2.75 0 0 1-.555-.555 1.587 1.587 0 0 1-.179-.334.978.978 0 0 1-.068-.358c0-.241.055-.455.165-.642.109-.187.25-.343.42-.468a1.86 1.86 0 0 1 .574-.29c.213-.064.42-.097.623-.097a1.4 1.4 0 0 1 .469.068.927.927 0 0 1 .309.16.52.52 0 0 1 .169.202.443.443 0 0 1 .053.193m6.786.387c.003-.016-.01-.053-.039-.111a1.415 1.415 0 0 0-.222-.348c-.042-.048-.077-.073-.106-.073-.251 0-.477.042-.676.126-.197.08-.37.192-.517.333a2.09 2.09 0 0 0-.382.483 3.143 3.143 0 0 0-.25.575c-.065.2-.112.4-.14.604a4.114 4.114 0 0 0-.044.58c0 .138.01.276.034.414.022.139.06.264.115.377a.774.774 0 0 0 .232.275c.1.071.227.107.382.107a.85.85 0 0 0 .347-.078 2.304 2.304 0 0 0 .584-.382 5.48 5.48 0 0 0 .165-.154l.517-2.728ZM33.86 7.06l-.212.092a4.881 4.881 0 0 1-.734.241 1.299 1.299 0 0 1-.338.053.935.935 0 0 1-.304-.043.513.513 0 0 1-.203-.13.622.622 0 0 1-.121-.213 1.215 1.215 0 0 1-.058-.29 2.591 2.591 0 0 1-.594.444c-.12.068-.248.123-.386.165a1.335 1.335 0 0 1-.425.067c-.194 0-.364-.027-.512-.082a1.27 1.27 0 0 1-.377-.217 1.324 1.324 0 0 1-.266-.319 2.158 2.158 0 0 1-.25-.772 3.214 3.214 0 0 1-.025-.382c0-.254.027-.51.082-.768a3.425 3.425 0 0 1 .647-1.425A2.608 2.608 0 0 1 31.9 2.438c.09 0 .18.012.266.034.09.02.174.047.251.082.078.032.148.07.213.111.064.042.119.086.164.13l.145-.236h.676a.899.899 0 0 0-.188.565A32.423 32.423 0 0 0 33.05 4.8a30.869 30.869 0 0 0-.227 1.25 2.604 2.604 0 0 0-.039.358c0 .174.037.293.111.357a.463.463 0 0 0 .314.097.74.74 0 0 0 .14-.02c.065-.015.13-.033.199-.052a26.38 26.38 0 0 1 .313-.087v.357m3.603-2.762c0-.222-.026-.41-.077-.56a1.283 1.283 0 0 0-.189-.377.7.7 0 0 0-.236-.208.468.468 0 0 0-.208-.063c-.08 0-.169.013-.266.039a1.799 1.799 0 0 0-.299.111 2.57 2.57 0 0 0-.575.357l-.55 2.995a.652.652 0 0 0 .13.14c.055.045.118.087.188.125.071.036.149.065.232.087.084.023.17.034.261.034a.853.853 0 0 0 .43-.116c.138-.077.266-.182.381-.314a2.39 2.39 0 0 0 .324-.463 3.977 3.977 0 0 0 .396-1.174c.039-.212.058-.417.058-.613Zm.98-.039a3.674 3.674 0 0 1-.28 1.372 3.56 3.56 0 0 1-.362.68 2.6 2.6 0 0 1-1.241.985c-.267.1-.568.15-.903.15-.28 0-.557-.038-.83-.115a2.755 2.755 0 0 1-.754-.343L35.242.719 34.36.632v-.3l1.545-.294h.386l-.565 2.994a2.631 2.631 0 0 1 .633-.415c.116-.055.235-.098.357-.13a1.42 1.42 0 0 1 .363-.049c.254 0 .468.057.642.17.174.112.314.257.42.434.11.177.187.374.232.59.048.212.072.421.072.627Zm3.564-.831a.538.538 0 0 0-.145-.357.493.493 0 0 0-.169-.116.51.51 0 0 0-.222-.048.616.616 0 0 0-.314.087c-.1.058-.196.135-.29.232-.09.096-.175.207-.256.333a3.86 3.86 0 0 0-.376.816 4.122 4.122 0 0 0-.116.4c.21-.018.425-.067.647-.144a2.77 2.77 0 0 0 .613-.295c.184-.122.334-.26.45-.415a.794.794 0 0 0 .178-.493Zm.88.01c0 .18-.043.346-.127.498a1.466 1.466 0 0 1-.342.41 2.465 2.465 0 0 1-.498.328 4.239 4.239 0 0 1-.594.242 4.868 4.868 0 0 1-1.25.232 5.23 5.23 0 0 0-.03.232c-.006.09-.01.165-.01.227 0 .18.022.346.063.497.046.151.108.283.189.396a.825.825 0 0 0 .69.353c.223 0 .467-.081.735-.242a6.8 6.8 0 0 0 .946-.72v.623a5.31 5.31 0 0 1-.343.3c-.135.106-.29.208-.463.304a2.92 2.92 0 0 1-.56.232 2.11 2.11 0 0 1-.971.068 1.577 1.577 0 0 1-.348-.102 1.361 1.361 0 0 1-.623-.536 1.976 1.976 0 0 1-.198-.478 2.641 2.641 0 0 1-.073-.657c0-.26.031-.52.092-.777a3.583 3.583 0 0 1 .68-1.405c.162-.207.34-.384.532-.532.194-.151.4-.269.619-.352.222-.087.45-.13.685-.13.229 0 .419.038.57.115.155.074.279.164.372.27.093.107.16.216.198.329a.893.893 0 0 1 .058.275m4.211-.333c0 .116-.02.21-.062.28a.4.4 0 0 1-.18.154.934.934 0 0 1-.28.073c-.105.01-.226.014-.361.014l-.237-.473a1.446 1.446 0 0 0-.396.27 3.24 3.24 0 0 0-.396.435 3.537 3.537 0 0 0-.328.502 1.685 1.685 0 0 0-.184.474l-.517 2.492h-.917l.85-4.202-.83-.092v-.285l1.491-.309h.396l-.207 1c.203-.312.433-.557.69-.734.258-.177.536-.266.836-.266a.61.61 0 0 1 .3.068c.08.042.144.097.192.164a.78.78 0 0 1 .14.435m1.662.077-.623 3.105a.417.417 0 0 0 .01.237.435.435 0 0 0 .12.174.69.69 0 0 0 .44.145c.093 0 .19-.008.29-.024a5.104 5.104 0 0 0 .739-.217v.395a6.808 6.808 0 0 1-1.14.387 1.98 1.98 0 0 1-.469.062c-.18 0-.33-.022-.449-.067a.713.713 0 0 1-.285-.174.707.707 0 0 1-.154-.27 1.298 1.298 0 0 1-.044-.343c0-.065.002-.13.005-.198.007-.068.018-.137.034-.208l.604-3.004-.623.058v-.324l.743-.328.483-.99h.604l-.198 1.13h1.367v.454H48.76m4.675 1.135c0-.235-.023-.443-.068-.623a1.556 1.556 0 0 0-.183-.454.833.833 0 0 0-.28-.28.659.659 0 0 0-.348-.097.918.918 0 0 0-.604.237 2.041 2.041 0 0 0-.478.613 4.01 4.01 0 0 0-.435 1.811c0 .245.023.46.068.643.045.183.108.338.188.463.08.123.174.214.28.276a.685.685 0 0 0 .348.091c.154 0 .3-.038.435-.116a1.39 1.39 0 0 0 .372-.318c.112-.136.212-.292.299-.469a3.909 3.909 0 0 0 .357-1.173c.032-.21.049-.41.049-.604Zm1 .043c0 .268-.031.53-.093.788a3.282 3.282 0 0 1-.255.724 3.14 3.14 0 0 1-.401.633c-.155.19-.33.355-.527.497a2.398 2.398 0 0 1-.632.324c-.229.08-.47.12-.725.12-.27 0-.515-.043-.734-.13a1.52 1.52 0 0 1-.555-.372 1.742 1.742 0 0 1-.353-.589 2.36 2.36 0 0 1-.12-.778 3.681 3.681 0 0 1 .333-1.526c.11-.231.241-.446.396-.642.154-.2.328-.37.521-.512.197-.145.41-.257.638-.338a2.222 2.222 0 0 1 1.41-.01c.216.074.404.19.565.348.164.158.293.358.386.599.097.241.145.53.145.864Zm3.756-1.299a.46.46 0 0 1-.077.28.56.56 0 0 1-.188.16.86.86 0 0 1-.237.082 2.22 2.22 0 0 1-.212.024l-.445-.604a.339.339 0 0 0-.091-.048.368.368 0 0 0-.155-.029.493.493 0 0 0-.275.073.591.591 0 0 0-.184.173.685.685 0 0 0-.096.223.883.883 0 0 0-.03.212c0 .09.026.182.078.275.051.09.12.182.203.276.084.09.177.18.28.27.106.087.212.172.319.256.11.087.214.177.314.27.103.09.194.186.275.285.08.097.145.2.193.31a.84.84 0 0 1 .072.342c0 .203-.041.398-.125.585-.08.186-.201.352-.362.497-.158.145-.356.26-.594.348a2.413 2.413 0 0 1-.812.125 2.06 2.06 0 0 1-.618-.082 1.366 1.366 0 0 1-.43-.203.861.861 0 0 1-.25-.294.738.738 0 0 1-.083-.333c0-.158.047-.285.14-.382.097-.1.246-.15.45-.15.06 0 .118.008.173.025a.908.908 0 0 1 .266.125.476.476 0 0 1 .077.058l-.188.483c.07.1.157.185.26.256a.753.753 0 0 0 .411.101.751.751 0 0 0 .536-.222.751.751 0 0 0 .174-.256.902.902 0 0 0 .063-.343c0-.1-.021-.193-.063-.28a.974.974 0 0 0-.17-.26 1.877 1.877 0 0 0-.255-.247 6.312 6.312 0 0 0-.324-.26 2.76 2.76 0 0 1-.555-.555 1.588 1.588 0 0 1-.179-.334.977.977 0 0 1-.067-.358c0-.241.054-.455.164-.642.11-.187.25-.343.42-.468.174-.13.365-.226.575-.29.212-.064.42-.097.623-.097a1.4 1.4 0 0 1 .468.068.926.926 0 0 1 .31.16.52.52 0 0 1 .168.202.43.43 0 0 1 .053.193m1.792 3.801c0 .28-.06.544-.178.792a2.3 2.3 0 0 1-.478.662c-.197.193-.422.35-.676.473a2.232 2.232 0 0 1-.788.217l.073-.357c.203-.042.38-.101.531-.179.154-.074.287-.167.396-.28.113-.11.204-.241.275-.396.071-.154.124-.333.16-.536h-.623a.442.442 0 0 1-.078-.15.734.734 0 0 1 .044-.464.97.97 0 0 1 .164-.265.906.906 0 0 1 .242-.188.633.633 0 0 1 .294-.073.69.69 0 0 1 .295.058.46.46 0 0 1 .198.155.642.642 0 0 1 .11.237c.026.09.04.188.04.294m11.73.208-.285.12a5.503 5.503 0 0 1-.324.121 3.17 3.17 0 0 1-.328.097 1.353 1.353 0 0 1-.676-.01.756.756 0 0 1-.27-.13.5.5 0 0 1-.155-.218.58.58 0 0 1-.01-.299l.546-2.642c.032-.164.043-.307.034-.43a.794.794 0 0 0-.078-.304.418.418 0 0 0-.15-.178.308.308 0 0 0-.183-.063c-.151 0-.3.034-.444.101a2.098 2.098 0 0 0-.391.242 2.199 2.199 0 0 0-.488.507l-.695 3.342h-.918L67.56 4.1a1.39 1.39 0 0 0 .028-.329.959.959 0 0 0-.048-.314.53.53 0 0 0-.14-.231.356.356 0 0 0-.256-.092.82.82 0 0 0-.372.101 2.66 2.66 0 0 0-.376.242 3.637 3.637 0 0 0-.546.526l-.695 3.323h-.908l.85-4.202-.822-.092v-.285l1.483-.309h.406l-.189.913c.123-.116.253-.228.392-.338.138-.113.281-.21.43-.295.148-.083.297-.15.449-.202.15-.052.299-.078.444-.078a.76.76 0 0 1 .666.324c.068.09.116.188.145.295.032.106.055.204.068.294.119-.119.251-.233.396-.343.145-.11.296-.206.454-.29a2.45 2.45 0 0 1 .478-.202 1.58 1.58 0 0 1 .473-.078.95.95 0 0 1 .43.092.714.714 0 0 1 .3.251.86.86 0 0 1 .144.396c.023.155.015.327-.024.517l-.555 2.67a.467.467 0 0 0 .091.392.48.48 0 0 0 .15.116c.058.025.12.038.184.038.08 0 .174-.019.28-.058l.343-.12v.338Zm5.206.019a1.847 1.847 0 0 1-.256.116 3.655 3.655 0 0 1-.734.203 1.811 1.811 0 0 1-.353.038c-.187 0-.325-.032-.415-.096a.508.508 0 0 1-.189-.213.627.627 0 0 1-.043-.25c.003-.085.005-.146.005-.184a2.884 2.884 0 0 1-.821.56 2.311 2.311 0 0 1-.923.183c-.228 0-.415-.04-.56-.12a.862.862 0 0 1-.328-.305.973.973 0 0 1-.135-.4 1.332 1.332 0 0 1 .014-.41l.642-3.087-.83-.092v-.285l1.492-.309h.406l-.788 3.772a.438.438 0 0 0 .01.242c.03.074.07.14.12.198a.75.75 0 0 0 .184.135.459.459 0 0 0 .198.048c.12 0 .239-.016.358-.048a2.27 2.27 0 0 0 .362-.14c.119-.058.233-.124.343-.198.11-.078.21-.16.304-.247l.749-3.64h.922l-.792 3.805a.506.506 0 0 0 0 .26.424.424 0 0 0 .101.17.433.433 0 0 0 .16.096c.06.02.119.029.174.029a1.174 1.174 0 0 0 .623-.179v.348m5.245.039a6.022 6.022 0 0 1-.223.077c-.103.032-.218.068-.347.106a5.07 5.07 0 0 1-.396.092 1.732 1.732 0 0 1-.358.043 2.08 2.08 0 0 1-.241-.019.921.921 0 0 1-.29-.077.532.532 0 0 1-.227-.174c-.058-.077-.072-.182-.043-.314l.603-3.038a.796.796 0 0 0 0-.328.434.434 0 0 0-.101-.208.336.336 0 0 0-.16-.11.503.503 0 0 0-.173-.035.83.83 0 0 0-.3.073 2.63 2.63 0 0 0-.372.183c-.128.078-.259.17-.39.276a3.237 3.237 0 0 0-.363.328l-.68 3.323h-.923l.86-4.202-.831-.092v-.285l1.492-.309h.396l-.184.923a3.935 3.935 0 0 1 .831-.628c.161-.087.327-.158.498-.213.173-.054.342-.082.507-.082.36 0 .616.1.767.3.155.2.194.521.116.966l-.526 2.791a.349.349 0 0 0 .02.222.349.349 0 0 0 .12.126.5.5 0 0 0 .16.058c.054.006.096.01.125.01.09 0 .188-.014.294-.04.107-.025.216-.056.329-.091l.01.348m4.128-.652a.396.396 0 0 0 .015.227.4.4 0 0 0 .101.14.442.442 0 0 0 .242.087.741.741 0 0 0 .135-.024c.071-.02.145-.04.222-.063l.218-.063.135-.039v.367c-.039.017-.11.044-.213.083-.103.035-.217.072-.343.11a4.627 4.627 0 0 1-.39.102 1.648 1.648 0 0 1-.348.043c-.152 0-.276-.019-.372-.058a.53.53 0 0 1-.227-.15.605.605 0 0 1-.116-.236c-.02-.09-.03-.19-.03-.3a3.407 3.407 0 0 1-.289.276 1.962 1.962 0 0 1-.71.4 1.248 1.248 0 0 1-.406.068c-.276 0-.507-.053-.69-.159a1.236 1.236 0 0 1-.43-.415 1.776 1.776 0 0 1-.227-.57 3.19 3.19 0 0 1-.063-.628c0-.26.028-.521.082-.782a3.474 3.474 0 0 1 .662-1.425c.161-.206.345-.385.55-.536a2.5 2.5 0 0 1 .686-.362c.255-.087.527-.13.817-.13a1.867 1.867 0 0 1 .599.135c.054.022.102.04.144.053l.334-1.908-.899-.087v-.3l1.531-.294h.406l-1.126 6.438m-.386-3.048c.003-.012-.016-.048-.058-.106a1.104 1.104 0 0 0-.154-.188 1.317 1.317 0 0 0-.203-.174.37.37 0 0 0-.208-.077c-.241 0-.472.07-.69.212-.22.139-.412.33-.58.575a3.094 3.094 0 0 0-.4.87c-.1.33-.15.69-.15 1.076 0 .213.02.396.062.55.045.155.103.282.174.382.074.1.158.174.251.222a.614.614 0 0 0 .575.005c.106-.045.213-.104.319-.179.106-.077.21-.164.314-.26a4.4 4.4 0 0 0 .294-.305l.454-2.603Zm5.178.889c0-.235-.023-.443-.068-.623a1.556 1.556 0 0 0-.184-.454.833.833 0 0 0-.28-.28.659.659 0 0 0-.347-.097.918.918 0 0 0-.604.237 2.041 2.041 0 0 0-.478.613 4.01 4.01 0 0 0-.435 1.811c0 .245.023.46.068.643.045.183.108.338.188.463.08.123.174.214.28.276a.685.685 0 0 0 .348.091.85.85 0 0 0 .434-.116 1.39 1.39 0 0 0 .372-.318c.113-.136.213-.292.3-.469a3.909 3.909 0 0 0 .357-1.173c.032-.21.049-.41.049-.604Zm1 .043c0 .268-.031.53-.093.788a3.282 3.282 0 0 1-.255.724 3.14 3.14 0 0 1-.401.633c-.155.19-.33.355-.527.497a2.398 2.398 0 0 1-.632.324c-.229.08-.47.12-.725.12-.27 0-.515-.043-.734-.13a1.521 1.521 0 0 1-.555-.372 1.742 1.742 0 0 1-.353-.589 2.36 2.36 0 0 1-.12-.778 3.681 3.681 0 0 1 .333-1.526c.11-.231.241-.446.396-.642.154-.2.328-.37.521-.512.197-.145.41-.257.638-.338a2.222 2.222 0 0 1 1.41-.01c.216.074.404.19.565.348.164.158.293.358.386.599.097.241.145.53.145.864Zm6.871-.912c.003-.016-.01-.053-.039-.111a1.39 1.39 0 0 0-.222-.348c-.042-.048-.077-.073-.106-.073-.251 0-.477.042-.676.126-.197.08-.369.192-.517.333-.148.139-.275.3-.381.483a3.137 3.137 0 0 0-.252.575c-.064.2-.11.4-.14.604a4.1 4.1 0 0 0-.043.58c0 .138.011.276.034.414.022.139.061.264.116.377a.776.776 0 0 0 .231.275c.1.071.228.107.382.107a.85.85 0 0 0 .348-.078 2.295 2.295 0 0 0 .584-.382c.074-.067.129-.118.164-.154l.517-2.728Zm1.454 3.612-.213.092a4.879 4.879 0 0 1-.734.241 1.299 1.299 0 0 1-.338.053.936.936 0 0 1-.304-.043.513.513 0 0 1-.203-.13.622.622 0 0 1-.12-.213 1.215 1.215 0 0 1-.059-.29 2.584 2.584 0 0 1-.594.444 1.878 1.878 0 0 1-.386.165 1.336 1.336 0 0 1-.425.067c-.193 0-.364-.027-.512-.082a1.27 1.27 0 0 1-.377-.217 1.32 1.32 0 0 1-.265-.319 2.15 2.15 0 0 1-.251-.772 3.235 3.235 0 0 1-.025-.382c0-.254.028-.51.083-.768a3.424 3.424 0 0 1 .647-1.425 2.609 2.609 0 0 1 2.115-1.043c.09 0 .179.012.266.034.09.02.173.047.25.082.078.032.149.07.213.111.065.042.12.086.164.13l.145-.236h.676a3.857 3.857 0 0 0-.053.14l-.058.16-.053.154a.894.894 0 0 0-.024.111 30.819 30.819 0 0 0-.377 1.676 30.295 30.295 0 0 0-.227 1.25 2.616 2.616 0 0 0-.038.358c0 .174.037.293.11.357a.464.464 0 0 0 .315.097.74.74 0 0 0 .14-.02c.064-.015.13-.033.198-.052a19.793 19.793 0 0 1 .314-.087v.357m3.602-2.762c0-.222-.025-.41-.077-.56a1.298 1.298 0 0 0-.188-.377.7.7 0 0 0-.237-.208.467.467 0 0 0-.208-.063c-.08 0-.169.013-.265.039a1.791 1.791 0 0 0-.3.111 2.79 2.79 0 0 0-.299.16c-.1.06-.192.127-.275.197l-.551 2.995a.666.666 0 0 0 .13.14c.055.045.118.087.189.125.071.036.148.065.232.087a.99.99 0 0 0 .26.034.851.851 0 0 0 .43-.116c.139-.077.266-.182.382-.314a2.39 2.39 0 0 0 .323-.463c.097-.178.177-.364.242-.56.067-.2.119-.405.154-.614.039-.212.058-.417.058-.613Zm.981-.039a3.708 3.708 0 0 1-.28 1.372 3.604 3.604 0 0 1-.363.68 2.602 2.602 0 0 1-1.241.985c-.267.1-.568.15-.903.15-.28 0-.557-.038-.831-.115a2.76 2.76 0 0 1-.753-.343l1.169-6.269-.884-.087v-.3l1.545-.294h.387l-.565 2.994a2.642 2.642 0 0 1 .632-.415c.116-.055.235-.098.358-.13.122-.033.243-.049.362-.049.254 0 .468.057.642.17.174.112.314.257.42.434.11.177.187.374.232.59.048.212.073.421.073.627Zm3.564-.831a.477.477 0 0 0-.039-.188.489.489 0 0 0-.275-.285.512.512 0 0 0-.222-.048.616.616 0 0 0-.314.087 1.36 1.36 0 0 0-.29.232c-.09.096-.175.207-.256.333a3.838 3.838 0 0 0-.376.816 3.936 3.936 0 0 0-.116.4c.209-.018.425-.067.647-.144.225-.077.43-.175.613-.295.184-.122.333-.26.449-.415a.795.795 0 0 0 .179-.493Zm.879.01c0 .18-.042.346-.126.498a1.453 1.453 0 0 1-.343.41 2.445 2.445 0 0 1-.497.328 4.268 4.268 0 0 1-.594.242 4.838 4.838 0 0 1-1.251.232 8.193 8.193 0 0 0-.029.232c-.006.09-.009.165-.009.227 0 .18.02.346.062.497.045.151.108.283.189.396a.824.824 0 0 0 .69.353c.222 0 .467-.081.734-.242.268-.16.583-.4.947-.72v.623a5.26 5.26 0 0 1-.343.3 3.45 3.45 0 0 1-.464.304c-.17.093-.357.17-.56.232a2.11 2.11 0 0 1-.97.068 1.579 1.579 0 0 1-.348-.102 1.35 1.35 0 0 1-.623-.536 1.937 1.937 0 0 1-.198-.478 2.654 2.654 0 0 1-.073-.657c0-.26.031-.52.092-.777a3.581 3.581 0 0 1 .681-1.405c.161-.207.338-.384.531-.532.193-.151.4-.269.618-.352.223-.087.451-.13.686-.13.229 0 .419.038.57.115.155.074.279.164.372.27a.996.996 0 0 1 .256.604m4.211-.333c0 .116-.021.21-.063.28a.395.395 0 0 1-.178.154.944.944 0 0 1-.28.073c-.107.01-.227.014-.363.014l-.236-.473a1.427 1.427 0 0 0-.396.27 3.215 3.215 0 0 0-.396.435 3.56 3.56 0 0 0-.329.502 1.71 1.71 0 0 0-.183.474l-.517 2.492h-.917l.85-4.202-.831-.092v-.285l1.492-.309h.396l-.207 1a2.57 2.57 0 0 1 .69-.734c.258-.177.536-.266.836-.266.119 0 .219.023.299.068.08.042.145.097.193.164.052.068.087.14.106.217.023.078.034.15.034.218m1.661.077-.623 3.105a.417.417 0 0 0 .01.237.436.436 0 0 0 .121.174.69.69 0 0 0 .439.145c.094 0 .19-.008.29-.024a5.136 5.136 0 0 0 .739-.217v.395a7.05 7.05 0 0 1-.652.251 5.127 5.127 0 0 1-.488.136c-.17.041-.327.062-.468.062a1.28 1.28 0 0 1-.449-.067.702.702 0 0 1-.285-.174.703.703 0 0 1-.155-.27 1.298 1.298 0 0 1-.043-.343c0-.065.001-.13.004-.198.007-.068.018-.137.034-.208l.604-3.004-.623.058v-.324l.744-.328.483-.99h.603l-.198 1.13h1.367v.454h-1.454m4.675 1.135c0-.235-.022-.443-.067-.623a1.532 1.532 0 0 0-.184-.454.824.824 0 0 0-.28-.28.658.658 0 0 0-.348-.097.919.919 0 0 0-.603.237 2.03 2.03 0 0 0-.478.613 4.02 4.02 0 0 0-.435 1.811c0 .245.023.46.068.643.045.183.108.338.188.463a.84.84 0 0 0 .28.276.684.684 0 0 0 .348.091.86.86 0 0 0 .434-.116c.139-.08.263-.186.372-.318.113-.136.213-.292.3-.469a3.873 3.873 0 0 0 .357-1.173c.032-.21.048-.41.048-.604Zm1 .043c0 .268-.03.53-.092.788a3.267 3.267 0 0 1-.256.724 3.15 3.15 0 0 1-.4.633 2.75 2.75 0 0 1-.527.497 2.4 2.4 0 0 1-.632.324c-.229.08-.471.12-.725.12-.27 0-.515-.043-.734-.13a1.515 1.515 0 0 1-.555-.372 1.736 1.736 0 0 1-.353-.589 2.372 2.372 0 0 1-.121-.778c0-.267.029-.53.087-.787a3.297 3.297 0 0 1 .643-1.381c.154-.2.328-.37.521-.512.197-.145.409-.257.638-.338a2.217 2.217 0 0 1 1.41-.01c.216.074.404.19.565.348.164.158.293.358.386.599.097.241.145.53.145.864Z"/></svg>