<svg width="114" height="24" viewBox="0 0 30.2 6.35" xmlns="http://www.w3.org/2000/svg"><path d="M3.222 6.13c-.087-.108-.183-.523-.136-.597.023-.036.044-.456.046-.93.002-.476.033-1.14.069-1.475.08-.755.05-.847-.265-.793-.193.032-.213.025-.213-.083 0-.065.069-.208.152-.316.408-.528.68-1.366.47-1.447-.13-.05-.093-.164.076-.234.134-.056.194-.05.4.042.236.104.243.113.261.385.017.254.004.292-.157.448-.097.093-.176.2-.176.237s-.04.106-.088.155c-.146.146-.344.46-.344.543 0 .075.074.106.19.078.03-.007.224-.046.432-.086.338-.066.52-.208.62-.235.017-.238.038-.502-.138-.645-.129-.101-.134-.12-.067-.26.112-.234.44-.24.685-.011.11.102.123.158.107.448l-.018.33.19-.01c.29-.018.743.128.781.252.087.273-.246.43-.528.25-.082-.053-.336-.04-.336-.04l-.187.025-.002.149v.36l.003.19s.074-.033.2-.051c.196-.028.499-.03.591.046.042.035.07.114.06.175-.013.099-.312.116-.312.116l-.539.072c0 .205.01.419.008.624.232-.005.82-.154.844.161-.015.1-.048.116-.233.105-.35-.019-.62.022-.62.022-.004.208.003.399.01.607l.487-.007s1.225.108 1.347.174c.141.075.279.303.242.4-.041.108-.454.11-.573.002-.194-.176-.75-.265-1.54-.245-.416.01-.731-.01-1.096.017-.121.01-.36.05-.36.05l-.016.485s-.015.387-.093.473c-.115.128-.157.135-.232.042zM4.23 4.85c.158-.02.33-.063.406-.077v-.59c-.082 0-.147.028-.296.042-.272.025-.374-.047-.374-.132 0-.062.262-.095.394-.134.091-.026.276-.067.276-.067s-.005-.392 0-.596c0 0-.095.032-.223.036-.26.007-.399-.118-.276-.193.038-.023.5-.164.5-.164s0 .04-.005-.142c-.01-.452-.048-.616-.048-.616l-.876.056-.149.02-.003.277s-.016.68-.041 1.204a16.44 16.44 0 0 0-.023.656c0 .165.007.28.024.36.018.08.033.165.033.165s.15-.01.22-.027c.094-.022.303-.056.461-.077zm-4.035.599C.08 5.376-.04 4.708.032 4.534a.83.83 0 0 0 .05-.299c-.012-.206.139-.177.297.059.097.143.12.257.123.616.006.527-.083.682-.308.539zm1.113-.373a.471.471 0 0 1-.174-.173 2.976 2.976 0 0 0-.163-.321C.897 4.45.848 4.324.863 4.3c.048-.078.374.118.483.29l.187.292c.07.11.07.133 0 .203-.071.07-.098.07-.225-.009zm.929-.068c0-.03-.043-.097-.095-.15-.251-.25-.4-.661-.239-.661.026 0 .21.157.407.348.397.385.425.516.11.516-.1 0-.182-.025-.182-.054zM.749 3.813a.504.504 0 0 1-.056-.29c.017-.066.25-.348.522-.626.477-.492.955-1.186.887-1.296-.018-.03.026-.053.1-.053.132 0 .413.267.413.391 0 .033-.28.335-.62.67s-.621.647-.621.69c0 .1.09.159.134.086.019-.03.138-.055.265-.055.344 0 .5-.217.354-.49-.084-.158.116-.137.318.032.204.173.254.389.148.643-.098.235-.217.292-.354.169-.083-.075-.159-.085-.404-.054-.166.02-.315.06-.33.085-.017.026-.074.048-.128.048a.506.506 0 0 0-.235.108c-.191.15-.293.135-.393-.06zm.084-1.107C.708 2.628.362 1.95.417 1.893c.014-.014.143.032.287.1.212.101.286.174.388.388.069.145.112.297.097.337-.037.097-.188.092-.356-.013zm.075-.909c-.016-.042.01-.121.06-.176.048-.054.186-.226.304-.381.19-.247.216-.316.208-.541-.015-.456-.02-.447.211-.447.27 0 .513.216.598.53.054.202.048.242-.06.388a.616.616 0 0 1-.215.193c-.052.016-.234.138-.405.27-.325.253-.64.326-.702.164zM8.243 5.852c0-.078.112-.182.306-.282.242-.125 1.439-1.209 1.663-1.503.143-.19.153-.363.153-.363s-.15.004-.757.132c-.348.074-.476.08-.58.033-.238-.108-.152-.173.229-.173.214 0 .426-.033.515-.079.083-.043.24-.095.352-.114.11-.02.274-.077.274-.077s.039-.315.023-.877c-.012-.452-.038-.873-.038-.873s-.373-.023-.616-.031c-.165-.006.014-.108.288-.165.27-.056.295-.074.295-.21 0-.08-.021-.17-.048-.198a.546.546 0 0 1-.084-.173c-.033-.11-.019-.121.148-.121.213 0 .47.175.47.322 0 .194.118.221.562.136.231-.044.43-.08.442-.08.013 0 .047-.06.075-.135.06-.158-.014-.405-.123-.405a.389.389 0 0 1-.176-.075c-.097-.071-.09-.081.111-.167.244-.103.51-.118.655-.038.055.03.148.182.208.338.1.261.127.288.379.37.348.111.405.15.405.28 0 .16-.145.184-.449.075-.269-.096-.272-.096-.363.015-.094.116-.157.571-.177 1.283l-.011.379h.497c.393 0 .516.019.589.09.101.101.07.246-.065.297-.049.02-.202-.005-.339-.055a1.09 1.09 0 0 0-.528-.055c-.16.02-.313.066-.47.1l.123.105c.193.127.393.25.544.371.308.248.736.544 1.037.715.052.03.194.142.298.2.16.088.34.181.504.223.165.043.391.14.503.216.113.076.251.153.308.17.072.023.104.083.104.192 0 .178-.033.19-.583.232-.313.023-.368.01-.675-.163-.183-.104-.357-.23-.385-.279-.074-.132-.796-.825-1.617-1.555a4.261 4.261 0 0 0-.297-.208c-.194-.126-.445-.122-.445-.122l-.62.098s-.033.146-.07.21a3.547 3.547 0 0 1-.925 1.098c-.172.135-.33.246-.352.246-.021 0-.153.084-.294.188-.3.22-.975.534-.975.454zm3.203-2.572a.553.553 0 0 0 .427-.348c.128-.303.096-.796.084-1.087l-.015-.451-.19.006a3.79 3.79 0 0 0-.54.086c-.348.079-.351.081-.351.263 0 .142.024.188.108.2.281.043.34.07.328.154-.019.128-.168.218-.37.236-.047.004-.142.006-.142.006s-.003.065.004.116c.007.051.022.083.066.106s.116.035.239.05c.306.038.348.059.366.184.018.12-.139.167-.385.155a3.273 3.273 0 0 1-.201-.022l.013.123.03.298s.351-.044.527-.075zm-1.421 2.526a.238.238 0 0 0-.176-.023c-.068.021-.085.007-.063-.053.043-.111.116-.129.795-.193.322-.03.604-.066.628-.082.025-.015.065-.097.07-.28.009-.312-.005-.266-.005-.47-.2 0-.602.053-.602-.01 0-.092.208-.187.41-.187.187 0 .218-.137.083-.376-.179-.317-.157-.4.087-.362.215.034.47.243.466.439l.003.212s.305-.006.369 0c.037.004.067.056.067.115 0 .08-.042.113-.162.126-.125.015-.274.004-.274.004s-.023.272-.023.448v.322l.592-.039c.498-.032.624-.023.784.052.196.093.245.227.126.345-.094.095-.291.08-.4-.03-.079-.078-.182-.092-.612-.084-.748.014-1.136.047-1.381.117-.263.075-.673.08-.784.009zM21.733 5.698a44.165 44.165 0 0 0-1.956-1.57c-.091-.069-.28-.203-.28-.203s-.183.24-.283.353c-.358.41-.93 1.11-1.124 1.186-.066.025-.507.058-.98.073-.473.015-.758.016-.63.001.127-.014.27-.059.318-.1.047-.04.294-.147.548-.237.588-.21.702-.328.998-.573.203-.168.35-.39.514-.597.097-.124.276-.382.276-.382s-.134-.173-.26-.303a15.486 15.486 0 0 0-.587-.704l-.16-.177-.222.048s-.455.167-.609-.037c-.047-.062-.095-.12-.095-.137 0-.018.15-.05.331-.071 1.1-.264 1.787-.601 3.126-.68.248-.014.64-.006.747.018.239.054.44.239.39.365-.048.126-.405.12-.534-.01-.081-.08-.202-.1-.607-.1-.299 0-.6.066-.6.066s-.058.23-.085.431c-.027.202-.09.518-.14.703l-.147.559.293.212c.132.097.308.22.397.293.656.425 1.94.847 2.664 1.046.733.203.735.209.73.372-.242.157-1.212.267-1.43.294-.216.028-.318.004-.594-.139zm-2.279-2.726c.058-.154.112-.37.137-.56.017-.13.008-.392.008-.392s-.231.04-.345.07c-.294.082-.866.303-.866.303l.93.95s.076-.219.135-.373zm-.25-2.11c-.08-.063-.17-.115-.2-.115-.08 0-.208-.268-.163-.34.023-.038.237-.063.531-.063.405 0 .522.02.66.119.189.134.217.32.066.434-.162.123-.72.102-.895-.035zM27.277.043c-.303.085.265.428.165.93l-.134.065c-.604.136-.68.16-1.103.295l-.357.009c0 .035-.002.07.001.106.021.141.142.125.444.094.03.428-.078.807-.15 1.147-.159.747-.322 1.483-.695 2.125-.153.267-.18.447-.612.69-.01.1-.06.228.104.137.237-.071.516-.224.674-.44.385-.523.62-1.185.776-1.847.154-.67.227-1.345.282-1.894.81-.109 1.71-.472 2.587-.595.09-.012.216.162.28.123 0 0 .056-.034.062-.063.023-.108.033-.302-.052-.348-.194-.106-.332-.026-.606.038-.18.041-.649.167-.735.144-.148-.047-.122-.354-.186-.47-.05-.09-.068-.18-.157-.232-.09-.053-.165-.053-.355-.053m.28 1.31s-.034.093-.031.142c.008.125.13.346.13.346s-.67.262-.96.336c-.085.08.013.092.027.192.217.047.933-.228.933-.228v.472c-.158.012-.436.17-.576.272h-.015c-.13-.168-.335-.195-.536-.197-.038 0-.106-.011-.133.025-.07.091.12.261.15.338.04.103.028.211.047.316.039.217.082.44.145.655.027.093.061.403.23.287.083-.058.041-.203.059-.287.036-.175-.061-.726-.054-.895.379-.214.682-.257.682-.257v.47l-.19.086c-.167-.126-.209.322-.013.231.032-.014.204-.06.204-.06v.385s-.224.073-.264.08c-.082.017-.24.049-.302.105-.052.047-.064.132.035.115s.075.01.189-.043c.114-.054.34-.086.34-.043v.471c-.395.156-.947.171-1.395.247-.068.011-.208.027-.17.134.032.085.125.095.2.095.398.019 1.364-.175 1.364-.175s-.002.046 0 .128c.01.342-.027 1.043.08 1.304h.081l.171-.41c.16-.766.16-1.11.16-1.11s1.07-.109 1.308.02l.38.227c.056-.073.134-.124.133-.272-.01-.318-.291-.365-.534-.365-.336.038-1.286.09-1.286.09v-.47c.11.018.368.046.492.042l-.04-.072.074.273h.015c.119.015.183-.088.268-.147.094-.067.16-.213.218-.311.117-.334.264-.653.29-.952.048-.29-.01-.323-.113-.523-.038-.076-.177-.154-.26-.143-.259.033-.519.045-.7.1-.038.013-.244.062-.244.062l-.015-.369s.08-.06.259-.048c.136.01.44.116.46-.123.023-.263-.008-.254-.174-.317-.166-.064-.454.17-.53.086-.075-.086-.075-.214-.227-.3-.114 0-.265-.037-.364-.017m1.388 1.301c-.006.293-.042 1.114-.24 1.29-.068-.244-.404-.112-.556-.091v-.385s.241.018.348-.038a.186.186 0 0 0 .094-.107c.047-.301-.442-.197-.442-.197v-.342"/></svg>