<svg xmlns="http://www.w3.org/2000/svg" width="120" height="14"><path fill="#000" fill-rule="nonzero" d="M4.743 5.642c-.346 0-.452-.03-.361-.196l2.287-3.821h.03l.662 4.017H4.743M2.5 8.712 3.765 6.53c.105-.196.21-.256.572-.256h3.129l.406 2.543c.09.632-.511.571-1.233.616-.106.09-.166.407-.09.497.556-.015 1.383-.03 1.97-.03.617 0 1.159.015 1.715.03.106-.09.166-.406.09-.497-.571-.045-1.068-.045-1.188-.827L7.692.451C7.617.165 7.586 0 7.376 0 7.15 0 7 .135 6.744.542L1.839 8.365C1.252 9.298.786 9.388.124 9.433c-.105.09-.166.407-.09.497.556-.015.752-.03 1.339-.03.617 0 1.369.015 1.925.03.106-.09.166-.406.09-.497-.556-.03-1.263-.09-.887-.722m8.946-1.895c-.3 1.534.391 3.234 2.513 3.234 2.241 0 3.565-1.865 3.866-3.37.316-1.565-.15-3.385-2.482-3.385-2.031 0-3.52 1.61-3.897 3.52m3.626-3.024c1.294 0 1.805 1.159 1.354 3.37-.391 1.987-1.384 2.393-2.091 2.393-1.565 0-1.76-1.926-1.52-3.084.256-1.31.993-2.679 2.257-2.679m6.227 1.43c.497-.798 1.324-1.234 1.836-1.234.918 0 1.384.963 1.023 2.783-.27 1.294-.843 2.769-2.452 2.769-.241 0-.738-.03-1.144-.647L21.3 5.22m.361-1.776-.03-.03s-.346.03-.556.03c-.527 0-1.55-.03-1.55-.03l-.03.03-.06.286c-.015.075.015.12.09.12l.286.03c.481.06.602.241.511.663l-1.55 7.748c-.075.421-.33.617-.782.662l-.286.03c-.075.015-.135.045-.15.12l-.045.286.015.03s1.038-.03 1.565-.03c.586 0 1.61.03 1.61.03l.045-.03.045-.285c.015-.076-.03-.106-.106-.12l-.285-.03c-.467-.046-.587-.242-.512-.663l.512-2.573c.36.211.752.331 1.293.331.783 0 1.46-.255 2.167-.842.812-.692 1.384-1.625 1.625-2.844.316-1.595-.346-3.07-1.806-3.07-.481 0-1.324.151-2.226 1.205h-.045l.255-1.054m6.512 2.212c.631-1.7 1.715-1.835 2.076-1.835.572 0 1.188.315.933 1.58-.03.135-.106.21-.271.21l-2.738.045m3.385 2.844c-.677.571-1.159.812-2.031.812-.542 0-1.114-.316-1.43-1.083-.195-.497-.24-1.189-.06-2.061l3.987.03c.18 0 .301-.09.346-.256.24-1.264.06-2.618-2.03-2.618-1.31 0-3.25 1.249-3.717 3.536-.166.842-.12 1.655.27 2.226.392.602 1.024.963 2.107.963 1.143 0 2.061-.526 2.814-1.309-.016-.15-.09-.225-.256-.24m4.02-2.302.362-1.776c.09-.451.286-.541.963-.541.812 0 1.354.225 1.173 1.158-.12.602-.692 1.159-1.564 1.159h-.933m-.09.436h1.068c.857 0 1.234.632 1.083 1.414-.21 1.008-.963 1.445-1.866 1.445-.737 0-.827-.136-.722-.677l.437-2.182M32.675 9.93s1.053-.03 1.625-.03c.527 0 .978.03 1.926.03.888 0 2.227-.527 2.497-1.91.166-.843-.406-1.37-1.038-1.566v-.03c.422-.06 1.264-.616 1.43-1.384.18-.918-.301-1.625-2.137-1.625-.572 0-.842.03-1.384.03-.647 0-1.64-.03-1.64-.03l-.03.03-.075.331c0 .03.03.076.075.076l.511.03c.346.03.452.21.392.511l-.873 4.409c-.105.526-.331.647-.602.662l-.496.03c-.106.015-.136.045-.15.135l-.061.27.03.031m16.356-1.4c-.03-.135-.135-.195-.27-.21-.647.662-1.355.993-2.001.993-1.099 0-1.79-1.113-1.445-2.874.331-1.655 1.249-2.648 2.242-2.648.888 0 .903.527.858 1.054-.03.406.15.541.466.541.316 0 .782-.195.873-.662.165-.827-.572-1.43-2.017-1.43-1.489 0-3.355 1.34-3.776 3.476-.391 1.941.421 3.28 2.317 3.28.903 0 1.76-.286 2.753-1.52m1.352-1.714c-.301 1.534.391 3.234 2.512 3.234 2.242 0 3.566-1.865 3.867-3.37.316-1.565-.15-3.385-2.482-3.385-2.031 0-3.521 1.61-3.897 3.52m3.626-3.024c1.294 0 1.805 1.159 1.354 3.37-.391 1.987-1.384 2.393-2.091 2.393-1.565 0-1.76-1.926-1.52-3.084.256-1.31.993-2.679 2.257-2.679m2.692 8.035.39.015c.241-.557.903-1.941 2.167-1.941h2.438c1.248 0 1.414 1.324 1.414 1.926h.376l.316-2.016c.045-.211-.045-.256-.316-.316-.24-.045-.557-.18-.451-.738l.842-4.167c.09-.512.271-.632.828-.707l.255-.03c.046 0 .12-.046.136-.106l.06-.3-.015-.03s-1.098.03-1.595.03h-2.858c-.256 0-1.43-.03-1.43-.03l-.045.03-.075.33c0 .06.03.076.09.076l.406.03c.512.045.542.346.512.526-.361 1.79-.918 3.16-1.444 4.439-.166.406-.617.602-1.024.647-.21.03-.406.06-.481.33l-.496 2.002m2.452-2.693c.06-.256.632-1.294 1.535-4.725.015-.06.15-.39.496-.39h1.068c.557 0 .557.225.452.736l-.753 3.822c-.105.496-.195.737-.752.737h-1.79c-.15 0-.286-.015-.256-.18m10.304-2.739-.406 2.001a.604.604 0 0 1-.286.392c-.452.315-1.038.646-1.46.646-.752 0-.962-.601-.872-1.068.135-.677.587-1.354 1.76-1.655l1.264-.316M68.9 9.178c.015.316.166.872.978.872.737 0 1.4-.601 1.414-.677.016-.105-.09-.255-.15-.255-.09 0-.196.24-.512.24-.586 0-.481-.587-.346-1.279l.452-2.241c.421-2.137-.662-2.543-1.76-2.543-1.234 0-2.664.858-2.814 1.67-.075.361.075.527.421.527.437 0 .722-.301.753-.497.03-.105.03-.21.015-.27-.015-.046 0-.136.03-.302.09-.466.797-.632 1.369-.632.511 0 1.173.256.827 1.956-.015.106-.075.166-.12.18l-1.354.317c-1.52.36-2.723 1.158-2.919 2.181-.24 1.189.512 1.625 1.565 1.625.692 0 1.008-.12 1.76-.632l.361-.24h.03m4.259-5.763-.015.03-.076.331c0 .046 0 .076.06.076l.437.03c.391.03.556.12.451.647l-.978 4.242c-.135.527-.256.662-.782.693l-.467.03c-.06.015-.09.03-.105.075l-.06.33.015.031s.963-.03 1.414-.03c.452 0 1.189.03 1.189.03l.03-.03.06-.316c.015-.06-.015-.075-.075-.09l-.24-.03c-.452-.046-.542-.196-.437-.693l.993-4.363h.03l1.173 5.402c.03.105.076.15.136.15.09 0 .18-.045.24-.15l3.476-5.657h.015l-.933 4.603c-.12.542-.18.632-.707.708l-.21.03c-.046.015-.076.03-.09.09l-.06.316.014.03s.828-.03 1.279-.03c.451 0 1.76.03 1.76.03l.015-.03.06-.316c.016-.045-.014-.075-.075-.09l-.436-.03c-.602-.03-.617-.196-.512-.708l.843-4.227c.12-.557.166-.602.737-.647l.422-.03c.06 0 .105-.03.105-.076l.075-.33-.03-.03-2.317.03-3.084 5.1-1.023-5.1-2.317-.03M81.632 9.9l.03.03s1.023-.03 1.55-.03c.586 0 1.459.03 1.459.03l.03-.03.06-.286c.015-.075-.045-.105-.105-.12-.316-.045-.753-.136-.647-.632l.42-2.107c1.114.076 1.34.617 1.46 1.445.09.662.346 1.7 1.099 1.715l1.083.015.045-.03.06-.27c.015-.106-.09-.136-.15-.136l-.106-.015c-.526-.076-.887-1.385-1.008-1.956-.165-.738-.647-1.069-1.459-1.069l.015-.06c.587-.165 1.038-.677 1.384-1.279.256-.466.602-.797.753-.797.135 0 .24.045.315.105a.58.58 0 0 0 .392.136c.316 0 .632-.271.692-.572.06-.361-.03-.677-.647-.677-.722 0-1.37.812-1.79 1.52-.497.827-1.024 1.399-2.032 1.399l.346-1.715c.106-.542.437-.617.873-.662.06 0 .135-.076.15-.15l.06-.257-.03-.03s-.842.03-1.429.03c-.526 0-1.55-.03-1.55-.03l-.03.03-.06.286c-.015.075.03.106.09.12l.286.03c.467.046.587.241.497.663l-.858 4.288c-.075.42-.21.571-.752.632l-.3.03c-.076.015-.121.045-.136.12l-.06.286m9.483 2.407c.301-.406.587-.842.873-1.294 1.79-2.888 2.753-4.453 3.896-6.138.301-.437.843-.918 1.415-.963.105-.09.165-.406.09-.497-.376.015-.647.03-1.068.03-.527 0-.813-.015-1.37-.03-.105.09-.165.407-.09.497.452.045.918.135.587.677l-2.197 3.445c-.165.256-.285.286-.36-.015l-.693-3.13c-.15-.631-.255-.902.677-.977.106-.09.166-.406.09-.497-.556.015-1.158.03-1.7.03-.511 0-.917-.015-1.218-.03-.105.09-.166.407-.09.497.647.06.737.18.962 1.128l.903 3.957c.075.316.166.993-.075 1.414-.27.512-.542.918-.858 1.385-.225.3-.466.436-.842.436-.21 0-.256-.045-.421-.045-.437 0-.753.451-.798.647-.06.316.196.556.602.556.316 0 .933-.12 1.67-1.083h.015m11.186-3.566c-.105.572-.21.692-.752.723l-.406.03c-.046.015-.076.03-.09.075l-.06.33.014.031c.452-.015 1.083-.03 1.625-.03.557 0 1.098.015 1.55.03l.03-.03.06-.316c.015-.06-.015-.075-.075-.09l-.286-.03c-.512-.046-.602-.12-.482-.723l.843-4.152c.12-.617.226-.647.752-.707l.301-.03c.06 0 .106-.03.12-.09l.06-.317-.014-.03c-.452.015-1.008.03-1.565.03-.542 0-1.159-.015-1.61-.03l-.03.03-.075.331c0 .06.015.076.06.076l.391.03c.467.045.587.135.482.707l-.331 1.61h-3.085l.331-1.61c.12-.617.226-.647.753-.707l.3-.03c.06 0 .106-.03.12-.09l.061-.317-.015-.03c-.451.015-1.023.03-1.58.03a50.56 50.56 0 0 1-1.595-.03l-.03.03-.075.331c0 .06.015.076.06.076l.391.03c.467.045.587.135.482.707l-.843 4.152c-.105.572-.21.692-.752.723l-.406.03c-.045.015-.075.03-.09.075l-.06.33.014.031c.452-.015 1.069-.03 1.61-.03.557 0 1.114.015 1.565.03l.03-.03.06-.316c.015-.06-.015-.075-.075-.09l-.286-.03c-.511-.046-.602-.12-.481-.723l.406-2.03h3.084l-.406 2.03m2.357 3.085.391.015c.24-.557.903-1.941 2.167-1.941h2.437c1.249 0 1.414 1.324 1.414 1.926h.376l.316-2.016c.045-.211-.045-.256-.316-.316-.24-.045-.556-.18-.451-.738l.842-4.167c.09-.512.271-.632.828-.707l.256-.03c.045 0 .12-.046.135-.106l.06-.3-.015-.03s-1.098.03-1.595.03h-2.858c-.256 0-1.43-.03-1.43-.03l-.045.03-.075.33c0 .06.03.076.09.076l.407.03c.511.045.541.346.511.526-.36 1.79-.918 3.16-1.444 4.439-.166.406-.617.602-1.023.647-.21.03-.406.06-.482.33l-.496 2.002m2.452-2.693c.06-.256.632-1.294 1.535-4.725.015-.06.15-.39.496-.39h1.069c.556 0 .556.225.45.736l-.751 3.822c-.106.496-.196.737-.753.737h-1.79c-.15 0-.286-.015-.256-.18m6.422-2.317c-.3 1.534.392 3.234 2.513 3.234 2.242 0 3.566-1.865 3.867-3.37.316-1.565-.15-3.385-2.483-3.385-2.03 0-3.52 1.61-3.897 3.52m3.626-3.024c1.294 0 1.806 1.159 1.355 3.37-.392 1.987-1.385 2.393-2.092 2.393-1.565 0-1.76-1.926-1.52-3.084.256-1.31.994-2.679 2.257-2.679"/></svg>