<?xml version="1.0" encoding="UTF-8"?>
<svg width="120px" height="14px" viewBox="0 0 120 14" version="1.1" xmlns="http://www.w3.org/2000/svg" xmlns:xlink="http://www.w3.org/1999/xlink">
    <title>nov-tagline</title>
    <g id="Page-1" stroke="none" stroke-width="1" fill="none" fill-rule="evenodd">
        <path d="M1.90803752,9.90193508 L4.91550198,9.90193508 C5.31271398,9.90193508 6.61784006,9.93030738 6.61784006,9.93030738 C6.75970159,9.22099973 6.90156313,8.29889879 6.98668004,7.56121981 C6.84481851,7.5044752 6.68877083,7.47610289 6.51853699,7.49028905 C6.23481491,8.51169109 5.85178681,9.34867511 4.77364045,9.34867511 L3.17060515,9.34867511 C2.7592071,9.34867511 2.50385595,9.07913721 2.50385595,8.63936745 L2.50385595,2.48257699 C2.50385595,1.30512727 2.74502154,1.23419552 3.73805127,1.19163706 C3.82316809,1.10652014 3.82316809,0.808610925 3.73805127,0.723494006 C3.04293046,0.73768016 2.61734439,0.751866313 1.89385137,0.751866313 C1.1845444,0.751866313 0.773144582,0.73768016 0.0638376152,0.723494006 C-0.0212792051,0.808610925 -0.0212792051,1.10652014 0.0638376152,1.19163706 C1.05686735,1.23419552 1.29803294,1.30512727 1.29803294,2.48257699 L1.29803294,8.1712244 C1.29803294,9.34867412 1.05686735,9.41960587 0.0638376152,9.46216433 C-0.0212792051,9.54728125 -0.0212792051,9.84519047 0.0638376152,9.93030738 C0.758958429,9.91612123 1.90803752,9.90193508 1.90803752,9.90193508 M8.55269835,1.40442936 C8.55269835,1.77326835 8.89316701,2.14210932 9.2336337,2.14210932 C9.63084599,2.14210932 9.97131367,1.77326835 9.97131367,1.46117397 C9.97131367,1.12070629 9.67340445,0.723494006 9.29037832,0.723494006 C8.94991163,0.723494006 8.55269835,1.06396168 8.55269835,1.40442936 M9.84363829,8.1712244 L9.84363829,5.34817993 C9.84363829,4.63887227 9.9003829,3.73095847 9.9003829,3.73095847 C9.9003829,3.67421386 9.82945214,3.6316554 9.71596291,3.6316554 C9.30456546,3.78770308 8.75130351,3.91537846 7.77245993,4.04305384 C7.74408763,4.12817076 7.77245993,4.35514921 7.80083224,4.44026613 C8.56688451,4.52538304 8.72293219,4.59631479 8.72293219,5.40492454 L8.72293219,8.1712244 C8.72293219,9.34867412 8.56688352,9.39123357 7.70152917,9.46216433 C7.61641225,9.54728125 7.61641225,9.84519047 7.70152917,9.93030738 C8.2973476,9.91612123 8.66618856,9.90193508 9.29037832,9.90193508 C9.9003829,9.90193508 10.2550377,9.91612123 10.8650413,9.93030738 C10.9501582,9.84519047 10.9501582,9.54728125 10.8650413,9.46216433 C9.99968696,9.40541972 9.84363829,9.34867412 9.84363829,8.1712244 M16.0214863,8.1712244 C16.0214863,9.34867412 15.8654376,9.41960587 15.0000833,9.46216433 C14.9149664,9.54728125 14.9149664,9.84519047 15.0000833,9.93030738 C15.5959017,9.91612123 15.9647427,9.90193508 16.5889324,9.90193508 C17.198937,9.90193508 17.5535918,9.91612123 18.1635954,9.93030738 C18.2487124,9.84519047 18.2487124,9.54728125 18.1635954,9.46216433 C17.2982411,9.41960587 17.1421924,9.34867412 17.1421924,8.1712244 L17.1421924,1.63140781 C17.1421924,0.709308838 17.198937,0.141861531 17.198937,0.141861531 C17.198937,0.0425585579 17.1421924,3.55271368e-15 17.014517,3.55271368e-15 C16.6598642,0.141861334 15.5959017,0.340467675 15.0284556,0.383026134 C15.0000833,0.496515162 15.0284556,0.723494006 15.1135725,0.808610925 C15.8512525,0.851169385 16.0214863,0.780239604 16.0214863,1.97187548 L16.0214863,8.1712244 M19.6910451,1.40442936 C19.6910451,1.77326835 20.0315138,2.14210932 20.3719805,2.14210932 C20.7691928,2.14210932 21.1096605,1.77326835 21.1096605,1.46117397 C21.1096605,1.12070629 20.8117512,0.723494006 20.4287251,0.723494006 C20.0882584,0.723494006 19.6910451,1.06396168 19.6910451,1.40442936 M20.9819851,8.1712244 L20.9819851,5.34817993 C20.9819851,4.63887227 21.0387297,3.73095847 21.0387297,3.73095847 C21.0387297,3.67421386 20.9677989,3.6316554 20.8543097,3.6316554 C20.4429122,3.78770308 19.8896503,3.91537846 18.9108067,4.04305384 C18.8824344,4.12817076 18.9108067,4.35514921 18.939179,4.44026613 C19.7052313,4.52538304 19.861279,4.59631479 19.861279,5.40492454 L19.861279,8.1712244 C19.861279,9.34867412 19.7052303,9.39123357 18.839876,9.46216433 C18.754759,9.54728125 18.754759,9.84519047 18.839876,9.93030738 C19.4356944,9.91612123 19.8045354,9.90193508 20.4287251,9.90193508 C21.0387297,9.90193508 21.3933845,9.91612123 22.0033881,9.93030738 C22.088505,9.84519047 22.088505,9.54728125 22.0033881,9.46216433 C21.1380337,9.40541972 20.9819851,9.34867412 20.9819851,8.1712244 M24.7340009,4.75236149 C25.1028409,4.42607997 25.5284265,4.29840459 25.9398239,4.29840459 C26.8051783,4.29840459 27.5144869,5.34818091 27.5144869,6.72423678 C27.5144869,8.34145626 26.8619229,9.5614674 25.5142393,9.5614674 C25.0744696,9.5614674 24.7765594,9.24937105 24.4928363,8.89471821 L24.4928363,5.34817993 C24.4928363,5.05027071 24.5495809,4.92259533 24.7340009,4.75236149 M24.6346978,4.31259075 C24.5353948,4.39770767 24.4928363,4.36933536 24.4928363,4.24165998 L24.4928363,1.63140781 C24.4928363,0.709308838 24.5495809,0.141861531 24.5495809,0.141861531 C24.5495809,0.0425585579 24.4928363,3.55271368e-15 24.3651609,3.55271368e-15 C24.0105081,0.141861334 22.9465456,0.340467675 22.3790995,0.383026134 C22.3507272,0.496515162 22.3790995,0.723494006 22.4642164,0.808610925 C23.2018964,0.851169385 23.3721302,0.780239604 23.3721302,1.97187548 L23.3721302,8.89471821 C23.3721302,9.44797719 23.3579441,9.70332893 23.3153856,9.90193508 C23.3863164,10.0154243 23.4572471,10.0721689 23.627481,10.0721689 C23.7125979,10.0012382 23.8544594,9.85937662 23.9537625,9.73170124 C24.1098102,9.5614674 24.1949271,9.5614674 24.3509748,9.70332893 C24.6630702,9.97286486 25.0886557,10.0437966 25.5993563,10.0437966 C27.0463429,10.0437966 28.7344961,8.72448141 28.7344961,6.46888602 C28.7344961,4.73817731 27.4577413,3.67421386 26.223547,3.67421386 C25.6135434,3.67421386 25.0744686,3.91537846 24.6346978,4.31259075 M31.0900625,5.9014399 C31.3595994,4.29840558 32.3526311,4.17072922 32.6930978,4.17072922 C33.2321716,4.17072922 33.8705485,4.46863942 33.8705485,5.66027529 C33.8705485,5.78795067 33.8138039,5.85888144 33.6577562,5.85888144 L31.0900625,5.9014399 M34.8068346,8.58262284 C34.2819479,9.12169567 33.8705475,9.34867511 33.0477516,9.34867511 C32.5370511,9.34867511 31.9412317,9.05076491 31.5014609,8.32727208 C31.2177389,7.85912903 31.047504,7.206565 31.047504,6.3837691 L34.8210208,6.41214141 C34.9912546,6.41214141 35.0905577,6.32702449 35.0905577,6.17097681 C35.0905577,4.97934093 34.6649711,3.70258616 32.6930978,3.70258616 C31.4589044,3.70258616 29.8558672,4.88003884 29.8558672,7.03633215 C29.8558672,7.83075574 30.0544743,8.59680899 30.5226164,9.13588281 C31.0049456,9.70332795 31.6716958,10.0437966 32.6930978,10.0437966 C33.7712445,10.0437966 34.5372987,9.54728027 35.1047438,8.80960129 C35.0621854,8.66773976 34.9770685,8.59680899 34.8068346,8.58262284 M37.0945735,5.40492454 L37.0945735,8.1712244 C37.0945735,9.34867412 36.9243386,9.40541972 36.0447981,9.46216433 C35.9596812,9.54728125 35.9596812,9.84519047 36.0447981,9.93030738 C36.6406166,9.91612123 37.0945745,9.90193508 37.6620196,9.90193508 C38.2436519,9.90193508 38.7685405,9.91612123 39.3785441,9.93030738 C39.463661,9.84519047 39.463661,9.54728125 39.3785441,9.46216433 C38.3855144,9.39123357 38.2152796,9.34867412 38.2152796,8.1712244 L38.2152796,6.19934911 C38.2152796,5.83050913 38.3855134,5.50422761 38.5557472,5.24887685 C38.7117949,5.0218984 39.0380764,4.55375535 39.2083103,4.55375535 C39.3076134,4.55375535 39.4211026,4.5679415 39.5062195,4.65305842 C39.648081,4.79491995 39.7899435,5.06445686 40.0878518,5.06445686 C40.4283195,5.06445686 40.754601,4.70980205 40.754601,4.35514921 C40.754601,4.0856123 40.4992502,3.67421386 39.9034318,3.67421386 C39.2366836,3.67421386 38.6550503,4.29840459 38.3287688,4.85166457 C38.2436519,5.00771225 38.2010934,4.93678148 38.2010934,4.86585072 C38.2010934,4.41189382 38.2720242,3.73095847 38.2720242,3.73095847 C38.2720242,3.67421386 38.2010934,3.6316554 38.0876042,3.6316554 C37.6903929,3.78770308 37.1229448,3.91537846 36.1441012,4.04305384 C36.1157289,4.12817076 36.1157289,4.35514921 36.1724735,4.44026613 C36.9385258,4.51119689 37.0945735,4.6246871 37.0945735,5.40492454 M42.2171047,1.40442936 C42.2171047,1.77326835 42.5575734,2.14210932 42.89804,2.14210932 C43.2952523,2.14210932 43.63572,1.77326835 43.63572,1.46117397 C43.63572,1.12070629 43.3378108,0.723494006 42.9547847,0.723494006 C42.614318,0.723494006 42.2171047,1.06396168 42.2171047,1.40442936 M43.5080446,8.1712244 L43.5080446,5.34817993 C43.5080446,4.63887227 43.5647892,3.73095847 43.5647892,3.73095847 C43.5647892,3.67421386 43.4938585,3.6316554 43.3803693,3.6316554 C42.9689718,3.78770308 42.4157099,3.91537846 41.4368663,4.04305384 C41.408494,4.12817076 41.4368663,4.35514921 41.4652386,4.44026613 C42.2312908,4.52538304 42.3873385,4.59631479 42.3873385,5.40492454 L42.3873385,8.1712244 C42.3873385,9.34867412 42.2312899,9.39123357 41.3659355,9.46216433 C41.2808186,9.54728125 41.2808186,9.84519047 41.3659355,9.93030738 C41.9617539,9.91612123 42.3305949,9.90193508 42.9547847,9.90193508 C43.5647892,9.90193508 43.9194441,9.91612123 44.5294477,9.93030738 C44.6145646,9.84519047 44.6145646,9.54728125 44.5294477,9.46216433 C43.6640933,9.40541972 43.5080446,9.34867412 43.5080446,8.1712244 M50.0972911,5.9014399 C50.366828,4.29840558 51.3598597,4.17072922 51.7003264,4.17072922 C52.2394002,4.17072922 52.8777771,4.46863942 52.8777771,5.66027529 C52.8777771,5.78795067 52.8210325,5.85888144 52.6649848,5.85888144 L50.0972911,5.9014399 M53.8140632,8.58262284 C53.2891765,9.12169567 52.8777761,9.34867511 52.0549802,9.34867511 C51.5442797,9.34867511 50.9484603,9.05076491 50.5086895,8.32727208 C50.2249675,7.85912903 50.0547326,7.206565 50.0547326,6.3837691 L53.8282494,6.41214141 C53.9984832,6.41214141 54.0977863,6.32702449 54.0977863,6.17097681 C54.0977863,4.97934093 53.6721997,3.70258616 51.7003264,3.70258616 C50.4661331,3.70258616 48.8630958,4.88003884 48.8630958,7.03633215 C48.8630958,7.83075574 49.0617029,8.59680899 49.529845,9.13588281 C50.0121742,9.70332795 50.6789244,10.0437966 51.7003264,10.0437966 C52.7784731,10.0437966 53.5445273,9.54728027 54.1119724,8.80960129 C54.069414,8.66773976 53.9842971,8.59680899 53.8140632,8.58262284 M57.2934389,4.82329226 C57.2508805,4.88003687 57.1515774,5.0218984 57.1515774,4.82329226 C57.1515774,4.39770767 57.2225082,3.74514462 57.2225082,3.74514462 C57.2225082,3.67421386 57.1657636,3.6316554 57.0522743,3.6316554 C56.655063,3.78770308 56.0734288,3.91537846 55.0945852,4.04305384 C55.0662129,4.12817076 55.0945852,4.35514921 55.1229575,4.44026613 C55.8890098,4.51119689 56.0450575,4.58212864 56.0450575,5.40492454 L56.0450575,8.1712244 C56.0450575,9.33448797 55.9031949,9.39123357 55.0520267,9.46216433 C54.9669098,9.54728125 54.9669098,9.84519047 55.0520267,9.93030738 C55.633659,9.91612123 56.0025,9.90193508 56.6125036,9.90193508 C57.1657636,9.90193508 57.4211153,9.91612123 58.0169327,9.93030738 C58.1020497,9.84519047 58.1020497,9.54728125 58.0169327,9.46216433 C57.2934399,9.39123357 57.1657636,9.33448797 57.1657636,8.1712244 L57.1657636,5.84469528 C57.1657636,5.54678607 57.2934389,5.37655223 57.4069282,5.24887685 C57.946002,4.72398919 58.4992629,4.41189382 59.0525219,4.41189382 C59.336245,4.41189382 59.6341542,4.59631381 59.804388,4.92259533 C59.9462496,5.20631741 59.9746219,5.58934453 59.9746219,6.01492912 L59.9746219,8.1712244 C59.9746219,9.33448797 59.8327603,9.39123357 59.0950804,9.46216433 C59.0241496,9.54728125 59.0241496,9.84519047 59.0950804,9.93030738 C59.6908988,9.91612123 59.9746229,9.90193508 60.542068,9.90193508 C61.1237003,9.90193508 61.4357966,9.91612123 62.0458002,9.93030738 C62.116731,9.84519047 62.116731,9.54728125 62.0458002,9.46216433 C61.2513766,9.39123357 61.095328,9.33448797 61.095328,8.1712244 L61.095328,6.05748758 C61.095328,5.27725014 61.0385834,4.59631282 60.7123018,4.15654306 C60.4711382,3.84444769 60.0313665,3.67421386 59.5348511,3.67421386 C58.8397306,3.67421386 58.1587933,3.85863483 57.2934389,4.82329226 M62.9559306,7.94424595 C63.0126752,8.63936647 63.0552337,9.30611665 63.0552337,9.90193508 C63.1970952,9.87356277 63.3389567,9.85937662 63.4098875,9.85937662 C63.5091906,9.85937662 63.5943075,9.85937662 63.6936106,9.88774893 C64.0766367,9.987052 64.4596638,10.0437966 64.9845505,10.0437966 C65.7789741,10.0437966 67.2401489,9.6607685 67.2401489,8.25634132 C67.2401489,7.29168389 66.5308402,6.73842195 65.5803689,6.36958295 C64.7292007,6.04330143 64.1617536,5.83050815 64.1617536,5.05027071 C64.1617536,4.46863843 64.6724561,4.14235691 65.1547843,4.14235691 C65.4668797,4.14235691 66.2896766,4.25584712 66.4740966,5.46166915 C66.5592135,5.54678607 66.8429366,5.53259992 66.9280535,5.447483 C66.9280535,4.93678148 66.9989843,4.41189283 67.0131704,3.94375077 C66.5734006,3.87282 65.8924643,3.67421386 65.1547843,3.67421386 C64.10501,3.67421386 63.1545368,4.35515019 63.1545368,5.26306301 C63.1545368,6.2986512 63.6226808,6.73842293 64.7150136,7.19237983 C65.8782772,7.68889421 66.1620012,7.97261825 66.1620012,8.58262284 C66.1620012,9.27774336 65.4810659,9.57565356 64.9561782,9.57565356 C64.4029192,9.57565356 64.0908229,9.39123357 63.9489613,9.23518588 C63.6084946,8.90890436 63.4808183,8.28471264 63.3957014,7.93005979 C63.3105844,7.84494288 63.0410475,7.85912903 62.9559306,7.94424595 M68.9823858,1.40442936 C68.9823858,1.77326835 69.3228544,2.14210932 69.6633211,2.14210932 C70.0605334,2.14210932 70.4010011,1.77326835 70.4010011,1.46117397 C70.4010011,1.12070629 70.1030919,0.723494006 69.7200658,0.723494006 C69.3795991,0.723494006 68.9823858,1.06396168 68.9823858,1.40442936 M70.2733257,8.1712244 L70.2733257,5.34817993 C70.2733257,4.63887227 70.3300703,3.73095847 70.3300703,3.73095847 C70.3300703,3.67421386 70.2591396,3.6316554 70.1456503,3.6316554 C69.7342529,3.78770308 69.1809909,3.91537846 68.2021474,4.04305384 C68.1737751,4.12817076 68.2021474,4.35514921 68.2305197,4.44026613 C68.9965719,4.52538304 69.1526196,4.59631479 69.1526196,5.40492454 L69.1526196,8.1712244 C69.1526196,9.34867412 68.996571,9.39123357 68.1312166,9.46216433 C68.0460997,9.54728125 68.0460997,9.84519047 68.1312166,9.93030738 C68.727035,9.91612123 69.095876,9.90193508 69.7200658,9.90193508 C70.3300703,9.90193508 70.6847251,9.91612123 71.2947287,9.93030738 C71.3798457,9.84519047 71.3798457,9.54728125 71.2947287,9.46216433 C70.4293744,9.40541972 70.2733257,9.34867412 70.2733257,8.1712244 M72.7769601,8.1712244 C72.7769601,9.34867412 72.6209114,9.40541972 71.8264878,9.46216433 C71.7413709,9.54728125 71.7413709,9.84519047 71.8264878,9.93030738 C72.4223063,9.91612123 72.7485888,9.90193508 73.3444062,9.90193508 C73.8409216,9.90193508 74.0253426,9.91612123 74.6353461,9.93030738 C74.7204631,9.84519047 74.7204631,9.54728125 74.6353461,9.46216433 C74.0537149,9.40541972 73.8976662,9.34867412 73.8976662,8.1712244 L73.8976662,6.89447062 C74.2239477,6.90865677 74.4225548,7.00795984 74.7062769,7.40517213 L75.7418661,8.8663459 C76.0255892,9.27774336 76.0681476,9.44797818 76.0681476,9.63239817 L76.0681476,9.85937662 C76.0681476,9.90193508 76.0823338,9.93030738 76.1248922,9.93030738 C76.4086153,9.91612123 76.6781532,9.90193508 77.1037368,9.90193508 C77.5435075,9.90193508 77.8414177,9.91612123 78.2670014,9.93030738 C78.3521183,9.84519047 78.3521183,9.54728125 78.2670014,9.46216433 C77.7846731,9.40541972 77.3590875,9.34867412 77.0469922,8.8663459 L75.3872123,6.41214141 C75.3446538,6.3553968 75.3162815,6.28446603 75.3162815,6.21353527 C75.3162815,6.15679065 75.3304677,6.11423219 75.3730261,6.07167373 L76.4511737,4.88003687 C76.8625722,4.45445228 77.3023439,4.28421844 78.0116506,4.25584613 C78.0967675,4.17072922 78.0967675,3.87282 78.0116506,3.78770308 C77.4867639,3.80188923 77.2881568,3.81607539 76.7774553,3.81607539 C76.2383824,3.81607539 75.9972168,3.80188923 75.4723292,3.78770308 C75.3872123,3.87282 75.3872123,4.17072922 75.4723292,4.25584613 C76.3234974,4.29840459 75.8695415,4.83747841 75.7276799,4.97933994 C74.9758148,5.80213584 74.2665062,6.42632756 73.8976662,6.53981679 L73.8976662,1.63140781 C73.8976662,0.709308838 73.9544108,0.141861531 73.9544108,0.141861531 C73.9544108,0.0425585579 73.8976662,3.55271368e-15 73.7699908,3.55271368e-15 C73.415338,0.141861334 72.3513755,0.340467675 71.7839294,0.383026134 C71.7555571,0.496515162 71.7839294,0.723494006 71.8690463,0.808610925 C72.6067263,0.851169385 72.7769601,0.780239604 72.7769601,1.97187548 L72.7769601,8.1712244 M79.7483461,8.1712244 C79.7483461,9.34867412 79.5922974,9.41960587 78.726943,9.46216433 C78.6418261,9.54728125 78.6418261,9.84519047 78.726943,9.93030738 C79.3227615,9.91612123 79.6916024,9.90193508 80.3157922,9.90193508 C80.9257968,9.90193508 81.2804516,9.91612123 81.8904552,9.93030738 C81.9755721,9.84519047 81.9755721,9.54728125 81.8904552,9.46216433 C81.0251008,9.41960587 80.8690522,9.34867412 80.8690522,8.1712244 L80.8690522,1.63140781 C80.8690522,0.709308838 80.9257968,0.141861531 80.9257968,0.141861531 C80.9257968,0.0425585579 80.8690522,3.55271368e-15 80.7413768,3.55271368e-15 C80.3867239,0.141861334 79.3227615,0.340467675 78.7553153,0.383026134 C78.726943,0.496515162 78.7553153,0.723494006 78.8404323,0.808610925 C79.5781122,0.851169385 79.7483461,0.780239604 79.7483461,1.97187548 L79.7483461,8.1712244 M82.7227834,6.99377369 C82.7227834,8.44075934 83.7016299,10.0437966 85.7018755,10.0437966 C87.8156104,10.0437966 88.70934,8.28471165 88.70934,6.86609831 C88.70934,5.39073937 87.9290996,3.67421386 85.7302478,3.67421386 C83.8151191,3.67421386 82.7227834,5.19213421 82.7227834,6.99377369 M85.5742002,4.14235691 C86.7942083,4.14235691 87.4893308,5.23469267 87.4893308,7.32005521 C87.4893308,9.19262545 86.6239755,9.57565356 85.9572263,9.57565356 C84.4818683,9.57565356 83.9427926,7.75982497 83.9427926,6.66749217 C83.9427926,5.43329783 84.3825643,4.14235691 85.5742002,4.14235691 M91.7722191,5.14957378 C92.2119899,4.69561688 92.779437,4.3267769 93.2050206,4.3267769 C94.1129305,4.3267769 94.8931689,5.34818091 94.8931689,6.95121523 C94.8931689,8.1144788 94.4817704,9.5614674 92.8929252,9.5614674 C92.6375755,9.5614674 92.1410591,9.49053664 91.8857084,9.26355819 C91.5878001,9.00820743 91.5452407,8.93727568 91.5452407,8.412389 L91.5452407,5.77376452 C91.5452407,5.4758553 91.5877991,5.34817993 91.7722191,5.14957378 M91.6587299,4.68143073 C91.6019853,4.73817534 91.5168684,4.75236149 91.5168684,4.63887227 C91.5168684,4.12817076 91.573613,3.73095847 91.573613,3.73095847 C91.573613,3.67421386 91.5026822,3.6316554 91.389193,3.6316554 C90.9919817,3.78770308 90.4529059,3.91537846 89.4740623,4.04305384 C89.44569,4.12817076 89.4740623,4.35514921 89.5024346,4.44026613 C90.2684869,4.51119689 90.4245346,4.59631479 90.4245346,5.40492454 L90.4245346,11.4624119 C90.4245346,12.6398616 90.2684859,12.7107934 89.4031316,12.7533519 C89.3180146,12.8384688 89.3180146,13.136378 89.4031316,13.2214949 C89.99895,13.2073088 90.367791,13.1931226 90.9919807,13.1931226 C91.6587299,13.1931226 92.0985016,13.2073088 92.7085052,13.2214949 C92.7936222,13.136378 92.7936222,12.8384688 92.7085052,12.7533519 C91.7012893,12.6966072 91.5452407,12.6398616 91.5452407,11.4624119 L91.5452407,9.93030738 C91.5452407,9.74588739 91.5877991,9.7742597 91.7438468,9.83100431 C92.0843145,9.97286584 92.5240862,10.0437966 92.9780421,10.0437966 C93.7724657,10.0437966 94.4817704,9.80263102 95.0634027,9.24937203 C95.7301519,8.59680899 96.113178,7.71726651 96.113178,6.56818909 C96.113178,5.06445785 95.0492166,3.67421386 93.6022329,3.67421386 C93.0773462,3.67421386 92.2971068,4.02886768 91.6587299,4.68143073 M98.5297006,5.9014399 C98.7992375,4.29840558 99.7922682,4.17072922 100.132736,4.17072922 C100.67181,4.17072922 101.310187,4.46863942 101.310187,5.66027529 C101.310187,5.78795067 101.253442,5.85888144 101.097394,5.85888144 L98.5297006,5.9014399 M102.246473,8.58262284 C101.721585,9.12169567 101.310187,9.34867511 100.48739,9.34867511 C99.9766882,9.34867511 99.3808697,9.05076491 98.941099,8.32727208 C98.6573759,7.85912903 98.4871421,7.206565 98.4871421,6.3837691 L102.260659,6.41214141 C102.430893,6.41214141 102.530196,6.32702449 102.530196,6.17097681 C102.530196,4.97934093 102.104611,3.70258616 100.132736,3.70258616 C98.8985504,3.70258616 97.2955052,4.88003884 97.2955052,7.03633215 C97.2955052,7.83075574 97.4941114,8.59680899 97.9622544,9.13588281 C98.4445836,9.70332795 99.1113427,10.0437966 100.132736,10.0437966 C101.210884,10.0437966 101.976936,9.54728027 102.544382,8.80960129 C102.501823,8.66773976 102.416707,8.59680899 102.246473,8.58262284 M108.092941,8.14285209 C108.092941,8.41238802 108.064569,8.52587823 107.865963,8.69611206 C107.341075,9.15006798 106.887118,9.37704741 106.532464,9.37704741 C105.766422,9.37704741 104.971987,8.54006241 104.971987,6.76679524 C104.971987,5.7453932 105.170593,5.1779451 105.383386,4.88003687 C105.823157,4.21328768 106.418975,4.17072922 106.702698,4.17072922 C107.2134,4.17072922 107.568053,4.35514921 107.851776,4.68143073 C108.050383,4.90840918 108.092941,5.00771225 108.092941,5.447483 L108.092941,8.14285209 M107.936893,9.19262742 C107.993638,9.13588281 108.107127,9.1075105 108.107127,9.20681358 C108.107127,9.54728027 108.263175,10.0437966 108.263175,10.0437966 C108.376664,10.0863551 108.419223,10.0721689 108.532712,10.0437966 C108.844807,9.78844585 109.383891,9.57565356 110.249236,9.47635048 C110.334353,9.39123357 110.334353,9.17844127 110.249236,9.09332435 C109.341332,9.02239358 109.213647,8.75285569 109.213647,8.05773517 L109.213647,1.63140781 C109.213647,0.709308838 109.270392,0.141861531 109.270392,0.141861531 C109.270392,0.0425585579 109.213647,3.55271368e-15 109.085972,3.55271368e-15 C108.731318,0.141861334 107.667356,0.340467675 107.09991,0.383026134 C107.071538,0.496515162 107.09991,0.723494006 107.185027,0.808610925 C107.922707,0.851169385 108.092941,0.780239604 108.092941,1.97187548 L108.092941,3.78770308 C108.092941,3.88700615 108.064569,3.91537846 107.965266,3.91537846 C107.908521,3.91537846 107.326889,3.67421386 106.858746,3.67421386 C105.922469,3.67421386 105.298269,3.98630923 104.730823,4.52538304 C104.120818,5.13538664 103.751978,5.97237165 103.751978,7.02214599 C103.751978,8.76704086 104.63153,10.0437966 106.163624,10.0437966 C106.716884,10.0437966 107.241772,9.76007256 107.936893,9.19262742 M111.651675,1.40442936 C111.651675,1.77326835 111.992143,2.14210932 112.332611,2.14210932 C112.729823,2.14210932 113.070291,1.77326835 113.070291,1.46117397 C113.070291,1.12070629 112.772382,0.723494006 112.389355,0.723494006 C112.048888,0.723494006 111.651675,1.06396168 111.651675,1.40442936 M112.942615,8.1712244 L112.942615,5.34817993 C112.942615,4.63887227 112.99936,3.73095847 112.99936,3.73095847 C112.99936,3.67421386 112.928429,3.6316554 112.81494,3.6316554 C112.403542,3.78770308 111.850282,3.91537846 110.871437,4.04305384 C110.843065,4.12817076 110.871437,4.35514921 110.899809,4.44026613 C111.665862,4.52538304 111.821909,4.59631479 111.821909,5.40492454 L111.821909,8.1712244 C111.821909,9.34867412 111.665862,9.39123357 110.800506,9.46216433 C110.715389,9.54728125 110.715389,9.84519047 110.800506,9.93030738 C111.396325,9.91612123 111.765165,9.90193508 112.389355,9.90193508 C112.99936,9.90193508 113.354014,9.91612123 113.964018,9.93030738 C114.049135,9.84519047 114.049135,9.54728125 113.964018,9.46216433 C113.098663,9.40541972 112.942615,9.34867412 112.942615,8.1712244 M115.985319,5.9014399 C116.254856,4.29840558 117.247886,4.17072922 117.588354,4.17072922 C118.127428,4.17072922 118.765805,4.46863942 118.765805,5.66027529 C118.765805,5.78795067 118.70906,5.85888144 118.553012,5.85888144 L115.985319,5.9014399 M119.702091,8.58262284 C119.177203,9.12169567 118.765805,9.34867511 117.943008,9.34867511 C117.432306,9.34867511 116.836488,9.05076491 116.396717,8.32727208 C116.112994,7.85912903 115.94276,7.206565 115.94276,6.3837691 L119.716277,6.41214141 C119.886511,6.41214141 119.985814,6.32702449 119.985814,6.17097681 C119.985814,4.97934093 119.560229,3.70258616 117.588354,3.70258616 C116.354168,3.70258616 114.751123,4.88003884 114.751123,7.03633215 C114.751123,7.83075574 114.949729,8.59680899 115.417873,9.13588281 C115.900202,9.70332795 116.566961,10.0437966 117.588354,10.0437966 C118.666502,10.0437966 119.432554,9.54728027 120,8.80960129 C119.957442,8.66773976 119.872325,8.59680899 119.702091,8.58262284" id="nov-tagline" fill="#000000" fill-rule="nonzero"></path>
    </g>
</svg>