<svg viewBox="0 0 90 18" xmlns="http://www.w3.org/2000/svg"><defs><clipPath id="a"><path d="m217 202 3.04 2.32 6.96.536 1.61-24.5-1.43-12.7-11.2.357z" fill="none" stroke="#000"/></clipPath><clipPath id="b"><path d="m250 195 5.18 2.5h7.5v-26.8l-6.07-11.4-16.2 1.61-8.93-1.25-8.21 1.61 3.21 36.6 10.5 1.79 5.54-6.25-3.04-17.9 4.11-3.75 3.57 5z" fill="none" stroke="#000"/></clipPath><clipPath id="c"><path d="m326 76.5-8.08-20.2-9.2-.09 13.3 37 12.1-.311 10.1-27.7 3.3-12-15.3.044-4.69 11.6z" fill="none" stroke="#000"/></clipPath><clipPath id="d"><path d="m349 55.2 13.4-.625-1.47 16.3-16.1-1.25-.312-14.1z" fill="none" stroke="#000"/></clipPath><clipPath id="e"><path d="m325 90.7 14.9-36.1 22.9-.357-1.7 37.1-32.6.268z" fill="none" stroke="#000"/></clipPath></defs><g fill-rule="evenodd"><path d="m.078 5.13 7.28-.401.098.167c-1 1.34-1.33 2.85-1.14 4.68l-6.32-4.24zm8.68 6.66c1.54.162 2.94-.15 4.16-1.18l.174.113-.409 7.09-.175.05-3.83-5.88zm5.28-4.23c-.823-1.71-1.96-2.89-3.64-3.52l-.03-.202 7.01-3.57.163.147z" opacity=".5"/><g fill-rule="nonzero"><path d="M49.2 11c0 .104.144.234.424.382.28.156.645.26 1.09.338 1.09.173 1.87.468 2.35.884.484.416.721 1.02.721 1.81 0 .78-.356 1.4-1.07 1.84-.713.442-1.66.668-2.84.668-1.1 0-1.99-.234-2.66-.72-.67-.477-1-1.13-1-1.95 0-.572.178-1.06.534-1.47.356-.408.78-.642 1.26-.694-.407-.199-.602-.494-.602-.902 0-.442.263-.806.797-1.1.127-.07.221-.087.28-.035-.212-.008-.441-.13-.687-.355-.568-.546-.857-1.24-.857-2.08 0-.85.288-1.55.857-2.09.577-.546 1.31-.815 2.21-.815.229 0 .441.018.636.052h3.15v1.59h-1.09c.238.26.365.737.373 1.44 0 .72-.297 1.36-.874 1.92-.509.477-1.15.737-1.91.79l-.517.034a1.216 1.216 0 0 0-.382.147c-.127.087-.195.191-.195.321zm.806-4.72c-.373 0-.687.121-.925.364-.246.251-.365.572-.365.971s.119.72.365.962c.238.243.543.364.925.364s.687-.121.933-.373c.238-.243.356-.564.356-.954 0-.399-.119-.72-.365-.971-.238-.243-.543-.364-.925-.364zm-2.01 7.98c0 .312.17.572.509.78.339.208.806.312 1.39.312.645 0 1.15-.087 1.52-.26s.543-.399.543-.659c0-.269-.127-.503-.373-.702-.246-.191-.611-.329-1.1-.408l-.221-.035c-.195-.026-.382-.052-.568-.06a2.086 2.086 0 0 0-.424.008c-.356.061-.645.156-.857.295-.28.173-.416.416-.416.728zM58.2 13.2c-1.24 0-2.24-.399-3.02-1.2-.789-.806-1.18-1.83-1.18-3.07 0-1.25.339-2.27 1.02-3.08.679-.806 1.55-1.21 2.63-1.21 1.16 0 2.06.382 2.7 1.14.636.754.95 1.8.95 3.16v.451h-5.34c.06.468.229.884.5 1.24.526.494 1.13.746 1.81.746.509 0 .967-.095 1.4-.277.433-.182.975-.486 1.64-.919v1.89c-.543.416-1.05.711-1.53.884-.475.165-1 .251-1.57.251zm1.27-5.19a2.5 2.5 0 0 0-.416-1.03c-.305-.416-.746-.624-1.33-.624-.517 0-.942.225-1.27.685a2.627 2.627 0 0 0-.467.971zM31 13V4.84h1.93v8.34h-1.55zm.967-11.6c.314 0 .585.113.797.329.221.225.331.494.331.806 0 .312-.11.572-.331.798a1.081 1.081 0 0 1-.797.329c-.322 0-.585-.104-.806-.329a1.107 1.107 0 0 1-.322-.798c0-.312.11-.581.331-.806.212-.217.475-.329.797-.329zM36.8.895v12.3h-1.93V.695h1.93zm3.68 12.1-3.99-3.98 3.61-4.18h2.16l-3.44 4.14 4.05 4.21h-2.01zM43.5 13V4.84h1.93v8.34h-1.54zm.959-11.6c.322 0 .585.113.806.329.212.225.322.494.322.806 0 .312-.11.572-.322.798a1.101 1.101 0 0 1-.806.329 1.05 1.05 0 0 1-.797-.329 1.071 1.071 0 0 1-.322-.798c0-.312.102-.581.322-.806.212-.217.484-.329.797-.329zM72.4 11c0 .104.136.234.424.382.28.156.645.26 1.09.329 1.09.182 1.87.477 2.35.893.484.416.729 1.02.729 1.81 0 .78-.365 1.4-1.08 1.84-.713.442-1.65.668-2.83.668-1.11 0-1.99-.243-2.66-.72-.662-.477-1-1.13-1-1.95 0-.572.187-1.06.543-1.47.356-.416.772-.642 1.25-.694-.399-.199-.602-.503-.602-.902 0-.442.271-.815.797-1.1.127-.07.221-.087.28-.035-.204-.008-.433-.13-.687-.364-.568-.538-.857-1.23-.857-2.08 0-.84.288-1.54.865-2.08.568-.546 1.31-.815 2.2-.815.229 0 .441.018.645.052h3.15v1.59h-1.09c.238.26.356.737.365 1.43 0 .728-.288 1.37-.874 1.92-.5.468-1.14.737-1.91.79l-.509.034a.941.941 0 0 0-.382.147c-.136.087-.195.191-.195.321zm.797-4.73c-.373 0-.679.13-.925.373-.238.243-.356.572-.356.962 0 .399.119.72.356.962.238.243.551.364.925.364.382 0 .696-.121.933-.364.238-.243.365-.564.365-.962 0-.39-.127-.711-.365-.962a1.27 1.27 0 0 0-.933-.373zm-2.01 7.99c0 .312.17.572.509.78.339.208.806.312 1.4.312.645 0 1.15-.087 1.51-.26.365-.182.543-.399.543-.659 0-.269-.119-.512-.373-.702-.246-.191-.611-.329-1.1-.408l-.212-.035a4.661 4.661 0 0 0-.577-.06 2.086 2.086 0 0 0-.424.008c-.356.061-.636.156-.857.295-.28.173-.416.416-.416.728zM62 13.1v-1.73l3.07-3.6c.5-.59.874-1.01 1.12-1.26a23.2 23.2 0 0 1-1 .035l-2.89.008v-1.83h6.78v1.57l-3.14 3.69-1.1 1.22c.602-.034.975-.052 1.12-.052h3.36v1.94z"/><path transform="matrix(.239 0 0 .245 26.5 -36.7)" d="M218 204v-34.2h9.07V204z" clip-path="url(#a)"/><path transform="matrix(.239 0 0 .245 26.8 -35)" d="M261 197h-9.07v-17.5c0-3.69-.177-6.06-.567-7.16-.39-1.1-1.03-1.91-1.88-2.52-.886-.602-1.91-.921-3.15-.921-1.56 0-2.98.425-4.22 1.31-1.24.85-2.09 1.98-2.55 3.4-.461 1.42-.709 4.04-.709 7.87v15.5h-9.07v-34.2h8.43v5c2.98-3.86 6.73-5.78 11.3-5.78 2.02 0 3.83.354 5.49 1.06 1.63.709 2.91 1.63 3.76 2.76.85 1.1 1.42 2.37 1.77 3.79.319 1.42.496 3.47.496 6.09z" clip-path="url(#b)"/></g><g transform="matrix(.26 0 0 .245 -59.1 -8.99)" clip-path="url(#c)" fill-rule="nonzero"><path transform="matrix(-1 0 0 1 671 .58)" d="m322 90.7-14.7-34.6h8.36l7.9 20.1 8.15-20.6h5.03l8.08 20.4 7.97-19.9h8.36l-14.8 34.6h-3.08l-9.11-22-9.07 22h-1.52z" clip-path="url(#d)"/><path transform="translate(-18.8 .446)" d="m322 90.7-14.7-34.6h8.36l7.9 20.1 8.15-20.6h5.03l8.08 20.4 7.97-19.9h8.36l-14.8 34.6h-3.08l-9.11-22-9.07 22h-1.52z" clip-path="url(#e)"/></g><path d="M80.718 2.577c0 .663-.495 1.2-1.11 1.2s-1.11-.535-1.11-1.2.495-1.2 1.11-1.2 1.11.535 1.11 1.2z" fill-rule="nonzero"/></g></svg>