<svg xmlns="http://www.w3.org/2000/svg" width="120" height="11" fill="none"><path fill="#000" d="M3.93 6.599V1.764c0-.39.229-.71.641-.71h.71c.63 0 .71.183.905 1.065.126 0 .252.012.39-.057a11.703 11.703 0 0 1-.15-1.764c-.114.011-.228.011-.343.046 0 .068-.011.263-.252.263H.848c-.24 0-.24-.195-.24-.263C.515.32.423.286.251.298A12.575 12.575 0 0 1 0 2.062c.103.057.24.069.39.057.229-.916.378-1.065 1.008-1.065h.905c.424 0 .653.32.653.676v4.869c0 .95-.195 1.008-1.112 1.042-.068.069-.068.31 0 .378.562-.011.974-.023 1.604-.023.619 0 1.02.012 1.593.023.068-.068.068-.309 0-.378-.917-.034-1.112-.091-1.112-1.042Zm3.19-1.833c.218-1.295 1.02-1.398 1.295-1.398.436 0 .951.24.951 1.203 0 .103-.046.16-.172.16l-2.073.035Zm3.002 2.165c-.424.435-.756.619-1.42.619-.413 0-.894-.241-1.25-.825-.228-.378-.366-.905-.366-1.57l3.048.023c.137 0 .217-.069.217-.195 0-.962-.343-1.993-1.936-1.993-.996 0-2.291.95-2.291 2.692 0 .642.16 1.26.538 1.696.39.458.928.733 1.753.733.87 0 1.49-.401 1.948-.997-.035-.114-.103-.172-.24-.183Zm5.094-2.772c.355-.367.813-.665 1.157-.665.733 0 1.363.825 1.363 2.12 0 .939-.332 2.107-1.615 2.107-.207 0-.607-.057-.814-.24-.24-.206-.275-.264-.275-.687V4.663c0-.24.035-.344.184-.504Zm-.092-.378c-.046.045-.115.057-.115-.035 0-.412.046-.733.046-.733 0-.046-.057-.08-.149-.08-.32.126-.756.229-1.546.332-.023.069 0 .252.023.32.618.058.744.127.744.78v4.892c0 .95-.126 1.008-.825 1.042-.068.069-.068.31 0 .378.482-.011.78-.023 1.284-.023.538 0 .893.012 1.386.023.068-.069.068-.31 0-.378-.814-.046-.94-.091-.94-1.042V8.019c0-.149.035-.126.16-.08.276.115.63.172.997.172.642 0 1.215-.195 1.684-.642.539-.527.848-1.237.848-2.165 0-1.214-.859-2.337-2.027-2.337-.424 0-1.054.287-1.57.814Zm6.286 4.33c.447 0 .916-.23 1.478-.687.046-.046.137-.07.137.011 0 .275.126.676.126.676.08.034.126.034.218 0 .252-.206.687-.378 1.386-.458.069-.069.069-.24 0-.31-.733-.057-.836-.275-.836-.836v-2.2c0-.343.046-1.168.046-1.168 0-.046-.035-.08-.092-.08a2.86 2.86 0 0 1-.4.023c-.367 0-.746-.012-1.17-.023-.068.069-.068.31 0 .378.562.034.71.172.71.928v2.21c0 .219-.022.31-.183.448-.423.366-.79.55-1.076.55-.344 0-.917-.16-.917-1.18V4.308c0-.344.046-1.169.046-1.169 0-.046-.034-.08-.092-.08a2.86 2.86 0 0 1-.4.023c-.367 0-.745-.012-1.17-.023-.068.069-.068.31 0 .378.55.046.711.172.711.916v2.2c0 .79.344 1.558 1.478 1.558Zm3.787-5.03c-.16 0-.206.138-.206.23v.149c0 .057.011.069.057.069h.676v3.448c0 .813.355 1.134.882 1.134s1.1-.252 1.547-.756c-.023-.115-.092-.183-.207-.195a1.55 1.55 0 0 1-.94.32c-.308 0-.377-.343-.377-1.053V3.529h1.191c.115 0 .275-.046.275-.15V3.15c0-.045-.034-.068-.091-.068h-1.375v-.447c0-.745.046-1.203.046-1.203 0-.08-.046-.115-.15-.115l-.664.31c-.068.034-.172.057-.16.137.023.264.023.367.023 1.318h-.527Zm6.25 2.246v1.524c0 .149-.069.229-.16.298-.298.24-.688.492-1.008.492-.573 0-.825-.458-.825-.813 0-.516.24-1.031 1.088-1.26l.905-.24Zm0 2.12c.069.24.264.664.882.664.562 0 .974-.458.974-.516 0-.08-.103-.194-.149-.194-.069 0-.115.183-.355.183-.447 0-.458-.447-.458-.974V4.903c0-1.627-.894-1.936-1.73-1.936-.94 0-1.89.653-1.89 1.272 0 .275.137.4.4.4.333 0 .505-.228.505-.377 0-.08-.012-.16-.035-.207a.794.794 0 0 1-.023-.229c0-.355.516-.48.951-.48.39 0 .928.194.928 1.489 0 .08-.034.126-.069.137l-.985.24c-1.1.276-1.89.883-1.89 1.662 0 .905.641 1.237 1.443 1.237.527 0 .745-.092 1.249-.481l.23-.183h.022Zm6.27-3.288c.356-.367.814-.665 1.158-.665.733 0 1.363.825 1.363 2.12 0 .939-.332 2.107-1.615 2.107-.206 0-.607-.057-.814-.24-.24-.206-.274-.264-.274-.687V4.663c0-.24.034-.344.183-.504Zm-.09-.378c-.047.045-.116.057-.116-.035 0-.412.046-.733.046-.733 0-.046-.057-.08-.149-.08-.32.126-.756.229-1.546.332-.023.069 0 .252.023.32.618.058.744.127.744.78v4.892c0 .95-.126 1.008-.824 1.042-.07.069-.07.31 0 .378.48-.011.779-.023 1.283-.023.538 0 .893.012 1.386.023.069-.069.069-.31 0-.378-.813-.046-.94-.091-.94-1.042V8.019c0-.149.035-.126.16-.08.276.115.63.172.997.172.642 0 1.215-.195 1.685-.642.538-.527.847-1.237.847-2.165 0-1.214-.859-2.337-2.027-2.337-.424 0-1.054.287-1.57.814Zm7.223 1.546v1.524c0 .149-.069.229-.16.298-.298.24-.688.492-1.009.492-.572 0-.825-.458-.825-.813 0-.516.241-1.031 1.089-1.26l.905-.24Zm0 2.12c.069.24.263.664.882.664.561 0 .974-.458.974-.516 0-.08-.103-.194-.15-.194-.068 0-.114.183-.354.183-.447 0-.459-.447-.459-.974V4.903c0-1.627-.893-1.936-1.73-1.936-.939 0-1.89.653-1.89 1.272 0 .275.138.4.401.4.332 0 .504-.228.504-.377 0-.08-.011-.16-.034-.207a.79.79 0 0 1-.023-.229c0-.355.516-.48.95-.48.39 0 .929.194.929 1.489 0 .08-.035.126-.069.137l-.985.24c-1.1.276-1.89.883-1.89 1.662 0 .905.641 1.237 1.443 1.237.527 0 .745-.092 1.249-.481l.229-.183h.023Zm2.786-3.082v2.234c0 .95-.138.996-.848 1.042-.069.069-.069.31 0 .378.481-.011.848-.023 1.306-.023.47 0 .894.012 1.386.023.07-.068.07-.309 0-.378-.801-.057-.939-.091-.939-1.042V5.006c0-.298.138-.561.275-.767.126-.184.39-.562.527-.562.08 0 .172.012.24.08.115.115.23.333.47.333.275 0 .539-.287.539-.573 0-.218-.206-.55-.688-.55-.538 0-1.008.504-1.271.951-.069.126-.103.069-.103.011 0-.366.057-.916.057-.916 0-.046-.057-.08-.15-.08-.32.126-.778.229-1.569.332-.023.069-.023.252.023.32.619.058.745.15.745.78Zm6.224.962v1.524c0 .149-.069.229-.16.298-.299.24-.688.492-1.009.492-.573 0-.825-.458-.825-.813 0-.516.24-1.031 1.089-1.26l.905-.24Zm0 2.12c.068.24.263.664.882.664.561 0 .974-.458.974-.516 0-.08-.104-.194-.15-.194-.068 0-.114.183-.355.183-.446 0-.458-.447-.458-.974V4.903c0-1.627-.893-1.936-1.73-1.936-.939 0-1.89.653-1.89 1.272 0 .275.138.4.401.4.332 0 .504-.228.504-.377 0-.08-.011-.16-.034-.207a.79.79 0 0 1-.023-.229c0-.355.515-.48.95-.48.39 0 .929.194.929 1.489 0 .08-.035.126-.069.137l-.985.24c-1.1.276-1.89.883-1.89 1.662 0 .905.641 1.237 1.443 1.237.527 0 .745-.092 1.249-.481l.229-.183h.023Zm4.126.664c.447 0 .917-.23 1.478-.687.046-.046.138-.07.138.011 0 .275.126.676.126.676.08.034.126.034.217 0 .252-.206.688-.378 1.386-.458.07-.069.07-.24 0-.31-.733-.057-.836-.275-.836-.836v-2.2c0-.343.046-1.168.046-1.168 0-.046-.034-.08-.092-.08a2.86 2.86 0 0 1-.4.023c-.367 0-.745-.012-1.17-.023-.068.069-.068.31 0 .378.562.034.711.172.711.928v2.21c0 .219-.023.31-.183.448-.424.366-.79.55-1.077.55-.344 0-.917-.16-.917-1.18V4.308c0-.344.046-1.169.046-1.169 0-.046-.034-.08-.091-.08-.058.011-.23.023-.401.023-.367 0-.745-.012-1.169-.023-.069.069-.069.31 0 .378.55.046.71.172.71.916v2.2c0 .79.344 1.558 1.478 1.558Zm7.925-3.952c.355-.367.813-.665 1.157-.665.733 0 1.363.825 1.363 2.12 0 .939-.332 2.107-1.615 2.107-.207 0-.607-.057-.814-.24-.24-.206-.275-.264-.275-.687V4.663c0-.24.035-.344.184-.504Zm-.092-.378c-.046.045-.115.057-.115-.035 0-.412.046-.733.046-.733 0-.046-.057-.08-.149-.08-.32.126-.756.229-1.546.332-.023.069 0 .252.023.32.618.058.744.127.744.78v4.892c0 .95-.126 1.008-.825 1.042-.068.069-.068.31 0 .378.482-.011.78-.023 1.284-.023.538 0 .893.012 1.386.023.069-.069.069-.31 0-.378-.814-.046-.94-.091-.94-1.042V8.019c0-.149.035-.126.16-.08.276.115.63.172.998.172.641 0 1.214-.195 1.683-.642.539-.527.848-1.237.848-2.165 0-1.214-.859-2.337-2.027-2.337-.424 0-1.054.287-1.57.814Zm7.224 1.546v1.524c0 .149-.069.229-.16.298-.298.24-.688.492-1.009.492-.572 0-.825-.458-.825-.813 0-.516.241-1.031 1.089-1.26l.905-.24Zm0 2.12c.069.24.263.664.882.664.561 0 .974-.458.974-.516 0-.08-.103-.194-.15-.194-.068 0-.114.183-.354.183-.447 0-.459-.447-.459-.974V4.903c0-1.627-.893-1.936-1.73-1.936-.939 0-1.89.653-1.89 1.272 0 .275.138.4.401.4.332 0 .504-.228.504-.377 0-.08-.011-.16-.034-.207a.794.794 0 0 1-.023-.229c0-.355.516-.48.95-.48.39 0 .929.194.929 1.489 0 .08-.035.126-.069.137l-.985.24c-1.1.276-1.89.883-1.89 1.662 0 .905.641 1.237 1.443 1.237.527 0 .745-.092 1.249-.481l.229-.183h.023ZM76.16 0c-.355 0-.607.24-.607.561 0 .367.298.47.504.504.218.023.412.092.412.356 0 .24-.412.767-1.008.916 0 .115.023.195.103.275.688-.126 1.352-.676 1.352-1.478C76.917.447 76.62 0 76.161 0Zm4.706 5.327v1.524c0 .149-.069.229-.16.298-.298.24-.688.492-1.009.492-.573 0-.825-.458-.825-.813 0-.516.241-1.031 1.089-1.26l.905-.24Zm0 2.12c.069.24.263.664.882.664.561 0 .974-.458.974-.516 0-.08-.103-.194-.15-.194-.068 0-.114.183-.354.183-.447 0-.459-.447-.459-.974V4.903c0-1.627-.893-1.936-1.73-1.936-.939 0-1.89.653-1.89 1.272 0 .275.138.4.401.4.332 0 .504-.228.504-.377 0-.08-.011-.16-.034-.207a.789.789 0 0 1-.023-.229c0-.355.516-.48.95-.48.39 0 .929.194.929 1.489 0 .08-.035.126-.069.137l-.985.24c-1.1.276-1.89.883-1.89 1.662 0 .905.641 1.237 1.443 1.237.527 0 .745-.092 1.249-.481l.229-.183h.023Zm2.786-3.082v2.234c0 .95-.138.996-.848 1.042-.069.069-.069.31 0 .378.481-.011.848-.023 1.306-.023.47 0 .894.012 1.386.023.07-.068.07-.309 0-.378-.802-.057-.94-.091-.94-1.042V5.006c0-.298.138-.561.276-.767.126-.184.39-.562.527-.562.08 0 .172.012.24.08.115.115.23.333.47.333.275 0 .539-.287.539-.573 0-.218-.207-.55-.688-.55-.538 0-1.008.504-1.271.951-.07.126-.104.069-.104.011 0-.366.058-.916.058-.916 0-.046-.058-.08-.15-.08-.32.126-.778.229-1.569.332-.023.069-.023.252.023.32.619.058.745.15.745.78Zm3.898-3.23c0 .297.275.595.55.595.32 0 .596-.298.596-.55 0-.275-.241-.596-.55-.596-.275 0-.596.275-.596.55Zm1.043 5.464v-2.28c0-.573.045-1.306.045-1.306 0-.046-.057-.08-.149-.08-.332.126-.779.229-1.57.332-.022.069 0 .252.024.32.618.07.744.127.744.78v2.234c0 .95-.126.985-.824 1.042-.07.069-.07.31 0 .378.48-.011.779-.023 1.283-.023.492 0 .779.012 1.271.023.07-.068.07-.309 0-.378-.699-.046-.825-.091-.825-1.042Zm3.915-3.517c-.16 0-.206.137-.206.229v.149c0 .057.012.069.058.069h.675v3.448c0 .813.355 1.134.882 1.134s1.1-.252 1.547-.756c-.023-.115-.092-.183-.206-.195-.298.23-.642.32-.94.32-.309 0-.378-.343-.378-1.053V3.529h1.192c.114 0 .275-.046.275-.15V3.15c0-.045-.034-.068-.092-.068h-1.375v-.447c0-.745.046-1.203.046-1.203 0-.08-.046-.115-.149-.115l-.664.31c-.069.034-.172.057-.16.137.022.264.022.367.022 1.318h-.527Zm3.925-1.948c0 .298.275.596.55.596.32 0 .596-.298.596-.55 0-.275-.241-.596-.55-.596-.275 0-.596.275-.596.55ZM97.477 6.6v-2.28c0-.573.045-1.306.045-1.306 0-.046-.057-.08-.149-.08-.332.126-.779.229-1.57.332-.022.069 0 .252.024.32.618.07.745.127.745.78v2.234c0 .95-.127.985-.825 1.042-.07.069-.07.31 0 .378.48-.011.779-.023 1.283-.023.492 0 .779.012 1.271.023.07-.068.07-.309 0-.378-.698-.046-.825-.091-.825-1.042ZM99.752 0c-.355 0-.607.24-.607.561 0 .367.298.47.504.504.218.023.413.092.413.356 0 .24-.413.767-1.009.916 0 .115.023.195.103.275.688-.126 1.352-.676 1.352-1.478 0-.687-.297-1.134-.756-1.134Zm4.706 5.327v1.524c0 .149-.069.229-.161.298-.297.24-.687.492-1.008.492-.572 0-.825-.458-.825-.813 0-.516.241-1.031 1.089-1.26l.905-.24Zm0 2.12c.069.24.263.664.882.664.561 0 .974-.458.974-.516 0-.08-.103-.194-.149-.194-.069 0-.115.183-.355.183-.447 0-.459-.447-.459-.974V4.903c0-1.627-.893-1.936-1.729-1.936-.94 0-1.891.653-1.891 1.272 0 .275.138.4.401.4.332 0 .504-.228.504-.377 0-.08-.011-.16-.034-.207a.77.77 0 0 1-.023-.229c0-.355.516-.48.951-.48.389 0 .928.194.928 1.489 0 .08-.035.126-.069.137l-.985.24c-1.1.276-1.89.883-1.89 1.662 0 .905.641 1.237 1.443 1.237.527 0 .745-.092 1.249-.481l.229-.183h.023Zm3.817-3.208c.447-.436.813-.676 1.169-.676.435 0 .756.275.756 1.042V6.6c0 .94-.092.996-.711 1.042-.057.069-.057.31 0 .378.482-.011.711-.023 1.169-.023.47 0 .63.012 1.123.023.057-.068.057-.309 0-.378-.573-.046-.676-.103-.676-1.042V4.777c0-.16 0-.32-.012-.458.55-.607.997-.756 1.444-.756.435 0 .71.252.71 1.02v2.016c0 .94-.115.996-.71 1.042-.058.069-.058.31 0 .378.481-.011.71-.023 1.168-.023.47 0 .688.012 1.18.023.058-.068.058-.309 0-.378-.63-.046-.733-.103-.733-1.042v-1.81c0-1.02-.195-1.822-1.203-1.822-.596 0-1.226.218-1.821.848-.035.034-.103.092-.126 0-.115-.47-.55-.848-1.146-.848-.664 0-1.169.401-1.673.928-.045.046-.114.16-.114 0 0-.344.057-.87.057-.87 0-.058-.046-.092-.137-.092-.333.126-.791.229-1.581.332-.023.069 0 .252.023.32.618.07.744.115.744.78v2.234c0 .94-.149.996-.779 1.042-.069.069-.069.31 0 .378.47-.011.745-.023 1.237-.023.447 0 .642.012 1.123.023.069-.068.069-.309 0-.378-.573-.057-.676-.103-.676-1.042v-1.88c0-.24.103-.377.195-.48Zm10.201-2.177c.149 0 .275-.24.275-.378 0-.069-.046-.195-.16-.195h-2.578c-.126 0-.252.23-.252.367 0 .08.046.206.149.206h2.566Zm-.332 3.265v1.524c0 .149-.069.229-.16.298-.298.24-.688.492-1.008.492-.573 0-.825-.458-.825-.813 0-.516.24-1.031 1.088-1.26l.905-.24Zm0 2.12c.069.24.264.664.882.664.562 0 .974-.458.974-.516 0-.08-.103-.194-.149-.194-.069 0-.114.183-.355.183-.447 0-.458-.447-.458-.974V4.903c0-1.627-.894-1.936-1.73-1.936-.94 0-1.89.653-1.89 1.272 0 .275.137.4.4.4.333 0 .505-.228.505-.377 0-.08-.012-.16-.035-.207a.808.808 0 0 1-.023-.229c0-.355.516-.48.951-.48.39 0 .928.194.928 1.489 0 .08-.034.126-.069.137l-.985.24c-1.1.276-1.89.883-1.89 1.662 0 .905.641 1.237 1.443 1.237.527 0 .745-.092 1.249-.481l.229-.183h.023Z"/></svg>