<?xml version="1.0" encoding="UTF-8"?>
<svg width="120px" height="13px" viewBox="0 0 120 13" version="1.1" xmlns="http://www.w3.org/2000/svg" xmlns:xlink="http://www.w3.org/1999/xlink">
    <title>hr-tagline</title>
    <g id="Page-1" stroke="none" stroke-width="1" fill="none" fill-rule="evenodd">
        <path d="M4.70010313,0.897149378 C4.72176351,1.06183995 4.74343413,1.25903646 4.76511499,1.48871842 C4.79110745,1.71408878 4.81494923,1.91128529 4.83661985,2.0802977 C4.85828023,2.24499852 4.88645409,2.42268532 4.92113118,2.61336835 L4.51157897,2.69140717 C4.45089918,2.48771767 4.3923926,2.3165341 4.33605615,2.17784622 C4.28404052,2.03483651 4.20820256,1.88314216 4.10852692,1.72278366 C4.00884821,1.55810332 3.896162,1.42808984 3.77048367,1.33273296 C3.64913126,1.23308497 3.49094392,1.15071408 3.29592267,1.08570222 C3.10089424,1.02066987 2.8798662,0.988204904 2.6328375,0.988204904 C2.20377969,0.988204904 1.85273508,1.13339602 1.57970267,1.42375776 C1.30666615,1.70979767 1.17014841,2.06084945 1.17015046,2.4768926 C1.17014841,3.25266192 1.7725589,3.85723743 2.97738194,4.29061913 C3.23307786,4.38166441 3.45844003,4.47264825 3.65346846,4.56366281 C3.85282383,4.65030433 4.06084951,4.76952347 4.27754855,4.92120758 C4.4985725,5.06855961 4.68059548,5.22674695 4.82361953,5.3957696 C4.96663231,5.56479225 5.08581356,5.77498499 5.18116532,6.02634781 C5.27650171,6.27771063 5.32418322,6.55075431 5.32418322,6.84544813 C5.32418322,7.53454521 5.05330968,8.13694956 4.51157897,8.65268167 C3.96983802,9.16841378 3.32192229,9.42627983 2.56782974,9.42627983 C2.16477564,9.42627983 1.73788796,9.39381486 1.28716567,9.32878252 C0.836439379,9.26375017 0.491895449,9.2312852 0.253532544,9.2312852 C0.231861923,8.76322641 0.147351621,8.05246896 0,7.09901283 L0.409552516,7.05999342 C0.67391863,8.32114984 1.42801446,8.95172805 2.67184257,8.95172805 C3.18323851,8.95172805 3.57545524,8.81305041 3.84849381,8.53567465 C4.12152417,8.25830913 4.25804192,7.85093013 4.25804601,7.31351716 C4.25804192,7.03181957 4.22120801,6.78695998 4.14753199,6.57892817 C4.07385598,6.36657451 3.96333786,6.18887747 3.81598992,6.04585751 C3.66863379,5.89850548 3.51694764,5.78149847 3.36093146,5.69481598 C3.2049081,5.6037707 3.01204982,5.5127971 2.7823566,5.42178254 C2.49631771,5.31343968 2.251453,5.2115898 2.04776248,5.11624317 C1.84406786,5.02089653 1.62087275,4.89738628 1.37817715,4.74569193 C1.13981159,4.58967575 0.944786545,4.42715633 0.793101721,4.25813368 C0.645748461,4.08911103 0.52006572,3.88325037 0.416053395,3.6405517 C0.316372635,3.39352096 0.266533483,3.12699075 0.2665342,2.84095084 C0.266533483,2.3902306 0.394383082,1.98501251 0.650083405,1.62529659 C0.905781577,1.2655909 1.21998776,0.99471838 1.59270401,0.812689259 C1.96975029,0.626338303 2.3576329,0.533152584 2.7563539,0.533152584 C3.12039678,0.533152584 3.40643362,0.55486417 3.61446339,0.59818493 C3.82248599,0.64150569 4.01101015,0.695682242 4.1800369,0.760704347 C4.34905341,0.825736693 4.52240916,0.871228612 4.70010313,0.897221067 M7.02900259,8.3405981 L7.02900259,1.80076103 C7.02900054,1.38904995 6.99649666,1.11384535 6.93149504,0.97515747 C6.87081525,0.832147756 6.76897255,0.760642899 6.62595567,0.760632658 L6.20340109,0.73461972 C6.14706361,0.734629961 6.11888976,0.712908133 6.11888976,0.669587373 L6.09288706,0.351041532 C6.37025565,0.329329946 6.6974636,0.28385851 7.07451295,0.214524812 C7.45156025,0.140889761 7.72459471,0.0693541808 7.89361839,-1.77635684e-15 C8.00629743,-1.77635684e-15 8.06263797,0.0454714357 8.06264002,0.13651672 C8.03663732,0.491910811 8.02363085,0.957798442 8.02363085,1.5342001 L8.02363085,8.34056737 C8.0236288,8.53559272 8.06262977,8.6742806 8.14064606,8.75662077 C8.21865415,8.83896093 8.36600516,8.89097657 8.58270215,8.91264719 L8.9012439,8.93866013 C8.97491991,8.93866013 9.01175792,8.97337818 9.01175792,9.04267092 L9.01175792,9.2962049 L8.98575522,9.32223832 C8.09296967,9.30488953 7.59890716,9.29622538 7.50356257,9.29622538 C7.4212224,9.29622538 6.93798906,9.30441843 6.05387687,9.32223832 L6.04087552,9.29622538 L6.04087552,9.0426914 C6.04087552,8.9733577 6.0712103,8.93868061 6.13189008,8.93868061 L6.4504308,8.91266767 C6.67145885,8.89095609 6.82314398,8.83903262 6.90548927,8.75664125 C6.98782944,8.67430108 7.02900362,8.5356132 7.02900567,8.34058785 M9.59843161,6.56587049 C9.59843161,5.63409523 9.84112926,4.88216769 10.3265256,4.31008787 C10.8119198,3.73801829 11.4880053,3.45197838 12.3547861,3.45197838 C12.7361645,3.45197838 13.082875,3.51260696 13.3949196,3.63399726 C13.7069551,3.75101452 13.9648211,3.90920186 14.1685188,4.10855928 C14.3765404,4.30358463 14.5498951,4.53328707 14.688585,4.79764612 C14.8315978,5.05768333 14.9334446,5.3263847 14.9941244,5.60375021 C15.054794,5.88112597 15.085139,6.16282356 15.085139,6.44886347 C15.085139,6.79557293 15.0266303,7.14012147 14.9096172,7.48248861 C14.7969299,7.82053391 14.6322424,8.13690859 14.4155536,8.43161266 C14.2031877,8.72631672 13.9149838,8.96685447 13.5509419,9.15320542 C13.1868919,9.33523454 12.7795067,9.42623886 12.3287855,9.42623886 C11.8997277,9.42623886 11.5075109,9.34174802 11.1521342,9.17270489 C10.7967535,9.00369248 10.5085506,8.78049327 10.2875236,8.50312775 C10.0664945,8.225752 9.89530581,7.92021262 9.7739575,7.58650964 C9.65694229,7.25279641 9.59843161,6.91259019 9.59843161,6.56587049 M12.2052701,3.89403447 C11.8672238,3.89403447 11.583354,4.01538381 11.3536608,4.25808247 C11.1239624,4.49644906 10.961442,4.78682105 10.8660974,5.12918819 C10.7750828,5.47157581 10.7295807,5.84862004 10.7295807,6.26033112 C10.7295807,6.47703733 10.7490801,6.70455837 10.7880893,6.94292496 C10.8314306,7.17695948 10.9007694,7.41748698 10.996116,7.66451773 C11.0914626,7.91154847 11.2063077,8.13257652 11.3406605,8.32760187 C11.4750091,8.52262722 11.6461978,8.68298572 11.8542265,8.80866713 C12.0665843,8.93001646 12.2984476,8.99068601 12.5498156,8.99068601 C12.7188341,8.99068601 12.8770204,8.96252239 13.0243766,8.90619516 C13.1760586,8.84556658 13.3234107,8.74367575 13.4664337,8.60065579 C13.6137816,8.45330376 13.7307958,8.23227571 13.8174783,7.93757165 C13.9041505,7.64286759 13.9474949,7.28749398 13.9474949,6.87143035 C13.9474949,5.90497799 13.7958046,5.16821784 13.4924364,4.66114988 C13.189061,4.14976009 12.7600063,3.89403447 12.2052722,3.89403447 M17.4985457,8.35360456 C17.658897,8.55296199 17.8105831,8.70681725 17.9536041,8.81516012 C18.1009531,8.92351323 18.2699747,8.97767954 18.460669,8.97767954 C19.0674095,8.97767954 19.5289692,8.73281995 19.8453469,8.24309054 C20.1660496,7.75336113 20.3264081,7.10977645 20.3264081,6.31234675 C20.3264081,5.67093324 20.1833851,5.13135935 19.8973534,4.69363533 C19.6113124,4.25592156 19.2646019,4.03705443 18.8572199,4.03705443 C18.7662053,4.03705443 18.6643585,4.04524748 18.5516805,4.06306737 C18.4389963,4.07607383 18.2743088,4.12809971 18.057617,4.21908355 C17.84092,4.31012883 17.6545629,4.43577952 17.4985457,4.59612778 L17.4985457,8.35361481 M16.5039174,1.80077127 C16.5039164,1.38906019 16.4714115,1.11385559 16.4064098,0.975167711 C16.3457301,0.832157997 16.2438874,0.760653141 16.1008705,0.760642899 L15.6783159,0.734629961 C15.6219784,0.734640202 15.5938046,0.712918374 15.5938046,0.669597615 L15.5678019,0.351051773 C15.8408363,0.329340187 16.1680453,0.281718075 16.5494278,0.20804206 C16.9351423,0.13440701 17.2081778,0.0650323461 17.3685332,1.0241315e-05 C17.4812122,1.0241315e-05 17.5375528,0.045481677 17.5375548,0.136526962 C17.5115521,0.491921052 17.4985457,0.957808683 17.4985457,1.53421034 L17.4985457,4.18654689 C17.9492679,3.69682772 18.4910028,3.4519579 19.1237542,3.4519579 C19.414121,3.4519579 19.6979898,3.51483957 19.9753635,3.64048001 C20.252728,3.76182935 20.5019258,3.93302316 20.722959,4.15404096 C20.9439819,4.37074717 21.1216718,4.64811269 21.2560276,4.98614775 C21.3903721,5.31986098 21.4575541,5.68174806 21.4575541,6.07178852 C21.4575541,6.57885648 21.3687005,7.04908643 21.1910198,7.48246812 C21.0176579,7.91586007 20.7901297,8.27124391 20.5084321,8.54860943 C20.2267243,8.82597495 19.9146847,9.04267092 19.5723114,9.19869734 C19.229931,9.35038145 18.8853866,9.42621838 18.5386791,9.42621838 C17.9926061,9.42621838 17.5310475,9.26369896 17.1540012,8.93866013 C17.0109813,9.14668171 16.8657963,9.32003643 16.7184453,9.45872431 C16.5970949,9.45872431 16.5039164,9.43486205 16.4389096,9.38723994 C16.4822509,9.14454127 16.5039215,8.79999273 16.5039215,8.35360456 L16.5039215,1.80076103 M22.3952744,6.56587049 C22.3952744,5.63409523 22.6379721,4.88216769 23.1233684,4.31008787 C23.6087616,3.73801829 24.2848481,3.45197838 25.1516279,3.45197838 C25.5330073,3.45197838 25.8797178,3.51260696 26.1917614,3.63399726 C26.5037969,3.75101452 26.7616629,3.90920186 26.9653606,4.10855928 C27.1733822,4.30358463 27.3467379,4.53328707 27.4854279,4.79764612 C27.6284407,5.05768333 27.7302864,5.3263847 27.7909672,5.60375021 C27.8516368,5.88112597 27.8819818,6.16282356 27.8819818,6.44886347 C27.8819818,6.79557293 27.8234629,7.14012147 27.706459,7.48248861 C27.5937728,7.82053391 27.4290853,8.13690859 27.2123954,8.43161266 C27.0000305,8.72631672 26.7118266,8.96685447 26.3477848,9.15320542 C25.9837337,9.33523454 25.5763486,9.42623886 25.1256283,9.42623886 C24.6965705,9.42623886 24.3043538,9.34174802 23.9489771,9.17270489 C23.5935963,9.00369248 23.3053934,8.78049327 23.0843664,8.50312775 C22.8633363,8.225752 22.6921486,7.92021262 22.5708003,7.58650964 C22.4537841,7.25279641 22.3952744,6.91259019 22.3952744,6.56587049 M25.0021119,3.89403447 C24.6640656,3.89403447 24.3801968,4.01538381 24.1505026,4.25808247 C23.9208042,4.49644906 23.7582838,4.78682105 23.6629402,5.12918819 C23.5719257,5.47157581 23.5264225,5.84862004 23.5264225,6.26033112 C23.5264225,6.47703733 23.545922,6.70455837 23.5849311,6.94292496 C23.6282724,7.17695948 23.6976102,7.41748698 23.7929578,7.66451773 C23.8883045,7.91154847 24.0031495,8.13257652 24.1375023,8.32760187 C24.2718509,8.52262722 24.4430386,8.68298572 24.6510683,8.80866713 C24.8634261,8.93001646 25.0952884,8.99068601 25.3466574,8.99068601 C25.5156759,8.99068601 25.6738623,8.96252239 25.8212184,8.90619516 C25.9729004,8.84556658 26.1202525,8.74367575 26.2632755,8.60065579 C26.4106224,8.45330376 26.5276376,8.23227571 26.6143201,7.93757165 C26.7009923,7.64286759 26.7443367,7.28749398 26.7443367,6.87143035 C26.7443367,5.90497799 26.5926464,5.16821784 26.2892782,4.66114988 C25.9859018,4.14976009 25.556847,3.89403447 25.0021129,3.89403447 M32.9022229,8.04156196 L32.9022229,4.70013857 C32.7331961,4.43576928 32.5490061,4.24074393 32.3496517,4.11506252 C32.1502892,3.98504903 31.9010904,3.92003717 31.6020553,3.92003717 C31.0689846,3.92003717 30.6550983,4.14106522 30.3603963,4.58312131 C30.1133624,4.93850516 29.9898491,5.52791328 29.9898491,6.35134568 C29.9898491,7.13144708 30.132865,7.73602259 30.4189039,8.16508245 C30.7092717,8.5898 31.0494821,8.80216389 31.4395348,8.80216389 C31.7862422,8.80216389 32.2738046,8.54862991 32.9022229,8.04156196 M33.9033513,1.53423082 L33.9033513,7.74902905 C33.9033452,8.07839997 33.9228508,8.28643178 33.9618599,8.37310403 C34.0008589,8.45974555 34.0918703,8.50962075 34.2348944,8.52262722 L34.878477,8.58765956 L34.9174862,8.89969193 C34.0550364,9.05138628 33.4872979,9.23773723 33.2142675,9.45876528 L32.902228,9.45876528 L32.9347339,8.5226477 L32.902228,8.50964123 C32.1481273,9.12071997 31.5457168,9.42625935 31.0949955,9.42625935 C30.3929032,9.42625935 29.8446672,9.16406122 29.4502844,8.63966496 C29.0558996,8.11525846 28.8587093,7.43267485 28.8587093,6.59189367 C28.8587093,5.62544132 29.1555794,4.84535016 29.7493226,4.25159972 C30.0310243,3.98289836 30.3278954,3.78354093 30.639937,3.6535172 C30.9563086,3.51918188 31.3246887,3.45199886 31.7450793,3.45199886 C31.8924283,3.45199886 32.0852855,3.48016248 32.3236531,3.53648971 C32.5663467,3.59281693 32.759205,3.66217112 32.902228,3.74451128 L32.902228,1.80076103 C32.9022229,1.38904995 32.871883,1.11384535 32.8112134,0.97515747 C32.7505337,0.832147756 32.6486879,0.760642899 32.5056741,0.760632658 L32.0766183,0.73461972 C32.0246129,0.734629961 31.9986,0.712908133 31.9986102,0.669587373 L31.9726075,0.351041532 C32.249972,0.329329946 32.577181,0.28385851 32.9542334,0.214524812 C33.3312766,0.140889761 33.6043111,0.0693541808 33.7733388,-1.77635684e-15 C33.8860138,-1.77635684e-15 33.9423543,0.0454714357 33.9423605,0.13651672 C33.9163475,0.491910811 33.9033513,0.957798442 33.9033513,1.5342001 M37.1553701,3.45197838 L37.1163609,4.6351267 L37.1553701,4.6351267 C37.5497518,4.17141023 37.9137978,3.85936762 38.24751,3.69900912 C38.5855502,3.53432879 38.945262,3.45197838 39.3266485,3.45197838 C39.6170144,3.45197838 39.859712,3.50400426 40.0547425,3.60799456 C40.2540958,3.71201559 40.405782,3.86587086 40.509801,4.06955012 C40.6138087,4.26891778 40.6853176,4.48777467 40.7243278,4.72614126 C40.7676588,4.96017578 40.7893294,5.2375413 40.7893397,5.55824805 L40.7893397,8.3405981 C40.7893335,8.53129137 40.8305098,8.66997925 40.912855,8.75665149 C40.9951952,8.83899166 41.1403781,8.89100729 41.348411,8.91267791 L41.6019439,8.93869085 C41.679952,8.95599867 41.7189591,8.99071673 41.7189591,9.04270164 L41.7189591,9.29623562 L41.6929564,9.32224856 C40.9821887,9.30488953 40.5076277,9.29622538 40.2692693,9.29622538 C40.1002426,9.29622538 39.6603536,9.30441843 38.9496002,9.32224856 L38.9235965,9.29622538 L38.9235965,9.0426914 C38.9235934,8.98636417 38.9604345,8.95164612 39.0341115,8.93868061 L39.2161345,8.91266767 C39.4371585,8.87794962 39.5866776,8.82162239 39.6646918,8.74364502 C39.747032,8.66130485 39.7882031,8.52694905 39.7882082,8.34058785 L39.7882082,5.46072002 C39.7882031,4.96666877 39.7275284,4.615617 39.6061842,4.40758518 C39.4891649,4.19523153 39.2616356,4.08904958 38.9235965,4.08904958 C38.615887,4.08904958 38.325517,4.16493772 38.0524846,4.31658086 C37.7794471,4.46826497 37.4804089,4.73480542 37.1553701,5.11618172 L37.1553701,8.34058785 C37.155368,8.53128113 37.194369,8.66563693 37.2723853,8.74364502 C37.3547254,8.82168384 37.5064126,8.87799058 37.7274437,8.91266767 L37.9159679,8.93868061 C37.9853016,8.95168708 38.0199777,8.98630272 38.0199807,9.0426914 L38.0199807,9.29622538 L37.993978,9.32224856 C37.2832175,9.30488953 36.8303261,9.29622538 36.6353028,9.29622538 C36.422941,9.29622538 35.9613823,9.30441843 35.2506259,9.32224856 L35.2246222,9.29622538 L35.2246222,9.0426914 C35.2246222,8.98636417 35.259289,8.95164612 35.328636,8.93868061 L35.582168,8.91266767 C35.803196,8.89095609 35.9527151,8.83903262 36.0307253,8.75664125 C36.1130654,8.67430108 36.1542406,8.5356132 36.1542416,8.34058785 L36.1542416,5.02516716 C36.1542406,4.70880272 36.1303999,4.49643882 36.0827368,4.38808572 C36.0393956,4.27541078 35.9657206,4.21257007 35.8617077,4.1995636 L35.2896351,4.1410857 L35.2636324,3.82253986 C36.1130736,3.69253661 36.7263184,3.55601989 37.1033688,3.4129897 C37.1380356,3.4129897 37.1553742,3.42599617 37.1553742,3.4520091 M45.6860623,6.1953295 L44.6329275,6.47486617 C43.7748149,6.70890069 43.3457622,7.19645894 43.3457622,7.93755117 C43.3457622,8.17591776 43.4324345,8.39477465 43.6057953,8.59413207 C43.779149,8.78915742 44.0196796,8.88667522 44.3273881,8.88667522 C44.6307573,8.88667522 45.020807,8.69381079 45.4975382,8.3081024 C45.6232175,8.22146089 45.6860623,8.10657382 45.6860623,7.96355387 L45.6860623,6.1953295 M45.6860623,8.65914394 L45.6600596,8.65914394 L45.3935253,8.86716551 C45.0988172,9.09686795 44.8582866,9.2463809 44.6719326,9.31572484 C44.4899065,9.38935989 44.2472089,9.42624911 43.9438386,9.42624911 C43.4411058,9.42624911 43.0402218,9.31139276 42.7411847,9.08170057 C42.4421455,8.85199813 42.2926274,8.48796037 42.2926274,7.98955656 C42.2926274,7.54750047 42.4898178,7.15744977 42.8842026,6.81940447 C43.2829195,6.47703733 43.8094859,6.22350335 44.4639059,6.05881278 L45.6080522,5.7792761 C45.6600576,5.76196828 45.6860603,5.7099424 45.6860603,5.62324968 C45.6860562,5.33288793 45.6622185,5.07935395 45.6145554,4.86265798 C45.5668821,4.64162994 45.5083714,4.46827521 45.4390326,4.3425938 C45.3696887,4.21691239 45.2830092,4.11723368 45.1789995,4.04354742 C45.0793208,3.96550861 44.9839711,3.91354418 44.8929626,3.88753124 C44.8062802,3.8615183 44.7109366,3.84851183 44.6069258,3.84851183 C44.3208869,3.84852207 44.0651879,3.90053771 43.8398278,4.00453825 C43.6144636,4.10855928 43.5017825,4.25807223 43.5017846,4.45309758 C43.5017825,4.57444692 43.5104897,4.6611294 43.5277873,4.71312455 C43.5537899,4.76945178 43.5667862,4.84965151 43.5667964,4.9536623 C43.5667944,5.05767309 43.5126199,5.1573518 43.404276,5.25269844 C43.3002611,5.34804508 43.1594092,5.3957184 42.9817214,5.3957184 C42.674015,5.3957184 42.5201617,5.23970221 42.5201628,4.92764936 C42.5201617,4.69362509 42.6263416,4.46176173 42.8387035,4.23206954 C43.0510623,4.00237734 43.3284309,3.81601614 43.6708103,3.67299618 C44.0131846,3.52564415 44.3598961,3.45196814 44.7109438,3.45196814 C44.9233005,3.45196814 45.1161588,3.46927596 45.2895176,3.50399402 C45.4672034,3.53871207 45.6448933,3.60579268 45.8225862,3.7055226 C46.000271,3.80086924 46.147623,3.9287218 46.2646433,4.08907006 C46.3859875,4.24942856 46.4834992,4.46828545 46.5571803,4.74565097 C46.6351884,5.01869465 46.6741904,5.33723025 46.6741955,5.70127825 L46.6741955,7.68402743 C46.6741904,7.80970884 46.6741904,7.91155871 46.6741955,7.9895668 C46.6784969,8.06320185 46.6850308,8.15208622 46.693695,8.25609701 C46.7066912,8.355745 46.7240298,8.43595497 46.7457004,8.49663476 C46.7673608,8.55296199 46.7955346,8.61148086 46.8302117,8.67215041 C46.8692106,8.73277899 46.9190551,8.77617144 46.9797308,8.80217413 C47.0447324,8.82818707 47.1184095,8.84119354 47.2007589,8.84119354 C47.2960953,8.84119354 47.3741085,8.82388572 47.4347893,8.78916766 C47.4954588,8.75444961 47.540963,8.71983397 47.571306,8.68515687 C47.6016408,8.65043882 47.6254723,8.633131 47.6428211,8.633131 C47.6688135,8.633131 47.6991586,8.65484258 47.7338357,8.69816334 C47.7728346,8.7414841 47.7923443,8.78480486 47.7923443,8.82817683 C47.7923443,8.84548465 47.7750057,8.87579894 47.7403389,8.91922211 C47.7056618,8.96254287 47.6536564,9.01241807 47.5843186,9.06873506 C47.5193067,9.12506229 47.4434616,9.18142024 47.3567894,9.23775771 C47.2701069,9.28978359 47.166093,9.33310435 47.0447488,9.3677712 C46.9277285,9.40679061 46.8085472,9.42624911 46.687203,9.42624911 C46.1627986,9.42624911 45.8290894,9.17055421 45.6860746,8.65915418 M52.5021363,5.47373673 L54.9464503,5.47373673 C55.0721286,5.47373673 55.1349744,5.41310815 55.1349744,5.29170761 C55.1349744,5.02734856 55.1002973,4.79981728 55.0309606,4.60912401 C54.9659487,4.41844097 54.8749372,4.27542102 54.7579261,4.18006414 C54.6452409,4.08041615 54.5282257,4.01105173 54.4068805,3.97204256 C54.2898622,3.9287218 54.1641798,3.90701022 54.0298321,3.90701022 C53.9431497,3.90701022 53.8564743,3.91315501 53.769799,3.92657113 C53.6874486,3.93476418 53.5747716,3.96989189 53.4317558,4.03058192 C53.2887348,4.08690915 53.1608853,4.16709864 53.0482063,4.27110943 C52.9398573,4.37513046 52.8315103,4.53114664 52.7231644,4.73916821 C52.6191495,4.94720003 52.5454735,5.19206986 52.5021363,5.47376745 M56.0125865,8.02859645 C56.1512661,8.04160292 56.2401106,8.1130873 56.2791208,8.24312127 C56.0147484,8.60716927 55.6897075,8.89537009 55.3039961,9.10773399 C54.9182754,9.32008764 54.4935548,9.42626959 54.0298321,9.42626959 C53.1630524,9.42626959 52.5064684,9.16624262 52.0600792,8.64616819 C51.6180221,8.12610401 51.3969951,7.45868779 51.3969951,6.64391955 C51.3969951,6.15852221 51.4750031,5.70996288 51.6310245,5.29824157 C51.7870437,4.88653049 51.9907363,4.54848518 52.2421032,4.28411589 C52.493467,4.01974661 52.7730027,3.8160571 53.0807112,3.67303715 C53.3927487,3.52568512 53.7091223,3.4520091 54.0298321,3.4520091 C54.3678723,3.4520091 54.6669105,3.49748054 54.9269477,3.58852582 C55.1869768,3.67957111 55.3950034,3.79871856 55.5510278,3.94607059 C55.7113771,4.08909055 55.8413937,4.26461643 55.9410775,4.47263801 C56.0407562,4.68066983 56.1079269,4.8886914 56.142604,5.09671298 C56.181603,5.3047448 56.2011024,5.527944 56.2011127,5.76630035 C56.2011065,5.9179947 56.1209334,5.99383164 55.9605811,5.99383164 L52.4566321,5.99383164 C52.4566301,6.37521818 52.4978022,6.72625971 52.5801475,7.04696647 C52.6668197,7.36334116 52.7751708,7.62553929 52.9051894,7.8335711 C53.039538,8.04159268 53.1912231,8.21928973 53.3602478,8.36664176 C53.5336005,8.50965147 53.7026222,8.6136725 53.8673127,8.67867412 C54.0319972,8.74370647 54.1923516,8.77617144 54.3483739,8.77617144 C54.7080837,8.77617144 55.0157891,8.71769353 55.2714932,8.60064555 C55.5271881,8.47929622 55.7742188,8.28860294 56.0125875,8.02857597 M58.744539,3.45197838 L58.7055298,4.6351267 L58.744539,4.6351267 C59.1389207,4.17141023 59.5029667,3.85936762 59.8366789,3.69900912 C60.1747191,3.53432879 60.5344319,3.45197838 60.9158175,3.45197838 C61.2061833,3.45197838 61.4488809,3.50400426 61.6439114,3.60799456 C61.8432647,3.71201559 61.9949509,3.86587086 62.0989699,4.06955012 C62.2029776,4.26891778 62.2744865,4.48777467 62.3134967,4.72614126 C62.3568277,4.96017578 62.3784984,5.2375413 62.3785086,5.55824805 L62.3785086,8.3405981 C62.3785024,8.53129137 62.4196787,8.66997925 62.502024,8.75665149 C62.5843641,8.83899166 62.7295471,8.89100729 62.9375799,8.91267791 L63.1911128,8.93869085 C63.2691107,8.95599867 63.3081281,8.99071673 63.3081281,9.04270164 L63.3081281,9.29623562 L63.2821254,9.32224856 C62.5713577,9.30488953 62.0967967,9.29622538 61.8584383,9.29622538 C61.6894115,9.29622538 61.2495225,9.30441843 60.5387691,9.32224856 L60.5127664,9.29622538 L60.5127664,9.0426914 C60.5127623,8.98636417 60.5496044,8.95164612 60.6232805,8.93868061 L60.8053034,8.91266767 C61.0263274,8.87794962 61.1758465,8.82162239 61.2538607,8.74364502 C61.3362009,8.66130485 61.377372,8.52694905 61.3773771,8.34058785 L61.3773771,5.46072002 C61.377372,4.96666877 61.3166973,4.615617 61.1953541,4.40758518 C61.0783338,4.19523153 60.8508056,4.08904958 60.5127664,4.08904958 C60.2050559,4.08904958 59.914686,4.16493772 59.6416546,4.31658086 C59.368616,4.46826497 59.0695778,4.73480542 58.744539,5.11618172 L58.744539,8.34058785 C58.7445369,8.53128113 58.7835379,8.66563693 58.8615542,8.74364502 C58.9438944,8.82168384 59.0955815,8.87799058 59.3166127,8.91266767 L59.5051368,8.93868061 C59.5744808,8.95168708 59.6091466,8.98630272 59.6091497,9.0426914 L59.6091497,9.29622538 L59.583147,9.32224856 C58.8723864,9.30488953 58.419495,9.29622538 58.2244728,9.29622538 C58.0121099,9.29622538 57.5505513,9.30441843 56.8397948,9.32224856 L56.8137911,9.29622538 L56.8137911,9.0426914 C56.8137911,8.98636417 56.848458,8.95164612 56.917805,8.93868061 L57.1713369,8.91266767 C57.3923649,8.89095609 57.541884,8.83903262 57.6198952,8.75664125 C57.7022354,8.67430108 57.7434095,8.5356132 57.7434106,8.34058785 L57.7434106,5.02516716 C57.7434095,4.70880272 57.7195688,4.49643882 57.6719057,4.38808572 C57.6285645,4.27541078 57.5548895,4.21257007 57.4508777,4.1995636 L56.878804,4.1410857 L56.8528013,3.82253986 C57.7022425,3.69253661 58.3154873,3.55601989 58.6925377,3.4129897 C58.7272045,3.4129897 58.7445431,3.42599617 58.7445431,3.4520091 M68.6729146,8.08707436 C68.4605497,8.43811589 68.2308534,8.71548141 67.9838268,8.91918115 C67.741124,9.12287065 67.5049275,9.25721621 67.2752353,9.32222808 C67.0498701,9.39156177 66.792003,9.42623886 66.5016361,9.42623886 C65.6781945,9.42623886 65.03678,9.16187982 64.5773894,8.63314124 C64.12233,8.10440266 63.8948018,7.4023196 63.8948018,6.52687157 C63.8948018,6.06747693 63.9706489,5.64275938 64.122331,5.25270868 C64.2740161,4.86265798 64.4777087,4.53761915 64.7334097,4.27758194 C64.9891077,4.01755496 65.2816447,3.81602638 65.6110218,3.67300643 C65.9447288,3.5256544 66.2914393,3.45197838 66.6511552,3.45197838 C67.2622299,3.45197838 67.7454581,3.58633418 68.100842,3.85502531 C68.4562156,4.11939459 68.6339044,4.43794044 68.6339095,4.81065259 C68.6339044,4.98833939 68.5688977,5.12919843 68.4388852,5.23319898 C68.3088635,5.33284697 68.1658446,5.38272217 68.0098294,5.38272217 C67.7237885,5.38272217 67.5634351,5.22670598 67.5287683,4.91466338 C67.5114297,4.77598574 67.4897591,4.66113964 67.4637564,4.57011484 C67.4377537,4.4747682 67.3922413,4.37076766 67.3272387,4.25808247 C67.2665589,4.14106522 67.1733824,4.05439297 67.047703,3.99804526 C66.9220165,3.93741668 66.7659972,3.90699998 66.5796432,3.90699998 C66.1289158,3.90701022 65.7562016,4.11720295 65.4614996,4.53758842 C65.1711276,4.95364182 65.0259426,5.51921841 65.0259437,6.2342977 C65.0259426,7.00573494 65.1906301,7.63415223 65.5200072,8.11953932 C65.8537143,8.60060458 66.2784349,8.84113209 66.7941711,8.84113209 C67.084538,8.84113209 67.3727408,8.75879193 67.6587818,8.59410135 C67.9448135,8.4250787 68.1896782,8.19322558 68.3933759,7.89851128 C68.5320556,7.9158191 68.6252341,7.97870077 68.6729146,8.08704363 M70.1437056,2.15830579 C70.0180211,2.03263462 69.9551814,1.88311143 69.9551814,1.70975671 C69.9551814,1.53640198 70.0180222,1.38688903 70.1437056,1.26119738 C70.269387,1.13118389 70.4189051,1.06617203 70.5922629,1.06617203 C70.7656166,1.06617203 70.9151357,1.1290537 71.0408202,1.25469414 C71.1708347,1.3803858 71.2358455,1.5320699 71.2358455,1.70975671 C71.2358455,1.88311143 71.1708337,2.03263462 71.0408202,2.15830579 C70.9151357,2.28399744 70.7656166,2.34683815 70.5922629,2.34683815 C70.4189051,2.34683815 70.269387,2.28395648 70.1437056,2.15830579 M71.2098418,3.45197838 C71.179507,4.05439297 71.1643294,4.57878923 71.1643396,5.0251774 L71.1643396,8.3405981 C71.1643366,8.53129137 71.2055097,8.66997925 71.287855,8.75665149 C71.3745273,8.83899166 71.5218824,8.89100729 71.7299121,8.91267791 L71.9769439,8.93869085 C72.0592841,8.95169732 72.1004593,8.98631296 72.1004593,9.04270164 L72.1004593,9.29623562 L72.0744566,9.32224856 C71.363693,9.30488953 70.889132,9.29622538 70.6507705,9.29622538 C70.4384076,9.29622538 69.976849,9.30441843 69.2660926,9.32224856 L69.2400888,9.29622538 L69.2400888,9.0426914 C69.2400888,8.98636417 69.2747557,8.95164612 69.3441027,8.93868061 L69.5976346,8.91266767 C69.8229968,8.88235338 69.9746819,8.82817683 70.0526931,8.75014826 C70.1307012,8.66780809 70.1697073,8.53128113 70.1697083,8.34058785 L70.1697083,5.02516716 C70.1697073,4.70880272 70.1458665,4.49643882 70.0982035,4.38808572 C70.0548622,4.27541078 69.9811872,4.21257007 69.8771754,4.1995636 L69.3051017,4.1410857 L69.279099,3.82253986 C70.1718795,3.6881943 70.7959585,3.55167757 71.1513393,3.4129897 C71.1903382,3.4129897 71.2098479,3.42599617 71.2098479,3.4520091 M73.4412224,1.80076103 C73.4412214,1.38904995 73.4108877,1.11384535 73.3502079,0.97515747 C73.2895281,0.832147756 73.1876854,0.760642899 73.0446685,0.760632658 L72.6156127,0.73461972 C72.5636073,0.734629961 72.5376046,0.712908133 72.5376046,0.669587373 L72.5116019,0.351041532 C72.7846364,0.329329946 73.1096773,0.281707834 73.4867266,0.208031818 C73.8681081,0.134396768 74.1411425,0.0650221048 74.3058321,-1.77635684e-15 C74.4228453,-1.77635684e-15 74.4813529,0.0454714357 74.4813549,0.13651672 C74.4553522,0.491910811 74.4423457,0.957798442 74.4423457,1.5342001 L74.4423457,6.14329338 C74.7890542,6.05665186 75.3697951,5.56688148 76.1845695,4.67410514 C76.2365749,4.62207927 76.2842482,4.56576228 76.3275874,4.50508249 C76.3752607,4.44005015 76.4164308,4.3642337 76.4511038,4.27755121 C76.4857706,4.19090969 76.4662711,4.11720295 76.3925951,4.05652317 C76.3232512,3.99149082 76.1953986,3.9547245 76.0090456,3.94600914 C75.9397017,3.94600914 75.9050287,3.90914041 75.9050318,3.83549512 L75.9050318,3.58196114 C75.9310345,3.57376809 75.9440307,3.56465332 75.9440409,3.5559482 C76.6027879,3.57325602 76.9993387,3.58196114 77.1336935,3.58196114 C77.2463705,3.58197138 77.632086,3.57376809 78.2908422,3.5559482 L78.3428476,3.58196114 L78.3428476,3.83549512 C78.3428415,3.89182235 78.2930031,3.92869108 78.1933275,3.94600914 L78.1023129,3.95901561 C77.9029483,3.9893299 77.6775862,4.06091669 77.4262264,4.17355066 C77.1791895,4.28623585 76.977664,4.42275257 76.8216489,4.58310083 L75.8140192,5.70124753 C75.7793422,5.73596558 75.7620139,5.78143702 75.7620139,5.83776425 C75.7620108,5.90279659 75.7836742,5.96344566 75.8270257,6.01978313 L77.3807243,8.32107815 C77.4934002,8.4901008 77.6407522,8.6244566 77.8227814,8.72413532 C78.0047992,8.82378331 78.1911563,8.89098681 78.3818527,8.92565366 L78.4728672,8.93866013 C78.5552074,8.9516666 78.5963826,8.98628224 78.5963826,9.04267092 L78.5963826,9.2962049 L78.5703799,9.32224856 C78.0329721,9.30488953 77.6559248,9.29622538 77.4392349,9.29622538 C77.1965322,9.29622538 76.897494,9.30441843 76.5421204,9.32224856 L76.5031153,9.29622538 L76.5031153,9.0426914 C76.5031112,8.86067252 76.4012654,8.62013477 76.1975759,8.32109863 L75.2289514,6.95592119 C75.0989318,6.76523816 74.9775835,6.63738559 74.8649044,6.57237372 C74.7565554,6.50734138 74.6157035,6.47487641 74.4423509,6.47487641 L74.4423509,8.34060834 C74.4423488,8.5659787 74.4900242,8.71766281 74.5853688,8.7956709 C74.6807154,8.86930595 74.8323985,8.91702023 75.0404272,8.93869085 C75.1097712,8.93869085 75.144438,8.97340891 75.1444411,9.04270164 L75.1444411,9.29623562 L75.1184384,9.32224856 C74.4250133,9.30488953 74.0262954,9.29622538 73.9222836,9.29622538 C73.8919488,9.29622538 73.4347202,9.30441843 72.550608,9.32224856 L72.5246043,9.29622538 L72.5246043,9.0426914 C72.5246043,8.98636417 72.5549391,8.95164612 72.6156189,8.93868061 L72.8691518,8.91266767 C73.0901789,8.89095609 73.239698,8.83903262 73.3177091,8.75664125 C73.4000493,8.67430108 73.4412245,8.5356132 73.4412255,8.34058785 L73.4412255,1.80075078 M79.8071405,8.3405981 L79.8071405,1.80076103 C79.8071395,1.38904995 79.7746346,1.11384535 79.7096329,0.97515747 C79.6489531,0.832147756 79.5471115,0.760642899 79.4040946,0.760632658 L78.98154,0.73461972 C78.9252025,0.734629961 78.8970287,0.712908133 78.8970287,0.669587373 L78.871026,0.351041532 C79.1483935,0.329329946 79.4756025,0.28385851 79.8526519,0.214524812 C80.2296981,0.140889761 80.5027336,0.0693541808 80.6717563,-1.77635684e-15 C80.7844353,-1.77635684e-15 80.8407759,0.0454714357 80.8407789,0.13651672 C80.8147762,0.491910811 80.8017698,0.957798442 80.8017698,1.5342001 L80.8017698,8.34056737 C80.8017667,8.53559272 80.8407687,8.6742806 80.918784,8.75662077 C80.996792,8.83896093 81.1441441,8.89097657 81.3608411,8.91264719 L81.6793818,8.93866013 C81.7530578,8.93866013 81.7898958,8.97337818 81.7898958,9.04267092 L81.7898958,9.2962049 L81.7638931,9.32223832 C80.8711086,9.30488953 80.377045,9.29622538 80.2817015,9.29622538 C80.1993613,9.29622538 79.716128,9.30441843 78.8320158,9.32223832 L78.8190093,9.29622538 L78.8190093,9.0426914 C78.8190093,8.9733577 78.8493441,8.93868061 78.9100239,8.93868061 L79.2285646,8.91266767 C79.4495916,8.89095609 79.6012778,8.83903262 79.6836231,8.75664125 C79.7659632,8.67430108 79.8071374,8.5356132 79.8071384,8.34058785 M82.3765716,6.56587049 C82.3765716,5.63409523 82.6192692,4.88216769 83.1046655,4.31008787 C83.5900598,3.73801829 84.2661453,3.45197838 85.1329261,3.45197838 C85.5143044,3.45197838 85.8610149,3.51260696 86.1730596,3.63399726 C86.485095,3.75101452 86.742961,3.90920186 86.9466587,4.10855928 C87.1546803,4.30358463 87.328035,4.53328707 87.466725,4.79764612 C87.6097378,5.05768333 87.7115846,5.3263847 87.7722643,5.60375021 C87.8329339,5.88112597 87.8632789,6.16282356 87.8632789,6.44886347 C87.8632789,6.79557293 87.8047703,7.14012147 87.6877571,7.48248861 C87.5750699,7.82053391 87.4103824,8.13690859 87.1936936,8.43161266 C86.9813276,8.72631672 86.6931248,8.96685447 86.3290819,9.15320542 C85.9650318,9.33523454 85.5576467,9.42623886 85.1069254,9.42623886 C84.6778676,9.42623886 84.2856509,9.34174802 83.9302742,9.17270489 C83.5748934,9.00369248 83.2866905,8.78049327 83.0656635,8.50312775 C82.8446344,8.225752 82.6734457,7.92021262 82.5520974,7.58650964 C82.4350822,7.25279641 82.3765716,6.91259019 82.3765716,6.56587049 M84.98341,3.89403447 C84.6453637,3.89403447 84.3614939,4.01538381 84.1318007,4.25808247 C83.9021024,4.49644906 83.7395819,4.78682105 83.6442373,5.12918819 C83.5532228,5.47157581 83.5077206,5.84862004 83.5077206,6.26033112 C83.5077206,6.47703733 83.5272201,6.70455837 83.5662293,6.94292496 C83.6095705,7.17695948 83.6789083,7.41748698 83.774256,7.66451773 C83.8696026,7.91154847 83.9844466,8.13257652 84.1187994,8.32760187 C84.253148,8.52262722 84.4243367,8.68298572 84.6323654,8.80866713 C84.8447232,8.93001646 85.0765865,8.99068601 85.3279545,8.99068601 C85.496973,8.99068601 85.6551594,8.96252239 85.8025155,8.90619516 C85.9541975,8.84556658 86.1015496,8.74367575 86.2445726,8.60065579 C86.3919205,8.45330376 86.5089347,8.23227571 86.5956172,7.93757165 C86.6822895,7.64286759 86.7256338,7.28749398 86.7256338,6.87143035 C86.7256338,5.90497799 86.5739435,5.16821784 86.2705763,4.66114988 C85.9671999,4.14976009 85.5381452,3.89403447 84.9834111,3.89403447 M90.3026873,5.15519089 L90.3026873,8.40560996 C90.6277302,8.7869965 90.9961103,8.97767954 91.4078326,8.97767954 C91.680864,8.97767954 91.9235617,8.92780434 92.1359266,8.82816659 C92.3526164,8.7241558 92.5259722,8.59197116 92.6559928,8.43161266 C92.7860053,8.2712644 92.8921852,8.08057112 92.9745335,7.85954308 C93.0612058,7.63851503 93.1197144,7.41965814 93.1500563,7.20295193 C93.1803911,6.9862662 93.1955585,6.76090608 93.1955585,6.52687157 C93.1955585,5.79444349 93.0482024,5.20070329 92.7535024,4.74564073 C92.4631274,4.29058841 92.1077486,4.06305712 91.6873652,4.06305712 C91.4446645,4.06305712 91.1867984,4.16270511 90.913766,4.36209326 C90.6450626,4.55711861 90.44137,4.8214879 90.3026873,5.15519089 M89.30806,5.0251774 C89.308059,4.71314504 89.2842183,4.50078114 89.2365552,4.38809596 C89.1888819,4.27542102 89.1152048,4.21258031 89.0155271,4.19957384 L88.4434535,4.14109594 L88.4174508,3.8225501 C89.2452224,3.69687893 89.8563001,3.56036221 90.250686,3.41299994 C90.2853528,3.41299994 90.3026914,3.42600641 90.3026914,3.45201934 L90.2636924,4.51815041 L90.3026914,4.51815041 C90.7707491,3.80740319 91.3536571,3.45201934 92.0514163,3.45201934 C92.4674656,3.45201934 92.848847,3.57987191 93.1955626,3.83556681 C93.542271,4.09127195 93.8109724,4.42714609 94.0016657,4.84319949 C94.1923487,5.25925288 94.2877056,5.70130897 94.2877056,6.16936776 C94.2877056,7.21383845 93.9756527,8.05243823 93.3515778,8.6851876 C92.8618494,9.17924909 92.2421034,9.42627983 91.492345,9.42627983 C91.0632861,9.42627983 90.6667363,9.32878252 90.3026914,9.13374693 L90.3026914,11.4415452 C90.3026893,11.6278961 90.3438614,11.7622519 90.4262078,11.8445921 C90.51288,11.9312336 90.658068,11.98328 90.8617637,12.0006083 L91.1152956,12.0266212 C91.1976358,12.0396277 91.2388089,12.0742433 91.238812,12.130632 L91.238812,12.384166 L91.2128093,12.4101789 C90.5540562,12.3928711 90.0794952,12.384166 89.7891273,12.384166 C89.5160908,12.3841558 89.0545322,12.392359 88.4044494,12.4101789 L88.3719435,12.384166 L88.3719435,12.130632 C88.3719435,12.0743048 88.4087815,12.0395867 88.4824575,12.0266212 L88.7359894,12.0006083 C88.9483492,11.9833005 89.0957013,11.9312746 89.1780466,11.8445921 C89.2647188,11.7622519 89.3080621,11.6278961 89.3080631,11.4415452 L89.3080631,5.02521837 M96.330561,5.47373673 L98.774876,5.47373673 C98.9005574,5.47373673 98.9634084,5.41310815 98.9634084,5.29170761 C98.9634084,5.02734856 98.9286903,4.79981728 98.8593873,4.60912401 C98.794355,4.41844097 98.7033712,4.27542102 98.5863539,4.18006414 C98.4736687,4.08041615 98.3566515,4.01105173 98.2353124,3.97204256 C98.1182951,3.9287218 97.9926137,3.90701022 97.8582579,3.90701022 C97.7716164,3.90701022 97.6849032,3.91315501 97.5982309,3.92657113 C97.5158908,3.93476418 97.4032056,3.96989189 97.2601856,4.03058192 C97.1171657,4.08690915 96.9893131,4.16709864 96.8766382,4.27110943 C96.7682851,4.37513046 96.6599422,4.53114664 96.5515993,4.73916821 C96.4475783,4.94720003 96.3739023,5.19206986 96.330561,5.47376745 M99.8410173,8.02859645 C99.979695,8.04160292 100.068538,8.1130873 100.107548,8.24312127 C99.8431782,8.60716927 99.5181394,8.89537009 99.1324208,9.10773399 C98.7467022,9.32008764 98.3219846,9.42626959 97.8582579,9.42626959 C96.9914843,9.42626959 96.3349034,9.16624262 95.8885049,8.64616819 C95.4464488,8.12610401 95.2254208,7.45868779 95.2254208,6.64391955 C95.2254208,6.15852221 95.3034596,5.70996288 95.4594553,5.29824157 C95.6154715,4.88653049 95.819161,4.54848518 96.0705341,4.28411589 C96.3218969,4.01974661 96.6014336,3.8160571 96.9091441,3.67303715 C97.2211765,3.52568512 97.5375511,3.4520091 97.8582579,3.4520091 C98.1963032,3.4520091 98.4953393,3.49748054 98.7553765,3.58852582 C99.0154035,3.67957111 99.2234353,3.79871856 99.3794618,3.94607059 C99.53981,4.08909055 99.6698235,4.26461643 99.7695022,4.47263801 C99.8691502,4.68066983 99.9363537,4.8886914 99.9710308,5.09671298 C100.01005,5.3047448 100.029509,5.527944 100.029509,5.76630035 C100.029509,5.9179947 99.9493192,5.99383164 99.7889812,5.99383164 L96.2850281,5.99383164 C96.2850281,6.37521818 96.3261982,6.72625971 96.4085486,7.04696647 C96.4951902,7.36334116 96.6035638,7.62553929 96.7335875,7.8335711 C96.867933,8.04159268 97.0196171,8.21928973 97.18865,8.36664176 C97.3619945,8.50965147 97.5310172,8.6136725 97.6957078,8.67867412 C97.8603983,8.74370647 98.0207466,8.77617144 98.176773,8.77617144 C98.5364787,8.77617144 98.8441892,8.71769353 99.0998944,8.60064555 C99.3555893,8.47929622 99.60262,8.28860294 99.8409866,8.02857597 M105.004268,8.04156196 L105.004268,4.70013857 C104.835245,4.43576928 104.651055,4.24074393 104.451698,4.11506252 C104.252341,3.98504903 104.003139,3.92003717 103.704103,3.92003717 C103.171032,3.92003717 102.75715,4.14106522 102.462446,4.58312131 C102.215415,4.93850516 102.091894,5.52791328 102.091894,6.35134568 C102.091894,7.13144708 102.234914,7.73602259 102.520954,8.16508245 C102.811326,8.5898 103.151532,8.80216389 103.541583,8.80216389 C103.888293,8.80216389 104.375851,8.54862991 105.004268,8.04156196 M106.005398,1.53423082 L106.005398,7.74902905 C106.005398,8.07839997 106.024856,8.28643178 106.063875,8.37310403 C106.102895,8.45974555 106.193889,8.50962075 106.336909,8.52262722 L106.980494,8.58765956 L107.019513,8.89969193 C106.157061,9.05138628 105.589324,9.23773723 105.31629,9.45876528 L105.004248,9.45876528 L105.036713,8.5226477 L105.004248,8.50964123 C104.250149,9.12071997 103.647745,9.42625935 103.197024,9.42625935 C102.494931,9.42625935 101.946693,9.16406122 101.55231,8.63966496 C101.157927,8.11525846 100.960731,7.43267485 100.960731,6.59189367 C100.960731,5.62544132 101.257606,4.84535016 101.851346,4.25159972 C102.133044,3.98289836 102.429919,3.78354093 102.741962,3.6535172 C103.058336,3.51918188 103.426717,3.45199886 103.847102,3.45199886 C103.994454,3.45199886 104.187308,3.48016248 104.425675,3.53648971 C104.668373,3.59281693 104.861228,3.66217112 105.004248,3.74451128 L105.004248,1.80076103 C105.004248,1.38904995 104.973933,1.11384535 104.913202,0.97515747 C104.852574,0.832147756 104.750673,0.760642899 104.607663,0.760632658 L104.178603,0.73461972 C104.126577,0.734629961 104.100564,0.712908133 104.100564,0.669587373 L104.074551,0.351041532 C104.351917,0.329329946 104.679127,0.28385851 105.056181,0.214524812 C105.433226,0.140889761 105.706259,0.0693541808 105.875282,-1.77635684e-15 C105.987957,-1.77635684e-15 106.044294,0.0454714357 106.044304,0.13651672 C106.018291,0.491910811 106.005285,0.957798442 106.005285,1.5342001 M113.022644,3.41302042 C113.057362,3.41302042 113.07467,3.42602689 113.07467,3.45203983 C113.048995,4.23207978 113.035988,4.75647604 113.035988,5.0251774 L113.035988,7.83354038 C113.035988,9.97014483 112.71311,11.3006452 112.067365,11.8250517 C111.91567,11.9507331 111.753151,12.0460797 111.579796,12.1110916 C111.406441,12.1804253 111.274257,12.2194345 111.183252,12.2280986 C111.096611,12.2362917 110.986056,12.2411051 110.85171,12.2411051 C110.704358,12.2411051 110.552664,12.1869285 110.396648,12.0785857 C110.240632,11.9745646 110.162613,11.8315447 110.162613,11.6495258 C110.162613,11.5411829 110.208085,11.4479972 110.29913,11.3699891 C110.390175,11.2919503 110.476827,11.2529719 110.559167,11.2529719 C110.66752,11.2529719 110.762857,11.2702797 110.845207,11.3049977 C110.927547,11.3397158 110.986056,11.3721808 111.020723,11.4024951 C111.055441,11.4372131 111.096611,11.4848352 111.144243,11.545515 C111.243891,11.688535 111.345772,11.7600398 111.449783,11.7600398 C111.523418,11.7600398 111.588471,11.7318762 111.644808,11.675549 C111.701135,11.6235231 111.748819,11.5368611 111.787828,11.415522 C111.831149,11.2941624 111.868017,11.1728131 111.898342,11.051474 C111.928656,10.9301247 111.952519,10.7654341 111.969826,10.5574125 C111.987134,10.3537128 112.000141,10.1781869 112.008846,10.0308451 C112.021852,9.88348283 112.030557,9.6841254 112.034859,9.43276258 C112.038955,9.18139976 112.041004,8.98853533 112.041004,8.85418977 L112.041004,5.02519788 C112.041004,4.70449112 112.017141,4.48996631 111.969519,4.38161321 C111.926198,4.26893827 111.850341,4.20826872 111.741988,4.19959433 L111.169918,4.14111642 L111.143905,3.82257058 C112.023685,3.68822502 112.649932,3.5517083 113.022644,3.41302042 Z M109.387448,3.4129897 C109.413461,3.4129897 109.43078,3.41877035 109.439436,3.43033165 L109.445947,3.45197838 C109.415632,4.05439297 109.400475,4.57878923 109.400475,5.0251774 L109.400475,8.3405981 C109.400475,8.53129137 109.441645,8.66997925 109.523996,8.75665149 C109.610637,8.83899166 109.75802,8.89100729 109.966052,8.91267791 L110.213083,8.93869085 C110.295423,8.95169732 110.336603,8.98631296 110.336603,9.04270164 L110.336603,9.29623562 L110.31059,9.32224856 C109.678797,9.30686383 109.233635,9.2982763 108.975104,9.29655789 L108.886904,9.29623562 C108.67454,9.29623562 108.212985,9.30442867 107.502227,9.32224856 L107.476194,9.29622538 L107.476194,9.0426914 C107.476194,8.98636417 107.510809,8.95164612 107.580204,8.93868061 L107.833738,8.91266767 C108.059099,8.88235338 108.210783,8.82817683 108.288801,8.75014826 C108.36684,8.66780809 108.405808,8.53128113 108.405808,8.34058785 L108.405808,5.02516716 C108.405808,4.70880272 108.381946,4.49643882 108.334324,4.38808572 C108.291003,4.27541078 108.217306,4.21257007 108.113296,4.1995636 L107.541216,4.1410857 L107.515203,3.82253986 C108.407989,3.6881943 109.032064,3.55167757 109.387448,3.4129897 Z M108.828365,1.06617203 C109.001719,1.06617203 109.151243,1.1290537 109.276924,1.25469414 C109.406937,1.3803858 109.471949,1.5320699 109.471949,1.70975671 C109.471949,1.88311143 109.406917,2.03263462 109.276924,2.15830579 C109.151243,2.28399744 109.001719,2.34683815 108.828365,2.34683815 C108.65501,2.34683815 108.505487,2.28395648 108.379805,2.15830579 C108.254124,2.03263462 108.191283,1.88311143 108.191283,1.70975671 C108.191283,1.53640198 108.254165,1.38688903 108.379805,1.26119738 C108.505487,1.13118389 108.65501,1.06617203 108.828365,1.06617203 Z M112.463929,1.06617203 C112.637284,1.06617203 112.786807,1.13120438 112.912488,1.26119738 C113.03817,1.38688903 113.10101,1.53640198 113.10101,1.70975671 C113.10101,1.88311143 113.038129,2.03263462 112.912488,2.15830579 C112.786807,2.28399744 112.637284,2.34683815 112.463929,2.34683815 C112.290574,2.34683815 112.141061,2.28395648 112.01538,2.15830579 C111.889688,2.03263462 111.826847,1.88311143 111.826847,1.70975671 C111.826847,1.53640198 111.889729,1.38688903 112.01538,1.26119738 C112.141061,1.13118389 112.290574,1.06617203 112.463929,1.06617203 Z M117.89373,6.1953295 L116.840595,6.47486617 C115.982486,6.70890069 115.553436,7.19645894 115.553436,7.93755117 C115.553436,8.17591776 115.640078,8.39477465 115.813463,8.59413207 C115.986818,8.78915742 116.227346,8.88667522 116.535056,8.88667522 C116.838424,8.88667522 117.228475,8.69381079 117.705208,8.3081024 C117.83089,8.22146089 117.89373,8.10657382 117.89373,7.96355387 L117.89373,6.1953295 M117.89373,8.65914394 L117.867717,8.65914394 L117.601187,8.86716551 C117.306473,9.09686795 117.065945,9.2463809 116.879594,9.31572484 C116.697565,9.38935989 116.454867,9.42624911 116.151498,9.42624911 C115.648763,9.42624911 115.247877,9.31139276 114.94884,9.08170057 C114.649804,8.85199813 114.500281,8.48796037 114.500281,7.98955656 C114.500281,7.54750047 114.697478,7.15744977 115.09186,6.81940447 C115.490575,6.47703733 116.017143,6.22350335 116.671563,6.05881278 L117.815712,5.7792761 C117.867738,5.76196828 117.893751,5.7099424 117.893751,5.62324968 C117.893751,5.33288793 117.869889,5.07935395 117.822266,4.86265798 C117.774542,4.64162994 117.716084,4.46827521 117.646741,4.3425938 C117.577407,4.21691239 117.490714,4.11723368 117.386703,4.04354742 C117.287055,3.96550861 117.191678,3.91354418 117.100674,3.88753124 C117.014032,3.8615183 116.918645,3.84851183 116.814634,3.84851183 C116.528594,3.84852207 116.272899,3.90053771 116.047539,4.00453825 C115.822168,4.10855928 115.709494,4.25807223 115.709494,4.45309758 C115.709494,4.57444692 115.717687,4.6611294 115.735506,4.71312455 C115.761519,4.76945178 115.774526,4.84965151 115.774526,4.9536623 C115.774516,5.05767309 115.720349,5.1573518 115.611996,5.25269844 C115.507985,5.34804508 115.367137,5.3957184 115.18945,5.3957184 C114.881739,5.3957184 114.727884,5.23970221 114.727884,4.92764936 C114.727884,4.69362509 114.834066,4.46176173 115.04643,4.23206954 C115.258784,4.00237734 115.536159,3.81601614 115.878537,3.67299618 C116.220914,3.52564415 116.567623,3.45196814 116.918665,3.45196814 C117.131029,3.45196814 117.323883,3.46927596 117.497238,3.50399402 C117.674925,3.53871207 117.852622,3.60579268 118.030308,3.7055226 C118.207995,3.80086924 118.355347,3.9287218 118.472365,4.08907006 C118.593714,4.24942856 118.691221,4.46828545 118.764908,4.74565097 C118.842947,5.01869465 118.881915,5.33723025 118.881925,5.70127825 L118.881925,7.68402743 C118.881915,7.80970884 118.881915,7.91155871 118.881925,7.9895668 C118.886022,8.06320185 118.892781,8.15208622 118.901383,8.25609701 C118.91439,8.355745 118.931698,8.43595497 118.953409,8.49663476 C118.975019,8.55296199 119.003285,8.61148086 119.0379,8.67215041 C119.07692,8.73277899 119.126692,8.77617144 119.187423,8.80217413 C119.252456,8.82818707 119.326101,8.84119354 119.408451,8.84119354 C119.503798,8.84119354 119.581796,8.82388572 119.642476,8.78916766 C119.703104,8.75444961 119.748647,8.71983397 119.778992,8.68515687 C119.809307,8.65043882 119.833169,8.633131 119.850477,8.633131 C119.87649,8.633131 119.906804,8.65484258 119.941522,8.69816334 C119.980542,8.7414841 120,8.78480486 120,8.82817683 C120,8.84548465 119.982692,8.87579894 119.947974,8.91922211 C119.913256,8.96254287 119.861333,9.01241807 119.791958,9.06873506 C119.726926,9.12506229 119.651099,9.18142024 119.564427,9.23775771 C119.477785,9.28978359 119.373733,9.33310435 119.252384,9.3677712 C119.135367,9.40679061 119.016189,9.42624911 118.894839,9.42624911 C118.370433,9.42624911 118.03673,9.17055421 117.89371,8.65915418" id="hr-tagline" fill="#000000" fill-rule="nonzero"></path>
    </g>
</svg>