<svg viewBox="0 0 88 21" xmlns="http://www.w3.org/2000/svg"><path d="m87 6.64-7.28-.401-.098.167c1 1.34 1.33 2.85 1.14 4.68l6.32-4.24zm-8.68 6.66c-1.54.162-2.94-.15-4.16-1.18l-.174.113.409 7.09.175.05 3.83-5.88zm-5.28-4.23c.823-1.71 1.96-2.89 3.64-3.52l.03-.202-7.01-3.57-.163.147z" opacity=".5" fill="#54595d" fill-rule="evenodd"/><text x="33.745" y="19.045" font-family="'Siyam Rupali'" letter-spacing="0" text-anchor="middle" word-spacing="0" style="line-height:0%" xml:space="preserve"><tspan x="35.655" y="19.045"> </tspan></text><g fill="#54595d"><path d="M64 14.1q0 1.91-1.41 3.79-1.57 2.1-3.63 2.1-.763 0-1.57-.173-.589-.127-1.54-.439-.751-.266-1.5-.52l.196-.405 1.35.312q.717.173 1.28.173 1.41 0 2.67-.717.982-.566 1.96-1.64.497-.543 1.41-1.77-1.56 0-2.33-.497-.878-.566-.878-1.86 0-1.19.555-2.21.647-1.18 1.64-1.18 1.01 0 1.44 1.17.347.913.347 2.54zm-.728-1.26q-.254-1.11-.613-1.54-.312-.37-.763-.37-.324 0-.566.22-.231.208-.231.532 0 .566.509.867.509.289 1.66.289zM53.8 14.8h-6.59v-2.01h5.74q0-1.36-.324-2.08-.22-.497-1.09-1.43l.901-1.88q.832 1.05 1.04 1.64.312.89.312 2.95zm-.104 2.29-.855 1.68-1.9-.971.878-1.68zm-2.64 1.07-.867 1.65-1.91-.982.901-1.66z"/><path d="M44.2 11.1q.543.659 1.06 1.1.705.589 1.23.589H48v2.01h-1.42q-.948 0-1.99-.971-.509-.474-1.44-1.69-.566-.728-.693-.878-.289-.347-.878-.913 0 2.06-1.28 3.21-1.38 1.24-4.09 1.24h-1.19v-2.01h1.25q1.84 0 3.09-.474 1.49-.566 1.49-1.59 0-.774-.566-1.31-.289-.277-1.12-.717l-.381.358-1.36-1.04q-.717-.601-.717-.936 0-1.99.971-3.12.901-1.04 3.11-1.87l3.26-1.27v2l-2.42.809q-1.44.474-2.33.867-1.13.497-1.13.763t.74.821q.462.347.936.693 1.02.774 1.84 1.53.705.647 1.32 1.34.381.428 1.23 1.47z"/><path d="M35.8 14.8h-6.59v-2.01h5.74q0-1.36-.324-2.08-.22-.497-1.09-1.43l.901-1.88q.832 1.05 1.04 1.64.312.89.312 2.95zm-.104 2.29-.855 1.68-1.9-.971.878-1.68zm-2.64 1.07-.867 1.65-1.91-.982.901-1.66z"/><path d="M30 14.8h-.89q-.74 0-1.27-.196-.532-.208-.971-.578-.543.428-.948.566-.589.208-1.62.208h-.751q-.601 0-1.2-.231-.393-.15-.971-.497-.555.416-1.02.578-.462.15-1.5.15h-2.23v-2.01h2.23q.936 0 1.34-.162.67-.266.67-1.06 0-.335-.035-.67-.034-.335-.127-.751l.474-.693q.324 1.06.532 1.55.37.844.81 1.27.531.52 1.27.52h.773q.867 0 1.28-.266.462-.3.462-.959 0-.358-.046-.693-.046-.335-.127-.728l.485-.693.243 1.09q.312 1.28.763 1.78.393.439 1.06.439.312 0 .497-.185.196-.196.196-.497 0-.647-.474-1.36-.08-.116-.566-.751l.751-1.26q.474.717.647 1.24.254.786.254 2.09z"/><path d="M17.4 14.8h-7.03v-2.01h3.96q.717 0 1.21-.046.509-.058 1.1-.231-1.99-.29-2.58-.543-1.33-.578-1.33-1.96 0-1.21.636-2.29.717-1.21 1.75-1.21 1.18 0 1.79 1.5.485 1.19.485 2.81zm-1.04-4.03q-.266-.925-.509-1.38-.474-.867-1.14-.867-.324 0-.555.254-.231.254-.231.601 0 .878.913 1.18.324.104 1.53.208zm.012-8.28-.901 1.68-1.87-.971.855-1.69z"/><path d="M11.2 14.8q0 1.27-1.09 2.64-.948 1.2-2.36 2.07-1.34.832-2.21.832-.797 0-1.72-.231-.705-.173-1.69-.543-.832-.312-1.65-.624l.196-.462q.763.15 1.58.3.832.162 1.5.162 1.48 0 3.09-.948 1.46-.867 2.48-2.18 1.03-1.33 1.03-2.39 0-.913-.532-1.92-.428-.809-1.2-1.66l.659-1.81q.948.878 1.4 1.76.509.994.509 2.22z"/></g></svg>