<svg xmlns="http://www.w3.org/2000/svg" width="66" height="11"><path fill="#000" fill-rule="nonzero" d="M64.175.006c.203.482.376 1.143.52 1.98.14.957.263 1.907.368 2.85.08.618.121 1.116.121 1.492l-.019.47-.787 1.01c.034-.225.05-.481.05-.769 0-.245-.031-.738-.095-1.479-.14-1.375-.24-2.22-.304-2.532-.068-.33-.208-.938-.42-1.822l.566-1.2M62.32 6.144l-.019.464-.044.26a.447.447 0 0 0-.02.057.862.862 0 0 1-.228.311.809.809 0 0 1-.527.165h-.857l-.825-.006V6.278h1.302c.14 0 .251-.049.336-.146.038-.055.057-.15.057-.286 0-.068-.004-.146-.013-.235-.067-.677-.107-1.075-.12-1.193a21.692 21.692 0 0 0-.229-1.397 39.683 39.683 0 0 0-.38-1.821l.564-1.2c.335 1.033.64 1.813.914 2.342l-.292.35.165 1.269c.06.52.102.872.127 1.054a84.3 84.3 0 0 1 .09 1.13m-7.269 1.25h-.99V6.278h.978c.211 0 .54-.204.983-.61.098-.093.187-.182.267-.266.27-.36.582-.667.933-.92a.712.712 0 0 1 .495-.135c.148 0 .273.039.375.115.207.156.362.364.463.622l.051.159c.025.325.038.672.038 1.04l.387-.005h.768v1.117h-1.066l-.375.012a.454.454 0 0 0-.254.127c-.127.157-.357.27-.691.337a1.02 1.02 0 0 1-.52-.14 6.661 6.661 0 0 1-.356-.298 1.148 1.148 0 0 1-.102-.102 4.05 4.05 0 0 0-.311-.324c-.334.208-.647.335-.94.381-.05.004-.095.006-.133.006m2.133-.64c.08.084.21.164.387.24.06.022.102.032.127.032.14-.076.222-.252.248-.527v-.527a1.062 1.062 0 0 0-.102-.349c-.089-.165-.245-.26-.47-.285H57.2a.482.482 0 0 0-.076.019c-.182.046-.32.192-.413.438a2.022 2.022 0 0 0-.044.171c0 .22.141.457.425.711.034.03.065.055.095.076m-4.17-.475a3.4 3.4 0 0 0-.248-.692c-.106-.288-.237-.48-.393-.578a.29.29 0 0 0-.146-.044c-.195.02-.345.13-.451.33a.645.645 0 0 0-.064.171c-.063.178-.095.33-.095.457 0 .042.002.089.006.14.08.144.216.216.407.216h.984m-.826-2.254.204.02c.05.012.095.027.133.044.254.126.45.298.59.514.22.3.379.611.476.933.068.304.108.552.12.742h.344v1.118h-.311a4.836 4.836 0 0 1-.273 1.212c-.03.076-.058.138-.083.184-.22.398-.434.707-.641.927-.195.195-.434.38-.717.559l-.21.114a1.66 1.66 0 0 1-.616.101c-.236 0-.484-.04-.742-.12a9.193 9.193 0 0 1-.984-.356l.14-.349h1.047l.286-.013a1.31 1.31 0 0 0 .26-.063c.199-.072.427-.193.685-.362.284-.207.506-.402.667-.584.131-.173.245-.368.343-.584.076-.203.125-.425.146-.666l-.597-.026-.533-.07a1.073 1.073 0 0 1-.184-.044 1.551 1.551 0 0 1-.54-.35.735.735 0 0 1-.14-.151 1.264 1.264 0 0 1-.184-.654l.026-.318c.038-.266.084-.476.14-.628a2.29 2.29 0 0 1 .412-.717c.119-.127.237-.227.356-.299a.854.854 0 0 1 .38-.114m-7.4 2.254c.388 0 .63-.017.723-.051.173-.068.287-.155.342-.26.026-.056.068-.244.127-.565l.045-.343c.021-.153.1-.229.235-.229.122 0 .203.049.24.146a.125.125 0 0 1 .014.057c0 .09.017.216.05.381.022.131.053.254.096.368.038.106.086.19.146.254.14.148.266.229.38.241h.711c.216-.016.36-.071.432-.165a.143.143 0 0 0 .025-.05c0-.225-.097-.5-.292-.826a4.553 4.553 0 0 0-.374-.526l.425-1.048c.368.694.576 1.113.622 1.257.064.258.096.495.096.711l-.026.311-.006.044c-.047.356-.155.68-.324.972l-.089.133c-.156.173-.324.275-.501.305h-.711c-.106 0-.233-.053-.381-.16a1.326 1.326 0 0 1-.235-.209c-.042-.05-.1-.148-.171-.292a1.143 1.143 0 0 1-.242.33c-.105.102-.23.178-.374.23-.144.05-.315.084-.514.1h-.432a.829.829 0 0 1-.38-.107 2.027 2.027 0 0 1-.356-.248 1.613 1.613 0 0 1-.19-.254c-.174.2-.28.313-.318.343a1.906 1.906 0 0 1-.343.19c-.11.051-.315.077-.615.077h-1.08V6.277h1.08c.24 0 .406-.025.495-.076a.677.677 0 0 0 .196-.184c.072-.097.121-.256.146-.476a.43.43 0 0 0 .007-.07v-.406c.012-.067.07-.124.171-.171a.158.158 0 0 1 .07-.019l.14.019c.088.025.14.057.152.095l.025.489c0 .135.04.275.12.419.064.106.122.178.172.216.144.106.3.16.47.165m-4.291 0a3.4 3.4 0 0 0-.248-.692c-.105-.288-.236-.48-.393-.578a.29.29 0 0 0-.146-.044c-.195.02-.345.13-.45.33a.645.645 0 0 0-.064.171c-.064.178-.095.33-.095.457 0 .042.002.089.006.14.08.144.216.216.406.216h.984m-.825-2.254.203.02c.05.012.095.027.133.044.254.126.45.298.59.514.22.3.38.611.477.933.067.304.108.552.12.742h.343v1.118h-.311a4.836 4.836 0 0 1-.273 1.212c-.03.076-.057.138-.082.184-.22.398-.434.707-.642.927-.194.195-.433.38-.717.559l-.21.114a1.66 1.66 0 0 1-.615.101c-.237 0-.485-.04-.743-.12a9.193 9.193 0 0 1-.984-.356l.14-.349h1.047l.286-.013a1.31 1.31 0 0 0 .26-.063c.2-.072.428-.193.686-.362.283-.207.506-.402.666-.584.131-.173.246-.368.343-.584.076-.203.125-.425.146-.666l-.597-.026-.533-.07a1.073 1.073 0 0 1-.184-.044 1.551 1.551 0 0 1-.54-.35.735.735 0 0 1-.14-.151 1.264 1.264 0 0 1-.183-.654l.025-.318c.038-.266.085-.476.14-.628a2.29 2.29 0 0 1 .412-.717c.119-.127.237-.227.356-.299a.854.854 0 0 1 .38-.114m-9.197 3.37H31.872c.79 0 1.305-.012 1.542-.037l.203-.026 1.81-.28a6.21 6.21 0 0 0 .177-.037l.698-1.18c-1.096.181-2.035.272-2.818.272-.296 0-.546-.089-.75-.267l-.228-.222a.969.969 0 0 1-.19-.736c.034-.207.129-.413.286-.616.114-.16.25-.281.406-.362a1.43 1.43 0 0 1 .673-.177c.034 0 .065.002.095.006.27.042.552.146.844.31.296.166.491.272.584.318-.182-.516-.296-.82-.343-.914a1.465 1.465 0 0 0-.343-.438c-.088-.089-.224-.154-.406-.197a.542.542 0 0 0-.127-.019c-.296 0-.514.024-.653.07l-.032.013c-.076.03-.189.084-.337.165-.321.173-.64.455-.958.844-.258.313-.444.63-.559.952a1.965 1.965 0 0 0-.127.673c0 .178.036.326.108.444a.76.76 0 0 0 .14.153c.076.059.154.108.235.146-.11.017-.3.025-.572.025h-.755v1.117m-2.418-4.05a5.07 5.07 0 0 0-.8.274 3.104 3.104 0 0 0-.736.463c-.106.11-.166.182-.178.216l-.02.095v.032c.018.068.083.12.198.159a4.6 4.6 0 0 0 .768.146c.237.025.444.038.622.038.097 0 .215-.004.355-.013l-.21-1.41m-.209-.862.641-.299c.06-.025.112-.044.159-.057.03.22.089.595.178 1.124.11.766.194 1.265.254 1.498.194.846.306 1.31.336 1.39l.02.05c.046.056.132.085.26.09h.774v1.117h-1.15c-.194 0-.327-.047-.4-.14-.105-.144-.236-.57-.393-1.276-.076-.33-.13-.56-.165-.692-.059.072-.186.19-.38.356l-.032.019a3.64 3.64 0 0 1-.527.412c-.17.102-.322.153-.457.153l-.07-.006c-.309-.034-.512-.104-.61-.21-.164-.152-.346-.42-.545-.806a3.09 3.09 0 0 1-.267-.698c.102-.237.269-.472.502-.705.169-.186.467-.434.895-.742.093-.068.167-.119.222-.153.216-.152.467-.294.755-.425m.114-1.923.864.609-.559.71-.863-.558.558-.761m-1.536 0 .864.609-.559.71-.863-.558.558-.761M19.437.006c.203.482.376 1.143.52 1.98.14.957.262 1.907.368 2.85.08.618.12 1.116.12 1.492l-.018.47-.787 1.01c.034-.225.05-.481.05-.769 0-.245-.031-.738-.095-1.479-.14-1.375-.241-2.22-.304-2.532-.068-.33-.208-.938-.42-1.822l.566-1.2m-1.854 6.138-.019.464-.044.26a.447.447 0 0 0-.02.057.862.862 0 0 1-.228.311.809.809 0 0 1-.527.165h-.857l-.825-.006V6.278h1.301c.14 0 .252-.049.337-.146.038-.055.057-.15.057-.286a2.5 2.5 0 0 0-.013-.235 294.31 294.31 0 0 0-.12-1.193 21.692 21.692 0 0 0-.229-1.397 39.682 39.682 0 0 0-.38-1.821L16.58 0c.334 1.033.64 1.813.914 2.342l-.292.35.165 1.269c.06.52.102.872.127 1.054a84.3 84.3 0 0 1 .089 1.13m-9.236 1.25c-.034.27-.093.531-.178.78a3.846 3.846 0 0 1-.317.718c-.22.385-.396.643-.527.775a1.028 1.028 0 0 1-.152.146c-.262.245-.487.416-.673.514-.157.089-.41.133-.762.133a2.183 2.183 0 0 1-.774-.12l-.908-.324c0-.005.034-.117.102-.337l.508.006c.27 0 .52-.012.749-.038l.228-.05c.339-.11.614-.265.825-.464.254-.178.506-.455.756-.832l.044-.057c.16-.24.26-.474.298-.698l.007-.146v-.076a2.085 2.085 0 0 0-.241-.813l-.051-.095-.762-1.212.578-.946c.038.03.082.076.133.14a13.705 13.705 0 0 1 .438.66c.258.44.425.753.501.94a.858.858 0 0 1 .032.075c.06.136.108.204.146.204h4.647l-.972-1.029-.54-.546-.202-.177c-.157-.132-.368-.214-.635-.248l-.197-.006c-.241.03-.624.142-1.149.336.368-.567.64-.905.813-1.015a1.35 1.35 0 0 1 .71-.254l.261.006c.258.03.47.112.635.248.048.04.121.107.218.202l.165.163c.273.277.67.695 1.191 1.253l.165.185.825.882h.768v1.117ZM2.577.723l1.035.73-.667.857-1.04-.673.672-.914M.673.82l1.035.73-.667.856L0 1.733.673.819m1.32 2.678c.334.39.578.694.73.914l.026.032c.126.14.27.366.431.68.026.046.045.084.057.113.093.182.15.453.172.813v.082c0 .322-.102.62-.305.895a1.541 1.541 0 0 1-1.022.388c-.6 0-1.02-.08-1.257-.242a1.364 1.364 0 0 1-.368-.457 1.032 1.032 0 0 1-.07-.38c0-.369.212-.91.635-1.625l.273-.464-.089-.12.584-.807.203.178m-.565 1.257c-.097.114-.188.24-.273.375a1.929 1.929 0 0 0-.203.38l-.019.07-.025.184.025.153.05.095c.01.008.018.017.026.025a1.053 1.053 0 0 0 .59.228h.712c.24 0 .431-.057.57-.171a.23.23 0 0 0 .09-.108c0-.05-.032-.142-.096-.273a1.734 1.734 0 0 0-.203-.336c-.334-.385-.69-.658-1.066-.82l-.178.198"/></svg>