<svg xmlns="http://www.w3.org/2000/svg" viewBox="0 0 130 17"><path fill="#484848" d="m122.63 0 7.365 16.784h-4.443l-1.366-3.316h-7.425l-1.235 3.316h-4.384L117.831 0h4.799m.333 10.536-2.673-6.524-2.436 6.524h5.109M113.316 0v3.076h-6.01v13.708h-4.135V3.076H97.16V0h16.156M91.932 0l7.365 16.784h-4.443l-1.366-3.316h-7.425l-1.235 3.316h-4.384L87.133 0h4.799m.333 10.536-2.673-6.524-2.436 6.524h5.109M64.003 0h7.318c2.83 0 5.06.785 6.7 2.355 1.65 1.56 2.47 3.58 2.47 6.067 0 2.6-.835 4.65-2.506 6.14-1.66 1.48-4.04 2.22-7.128 2.222h-6.854V0m4.134 3.075v10.633h2.697c1.75 0 3.09-.485 4.015-1.453.927-.977 1.39-2.26 1.39-3.857 0-1.65-.47-2.95-1.414-3.893-.935-.953-2.28-1.43-4.039-1.43h-2.649M60.177 0v16.784h-4.134V0h4.135m-7.829 0-5.405 7.881 7.33 8.903h-5.18l-6.57-7.87v7.87H38.39V0h4.134v7.557L47.8 0h4.55M34.565 0v16.784H30.43V0h4.134M14.203 6.055 9.07 17H7.289L-.005 0h4.383l3.909 9.275L12.55 0h3.327l4.265 9.275L24.027 0h4.384l-7.27 17h-1.783L14.203 6.055"/></svg>