<svg xmlns="http://www.w3.org/2000/svg" width="120" height="20"><path fill="#000" fill-rule="nonzero" d="m34.405 6.02.028.058v.633c0 .086-.055.144-.164.144l-.574.059c-.847.085-1.147.317-1.147.894v9.589c0 .633.273 1.008 1.147 1.094l.574.059c.082 0 .164.056.164.171v.605l-.028.059s-2.076-.059-2.923-.059c-.765 0-2.896.059-2.896.059l-.055-.059v-.605c0-.115.082-.171.192-.171l.546-.06c.902-.085 1.175-.546 1.175-1.093v-9.59c0-.632-.329-.807-1.175-.891l-.546-.06c-.11 0-.192-.026-.192-.115v-.663l.028-.058s1.974.053 2.887.057h.118c.738 0 2.841-.057 2.841-.057ZM20.111 0l.205.001h.387l.182.001h.331l.148.001h.255l.105.001h.254l.063.06v.549c0 .152-.085.227-.253.227-.827.039-.996.12-1.298.556-.165.238-.491.749-.829 1.321l-2.9 5.423-.08.17 3.543 7.25.215.06L26.02 2.371c.193-.534.164-.913-.086-1.135-.25-.218-.426-.346-1.073-.373l-.524-.026a.307.307 0 0 1-.184-.067.19.19 0 0 1-.087-.16V.059l.08-.056h6.306l.064.056v.552c0 .15-.085.225-.253.225-.827.036-1.44.216-1.836.536-.397.322-.707.766-.93 1.343 0 0-1.527 3.496-3.2 7.308l-.28.637-.282.64a1102.58 1102.58 0 0 1-3.128 7.07c-.672 1.28-1.333 1.163-1.915-.036a274.972 274.972 0 0 1-2.157-4.633l-.237-.52c-.333-.727-.659-1.444-.956-2.099-.373.77-.79 1.625-1.21 2.483l-.25.51-.126.255-.249.504c-.7 1.417-1.358 2.722-1.786 3.515-.784 1.364-1.43 1.185-1.944.036C7.994 14.175 4.33 6.783 2.606 2.64c-.319-.763-.56-1.253-.786-1.447C1.592 1.003 1.118.888.397.85.132.82 0 .756 0 .652V.075L.064.018l.37-.001h.328L.948.015h3.608l1.125.001H6.634l.1.001h.186l.064.057v.549c0 .152-.096.225-.286.225l-.715.03c-.614.025-.92.21-.92.55 0 .157.064.414.207.761.472 1.152 1.345 3.093 2.285 5.143l.27.588a856.325 856.325 0 0 0 3.562 7.617l.174.046 3.057-6.1c-.374-.825-.612-1.354-.612-1.354l-2.102-4.131-.248-.504-.113-.227a68.273 68.273 0 0 0-.184-.37C10.435 1.068 10.455.97 9.522.847 9.26.812 9.125.779 9.125.65V.07l.079-.056h.718l.202-.001 1.768-.001H14.644l.144.047v.577c0 .132-.094.2-.286.2l-.394.056c-.997.078-.834.485-.172 1.804l2.016 4.126 2.232-4.448c.348-.76.305-.988.172-1.168l-.03-.038c-.088-.106-.385-.276-1.03-.303l-.254-.027a.303.303 0 0 1-.183-.066.189.189 0 0 1-.086-.161V.06l.078-.056C17.157.003 17.536 0 17.95 0Zm20.5 17.397c0 .633.355.95 1.147 1.094l.3.059c.082.027.164.056.164.171v.605l-.027.059s-1.721-.059-2.54-.059c-.766 0-3.006.059-3.006.059l-.055-.059v-.605c0-.115.082-.171.191-.171l.547-.06c.82-.085 1.175-.546 1.175-1.093v-9.59c0-.632-.3-.807-1.175-.891l-.547-.06c-.109 0-.19-.026-.19-.115v-.663l.027-.058s2.24.058 3.087.058c.766 0 2.486-.058 2.486-.058l.027.058v.633c0 .086-.054.115-.164.144l-.3.059c-.847.171-1.148.317-1.148.894v4.348c.902 0 1.421-.489 2.623-1.843 1.093-1.268 1.94-2.332 1.94-2.88 0-.231-.246-.49-.792-.577-.11-.028-.164-.057-.164-.144V6.05l.027-.028s2.213.058 3.005.058c.71 0 1.913-.058 1.913-.058l.082.028v.663c0 .087-.082.144-.219.144-1.065.087-1.803.144-2.787 1.325l-2.35 2.85c-.464.519-.627.835-.627 1.066 0 .173.109.316.245.488l4.126 5.241c.328.402.983.576 1.53.69l.136.028c.082.029.192.086.192.173v.605l-.082.028s-1.448-.028-2.213-.028c-.683 0-1.667.028-1.667.028l-.027-.028v-.346c0-.375-.027-.69-.41-1.15l-3.033-3.976c-.41-.577-.847-.718-1.448-.718v4.265Zm14.728 0c0 .633.274 1.008 1.148 1.094l.574.059c.082 0 .164.056.164.171v.605l-.028.059s-2.076-.059-2.923-.059c-.765 0-2.896.059-2.896.059l-.055-.059v-.605c0-.115.082-.171.192-.171l.546-.06c.902-.085 1.175-.546 1.175-1.093v-9.59c0-.632-.328-.807-1.175-.891l-.546-.06c-.11 0-.192-.026-.192-.115v-.663l.028-.058s2.158.058 3.005.058c.738 0 2.841-.058 2.841-.058l.028.058v.633c0 .086-.055.144-.164.144l-.574.059c-.847.085-1.148.317-1.148.894v9.589Zm5.904-9.533c0-.893-.355-.921-1.64-1.008-.163 0-.19-.085-.19-.144V6.05l.054-.029c.41 0 2.022.058 2.814.058.765 0 1.858-.058 2.869-.058 3.877 0 4.588 2.015 4.588 3.514 0 1.73-.793 4.435-4.67 4.435-.683 0-1.23-.059-1.722-.288v3.856c0 .634.327.779 1.203.922l.547.086c.11.03.191.059.191.173v.605l-.026.057s-2.185-.057-3.032-.057c-.765 0-2.814.057-2.814.057l-.028-.057v-.605c0-.115.055-.144.164-.173l.574-.086c.847-.115 1.12-.374 1.12-.922l-.002-9.674Zm2.104 5.012c.546.231 1.23.259 1.775.259 1.64 0 2.43-1.039 2.43-3.254 0-2.477-1.066-3.024-2.566-3.024-1.313 0-1.64.26-1.64 1.008v5.01Zm14.803 5.663.629-.06c.82-.086 1.094-.345 1.094-1.236V7.74c0-.75-.194-.75-1.094-.835l-.6-.06c-.109 0-.193-.057-.193-.144v-.633l.027-.058s2.405.058 2.898.058c.517 0 2.896-.058 3.606-.058 4.563 0 6.804 2.995 6.804 6.825 0 5.04-3.389 6.535-6.42 6.535-2.186 0-3.141-.057-3.988-.057-.82 0-2.897.057-2.897.057l-.027-.057v-.605c-.003-.083.053-.17.161-.17Zm6.094 0c3.004 0 4.7-1.18 4.7-5.214 0-2.993-.63-6.48-5.22-6.48-1.065 0-1.748.173-1.748.895v9.503c0 .804.19 1.296 2.268 1.296Zm-9.59-1.156c0 .634.272 1.008 1.147 1.095l.573.058c.082 0 .164.057.164.172v.605l-.027.058s-2.076-.058-2.922-.058c-.766 0-2.896.058-2.896.058l-.056-.058v-.605c0-.115.082-.172.191-.172l.548-.058c.9-.087 1.175-.548 1.175-1.095V7.794c0-.632-.33-.807-1.175-.891l-.548-.06c-.109 0-.19-.027-.19-.115v-.664l.026-.057s2.159.057 3.004.057c.737 0 2.842-.057 2.842-.057l.026.057v.634c0 .086-.055.144-.164.144L75.8 6.9c-.847.086-1.148.317-1.148.894l.002 9.59Zm31.008 1.167.835.058c.115 0 .23.087.23.23v.547l-.057.058s-3.14-.058-3.83-.058c-.75 0-2.593.058-2.593.058l-.059-.058v-.547c0-.143.087-.23.232-.23 1.268-.086 1.986-.318 2.792-2.16l6.391-14.976c.316-.748.548-1.037.98-1.037.403 0 .548.289.777.865l5.903 15.607c.405 1.124.98 1.555 2.132 1.67l.317.028c.144 0 .288.086.288.231v.546l-.086.058s-2.218-.058-3.34-.058c-1.009 0-3.832.058-3.832.058l-.027-.058v-.546c0-.145.057-.231.203-.231l.807-.058c1.093-.085 1.498-.433 1.21-1.238l-1.757-4.867h-5.99c-.691 0-.864.115-1.007.488l-1.671 4.176c-.288.723.086 1.357 1.152 1.444Zm7.055-7.317-2.793-7.687h-.058l-2.88 7.314c-.115.289.086.374.72.374h5.01ZM96.432 16.93V8.737c-.019-.815.127-1.33.437-1.542.31-.213.897-.319 1.763-.317.076-.074.114-.187.114-.337 0-.15-.038-.263-.114-.337l-1.624.028a104.431 104.431 0 0 1-3.293 0l-1.631-.028c-.076.074-.114.186-.114.337 0 .15.038.263.114.337.866-.002 1.454.104 1.763.317.31.212.455.727.436 1.542v8.193c.02.816-.126 1.33-.436 1.543-.31.213-.897.318-1.763.316-.076.074-.114.187-.114.337 0 .151.038.264.114.338l1.624-.028a104.948 104.948 0 0 1 3.293 0 3259 3259 0 0 1 1.631.028c.076-.074.114-.187.114-.338 0-.15-.038-.263-.114-.337-.866.002-1.454-.103-1.763-.316-.31-.213-.456-.727-.437-1.543Z"/></svg>