<svg xmlns="http://www.w3.org/2000/svg" width="138" height="32"><path fill="#666" d="M37.297 1.01 33.84 9.1h-1.395l-2.074-4.708L28.244 9.1h-1.406L23.45 1.01h2.495l1.66 4.425 1.901-4.425h1.723l1.867 4.425 1.735-4.425h2.466Zm6.78 7.986h-6.022V1.01h5.924v1.6h-3.515v1.464h3.354v1.608h-3.354v1.706h3.613v1.607Zm6.849-2.322c0 .5-.129.932-.386 1.297-.254.365-.609.645-1.066.84-.457.193-.981.289-1.573.289a6.605 6.605 0 0 1-1.567-.207 7.544 7.544 0 0 1-1.24-.427v-1.96c.404.25.8.458 1.188.623a3.2 3.2 0 0 0 1.256.248c.41 0 .676-.067.795-.202.123-.138.184-.267.184-.386 0-.215-.103-.395-.31-.541-.208-.15-.51-.304-.905-.461a7.311 7.311 0 0 1-1.153-.6 2.795 2.795 0 0 1-.812-.818c-.208-.327-.312-.713-.312-1.158 0-.43.106-.818.317-1.164.212-.35.534-.628.968-.836.434-.207.965-.311 1.59-.311.447 0 .858.044 1.234.133.38.084.694.18.94.288.245.107.414.192.506.253v1.873a6.521 6.521 0 0 0-1.094-.628 3.029 3.029 0 0 0-1.285-.277c-.3 0-.517.058-.652.173a.54.54 0 0 0-.201.427c0 .157.067.294.201.409.135.115.375.255.72.42.615.289 1.107.548 1.476.778.369.23.657.498.864.801.212.3.317.675.317 1.124Zm9.332-3.723H57.33v6.045h-2.403V2.951H52V1.01h8.258v1.94Zm12.037 3.781c0 .687-.236 1.237-.709 1.648-.468.41-1.125.616-1.97.616H65V1.01h3.86c.5 0 .934.048 1.303.144.373.096.672.228.9.397.226.165.395.361.506.588.112.227.167.474.167.743a1.965 1.965 0 0 1-.605 1.423c-.169.158-.34.27-.513.335.546.215.96.488 1.245.818.288.327.432.751.432 1.274Zm-2.812-3.423c0-.384-.127-.64-.38-.767-.254-.126-.65-.19-1.187-.19h-.507v1.913h.518c.55 0 .945-.063 1.187-.19.246-.127.37-.382.37-.766Zm.392 3.325c0-.684-.496-1.026-1.487-1.026h-.98v2.046h.98c.991 0 1.487-.34 1.487-1.02Zm9.192 2.342h-6.021V.989h5.923v1.602h-3.515v1.464h3.354v1.607h-3.354v1.706h3.613v1.608Zm10.105.02H87.03l-4.143-4.448v4.448H80.5V1.01h2.138l4.132 4.425V1.01h2.403v7.986Zm9.448-.564c-.173.065-.321.119-.444.16a9.575 9.575 0 0 1-.847.249c-.365.084-.73.148-1.095.19a9.078 9.078 0 0 1-1.147.069c-.81 0-1.56-.148-2.247-.444a3.708 3.708 0 0 1-1.654-1.377c-.411-.622-.617-1.387-.617-2.293 0-.584.106-1.157.317-1.718.216-.564.542-1.016.98-1.354.361-.28.726-.493 1.095-.64.373-.15.736-.25 1.089-.3A8.544 8.544 0 0 1 95.22.9c.703 0 1.283.054 1.74.161.457.104.959.242 1.504.415v1.89a6.623 6.623 0 0 0-1.147-.53c-.403-.142-.906-.213-1.51-.213-.695 0-1.252.133-1.67.398-.415.26-.706.574-.87.939a2.616 2.616 0 0 0-.243 1.06c0 .404.094.776.283 1.118.188.338.472.61.852.818.38.204.84.306 1.378.306.307 0 .633-.04.98-.121V6.2h-1.084V4.595h3.187v3.838Zm10.349.564h-2.467l-.651-1.619h-3.469l-.662 1.62h-2.467l3.533-7.987h2.662l3.521 7.986Zm-3.671-3.008-1.17-2.916-1.181 2.916h2.351ZM116 8.996h-6.068V1.01h2.409v6.073H116v1.913Z"/><path fill="#999" d="M50.578 25.225v2.779c0 .285.042.511.126.68.087.169.227.308.42.417.194.11.42.164.677.164.283 0 .522-.051.718-.154a.989.989 0 0 0 .434-.424c.091-.18.137-.428.137-.745v-2.717h.923v2.837c0 .643-.193 1.137-.578 1.483-.385.345-.93.516-1.634.516-.442 0-.826-.078-1.152-.235a1.68 1.68 0 0 1-.741-.68 2.076 2.076 0 0 1-.257-1.05v-2.87h.926Zm5.526 1.521c.176 0 .34.02.496.062.155.038.319.101.492.188v.673a2.31 2.31 0 0 0-.513-.246 1.498 1.498 0 0 0-.488-.096.507.507 0 0 0-.284.068.22.22 0 0 0-.103.195c0 .048.029.096.086.144.057.048.213.135.468.263.365.185.62.355.766.513a.782.782 0 0 1 .222.56c0 .308-.107.55-.321.728-.215.176-.504.264-.869.264-.227 0-.44-.026-.639-.076a2.14 2.14 0 0 1-.489-.18v-.701c.41.227.756.341 1.036.341.144 0 .26-.025.349-.075.089-.052.133-.12.133-.205a.217.217 0 0 0-.048-.137.628.628 0 0 0-.143-.126 7.55 7.55 0 0 0-.599-.311c-.257-.123-.447-.257-.57-.4a.775.775 0 0 1-.185-.516c0-.283.11-.508.332-.677.22-.169.511-.253.871-.253Zm3.363 0c.47 0 .841.15 1.115.451.273.301.41.717.41 1.248v.126h-2.26c.035.285.14.505.318.66.18.153.427.229.739.229.2 0 .393-.034.577-.103.187-.07.38-.176.578-.317v.625c-.374.264-.827.396-1.36.396-.504 0-.915-.151-1.234-.454-.32-.303-.479-.706-.479-1.21 0-.485.147-.882.441-1.19.296-.307.681-.46 1.155-.46Zm.735 1.316c-.023-.232-.093-.414-.212-.543a.623.623 0 0 0-.488-.199.707.707 0 0 0-.513.188c-.128.126-.209.31-.243.554h1.456Zm3.418-1.316c.112 0 .221.025.328.075.11.05.236.135.38.253l-.301.735c-.244-.182-.44-.273-.588-.273a.631.631 0 0 0-.386.147 1.047 1.047 0 0 0-.304.382c-.076.16-.113.32-.113.479V30h-.841v-3.192h.84v.813h.014c.153-.307.307-.53.462-.666a.747.747 0 0 1 .51-.209Zm5.94-1.582c.588 0 1.171.13 1.75.393v.844c-.579-.294-1.148-.441-1.709-.441-.348 0-.658.07-.93.209-.27.139-.481.339-.632.601a1.73 1.73 0 0 0-.222.872c0 .487.162.88.485 1.179.326.296.755.444 1.286.444a2.233 2.233 0 0 0 .895-.181v-.793h-.79v-.721h1.713v1.969a2.796 2.796 0 0 1-.848.386c-.328.091-.67.136-1.025.136-.504 0-.96-.103-1.37-.31a2.347 2.347 0 0 1-.958-.872 2.355 2.355 0 0 1-.341-1.251c0-.467.114-.89.345-1.268.232-.378.554-.672.967-.882a3.02 3.02 0 0 1 1.384-.314Zm4.693 1.582c.112 0 .221.025.328.075.11.05.236.135.38.253l-.301.735c-.244-.182-.44-.273-.588-.273a.631.631 0 0 0-.386.147 1.047 1.047 0 0 0-.305.382 1.12 1.12 0 0 0-.112.479V30h-.841v-3.192h.84v.813h.014c.153-.307.307-.53.462-.666a.747.747 0 0 1 .509-.209Zm2.68 0c.332 0 .634.07.905.209.271.139.481.333.63.584.147.25.221.534.221.851 0 .33-.071.62-.215.868a1.47 1.47 0 0 1-.629.588 1.94 1.94 0 0 1-.912.215c-.335 0-.64-.071-.913-.215a1.517 1.517 0 0 1-.626-.588 1.727 1.727 0 0 1-.212-.868c0-.321.076-.606.226-.854.15-.251.36-.445.629-.581a1.92 1.92 0 0 1 .895-.209Zm-.869 1.644c0 .32.078.574.233.766a.777.777 0 0 0 .629.284c.273 0 .489-.092.646-.274.157-.182.236-.443.236-.783 0-.323-.08-.573-.24-.748-.157-.178-.371-.267-.642-.267a.78.78 0 0 0-.622.28c-.16.187-.24.434-.24.742Zm4.249-1.582v1.975c0 .208.051.366.154.475a.55.55 0 0 0 .413.16.723.723 0 0 0 .407-.129.936.936 0 0 0 .314-.366v-2.115h.841V30h-.84v-.434c-.304.33-.632.495-.985.495-.342 0-.618-.111-.827-.334-.21-.224-.315-.515-.315-.875v-2.044h.838Zm4.754-.062c.456 0 .823.153 1.1.458.28.305.421.703.421 1.193 0 .321-.066.608-.198.861-.13.253-.316.45-.557.592a1.594 1.594 0 0 1-.82.211 1.66 1.66 0 0 1-.75-.188v1.737h-.84v-4.802h.834v.205c.253-.178.523-.267.81-.267Zm-.803 2.512c.21.121.405.181.588.181a.79.79 0 0 0 .635-.283c.16-.19.24-.433.24-.732 0-.325-.072-.58-.216-.765-.14-.185-.343-.277-.605-.277a.8.8 0 0 0-.283.051 1.562 1.562 0 0 0-.36.209v1.616Z"/><path fill="#484848" d="m21.37 11.36-5.186 11.778h-2.091l-3.112-6.854-3.19 6.854H5.684L.6 11.358h3.743l2.49 6.444 2.852-6.443h2.585l2.8 6.443 2.602-6.443h3.699Zm5.29 11.627h-3.612V11.36h3.613v11.628Zm15.343 0h-4.409l-4.58-5.445v5.445H29.4V11.359h3.613v5.202l4.34-5.202h3.924l-4.46 5.445 5.186 6.183Zm5.61 0H44V11.359h3.613v11.628Zm16.321 0H60.32V16.25l-3.26 3.901h-.284l-3.267-3.9v6.736H50V11.359h3.276l3.682 4.363 3.7-4.363h3.276v11.628Zm11.099 0H66V11.359h8.886v2.332h-5.273v2.131h5.031v2.34h-5.03v2.484h5.419v2.341Zm14.284-5.604c0 1.191-.223 2.148-.67 2.869-.446.721-.972 1.306-1.577 1.754-.859.654-2.06.981-3.604.981H77V11.359h4.979c.749 0 1.39.038 1.923.114a8.71 8.71 0 0 1 1.44.318c.425.137.788.291 1.088.462.3.17.568.354.804.55.409.324.768.707 1.076 1.149.309.441.553.953.735 1.535.182.582.272 1.214.272 1.896Zm-3.673-.151c0-.945-.186-1.682-.558-2.21-.372-.53-.818-.883-1.34-1.062a4.88 4.88 0 0 0-1.595-.269h-1.538v6.888h1.538c.946 0 1.764-.218 2.455-.654.692-.437 1.038-1.334 1.038-2.693Zm8.969 5.755H91V11.359h3.613v11.628Zm16.68 0h-3.699l-.977-2.357h-5.204l-.993 2.357h-3.7l5.299-11.628h3.993l5.281 11.628Zm-5.506-4.38-1.754-4.244-1.772 4.245h3.526Zm20.222 4.38h-3.216l-6.214-6.477v6.477H113V11.359h3.207l6.197 6.443V11.36h3.605v11.628Zm11.542-3.381c0 .727-.191 1.356-.574 1.888-.384.531-.918.938-1.604 1.22-.686.283-1.472.424-2.36.424-.248 0-.551-.015-.912-.046-.36-.03-.838-.116-1.435-.256a11.455 11.455 0 0 1-1.862-.62v-2.853c.605.363 1.199.666 1.784.906s1.212.36 1.88.36c.617 0 1.016-.099 1.198-.297.181-.199.272-.385.272-.558 0-.314-.155-.578-.467-.793-.311-.215-.763-.438-1.357-.667a10.874 10.874 0 0 1-1.729-.877 4.038 4.038 0 0 1-1.214-1.187c-.314-.475-.471-1.037-.471-1.686 0-.626.158-1.193.475-1.699.317-.506.801-.91 1.452-1.212.652-.302 1.447-.453 2.386-.453.669 0 1.287.063 1.855.189a8.225 8.225 0 0 1 1.404.423c.369.157.622.28.761.37v2.726a9.966 9.966 0 0 0-1.638-.915 4.694 4.694 0 0 0-1.932-.402c-.45 0-.776.084-.977.252a.778.778 0 0 0-.303.62c0 .23.101.428.303.596.201.168.561.372 1.08.613.922.419 1.66.797 2.213 1.132.553.336.987.723 1.301 1.162.314.439.471.986.471 1.64Z"/></svg>