<svg xmlns="http://www.w3.org/2000/svg" width="120" height="14"><path fill="#000" fill-rule="nonzero" d="M4.674 9.346H3.055c-.408 0-.662-.27-.662-.71V1.76c0-.398.197-.554.775-.596l.366-.028c.07 0 .112-.043.112-.114v-.27L3.618.724C2.957.737 2.38.752 1.816.752 1.267.752.69.737.028.723L0 .752v.27c0 .07.056.113.113.113l.38.028c.535.042.76.17.76.596v7.119c0 .496-.155.567-.718.61l-.422.028A.111.111 0 0 0 0 9.629v.27l.028.028C.69 9.913 1.268 9.9 1.816 9.9H4.83c.38 0 1.675.028 1.675.028.057-.794.212-1.63.366-2.368l-.422-.071c-.281 1.021-.704 1.858-1.774 1.858m3.803-7.53c0 .368.31.68.675.68a.688.688 0 0 0 .676-.68c0-.37-.31-.681-.676-.681a.688.688 0 0 0-.675.68M9.8 3.673c0-.028-.028-.042-.056-.042-.395.156-.986.283-1.985.44l.028.34.605.056c.197.029.31.17.31.88v3.53c0 .412-.127.554-.606.61l-.267.029c-.07.014-.113.043-.113.113v.27l.028.028c.564-.014.958-.028 1.465-.028.535 0 .943.014 1.506.028l.028-.028v-.27c0-.07-.056-.099-.126-.113l-.268-.028c-.436-.043-.591-.199-.591-.61V5.347c0-.71.042-1.674.042-1.674m3.495 5.219v-4c.55-.567 1.282-.595 1.436-.595.86 0 1.549 1.05 1.549 2.425 0 1.617-.634 2.837-1.971 2.837-.436 0-.732-.312-1.014-.667M12.24 1.915v6.977c0 .553-.014.794-.07 1.106.085.057.155.071.296.071.14-.128.338-.369.464-.553.409.355.86.525 1.464.525 1.437 0 3.084-1.32 3.084-3.574 0-1.73-1.24-2.794-2.464-2.794-.676 0-1.239.255-1.718.78V1.631c0-.922.043-1.49.043-1.49 0-.098-.057-.141-.183-.141-.352.142-1.338.326-1.901.369l.028.34c0 .043.042.071.085.071l.45.028c.282 0 .422.185.422 1.107m7.587 3.914c.254-1.603 1.295-1.674 1.62-1.674.506 0 1.168.284 1.168 1.475 0 .128-.057.199-.197.199h-2.59m3.716 2.723c-.493.539-.986.794-1.76.794-.788 0-1.999-.851-1.999-2.964h3.703c.155 0 .253-.085.253-.241 0-1.192-.436-2.468-2.295-2.468-1.337 0-2.787 1.248-2.787 3.404 0 1.63.858 2.964 2.787 2.964 1.014 0 1.845-.525 2.38-1.262-.043-.142-.127-.213-.282-.227m2.132.326c0 .411-.14.567-.605.61l-.268.028c-.07.014-.099.043-.099.113v.27l.015.028c.52-.014.957-.028 1.464-.028.535 0 1.14.014 1.661.028l.028-.028v-.27c0-.07-.056-.113-.127-.113l-.408-.028c-.45-.029-.605-.199-.605-.61V5.772c0-.184.07-.369.169-.496.338-.483.647-.738.802-.738.099 0 .197.043.282.128.14.142.295.255.577.255.366 0 .605-.227.605-.596 0-.368-.21-.652-.788-.652-.662 0-1.281.723-1.647 1.276h-.042l.042-1.276c0-.028-.028-.042-.057-.042-.394.156-.957.283-1.942.44l.028.34.605.056c.197.029.31.17.31.88v3.53m7.844-2.282V8.48c0 .184-.084.283-.197.368-.366.298-.845.61-1.239.61a1.013 1.013 0 0 1-1.042-1.007c0-.638.324-1.276 1.366-1.56l1.112-.297m0 2.623c.085.298.31.823 1.056.823.69 0 1.168-.568 1.168-.638 0-.1-.098-.213-.154-.213-.085 0-.127.227-.465.227-.549 0-.563-.582-.563-1.234V6.07c0-2.014-1.042-2.397-2.07-2.397-1.154 0-2.323.808-2.323 1.574 0 .34.17.497.493.497.408 0 .62-.284.62-.468 0-.1-.015-.199-.043-.256a.987.987 0 0 1-.028-.283c0-.44.634-.638 1.169-.638.478 0 1.14.283 1.14 1.886 0 .099-.042.156-.084.17l-1.211.298c-1.352.34-2.295 1.092-2.295 2.056 0 1.12.76 1.532 1.746 1.532.647 0 .915-.114 1.534-.596l.282-.227h.028m7.639-3.39c.253-1.602 1.295-1.673 1.619-1.673.506 0 1.168.284 1.168 1.475 0 .128-.056.199-.197.199h-2.59m3.716 2.723c-.492.539-.985.794-1.76.794-.788 0-1.999-.851-1.999-2.964h3.703c.155 0 .253-.085.253-.241 0-1.192-.436-2.468-2.294-2.468-1.338 0-2.788 1.248-2.788 3.404 0 1.63.859 2.964 2.788 2.964 1.013 0 1.844-.525 2.379-1.262-.042-.142-.127-.213-.282-.227m3.104-4.879c0-.028-.028-.042-.057-.042-.394.156-.957.283-1.942.44l.028.34.605.056c.197.029.31.17.31.88v3.53c0 .412-.141.568-.606.61l-.267.029c-.07.014-.113.043-.113.113v.27l.028.028c.564-.014.916-.028 1.465-.028.577 0 .873.014 1.436.028l.028-.028v-.27c0-.07-.042-.099-.113-.113l-.197-.028c-.464-.071-.605-.199-.605-.61V5.446c.718-.851 1.253-1.092 1.872-1.092.746 0 .915.468.915 1.46v3.064c0 .411-.155.539-.605.61l-.197.028c-.07.014-.113.043-.113.113v.27l.028.028c.564-.014.845-.028 1.394-.028.577 0 .943.014 1.507.028l.028-.028v-.27c0-.07-.057-.099-.127-.113l-.267-.028c-.437-.043-.592-.199-.592-.61V5.914c0-1.262-.281-2.24-1.548-2.24-.718 0-1.394.198-2.295 1.261h-.043l.043-1.262m10.716 4.935c-.057-.127-.17-.184-.296-.198-.437.638-1.084 1.007-1.69 1.007-1.084 0-1.872-1.12-1.872-2.78 0-1.56.718-2.482 1.647-2.482.83 0 .943.61 1 1.078.042.355.21.496.507.496.295 0 .661-.198.661-.61 0-.751-.746-1.446-2.097-1.446-1.521 0-2.915 1.262-2.915 3.276 0 1.83.986 3.092 2.76 3.092.844 0 1.59-.27 2.295-1.433m3.248-4.524V3.83l-.028-.042c-.52.014-1.028.028-1.534.028-.48 0-.902-.014-1.183-.028l-.028.028v.284c0 .056.056.085.14.099.465.042.634.156.86.695l1.773 4.155c.113.284.24.667.24.808 0 .128-.029.27-.113.44-.352.865-.873 2.113-1.084 2.113-.14 0-.24-.1-.38-.241a.516.516 0 0 0-.437-.199c-.225 0-.535.128-.535.554 0 .51.55.666.817.666 1 0 1.534-1.22 1.957-2.24 1.126-2.738 1.746-4.198 2.492-5.787.197-.411.478-.922 1-.964.098-.014.154-.043.154-.114v-.27l-.042-.027c-.352.014-.577.028-.971.028-.493 0-.803-.014-1.324-.028l-.028.042v.27c0 .07.07.099.14.099.437.042.86.127.55.695l-1.563 3.602-1.549-3.659c-.21-.482-.014-.596.521-.638.07 0 .155-.043.155-.114m9.837 4.524c-.056-.127-.169-.184-.296-.198-.436.638-1.084 1.007-1.69 1.007-1.083 0-1.872-1.12-1.872-2.78 0-1.56.718-2.482 1.648-2.482.83 0 .943.61 1 1.078.041.355.21.496.506.496.296 0 .662-.198.662-.61 0-.751-.746-1.446-2.098-1.446-1.52 0-2.914 1.262-2.914 3.276 0 1.83.985 3.092 2.76 3.092.844 0 1.59-.27 2.294-1.433m1.7.27c0 .411-.14.567-.605.61l-.338.028c-.07 0-.099.043-.099.113v.27l.014.028c.704-.014.986-.028 1.535-.028.577 0 .859.014 1.563.028l.028-.028v-.27a.111.111 0 0 0-.113-.113l-.338-.028c-.464-.043-.591-.199-.591-.61V1.63c0-.922.042-1.49.042-1.49 0-.098-.056-.141-.183-.141-.352.142-1.323.326-1.9.369l.028.34c0 .043.042.071.084.071l.45.028c.282 0 .423.185.423 1.107v6.963m2.935-1.886c0 1.446 1 3.049 2.886 3.049 2 0 2.914-1.759 2.914-3.177 0-1.475-.802-3.19-2.886-3.19-1.872 0-2.914 1.375-2.914 3.318m2.76-2.85c1.154 0 1.844 1.091 1.844 3.176 0 1.872-.845 2.255-1.479 2.255-1.393 0-1.928-1.816-1.928-2.908 0-1.233.436-2.524 1.562-2.524m5.844 1.347c.31-.751.985-1.163 1.464-1.163.859 0 1.591 1.022 1.591 2.624 0 1.163-.38 2.61-1.886 2.61-.226 0-.676-.029-1.169-.61v-3.46m-1.056-.142v6.835c0 .397-.155.553-.605.596l-.268.028c-.07.014-.112.043-.112.114v.27l.028.027c.52-.014.957-.028 1.464-.028.535 0 .985.014 1.506.028l.028-.028v-.27c0-.07-.056-.099-.126-.113l-.268-.028c-.436-.043-.591-.199-.591-.596V9.73c.366.198.746.312 1.253.312.746 0 1.422-.241 1.971-.794.634-.653.986-1.532.986-2.68 0-1.504-1-2.894-2.366-2.894-.45 0-1.196.142-1.844 1.135h-.042l.042-1.135c0-.028-.028-.042-.056-.042-.409.156-.944.283-1.943.44l.028.34.605.056c.197.029.31.17.31.88m10.063 1.248V8.48c0 .184-.084.283-.197.368-.366.298-.844.61-1.239.61a1.013 1.013 0 0 1-1.041-1.007c0-.638.323-1.276 1.365-1.56l1.112-.297m0 2.623c.085.298.31.823 1.056.823.69 0 1.169-.568 1.169-.638 0-.1-.099-.213-.155-.213-.085 0-.127.227-.465.227-.549 0-.563-.582-.563-1.234V6.07c0-2.014-1.042-2.397-2.07-2.397-1.154 0-2.322.808-2.322 1.574 0 .34.169.497.492.497.409 0 .62-.284.62-.468 0-.1-.014-.199-.042-.256a.987.987 0 0 1-.029-.283c0-.44.634-.638 1.169-.638.479 0 1.14.283 1.14 1.886 0 .099-.042.156-.084.17l-1.21.298c-1.352.34-2.296 1.092-2.296 2.056 0 1.12.76 1.532 1.746 1.532.648 0 .915-.114 1.535-.596l.281-.227h.028m4.01-3.39c.254-1.602 1.296-1.673 1.62-1.673.507 0 1.169.284 1.169 1.475 0 .128-.057.199-.198.199h-2.59m3.717 2.723c-.493.539-.986.794-1.76.794-.789 0-2-.851-2-2.964h3.703c.155 0 .254-.085.254-.241 0-1.192-.437-2.468-2.295-2.468-1.338 0-2.788 1.248-2.788 3.404 0 1.63.86 2.964 2.788 2.964 1.014 0 1.844-.525 2.38-1.262-.043-.142-.127-.213-.282-.227m5.677.014c-.633.51-1.182.808-1.548.808-.76 0-1.535-.837-1.535-2.61 0-1.02.183-1.588.394-1.885a1.473 1.473 0 0 1 1.31-.71c.661 0 1.042.298 1.38.837v3.56m1.055-6.935c0-.922.043-1.49.043-1.49 0-.098-.057-.141-.183-.141-.352.142-1.324.326-1.901.369l.028.34c0 .043.042.071.085.071l.45.028c.282 0 .422.185.422 1.107v2.07c-.323-.184-.943-.312-1.224-.312-.93 0-1.549.312-2.112.851-.606.61-.943 1.447-.943 2.496 0 1.744.844 3.02 2.365 3.02.563 0 1.267-.453 1.914-.978l.029.014-.029.993h.324c.31-.255.93-.44 1.802-.596l-.042-.326-.676-.07c-.295-.029-.352-.114-.352-.823V1.63m2.529.184c0 .369.31.681.676.681a.688.688 0 0 0 .675-.68c0-.37-.31-.681-.675-.681a.688.688 0 0 0-.676.68m1.323 1.858c0-.028-.028-.042-.056-.042-.394.156-.985.283-1.985.44l.028.34.605.056c.198.029.31.17.31.88v3.53c0 .412-.127.554-.605.61l-.268.029c-.07.014-.112.043-.112.113v.27l.028.028c.563-.014.957-.028 1.464-.028.535 0 .943.014 1.506.028l.029-.028v-.27c0-.07-.057-.099-.127-.113l-.268-.028c-.436-.043-.59-.199-.59-.61V5.347c0-.71.041-1.674.041-1.674m5.439 2.922V8.48c0 .184-.085.283-.198.368-.366.298-.844.61-1.238.61a1.013 1.013 0 0 1-1.042-1.007c0-.638.323-1.276 1.365-1.56l1.113-.297m0 2.623c.084.298.31.823 1.055.823.69 0 1.169-.568 1.169-.638 0-.1-.099-.213-.155-.213-.084 0-.127.227-.464.227-.55 0-.564-.582-.564-1.234V6.07c0-2.014-1.041-2.397-2.07-2.397-1.154 0-2.322.808-2.322 1.574 0 .34.169.497.493.497.408 0 .619-.284.619-.468 0-.1-.014-.199-.042-.256a.987.987 0 0 1-.028-.283c0-.44.633-.638 1.168-.638.479 0 1.14.283 1.14 1.886 0 .099-.042.156-.084.17l-1.21.298c-1.352.34-2.296 1.092-2.296 2.056 0 1.12.76 1.532 1.746 1.532.648 0 .915-.114 1.535-.596l.281-.227h.029"/></svg>