<?xml version="1.0" encoding="UTF-8"?>
<svg width="123px" height="11px" viewBox="0 0 123 11" version="1.1" xmlns="http://www.w3.org/2000/svg" xmlns:xlink="http://www.w3.org/1999/xlink">
    <title>sh-tagline</title>
    <g id="Page-1" stroke="none" stroke-width="1" fill="none" fill-rule="evenodd">
        <path d="M120.74219,5.1605758 L119.87207,5.3915358 C119.17741,5.5741558 118.83008,5.9769858 118.83008,6.6000258 C118.83008,6.7969658 118.89898,6.9768958 119.03686,7.1398258 C119.17472,7.3027458 119.36898,7.3842058 119.61963,7.3842058 C119.87028,7.3842058 120.19254,7.2248658 120.58643,6.9061758 C120.69026,6.8273758 120.74219,6.7325158 120.74219,6.6215158 L120.74219,5.1605758 Z M120.74219,7.1962158 L120.72069,7.1962158 L120.50048,7.3680958 C120.25699,7.5578758 120.05915,7.6823058 119.90697,7.7413858 C119.75479,7.8004858 119.55337,7.8299958 119.30272,7.8299958 C118.88736,7.8299958 118.55256,7.7350858 118.29833,7.5453158 C118.0441,7.3555458 117.91698,7.0547658 117.91698,6.6429758 C117.91698,6.2777458 118.08348,5.9545858 118.41649,5.6734958 C118.7495,5.3924058 119.18814,5.1838358 119.73241,5.0477658 L120.67772,4.8168058 C120.72072,4.8025058 120.74212,4.7595058 120.74222,4.6878958 C120.74221,3.7354258 120.44501,3.2591958 119.85062,3.2591858 C119.60712,3.2591958 119.39407,3.2976858 119.21146,3.3746658 C119.02884,3.4516658 118.93753,3.5671358 118.93753,3.7211058 C118.93753,3.8213658 118.94453,3.8929758 118.95903,3.9359458 C118.98053,3.9789458 118.99123,4.0451658 118.99123,4.1346758 C118.99123,4.2205758 118.94733,4.3029758 118.85964,4.3817458 C118.77194,4.4605458 118.65464,4.4999158 118.50783,4.4999058 C118.2536,4.4999158 118.12648,4.3710058 118.12648,4.1131958 C118.12648,3.9198358 118.21418,3.7282658 118.38967,3.5384858 C118.56512,3.3487058 118.79429,3.1938458 119.07717,3.0738858 C119.36004,2.9539358 119.64829,2.8939558 119.94191,2.8939558 C120.11737,2.8939558 120.2785,2.9073558 120.42531,2.9342558 C120.57212,2.9611558 120.72072,3.0157558 120.87111,3.0980758 C121.0215,3.1804758 121.14862,3.2878558 121.25246,3.4203358 C121.3563,3.5528358 121.44045,3.7327658 121.5049,3.9601358 C121.5693,4.1875158 121.6016,4.4515958 121.6016,4.7523758 L121.6016,6.3905558 C121.6016,6.4943958 121.60249,6.5767558 121.6046,6.6376258 C121.6066,6.6985258 121.6116,6.7710058 121.6207,6.8551558 C121.6297,6.9392558 121.6431,7.0046558 121.661,7.0511958 C121.6789,7.0976958 121.704,7.1442958 121.7362,7.1908458 C121.7684,7.2373458 121.8105,7.2714458 121.86242,7.2928958 C121.91432,7.3143958 121.97431,7.3250958 122.04235,7.3250958 C122.11035,7.3250958 122.16767,7.3107958 122.21423,7.2820958 C122.26073,7.2534958 122.29653,7.2247958 122.32165,7.1961958 C122.34675,7.1675958 122.36635,7.1531958 122.38075,7.1531958 C122.40225,7.1532058 122.43175,7.1746958 122.46935,7.2176958 C122.50695,7.2606958 122.52575,7.3000958 122.52575,7.3358558 C122.52575,7.3609558 122.48725,7.4110558 122.41027,7.4862458 C122.33327,7.5614458 122.2178,7.6375358 122.06384,7.7145158 C121.90986,7.7915158 121.75231,7.8299958 121.59118,7.8299958 C121.45511,7.8299958 121.33336,7.8084958 121.22595,7.7655958 C121.11852,7.7225958 121.03348,7.6661958 120.97082,7.5964058 C120.90812,7.5266058 120.85892,7.4594458 120.82311,7.3949858 C120.78731,7.3304858 120.76041,7.2642958 120.74251,7.1962558 L120.74219,7.1962158 Z M116.6333,6.5248358 C116.6333,7.4414958 116.5805,8.1674958 116.47485,8.7028158 C116.36922,9.2381258 116.19466,9.6078358 115.95117,9.8119458 C115.66829,10.0411058 115.33529,10.1556958 114.95215,10.1556958 C114.82324,10.1556958 114.69344,10.1108958 114.56274,10.0214158 C114.43205,9.9319158 114.3667,9.8137258 114.3667,9.6669258 C114.3667,9.5738258 114.4043,9.4959458 114.47949,9.4332758 C114.55469,9.3705758 114.62809,9.3392758 114.69971,9.3392758 C114.78921,9.3392758 114.868,9.3535758 114.93603,9.3822758 C115.00403,9.4108758 115.05241,9.4386758 115.08105,9.4655758 C115.10975,9.4923758 115.14375,9.5308758 115.1831,9.5810558 C115.2619,9.6992158 115.34603,9.7582958 115.43555,9.7583058 C115.50355,9.7582958 115.56177,9.7279058 115.61011,9.6670058 C115.65841,9.6061058 115.69601,9.5139258 115.7229,9.3903958 C115.7497,9.2668558 115.7703,9.1406358 115.7847,9.0117258 C115.799,8.8828258 115.808,8.7172158 115.8116,8.5149058 C115.8156,8.3125958 115.8166,8.1362358 115.8166,7.9858458 C115.8166,7.8354558 115.8146,7.6447858 115.8116,7.4138258 C115.8076,7.1828758 115.8066,7.0065258 115.8066,6.8847758 L115.8066,3.8501058 C115.8066,3.6889758 115.7762,3.5735058 115.7153,3.5036758 C115.6544,3.4338758 115.52731,3.3881958 115.33396,3.3667058 L115.12448,3.3452058 C115.06718,3.3382058 115.03858,3.3094058 115.03858,3.2593058 L115.03858,3.0014958 L115.06008,2.9799958 C115.5578,2.9942958 115.93915,3.0014958 116.20412,3.0014958 L116.61233,2.9799958 L116.63383,3.0014958 L116.6333,6.5248358 Z M115.564451,1.1322558 C115.564451,1.0033558 115.627151,0.8833958 115.752441,0.7723958 C115.877771,0.6613958 116.006671,0.6058858 116.139161,0.6058858 C116.282391,0.6058858 116.405921,0.6658858 116.509771,0.7858158 C116.613601,0.9057758 116.665531,1.0355858 116.665531,1.1752258 C116.665531,1.2969758 116.607331,1.4160358 116.490971,1.5324058 C116.37459,1.6487858 116.243001,1.7069658 116.096191,1.7069658 C115.963701,1.7069658 115.841961,1.6469658 115.730961,1.5270258 C115.619951,1.4070858 115.564451,1.2754858 115.564451,1.1322558 L115.564451,1.1322558 Z M109.53271,3.0013958 L110.86475,2.9798958 L110.89695,3.0013958 L110.89695,3.2806958 C110.89695,3.3236958 110.87185,3.3450958 110.82175,3.3450958 L110.46725,3.3665958 C110.24167,3.3808958 110.1047,3.4157958 110.05637,3.4713358 C110.00807,3.5268358 109.98387,3.6673858 109.98387,3.8929658 L109.98387,6.5140558 L112.40623,3.7855458 C112.40622,3.7067458 112.40323,3.6476958 112.39823,3.6082958 C112.39323,3.5688958 112.37763,3.5267958 112.35253,3.4820758 C112.32743,3.4373758 112.28633,3.4050758 112.22899,3.3853758 C112.17169,3.3656758 112.09471,3.3522758 111.99804,3.3450758 C111.96224,3.3450758 111.94434,3.3271758 111.94434,3.2913758 L111.94434,3.0013358 L111.96584,2.9798358 C112.31675,2.9941358 112.6032,3.0013358 112.82521,3.0013358 L114.15725,2.9798358 L114.16795,3.0013358 L114.16795,3.2806358 C114.16795,3.3236358 114.14465,3.3450358 114.09815,3.3450358 L113.74903,3.3665358 C113.53418,3.3773358 113.4017,3.4104358 113.35157,3.4659358 C113.30147,3.5214358 113.27637,3.6637758 113.27637,3.8929358 L113.27637,6.8524058 C113.27636,7.0565158 113.30497,7.1889958 113.36227,7.2498658 C113.41597,7.3071658 113.54489,7.3429658 113.74899,7.3572958 L114.09811,7.3841958 C114.14461,7.3841958 114.16795,7.4056958 114.16795,7.4486958 L114.16795,7.7226158 L114.15721,7.7441358 C113.52699,7.7298158 113.08298,7.7226158 112.82517,7.7226158 C112.58884,7.7226158 112.15557,7.7296158 111.52537,7.7441358 L111.50387,7.7226158 L111.50387,7.4379458 C111.50386,7.4021458 111.52177,7.3842458 111.55757,7.3842458 L111.9228,7.3573458 C112.13406,7.3465458 112.26744,7.3099458 112.32295,7.2472358 C112.37845,7.1845358 112.40615,7.0529858 112.40625,6.8524558 L112.40625,4.2582258 L109.98389,6.9867358 L109.98389,7.0082358 C109.98388,7.1478758 110.00979,7.2418758 110.06179,7.2902158 C110.11369,7.3385158 110.23455,7.3699158 110.42434,7.3842158 C110.47084,7.3842158 110.49414,7.4057158 110.49414,7.4487158 L110.49414,7.7226358 L110.47804,7.7441358 L110.11817,7.7333358 C110.00001,7.7293358 109.90064,7.7273358 109.82008,7.7253358 C109.73948,7.7233358 109.64373,7.7223358 109.53272,7.7223358 C109.29998,7.7223358 108.8685,7.7293358 108.23829,7.7438358 L108.22759,7.7223358 L108.22759,7.4376658 C108.22759,7.4018658 108.24549,7.3839658 108.28129,7.3839658 L108.65727,7.3570658 C108.87211,7.3427658 109.00281,7.3087658 109.04936,7.2550158 C109.09586,7.2013158 109.11916,7.0741858 109.11916,6.8736658 L109.11916,3.9034458 C109.11916,3.6707058 109.09676,3.5265858 109.05206,3.4710758 C109.00726,3.4155758 108.87571,3.3806758 108.65729,3.3663358 L108.30279,3.3448358 C108.25269,3.3448358 108.22759,3.3269358 108.22759,3.2911358 L108.22759,3.0010958 L108.25979,2.9795958 C108.77541,2.9938958 109.19973,3.0010958 109.53273,3.0010958 L109.53271,3.0013958 Z M102.22803,9.1298158 L102.29783,7.6688758 C102.30483,7.5077458 102.4142,7.4128558 102.62547,7.3842058 C103.03367,7.3412058 103.26463,7.1980058 103.31834,6.9545158 C103.45441,6.3744458 103.56004,5.8355458 103.63523,5.3378258 C103.71043,4.8401058 103.74802,4.2958358 103.74803,3.7050058 C103.74802,3.5044958 103.59047,3.3916958 103.27537,3.3666258 L102.9531,3.3451258 C102.8958,3.3451258 102.8672,3.3272258 102.8672,3.2914258 L102.8672,3.0013858 L102.9102,2.9798858 C103.51892,2.9941858 103.88952,3.0013858 104.02201,3.0013858 L106.25639,3.0013858 L107.49711,2.9798858 L107.50781,3.0013858 L107.50781,3.2215958 C107.50781,3.2430958 107.49981,3.2618958 107.48361,3.2779958 C107.46751,3.2940958 107.45051,3.3021958 107.43261,3.3021958 L107.22313,3.3236958 C107.01187,3.3451958 106.86953,3.3898958 106.79613,3.4579658 C106.72273,3.5259658 106.68602,3.6531258 106.68602,3.8393158 L106.68602,6.8847258 C106.68602,6.9814258 106.70032,7.0628658 106.72902,7.1291058 C106.75762,7.1953058 106.79882,7.2445858 106.85256,7.2768158 C106.90626,7.3090158 106.9546,7.3323158 106.99758,7.3466158 C107.04058,7.3609158 107.09428,7.3735158 107.15871,7.3842158 C107.35565,7.4128158 107.45412,7.5041758 107.45412,7.6581458 L107.51852,9.1298258 L107.22311,9.1298258 C107.19801,9.0223958 107.16851,8.9158758 107.13451,8.8102458 C107.10051,8.7046058 107.04501,8.5828658 106.96801,8.4450058 C106.89101,8.3071458 106.80418,8.1880958 106.70751,8.0878358 C106.61081,7.9875658 106.4846,7.9016358 106.32885,7.8300158 C106.17308,7.7584158 106.0021,7.7225958 105.81591,7.7225958 L103.91454,7.7225958 C103.72834,7.7225958 103.55736,7.7601958 103.4016,7.8353858 C103.24584,7.9105858 103.12141,7.9992058 103.02831,8.1012558 C102.93521,8.2033058 102.85106,8.3259458 102.77587,8.4691758 C102.70067,8.6124058 102.64696,8.7332558 102.61474,8.8317258 C102.58254,8.9302258 102.55384,9.0331458 102.52884,9.1405658 L102.22803,9.1298158 Z M103.71582,7.1639958 C103.71582,7.2212958 103.73372,7.2570958 103.76952,7.2714158 C103.80532,7.2857158 103.86082,7.2929158 103.93602,7.2929158 L105.35399,7.2929158 C105.55809,7.2929158 105.6861,7.2553158 105.73803,7.1801258 C105.78993,7.1049258 105.81593,6.9634958 105.81593,6.7558058 L105.81593,3.9628458 C105.81593,3.7515858 105.78993,3.6083558 105.73803,3.5331558 C105.68613,3.4579558 105.55809,3.4203558 105.35399,3.4203558 L104.50536,3.4203558 C104.42296,3.4203558 104.35497,3.4427558 104.30126,3.4874558 C104.24756,3.5322558 104.21356,3.5733558 104.19921,3.6109958 C104.18491,3.6485958 104.17771,3.6798958 104.17771,3.7049958 C104.12761,4.4426358 104.06402,5.0835858 103.98704,5.6278458 C103.91004,6.1721258 103.8456,6.5579458 103.79368,6.7853158 C103.74178,7.0126958 103.71578,7.1389158 103.71578,7.1639858 L103.71582,7.1639958 Z M98.3876905,4.6180958 L100.38037,4.5858958 C100.48779,4.5859058 100.5415,4.5357958 100.5415,4.4355058 C100.5415,4.2170858 100.5146,4.0282058 100.4609,3.8688558 C100.4072,3.7095158 100.33378,3.5895658 100.24068,3.5089958 C100.14758,3.4283958 100.0509,3.3702458 99.9506405,3.3344358 C99.8503805,3.2986358 99.7429605,3.2807358 99.6283805,3.2807358 C99.5567805,3.2807358 99.4860405,3.2867358 99.4162205,3.2995358 C99.3464205,3.3120358 99.2550805,3.3443358 99.1422905,3.3962358 C99.0295005,3.4481358 98.9274505,3.5188858 98.8361405,3.6083958 C98.7448405,3.6978958 98.6571005,3.8304058 98.5729605,4.0058558 C98.4888605,4.1813158 98.4270405,4.3854158 98.3876505,4.6181658 L98.3876905,4.6180958 Z M101.27197,6.7020758 C101.39371,6.7128758 101.4707,6.7700758 101.50293,6.8739558 C101.00878,7.5113258 100.38395,7.8300058 99.6284205,7.8300058 C98.9086905,7.8300058 98.3483105,7.5954758 97.9472705,7.1263958 C97.6035105,6.7325158 97.4316405,6.1900358 97.4316405,5.4989558 C97.4316405,5.1766858 97.4772405,4.8741158 97.5686005,4.5912358 C97.6599005,4.3083658 97.7807605,4.0666658 97.9311505,3.8661458 C98.0815405,3.6656258 98.2525205,3.4919558 98.4440905,3.3451458 C98.6356605,3.1983358 98.8326005,3.0900258 99.0349105,3.0201958 C99.2372205,2.9503958 99.4350605,2.9154558 99.6284205,2.9154558 C100.86735,2.9154558 101.48681,3.5528358 101.48682,4.8275658 C101.48681,4.9528958 101.41882,5.0155558 101.28271,5.0155558 L98.3554705,4.9940558 C98.3554705,5.6135158 98.4718405,6.1166158 98.7045905,6.5033258 C98.8657205,6.7683058 99.0528105,6.9661358 99.2658705,7.0968358 C99.4789205,7.2275358 99.6928705,7.2928758 99.9077105,7.2928758 C100.21565,7.2928758 100.4672,7.2489758 100.66235,7.1612858 C100.8575,7.0735858 101.06071,6.9204858 101.27197,6.7020558 L101.27197,6.7020758 Z M91.7221675,3.9037358 C91.7221665,3.6745758 91.6962075,3.5313458 91.6442875,3.4740558 C91.5923675,3.4167558 91.4607735,3.3809558 91.2495115,3.3666258 L90.9003905,3.3451258 C90.8645805,3.3451258 90.8466805,3.3272258 90.8466805,3.2914258 L90.8466805,3.0013858 L90.8681605,2.9798858 L92.1411095,3.0013858 L95.3530305,3.0013858 L96.6850605,2.9798858 L96.6958005,3.0013858 L96.6958005,3.2806858 C96.6958005,3.3236858 96.6742605,3.3450858 96.6313605,3.3450858 L96.2768605,3.3665858 C96.0584305,3.3808858 95.9250505,3.4157858 95.8767205,3.4713258 C95.8284205,3.5268258 95.8042205,3.6673758 95.8042205,3.8929558 L95.8042205,6.8416858 C95.8042105,7.0493658 95.8310205,7.1836458 95.8848205,7.2445158 C95.9421205,7.3054158 96.0728005,7.3430158 96.2769005,7.3573158 L96.6314005,7.3842158 C96.6744005,7.3842158 96.6958005,7.4057158 96.6958005,7.4487158 L96.6958005,7.7226358 L96.6851005,7.7441358 C96.1551405,7.7298358 95.7218805,7.7226358 95.3852905,7.7226358 L94.1123405,7.7441358 L94.1016405,7.7226358 L94.1016405,7.4379658 C94.1016405,7.4021658 94.1195405,7.3842658 94.1553405,7.3842658 L94.4722405,7.3573658 C94.6763305,7.3430658 94.8061405,7.3036658 94.8616405,7.2391958 C94.9171405,7.1747958 94.9448405,7.0422558 94.9448405,6.8417358 L94.9448405,3.8607758 C94.9448405,3.7640758 94.9323405,3.6844358 94.9072405,3.6217658 C94.8821405,3.5590658 94.8436405,3.5152458 94.7917605,3.4901758 C94.7398605,3.4650758 94.6914905,3.4489758 94.6467405,3.4418758 C94.6019405,3.4348758 94.5437905,3.4311758 94.4721805,3.4311758 L93.0649475,3.4311758 C92.9145545,3.4311758 92.7981805,3.4588758 92.7158265,3.5143758 C92.6334665,3.5698758 92.5922895,3.6853558 92.5922915,3.8608058 L92.5922915,6.8417658 C92.5922895,7.0530358 92.6200415,7.1890958 92.6755415,7.2499658 C92.7310415,7.3108658 92.8572605,7.3466658 93.0542035,7.3573958 L93.3764685,7.3842958 C93.4122685,7.3842958 93.4301785,7.4057958 93.4301785,7.4487958 L93.4301785,7.7227158 L93.4194385,7.7442158 C92.9038115,7.7299158 92.4812855,7.7227158 92.1518605,7.7227158 L90.8574265,7.7442158 L90.8305665,7.7227158 L90.8305665,7.4380458 C90.8305665,7.4022458 90.8538365,7.3843458 90.9003865,7.3843458 L91.2495075,7.3574458 C91.4536085,7.3431458 91.5843045,7.3037458 91.6415975,7.2392758 C91.6953075,7.1748758 91.7221675,7.0423358 91.7221675,6.8418158 L91.7221675,3.9037358 Z M85.4003905,5.4667258 C85.4003905,4.7398458 85.6027015,4.1382758 86.0073245,3.6620358 C86.4441715,3.1499958 87.0188785,2.8939758 87.7314455,2.8939758 C88.0572885,2.8939758 88.3526985,2.9431758 88.6176755,3.0416758 C88.8826455,3.1401758 89.1010705,3.2708458 89.2729495,3.4337658 C89.4448195,3.5966958 89.5898395,3.7873658 89.7080075,4.0057858 C89.8261665,4.2242158 89.9112095,4.4471158 89.9631345,4.6744958 C90.0150545,4.9018658 90.0410145,5.1337258 90.0410145,5.3700458 C90.0410145,5.7245458 89.9819245,6.0629158 89.8637685,6.3851858 C89.7455995,6.7074558 89.5665635,6.9849558 89.3266595,7.2177058 C88.9077095,7.6259058 88.3688105,7.8300058 87.7099595,7.8300058 C87.4091765,7.8300058 87.1298795,7.7844058 86.8720695,7.6930458 C86.6142555,7.6017458 86.3967265,7.4782058 86.2194815,7.3224358 C86.0422345,7.1666758 85.8909485,6.9867458 85.7656235,6.7826458 C85.6402975,6.5785458 85.5480945,6.3654958 85.4890125,6.1434858 C85.4299325,5.9214858 85.4003905,5.6958958 85.4003905,5.4667258 L85.4003905,5.4667258 Z M87.5649415,3.2806658 C86.7521145,3.2806658 86.3457035,3.9252258 86.3457035,5.2142858 C86.3457035,5.4470358 86.3725535,5.6842558 86.4262735,5.9259558 C86.4799835,6.1676558 86.5623395,6.4066658 86.6733435,6.6429958 C86.7843445,6.8793258 86.9436865,7.0726858 87.1513715,7.2230758 C87.3590515,7.3734658 87.5971695,7.4486658 87.8657265,7.4486658 C88.0089525,7.4486658 88.1468105,7.4217658 88.2793005,7.3680658 C88.4117845,7.3143658 88.5424805,7.2275258 88.6713905,7.1075658 C88.8002935,6.9876158 88.9032385,6.8085758 88.9802285,6.5704558 C89.0572085,6.3323358 89.0957075,6.0485658 89.0957075,5.7191358 C89.0957075,4.9349658 88.9605305,4.3325058 88.6901895,3.9117658 C88.4198405,3.4910358 88.0447595,3.2806658 87.5649455,3.2806658 L87.5649415,3.2806658 Z M79.1914055,7.2177058 C79.1914055,7.0887958 79.2298965,6.9795858 79.3068845,6.8900658 C79.3838745,6.8005658 79.4886065,6.7557858 79.6210935,6.7557858 C79.7607415,6.7557858 79.8583165,6.7933858 79.9138185,6.8685858 C79.9693185,6.9437858 80.0078085,7.0458258 80.0292965,7.1747358 C80.0400365,7.2535358 80.0606265,7.3116958 80.0910665,7.3492958 C80.1214965,7.3868958 80.1707365,7.4056958 80.2387715,7.4056958 C80.4500335,7.4056958 80.6219085,7.2248658 80.7543965,6.8632158 C80.9155275,6.3977158 80.9960935,5.6618758 80.9960955,4.6556958 C80.9960935,4.4909858 80.9951985,4.3611758 80.9933955,4.2662858 C80.9915955,4.1713858 80.9870955,4.0729358 80.9799655,3.9708758 C80.9727655,3.8688258 80.9638555,3.7927358 80.9531055,3.7426058 C80.9423655,3.6925058 80.9244555,3.6396658 80.8993955,3.5841558 C80.8743255,3.5286558 80.8465755,3.4901558 80.8161455,3.4686758 C80.7857055,3.4471758 80.7445255,3.4256758 80.6926095,3.4042758 C80.6406895,3.3827758 80.5869765,3.3684758 80.5314775,3.3612758 C80.4759775,3.3542758 80.4034645,3.3487758 80.3139475,3.3451758 C80.2101055,3.3381758 80.1420715,3.3272758 80.1098465,3.3129758 C80.0776165,3.2986758 80.0615065,3.2682758 80.0615065,3.2216758 L80.0615065,3.0014658 L80.1044765,2.9799658 C80.5878735,2.9942658 80.9835435,3.0014658 81.2914875,3.0014658 L83.3163905,3.0014658 L84.6054525,2.9799658 L84.6376825,3.0014658 L84.6376825,3.2700158 C84.6376825,3.3201158 84.6090325,3.3452158 84.5517425,3.3452158 L84.2187345,3.3667158 C83.9967245,3.3846158 83.8624475,3.4159158 83.8159025,3.4607158 C83.7693525,3.5055158 83.7460725,3.6316958 83.7460825,3.8393758 L83.7460825,6.8633058 C83.7460785,7.0244358 83.7827825,7.1434958 83.8561905,7.2204758 C83.9295905,7.2974758 84.0576015,7.3431158 84.2402235,7.3574458 L84.4604385,7.3843458 C84.4854985,7.3843458 84.5087685,7.3923458 84.5302585,7.4085458 C84.5517385,7.4246458 84.5624785,7.4452458 84.5624885,7.4703458 L84.5624885,7.7227858 L84.5410085,7.7442858 C84.0110555,7.7299858 83.5956915,7.7227858 83.2949145,7.7227858 L82.0864185,7.7442858 L82.0649385,7.7227858 L82.0649385,7.4703458 C82.0649355,7.4238458 82.0935785,7.3951458 82.1508785,7.3844458 L82.3710935,7.3575458 C82.5680305,7.3360458 82.7014125,7.2895458 82.7712405,7.2178958 C82.8410605,7.1462958 82.8759725,7.0281158 82.8759765,6.8634058 L82.8759765,3.9630158 C82.8759725,3.7624958 82.8464365,3.6237458 82.7873565,3.5467558 C82.7282665,3.4697558 82.6002595,3.4312758 82.4033235,3.4312758 L81.8876985,3.4312758 C81.6800135,3.4312758 81.5493165,3.5064758 81.4956085,3.6568558 C81.4418985,3.8072558 81.4150385,4.1134058 81.4150385,4.5753158 C81.4150355,5.7211558 81.3201485,6.5214458 81.1303705,6.9761958 C81.0014615,7.2805558 80.8501765,7.5034558 80.6765125,7.6448958 C80.5028455,7.7863358 80.2799455,7.8570558 80.0078115,7.8570558 C79.7643215,7.8570558 79.5673815,7.7943558 79.4169915,7.6690658 C79.2666005,7.5437358 79.1914055,7.3933458 79.1914055,7.2178958 L79.1914055,7.2177058 Z M74.0029295,7.7225858 L74.0029295,7.4701458 C74.0029295,7.4236458 74.0315795,7.3949458 74.0888695,7.3842458 L74.3090835,7.3573458 C74.5096035,7.3358458 74.6420905,7.2928458 74.7065445,7.2284358 C74.7709945,7.1640358 74.8032245,7.0529858 74.8032245,6.8954258 L74.8032245,3.8500158 C74.8032235,3.6924658 74.7665245,3.5760958 74.6931175,3.5008958 C74.6197075,3.4256958 74.4917005,3.3809458 74.3090835,3.3666158 L74.0888695,3.3451158 C74.0315795,3.3344158 74.0029295,3.3057158 74.0029295,3.2592158 L74.0029295,3.0014058 L74.0244095,2.9799058 C74.5507755,2.9942058 74.9500265,3.0014058 75.2221625,3.0014058 L76.3232375,2.9799058 L76.3447175,3.0014058 L76.3447175,3.2323658 C76.3447145,3.2574658 76.3330775,3.2824658 76.3098075,3.3075658 C76.2865275,3.3326658 76.2641475,3.3451658 76.2426675,3.3451658 C76.0457255,3.3630658 75.9016015,3.4024658 75.8102945,3.4633258 C75.7189845,3.5242258 75.6733295,3.6459458 75.6733315,3.8285658 L75.6733315,5.0370558 C76.0349835,5.0370658 76.3160705,4.9511558 76.5165935,4.7792458 C76.7206915,4.6073758 76.8907765,4.3531458 77.0268475,4.0165558 C77.1056175,3.8231958 77.1933475,3.6495358 77.2900315,3.4955558 C77.3867115,3.3415858 77.5138225,3.2046258 77.6713785,3.0846658 C77.8289265,2.9647158 77.9954305,2.9047358 78.1708905,2.9047358 C78.5647655,2.9047358 78.7617055,3.0694558 78.7617105,3.3988758 C78.7617055,3.5098858 78.7178405,3.6074558 78.6301185,3.6915958 C78.5423885,3.7757958 78.4394405,3.8178258 78.3212815,3.8178258 C78.1995315,3.8178258 78.0939005,3.7856258 78.0043865,3.7211258 C77.9220265,3.6674258 77.8378785,3.6405258 77.7519455,3.6405258 C77.6874855,3.6405258 77.6087115,3.6969258 77.5156165,3.8097158 C77.4225165,3.9225158 77.3437385,4.0612658 77.2792885,4.2259758 C77.0859265,4.7380258 76.7958875,5.0495458 76.4091715,5.1605458 L76.4091715,5.2035458 C77.0465385,5.2035458 77.4762255,5.4631458 77.6982345,5.9823558 C78.1100135,6.8990158 78.4680865,7.3770458 78.7724525,7.4164358 L78.8745035,7.4271358 C78.9532735,7.4271358 78.9926675,7.4593358 78.9926675,7.5238358 L78.9926675,7.7225658 L78.9604375,7.7440658 L78.1279175,7.7332658 C77.6910645,7.7262658 77.3204595,7.3089558 77.0161015,6.4818058 C76.9516415,6.3063458 76.8907725,6.1684958 76.8334845,6.0682258 C76.7726045,5.9572258 76.6920425,5.8515958 76.5917845,5.7513358 C76.4915215,5.6510758 76.3661965,5.5749858 76.2158085,5.5230658 C76.0654155,5.4711658 75.8845885,5.4380658 75.6733275,5.4236658 L75.6733275,6.9168358 C75.6733255,7.0027358 75.6921275,7.0761758 75.7297275,7.1370458 C75.7673175,7.1979458 75.8201375,7.2444658 75.8881745,7.2766958 C75.9562045,7.3088958 76.0188685,7.3321958 76.0761625,7.3464958 C76.1334525,7.3607958 76.2014855,7.3733958 76.2802645,7.3840958 C76.3375545,7.3983958 76.3662045,7.4270958 76.3662045,7.4699958 L76.3662045,7.7224358 L76.3447245,7.7439358 C75.8971315,7.7296358 75.5229455,7.7224358 75.2221655,7.7224358 L74.0244125,7.7439358 L74.0029295,7.7225858 Z M68.5834965,3.0013958 L69.9155275,2.9798958 L69.9477575,3.0013958 L69.9477575,3.2806958 C69.9477545,3.3236958 69.9226875,3.3450958 69.8725675,3.3450958 L69.5180755,3.3665958 C69.2924875,3.3808958 69.1555245,3.4157958 69.1071865,3.4713358 C69.0588465,3.5268358 69.0346765,3.6673858 69.0346765,3.8929658 L69.0346765,6.5140558 L71.4570405,3.7855458 C71.4570355,3.7067458 71.4543405,3.6476958 71.4489405,3.6082958 C71.4435405,3.5688958 71.4283505,3.5267958 71.4032905,3.4820758 C71.3782205,3.4373758 71.3370405,3.4050758 71.2797555,3.3853758 C71.2224555,3.3656758 71.1454735,3.3522758 71.0487985,3.3450758 C71.0129885,3.3450758 70.9950885,3.3271758 70.9950885,3.2913758 L70.9950885,3.0013358 L71.0165685,2.9798358 C71.3674755,2.9941358 71.6539335,3.0013358 71.8759435,3.0013358 L73.2079745,2.9798358 L73.2187145,3.0013358 L73.2187145,3.2806358 C73.2187145,3.3236358 73.1954345,3.3450358 73.1488945,3.3450358 L72.7997735,3.3665358 C72.5849245,3.3773358 72.4524375,3.4104358 72.4023125,3.4659358 C72.3521825,3.5214358 72.3271125,3.6637758 72.3271125,3.8929358 L72.3271125,6.8524058 C72.3271065,7.0565158 72.3557525,7.1889958 72.4130525,7.2498658 C72.4667625,7.3071658 72.5956645,7.3429658 72.7997715,7.3572958 L73.1488925,7.3841958 C73.1954325,7.3841958 73.2187145,7.4056958 73.2187145,7.4486958 L73.2187145,7.7226158 L73.2079725,7.7441358 C72.5777585,7.7298158 72.1337485,7.7226158 71.8759415,7.7226158 C71.6396085,7.7226158 71.2063405,7.7296158 70.5761365,7.7441358 L70.5546565,7.7226158 L70.5546565,7.4379458 C70.5546525,7.4021458 70.5725565,7.3842458 70.6083665,7.3842458 L70.9736005,7.3573458 C71.1848595,7.3465458 71.3182415,7.3099458 71.3737475,7.2472358 C71.4292475,7.1845358 71.4569975,7.0529858 71.4569975,6.8524558 L71.4569975,4.2582258 L69.0346335,6.9867358 L69.0346335,7.0082358 C69.0346315,7.1478758 69.0605935,7.2418758 69.1125135,7.2902158 C69.1644335,7.3385158 69.2852815,7.3699158 69.4750625,7.3842158 C69.5216125,7.3842158 69.5448825,7.4057158 69.5448825,7.4487158 L69.5448825,7.7226358 L69.5287725,7.7441358 L69.1689095,7.7333358 C69.0507435,7.7293358 68.9513775,7.7273358 68.8708135,7.7253358 C68.7902435,7.7233358 68.6944605,7.7223358 68.5834605,7.7223358 C68.3507115,7.7223358 67.9192335,7.7293358 67.2890265,7.7438358 L67.2782745,7.7223358 L67.2782745,7.4376658 C67.2782745,7.4018658 67.2961865,7.3839658 67.3319965,7.3839658 L67.7079725,7.3570658 C67.9228155,7.3427658 68.0535115,7.3087658 68.1000625,7.2550158 C68.1466125,7.2013158 68.1698825,7.0741858 68.1698825,6.8736658 L68.1698825,3.9034458 C68.1698815,3.6707058 68.1475025,3.5265858 68.1027425,3.4710758 C68.0579825,3.4155758 67.9263905,3.3806758 67.7079665,3.3663358 L67.3534745,3.3448358 C67.3033445,3.3448358 67.2782745,3.3269358 67.2782745,3.2911358 L67.2782745,3.0010958 L67.3105045,2.9795958 C67.8261285,2.9938958 68.2504445,3.0010958 68.5834545,3.0010958 L68.5834965,3.0013958 Z M64.8881835,3.8929958 C64.8881795,3.6817358 64.8604335,3.5456658 64.8049335,3.4847958 C64.7494335,3.4238958 64.6196265,3.3845358 64.4155295,3.3666258 L64.1738305,3.3451258 C64.1380205,3.3451258 64.1201205,3.3272258 64.1201205,3.2914258 L64.1201205,3.0013858 L64.1308605,2.9798858 C64.6142545,2.9941858 65.0099245,3.0013858 65.3178725,3.0013858 L66.5693365,2.9798858 L66.5908165,3.0013858 L66.5908165,3.2914258 C66.5908165,3.3272258 66.5657465,3.3451258 66.5156165,3.3451258 L66.2309485,3.3666258 C66.0304225,3.3845258 65.9015165,3.4221258 65.8442305,3.4794258 C65.7869305,3.5367258 65.7582905,3.6745758 65.7582905,3.8929958 L65.7582905,6.8417258 C65.7582855,6.9956958 65.7994605,7.1201258 65.8818255,7.2150158 C65.9641755,7.3099158 66.0626475,7.3663058 66.1772365,7.3842058 C66.2882325,7.4021058 66.3696945,7.4316058 66.4216205,7.4728058 C66.4735405,7.5140058 66.5012905,7.5793358 66.5048705,7.6688558 L66.5800705,9.1297958 L66.2846595,9.1404958 C66.2452695,8.9793658 66.1960295,8.8280758 66.1369545,8.6866358 C66.0778645,8.5451958 65.9955105,8.3957058 65.8898845,8.2381558 C65.7842475,8.0805958 65.6463895,7.9552758 65.4763105,7.8621758 C65.3062205,7.7690758 65.1137565,7.7225258 64.8989175,7.7225258 L62.0737225,7.7225258 L60.9941325,7.7440258 L60.9726525,7.7225258 L60.9726525,7.4486058 C60.9726515,7.4056058 60.9905525,7.3841058 61.0263625,7.3841058 L61.2250925,7.3572058 C61.4363545,7.3357058 61.5679465,7.3008058 61.6198685,7.2524658 C61.6717885,7.2041658 61.6977485,7.0779058 61.6977485,6.8738058 L61.6977485,3.8821058 C61.6977475,3.6744258 61.6699985,3.5410458 61.6144985,3.4819558 C61.5589985,3.4228558 61.4291955,3.3843558 61.2250945,3.3664758 L60.9296845,3.3449758 C60.8831345,3.3449758 60.8598645,3.3270758 60.8598645,3.2912758 L60.8598645,3.0012358 L60.8759745,2.9797358 C61.3808565,2.9940358 61.7944305,3.0012358 62.1166975,3.0012358 L63.3144515,2.9797358 L63.3359315,3.0012358 L63.3359315,3.2805358 C63.3359285,3.3235358 63.3144415,3.3449358 63.2714815,3.3449358 L63.0297825,3.3664358 C62.8256785,3.3843358 62.6976675,3.4201358 62.6457485,3.4738658 C62.5938285,3.5275658 62.5678685,3.6636458 62.5678685,3.8820658 L62.5678685,6.7555958 C62.5678665,6.9704458 62.5956185,7.1136758 62.6511185,7.1852858 C62.7066185,7.2568858 62.8328375,7.2927058 63.0297805,7.2927058 L64.4155225,7.2927058 C64.6160395,7.2927058 64.7449455,7.2542058 64.8022415,7.1772258 C64.8595315,7.1002258 64.8881715,6.9597058 64.8881815,6.7555958 L64.8881835,3.8929958 Z M58.4965815,6.8309858 L58.4965815,5.3915358 L56.1225585,5.3915358 L56.1225585,6.8309858 C56.1225565,7.0458258 56.1511985,7.1827958 56.2084985,7.2418758 C56.2657885,7.3009758 56.3946935,7.3394758 56.5952165,7.3573558 L56.8261735,7.3842558 C56.8691435,7.3842558 56.8906235,7.4057558 56.8906235,7.4487558 L56.8906235,7.7226758 L56.8691435,7.7441758 C56.3964855,7.7298758 55.9972345,7.7226758 55.6713895,7.7226758 C55.3168965,7.7226758 54.9033225,7.7296758 54.4306675,7.7441758 L54.4199275,7.7226758 L54.4199275,7.4380058 C54.4199275,7.4022058 54.4378275,7.3843058 54.4736375,7.3843058 L54.7690475,7.3574058 C54.9803105,7.3431058 55.1136925,7.3046058 55.1691945,7.2419258 C55.2246945,7.1792258 55.2524445,7.0422958 55.2524445,6.8310358 L55.2524445,3.8823058 C55.2524435,3.6782058 55.2211145,3.5457158 55.1584545,3.4848458 C55.0957945,3.4239458 54.9659895,3.3845858 54.7690495,3.3666758 L54.4736395,3.3451758 C54.4378295,3.3451758 54.4199275,3.3272758 54.4199275,3.2914758 L54.4199275,3.0014358 L54.4414195,2.9799358 C54.9140745,2.9942358 55.3240675,3.0014358 55.6713995,3.0014358 C56.0044055,3.0014358 56.4072375,2.9944358 56.8798955,2.9799358 L56.8906355,3.0014358 L56.8906355,3.2807358 C56.8906335,3.3237358 56.8691455,3.3451358 56.8261855,3.3451358 L56.5952285,3.3666358 C56.4842235,3.3774358 56.4036575,3.3881358 56.3535295,3.3988358 C56.3033995,3.4096358 56.2577395,3.4328358 56.2165665,3.4686358 C56.1753865,3.5044358 56.1494265,3.5536358 56.1386865,3.6163458 C56.1279465,3.6790458 56.1225765,3.7676358 56.1225765,3.8822158 L56.1225765,5.0155158 L58.4965995,5.0155158 L58.4965995,3.8822158 C58.4965955,3.6781158 58.4661595,3.5456258 58.4052895,3.4847558 C58.3444095,3.4238558 58.2172965,3.3844958 58.0239415,3.3665858 L57.7177895,3.3450858 C57.6819795,3.3450858 57.6640795,3.3271858 57.6640795,3.2913858 L57.6640795,3.0013458 L57.6855595,2.9798458 C58.1582115,2.9941458 58.5717855,3.0013458 58.9262825,3.0013458 C59.2628655,3.0013458 59.6674875,2.9943458 60.1401495,2.9798458 L60.1508965,3.0013458 L60.1508965,3.2806458 C60.1508965,3.3236458 60.1276095,3.3450458 60.0810695,3.3450458 L59.8393705,3.3665458 C59.7283625,3.3773458 59.6477955,3.3880458 59.5976715,3.3987458 C59.5475315,3.4095458 59.5018815,3.4327458 59.4607085,3.4685458 C59.4195285,3.5043458 59.3935685,3.5535458 59.3828285,3.6162558 C59.3720785,3.6789558 59.3667085,3.7675458 59.3667185,3.8821258 L59.3667185,6.8308558 C59.3667125,7.0456958 59.3953585,7.1826658 59.4526585,7.2417458 C59.5099485,7.3008458 59.6388515,7.3393458 59.8393775,7.3572258 L60.0810765,7.3841258 C60.1276165,7.3841258 60.1508965,7.4056258 60.1508965,7.4486258 L60.1508965,7.7225458 L60.1240465,7.7440458 C59.6513845,7.7297458 59.2521335,7.7225458 58.9262925,7.7225458 C58.5646345,7.7225458 58.1474795,7.7295458 57.6748275,7.7440458 L57.6640875,7.7225458 L57.6640875,7.4378758 C57.6640835,7.4020758 57.6819875,7.3841758 57.7177975,7.3841758 L58.0239495,7.3572758 C58.2352085,7.3429758 58.3668005,7.3053758 58.4187255,7.2444758 C58.4706455,7.1835758 58.4966055,7.0457458 58.4966055,6.8309058 L58.4965815,6.8309858 Z M50.4990195,4.6180958 L52.4916995,4.5858958 C52.5991175,4.5859058 52.6528315,4.5357958 52.6528315,4.4355058 C52.6528315,4.2170858 52.6259715,4.0282058 52.5722615,3.8688558 C52.5185515,3.7095158 52.4451425,3.5895658 52.3520465,3.5089958 C52.2589465,3.4283958 52.1622655,3.3702458 52.0620075,3.3344358 C51.9617445,3.2986358 51.8543225,3.2807358 51.7397425,3.2807358 C51.6681225,3.2807358 51.5974055,3.2867358 51.5275835,3.2995358 C51.4577535,3.3120358 51.3664485,3.3443358 51.2536585,3.3962358 C51.1408635,3.4481358 51.0388125,3.5188858 50.9475055,3.6083958 C50.8561955,3.6978958 50.7684675,3.8304058 50.6843225,4.0058558 C50.6001725,4.1813158 50.5384065,4.3854158 50.4990195,4.6181658 L50.4990195,4.6180958 Z M53.3833005,6.7020758 C53.5050415,6.7128758 53.5820265,6.7700758 53.6142575,6.8739558 C53.1201135,7.5113258 52.4952765,7.8300058 51.7397465,7.8300058 C51.0200175,7.8300058 50.4596345,7.5954758 50.0585935,7.1263958 C49.7148435,6.7325158 49.5429685,6.1900358 49.5429685,5.4989558 C49.5429685,5.1766858 49.5886185,4.8741158 49.6799315,4.5912358 C49.7712415,4.3083658 49.8920895,4.0666658 50.0424805,3.8661458 C50.1928705,3.6656258 50.3638495,3.4919558 50.5554195,3.3451458 C50.7469875,3.1983358 50.9439275,3.0900258 51.1462405,3.0201958 C51.3485495,2.9503958 51.5463845,2.9154558 51.7397465,2.9154558 C52.9786745,2.9154558 53.5981405,3.5528358 53.5981445,4.8275658 C53.5981405,4.9528958 53.5301045,5.0155558 53.3940425,5.0155558 L50.4667965,4.9940558 C50.4667955,5.6135158 50.5831695,6.1166158 50.8159175,6.5033258 C50.9770485,6.7683058 51.1641415,6.9661358 51.3771975,7.0968358 C51.5902485,7.2275358 51.8041965,7.2928758 52.0190425,7.2928758 C52.3269825,7.2928758 52.5785285,7.2489758 52.7736815,7.1612858 C52.9688275,7.0735858 53.1720335,6.9204858 53.3833005,6.7020558 L53.3833005,6.7020758 Z M44.5800785,5.1605758 L43.7099605,5.3915358 C43.0152975,5.5741558 42.6679685,5.9769858 42.6679685,6.6000258 C42.6679685,6.7969658 42.7368985,6.9768958 42.8747555,7.1398258 C43.0126125,7.3027458 43.2068665,7.3842058 43.4575195,7.3842058 C43.7081685,7.3842058 44.0304335,7.2248658 44.4243165,6.9061758 C44.5281545,6.8273758 44.5800785,6.7325158 44.5800785,6.6215158 L44.5800785,5.1605758 Z M44.5800785,7.1962158 L44.5585885,7.1962158 L44.3383735,7.3680958 C44.0948815,7.5578758 43.8970465,7.6823058 43.7448685,7.7413858 C43.5926845,7.8004858 43.3912685,7.8299958 43.1406195,7.8299958 C42.7252545,7.8299958 42.3904565,7.7350858 42.1362255,7.5453158 C41.8819935,7.3555458 41.7548775,7.0547658 41.7548775,6.6429758 C41.7548775,6.2777458 41.9213815,5.9545858 42.2543895,5.6734958 C42.5873965,5.3924058 43.0260345,5.1838358 43.5703075,5.0477658 L44.5156195,4.8168058 C44.5585895,4.8025058 44.5800695,4.7595058 44.5800695,4.6878958 C44.5800655,3.7354258 44.2828655,3.2591958 43.6884675,3.2591858 C43.4449755,3.2591958 43.2319225,3.2976858 43.0493075,3.3746658 C42.8666885,3.4516658 42.7753805,3.5671358 42.7753815,3.7211058 C42.7753805,3.8213658 42.7825815,3.8929758 42.7968615,3.9359458 C42.8183415,3.9789458 42.8290915,4.0451658 42.8290915,4.1346758 C42.8290905,4.2205758 42.7852315,4.3029758 42.6974995,4.3817458 C42.6097695,4.4605458 42.4925015,4.4999158 42.3456935,4.4999058 C42.0914605,4.4999158 41.9643445,4.3710058 41.9643455,4.1131958 C41.9643445,3.9198358 42.0520755,3.7282658 42.2275295,3.5384858 C42.4029835,3.3487058 42.6321505,3.1938458 42.9150295,3.0738858 C43.1979045,2.9539358 43.4861535,2.8939558 43.7797755,2.8939558 C43.9552285,2.8939558 44.1163605,2.9073558 44.2631735,2.9342558 C44.4099805,2.9611558 44.5585805,3.0157558 44.7089745,3.0980758 C44.8593615,3.1804758 44.9864775,3.2878558 45.0903215,3.4203358 C45.1941595,3.5528358 45.2783065,3.7327658 45.3427635,3.9601358 C45.4072135,4.1875158 45.4394435,4.4515958 45.4394435,4.7523758 L45.4394435,6.3905558 C45.4394395,6.4943958 45.4403345,6.5767558 45.4421435,6.6376258 C45.4439435,6.6985258 45.4493435,6.7710058 45.4582535,6.8551558 C45.4671535,6.9392558 45.4806335,7.0046558 45.4985335,7.0511958 C45.5164335,7.0976958 45.5414935,7.1442958 45.5737335,7.1908458 C45.6059535,7.2373458 45.6480335,7.2714458 45.6999545,7.2928958 C45.7518745,7.3143958 45.8118475,7.3250958 45.8798855,7.3250958 C45.9479155,7.3250958 46.0052065,7.3107958 46.0517605,7.2820958 C46.0983105,7.2534958 46.1341105,7.2247958 46.1591825,7.1961958 C46.1842425,7.1675958 46.2039325,7.1531958 46.2182625,7.1531958 C46.2397425,7.1532058 46.2692825,7.1746958 46.3068825,7.2176958 C46.3444725,7.2606958 46.3632825,7.3000958 46.3632825,7.3358558 C46.3632825,7.3609558 46.3247825,7.4110558 46.2478035,7.4862458 C46.1708135,7.5614458 46.0553345,7.6375358 45.9013685,7.7145158 C45.7473925,7.7915158 45.5898405,7.8299958 45.4287115,7.8299958 C45.2926405,7.8299958 45.1708955,7.8084958 45.0634775,7.7655958 C44.9560525,7.7225958 44.8710095,7.6661958 44.8083505,7.5964058 C44.7456805,7.5266058 44.6964495,7.4594458 44.6606455,7.3949858 C44.6248355,7.3304858 44.5979755,7.2642958 44.5800755,7.1962558 L44.5800785,7.1962158 Z M39.3325195,6.8309858 L39.3325195,5.3915358 L36.9584965,5.3915358 L36.9584965,6.8309858 C36.9584935,7.0458258 36.9871365,7.1827958 37.0444365,7.2418758 C37.1017265,7.3009758 37.2306325,7.3394758 37.4311555,7.3573558 L37.6621125,7.3842558 C37.7050825,7.3842558 37.7265625,7.4057558 37.7265625,7.4487558 L37.7265625,7.7226758 L37.7050825,7.7441758 C37.2324235,7.7298758 36.8331725,7.7226758 36.5073285,7.7226758 C36.1528345,7.7226758 35.7392605,7.7296758 35.2666055,7.7441758 L35.2558655,7.7226758 L35.2558655,7.4380058 C35.2558655,7.4022058 35.2737655,7.3843058 35.3095755,7.3843058 L35.6049855,7.3574058 C35.8162475,7.3431058 35.9496295,7.3046058 36.0051315,7.2419258 C36.0606315,7.1792258 36.0883815,7.0422958 36.0883815,6.8310358 L36.0883815,3.8823058 C36.0883805,3.6782058 36.0570515,3.5457158 35.9943915,3.4848458 C35.9317315,3.4239458 35.8019265,3.3845858 35.6049875,3.3666758 L35.3095775,3.3451758 C35.2737675,3.3451758 35.2558655,3.3272758 35.2558655,3.2914758 L35.2558655,3.0014358 L35.2773475,2.9799358 C35.7500035,2.9942358 36.1599965,3.0014358 36.5073285,3.0014358 C36.8403345,3.0014358 37.2431655,2.9944358 37.7158245,2.9799358 L37.7265645,3.0014358 L37.7265645,3.2807358 C37.7265615,3.3237358 37.7050745,3.3451358 37.6621145,3.3451358 L37.4311575,3.3666358 C37.3201525,3.3774358 37.2395855,3.3881358 37.1894585,3.3988358 C37.1393285,3.4096358 37.0936685,3.4328358 37.0524955,3.4686358 C37.0113155,3.5044358 36.9853555,3.5536358 36.9746155,3.6163458 C36.9638755,3.6790458 36.9584955,3.7676358 36.9585055,3.8822158 L36.9585055,5.0155158 L39.3325285,5.0155158 L39.3325285,3.8822158 C39.3325245,3.6781158 39.3020885,3.5456258 39.2412185,3.4847558 C39.1803385,3.4238558 39.0532265,3.3844958 38.8598715,3.3665858 L38.5537185,3.3450858 C38.5179085,3.3450858 38.5000085,3.3271858 38.5000085,3.2913858 L38.5000085,3.0013458 L38.5214985,2.9798458 C38.9941505,2.9941458 39.4077245,3.0013458 39.7622205,3.0013458 C40.0988045,3.0013458 40.5034265,2.9943458 40.9760885,2.9798458 L40.9868345,3.0013458 L40.9868345,3.2806458 C40.9868345,3.3236458 40.9635485,3.3450458 40.9170085,3.3450458 L40.6753085,3.3665458 C40.5643005,3.3773458 40.4837345,3.3880458 40.4336095,3.3987458 C40.3834795,3.4095458 40.3378195,3.4327458 40.2966465,3.4685458 C40.2554665,3.5043458 40.2295065,3.5535458 40.2187665,3.6162558 C40.2080165,3.6789558 40.2026465,3.7675458 40.2026565,3.8821258 L40.2026565,6.8308558 C40.2026515,7.0456958 40.2312965,7.1826658 40.2885965,7.2417458 C40.3458865,7.3008458 40.4747885,7.3393458 40.6753145,7.3572258 L40.9170145,7.3841258 C40.9635545,7.3841258 40.9868345,7.4056258 40.9868345,7.4486258 L40.9868345,7.7225458 L40.9599745,7.7440458 C40.4873135,7.7297458 40.0880625,7.7225458 39.7622205,7.7225458 C39.4005625,7.7225458 38.9834085,7.7295458 38.5107565,7.7440458 L38.5000165,7.7225458 L38.5000165,7.4378758 C38.5000135,7.4020758 38.5179165,7.3841758 38.5537265,7.3841758 L38.8598795,7.3572758 C39.0711385,7.3429758 39.2027295,7.3053758 39.2546545,7.2444758 C39.3065745,7.1835758 39.3325345,7.0457458 39.3325345,6.8309058 L39.3325195,6.8309858 Z M29.2670895,9.1298158 L29.3369195,7.6688758 C29.3441195,7.5077458 29.4532925,7.4128558 29.6645555,7.3842058 C30.0727575,7.3412058 30.3037145,7.1980058 30.3574265,6.9545158 C30.4934935,6.3744458 30.5991245,5.8355458 30.6743215,5.3378258 C30.7495115,4.8401058 30.7871125,4.2958358 30.7871145,3.7050058 C30.7871125,3.5044958 30.6295605,3.3916958 30.3144585,3.3666258 L29.9921925,3.3451258 C29.9349025,3.3451258 29.9062525,3.3272258 29.9062525,3.2914258 L29.9062525,3.0013858 L29.9492225,2.9798858 C30.5579455,2.9941858 30.9285505,3.0013858 31.0610395,3.0013858 L33.2954145,3.0013858 L34.5361365,2.9798858 L34.5468765,3.0013858 L34.5468765,3.2215958 C34.5468715,3.2430958 34.5387765,3.2618958 34.5227065,3.2779958 C34.5065865,3.2940958 34.4895765,3.3021958 34.4716765,3.3021958 L34.2622035,3.3236958 C34.0509355,3.3451958 33.9086025,3.3898958 33.8352025,3.4579658 C33.7617925,3.5259658 33.7250895,3.6531258 33.7250945,3.8393158 L33.7250945,6.8847258 C33.7250895,6.9814258 33.7394145,7.0628658 33.7680645,7.1291058 C33.7967045,7.1953058 33.8378845,7.2445858 33.8915995,7.2768158 C33.9453095,7.3090158 33.9936455,7.3323158 34.0366195,7.3466158 C34.0795795,7.3609158 34.1332895,7.3735158 34.1977515,7.3842158 C34.3946865,7.4128158 34.4931565,7.5041758 34.4931625,7.6581458 L34.5576125,9.1298258 L34.2622015,9.1298258 C34.2371315,9.0223958 34.2075915,8.9158758 34.1735815,8.8102458 C34.1395615,8.7046058 34.0840615,8.5828658 34.0070785,8.4450058 C33.9300885,8.3071458 33.8432545,8.1880958 33.7465795,8.0878358 C33.6498995,7.9875658 33.5236755,7.9016358 33.3679175,7.8300158 C33.2121515,7.7584158 33.0411725,7.7225958 32.8549785,7.7225958 L30.9536115,7.7225958 C30.7674115,7.7225958 30.5964315,7.7601958 30.4406715,7.8353858 C30.2849085,7.9105858 30.1604785,7.9992058 30.0673805,8.1012558 C29.9742805,8.2033058 29.8901335,8.3259458 29.8149395,8.4691758 C29.7397395,8.6124058 29.6860325,8.7332558 29.6538065,8.8317258 C29.6215765,8.9302258 29.5929365,9.0331458 29.5678665,9.1405658 L29.2670895,9.1298158 Z M30.7548775,7.1639958 C30.7548775,7.2212958 30.7727825,7.2570958 30.8085925,7.2714158 C30.8444025,7.2857158 30.8999025,7.2929158 30.9750965,7.2929158 L32.3930655,7.2929158 C32.5971635,7.2929158 32.7251745,7.2553158 32.7770985,7.1801258 C32.8290185,7.1049258 32.8549785,6.9634958 32.8549785,6.7558058 L32.8549785,3.9628458 C32.8549785,3.7515858 32.8290185,3.6083558 32.7770985,3.5331558 C32.7251785,3.4579558 32.5971635,3.4203558 32.3930655,3.4203558 L31.5444325,3.4203558 C31.4620725,3.4203558 31.3940395,3.4427558 31.3403305,3.4874558 C31.2866205,3.5322558 31.2526005,3.5733558 31.2382805,3.6109958 C31.2239505,3.6485958 31.2167905,3.6798958 31.2167905,3.7049958 C31.1666605,4.4426358 31.1031005,5.0835858 31.0261175,5.6278458 C30.9491275,6.1721258 30.8846765,6.5579458 30.8327575,6.7853158 C30.7808375,7.0126958 30.7548775,7.1389158 30.7548775,7.1639958 L30.7548775,7.1639958 Z M23.8906245,5.4667258 C23.8906245,4.7398458 24.0929355,4.1382758 24.4975585,3.6620358 C24.9344065,3.1499958 25.5091125,2.8939758 26.2216795,2.8939758 C26.5475225,2.8939758 26.8429325,2.9431758 27.1079105,3.0416758 C27.3728805,3.1401758 27.5913045,3.2708458 27.7631835,3.4337658 C27.9350545,3.5966958 28.0800735,3.7873658 28.1982425,4.0057858 C28.3164015,4.2242158 28.4014435,4.4471158 28.4533695,4.6744958 C28.5052895,4.9018658 28.5312495,5.1337258 28.5312495,5.3700458 C28.5312495,5.7245458 28.4721595,6.0629158 28.3540035,6.3851858 C28.2358355,6.7074558 28.0567985,6.9849558 27.8168945,7.2177058 C27.3979455,7.6259058 26.8590465,7.8300058 26.2001955,7.8300058 C25.8994115,7.8300058 25.6201145,7.7844058 25.3623045,7.6930458 C25.1044905,7.6017458 24.8869615,7.4782058 24.7097165,7.3224358 C24.5324695,7.1666758 24.3811835,6.9867458 24.2558595,6.7826458 C24.1305335,6.5785458 24.0383295,6.3654958 23.9792485,6.1434858 C23.9201685,5.9214858 23.8906245,5.6958958 23.8906245,5.4667258 L23.8906245,5.4667258 Z M26.0551755,3.2806658 C25.2423485,3.2806658 24.8359375,3.9252258 24.8359375,5.2142858 C24.8359375,5.4470358 24.8627875,5.6842558 24.9165075,5.9259558 C24.9702175,6.1676558 25.0525735,6.4066658 25.1635785,6.6429958 C25.2745785,6.8793258 25.4339215,7.0726858 25.6416055,7.2230758 C25.8492855,7.3734658 26.0874035,7.4486658 26.3559605,7.4486658 C26.4991875,7.4486658 26.6370455,7.4217658 26.7695355,7.3680658 C26.9020185,7.3143658 27.0327155,7.2275258 27.1616255,7.1075658 C27.2905275,6.9876158 27.3934735,6.8085758 27.4704625,6.5704558 C27.5474425,6.3323358 27.5859415,6.0485658 27.5859415,5.7191358 C27.5859415,4.9349658 27.4507645,4.3325058 27.1804235,3.9117658 C26.9100755,3.4910358 26.5349945,3.2806658 26.0551795,3.2806658 L26.0551755,3.2806658 Z M20.5981445,2.9906558 L20.4316405,2.8617458 C19.9625635,2.4786158 19.6331365,2.1617158 19.4433595,1.9110658 C19.2535795,1.6604158 19.1586905,1.3972358 19.1586915,1.1215158 C19.1586905,0.7885158 19.2696925,0.5253258 19.4916995,0.3319658 C19.7137025,0.1386058 19.9947895,0.0419258002 20.3349605,0.0419258002 C20.6822885,0.0419258002 21.2878735,-0.1093442 21.8643745,0.1627858 C22.2761535,0.3704758 22.7561535,0.3807758 22.8528375,0.4810258 C22.9101275,0.5383258 22.9182375,0.8775858 22.9182575,0.9241358 C22.8566775,1.2279758 22.3933775,1.1444258 22.4108965,1.1249758 C22.4108965,1.1249758 22.0664995,1.0461758 21.9833235,0.9726858 C21.9833235,0.9726858 21.5791395,0.7705058 21.5587995,0.7355758 C21.2902425,0.3524458 20.7467505,0.4071658 20.4209065,0.4071558 C19.9518285,0.4071658 19.7172915,0.5951558 19.7172935,0.9711258 C19.7172915,1.1322658 19.8050235,1.3086158 19.9804765,1.5001758 C20.1559305,1.6917458 20.4638725,1.9576158 20.9043045,2.2977858 L21.6884845,2.8832358 C22.0931025,3.1732758 22.4225295,3.5295558 22.6767655,3.9520758 C22.9345735,4.4032558 23.0634845,4.8383158 23.0634845,5.2572558 C23.0634845,5.6045858 23.0178245,5.9223758 22.9265215,6.2106258 C22.8352115,6.4988758 22.7125685,6.7414658 22.5586015,6.9384058 C22.4046265,7.1353458 22.2246945,7.3018558 22.0188065,7.4379158 C21.8129115,7.5739858 21.5971725,7.6733558 21.3715895,7.7360158 C21.1460005,7.7987158 20.9132535,7.8300158 20.6733475,7.8300158 C20.0073305,7.8300158 19.4711165,7.6151758 19.0647055,7.1854858 C18.6582915,6.7557958 18.4550865,6.2276458 18.4550865,5.6010158 C18.4550865,5.3539458 18.4998465,5.1122458 18.5893635,4.8759158 C18.6788835,4.6395958 18.7952545,4.4292258 18.9384845,4.2448158 C19.0817125,4.0604058 19.2500065,3.8858458 19.4433675,3.7211358 C19.6367255,3.5564258 19.8273985,3.4158758 20.0153885,3.2995058 C20.2033745,3.1831358 20.3976295,3.0801858 20.5981445,2.9906558 L20.5981445,2.9906558 Z M20.9204105,3.2430958 C19.8640935,3.7658858 19.3359375,4.4856058 19.3359375,5.4022758 C19.3359375,5.6350258 19.3654775,5.8686658 19.4245575,6.1032058 C19.4836375,6.3377458 19.5695755,6.5588458 19.6823705,6.7665358 C19.7951615,6.9742158 19.9482375,7.1434058 20.1415985,7.2740958 C20.3349555,7.4047958 20.5533795,7.4701458 20.7968715,7.4701458 C20.9257755,7.4701458 21.0466245,7.4567458 21.1594205,7.4298458 C21.2722105,7.4029458 21.3939555,7.3447458 21.5246555,7.2552858 C21.6553485,7.1657858 21.7663505,7.0475958 21.8576625,6.9007858 C21.9489725,6.7539758 22.0259535,6.5516658 22.0886205,6.2938558 C22.1512805,6.0360458 22.1826105,5.7352658 22.1826105,5.3915158 C22.1826105,5.0943158 22.0966705,4.7648858 21.9247975,4.4032258 C21.7564995,4.0487458 21.5380755,3.7587058 21.2695245,3.5331158 L20.9204105,3.2430958 Z M12.9550785,5.4667258 C12.9550785,4.7398458 13.1573885,4.1382758 13.5620115,3.6620358 C13.9988595,3.1499958 14.5735655,2.8939758 15.2861325,2.8939758 C15.6119765,2.8939758 15.9073855,2.9431758 16.1723635,3.0416758 C16.4373335,3.1401758 16.6557575,3.2708458 16.8276365,3.4337658 C16.9995075,3.5966958 17.1445265,3.7873658 17.2626955,4.0057858 C17.3808545,4.2242158 17.4658965,4.4471158 17.5178225,4.6744958 C17.5697325,4.9018658 17.5957025,5.1337258 17.5957025,5.3700458 C17.5957025,5.7245458 17.5366125,6.0629158 17.4184555,6.3851858 C17.3002875,6.7074558 17.1212505,6.9849558 16.8813465,7.2177058 C16.4623975,7.6259058 15.9234985,7.8300058 15.2646475,7.8300058 C14.9638635,7.8300058 14.6845675,7.7844058 14.4267565,7.6930458 C14.1689425,7.6017458 13.9514135,7.4782058 13.7741685,7.3224358 C13.5969215,7.1666758 13.4456365,6.9867458 13.3203115,6.7826458 C13.1949855,6.5785458 13.1027815,6.3654958 13.0437005,6.1434858 C12.9846205,5.9214858 12.9550785,5.6958958 12.9550785,5.4667258 L12.9550785,5.4667258 Z M15.1196285,3.2806658 C14.3068015,3.2806658 13.9003905,3.9252258 13.9003905,5.2142858 C13.9003905,5.4470358 13.9272405,5.6842558 13.9809605,5.9259558 C14.0346705,6.1676558 14.1170275,6.4066658 14.2280315,6.6429958 C14.3390325,6.8793258 14.4983745,7.0726858 14.7060585,7.2230758 C14.9137385,7.3734658 15.1518565,7.4486658 15.4204145,7.4486658 C15.5636405,7.4486658 15.7014985,7.4217658 15.8339885,7.3680658 C15.9664715,7.3143658 16.0971685,7.2275258 16.2260785,7.1075658 C16.3549805,6.9876158 16.4579265,6.8085758 16.5349165,6.5704558 C16.6118965,6.3323358 16.6503945,6.0485658 16.6503945,5.7191358 C16.6503945,4.9349658 16.5152185,4.3325058 16.2448775,3.9117658 C15.9745285,3.4910358 15.5994475,3.2806658 15.1196325,3.2806658 L15.1196285,3.2806658 Z M6.7460935,7.2177058 C6.7460935,7.0887958 6.7845835,6.9795858 6.8615725,6.8900658 C6.9385625,6.8005658 7.0432935,6.7557858 7.1757815,6.7557858 C7.3154295,6.7557858 7.4130035,6.7933858 7.4685055,6.8685858 C7.5240055,6.9437858 7.5624955,7.0458258 7.5839845,7.1747358 C7.5947245,7.2535358 7.6153145,7.3116958 7.6457545,7.3492958 C7.6761945,7.3868958 7.7254245,7.4056958 7.7934595,7.4056958 C8.0047215,7.4056958 8.1765965,7.2248658 8.3090845,6.8632158 C8.4702165,6.3977158 8.5507825,5.6618758 8.5507845,4.6556958 C8.5507825,4.4909858 8.5498875,4.3611758 8.5480845,4.2662858 C8.5462845,4.1713858 8.5417845,4.0729358 8.5346545,3.9708758 C8.5274545,3.8688258 8.5185445,3.7927358 8.5078045,3.7426058 C8.4970645,3.6925058 8.4791545,3.6396658 8.4540945,3.5841558 C8.4290245,3.5286558 8.4012745,3.4901558 8.3708445,3.4686758 C8.3404045,3.4471758 8.2992245,3.4256758 8.2473095,3.4042758 C8.1953895,3.3827758 8.1416765,3.3684758 8.0861765,3.3612758 C8.0306765,3.3542758 7.9581645,3.3487758 7.8686475,3.3451758 C7.7648055,3.3381758 7.6967715,3.3272758 7.6645455,3.3129758 C7.6323155,3.2986758 7.6162055,3.2682758 7.6162055,3.2216758 L7.6162055,3.0014658 L7.6591755,2.9799658 C8.1425725,2.9942658 8.5382425,3.0014658 8.8461875,3.0014658 L10.8710895,3.0014658 L12.1601525,2.9799658 L12.1923825,3.0014658 L12.1923825,3.2700158 C12.1923825,3.3201158 12.1637325,3.3452158 12.1064425,3.3452158 L11.7734345,3.3667158 C11.5514245,3.3846158 11.4171475,3.4159158 11.3706025,3.4607158 C11.3240525,3.5055158 11.3007725,3.6316958 11.3007825,3.8393758 L11.3007825,6.8633058 C11.3007775,7.0244358 11.3374825,7.1434958 11.4108895,7.2204758 C11.4842895,7.2974758 11.6123005,7.3431158 11.7949225,7.3574458 L12.0151375,7.3843458 C12.0401975,7.3843458 12.0634675,7.3923458 12.0849575,7.4085458 C12.1064375,7.4246458 12.1171775,7.4452458 12.1171875,7.4703458 L12.1171875,7.7227858 L12.0957075,7.7442858 C11.5657545,7.7299858 11.1503905,7.7227858 10.8496135,7.7227858 L9.6411175,7.7442858 L9.6196275,7.7227858 L9.6196275,7.4703458 C9.6196245,7.4238458 9.6482675,7.3951458 9.7055675,7.3844458 L9.9257825,7.3575458 C10.1227185,7.3360458 10.2561005,7.2895458 10.3259285,7.2178958 C10.3957485,7.1462958 10.4306615,7.0281158 10.4306655,6.8634058 L10.4306655,3.9630158 C10.4306615,3.7624958 10.4011255,3.6237458 10.3420455,3.5467558 C10.2829655,3.4697558 10.1549495,3.4312758 9.9580125,3.4312758 L9.4423875,3.4312758 C9.2347025,3.4312758 9.1040065,3.5064758 9.0502975,3.6568558 C8.9965875,3.8072558 8.9697275,4.1134058 8.9697275,4.5753158 C8.9697255,5.7211558 8.8748375,6.5214458 8.6850595,6.9761958 C8.5561515,7.2805558 8.4048655,7.5034558 8.2312025,7.6448958 C8.0575355,7.7863358 7.8346355,7.8570558 7.5625005,7.8570558 C7.3190105,7.8570558 7.1220705,7.7943558 6.9716805,7.6690658 C6.8212895,7.5437358 6.7460935,7.3933458 6.7460935,7.2178958 L6.7460935,7.2177058 Z M3.5180664,7.8300058 C3.0597296,7.8300058 2.6363088,7.7629058 2.2478027,7.6285958 C1.8592913,7.4943158 1.5289694,7.3125958 1.2568359,7.0834258 C0.9846991,6.8542558 0.7528471,6.5866058 0.5612793,6.2804458 C0.3697095,5.9742958 0.2282708,5.6511358 0.1369629,5.3109658 C0.0456539,4.9707958 0,4.6198858 0,4.2582358 C0,3.6888958 0.1020502,3.1580558 0.3061523,2.6657058 C0.510253,2.1733558 0.796711,1.7570958 1.1655273,1.4169258 C1.8458636,0.7938858 2.6336232,0.4823558 3.5288086,0.4823558 C3.9226844,0.4823558 4.2771765,0.5199558 4.5922855,0.5951458 C4.9073835,0.6703458 5.1777285,0.7500158 5.4033205,0.8341558 C5.6289005,0.9183558 5.8079365,0.9675458 5.9404295,0.9818658 C6.0729105,1.8125958 6.1534765,2.3801458 6.1821285,2.6844958 C6.0460545,2.7560958 5.9243105,2.7739958 5.8168945,2.7381958 C5.7381145,2.4803858 5.6423275,2.2494258 5.5295405,2.0453158 C5.4167425,1.8412258 5.2681425,1.6478658 5.0837405,1.4652458 C4.8993275,1.2826358 4.6656845,1.1411958 4.3828125,1.0409258 C4.0999305,0.9406758 3.7758747,0.8905458 3.4106445,0.8905358 C3.1134405,0.8905458 2.8126595,0.9720358 2.5083007,1.1349158 C2.2039362,1.2978458 1.9192685,1.5422358 1.6542968,1.8680758 C1.2174463,2.4051858 0.999022,3.1320758 0.9990234,4.0487358 C0.999022,4.3745858 1.0312484,4.6950658 1.0957034,5.0101658 C1.1601544,5.3252758 1.2595201,5.6269458 1.3937991,5.9151958 C1.5280745,6.2034458 1.6918927,6.4558858 1.8852542,6.6725158 C2.0786111,6.8891558 2.314939,7.0619258 2.5942385,7.1908258 C2.8735321,7.3197358 3.1778938,7.3841858 3.5073245,7.3841858 C4.0193645,7.3841858 4.4759065,7.2901858 4.8769535,7.1022058 C5.2779895,6.9142158 5.6718685,6.6071658 6.0585935,6.1810658 C6.1660095,6.1810658 6.2501565,6.2365658 6.3110355,6.3475658 C5.9386325,6.8345458 5.5143165,7.2033658 5.0380855,7.4540158 C4.5618435,7.7046658 4.0551715,7.8300058 3.5180667,7.8300058 L3.5180664,7.8300058 Z" id="sh-tagline" fill="#000000" fill-rule="nonzero"></path>
    </g>
</svg>