<svg xmlns="http://www.w3.org/2000/svg" viewBox="0 0 140 37.838"><path d="m8.633 12.945 2.93-9.504h3.84l2.906 9.504 3.273-9.504h3.988l-5.762 16.52h-2.734L13.457 8.465 9.863 19.961H7.13L1.367 3.441h3.988zM27.562 3.441h3.695v16.52h-3.695zM35.32 3.441h3.691v6.797l6.23-6.797h4.556l-6.575 7.313c.566.789 1.62 2.27 3.153 4.406q2.28 3.21 3.422 4.8h-4.309l-4.852-6.523-1.648 1.848v4.676h-3.695V3.441zM52.086 3.441h3.691v16.52h-3.691zM74.637 9.574 70.18 18.61h-2.191l-4.43-9.035v10.387h-3.695V3.441h5l4.257 9.086 4.286-9.086h4.972v16.52h-3.691V9.574zM94.309 3.441v3.274h-8.223v3.422h7.387v3.152h-7.387v3.422h8.492v3.25h-12.16V3.44zM110.46 5.61q2.357 2.173 2.363 6.007c0 2.56-.766 4.6-2.316 6.106-1.53 1.5-3.89 2.24-7.04 2.238h-5.64V3.441h5.836c2.98 0 5.22.738 6.797 2.168zm-2.684 9.824c.91-.863 1.35-2.09 1.352-3.72s-.441-2.88-1.352-3.741c-.914-.887-2.29-1.3-4.164-1.305h-2.066V16.71h2.34c1.67 0 2.98-.418 3.89-1.277zM116.02 3.441h3.691v16.52h-3.691zM135.55 19.961l-1.527-3.57h-6.918l-1.528 3.57h-3.914l7.14-16.52h3.571l7.14 16.52zm-4.996-11.594-2.07 4.8h4.136zM12.043 28.148a5.2 5.2 0 0 0-1.144-.527q-.576-.183-1.02-.184-.492.001-.785.184a.59.59 0 0 0-.285.515c0 .2.062.371.195.508q.206.194.504.328.31.124.836.278.732.217 1.195.433.475.219.805.64c.33.422.328.653.328 1.114 0 .441-.117.824-.36 1.156-.233.32-.558.57-.98.742-.41.172-.887.258-1.422.258q-.842 0-1.648-.312c-.54-.211-1-.492-1.403-.844l.579-1.176q.545.505 1.226.793.68.291 1.266.29.579 0 .91-.216a.71.71 0 0 0 .328-.609.66.66 0 0 0-.207-.504 1.4 1.4 0 0 0-.504-.332 9 9 0 0 0-.848-.277 10 10 0 0 1-1.195-.422 2.1 2.1 0 0 1-.793-.621q-.328-.421-.328-1.102 0-.629.328-1.094.34-.474.95-.73.617-.258 1.421-.258.704 0 1.383.207c.461.137.867.32 1.227.555zM18.16 26.293h1.484l2.125 5.68 2.145-5.68h1.422l-2.887 7.215h-1.434zM31.289 26.293h5.29V27.5h-3.907v1.781h3.504v1.207h-3.504v1.817h4.027v1.203h-5.41zM47.645 33.508l-1.246-2.133a2 2 0 0 1-.258.012h-1.629v2.121H43.13v-7.215h3.012c.934 0 1.66.215 2.164.649.508.434.762 1.05.762 1.836 0 .562-.125 1.04-.371 1.445q-.358.596-1.063.894l1.59 2.391zm-3.133-3.34h1.63q.78 0 1.194-.34.41-.34.41-1.007 0-.66-.41-.993-.416-.328-1.195-.328h-1.629zM55.613 26.293h1.383v7.215h-1.383zM68.707 29.922h1.203v2.742a4.9 4.9 0 0 1-1.34.692 4.8 4.8 0 0 1-1.515.257 3.86 3.86 0 0 1-1.938-.496 3.649 3.649 0 0 1-1.875-3.227q0-1.03.516-1.866c.344-.562.809-1 1.402-1.328a4 4 0 0 1 1.977-.497c.516 0 1.03.094 1.527.278.5.188.934.44 1.3.765l-.784 1.02a2.9 2.9 0 0 0-.961-.61 2.8 2.8 0 0 0-1.082-.214q-.678 0-1.258.328a2.4 2.4 0 0 0-.895.887 2.4 2.4 0 0 0-.332 1.238q0 .68.332 1.246.339.57.907.898c.568.328.797.328 1.257.328.246 0 .504-.035.774-.113q.41-.123.785-.34zM76.535 26.293h5.29V27.5h-3.911v1.781h3.508v1.207h-3.508v1.817h4.031v1.203h-5.41z"/></svg>