<svg xmlns="http://www.w3.org/2000/svg" width="169" height="17"><path d="M159.352 7.085h7.902v2.43h-7.902v-2.43Zm.227 6.813h8.97v2.475h-11.922V.477h11.604v2.476h-8.652v10.945ZM135.157 16.6c-1.242 0-2.385-.197-3.429-.59a8.44 8.44 0 0 1-2.702-1.703 7.787 7.787 0 0 1-1.794-2.612c-.424-1-.636-2.09-.636-3.27 0-1.18.212-2.27.636-3.27a7.55 7.55 0 0 1 1.794-2.589 8.153 8.153 0 0 1 2.747-1.703c1.045-.409 2.188-.613 3.429-.613 1.348 0 2.559.22 3.634.659a7.121 7.121 0 0 1 2.747 1.93l-1.862 1.816c-.62-.62-1.294-1.074-2.021-1.362-.711-.303-1.499-.454-2.362-.454-.832 0-1.604.136-2.316.409a5.363 5.363 0 0 0-1.839 1.158 5.34 5.34 0 0 0-1.204 1.77 6.01 6.01 0 0 0-.408 2.25c0 .801.136 1.543.408 2.224.288.682.689 1.28 1.204 1.794.515.5 1.12.886 1.816 1.159.697.272 1.469.408 2.317.408.787 0 1.544-.12 2.271-.363.741-.257 1.445-.681 2.112-1.272l1.68 2.203c-.833.666-1.802 1.173-2.907 1.521-1.09.334-2.195.5-3.315.5Zm3.429-2.407v-5.95h2.793v6.336l-2.793-.386Zm-29.461 2.18V.477h2.952v15.896h-2.952Zm-27.965 0V.477h6.54c1.409 0 2.612.227 3.612.682 1.014.454 1.794 1.105 2.339 1.952.545.848.817 1.855.817 3.02 0 1.166-.272 2.173-.817 3.02-.545.834-1.325 1.477-2.34 1.931-.999.44-2.202.659-3.61.659h-4.905l1.317-1.34v5.972h-2.952Zm10.401 0-4.019-5.768h3.156l4.043 5.768h-3.18Zm-7.448-5.654L82.796 9.31h4.769c1.302 0 2.278-.28 2.93-.84.665-.56.998-1.34.998-2.34 0-1.014-.333-1.793-.999-2.338-.65-.545-1.627-.818-2.93-.818h-4.768l1.317-1.453v9.197ZM57.319 7.085h7.902v2.43H57.32v-2.43Zm.227 6.813h8.97v2.475H54.594V.477h11.604v2.476h-8.652v10.945ZM31.73 16.373 24.78.477h3.202l6.2 14.375h-1.84L38.61.477h2.952l-6.926 15.896h-2.907ZM6.32 16.6c-1.24 0-2.43-.174-3.565-.522C1.62 15.714.72 15.253.053 14.693l1.022-2.294c.636.5 1.423.916 2.362 1.249.938.333 1.9.5 2.884.5.832 0 1.506-.091 2.02-.273.515-.182.894-.424 1.136-.727.242-.317.363-.673.363-1.067 0-.484-.174-.87-.522-1.158-.348-.303-.802-.537-1.362-.704a18.638 18.638 0 0 0-1.84-.5 36.154 36.154 0 0 1-2.02-.522 9.629 9.629 0 0 1-1.84-.795 4.124 4.124 0 0 1-1.34-1.317C.568 6.54.394 5.844.394 4.996a4.3 4.3 0 0 1 .681-2.362c.47-.726 1.173-1.302 2.112-1.725C4.14.469 5.344.25 6.797.25c.954 0 1.9.121 2.84.363.938.243 1.755.59 2.452 1.045l-.931 2.293a8.445 8.445 0 0 0-2.203-.93 8.08 8.08 0 0 0-2.18-.318c-.818 0-1.484.098-1.999.295-.5.197-.87.454-1.112.772-.227.318-.34.681-.34 1.09 0 .484.166.878.499 1.18.348.288.795.515 1.34.682.56.166 1.18.333 1.862.5.68.15 1.355.325 2.02.522a8.092 8.092 0 0 1 1.84.772c.56.318 1.007.75 1.34 1.294.348.545.522 1.234.522 2.067a4.27 4.27 0 0 1-.704 2.361c-.454.712-1.158 1.287-2.112 1.726-.953.424-2.157.636-3.61.636Z"/></svg>