<svg xmlns="http://www.w3.org/2000/svg" width="79" height="32"><path fill="#000" fill-rule="nonzero" d="m40.113 28.197 2.636 1.909L41.28 32l-2.594-1.826 1.427-1.977Zm5.752-1.784 2.87 1.84-1.181 1.907-2.856-1.716 1.167-2.031Zm-18.01 0 2.868 1.84-1.18 1.907-2.856-1.716 1.167-2.031Zm22.088-.11 2.896 1.73-1.222 2.059-2.883-1.84 1.209-1.95Zm-18.012 0 2.897 1.73-1.222 2.059-2.883-1.84 1.208-1.95Zm43.875-12.026c.229 0 .48.096.755.288 1.318.916 1.977 2.842 1.977 5.78 0 2.407-.567 4.503-1.702 6.287-1.327 2.069-3.126 3.103-5.395 3.103-1.639 0-2.938-.385-3.9-1.153-.42-.339-.816-.797-1.187-1.373-.37-.577-.711-1.268-1.022-2.073.256.522 1.015 1.103 2.278 1.743 1.181.595 2.11.893 2.787.893.714 0 1.417-.124 2.108-.37a7.347 7.347 0 0 0 1.908-1.017 6.945 6.945 0 0 0 1.51-1.53c.425-.59.73-1.225.913-1.902a3.915 3.915 0 0 1-.398.028c-.559 0-1.09-.103-1.593-.31a4.53 4.53 0 0 1-1.338-.837 3.997 3.997 0 0 1-.927-1.242 3.412 3.412 0 0 1-.343-1.496c0-.842.384-1.84 1.153-2.993.833-1.217 1.638-1.826 2.416-1.826Zm-38.809 9.925 2.677 1.922-1.483 1.991-2.677-1.977 1.483-1.936Zm4.118 0 2.526 1.758-1.372 2.018-2.595-1.854 1.441-1.922Zm-15.883-1.317c-.11.247-1.048.49-2.814.727-1.464.192-2.581.288-3.35.288-1.025 0-1.734-.105-2.128-.315-.54-.32-.81-.948-.81-1.881 0-.183.03-.453.09-.81.06-.357.132-.712.22-1.064.086-.352.182-.661.288-.927.105-.265.212-.398.322-.398l.055.014v1.016c0 .696.069 1.09.206 1.18.44.248 1.199.371 2.279.371.375 0 .782-.016 1.222-.048.439-.032.92-.084 1.441-.158 1.4-.192 2.1-.457 2.1-.796 0-.458-.31-1.56-.933-3.308-.64-1.822-1.09-2.769-1.345-2.842l1.537-3.185c.97 2.37 1.73 5.537 2.279 9.5h7.056c.147 0 .22-.124.22-.37 0-.184-.057-.447-.172-.79a8.434 8.434 0 0 0-.418-1.023 6.663 6.663 0 0 0-.515-.892c-.179-.257-.332-.385-.46-.385l1.25-2.896c.603.686 1.12 1.688 1.55 3.006.43 1.254.646 2.37.646 3.35h6.905c.146 0 .22-.124.22-.37 0-.184-.058-.447-.172-.79a8.434 8.434 0 0 0-.419-1.023 6.663 6.663 0 0 0-.515-.892c-.178-.257-.331-.385-.46-.385l1.25-2.896c.604.686 1.12 1.688 1.551 3.006.43 1.254.645 2.37.645 3.35h6.905c.147 0 .22-.124.22-.37 0-.184-.057-.447-.172-.79a8.434 8.434 0 0 0-.418-1.023 6.663 6.663 0 0 0-.515-.892c-.179-.257-.332-.385-.46-.385l1.25-2.896c.603.686 1.12 1.688 1.55 3.006.43 1.254.646 2.37.646 3.35h8.703c1.282 0 1.922-.087 1.922-.261 0-.302-1.148-1.506-3.445-3.61-2.28-2.115-3.593-3.172-3.94-3.172-.074.092-.165.398-.275.92a22.925 22.925 0 0 1-.707-.638c-.28-.261-.602-.565-.968-.913-.677-.668-1.016-1.313-1.016-1.936 0-.64.316-1.482.948-2.526.356-.567 4.379-2.416 12.066-5.546l-1.331 3.281-9.555 3.885c.156.147.364.325.625.536.26.21.583.453.968.727 2.16 1.648 3.992 3.206 5.498 4.675 1.505 1.468 2.697 2.857 3.576 4.166.192.284.288.65.288 1.098 0 .815-.128 1.414-.384 1.799-.064.1-.568.15-1.51.15h-39.29Zm49.929-5.464a.823.823 0 0 0-.44.137 1.62 1.62 0 0 0-.398.357 1.814 1.814 0 0 0-.281.48 1.347 1.347 0 0 0-.103.495c0 .174.09.345.268.515.178.169.402.315.672.439.27.123.566.222.886.295.32.073.627.11.92.11.283 0 .425-.105.425-.316a2.7 2.7 0 0 0-.158-.892 3.21 3.21 0 0 0-.411-.81 2.177 2.177 0 0 0-.611-.584 1.409 1.409 0 0 0-.77-.226ZM21.69 0l.082 1.085.494.507-.426.852v3.541c.86-.887 1.643-1.331 2.348-1.331.164 0 .332.03.5.089.17.06.323.124.46.192.138.069.252.14.344.213.091.073.15.128.178.165.202.22.302.595.302 1.125v.879c0 .128-.043.21-.13.247a.684.684 0 0 1-.268.055H19.59l-.385-.96c.275.054.513.081.714.081.495 0 .925-.128 1.29-.384V2.004L20.99.906l.7-.906Zm1.976 5.615c-.1 0-.231.039-.391.116-.16.078-.327.17-.501.275-.174.105-.33.217-.467.336a1.423 1.423 0 0 0-.288.316c.43.037.81.064 1.14.082.329.019.599.028.81.028.988 0 1.482-.078 1.482-.233 0-.12-.055-.232-.165-.337a1.727 1.727 0 0 0-.426-.288 2.953 2.953 0 0 0-.576-.213 2.442 2.442 0 0 0-.618-.082ZM6.466 26.413l2.869 1.84-1.18 1.907-2.856-1.716 1.167-2.031Zm4.077-.11 2.897 1.73-1.222 2.059-2.883-1.84 1.208-1.95Zm1.016-6.054c.146 0 .22-.124.22-.37 0-.184-.058-.447-.172-.79a8.434 8.434 0 0 0-.419-1.023 6.663 6.663 0 0 0-.514-.892c-.179-.257-.332-.385-.46-.385l1.208-2.855c.558.247 1.084 1.245 1.578 2.993.44 1.546.66 2.74.66 3.583 0 1.583-.22 2.375-.66 2.375H3.858c-.888 0-1.618-.103-2.19-.31-.572-.205-.993-.53-1.263-.974C.135 21.157 0 20.372 0 19.247V5.148l2.06-2.58v16.679c0 .668.31 1.002.933 1.002h8.566Z"/></svg>