<svg xmlns="http://www.w3.org/2000/svg" width="120" height="13"><path fill="#000" fill-rule="nonzero" d="M3.336 8.112c0 .416-.21.546-.723.585l-.341.026c-.066 0-.105.039-.105.104v.247l.026.026a69.16 69.16 0 0 1 1.668-.026c.512 0 1.3.013 1.694.026l.026-.026v-.247a.103.103 0 0 0-.105-.104l-.354-.026c-.526-.039-.723-.182-.723-.585V5.59c0-.234.013-.403.08-.546l1.85-3.315c.224-.39.355-.624.815-.663l.276-.026c.078-.013.131-.026.131-.091v-.26L7.525.663c-.394.013-.84.026-1.143.026-.302 0-.67-.013-1.195-.026l-.026.026v.26c0 .039.013.091.066.091l.394.026c.288.013.407.117.183.52l-1.68 3.133h-.027L2.298 1.586c-.197-.338-.289-.52.17-.533l.382-.013c.052 0 .078-.052.078-.104V.689L2.902.663c-.525.013-.972.026-1.497.026C.893.689.42.676.026.663L0 .689v.26c0 .078.092.091.131.091l.158.013c.473.039.604.221 1.024.91l1.904 3.185c.08.117.119.416.119.559v2.405m24.813-4.641c.263.014.641.026 1.068.026.472 0 .945-.013 1.431-.026l.026.039v.234c0 .065-.078.104-.144.104-.5.039-.683.143-.486.585l1.445 3.354 1.457-3.302c.29-.52-.105-.598-.512-.637-.066 0-.131-.026-.131-.091V3.51l.026-.039c.486.013.775.026 1.234.026.368 0 .578-.013.907-.026l.039.026v.247c0 .065-.053.091-.144.104-.486.039-.749.507-.933.884-.696 1.456-1.274 2.795-2.324 5.304-.394.936-.893 2.054-1.826 2.054-.25 0-.761-.143-.761-.611 0-.39.289-.507.499-.507.197 0 .328.078.407.182.131.13.223.221.354.221.197 0 .683-1.144 1.012-1.937a.874.874 0 0 0 .105-.403c0-.13-.119-.481-.224-.741L29.02 4.485c-.21-.494-.368-.598-.801-.637a.269.269 0 0 1-.093-.03.346.346 0 0 1-.109.03c-.341.039-.67.143-.906.715l-1.786 4.394c-.078.195-.183.273-.302.273-.131 0-.236-.078-.315-.26l-1.313-3.25-1.313 3.224c-.092.208-.197.286-.315.286-.132 0-.237-.078-.316-.26l-1.799-4.498c-.21-.52-.446-.585-.827-.624-.066-.013-.158-.026-.158-.091v-.26l.027-.026c.486.013.696.026 1.195.026.472 0 .814-.013 1.3-.026l.026.039v.234c0 .065-.053.104-.118.104l-.197.013c-.434.026-.394.26-.263.585l1.38 3.432 1.142-2.821-.237-.585c-.17-.429-.46-.585-.84-.624-.066-.013-.132-.026-.132-.091v-.26l.027-.026c.486.013.735.026 1.195.026.46 0 .827-.013 1.313-.026l.04.026v.247c0 .065-.066.104-.132.104l-.236.013c-.46.026-.407.195-.25.585l1.366 3.432 1.366-3.367c.118-.234.144-.611-.526-.65l-.197-.013c-.065 0-.118-.052-.118-.091v-.26l.026-.026c.486.013.867.026 1.366.026.455 0 .618-.012.921-.024l.038-.002ZM14.812.52c1.602 0 2.075.585 2.863.585.092.936.17 1.456.289 2.002l-.394.078c-.342-1.118-1.038-2.184-2.942-2.184-1.773 0-3.178 1.547-3.178 3.822 0 1.716 1.26 3.913 3.598 3.913.71 0 1.484-.208 1.93-.624V6.123c0-.403-.196-.507-.722-.546l-.341-.026a.103.103 0 0 1-.105-.104v-.338l.026-.026c.617.013 1.156.026 1.668.026.3 0 .523-.004.733-.01l.312-.01.163-.006.026.026v.338c0 .065-.039.091-.105.104-.38.039-.59.117-.59.572v1.508c0 .143.065.247.21.364-.893.754-1.957 1.209-3.507 1.209-2.64 0-4.438-1.872-4.438-4.121 0-2.86 2.245-4.563 4.504-4.563Zm23.914 7.332c-.591.468-1.104.741-1.445.741-.71 0-1.431-.767-1.431-2.392 0-.936.17-1.456.367-1.729.407-.611.959-.65 1.222-.65.617 0 .971.273 1.287.767v3.263m.984-6.357c0-.845.04-1.365.04-1.365 0-.091-.053-.13-.17-.13-.33.13-1.235.299-1.774.338l.027.312c0 .039.039.065.078.065l.42.026c.263 0 .395.169.395 1.014v1.898c-.302-.169-.88-.286-1.143-.286-.867 0-1.444.286-1.97.78-.564.559-.88 1.326-.88 2.288 0 1.599.788 2.769 2.207 2.769.525 0 1.181-.416 1.786-.897l.026.013-.026.91h.302c.289-.234.866-.403 1.68-.546l-.039-.299-.63-.065c-.276-.026-.329-.104-.329-.754V1.495m5.229 6.357c-.591.468-1.103.741-1.445.741-.709 0-1.431-.767-1.431-2.392 0-.936.17-1.456.368-1.729.407-.611.958-.65 1.22-.65.618 0 .973.273 1.288.767v3.263m.985-6.357c0-.845.04-1.365.04-1.365 0-.091-.053-.13-.172-.13-.328.13-1.234.299-1.772.338l.026.312c0 .039.04.065.079.065l.42.026c.263 0 .394.169.394 1.014v1.898c-.302-.169-.88-.286-1.143-.286-.866 0-1.444.286-1.97.78-.564.559-.88 1.326-.88 2.288 0 1.599.789 2.769 2.207 2.769.525 0 1.182-.416 1.786-.897l.026.013-.026.91h.302c.289-.234.867-.403 1.68-.546l-.039-.299-.63-.065c-.276-.026-.328-.104-.328-.754V1.495m1.197 4.914c0 1.326.932 2.795 2.692 2.795 1.864 0 2.718-1.612 2.718-2.912 0-1.352-.749-2.925-2.692-2.925-1.747 0-2.718 1.261-2.718 3.042m2.573-2.613c1.077 0 1.72 1.001 1.72 2.912 0 1.716-.787 2.067-1.378 2.067-1.3 0-1.8-1.664-1.8-2.665 0-1.131.408-2.314 1.458-2.314m5.09-.429c0-.026-.026-.039-.052-.039-.368.143-.893.26-1.812.403l.026.312.565.052c.184.026.289.156.289.806v3.237c0 .377-.132.52-.565.559l-.25.026c-.065.013-.105.039-.105.104v.247l.027.026c.525-.013.853-.026 1.365-.026.539 0 .815.013 1.34.026l.026-.026v-.247c0-.065-.04-.091-.105-.104l-.184-.026c-.433-.065-.564-.182-.564-.559V4.992c.67-.78 1.168-1.001 1.746-1.001.696 0 .854.429.854 1.339v2.808c0 .377-.145.494-.565.559l-.184.026c-.065.013-.105.039-.105.104v.247l.026.026c.526-.013.788-.026 1.3-.026.539 0 .88.013 1.406.026l.026-.026v-.247c0-.065-.053-.091-.118-.104l-.25-.026c-.407-.039-.551-.182-.551-.559V5.421c0-1.157-.263-2.054-1.445-2.054-.67 0-1.3.182-2.14 1.157h-.04l.04-1.157m5.419-1.703c0 .338.289.624.63.624.342 0 .63-.286.63-.624a.636.636 0 0 0-.63-.624.636.636 0 0 0-.63.624m1.234 1.703c0-.026-.026-.039-.052-.039-.368.143-.92.26-1.852.403l.026.312.565.052c.184.026.289.156.289.806v3.237c0 .377-.118.507-.565.559l-.25.026c-.065.013-.104.039-.104.104v.247l.026.026c.525-.013.893-.026 1.366-.026.499 0 .88.013 1.405.026l.026-.026v-.247c0-.065-.052-.091-.118-.104l-.25-.026c-.407-.039-.551-.182-.551-.559V4.901c0-.65.04-1.534.04-1.534m4.567 2.678v1.729c0 .169-.08.26-.184.338-.342.273-.788.559-1.156.559a.937.937 0 0 1-.972-.923c0-.585.302-1.17 1.274-1.43l1.038-.273m0 2.405c.078.273.289.754.985.754.643 0 1.09-.52 1.09-.585 0-.091-.092-.195-.145-.195-.079 0-.118.208-.433.208-.512 0-.526-.533-.526-1.131V5.564c0-1.846-.971-2.197-1.93-2.197-1.077 0-2.167.741-2.167 1.443 0 .312.158.455.46.455.38 0 .578-.26.578-.429a.58.58 0 0 0-.04-.234.89.89 0 0 1-.026-.26c0-.403.59-.585 1.09-.585.446 0 1.064.26 1.064 1.729 0 .091-.04.143-.08.156l-1.128.273c-1.261.312-2.141 1.001-2.141 1.885 0 1.027.71 1.404 1.628 1.404.604 0 .854-.104 1.432-.546l.262-.208h.027m6.203-.598c-.59.468-1.103.741-1.444.741-.71 0-1.432-.767-1.432-2.392 0-.936.171-1.456.368-1.729.407-.611.959-.65 1.221-.65.618 0 .972.273 1.287.767v3.263m.985-6.357c0-.845.04-1.365.04-1.365 0-.091-.053-.13-.171-.13-.328.13-1.235.299-1.773.338l.026.312c0 .039.04.065.08.065l.42.026c.262 0 .393.169.393 1.014v1.898c-.302-.169-.88-.286-1.142-.286-.867 0-1.445.286-1.97.78-.565.559-.88 1.326-.88 2.288 0 1.599.788 2.769 2.206 2.769.526 0 1.182-.416 1.786-.897l.027.013-.027.91h.302c.29-.234.867-.403 1.681-.546l-.04-.299-.63-.065c-.275-.026-.328-.104-.328-.754V1.495m5.36 3.003v3.224c-.276.325-.893.897-1.497.897-.394 0-.998-.208-.998-1.365V4.758c0-.39.04-1.261.04-1.261 0-.026-.027-.026-.053-.026a3.312 3.312 0 0 1-.46.026c-.42 0-.814-.013-1.3-.026l-.04.026v.325l.04.026.21.026c.46.052.578.195.578.624v2.938c0 .897.341 1.768 1.641 1.768.539 0 1.104-.182 1.839-.962h.026l-.026.988h.302c.289-.234.867-.403 1.68-.546l-.039-.299-.63-.065c-.276-.026-.328-.104-.328-.754V4.758c0-.39.04-1.261.04-1.261 0-.026-.027-.026-.053-.026a3.312 3.312 0 0 1-.46.026c-.42 0-.814-.013-1.3-.026l-.04.026v.325l.04.026.21.026c.46.052.578.195.578.624m3.03 3.64c0 .377-.13.52-.564.559l-.25.026c-.065.013-.091.039-.091.104v.247l.013.026c.486-.013.893-.026 1.366-.026.499 0 1.063.013 1.55.026l.026-.026v-.247c0-.065-.053-.104-.119-.104l-.38-.026c-.42-.026-.565-.182-.565-.559V5.291c0-.169.066-.338.157-.455.316-.442.605-.676.749-.676.092 0 .184.039.263.117.13.13.275.234.538.234.341 0 .565-.208.565-.546 0-.338-.197-.598-.736-.598-.617 0-1.195.663-1.536 1.17h-.04l.04-1.17c0-.026-.026-.039-.053-.039-.367.143-.893.26-1.812.403l.026.312.565.052c.184.026.289.156.289.806v3.237m25.963-4.667.04.026v.247c0 .065-.053.091-.145.104-.486.039-.749.507-.933.884-.696 1.456-1.273 2.795-2.324 5.304-.394.936-.893 2.054-1.825 2.054-.25 0-.762-.143-.762-.611 0-.39.289-.507.499-.507.197 0 .328.078.407.182.131.13.223.221.355.221.197 0 .682-1.144 1.01-1.937a.874.874 0 0 0 .106-.403c0-.13-.118-.481-.223-.741l-1.655-3.809c-.21-.494-.368-.598-.801-.637-.079-.013-.131-.039-.131-.091v-.26l.026-.026c.262.013.656.026 1.103.026.473 0 .945-.013 1.431-.026l.027.039v.234c0 .065-.08.104-.145.104-.499.039-.683.143-.486.585l1.445 3.354 1.457-3.302c.29-.52-.105-.598-.512-.637-.065 0-.131-.026-.131-.091V3.51l.026-.039c.486.013.775.026 1.235.026.367 0 .577-.013.906-.026ZM96.65 0c.118 0 .171.039.171.13 0 0-.04.52-.04 1.365v2.951c.88-.871 1.655-1.079 2.167-1.079.946 0 1.419.676 1.419 2.015v2.756c0 .377.13.52.564.559l.25.026c.052 0 .105.039.105.104v.247l-.026.026c-.575-.011-.808-.023-1.218-.025h-.348c-.401.002-.622.013-1.205.025l-.027-.026v-.247c0-.065.04-.091.106-.104l.249-.026c.447-.052.565-.182.565-.559V5.239c0-1.053-.29-1.261-1.025-1.261-.38 0-.945.338-1.575.949v3.211c0 .377.13.52.564.559l.25.026c.052 0 .105.039.105.104v.247l-.026.026c-.575-.011-.808-.023-1.218-.025h-.347c-.338.002-.54.01-.947.02l-.001.018c-.132.065-.355.091-.552.091-.788 0-1.353-.546-1.733-1.157l-1.405-2.262c-.184-.299-.46-.494-1.563-.494v2.847c0 .39.184.52.709.559l.354.026c.053 0 .106.039.106.104v.247l-.027.026c-.617-.013-1.155-.026-1.68-.026-.513 0-1.051.013-1.668.026l-.027-.026v-.247c0-.065.04-.104.105-.104l.342-.026c.551-.039.722-.195.722-.559V1.612c0-.416-.354-.533-.578-.546l-.512-.026c-.052 0-.079-.026-.079-.078V.689l.027-.026c.617.013 1.142.026 1.667.026.513 0 1.314-.117 1.642-.117.827 0 1.641.065 2.272.65.472.442.696.975.696 1.625 0 1.365-1.182 2.041-1.747 2.223L93.89 7.8c.29.476.572.867 1.014.973.012-.028.038-.042.08-.05l.25-.026c.446-.052.565-.182.565-.559V1.755c0-.845-.132-1.014-.394-1.014l-.42-.026c-.04 0-.08-.026-.08-.065l-.026-.312C95.404.299 96.323.13 96.651 0Zm-5.625 1.014c-.932 0-1.116.221-1.116.598v3.237h.656c1.274 0 2.26-.364 2.26-1.989 0-1.534-.999-1.846-1.8-1.846Zm20.778 6.838c-.591.468-1.103.741-1.445.741-.709 0-1.431-.767-1.431-2.392 0-.936.17-1.456.368-1.729.407-.611.958-.65 1.22-.65.618 0 .973.273 1.288.767v3.263m.985-6.357c0-.845.04-1.365.04-1.365 0-.091-.053-.13-.172-.13-.328.13-1.234.299-1.772.338l.026.312c0 .039.04.065.079.065l.42.026c.262 0 .394.169.394 1.014v1.898c-.302-.169-.88-.286-1.143-.286-.866 0-1.444.286-1.97.78-.564.559-.88 1.326-.88 2.288 0 1.599.789 2.769 2.207 2.769.525 0 1.182-.416 1.786-.897l.026.013-.026.91h.302c.289-.234.867-.403 1.68-.546l-.039-.299-.63-.065c-.276-.026-.328-.104-.328-.754V1.495m5.228 6.357c-.59.468-1.103.741-1.444.741-.71 0-1.432-.767-1.432-2.392 0-.936.17-1.456.368-1.729.407-.611.958-.65 1.221-.65.617 0 .972.273 1.287.767v3.263m.985-6.357c0-.845.04-1.365.04-1.365 0-.091-.053-.13-.171-.13-.329.13-1.235.299-1.773.338l.026.312c0 .039.04.065.079.065l.42.026c.263 0 .394.169.394 1.014v1.898c-.302-.169-.88-.286-1.142-.286-.867 0-1.445.286-1.97.78-.565.559-.88 1.326-.88 2.288 0 1.599.788 2.769 2.206 2.769.525 0 1.182-.416 1.786-.897l.026.013-.026.91h.302c.289-.234.867-.403 1.681-.546l-.04-.299-.63-.065c-.276-.026-.328-.104-.328-.754V1.495"/></svg>