<svg xmlns="http://www.w3.org/2000/svg" width="120" height="8"><path fill="#000" fill-rule="nonzero" d="M119.207 3.452c0-.117-.013-.236-.039-.355a1.188 1.188 0 0 0-.113-.332.712.712 0 0 0-.191-.242.43.43 0 0 0-.277-.094.687.687 0 0 0-.29.066 1.72 1.72 0 0 0-.469.3c-.056.05-.095.083-.116.099l-.476 2.48c.023.012.056.033.097.062a1.64 1.64 0 0 0 .336.148.843.843 0 0 0 .605-.07c.122-.065.233-.153.332-.262.099-.112.186-.24.262-.386.075-.146.138-.299.187-.457a3.58 3.58 0 0 0 .113-.488c.026-.164.04-.32.04-.469Zm.793-.031a2.726 2.726 0 0 1-.656 1.776c-.138.162-.292.301-.46.418a2.23 2.23 0 0 1-.551.277 1.974 1.974 0 0 1-.621.098.973.973 0 0 1-.324-.05 3.471 3.471 0 0 1-.242-.094l-.254 1.284c-.01.044-.005.08.016.106.023.028.07.046.14.054l.504.043v.3h-2.015v-.3l.418-.043c.112-.008.176-.06.191-.16l.902-4.635-.671-.074v-.23l1.21-.25h.312l-.097.496a31.3 31.3 0 0 0 .23-.152c.089-.058.182-.111.281-.16.1-.053.202-.096.309-.13.109-.036.22-.054.332-.054a.89.89 0 0 1 .823.472c.081.14.138.3.172.477.034.177.051.354.051.53Zm-4.896-.664c.002-.013-.008-.043-.032-.09a1.135 1.135 0 0 0-.18-.28c-.033-.04-.062-.06-.085-.06-.203 0-.385.034-.547.102a1.325 1.325 0 0 0-.418.27c-.12.111-.222.242-.308.39a2.54 2.54 0 0 0-.203.465c-.052.161-.09.324-.113.488-.024.164-.035.32-.035.468 0 .112.009.224.027.336.018.112.05.213.094.305.047.09.109.165.187.222a.52.52 0 0 0 .309.086c.093 0 .187-.02.28-.062a1.858 1.858 0 0 0 .472-.308c.061-.056.105-.097.134-.126l.418-2.206Zm1.175 2.92-.172.075a3.94 3.94 0 0 1-.593.195 1.05 1.05 0 0 1-.274.043.756.756 0 0 1-.246-.035.415.415 0 0 1-.164-.106.502.502 0 0 1-.097-.171.981.981 0 0 1-.047-.235 2.092 2.092 0 0 1-.48.36c-.097.054-.2.099-.313.132a1.08 1.08 0 0 1-.343.055 1.19 1.19 0 0 1-.414-.066 1.027 1.027 0 0 1-.305-.176 1.068 1.068 0 0 1-.215-.258 1.742 1.742 0 0 1-.203-.624 2.616 2.616 0 0 1-.02-.309c0-.206.023-.413.067-.62a2.768 2.768 0 0 1 .523-1.152 2.11 2.11 0 0 1 1.71-.843c.074-.001.145.008.215.026.073.016.141.038.204.067.062.026.12.056.171.09a.815.815 0 0 1 .133.105l.117-.191h.547a.729.729 0 0 0-.152.457 25.762 25.762 0 0 0-.305 1.355 24.673 24.673 0 0 0-.183 1.01c-.021.133-.032.23-.032.29 0 .14.03.236.09.288.06.053.145.079.254.079a.597.597 0 0 0 .113-.016c.052-.013.106-.027.16-.043a21.472 21.472 0 0 1 .254-.07v.289Zm-4.162.008-.23.098c-.084.034-.171.066-.262.098a2.558 2.558 0 0 1-.266.078 1.093 1.093 0 0 1-.546-.008.611.611 0 0 1-.22-.105.404.404 0 0 1-.124-.176.469.469 0 0 1-.008-.242l.441-2.136c.026-.133.036-.249.028-.348a.642.642 0 0 0-.063-.246.337.337 0 0 0-.12-.144.25.25 0 0 0-.15-.05.841.841 0 0 0-.358.081c-.115.055-.22.12-.317.195a1.779 1.779 0 0 0-.394.41l-.562 2.702h-.742l.535-2.608a1.121 1.121 0 0 0-.016-.52.428.428 0 0 0-.113-.187.288.288 0 0 0-.207-.074.663.663 0 0 0-.3.082c-.105.055-.206.12-.305.195a2.937 2.937 0 0 0-.441.426l-.563 2.686h-.734l.687-3.397-.663-.074v-.23l1.198-.25h.328l-.152.738a4.68 4.68 0 0 1 .316-.274c.112-.09.228-.17.348-.238.12-.067.24-.122.363-.164a1.11 1.11 0 0 1 .36-.062.615.615 0 0 1 .539.262.702.702 0 0 1 .116.238c.026.086.044.165.055.238a3.063 3.063 0 0 1 .687-.512 1.98 1.98 0 0 1 .387-.164c.132-.041.26-.062.382-.062.133 0 .249.025.348.074a.578.578 0 0 1 .242.203.695.695 0 0 1 .117.32c.018.125.012.264-.02.418l-.449 2.16a.378.378 0 0 0 .075.316c.033.039.074.07.12.093.048.021.097.031.149.031.065 0 .14-.015.226-.046.086-.032.179-.064.278-.098v.273Zm-6.2.047a4.876 4.876 0 0 1-.18.063 4.1 4.1 0 0 1-.601.16 1.4 1.4 0 0 1-.29.035c-.047 0-.112-.005-.195-.016a.745.745 0 0 1-.234-.062.43.43 0 0 1-.184-.14c-.047-.063-.058-.148-.035-.254l.488-2.456a.645.645 0 0 0 0-.266.351.351 0 0 0-.082-.168.271.271 0 0 0-.129-.09.407.407 0 0 0-.14-.027.672.672 0 0 0-.242.059 2.128 2.128 0 0 0-.3.148c-.105.062-.21.137-.317.223a2.614 2.614 0 0 0-.293.265l-.55 2.686h-.746l.695-3.397-.672-.074v-.23l1.207-.25h.32l-.149.746a3.18 3.18 0 0 1 .672-.508c.13-.07.264-.128.402-.172.14-.044.277-.066.41-.066.292 0 .499.08.62.242.126.161.157.422.095.78l-.426 2.258a.281.281 0 0 0 .016.18.282.282 0 0 0 .097.1.405.405 0 0 0 .13.048.94.94 0 0 0 .1.007c.074 0 .153-.01.239-.03a4.14 4.14 0 0 0 .265-.075l.008.281ZM100.5 2.757c.003-.013-.007-.043-.03-.09a1.135 1.135 0 0 0-.18-.28c-.034-.04-.063-.06-.086-.06-.203 0-.386.034-.547.102a1.325 1.325 0 0 0-.418.27c-.12.111-.222.242-.308.39a2.54 2.54 0 0 0-.203.465c-.052.161-.09.324-.113.488-.024.164-.036.32-.036.468 0 .112.01.224.028.336.018.112.05.213.093.305.047.09.11.165.188.222a.52.52 0 0 0 .308.086c.094 0 .188-.02.281-.062a1.858 1.858 0 0 0 .472-.308c.06-.056.105-.097.134-.126l.417-2.206Zm1.176 2.92a6.149 6.149 0 0 1-.453.18 3.94 3.94 0 0 1-.313.09 1.05 1.05 0 0 1-.273.043.756.756 0 0 1-.246-.035.415.415 0 0 1-.164-.106.502.502 0 0 1-.097-.171.981.981 0 0 1-.047-.235 2.092 2.092 0 0 1-.48.36c-.097.054-.201.099-.313.132a1.08 1.08 0 0 1-.344.055 1.19 1.19 0 0 1-.413-.066 1.027 1.027 0 0 1-.305-.176 1.068 1.068 0 0 1-.215-.258 1.742 1.742 0 0 1-.203-.625 2.616 2.616 0 0 1-.02-.308c0-.206.023-.413.067-.62a2.768 2.768 0 0 1 .523-1.152 2.11 2.11 0 0 1 1.71-.843c.073-.001.145.008.215.026.073.016.14.038.203.067.063.026.12.056.172.09a.816.816 0 0 1 .133.105l.117-.191h.547a.729.729 0 0 0-.152.457 25.789 25.789 0 0 0-.305 1.355 24.679 24.679 0 0 0-.184 1.01c-.02.133-.03.23-.03.29 0 .14.029.236.089.288.06.053.144.079.254.079a.597.597 0 0 0 .113-.016c.052-.013.105-.027.16-.043a21.397 21.397 0 0 1 .254-.07v.289Zm-4.162.008-.23.098c-.084.034-.171.066-.263.098a2.558 2.558 0 0 1-.265.078 1.093 1.093 0 0 1-.547-.008.611.611 0 0 1-.218-.105.404.404 0 0 1-.125-.176.469.469 0 0 1-.008-.242l.441-2.136a1.3 1.3 0 0 0 .027-.348.642.642 0 0 0-.062-.246.337.337 0 0 0-.121-.144.25.25 0 0 0-.148-.05.841.841 0 0 0-.36.081c-.114.055-.22.12-.316.195a1.779 1.779 0 0 0-.394.41l-.563 2.702h-.741l.535-2.608a1.121 1.121 0 0 0-.016-.52.428.428 0 0 0-.113-.187.288.288 0 0 0-.207-.074.663.663 0 0 0-.3.082c-.105.055-.207.12-.305.195a2.937 2.937 0 0 0-.442.426l-.562 2.686h-.734l.687-3.397-.664-.074v-.23l1.2-.25h.327l-.152.738c.099-.094.204-.185.316-.274.112-.09.228-.17.348-.238.12-.067.24-.122.363-.164a1.11 1.11 0 0 1 .359-.062.615.615 0 0 1 .539.262.702.702 0 0 1 .117.238c.026.085.044.165.055.238a3.063 3.063 0 0 1 .687-.512 1.98 1.98 0 0 1 .386-.164c.133-.041.26-.062.383-.062.133 0 .249.025.348.074a.578.578 0 0 1 .242.203.695.695 0 0 1 .117.32c.018.125.011.264-.02.418l-.449 2.16a.378.378 0 0 0 .074.316c.034.039.075.07.121.093.047.021.097.031.149.031.065 0 .14-.015.226-.046.086-.032.179-.064.278-.098v.273Zm-6.209.016c-.05.029-.118.06-.207.094a2.961 2.961 0 0 1-.593.164c-.104.02-.2.031-.285.031-.151 0-.263-.026-.336-.078a.411.411 0 0 1-.152-.172.507.507 0 0 1-.036-.203c.003-.068.004-.117.004-.148-.21.2-.432.351-.663.453-.23.099-.478.148-.746.148a.927.927 0 0 1-.453-.098.696.696 0 0 1-.266-.246.786.786 0 0 1-.109-.324 1.078 1.078 0 0 1 .012-.332l.519-2.495-.672-.074v-.23l1.207-.25h.328l-.636 3.05a.354.354 0 0 0 .007.195c.024.06.056.113.098.16.044.044.094.08.148.11a.37.37 0 0 0 .16.038c.097 0 .193-.013.29-.039.098-.029.196-.066.292-.113.096-.047.189-.1.277-.16.089-.063.17-.13.246-.2l.606-2.943h.745l-.64 3.077a.41.41 0 0 0 0 .21c.018.055.046.1.082.137a.35.35 0 0 0 .129.078c.05.016.096.024.14.024a.95.95 0 0 0 .504-.144v.28ZM87.1 2.32a.34.34 0 0 1-.102.234c-.067.07-.145.135-.234.195l-.601-.27c-.076.068-.14.144-.195.227-.052.08-.1.167-.145.258l-.133.27a1.965 1.965 0 0 1-.351.523 1.17 1.17 0 0 1-.223.183.946.946 0 0 1 .18.121.528.528 0 0 1 .133.152l.503.992a.383.383 0 0 0 .098.133c.042.034.086.05.133.05.052 0 .113-.02.183-.062a1.825 1.825 0 0 0 .41-.32c.06-.06.106-.108.137-.144l.117.207-.098.124a5.43 5.43 0 0 1-.16.188 2.737 2.737 0 0 1-.437.406c-.08.06-.163.108-.246.144a.569.569 0 0 1-.242.059.306.306 0 0 1-.219-.09.712.712 0 0 1-.148-.207l-.68-1.327a.297.297 0 0 0-.054-.078.194.194 0 0 0-.082-.047.439.439 0 0 0-.121-.028 1.64 1.64 0 0 0-.176-.007l-.336 1.686h-.734l.656-3.373-.624-.113v-.207l1.237-.258h.242l-.367 1.898c.13 0 .244-.017.34-.051a.881.881 0 0 0 .258-.14c.078-.063.147-.137.207-.223.06-.089.12-.186.18-.293.049-.094.094-.185.136-.273.042-.089.086-.174.133-.254.047-.084.1-.164.16-.242.062-.078.138-.155.226-.23a.79.79 0 0 1 .274-.153c.101-.031.201-.047.3-.047.146 0 .26.038.34.113a.348.348 0 0 1 .125.274Zm-8.938-.274-.347 1.793c.13 0 .243-.017.34-.051a.881.881 0 0 0 .257-.14c.078-.063.147-.137.207-.223.06-.089.12-.186.18-.293.05-.094.095-.185.136-.273.042-.089.086-.174.133-.254.047-.084.1-.164.16-.242.063-.078.138-.155.227-.23a.79.79 0 0 1 .273-.153c.101-.031.202-.047.3-.047.146 0 .26.038.34.113a.34.34 0 0 1 .023.508c-.067.07-.145.135-.234.195l-.6-.27c-.076.068-.141.144-.196.227-.052.08-.1.167-.145.258l-.132.27a1.966 1.966 0 0 1-.352.523 1.17 1.17 0 0 1-.222.183.946.946 0 0 1 .18.121.528.528 0 0 1 .132.152l.504.992a.383.383 0 0 0 .097.133c.042.034.086.05.133.05.052 0 .113-.02.184-.062a1.824 1.824 0 0 0 .41-.32c.06-.06.105-.108.136-.144l.117.207-.097.124a5.43 5.43 0 0 1-.16.188 2.738 2.738 0 0 1-.437.406c-.081.06-.163.108-.247.144a.569.569 0 0 1-.242.059.306.306 0 0 1-.218-.09.712.712 0 0 1-.149-.207l-.679-1.327a.297.297 0 0 0-.055-.078.194.194 0 0 0-.082-.047.439.439 0 0 0-.12-.028 1.64 1.64 0 0 0-.176-.007l-.336 1.686h-.734l.68-3.463h-.512c-.021 0-.047.01-.079.027a.135.135 0 0 0-.062.07l-.223.57h-.3l.215-1.05h1.772ZM73.18 4.495c0-.118-.012-.22-.035-.305a.492.492 0 0 0-.117-.215.504.504 0 0 0-.223-.129 1.148 1.148 0 0 0-.34-.043.439.439 0 0 0-.101.016 1.678 1.678 0 0 0-.246.086.59.59 0 0 0-.09.043l-.175.921a1.07 1.07 0 0 0-.024.207c0 .117.022.215.066.293a.548.548 0 0 0 .164.18.702.702 0 0 0 .39.113.5.5 0 0 0 .286-.09.855.855 0 0 0 .23-.25c.068-.106.12-.23.156-.37a1.73 1.73 0 0 0 .06-.457h-.001Zm.765.015c0 .263-.05.488-.148.676a1.326 1.326 0 0 1-.383.46c-.158.12-.337.207-.535.262a2.234 2.234 0 0 1-.597.082c-.128 0-.262-.018-.402-.055a1.32 1.32 0 0 1-.387-.168 1.018 1.018 0 0 1-.289-.289.754.754 0 0 1-.113-.417 1.276 1.276 0 0 1 .016-.207l.457-2.359-.68-.074v-.23l1.207-.25h.32l-.32 1.655a1.673 1.673 0 0 1 .238-.09.868.868 0 0 1 .242-.046c.203 0 .39.023.558.07.17.044.314.11.434.2a.855.855 0 0 1 .28.327c.069.13.102.281.102.453Zm2.074 1.152-.176.074a4.893 4.893 0 0 1-.297.113c-.112.037-.23.07-.355.098a1.527 1.527 0 0 1-.348.043.653.653 0 0 1-.328-.07.45.45 0 0 1-.18-.184.62.62 0 0 1-.066-.254 1.406 1.406 0 0 1 .02-.277l.511-2.71-.679-.074v-.23l1.21-.25h.32l-.6 3.198a.353.353 0 0 0-.005.156c.014.05.033.094.06.133a.338.338 0 0 0 .108.09c.045.02.094.03.149.03a.688.688 0 0 0 .164-.023 4.1 4.1 0 0 0 .37-.125c.055-.02.096-.035.122-.042v.304Zm-5.548-3.16a.581.581 0 0 1-.023.16.352.352 0 0 1-.094.153.637.637 0 0 1-.187.129 1.04 1.04 0 0 1-.309.078l-.457-.617a.787.787 0 0 0-.382.117c-.112.07-.211.162-.297.274-.083.112-.155.24-.215.382a3.183 3.183 0 0 0-.218.855 3.331 3.331 0 0 0-.024.371c0 .13.012.26.035.387.026.125.067.238.121.34.058.099.13.18.219.242a.58.58 0 0 0 .336.093c.106 0 .215-.018.324-.054.11-.04.218-.093.328-.16.112-.068.224-.149.336-.242.112-.094.225-.197.34-.309v.504a6.15 6.15 0 0 1-.286.257 2.63 2.63 0 0 1-.355.254c-.13.078-.273.143-.43.196a1.535 1.535 0 0 1-.495.078c-.19 0-.362-.033-.516-.098a1.086 1.086 0 0 1-.386-.289 1.376 1.376 0 0 1-.242-.469 2.137 2.137 0 0 1-.086-.632c0-.24.027-.469.082-.687.057-.219.135-.423.234-.613a2.57 2.57 0 0 1 .793-.914c.158-.112.326-.198.503-.258s.356-.09.535-.09c.143 0 .267.019.371.055a.804.804 0 0 1 .254.137.53.53 0 0 1 .144.183.433.433 0 0 1 .047.188Zm-4.424.255c.003-.013-.007-.043-.03-.09a1.135 1.135 0 0 0-.18-.281c-.034-.04-.063-.059-.086-.059-.203 0-.386.034-.547.102a1.325 1.325 0 0 0-.418.27c-.12.111-.222.241-.308.39a2.54 2.54 0 0 0-.203.464c-.052.162-.09.324-.114.488-.023.164-.035.32-.035.469 0 .112.01.224.028.336.018.112.05.213.093.304.047.091.11.165.188.223a.52.52 0 0 0 .308.086c.094 0 .188-.021.281-.063a1.859 1.859 0 0 0 .472-.308l.134-.125.417-2.206Zm1.176 2.92a6.15 6.15 0 0 1-.453.18 3.94 3.94 0 0 1-.313.09 1.05 1.05 0 0 1-.273.043.756.756 0 0 1-.246-.036.415.415 0 0 1-.164-.105.502.502 0 0 1-.098-.172.982.982 0 0 1-.046-.234 2.092 2.092 0 0 1-.48.36c-.097.054-.201.098-.313.132a1.08 1.08 0 0 1-.344.055 1.19 1.19 0 0 1-.413-.067 1.027 1.027 0 0 1-.305-.175 1.068 1.068 0 0 1-.215-.258 1.742 1.742 0 0 1-.203-.625 2.616 2.616 0 0 1-.02-.308c0-.206.023-.413.067-.621a2.768 2.768 0 0 1 .523-1.152 2.11 2.11 0 0 1 1.71-.843c.073 0 .145.009.215.027.073.016.14.038.203.066.063.026.12.056.172.09a.816.816 0 0 1 .133.106l.117-.192h.547a.729.729 0 0 0-.152.457 25.802 25.802 0 0 0-.305 1.355 24.669 24.669 0 0 0-.184 1.011c-.02.133-.031.23-.031.29 0 .14.03.236.09.288.06.052.144.078.254.078a.597.597 0 0 0 .113-.015l.16-.043a21.472 21.472 0 0 1 .254-.07v.288Zm-6.498-.015-.175.074a4.894 4.894 0 0 1-.297.113c-.112.037-.23.069-.355.098a1.577 1.577 0 0 1-.352.043.644.644 0 0 1-.324-.07.45.45 0 0 1-.18-.184.62.62 0 0 1-.066-.254 1.406 1.406 0 0 1 .02-.277l.207-1.082h-1.629l-.335 1.769h-.746l.64-3.397-.68-.074v-.23l1.207-.25h.32l-.335 1.8h1.632l.328-1.703h.734l-.582 3.1a.353.353 0 0 0 .055.29.338.338 0 0 0 .109.09c.044.02.094.03.148.03a.688.688 0 0 0 .164-.023 4.1 4.1 0 0 0 .371-.125c.055-.02.095-.035.121-.043v.305Zm-7.399-1.539a3.154 3.154 0 0 0-.015.313c0 .197.018.37.054.519.037.148.087.273.152.375.066.099.141.173.227.222.086.05.18.075.281.075a.706.706 0 0 0 .406-.125c.122-.084.232-.194.328-.332.099-.14.184-.301.254-.48.07-.183.125-.372.164-.567h-1.85Zm1.921-.664c0-.19-.018-.357-.054-.503a1.256 1.256 0 0 0-.149-.367.672.672 0 0 0-.226-.227.532.532 0 0 0-.281-.078.688.688 0 0 0-.383.117c-.12.076-.23.179-.328.309-.096.13-.182.283-.258.46-.073.175-.131.36-.175.555h1.839a2.286 2.286 0 0 0 .015-.266Zm.808.036c0 .216-.024.428-.074.636-.047.206-.116.4-.207.586a2.539 2.539 0 0 1-.324.511 2.224 2.224 0 0 1-.425.402c-.157.112-.327.2-.512.262a1.75 1.75 0 0 1-.586.098c-.218 0-.416-.036-.593-.106a1.229 1.229 0 0 1-.45-.3 1.408 1.408 0 0 1-.284-.477 1.908 1.908 0 0 1-.098-.628 2.981 2.981 0 0 1 .27-1.234c.088-.188.195-.36.32-.52.125-.161.265-.299.422-.414a1.96 1.96 0 0 1 .515-.273 1.796 1.796 0 0 1 1.14-.008c.175.06.327.154.457.281.133.128.237.29.312.485.078.195.117.428.117.699Zm-4.06-.992a.581.581 0 0 1-.024.16.352.352 0 0 1-.093.152.637.637 0 0 1-.188.129 1.04 1.04 0 0 1-.308.078l-.457-.617a.787.787 0 0 0-.383.117c-.112.07-.21.162-.297.274-.083.112-.154.24-.214.382a3.184 3.184 0 0 0-.219.855 3.331 3.331 0 0 0-.023.371c0 .13.011.26.035.387.026.125.066.238.12.34.058.098.131.18.22.242a.58.58 0 0 0 .335.093c.107 0 .215-.018.324-.054.11-.04.219-.093.328-.16.112-.068.224-.149.336-.242.112-.094.225-.197.34-.309v.504a6.15 6.15 0 0 1-.285.257 2.63 2.63 0 0 1-.355.254c-.13.078-.274.143-.43.196a1.535 1.535 0 0 1-.496.078c-.19 0-.362-.033-.515-.098a1.086 1.086 0 0 1-.387-.289 1.376 1.376 0 0 1-.242-.469 2.137 2.137 0 0 1-.086-.632c0-.24.028-.469.082-.687.057-.219.136-.423.234-.613a2.571 2.571 0 0 1 .793-.914c.159-.112.327-.198.504-.258s.355-.09.535-.09c.143 0 .267.019.37.055a.804.804 0 0 1 .254.137.53.53 0 0 1 .145.183.433.433 0 0 1 .047.188Zm-6.197 1.62a3.154 3.154 0 0 0-.015.313c0 .197.018.37.054.519.037.148.087.273.152.375.066.099.141.173.227.222.086.05.18.074.281.074a.706.706 0 0 0 .406-.124c.123-.084.232-.194.328-.332.1-.14.184-.301.254-.48.07-.183.125-.372.164-.567h-1.85Zm1.921-.664c0-.19-.018-.357-.054-.503a1.256 1.256 0 0 0-.149-.367.672.672 0 0 0-.226-.227.532.532 0 0 0-.281-.078.688.688 0 0 0-.383.117c-.12.076-.23.179-.328.309-.096.13-.182.283-.258.46-.073.175-.131.36-.175.555h1.839a2.286 2.286 0 0 0 .015-.266Zm.808.036c0 .216-.024.428-.074.636-.047.206-.116.4-.207.586a2.539 2.539 0 0 1-.324.511 2.224 2.224 0 0 1-.425.402c-.157.112-.327.2-.512.262a1.75 1.75 0 0 1-.586.098c-.218 0-.416-.036-.593-.106a1.229 1.229 0 0 1-.45-.3 1.408 1.408 0 0 1-.284-.477 1.908 1.908 0 0 1-.098-.629 2.981 2.981 0 0 1 .27-1.234c.088-.187.195-.36.32-.519.125-.161.265-.299.422-.414a1.96 1.96 0 0 1 .515-.273 1.796 1.796 0 0 1 1.14-.008c.175.06.327.154.457.281.133.128.237.29.312.485.078.195.117.428.117.699ZM42.37 5.693a5.371 5.371 0 0 1-.387.148c-.112.037-.235.07-.37.102a1.655 1.655 0 0 1-.38.047.762.762 0 0 1-.288-.047.42.42 0 0 1-.172-.117.444.444 0 0 1-.086-.176 1.136 1.136 0 0 1-.008-.355 18.622 18.622 0 0 1 .074-.496l.043-.262a16.866 16.866 0 0 0 .063-.34h-.274c-.106 0-.195.007-.265.02a.637.637 0 0 0-.176.05.617.617 0 0 0-.129.087 1.465 1.465 0 0 0-.34.426l-.163.331a4.273 4.273 0 0 1-.184.336c-.067.11-.16.215-.277.316a.647.647 0 0 1-.203.121 1.858 1.858 0 0 1-.582.105.737.737 0 0 1-.152-.015.722.722 0 0 1-.129-.031.662.662 0 0 1-.125-.051l.047-.238c.078.008.155.01.23.008.065-.003.132-.01.2-.024a.397.397 0 0 0 .171-.074 1.026 1.026 0 0 0 .234-.305c.03-.054.053-.108.07-.16.022-.054.042-.105.063-.152.024-.055.048-.11.074-.164.03-.055.06-.11.094-.164.034-.055.073-.11.117-.164.045-.057.097-.114.156-.172.053-.044.13-.09.23-.136.105-.05.212-.086.321-.11a2.331 2.331 0 0 1-.387-.132 1.255 1.255 0 0 1-.316-.207.762.762 0 0 1-.191-.282.648.648 0 0 1-.024-.363 1.05 1.05 0 0 1 .562-.78 1.78 1.78 0 0 1 .555-.18c.216-.037.465-.055.746-.055h1.19l-.585 3.214c-.01.06-.006.109.012.148.018.04.043.07.074.094.034.023.072.04.113.05a.657.657 0 0 0 .29-.007c.062-.013.123-.028.183-.043a3.017 3.017 0 0 0 .28-.098v.297Zm-1.421-3.366c-.196 0-.364.016-.504.047a1.075 1.075 0 0 0-.351.133.685.685 0 0 0-.223.226.973.973 0 0 0-.117.32 1.08 1.08 0 0 0-.012.395c.02.11.066.198.137.265.07.068.165.117.285.149.122.03.272.047.449.047h.086c.034 0 .066-.002.097-.004.037 0 .076-.002.117-.004l.297-1.574h-.261Zm-3.612 2.167c0-.117-.012-.218-.035-.304a.492.492 0 0 0-.117-.215.504.504 0 0 0-.22-.129 1.148 1.148 0 0 0-.339-.043.439.439 0 0 0-.101.016 1.435 1.435 0 0 0-.25.086c-.037.015-.067.03-.09.043l-.176.921a1.982 1.982 0 0 0-.015.207c0 .117.022.215.066.293a.548.548 0 0 0 .164.18.702.702 0 0 0 .394.113c.1 0 .192-.03.278-.09a.855.855 0 0 0 .23-.25c.065-.107.116-.23.152-.37a1.73 1.73 0 0 0 .059-.458Zm.777.016c0 .263-.05.488-.149.675a1.365 1.365 0 0 1-.386.461c-.159.12-.338.207-.539.262a2.234 2.234 0 0 1-.597.082c-.128 0-.262-.019-.402-.055a1.32 1.32 0 0 1-.387-.168 1.067 1.067 0 0 1-.293-.289.754.754 0 0 1-.105-.515c.005-.037.011-.073.02-.11l.487-2.502h-.785a.104.104 0 0 0-.062.023.1.1 0 0 0-.043.055l-.2.593h-.413l.191-.984h2.109l-.313 1.558a1.673 1.673 0 0 1 .239-.09.868.868 0 0 1 .242-.046c.203 0 .389.023.558.07.172.044.319.11.441.199a.888.888 0 0 1 .285.328c.068.13.102.281.102.453Zm-3.956 1.152-.175.074a4.893 4.893 0 0 1-.297.113c-.112.037-.23.07-.355.098a1.577 1.577 0 0 1-.352.043.644.644 0 0 1-.324-.07.45.45 0 0 1-.18-.184.62.62 0 0 1-.066-.254 1.406 1.406 0 0 1 .02-.277l.207-1.082h-1.629l-.335 1.77h-.746l.64-3.398-.68-.074v-.23l1.207-.25h.32l-.335 1.8h1.632l.328-1.703h.734l-.582 3.1a.353.353 0 0 0 .055.29.338.338 0 0 0 .109.09c.044.02.094.03.148.03a.688.688 0 0 0 .164-.023 4.1 4.1 0 0 0 .371-.125c.055-.02.095-.035.121-.043v.305ZM28.68 3.46c0-.19-.018-.358-.055-.504a1.256 1.256 0 0 0-.148-.367.672.672 0 0 0-.226-.227.532.532 0 0 0-.282-.078.743.743 0 0 0-.488.192 1.65 1.65 0 0 0-.386.495 3.239 3.239 0 0 0-.351 1.464c0 .199.018.372.054.52.037.148.087.273.152.375.065.099.14.173.227.222.086.05.18.075.281.075a.697.697 0 0 0 .351-.094c.112-.065.213-.151.301-.258.091-.11.172-.235.242-.379a3.155 3.155 0 0 0 .289-.948 3.21 3.21 0 0 0 .04-.488Zm.808.035c0 .216-.024.428-.074.636-.047.206-.116.401-.207.586a2.539 2.539 0 0 1-.324.511 2.224 2.224 0 0 1-.426.402c-.156.112-.326.2-.511.262a1.75 1.75 0 0 1-.586.098c-.218 0-.416-.035-.593-.106a1.229 1.229 0 0 1-.45-.3 1.408 1.408 0 0 1-.284-.477 1.908 1.908 0 0 1-.098-.628 2.981 2.981 0 0 1 .27-1.234c.088-.188.195-.36.32-.52.125-.161.265-.299.421-.413a1.96 1.96 0 0 1 .516-.274 1.796 1.796 0 0 1 1.14-.008c.174.06.327.154.457.282.133.127.237.288.312.484.078.195.117.428.117.699Zm-4.845.07a4.626 4.626 0 0 0-.043-.64 2.335 2.335 0 0 0-.05-.262 2.952 2.952 0 0 0-.067-.25.49.49 0 0 0-.164-.09.619.619 0 0 0-.23-.039.931.931 0 0 0-.43.098 1.12 1.12 0 0 0-.34.258 1.645 1.645 0 0 0-.258.374 2.647 2.647 0 0 0-.18.453 3.39 3.39 0 0 0-.136.96c0 .21.021.389.063.54.041.148.096.272.164.37.07.097.148.169.234.215a.566.566 0 0 0 .262.067.731.731 0 0 0 .35-.086c.11-.057.208-.135.294-.234.088-.102.165-.22.23-.352a2.82 2.82 0 0 0 .164-.43 3.394 3.394 0 0 0 .137-.953v.001Zm.78-.023c0 .158-.015.329-.046.511a2.83 2.83 0 0 1-.406 1.07 1.836 1.836 0 0 1-.918.754c-.2.075-.428.113-.683.113-.21 0-.404-.035-.578-.106a1.314 1.314 0 0 1-.453-.3 1.386 1.386 0 0 1-.297-.48 1.848 1.848 0 0 1-.105-.645 2.892 2.892 0 0 1 .266-1.238c.088-.187.193-.359.316-.515.122-.156.259-.29.41-.402.153-.115.32-.203.5-.266.182-.065.373-.097.573-.097a.54.54 0 0 1 .192.035.9.9 0 0 1 .183.086 5.232 5.232 0 0 0-.367-.797 5.394 5.394 0 0 0-.472-.714l-.625-.16.035-.239L23.995 0c.096.122.197.263.304.422a6.973 6.973 0 0 1 .629 1.1c.096.209.18.424.254.645.073.221.131.448.175.68.045.231.067.463.067.694ZM16.72 2.046l-.347 1.792c.13 0 .243-.017.34-.05a.881.881 0 0 0 .257-.141c.078-.063.147-.137.207-.223.06-.088.12-.186.18-.292.05-.094.095-.185.136-.274.042-.088.086-.173.133-.254.047-.083.1-.164.16-.242.063-.078.138-.155.227-.23a.79.79 0 0 1 .273-.152c.102-.032.202-.047.3-.047.146 0 .26.038.34.113a.34.34 0 0 1 .023.508c-.067.07-.145.135-.233.195l-.602-.27c-.075.068-.14.144-.195.227-.052.08-.1.167-.144.258-.045.088-.089.178-.133.27a1.965 1.965 0 0 1-.352.522 1.17 1.17 0 0 1-.222.184.946.946 0 0 1 .18.12.528.528 0 0 1 .132.153l.504.992a.383.383 0 0 0 .097.133c.042.033.086.05.133.05.052 0 .113-.02.184-.062a1.825 1.825 0 0 0 .41-.32c.06-.06.105-.108.136-.145l.118.207-.098.125a5.43 5.43 0 0 1-.16.188 2.737 2.737 0 0 1-.437.406c-.081.06-.163.108-.246.144a.569.569 0 0 1-.243.059.306.306 0 0 1-.218-.09.712.712 0 0 1-.149-.207l-.679-1.328a.297.297 0 0 0-.055-.078.194.194 0 0 0-.082-.047.439.439 0 0 0-.12-.027 1.64 1.64 0 0 0-.176-.008l-.336 1.687h-.734l.68-3.463h-.512c-.021 0-.047.009-.078.027a.135.135 0 0 0-.063.07l-.222.57h-.301l.215-1.05h1.772Zm-4.982 2.448c0-.117-.012-.218-.035-.304a.492.492 0 0 0-.117-.215.504.504 0 0 0-.223-.129 1.148 1.148 0 0 0-.34-.043.439.439 0 0 0-.1.016 1.678 1.678 0 0 0-.247.086.59.59 0 0 0-.09.043l-.175.921a1.07 1.07 0 0 0-.024.207c0 .117.022.215.067.293a.548.548 0 0 0 .164.18.702.702 0 0 0 .39.113.5.5 0 0 0 .285-.09.855.855 0 0 0 .23-.25c.068-.107.12-.23.157-.37a1.73 1.73 0 0 0 .058-.458Zm.765.016c0 .263-.049.488-.148.675a1.326 1.326 0 0 1-.383.461c-.158.12-.337.207-.534.262a2.234 2.234 0 0 1-.598.082c-.127 0-.261-.019-.402-.055a1.32 1.32 0 0 1-.387-.168 1.018 1.018 0 0 1-.289-.289.754.754 0 0 1-.113-.418 1.276 1.276 0 0 1 .016-.207l.457-2.358-.68-.074v-.23l1.207-.25h.32l-.32 1.655a1.673 1.673 0 0 1 .238-.09.868.868 0 0 1 .242-.046c.203 0 .39.023.558.07.17.044.314.11.434.199a.855.855 0 0 1 .28.328c.069.13.102.281.102.453Zm2.074 1.152-.176.074a4.894 4.894 0 0 1-.297.113c-.112.037-.23.07-.355.098a1.527 1.527 0 0 1-.347.043.653.653 0 0 1-.328-.07.45.45 0 0 1-.18-.184.62.62 0 0 1-.066-.254 1.406 1.406 0 0 1 .02-.277l.51-2.71-.679-.074v-.23l1.21-.25h.32l-.6 3.198a.353.353 0 0 0-.004.156c.013.05.032.093.058.132a.338.338 0 0 0 .11.09c.044.021.093.032.148.032a.688.688 0 0 0 .164-.024 4.1 4.1 0 0 0 .37-.125c.055-.02.096-.035.122-.043v.305Zm-5.542-3.16a.581.581 0 0 1-.023.16.352.352 0 0 1-.094.153.637.637 0 0 1-.187.129 1.04 1.04 0 0 1-.309.078l-.456-.617a.787.787 0 0 0-.383.117c-.112.07-.211.161-.297.273-.083.112-.155.24-.215.383a3.183 3.183 0 0 0-.218.855 3.331 3.331 0 0 0-.024.371c0 .13.012.259.035.387.026.125.067.238.121.34.058.098.13.179.22.241a.58.58 0 0 0 .335.094c.107 0 .215-.018.324-.055.11-.039.219-.092.328-.16.112-.067.224-.148.336-.242.112-.093.225-.196.34-.308v.503a6.15 6.15 0 0 1-.286.258 2.63 2.63 0 0 1-.355.254c-.13.078-.273.143-.43.195a1.535 1.535 0 0 1-.495.078c-.19 0-.362-.032-.516-.097a1.086 1.086 0 0 1-.386-.29 1.376 1.376 0 0 1-.242-.468 2.137 2.137 0 0 1-.086-.632c0-.24.027-.469.082-.688.057-.218.135-.423.234-.613a2.57 2.57 0 0 1 .793-.913c.158-.112.326-.198.503-.258s.356-.09.535-.09c.143 0 .267.018.371.055a.804.804 0 0 1 .254.137.53.53 0 0 1 .145.183.433.433 0 0 1 .046.187Zm-5.619-1.12L2.233 3.459H3.76l-.344-2.077Zm.137 4.51v-.336l.367-.039c.117-.016.168-.066.152-.152L3.83 3.838H2.02l-.816 1.527c-.029.052-.03.088-.004.11.028.02.08.034.156.042l.367.04v.335H0v-.336l.449-.047L3.401.398h.64l.863 4.967c.008.052.022.09.043.113.021.02.06.034.117.039l.367.039v.336H3.553Z"/></svg>