<svg xmlns="http://www.w3.org/2000/svg" fill="none" viewBox="0 0 125.48 9.943"><g fill="#1e1e1e"><path d="M.099 2.458q0-.53.542-1.02.547-.495 1.38-.495.724 0 1.26.411.542.406.542 1.209 0 .385-.162.729-.16.339-.348.557-.182.219-.558.578L1.677 5.464q-.792.792-.792 1.291h1.901q.286 0 .448-.224.161-.224.297-.802.203-.041.313.058-.021.745-.255 1.682-.49-.02-.834-.021H.885L0 7.468q0-.51.24-.984.245-.474.979-1.224l.791-.776q.875-.885.87-1.88 0-.693-.281-.99-.281-.301-.646-.301-.53 0-.792.203-.26.203-.26.448 0 .052.042.15.041.094.041.105.042.15.042.224 0 .16-.177.297-.172.13-.323.13-.172 0-.302-.12-.125-.12-.125-.292M7.807 5.432q0-.833-.343-1.224-.34-.396-.891-.396-.672 0-1.354.256l.36-3.073q.62.052 1.15.052.641 0 1.75-.115l.078.042-.172.724q-.66.062-1.12.062-.364 0-1.25-.093l-.213 1.78q.438-.171 1.047-.171.865 0 1.385.578.526.573.526 1.386 0 1.02-.635 1.671-.635.656-1.63.657-.49 0-1-.245-.51-.25-.51-.557 0-.161.12-.276.124-.12.28-.12.286 0 .547.344.01.02.063.088t.073.104q.026.031.078.084.052.052.094.078l.104.067q.067.037.135.047.073.01.156.01.49 0 .829-.504.344-.51.343-1.256M15.156 4.964l-.843.224q-1.02.255-1.01 1.171 0 .286.192.526.198.234.573.235t.937-.464q.151-.104.151-.276zm0 1.974h-.02l-.214.166q-.354.276-.578.36-.224.088-.583.088-.61 0-.98-.276-.365-.276-.364-.875 0-.53.484-.937.484-.406 1.276-.61l.917-.224q.062-.02.062-.125 0-1.39-.864-1.385-.354 0-.62.114-.266.11-.266.334 0 .15.021.208.031.063.031.193 0 .12-.13.24-.125.114-.338.114-.375 0-.37-.375 0-.438.552-.807.557-.375 1.208-.375 1.61 0 1.61 1.802v1.588q0 .307.015.47.016.16.115.301.104.135.297.136.13 0 .224-.084t.104-.083q.031 0 .083.062.058.063.058.115 0 .031-.115.146-.11.109-.333.224-.224.109-.459.11-.64.004-.823-.615M18.864 3.63q.781-.865 1.75-.864.61 0 .886.364.286.385.286 1.427v1.589q0 .63.12.781.125.146.594.193.042.041.041.172 0 .125-.041.177-.917-.021-1.13-.021-.193 0-1.089.02-.042-.041-.042-.166 0-.13.042-.182.438-.042.547-.193.115-.151.115-.781v-1.62q0-.568-.125-.823-.203-.385-.568-.385-.651 0-1.302.63-.182.203-.183.448v1.75q0 .63.105.781.109.146.536.193.052.052.052.182.005.125-.052.167-.896-.021-1.052-.021-.297 0-1.177.02-.042-.041-.042-.166 0-.13.042-.182.5-.042.625-.188t.125-.786V4.068q0-.448-.125-.563-.12-.12-.573-.161-.063-.182-.02-.302.832-.104 1.343-.308.083 0 .13.084.083.193.084.812.005.13.098 0M23.192 5.974q.052-.052.167-.052t.167.042q.182.755.416.984.234.255.756.255.344 0 .625-.193.28-.193.28-.552 0-.354-.218-.567-.219-.214-.87-.48-.64-.266-.906-.572-.266-.313-.266-.88 0-.5.448-.844.448-.35 1.058-.35.245 0 .5.037t.536.1q.286.056.36.067 0 .14-.032.531-.03.385-.031.599-.052.052-.172.052t-.172-.042q-.052-.318-.177-.53-.12-.215-.286-.303-.167-.094-.292-.125-.12-.031-.234-.031-.286 0-.521.187-.23.182-.23.495 0 .172.058.307t.125.224q.073.084.24.177.167.089.28.136l.365.146q1.25.474 1.25 1.416 0 .375-.177.657-.177.276-.453.422-.276.14-.547.203-.266.062-.52.062-.522 0-.97-.114-.072-.021-.213-.021-.104 0-.266.031-.005-.557-.078-1.474M33.187 6.125V4.099q0-.245-.036-.344-.031-.104-.146-.234-.328-.385-.864-.38-.641 0-.995.53-.307.439-.308 1.418 0 .938.35 1.453.353.51.822.51.417 0 1.006-.51.172-.151.171-.417m-.12.786q-.78.641-1.333.641-.844 0-1.328-.625-.484-.63-.484-1.646 0-1.14.734-1.875.672-.64 1.6-.64.16 0 .353.047t.329.093q.14.042.15.042.094 0 .1-.099V1.484q0-.344-.021-.51-.016-.172-.136-.25-.115-.083-.177-.089L32.5.61q-.12-.12-.062-.317.948-.073 1.494-.292.141 0 .14.11-.04.426-.046 1.12v4.832q0 .417.146.579.146.156.635.198.052.052.052.15 0 .094-.052.141-.896.104-1.291.422-.12.031-.204 0-.12-.375-.114-.625 0-.026-.016-.036-.01-.016-.031-.016t-.042.01-.041.026M36.224 4.437l1.933-.03q.16 0 .156-.147 0-.609-.26-.864t-.625-.255q-.141 0-.277.036-.135.037-.333.156-.198.115-.36.401-.16.286-.234.703m2.797 2.021q.182.01.224.167-.714.927-1.817.927-1.06 0-1.63-.682-.5-.578-.5-1.578 0-1.13.676-1.818.677-.688 1.454-.688 1.8 0 1.802 1.855 0 .182-.198.182l-2.839-.02q0 .895.339 1.463.469.766 1.166.765.448 0 .73-.125.286-.13.593-.448M43.35 6.146V1.484q0-.344-.021-.51-.016-.172-.136-.25-.115-.083-.177-.089L42.662.61q-.12-.12-.063-.317.948-.073 1.495-.292.141 0 .14.11-.04.426-.046 1.12v4.916q0 .64.135.797.135.15.636.177.041.052.041.182 0 .125-.041.167-.917-.021-1.188-.021-.297 0-1.192.02-.053-.04-.052-.166 0-.13.052-.182.5-.021.635-.177t.135-.797M45.99 2.906q-.277-1.7-.277-1.797 0-.193.157-.359.16-.172.385-.172.375 0 .375.354l-.354 1.927zM48.24 4.437l1.932-.03q.16 0 .156-.147 0-.609-.26-.864t-.625-.255q-.141 0-.277.036-.135.037-.333.156-.198.115-.36.401-.16.286-.234.703m2.796 2.021q.182.01.224.167-.714.927-1.817.927-1.06 0-1.63-.682-.5-.578-.5-1.578 0-1.13.676-1.818.677-.688 1.454-.688 1.8 0 1.802 1.855 0 .182-.198.182l-2.839-.02q0 .895.339 1.463.469.766 1.166.765.448 0 .73-.125.286-.13.593-.448M53.646 3.63q.781-.865 1.75-.864.61 0 .886.364.286.385.286 1.427v1.589q0 .63.12.781.125.146.594.193.042.041.041.172 0 .125-.041.177-.917-.021-1.13-.021-.193 0-1.089.02-.042-.041-.042-.166 0-.13.042-.182.438-.042.547-.193.115-.151.115-.781v-1.62q0-.568-.125-.823-.203-.385-.568-.385-.651 0-1.302.63-.182.203-.183.448v1.75q0 .63.105.781.109.146.536.193.052.052.052.182.005.125-.052.167-.896-.021-1.052-.021-.297 0-1.177.02-.042-.041-.042-.166 0-.13.042-.182.5-.042.625-.188t.125-.786V4.068q0-.448-.125-.563-.12-.12-.573-.161-.063-.182-.02-.302.832-.104 1.343-.308.083 0 .13.084.083.193.083.812.006.13.1 0M61.708 6.48q-.375.62-.791.848-.411.224-.948.224-.99 0-1.552-.63-.557-.635-.558-1.693 0-1.08.672-1.77t1.516-.693q.755 0 1.193.28.438.282.437.73 0 .224-.167.349t-.354.125q-.365 0-.406-.385-.02-.234-.073-.365-.047-.135-.219-.255-.167-.125-.468-.125-.531 0-.875.505-.34.505-.339 1.37 0 .917.417 1.479.417.557 1.01.557.734 0 1.281-.703.172.021.224.151M64.203 9.156q-.427.766-1.036.766-.214 0-.36-.115-.14-.109-.14-.28 0-.142.13-.303.135-.156.339-.156.052 0 .14.015.094.016.167.016.365 0 .536-.307.255-.521.417-.98.13-.364-.151-1.005L63.037 4q-.156-.359-.255-.505-.094-.146-.22-.209-.12-.062-.364-.083-.041-.042-.041-.167 0-.13.041-.187.427.02.865.02.417 0 1.203-.02.042.052.042.182t-.042.172q-.188.016-.297.052-.104.031-.156.073-.052.037-.047.13.01.089.036.162.026.068.089.219.015.036.026.057l.948 2.219q.031.078.062.114.037.037.068.037.031-.006.063-.037.03-.036.062-.104l1.057-2.443q.12-.255-.036-.349-.156-.099-.48-.13-.051-.041-.051-.166 0-.13.052-.188.792.02.974.02.224 0 .755-.02.052.052.052.182t-.052.172q-.276.021-.505.224-.23.203-.36.458-.682 1.43-1.885 4.355-.224.53-.438.916M71.677 6.48q-.375.62-.791.848-.411.224-.948.224-.99 0-1.552-.63-.557-.635-.558-1.693 0-1.08.672-1.77t1.516-.693q.755 0 1.193.28.438.282.437.73 0 .224-.167.349t-.354.125q-.365 0-.406-.385-.02-.234-.073-.365-.047-.135-.219-.255-.167-.125-.468-.125-.531 0-.875.505-.34.505-.339 1.37 0 .917.417 1.479.417.557 1.01.557.734 0 1.281-.703.172.021.224.151M73.01 6.146V1.484q0-.344-.02-.51-.016-.172-.136-.25-.115-.083-.177-.089L72.323.61q-.12-.12-.063-.317.948-.073 1.495-.292.141 0 .14.11-.04.426-.046 1.12v4.916q0 .64.135.797.135.15.636.177.041.052.041.182 0 .125-.041.167-.917-.021-1.188-.021-.297 0-1.192.02-.052-.04-.052-.166 0-.13.052-.182.5-.021.635-.177t.135-.797M75.245 5.26q0-1.06.589-1.75.635-.745 1.672-.744.766 0 1.292.38.53.375.74.9.207.522.207 1.12 0 1.11-.692 1.792-.61.6-1.568.594-1.07 0-1.656-.693-.583-.693-.584-1.599m2.1-2.12q-1.18 0-1.183 1.876 0 .344.078.698.084.349.24.692.16.34.458.558.302.219.698.218.47 0 .828-.385.365-.385.365-1.292 0-1.14-.396-1.75-.396-.615-1.089-.614M82.047 3.917q-.172.214-.166.468v1.943q0 .198.02.302.021.1.068.167.047.062.167.172.13.115.349.172.224.052.406.052.427 0 .735-.177.313-.177.468-.48.161-.302.23-.62.072-.322.072-.687 0-.875-.37-1.422-.364-.552-.9-.552-.224 0-.547.198-.318.198-.532.464m-.166-.396q0 .052.031.068.031.01.052-.021.682-.802 1.464-.802.802 0 1.343.65t.542 1.527q0 1.25-.786 2.015-.63.6-1.573.594-.521 0-.927-.161-.084-.042-.115-.032t-.031.11v1.15q0 .642.14.792.146.151.735.183.052.052.052.177 0 .13-.052.172-.917-.021-1.292-.021-.297 0-1.198.02-.042-.041-.042-.171 0-.125.042-.177.5-.021.636-.177.135-.156.135-.797V4.068q0-.448-.125-.563-.12-.12-.568-.161-.062-.182-.02-.302.832-.104 1.343-.308.084 0 .125.084.089.193.089.703zM88.646.292q.063-.021.151-.021.328 0 .584.245l.031.114-1.224 1.167q-.203.203-.323.198-.052 0-.099-.042t-.047-.094q0-.104.12-.296zM87.09 4.437l1.932-.03q.161 0 .157-.147 0-.609-.26-.864t-.626-.255q-.14 0-.276.036-.135.037-.333.156-.198.115-.36.401-.16.286-.234.703m2.797 2.021q.182.01.224.167-.714.927-1.818.927-1.06 0-1.63-.682-.5-.578-.5-1.578 0-1.13.677-1.818t1.453-.688q1.8 0 1.802 1.855 0 .182-.198.182l-2.838-.02q0 .895.338 1.463.47.766 1.167.765.448 0 .73-.125.285-.13.593-.448M94.262 6.125V4.099q0-.245-.036-.344-.031-.104-.146-.234-.328-.385-.865-.38-.64 0-.994.53-.307.439-.308 1.418 0 .938.35 1.453.353.51.822.51.417 0 1.005-.51.172-.151.172-.417m-.12.786q-.78.641-1.333.641-.844 0-1.328-.625-.484-.63-.484-1.646 0-1.14.734-1.875.672-.64 1.6-.64.16 0 .353.047.193.046.329.093.14.042.15.042.094 0 .1-.099V1.484q0-.344-.021-.51-.016-.172-.136-.25-.115-.083-.177-.089L93.575.61q-.12-.12-.062-.317Q94.46.219 95.007 0q.141 0 .141.11-.042.426-.047 1.12v4.832q0 .417.146.579.146.156.635.198.052.052.052.15 0 .094-.052.141-.896.104-1.291.422-.12.031-.203 0-.12-.375-.115-.625 0-.026-.016-.036-.01-.016-.03-.016t-.043.01-.041.026zM96.942 1.057q0-.193.183-.349.182-.16.375-.161.203 0 .354.177.156.177.156.375 0 .182-.172.349-.167.167-.38.167-.193 0-.354-.178-.161-.177-.162-.38m.974 5.089q0 .64.125.792.13.146.641.182.052.052.052.182 0 .125-.052.167-.917-.021-1.182-.021-.297 0-1.198.02-.042-.04-.042-.166 0-.13.042-.182.51-.042.64-.188t.13-.786V4.068q0-.448-.124-.563-.12-.12-.568-.161-.063-.182-.02-.302.99-.13 1.457-.308.141 0 .141.073 0 .026-.005.078-.005.047-.01.198-.005.146-.016.287l-.01.318v.333zM100.192 4.437l1.933-.03q.16 0 .156-.147 0-.609-.26-.864t-.625-.255q-.141 0-.277.036-.135.037-.333.156-.198.115-.36.401-.16.286-.234.703m2.797 2.021q.182.01.224.167-.714.927-1.817.927-1.06 0-1.63-.682-.5-.578-.5-1.578 0-1.13.676-1.818.677-.688 1.454-.688 1.8 0 1.802 1.855 0 .182-.198.182l-2.839-.02q0 .895.339 1.463.469.766 1.166.765.448 0 .73-.125.286-.13.593-.448M107.322 6.146V1.484q0-.344-.02-.51-.016-.172-.136-.25-.115-.083-.177-.089l-.354-.026q-.12-.12-.063-.317.948-.073 1.495-.292.141 0 .14.11-.04.426-.046 1.12v4.916q0 .64.135.797.135.15.636.177.042.052.042.182 0 .125-.042.167-.917-.021-1.188-.021-.297 0-1.192.02-.052-.04-.052-.166 0-.13.052-.182.5-.021.635-.177t.135-.797M110.072 1.057q0-.193.183-.349.182-.16.375-.161.203 0 .354.177.156.177.156.375 0 .182-.172.349-.167.167-.38.167-.193 0-.354-.178-.161-.177-.162-.38m.974 5.089q0 .64.125.792.13.146.641.182.052.052.052.182 0 .125-.052.167-.917-.021-1.182-.021-.297 0-1.198.02-.042-.04-.042-.166 0-.13.042-.182.51-.042.64-.188t.13-.786V4.068q0-.448-.124-.563-.12-.12-.568-.161-.063-.182-.02-.302.99-.13 1.457-.308.141 0 .141.073 0 .026-.005.078-.005.047-.01.198-.005.146-.016.287l-.01.318v.333zM113.862 3.578q-.182.161-.177.448v2.667q.406.5.766.5.734 0 1.12-.589.385-.594.385-1.547 0-.766-.349-1.291-.344-.531-.838-.532-.521 0-.907.344m-.072-.333q.53-.48 1.192-.48.734 0 1.313.59.578.582.578 1.51 0 1.19-.74 1.942-.734.745-1.62.745-.625 0-.937-.26-.089-.073-.151-.068-.057 0-.14.094-.037.041-.094.099-.053.057-.079.078-.026.026-.078.083-.15 0-.234-.13.042-.203.042-.755V1.484q0-.344-.016-.51-.015-.172-.135-.25-.115-.083-.183-.089L112.16.61q-.12-.12-.067-.317.948-.073 1.495-.292.14 0 .14.11-.042.426-.042 1.12v1.963q0 .146.105.052zM119.172 3.63q0 .052.016.073t.068-.052q.214-.365.526-.625.318-.26.656-.26.307 0 .474.166.167.161.167.344 0 .203-.157.37-.15.167-.343.166-.073 0-.151-.036-.073-.042-.11-.078l-.099-.104q-.057-.073-.078-.094-.073-.073-.224-.073-.13 0-.49.52-.254.386-.255.714v1.485q0 .64.141.786.146.141.734.188.052.052.052.182 0 .125-.052.167-.917-.021-1.291-.021-.318 0-1.22.02-.04-.041-.04-.166 0-.13.04-.182.522-.031.657-.183.135-.15.136-.791V4.068q0-.448-.125-.563-.12-.12-.568-.161-.063-.182-.021-.302.833-.104 1.344-.308.083 0 .125.084.088.193.088.812M122.462 4.437l1.933-.03q.16 0 .156-.147 0-.609-.26-.864t-.625-.255q-.141 0-.277.036-.135.037-.333.156-.198.115-.36.401-.16.286-.234.703m2.797 2.021q.182.01.224.167-.714.927-1.817.927-1.06 0-1.63-.682-.5-.578-.5-1.578 0-1.13.676-1.818.677-.688 1.454-.688 1.8 0 1.802 1.855 0 .182-.198.182l-2.839-.02q0 .895.339 1.463.469.766 1.166.765.448 0 .73-.125.286-.13.593-.448"/></g></svg>