<svg xmlns="http://www.w3.org/2000/svg" width="120" height="12"><path fill="#000" fill-rule="nonzero" d="M4.873.6c1.512 0 1.884.561 2.576.601a22.71 22.71 0 0 0-.115 2.07l-.372.054c-.103-1.147-.615-2.23-2.32-2.23-.974 0-2.921 1.123-3.434 3.83a6.271 6.271 0 0 0-.104 1.125c0 1.555.64 2.921 2.18 2.921 1.141 0 2.064-.414 3.128-1.455.14 0 .205.08.243.199-1.05 1.187-2.268 1.802-3.46 1.802C.96 9.517 0 7.947 0 6.161c0-.321.03-.653.092-.982C.582 2.549 2.835.6 4.872.6Zm8.672 3.03c.026.12.01.363-.051.387l-.372.04c-.444.049-.522.08-.615.587l-.563 3.084c-.064.347-.141.64-.141.76 0 .159.039.228.128.228.129 0 .5-.268.833-.668.18 0 .257.107.295.228-.59.789-1.167 1.241-1.782 1.241-.385 0-.474-.187-.474-.441 0-.253.142-.787.218-1.227l.565-3.03c.026-.16.052-.281.052-.374 0-.2-.103-.267-.398-.267h-.68c-.448 0-.576.4-.858 1.653-.246 1.094-.551 2.203-.807 2.722-.282.628-.705.963-1.192.963-.358 0-.666-.28-.666-.601 0-.026 0-.066.013-.095.052-.267.231-.48.474-.48.193 0 .308.16.308.347 0 .013 0 .04-.014.053-.012.175.026.31.129.31.115 0 .256-.135.41-.468.23-.454.5-1.256.806-2.657.168-.76.257-1.216.257-1.496 0-.36-.257-.36-.654-.412-.077-.053-.09-.32-.026-.387.475.014.744.025 1.23.025h2.32c.512 0 1.255-.025 1.255-.025Zm3.794-.106c1.577 0 1.807 1.2 1.807 2.162 0 1.577-.87 2.99-1.987 3.576-.377.197-.765.254-1.179.254-1.627 0-1.794-1.59-1.794-2.295 0-1.602 1.013-3.697 3.153-3.697Zm-1.037 5.525c.526 0 .935-.28 1.243-.84.425-.775.538-1.903.538-2.43 0-.406-.067-.877-.23-1.214-.183-.375-.36-.6-.744-.6-1.461 0-1.858 1.946-1.858 3.147 0 1.403.68 1.937 1.05 1.937ZM26.039.067c-.474 1.413-1.269 1.92-2.32 2.03-1.102.111-1.474.452-2.01 1.295-.244.387-.463.933-.59 1.44.372-.56 1-1.307 2.127-1.307 1.295 0 1.756.88 1.756 1.948 0 2.121-1.564 4.044-3.268 4.044-.935 0-1.756-.576-1.756-2.082 0-1.947 1.5-6.127 3.985-6.342 1-.084 1.512-.331 1.781-1.026h.295Zm2.845 3.457c1.576 0 1.807 1.2 1.807 2.162 0 1.577-.87 2.99-1.987 3.576-.376.197-.765.254-1.178.254-1.628 0-1.795-1.59-1.795-2.295 0-1.602 1.013-3.697 3.153-3.697Zm-5.856.44c-1.307 0-2.05 1.907-2.05 3.444 0 .92.537 1.668 1.076 1.668 1.192 0 1.897-1.91 1.897-3.51 0-.881-.36-1.602-.923-1.602Zm5.625 0c-1.461 0-1.858 1.947-1.858 3.148 0 1.403.68 1.937 1.051 1.937.526 0 .935-.28 1.243-.84.425-.775.538-1.903.538-2.43 0-.406-.066-.877-.23-1.214-.182-.375-.359-.6-.744-.6Zm6.996-.24c.026-.12.026-.227.026-.333 0-1.481-.922-1.683-2-2.07-.6-.216-.768-.696-.768-1.123 0-.118.025-.198.05-.198h.013c.834.493 1.795.361 2.743 1.922.525.827.755 1.775.769 2.776 0 1.654-.645 3.198-1.436 3.95-.49.465-.974.895-1.923.895-1.127 0-1.59-1-1.59-2.055 0-1.669.963-3.003 1.898-3.537.59-.333 1.102-.467 1.37-.467.31 0 .618.053.848.24Zm-1.14.267c-.858 0-1.91 1.216-1.922 3.35 0 .91.333 1.644.936 1.644 1.576 0 1.973-3.486 1.973-4.205 0-.63-.628-.79-.987-.79Zm3.869 1.108c.09-.374.115-.56.115-.681 0-.134-.077-.253-.231-.267l-.514-.04c-.077-.12-.098-.267-.012-.373.602-.08 1.179-.174 1.588-.174.17 0 .263.1.263.281 0 .23-.148.747-.258 1.264l-.206.922h2.249l.297-1.415c.107-.506.103-1.093.59-1.093.41 0 .538.132.538.361 0 .158-.12.562-.167.8l-.717 3.044c-.077.347-.14.574-.14.694 0 .16.038.227.127.227.129 0 .5-.198.834-.6.18 0 .257.106.295.227-.59.789-1.167 1.241-1.782 1.241-.385 0-.474-.187-.474-.441 0-.253.13-.814.218-1.227l.272-1.294h-2.256l-.414 1.867c-.114.507-.101 1.094-.588 1.094-.407 0-.55-.141-.55-.363 0-.13.101-.464.163-.731l.76-3.323ZM49.027 3.63l-.884 4.151c-.052.254-.129.627-.129.748 0 .16.115.189.154.189.129 0 .372-.214.718-.708.166 0 .228.1.295.214-.334.76-.846 1.297-1.641 1.297-.435 0-.526-.35-.526-.602 0-.16.04-.427.129-.734l.166-.562-.026-.025c-.769 1.186-1.486 1.923-2.165 1.923-1.077 0-1.243-1.055-1.243-1.803 0-2.096 1.858-4.191 3.23-4.191.512 0 .68.04 1.025.08.255.063.589.023.897.023Zm-1.09.561a1.475 1.475 0 0 0-.794-.254c-1.179 0-2.244 2.15-2.244 3.565 0 .749.129 1.281.564 1.281.41 0 1.396-1.122 2.025-2.323.321-.854.448-2.269.448-2.269Zm6.495 2.99c0 1.215.398 1.535.975 1.535.615 0 1.012-.214 1.742-.988.154 0 .23.065.295.212-.756 1.015-1.641 1.576-2.5 1.576-1.242 0-1.575-.894-1.575-2.03 0-1.695.986-3.963 3.178-3.963 1.038 0 1.268.467 1.268.933 0 .507-.025 1.59-3.37 2.269-.013.109-.013.39-.013.456Zm1.82-3.244c-.536 0-1.264.395-1.717 2.28.974-.13 2.384-.571 2.384-1.772 0-.388-.205-.508-.666-.508ZM59.572 5.1c.09-.374.115-.56.115-.681 0-.134-.077-.253-.231-.267l-.514-.04c-.077-.12-.098-.267-.012-.373.602-.08 1.179-.174 1.588-.174.169 0 .263.1.263.281 0 .23-.149.747-.258 1.264l-.207.922h2.25l.297-1.415c.107-.506.103-1.093.59-1.093.408 0 .537.132.537.361 0 .158-.12.562-.167.8l-.715 3.044c-.078.347-.143.574-.143.694 0 .16.038.227.128.227.129 0 .5-.198.835-.6.179 0 .257.106.295.227-.59.789-1.168 1.241-1.783 1.241-.383 0-.473-.187-.473-.441 0-.253.13-.814.219-1.227l.27-1.294h-2.254l-.414 1.867c-.113.507-.101 1.094-.588 1.094-.406 0-.55-.141-.55-.363 0-.13.103-.464.163-.731l.759-3.323Zm10.981-.414-.717 3.044c-.076.347-.141.64-.141.76 0 .159.038.228.128.228.129 0 .5-.268.833-.668.18 0 .257.107.295.228-.187.249-.37.465-.558.644-.05.168-.082.34-.082.503 0 .24.026.414.05.562.04.174.066.332.066.535 0 .36-.128.787-1.334 1.28l-.142-.373c.372-.187.732-.387.732-.787 0-.08-.015-.188-.015-.348 0-.314.074-.62.23-.987-.237.14-.482.212-.729.212-.385 0-.473-.187-.473-.441 0-.253.103-.8.217-1.227l.142-.521-.038-.025c-.91 1.388-1.55 2.214-2.55 2.214-.45 0-.858-.307-.858-1.066 0-.255.04-.547.128-.895l.564-2.244c.086-.347.166-.64.166-.76 0-.159-.038-.228-.128-.228-.129 0-.552.268-.882.668-.18 0-.257-.107-.295-.228.587-.789 1.32-1.241 1.936-1.241.382 0 .46.187.46.441 0 .253-.166.8-.27 1.227l-.552 2.176c-.088.361-.114.64-.114.853 0 .362.152.494.385.494.642 0 1.267-.95 2.218-2.632l.368-1.468c.129-.507.105-1.094.59-1.094.41 0 .539.134.539.362-.002.16-.122.563-.169.802Zm2.754 3.043c-.074.34-.14.64-.14.76 0 .159.035.228.128.228.128 0 .499-.268.832-.668.181 0 .257.107.295.228-.59.789-1.165 1.241-1.78 1.241-.383 0-.526-.187-.526-.441 0-.253.128-.8.219-1.227l.601-2.75c.082-.374.114-.56.114-.681 0-.134-.076-.253-.23-.267l-.512-.04c-.078-.12-.1-.267-.014-.373.601-.08 1.178-.174 1.59-.174.168 0 .263.1.263.281 0 .23-.145.743-.259 1.264l-.581 2.619Zm.627-6.595c.335 0 .616.295.616.642 0 .347-.28.64-.616.64-.332 0-.616-.293-.616-.64 0-.347.284-.642.616-.642ZM87.094 3.63c.026.12.01.363-.05.387l-.37.04c-.446.049-.524.08-.617.587l-.565 3.084c-.065.347-.14.64-.14.76 0 .159.037.228.127.228.129 0 .5-.268.833-.668.18 0 .257.107.295.228-.59.789-1.166 1.241-1.78 1.241-.386 0-.474-.187-.474-.441 0-.253.14-.787.217-1.227l.562-3.03c.026-.16.053-.281.053-.374 0-.2-.105-.267-.4-.267h-.677c-.45 0-.578.4-.859 1.653-.246 1.094-.55 2.203-.808 2.722-.28.628-.706.963-1.19.963-.36 0-.666-.28-.666-.601 0-.026 0-.066.015-.095.05-.267.23-.48.473-.48.193 0 .307.16.307.347 0 .013 0 .04-.012.053-.015.175.023.31.126.31.116 0 .257-.135.41-.468.232-.454.5-1.256.809-2.657.166-.76.254-1.216.254-1.496 0-.36-.254-.36-.654-.412-.076-.053-.088-.32-.023-.387.473.014.742.025 1.228.025h2.32c.514 0 1.256-.025 1.256-.025Zm-6.702-.11c.409 0 .552.173.552.413 0 .442-.385.707-.628.707-.397.004-.294-.222-.59-.222-.127 0-.384.293-.615.707-.321.574-.73 1.134-1.32 1.227.693 0 1.128.28 1.256.934.09.507.33 1.65.806 1.723l.09.014c.068.01.129.026.129.106l-.065.253-.025.027-.884-.027c-.578-.018-.844-.961-.947-1.508-.133-.698-.278-1.203-1.183-1.293l-.406 1.84c-.114.507-.103 1.094-.588 1.094-.406 0-.549-.141-.549-.363 0-.13.1-.464.162-.731l.758-3.323c.09-.374.114-.56.114-.681 0-.134-.076-.253-.231-.267l-.513-.04c-.076-.12-.099-.267-.013-.373.602-.08 1.179-.174 1.589-.174.17 0 .262.1.262.28 0 .23-.146.748-.258 1.265l-.225 1.015c.83-.018 1.331-.534 1.759-1.254.372-.628.936-1.348 1.563-1.348Zm10.494.004c1.576 0 1.807 1.2 1.807 2.162 0 1.577-.87 2.99-1.988 3.576-.374.197-.764.254-1.178.254-1.627 0-1.793-1.59-1.793-2.295 0-1.602 1.012-3.697 3.152-3.697Zm-1.039 5.525c.526 0 .936-.28 1.243-.84.425-.775.537-1.903.537-2.43 0-.406-.065-.877-.23-1.214-.183-.375-.36-.6-.745-.6-1.462 0-1.86 1.946-1.86 3.147.005 1.403.684 1.937 1.055 1.937Zm8.022-.56c0 .16.038.229.128.229.128 0 .499-.267.835-.668.18 0 .256.107.294.227-.589.79-1.205 1.244-1.818 1.244-.385 0-.526-.19-.526-.443 0-.254.114-.8.217-1.228l.488-2.135c.104-.452.166-.72.166-.907 0-.413-.179-.482-.45-.482-.46 0-1.167.789-1.973 1.882l-.49 2.216c-.114.507-.1 1.093-.587 1.093-.407 0-.55-.14-.55-.363 0-.13.103-.464.163-.731l.72-3.323c.078-.373.116-.56.116-.68 0-.135-.078-.255-.233-.268l-.512-.04c-.076-.12-.1-.267-.014-.374.604-.08 1.205-.172 1.614-.172.17 0 .263.098.263.28 0 .229-.16.746-.283 1.263l-.03.122.015.014c1.179-1.44 1.729-1.722 2.396-1.722.5 0 .846.267.846 1.068 0 .24-.065.547-.168 1.014l-.486 2.122c-.078.348-.141.64-.141.762Zm3.358-1.308c0 1.215.397 1.535.972 1.535.616 0 1.012-.214 1.742-.988.154 0 .231.065.295.212-.756 1.015-1.64 1.576-2.499 1.576-1.243 0-1.576-.894-1.576-2.03 0-1.695.987-3.963 3.179-3.963 1.037 0 1.267.467 1.267.933 0 .507-.026 1.59-3.369 2.269-.011.109-.011.39-.011.456Zm1.82-3.244c-.538 0-1.266.395-1.72 2.28.975-.13 2.384-.571 2.384-1.772 0-.388-.204-.508-.665-.508Zm6.444-.213c.023-.12.023-.227.023-.333 0-1.481-.922-1.683-1.997-2.07-.601-.216-.77-.696-.77-1.123 0-.118.024-.198.053-.198h.012c.835.493 1.795.361 2.743 1.922.526.827.756 1.775.768 2.776 0 1.654-.643 3.198-1.433 3.95-.492.465-.974.895-1.923.895-1.127 0-1.588-1-1.588-2.055 0-1.669.96-3.003 1.897-3.537.59-.333 1.1-.467 1.37-.467.306 0 .614.053.845.24Zm-1.14.267c-.86 0-1.91 1.216-1.924 3.35 0 .91.333 1.644.936 1.644 1.576 0 1.974-3.486 1.974-4.205 0-.63-.629-.79-.987-.79Zm4.369 3.737c-.076.34-.143.64-.143.76 0 .159.038.228.128.228.129 0 .5-.268.835-.668.18 0 .257.107.295.228-.59.789-1.168 1.241-1.78 1.241-.386 0-.526-.187-.526-.441 0-.253.128-.8.216-1.227l.604-2.75c.082-.374.114-.56.114-.681 0-.134-.076-.253-.231-.267l-.513-.04c-.076-.12-.099-.267-.013-.373.602-.08 1.177-.174 1.589-.174.17 0 .262.1.262.281 0 .23-.142.743-.258 1.264l-.58 2.619Zm.627-6.595c.333 0 .616.295.616.642 0 .347-.282.64-.616.64-.335 0-.616-.293-.616-.64 0-.347.283-.642.616-.642Zm4.42 5.647h-.385c-.511 0-.909.68-1.355 1.48-.295.548-.808 1.108-1.22 1.123l-.756.026c-.052-.08-.064-.294 0-.387l.167-.015c.385-.025.986-.933 1.295-1.44.322-.547.654-.828 1.025-.908-.511-.054-1.267-.481-1.267-1.241 0-1.043.945-1.775 2.125-1.775l1.513.013 1.077-.025.014.025v.321c0 .025-.026.04-.065.04h-.321c-.31 0-.333.12-.4.4l-.753 3.312c-.078.348-.143.642-.143.76 0 .16.038.229.129.229.128 0 .499-.267.834-.668.179 0 .257.107.295.227-.59.79-1.167 1.244-1.782 1.244-.383 0-.474-.19-.474-.443 0-.254.129-.787.219-1.228l.228-1.07Zm.565-2.71a2.255 2.255 0 0 0-.514-.065c-1.062 0-1.678.627-1.678 1.227 0 .576.269 1.083.872 1.083h.82l.5-2.244Z"/></svg>