<svg xmlns="http://www.w3.org/2000/svg" width="146" height="44" fill="none"><path fill="#fff" d="M0 0h146v44H0z"/><path fill="#555" d="M53.056 1.224c-.036.144-.252.468-.504.648.144.36.216.216.144.504-.072.288-.216.324-.504.684.036.144-.072.36-.144.54-.036.072-.216.144-.324.288-.108.072-.144.36-.252.504-.252.36-.54.792-.828 1.188 0 .036.036.18.036.252-.144.288-.684.972-.828 1.188-.144.288-.36.72-.54 1.044-.036.072-.216.18-.288.288-.288.432-.72 1.224-1.08 1.944-.18.36-.36.864-.504 1.26 0 0-.036 0-.072.072-.036.252-.324.828-.648 1.044l.072.072c0 .072-.072.324-.144.432l.036.072c-.036.144-.072.36-.144.54-.072 0-.144.144-.216.216-.144.216-.18.612-.252.9-.072.324-.36.756-.504 1.08l-.324.072.252-.936c0-.144.9-2.268 1.26-3.384 0-.324.252-.864.432-1.368.072-.216.18-.576.252-.864 0-.072-.072-.072-.108-.144.252-.072.216-.396.36-.648.108-.144.324-.288.396-.54.288-.396.324-1.116.54-1.62.072-.216.612-1.044.792-1.44.324-.684.828-1.44 1.188-2.196.072-.18.144-.576.324-.9-.072-.54.288-1.332 1.08-1.908.108-.036.324.036.468.036.036 0 .144-.144.288-.144s.288.36.288.54c0 .216.036.504 0 .684Zm-7.56 15.264c-.072.036-.18.216-.288.288-.072.108 0 .288.036.468 0 .108-.144.36-.216.504-.108.288-.252.72-.396 1.116 0 0-.036.072-.108.144a3.21 3.21 0 0 0-.108.792c0 .18-.144.504-.288.756-.108.252-.288.648-.324.864-.072.324-.072.72-.216 1.116-.144.288-.324.612-.432.972-.072.36 0 .756-.18 1.08-.072.144-.252.108-.288.288-.036.144.072.216.036.36-.072.252-.036.576-.072.756-.036.144-.252.54-.432.936 0 .324.144.576-.288 1.008-.036.252-.036.576-.18.864-.108.216-.18.54-.252.792-.072 0-.216-.144-.18-.288.144-.504.216-1.116.36-1.656.072-.18.324-.432.324-.648 0-.108-.036-.828.036-1.116.036-.144.288-.612.432-.792.072-.396.18-.828.18-1.188.036-.036.144-.18.18-.252.324-.972.576-2.232.936-3.24.108-.288.252-.72.324-1.116.036-.072.072-.144.108-.18.216-.72.432-1.584.612-2.232.036-.144.18-.288.216-.396l.36-.18.108.18ZM39.52 40.644c-.036.144-.144.828-.288 1.116-.072.144-.432.432-.684.576-.144.072-.36.072-.504.108-.252.108-.612.36-.936.432.036-.108-.072-.216-.216-.396 0 0 .036-.216 0-.324-.072-.18-.288-.468-.324-.648 0-.216.072-.612.072-.864-.036-.288-.288-.72-.36-1.008a4.835 4.835 0 0 0-.252-.972c-.036-.072.072-.252.072-.396-.864-.324-.54-.9-.54-1.728-.036-1.584.432-4.86.468-5.04.072-.252.072-.36.396-.504 0-.18-.18-.468-.18-.756 0-.432 0-1.512.288-2.16.108.144.18.252.108.432.072.252.18.504.252.756.072 0 .036.108.072-.072.072-.216-.144-2.088-.288-2.088l-.18.072c.036-.144.216-.36.252-.54.036-.144-.18-.684-.252-.972-.072.18-.18.54-.324.9-.216.54-.756 2.52-1.26 3.42-.144.288-.504 1.836-.72 2.34-.36.828-.792 2.196-1.296 3.096-.324.612-1.044.18-1.512.648-.144.54-.324 1.188-.36 1.656-.036.252.144.612.216.972.036.288-.072.9-.144 1.08-.108.504-.108.684-.684 1.224.072.072.108.072.18.072-.072.18-.216.396-.36.612.288 1.116-.972 1.872-1.62 1.872-.144 0-.468-.144-.612-.252.036-.972.504-2.232.648-3.276 0-.144-.108-.288-.108-.468.036-.576.36-2.412.468-3.492.036-.36.036-1.008.036-1.44 0-.216-.108-.468-.072-.792 0-.36.144-.864.144-1.224-.036-.684-.216-1.908-.252-2.916-.036-.396.108-1.008.072-1.44-.072-.684-.18-1.368-.216-2.016 0-.18.108-.396.108-.612 0-.216 0-.576.036-.9 0-.072-.036-.216-.072-.216 0-1.872.144-4.248.108-6.3-.036-1.044-.144-2.376-.144-3.78 0-.612.108-1.692.144-2.232.036-.936-.036-1.8.288-3.132.036-.144.288-.9.468-1.296.072-.18.36-.36.468-.504.54-.756 1.26-1.296 1.764-1.296.432 0 .972.72.972.828-.036.288.108.576.036.936-.288 1.116-.576 1.8-.648 3.096 0 .036-.144.18-.18.324a69.39 69.39 0 0 0-.072 2.736c0 .072-.036.216-.18.36.072.36.036.792.072 1.188a.538.538 0 0 0-.108.252c-.108.9-.036 2.34-.252 3.672 0 .144.108.324.108.468-.072.9-.144 2.088-.108 3.024.036.324-.144 1.044-.144 1.44.036.936.108 1.836.108 2.736 0 .252-.144.72-.108 1.08.036.576.108 1.26.072 1.836-.036.828.072 1.584-.036 2.412.072 0 .108.072.144.144a3.714 3.714 0 0 0 1.08-1.044c.108-.144.108-.468.36-.72.612-.612.648-1.188 1.044-1.98.288-.612.468-1.584.72-2.232.108-.216.468-.54.612-.792.108-.18.144-.504.216-.756.036-.144.216-.288.252-.432.108-.216.216-.756.18-1.08 0-.072.036-.216.072-.288.216-.396.468-.828.684-1.296.108-.324.18-.756.288-1.116.072-.036.144-.144.18-.216.144-1.368 1.008-2.52 1.656-3.636.108-.144.468-.396.612-.576.324-.432.684-.792 1.152-1.188.144.036.468 0 .648-.072.18.108.108.324.072.468-.072.396.216 1.08.18 1.224-.036.144-.396.612-.468.9-.288 1.116-.792 2.304-1.08 3.204-.036.072-.144.144-.18.288-.036.144-.216 1.692-.396 2.484-.108.576-.36 1.512-.432 2.088-.144 1.008-.36 2.304-.54 3.42-.072.324-.18.756-.324 1.08-.036.396.036.864 0 1.224-.072.72-.252 1.332-.216 1.944 0 .396-.216 1.116-.288 1.692v1.044c.036.432.18.936.252 1.368 0 .108-.072.288-.072.396.036.18.216.468.18.72-.108.756 0 .864.108 1.296.324-.108.288-.36.396-.684.036-.18.252-2.016.288-2.16.18-.792.396-.684.54-1.224l-.072-.072c0-.072.072-.216.108-.288-.036-.036-.144-.252-.108-.396.036-.18.684-1.008.756-1.188.036-.144-.216-.756-.18-.936.072-.144.504-1.116.648-1.8.18.036.468 0 .684-.108.072.072.18.144.144.324-.036.144-.216.288-.252.432-.072.216-.036.504-.144.792-.036.108-.18.252-.252.396-.036.108 0 .252-.036.396h-.072c-.036.18.072.18.036.252 0 0-.036 0-.108.072v.072l-.036.036c.072.144.18.324.252.396-.036.252-.216.468-.18.72-.288.792-.612 1.8-.72 2.628-.036.144.144.252.108.396-.072.396-.216.792-.252 1.188-.036.144.108.252.108.396.036.144-.108.468-.252.72 0 .144.036.216 0 .36Zm-2.772-10.512.072-.324c-.108-.072-.18-.252-.288-.252l-.072.288a.562.562 0 0 0 .288.288ZM55.395 16.488c-.504.468-1.044.828-1.656.936-.54.072-.972-.684-.792-1.08.324-.684 1.188-1.296 1.98-1.296l.108.396c.216.288.864.612.36 1.044Zm-1.404 10.296c.324-.072-.108.828-.396 1.08-.864.756-2.052 1.764-3.06 1.224-.9-.468.396-3.816-3.096-.756-1.116.972 1.296-2.124 1.98-3.312.144-.252.432-.396.54-.756.252-.72.468-1.008.792-1.692.36-.756 1.332-1.368 2.16-1.548l.18.324c-.324 1.368-1.044 2.7-1.044 4.14v1.476c-.036.54.18.864.54.828.612-.036.756-.792 1.404-1.008Z"/><path fill="#555" d="M66.088 17.856c.036.792-1.296.9-1.908 1.332-1.656 1.152-3.636 2.052-4.86 3.24-1.044.972-.108 2.628.54 3.672.864 1.332 2.52 1.728 4.14 1.404.072-.036.144-.108.252-.108.108 0 .036.468-.144.576-.936.54-2.052.72-3.132.828-1.764.18-2.592-1.296-3.78-2.232-.36-.288-.288.396-.324.756-.072.936-.432 1.512-.72 2.556-.216.756-1.8 1.62-2.016.9-.432-1.296 1.08-2.592.648-3.816-.216-.576-.972 1.404-1.332.9-.756-.972 1.116-1.584 1.656-2.52.864-1.512 1.368-2.988 2.052-4.464.324-.648.684-1.26.9-1.944.54-1.62 1.008-3.204 1.836-4.752.324-.612 1.296-1.008 1.98-.828l.072.072c-.9 2.052-1.692 4.176-2.556 6.228-.288.648-1.224 1.944-.54 2.052.972.18 2.484-1.188 3.6-1.98.684-.504 1.224-.828 1.908-1.296.468-.324 1.728-1.116 1.728-.576Z"/><path fill="#555" d="M71.391 16.488c-.504.468-1.044.828-1.656.936-.54.072-.972-.684-.792-1.08.324-.684 1.188-1.296 1.98-1.296l.108.396c.216.288.864.612.36 1.044Zm-1.404 10.296c.324-.072-.108.828-.396 1.08-.864.756-2.052 1.764-3.06 1.224-.9-.468.396-3.816-3.096-.756-1.116.972 1.296-2.124 1.98-3.312.144-.252.432-.396.54-.756.252-.72.468-1.008.792-1.692.36-.756 1.332-1.368 2.16-1.548l.18.324c-.324 1.368-1.044 2.7-1.044 4.14v1.476c-.036.54.18.864.54.828.612-.036.756-.792 1.404-1.008Z"/><path fill="#555" d="M82.25 15.696c-.036.036-.072-.108-.108-.072-.54.144-.9.864-1.512.54-.648-.36-1.692-.252-2.448 0-.72.252-1.656.288-2.196 1.008-.216.288-.252.108-.468.468-.504.792-.792 1.656-1.08 2.556-.396 1.152-1.044 2.232-1.404 3.384-.36 1.152-.756 2.196-1.044 3.348-.36 1.332-.216 2.628.108 3.744.324 1.08 1.188 1.908 2.16 2.196.54.18.972.288 1.548.216.18-.036 0 .252-.252.324-.252.072-.18 0-.468.072-1.26.396-2.304-.756-2.988-1.512-.864-.972-1.368-2.232-1.116-3.6.072-.36.072-.504.108-.9.144-2.736.684-5.508 2.088-7.812.324-.54.468-1.224.684-1.8.108-.324.54-.648.36-.936-.216-.468-1.08-.252-1.62-.216-.324.036-.684.144-.9.144-.648 0-1.188.036-1.836.072-.756.072-1.62.216-2.16-.216-.216-.18-.36-.072-.54-.216-.324-.252-.828-.324-.864-.72-.072-.648.756-1.152 1.368-1.224.576-.036.972.396 1.476.648.432.252.72.468 1.08.612 1.26.54 3.06.648 4.32.144.54-.216.36-1.008.612-1.548.396-.864.792-1.764 1.404-2.484.576-.612 1.188-1.296 1.98-1.692.432-.216.864.036 1.116.36.504.54.72 1.44.252 2.232-.36.612-.972 1.044-1.548 1.08-.504.036-.36-.9-.324-1.476 0-.252-.432-.18-.612-.072-.504.36-.9.792-.9 1.368 0 .612-.648 1.62.288 1.836.828.18 1.404-.108 2.196-.072.468 0 .864-.252 1.332-.324.324-.072.468 0 .792.036.36.072.756.144 1.08.216.144.036.072.216.036.288Z"/><path fill="#555" d="M83.75 22.212c-.433 1.8-2.089 3.636-1.225 5.436.108.18.288.288.144.432-.468.504-1.008 1.152-1.62.9-.684-.288-.576-1.404-.324-2.052.252-.684.18-1.332.612-1.908.108-.144 0-.54.144-.756.18-.18.216-.288.288-.612.216-.828.432-1.44.072-2.232-.072-.18-.18-.288-.324-.324-.36-.108-.36.18-.504.396-.36.468-.504 1.008-.864 1.512-.9 1.152-1.764 2.448-3.096 3.276-.108.072-.108-.252-.036-.324 1.548-1.404 2.448-2.916 3.132-4.572.216-.468.396-.792.324-1.188-.036-.324-.396-.504-.324-.828.036-.36.288-.684.684-.9.36-.216.756-.792 1.224-.684.612.18-.432 1.188.576 1.62 1.044.468 1.584 1.584 1.116 2.7l-.072.072.072.036ZM92.723 27.288c-.936.72-2.088 1.656-3.24 1.224-.54-.18-.828-.936-.936-1.548-.036-.18-.288 0-.432.108-.936.864-1.62 1.98-2.88 2.376-.396.144-.936.072-1.008-.324-.072-.504.108-1.116.324-1.62.252-.54.468-1.044.684-1.584.36-.828.648-1.656 1.152-2.376.648-1.008 1.476-1.8 2.556-2.268.468-.18.54.36.468.684-.18.864-.612 2.052-1.476 2.268-.504.108-.936.144-1.152.54-.288.54-.468 1.116-.648 1.764-.108.504-.432 1.296 0 1.368 1.152.18 1.584-1.476 2.16-2.304.432-.612.72-1.26 1.08-1.872v-.252c.576-.468.972-1.296 1.728-1.224.468.072-.18.684-.216 1.08-.036 1.188-.684 2.232-.252 3.276.18.432.864.396 1.332.288.252-.108.468-.288.756-.288.252 0 .18.54 0 .684Z"/><path fill="#555" d="M103.687 18.828c.54-.18.144 1.584-.36 2.16-.684.72-1.548 1.548-1.98 2.484-.216.468-.9.792-.864 1.368.072.648.36 1.404-.108 1.944-.792.936-1.836 1.944-2.988 1.872-.432-.036-1.188 0-1.152-.684.072-1.116 1.944-1.332 1.872-2.412-.036-.792-.288-1.548-.612-2.268-.144-.324-.468-.18-.612 0-.216.252-.432.54-.612.792-.864 1.26-2.196 2.448-3.492 2.772-.396.108.792-1.08 1.152-1.296 1.872-1.044 3.06-2.844 3.816-4.644.648-1.584 1.116-3.384 2.844-4.248.72-.36 2.124-1.728 2.232-.54.036.576-.612 1.116-1.224 1.368-1.008.432-1.692 1.512-1.836 2.484-.036.324.108.828.036 1.26-.072.648-.036.936 0 1.44.036.216.324.504.504.324.792-.612 1.404-1.188 1.908-2.016.468-.72.684-1.872 1.476-2.16ZM109.774 27.288c-.936.72-2.088 1.656-3.24 1.224-.54-.18-.828-.936-.936-1.548-.036-.18-.288 0-.432.108-.936.864-1.62 1.98-2.88 2.376-.396.144-.936.072-1.008-.324-.072-.504.108-1.116.324-1.62.252-.54.468-1.044.684-1.584.36-.828.648-1.656 1.152-2.376.648-1.008 1.476-1.8 2.556-2.268.468-.18.54.36.468.684-.18.864-.612 2.052-1.476 2.268-.504.108-.936.144-1.152.54-.288.54-.468 1.116-.648 1.764-.108.504-.432 1.296 0 1.368 1.152.18 1.584-1.476 2.16-2.304.432-.612.72-1.26 1.08-1.872v-.252c.576-.468.972-1.296 1.728-1.224.468.072-.18.684-.216 1.08-.036 1.188-.684 2.232-.252 3.276.18.432.864.396 1.332.288.252-.108.468-.288.756-.288.252 0 .18.54 0 .684ZM116.972 22.212c-.432 1.8-2.088 3.636-1.224 5.436.108.18.288.288.144.432-.468.504-1.008 1.152-1.62.9-.684-.288-.576-1.404-.324-2.052.252-.684.18-1.332.612-1.908.108-.144 0-.54.144-.756.18-.18.216-.288.288-.612.216-.828.432-1.44.072-2.232-.072-.18-.18-.288-.324-.324-.36-.108-.36.18-.504.396-.36.468-.504 1.008-.864 1.512-.9 1.152-1.764 2.448-3.096 3.276-.108.072-.108-.252-.036-.324 1.548-1.404 2.448-2.916 3.132-4.572.216-.468.396-.792.324-1.188-.036-.324-.396-.504-.324-.828.036-.36.288-.684.684-.9.36-.216.756-.792 1.224-.684.612.18-.432 1.188.576 1.62 1.044.468 1.584 1.584 1.116 2.7l-.072.072.072.036Z"/></svg>