<?xml version="1.0" encoding="UTF-8"?>
<svg width="112px" height="14px" viewBox="0 0 112 14" version="1.1" xmlns="http://www.w3.org/2000/svg" xmlns:xlink="http://www.w3.org/1999/xlink">
    <title>ku-tagline</title>
    <g id="Page-1" stroke="none" stroke-width="1" fill="none" fill-rule="evenodd">
        <path d="M3.745,4.718 L2.471,4.718 L2.471,2.198 C2.471,1.582 2.639,1.302 3.395,1.302 L4.445,1.302 C5.495,1.302 5.719,1.862 6.027,2.828 C6.20059991,2.85319983 6.35180017,2.82380017 6.489,2.758 C6.419,2.184 6.209,0.84 6.181,0.728 C6.181,0.7 6.167,0.686 6.125,0.686 C5.887,0.728 5.775,0.742 5.439,0.742 L1.869,0.742 C1.442,0.742 0.623,0.728 0.063,0.714 C-0.021,0.798 -0.021,1.092 0.063,1.176 C1.043,1.218 1.281,1.288 1.281,2.45 L1.281,8.064 C1.281,9.226 1.043,9.296 0.063,9.338 C-0.021,9.422 -0.021,9.716 0.063,9.8 C0.581,9.786 1.421,9.772 1.883,9.772 L4.893,9.772 C5.565,9.772 6.685,9.8 6.685,9.8 C6.881,9.1 7.091,8.176 7.203,7.462 C7.05739966,7.37940009 6.89640009,7.34720004 6.713,7.392 C6.433,8.4 5.943,9.226 4.879,9.226 L3.255,9.226 C2.667,9.226 2.471,9.002 2.471,8.344 L2.471,5.25 L3.745,5.25 C4.935,5.25 4.977,5.572 5.019,6.202 C5.103,6.286 5.397,6.286 5.481,6.202 C5.467,5.838 5.453,5.45019983 5.453,4.97 C5.453,4.578 5.467,4.102 5.481,3.766 C5.397,3.682 5.103,3.682 5.019,3.766 C4.977,4.536 4.935,4.718 3.745,4.718 Z M10.285,4.76 C10.1995999,4.858 10.1212,4.89159991 10.117,4.76 C10.103,4.382 10.0708,3.84019983 10.005,3.696 C9.97559991,3.63159991 9.949,3.584 9.837,3.584 C9.445,3.738 9.081,3.864 8.115,3.99 C8.087,4.074 8.115,4.298 8.143,4.382 C8.899,4.452 9.053,4.522 9.053,5.334 L9.053,8.064 C9.053,9.212 8.913,9.268 8.073,9.338 C7.989,9.422 7.989,9.716 8.073,9.8 C8.493,9.786 9.053,9.772 9.613,9.772 C10.173,9.772 10.593,9.786 11.013,9.8 C11.097,9.716 11.097,9.422 11.013,9.338 C10.299,9.268 10.159,9.212 10.159,8.064 L10.159,5.768 C10.159,5.474 10.285,5.306 10.397,5.18 C10.929,4.662 11.559,4.354 12.105,4.354 C12.385,4.354 12.679,4.536 12.847,4.858 C12.987,5.138 13.015,5.516 13.015,5.936 L13.015,8.064 C13.015,9.212 12.875,9.268 12.147,9.338 C12.077,9.422 12.077,9.716 12.147,9.8 C12.567,9.786 13.015,9.772 13.575,9.772 C14.135,9.772 14.639,9.786 15.059,9.8 C15.129,9.716 15.129,9.422 15.059,9.338 C14.275,9.268 14.121,9.212 14.121,8.064 L14.121,5.978 C14.121,5.208 14.065,4.536 13.743,4.102 C13.505,3.794 13.071,3.626 12.581,3.626 C11.895,3.626 11.1152,3.808 10.285,4.76 Z M16.069,7.84 C16.125,8.526 16.167,9.184 16.167,9.772 C16.307,9.744 16.447,9.73 16.517,9.73 C16.615,9.73 16.699,9.73 16.797,9.758 C17.175,9.856 17.553,9.912 18.071,9.912 C18.855,9.912 20.297,9.534 20.297,8.148 C20.297,7.19179996 19.611,6.636 18.659,6.28320004 C17.8162,5.971 17.259,5.754 17.259,4.984 C17.259,4.41 17.763,4.088 18.239,4.088 C18.547,4.088 19.359,4.2 19.541,5.39 C19.625,5.474 19.905,5.46 19.989,5.376 C20.031,4.872 20.059,4.354 20.073,3.892 C19.639,3.822 18.967,3.626 18.239,3.626 C17.203,3.626 16.265,4.298 16.265,5.194 C16.265,6.216 16.727,6.65 17.805,7.098 C18.967,7.574 19.233,7.868 19.233,8.47 C19.233,9.156 18.561,9.45 18.043,9.45 C17.497,9.45 17.1932,9.26380017 17.049,9.114 C16.741,8.792 16.587,8.176 16.503,7.826 C16.419,7.742 16.153,7.756 16.069,7.84 Z M22.931,0.532 C22.7812,0.49 22.6328,0.499800171 22.483,0.532 C22.077,1.176 21.433,1.932 20.929,2.492 C21.013,2.618 21.111,2.702 21.237,2.73 C21.783,2.422 22.245,2.016 22.693,1.568 C23.113,2.002 23.603,2.394 24.135,2.73 C24.2665999,2.70340009 24.387,2.59 24.457,2.492 C23.953,1.932 23.337,1.19 22.931,0.532 Z M23.491,8.064 L23.491,5.27380017 C23.491,4.578 23.547,3.682 23.547,3.682 C23.547,3.626 23.477,3.584 23.365,3.584 C22.966,3.738 22.413,3.864 21.447,3.99 C21.419,4.074 21.447,4.298 21.475,4.382 C22.238,4.45340009 22.385,4.536 22.385,5.334 L22.385,8.064 C22.385,9.226 22.231,9.268 21.377,9.338 C21.293,9.422 21.293,9.716 21.377,9.8 C21.839,9.786 22.385,9.772 22.945,9.772 C23.505,9.772 24.037,9.786 24.499,9.8 C24.583,9.716 24.583,9.422 24.499,9.338 C23.645,9.282 23.491,9.226 23.491,8.064 Z M26.055,8.064 C26.055,9.226 25.901,9.282 25.117,9.338 C25.033,9.422 25.033,9.716 25.117,9.8 C25.579,9.786 26.055,9.772 26.615,9.772 C27.105,9.772 27.567,9.786 27.889,9.8 C27.973,9.716 27.973,9.422 27.889,9.338 C27.315,9.282 27.161,9.226 27.161,8.064 L27.161,6.84740009 C27.4298,6.85440009 27.6272,6.87540009 27.763,6.923 C27.917,7.028 28.0444001,7.154 28.211,7.378 L29.233,8.75 C29.6445999,9.303 29.8028002,9.56620004 29.821,9.73 C29.8251998,9.772 29.835,9.8 29.877,9.8 C30.157,9.786 30.465,9.772 30.745,9.772 C31.179,9.772 31.613,9.786 31.893,9.8 C31.977,9.716 31.977,9.422 31.893,9.338 C31.417,9.282 31.0628002,9.22040009 30.689,8.75 L28.841,6.426 C28.7905999,6.363 28.743,6.3 28.743,6.23 C28.743,6.174 28.743,6.146 28.799,6.09 L30.031,4.816 C30.451,4.368 30.941,4.256 31.501,4.2 C31.585,4.116 31.585,3.822 31.501,3.738 C31.179,3.752 30.787,3.766 30.283,3.766 C29.751,3.766 29.233,3.752 28.911,3.738 C28.827,3.822 28.827,4.116 28.911,4.2 C29.695,4.256 29.3631998,4.75019983 29.233,4.914 C28.911,5.32 28.4728002,5.796 28.113,6.062 C27.8022,6.29159991 27.4255999,6.45679996 27.161,6.49320004 L27.161,1.61000021 C27.161,0.700000214 27.217,0.140000214 27.217,0.140000214 C27.217,0.0420002136 27.161,2.13623028e-07 27.035,2.13623028e-07 C26.685,0.140000214 25.635,0.336000214 25.075,0.378000214 C25.047,0.490000214 25.075,0.714000214 25.159,0.798000214 C25.887,0.840000214 26.055,0.770000214 26.055,1.94600021 L26.055,8.064 Z M33.449,8.064 C33.449,9.226 33.295,9.296 32.441,9.338 C32.357,9.422 32.357,9.716 32.441,9.8 C32.931,9.786 33.449,9.772 34.009,9.772 C34.569,9.772 35.101,9.786 35.563,9.8 C35.647,9.716 35.647,9.422 35.563,9.338 C34.709,9.296 34.555,9.226 34.555,8.064 L34.555,1.61 C34.555,0.7 34.611,0.14 34.611,0.14 C34.611,0.042 34.555,2.66453526e-15 34.429,2.66453526e-15 C34.079,0.14 33.029,0.336 32.469,0.378 C32.441,0.49 32.469,0.714 32.553,0.798 C33.365,0.854 33.449,0.896 33.449,1.946 L33.449,8.064 Z M36.489,6.902 C36.489,8.33 37.441,9.912 39.429,9.912 C40.3305999,9.912 41.0081998,9.59420004 41.4855999,9.128 C42.1128002,8.51479996 42.397,7.63420004 42.397,6.776 C42.397,5.32 41.599,3.626 39.457,3.626 C38.5358,3.626 37.7755999,4.004 37.2632,4.606 C36.755,5.20240009 36.489,6.01719983 36.489,6.902 Z M39.247,4.116 C40.451,4.116 41.193,5.208 41.193,7.224 C41.193,8.988 40.283,9.422 39.625,9.422 C38.169,9.422 37.693,7.658 37.693,6.58 C37.693,5.362 37.987,4.116 39.247,4.116 Z M45.521,5.138 C45.885,4.69 46.5262,4.27 46.935,4.27 C47.831,4.27 48.601,5.278 48.601,6.86 C48.601,8.008 48.195,9.436 46.627,9.436 C46.375,9.436 45.885,9.366 45.633,9.14059991 C45.3515999,8.88859991 45.297,8.80740009 45.297,8.302 L45.297,5.754 C45.297,5.46 45.3585999,5.33819983 45.521,5.138 Z M45.255,4.62 C45.234,4.2 45.2088,3.84019983 45.143,3.696 C45.1135999,3.63159991 45.087,3.584 44.975,3.584 C44.583,3.738 44.219,3.864 43.253,3.99 C43.225,4.074 43.253,4.298 43.281,4.382 C44.037,4.452 44.191,4.522 44.191,5.334 L44.191,11.312 C44.191,12.474 44.037,12.544 43.183,12.586 C43.099,12.67 43.099,12.964 43.183,13.048 C43.673,13.034 44.191,13.02 44.751,13.02 C45.311,13.02 45.983,13.034 46.445,13.048 C46.529,12.964 46.529,12.67 46.445,12.586 C45.451,12.53 45.297,12.474 45.297,11.312 L45.297,9.8 C45.297,9.618 45.3502,9.63620004 45.493,9.695 C45.836,9.83359991 46.2685999,9.912 46.711,9.912 C47.495,9.912 48.195,9.674 48.769,9.128 C49.427,8.484 49.805,7.616 49.805,6.482 C49.805,4.998 48.755,3.626 47.327,3.626 C46.676,3.626 45.962,4.053 45.409,4.676 C45.3305999,4.76419983 45.262,4.75440009 45.255,4.62 Z M52.271,5.824 C52.537,4.242 53.517,4.116 53.853,4.116 C54.385,4.116 55.015,4.41 55.015,5.586 C55.015,5.712 54.959,5.77919983 54.805,5.782 L52.271,5.824 Z M55.939,8.47 C55.421,9.002 55.015,9.226 54.203,9.226 C53.699,9.226 53.111,8.932 52.677,8.218 C52.397,7.756 52.229,7.112 52.229,6.3 L55.953,6.328 C56.121,6.328 56.219,6.244 56.219,6.09 C56.219,4.914 55.799,3.654 53.853,3.654 C52.635,3.654 51.053,4.816 51.053,6.944 C51.053,7.728 51.249,8.484 51.711,9.016 C52.187,9.576 52.845,9.912 53.853,9.912 C54.917,9.912 55.673,9.422 56.233,8.694 C56.191,8.554 56.107,8.484 55.939,8.47 Z M61.821,8.036 C61.821,8.302 61.7944001,8.41120004 61.597,8.582 C61.079,9.03 60.631,9.254 60.281,9.254 C59.525,9.254 58.741,8.428 58.741,6.678 C58.741,5.67 58.937,5.11 59.147,4.816 C59.581,4.158 60.169,4.116 60.449,4.116 C60.953,4.116 61.303,4.298 61.583,4.62 C61.779,4.844 61.821,4.942 61.821,5.376 L61.821,8.036 Z M61.667,9.06780017 C61.7341998,9.01320004 61.8671998,8.988 61.877,9.086 C61.912,9.429 62.031,9.912 62.031,9.912 C62.143,9.954 62.213,9.947 62.297,9.912 C62.605,9.66 63.095,9.45 63.949,9.352 C64.033,9.268 64.033,9.058 63.949,8.974 C63.053,8.904 62.927,8.638 62.927,7.952 L62.927,1.61 C62.927,0.7 62.983,0.14 62.983,0.14 C62.983,0.042 62.927,2.66453526e-15 62.801,2.66453526e-15 C62.451,0.14 61.401,0.336 60.841,0.378 C60.813,0.49 60.841,0.714 60.925,0.798 C61.653,0.84 61.821,0.77 61.821,1.946 L61.821,3.738 C61.821,3.836 61.793,3.864 61.695,3.864 C61.639,3.864 61.065,3.626 60.603,3.626 C59.679,3.626 59.063,3.934 58.503,4.466 C57.901,5.068 57.537,5.894 57.537,6.93 C57.537,8.652 58.405,9.912 59.917,9.912 C60.463,9.912 60.981,9.632 61.667,9.06780017 Z M65.435,1.386 C65.435,1.75 65.771,2.114 66.107,2.114 C66.499,2.114 66.835,1.73739966 66.835,1.442 C66.835,1.106 66.541,0.714 66.163,0.714 C65.827,0.714 65.435,1.05 65.435,1.386 Z M66.709,8.064 L66.709,5.27380017 C66.709,4.578 66.765,3.682 66.765,3.682 C66.765,3.626 66.695,3.584 66.583,3.584 C66.184,3.738 65.631,3.864 64.665,3.99 C64.637,4.074 64.665,4.298 64.693,4.382 C65.456,4.45340009 65.603,4.536 65.603,5.334 L65.603,8.064 C65.603,9.226 65.449,9.268 64.595,9.338 C64.511,9.422 64.511,9.716 64.595,9.8 C65.057,9.786 65.603,9.772 66.163,9.772 C66.723,9.772 67.255,9.786 67.717,9.8 C67.801,9.716 67.801,9.422 67.717,9.338 C66.863,9.282 66.709,9.226 66.709,8.064 Z M70.925,12.012 C71.1434001,11.6228 71.3268,11.2224001 71.499,10.808 C72.619,8.106 73.2461998,6.66959991 73.977,5.096 C74.2528002,4.50380017 74.453,4.27980017 75.111,4.2 C75.195,4.116 75.195,3.822 75.111,3.738 C74.831,3.752 74.509,3.766 74.117,3.766 C73.697,3.766 73.263,3.752 72.843,3.738 C72.759,3.822 72.759,4.116 72.843,4.2 C73.2854001,4.242 73.739,4.326 73.515,4.83 L72.1261998,8.036 C72.0281998,8.26140009 71.9105999,8.29920004 71.7915999,8.022 L70.5498,5.11 C70.2977997,4.51919983 70.2249998,4.26019983 71.0089998,4.2 C71.0929998,4.116 71.0929998,3.822 71.0089998,3.738 C70.4909998,3.752 69.9309998,3.766 69.4269998,3.766 C68.9509998,3.766 68.5729998,3.752 68.2929998,3.738 C68.2089998,3.822 68.2089998,4.116 68.2929998,4.2 C68.8487997,4.27 69.0307997,4.396 69.3975997,5.25 L70.9809998,8.932 C71.1027997,9.21340009 71.3169998,9.856 71.1769998,10.248 C71.0103999,10.7155999 70.8409998,11.102 70.6309998,11.536 C70.4769998,11.816 70.2809998,11.942 69.9309998,11.942 C69.7349998,11.942 69.6789998,11.9 69.5249998,11.9 C69.1189998,11.9 68.9089998,12.32 68.9089998,12.502 C68.9089998,12.796 69.1889998,13.02 69.5669998,13.02 C69.8609998,13.02 70.4209998,12.908 70.9249998,12.012 L70.925,12.012 Z M79.481,6.51 L79.481,8.358 C79.481,8.54 79.397,8.638 79.285,8.722 C78.921,9.016 78.445,9.338 78.053,9.338 C77.353,9.338 77.045,8.778 77.045,8.344 C77.045,7.714 77.339,7.07 78.375,6.804 L79.481,6.51 Z M79.481,9.1 C79.565,9.534 79.7134001,9.912 80.419,9.912 C80.9551998,9.912 81.4591998,9.674 81.749,9.394 C81.7251998,9.22180017 81.6691998,9.10420004 81.511,9.016 C81.406,9.10280017 81.1708002,9.24 80.993,9.24 C80.587,9.24 80.573,8.694 80.573,8.05 L80.573,5.992 C80.573,4.004 79.481,3.626 78.459,3.626 C77.311,3.626 76.149,4.382 76.149,5.18 C76.149,5.516 76.317,5.684 76.639,5.684 C77.045,5.684 77.297,5.39 77.297,5.208 C77.297,5.11 77.283,5.012 77.255,4.956 C77.241,4.914 77.227,4.83 77.227,4.676 C77.227,4.242 77.815,4.088 78.347,4.088 C78.823,4.088 79.481,4.326 79.481,5.908 C79.481,6.006 79.439,6.062 79.397,6.076 L78.193,6.37 C76.849,6.706 75.883,7.448 75.883,8.4 C75.883,9.548 76.667,9.912 77.647,9.912 C78.1342,9.912 78.557,9.8 79.173,9.324 L79.453,9.1 L79.481,9.1 Z M89.579,6.51 L89.579,8.358 C89.579,8.54 89.495,8.638 89.383,8.722 C89.019,9.016 88.543,9.338 88.151,9.338 C87.451,9.338 87.143,8.778 87.143,8.344 C87.143,7.714 87.437,7.07 88.473,6.804 L89.579,6.51 Z M89.579,9.1 C89.663,9.534 89.8114001,9.912 90.517,9.912 C91.0531998,9.912 91.5571998,9.674 91.847,9.394 C91.8231998,9.22180017 91.7671998,9.10420004 91.609,9.016 C91.504,9.10280017 91.2688002,9.24 91.091,9.24 C90.685,9.24 90.671,8.694 90.671,8.05 L90.671,5.992 C90.671,4.004 89.579,3.626 88.557,3.626 C87.409,3.626 86.247,4.382 86.247,5.18 C86.247,5.516 86.415,5.684 86.737,5.684 C87.143,5.684 87.395,5.39 87.395,5.208 C87.395,5.11 87.381,5.012 87.353,4.956 C87.339,4.914 87.325,4.83 87.325,4.676 C87.325,4.242 87.913,4.088 88.445,4.088 C88.921,4.088 89.579,4.326 89.579,5.908 C89.579,6.006 89.537,6.062 89.495,6.076 L88.291,6.37 C86.947,6.706 85.981,7.448 85.981,8.4 C85.981,9.548 86.765,9.912 87.745,9.912 C88.2322,9.912 88.655,9.8 89.271,9.324 L89.551,9.1 L89.579,9.1 Z M92.969,3.626 C92.9354001,3.626 92.885,3.67640009 92.885,3.71 C92.871,4.34 92.801,4.83 92.675,5.516 C92.7981998,5.56780017 92.9745999,5.59440009 93.137,5.558 C93.417,4.536 93.851,4.29380017 94.271,4.284 L96.063,4.242 C95.111,5.838 93.711,7.854 92.619,9.324 C92.4985999,9.48640009 92.493,9.534 92.493,9.604 C92.493,9.702 92.605,9.772 92.815,9.772 L97.183,9.814 C97.351,9.338 97.533,8.61 97.631,7.91 C97.54,7.85820004 97.379,7.826 97.211,7.826 L97.015,8.232 C96.658,8.97120004 96.3724001,9.27920004 95.643,9.296 L93.781,9.296 C94.817,7.98 96.273,5.782 97.141,4.354 C97.3551998,4.00119983 97.393,3.892 97.393,3.836 C97.393,3.78 97.323,3.738 97.225,3.738 C97.155,3.738 96.763,3.766 96.357,3.766 L93.795,3.766 C93.3455999,3.766 93.172,3.70159991 92.969,3.626 Z M102.113,6.51 L102.113,8.358 C102.113,8.54 102.029,8.638 101.917,8.722 C101.553,9.016 101.077,9.338 100.685,9.338 C99.985,9.338 99.677,8.778 99.677,8.344 C99.677,7.714 99.971,7.07 101.007,6.804 L102.113,6.51 Z M102.113,9.1 C102.197,9.534 102.3454,9.912 103.051,9.912 C103.5872,9.912 104.0912,9.674 104.381,9.394 C104.3572,9.22180017 104.3012,9.10420004 104.143,9.016 C104.038,9.10280017 103.8028,9.24 103.625,9.24 C103.219,9.24 103.205,8.694 103.205,8.05 L103.205,5.992 C103.205,4.004 102.113,3.626 101.091,3.626 C99.943,3.626 98.781,4.382 98.781,5.18 C98.781,5.516 98.949,5.684 99.271,5.684 C99.677,5.684 99.929,5.39 99.929,5.208 C99.929,5.11 99.915,5.012 99.887,4.956 C99.873,4.914 99.859,4.83 99.859,4.676 C99.859,4.242 100.447,4.088 100.979,4.088 C101.455,4.088 102.113,4.326 102.113,5.908 C102.113,6.006 102.071,6.062 102.029,6.076 L100.825,6.37 C99.481,6.706 98.515,7.448 98.515,8.4 C98.515,9.548 99.299,9.912 100.279,9.912 C100.7662,9.912 101.189,9.8 101.805,9.324 L102.085,9.1 L102.113,9.1 Z M109.339,8.036 C109.339,8.302 109.3124,8.41120004 109.115,8.582 C108.597,9.03 108.149,9.254 107.799,9.254 C107.043,9.254 106.259,8.428 106.259,6.678 C106.259,5.67 106.455,5.11 106.665,4.816 C107.099,4.158 107.687,4.116 107.967,4.116 C108.471,4.116 108.821,4.298 109.101,4.62 C109.297,4.844 109.339,4.942 109.339,5.376 L109.339,8.036 Z M109.185,9.06780017 C109.2522,9.01320004 109.3852,8.988 109.395,9.086 C109.43,9.429 109.549,9.912 109.549,9.912 C109.661,9.954 109.731,9.947 109.815,9.912 C110.123,9.66 110.613,9.45 111.467,9.352 C111.551,9.268 111.551,9.058 111.467,8.974 C110.571,8.904 110.445,8.638 110.445,7.952 L110.445,1.61 C110.445,0.7 110.501,0.14 110.501,0.14 C110.501,0.042 110.445,2.66453526e-15 110.319,2.66453526e-15 C109.969,0.14 108.919,0.336 108.359,0.378 C108.331,0.49 108.359,0.714 108.443,0.798 C109.171,0.84 109.339,0.77 109.339,1.946 L109.339,3.738 C109.339,3.836 109.311,3.864 109.213,3.864 C109.157,3.864 108.583,3.626 108.121,3.626 C107.197,3.626 106.581,3.934 106.021,4.466 C105.419,5.068 105.055,5.894 105.055,6.93 C105.055,8.652 105.923,9.912 107.435,9.912 C107.981,9.912 108.499,9.632 109.185,9.06780017 Z" id="ku-tagline" fill="#000000" fill-rule="nonzero"></path>
    </g>
</svg>