<svg xmlns="http://www.w3.org/2000/svg" width="120" height="20"><path fill="#000" fill-rule="nonzero" d="M115.384.987c1.85 0 2.295 1.26 2.838 2.963l.716-.124A36.036 36.036 0 0 1 118.42 0h-6.32l-1.925.025-3.16-.025-.052.025V.52c0 .073.026.173.198.173h.74c.939 0 1.284.346 1.284 1.11v12.369c0 .691-.296 1.086-1.284 1.086h-.74c-.148 0-.198.1-.198.173v.494l.051.05 3.16-.05 1.901.025h7.259c.123-1.383.37-2.79.666-4.073l-.765-.124c-.494 1.778-1.21 3.234-3.086 3.234h-4.099c-.542 0-.888-.148-.888-.815V7.876h3.382c.84 0 1.11.37 1.235 1.086l.147.766c0 .073.073.172.198.172h.568l.073-.072c-.073-.42-.198-1.53-.198-2.37 0-.815.099-1.728.198-2.346 0-.05-.026-.098-.1-.098h-.542c-.1 0-.173.098-.173.197l-.173.74c-.148.692-.37 1.087-1.234 1.087h-3.382V1.78c0-.593.296-.79.888-.79h3.333l.002-.003ZM96.24 4.617l-2.69-.073-.074.05v.543c0 .073.051.099.149.099h.74c.889 0 .988.271.988 1.333v7.53c0 .864-.073 1.135-.988 1.16h-.765a.118.118 0 0 0-.124.123v.543l.026.051s1.678-.05 2.74-.05c.765 0 2 .05 2 .05l.025-.05v-.519c0-.099-.05-.148-.148-.148-.84 0-.913-.198-.913-.815v-.05l5.085-6.888v6.542c0 .864-.098 1.185-1.012 1.21h-.765a.118.118 0 0 0-.124.123V15.974s1.679-.05 2.765-.05c1.111 0 2.84.05 2.84.05l.025-.05v-.518c0-.1-.051-.149-.148-.149h-.74c-.865-.025-1.013-.296-1.013-1.21v-7.53c0-1.011.099-1.283 1.012-1.283h.74c.1 0 .149-.051.149-.123v-.519l-.026-.05s-1.728.05-2.839.05c-.716 0-1.802-.05-1.802-.05l-.05.05v.543c0 .073.05.099.123.099.84 0 .864.494.864 1.086l-5.086 6.913v-6.69c0-1.037.099-1.31 1.012-1.31h.741c.099 0 .148-.05.148-.123v-.518l-.05-.05-2.815.072v.003ZM83.076 14.689c0-.42.617-2.888.962-8.517 0-.1.124-.642.716-.642h2.518c.914 0 .988.346.988 1.185v7.06c0 .815-.074 1.21-.988 1.21h-3.727c-.247 0-.47-.025-.47-.296Zm.42 1.259h4.665c2.493 0 3.061 1.728 3.308 3.16h.617l-.148-3.333c0-.321-.345-.494-.518-.494H91c-.765-.025-.889-.32-.889-1.21V6.42c0-.84.223-1.185 1.136-1.185h.395c.099 0 .198-.099.198-.173v-.518c-.692 0-1.827.073-2.642.073-.988 0-2.123-.051-3.185-.051-.938 0-2.024.05-2.518.05-.395 0-1.555-.072-2.394-.072v.567c0 .073.049.124.148.124h.666c.889 0 1.012.617 1.012.938 0 2.938-.42 5.95-.888 8.048-.173.667-.593 1.062-1.26 1.062h-.394c-.198 0-.42.172-.42.493l-.148 3.333h.617c.099-.938.543-3.16 3.061-3.16ZM78.19 4.543h-4.937l-1.778.05-2.469-.05-.024.05v.544c0 .025 0 .099.148.099h.568c.716 0 .987.247.987.814v8.419c0 .494-.222.79-.987.79h-.568c-.124 0-.148.073-.148.123v.543l.024.051 2.444-.05 1.803.024h4.962c.05-.79.222-1.802.518-3.012l-.617-.072c-.395 1.259-.963 2.394-2.444 2.394h-2.444c-.42 0-.691-.098-.691-.567v-4.42h2.147c.642 0 .865.272.963.766l.124.543c0 .073.05.148.148.148h.444l.05-.073c-.05-.567-.148-1.086-.148-1.703 0-.593.098-1.26.148-1.827 0-.05 0-.073-.05-.073h-.444c-.074 0-.124.051-.124.148l-.148.519c-.123.494-.271.765-.963.765h-2.147V5.832c0-.42.222-.592.691-.592h2.42c1.555 0 2.024 1.456 2.295 2.345l.617-.073c-.172-.938-.345-1.876-.37-2.962v-.007ZM56.827 6.468v7.654c0 .864-.074 1.135-.987 1.135h-.766a.117.117 0 0 0-.123.124v.542l.025.052 2.74-.052 2.716.052.049-.052v-.518c0-.098-.05-.148-.148-.148h-.642c-.889 0-1.012-.198-1.012-1.135V6.493c0-.864.518-.963 1.012-.963h3.012c.494 0 .987.073.987.963v7.629c0 .864-.074 1.135-.987 1.135h-.667c-.098 0-.148.051-.148.124v.542l.05.052 2.617-.052 2.839.052.05-.052v-.518c0-.098-.05-.148-.15-.148h-.764c-.864 0-.988-.198-.988-1.135V6.444c0-1.037.099-1.21.988-1.21h.765c.099 0 .148-.051.148-.124v-.518l-.05-.05-2.838.05-1.852-.025h-3.135l-1.827.025-2.74-.05-.05.05v.543c0 .073.05.099.148.099h.74c.89 0 .988.173.988 1.234ZM43.733 4.617l-2.69-.073-.075.05v.544c0 .072.05.098.148.098h.74c.89 0 .988.272.988 1.333v7.53c0 .864-.074 1.136-.987 1.16h-.765a.117.117 0 0 0-.124.124v.543l.025.05s1.679-.05 2.74-.05c.765 0 2 .05 2 .05l.024-.05v-.519c0-.098-.049-.148-.148-.148-.84 0-.913-.197-.913-.814v-.051l5.085-6.888v6.542c0 .864-.098 1.185-1.012 1.21h-.765a.117.117 0 0 0-.123.123V15.975s1.678-.051 2.764-.051c1.111 0 2.84.051 2.84.051l.024-.051v-.518c0-.099-.05-.148-.148-.148h-.74c-.865-.026-1.013-.297-1.013-1.21v-7.53c0-1.012.1-1.284 1.013-1.284h.74c.099 0 .148-.05.148-.123v-.518l-.024-.051s-1.729.05-2.84.05c-.715 0-1.802-.05-1.802-.05l-.05.05v.544c0 .073.05.098.124.098.84 0 .864.494.864 1.087l-5.085 6.912v-6.69c0-1.037.099-1.309 1.012-1.309h.74c.1 0 .149-.05.149-.123v-.518l-.05-.051-2.814.072v.003Zm-11.142 9.628v-4.098c1.827.222 2.296 1.679 2.84 3.012.42 1.012 1.135 2.765 2.37 2.79l1.802.024.049-.05v-.47c0-.172-.173-.197-.272-.197h-.197c-.913 0-1.901-2.247-2.271-3.185-.519-1.21-1.482-2.345-2.815-2.345 1.26-.222 1.901-1.58 2.296-2.518.247-.568.568-1.235.84-1.235.197 0 .42.026.567.1.173.098.47.222.716.222a.954.954 0 0 0 .938-.938c0-.618-.444-1.112-1.382-1.112-1.185 0-1.802 1.358-2.296 2.47-.543 1.209-1.21 2.567-3.185 2.567V6.319c0-1.012.544-1.086 1.21-1.086A.194.194 0 0 0 34 5.036V4.59l-.05-.05s-1.358.05-2.32.05c-.89 0-2.568-.05-2.568-.05l-.05.05v.445c0 .123.075.197.198.197h.47c.838 0 1.06.395 1.06 1.086v7.925c0 .691-.222 1.012-1.06 1.012h-.47c-.123 0-.197.073-.197.197v.47l.049.05s1.679-.05 2.568-.05c.962 0 2.37.05 2.37.05l.049-.05v-.47a.195.195 0 0 0-.198-.197c-.469 0-1.259-.051-1.259-1.012ZM17.745 4.617l-2.691-.073-.074.05v.544c0 .072.05.098.148.098h.74c.89 0 .988.272.988 1.333v7.53c0 .864-.074 1.136-.988 1.16h-.765a.117.117 0 0 0-.123.124v.543l.024.05s1.68-.05 2.74-.05c.766 0 2 .05 2 .05l.025-.05v-.519c0-.098-.05-.148-.148-.148-.84 0-.914-.197-.914-.814v-.051l5.086-6.888v6.542c0 .864-.099 1.185-1.012 1.21h-.765a.117.117 0 0 0-.124.123V15.975s1.679-.051 2.765-.051c1.111 0 2.84.051 2.84.051l.024-.051v-.518c0-.099-.05-.148-.148-.148h-.74c-.865-.026-1.013-.297-1.013-1.21v-7.53c0-1.012.099-1.284 1.012-1.284h.74c.1 0 .149-.05.149-.123v-.518l-.025-.051s-1.728.05-2.839.05c-.716 0-1.802-.05-1.802-.05l-.05.05v.544c0 .073.05.098.124.098.84 0 .864.494.864 1.087l-5.086 6.912v-6.69c0-1.037.1-1.309 1.013-1.309h.74c.099 0 .148-.05.148-.123v-.518l-.05-.051-2.813.072v.003ZM4.197 1.753c0-.815.123-.889 2.271-.889 1.383 0 3.358.445 3.358 2.963 0 2.099-1.63 2.913-3.679 2.913h-1.95V1.753Zm0 5.851h2.32c2.889 0 4.469 1.555 4.469 3.777 0 1.506-.864 3.753-4.617 3.753-2 0-2.172-.148-2.172-.963V7.604ZM0 15.454v.47l.05.05 3.135-.05s1.876.05 3.653.05c4.913 0 6.345-2.196 6.345-4.32 0-2.295-1.135-3.974-3.752-4.566 1.259-.618 2.296-1.95 2.296-3.309 0-1.654-.84-3.777-5.432-3.777-.864 0-3.11.026-3.11.026L.049.002 0 .028V.52c0 .1.05.173.173.173h.74c1.037 0 1.284.247 1.284 1.086v12.344c0 .864-.296 1.136-1.284 1.136h-.74c-.124 0-.173.073-.173.197v-.003Z"/></svg>