<svg xmlns="http://www.w3.org/2000/svg" width="113.45" height="21.482" viewBox="0 0 30.016 5.684"><g stroke-width=".661"><path d="M21.229 116.06q-.116-.116-.13-.439 0-.323.13-.44 2.49.053 2.88.053.206 0 2.324-.052.116.116.116.439 0 .31-.116.439-.504.065-.904.245-.387.168-.62.336-.22.155-.452.555-.232.387-.323.581-.077.194-.297.736l-5.475 13.481q-.232.607-.632.62-.374 0-.607-.62l-5.217-13.533q-.607-1.55-.956-1.924-.336-.387-1.42-.477-.129-.13-.13-.491 0-.284.104-.387 2.49.051 2.75.051.71 0 3.203-.051.116.116.116.439 0 .31-.116.439-.917.09-1.291.284-.374.194-.375.607 0 .374.323 1.213l4.21 10.77h.129l4.17-10.602q.324-.826.323-1.24 0-.477-.387-.722t-1.33-.31zM30.845 123.35v5.707q0 1.59.31 1.963.323.362 1.601.452.13.13.13.452 0 .31-.13.413-2.27-.051-2.944-.051-.736 0-2.957.051-.103-.103-.103-.413 0-.323.103-.452 1.27-.103 1.575-.465.323-.362.323-1.95v-5.707q0-1.59-.323-1.95-.31-.374-1.575-.465-.103-.129-.103-.439 0-.323.103-.426 2.27.052 2.931.052.736 0 2.97-.052.13.103.13.426 0 .31-.13.44-1.27.102-1.588.464-.323.362-.323 1.95zM37.259 123.35q0-1.59-.323-1.937-.31-.362-1.575-.478-.103-.129-.104-.439 0-.323.104-.426 2.22.052 2.957.052.258 0 2.544-.052.103.103.103.426 0 .31-.103.44-1.01.102-1.266.464-.245.362-.245 1.95v2.35q1.27 0 2.776-1.692 1.96-2.22 1.769-2.737-.116-.284-.788-.336-.129-.129-.129-.439 0-.323.13-.426 2.27.052 2.905.052.426 0 1.86-.052.128.103.128.426 0 .31-.129.44-1.96.102-2.84 1.11l-2.273 2.621q-.607.633-.607.981 0 .155.245.452l3.913 4.597q.555.633 1.691.775.103.129.104.426 0 .284-.104.413-1.29-.025-2.04-.025-1.06 0-1.64.051v-.374q0-.607-.4-1.046l-2.931-3.654q-.504-.66-1.64-.659v2.453q0 1.59.245 1.95.258.35 1.266.465.103.129.103.452 0 .31-.103.413-2.27-.051-2.544-.051-.736 0-2.957.051-.103-.103-.103-.413 0-.323.103-.452 1.27-.103 1.575-.465.323-.362.323-1.95zM54.494 123.35v5.707q0 1.59.31 1.963.323.362 1.601.452.13.13.13.452 0 .31-.13.413-2.27-.051-2.944-.051-.736 0-2.957.051-.103-.103-.103-.413 0-.323.103-.452 1.27-.103 1.575-.465.323-.362.323-1.95v-5.707q0-1.59-.323-1.95-.31-.374-1.575-.465-.103-.129-.103-.439 0-.323.103-.426 2.27.052 2.931.052.736 0 2.97-.052.13.103.13.426 0 .31-.13.44-1.27.102-1.588.464t-.323 1.95zM62.948 122.14v4.12q.736.296 1.717.296 2.27 0 2.273-2.944 0-2.67-2.402-2.673-.93 0-1.265.271-.323.271-.323.93zm0 6.921q0 1.59.31 1.963.323.362 1.601.452.13.129.13.452 0 .31-.13.413-2.27-.052-2.944-.052-.736 0-2.957.052-.103-.103-.103-.413 0-.323.103-.452 1.27-.103 1.575-.465.323-.362.323-1.95v-5.707q0-1.59-.323-1.95-.31-.374-1.575-.465-.103-.129-.103-.439 0-.323.103-.426 2.27.052 2.931.052.323 0 1.292-.026.98-.026 1.51-.026 2.54 0 3.538.968 1.01.956 1.008 2.26 0 1.51-1.124 2.815-1.12 1.3-3.5 1.304-.955 0-1.665-.31zM77.123 126.34h-1.51v3.964q0 .4.245.788.258.387.606.387h2.196q2.07 0 2.853-2.892.374-.103.736.103-.374 2.17-.787 3.654-1.74-.051-2.802-.051h-4.08q-1.85.026-2.958.051-.129-.103-.129-.413 0-.323.13-.452 1.27-.103 1.575-.465.323-.362.322-1.95v-5.707q0-1.59-.322-1.95-.31-.374-1.576-.464-.129-.13-.129-.44 0-.323.13-.426l2.93.052h5.475q.35 0 1.085-.103.078 0 .078.077.18.633.477 3.15-.349.156-.71.13-.426-1.32-.878-1.847-.452-.529-1.588-.529h-2.028q-.374 0-.62.194-.231.194-.232.542v3.758h1.511q.581 0 .891-.065.323-.077.517-.116.207-.039.284-.297.077-.271.09-.388.013-.116.039-.62.103-.102.361-.103.271 0 .375.104-.052 1.32-.052 1.872 0 .4.052 1.937-.103.103-.375.103-.258 0-.361-.103-.052-.904-.233-1.123-.336-.362-1.588-.362zM88.379 130.27q0 .633.387.917.4.284 1.808.284 2.32 0 3.435-1.02 1.11-1.02 1.11-3.667 0-1.19-.167-2.092-.168-.917-.672-1.834t-1.562-1.42q-1.06-.504-2.647-.504-1.69 0-1.692.827zm-1.059-10.149q.232 0 1.692-.026t1.82-.026q3.2 0 4.894 1.744t1.692 4.52q0 1.67-.542 2.891-.542 1.21-1.485 1.86-.93.646-1.963.955-1.03.297-2.221.297-1.21 0-2.415-.025-1.2-.026-1.446-.026-.736 0-2.957.051-.129-.103-.13-.413 0-.323.13-.452 1.27-.103 1.575-.465.323-.362.323-1.95v-5.707q0-1.59-.323-1.95-.31-.374-1.575-.464-.129-.13-.13-.44 0-.322.13-.426 2.27.052 2.931.052zM103.9 123.35v5.707q0 1.59.31 1.963.323.362 1.601.452.13.13.13.452 0 .31-.13.413-2.27-.051-2.944-.051-.736 0-2.957.051-.103-.103-.103-.413 0-.323.103-.452 1.27-.103 1.575-.465.323-.362.323-1.95v-5.707q0-1.59-.323-1.95-.31-.374-1.575-.465-.103-.129-.103-.439 0-.323.103-.426 2.27.052 2.931.052.736 0 2.97-.052.13.103.13.426 0 .31-.13.44-1.27.102-1.588.464t-.323 1.95zM118.38 110.61q1.14.529 1.64 1.369l-3.81 1.536q-.735.323-1.11.31-.4 0-.4-.387 0-.297.4-.555zm-4.067 14.191h4.596l-2.57-7.05h-.05l-2.648 6.701q-.077.207.065.284.155.065.607.065zm-2.867 5.398q-.026.257-.078.464-.051.194.142.336.207.13.323.207.116.077.44.142.322.064.503.077t.503.052q.103.129.104.452 0 .31-.104.413-1.96-.052-3.383-.052-.4 0-2.363.052-.129-.103-.129-.413 0-.323.13-.452.683-.052 1.071-.155.387-.116.814-.517.426-.413.762-1.213l5.875-13.752q.232-.542.413-.75.194-.206.478-.206.426 0 .723.8l5.423 14.334q.181.478.4.787.233.297.62.426.4.13.582.155.194.026.774.09.13.13.13.453 0 .31-.13.413-1.96-.052-3.021-.052-1.51 0-3.46.052-.104-.103-.104-.413 0-.323.103-.452.155 0 .4-.013l.4-.039q.156-.013.35-.039.206-.025.322-.051.116-.026.245-.078.13-.051.181-.129.065-.077.116-.168.052-.103.026-.245t-.077-.323l-1.614-4.48h-5.501q-.478 0-.659.103-.168.09-.27.348zM28.844 118.36q-.4-.413-.4-.968t.4-.956q.413-.413.968-.413t.969.413q.413.4.413.956t-.413.968q-.413.4-.969.4t-.968-.4zM52.493 118.36q-.4-.413-.4-.968t.4-.956q.413-.413.968-.413t.969.413q.413.4.413.956t-.413.968q-.413.4-.969.4t-.968-.4zM101.9 118.36q-.4-.413-.4-.968t.4-.956q.413-.413.968-.413t.969.413q.413.4.413.956t-.413.968q-.413.4-.969.4t-.968-.4z" style="font-variant-caps:small-caps" transform="translate(-2.428 -28.569) scale(.25832)"/></g></svg>