<svg xmlns="http://www.w3.org/2000/svg" width="96" height="25"><g fill="#484848"><path d="M16.904 8.136h-8.11v4.346q0 .43.227.808.252.38.682.38.985-.33 1.819-1.44.834-1.214 1.112-1.214 1.01 0 1.844 1.592.758 1.415.758 2.577.101 2.502-1.263 4.22-1.642 1.667-3.891 1.743-6.216 0-7.504-12.052l.985.556q.101 1.516.48 2.956.38 1.44 1.087 2.78 1.87 3.31 4.674 3.31.859 0 1.592-.278t1.39-.809q1.338-1.061 1.338-2.729 0-.96-.783-1.819-.303.505-.733 1.01-.43.506-.985.936-.505.43-1.01.657t-.885.227q-.455 0-.884-.177-.405-.177-.733-.505-.303-.329-.505-.784t-.202-1.01v-5.28H1.39L0 6.72h11.976q.91.025.91-.758 0-.657-.809-1.01-.631-.253-1.339-.253-.353 0-.859.025-.48.025-1.187.076-.657.05-1.188.076-.505.025-.834.025-1.591 0-2.93-.809-1.516-.91-1.516-2.4 0-1.213.758-1.642l.252.126q.177.076.303.126-.53.43-.53 1.011 0 .783 1.01 1.263.354.152.784.253.455.101.884.101.354 0 .86-.025.53-.025 1.262-.076.708-.05 1.239-.076.555-.05.91-.05 1.97 0 3.107 1.061 1.137 1.036 1.061 2.956h1.39z"/><path d="M30.42 8.136h-7.478q.177.278.379.556.202.252.404.48 2.148.758 2.88 1.617 1.138 1.112 1.138 2.855 0 1.743-1.39 2.88-1.036.885-3.158 1.44 1.44.86 3.057 2.25 1.642 1.389 3.537 3.31l.329 1.465q-1.011-1.137-2.224-2.123-1.213-1.01-2.729-1.895-1.44-.808-2.981-1.415-1.541-.606-3.083-.985l-1.693-3.537q1.794.985 3.967 1.162 1.643.126 2.906-.53 1.743-.86 1.668-2.3 0-.455-.152-.884-.126-.43-.404-.758-.253-.329-.607-.53-.353-.203-.808-.203-.202 0-.38.05-.15.051-.353.102 0 1.01-.859 1.844-.884.834-1.87.834-.631 0-1.162-.379-.53-.404-.53-1.036 0-1.187 1.01-2.122.96-.885 2.3-1.011 0-.404-.96-1.137h-4.549L15.21 6.721h9.602q.278 0 .606-.05.329-.076.607-.177.783-.278.783-.834 0-.53-.885-.783-.277-.101-.606-.127-.328-.05-.682-.05-.354 0-.884.025-.506.025-1.213.076t-1.238.076q-.506.025-.86.025-1.591 0-2.93-.783-1.542-.91-1.542-2.375 0-.304.354-.96.354-.632.657-.582.076 0 .177.026h.202q-.606.429-.606 1.187 0 .707.758 1.162.606.38 1.39.38.303 0 1.212-.051.935-.076 2.451-.202 2.653.05 4.017 1.06 1.365.986 1.239 2.957h1.187z"/><path d="M45.076 5.003q-.682-.607-1.516-1.188-.834-.606-1.895-1.187-.96-.556-1.996-.809-1.011-.252-2.097-.252-1.592 0-3.26 1.111-1.844 1.213-1.945 2.704l.556 1.339h1.54l1.441 1.415h-2.476v14.78l-1.44-1.414V8.136H29.84L28.45 6.72h3.765l-.985-.935q-.556-.556-.556-1.137 0-1.718 1.92-3.234Q34.464 0 36.207 0q4.498 0 8.59 4.245z"/><path d="M45.632 8.136v1.036q2.476 0 3.992 2.021 1.44 1.82 1.44 3.992 0 .53-.177 1.01-.177.481-.48.86-.303.354-.733.581-.43.202-.934.202-.354 0-.683-.126-.328-.152-.606-.38-.253-.226-.43-.53-.151-.328-.151-.707 0-.682.48-1.137.48-.455 1.187-.455.43 0 .758.202.354.202.632.556l.126-.328q0-1.466-1.162-2.628-1.137-1.238-3.285-1.213v11.8q-.151-.025-.303-.101-.151-.101-.202-.227-.505-1.239-1.213-2.3-.682-1.086-1.516-1.92-1.92-1.92-4.295-2.198l-1.996-2.476q3.613-2.855 8.212-4.346V8.136h-9.198l-1.44-1.415h17.89l1.465 1.415zm-1.415 3.133q-1.289.48-2.577 1.213-1.289.707-2.73 1.718 3.538 1.49 5.256 4.725h.05z"/></g><g fill="#666"><path d="M68.953 8.136H52.277l-1.39-1.415h16.701zm-2.3 14.958q-.555-.455-1.01-1.314-.253-.455-.48-.758-.228-.328-.38-.48-.63-.505-1.793-.505-.329 0-.809.05-.48.05-1.086.101-.632.05-1.112.101-.455.026-.783.026-1.137 0-2.123-.329-.96-.354-1.718-.935-1.49-1.364-1.49-3.613 0-.884.202-1.617.227-.758.58-1.34l.531.33q-.126.353-.202.833-.05.455-.1 1.415.176 2.021 2.425 2.628.53.126 1.465.227.96.076 2.4.076 1.39 0 2.275.303.783.329 1.895 1.314v-7.176q-2.957 2.451-4.523 2.451-1.289 0-2.3-.732-1.111-.834-1.111-2.072 0-.506.152-.96.176-.48.454-.834.304-.354.708-.556.404-.228.91-.228.757 0 1.238.531t.48 1.263q0 .127-.101.48-.102.329-.354.885.733 0 1.566-.708.86-.732 1.996-2.248.253.05.607.252t.758.607q.834.808.834 1.288z"/><path d="M82.698 8.136h-2.552v14.857l-.556-.556q-1.137-4.295-3.942-5.205-.631.809-1.288 1.087-.657.278-1.213.278-1.01 0-1.718-.657-.682-.683-.682-1.718 0-1.188.884-1.895.758-.607 2.047-.607.682 0 1.111.278 0-1.794-.783-2.577-.505-.48-1.945-.884-.758-.228-1.314-.455-.53-.253-.885-.48-.53-.354-1.314-1.415l-1.49-1.466h14.225zm-3.891 10.208V8.136h-6.873q2.198 1.794 3.032 2.956 1.34 1.718 1.34 3.689v.328q0 .151-.026.354.809.682 1.415 1.39.632.707 1.061 1.49zM93.158 8.136v14.756L91.59 21.3v-8.035q0-1.768-1.036-3.108-1.137-1.465-2.83-1.465-1.136 0-1.945.884-.783.809-.783 2.022 0 .404.076.808.1.38.227.682.379.935 1.137.935.126 0 .152-.025.05-.025-.026-.152v.026l-.1-.354q-.026-.177-.026-.404.076-1.112 1.364-1.163.683 0 1.163.53.505.532.505 1.188 0 .455-.227.834-.203.38-.556.657-.329.253-.784.404-.454.127-.91.127-1.667 0-2.804-1.213-1.137-1.238-1.137-2.88 0-1.036.329-1.895.353-.885.935-1.592 1.288-1.44 3.31-1.44 1.49 0 2.678 1.212 1.01 1.062 1.44 2.653h.05V3.967l.758.657q0 1.112.405 1.617.43.505 1.288.48l1.415 1.415z"/></g></svg>