<svg xmlns="http://www.w3.org/2000/svg" width="120" height="13"><path fill="#000" fill-rule="nonzero" d="M92.958 3.467c.036 0 .053.013.053.04l-.04 1.083h.04c.476-.722 1.068-1.083 1.777-1.083.422 0 .81.13 1.162.39.352.259.625.6.819 1.023.193.422.29.871.29 1.347 0 1.06-.317 1.913-.95 2.555-.498.502-1.128.753-1.89.753-.435 0-.838-.099-1.208-.297v2.344c0 .19.042.326.126.41.088.088.235.14.442.158l.258.027c.083.013.125.048.125.105v.258l-.026.026-1.19-.024h-.5c-.28.003-.668.01-1.163.024l-.033-.026v-.258c0-.057.037-.092.112-.105l.258-.027c.215-.017.365-.07.449-.158.088-.084.132-.22.132-.41V5.105c0-.317-.024-.533-.073-.648-.048-.114-.123-.178-.224-.191l-.581-.06-.027-.323c.841-.128 1.462-.266 1.862-.416ZM47.625 0c.114 0 .172.046.172.139-.022.3-.035.68-.039 1.136l-.001 6.596c0 .335.02.546.06.634.039.088.131.14.277.152l.654.066.04.317c-.877.154-1.454.344-1.731.568h-.317l.033-.95-.033-.014c-.766.62-1.378.931-1.836.931-.713 0-1.27-.266-1.67-.799-.401-.532-.601-1.226-.601-2.08 0-.982.301-1.774.904-2.377.286-.273.588-.476.905-.608a2.854 2.854 0 0 1 1.123-.204c.15 0 .345.028.587.085.247.058.443.128.588.212V1.829c0-.418-.03-.698-.092-.838-.062-.146-.166-.218-.31-.218L45.9.746c-.052 0-.079-.022-.079-.066l-.026-.323a9.89 9.89 0 0 0 .997-.14l.348-.073c.208-.05.37-.097.484-.144Zm61.387 0c.114 0 .171.046.171.139-.022.3-.035.68-.038 1.136l-.001 6.596c0 .335.02.546.06.634.039.088.131.14.276.152l.654.066.04.317c-.876.154-1.453.344-1.73.568h-.317l.033-.95-.033-.014c-.766.62-1.378.931-1.836.931-.713 0-1.27-.266-1.67-.799-.401-.532-.602-1.226-.602-2.08 0-.982.302-1.774.905-2.377.286-.273.588-.476.905-.608a2.854 2.854 0 0 1 1.122-.204c.15 0 .346.028.588.085.247.058.442.128.588.212V1.829c0-.418-.031-.698-.093-.838-.061-.146-.165-.218-.31-.218l-.436-.027c-.053 0-.08-.022-.08-.066l-.026-.323a9.89 9.89 0 0 0 .997-.14l.348-.073c.209-.05.37-.097.485-.144ZM31.36 0c.115 0 .172.046.172.139-.022.3-.035.68-.039 1.136v2.978c.457-.498 1.008-.746 1.65-.746.295 0 .584.063.865.191.282.123.535.297.76.522.224.22.405.502.541.845.137.339.205.707.205 1.103 0 .515-.09.992-.27 1.433-.177.44-.408.801-.694 1.083a3.3 3.3 0 0 1-.951.66 2.572 2.572 0 0 1-1.05.231c-.555 0-1.024-.165-1.407-.495a3.256 3.256 0 0 1-.442.528.475.475 0 0 1-.284-.072c.037-.206.058-.483.064-.832l.002-6.875c0-.418-.033-.698-.099-.838-.062-.146-.165-.218-.31-.218l-.43-.027c-.057 0-.085-.022-.085-.066L29.53.357c.277-.022.61-.07.997-.146l.354-.073c.21-.048.37-.094.478-.138ZM15.406 3.507c.56 0 1.057.112 1.493.336.066.37.114.83.145 1.38l-.363.014a2.253 2.253 0 0 0-.278-.667 1.29 1.29 0 0 0-.37-.416 1.432 1.432 0 0 0-.35-.185.768.768 0 0 0-.277-.06c-.709 0-1.063.304-1.063.912 0 .273.066.488.198.647.114.128.309.249.584.362l.175.067c.309.115.568.227.78.337.211.11.414.242.607.396.198.154.346.335.443.542.096.206.145.44.145.7 0 .255-.053.486-.159.693a1.436 1.436 0 0 1-.383.489c-.15.123-.32.226-.515.31-.193.08-.374.134-.541.165-.163.03-.315.046-.456.046a5.06 5.06 0 0 1-.993-.093L14 9.43a.95.95 0 0 0-.251-.027c-.07 0-.176.014-.317.04l-.008-.451c-.012-.406-.04-.888-.085-1.444l.363-.013c.084.607.247 1.032.49 1.274.092.097.226.187.402.27.176.08.376.12.6.12.274 0 .538-.093.793-.278a.863.863 0 0 0 .383-.733c0-.299-.101-.554-.304-.766-.177-.188-.477-.384-.9-.586l-.497-.226a6.448 6.448 0 0 1-.346-.171 2.358 2.358 0 0 1-.442-.33 1.062 1.062 0 0 1-.284-.456 2.182 2.182 0 0 1-.08-.634c0-.445.179-.808.535-1.09.361-.282.813-.422 1.354-.422Zm101.464 0c.216 0 .412.017.588.052.18.036.36.104.541.205.18.097.33.227.45.39.122.163.222.385.296.667.08.277.12.6.12.97v2.325l.019.27c.013.102.03.183.053.245.022.057.05.117.086.178.04.062.09.106.152.132a.6.6 0 0 0 .224.04.475.475 0 0 0 .34-.123l.036-.036c.031-.035.056-.052.073-.052.027 0 .057.022.093.066.04.044.059.088.059.132 0 .017-.018.048-.053.092a2.107 2.107 0 0 1-.39.324 1.319 1.319 0 0 1-.316.132c-.12.04-.24.06-.364.06-.532 0-.871-.26-1.017-.78h-.026l-.27.211c-.3.234-.544.385-.734.456-.185.075-.431.112-.74.112-.51 0-.917-.116-1.221-.35-.304-.233-.456-.603-.456-1.11 0-.448.2-.844.601-1.188.405-.348.94-.605 1.605-.772l1.162-.284c.053-.018.08-.07.08-.159 0-.295-.025-.552-.073-.772a1.982 1.982 0 0 0-.178-.529.893.893 0 0 0-.265-.304.868.868 0 0 0-.58-.198c-.291 0-.551.053-.78.159-.229.105-.343.257-.343.455 0 .124.008.212.026.265a.6.6 0 0 1 .04.244c0 .106-.055.207-.165.304a.61.61 0 0 1-.43.145c-.312 0-.468-.158-.468-.475 0-.238.107-.474.323-.707.216-.233.498-.423.845-.568.348-.15.7-.224 1.057-.224Zm-48.404 0c.62 0 1.111.136 1.472.409.361.268.542.592.542.97a.52.52 0 0 1-.198.43.7.7 0 0 1-.436.152c-.29 0-.454-.159-.489-.476a2.38 2.38 0 0 0-.066-.35 1.364 1.364 0 0 0-.138-.317.573.573 0 0 0-.284-.264 1.09 1.09 0 0 0-.476-.092c-.458 0-.836.213-1.136.64-.295.423-.442.997-.442 1.724 0 .783.167 1.422.502 1.915.339.489.77.733 1.294.733.295 0 .588-.084.878-.251.29-.172.54-.407.747-.707.14.018.235.082.283.192a3.285 3.285 0 0 1-.7.845c-.246.207-.486.344-.72.41-.228.07-.49.105-.785.105-.837 0-1.488-.268-1.955-.805-.462-.538-.693-1.25-.693-2.14 0-.467.077-.898.231-1.294a2.88 2.88 0 0 1 .62-.99 2.81 2.81 0 0 1 .892-.615c.34-.15.691-.224 1.057-.224Zm-29.518 0c.216 0 .411.017.588.052.18.036.36.104.541.205.18.097.33.227.45.39.122.163.221.385.296.667.08.277.12.6.12.97v2.325l.019.27c.013.102.03.183.053.245.022.057.05.117.086.178.04.062.09.106.151.132a.6.6 0 0 0 .225.04.475.475 0 0 0 .34-.123l.036-.036c.031-.035.055-.052.073-.052.026 0 .057.022.092.066.04.044.06.088.06.132 0 .017-.018.048-.053.092a2.105 2.105 0 0 1-.39.324 1.32 1.32 0 0 1-.316.132c-.12.04-.24.06-.364.06-.532 0-.871-.26-1.017-.78h-.026l-.27.211c-.3.234-.544.385-.734.456-.185.075-.431.112-.74.112-.51 0-.917-.116-1.221-.35-.304-.233-.456-.603-.456-1.11 0-.448.2-.844.601-1.188.405-.348.94-.605 1.605-.772l1.162-.284c.053-.018.08-.07.08-.159a3.63 3.63 0 0 0-.073-.772 1.984 1.984 0 0 0-.179-.529.893.893 0 0 0-.264-.304.869.869 0 0 0-.58-.198c-.291 0-.551.053-.78.159-.229.105-.343.257-.343.455 0 .124.008.212.026.265a.6.6 0 0 1 .04.244c0 .106-.055.207-.165.304a.61.61 0 0 1-.43.145c-.312 0-.469-.158-.469-.475 0-.238.108-.474.324-.707.216-.233.497-.423.845-.568.348-.15.7-.224 1.057-.224Zm61.816 0c.343 0 .647.046.911.138.264.093.475.214.634.363.163.146.295.324.396.535.101.212.17.423.205.634.04.212.06.438.06.68 0 .154-.082.232-.245.232h-3.56c0 .387.042.744.126 1.07.088.32.198.587.33.798.137.212.29.392.463.542.176.145.347.25.515.317.167.066.33.099.488.099.366 0 .678-.06.938-.178.26-.124.51-.317.753-.582.14.014.23.086.27.218-.268.37-.598.663-.99.879a2.639 2.639 0 0 1-1.294.323c-.88 0-1.548-.264-2.001-.792-.45-.529-.674-1.206-.674-2.034 0-.493.08-.949.238-1.367.159-.418.365-.762.62-1.03.256-.269.54-.476.853-.62.317-.15.638-.225.964-.225Zm-13.108 0c.387 0 .74.061 1.056.184.317.12.58.28.786.482.211.199.388.432.528.7.146.265.25.538.31.82.062.281.093.567.093.858a3.474 3.474 0 0 1-.68 2.014c-.216.3-.508.544-.878.733-.37.185-.784.277-1.242.277-.436 0-.834-.086-1.195-.257a2.442 2.442 0 0 1-.878-.68 3.112 3.112 0 0 1-.7-1.968c0-.947.246-1.71.74-2.292.492-.58 1.18-.871 2.06-.871Zm-61.387 0c.216 0 .412.017.588.052.18.036.36.104.541.205.18.097.33.227.45.39.123.163.222.385.296.667.08.277.12.6.12.97v2.325l.02.27c.012.102.03.183.052.245.022.057.05.117.086.178.04.062.09.106.152.132a.6.6 0 0 0 .224.04.475.475 0 0 0 .34-.123l.037-.036c.03-.035.055-.052.072-.052.027 0 .057.022.093.066.04.044.06.088.06.132 0 .017-.019.048-.054.092a2.105 2.105 0 0 1-.39.324 1.32 1.32 0 0 1-.316.132c-.12.04-.24.06-.364.06-.532 0-.871-.26-1.016-.78h-.027l-.27.211c-.3.234-.544.385-.734.456-.185.075-.431.112-.74.112-.51 0-.917-.116-1.22-.35-.305-.233-.457-.603-.457-1.11 0-.448.2-.844.601-1.188.405-.348.94-.605 1.605-.772l1.162-.284c.053-.018.08-.07.08-.159a3.63 3.63 0 0 0-.073-.772 1.984 1.984 0 0 0-.178-.529.893.893 0 0 0-.265-.304.869.869 0 0 0-.58-.198c-.291 0-.551.053-.78.159-.229.105-.343.257-.343.455l.006.159c.005.044.011.08.02.106a.6.6 0 0 1 .04.244c0 .106-.055.207-.165.304a.61.61 0 0 1-.43.145c-.312 0-.468-.158-.468-.475 0-.238.107-.474.323-.707.216-.233.498-.423.845-.568.348-.15.7-.224 1.057-.224Zm29.168 0c.343 0 .647.046.911.138.264.093.476.214.634.363.163.146.295.324.396.535.102.212.17.423.205.634.04.212.06.438.06.68 0 .155-.082.232-.245.232h-3.56c0 .387.043.744.126 1.07.088.32.198.587.33.798.137.212.291.392.463.542.176.145.348.25.515.317.167.066.33.099.489.099.365 0 .677-.06.937-.178.26-.124.51-.317.753-.582.14.014.231.086.27.218-.268.37-.598.663-.99.879a2.639 2.639 0 0 1-1.294.323c-.88 0-1.548-.264-2-.792-.45-.528-.675-1.206-.675-2.034 0-.493.08-.949.238-1.367.159-.418.366-.762.62-1.03.256-.269.54-.476.853-.62.317-.15.638-.225.964-.225ZM76.449 0c.12 0 .179.046.179.139-.022.3-.035.68-.039 1.136V6.24c.326-.081.858-.516 1.595-1.304l.174-.188c.053-.053.101-.11.145-.172.049-.066.09-.143.126-.23.035-.089.015-.164-.06-.225-.07-.066-.2-.104-.39-.113-.07 0-.105-.037-.105-.112V3.64c.026-.009.04-.018.04-.027l1.208.027c.114 0 .506-.009 1.175-.027l.053.027v.257c0 .057-.05.095-.152.112l-.092.014a2.71 2.71 0 0 0-.687.218c-.25.114-.455.253-.614.416L77.981 5.79a.188.188 0 0 0-.052.139c0 .066.022.128.066.185l1.578 2.338c.114.171.264.308.449.409.185.101.374.17.568.205l.092.013c.084.013.126.048.126.106v.257l-.027.027-.953-.025-.196-.002c-.246 0-.55.008-.91.027l-.04-.027v-.257c0-.185-.104-.43-.31-.733l-.985-1.387c-.132-.194-.255-.324-.37-.39a.826.826 0 0 0-.429-.099v1.895c0 .23.049.383.145.463.078.06.192.102.343.129l.12.016c.07 0 .105.035.105.106v.257l-.026.027-1.174-.027-1.434.027-.027-.027v-.257c0-.058.03-.093.093-.106l.257-.026c.225-.023.376-.075.456-.159.083-.084.125-.225.125-.423V1.83c0-.418-.03-.698-.092-.838-.062-.146-.165-.218-.31-.218l-.436-.027c-.053 0-.08-.022-.08-.066l-.026-.323c.277-.022.607-.07.99-.146l.351-.073c.21-.048.37-.094.481-.138Zm-3.308 3.467c.04 0 .06.013.06.04-.031.611-.047 1.144-.047 1.598v3.367c0 .194.042.335.126.423.088.084.237.137.449.159l.25.026c.084.013.126.048.126.106v.257l-.026.027-1.357-.027-.39.003c-.256.004-.625.011-1.106.024l-.026-.027v-.257c0-.058.035-.093.105-.106l.258-.026c.229-.031.383-.086.462-.166.08-.083.119-.222.119-.416V5.105c0-.322-.024-.538-.073-.648-.044-.114-.119-.178-.224-.191l-.581-.06-.027-.323c.907-.137 1.541-.275 1.902-.416Zm39.542 0c.04 0 .06.013.06.04a32.35 32.35 0 0 0-.047 1.598v3.367c0 .194.042.335.126.423.088.084.238.137.449.159l.25.026c.085.013.126.048.126.106v.257l-.026.027-1.357-.027-.39.003c-.256.004-.624.011-1.106.024l-.026-.027v-.257c0-.058.035-.093.105-.106l.258-.026c.229-.031.383-.086.462-.166.08-.083.12-.222.12-.416V5.105c0-.322-.025-.538-.074-.648-.044-.114-.118-.178-.224-.191l-.581-.06-.027-.323c.907-.137 1.541-.275 1.902-.416ZM83.02 0c.114 0 .172.046.172.139l-.022.398a23.04 23.04 0 0 0-.017.738v7.197c0 .198.039.34.118.423.08.084.229.136.449.158l.324.027c.074 0 .112.035.112.106v.257l-.027.027-1.432-.026-1.546.026-.013-.027v-.257c0-.07.03-.106.092-.106l.324-.026c.225-.023.379-.075.462-.159.084-.084.126-.225.126-.423V1.83c0-.418-.033-.698-.1-.838-.06-.146-.164-.218-.31-.218l-.429-.027c-.057 0-.086-.022-.086-.066l-.026-.323a9.89 9.89 0 0 0 .997-.14l.348-.073c.208-.05.37-.097.484-.144ZM60.277 3.467c.036 0 .053.013.053.04l-.04 1.201h.04c.4-.47.77-.788 1.11-.95a2.47 2.47 0 0 1 1.096-.251c.295 0 .541.052.74.158.202.106.356.262.462.469a2.2 2.2 0 0 1 .218.667c.044.238.066.52.066.845v2.826c0 .194.041.335.125.423.084.084.231.137.442.159l.258.026c.08.018.119.053.119.106v.257l-.027.027-1.356-.027-1.43.027-.027-.027v-.257c0-.058.038-.093.113-.106l.185-.026c.224-.036.376-.093.455-.172.084-.084.126-.22.126-.41V5.547c0-.502-.062-.858-.185-1.07-.12-.215-.35-.323-.694-.323-.312 0-.607.077-.885.23-.277.155-.58.426-.91.813v3.275c0 .194.039.33.118.41.084.08.238.136.462.172l.192.026c.07.013.105.048.105.106v.257l-.026.027-1.38-.027c-.216 0-.685.008-1.407.027l-.026-.027v-.257c0-.058.035-.093.106-.106l.257-.026c.225-.023.377-.075.456-.159.083-.084.125-.225.125-.423V5.105c0-.322-.024-.538-.072-.648-.044-.114-.12-.178-.225-.191l-.581-.06-.026-.323c.862-.132 1.485-.27 1.868-.416ZM4.88.542c.088 0 .156.033.205.099.053.061.108.165.165.31l2.773 7.33c.093.26.214.449.364.568.15.114.36.187.633.218l.152.013c.088 0 .132.035.132.106v.257l-.026.027-1.01-.022c-.217-.003-.409-.005-.575-.005l-.668.004c-.35.004-.727.012-1.128.023l-.013-.027v-.257c0-.07.03-.106.092-.106l.383-.026c.26-.023.436-.078.529-.166.092-.092.105-.23.04-.416l-.826-2.291H3.289c-.159 0-.269.018-.33.053a.32.32 0 0 0-.146.178l-.786 1.961c-.075.19-.066.346.027.47.097.118.268.188.515.21l.396.027c.07 0 .106.035.106.106v.257l-.027.027-.765-.017a63.044 63.044 0 0 0-.689-.009l-.563.002c-.22.004-.554.011-1 .024L0 9.443v-.257c0-.053.02-.086.06-.1l.046-.006c.33-.022.59-.1.779-.231.194-.132.372-.394.535-.786L4.424 1.03c.084-.185.157-.312.218-.383A.301.301 0 0 1 4.88.542Zm13.617 2.925c.044.008.118.04.224.092.106.053.242.08.41.08h2.747c.114 0 .24-.007.376-.02l.35-.046.165-.027c.11 0 .165.031.165.093 0 .07-.099.26-.297.568L19.388 8.98h1.796c.366 0 .634-.08.806-.238.176-.158.354-.438.535-.838l.178-.397.35.093a16.03 16.03 0 0 0-.436 1.842h-4.16c-.207 0-.31-.055-.31-.165 0-.057.04-.147.118-.27L21.594 4.1h-1.87c-.228 0-.444.1-.646.297-.203.194-.366.52-.489.978l-.35-.047.085-.562c.073-.526.113-.947.12-1.26 0-.027.017-.04.053-.04Zm69.007.489c-.344 0-.632.123-.865.37a2.04 2.04 0 0 0-.495.884 4.467 4.467 0 0 0-.08 1.843c.044.237.115.482.212.733.096.25.213.475.35.673.136.198.31.361.521.489a1.4 1.4 0 0 0 .707.185c.172 0 .332-.029.482-.086.154-.062.304-.165.449-.31.15-.15.268-.375.357-.674.088-.3.132-.66.132-1.083 0-.982-.154-1.73-.463-2.245-.308-.52-.744-.78-1.307-.78ZM32.873 4.1c-.093 0-.196.008-.31.026a2.054 2.054 0 0 0-.503.159c-.22.092-.41.22-.568.383v3.817c.163.202.317.358.463.468.15.11.321.166.515.166.616 0 1.085-.25 1.406-.747.326-.497.489-1.15.489-1.96 0-.652-.145-1.2-.436-1.645-.29-.445-.643-.667-1.056-.667Zm61.545.026c-.247 0-.509.101-.786.304-.273.198-.48.467-.62.806v3.301c.33.388.704.582 1.122.582.277 0 .524-.051.74-.152.22-.106.396-.24.528-.403a2.05 2.05 0 0 0 .323-.581c.088-.225.148-.447.179-.667.03-.22.046-.45.046-.687 0-.744-.15-1.347-.45-1.81-.294-.462-.655-.693-1.082-.693Zm23.442 2.166-1.07.284c-.871.238-1.307.733-1.307 1.486 0 .242.088.464.264.667.176.198.42.297.733.297.308 0 .705-.196 1.189-.588a.406.406 0 0 0 .191-.35V6.293Zm-90.6 0-1.07.284c-.872.238-1.308.733-1.308 1.486 0 .242.088.464.264.667.176.198.42.297.733.297.309 0 .705-.196 1.189-.588a.406.406 0 0 0 .192-.35V6.293Zm12.678 0-1.07.284c-.871.238-1.307.733-1.307 1.486 0 .242.088.464.264.667.176.198.42.297.733.297.274 0 .618-.155 1.03-.464l.159-.124a.406.406 0 0 0 .191-.35V6.293Zm66.868-2.311c-.541 0-.962.225-1.261.674-.251.36-.377.96-.377 1.796 0 .792.146 1.406.436 1.842.295.432.64.647 1.037.647.352 0 .847-.257 1.486-.772V4.774c-.172-.268-.359-.466-.562-.594-.202-.132-.455-.198-.759-.198Zm-61.387 0c-.541 0-.962.225-1.261.674-.25.36-.376.96-.376 1.796 0 .792.145 1.406.435 1.842.295.432.641.647 1.037.647.352 0 .848-.257 1.486-.772V4.774c-.172-.268-.359-.466-.561-.594-.203-.132-.456-.198-.76-.198ZM4.57 2.008h-.026L3.19 5.44c-.027.066-.014.113.04.139a.917.917 0 0 0 .303.033h2.35L4.57 2.008Zm96.195 1.96c-.088 0-.176.007-.264.02a1.285 1.285 0 0 0-.344.106 1.239 1.239 0 0 0-.39.245c-.11.105-.22.264-.33.475a2.52 2.52 0 0 0-.224.746h2.483c.128 0 .191-.061.191-.185 0-.268-.035-.5-.105-.693a.934.934 0 0 0-.278-.436 1.005 1.005 0 0 0-.356-.211 1.094 1.094 0 0 0-.383-.066Zm-45.327 0c-.088 0-.176.007-.264.02a1.285 1.285 0 0 0-.344.106 1.239 1.239 0 0 0-.39.245c-.11.105-.22.264-.33.475a2.52 2.52 0 0 0-.224.746h2.483c.128 0 .192-.061.192-.185 0-.268-.036-.5-.106-.693a.934.934 0 0 0-.277-.436 1.005 1.005 0 0 0-.357-.211 1.095 1.095 0 0 0-.383-.066ZM101.47.344c.278 0 .524.104.74.31l.04.146-1.552 1.48c-.172.167-.308.25-.41.25a.194.194 0 0 1-.132-.053.164.164 0 0 1-.053-.119c0-.048.007-.092.02-.132.013-.044.024-.077.033-.099L101.28.37a.61.61 0 0 1 .191-.027Zm-28.897.74c.176 0 .328.064.456.192a.62.62 0 0 1 .198.462.612.612 0 0 1-.198.455.622.622 0 0 1-.456.192.622.622 0 0 1-.455-.192.622.622 0 0 1-.192-.455c0-.176.064-.328.192-.456a.612.612 0 0 1 .455-.198Zm39.542 0c.176 0 .328.064.456.192a.62.62 0 0 1 .198.462.612.612 0 0 1-.198.455.622.622 0 0 1-.456.192.622.622 0 0 1-.455-.192.622.622 0 0 1-.192-.455c0-.176.064-.328.192-.456a.612.612 0 0 1 .455-.198Z"/></svg>