<svg xmlns="http://www.w3.org/2000/svg" width="120" height="19"><path fill="#000" fill-rule="nonzero" d="M26.15.493c.154.162.154.737 0 .9-1.687.219-1.98 1.261-2.512 2.538l-6.051 13.918c-.179.41-.333.628-.613.628-.255 0-.453-.222-.588-.628l-3.438-7.922-3.77 7.922c-.153.41-.333.628-.614.628-.255 0-.435-.219-.587-.628L2.417 3.877C1.636 1.94 1.584 1.531.128 1.394c-.154-.163-.18-.737-.026-.9C1.304.52 1.74.548 2.761.548 3.758.548 4.397.521 5.6.494c.154.162.154.737 0 .9-1.61.19-1.68.622-1.037 2.183l4.68 11.38h.117l2.855-6.2-2.155-4.88C9.203 1.94 9 1.558 7.9 1.394c-.153-.163-.179-.737-.025-.9.818.026 1.252.054 2.274.054.997 0 1.407-.027 2.327-.054.153.162.153.737 0 .9-1.074.164-.972.627-.271 2.183l1.257 2.757.113.122 1.354-2.715c.79-1.582.895-2.183-.204-2.347-.154-.165-.154-.739 0-.901.946.026 1.432.054 2.019.054.588 0 1.227-.027 1.866-.054.153.162.153.737 0 .9-1.33.219-1.884 1.258-2.513 2.538l-1.868 3.796 3.27 7.228h.116L22.47 3.74c.606-1.477.562-2.211-1.099-2.347-.154-.163-.154-.737 0-.9 1.201.026 1.942.054 2.53.054.589 0 1.228-.027 2.25-.054Zm5.183 5.047c.154.164.154.737 0 .901-1.559.137-1.84.218-1.84 2.483v5.895c0 2.265.28 2.375 1.84 2.483.153.164.153.737 0 .9-1.1-.026-1.739-.054-2.838-.054-1.125 0-1.789.027-2.863.055-.152-.164-.152-.737 0-.901 1.56-.137 1.841-.218 1.841-2.483V8.924c0-2.265-.28-2.374-1.84-2.483-.153-.164-.153-.737 0-.9 1.098.027 1.737.054 2.837.054 1.124 0 1.79-.026 2.863-.055Zm2.426.901c-.152-.164-.152-.737 0-.9 1.074.027 1.738.054 2.864.054.946 0 1.354-.026 2.453-.055.153.164.153.737 0 .901-1.227.137-1.457.218-1.457 2.483v2.428c.844 0 1.593-.43 2.684-1.747 1.969-2.373 2.225-3.083.947-3.165-.154-.164-.154-.737 0-.9 1.099.027 2.07.054 2.811.054.664 0 1.1-.026 1.79-.055.152.164.152.737 0 .901-1.022.055-1.96.193-2.736 1.147l-2.198 2.7c-.435.492-.588.792-.588 1.01 0 .165.102.301.23.465l3.783 4.748c.335.415.947.709 1.636.79.153.165.153.71 0 .874 0 0-1.253-.027-1.968-.027-.666 0-1.304.027-1.586.055v-.382c0-.355-.025-.655-.383-1.091l-2.836-3.767c-.384-.546-1.024-.683-1.586-.683v2.539c0 2.265.23 2.346 1.457 2.483.153.164.153.737 0 .9-1.099-.026-1.508-.054-2.453-.054-1.126 0-1.79.027-2.864.055-.152-.164-.152-.737 0-.901 1.56-.137 1.84-.218 1.84-2.483V8.923c0-2.265-.28-2.346-1.84-2.482Zm18.018 8.378c0 2.265.281 2.375 1.84 2.483.154.164.154.737 0 .9-1.099-.026-1.738-.054-2.837-.054-1.125 0-1.79.027-2.863.055-.153-.164-.153-.737 0-.901 1.559-.137 1.84-.218 1.84-2.483V8.924c0-2.265-.281-2.374-1.84-2.483-.153-.164-.153-.737 0-.9 1.099.027 1.738.054 2.838.054 1.124 0 1.79-.026 2.863-.055.154.164.154.737 0 .901-1.559.137-1.84.218-1.84 2.483v5.895h-.001Zm10.044 2.483c.153.164.153.737 0 .9-1.1-.026-1.739-.054-2.838-.054-1.124 0-1.79.027-2.863.055-.154-.164-.154-.737 0-.901 1.559-.137 1.84-.218 1.84-2.483V8.924c0-2.265-.281-2.374-1.84-2.483-.154-.164-.154-.737 0-.9 1.099.027 1.738.054 2.837.054.69 0 1.764-.055 2.71-.055 3.629 0 4.397 1.911 4.397 3.33 0 1.637-1.048 4.257-4.475 4.257-.639 0-1.15-.109-1.61-.328v2.02c0 2.265.282 2.374 1.842 2.483Zm-1.841-5.376c.51.218 1.15.3 1.66.3 1.536 0 2.2-1.062 2.2-3.029 0-1.914-.82-2.757-2.326-2.757-1.228 0-1.534.355-1.534 1.228v4.258ZM71.926.006c-.28.035-.76.18-1.2.631l-.063.284 2.938 2.97c.384.409.578.537.758.537a.356.356 0 0 0 .347-.347c0-.306-.077-.44-.284-.79L72.495.068a1.484 1.484 0 0 0-.38-.063c-.04 0-.095-.012-.189 0Zm5.245 5.496c-.358.054-.531.095-1.043.095h-5.276s-1.743-.036-2.843-.063c-.153.164-.153.752 0 .916 1.56.11 1.832.2 1.832 2.464v5.908c0 2.265-.272 2.328-1.832 2.464-.153.164-.153.753 0 .917 1.073-.028 2.843-.064 2.843-.064h3.95c1.021 0 2.716.064 2.716.064.306-1.12.58-2.613.758-3.76-.23-.135-.446-.208-.726-.126-.409 1.61-1.14 2.97-2.749 2.97h-2.117c-.46 0-.82-.682-.82-1.201V12.01h1.452c1.815 0 1.718.507 1.77 1.517.128.136.599.136.726 0-.026-.792-.063-1.226-.063-1.99 0-.765.038-1.245.063-1.928-.127-.136-.598-.136-.726 0-.052 1.229.02 1.49-1.77 1.517h-1.453V7.272c0-.464.336-.79.821-.79h1.96c1.584 0 1.909.91 2.369 2.464.255.027.49-.018.695-.126-.102-.928-.392-3.064-.443-3.254 0-.056-.043-.064-.094-.064Zm9.566.038c4.268 0 6.364 2.84 6.364 6.467 0 4.776-3.17 6.195-6.006 6.195-2.045 0-2.966-.055-3.731-.055-1.126 0-1.79.027-2.863.055-.154-.164-.154-.737 0-.901 1.56-.137 1.84-.218 1.84-2.483V8.923c0-2.265-.28-2.374-1.84-2.483-.154-.164-.154-.737 0-.9 1.098.027 1.737.054 2.837.054.486 0 2.734-.054 3.4-.054Zm-.257 11.762c2.812 0 4.398-1.01 4.398-4.83 0-2.838-.588-6.03-4.883-6.03-.997 0-1.635.163-1.635.845v8.787c0 .764.178 1.228 2.12 1.228Zm12.523-2.483c0 2.265.28 2.375 1.84 2.483.153.164.153.737 0 .9-1.1-.026-1.739-.054-2.838-.054-1.125 0-1.789.027-2.863.055-.152-.164-.152-.737 0-.901 1.56-.137 1.84-.218 1.84-2.483V8.924c0-2.265-.28-2.374-1.84-2.483-.152-.164-.152-.737 0-.9 1.1.027 1.738.054 2.838.054 1.124 0 1.79-.026 2.863-.055.153.164.153.737 0 .901-1.56.137-1.84.218-1.84 2.483v5.895Zm9.097 2.483c.154.164.154.737 0 .9-.946-.026-2.223-.054-3.272-.054-.995 0-1.328.027-2.274.055-.153-.164-.153-.737 0-.901 1.112-.082 1.881-.25 2.556-1.937l5.682-14.2c.291-.731.484-.974.862-.974.358 0 .504.292.69.82l5.24 14.79c.474 1.406 1.31 1.406 2.3 1.5.154.165.154.738 0 .902-.946-.027-1.865-.055-2.914-.055-.996 0-2.402.027-3.348.055-.153-.164-.153-.737 0-.901 1.217-.093 2.271.006 1.891-1.118l-1.559-4.612h-5.317c-.613 0-.767.108-.895.464l-1.406 3.956c-.398 1.12.803 1.238 1.764 1.31Zm5.445-6.877-2.479-7.286h-.051l-2.561 6.923c-.107.296.077.363.644.363h4.447Z"/></svg>