<svg xmlns="http://www.w3.org/2000/svg" width="120" height="11"><path fill="#000" fill-rule="nonzero" d="M79.128 0c-.27 0-.503.1-.725.284-.221.174-.41.41-.567.693a3.885 3.885 0 0 0-.378.882c-.076.3-.095.593-.095.851 0 .657.025 1.149.095 1.481.076.333.22.702.441 1.135-.21 0-.41.064-.599.189-.189.116-.358.296-.504.504a2.653 2.653 0 0 0-.346.756 3.201 3.201 0 0 0-.126.914c0 .424.069.785.22 1.135.151.34.356.62.599.819.248.191.507.283.788.283.232 0 .43-.036.598-.094a.984.984 0 0 0 .41-.284c.119-.141.224-.326.284-.567.06-.25.094-.556.094-.914 0-.457-.06-1.028-.157-1.701a.517.517 0 0 1 .126-.284c.065-.067.119-.095.189-.095a.34.34 0 0 1 .283.126c.087.1.126.244.126.41-.021.291-.031.555-.031.788 0 .45.05.906.126 1.355.076.45.2.803.378 1.103.184.3.402.473.693.473.292 0 .596-.094.883-.253.292-.166.535-.423.725-.756.189-.332.283-.732.283-1.197 0-.391-.07-.752-.189-1.135-.119-.382-.288-.712-.504-.945a.936.936 0 0 0-.725-.347c-.119.058-.208.095-.284.095-.102 0-.177-.073-.22-.19-.043-.124-.063-.324-.063-.598 0-.075.04-.337.094-.82.054-.482.063-.945.063-1.386 0-.549-.063-1.05-.22-1.45A1.899 1.899 0 0 0 80.2.348 1.8 1.8 0 0 0 79.128 0Zm-.031 1.324c.362 0 .595.178.724.535.13.358.221.767.221 1.166 0 .308-.03.664-.063 1.072-.032.407-.083.678-.126.819a.778.778 0 0 1-.284.378.79.79 0 0 1-.504.19c-.13 0-.243-.022-.378-.064a.482.482 0 0 1-.284-.22c-.113-.2-.198-.492-.252-.883a9.954 9.954 0 0 1-.094-1.26c0-.566.11-1.01.315-1.292.21-.291.454-.441.725-.441Zm-15.063.472a.782.782 0 0 0-.379.095c-.108.058-.189.146-.189.22v3.12c0 .05.026.106.063.19.038.074.083.125.126.125h1.45c.114 0 .158.086.158.252v1.04c0 .05-.026.108-.063.158-.033.041-.057.063-.095.063h-1.418c-.076 0-.161.058-.22.157a.728.728 0 0 0-.064.347v2.3c0 .067.034.146.158.221.13.067.274.095.41.095.14 0 .274-.02.41-.095.134-.075.22-.177.22-.252V8.288c0-.117.02-.23.063-.347.049-.125.093-.189.157-.189h1.355c.055 0 .104-.058.158-.157a.64.64 0 0 0 .063-.316V5.074c0-.075.001-.14-.031-.19-.027-.058-.083-.094-.127-.094h-1.48c-.05 0-.083-.036-.127-.095a.35.35 0 0 1-.063-.189V2.111c0-.074-.075-.162-.189-.22a.677.677 0 0 0-.346-.095Zm9.39 0a.782.782 0 0 0-.378.095c-.108.058-.157.146-.157.22v3.12c0 .05.025.106.063.19.038.074.082.125.126.125h1.418c.113 0 .157.086.157.252v1.04c0 .05.007.108-.031.158a.174.174 0 0 1-.126.063h-1.418c-.076 0-.13.058-.19.157a.744.744 0 0 0-.094.347v2.3c0 .067.065.146.19.221.129.067.274.095.409.095.14 0 .274-.02.41-.095.135-.075.189-.177.189-.252V8.288c0-.117.02-.23.063-.347.048-.125.124-.189.189-.189h1.323c.054 0 .104-.058.158-.157a.676.676 0 0 0 .094-.316V5.074c0-.075-.03-.14-.063-.19-.027-.058-.051-.094-.094-.094H74.18c-.049 0-.115-.036-.158-.095a.35.35 0 0 1-.063-.189V2.111c0-.074-.044-.162-.157-.22a.798.798 0 0 0-.379-.095Zm-12.636.095c-.384 0-.721.143-1.04.41a3.16 3.16 0 0 0-.788.976c-.2.391-.34.799-.41 1.198-.059-.15-.144-.265-.252-.315a.743.743 0 0 0-.315-.063c-.14 0-.3.04-.472.157a1.404 1.404 0 0 0-.442.536c-.119.233-.157.482-.157.756 0 .524.083.96.283 1.292.206.333.455.504.725.504a.52.52 0 0 0 .284-.094.936.936 0 0 0 .283-.284c.049.416.139.83.252 1.23.114.39.263.731.442 1.04.183.299.381.541.63.724.254.175.543.252.85.252.866 0 1.537-.603 2.018-1.86.032-.082.063-.213.063-.346 0-.224-.04-.381-.095-.472-.049-.092-.158-.127-.315-.127-.222 0-.36.02-.441.095-.076.067-.156.246-.22.504a2.86 2.86 0 0 1-.41.851c-.184.275-.352.41-.536.41a.632.632 0 0 1-.441-.19c-.114-.116-.203-.279-.284-.504a7.067 7.067 0 0 1-.22-.882 5.336 5.336 0 0 1-.095-1.26h1.89c.06 0 .1-.043.127-.126a.944.944 0 0 0 .063-.316.902.902 0 0 0-.063-.315c-.033-.083-.078-.126-.126-.126l-1.923.032c.006-.366.025-.802.095-1.292.076-.516.22-.915.41-1.198.189-.29.407-.44.661-.44.2 0 .375.143.505.409.135.258.254.592.346 1.008.043.2.062.335.095.41a.479.479 0 0 0 .157.157c.054.025.124.009.22 0 .141 0 .25-.064.347-.189a.892.892 0 0 0 .19-.472 1.286 1.286 0 0 0-.032-.347 2.806 2.806 0 0 0-.378-.82 2.142 2.142 0 0 0-.63-.661 1.482 1.482 0 0 0-.851-.252Zm-34.16.063c-.248 0-.487.109-.725.283a1.748 1.748 0 0 0-.567.694c-.14.29-.189.619-.189.977 0 .432.099.73.315.913.222.183.484.284.82.284.016 0 .166-.036.41-.094.248-.059.397-.095.44-.095.114 0 .183.064.22.189.039.116.064.222.064.347-.032.174-.162.283-.378.283l-2.962-.063c-.287 0-.476.058-.568.158-.086.1-.126.276-.126.567 0 .54.06.955.19 1.23.135.265.308.409.535.409.065 0 .166-.06.252-.126a.893.893 0 0 0 .22-.252c.066-.117.105-.246.127-.379.027-.141.026-.261.031-.378.006-.124.027-.233.032-.283.027-.192.061-.319.126-.41.07-.091.156-.126.22-.126l1.986-.063c.238 0 .346.087.346.22a.777.777 0 0 1-.063.347c-.048.1-.13.15-.189.158-.119 0-.277.015-.504.031-.227.017-.466.03-.693.063-.551.083-.82.562-.82 1.418 0 .35.086.678.221.977.14.3.324.534.567.725.249.183.502.284.788.284.433 0 .8-.245 1.103-.694.303-.457.521-.998.662-1.638.146-.65.22-1.248.22-1.797 0-.407-.028-.849-.126-1.323a6.543 6.543 0 0 0-.41-1.355 3.352 3.352 0 0 0-.692-1.072c-.265-.274-.553-.41-.883-.41Zm-25.241.031c-.168 0-.343.066-.505.158a1.407 1.407 0 0 0-.44.378c-.13.175-.209.397-.284.63a2.345 2.345 0 0 0-.126.725c0 .241.049.475.157.725.114.25.278.472.473.63.194.15.392.22.63.22.108 0 .228-.02.347-.062a1.43 1.43 0 0 0 .346-.158c.038-.017.062-.031.095-.031.08 0 .146.079.189.22.049.142.063.29.063.473 0 .233-.009.462-.063.662-.054.19-.129.283-.22.283a.266.266 0 0 1-.095-.031 2.55 2.55 0 0 0-.41-.158 1.282 1.282 0 0 0-.378-.063c-.362 0-.64.163-.85.504C.103 7.423 0 7.886 0 8.477c0 .574.14.971.41 1.229.275.25.583.378.945.378.34 0 .65-.09.914-.315.265-.233.489-.54.662-.914.178-.383.291-.818.378-1.292.092-.474.157-.952.157-1.418 0-.923-.08-1.693-.22-2.3-.14-.616-.354-1.08-.662-1.387-.303-.316-.706-.473-1.197-.473Zm4.726 0c-.383 0-.69.043-.945.126-.254.084-.473.21-.63.41-.157.2-.245.478-.315.82a6.697 6.697 0 0 0-.126 1.291c0 .408.074.815.22 1.198.152.382.371.68.63.914.265.233.554.346.851.346.26 0 .483-.107.694-.315.216-.208.385-.478.504-.82.119-.34.189-.696.189-1.07 0-.192-.03-.37-.063-.536-.157-.491-.22-.84-.22-1.04 0-.183.059-.312.188-.378.13-.067.349-.095.662-.095.314 0 .527.051.662.126.135.067.22.187.22.378 0 .117-.02.244-.063.41-.037.158-.113.366-.189.599a3.257 3.257 0 0 0-.031.535c0 .375.07.73.189 1.072.119.34.288.611.504.82.216.207.434.314.693.314.227 0 .462-.056.662-.189a1.9 1.9 0 0 0 .536-.567c.157-.241.26-.497.347-.788.086-.3.126-.606.126-.914 0-.524-.025-.959-.095-1.292-.07-.34-.19-.62-.347-.819-.156-.2-.35-.326-.598-.41-.249-.083-.588-.126-.977-.126H6.113Zm7.658 0c-.27 0-.545.086-.788.252a1.761 1.761 0 0 0-.567.694c-.14.282-.19.58-.19.914 0 .39.015.748.064 1.04.054.29.123.525.22.724.103.2.238.373.379.473.14.091.3.126.472.126.054 0 .153-.03.315-.063.179.067.284.26.284.567 0 .341-.05.618-.126.851 0 .782.15 1.402.441 1.86.297.448.72.693 1.292.693.184 0 .384-.065.567-.19.184-.133.333-.319.473-.535.14-.216.266-.459.347-.725.086-.266.126-.513.126-.788.01-.183 0-.335 0-.41 0-.166-.005-.365-.032-.598 0-.017.011-.03 0-.063-.005-.042-.031-.093-.031-.126 0-.133.025-.254.063-.378.038-.125.108-.204.189-.221.194.091.36.158.473.157.2 0 .347-.094.504-.252a1.57 1.57 0 0 0 .378-.63 2.91 2.91 0 0 0 .126-.882c0-.557-.044-1.044-.158-1.418-.113-.375-.272-.645-.472-.82a1.06 1.06 0 0 0-.725-.252c-.443 0-.777.191-.977.599-.2.4-.284.92-.284 1.544 0 .682.12 1.566.379 2.647.005.067 0 .131 0 .19v.22c0 .574-.034 1.016-.158 1.323-.119.308-.338.442-.63.442a.737.737 0 0 1-.63-.316c-.141-.207-.19-.498-.19-.913 0-.292.04-.757.158-1.355.081-.64.126-1.218.126-1.734 0-.39-.009-.723-.063-1.04a3.067 3.067 0 0 0-.252-.85c-.114-.242-.257-.443-.441-.568-.184-.133-.403-.189-.662-.189Zm6.46 0a.696.696 0 0 0-.378.095c-.087.05-.126.136-.126.252v7.31c0 .184.046.312.094.379.05.067.117.095.253.095h1.418c.302 0 .545-.071.756-.221.216-.158.39-.407.504-.756.114-.35.158-.821.158-1.387V7.69c0-.374-.015-.694-.063-.977a2.707 2.707 0 0 0-.22-.725 1.087 1.087 0 0 0-.348-.472.681.681 0 0 0-.472-.158h-.694c-.173 0-.283-.1-.283-.283v-2.71c0-.117-.039-.226-.158-.284a1.02 1.02 0 0 0-.44-.095Zm11.502 0c-.26.009-.491.073-.756.19a2.641 2.641 0 0 0-.788.535c-.243.233-.421.527-.567.85-.14.325-.22.673-.22 1.072 0 .291.019.564.062.788.044.225.139.44.252.63.114.192.268.361.473.536.249.125.378.326.378.567v.126l-1.26 1.986a.709.709 0 0 0-.095.346c0 .133.05.247.126.347a.35.35 0 0 0 .284.126h4.16c.205 0 .315-.07.315-.252 0-.141-.066-.321-.158-.504L32.836 7.31c0-.017.006-.023 0-.032 0-.116.034-.26.126-.41a.8.8 0 0 1 .347-.314c.205-.183.364-.347.473-.505a1.95 1.95 0 0 0 .252-.567c.054-.208.063-.442.063-.725a3.161 3.161 0 0 0-.347-1.45 2.308 2.308 0 0 0-.85-.945c-.358-.224-.756-.37-1.167-.378Zm4.98 0c-.385 0-.692.043-.946.126-.254.084-.474.21-.63.41-.157.2-.277.478-.347.82-.065.332-.095.767-.095 1.291 0 .408.075.815.221 1.198.151.382.37.68.63.914.265.233.522.346.82.346.259 0 .514-.107.724-.315.217-.208.386-.478.505-.82.118-.34.157-.696.157-1.07 0-.192.001-.37-.031-.536-.157-.491-.253-.84-.253-1.04 0-.183.091-.312.221-.378.13-.067.348-.095.662-.095.313 0 .526.051.662.126.135.067.22.187.22.378 0 .117-.051.244-.094.41-.038.158-.082.366-.158.599a3.257 3.257 0 0 0-.031.535c0 .375.038.73.157 1.072.119.34.288.611.504.82.217.207.466.314.725.314.227 0 .43-.056.63-.189a1.9 1.9 0 0 0 .536-.567c.157-.241.292-.497.378-.788.087-.3.126-.606.126-.914 0-.524-.024-.959-.094-1.292-.07-.34-.19-.62-.347-.819-.157-.2-.35-.326-.599-.41-.248-.083-.587-.126-.977-.126h-3.277Zm8.35 0c-.146 0-.27.022-.378.063-.103.042-.158.1-.158.158v3.151c0 .308-.1.441-.283.441H42.92a.19.19 0 0 0-.157.095.486.486 0 0 0-.063.252v2.363c0 .042.049.085.157.126.114.034.264.063.41.063.157 0 .29-.021.41-.063.118-.041.189-.107.189-.157V6.523c0-.091.024-.179.094-.22a.42.42 0 0 1 .252-.064.47.47 0 0 1 .22.064c.06.033.095.067.095.126v3.403c0 .091.07.14.19.189.118.05.242.095.378.095.14 0 .264-.045.378-.095.119-.05.157-.098.157-.19V6.43c0-.059.03-.093.095-.126a.606.606 0 0 1 .252-.064c.119 0 .229.014.315.064.086.041.126.129.126.22v1.954c0 .05.05.116.158.157.108.042.232.063.378.063.135 0 .27-.03.378-.063.108-.041.157-.084.157-.126V6.24c0-.133-.03-.217-.094-.283a.34.34 0 0 0-.252-.126h-1.166c-.227 0-.347-.165-.347-.473v-3.12c0-.066-.044-.147-.157-.189a1.015 1.015 0 0 0-.41-.063Zm9.233 0c-.308 0-.6.116-.914.315-.313.2-.577.47-.787.82-.206.35-.316.742-.316 1.166 0 .233.134.346.41.346.043 0 .198-.021.441-.063.184-.033.308-.082.378-.157.076-.075.095-.189.095-.347 0-.316.075-.601.22-.85.152-.259.352-.379.568-.379.184 0 .343.084.472.284.136.2.225.427.284.693.06.258.095.485.095.693-.098.308-.243.473-.41.473-.092 0-.231-.058-.41-.158a.544.544 0 0 0-.378.158.428.428 0 0 0-.157.347c0 .033-.011.076 0 .126a.283.283 0 0 0 .126.189.63.63 0 0 0 .283.063.51.51 0 0 0 .315-.126.41.41 0 0 1 .252-.063c.114 0 .193.05.253.157.059.1.094.227.094.41 0 .324-.103.504-.347.504-.07 0-.144-.044-.22-.094-.076-.034-.18-.032-.315-.032a.566.566 0 0 0-.315.095c-.087.058-.126.112-.126.22 0 .158.045.304.126.378.08.075.164.095.283.095.152 0 .3-.058.473-.158l.031.032c.076 0 .135.043.19.126.054.075.063.174.063.315 0 .083.005.14 0 .19-.103.964-.351 1.449-.757 1.449-.2 0-.384-.136-.535-.41a1.81 1.81 0 0 1-.221-.882c.01-.084.031-.171.031-.22 0-.3-.22-.449-.63-.474a1.39 1.39 0 0 0-.346-.063c-.244 0-.379.114-.379.347 0 .416.095.83.284 1.229.195.4.469.719.788.977.319.25.642.378.977.378.34 0 .643-.107.914-.315.27-.216.483-.485.661-.85.184-.375.35-.819.442-1.293.091-.474.126-.957.126-1.481a8.73 8.73 0 0 0-.126-1.576 5.728 5.728 0 0 0-.41-1.323c-.173-.383-.392-.69-.662-.914a1.4 1.4 0 0 0-.914-.347Zm14.307 0c-.287 0-.535.086-.756.252a1.266 1.266 0 0 0-.442.536c-.14.358-.22.628-.22.82 0 .157.055.349.157.598.12.142.19.3.19.441 0 .15-.126.262-.347.379-.173.24-.252.603-.252 1.102 0 .167.01.347.031.505.027.15.057.248.095.315.108.108.208.223.283.315.076.083.12.146.158.22a.489.489 0 0 1 .063.221c0 .125-.08.348-.252.63-.054.217-.095.388-.095.505 0 .44.2.76.568.976.367.217.744.316 1.166.316.389 0 .722-.12 1.008-.379.286-.266.441-.615.441-1.04 0-.2-.03-.414-.094-.63a.432.432 0 0 1-.126-.315c0-.066.004-.14.031-.189a.3.3 0 0 1 .095-.126.282.282 0 0 1 .157-.063c.065 0 .124.045.19.094.07.042.119.098.157.19a.736.736 0 0 1 .063.315 131.105 131.105 0 0 0 0 .126c0 .15.02.268.063.41.14.116.316.188.473.188.33 0 .537-.242.661-.724a1.37 1.37 0 0 0-.22-.788c-.157-.233-.357-.347-.567-.347-.406 0-.6-.122-.6-.346.006-.025 0-.047 0-.063v-.063a.919.919 0 0 0 .095-.284c.033-.141.063-.277.063-.41 0-.2-.06-.4-.126-.567a.576.576 0 0 0-.283-.347c-.211-.091-.315-.19-.315-.315 0-.066.024-.182.094-.315.124-.175.19-.41.19-.693v-.032c0-.208-.04-.4-.127-.567a1.214 1.214 0 0 0-.378-.441 1.414 1.414 0 0 0-.567-.284 2.516 2.516 0 0 0-.725-.126Zm16.26 0c-.167 0-.31.066-.472.158a1.407 1.407 0 0 0-.441.378c-.13.175-.24.397-.316.63a2.322 2.322 0 0 0-.094.725c0 .241.05.475.157.725.114.25.247.472.442.63a1.07 1.07 0 0 0 1.008.158c.124-.042.218-.091.315-.158a.381.381 0 0 1 .126-.031c.081 0 .146.079.19.22.048.142.062.29.062.473 0 .233-.04.462-.094.662-.054.19-.129.283-.22.283-.022 0-.031-.015-.064-.031a2.55 2.55 0 0 0-.41-.158 1.282 1.282 0 0 0-.378-.063c-.362 0-.671.163-.882.504-.21.333-.315.796-.315 1.387 0 .574.14.971.41 1.229.275.25.614.378.976.378.34 0 .618-.09.883-.315.265-.233.489-.54.662-.914a5.33 5.33 0 0 0 .41-1.292c.091-.474.125-.952.125-1.418 0-.923-.048-1.693-.189-2.3-.14-.616-.385-1.08-.693-1.387-.303-.316-.706-.473-1.198-.473Zm3.75 0c-.102 0-.208.073-.283.19-.076.116-.095.272-.095.472v2.269c0 .1-.02.186-.063.252a.221.221 0 0 1-.189.095h-.378c-.06 0-.12.056-.158.189a1.67 1.67 0 0 0-.063.44c0 .167.026.317.063.442.038.116.099.158.158.158h.41c.07 0 .12.05.157.126a.643.643 0 0 1 .063.283v2.805c0 .108.039.2.158.283a.77.77 0 0 0 .41.127c.15 0 .26-.028.346-.095a.45.45 0 0 0 .158-.315V3.309c0-.133.028-.232.126-.315a.497.497 0 0 1 .283-.126c.081 0 .135.069.19.252.054.174.094.433.094.725v.157c0 .391.034.792.126 1.166.097.374.242.664.41.914.167.241.33.378.535.378a.67.67 0 0 0 .473-.22c.146-.159.27-.373.378-.63a4.48 4.48 0 0 0 .252-.883c.065-.333.095-.69.095-1.04.005-.058 0-.123 0-.19.005-.066 0-.092 0-.125 0-.5-.07-.872-.22-1.072-.147-.208-.35-.315-.63-.315h-2.806Zm14.748 0c-.34 0-.633.1-.882.284a1.64 1.64 0 0 0-.567.725c-.13.307-.19.642-.19 1.008-.016.141-.03.219-.03.252 0 .167.034.43.094.788a.982.982 0 0 1 .031.284c0 .307-.244.44-.725.44-.183 0-.347.131-.504.347a2.545 2.545 0 0 0-.378.788 3.461 3.461 0 0 0-.126.914c0 .4.076.777.19 1.135.118.349.266.642.472.85.21.208.46.316.725.316.286 0 .524-.08.724-.221.206-.15.344-.362.442-.662.102-.3.157-.685.157-1.134 0-.266-.025-.55-.063-.883-.038-.332-.076-.718-.157-1.134-.082-.416-.197-.843-.316-1.292 0-.025.006-.053 0-.095 0-.041.006-.092 0-.126 0-.041-.026-.084-.031-.126 0-.274.045-.531.126-.756.081-.233.2-.411.347-.536a.767.767 0 0 1 .504-.189c.243 0 .406.135.535.41.13.274.221.669.221 1.134 0 .25-.025.505-.063.788-.038.275-.087.56-.158.851-.091.566-.157 1.065-.157 1.481 0 .374.035.692.094 1.008.065.308.154.595.284.82.13.216.294.388.473.504.184.116.403.158.63.158.292 0 .53-.035.725-.127.2-.091.354-.25.473-.44.124-.192.198-.411.252-.694.059-.291.094-.647.094-1.071 0-.375-.024-.688-.094-.946-.07-.266-.15-.504-.252-.662a1.147 1.147 0 0 0-.347-.346.558.558 0 0 0-.315-.095c-.152 0-.26-.006-.347-.031a.443.443 0 0 1-.22-.19c-.05-.1-.064-.25-.064-.44 0-.15.026-.393.064-.725v-.032c0-.29-.05-.568-.127-.85-.07-.283-.148-.54-.283-.757a1.5 1.5 0 0 0-.536-.504 1.35 1.35 0 0 0-.725-.22Zm5.2 0c-.26.009-.524.088-.756.22-.227.134-.422.342-.568.6-.14.25-.189.533-.189.882 0 .291.034.591.126.882.092.291.227.526.379.725.15.2.31.337.472.378.222 0 .36-.015.441-.031a.639.639 0 0 0 .284-.158.316.316 0 0 1 .158-.031c.059 0 .114.028.157.094a.367.367 0 0 1 .063.22c0 .059-.004.122-.031.221L107.71 9.36a1.054 1.054 0 0 0-.063.347c0 .125.05.24.126.315.076.067.16.095.252.095h3.908a.359.359 0 0 0 .252-.095c.076-.075.094-.19.094-.315a.98.98 0 0 0-.063-.347l-1.355-3.372c-.032-.1-.031-.162-.031-.22 0-.075.02-.154.063-.22.043-.067.098-.095.157-.095.065 0 .12.006.158.031.108.092.203.141.284.158.086.016.225.031.44.031.168-.041.322-.178.473-.378.152-.2.287-.434.379-.725.091-.29.126-.59.126-.882 0-.35-.075-.633-.22-.882-.141-.258-.304-.466-.537-.6a1.63 1.63 0 0 0-.756-.22h-2.836Zm-12.385.032c-.383 0-.571.028-.598.094l-2.49 7.122c-.01.033-.036.06-.063.126-.021.067-.047.131-.063.19-.016.058-.031.1-.031.125 0 .175.08.289.22.347.14.05.34.095.599.095h4.853c.265 0 .458-.045.599-.095.14-.058.22-.172.22-.347.006-.041 0-.084 0-.126 0-.041-.02-.084-.031-.126-.011-.05-.02-.084-.063-.126l-2.553-7.185c-.01-.033-.075-.046-.189-.063a2.816 2.816 0 0 0-.41-.031Zm20.578 0c-.384 0-.572.028-.599.094l-2.52 7.122c-.011.033-.037.06-.064.126-.021.067-.015.131-.031.19-.016.058-.032.1-.032.125 0 .175.08.289.221.347.14.05.34.095.599.095h4.821c.265 0 .49-.045.63-.095.14-.058.19-.172.19-.347.005-.041.031-.084.031-.126 0-.041-.02-.084-.032-.126-.01-.05-.02-.084-.063-.126l-2.552-7.185c-.01-.033-.076-.046-.19-.063a2.816 2.816 0 0 0-.409-.031Zm-6.964.63h.378c.249 0 .378.134.378.441 0 .142-.05.298-.126.473s-.144.333-.252.441a.222.222 0 0 1-.189.126c-.038 0-.057.002-.095-.031-.032-.034-.078-.07-.094-.095a1.298 1.298 0 0 1-.284-.41 1.266 1.266 0 0 1-.094-.504c0-.133.03-.232.094-.315.065-.091.16-.126.284-.126Zm-96.114.063c.051-.018.1 0 .158 0 .227 0 .38.142.473.441.092.3.157.65.157 1.04 0 .316-.07.578-.189.82-.113.24-.262.378-.472.378-.438 0-.662-.395-.662-1.135 0-.49.07-.86.189-1.134.089-.212.193-.357.346-.41Zm13.078.032c.14 0 .265.092.378.283.12.183.19.41.19.693 0 .258-.03.473-.095.63-.065.159-.175.221-.315.221-.211 0-.395-.107-.536-.315a1.137 1.137 0 0 1-.189-.63c0-.191.044-.4.158-.599.113-.2.252-.283.41-.283Zm42.101 0c.162 0 .306.092.441.283.14.192.19.39.19.63 0 .233-.065.45-.221.6a.699.699 0 0 1-.504.188c-.179 0-.324-.056-.41-.189-.087-.133-.126-.32-.126-.536 0-.316.055-.55.157-.724.103-.175.273-.252.473-.252Zm21.996.031c.173 0 .307.1.41.284.108.183.157.468.157.85v.064c0 .2-.02.414-.063.63a2.063 2.063 0 0 1-.189.536c-.07.15-.129.235-.22.252-.13 0-.26-.187-.379-.536a3.143 3.143 0 0 1-.189-1.008c0-.292.04-.517.126-.725.087-.216.217-.347.347-.347Zm17.615 0c.19.092.307.246.41.504.108.258.19.545.19.82 0 .2-.062.34-.127.472-.065.133-.154.22-.284.22-.194 0-.362-.113-.535-.346-.173-.24-.284-.506-.284-.756 0-.341.066-.583.158-.725.092-.141.256-.189.472-.189Zm3.026 0c.216 0 .38.048.472.19.092.14.158.383.158.724 0 .158-.045.33-.126.504a1.441 1.441 0 0 1-.315.441.576.576 0 0 1-.378.158.347.347 0 0 1-.316-.19 1.137 1.137 0 0 1-.094-.503c0-.267.05-.554.157-.82.114-.266.252-.42.442-.504ZM1.576 2.836c.254 0 .433.078.535.252.103.175.158.447.158.788 0 .258-.065.479-.19.662a.59.59 0 0 1-.503.283c-.195 0-.375-.1-.505-.283-.124-.191-.157-.412-.157-.662 0-.175.009-.346.063-.504.06-.158.15-.278.252-.378a.512.512 0 0 1 .347-.158Zm83.508 0c.254 0 .402.078.504.252.103.175.158.447.158.788 0 .258-.065.479-.19.662-.124.183-.261.283-.472.283-.195 0-.374-.1-.504-.283a1.19 1.19 0 0 1-.19-.662c0-.175.041-.346.095-.504.06-.158.118-.278.22-.378a.586.586 0 0 1 .379-.158ZM17.332 2.9c.103 0 .197.073.284.19.091.116.166.264.22.472.054.2.063.42.063.662 0 .39-.05.719-.157.977-.109.25-.273.378-.473.378-.2 0-.354-.15-.473-.441a2.432 2.432 0 0 1-.157-.914c0-.35.038-.656.157-.914.125-.258.32-.41.536-.41Zm14.433 0c.302 0 .53.076.724.284.195.208.355.495.442.82a3.8 3.8 0 0 1 .126 1.008 2.152 2.152 0 0 1-.158.756c-.092.233-.196.383-.315.441-.21-.067-.474-.345-.788-.82-.102.184-.206.363-.346.505-.136.133-.27.189-.379.189-.13-.008-.258-.15-.41-.441a1.946 1.946 0 0 1-.22-.883c0-.549.094-1.014.315-1.355.222-.349.57-.504 1.009-.504Zm-25.872.063c.189 0 .312.129.41.378.097.242.157.649.157 1.198 0 .224-.014.437-.063.662-.043.224-.129.409-.22.567-.092.158-.191.252-.316.252-.183 0-.333-.142-.44-.441a3.004 3.004 0 0 1-.158-.977c0-.483.054-.867.157-1.166.108-.3.273-.473.473-.473Zm3.75 0c.221 0 .386.135.473.41.091.274.12.697.126 1.229 0 .357-.055.677-.158.977-.097.29-.247.44-.441.44-.124 0-.223-.093-.315-.251a1.922 1.922 0 0 1-.22-.567 3.43 3.43 0 0 1-.064-.662c0-.55.06-.956.158-1.198.097-.25.246-.378.44-.378Zm26.849 0c.189 0 .312.129.41.378.097.242.157.649.157 1.198 0 .224-.015.437-.063.662-.043.224-.129.409-.22.567-.093.158-.192.252-.316.252-.184 0-.333-.142-.441-.441a3.004 3.004 0 0 1-.158-.977c0-.483.055-.867.158-1.166.108-.3.273-.473.473-.473Zm3.75 0c.221 0 .354.135.44.41.093.274.153.697.158 1.229 0 .357-.055.677-.157.977-.098.29-.247.44-.441.44-.125 0-.224-.093-.316-.251a1.922 1.922 0 0 1-.22-.567 3.43 3.43 0 0 1-.063-.662c0-.55.06-.956.157-1.198.098-.25.247-.378.442-.378Zm55.934.883c.076 0 .105.013.127.063l.535 1.575c.081.191.126.363.126.504 0 .125-.045.19-.126.19h-1.355c-.07 0-.094-.073-.094-.19 0-.1.025-.183.063-.283l.567-1.796c.027-.05.082-.063.157-.063Zm20.547 0c.075 0 .136.013.157.063l.504 1.575c.082.191.127.363.127.504 0 .125-.045.19-.127.19h-1.323c-.07 0-.095-.073-.095-.19 0-.1.026-.183.063-.283l.536-1.796c.027-.05.082-.063.158-.063ZM57.92 4.916c.146 0 .281.094.378.252.103.15.158.311.158.536 0 .216-.055.409-.158.567-.097.158-.232.252-.378.252-.14 0-.244-.094-.346-.252a1.029 1.029 0 0 1-.158-.567c0-.216.055-.378.158-.536.102-.158.206-.252.346-.252Zm10.872.095c.276 0 .5.092.662.283.167.191.252.47.252.82v.031c0 .316-.086.552-.22.693a.678.678 0 0 1-.505.22h-.031c-.692 0-1.04-.3-1.04-.882 0-.19.055-.36.126-.535.075-.175.185-.325.315-.441a.653.653 0 0 1 .441-.19Zm-47.49 1.04c.2 0 .344.049.442.157.102.1.188.28.22.504.038.216.032.521.032.946 0 .424-.02.767-.063 1.008-.043.233-.113.404-.22.504-.109.1-.247.126-.442.126-.162 0-.287-.02-.347-.094-.06-.083-.094-.204-.094-.378V6.649c0-.158.056-.293.126-.41a.388.388 0 0 1 .347-.189Zm56.818.125c.119 0 .203.086.252.253.054.166.063.438.063.787 0 .183.01.396 0 .662-.043.3-.083.544-.126.693a.508.508 0 0 1-.19.284.433.433 0 0 1-.283.095c-.243 0-.347-.307-.347-.914 0-.125-.01-.252 0-.41.022-.333.067-.611.127-.82.059-.216.14-.38.22-.472.087-.1.181-.158.284-.158Zm31.859 0c.038 0 .067.045.095.095a.394.394 0 0 1 .063.19l.63 2.079c.016.075 0 .146 0 .22 0 .117-.02.24-.063.316-.043.066-.098.094-.158.094h-1.166c-.048 0-.109-.028-.157-.094a.687.687 0 0 1-.063-.315c0-.059.01-.13.031-.221l.599-2.048c.043-.2.119-.316.189-.316Zm-28.803.032c.233 0 .402.171.505.504.108.325.157.687.157 1.103 0 .291-.04.578-.126.82-.08.24-.21.361-.378.378-.124.025-.245.011-.315-.063-.07-.084-.1-.234-.126-.442a7.453 7.453 0 0 1-.032-.945 10.16 10.16 0 0 1-.031-.63c0-.258.009-.46.063-.567.054-.109.16-.158.283-.158Zm20.42.252c.222 0 .37.092.473.284.108.183.158.51.158.977v.063c0 .349-.034.656-.126.913-.092.25-.23.379-.441.379-.152 0-.317-.167-.442-.442-.124-.274-.157-.587-.157-.945 0-.35.023-.618.126-.85.108-.242.258-.379.41-.379Zm3.499.032c.194 0 .337.084.472.283.135.192.22.477.22.851 0 .474-.07.86-.188 1.135-.12.274-.268.41-.473.41-.243 0-.428-.157-.536-.474-.108-.316-.157-.736-.157-1.26.005-.233.06-.462.189-.662.135-.2.305-.283.473-.283Zm-9.864.094h.284c.092.025.166.104.22.22.054.117.063.23.063.347v1.481c0 .092-.019.161-.094.253-.07.091-.165.157-.284.157h-.567c-.119 0-.204-.023-.252-.031a.137.137 0 0 1-.095-.063.352.352 0 0 1-.031-.158c0-.133.025-.26.063-.41l.346-1.166c.125-.415.228-.63.347-.63Zm1.576 0h.283c.135 0 .254.257.378.756l.347 1.072c.01.058.032.149.032.315 0 .2-.135.315-.379.315h-.535a.419.419 0 0 1-.315-.157.378.378 0 0 1-.095-.253V7.153c0-.108.04-.23.095-.346.054-.125.102-.196.189-.22Zm19.002 0h.252c.092.025.166.104.22.22.055.117.095.23.095.347v1.481c0 .092-.05.161-.126.253-.07.091-.165.157-.284.157h-.535c-.12 0-.204-.023-.252-.031a.137.137 0 0 1-.095-.063.352.352 0 0 1-.031-.158c0-.133.025-.26.063-.41l.315-1.166c.124-.415.259-.63.378-.63Zm1.575 0h.284c.135 0 .254.257.378.756l.347 1.072c.01.058.031.149.031.315 0 .2-.135.315-.378.315h-.567c-.124 0-.208-.066-.284-.157a.378.378 0 0 1-.094-.253V7.153a.81.81 0 0 1 .063-.346c.054-.125.134-.196.22-.22Zm-90.41.504c.266 0 .379.254.379.82 0 .208-.009.415-.063.598a1.21 1.21 0 0 1-.22.442c-.093.108-.192.157-.284.157-.152 0-.296-.135-.41-.41a2.054 2.054 0 0 1-.158-.756c0-.241.096-.464.253-.63a.655.655 0 0 1 .504-.22Zm-25.367.126h.032c.205 0 .344.071.41.221.07.15.094.397.094.788 0 .224-.034.439-.126.63-.087.191-.222.284-.378.284a.783.783 0 0 1-.568-.252c-.167-.183-.22-.396-.22-.662 0-.325.05-.582.157-.757.108-.174.302-.252.6-.252Zm83.509 0h.031c.205 0 .313.071.378.221.07.15.126.397.126.788 0 .224-.065.439-.157.63-.087.191-.19.284-.347.284a.783.783 0 0 1-.567-.252.932.932 0 0 1-.252-.662c0-.325.05-.582.157-.757.108-.174.333-.252.63-.252Zm-53.351.41c.156 0 .297.084.378.284l.504 1.103a.544.544 0 0 1 .032.189.25.25 0 0 1-.095.189.243.243 0 0 1-.158.063h-1.418c-.06 0-.109-.02-.157-.095a.498.498 0 0 1-.063-.252c0-.033.004-.12.031-.22l.568-.977c.102-.2.221-.284.378-.284Zm37.027.063c.243 0 .411.08.536.22.124.142.189.348.189.63 0 .267-.055.468-.158.568-.102.1-.27.126-.535.126a.635.635 0 0 1-.505-.252c-.14-.183-.22-.353-.22-.536 0-.266.06-.459.157-.567.098-.116.277-.189.536-.189Z"/></svg>