<svg xmlns="http://www.w3.org/2000/svg" viewBox="0 0 92 18"><path d="M4.303 5.026q.024 0 .036.043a.2.2 0 0 1 .012.057q0 .36-.177.59-.165.232-.39.375a1.6 1.6 0 0 1-.436.187 2 2 0 0 1-.306.044h-.118a.15.15 0 0 0-.106.043q-.036.029-.035.057 0 .03.023.13c.023.1.032.149.047.245q.024.129.047.288.024.143.024.245 0 .129-.035.288a2 2 0 0 1-.083.288 2 2 0 0 1-.118.302q.53.115.943.46.425.332.767.836t.637 1.123a29 29 0 0 1 .6 1.354.3.3 0 0 1 .024.115q0 .086-.082.086a.16.16 0 0 1-.142-.072 1 1 0 0 0-.07-.1q-.33-.562-.72-1.037a5 5 0 0 0-.825-.807 3.6 3.6 0 0 0-.908-.532 2.4 2.4 0 0 0-.967-.202 4 4 0 0 0-.813.072q-.33.058-.554.13a1.7 1.7 0 0 0-.33.144.5.5 0 0 1-.154.057q-.07 0-.082-.029A.2.2 0 0 1 0 9.72q0-.173.141-.446a2.4 2.4 0 0 1 .401-.519q.26-.259.602-.446a1.6 1.6 0 0 1 .754-.187h.189q.07 0 .141.014.083-.159.13-.302a1.5 1.5 0 0 0 .047-.418.7.7 0 0 0-.141-.418 1.3 1.3 0 0 0-.33-.345 1.6 1.6 0 0 0-.437-.245 1.3 1.3 0 0 0-.424-.086h-.46q-.4 0-.4-.101 0-.03.011-.072l.047-.087.566-1.036zm4.882 0q.023 0 .035.043a.2.2 0 0 1 .012.057q0 .23-.083.418a1.3 1.3 0 0 1-.188.317 1.1 1.1 0 0 1-.271.216q-.153.085-.295.13a3.3 3.3 0 0 1-.566.1 2 2 0 0 0-.472.101q-.141.044-.33.288a4.5 4.5 0 0 0-.354.547 8 8 0 0 0-.33.663 4.4 4.4 0 0 0-.224.604 2 2 0 0 0 .142-.072q.106-.071.247-.13.154-.071.33-.114.177-.058.354-.058.802 0 1.297.331.495.317.825.85.342.518.602 1.166t.577 1.296q.024.03.095.187.07.158.07.26 0 .1-.07.1a.22.22 0 0 1-.118-.028 25 25 0 0 0-.755-1.109 6.4 6.4 0 0 0-.707-.879 3.1 3.1 0 0 0-.837-.619 2.03 2.03 0 0 0-.99-.245q-.59 0-.932.058-.33.043-.519.115a1 1 0 0 0-.271.115.33.33 0 0 1-.153.044q-.036 0-.036-.044.142-.432.26-.72.13-.288.2-.36.177-.633.33-1.21.165-.575.495-1.122h-.353q-.4 0-.401-.101 0-.03.012-.072l.047-.087.566-1.036zm2.853 0q.07 0 .07.1 0 .173-.082.447a4.3 4.3 0 0 1-.448.993q-.117.188-.2.188a1.3 1.3 0 0 0-.236-.576q-.189-.26-.425-.288l.342-.864zm4.138 0q.024 0 .036.043a.2.2 0 0 1 .012.057q0 .36-.19.59-.187.217-.435.346a2.1 2.1 0 0 1-.484.188 13 13 0 0 1-.33.057 1.3 1.3 0 0 0-.637.23 1.9 1.9 0 0 0-.436.433q-.164.244-.26.49a8 8 0 0 0-.129.417q.095-.058.236-.101a1 1 0 0 1 .248-.043q.518 0 .884.057.366.044.625.144.27.101.46.26.188.144.341.33.33.433.555 1.095.236.648.377 1.469.152.807.236 1.728.094.907.153 1.858l.177 3.139a.2.2 0 0 1-.036.115q-.035.072-.07.072-.06 0-.13-.058a.23.23 0 0 1-.07-.13l-.319-3.052a25 25 0 0 0-.448-2.822q-.283-1.282-.696-1.973a1.84 1.84 0 0 0-.754-.72Q14.632 9 13.936 9q-.141 0-.342.043a4 4 0 0 0-.412.115l-.425.116a4 4 0 0 1-.353.086q-.06 0-.06-.072a.8.8 0 0 1 .048-.23q.058-.158.13-.332a4 4 0 0 1 .188-.345q.106-.187.212-.317.048-.173.095-.389l.118-.432.13-.432a4 4 0 0 1 .14-.374q.001-.087-.094-.115H13.1q-.4 0-.4-.101 0-.03.011-.072l.047-.087.566-1.036h2.853m6.638 0q.118 0 .118.144 0 .1-.035.13a.2.2 0 0 0-.035.086q-.06.216-.13.446t-.13.49q-.059.288-.106.604a6 6 0 0 0-.035.677v3.802q.035.129.035.288a.36.36 0 0 1-.047.173.15.15 0 0 1-.13.072q-.094 0-.212-.159a13 13 0 0 0-.424-.561q-.284-.375-.708-.75a4.1 4.1 0 0 0-.943-.662 2.3 2.3 0 0 0-1.132-.288 2.4 2.4 0 0 0-1.014.202l-.236.086q.153-.604.236-.864a1.1 1.1 0 0 1 .26-.417q0-.634.07-1.138.071-.518.283-.893a.2.2 0 0 0 .036-.1q-.036-.072-.107-.072h-.141q-.39 0-.39-.101 0-.03.013-.072l.047-.087.566-1.036zm-.907 3.312-.083-.605a8 8 0 0 0-.118-.663 3 3 0 0 0-.141-.532q-.072-.216-.154-.216h-1.839a3 3 0 0 0-.33.33 3 3 0 0 0-.354.476q-.153.274-.271.59-.106.303-.106.62.095-.044.165-.072a.5.5 0 0 1 .224-.044q.708 0 1.155.245.46.245.755.59.307.347.495.72.201.375.366.634l.436.677v-.36q0-.533-.07-1.166a47 47 0 0 0-.13-1.224m5.246-3.312q.024 0 .036.043a.14.14 0 0 1 .011.057q0 .23-.082.418-.07.172-.189.317a1.1 1.1 0 0 1-.27.216q-.154.085-.296.13a3.3 3.3 0 0 1-.566.1q-.211.015-.471.101-.142.044-.33.288a4.5 4.5 0 0 0-.354.547 8 8 0 0 0-.33.663 4.4 4.4 0 0 0-.224.604q.034-.014.141-.072.107-.071.248-.13.153-.071.33-.114.177-.058.354-.058.801 0 1.297.331.495.317.825.85.342.518.601 1.166.26.648.578 1.296.024.03.094.187a.7.7 0 0 1 .071.26q0 .1-.07.1a.22.22 0 0 1-.119-.028 25 25 0 0 0-.755-1.109 6.4 6.4 0 0 0-.707-.879 3.1 3.1 0 0 0-.837-.619 2.03 2.03 0 0 0-.99-.245q-.59 0-.932.058-.33.043-.518.115a1 1 0 0 0-.271.115.33.33 0 0 1-.154.044q-.035 0-.035-.044.14-.432.26-.72.13-.288.2-.36.177-.633.33-1.21.165-.575.495-1.122h-.354q-.4 0-.4-.101 0-.03.011-.072l.047-.087.566-1.036h2.76m1.91 0q.07 0 .07.1 0 .173-.082.447a4.3 4.3 0 0 1-.448.993q-.12.188-.2.188a1.3 1.3 0 0 0-.237-.576q-.188-.26-.424-.288l.342-.864zm6.426 0q.13 0 .13.1 0 .072-.07.39-.072.316-.095.806a35 35 0 0 0-.06 1.281l-.046 1.613-.048 1.771q-.011.893-.035 1.7l-.023 1.44v3.513a.5.5 0 0 1-.048.245q-.035.1-.094.1-.047 0-.13-.1a.34.34 0 0 1-.082-.245v-2.275q0-.403-.036-1.08a67 67 0 0 0-.07-1.527 82 82 0 0 0-.095-1.756 95 95 0 0 0-.106-1.786 66 66 0 0 0-.106-1.627 167 167 0 0 0-.082-1.267H33.12q-.129 0-.153.144a4 4 0 0 0-.012.288l.13 4.046a.3.3 0 0 1 .059.144.4.4 0 0 1 .023.13q0 .172-.141.172a.28.28 0 0 1-.189-.086 3 3 0 0 1-.165-.187 3.4 3.4 0 0 0-.554-.533 4 4 0 0 0-.672-.446 3.5 3.5 0 0 0-.684-.288 2 2 0 0 0-.625-.116q-.235 0-.448.101a4 4 0 0 1-.424.144q.047-.389.141-.72a3 3 0 0 1 .224-.533 3.3 3.3 0 0 1 .118-.619 7 7 0 0 1 .212-.633 6 6 0 0 1 .248-.576q.13-.274.224-.432h-.26q-.4 0-.4-.101 0-.03.012-.072l.047-.087.566-1.036zm-3.926 1.296q-.189 0-.436.201a2.5 2.5 0 0 0-.484.504 4 4 0 0 0-.4.677 2.5 2.5 0 0 0-.225.72.5.5 0 0 1 .272-.086q.188-.03.27-.03.307 0 .555.13.247.116.448.317.2.188.365.447.165.244.319.49l.483.762v-.417a6 6 0 0 0-.047-.677q-.036-.39-.106-.806a15 15 0 0 0-.165-.85 8.6 8.6 0 0 0-.354-1.18q-.07-.202-.2-.202zm3.961-1.584q-.365-.462-.754-.908-.39-.46-.731-.921a2.8 2.8 0 0 0-.46-.49 4 4 0 0 0-.578-.432 3.5 3.5 0 0 0-.625-.302 1.9 1.9 0 0 0-.613-.115.42.42 0 0 0-.283.13.36.36 0 0 0-.141.287q0 .144.106.288.105.144.26.26.153.1.33.172a.9.9 0 0 0 .318.072q.095 0 .2-.086.107-.087.165-.087.048 0 .048.058 0 .201-.19.634a2.5 2.5 0 0 1-.294.49q-.189.215-.424.215a.74.74 0 0 1-.342-.1 1.7 1.7 0 0 1-.378-.26 1.5 1.5 0 0 1-.294-.36.8.8 0 0 1-.118-.403q0-.259.118-.677.117-.432.318-.835.2-.418.472-.706.259-.302.566-.302.153 0 .365.014.2.016.413.058.2.043.389.144a.84.84 0 0 1 .306.26 4 4 0 0 1 .484.849q.165.417.389.921.118.289.318.59.189.304.378.591.176.274.306.49t.13.317q0 .144-.154.144m2.17.288q.07 0 .07.1 0 .173-.082.447a4.3 4.3 0 0 1-.448.993q-.118.188-.2.188a1.3 1.3 0 0 0-.236-.576q-.189-.26-.425-.288l.342-.864zm4.575 0q.023 0 .035.043a.2.2 0 0 1 .012.057q0 .36-.177.59-.165.232-.39.375a1.6 1.6 0 0 1-.435.187 2 2 0 0 1-.307.044h-.118a.15.15 0 0 0-.106.043q-.036.028-.035.057t.023.13c.023.1.032.149.047.245q.024.129.048.288.023.143.023.245 0 .129-.035.288a2 2 0 0 1-.083.288 2 2 0 0 1-.118.302q.53.115.944.46.424.332.766.836t.637 1.123a29 29 0 0 1 .6 1.354.3.3 0 0 1 .024.115q0 .086-.082.086a.16.16 0 0 1-.142-.072 1 1 0 0 0-.07-.1q-.33-.562-.72-1.037a5 5 0 0 0-.825-.807 3.6 3.6 0 0 0-.908-.532 2.4 2.4 0 0 0-.966-.202 4 4 0 0 0-.814.072q-.33.058-.554.13a1.7 1.7 0 0 0-.33.144.5.5 0 0 1-.154.057q-.07 0-.082-.029a.2.2 0 0 1-.012-.086q0-.173.142-.446.153-.275.4-.519.26-.259.602-.446a1.6 1.6 0 0 1 .754-.187h.189q.07 0 .141.014.083-.159.13-.302a1.5 1.5 0 0 0 .047-.418.7.7 0 0 0-.141-.418 1.3 1.3 0 0 0-.33-.345 1.6 1.6 0 0 0-.437-.245 1.3 1.3 0 0 0-.424-.086h-.46q-.4 0-.4-.101 0-.03.011-.072l.047-.087.566-1.036zm.471-.288q-.365-.462-.754-.908-.39-.46-.731-.921a2.8 2.8 0 0 0-.46-.49 4 4 0 0 0-.578-.432 3.5 3.5 0 0 0-.625-.302 1.9 1.9 0 0 0-.613-.115.42.42 0 0 0-.283.13.36.36 0 0 0-.141.287q0 .144.106.288.105.144.26.26.151.1.33.172a.9.9 0 0 0 .318.072q.094 0 .2-.086.106-.087.165-.087.047 0 .047.058 0 .201-.188.634a2.5 2.5 0 0 1-.295.49q-.189.215-.425.215a.74.74 0 0 1-.342-.1 1.7 1.7 0 0 1-.377-.26 1.5 1.5 0 0 1-.295-.36.8.8 0 0 1-.117-.403q0-.259.117-.677a4.6 4.6 0 0 1 .319-.835q.2-.418.471-.706.26-.302.566-.302.153 0 .366.014.2.016.412.058.201.043.39.144.176.087.306.26a4 4 0 0 1 .484.849q.165.417.389.921.117.289.318.59.189.304.377.591.177.274.307.49t.13.317q0 .144-.154.144m6.827.288q.13 0 .13.1 0 .072-.071.39-.07.316-.095.806-.035.518-.058 1.281-.024.75-.048 1.613l-.047 1.771q-.012.893-.035 1.7l-.024 1.44v3.513a.5.5 0 0 1-.047.245q-.036.1-.094.1-.048 0-.13-.1a.34.34 0 0 1-.082-.245v-2.275q0-.403-.036-1.08-.025-.692-.07-1.527a82 82 0 0 0-.095-1.756q-.047-.922-.106-1.786a66 66 0 0 0-.106-1.627q-.048-.763-.083-1.267h-1.273q-.13 0-.153.144a4 4 0 0 0-.012.288l.13 4.046a.3.3 0 0 1 .059.144.4.4 0 0 1 .023.13q0 .172-.141.172a.28.28 0 0 1-.189-.086 3 3 0 0 1-.165-.187 3.4 3.4 0 0 0-.554-.533 4 4 0 0 0-.672-.446 3.5 3.5 0 0 0-.684-.288 2 2 0 0 0-.625-.116q-.236 0-.448.101a4 4 0 0 1-.424.144q.047-.389.141-.72.105-.33.224-.533a3.3 3.3 0 0 1 .118-.619 7 7 0 0 1 .212-.633 6 6 0 0 1 .248-.576q.128-.274.224-.432h-.26q-.4 0-.4-.101 0-.03.011-.072l.047-.087.566-1.036zM45.64 6.322q-.19 0-.437.201a2.5 2.5 0 0 0-.483.504 4 4 0 0 0-.4.677 2.5 2.5 0 0 0-.225.72.5.5 0 0 1 .271-.086q.189-.03.271-.03.307 0 .555.13.247.116.448.317.2.187.365.447.165.244.318.49l.484.762v-.417a6 6 0 0 0-.047-.677q-.037-.39-.106-.806a15 15 0 0 0-.165-.85 8.6 8.6 0 0 0-.354-1.18q-.07-.202-.2-.202zm6.13-1.296q.072 0 .071.1 0 .173-.082.447a4.3 4.3 0 0 1-.448.993q-.119.188-.2.188a1.3 1.3 0 0 0-.236-.576q-.19-.26-.425-.288l.342-.864h.979m4.08 0q.023 0 .035.043a.2.2 0 0 1 .011.057q0 .246-.082.432a1.3 1.3 0 0 1-.212.317 1 1 0 0 1-.283.216q-.154.087-.295.144a.4.4 0 0 0-.13.087q-.06.057-.059.187v1.195q.39.26.66.62.284.346.507.748.237.403.448.835.225.418.496.807l.365.532v-.518q0-.533-.07-1.152-.06-.633-.119-1.224a16 16 0 0 0-.094-.62 8 8 0 0 0-.118-.662 4 4 0 0 0-.13-.532q-.058-.216-.106-.216a.2.2 0 0 0-.117.043q-.047.043-.071.043a.3.3 0 0 1-.083-.014q-.035-.03-.035-.087 0-.058.035-.1l.06-.073.79-.964a.4.4 0 0 1 .129-.116.3.3 0 0 1 .106-.028h.53q.119 0 .118.144a.7.7 0 0 1-.047.158 5 5 0 0 1-.094.302 10 10 0 0 1-.106.36l-.083.332q-.058.288-.106.619a6 6 0 0 0-.035.677v3.974a.8.8 0 0 1 .07.346q0 .071-.082.13a.24.24 0 0 1-.118.042.2.2 0 0 1-.118-.043l-.106-.13-2.476-2.62q0 .23-.082.561a2.4 2.4 0 0 1-.26.634 1.9 1.9 0 0 1-.448.518.95.95 0 0 1-.625.216q-.342 0-.601-.144a1.3 1.3 0 0 1-.436-.388 1.9 1.9 0 0 1-.271-.562 2.9 2.9 0 0 1-.083-.691q0-.447.142-.835.152-.39.377-.663.235-.287.519-.446a1.13 1.13 0 0 1 .554-.159q.177 0 .33.03.165.028.283.057.13.043.247.086a1.3 1.3 0 0 0-.07-.417 1.8 1.8 0 0 0-.177-.39A1.3 1.3 0 0 0 54 6.438q-.118-.115-.224-.115h-.79q-.4 0-.4-.101 0-.03.011-.072l.047-.087.566-1.036zm-1.368 4.132a1.4 1.4 0 0 0-.365-.345q-.225-.159-.72-.159-.494 0-.671.144a.44.44 0 0 0-.177.375q0 .173.047.417.047.231.165.447.13.216.33.374a.85.85 0 0 0 .507.144.65.65 0 0 0 .413-.13 1 1 0 0 0 .283-.316q.106-.202.141-.418.047-.23.047-.403zm7.912-4.132q0-.087-.024-.23a2.3 2.3 0 0 0-.2-.649 1.4 1.4 0 0 0-.354-.518q-.082-.072-.082-.144 0-.043.07-.187.083-.144.189-.317.105-.173.212-.317a2 2 0 0 1 .189-.23h2.122q.024 0 .035.043a.2.2 0 0 1 .012.057.9.9 0 0 1-.07.36 1.6 1.6 0 0 1-.166.288 1 1 0 0 1-.2.188 2 2 0 0 0-.141.115 1.2 1.2 0 0 1-.46.201 3 3 0 0 1-.484.044h-.283v1.296h.26q.023 0 .035.043a.2.2 0 0 1 .012.057q0 .289-.236.562a1.6 1.6 0 0 1-.542.418 1.8 1.8 0 0 1-.413.115 9 9 0 0 1-.519.043l-.507.029q-.236 0-.377.029-.083.014-.212.244a9 9 0 0 0-.248.533q-.118.302-.212.605-.094.287-.118.446a4 4 0 0 0 .33-.36 1.83 1.83 0 0 1 .872-.562q.295-.1.732-.1.153 0 .283.014a2.4 2.4 0 0 0 .648-.014q.189-.03.436-.144a.76.76 0 0 1-.094.331 2.4 2.4 0 0 1-.224.36 5 5 0 0 1-.236.317.8.8 0 0 1-.177.158 2 2 0 0 1-.306.202.74.74 0 0 1-.319.072q-.236 0-.53-.058a3.5 3.5 0 0 0-.672-.057 1.6 1.6 0 0 0-.448.072.95.95 0 0 0-.39.173 2 2 0 0 0-.058.201 8 8 0 0 0-.071.317l-.07.346a3 3 0 0 0-.048.273q.189-.158.436-.245.26-.1.52-.144a3.4 3.4 0 0 1 .518-.043 7 7 0 0 1 .448-.014q.636 0 1.144.403.507.39.966 1.123.083.13.118.202.048.072.083.144.035.057.07.13l.142.215q.036.072.13.23.094.145.094.231 0 .03-.012.115-.012.072-.035.072-.07 0-.13-.072a4.2 4.2 0 0 0-.837-.777 3 3 0 0 0-.86-.447 3.8 3.8 0 0 0-.932-.201 9 9 0 0 0-1.026-.058q-.436 0-.813.101a5 5 0 0 0-.189.072q-.105.03-.212.072a2 2 0 0 1-.271.1q-.06 0-.06-.057 0-.1.036-.245.047-.158.094-.288a6 6 0 0 1 .106-.244l.06-.144q.045-.086.106-.519.059-.432.141-.979.095-.548.224-1.123.13-.59.307-.98h-.213q-.4 0-.4-.1 0-.03.011-.072l.047-.087.566-1.036zm-1.58-1.455a1.5 1.5 0 0 1-.012-.216q0-.36.153-.677.143-.316.354-.561a3.2 3.2 0 0 1 .802-.706q.436-.273.86-.273.343 0 .625-.101.271-.115.543-.331.105-.087.2-.202l.189-.23a3 3 0 0 1 .165-.188q.07-.086.118-.087.024 0 .047.058a.2.2 0 0 1 .024.072q0 .129-.06.345a4 4 0 0 1-.164.447 3.2 3.2 0 0 1-.483.835q-.319.375-.626.533a1.4 1.4 0 0 1-.59.144q-.306 0-.695.086a2 2 0 0 0-.672.26 1.2 1.2 0 0 0-.365.345.87.87 0 0 0-.154.518q0 .116.012.317.012.188.059.374.035.116.035.188 0 .172-.2.172-.06 0-.13-.072a3.4 3.4 0 0 1-.307-.374 3 3 0 0 0-.117-.158q-.2-.26-.448-.562a5.5 5.5 0 0 0-.543-.576 3.6 3.6 0 0 0-.6-.432 1.2 1.2 0 0 0-.602-.173.18.18 0 0 0-.142.072q-.058.072-.118.072a.08.08 0 0 1-.07-.043.3.3 0 0 1-.024-.1q0-.06.07-.26.071-.216.19-.446a1.9 1.9 0 0 1 .247-.404q.13-.187.26-.187.282 0 .53.202.247.201.472.518.212.302.412.677a36 36 0 0 1 .437.864l.353.72zm6.838 1.454q.024 0 .036.043a.14.14 0 0 1 .011.057q0 .36-.188.59-.189.217-.436.346a2.1 2.1 0 0 1-.484.188q-.236.043-.33.057a1.3 1.3 0 0 0-.637.23 1.9 1.9 0 0 0-.436.433q-.164.244-.26.49a8 8 0 0 0-.129.417q.095-.058.236-.101a1 1 0 0 1 .247-.043q.519 0 .885.057.365.044.625.144.27.101.46.26.189.144.341.33.33.434.555 1.095.235.648.377 1.469.153.807.236 1.728.094.907.153 1.858l.177 3.139a.2.2 0 0 1-.036.115q-.035.072-.07.072-.06 0-.13-.058a.23.23 0 0 1-.07-.13l-.32-3.052a25 25 0 0 0-.447-2.822q-.283-1.282-.696-1.973a1.84 1.84 0 0 0-.754-.72Q66.109 9 65.413 9q-.141 0-.342.043a4 4 0 0 0-.412.115l-.425.116a4 4 0 0 1-.354.086q-.059 0-.059-.072a.8.8 0 0 1 .048-.23q.058-.158.13-.332a4 4 0 0 1 .188-.345q.105-.187.212-.317.048-.173.094-.389.06-.216.118-.432.071-.23.13-.432a4 4 0 0 1 .142-.374q0-.087-.095-.115h-.212q-.4 0-.4-.101 0-.03.01-.072l.048-.087.566-1.036zm2.016 0q.072 0 .071.1 0 .173-.082.447a4.3 4.3 0 0 1-.448.993q-.119.188-.2.188a1.3 1.3 0 0 0-.237-.576q-.188-.26-.424-.288l.342-.864zm5.165 0q.023 0 .035.043a.2.2 0 0 1 .012.057q0 .36-.177.59-.165.232-.39.375a1.6 1.6 0 0 1-.435.187 2 2 0 0 1-.307.044h-.354q-.094.072-.153.345a3.6 3.6 0 0 0-.047.605v.605q.295-.043.519-.058.225-.029.601-.029.684 0 1.12.548.448.547.448 1.713 0 .432-.118.821-.106.39-.306.691a1.6 1.6 0 0 1-.484.461q-.27.173-.601.173a1.2 1.2 0 0 1-.542-.115 1.8 1.8 0 0 1-.401-.317 2 2 0 0 1-.271-.389 4 4 0 0 1-.177-.374.8.8 0 0 1-.118.374q-.105.201-.283.389a2 2 0 0 1-.401.302.83.83 0 0 1-.436.13q-.766 0-1.18-.533-.412-.548-.412-1.512 0-.375.094-.792.107-.418.295-.763.19-.346.46-.576a.92.92 0 0 1 .613-.23 7.6 7.6 0 0 1 1.226.086v-.288q0-.245-.094-.475a1.4 1.4 0 0 0-.248-.404 1.1 1.1 0 0 0-.33-.273.7.7 0 0 0-.365-.115h-.602q-.4 0-.4-.101 0-.03.011-.072l.047-.087.566-1.036zm-1.816 5.385q.118.331.436.634.319.288.86.288.532 0 .744-.346.224-.345.224-.907a.99.99 0 0 0-.342-.749q-.342-.33-.979-.331-.2 0-.46.014-.248 0-.483.072zm-.354-1.325a3 3 0 0 0-.554-.057A8 8 0 0 0 71.45 9a1.3 1.3 0 0 0-.554.1.8.8 0 0 0-.33.231.8.8 0 0 0-.142.317 1.25 1.25 0 0 0 .059.778 1.6 1.6 0 0 0 .648.792 1 1 0 0 0 .496.13q.247 0 .436-.102a1 1 0 0 0 .318-.259q.13-.158.2-.345a1.5 1.5 0 0 0 .083-.39zm-1.05-7.876a.5.5 0 0 1 .166-.188.36.36 0 0 1 .189-.057q.565 0 1.06.345.484.33.85.75.341.402.554.762.2.36.271.476l.578.892.165.274q.06.115.059.173 0 .13-.106.13-.06 0-.118-.058l-.13-.159a5.7 5.7 0 0 0-.908-.979 6 6 0 0 0-1.002-.72 4.5 4.5 0 0 0-.979-.446 2.9 2.9 0 0 0-.825-.144q-.046 0-.118.115-.07.1-.13.1-.058 0-.082-.057a.35.35 0 0 1-.035-.158q0-.043.047-.13l.106-.201.389-.72m8.843 3.816q.023 0 .035.043a.2.2 0 0 1 .012.057q0 .36-.189.59-.177.217-.412.346-.226.13-.448.173a2 2 0 0 1-.283.043q-.047 0-.095.058a.24.24 0 0 0-.047.158v1.397q.13.072.271.23.153.145.295.39.235.403.4.979.178.576.296 1.267.13.677.212 1.454.082.763.118 1.555l.2 4.032a.2.2 0 0 1-.047.13q-.047.058-.094.058-.094 0-.13-.058a.4.4 0 0 1-.035-.115q-.06-.303-.118-.821-.048-.504-.106-1.08l-.095-1.123a40 40 0 0 0-.07-.965q-.094-1.267-.413-2.347-.318-1.095-.684-1.771v.216q0 .216-.106.49-.095.273-.26.518-.165.244-.377.417a.7.7 0 0 1-.436.173q-.366 0-.684-.115a1.7 1.7 0 0 1-.542-.36 2 2 0 0 1-.366-.59 2.4 2.4 0 0 1-.13-.807q0-.39.154-.763a2.4 2.4 0 0 1 .4-.677 2 2 0 0 1 .578-.475 1.25 1.25 0 0 1 1.038-.13q.2.043.307.072v-.158a1.2 1.2 0 0 0-.319-.807 1.1 1.1 0 0 0-.33-.273.76.76 0 0 0-.4-.115h-.307q-.401 0-.401-.101 0-.03.012-.072l.047-.087.566-1.036zm-2.806 5.716q.507 0 .695-.316.189-.318.189-.792v-.216a1.1 1.1 0 0 0-.33-.404.87.87 0 0 0-.554-.187q-.201 0-.378.029a.8.8 0 0 0-.294.115.6.6 0 0 0-.213.26 1.1 1.1 0 0 0-.07.431 1.17 1.17 0 0 0 .294.792 1 1 0 0 0 .307.216.9.9 0 0 0 .354.072m4.68-5.716q.072 0 .071.1 0 .173-.082.447a4.3 4.3 0 0 1-.448.993q-.12.188-.2.188a1.3 1.3 0 0 0-.237-.576q-.188-.26-.424-.288l.342-.864zm4.08 0q.024 0 .035.043a.2.2 0 0 1 .012.057q0 .246-.083.432a1.3 1.3 0 0 1-.212.317 1 1 0 0 1-.283.216q-.153.087-.294.144a.4.4 0 0 0-.13.087q-.06.057-.06.187v1.195q.39.26.661.62.284.346.507.748.236.403.448.835.225.418.495.807l.366.532v-.518q0-.533-.07-1.152-.06-.633-.119-1.224a16 16 0 0 0-.094-.62 8 8 0 0 0-.118-.662 4 4 0 0 0-.13-.532q-.058-.216-.106-.216a.2.2 0 0 0-.118.043q-.047.043-.07.043a.3.3 0 0 1-.083-.014q-.035-.03-.035-.087 0-.058.035-.1l.059-.073.79-.964a.4.4 0 0 1 .13-.116.3.3 0 0 1 .106-.028h.53q.118 0 .118.144a.8.8 0 0 1-.047.158 5 5 0 0 1-.094.302 10 10 0 0 1-.106.36l-.083.332q-.06.288-.106.619a6 6 0 0 0-.035.677v3.974a.8.8 0 0 1 .07.346q0 .071-.082.13a.24.24 0 0 1-.118.042.2.2 0 0 1-.118-.043l-.106-.13-2.476-2.62q0 .23-.083.561a2.4 2.4 0 0 1-.259.634 1.9 1.9 0 0 1-.448.518.95.95 0 0 1-.625.216q-.342 0-.601-.144a1.3 1.3 0 0 1-.437-.388 1.9 1.9 0 0 1-.27-.562 2.9 2.9 0 0 1-.083-.691q0-.447.141-.835.153-.39.378-.663.236-.287.518-.446a1.13 1.13 0 0 1 .554-.159q.177 0 .33.03.165.028.284.057.13.043.247.086a1.3 1.3 0 0 0-.07-.417 1.8 1.8 0 0 0-.177-.39 1.3 1.3 0 0 0-.236-.287q-.119-.115-.224-.115h-.79q-.4 0-.401-.101 0-.03.012-.072l.047-.087.566-1.036zm-1.367 4.132a1.4 1.4 0 0 0-.365-.345q-.225-.159-.72-.159t-.672.144a.44.44 0 0 0-.176.375q0 .172.047.417.047.231.165.447.129.216.33.374a.85.85 0 0 0 .507.144.65.65 0 0 0 .413-.13q.176-.129.283-.316.105-.202.141-.418.047-.23.047-.403zm1.167-5.587a1.5 1.5 0 0 1-.011-.216q0-.36.153-.677.141-.316.354-.561a3.2 3.2 0 0 1 .801-.706q.437-.273.861-.273.342 0 .625-.101.271-.115.542-.331.107-.087.2-.202l.19-.23a3 3 0 0 1 .164-.188q.072-.086.118-.086.024 0 .048.058a.2.2 0 0 1 .023.072q0 .129-.059.345-.06.202-.165.447a3.2 3.2 0 0 1-.483.835q-.319.375-.625.533a1.4 1.4 0 0 1-.59.144q-.306 0-.695.086a2 2 0 0 0-.672.26 1.2 1.2 0 0 0-.366.345.87.87 0 0 0-.153.518q0 .116.012.317.01.188.059.374a.7.7 0 0 1 .035.188q0 .172-.2.172-.06 0-.13-.072a3.4 3.4 0 0 1-.307-.374 3 3 0 0 0-.118-.158 26 26 0 0 0-.448-.562 5.5 5.5 0 0 0-.542-.576 3.6 3.6 0 0 0-.601-.432 1.2 1.2 0 0 0-.602-.173.18.18 0 0 0-.141.072q-.06.072-.118.072a.08.08 0 0 1-.07-.043.3.3 0 0 1-.024-.1q0-.06.07-.26.071-.216.189-.446.105-.23.248-.404.13-.187.259-.187a.82.82 0 0 1 .53.202q.249.201.472.518.213.303.413.677.188.36.354.691.034.058.082.173l.354.72zM90.94 8.87q-.058.807-.094 1.685l-.047 1.771q-.012.88-.012 1.757v3.096a1 1 0 0 1-.023.187q-.025.102-.118.101-.083 0-.142-.1a.45.45 0 0 1-.047-.188v-1.771q0-2.261-.153-4.435-.142-2.19-.271-4.392 0-.058-.071-.144-.07-.1-.212-.101h-.154q-.082 0-.106.043-.025.03-.07.029-.072 0-.095-.029a.4.4 0 0 1-.012-.1q0-.03.047-.087l.107-.13.707-.864q.141-.172.212-.172h.578q.13 0 .13.115a.4.4 0 0 1-.024.13 5.2 5.2 0 0 0-.13 1.31v2.29"/></svg>