<svg xmlns="http://www.w3.org/2000/svg" width="119" height="19"><path fill="#000" fill-rule="nonzero" d="M14.626 0c.15.151.15.685 0 .838-1.652.202-2.042 1.146-2.511 2.36l-3.55 9.133c-1.076 2.766-2.454 4.642-4.708 4.642-1.051 0-2.254-.584-2.254-1.394 0-.712.477-1.218 1.228-1.218.35 0 .901.176 1.151.482.175.228.553.558.902.558.802 0 1.428-.531 2.204-2.435l-4.47-9.817C1.799 1.347 1.554.962.127.839-.024.685-.05.152.1 0 1.28.024 1.705.05 2.706.05 3.684.05 4.56.026 5.737 0c.15.151.15.685 0 .838-1.703.177-1.667.577-1.018 2.029l3.471 7.737h.051l2.729-7.585c.5-1.421.576-2.057-1.277-2.18-.15-.153-.15-.686 0-.839 1.08.022 1.99.046 2.578.05h.152c.576 0 1.201-.025 2.203-.05Zm11.945 4.759c.113.107.113.487 0 .595-1.314.054-1.635.142-1.635 1.639v7.224c.001 1.495.32 1.586 1.636 1.639.112.106.112.487 0 .594-.94-.018-1.484-.036-2.423-.036-.959 0-1.522.02-2.442.036-.114-.107-.114-.488 0-.594 1.314-.055 1.634-.144 1.634-1.64V7.805a.707.707 0 0 0-.328.234l-5.13 6.126c-.22.268-.408.413-.538.841.134.745.552.81 1.582.853.113.107.113.488 0 .594-.94-.019-1.485-.036-2.424-.036-.958 0-1.521.02-2.442.036-.112-.106-.112-.487 0-.594 1.315-.055 1.635-.144 1.635-1.64V6.995c0-1.495-.319-1.586-1.635-1.64-.112-.107-.112-.486 0-.593.94.018 1.485.035 2.424.035.958 0 1.522-.019 2.442-.035.113.107.113.486 0 .594-1.315.055-1.635.144-1.635 1.639v6.414c.086-.007.195-.068.332-.2l5.163-6.16c.212-.256.387-.582.495-.876-.138-.712-.561-.777-1.576-.818-.113-.108-.113-.488 0-.595.94.018 1.484.036 2.423.036.959 0 1.522-.02 2.442-.036Zm1.26 11.314c0-.091.056-.145.131-.145l.507-.034c.79-.058 1.015-.254 1.015-.757V6.075c0-.54-.282-.703-1.015-.757l-.488-.036c-.076 0-.15-.055-.15-.144v-.342l.037-.035c.94.018 1.503.035 2.442.035.94 0 1.485-.019 2.405-.035l.038.035v.342c0 .092-.056.144-.15.144l-.488.036c-.752.056-1.033.253-1.033.757V9.82c.677 0 1.522-.019 1.973-.27 1.108-.576 1.371-1.73 1.54-2.738.188-1.116.714-2.126 2.198-2.126.996 0 1.334.523 1.334.936 0 .524-.432.722-.826.722-.244 0-.508-.09-.696-.27-.207-.199-.357-.29-.602-.29-.563 0-.693.596-.788 1.117-.207 1.116-.601 2.665-2.03 3.17v.091c1.297 0 2.03.774 2.536 2.036.98 2.43 1.936 3.657 2.593 3.709l.3.02c.095 0 .15.054.15.142v.342l-.018.036-1.484-.019c-1.466-.018-2.143-1.476-2.95-3.458-.735-1.802-1.09-2.396-3.23-2.396v4.558c0 .539.281.7 1.032.757l.488.035c.075 0 .15.055.15.144v.342l-.038.035c-.901-.035-1.446-.035-2.385-.035-.94 0-1.541 0-2.462.035l-.038-.035.001-.338Zm24.61-.217c.114.106.114.487 0 .594-.938-.018-1.484-.036-2.423-.036-.958 0-1.521.02-2.442.036-.113-.107-.113-.488 0-.594 1.315-.055 1.635-.144 1.635-1.64V7.805a.707.707 0 0 0-.328.234l-5.131 6.126c-.22.268-.408.413-.537.841.133.745.552.81 1.581.853.114.107.114.488 0 .594-.94-.019-1.484-.036-2.423-.036-.958 0-1.522.02-2.442.036-.112-.106-.112-.487 0-.594 1.315-.055 1.635-.144 1.635-1.64V6.995c0-1.495-.32-1.586-1.635-1.64-.112-.107-.112-.486 0-.593.94.018 1.484.035 2.423.035.959 0 1.522-.019 2.442-.035.114.107.114.486 0 .594-1.314.055-1.634.144-1.634 1.639v6.414c.086-.007.194-.068.332-.2l5.162-6.16c.213-.256.387-.582.496-.876-.14-.712-.562-.777-1.577-.818-.113-.108-.113-.488 0-.595.94.018 1.485.036 2.424.036.957 0 1.521-.02 2.442-.036.113.107.113.487 0 .595-1.315.054-1.634.142-1.634 1.639v7.224c0 1.495.32 1.586 1.635 1.639ZM65.764 4.761c.113.106.113.485 0 .593-1.315.055-1.634.144-1.634 1.639v7.225c0 1.495.319 1.585 1.634 1.639.113.107.113.488 0 .594-.92-.019-1.484-.036-2.443-.036-.94 0-1.484.02-2.422.036-.112-.106-.112-.487 0-.594 1.316-.055 1.635-.144 1.635-1.64V6.85c0-1.117-.413-1.333-.865-1.333h-3.701c-.451 0-.865.215-.865 1.333v7.368c0 1.495.32 1.585 1.635 1.639.113.107.113.488 0 .594-.939-.019-1.485-.036-2.423-.036-.959 0-1.522.02-2.443.036-.113-.106-.113-.487 0-.594 1.315-.055 1.634-.144 1.634-1.64V6.994c0-1.495-.319-1.586-1.634-1.64-.113-.107-.113-.486 0-.592.94.017 1.992.034 2.424.034h7.045c.506.001 1.484-.018 2.423-.034Zm8.173 3.925c.112-.108.507-.108.62 0-.02.54-.039.936-.039 1.548s.02.955.038 1.587c-.112.106-.507.106-.62 0-.057-.811-.113-1.227-1.71-1.227h-1.71v4.342c0 .488.262.774.676.774h2.555c1.426 0 2.084-1.063 2.461-2.36a.873.873 0 0 1 .656.09c-.149.92-.432 2.108-.694 3.008 0 0-1.504-.036-2.406-.036h-4.04s-1.52.02-2.44.036c-.115-.107-.115-.487 0-.594 1.313-.054 1.634-.144 1.634-1.64V6.99c0-1.495-.321-1.586-1.635-1.64-.114-.106-.114-.486 0-.592.94.018 2.423.035 2.423.035h4.79c.451 0 .6-.02.92-.072.058 0 .076.019.076.055.037.143.319 1.873.413 2.61a1.083 1.083 0 0 1-.62.092c-.413-1.243-.716-1.964-2.124-1.964h-1.972c-.45 0-.676.36-.676.793v3.602h1.71c1.6.002 1.658-.232 1.714-1.223Zm7.57 2.305c.414-2.054.639-3.908.639-5.042 0-.378-.17-.566-.658-.612l-.562-.055c-.096 0-.15-.036-.15-.108v-.378l.036-.035s1.315.035 1.879.035h4.903c.563 0 2.048-.035 2.048-.035l.037.035v.342c0 .108-.075.139-.15.144l-.545.036c-.605.04-.695.269-.695.92v8.771c0 .667.422.865.752.92.407.067.553.127.563.342l.133 2.666c-.509 0-.509.019-.509.019-.224-1.009-.902-2.54-2.405-2.54h-5.446c-1.56 0-2.049 1.604-2.256 2.54l-.507-.019.132-2.666c.012-.215.21-.315.396-.343.366-.054.667-.097.939-.36.49-.47.826-1.766 1.427-4.577Zm2.181-5.475c-.507 0-.695.253-.733.702a52.747 52.747 0 0 1-.676 4.918c-.412 2.106-.883 3.89-.883 4.268 0 .215.245.306.508.306h4.115c.45 0 .676-.054.676-.72V6.215c0-.559-.112-.702-.696-.702l-2.31.002Zm20.365 10.34c.112.106.112.487 0 .594-.94-.018-1.485-.036-2.423-.036-.957 0-1.522.02-2.442.036-.113-.107-.113-.488 0-.594 1.315-.055 1.634-.144 1.634-1.64V7.805a.717.717 0 0 0-.328.234l-5.131 6.126c-.22.268-.407.413-.537.841.134.745.553.81 1.582.853.112.107.112.488 0 .594-.941-.019-1.485-.036-2.424-.036-.957 0-1.522.02-2.442.036-.113-.106-.113-.487 0-.594 1.315-.055 1.635-.144 1.635-1.64V6.995c0-1.495-.32-1.586-1.635-1.64-.113-.107-.113-.486 0-.593.939.018 1.485.035 2.423.035.958 0 1.522-.019 2.443-.035.112.107.112.486 0 .594-1.316.055-1.635.144-1.635 1.639v6.414c.086-.007.196-.068.331-.2l5.162-6.16c.213-.256.387-.582.495-.876-.137-.712-.56-.777-1.575-.818-.113-.108-.113-.488 0-.595.94.018 1.485.036 2.423.036.958 0 1.523-.02 2.443-.036.112.107.112.487 0 .595-1.316.054-1.635.142-1.635 1.639v7.224c.004 1.495.32 1.586 1.636 1.639Zm.998.076c0-.128.074-.203.175-.203l.225-.025c.8-.1 2.043-1.482 3.331-4.873.626-1.648 1.376-2.284 2.054-2.688v-.076c-1.703-.254-3.73-1.522-3.73-4.11 0-1.75.851-3.933 5.509-3.933.876 0 2.354.025 3.18.025.778 0 3.206-.025 3.206-.025v.532c0 .101-.05.177-.174.177l-.753.052c-1.052.076-1.328.255-1.328 1.116v12.66c0 .762.326 1.04 1.352 1.117l.677.053c.098 0 .2.075.2.203v.482l-.05.052s-2.18-.052-3.156-.052c-.901 0-3.23.052-3.23.052l-.05-.052v-.482c0-.128.075-.203.2-.203l.651-.053c1.053-.08 1.377-.406 1.377-1.116V8.194c-2.654 0-3.155.736-4.207 3.427-1.077 2.753-2.004 4.792-3.781 4.82l-1.654.024-.023-.05v-.483Zm7.713-8.702h1.953V1.825c0-.838-.1-.913-2.28-.913-1.402 0-3.305.407-3.305 2.764 0 2.69 1.554 3.554 3.632 3.554Z"/></svg>