<svg xmlns="http://www.w3.org/2000/svg" width="120" height="12"><path fill="#000" fill-rule="nonzero" d="M4.58.835c-.72-.1-.693-.337-1.91-.337C1.409.498.3 1.333.3 2.653c0 1.313 1.078 1.913 2.174 2.33.757.288 1.675.638 1.675 1.856 0 1.009-.563 1.532-1.557 1.532-1.163 0-1.912-.53-2.186-1.769A.496.496 0 0 0 0 6.64c.05.959.1 1.283.25 1.893.784 0 1.132.287 2.236.287.567 0 1.104-.139 1.538-.409.716-.448 1.17-1.216 1.17-2.008 0-1.325-.997-1.906-2.024-2.29-.737-.277-1.982-.748-1.982-1.796 0-.698.63-1.395 1.364-1.395 1.21 0 1.596.772 1.845 1.594.131.023.293.013.405-.074A11.458 11.458 0 0 0 4.58.835Zm9.748 2.491c.074.075.074.336 0 .411-.636.038-.848.388-1.052.897L11.65 8.583c-.075.187-.174.262-.286.262-.125 0-.225-.075-.3-.25L9.782 5.506 8.522 8.571c-.087.199-.186.274-.298.274-.125 0-.225-.075-.3-.25l-1.63-4.023c-.263-.648-.399-.775-.985-.835-.075-.075-.075-.336 0-.41.326.012.66.024 1.133.024.449 0 .885-.012 1.258-.025.075.075.075.336 0 .411-.598.038-.61.237-.375.835l.997 2.566c.16.405.188.386.35-.025l.872-2.205-.08-.2c-.223-.557-.368-.915-.954-.97-.075-.076-.075-.337 0-.412.374.013.785.025 1.096.025.374 0 .872-.012 1.246-.025.075.075.075.336 0 .411-.66.05-.685.175-.455.76l1.075 2.728c.102.26.152.262.277-.05l1.041-2.59c.176-.438.304-.798-.63-.848-.075-.075-.075-.336 0-.41.374.012.897.024 1.27.024.374 0 .648-.012.898-.025Zm2.667-.1c1.906 0 2.616 1.508 2.616 2.803 0 .764-.253 1.547-.81 2.093-.426.415-1.029.698-1.83.698-1.77 0-2.617-1.408-2.617-2.679 0-.787.237-1.512.69-2.043.455-.535 1.131-.872 1.951-.872Zm-.187.436c-1.12 0-1.382 1.11-1.382 2.193 0 .96.423 2.529 1.719 2.529.585 0 1.395-.386 1.395-1.956 0-1.794-.66-2.766-1.732-2.766Zm4.948.511a1.567 1.567 0 0 1 1.058-.398c.76 0 1.383.921 1.383 2.13 0 1.42-.573 2.491-1.756 2.491-.386 0-.648-.274-.897-.585V4.696c0-.261.05-.38.212-.523Zm-.088-.386c-.078.071-.124.05-.124-.062V1.433c0-.81.05-1.308.05-1.308 0-.088-.05-.125-.162-.125-.312.125-1.246.299-1.744.336-.025.1 0 .3.074.374.648.037.798-.025.798 1.022V7.81c0 .485-.013.71-.05.884.062.1.124.15.274.15.076-.073.2-.189.295-.3.128-.149.203-.149.34-.034.285.24.657.309 1.096.309 1.271 0 2.753-1.159 2.753-3.14 0-1.52-1.12-2.454-2.204-2.454-.535 0-1.01.212-1.396.561Zm4.163 2.354c0 1.271.847 2.679 2.616 2.679.802 0 1.405-.283 1.83-.698.558-.546.81-1.33.81-2.093 0-1.295-.71-2.803-2.615-2.803-.82 0-1.496.337-1.952.872-.452.531-.69 1.256-.69 2.043Zm2.454-2.479c1.071 0 1.731.972 1.731 2.766 0 1.57-.81 1.956-1.395 1.956-1.295 0-1.719-1.57-1.719-2.53 0-1.083.262-2.192 1.383-2.192ZM36.322 0c.112 0 .162.037.162.125 0 0-.05.498-.05 1.308v5.643c0 .61.112.847.91.91.074.074.074.26 0 .335l.012-.022c.65-.06.761-.155.761-1.124V4.746c0-.722-.137-.785-.81-.847-.024-.075-.05-.274-.024-.349.86-.112 1.183-.224 1.532-.361.1 0 .123.042.15.1.058.128.086.61.099.946.004.118.073.088.15 0 .738-.847 1.432-1.009 2.042-1.009.436 0 .823.15 1.034.424.287.386.337.984.337 1.67v1.855c0 1.022.137 1.072.834 1.134.063.075.063.336 0 .411a39.079 39.079 0 0 0-1.32-.025c-.498 0-.897.013-1.27.025-.063-.075-.063-.336 0-.411.647-.062.772-.112.772-1.134V5.282c0-.374-.025-.71-.15-.96-.15-.286-.411-.448-.66-.448-.486 0-1.047.274-1.52.735a.731.731 0 0 0-.212.523v2.043c0 1.022.125 1.072.76 1.134.075.075.075.336 0 .411-.374-.012-.747-.025-1.246-.025-.498 0-.996.013-1.37.025-.075-.075-.075-.336 0-.411l-.019.027c-.688.092-1.093.271-1.353.484a.284.284 0 0 1-.237 0s-.105-.43-.137-.735c-.008-.087-.127-.065-.186-.016-.61.502-1.072.75-1.558.75-1.345 0-2.117-1.12-2.117-2.653 0-.922.324-1.657.86-2.192.498-.474 1.046-.748 1.868-.748.41 0 .922.212.971.212.088 0 .113-.025.113-.112V1.732c0-1.047-.15-.985-.798-1.022-.074-.075-.1-.274-.074-.374C35.076.3 36.01.125 36.322 0Zm-2.093 3.662c-.25 0-.773.038-1.159.623-.187.262-.361.76-.361 1.657 0 1.557.698 2.292 1.37 2.292.312 0 .71-.2 1.171-.598.176-.152.2-.249.2-.486V4.784c0-.387-.038-.474-.212-.673-.25-.287-.56-.449-1.01-.449Zm9.421 2.48c0 1.27.847 2.678 2.616 2.678.802 0 1.405-.283 1.83-.698.558-.546.81-1.33.81-2.093 0-1.295-.71-2.803-2.615-2.803-.82 0-1.496.337-1.952.872-.452.531-.689 1.256-.689 2.043Zm2.454-2.48c1.071 0 1.732.972 1.732 2.766 0 1.57-.81 1.956-1.396 1.956-1.295 0-1.719-1.57-1.719-2.53 0-1.083.262-2.192 1.383-2.192Zm13.135-.473c.1 0 .124.042.15.1.058.128.087.61.1.946.003.118.073.088.149 0 .739-.847 1.432-1.009 2.043-1.009.436 0 .822.15 1.034.424.286.386.336.984.336 1.67v1.855c0 1.022.137 1.072.835 1.134.062.075.062.336 0 .411a39.079 39.079 0 0 0-1.32-.025c-.499 0-.898.013-1.271.025-.063-.075-.063-.336 0-.411.647-.062.772-.112.772-1.134V5.282c0-.374-.025-.71-.15-.96-.149-.286-.41-.448-.66-.448-.486 0-1.046.274-1.52.735a.731.731 0 0 0-.211.523v2.043c0 1.022.124 1.072.76 1.134.074.075.074.336 0 .411-.374-.012-.748-.025-1.246-.025s-.997.013-1.37.025c-.075-.075-.075-.336 0-.411.747-.062.872-.112.872-1.134V4.746c0-.722-.137-.785-.81-.847a.846.846 0 0 1-.03-.157c-.563.073-.74.274-.98.792l-.109.233-.212.463a135.662 135.662 0 0 0-1.885 4.387 10.05 10.05 0 0 1-.51 1.071c-.449.798-.947.897-1.209.897-.336 0-.585-.2-.585-.46 0-.163.186-.536.548-.536.137 0 .187.037.361.037.311 0 .486-.112.623-.361.187-.386.337-.73.486-1.146.124-.35-.066-.92-.175-1.171L52.646 4.67c-.326-.76-.488-.872-.983-.934-.074-.075-.074-.336 0-.41.25.012.586.024 1.01.024.448 0 .946-.012 1.407-.025.075.075.075.336 0 .411-.697.054-.633.284-.408.81l1.105 2.591c.105.247.21.213.297.012l1.236-2.852c.2-.449-.204-.523-.598-.56-.075-.076-.075-.337 0-.412.374.013.76.025 1.134.025.348 0 .635-.012.884-.025.039.039.057.127.056.214.801-.109 1.116-.218 1.453-.351Zm15.388.137c.075.075.075.336 0 .411-.585.071-.763.27-1.009.797l-.107.233-.213.463a135.663 135.663 0 0 0-1.885 4.387 10.05 10.05 0 0 1-.51 1.071c-.449.798-.947.897-1.209.897-.336 0-.585-.2-.585-.46 0-.163.187-.536.548-.536.137 0 .187.037.361.037.312 0 .486-.112.623-.361.187-.386.338-.73.486-1.146.125-.35-.066-.92-.174-1.171l-1.41-3.277c-.326-.76-.488-.872-.982-.934-.075-.075-.075-.336 0-.41.249.012.585.024 1.009.024.448 0 .947-.012 1.407-.025.075.075.075.336 0 .411-.697.054-.632.284-.408.81l1.105 2.591c.106.247.21.213.298.012l1.235-2.852c.2-.449-.204-.523-.598-.56-.074-.076-.074-.337 0-.412.374.013.76.025 1.134.025.349 0 .635-.012.884-.025Zm-8.049-.1c1.196 0 1.906.499 1.906 1.184 0 .386-.349.548-.61.548-.262 0-.436-.112-.474-.449-.05-.436-.149-.872-.884-.872-.822 0-1.42.823-1.42 2.193 0 1.457.76 2.38 1.67 2.38.535 0 1.07-.275 1.494-.823.112.013.212.062.262.175-.623 1.021-1.283 1.258-2.03 1.258-1.57 0-2.467-1.109-2.467-2.716 0-1.769 1.32-2.878 2.553-2.878ZM82.143 0c.112 0 .162.037.162.125 0 0-.05.498-.05 1.308v5.742c0 1.034.137 1.097.897 1.134.074.075.074.336 0 .411a45.355 45.355 0 0 0-1.383-.025c-.374 0-.726.007-1.063.016l-.24.006-.092.003a14.164 14.164 0 0 0-1.659 0c-.037 0-.046-.025-.05-.062-.016-.146-.157-.38-.523-.872l-.91-1.221a1.616 1.616 0 0 0-.398-.405c-.12-.042-.296-.061-.536-.067v1.082c0 1.034.137 1.084.648 1.134.075.075.075.336 0 .411a26.967 26.967 0 0 0-1.133-.025c-.499 0-.922.013-1.333.025-.075-.075-.075-.336 0-.411.697-.05.834-.1.834-1.134V1.732c0-1.047-.15-.985-.797-1.022-.075-.075-.1-.274-.075-.374C74.941.3 75.875.125 76.186 0c.112 0 .162.037.162.125 0 0-.05.498-.05 1.308v4.345c.236-.033.571-.18.848-.384.32-.237.71-.66.996-1.022.116-.145.411-.585-.286-.635-.075-.075-.075-.336 0-.41.286.012.747.024 1.22.024.449 0 .798-.012 1.084-.025.075.075.075.336 0 .411-.498.05-.934.15-1.308.548L77.756 5.42c-.05.05-.05.075-.05.124 0 .063.042.119.087.175l1.645 2.068c.332.418.647.473 1.071.523l-.04-.005c.676-.04.802-.14.802-1.129V1.732c0-.935-.075-.972-.798-1.022-.074-.075-.1-.274-.074-.374C80.897.3 81.83.125 82.143 0Zm1.21 6.141c0 1.271.847 2.679 2.616 2.679.802 0 1.405-.283 1.83-.698.558-.546.81-1.33.81-2.093 0-1.295-.71-2.803-2.615-2.803-.82 0-1.496.337-1.952.872-.453.531-.69 1.256-.69 2.043Zm2.454-2.479c1.071 0 1.731.972 1.731 2.766 0 1.57-.81 1.956-1.395 1.956-1.295 0-1.719-1.57-1.719-2.53 0-1.083.262-2.192 1.383-2.192Zm4.96.91c.323-.399.894-.773 1.258-.773.797 0 1.482.897 1.482 2.305 0 1.022-.361 2.292-1.756 2.292-.225 0-.66-.062-.885-.263-.25-.224-.299-.296-.299-.746V5.12c0-.262.055-.37.2-.548Zm-.237-.461c-.019-.374-.041-.694-.1-.822-.026-.058-.05-.1-.15-.1-.348.137-.672.25-1.532.361-.024.075 0 .274.025.35.673.061.81.124.81.846v5.32c0 1.033-.137 1.096-.897 1.133-.075.075-.075.336 0 .411a47.79 47.79 0 0 1 1.395-.025c.499 0 1.097.013 1.508.025.074-.075.074-.336 0-.411-.885-.05-1.022-.1-1.022-1.134V8.72c0-.162.048-.146.175-.093.305.123.69.193 1.083.193.698 0 1.32-.212 1.832-.698.585-.573.921-1.345.921-2.354 0-1.32-.934-2.542-2.204-2.542-.58 0-1.215.38-1.707.935-.07.078-.13.07-.137-.05Zm5.62 1.071c.237-1.407 1.109-1.52 1.408-1.52.473 0 1.033.262 1.033 1.308 0 .113-.05.172-.186.175l-2.255.037Zm3.264 2.355c-.461.473-.823.672-1.545.672-.449 0-.972-.261-1.358-.897-.249-.41-.399-.984-.399-1.706l3.314.025c.15 0 .237-.075.237-.212 0-1.047-.374-2.168-2.105-2.168-1.084 0-2.492 1.034-2.492 2.928 0 .697.174 1.37.586 1.843.423.499 1.009.798 1.906.798.946 0 1.619-.436 2.117-1.084-.037-.125-.112-.187-.261-.2Zm12.348-4.21c.075.074.075.335 0 .41-.585.071-.763.27-1.009.797l-.107.233-.213.463a135.661 135.661 0 0 0-1.885 4.387 10.05 10.05 0 0 1-.51 1.071c-.449.798-.947.897-1.209.897-.336 0-.585-.2-.585-.46 0-.163.187-.536.548-.536.137 0 .187.037.361.037.312 0 .486-.112.623-.361.187-.386.338-.73.486-1.146.124-.35-.066-.92-.175-1.171l-1.409-3.277c-.326-.76-.488-.872-.982-.934-.075-.075-.075-.336 0-.41.249.012.585.024 1.009.024.448 0 .946-.012 1.407-.025.075.075.075.336 0 .411-.697.054-.633.284-.408.81l1.105 2.591c.106.247.21.213.297.012l1.236-2.852c.2-.449-.204-.523-.598-.56-.075-.076-.075-.337 0-.412.374.013.76.025 1.134.025.349 0 .635-.012.884-.025Zm1.896-.138c.1 0 .161.037.161.087l-.002.046-.007.127c-.015.269-.04.802-.04 1.247v2.629c0 2.354-.35 3.251-.935 3.725-.46.386-1.108.423-1.37.423-.237 0-.685-.174-.685-.536 0-.224.262-.473.399-.473.274 0 .423.2.548.324.087.087.249.137.386.137.623 0 .673-1.532.673-3.177V4.746c0-.71-.138-.785-.81-.847-.025-.075-.05-.274-.025-.349.86-.112 1.358-.224 1.707-.361ZM104.897 0c.112 0 .162.037.162.125 0 0-.05.498-.05 1.308v5.643c0 .61.112.847.909.91.075.074.075.26 0 .335-.76.088-1.196.274-1.47.499a.284.284 0 0 1-.237 0s-.105-.43-.137-.735c-.008-.087-.127-.065-.186-.016-.61.502-1.072.75-1.558.75-1.345 0-2.117-1.12-2.117-2.653 0-.922.324-1.657.86-2.192.497-.474 1.046-.748 1.868-.748.41 0 .922.212.971.212.088 0 .113-.025.113-.112V1.732c0-1.047-.15-.985-.798-1.022-.074-.075-.1-.274-.074-.374.498-.037 1.432-.211 1.744-.336Zm-2.093 3.662c-.25 0-.773.038-1.159.623-.187.262-.361.76-.361 1.657 0 1.557.698 2.292 1.37 2.292.312 0 .71-.2 1.171-.598.176-.152.2-.249.2-.486V4.784c0-.387-.038-.474-.212-.673-.25-.287-.56-.449-1.01-.449ZM113.259.635c.336 0 .598.35.598.648 0 .263-.3.598-.648.598-.299 0-.598-.324-.598-.648 0-.299.349-.598.648-.598Zm1.484 5.506c0 1.271.847 2.679 2.616 2.679.802 0 1.405-.283 1.83-.698.558-.546.811-1.33.811-2.093 0-1.295-.71-2.803-2.616-2.803-.82 0-1.496.337-1.952.872-.452.531-.689 1.256-.689 2.043Zm2.454-2.479c1.071 0 1.732.972 1.732 2.766 0 1.57-.81 1.956-1.396 1.956-1.295 0-1.719-1.57-1.719-2.53 0-1.083.262-2.192 1.383-2.192Z"/></svg>