<svg width="120" height="18" viewBox="0 0 120 18" fill="none" xmlns="http://www.w3.org/2000/svg">
<path fill-rule="evenodd" clip-rule="evenodd" d="M93.6128 11.0123C93.6128 11.3769 93.5744 11.5303 93.3058 11.7606C92.596 12.3745 91.982 12.6814 91.5024 12.6814C90.4664 12.6814 89.3921 11.5495 89.3921 9.15137C89.3921 7.77002 89.6606 7.00259 89.9484 6.59973C90.5431 5.698 91.3489 5.64047 91.7327 5.64047C92.4233 5.64047 92.9029 5.88986 93.2867 6.33115C93.5552 6.63809 93.6128 6.7724 93.6128 7.36713V11.0123ZM93.4018 12.432C93.4785 12.3553 93.6319 12.3169 93.6319 12.4512C93.6319 12.9117 93.843 13.5832 93.843 13.5832C93.9893 13.638 94.0484 13.6231 94.1866 13.5884L94.2075 13.5832C94.6296 13.2378 95.3586 12.95 96.529 12.8157C96.6441 12.7006 96.6441 12.4128 96.529 12.2977C95.3011 12.2018 95.1284 11.8373 95.1284 10.8972V2.20633C95.1284 0.95929 95.2052 0.191864 95.2052 0.191864C95.2052 0.0575562 95.1284 0 94.9557 0C94.4761 0.191864 93.0372 0.460449 92.2698 0.518005C92.2314 0.671478 92.2698 0.978455 92.3849 1.09357C92.4241 1.09583 92.4621 1.09784 92.4989 1.09973L92.5633 1.10303C93.4104 1.14578 93.6128 1.15604 93.6128 2.66675V5.12247C93.6128 5.25677 93.5744 5.29514 93.4401 5.29514C93.4204 5.29514 93.3539 5.27362 93.255 5.24167L93.2543 5.24139L93.2535 5.24112C92.9674 5.14844 92.4133 4.96899 91.9436 4.96899C90.6775 4.96899 89.8333 5.39105 89.0659 6.12009C88.241 6.94507 87.7421 8.07697 87.7421 9.49667C87.7421 11.8565 88.9316 13.5832 91.0036 13.5832C91.7518 13.5832 92.4617 13.1995 93.4018 12.432ZM15.9183 0.729034C15.7073 0.671478 15.4963 0.690674 15.3044 0.729034C14.748 1.61157 13.8655 2.64758 13.1749 3.41498C13.29 3.58765 13.4242 3.70276 13.5969 3.74112C14.3451 3.31906 14.9783 2.7627 15.5922 2.14877C16.1678 2.7435 16.8392 3.28067 17.5683 3.74112C17.741 3.72195 17.9136 3.54929 18.0095 3.41498C17.3188 2.64758 16.4747 1.63074 15.9183 0.729034ZM16.6858 11.0507V7.23282C16.6858 6.27356 16.7625 5.04572 16.7625 5.04572C16.7625 4.96899 16.6665 4.91144 16.5131 4.91144C15.9567 5.12247 15.2085 5.29514 13.8847 5.4678C13.8464 5.58292 13.8847 5.88986 13.9231 6.00497C14.9591 6.12009 15.1701 6.216 15.1701 7.30957V11.0507C15.1701 12.6431 14.9591 12.7006 13.7888 12.7966C13.6737 12.9117 13.6737 13.3145 13.7888 13.4297C13.9671 13.4254 14.1304 13.4212 14.2857 13.4171C14.8323 13.403 15.2802 13.3913 15.9375 13.3913C16.7625 13.3913 17.2421 13.4105 18.0671 13.4297C18.1822 13.3145 18.1822 12.9117 18.0671 12.7966C16.8968 12.7198 16.6858 12.6431 16.6858 11.0507ZM10.4655 3.56842V9.97629C10.4655 10.3408 10.4655 10.5518 10.3312 10.5518C10.2162 10.5518 10.0688 10.3578 9.76793 9.96176C9.66734 9.82938 9.54967 9.67444 9.41032 9.49664L2.82982 1.01678L0.239792 0.978424C0.12468 1.09354 0.12468 1.49643 0.239792 1.61154C1.06474 1.6691 1.6403 2.34058 1.75542 2.83939V10.8396C1.75542 12.5471 1.42931 12.6622 0.0862885 12.7965C-0.0287628 12.9116 -0.0287628 13.3145 0.0862885 13.4296C0.379623 13.4236 0.616989 13.4177 0.830246 13.4122L0.842331 13.412L0.844162 13.4119L0.851486 13.4117C1.31145 13.4001 1.66313 13.3913 2.23509 13.3913C2.78587 13.3913 3.12285 13.3998 3.57152 13.4112C3.79485 13.4169 4.04582 13.4232 4.36461 13.4296C4.47972 13.3145 4.47972 12.9116 4.36461 12.7965C3.02165 12.6622 2.69548 12.5855 2.69548 10.8396V4.96893C2.69548 4.31665 2.69548 4.02887 2.84898 4.02887C2.9641 4.02887 3.17516 4.23993 3.50127 4.66199L10.1969 13.1227C10.4079 13.4104 10.6574 13.5831 10.9643 13.5831C11.233 13.5831 11.4056 13.3529 11.4056 12.9884V3.56842C11.4056 1.86093 11.7317 1.74585 13.0747 1.61154C13.1898 1.49643 13.1898 1.09354 13.0747 0.978424C12.7765 0.984528 12.5362 0.990601 12.3202 0.996063H12.3196C11.8549 1.00784 11.5022 1.01678 10.9259 1.01678C10.3754 1.01678 10.0384 1.00821 9.58989 0.996796H9.58934H9.58824C9.45952 0.99353 9.32164 0.990051 9.16685 0.98645C9.05345 0.983795 8.93095 0.98111 8.79643 0.978424C8.68132 1.09354 8.68132 1.49643 8.79643 1.61154C10.1394 1.74585 10.4655 1.82257 10.4655 3.56842ZM24.2732 5.02655C24.2732 4.98819 24.3307 4.91144 24.3883 4.91144C24.5024 4.93829 24.5742 4.97687 24.6465 5.01569C24.7809 5.08786 24.9167 5.16086 25.3284 5.16086H29.2229C29.6152 5.16086 30.0359 5.09409 30.2837 5.05472L30.285 5.05453L30.2856 5.05444C30.3884 5.03812 30.461 5.02655 30.4892 5.02655C30.6235 5.02655 30.7194 5.08411 30.7194 5.16086C30.7194 5.23761 30.6235 5.4678 30.2973 5.96661L25.6929 12.739H28.2446C29.3573 12.739 29.6834 12.221 30.1438 11.2042L30.3932 10.6478C30.6235 10.6478 30.8345 10.7245 30.9688 10.7821C30.6427 11.8949 30.4508 12.7966 30.3549 13.3913H24.3691C24.0813 13.3913 23.9278 13.2954 23.9278 13.1611C23.9278 13.0652 23.947 13.0076 24.1005 12.7774L28.8201 5.81314H26.1725C25.597 5.81314 25.0022 6.21603 24.6185 7.61658C24.3883 7.67413 24.1389 7.63574 23.9854 7.55902C24.1389 6.61893 24.254 5.88989 24.2732 5.02655ZM36.9705 8.92114V11.4728C36.9705 11.7222 36.8554 11.8565 36.7019 11.9716C36.2031 12.3745 35.5508 12.7966 35.0136 12.7966C34.0544 12.7966 33.6323 12.0291 33.6323 11.4344C33.6323 10.5711 34.0351 9.70776 35.4549 9.32404L36.9705 8.92114ZM36.9705 12.4704C37.0856 12.8733 37.4118 13.5832 38.4478 13.5832C39.3879 13.5832 40.0785 12.8158 40.0785 12.7198C40.0785 12.5855 39.9059 12.3937 39.8291 12.3937C39.789 12.3937 39.7535 12.4309 39.7073 12.4795C39.621 12.5703 39.4969 12.7007 39.2344 12.7007C38.4861 12.7007 38.467 11.9524 38.467 11.0699V8.2113C38.467 5.487 36.9705 4.96899 35.57 4.96899C33.9968 4.96899 32.4044 6.06253 32.4044 7.09854C32.4044 7.55899 32.6346 7.77002 33.0759 7.77002C33.6322 7.77002 33.92 7.38632 33.92 7.1369C33.92 7.1084 33.9192 7.0799 33.9175 7.05194C33.9161 7.02994 33.9142 7.0083 33.9117 6.98727C33.9075 6.95062 33.9017 6.91583 33.8942 6.88428C33.8857 6.84851 33.8752 6.81693 33.8625 6.7916C33.8433 6.73404 33.8241 6.61893 33.8241 6.4079C33.8241 5.81314 34.6875 5.60211 35.4165 5.60211C36.0688 5.60211 36.9705 5.92825 36.9705 8.09619C36.9705 8.2305 36.9129 8.30722 36.8554 8.32639L35.2055 8.72931C33.3637 9.18976 32.0399 10.2066 32.0399 11.5112C32.0399 13.0268 33.1143 13.5832 34.4573 13.5832C35.3398 13.5832 35.7043 13.4297 36.5484 12.7774L36.9321 12.4704H36.9705ZM42.0361 11.0507V7.3096C42.0361 6.25439 41.825 6.10092 40.789 6.005C40.7123 5.88989 40.7123 5.58292 40.7507 5.4678C42.0744 5.29514 42.8418 5.12247 43.379 4.91144C43.5325 4.91144 43.6284 4.96899 43.6284 5.04575C43.6284 5.04575 43.5325 5.96661 43.5325 6.58054C43.5325 6.67648 43.5901 6.7724 43.7052 6.56137C44.1464 5.81314 44.933 4.96899 45.8347 4.96899C46.6405 4.96899 46.9858 5.52539 46.9858 5.88989C46.9858 6.36954 46.5446 6.84915 46.0842 6.84915C45.7694 6.84915 45.5834 6.62665 45.4256 6.43784C45.3815 6.38498 45.3395 6.33475 45.2975 6.29279C45.1824 6.17767 45.029 6.15848 44.8946 6.15848C44.6644 6.15848 44.2232 6.7916 44.0121 7.09854C43.7819 7.44388 43.5517 7.88513 43.5517 8.38397V11.0507C43.5517 12.6431 43.7819 12.7007 45.1249 12.7966C45.24 12.9117 45.24 13.3146 45.1249 13.4297L44.8453 13.4231C44.1361 13.4063 43.4999 13.3913 42.8035 13.3913C42.1689 13.3913 41.6393 13.4044 41.0194 13.4198L41.0159 13.4199L40.6163 13.4297C40.5013 13.3146 40.5013 12.9117 40.6163 12.7966C41.8058 12.7198 42.0361 12.6431 42.0361 11.0507ZM48.8294 2.35977C48.8294 2.85861 49.2323 3.26151 49.7311 3.26151C50.2299 3.26151 50.6328 2.85861 50.6328 2.35977C50.6328 1.86096 50.2299 1.4389 49.7311 1.4389C49.2323 1.4389 48.8294 1.86096 48.8294 2.35977ZM52.0717 2.35977C52.0717 2.85861 52.4745 3.26151 52.9734 3.26151C53.4722 3.26151 53.8751 2.85861 53.8751 2.35977C53.8751 1.86096 53.4722 1.4389 52.9734 1.4389C52.4745 1.4389 52.0717 1.86096 52.0717 2.35977ZM52.8583 8.92114V11.4728C52.8583 11.7222 52.7431 11.8565 52.5896 11.9716C52.0909 12.3745 51.4386 12.7966 50.9014 12.7966C49.9421 12.7966 49.5201 12.0291 49.5201 11.4344C49.5201 10.5711 49.9229 9.70773 51.3426 9.32404L52.8583 8.92114ZM52.8583 12.4704C52.9734 12.8733 53.2995 13.5832 54.3356 13.5832C55.2756 13.5832 55.9663 12.8157 55.9663 12.7198C55.9663 12.5855 55.7936 12.3937 55.7168 12.3937C55.6767 12.3937 55.6413 12.4309 55.5951 12.4795C55.5087 12.5703 55.3847 12.7006 55.1221 12.7006C54.3739 12.7006 54.3547 11.9524 54.3547 11.0699V8.2113C54.3547 5.487 52.8583 4.96899 51.4577 4.96899C49.8846 4.96899 48.2922 6.06253 48.2922 7.09854C48.2922 7.55899 48.5224 7.77002 48.9637 7.77002C49.52 7.77002 49.8078 7.38632 49.8078 7.1369C49.8078 7.00259 49.7886 6.86832 49.7502 6.7916C49.7311 6.73404 49.7119 6.61893 49.7119 6.4079C49.7119 5.81314 50.5752 5.60211 51.3042 5.60211C51.9566 5.60211 52.8583 5.92825 52.8583 8.09619C52.8583 8.23047 52.8007 8.30719 52.7431 8.32639L51.0932 8.72928C49.2514 9.18973 47.9277 10.2065 47.9277 11.5111C47.9277 13.0268 49.0021 13.5832 50.345 13.5832C51.2275 13.5832 51.592 13.4297 52.4362 12.7774L52.8199 12.4704H52.8583ZM61.8567 13.3913C61.8567 12.5855 61.7992 11.6838 61.7225 10.7437C61.8376 10.6286 62.2021 10.6094 62.3172 10.7245L62.342 10.829C62.4576 11.319 62.6368 12.0789 63.0654 12.4896C63.2573 12.7007 63.6794 12.95 64.4276 12.95C65.1374 12.95 66.0583 12.5471 66.0583 11.6071C66.0583 10.7821 65.6746 10.3984 64.1014 9.72693C62.6242 9.11301 61.9911 8.51825 61.9911 7.11774C61.9911 5.88986 63.2765 4.96899 64.6962 4.96899C65.4256 4.96899 66.1139 5.11258 66.6639 5.22726C66.7352 5.24216 66.8042 5.25656 66.8708 5.27008C66.9348 5.28311 66.9965 5.29535 67.0556 5.30646C67.109 5.31647 67.1603 5.32556 67.2095 5.3335C67.2012 5.6041 67.1791 5.88876 67.1564 6.17987L67.1562 6.18134C67.1257 6.57092 67.0943 6.97217 67.0943 7.36716C66.9792 7.48227 66.5955 7.50143 66.4804 7.38632C66.231 5.75558 65.1183 5.60211 64.6962 5.60211C64.0439 5.60211 63.3532 6.04337 63.3532 6.82996C63.3532 7.87881 64.1114 8.16943 65.251 8.60623L65.2717 8.6142C66.5571 9.11301 67.5164 9.86124 67.5164 11.1658C67.5164 13.0652 65.5403 13.5832 64.4659 13.5832C63.7561 13.5832 63.2381 13.5064 62.7201 13.3721C62.5858 13.3337 62.4707 13.3337 62.3364 13.3337C62.2405 13.3337 62.0486 13.3529 61.8567 13.3913ZM72.923 0.729034C72.712 0.671478 72.501 0.690674 72.3091 0.729034C71.7527 1.61157 70.8702 2.64758 70.1796 3.41498C70.2947 3.58765 70.4289 3.70276 70.6016 3.74112C71.3498 3.31906 71.983 2.7627 72.5969 2.14877C73.1725 2.7435 73.8439 3.28067 74.573 3.74112C74.7457 3.72195 74.9183 3.54929 75.0142 3.41498C74.3235 2.64758 73.4794 1.63074 72.923 0.729034ZM70.5249 7.98105C70.8894 5.81314 72.2323 5.64047 72.6928 5.64047C73.4219 5.64047 74.2852 6.04337 74.2852 7.65494C74.2852 7.82758 74.2084 7.92349 73.9974 7.92349L70.5249 7.98105ZM75.5514 11.6071C74.8415 12.3361 74.2852 12.6431 73.1725 12.6431C72.4818 12.6431 71.676 12.2402 71.0812 11.2617C70.6976 10.6286 70.4673 9.74609 70.4673 8.63336L75.5706 8.67172C75.8008 8.67172 75.9351 8.55661 75.9351 8.34558C75.9351 6.73401 75.3595 5.00735 72.6928 5.00735C71.0237 5.00735 68.8558 6.5997 68.8558 9.51587C68.8558 10.5902 69.1244 11.6263 69.7575 12.3553C70.4098 13.1227 71.3114 13.5832 72.6928 13.5832C74.1509 13.5832 75.1869 12.9117 75.9543 11.914C75.8967 11.7222 75.7816 11.6263 75.5514 11.6071ZM80.2494 6.53302L80.2569 6.52298C81.4272 5.21838 82.3481 4.96899 83.2881 4.96899C83.9596 4.96899 84.5544 5.19922 84.8805 5.62131C85.3218 6.21603 85.3985 7.13693 85.3985 8.19211V11.0507C85.3985 12.6239 85.6095 12.7007 86.6839 12.7966C86.7798 12.9117 86.7798 13.3146 86.6839 13.4297C86.4632 13.4246 86.2715 13.4194 86.0937 13.4146L86.0853 13.4144H86.0837H86.0831C85.6016 13.4015 85.2223 13.3913 84.6503 13.3913C84.1 13.3913 83.7469 13.4012 83.2941 13.4138C83.1155 13.4188 82.9214 13.4243 82.6934 13.4297C82.5975 13.3146 82.5975 12.9117 82.6934 12.7966C83.691 12.7007 83.8829 12.6239 83.8829 11.0507V8.13455C83.8829 7.55902 83.8445 7.04099 83.6526 6.65729C83.4224 6.21603 83.0195 5.96661 82.6358 5.96661C81.8876 5.96661 81.1394 6.3887 80.4103 7.09854C80.2569 7.27121 80.0842 7.50143 80.0842 7.90433V11.0507C80.0842 12.6239 80.2569 12.7007 81.2353 12.7966C81.3504 12.9117 81.3504 13.3146 81.2353 13.4297C81.164 13.428 81.0962 13.4263 81.0315 13.4246L80.898 13.4211L80.6096 13.4129C80.1853 13.4007 79.8591 13.3913 79.336 13.3913C78.6887 13.3913 78.2422 13.4031 77.7001 13.4175H77.6991C77.5505 13.4214 77.3947 13.4256 77.2256 13.4297C77.1105 13.3146 77.1105 12.9117 77.2256 12.7966C78.3767 12.7007 78.5686 12.6239 78.5686 11.0507V7.3096C78.5686 6.19684 78.3575 6.10092 77.3215 6.005C77.2831 5.88989 77.2448 5.58292 77.2832 5.4678C78.6069 5.29514 79.3935 5.12247 79.9307 4.91144C80.0842 4.91144 80.1609 4.96899 80.1609 5.06491C80.1609 5.06491 80.065 5.94742 80.065 6.52298C80.065 6.78052 80.1885 6.61478 80.2494 6.53302ZM100.517 0.729034C100.709 0.690674 100.92 0.671478 101.131 0.729034C101.687 1.63074 102.531 2.64758 103.222 3.41498C103.126 3.54929 102.953 3.72195 102.781 3.74112C102.052 3.28067 101.38 2.7435 100.805 2.14877C100.191 2.7627 99.5575 3.31906 98.8092 3.74112C98.6366 3.70276 98.5023 3.58765 98.3872 3.41498C99.0779 2.64758 99.9604 1.61157 100.517 0.729034ZM102.32 11.4728V8.92114L100.805 9.32404C99.3848 9.70773 98.982 10.5711 98.982 11.4344C98.982 12.0291 99.404 12.7966 100.363 12.7966C100.9 12.7966 101.553 12.3745 102.052 11.9716C102.205 11.8565 102.32 11.7222 102.32 11.4728ZM103.797 13.5832C102.761 13.5832 102.435 12.8733 102.32 12.4704H102.282L101.898 12.7774C101.054 13.4297 100.689 13.5832 99.8069 13.5832C98.464 13.5832 97.3896 13.0268 97.3896 11.5111C97.3896 10.2065 98.7134 9.18973 100.555 8.72928L102.205 8.32639C102.263 8.30719 102.32 8.23047 102.32 8.09619C102.32 5.92825 101.418 5.60208 100.766 5.60208C100.037 5.60208 99.1738 5.81314 99.1738 6.40787C99.1738 6.61893 99.193 6.73401 99.2121 6.79156C99.2505 6.86832 99.2697 7.00259 99.2697 7.1369C99.2697 7.38632 98.982 7.77002 98.4256 7.77002C97.9843 7.77002 97.7541 7.55899 97.7541 7.09854C97.7541 6.06253 99.3465 4.96899 100.92 4.96899C102.32 4.96899 103.817 5.487 103.817 8.2113V11.0699C103.817 11.9524 103.836 12.7006 104.584 12.7006C104.847 12.7006 104.971 12.5703 105.057 12.4795C105.103 12.4309 105.139 12.3937 105.179 12.3937C105.256 12.3937 105.428 12.5855 105.428 12.7198C105.428 12.8157 104.738 13.5832 103.797 13.5832ZM111.587 8.03864C111.587 9.82285 110.686 10.1874 109.976 10.1874C108.364 10.1874 108.191 8.82523 108.191 7.59738C108.191 6.25443 108.671 5.56375 109.726 5.56375C110.935 5.56375 111.587 6.44626 111.587 8.03864ZM108 13.5832C108.211 13.6407 108.518 13.6791 108.767 13.6791C109.122 13.6791 109.457 13.6586 109.726 13.6421L109.727 13.642L109.729 13.6419C109.909 13.6308 110.06 13.6216 110.168 13.6216C111.127 13.6216 111.933 13.6407 112.489 13.9477C113.237 14.3698 113.467 14.6383 113.467 15.1372C113.467 16.5185 111.434 17.2476 109.707 17.2476C109.016 17.2476 107.405 16.6912 107.405 15.3866C107.405 14.7343 107.443 14.2546 108 13.5832ZM113.985 5.96661C114.35 5.96661 114.695 5.62131 114.695 5.23761C114.695 4.83472 114.331 4.52774 113.813 4.52774C113.314 4.52774 112.393 4.85388 111.894 5.50616C111.664 5.35269 111.031 4.96899 109.899 4.96899C108.191 4.96899 106.618 6.12012 106.618 7.88513C106.618 8.92114 107.079 9.5159 107.616 10.0339C107.079 10.4944 106.772 11.3193 106.772 11.9716C106.772 12.6623 107.155 13.1995 107.654 13.4489C106.618 14.0628 106.081 14.9453 106.081 15.7703C106.081 17.4394 107.654 17.9574 109.132 17.9574C111.722 17.9574 114.523 16.7104 114.523 14.6384C114.523 14.0244 114.235 13.5448 113.678 13.0844C112.93 12.4704 111.587 12.4512 110.877 12.4512C110.532 12.4512 110.052 12.4896 109.592 12.5471C109.482 12.5545 109.386 12.5618 109.305 12.568C109.172 12.5782 109.076 12.5855 109.016 12.5855C108.46 12.5855 107.789 12.3169 107.789 11.492C107.789 11.1083 107.904 10.7054 108.134 10.3792C108.594 10.6478 109.132 10.7821 109.88 10.7821C111.568 10.7821 113.122 9.72693 113.122 7.84677C113.122 6.94507 112.853 6.42709 112.297 5.85153C112.431 5.65967 112.815 5.39105 113.064 5.39105C113.199 5.39105 113.333 5.44864 113.448 5.62131C113.525 5.77478 113.774 5.96661 113.985 5.96661ZM117.151 0.729034C117.343 0.690674 117.554 0.671478 117.765 0.729034C118.321 1.63074 119.165 2.64758 119.856 3.41498C119.76 3.54929 119.588 3.72195 119.415 3.74112C118.686 3.28067 118.014 2.7435 117.439 2.14877C116.825 2.7627 116.192 3.31906 115.444 3.74112C115.271 3.70276 115.137 3.58765 115.021 3.41498C115.712 2.64758 116.595 1.61157 117.151 0.729034ZM118.532 7.23282V11.0507C118.532 12.6431 118.743 12.7198 119.914 12.7966C120.029 12.9117 120.029 13.3145 119.914 13.4297C119.714 13.425 119.535 13.4204 119.367 13.416C118.837 13.4023 118.41 13.3913 117.784 13.3913C117.127 13.3913 116.679 13.403 116.132 13.4171C115.977 13.4212 115.814 13.4254 115.635 13.4297C115.52 13.3145 115.52 12.9117 115.635 12.7966C116.806 12.7006 117.017 12.6431 117.017 11.0507V7.30957C117.017 6.216 116.806 6.12009 115.77 6.00497C115.731 5.88986 115.693 5.58292 115.731 5.4678C117.055 5.29514 117.803 5.12247 118.36 4.91144C118.513 4.91144 118.609 4.96899 118.609 5.04572C118.609 5.04572 118.532 6.27356 118.532 7.23282Z" fill="black"/>
</svg>
