<?xml version="1.0" encoding="UTF-8"?>
<svg width="120px" height="14px" viewBox="0 0 120 14" version="1.1" xmlns="http://www.w3.org/2000/svg" xmlns:xlink="http://www.w3.org/1999/xlink">
    <title>wikipedia-tagline-uz</title>
    <g id="Page-1" stroke="none" stroke-width="1" fill="none" fill-rule="evenodd">
        <path d="M4.21448732,1.06078932 C6.16404411,1.06078932 7.64055014,2.58030124 7.64055014,5.56197636 C7.64055014,8.12793774 6.40773927,9.66178375 4.77355196,9.66178375 C3.05335475,9.66178375 1.37615912,8.07059678 1.37615912,5.31828152 C1.37615912,2.30793642 2.91000444,1.06078932 4.21448732,1.06078932 M9.01670926,5.28961153 C9.01670926,2.45128633 6.90946311,0.573399635 4.4008422,0.573399635 C1.83488142,0.573399635 0,2.75232114 0,5.56197636 C0,8.38596658 2.0212362,10.1491734 4.48685214,10.1491734 C7.22483261,10.1491734 9.01670926,8.15660672 9.01670926,5.28961153 M15.3102182,8.70133936 C15.2528783,8.57232444 15.1381982,8.51498448 15.0091834,8.50064949 C14.5217942,9.13138809 13.9053885,9.44675889 13.2889845,9.44675889 C12.2425312,9.44675889 11.3680957,8.38596757 11.3680957,6.70877563 C11.3680957,5.13192863 12.0561762,4.18581724 13.0022847,4.18581724 C13.8480483,4.18581724 13.9627291,4.68754291 14.020069,5.1892666 C14.0630739,5.57631135 14.2637642,5.70532627 14.5647987,5.70532627 C14.8658332,5.70532627 15.2672133,5.51897139 15.2672133,5.07458667 C15.2672133,4.28616317 14.4501174,3.71276254 13.0739596,3.71276254 C11.6547969,3.71276254 10.1352865,4.98857872 10.1352865,7.02414543 C10.1352865,8.87335726 11.1674077,10.1491734 12.9736147,10.1491734 C13.8337133,10.1491734 14.5934694,9.87680762 15.3102182,8.70133936 M18.0744071,5.92035113 C18.0744071,5.60498133 18.2034231,5.43296144 18.318102,5.30394652 C18.8628316,4.77355286 19.4935722,4.45818206 20.0669709,4.45818206 C20.3536707,4.45818206 20.6547065,4.65887194 20.8267254,4.97424173 C20.9700753,5.26094155 20.9987453,5.6479873 20.9987453,6.07803603 L20.9987453,8.25695465 C20.9987453,9.4324229 20.8553954,9.48976386 20.1099758,9.56143881 C20.0383019,9.64744876 20.0383019,9.94848357 20.1099758,10.0344935 C20.7120455,10.0201585 20.9987463,10.0058235 21.5721449,10.0058235 C22.1598795,10.0058235 22.4752503,10.0201585 23.0916539,10.0344935 C23.1633289,9.94848357 23.1633289,9.64744876 23.0916539,9.56143881 C22.2888955,9.48976386 22.1312096,9.4324229 22.1312096,8.25695465 L22.1312096,6.121041 C22.1312096,5.3326175 22.0738696,4.64453694 21.7441648,4.20015223 C21.500471,3.88478243 21.0560852,3.71276254 20.5543606,3.71276254 C19.837612,3.71276254 19.0778565,3.89911841 18.2034221,4.8738968 C18.1460831,4.93123676 18.0600721,5.07458667 18.0600721,4.8738968 L18.0744071,1.64852395 C18.0744071,0.71675044 18.1317471,0.143349909 18.1317471,0.143349909 C18.1317471,0.0430050722 18.0744071,2.66453526e-15 17.9453922,2.66453526e-15 C17.5870184,0.14334971 16.5118931,0.344039781 15.9384935,0.387044754 C15.9098245,0.501724581 15.9384945,0.731084634 16.0245034,0.81709448 C16.769923,0.860099353 16.9419429,0.788425693 16.9419429,1.99256363 L16.9419429,8.25695465 C16.9419429,9.44675789 16.769923,9.50409885 15.9384935,9.56143881 C15.8524845,9.64744876 15.8524845,9.94848357 15.9384935,10.0344935 C16.5262281,10.0201585 16.8989389,10.0058235 17.5153425,10.0058235 C18.0744071,10.0058235 18.318103,10.0201585 18.9201716,10.0344935 C19.0061815,9.94848357 19.0061815,9.64744876 18.9201716,9.56143881 C18.2034231,9.50409885 18.0744071,9.44675789 18.0744071,8.25695465 L18.0744071,5.92035113 M24.5860767,1.4191641 C24.5860767,1.79187346 24.9301175,2.16458352 25.2741563,2.16458352 C25.6755361,2.16458352 26.0195758,1.79187356 26.0195758,1.47650406 C26.0195758,1.13246458 25.718541,0.731084535 25.3314963,0.731084535 C24.9874575,0.731084535 24.5860767,1.07512461 24.5860767,1.4191641 M25.8905609,8.25695465 L25.8905609,5.40429146 C25.8905609,4.68754291 25.9479009,3.7701025 25.9479009,3.7701025 C25.9479009,3.71276254 25.8762259,3.66975756 25.761546,3.66975756 C25.3458323,3.82744246 24.7867656,3.95645738 23.7976522,4.0854723 C23.7689833,4.17148225 23.7976532,4.4008421 23.8263222,4.48685204 C24.6004117,4.57286199 24.7580966,4.64453794 24.7580966,5.46163142 L24.7580966,8.25695465 C24.7580966,9.44675789 24.6004117,9.48976386 23.7259773,9.56143881 C23.6399683,9.64744876 23.6399683,9.94848357 23.7259773,10.0344935 C24.3280469,10.0201585 24.7007577,10.0058235 25.3314963,10.0058235 C25.9479009,10.0058235 26.3062766,10.0201585 26.9226803,10.0344935 C27.0086902,9.94848357 27.0086902,9.64744876 26.9226803,9.56143881 C26.0482468,9.50409885 25.8905609,9.44675789 25.8905609,8.25695465 M31.8035207,4.73054689 C32.0902205,5.04591669 32.1475604,5.26094155 32.1475604,5.60498133 L32.1475604,8.90202923 C32.1475604,9.16005907 32.1332255,9.23173402 31.9468706,9.33207896 C31.6028318,9.50409885 31.215786,9.51843384 31.0007612,9.51843384 C30.1693327,9.51843384 28.9221875,8.91636223 28.9221875,6.7517806 C28.9221875,5.26094354 29.5242591,4.20015223 30.6710564,4.20015223 C31.1011061,4.20015223 31.4881519,4.38650711 31.8035207,4.73054689 M32.1475604,11.5970075 C32.1475604,12.7868108 31.9898755,12.8441517 31.1154411,12.8871567 C31.0294322,12.9731666 31.0294322,13.2742015 31.1154411,13.3602114 C31.7175107,13.3458764 32.0902215,13.3315414 32.7209601,13.3315414 C33.3373647,13.3315414 33.6957405,13.3458764 34.3121441,13.3602114 C34.398154,13.2742015 34.398154,12.9731666 34.3121441,12.8871567 C33.4377106,12.8441517 33.2800247,12.7868108 33.2800247,11.5970075 L33.2800247,4.02813234 C33.2800247,3.82744246 33.2226848,3.66975756 33.0649999,3.66975756 C32.9646559,3.66975756 32.878645,3.78443749 32.7639651,3.94212239 C32.5776112,4.20015223 32.5202702,4.2431572 32.3482503,4.14281226 C31.8895316,3.84177746 31.330466,3.71276254 30.7283964,3.71276254 C28.9795295,3.71276254 27.6893783,5.14626362 27.6893783,7.03848042 C27.6893783,8.37163358 28.5924857,10.1491734 30.6567214,10.1491734 C31.0437661,10.1491734 31.5024869,10.0774985 31.7605157,9.93414858 C32.0902205,9.73345871 32.1475604,9.70478872 32.1475604,10.0058235 L32.1475604,11.5970075 M41.9083453,4.83089183 L40.6038612,4.83089183 L40.6038612,1.96389365 C40.6038612,1.61985427 40.775882,1.33315415 41.1199208,1.33315415 L42.6250949,1.33315415 C43.7002182,1.33315415 43.92958,1.90655468 44.2449488,2.89566806 C44.4169687,2.92433804 44.5746546,2.89566806 44.7180035,2.8239931 C44.6463296,2.23625947 44.4313037,0.860099353 44.4026337,0.745419526 C44.4026337,0.716749544 44.3882988,0.702414553 44.3452938,0.702414553 C44.1015999,0.745419426 43.986919,0.759754516 43.6428792,0.759754516 L39.9874566,0.759754516 C39.9874566,0.759754516 38.8549923,0.745419526 38.1382427,0.731084535 C38.0522338,0.81709438 38.0522338,1.11812939 38.1382427,1.20413923 C39.1416911,1.24714411 39.3853869,1.31882036 39.3853869,2.5086233 L39.3853869,8.25695465 C39.3853869,9.44675789 39.1416911,9.51843384 38.1382427,9.56143881 C38.0522338,9.64744876 38.0522338,9.94848357 38.1382427,10.0344935 C38.8406573,10.0201585 40.0017915,10.0058235 40.0017915,10.0058235 L43.0838146,10.0058235 C43.7718941,10.0058235 44.9186934,10.0344935 44.9186934,10.0344935 C45.1193833,9.31774497 45.3344091,8.37163358 45.4490881,7.64055004 C45.2914042,7.56887508 45.1337183,7.52587011 44.9473634,7.56887508 C44.6606646,8.60099343 44.1589379,9.44675889 43.0694796,9.44675889 L41.1199208,9.44675889 C40.804552,9.44675889 40.6038612,9.21739903 40.6038612,8.83035428 L40.6038612,5.37562148 L41.9083453,5.37562148 C43.1268186,5.37562148 43.1698255,5.70532726 43.2128295,6.35040086 C43.2988394,6.4364108 43.5998752,6.4364108 43.6858842,6.35040086 C43.6715492,5.84867717 43.6572142,5.57631135 43.6572142,5.08892166 C43.6572142,4.60153297 43.6715492,4.28616217 43.6858842,3.85611245 C43.5998752,3.7701025 43.2988394,3.7701025 43.2128295,3.85611245 C43.1698255,4.64453595 43.1268186,4.83089183 41.9083453,4.83089183 M48.4999773,4.8738968 C48.4569733,4.93123676 48.3566274,5.07458667 48.3566274,4.8738968 C48.3566274,4.44384807 48.4283024,3.78443749 48.4283024,3.78443749 C48.4283024,3.71276254 48.3709624,3.66975756 48.2562825,3.66975756 C47.8549037,3.82744246 47.2671671,3.95645738 46.2780537,4.0854723 C46.2493847,4.17148225 46.2780547,4.4008421 46.3067237,4.48685204 C47.0808132,4.558527 47.2384981,4.63020295 47.2384981,5.46163142 L47.2384981,8.25695465 C47.2384981,9.4324229 47.0951482,9.48976386 46.2350487,9.56143881 C46.1490398,9.64744876 46.1490398,9.94848357 46.2350487,10.0344935 C46.8227834,10.0201585 47.1954941,10.0058235 47.8118977,10.0058235 C48.3709624,10.0058235 48.6289932,10.0201585 49.2310618,10.0344935 C49.3170718,9.94848357 49.3170718,9.64744876 49.2310618,9.56143881 C48.4999783,9.48976386 48.3709624,9.4324229 48.3709624,8.25695465 L48.3709624,5.90601614 C48.3709624,5.60498133 48.4999783,5.43296144 48.6146572,5.30394652 C49.1593869,4.77355286 49.7184525,4.45818206 50.2775162,4.45818206 C50.564216,4.45818206 50.8652518,4.64453694 51.0372707,4.97424173 C51.1806206,5.26094155 51.2092906,5.6479873 51.2092906,6.07803603 L51.2092906,8.25695465 C51.2092906,9.4324229 51.0659407,9.48976386 50.3205211,9.56143881 C50.2488472,9.64744876 50.2488472,9.94848357 50.3205211,10.0344935 C50.9225908,10.0201585 51.2092916,10.0058235 51.7826902,10.0058235 C52.3704248,10.0058235 52.6857956,10.0201585 53.3021992,10.0344935 C53.3738742,9.94848357 53.3738742,9.64744876 53.3021992,9.56143881 C52.4994408,9.48976386 52.3417549,9.4324229 52.3417549,8.25695465 L52.3417549,6.121041 C52.3417549,5.3326175 52.2844149,4.64453694 51.9547101,4.20015223 C51.7110163,3.88478243 51.2666305,3.71276254 50.7649059,3.71276254 C50.0624923,3.71276254 49.3744117,3.89911841 48.4999773,4.8738968 M54.2218785,8.02759479 C54.2792185,8.73000835 54.3222234,9.40375491 54.3222234,10.0058235 C54.4655734,9.97715355 54.6089243,9.96281856 54.6805982,9.96281856 C54.7809432,9.96281856 54.8669541,9.96281856 54.967298,9.99148854 C55.3543428,10.0918335 55.7413885,10.1491734 56.2717822,10.1491734 C57.0745417,10.1491734 58.5510458,9.76212769 58.5510458,8.34296459 C58.5510458,7.36818621 57.8342962,6.80912057 56.8738518,6.4364108 C56.0137534,6.10670601 55.4403527,5.89168016 55.4403527,5.10325665 C55.4403527,4.51552302 55.9564134,4.18581724 56.4438021,4.18581724 C56.7591719,4.18581724 57.5906024,4.30049816 57.7769562,5.51897139 C57.8629662,5.60498133 58.149667,5.59064634 58.235676,5.5046364 C58.235676,4.98857772 58.3073509,4.45818206 58.3216859,3.98512736 C57.8773022,3.91345241 57.1892216,3.71276254 56.4438021,3.71276254 C55.3830148,3.71276254 54.4225684,4.40084309 54.4225684,5.31828152 C54.4225684,6.36473485 54.8956251,6.80912156 55.9994174,7.26784027 C57.1748856,7.76956496 57.4615864,8.05626577 57.4615864,8.67266938 C57.4615864,9.37508294 56.7735069,9.67611874 56.2431122,9.67611874 C55.6840486,9.67611874 55.3686778,9.48976386 55.2253279,9.33207896 C54.8812891,9.00237417 54.7522732,8.37163457 54.6662632,8.0132598 C54.5802543,7.92724985 54.3078885,7.94158485 54.2218785,8.02759479 M60.3115618,1.4191641 C60.3115618,1.79187346 60.6556026,2.16458352 60.9996414,2.16458352 C61.4010211,2.16458352 61.7450609,1.79187356 61.7450609,1.47650406 C61.7450609,1.13246458 61.4440261,0.731084535 61.0569813,0.731084535 C60.7129426,0.731084535 60.3115618,1.07512461 60.3115618,1.4191641 M61.616046,8.25695465 L61.616046,5.40429146 C61.616046,4.68754291 61.673386,3.7701025 61.673386,3.7701025 C61.673386,3.71276254 61.601711,3.66975756 61.4870311,3.66975756 C61.0713173,3.82744246 60.5122507,3.95645738 59.5231373,4.0854723 C59.4944683,4.17148225 59.5231383,4.4008421 59.5518073,4.48685204 C60.3258968,4.57286199 60.4835817,4.64453794 60.4835817,5.46163142 L60.4835817,8.25695465 C60.4835817,9.44675789 60.3258968,9.48976386 59.4514624,9.56143881 C59.3654534,9.64744876 59.3654534,9.94848357 59.4514624,10.0344935 C60.053532,10.0201585 60.4262427,10.0058235 61.0569813,10.0058235 C61.673386,10.0058235 62.0317617,10.0201585 62.6481653,10.0344935 C62.7341753,9.94848357 62.7341753,9.64744876 62.6481653,9.56143881 C61.7737319,9.50409885 61.616046,9.44675789 61.616046,8.25695465 M64.1459479,8.25695465 C64.1459479,9.44675789 63.988263,9.50409885 63.1855035,9.56143881 C63.0994946,9.64744876 63.0994946,9.94848357 63.1855035,10.0344935 C63.7875731,10.0201585 64.1172789,10.0058235 64.7193475,10.0058235 C65.2210722,10.0058235 65.4074281,10.0201585 66.0238317,10.0344935 C66.1098416,9.94848357 66.1098416,9.64744876 66.0238317,9.56143881 C65.4360981,9.50409885 65.2784122,9.44675789 65.2784122,8.25695465 L65.2784122,6.96680547 C65.608117,6.98114046 65.8088078,7.08148539 66.0955067,7.48286514 L67.141961,8.9593692 C67.4286608,9.37508393 67.4716658,9.54710382 67.4716658,9.73345871 L67.4716658,9.96281856 C67.4716658,10.0058235 67.4860018,10.0344935 67.5290057,10.0344935 C67.8157056,10.0201585 68.0880714,10.0058235 68.5181201,10.0058235 C68.9625048,10.0058235 69.2635406,10.0201585 69.6935894,10.0344935 C69.7795993,9.94848357 69.7795993,9.64744876 69.6935894,9.56143881 C69.2062007,9.50409885 68.7761499,9.44675889 68.4607801,8.9593692 L66.7835862,6.47941578 C66.7405822,6.42207581 66.7119113,6.35040086 66.7119113,6.2787259 C66.7119113,6.22138594 66.7262472,6.17838097 66.7692512,6.135376 L67.8587105,4.93123676 C68.2744253,4.50118803 68.718811,4.32916715 69.4355595,4.30049716 C69.5215695,4.21448722 69.5215695,3.91345241 69.4355595,3.82744246 C68.9051659,3.84177746 68.704475,3.85611245 68.1884153,3.85611245 C67.6436867,3.85611245 67.3999908,3.84177746 66.8695962,3.82744246 C66.7835872,3.91345241 66.7835872,4.21448722 66.8695962,4.30049716 C67.7296956,4.34350214 67.2709759,4.88823179 67.127626,5.0315817 C66.3678725,5.86301017 65.6511219,6.49375077 65.2784122,6.60843069 L65.2784122,1.64852395 C65.2784122,0.71675044 65.3357521,0.143349909 65.3357521,0.143349909 C65.3357521,0.0430050722 65.2784122,2.66453526e-15 65.1493973,2.66453526e-15 C64.7910235,0.14334971 63.7158982,0.344039781 63.1424985,0.387044754 C63.1138295,0.501724581 63.1424995,0.731084634 63.2285085,0.81709448 C63.973928,0.860099353 64.1459479,0.788425693 64.1459479,1.99256363 L64.1459479,8.25695465 M71.190476,8.25695465 C71.190476,9.44675789 71.0327911,9.51843384 70.1583566,9.56143881 C70.0723477,9.64744876 70.0723477,9.94848357 70.1583566,10.0344935 C70.7604263,10.0201585 71.133137,10.0058235 71.7638756,10.0058235 C72.3802802,10.0058235 72.738656,10.0201585 73.3550596,10.0344935 C73.4410696,9.94848357 73.4410696,9.64744876 73.3550596,9.56143881 C72.4806262,9.51843384 72.3229403,9.44675789 72.3229403,8.25695465 L72.3229403,1.64852395 C72.3229403,0.71675044 72.3802802,0.143349909 72.3802802,0.143349909 C72.3802802,0.0430050722 72.3229403,2.66453526e-15 72.1939253,2.66453526e-15 C71.8355516,0.14334971 70.7604263,0.344039781 70.1870266,0.387044754 C70.1583576,0.501724581 70.1870276,0.731084634 70.2730366,0.81709448 C71.0184561,0.860099353 71.190476,0.788425693 71.190476,1.99256363 L71.190476,8.25695465 M74.1961204,7.0671504 C74.1961204,8.52931848 75.1852378,10.1491734 77.2064685,10.1491734 C79.3423801,10.1491734 80.2454866,8.37163358 80.2454866,6.93813548 C80.2454866,5.44729842 79.4570601,3.71276254 77.2351385,3.71276254 C75.2999167,3.71276254 74.1961204,5.24660855 74.1961204,7.0671504 M77.0774536,4.18581724 C78.3102618,4.18581724 79.0126773,5.28961352 79.0126773,7.39685519 C79.0126773,9.289072 78.1382429,9.67611874 77.4644983,9.67611874 C75.9736613,9.67611874 75.4289296,7.84123891 75.4289296,6.73744561 C75.4289296,5.4903024 75.8733163,4.18581724 77.0774536,4.18581724 M83.3405007,5.20360159 C83.7848854,4.74488288 84.358286,4.37217212 84.7883348,4.37217212 C85.7057742,4.37217212 86.4941987,5.40429345 86.4941987,7.02414543 C86.4941987,8.19961369 86.0784829,9.66178375 84.472965,9.66178375 C84.2149361,9.66178375 83.7132104,9.5901088 83.4551806,9.36074894 C83.1541468,9.10271911 83.1111408,9.03104415 83.1111408,8.50064949 L83.1111408,5.83434119 C83.1111408,5.53330638 83.1541468,5.40429146 83.3405007,5.20360159 M83.2258207,4.73054689 C83.1684818,4.78788685 83.0824708,4.80222184 83.0824708,4.68754192 C83.0824708,4.17148324 83.1398108,3.7701025 83.1398108,3.7701025 C83.1398108,3.71276254 83.0681359,3.66975756 82.9534559,3.66975756 C82.5520772,3.82744246 82.0073455,3.95645738 81.0182322,4.0854723 C80.9895632,4.17148225 81.0182332,4.4008421 81.0469021,4.48685204 C81.8209916,4.558527 81.9786765,4.64453794 81.9786765,5.46163142 L81.9786765,11.5826725 C81.9786765,12.7724758 81.8209916,12.8441517 80.9465572,12.8871567 C80.8605483,12.9731666 80.8605483,13.2742015 80.9465572,13.3602114 C81.5486268,13.3458764 81.9213376,13.3315414 82.5520762,13.3315414 C83.2258207,13.3315414 83.6702065,13.3458764 84.2866101,13.3602114 C84.37262,13.2742015 84.37262,12.9731666 84.2866101,12.8871567 C83.2688277,12.8298167 83.1111408,12.7724758 83.1111408,11.5826725 L83.1111408,10.0344935 C83.1111408,9.84813863 83.1541468,9.87680861 83.3118307,9.93414858 C83.6558705,10.0774985 84.1002562,10.1491734 84.5589749,10.1491734 C85.3617344,10.1491734 86.0784849,9.9054786 86.6662186,9.34641395 C87.3399631,8.68700537 87.7270079,7.79823394 87.7270079,6.63710068 C87.7270079,5.11759363 86.6518826,3.71276254 85.1897145,3.71276254 C84.6593208,3.71276254 83.8708953,4.0711383 83.2258207,4.73054689 M90.168884,5.9633561 C90.4412488,4.34350413 91.4446992,4.21448722 91.788738,4.21448722 C92.3334676,4.21448722 92.9785422,4.51552302 92.9785422,5.71966126 C92.9785422,5.84867618 92.9212022,5.92035113 92.7635173,5.92035113 L90.168884,5.9633561 M93.9246516,8.67266938 C93.3942579,9.21739903 92.9785422,9.44675889 92.1471127,9.44675889 C91.6310541,9.44675889 91.0289834,9.14572308 90.5845987,8.41463954 C90.2978999,7.94158584 90.125879,7.28217427 90.125879,6.45074579 L93.9389866,6.47941578 C94.1110065,6.47941578 94.2113514,6.39340583 94.2113514,6.23572093 C94.2113514,5.03158269 93.7812997,3.74143252 91.788738,3.74143252 C90.5415957,3.74143252 88.9217398,4.93123875 88.9217398,7.11015538 C88.9217398,7.91291387 89.1224306,8.68700537 89.5954844,9.23173402 C90.082874,9.80513366 90.7566206,10.1491734 91.788738,10.1491734 C92.8781963,10.1491734 93.6522878,9.64744776 94.2256864,8.90202923 C94.1826824,8.75867933 94.0966715,8.68700437 93.9246516,8.67266938 M99.8324597,8.22828466 C99.8324597,8.50064949 99.8037897,8.61532942 99.6030999,8.78734931 C99.0727062,9.24606902 98.6139855,9.47542887 98.2556107,9.47542887 C97.4815222,9.47542887 96.6787617,8.62966242 96.6787617,6.83779055 C96.6787617,5.8056722 96.8794526,5.23227157 97.0944765,4.93123676 C97.5388612,4.25749319 98.1409318,4.21448722 98.4276306,4.21448722 C98.9436903,4.21448722 99.302066,4.4008421 99.5887649,4.73054689 C99.7894547,4.95990674 99.8324597,5.06025268 99.8324597,5.5046364 L99.8324597,8.22828466 M99.6747748,9.28907399 C99.7321148,9.23173402 99.8467947,9.20306404 99.8467947,9.30340898 C99.8467947,9.64744876 100.00448,10.1491734 100.00448,10.1491734 C100.11916,10.1921784 100.162165,10.1778434 100.276844,10.1491734 C100.592214,9.8911436 101.136945,9.67611874 102.011378,9.57577381 C102.097388,9.48976386 102.097388,9.274739 102.011378,9.18872905 C101.09394,9.1170541 100.964924,8.84468828 100.964924,8.14227472 L100.964924,1.64852395 C100.964924,0.71675044 101.022264,0.143349909 101.022264,0.143349909 C101.022264,0.0430050722 100.964924,2.66453526e-15 100.835909,2.66453526e-15 C100.477535,0.14334971 99.40241,0.344039781 98.8290103,0.387044754 C98.8003414,0.501724581 98.8290113,0.731084634 98.9150203,0.81709448 C99.6604398,0.860099353 99.8324597,0.788425693 99.8324597,1.99256363 L99.8324597,3.82744246 C99.8324597,3.9277874 99.8037897,3.95645738 99.7034448,3.95645738 C99.6461058,3.95645738 99.0583702,3.71276254 98.5853155,3.71276254 C97.6392071,3.71276254 97.0084665,4.02813333 96.4350669,4.57286199 C95.8186633,5.1892656 95.4459525,6.03503205 95.4459525,7.09582038 C95.4459525,8.85902227 96.3347239,10.1491734 97.882901,10.1491734 C98.4419656,10.1491734 98.9723613,9.86247362 99.6747748,9.28907399 M103.428527,1.4191641 C103.428527,1.79187346 103.772567,2.16458352 104.116606,2.16458352 C104.517986,2.16458352 104.862026,1.79187356 104.862026,1.47650406 C104.862026,1.13246458 104.560991,0.731084535 104.173946,0.731084535 C103.829907,0.731084535 103.428527,1.07512461 103.428527,1.4191641 M104.733011,8.25695465 L104.733011,5.40429146 C104.733011,4.68754291 104.790351,3.7701025 104.790351,3.7701025 C104.790351,3.71276254 104.718676,3.66975756 104.603996,3.66975756 C104.188282,3.82744246 103.629215,3.95645738 102.640102,4.0854723 C102.611433,4.17148225 102.640103,4.4008421 102.668772,4.48685204 C103.442862,4.57286199 103.600546,4.64453794 103.600546,5.46163142 L103.600546,8.25695465 C103.600546,9.44675789 103.442862,9.48976386 102.568427,9.56143881 C102.482418,9.64744876 102.482418,9.94848357 102.568427,10.0344935 C103.170497,10.0201585 103.543207,10.0058235 104.173946,10.0058235 C104.790351,10.0058235 105.148726,10.0201585 105.765135,10.0344935 C105.851145,9.94848357 105.851145,9.64744876 105.765135,9.56143881 C104.890697,9.50409885 104.733011,9.44675789 104.733011,8.25695465 M109.011782,12.2994221 C109.226806,11.9123773 109.413161,11.4966626 109.599516,11.0666129 C110.746315,8.3142976 111.377055,6.82345357 112.13681,5.21793658 C112.337499,4.80222184 112.767549,4.34350214 113.297944,4.30049716 C113.383954,4.21448722 113.383954,3.91345241 113.297944,3.82744246 C112.939569,3.84177746 112.681539,3.85611245 112.280159,3.85611245 C111.778435,3.85611245 111.50607,3.84177746 110.975675,3.82744246 C110.889665,3.91345241 110.889665,4.21448722 110.975675,4.30049716 C111.42006,4.34350214 111.87878,4.42951308 111.663755,4.94557175 L110.230256,8.22828466 C110.129911,8.47197951 110.015231,8.50064949 109.886216,8.21394967 L108.624737,5.23227157 C108.366707,4.63020295 108.209022,4.37217212 109.083456,4.30049716 C109.169466,4.21448722 109.169466,3.91345241 109.083456,3.82744246 C108.553062,3.84177746 107.979662,3.85611245 107.463603,3.85611245 C106.976213,3.85611245 106.589168,3.84177746 106.302468,3.82744246 C106.216458,3.91345241 106.216458,4.21448722 106.302468,4.30049716 C106.933208,4.35783713 107.047888,4.47251805 107.434933,5.37562148 L109.054786,9.14572408 C109.183801,9.44675889 109.398826,10.0918335 109.255476,10.4932132 C109.097791,10.9806029 108.911437,11.3676487 108.696412,11.8120324 C108.538727,12.0987322 108.338037,12.2277471 107.979662,12.2277471 C107.778972,12.2277471 107.721632,12.1847421 107.563947,12.1847421 C107.148233,12.1847421 106.933208,12.6147919 106.933208,12.8011468 C106.933208,13.1021816 107.219908,13.3315414 107.606952,13.3315414 C107.907987,13.3315414 108.481387,13.2168605 108.997447,12.2994221 L109.011782,12.2994221 M117.677731,6.66577066 L117.677731,8.57232444 C117.677731,8.75867933 117.591722,8.85902426 117.477042,8.94503421 C117.104332,9.24606902 116.616942,9.56143881 116.215562,9.56143881 C115.498813,9.56143881 115.183443,8.98803918 115.183443,8.54365446 C115.183443,7.89858087 115.484478,7.25350528 116.545267,6.96680547 L117.677731,6.66577066 M117.677731,9.31774397 C117.763741,9.61877878 118.007436,10.1491734 118.781526,10.1491734 C119.48394,10.1491734 120,9.57577381 120,9.50409885 C120,9.40375392 119.870985,9.26040401 119.813645,9.26040401 C119.727635,9.26040401 119.670295,9.48976386 119.36926,9.48976386 C118.810196,9.48976386 118.795861,8.93069822 118.795861,8.27128964 L118.795861,6.135376 C118.795861,4.09980928 117.677731,3.71276254 116.631277,3.71276254 C115.455808,3.71276254 114.266004,4.52985801 114.266004,5.30394652 C114.266004,5.64798631 114.438024,5.80567121 114.767728,5.80567121 C115.183443,5.80567121 115.398468,5.51897139 115.398468,5.33261651 C115.398468,5.23227157 115.384133,5.13192663 115.355463,5.07458667 C115.341128,5.0315817 115.326793,4.94557175 115.326793,4.78788685 C115.326793,4.34350313 115.971868,4.18581724 116.516597,4.18581724 C117.003987,4.18581724 117.677731,4.42951407 117.677731,6.04936605 C117.677731,6.14971099 117.634727,6.20705095 117.591722,6.22138594 L116.358912,6.52242075 C114.982753,6.86646053 113.993639,7.62621604 113.993639,8.60099443 C113.993639,9.73345771 114.796398,10.1491734 115.799848,10.1491734 C116.459257,10.1491734 116.731622,10.0344935 117.362362,9.54710382 L117.649061,9.31774397 L117.677731,9.31774397" id="wikipedia-tagline-uz" fill="#000000" fill-rule="nonzero"></path>
    </g>
</svg>