<svg xmlns="http://www.w3.org/2000/svg" data-name="Layer 2" viewBox="0 0 110.97 24.08"><g data-name="Layer 1"><path d="m3.34 5.68 3.03 7.16 3.05-7.16h3.16L7.13 18.1H5.5L0 5.68h3.34Zm13.51-2.3c-.31.31-.68.46-1.12.46s-.83-.16-1.12-.49c-.29-.33-.43-.69-.43-1.09s.15-.76.43-1.08c.29-.32.66-.47 1.12-.47s.81.15 1.12.46c.31.31.46.67.46 1.09s-.15.81-.46 1.12Zm.43 2.3v12.26H14.2V5.68h3.08ZM23.63 0v17.95h-3.1V0h3.1Zm8.87 5.68-5.05 5.89 5.95 6.37h-4.03l-5.66-6.29 5.1-5.97h3.68Zm4.88-2.3c-.31.31-.68.46-1.12.46s-.83-.16-1.12-.49c-.29-.33-.43-.69-.43-1.09s.15-.76.43-1.08c.29-.32.66-.47 1.12-.47s.81.15 1.12.46c.31.31.46.67.46 1.09s-.15.81-.46 1.12Zm.43 2.3v12.26h-3.08V5.68h3.08Z" style="fill:#484848"/><path d="M53.5 7.84h-2.37c.44.35.75.75.95 1.18s.29.9.29 1.39c0 1.16-.41 2.08-1.22 2.76-.82.68-1.85 1.1-3.09 1.25-1.25.15-1.87.48-1.87.99 0 .54.82.93 2.47 1.14 1.65.22 2.84.63 3.57 1.24s1.09 1.41 1.09 2.41c0 1.26-.53 2.22-1.58 2.88-1.05.66-2.51.99-4.37.99-1.98 0-3.46-.33-4.42-1-.96-.67-1.45-1.51-1.45-2.53 0-.72.21-1.36.64-1.92.43-.56 1.22-.96 2.38-1.21-.37-.19-.66-.42-.87-.7-.21-.27-.32-.56-.32-.86 0-.44.16-.82.47-1.16.32-.33.8-.58 1.45-.74-1-.37-1.74-.89-2.21-1.58s-.71-1.45-.71-2.29c0-1.35.49-2.42 1.46-3.22.97-.8 2.38-1.2 4.22-1.2h5.47v2.16Zm-3.72 13.81c.55-.28.83-.69.83-1.24s-.32-.99-.97-1.28c-.65-.29-1.51-.43-2.58-.43-.81 0-1.47.14-2 .41-.53.27-.79.7-.79 1.28s.27.98.82 1.26c.54.28 1.33.42 2.37.42s1.78-.14 2.33-.42Zm-.8-9.93c.44-.39.66-.93.66-1.62 0-.6-.22-1.1-.64-1.51-.43-.41-.98-.62-1.65-.62-.7 0-1.26.22-1.67.67-.41.45-.62.96-.62 1.54 0 .67.23 1.19.68 1.57s.98.57 1.58.57c.67 0 1.22-.2 1.66-.59Zm17.39.12v.47h-8.6c.1 1.02.5 1.84 1.18 2.46.68.62 1.55.93 2.6.93.79 0 1.57-.12 2.34-.37.77-.25 1.51-.59 2.21-1.03v2.47c-.79.49-1.59.85-2.41 1.07-.82.22-1.71.33-2.67.33-1.88 0-3.41-.6-4.6-1.79-1.19-1.19-1.79-2.75-1.79-4.66s.57-3.39 1.7-4.55 2.61-1.74 4.43-1.74c1.63 0 2.97.57 4.03 1.71 1.05 1.14 1.58 2.7 1.58 4.68Zm-2.97-1.21c-.04-.89-.29-1.6-.75-2.11s-1.12-.76-1.96-.76-1.51.27-2.05.8c-.54.54-.83 1.22-.87 2.07h5.63Zm15.55-4.95v.18l-6.21 9.5h6.21v2.58H67.64v-.18l6.21-9.47h-5.89V5.68h11ZM91.6 7.84h-2.37c.44.35.75.75.95 1.18.19.44.29.9.29 1.39 0 1.16-.41 2.08-1.22 2.76-.82.68-1.85 1.1-3.09 1.25-1.25.15-1.87.48-1.87.99 0 .54.83.93 2.47 1.14 1.65.22 2.84.63 3.57 1.24s1.09 1.41 1.09 2.41c0 1.26-.53 2.22-1.58 2.88-1.05.66-2.51.99-4.37.99-1.98 0-3.46-.33-4.42-1s-1.45-1.51-1.45-2.53c0-.72.21-1.36.64-1.92.43-.56 1.22-.96 2.38-1.21-.37-.19-.66-.42-.87-.7-.21-.27-.32-.56-.32-.86 0-.44.16-.82.47-1.16.32-.33.8-.58 1.45-.74-1-.37-1.74-.89-2.21-1.58s-.71-1.45-.71-2.29c0-1.35.49-2.42 1.46-3.22.97-.8 2.38-1.2 4.22-1.2h5.47v2.16Zm-3.72 13.81c.55-.28.83-.69.83-1.24s-.32-.99-.97-1.28-1.51-.43-2.58-.43c-.81 0-1.47.14-2 .41-.53.27-.79.7-.79 1.28s.27.98.82 1.26c.54.28 1.33.42 2.37.42s1.78-.14 2.33-.42Zm-.8-9.93c.44-.39.66-.93.66-1.62 0-.6-.21-1.1-.64-1.51-.43-.41-.98-.62-1.64-.62-.7 0-1.26.22-1.67.67s-.62.96-.62 1.54c0 .67.23 1.19.68 1.57s.98.57 1.58.57c.67 0 1.22-.2 1.66-.59Zm8.98-8.34c-.31.31-.68.46-1.12.46s-.83-.16-1.12-.49c-.29-.33-.43-.69-.43-1.09s.15-.76.43-1.08c.29-.32.66-.47 1.12-.47s.81.15 1.12.46c.31.31.46.67.46 1.09s-.15.81-.46 1.12Zm.43 2.3v12.26h-3.08V5.68h3.08Zm14.48 4.82v7.45h-3.08v-7.13c0-1.09-.22-1.84-.66-2.25-.44-.41-.97-.62-1.61-.62-1.09 0-2.03.6-2.82 1.79v8.21h-3.08V5.68h3.08v1.63c.58-.65 1.21-1.12 1.89-1.42.68-.3 1.36-.45 2.03-.45 1.42 0 2.48.46 3.18 1.37s1.05 2.14 1.05 3.68Z" style="fill:#666"/></g></svg>