<?xml version="1.0" encoding="UTF-8"?>
<svg width="120px" height="13px" viewBox="0 0 120 13" version="1.1" xmlns="http://www.w3.org/2000/svg" xmlns:xlink="http://www.w3.org/1999/xlink">
    <title>Combined Shape</title>
    <g id="Page-1" stroke="none" stroke-width="1" fill="none" fill-rule="evenodd">
        <path d="M2.39001109,8.32822502 L2.39001109,1.81493604 C2.39594843,1.57995257 2.50256962,1.41012365 2.70992048,1.3054597 C2.91726613,1.20080618 3.18978196,1.14945334 3.52746693,1.15136753 C4.49623861,1.16777578 5.2654082,1.39835312 5.83497776,1.84302906 C6.40453483,2.28771541 6.81160445,2.84825292 7.05618768,3.52463117 C7.30075632,4.20103025 7.41995114,4.89497054 7.41377421,5.60646246 C7.38527496,6.94534431 7.03264037,7.8559873 6.35587255,8.33838101 C5.67909119,8.82078513 4.84913256,9.04760215 3.86599563,9.01883207 C3.22391545,9.01674879 2.8120397,8.95622953 2.6303663,8.83602432 C2.44868664,8.71583994 2.36856789,8.54658393 2.39001109,8.32822502 L2.39001109,8.32822502 Z M1.80774185,0.718110392 C1.48105972,0.717839566 1.18992562,0.714985474 0.934338519,0.709777276 C0.678748289,0.704569078 0.387614193,0.698215076 0.060934874,0.691131927 C0.0203109302,0.740193152 0,0.814701631 0,0.914563618 C0,1.01445685 0.0203119719,1.08891325 0.060934874,1.13798489 C0.524717919,1.13694325 0.839549317,1.20683727 1.00542938,1.34787527 C1.17130736,1.4889341 1.24916887,1.82971691 1.23901393,2.3702341 L1.23901393,7.80022833 C1.24911783,8.34074553 1.17130736,8.68152834 1.00542938,8.82258717 C0.839549317,8.96363558 0.524717919,9.03360252 0.060934874,9.03247755 C0.0203109302,9.08153877 0,9.15603683 0,9.25589882 C0,9.35579206 0.0203119719,9.43024845 0.060934874,9.47933051 C0.381408104,9.47203903 0.671413064,9.46610169 0.93095319,9.46068516 C1.19049019,9.45547696 1.48726685,9.45235204 1.82128317,9.45235204 C2.05599373,9.45339368 2.35502658,9.45756024 2.7183838,9.46589336 C3.08173373,9.47422648 3.60419618,9.47828887 4.28577013,9.47943467 C4.94150725,9.48880943 5.60702848,9.37328118 6.28233592,9.13138122 C6.95763087,8.88947085 7.52685982,8.4625132 7.99002381,7.85048744 C8.45317323,7.23846169 8.6944055,6.38219229 8.71372375,5.28167924 C8.68155792,3.98850453 8.227927,2.90860552 7.3528383,2.04196139 C6.47773605,1.17533809 5.3741335,0.725099794 4.04202959,0.691236091 C3.6027858,0.692277731 3.18808825,0.696444289 2.79793798,0.704777406 C2.40778146,0.713110522 2.07771608,0.717172917 1.80774185,0.71831872 L1.80774185,0.718110392 Z M11.081708,5.63354509 C11.2377112,4.89527262 11.4842725,4.42867016 11.8213929,4.23372732 C12.1585081,4.03879489 12.4219961,3.95472415 12.6118568,3.98152554 C12.8838049,3.96965085 13.1354432,4.06444005 13.3667757,4.26588273 C13.5980988,4.46731499 13.7210977,4.8464718 13.7357713,5.40334274 C13.7366129,5.46438282 13.7213758,5.51088161 13.6900746,5.54281828 C13.6587525,5.57479661 13.6062851,5.59146285 13.5326589,5.59292114 L11.081708,5.63354509 Z M14.6294866,8.19282229 C14.3894085,8.4484094 14.1451044,8.63460247 13.8965723,8.7513911 C13.6480319,8.86817973 13.3326359,8.92573032 12.9503855,8.92404286 C12.7018451,8.92612614 12.447385,8.85039895 12.1870032,8.69552797 C11.9266163,8.540657 11.6890818,8.29184055 11.4744009,7.94907863 C11.3378597,7.7253657 11.2317874,7.45849764 11.1561842,7.14845361 C11.080582,6.83842001 11.0422111,6.48691873 11.0410841,6.09393937 L14.6430279,6.121022 C14.7248383,6.12074075 14.7880252,6.10102252 14.8326032,6.0617527 C14.877175,6.02248289 14.8997369,5.96550521 14.9003098,5.8907884 C14.9225904,5.29499139 14.7764588,4.76010946 14.4619149,4.28616345 C14.1473606,3.81222786 13.5306756,3.56172396 12.6118568,3.53463091 C11.9836012,3.53879747 11.384971,3.81166537 10.8159628,4.35387003 C10.2469516,4.89608509 9.94284075,5.68373128 9.90359739,6.71679817 C9.90216993,7.09990279 9.95242904,7.4643829 10.0542743,7.81024891 C10.1561154,8.15611491 10.3180435,8.45965911 10.5400627,8.7208919 C10.7668745,8.99396813 11.0478537,9.20611886 11.3829981,9.35732327 C11.7181394,9.50853808 12.1277579,9.58526526 12.6118568,9.58752561 C13.1241591,9.58231742 13.56876,9.4741119 13.9456585,9.26253406 C14.3225487,9.05095623 14.6452789,8.76658863 14.91385,8.40944166 C14.8943818,8.34204758 14.862216,8.29067392 14.8173734,8.25541442 C14.77251,8.220207 14.7098856,8.19927004 14.6294908,8.19281188 L14.6294866,8.19282229 Z M18.0549038,4.6044156 C18.0314877,4.6399355 18.0038426,4.67045554 17.9719684,4.69576739 C17.9400839,4.72118339 17.9225947,4.69055919 17.9195011,4.6044156 C17.9223135,4.38381716 17.9336049,4.16151044 17.9533543,3.93751627 C17.9731038,3.71352209 17.9843848,3.59278565 17.9872076,3.5752861 C17.9872055,3.50528792 17.9330424,3.46922636 17.8247139,3.46695559 C17.6393677,3.540912 17.3973198,3.60971229 17.0985703,3.67346063 C16.7998177,3.73720898 16.4189734,3.7992907 15.9560365,3.85965371 C15.9436201,3.90590251 15.9413702,3.96911961 15.9492658,4.04923211 C15.9571823,4.1293342 15.9684528,4.19254089 15.9831191,4.2388001 C16.3397015,4.25765378 16.5777995,4.32150628 16.6974141,4.43007638 C16.8170266,4.53868814 16.8723189,4.78186931 16.8632931,5.15959908 L16.8632931,7.80012417 C16.8745741,8.33302698 16.8181589,8.668737 16.6940288,8.80724382 C16.5699007,8.94576105 16.3103627,9.02080077 15.9154136,9.03237338 C15.8747896,9.08143461 15.8544777,9.15593267 15.8544777,9.25579466 C15.8544777,9.35568789 15.8747896,9.43014429 15.9154136,9.47922635 C16.1839785,9.47193487 16.4288471,9.46599752 16.6500205,9.460581 C16.8711908,9.4553728 17.1228301,9.45224788 17.4049384,9.45224788 C17.6562944,9.45252912 17.8746449,9.4553728 18.0599912,9.460581 C18.2453332,9.4657892 18.4738398,9.4721432 18.7455119,9.47922635 C18.7861358,9.43016512 18.8064478,9.35566706 18.8064478,9.25579466 C18.8064447,9.15590142 18.7861358,9.08145544 18.7455119,9.03237338 C18.4095196,9.02081118 18.1877837,8.94570897 18.0803031,8.80724382 C17.9728174,8.668737 17.9237312,8.33302698 17.9330434,7.80012417 L17.9330434,5.57937983 C17.9358558,5.4388939 17.9606885,5.32379272 18.0075206,5.23407631 C18.0543423,5.14439114 18.1062577,5.06989308 18.1632437,5.01064462 C18.4208047,4.75817201 18.6809073,4.56238544 18.9435515,4.42330572 C19.2061905,4.284226 19.4696774,4.213707 19.7340164,4.21171747 C19.872244,4.21257162 20.0053979,4.25484135 20.1334789,4.3386725 C20.2615516,4.42242033 20.3676239,4.54263595 20.4516967,4.6992048 C20.5177054,4.83575333 20.5617136,4.99260342 20.5837224,5.16975506 C20.6057218,5.34692754 20.6158778,5.53763091 20.6141904,5.7418756 L20.6141904,7.80012417 C20.6232526,8.33302698 20.5713061,8.668737 20.4584663,8.80724382 C20.3456192,8.94576105 20.1176772,9.02080077 19.7746393,9.03237338 C19.740786,9.08143461 19.7238594,9.15593267 19.7238594,9.25579466 C19.7238552,9.35568789 19.740786,9.43014429 19.7746393,9.47922635 C20.0471499,9.47193487 20.2807345,9.46599752 20.4753929,9.460581 C20.670042,9.4553728 20.8968559,9.45224788 21.1558357,9.45224788 C21.4221392,9.45252912 21.6579799,9.4553728 21.86336,9.460581 C22.0687275,9.4657892 22.31134,9.4721432 22.5911963,9.47922635 C22.6250391,9.43016512 22.6419762,9.35566706 22.6419762,9.25579466 C22.6419762,9.15590142 22.6250391,9.08145544 22.5911963,9.03237338 C22.2216298,9.02081118 21.9756321,8.94570897 21.853204,8.80724382 C21.7307634,8.668737 21.674342,8.33302698 21.6839407,7.80012417 L21.6839407,5.78249955 C21.6882114,5.40730097 21.6661599,5.06425781 21.6179216,4.75337006 C21.5696728,4.44249272 21.4698098,4.18069745 21.3183241,3.96798423 C21.200398,3.81846728 21.0435469,3.70450149 20.8477697,3.62606603 C20.6519821,3.54763057 20.4341961,3.50815243 20.1944096,3.50757953 C19.8665963,3.49570484 19.5303248,3.56341141 19.1855942,3.71069925 C18.8408563,3.85796625 18.4639619,4.15587517 18.054909,4.6044156 L18.0549038,4.6044156 Z M30.1004416,0.000410303302 C30.354334,-0.00292294336 30.5777615,0.0140557818 30.7707273,0.051242315 C30.9636838,0.0884809301 31.1464894,0.166343489 31.3191433,0.284819575 C31.4616021,0.394004236 31.569367,0.507417954 31.642438,0.625039896 C31.7155028,0.742693087 31.7521726,0.859481717 31.7524601,0.975416202 C31.7437093,1.11704794 31.6799537,1.24343007 31.5611912,1.35457301 C31.4424192,1.46571595 31.3211141,1.52436026 31.1972735,1.5306101 C31.0570616,1.52779767 30.9447791,1.48608001 30.8604375,1.40535294 C30.7760834,1.32467795 30.7078144,1.22199312 30.6556282,1.09728803 C30.5642212,0.863429531 30.4558918,0.698110912 30.3306409,0.601342595 C30.2053816,0.504605527 30.0428879,0.457731746 29.8431598,0.460856665 C29.6030837,0.430961609 29.3689346,0.572020441 29.1407124,0.884022745 C28.9124861,1.19603547 28.7900549,1.85842449 28.7734095,2.87117941 L28.7734095,3.64302393 L30.2358527,3.64302393 C30.3058082,3.64302393 30.3418906,3.67010655 30.3441822,3.72427181 L30.3441822,3.9950981 C30.3388177,4.05579444 30.3021478,4.10027245 30.23416,4.12881338 C30.166168,4.15725014 30.099025,4.17138519 30.0327351,4.17110394 L28.7734095,4.17110394 L28.7734084,7.80010334 C28.7604286,8.33977681 28.8236207,8.67887216 28.9629847,8.81737897 C29.1023426,8.9558962 29.3957339,9.02714435 29.8431587,9.03235255 C29.8837827,9.08143461 29.9040915,9.15588059 29.9040947,9.25577382 C29.9040947,9.35564623 29.8837827,9.43014429 29.8431587,9.47920551 C29.5607661,9.47212236 29.2995354,9.46576836 29.0594645,9.46056016 C28.8193895,9.45535197 28.5480028,9.45250829 28.2453034,9.45222705 L28.0512309,9.45279669 C27.86303,9.45391971 27.6924436,9.45665402 27.5394718,9.46056016 C27.3355073,9.46597669 27.0968447,9.47191404 26.8234841,9.47920551 C26.7828602,9.43012346 26.7625472,9.35566706 26.7625482,9.25577382 C26.7625482,9.15591184 26.7828602,9.08141377 26.8234841,9.03235255 C27.1800665,9.02755059 27.4181645,8.9558962 27.5377791,8.81737897 C27.6573885,8.67887216 27.7127204,8.33977681 27.7036581,7.80010334 L27.7036581,4.17108311 L26.7693199,4.17108311 C26.7427998,4.17191642 26.7247377,4.16691655 26.7151547,4.15587517 C26.7055716,4.14483379 26.7010488,4.1228552 26.7016133,4.08983522 L26.7016133,3.91379814 C26.699353,3.85512258 26.7208003,3.79640535 26.7659346,3.73776105 C26.811072,3.67911674 26.8934469,3.6471384 27.0130615,3.64297184 L27.7036592,3.64297184 L27.7036592,3.10132968 C27.7324324,2.04795082 27.9897142,1.26707529 28.4755047,0.758713503 C28.96129,0.250362138 29.5029353,-0.00271461545 30.1004416,0.000410303302 Z M33.0150815,3.46685142 C33.0698071,3.46737224 33.1126914,3.47643451 33.1437219,3.49393405 C33.1747523,3.5114336 33.1905498,3.53403718 33.1911165,3.56164062 C33.1882936,3.57970266 33.1770023,3.70608479 33.1572632,3.94079743 C33.1375137,4.17551008 33.1262223,4.41022273 33.1234099,4.64493537 C33.1234099,4.68326771 33.1335659,4.7081629 33.1538779,4.71941261 C33.1741898,4.73066231 33.2046578,4.70139224 33.2452817,4.63139406 C33.404387,4.35352629 33.6142742,4.10018912 33.8749445,3.87139299 C34.1356075,3.64261769 34.4267416,3.52132917 34.7483479,3.50747537 C35.0310145,3.51840217 35.2375164,3.59440019 35.3678547,3.73547985 C35.4981825,3.87656994 35.5624829,4.01722253 35.5608479,4.15745847 C35.554605,4.3337768 35.4891557,4.48893943 35.3644693,4.62292553 C35.2397736,4.75691163 35.0930785,4.8272223 34.9243829,4.83451378 C34.7853,4.82661815 34.6741488,4.778109 34.5909322,4.68894465 C34.5077062,4.59980113 34.4337988,4.51743869 34.3691963,4.44181566 C34.3277255,4.40233752 34.2820183,4.37640069 34.2320925,4.36400518 C34.1821522,4.35129718 34.1330701,4.34608898 34.0848318,4.34713062 C33.9970934,4.36124483 33.8915858,4.44474266 33.7683077,4.59764494 C33.6450245,4.75054721 33.5429063,4.88822072 33.4619396,5.01064462 C33.3773043,5.13308935 33.3028323,5.27075244 33.2385111,5.42365471 C33.1741898,5.57655699 33.1402845,5.74131312 33.1369512,5.91790228 L33.1369512,7.80012417 C33.1239714,8.33895391 33.1905488,8.67635139 33.3366825,8.81232702 C33.482811,8.94831307 33.7863583,9.02164449 34.2473244,9.03237338 C34.2879484,9.08145544 34.3082572,9.15590142 34.3082604,9.25579466 C34.3082604,9.35566706 34.2879484,9.43016512 34.2473244,9.47922635 C33.959008,9.4721432 33.6825433,9.4657892 33.4179304,9.460581 C33.1533112,9.4553728 32.8836172,9.45252912 32.6088472,9.45224788 C32.3431,9.45224788 32.0892045,9.4553728 31.8471577,9.460581 C31.6051088,9.46599752 31.3444426,9.47193487 31.0651572,9.47922635 C31.0245332,9.43014429 31.0042213,9.35568789 31.0042213,9.25579466 C31.0042213,9.15593267 31.0245332,9.08143461 31.0651572,9.03237338 C31.4742111,9.02757142 31.7461624,8.95591704 31.881011,8.8173998 C32.0158585,8.67889299 32.0779194,8.33979764 32.0672009,7.80012417 L32.0671313,5.01268751 C32.0591163,4.7339945 32.0038469,4.54483232 31.9013219,4.44520098 C31.7817073,4.32900609 31.5436093,4.26015371 31.1870269,4.23869594 C31.1605068,4.19243672 31.1458301,4.12923003 31.1430177,4.04912795 C31.1401948,3.96901545 31.1458405,3.90579834 31.1599443,3.85954955 C31.6223166,3.79918653 32.0009047,3.73710481 32.2957075,3.67335647 C32.5905081,3.60960813 32.8302988,3.54080783 33.0150815,3.46685142 Z M37.0610492,1.34100045 C37.0678199,1.5243811 37.1355264,1.68574148 37.2641668,1.82509203 C37.3928052,1.9644634 37.5417575,2.03781566 37.711024,2.04513839 C37.9062397,2.03576363 38.0709906,1.96326552 38.2052757,1.8273003 C38.3395555,1.69130384 38.4095183,1.5472555 38.4151629,1.39516571 C38.4108922,1.22364933 38.3483001,1.06567427 38.2272803,0.921230111 C38.1062543,0.776796367 37.9522239,0.700058779 37.7651882,0.691027763 C37.5936656,0.69831924 37.4356863,0.765504994 37.2912484,0.894147482 C37.1468084,1.02278997 37.070076,1.17174443 37.0610492,1.34100045 L37.0610492,1.34100045 Z M38.2932932,7.80012417 L38.2932932,5.10137142 C38.2955848,4.74279741 38.3045742,4.40206669 38.3203758,4.07918967 C38.3361671,3.75632306 38.3451981,3.58383796 38.3474585,3.56174479 C38.3468918,3.53414134 38.3310943,3.51153776 38.3000639,3.49403822 C38.2690334,3.47653867 38.2261491,3.46747641 38.1714224,3.46695559 C37.9836783,3.540912 37.7430408,3.60971229 37.449511,3.67346063 C37.1559769,3.73720898 36.7782357,3.7992907 36.3162863,3.85965371 C36.3038699,3.90590251 36.30162,3.96911961 36.3095156,4.04923211 C36.3174321,4.1293342 36.3287026,4.19254089 36.3433689,4.2388001 C36.7029137,4.25911207 36.9418575,4.32473537 37.0602034,4.43565957 C37.1785451,4.54656293 37.2329916,4.78787957 37.2235429,5.15959908 L37.2235429,7.80012417 C37.2345426,8.33895391 37.1753046,8.67635139 37.0458152,8.81232702 C36.9163269,8.94830265 36.6505828,9.02164449 36.2485807,9.03237338 C36.2079568,9.08143461 36.1876448,9.15593267 36.1876448,9.25579466 C36.1876448,9.35568789 36.2079568,9.43014429 36.2485807,9.47922635 C36.5233528,9.47193487 36.7727348,9.46599752 36.996729,9.460581 C37.22072,9.4553728 37.4768738,9.45224788 37.7651882,9.45224788 C38.0461652,9.45252912 38.2966754,9.4553728 38.5167218,9.460581 C38.7367619,9.4657892 38.9872731,9.4721432 39.2682553,9.47922635 C39.3088793,9.43016512 39.3291913,9.35566706 39.3291913,9.25579466 C39.3291913,9.15590142 39.3088793,9.08145544 39.2682553,9.03237338 C38.8662491,9.02716518 38.600505,8.95591704 38.4710209,8.8173998 C38.3415305,8.67889299 38.2822883,8.33979764 38.2932932,7.80012417 Z M41.3018702,5.63354509 C41.4578734,4.89527262 41.7044347,4.42867016 42.0415551,4.23372732 C42.3786703,4.03879489 42.6421572,3.95472415 42.8320189,3.98152554 C43.103966,3.96965085 43.3556053,4.06444005 43.5869368,4.26588273 C43.818261,4.46731499 43.9412599,4.8464718 43.9559335,5.40334274 C43.9567751,5.46438282 43.941538,5.51088161 43.9102367,5.54281828 C43.8789146,5.57479661 43.8264472,5.59146285 43.752821,5.59292114 L41.3018702,5.63354509 Z M44.8496488,8.19282229 C44.6095706,8.4484094 44.3652666,8.63460247 44.1167345,8.7513911 C43.8681941,8.86817973 43.5527981,8.92573032 43.1705476,8.92404286 C42.9220072,8.92612614 42.6675472,8.85039895 42.4071654,8.69552797 C42.1467784,8.540657 41.909244,8.29184055 41.6945631,7.94907863 C41.5580208,7.7253657 41.4519486,7.45849764 41.3763453,7.14845361 C41.3007431,6.83842001 41.2623733,6.48691873 41.2612462,6.09393937 L44.8631901,6.121022 C44.94499,6.12074075 45.0081874,6.10102252 45.0527654,6.0617527 C45.0973371,6.02248289 45.119899,5.96550521 45.1204719,5.8907884 C45.1427526,5.29499139 44.996622,4.76010946 44.6820781,4.28616345 C44.3675238,3.81222786 43.7508388,3.56172396 42.83202,3.53463091 C42.2037644,3.53879747 41.6051342,3.81166537 41.036126,4.35387003 C40.4671148,4.89608509 40.163004,5.68373128 40.1237606,6.71679817 C40.1223331,7.09990279 40.1725922,7.4643829 40.2744365,7.81024891 C40.3762776,8.15611491 40.5382067,8.45965911 40.7602249,8.7208919 C40.9870377,8.99396813 41.2680158,9.20611886 41.6031613,9.35732327 C41.9383015,9.50853808 42.3479211,9.58526526 42.83202,9.58752561 C43.3443223,9.58231742 43.7889222,9.4741119 44.1658218,9.26253406 C44.542712,9.05095623 44.8654421,8.76658863 45.1340132,8.40944166 C45.114545,8.34204758 45.0823792,8.29067392 45.0375366,8.25541442 C44.9926732,8.220207 44.9300488,8.19927004 44.849654,8.19281188 L44.8496488,8.19282229 Z M50.9520911,5.63354509 C51.1080954,4.89527262 51.3546567,4.42867016 51.6917761,4.23372732 C52.0288923,4.03879489 52.2923792,3.95472415 52.4822409,3.98152554 C52.754188,3.96965085 53.0058273,4.06444005 53.2371588,4.26588273 C53.468483,4.46731499 53.5914808,4.8464718 53.6061555,5.40334274 C53.6069971,5.46438282 53.59176,5.51088161 53.5604587,5.54281828 C53.5291366,5.57479661 53.4766692,5.59146285 53.403043,5.59292114 L50.9520911,5.63354509 Z M54.4998708,8.19282229 C54.2597926,8.4484094 54.0154875,8.63460247 53.7669565,8.7513911 C53.5184161,8.86817973 53.2030201,8.92573032 52.8207686,8.92404286 C52.5722292,8.92612614 52.3177692,8.85039895 52.0573874,8.69552797 C51.7969994,8.540657 51.559466,8.29184055 51.3447851,7.94907863 C51.2082428,7.7253657 51.1021706,7.45849764 51.0265673,7.14845361 C50.9509651,6.83842001 50.9125942,6.48691873 50.9114682,6.09393937 L54.513411,6.121022 C54.5952214,6.12074075 54.6584094,6.10102252 54.7029874,6.0617527 C54.7475591,6.02248289 54.770121,5.96550521 54.7706939,5.8907884 C54.7929746,5.29499139 54.646844,4.76010946 54.3323001,4.28616345 C54.0177458,3.81222786 53.4010598,3.56172396 52.482242,3.53463091 C51.8539864,3.53879747 51.2553562,3.81166537 50.686347,4.35387003 C50.1173368,4.89608509 49.813226,5.68373128 49.7739826,6.71679817 C49.7725551,7.09990279 49.8228143,7.4643829 49.9246585,7.81024891 C50.0264996,8.15611491 50.1884277,8.45965911 50.4104469,8.7208919 C50.6372597,8.99396813 50.9182379,9.20611886 51.2533833,9.35732327 C51.5885235,9.50853808 51.9981431,9.58526526 52.482242,9.58752561 C52.9945443,9.58231742 53.4391442,9.4741119 53.8160438,9.26253406 C54.192934,9.05095623 54.5156641,8.76658863 54.7842352,8.40944166 C54.764767,8.34204758 54.7326012,8.29067392 54.6877586,8.25541442 C54.6428952,8.220207 54.5802708,8.19927004 54.499876,8.19281188 L54.4998708,8.19282229 Z M57.9252869,4.6044156 C57.9018709,4.6399355 57.8742257,4.67045554 57.8423516,4.69576739 C57.810467,4.72118339 57.7929779,4.69055919 57.7898842,4.6044156 C57.7926966,4.38381716 57.803988,4.16151044 57.8237375,3.93751627 C57.843487,3.71352209 57.8547679,3.59278565 57.8575908,3.5752861 C57.8575887,3.50528792 57.8034255,3.46922636 57.6950971,3.46695559 C57.5097508,3.540912 57.267703,3.60971229 56.9689534,3.67346063 C56.6702008,3.73720898 56.2893565,3.7992907 55.8264196,3.85965371 C55.8140033,3.90590251 55.8117533,3.96911961 55.819649,4.04923211 C55.8275654,4.1293342 55.838836,4.19254089 55.8535022,4.2388001 C56.2100846,4.25765378 56.4481826,4.32150628 56.5677972,4.43007638 C56.6874087,4.53868814 56.742702,4.78186931 56.7336762,5.15959908 L56.7336762,7.80012417 C56.7449572,8.33302698 56.688542,8.668737 56.5644119,8.80724382 C56.4402839,8.94576105 56.1807448,9.02080077 55.7857957,9.03237338 C55.7451717,9.08143461 55.7248598,9.15593267 55.7248598,9.25579466 C55.7248598,9.35568789 55.7451717,9.43014429 55.7857957,9.47922635 C56.0543616,9.47193487 56.2992302,9.46599752 56.5204026,9.460581 C56.7415739,9.4553728 56.9932132,9.45224788 57.2753215,9.45224788 C57.5266764,9.45252912 57.745027,9.4553728 57.9303743,9.460581 C58.1157163,9.4657892 58.3442229,9.4721432 58.615895,9.47922635 C58.6565189,9.43016512 58.6768205,9.35566706 58.6768309,9.25579466 C58.6768278,9.15590142 58.6565189,9.08145544 58.615895,9.03237338 C58.2799017,9.02081118 58.0581657,8.94570897 57.9506863,8.80724382 C57.8432005,8.668737 57.7941143,8.33302698 57.8034265,7.80012417 L57.8034265,5.57937983 C57.806239,5.4388939 57.8310717,5.32379272 57.8779038,5.23407631 C57.9247359,5.14439114 57.9766408,5.06989308 58.0336278,5.01064462 C58.2911889,4.75817201 58.5512915,4.56238544 58.8139357,4.42330572 C59.0765736,4.284226 59.3400616,4.213707 59.6043995,4.21171747 C59.7426282,4.21257162 59.875782,4.25484135 60.0038631,4.3386725 C60.1319347,4.42242033 60.238007,4.54263595 60.3220798,4.6992048 C60.3880885,4.83575333 60.4320967,4.99260342 60.4541066,5.16975506 C60.476106,5.34692754 60.486262,5.53763091 60.4845745,5.7418756 L60.4845745,7.80012417 C60.4936368,8.33302698 60.4416902,8.668737 60.3288515,8.80724382 C60.2160034,8.94576105 59.9880614,9.02080077 59.6450245,9.03237338 C59.6111712,9.08143461 59.5942446,9.15593267 59.5942446,9.25579466 C59.5942414,9.35568789 59.6111712,9.43014429 59.6450245,9.47922635 C59.9175351,9.47193487 60.1511197,9.46599752 60.3457781,9.460581 C60.5404273,9.4553728 60.7672411,9.45224788 61.0262209,9.45224788 C61.2925233,9.45252912 61.5283651,9.4553728 61.7337452,9.460581 C61.9391128,9.4657892 62.1817242,9.4721432 62.4615815,9.47922635 C62.4954243,9.43016512 62.5123614,9.35566706 62.5123614,9.25579466 C62.5123614,9.15590142 62.4954243,9.08145544 62.4615815,9.03237338 C62.092014,9.02081118 61.8460173,8.94570897 61.7235892,8.80724382 C61.6011486,8.668737 61.5447272,8.33302698 61.5543248,7.80012417 L61.5543248,5.78249955 C61.5585956,5.40730097 61.5365441,5.06425781 61.4883161,4.75337006 C61.4400674,4.44249272 61.3402044,4.18069745 61.1887187,3.96798423 C61.0707916,3.81846728 60.9139405,3.70450149 60.7181643,3.62606603 C60.5223767,3.54763057 60.3045896,3.50815243 60.0648042,3.50757953 C59.7369908,3.49570484 59.4007194,3.56341141 59.0559888,3.71069925 C58.7112509,3.85796625 58.3343554,4.15587517 57.9253036,4.6044156 L57.9252869,4.6044156 Z M68.1739725,8.21990492 C68.1460357,8.15948983 68.1071097,8.11439725 68.0571797,8.08449178 C68.0072435,8.05459672 67.9513846,8.03657636 67.889608,8.03032652 C67.6568651,8.32822502 67.401277,8.55165671 67.1228415,8.70061117 C66.8443977,8.84956563 66.5583416,8.92404286 66.2646722,8.92404286 C65.7565937,8.91570975 65.3306121,8.68227832 64.9867262,8.22497771 C64.6428362,7.76768751 64.4639804,7.13858929 64.4501589,6.33768303 C64.4585962,5.58671297 64.6041872,5.00332189 64.8868611,4.58748895 C65.1695298,4.17166643 65.5385254,3.96065108 65.993849,3.95444291 C66.3800504,3.96381767 66.6333813,4.06305467 66.7538449,4.25065396 C66.8743011,4.43826367 66.9414421,4.65547677 66.9552698,4.90232452 C66.9773005,5.08259066 67.0327574,5.20953528 67.1216561,5.28316878 C67.2105497,5.3568127 67.3266029,5.39234303 67.4698335,5.38980142 C67.6218838,5.39084306 67.7680154,5.34438594 67.9082273,5.24931549 C68.0484289,5.1542138 68.1234697,5.00246775 68.1333486,4.793994 C68.1282445,4.41456636 67.9454608,4.10706394 67.5849326,3.87149715 C67.2243951,3.63595119 66.7166031,3.51464185 66.0615545,3.50757953 C65.3593874,3.51799593 64.729161,3.79872821 64.1708724,4.35051595 C63.6125817,4.90232452 63.3174978,5.66401304 63.2856205,6.63558153 C63.2907245,7.52281888 63.524283,8.23316499 63.9863752,8.76661987 C64.4484652,9.30008517 65.1085949,9.57373431 65.9667664,9.58755686 C66.3718694,9.59995237 66.7566625,9.51078803 67.1211489,9.3201159 C67.4856269,9.12941252 67.8365678,8.76267206 68.1739725,8.21990492 L68.1739725,8.21990492 Z M71.4445083,11.6187228 C71.6519102,11.2427326 71.8369721,10.8545552 71.9996949,10.4541906 C72.5310113,9.17598423 72.9768529,8.11826173 73.3372216,7.28099184 C73.6975799,6.44373235 74.0506645,5.65986732 74.3964764,4.92940715 C74.4937967,4.72403748 74.6376722,4.53558405 74.8281006,4.36405726 C75.0185164,4.19254089 75.2402523,4.09211642 75.4933093,4.06277343 C75.5339228,4.0137122 75.5542452,3.93921414 75.5542452,3.83934174 C75.5542452,3.7394485 75.5339228,3.66500252 75.4933093,3.61591005 C75.3288344,3.62320152 75.1736749,3.62913887 75.0278318,3.6345554 C74.8819762,3.63976359 74.7166618,3.64288851 74.5318885,3.64288851 C74.3045037,3.64261769 74.1025152,3.63976359 73.9259219,3.6345554 C73.7493182,3.6293472 73.540559,3.6229932 73.2996445,3.61591005 C73.2590205,3.66497127 73.2387085,3.73947975 73.2387085,3.83934174 C73.2387044,3.93923497 73.2590205,4.01369137 73.2996445,4.06277343 C73.5272156,4.0752731 73.7156066,4.12068859 73.8648183,4.19886364 C74.0140186,4.27709077 74.0422856,4.43481584 73.9496182,4.67212217 L72.6063364,7.77304154 C72.5585669,7.88462197 72.5071724,7.94313087 72.4521373,7.94856823 C72.3970971,7.95377643 72.3406163,7.89096556 72.2827032,7.75950023 L71.0816042,4.94294846 C70.9415922,4.66033081 70.8813907,4.45033627 70.9009995,4.31294401 C70.9206032,4.17556216 71.128854,4.0921685 71.5257531,4.06277343 C71.566377,4.0137122 71.586689,3.93921414 71.586689,3.83934174 C71.5866859,3.7394485 71.566377,3.66500252 71.5257531,3.61591005 C71.2732649,3.62320152 71.0165476,3.62913887 70.7556012,3.6345554 C70.4946497,3.63976359 70.2413177,3.64288851 69.9956043,3.64288851 C69.5352048,3.64080523 69.1695946,3.6316388 68.8987724,3.61580588 C68.8581485,3.66486711 68.8378365,3.73937559 68.8378365,3.83923757 C68.8378365,3.93913081 68.8581485,4.01358721 68.8987724,4.06266926 C69.1783964,4.07475228 69.3838827,4.14297968 69.5152324,4.26730978 C69.6465811,4.39163988 69.7972261,4.66194535 69.9671686,5.07824703 L71.4986715,8.63957109 C71.566576,8.7879839 71.6298202,8.98675998 71.6884166,9.23588892 C71.7470088,9.48501786 71.7469463,9.71053283 71.6882468,9.91243383 C71.6084363,10.1359801 71.5256656,10.3476725 71.4399366,10.5475215 C71.3541992,10.74736 71.260937,10.9509277 71.1601428,11.1582244 C71.0879259,11.2930646 70.9987741,11.3923745 70.892705,11.4561333 C70.7866306,11.5198816 70.6500904,11.5514433 70.4830854,11.5509225 C70.3930877,11.5488392 70.3225646,11.5425894 70.2715055,11.5306105 C70.2204443,11.5187358 70.1600719,11.5119652 70.0903925,11.5102985 C69.8937622,11.5235274 69.7453744,11.5986296 69.645227,11.7354281 C69.5450837,11.8722475 69.4948632,11.9912964 69.494583,12.0925751 C69.4982287,12.2378525 69.558623,12.3569015 69.6756949,12.449722 C69.792769,12.5425321 69.9445421,12.5904892 70.1310164,12.5935933 C70.2796844,12.6071346 70.4732096,12.5529693 70.711592,12.4310975 C70.9499701,12.3092257 71.1942752,12.0384098 71.4445062,11.6186291 L71.4445083,11.6187228 Z M76.9317959,7.80012417 C76.9413789,8.33979764 76.8849637,8.67889299 76.7625315,8.8173998 C76.6400951,8.95591704 76.3940984,9.02757142 76.0245392,9.03237338 C75.9839153,9.08143461 75.9636033,9.15593267 75.9636033,9.25579466 C75.9636033,9.35568789 75.9839153,9.43014429 76.0245392,9.4792576 C76.2981821,9.47193487 76.5396654,9.46599752 76.7489902,9.460581 C76.9583118,9.4553728 77.1997962,9.45224788 77.4734411,9.45224788 C77.6957395,9.45252912 77.887572,9.4553728 78.0489397,9.460581 C78.2103022,9.4657892 78.4292173,9.4721432 78.7056851,9.4792576 C78.7463091,9.43016512 78.7666211,9.35566706 78.7666211,9.25579466 C78.7666179,9.15590142 78.7463091,9.08145544 78.7056851,9.03237338 C78.4334485,9.02716518 78.246694,8.95591704 78.1454195,8.8173998 C78.0441409,8.67889299 77.9961828,8.33979764 78.0015451,7.80012417 L78.0015451,6.58142669 C78.1581973,6.58038505 78.2941156,6.61444667 78.4093033,6.68402819 C78.5244846,6.75360971 78.6458471,6.88189805 78.7733907,7.06893485 L79.7618941,8.46366942 C79.8933511,8.65494569 79.9791125,8.80388974 80.019175,8.9105328 C80.059226,9.01716544 80.077288,9.11195465 80.0733402,9.19488999 L80.0733402,9.41155102 C80.0710486,9.45446657 80.0891315,9.47696599 80.1275055,9.4792576 C80.259527,9.47196612 80.3983245,9.46602877 80.5438957,9.46061225 C80.6894586,9.45540405 80.8621072,9.45227913 81.0618447,9.45227913 C81.2663665,9.45256037 81.453121,9.45540405 81.6221093,9.46061225 C81.7910851,9.46582044 81.9744543,9.47217445 82.1722179,9.4792576 C82.2128315,9.43019637 82.2331538,9.35569831 82.2331538,9.2558259 C82.2331538,9.15593267 82.2128315,9.08148669 82.1722179,9.03240463 C81.9415604,9.01365512 81.7285138,8.96928127 81.5330752,8.89935601 C81.3376261,8.82946199 81.1624942,8.68422618 81.0076795,8.46366942 L79.4233665,6.12105324 C79.3804822,6.06459638 79.3579099,6.00144177 79.3556599,5.93147484 C79.3533683,5.87960119 79.3714512,5.83439403 79.4098252,5.79607211 L80.4389515,4.6586121 C80.6346444,4.45360702 80.8485378,4.30572544 81.0806328,4.21496739 C81.3127163,4.12424058 81.5953308,4.07350232 81.9284774,4.06280468 C81.9690909,4.01374345 81.9894029,3.93924539 81.9894133,3.83937299 C81.9894071,3.73947975 81.9690909,3.66503377 81.9284774,3.6159413 C81.6906555,3.62323277 81.4926158,3.62917012 81.3343595,3.63458664 C81.1760917,3.63979484 80.9814385,3.64291976 80.7503976,3.64291976 C80.504678,3.64264894 80.2953542,3.63979484 80.1224275,3.63458664 C79.9494913,3.62937845 79.743554,3.62302445 79.5046133,3.6159413 C79.4639894,3.66500252 79.4436774,3.739511 79.4436774,3.83937299 C79.4436743,3.93926622 79.4639894,4.01372262 79.5046133,4.06280468 C79.8820681,4.10051203 80.0428691,4.20287395 79.9870164,4.37001544 C79.9311533,4.53716734 79.8516001,4.6649661 79.7483539,4.7534013 C79.3864633,5.14930768 79.0513199,5.48073656 78.7429238,5.7476567 C78.4345214,6.01458726 78.1873965,6.17742678 78.0015462,6.23615442 L78.0015462,1.55769273 C78.0038378,1.11338137 78.0128271,0.766390387 78.0286288,0.516719795 C78.04442,0.26705962 78.0534511,0.140115004 78.0557114,0.135875531 C78.058003,0.0433779361 77.9992858,-0.00178755622 77.8796764,0.000382311558 C77.6864304,0.0724396805 77.3958609,0.145187789 77.0079647,0.218810875 C76.6200675,0.292454793 76.278718,0.34153685 75.9839163,0.366067463 C75.970375,0.425336755 75.970375,0.496407824 75.9839163,0.579343167 C75.9974576,0.662257678 76.0245403,0.726610171 76.0651642,0.7723069 C76.4093344,0.765015423 76.6417909,0.813243336 76.7625336,0.916178159 C76.8832742,1.01919631 76.9396956,1.34132336 76.9317979,1.88267386 L76.9317959,7.80012417 Z M83.6904545,7.80012417 C83.7014542,8.34064137 83.6422162,8.68142417 83.5127268,8.82248301 C83.3832385,8.96353142 83.1174934,9.03349835 82.7154923,9.03237338 C82.6748684,9.08143461 82.6545564,9.15593267 82.6545564,9.25579466 C82.6545564,9.35568789 82.6748684,9.43014429 82.7154923,9.47922635 C82.9902644,9.47193487 83.2396464,9.46599752 83.4636406,9.460581 C83.6876317,9.4553728 83.9437854,9.45224788 84.2320998,9.45224788 C84.5130769,9.45252912 84.763587,9.4553728 84.9836334,9.460581 C85.2036735,9.4657892 85.4541847,9.4721432 85.735167,9.47922635 C85.7757909,9.43016512 85.7961029,9.35566706 85.7961029,9.25579466 C85.7961029,9.15590142 85.7757909,9.08145544 85.735167,9.03237338 C85.3331607,9.03341502 85.0674166,8.963521 84.9379314,8.82248301 C84.8084421,8.68142417 84.7491999,8.34064137 84.7602048,7.80012417 L84.7602048,1.55766148 C84.7624964,1.11335012 84.7714858,0.766359138 84.7872874,0.516688546 C84.8030787,0.267028371 84.8121097,0.140083755 84.8143701,0.135844282 C84.8166617,0.0433466869 84.7579444,-0.00181880541 84.6383351,0.000351062371 C84.4450901,0.0724084313 84.1545195,0.14515654 83.7666244,0.218779626 C83.3787261,0.292423544 83.0373767,0.341505601 82.742576,0.366036213 C82.7290347,0.425305506 82.7290347,0.496376574 82.742576,0.579311918 C82.7561173,0.662226429 82.7832,0.726578922 82.8238239,0.772275651 C83.1679931,0.764984174 83.4004495,0.813212086 83.5211922,0.91614691 C83.6419328,1.01916506 83.6983543,1.34129211 83.6904566,1.88264261 L83.6904545,7.80012417 Z M86.6338569,6.67620548 C86.6330124,7.40179078 86.8682896,8.05966951 87.3396909,8.64983124 C87.8110901,9.2400034 88.5236924,9.55257861 89.4774988,9.58755686 C90.4798207,9.54578712 91.2104767,9.20953544 91.669471,8.57873934 C92.1284528,7.94795366 92.3547021,7.27314829 92.34822,6.55434406 C92.3609072,5.81126963 92.1493293,5.12744366 91.7134792,4.50285574 C91.2776187,3.87827823 90.5413201,3.54651602 89.5045804,3.50757953 C88.5851908,3.53216222 87.878231,3.84526867 87.3836991,4.44700302 C86.8891651,5.04873738 86.6392185,5.79181181 86.6338569,6.67620548 L86.6338569,6.67620548 Z M89.355628,3.95444291 C89.9412784,3.95652619 90.3915209,4.2131341 90.7063575,4.72458955 C91.0211837,5.23605542 91.180292,5.99041081 91.1836826,6.98765571 C91.1625165,7.85937263 90.9983332,8.44163874 90.6911235,8.73446446 C90.3839044,9.02729018 90.0606097,9.16270333 89.7212394,9.14069348 C89.2541505,9.12569387 88.8793446,8.9630731 88.5968228,8.65271659 C88.3142957,8.34236007 88.1100083,7.97406756 87.9839606,7.5478599 C87.8579097,7.12165223 87.796055,6.72728748 87.7983966,6.36476566 C87.7921468,5.7489275 87.9095458,5.19995219 88.1504667,4.7178189 C88.3913833,4.23570643 88.7931041,3.9812443 89.355628,3.95444291 L89.355628,3.95444291 Z M95.3760882,4.91586583 C95.5920096,4.69356953 95.8230036,4.50850142 96.0690597,4.36067193 C96.3151054,4.21285286 96.5400058,4.13612569 96.7437401,4.13048 C97.1900306,4.13881312 97.566927,4.36547389 97.8744295,4.80922277 C98.1819215,5.25298207 98.3421569,5.86176832 98.3551357,6.63558153 C98.3703436,7.2251912 98.241722,7.77924971 97.9692187,8.29775707 C97.6966945,8.81627483 97.1889056,9.09273639 96.4458416,9.12715217 C96.3143763,9.12923545 96.1541304,9.10850682 95.9651249,9.06600792 C95.776109,9.02350903 95.6158736,8.94867764 95.4844187,8.84139918 C95.3517971,8.73151662 95.2636119,8.62696726 95.2198526,8.52775109 C95.1761038,8.428587 95.1560001,8.26271631 95.1594375,8.03028485 L95.1594375,5.51163159 C95.1573543,5.37357268 95.1720414,5.26106519 95.2027697,5.17411953 C95.2334981,5.08714263 95.291205,5.00108236 95.3760986,4.91582416 L95.3760882,4.91586583 Z M95.2677576,4.46900245 C95.2437999,4.49223101 95.215884,4.5029599 95.1843223,4.50098078 C95.1526565,4.49889751 95.1353653,4.47483563 95.1323445,4.42837851 C95.1344278,4.17899957 95.1435942,3.97362991 95.1594271,3.81225911 C95.17526,3.65089872 95.1842181,3.56739048 95.1865098,3.56174479 C95.1859473,3.53414134 95.170156,3.51153776 95.1391152,3.49403822 C95.1080743,3.47653867 95.0651587,3.46747641 95.0104727,3.46695559 C94.8268212,3.540912 94.5915461,3.60971229 94.3046473,3.67346063 C94.0177381,3.73720898 93.6436665,3.7992907 93.1824223,3.85965371 C93.1700059,3.90590251 93.167756,3.96911961 93.1756516,4.04923211 C93.1835681,4.1293342 93.1948386,4.19254089 93.2095049,4.2388001 C93.5660873,4.25859125 93.8041853,4.32400622 93.923803,4.43514916 C94.0434145,4.54630252 94.0987047,4.78778583 94.0896841,5.15959908 L94.0896841,10.9416675 C94.1007255,11.4821847 94.0414562,11.8229675 93.9119491,11.9640263 C93.7824629,12.1050747 93.5167188,12.1750417 93.1147167,12.1739167 C93.0740928,12.2229779 93.0537808,12.297476 93.0537808,12.397338 C93.0537808,12.4972312 93.0740928,12.5716772 93.1147167,12.6207697 C93.3894888,12.6134782 93.6388708,12.6075408 93.8628671,12.6021243 C94.0868613,12.5969161 94.3430109,12.5937912 94.6313263,12.5937912 C94.9416411,12.5940724 95.221488,12.5969161 95.4708774,12.6021243 C95.7202563,12.6073325 95.9865619,12.6136865 96.2698045,12.6207697 C96.3104284,12.5717084 96.3307404,12.4972 96.3307404,12.397338 C96.33073,12.2974447 96.3104284,12.2229988 96.2698045,12.1739167 C95.8029104,12.1687085 95.4976683,12.0974604 95.3540783,11.9589431 C95.2104883,11.8204259 95.1456046,11.481341 95.1594271,10.9416675 L95.1594271,9.47922635 C95.158698,9.39443688 95.1729684,9.348386 95.2024468,9.34110494 C95.2318211,9.33381346 95.280674,9.34631314 95.3490264,9.37766649 C95.5165116,9.44506057 95.7008401,9.49679881 95.902012,9.5328812 C96.1031838,9.56892193 96.311543,9.58715062 96.5270999,9.58756728 C96.9071004,9.58860892 97.2642474,9.52861048 97.5985512,9.4064574 C97.9328446,9.28430433 98.2392116,9.09190308 98.5176523,8.82926408 C98.8378419,8.51865757 99.084398,8.15135462 99.2573414,7.72735523 C99.430264,7.30334542 99.5177201,6.81755597 99.5196992,6.26998687 C99.5061579,5.52692286 99.2793304,4.88710616 98.8392585,4.35052636 C98.3991658,3.8139674 97.8270453,3.53298512 97.1229177,3.50758995 C96.8644974,3.50863159 96.5688488,3.59112944 96.2359721,3.75471894 C95.9030849,3.9183501 95.5803537,4.15644808 95.2677785,4.46901287 L95.2677576,4.46900245 Z M103.73409,4.25234142 C103.888117,4.40327499 103.999833,4.61260288 104.069227,4.88031467 C104.1386,5.14803688 104.175859,5.54355784 104.180943,6.06685674 C103.592604,6.10675153 103.076294,6.1752185 102.632014,6.27217432 C102.187713,6.36915096 101.819337,6.50291832 101.526887,6.67349721 C101.27806,6.82347248 101.07495,7.024561 100.917527,7.27676278 C100.760115,7.52896455 100.678867,7.79369725 100.673779,8.07095046 C100.672753,8.35384936 100.724418,8.60322829 100.830363,8.81909768 C100.936287,9.03496706 101.105273,9.20986877 101.337308,9.3438132 C101.489617,9.42797768 101.677893,9.4898094 101.902137,9.52916255 C102.126381,9.56853652 102.362396,9.58801518 102.610171,9.58759853 C102.866633,9.59280673 103.15399,9.53197497 103.472232,9.40648865 C103.790474,9.28095025 104.107965,9.06146637 104.424686,8.74804744 C104.501976,8.66482044 104.562714,8.61328011 104.606984,8.59350979 C104.651253,8.57371864 104.698752,8.59364521 104.749678,8.6532999 C104.884039,8.83381604 105.106846,9.02999844 105.418098,9.24182627 C105.72934,9.45366451 106.188099,9.56893235 106.794385,9.58764019 C107.247165,9.58139036 107.655092,9.46238303 108.018166,9.23218069 C108.381229,9.00198875 108.663899,8.70069451 108.866185,8.32830835 C108.842748,8.28851772 108.806708,8.24487302 108.758188,8.19713468 C108.709648,8.14942759 108.655378,8.12088666 108.595359,8.11161607 C108.396177,8.35281813 108.168235,8.54746932 107.911533,8.69556964 C107.6548,8.84368037 107.345621,8.91984506 106.983963,8.92408453 C106.464029,8.89929351 106.034665,8.64761255 105.695862,8.16916666 C105.357047,7.69071035 105.181573,7.13439148 105.169448,6.50022047 C106.694231,6.48272092 107.710382,6.34167251 108.2179,6.07705439 C108.725397,5.81244669 108.959547,5.40734264 108.92034,4.86174224 C108.927632,4.60389478 108.764053,4.32066256 108.429478,4.01203516 C108.094893,3.70340777 107.545345,3.53527673 106.780844,3.5076212 C106.390968,3.50866284 106.029874,3.5908482 105.697549,3.75306273 C105.365224,3.91527726 105.085377,4.14942743 104.857998,4.4555028 C104.581255,4.01908706 104.247805,3.7477087 103.857649,3.64134689 C103.467492,3.53499548 103.178052,3.49042373 102.989328,3.5076212 C102.413259,3.51595431 101.913366,3.64811754 101.489648,3.90370465 C101.065919,4.15930217 100.843623,4.48766863 100.822738,4.88882487 C100.818572,5.03269613 100.856904,5.16810927 100.936152,5.29505389 C101.015421,5.42200892 101.158167,5.48971549 101.364391,5.49817361 C101.534501,5.49296541 101.664831,5.44567497 101.755391,5.3559898 C101.84591,5.26630464 101.891648,5.16472394 101.892492,5.05131023 C101.892492,5.00308231 101.889367,4.95735434 101.882075,4.91420962 C101.874784,4.87108574 101.865201,4.83546167 101.851555,4.80757698 C101.824473,4.76466143 101.810931,4.67442419 101.810931,4.53675069 C101.821348,4.34069329 101.929137,4.19456167 102.134225,4.09835584 C102.339313,4.0022125 102.579109,3.95420333 102.853602,3.95448458 C103.002244,3.95395334 103.159605,3.97771314 103.325684,4.02573272 C103.491752,4.07375231 103.62778,4.14933368 103.733777,4.25237267 L103.73409,4.25234142 Z M104.180943,6.54080275 C104.181505,6.87848147 104.176776,7.1611512 104.167401,7.38881195 C104.158026,7.6164727 104.139798,7.79419724 104.113236,7.921996 C103.995593,8.20466574 103.800942,8.45518006 103.529282,8.67352854 C103.257602,8.89187703 103.0054,9.00697821 102.772667,9.01883207 C102.394072,9.01258223 102.111976,8.9164389 101.926345,8.72938126 C101.740714,8.54234446 101.648185,8.30029867 101.648745,8.00324389 C101.648745,7.84867499 101.690414,7.69910596 101.773838,7.55452639 C101.857274,7.40994682 101.982573,7.27560656 102.149777,7.15150562 C102.357625,6.99623882 102.630827,6.86533598 102.969349,6.7588075 C103.307882,6.65228943 103.711746,6.57962465 104.180943,6.54080275 L104.180943,6.54080275 Z M105.182989,6.02623279 C105.238821,5.4363523 105.401338,4.94717752 105.670466,4.55871887 C105.939595,4.17026022 106.30521,3.96883837 106.767302,3.95444291 C107.098492,3.96683842 107.367058,4.07067947 107.573,4.26588273 C107.778932,4.46110682 107.885003,4.67325756 107.891221,4.90232452 C107.907887,5.3088452 107.715455,5.59602523 107.314028,5.76387503 C106.91258,5.93173525 106.202234,6.01918089 105.182989,6.02623279 L105.182989,6.02623279 Z M114.231202,7.77304154 C114.234327,7.89728831 114.221827,7.99680656 114.194432,8.07162753 C114.167037,8.14641725 114.107039,8.22294651 114.014499,8.30114239 C113.763423,8.51780343 113.53097,8.6802992 113.317132,8.78862972 C113.103294,8.89696024 112.911466,8.9511413 112.741637,8.9511413 C112.359657,8.95320877 112.019999,8.74941199 111.722663,8.34007888 C111.425327,7.93074577 111.268467,7.30389749 111.252113,6.45955486 C111.256279,5.97574452 111.295862,5.58925457 111.372287,5.30009542 C111.448743,5.01093628 111.539574,4.79709809 111.644801,4.65858085 C111.864003,4.35193258 112.092508,4.15954175 112.330324,4.08138753 C112.568141,4.00326456 112.759407,3.96996334 112.904132,3.98149429 C113.146178,3.98234844 113.356058,4.02461817 113.533793,4.10843891 C113.711518,4.19218673 113.867243,4.31241277 114.000958,4.4689712 C114.093456,4.56803112 114.155548,4.66447653 114.187151,4.75841159 C114.218713,4.85236748 114.2334,4.99962407 114.231108,5.20019177 L114.231202,7.77304154 Z M114.082248,8.77102601 C114.117455,8.74269341 114.152662,8.72717298 114.18787,8.72446472 C114.223077,8.7213398 114.242035,8.74311007 114.244743,8.78862972 C114.250993,8.96409391 114.275784,9.13788105 114.319221,9.30995991 C114.362657,9.48204919 114.387448,9.57457803 114.393698,9.58755686 C114.445051,9.60703552 114.487966,9.6154728 114.52234,9.61297287 C114.556714,9.61088959 114.59963,9.60193149 114.650983,9.58755686 C114.797948,9.46427882 115.005015,9.35538582 115.272175,9.26087786 C115.539324,9.16640115 115.87842,9.09471551 116.289461,9.0459147 C116.330085,9.00018672 116.350397,8.93927164 116.350397,8.86310695 C116.350397,8.7869631 116.330085,8.72599593 116.289461,8.6802992 C115.869107,8.65092497 115.596031,8.56068773 115.470222,8.40947291 C115.344392,8.25826851 115.287966,8.01904556 115.300956,7.69179365 L115.300956,1.55766148 C115.303039,1.11335012 115.312205,0.766359138 115.328038,0.516688546 C115.343871,0.267028371 115.352829,0.140083755 115.355121,0.135844282 C115.357204,0.0433466869 115.298664,-0.00181880541 115.179084,0.00035106237 C114.985839,0.0724084313 114.695263,0.14515654 114.307377,0.218779626 C113.919471,0.292423544 113.578125,0.341505601 113.28332,0.366036213 C113.269779,0.425305506 113.269779,0.496376574 113.28332,0.579311918 C113.296862,0.662226429 113.323944,0.726578922 113.364568,0.772275651 C113.708736,0.764984174 113.941189,0.813212086 114.061936,0.91614691 C114.182672,1.01916506 114.239098,1.34129211 114.231202,1.88264261 L114.231202,3.61591005 C114.232046,3.66247134 114.223911,3.694658 114.205786,3.71236587 C114.187974,3.73017791 114.155892,3.73861519 114.10933,3.73778188 C114.06954,3.72840712 113.942605,3.68986646 113.728486,3.6226807 C113.514367,3.55559912 113.289247,3.51718345 113.053129,3.50757953 C112.611338,3.50966281 112.228806,3.58039014 111.905513,3.72085524 C111.582219,3.86135158 111.287695,4.06108597 111.021952,4.32004799 C110.728283,4.61147791 110.499768,4.95620853 110.336428,5.35426068 C110.173089,5.75231283 110.090153,6.20198864 110.087612,6.70328811 C110.091778,7.55215145 110.292992,8.24106062 110.6902,8.7700052 C111.087398,9.2989602 111.653873,9.57147395 112.389604,9.58755686 C112.649712,9.58764019 112.914893,9.51974613 113.185146,9.38392674 C113.45541,9.24809694 113.754444,9.04378975 114.082248,8.77102601 L114.082248,8.77102601 Z M117.732371,1.34100045 C117.738621,1.5243811 117.806849,1.68574148 117.935491,1.82509203 C118.064134,1.9644634 118.213088,2.03781566 118.382355,2.04513839 C118.577568,2.03576363 118.742314,1.96326552 118.876602,1.8273003 C119.01088,1.69130384 119.080847,1.5472555 119.086493,1.39516571 C119.082326,1.22364933 119.019619,1.06567427 118.898612,0.921230111 C118.777584,0.776796367 118.623546,0.700058779 118.43652,0.691027763 C118.264993,0.69831924 118.107018,0.765504994 117.962574,0.894147482 C117.81814,1.02278997 117.741402,1.17174443 117.732371,1.34100045 Z M118.964621,7.80012417 L118.964621,5.10137142 C118.966704,4.74279741 118.97587,4.40206669 118.991703,4.07918967 C119.007536,3.75632306 119.016494,3.58383796 119.018786,3.56174479 C119.018213,3.53414134 119.002432,3.51153776 118.971391,3.49403822 C118.94035,3.47653867 118.897435,3.46747641 118.842749,3.46695559 C118.655004,3.540912 118.414364,3.60971229 118.120841,3.67346063 C117.827306,3.73720898 117.449566,3.7992907 116.98761,3.85965371 C116.975214,3.90590251 116.972922,3.96911961 116.980318,4.04923211 C116.988651,4.1293342 116.999484,4.19254089 117.014171,4.2388001 C117.373725,4.25911207 117.612666,4.32473537 117.731007,4.43565957 C117.849348,4.54656293 117.903794,4.78787957 117.894346,5.15959908 L117.894346,7.80012417 C117.905388,8.33895391 117.846119,8.67635139 117.716622,8.81232702 C117.587136,8.94830265 117.321393,9.02164449 116.919382,9.03237338 C116.878758,9.08143461 116.858446,9.15593267 116.858446,9.25579466 C116.858446,9.35568789 116.878758,9.43014429 116.919382,9.47922635 C117.194156,9.47193487 117.443546,9.46599752 117.66754,9.460581 C117.891524,9.4553728 118.147684,9.45224788 118.435999,9.45224788 C118.716971,9.45252912 118.967485,9.4553728 119.187532,9.460581 C119.407567,9.4657892 119.658082,9.4721432 119.939064,9.47922635 C119.979688,9.43016512 120,9.35566706 120,9.25579466 C120,9.15590142 119.979688,9.08145544 119.939064,9.03237338 C119.537054,9.02716518 119.271311,8.95591704 119.141824,8.8173998 C119.012338,8.67889299 118.95309,8.33979764 118.9641,7.80012417 L118.964621,7.80012417 Z" id="Combined-Shape" fill="#000000" fill-rule="nonzero"></path>
    </g>
</svg>