<svg xmlns="http://www.w3.org/2000/svg" viewBox="0 0 120 13"><path d="M.082 3.223c0-.461.152-.91.453-1.336.31-.438.691-.648 1.16-.649.402 0 .754.176 1.055.54.305.351.453.882.453 1.581q.001.505-.133.957c-.09.293-.188.54-.293.73a9 9 0 0 1-.468.759l-.903 1.36c-.44.69-.664 1.25-.664 1.694h1.594q.24.001.375-.296.134-.294.25-1.051c.113-.035.199-.012.262.078q-.017.97-.215 2.203a13 13 0 0 0-.7-.027H.743L0 9.793c0-.445.067-.879.203-1.29.137-.413.406-.952.817-1.605l.664-1.02c.492-.772.734-1.59.73-2.464 0-.605-.078-1.04-.234-1.297-.16-.262-.34-.398-.543-.398-.297 0-.52.09-.66.27a.9.9 0 0 0-.22.585c0 .043.013.113.036.196a1 1 0 0 1 .031.14q.036.194.035.293c0 .141-.05.273-.148.387q-.147.174-.27.172c-.093 0-.18-.051-.253-.157a.67.67 0 0 1-.106-.382zm6.945 3.902c0-.73-.097-1.27-.289-1.61Q6.454 5 5.992 5q-.562-.001-1.137.332l.301-4.027q.52.065.965.066.539.002 1.469-.148l.066.054-.148.95q-.55.081-.938.082-.303-.001-1.047-.125l-.18 2.336a1.67 1.67 0 0 1 .88-.227c.484 0 .867.254 1.16.758.297.504.44 1.11.441 1.82 0 .887-.18 1.62-.531 2.191q-.533.862-1.367.864-.411-.001-.84-.324-.427-.328-.426-.73-.001-.213.098-.364c.07-.105.148-.152.238-.153q.24-.002.457.45c.008.015.024.058.055.113q.041.088.058.14.025.036.067.11.045.065.078.101.036.029.09.086a.25.25 0 0 0 .113.063.7.7 0 0 0 .129.012q.409.001.695-.664.288-.667.29-1.641m7.121-.617-.707.293q-.855.339-.847 1.539 0 .373.16.687c.109.203.27.31.48.309s.473-.203.786-.61a.5.5 0 0 0 .128-.363zm0 2.59h-.02l-.179.218c-.195.242-.359.398-.484.47a.9.9 0 0 1-.488.116q-.51 0-.82-.363c-.204-.238-.306-.625-.305-1.144q-.002-.697.406-1.231.404-.533 1.07-.797l.766-.297q.053-.024.054-.16c0-1.21-.242-1.82-.726-1.82a.93.93 0 0 0-.52.148.5.5 0 0 0-.222.442c0 .129.007.223.02.27q.023.081.023.257a.53.53 0 0 1-.11.309.33.33 0 0 1-.281.152c-.211 0-.312-.16-.313-.492q0-.57.465-1.059.467-.49 1.012-.488c.902 0 1.35.785 1.352 2.36V8.07q0 .406.011.617c.011.211.04.273.098.395q.088.18.246.18c.074 0 .137-.04.188-.11q.077-.11.09-.11.023-.002.07.079a.3.3 0 0 1 .047.152q0 .042-.098.196a1.2 1.2 0 0 1-.277.289.62.62 0 0 1-.387.144q-.534.004-.688-.804m3.586-4.34c.441-.754.926-1.13 1.47-1.13q.511-.002.745.477.239.503.239 1.868v2.086c0 .55.03.895.097 1.023q.106.191.5.254.036.052.035.226a.54.54 0 0 1-.035.23q-.767-.024-.95-.026-.158.002-.91.027-.034-.054-.034-.219c0-.113.011-.195.035-.238.246-.035.395-.121.457-.254.062-.129.098-.473.097-1.023V5.934q0-.744-.105-1.079c-.113-.336-.273-.508-.477-.507-.363 0-.73.277-1.09.828a1.17 1.17 0 0 0-.152.586v2.297c0 .55.028.895.086 1.023q.093.192.45.254c.03.043.042.125.042.238q.005.166-.043.219-.75-.025-.882-.027-.246.001-.985.027-.035-.053-.035-.219c0-.113.012-.195.035-.238.277-.035.45-.121.524-.246.07-.125.105-.473.105-1.031V5.332q0-.585-.105-.734-.1-.158-.48-.211a.95.95 0 0 1-.02-.399q.703-.14 1.129-.406.069.002.109.113.07.253.07 1.063.002.175.078 0m5.328 0q.656-1.13 1.47-1.13c.34 0 .59.157.741.477q.24.503.243 1.868v2.086c0 .55.03.895.097 1.023q.107.191.496.254.036.052.036.226a.54.54 0 0 1-.036.23q-.763-.024-.945-.026-.159.002-.91.027-.035-.054-.035-.219c0-.113.011-.195.035-.238q.364-.053.457-.254c.062-.129.094-.473.094-1.023V5.934q.002-.744-.102-1.079c-.113-.336-.273-.508-.476-.507q-.546 0-1.094.828a1.17 1.17 0 0 0-.153.586v2.297c0 .55.032.895.09 1.023q.09.192.45.254a.5.5 0 0 1 .042.238q.005.166-.043.219-.755-.025-.882-.027-.25.001-.989.027-.035-.053-.035-.219c0-.113.012-.195.035-.238.281-.035.453-.121.524-.246s.105-.473.105-1.031V5.332q0-.585-.105-.734-.1-.158-.48-.211a.9.9 0 0 1-.016-.399q.697-.14 1.125-.406.072.002.11.113.07.253.07 1.063.005.175.081 0m4.489-3.371q0-.252.148-.457c.102-.145.207-.211.317-.211.113 0 .21.074.296.23.086.152.13.32.13.492a.8.8 0 0 1-.141.457q-.143.221-.32.22-.164-.002-.297-.231a1 1 0 0 1-.133-.5m.812 6.672q-.001.839.11 1.039c.07.125.25.207.535.238a.5.5 0 0 1 .043.238q-.001.166-.043.219-.772-.025-.992-.027-.25.001-1.004.027-.036-.053-.035-.219c0-.113.011-.195.035-.238.285-.035.465-.121.539-.246.07-.125.109-.473.11-1.031V5.332q0-.584-.11-.734-.095-.158-.477-.211a1 1 0 0 1-.015-.399q.83-.17 1.222-.406c.082 0 .117.035.117.102v.101c-.007.04-.007.125-.011.258 0 .129-.008.25-.012.375l-.012.418v.434zm7.086-.028V5.375q0-.323-.027-.453a1 1 0 0 0-.121-.305q-.276-.505-.727-.5-.539-.001-.832.696c-.172.387-.258 1-.258 1.859q0 1.223.293 1.906.294.668.688.668.352 0 .844-.668c.097-.133.14-.316.14-.547m-.098 1.031q-.656.84-1.117.84-.71 0-1.113-.82-.406-.827-.406-2.156-.001-1.5.613-2.461c.379-.56.824-.836 1.344-.836.09 0 .188.016.297.059.105.043.199.082.273.125q.117.053.129.054.076.001.078-.133V1.95a10 10 0 0 0-.015-.672q-.013-.222-.114-.328-.094-.106-.148-.113a5 5 0 0 0-.297-.04Q34.778.643 34.82.38C35.351.32 35.77.19 36.078 0c.074 0 .117.047.117.145q-.033.556-.043 1.464v6.34q.001.545.125.758.121.206.535.258.041.07.04.203.001.119-.04.18c-.504.093-.863.273-1.085.554q-.099.042-.168 0a4 4 0 0 1-.098-.82c0-.02-.004-.04-.012-.047q-.01-.023-.027-.023c-.017 0-.024.004-.035.015zm2.82-7.675q0-.252.153-.457c.105-.145.207-.211.317-.211.113 0 .21.074.296.23.086.152.13.32.13.492a.8.8 0 0 1-.145.457q-.141.221-.317.22-.163-.001-.297-.231a1 1 0 0 1-.136-.5m.817 6.672q0 .839.106 1.039c.074.125.25.207.535.238.031.043.047.125.047.238q0 .166-.047.219-.767-.025-.988-.027c-.164 0-.504.011-1.008.027a.5.5 0 0 1-.032-.219c0-.113.012-.195.032-.238.289-.035.465-.121.539-.246s.109-.473.11-1.031V5.332q0-.584-.106-.734-.102-.158-.473-.211a.95.95 0 0 1-.02-.399q.83-.17 1.223-.406.117 0 .117.102c0 .02 0 .05-.004.101 0 .04-.007.125-.007.258-.004.129-.008.25-.016.375q-.001.18-.008.418v.434zm5.11-2.243 1.62-.039q.136.001.13-.191c0-.535-.075-.91-.215-1.133-.148-.223-.32-.336-.528-.336a.7.7 0 0 0-.23.047 1 1 0 0 0-.277.207c-.113.102-.211.273-.305.527-.09.25-.152.56-.195.918m2.347 2.653q.153.012.188.218c-.402.81-.91 1.21-1.528 1.215-.59 0-1.05-.297-1.367-.894-.277-.504-.418-1.2-.418-2.07 0-.985.191-1.79.567-2.383q.568-.902 1.219-.903c1.01 0 1.51.812 1.511 2.434q.001.236-.168.238l-2.379-.027c0 .785.098 1.42.286 1.918q.394 1 .98 1.004c.25 0 .449-.051.61-.16q.24-.174.5-.59m2.664-3.711q.656-1.13 1.47-1.13.509-.002.741.477.239.503.239 1.868v2.086c0 .55.035.895.101 1.023.07.129.238.21.5.254q.036.051.035.226a.54.54 0 0 1-.035.23c-.516-.015-.828-.026-.949-.026-.109 0-.41.011-.914.027q-.035-.054-.035-.219c0-.113.011-.195.035-.238q.368-.054.46-.254.095-.197.095-1.023V5.934q0-.744-.106-1.079c-.113-.336-.27-.508-.473-.507q-.55 0-1.093.828a1.17 1.17 0 0 0-.153.586v2.297c0 .55.028.895.086 1.023.063.129.211.211.453.254a.5.5 0 0 1 .043.238c0 .11-.011.184-.043.219q-.755-.025-.882-.027-.248.002-.989.027-.035-.054-.035-.219c0-.113.012-.195.035-.238.281-.035.457-.121.528-.246.066-.125.102-.473.101-1.031V5.332c0-.391-.035-.633-.101-.734q-.105-.158-.48-.211a.95.95 0 0 1-.02-.399q.697-.14 1.129-.406.065.002.105.113.07.252.07 1.063.006.176.082 0m7.243 3.738q-.315.814-.664 1.113-.345.293-.797.293c-.555 0-.984-.277-1.301-.828-.31-.555-.465-1.29-.465-2.219 0-.94.188-1.71.563-2.32q.564-.907 1.269-.906c.422 0 .758.12 1 .363q.368.37.367.957 0 .299-.14.461-.136.159-.297.16c-.203 0-.316-.164-.34-.504a3 3 0 0 0-.059-.476.8.8 0 0 0-.183-.336.5.5 0 0 0-.395-.164c-.297 0-.543.223-.734.66-.188.445-.285 1.04-.285 1.8 0 .798.117 1.45.351 1.938s.512.73.844.73q.622-.002 1.074-.917.145.024.192.195m1.546-7.11q-.001-.251.157-.456c.102-.145.203-.211.312-.211.113 0 .211.074.297.23.086.152.133.32.133.492 0 .156-.05.312-.145.457q-.139.221-.32.22-.157-.001-.297-.231a1 1 0 0 1-.137-.5m.817 6.673q0 .839.105 1.039c.075.125.254.207.54.238a.5.5 0 0 1 .042.238q0 .166-.043.219-.769-.025-.992-.027-.247.002-1.004.027-.035-.053-.035-.219c0-.113.012-.195.035-.238.285-.035.465-.121.535-.246.075-.125.11-.473.11-1.031V5.332q0-.584-.102-.734-.104-.158-.476-.211a.9.9 0 0 1-.016-.399c.551-.113.961-.25 1.219-.406q.117 0 .117.102c0 .02 0 .05-.004.101q-.001.06-.008.258l-.011.375-.012.418v.434zm4.844.437q-.312.814-.664 1.113a1.18 1.18 0 0 1-.793.293q-.832 0-1.301-.828c-.312-.555-.47-1.29-.469-2.219 0-.94.188-1.71.563-2.32.379-.605.8-.906 1.273-.906q.632 0 1 .363.365.37.367.957 0 .299-.14.461c-.094.105-.191.16-.301.16-.2 0-.312-.164-.336-.504a3 3 0 0 0-.063-.476.74.74 0 0 0-.183-.336.49.49 0 0 0-.395-.164c-.297 0-.539.223-.73.66-.191.445-.285 1.04-.285 1.8 0 .798.117 1.45.347 1.938q.35.731.848.73.617-.002 1.074-.917.146.024.188.195m1.601-.437v-6.11a9 9 0 0 0-.02-.672q-.014-.222-.113-.328-.094-.106-.148-.113a5 5 0 0 0-.297-.04q-.105-.154-.05-.417.79-.09 1.25-.38.12 0 .12.145c-.023.371-.039.86-.039 1.465v6.45q-.001.836.114 1.046.11.195.53.23a.6.6 0 0 1 .036.24q0 .164-.035.218c-.516-.016-.844-.027-.996-.027-.164 0-.5.011-1 .027q-.042-.054-.043-.219c0-.113.015-.195.043-.238q.42-.031.531-.23c.074-.142.117-.489.117-1.048m2.352-1.16c0-.927.164-1.69.496-2.298.352-.652.82-.973 1.398-.972q.645-.001 1.082.496.446.493.621 1.183.176.678.176 1.47 0 1.453-.582 2.343-.51.789-1.312.781-.896.001-1.39-.906c-.325-.605-.489-1.3-.49-2.098m1.758-2.782q-.986 0-.989 2.457c0 .305.024.61.063.914q.07.458.203.914c.09.293.219.54.383.727.168.19.363.289.586.289q.392.001.695-.508.305-.506.305-1.691 0-1.493-.332-2.297c-.332-.804-.527-.805-.914-.805m4.425 1.02a1.24 1.24 0 0 0-.14.613V8.3c0 .169.008.306.02.395q.015.13.054.215c.023.055.074.133.14.227a.7.7 0 0 0 .29.226 1 1 0 0 0 .344.067q.358.001.617-.23c.259-.232.305-.364.39-.63q.133-.398.192-.812.063-.421.062-.903c0-.766-.105-1.39-.312-1.863q-.301-.725-.754-.723-.187 0-.457.258c-.27.258-.328.375-.446.61m-.14-.52q0 .066.023.086c.02.012.036 0 .047-.023.383-.703.79-1.05 1.227-1.051.449 0 .824.28 1.125.851.305.57.457 1.23.457 2 0 1.09-.223 1.98-.66 2.641q-.529.789-1.32.781a1.46 1.46 0 0 1-.778-.21q-.066-.054-.098-.044-.023.017-.023.145V11.3c0 .559.039.91.117 1.039.082.133.29.215.617.238a.5.5 0 0 1 .043.234q0 .17-.043.223a42 42 0 0 0-1.082-.023q-.253 0-1.004.023-.035-.052-.035-.223 0-.164.035-.234c.277-.016.457-.094.532-.23q.112-.207.113-1.047V5.33c0-.39-.035-.632-.106-.734q-.1-.158-.476-.21a.9.9 0 0 1-.016-.399q.698-.14 1.125-.406.07.001.106.113.074.253.074.922zm4.863 1.2 1.621-.04q.134.001.133-.191 0-.8-.219-1.133c-.148-.223-.32-.336-.527-.336a.7.7 0 0 0-.23.047 1 1 0 0 0-.278.207c-.113.102-.21.273-.3.527-.094.25-.157.56-.2.918m2.348 2.652q.153.012.187.218c-.398.81-.91 1.21-1.527 1.215-.59 0-1.04-.297-1.363-.894-.281-.504-.422-1.2-.422-2.07 0-.985.19-1.79.57-2.383q.563-.902 1.215-.903c1.01 0 1.51.812 1.512 2.434q0 .236-.164.238l-2.38-.027c0 .785.095 1.42.282 1.918q.394 1 .98 1.004.375.002.61-.16.241-.176.5-.59m4.148-.438V5.375q0-.323-.027-.453a1 1 0 0 0-.125-.305q-.277-.505-.723-.5-.539-.001-.832.695c-.172.387-.258 1-.258 1.86q0 1.223.293 1.906.294.668.688.668.346 0 .844-.668c.097-.133.14-.316.14-.547m-.097 1.031q-.657.84-1.118.84-.71 0-1.113-.82-.408-.827-.406-2.156-.001-1.5.613-2.461c.38-.56.824-.836 1.34-.836.09 0 .19.015.297.058.109.043.199.082.277.125q.117.054.13.055.076.001.077-.133V1.95a10 10 0 0 0-.015-.672q-.013-.222-.114-.328-.094-.106-.148-.113a5 5 0 0 0-.297-.04q-.097-.154-.055-.417.797-.09 1.254-.38c.078 0 .121.048.121.145q-.036.557-.043 1.465v6.34q.001.546.125.758.122.206.532.258.044.07.043.203.002.119-.043.18c-.5.093-.86.272-1.082.554-.067.027-.121.027-.172 0a4.2 4.2 0 0 1-.094-.82c0-.02-.004-.04-.016-.047q-.006-.024-.023-.023c-.017 0-.024.003-.035.015zm2.82-7.675q0-.252.152-.457c.102-.145.207-.211.317-.211.113 0 .21.074.297.23.085.152.129.32.128.492a.8.8 0 0 1-.144.457q-.142.221-.316.219-.163-.001-.297-.23a1 1 0 0 1-.137-.5m.816 6.671q0 .84.106 1.04c.074.125.25.207.535.238.031.043.047.125.047.238q0 .166-.047.219-.767-.025-.988-.027-.252.002-1.008.027c-.024-.035-.031-.11-.031-.219 0-.113.007-.195.03-.238.286-.035.466-.121.54-.246s.109-.473.11-1.031V5.332c0-.391-.036-.633-.106-.734q-.101-.158-.477-.211a.9.9 0 0 1-.015-.399c.55-.113.96-.25 1.222-.406q.117.001.118.101c0 .02 0 .051-.004.102q-.007.06-.008.258c-.004.129-.008.25-.016.375q-.001.179-.008.418v.433zm3.907-1.55-.711.293q-.85.339-.844 1.539c0 .25.05.477.16.687.109.203.27.31.48.309q.317 0 .786-.61a.5.5 0 0 0 .129-.363zm0 2.59h-.02l-.18.218q-.294.363-.484.469a.9.9 0 0 1-.488.117q-.51 0-.82-.363c-.204-.238-.31-.625-.31-1.145q.002-.697.407-1.23a2.5 2.5 0 0 1 1.07-.797l.77-.297q.054-.025.055-.16c0-1.21-.242-1.82-.727-1.82a.92.92 0 0 0-.52.148.5.5 0 0 0-.222.441c0 .13.004.223.015.27q.029.082.028.258a.53.53 0 0 1-.11.308.33.33 0 0 1-.285.153c-.207 0-.312-.16-.308-.492q.001-.57.464-1.059.465-.49 1.012-.488c.898 0 1.35.785 1.348 2.36V8.07c0 .27.008.477.012.617q.016.212.097.395.09.18.25.18c.07 0 .133-.04.188-.11a.5.5 0 0 1 .09-.11q.024-.002.066.079a.27.27 0 0 1 .047.152c0 .028-.027.094-.094.196a1.3 1.3 0 0 1-.277.289.63.63 0 0 1-.387.144q-.534.005-.687-.805m5.507-1.04v-6.11a10 10 0 0 0-.015-.67c-.012-.149-.047-.259-.114-.33q-.1-.105-.148-.112c-.035-.008-.137-.02-.297-.04Q97.19.643 97.238.38q.797-.09 1.254-.38.117 0 .118.145-.035.557-.04 1.465v6.45q.001.836.114 1.046.115.195.535.23a.6.6 0 0 1 .035.239q0 .165-.035.219c-.516-.016-.848-.028-.996-.028-.168 0-.5.012-1 .028q-.047-.054-.047-.22c0-.112.016-.194.047-.237.277-.02.457-.098.531-.23q.112-.211.113-1.048m2.793-6.672q0-.252.153-.457c.102-.145.207-.21.312-.21.113 0 .215.074.297.23.09.152.133.32.133.492 0 .156-.05.312-.145.457q-.139.221-.32.219c-.105 0-.207-.078-.297-.23a1 1 0 0 1-.133-.5m.817 6.672q.001.84.101 1.04.111.188.54.238a.5.5 0 0 1 .042.238q0 .165-.043.219-.769-.026-.992-.028c-.164 0-.5.012-1.004.028q-.035-.054-.035-.219c0-.113.012-.195.035-.238.285-.035.465-.121.54-.246.07-.125.104-.473.105-1.032V5.332c0-.391-.031-.633-.102-.735q-.104-.158-.476-.21a.95.95 0 0 1-.02-.399q.831-.17 1.223-.406.119.001.12.101c0 .02-.003.051-.007.102q-.001.059-.008.258l-.011.375q-.007.179-.008.418v.433zm2.836-3.367c-.102.141-.148.336-.149.586v3.496c.227.441.441.656.645.656q.61-.001.937-.77c.215-.52.32-1.2.32-2.03q0-.998-.292-1.692-.287-.698-.704-.699c-.289 0-.543.156-.757.453m-.059-.437c.297-.422.629-.625.996-.625.41 0 .777.258 1.102.765q.485.766.484 1.98c0 1.05-.207 1.89-.621 2.552-.41.648-.863.977-1.355.976q-.521 0-.79-.34-.07-.098-.125-.09-.046.002-.117.122c-.02.035-.047.082-.078.128a.4.4 0 0 1-.066.102q-.02.04-.063.11-.129.001-.199-.169a9 9 0 0 0 .035-.992V1.95a10 10 0 0 0-.015-.672q-.008-.222-.11-.328-.1-.106-.152-.113-.053-.011-.293-.04-.1-.154-.059-.417.79-.09 1.254-.38.117 0 .117.145a24 24 0 0 0-.035 1.465v2.578c0 .125.031.152.09.067m4.543 1.562 1.621-.039q.135.001.13-.191 0-.8-.216-1.133c-.148-.223-.32-.336-.527-.336a.7.7 0 0 0-.23.047 1 1 0 0 0-.278.207c-.113.102-.21.273-.305.527-.09.25-.152.56-.195.918m2.344 2.652q.157.013.191.22c-.402.808-.91 1.21-1.527 1.214-.59 0-1.05-.297-1.367-.895-.277-.504-.418-1.2-.418-2.07 0-.984.19-1.79.566-2.383q.569-.902 1.219-.902c1.01 0 1.51.812 1.512 2.434q0 .236-.164.238l-2.383-.027c0 .785.098 1.42.285 1.918q.394 1 .98 1.003c.25 0 .453-.05.61-.16.16-.117.328-.312.496-.59m2.625-3.71c0 .046.008.082.012.097.011.02.027-.008.058-.066a3 3 0 0 1 .442-.82c.176-.23.359-.34.55-.34q.259-.001.395.214a.8.8 0 0 1 .14.45q0 .271-.128.488c-.128.217-.184.219-.29.219a.2.2 0 0 1-.128-.051.5.5 0 0 1-.09-.102q-.03-.047-.082-.136a1 1 0 0 0-.067-.121q-.059-.094-.187-.094c-.074 0-.207.227-.41.68q-.213.504-.215.937v1.945q0 .842.12 1.032c.079.125.286.203.614.246a.5.5 0 0 1 .043.238q0 .165-.043.219c-.512-.016-.87-.028-1.082-.028-.176 0-.52.012-1.023.028q-.035-.054-.035-.22c0-.112.011-.194.035-.237.293-.028.473-.11.55-.239.079-.133.114-.48.114-1.039V5.332c0-.391-.035-.633-.106-.735q-.099-.158-.472-.21a.95.95 0 0 1-.02-.4q.7-.138 1.13-.405.064.001.1.113.076.253.075 1.062zm4.82 1.75-.707.293q-.848.339-.848 1.539 0 .374.165.687c.109.203.27.31.48.309q.31 0 .785-.61a.5.5 0 0 0 .125-.363zm0 2.59h-.015l-.18.218q-.299.363-.485.469a.9.9 0 0 1-.488.117q-.516 0-.82-.363c-.207-.238-.31-.625-.309-1.145q.001-.697.407-1.23a2.5 2.5 0 0 1 1.07-.797l.77-.297q.051-.025.05-.16c0-1.21-.242-1.82-.723-1.82a.92.92 0 0 0-.52.148.5.5 0 0 0-.222.441c0 .13.004.223.016.27q.028.082.027.258a.53.53 0 0 1-.11.308.33.33 0 0 1-.284.153c-.207 0-.312-.16-.309-.493q-.001-.57.461-1.058.469-.49 1.016-.488c.898 0 1.35.785 1.347 2.359V8.07q-.001.406.016.617.013.212.094.395.086.18.25.18c.074 0 .137-.04.187-.11a.6.6 0 0 1 .086-.11q.03-.002.07.079.05.081.051.152-.002.042-.097.195a1.3 1.3 0 0 1-.282.29.6.6 0 0 1-.382.144q-.54.005-.692-.805"/></svg>