<svg xmlns="http://www.w3.org/2000/svg" width="110" height="16"><path fill="#000" fill-rule="nonzero" d="M5.033 0 3.178 1.286c-.194.135-.224.21-.224.314 0 .12.09.225.224.225.135 0 .314-.045.629-.18L5.96.778C5.77.459 5.46.198 5.033 0ZM4.001 6.865H2.64V4.173c0-.658.18-.957.987-.957h1.122c1.122 0 1.36.598 1.69 1.63a.833.833 0 0 0 .493-.075c-.074-.613-.299-2.049-.329-2.169 0-.03-.015-.044-.06-.044a3.36 3.36 0 0 1-.732.06H1.997c-.456 0-1.331-.016-1.93-.03-.09.09-.09.403 0 .493 1.047.045 1.302.12 1.302 1.361v5.998c0 1.241-.255 1.316-1.302 1.36-.09.09-.09.405 0 .495.554-.015 1.451-.03 1.945-.03h3.215c.718 0 1.915.03 1.915.03.21-.748.434-1.735.553-2.498a.683.683 0 0 0-.523-.075c-.3 1.077-.823 1.96-1.96 1.96H3.477c-.628 0-.837-.24-.837-.943V7.434H4c1.271 0 1.316.344 1.361 1.017.09.09.404.09.494 0-.015-.39-.03-.804-.03-1.317 0-.418.015-.927.03-1.286-.09-.09-.404-.09-.494 0-.045.823-.09 1.017-1.361 1.017Zm6.88.045c-.091.105-.175.14-.18 0-.014-.404-.049-.983-.119-1.137-.031-.068-.06-.12-.18-.12-.418.165-.807.3-1.84.434-.03.09 0 .33.03.42.808.074.973.149.973 1.016v2.917c0 1.226-.15 1.286-1.047 1.36-.09.09-.09.405 0 .495a41.342 41.342 0 0 1 3.14 0c.09-.09.09-.404 0-.494-.762-.075-.912-.135-.912-1.361V7.987c0-.314.135-.494.255-.628.568-.554 1.241-.883 1.824-.883.3 0 .614.195.793.539.15.299.18.703.18 1.151v2.274c0 1.226-.15 1.286-.928 1.36-.074.09-.074.405 0 .495.45-.015.928-.03 1.526-.03s1.137.015 1.585.03c.075-.09.075-.404 0-.494-.837-.075-1.002-.135-1.002-1.361V8.21c0-.822-.06-1.54-.404-2.004-.254-.329-.717-.508-1.241-.508-.733 0-1.566.194-2.453 1.211Zm6.073 3.29c.06.733.104 1.436.104 2.065.15-.03.3-.045.374-.045.105 0 .195 0 .3.03.403.104.807.164 1.36.164.838 0 2.379-.404 2.379-1.884 0-1.022-.733-1.616-1.75-1.993-.9-.333-1.496-.565-1.496-1.388 0-.613.538-.957 1.047-.957.329 0 1.196.12 1.39 1.391.09.09.39.075.48-.015.044-.538.074-1.092.09-1.585-.464-.075-1.182-.284-1.96-.284-1.107 0-2.109.717-2.109 1.675 0 1.092.494 1.555 1.645 2.034 1.242.508 1.526.822 1.526 1.466 0 .732-.718 1.047-1.272 1.047-.583 0-.907-.2-1.061-.36-.33-.343-.494-1.001-.584-1.375-.09-.09-.374-.075-.463.015Zm6.46-6.895c0 .39.36.778.719.778.419 0 .778-.402.778-.718 0-.359-.314-.777-.718-.777-.36 0-.778.358-.778.717Zm1.362 7.135V7.459c0-.743.06-1.7.06-1.7 0-.06-.075-.105-.195-.105-.426.164-1.017.299-2.049.433-.03.09 0 .33.03.42.815.076.972.164.972 1.016v2.917c0 1.241-.164 1.286-1.076 1.36-.09.09-.09.405 0 .495.493-.015 1.076-.03 1.675-.03.598 0 1.166.015 1.66.03.09-.09.09-.404 0-.494-.912-.06-1.077-.12-1.077-1.361Zm2.632 0c0 1.241-.164 1.301-1.002 1.36-.09.09-.09.405 0 .495.494-.015 1.002-.03 1.6-.03.524 0 1.018.015 1.362.03.09-.09.09-.404 0-.494-.613-.06-.778-.12-.778-1.361v-1.3c.287.008.498.03.643.08.165.113.3.248.479.487l1.092 1.466c.44.59.608.872.628 1.047.004.045.015.075.06.075.299-.015.628-.03.927-.03.464 0 .927.015 1.226.03.09-.09.09-.404 0-.494-.508-.06-.887-.126-1.286-.628L30.385 8.69c-.054-.067-.105-.135-.105-.21 0-.06 0-.09.06-.149l1.316-1.361c.449-.479.972-.598 1.57-.658.09-.09.09-.404 0-.494-.343.015-.762.03-1.3.03-.569 0-1.122-.015-1.466-.03-.09.09-.09.404 0 .494.837.06.483.588.344.763-.344.433-.813.942-1.197 1.226-.332.245-.734.422-1.017.46V3.546c0-.972.06-1.57.06-1.57 0-.105-.06-.15-.195-.15-.374.15-1.495.359-2.094.404-.03.12 0 .359.09.448.778.045.957-.03.957 1.227v6.536Zm7.793 0c0 1.241-.165 1.316-1.077 1.36-.09.09-.09.405 0 .495a57.38 57.38 0 0 1 1.675-.03c.598 0 1.167.015 1.66.03.09-.09.09-.404 0-.494-.912-.045-1.077-.12-1.077-1.361V3.545c0-.972.06-1.57.06-1.57 0-.105-.06-.15-.194-.15-.374.15-1.496.359-2.094.404-.03.12 0 .359.09.448.867.06.957.105.957 1.227v6.536Zm3.14-1.242c0 1.526 1.018 3.216 3.142 3.216.963 0 1.687-.34 2.197-.837.67-.656.974-1.596.974-2.513 0-1.556-.853-3.365-3.141-3.365-.984 0-1.797.403-2.344 1.047-.543.637-.827 1.507-.827 2.452Zm2.947-2.976c1.287 0 2.08 1.167 2.08 3.32 0 1.885-.973 2.349-1.676 2.349-1.555 0-2.064-1.885-2.064-3.037 0-1.3.314-2.632 1.66-2.632Zm6.596 1.092c.39-.479 1.074-.927 1.51-.927.958 0 1.78 1.076 1.78 2.767 0 1.226-.433 2.752-2.108 2.752-.27 0-.793-.075-1.062-.316-.3-.27-.359-.356-.359-.896V7.972c0-.314.066-.444.24-.658ZM47.6 6.76c-.022-.448-.05-.833-.12-.987-.031-.068-.06-.12-.179-.12-.419.165-.808.3-1.84.434-.03.09 0 .33.03.42.808.074.972.149.972 1.016v6.387c0 1.241-.164 1.316-1.077 1.36-.09.09-.09.405 0 .494a57.38 57.38 0 0 1 1.676-.03c.598 0 1.316.016 1.81.03.09-.09.09-.403 0-.493-1.062-.06-1.227-.12-1.227-1.361v-1.615c0-.195.057-.175.21-.113.366.148.828.232 1.3.232.838 0 1.586-.254 2.2-.837.702-.688 1.106-1.616 1.106-2.827 0-1.586-1.122-3.051-2.647-3.051-.696 0-1.459.456-2.05 1.121-.083.095-.156.084-.164-.06Zm9.468-4.531-1.131 1.78c-.121.19-.17.25-.17.418 0 .105.104.195.209.195s.224-.06.449-.285l1.72-1.63-.045-.164a1.207 1.207 0 0 0-.823-.344.78.78 0 0 0-.21.03Zm-2.184 5.818c.284-1.69 1.331-1.825 1.69-1.825.569 0 1.242.314 1.242 1.57 0 .135-.06.207-.225.21l-2.707.045Zm3.919 2.827c-.554.568-.987.807-1.855.807-.538 0-1.167-.314-1.63-1.077-.3-.493-.479-1.181-.479-2.049l3.979.03c.18 0 .284-.09.284-.254 0-1.256-.449-2.603-2.528-2.603-1.301 0-2.991 1.242-2.991 3.515 0 .838.21 1.646.703 2.214.508.598 1.211.957 2.288.957 1.137 0 1.945-.523 2.543-1.301-.045-.15-.135-.224-.314-.24Zm6.072-.464c0 .284-.028.4-.24.583-.552.479-1.031.718-1.405.718-.808 0-1.645-.882-1.645-2.752 0-1.077.21-1.675.433-1.99.464-.702 1.092-.747 1.391-.747.539 0 .913.194 1.212.538.21.24.254.344.254.808v2.842Zm-.164 1.102c.072-.058.214-.085.224.02.037.366.165.882.165.882a.34.34 0 0 0 .284 0c.329-.27.852-.493 1.765-.598.09-.09.09-.314 0-.404-.958-.075-1.092-.359-1.092-1.092V3.545c0-.972.06-1.57.06-1.57 0-.105-.06-.15-.195-.15-.374.15-1.495.359-2.094.404-.03.12 0 .359.09.448.778.045.957-.03.957 1.227v1.914c0 .105-.03.135-.134.135-.06 0-.673-.254-1.167-.254-.987 0-1.645.329-2.244.897-.643.643-1.032 1.526-1.032 2.632 0 1.84.928 3.186 2.543 3.186.583 0 1.137-.299 1.87-.902Zm3.918-8.207c0 .39.36.778.718.778.42 0 .778-.402.778-.718 0-.359-.314-.777-.718-.777-.359 0-.778.358-.778.717Zm1.361 7.135V7.459c0-.743.06-1.7.06-1.7 0-.06-.074-.105-.194-.105-.426.164-1.017.299-2.05.433-.03.09 0 .33.03.42.816.076.973.164.973 1.016v2.917c0 1.241-.165 1.286-1.077 1.36-.09.09-.09.405 0 .495.494-.015 1.077-.03 1.675-.03.598 0 1.167.015 1.66.03.09-.09.09-.404 0-.494-.912-.06-1.077-.12-1.077-1.361Zm7.943-6.402c0-.792 0-.942 1.3-.942.838 0 1.93.449 1.93 1.974 0 1.272-.882 1.72-2.124 1.72h-1.106V4.038Zm0 3.26h1.032c2.049 0 2.901 1.153 2.901 2.499 0 1.092-.419 2.004-2.692 2.004-1.047 0-1.241-.389-1.241-1.301V7.299Zm-.644-4.68a87.44 87.44 0 0 1-1.929-.03c-.09.09-.09.403 0 .493 1.047.045 1.301.12 1.301 1.361v5.998c0 1.241-.254 1.316-1.301 1.36-.09.09-.09.405 0 .495.583-.015 1.39-.03 1.944-.03.534 0 .928.03 2.184.03 2.976 0 3.77-1.496 3.77-2.782 0-1.436-1.003-2.259-2.304-2.633v-.03c.75-.38 1.42-1.147 1.42-1.96 0-1.001-.433-2.302-3.215-2.302-.523 0-1.331.03-1.87.03Zm10.62-.39-1.131 1.78c-.121.192-.17.252-.17.42 0 .104.104.194.209.194s.224-.06.449-.285l1.72-1.63-.045-.164a1.207 1.207 0 0 0-.823-.344.78.78 0 0 0-.21.03Zm-2.184 5.819c.284-1.69 1.331-1.825 1.69-1.825.569 0 1.242.314 1.242 1.57 0 .135-.06.207-.225.21l-2.707.045Zm3.919 2.827c-.554.568-.987.807-1.855.807-.538 0-1.167-.314-1.63-1.077-.3-.493-.479-1.181-.479-2.049l3.979.03c.18 0 .284-.09.284-.254 0-1.256-.449-2.603-2.528-2.603-1.301 0-2.991 1.242-2.991 3.515 0 .838.21 1.646.703 2.214.508.598 1.211.957 2.288.957 1.137 0 1.945-.523 2.543-1.301-.045-.15-.135-.224-.314-.24Zm3.515-4.039a1.881 1.881 0 0 1 1.27-.478c.913 0 1.661 1.106 1.661 2.557 0 1.705-.688 2.992-2.109 2.992-.463 0-.778-.33-1.077-.703v-3.74c0-.314.062-.457.255-.628Zm-.105-.463c-.094.085-.15.06-.15-.075V3.545c0-.972.06-1.57.06-1.57 0-.105-.06-.15-.194-.15-.374.15-1.496.359-2.094.404-.03.12 0 .359.09.448.777.045.957-.03.957 1.227v7.299c0 .583-.015.852-.06 1.062.075.12.15.18.329.18.091-.088.24-.227.354-.36.155-.18.244-.18.409-.042.342.289.788.371 1.316.371 1.526 0 3.305-1.39 3.305-3.769 0-1.825-1.346-2.946-2.647-2.946-.642 0-1.211.254-1.675.673Zm9.258 2.408v1.974c0 .194-.09.3-.21.389-.388.314-.897.658-1.315.658-.748 0-1.077-.598-1.077-1.062 0-.673.314-1.361 1.42-1.645l1.182-.314Zm0 2.767c.09.463.248.867 1.002.867.573 0 1.112-.254 1.421-.553-.025-.184-.085-.31-.254-.404-.112.093-.364.24-.553.24-.434 0-.45-.584-.45-1.272V8.226c0-2.124-1.166-2.527-2.258-2.527-1.226 0-2.468.807-2.468 1.66 0 .359.18.538.524.538.434 0 .703-.314.703-.508a.672.672 0 0 0-.045-.27 1.034 1.034 0 0 1-.03-.299c0-.463.628-.628 1.197-.628.508 0 1.211.254 1.211 1.945 0 .104-.045.164-.09.179l-1.286.314c-1.436.36-2.468 1.152-2.468 2.169 0 1.226.838 1.615 1.885 1.615.52 0 .972-.12 1.63-.628l.3-.24h.03Zm3.171-1.346c.06.732.105 1.435.105 2.064.15-.03.299-.045.374-.045.104 0 .194 0 .299.03.404.104.807.164 1.36.164.838 0 2.379-.404 2.379-1.884 0-1.022-.733-1.616-1.75-1.993-.9-.333-1.496-.565-1.496-1.388 0-.613.539-.957 1.047-.957.33 0 1.197.12 1.391 1.391.09.09.39.075.479-.015.045-.538.075-1.092.09-1.585-.464-.075-1.182-.284-1.96-.284-1.106 0-2.109.717-2.109 1.675 0 1.092.494 1.555 1.646 2.034 1.241.508 1.525.822 1.525 1.466 0 .732-.718 1.047-1.271 1.047-.583 0-.908-.2-1.062-.36-.329-.343-.494-1.001-.583-1.375-.09-.09-.374-.075-.464.015Z"/></svg>