<?xml version="1.0" encoding="UTF-8"?>
<svg width="120px" height="12px" viewBox="0 0 120 12" version="1.1" xmlns="http://www.w3.org/2000/svg" xmlns:xlink="http://www.w3.org/1999/xlink">
    <title>szy-tagline</title>
    <g id="Page-1" stroke="none" stroke-width="1" fill="none" fill-rule="evenodd">
        <g id="szy-tagline" transform="translate(0.000000, -0.000000)" fill="#000000" fill-rule="nonzero">
            <path d="M0.911694759,7.36849335 L0.911694759,1.77968094 C0.911694759,1.50492572 0.905450352,1.30094088 0.892961539,1.16772642 C0.880472725,1.03034213 0.826353878,0.930429616 0.730604996,0.867988891 C0.639019274,0.801364958 0.566166972,0.765978094 0.512048091,0.761828298 C0.46209217,0.757818834 0.322632074,0.747427639 0.0936678032,0.730654713 C0.0353862293,0.672383831 0.00624544239,0.576637822 0.00624544239,0.443416687 C0.00624544239,0.405928195 0.0104086029,0.374687785 0.0187349239,0.349695457 C0.776398792,0.291424575 1.37170612,0.174859423 1.8046569,2.84889577e-14 C1.91705755,2.84889577e-14 1.97325788,0.0437131851 1.97325788,0.131139555 C1.93995393,0.47250535 1.92330196,0.920025056 1.92330196,1.47369867 L1.92330196,5.89479468 C2.25634117,5.79904867 2.8058555,5.33071317 3.57184495,4.48978816 C3.72587588,4.3357579 3.80289134,4.20254011 3.80289134,4.09013478 C3.80289134,3.93610452 3.64886075,3.85284465 3.34079957,3.84035517 C3.30333112,3.80286668 3.2845969,3.73417787 3.2845969,3.63428875 C3.2845969,3.53021642 3.30333112,3.45736445 3.34079957,3.41573285 C3.9735739,3.43237213 4.3669762,3.44069176 4.52100645,3.44069176 C4.63340711,3.44069176 5.00391302,3.43237213 5.63252419,3.41573285 C5.66999264,3.45322134 5.68872686,3.52399173 5.68872686,3.62804401 C5.68872686,3.73212302 5.66999264,3.80289341 5.63252419,3.84035517 C5.03721697,3.8653475 4.56888079,4.05268304 4.22751566,4.40236179 L3.25337721,5.4764171 C3.22007192,5.50969565 3.20341928,5.5534055 3.20341928,5.60754663 C3.20341928,5.66581751 3.22423508,5.72409842 3.26586669,5.78238935 L4.76454232,7.99293736 C4.89359495,8.18859922 5.03929955,8.31973543 5.20165613,8.386346 C5.36817586,8.44875999 5.58881435,8.49871458 5.86357158,8.53620975 C5.90104002,8.57369824 5.91977425,8.64446863 5.91977425,8.74852091 C5.91977425,8.84843676 5.90104002,8.91712557 5.86357158,8.95458733 C5.35152422,8.93794806 5.00183311,8.92962842 4.81449824,8.92962842 C4.56888179,8.92962842 4.27330976,8.93794806 3.92778214,8.95458733 C3.89447686,8.95458733 3.87782422,8.93377153 3.87782422,8.89213993 L3.87782422,8.68607351 C3.87782422,8.50706429 3.77999395,8.27601556 3.58433343,7.99292733 L2.65390515,6.68159192 C2.53317884,6.5025827 2.41869674,6.38185439 2.31045885,6.31940698 C2.20638418,6.25278305 2.07733155,6.21947108 1.92330096,6.21947108 L1.92330096,7.36845326 C1.92330096,7.87217563 1.96284935,8.18648088 2.04194612,8.31136901 C2.12520592,8.43209399 2.30629589,8.50702753 2.58521601,8.53616966 C2.62268446,8.57365815 2.64141868,8.64442854 2.64141868,8.74848082 C2.64556179,8.84839667 2.62682757,8.91708548 2.58521601,8.95458733 C1.8525301,8.93790796 1.46537222,8.92958832 1.42374235,8.92958832 C1.22808189,8.92958832 0.772234662,8.93790796 0.0562006618,8.95458733 C0.0187335539,8.91705875 2.67083979e-15,8.84836994 2.67083979e-15,8.74848082 C2.67083979e-15,8.64440849 0.0187335539,8.5736381 0.0562006618,8.53616966 C0.430869602,8.51117733 0.666078447,8.43832536 0.761827196,8.31761375 C0.861738904,8.19688878 0.911694759,7.88050195 0.911694759,7.36845326 L0.911694759,7.36849335 Z" id="path3039"></path>
            <path d="M8.75476525,9.05450318 C8.16778368,9.05450318 7.74524027,8.89214661 7.48713501,8.56743346 C7.23319291,8.23855714 7.10622186,7.8222578 7.10622186,7.31853543 L7.10622186,4.86445256 C7.10622186,4.4648092 7.05210278,4.20046187 6.94386462,4.07141058 C6.83979028,3.9423526 6.62955936,3.86533413 6.31317186,3.84035517 C6.27570342,3.80286668 6.2569692,3.73417787 6.2569692,3.63428875 C6.2569692,3.53021642 6.27570342,3.45736445 6.31317186,3.41573285 C6.9459462,3.43237213 7.38097842,3.44069176 7.61826855,3.44069176 C7.83058105,3.44069176 7.98044881,3.43237213 8.06787184,3.41573285 C8.13448241,3.41573285 8.16778769,3.44279673 8.16778769,3.4969245 C8.13448241,4.11720868 8.11782976,4.55640207 8.11782976,4.81450465 L8.11782976,7.13745799 C8.11782976,7.64118037 8.22190443,7.98670932 8.43005377,8.17404486 C8.63820311,8.36137372 8.87549357,8.45503815 9.14192514,8.45503815 C9.47496395,8.45503815 9.87461065,8.25105331 10.3408652,7.84308363 C10.4782442,7.72235865 10.5469337,7.55583892 10.5469337,7.34352441 L10.5469337,4.87695206 C10.5469337,4.46898238 10.4948962,4.19839031 10.3908212,4.06517586 C10.2909093,3.93195473 10.0785968,3.85701784 9.75388367,3.84036519 C9.71641523,3.8028767 9.69768101,3.7341879 9.69768101,3.63429877 C9.69768101,3.53022644 9.71641523,3.45737448 9.75388367,3.41573285 C10.386658,3.43238215 10.8216902,3.44070179 11.0589804,3.44070179 C11.2712929,3.44070179 11.4211606,3.43238215 11.5085837,3.41573285 C11.5751942,3.41573285 11.6084995,3.44280676 11.6084995,3.49693453 C11.5751942,4.11721871 11.5585416,4.55641209 11.5585416,4.81451468 L11.5585416,7.26859755 C11.5585416,7.60163702 11.6147419,7.83268241 11.7271426,7.9617337 C11.8437064,8.08662851 12.0976488,8.16572856 12.4889699,8.19903385 C12.5264383,8.23652234 12.5451725,8.29480324 12.5451725,8.37387656 C12.5493156,8.44880677 12.5305814,8.50708768 12.4889699,8.54871928 C11.7729357,8.63198249 11.2588064,8.80058381 10.946582,9.05452323 C10.892461,9.07116251 10.8487498,9.0815537 10.8154485,9.08569682 C10.7821432,9.08569682 10.7446761,9.07530562 10.7030472,9.05452323 C10.6072985,8.74646272 10.5594242,8.49668312 10.5594242,8.30518442 C10.555281,8.26355281 10.5365468,8.24273701 10.5032215,8.24273701 C10.4740794,8.24273701 10.4428557,8.25730473 10.4095504,8.28644017 C9.78093921,8.79848886 9.2293435,9.05451321 8.75476325,9.05451321 L8.75476525,9.05450318 Z" id="path3041"></path>
            <path d="M15.055448,4.35240386 C15.4134651,3.9527605 15.7485859,3.68008686 16.0608102,3.53438292 C16.377197,3.38867899 16.714399,3.31582702 17.0724161,3.31582702 C17.5594858,3.31582702 17.9133398,3.46153096 18.1339779,3.75293882 C18.3629424,4.06099934 18.4795062,4.63132893 18.4836694,5.46392762 L18.4836694,7.36849335 C18.4836694,7.87221572 18.5315437,8.1844394 18.6272924,8.30516437 C18.7272036,8.42172618 18.9644937,8.49874131 19.3391628,8.53620975 C19.372468,8.57369824 19.3891207,8.64446863 19.3891207,8.74852091 C19.3891207,8.84843676 19.372468,8.91712557 19.3391628,8.95458733 C18.6064773,8.93794806 18.154793,8.92962842 17.9841102,8.92962842 C17.8300799,8.92962842 17.3950477,8.93794806 16.6790135,8.95458733 C16.6457082,8.91709884 16.6290555,8.84841003 16.6290555,8.74852091 C16.6290555,8.64444858 16.6457082,8.5736782 16.6790135,8.53620975 C17.0287042,8.5029312 17.2472612,8.42591607 17.3346842,8.30516437 C17.4262697,8.1844394 17.4720625,7.87221572 17.4720625,7.36849335 L17.4720625,5.42645917 C17.4720625,4.97269473 17.4200253,4.64381842 17.315951,4.43983023 C17.1535944,4.13176972 16.9287931,3.97773947 16.641547,3.97773947 C16.1711293,3.97773947 15.6757336,4.22960065 15.1553599,4.73332302 C15.0096553,4.8956796 14.936803,5.07468882 14.936803,5.27035068 L14.936803,7.36849335 C14.936803,7.87221572 14.9784329,8.1844394 15.0616928,8.30516437 C15.1491151,8.42172618 15.3635089,8.49874131 15.704874,8.53620975 C15.7423425,8.57369824 15.7610767,8.64446863 15.7610767,8.74852091 C15.7610767,8.84843676 15.7423425,8.91712557 15.704874,8.95458733 C14.9888405,8.93794806 14.5683786,8.92962842 14.4434885,8.92962842 C14.2061984,8.92962842 13.7357806,8.93794806 13.0322352,8.95458733 C12.9947668,8.91709884 12.9760326,8.84841003 12.9760326,8.74852091 C12.9760326,8.64444858 12.9947668,8.5736782 13.0322352,8.53620975 C13.4318826,8.5029312 13.6816622,8.42799765 13.7815741,8.31140911 C13.8814852,8.1948473 13.9314408,7.88054205 13.9314408,7.36849335 L13.9314408,4.87694204 C13.9314408,4.5189236 13.8814852,4.29412296 13.7815741,4.20254011 C13.6858247,4.1067941 13.4568602,4.04226845 13.0946806,4.00896317 C13.0447227,3.86325924 13.0363964,3.74253092 13.0697017,3.64677823 C13.8898102,3.53437958 14.478873,3.41157303 14.8368901,3.27835858 C14.9409651,3.27835858 14.9930026,3.31167054 14.9930026,3.37829448 C14.951371,3.7696182 14.9284736,4.09433135 14.9243105,4.35243393 C14.9284536,4.46483927 14.9721651,4.46483927 15.055445,4.35243393 L15.055448,4.35240386 Z" id="path3043"></path>
            <path d="M20.6942154,1.26763225 C20.6942154,1.11360199 20.7670677,0.974142801 20.9127723,0.849254668 C21.0584769,0.720203376 21.2083443,0.655677729 21.3623746,0.655677729 C21.5247311,0.655677729 21.6662729,0.726448117 21.7869999,0.867988891 C21.9118894,1.00952966 21.9743341,1.15939676 21.9743341,1.31759018 C21.9743341,1.46329411 21.9056446,1.6027533 21.7682657,1.73596776 C21.6350505,1.86918221 21.4831015,1.93578944 21.3124186,1.93578944 C21.1583884,1.93578944 21.0168469,1.86501905 20.8877943,1.72347828 C20.7587417,1.5819375 20.6942154,1.42998883 20.6942154,1.26763225 L20.6942154,1.26763225 Z M21.8619328,7.36849335 C21.8619328,7.88054205 21.9118887,8.19692888 22.0118005,8.31765385 C22.1158755,8.43421566 22.3718995,8.50706763 22.7798726,8.53620975 C22.817341,8.57369824 22.8360752,8.64446863 22.8360752,8.74852091 C22.8360752,8.84843676 22.817341,8.91712557 22.7798726,8.95458733 C22.0471864,8.93794806 21.5746871,8.92962842 21.3623746,8.92962842 C21.1250844,8.92962842 20.6463407,8.93794806 19.9261433,8.95458733 C19.8886749,8.91709884 19.8699407,8.84841003 19.8699407,8.74852091 C19.8699407,8.64444858 19.8886749,8.5736782 19.9261433,8.53620975 C20.3341163,8.5029312 20.5901404,8.42799765 20.6942154,8.31140911 C20.7982897,8.1948473 20.8503269,7.88054205 20.8503269,7.36849335 L20.8503269,4.87694204 C20.8503269,4.5189236 20.8003709,4.29412296 20.7004591,4.20254011 C20.6047104,4.1067941 20.3778275,4.04226845 20.0198104,4.00896317 C19.9698525,3.86325924 19.9615262,3.74253092 19.9948315,3.64677823 C20.7857999,3.5427059 21.3686183,3.41989935 21.7432867,3.27835858 C21.8556874,3.27835858 21.9118877,3.30749402 21.9118877,3.3657649 C21.8785824,3.91111888 21.8619298,4.39610703 21.8619298,4.82072935 L21.8619328,7.36849335 Z" id="path3045"></path>
            <path d="M23.7977232,3.27832851 C23.8310285,3.28671163 23.9017995,3.31584707 24.0100364,3.3657649 C24.122437,3.41574955 24.2598156,3.44074188 24.4221722,3.44074188 L27.0198761,3.44074188 C27.1322768,3.44074188 27.2509222,3.4344938 27.3758123,3.42199764 C27.5048649,3.40950147 27.615184,3.39493375 27.7067695,3.37829448 C27.8025182,3.3616552 27.8545557,3.35333556 27.862882,3.35333556 C27.9669564,3.35333556 28.0189935,3.382471 28.0189935,3.44074188 C28.0189935,3.50736582 27.9253264,3.68637503 27.7379922,3.97776954 L24.6657071,8.49252664 L26.3704501,8.49252664 C26.7118153,8.49252664 26.9636761,8.41967467 27.1260327,8.27397074 C27.2925524,8.12410364 27.4611534,7.85767473 27.6318356,7.47468402 L27.8004366,7.1000096 C27.9544675,7.1000096 28.0814389,7.12914504 28.1813508,7.18741592 C27.9940159,7.83684223 27.8587185,8.41757972 27.7754587,8.92962842 L23.7852347,8.92962842 C23.5895742,8.92962842 23.4917439,8.87758891 23.4917439,8.7735099 C23.4917439,8.72352524 23.5292107,8.63818379 23.6041443,8.51748555 L26.7513633,3.87783364 L24.9841748,3.87783364 C24.5137571,3.87783364 24.1703107,4.27956192 23.9538357,5.08301848 C23.9080409,5.09137153 23.858085,5.09554806 23.8039679,5.09554806 C23.7040561,5.09554806 23.6124702,5.07680381 23.5292104,5.03931532 C23.6499374,4.3066258 23.7144637,3.74462253 23.7227893,3.35330549 C23.7227893,3.30332083 23.7477683,3.27832851 23.7977262,3.27832851 L23.7977232,3.27832851 Z" id="path3047"></path>
            <path d="M32.1840622,5.95099735 L31.1724563,6.21951118 C30.3606734,6.431819 29.9568635,6.9001545 29.9610267,7.6245177 C29.9610267,7.85347816 30.0380422,8.06370774 30.1920731,8.25520644 C30.3502665,8.44254198 30.5792306,8.53620975 30.8789655,8.53620975 C31.178701,8.53620975 31.5533701,8.35095579 32.0029727,7.98044787 C32.123699,7.89719135 32.1840622,7.78687428 32.1840622,7.64949666 L32.1840622,5.95099735 Z M32.1840622,8.31765385 L32.1590832,8.31765385 L31.9030599,8.51747553 C31.6199763,8.73811635 31.3889306,8.88173871 31.2099227,8.94834259 C31.0309142,9.01911632 30.7977865,9.05454146 30.5105398,9.05454146 C30.0234708,9.05454146 29.6321501,8.94418277 29.3365777,8.72354195 C29.0451685,8.50290781 28.8994639,8.15321903 28.8994639,7.67447563 C28.8994639,7.24984662 29.0930428,6.87517554 29.4802007,6.55046239 C29.8673586,6.22574924 30.3773247,5.98221437 31.010099,5.81985779 L32.1091273,5.55134397 C32.1590852,5.53470469 32.1840642,5.4847501 32.1840642,5.40148021 C32.1840642,4.2941263 31.8385362,3.74044934 31.1474803,3.74044934 C30.8643974,3.74044934 30.6166998,3.78624077 30.4043873,3.87782362 C30.1920748,3.96524999 30.0859185,4.09846778 30.0859185,4.277477 C30.0859185,4.39820197 30.0942448,4.48146184 30.1108975,4.5272566 C30.1358764,4.57717444 30.1483659,4.65418956 30.1483659,4.75830199 C30.1483659,4.854048 30.0963288,4.94979735 29.9922544,5.04555004 C29.8923426,5.13713289 29.7570455,5.18292431 29.5863633,5.18292431 C29.2866278,5.18292431 29.1388416,5.03305721 29.1430048,4.73332302 C29.1430048,4.38363091 29.3636432,4.06099934 29.8049202,3.76542831 C30.2503597,3.46569412 30.7332662,3.31582702 31.2536399,3.31582702 C32.5400031,3.31582702 33.1831846,4.03602371 33.1831846,5.4764171 L33.1831846,7.38098283 C33.1831846,7.62659594 33.1894294,7.81393148 33.2019188,7.94298945 C33.2144083,8.07204075 33.2602014,8.19276572 33.3392981,8.30516437 C33.422558,8.41339986 33.5412031,8.4675176 33.6952333,8.4675176 C33.7993083,8.4675176 33.8888126,8.43420564 33.9637461,8.3675817 C34.0386797,8.30095777 34.0803096,8.26764581 34.0886359,8.26764581 C34.1136149,8.26764581 34.1469202,8.29263813 34.1885518,8.34262279 C34.2343466,8.39260744 34.2572439,8.43839887 34.2572439,8.47999706 C34.2572439,8.50498939 34.2114512,8.56327364 34.1198657,8.6548498 C34.0324426,8.74226949 33.8992268,8.8317741 33.7202183,8.92336363 C33.5412097,9.01078332 33.3580384,9.05454146 33.1707042,9.05454146 C32.6586561,9.05850263 32.3297798,8.81288618 32.1840752,8.31764383 L32.1840622,8.31765385 Z" id="path3049"></path>
            <path d="M38.0289009,5.95099735 L37.017294,6.21951118 C36.2055118,6.431819 35.801702,6.9001545 35.8058645,7.6245177 C35.8058645,7.85347816 35.8828799,8.06370774 36.0369108,8.25520644 C36.1951043,8.44254198 36.4240687,8.53620975 36.7238043,8.53620975 C37.0235391,8.53620975 37.3982079,8.35095579 37.8478105,7.98044787 C37.9685375,7.89719135 38.0289009,7.78687428 38.0289009,7.64949666 L38.0289009,5.95099735 Z M38.0289009,8.31765385 L38.003922,8.31765385 L37.7478976,8.51747553 C37.4648148,8.73811635 37.233769,8.88173871 37.0547605,8.94834259 C36.8757519,9.01911632 36.6426246,9.05454146 36.3553786,9.05454146 C35.8683089,9.05454146 35.4769878,8.94418277 35.1814154,8.72354195 C34.8900062,8.50290781 34.7443016,8.15321903 34.7443016,7.67447563 C34.7443016,7.24984662 34.9378806,6.87517554 35.3250385,6.55046239 C35.7121964,6.22574924 36.2221625,5.98221437 36.8549368,5.81985779 L37.9539661,5.55134397 C38.003924,5.53470469 38.028903,5.4847501 38.028903,5.40148021 C38.028903,4.2941263 37.6833747,3.74044934 36.9923181,3.74044934 C36.7092352,3.74044934 36.4615375,3.78624077 36.249225,3.87782362 C36.0369125,3.96524999 35.9307563,4.09846778 35.9307563,4.277477 C35.9307563,4.39820197 35.9390826,4.48146184 35.9557352,4.5272566 C35.9807142,4.57717444 35.9932037,4.65418956 35.9932037,4.75830199 C35.9932037,4.854048 35.9411662,4.94979735 35.8370912,5.04555004 C35.7371793,5.13713289 35.6018823,5.18292431 35.4312001,5.18292431 C35.1314645,5.18292431 34.9836784,5.03305721 34.9878415,4.73332302 C34.9878415,4.38363091 35.20848,4.06099934 35.649757,3.76542831 C36.0951964,3.46569412 36.578103,3.31582702 37.0984767,3.31582702 C38.3848398,3.31582702 39.0280214,4.03602371 39.0280214,5.4764171 L39.0280214,7.38098283 C39.0280214,7.62659594 39.0342661,7.81393148 39.0467556,7.94298945 C39.0592451,8.07204075 39.1050378,8.19276572 39.1841339,8.30516437 C39.2673937,8.41339986 39.3860388,8.4675176 39.5400691,8.4675176 C39.6441441,8.4675176 39.7336483,8.43420564 39.8085819,8.3675817 C39.8835161,8.30095777 39.925146,8.26764581 39.9334717,8.26764581 C39.9584507,8.26764581 39.9917559,8.29263813 40.0333875,8.34262279 C40.0791823,8.39260744 40.1020797,8.43839887 40.1020797,8.47999706 C40.1020797,8.50498939 40.0562869,8.56327364 39.9647014,8.6548498 C39.8772784,8.74226949 39.7440626,8.8317741 39.565054,8.92336363 C39.3860455,9.01078332 39.2028741,9.05454146 39.0155399,9.05454146 C38.5034926,9.05850263 38.1746166,8.81288618 38.028912,8.31764383 L38.0289009,8.31765385 Z" id="path3051"></path>
            <path d="M42.7871929,10.9778031 C42.4458278,11.589761 42.0316104,11.8957399 41.5445406,11.8957399 C41.3738584,11.8957399 41.2302354,11.8499485 41.1136716,11.7583657 C41.0012709,11.6709393 40.9450706,11.5585373 40.9450706,11.4211597 C40.9450706,11.308761 40.9971081,11.1880361 41.1011831,11.0589848 C41.2094206,10.93409 41.3447176,10.8716425 41.5070742,10.8716425 C41.5487058,10.8716425 41.6049061,10.8778906 41.6756752,10.8903868 C41.7506087,10.902883 41.8192979,10.909131 41.8817426,10.909131 C42.1731518,10.909131 42.3854643,10.7863245 42.5186801,10.5407114 C42.7226669,10.1244087 42.8891867,9.73308832 43.0182393,9.36675025 C43.0473814,9.2876502 43.0619525,9.19398243 43.0619525,9.08574694 C43.0619525,8.81099171 42.9870186,8.5029312 42.8371508,8.1615654 L41.3946759,4.79579048 C41.2198298,4.38781412 41.0762065,4.13387135 40.9638058,4.03396218 C40.8555683,3.92988317 40.6619894,3.86535418 40.383069,3.84037522 C40.3456005,3.80288673 40.3268663,3.73419792 40.3268663,3.6343088 C40.3268663,3.53023647 40.3456005,3.4573845 40.383069,3.4157529 C40.7244341,3.43239217 41.0699624,3.44071181 41.4196538,3.44071181 C41.7526926,3.44071181 42.2335176,3.43239217 42.8621288,3.4157529 C42.8995972,3.45324139 42.9183315,3.52401177 42.9183315,3.62806406 C42.9183315,3.73214307 42.8995972,3.80291346 42.8621288,3.84037522 C42.4624821,3.86951066 42.2647403,3.96942317 42.2689035,4.14011275 C42.2689035,4.21504964 42.3271851,4.39197728 42.4437482,4.67089566 L43.5802439,7.33104496 C43.6302018,7.45176993 43.6801578,7.51213241 43.7301117,7.51213241 C43.7842328,7.51213241 43.8362703,7.45593309 43.8862242,7.34353444 L45.1538544,4.41487132 C45.1871597,4.33577795 45.2038123,4.26500756 45.2038123,4.20256016 C45.2038123,4.07767203 45.1455308,3.99233058 45.0289676,3.94653581 C44.9124038,3.89655116 44.7500472,3.86116429 44.5418979,3.84037522 C44.5044295,3.80288673 44.4836137,3.73419792 44.4794505,3.6343088 C44.4794505,3.53023647 44.5002663,3.4573845 44.5418979,3.4157529 C45.1746722,3.43239217 45.5618301,3.44071181 45.7033716,3.44071181 C45.8823801,3.44071181 46.1841969,3.43239217 46.6088219,3.4157529 C46.6462903,3.45324139 46.6650245,3.52401177 46.6650245,3.62806406 C46.6691677,3.73214307 46.6504334,3.80291346 46.6088219,3.84037522 C46.3881831,3.8570145 46.1862778,3.9465191 46.0031061,4.10888905 C45.819935,4.27124562 45.676312,4.454418 45.572237,4.65840618 C45.0768416,5.70748253 44.323341,7.44761345 43.3117351,9.87879894 C43.1327265,10.3034213 42.9578808,10.6697627 42.7871979,10.9778232 L42.7871929,10.9778031 Z" id="path3053"></path>
            <path d="M53.7150401,5.95099735 L52.7034342,6.21951118 C51.8916513,6.431819 51.4878415,6.9001545 51.4920046,7.6245177 C51.4920046,7.85347816 51.5690201,8.06370774 51.723051,8.25520644 C51.8812445,8.44254198 52.1102086,8.53620975 52.4099434,8.53620975 C52.709679,8.53620975 53.084348,8.35095579 53.5339507,7.98044787 C53.654677,7.89719135 53.7150401,7.78687428 53.7150401,7.64949666 L53.7150401,5.95099735 Z M53.7150401,8.31765385 L53.6900612,8.31765385 L53.4340378,8.51747553 C53.1509549,8.73811635 52.9199092,8.88173871 52.7409007,8.94834259 C52.5618921,9.01911632 52.3287645,9.05454146 52.0415178,9.05454146 C51.5544487,9.05454146 51.163128,8.94418277 50.8675556,8.72354195 C50.5761464,8.50290781 50.4304418,8.15321903 50.4304418,7.67447563 C50.4304418,7.24984662 50.6240208,6.87517554 51.0111787,6.55046239 C51.3983365,6.22574924 51.9083027,5.98221437 52.541077,5.81985779 L53.6401052,5.55134397 C53.6900632,5.53470469 53.7150421,5.4847501 53.7150421,5.40148021 C53.7150421,4.2941263 53.3695142,3.74044934 52.6784583,3.74044934 C52.3953754,3.74044934 52.1476777,3.78624077 51.9353652,3.87782362 C51.7230527,3.96524999 51.6168965,4.09846778 51.6168965,4.277477 C51.6168965,4.39820197 51.6252228,4.48146184 51.6418754,4.5272566 C51.6668544,4.57717444 51.6793439,4.65418956 51.6793439,4.75830199 C51.6793439,4.854048 51.6273067,4.94979735 51.5232324,5.04555004 C51.4233205,5.13713289 51.2880235,5.18292431 51.1173413,5.18292431 C50.8176057,5.18292431 50.6698195,5.03305721 50.6739827,4.73332302 C50.6739827,4.38363091 50.8946212,4.06099934 51.3358982,3.76542831 C51.7813376,3.46569412 52.2642442,3.31582702 52.7846179,3.31582702 C54.070981,3.31582702 54.7141626,4.03602371 54.7141626,5.4764171 L54.7141626,7.38098283 C54.7141626,7.62659594 54.7204073,7.81393148 54.7328968,7.94298945 C54.7453863,8.07204075 54.7911794,8.19276572 54.8702761,8.30516437 C54.9535359,8.41339986 55.072181,8.4675176 55.2262113,8.4675176 C55.3302863,8.4675176 55.4197905,8.43420564 55.4947241,8.3675817 C55.5696576,8.30095777 55.6112876,8.26764581 55.6196139,8.26764581 C55.6445928,8.26764581 55.6778981,8.29263813 55.7195297,8.34262279 C55.7653245,8.39260744 55.7882219,8.43839887 55.7882219,8.47999706 C55.7882219,8.50498939 55.7424291,8.56327364 55.6508436,8.6548498 C55.5634206,8.74226949 55.4302048,8.8317741 55.2511962,8.92336363 C55.0721877,9.01078332 54.8890163,9.05454146 54.7016821,9.05454146 C54.1896341,9.05850263 53.8607578,8.81288618 53.7150532,8.31764383 L53.7150401,8.31765385 Z" id="path3055"></path>
            <path d="M61.2458837,4.64589665 C61.1085048,4.79160059 61.0418969,4.97893613 61.04606,5.20790327 L61.04606,7.58704926 C61.04606,7.81185324 61.0627127,7.96588349 61.096018,8.04914002 C61.1334864,8.13240323 61.2188278,8.23439732 61.3520423,8.35512229 C61.5518653,8.53413151 61.8536818,8.62363612 62.2574916,8.62363612 C62.5988567,8.62363612 62.8923475,8.55286573 63.137964,8.41132496 C63.3877429,8.26978419 63.5750774,8.07828549 63.6999676,7.83682886 C63.8290202,7.59537892 63.9206057,7.34768089 63.9747241,7.09373478 C64.0330084,6.8356322 64.0621505,6.56087363 64.0621505,6.26945908 C64.0621505,5.57008153 63.9143643,5.00183685 63.618792,4.56472505 C63.3273828,4.1234434 62.9672844,3.90280258 62.5384969,3.90280258 C62.1555015,3.90280258 61.7246321,4.1505006 61.2458887,4.64589665 L61.2458837,4.64589665 Z M61.1459679,4.22127433 C61.4290514,3.93819278 61.7287866,3.7175553 62.0451734,3.55936189 C62.3657234,3.39700531 62.6508882,3.31582702 62.9006678,3.31582702 C63.5417678,3.31582702 64.0787931,3.57601119 64.5117438,4.09637952 C64.9446944,4.61675453 65.1611698,5.22663415 65.1611698,5.92601839 C65.1611698,6.92513681 64.8468642,7.73067495 64.218253,8.34263281 C63.714532,8.82137622 63.0859208,9.05866635 62.3324195,9.05450318 C61.9161208,9.05450318 61.5456149,8.98997754 61.2209017,8.86092625 C61.1542912,8.82764769 61.1084984,8.81515153 61.0835235,8.82343775 C61.0585445,8.8317908 61.046055,8.87550065 61.046055,8.95456729 L61.046055,10.3346049 C61.046055,10.8466536 61.1022553,11.1630404 61.214656,11.2837654 C61.3312198,11.4044903 61.6247106,11.4773423 62.0951284,11.5023213 C62.1325968,11.5398098 62.151331,11.6084986 62.151331,11.7083877 C62.151331,11.81246 62.1325968,11.8832304 62.0951284,11.9206988 C61.3624422,11.9040596 60.8462317,11.8957399 60.5464968,11.8957399 C60.309206,11.8957399 59.8304623,11.9040596 59.1102656,11.9206988 C59.0727971,11.8832104 59.0540629,11.81244 59.0540629,11.7083877 C59.0540629,11.6084785 59.0727971,11.5397897 59.1102656,11.5023213 C59.5099123,11.485682 59.7638547,11.4149116 59.8720929,11.2900101 C59.9803304,11.165122 60.0344491,10.8466536 60.0344491,10.3346049 L60.0344491,4.87692199 C60.0344491,4.51890355 59.9844932,4.29410291 59.8845814,4.20252006 C59.7888327,4.10677405 59.5619498,4.04224841 59.2039327,4.00894312 C59.1539748,3.86323919 59.1456484,3.74251088 59.1789537,3.64675818 C59.9615958,3.54268586 60.5360882,3.4198793 60.902431,3.27833853 C61.0148316,3.27833853 61.071032,3.30747397 61.071032,3.36574485 C61.0377267,3.60303832 61.021074,3.87571531 61.021074,4.18377582 C61.021074,4.22540742 61.0377267,4.24829478 61.071032,4.25243789 C61.1043373,4.25644736 61.1293162,4.24602275 61.1459689,4.22116407 L61.1459679,4.22127433 Z" id="path3057"></path>
            <path d="M66.8034714,1.26763225 C66.8034714,1.11360199 66.8763237,0.974142801 67.0220283,0.849254668 C67.1677329,0.720203376 67.3176007,0.655677729 67.4716316,0.655677729 C67.6339882,0.655677729 67.7755296,0.726448117 67.8962559,0.867988891 C68.0211461,1.00952966 68.0835911,1.15939676 68.0835911,1.31759018 C68.0835911,1.46329411 68.0149017,1.6027533 67.8775227,1.73596776 C67.7443069,1.86918221 67.5923579,1.93578944 67.4216757,1.93578944 C67.2676448,1.93578944 67.126103,1.86501905 66.9970504,1.72347828 C66.8679977,1.5819375 66.8034714,1.42998883 66.8034714,1.26763225 L66.8034714,1.26763225 Z M67.9711898,7.36849335 C67.9711898,7.88054205 68.0211457,8.19692888 68.1210576,8.31765385 C68.2251326,8.43421566 68.4811563,8.50706763 68.8891286,8.53620975 C68.9265971,8.57369824 68.9453313,8.64446863 68.9453313,8.74852091 C68.9453313,8.84843676 68.9265971,8.91712557 68.8891286,8.95458733 C68.1564431,8.93794806 67.6839441,8.92962842 67.4716316,8.92962842 C67.2343415,8.92962842 66.7555977,8.93794806 66.0354004,8.95458733 C65.9979319,8.91709884 65.9791977,8.84841003 65.9791977,8.74852091 C65.9791977,8.64444858 65.9979319,8.5736782 66.0354004,8.53620975 C66.4433734,8.5029312 66.6993971,8.42799765 66.8034714,8.31140911 C66.9075464,8.1948473 66.9595839,7.88054205 66.9595839,7.36849335 L66.9595839,4.87694204 C66.9595839,4.5189236 66.909628,4.29412296 66.8097162,4.20254011 C66.7139675,4.1067941 66.4870846,4.04226845 66.1290675,4.00896317 C66.0791096,3.86325924 66.0707832,3.74253092 66.1040885,3.64677823 C66.8950563,3.5427059 67.4778747,3.41989935 67.8525438,3.27835858 C67.9649444,3.27835858 68.0211447,3.30749402 68.0211447,3.3657649 C67.9878395,3.91111888 67.9711868,4.39610703 67.9711868,4.82072935 L67.9711898,7.36849335 Z" id="path3059"></path>
            <path d="M69.6759349,3.44071181 L70.2629154,3.44071181 L70.2629154,3.18468747 C70.2629154,2.56024012 70.2545891,2.15643026 70.2379365,1.97325788 C70.2337934,1.94412244 70.2379565,1.92123508 70.250426,1.9045958 C70.2670786,1.88795653 70.2983023,1.86921228 70.3440971,1.84836307 C70.3898918,1.82758068 70.4148708,1.81508451 70.419034,1.81087458 L71.162127,1.4736686 C71.2745277,1.4736686 71.3286468,1.5153002 71.3244843,1.59856341 C71.291179,1.93992921 71.2745264,2.38953049 71.2745264,2.94736727 L71.2745264,3.44068174 L72.8106684,3.44068174 C72.877279,3.44068174 72.9105843,3.46774563 72.9105843,3.52187339 L72.9105843,3.77789774 C72.9105843,3.89029639 72.8085912,3.94441414 72.604605,3.94025098 L71.2745304,3.94025098 L71.2745304,7.17489637 C71.2745304,7.59119237 71.3036725,7.89300814 71.3619567,8.08034368 C71.4244041,8.26351606 71.5368048,8.35510225 71.6991587,8.35510225 C72.0904798,8.35510225 72.4401709,8.23437393 72.748232,7.99291731 C72.8772847,8.00127036 72.9522186,8.07412233 72.9730337,8.21147321 C72.469312,8.77347983 71.8948196,9.05448314 71.2495564,9.05448314 C70.5918038,9.05448314 70.2629275,8.63402063 70.2629275,7.79309563 L70.2629275,3.94025098 L69.5073459,3.94025098 C69.4657143,3.94025098 69.4448985,3.91525865 69.4448985,3.86527399 L69.4448985,3.69667602 C69.4448985,3.52599312 69.521914,3.44065167 69.6759449,3.44065167 L69.6759349,3.44071181 Z" id="path3061"></path>
            <path d="M74.3218295,1.26763225 C74.3218295,1.11360199 74.3946818,0.974142801 74.5403864,0.849254668 C74.686091,0.720203376 74.8359585,0.655677729 74.9899887,0.655677729 C75.1523453,0.655677729 75.2938871,0.726448117 75.414614,0.867988891 C75.5395035,1.00952966 75.6019483,1.15939676 75.6019483,1.31759018 C75.6019483,1.46329411 75.5332588,1.6027533 75.3958798,1.73596776 C75.2626647,1.86918221 75.1107157,1.93578944 74.9400328,1.93578944 C74.7860025,1.93578944 74.6444611,1.86501905 74.5154085,1.72347828 C74.3863558,1.5819375 74.3218295,1.42998883 74.3218295,1.26763225 L74.3218295,1.26763225 Z M75.4895479,7.36849335 C75.4895479,7.88054205 75.5395035,8.19692888 75.6394147,8.31765385 C75.7434897,8.43421566 75.9995137,8.50706763 76.4074867,8.53620975 C76.4449552,8.57369824 76.4636894,8.64446863 76.4636894,8.74852091 C76.4636894,8.84843676 76.4449552,8.91712557 76.4074867,8.95458733 C75.6748006,8.93794806 75.2023012,8.92962842 74.9899887,8.92962842 C74.7526986,8.92962842 74.2739549,8.93794806 73.5537575,8.95458733 C73.516289,8.91709884 73.4975548,8.84841003 73.4975548,8.74852091 C73.4975548,8.64444858 73.516289,8.5736782 73.5537575,8.53620975 C73.9617305,8.5029312 74.2177545,8.42799765 74.3218295,8.31140911 C74.4259039,8.1948473 74.477941,7.88054205 74.477941,7.36849335 L74.477941,4.87694204 C74.477941,4.5189236 74.4279854,4.29412296 74.3280743,4.20254011 C74.2323249,4.1067941 74.005442,4.04226845 73.6474256,4.00896317 C73.5974677,3.86325924 73.5891413,3.74253092 73.6224466,3.64677823 C74.4134144,3.5427059 74.9962328,3.41989935 75.3709019,3.27835858 C75.4833025,3.27835858 75.5395028,3.30749402 75.5395028,3.3657649 C75.5061976,3.91111888 75.4895449,4.39610703 75.4895449,4.82072935 L75.4895479,7.36849335 Z" id="path3063"></path>
            <path d="M79.3049271,10.9778031 C78.963562,11.589761 78.5493446,11.8957399 78.0622749,11.8957399 C77.8915926,11.8957399 77.7479696,11.8499485 77.6314058,11.7583657 C77.5190051,11.6709393 77.4628048,11.5585373 77.4628048,11.4211597 C77.4628048,11.308761 77.514842,11.1880361 77.6189163,11.0589848 C77.7271545,10.93409 77.8624518,10.8716425 78.0248084,10.8716425 C78.06644,10.8716425 78.1226404,10.8778906 78.1934094,10.8903868 C78.268343,10.902883 78.3370321,10.909131 78.3994768,10.909131 C78.690886,10.909131 78.9031985,10.7863245 79.0364143,10.5407114 C79.2404005,10.1244087 79.4069199,9.73308832 79.5359725,9.36675025 C79.5651147,9.2876502 79.5796857,9.19398243 79.5796857,9.08574694 C79.5796857,8.81099171 79.5047518,8.5029312 79.3548841,8.1615654 L77.9124081,4.79579048 C77.7375627,4.38781412 77.5939397,4.13387135 77.481539,4.03396218 C77.3733015,3.92988317 77.1797226,3.86535418 76.9008022,3.84037522 C76.8633338,3.80288673 76.8445995,3.73419792 76.8445995,3.6343088 C76.8445995,3.53023647 76.8633338,3.4573845 76.9008022,3.4157529 C77.2421673,3.43239217 77.5876953,3.44071181 77.9373861,3.44071181 C78.2704255,3.44071181 78.7512509,3.43239217 79.379862,3.4157529 C79.4173305,3.45324139 79.4360647,3.52401177 79.4360647,3.62806406 C79.4360647,3.73214307 79.4173305,3.80291346 79.379862,3.84037522 C78.9802153,3.86951066 78.7824732,3.96942317 78.7866357,4.14011275 C78.7866357,4.21504964 78.8449176,4.39197728 78.9614814,4.67089566 L80.0979771,7.33104496 C80.1479351,7.45176993 80.197891,7.51213241 80.2478449,7.51213241 C80.301966,7.51213241 80.3540035,7.45593309 80.4039574,7.34353444 L81.6715867,4.41487132 C81.7048919,4.33577795 81.7215446,4.26500756 81.7215446,4.20256016 C81.7215446,4.07767203 81.6632627,3.99233058 81.5466989,3.94653581 C81.4301357,3.89655116 81.2677795,3.86116429 81.0596301,3.84037522 C81.0221617,3.80288673 81.0013459,3.73419792 80.9971827,3.6343088 C80.9971827,3.53023647 81.0179985,3.4573845 81.0596301,3.4157529 C81.6924038,3.43239217 82.0795617,3.44071181 82.2211038,3.44071181 C82.4001123,3.44071181 82.7019288,3.43239217 83.1265531,3.4157529 C83.1640216,3.45324139 83.1827558,3.52401177 83.1827558,3.62806406 C83.1868989,3.73214307 83.1681647,3.80291346 83.1265531,3.84037522 C82.905915,3.8570145 82.70401,3.9465191 82.5208383,4.10888905 C82.3376673,4.27124562 82.1940442,4.454418 82.0899692,4.65840618 C81.5945739,5.70748253 80.8410729,7.44761345 79.8294663,9.87879894 C79.6504578,10.3034213 79.4756124,10.6697627 79.3049302,10.9778232 L79.3049271,10.9778031 Z" id="path3065"></path>
            <path d="M87.0355994,5.95099735 L86.0239925,6.21951118 C85.2122103,6.431819 84.8084004,6.9001545 84.8125629,7.6245177 C84.8125629,7.85347816 84.8895784,8.06370774 85.0436093,8.25520644 C85.2018027,8.44254198 85.4307669,8.53620975 85.7305017,8.53620975 C86.0302373,8.53620975 86.4049063,8.35095579 86.854509,7.98044787 C86.9752359,7.89719135 87.0355994,7.78687428 87.0355994,7.64949666 L87.0355994,5.95099735 Z M87.0355994,8.31765385 L87.0106205,8.31765385 L86.7545961,8.51747553 C86.4715132,8.73811635 86.2404675,8.88173871 86.061459,8.94834259 C85.8824504,9.01911632 85.6493231,9.05454146 85.3620771,9.05454146 C84.8750073,9.05454146 84.4836863,8.94418277 84.1881139,8.72354195 C83.8967047,8.50290781 83.7510001,8.15321903 83.7510001,7.67447563 C83.7510001,7.24984662 83.9445791,6.87517554 84.3317369,6.55046239 C84.7188948,6.22574924 85.2288609,5.98221437 85.8616353,5.81985779 L86.9606645,5.55134397 C87.0106225,5.53470469 87.0356014,5.4847501 87.0356014,5.40148021 C87.0356014,4.2941263 86.6900731,3.74044934 85.9990166,3.74044934 C85.7159337,3.74044934 85.468236,3.78624077 85.2559235,3.87782362 C85.043611,3.96524999 84.9374547,4.09846778 84.9374547,4.277477 C84.9374547,4.39820197 84.9457811,4.48146184 84.9624337,4.5272566 C84.9874127,4.57717444 84.9999022,4.65418956 84.9999022,4.75830199 C84.9999022,4.854048 84.9478647,4.94979735 84.8437896,5.04555004 C84.7438778,5.13713289 84.6085808,5.18292431 84.4378985,5.18292431 C84.138163,5.18292431 83.9903768,5.03305721 83.99454,4.73332302 C83.99454,4.38363091 84.2151785,4.06099934 84.6564554,3.76542831 C85.1018949,3.46569412 85.5848015,3.31582702 86.1051752,3.31582702 C87.3915383,3.31582702 88.0347198,4.03602371 88.0347198,5.4764171 L88.0347198,7.38098283 C88.0347198,7.62659594 88.0409646,7.81393148 88.0534541,7.94298945 C88.0659436,8.07204075 88.1117363,8.19276572 88.1908324,8.30516437 C88.2740922,8.41339986 88.3927373,8.4675176 88.5467675,8.4675176 C88.6508425,8.4675176 88.7403468,8.43420564 88.8152804,8.3675817 C88.8902146,8.30095777 88.9318445,8.26764581 88.9401702,8.26764581 C88.9651491,8.26764581 88.9984544,8.29263813 89.040086,8.34262279 C89.0858808,8.39260744 89.1087782,8.43839887 89.1087782,8.47999706 C89.1087782,8.50498939 89.0629854,8.56327364 88.9713999,8.6548498 C88.8839769,8.74226949 88.7507611,8.8317741 88.5717525,8.92336363 C88.392744,9.01078332 88.2095726,9.05454146 88.0222384,9.05454146 C87.510191,9.05850263 87.1813151,8.81288618 87.0356104,8.31764383 L87.0355994,8.31765385 Z" id="path3067"></path>
            <path d="M94.2230133,7.76813671 C93.9232624,8.26353276 93.6068723,8.60281698 93.2738328,8.78598936 C92.9449632,8.96499858 92.5661329,9.05450318 92.1373421,9.05450318 C91.3463744,9.05450318 90.7260888,8.802642 90.2764855,8.29891963 C89.8310461,7.7910341 89.6083264,7.11454725 89.6083264,6.26945908 C89.6083264,5.40772495 89.8768392,4.70001774 90.4138648,4.14633744 C90.9508905,3.59266383 91.5566053,3.31582702 92.2310092,3.31582702 C92.8346421,3.31582702 93.3113046,3.42822567 93.6609967,3.65302297 C94.0106888,3.87782696 94.1855349,4.16923817 94.1855349,4.5272566 C94.1855349,4.70626582 94.1189276,4.84572502 93.9857132,4.94563419 C93.8524921,5.04554336 93.7109479,5.09549794 93.5610808,5.09549794 C93.269673,5.09549794 93.1073164,4.94146768 93.0740111,4.63340717 C93.0573718,4.44607163 93.0282364,4.3003677 92.9866048,4.19629537 C92.9491163,4.08805988 92.8616933,3.98606579 92.7243357,3.8903131 C92.5911186,3.79040393 92.4037834,3.74044934 92.1623301,3.74044934 C91.7377051,3.74044934 91.388014,3.9423526 91.1132567,4.34615912 C90.8426627,4.74997233 90.7073656,5.29740788 90.7073656,5.98846579 C90.7073656,6.72114863 90.873885,7.31229069 91.2069238,7.76189197 C91.5399627,8.20733678 91.9437725,8.43005918 92.4183534,8.43005918 C93.0053323,8.43005918 93.517381,8.14905587 93.9544995,7.58704926 C94.0918771,7.60368853 94.1813817,7.66405102 94.2230133,7.76813671 L94.2230133,7.76813671 Z" id="path3069"></path>
            <path d="M97.3265091,9.05450318 C96.7395236,9.05450318 96.3169795,8.89214661 96.0588769,8.56743346 C95.8049375,8.23855714 95.6779678,7.8222578 95.6779678,7.31853543 L95.6779678,4.86445256 C95.6779678,4.4648092 95.6238467,4.20046187 95.5156045,4.07141058 C95.4115322,3.9423526 95.2013026,3.86533413 94.8849158,3.84035517 C94.8474273,3.80286668 94.828683,3.73417787 94.828683,3.63428875 C94.828683,3.53021642 94.8474273,3.45736445 94.8849158,3.41573285 C95.5176894,3.43237213 95.952723,3.44069176 96.1900165,3.44069176 C96.4023243,3.44069176 96.5521914,3.43237213 96.6396177,3.41573285 C96.7062417,3.41573285 96.7395536,3.44279673 96.7395536,3.4969245 C96.7062751,4.11720868 96.6896358,4.55640207 96.6896358,4.81450465 L96.6896358,7.13745799 C96.6896358,7.64118037 96.7937115,7.98670932 97.0018628,8.17404486 C97.2100142,8.36137372 97.4473043,8.45503815 97.7137332,8.45503815 C98.0467727,8.45503815 98.4464194,8.25105331 98.9126733,7.84308363 C99.0500509,7.72235865 99.1187397,7.55583892 99.1187397,7.34352441 L99.1187397,4.87695206 C99.1187397,4.46898238 99.0667036,4.19839031 98.9626312,4.06517586 C98.8627221,3.93195473 98.6504109,3.85701784 98.3256977,3.84036519 C98.2882092,3.8028767 98.269465,3.7341879 98.269465,3.63429877 C98.269465,3.53022644 98.2882092,3.45737448 98.3256977,3.41573285 C98.9584714,3.43238215 99.3935016,3.44070179 99.6307884,3.44070179 C99.8431029,3.44070179 99.99297,3.43238215 100.08039,3.41573285 C100.147014,3.41573285 100.180326,3.44280676 100.180326,3.49693453 C100.147047,4.11721871 100.130408,4.55641209 100.130408,4.81451468 L100.130408,7.26859755 C100.130408,7.60163702 100.18661,7.83268241 100.299016,7.9617337 C100.415578,8.08662851 100.669517,8.16572856 101.060834,8.19903385 C101.098323,8.23652234 101.117067,8.29480324 101.117067,8.37387656 C101.121076,8.44880677 101.102332,8.50708768 101.060834,8.54871928 C100.344804,8.63198249 99.8306769,8.80058381 99.5184532,9.05452323 C99.4643255,9.07116251 99.4206123,9.0815537 99.3873137,9.08569682 C99.3540351,9.08569682 99.31657,9.07530562 99.2749184,9.05452323 C99.1791657,8.74646272 99.1312893,8.49668312 99.1312893,8.30518442 C99.1272799,8.26355281 99.1085356,8.24273701 99.0750566,8.24273701 C99.0459212,8.24273701 99.0146808,8.25730473 98.9813354,8.28644017 C98.3527249,8.79848886 97.8011295,9.05451321 97.3265492,9.05451321 L97.3265091,9.05450318 Z" id="path3071"></path>
            <path d="M105.687876,7.34351439 L105.687876,4.91441048 C105.687876,4.71874862 105.673298,4.58137101 105.644163,4.50227764 C105.619171,4.41901443 105.56089,4.32534666 105.46932,4.22127433 C105.207055,3.91321382 104.861526,3.76126515 104.432733,3.76542831 C103.920691,3.76542831 103.523126,3.97773947 103.240038,4.40236179 C102.994425,4.75205391 102.871618,5.31822034 102.871618,6.1008611 C102.871618,6.85020326 103.011078,7.43094076 103.289996,7.8430736 C103.573078,8.25104328 103.901954,8.45502812 104.276625,8.45502812 C104.609664,8.45502812 105.011393,8.25104328 105.48181,7.8430736 C105.619187,7.72234863 105.687876,7.55582889 105.687876,7.34351439 L105.687876,7.34351439 Z M105.544247,8.28643015 C104.9198,8.79847884 104.386935,9.05450318 103.945654,9.05450318 C103.271255,9.05450318 102.740476,8.80472358 102.353315,8.30516437 C101.966154,7.801442 101.772574,7.14368937 101.772574,6.33190649 C101.772574,5.42021443 102.066067,4.67087562 102.653052,4.08389004 C103.190073,3.57184803 103.829092,3.31582702 104.570108,3.31582702 C104.699159,3.31582702 104.8407,3.33457127 104.99473,3.37205976 C105.14876,3.40954825 105.279893,3.44701669 105.388129,3.48446509 C105.500534,3.51774365 105.5609,3.53438292 105.569226,3.53438292 C105.644156,3.53438292 105.683703,3.4948329 105.687866,3.41573285 L105.687866,1.77968094 C105.687866,1.50492572 105.679547,1.30094088 105.662907,1.16772642 C105.650411,1.03034213 105.596293,0.930429616 105.500554,0.867988891 C105.408971,0.801364958 105.338201,0.765978094 105.288243,0.761828298 C105.238258,0.757818834 105.096717,0.747427639 104.863621,0.730654713 C104.80535,0.672383831 104.778286,0.576637822 104.782429,0.443416687 C104.782429,0.405928195 104.784434,0.374687785 104.788443,0.349695457 C105.546105,0.291424575 106.143495,0.174859423 106.580613,0 C106.693012,0 106.749211,0.0437131851 106.749211,0.131139555 C106.715933,0.47250535 106.697189,0.920025056 106.692979,1.47369867 L106.692979,7.2685775 C106.692979,7.60161698 106.75126,7.83266236 106.867821,7.96171365 C106.98439,8.08660847 107.238333,8.16570852 107.62965,8.1990138 C107.667138,8.23650229 107.685882,8.2947832 107.685882,8.37385652 C107.685882,8.44878672 107.667138,8.50706763 107.62965,8.54869923 C106.91362,8.63196244 106.397411,8.80056376 106.081024,9.05450318 C106.0144,9.07114246 105.970687,9.0794621 105.949885,9.0794621 C105.920749,9.0794621 105.883284,9.07114246 105.837489,9.05450318 C105.741737,8.75476899 105.695942,8.50498939 105.700105,8.30516437 C105.696096,8.26353276 105.677351,8.24271696 105.643872,8.24271696 C105.610594,8.24271696 105.577282,8.25728468 105.543936,8.28642012 L105.544247,8.28643015 Z" id="path3073"></path>
            <path d="M111.48899,5.95099735 L110.477382,6.21951118 C109.665599,6.431819 109.261789,6.9001545 109.265952,7.6245177 C109.265952,7.85347816 109.342967,8.06370774 109.496998,8.25520644 C109.655191,8.44254198 109.884155,8.53620975 110.183889,8.53620975 C110.483623,8.53620975 110.858294,8.35095579 111.307902,7.98044787 C111.428627,7.89719135 111.48899,7.78687428 111.48899,7.64949666 L111.48899,5.95099735 Z M111.48899,8.31765385 L111.464031,8.31765385 L111.208006,8.51747553 C110.924925,8.73811635 110.69388,8.88173871 110.51487,8.94834259 C110.335861,9.01911632 110.102734,9.05454146 109.815489,9.05454146 C109.32842,9.05454146 108.937099,8.94418277 108.641528,8.72354195 C108.35012,8.50290781 108.204416,8.15321903 108.204416,7.67447563 C108.204416,7.24984662 108.397993,6.87517554 108.785147,6.55046239 C109.172308,6.22574924 109.682275,5.98221437 110.315049,5.81985779 L111.414073,5.55134397 C111.464058,5.53470469 111.48905,5.4847501 111.48905,5.40148021 C111.48905,4.2941263 111.143521,3.74044934 110.452463,3.74044934 C110.169381,3.74044934 109.921683,3.78624077 109.709369,3.87782362 C109.497061,3.96524999 109.390907,4.09846778 109.390907,4.277477 C109.390907,4.39820197 109.399227,4.48146184 109.415866,4.5272566 C109.440858,4.57717444 109.453355,4.65418956 109.453355,4.75830199 C109.453355,4.854048 109.401318,4.94979735 109.297246,5.04555004 C109.197337,5.13713289 109.062041,5.18292431 108.891358,5.18292431 C108.591624,5.18292431 108.443838,5.03305721 108.448001,4.73332302 C108.448001,4.38363091 108.668639,4.06099934 109.109914,3.76542831 C109.555352,3.46569412 110.038259,3.31582702 110.558634,3.31582702 C111.844997,3.31582702 112.488178,4.03602371 112.488178,5.4764171 L112.488178,7.38098283 C112.488178,7.62659594 112.494426,7.81393148 112.506923,7.94298945 C112.519419,8.07204075 112.56521,8.19276572 112.644297,8.30516437 C112.72756,8.41339986 112.846207,8.4675176 113.000237,8.4675176 C113.104309,8.4675176 113.193814,8.43420564 113.268751,8.3675817 C113.343681,8.30095777 113.385309,8.26764581 113.393636,8.26764581 C113.418628,8.26764581 113.45194,8.29263813 113.493572,8.34262279 C113.539346,8.39260744 113.562234,8.43839887 113.562234,8.47999706 C113.562234,8.50498939 113.516442,8.56327364 113.424859,8.6548498 C113.33744,8.74226949 113.204225,8.8317741 113.025216,8.92336363 C112.846207,9.01078332 112.663034,9.05454146 112.475699,9.05454146 C111.96365,9.05850263 111.634774,8.81288618 111.48907,8.31764383 L111.48899,8.31765385 Z" id="path3075"></path>
            <path d="M118.001994,7.34351439 L118.001994,4.91441048 C118.001994,4.71874862 117.987416,4.58137101 117.958281,4.50227764 C117.933288,4.41901443 117.875007,4.32534666 117.783438,4.22127433 C117.521172,3.91321382 117.175643,3.76126515 116.746851,3.76542831 C116.234802,3.76542831 115.837237,3.97773947 115.554156,4.40236179 C115.308542,4.75205391 115.185736,5.31822034 115.185736,6.1008611 C115.185736,6.85020326 115.325195,7.43094076 115.604113,7.8430736 C115.887195,8.25104328 116.216071,8.45502812 116.590742,8.45502812 C116.923782,8.45502812 117.32551,8.25104328 117.795927,7.8430736 C117.933305,7.72234863 118.001994,7.55582889 118.001994,7.34351439 L118.001994,7.34351439 Z M117.858365,8.28643015 C117.233917,8.79847884 116.701053,9.05450318 116.259771,9.05450318 C115.585373,9.05450318 115.054593,8.80472358 114.667432,8.30516437 C114.280272,7.801442 114.086692,7.14368937 114.086692,6.33190649 C114.086692,5.42021443 114.380184,4.67087562 114.96717,4.08389004 C115.504191,3.57184803 116.143209,3.31582702 116.884225,3.31582702 C117.013276,3.31582702 117.154817,3.33457127 117.308848,3.37205976 C117.462878,3.40954825 117.594011,3.44701669 117.702246,3.48446509 C117.814651,3.51774365 117.875017,3.53438292 117.883344,3.53438292 C117.958274,3.53438292 117.997821,3.4948329 118.001984,3.41573285 L118.001984,1.77968094 C118.001984,1.50492572 117.993664,1.30094088 117.977025,1.16772642 C117.964529,1.03034213 117.910411,0.930429616 117.814672,0.867988891 C117.723082,0.801364958 117.652312,0.765978094 117.60236,0.761828298 C117.552376,0.757818834 117.410835,0.747427639 117.177738,0.730654713 C117.119467,0.672383831 117.092403,0.576637822 117.096546,0.443416687 C117.096546,0.405928195 117.098551,0.374687785 117.102561,0.349695457 C117.860222,0.291424575 118.457609,0.174859423 118.894721,0 C119.007126,0 119.063329,0.0437131851 119.063329,0.131139555 C119.03005,0.47250535 119.011306,0.920025056 119.007096,1.47369867 L119.007096,7.2685775 C119.007096,7.60161698 119.065377,7.83266236 119.181939,7.96171365 C119.298507,8.08660847 119.55245,8.16570852 119.943767,8.1990138 C119.981256,8.23650229 120,8.2947832 120,8.37385652 C120,8.44878672 119.981256,8.50706763 119.943767,8.54869923 C119.227737,8.63196244 118.711529,8.80056376 118.395142,9.05450318 C118.328518,9.07114246 118.284805,9.0794621 118.264002,9.0794621 C118.234867,9.0794621 118.197402,9.07114246 118.151607,9.05450318 C118.055854,8.75476899 118.010059,8.50498939 118.014223,8.30516437 C118.010213,8.26353276 117.991469,8.24271696 117.95799,8.24271696 C117.924711,8.24271696 117.891399,8.25728468 117.858054,8.28642012 L117.858365,8.28643015 Z" id="path3077"></path>
        </g>
    </g>
</svg>