<svg xmlns="http://www.w3.org/2000/svg" viewBox="0 0 77.273 40"><g fill="#545454"><path d="M15.547 2.184c0 .09-.273.727-.363 1 0 .09-.094.18-.184.363-.09.09 0 .363-.09.453-.094.363-.273.816-.547 1.363-.18.363-.363.91-.546 1.274-.09.363-.363.91-.543 1.18 0 .093 0 .366-.09.456-.094.273-.273.637-.367.91-.27.634-.453 1.36-.727 2.09-.09.09-.273.363-.363.543-.09.273-.363.91-.637 1.094 0 .09 0 .18-.09.363-.09.09-.184.18-.363.364v.547c-.09.09-.363.27-.363.453-.184.547-.273 1.27-.457 1.726-.09.363-.453.82-.454 1.184l-.18.18c-.093.184-.093.457-.093.726-.09.273-.273.637-.363 1 0 0-.09 0-.18.094-.094.637-.547 1.18-.73 1.816-.09.363-.18.82-.27 1.184 0 .18-.184.363-.273.543-.363 1.09-.727 2.18-1 3.273-.184.453-.184 1.09-.457 1.727-.18.637-.453 1.46-.633 2.273-.094.184-.273.453-.274.637v.91c0 .18-.094.453-.183.637 0 .363 0 .727-.09 1.09 0 .18-.184.453-.184.726v.364c0 .184-.18.457-.18.636-.09.273-.09.547-.09.82 0 .18.09.364 0 .544-.093.363-.272 1-.273 1.363 0 .094.09.273 0 .457-.094.18-.457.906-.547 1a.5.5 0 0 1-.453.27c-.273.093-.727.093-1.094.183-.09 0-.543.184-.632.184-.094 0-.184 0-.274-.094-.094-.09-.184 0-.363 0-.184 0-.457-.453-.363-.637 0-.09.363-.727.453-1.09.363-1.09 1.09-3.18 1.09-3.363 0 0-.273-1.64-.364-2.09 0-.184.09-.637 0-1-.09-.637-.09-1.18-.09-1.636-.09-.727-.363-1.55-.457-2.274-.27-1.64-.543-2.91-.453-4.363 0-.273-.09-.91-.18-1.363 0 0 .09-.184.09-.364-.09-.363-.184-.91 0-1.363 0 0-.184 0-.183-.184-.09-.453-.09-1-.09-1.547 0-.27.09-.727.184-1.09 0-.09-.094-.09-.094-.18.094-1.18.273-2.36.273-3.362 0-.457.273-1.64.364-2.368.09-1.27 0-3.73.09-3.906 0-.184.183-.547.367-.82.906-.543 1.09-1.36 1.906-1.363.547 0 .457.547.726 1.273 0 .184-.18.453-.18.637 0 .18.18.547.18.726.094.09-.18.547-.18.727 0 1-.183 1.55-.363 2.273-.184 1-.363 2.09-.457 3 0 .273.094.82 0 1.274-.27 1.64-.363 3.27-.18 5v1.91c.09.543.274 1.45.364 2.18 0 .363.363 3.27.453 3.273.457 0 1.27-1.82 1.274-2 0-.09.09-.727.183-1.184 0-.27.18-.633.274-1 0-.09-.094 0 0-.18 0-.183.363-.91.543-1.546.09-.363.273-.816.363-1.18v-.457c0-.18.363-.543.457-.816.27-.727.543-1.91.906-2.82.094-.18.273-.364.457-.633.273-.547.273-1.18.453-1.731 0-.09.184-.18.274-.27.09-.093.09-.272.09-.367.09-.18.272-.363.363-.632.184-.547.363-1.18.547-1.731 0 0 .273 0 .363.094-.09.18-.273.543-.363.726-.09.363-.09.727-.184 1.09-.09.184-.363.547-.453.82-.09.18-.09.453-.09.633-.094.547-.82 2.09-1 2.82-.094.09 0 .274 0 .364-.094.91-.363.727-.363 1.09-.184.637-.547 1.82-.547 2v.363c0 .547-.273 1-.09 1.547.363-.637.816-1.91 1.09-2.727.363-.91.547-1.82.91-2.726.09-.184.273-.363.363-.637.18-.547.18-1.09.453-1.637.09-.273.457-.91.547-1.363.09-.094.18-.094.18-.094 0-.09.094-.18.094-.27v-.456c0-.09.18-.363.18-.454 0-.184 0-.637.09-1 0-.09-.09-.184 0-.363.183-1.18.636-3.36.73-3.547 0-.18.363-1.09.453-1.726.09-.363.09-.727.273-1 .18-.453.453-1 .637-1.547.18-.727.816-1.73 1.18-2.543C14.453.726 15 0 15.363 0c.09 0 .184.09.274.183.09.18.09.453.09.727 0 .18-.09.543-.18.726zm2.816 12.906c-.453.457-.91.727-1.453.82-.457.09-.91-.637-.726-1 .27-.637 1.09-1.18 1.816-1.184l.09.364c.184.363.727.637.273 1m-1.273 9.183c.273-.09-.09.727-.363 1-.816.637-1.82 1.54-2.727 1.09-.816-.453.363-3.36-2.816-.637-1 .91 1.18-1.91 1.816-2.91.09-.18.363-.363.453-.633.184-.637.457-.91.73-1.547.364-.637 1.18-1.18 1.907-1.363l.183.274c-.273 1.18-.91 2.36-.91 3.636v1.27c0 .457.184.73.453.73.547-.094.73-.73 1.274-.91z"/><path d="M28 16.363c0 .727-1.18.82-1.727 1.184-1.46 1-3.27 1.82-4.363 2.906-.91.91-.094 2.36.453 3.273.82 1.18 2.27 1.55 3.727 1.274.094 0 .094-.09.183-.09.09 0 0 .453-.09.543-.82.457-1.82.637-2.82.73-1.64.18-2.36-1.18-3.453-2-.363-.273-.273.363-.273.633-.09.82-.363 1.37-.637 2.273-.184.637-1.64 1.46-1.816.82-.367-1.18 1-2.27.543-3.363-.18-.547-.91 1.27-1.18.817-.73-.91 1-1.36 1.453-2.274.816-1.36 1.27-2.64 1.816-4 .273-.543.637-1.09.82-1.726.454-1.45.91-2.82 1.637-4.18.273-.547 1.18-.91 1.817-.73l.094.093c-.82 1.82-1.55 3.73-2.274 5.543-.273.547-1.09 1.73-.457 1.82.91.18 2.27-1.09 3.274-1.726.637-.457 1.09-.73 1.726-1.183.457-.453 1.55-1.18 1.547-.637z"/><path d="M32.816 15.09c-.453.457-.906.727-1.453.82-.453.09-.91-.637-.727-1 .273-.637 1.09-1.18 1.817-1.183l.093.363c.09.363.727.637.27 1m-1.27 9.184c.27-.09-.093.727-.363 1-.82.637-1.82 1.54-2.73 1.09-.816-.454.363-3.36-2.817-.637-1 .91 1.18-1.91 1.817-2.91.094-.18.363-.364.457-.633.18-.637.453-.91.726-1.547.363-.637 1.18-1.18 1.91-1.364l.18.274c-.273 1.18-.91 2.36-.91 3.637v1.27c0 .456.184.73.457.73.543-.094.727-.73 1.273-.91z"/><path d="M41.453 17.184c.457-.184.094 1.36-.363 1.906-.637.637-1.36 1.36-1.817 2.184-.184.453-.82.727-.82 1.18.094.547.363 1.27-.09 1.73-.727.816-1.64 1.73-2.726 1.633-.363 0-1.09 0-1-.633.09-1 1.73-1.18 1.726-2.184 0-.727-.273-1.36-.547-2-.09-.273-.453-.184-.543 0-.184.184-.363.453-.547.727-.816 1.09-2 2.18-3.18 2.457-.362.09.728-1 1-1.184 1.73-.91 2.73-2.55 3.454-4.09.547-1.36 1-3 2.547-3.82.637-.363 1.91-1.54 2-.453 0 .547-.547 1-1.094 1.18-.906.367-1.54 1.37-1.637 2.183 0 .273.094.727 0 1.09-.09.547 0 .82 0 1.274 0 .184.273.453.457.273.727-.547 1.27-1.09 1.727-1.82.547-.363.727-1.36 1.453-1.633m5.184-2.094c-.453.457-.91.727-1.453.82-.457.09-.91-.636-.731-1 .273-.636 1.09-1.18 1.82-1.183l.09.363c.09.363.727.637.274 1m-1.274 9.184c.273-.09-.09.727-.363 1-.816.637-1.82 1.54-2.727 1.09-.82-.453.363-3.36-2.82-.637-1 .91 1.18-1.91 1.82-2.91.09-.18.363-.363.453-.633.184-.637.457-.91.727-1.547.363-.637 1.18-1.18 1.91-1.363l.184.273c-.273 1.18-.91 2.36-.91 3.637v1.27c0 .456.18.73.453.73.547-.094.637-.73 1.273-.91z"/><path d="M61.453 9.273c.184.09-.453.543-.727.727-1.54 1.09-3.73.273-5.363 1.09-.727.363-.547 1.27-.816 2-.273.727-.547 1.55-.82 2.363-.364 1.27-.728 2.55-1.18 3.82-.73 1.82-1.27 3.91-1.637 5.727 0 .273 0 .727.363.637 1.09-.273 1.91-1.45 2.637-2.364.543-.637.906-2.73 1.453-2.09 1 1.36-1.27 2.36-2.09 3.544-.547.82-1.36 1.55-2.273 1.91-.363.18-.816.637-1.273.453-.91-.453-.273-1.73-.09-2.637.273-1.27.727-2.64 1.09-3.816.183-.727.726-1.64.183-2-.457-.273-.547.727-.82 1.09-.363.363-.363.91-.727 1.183-.91.906-1.73 1.91-2.726 2.727-.82.637-.727.637-2.184 1.547h-.18c.453-1.09 2.27-1.46 4.274-4.457 1.09-1.64 1.82-3.36 2.816-5.18.363-.637.547-1.36.91-2.094.18-.453.453-.727.543-1.18.094-.362.184-.636.367-.91.18-.18 0-.453-.183-.453-1.09.09-2.36.18-3.453-.183-.094-.09-.184-.273-.094-.453.457-.457.73-1.36 1.363-1.364.91 0 1.82.816 2.73.543 1-.363.544-1.73 1.637-2.453.453-.273 1.27-.816 1.27-.184-.09.73-.816 1.37-.637 2.094.094.453.91.363 1.367.364h1.27c1 .09 2.18-.273 3 0z"/><path d="M60.91 24.727c-.82.637-1.91 1.46-2.91 1.09-.453-.18-.727-.816-.817-1.363 0-.18-.273 0-.367.093-.816.727-1.45 1.73-2.633 2.09-.367.09-.82.09-.91-.273-.09-.453.09-1 .274-1.453.18-.457.453-.91.636-1.364.363-.73.543-1.46 1-2.094.543-.906 1.36-1.64 2.27-2 .457-.18.457.363.457.637-.184.727-.547 1.82-1.363 2-.457.094-.82.094-1 .457-.273.453-.457 1-.547 1.543-.09.457-.363 1.18 0 1.184 1 .18 1.45-1.27 1.91-2.09.363-.547.637-1.09 1-1.637v-.183c.543-.453.906-1.18 1.543-1.09.457.09-.18.637-.18 1 0 1.09-.637 2-.183 2.91.184.363.82.363 1.183.27.18-.09.453-.27.727-.27.184-.094.09.363-.09.543"/><path d="M77.184 9.273c.18.09-.457.543-.73.727-1.54 1.09-3.73.273-5.364 1.09-.727.363-.543 1.27-.816 2-.273.727-.547 1.55-.82 2.363-.363 1.27-.727 2.55-1.18 3.82-.727 1.82-1.27 3.91-1.637 5.727 0 .273 0 .727.363.637 1.09-.273 1.91-1.45 2.637-2.364.547-.637.91-2.73 1.453-2.09 1 1.36-1.27 2.36-2.09 3.544-.547.82-1.36 1.55-2.273 1.91-.363.18-.816.637-1.273.453-.906-.453-.27-1.73-.09-2.637.273-1.27.727-2.64 1.09-3.816.184-.727.73-1.64.183-2-.453-.273-.547.727-.82 1.09-.363.363-.363.91-.727 1.183-.906.906-1.73 1.91-2.726 2.727-.816.637-.727.637-2.18 1.547H60c.453-1.09 2.27-1.46 4.274-4.457 1.09-1.64 1.82-3.36 2.816-5.18.363-.637.547-1.36.91-2.094.184-.453.453-.727.547-1.18.09-.362.18-.636.363-.91.18-.18 0-.453-.183-.453-1.09.09-2.36.18-3.363-.183-.09-.09-.18-.273-.09-.453.453-.457.727-1.36 1.363-1.364.91 0 1.82.816 2.727.543 1-.363.547-1.73 1.636-2.453.453-.273 1.27-.816 1.274-.184-.09.73-.82 1.37-.637 2.094.09.453.91.363 1.363.364h1.274c1 .09 2.09-.273 2.91 0z"/></g></svg>