<svg xmlns="http://www.w3.org/2000/svg" width="120" height="18"><path fill="#000" fill-rule="nonzero" d="m18.34 0 .198.001h.375l.174.001h.315l.138.001.323.001H20.034l.058.054v.5c0 .14-.078.208-.231.208-.753.035-.908.11-1.183.507-.15.217-.448.682-.756 1.204L15.28 7.42l-.073.154 3.23 6.61.195.054L23.72 2.162c.176-.487.149-.832-.078-1.035-.228-.198-.389-.315-.979-.34l-.477-.023a.28.28 0 0 1-.168-.06.174.174 0 0 1-.08-.147V.054l.073-.052h5.749l.059.052v.503c0 .136-.078.205-.232.205-.753.033-1.311.197-1.673.488-.362.294-.645.699-.848 1.225 0 0-1.444 3.306-3.002 6.855l-.268.61c-1.164 2.65-2.35 5.337-3.01 6.806-.613 1.167-1.216 1.06-1.746-.034a244.902 244.902 0 0 1-1.917-4.116l-.351-.768-.786-1.726c-.28.58-.588 1.211-.903 1.854l-.246.503c-.04.084-.082.167-.123.251l-.246.5a128.764 128.764 0 0 1-1.782 3.516c-.715 1.243-1.304 1.08-1.772.033C7.287 12.92 3.948 6.183 2.376 2.407c-.291-.695-.51-1.142-.717-1.318C1.45.914 1.019.809.36.774.121.748 0 .689 0 .594V.068L.059.017.592.015 1.6.014h1.222l1.734.001h.225l.95.001h.577l.059.052v.5c0 .14-.088.206-.26.206L5.453.8c-.56.023-.84.19-.84.5 0 .145.06.38.19.695 1.252 3.05 5.576 12.168 5.576 12.168l.158.042 2.788-5.56-.559-1.235-1.916-3.766s-.37-.753-.497-1.003C9.512.972 9.531.884 8.68.772 8.44.74 8.318.71 8.318.592V.064L8.39.013l.512-.001h1.677L10.8.01h2.55l.131.043V.58c0 .12-.086.182-.26.182l-.36.051c-.908.07-.76.442-.156 1.645l1.838 3.761 2.034-4.055c.317-.693.278-.9.157-1.065l-.027-.034c-.08-.097-.351-.252-.94-.276l-.231-.025a.276.276 0 0 1-.167-.06.172.172 0 0 1-.079-.147V.056l.072-.052.879-.003Zm10.784 5.318c.709 0 2.73-.052 2.73-.052l.026.052v.578c0 .078-.052.13-.157.13l-.552.054c-.813.078-1.102.289-1.102.815v8.741c0 .578.262.919 1.102.998l.552.053c.078 0 .157.052.157.157v.55l-.026.054s-1.995-.053-2.809-.053c-.735 0-2.782.053-2.782.053l-.053-.053v-.551c0-.105.079-.157.184-.157l.525-.053c.866-.08 1.129-.5 1.129-.998V6.895c0-.576-.316-.736-1.129-.813l-.525-.054c-.105 0-.184-.024-.184-.105v-.605l.026-.052s2.074.052 2.888.052Zm10.868 12.327c2.023 0 3.268-.76 4.487-2.411l-.519-.42c-1.193 1.416-2.1 1.94-3.839 1.94-3.138 0-4.072-2.91-4.072-5.504 0-4.403 2.023-5.425 3.969-5.425 2.256 0 3.398 1.258 3.709 3.093l.674-.079c-.155-1.075-.285-2.175-.31-3.355-.987 0-2.154-.419-4.229-.419-3.424 0-6.07 2.62-6.07 6.447 0 3.014 2.205 6.133 6.2 6.133m10.764-2.009c0 .578.262.919 1.102.998l.551.053c.08 0 .158.052.158.157v.55l-.026.054s-1.995-.053-2.81-.053c-.734 0-2.782.053-2.782.053l-.052-.053v-.551c0-.105.079-.157.184-.157l.525-.053c.866-.08 1.128-.5 1.128-.998V6.895c0-.576-.315-.736-1.128-.813l-.525-.054c-.105 0-.184-.024-.184-.105v-.605l.026-.052s2.074.052 2.888.052c.708 0 2.73-.052 2.73-.052l.026.052v.578c0 .078-.053.13-.158.13l-.55.054c-.815.078-1.103.289-1.103.815v8.741Zm5.974-8.69c0-.813-.34-.84-1.575-.918-.157 0-.183-.078-.183-.131v-.604l.052-.026c.394 0 1.943.052 2.704.052.735 0 1.785-.052 2.756-.052 3.726 0 4.408 1.836 4.408 3.203 0 1.576-.761 4.042-4.487 4.042-.656 0-1.18-.053-1.654-.262v3.515c0 .578.315.71 1.156.84l.526.08c.105.025.183.053.183.157v.55l-.025.053s-2.1-.052-2.914-.052c-.735 0-2.703.052-2.703.052l-.027-.052v-.551c0-.105.053-.132.158-.158l.551-.079c.814-.105 1.076-.34 1.076-.84l-.002-8.819Zm2.022 4.569c.525.21 1.18.236 1.706.236 1.576 0 2.334-.947 2.334-2.966 0-2.257-1.024-2.756-2.465-2.756-1.261 0-1.576.236-1.576.919v4.567Zm20.937 5.172.603-.053c.789-.08 1.051-.315 1.051-1.128V6.844c0-.685-.185-.685-1.05-.762l-.576-.054c-.105 0-.186-.053-.186-.131v-.578l.025-.052s2.311.052 2.785.052c.497 0 2.782-.052 3.465-.052 4.384 0 6.537 2.73 6.537 6.22 0 4.595-3.256 5.958-6.169 5.958-2.1 0-3.017-.052-3.831-.052-.789 0-2.784.052-2.784.052l-.026-.052v-.551a.148.148 0 0 1 .156-.155Zm5.854 0c2.887 0 4.516-1.075 4.516-4.752 0-2.729-.604-5.907-5.014-5.907-1.024 0-1.68.157-1.68.816v8.662c0 .733.182 1.181 2.178 1.181Zm13.199-1.05c0 .577.262.918 1.102.997l.552.053c.078 0 .157.052.157.157v.55l-.026.054s-1.995-.053-2.808-.053c-.736 0-2.782.053-2.782.053l-.054-.053v-.551c0-.105.079-.157.184-.157l.526-.053c.865-.08 1.129-.5 1.129-.998V6.895c0-.576-.316-.736-1.13-.813l-.525-.054c-.105 0-.184-.024-.184-.105v-.605l.026-.052s2.074.052 2.886.052c.709 0 2.73-.052 2.73-.052l.026.052v.578c0 .078-.053.13-.157.13l-.552.054c-.813.078-1.102.289-1.102.815l.002 8.741Zm8.188.997.761.053c.105 0 .21.079.21.21v.498l-.053.053s-2.86-.053-3.49-.053c-.684 0-2.364.053-2.364.053l-.054-.053v-.499c0-.13.079-.209.211-.209 1.156-.079 1.81-.29 2.545-1.97l5.827-13.65c.288-.683.499-.946.893-.946.367 0 .5.263.708.788l5.381 14.227c.369 1.025.894 1.418 1.944 1.523l.289.025c.13 0 .262.079.262.211v.498l-.079.052s-2.021-.052-3.045-.052c-.918 0-3.492.052-3.492.052l-.025-.052v-.498c0-.132.052-.21.186-.21l.735-.053c.996-.078 1.366-.395 1.102-1.13l-1.601-4.436h-5.46c-.63 0-.788.105-.918.445l-1.523 3.807c-.263.658.078 1.237 1.05 1.316Zm6.43-6.67-2.545-7.007h-.053l-2.625 6.667c-.105.263.078.341.655.341h4.569Zm-43.846 7.43c-.788 0-2.598.054-2.598.054l-.027-.053v-.578c0-.051.027-.13.158-.13l.604-.053c.815-.08 1.051-.604 1.051-1.128V6.844c0-.606-.316-.71-1.05-.762l-.605-.054c-.158-.024-.158-.078-.158-.105v-.605l.027-.052s2.047.052 2.834.052h3.859c.787 0 2.652-.052 2.652-.052l.054.052c.025 1.129.209 2.154.393 3.151l-.655.105c-.288-.972-.786-2.362-2.466-2.362h-2.1c-.499 0-.762.183-.762.628v3.808h1.968c.736 0 .919-.315 1.025-.84l.156-.552c0-.078.054-.132.158-.132h.445c.054 0 .054.027.054.079-.054.577-.158 1.313-.158 1.943 0 .656.105 1.208.158 1.812l-.054.053h-.445c-.13 0-.185-.053-.185-.132l-.131-.577c-.105-.526-.341-.814-1.026-.814h-1.967v4.017c0 .498.287.996.762.996h2.493c1.34 0 2.075-.84 2.39-2.206l.654.08-.526 3.017-.052.052s-1.549-.052-2.336-.052l-4.594.003Z"/></svg>