<svg xmlns="http://www.w3.org/2000/svg" version="1.2" viewBox="0 0 135 25"><style>.s7{fill:#0b2645}.s8{fill:#0a4e98}</style><text x="67.826" y="-3.622" stroke-width=".396" font-size="4.746"/><path d="M1.387 3.86h4.176l2.935 12.32 2.935-12.32h4.217l2.893 12.32L21.48 3.86h4.175l-4.01 16.95H16.6L13.5 7.912 10.482 20.81H5.44zM28.506 3.86h4.382v16.95h-4.382zM37.188 3.86h4.382v6.201l6.325-6.2h5.085l-8.186 8.02 9.012 8.929H48.35l-6.78-6.656v6.656h-4.382zM55.253 3.86h4.382v16.95h-4.382z" class="s7"/><path fill-rule="evenodd" d="M74.766 11.756q1.405.372 2.19 1.489t.786 2.728q0 2.44-1.653 3.638t-5.044 1.199H63.77V3.86h6.573q3.514 0 5.127 1.075 1.57 1.034 1.57 3.39 0 1.24-.578 2.109t-1.695 1.322m-4.051 6.077q1.322 0 1.984-.537.661-.579.661-1.695t-.661-1.654-1.984-.537H68.15v4.423zm-.166-7.4q1.034 0 1.571-.454t.538-1.364q0-.869-.538-1.323t-1.57-.455H68.15v3.597z" class="s8"/><path d="M81.504 3.86h4.382v10.17q0 2.108.662 3.018.703.868 2.273.868t2.233-.868q.703-.91.703-3.018V3.86h4.382v10.17q0 3.597-1.82 5.374-1.818 1.737-5.498 1.737-3.72 0-5.498-1.737-1.819-1.777-1.819-5.374zM100.397 3.86h4.382v6.201l6.325-6.2h5.085l-8.186 8.02 9.012 8.929h-5.457l-6.78-6.656v6.656h-4.381zM118.462 3.86h4.382v10.17q0 2.108.703 3.018.662.868 2.232.868t2.233-.868q.703-.91.703-3.018V3.86h4.382v10.17q0 3.597-1.82 5.374-1.777 1.737-5.498 1.737-3.679 0-5.498-1.737-1.819-1.777-1.819-5.374z" class="s8"/></svg>