<svg viewBox="0 0 113 13" xmlns="http://www.w3.org/2000/svg"><path d="M55.904 3.33c.027 0 .054.012.054.038l-.04 1.04h.04c.622-.91 1.34-1.04 1.772-1.04 1.31 0 2.27 1.27 2.273 2.653 0 1.05-.338 1.86-.947 2.458-.528.507-1.18.728-1.894.728-.487 0-.852-.104-1.204-.286v2.25c0 .364.149.507.568.546l.257.026c.068.013.122.039.122.104v.247l-.027.026c-.501-.013-.933-.026-1.448-.026-.487 0-.906.013-1.407.026l-.027-.026v-.247c0-.065.041-.091.109-.104l.257-.026c.433-.04.582-.182.581-.546V4.903c0-.65-.108-.78-.297-.807l-.582-.052-.027-.312c.96-.143 1.47-.26 1.867-.403zm-19.028.142.04.026v.247c0 .065-.054.091-.148.104-.501.04-.771.507-.96.885-.718 1.46-1.31 2.8-2.395 5.305-.406.936-.92 2.05-1.88 2.055-.257 0-.785-.143-.785-.611 0-.39.298-.507.514-.507.203 0 .338.078.42.182.134.13.23.22.365.22.203 0 .703-1.14 1.041-1.937a.856.856 0 0 0 .108-.403c0-.13-.122-.481-.23-.741l-1.704-3.81c-.216-.494-.379-.598-.825-.638-.081-.013-.135-.039-.135-.09v-.26l.027-.027c.27.013.676.026 1.136.026.487 0 .974-.013 1.474-.026l.027.04v.233c0 .065-.08.104-.148.104-.514.04-.703.143-.5.586l1.487 3.355 1.502-3.303c.298-.52-.108-.598-.528-.638-.067 0-.135-.026-.135-.09V3.51l.027-.039c.5.013.798.026 1.272.026.379 0 .595-.013.933-.026zM72.575 0c.122 0 .176.039.176.13 0 0-.04.52-.04 1.365v6.073c0 .65.053.728.337.755l.65.065.04.299c-.839.143-1.43.312-1.731.546h-.311l.027-.91-.027-.013c-.622.48-1.3.897-1.84.897-1.46 0-2.27-1.17-2.273-2.77 0-.962.325-1.73.907-2.289.54-.494 1.14-.78 2.029-.78.27 0 .866.117 1.177.286V1.756c0-.845-.135-1.01-.406-1.015l-.433-.026c-.04 0-.081-.026-.081-.065l-.027-.312C71.304.3 72.239.13 72.575 0zm25.008 0c.122 0 .176.039.176.13 0 0-.04.52-.04 1.365v2.588c.46-.48 1-.715 1.65-.715 1.18 0 2.37.975 2.367 2.562 0 2.07-1.58 3.28-2.963 3.277-.582 0-1.01-.156-1.406-.481-.122.169-.311.39-.447.507-.135 0-.203-.013-.284-.065.054-.286.068-.507.068-1.014V1.755c0-.845-.135-1.01-.406-1.014l-.433-.026c-.04 0-.081-.026-.081-.065l-.027-.312c.54-.039 1.49-.208 1.826-.338zM40.567 3.368c1.3 0 2.02.637 2.016 1.327 0 .377-.352.559-.636.559-.284 0-.446-.13-.487-.455-.054-.43-.162-.988-.96-.989-.894 0-1.58.845-1.583 2.276 0 1.52.758 2.55 1.799 2.549.582 0 1.2-.338 1.623-.924.122.013.23.065.284.182-.676 1.07-1.39 1.31-2.205 1.314-1.7 0-2.65-1.16-2.651-2.835 0-1.85 1.34-3 2.8-3.004zm70.146 0c1.79 0 2.2 1.17 2.205 2.263 0 .143-.095.22-.243.22h-3.558c0 1.94 1.16 2.72 1.92 2.719.745 0 1.22-.234 1.692-.728.149.013.23.078.27.208-.514.676-1.31 1.16-2.286 1.157-1.85 0-2.68-1.22-2.679-2.718 0-1.98 1.39-3.12 2.679-3.12zm-60.426 0c2 0 2.77 1.57 2.773 2.926 0 1.3-.879 2.91-2.8 2.913-1.81 0-2.77-1.47-2.773-2.796 0-1.78 1-3.04 2.8-3.043zm13.733 0c1.79 0 2.2 1.17 2.205 2.263 0 .143-.095.22-.243.22h-3.558c0 1.94 1.16 2.72 1.92 2.719.745 0 1.22-.234 1.692-.728.148.013.23.078.27.208-.514.676-1.31 1.16-2.286 1.157-1.85 0-2.68-1.22-2.679-2.718 0-1.98 1.39-3.12 2.679-3.12zm17.229 0c1.79 0 2.2 1.17 2.205 2.263 0 .143-.095.22-.243.22h-3.558c0 1.94 1.16 2.72 1.92 2.719.745 0 1.22-.234 1.692-.728.148.013.23.078.27.208-.514.676-1.31 1.16-2.286 1.157-1.85 0-2.68-1.22-2.679-2.718 0-1.98 1.39-3.12 2.679-3.12zm-53.665 0c1.3 0 2.02.637 2.016 1.327 0 .377-.352.559-.636.559-.284 0-.446-.13-.487-.455-.054-.43-.162-.988-.96-.989-.894 0-1.58.845-1.583 2.276 0 1.52.758 2.55 1.799 2.549.582 0 1.2-.338 1.623-.924.122.013.23.065.284.182-.676 1.07-1.39 1.31-2.205 1.314-1.7 0-2.65-1.16-2.651-2.835 0-1.85 1.34-3 2.8-3.004zm-13.648 0c1.79 0 2.2 1.17 2.205 2.263 0 .143-.095.22-.243.22H12.34c0 1.94 1.16 2.72 1.92 2.719.745 0 1.22-.234 1.691-.728.15.013.23.078.271.208-.514.676-1.31 1.16-2.286 1.157-1.85 0-2.68-1.22-2.679-2.718 0-1.98 1.39-3.12 2.679-3.12zm90.873-.039c.027 0 .054.013.054.04l-.04 1.17h.04c.352-.507.947-1.17 1.583-1.17.555 0 .758.26.757.597 0 .338-.23.546-.581.547a.727.727 0 0 1-.555-.235.39.39 0 0 0-.27-.117c-.15 0-.447.234-.772.677a.751.751 0 0 0-.162.455V8.14c0 .377.149.533.582.559l.392.026c.068 0 .122.039.122.104v.247l-.027.026a64.578 64.578 0 0 0-1.597-.026c-.487 0-.906.013-1.406.026l-.014-.026V8.83c0-.065.027-.091.095-.104l.257-.026c.446-.04.582-.182.581-.56V4.904c0-.65-.108-.78-.297-.807l-.582-.052-.027-.312c.947-.143 1.49-.26 1.867-.403zM45.341 0c.122 0 .176.039.176.13 0 0-.04.52-.04 1.365v6.646c0 .377.121.52.567.559l.325.026c.054 0 .108.039.108.104v.247l-.027.026c-.676-.013-.947-.026-1.501-.026-.528 0-.798.013-1.475.026l-.013-.026V8.83c0-.065.027-.104.094-.104l.325-.026c.446-.04.582-.182.582-.56V1.756c0-.845-.135-1.01-.406-1.014l-.433-.026c-.04 0-.081-.026-.081-.065l-.027-.312C44.07.299 45.005.13 45.34 0zM3.476.663l.027.026v.247c0 .065-.04.104-.108.104l-.352.026c-.555.04-.744.182-.744.547V7.92c0 .403.243.65.636.65H4.49c1.03 0 1.43-.767 1.704-1.704l.406.065c-.15.676-.298 1.44-.352 2.172 0 0-1.24-.026-1.61-.026H1.745c-.528 0-1.08.013-1.718.026l-.028-.026V8.83c0-.065.055-.104.109-.104L.513 8.7c.541-.04.69-.104.69-.56V1.614c0-.39-.216-.507-.73-.547L.108 1.04C.054 1.04 0 1.001-.001.936V.69L.027.663C.663.676 1.217.69 1.745.69c.54 0 1.1-.013 1.731-.026zM19.084 3.33c.027 0 .054.013.054.04v-.001l-.04 1.157h.04c.866-.975 1.52-1.16 2.205-1.157 1.22 0 1.49.897 1.488 2.055V8.14c0 .377.15.52.568.559l.257.026c.068.013.122.039.122.104v.247l-.027.026c-.541-.013-.893-.026-1.448-.026-.528 0-.798.013-1.339.026l-.027-.026V8.83c0-.065.04-.091.108-.104l.19-.026c.433-.065.582-.182.582-.56V5.333c0-.91-.162-1.34-.88-1.34-.595 0-1.11.221-1.799 1.002V8.14c0 .377.135.494.582.559l.19.026c.067.013.107.039.107.104v.247l-.027.026c-.54-.013-.825-.026-1.38-.026-.528 0-.866.013-1.406.026l-.027-.026V8.83c0-.065.04-.091.108-.104l.257-.026c.446-.04.582-.182.581-.56V4.904c0-.65-.108-.78-.297-.807l-.582-.052-.027-.312c.947-.143 1.49-.26 1.867-.403zm57.478 0c.027 0 .054.013.054.04 0-.001-.04.883-.04 1.533V8.14c0 .377.149.52.568.56l.257.026c.067.013.122.039.121.104v.247l-.027.026c-.54-.013-.933-.026-1.447-.026-.487 0-.866.013-1.407.026l-.027-.026V8.83c0-.065.04-.091.108-.104l.257-.026c.46-.052.582-.182.582-.56V4.902c0-.65-.108-.78-.298-.806l-.581-.052-.027-.312c.96-.143 1.53-.26 1.907-.403zM90.061 0c.122 0 .176.039.176.13 0 0-.04.52-.04 1.365V8.14c0 .377.121.52.567.56l.325.026c.054 0 .108.039.108.104v.247l-.027.026c-.676-.013-.947-.026-1.501-.026-.528 0-.798.013-1.475.026l-.013-.026V8.83c0-.065.027-.104.094-.104L88.6 8.7c.446-.04.582-.182.582-.56V1.755c0-.845-.135-1.01-.406-1.014l-.433-.026c-.04 0-.081-.026-.081-.065l-.027-.312C88.79.299 89.725.13 90.06 0zm4.04 3.33c.027 0 .054.012.054.038 0 0-.04.884-.04 1.534V8.14c0 .377.148.52.567.56l.257.026c.068.013.122.039.122.104v.247l-.027.026c-.541-.013-.933-.026-1.448-.026-.487 0-.866.013-1.406.026l-.027-.026V8.83c0-.065.04-.091.108-.104l.257-.026c.46-.052.582-.182.581-.56V4.902c0-.65-.108-.78-.297-.806l-.582-.052-.027-.312c.96-.143 1.53-.26 1.908-.403zm-43.963.467c-1.08 0-1.5 1.18-1.502 2.315 0 1 .514 2.67 1.853 2.666.61 0 1.42-.351 1.42-2.068 0-1.91-.662-2.91-1.771-2.913zm7.226.17c-.46 0-1.11.376-1.407 1.066v3.173c.473.533.906.559 1.123.559 1.45 0 1.81-1.33 1.813-2.393 0-1.47-.703-2.41-1.529-2.406zm41.733-.027c-.149 0-.852.026-1.38.546v3.668c.272.325.556.61.975.61 1.29 0 1.89-1.12 1.893-2.6 0-1.26-.663-2.22-1.488-2.224zM70.37 3.823c-.27 0-.839.04-1.258.65-.203.273-.379.793-.378 1.73 0 1.63.744 2.39 1.474 2.393.352 0 .879-.273 1.488-.741V4.59c-.325-.494-.69-.767-1.326-.768zm40.343-.013c-.31 0-1.31.065-1.555 1.535h2.489c.135 0 .189-.065.19-.182 0-1.09-.637-1.35-1.124-1.353zm-96.777 0c-.31 0-1.31.065-1.555 1.535h2.489c.135 0 .189-.065.19-.182 0-1.09-.637-1.35-1.124-1.353zm67.313 0c-.31 0-1.31.065-1.555 1.535h2.489c.135 0 .189-.065.19-.182 0-1.09-.637-1.35-1.124-1.353zm-17.229 0c-.31 0-1.31.065-1.555 1.535h2.489c.135 0 .189-.065.19-.182 0-1.09-.637-1.35-1.124-1.353zM8.93 0c.541 0 .893.507.893 1.287 0 .91-.785 1.53-1.596 1.678-.095-.091-.122-.182-.122-.312.703-.17 1.19-.767 1.19-1.04 0-.3-.23-.377-.486-.404-.243-.039-.595-.169-.596-.572 0-.364.298-.637.717-.637zm55.792.325c.082 0 .433.013.744.3l.041.142-1.556 1.418c-.203.195-.31.247-.406.247-.094 0-.189-.078-.189-.17 0-.142.04-.194.149-.363L64.533.35a.737.737 0 0 1 .19-.026zm11.271.715c.352 0 .65.286.65.625 0 .338-.298.624-.65.624-.352 0-.649-.286-.649-.624s.298-.624.65-.625zm17.538 0c.352 0 .65.286.65.625 0 .338-.298.624-.65.624-.352 0-.649-.286-.649-.624s.298-.624.65-.625z" fill="#000" fill-rule="nonzero"/></svg>