<svg xmlns="http://www.w3.org/2000/svg" width="120" height="22"><path fill="#000" fill-rule="nonzero" d="M.054.297C.12.3.514.31 1.239.324 1.963.34 2.62.35 3.213.351 3.755.35 4.386.34 5.106.324 5.826.31 6.222.3 6.291.297l.054.054v.513c0 .067-.02.116-.057.149a.327.327 0 0 1-.16.067l-.458.054c-.623.07-1.017.187-1.181.351-.165.164-.167.443-.007.837l4.266 12.015h.108l4.212-11.826c.178-.504.152-.86-.078-1.066-.23-.207-.6-.32-1.11-.338l-.432-.027a.221.221 0 0 1-.149-.057.21.21 0 0 1-.067-.159V.351l.054-.054c.058.003.421.012 1.09.027.669.016 1.295.025 1.88.027a64.93 64.93 0 0 0 1.596-.027C16.4.31 16.695.3 16.74.297l.054.054v.513c-.005.14-.077.212-.216.216-.723.05-1.248.235-1.576.557-.328.322-.577.73-.746 1.225L8.775 17.47a1.37 1.37 0 0 1-.273.462.507.507 0 0 1-.375.159c-.275-.005-.482-.212-.621-.621L2.268 2.754c-.175-.557-.392-.961-.651-1.211-.26-.25-.727-.405-1.401-.463a.221.221 0 0 1-.149-.057A.21.21 0 0 1 0 .864V.351Zm21.044 5.177.037.037v.454c0 .105-.05.158-.149.158h-.269c-.377 0-.646.071-.807.213-.155.136-.232.344-.232.622v9.36c0 .28.077.49.232.632.16.136.43.204.807.204h.27c.098 0 .148.058.148.176v.436l-.037.037a161.166 161.166 0 0 0-2.58-.037l-2.588.037-.037-.037v-.436c0-.118.05-.176.148-.176h.27c.383 0 .652-.062.807-.186.16-.13.24-.346.24-.65v-9.36c0-.303-.08-.517-.24-.64-.155-.13-.424-.195-.808-.195h-.269a.142.142 0 0 1-.102-.046.152.152 0 0 1-.046-.112v-.454l.037-.037c1.23.024 2.094.037 2.588.037l2.58-.037Zm86.883 4.651c-.295.002-.495-.022-.6-.074-.107-.052-.131-.144-.075-.277l2.7-6.858h.054l2.619 7.209h-4.698Zm-2.997 5.508 1.566-3.915a.6.6 0 0 1 .28-.361c.129-.068.35-.1.665-.098h5.616l1.647 4.563c.135.374.108.652-.081.834-.19.181-.54.29-1.053.327l-.756.054c-.13.005-.194.076-.19.216v.513l.028.054.72-.014c.455-.009.96-.017 1.52-.026a99.09 99.09 0 0 1 1.35-.014c.592.002 1.246.011 1.962.027l1.17.027.082-.054v-.513a.194.194 0 0 0-.085-.159.319.319 0 0 0-.185-.057l-.297-.027c-.532-.047-.953-.19-1.263-.429-.309-.239-.554-.618-.735-1.137L111.41.81a2.515 2.515 0 0 0-.304-.607.501.501 0 0 0-.425-.203.631.631 0 0 0-.5.223c-.136.152-.275.402-.418.75l-5.994 14.039c-.366.835-.748 1.379-1.148 1.63-.399.252-.89.383-1.471.395-.14.005-.212.076-.216.216v.513l.054.054.952-.027c.577-.016 1.07-.025 1.478-.027.248 0 .655.005 1.219.014l1.585.026.787.014.054-.054v-.513a.21.21 0 0 0-.068-.159.222.222 0 0 0-.148-.057l-.783-.054c-.499-.05-.838-.2-1.016-.452-.178-.252-.2-.552-.064-.898Zm-77.312.686c0 .278.078.488.232.63.161.137.43.205.807.205h.27c.098 0 .148.058.148.176v.436l-.037.037a161.166 161.166 0 0 0-2.58-.037l-2.588.037-.037-.037v-.436c0-.118.05-.176.149-.176h.269c.383 0 .652-.062.807-.186.16-.13.24-.346.24-.65v-9.36c0-.303-.08-.517-.24-.64-.155-.13-.424-.195-.807-.195h-.27a.142.142 0 0 1-.101-.046.152.152 0 0 1-.047-.112v-.454l.037-.038c1.231.025 2.094.038 2.589.038l2.56-.038.037.038v.454c0 .105-.043.158-.13.158h-.287c-.377 0-.643.068-.798.204-.149.136-.223.346-.223.63v3.814l3.952-3.702c.075-.074.146-.158.214-.25.068-.093.12-.192.158-.297.043-.105.037-.192-.019-.26-.056-.068-.167-.102-.334-.102-.507 0-.76-.077-.76-.232V5.53l.073-.056c1.2.025 2.048.038 2.542.038l2.227-.038.093.056v.4c0 .135-.189.212-.566.231-.668.105-1.392.529-2.171 1.271l-2.94 2.663c-.41.377-.644.649-.706.816-.062.167.003.356.195.566l4.536 4.824c.514.544.9.817 1.16.817h.343c.093 0 .161.009.204.027.05.019.078.044.084.075.012.03.019.074.019.13v.417l-.065.037a134.042 134.042 0 0 0-2.468-.037l-1.503.037-.074-.074v-.492c0-.148-.003-.256-.01-.325a.751.751 0 0 0-.074-.24.886.886 0 0 0-.204-.27l-3.906-4.221v4.138m14.748 0c0 .278.078.488.232.63.161.137.43.205.807.205h.27c.098 0 .148.058.148.176v.436l-.037.037a161.166 161.166 0 0 0-2.58-.037l-2.588.037-.037-.037v-.436c0-.118.05-.176.149-.176h.269c.383 0 .652-.062.807-.186.16-.13.241-.346.241-.65v-9.36c0-.303-.08-.517-.241-.64-.155-.13-.424-.195-.807-.195h-.27a.142.142 0 0 1-.101-.046.152.152 0 0 1-.047-.112v-.454l.037-.037c1.231.024 2.094.037 2.589.037l2.579-.037.037.037v.454c0 .105-.05.158-.149.158h-.269c-.377 0-.646.071-.807.213-.154.136-.232.344-.232.622v9.36m7.994-9.156v4.49c.26.037.576.056.947.056.81 0 1.438-.229 1.883-.687.452-.457.677-1.165.677-2.124 0-1.85-.791-2.774-2.375-2.774-.464 0-.77.08-.918.241-.142.161-.214.427-.214.798m-2.319 8.916V7.125c0-.625-.216-.946-.65-.965l-.602-.037c-.143 0-.214-.053-.214-.158v-.454l.037-.037c.34 0 1.126-.022 2.357-.065a86.568 86.568 0 0 1 2.681-.065c.612 0 1.166.052 1.66.157.502.1.916.239 1.244.418.328.173.609.368.844.584.235.21.414.443.538.696.124.254.214.492.27.715.055.216.083.436.083.658 0 .384-.05.752-.149 1.104-.093.353-.26.702-.5 1.049a3.458 3.458 0 0 1-.9.9c-.36.253-.826.457-1.401.612-.57.154-1.216.232-1.94.232-.451 0-.797-.022-1.039-.065v3.674c0 .346.09.597.27.751.179.155.466.25.862.288l.362.037c.105.025.158.083.158.176v.436l-.037.037a99.161 99.161 0 0 0-5.362 0l-.038-.037v-.436c0-.08.05-.14.149-.176l.269-.037c.402-.056.677-.155.825-.297.149-.143.223-.39.223-.742m11.149 1.688-.056-.037v-.418c0-.117.052-.176.158-.176h.26c.383 0 .652-.062.807-.185.16-.13.24-.347.24-.65V6.958c0-.303-.08-.517-.24-.64-.155-.13-.424-.195-.808-.195h-.26a.152.152 0 0 1-.11-.046.152.152 0 0 1-.047-.112V5.53l.056-.037h8.86c.074 1.089.207 2.115.398 3.08l-.76.167a9.75 9.75 0 0 0-.195-.621 4.229 4.229 0 0 0-.26-.622 2.508 2.508 0 0 0-.38-.575c-.13-.155-.3-.285-.51-.39a1.373 1.373 0 0 0-.669-.167h-2.477c-.173 0-.26.186-.26.557v3.906h2.144a.45.45 0 0 0 .278-.084c.08-.062.145-.167.195-.315.05-.149.083-.282.102-.4.025-.117.056-.3.093-.547 0-.043.027-.086.083-.13a.345.345 0 0 1 .223-.074h.399l.111.186c-.087.711-.13 1.299-.13 1.762 0 .427.043 1.018.13 1.772l-.111.167h-.4a.396.396 0 0 1-.222-.055c-.056-.044-.083-.087-.083-.13-.037-.248-.068-.43-.093-.547a2.457 2.457 0 0 0-.102-.409c-.05-.148-.115-.25-.195-.306a.42.42 0 0 0-.278-.093h-2.143v4.713c0 .21.021.356.065.436.043.08.108.12.194.12h2.913c.495 0 .916-.231 1.262-.695.353-.47.616-1.082.789-1.837l.816.195a52.424 52.424 0 0 0-.51 3.21h-9.277m15.88-1.429c0 .198.033.34.102.427.074.087.222.148.445.186.229.037.597.055 1.104.055.52 0 .99-.04 1.41-.12.427-.08.841-.226 1.243-.436.402-.217.74-.495 1.011-.835.279-.34.498-.786.66-1.336.166-.55.25-1.188.25-1.911 0-.6-.056-1.179-.167-1.735a6.786 6.786 0 0 0-.539-1.652 5.263 5.263 0 0 0-.946-1.4c-.377-.403-.856-.724-1.438-.965-.581-.242-1.234-.362-1.957-.362-.402 0-.7.043-.89.13-.193.08-.289.26-.289.538v9.416m-3.748 1.429-.037-.037v-.418c0-.117.05-.176.149-.176h.269c.383 0 .652-.062.807-.185.16-.13.241-.347.241-.65V6.958c0-.303-.08-.517-.241-.64-.155-.13-.424-.195-.807-.195h-.27a.142.142 0 0 1-.101-.046.152.152 0 0 1-.047-.112V5.53l.037-.037h5.622c1.262 0 2.419.288 3.47.863 1.058.575 1.887 1.354 2.487 2.338.606.977.909 2.044.909 3.2 0 .897-.14 1.698-.418 2.403-.272.7-.624 1.262-1.057 1.689a5.49 5.49 0 0 1-1.54 1.057 7.278 7.278 0 0 1-1.735.566 9.735 9.735 0 0 1-1.772.158h-5.966m18.905-1.447c0 .278.077.488.232.63.16.137.43.205.807.205h.269c.099 0 .148.058.148.176v.436l-.037.037a161.166 161.166 0 0 0-2.579-.037l-2.588.037-.037-.037v-.436c0-.118.049-.176.148-.176h.269c.383 0 .653-.062.807-.186.161-.13.241-.346.241-.65v-9.36c0-.303-.08-.517-.24-.64-.155-.13-.425-.195-.808-.195h-.269a.142.142 0 0 1-.102-.046.152.152 0 0 1-.046-.112v-.454l.037-.037c1.23.024 2.093.037 2.588.037l2.58-.037.036.037v.454c0 .105-.05.158-.148.158h-.27c-.377 0-.646.071-.806.213-.155.136-.232.344-.232.622v9.36m4.673 3.767a.996.996 0 0 0 .39-.074c.117-.043.24-.145.37-.306.136-.155.248-.368.334-.64.093-.266.167-.643.223-1.132.062-.482.093-1.051.093-1.707v-8.99c0-.439-.096-.723-.288-.853-.185-.13-.538-.21-1.057-.241l-.38-.02c-.118 0-.177-.052-.177-.157v-.454l.037-.037c1.187.024 2.063.037 2.625.037.823 0 1.828-.013 3.016-.037l.046.037v.454c0 .105-.053.158-.158.158l-.324.019c-.384.018-.65.09-.798.213-.149.124-.223.325-.223.603v8.85c0 1.139-.167 2.066-.5 2.784a4.832 4.832 0 0 1-1.402 1.8c-.37.309-.813.525-1.326.649-.508.124-.947.185-1.318.185-.37 0-.705-.034-1.002-.102a1.655 1.655 0 0 1-.76-.39.889.889 0 0 1-.325-.704c0-.254.111-.47.334-.65.216-.18.427-.269.63-.269.242 0 .452.037.631.112.186.074.319.151.4.231.086.087.182.201.287.344.142.191.35.287.622.287"/></svg>