<svg xmlns="http://www.w3.org/2000/svg" width="146" height="25" fill="none"><g clip-path="url(#a)"><path fill="#000" d="M45.92 23.52c.182.169.182.758 0 .927-1.51-.028-2.386-.056-3.897-.056-1.54 0-2.448.028-3.928.056-.181-.168-.181-.758 0-.926 2.115-.084 2.629-.224 2.629-2.553V9.718c0-2.328-.514-2.468-2.629-2.552-.181-.168-.181-.757 0-.926 1.51.028 2.387.056 3.898.056 1.54 0 2.447-.028 3.927-.056.182.168.182.758 0 .926-2.114.084-2.628.224-2.628 2.553v11.249c0 2.329.514 2.469 2.628 2.553Zm9.697 0c.182.169.182.758 0 .927-1.51-.028-2.386-.056-3.897-.056-1.54 0-2.447.028-3.928.056-.181-.168-.181-.758 0-.926 2.115-.084 2.629-.224 2.629-2.553V9.718c0-2.328-.514-2.468-2.629-2.552-.181-.168-.181-.757 0-.926 1.51.028 2.387.056 3.898.056 1.54 0 2.447-.028 3.928-.056.18.168.18.758 0 .926-2.115.084-2.63.224-2.63 2.553v4.929c1.058-.084 1.69-.497 2.297-1.086l5.076-4.937c1.453-1.498.245-1.364-.846-1.459-.181-.168-.181-.757 0-.926 1.42.028 2.205.056 3.414.056 1.208 0 1.45-.028 2.87-.056.181.168.181.758 0 .926-1.209.14-2.538.197-3.928 1.57l-4.23 4.237c-.988.99-1.118 1.178-1.118 1.374 0 .225.091.421.363.702l6.616 7.293c1.015 1.167 2.118 1.106 2.659 1.178.181.169.181.758 0 .926-1.42-.028-1.873-.056-3.052-.056-.906 0-1.42.028-2.024.056-.12 0-.151-.084-.151-.168 0-.51-.003-1.257-.604-1.936l-4.925-5.554c-.605-.721-1.402-1.035-2.417-1.063v5.243c0 2.329.514 2.469 2.63 2.553Zm20.362 0c.181.169.181.758 0 .927-1.51-.028-2.387-.056-3.898-.056-1.54 0-2.447.028-3.928.056-.181-.168-.181-.758 0-.926 2.115-.084 2.629-.224 2.629-2.553V9.718c0-2.328-.513-2.468-2.629-2.552-.181-.168-.181-.757 0-.926 1.51.028 2.387.056 3.898.056 1.541 0 2.447-.028 3.928-.056.181.168.181.758 0 .926-2.115.084-2.63.224-2.63 2.553v11.249c0 2.329.515 2.469 2.63 2.553ZM89.015 10.31c-.272.196-.635.162-.982.168-.604-1.852-1.54-3.591-4.474-3.591-1.93 0-3.309 1.43-3.309 3.142 0 2.749 4.097 3.736 5.574 4.32 2.179.864 4.143 2.21 4.143 4.881 0 2.861-2.92 5.442-6.569 5.442-2.68 0-3.522-.645-5.426-.645-.362-1.375-.484-2.104-.604-4.264.29-.143.61-.197.981-.085.665 2.791 2.484 3.983 5.306 3.983 2.41 0 3.773-1.177 3.773-3.45 0-3.22-3.07-3.748-4.973-4.516-2.341-.946-4.362-2.298-4.362-4.91 0-2.973 2.99-4.853 5.752-4.853 2.949 0 2.882.533 4.629.758.314 1.487.435 2.273.54 3.62Zm12.763 14.362c-5.197 0-9.457-3.45-9.457-8.976 0-5.499 3.867-9.763 9.275-9.763 5.288 0 9.729 3.675 9.729 9.229 0 5.611-3.776 9.51-9.547 9.51Zm-6.556-9.453c0 5.386 3.535 8.5 7.16 8.5 3.445 0 6.043-3.002 6.043-8.024 0-5.834-3.112-8.808-7.221-8.808-2.75 0-5.982 2.44-5.982 8.332Zm22.386 1.626c0 1.824.06 3.956 1.54 5.274.91.81 2.145 1.403 3.596 1.403 5.106 0 5.559-3.759 5.559-6.9V9.718c0-2.328-.514-2.356-2.78-2.552-.181-.169-.181-.758 0-.926 1.511.028 2.145.056 3.505.056 1.208 0 1.601-.028 3.082-.056.181.168.181.757 0 .926-1.813.196-2.327.224-2.327 2.552v6.396c0 4.994-1.48 8.556-7.674 8.556-2.719 0-7.07-1.178-7.07-6.9V9.718c0-2.328-.514-2.468-2.326-2.552-.182-.169-.182-.758 0-.926 1.511.028 2.205.056 3.595.056 1.602 0 2.598-.028 4.079-.056.182.168.182.757 0 .926-2.326.084-2.78.224-2.78 2.552l.001 7.125Zm27.235-6.536c-.272.197-.635.163-.982.168-.604-1.851-1.54-3.59-4.474-3.59-1.931 0-3.309 1.43-3.309 3.142 0 2.749 4.097 3.736 5.574 4.32 2.179.864 4.143 2.21 4.143 4.881 0 2.861-2.919 5.442-6.569 5.442-2.68 0-3.522-.645-5.426-.645-.362-1.375-.484-2.104-.604-4.264.29-.143.61-.197.981-.085.665 2.791 2.484 3.983 5.306 3.983 2.411 0 3.773-1.177 3.773-3.45 0-3.22-3.069-3.748-4.973-4.516-2.341-.946-4.362-2.298-4.362-4.91 0-2.973 2.991-4.853 5.752-4.853 2.949 0 2.882.533 4.629.758.314 1.487.435 2.273.541 3.62ZM38.866.601a.595.595 0 0 1-.138.379c-.08.114-.173.172-.276.172-.848.08-1.542.355-2.081.825-.54.46-1.096 1.342-1.668 2.65l-8.776 19.769c-.057.183-.218.275-.481.275a.538.538 0 0 1-.482-.275l-4.92-10.289-5.662 10.29a.54.54 0 0 1-.481.274c-.253 0-.419-.09-.5-.275L4.782 4.628C4.244 3.4 3.676 2.546 3.08 2.064c-.597-.493-1.429-.797-2.496-.911-.091 0-.177-.046-.258-.138A.55.55 0 0 1 .205.67C.205.35.297.19.48.19c.769 0 1.572.034 2.41.104.779.069 1.513.103 2.201.103.7 0 1.526-.034 2.478-.103a38.73 38.73 0 0 1 2.65-.104c.183 0 .275.16.275.482 0 .32-.058.482-.173.482-.768.057-1.376.252-1.824.584-.435.333-.653.77-.653 1.308 0 .275.091.62.275 1.032l7.123 16.087 4.043-7.639-3.768-7.897c-.677-1.411-1.233-2.317-1.669-2.719-.436-.413-1.095-.665-1.978-.757-.08 0-.16-.046-.241-.138a.607.607 0 0 1-.103-.343c0-.322.08-.482.24-.482.769 0 1.474.034 2.117.103.619.07 1.279.103 1.978.103.688 0 1.416-.034 2.185-.103.791-.069 1.571-.103 2.34-.103.183 0 .275.16.275.482 0 .32-.057.482-.172.482-1.537.102-2.305.538-2.305 1.307 0 .344.177.877.533 1.6l2.495 5.058 2.477-4.628c.344-.654.517-1.204.517-1.651 0-1.055-.769-1.618-2.306-1.686-.137 0-.206-.161-.206-.482a.58.58 0 0 1 .103-.327c.069-.103.137-.155.206-.155.551 0 1.227.035 2.03.104.77.069 1.4.103 1.893.103.356 0 .878-.028 1.566-.086.872-.08 1.6-.12 2.185-.12.137 0 .206.138.206.412 0 .368-.126.551-.378.551-.895.092-1.617.338-2.168.74-.54.402-1.216 1.313-2.03 2.736l-3.303 6.107 4.473 9.119L33.083 4.49c.23-.562.344-1.078.344-1.549 0-1.124-.768-1.72-2.305-1.789-.137 0-.206-.16-.206-.481 0-.322.103-.483.31-.483.562 0 1.227.035 1.996.104.71.069 1.307.103 1.789.103.504 0 1.09-.034 1.754-.103.689-.07 1.308-.104 1.858-.104.162 0 .242.137.242.412Z"/></g><defs><clipPath id="a"><path fill="#fff" d="M0 0h146v25H0z"/></clipPath></defs></svg>