<svg xmlns="http://www.w3.org/2000/svg" width="120" height="12"><path fill="#000" fill-rule="nonzero" d="M.014 8.274a.57.57 0 0 1 .007-.278c.011-.018.117-.041.234-.052.463-.042.666-.155.759-.422.048-.14.052-.32.052-3.048 0-2.659-.005-2.914-.05-3.058C.932 1.139.76 1.036.3.988a1.135 1.135 0 0 1-.28-.051C.008.924 0 .85.006.774l.008-.14L1.561.629c1.22-.006 1.553 0 1.57.028.03.046.03.225.001.27-.012.02-.134.048-.277.063-.447.048-.576.112-.689.343l-.077.156-.008 2.966c-.007 2.863-.005 2.97.047 3.088.03.068.102.16.162.205l.108.082h.954c.853 0 .971-.006 1.105-.052.192-.067.413-.234.54-.408.135-.186.33-.602.409-.87.058-.2.07-.22.137-.22.106 0 .285.056.285.088 0 .125-.259 1.773-.299 1.903-.011.037-.343.043-2.757.043-2.259 0-2.746-.008-2.758-.038Zm8.436.107a2.076 2.076 0 0 1-1.23-.62c-.383-.388-.581-.839-.655-1.495-.06-.534.05-1.232.27-1.706a2.686 2.686 0 0 1 1.442-1.33c.232-.09.25-.092.68-.091.502 0 .703.04 1.05.204.511.242.852.847.9 1.596.017.248.013.28-.04.345l-.058.071-1.651-.01c-.92-.006-1.652 0-1.652.014.002.18.07.732.114.915.161.679.539 1.2 1.047 1.448.207.1.235.106.549.116.557.018.872-.091 1.297-.45.224-.188.281-.2.366-.07.043.066.04.074-.085.22a2.607 2.607 0 0 1-1.27.8c-.222.057-.825.081-1.074.043Zm.927-3.455c.58-.022.569-.014.52-.423-.04-.349-.122-.562-.275-.726a.997.997 0 0 0-.91-.286c-.239.053-.59.24-.71.38-.17.193-.44.833-.44 1.043 0 .037.088.042.676.036.372-.004.884-.014 1.139-.024ZM14.5 8.264c-.029-.054-.032-.15-.008-.24.014-.053.044-.063.234-.08.323-.029.537-.095.642-.2.18-.18.171-.033.18-3.21.01-3.114.01-3.114-.134-3.315-.082-.116-.298-.196-.615-.229a1.699 1.699 0 0 1-.294-.045c-.02-.02-.021-.286 0-.307.008-.009 1.182-.02 2.608-.023l2.592-.009.027.128c.014.07.074.452.133.848.078.53.098.727.075.75a.45.45 0 0 1-.187.045l-.154.013-.02-.096a3.014 3.014 0 0 0-.331-.75.917.917 0 0 0-.536-.405c-.133-.042-.285-.05-1.015-.05-.828 0-.86.003-.938.06a.632.632 0 0 0-.137.157c-.055.092-.058.156-.065 1.398l-.009 1.3h.806c.636 0 .841-.009.975-.044.28-.073.376-.208.409-.58.015-.167.024-.187.09-.21a.397.397 0 0 1 .173-.008l.099.019-.002 1.044-.003 1.045-.1.024a.317.317 0 0 1-.177-.006c-.069-.027-.078-.045-.078-.158 0-.185-.1-.429-.21-.513-.174-.133-.365-.16-1.206-.178l-.775-.015.008 1.56c.009 1.735.003 1.683.201 1.804.086.052.15.055 1.087.055 1.085 0 1.193-.011 1.472-.163.309-.168.662-.688.819-1.204l.06-.196h.106c.06 0 .146.013.193.03l.086.03-.055.304a27.743 27.743 0 0 1-.329 1.463l-.05.193-2.81.006c-2.61.006-2.813.003-2.837-.042Zm6.74.021c-.031-.032-.035-.242-.004-.29.011-.018.114-.046.229-.062.275-.038.46-.13.524-.263.1-.204.109-.389.1-1.993-.008-1.507-.01-1.578-.065-1.687-.071-.142-.244-.234-.49-.26-.098-.01-.191-.034-.208-.054-.017-.02-.026-.091-.021-.158l.008-.121.427-.066a9.18 9.18 0 0 0 .768-.155c.187-.049.386-.09.44-.092.096-.003.1 0 .096.096l-.026.519c-.018.355-.015.42.019.42.022 0 .143-.104.267-.23.55-.555 1.055-.794 1.677-.794.65 0 1.043.267 1.21.824.094.319.113.63.113 1.938 0 1.32.02 1.631.115 1.818.066.13.233.217.501.258.107.017.203.045.215.063.028.043.026.222-.003.268-.018.029-.283.038-1.251.042-1.226.007-1.23.007-1.244-.053a.678.678 0 0 1-.006-.17l.01-.112.212-.044c.239-.05.3-.077.388-.174.135-.148.138-.198.138-1.787 0-1.338-.005-1.509-.049-1.652a.913.913 0 0 0-.39-.53c-.136-.081-.18-.092-.357-.092-.364 0-.712.147-1.118.472-.252.202-.379.36-.428.538-.04.144-.042 2.422-.002 2.697.015.108.047.237.071.287.056.118.223.21.445.246.098.015.188.043.2.062a.429.429 0 0 1-.002.27c-.019.029-.284.038-1.252.042-.747.004-1.24-.005-1.256-.02Zm8.499.098c-.42-.066-.723-.182-1.003-.382-.65-.464-.981-1.255-.946-2.262.018-.497.1-.851.286-1.237.305-.63.93-1.161 1.583-1.342.286-.079.985-.07 1.307.016.637.17 1.028.547 1.032.994a.603.603 0 0 1-.046.252c-.095.184-.352.311-.576.286-.242-.027-.33-.14-.383-.48-.038-.256-.15-.515-.26-.608-.131-.11-.362-.164-.648-.15-.208.01-.279.026-.434.103-.36.177-.636.568-.782 1.112-.068.252-.074.317-.074.87 0 .553.006.616.075.872.173.643.505 1.085.984 1.31.147.07.23.088.44.1.508.026.887-.127 1.295-.523.19-.185.258-.234.302-.22.08.024.128.067.128.114 0 .08-.24.397-.48.636a1.785 1.785 0 0 1-.842.498c-.202.054-.73.077-.958.041Zm3.721 2.634c-.332-.124-.4-.45-.151-.724.104-.115.211-.153.4-.144.403.02.52.008.65-.068a.687.687 0 0 0 .194-.182c.091-.141.302-.603.44-.961.096-.252.108-.312.106-.526a1.616 1.616 0 0 0-.075-.486c-.082-.272-1.534-3.669-1.683-3.936-.156-.28-.3-.384-.592-.427-.112-.017-.142-.034-.166-.095a.301.301 0 0 1-.005-.17l.024-.095 1.158-.005c1.272-.005 1.188-.017 1.187.176 0 .144-.022.166-.184.19a1.237 1.237 0 0 0-.262.071c-.135.059-.169.133-.137.305.02.109 1.186 2.869 1.26 2.985.065.102.166.084.23-.042.165-.326 1.235-2.847 1.248-2.941.028-.21-.08-.3-.447-.373-.167-.033-.185-.044-.205-.122a.392.392 0 0 1 0-.168l.022-.083.972-.001c1.066-.001 1.002-.013 1 .179 0 .135-.02.164-.141.189-.28.06-.592.296-.776.59-.207.329-.91 1.92-2.024 4.584-.496 1.185-.714 1.598-1.023 1.942-.26.288-.733.445-1.02.337Zm7.502-2.635c-1.085-.168-1.766-.918-1.922-2.117a3.5 3.5 0 0 1 .19-1.57c.228-.578.696-1.09 1.25-1.367.36-.18.548-.22 1.05-.217.508.003.76.052 1.086.212.483.236.752.736.582 1.084-.16.329-.695.418-.873.146a1.22 1.22 0 0 1-.09-.318c-.103-.601-.333-.794-.919-.766-.208.01-.278.027-.435.104-.626.309-.977 1.317-.843 2.423.074.602.254 1.035.573 1.378.318.34.607.47 1.045.469.445-.001.846-.19 1.227-.577.204-.207.249-.22.352-.106.047.051.045.06-.051.205-.466.7-.987 1.012-1.725 1.034a3.602 3.602 0 0 1-.497-.017Zm2.896-.14a.318.318 0 0 1-.004-.171l.024-.1.24-.034c.282-.04.368-.072.467-.175.164-.172.162-.124.154-3.576C44.73.621 44.745.855 44.514.74a1.007 1.007 0 0 0-.336-.082c-.226-.02-.257-.05-.257-.246V.32l.303-.036a9.47 9.47 0 0 0 1.201-.232c.255-.076.298-.05.275.166-.034.324-.052 6.688-.02 7.01.055.539.144.64.622.708l.249.036.01.11a.678.678 0 0 1-.007.17c-.015.06-.018.06-1.342.06h-1.326l-.028-.07Zm5.48.13c-.434-.072-.71-.175-1.011-.374-.453-.3-.846-.893-1-1.51-.085-.344-.086-.957 0-1.334.192-.847.65-1.484 1.297-1.801.387-.19.64-.243 1.154-.24.381.002.48.012.722.076.68.18 1.08.501 1.41 1.13.417.798.455 1.772.101 2.591-.2.464-.534.886-.876 1.107-.464.3-1.227.45-1.797.355Zm1.128-.437c.39-.192.598-.49.713-1.022.05-.23.06-.378.06-.847.002-.792-.08-1.255-.306-1.736-.282-.596-.738-.89-1.336-.86-.345.018-.537.094-.76.3a1.175 1.175 0 0 0-.295.417c-.311.643-.375 1.48-.175 2.266.133.522.285.817.591 1.146.302.325.602.447 1.065.434.225-.006.283-.02.443-.098Zm2.37 3.098a.565.565 0 0 1 .007-.278c.011-.017.104-.04.205-.05.4-.04.54-.126.619-.383.046-.15.05-.383.05-3.161 0-3.218.003-3.13-.144-3.278-.078-.078-.343-.163-.506-.163-.118 0-.132-.02-.14-.2l-.007-.122.331-.049c.418-.062.855-.155 1.066-.227.179-.062.314-.072.33-.026.005.017 0 .129-.01.25-.012.12-.022.304-.023.41-.002.183.001.192.065.192a.191.191 0 0 0 .12-.061c.127-.142.578-.461.819-.58.355-.174.567-.224.872-.204 1.228.079 2.115 1.331 1.963 2.773-.13 1.247-.85 2.165-1.921 2.454-.182.049-.314.062-.654.064-.448.003-.717-.038-1.021-.158-.077-.03-.158-.047-.18-.039-.034.013-.039.174-.03 1.018.012 1.096.027 1.205.185 1.33.099.077.309.136.571.159.12.01.228.033.24.05.029.044.026.223-.004.27-.037.058-2.782.066-2.804.009Zm3.394-3.065c.249-.056.544-.217.696-.38.358-.382.592-1.206.546-1.92-.051-.783-.247-1.318-.622-1.695-.315-.317-.69-.428-1.064-.314-.377.114-1.003.608-1.103.868-.039.102-.043.3-.036 1.51l.008 1.394.069.12c.147.258.404.396.883.474.108.018.42-.01.623-.057Zm5.107.415a2.239 2.239 0 0 1-1.064-.437c-.36-.27-.649-.733-.783-1.255-.092-.356-.094-1.119-.003-1.508.172-.742.54-1.293 1.12-1.68.452-.3.782-.393 1.304-.371.817.035 1.304.29 1.584.832.168.323.238.575.257.911.019.353.004.423-.099.459-.048.016-.705.021-1.682.013l-1.604-.014.019.285c.053.808.281 1.379.724 1.806.14.135.265.223.422.298.203.096.249.107.511.117.561.02.959-.114 1.325-.45.103-.094.205-.171.226-.171.068 0 .166.086.166.146 0 .032-.08.14-.178.244-.357.373-.742.61-1.173.72-.26.067-.819.095-1.072.055Zm.45-3.45c.57-.008.875-.023.916-.045.054-.028.061-.057.06-.224 0-.399-.129-.768-.329-.943a1.054 1.054 0 0 0-.878-.23c-.235.054-.538.22-.684.375-.18.194-.36.602-.45 1.023l-.017.074.263-.01c.144-.005.647-.015 1.118-.021Zm6.786 3.485c-.04-.026-.114-.296-.137-.501-.026-.226-.04-.273-.081-.273-.021 0-.174.101-.34.225-.586.44-.99.583-1.466.522-.492-.062-.81-.219-1.134-.56-.71-.746-.873-2.269-.355-3.3.268-.533.636-.914 1.133-1.173.37-.192.61-.247 1.078-.248.372-.001.42.005.717.094.176.053.34.088.364.079.04-.016.045-.135.037-1.134-.008-1.025-.013-1.126-.063-1.24-.067-.155-.212-.227-.503-.252C67.6.64 67.57.607 67.57.41V.316l.189-.018a9.51 9.51 0 0 0 1.2-.218c.423-.11.407-.129.38.406-.01.238-.02 1.815-.02 3.504 0 2.429.007 3.096.036 3.192.078.255.28.385.696.446.132.019.192.07.192.165 0 .098-.077.142-.315.18-.442.07-.88.222-1.109.384-.09.063-.2.09-.246.061Zm-1.047-.656c.345-.161.762-.488.83-.65.03-.073.038-.38.038-1.479V4.246l-.066-.142c-.082-.176-.332-.41-.546-.511-.336-.16-.839-.147-1.198.029-.171.083-.442.363-.556.573-.281.516-.358 1.662-.163 2.44.146.584.515 1.065.92 1.198.2.065.515.035.741-.07Zm3.13.536a.433.433 0 0 1-.018-.262c.024-.065.051-.076.262-.106.248-.037.402-.098.49-.197.12-.132.131-.3.132-1.995V4.13l-.064-.127c-.08-.157-.255-.253-.506-.276-.153-.013-.177-.024-.201-.088a.413.413 0 0 1-.02-.157l.01-.085.426-.066a9.18 9.18 0 0 0 .768-.155c.187-.049.385-.09.438-.093l.098-.003-.006 2.133c-.007 2.34-.004 2.382.155 2.548.087.091.263.152.532.182.144.016.168.028.193.093a.327.327 0 0 1 .006.17l-.023.095-1.332.006c-.733.003-1.336 0-1.34-.008v-.001Zm1.04-6.62c-.257-.172-.365-.483-.248-.71.094-.182.351-.347.54-.347.205 0 .404.14.504.355.097.209.067.387-.093.57-.193.22-.49.275-.703.132Zm3.318 6.692a1.659 1.659 0 0 1-.664-.31c-.342-.292-.46-.966-.25-1.412.206-.437.649-.793 1.304-1.05.156-.061.578-.183.938-.272.36-.088.663-.175.674-.194.066-.103-.015-.827-.124-1.113a.968.968 0 0 0-.452-.492c-.106-.051-.18-.063-.399-.062-.454 0-.826.126-.922.312-.048.094-.055.353-.013.535.056.241-.132.448-.434.48-.294.03-.449-.107-.448-.395 0-.276.18-.572.491-.807.673-.51 1.664-.646 2.34-.324.366.175.577.4.712.76.15.394.158.49.18 2.012.015 1.004.032 1.454.057 1.533a.44.44 0 0 0 .716.202l.09-.075.066.063c.1.093.084.148-.082.296-.501.447-1.231.462-1.557.03a1.5 1.5 0 0 1-.155-.252c-.024-.058-.057-.106-.072-.106-.016 0-.13.08-.254.178-.286.226-.507.36-.71.428-.211.072-.766.091-1.032.035Zm1.016-.457c.304-.08.88-.444.967-.612.034-.066.042-.241.042-.937 0-.802-.004-.855-.05-.842l-.548.147c-.599.16-.908.296-1.119.495-.382.362-.488.96-.245 1.386.123.216.28.322.554.378a.664.664 0 0 0 .4-.015Zm8.306.47a2.655 2.655 0 0 1-.81-.276c-.28-.161-.644-.54-.789-.82a3.005 3.005 0 0 1-.296-1.646c.083-.814.336-1.38.82-1.837.265-.251.567-.446.875-.566.255-.1.26-.1.697-.1.496.001.695.04 1.046.2.297.136.503.35.669.696.153.32.214.554.237.913.016.24.012.273-.04.337l-.058.071-1.654-.01-1.655-.01.016.152c.009.084.024.247.033.364.07.843.507 1.574 1.12 1.871.204.1.233.106.546.116.557.018.872-.091 1.298-.45.223-.188.28-.2.365-.07.043.066.04.074-.084.22a2.607 2.607 0 0 1-1.27.8c-.22.057-.825.082-1.066.044Zm.918-3.457c.58-.022.57-.014.52-.423-.04-.349-.121-.562-.275-.726a.933.933 0 0 0-.567-.29c-.237-.04-.418-.002-.724.151-.27.135-.388.262-.54.58-.1.208-.228.6-.228.698 0 .035.104.04.675.034.372-.004.884-.014 1.14-.024Zm5.12 3.32a.277.277 0 0 1 .004-.231c.021-.04.076-.057.234-.071.259-.024.494-.089.6-.165.122-.086.186-.262.22-.596.02-.19.026-1.237.02-2.938-.009-2.468-.013-2.654-.061-2.8a1.106 1.106 0 0 0-.105-.23c-.08-.112-.3-.193-.613-.225a1.699 1.699 0 0 1-.293-.045c-.02-.02-.021-.286 0-.307C90.388.63 91.56.621 92.98.62l2.587-.003.119.762c.066.42.12.803.12.853.002.084-.005.09-.119.108-.066.01-.14.024-.163.03-.031.01-.057-.035-.095-.165-.079-.27-.293-.686-.421-.818a1.048 1.048 0 0 0-.593-.281c-.102-.017-.518-.03-.925-.03-.712 0-.746.002-.868.063-.094.048-.135.09-.16.164-.025.071-.035.47-.036 1.4l-.002 1.301h.82c.647 0 .853-.009.987-.044.281-.073.376-.208.41-.58.014-.167.023-.188.09-.21a.39.39 0 0 1 .17-.008l.099.018L95 4.225l-.001 1.045-.1.024a.312.312 0 0 1-.173-.005c-.066-.026-.076-.049-.09-.201-.019-.206-.11-.408-.22-.486-.167-.12-.369-.147-1.203-.163l-.791-.016.01 1.475c.008 1.04.021 1.506.045 1.579.098.296.265.402.716.458l.299.036.009.111a.678.678 0 0 1-.006.17c-.015.06-.016.06-1.555.06H90.4l-.025-.066Zm7.177.146c-.3-.04-.67-.208-.839-.382-.264-.272-.38-.78-.267-1.164.11-.368.342-.66.733-.921.405-.27.73-.39 1.69-.627.488-.12.553-.143.575-.202.032-.084-.016-.647-.075-.874-.066-.255-.145-.401-.286-.532-.217-.2-.334-.235-.718-.218-.484.02-.73.12-.847.345-.043.082-.042.193.007.529.015.106.007.144-.048.226-.186.273-.635.303-.793.053-.047-.075-.057-.127-.047-.251.04-.488.562-.966 1.29-1.183.34-.1.846-.125 1.157-.056.488.109.856.38 1.04.766.201.422.205.46.229 2.065.021 1.445.028 1.54.132 1.741.055.109.194.173.373.173.128 0 .168-.015.268-.095l.117-.094.053.065c.082.102.064.156-.104.31-.357.326-.844.425-1.245.254-.162-.07-.363-.282-.437-.463-.029-.07-.063-.128-.076-.128-.013 0-.152.097-.308.214-.342.257-.565.374-.817.428a2.983 2.983 0 0 1-.757.02Zm1.023-.514c.332-.129.805-.477.86-.633.031-.094.055-1.734.024-1.734-.045 0-1.085.292-1.219.342-.37.139-.661.41-.794.739-.05.126-.063.214-.064.455 0 .331.043.458.223.65.226.24.627.314.97.181Zm3.165.38c-.025-.046-.017-.26.01-.287.006-.005.111-.023.234-.04.286-.04.456-.115.527-.233.107-.176.12-.397.11-2.03-.008-1.498-.01-1.569-.065-1.678-.07-.142-.243-.234-.49-.26-.098-.01-.191-.034-.208-.054-.016-.02-.026-.091-.021-.158l.009-.121.426-.066c.235-.035.58-.106.768-.155.188-.05.386-.092.44-.093l.1-.002-.005.156c-.003.086-.014.982-.025 1.99-.02 1.932-.01 2.186.1 2.435.07.157.197.22.544.273l.24.037.009.11a.68.68 0 0 1-.006.171c-.015.06-.019.06-1.341.06-1.273 0-1.328-.002-1.356-.054Zm1.087-6.55a.775.775 0 0 1-.315-.412c-.044-.161.003-.306.148-.463.213-.231.518-.276.73-.108.151.12.269.36.252.515-.038.368-.507.636-.815.467Zm2.155 6.533a.321.321 0 0 1-.005-.17c.024-.099.027-.1.234-.135.296-.049.401-.109.487-.28l.071-.14.008-1.94.008-1.94-.434-.008-.435-.008.002-.14c.002-.114.016-.15.08-.205.073-.063.101-.067.427-.067h.35l.019-.434c.022-.501.053-.742.134-1.06.121-.47.308-.808.613-1.11.455-.45.954-.64 1.574-.599.45.03.734.136.964.36.158.153.27.392.244.518-.054.262-.342.47-.578.417-.137-.03-.25-.151-.362-.387-.183-.387-.36-.52-.703-.529-.178-.005-.222.005-.338.073-.45.265-.62.858-.62 2.166v.584l.675.008.675.008v.17c0 .24-.004.241-.747.242h-.605l.008 1.927c.008 1.911.008 1.927.07 2.06.095.205.223.265.705.327.159.021.17.028.186.108a.461.461 0 0 1-.005.17l-.022.086h-2.653l-.028-.071Zm7.788.158c-.043-.043-.113-.32-.148-.59-.028-.216-.04-.214-.42.073-.493.371-.99.555-1.406.52-.723-.062-1.08-.328-1.307-.974l-.079-.225-.014-1.592c-.014-1.449-.02-1.603-.066-1.705a.824.824 0 0 0-.1-.168c-.069-.078-.25-.153-.427-.176-.128-.017-.156-.032-.18-.095a.317.317 0 0 1-.006-.173l.024-.1h.846c.657 0 .849.008.86.036.007.02 0 .353-.017.74a43.651 43.651 0 0 0-.018 1.854c.014 1.208.024 1.31.156 1.589.178.375.677.552 1.132.401.218-.072.63-.338.835-.537.112-.11.143-.161.158-.261.01-.07.014-.765.008-1.547-.009-1.27-.015-1.435-.06-1.548a.77.77 0 0 0-.098-.182c-.07-.079-.25-.154-.427-.177-.16-.022-.205-.064-.205-.197 0-.182-.03-.177.885-.167.457.005.84.019.852.03.012.013.01.26-.006.548a50.556 50.556 0 0 0-.019 1.949l.009 1.423.072.141a.414.414 0 0 0 .228.22c.085.042.243.09.351.107.108.017.208.037.22.045.014.008.024.065.024.126 0 .131-.033.155-.256.18-.354.04-.873.21-1.103.363-.16.107-.242.126-.298.07Zm3.301-.03a1.624 1.624 0 0 1-.664-.309c-.304-.26-.436-.828-.297-1.273.154-.494.637-.915 1.381-1.201.142-.055.55-.172.91-.26.358-.087.662-.174.675-.193.04-.058-.002-.674-.064-.913-.07-.268-.162-.436-.307-.555-.197-.164-.31-.2-.606-.2-.452 0-.794.113-.91.3-.063.103-.074.339-.024.537.04.16-.023.303-.182.408-.092.061-.147.075-.29.076-.298 0-.412-.107-.412-.39 0-.66.989-1.3 2.004-1.3.784 0 1.351.358 1.565.989.132.39.156.693.157 1.985 0 1.465.026 1.641.248 1.755.191.098.365.08.523-.053l.088-.074.068.063c.037.035.067.086.067.113 0 .074-.273.304-.476.401a1.125 1.125 0 0 1-.765.098 1.18 1.18 0 0 1-.297-.116c-.114-.076-.339-.39-.339-.474 0-.03-.016-.054-.035-.053-.02 0-.164.096-.32.214-.49.369-.769.47-1.28.465a2.704 2.704 0 0 1-.418-.04Zm1.01-.455c.09-.023.236-.08.326-.125.235-.119.598-.392.647-.487.034-.067.042-.237.042-.938 0-.802-.003-.855-.05-.841-.027.008-.245.067-.484.13-.24.064-.495.136-.569.161-.64.216-.977.64-.982 1.233-.002.203.009.267.072.402.094.205.271.378.444.433.252.082.344.087.554.032Z"/></svg>