<?xml version="1.0" encoding="UTF-8"?>
<svg width="120px" height="12px" viewBox="0 0 120 12" version="1.1" xmlns="http://www.w3.org/2000/svg" xmlns:xlink="http://www.w3.org/1999/xlink">
    <title>na-tagline</title>
    <g id="Page-1" stroke="none" stroke-width="1" fill="none" fill-rule="evenodd">
        <path d="M0.00967750141,8.37744594 C0.00210066884,8.35504111 -0.00046636204,8.27886468 0.00397972332,8.20839862 L0.0120616781,8.08018553 L0.26888751,8.04387822 C0.678993979,7.98585545 0.830845322,7.86636302 0.905540768,7.54292917 C0.948124588,7.35853166 0.970658088,2.27646103 0.931085807,1.78134873 C0.88901115,1.25491563 0.803729454,1.11590227 0.467641467,1.02592676 C0.387543234,1.0044411 0.256418974,0.986747031 0.176255075,0.986517238 C0.0674355951,0.986172548 0.0265297914,0.974338201 0.0148246963,0.939639437 C-0.00683898336,0.875412254 -0.00415173341,0.683994568 0.0189161859,0.648284714 C0.0313038021,0.629096986 0.78666572,0.618871192 2.19460245,0.618871192 C3.38079297,0.618871192 4.39743418,0.611977397 4.4538048,0.604394224 L4.55629813,0.589917256 L4.59931434,0.883489483 C4.68883209,1.49448646 4.7868561,2.33654045 4.77061238,2.35501582 C4.74610385,2.38293568 4.54120609,2.42200052 4.50422408,2.405915 C4.4869388,2.39787224 4.43584064,2.27081961 4.39068069,2.12246516 C4.168236,1.39179191 3.94665507,1.16076938 3.40960109,1.09957546 C3.26329751,1.08291546 2.9018432,1.07372373 2.60636895,1.07912387 C1.99503676,1.09061353 1.97377617,1.09785201 1.86528835,1.33927269 C1.80760744,1.46765812 1.80717304,1.4783435 1.80717304,2.7696086 L1.80717304,4.07059396 L2.43352321,4.07036417 C3.33957904,4.07004246 3.5260459,4.02440554 3.63431277,3.77655066 C3.66613547,3.70370623 3.69949374,3.55828164 3.7084344,3.45341554 C3.72653798,3.24125902 3.76146213,3.18906151 3.88487257,3.18976238 C4.03494436,3.19062411 4.02968604,3.14839962 4.0223254,4.29287286 L4.01555676,5.34843915 L3.9280393,5.35763087 C3.75298012,5.37658881 3.72725323,5.35303501 3.71171871,5.15807851 C3.69490824,4.94722032 3.61192677,4.73880943 3.51284504,4.65856567 C3.36224993,4.53661445 3.18137882,4.51092358 2.47331371,4.51092358 L1.8071892,4.51092358 L1.8071892,6.05407643 C1.8071892,7.74399817 1.8051283,7.71962861 1.96063289,7.86844264 L2.04361436,7.94783617 L2.92627191,7.94749148 C3.88420682,7.94711233 3.96068029,7.93715079 4.20973785,7.78314343 C4.48544262,7.61248755 4.76453071,7.14859265 4.9191981,6.60390248 C4.98686427,6.36560699 4.98943029,6.36155114 5.07262492,6.36155114 C5.11915678,6.36155114 5.19413307,6.37614301 5.23922937,6.39406687 C5.31606855,6.42451446 5.32019035,6.4332466 5.30484474,6.53359727 C5.26065665,6.82229788 5.07806913,7.79393222 5.01424593,8.08002468 L4.9421549,8.40315979 L2.48281708,8.41120255 C0.402122879,8.41809635 0.0213555219,8.41235152 0.00969427147,8.37788255 L0.00969427147,8.37788255 L0.00967750141,8.37744594 Z M5.8752196,8.32987876 C5.86582433,8.28139241 5.86562228,8.20322827 5.87473469,8.15613217 C5.88973681,8.07846209 5.90367819,8.06869588 6.02530251,8.05134649 C6.42972454,7.99355352 6.55961064,7.88150638 6.61060071,7.54660586 C6.63239168,7.4034792 6.63874611,6.88165345 6.63271496,5.73013704 C6.62513812,4.27666096 6.61985454,4.10532719 6.5803742,4.02337147 C6.51679952,3.8913668 6.42502993,3.83506748 6.18831756,3.78285848 C6.07293553,3.75735144 5.96999366,3.72242288 5.95955682,3.7051884 C5.949121,3.68795391 5.94040259,3.62005004 5.94018033,3.55426026 L5.93978533,3.43471038 L6.17870206,3.39897755 C6.50129328,3.35072099 7.01491868,3.22927531 7.19530488,3.15869435 C7.36629984,3.09182454 7.45293941,3.08562013 7.47094095,3.13893214 C7.47801266,3.15972842 7.47407271,3.28203582 7.46215183,3.41065104 C7.43396601,3.71664358 7.43206675,4.18794932 7.45902007,4.18794932 C7.47067829,4.18794932 7.60143321,4.05211859 7.74959564,3.88609305 C8.26393528,3.30977185 8.65949241,3.10838114 9.21970018,3.13763381 C9.8659545,3.1714134 10.1573403,3.48385164 10.2813599,4.27607499 C10.2999282,4.39470569 10.3173751,5.06219732 10.3274169,6.03861135 C10.3433788,7.59076061 10.3442981,7.61185562 10.4017002,7.74433137 C10.4742458,7.91175865 10.5940235,7.99248498 10.8348041,8.0362376 C10.9332726,8.05416146 11.0229742,8.08449416 11.0341324,8.10391168 C11.0452956,8.1232143 11.0513974,8.19847155 11.0476898,8.27120108 L11.0409212,8.40338959 L9.95262336,8.41143235 L8.86432653,8.41947511 L8.85252687,8.32801744 C8.82591704,8.12183554 8.88689538,8.03694995 9.06162422,8.03694995 C9.10052872,8.03694995 9.19166691,8.00340016 9.26415497,7.96226718 C9.51105566,7.82233465 9.52890971,7.69365049 9.52890971,6.0541109 C9.52890971,4.41493898 9.50616911,4.24471971 9.24813755,3.95227347 C9.05974314,3.73874968 8.93124309,3.69268765 8.66691367,3.74390854 C8.46867746,3.78228399 8.23395931,3.89480221 8.03884476,4.0448916 C7.8234546,4.21057245 7.59430189,4.45440595 7.52134608,4.59555639 L7.4507098,4.73221437 L7.44272887,5.99536428 C7.43261632,7.60424947 7.45472047,7.81336123 7.64910563,7.94780171 C7.69294013,7.9781344 7.80551772,8.01811841 7.89927748,8.03673165 C8.08598175,8.07372835 8.10832229,8.09463952 8.10891026,8.23289457 C8.10975785,8.43229756 8.19075015,8.41888913 6.98503868,8.41888913 L5.89212806,8.41888913 L5.87510545,8.33076346 L5.8752196,8.32987876 Z M12.7517528,8.50467091 C12.4867405,8.43056263 12.3020789,8.23142389 12.2095436,7.91984737 C12.1532022,7.73014164 12.1523637,7.70184262 12.1444333,5.70898458 L12.1363514,3.69027482 L11.8081937,3.68223206 L11.480036,3.6741893 L11.4810463,3.52176751 C11.4826627,3.27498117 11.519779,3.24824474 11.8604193,3.24824474 L12.1424027,3.24824474 L12.1363413,2.52429294 L12.1302798,1.80035262 L12.1925715,1.75129179 C12.3108893,1.65811067 12.8535491,1.39148169 12.9028187,1.40237388 C12.9505022,1.41271458 12.9518762,1.44557499 12.941996,2.33078413 L12.9317521,3.24826771 L13.5954048,3.24826771 L14.2590566,3.24826771 L14.2513787,3.43112561 C14.2405186,3.68930969 14.244408,3.68794242 13.5269376,3.68847095 L12.9393309,3.68889606 L12.9393309,5.43846061 C12.9393309,6.56175842 12.9494839,7.26363859 12.9677087,7.39927399 C13.0001275,7.64061423 13.072561,7.81015561 13.1633547,7.85720576 C13.3183655,7.93751846 13.6804775,7.85950369 13.9679062,7.68263191 C14.0720492,7.61874942 14.1719967,7.56647148 14.1900134,7.56647148 C14.2329892,7.56647148 14.3082625,7.66218032 14.3082625,7.71689407 C14.3082625,7.80846663 13.9380302,8.15759135 13.6904244,8.29959202 C13.3870824,8.47355692 12.9675562,8.56537077 12.751673,8.50502709 L12.7517528,8.50467091 Z M16.1077977,8.50548668 C15.9798553,8.4914693 15.7648308,8.45205977 15.6299642,8.4178206 C15.4526623,8.37278114 15.344351,8.3608319 15.2388734,8.37461948 L15.0929951,8.39369232 L15.0771646,8.07537137 C15.0684765,7.90029197 15.0491808,7.5335651 15.0343302,7.26042148 C15.0040835,6.70431059 15.0030935,6.70811367 15.1754947,6.72123486 C15.2948439,6.73042658 15.2975817,6.73525224 15.3846244,7.09609641 C15.4739603,7.46645401 15.5508277,7.65080556 15.6848942,7.81622215 C15.8856015,8.06387022 16.1835993,8.17669865 16.5530295,8.14491826 C16.8125684,8.12262833 17.094177,7.97152785 17.207285,7.79394371 C17.3569173,7.55901469 17.3978039,7.2385222 17.3135182,6.96121932 C17.2273141,6.67760863 17.0435516,6.49863424 16.5857978,6.25249132 C15.9327274,5.90130995 15.7660633,5.80080992 15.6236189,5.67228662 C15.3405434,5.41687154 15.2016257,5.12036945 15.1695868,4.7031915 C15.1325613,4.22111996 15.2313632,3.90537269 15.5130032,3.60573392 C15.9658169,3.12398409 16.5003645,3.0292174 17.5140366,3.25096778 L17.9615142,3.34885966 L17.9447846,3.58478828 C17.9355913,3.71455247 17.9208519,3.9925677 17.9120425,4.20259863 C17.9032534,4.41264105 17.884574,4.60101398 17.8705619,4.6212013 C17.8374966,4.66888338 17.6324665,4.66888338 17.6011439,4.6212013 C17.5878693,4.60097951 17.5615625,4.51181977 17.5426911,4.42292429 C17.4526582,3.99912829 17.2902543,3.75554756 16.9930142,3.59850693 C16.8303345,3.5125643 16.7791182,3.49946609 16.6083697,3.50061505 C16.0466728,3.50406195 15.7384392,4.02936907 15.9275792,4.66067976 C16.0043375,4.91689912 16.290562,5.1478642 16.8181096,5.37928887 C17.7182464,5.77415392 18.1120699,6.26245285 18.1137379,6.98570378 C18.1151461,7.58276381 17.8730239,8.02210532 17.4054202,8.27120108 C16.9940406,8.49033182 16.607706,8.56009702 16.1078047,8.50549817 L16.1078047,8.50549817 L16.1077977,8.50548668 Z M18.7711968,8.37183899 C18.7495472,8.30761181 18.7520425,8.14637745 18.7753388,8.10473893 C18.7858655,8.08589589 18.8794838,8.05717175 18.9833905,8.04074154 C19.2313792,8.00167671 19.400781,7.90562317 19.4579437,7.77172271 C19.4820784,7.7151936 19.5139617,7.58298212 19.528782,7.47796665 C19.5641709,7.22720488 19.5652417,4.42758909 19.5299943,4.21395041 C19.4837958,3.9335798 19.365082,3.82597916 19.0385519,3.76849641 L18.858689,3.73678495 L18.858689,3.58606363 L18.858689,3.43533082 L19.0976067,3.39775964 C19.420895,3.34697536 19.8897231,3.23379075 20.0887514,3.15846456 C20.1786025,3.12445517 20.2775569,3.10090137 20.3086553,3.10607172 L20.3651987,3.11526345 L20.3674212,5.362491 L20.3696437,7.60971855 L20.4277631,7.7438488 C20.5032486,7.91805498 20.6266004,7.99656381 20.8893872,8.03765082 C21.001294,8.0551151 21.102274,8.07981786 21.1137877,8.09257138 C21.1253045,8.10521001 21.1311134,8.18023747 21.1266986,8.25927482 L21.1187177,8.40290702 L19.952825,8.41094978 C18.9064513,8.41784357 18.7853159,8.41324771 18.7711553,8.37188495 L18.7711553,8.37188495 L18.7711968,8.37183899 Z M19.7498295,1.73293132 C19.7072073,1.70776897 19.644653,1.65824855 19.6108098,1.6229753 C19.5347687,1.54369667 19.4273636,1.29057952 19.4277879,1.19163059 C19.4286698,0.986057651 19.6365367,0.70637642 19.8399625,0.637059319 C20.171651,0.524001093 20.5369321,0.998282646 20.410196,1.37739537 C20.3730392,1.48861525 20.2302947,1.65892644 20.1213651,1.72211955 C20.0028887,1.7908277 19.8550263,1.79519377 19.7498295,1.73246024 L19.7498295,1.73293132 Z M21.4832381,8.37187346 C21.4616391,8.30787607 21.4640435,8.14633149 21.4871781,8.10548576 C21.4976139,8.08710231 21.5917747,8.05699941 21.6964219,8.03861595 C21.9890149,7.98714229 22.0873784,7.90884028 22.158347,7.67067118 C22.1988275,7.53482896 22.2033332,7.25991594 22.2108292,4.4670216 C22.2161835,2.48420552 22.2097179,1.33194229 22.1924226,1.18396699 C22.1460018,0.78608017 22.066434,0.69764428 21.7266009,0.666208579 L21.5319864,0.648169817 L21.4971128,0.522817659 C21.4779283,0.453879717 21.4680178,0.380322932 21.4750794,0.359377287 C21.4830603,0.335593697 21.5837544,0.307214244 21.7424163,0.283775344 C22.0662905,0.235978371 22.5651532,0.122299704 22.7945343,0.0439172638 C22.9123106,0.0037034642 22.9809324,-0.00698191684 22.9979449,0.0124356036 C23.0146645,0.0313935377 23.0219584,1.00581986 23.018857,2.80528399 L23.0141088,5.56893715 L23.0866646,5.53308942 C23.3209019,5.41742305 23.7291174,5.02298312 24.1703224,4.486014 C24.4577723,4.13616543 24.5651218,3.95372117 24.566322,3.81298436 C24.5670373,3.72910986 24.4420195,3.63854839 24.2898161,3.61259325 C24.1659177,3.59145228 24.1438297,3.547332 24.1582873,3.3499282 L24.1665713,3.23721466 L25.1025819,3.23491673 C26.1241774,3.2326188 26.0649922,3.22204832 26.0649922,3.40920334 C26.0649922,3.57185093 26.0445853,3.6000925 25.9266271,3.6006555 C25.7590539,3.60144828 25.4779109,3.67901496 25.3006636,3.77334504 C25.0922229,3.88422023 24.9839439,3.99919723 24.4721046,4.65271743 C24.1441924,5.07140053 24.0503407,5.20919599 24.0503407,5.27194101 C24.0503407,5.36638599 24.2011308,5.64159774 24.920743,6.86066185 C25.2950375,7.49474155 25.4620814,7.75266137 25.5436738,7.82246104 C25.6587457,7.9209274 25.8335634,7.99162326 26.0644628,8.03313539 C26.1374934,8.0462336 26.2097532,8.07128105 26.2250412,8.08863043 C26.2593996,8.12769527 26.261804,8.35253636 26.228274,8.39067054 C26.2135042,8.40744544 25.8902088,8.41548819 25.4176004,8.41077744 L24.6314979,8.40273468 L24.6168797,8.1824205 C24.6062317,8.0220134 24.5824404,7.91815839 24.5293723,7.80052728 C24.4274548,7.57460616 23.5680592,6.17245437 23.4469258,6.0344521 C23.3561655,5.93104518 23.1619702,5.83237201 23.0492765,5.83237201 C23.0190499,5.83237201 23.014716,5.97764723 23.0223838,6.73566587 C23.0304657,7.53241613 23.0371131,7.65373542 23.0789473,7.76419699 C23.1386023,7.9216972 23.2269855,7.99377182 23.4202634,8.04253393 L23.5725063,8.08090938 L23.5725063,8.24179905 L23.5725063,8.40268872 L22.5357693,8.41073148 C21.607185,8.41762527 21.4973856,8.41302941 21.4832432,8.37155175 L21.4832432,8.37155175 L21.4832381,8.37187346 Z M26.5687041,8.330166 C26.5593088,8.28156475 26.5590057,8.20376828 26.5679302,8.15735007 C26.5836496,8.0760033 26.5920044,8.07175213 26.8013755,8.04106325 C27.1975509,7.98292559 27.3074059,7.86168673 27.3583838,7.42649299 C27.3747093,7.28714643 27.3820033,6.6181037 27.3771945,5.70076948 C27.3695167,4.23597608 27.3681023,4.19955387 27.3134077,4.06494105 C27.2453577,3.89744483 27.1314617,3.82256673 26.8701479,3.77348292 C26.6926691,3.74016291 26.6890454,3.73763519 26.6728188,3.6393067 C26.6427035,3.45675903 26.6610293,3.43914539 26.9239797,3.3978056 C27.2488127,3.34679152 27.7311306,3.23045875 27.912522,3.15948714 C28.0762503,3.09537485 28.1714234,3.08537885 28.1955187,3.12972892 C28.2041058,3.14546975 28.1977413,3.38468441 28.181345,3.6611945 C28.1435215,4.29955984 28.1592105,4.32757163 28.361219,3.98226148 C28.4972322,3.74976827 28.7743928,3.42220963 28.9319939,3.3077152 C29.4631087,2.92186954 30.1339857,3.23900705 30.0135726,3.8190509 C29.9749813,4.00493057 29.78601,4.23260961 29.6454123,4.26259762 C29.4960881,4.29442397 29.4206188,4.25455486 29.2380232,4.05018833 C29.0835407,3.87682089 29.0552387,3.85705868 28.9573298,3.85414031 C28.8569015,3.85069341 28.8379644,3.86333204 28.7135549,4.01569638 C28.5414628,4.22598008 28.3474352,4.55770946 28.2623211,4.78719238 L28.1958673,4.96633911 L28.1958673,6.25886808 C28.1958673,7.44048739 28.1999082,7.5633348 28.243076,7.69055977 C28.2690393,7.76708089 28.3223195,7.85565466 28.3614615,7.88735462 C28.4405838,7.95146691 28.6575873,8.02043932 28.893244,8.05645939 L29.0482165,8.08012809 L29.0482165,8.24169564 L29.0482165,8.4032632 L27.8169953,8.41130596 L26.5857742,8.41934872 L26.568701,8.33099326 L26.568701,8.33099326 L26.5687041,8.330166 Z M32.5829089,8.50428026 C31.9405763,8.41960149 31.4717634,8.14031091 31.1456989,7.64817443 C30.9532696,7.35772739 30.807653,7.03428205 30.715745,6.69313116 C30.651746,6.45559399 30.6461897,6.39443454 30.6455486,5.92108365 C30.6450097,5.48663674 30.6537564,5.36683409 30.702036,5.14762292 C30.9697507,3.93220104 31.6657778,3.21978486 32.6629101,3.14059814 C33.2415306,3.09463951 33.8703703,3.30811734 34.2399258,3.67595871 C34.552554,3.98713309 34.8313319,4.58793875 34.9477333,5.20138303 C35.0029128,5.49219773 34.9900019,6.20994512 34.9242047,6.50859578 C34.7900301,7.11766249 34.498715,7.68134507 34.1475582,8.01137398 C33.7722766,8.36407198 33.107553,8.57347098 32.5828968,8.50428026 L32.5828968,8.50428026 L32.5829089,8.50428026 Z M33.4239565,8.04307394 C33.9428483,7.75254647 34.1467984,7.12552142 34.1093356,5.93592829 C34.0707846,4.71161341 33.7822033,3.93723351 33.2557326,3.64532728 C32.6823775,3.32741996 32.051682,3.5475503 31.7783079,4.16098309 C31.591245,4.58073473 31.5062582,5.03305955 31.5055522,5.61264381 C31.5044448,6.54780997 31.7447172,7.31815701 32.184909,7.79053128 C32.4295669,8.05306994 32.6869125,8.15822328 33.0490104,8.14358546 C33.2235462,8.13669167 33.2877867,8.11934228 33.4239565,8.04305096 L33.4239565,8.04307394 Z M35.4990469,11.1842428 C35.4809231,11.1305861 35.4824284,10.9592293 35.5015725,10.9026428 C35.5125437,10.870127 35.5509633,10.8562245 35.6294462,10.8562245 C35.9819679,10.8562245 36.1757823,10.7111676 36.2382821,10.4005448 C36.2670134,10.2577628 36.2736709,9.66050743 36.2736709,7.22834236 C36.2736709,4.39641765 36.2710443,4.224406 36.2264622,4.0928724 C36.1634634,3.90718806 36.0710523,3.83857182 35.8078159,3.7820542 L35.5908084,3.73552109 L35.5739777,3.60790547 C35.5646835,3.53770367 35.5651886,3.4711211 35.575089,3.45989571 C35.5849894,3.44840605 35.7810455,3.40394108 36.0108336,3.36039528 C36.2406228,3.31696437 36.533238,3.24508508 36.6610905,3.20074649 C36.788944,3.15639642 36.9342313,3.11916993 36.9839515,3.11790607 L37.0743482,3.11560813 L37.0645488,3.56357837 C37.0551535,3.99140724 37.056972,4.0115601 37.1049181,4.0115601 C37.132518,4.0115601 37.1892331,3.97065692 37.2309613,3.92067691 C37.5877392,3.49349147 38.2113873,3.13024596 38.5880437,3.13024596 C39.0886996,3.13024596 39.6050426,3.43281459 39.9266104,3.91462186 C40.2286108,4.36711903 40.3914562,4.89741266 40.4119126,5.49497823 C40.4461195,6.49415328 40.1201894,7.40376644 39.5217994,7.97915698 C38.9498688,8.52910941 38.0839318,8.67247735 37.2759505,8.35099675 C37.187938,8.3159533 37.106581,8.29791453 37.0951491,8.31089785 C37.0626394,8.34777965 37.0549616,9.83868903 37.0856528,10.1595032 C37.1224055,10.5440276 37.1760899,10.6619689 37.3572954,10.756322 C37.4505308,10.8048083 37.5644662,10.8338772 37.7108071,10.8464009 C37.8295725,10.8567416 37.9352834,10.8793762 37.9457213,10.8971852 C37.9561571,10.9148792 37.9646937,10.9823235 37.9646937,11.0469414 C37.9646937,11.1116281 37.9561066,11.1776707 37.9457213,11.1938251 C37.9335377,11.2126682 37.4944704,11.2232387 36.7195311,11.2232387 C35.7380464,11.2232387 35.5098494,11.2163449 35.4991176,11.1840589 L35.4991176,11.1840589 L35.4990469,11.1842428 Z M38.4637443,8.0780025 C38.9715981,7.93777123 39.2548575,7.57681217 39.4533018,6.81703562 C39.5467696,6.45919025 39.5701417,5.72816082 39.5027735,5.26991883 C39.3945177,4.53360416 39.1021571,3.98411131 38.6988059,3.75886807 C38.5671519,3.68533427 38.5168892,3.67384461 38.3270249,3.67384461 C38.1321326,3.67384461 38.0872201,3.68533427 37.927052,3.77104711 C37.6239766,3.93425769 37.266727,4.27106549 37.1431801,4.51007334 L37.0743219,4.64327293 L37.0743219,6.02391608 C37.0743219,6.78327901 37.0838182,7.45565374 37.0954158,7.51808853 C37.121864,7.66038793 37.3125759,7.89877534 37.4741564,7.99150836 C37.5775771,8.05079499 37.7412509,8.10134948 37.9395871,8.1352095 C38.0388537,8.1520993 38.2975722,8.12371984 38.4637433,8.07799101 L38.4637433,8.07799101 L38.4637443,8.0780025 Z M41.1323168,8.37183899 C41.1106673,8.30761181 41.1131626,8.14637745 41.1364588,8.10473893 C41.1469856,8.08589589 41.2406039,8.05717175 41.3445106,8.04074154 C41.5943773,8.00133202 41.7617152,7.90582999 41.8205761,7.7689537 C41.8455493,7.71093094 41.8771498,7.56548337 41.8908083,7.44583008 C41.9236008,7.15850823 41.9242474,4.45902479 41.8915791,4.23212705 C41.8489973,3.9363603 41.7337416,3.82730047 41.4020248,3.76891003 L41.2244723,3.73765817 L41.2135314,3.61762572 C41.2074699,3.55156019 41.2066617,3.48436868 41.2117129,3.46821422 C41.2166631,3.4520138 41.417623,3.40226359 41.6581844,3.35745393 C41.8987458,3.31275916 42.1978316,3.24100625 42.3228211,3.1980694 C42.4478095,3.15509809 42.5894064,3.11902056 42.6374789,3.1178716 L42.7248852,3.11557367 L42.7279159,5.36280122 C42.7309467,7.60187111 42.7311487,7.61052282 42.7868536,7.74769784 C42.8571969,7.92082399 42.9763461,7.99508164 43.2532339,8.03836318 C43.3637223,8.05559767 43.4635425,8.08018553 43.4750563,8.09282416 C43.4865731,8.10546278 43.492382,8.18049024 43.4879672,8.25952759 L43.4799863,8.40315979 L42.3140936,8.41120255 C41.2677199,8.41809635 41.1465845,8.41350048 41.1324239,8.37213772 L41.1324239,8.37213772 L41.1323168,8.37183899 Z M42.1109496,1.73836593 C41.9436249,1.6552957 41.7886796,1.38083078 41.7882331,1.16668655 C41.7878452,0.981209016 42.0111597,0.691727107 42.1990096,0.634198394 C42.4818315,0.54756638 42.7945981,0.858235217 42.7952699,1.22643277 C42.7954821,1.34185786 42.7580424,1.43545261 42.6617651,1.56016134 C42.5120863,1.75404931 42.2883546,1.82643415 42.1109496,1.73836593 L42.1109496,1.73836593 Z M45.6149255,8.50510752 C44.9849978,8.40756033 44.5247759,7.96571408 44.2691811,7.21314154 C44.1373311,6.82492901 44.0997722,6.55149815 44.0997722,5.97983027 C44.0997722,5.58246048 44.1106828,5.41241356 44.1478194,5.23076208 C44.3516695,4.23366666 44.9781241,3.44374125 45.7537523,3.20575598 C45.8384714,3.17978936 46.0259869,3.15026094 46.1704438,3.14015004 C46.4587665,3.12004314 46.6275844,3.14704384 46.9733385,3.26823674 C47.1458215,3.32878723 47.1939092,3.33602572 47.2251702,3.3064973 C47.2580839,3.27547522 47.263812,3.12187 47.263812,2.26991193 C47.263812,1.14468386 47.2450518,0.930688994 47.1354595,0.806049194 C47.0527609,0.711948903 46.9134926,0.663175309 46.7272238,0.662957006 C46.6048054,0.66280764 46.5884273,0.654914246 46.5657928,0.587469959 C46.5519423,0.545992297 46.5406074,0.46882776 46.5406074,0.41591789 L46.5406074,0.31974946 L46.7839662,0.285740075 C47.0856968,0.243573034 47.6291234,0.119634104 47.8452733,0.04371045 C47.9345082,0.0123436863 48.023245,-0.00638445468 48.04247,0.00200299496 C48.0716559,0.0147565143 48.0760707,0.604106982 48.0692212,3.57169007 C48.060028,7.53826437 48.0524512,7.35312004 48.2319625,7.53237018 C48.3266022,7.62681516 48.5014422,7.69895871 48.713649,7.73098039 C48.8182699,7.74672122 48.8427401,7.76211736 48.85545,7.81968054 C48.8852017,7.95451167 48.847368,8.03199791 48.7423137,8.0516682 C48.2382685,8.14599829 47.902344,8.26670863 47.6796195,8.43353845 C47.603437,8.49064204 47.5105955,8.5355666 47.4689179,8.5355666 C47.4012517,8.5355666 47.3907856,8.52143432 47.3550169,8.38134093 C47.3333572,8.29654727 47.3051613,8.1322107 47.2923716,8.01621112 C47.2795819,7.90021155 47.261741,7.79173769 47.2527296,7.77514663 C47.2276049,7.72895821 47.1657173,7.7659549 46.9409642,7.96350807 C46.4153391,8.4247029 46.0524735,8.57293097 45.6149427,8.50516497 L45.6149427,8.50516497 L45.6149255,8.50510752 Z M46.5010826,7.86459361 C46.8404338,7.68398769 47.1895964,7.35146553 47.2385761,7.16226534 C47.2581749,7.0865485 47.2645697,6.6107733 47.2590033,5.64201137 C47.24981,4.04392646 47.266176,4.16633727 47.0247528,3.88607007 C46.584745,3.37519396 45.8165915,3.39667961 45.3908321,3.9317989 C45.1308963,4.25847283 45.0051047,4.68020069 44.9666962,5.35373588 C44.890443,6.69087918 45.2190219,7.66521359 45.8370914,7.9347035 C46.0014218,8.00639896 46.2925116,7.97560668 46.5010856,7.86461659 L46.5010856,7.86461659 L46.5010826,7.86459361 Z M49.221613,8.37183899 C49.1999635,8.30761181 49.2024588,8.14637745 49.225755,8.10473893 C49.2362818,8.08589589 49.3299001,8.05717175 49.4338068,8.04074154 C49.6819056,8.00167671 49.851071,7.90568062 49.9089237,7.77121717 C49.9333716,7.71434336 49.9651034,7.57559427 49.9794387,7.46277732 C50.0139184,7.19140311 50.0147872,4.42228087 49.980449,4.21395041 C49.9343515,3.93416577 49.8154215,3.82595618 49.4913159,3.76891003 L49.3137635,3.73765817 L49.3028225,3.61762572 C49.2967611,3.55156019 49.2959529,3.48436868 49.3010041,3.46821422 C49.3059543,3.4520138 49.5069141,3.40226359 49.7474755,3.35745393 C49.9880369,3.31275916 50.2871238,3.24100625 50.4121122,3.1980694 C50.5371017,3.15509809 50.6788198,3.11902056 50.7270428,3.1178716 L50.8147219,3.11557367 L50.8174495,5.36280122 C50.8201772,7.60219282 50.8203792,7.61051133 50.8761144,7.74769784 C50.9464577,7.92082399 51.065607,7.99508164 51.3424957,8.03836318 C51.4529842,8.05559767 51.5528034,8.08018553 51.5643171,8.09282416 C51.5758339,8.10546278 51.5816428,8.18049024 51.577228,8.25952759 L51.5692471,8.40315979 L50.4033554,8.41120255 C49.3569817,8.41809635 49.2358453,8.41350048 49.2216847,8.37213772 L49.2216847,8.37213772 L49.221613,8.37183899 Z M50.2002458,1.73836593 C50.0329211,1.6552957 49.8779758,1.38083078 49.8775293,1.16668655 C49.8771424,0.981209016 50.1004559,0.691727107 50.2883058,0.634198394 C50.4955423,0.570775487 50.721544,0.709340751 50.831299,0.967180145 C50.9237868,1.18446105 50.899541,1.36783598 50.7532879,1.55728893 C50.5979942,1.75843836 50.382701,1.82893889 50.2002488,1.73836593 L50.2002458,1.73836593 Z M52.7103929,11.1676977 C52.5447572,11.0978405 52.4344426,10.944086 52.4344426,10.7830239 C52.4344426,10.685247 52.5130598,10.5103974 52.6029221,10.4081969 C52.700451,10.2973217 52.8089998,10.2707461 53.0879626,10.2896811 C53.3848148,10.309788 53.5241891,10.2533737 53.6446365,10.064277 C53.7237387,9.94008526 53.9897117,9.25342888 54.0856688,8.92566344 C54.1545675,8.6903093 54.1550019,8.39561109 54.0868811,8.09223818 C54.0428546,7.89613272 52.869373,4.66356367 52.657746,4.1554221 C52.5054274,3.78969482 52.3555294,3.64422428 52.0947823,3.60911188 C51.9861295,3.59452002 51.9610966,3.57935367 51.9391562,3.51524139 C51.9233963,3.46916786 51.9216688,3.39990821 51.9348121,3.34086286 L51.9566031,3.24285609 L52.9699054,3.23711126 C54.0778263,3.23136643 54.0099985,3.21999167 54.0099985,3.40909993 C54.0099985,3.55126146 53.9865204,3.60003505 53.9181066,3.60003505 C53.7943517,3.60003505 53.601588,3.66403244 53.5451992,3.72372121 C53.4297323,3.84606308 53.4673497,3.98344491 54.0456086,5.55124308 C54.3371439,6.34166255 54.5973646,7.01303768 54.6238775,7.04318654 C54.6797137,7.10672434 54.7466242,7.08891537 54.7887867,6.99929605 C54.8941441,6.7753971 55.8750611,4.09036766 55.8868193,3.99369368 C55.8953053,3.92349188 55.8885367,3.84572988 55.8704533,3.80733145 C55.8312053,3.72391654 55.6645554,3.63936415 55.4867009,3.61259325 C55.3703894,3.59512897 55.3450323,3.58007752 55.3228514,3.51516096 C55.3069602,3.46874274 55.3052024,3.39827668 55.3184063,3.3366002 L55.3401973,3.23468694 L56.1858011,3.2337333 C57.1083977,3.23268774 57.0578167,3.22224364 57.0578167,3.409031 C57.0578167,3.54450554 57.0347933,3.59996612 56.9785328,3.59996612 C56.7862186,3.59996612 56.4425608,3.87521234 56.2840009,4.15623786 C56.0962399,4.4890128 55.4814577,6.09973633 54.5010308,8.82758772 C53.9233104,10.4350022 53.6828914,10.8773655 53.2666102,11.0989206 C53.0667363,11.2053148 52.8606748,11.2306035 52.7103979,11.167284 L52.7103979,11.167284 L52.7103929,11.1676977 Z M58.5678714,8.50670458 C58.3804185,8.47660168 58.1526357,8.38872878 58.0019759,8.28830918 C57.6138583,8.02963104 57.4432553,7.35004081 57.626557,6.79284989 C57.745881,6.43013291 58.0629553,6.07903197 58.504225,5.82098576 C58.8062183,5.64437824 59.0195961,5.56219272 59.6236373,5.38982489 C59.909389,5.30824833 60.1595518,5.22610877 60.1795536,5.20723126 C60.2086991,5.17965608 60.2130129,5.10279028 60.2012839,4.81994939 C60.1776644,4.25031517 60.0643514,3.88324361 59.8541226,3.69534176 C59.657038,3.51919383 59.5980226,3.49809882 59.3178323,3.50364832 C58.8751473,3.51284005 58.5658004,3.66880065 58.5063081,3.91385206 C58.4895987,3.9826751 58.4910231,4.09941002 58.5106522,4.26591813 C58.5371711,4.49133371 58.5353829,4.52467669 58.4918818,4.61654799 C58.3558878,4.90375495 57.9118904,4.94666882 57.7925291,4.68410718 C57.7599992,4.61252661 57.75219,4.54192267 57.7617772,4.40606896 C57.7847805,4.08010739 57.977233,3.7837202 58.3439325,3.50950805 C58.6677815,3.26732906 58.9757212,3.16135995 59.4211844,3.13879426 C59.7734515,3.12098529 59.9590597,3.15970544 60.2238478,3.30643985 C60.5511851,3.48781557 60.7234621,3.69538772 60.8407201,4.04969427 C60.9807077,4.47267451 60.9886573,4.57002637 61.0091157,6.1119843 C61.0225621,7.12508481 61.0378269,7.58818693 61.0606887,7.6756462 C61.1442157,7.9952425 61.4550325,8.09546678 61.6837721,7.87656583 C61.7727342,7.79142747 61.7938129,7.79694251 61.8499229,7.92045632 C61.8889385,8.00628406 61.8884738,8.00743303 61.7528788,8.15501767 C61.4877028,8.44372977 61.1412729,8.56782956 60.8163328,8.49050417 C60.7217335,8.46798444 60.604427,8.42156622 60.5556393,8.38721215 C60.4509628,8.31367834 60.2708969,8.03871936 60.2472784,7.91642345 C60.2381862,7.86920096 60.2170821,7.83071061 60.2004535,7.8309404 C60.1838249,7.83118169 60.068746,7.92262787 59.9447223,8.03408903 C59.6755094,8.27608419 59.4953787,8.3963809 59.309315,8.45844802 C59.1370138,8.51589631 58.7730702,8.539565 58.5679047,8.50670458 L58.5679047,8.50670458 L58.5678714,8.50670458 Z M59.5350874,7.93034892 C59.7608103,7.81070712 60.0130936,7.6121084 60.1273472,7.46412161 L60.2089345,7.35841677 L60.2089345,6.47817116 C60.2089345,5.89113012 60.2000444,5.59792556 60.1822035,5.59792556 C60.0905945,5.59792556 59.1812332,5.91290302 59.0230238,5.99943162 C58.7836515,6.13034478 58.6042533,6.32970182 58.5018499,6.57857928 C58.2294102,7.24071672 58.4489434,7.91250548 58.9780276,8.03573205 C59.1459827,8.07479688 59.3270569,8.04032791 59.5350914,7.9303719 L59.5350914,7.9303719 L59.5350874,7.93034892 Z M66.6827247,8.50577392 C66.3916986,8.46498564 66.2531406,8.4193717 65.9961485,8.27945066 C65.463382,7.98942873 65.0754139,7.36255304 64.9638112,6.61140523 C64.9133192,6.27154117 64.9043886,5.99174504 64.9340393,5.67849103 C65.0205162,4.76504032 65.28883,4.15886899 65.8210611,3.67455697 C66.07913,3.43971987 66.3103234,3.29959201 66.5772007,3.21623455 C66.7560281,3.16039482 66.8245277,3.1541904 67.1055282,3.16855247 C67.8180495,3.20508958 68.2346722,3.45825269 68.4833519,4.00584974 C68.633158,4.33574077 68.7035983,4.62647506 68.7239315,4.99884335 C68.7392569,5.27943227 68.7369839,5.29933235 68.682562,5.36122713 L68.6249781,5.42671818 L67.1936962,5.41637749 L65.7624144,5.4060368 L65.7626336,5.5382253 C65.7630054,5.76202084 65.8133176,6.18596621 65.868882,6.43346491 C66.0162251,7.08980008 66.3652383,7.61527954 66.8093215,7.84942726 C66.9416968,7.91928438 67.0036046,7.93226769 67.2475887,7.94145941 C67.7369804,7.96007266 68.0476154,7.83368643 68.3754982,7.48256251 C68.5483985,7.29740669 68.548646,7.29725732 68.6246144,7.3419406 C68.7363201,7.40766144 68.7443142,7.46661487 68.6582353,7.5900023 C68.5508423,7.74395221 68.3012705,8.00755941 68.1561065,8.12036486 C67.7602988,8.42795447 67.1923607,8.57612509 66.6827197,8.50475134 L66.6827247,8.50577392 Z M67.3338424,4.99093847 C67.6867419,4.97577212 67.7901607,4.96198453 67.8216116,4.9262517 C67.9132003,4.82204051 67.8072459,4.13089168 67.6628487,3.89060848 C67.5204911,3.65371473 67.1945418,3.4937902 66.907494,3.51998661 C66.704539,3.53848496 66.4080181,3.69209019 66.2447757,3.86322863 C66.0732837,4.04300729 65.8993055,4.45947289 65.8176677,4.88562427 L65.7937552,5.01047088 L66.3398731,5.01037897 C66.6402379,5.01032152 67.0875256,5.00118724 67.3338464,4.99096145 L67.3338464,4.99096145 L67.3338424,4.99093847 Z M69.4172157,8.32987876 C69.4078205,8.28139241 69.4075174,8.20359594 69.4165712,8.15695942 C69.4320785,8.07664672 69.4432215,8.0704423 69.6266293,8.03939725 C69.9449623,7.98551076 70.0497792,7.89222623 70.1144672,7.60505375 C70.1493913,7.45003529 70.1539779,7.19628622 70.1477042,5.76982232 C70.1410366,4.25074029 70.1366522,4.1066485 70.0946866,4.01929264 C70.029243,3.88308276 69.9511966,3.83586027 69.7036715,3.78270911 C69.4684008,3.73215462 69.4570759,3.72043517 69.4563122,3.52470886 L69.4559596,3.43428526 L69.7020097,3.39763326 C70.0241079,3.34972139 70.512462,3.23387117 70.7144493,3.15747645 C70.9280665,3.07670416 70.9939203,3.08773423 70.989161,3.20377976 C70.9871405,3.25226612 70.9766946,3.49349147 70.965885,3.73987567 C70.9550754,3.98627137 70.9552774,4.1878574 70.9663426,4.1878574 C70.9774048,4.1878574 71.0999707,4.06395294 71.2387065,3.91249628 C71.7576862,3.34597576 72.1309695,3.13033788 72.5927158,3.13033788 C72.901004,3.13033788 73.227523,3.29829368 73.4107682,3.55112358 C73.4880115,3.6577476 73.6137051,3.93831354 73.6141526,4.00518334 C73.6148558,4.10985412 73.7027005,4.06619342 73.882718,3.87167353 C74.3285146,3.39006157 74.8367352,3.13109619 75.3372102,3.13054469 C75.8339201,3.12999319 76.1417557,3.33176305 76.2981294,3.76036173 C76.4554355,4.1915226 76.4608717,4.2588405 76.4797147,6.00914038 C76.4978284,7.69176619 76.50094,7.7338528 76.6180233,7.88109276 C76.6797391,7.95876284 76.8325204,8.02510412 77.0109012,8.05184055 C77.0819315,8.06218124 77.1485844,8.08642442 77.1590212,8.10503766 C77.1843784,8.15030691 77.1832368,8.33511804 77.1573038,8.38155924 C77.1410894,8.41062807 76.9083847,8.41694738 76.0811976,8.41097276 L75.0257741,8.40293 L75.0067815,8.32215771 C74.9963356,8.27769274 74.9963255,8.20502066 75.0067654,8.16059015 C75.0239294,8.08751593 75.0441848,8.07545179 75.2188763,8.03460606 C75.4709474,7.97566412 75.5636686,7.89929237 75.6207696,7.70376139 C75.659957,7.56955071 75.6665135,7.37838579 75.674848,6.12633489 C75.686577,4.3633734 75.6652507,4.14494353 75.4590356,3.91309374 C75.3266986,3.76432566 75.2485906,3.73399297 74.9962416,3.73334955 C74.5782046,3.7322925 74.1997024,3.93409683 73.8588106,4.33978513 L73.7028753,4.52536607 L73.7167561,6.08227205 C73.7302024,7.59113977 73.7323239,7.64334877 73.7856042,7.77435384 C73.8493708,7.93116468 73.979954,8.01807245 74.2004439,8.05046179 C74.3219126,8.06827076 74.3360278,8.07815186 74.3510117,8.15570705 C74.3601039,8.20281464 74.3599019,8.28097878 74.3505268,8.32945364 L74.3335042,8.41757931 L73.2915402,8.41757931 L72.2495752,8.41757931 L72.2325526,8.32945364 C72.2231573,8.28096729 72.2228542,8.20315933 72.2319151,8.15651133 C72.247291,8.076888 72.2593432,8.06987931 72.4282874,8.04131602 C72.9069583,7.96054373 72.9261035,7.87262488 72.9111377,5.82463947 C72.9016414,4.52685973 72.8987319,4.45809413 72.8453102,4.27562689 C72.7353289,3.89999553 72.545105,3.73603813 72.2170069,3.73410786 C72.0371865,3.73305081 72.0023967,3.74329959 71.8037453,3.85600163 C71.5670773,3.99025828 71.1945124,4.33524672 71.0782777,4.52776741 C70.9552097,4.73160542 70.9495301,4.81304411 70.959476,6.2311895 C70.9680631,7.45356262 70.9724778,7.56287522 71.0194946,7.71187309 C71.0827056,7.91219526 71.174462,7.9876823 71.411928,8.03470947 C71.6023116,8.07239555 71.6245926,8.09296203 71.6251815,8.23158474 C71.6260281,8.43090731 71.7056374,8.41757931 70.5142249,8.41757931 L69.4342283,8.41757931 L69.4172056,8.32945364 L69.4172157,8.32987876 Z M79.4187903,8.50311981 C78.7272195,8.40833014 78.1796297,7.95876284 77.8994131,7.25590605 C77.5233931,6.31273159 77.6533196,4.93111182 78.1943722,4.11937904 C78.3695021,3.85663357 78.7342275,3.51488521 78.9969557,3.3673695 C79.3049449,3.19443867 79.5026921,3.15004264 79.8779039,3.16958654 C80.6041151,3.20738752 81.0266619,3.47929025 81.2780157,4.07042161 C81.4127399,4.38727189 81.4656565,4.62539503 81.4843804,4.99908463 C81.4984026,5.27885778 81.4959072,5.29998726 81.4417076,5.36164076 L81.3841439,5.42713181 L79.9530116,5.41679112 L78.5218802,5.40645042 L78.5218863,5.48412051 C78.5219146,5.84629747 78.6212034,6.46156861 78.7311887,6.7811764 C78.879533,7.21222237 79.2310799,7.66779876 79.5464438,7.83767334 C79.7182914,7.93027998 79.7321075,7.9328077 80.0716244,7.9328077 C80.5681241,7.9328077 80.7972728,7.83514562 81.1742081,7.46281179 C81.2559873,7.3820395 81.3406499,7.32043196 81.3623519,7.32592402 C81.4184205,7.3400563 81.4922118,7.42059879 81.4922118,7.46767192 C81.4922118,7.52879689 81.1095817,7.97073506 80.9498055,8.09412249 C80.5044423,8.43806537 79.9760462,8.57904346 79.4187934,8.50261426 L79.4187934,8.50261426 L79.4187903,8.50311981 Z M80.5609837,4.95254003 C80.6070306,4.92450527 80.6139811,4.89233423 80.6136588,4.70830439 C80.6129163,4.30278844 80.4922022,3.91919475 80.3122221,3.75046913 C80.1290507,3.57875621 80.005423,3.53021241 79.7469015,3.52851194 C79.5218847,3.52736297 79.5037589,3.53195884 79.2903792,3.65215214 C78.9368937,3.85129087 78.7551729,4.1446448 78.6142004,4.74374999 L78.5492619,5.01972006 L79.5286009,5.00225578 C80.1619735,4.99076612 80.5266778,4.97341674 80.5609837,4.95250556 L80.5609837,4.95250556 L80.5609837,4.95254003 Z M82.1878812,8.33946113 C82.1611097,8.25937822 82.176718,8.10739304 82.2144203,8.0808864 C82.2258967,8.07284364 82.3126363,8.05377081 82.4071901,8.03848957 C82.6659601,7.99678211 82.8039605,7.90952966 82.8707367,7.74531948 C82.9248453,7.61224627 82.925704,7.58301658 82.925704,5.87697486 C82.925704,3.98752374 82.9274215,4.01054901 82.7784953,3.88995357 C82.7362974,3.85582929 82.6068679,3.80803232 82.486566,3.78218059 C82.2536541,3.73220058 82.2423495,3.72025134 82.2415918,3.52341053 C82.2412423,3.43264224 82.2429051,3.43149328 82.4026692,3.41127148 C82.6899363,3.37484927 83.2388949,3.25043926 83.4546033,3.17294152 C83.5702319,3.13134896 83.6903115,3.10147586 83.7214462,3.10653131 C83.7854755,3.116872 83.7830711,3.06482385 83.7513192,3.7546169 C83.7363776,4.07907333 83.738974,4.18790336 83.7616237,4.18790336 C83.7782624,4.18790336 83.87013,4.09322858 83.9657688,3.97743582 C84.1922171,3.70333856 84.4717295,3.45143932 84.6746997,3.33853046 C85.1356964,3.08209281 85.6968235,3.06063013 86.0712736,3.28510356 C86.251982,3.39345102 86.3575536,3.52451354 86.4541946,3.76056854 C86.5963592,4.10780896 86.6127019,4.31586367 86.6319784,6.02387012 C86.6440609,7.09439594 86.6591337,7.6144408 86.6802175,7.6885261 C86.7376095,7.89013512 86.8758988,7.98327028 87.2262071,8.05621811 L87.3424378,8.08046129 L87.3424378,8.24189097 L87.3424378,8.40333214 L86.2576253,8.40333214 L85.1728128,8.40333214 L85.1728128,8.24176458 L85.1728128,8.08019702 L85.3407002,8.04251095 C85.6654817,7.96955163 85.7533871,7.868052 85.804172,7.50740315 C85.8382779,7.26515522 85.8393791,4.86054235 85.8054854,4.59416614 C85.7479822,4.14200218 85.5752072,3.85611653 85.2997823,3.75737442 C85.1753101,3.71279455 85.1345487,3.7109562 84.9715145,3.74255276 C84.6526824,3.80436712 84.2906038,4.03443601 84.0017214,4.35883498 C83.7418279,4.65068376 83.753376,4.57727634 83.7443818,5.99460597 C83.7325822,7.85412653 83.7527668,7.94108026 84.218634,8.03899511 C84.3884702,8.07472795 84.4098742,8.09621361 84.4104521,8.23209029 C84.4112987,8.43143584 84.4912009,8.41808486 83.2968042,8.41808486 L82.2141152,8.41808486 L82.187859,8.3394956 L82.187859,8.3394956 L82.1878812,8.33946113 Z M89.6481568,8.50433771 C88.9641274,8.41115659 88.4159648,7.97001121 88.1355816,7.28703153 C87.793427,6.45359479 87.8478276,5.20800107 88.2624097,4.38310114 C88.5006374,3.90909534 89.0198172,3.41706227 89.459426,3.24868134 C89.8325325,3.10577299 90.4435181,3.14642339 90.8587144,3.34186246 C91.3478182,3.57205774 91.6690577,4.20020878 91.7065206,4.99964763 L91.721846,5.32670071 L91.6544425,5.37691052 C91.5924842,5.42309894 91.4721681,5.42631604 90.1645028,5.41712432 L88.7419687,5.40678362 L88.7584255,5.68584441 C88.7806105,6.0622226 88.8604249,6.50580379 88.9535896,6.77057145 C89.1156186,7.23104243 89.4391585,7.65268986 89.7699004,7.83442177 C89.9265842,7.9204793 89.9739899,7.93196896 90.2163991,7.94219475 C90.5420998,7.95586744 90.7399147,7.91841116 90.9606683,7.80087197 C91.1167005,7.71780175 91.3875541,7.49562625 91.4899383,7.36666634 C91.5173766,7.33208247 91.5565943,7.31381392 91.5851236,7.32231627 C91.6586794,7.34414661 91.721157,7.43686815 91.7039333,7.49863654 C91.683981,7.57010221 91.3748432,7.92648839 91.2108098,8.06709881 C90.8071526,8.41310984 90.208701,8.58047967 89.6481639,8.50411941 L89.6481639,8.50411941 L89.6481568,8.50433771 Z M90.8032965,4.94625519 C90.8361799,4.91523312 90.8405947,4.85755504 90.8287142,4.61441092 C90.8068424,4.16687728 90.7030954,3.88848289 90.4936455,3.71533376 C90.3088364,3.5625443 90.2232273,3.53221161 89.9691589,3.52948856 C89.7436138,3.52719063 89.726573,3.53178649 89.5140923,3.65133637 C89.2816735,3.78226102 89.162891,3.90501651 89.042479,4.13869316 C88.9640537,4.29089664 88.8300246,4.72011576 88.8047159,4.90011273 L88.7878651,5.01999581 L89.775686,5.00195705 C90.5204129,4.98828436 90.7732993,4.97461166 90.8033025,4.94634711 L90.8033025,4.94634711 L90.8032965,4.94625519 Z M92.4101396,8.33946113 C92.3833681,8.25937822 92.3989764,8.10739304 92.4366787,8.0808864 C92.4481551,8.07284364 92.5349048,8.05377081 92.6294485,8.03848957 C92.8882195,7.99678211 93.0262189,7.90952966 93.0929961,7.74531948 C93.1471452,7.6122118 93.1479534,7.58330383 93.1479534,5.86229108 C93.1479534,4.24527121 93.1449226,4.1073149 93.1021893,4.01924668 C93.0367255,3.8830368 92.9587043,3.83581431 92.7111722,3.78266315 C92.4756469,3.73210866 92.4645706,3.72050411 92.4638119,3.52338755 C92.4634633,3.43261926 92.4651252,3.4314703 92.6248903,3.4112485 C92.9121623,3.37482629 93.461119,3.25041628 93.6768264,3.17291854 C93.792459,3.13132599 93.9125366,3.10145288 93.9436723,3.10650833 C94.0079239,3.11684902 94.0058024,3.07134998 93.9740807,3.75459392 C93.9608465,4.03968678 93.9627659,4.18788038 93.9801421,4.18788038 C93.9943866,4.18788038 94.1210409,4.05736936 94.2616265,3.89784697 C94.7117611,3.38708575 95.0893298,3.16977038 95.5820462,3.1378636 C95.8606615,3.11982484 96.0860874,3.16245147 96.2727401,3.26837461 C96.5666707,3.43522741 96.7114084,3.70345346 96.8076645,4.25971371 C96.8218079,4.34140518 96.8418108,5.12202396 96.8521153,5.99447958 C96.8663597,7.1953096 96.8791898,7.60574313 96.9050521,7.68357406 C96.9767794,7.89952217 97.103848,7.98671717 97.4487656,8.05679259 L97.5649942,8.08034639 L97.5649942,8.24177607 L97.5649942,8.40321724 L96.4801837,8.40321724 L95.3953732,8.40321724 L95.3953732,8.24164968 L95.3953732,8.08008213 L95.5632556,8.04239605 C95.8888776,7.96920694 95.978951,7.87090143 96.0264729,7.53665582 C96.068398,7.24187718 96.0610232,4.78729579 96.0173807,4.50913119 C95.9551496,4.11241631 95.7833172,3.85080831 95.5238763,3.75779954 C95.2331078,3.65358835 94.7969651,3.82352037 94.3815829,4.20297779 C94.1423773,4.42148808 94.0274822,4.59023668 93.9891434,4.77933345 C93.9557043,4.94418705 93.9549972,7.18354419 93.988315,7.47515168 C94.0324627,7.86192801 94.1204247,7.97141295 94.4412278,8.03883426 C94.6110599,8.07456709 94.632467,8.09605275 94.6330429,8.23192943 C94.6338915,8.43127498 94.7137614,8.417924 93.5194,8.417924 L92.436706,8.417924 L92.4104497,8.33933475 L92.4104497,8.33933475 L92.4101396,8.33946113 Z M99.1790111,11.227329 C98.6615942,11.0898782 98.3433066,10.8511576 98.1945886,10.4889806 C98.1085158,10.2794093 98.0593573,9.96088154 98.083987,9.77263499 C98.1434904,9.31754117 98.3949301,8.89278004 98.7980277,8.56619803 C98.9163677,8.47037429 98.9501705,8.41800443 98.8937989,8.41800443 C98.8351037,8.41800443 98.6158605,8.14592935 98.5485479,7.98958959 C98.367795,7.56974603 98.4710621,6.91176784 98.7890871,6.45623741 L98.8974358,6.3010581 L98.7557995,6.10700928 C98.4819728,5.73179155 98.3783318,5.41864095 98.3783318,4.96637358 C98.3783318,4.12252721 98.815808,3.49149226 99.5932012,3.21398258 C99.7586489,3.15492574 99.839135,3.14527443 100.160524,3.14561912 C100.577876,3.14609019 100.705278,3.17664119 101.033658,3.35489173 L101.222321,3.45726458 L101.382859,3.28648231 C101.664566,2.9867861 102.10681,2.79920596 102.372181,2.86684557 C102.586909,2.92153634 102.717584,3.0780944 102.717584,3.28056514 C102.717584,3.41440816 102.607498,3.61278857 102.501472,3.67000707 C102.334469,3.76008598 102.251023,3.7290639 102.069431,3.50910591 C101.973357,3.39268121 101.934382,3.36539328 101.864493,3.36539328 C101.754447,3.36539328 101.586039,3.45788502 101.491339,3.57027684 L101.417591,3.65782803 L101.538255,3.8324938 C101.78525,4.19006341 101.884738,4.56701608 101.857644,5.04269937 C101.798948,6.07228754 101.101678,6.74643168 100.095939,6.74586868 C99.7605683,6.74568485 99.4849232,6.6848586 99.2797425,6.56583725 C99.1743741,6.50471227 99.1682116,6.50425268 99.135611,6.55434759 C99.0781281,6.64373712 99.0043802,6.89695767 98.9853674,7.07008382 C98.9427351,7.45826189 99.074572,7.74016062 99.3553694,7.86114671 C99.5160185,7.93031445 99.6943569,7.92985486 100.354228,7.85884878 C100.84646,7.80553677 101.478014,7.87033844 101.79519,8.00628406 C102.13641,8.15278868 102.454173,8.49164164 102.56432,8.82647323 C102.634835,9.04068639 102.634734,9.36453387 102.564118,9.62446438 C102.404297,10.2129531 101.861836,10.7318145 101.107689,11.0175508 C100.639905,11.1947788 100.385223,11.241714 99.824729,11.253962 C99.474063,11.2620048 99.277914,11.2535139 99.1790111,11.2271911 L99.1790212,11.2271911 L99.1790111,11.227329 Z M100.828265,10.752944 C101.49443,10.558585 101.877505,10.2622093 102.022142,9.82929049 C102.08609,9.63786132 102.085989,9.38155005 102.021818,9.22089017 C101.96383,9.07556899 101.748557,8.87324762 101.509675,8.73949652 C101.201318,8.56685294 100.992773,8.5493427 99.5664398,8.57638935 C99.4741034,8.57868728 99.3273149,8.56949556 99.2402521,8.55651225 L99.0819468,8.53341803 L98.9828418,8.70315474 C98.8557127,8.92098715 98.7951182,9.13286791 98.7751659,9.42940447 C98.7294018,10.1096151 98.985226,10.513603 99.6266604,10.7740275 C99.8307197,10.856868 99.849389,10.8591659 100.199206,10.8453783 C100.475023,10.8338887 100.624246,10.8125179 100.828225,10.7530015 L100.828225,10.7530015 L100.828265,10.752944 Z M100.531365,6.33121845 C100.905599,6.13114905 101.048115,5.7710632 101.048266,5.02513169 C101.048428,4.26147163 100.873373,3.8123869 100.483368,3.57591826 C100.364967,3.50410791 100.329457,3.49755879 100.05662,3.49755879 C99.7881884,3.49755879 99.7464451,3.5044526 99.6306812,3.57258626 C99.4793163,3.66105662 99.3605722,3.82701323 99.2803487,4.06208012 C99.2310488,4.20664299 99.2206432,4.30469572 99.2106418,4.7207362 C99.1887195,5.63751892 99.34458,6.11047916 99.7328472,6.30536672 C99.9843678,6.43161507 100.322951,6.44255323 100.531314,6.33121845 L100.531314,6.33121845 L100.531365,6.33121845 Z M104.347158,8.50684246 C103.984582,8.45364535 103.645837,8.24499317 103.501109,7.98578651 C103.358139,7.72972801 103.291079,7.34504281 103.338096,7.05081567 C103.429624,6.478355 103.87395,5.98049667 104.576787,5.66303744 C104.699491,5.6076573 105.055592,5.48891169 105.368122,5.39926939 C105.709271,5.30137751 105.950042,5.21757195 105.970611,5.18945676 C105.99617,5.15441331 106.000716,5.07961564 105.988492,4.89294318 C105.938081,4.12271104 105.80085,3.77147223 105.474611,3.57784853 C105.35814,3.50868079 105.314417,3.49960396 105.109812,3.50213169 C104.862949,3.50557858 104.594042,3.5686568 104.465014,3.65438113 C104.421977,3.68299038 104.359483,3.75192832 104.326115,3.80757273 C104.27035,3.90063895 104.266814,3.92778901 104.282877,4.14380605 C104.310961,4.52208003 104.308335,4.56663692 104.252771,4.65138463 C104.167507,4.78157394 104.044045,4.84686966 103.881365,4.84789224 C103.702976,4.84902971 103.614337,4.79848671 103.558047,4.66358665 C103.46672,4.4448006 103.560067,4.10007642 103.785432,3.81901643 C104.127693,3.39311782 104.697451,3.13034936 105.278685,3.13034936 C105.577858,3.13034936 105.735992,3.16975889 105.990159,3.30773818 C106.272917,3.46121702 106.44189,3.63934117 106.555543,3.90376414 C106.748237,4.35210205 106.774584,4.61306663 106.775442,6.08259376 C106.775846,6.77281193 106.787666,7.36850469 106.803123,7.47793218 C106.855757,7.85065666 106.961519,7.98570608 107.200937,7.98570608 C107.324419,7.98570608 107.360354,7.97226319 107.446396,7.89355903 L107.547219,7.80141198 L107.60066,7.87862248 C107.630059,7.92101931 107.654001,7.96985036 107.654001,7.98708484 C107.654001,8.04154582 107.390045,8.30268274 107.258127,8.37872129 C106.977714,8.54032332 106.626644,8.55615607 106.388408,8.41790102 C106.261652,8.34436722 106.092376,8.12352452 106.037509,7.9601416 C106.013567,7.88879083 105.982249,7.83037741 105.968005,7.83037741 C105.95376,7.83037741 105.865253,7.90057921 105.77134,7.98632653 C105.398782,8.32660421 105.216504,8.43832963 104.943576,8.49370978 C104.733334,8.53633641 104.572938,8.5398982 104.347169,8.50669309 L104.347169,8.50669309 L104.347158,8.50684246 Z M105.207371,7.98917596 C105.353715,7.9341405 105.749004,7.64504924 105.876992,7.49948678 C105.926696,7.44284277 105.974985,7.35376346 105.984199,7.30142807 C105.993291,7.24915013 106.000969,6.84439249 106.000969,6.40210963 C106.000969,5.77618759 105.993897,5.59794854 105.96854,5.59794854 C105.869132,5.59794854 104.96073,5.90820375 104.801455,5.99653623 C104.393953,6.22252629 104.166951,6.62893844 104.167284,7.13189818 C104.167466,7.39806757 104.197289,7.52310951 104.303445,7.70265838 C104.491735,8.02115168 104.834036,8.12964851 105.207432,7.98917596 L105.207432,7.98917596 L105.207371,7.98917596 Z M107.94868,8.37762978 C107.940553,8.35511005 107.938476,8.27893362 107.942618,8.20839862 L107.9507,8.08018553 L108.135757,8.04537187 C108.508234,7.97528496 108.610662,7.85198946 108.6607,7.41372798 C108.69323,7.12857767 108.693634,4.4577954 108.661164,4.2321845 C108.618633,3.93655562 108.503304,3.82735792 108.172146,3.7690594 L107.995131,3.73792243 L107.981391,3.62152071 C107.97432,3.55752332 107.972299,3.49021691 107.979371,3.47200581 C107.985432,3.45385215 108.185188,3.40272317 108.422888,3.35848799 C108.660579,3.31425282 108.985615,3.23676657 109.145173,3.18623506 C109.304731,3.13568057 109.454398,3.10270525 109.477785,3.11293104 C109.514154,3.12878677 109.517993,3.16440471 109.504658,3.35862587 C109.465865,3.92407785 109.461015,4.1169777 109.484554,4.15655957 C109.504355,4.18987958 109.554867,4.14621888 109.727487,3.94905637 C110.259209,3.34021944 110.676511,3.10570405 111.171218,3.13770275 C111.627505,3.16723116 111.969078,3.45632242 112.11224,3.93416577 C112.134667,4.00907833 112.165076,4.07046757 112.179623,4.07046757 C112.194272,4.07046757 112.280446,3.99141873 112.371267,3.89484816 C112.832352,3.40429726 113.269859,3.17091934 113.788336,3.13895512 C114.094885,3.11999718 114.314775,3.17250492 114.502246,3.30934673 C114.705376,3.45758629 114.810522,3.65720759 114.918658,4.09984663 C114.969171,4.30644215 114.973515,4.42168341 114.989274,5.95050866 C115.004327,7.4085921 115.010894,7.59558627 115.051809,7.72034096 C115.119091,7.92543134 115.192243,7.97321683 115.570549,8.0590101 L115.673867,8.082449 L115.673867,8.24291355 L115.673867,8.4033781 L114.601967,8.4033781 L113.530067,8.4033781 L113.521985,8.30387767 C113.506024,8.11428684 113.531078,8.07106275 113.666046,8.0508984 C113.938297,8.01033991 114.069851,7.91650388 114.139588,7.7130795 C114.195859,7.54904167 114.206264,4.63127773 114.151711,4.33258112 C114.103624,4.06969777 114.0116,3.90792339 113.852093,3.80613652 C113.752584,3.74259872 113.705618,3.73283251 113.504549,3.73375168 C113.11223,3.73604961 112.797115,3.89599713 112.418485,4.28685228 L112.223145,4.48850725 L112.232237,6.04938865 C112.241329,7.702532 112.243451,7.73013015 112.365589,7.88511414 C112.430346,7.96738008 112.500537,8.00098733 112.691322,8.04127007 C112.769414,8.05781517 112.841919,8.08653931 112.852365,8.10515256 C112.877722,8.15042181 112.876611,8.33526741 112.850345,8.38172009 C112.834181,8.41078893 112.606229,8.41710824 111.798216,8.41113361 L110.766776,8.40309086 L110.766776,8.24164968 L110.766776,8.08022 L110.883005,8.05632152 C111.100248,8.01162675 111.190493,7.97566412 111.265716,7.90369291 C111.407514,7.76801155 111.412494,7.70316393 111.412494,5.99428426 C111.412494,4.52912319 111.409464,4.42699163 111.361982,4.26112694 C111.291467,4.01502998 111.103521,3.80018488 110.913312,3.7482861 C110.572284,3.65521988 110.232317,3.82308377 109.788708,4.30367314 C109.470097,4.64882244 109.489444,4.53181177 109.488777,6.11768317 C109.488413,6.98808214 109.497869,7.52836029 109.516357,7.62403466 C109.564646,7.88002422 109.671288,7.97896166 109.971734,8.04641743 L110.121028,8.07996723 L110.121028,8.24153479 L110.121028,8.40310234 L109.041976,8.4111451 C108.137646,8.4180389 107.960671,8.41216768 107.949074,8.3778251 L107.94868,8.37762978 Z M117.972607,8.50711821 C117.102736,8.39578343 116.493458,7.78108678 116.279821,6.79922665 C116.143519,6.17281055 116.204154,5.27838671 116.422963,4.687083 C116.634498,4.11548405 117.054386,3.6176487 117.548496,3.35258231 C117.8161,3.20901905 118.007248,3.15971693 118.29444,3.160162 C118.885746,3.16109569 119.42062,3.4017006 119.640934,3.76587676 C119.871745,4.1474253 119.999692,4.60759755 119.999998,5.05729124 C120.000147,5.28387876 119.992924,5.33223873 119.950493,5.37565814 C119.904224,5.42322532 119.801523,5.42609774 118.474617,5.41690601 L117.048476,5.40656532 L117.063629,5.759068 C117.108686,6.80547702 117.547385,7.63738564 118.189436,7.89399564 C118.391242,7.97465303 118.905295,7.95833772 119.134933,7.86412253 C119.314757,7.79024404 119.582118,7.59058827 119.725775,7.42287374 C119.828688,7.30271491 119.865552,7.29643007 119.954999,7.38380891 C120.033091,7.46010023 120.006017,7.5267862 119.800018,7.76644896 C119.472264,8.14775621 119.082178,8.39654175 118.692487,8.47281009 C118.45811,8.51865383 118.171494,8.53221162 117.972627,8.50670458 L117.972607,8.50711821 Z M118.626912,4.99094996 C119.18294,4.96693657 119.168625,4.9794603 119.124689,4.55580218 C119.071955,4.04702867 118.93051,3.77347143 118.634903,3.60836506 C118.508451,3.53770367 118.458454,3.52701828 118.256728,3.52701828 C118.039525,3.52701828 118.010915,3.53391208 117.820919,3.64007651 C117.554881,3.78790244 117.412578,3.95229645 117.28752,4.25624384 C117.20569,4.45522172 117.081511,4.8953675 117.081511,4.98668729 C117.081511,5.01529654 118.003359,5.01793916 118.626912,4.99128316 L118.626912,4.99094996 Z" id="na-tagline" fill="#000000" fill-rule="nonzero"></path>
    </g>
</svg>