<?xml version="1.0" encoding="UTF-8"?>
<svg id="Layer_2" data-name="Layer 2" xmlns="http://www.w3.org/2000/svg" viewBox="0 0 118.1 9.96">
  <defs>
    <style>
      .cls-1 {
        fill-rule: evenodd;
        stroke-width: 0px;
      }
    </style>
  </defs>
  <g id="svg3857">
    <path id="text3" class="cls-1" d="m1.97.36h2.75l-.05.2c-.35.01-.6.11-.75.28-.15.17-.31.55-.49,1.13l-1.2,4.03c-.14.48-.21.8-.21.96,0,.09.04.19.11.29.07.1.28.15.63.15h.94c.5,0,.82-.04.97-.11.15-.08.34-.48.56-1.22l1.21-4.12c.12-.42.18-.71.18-.87,0-.32-.18-.48-.55-.5l.06-.2h2.56l-.06.2c-.27,0-.49.06-.65.18-.16.12-.31.4-.44.86l-1.33,4.47c-.14.46-.21.75-.21.88,0,.15.06.26.19.33.13.07.36.1.69.1h1.08c.38,0,.63-.05.76-.16.14-.11.29-.43.44-.96l1.29-4.36c.11-.38.16-.66.16-.85,0-.16-.04-.28-.11-.36-.07-.08-.21-.13-.43-.14l.06-.2h2.55l-.06.2c-.36.03-.61.13-.75.31-.14.17-.29.54-.46,1.1l-1.22,4.16c-.15.52-.23.82-.23.92,0,.33.31.51.93.52l-.06.2H0l.05-.2c.34,0,.58-.08.7-.23.13-.16.28-.54.46-1.15L2.49,1.91c.12-.4.18-.69.18-.87,0-.16-.05-.28-.14-.35-.09-.07-.3-.11-.62-.13l.06-.2Zm11.16,2.59h3.22l-1.08,3.65c-.08.28-.12.47-.12.56,0,.12.05.19.16.19.09,0,.19-.05.29-.15.11-.11.26-.3.47-.59l.19.12c-.29.4-.56.7-.79.89-.23.19-.47.28-.73.28-.31,0-.47-.16-.47-.48,0-.16.07-.5.22-1l.92-3.14h-.66c-.27,0-.43.02-.5.05-.07.03-.13.11-.18.23-.05.12-.15.44-.3.93-.43,1.43-.77,2.35-1.03,2.77-.25.42-.55.63-.88.63-.36,0-.54-.14-.54-.43,0-.12.04-.21.11-.29.07-.08.16-.13.28-.13.11,0,.22.05.34.15.08.06.15.09.21.09.11,0,.23-.09.36-.28.13-.19.36-.77.67-1.75.32-.98.48-1.54.48-1.69,0-.23-.23-.37-.69-.4l.05-.21Zm4.98,2.16h1.79l-.08.27h-1.8c-.08.25-.11.5-.11.75,0,.37.09.68.28.92.19.24.49.37.89.37.57,0,1.16-.32,1.76-.97l.17.14c-.68.87-1.47,1.31-2.36,1.31-.58,0-1-.16-1.27-.48-.27-.32-.4-.7-.4-1.13,0-.85.34-1.64,1.02-2.38.68-.73,1.44-1.1,2.27-1.1.2,0,.45.03.75.1.12.03.21.04.26.04.1,0,.18-.05.23-.14h.2l-.43,1.53h-.21c.01-.09.02-.18.02-.26,0-.33-.09-.59-.26-.75-.17-.17-.38-.25-.62-.25-.38,0-.78.19-1.21.57-.42.38-.72.86-.9,1.44h0ZM27.16,0h.22c-.05.27-.17.51-.35.71-.17.2-.36.34-.56.4-.19.07-.51.11-.96.14-.43.03-.76.09-.99.16-.22.07-.44.2-.66.4-.21.2-.43.51-.66.93-.22.42-.44.95-.66,1.59.76-1.01,1.63-1.51,2.59-1.51.47,0,.85.15,1.16.46s.46.74.46,1.29c0,.87-.31,1.64-.94,2.31-.63.67-1.36,1.01-2.2,1.01-.54,0-.95-.17-1.23-.52-.28-.35-.43-.78-.43-1.29,0-.71.18-1.54.54-2.47.36-.94.73-1.63,1.12-2.08.39-.46.77-.75,1.13-.89.37-.14.88-.23,1.52-.26.32-.02.53-.05.63-.09.1-.04.18-.13.25-.28h0Zm-2.05,3.06c-.6,0-1.14.38-1.59,1.13-.46.75-.69,1.53-.69,2.33,0,.39.1.68.3.86.2.18.43.27.68.27.58,0,1.07-.41,1.48-1.23.42-.82.62-1.63.62-2.44,0-.32-.08-.55-.23-.7-.15-.15-.34-.22-.56-.22h0Zm7.12,1.47c0,.55-.15,1.09-.44,1.62-.29.54-.69.96-1.21,1.27s-1.02.47-1.51.47-.91-.16-1.22-.48c-.31-.32-.47-.73-.47-1.24,0-.54.15-1.07.46-1.61.31-.54.72-.96,1.23-1.28.52-.31,1.02-.47,1.5-.47s.88.16,1.19.48c.31.32.47.73.47,1.23Zm-.91-.38c0-.34-.08-.6-.25-.78-.16-.18-.38-.27-.64-.27-.54,0-1.03.38-1.48,1.15-.45.76-.67,1.53-.67,2.28,0,.35.09.61.26.8.17.19.4.28.66.28.51,0,.99-.38,1.44-1.14.45-.76.68-1.54.68-2.33Zm3.57-3.95L34.99,0c.84.28,1.52.78,2.03,1.52.51.74.77,1.56.77,2.47,0,1.07-.33,1.99-.98,2.76-.65.77-1.42,1.15-2.32,1.15-.5,0-.91-.16-1.21-.49-.3-.33-.45-.74-.45-1.25,0-.84.34-1.61,1.02-2.3.68-.69,1.36-1.03,2.03-1.03.38,0,.71.14,1,.42-.07-1.55-.74-2.57-1.99-3.03Zm.98,2.91c-.53,0-1.02.38-1.47,1.14-.45.76-.68,1.51-.68,2.25,0,.36.09.64.26.84s.41.29.7.29c.48,0,.94-.38,1.39-1.13.46-.75.68-1.51.68-2.28s-.3-1.1-.9-1.1h0Zm2.89.05l1.68-.34h.2l-.65,2.29h1.88l.62-2.16h.84l-1.1,3.77c-.06.21-.09.34-.09.4,0,.09.04.14.12.14.16,0,.43-.24.8-.72l.19.1c-.58.84-1.09,1.26-1.55,1.26-.28,0-.43-.17-.43-.51,0-.17.07-.49.21-.97l.3-1.03h-1.89l-.69,2.38h-.82l1.06-3.64c.08-.28.12-.45.12-.53,0-.2-.12-.29-.37-.29-.06,0-.2.01-.44.04v-.18Zm10.2-.34l-1.07,3.7-.12.5s-.02.09-.02.12c0,.06.02.11.05.15.03.03.07.05.11.05.05,0,.11-.03.19-.09.14-.11.33-.32.57-.66l.19.13c-.25.38-.51.67-.78.87-.27.2-.51.29-.74.29-.16,0-.27-.04-.36-.12-.08-.08-.11-.19-.11-.34,0-.18.04-.41.12-.7l.11-.41c-.48.62-.92,1.06-1.32,1.31-.29.18-.57.27-.85.27s-.5-.11-.69-.33c-.19-.22-.29-.53-.29-.91,0-.58.17-1.19.52-1.83.35-.64.79-1.16,1.33-1.55.42-.31.81-.46,1.19-.46.22,0,.41.06.55.17.15.12.26.31.34.58l.2-.62.87-.13Zm-1.94.28c-.23,0-.48.11-.74.33-.37.31-.7.77-.99,1.38-.29.61-.43,1.16-.43,1.65,0,.25.06.44.19.59.12.14.27.21.43.21.4,0,.83-.29,1.29-.88.62-.78.93-1.58.93-2.4,0-.31-.06-.53-.18-.67-.12-.14-.28-.21-.49-.21Zm8.71-2.35l-.85,2.93h.69c.5,0,.85-.07,1.08-.22.22-.15.41-.43.57-.84h.2l-.76,2.69h-.22c.07-.23.1-.42.1-.58s-.03-.28-.1-.38c-.06-.09-.15-.16-.26-.21-.11-.05-.34-.07-.7-.07h-.7l-.72,2.45c-.07.24-.1.42-.1.54,0,.09.05.18.14.25.06.05.22.08.46.08h.66c.71,0,1.28-.13,1.7-.38.43-.25.81-.69,1.15-1.31h.2l-.7,2.06h-5.72l.07-.2c.28,0,.48-.03.57-.08.15-.07.25-.15.32-.25.1-.15.21-.46.35-.94l1.3-4.47c.1-.36.15-.64.15-.82,0-.14-.05-.25-.15-.32-.09-.08-.28-.12-.56-.12h-.11l.07-.2h5.32l-.46,1.79h-.2c.03-.17.04-.31.04-.42,0-.19-.05-.36-.14-.49-.12-.17-.3-.29-.54-.38-.17-.07-.58-.1-1.21-.1h-.94Zm3.81,2.4l1.68-.34h.2l-.65,2.29h1.88l.62-2.16h.84l-1.1,3.77c-.06.21-.09.34-.09.4,0,.09.04.14.12.14.16,0,.43-.24.8-.72l.19.1c-.58.84-1.09,1.26-1.55,1.26-.28,0-.43-.17-.43-.51,0-.17.07-.49.21-.97l.3-1.03h-1.89l-.69,2.38h-.82l1.06-3.64c.08-.28.12-.45.12-.53,0-.2-.12-.29-.37-.29-.06,0-.2.01-.44.04v-.18Zm9.2,4.55c-.19.12-.38.19-.55.19-.29,0-.44-.15-.44-.44,0-.24.19-.99.56-2.24-1.05,1.79-1.94,2.68-2.69,2.68-.2,0-.36-.06-.46-.19-.11-.12-.16-.28-.16-.46,0-.25.08-.66.24-1.22l.48-1.69c.12-.41.17-.65.17-.73,0-.12-.05-.19-.16-.19-.14,0-.38.23-.73.69l-.17-.12c.51-.78,1.01-1.17,1.51-1.17.13,0,.24.04.33.13.09.08.13.19.13.33,0,.19-.07.54-.22,1.05l-.51,1.76c-.14.48-.21.78-.21.91,0,.15.09.23.26.23.13,0,.3-.07.51-.21.21-.14.5-.47.88-.98.38-.51.65-.93.8-1.27.16-.33.33-.81.51-1.41l.12-.42h.83l-.95,3.26c-.14.49-.21.8-.21.93,0,.12.04.17.13.17.06,0,.13-.03.21-.09.09-.06.27-.28.56-.67l.17.13c-.04.06-.1.15-.19.27-.08.11-.2.3-.38.57-.11.17-.21.32-.31.44-.15.19-.23.31-.23.37,0,.02.02.08.05.18.03.09.05.18.05.27,0,.27-.12.51-.35.72-.23.21-.51.36-.84.45l-.1-.19c.4-.21.61-.49.61-.82,0-.04,0-.1-.03-.16-.01-.07-.02-.12-.02-.14,0-.08.02-.15.05-.2.03-.05.11-.13.25-.23.31-.25.48-.42.52-.5h0Zm6.61-4.76l-.95,3.26c-.14.48-.21.79-.21.92,0,.07.01.11.03.15.03.03.06.04.1.04.06,0,.13-.03.2-.08.08-.06.27-.28.57-.68l.16.13c-.29.46-.58.79-.88,1-.2.14-.39.21-.58.21-.14,0-.25-.04-.33-.12-.08-.08-.12-.18-.12-.31s.02-.29.07-.49c.06-.27.22-.86.5-1.76-.62,1.02-1.14,1.72-1.56,2.1-.42.39-.8.58-1.16.58-.17,0-.31-.06-.43-.17-.12-.12-.17-.26-.17-.44,0-.27.08-.69.24-1.26l.48-1.69c.12-.4.17-.66.17-.75,0-.04-.02-.08-.05-.11-.03-.03-.06-.05-.1-.05-.08,0-.15.03-.23.08-.08.05-.25.26-.52.61l-.17-.12c.27-.42.56-.73.87-.93.23-.16.45-.23.64-.23.13,0,.24.04.33.13.09.08.13.19.13.33,0,.2-.07.55-.22,1.05l-.51,1.76c-.14.48-.21.78-.21.91,0,.07.02.13.07.17.05.04.11.06.19.06.12,0,.28-.06.47-.18.19-.12.45-.39.77-.8.32-.42.59-.8.8-1.16.21-.36.44-.94.67-1.73l.12-.42h.83Zm.9.2l1.68-.33h.21l-.7,2.38c.13,0,.21.01.23.01.59,0,1.05-.38,1.39-1.13.19-.42.31-.69.39-.81.08-.13.18-.24.3-.32.13-.09.27-.13.43-.13.2,0,.36.06.49.19.13.12.2.27.2.44,0,.14-.05.26-.14.37-.09.1-.2.15-.33.15-.15,0-.29-.09-.41-.27-.08-.13-.16-.19-.22-.19-.1,0-.22.17-.36.5-.3.72-.63,1.15-1,1.3.16.08.29.2.41.37.12.17.35.58.69,1.22.15.3.3.48.43.55.14.07.3.11.5.13l-.07.2h-1.31c-.32-.68-.59-1.22-.81-1.59-.22-.38-.38-.6-.48-.65-.09-.05-.23-.08-.41-.08l-.68,2.33h-.82l1.08-3.69c.07-.23.1-.39.1-.48,0-.19-.13-.29-.39-.29-.08,0-.22.01-.43.04v-.19Zm6.19-.2h3.22l-1.08,3.65c-.08.28-.12.47-.12.56,0,.12.05.19.16.19.09,0,.19-.05.29-.15.11-.11.26-.3.47-.59l.19.12c-.29.4-.56.7-.79.89-.23.19-.47.28-.73.28-.31,0-.47-.16-.47-.48,0-.16.07-.5.22-1l.92-3.14h-.66c-.27,0-.43.02-.5.05-.07.03-.13.11-.18.23-.05.12-.15.44-.3.93-.43,1.43-.77,2.35-1.03,2.77-.25.42-.55.63-.88.63-.36,0-.54-.14-.54-.43,0-.12.04-.21.11-.29.07-.08.16-.13.28-.13.11,0,.22.05.34.15.08.06.15.09.21.09.11,0,.23-.09.36-.28.13-.19.36-.77.67-1.75s.48-1.54.48-1.69c0-.23-.23-.37-.69-.4l.05-.21Zm8.88,1.58c0,.55-.15,1.09-.44,1.62-.29.54-.69.96-1.21,1.27s-1.02.47-1.51.47-.91-.16-1.22-.48c-.31-.32-.47-.73-.47-1.24,0-.54.15-1.07.46-1.61.31-.54.72-.96,1.23-1.28.52-.31,1.02-.47,1.5-.47s.88.16,1.19.48c.31.32.47.73.47,1.23h0Zm-.91-.38c0-.34-.08-.6-.25-.78-.16-.18-.38-.27-.64-.27-.54,0-1.03.38-1.48,1.15-.45.76-.67,1.53-.67,2.28,0,.35.09.61.26.8.17.19.4.28.66.28.51,0,.99-.38,1.44-1.14.45-.76.68-1.54.68-2.33Zm3.8-1.33l-.73,2.49c.68-1.02,1.2-1.68,1.56-2,.36-.32.71-.48,1.05-.48.18,0,.33.06.45.18.12.12.18.28.18.47,0,.22-.05.51-.16.87l-.67,2.3c-.08.27-.11.43-.11.49,0,.05.01.09.04.13.03.03.06.05.09.05.04,0,.1-.02.16-.07.19-.15.4-.39.63-.7l.17.1c-.34.48-.66.83-.96,1.04-.21.14-.4.21-.57.21-.13,0-.24-.04-.32-.13-.08-.08-.12-.19-.12-.33,0-.17.06-.48.19-.9l.63-2.2c.08-.27.12-.49.12-.64,0-.07-.02-.13-.07-.17-.05-.05-.11-.07-.17-.07-.1,0-.22.04-.37.13-.27.16-.55.44-.84.81-.29.38-.6.86-.92,1.44-.17.31-.31.65-.43,1.02l-.27.9h-.82l.99-3.42c.12-.41.17-.66.17-.74s-.03-.15-.1-.21c-.06-.06-.14-.09-.23-.09-.04,0-.12,0-.23.02l-.21.03-.03-.2,1.89-.34Zm4.46,2.88c-.03.18-.04.33-.04.45,0,.32.11.6.34.83.23.23.51.34.84.34.26,0,.51-.05.75-.16.24-.11.6-.35,1.08-.72l.11.16c-.86.86-1.69,1.28-2.47,1.28-.53,0-.93-.17-1.2-.5-.27-.33-.4-.7-.4-1.11,0-.54.17-1.1.5-1.67.33-.57.76-1.01,1.26-1.32.51-.32,1.03-.48,1.56-.48.39,0,.67.08.86.23.19.16.28.34.28.56,0,.3-.12.59-.36.87-.32.36-.78.65-1.4.87-.41.15-.98.27-1.72.35h0Zm.04-.27c.54-.06.98-.17,1.32-.32.45-.2.78-.44,1-.72.23-.28.34-.55.34-.8,0-.15-.05-.28-.15-.37-.09-.09-.23-.14-.41-.14-.37,0-.77.2-1.19.6-.42.39-.72.98-.92,1.75h0ZM104.39.21l.11-.21c.84.28,1.52.78,2.03,1.52.51.74.77,1.56.77,2.47,0,1.07-.33,1.99-.98,2.76-.65.77-1.42,1.15-2.32,1.15-.5,0-.91-.16-1.21-.49-.3-.33-.45-.74-.45-1.25,0-.84.34-1.61,1.02-2.3.68-.69,1.36-1.03,2.03-1.03.38,0,.71.14,1,.42-.07-1.55-.74-2.57-1.99-3.03Zm.98,2.91c-.53,0-1.02.38-1.47,1.14-.45.76-.68,1.51-.68,2.25,0,.36.09.64.26.84.17.19.41.29.7.29.48,0,.94-.38,1.39-1.13.46-.75.68-1.51.68-2.28s-.3-1.1-.9-1.1h0Zm7.55-.16l-.95,3.26c-.14.48-.21.79-.21.92,0,.07.01.11.03.15.03.03.06.04.1.04.06,0,.13-.03.2-.08.08-.06.27-.28.57-.68l.16.13c-.29.46-.58.79-.88,1-.2.14-.39.21-.58.21-.14,0-.25-.04-.33-.12-.08-.08-.12-.18-.12-.31s.02-.29.07-.49c.06-.27.22-.86.5-1.76-.62,1.02-1.14,1.72-1.56,2.1-.42.39-.8.58-1.16.58-.17,0-.31-.06-.43-.17s-.17-.26-.17-.44c0-.27.08-.69.24-1.26l.48-1.69c.12-.4.17-.66.17-.75,0-.04-.02-.08-.05-.11-.03-.03-.06-.05-.1-.05-.08,0-.15.03-.23.08-.08.05-.25.26-.52.61l-.17-.12c.27-.42.56-.73.87-.93.23-.16.45-.23.64-.23.13,0,.24.04.33.13.09.08.13.19.13.33,0,.2-.07.55-.22,1.05l-.51,1.76c-.14.48-.21.78-.21.91,0,.07.02.13.07.17.05.04.11.06.19.06.12,0,.28-.06.47-.18.19-.12.45-.39.77-.8.32-.42.59-.8.8-1.16.21-.36.44-.94.67-1.73l.12-.42h.83Zm5.18-.13l-1.14,4.07c-.03.12-.05.2-.05.25,0,.12.05.17.15.17.18,0,.47-.25.86-.75l.18.13c-.55.8-1.1,1.21-1.63,1.21-.16,0-.28-.04-.36-.13-.08-.09-.12-.19-.12-.3s.05-.31.14-.63l.4-1.45c-.11-.01-.18-.02-.22-.02-.17,0-.31.05-.44.15-.13.1-.36.34-.68.72l-1.31,1.52h-1.31l.05-.2c.18-.01.36-.08.55-.21.18-.12.44-.38.76-.78.67-.83,1.12-1.27,1.35-1.32-.79-.12-1.19-.48-1.19-1.07,0-.36.18-.68.54-.96.36-.28.95-.42,1.76-.42h1.72Zm-1.49,2.28l.55-1.94c-.19-.05-.4-.07-.63-.07-.54,0-.92.13-1.16.4-.24.26-.36.54-.36.84,0,.52.42.79,1.25.79.1,0,.22,0,.36-.01h0Z"/>
  </g>
</svg>