<?xml version="1.0" encoding="UTF-8"?>
<svg width="119px" height="12px" viewBox="0 0 119 12" version="1.1" xmlns="http://www.w3.org/2000/svg" xmlns:xlink="http://www.w3.org/1999/xlink">
    <title>lbe-tagline</title>
    <g id="Page-1" stroke="none" stroke-width="1" fill="none" fill-rule="evenodd">
        <path d="M3.63231003,6.74902855 L3.63231003,1.57497447 C3.63318899,1.36092252 3.68437239,1.18212086 3.78586234,1.03855721 C3.88734382,0.895018077 4.03383687,0.820422359 4.22534043,0.814794576 L4.88190954,0.814794576 C5.16032809,0.803318312 5.35006206,0.875339226 5.45111253,1.0308941 C5.55215135,1.18646124 5.64128281,1.49451801 5.71850587,1.95505215 C5.77831056,1.95518702 5.83818725,1.9530904 5.89813491,1.94877454 C5.95807197,1.94445868 6.01821341,1.92611627 6.07855925,1.89374732 C6.03575251,1.57905737 6.00221834,1.26130217 5.97795568,0.940469478 C5.95368137,0.619661302 5.94132712,0.308024329 5.94089187,0.00558308101 C5.83498803,0.00416080895 5.72908948,0.0205169376 5.62319728,0.054626945 C5.62738243,0.0985702472 5.61635193,0.154762254 5.59010365,0.223215228 C5.56384372,0.291680462 5.49721699,0.32948102 5.39022131,0.336629163 L0.783647583,0.336629163 C0.6770861,0.32948102 0.612223648,0.291680462 0.589059168,0.223215228 C0.565892569,0.154762254 0.556627412,0.0985702472 0.56126052,0.054626945 C0.521768437,0.0363458447 0.477379557,0.02143651 0.428093878,0.00987441911 C0.378806082,-0.0016631499 0.313767836,-0.00308542195 0.232975965,0.00558308101 C0.212679246,0.306491709 0.184438997,0.61506344 0.148257336,0.931273753 C0.112075675,1.24750859 0.0626565633,1.56832902 0,1.89374732 C0.106251197,1.94054743 0.226269343,1.96098646 0.360054438,1.95505215 C0.455141698,1.47841936 0.564128281,1.16577699 0.687015248,1.01710052 C0.809900096,0.868448563 1.01154778,0.80101325 1.2919583,0.814794576 L2.12855463,0.814794576 C2.32512548,0.8211948 2.47470656,0.894245636 2.57729893,1.03395934 C2.67988494,1.17368531 2.73150994,1.34177089 2.73217499,1.53819157 L2.73217499,6.74902855 C2.74232017,7.23843727 2.67701718,7.547009 2.53626283,7.67471923 C2.39550425,7.80244171 2.11840415,7.86578186 1.70496148,7.8647642 C1.67319054,7.9092102 1.6573056,7.97664551 1.65730772,8.06707014 C1.6573056,8.15749476 1.67319054,8.22493008 1.70496148,8.26937608 C1.95735096,8.26298811 2.19650405,8.25736033 2.42242287,8.25251725 C2.64833639,8.24766191 2.90337442,8.24509936 3.18753696,8.24485415 C3.46595762,8.24509936 3.71658388,8.24766191 3.93941466,8.25251725 C4.16223803,8.25736033 4.40227432,8.26298811 4.65952248,8.26937608 C4.69128707,8.22493008 4.70717201,8.15749476 4.7071773,8.06707014 C4.70717201,7.97664551 4.69128812,7.9092102 4.65952248,7.8647642 C4.24607451,7.86578186 3.96897442,7.80244171 3.82822113,7.67471923 C3.68746149,7.547009 3.62215743,7.23843727 3.63231003,6.74902855 L3.63231003,6.74902855 Z M9.25442925,5.38808585 L9.25442925,7.01876981 C9.25354287,7.09719094 9.23942327,7.16104606 9.2120694,7.2103474 C9.18470918,7.25963648 9.14940966,7.30204716 9.10617085,7.33755492 C8.96541121,7.47216807 8.8127421,7.59221519 8.64816139,7.69770854 C8.4835754,7.80320189 8.32561024,7.8588912 8.17426699,7.8647642 C7.91084277,7.85224575 7.71757916,7.75467299 7.59447404,7.57203364 C7.47136574,7.38940655 7.41047453,7.19681129 7.41179933,6.99424787 C7.40487032,6.71168165 7.47485196,6.4479728 7.62174213,6.2031213 C7.76863019,5.95825755 8.03399343,5.77240583 8.41783292,5.64555388 L9.25442925,5.38808585 Z M9.25442925,7.65632778 C9.28085544,7.79860403 9.35401406,7.94931582 9.47390301,8.1084509 C9.59378561,8.26758598 9.7924321,8.35391544 10.0698457,8.36745154 C10.3343659,8.34829992 10.5492511,8.26400577 10.7145011,8.11458138 C10.8797415,7.96514473 10.9649017,7.86552438 10.9699807,7.81572034 C10.9668874,7.76948423 10.9492371,7.72402057 10.9170309,7.67931709 C10.8848152,7.63461361 10.856576,7.61060664 10.8323123,7.60728391 C10.8056573,7.61546198 10.7710631,7.64816197 10.7285328,7.70537164 C10.6859918,7.76259357 10.6111568,7.7952813 10.5040277,7.80345937 C10.3056851,7.7952813 10.1834611,7.69209302 10.1373556,7.49386998 C10.0912416,7.2956592 10.0722676,7.0514698 10.0804346,6.76128952 L10.0804346,4.93443011 C10.0621192,4.08640039 9.89224142,3.52342588 9.57079904,3.24550656 C9.24935136,2.96759951 8.88620889,2.83987703 8.48137163,2.86235138 C8.02865503,2.87768984 7.6288893,3.02174393 7.28207337,3.29455043 C6.93525638,3.56735692 6.75258167,3.87694631 6.7340503,4.22330634 C6.73427057,4.36992297 6.76559885,4.47823635 6.82803515,4.54820968 C6.89047038,4.61820753 6.98268988,4.65294285 7.1046947,4.65242789 C7.25846623,4.64553723 7.37451314,4.59802598 7.45283437,4.50989416 C7.53115349,4.4217746 7.57042424,4.33441522 7.57064663,4.24782827 C7.57064557,4.20415471 7.56799808,4.16277395 7.56270416,4.12368599 C7.55740812,4.08461029 7.54946565,4.05242526 7.53887675,4.02713089 C7.53336044,4.0092544 7.528506,3.98064956 7.52431555,3.94130412 C7.52012298,3.90197094 7.5179171,3.84884418 7.51769788,3.78191157 C7.52916787,3.59417165 7.62535966,3.46083365 7.80627008,3.38190981 C7.98717839,3.30298597 8.18397163,3.26467045 8.396653,3.26696325 C8.58991449,3.2467817 8.77788418,3.33925391 8.96056101,3.54436761 C9.14323254,3.74948131 9.24118862,4.18831354 9.25442925,4.86086431 C9.2537642,4.90377769 9.24714547,4.93749535 9.23457307,4.96201728 C9.22199432,4.98653921 9.20743312,5.00186542 9.19088948,5.0079959 L8.28016449,5.26547619 C7.76258544,5.41617572 7.34428727,5.64505118 7.02526999,5.95207803 C6.70625165,6.25910487 6.54210938,6.62285095 6.53284422,7.04329174 C6.54210938,7.52222959 6.67183534,7.86399176 6.92201999,8.06860276 C7.17220358,8.2732015 7.48725069,8.37282185 7.8671613,8.36745154 C8.099253,8.37204941 8.29428196,8.33833175 8.45224923,8.26631084 C8.61021227,8.19427766 8.79994625,8.05634179 9.02145222,7.85250323 L9.23324933,7.65632778 L9.25442925,7.65632778 Z M12.8024135,4.43174276 C12.9281651,4.10555202 13.0976023,3.85676476 13.3107253,3.68535646 C13.523843,3.51397268 13.7250491,3.42763095 13.9143446,3.42635581 C14.2432879,3.42814591 14.5093564,3.62074117 14.7125523,4.00414157 C14.9157409,4.38755424 15.0203157,4.95103146 15.0262768,5.69459774 C15.0414956,6.24990915 14.9607482,6.75772158 14.7840346,7.2180105 C14.6073125,7.67829943 14.2432879,7.92248883 13.6919586,7.95059096 C13.6039285,7.96004417 13.4808213,7.93500727 13.322638,7.87549254 C13.1644504,7.81597782 12.991043,7.66526602 12.8024135,7.42336942 L12.8024135,4.43174276 Z M12.8024135,2.98496104 L12.7812336,2.9604391 C12.7741722,2.96146903 12.7274006,2.96555193 12.6409187,2.97270007 C12.5544327,2.97986047 12.4705972,2.98394338 12.3894104,2.98496104 C12.1818037,2.98394338 11.9536822,2.97986047 11.7050426,2.97270007 C11.456402,2.96555193 11.3209405,2.96146903 11.2986581,2.9604391 L11.2774782,2.98496104 L11.2774782,3.21791939 C11.2792436,3.27820656 11.3074827,3.3108943 11.3621968,3.31600712 L11.563404,3.34052905 C11.7371196,3.36033051 11.8572256,3.41268484 11.9237221,3.49761655 C11.9902165,3.58254826 12.0218974,3.71001326 12.018766,3.87999929 L12.018766,10.1943232 C12.0193166,10.3646158 11.9824731,10.4926816 11.9082354,10.5785451 C11.8339955,10.6643841 11.719051,10.7161377 11.563404,10.7337935 L11.3621968,10.7583154 C11.3074827,10.763416 11.2792436,10.796116 11.2774782,10.8564031 L11.2774782,11.0893615 L11.2986581,11.1138834 C11.3209405,11.1128535 11.456402,11.1087706 11.7050426,11.1016224 C11.9536822,11.094462 12.1818037,11.0903791 12.3894104,11.0893615 C12.6177521,11.0903791 12.8599933,11.094462 13.1161369,11.1016224 C13.3722763,11.1087706 13.5112674,11.1128535 13.5331113,11.1138834 L13.5542912,11.0893615 L13.5542912,10.8564031 C13.5536262,10.8258733 13.54436,10.8026265 13.5264926,10.7866627 C13.5086199,10.770699 13.4861162,10.7612458 13.4589826,10.7583154 L13.2577755,10.7337935 C13.0933219,10.715071 12.9758633,10.6630109 12.9053988,10.5776255 C12.8349311,10.4922279 12.8006027,10.3644564 12.8024135,10.1943232 L12.8024135,8.09772255 C12.938755,8.18405201 13.0843649,8.25046967 13.2392431,8.29696325 C13.394117,8.34344457 13.5662018,8.36694884 13.7554973,8.36745154 C14.0292859,8.36873895 14.2812349,8.3140673 14.5113463,8.20347339 C14.7414502,8.09286721 14.9589828,7.91866341 15.1639441,7.68084971 C15.4033143,7.39961993 15.5864296,7.06704123 15.7132909,6.68312586 C15.8401438,6.29921049 15.9041242,5.8593606 15.9052319,5.36356392 C15.8983876,4.69075567 15.7426294,4.11142503 15.4379551,3.62558425 C15.1332735,3.13975573 14.7207119,2.88535295 14.2002704,2.86235138 C14.0242112,2.84958771 13.8097677,2.90577972 13.5569387,3.03093966 C13.3041034,3.15611186 13.0525961,3.42687077 12.8024135,3.8432164 L12.7706437,3.8432164 L12.8024135,2.98496104 Z M18.2345658,3.85547736 C18.1042648,3.6345838 18.0654356,3.50319529 18.1180773,3.46129957 C18.1707157,3.41940384 18.3119128,3.38732916 18.5416704,3.36505098 C18.5734371,3.32060498 18.5893221,3.25316967 18.5893242,3.16274504 C18.5893221,3.07232042 18.5734371,3.00488511 18.5416704,2.9604391 C18.1480797,2.97474765 17.791556,2.98292572 17.4720981,2.98496104 C17.3196472,2.98471582 17.1771264,2.98215327 17.0445338,2.97729793 C16.911939,2.97245485 16.7508858,2.96682707 16.5613731,2.9604391 C16.5296033,3.00488511 16.5137183,3.07232042 16.5137183,3.16274504 C16.5137183,3.25316967 16.5296033,3.32060498 16.5613731,3.36505098 C16.7400099,3.38089215 16.9066673,3.44729754 17.0613453,3.56427942 C17.2160212,3.68127356 17.3670595,3.86417039 17.5144569,4.11295765 L18.4357719,5.67007581 C18.4529562,5.69621619 18.4651781,5.72425702 18.4724386,5.75422282 C18.4796959,5.78418862 18.4710026,5.81744036 18.4463618,5.8539903 L17.5568168,7.17816236 C17.3425924,7.4948999 17.1621247,7.68902777 17.0154114,7.76054599 C16.868698,7.8320642 16.7067617,7.86681178 16.5296033,7.8647642 C16.4978334,7.9092102 16.4819495,7.97664551 16.4819495,8.06707014 C16.4819495,8.15749476 16.4978344,8.22493008 16.5296033,8.26937608 C16.7089686,8.26298811 16.8373698,8.25736033 16.9148078,8.25251725 C16.9922458,8.24766191 17.1179995,8.24509936 17.2920709,8.24485415 C17.4807004,8.24509936 17.6302814,8.24766191 17.7408142,8.25251725 C17.8513448,8.25736033 17.9982784,8.26298811 18.181616,8.26937608 C18.2133838,8.22493008 18.2292687,8.15749476 18.2292698,8.06707014 C18.2292687,7.97664551 18.2133838,7.9092102 18.181616,7.8647642 C18.0345701,7.8475498 17.9323347,7.8071867 17.8749085,7.74368716 C17.8174791,7.68018762 17.8420563,7.55707526 17.94864,7.37432556 L18.6157991,6.25860218 C18.6507428,6.19336158 18.6809242,6.15740016 18.7063422,6.15070567 C18.7317549,6.14401119 18.7651133,6.1718068 18.8064163,6.23408024 L19.4206255,7.21494526 C19.6074886,7.51152577 19.6758807,7.68987378 19.6258029,7.74997704 C19.5757187,7.81008029 19.4614371,7.8483345 19.2829582,7.8647642 C19.2511851,7.9092102 19.2353002,7.97664551 19.2353033,8.06707014 C19.2353012,8.15749476 19.2511851,8.22493008 19.2829582,8.26937608 C19.4764399,8.26298811 19.6613205,8.25736033 19.8376,8.25251725 C20.013872,8.24766191 20.1961051,8.24509936 20.3842993,8.24485415 C20.5729266,8.24509936 20.7225077,8.24766191 20.8330436,8.25251725 C20.94357,8.25736033 21.0905035,8.26298811 21.2738454,8.26937608 C21.305609,8.22493008 21.3214992,8.15749476 21.3214992,8.06707014 C21.3214992,7.97664551 21.30561,7.9092102 21.2738454,7.8647642 C21.1127647,7.86384463 20.9525492,7.82522258 20.7931999,7.74889807 C20.6338401,7.67257356 20.4410615,7.45371531 20.214862,7.0923356 L19.2617782,5.53520518 C19.234903,5.48540114 19.2248426,5.44677909 19.2315969,5.41935131 C19.2383448,5.39191127 19.2484052,5.36922848 19.2617782,5.35130295 L20.1513233,4.03939185 C20.3413845,3.7614848 20.513249,3.58166547 20.6669157,3.49992161 C20.8205739,3.41817775 20.9911136,3.37322905 21.1785368,3.36505098 C21.2103014,3.32060498 21.2261853,3.25316967 21.2261906,3.16274504 C21.2261864,3.07232042 21.2103014,3.00488511 21.1785368,2.9604391 C21.0516744,2.96682707 20.9320979,2.97245485 20.8198061,2.97729793 C20.7075049,2.98215327 20.569397,2.98471582 20.4054792,2.98496104 C20.2492752,2.98471582 20.1089603,2.98215327 19.9845336,2.97729793 C19.8600994,2.97245485 19.7038996,2.96682707 19.5159341,2.9604391 C19.4841611,3.00488511 19.4682761,3.07232042 19.4682793,3.16274504 C19.4682772,3.25316967 19.4841611,3.32060498 19.5159341,3.36505098 C19.6981418,3.38117415 19.8184681,3.41666965 19.8769152,3.47156199 C19.9353538,3.52645434 19.8997461,3.6585172 19.77009,3.86773833 L19.081751,4.98347397 C19.061915,5.01893269 19.0364556,5.04366305 19.005372,5.05765282 C18.9742841,5.07165484 18.9326751,5.03875867 18.8805449,4.95895204 L18.2345658,3.85547736 Z M23.5743863,7.33755492 C23.5791052,7.513181 23.5506002,7.64376029 23.4888724,7.72928052 C23.4271414,7.81480076 23.3038583,7.86813596 23.1190233,7.88928613 L22.9178161,7.91380806 C22.863101,7.91892089 22.8348618,7.95160862 22.8330986,8.01189579 L22.8330986,8.24485415 L22.8542774,8.26937608 C22.873117,8.26834616 23.001695,8.26426325 23.2400125,8.25711511 C23.4783258,8.24995471 23.7133308,8.24587181 23.9450297,8.24485415 C24.1744294,8.24587181 24.4071406,8.24995471 24.6431644,8.25711511 C24.8791818,8.26426325 25.0065239,8.26834616 25.0251919,8.26937608 C25.620424,8.26324559 26.0740206,8.10998352 26.3859839,7.80958985 C26.6979377,7.50919619 26.8550196,7.09846609 26.8572319,6.57737503 C26.8422238,6.01185023 26.6551373,5.62257682 26.2959703,5.40954254 C25.9367948,5.19650826 25.4955524,5.09535529 24.9722432,5.10608363 L24.3686228,5.10608363 L24.3686228,3.86773833 C24.3625082,3.65979234 24.3855858,3.52180743 24.4378536,3.45378359 C24.4901161,3.38577201 24.6082365,3.3480205 24.7922159,3.34052905 L25.1205005,3.31600712 C25.1366015,3.31544311 25.1493973,3.31105369 25.158888,3.30282658 C25.1683714,3.29459947 25.1732247,3.27856213 25.1734492,3.25470229 L25.1734492,2.98496104 L25.1522693,2.9604391 L23.9767995,2.98496104 L21.9011937,2.98496104 C21.8958976,3.33694885 21.8826612,3.65981687 21.8614813,3.95356509 C21.8403014,4.24731331 21.81118,4.53339843 21.7741152,4.81182045 L22.060041,4.87312528 C22.1348304,4.37350317 22.2499952,4.00873944 22.4055342,3.77884632 C22.5610711,3.54896547 22.8483195,3.43555154 23.2672806,3.43861678 C23.3820027,3.43325874 23.4623085,3.46850901 23.5081991,3.54436761 C23.5540864,3.62022621 23.5761485,3.76889042 23.5743863,3.99034799 L23.5743863,7.33755492 Z M26.0629943,6.69998469 C26.0532823,7.18939341 25.9482669,7.51329135 25.7479472,7.67165398 C25.547619,7.83002888 25.3102313,7.90256476 25.0357819,7.88928613 C24.7948592,7.89183641 24.6227755,7.84688771 24.5195276,7.75441551 C24.4162734,7.66195556 24.3659721,7.5066459 24.3686228,7.28851106 L24.3686228,5.49842228 L25.0781407,5.49842228 C25.4481189,5.50788775 25.7062461,5.62691721 25.852522,5.85552292 C25.9987895,6.08414089 26.0689469,6.36562815 26.0629943,6.69998469 L26.0629943,6.69998469 Z M30.2895664,5.38808585 L30.2895664,7.01876981 C30.288681,7.09719094 30.2745604,7.16104606 30.2472065,7.2103474 C30.2198463,7.25963648 30.1845478,7.30204716 30.141309,7.33755492 C30.0005494,7.47216807 29.8478792,7.59221519 29.6832985,7.69770854 C29.5187125,7.80320189 29.3607484,7.8588912 29.2094041,7.8647642 C28.9459799,7.85224575 28.7527163,7.75467299 28.6296112,7.57203364 C28.5065029,7.38940655 28.4456116,7.19681129 28.4469364,6.99424787 C28.4400074,6.71168165 28.5099891,6.4479728 28.6568803,6.2031213 C28.8037684,5.95825755 29.0691316,5.77240583 29.45297,5.64555388 L30.2895664,5.38808585 Z M30.2895664,7.65632778 C30.3159936,7.79860403 30.3891512,7.94931582 30.5090401,8.1084509 C30.6289227,8.26758598 30.8275703,8.35391544 31.1049828,8.36745154 C31.369503,8.34829992 31.5843882,8.26400577 31.7496382,8.11458138 C31.9148786,7.96514473 32.0000389,7.86552438 32.0051178,7.81572034 C32.0020245,7.76948423 31.9843742,7.72402057 31.9521691,7.67931709 C31.9199533,7.63461361 31.8917131,7.61060664 31.8674504,7.60728391 C31.8407944,7.61546198 31.8062013,7.64816197 31.7636699,7.70537164 C31.7211289,7.76259357 31.646295,7.7952813 31.5391659,7.80345937 C31.3408223,7.7952813 31.2185982,7.69209302 31.1724927,7.49386998 C31.1263787,7.2956592 31.1074058,7.0514698 31.1155727,6.76128952 L31.1155727,4.93443011 C31.0972574,4.08640039 30.9273785,3.52342588 30.6059372,3.24550656 C30.2844885,2.96759951 29.921346,2.83987703 29.5165087,2.86235138 C29.0637921,2.87768984 28.6640264,3.02174393 28.3172105,3.29455043 C27.9703935,3.56735692 27.7877188,3.87694631 27.7691874,4.22330634 C27.7694077,4.36992297 27.800736,4.47823635 27.8631723,4.54820968 C27.9256075,4.61820753 28.017827,4.65294285 28.1398318,4.65242789 C28.2936033,4.64553723 28.4096503,4.59802598 28.4879725,4.50989416 C28.5662917,4.4217746 28.6055614,4.33441522 28.6057837,4.24782827 C28.6057827,4.20415471 28.6031352,4.16277395 28.5978413,4.12368599 C28.5925452,4.08461029 28.5846028,4.05242526 28.5740149,4.02713089 C28.5684975,4.0092544 28.5636442,3.98064956 28.5594537,3.94130412 C28.5552601,3.90197094 28.5530542,3.84884418 28.552835,3.78191157 C28.564306,3.59417165 28.6604968,3.46083365 28.8414072,3.38190981 C29.0223155,3.30298597 29.2191098,3.26467045 29.4317901,3.26696325 C29.6250516,3.2467817 29.8130213,3.33925391 29.9956981,3.54436761 C30.1783697,3.74948131 30.2763257,4.18831354 30.2895664,4.86086431 C30.2889013,4.90377769 30.2822826,4.93749535 30.2697102,4.96201728 C30.2571314,4.98653921 30.2425702,5.00186542 30.2260277,5.0079959 L29.3153027,5.26547619 C28.7977225,5.41617572 28.3794254,5.64505118 28.0604082,5.95207803 C27.7413888,6.25910487 27.5772465,6.62285095 27.5679813,7.04329174 C27.5772465,7.52222959 27.7069725,7.86399176 27.9571571,8.06860276 C28.2073407,8.2732015 28.5223878,8.37282185 28.9022995,8.36745154 C29.1343901,8.37204941 29.3294201,8.33833175 29.4873863,8.26631084 C29.6453494,8.19427766 29.8350834,8.05634179 30.0565904,7.85250323 L30.2683864,7.65632778 L30.2895664,7.65632778 Z M36.0825938,7.30077202 C36.0887222,7.52697459 36.0648069,7.67901056 36.0108468,7.7568677 C35.9568793,7.83472483 35.8360669,7.87886431 35.6484107,7.88928613 L35.3730749,7.91380806 C35.3395375,7.91708174 35.3218872,7.93750851 35.3201261,7.97511289 L35.3201261,8.24485415 L35.3307161,8.26937608 C35.4935314,8.26298811 35.6762051,8.25736033 35.8787392,8.25251725 C36.0812658,8.24766191 36.2798244,8.24509936 36.474417,8.24485415 C36.6714274,8.24509936 36.8624851,8.24766191 37.0475913,8.25251725 C37.2326868,8.25736033 37.4052132,8.26298811 37.5651693,8.26937608 L37.5863481,8.24485415 L37.5863481,7.98737386 C37.5863481,7.94078219 37.5651629,7.91626026 37.5228094,7.91380806 L37.3110134,7.88928613 C37.1377097,7.87771178 37.0210009,7.83587736 36.960887,7.76377062 C36.9007625,7.69165162 36.8727436,7.53732284 36.8768303,7.30077202 L36.8768303,3.91678219 C36.8727436,3.67537603 36.9007625,3.52154995 36.960887,3.45531621 C37.0210009,3.38908248 37.1377097,3.35082826 37.3110134,3.34052905 L37.5228094,3.31600712 C37.5651629,3.31355492 37.5863481,3.28903299 37.5863481,3.24244132 L37.5863481,2.98496104 L37.5757592,2.9604391 C37.4153616,2.96682707 37.2410709,2.97245485 37.0528863,2.97729793 C36.864691,2.98215327 36.6718679,2.98471582 36.474417,2.98496104 C36.280266,2.98471582 36.0834717,2.98215327 35.8840341,2.97729793 C35.6845892,2.97245485 35.5036798,2.96682707 35.341306,2.9604391 L35.3201261,2.98496104 L35.3201261,3.25470229 C35.3203432,3.27856213 35.3251966,3.29459947 35.3346873,3.30282658 C35.3441706,3.31105369 35.3569665,3.31544311 35.3730749,3.31600712 L35.6484107,3.34052905 C35.8179983,3.34882972 35.9336481,3.39046796 35.99536,3.46543151 C36.0570635,3.54040732 36.0861414,3.69086163 36.0825938,3.91678219 L36.0825938,5.22869329 L33.9116793,5.22869329 L33.9116793,3.91678219 C33.9075958,3.67537603 33.9356147,3.52154995 33.9957361,3.45531621 C34.0558532,3.38908248 34.1725619,3.35082826 34.3458624,3.34052905 L34.5576585,3.31600712 C34.6000151,3.31355492 34.6211951,3.28903299 34.6211972,3.24244132 L34.6211972,2.98496104 L34.6106083,2.9604391 C34.4497722,2.96682707 34.2737173,2.97245485 34.0824403,2.97729793 C33.8911591,2.98215327 33.6965718,2.98471582 33.4986761,2.98496104 C33.3049699,2.98471582 33.1099398,2.98215327 32.9135882,2.97729793 C32.7172344,2.97245485 32.5380904,2.96682707 32.3761551,2.9604391 L32.3549752,2.98496104 L32.3549752,3.25470229 C32.3551954,3.27856213 32.3600488,3.29459947 32.3695364,3.30282658 C32.3790229,3.31105369 32.3918187,3.31544311 32.4079239,3.31600712 L32.6832597,3.34052905 C32.8528505,3.34882972 32.9685003,3.39046796 33.0302091,3.46543151 C33.0919157,3.54040732 33.1209936,3.69086163 33.1174428,3.91678219 L33.1174428,7.30077202 C33.1235744,7.52697459 33.0996591,7.67901056 33.0456958,7.7568677 C32.9917315,7.83472483 32.8709191,7.87886431 32.6832597,7.88928613 L32.4079239,7.91380806 C32.3743897,7.91708174 32.3567395,7.93750851 32.3549752,7.97511289 L32.3549752,8.24485415 L32.3655651,8.26937608 C32.5279421,8.26298811 32.7088514,8.25736033 32.9082932,8.25251725 C33.107734,8.24766191 33.3045283,8.24509936 33.4986761,8.24485415 C33.6961302,8.24509936 33.8889533,8.24766191 34.0771453,8.25251725 C34.2653332,8.25736033 34.4396238,8.26298811 34.6000183,8.26937608 L34.6211972,8.24485415 L34.6211972,7.98737386 C34.6211951,7.94078219 34.6000151,7.91626026 34.5576585,7.91380806 L34.3458624,7.88928613 C34.1725619,7.87771178 34.0558532,7.83587736 33.9957361,7.76377062 C33.9356147,7.69165162 33.9075958,7.53732284 33.9116793,7.30077202 L33.9116793,5.64555388 L36.0825938,5.64555388 L36.0825938,7.30077202 Z M42.1362433,7.1291185 C42.1143973,7.07445911 42.0839522,7.03358105 42.044906,7.00650884 C42.0058523,6.97943663 41.9621687,6.9630805 41.9138573,6.95746498 C41.7318403,7.22720623 41.5319579,7.42949991 41.3142082,7.56437053 C41.0964521,7.69924116 40.8727413,7.76667647 40.6430779,7.76667647 C40.2457362,7.75875589 39.9125983,7.54776918 39.643663,7.13371636 C39.3747246,6.71965128 39.2348503,6.15004358 39.2240411,5.42486875 C39.2306588,4.7449001 39.3444998,4.2166609 39.5655631,3.84015115 C39.7866243,3.46365367 40.0751965,3.27259104 40.4312818,3.26696325 C40.7333097,3.2759015 40.9314266,3.36530846 41.0256349,3.53517189 C41.1198379,3.70503531 41.1723451,3.90171346 41.1831595,4.12521861 C41.2003862,4.28844885 41.2437606,4.40338315 41.3132816,4.47005828 C41.3827962,4.53672115 41.4735596,4.56890619 41.5855728,4.56660113 C41.7044832,4.56788853 41.8187648,4.52549011 41.9284175,4.43940587 C42.0380627,4.35332162 42.0967481,4.21590072 42.1044734,4.02713089 C42.100499,3.68357862 41.9575356,3.4051566 41.6755853,3.19186484 C41.3936276,2.97858533 40.9965104,2.86873934 40.4842306,2.86235138 C39.9351019,2.87155936 39.4422346,3.12596215 39.0056263,3.62558425 C38.569016,4.12521861 38.3382459,4.81488569 38.3133161,5.69459774 C38.3172874,6.49793623 38.4999621,7.14112199 38.8613402,7.62414274 C39.2227163,8.10717576 39.7389695,8.35494536 40.4101019,8.36745154 C40.7269112,8.37869485 41.0278387,8.29798091 41.3128844,8.12530973 C41.5979238,7.95263854 41.8723764,7.6205748 42.1362433,7.1291185 L42.1362433,7.1291185 Z M46.6245664,7.1291185 C46.6027214,7.07445911 46.5722753,7.03358105 46.533229,7.00650884 C46.4941754,6.97943663 46.4504928,6.9630805 46.4021804,6.95746498 C46.2201644,7.22720623 46.020281,7.42949991 45.8025312,7.56437053 C45.5847752,7.69924116 45.3610654,7.76667647 45.1314009,7.76667647 C44.7340603,7.75875589 44.4009213,7.54776918 44.1319861,7.13371636 C43.8630477,6.71965128 43.7231744,6.15004358 43.7123652,5.42486875 C43.7189818,4.7449001 43.8328229,4.2166609 44.0538872,3.84015115 C44.2749474,3.46365367 44.5635196,3.27259104 44.9196049,3.26696325 C45.2216327,3.2759015 45.4197508,3.36530846 45.513959,3.53517189 C45.608161,3.70503531 45.6606681,3.90171346 45.6714826,4.12521861 C45.6887093,4.28844885 45.7320836,4.40338315 45.8016046,4.47005828 C45.8711192,4.53672115 45.9618826,4.56890619 46.0738958,4.56660113 C46.1928063,4.56788853 46.3070878,4.52549011 46.4167416,4.43940587 C46.5263858,4.35332162 46.5850711,4.21590072 46.5927976,4.02713089 C46.5888221,3.68357862 46.4458597,3.4051566 46.1639094,3.19186484 C45.8819517,2.97858533 45.4848335,2.86873934 44.9725536,2.86235138 C44.423425,2.87155936 43.9305576,3.12596215 43.4939494,3.62558425 C43.0573391,4.12521861 42.8265701,4.81488569 42.8016402,5.69459774 C42.8056104,6.49793623 42.9882851,7.14112199 43.3496633,7.62414274 C43.7110404,8.10717576 44.2272936,8.35494536 44.898425,8.36745154 C45.2152342,8.37869485 45.5161618,8.29798091 45.8012075,8.12530973 C46.0862469,7.95263854 46.3606995,7.6205748 46.6245664,7.1291185 L46.6245664,7.1291185 Z M50.0009583,5.38808585 L50.0009583,7.01876981 C50.000073,7.09719094 49.9859534,7.16104606 49.9585996,7.2103474 C49.9312393,7.25963648 49.8959398,7.30204716 49.852701,7.33755492 C49.7119414,7.47216807 49.5592712,7.59221519 49.3946905,7.69770854 C49.2301045,7.80320189 49.0721404,7.8588912 48.9207961,7.8647642 C48.6573729,7.85224575 48.4641083,7.75467299 48.3410031,7.57203364 C48.2178948,7.38940655 48.1570036,7.19681129 48.1583284,6.99424787 C48.1514005,6.71168165 48.2213811,6.4479728 48.3682723,6.2031213 C48.5151603,5.95825755 48.7805236,5.77240583 49.164362,5.64555388 L50.0009583,5.38808585 Z M50.0009583,7.65632778 C50.0273856,7.79860403 50.1005432,7.94931582 50.2204321,8.1084509 C50.3403147,8.26758598 50.5389623,8.35391544 50.8163748,8.36745154 C51.0808961,8.34829992 51.2957802,8.26400577 51.4610302,8.11458138 C51.6262706,7.96514473 51.7114308,7.86552438 51.7165098,7.81572034 C51.7134165,7.76948423 51.6957672,7.72402057 51.663561,7.67931709 C51.6313453,7.63461361 51.6031061,7.61060664 51.5788424,7.60728391 C51.5521864,7.61546198 51.5175933,7.64816197 51.4750619,7.70537164 C51.4325209,7.76259357 51.357687,7.7952813 51.2505579,7.80345937 C51.0522153,7.7952813 50.9299902,7.69209302 50.8838847,7.49386998 C50.8377707,7.2956592 50.8187977,7.0514698 50.8269647,6.76128952 L50.8269647,4.93443011 C50.8086494,4.08640039 50.6387705,3.52342588 50.3173292,3.24550656 C49.9958805,2.96759951 49.632738,2.83987703 49.2279007,2.86235138 C48.7751841,2.87768984 48.3754184,3.02174393 48.0286035,3.29455043 C47.6817855,3.56735692 47.4991118,3.87694631 47.4805805,4.22330634 C47.4808007,4.36992297 47.512128,4.47823635 47.5745653,4.54820968 C47.6369995,4.61820753 47.72922,4.65294285 47.8512238,4.65242789 C48.0049964,4.64553723 48.1210422,4.59802598 48.1993645,4.50989416 C48.2776836,4.4217746 48.3169544,4.33441522 48.3171757,4.24782827 C48.3171747,4.20415471 48.3145272,4.16277395 48.3092343,4.12368599 C48.3039372,4.08461029 48.2959947,4.05242526 48.2854069,4.02713089 C48.2798895,4.0092544 48.2750362,3.98064956 48.2708457,3.94130412 C48.2666521,3.90197094 48.2644462,3.84884418 48.264227,3.78191157 C48.275698,3.59417165 48.3718888,3.46083365 48.5528002,3.38190981 C48.7337075,3.30298597 48.9305018,3.26467045 49.1431821,3.26696325 C49.3364446,3.2467817 49.5244133,3.33925391 49.7070901,3.54436761 C49.8897616,3.74948131 49.9877177,4.18831354 50.0009583,4.86086431 C50.0002933,4.90377769 49.9936746,4.93749535 49.9811022,4.96201728 C49.9685245,4.98653921 49.9539633,5.00186542 49.9374196,5.0079959 L49.0266946,5.26547619 C48.5091156,5.41617572 48.0908174,5.64505118 47.7718002,5.95207803 C47.4527808,6.25910487 47.2886395,6.62285095 47.2793733,7.04329174 C47.2886395,7.52222959 47.4183644,7.86399176 47.6685501,8.06860276 C47.9187337,8.2732015 48.2337798,8.37282185 48.6136915,8.36745154 C48.8457832,8.37204941 49.0408121,8.33833175 49.1987794,8.26631084 C49.3567414,8.19427766 49.5464753,8.05634179 49.7679824,7.85250323 L49.9797784,7.65632778 L50.0009583,7.65632778 Z M54.7562172,7.23946719 C54.767468,7.5707585 54.932934,7.83998479 55.2526153,8.04714607 C55.5722945,8.25429509 55.9786779,8.36107584 56.4717687,8.36745154 C57.0182446,8.37282185 57.500523,8.1475266 57.9186031,7.69157805 C58.3366767,7.23562951 58.5568568,6.51684264 58.5791434,5.53520518 C58.5833307,4.77479233 58.4240428,4.14386754 58.1012778,3.64244308 C57.7785053,3.14103087 57.2671055,2.88100031 56.5670773,2.86235138 C56.3213023,2.86976926 56.0821492,2.90398962 55.8496159,2.96503697 C55.6170805,3.02609658 55.3726324,3.06951266 55.1162706,3.09530973 C55.1010476,3.32367022 55.0785439,3.55356333 55.0487607,3.78497681 C55.0189764,4.01640254 54.9779403,4.27694807 54.9256545,4.56660113 L55.1903993,4.61564499 C55.2740145,4.21512828 55.4138877,3.88817736 55.6100212,3.63477997 C55.8061526,3.38139485 56.0969317,3.25061939 56.4823587,3.24244132 C56.947205,3.26288035 57.2750479,3.48561306 57.4658886,3.91065171 C57.6567228,4.33570262 57.7489423,4.84043754 57.7425471,5.42486875 L57.7107782,5.44939068 C57.573328,5.34925537 57.4325715,5.26752377 57.2885088,5.20417136 C57.1444398,5.14081895 56.995742,5.10813121 56.842412,5.10608363 C56.6200239,5.12039218 56.4241118,5.17760185 56.2546766,5.27773716 C56.0852383,5.3778602 55.9105061,5.43508213 55.730481,5.44939068 C55.660763,5.44632544 55.5963422,5.43406447 55.5372163,5.41260778 C55.4780883,5.39115109 55.4295524,5.37889013 55.3916064,5.37582488 C55.3602771,5.37990779 55.338215,5.40238214 55.3254202,5.4432602 C55.3126223,5.484126 55.3064451,5.51886131 55.3068878,5.54746615 C55.317697,5.63892069 55.417859,5.72576511 55.6073737,5.80801167 C55.7968864,5.8902705 56.0108894,5.93420154 56.2493827,5.93981706 C56.4772818,5.92858601 56.6648099,5.88362505 56.811967,5.80494643 C56.9591187,5.72628008 57.1281144,5.68131911 57.318955,5.67007581 C57.3880058,5.67084825 57.4563979,5.68157659 57.5241323,5.70226084 C57.5918593,5.72295735 57.657605,5.74901191 57.7213682,5.7804245 C57.7200413,6.5096945 57.6035528,7.05581018 57.3719037,7.41877156 C57.1402483,7.7817452 56.8013749,7.96310941 56.3552802,7.96285193 C56.1430415,7.95748162 55.9665439,7.89464417 55.8257895,7.77433958 C55.685032,7.65403498 55.5826631,7.50843601 55.5186839,7.33755492 C55.4451726,7.14753447 55.3729851,7.02303662 55.3021223,6.96404911 C55.2312575,6.90507387 55.151658,6.87835722 55.0633219,6.88389918 C54.9671301,6.88644946 54.8921193,6.92119704 54.8382873,6.98811739 C54.7844554,7.05503774 54.7570983,7.13881692 54.7562172,7.23946719 L54.7562172,7.23946719 Z M63.0125331,7.30077202 C63.0186626,7.52697459 62.9947473,7.67901056 62.9407872,7.7568677 C62.8868187,7.83472483 62.7660073,7.87886431 62.57835,7.88928613 L62.3030153,7.91380806 C62.2694769,7.91708174 62.2518277,7.93750851 62.2500655,7.97511289 L62.2500655,8.24485415 L62.2606554,8.26937608 C62.4234708,8.26298811 62.6061455,8.25736033 62.8086796,8.25251725 C63.0112052,8.24766191 63.2097648,8.24509936 63.4043564,8.24485415 C63.6013667,8.24509936 63.7924245,8.24766191 63.9775306,8.25251725 C64.1626273,8.25736033 64.3351526,8.26298811 64.4951086,8.26937608 L64.5162885,8.24485415 L64.5162885,7.98737386 C64.5162885,7.94078219 64.4951033,7.91626026 64.4527498,7.91380806 L64.2409527,7.88928613 C64.0676491,7.87771178 63.9509414,7.83587736 63.8908264,7.76377062 C63.8307029,7.69165162 63.802684,7.53732284 63.8067707,7.30077202 L63.8067707,3.91678219 C63.802684,3.67537603 63.8307029,3.52154995 63.8908264,3.45531621 C63.9509414,3.38908248 64.0676501,3.35082826 64.2409527,3.34052905 L64.4527498,3.31600712 C64.4951033,3.31355492 64.5162885,3.28903299 64.5162885,3.24244132 L64.5162885,2.98496104 L64.5056986,2.9604391 C64.3453009,2.96682707 64.1710103,2.97245485 63.9828256,2.97729793 C63.7946314,2.98215327 63.6018083,2.98471582 63.4043564,2.98496104 C63.2102054,2.98471582 63.0134121,2.98215327 62.8139746,2.97729793 C62.6145285,2.97245485 62.4336192,2.96682707 62.2712454,2.9604391 L62.2500655,2.98496104 L62.2500655,3.25470229 C62.2502836,3.27856213 62.255137,3.29459947 62.2646267,3.30282658 C62.27411,3.31105369 62.2869069,3.31544311 62.3030153,3.31600712 L62.57835,3.34052905 C62.7479387,3.34882972 62.8635875,3.39046796 62.9252994,3.46543151 C62.9870029,3.54040732 63.0160808,3.69086163 63.0125331,3.91678219 L63.0125331,5.22869329 L60.8416197,5.22869329 L60.8416197,3.91678219 C60.8375362,3.67537603 60.8655552,3.52154995 60.9256754,3.45531621 C60.9857936,3.38908248 61.1025024,3.35082826 61.2758018,3.34052905 L61.4875989,3.31600712 C61.5299555,3.31355492 61.5511355,3.28903299 61.5511376,3.24244132 L61.5511376,2.98496104 L61.5405476,2.9604391 C61.3797126,2.96682707 61.2036566,2.97245485 61.0123797,2.97729793 C60.8210996,2.98215327 60.6265122,2.98471582 60.4286165,2.98496104 C60.2349092,2.98471582 60.0398803,2.98215327 59.8435286,2.97729793 C59.6471749,2.97245485 59.4680298,2.96682707 59.3060944,2.9604391 L59.2849156,2.98496104 L59.2849156,3.25470229 C59.2851348,3.27856213 59.2899892,3.29459947 59.2994757,3.30282658 C59.3089622,3.31105369 59.3217581,3.31544311 59.3378643,3.31600712 L59.6132001,3.34052905 C59.782791,3.34882972 59.8984397,3.39046796 59.9601484,3.46543151 C60.0218551,3.54040732 60.050933,3.69086163 60.0473822,3.91678219 L60.0473822,7.30077202 C60.0535148,7.52697459 60.0295995,7.67901056 59.9756363,7.7568677 C59.9216709,7.83472483 59.8008595,7.87886431 59.6132001,7.88928613 L59.3378643,7.91380806 C59.3043291,7.91708174 59.2866799,7.93750851 59.2849156,7.97511289 L59.2849156,8.24485415 L59.2955045,8.26937608 C59.4578814,8.26298811 59.6387908,8.25736033 59.8382336,8.25251725 C60.0376733,8.24766191 60.2344676,8.24509936 60.4286165,8.24485415 C60.6260706,8.24509936 60.8188926,8.24766191 61.0070847,8.25251725 C61.1952725,8.25736033 61.3695642,8.26298811 61.5299577,8.26937608 L61.5511376,8.24485415 L61.5511376,7.98737386 C61.5511355,7.94078219 61.5299555,7.91626026 61.4875989,7.91380806 L61.2758018,7.88928613 C61.1025013,7.87771178 60.9857925,7.83587736 60.9256754,7.76377062 C60.8655541,7.69165162 60.8375362,7.53732284 60.8416197,7.30077202 L60.8416197,5.64555388 L63.0125331,5.64555388 L63.0125331,7.30077202 Z M68.8332067,3.92904316 L68.8332067,7.1659014 C68.8400425,7.3733079 68.818421,7.52555231 68.7683443,7.62261012 C68.718259,7.71968019 68.5986825,7.76769413 68.4096136,7.76667647 L67.1388352,7.76667647 C66.9590261,7.76999919 66.8420971,7.72657085 66.788047,7.63640371 C66.7339926,7.54623656 66.7097247,7.38940655 66.7152421,7.1659014 L66.7152421,3.91678219 C66.710718,3.67530247 66.7369716,3.52132925 66.7940038,3.45486256 C66.8510329,3.38839586 66.9659763,3.35028878 67.1388352,3.34052905 L67.3612212,3.31600712 C67.4035779,3.31355492 67.4247578,3.28903299 67.4247599,3.24244132 L67.4247599,2.98496104 L67.403581,2.9604391 C67.3845604,2.96146903 67.2547476,2.96555193 67.0141405,2.97270007 C66.7735281,2.97986047 66.5362283,2.98394338 66.3022389,2.98496104 C66.0618266,2.98394338 65.8177757,2.97986047 65.570085,2.97270007 C65.3223932,2.96555193 65.1887405,2.96146903 65.1691279,2.9604391 L65.1585379,2.98496104 L65.1585379,3.25470229 C65.1585379,3.27848856 65.1638329,3.29437877 65.1744228,3.30236066 C65.1850118,3.31036707 65.2008967,3.31491589 65.2220766,3.31600712 L65.4974124,3.34052905 C65.6753651,3.34990869 65.7917646,3.39184119 65.8466122,3.46635108 C65.9014576,3.54086097 65.926255,3.69100876 65.9210056,3.91678219 L65.9210056,7.34981589 C65.9260559,7.5784216 65.9008613,7.72197299 65.8454208,7.78047006 C65.789977,7.83896713 65.6739746,7.87523506 65.4974124,7.88928613 L65.3173852,7.91380806 C65.28385,7.91626026 65.2662007,7.94078219 65.2644365,7.98737386 L65.2644365,8.24485415 L65.2856153,8.26937608 C65.3067952,8.26834616 65.4312252,8.26426325 65.6589072,8.25711511 C65.8865871,8.24995471 66.0904418,8.24587181 66.270469,8.24485415 L68.8437967,8.24485415 C69.2554719,8.2732015 69.5572815,8.46171385 69.7492267,8.81037894 C69.9411623,9.15904403 70.0629448,9.49775322 70.1145761,9.82649424 L70.379322,9.81423327 L70.3157822,8.18354932 C70.3101293,8.08341401 70.2811837,8.01699635 70.2289456,7.98430862 C70.1766968,7.95160862 70.1032745,7.92811661 70.0086776,7.91380806 C69.9093935,7.89567409 69.8220274,7.83691955 69.7465792,7.73755668 C69.6711215,7.63819381 69.6314102,7.49669 69.6274443,7.31303299 L69.6274443,3.92904316 C69.6232919,3.68666838 69.6511785,3.52988741 69.7111039,3.45868798 C69.7710198,3.38750081 69.8878599,3.34811859 70.0616263,3.34052905 L70.3263722,3.31600712 C70.3687256,3.31212039 70.3899109,3.29169362 70.3899109,3.25470229 L70.3899109,2.98496104 L70.368732,2.9604391 C70.3489362,2.96146903 70.2140487,2.96555193 69.9640684,2.97270007 C69.7140776,2.97986047 69.4677318,2.98394338 69.225031,2.98496104 C68.9956239,2.98394338 68.7629127,2.97986047 68.5268963,2.97270007 C68.2908726,2.96555193 68.1635294,2.96146903 68.1448688,2.9604391 L68.1342788,2.98496104 L68.1342788,3.25470229 C68.1344959,3.27848856 68.1393493,3.29437877 68.14884,3.30236066 C68.1583233,3.31036707 68.1711192,3.31491589 68.1872276,3.31600712 L68.4096136,3.34052905 C68.5871003,3.35286358 68.7033674,3.39624288 68.7584162,3.47064242 C68.8134575,3.54505422 68.8383873,3.69785038 68.8332067,3.92904316 L68.8332067,3.92904316 Z M72.2298033,2.98496104 C71.9824853,2.98394338 71.7331833,2.97986047 71.4818966,2.97270007 C71.2306084,2.96555193 71.095147,2.96146903 71.0755124,2.9604391 L71.0437429,2.98496104 L71.0437429,3.25470229 C71.0437429,3.27848856 71.0490373,3.29437877 71.0596274,3.30236066 C71.0702168,3.31036707 71.0861016,3.31491589 71.1072818,3.31600712 L71.4249765,3.34052905 C71.6172913,3.34882972 71.7377945,3.39659845 71.7864866,3.48382296 C71.8351766,3.57105973 71.8558709,3.7399055 71.8485696,3.99034799 L71.8485696,7.30077202 C71.8558709,7.51119472 71.8351765,7.65924589 71.7864864,7.74491326 C71.7377942,7.83059289 71.6172911,7.87870492 71.4249765,7.88928613 L71.096692,7.91380806 C71.063157,7.91708174 71.0455074,7.93750851 71.0437429,7.97511289 L71.0437429,8.24485415 L71.0543327,8.26937608 C71.2601719,8.26298811 71.4521122,8.25736033 71.6301544,8.25251725 C71.8081946,8.24766191 72.0080773,8.24509936 72.2298033,8.24485415 C72.387325,8.24509936 72.5196976,8.24766191 72.6269215,8.25251725 C72.7341415,8.25736033 72.8876938,8.26298811 73.087579,8.26937608 L73.0981689,8.24485415 L73.0981689,7.98737386 C73.0981664,7.94078219 73.0769868,7.91626026 73.0346299,7.91380806 C72.8607779,7.89669175 72.7504673,7.85122809 72.7036976,7.77740482 C72.6569238,7.70358154 72.6366268,7.59374781 72.6428064,7.44789136 L72.6428064,7.42336942 L74.8243103,4.3826989 L74.8243103,7.27625009 C74.8312337,7.48769045 74.8089067,7.63982452 74.7573295,7.73265229 C74.7057441,7.82548006 74.5833435,7.87768726 74.3901275,7.88928613 L74.0618429,7.91380806 C74.028305,7.91708174 74.0106554,7.93750851 74.0088937,7.97511289 L74.0088937,8.24485415 L74.0300735,8.26937608 C74.2354684,8.26298811 74.4256439,8.25736033 74.6006003,8.25251725 C74.775549,8.24766191 74.9736667,8.24509936 75.1949541,8.24485415 C75.4277048,8.24509936 75.6372948,8.24766191 75.8237247,8.25251725 C76.0101444,8.25736033 76.2064972,8.26298811 76.412784,8.26937608 L76.4233738,8.24485415 L76.4233738,7.98737386 C76.4233738,7.94016914 76.4021885,7.91564721 76.3598348,7.91380806 L76.0421401,7.88928613 C75.8632552,7.87975936 75.7465908,7.83076454 75.6921463,7.74231393 C75.6376919,7.65385106 75.6131588,7.49849236 75.6185472,7.27625009 L75.6185472,3.97808702 C75.6117692,3.72814723 75.6335223,3.56134905 75.683807,3.47769248 C75.7340815,3.39404817 75.8535258,3.34832702 76.0421401,3.34052905 L76.3598348,3.31600712 C76.4021885,3.31416797 76.4233738,3.28964604 76.4233738,3.24244132 L76.4233738,2.98496104 L76.412784,2.9604391 C76.3918193,2.96146903 76.2484156,2.96555193 75.9825723,2.97270007 C75.7167184,2.97986047 75.4541793,2.98394338 75.1949541,2.98496104 C75.0330139,2.98394338 74.8671068,2.97986047 74.6972324,2.97270007 C74.52735,2.96555193 74.4355715,2.96146903 74.4218969,2.9604391 L74.4007173,2.98496104 L74.4007173,3.25470229 C74.4009341,3.27848856 74.4057877,3.29437877 74.4152782,3.30236066 C74.4247613,3.31036707 74.4375574,3.31491589 74.4536664,3.31600712 C74.6266297,3.33618867 74.7334102,3.3939133 74.7740085,3.48919326 C74.8145985,3.58447323 74.8313658,3.70656793 74.8243103,3.85547736 L72.6428064,6.89616015 L72.6428064,3.97808702 C72.6357445,3.73351753 72.6578067,3.56825197 72.7089928,3.48229034 C72.7601749,3.39634097 72.8828402,3.3490872 73.0769892,3.34052905 L73.3946839,3.31600712 C73.4370405,3.31416797 73.4582201,3.28964604 73.4582229,3.24244132 L73.4582229,2.98496104 L73.4370433,2.9604391 C73.4158609,2.96146903 73.2728983,2.96555193 73.0081551,2.97270007 C72.7434074,2.97986047 72.483957,2.98394338 72.2298033,2.98496104 L72.2298033,2.98496104 Z M77.1453805,8.24485415 L77.1665602,8.26937608 C77.1888426,8.26834616 77.324304,8.26426325 77.5729447,8.25711511 C77.8215838,8.24995471 78.0497061,8.24587181 78.2573121,8.24485415 C78.4807999,8.24587181 78.7036272,8.24995471 78.9257947,8.25711511 C79.147958,8.26426325 79.2675347,8.26834616 79.2845251,8.26937608 L79.3057048,8.24485415 L79.3057048,8.01189579 C79.3048198,7.98175834 79.295995,7.95927173 79.27923,7.94446048 C79.2624602,7.92964923 79.2430456,7.91942359 79.2209862,7.91380806 C79.0961121,7.9015471 78.9752116,7.86169896 78.8582844,7.79426364 C78.7413531,7.72682833 78.6786967,7.59502295 78.6703153,7.39884749 L78.6703153,5.68233677 C79.0564003,5.71605443 79.3352654,5.83559885 79.5069114,6.04097003 C79.678552,6.24634121 79.8091598,6.5191477 79.898735,6.85937725 C79.9784202,7.15234077 80.1017916,7.45104242 80.2688494,7.75549447 C80.4359003,8.05994652 80.651403,8.22714931 80.9153581,8.25711511 L81.6778255,8.26937608 L81.709595,8.24485415 L81.709595,8.02415676 C81.707384,7.98200356 81.6932642,7.95288376 81.6672357,7.93679737 C81.6411974,7.92069873 81.6164878,7.91303562 81.5931069,7.91380806 L81.5083883,7.9015471 C81.3111485,7.83743451 81.1205319,7.62235264 80.9365378,7.25632602 C80.7525355,6.89028714 80.6148679,6.57406457 80.5235346,6.30764604 C80.4176327,6.00852751 80.2667279,5.78834509 80.0708197,5.6470865 C79.8749047,5.50584017 79.6339865,5.43585457 79.3480641,5.43712971 L79.3480641,5.38808585 C79.5431788,5.31622433 79.7057323,5.18682209 79.8357255,4.99986688 C79.9657125,4.81292394 80.0679042,4.59493622 80.1423009,4.345916 C80.2042921,4.15254831 80.2762146,3.99673595 80.3580685,3.87846667 C80.4399154,3.76020966 80.5091904,3.69941979 80.5658939,3.6960848 C80.6133235,3.69659976 80.656124,3.70477783 80.6942955,3.72060674 C80.7324592,3.7364479 80.7673173,3.75688693 80.7988701,3.78191157 C80.8357098,3.81333642 80.8785103,3.83939097 80.9272716,3.86007522 C80.9760247,3.88077173 81.0320625,3.89150008 81.0953852,3.89226026 C81.209442,3.88817736 81.3043091,3.84118107 81.3799866,3.75125915 C81.455655,3.66134949 81.4949256,3.55304837 81.4977985,3.42635581 C81.5019857,3.27462636 81.4644801,3.14588621 81.3852815,3.04013538 C81.3060738,2.93439681 81.1600227,2.87922247 80.9471276,2.87461234 C80.6934092,2.89019603 80.4807303,3.02456396 80.3090905,3.2776916 C80.1374438,3.5308315 80.0041886,3.80925352 79.9093248,4.11295765 C79.8042837,4.45549225 79.6585413,4.72983137 79.4720972,4.93596273 C79.2856478,5.14210635 79.0183874,5.24784492 78.6703153,5.25321522 L78.6703153,3.85547736 C78.6731815,3.64219786 78.7230419,3.50171171 78.8198966,3.43401892 C78.9167474,3.36632612 79.043384,3.32699294 79.1998066,3.31600712 C79.2218662,3.31473198 79.2412808,3.30195605 79.2580504,3.2776916 C79.2748151,3.25342715 79.28364,3.22532501 79.2845251,3.19339746 L79.2845251,2.98496104 L79.2633455,2.9604391 C79.2472378,2.96146903 79.1311911,2.96555193 78.9152051,2.97270007 C78.6992149,2.97986047 78.4799175,2.98394338 78.2573121,2.98496104 C78.0497061,2.98394338 77.8215837,2.97986047 77.5729445,2.97270007 C77.3243037,2.96555193 77.1888424,2.96146903 77.1665602,2.9604391 L77.1453805,2.98496104 L77.1453805,3.21791939 C77.1456009,3.24806911 77.1531021,3.27054346 77.167884,3.2853547 C77.1826652,3.30017821 77.2034036,3.3103916 77.2300992,3.31600712 L77.4313059,3.34052905 C77.5980949,3.35764536 77.7145829,3.4092395 77.78077,3.49532375 C77.8469553,3.58140799 77.8787247,3.70963317 77.8760784,3.87999929 L77.8760784,7.37432556 C77.8807105,7.54291384 77.8529122,7.6655235 77.7926836,7.74215454 C77.7324531,7.81878558 77.611994,7.86782944 77.4313059,7.88928613 L77.2300992,7.91380806 C77.2034036,7.91942359 77.1826651,7.92964923 77.1678839,7.94446048 C77.1531018,7.95927173 77.1456007,7.98175834 77.1453805,8.01189579 L77.1453805,8.24485415 Z M81.8956438,7.68084971 C81.8974086,7.87676768 81.9627124,8.04280569 82.0915554,8.17895145 C82.2203979,8.31509722 82.4021897,8.38610047 82.6369315,8.39197668 C82.8879536,8.392562 83.0943667,8.31200746 83.2561716,8.15028531 C83.4179737,7.98857543 83.5539645,7.74217906 83.6641444,7.41110846 C83.7627602,7.09438318 83.8302702,6.67955792 83.8666748,6.16664493 C83.9030754,5.65373194 83.9202838,5.17760185 83.9183002,4.73825465 C83.9112383,4.26673468 83.9333005,3.93467094 83.9844866,3.74206343 C84.0356687,3.54948043 84.158334,3.45649327 84.3524831,3.46313871 L84.8290252,3.46313871 C85.0134615,3.46160609 85.1317143,3.50758471 85.1837841,3.60106232 C85.2358474,3.69456444 85.258792,3.84476128 85.2526182,4.05165282 L85.2526182,7.33755492 C85.2568067,7.51303387 85.2272433,7.64330663 85.1639283,7.72836095 C85.1006067,7.81342753 84.9783825,7.86706926 84.7972558,7.88928613 L84.596049,7.91380806 C84.5693511,7.91942359 84.5486128,7.92964923 84.5338338,7.94446048 C84.5190494,7.95927173 84.5115482,7.98175834 84.5113304,8.01189579 L84.5113304,8.24485415 L84.5325101,8.26937608 C84.5545694,8.26834616 84.690472,8.26426325 84.9402182,8.25711511 C85.1899582,8.24995471 85.4211691,8.24587181 85.6338519,8.24485415 C85.8617497,8.24587181 86.1022267,8.24995471 86.3552835,8.25711511 C86.6083315,8.26426325 86.7455578,8.26834616 86.7669631,8.26937608 L86.7881428,8.24485415 L86.7881428,8.01189579 C86.7872554,7.9809859 86.7784305,7.95697892 86.761668,7.93986262 C86.7448957,7.92274631 86.7254812,7.91406554 86.7034242,7.91380806 L86.5022175,7.88928613 C86.3349821,7.8724273 86.2167292,7.8203182 86.1474582,7.73295881 C86.0781787,7.64559943 86.0446443,7.51379405 86.0468551,7.33755492 L86.0468551,3.91678219 C86.0397909,3.69124172 86.0618531,3.54155985 86.1130415,3.46773657 C86.1642213,3.3939133 86.2868866,3.35151488 86.4810378,3.34052905 L86.7775529,3.31600712 C86.808876,3.3162646 86.8309381,3.30961915 86.8437391,3.29608305 C86.8565303,3.28254694 86.8627078,3.26057529 86.8622931,3.23018036 L86.8622931,2.98496104 L86.830502,2.9604391 C86.8099794,2.96146903 86.6709881,2.96555193 86.4135276,2.97270007 C86.1560581,2.97986047 85.9032263,2.98394338 85.6550315,2.98496104 L83.812402,2.98496104 C83.5816304,2.98394338 83.3468895,2.97986047 83.1081785,2.97270007 C82.869465,2.96555193 82.7406223,2.96146903 82.7216501,2.9604391 L82.6898806,2.98496104 L82.6898806,3.18113649 C82.6878942,3.23427552 82.7024553,3.26901084 82.7335637,3.2853547 C82.7646704,3.30169857 82.8242381,3.31192422 82.912267,3.31600712 C83.1977496,3.31608068 83.3760114,3.41156909 83.4470529,3.60244781 C83.5180912,3.79333879 83.5480957,4.20054999 83.5370666,4.82408141 C83.5368662,5.45850058 83.517937,5.96717127 83.4802786,6.3500935 C83.442617,6.73301573 83.3874175,7.0458175 83.3146803,7.28851106 C83.2502575,7.5066459 83.1778937,7.66195556 83.0975887,7.75441551 C83.0172812,7.84688771 82.9343277,7.89183641 82.8487279,7.88928613 C82.7865119,7.88851369 82.7415052,7.86552438 82.7137077,7.8203182 C82.6859084,7.77511202 82.6673763,7.71227457 82.6581112,7.63180585 C82.6471014,7.51101081 82.6172293,7.40440171 82.5684947,7.31195403 C82.5197586,7.2195186 82.4260829,7.17083031 82.2874673,7.1659014 C82.1599479,7.17049926 82.0628745,7.22260837 81.9962469,7.32222871 C81.9296191,7.42184906 81.8960847,7.54138122 81.8956438,7.68084971 L81.8956438,7.68084971 Z M87.6031295,5.73138064 C87.602469,6.38835998 87.786467,6.98403449 88.155126,7.51839191 C88.523783,8.05276159 89.0810719,8.33578147 89.8269945,8.36745154 C90.6108585,8.32965099 91.1822672,8.02517442 91.5412223,7.45402184 C91.9001685,6.88288152 92.0771067,6.2718808 92.0720373,5.62103194 C92.0819605,4.94822369 91.9164947,4.32905717 91.5756393,3.76352012 C91.2347752,3.19799532 90.658954,2.89761391 89.8481741,2.86235138 C89.129167,2.88458051 88.5762904,3.16811535 88.1895426,3.71294363 C87.8027928,4.25779644 87.6073226,4.93060469 87.6031295,5.73138064 L87.6031295,5.73138064 Z M89.731686,3.26696325 C90.189693,3.26875336 90.5418044,3.50119675 90.7880211,3.96429343 C91.0342306,4.42740238 91.1586609,5.11042401 91.1613124,6.01338286 C91.1447618,6.80267028 91.0163603,7.32989182 90.7761075,7.59502295 C90.5358473,7.86016634 90.2830156,7.982776 90.0176113,7.96285193 C89.6523253,7.94930356 89.3592095,7.80202484 89.1382636,7.5210035 C88.9173137,7.23999442 88.7575512,6.90653292 88.6589759,6.52061902 C88.5603976,6.13470511 88.5120243,5.777629 88.5138562,5.44939068 C88.5090013,4.89177421 88.6007796,4.39470238 88.7891916,3.95816295 C88.9776004,3.52163578 89.2917648,3.29122771 89.731686,3.26696325 L89.731686,3.26696325 Z M93.6278171,3.94130412 L93.6278171,7.31303299 C93.6333535,7.52294073 93.6082468,7.66894431 93.552497,7.75104374 C93.4967451,7.83314317 93.3771241,7.87921988 93.193635,7.88928613 L92.8759394,7.91380806 C92.8335806,7.91769479 92.8124006,7.93812156 92.8124006,7.97511289 L92.8124006,8.24485415 L92.8335806,8.26937608 C92.8540764,8.26834616 92.9939062,8.26426325 93.2530701,8.25711511 C93.5122329,8.24995471 93.767756,8.24587181 94.0196414,8.24485415 C94.2646391,8.24587181 94.5132797,8.24995471 94.7655622,8.25711511 C95.0178394,8.26426325 95.1539628,8.26834616 95.1739323,8.26937608 L95.1845212,8.24485415 L95.1845212,7.98737386 C95.1827537,7.93955609 95.1651045,7.91503416 95.1315725,7.91380806 L94.8456477,7.88928613 C94.6718612,7.88098546 94.556653,7.83934722 94.5000221,7.76438367 C94.443386,7.68940786 94.4173971,7.53895355 94.4220546,7.31303299 L94.4220546,3.94130412 C94.426244,3.73364014 94.4708097,3.60030214 94.5557507,3.54129011 C94.6406886,3.48229034 94.7408505,3.45623579 94.8562366,3.46313871 L96.137606,3.46313871 C96.2483537,3.45471543 96.347192,3.47769248 96.4341207,3.53210664 C96.5210421,3.58650855 96.5669305,3.7229118 96.5717891,3.94130412 L96.5717891,7.31303299 C96.5773224,7.5227936 96.5522157,7.66849066 96.496468,7.75012417 C96.440714,7.83175768 96.321093,7.87815317 96.137606,7.88928613 L95.8516803,7.91380806 C95.8181429,7.91708174 95.8004926,7.93750851 95.7987315,7.97511289 L95.7987315,8.24485415 L95.8093215,8.26937608 C95.8294604,8.26834616 95.9668196,8.26426325 96.221398,8.25711511 C96.4759691,8.24995471 96.7269035,8.24587181 96.9742024,8.24485415 C97.2260804,8.24587181 97.4816045,8.24995471 97.7407726,8.25711511 C97.9999312,8.26426325 98.139761,8.26834616 98.1602621,8.26937608 L98.1708521,8.24485415 L98.1708521,7.98737386 C98.1708521,7.94016914 98.1496669,7.91564721 98.1073134,7.91380806 L97.7896188,7.88928613 C97.6107554,7.88205216 97.4924581,7.84073271 97.4347269,7.76530324 C97.3769852,7.68987378 97.3505548,7.53911294 97.3554357,7.31303299 L97.3554357,3.92904316 C97.3484368,3.68650899 97.3706312,3.52942149 97.422019,3.45776841 C97.4733972,3.38612758 97.5959294,3.34703962 97.7896188,3.34052905 L98.1073134,3.31600712 C98.1496669,3.31416797 98.1708521,3.28964604 98.1708521,3.24244132 L98.1708521,2.98496104 L98.1602621,2.9604391 C98.1392982,2.96146903 97.9958943,2.96555193 97.7300502,2.97270007 C97.4641967,2.97986047 97.2016578,2.98394338 96.9424325,2.98496104 L94.0090514,2.98496104 C93.7617557,2.98394338 93.5108213,2.97986047 93.2562471,2.97270007 C93.0016718,2.96555193 92.8643126,2.96146903 92.8441705,2.9604391 L92.8229906,2.98496104 L92.8229906,3.25470229 C92.8232109,3.27856213 92.8280643,3.29459947 92.8375518,3.30282658 C92.8470383,3.31105369 92.8598341,3.31544311 92.8759394,3.31600712 L93.193635,3.34052905 C93.3771241,3.34625492 93.4967451,3.38568619 93.552497,3.45884737 C93.6082468,3.53200856 93.6333535,3.69282339 93.6278171,3.94130412 L93.6278171,3.94130412 Z M99.7959705,4.78729852 C99.9179733,4.11883065 100.110796,3.69635454 100.37444,3.51984568 C100.63808,3.34333681 100.844141,3.26722073 100.992621,3.29148519 C101.205297,3.28075684 101.402092,3.3665836 101.583004,3.54896547 C101.76391,3.73134734 101.860101,4.07464213 101.871576,4.57886209 C101.872235,4.63414679 101.860321,4.67623869 101.835835,4.70515004 C101.811343,4.73407366 101.770308,4.74919143 101.712729,4.75051562 L99.7959705,4.78729852 Z M102.570505,7.10459657 C102.382753,7.3360223 102.191694,7.50459832 101.997331,7.61034915 C101.80296,7.71609999 101.556306,7.76820909 101.257367,7.76667647 C101.062997,7.76898153 100.863997,7.7000136 100.660366,7.55977267 C100.45673,7.419544 100.270966,7.19424875 100.103076,6.88389918 C99.9962934,6.68133576 99.9133401,6.43969664 99.8542143,6.15898183 C99.7950863,5.87825475 99.7650828,5.55998459 99.7642017,5.20417136 L102.581094,5.22869329 C102.64507,5.22843581 102.694489,5.21055932 102.729353,5.17505157 C102.764206,5.13954381 102.781856,5.08794966 102.782301,5.02025687 C102.799726,4.48078663 102.685445,3.99647847 102.439456,3.56734466 C102.193459,3.13822311 101.711182,2.9114075 100.992621,2.88687331 C100.501295,2.89045351 100.033137,3.13772041 99.5881457,3.62864949 C99.1431513,4.11960309 98.905322,4.83277444 98.874633,5.76816354 C98.8735521,6.11505079 98.9128229,6.44506695 98.9924678,6.75822428 C99.0721118,7.07139387 99.1987486,7.34623569 99.3723774,7.58276198 C99.5497561,7.83002888 99.7694946,8.02210918 100.031594,8.15902738 C100.29369,8.29593333 100.614032,8.36541622 100.992621,8.36745154 C101.393266,8.36285368 101.740965,8.26477822 102.035719,8.07320062 C102.330465,7.88162303 102.582855,7.62414274 102.792891,7.30077202 C102.777664,7.23972467 102.752513,7.19323109 102.717438,7.16130354 C102.682355,7.12937598 102.633378,7.11046957 102.570505,7.10459657 L102.570505,7.10459657 Z M103.473513,9.81423327 L103.748849,9.82649424 C103.782383,9.56212329 103.890046,9.24180555 104.071839,8.86555329 C104.253629,8.48930102 104.562499,8.28239722 104.998449,8.24485415 L106.714,8.24485415 C107.146193,8.27958946 107.457269,8.47984782 107.647229,8.84562922 C107.837179,9.21141062 107.949695,9.53427863 107.98478,9.81423327 L108.249524,9.81423327 L108.185986,8.17128835 C108.186864,8.08791378 108.166566,8.0284481 108.125095,7.99289129 C108.083613,7.95733449 108.015661,7.93097342 107.92124,7.91380806 C107.824824,7.90103214 107.731722,7.85301819 107.641934,7.76974171 C107.552136,7.68647749 107.504041,7.53423308 107.497647,7.31303299 L107.497647,3.91678219 C107.494113,3.71361798 107.527647,3.57190574 107.59825,3.49164546 C107.668845,3.41138517 107.797688,3.36101712 107.98478,3.34052905 L108.164806,3.31600712 C108.181789,3.31549216 108.198115,3.30732635 108.213784,3.29148519 C108.229444,3.27565628 108.237827,3.25521725 108.238935,3.23018036 L108.238935,2.98496104 L108.228346,2.9604391 C108.20341,2.96146903 108.060007,2.96555193 107.798134,2.97270007 C107.536251,2.97986047 107.305481,2.98394338 107.105824,2.98496104 L105.093757,2.98496104 C104.973075,2.98394338 104.7829,2.97986047 104.523231,2.97270007 C104.263557,2.96555193 104.118389,2.96146903 104.087724,2.9604391 L104.055954,2.98496104 L104.055954,3.25470229 C104.056394,3.27872152 104.063455,3.29506539 104.077134,3.30374615 C104.090812,3.31242692 104.108461,3.31652208 104.130083,3.31600712 L104.416008,3.34052905 C104.596255,3.36530846 104.714948,3.42303309 104.77209,3.51371519 C104.82923,3.6043973 104.855264,3.6897091 104.850191,3.7696506 C104.846373,4.49355029 104.806087,5.14848205 104.729335,5.73444588 C104.652579,6.3204097 104.562257,6.87112325 104.458367,7.38658653 C104.421743,7.55109191 104.344085,7.67574915 104.225391,7.76054599 C104.106696,7.84535509 103.976089,7.89643427 103.833568,7.91380806 C103.757012,7.92198613 103.690384,7.9424129 103.633685,7.97511289 C103.576985,8.00781289 103.544774,8.07728352 103.537053,8.18354932 L103.473513,9.81423327 Z M104.818422,7.61954488 C104.826362,7.54266862 104.876664,7.22439847 104.969326,6.66473441 C105.061985,6.10508262 105.149352,5.14005877 105.231425,3.7696506 C105.228555,3.73491528 105.247528,3.67565803 105.288345,3.59186659 C105.329157,3.50809967 105.409023,3.46109113 105.527939,3.4508619 L106.279817,3.4508619 C106.468887,3.44986008 106.588464,3.49787403 106.638548,3.59493183 C106.688626,3.6920019 106.710246,3.84424632 106.70341,4.05165282 L106.70341,7.1659014 C106.710246,7.36794986 106.688626,7.51864939 106.638548,7.61801226 C106.588463,7.71737513 106.468886,7.76693395 106.279817,7.76667647 L105.019629,7.76667647 C104.964913,7.76898153 104.918141,7.76131843 104.879313,7.74368716 C104.840482,7.72606815 104.820185,7.68468739 104.818422,7.61954488 L104.818422,7.61954488 Z M110.101324,2.98496104 C109.854006,2.98394338 109.604704,2.97986047 109.353418,2.97270007 C109.102129,2.96555193 108.966668,2.96146903 108.947033,2.9604391 L108.915263,2.98496104 L108.915263,3.25470229 C108.915263,3.27848856 108.920558,3.29437877 108.931148,3.30236066 C108.941737,3.31036707 108.957622,3.31491589 108.978802,3.31600712 L109.296497,3.34052905 C109.488811,3.34882972 109.609316,3.39659845 109.658007,3.48382296 C109.706698,3.57105973 109.727392,3.7399055 109.72009,3.99034799 L109.72009,7.30077202 C109.727392,7.51119472 109.706697,7.65924589 109.658007,7.74491326 C109.609315,7.83059289 109.488811,7.87870492 109.296497,7.88928613 L108.968212,7.91380806 C108.934678,7.91708174 108.917028,7.93750851 108.915263,7.97511289 L108.915263,8.24485415 L108.925853,8.26937608 C109.131693,8.26298811 109.323632,8.25736033 109.501675,8.25251725 C109.679716,8.24766191 109.879598,8.24509936 110.101324,8.24485415 C110.258846,8.24509936 110.391218,8.24766191 110.498442,8.25251725 C110.605663,8.25736033 110.759215,8.26298811 110.959099,8.26937608 L110.969689,8.24485415 L110.969689,7.98737386 C110.969687,7.94078219 110.948507,7.91626026 110.906151,7.91380806 C110.732298,7.89669175 110.621988,7.85122809 110.575219,7.77740482 C110.528445,7.70358154 110.508147,7.59374781 110.514327,7.44789136 L110.514327,7.42336942 L112.695831,4.3826989 L112.695831,7.27625009 C112.702755,7.48769045 112.680428,7.63982452 112.62885,7.73265229 C112.577265,7.82548006 112.454865,7.87768726 112.261648,7.88928613 L111.933363,7.91380806 C111.899826,7.91708174 111.882177,7.93750851 111.880414,7.97511289 L111.880414,8.24485415 L111.901594,8.26937608 C112.106989,8.26298811 112.297164,8.25736033 112.472121,8.25251725 C112.647069,8.24766191 112.845187,8.24509936 113.066475,8.24485415 C113.299226,8.24509936 113.508816,8.24766191 113.695246,8.25251725 C113.881665,8.25736033 114.078018,8.26298811 114.284305,8.26937608 L114.294895,8.24485415 L114.294895,7.98737386 C114.294895,7.94016914 114.27371,7.91564721 114.231355,7.91380806 L113.91366,7.88928613 C113.734776,7.87975936 113.618112,7.83076454 113.563667,7.74231393 C113.509213,7.65385106 113.484679,7.49849236 113.490068,7.27625009 L113.490068,3.97808702 C113.48329,3.72814723 113.505043,3.56134905 113.555328,3.47769248 C113.605603,3.39404817 113.725047,3.34832702 113.91366,3.34052905 L114.231355,3.31600712 C114.27371,3.31416797 114.294895,3.28964604 114.294895,3.24244132 L114.294895,2.98496104 L114.284305,2.9604391 C114.26334,2.96146903 114.119936,2.96555193 113.854093,2.97270007 C113.588239,2.97986047 113.3257,2.98394338 113.066475,2.98496104 C112.904535,2.98394338 112.738628,2.97986047 112.568753,2.97270007 C112.39887,2.96555193 112.307092,2.96146903 112.293418,2.9604391 L112.272238,2.98496104 L112.272238,3.25470229 C112.272455,3.27848856 112.277308,3.29437877 112.286799,3.30236066 C112.296282,3.31036707 112.309078,3.31491589 112.325187,3.31600712 C112.49815,3.33618867 112.604931,3.3939133 112.64553,3.48919326 C112.686119,3.58447323 112.702887,3.70656793 112.695831,3.85547736 L110.514327,6.89616015 L110.514327,3.97808702 C110.507265,3.73351753 110.529327,3.56825197 110.580514,3.48229034 C110.631696,3.39634097 110.754361,3.3490872 110.948509,3.34052905 L111.266205,3.31600712 C111.308561,3.31416797 111.329741,3.28964604 111.329744,3.24244132 L111.329744,2.98496104 L111.308564,2.9604391 C111.287382,2.96146903 111.14442,2.96555193 110.879676,2.97270007 C110.614928,2.97986047 110.355478,2.98394338 110.101324,2.98496104 L110.101324,2.98496104 Z M114.826284,8.24485415 L114.858054,8.26937608 L115.525213,8.25711511 C115.698179,8.24332152 115.863203,8.13297283 116.020287,7.92606903 C116.177368,7.71916523 116.305328,7.46168494 116.404168,7.15364043 C116.530406,6.74548514 116.671868,6.42582949 116.828556,6.19468576 C116.985238,5.96355429 117.16853,5.84589806 117.378432,5.84172933 L117.643178,5.84172933 L117.643178,7.30077202 C117.649573,7.53331351 117.631482,7.68984926 117.588904,7.77035476 C117.546322,7.85087252 117.440865,7.89459513 117.272533,7.9015471 L117.113686,7.91380806 C117.092504,7.91432302 117.07662,7.92248883 117.066032,7.93833 C117.05544,7.95417116 117.050145,7.97459793 117.050147,7.99963483 L117.050147,8.26937608 C117.067354,8.26834616 117.183841,8.26426325 117.399612,8.25711511 C117.615376,8.24995471 117.827173,8.24587181 118.035001,8.24485415 C118.237307,8.24587181 118.44425,8.24995471 118.65583,8.25711511 C118.867402,8.26426325 118.981683,8.26834616 118.998675,8.26937608 L118.998675,8.02415676 C118.999554,8.00883055 118.992493,7.98737386 118.977496,7.95978669 C118.962489,7.93219951 118.93425,7.9168733 118.892777,7.91380806 L118.659801,7.9015471 C118.576402,7.89107623 118.518159,7.82925644 118.485069,7.71609999 C118.451971,7.60294353 118.436087,7.46450496 118.437414,7.30077202 L118.437414,3.70834577 C118.436528,3.58115051 118.456826,3.48919326 118.498307,3.4324863 C118.539779,3.37577933 118.607731,3.34512691 118.70216,3.34052905 L118.966906,3.31600712 C118.988082,3.31600712 118.998671,3.30374615 118.998675,3.27922422 L118.998675,2.98496104 L118.977496,2.9604391 C118.961607,2.96146903 118.853061,2.96555193 118.651859,2.97270007 C118.450648,2.97986047 118.252089,2.98394338 118.056181,2.98496104 C117.953679,2.98466677 117.888048,2.98254563 117.859288,2.97860986 C117.830523,2.97467409 117.775874,2.97073832 117.695342,2.96680255 C117.614804,2.96286678 117.445628,2.96074563 117.187815,2.9604391 C116.316138,3.00004202 115.772087,3.20285066 115.555658,3.56888954 C115.339228,3.93492842 115.247892,4.22662906 115.281647,4.44400373 C115.301723,4.87901054 115.454833,5.20442884 115.74098,5.42027089 C116.027125,5.63611293 116.325846,5.74389908 116.637144,5.7436416 L116.637144,5.7804245 C116.484252,5.81159188 116.332023,5.89946622 116.180459,6.04403527 C116.02889,6.18861658 115.905784,6.38682736 115.811138,6.63867986 C115.725029,6.8869399 115.608143,7.14937362 115.460482,7.42598101 C115.31282,7.7025884 115.16496,7.86111043 115.016901,7.9015471 L114.932183,7.91380806 C114.909237,7.91253292 114.886293,7.91814845 114.863349,7.93066689 C114.840404,7.94318534 114.82805,7.97025755 114.826284,8.01189579 L114.826284,8.24485415 Z M116.075884,4.3091331 C116.063969,4.01564236 116.130155,3.77808614 116.274443,3.59646445 C116.418727,3.41486729 116.712595,3.32137742 117.156046,3.31600712 C117.357029,3.30987664 117.489843,3.33439857 117.554488,3.38957291 C117.619127,3.44474726 117.64869,3.56735692 117.643178,3.75738963 L117.643178,5.42486875 L116.93366,5.42486875 C116.633833,5.41669068 116.415418,5.30737191 116.278414,5.09688791 C116.141407,4.88641617 116.073897,4.62382306 116.075884,4.3091331 L116.075884,4.3091331 Z" id="lbe-tagline" fill="#000000" fill-rule="nonzero"></path>
    </g>
</svg>