<svg xmlns="http://www.w3.org/2000/svg" width="118" height="21"><path fill="#000" fill-rule="nonzero" d="M4.722 8.364v6.712c0 .495.126.842.377 1.041.26.2.772.3 1.535.3.997 0 1.843-.122 2.537-.365s1.21-.572 1.548-.989c.338-.416.576-.832.715-1.248a4.17 4.17 0 0 0 .208-1.327c0-.442-.06-.876-.182-1.301a4.864 4.864 0 0 0-.624-1.314c-.295-.45-.746-.815-1.353-1.092-.598-.278-1.323-.417-2.172-.417H4.722m-1.119 8.872c-.572 0-1.725.017-3.46.052-.087-.07-.134-.208-.143-.416 0-.217.048-.369.143-.456.997-.034 1.63-.182 1.9-.442.277-.26.416-.924.416-1.99V3.304c0-1.067-.14-1.726-.417-1.977-.277-.26-.91-.408-1.899-.442C.056.815.01.672 0 .455 0 .24.048.087.143 0c1.778.035 2.923.052 3.434.052h6.205L12.475 0l.052.052a27.59 27.59 0 0 1 .507 4.553c-.217.139-.529.182-.936.13-.321-1.257-.69-2.172-1.106-2.745-.416-.58-1.075-.871-1.977-.871h-3.33c-.642 0-.963.273-.963.82v5.359h2.9a11.5 11.5 0 0 1 2.355.22c.703.14 1.28.343 1.73.612.46.26.85.55 1.171.872.321.32.56.672.716 1.053.156.382.268.746.338 1.093.078.347.117.707.117 1.08 0 .815-.2 1.574-.599 2.276-.398.703-.901 1.249-1.508 1.64a6.158 6.158 0 0 1-2.303.923c-.841.147-1.886.22-3.135.22-.425 0-.95-.008-1.574-.025a53.555 53.555 0 0 0-1.327-.026M19.317 5.802l3.226-.052.078.052v.676c0 .104-.06.156-.182.156l-.858.052c-.547.035-.88.122-1.002.26-.113.13-.17.469-.17 1.015v6.348l5.868-6.608c0-.373-.057-.633-.17-.78-.104-.157-.377-.252-.82-.287-.086 0-.13-.043-.13-.13v-.702l.053-.052c.85.034 1.543.052 2.081.052l3.226-.052.026.052v.676c0 .104-.056.156-.169.156l-.845.052c-.512.035-.833.122-.963.26-.121.13-.182.469-.182 1.015v7.168c0 .494.065.819.195.975.13.148.447.23.95.247l.845.065c.104 0 .16.052.17.156v.664l-.027.052a164.727 164.727 0 0 0-3.226-.052c-.572 0-1.622.017-3.148.052l-.052-.052v-.69c0-.086.044-.13.13-.13l.885-.065c.511-.017.832-.104.962-.26.14-.156.209-.477.209-.962V8.846l-5.867 6.608v.052c0 .338.06.563.182.676.13.113.425.191.885.234.104 0 .16.052.169.156v.664l-.04.052-2.289-.052c-.572 0-1.617.017-3.135.052l-.026-.052v-.69c0-.086.044-.13.13-.13l.91-.065c.512-.017.825-.095.937-.234.122-.139.183-.45.183-.936V7.987c0-.572-.057-.924-.17-1.054-.104-.13-.42-.212-.95-.247l-.858-.052c-.121 0-.182-.043-.182-.13v-.702l.078-.052c1.258.034 2.285.052 3.083.052m13.125 11.434v-.612c0-.104.07-.173.209-.208l.533-.065c.477-.052.793-.151.95-.299.164-.156.247-.43.247-.82V7.858c0-.373-.091-.65-.274-.833-.173-.19-.48-.303-.923-.338l-.533-.052c-.14-.035-.209-.104-.209-.208v-.624l.052-.052c1.275.034 2.242.052 2.901.052l2.667-.052.052.052v.559c0 .173-.082.265-.247.273-.477.052-.828.152-1.054.3-.217.138-.325.429-.325.87v2.928c.885 0 1.57-.208 2.055-.625.495-.416.902-1.032 1.223-1.847.728-1.795 1.652-2.692 2.77-2.692.963 0 1.44.398 1.432 1.196 0 .27-.109.508-.326.716-.208.2-.455.299-.741.299-.278 0-.533-.078-.767-.234a1.267 1.267 0 0 0-.612-.195c-.156 0-.347.138-.572.416a3.834 3.834 0 0 0-.573 1.002c-.46 1.24-1.162 1.994-2.107 2.263v.104c1.544 0 2.584.629 3.122 1.886.997 2.203 1.865 3.36 2.602 3.473l.247.026c.2 0 .295.078.286.235v.48l-.078.053-2.016-.026c-1.067-.017-1.965-1.028-2.693-3.031-.304-.833-.676-1.453-1.119-1.86-.442-.416-1.153-.65-2.133-.703v3.617c0 .624.49 1.001 1.47 1.131.139.035.208.104.208.208v.612l-.052.052a87.561 87.561 0 0 0-2.719-.052l-2.9.052-.053-.052M48.976 5.802l3.226-.052.078.052v.676c0 .104-.06.156-.182.156l-.859.052c-.546.035-.88.122-1.001.26-.113.13-.17.469-.17 1.015v6.348l5.867-6.608c0-.373-.056-.633-.169-.78-.104-.157-.377-.252-.82-.287-.086 0-.13-.043-.13-.13v-.702l.053-.052c.85.034 1.543.052 2.08.052l3.227-.052.026.052v.676c0 .104-.057.156-.17.156l-.845.052c-.511.035-.832.122-.962.26-.122.13-.182.469-.182 1.015v7.168c0 .494.065.819.195.975.13.148.446.23.95.247l.845.065c.104 0 .16.052.169.156v.664l-.026.052a164.727 164.727 0 0 0-3.226-.052c-.573 0-1.622.017-3.148.052l-.052-.052v-.69c0-.086.043-.13.13-.13l.884-.065c.512-.017.833-.104.963-.26.139-.156.208-.477.208-.962V8.846l-5.866 6.608v.052c0 .338.06.563.182.676.13.113.425.191.884.234.104 0 .16.052.17.156v.664l-.04.052-2.29-.052c-.572 0-1.617.017-3.134.052l-.026-.052v-.69c0-.086.043-.13.13-.13l.91-.065c.512-.017.824-.095.937-.234.121-.139.182-.45.182-.936V7.987c0-.572-.056-.924-.169-1.054-.104-.13-.42-.212-.95-.247l-.858-.052c-.121 0-.182-.043-.182-.13v-.702l.078-.052c1.257.034 2.285.052 3.083.052m15.193 2.185c0-.546-.06-.889-.182-1.028-.121-.147-.442-.238-.962-.273l-.846-.052c-.087 0-.13-.043-.13-.13v-.702l.052-.052 3.083.052h7.779l3.226-.052.026.052v.676c0 .104-.052.156-.156.156l-.859.052c-.529.035-.854.122-.975.26-.113.13-.17.469-.17 1.015v7.142c0 .511.066.845.196 1.001.138.148.455.23.95.247l.858.065c.104 0 .156.052.156.156v.664l-.026.052a119.942 119.942 0 0 0-3.148-.052l-3.083.052-.026-.052v-.69c0-.086.043-.13.13-.13l.768-.065c.494-.034.806-.13.936-.286.139-.165.208-.486.208-.962v-7.22c0-.442-.104-.724-.312-.846-.2-.13-.477-.195-.832-.195H67.42c-.355 0-.637.07-.845.208-.2.13-.3.408-.3.833v7.22c0 .511.066.845.196 1.001.139.148.446.23.923.247l.78.065c.088 0 .131.052.131.156v.664l-.026.052a113.67 113.67 0 0 0-3.07-.052l-3.135.052-.065-.052v-.69c0-.086.056-.13.17-.13l.845-.065c.494-.017.806-.108.936-.273.139-.173.208-.499.208-.975V7.987m16.144 1.73 4.826-.078c.268 0 .398-.121.39-.364 0-1.015-.217-1.735-.65-2.16a2.15 2.15 0 0 0-1.562-.637c-.234 0-.464.03-.689.091-.225.06-.503.19-.833.39-.33.191-.628.525-.897 1.002s-.464 1.062-.585 1.756m6.985 5.047c.303.018.49.156.56.417-1.189 1.543-2.702 2.315-4.54 2.315-1.761 0-3.118-.568-4.072-1.704-.833-.963-1.249-2.276-1.249-3.942 0-1.881.564-3.395 1.691-4.54 1.128-1.144 2.337-1.716 3.63-1.716 3 0 4.5 1.543 4.5 4.63 0 .304-.165.456-.494.456l-7.09-.052c0 1.491.282 2.71.846 3.655.78 1.275 1.752 1.912 2.914 1.912.746 0 1.353-.104 1.821-.312.477-.217.971-.59 1.483-1.119m2.315 5.88.17-3.538c.017-.39.281-.62.793-.69.997-.104 1.557-.45 1.678-1.04.694-2.949 1.04-5.572 1.04-7.87 0-.495-.38-.768-1.144-.82l-.78-.052c-.14 0-.209-.043-.209-.13v-.702l.104-.052c1.475.034 2.372.052 2.693.052h5.412l3.004-.052.026.052v.533c0 .121-.06.186-.182.195l-.507.052c-.512.052-.859.165-1.04.338-.174.165-.26.469-.26.91v7.377c0 .303.069.55.207.741.14.182.273.295.404.338.138.044.316.087.533.13.477.07.715.29.715.664l.156 3.564h-.715a5.346 5.346 0 0 0-.312-1.002 6.236 6.236 0 0 0-.586-1.092 2.789 2.789 0 0 0-1.04-.963 3.044 3.044 0 0 0-1.47-.351h-4.605c-1.691 0-2.81 1.145-3.356 3.434l-.729-.026m3.604-4.761c0 .217.177.32.533.312h3.434c.494 0 .802-.09.924-.273.13-.19.195-.533.195-1.028V8.13c0-.512-.065-.858-.195-1.04-.122-.183-.43-.274-.924-.274H95.13c-.2 0-.364.057-.494.17-.13.103-.213.203-.248.299a.707.707 0 0 0-.052.22 63.677 63.677 0 0 1-.468 4.658c-.19 1.318-.347 2.254-.468 2.81-.122.554-.182.858-.182.91m16.572.533c.963 0 1.778-.13 2.446-.39.676-.26 1.183-.607 1.522-1.04.338-.434.572-.863.702-1.288a4.37 4.37 0 0 0 .208-1.34c0-1.015-.351-1.934-1.054-2.758-.702-.824-1.816-1.236-3.343-1.236h-2.003v6.257c0 1.197.507 1.795 1.522 1.795m-3.785-2.432V3.304c0-1.067-.14-1.726-.417-1.977-.268-.26-.901-.408-1.899-.442-.086-.07-.13-.213-.13-.43 0-.216.044-.368.13-.455 1.778.035 2.923.052 3.434.052.573 0 1.726-.017 3.46-.052.07.087.105.239.105.455 0 .208-.035.352-.104.43-.998.034-1.635.182-1.913.442-.268.251-.403.91-.403 1.977v3.994h2.342c.945 0 1.782.069 2.51.208.729.13 1.323.325 1.782.585.46.252.846.53 1.158.833.312.303.542.663.69 1.08.156.416.26.801.312 1.157.052.356.078.755.078 1.197 0 1.76-.59 3.022-1.77 3.785-1.179.763-3.056 1.145-5.632 1.145-.338 0-.793-.009-1.366-.026a44.895 44.895 0 0 0-1.223-.026c-.572 0-1.725.017-3.46.052-.086-.07-.13-.208-.13-.416 0-.217.044-.369.13-.456.998-.034 1.63-.182 1.9-.442.277-.26.416-.924.416-1.99"/></svg>