<?xml version="1.0" encoding="UTF-8"?>
<svg width="114px" height="11px" viewBox="0 0 114 11" version="1.1" xmlns="http://www.w3.org/2000/svg" xmlns:xlink="http://www.w3.org/1999/xlink">
    <title>mk-tagline</title>
    <g id="Page-1" stroke="none" stroke-width="1" fill="none" fill-rule="evenodd">
        <path d="M12.1368513,3.26790451 C12.160252,3.37802687 12.1449516,3.60015402 12.09005,3.62274322 L11.7507402,3.65945067 C11.3448284,3.70368786 11.2728263,3.73286558 11.1891239,4.19688543 L10.674309,7.0243005 C10.6158073,7.34243176 10.5456053,7.61067853 10.5456053,7.72080089 C10.5456053,7.86668948 10.5807063,7.92975101 10.6626087,7.92975101 C10.779612,7.92975101 11.1189219,7.68409344 11.4231307,7.31796013 C11.5869354,7.31796013 11.6571374,7.41584667 11.6922385,7.52691024 C11.1540229,8.2497647 10.6275076,8.66484128 10.0658914,8.66484128 C9.71488122,8.66484128 9.63297885,8.49259861 9.63297885,8.26011808 C9.63297885,8.02857876 9.76168258,7.53820484 9.83188461,7.13536408 L10.3466995,4.35689227 C10.3701002,4.21006246 10.3935009,4.0999401 10.3935009,4.01428938 C10.3935009,3.83169333 10.2998982,3.76957303 10.0307904,3.76957303 L9.41067241,3.76957303 C9.00116056,3.76957303 8.88415717,4.13664756 8.62674972,5.28493198 C8.40174321,6.28826902 8.12363516,7.30478309 7.88962838,7.78103876 C7.63222093,8.35612219 7.24610976,8.66390006 6.80149689,8.66390006 C6.4738874,8.66390006 6.19307927,8.40694789 6.19307927,8.11234705 C6.19307927,8.08881663 6.19307927,8.05210918 6.20477961,8.02575511 C6.25158097,7.78103876 6.41538571,7.58526568 6.63769214,7.58526568 C6.81319722,7.58526568 6.91850027,7.73209549 6.91850027,7.90339694 C6.91850027,7.91563275 6.91850027,7.94010439 6.90679993,7.95234021 C6.89509959,8.11234705 6.93020061,8.23564644 7.02380332,8.23564644 C7.12910637,8.23564644 7.25781009,8.11234705 7.39821416,7.80739283 C7.60882026,7.39137503 7.85452737,6.65628476 8.1353355,5.37152392 C8.16575638,5.23222384 8.19336918,5.10406777 8.21808029,4.98611449 L8.28341498,4.66192179 C8.33985742,4.36645504 8.36934227,4.15434243 8.36934227,4.00017113 C8.36934227,3.66980406 8.1353355,3.66980406 7.772625,3.62274322 C7.70242296,3.57379995 7.69072263,3.32814238 7.74922432,3.26790451 C8.18213685,3.28014033 8.42784396,3.29049371 8.87245683,3.29049371 L10.9902181,3.29049371 C11.4582317,3.29049371 12.1368513,3.26790451 12.1368513,3.26790451 Z M4.44882878,0.489432703 C5.82946875,0.489432703 6.16877857,1.00333704 6.80059686,1.04004449 C6.73039483,1.70077864 6.70699415,2.30127492 6.69529381,2.93753743 L6.35598399,2.98742192 C6.26238128,1.93514161 5.79436773,0.94309917 4.23822269,0.94309917 C3.34899694,0.94309917 1.57054546,1.97184906 1.10253192,4.4538376 C1.03953009,4.79738171 1.00712915,5.14657312 1.00712915,5.48541114 C1.00712915,6.91041328 1.59124606,8.16317276 2.99888681,8.16317276 C4.04021695,8.16317276 4.88264134,7.78386241 5.85376945,6.82946864 C5.98247318,6.82946864 6.04097487,6.90288355 6.07607589,7.01112347 C5.11664811,8.10011123 4.00511594,8.66390006 2.91698444,8.66390006 C0.874825324,8.66390006 0,7.22383845 0,5.58706255 C0,5.29246171 0.0279008077,4.9884487 0.084602449,4.68631813 C0.531015371,2.27492085 2.58847493,0.489432703 4.44882878,0.489432703 Z M15.3643448,3.16907675 C16.8034864,3.16907675 17.0140925,4.27030033 17.0140925,5.1512792 C17.0140925,6.59698811 16.2193695,7.89304355 15.20054,8.42953709 C14.8567301,8.61025071 14.5021198,8.66295884 14.1241089,8.66295884 C12.6381658,8.66295884 12.4860614,7.20501412 12.4860614,6.55839822 C12.4860614,5.09010011 13.4112882,3.16907675 15.3643448,3.16907675 Z M14.4175173,8.23564644 C14.8972312,8.23564644 15.2716421,7.97869428 15.5524502,7.46478994 C15.9412615,6.75511252 16.0438644,5.72071532 16.0438644,5.23787114 C16.0438644,4.86514931 15.9835627,4.43407205 15.8332583,4.12441174 C15.6667535,3.78086763 15.5056488,3.57379995 15.1546387,3.57379995 C13.8208001,3.57379995 13.4580886,5.35834688 13.4580886,6.45957046 C13.4571896,7.74527253 14.0782075,8.23564644 14.4175173,8.23564644 Z M20.6654982,0 C21.1452121,0 21.6123256,0.257893386 21.9291348,0.45272525 C22.2099429,0.626850347 22.6194548,0.880978865 22.6194548,1.10028237 C22.6194548,1.27252503 22.419649,1.57842047 22.0452382,1.57842047 C21.2973165,1.57842047 21.4728216,0.40378198 20.6654982,0.40378198 C19.9049762,0.40378198 19.8230738,1.01369043 19.8230738,1.16240267 C19.8230738,1.50500556 20.0921816,1.87302131 20.6771986,2.50928382 L21.3090168,3.15684093 C21.8121314,3.67168649 22.1397409,4.36818687 22.1397409,5.17669205 C22.1397409,6.61957731 20.9580067,8.68743048 19.0859525,8.68743048 C17.9861207,8.68743048 17.4128038,7.91751519 17.4128038,6.87652948 C17.411904,4.72302558 19.5764667,3.56062291 20.209185,3.27919911 L20.0687809,3.1323693 C19.483764,2.44716352 19.2029559,2.00855652 19.2029559,1.5181826 C19.2029559,0.795328142 19.7645721,0 20.6654982,0 Z M25.392435,3.16907675 C26.8315767,3.16907675 27.0421828,4.27030033 27.0421828,5.1512792 C27.0421828,6.59698811 26.2474598,7.89304355 25.2277303,8.42953709 C24.8848204,8.61025071 24.5302101,8.66295884 24.1521991,8.66295884 C22.6671562,8.66295884 22.5141511,7.20501412 22.5141511,6.55839822 C22.5132517,5.09010011 23.4375785,3.16907675 25.392435,3.16907675 Z M20.4539921,3.56062291 C19.5998674,3.98887653 18.2660288,4.85856079 18.2660288,6.79276119 C18.2660288,7.57585351 18.5351365,8.32223838 19.2839582,8.32223838 C20.6303972,8.32035595 21.2379148,6.24120818 21.2379148,5.44493882 C21.2379148,4.89526825 21.0624097,4.27030033 20.7230999,3.87875417 L20.4539921,3.56062291 Z M25.1818289,3.57379995 C23.8488904,3.57379995 23.4852789,5.35834688 23.4852789,6.45957046 C23.4843798,7.74527253 24.1053978,8.23564644 24.4447076,8.23564644 C24.9244215,8.23564644 25.2988323,7.97869428 25.5796405,7.46478994 C25.9693517,6.75511252 26.0710547,5.72071532 26.0710547,5.23787114 C26.0710547,4.86514931 26.0098529,4.43407205 25.8604486,4.12441174 C25.6939438,3.78086763 25.5337391,3.57379995 25.1818289,3.57379995 Z M29.0303404,8.5650723 C28.223917,8.5650723 27.4858956,7.89210234 27.4858956,6.76640712 C27.4858956,6.58286986 27.5092963,6.37486096 27.5551977,6.15461624 C27.9998105,4.13570634 29.6504583,3.15684093 30.7385898,3.15684093 C31.2417044,3.15684093 31.6278155,3.30367075 31.8969233,3.60768375 C32.0481277,3.39967485 32.3064352,3.0815436 32.4459392,3.0815436 L32.5863433,3.0815436 L31.4748111,8.14811329 C31.193103,9.39522546 30.8087918,10.1416103 30.0707705,10.596218 C29.6018569,10.9021135 29.1464437,11 28.7018308,11 C28.0934132,11 27.1456858,10.5849234 27.1456858,10.0088988 C27.1456858,9.97219132 27.1456858,9.93548387 27.1573861,9.8865406 C27.2149878,9.62958843 27.4147936,9.45828699 27.6605007,9.45828699 C27.9773099,9.45828699 28.0232112,9.64088303 28.0700126,9.86206897 C28.1177139,10.0823137 28.293219,10.6084538 28.8422349,10.6084538 C29.813363,10.6084538 30.2111745,9.91195345 30.5621847,8.30906135 L30.6557874,7.8676307 C30.1535729,8.32035595 29.5919566,8.5650723 29.0303404,8.5650723 Z M30.7394898,7.48926157 L31.5108122,4.01428938 C31.3470074,3.70839394 31.0787996,3.54932831 30.7268895,3.54932831 C29.6162573,3.54932831 28.7846332,4.66278771 28.4930248,5.99743305 C28.4453234,6.21673654 28.4228228,6.43886369 28.4228228,6.63463678 C28.4228228,7.45349534 28.8089339,8.02857876 29.3822505,8.02857876 C29.638758,8.02763755 30.2237749,7.95422264 30.7394898,7.48926157 Z M33.8859809,4.61290323 C33.9687833,4.27030033 33.991284,4.0999401 33.991284,3.98887653 C33.991284,3.86651835 33.9210819,3.75733721 33.7806779,3.74416018 L33.3126643,3.70745273 C33.2424623,3.59733037 33.2226617,3.46273637 33.300964,3.36579105 C33.8499799,3.29237614 34.3773951,3.2057842 34.751806,3.2057842 C34.9066105,3.2057842 34.9921129,3.29802344 34.9921129,3.46367759 C34.9921129,3.67451014 34.858009,4.14888337 34.7554061,4.62231539 L34.5673006,5.46752802 L36.6220601,5.46752802 L36.892968,4.17053136 C36.9910708,3.70651151 36.9865707,3.16813554 37.4320836,3.16813554 C37.8064944,3.16813554 37.9234978,3.28955249 37.9234978,3.49944383 C37.9234978,3.6443912 37.8127946,4.01428938 37.7713934,4.23265166 L37.1161744,7.02335929 C37.0459724,7.34149055 36.9865707,7.54949944 36.9865707,7.6596218 C36.9865707,7.80645161 37.0216717,7.8676307 37.1035741,7.8676307 C37.2214775,7.8676307 37.5607873,7.68597587 37.8649961,7.31701891 C38.0288008,7.31701891 38.0990029,7.41490545 38.1341039,7.52596903 C37.5958883,8.24882348 37.068473,8.66390006 36.5077568,8.66390006 C36.1558466,8.66390006 36.0748443,8.4916574 36.0748443,8.25917686 C36.0748443,8.02763755 36.1945477,7.51279199 36.27375,7.13442286 L36.5212572,5.94848977 L34.4619976,5.94848977 L34.0839866,7.6596218 C33.9795836,8.12458287 33.9903839,8.66295884 33.5457711,8.66295884 C33.1731603,8.66295884 33.0435565,8.53307093 33.0435565,8.32976812 C33.0435565,8.21023359 33.1362592,7.90433815 33.1920608,7.6596218 L33.8859809,4.61290323 Z M43.3749556,3.26696329 L42.5685322,7.07230256 C42.5208309,7.30478309 42.4515289,7.64644477 42.4515289,7.75750834 C42.4515289,7.90433815 42.5559319,7.93069222 42.5910329,7.93069222 C42.7089363,7.93069222 42.9303427,7.73491914 43.2471519,7.28219389 C43.3992563,7.28219389 43.4541579,7.37443313 43.5162597,7.47796697 C43.2120509,8.17540857 42.7449374,8.66672371 42.0186163,8.66672371 C41.6217048,8.66672371 41.5389024,8.34671002 41.5389024,8.1151707 C41.5389024,7.96928211 41.5740035,7.72362454 41.6568059,7.44220074 L41.8080102,6.92735518 L41.7855096,6.90382476 C41.0843893,7.99187131 40.4282703,8.66672371 39.8081523,8.66672371 C38.8253239,8.66672371 38.6732195,7.70009412 38.6732195,7.01394712 C38.6732195,5.09292376 40.3706686,3.1719004 41.6217048,3.1719004 C42.0897184,3.1719004 42.2409228,3.20860785 42.5568319,3.24531531 C42.7899387,3.30367075 43.0941475,3.26696329 43.3749556,3.26696329 Z M42.3804268,3.78086763 C42.1581204,3.63403782 41.9007129,3.5483871 41.6550058,3.5483871 C40.5785746,3.5483871 39.6074465,5.51835373 39.6074465,6.81629161 C39.6074465,7.50243861 39.7244499,7.99093009 40.1222614,7.99093009 C40.4966723,7.99093009 41.3975984,6.9621802 41.9709149,5.86095662 C42.2634234,5.07786429 42.3804268,3.78086763 42.3804268,3.78086763 Z M47.845385,6.52169077 C47.845385,7.63609138 48.2071955,7.92880979 48.7346107,7.92880979 C49.295327,7.92880979 49.6580375,7.73303671 50.3258568,7.02335929 C50.4662609,7.02335929 50.5364629,7.08265594 50.5949646,7.21819115 C49.9037446,8.14811329 49.0973212,8.66295884 48.3133985,8.66295884 C47.1784657,8.66295884 46.8742569,7.84315907 46.8742569,6.80123214 C46.8742569,5.24728331 47.775183,3.16813554 49.7759409,3.16813554 C50.7236683,3.16813554 50.9342744,3.59638915 50.9342744,4.02370155 C50.9342744,4.48866262 50.9117738,5.48070506 47.8570853,6.10379054 C47.845385,6.20355951 47.845385,6.4614529 47.845385,6.52169077 Z M49.5059331,3.5483871 C49.0154189,3.5483871 48.3511996,3.90981432 47.9380877,5.63788825 C48.8273134,5.51835373 50.1143507,5.11457175 50.1143507,4.01334816 C50.1143507,3.65850945 49.9271453,3.5483871 49.5059331,3.5483871 Z M52.303214,4.61290323 C52.3851164,4.27030033 52.4085171,4.0999401 52.4085171,3.98887653 C52.4085171,3.86651835 52.3383151,3.75733721 52.197911,3.74416018 L51.7298974,3.70745273 C51.6596954,3.59733037 51.6389948,3.46273637 51.7172971,3.36579105 C52.267213,3.29237614 52.7928282,3.2057842 53.1672391,3.2057842 C53.3220435,3.2057842 53.408446,3.29802344 53.408446,3.46367759 C53.408446,3.67451014 53.2752422,4.14888337 53.1717392,4.62231539 L52.9845338,5.46752802 L55.0374932,5.46752802 L55.3093011,4.17053136 C55.4065039,3.70651151 55.4029038,3.16813554 55.8475166,3.16813554 C56.2219275,3.16813554 56.3389309,3.28955249 56.3389309,3.49944383 C56.3389309,3.6443912 56.2300277,4.01428938 56.1868265,4.23265166 L55.5316075,7.02335929 C55.4614055,7.34149055 55.4020037,7.54949944 55.4020037,7.6596218 C55.4020037,7.80645161 55.4371048,7.8676307 55.5190071,7.8676307 C55.6369105,7.8676307 55.9762204,7.68597587 56.2804292,7.31701891 C56.4442339,7.31701891 56.5144359,7.41490545 56.549537,7.52596903 C56.0113214,8.24882348 55.4839061,8.66390006 54.9231899,8.66390006 C54.5712797,8.66390006 54.4902774,8.4916574 54.4902774,8.25917686 C54.4902774,8.02763755 54.6090808,7.51279199 54.6891831,7.13442286 L54.9375903,5.94848977 L52.8783307,5.94848977 L52.5003197,7.6596218 C52.3959167,8.12458287 52.4076171,8.66295884 51.9630042,8.66295884 C51.5903934,8.66295884 51.4598896,8.53307093 51.4598896,8.32976812 C51.4598896,8.21023359 51.5534923,7.90433815 51.6083939,7.6596218 L52.303214,4.61290323 Z M62.0963975,4.23359288 L61.4402785,7.0243005 C61.3709765,7.34243176 61.3115748,7.61067853 61.3115748,7.72080089 C61.3115748,7.86668948 61.3457758,7.92975101 61.4285782,7.92975101 C61.5455816,7.92975101 61.8848914,7.68409344 62.1891002,7.31796013 C62.353805,7.31796013 62.424007,7.41584667 62.459108,7.52691024 C62.2890031,7.75468469 62.1197982,7.95328142 61.9505933,8.11705314 C61.903792,8.27141268 61.8749911,8.42953709 61.8749911,8.57824934 C61.8749911,8.79849405 61.8965917,8.95755968 61.9217925,9.09309489 C61.9568935,9.25310174 61.9793941,9.39804911 61.9793941,9.58346881 C61.9793941,9.91383589 61.8614907,10.305382 60.7616589,10.7581073 L60.6320551,10.4155044 C60.972265,10.244203 61.2980744,10.0606657 61.2980744,9.69359117 C61.2980744,9.62017626 61.2863741,9.52134851 61.2863741,9.3745187 C61.2863741,9.08744759 61.352976,8.80602379 61.4942801,8.47000941 C61.2764738,8.59801489 61.0559674,8.66484128 60.8300609,8.66484128 C60.4781507,8.66484128 60.3980484,8.49259861 60.3980484,8.26011808 C60.3980484,8.02857876 60.4916511,7.52691024 60.5978541,7.13536408 L60.7265579,6.65722598 L60.6923569,6.63463678 C59.8607328,7.9071618 59.2757159,8.66484128 58.3630895,8.66484128 C57.9535776,8.66484128 57.5791668,8.38341747 57.5791668,7.68691709 C57.5791668,7.45349534 57.6178679,7.18524857 57.6970702,6.86711731 L58.2109851,4.80961752 C58.2901873,4.49148627 58.3630895,4.2232395 58.3630895,4.11311714 C58.3630895,3.96722854 58.3279884,3.90416702 58.2460861,3.90416702 C58.1290827,3.90416702 57.7420715,4.14982459 57.4387627,4.5159579 C57.274958,4.5159579 57.2047559,4.41807136 57.1696549,4.30700779 C57.7078705,3.58415333 58.3756898,3.16907675 58.9364061,3.16907675 C59.2892163,3.16907675 59.3585183,3.34131941 59.3585183,3.57379995 C59.3585183,3.80533927 59.2055138,4.30700779 59.1137112,4.69855395 L58.6096966,6.69299221 C58.5268942,7.0243005 58.5052936,7.27937024 58.5052936,7.47514332 C58.5052936,7.80739283 58.6447976,7.92786857 58.8563037,7.92786857 C59.4413207,7.92786857 60.0146373,7.05818431 60.8813624,5.51553008 L61.2206722,4.16959014 C61.3367755,3.70462908 61.3142749,3.1662531 61.7588878,3.1662531 C62.1332986,3.1662531 62.251202,3.28955249 62.251202,3.49850261 C62.2485019,3.64533242 62.1377987,4.01428938 62.0963975,4.23359288 Z M67.3012482,7.0243005 C67.2310462,7.34243176 67.1725445,7.61067853 67.1725445,7.72080089 C67.1725445,7.86668948 67.2076455,7.92975101 67.2895479,7.92975101 C67.4065512,7.92975101 67.7458611,7.68409344 68.0500699,7.31796013 C68.2156747,7.31796013 68.2858767,7.41584667 68.3191777,7.52691024 C67.7809621,8.2497647 67.2553469,8.66484128 66.6928306,8.66484128 C66.3418204,8.66484128 66.2608181,8.49259861 66.2608181,8.26011808 C66.2608181,8.02857876 66.3544208,7.52691024 66.4606239,7.13536408 L66.5902276,6.65722598 L66.5551266,6.63463678 C65.7235025,7.9071618 65.1393856,8.66484128 64.2258592,8.66484128 C63.8163473,8.66484128 63.4419365,8.38341747 63.4419365,7.68691709 C63.4419365,7.45349534 63.4806376,7.18524857 63.5598399,6.86711731 L64.0746548,4.80961752 C64.1538571,4.49148627 64.2258592,4.2232395 64.2258592,4.11311714 C64.2258592,3.96722854 64.1907582,3.90416702 64.1097558,3.90416702 C63.9918524,3.90416702 63.6057412,4.14982459 63.3024324,4.5159579 C63.1377277,4.5159579 63.0675256,4.41807136 63.0324246,4.30700779 C63.5724403,3.58415333 64.2384595,3.16907675 64.8000758,3.16907675 C65.151986,3.16907675 65.222188,3.34131941 65.222188,3.57379995 C65.222188,3.80533927 65.0700836,4.30700779 64.9773809,4.69855395 L64.4733663,6.69299221 C64.3905639,7.0243005 64.3689633,7.27937024 64.3689633,7.47608454 C64.3689633,7.80739283 64.5084674,7.92786857 64.7190734,7.92786857 C65.3040904,7.92786857 65.877407,7.05818431 66.7441321,5.51553008 L67.0834419,4.16959014 C67.2004453,3.70462908 67.1770446,3.1662531 67.6225575,3.1662531 C67.9969683,3.1662531 68.1139717,3.28955249 68.1139717,3.49850261 C68.1139717,3.6443912 68.0041685,4.01334816 67.9618673,4.23076923 L67.3012482,7.0243005 Z M79.3687975,3.26790451 C79.3912982,3.37802687 79.3777978,3.60015402 79.3219962,3.62274322 L78.9817863,3.65945067 C78.5767746,3.70368786 78.5047725,3.73286558 78.4201701,4.19688543 L77.9062552,7.0243005 C77.8486535,7.34243176 77.7766514,7.61067853 77.7766514,7.72080089 C77.7766514,7.86668948 77.8108524,7.92975101 77.8936548,7.92975101 C78.0115582,7.92975101 78.3508681,7.68409344 78.6550769,7.31796013 C78.8188816,7.31796013 78.8890836,7.41584667 78.9241846,7.52691024 C78.3859691,8.2497647 77.8585538,8.66484128 77.2969375,8.66484128 C76.9459274,8.66484128 76.8658251,8.49259861 76.8658251,8.26011808 C76.8658251,8.02857876 76.9945288,7.53820484 77.0647308,7.13536408 L77.5759456,4.35689227 C77.5984463,4.21006246 77.6218469,4.0999401 77.6218469,4.01428938 C77.6218469,3.83169333 77.5282442,3.76957303 77.2609365,3.76957303 L76.6417186,3.76957303 C76.2322067,3.76957303 76.1143033,4.13664756 75.8577959,5.28493198 C75.6327894,6.28826902 75.3537813,7.30478309 75.1206745,7.78103876 C74.8632671,8.35612219 74.4771559,8.66390006 74.032543,8.66390006 C73.7067336,8.66390006 73.4232254,8.40694789 73.4232254,8.11234705 C73.4232254,8.08881663 73.4232254,8.05210918 73.4358258,8.02575511 C73.4835272,7.78103876 73.6464319,7.58526568 73.8678383,7.58526568 C74.0433434,7.58526568 74.1495464,7.73209549 74.1495464,7.90339694 C74.1495464,7.91563275 74.1495464,7.94010439 74.1378461,7.95234021 C74.1261458,8.11234705 74.1612468,8.23564644 74.2548495,8.23564644 C74.3601525,8.23564644 74.4888563,8.11234705 74.6292603,7.80739283 C74.8398664,7.39137503 75.0855735,6.65628476 75.3654816,5.37152392 C75.5184861,4.67502353 75.6003884,4.2571233 75.6003884,4.00017113 C75.6003884,3.66980406 75.3654816,3.66980406 75.0036712,3.62274322 C74.9334691,3.57379995 74.9208688,3.32814238 74.9811705,3.26790451 C75.413183,3.28014033 75.6597902,3.29049371 76.104403,3.29049371 L78.2230644,3.29049371 C78.2952049,3.29049371 78.3722663,3.28995906 78.451027,3.28905425 L78.6891853,3.28539392 C79.0444047,3.27873129 79.3687975,3.26790451 79.3687975,3.26790451 Z M73.4799271,3.1662531 C73.8534379,3.1662531 73.9830416,3.32437751 73.9830416,3.54462223 C73.9830416,3.94934543 73.6311314,4.19217934 73.409725,4.19217934 C73.0461145,4.19688543 73.1415173,3.98887653 72.8724095,3.98887653 C72.7554061,3.98887653 72.5204993,4.25806452 72.3107932,4.63737486 C72.0182847,5.16351502 71.6438739,5.67647814 71.1056583,5.76212886 C71.7365766,5.76212886 72.1361882,6.01813981 72.2513915,6.61863609 C72.3323938,7.08265594 72.5538002,8.13117139 72.9876128,8.19799778 L73.0704152,8.21023359 C73.131617,8.22058698 73.1865186,8.23470523 73.1865186,8.30812013 L73.1298169,8.53965945 L73.1064162,8.56413109 L72.2999929,8.53965945 C71.7707776,8.52365877 71.5286706,7.65868059 71.4332678,7.15701206 C71.3153644,6.51698468 71.1803605,6.05484727 70.3550366,5.97202019 L69.9824258,7.65868059 C69.8789228,8.12364165 69.8897231,8.66201763 69.4451103,8.66201763 C69.0724995,8.66201763 68.9419957,8.53212972 68.9419957,8.3288269 C68.9419957,8.20929238 69.0355984,7.90339694 69.0905,7.65868059 L69.7844201,4.61196201 C69.8663224,4.26935912 69.8897231,4.09899889 69.8897231,3.98793531 C69.8897231,3.86557714 69.8195211,3.756396 69.679117,3.74321896 L69.2111035,3.70651151 C69.1409014,3.59638915 69.1193008,3.46179516 69.1985031,3.36484983 C69.746619,3.29143493 70.2740342,3.20484299 70.6484451,3.20484299 C70.8032496,3.20484299 70.888752,3.29708223 70.888752,3.46273637 C70.888752,3.67356892 70.7546482,4.14794216 70.6520452,4.62137418 L70.4459392,5.55223753 C71.2037612,5.53529563 71.6618744,5.06280483 72.0515857,4.40207068 C72.3917956,3.82698725 72.9057104,3.1662531 73.4799271,3.1662531 Z M82.5944909,3.16907675 C84.0345326,3.16907675 84.2451387,4.27030033 84.2451387,5.1512792 C84.2451387,6.59698811 83.4495156,7.89304355 82.4297861,8.42953709 C82.0859762,8.61025071 81.733166,8.66295884 81.355155,8.66295884 C79.868312,8.66295884 79.717105,7.20501412 79.717105,6.55839822 C79.7153075,5.09010011 80.6414344,3.16907675 82.5944909,3.16907675 Z M81.6467635,8.23564644 C82.1264773,8.23564644 82.5008882,7.97869428 82.7834964,7.46478994 C83.1723076,6.75511252 83.2740106,5.72071532 83.2740106,5.23787114 C83.2740106,4.86514931 83.2146088,4.43407205 83.0643045,4.12441174 C82.8977997,3.78086763 82.737595,3.57379995 82.3847848,3.57379995 C81.0527463,3.57379995 80.6882347,5.35834688 80.6882347,6.45957046 C80.6873357,7.74527253 81.3074536,8.23564644 81.6467635,8.23564644 Z M89.0647782,7.0243005 C88.9945762,7.34243176 88.9351744,7.61067853 88.9351744,7.72080089 C88.9351744,7.86668948 88.9702755,7.92975101 89.0530779,7.92975101 C89.1691812,7.92975101 89.508491,7.68409344 89.8135999,7.31796013 C89.9783046,7.31796013 90.0485067,7.41584667 90.0827077,7.52691024 C89.5435921,8.2497647 89.0179768,8.66484128 88.4554606,8.66484128 C88.1053504,8.66484128 88.023448,8.49259861 88.023448,8.26011808 C88.023448,8.02857876 88.1170508,7.52691024 88.2241539,7.13536408 L88.3528576,6.65722598 L88.3177566,6.63463678 C87.4870325,7.9071618 86.9020156,8.66484128 85.9893892,8.66484128 C85.5798773,8.66484128 85.2054665,8.38341747 85.2054665,7.68691709 C85.2054665,7.45349534 85.2432676,7.18524857 85.3224699,6.86711731 L85.8372848,4.80961752 C85.9173871,4.49148627 85.9893892,4.2232395 85.9893892,4.11311714 C85.9893892,3.96722854 85.9542882,3.90416702 85.8723858,3.90416702 C85.7544824,3.90416702 85.3674712,4.14982459 85.0650624,4.5159579 C84.9012577,4.5159579 84.8310556,4.41807136 84.7959546,4.30700779 C85.3350702,3.58415333 86.0010895,3.16907675 86.5627058,3.16907675 C86.915516,3.16907675 86.985718,3.34131941 86.985718,3.57379995 C86.985718,3.80533927 86.8327136,4.30700779 86.7400109,4.69855395 L86.2368963,6.69299221 C86.1531939,7.0243005 86.1315933,7.27937024 86.1315933,7.47608454 C86.1315933,7.80739283 86.2719973,7.92786857 86.4826034,7.92786857 C87.0667204,7.92786857 87.640937,7.05818431 88.506762,5.51553008 L88.8460719,4.16959014 C88.9630752,3.70462908 88.9396746,3.1662531 89.3860875,3.1662531 C89.7604983,3.1662531 89.8766017,3.28955249 89.8766017,3.49850261 C89.8766017,3.6443912 89.7676985,4.01334816 89.7253973,4.23076923 L89.0647782,7.0243005 Z M86.6419081,2.43398648 C86.536605,2.43398648 86.5105043,2.33609994 86.5258047,2.25233165 C86.5537055,2.10550184 86.7247105,1.89749294 86.8525142,1.89749294 L89.7199972,1.89749294 C89.8379006,1.89749294 89.8631013,1.99537948 89.8505009,2.06879439 C89.8226001,2.2156242 89.6497951,2.43681013 89.4967907,2.43681013 L86.6419081,2.43681013 L86.6419081,2.43398648 L86.6419081,2.43398648 Z M91.6037517,6.52169077 C91.6037517,7.63609138 91.9646621,7.92880979 92.4929774,7.92880979 C93.0536937,7.92880979 93.4155041,7.73303671 94.0842235,7.02335929 C94.2246276,7.02335929 94.2948296,7.08265594 94.3533313,7.21819115 C93.6621113,8.14811329 92.8556879,8.66295884 92.0717652,8.66295884 C90.9368324,8.66295884 90.6317235,7.84315907 90.6317235,6.80123214 C90.6317235,5.24728331 91.5335497,3.16813554 93.5343076,3.16813554 C94.4838351,3.16813554 94.6926411,3.59638915 94.6926411,4.02370155 C94.6926411,4.48866262 94.6701405,5.48070506 91.615452,6.10379054 C91.6037517,6.20355951 91.6037517,6.4614529 91.6037517,6.52169077 Z M93.2651998,3.5483871 C92.7746856,3.5483871 92.1104664,3.90981432 91.6973544,5.63788825 C92.5865801,5.51835373 93.8736174,5.11457175 93.8736174,4.01334816 C93.8736174,3.65850945 93.686412,3.5483871 93.2651998,3.5483871 Z M96.6114966,8.5650723 C95.8050733,8.5650723 95.0670519,7.89210234 95.0670519,6.76640712 C95.0670519,6.58286986 95.0895526,6.37486096 95.137254,6.15461624 C95.5818668,4.13570634 97.2307146,3.15684093 98.3188461,3.15684093 C98.8228607,3.15684093 99.2080718,3.30367075 99.4771796,3.60768375 C99.630184,3.39967485 99.8866915,3.0815436 100.026195,3.0815436 L100.1666,3.0815436 L99.0568674,8.14811329 C98.7751593,9.39522546 98.3890481,10.1416103 97.6510267,10.596218 C97.1821132,10.9021135 96.7267,11 96.2820871,11 C95.6727695,11 94.7259421,10.5849234 94.7259421,10.0088988 C94.7259421,9.97219132 94.7259421,9.93548387 94.7376424,9.8865406 C94.7952441,9.62958843 94.9950499,9.45828699 95.242557,9.45828699 C95.5584662,9.45828699 95.6034675,9.64088303 95.6520689,9.86206897 C95.6988702,10.0823137 95.8734753,10.6084538 96.4224912,10.6084538 C97.3936193,10.6084538 97.7914308,9.91195345 98.142441,8.30906135 L98.2360437,7.8676307 C97.7347292,8.32035595 97.1731129,8.5650723 96.6114966,8.5650723 Z M98.3188461,7.48926157 L99.0901684,4.01428938 C98.9263637,3.70839394 98.6581559,3.54932831 98.3080458,3.54932831 C97.1956136,3.54932831 96.3657895,4.66278771 96.072381,5.99743305 C96.0264797,6.21673654 96.003079,6.43886369 96.003079,6.63463678 C96.003079,7.45349534 96.3891902,8.02857876 96.9616068,8.02857876 C97.2199143,8.02763755 97.8049312,7.95422264 98.3188461,7.48926157 Z M108.370337,3.2057842 C108.523341,3.2057842 108.610644,3.29802344 108.610644,3.46367759 C108.610644,3.67451014 108.47654,4.13570634 108.373937,4.62231539 L108.171431,5.67836057 C107.598115,8.65825276 106.953696,10.9397621 105.491154,10.9397621 C104.976339,10.9397621 104.532626,10.7449303 104.532626,10.3533841 C104.532626,10.0954907 104.716231,9.97407376 104.871936,9.97407376 C105.449752,9.97407376 105.383151,10.5011551 105.70176,10.5011551 C105.912366,10.5011551 106.311977,10.2818516 106.568485,9.22768889 C106.782691,8.3514161 106.896994,7.58432446 107.142701,6.38803799 L107.505412,4.61290323 C107.573814,4.27030033 107.608915,4.0999401 107.608915,3.98887653 C107.608915,3.86651835 107.538713,3.75733721 107.400109,3.74416018 L106.931195,3.70745273 C106.860993,3.59733037 106.841193,3.46273637 106.919495,3.36579105 C107.468511,3.29237614 107.995926,3.2057842 108.370337,3.2057842 Z M105.168044,3.1662531 C105.542455,3.1662531 105.660359,3.28955249 105.660359,3.49850261 C105.660359,3.6443912 105.549655,4.01334816 105.507354,4.23076923 L104.847635,7.0243005 C104.778333,7.34243176 104.718931,7.61067853 104.718931,7.72080089 C104.718931,7.86668948 104.753132,7.92975101 104.836835,7.92975101 C104.952938,7.92975101 105.292248,7.68409344 105.596457,7.31796013 C105.761162,7.31796013 105.831364,7.41584667 105.866465,7.52691024 C105.327349,8.2497647 104.801734,8.66484128 104.239217,8.66484128 C103.887307,8.66484128 103.807205,8.49259861 103.807205,8.26011808 C103.807205,8.02857876 103.900808,7.52691024 104.006111,7.13536408 L104.136614,6.65722598 L104.101513,6.63463678 C103.269889,7.9071618 102.685772,8.66484128 101.772246,8.66484128 C101.363634,8.66484128 100.989223,8.38341747 100.989223,7.68691709 C100.989223,7.45349534 101.026124,7.18524857 101.106227,6.86711731 L101.621042,4.80961752 C101.700244,4.49148627 101.772246,4.2232395 101.772246,4.11311714 C101.772246,3.96722854 101.738045,3.90416702 101.656143,3.90416702 C101.538239,3.90416702 101.151228,4.14982459 100.848819,4.5159579 C100.684115,4.5159579 100.614813,4.41807136 100.579712,4.30700779 C101.117927,3.58415333 101.784846,3.16907675 102.346463,3.16907675 C102.697473,3.16907675 102.767675,3.34131941 102.767675,3.57379995 C102.767675,3.80533927 102.61557,4.30700779 102.523768,4.69855395 L102.018853,6.69299221 C101.936951,7.0243005 101.91355,7.27937024 101.91355,7.47608454 C101.91355,7.80739283 102.053954,7.92786857 102.26636,7.92786857 C102.850477,7.92786857 103.423794,7.05818431 104.290519,5.51553008 L104.629829,4.16959014 C104.746832,3.70462908 104.723431,3.1662531 105.168044,3.1662531 Z M108.417138,0.977924189 C108.721347,0.977924189 108.978755,1.24805339 108.978755,1.56618465 C108.978755,1.88431591 108.721347,2.15256268 108.417138,2.15256268 C108.11293,2.15256268 107.855522,1.88431591 107.855522,1.56618465 C107.855522,1.24805339 108.11293,0.977924189 108.417138,0.977924189 Z M113.857796,3.26696329 L113.050473,7.07230256 C113.003671,7.30478309 112.934369,7.64644477 112.934369,7.75750834 C112.934369,7.90433815 113.038772,7.93069222 113.073873,7.93069222 C113.190877,7.93069222 113.413183,7.73491914 113.729092,7.28219389 C113.882097,7.28219389 113.936998,7.37443313 114,7.47796697 C113.695791,8.17540857 113.227778,8.66672371 112.502357,8.66672371 C112.104545,8.66672371 112.022643,8.34671002 112.022643,8.1151707 C112.022643,7.96928211 112.057744,7.72362454 112.139646,7.44220074 L112.291751,6.92735518 L112.26925,6.90382476 C111.56813,7.99187131 110.912011,8.66672371 110.292793,8.66672371 C109.309064,8.66672371 109.15606,7.70009412 109.15606,7.01394712 C109.15606,5.09292376 110.854409,3.1719004 112.104545,3.1719004 C112.573459,3.1719004 112.723763,3.20860785 113.040572,3.24531531 C113.272779,3.30367075 113.576988,3.26696329 113.857796,3.26696329 Z M112.863267,3.78086763 C112.640061,3.63403782 112.383553,3.5483871 112.136946,3.5483871 C111.061415,3.5483871 110.089387,5.51835373 110.089387,6.81629161 C110.089387,7.50243861 110.20729,7.99093009 110.604202,7.99093009 C110.978613,7.99093009 111.879539,6.9621802 112.453755,5.86095662 C112.745364,5.07786429 112.863267,3.78086763 112.863267,3.78086763 Z" id="mk-tagline" fill="#000000" fill-rule="nonzero"></path>
    </g>
</svg>