<svg xmlns="http://www.w3.org/2000/svg" width="114" height="19" fill="none"><path fill="#0B2645" d="M.452.345h3.18l2.24 10.443L8.112.345h3.18l2.24 10.443L15.772.345h3.18l-3.035 14.381h-3.903L9.666 3.814 7.353 14.726h-3.83L.452.346Zm20.668 0h3.324v14.381H21.12V.346Zm6.576 0h3.325v5.24l4.805-5.24h3.867L33.44 7.138l6.866 7.552h-4.192l-5.058-5.637v5.673h-3.325V.346h-.036Zm13.767 0h3.325v14.381h-3.325V.346Z"/><path fill="#0A4E98" d="M48.003.345h3.325v5.24l4.805-5.24H60l-6.251 6.793 6.865 7.552H56.46l-5.131-5.673v5.673h-3.325V.345Zm13.731 0h3.722l4.697 9.865V.345h3.144v14.381h-3.722l-4.697-9.864v9.864h-3.18V.346h.036Zm14.851 0h3.324v12.972c0 1.807-.433 3.144-1.3 4.01-.868.904-2.205 1.338-3.975 1.338h-.687v-2.819h.506c.687 0 1.229-.216 1.59-.65.361-.434.542-1.048.542-1.879V.345Zm6.577 0h3.324v14.381h-3.324V.346Zm18.247 13.297c-.831.434-1.698.795-2.602 1.012-.903.217-1.806.325-2.782.325-2.168 0-3.866-.686-5.13-2.023-1.266-1.337-1.88-3.144-1.88-5.456 0-2.313.65-4.156 1.915-5.457C92.195.706 93.965.056 96.206.056c.867 0 1.698.072 2.457.253.759.18 1.517.434 2.24.795v2.963a8.362 8.362 0 0 0-2.168-1.012 7.457 7.457 0 0 0-2.132-.325c-1.337 0-2.349.397-3.071 1.228-.723.832-1.084 1.988-1.084 3.542 0 1.517.361 2.71 1.048 3.54.686.832 1.662 1.23 2.963 1.23.361 0 .686-.037.975-.073a2.56 2.56 0 0 0 .795-.217V9.198h-2.023V6.705h5.203v6.937ZM104.336.345h8.997v2.819h-5.673v2.673h5.312V8.62h-5.312v3.288h5.854v2.818h-9.178V.346Z"/></svg>