<?xml version="1.0" encoding="UTF-8"?>
<svg width="118px" height="13px" viewBox="0 0 118 13" version="1.1" xmlns="http://www.w3.org/2000/svg" xmlns:xlink="http://www.w3.org/1999/xlink">
    <title>ce-tagline</title>
    <g id="Page-1" stroke="none" stroke-width="1" fill="none" fill-rule="evenodd">
        <path d="M8.3027343,8.01073 L9.0834963,2.19627 L9.0581063,2.19627 L4.9130873,9.07713 C4.8538373,9.17443 4.7882443,9.22101 4.7163093,9.21678 C4.6316693,9.21678 4.5766563,9.17028 4.5512703,9.07713 L3.2880873,2.32957 L3.2626973,2.32957 L1.625002,8.02342 C1.608073,8.08692 1.59432,8.1472 1.583742,8.20433 C1.573161,8.26143 1.567871,8.3133 1.567873,8.35985 C1.5678712,8.60952 1.6821289,8.74494 1.9106462,8.7661 L2.2216812,8.7915 C2.2893912,8.7915 2.3232412,8.8254 2.3232442,8.89306 L2.3105473,9.14061 L2.2724573,9.16601 C1.7858053,9.14907 1.4049463,9.14061 1.1298828,9.14061 C0.8971343,9.14061 0.5289706,9.14861 0.0253906,9.16601 L7.10542736e-15,9.14061 L0.025391,8.89305 C0.033851,8.82535 0.076172,8.79149 0.1523441,8.79149 L0.4951175,8.76609 C0.8082676,8.74919 1.0240877,8.5016 1.1425785,8.02341 L2.9770507,1.67576 C3.0066707,1.56997 3.0214807,1.48533 3.0214807,1.42185 C3.0214777,1.32875 2.9886807,1.25999 2.9230907,1.21555 C2.8575007,1.17115 2.7485277,1.14255 2.5961867,1.12985 L2.2470657,1.10445 C2.2047457,1.10446 2.1772357,1.09645 2.1645457,1.07905 C2.1518457,1.06215 2.1454957,1.04095 2.1455057,1.01555 L2.1708957,0.7553 L2.1962857,0.7299 L4.0688437,0.7426 L5.3383757,7.35686 C5.3468757,7.47112 5.3701057,7.52825 5.4081957,7.52825 C5.4335757,7.52825 5.4801257,7.46685 5.5478437,7.34416 L9.4897387,0.7299 L11.1274337,0.7299 L11.1528237,0.75531 L11.1274337,1.01556 C11.1189337,1.06636 11.0660637,1.09596 10.9687427,1.10446 L10.6323167,1.12986 C10.2853007,1.15526 10.0906397,1.33722 10.0483317,1.67576 L9.2548747,8.01072 C9.2421747,8.12921 9.2337047,8.22442 9.2294847,8.29636 C9.2294747,8.58835 9.3585437,8.74493 9.6166917,8.76609 L9.9594647,8.79149 C10.0017747,8.79149 10.0313947,8.79949 10.0483347,8.81689 C10.0652547,8.83379 10.0737147,8.85919 10.0737247,8.89309 L10.0483393,9.14061 L10.0229493,9.16601 C9.2442943,9.14907 8.7766833,9.14061 8.6201173,9.14061 C8.5227773,9.14061 8.0763263,9.14861 7.2807613,9.16601 L7.2553713,9.14061 L7.2807613,8.89305 C7.2892613,8.83385 7.3315313,8.79995 7.4077153,8.79149 L7.7441403,8.76609 C7.9007083,8.75809 8.0266033,8.67719 8.1218263,8.52488 C8.2170363,8.37253 8.2773353,8.20115 8.3027343,8.01072 L8.3027343,8.01073 Z M15.5581053,3.51024 C15.6258053,3.52714 15.9283793,3.53564 16.4658203,3.53564 L15.5708003,7.5791 C15.4861603,7.99381 15.4417263,8.23714 15.4375003,8.30908 C15.4374943,8.4318 15.4903903,8.49316 15.5961913,8.49316 C15.7442983,8.49316 15.9876243,8.26253 16.3261723,7.80126 C16.4404233,7.80127 16.5398703,7.87106 16.6245113,8.01074 C16.2436463,8.85286 15.6871693,9.2718 14.9550783,9.26760171 C14.5996053,9.26760171 14.4239863,9.07291 14.4282223,8.68359 C14.4282183,8.49316 14.4705323,8.25618 14.5551753,7.97265 L14.7265623,7.42675 L14.7011723,7.40135 C13.8590463,8.64973 13.1248343,9.27179 12.4985353,9.26760171 C11.6564113,9.26760171 11.2374663,8.68358 11.2416675,7.51561 C11.2416675,6.52961 11.6077463,5.60285 12.3398433,4.73534 C13.0719373,3.86783 13.7976853,3.43407 14.5170893,3.43407 C14.7413693,3.43407 15.0883743,3.45947 15.5581053,3.51027 L15.5581053,3.51024 Z M14.9042973,6.29051 C15.0016273,6.0493 15.0894323,5.74462 15.1677243,5.37645 C15.2460043,5.00829 15.2978463,4.70149 15.3232423,4.45604 L15.3613323,4.08153 C15.1031893,3.91649 14.8344723,3.83397 14.5551793,3.83397 C13.9923503,3.83397 13.4729013,4.22859 12.9968303,5.01781 C12.5207533,5.80704 12.2827183,6.56981 12.2827183,7.30614 C12.2827183,8.1398 12.4731463,8.55663 12.8540083,8.55663 C13.0613613,8.55663 13.3745123,8.32388 13.7934613,7.85838 C14.2124023,7.39289 14.5826823,6.87027 14.9043013,6.29051 L14.9042973,6.29051 Z M25.3398363,2.75492 C25.7037653,2.75492 25.8857313,2.87341 25.8857353,3.11039 C25.8857313,3.15269 25.8751553,3.22148 25.8539953,3.31669 C25.8328353,3.41189 25.8074453,3.51876 25.7778253,3.63724 C25.7481953,3.75574 25.7291553,3.84037 25.7206953,3.89115 C26.2327433,3.58642 26.7299763,3.43407 27.2124023,3.43407 C28.3211203,3.43407 28.8754883,4.08365 28.8754883,5.3828 C28.8754883,6.30956 28.5263613,7.20246 27.8281253,8.06151 C27.1679633,8.86555 26.4168253,9.26756 25.5747073,9.26756 C25.2107713,9.26756 24.8955053,9.1258 24.6289063,8.84227 L24.0576173,11.23534 C24.0237573,11.37498 24.0322273,11.48501 24.0830073,11.56541 C24.1337873,11.64581 24.1898583,11.69765 24.2512203,11.72093 C24.3125803,11.74423 24.3898093,11.76003 24.4829103,11.76853 L24.7304683,11.80663 C24.7812483,11.81463 24.8066383,11.84893 24.8066383,11.90819 L24.8066383,12.16844 L24.7812483,12.19384 C24.1930303,12.17694 23.7296513,12.16844 23.3911113,12.16844 L22.0390603,12.23194 L22.0136703,12.20654 L22.0136703,11.95898 C22.0136703,11.90818 22.0581003,11.87438 22.1469703,11.85742 L22.3881813,11.81932 C22.7775043,11.76012 23.0081353,11.56541 23.0800763,11.23534 L24.4194313,5.26854 C23.9877893,5.62401 23.6767543,5.92658 23.4863263,6.17625 C23.2705043,6.17626 23.1350883,6.08525 23.0800763,5.90331 C23.3762993,5.53091 23.8756473,5.09293 24.5781233,4.58934 L24.7431623,3.82127 C24.7516623,3.77047 24.7696123,3.67317 24.7971123,3.52928 C24.8246123,3.38541 24.8468323,3.28385 24.8637623,3.22459 C24.8806923,3.16539 24.9081923,3.09024 24.9462823,2.99925 C24.9843623,2.90825 25.0362023,2.8448 25.1017993,2.80882 C25.1673893,2.77282 25.2467343,2.75492 25.3398363,2.75492 Z M19.7348613,3.47213 C19.9125923,3.47213 20.0014593,3.56313 20.0014623,3.74508 C20.0014593,3.77048 19.9993623,3.80328 19.9951623,3.84348 C19.9909623,3.88368 19.9856623,3.92288 19.9792923,3.96091 C19.9728923,3.99901 19.9634223,4.04661 19.9507223,4.10373 C19.9380223,4.16083 19.9263823,4.21165 19.9158123,4.25608 C19.908759,4.28568 19.9002923,4.32095556 19.8904182,4.36187111 L19.8745523,4.42747 C19.8576223,4.49727 19.8428123,4.55548 19.8301223,4.60203 C19.8216556,4.63303 19.8117801,4.67112778 19.8004956,4.71627593 L19.7825123,4.78928 C19.7634623,4.86758 19.7476023,4.92999 19.7349023,4.97654 L19.4492183,6.17625 L19.4746083,6.17625 C20.2701773,5.423 20.9451443,5.04638 21.4995103,5.04637 C21.7957293,5.04638 22.0348243,5.17015 22.2167963,5.41771 C22.3987563,5.66527 22.4897453,5.97102 22.4897453,6.33495 C22.4897453,7.13898 22.1586033,7.83405 21.4963373,8.42015 C20.8340603,9.00625 20.1030223,9.2993 19.3032213,9.2993 C18.9646773,9.2993 18.6832653,9.203 18.4589833,9.01048 C18.2346973,8.81794 18.1225563,8.55028 18.1225573,8.2075 C18.1225563,8.02554 18.1521773,7.80337 18.2114273,7.541 L18.7700213,4.9702 C18.8461913,4.60627 18.8863933,4.3841 18.8906273,4.3037 C18.8906243,4.14713 18.8123373,4.06037 18.6557633,4.04344 L18.1352563,4.00534 C18.0379263,3.86569 18.0336923,3.74509 18.1225563,3.64352 C19.0069943,3.52927 19.5444283,3.47213 19.7348613,3.47213 Z M20.8901363,5.73192 C20.6108353,5.73192 20.2469043,5.93716 19.7983393,6.34764 C19.3286103,6.77082 19.0937503,7.31249 19.0937503,7.97264 C19.0937503,8.23924 19.1635703,8.45295 19.3032223,8.61375 C19.4428683,8.77456 19.6206023,8.85497 19.8364253,8.85497 C20.2257453,8.85497 20.5960243,8.63809 20.9472653,8.20433 C21.2984983,7.77058 21.4741213,7.24266 21.4741213,6.62059 C21.4741213,6.3413 21.4180413,6.12336 21.3059083,5.96678 C21.1937613,5.81021 21.0551713,5.73192 20.8901363,5.73192 Z M26.7998043,4.03075 C26.4612583,4.03075 26.0613573,4.17886 25.6000973,4.47508 L24.7431643,8.27098 C25.0012993,8.63491 25.3229133,8.81688 25.7080073,8.81688 C25.9492153,8.81688 26.1904253,8.73118 26.4316403,8.5598 C26.6728473,8.38841 26.8823193,8.16307 27.0600583,7.88377 C27.2970323,7.51561 27.4811143,7.12417 27.6123043,6.70946 C27.7434843,6.29475 27.8090823,5.92235 27.8090823,5.59227 C27.8090823,4.55126 27.4726513,4.03075 26.7998043,4.03075 Z M33.5600583,8.2329 C33.5600533,7.99169 33.5960183,7.76529 33.6679683,7.5537 L33.6425783,7.5283 C33.1813103,8.10805 32.7750613,8.54286 32.4238283,8.83274 C32.0725873,9.12261 31.6896123,9.26759 31.2749023,9.26759 C31.0421523,9.26759 30.8369113,9.16815 30.6591793,8.96921 C30.4814433,8.77032 30.3925763,8.47198 30.3925783,8.07419 C30.3925763,7.84145 30.4306583,7.54734 30.5068363,7.19187 L30.9892573,5.17331 C31.0865873,4.77553 31.1331353,4.55125 31.1289063,4.50046 C31.1289033,4.35236 31.0865863,4.2783 31.0019533,4.2783 C30.9257833,4.2783 30.7977683,4.3323 30.6179203,4.44016 C30.4380673,4.54808 30.2719713,4.68878 30.1196293,4.86228 C29.9715153,4.86228 29.8699533,4.78828 29.8149413,4.64011 C30.4497053,3.83608 31.1056293,3.43406 31.7827143,3.43406 C32.0958623,3.43406 32.2503223,3.57794 32.2460933,3.8657 C32.2460903,3.9715 32.1593433,4.36928 31.9858393,5.05906 L31.5097653,7.09665 C31.4251253,7.46905 31.3806933,7.75258 31.3764643,7.94724 C31.3764623,8.17153 31.4240643,8.34185 31.5192873,8.45823 C31.6144973,8.5746 31.7276983,8.63279 31.8588863,8.63279 C32.0662403,8.63279 32.3106243,8.48362 32.5920413,8.18528 C32.8734493,7.88694 33.2955683,7.3421 33.8583983,6.55076 L34.3027343,4.50046 C34.3112343,4.44966 34.3281143,4.35447 34.3535143,4.21482 C34.3788943,4.07518 34.4011143,3.97256 34.4201643,3.90696 C34.4392043,3.84136 34.4677643,3.7652 34.5058543,3.67844 C34.5439343,3.59174 34.5957743,3.52928 34.6613723,3.49119 C34.7269623,3.45309 34.8063043,3.43406 34.8994093,3.43406 C35.2633343,3.43406 35.4453003,3.55047 35.4453073,3.78321 C35.4453003,3.80011 35.3902873,4.06039 35.2802683,4.56397 L34.6899363,7.15381 C34.6306863,7.41195 34.6010663,7.70183 34.6010663,8.02344 C34.6010603,8.4043 34.7280133,8.59473 34.9819253,8.59473 C35.2781433,8.59473 35.5860043,8.39055 35.9055093,7.98218 C36.2250003,7.57382 36.6661623,6.88933 37.2289963,5.92872 L37.6035073,4.50049 C37.6204273,4.43279 37.6468773,4.31218 37.6828573,4.13868 C37.7188173,3.96518 37.7473873,3.8414 37.7685473,3.76734 C37.7896973,3.69334 37.8394173,3.61923 37.9177173,3.54517 C37.9959973,3.47117 38.0901523,3.43406 38.2001883,3.43406 C38.5641103,3.43406 38.7460763,3.55047 38.7460863,3.78321 C38.7460763,3.82551 38.7354963,3.89536 38.7143463,3.99268 C38.6931763,4.08998 38.6677863,4.19687 38.6381763,4.31324 C38.6085463,4.42962 38.5894963,4.51319 38.5810463,4.56397 L37.8510663,7.52833 C37.7537263,7.94304 37.7071773,8.16944 37.7114173,8.20752 C37.7114083,8.35564 37.7537273,8.42758 37.8383713,8.42334 C37.9145313,8.42335 38.0351383,8.37154 38.2001873,8.26783 C38.3652163,8.16415 38.5260233,8.02133 38.6826093,7.83936 C38.8307113,7.83936 38.9301573,7.91346 38.9809493,8.06153 C38.3461733,8.86557 37.7452623,9.26759 37.1782143,9.26759 C36.8565913,9.26759 36.6957843,9.12582 36.6957923,8.84229 C36.6957843,8.56299 36.7698423,8.16309 36.9179603,7.64258 L37.0576093,7.14112 L37.0195193,7.11572 C36.7867633,7.45426 36.6375943,7.67008 36.5720093,7.76318 C36.5064093,7.85628 36.3847463,8.02026 36.2070193,8.25512 C36.0292773,8.48999 35.8949193,8.64233 35.8039433,8.71215 C35.7129533,8.78195 35.5870583,8.87508 35.4262573,8.99145 C35.2654433,9.10782 35.1078103,9.18294 34.9533573,9.21679 C34.7988913,9.25069 34.6264463,9.26759 34.4360233,9.26759 C34.1778793,9.26759 33.9673493,9.18399 33.8044313,9.01686 C33.6415033,8.84971 33.5600413,8.58839 33.5600463,8.23293 L33.5600583,8.2329 Z M44.2495113,3.51024 C44.3172113,3.52714 44.6197863,3.53564 45.1572263,3.53564 L44.2622073,7.5791 C44.1775673,7.99381 44.1331323,8.23714 44.1289063,8.30908 C44.1289013,8.4318 44.1817963,8.49316 44.2875973,8.49316 C44.4357043,8.49316 44.6790303,8.26253 45.0175783,7.80126 C45.1318293,7.80127 45.2312763,7.87106 45.3159183,8.01074 C44.9350523,8.85286 44.3785753,9.2718 43.6464843,9.26760171 C43.2910113,9.26760171 43.1153933,9.07291 43.1196293,8.68359 C43.1196243,8.49316 43.1619393,8.25618 43.2465823,7.97265 L43.4179683,7.42675 L43.3925783,7.40135 C42.5504523,8.64973 41.8162403,9.27179 41.1899413,9.26760171 C40.3478173,9.26760171 39.9288723,8.68358 39.9330735,7.51561 C39.9330735,6.52961 40.2991523,5.60285 41.0312503,4.73534 C41.7633433,3.86783 42.4890913,3.43407 43.2084963,3.43407 C43.4327753,3.43407 43.7797803,3.45947 44.2495113,3.51027 L44.2495113,3.51024 Z M43.5957033,6.29051 C43.6930333,6.0493 43.7808383,5.74462 43.8591313,5.37645 C43.9374113,5.00829 43.9892523,4.70149 44.0146483,4.45604 L44.0527383,4.08153 C43.7945953,3.91649 43.5258783,3.83397 43.2465863,3.83397 C42.6837563,3.83397 42.1643073,4.22859 41.6882363,5.01781 C41.2121603,5.80704 40.9741253,6.56981 40.9741253,7.30614 C40.9741253,8.1398 41.1645523,8.55663 41.5454143,8.55663 C41.7527683,8.55663 42.0659183,8.32388 42.4848673,7.85838 C42.9038083,7.39289 43.2740883,6.87027 43.5957073,6.29051 L43.5957033,6.29051 Z M50.0512693,8.04881 C50.0512683,8.04881 50.0512683,8.09531 50.0512693,8.18846 C50.0512683,8.38736 50.1221493,8.54605 50.2639163,8.66454 C50.4056783,8.78303 50.5992813,8.84227 50.8447263,8.84227 C51.3652313,8.84227 51.8159143,8.59048 52.1967773,8.0869 C52.5776323,7.58332 52.8378863,7.03319 52.9775393,6.43651 C52.5078083,6.67772 52.1290653,6.79833 51.8413083,6.79832 C51.6593393,6.79833 51.4456353,6.74012 51.2001953,6.62376 C50.9547503,6.50739 50.7622043,6.44921 50.6225583,6.4492 C50.5717783,6.44921 50.5030093,6.4598 50.4162593,6.4809 C50.3295093,6.5021 50.2713193,6.5126 50.2416993,6.5126 C50.1824493,6.5126 50.1655293,6.4576 50.1909193,6.34756 C50.2163093,6.25026 50.3548983,6.15396 50.6066903,6.05874 C50.8584783,5.96354 51.1113263,5.91592 51.3652353,5.91592 C51.5556623,5.91592 51.7587863,5.95722 51.9746103,6.0397 C52.1904273,6.1222 52.3723933,6.16348 52.5205083,6.16348 C52.7193973,6.16348 52.8929003,6.13388 53.0410163,6.07458 C53.0748663,5.79529 53.0917963,5.57735 53.0917963,5.42077 C53.0917913,4.37976 52.7236273,3.86137 51.9873033,3.8656 C51.5387333,3.8656 51.2139443,3.9534 51.0129383,4.12903 C50.8119273,4.30465 50.6119763,4.61886 50.4130853,5.07165 L50.0639633,5.02085 C50.1062833,4.88967 50.2395803,4.4136 50.4638663,3.59263 C50.7431603,3.59263 51.0298633,3.56623 51.3239733,3.51333 C51.6180783,3.46043 51.9132443,3.43403 52.2094713,3.43403 C52.7892203,3.43403 53.2462503,3.62446 53.5805653,4.00532 C53.9148703,4.38618 54.0820303,4.86754 54.0820303,5.44941 C54.0820303,6.03128 53.9476663,6.61844 53.6789543,7.21088 C53.4102313,7.80333 53.0537053,8.28575 52.6093743,8.65815 C52.1142533,9.0644 51.4816043,9.26752 50.7114243,9.26752 C50.2713183,9.26752 49.9147923,9.16812 49.6418443,8.96918 C49.3688943,8.77029 49.2324213,8.52485 49.2324213,8.23286 C49.2324213,8.07628 49.2673313,7.95039 49.3371573,7.85517 C49.4069773,7.75997 49.4715153,7.70071 49.5307603,7.67744 C49.5900003,7.65414 49.6450173,7.64254 49.6957993,7.64254 C49.9327773,7.64654 50.0512673,7.78219 50.0512683,8.04879 L50.0512693,8.04881 Z M55.1166993,8.2075 L55.8911133,4.9702 C55.9672833,4.65705 56.0053693,4.43489 56.0053713,4.3037 C56.0053693,4.14713 55.9270813,4.06037 55.7705073,4.04344 L55.2500003,4.00534 C55.1526703,3.86569 55.1484363,3.74509 55.2373003,3.64352 C56.1217383,3.52927 56.6591723,3.47214 56.8496053,3.47213 C57.0273363,3.47214 57.1162033,3.56313 57.1162073,3.74508 C57.1162033,3.81278 57.1045673,3.90589 57.0812973,4.02438 C57.0580173,4.14287 57.0199373,4.3058 56.9670403,4.51315 C56.9141403,4.72051 56.8771103,4.87497 56.8559563,4.97653 L56.6464833,5.87789 L58.9316393,5.87789 L59.2299793,4.50045 C59.2384793,4.44965 59.2553593,4.35235 59.2807593,4.20846 C59.3061393,4.06459 59.3283593,3.96197 59.3474093,3.9006 C59.3664493,3.8392 59.3950093,3.76307 59.4330993,3.67208 C59.4711793,3.58108 59.5230193,3.51869 59.5886173,3.48483 C59.6542073,3.45093 59.7335493,3.43403 59.8266543,3.43403 C60.1905803,3.43403 60.3725463,3.55041 60.3725523,3.78315 C60.3725463,3.82545 60.3619623,3.8953 60.3408123,3.99262 C60.3196523,4.08992 60.2942523,4.19681 60.2646423,4.31318 C60.2350123,4.42956 60.2159723,4.51313 60.2075123,4.56391 L59.4775323,7.52827 C59.3801923,7.94298 59.3315303,8.16938 59.3315363,8.20746 C59.3315303,8.35558 59.3759663,8.42752 59.4648363,8.42328 C59.5410063,8.42329 59.6616083,8.37148 59.8266533,8.26777 C59.9916863,8.16409 60.1524933,8.02127 60.3090753,7.8393 C60.4571803,7.8393 60.5566273,7.9134 60.6074153,8.06147 C59.9726433,8.86551 59.3696163,9.26752 58.7983323,9.26752 C58.4767133,9.26752 58.3180223,9.12576 58.3222583,8.84223 C58.3222543,8.69412 58.3963083,8.29422 58.5444263,7.64252 L58.8173753,6.38569 L56.5258723,6.38569 L56.1069263,8.20746 C56.0942263,8.27096 56.0762463,8.36827 56.0529663,8.49946 C56.0296863,8.63064 56.0085263,8.73115 55.9894863,8.80097 C55.9704363,8.87077 55.9418763,8.94802 55.9037963,9.03266 C55.8657063,9.11726 55.8149263,9.1776 55.7514523,9.21357 C55.6879723,9.24957 55.6075703,9.26752 55.5102423,9.26752 C55.1378443,9.26752 54.9516483,9.1511 54.9516483,8.91835 C54.9516483,8.90145 55.0066583,8.66445 55.1166873,8.20741 L55.1166993,8.2075 Z M66.3583983,9.06444 C66.2779883,9.2464 66.2198023,9.41356 66.1838383,9.5659 C66.1478583,9.71825 66.1298783,9.87059 66.1298783,10.02293 C66.1298733,10.08223 66.1319783,10.14883 66.1361783,10.22289 C66.1403783,10.29689 66.1424783,10.34455 66.1424783,10.36571 C66.1424723,10.53921 66.0800583,10.68203 65.9552223,10.79417 C65.8303793,10.90631 65.6452403,11.0174 65.3998023,11.12743 L65.5457983,11.49559 C66.0916913,11.27977 66.4535073,11.07135 66.6312473,10.87035 C66.8089753,10.66934 66.8978423,10.46092 66.8978493,10.2451 C66.8978423,10.08853 66.8766893,9.91502 66.8343693,9.72459 C66.8005093,9.53416 66.7814693,9.3522 66.7772393,9.1787 C66.7772333,9.03058 66.8068593,8.86766 66.8661093,8.68993 C67.0480683,8.52066 67.2363823,8.31118 67.4310503,8.06151 C67.3802603,7.9134 67.2808153,7.83934 67.1327103,7.83934 C66.9676653,8.02131 66.8026263,8.17577 66.6375933,8.30272 C66.4725483,8.42967 66.3561743,8.49315 66.2884723,8.49315 C66.2038323,8.49315 66.1593973,8.41905 66.1551713,8.27098 C66.1551653,8.19478 66.2038313,7.94725 66.3011673,7.52831 L67.0248003,4.56395 C67.0333003,4.51315 67.0533603,4.4296 67.0851003,4.31322 C67.1168303,4.19685 67.1432803,4.09 67.1644403,3.99266 C67.1855903,3.89536 67.1961703,3.82551 67.1961803,3.78319 C67.1961733,3.55045 67.0142073,3.43407 66.6502813,3.43407 C66.5360173,3.43407 66.4397453,3.47107 66.3614633,3.54515 C66.2831733,3.61925 66.2334463,3.69327 66.2122933,3.76732 C66.1911333,3.84142 66.1636233,3.9641 66.1297733,4.13548 C66.0959133,4.30687 66.0705233,4.42854 66.0536033,4.50047 L65.6727433,5.9287 C65.1437673,6.83853 64.7131853,7.49339 64.3809953,7.8933 C64.0487983,8.2932 63.7303573,8.49315 63.4256733,8.49315 C63.1675323,8.49315 63.0384633,8.33234 63.0384663,8.01073 C63.0384633,7.76105 63.0765463,7.48387 63.1527243,7.17918 L63.7113173,5.05907 C63.8932803,4.33121 63.9842633,3.93342 63.9842673,3.86571 C63.9842633,3.57795 63.8276883,3.43407 63.5145403,3.43407 C62.8374543,3.43407 62.1836463,3.83609 61.5531143,4.64012 C61.6038943,4.78824 61.7033413,4.86229 61.8514543,4.86229 C62.0080283,4.68033 62.1794153,4.52693 62.3656143,4.40208 C62.5518103,4.27725 62.6787633,4.21483 62.7464743,4.21483 C62.8311043,4.21483 62.8755403,4.28893 62.8797743,4.437 C62.8797723,4.5132 62.8226443,4.75862 62.7083883,5.17332 L62.1370993,7.35692 C62.0524593,7.67853 62.0101443,7.97053 62.0101463,8.2329 C62.0101443,8.5799 62.0926663,8.8391 62.2577043,9.01048 C62.4227413,9.18187 62.6300983,9.26756 62.8797743,9.26756 C63.3494983,9.26756 63.7663273,9.10147 64.1302633,8.76927 C64.4941913,8.43708 64.9406423,7.88589 65.4696183,7.11571 L65.5077083,7.14111 L65.3617123,7.64257 C65.2135953,8.16308 65.1395393,8.56298 65.1395443,8.84228 C65.1395393,9.13004 65.3003473,9.2718 65.6219663,9.26757 C65.8674033,9.27157 66.1128463,9.20407 66.3582943,9.06445 L66.3583983,9.06444 Z M73.8041993,4.56395 L73.0805663,7.52831 C72.9832263,7.94302 72.9345643,8.19058 72.9345703,8.27098 C72.9345643,8.41909 72.9790003,8.49315 73.0678713,8.49315 C73.1355713,8.49315 73.2519473,8.42965 73.4169923,8.30272 C73.5820253,8.17577 73.7470633,8.02131 73.9121093,7.83934 C74.0602143,7.83934 74.1596613,7.91344 74.2104493,8.06151 C73.5756773,8.86555 72.9726503,9.26756 72.4013673,9.26756 C72.0797473,9.26756 71.9189403,9.1258 71.9189453,8.84227 C71.9189403,8.56297 71.9929953,8.16307 72.1411133,7.64256 L72.2871093,7.1411 L72.2490193,7.1157 C71.7200433,7.88588 71.2735923,8.43707 70.9096643,8.76926 C70.5457283,9.10146 70.1288993,9.26756 69.6591753,9.26756 C69.4094993,9.26756 69.2021423,9.18185 69.0371053,9.01047 C68.8720643,8.83909 68.7895453,8.57989 68.7895463,8.23289 C68.7895453,7.97475 68.8318663,7.68276 68.9165003,7.35691 L69.4877893,5.17331 C69.6020443,4.75861 69.6591733,4.51316 69.6591753,4.43699 C69.6591733,4.28888 69.6147353,4.21482 69.5258753,4.21482 C69.4581653,4.21482 69.3312113,4.27722 69.1450153,4.40207 C68.9588163,4.52692 68.7874293,4.68032 68.6308553,4.86228 C68.4827423,4.86228 68.3832953,4.78828 68.3325153,4.64011 C68.9672793,3.83608 69.6210873,3.43406 70.2939413,3.43406 C70.6070893,3.43406 70.7636643,3.57794 70.7636683,3.8657 C70.7636643,3.9334 70.6726783,4.3312 70.4907183,5.05906 L69.9321253,7.17917 C69.8559453,7.48386 69.8178643,7.76104 69.8178673,8.01072 C69.8178643,8.33233 69.9469333,8.49314 70.2050743,8.49314 C70.5097583,8.49314 70.8281983,8.29319 71.1603963,7.89329 C71.4925863,7.49338 71.9231683,6.83852 72.4521443,5.92869 L72.8330033,4.50046 C72.8499233,4.43276 72.8753133,4.31215 72.9091733,4.13865 C72.9430233,3.96515 72.9705333,3.84137 72.9916933,3.76731 C73.0128433,3.69331 73.0625733,3.6192 73.1408633,3.54514 C73.2191433,3.47114 73.3154173,3.43406 73.4296813,3.43406 C73.7936073,3.43406 73.9755733,3.55044 73.9755803,3.78318 C73.9755733,3.82548 73.9649903,3.89533 73.9438403,3.99265 C73.9226803,4.08995 73.8962303,4.19684 73.8645003,4.31321 C73.8327503,4.42959 73.8126503,4.51316 73.8042003,4.56394 L73.8041993,4.56395 Z M80.2089763,3.434 C80.5813653,3.434 80.7675703,3.5673 80.7675703,3.8339 C80.7675703,4.0328 80.6966803,4.19784 80.5549233,4.32902 C80.4131533,4.46021 80.2724463,4.5258 80.1328043,4.52579 C79.9846943,4.52587 79.8693793,4.48886 79.7868653,4.41478 C79.7043453,4.34078 79.6186463,4.3037 79.5297853,4.3037 C79.3816673,4.3037 79.1743113,4.53433 78.9077143,4.99559 C78.4845333,5.72346 78.0380823,6.12124 77.5683593,6.18895 C78.2962193,6.18895 78.7215123,6.49152 78.8442383,7.09666 C79.0431263,8.16307 79.3160753,8.72378 79.6630863,8.77879 L79.7519563,8.79149 C79.8365863,8.80839 79.8810193,8.84229 79.8852573,8.89305 L79.8154293,9.14061 L79.7900393,9.166 L78.8950193,9.14061 C78.4464473,9.12371 78.1248333,8.63491 77.9301753,7.6743 C77.8540053,7.26805 77.7397423,6.96654 77.5874023,6.76976 C77.4350553,6.57299 77.1494113,6.45344 76.7304683,6.41112 L76.3178713,8.2075 C76.3051713,8.271 76.2871913,8.36831 76.2639113,8.4995 C76.2406313,8.63068 76.2194713,8.73119 76.2004313,8.80101 C76.1813813,8.87081 76.1528213,8.94806 76.1147413,9.0327 C76.0766513,9.1173 76.0258713,9.17764 75.9623973,9.21361 C75.8989173,9.24961 75.8185153,9.26751 75.7211863,9.26751 C75.3487893,9.26751 75.1625923,9.15114 75.1625923,8.91839 C75.1625923,8.90149 75.2176023,8.66449 75.3276313,8.20745 L76.1020453,4.97015 C76.1782153,4.657 76.2163013,4.43484 76.2163033,4.30365 C76.2163013,4.14708 76.1380133,4.06032 75.9814403,4.04339 L75.4609323,4.00529 C75.3636023,3.86564 75.3593683,3.74504 75.4482323,3.64347 C76.3326703,3.52922 76.8701043,3.47209 77.0605373,3.47208 C77.2382683,3.47209 77.3271353,3.56308 77.3271383,3.74503 C77.3271353,3.81273 77.3154983,3.90584 77.2922283,4.02433 C77.2689483,4.14282 77.2308683,4.30575 77.1779703,4.5131 C77.1250703,4.72046 77.0880403,4.87492 77.0668863,4.97648 L76.8383713,5.96671 C77.2319223,5.95871 77.5672903,5.85034 77.8444743,5.64298 C78.1216513,5.43563 78.3808473,5.13729 78.6220623,4.74796 C79.1594923,3.87199 79.6884633,3.434 80.2089763,3.434 Z M86.9882753,3.53566 C87.0051953,3.59496 87.0073153,3.67108 86.9945753,3.76418 C86.9818753,3.85728 86.9628253,3.90806 86.9374453,3.91652 L86.5629333,3.95462 C86.3301793,3.98002 86.1788943,4.02132 86.1090763,4.0784 C86.0392463,4.1355 85.9831743,4.28471 85.9408633,4.52591 L85.3632263,7.52836 C85.3462963,7.60456 85.3251363,7.70398 85.2997463,7.8267 C85.2743463,7.94942 85.2553063,8.04569 85.2426163,8.11551 C85.2299163,8.18531 85.2235663,8.23718 85.2235763,8.27103 C85.2235713,8.41914 85.2658863,8.4932 85.3505303,8.4932 C85.4182303,8.4932 85.5356643,8.4297 85.7028253,8.30277 C85.8699743,8.17582 86.0360713,8.02136 86.2011163,7.83939 C86.3492213,7.83939 86.4486683,7.91349 86.4994553,8.06156 C85.8646843,8.8656 85.2616573,9.26761 84.6903733,9.26761 C84.3687543,9.26761 84.2079473,9.12585 84.2079513,8.84232 C84.2079473,8.77462 84.2206413,8.67517 84.2460413,8.54398 C84.2714313,8.4128 84.3042213,8.25622 84.3444313,8.07425 C84.3846313,7.89229 84.4131913,7.74841 84.4301213,7.64261 L85.0014643,4.69725 C85.0353143,4.4899 85.0522443,4.36718 85.0522443,4.32909 C85.0522393,4.15559 84.9189383,4.06884 84.6523413,4.06883 L83.9604473,4.06883 C83.7446233,4.06884 83.5848743,4.17569 83.4811993,4.38939 C83.3775173,4.6031 83.2473903,5.03368 83.0908183,5.68114 C82.7945913,6.96337 82.5216423,7.84781 82.2719703,8.33446 C81.9757443,8.95653 81.5737273,9.26761 81.0659163,9.26761 C80.8839493,9.26761 80.7252573,9.20936 80.5898413,9.093 C80.4544243,8.97663 80.3867163,8.84015 80.3867163,8.68358 C80.3867163,8.64128 80.3909163,8.61168 80.3994163,8.59468 C80.4248063,8.45503 80.4808763,8.34183 80.5676293,8.25508 C80.6543793,8.16838 80.7591163,8.12496 80.8818383,8.12495 C80.9791683,8.12496 81.0553393,8.15775 81.1103533,8.22335 C81.1653633,8.28895 81.1928733,8.37041 81.1928733,8.46774 C81.1928723,8.49314 81.1886733,8.51004 81.1801733,8.51854 C81.1632433,8.71743 81.2055633,8.81688 81.3071273,8.81688 C81.4383103,8.81688 81.5779583,8.66454 81.7260723,8.35985 C81.9926723,7.85627 82.2656203,6.9951 82.5449203,5.77635 C82.7184203,5.01464 82.8051713,4.52798 82.8051733,4.31639 C82.8051713,4.2106 82.7766033,4.1302 82.7194833,4.07518 C82.6623533,4.02018 82.6062813,3.98628 82.5512703,3.97362 C82.4962603,3.96092 82.3925763,3.94612 82.2402353,3.92922 C82.2021453,3.92122 82.1704053,3.91652 82.1450153,3.91652 C82.1111553,3.89112 82.0889453,3.83082 82.0783653,3.73561 C82.0677853,3.64041 82.0794653,3.57375 82.1132753,3.53566 C82.7565013,3.55256 83.1733303,3.56106 83.3637633,3.56106 L85.7187443,3.56106 L86.9882753,3.53566 Z M88.7211913,6.93163 C88.7211913,7.54523 88.8206313,8.00861 89.0195313,8.32176 C89.2184223,8.63491 89.4300103,8.79149 89.6542973,8.79149 C90.2255823,8.79149 90.6847293,8.527 91.0317383,7.99803 C91.4041293,7.42674 91.5903323,6.63752 91.5903323,5.63036 C91.5903323,5.10139 91.5247323,4.7036 91.3935543,4.437 C91.1988883,4.05614 90.9365193,3.86571 90.6064453,3.86571 C90.1832643,3.86571 89.8193323,4.04451 89.5146483,4.40208 C89.2099583,4.75967 89.0015443,5.16063 88.8894043,5.60497 C88.7772603,6.0493 88.7211913,6.49152 88.7211913,6.93163 L88.7211913,6.93163 Z M87.6420883,7.03319 C87.6420883,6.62694 87.7087393,6.21752 87.8420413,5.80492 C87.9753403,5.39232 88.1678853,5.00617 88.4196773,4.64647 C88.6714663,4.28677 89.0078913,3.99478 89.4289553,3.77049 C89.8500133,3.54621 90.3207973,3.43407 90.8413083,3.43407 C92.0642873,3.43407 92.6736573,4.13655 92.6694591,5.54149 C92.6694591,6.29475 92.4789973,6.98981 92.0981473,7.62669 C91.7172803,8.26358 91.2369743,8.73013 90.6572263,9.02635 C90.3271443,9.19139 89.9272423,9.27179 89.4575193,9.26756 C89.0681943,9.26756 88.7434063,9.18826 88.4831543,9.02953 C88.2228983,8.87083 88.0367013,8.66136 87.9245603,8.40111 C87.8124173,8.14086 87.7373033,7.90388 87.6992183,7.69017 C87.6611283,7.47647 87.6420883,7.25747 87.6420883,7.03319 L87.6420883,7.03319 Z M98.0712873,7.52831 C97.9739873,7.94302 97.9252873,8.19058 97.9252973,8.27098 C97.9252873,8.41909 97.9696973,8.49315 98.0585973,8.49315 C98.1262973,8.49315 98.2426673,8.42965 98.4077173,8.30272 C98.5727473,8.17577 98.7377873,8.02131 98.9028273,7.83934 C99.0509373,7.83934 99.1503873,7.91344 99.2011673,8.06151 C98.5663973,8.86555 97.9506773,9.26756 97.3540073,9.26756 C96.9985273,9.26756 96.8207973,9.1258 96.8207973,8.84227 C96.8207973,8.63491 96.8947973,8.23501 97.0429673,7.64256 L97.5380873,5.56688 C97.6523373,5.08869 97.7073473,4.79459 97.7031273,4.68456 C97.7031173,4.49413 97.6671273,4.36824 97.5952173,4.30687 C97.5233173,4.24547 97.4090073,4.21487 97.2524373,4.21487 C96.8546473,4.21487 96.1860273,4.82636 95.2465773,6.04934 L94.7514673,8.20754 C94.7387673,8.27104 94.7207673,8.36835 94.6974673,8.49954 C94.6741673,8.63072 94.6530673,8.73123 94.6339673,8.80105 C94.6149673,8.87085 94.5863673,8.9481 94.5482673,9.03274 C94.5101673,9.11734 94.4593673,9.17768 94.3959273,9.21365 C94.3324273,9.24965 94.2520473,9.26756 94.1547173,9.26756 C93.7823173,9.26756 93.5961173,9.15118 93.5961173,8.91843 C93.5961173,8.90153 93.6511173,8.66453 93.7611573,8.20749 L94.4974873,4.97019 C94.5736873,4.60626 94.6117473,4.38409 94.6117473,4.30369 C94.6117473,4.14712 94.5334473,4.06036 94.3768873,4.04343 L93.8563773,4.00533 C93.7590773,3.86568 93.7548073,3.74508 93.8436773,3.64351 C94.7281173,3.52926 95.2740173,3.47213 95.4813773,3.47212 C95.6591073,3.47213 95.7479773,3.56312 95.7479773,3.74507 C95.7479773,3.81277 95.7352773,3.90483 95.7098773,4.0212 C95.6844773,4.13757 95.6421773,4.30155 95.5829273,4.51314 C95.5237273,4.72473 95.4834273,4.87919 95.4623273,4.97652 L95.4306273,5.09712 L95.4433273,5.10982 C96.0146173,4.4412 96.4716473,3.99475 96.8144273,3.77046 C97.1571873,3.54618 97.5105473,3.43404 97.8744773,3.43404 C98.4457673,3.43404 98.7314073,3.78105 98.7314173,4.47505 C98.7314073,4.6401 98.6764173,4.96806 98.5663773,5.45894 L98.0712873,7.52831 Z M103.758787,4.32909 C103.758787,4.13866 103.711187,4.00854 103.615967,3.93871 C103.520767,3.86891 103.356767,3.83397 103.124027,3.83397 C102.349607,3.83397 101.776197,4.57453 101.403807,6.05565 C101.683107,6.02175 101.947587,5.96785 102.197267,5.89378 C102.446937,5.81978 102.695557,5.71817 102.943117,5.5891 C103.190667,5.46003 103.388507,5.28653 103.536617,5.06859 C103.684727,4.85066 103.758787,4.60416 103.758787,4.32909 L103.758787,4.32909 Z M101.314937,6.55077 C101.306937,6.61847 101.302237,6.76659 101.302237,6.9951 C101.302237,7.54947 101.386837,7.93773 101.556147,8.1599 C101.725407,8.38207 101.969797,8.49315 102.289297,8.49315 C102.608787,8.49315 102.877507,8.43815 103.095447,8.32811 C103.313377,8.21808 103.600087,7.98111 103.955557,7.61717 C104.095197,7.61717 104.194647,7.68697 104.253897,7.82665 C103.509097,8.78726 102.698717,9.26756 101.822747,9.26756 C101.302237,9.26756 100.905507,9.08348 100.632557,8.71532 C100.359607,8.34715 100.223137,7.8732 100.223137,7.29344 C100.223137,6.9549 100.260137,6.61001 100.334217,6.25877 C100.408317,5.90754 100.529937,5.56159 100.699207,5.22093 C100.868477,4.88028 101.073717,4.57982 101.314927,4.31957 C101.556137,4.05932 101.858707,3.84667 102.222647,3.68163 C102.586577,3.51659 102.986477,3.43407 103.422357,3.43407 C103.837057,3.43407 104.145977,3.53987 104.349107,3.75145 C104.552227,3.96304 104.653797,4.17675 104.653797,4.39256 C104.653797,4.50683 104.651797,4.5904 104.647797,4.6433 C104.643797,4.6962 104.622397,4.78718 104.584297,4.91624 C104.546197,5.04532 104.487997,5.15534 104.409737,5.24632 C104.331437,5.33732 104.211897,5.44839 104.051087,5.57957 C103.890277,5.71076 103.695617,5.82608 103.467107,5.92552 C103.238587,6.02492 102.940247,6.12971 102.572087,6.23973 C102.203917,6.34976 101.784977,6.45344 101.315247,6.55077 L101.314937,6.55077 Z M109.458997,4.65282 C109.458997,4.38622 109.353187,4.19262 109.141597,4.07201 C108.930007,3.95141 108.701497,3.8911 108.456057,3.8911 C107.977857,3.8911 107.535637,4.19156 107.129397,4.79247 C106.723137,5.39338 106.515787,6.18049 106.507327,7.15379 C106.507327,7.61506 106.591927,7.99698 106.761227,8.29955 C106.930497,8.60212 107.161127,8.7534 107.453127,8.7534 C107.825517,8.7534 108.153477,8.57779 108.437007,8.22655 C108.720537,7.87531 108.928947,7.45002 109.062257,6.95067 C109.195547,6.45132 109.294997,6.0017 109.360597,5.60179 C109.426197,5.20189 109.458997,4.88557 109.458997,4.65282 L109.458997,4.65282 Z M107.364257,3.84666 C107.918617,3.54621 108.381997,3.39599 108.754397,3.39598 C109.126787,3.39599 109.412427,3.47428 109.611327,3.63084 C109.628227,3.55464 109.638827,3.44465 109.643027,3.30077 C109.643017,2.97916 109.599627,2.70832 109.512897,2.48827 C109.426197,2.26822 109.293897,2.09154 109.116167,1.95824 C108.938427,1.82494 108.753287,1.71703 108.560747,1.63451 C108.368197,1.55201 108.134397,1.46419 107.859337,1.37108 C107.825437,1.35838 107.797937,1.34778 107.776837,1.33938 C107.755637,1.33138 107.729237,1.32248 107.697537,1.31398 C107.665837,1.30598 107.637237,1.29708 107.611837,1.28858 C107.091327,1.11508 106.831067,0.75115 106.831077,0.19678 C106.831067,0.06561 106.847977,-2.66453526e-15 106.881877,-2.66453526e-15 L106.894577,-2.66453526e-15 C107.042687,0.0846 107.316697,0.19256 107.716607,0.32374 C108.116497,0.45493 108.471967,0.63372 108.783007,0.86011 C109.094037,1.08652 109.393437,1.424 109.681207,1.87256 C110.184777,2.63429 110.445027,3.53566 110.461967,4.57667 C110.461967,5.35531 110.322307,6.09587 110.043017,6.79834 C109.763717,7.50082 109.416707,8.04249 109.002007,8.42334 C108.794637,8.61378 108.621137,8.76189 108.481497,8.86768 C108.341847,8.97348 108.145067,9.07186 107.891167,9.16285 C107.637257,9.25385 107.357957,9.29932 107.053277,9.29932 C106.515837,9.29932 106.112757,9.10572 105.844047,8.71851 C105.575327,8.3313 105.440967,7.85629 105.440967,7.29346 C105.440967,6.53175 105.631397,5.83879 106.012257,5.2146 C106.393117,4.59042 106.843797,4.13445 107.364307,3.84668 L107.364257,3.84666 Z M116.866697,4.56395 L116.143067,7.52831 C116.045767,7.94302 115.997067,8.19058 115.997067,8.27098 C115.997067,8.41909 116.041467,8.49315 116.130367,8.49315 C116.198067,8.49315 116.314447,8.42965 116.479487,8.30272 C116.644527,8.17577 116.809567,8.02131 116.974607,7.83934 C117.122717,7.83934 117.222157,7.91344 117.272947,8.06151 C116.638177,8.86555 116.035147,9.26756 115.463867,9.26756 C115.142247,9.26756 114.981437,9.1258 114.981447,8.84227 C114.981437,8.56297 115.055447,8.16307 115.203617,7.64256 L115.349607,7.1411 L115.311507,7.1157 C114.782527,7.88588 114.336077,8.43707 113.972147,8.76926 C113.608217,9.10146 113.191387,9.26756 112.721657,9.26756 C112.471987,9.26756 112.264627,9.18185 112.099587,9.01047 C111.934547,8.83909 111.852027,8.57989 111.852027,8.23289 C111.852027,7.97475 111.894327,7.68276 111.978987,7.35691 L112.550277,5.17331 C112.664527,4.75861 112.721657,4.51316 112.721657,4.43699 C112.721657,4.28888 112.677257,4.21482 112.588357,4.21482 C112.520657,4.21482 112.393697,4.27722 112.207497,4.40207 C112.021297,4.52692 111.849917,4.68032 111.693337,4.86228 C111.545227,4.86228 111.445777,4.78828 111.394997,4.64011 C112.029767,3.83608 112.683567,3.43406 113.356427,3.43406 C113.669577,3.43406 113.826147,3.57794 113.826147,3.8657 C113.826147,3.9334 113.735147,4.3312 113.553207,5.05906 L112.994607,7.17917 C112.918407,7.48386 112.880347,7.76104 112.880347,8.01072 C112.880347,8.33233 113.009417,8.49314 113.267557,8.49314 C113.572237,8.49314 113.890687,8.29319 114.222877,7.89329 C114.555067,7.49338 114.985657,6.83852 115.514627,5.92869 L115.895487,4.50046 C115.912387,4.43276 115.937787,4.31215 115.971687,4.13865 C116.005587,3.96515 116.033087,3.84137 116.054187,3.76731 C116.075287,3.69331 116.125087,3.6192 116.203357,3.54514 C116.281657,3.47114 116.377917,3.43406 116.492177,3.43406 C116.856107,3.43406 117.038067,3.55044 117.038077,3.78318 C117.038067,3.82548 117.027477,3.89533 117.006377,3.99265 C116.985177,4.08995 116.958777,4.19684 116.927077,4.31321 C116.895377,4.42959 116.875277,4.51316 116.866777,4.56394 L116.866697,4.56395 Z" id="ce-tagline" fill="#000000" fill-rule="nonzero"></path>
    </g>
</svg>