<svg xmlns="http://www.w3.org/2000/svg" width="120" height="13"><path fill="#000" fill-rule="nonzero" d="M6.313.715c0-.027-.014-.041-.058-.041a3.17 3.17 0 0 1-.685.055H1.88C1.313.729.715.715.03.701L0 .73v.275c0 .041.015.096.117.096l.437.028c.554.041.744.193.744.619V8.61c0 .385-.175.55-.744.591l-.437.028c-.088 0-.117.055-.117.096V9.6l.03.027c.684-.013 1.282-.027 1.85-.027H5c.7 0 1.867.027 1.867.027l.54-2.297-.452-.068c-.292.99-.86 1.801-1.969 1.801H3.003c-.32 0-.524-.082-.524-.453V5.158H4.33c.496 0 .686.124.73.523l.043.344c0 .04.03.11.102.11h.32l.06-.042c-.045-.55-.06-.921-.06-1.196 0-.275.015-.688.06-1.238l-.06-.055h-.32c-.058 0-.102.055-.102.11l-.044.344c-.044.385-.218.578-.729.578H2.48V1.747c0-.33.175-.468.524-.468h1.531c1.094 0 1.356.55 1.677 1.5l.423-.07a45.75 45.75 0 0 0-.32-1.994m4.48 2.847c0-.027-.03-.04-.059-.04-.408.15-.991.274-2.012.426l.03.33.626.055c.204.027.32.165.32.853V8.61c0 .4-.145.55-.626.592l-.277.027c-.073.014-.117.042-.117.11v.262l.03.027c.583-.013.947-.027 1.516-.027.598 0 .904.014 1.487.027l.03-.027v-.262c0-.068-.045-.096-.118-.11l-.204-.027c-.48-.069-.627-.193-.627-.592V5.282c.744-.825 1.298-1.06 1.94-1.06.772 0 .947.455.947 1.417V8.61c0 .4-.16.523-.627.592l-.204.027c-.073.014-.116.042-.116.11v.262l.029.027c.583-.013.875-.027 1.443-.027.598 0 .977.014 1.56.027l.03-.027v-.262c0-.068-.059-.096-.132-.11l-.277-.027c-.452-.041-.612-.193-.612-.592V5.736c0-1.224-.292-2.174-1.604-2.174-.744 0-1.443.193-2.377 1.225h-.043l.043-1.225M22.325 8.35c-.059-.124-.175-.179-.306-.192-.452.618-1.123.976-1.75.976-1.123 0-1.94-1.087-1.94-2.696 0-1.513.744-2.407 1.707-2.407.86 0 .977.592 1.035 1.045.044.344.219.482.525.482.306 0 .685-.193.685-.592 0-.729-.773-1.403-2.172-1.403-1.575 0-3.018 1.225-3.018 3.178 0 1.774 1.02 2.998 2.857 2.998.875 0 1.648-.261 2.377-1.389m2.063-6.588c0 .357.32.66.7.66.38 0 .7-.303.7-.66 0-.358-.32-.66-.7-.66-.38 0-.7.302-.7.66m1.37 1.801c0-.027-.029-.04-.058-.04-.408.15-1.02.274-2.055.426l.029.33.627.055c.204.027.32.165.32.853V8.61c0 .4-.13.537-.627.592l-.277.027c-.072.014-.116.042-.116.11v.262l.029.027c.583-.013.991-.027 1.516-.027.554 0 .977.014 1.56.027l.03-.027v-.262c0-.068-.059-.096-.132-.11l-.277-.027c-.452-.041-.612-.193-.612-.592V5.186c0-.688.044-1.624.044-1.624m7.596 4.787c-.058-.124-.175-.179-.306-.192-.452.618-1.122.976-1.75.976-1.122 0-1.938-1.087-1.938-2.696 0-1.513.743-2.407 1.705-2.407.86 0 .977.592 1.036 1.045.043.344.218.482.524.482.307 0 .686-.193.686-.592 0-.729-.773-1.403-2.173-1.403-1.574 0-3.018 1.225-3.018 3.178 0 1.774 1.02 2.998 2.858 2.998.875 0 1.647-.261 2.376-1.389m2.195.261c0 .4-.146.55-.627.592l-.35.027c-.073 0-.102.042-.102.11v.262l.015.027c.729-.013 1.02-.027 1.589-.027.598 0 .89.014 1.618.027l.03-.027v-.262c0-.068-.059-.11-.117-.11l-.35-.027c-.481-.041-.612-.193-.612-.592V1.582c0-.894.043-1.444.043-1.444 0-.097-.058-.138-.19-.138-.364.138-1.37.316-1.968.358l.03.33c0 .041.043.069.087.069l.467.027c.291 0 .437.179.437 1.073V8.61m3.473-1.829c0 1.403 1.036 2.957 2.99 2.957 2.07 0 3.017-1.705 3.017-3.08 0-1.431-.83-3.096-2.989-3.096-1.939 0-3.018 1.335-3.018 3.219m2.858-2.765c1.196 0 1.91 1.06 1.91 3.081 0 1.816-.875 2.187-1.53 2.187-1.444 0-1.998-1.76-1.998-2.82 0-1.196.452-2.448 1.618-2.448m6.486 1.307c.32-.729 1.02-1.128 1.516-1.128.89 0 1.648.99 1.648 2.545 0 1.128-.394 2.53-1.954 2.53-.233 0-.7-.027-1.21-.59V5.322m-1.094-.137v6.63c0 .384-.16.536-.627.577l-.277.027c-.073.014-.116.042-.116.11v.262l.029.027c.54-.013.991-.027 1.516-.027.554 0 1.02.014 1.56.027l.03-.027v-.261c0-.07-.059-.097-.132-.11l-.277-.028c-.452-.041-.612-.193-.612-.578v-2.38c.379.193.773.303 1.297.303.773 0 1.473-.234 2.042-.77.656-.633 1.02-1.485 1.02-2.6 0-1.458-1.035-2.806-2.45-2.806-.466 0-1.238.138-1.91 1.1h-.043l.044-1.1c0-.027-.03-.04-.058-.04-.423.15-.977.274-2.013.426l.03.33.627.055c.204.027.32.165.32.853m8.348.467c.262-1.554 1.34-1.623 1.676-1.623.525 0 1.21.275 1.21 1.43 0 .124-.058.193-.204.193h-2.682m3.849 2.641c-.51.523-1.021.77-1.823.77-.816 0-2.07-.825-2.07-2.874h3.834c.16 0 .263-.083.263-.234 0-1.156-.452-2.394-2.377-2.394-1.385 0-2.887 1.21-2.887 3.302 0 1.581.89 2.874 2.887 2.874 1.05 0 1.91-.509 2.464-1.224-.044-.137-.131-.206-.291-.22m6.314.014c-.657.495-1.225.784-1.604.784-.788 0-1.59-.812-1.59-2.531 0-.99.19-1.54.409-1.83.452-.646 1.064-.687 1.356-.687.685 0 1.079.289 1.429.811v3.453m1.093-6.726c0-.894.044-1.444.044-1.444 0-.097-.059-.138-.19-.138-.364.138-1.37.316-1.968.358l.03.33c0 .041.043.069.087.069l.466.027c.292 0 .438.179.438 1.073v2.008c-.336-.179-.977-.303-1.269-.303-.962 0-1.604.303-2.187.826-.627.591-.977 1.403-.977 2.42 0 1.692.875 2.93 2.45 2.93.583 0 1.312-.44 1.983-.949l.029.014-.03.963h.336c.32-.248.962-.427 1.866-.578l-.044-.316-.7-.069c-.306-.028-.364-.11-.364-.798V1.582m3.053.179c0 .357.32.66.7.66.379 0 .7-.303.7-.66 0-.358-.321-.66-.7-.66-.38 0-.7.302-.7.66m1.37 1.801c0-.027-.029-.04-.058-.04-.408.15-1.02.274-2.056.426l.03.33.626.055c.204.027.32.165.32.853V8.61c0 .4-.13.537-.626.592l-.277.027c-.073.014-.117.042-.117.11v.262l.03.027c.583-.013.99-.027 1.516-.027.554 0 .977.014 1.56.027l.029-.027v-.262c0-.068-.058-.096-.131-.11l-.277-.027c-.452-.041-.613-.193-.613-.592V5.186c0-.688.044-1.624.044-1.624m6.066 2.834v1.83c0 .178-.087.274-.204.357-.38.289-.875.591-1.283.591-.73 0-1.079-.55-1.079-.976 0-.62.335-1.238 1.414-1.513l1.152-.29m0 2.546c.088.288.32.797 1.094.797.714 0 1.21-.55 1.21-.619 0-.096-.102-.206-.16-.206-.088 0-.132.22-.482.22-.568 0-.583-.564-.583-1.197V5.887c0-1.953-1.079-2.325-2.143-2.325-1.196 0-2.406.784-2.406 1.527 0 .33.175.482.51.482.423 0 .642-.275.642-.454a.587.587 0 0 0-.044-.248.9.9 0 0 1-.03-.275c0-.426.657-.619 1.211-.619.496 0 1.181.275 1.181 1.83 0 .096-.044.15-.087.165l-1.254.288c-1.4.33-2.377 1.06-2.377 1.995 0 1.086.787 1.485 1.808 1.485.67 0 .948-.11 1.59-.577l.29-.22h.03m8.458-.33c0 .398-.146.55-.627.59l-.35.028c-.073 0-.102.042-.102.11v.262l.015.027c.729-.013 1.02-.027 1.589-.027.598 0 .89.014 1.618.027l.03-.027v-.262c0-.068-.06-.11-.117-.11l-.35-.027c-.481-.041-.613-.193-.613-.592V1.582c0-.894.044-1.444.044-1.444 0-.097-.058-.138-.19-.138-.364.138-1.37.316-1.968.358l.03.33c0 .041.043.069.087.069l.466.027c.292 0 .438.179.438 1.073V8.61m4.202-6.85c0 .358.321.66.7.66.38 0 .7-.302.7-.66 0-.357-.32-.66-.7-.66-.379 0-.7.303-.7.66m1.37 1.802c0-.027-.028-.04-.058-.04-.408.15-1.02.274-2.055.426l.029.33.627.055c.204.027.32.165.32.853V8.61c0 .4-.13.537-.626.592l-.277.027c-.073.014-.117.042-.117.11v.262l.03.027c.582-.013.99-.027 1.515-.027.554 0 .977.014 1.56.027l.03-.027v-.262c0-.068-.059-.096-.132-.11l-.277-.027c-.452-.041-.612-.193-.612-.592V5.186c0-.688.044-1.624.044-1.624m4.054 5.062V4.745c.568-.55 1.326-.577 1.487-.577.89 0 1.604 1.018 1.604 2.352 0 1.568-.657 2.75-2.042 2.75-.452 0-.758-.302-1.05-.646m-1.093-6.767v6.767c0 .537-.015.77-.073 1.073.088.055.16.069.306.069.146-.124.35-.358.481-.537.423.344.89.51 1.517.51 1.487 0 3.193-1.28 3.193-3.467 0-1.678-1.283-2.71-2.552-2.71-.7 0-1.283.248-1.778.757V1.582c0-.894.043-1.444.043-1.444 0-.097-.058-.138-.19-.138-.364.138-1.384.316-1.968.358l.03.33c0 .041.043.069.087.069l.467.027c.291 0 .437.179.437 1.073m8.291 3.796c.262-1.554 1.341-1.623 1.677-1.623.525 0 1.21.275 1.21 1.43 0 .124-.059.193-.204.193h-2.683m3.85 2.641c-.511.523-1.022.77-1.823.77-.817 0-2.07-.825-2.07-2.874h3.834c.16 0 .262-.083.262-.234 0-1.156-.452-2.394-2.376-2.394-1.385 0-2.887 1.21-2.887 3.302 0 1.581.89 2.874 2.887 2.874 1.05 0 1.91-.509 2.464-1.224-.044-.137-.132-.206-.292-.22m2.642.316c0 .4-.146.55-.627.592l-.277.027c-.073.014-.102.042-.102.11v.262l.014.027c.54-.013.992-.027 1.517-.027.554 0 1.18.014 1.72.027l.03-.027v-.262c0-.068-.059-.11-.132-.11l-.423-.027c-.466-.028-.627-.193-.627-.592V5.598c0-.179.073-.357.175-.481.35-.468.671-.716.831-.716.103 0 .205.042.292.124a.791.791 0 0 0 .598.248c.379 0 .627-.22.627-.578 0-.357-.219-.633-.817-.633-.685 0-1.326.702-1.706 1.238h-.043l.043-1.238c0-.027-.029-.04-.058-.04-.408.15-.991.274-2.012.426l.03.33.626.055c.204.027.321.165.321.853V8.61m5.743-7.909-.393.166c.204 1.169.947 1.856 1.968 1.856.86 0 1.793-.674 1.968-1.856L118.032.7c-.146.798-.817 1.238-1.575 1.238-.787 0-1.414-.509-1.575-1.238m2.814 5.695v1.83c0 .178-.087.274-.204.357-.379.289-.875.591-1.283.591-.729 0-1.079-.55-1.079-.976 0-.62.336-1.238 1.415-1.513l1.151-.29m0 2.546c.088.288.321.797 1.094.797.714 0 1.21-.55 1.21-.619 0-.096-.102-.206-.16-.206-.088 0-.132.22-.482.22-.568 0-.583-.564-.583-1.197V5.887c0-1.953-1.079-2.325-2.143-2.325-1.196 0-2.406.784-2.406 1.527 0 .33.175.482.51.482.423 0 .642-.275.642-.454a.589.589 0 0 0-.044-.248.898.898 0 0 1-.029-.275c0-.426.656-.619 1.21-.619.496 0 1.181.275 1.181 1.83 0 .096-.043.15-.087.165l-1.254.288c-1.4.33-2.377 1.06-2.377 1.995 0 1.086.788 1.485 1.808 1.485.671 0 .948-.11 1.59-.577l.291-.22h.03"/></svg>