<svg xmlns="http://www.w3.org/2000/svg" width="121" height="23"><g fill="none" fill-rule="nonzero"><g fill="#0B2645"><path d="M17.492 6.773c-.198.008-.44.052-.722.132-.283.08-.516.178-.7.292-.26.161-.468.367-.625.62a7.4 7.4 0 0 0-.465.895 342.61 342.61 0 0 0-2.305 5.684c-1.025 2.573-2.08 5.255-3.167 8.047h-.952c-1.1-2.96-2.164-5.812-3.189-8.558-1.024-2.745-1.72-4.6-2.087-5.563a2.156 2.156 0 0 0-.367-.626 2.679 2.679 0 0 0-.608-.51 2.411 2.411 0 0 0-.689-.293 3.953 3.953 0 0 0-.7-.12v-.815H7.65v.815a9.516 9.516 0 0 0-1.451.172c-.394.084-.59.233-.59.447 0 .084.015.184.045.299.03.114.058.206.08.275.283.75.742 1.971 1.377 3.665l2.707 7.233c.581-1.415 1.25-3.086 2.008-5.013.757-1.928 1.265-3.25 1.525-3.97.253-.695.4-1.177.442-1.445.042-.267.063-.485.063-.654a.535.535 0 0 0-.235-.441 2.116 2.116 0 0 0-.625-.304 5.311 5.311 0 0 0-.769-.172 13.17 13.17 0 0 0-.791-.092v-.815h6.056v.815ZM25.247 22.236h-7.33v-.814l.895-.07c.39-.03.665-.076.826-.137.252-.1.435-.235.55-.407.115-.172.172-.411.172-.717V8.299a1.58 1.58 0 0 0-.126-.671c-.084-.18-.283-.331-.596-.454a6.028 6.028 0 0 0-.867-.258 5.72 5.72 0 0 0-.854-.143v-.815h7.33v.815c-.237.008-.52.036-.849.086-.329.05-.616.113-.86.19-.29.091-.486.24-.585.447-.1.206-.15.436-.15.688v11.78c0 .253.056.477.167.672.11.195.3.35.568.464.16.062.422.129.786.201.363.073.67.113.923.12v.815ZM23.079 2.3c0 .436-.143.813-.43 1.13-.287.317-.64.476-1.061.476-.39 0-.729-.149-1.016-.447a1.472 1.472 0 0 1-.43-1.056c0-.42.144-.783.43-1.09.287-.305.626-.458 1.016-.458.436 0 .793.143 1.072.43.28.287.419.625.419 1.015ZM43.085 22.236h-4.566a49.324 49.324 0 0 0-2.93-4.055 68.085 68.085 0 0 0-3.379-3.906h-.298v5.667c0 .252.048.478.143.677.096.198.27.36.522.481.122.054.35.119.683.195.332.077.61.119.831.127v.814h-6.756v-.814l.768-.07c.337-.03.574-.076.711-.137.23-.1.396-.246.5-.441a1.49 1.49 0 0 0 .154-.706V8.322c0-.26-.044-.486-.132-.677-.088-.191-.261-.348-.522-.47a4.268 4.268 0 0 0-.734-.264 4.005 4.005 0 0 0-.745-.138v-.815h6.756v.815a5.486 5.486 0 0 0-.803.103 5.402 5.402 0 0 0-.711.172c-.26.092-.436.245-.528.46a1.758 1.758 0 0 0-.137.699v5.62h.23a47.32 47.32 0 0 0 2.03-1.817c.665-.631 1.269-1.26 1.812-1.887.604-.696 1.046-1.253 1.325-1.67.279-.416.419-.785.419-1.107 0-.114-.071-.208-.213-.28a2.272 2.272 0 0 0-.487-.178 4.106 4.106 0 0 0-.574-.086c-.168-.012-.306-.021-.413-.03v-.814h6.103v.815c-.023 0-.073.004-.15.011-.076.008-.164.016-.263.023a2.32 2.32 0 0 0-.321.046c-.107.023-.245.05-.413.08a4.172 4.172 0 0 0-.832.293c-.287.134-.522.3-.705.499-.788.895-1.61 1.82-2.467 2.776a41.732 41.732 0 0 1-2.546 2.615 96.13 96.13 0 0 1 2.885 3.396c.76.948 1.57 1.962 2.426 3.04.329.413.658.744.987.992.328.249.611.434.848.556.2.1.448.176.746.23.298.053.547.084.746.092v.814ZM50.713 22.236h-7.33v-.814l.895-.07c.39-.03.665-.076.826-.137.252-.1.435-.235.55-.407.115-.172.172-.411.172-.717V8.299a1.58 1.58 0 0 0-.126-.671c-.084-.18-.283-.331-.596-.454a6.028 6.028 0 0 0-.866-.258 5.72 5.72 0 0 0-.855-.143v-.815h7.33v.815c-.237.008-.52.036-.849.086-.329.05-.615.113-.86.19-.29.091-.486.24-.585.447-.1.206-.15.436-.15.688v11.78c0 .253.056.477.167.672.11.195.3.35.568.464.16.062.422.129.786.201.363.073.67.113.923.12v.815ZM48.545 2.3c0 .436-.143.813-.43 1.13-.287.317-.64.476-1.061.476-.39 0-.729-.149-1.016-.447a1.472 1.472 0 0 1-.43-1.056c0-.42.144-.783.43-1.09.287-.305.626-.458 1.016-.458.436 0 .793.143 1.072.43.28.287.419.625.419 1.015Z"/></g><g fill="#0A4E98"><path d="M67.759 22.236h-4.566a49.324 49.324 0 0 0-2.93-4.055 68.085 68.085 0 0 0-3.379-3.906h-.298v5.667c0 .252.048.478.143.677.096.198.27.36.522.481.123.054.35.119.683.195.333.077.61.119.832.127v.814h-6.757v-.814l.769-.07c.336-.03.573-.076.71-.137.23-.1.397-.246.5-.441a1.49 1.49 0 0 0 .155-.706V8.322c0-.26-.044-.486-.132-.677-.088-.191-.262-.348-.522-.47a4.268 4.268 0 0 0-.734-.264 4.005 4.005 0 0 0-.746-.138v-.815h6.757v.815a5.486 5.486 0 0 0-.803.103 5.402 5.402 0 0 0-.712.172c-.26.092-.435.245-.527.46a1.758 1.758 0 0 0-.138.699v5.62h.23a47.32 47.32 0 0 0 2.03-1.817c.665-.631 1.27-1.26 1.812-1.887.605-.696 1.046-1.253 1.325-1.67.28-.416.419-.785.419-1.107 0-.114-.07-.208-.212-.28a2.272 2.272 0 0 0-.488-.178 4.106 4.106 0 0 0-.573-.086c-.169-.012-.306-.021-.413-.03v-.814h6.102v.815c-.023 0-.072.004-.149.011-.076.008-.164.016-.264.023a2.32 2.32 0 0 0-.32.046c-.108.023-.245.05-.414.08a4.172 4.172 0 0 0-.831.293c-.287.134-.522.3-.706.499-.788.895-1.61 1.82-2.466 2.776a41.732 41.732 0 0 1-2.547 2.615 96.13 96.13 0 0 1 2.885 3.396c.761.948 1.57 1.962 2.426 3.04.33.413.658.744.987.992.329.249.612.434.849.556.199.1.447.176.745.23.299.053.547.084.746.092v.814ZM75.387 22.236h-7.33v-.814l.895-.07c.39-.03.665-.076.826-.137.252-.1.436-.235.55-.407.115-.172.173-.411.173-.717V8.299a1.58 1.58 0 0 0-.127-.671c-.084-.18-.282-.331-.596-.454a6.028 6.028 0 0 0-.866-.258 5.72 5.72 0 0 0-.855-.143v-.815h7.33v.815c-.237.008-.52.036-.848.086-.33.05-.616.113-.86.19-.291.091-.486.24-.586.447-.1.206-.149.436-.149.688v11.78c0 .253.055.477.166.672.111.195.3.35.568.464.16.062.423.129.786.201.363.073.671.113.923.12v.815ZM73.22 2.3c0 .436-.143.813-.43 1.13-.287.317-.64.476-1.06.476-.391 0-.73-.149-1.016-.447a1.472 1.472 0 0 1-.43-1.056c0-.42.143-.783.43-1.09.287-.305.625-.458 1.015-.458.436 0 .793.143 1.073.43.279.287.418.625.418 1.015ZM90.656 10.375h-.792a5.44 5.44 0 0 0-.373-.98 8.817 8.817 0 0 0-.602-1.073c-.23-.352-.48-.66-.751-.924-.272-.264-.534-.415-.786-.453a10.79 10.79 0 0 0-.895-.069c-.36-.015-.692-.023-.998-.023h-.665v13.02c0 .252.053.484.16.694.107.21.295.373.562.488.138.053.427.126.867.218.44.091.781.141 1.026.149v.814h-7.686v-.814c.215-.016.542-.046.981-.092.44-.046.744-.103.912-.172.253-.1.438-.243.557-.43.118-.188.177-.438.177-.752V6.853h-.665c-.237 0-.531.006-.883.017-.352.012-.688.037-1.01.075-.252.03-.514.182-.785.453-.272.272-.522.58-.752.924-.23.344-.432.709-.608 1.095a6.648 6.648 0 0 0-.367.958h-.803V5.958h14.179v4.417ZM107.14 22.236h-6.78v-.814c.597-.039 1.092-.115 1.486-.23.394-.114.59-.256.59-.424 0-.069-.007-.153-.022-.253a1.204 1.204 0 0 0-.07-.263l-1.353-3.648H95.29a27.241 27.241 0 0 0-.522 1.4c-.134.397-.254.764-.361 1.1a7.85 7.85 0 0 0-.207.803 2.894 2.894 0 0 0-.057.505c0 .306.24.543.722.711a5.825 5.825 0 0 0 1.63.299v.814h-6.126v-.814c.199-.016.447-.06.745-.132.299-.073.543-.17.735-.293.305-.206.543-.422.71-.648.169-.226.333-.537.494-.935.818-2.042 1.72-4.336 2.707-6.883A7904.32 7904.32 0 0 1 98.4 5.73h.917l5.426 14.04c.115.299.245.54.39.723.145.184.348.364.608.54.176.107.405.197.688.27.283.072.52.112.712.12v.814Zm-6.562-6.653-2.466-6.31-2.42 6.31h4.886ZM119.265 14.654c.474.32.868.741 1.181 1.261.314.52.47 1.151.47 1.893 0 .757-.164 1.415-.493 1.973a4.258 4.258 0 0 1-1.284 1.377 5.886 5.886 0 0 1-1.738.803 7.29 7.29 0 0 1-2.002.275h-7.709v-.814c.184-.016.451-.048.803-.098.352-.05.604-.109.757-.178.237-.107.406-.25.505-.43.1-.18.15-.41.15-.694v-11.7c0-.26-.045-.49-.133-.689-.088-.199-.262-.36-.522-.482a3.246 3.246 0 0 0-.768-.263c-.283-.062-.52-.1-.711-.115v-.815h7.513c.581 0 1.138.058 1.67.173a4.948 4.948 0 0 1 1.52.608c.45.267.821.63 1.112 1.09.29.458.436 1.016.436 1.674 0 .574-.103 1.084-.31 1.531a3.35 3.35 0 0 1-.872 1.153 5.077 5.077 0 0 1-1.21.775c-.455.21-.946.372-1.474.487v.103c.466.054.988.17 1.566.35.577.18 1.091.43 1.543.752Zm-2.765-2.455c.283-.329.48-.688.59-1.078.112-.39.167-.853.167-1.389 0-.894-.244-1.596-.734-2.104-.49-.509-1.262-.763-2.317-.763-.245 0-.553.005-.924.017-.37.011-.682.02-.934.029v6.251h1.456c.627 0 1.165-.08 1.612-.24a2.51 2.51 0 0 0 1.084-.723Zm1.583 5.196c0-.963-.323-1.755-.97-2.374-.645-.62-1.569-.93-2.77-.93a37.323 37.323 0 0 0-1.995.046v5.736c0 .482.195.845.585 1.09.39.245.933.367 1.629.367 1.139 0 2.01-.333 2.615-.998.604-.665.906-1.644.906-2.937Z"/></g></g></svg>