<?xml version="1.0" encoding="UTF-8"?>
<svg width="120px" height="12px" viewBox="0 0 120 12" version="1.1" xmlns="http://www.w3.org/2000/svg" xmlns:xlink="http://www.w3.org/1999/xlink">
    <title>rue-tagline</title>
    <g id="Page-1" stroke="none" stroke-width="1" fill="none" fill-rule="evenodd">
        <path d="M4.87268994,0.600616016 C6.38501027,0.600616016 6.75667351,1.16119097 7.4486653,1.20123203 C7.37166324,1.92197125 7.34599589,2.57700205 7.33367556,3.27104723 L6.96201232,3.32546201 C6.85934292,2.17761807 6.34702259,1.09548255 4.64271047,1.09548255 C3.66837782,1.09548255 1.72073922,2.21765914 1.20841889,4.92505133 C1.13963039,5.29979466 1.1036961,5.68069815 1.1036961,6.05030801 C1.1036961,7.60472279 1.74332649,8.97125257 3.28439425,8.97125257 C4.42505133,8.97125257 5.34804928,8.55749487 6.41170431,7.5164271 C6.5523614,7.5164271 6.61704312,7.59650924 6.6550308,7.71457906 C5.60472279,8.90246407 4.38706366,9.5174538 3.19507187,9.5174538 C0.958932238,9.5174538 0,7.94661191 0,6.16119097 C0,5.83983573 0.0308008214,5.50821355 0.0924024641,5.17864476 C0.58110883,2.54825462 2.83470226,0.600616016 4.87268994,0.600616016 Z M13.5451745,3.63039014 C13.5708419,3.75051335 13.5544148,3.99281314 13.4938398,4.0174538 L13.1221766,4.05749487 C12.6776181,4.10574949 12.5995893,4.137577 12.5071869,4.64373717 L11.9435318,7.72792608 C11.8798768,8.07494867 11.8028747,8.36755647 11.8028747,8.48767967 C11.8028747,8.64681725 11.8418891,8.71560575 11.9312115,8.71560575 C12.0595483,8.71560575 12.4312115,8.4476386 12.7638604,8.04825462 C12.9435318,8.04825462 13.0205339,8.1550308 13.0585216,8.2761807 C12.4691992,9.06468172 11.8921971,9.5174538 11.2772074,9.5174538 C10.8921971,9.5174538 10.8028747,9.32956879 10.8028747,9.07597536 C10.8028747,8.82340862 10.9445585,8.28850103 11.0205339,7.84907598 L11.5862423,4.81827515 C11.6119097,4.65811088 11.637577,4.53798768 11.637577,4.44455852 C11.637577,4.24537988 11.5349076,4.17761807 11.2402464,4.17761807 L10.5605749,4.17761807 C10.1119097,4.17761807 9.9835729,4.57802875 9.70225873,5.83059548 C9.45585216,6.92505133 9.15092402,8.0338809 8.89527721,8.55338809 C8.61293634,9.18069815 8.1899384,9.5164271 7.70328542,9.5164271 C7.3449692,9.5164271 7.03696099,9.23613963 7.03696099,8.91478439 C7.03696099,8.88911704 7.03696099,8.84907598 7.05030801,8.82032854 C7.10164271,8.55338809 7.28131417,8.33983573 7.52361396,8.33983573 C7.71663244,8.33983573 7.83162218,8.5 7.83162218,8.68685832 C7.83162218,8.70020534 7.83162218,8.72689938 7.81827515,8.74024641 C7.80595483,8.91478439 7.84394251,9.04928131 7.94661191,9.04928131 C8.06160164,9.04928131 8.20328542,8.91478439 8.35626283,8.58213552 C8.58726899,8.12833676 8.85626283,7.32648871 9.16324435,5.92505133 C9.33059548,5.16529774 9.41991786,4.70944559 9.41991786,4.42915811 C9.41991786,4.0687885 9.16324435,4.0687885 8.76591376,4.0174538 C8.6889117,3.96406571 8.67659138,3.69609856 8.74024641,3.63039014 C9.21457906,3.64373717 9.4835729,3.6550308 9.97022587,3.6550308 L12.2895277,3.6550308 C12.801848,3.6550308 13.5451745,3.63039014 13.5451745,3.63039014 Z M17.338809,3.52361396 C18.9158111,3.52361396 19.1457906,4.724846 19.1457906,5.68583162 C19.1457906,7.26283368 18.275154,8.67659138 17.1591376,9.26180698 C16.7823409,9.45893224 16.3942505,9.5164271 15.9804928,9.5164271 C14.3531828,9.5164271 14.1858316,7.92607803 14.1858316,7.22073922 C14.1868583,5.61909651 15.1991786,3.52361396 17.338809,3.52361396 Z M16.301848,9.04928131 C16.8275154,9.04928131 17.2371663,8.76899384 17.5451745,8.20841889 C17.9702259,7.43429158 18.0831622,6.30595483 18.0831622,5.77926078 C18.0831622,5.37268994 18.0164271,4.90246407 17.8521561,4.56468172 C17.6704312,4.1899384 17.4928131,3.96406571 17.1088296,3.96406571 C15.6478439,3.96406571 15.2505133,5.91067762 15.2505133,7.11190965 C15.2505133,8.51540041 15.9301848,9.04928131 16.301848,9.04928131 Z M26.0390144,0.0667351129 C25.5646817,1.48049281 24.7700205,1.98767967 23.7197125,2.09650924 C22.6170431,2.20841889 22.2453799,2.54928131 21.7084189,3.39219713 C21.4650924,3.77926078 21.2464066,4.32546201 21.1190965,4.83264887 C21.4907598,4.27207392 22.1190965,3.52464066 23.2464066,3.52464066 C24.5410678,3.52464066 25.0020534,4.40554415 25.0020534,5.47330595 C25.0020534,7.59445585 23.4383984,9.5174538 21.7340862,9.5174538 C20.798768,9.5174538 19.9784394,8.94147844 19.9784394,7.43531828 C19.9784394,5.48767967 21.4774127,1.30800821 23.963039,1.09342916 C24.963039,1.00924025 25.4753593,0.761806982 25.7443532,0.0667351129 L26.0390144,0.0667351129 Z M28.8839836,3.52361396 C30.4599589,3.52361396 30.6909651,4.724846 30.6909651,5.68583162 C30.6909651,7.26283368 29.8203285,8.67659138 28.7043121,9.26180698 C28.3275154,9.45893224 27.9394251,9.5164271 27.5256674,9.5164271 C25.8983573,9.5164271 25.7310062,7.92607803 25.7310062,7.22073922 C25.7310062,5.61909651 26.7443532,3.52361396 28.8839836,3.52361396 Z M23.0277207,3.96406571 C21.7207392,3.96406571 20.9774127,5.87063655 20.9774127,7.40759754 C20.9774127,8.32854209 21.5154004,9.07597536 22.0544148,9.07597536 C23.2464066,9.07597536 23.9507187,7.16632444 23.9507187,5.56570842 C23.9507187,4.68480493 23.5913758,3.96406571 23.0277207,3.96406571 Z M28.6529774,3.96406571 C27.1919918,3.96406571 26.7946612,5.91067762 26.7946612,7.11190965 C26.7946612,8.51540041 27.4743326,9.04928131 27.8459959,9.04928131 C28.3716632,9.04928131 28.7813142,8.76899384 29.0893224,8.20841889 C29.5143737,7.43429158 29.6273101,6.30595483 29.6273101,5.77926078 C29.6273101,5.37268994 29.5605749,4.90246407 29.3963039,4.56468172 C29.2145791,4.1899384 29.0379877,3.96406571 28.6529774,3.96406571 Z M35.6488706,3.7238193 C35.674538,3.6036961 35.674538,3.49691992 35.674538,3.39117043 C35.674538,1.90965092 34.7525667,1.70841889 33.6755647,1.32135524 C33.0749487,1.10472279 32.9065708,0.625256674 32.9065708,0.198151951 C32.9065708,0.0800821355 32.9322382,-6.21724894e-15 32.9579055,-6.21724894e-15 L32.9702259,-6.21724894e-15 C33.8039014,0.492813142 34.7648871,0.361396304 35.7125257,1.92197125 C36.238193,2.74948665 36.4681725,3.69712526 36.4815195,4.69815195 C36.4815195,6.35215606 35.8367556,7.8963039 35.0462012,8.64887064 C34.5564682,9.11293634 34.0718686,9.54312115 33.1232033,9.54312115 C31.9958932,9.54312115 31.5338809,8.54209446 31.5338809,7.48767967 C31.5338809,5.81930185 32.4958932,4.48459959 33.4312115,3.95071869 C34.0205339,3.61806982 34.5328542,3.4835729 34.801848,3.4835729 C35.110883,3.4835729 35.4188912,3.53696099 35.6488706,3.7238193 Z M34.5092402,3.99075975 C33.650924,3.99075975 32.5995893,5.2073922 32.587269,7.34188912 C32.587269,8.25051335 32.9199179,8.98459959 33.5225873,8.98459959 C35.0985626,8.98459959 35.4958932,5.49897331 35.4958932,4.78028747 C35.4958932,4.15092402 34.8675565,3.99075975 34.5092402,3.99075975 Z M38.3778234,5.09856263 C38.4671458,4.724846 38.4928131,4.53901437 38.4928131,4.41786448 C38.4928131,4.28439425 38.4158111,4.16529774 38.261807,4.15092402 L37.74846,4.11088296 C37.6714579,3.99075975 37.6498973,3.84394251 37.7361396,3.73819302 C38.3377823,3.65811088 38.9147844,3.56365503 39.3244353,3.56365503 C39.4938398,3.56365503 39.587269,3.66427105 39.587269,3.8449692 C39.587269,4.07494867 39.4394251,4.59240246 39.3285421,5.10882957 L39.1232033,6.03080082 L41.3716632,6.03080082 L41.6694045,4.61601643 C41.7761807,4.10985626 41.7720739,3.52258727 42.2587269,3.52258727 C42.6683778,3.52258727 42.7967146,3.6550308 42.7967146,3.88398357 C42.7967146,4.04209446 42.6765914,4.44558522 42.6303901,4.68377823 L41.912731,7.72792608 C41.835729,8.07494867 41.7720739,8.30184805 41.7720739,8.42197125 C41.7720739,8.58213552 41.8110883,8.64887064 41.9004107,8.64887064 C42.0287474,8.64887064 42.4004107,8.45071869 42.7340862,8.04825462 C42.9137577,8.04825462 42.9907598,8.1550308 43.0287474,8.2761807 C42.4394251,9.06468172 41.862423,9.5174538 41.2474333,9.5174538 C40.862423,9.5174538 40.7731006,9.32956879 40.7731006,9.07597536 C40.7731006,8.82340862 40.9034908,8.26180698 40.9907598,7.84907598 L41.2628337,6.55544148 L39.0071869,6.55544148 L38.5934292,8.42197125 C38.4794661,8.92915811 38.4917864,9.5164271 38.0051335,9.5164271 C37.5975359,9.5164271 37.4548255,9.37474333 37.4548255,9.15297741 C37.4548255,9.02258727 37.5564682,8.6889117 37.6180698,8.42197125 L38.3778234,5.09856263 Z M49.026694,3.63039014 L48.1427105,7.78131417 C48.0913758,8.0349076 48.0143737,8.40759754 48.0143737,8.52874743 C48.0143737,8.6889117 48.1293634,8.71765914 48.1683778,8.71765914 C48.2967146,8.71765914 48.5400411,8.50410678 48.886037,8.01026694 C49.0523614,8.01026694 49.113963,8.11088296 49.1806982,8.2238193 C48.8470226,8.98459959 48.3347023,9.52053388 47.5400411,9.52053388 C47.1047228,9.52053388 47.0143737,9.17145791 47.0143737,8.91889117 C47.0143737,8.75975359 47.0533881,8.49178645 47.1427105,8.18480493 L47.3090349,7.62320329 L47.2833676,7.59753593 C46.5143737,8.78439425 45.7967146,9.52053388 45.1180698,9.52053388 C44.0410678,9.52053388 43.8747433,8.4661191 43.8747433,7.71765914 C43.8747433,5.62217659 45.7330595,3.52669405 47.1047228,3.52669405 C47.6170431,3.52669405 47.7843943,3.56673511 48.1303901,3.60677618 C48.3850103,3.67043121 48.7186858,3.63039014 49.026694,3.63039014 Z M47.936345,4.19096509 C47.6930185,4.03080082 47.4106776,3.93737166 47.1427105,3.93737166 C45.9640657,3.93737166 44.899384,6.0862423 44.899384,7.50205339 C44.899384,8.25051335 45.0277207,8.78336756 45.463039,8.78336756 C45.8726899,8.78336756 46.8593429,7.66119097 47.4876797,6.45995893 C47.8090349,5.60574949 47.936345,4.19096509 47.936345,4.19096509 Z M54.4322382,7.18069815 C54.4322382,8.3963039 54.8295688,8.71560575 55.4065708,8.71560575 C56.0215606,8.71560575 56.4188912,8.50205339 57.1488706,7.72792608 C57.3028747,7.72792608 57.3798768,7.7926078 57.4435318,7.94045175 C56.687885,8.95482546 55.8028747,9.5164271 54.9445585,9.5164271 C53.7022587,9.5164271 53.3685832,8.62217659 53.3685832,7.48562628 C53.3685832,5.79055441 54.3552361,3.52258727 56.5472279,3.52258727 C57.5852156,3.52258727 57.8151951,3.98973306 57.8151951,4.45585216 C57.8151951,4.96303901 57.7895277,6.04517454 54.4445585,6.724846 C54.4322382,6.83367556 54.4322382,7.11498973 54.4322382,7.18069815 Z M56.2525667,3.93737166 C55.7156057,3.93737166 54.9876797,4.33162218 54.5349076,6.21663244 C55.5092402,6.0862423 56.9188912,5.64579055 56.9188912,4.44455852 C56.9188912,4.05749487 56.7135524,3.93737166 56.2525667,3.93737166 Z M59.5708419,5.09856263 C59.6601643,4.724846 59.6858316,4.53901437 59.6858316,4.41786448 C59.6858316,4.28439425 59.6088296,4.16529774 59.4548255,4.15092402 L58.9414784,4.11088296 C58.8644764,3.99075975 58.8429158,3.84394251 58.9291581,3.73819302 C59.5308008,3.65811088 60.1078029,3.56365503 60.5174538,3.56365503 C60.6858316,3.56365503 60.7802875,3.66427105 60.7802875,3.8449692 C60.7802875,4.07494867 60.6314168,4.59240246 60.5215606,5.10882957 L60.3151951,6.03080082 L62.5657084,6.03080082 L62.862423,4.61601643 C62.9691992,4.10985626 62.9650924,3.52258727 63.4517454,3.52258727 C63.8603696,3.52258727 63.9887064,3.6550308 63.9887064,3.88398357 C63.9887064,4.04209446 63.8685832,4.44558522 63.8223819,4.68377823 L63.1067762,7.72792608 C63.0287474,8.07494867 62.9640657,8.30184805 62.9640657,8.42197125 C62.9640657,8.58213552 63.0020534,8.64887064 63.0924025,8.64887064 C63.2207392,8.64887064 63.5913758,8.45071869 63.9271047,8.04825462 C64.1057495,8.04825462 64.1837782,8.1550308 64.2217659,8.2761807 C63.6324435,9.06468172 63.0544148,9.5174538 62.4394251,9.5174538 C62.0564682,9.5174538 61.9661191,9.32956879 61.9661191,9.07597536 C61.9661191,8.82340862 62.0965092,8.26180698 62.1848049,7.84907598 L62.4558522,6.55544148 L60.201232,6.55544148 L59.7874743,8.42197125 C59.6735113,8.92915811 59.6858316,9.5164271 59.1991786,9.5164271 C58.7926078,9.5164271 58.6498973,9.37474333 58.6498973,9.15297741 C58.6498973,9.02258727 58.75154,8.6889117 58.812115,8.42197125 L59.5708419,5.09856263 Z M70.5523614,4.68480493 L69.8347023,7.72895277 C69.7587269,8.07597536 69.6940452,8.36858316 69.6940452,8.48870637 C69.6940452,8.64784394 69.7320329,8.71663244 69.8223819,8.71663244 C69.9507187,8.71663244 70.3213552,8.4486653 70.6550308,8.04928131 C70.835729,8.04928131 70.9117043,8.15605749 70.949692,8.27720739 C70.7628337,8.52566735 70.5790554,8.74229979 70.3921971,8.92094456 C70.3418891,9.08932238 70.3100616,9.26180698 70.3100616,9.42402464 C70.3100616,9.66427105 70.335729,9.83778234 70.3603696,9.98562628 C70.4004107,10.1601643 70.426078,10.3182752 70.426078,10.5205339 C70.426078,10.8809035 70.2977413,11.3080082 69.0924025,11.801848 L68.949692,11.4281314 C69.3223819,11.2412731 69.6817248,11.0410678 69.6817248,10.6406571 C69.6817248,10.5605749 69.6673511,10.4527721 69.6673511,10.2926078 C69.6673511,9.97946612 69.7412731,9.6724846 69.8963039,9.30595483 C69.6601643,9.44558522 69.4147844,9.51848049 69.1683778,9.51848049 C68.7833676,9.51848049 68.6950719,9.33059548 68.6950719,9.07700205 C68.6950719,8.82443532 68.7977413,8.27720739 68.9117043,7.85010267 L69.0544148,7.32854209 L69.0164271,7.30390144 C68.1057495,8.69199179 67.4661191,9.51848049 66.4661191,9.51848049 C66.0164271,9.51848049 65.6078029,9.21149897 65.6078029,8.45174538 C65.6078029,8.19712526 65.6478439,7.90451745 65.7361396,7.55749487 L66.2997947,5.31314168 C66.386037,4.9661191 66.4661191,4.67351129 66.4661191,4.55338809 C66.4661191,4.39425051 66.4281314,4.32546201 66.3377823,4.32546201 C66.2094456,4.32546201 65.7864476,4.59342916 65.4558522,4.99281314 C65.275154,4.99281314 65.1991786,4.88603696 65.161191,4.76488706 C65.74846,3.97638604 66.4804928,3.52361396 67.0965092,3.52361396 C67.4794661,3.52361396 67.5574949,3.71149897 67.5574949,3.9650924 C67.5574949,4.21765914 67.3911704,4.76488706 67.2864476,5.19199179 L66.7351129,7.36755647 C66.6468172,7.72895277 66.6211499,8.00718686 66.6211499,8.22073922 C66.6211499,8.58316222 66.7731006,8.71457906 67.0061602,8.71457906 C67.6478439,8.71457906 68.2731006,7.76591376 69.2238193,6.08316222 L69.5924025,4.61498973 C69.7207392,4.10780287 69.6971253,3.52053388 70.1817248,3.52053388 C70.5924025,3.52053388 70.7207392,3.6550308 70.7207392,3.88295688 C70.7186858,4.04312115 70.5985626,4.44558522 70.5523614,4.68480493 Z M73.3059548,7.72792608 C73.2320329,8.0687885 73.1652977,8.36755647 73.1652977,8.48767967 C73.1652977,8.64681725 73.201232,8.71560575 73.2936345,8.71560575 C73.4219713,8.71560575 73.7926078,8.4476386 74.1262834,8.04825462 C74.3069815,8.04825462 74.3829569,8.1550308 74.4209446,8.2761807 C73.8316222,9.06468172 73.2556468,9.5174538 72.6406571,9.5174538 C72.2577002,9.5174538 72.1149897,9.32956879 72.1149897,9.07597536 C72.1149897,8.82340862 72.2433265,8.2761807 72.3336756,7.84907598 L72.9353183,5.09958932 C73.0174538,4.724846 73.0492813,4.53901437 73.0492813,4.41786448 C73.0492813,4.28439425 72.973306,4.16529774 72.8182752,4.15092402 L72.3069815,4.11088296 C72.2289528,3.99075975 72.2063655,3.84394251 72.2926078,3.73819302 C72.8942505,3.65811088 73.4712526,3.56365503 73.8829569,3.56365503 C74.0513347,3.56365503 74.1457906,3.66427105 74.1457906,3.8449692 C74.1457906,4.07494867 74.0010267,4.58829569 73.8870637,5.10882957 L73.3059548,7.72792608 Z M73.9332649,1.13347023 C74.2679671,1.13347023 74.5492813,1.42813142 74.5492813,1.775154 C74.5492813,2.12217659 74.2689938,2.41478439 73.9332649,2.41478439 C73.600616,2.41478439 73.3172485,2.12217659 73.3172485,1.775154 C73.3172485,1.42813142 73.600616,1.13347023 73.9332649,1.13347023 Z M87.0944559,3.63039014 C87.1201232,3.75051335 87.1047228,3.99281314 87.0441478,4.0174538 L86.6735113,4.05749487 C86.2279261,4.10574949 86.1498973,4.137577 86.0574949,4.64373717 L85.4917864,7.72792608 C85.4271047,8.07494867 85.3511294,8.36755647 85.3511294,8.48767967 C85.3511294,8.64681725 85.389117,8.71560575 85.4794661,8.71560575 C85.6078029,8.71560575 85.9784394,8.4476386 86.312115,8.04825462 C86.4928131,8.04825462 86.5687885,8.1550308 86.6067762,8.2761807 C86.0174538,9.06468172 85.4414784,9.5174538 84.8264887,9.5174538 C84.4414784,9.5174538 84.3531828,9.32956879 84.3531828,9.07597536 C84.3531828,8.82340862 84.4938398,8.28850103 84.5698152,7.84907598 L85.1324435,4.81827515 C85.1581109,4.65811088 85.1848049,4.53798768 85.1848049,4.44455852 C85.1848049,4.24537988 85.0800821,4.17761807 84.7854209,4.17761807 L84.1078029,4.17761807 C83.6581109,4.17761807 83.5297741,4.57802875 83.2494867,5.83059548 C83.0030801,6.92505133 82.698152,8.0338809 82.4414784,8.55338809 C82.161191,9.18069815 81.7351129,9.5164271 81.2505133,9.5164271 C80.8911704,9.5164271 80.5852156,9.23613963 80.5852156,8.91478439 C80.5852156,8.88911704 80.5852156,8.84907598 80.5995893,8.82032854 C80.6498973,8.55338809 80.8305955,8.33983573 81.0728953,8.33983573 C81.2659138,8.33983573 81.3798768,8.5 81.3798768,8.68685832 C81.3798768,8.70020534 81.3798768,8.72689938 81.3675565,8.74024641 C81.3531828,8.91478439 81.3911704,9.04928131 81.4938398,9.04928131 C81.6098563,9.04928131 81.7505133,8.91478439 81.9045175,8.58213552 C82.1355236,8.12833676 82.4034908,7.32648871 82.7125257,5.92505133 C82.8788501,5.16529774 82.9671458,4.70944559 82.9671458,4.42915811 C82.9671458,4.0687885 82.7125257,4.0687885 82.3131417,4.0174538 C82.2371663,3.96406571 82.224846,3.69609856 82.2895277,3.63039014 C82.7628337,3.64373717 83.0318275,3.6550308 83.5184805,3.6550308 L85.838809,3.6550308 C86.3521561,3.6550308 87.0944559,3.63039014 87.0944559,3.63039014 Z M80.3921971,3.52053388 C80.8008214,3.52053388 80.9435318,3.69301848 80.9435318,3.93326489 C80.9435318,4.37474333 80.5585216,4.63963039 80.3162218,4.63963039 C79.9188912,4.64373717 80.0215606,4.41786448 79.7268994,4.41786448 C79.5985626,4.41786448 79.3418891,4.71149897 79.110883,5.12525667 C78.7895277,5.69917864 78.3809035,6.2587269 77.7915811,6.35215606 C78.4835729,6.35215606 78.9188912,6.63141684 79.0472279,7.28644764 C79.137577,7.7926078 79.3778234,8.93634497 79.8531828,9.00924025 L79.9435318,9.02258727 C80.0112936,9.0338809 80.0718686,9.04928131 80.0718686,9.12936345 L80.0071869,9.38193018 L79.9815195,9.40862423 L79.0975359,9.38193018 C78.5195072,9.36447639 78.2535934,8.42094456 78.150924,7.87371663 C78.0184805,7.17556468 77.8726899,6.67145791 76.9681725,6.58110883 L76.5616016,8.42094456 C76.4476386,8.92813142 76.4589322,9.51540041 75.9743326,9.51540041 C75.5677618,9.51540041 75.4250513,9.37371663 75.4250513,9.15195072 C75.4250513,9.02156057 75.5256674,8.68788501 75.587269,8.42094456 L76.3449692,5.09753593 C76.4353183,4.7238193 76.4589322,4.53798768 76.4589322,4.41683778 C76.4589322,4.28336756 76.3829569,4.16427105 76.2279261,4.14989733 L75.7145791,4.10985626 C75.6386037,3.98973306 75.6160164,3.84291581 75.7022587,3.73716632 C76.3039014,3.65708419 76.8809035,3.56262834 77.2905544,3.56262834 C77.4609856,3.56262834 77.5533881,3.66324435 77.5533881,3.84394251 C77.5533881,4.07392197 77.4065708,4.59137577 77.2946612,5.10780287 L77.0698152,6.12320329 C77.9004107,6.10472279 78.4014374,5.58932238 78.8285421,4.86858316 C79.201232,4.2412731 79.7648871,3.52053388 80.3921971,3.52053388 Z M90.886037,3.52361396 C92.4620123,3.52361396 92.6930185,4.724846 92.6930185,5.68583162 C92.6930185,7.26283368 91.8223819,8.67659138 90.7053388,9.26180698 C90.3305955,9.45893224 89.9414784,9.5164271 89.526694,9.5164271 C87.9004107,9.5164271 87.7340862,7.92607803 87.7340862,7.22073922 C87.7340862,5.61909651 88.7464066,3.52361396 90.886037,3.52361396 Z M89.8470226,9.04928131 C90.3726899,9.04928131 90.7833676,8.76899384 91.0903491,8.20841889 C91.5154004,7.43429158 91.6273101,6.30595483 91.6273101,5.77926078 C91.6273101,5.37268994 91.5616016,4.90246407 91.3963039,4.56468172 C91.2135524,4.1899384 91.036961,3.96406571 90.6519507,3.96406571 C89.1899384,3.96406571 88.7926078,5.91067762 88.7926078,7.11190965 C88.7967146,8.51540041 89.476386,9.04928131 89.8470226,9.04928131 Z M97.8685832,8.48870637 C97.8685832,8.64887064 97.9065708,8.71765914 97.9969199,8.71765914 C98.1252567,8.71765914 98.4958932,8.45071869 98.8316222,8.05030801 C99.0123203,8.05030801 99.0882957,8.15708419 99.1262834,8.27720739 C98.536961,9.06673511 97.9209446,9.52053388 97.3080082,9.52053388 C96.9229979,9.52053388 96.7823409,9.33162218 96.7823409,9.07802875 C96.7823409,8.82443532 96.8963039,8.27720739 96.9989733,7.85010267 L97.486653,5.71457906 C97.5913758,5.26283368 97.6529774,4.99589322 97.6529774,4.80800821 C97.6529774,4.39527721 97.4743326,4.32648871 97.2032854,4.32648871 C96.7422998,4.32648871 96.0359343,5.11498973 95.2299795,6.20841889 L94.7402464,8.42402464 C94.6262834,8.9312115 94.6396304,9.5174538 94.1529774,9.5174538 C93.7464066,9.5174538 93.6036961,9.37679671 93.6036961,9.15400411 C93.6036961,9.02361396 93.7063655,8.6899384 93.7659138,8.42299795 L94.4856263,5.09958932 C94.563655,4.72689938 94.6016427,4.54004107 94.6016427,4.41991786 C94.6016427,4.28542094 94.523614,4.16529774 94.3685832,4.15195072 L93.8572895,4.11190965 C93.7813142,3.99281314 93.7566735,3.8449692 93.8429158,3.73819302 C94.4466119,3.65811088 95.0482546,3.56570842 95.4568789,3.56570842 C95.6273101,3.56570842 95.7197125,3.66427105 95.7197125,3.84599589 C95.7197125,4.07494867 95.5595483,4.59240246 95.4373717,5.10882957 L95.4075975,5.23100616 L95.4219713,5.24537988 C96.600616,3.80492813 97.150924,3.52258727 97.8182752,3.52258727 C98.3172485,3.52258727 98.664271,3.78952772 98.664271,4.59137577 C98.664271,4.83059548 98.5985626,5.137577 98.4958932,5.60472279 L98.0102669,7.72689938 C97.9322382,8.07494867 97.8685832,8.36755647 97.8685832,8.48870637 Z M101.226899,7.18069815 C101.226899,8.3963039 101.62423,8.71560575 102.199179,8.71560575 C102.815195,8.71560575 103.211499,8.50205339 103.941478,7.72792608 C104.095483,7.72792608 104.172485,7.7926078 104.23614,7.94045175 C103.480493,8.95482546 102.595483,9.5164271 101.737166,9.5164271 C100.49384,9.5164271 100.161191,8.62217659 100.161191,7.48562628 C100.161191,5.79055441 101.147844,3.52258727 103.339836,3.52258727 C104.376797,3.52258727 104.606776,3.98973306 104.606776,4.45585216 C104.606776,4.96303901 104.581109,6.04517454 101.238193,6.724846 C101.226899,6.83367556 101.226899,7.11498973 101.226899,7.18069815 Z M103.046201,3.93737166 C102.50924,3.93737166 101.781314,4.33162218 101.327515,6.21663244 C102.301848,6.0862423 103.711499,5.64579055 103.711499,4.44455852 C103.711499,4.05749487 103.507187,3.93737166 103.046201,3.93737166 Z M109.49076,3.7238193 C109.514374,3.6036961 109.514374,3.49691992 109.514374,3.39117043 C109.514374,1.90965092 108.592402,1.70841889 107.517454,1.32135524 C106.915811,1.10472279 106.747433,0.625256674 106.747433,0.198151951 C106.747433,0.0800821355 106.771047,-6.21724894e-15 106.799795,-6.21724894e-15 L106.812115,-6.21724894e-15 C107.646817,0.492813142 108.606776,0.361396304 109.555441,1.92197125 C110.081109,2.74948665 110.311088,3.69712526 110.323409,4.69815195 C110.323409,6.35215606 109.679671,7.8963039 108.890144,8.64887064 C108.398357,9.11293634 107.915811,9.54312115 106.967146,9.54312115 C105.839836,9.54312115 105.37885,8.54209446 105.37885,7.48767967 C105.37885,5.81930185 106.339836,4.48459959 107.276181,3.95071869 C107.865503,3.61806982 108.376797,3.4835729 108.645791,3.4835729 C108.951745,3.4835729 109.259754,3.53696099 109.49076,3.7238193 Z M108.350103,3.99075975 C107.491786,3.99075975 106.441478,5.2073922 106.427105,7.34188912 C106.427105,8.25051335 106.759754,8.98459959 107.36345,8.98459959 C108.939425,8.98459959 109.336756,5.49897331 109.336756,4.78028747 C109.336756,4.15092402 108.708419,3.99075975 108.350103,3.99075975 Z M112.719713,7.72792608 C112.643737,8.0687885 112.577002,8.36755647 112.577002,8.48767967 C112.577002,8.64681725 112.61499,8.71560575 112.705339,8.71560575 C112.833676,8.71560575 113.204312,8.4476386 113.540041,8.04825462 C113.720739,8.04825462 113.796715,8.1550308 113.834702,8.2761807 C113.24538,9.06468172 112.667351,9.5174538 112.054415,9.5174538 C111.669405,9.5174538 111.528747,9.32956879 111.528747,9.07597536 C111.528747,8.82340862 111.657084,8.2761807 111.74538,7.84907598 L112.349076,5.09958932 C112.431211,4.724846 112.463039,4.53901437 112.463039,4.41786448 C112.463039,4.28439425 112.387064,4.16529774 112.232033,4.15092402 L111.718686,4.11088296 C111.64271,3.99075975 111.620123,3.84394251 111.706366,3.73819302 C112.308008,3.65811088 112.882957,3.56365503 113.294661,3.56365503 C113.465092,3.56365503 113.557495,3.66427105 113.557495,3.8449692 C113.557495,4.07494867 113.414784,4.58829569 113.298768,5.10882957 L112.719713,7.72792608 Z M113.347023,1.13347023 C113.679671,1.13347023 113.963039,1.42813142 113.963039,1.775154 C113.963039,2.12217659 113.680698,2.41478439 113.347023,2.41478439 C113.01232,2.41478439 112.731006,2.12217659 112.731006,1.775154 C112.731006,1.42813142 113.014374,1.13347023 113.347023,1.13347023 Z M117.76694,6.78028747 L117.38193,6.78028747 C116.870637,6.78028747 116.473306,7.45995893 116.026694,8.26078029 C115.732033,8.80800821 115.218686,9.36755647 114.806982,9.38295688 L114.051335,9.40862423 C113.998973,9.32854209 113.986653,9.11498973 114.051335,9.02156057 L114.217659,9.00718686 C114.602669,8.98151951 115.204312,8.07392197 115.513347,7.56673511 C115.834702,7.01950719 116.167351,6.73921971 116.537988,6.65913758 C116.026694,6.60472279 115.271047,6.17761807 115.271047,5.41786448 C115.271047,4.37474333 116.215606,3.64271047 117.396304,3.64271047 L118.908624,3.65605749 L119.985626,3.63141684 L120,3.65605749 L120,3.97741273 C120,4.00205339 119.974333,4.0174538 119.935318,4.0174538 L119.613963,4.0174538 C119.304928,4.0174538 119.281314,4.137577 119.214579,4.41786448 L118.460986,7.72895277 C118.382957,8.07700205 118.318275,8.37063655 118.318275,8.48870637 C118.318275,8.64887064 118.356263,8.71765914 118.446612,8.71765914 C118.574949,8.71765914 118.945585,8.45071869 119.281314,8.05030801 C119.459959,8.05030801 119.537988,8.15708419 119.575975,8.27720739 C118.986653,9.06673511 118.408624,9.52053388 117.793634,9.52053388 C117.410678,9.52053388 117.320329,9.33162218 117.320329,9.07802875 C117.320329,8.82443532 117.448665,8.29055441 117.539014,7.85010267 L117.76694,6.78028747 Z M118.331622,4.07084189 C118.165298,4.03080082 117.9846,4.00513347 117.818275,4.00513347 C116.755647,4.00513347 116.13963,4.63244353 116.13963,5.23203285 C116.13963,5.80800821 116.408624,6.31519507 117.01232,6.31519507 L117.832649,6.31519507 L118.331622,4.07084189 Z" id="rue-tagline" fill="#000000" fill-rule="nonzero"></path>
    </g>
</svg>