<svg version="1.1" id="Layer_1" xmlns="http://www.w3.org/2000/svg" x="0" y="0" viewBox="0 0 682.3 682.3" style="enable-background:new 0 0 682.3 682.3" xml:space="preserve"><style>.st0{fill:#0154d5}.st3{fill:#e9e7c4}.st4{fill:#f7b821}</style><g id="PAP"><path class="st0" d="M91.6 74S0 74 0 165.3v351.8s0 91.3 91.6 91.3h499.2s91.5 0 91.5-91.3V165.3s0-91.3-91.5-91.3H91.6z"/><path d="M580.8 336.6c-2.8-47.2-10.3-97.6-42.5-132.3-10.1-10.8-22.2-19.7-35.7-25.9-16.2-7.5-34.6-11.1-52-7.3-14.9 3.3-28.2 11.8-39.7 21.8-23.9 20.6-41.3 47.9-54 76.8-21.6 48.9-30.5 103.4-25.5 156.7l12.4 48.6c5 17.1 18.1 35.6 35.8 44.8 17.7 9.2 38.2 11.5 58.1 11.7 34.6.4 71.2-5.9 97.6-28.3 11.5-9.7 20.6-22.2 27.5-35.6 20.2-39.7 20.7-86.4 18-131zm-86.2 55.8c-6.9 13.4-17.2 25.6-31.1 31.2-12.4 5-28.1 3.5-37.1-6.4-3.3-3.6-5.5-8.1-7.4-12.7-12.7-31.5-8.4-69.4 11-97.3 6.2-8.9 14.1-17 24.2-21 8.2-3.3 18.1-3.3 25.8.8 10.1 1.2 16.6 11.6 20.1 21.2 9.7 27.3 7.7 58.5-5.5 84.2z" style="fill:#dc0c18"/><path d="M586 335.2c-2-33.1-6-67.1-19.5-97.8-6.9-15.5-16.2-29.7-28.3-41.7-13-12.8-29.3-22.8-46.7-28.1-9-2.7-18.6-4.3-28-3.9-9.7.3-19.1 2.7-27.9 6.6-16.3 7.2-30.4 19.5-42.3 32.7-24.5 27-41.3 60.6-52.4 95.1C329 335 323.8 374 325.5 412.7c.2 4.8.5 9.6 1 14.4.1.7.2 1.3.4 2l2.4 9.6c2.4 9.5 4.9 19.1 7.3 28.6 2.1 8.3 4.1 16.4 8.2 24.1 8.1 15.3 20.2 28.1 36 35.6 16.9 8 35.9 10.2 54.4 10.5 17.1.3 34.5-.9 51.2-4.7 16.5-3.7 32.6-10.2 46.3-20.3 14.7-10.9 26.3-25.4 34.5-41.6C584 437.1 587.7 399 587 361.7c-.1-8.8-.5-17.7-1-26.5-.2-2.9-3.1-5.1-5.9-4.3-3.1.9-4.6 4.2-4.4 7.2 1.1 18.1 1.6 34.8.6 52.9-.5 8.8-1.4 17.6-2.8 26.3-.3 2.1-.7 4.1-1.1 6.2-.2 1-.4 2-.6 3.1-.1.6-.3 1.2-.4 1.8.2-1-.2.7-.2.9-1 4.2-2.1 8.5-3.4 12.6-5.1 16.3-12.7 32-23.2 44.6-2.7 3.3-5.7 6.4-8.8 9.3-3.2 3-5.8 5.1-8.9 7.3-3.3 2.3-6.7 4.5-10.2 6.4-1.8 1-3.5 1.9-5.3 2.7-.9.4-1.7.8-2.6 1.2-.4.2-.9.4-1.3.6.6-.3-.9.4-1.1.5-15.1 6.2-31.3 9.3-47 10.5-16.8 1.3-34.8 1.3-51.1-1.8-8.8-1.7-17.5-4.3-25.5-8.4-.4-.2-.8-.4-1.1-.6.8.4-.8-.5-.8-.4l-2.4-1.5c-1.7-1.1-3.4-2.3-5-3.6-1.5-1.1-2.9-2.4-4.3-3.6-1.7-1.6-2.4-2.3-3.8-3.8-2.6-2.9-5.1-6-7.3-9.3-1-1.5-2-3.1-2.9-4.7 0 0-.9-1.6-.4-.7-.2-.3-.3-.6-.5-1-.5-1-1-1.9-1.4-2.9-.8-1.7-1.5-3.4-2.2-5.1l-.9-2.4c-.1-.4-.3-.8-.4-1.2-.1-.3-.4-2.1-.3-1 0 .7.1.4 0 .1-.1-.4-.2-.7-.3-1.1-3.9-15.4-7.8-30.7-11.7-46.1-.3-1-.3-1.9-.4-3-.4-4.6-.7-9.2-.9-13.8-.4-8.9-.3-17.5.1-26.8.5-9.3 1.3-18.6 2.6-27.8.6-4.6 1.4-9.1 2.2-13.6.4-2.3.8-4.5 1.3-6.8.5-2.5.9-4.2 1.3-6.1 4.1-18 9.8-35.5 17-52.5.8-2 1.7-3.9 2.6-5.9.5-1 .9-2 1.4-3 .2-.5.4-.9.6-1.4.1-.1.8-1.7.4-.8 1.9-3.9 3.9-7.8 5.9-11.7 4.1-7.6 8.5-15 13.5-22 2.4-3.5 4.9-6.9 7.5-10.2.2-.3.5-.6.8-.9-.7.8.6-.7.6-.7.6-.8 1.3-1.6 1.9-2.3 1.4-1.7 2.9-3.4 4.4-5 5.7-6.3 11.8-12.2 18.5-17.5 1.7-1.4 2.5-2 4.5-3.4 1.7-1.2 3.5-2.5 5.3-3.6 3.7-2.3 7.5-4.4 11.5-6.2.3-.1 1.5-.6 2.4-1 .9-.4 1.9-.7 2.9-1 2.1-.7 4.3-1.3 6.4-1.8 4.3-1 8.2-1.4 12.6-1.5 17.4-.3 34.7 5.9 49.1 15 14.2 9 25.7 20.6 34.8 34.7 4.2 6.6 7.3 12.5 10.5 20 3.1 7.3 5.6 14.7 7.8 22.3.3 1 .5 2 .8 3 .1.5.2.9.4 1.4-.2-.9.1.3.1.5.5 2 1 4.1 1.4 6.1.9 4 1.7 8.1 2.4 12.1 1.4 7.9 2.4 16 3.2 24 .8 7.8 1.4 15.6 1.9 23.4.2 2.9 3.1 5.1 5.9 4.3 2.4-.9 3.8-4.2 3.7-7.2z"/><path d="M490.4 389.3c-1.4 2.7-2.9 5.3-4.5 7.8-.8 1.2-1.6 2.4-2.4 3.5-.4.5-.8 1-1.2 1.6-.2.3-.5.7-.7.9.5-.7.6-.8.2-.3-.2.2-.3.4-.5.6-1.9 2.2-3.9 4.4-6 6.3-1 .9-2.1 1.7-3.1 2.6 1-1 .2-.2-.1 0-.3.2-.6.5-.9.7-.6.4-1.3.9-1.9 1.3-1.2.8-2.4 1.5-3.6 2.1-.6.3-1.3.6-1.9.9-.3.1-.6.3-.9.4 1.4-.4-.2.1-.5.2-2.5 1-5.1 1.7-7.8 2.1-.3 0-.6.1-.9.1 1.3.1.3 0-.1 0-.6.1-1.2.1-1.8.1-1.4.1-2.9.1-4.3 0-1.2-.1-2.8 0-3.9-.5 1.3.5.3 0 0 0-.3-.1-.6-.1-.9-.2-.8-.2-1.5-.4-2.2-.6-1.2-.4-2.4-.9-3.6-1.4-.3-.1-.5-.3-.8-.4-.7-.3 1.1.7.1.1-.7-.4-1.4-.8-2.1-1.3-1-.7-1.9-1.4-2.8-2.2-.2-.2-.7-.5-.8-.7l.5.5c-.2-.2-.3-.4-.5-.5-.6-.6-1.1-1.3-1.6-2-1-1.3-1.8-2.6-2.6-4 .6 1.2 0-.1-.1-.3l-.6-1.2c-.4-.8-.7-1.6-1.1-2.4-1.2-2.9-2.3-5.8-3.2-8.7-.4-1.3-.8-2.7-1.2-4-.1-.3-.2-.6-.2-1 .3 1.5 0 .1 0-.1-.2-.8-.4-1.5-.5-2.3-.6-3-1.2-6-1.5-9-.4-3-.6-6.1-.7-9.1 0-.6-.1-1.4 0-2-.2 1.5 0 .3 0-.1v-1c0-1.5 0-3 .1-4.6.1-3 .4-6.1.8-9.1.2-1.5.4-2.9.7-4.3.1-.6.2-1.3.4-2 .1-.4.2-.8.2-1.2 0-.3.1-.5.2-.8-.2.9-.2 1-.1.4 1.4-5.8 3.1-11.5 5.5-17 .6-1.4 1.2-2.7 1.8-4 .6-1.3-.6 1.3 0 0 .1-.2.2-.5.4-.7.4-.8.8-1.7 1.3-2.5 1.4-2.6 2.9-5.1 4.5-7.5.8-1.2 1.6-2.4 2.5-3.6.5-.6 1-1.3 1.4-1.9.2-.3.4-.5.6-.8.3-.4.2-.2-.3.4.2-.2.3-.4.5-.6 2-2.4 4.1-4.6 6.4-6.7.5-.5 1-.9 1.5-1.3.3-.3.6-.5.9-.8.1-.1.2-.2.3-.2.5-.4.4-.3-.2.1.6-.2 1.1-.8 1.6-1.2.7-.5 1.4-1 2.2-1.4 1.2-.7 2.4-1.4 3.7-2 .3-.2.7-.4 1.1-.5-1.3.4-.1 0 .2-.1.8-.3 1.6-.6 2.4-.8 1.5-.5 3-.8 4.5-1.1.2 0 1.6-.3.3-.1.3-.1.7-.1 1-.1.9-.1 1.8-.1 2.7-.1 1.5 0 3 .1 4.6.3 1.3.1-.7-.2.1 0 .3.1.7.1 1 .2.9.2 1.7.4 2.6.7 1.4.5 2.6 1.2 3.9 1.7.5.1.9.2 1.4.2.6.1.5.1-.3-.1.1-.1.9.2 1 .2.7.2 1.3.4 1.9.6.3.1.6.2.9.4.4.2 1.1.8 0 0 .5.3 1 .6 1.4.9.5.4 1 .7 1.5 1.1.3.2 1.6 1.1 1.7 1.5-.1-.2-.3-.3-.5-.5l.5.5c.2.2.3.4.5.5.5.5.9 1.1 1.4 1.7.9 1.2 1.7 2.4 2.4 3.6.1.2.2.4.4.6.6 1.1-.5-1.1 0 .1l.9 1.8c.6 1.3 1.1 2.5 1.6 3.8 1.1 2.9 2.1 6 2.9 9l.3 1.2c-.3-1.2-.1-.4 0-.2.2.8.4 1.6.6 2.5.4 1.7.7 3.3 1 5 .5 3.1.9 6.2 1.1 9.3.1 1.5.2 3.1.3 4.7v1.3c0 .4-.2 1.6 0 .2-.1.8 0 1.7 0 2.5-.1 6.4-.8 12.7-2 19-.2.8-.3 1.7-.5 2.5.5-1.5.1-.5 0-.1-.1.3-.2.7-.2 1-.4 1.6-.8 3.3-1.3 4.9-.9 3.1-2 6.2-3.2 9.2-.6 1.5-1.2 2.9-1.8 4.3-.2.4-1 2.5-.4.9-.7 1.1-1.2 1.8-1.6 2.6-1.3 2.5-1.8 6.3 1 8.1 2.4 1.6 5.9.7 7.3-1.9 13.1-25.6 16.1-55.5 8.4-83.2-3.3-11.7-9.1-25.5-21.5-30.1-.5-.2-1.1-.4-1.6-.5-.8-.2-2.3-.7-3-.6h.6c-.2-.1-.5-.2-.7-.4-.4-.2-.7-.3-1.1-.5-.9-.4-1.8-.7-2.7-.9-3.3-1-6.9-1.5-10.4-1.4-7.3.1-14.3 2.4-20.5 6.1-11.5 7-20.2 18.5-26.5 30.2-6.3 11.9-10.4 24.8-12.1 38.1-1.7 12.8-1.2 26.1 1.7 38.7 1.5 6.6 3.5 13.2 6.4 19.4 2.9 6.4 7 12.4 13 16.2 10.5 6.6 24.2 7.2 35.6 2.6 12.7-5.1 22.6-14.7 30-26.1 1.6-2.5 3.1-5.1 4.5-7.8 1.3-2.5 1.8-6.3-1-8.1-2.5-1.5-6-.6-7.4 2.1z"/><path d="m126.9 527 283.3 2.9-77.4-99.4h-59.1c24-43 79.2-171 52.2-219.7-21.2-38.3-54.4-49.4-90-43.7-35.5 5.7-66 28.8-90.5 55.1l.7 1 37.5 43.8 7.1-6.1s12.1-10.1 22.3-14.5c10.2-4.3 23.1-4.3 31.4 3.1 7.1 6.3 9.5 16.6 8.3 26-1.2 9.4-43.2 152.4-125.6 161.2.1.2-.2 68.7-.2 90.3" style="fill:#e679a6"/><path d="M127.6 532.3c2.5 0 5.1 0 7.6.1 6.9.1 13.8.1 20.6.2l30.4.3c12.4.1 24.8.3 37.2.4 13.6.1 27.2.3 40.8.4 13.7.1 27.4.3 41.1.4 12.8.1 25.6.3 38.4.4l32.3.3c7.8.1 15.6.2 23.4.2 3.7 0 7.4.2 11.1.1h.5c4 0 5-5.6 3-8.2l-15.6-20.1c-10.7-13.7-21.3-27.4-32-41.1-8.6-11.1-17.3-22.2-25.9-33.3-1-1.3-2-2.5-3-3.8-1.4-1.8-2.7-3.4-5.2-3.5-4.5-.2-9 0-13.5 0h-45.6l4.5 9c11.9-21.2 21.8-43.6 30.7-66.2 11.1-28 20.7-56.9 26.1-86.5 2.4-13.3 3.9-26.7 3.4-40.2-.4-11.2-2.5-22.5-7.8-32.4C322 193.6 310 180 295 171.3c-13.5-7.8-29.1-11.2-44.6-10.8-38.1.8-71.8 21.9-98.4 47.7-3.6 3.5-7 7-10.4 10.6-1.6 1.7-.9 4.9.1 6.6 2.4 3.7 5.7 7 8.6 10.3 3.4 3.9 6.7 7.8 10.1 11.8 6.8 7.9 13.6 15.9 20.4 23.8 1.4 1.6 4.3 1.9 5.9.5 6.7-5.7 13.4-11.4 20.9-16 6.1-3.8 13-6.6 20.4-6.6 3.3 0 7.1.8 9.9 2.1.8.4 1.5.9 2.3 1.3 1.4.8-.6-.6.6.4.3.2.6.4.8.7.4.4.8.7 1.2 1.1 0 0 1.2 1.3.5.5.7.8 1.3 1.7 1.8 2.6.2.3.4.6.5.9-.6-1 .2.5.3.6.4.8.7 1.7 1 2.5.5 1.6.8 2.7 1.1 5 .1 1 .2 2 .2 3s.1-1.2 0 .5c0 .5 0 1.1-.1 1.6-.1.8-.1 1.7-.3 2.5-.1.7-.7 2.6 0 .4-.2.7-.4 1.5-.6 2.2-1.4 5.3-3 10.5-4.8 15.6-5.9 17.4-13 34.4-21.3 50.8-.3.5-.6 1.1-.9 1.7-.6 1.1.5-1-.1.2-.2.3-.4.7-.5 1-.6 1.2-1.3 2.5-1.9 3.7-1.3 2.4-2.6 4.8-4 7.2-2.8 4.9-5.7 9.7-8.8 14.4-6.1 9.3-12.9 18.3-20.5 26.5-.2.2-.4.5-.6.7.8-.9-.1.1-.2.2-.4.5-.9.9-1.3 1.4-1 1-1.9 2-2.9 3-2 1.9-4 3.8-6.1 5.6-4 3.5-8.2 6.7-12.6 9.5-1.1.7-2.1 1.4-3.2 2-.6.3-1.1.7-1.7 1l.2-.1c-.4.2-.8.5-1.3.7-2.2 1.2-4.5 2.3-6.8 3.3-4.8 2.1-9.8 3.7-14.9 4.8-.2 0-.5.1-.7.1 1.3-.3.1 0-.2 0l-1.8.3c-1.3.2-2.6.4-3.9.5-2.1.2-4.1 2-4.1 4.2 0 8.2-.1 16.3-.1 24.5-.1 15.3-.1 30.5-.1 45.8v19.9c0 2.8 1.2 5.8 4.2 6.5 2.5.6 5.3-1.4 5.3-4.1 0-13.3.1-26.6.1-40 0-13.8.1-27.6.1-41.5v-8.7c-1.4 1.4-2.7 2.8-4.1 4.2 22.5-2.5 42.3-14.5 58.2-30.1 16.6-16.4 29.7-36 40.6-56.6 9.3-17.6 17.3-35.9 23.8-54.8 2-5.7 3.8-11.4 5.4-17.2.5-1.9 1-3.9 1.4-5.9 1.1-5.7.4-11.9-1.1-17.4-2.4-8.6-8.4-16.2-16.8-19.6-8.2-3.4-17.5-3.1-25.8-.3-7.4 2.5-14.2 7.2-20.5 11.8-2.9 2.1-5.6 4.4-8.3 6.7l-4.2 3.6c1.9.2 3.9.4 5.9.5-6.6-7.8-13.3-15.5-19.9-23.3-3.3-3.8-6.6-7.7-9.8-11.5-1.6-1.9-3.3-3.8-4.9-5.7-.8-.9-1.7-1.8-2.3-2.7.8 1.1-.1-.2-.2-.5.1 2.2.1 4.4.1 6.6 24.3-26 55.5-49.6 91.7-54 3.7-.4 7.4-.7 11.1-.8 1.9 0 3.8 0 5.7.1.8 0 1.6.1 2.4.1.5 0 .9.1 1.4.1.3 0 .6.1.9.1-.5-.1-.4-.1.2 0 3.5.4 7.1 1 10.5 1.9 1.8.4 3.6 1 5.3 1.5.7.2 1.5.5 2.2.8.4.2.9.3 1.3.5l.9.3c-.5-.2-.4-.2.1.1 3.3 1.4 6.5 3 9.6 4.9 1.6 1 3.2 2.1 4.8 3.2 1.3.9-.8-.6.5.4.3.2.5.4.8.6.9.7 1.8 1.4 2.7 2.2 3.1 2.6 5.9 5.4 8.6 8.4 1.3 1.4 1.9 2.2 3.4 4.1 1.4 1.8 2.7 3.6 3.9 5.5 1.2 1.8 2.3 3.6 3.4 5.4.6.9 1.1 1.9 1.6 2.9 0 .1.4.8.4.8-.4-.9-.5-1.1-.3-.5.1.2.2.4.3.5 1 2.1 1.8 4.3 2.5 6.5.4 1.1.6 2.2 1 3.3.3 1.1-.3-1.4 0-.2.1.3.1.6.2.9.2.8.3 1.5.5 2.2.5 2.6.8 5.2 1.1 7.8.3 2.9.4 5.8.5 8.7V247.1c0 1.6-.1 3.1-.2 4.7-.3 6.5-1.1 12.9-2 19.3-2.2 14.6-5.1 26.5-9.2 40.7-4.1 14.3-9 28.5-14.3 42.4-4.9 12.8-10.1 25.5-15.8 38-2.5 5.4-5 10.9-7.6 16.2-1.1 2.4-2.3 4.7-3.5 7-.3.6-.6 1.1-.9 1.7-.1.3-.3.6-.4.8-.5 1 .5-1 0 0-.6 1.1-1.1 2.1-1.7 3.2-1 1.9-2 3.7-3 5.5-2 3.6 0 9 4.5 9h59c-1.5-.8-2.9-1.6-4.4-2.4 2.6 3.3 5.1 6.6 7.7 9.8 6.2 7.9 12.4 15.9 18.5 23.8 7.4 9.5 14.9 19.1 22.3 28.6 6.4 8.3 12.9 16.5 19.3 24.8 3.1 4 6.1 8.3 9.4 12.1 0 0 .1.1.1.2 1-2.8 2-5.5 3-8.2-2.5 0-5.1 0-7.6-.1-6.9-.1-13.8-.1-20.6-.2l-30.4-.3c-12.4-.1-24.8-.2-37.2-.4-13.6-.1-27.2-.3-40.8-.4-13.7-.1-27.4-.3-41.1-.4-12.8-.1-25.6-.3-38.4-.4l-32.3-.3c-7.8-.1-15.6-.2-23.3-.2-3.7 0-7.4-.2-11.1-.1h-.5c-2.8 0-4.3 3.1-4 5.5.6 2.9 2.8 5.3 5.6 5.3z"/><path class="st3" d="M137.2 122.1c-10.9-13.3-33.1-12.2-46.2-2.6-13.1 9.5-15.9 32.2 1.1 39.5 15.4 6.7 29.4-13.5 16.8-25.1-12.2-11.3-33.6-6-45.1 3.6-15.5 13.1-19 36.3-9.9 54 1.7 3.3 6 .5 4.8-2.7-5.7-15.1-4.5-32.8 8-44.3 5.6-5.2 12.9-8.6 20.6-9.5 6-.6 17.4 0 19.9 7 3 8.4-8.5 13.3-14.7 9.7-8.4-4.8-7.2-15.6-1.9-22.2 9.1-11.4 32.5-14.8 42.6-3.2 2.6 3 6.2-1.5 4-4.2z"/><path class="st4" d="M665.2 521.1c-10.9-13.3-33.1-12.2-46.2-2.6-13.1 9.5-15.9 32.2 1.1 39.5 15.4 6.7 29.4-13.5 16.8-25.1-12.2-11.3-33.6-6-45.1 3.6-15.5 13-19 36.3-9.9 54 1.7 3.3 6 .5 4.8-2.7-5.7-15.1-4.5-32.8 8-44.3 5.6-5.2 13-8.6 20.6-9.5 6-.6 17.4 0 19.9 7 3 8.4-8.5 13.3-14.7 9.7-8.4-4.8-7.2-15.6-2-22.2 9-11.4 32.5-14.8 42.6-3.2 2.7 3 6.4-1.5 4.1-4.2zM340 154.1c8.6 14.7 31.5 16.7 45.5 9.2 14.2-7.6 20-28.9 4.7-38.9-14.4-9.4-31.6 9-20.2 22.4 10.9 12.8 32.3 10.7 45.2 2.8C432 139.3 439.1 117 433 98.5c-1.1-3.3-6.2-2.6-5.4 1.1 3.1 15.1 0 31.6-12.8 41.5-6.1 4.7-13.7 7.4-21.4 7.6-6.4.2-16.3-1.4-19.9-7.6-2.3-4-.2-8.2 3.3-10.6 3.7-2.4 8.1-2.1 11.5.5 7.7 5.9 5 16.5-1.1 22.3-10.5 9.8-34.4 10.2-42.6-2.9-2.4-3.7-6.6.2-4.6 3.7z"/><path class="st3" d="M95.3 403.4c12.7 3.2 26.7-8.2 30.5-19.9 3.7-11.3-3.8-25.8-17.2-22.6-10.8 2.6-14.3 19.9-2.3 23.4 12.8 3.8 25.6-10.4 29.2-21.2 4.5-13.6-1.1-30.2-14.3-36.8-3.3-1.6-5.3 3.3-2.7 5.2 8.1 5.9 13.8 14.5 11.9 24.9-1.7 9.4-10.3 20.7-20.6 21.2-7.7.4-4.7-8.5.6-9.9 6.3-1.7 10.6 3.7 10 9.6-1 10.2-14.2 21.5-24.5 19.4-4-.6-4.1 5.8-.6 6.7z"/><path transform="rotate(-81.013 271.985 328.008)" class="st3" d="M267 314.9h10v26.3h-10z"/><path transform="rotate(-81.013 182.584 218.654)" class="st0" d="M177.6 207.4h10V230h-10z"/><path transform="rotate(-51.75 379.714 429.013)" class="st3" d="M374.7 415.9h10v26.3h-10z"/><path class="st0" d="m229.6 424.6-5.4-3.3-2.4-4.6-3.7-3.1-2.4-4.8-2.5-3.3 7.8-6.1 3.3 4.1 1.8 3.8 3.6 3 2.1 3.9 3 1.8z"/><path class="st3" d="m161.4 503.2-2.3-4.7-3-6.3 2.3-7.2 1.2-1.7-4-3.9 3.3-7.7 9.2 4-.6 1.3 5.3 5.2-5.4 7.4-.6 1.9 1.3 2.7 2.3 4.5z"/><path d="m71 255 2.4 4.5-1.9 4.6-1.3 4.5-.8 4.6-.2 4.5 4.9 4.5"/><path class="st4" d="m67.9 284.9-4.7-7.3 4.7-6.9.7-1.8-1.8-3.2-.9-6.5 1.6-5.6 9.6 2.8-1 3.5.3 2.6 3.3 5.8-3 7.3-1.5 2.2 1.1 1.7z"/><path class="st3" d="m624 174.3-4.3-7.3 2.7-3.9-2.9-3.4 1-7.6 2.2-4.3v-3.3h10v5.7l-2.5 4.9-.2 1.4 5.1 5.8-3.5 5.1 1.1 1.8z"/><path class="st4" d="m549.5 325-3-4-6.5-6.9-4.6-2.8-4.2-4 6.9-7.2 3.4 3.2 4.8 3 8 8.4 3.2 4.2z"/><path class="st0" d="m276.3 270.3-1.8-9.8 4.8-.9 2.6-.4 2.1-3 4.9-3.5 3.9-2.2 4.8 8.8-3.6 2-2.8 2-3.7 5.2-6.7 1z"/><path d="m449.6 569.8-4.5 1.1-4.6.7-4.1 2-3.2 3.5-4 2.1"/><path class="st4" d="m429.5 584.2-.5-10 2.2-.1 2.4-4 6.3-1.6 3.1-1.1 2.5-2.4 6.9 7.2-4.2 4-5.6 1.9-2.5.6-3 5.1z"/><path transform="rotate(-62.902 428.887 483.077)" class="st3" d="M417.6 478.1h22.6v10h-22.6z"/><path class="st3" d="m489.8 249.4-4.8-8.7 3.5-2 2.3-4.2 4.9-4.5 4.4-2.4 2.6-3.4 7.9 6.2-3.9 4.9-5.1 2.9-2.9 2.5-2.8 5.3z"/><path class="st0" d="m290.4 513.6-7.7-2.3 2.8-9.6 2 .6 4.7-4.6 7.5 2.8 2.4.4 4.8-3 6.8 1.5-2.2 9.8-2.8-.7-4.4 2.8-7.2-1.1-2.4-.9z"/><path class="st3" d="m424.1 280.8-.5-3.7-2.2-2.1-4.3-3.6-3.9-5.7-.6-7 9.9-.8.4 4.3 1.6 2.4 3.7 3.1 4.9 4.7.9 7.2zM282.2 587.1l-6.3-3.5-2.9-6.8-.7-4.5-1.8-2.1-3.9-2.4 5.3-8.5 5.2 3.2 4.7 5.4.9 6.2 1.1 2.5 3.3 1.8zM43 432.1l-3.9-4.1-2.9-5.2-1.7-4.4L32 415l-2.9-3.8 7.9-6.1 3 3.9 3.4 4.5 1.9 5.1 1.9 3.4 3 3.1z"/><path class="st4" d="m633 306-2.2-4.1-2.4-3.5-3.7-3.9-2.3-4.5-2.9-3.4 7.7-6.4 3.5 4.2 2.3 4.2 3.2 3.4 3.3 4.9 2.3 4.3z"/><path d="m386.3 332.2 1.4 5.5-2.6 4.2v5l-3.9 3.7-2.1 4.3 2.4 5.8"/><path class="st4" d="m386.6 360.8-10-.1v-5.9l1.9-4.8.9-5.2 2.2-3.7-.1-4 .6-5.2 9.9 1.1-.5 4.5.2 6.2-2.8 4.6-.6 4.4-1.7 4.1z"/><path class="st3" d="m250 219.5-1.7-5.7.6-3.6-3.5-2-2.7-7 .1-3.9-2.2-1.8 6.3-7.8 6.1 4.9-.3 6.9.8 1.8 6.5 3.8-1.5 8.1 1.1 3.5zM534.8 423.9l-3.1-4.3-2.1-4.4-3.1-4.5-1.2-6-.5-3.4-2.4-2.5 7.1-6.9 4.6 4.7 1.1 6.4.7 3.7 2.4 3.5 2 4.2 2.6 3.5z"/><path d="m509 101 4.8 3 1.1 4.7-.6 5.6 3.9 3.4 2.9 4 .1 5.2"/><path class="st4" d="m525.7 127.3-10-.3.1-3-4.4-3.8 1-4.5-5.6-1.8v-9.1l.4-5.7 9.9.8-.3 5.2v1.6l7.3 2.4-1.6 7.4 3.5 3zM491.9 494.9l-7.6-6.5 4.1-4.8 6.3-4.3 5.7.3 2.2-2 3.5-4 7.5 6.6-4 4.5-5.6 5.1-6.5-.3-2.4 1.6zM451.6 212.4l-8.4-5.5 3.9-5.9 5.4-1.3 4.2-3.3 5.8.2 3-1.3 4.1 9.2-5.2 2.2-4.5-.1-3 2.3-3.6.9z"/><path class="st3" d="m239.9 482.8-1-10 3.7-.4 3.4-2 8.5-2.8 3.3-2.1 5.3 8.5-4.3 2.7-8.6 2.9-4.4 2.5zM635.8 440.7l-7.5-1.2 1.5-9.9 3.4.6 1.3-1 3.5-5.4 6.4-1 3.9-1.3 3.3 9.4-4.7 1.6-2.9.5-2.1 3.2z"/><g><path d="m72.2 537.5-2.9 3.7-4.5 2.8.9 5.4-1.6 4.2-2.4 3.8"/><path class="st4" d="m65.8 557.7-9.9-1.4.7-5.3 2.2-5.2 2.3-3.4 1.5-5.8 7.2-3.6 4.4 8.9-3 1.6-.8 3-2.7 4.1-1.4 3.1z"/></g><path class="st3" d="m272.2 121.5-9.7-2.1 1-4.9 2.6-8.8 1.6-5 3.1-4.3 8.2 5.7-2.2 3.1-1.1 3.6-2.6 8.4z"/></g></svg>