<svg xmlns="http://www.w3.org/2000/svg" width="120" height="13"><path fill="#000" fill-rule="nonzero" d="M4.77 9.1H3.116c-.416 0-.675-.262-.675-.69V1.712c0-.386.201-.538.79-.58l.374-.027c.072 0 .115-.042.115-.11V.731L3.692.704c-.675.014-1.264.028-1.839.028C1.293.732.703.718.03.704L0 .732v.262c0 .07.057.11.115.11l.388.028c.546.042.776.166.776.58v6.933c0 .483-.158.552-.733.594l-.431.027c-.058 0-.115.042-.115.11v.263l.029.028c.675-.014 1.264-.028 1.824-.028h3.074c.388 0 1.71.028 1.71.028.057-.774.215-1.588.373-2.306l-.43-.07c-.288.995-.719 1.81-1.81 1.81M9.484 0c-.446 0-.762.29-.762.677 0 .428.374.566.632.607.273.028.518.11.518.428 0 .29-.518.926-1.265 1.105 0 .138.03.235.13.332.862-.152 1.695-.815 1.695-1.782C10.433.54 10.059 0 9.485 0m3.663 5.676c.258-1.56 1.321-1.63 1.652-1.63.517 0 1.192.276 1.192 1.436 0 .125-.057.194-.2.194h-2.644m3.792 2.651c-.502.525-1.005.774-1.795.774-.805 0-2.04-.829-2.04-2.887h3.778c.158 0 .258-.083.258-.234 0-1.16-.445-2.403-2.341-2.403-1.365 0-2.845 1.215-2.845 3.314 0 1.588.877 2.886 2.845 2.886 1.034 0 1.882-.51 2.428-1.229-.043-.138-.13-.207-.288-.22m3.385-4.751c0-.028-.03-.042-.058-.042-.402.152-.977.276-1.982.428l.028.332.618.055c.201.028.316.166.316.856v3.439c0 .4-.143.552-.618.594l-.272.027c-.072.014-.115.042-.115.11v.263l.028.028c.575-.014.934-.028 1.494-.028.59 0 .891.014 1.466.028l.028-.028v-.262c0-.07-.043-.097-.115-.11l-.2-.028c-.475-.07-.618-.194-.618-.594V5.303c.732-.829 1.278-1.063 1.91-1.063.762 0 .934.455.934 1.422v2.983c0 .4-.158.525-.618.594l-.2.027c-.073.014-.116.042-.116.11v.263l.029.028c.575-.014.862-.028 1.422-.028.59 0 .963.014 1.537.028l.029-.028v-.262c0-.07-.057-.097-.13-.11l-.272-.028c-.446-.042-.604-.194-.604-.594V5.759c0-1.23-.287-2.182-1.58-2.182-.732 0-1.422.193-2.341 1.229h-.043l.043-1.23m11.151 4.807c-.057-.125-.172-.18-.301-.194-.446.622-1.106.98-1.724.98-1.106 0-1.91-1.09-1.91-2.706 0-1.52.732-2.417 1.68-2.417.848 0 .963.594 1.02 1.05.043.345.215.483.517.483.302 0 .675-.193.675-.594 0-.732-.761-1.408-2.14-1.408-1.552 0-2.974 1.229-2.974 3.19 0 1.781 1.006 3.01 2.816 3.01.862 0 1.623-.262 2.341-1.394m3.533-4.406V3.73l-.029-.042c-.531.014-1.048.028-1.565.028-.489 0-.92-.014-1.207-.028l-.029.028v.276c0 .055.058.083.144.097.474.041.646.152.876.676l1.81 4.047c.115.276.244.649.244.787a.907.907 0 0 1-.115.428c-.359.842-.89 2.057-1.106 2.057-.143 0-.244-.096-.388-.234-.086-.11-.23-.194-.445-.194-.23 0-.546.125-.546.539 0 .497.56.649.833.649 1.02 0 1.566-1.188 1.997-2.182 1.15-2.665 1.782-4.088 2.543-5.634.201-.4.488-.898 1.02-.94.1-.013.158-.04.158-.11v-.262l-.043-.028c-.36.014-.59.028-.991.028-.503 0-.82-.014-1.35-.028l-.03.042v.262c0 .07.072.097.144.097.445.041.876.124.56.676L35.9 8.272l-1.58-3.563c-.216-.47-.015-.58.531-.621.072 0 .158-.042.158-.11m10.255 4.405c-.057-.125-.172-.18-.302-.194-.445.622-1.106.98-1.724.98-1.106 0-1.91-1.09-1.91-2.706 0-1.52.732-2.417 1.68-2.417.848 0 .963.594 1.02 1.05.044.345.216.483.518.483.301 0 .675-.193.675-.594 0-.732-.761-1.408-2.14-1.408-1.552 0-2.974 1.229-2.974 3.19 0 1.781 1.005 3.01 2.815 3.01.862 0 1.624-.262 2.342-1.394m1.952.262c0 .4-.143.552-.617.594l-.345.027c-.072 0-.1.042-.1.11v.263l.014.028c.718-.014 1.005-.028 1.566-.028.589 0 .876.014 1.594.028l.029-.028v-.262c0-.07-.058-.11-.115-.11l-.345-.028c-.474-.042-.603-.194-.603-.594V1.588c0-.898.043-1.45.043-1.45 0-.097-.057-.138-.187-.138-.359.138-1.35.318-1.94.36l.03.33c0 .042.043.07.086.07l.46.027c.287 0 .43.18.43 1.077v6.78m3.213-1.836c0 1.409 1.02 2.97 2.945 2.97 2.04 0 2.973-1.713 2.973-3.094 0-1.436-.818-3.107-2.945-3.107-1.91 0-2.973 1.34-2.973 3.231m2.815-2.776c1.178 0 1.882 1.064 1.882 3.094 0 1.823-.862 2.196-1.508 2.196-1.422 0-1.968-1.768-1.968-2.831 0-1.202.445-2.459 1.594-2.459m6.18 1.312c.317-.732 1.006-1.132 1.495-1.132.876 0 1.623.994 1.623 2.555 0 1.132-.388 2.54-1.925 2.54-.23 0-.69-.027-1.192-.593v-3.37m-1.078-.138v6.657c0 .386-.158.538-.617.58l-.273.027c-.072.014-.115.042-.115.11v.263l.029.028c.531-.014.976-.028 1.494-.028.546 0 1.005.014 1.537.028l.028-.028v-.262c0-.07-.057-.097-.129-.11l-.273-.028c-.445-.042-.603-.194-.603-.58v-2.39c.373.194.761.304 1.278.304.762 0 1.451-.234 2.012-.773.646-.635 1.005-1.491 1.005-2.61 0-1.464-1.02-2.817-2.413-2.817-.46 0-1.221.138-1.882 1.105h-.043l.043-1.105c0-.028-.029-.042-.058-.042-.416.152-.962.276-1.982.428l.029.332.617.055c.202.028.316.166.316.856M68.532.373 67.44 2.016c-.115.18-.158.235-.158.387 0 .097.1.18.201.18.1 0 .216-.056.431-.263L69.566.815l-.043-.152a1.196 1.196 0 0 0-.79-.318.78.78 0 0 0-.201.028m-2.198 5.303c.258-1.56 1.322-1.63 1.652-1.63.517 0 1.192.276 1.192 1.436 0 .125-.057.194-.2.194h-2.644m3.792 2.651c-.502.525-1.005.774-1.795.774-.805 0-2.04-.829-2.04-2.887h3.778c.158 0 .259-.083.259-.234 0-1.16-.446-2.403-2.342-2.403-1.365 0-2.844 1.215-2.844 3.314 0 1.588.876 2.886 2.844 2.886 1.034 0 1.882-.51 2.428-1.229-.043-.138-.13-.207-.288-.22m6.012.013c-.647.497-1.207.787-1.58.787-.776 0-1.566-.815-1.566-2.54 0-.995.186-1.547.402-1.837.445-.65 1.048-.69 1.336-.69.675 0 1.063.29 1.408.814V8.34m1.077-6.753c0-.898.043-1.45.043-1.45 0-.097-.057-.138-.187-.138-.359.138-1.35.318-1.939.36l.029.33c0 .042.043.07.086.07l.46.027c.287 0 .43.18.43 1.077v2.017c-.33-.18-.962-.304-1.25-.304-.947 0-1.58.304-2.154.828-.618.594-.963 1.409-.963 2.43 0 1.7.862 2.942 2.414 2.942.575 0 1.293-.442 1.954-.953l.028.014-.028.967h.33c.316-.249.948-.428 1.839-.58l-.043-.318-.69-.069c-.302-.027-.359-.11-.359-.8v-6.45m2.798.18c0 .359.316.663.69.663.373 0 .689-.304.689-.663 0-.36-.316-.663-.69-.663-.373 0-.69.304-.69.663m1.351 1.809c0-.028-.029-.042-.057-.042-.403.152-1.006.276-2.026.428l.029.332.618.055c.2.028.316.166.316.856v3.439c0 .4-.13.538-.618.594l-.273.027c-.072.014-.115.042-.115.11v.263l.029.028c.574-.014.977-.028 1.494-.028.546 0 .962.014 1.537.028l.029-.028v-.262c0-.07-.058-.097-.13-.11l-.273-.028c-.445-.042-.603-.194-.603-.594V5.206c0-.69.043-1.63.043-1.63m3.267 2.1c.259-1.56 1.322-1.63 1.652-1.63.518 0 1.193.276 1.193 1.436 0 .125-.058.194-.201.194H84.63m3.793 2.651c-.503.525-1.006.774-1.796.774-.804 0-2.04-.829-2.04-2.887h3.778c.158 0 .259-.083.259-.234 0-1.16-.445-2.403-2.342-2.403-1.364 0-2.844 1.215-2.844 3.314 0 1.588.876 2.886 2.844 2.886 1.035 0 1.882-.51 2.428-1.229-.043-.138-.13-.207-.287-.22m6.284.317c0 .4-.144.552-.618.594l-.345.027c-.072 0-.1.042-.1.11v.263l.014.028c.718-.014 1.006-.028 1.566-.028.589 0 .876.014 1.595.028l.028-.028v-.262c0-.07-.057-.11-.115-.11l-.344-.028c-.474-.042-.604-.194-.604-.594V1.588c0-.898.043-1.45.043-1.45 0-.097-.057-.138-.186-.138-.36.138-1.35.318-1.94.36l.029.33c0 .042.043.07.086.07l.46.027c.287 0 .43.18.43 1.077v6.78m3.931-6.876c0 .359.317.663.69.663.374 0 .69-.304.69-.663 0-.36-.316-.663-.69-.663-.373 0-.69.304-.69.663m1.35 1.809c0-.028-.028-.042-.057-.042-.402.152-1.005.276-2.025.428l.029.332.617.055c.201.028.316.166.316.856v3.439c0 .4-.129.538-.617.594l-.273.027c-.072.014-.115.042-.115.11v.263l.028.028c.575-.014.977-.028 1.494-.028.546 0 .963.014 1.538.028l.028-.028v-.262c0-.07-.057-.097-.129-.11l-.273-.028c-.445-.042-.603-.194-.603-.594V5.206c0-.69.043-1.63.043-1.63m3.784 5.083V4.764c.56-.552 1.307-.58 1.465-.58.877 0 1.58 1.022 1.58 2.362 0 1.574-.646 2.762-2.01 2.762-.446 0-.748-.304-1.035-.65m-1.077-6.794V8.66c0 .538-.015.773-.072 1.077.086.055.158.069.302.069.143-.124.344-.36.474-.539.416.346.876.511 1.494.511 1.465 0 3.146-1.284 3.146-3.48 0-1.685-1.264-2.72-2.514-2.72-.69 0-1.264.248-1.753.76V1.587c0-.897.043-1.45.043-1.45 0-.097-.057-.138-.187-.138-.359.138-1.364.318-1.939.36l.029.33c0 .042.043.07.086.07l.46.027c.287 0 .43.18.43 1.077m7.588 6.78c0 .401-.143.553-.617.595l-.273.027c-.072.014-.1.042-.1.11v.263l.013.028c.532-.014.977-.028 1.494-.028.546 0 1.164.014 1.696.028l.028-.028v-.262c0-.07-.057-.11-.129-.11l-.417-.028c-.46-.028-.617-.194-.617-.594V5.62c0-.18.072-.36.172-.484.345-.47.66-.718.819-.718.1 0 .201.042.287.124a.773.773 0 0 0 .59.249c.373 0 .617-.221.617-.58 0-.36-.216-.635-.805-.635-.675 0-1.307.704-1.68 1.243h-.043l.043-1.243c0-.028-.029-.042-.058-.042-.402.152-.977.276-1.982.428l.029.332.617.055c.201.028.316.166.316.856v3.439m5.638-2.97c.259-1.56 1.322-1.629 1.652-1.629.517 0 1.193.276 1.193 1.436 0 .125-.058.194-.202.194h-2.643m3.793 2.651c-.503.525-1.006.774-1.796.774-.804 0-2.04-.829-2.04-2.887h3.778c.158 0 .259-.083.259-.234 0-1.16-.446-2.403-2.342-2.403-1.365 0-2.844 1.215-2.844 3.314 0 1.588.876 2.886 2.844 2.886 1.035 0 1.882-.51 2.428-1.229-.043-.138-.13-.207-.287-.22"/></svg>