<svg xmlns="http://www.w3.org/2000/svg" width="120" height="9"><path fill="#000" fill-rule="nonzero" d="M3.463 8.224c.528 0 1.025-.133 1.492-.396.467-.264.886-.654 1.257-1.172a.363.363 0 0 0-.1-.126.24.24 0 0 0-.149-.048c-.378.449-.766.773-1.166.973-.4.199-.848.297-1.345.293-.558-.012-1.02-.19-1.385-.536a3.152 3.152 0 0 1-.815-1.317 5.197 5.197 0 0 1-.267-1.667c.002-.501.06-.945.173-1.33a2.96 2.96 0 0 1 .47-.97c.271-.353.556-.613.854-.782a1.75 1.75 0 0 1 .873-.251c.735.019 1.281.219 1.64.6.358.383.602.833.73 1.351a.33.33 0 0 0 .182.015.6.6 0 0 0 .175-.073c-.027-.3-.062-.595-.103-.887a64.594 64.594 0 0 0-.135-.913 4.452 4.452 0 0 1-.893-.283c-.338-.142-.83-.222-1.477-.24-.46.002-.882.088-1.269.258-.386.17-.739.414-1.058.73A3.694 3.694 0 0 0 .304 2.76 4.685 4.685 0 0 0 0 4.45c0 .635.127 1.239.38 1.81A3.368 3.368 0 0 0 1.532 7.66c.513.363 1.157.551 1.932.563Zm4.94-3.437a.721.721 0 0 1 .185-.489c.208-.218.426-.387.654-.505a1.46 1.46 0 0 1 .666-.18.56.56 0 0 1 .322.109.79.79 0 0 1 .252.309c.052.116.087.25.105.403.018.152.026.316.024.491v1.766c.008.457-.034.745-.124.864s-.272.183-.547.193a.36.36 0 0 0-.04.191c0 .086.013.15.04.192l.56-.016a19.698 19.698 0 0 1 1.11 0l.582.016a.36.36 0 0 0 .04-.192.36.36 0 0 0-.04-.191c-.296-.01-.492-.074-.59-.193-.098-.12-.143-.407-.136-.864V4.96a5.867 5.867 0 0 0-.051-.886 1.569 1.569 0 0 0-.24-.671.883.883 0 0 0-.376-.294 1.32 1.32 0 0 0-.523-.101 1.928 1.928 0 0 0-.84.174c-.293.126-.605.382-.935.767a.497.497 0 0 1-.067.077c-.024.022-.037-.004-.039-.077l.009-2.614a19.128 19.128 0 0 1 .043-1.22c.002-.079-.045-.118-.14-.116a4.345 4.345 0 0 1-.697.188C7.3.25 7.027.293 6.79.314a.516.516 0 0 0 0 .183c.01.071.033.126.065.165.275-.006.46.035.557.124.097.088.142.364.136.829V6.69c.007.463-.04.754-.143.872-.102.12-.307.18-.613.185-.032.042-.048.106-.048.191 0 .086.016.15.048.192l.587-.016a24.573 24.573 0 0 1 1.124 0l.547.016c.032-.042.049-.106.049-.192 0-.085-.017-.15-.05-.191-.267-.004-.443-.066-.529-.185-.086-.118-.125-.41-.117-.872V4.787Zm7.871-2.696c.073-.007.134-.054.183-.14a.52.52 0 0 0 .077-.243.26.26 0 0 0-.035-.125.134.134 0 0 0-.116-.073h-2.435c-.062.007-.117.052-.164.134a.514.514 0 0 0-.075.238c0 .044.012.09.034.135.023.046.059.07.107.074h2.424Zm-1.58 6.133c.21 0 .43-.058.658-.175a3.63 3.63 0 0 0 .738-.525.15.15 0 0 1 .085-.04c.028-.002.043.016.045.055.005.147.025.295.06.444.035.149.054.23.06.241.039.016.073.024.102.023a.346.346 0 0 0 .103-.023c.117-.106.283-.2.496-.28.214-.081.485-.143.813-.185a.238.238 0 0 0 .05-.156.238.238 0 0 0-.05-.157c-.335-.025-.554-.103-.654-.233-.1-.13-.146-.334-.136-.615v-2.23c.002-.203.01-.445.022-.729l.022-.467a.066.066 0 0 0-.023-.049.094.094 0 0 0-.064-.021c-.03.006-.079.01-.149.015a3.74 3.74 0 0 1-.23.008c-.172 0-.35-.002-.531-.008l-.573-.015c-.032.042-.048.106-.048.191 0 .086.016.15.048.192.26.006.439.072.535.196.096.124.142.372.136.745v2.242a.763.763 0 0 1-.029.256.494.494 0 0 1-.144.197c-.2.185-.386.325-.557.418a.984.984 0 0 1-.46.14c-.178.014-.363-.056-.555-.211-.191-.156-.295-.484-.31-.986V4.368c.001-.203.008-.445.02-.729l.022-.467a.066.066 0 0 0-.023-.049.094.094 0 0 0-.063-.021c-.03.006-.079.01-.149.015a3.74 3.74 0 0 1-.23.008c-.172 0-.35-.002-.532-.008l-.572-.015c-.032.042-.049.106-.049.191 0 .086.017.15.05.192.254.012.431.078.53.199.098.12.145.364.14.73v2.23c-.009.417.09.78.296 1.09.207.311.573.474 1.1.49Zm6.27-2.706c.075-.011.14-.071.2-.18a.685.685 0 0 0 .093-.285.336.336 0 0 0-.035-.16.129.129 0 0 0-.116-.072h-2.37c-.069.006-.13.06-.185.16a.692.692 0 0 0-.086.316c0 .06.015.111.044.154.03.042.069.065.118.067h2.338Zm1.699-4.368c.005.157.06.296.162.415.103.12.222.183.357.19a.555.555 0 0 0 .395-.188.572.572 0 0 0 .168-.37.673.673 0 0 0-.15-.407.483.483 0 0 0-.37-.197.573.573 0 0 0-.378.174.556.556 0 0 0-.184.383Zm.985 5.54V4.377c.001-.308.009-.6.021-.877.013-.277.02-.425.022-.444 0-.024-.013-.043-.038-.058a.203.203 0 0 0-.103-.023 3.64 3.64 0 0 1-.577.177c-.234.055-.536.108-.905.16a.88.88 0 0 0 .022.325c.287.017.478.074.572.169.095.095.138.302.13.62v2.266c.01.462-.038.751-.141.868-.104.117-.316.18-.637.189-.033.042-.05.106-.05.192 0 .085.017.15.05.191l.597-.016a25.565 25.565 0 0 1 1.215 0l.601.016c.032-.042.049-.106.049-.191 0-.086-.017-.15-.049-.192-.321-.004-.534-.066-.637-.185-.104-.118-.151-.41-.142-.872ZM27.473.443A.563.563 0 0 0 27.3.419a.833.833 0 0 0-.173.023 9.133 9.133 0 0 1-.572.839c-.219.287-.428.55-.63.787a.397.397 0 0 0 .239.197c.21-.128.407-.275.591-.438.184-.164.362-.339.534-.526.163.18.338.351.525.513.187.161.384.312.59.451a.336.336 0 0 0 .142-.076.596.596 0 0 0 .107-.121c-.2-.237-.406-.498-.618-.783a9.088 9.088 0 0 1-.562-.843Zm-.497 7.782c.21 0 .428-.058.657-.175a3.63 3.63 0 0 0 .739-.525.15.15 0 0 1 .084-.04c.028-.002.043.016.045.055.005.147.025.295.06.444.035.149.055.23.06.241.039.016.073.024.102.023a.346.346 0 0 0 .103-.023c.118-.106.283-.2.497-.28.213-.081.484-.143.813-.185a.238.238 0 0 0 .048-.156.238.238 0 0 0-.048-.157c-.336-.025-.555-.103-.655-.233-.1-.13-.146-.334-.135-.615v-2.23c.001-.203.009-.445.021-.729l.022-.467a.066.066 0 0 0-.023-.049.094.094 0 0 0-.064-.021c-.029.006-.079.01-.148.015a3.74 3.74 0 0 1-.23.008c-.173 0-.35-.002-.532-.008l-.572-.015c-.033.042-.049.106-.049.191 0 .086.016.15.049.192.26.006.438.072.534.196.096.124.142.372.137.745v2.242a.763.763 0 0 1-.03.256.493.493 0 0 1-.143.197c-.201.185-.387.325-.558.418a.984.984 0 0 1-.46.14c-.178.014-.363-.056-.554-.211-.192-.156-.296-.484-.312-.986V4.368c.002-.203.01-.445.022-.729l.022-.467a.066.066 0 0 0-.023-.049.094.094 0 0 0-.064-.021c-.03.006-.079.01-.149.015a3.74 3.74 0 0 1-.23.008c-.172 0-.35-.002-.531-.008l-.573-.015c-.032.042-.048.106-.048.191 0 .086.016.15.048.192.256.012.432.078.53.199.099.12.146.364.141.73v2.23c-.008.417.09.78.297 1.09.206.311.573.474 1.1.49ZM35.714.442a.563.563 0 0 0-.174-.023.833.833 0 0 0-.173.023 9.133 9.133 0 0 1-.572.839c-.218.287-.428.55-.629.787a.397.397 0 0 0 .238.197c.21-.128.407-.275.591-.438.184-.164.363-.339.535-.526.162.18.337.351.525.513.187.161.383.312.59.451a.336.336 0 0 0 .142-.076.596.596 0 0 0 .106-.121c-.2-.237-.406-.498-.618-.783a9.088 9.088 0 0 1-.561-.843Zm-1.353 4.39c.124-.633.322-1.033.591-1.2.27-.168.48-.24.632-.217.217-.01.418.071.603.244s.283.498.295.976c0 .052-.011.092-.037.12-.025.027-.066.041-.125.042l-1.96.035Zm2.835 2.196c-.192.219-.387.379-.585.479-.2.1-.451.15-.757.148a1.11 1.11 0 0 1-.61-.196c-.208-.133-.398-.346-.57-.64a2.51 2.51 0 0 1-.254-.687 4.15 4.15 0 0 1-.092-.905l2.88.023a.213.213 0 0 0 .15-.05c.036-.034.054-.083.055-.147a2.399 2.399 0 0 0-.35-1.377c-.252-.406-.745-.621-1.48-.644-.501.003-.98.237-1.435.703-.454.465-.697 1.14-.729 2.026 0 .33.04.642.12.938.082.297.211.557.389.782.181.234.406.416.674.545.267.13.595.196.982.198.41-.004.765-.097 1.066-.279.301-.181.559-.425.774-.732a.253.253 0 0 0-.078-.132.263.263 0 0 0-.15-.053Zm5.415-5.355a.7.7 0 0 1 .178-.498c.129-.154.383-.236.763-.246a1.49 1.49 0 0 1 1.027.318c.295.232.451.707.467 1.425-.002.622-.14 1.073-.413 1.353-.273.28-.673.417-1.2.412-.145 0-.301-.005-.468-.016a2.22 2.22 0 0 1-.354-.042V1.673Zm-.92.36V6.69c.008.463-.054.756-.187.877-.133.12-.384.18-.755.18-.032.042-.049.106-.049.191 0 .086.017.15.05.192l.694-.016a34.317 34.317 0 0 1 1.516 0c.239.004.49.01.754.016.033-.042.05-.106.05-.192 0-.085-.017-.15-.05-.191-.415-.004-.704-.066-.868-.185-.164-.118-.242-.41-.235-.872V4.716c.117.04.245.07.385.089.14.018.304.028.491.027.969-.037 1.642-.308 2.021-.814.38-.506.56-1.025.544-1.555.024-.38-.13-.787-.461-1.221-.332-.434-.986-.67-1.963-.707-.158.003-.386.017-.685.04-.298.024-.564.037-.798.04-.26 0-.494-.001-.698-.007L40.75.592c-.032.042-.049.106-.049.192 0 .086.017.15.05.192.37-.001.621.059.754.18.133.12.195.413.187.877Zm5.966 2.8c.124-.634.321-1.034.59-1.201.27-.168.48-.24.633-.217.217-.01.418.071.603.244s.283.498.295.976c0 .052-.012.092-.037.12-.025.027-.067.041-.125.042l-1.96.035Zm2.835 2.195c-.192.219-.387.379-.586.479-.198.1-.45.15-.756.148a1.11 1.11 0 0 1-.61-.196c-.208-.133-.398-.346-.57-.64a2.51 2.51 0 0 1-.254-.687 4.15 4.15 0 0 1-.092-.905l2.879.023a.213.213 0 0 0 .151-.05c.036-.034.054-.083.055-.147a2.399 2.399 0 0 0-.35-1.377c-.252-.406-.745-.621-1.48-.644-.502.003-.98.237-1.435.703-.455.465-.698 1.14-.729 2.026-.001.33.04.642.12.938.082.297.211.557.389.782.181.234.406.416.673.545.268.13.596.196.983.198.409-.004.764-.097 1.066-.279.3-.181.559-.425.773-.732a.253.253 0 0 0-.077-.132.263.263 0 0 0-.15-.053Zm1.594-.337c.008.463-.037.754-.135.872-.098.12-.295.18-.59.185-.033.042-.049.106-.049.191 0 .086.016.15.049.192l.579-.016c.167-.004.36-.007.579-.007.178 0 .33.002.46.007l.525.016c.032-.042.048-.106.048-.192 0-.085-.016-.15-.048-.191-.218-.004-.367-.066-.448-.185-.081-.118-.12-.41-.115-.872V5.645a.577.577 0 0 1 .326.088c.092.06.189.17.29.33l.79 1.197c.106.164.175.292.207.383a.66.66 0 0 1 .043.244v.186c-.002.037.012.056.043.058l.333-.016a11.234 11.234 0 0 1 .862 0l.44.016c.032-.042.048-.106.048-.192 0-.085-.016-.15-.049-.191a1.876 1.876 0 0 1-.51-.114c-.157-.06-.297-.185-.42-.374l-1.267-2.01a.29.29 0 0 1-.054-.162.155.155 0 0 1 .044-.116l.822-.976c.156-.176.327-.303.513-.38.185-.078.411-.122.678-.131.032-.042.048-.106.048-.192 0-.086-.016-.15-.048-.192l-.475.016a13.831 13.831 0 0 1-.969 0l-.494-.016c-.032.043-.048.106-.048.192 0 .086.016.15.048.192.302.032.43.12.386.263a.731.731 0 0 1-.19.33c-.29.339-.558.623-.804.852-.247.229-.444.369-.593.42V1.335a17.578 17.578 0 0 1 .043-1.22c.002-.08-.045-.118-.14-.116a4.345 4.345 0 0 1-.697.187c-.31.064-.583.106-.819.127a.516.516 0 0 0 0 .183c.011.07.033.126.065.165.275-.006.461.035.558.124.096.088.141.364.135.829V6.69Zm7.223-1.173c.074-.011.14-.071.2-.18a.685.685 0 0 0 .092-.285.336.336 0 0 0-.035-.16.129.129 0 0 0-.116-.072h-2.37c-.068.006-.13.06-.184.16a.692.692 0 0 0-.087.316c0 .06.016.111.045.154.029.042.068.065.118.067h2.337Zm1.655 1.173c.008.463-.037.754-.135.872-.098.12-.295.18-.59.185-.033.042-.049.106-.049.191 0 .086.016.15.049.192l.579-.016c.167-.004.36-.007.579-.007.178 0 .33.002.46.007l.525.016c.032-.042.048-.106.048-.192 0-.085-.016-.15-.048-.191-.218-.004-.367-.066-.448-.185-.081-.118-.12-.41-.115-.872V5.645a.577.577 0 0 1 .326.088c.092.06.189.17.29.33l.79 1.197c.106.164.174.292.207.383a.66.66 0 0 1 .043.244v.186c-.002.037.012.056.043.058l.333-.016a11.234 11.234 0 0 1 .862 0l.44.016c.032-.042.048-.106.048-.192 0-.085-.016-.15-.049-.191a1.876 1.876 0 0 1-.51-.114c-.157-.06-.297-.185-.42-.374l-1.267-2.01a.29.29 0 0 1-.054-.162.155.155 0 0 1 .043-.116l.823-.976c.156-.176.327-.303.513-.38.185-.078.411-.122.677-.131.033-.042.05-.106.05-.192 0-.086-.017-.15-.05-.192l-.474.016a13.831 13.831 0 0 1-.969 0l-.494-.016c-.032.043-.048.106-.048.192 0 .086.016.15.048.192.302.032.43.12.386.263a.731.731 0 0 1-.19.33c-.29.339-.558.623-.805.852-.246.229-.444.369-.592.42V1.335a17.578 17.578 0 0 1 .043-1.22c.002-.08-.045-.118-.14-.116a4.345 4.345 0 0 1-.697.187c-.31.064-.583.106-.819.127a.516.516 0 0 0 0 .183c.011.07.033.126.065.165.275-.006.461.035.558.124.096.088.141.364.135.829V6.69Zm6.098-1.904a.721.721 0 0 1 .184-.489c.208-.218.426-.387.654-.505a1.46 1.46 0 0 1 .666-.18.56.56 0 0 1 .323.109.79.79 0 0 1 .25.309c.053.116.089.25.106.403.018.152.026.316.024.491v1.766c.008.457-.034.745-.124.864s-.272.183-.547.193a.36.36 0 0 0-.04.191c0 .086.013.15.04.192l.56-.016a19.698 19.698 0 0 1 1.11 0l.582.016a.36.36 0 0 0 .04-.192.36.36 0 0 0-.04-.191c-.296-.01-.492-.074-.59-.193-.098-.12-.143-.407-.136-.864V4.96a5.867 5.867 0 0 0-.051-.886 1.569 1.569 0 0 0-.24-.671.883.883 0 0 0-.376-.294 1.32 1.32 0 0 0-.523-.101 1.928 1.928 0 0 0-.84.174c-.293.126-.605.382-.935.767a.497.497 0 0 1-.067.077c-.024.022-.037-.004-.039-.077l.009-2.614a19.128 19.128 0 0 1 .043-1.22c.002-.079-.045-.118-.14-.116a4.345 4.345 0 0 1-.697.188c-.31.063-.583.105-.819.126a.516.516 0 0 0 0 .183c.011.071.033.126.065.165.275-.006.46.035.557.124.097.088.142.364.136.829V6.69c.007.463-.04.754-.143.872-.102.12-.307.18-.613.185-.032.042-.048.106-.048.191 0 .086.016.15.048.192l.587-.016a24.573 24.573 0 0 1 1.124 0l.547.016c.032-.042.049-.106.049-.192 0-.085-.017-.15-.05-.191-.267-.004-.443-.066-.529-.185-.086-.118-.125-.41-.117-.872V4.787Zm4.386.94c-.001.622.187 1.186.564 1.693.376.506.946.774 1.708.804.801-.036 1.385-.324 1.752-.865.367-.541.548-1.12.543-1.737a3.07 3.07 0 0 0-.508-1.76c-.348-.535-.936-.82-1.765-.853-.735.02-1.3.29-1.695.805-.395.517-.595 1.154-.6 1.913Zm2.175-2.335c.468.002.828.222 1.08.66.251.44.378 1.086.381 1.942-.017.748-.148 1.247-.394 1.498-.245.251-.504.368-.775.349-.373-.013-.673-.153-.899-.419a2.449 2.449 0 0 1-.49-.948c-.1-.365-.15-.704-.148-1.014-.005-.529.09-1 .282-1.413.192-.414.513-.632.963-.655Zm5.767 2.126c.074-.011.14-.071.2-.18a.685.685 0 0 0 .093-.285.336.336 0 0 0-.036-.16.129.129 0 0 0-.116-.072h-2.37c-.068.006-.13.06-.184.16a.692.692 0 0 0-.087.316c.001.06.016.111.045.154.03.042.068.065.118.067h2.337Zm5.032 1.533a.251.251 0 0 0-.094-.116.305.305 0 0 0-.134-.047c-.186.256-.39.447-.612.575a1.361 1.361 0 0 1-.686.192c-.406-.008-.747-.208-1.022-.6-.274-.392-.417-.932-.428-1.619.006-.644.123-1.144.349-1.501.225-.357.52-.538.884-.543.309.008.511.093.608.254.096.161.15.347.16.559.018.155.063.264.134.327a.392.392 0 0 0 .278.091.578.578 0 0 0 .35-.12c.112-.082.172-.212.18-.39-.004-.326-.15-.59-.438-.792-.288-.202-.694-.306-1.218-.312-.56.008-1.064.25-1.51.723-.447.473-.683 1.126-.708 1.96.004.76.19 1.37.56 1.828.37.457.897.692 1.583.704.323.01.631-.066.922-.23.292-.163.572-.478.842-.943Zm2.087-2.264a.721.721 0 0 1 .184-.489c.208-.218.426-.387.654-.505a1.46 1.46 0 0 1 .666-.18.56.56 0 0 1 .323.109.79.79 0 0 1 .25.309c.053.116.089.25.106.403.018.152.026.316.024.491v1.766c.008.457-.034.745-.124.864s-.272.183-.547.193a.36.36 0 0 0-.04.191c0 .086.013.15.04.192l.56-.016a19.698 19.698 0 0 1 1.11 0l.582.016a.36.36 0 0 0 .04-.192.36.36 0 0 0-.04-.191c-.296-.01-.492-.074-.59-.193-.098-.12-.143-.407-.136-.864V4.96a5.867 5.867 0 0 0-.051-.886 1.569 1.569 0 0 0-.24-.671.883.883 0 0 0-.376-.294 1.32 1.32 0 0 0-.523-.101 1.928 1.928 0 0 0-.84.174c-.293.126-.605.382-.935.767a.497.497 0 0 1-.067.077c-.024.022-.037-.004-.039-.077l.009-2.614a19.128 19.128 0 0 1 .043-1.22c.002-.079-.045-.118-.14-.116a4.345 4.345 0 0 1-.697.188c-.31.063-.583.105-.819.126a.516.516 0 0 0 0 .183c.011.071.033.126.065.165.275-.006.46.035.557.124.097.088.142.364.136.829V6.69c.007.463-.04.754-.143.872-.102.12-.307.18-.613.185-.032.042-.048.106-.048.191 0 .086.016.15.048.192l.587-.016a24.573 24.573 0 0 1 1.124 0l.547.016c.032-.042.049-.106.049-.192 0-.085-.017-.15-.05-.191-.267-.004-.443-.066-.529-.185-.086-.118-.125-.41-.117-.872V4.787Zm4.386.94c-.001.622.187 1.186.564 1.693.376.506.946.774 1.708.804.801-.036 1.385-.324 1.752-.865.367-.541.548-1.12.543-1.737a3.07 3.07 0 0 0-.508-1.76c-.348-.535-.936-.82-1.765-.853-.735.02-1.3.29-1.695.805-.395.517-.595 1.154-.6 1.913Zm2.175-2.335c.468.002.828.222 1.08.66.251.44.378 1.086.381 1.942-.017.748-.148 1.247-.394 1.498-.245.251-.504.368-.775.349-.373-.013-.673-.153-.899-.419a2.449 2.449 0 0 1-.49-.948c-.1-.365-.15-.704-.148-1.014-.005-.529.09-1 .282-1.413.192-.414.513-.632.963-.655Zm5.334-2.95a.563.563 0 0 0-.173-.023.833.833 0 0 0-.173.023 9.132 9.132 0 0 1-.572.839c-.219.287-.428.55-.63.787a.397.397 0 0 0 .239.197c.21-.128.407-.275.591-.438.184-.164.362-.339.535-.526.162.18.337.351.524.513.188.161.384.312.59.451a.336.336 0 0 0 .143-.076.594.594 0 0 0 .106-.121 16.43 16.43 0 0 1-.618-.783 9.089 9.089 0 0 1-.562-.843Zm.671 4.96v1.544a.358.358 0 0 1-.043.182.424.424 0 0 1-.108.12 3.06 3.06 0 0 1-.468.342c-.168.1-.33.152-.484.158-.27-.012-.467-.105-.593-.278a.905.905 0 0 1-.187-.547 1.29 1.29 0 0 1 .215-.75c.15-.231.421-.407.813-.528l.855-.244Zm0 2.148c.027.135.102.278.225.429.122.15.325.232.609.245.27-.018.49-.098.659-.24.169-.141.256-.235.26-.283a.237.237 0 0 0-.053-.129c-.033-.042-.062-.065-.087-.068-.027.007-.063.039-.106.093-.044.054-.12.085-.23.093-.202-.008-.327-.106-.374-.294a2.577 2.577 0 0 1-.058-.694v-1.73c-.019-.804-.193-1.337-.521-1.6a1.595 1.595 0 0 0-1.113-.363 2.145 2.145 0 0 0-1.226.41c-.355.258-.541.55-.56.879 0 .139.032.242.096.308s.158.099.283.099c.157-.007.275-.052.355-.135.08-.084.12-.167.12-.249a.881.881 0 0 0-.007-.117.33.33 0 0 0-.025-.092.416.416 0 0 1-.014-.081 1.447 1.447 0 0 1-.007-.151c.011-.178.11-.304.295-.38.184-.074.386-.11.603-.108.197-.02.39.068.576.263.187.194.287.61.3 1.247a.2.2 0 0 1-.02.096c-.013.023-.028.038-.044.043l-.931.244c-.53.143-.957.36-1.283.65-.326.292-.493.636-.503 1.035.01.453.142.777.398.971.256.194.578.288.966.283.237.004.436-.027.598-.096.161-.068.355-.199.581-.392l.217-.186h.021Zm3.767-3.6a.329.329 0 0 1-.066.078c-.026.022-.04-.004-.042-.078.002-.19.011-.38.027-.573l.027-.31c0-.06-.043-.091-.13-.093a3.5 3.5 0 0 1-.58.177 11.12 11.12 0 0 1-.913.16.854.854 0 0 0 .022.325c.285.016.475.07.57.164.096.093.14.302.133.626V6.69c.01.457-.036.745-.135.864-.1.118-.307.183-.622.193-.033.042-.049.106-.049.191 0 .086.016.15.049.192l.587-.016a24.792 24.792 0 0 1 1.127 0l.548.016c.032-.042.048-.106.048-.192 0-.085-.016-.15-.048-.191-.269-.01-.446-.075-.532-.193-.086-.12-.125-.407-.118-.864V4.786a.705.705 0 0 1 .184-.488c.206-.217.414-.385.624-.504.21-.12.42-.18.632-.181.11 0 .217.037.319.109a.81.81 0 0 1 .254.309c.053.117.088.251.106.403.017.152.025.316.024.491v1.766c.007.457-.034.745-.124.864-.09.118-.273.183-.547.193a.36.36 0 0 0-.04.191c0 .086.013.15.04.192l.56-.016a19.698 19.698 0 0 1 1.11 0l.581.016a.36.36 0 0 0 .04-.192.36.36 0 0 0-.04-.191c-.295-.01-.492-.075-.59-.193-.098-.12-.143-.407-.135-.864V4.96a5.824 5.824 0 0 0-.053-.883 1.623 1.623 0 0 0-.24-.673.894.894 0 0 0-.375-.294 1.316 1.316 0 0 0-.522-.101c-.262-.011-.531.047-.807.174-.275.126-.576.382-.903.766Zm6.734 1.568c.073-.011.14-.071.198-.18a.685.685 0 0 0 .094-.285.336.336 0 0 0-.035-.16.129.129 0 0 0-.117-.072h-2.37c-.068.006-.13.06-.184.16a.692.692 0 0 0-.086.316c0 .06.015.111.044.154.03.042.068.065.118.067h2.338Zm1.243.987c.022.285.04.563.054.832.014.27.021.526.022.77a1.815 1.815 0 0 1 .27-.034c.038 0 .074 0 .108.003.035.002.071.01.109.02.144.042.294.073.452.095.157.022.335.033.533.033.336.011.699-.089 1.087-.3s.6-.599.633-1.163c-.007-.393-.126-.713-.358-.96a2.434 2.434 0 0 0-.908-.587c-.33-.121-.59-.254-.785-.399-.193-.145-.293-.371-.297-.68.009-.239.089-.422.24-.55a.79.79 0 0 1 .517-.193c.138-.016.318.04.54.17.223.13.378.434.467.91.039.035.096.05.173.047a.267.267 0 0 0 .173-.058c.002-.21.012-.42.029-.629.016-.208.029-.41.036-.602l-.624-.132a4.104 4.104 0 0 0-.794-.089 1.682 1.682 0 0 0-1.063.372c-.295.24-.45.55-.463.93-.002.413.092.735.283.968.191.232.494.435.908.61.438.192.734.37.888.532a.8.8 0 0 1 .216.607c-.014.283-.117.49-.31.62s-.397.195-.61.193a1.263 1.263 0 0 1-.502-.091.713.713 0 0 1-.267-.188 1.375 1.375 0 0 1-.284-.525 5.6 5.6 0 0 1-.138-.543c-.038-.035-.094-.05-.167-.047a.257.257 0 0 0-.168.058Zm5.972 1.719c.21 0 .429-.058.658-.175a3.63 3.63 0 0 0 .738-.525.15.15 0 0 1 .085-.04c.028-.002.043.016.045.055.005.147.025.295.06.444.034.149.054.23.06.241.038.016.073.024.102.023a.345.345 0 0 0 .103-.023c.117-.106.283-.2.496-.28.214-.081.485-.143.813-.185a.238.238 0 0 0 .049-.156.238.238 0 0 0-.049-.157c-.336-.025-.554-.103-.654-.233-.101-.13-.146-.334-.136-.615v-2.23c.002-.203.01-.445.022-.729l.021-.467a.066.066 0 0 0-.023-.049.094.094 0 0 0-.063-.021c-.03.006-.08.01-.149.015a3.74 3.74 0 0 1-.23.008c-.172 0-.35-.002-.532-.008l-.572-.015c-.032.042-.049.106-.049.191 0 .086.017.15.05.192.26.006.437.072.534.196.096.124.141.372.136.745v2.242a.758.758 0 0 1-.03.256.493.493 0 0 1-.143.197c-.2.185-.386.325-.557.418a.984.984 0 0 1-.46.14c-.178.014-.363-.056-.555-.211-.192-.156-.295-.484-.311-.986V4.368c.002-.203.009-.445.021-.729l.022-.467a.066.066 0 0 0-.023-.049.094.094 0 0 0-.064-.021c-.029.006-.078.01-.148.015a3.74 3.74 0 0 1-.23.008c-.173 0-.35-.002-.532-.008l-.572-.015c-.033.042-.049.106-.049.191 0 .086.016.15.049.192.255.012.432.078.53.199.098.12.145.364.14.73v2.23c-.008.417.09.78.297 1.09.206.311.573.474 1.1.49Z"/></svg>