<svg xmlns="http://www.w3.org/2000/svg" viewBox="0 0 120 15"><path fill="#0B2645" d="M0 .271h3.496l2.445 10.507L8.366.271h3.515l2.425 10.507L16.752.271h3.468L16.884 14.73h-4.207L10.109 3.74 7.57 14.728H3.363L0 .271zm22.616 0h3.648V14.73h-3.648V.271zm7.239 0h3.647V5.55L38.761.27h4.235l-6.812 6.847 7.513 7.61H39.13l-5.628-5.693v5.694h-3.647V.27zm15.046 0h3.647V14.73H44.9V.271z"/><path fill="#0A4E98" d="M57.64 5.859c.575 0 1.01-.13 1.308-.388.296-.258.444-.639.445-1.142 0-.497-.148-.876-.445-1.138-.298-.261-.734-.392-1.308-.392h-2.018v3.06h2.018zm.123 6.323c.733 0 1.28-.158 1.653-.474.37-.317.554-.795.555-1.434 0-.626-.183-1.1-.55-1.409-.366-.313-.919-.47-1.658-.47h-2.141v3.787h2.141zm3.392-5.2c.783.232 1.39.662 1.82 1.288.428.626.643 1.39.643 2.305 0 1.39-.46 2.43-1.383 3.118-.922.684-2.32 1.03-4.207 1.026h-6.054V.261h5.477c1.96 0 3.39.303 4.268.91.88.607 1.32 1.58 1.322 2.915 0 .704-.161 1.3-.484 1.796-.322.494-.79.86-1.402 1.1zm10.675-4.28c-1.11 0-1.97.42-2.586 1.259-.613.839-.92 2.02-.92 3.544 0 1.52.307 2.7.92 3.534.613.84 1.47 1.26 2.586 1.26 1.12 0 1.98-.42 2.596-1.26.613-.839.92-2.02.92-3.534 0-1.52-.307-2.7-.92-3.544-.613-.84-1.48-1.26-2.596-1.26zm0-2.702c2.27 0 4.06.665 5.344 1.995 1.29 1.33 1.93 3.17 1.932 5.51 0 2.34-.644 4.17-1.932 5.5-1.29 1.33-3.07 1.99-5.344 1.995-2.27 0-4.05-.665-5.339-1.995-1.29-1.33-1.94-3.16-1.937-5.5 0-2.34.646-4.18 1.937-5.51 1.29-1.33 3.07-1.99 5.34-1.995zm15.1 2.702c-1.11 0-1.97.42-2.586 1.259-.613.839-.92 2.02-.92 3.544 0 1.52.307 2.7.92 3.534.613.84 1.47 1.26 2.586 1.26 1.12 0 1.98-.42 2.596-1.26.613-.839.92-2.02.92-3.534 0-1.52-.307-2.7-.92-3.544-.613-.84-1.48-1.26-2.596-1.26zm0-2.702c2.27 0 4.06.665 5.344 1.995 1.29 1.33 1.93 3.17 1.932 5.51 0 2.34-.644 4.17-1.932 5.5-1.29 1.33-3.07 1.99-5.344 1.995-2.27 0-4.05-.665-5.339-1.995-1.29-1.33-1.94-3.16-1.937-5.5 0-2.34.646-4.18 1.937-5.51 1.29-1.33 3.07-1.99 5.34-1.995zm8.638.261h3.648V5.54l5.258-5.278h4.235l-6.812 6.847 6.82 7.611h-3.873l-5.628-5.694v5.694h-3.648V.261zm23.504.456v3.06a12.67 12.67 0 0 0-2.274-.804 8.841 8.841 0 0 0-2.094-.271c-.872 0-1.52.123-1.933.368-.417.245-.625.626-.625 1.142 0 .387.141.69.422.906.28.216.79.402 1.53.557l1.554.32c1.57.322 2.69.812 3.354 1.471.663.658.995 1.59.995 2.808 0 1.59-.464 2.78-1.389 3.56-.924.777-2.34 1.17-4.24 1.166a14.2 14.2 0 0 1-2.7-.261 16.357 16.357 0 0 1-2.71-.775v-3.147c.904.49 1.78.86 2.62 1.108a8.59 8.59 0 0 0 2.44.373c.796 0 1.41-.136 1.829-.406a1.3 1.3 0 0 0 .635-1.162c0-.452-.144-.801-.431-1.046-.287-.245-.861-.465-1.72-.659l-1.412-.32c-1.41-.31-2.45-.803-3.103-1.48-.654-.679-.98-1.59-.98-2.741 0-1.44.455-2.55 1.364-3.322.91-.775 2.22-1.16 3.922-1.162.777 0 1.58.06 2.397.18.821.118 1.67.298 2.55.537z"/></svg>