<svg xmlns="http://www.w3.org/2000/svg" width="135" height="14"><path fill="#000" fill-rule="nonzero" d="M8.372 8.292V2.678c0-1.162.238-1.232 1.218-1.274.084-.084.084-.378 0-.462C8.974.956 8.309.97 7.77.97 7.301.97 6.622.956 5.964.942c-.084.084-.084.378 0 .462.756.032 1.071.083 1.175.637-.082.227-.212.48-.37.679L2.922 7.508c-.102.102-.184.15-.248.154V2.678c0-1.162.238-1.232 1.218-1.274.084-.084.084-.378 0-.462-.616.014-1.281.028-1.82.028C1.603.97.924.956.266.942c-.084.084-.084.378 0 .462.98.042 1.218.112 1.218 1.274v5.614c0 1.162-.238 1.232-1.218 1.274-.084.084-.084.378 0 .462.63-.014 1.312-.028 1.82-.028.498 0 1.176.014 1.806.028.084-.084.084-.378 0-.462-.767-.032-1.08-.084-1.179-.662.097-.332.237-.445.4-.654l3.824-4.76a.52.52 0 0 1 .245-.182v4.984c0 1.162-.238 1.232-1.218 1.274-.084.084-.084.378 0 .462.63-.014 1.312-.028 1.82-.028.498 0 1.176.014 1.806.028.084-.084.084-.378 0-.462-.98-.042-1.218-.112-1.218-1.274Zm4.018-2.926c.364-.448 1.005-.868 1.414-.868.896 0 1.666 1.008 1.666 2.59 0 1.148-.406 2.576-1.974 2.576-.252 0-.742-.07-.994-.295-.281-.252-.336-.334-.336-.839V5.982c0-.294.062-.416.224-.616Zm-.266-.518c-.021-.42-.046-.78-.112-.924-.03-.064-.056-.112-.168-.112-.392.154-.756.28-1.722.406-.028.084 0 .308.028.392.756.07.91.14.91.952v5.978c0 1.162-.154 1.232-1.008 1.274-.084.084-.084.378 0 .462a53.71 53.71 0 0 1 1.568-.028c.56 0 1.232.014 1.694.028.084-.084.084-.378 0-.462-.994-.056-1.148-.112-1.148-1.274v-1.512c0-.182.053-.164.196-.105.343.139.776.217 1.218.217.784 0 1.484-.238 2.058-.784.658-.644 1.036-1.512 1.036-2.646 0-1.484-1.05-2.856-2.478-2.856-.651 0-1.365.427-1.918 1.05-.078.088-.147.078-.154-.056Zm13.72.854c0-1.162.154-1.204 1.008-1.274.084-.084.084-.378 0-.462-.476.014-.952.028-1.568.028-.602 0-1.092-.014-1.554-.028-.084.084-.084.378 0 .462.854.056 1.008.112 1.008 1.274v2.59c0 1.162-.154 1.204-1.008 1.274-.084.084-.084.378 0 .462A48.69 48.69 0 0 1 25.298 10c.602 0 1.106.014 1.554.028.084-.084.084-.378 0-.462-.854-.056-1.008-.112-1.008-1.274v-2.59Zm-3.668 2.534c0 1.148-.7 1.33-1.442 1.33-.686 0-.924-.14-.924-.63V6.864h.994c1.05 0 1.372.63 1.372 1.372Zm-2.366-2.52c0-1.176.154-1.218 1.008-1.288.084-.084.084-.378 0-.462-.476.014-.956.028-1.568.028a48.29 48.29 0 0 1-1.554-.028c-.084.084-.084.378 0 .462.854.056 1.008.112 1.008 1.274v2.59c0 1.162-.154 1.204-1.008 1.274-.084.084-.084.378 0 .462.462-.014.956-.028 1.568-.028.568 0 .888.028 1.456.028 1.722 0 2.66-.434 2.66-1.932 0-1.316-1.148-1.694-2.562-1.694H19.81v-.686Zm.644-3.738a.657.657 0 1 0 1.316 0 .67.67 0 0 0-.658-.672.67.67 0 0 0-.658.672Zm2.366 0a.657.657 0 1 0 1.316 0 .67.67 0 0 0-.658-.672.67.67 0 0 0-.658.672ZM32.746 10a74 74 0 0 0 1.372.028c.084-.084.084-.378 0-.462-.546-.028-.658-.14-.896-.588l-.63-1.19c-.35-.658-.84-.994-1.638-.994v-.042c.546-.154.784-.644.994-1.204.168-.434.336-.7.63-.7.126 0 .238.042.322.098a.806.806 0 0 0 .42.098c.308 0 .56-.266.56-.546 0-.308-.336-.63-.798-.63-.812 0-1.19.756-1.456 1.414-.308.77-.686 1.302-1.68 1.302v-.882c0-1.162.154-1.204.868-1.274.084-.084.084-.378 0-.462-.336.014-.868.028-1.428.028-.602 0-1.092-.014-1.554-.028-.084.084-.084.378 0 .462.854.056 1.008.112 1.008 1.274v2.59c0 1.162-.154 1.204-1.008 1.274-.084.084-.084.378 0 .462A48.69 48.69 0 0 1 29.4 10c.546 0 1.106.014 1.414.028.084-.084.084-.378 0-.462-.714-.056-.868-.112-.868-1.274V7.074c.952.056 1.204.434 1.456.952l.602 1.26c.182.378.462.7.742.714Zm2.786-8.05a.657.657 0 1 0 1.316 0 .67.67 0 0 0-.658-.672.67.67 0 0 0-.658.672Zm2.366 0a.657.657 0 1 0 1.316 0 .67.67 0 0 0-.658-.672.67.67 0 0 0-.658.672Zm.574 4.788v1.848c0 .182-.084.28-.196.364-.364.294-.84.616-1.232.616-.7 0-1.008-.56-1.008-.994 0-.63.294-1.274 1.33-1.54l1.106-.294Zm0 2.59c.084.434.232.812.938.812.536 0 1.04-.238 1.33-.518-.024-.172-.08-.29-.238-.378-.105.087-.34.224-.518.224-.406 0-.42-.546-.42-1.19V6.22c0-1.988-1.092-2.366-2.114-2.366-1.148 0-2.31.756-2.31 1.554 0 .336.168.504.49.504.406 0 .658-.294.658-.476a.63.63 0 0 0-.042-.252.968.968 0 0 1-.028-.28c0-.434.588-.588 1.12-.588.476 0 1.134.238 1.134 1.82 0 .098-.042.154-.084.168l-1.204.294c-1.344.336-2.31 1.078-2.31 2.03 0 1.148.784 1.512 1.764 1.512.487 0 .91-.112 1.526-.588l.28-.224h.028Zm9.002-3.626c0-1.162.154-1.204 1.008-1.274.084-.084.084-.378 0-.462-.49.028-1.106.028-1.568.028-.392 0-.952-.014-1.498-.028-.084.084-.084.378 0 .462.854.056.952.112.952 1.274v.91h-2.996v-.91c0-1.162.098-1.204.952-1.274.084-.084.084-.378 0-.462-.532.014-1.067.028-1.512.028-.414 0-.994-.014-1.554-.028-.084.084-.084.378 0 .462.854.056 1.008.112 1.008 1.274v2.59c0 1.162-.154 1.204-1.008 1.274-.084.084-.084.378 0 .462.56-.014 1.123-.028 1.568-.028.445 0 .994.014 1.498.028.084-.084.084-.378 0-.462-.854-.056-.952-.112-.952-1.274V7.074h2.996v1.218c0 1.162-.098 1.204-.952 1.274-.084.084-.084.378 0 .462A55.696 55.696 0 0 1 46.928 10c.424 0 1.008.014 1.554.028.084-.084.084-.378 0-.462-.854-.056-1.008-.112-1.008-1.274v-2.59Zm5.656 3.15c0 .742 1.05 1.288 2.394 1.288 1.456 0 2.8-.98 2.8-3.234 0-1.694-.777-3.052-2.814-3.052-.7 0-1.428.21-2.156.266-.074.536-.102 1.11-.126 1.68a.512.512 0 0 0 .364.056c.252-.896.714-1.512 1.806-1.512 1.169 0 1.75 1.148 1.75 2.436l-.042.028c-.378-.224-.77-.392-1.204-.392-.329 0-.596.092-.851.209-.228.105-.455.183-.703.183-.196 0-.378-.084-.476-.084-.084 0-.112.14-.112.196 0 .196.686.448 1.316.448.342 0 .584-.071.805-.164.209-.088.41-.144.679-.144.196 0 .378.056.56.126 0 1.666-.518 2.464-1.764 2.464-.588 0-.924-.308-1.106-.686-.21-.448-.406-.518-.658-.518-.266 0-.462.182-.462.406Zm12.404-3.15c0-1.162.154-1.204 1.008-1.274.084-.084.084-.378 0-.462-.49.028-1.106.028-1.568.028-.392 0-.952-.014-1.498-.028-.084.084-.084.378 0 .462.854.056.952.112.952 1.274v.91h-2.996v-.91c0-1.162.098-1.204.952-1.274.084-.084.084-.378 0-.462-.532.014-1.067.028-1.512.028-.414 0-.994-.014-1.554-.028-.084.084-.084.378 0 .462.854.056 1.008.112 1.008 1.274v2.59c0 1.162-.154 1.204-1.008 1.274-.084.084-.084.378 0 .462.56-.014 1.123-.028 1.568-.028.445 0 .994.014 1.498.028.084-.084.084-.378 0-.462-.854-.056-.952-.112-.952-1.274V7.074h2.996v1.218c0 1.162-.098 1.204-.952 1.274-.084.084-.084.378 0 .462A55.696 55.696 0 0 1 64.988 10c.424 0 1.008.014 1.554.028.084-.084.084-.378 0-.462-.854-.056-1.008-.112-1.008-1.274v-2.59Zm4.648 3.752c-.518 0-.602-.154-.602-.714V5.702c0-1.148.14-1.218.868-1.274.07-.084.07-.378 0-.462a37.087 37.087 0 0 1-2.87 0c-.07.084-.07.378 0 .462.77.056.896.126.896 1.274v2.59c0 1.148-.182 1.218-.952 1.274-.084.084-.084.378 0 .462.42-.014.952-.028 1.512-.028h3.528c1.176 0 1.582 1.12 1.764 1.806a.654.654 0 0 0 .364-.014l-.084-1.862c-.014-.252-.227-.322-.42-.364-.318-.07-.546-.154-.546-1.274v-2.59c0-1.148.182-1.218.952-1.274.084-.084.084-.378 0-.462a38.698 38.698 0 0 1-2.912 0c-.084.084-.084.378 0 .462.714.07.854.126.854 1.274V8.74c0 .434-.042.714-.588.714h-1.764Zm7.7-.336c-.042 0-.098-.028-.098-.168V5.758c0-1.162.294-1.288 1.008-1.33.084-.084.084-.378 0-.462-.322.014-1.12.028-1.638.028-.456 0-1.022-.014-1.554-.028-.084.084-.084.378 0 .462.854.042 1.078.168 1.078 1.33v2.478c0 1.162-.224 1.288-1.078 1.33-.084.084-.084.378 0 .462A65.682 65.682 0 0 1 77.154 10c.316 0 .7.014.854.028.07-.193.2-.472.344-.759l2.19-4.379c.042 0 .098.028.098.168v3.178c0 1.162-.294 1.288-1.008 1.33-.084.084-.084.378 0 .462A49.08 49.08 0 0 1 81.27 10c.431 0 1.008.014 1.554.028.084-.084.084-.378 0-.462-.854-.042-1.078-.168-1.078-1.33V5.758c0-1.162.224-1.288 1.078-1.33.084-.084.084-.378 0-.462a68.69 68.69 0 0 1-1.554.028c-.31 0-.7-.014-.84-.028-.11.259-.237.54-.363.791l-2.185 4.361ZM88.718 10a74 74 0 0 0 1.372.028c.084-.084.084-.378 0-.462-.546-.028-.658-.14-.896-.588l-.63-1.19c-.35-.658-.84-.994-1.638-.994v-.042c.546-.154.784-.644.994-1.204.168-.434.336-.7.63-.7.126 0 .238.042.322.098a.806.806 0 0 0 .42.098c.308 0 .56-.266.56-.546 0-.308-.336-.63-.798-.63-.812 0-1.19.756-1.456 1.414-.308.77-.686 1.302-1.68 1.302v-.882c0-1.162.154-1.204.868-1.274.084-.084.084-.378 0-.462-.336.014-.868.028-1.428.028-.602 0-1.092-.014-1.554-.028-.084.084-.084.378 0 .462.854.056 1.008.112 1.008 1.274v2.59c0 1.162-.154 1.204-1.008 1.274-.084.084-.084.378 0 .462A48.69 48.69 0 0 1 85.372 10c.546 0 1.106.014 1.414.028.084-.084.084-.378 0-.462-.714-.056-.868-.112-.868-1.274V7.074c.952.056 1.204.434 1.456.952l.602 1.26c.182.378.462.7.742.714Zm7.476-1.708v-2.59c0-1.148.182-1.218.952-1.274.084-.084.084-.378 0-.462-.42.014-.952.028-1.512.028h-2.646c-.462 0-1.008-.014-1.428-.028-.084.084-.084.378 0 .462.99.07 1.134.154 1.134 1.666 0 1.47-.112 2.24-.308 2.814-.182.504-.42.686-.658.686-.182 0-.238-.112-.266-.294-.042-.266-.126-.532-.518-.532-.35 0-.546.28-.546.588 0 .434.392.812 1.036.812.714 0 1.106-.364 1.428-1.12.28-.672.364-2.1.364-3.052 0-1.092.042-1.456.602-1.456h.63c.532 0 .63.336.63.812v2.94c0 1.148-.14 1.218-.868 1.274-.07.084-.07.378 0 .462.35-.014.868-.028 1.428-.028.56 0 1.19.014 1.582.028.07-.084.07-.378 0-.462-.91-.056-1.036-.126-1.036-1.274Zm2.1-1.162c0 1.428.952 3.01 2.94 3.01.902 0 1.58-.318 2.057-.784.627-.613.911-1.494.911-2.352 0-1.456-.798-3.15-2.94-3.15-.921 0-1.681.378-2.194.98-.508.596-.774 1.411-.774 2.296Zm2.758-2.786c1.204 0 1.946 1.092 1.946 3.108 0 1.764-.91 2.198-1.568 2.198-1.456 0-1.932-1.764-1.932-2.842 0-1.218.294-2.464 1.554-2.464Zm9.842-.35h-3.976c-.56 0-1.092-.014-1.512-.028-.084.084-.084.378 0 .462.77.056.952.126.952 1.274v2.59c0 1.148-.182 1.218-1.092 1.274-.084.084-.084.378 0 .462.42-.014 1.092-.028 1.652-.028.56 0 .98.014 1.4.028.084-.084.084-.378 0-.462-.714-.07-.854-.126-.854-1.274V5.254c0-.434.042-.714.588-.714h1.694c.518 0 .602.154.602.714v3.038c0 1.148-.14 1.218-.868 1.274-.07.084-.07.378 0 .462.35-.014.868-.028 1.428-.028.56 0 1.19.014 1.582.028.07-.084.07-.378 0-.462-.91-.056-1.036-.126-1.036-1.274v-2.59c0-1.148.182-1.218.952-1.274.084-.084.084-.378 0-.462-.42.014-.952.028-1.512.028Zm3.822 2.058c.266-1.582 1.246-1.708 1.582-1.708.532 0 1.162.294 1.162 1.47 0 .126-.056.193-.21.196l-2.534.042Zm3.668 2.646c-.518.532-.924.756-1.736.756-.504 0-1.092-.294-1.526-1.008-.28-.462-.448-1.106-.448-1.918l3.724.028c.168 0 .266-.084.266-.238 0-1.176-.42-2.436-2.366-2.436-1.218 0-2.8 1.162-2.8 3.29 0 .784.196 1.54.658 2.072.476.56 1.134.896 2.142.896 1.064 0 1.82-.49 2.38-1.218-.042-.14-.126-.21-.294-.224Zm3.108.588c0-.238.378-1.166.588-4.368.014-.214.108-.392.49-.392h.966c.56 0 .63.392.63.868v3.374c0 .462-.028.686-.588.686h-1.806c-.154 0-.28-.014-.28-.168Zm.392-5.292c-.462 0-1.008-.014-1.428-.028-.084.084-.084.378 0 .462.854.07 1.105.127 1.05 1.288-.06 1.292-.286 2.318-.518 3.304-.084.378-.49.504-.882.546-.21.028-.406.112-.42.364l-.084 1.862c.104.048.213.059.378.014.126-.518.504-1.806 1.764-1.806h2.422c1.246 0 1.652 1.26 1.778 1.82.122.032.258.03.392-.028l-.084-1.876c0-.196-.112-.308-.378-.35-.252-.042-.602-.14-.602-.658V5.702c0-1.148.182-1.218.952-1.274.084-.084.084-.378 0-.462-.42.014-.952.028-1.512.028h-2.828Zm7.658 5.124c-.042 0-.098-.028-.098-.168V5.758c0-1.162.294-1.288 1.008-1.33.084-.084.084-.378 0-.462-.322.014-1.12.028-1.638.028-.456 0-1.022-.014-1.554-.028-.084.084-.084.378 0 .462.854.042 1.078.168 1.078 1.33v2.478c0 1.162-.224 1.288-1.078 1.33-.084.084-.084.378 0 .462a65.682 65.682 0 0 1 1.554-.028c.316 0 .7.014.854.028.07-.193.2-.472.344-.759l2.19-4.379c.042 0 .098.028.098.168v3.178c0 1.162-.294 1.288-1.008 1.33-.084.084-.084.378 0 .462A49.08 49.08 0 0 1 132.93 10c.431 0 1.008.014 1.554.028.084-.084.084-.378 0-.462-.854-.042-1.078-.168-1.078-1.33V5.758c0-1.162.224-1.288 1.078-1.33.084-.084.084-.378 0-.462a68.69 68.69 0 0 1-1.554.028c-.31 0-.7-.014-.84-.028-.11.259-.237.54-.363.791l-2.185 4.361Z"/></svg>