<svg xmlns="http://www.w3.org/2000/svg" width="80" height="13"><path fill="#000" fill-rule="nonzero" d="M55.986.223c-.15.132-.666.76-1.144 1.389-.479.628-.91 1.2-.957 1.257-.235.319.216.037 1.491-.938.77-.573 1.454-1.164 1.53-1.304.13-.225.13-.263-.029-.441-.234-.263-.544-.244-.89.037ZM49.88 2.634v2.074l-.413 1.04c-1.05 2.693-2.251 5.15-2.776 5.704-.385.404-.657.46-.938.178-.179-.178-.188-.31-.188-3.517v-3.33h-1.229l.028 3.49c.028 3.395.038 3.508.235 3.883.366.675 1.135.778 1.8.244.714-.573 1.624-2.233 2.834-5.178l.6-1.454.047 3.377.047 3.377.59.028.582.028V.561H49.88v2.073Zm14.07 0v2.074l-.412 1.04c-1.05 2.693-2.251 5.15-2.777 5.704-.384.404-.656.46-.938.178-.178-.178-.187-.31-.187-3.517v-3.33h-1.23l.029 3.49c.028 3.395.037 3.508.234 3.883.366.675 1.135.778 1.801.244.713-.573 1.623-2.233 2.833-5.178l.6-1.454.048 3.377.047 3.377.59.028.582.028V.561h-1.22v2.073Zm7.975 0v2.074l-.413 1.04c-1.05 2.693-2.251 5.15-2.777 5.704-.384.404-.656.46-.938.178-.178-.178-.187-.31-.187-3.517v-3.33h-1.23l.029 3.49c.028 3.395.037 3.508.234 3.883.366.675 1.136.778 1.802.244.712-.573 1.622-2.233 2.833-5.178l.6-1.454.047 3.377.047 3.377.59.028.582.028V.561h-1.22v2.073ZM10.02 4.736a3.872 3.872 0 0 1 4.86 3.236c.168 1.276-.3 2.72-1.173 3.593a4.233 4.233 0 0 1-2.458 1.154c-2.495.206-4.718-2.13-4.352-4.597C7.14 6.5 8.35 5.186 10.02 4.736Zm1.548.215c-1.707-.769-3.283.939-3.283 3.575 0 2.026 1.004 3.611 2.486 3.93.92.197 1.595-.178 2.13-1.191.421-.788.58-1.51.58-2.58 0-1.907-.637-3.152-1.913-3.734Zm-.646 2.928c.319 0 .685.394.685.75 0 .357-.366.751-.685.751a.741.741 0 0 1-.723-.75c0-.282.057-.404.244-.554a.931.931 0 0 1 .479-.197Zm19.22-3.184c-.648.16-1.276.563-1.52.976-.507.872-.178 1.585 1.295 2.777.45.365.825.694.825.731 0 .038-.272.16-.6.272-.695.254-1.407.732-1.66 1.117-.127.219-.189.47-.179.722 0 .403.038.497.356.807.46.469.967.6 2.177.61 1.07 0 1.65-.15 2.232-.582.657-.488.826-1.06.498-1.707-.207-.394-.516-.695-1.726-1.642-.45-.357-.817-.675-.817-.713 0-.038.197-.103.45-.169.704-.187 1.38-.563 1.745-.957.638-.713.394-1.594-.572-2.035-.59-.272-1.848-.375-2.504-.207Zm1.82.413c.788.76.497 1.998-.61 2.533l-.516.253-.422-.338c-.863-.703-1.088-1.379-.685-2.063.31-.526.741-.732 1.416-.685.432.028.591.084.817.3Zm-.385 4.644c.638.497.947.975.947 1.5 0 1.136-1.491 1.68-2.551.93-.385-.273-.582-.901-.45-1.39.168-.646 1.247-1.64 1.547-1.425.057.037.282.206.507.385Zm8.03-5.043c-1.182.31-1.689.844-1.68 1.754.01.891.414 1.388 1.558 1.923l.629.29-.43.132c-1.144.329-2.072 1.342-1.95 2.11.253 1.614 2.767 2.299 5.253 1.427.413-.141.469-.263.563-1.267l.056-.628-.206.366c-.272.497-1.07 1.285-1.539 1.51-.563.281-1.473.253-2.007-.047-.535-.3-.77-.628-.826-1.135-.131-1.182.657-2.101 1.97-2.289.488-.075.638-.328.188-.328-.404 0-1.2-.413-1.464-.76-.337-.45-.46-.807-.469-1.407 0-.676.254-1.126.817-1.389 1.06-.515 2.204-.018 2.936 1.286l.356.628.028-.741c.02-.413.01-.797-.018-.854-.029-.056-.394-.225-.826-.375-.922-.31-2.198-.394-2.939-.206Zm14.361-.014c-.647.16-1.275.563-1.52.976-.506.872-.177 1.585 1.295 2.777.45.365.826.694.826.731 0 .038-.225.141-.488.225-.685.216-1.53.76-1.754 1.135a1.387 1.387 0 0 0-.197.76c0 .385.047.488.356.798.46.469.967.6 2.177.61.74 0 1.097-.047 1.454-.179.975-.366 1.491-.957 1.426-1.623-.057-.553-.348-.9-1.595-1.904-.572-.469-1.06-.891-1.079-.929-.019-.037.178-.112.422-.178.713-.187 1.389-.553 1.754-.957.638-.713.394-1.594-.572-2.035-.59-.272-1.848-.375-2.504-.207Zm1.82.413c.788.76.497 1.998-.61 2.533l-.515.253-.423-.338c-.863-.703-1.088-1.379-.684-2.063.31-.526.74-.732 1.416-.685.432.028.591.084.816.3Zm-.019 4.962c.423.394.582.723.582 1.21 0 1.107-1.51 1.642-2.552.901-.384-.272-.581-.9-.45-1.388.122-.46.638-1.08 1.117-1.323l.337-.169.329.235c.178.14.469.375.637.534ZM76.004 4.71c-1.182.31-1.689.844-1.68 1.754.01.891.413 1.388 1.558 1.923l.628.29-.431.132c-1.145.329-2.073 1.342-1.951 2.11.253 1.614 2.767 2.299 5.253 1.427.413-.141.469-.263.563-1.267L80 10.45l-.206.366c-.272.497-1.07 1.285-1.539 1.51-.563.281-1.473.253-2.007-.047-.535-.3-.77-.628-.826-1.135-.131-1.182.657-2.101 1.97-2.289.488-.075.638-.328.188-.328-.403 0-1.2-.413-1.463-.76-.338-.45-.46-.807-.47-1.407 0-.676.254-1.126.817-1.389 1.06-.515 2.204-.018 2.936 1.286l.356.628.028-.741c.02-.413.01-.797-.018-.854-.029-.056-.394-.225-.826-.375-.92-.31-2.195-.394-2.936-.206Zm-53.61 3.233c0 2.026.037 3.302.103 3.545.16.554.685 1.032 1.285 1.164.966.206 2.561.037 3.387-.348.328-.159.337-.178.45-.956.05-.292.08-.587.094-.882-.02-.047-.16.14-.32.431-.572 1.004-1.707 1.726-2.579 1.651-.563-.056-.929-.31-1.079-.74-.075-.226-.112-1.286-.112-3.49l-.01-3.162h1.97c1.905 0 1.97-.009 1.97-.187s-.065-.188-2.58-.188h-2.579v3.162ZM2.029 7.74C.63 8.162-.261 9.55.069 10.779c.215.816.787 1.407 1.688 1.745.61.234 2.138.234 2.805 0 1.52-.526 2.129-2.28 1.332-3.828-.15-.3-.244-.553-.216-.581.138-.055.279-.102.422-.141.188-.066.347-.178.347-.253 0-.188-3.79-.179-4.418.018Zm1.942.318c.347.15.422.235.6.713.732 1.942-.085 3.959-1.51 3.734-1.117-.178-1.951-1.539-1.689-2.767a2.89 2.89 0 0 1 .77-1.473c.515-.497 1.012-.554 1.828-.207Zm13.254-.318c-1.397.422-2.289 1.81-1.96 3.039.216.816.788 1.407 1.688 1.745.61.234 2.14.234 2.805 0 1.52-.526 2.13-2.28 1.332-3.828-.15-.3-.244-.553-.215-.581.138-.055.279-.102.422-.141.187-.066.347-.178.347-.253 0-.188-3.79-.179-4.418.018Zm1.942.318c.347.15.422.235.6.713.732 1.942-.084 3.959-1.51 3.734-1.116-.178-1.95-1.539-1.688-2.767a2.89 2.89 0 0 1 .769-1.473c.516-.497 1.013-.554 1.83-.207Z"/></svg>