<svg xmlns="http://www.w3.org/2000/svg" viewBox="0 0 124 20"><path fill-rule="evenodd" d="M115.706 0q.183 0 .319.165t.295.54l4.773 12.613q.238.67.625.972.386.301 1.09.38l.262.023q.228 0 .227.182v.443l-.068.046q-1.795-.045-2.704-.046l-3.091.046-.023-.046v-.443q0-.182.16-.182l.658-.045q.67-.057.91-.29.237-.233.068-.71l-1.421-3.943h-4.841q-.41 0-.568.085a.58.58 0 0 0-.25.312l-1.352 3.375q-.182.455.062.785.245.33.87.386l.681.045q.182 0 .182.182v.443l-.045.046q-2.535-.045-3.091-.046l-2.103.046-.045-.046v-.443q0-.182.182-.182.852-.056 1.33-.38.476-.324.931-1.37L114.9.841q.16-.363.381-.602.222-.24.426-.239Zm-.579 2.523h-.023l-2.33 5.909q-.067.16.103.227.17.069.489.068h4.045zm-8.648 2.045.046.046v.488q0 .08-.16.114l-.306.045q-.557.103-.767.245-.21.141-.21.483v7.09q0 3.672-2.285 5.478-.999.83-2.466.83-.454 0-.926-.319-.471-.318-.471-.84a.7.7 0 0 1 .284-.569q.284-.227.556-.227.694 0 1.114.591.285.386.614.386.25 0 .466-.096.216-.097.46-.41.245-.311.42-.818.177-.505.296-1.409.12-.903.12-2.108v-7.58q0-.374-.222-.533t-.779-.194l-.648-.045q-.136 0-.136-.114v-.488l.023-.046a146 146 0 0 0 2.693.046zm-6.92 0 .022.046v.488q0 .114-.136.114h-.705q-.624 0-.79.233-.165.233-.164.983v7.09q0 .672.182.904.18.233.772.245h.705q.136 0 .136.136v.489l-.022.045a99 99 0 0 0-2.682-.045l-2.603.045v-.557q0-.114.114-.113h.727q.614-.012.784-.25.17-.24.17-.898v-6.16l-4.795 6.49v.045q0 .465.148.62.148.153.716.153.136 0 .136.136v.489l-.022.045a51 51 0 0 0-1.887-.045l-2.58.045-.022-.045v-.512q0-.113.114-.113h.716q.613-.012.772-.228t.16-.875v-7.09q0-.784-.16-1.023-.159-.24-.772-.239h-.694q-.136 0-.136-.09v-.512l.068-.046 2.534.068 2.648-.068.045.046v.488q0 .114-.136.114h-.693q-.625 0-.79.239-.165.238-.165 1v6.307l4.796-6.523q0-.262-.017-.404a1 1 0 0 0-.091-.307.46.46 0 0 0-.25-.238 1.2 1.2 0 0 0-.46-.074q-.114 0-.114-.091v-.511l.046-.046q1.022.046 1.693.046zm-22.177.034q.835.034.972.034.17 0 1.022-.022a54 54 0 0 1 1.341-.023q.512 0 1.534.023 1.023.022 1.478.022.397.001 1.284-.034.886-.034 1.204-.034v.489q0 .057-.062.108a.2.2 0 0 1-.13.05h-.364q-.625 0-.853.25-.227.251-.227.865v7.216q0 .659.16.897.158.24.68.25h.399q.147 0 .318.131.17.13.17.335l.137 3.137h-.58a8 8 0 0 0-.187-.836 4 4 0 0 0-.336-.79 2.5 2.5 0 0 0-.545-.698q-.318-.279-.847-.466a3.6 3.6 0 0 0-1.199-.188h-4.397q-.67 0-1.2.233-.528.234-.817.551a3 3 0 0 0-.495.768 4 4 0 0 0-.273.767q-.068.318-.102.659h-.59l.147-3.137q0-.216.12-.34a.36.36 0 0 1 .266-.126h.375q.921 0 1.194-1 .83-3.705.83-7.59 0-.137-.035-.268a1.1 1.1 0 0 0-.125-.284.62.62 0 0 0-.295-.244 1.2 1.2 0 0 0-.5-.091h-.625q-.137 0-.137-.114v-.534q.454 0 1.29.034m4.528.898h-2.375a.6.6 0 0 0-.414.142.7.7 0 0 0-.21.261.6.6 0 0 0-.046.2 79 79 0 0 1-.375 4.25 59 59 0 0 1-.38 2.806q-.154.886-.154.978 0 .272.443.272h3.511q.603 0 .768-.25t.164-.886v-6.66q0-.647-.159-.88-.158-.233-.773-.233m-8.659-.886q.022 1.17.318 2.795l-.58.068a4.5 4.5 0 0 0-.232-.693 4 4 0 0 0-.37-.642 1.6 1.6 0 0 0-.636-.54 2.1 2.1 0 0 0-.92-.193h-1.864q-.352 0-.511.102-.16.103-.16.387V9.34h1.74q.453 0 .641-.182.187-.181.267-.568l.137-.489q0-.113.147-.113h.387q.057 0 .057.068-.148 1.33-.148 1.727 0 .216.148 1.603l-.057.045h-.387q-.17 0-.17-.114l-.114-.511q-.068-.375-.272-.551t-.637-.176h-1.738v3.886q0 .318.164.438.165.12.506.119h2q.978 0 1.477-.54t.83-1.574l.58.068q-.42 1.671-.49 2.841h-6.147l-2.295.046-.023-.046v-.511q0-.114.136-.114l.534-.045q.534-.057.733-.216c.199-.159.2-.277.2-.511V5.989q0-.387-.211-.54-.21-.153-.722-.188l-.534-.045q-.135-.023-.136-.091v-.511l.023-.046 2.318.046zM53.433 6.386q0-.761-.154-.966-.153-.204-.778-.204h-.693q-.137 0-.137-.091v-.511l.046-.046 2.58.046 1.727-.023h2.954l1.739.023 2.682-.046.045.046v.488q0 .114-.136.114h-.727q-.626 0-.779.199-.153.198-.153.949v7.227q0 .682.165.88.165.2.767.2h.727q.136 0 .136.136v.489l-.045.045-2.682-.045-2.466.045-.045-.045v-.512q0-.113.136-.113h.636q.615 0 .773-.216.16-.216.16-.864V6.41q0-.568-.245-.738-.244-.17-.688-.171h-2.84q-.445 0-.7.176-.255.177-.255.733v7.182q0 .682.17.88.17.2.784.2h.603q.136 0 .136.136v.489l-.045.045-2.557-.045-2.58.045-.023-.045v-.512q0-.113.114-.113h.716q.614 0 .773-.21t.159-.87zm-12.387-1.75 2.648-.068.045.046v.488q0 .114-.136.114h-.693q-.625 0-.79.239-.165.238-.165 1v6.307l4.796-6.523q0-.262-.017-.404a1 1 0 0 0-.091-.307.46.46 0 0 0-.25-.238 1.2 1.2 0 0 0-.46-.074q-.114 0-.114-.091v-.511l.045-.046q1.023.046 1.694.046l2.681-.046.023.046v.488q0 .114-.136.114h-.705q-.624 0-.79.233-.165.233-.164.983v7.09q0 .672.182.904.18.233.772.245h.705q.136 0 .136.136v.489l-.023.045a99 99 0 0 0-2.681-.045l-2.603.045v-.557q0-.114.114-.113h.727q.614-.012.784-.25.17-.24.17-.898v-6.16l-4.795 6.49v.045q0 .465.148.62.147.153.716.153.136 0 .136.136v.489l-.022.045a51 51 0 0 0-1.887-.045l-2.58.045-.022-.045v-.512q0-.113.113-.113h.716q.614-.012.773-.228t.16-.875v-7.09q0-.784-.16-1.023-.16-.24-.773-.239h-.693q-.136 0-.136-.09v-.512l.068-.046zm-10.5 9.08q0 .318.114.529.113.21.318.295t.37.108.38.023q.182 0 .182.181v.444l-.046.045a66 66 0 0 0-2.227-.045l-2.42.045-.046-.045v-.444q0-.18.182-.181h.443q.58 0 .79-.222t.21-.733V6.24q0-.523-.216-.773t-.784-.25h-.443q-.182 0-.182-.182v-.42l.045-.046q1.58.046 2.42.046l2.183-.046.045.046v.42q0 .182-.182.182-.272 0-.443.028-.17.029-.352.125a.55.55 0 0 0-.261.313q-.08.216-.08.557v2.795q.522 0 .966-.153.443-.154.733-.364t.557-.568.409-.636.335-.7l.301-.653q.108-.233.33-.602.221-.37.42-.568.2-.199.494-.353a1.3 1.3 0 0 1 .614-.153q.636 0 .972.296a.96.96 0 0 1 .335.75.86.86 0 0 1-.261.619.84.84 0 0 1-.625.267 1.34 1.34 0 0 1-.67-.205q-.195-.09-.535-.09-.307 0-.795 1.159-.183.42-.341.727a7 7 0 0 1-.426.693 2.5 2.5 0 0 1-.62.63 2 2 0 0 1-.773.325q.876 0 1.557.63.682.63 1.091 1.574a12.6 12.6 0 0 0 .87 1.818q.3.535.636.864.335.33.63.33h.194q.25 0 .25.181v.444l-.046.045-1.693-.023q-.285 0-.54-.119a1.5 1.5 0 0 1-.477-.37 8 8 0 0 1-.386-.465 3.6 3.6 0 0 1-.347-.585 15 15 0 0 1-.489-1.086q-.477-1.227-.772-1.67-.67-1.011-1.898-1.17v3.863ZM16.5 4.636l2.648-.068.046.046v.488q0 .114-.137.114h-.693q-.625 0-.79.239-.165.238-.165 1v6.307l4.796-6.523q0-.262-.017-.404a1 1 0 0 0-.091-.307.46.46 0 0 0-.25-.238 1.2 1.2 0 0 0-.46-.074q-.114 0-.114-.091v-.511l.046-.046q1.022.046 1.693.046l2.682-.046.022.046v.488q0 .114-.136.114h-.705q-.625 0-.79.233-.164.233-.164.983v7.09q0 .672.182.904.18.233.772.245h.705q.136 0 .136.136v.489l-.022.045a99 99 0 0 0-2.682-.045l-2.603.045v-.557q0-.114.114-.113h.727q.614-.012.784-.25.17-.24.17-.898v-6.16l-4.795 6.49v.045q0 .465.148.62.148.153.716.153.136 0 .136.136v.489l-.022.045a51 51 0 0 0-1.887-.045l-2.58.045-.022-.045v-.512q0-.113.114-.113h.716q.613-.012.772-.228t.16-.875v-7.09q0-.784-.16-1.023-.159-.24-.772-.239h-.694q-.136 0-.136-.09v-.512l.068-.046zM5.818.284q5 0 5 3.557 0 .932-.619 1.79a4.14 4.14 0 0 1-1.54 1.312q1.625.465 2.58 1.483.954 1.017.954 2.608 0 .637-.159 1.222t-.58 1.164-1.062 1-1.682.682q-1.04.262-2.38.262-1.125 0-1.95-.023A52 52 0 0 0 3 15.318l-2.955.046L0 15.318v-.443q0-.182.16-.182l.704-.045q.76-.057.983-.222.22-.165.221-.755V1.954q0-.579-.221-.75-.222-.17-.983-.227L.159.932Q0 .932 0 .772V.308L.045.284q1.596.02 2.69.022H3q.58 0 1.511-.01.7-.01 1.085-.011zm.205 7.307H3.955v5.91q0 .602.38.834.381.234 1.551.233 1.285 0 2.148-.233.864-.232 1.307-.681.444-.45.614-.966.17-.517.17-1.21 0-1.66-1.074-2.773T6.023 7.591M5.977 1.08q-.51 0-.852.017a2.7 2.7 0 0 0-.915.193.33.33 0 0 0-.176.193 1 1 0 0 0-.068.25 4 4 0 0 0-.011.346v4.717h1.727q3.34 0 3.34-2.671 0-.841-.283-1.466-.285-.625-.756-.954a3.4 3.4 0 0 0-.972-.478 3.6 3.6 0 0 0-1.034-.147"/></svg>