<?xml version="1.0" encoding="UTF-8"?>
<svg width="120px" height="13px" viewBox="0 0 120 13" version="1.1" xmlns="http://www.w3.org/2000/svg" xmlns:xlink="http://www.w3.org/1999/xlink">
    <title>stq-tagline</title>
    <g id="Page-1" stroke="none" stroke-width="1" fill="none" fill-rule="evenodd">
        <path d="M3.12608671,0.716117544 L5.1210007,0.716801816 L5.14667705,0.815828478 C5.16079316,0.870368 5.16034401,0.961416919 5.14566218,1.01827704 L5.1189699,1.12168826 L4.86368002,1.14083056 C4.5689324,1.16296719 4.28416445,1.2756822 4.20047516,1.40341162 C4.1924363,1.41568034 4.18481256,1.42704044 4.17757984,1.43803176 L4.14759075,1.48682528 C4.04059865,1.68106775 4.0422929,2.01035362 4.02357461,5.36783601 C4.0068508,8.36741923 4.00695901,8.97607815 3.91985713,9.3844765 L3.90124313,9.46413511 C3.87809826,9.55546953 3.84982765,9.64385217 3.81510959,9.75711258 C3.71215822,10.0929798 3.62058102,10.276532 3.3974085,10.5943477 C2.90366221,11.2974905 2.18605684,11.8434418 1.59230859,11.9676743 C1.29045372,12.0308759 0.902938657,12.0256359 0.685827514,11.9553761 C0.308115658,11.8332718 0.0966776947,11.665675 0.017444602,11.4255942 C-0.0891106525,11.1027309 0.312624259,10.6733017 0.674790212,10.7229434 C0.867039888,10.7492506 0.952306549,10.8142703 1.10559362,11.051314 C1.37137433,11.4622854 1.80159813,11.5554517 2.14042116,11.275418 C2.41760599,11.0463306 2.59871677,10.7389951 2.70290116,10.3209015 C2.71480319,10.2731395 2.72579988,10.228775 2.73596585,10.1857838 L2.75521226,10.1010327 C2.85824929,9.62435544 2.86097457,9.1507425 2.87201859,5.73360371 C2.87358309,5.25035265 2.87462315,4.8175135 2.87512078,4.43207359 L2.87526442,3.59648185 C2.87389004,2.47497658 2.86529918,1.9365301 2.84865215,1.84058332 C2.76113226,1.33601788 2.54893288,1.18447287 1.87856729,1.14779237 C1.52209698,1.12832924 1.48066833,1.10416075 1.48147466,0.916812146 C1.48154066,0.901477679 1.48096938,0.88730717 1.48056981,0.874212809 L1.48069514,0.838070364 C1.48822303,0.72777164 1.59381762,0.716306898 2.6064479,0.715867445 L2.93825703,0.715978559 C2.99836338,0.716022935 3.06093957,0.716072922 3.12608671,0.716117544 Z M9.74196864,3.70634829 C10.2791295,3.7106259 10.7284742,3.72527671 10.7405124,3.73810954 C10.7525539,3.75094237 10.7488538,4.02534033 10.732278,4.34789348 C10.7204611,4.57828095 10.7123053,5.1662362 10.7104607,5.82167994 L10.7105761,6.42196906 C10.7107941,6.48895203 10.7110832,6.55573965 10.7114461,6.62204183 L10.7206429,8.3097406 L10.8021849,8.46877143 C10.8609164,8.58332582 10.9225365,8.64935072 11.0224935,8.70485271 C11.1742546,8.78912162 11.4561512,8.86507057 11.6199612,8.86585124 C11.7039627,8.86625761 11.7306625,8.8832825 11.7579333,8.95386305 C11.8032011,9.07096262 11.7576157,9.19348405 11.6583613,9.22156656 C11.6149435,9.23386468 11.4172153,9.27364645 11.2189738,9.31000613 C10.8120886,9.38465042 10.4646333,9.50897914 10.1908546,9.67795541 C10.057468,9.7602994 9.97610788,9.78997531 9.90341953,9.78286379 C9.81099108,9.77430857 9.79832936,9.75890918 9.76009608,9.61387682 C9.73702907,9.52639971 9.70012399,9.3333298 9.67808361,9.18481119 C9.62867722,8.85188484 9.59499105,8.83665655 9.34260032,9.03313785 C8.59700441,9.61359878 8.02277597,9.83003513 7.42264231,9.75679176 C6.77385834,9.67776292 6.37589628,9.42143786 6.13397928,8.92699967 C5.92296052,8.49569899 5.92570247,8.52435897 5.90300654,6.51286654 C5.8893075,5.2985922 5.87041116,4.64930454 5.84676667,4.58075585 C5.75742879,4.32169312 5.5922874,4.20341721 5.23576575,4.1431457 C5.04240817,4.11042198 5.02914438,4.10261534 5.00426045,4.0066044 C4.98973797,3.95056771 4.98944923,3.8600428 5.00360598,3.80540703 L5.02934649,3.70605955 L5.99846247,3.70926776 C6.38610956,3.71082325 6.72660424,3.71237875 6.88714668,3.7131115 L6.98483646,3.71354537 C6.98931537,3.71360576 6.99208205,3.92393153 6.99300165,4.26755252 L6.99324986,4.70630109 C6.99288636,5.03087745 6.99145543,5.41419649 6.98890019,5.82378641 C6.98644056,6.21638186 6.98468088,6.53819901 6.98386771,6.80381955 L6.98385967,7.34087716 C6.98643689,7.89599183 6.99930815,8.05032497 7.02913111,8.19758168 C7.12334546,8.66252576 7.27453864,8.88086565 7.61964442,9.05033384 C8.08162411,9.27719687 8.66216417,9.11599515 9.29375002,8.58557156 C9.6635098,8.2750278 9.63783451,8.40969765 9.64908463,6.72171013 C9.65892313,5.24489751 9.63472255,4.71499793 9.54795124,4.50786538 C9.4607094,4.29959927 9.26072901,4.17277884 8.96620062,4.13895364 C8.86410477,4.12719021 8.77005832,4.10195231 8.75720624,4.08270307 C8.73046049,4.04270742 8.72480335,3.80365321 8.74907878,3.74024834 C8.76221104,3.70602747 8.95203424,3.69950411 9.74196864,3.70634829 Z M22.233242,3.5703203 L22.2173614,3.90428398 C22.1914391,4.44934768 22.198326,4.80422887 22.2350493,4.81656977 C22.2535393,4.82298618 22.351057,4.70657104 22.4517615,4.55831979 C22.7922186,4.05711227 23.243746,3.70188888 23.6515358,3.61443315 C24.4154228,3.45060071 24.9598427,4.14503854 24.4820947,4.67384733 C24.3146616,4.85917476 24.2082785,4.90359774 23.9553477,4.89380201 C23.8883283,4.89166321 23.8035461,4.83124197 23.6321444,4.66498198 C23.2412906,4.28599647 23.10667,4.31646374 22.6899495,4.87823151 C22.4118279,5.2531533 22.2617694,5.5673758 22.2152087,5.87233728 C22.1912968,6.02891918 22.1840463,6.51550796 22.1933715,7.33542947 C22.2090275,8.71117287 22.2243521,8.82289334 22.4230171,9.01026334 C22.5464304,9.12665709 22.6939438,9.17473742 23.0674603,9.22032605 C23.2209121,9.23904059 23.3569786,9.27080184 23.3698317,9.29079967 C23.3826859,9.31079749 23.3931982,9.38447932 23.3931982,9.4544717 C23.3931982,9.52441062 23.382718,9.59679847 23.3698317,9.61526705 C23.3559175,9.63529161 22.9497855,9.64565478 22.105646,9.64739257 L21.3287463,9.64702751 C20.3217869,9.6446243 20.0829976,9.6352705 20.0709424,9.60350362 C20.0466435,9.54060137 20.0518835,9.33331911 20.0788432,9.29119534 C20.0916974,9.27109058 20.188088,9.24499716 20.2930488,9.23312679 C20.7830928,9.17773175 20.9752558,9.06393664 21.0642643,8.77633156 L21.0764305,8.73210336 C21.1081458,8.59925185 21.1170729,8.37902148 21.1193231,7.47717385 L21.119979,6.93277889 C21.1200023,6.86448924 21.1200123,6.79347819 21.1200123,6.7196248 L21.1199873,6.51013135 L21.1190566,5.82456812 C21.116113,4.91758181 21.1045973,4.80307213 21.0618689,4.69236938 C21.0298937,4.60949069 20.9654836,4.51448498 20.9187411,4.48123726 C20.8085713,4.40285007 20.5216218,4.31824964 20.365998,4.31824964 C20.2625334,4.31824964 20.2387552,4.30509599 20.2111839,4.23259051 C20.1932714,4.18542987 20.1828875,4.10331046 20.1881169,4.05001144 L20.1976345,3.95312358 L20.7860529,3.85409692 C21.1096819,3.79966434 21.517599,3.71488212 21.692534,3.665711 C21.8674689,3.61651849 22.0606929,3.57502567 22.1219193,3.57352851 L22.233242,3.5703203 Z M19.3070084,0.00922434035 C19.9623724,0.00981989413 20.2480066,0.0982166959 20.5710517,0.400376342 C20.7808353,0.596611681 20.8933514,0.818876275 20.8732359,0.997338146 C20.8456346,1.24225268 20.6054522,1.48332806 20.3616862,1.51080101 C20.1102312,1.53914017 19.9420613,1.3964712 19.7500789,0.991905582 C19.6331088,0.74540833 19.5067493,0.59607698 19.3433916,0.51127337 C19.2119589,0.443045498 18.8251656,0.418663123 18.6725855,0.469031976 C18.5005721,0.525817243 18.2189995,0.821934765 18.1113994,1.05924585 C17.9334391,1.45172722 17.8296429,2.26525371 17.8285051,3.276502 L17.8280132,3.7138448 L18.5887646,3.7138448 C19.0071769,3.7138448 19.3721553,3.72240002 19.3998261,3.73320098 C19.436774,3.74742403 19.4500025,3.7959749 19.4496496,3.91609018 C19.4488114,4.19761036 19.4321096,4.2208448 18.7000948,4.22264941 L17.8244146,4.22279479 L17.8354936,6.40948741 C17.8456529,8.41308765 17.8513742,8.61064905 17.9039033,8.76909171 C17.93544,8.86416158 18.0020958,8.98019174 18.0520497,9.02686046 C18.155461,9.1234275 18.4115037,9.2012693 18.7283676,9.23238891 C18.924573,9.25163815 18.9479769,9.26158359 18.9778464,9.33836668 C18.9980153,9.3902327 19.0004001,9.46629929 18.983942,9.53442023 L18.9571107,9.64574501 L17.4026423,9.64612457 C16.2692009,9.64638666 15.8444097,9.63649468 15.8342771,9.61029432 C15.8267463,9.59042483 15.8249284,9.50433794 15.8302754,9.41910657 L15.8401139,9.26411808 L16.0907871,9.22283914 C16.5611178,9.14541441 16.6780473,9.02723475 16.745455,8.56091114 C16.7616942,8.44856728 16.7741534,7.69172345 16.77711,6.69346334 L16.7777723,6.28223922 L16.7784033,4.2227734 L15.7605995,4.2227734 L15.7605995,4.06164654 C15.7605995,3.75746572 15.840933,3.71387688 16.4014731,3.71387688 L16.7784033,3.71387688 L16.7784033,3.28558122 C16.7784033,2.03325755 17.1100912,1.13367626 17.7824545,0.562465663 C18.0439619,0.340297316 18.2778861,0.203467279 18.5757671,0.0984305764 C18.8114816,0.0153380105 18.8645132,0.00881465588 19.3070084,0.00922434035 Z M26.7779776,9.75736924 C26.0016995,9.64856824 25.5494278,9.27485488 25.4296472,8.64325513 C25.2769184,7.83792027 25.7065797,7.15456145 26.6682665,6.67328759 C27.0667259,6.47388682 27.3372216,6.38515851 28.1810175,6.17711696 C28.661824,6.05856302 28.8940244,5.98707347 28.9231603,5.94860706 C28.9549857,5.90657955 28.9605466,5.82121985 28.945468,5.6063876 C28.8888004,4.79908504 28.7382628,4.41705173 28.3823635,4.17737727 C28.1439402,4.01681719 27.9471745,3.98045751 27.5615351,4.02570392 C27.0312303,4.08794314 26.7448903,4.23740282 26.6756443,4.48818838 C26.652834,4.57085318 26.653636,4.69180259 26.6783178,4.88713963 C26.7067212,5.11220606 26.7052882,5.18781281 26.6710459,5.27056317 C26.5890227,5.46858441 26.266646,5.60343605 25.9882614,5.55617916 C25.834647,5.53008574 25.6968064,5.38743816 25.6658665,5.22251492 C25.6385539,5.07694786 25.7179891,4.77780393 25.8318388,4.59745991 C26.0305979,4.28260646 26.4919071,3.94577679 26.9603417,3.77347468 C28.1156909,3.34849416 29.2974009,3.6649945 29.7218916,4.51310545 C29.9659485,5.00071017 30.0091769,5.39350167 30.0102356,7.13308785 C30.0108623,8.16183156 30.0214109,8.51783562 30.056113,8.68157182 C30.139259,9.07387139 30.2627771,9.16954013 30.6688228,9.1561619 C30.735083,9.1540231 30.8117164,9.11712872 30.8864943,9.05146741 C31.0160824,8.937683 31.0839477,8.95083665 31.1370992,9.09991134 C31.1730311,9.20075598 31.1106101,9.27914318 30.8259244,9.49087416 C30.4894006,9.7411571 30.012692,9.82709427 29.6100813,9.71004818 C29.3789727,9.64288971 29.1365767,9.40975999 29.0228543,9.14532886 C28.9797253,9.04501891 28.9372807,8.96296367 28.928533,8.96294228 C28.9197639,8.96292089 28.7766586,9.06988252 28.6104702,9.20049933 C28.279379,9.46084534 27.9851158,9.62898748 27.7287587,9.7042948 C27.5193782,9.76578543 27.0324023,9.79294825 26.7780439,9.75733715 L26.7780439,9.75733715 L26.7779776,9.75736924 Z M27.9513377,9.13713724 C28.329812,8.98659746 28.809131,8.64228197 28.9045634,8.45238819 C28.9538414,8.35432399 28.960183,8.23212338 28.9602259,7.3795851 C28.9602568,6.64057457 28.9512428,6.41744376 28.9212461,6.41744376 C28.8997832,6.41744376 28.609942,6.49037701 28.2771675,6.57944753 C27.2839589,6.84539721 26.9061219,7.06859219 26.6787242,7.52368707 C26.4241444,8.03318245 26.4645817,8.5751235 26.7835257,8.92814393 C27.062306,9.23671999 27.5027758,9.31554564 27.9513484,9.13713724 L27.9513484,9.13713724 L27.9513377,9.13713724 Z M28.8130161,2.28167973 C28.7582627,2.26478317 28.6546312,2.19217075 28.5827192,2.12022135 C28.3604589,1.89796745 28.3321112,1.61385932 28.504439,1.33564359 C28.7636504,0.917154354 29.3560875,0.953653058 29.5794472,1.4018396 C29.6812864,1.6061917 29.681265,1.75033645 29.5794001,1.95477411 C29.4404773,2.23354592 29.1117205,2.37376597 28.8130215,2.28163695 L28.8130193,2.28163695 L28.8130161,2.28167973 Z M26.4475708,2.26371377 C26.0116781,2.07491077 25.913292,1.53116243 26.2585774,1.21921775 C26.4127777,1.0799067 26.5029198,1.04216749 26.6814501,1.04216749 C27.0923798,1.04216749 27.4062419,1.48596949 27.2754935,1.8821403 C27.1630127,2.22295884 26.7708019,2.40371993 26.4475708,2.26371377 L26.4475708,2.26371377 Z M32.9559398,2.01324903 C32.5910651,1.88318831 32.3893533,1.42929116 32.5534692,1.10759353 C32.6884299,0.843044769 33.0579373,0.654006508 33.3079529,0.721603433 C33.5651634,0.791114588 33.8255607,1.12443662 33.8263379,1.38511415 C33.8270985,1.6412681 33.5922428,1.92780378 33.3137244,2.01051136 C33.1156989,2.06932849 33.1132992,2.06932849 32.9559398,2.01371957 L32.9559398,2.01371957 L32.9559398,2.01324903 Z M31.6109107,9.62148027 C31.5845179,9.57881112 31.5928485,9.30639155 31.6213909,9.27869403 C31.6359668,9.26457792 31.7578252,9.23784286 31.8921828,9.21944914 C32.1981399,9.17742162 32.3737208,9.10817782 32.4726587,8.99059703 C32.6243684,8.81030648 32.6338936,8.67332672 32.6338936,6.67191876 L32.6338936,4.81124415 L32.5543728,4.65221332 C32.4558701,4.45519731 32.2876521,4.36215931 31.9660796,4.32680486 L31.7435594,4.30231555 L31.7154555,4.16901454 C31.6758234,3.9810029 31.6997567,3.9441406 31.8766326,3.92083833 C32.2702625,3.86897231 32.9537593,3.73499758 33.2752185,3.64668633 C33.4705095,3.59300233 33.656577,3.55428996 33.6887007,3.56059944 C33.74339,3.57129346 33.7460956,3.6064768 33.7312095,4.11212233 C33.7224404,4.40917023 33.7153075,5.52528412 33.7153075,6.5923873 C33.7153075,8.64515867 33.7249321,8.80098129 33.8632967,8.97682312 C33.9627725,9.10327996 34.1474316,9.18098273 34.4518819,9.22448602 C34.7217445,9.26309145 34.7300271,9.26672742 34.7541913,9.36054609 C34.7678582,9.41358845 34.7676764,9.49945077 34.7537849,9.55138095 L34.7285363,9.64580918 L33.177721,9.64662352 C32.3247732,9.64704969 31.6197012,9.63570333 31.6108957,9.62148027 L31.6108968,9.62148027 L31.6109107,9.62148027 Z M37.8748871,9.75603248 C37.5162406,9.71988668 37.1704707,9.61963021 36.8659541,9.4636044 C36.6664859,9.36136953 36.542093,9.26468486 36.3045841,9.02717059 C36.0449749,8.76755177 35.9772796,8.67706963 35.850734,8.42056277 C35.4910854,7.69155116 35.4183736,6.79655761 35.6442388,5.87887133 C35.789346,5.2892991 36.0475939,4.83372298 36.4600859,4.43963751 C36.8926731,4.02634557 37.2771468,3.80309712 37.7717678,3.67800912 C38.2631358,3.55374457 39.0532873,3.64303967 39.5486366,3.87873595 C40.1461909,4.16310074 40.5655966,4.9467909 40.58038,5.8066332 C40.5885074,6.28088108 40.7959266,6.23977325 38.5251939,6.21401135 L36.6239216,6.19240942 L36.6428286,6.45599572 C36.7030146,7.29526272 36.8634089,7.8160403 37.2138029,8.30989032 C37.5955528,8.84793875 38.0774287,9.11896809 38.6546076,9.12028345 C39.2953027,9.12135286 39.7120413,8.96439667 40.1642883,8.55028128 C40.3676641,8.36406625 40.4594306,8.35239907 40.5564318,8.50044713 C40.6063194,8.57658858 40.6035817,8.5835397 40.453459,8.7598093 C40.1614897,9.10275595 39.679555,9.44671853 39.2839937,9.59448856 C38.8883277,9.74229066 38.3502514,9.8039631 37.8748871,9.75601109 L37.8748871,9.75601109 L37.8748871,9.75603248 Z M39.3682412,5.66339744 C39.4668936,5.57410234 39.4268231,5.06917331 39.2926131,4.71047436 C39.1283583,4.27147398 38.6845723,4.00575957 38.1707362,4.03876133 C37.9926379,4.05020393 37.8873649,4.08046802 37.6671589,4.18370813 C37.3242892,4.34440723 37.1284229,4.53481432 36.9685964,4.86282142 C36.8623513,5.08085118 36.689215,5.60797032 36.689215,5.71338131 C36.689215,5.75337696 36.8655787,5.75647823 38.0005633,5.73690816 C39.1378738,5.7173381 39.3193877,5.70760654 39.368237,5.66333328 L39.368237,5.66333328 L39.3682412,5.66339744 Z M44.7633004,9.60342876 C44.739164,9.5405479 44.7445431,9.333148 44.7714279,9.29133437 C44.7842821,9.27133654 44.9092984,9.24449454 45.0492468,9.23166171 C45.5566034,9.18524965 45.7943358,9.06408636 45.9069279,8.79455418 C46.0098151,8.54824942 46.022988,8.06583131 46.0122747,4.93661019 C46.0016876,1.85628215 46.0016876,1.85300978 45.9316311,1.64464741 C45.8593822,1.42964406 45.7868372,1.33876625 45.6217717,1.25648643 C45.4826435,1.18718915 45.2182712,1.13757958 44.9874814,1.13757958 C44.8328319,1.13757958 44.7812001,1.12581615 44.7664027,1.08731766 C44.7429187,1.02614785 44.7409403,0.80900569 44.7633015,0.750605626 C44.7767011,0.715636168 45.2738994,0.710075275 47.6020194,0.718416614 C49.2403236,0.723763626 50.5022558,0.716277809 50.6098463,0.69895349 C50.7866912,0.670721267 50.7964773,0.672753132 50.8229386,0.742371227 C50.8453533,0.801295299 51.0649732,2.18768995 51.115896,2.5916674 C51.1272103,2.68139026 51.1171793,2.697966 51.0342899,2.72685055 C50.982317,2.74492345 50.8875016,2.75978815 50.8235813,2.75978815 C50.7076656,2.75978815 50.7071747,2.75919998 50.635266,2.53593014 C50.5201961,2.1786535 50.2880994,1.74569525 50.1232949,1.58088964 C50.0309841,1.48860022 49.9044545,1.40463074 49.7864802,1.35740593 C49.6028831,1.28393799 49.5677414,1.28147836 48.5479123,1.27238844 C47.5362415,1.26383322 47.4944985,1.26490262 47.3930817,1.32821125 C47.3330989,1.36542645 47.2616105,1.45128877 47.2267971,1.52797561 C47.1693702,1.65448592 47.1656915,1.75220791 47.1650285,3.16846027 L47.1643301,4.67441411 L48.1264725,4.66040494 C48.9288077,4.64874845 49.1173369,4.63709197 49.2615394,4.5906799 C49.5537708,4.49657249 49.6541577,4.33791595 49.7032957,3.89252055 C49.7242453,3.70259469 49.7273038,3.69750433 49.8360641,3.67128258 C49.9043027,3.65481379 49.9802955,3.65727341 50.0324075,3.677699 L50.117425,3.71074353 L50.117425,4.9127946 C50.117425,5.797693 50.1075865,6.12109097 50.0801135,6.13856501 C50.035883,6.16669029 49.8793738,6.16979156 49.7846601,6.14391202 C49.7284737,6.12883345 49.7140047,6.09343623 49.6970546,5.92965725 C49.6704158,5.67229487 49.5369116,5.40411014 49.3951784,5.32325262 C49.1870278,5.20451688 48.957627,5.17592106 48.0469571,5.15520673 L47.1643312,5.13510197 L47.1643312,6.93037193 L47.1643312,8.72565258 L47.2358956,8.86756228 C47.3664504,9.1264646 47.3540934,9.12445412 48.738746,9.11242335 C49.8228623,9.10279873 49.9637721,9.09584761 50.1064197,9.04280525 C50.6532373,8.83936214 51.0401535,8.35838772 51.3101679,7.54644395 L51.3842134,7.32379437 L51.521006,7.31416975 C51.5962384,7.30882274 51.698114,7.32058617 51.7473878,7.34133257 C51.8499328,7.38378785 51.8535794,7.3153461 51.7098303,8.04678525 C51.6288124,8.45903987 51.469741,9.1429227 51.3674205,9.51884973 L51.3327933,9.64607653 L48.0561764,9.64607653 C45.3569043,9.64607653 44.7766957,9.63859071 44.7633057,9.60372819 L44.7633004,9.60342876 Z M52.5882535,9.60495801 C52.5635717,9.54068692 52.5686193,9.33363993 52.5959532,9.2907462 C52.608893,9.27042755 52.7336174,9.23791772 52.8731166,9.21845459 C53.1605699,9.17845894 53.3779601,9.08631923 53.4522333,8.97296258 C53.5773288,8.78204217 53.588241,8.60115276 53.5887565,6.70980768 C53.5890987,5.45606171 53.578009,4.84240653 53.5532202,4.74397874 C53.5334042,4.66527072 53.4772392,4.56095052 53.4284199,4.5121216 C53.3292649,4.412988 53.0393339,4.31819617 52.8351657,4.31819617 C52.6873411,4.31819617 52.6668653,4.28921537 52.6668653,4.080329 L52.6668653,3.9430819 L52.9451719,3.90479729 C53.4013811,3.84213031 53.8691292,3.74903883 54.2489007,3.64533888 C54.4455199,3.59165488 54.6280092,3.55604378 54.654432,3.5662031 C54.7112707,3.58801891 54.7133988,3.68291768 54.6702591,4.27046874 C54.6409896,4.66914196 54.6479086,4.79527797 54.6990474,4.79527797 C54.7122973,4.79527797 54.8651941,4.65494029 55.0388223,4.48340815 C55.4905528,4.03714653 55.8186893,3.82631385 56.2935991,3.67718568 C56.4920428,3.61483952 56.5996985,3.6025414 56.9448278,3.6025414 C57.3022563,3.6025414 57.3872342,3.61323542 57.5716633,3.67953837 C58.0907053,3.86679073 58.3461384,4.24024743 58.4572622,4.97430662 C58.4808211,5.12993675 58.5027332,5.88668866 58.5151596,6.97403563 L58.5351468,8.72338545 L58.6146675,8.88241628 C58.710625,9.07433123 58.8689083,9.16462088 59.200561,9.21662592 C59.321627,9.23566128 59.4325518,9.25843955 59.4470604,9.26742253 C59.4795916,9.28752729 59.4812385,9.5695394 59.4490923,9.61568411 C59.4332651,9.63846238 58.9646155,9.64872865 57.9957423,9.6475523 L56.5657599,9.6454135 L56.5472485,9.55002281 C56.5370892,9.49751515 56.5365545,9.41186671 56.5461791,9.35964779 C56.5628084,9.26906941 56.5757588,9.26222523 56.8265743,9.21017742 C56.9712003,9.18023415 57.1323314,9.12515993 57.1846445,9.08792334 C57.4266267,8.91562122 57.4448097,8.74524404 57.4295643,6.79297511 C57.4192981,5.47967411 57.4084116,5.16401861 57.3687902,5.03351943 C57.2192482,4.54089922 56.9199556,4.28569703 56.4926481,4.28644562 C56.1170408,4.28709795 55.7814869,4.40986535 55.3863192,4.69119303 C55.034751,4.94148666 54.8402107,5.13293108 54.7499243,5.31747785 L54.6669386,5.48709576 L54.6787021,7.1050695 C54.6916204,8.88111161 54.6926043,8.89047957 54.8829184,9.05758439 C54.9901944,9.15179874 55.1117566,9.19438235 55.3772592,9.23082758 C55.5189133,9.2502907 55.5284225,9.25777652 55.5486866,9.36578616 C55.5604821,9.42866702 55.5571349,9.51718146 55.5412008,9.56244926 L55.5122627,9.64479325 L54.0587043,9.64693205 C52.8509629,9.64800145 52.6022969,9.64158504 52.5883038,9.60490454 L52.5882535,9.60495801 Z M60.2641234,9.56904747 C60.197628,9.51514959 60.193083,9.49739751 60.2244486,9.4142087 C60.2439224,9.36255657 61.0418666,8.16616264 61.9976535,6.75565297 C62.9534405,5.3451326 63.7354474,4.18390062 63.7354474,4.17513152 C63.7354474,4.1665763 63.2728293,4.15919743 62.7074063,4.15919743 C61.4923609,4.15919743 61.4669423,4.16347503 61.1899457,4.44309168 C61.0056663,4.6288041 60.8336625,4.94022477 60.7274997,5.28036959 C60.6673458,5.47309729 60.6617422,5.47673326 60.4434889,5.46475595 C60.2362056,5.45342028 60.2425129,5.47994146 60.3210798,4.94922914 C60.3603268,4.6841029 60.4085676,4.27263963 60.4282841,4.0348794 C60.4479932,3.79711916 60.477359,3.58900276 60.4935284,3.57239494 C60.5119756,3.55346652 60.5851869,3.57132554 60.6899509,3.61987641 L60.8569691,3.69751502 L62.5800918,3.70713965 C63.9943615,3.71462546 64.3611622,3.70769573 64.6265077,3.66799952 C64.9450688,3.62041111 65.0713117,3.63409946 65.0713117,3.71633651 C65.0713117,3.81696727 64.7179405,4.35972107 63.1884064,6.60868499 C62.2544577,7.981926 61.4788544,9.12420816 61.4648441,9.14707198 C61.4440015,9.18107898 61.6497652,9.18685375 62.5953597,9.17883324 L63.7513473,9.16920861 L63.9327265,9.08012739 C64.2057738,8.94604572 64.3759713,8.73387629 64.6301961,8.21067117 C64.7503552,7.96338256 64.8486664,7.74316052 64.8486664,7.72130194 C64.8486664,7.69242807 64.8882129,7.68697412 64.9930785,7.70130411 C65.2697404,7.7392679 65.2666723,7.73007104 65.1477547,8.16460131 C65.0502252,8.52102244 64.9342892,9.01850843 64.8488001,9.44745642 L64.8123549,9.63034562 L62.5757853,9.63034562 C60.4205684,9.63034562 60.3364834,9.62820681 60.2641277,9.56949662 L60.2641234,9.56904747 Z M66.7729523,12.7838529 C66.4329893,12.6225763 66.3687481,12.3180747 66.6083991,12.0038735 C66.74757,11.8214121 66.8764448,11.7814592 67.2473552,11.8057774 C67.8559275,11.8456661 68.020099,11.7317748 68.3207561,11.0611739 C68.6458801,10.3359801 68.7290433,10.0783397 68.7290433,9.79629548 C68.7290433,9.64871795 68.7025114,9.44309326 68.6642375,9.2939544 C68.6020624,9.05173476 66.9224355,5.08250876 66.7137202,4.68457343 C66.5229132,4.32077343 66.2486478,4.1273827 65.9235281,4.1273827 C65.8077204,4.1273827 65.7540022,4.00666856 65.7923584,3.83262332 L65.818762,3.71279678 L67.1705326,3.71065798 L68.5223032,3.70851917 L68.55076,3.80690419 C68.5675817,3.86507968 68.5674534,3.94635427 68.5504477,4.00564194 C68.5230282,4.10124651 68.5094682,4.10841151 68.2616973,4.15783928 C67.7023175,4.2694742 67.6965705,4.23173499 68.5932142,6.33234072 C68.9800609,7.23860578 69.3194935,8.01507747 69.3475086,8.05783218 C69.4044436,8.14477459 69.4540639,8.15472003 69.5349588,8.09558208 C69.594856,8.05173658 71.0040867,4.83057894 71.0458383,4.64203261 C71.0600186,4.5779754 71.0591524,4.47809322 71.0439134,4.42006744 C71.0213918,4.33430137 70.9854599,4.30031576 70.8524636,4.2386968 C70.7624199,4.19699011 70.6123817,4.15335849 70.5190582,4.14159506 C70.3306241,4.11806821 70.2872577,4.07261861 70.2880576,3.89945028 C70.2889709,3.7020279 70.2399238,3.71020883 71.4594479,3.70413462 C72.6942986,3.69771821 72.6098051,3.68242576 72.6089485,3.9158656 C72.608309,4.08949378 72.5906189,4.11048615 72.4063705,4.15613893 C72.0899087,4.23452613 71.841509,4.4178217 71.6108731,4.74305905 C71.3721729,5.07966415 70.7156325,6.54492722 69.4085608,9.65816078 C69.0679861,10.469356 68.7096358,11.2919724 68.6122271,11.4862079 C68.1427573,12.4222986 67.716408,12.812684 67.1387392,12.8353981 C66.9558821,12.8428839 66.8704893,12.8311205 66.7729662,12.7843876 L66.7729523,12.7838529 Z M72.9849269,9.56791391 C72.9659984,9.5192561 72.9640949,9.44210941 72.9801145,9.37543217 C73.0068175,9.26465278 73.0081864,9.26391489 73.2613995,9.22267873 C73.6962997,9.1518843 73.8423534,9.03397199 73.9122324,8.69736689 C73.9359197,8.58328304 73.943876,7.39005455 73.9379301,4.8428129 C73.9294819,1.22604054 73.9280916,1.15098988 73.8657134,1.02626548 C73.7813696,0.857577947 73.6304278,0.786291584 73.311286,0.764411611 C73.0856827,0.748905276 73.0574601,0.739708415 73.025978,0.670625021 C73.0067608,0.628490567 72.9910406,0.544788441 72.9910406,0.484720109 C72.9910406,0.36265852 72.9956391,0.360455551 73.3250075,0.325678585 C73.6438466,0.29199241 74.3577187,0.155440418 74.657145,0.0708399947 C74.9365894,-0.00808190193 75.0391408,-0.00947212504 75.0668362,0.0654929827 C75.0746429,0.0866671501 75.0687612,0.284527981 75.0536933,0.505113612 C75.0386254,0.725709938 75.0299525,2.13948129 75.0344226,3.64684674 L75.0425501,6.3875005 L75.201582,6.30740226 C75.4841042,6.16510758 75.793816,5.90703939 76.3848875,5.32141325 C76.7932891,4.91677277 76.9828449,4.70558719 77.0282678,4.6046356 C77.1524201,4.32868701 77.1038959,4.23788405 76.7900402,4.1588766 C76.5893669,4.10840081 76.5691381,4.09556798 76.5454989,4.00434796 C76.5313293,3.94959456 76.5310727,3.8611122 76.5449386,3.80759931 L76.5701551,3.71028369 L77.8177563,3.70386727 C78.831616,3.69852026 79.0684031,3.70600608 79.0816124,3.74012002 C79.1059199,3.80342864 79.1002841,4.04254701 79.0734849,4.08273515 C79.0606307,4.1019844 78.9375788,4.12786393 78.8000323,4.14005512 C78.4569316,4.17053309 78.0884455,4.2932791 77.8494587,4.45671586 C77.7191189,4.54579708 77.4397482,4.82474 77.0383651,5.26642458 C76.4707381,5.89103044 76.4261258,5.94886372 76.4265493,6.05941854 C76.4269439,6.16261587 76.5429441,6.35007141 77.2875818,7.45092493 C77.7608983,8.150667 78.1936565,8.7712626 78.2492676,8.83001556 C78.4485957,9.04064506 78.6858276,9.14653728 79.1147307,9.21634787 C79.2165592,9.23292361 79.3114505,9.26468486 79.3255922,9.28703537 C79.3577171,9.3376181 79.3593747,9.57023451 79.3279449,9.61607979 C79.3120643,9.63928582 78.9670409,9.64944515 78.2510054,9.64784104 L77.1974344,9.64570224 L77.1794043,9.40738591 C77.1654486,9.22288192 77.1373768,9.1223474 77.0550777,8.96209745 C76.9033862,8.6667499 75.7244973,7.02046908 75.5699911,6.88821609 C75.4369265,6.77431404 75.2598591,6.70361584 75.1076649,6.70361584 L75.021161,6.70361584 L75.0334698,7.6975612 C75.0499065,9.02517081 75.074984,9.09796503 75.5561509,9.21527847 C75.7402977,9.26019337 75.7735422,9.27922873 75.7926289,9.35055787 C75.8048415,9.39622135 75.8050768,9.4813244 75.7931476,9.5396496 L75.7714601,9.64573432 L74.3939501,9.64787312 L73.0164389,9.65001193 L72.9848381,9.56884429 L72.9848381,9.56884429 L72.9849269,9.56791391 Z M79.7332067,9.60392069 C79.7088992,9.54061206 79.7141607,9.33307314 79.7411203,9.29274598 C79.7539745,9.27349674 79.891042,9.24162854 80.0457193,9.22195154 C80.510858,9.16270665 80.6620715,9.03479543 80.735317,8.63857115 C80.7567478,8.52264793 80.7649501,7.21270485 80.7592181,4.82365991 C80.7508768,1.34569598 80.7478504,1.17927557 80.6908084,1.04872293 C80.6104429,0.864775025 80.4545753,0.78649477 80.1235493,0.763802051 C79.8500154,0.745087509 79.836974,0.735462888 79.7990338,0.525293236 C79.7722987,0.377202392 79.800531,0.363107669 80.2256783,0.312396607 C80.5941719,0.268444169 81.2462892,0.139656039 81.5389857,0.0530237508 C81.6577792,0.0178404121 81.7794387,-0.00311987483 81.8093392,0.00629086623 C81.860339,0.0224388424 81.8630446,0.284453123 81.8530243,4.23031268 C81.8418811,8.61721518 81.8451107,8.74057075 81.9757446,8.95542438 C82.061361,9.09621121 82.2524151,9.18166715 82.5727139,9.22244346 C82.7250599,9.24179965 82.8602217,9.27345396 82.8730748,9.2927032 C82.9005585,9.33387519 82.9038843,9.49121637 82.8791704,9.58305665 C82.8620493,9.64679303 82.842522,9.64754161 81.3057309,9.6471654 C80.0305423,9.64676095 79.7466641,9.63855863 79.7331875,9.60380305 L79.7331875,9.60380305 L79.7332067,9.60392069 Z M86.2881108,9.75209708 C85.2125262,9.64676095 84.48614,9.14662284 83.9989523,8.17596906 C83.7974716,7.77453679 83.7187775,7.44845461 83.7007634,6.94033876 C83.6613987,5.8300745 84.0113959,4.91669792 84.7277052,4.26033081 C85.2669577,3.76620274 86.1577186,3.51278645 86.9880101,3.61729915 C87.8387304,3.72437841 88.460235,4.05697325 88.8621848,4.62025957 C89.5687893,5.61047272 89.6976597,7.02429754 89.1806251,8.11383678 C88.749518,9.0223155 88.1495704,9.50861555 87.2381807,9.68832862 C86.8368522,9.76746439 86.6043727,9.78307767 86.2881108,9.752065 L86.2881108,9.75209708 Z M87.3820956,9.24377804 C87.6277876,9.12963003 87.8890383,8.90432834 88.0086499,8.70345179 C88.3807688,8.07850373 88.442376,6.6088454 88.1431433,5.49506281 C87.9809631,4.89140655 87.6123957,4.38677695 87.1791594,4.17520638 C86.6506104,3.91709542 86.0025868,3.9749287 85.5681988,4.31896614 C85.305777,4.5268045 85.058697,5.02085771 84.9252858,5.60449476 C84.8256389,6.04044734 84.8269436,6.8529365 84.9280663,7.30595674 C85.0829403,8.00005237 85.3234051,8.4915604 85.6906753,8.86470698 C86.0379594,9.2175456 86.3761141,9.34806616 86.9050437,9.33341535 C87.1506961,9.32699894 87.2399185,9.3098885 87.3821384,9.24379943 L87.3821384,9.24379943 L87.3820956,9.24377804 Z M90.1664804,12.818416 C90.1415312,12.7533963 90.1462366,12.5461247 90.1735385,12.5052628 C90.1863927,12.4861205 90.2862717,12.4612035 90.3954951,12.4500817 C90.8472556,12.4039904 91.0523316,12.288356 91.1388196,12.0308653 C91.1941611,11.8661024 91.2208962,4.96363399 91.1669662,4.7633777 C91.0968562,4.50298891 90.8940408,4.36657594 90.5203959,4.32849452 C90.4124472,4.31747967 90.3136109,4.29277648 90.3007588,4.27352723 C90.2879046,4.25438493 90.2771678,4.17214789 90.2769005,4.09083053 L90.2764139,3.94302843 L90.5547195,3.90463688 C90.9941027,3.8441087 91.58514,3.72166213 91.8564121,3.63502984 C92.2815434,3.49926921 92.3110322,3.51554551 92.2731967,3.86513316 C92.2337144,4.2299277 92.2525893,4.58554677 92.312016,4.59675411 C92.3382591,4.60210112 92.4670719,4.51045334 92.5982726,4.39390986 C93.0287594,4.01163059 93.5256925,3.73233477 93.9557987,3.63094473 C94.5427669,3.49256406 95.2861898,3.72205781 95.7972786,4.1993321 C96.2047851,4.57988963 96.5169009,5.12385185 96.6546399,5.6935439 C96.774552,6.18952203 96.7369839,7.04323666 96.5717612,7.57826937 C96.3141636,8.4122856 95.7355527,9.12584435 95.0314689,9.47780606 C94.630351,9.67831901 94.2043513,9.76792424 93.6637962,9.76545392 C93.2318229,9.76331511 92.9302568,9.71561977 92.5777935,9.59294862 C92.2524439,9.47974168 92.2745035,9.39337674 92.286129,10.7348458 C92.295112,11.7775773 92.3024267,11.9176155 92.353373,12.0307048 C92.4741962,12.298943 92.6194756,12.3758117 93.1230904,12.4379654 L93.4411542,12.4772124 L93.4411542,12.6676516 L93.4411542,12.8580908 L91.8124062,12.8602296 C90.4375151,12.8623684 90.1809729,12.855952 90.1664269,12.8178813 L90.1664804,12.818416 Z M94.1409476,9.26034309 C94.4355134,9.18495022 94.7264625,9.02708504 94.9108125,8.84274145 C95.2213306,8.53221908 95.4901569,7.84729893 95.5561391,7.19854597 C95.6186991,6.58386416 95.5037384,5.74275779 95.2922854,5.26685234 C94.9342388,4.46115388 94.2225087,4.03888966 93.5843364,4.25351872 C93.470629,4.29180332 93.2702487,4.38956809 93.1390469,4.47085336 C92.8209713,4.66794423 92.3940627,5.07899042 92.3283019,5.25149572 C92.2841891,5.36720506 92.2790346,5.58912745 92.2870337,7.02701382 L92.2962306,8.67028962 L92.3928725,8.8077613 C92.7119137,9.26158359 93.420165,9.44494333 94.1409967,9.26034309 L94.1409476,9.26034309 Z M99.1798625,9.75972192 C98.6963964,9.69202875 98.2517496,9.46606402 98.0635669,9.19256436 C97.8996596,8.95433359 97.8393453,8.75715718 97.8227267,8.40534518 C97.8100009,8.13618729 97.8184491,8.05549019 97.8772663,7.88053595 C97.9716945,7.5998713 98.0968681,7.41312156 98.3521558,7.17229214 C98.8304995,6.7210471 99.3200505,6.49908194 100.500286,6.19831252 C101.461101,5.95345145 101.383013,6.01959399 101.34136,5.48591942 C101.279442,4.69276506 101.105001,4.33364904 100.670321,4.10461513 C100.517193,4.02398219 100.473978,4.01638943 100.184192,4.01927682 C99.6883741,4.02462383 99.2901072,4.15398944 99.1373966,4.36028785 C99.0644633,4.45877981 99.052593,4.6803386 99.1015716,5.02550961 C99.1247776,5.18921373 99.1196445,5.21946712 99.0515236,5.32018344 C98.9496095,5.4707553 98.7527753,5.56324791 98.5342536,5.56324791 C98.3183306,5.56324791 98.188302,5.49822824 98.1210793,5.35651104 C97.9674917,5.0328564 98.1744425,4.54731564 98.6171109,4.19301193 C98.8708908,3.98986825 99.3165856,3.7676999 99.6434913,3.68137774 C100.011473,3.584276 100.593719,3.56175439 100.911514,3.63250605 C101.4241,3.74654712 101.909972,4.07519587 102.099278,4.43590529 C102.369697,4.95121823 102.398229,5.18319299 102.425114,7.08546736 C102.439979,8.13664713 102.46019,8.72875385 102.483824,8.79896012 C102.567986,9.04978845 102.71027,9.15576623 102.965697,9.15774462 C103.127979,9.15881402 103.223893,9.12277516 103.341014,9.01613436 L103.412557,8.95090081 L103.492014,9.02565204 C103.535752,9.06671709 103.571577,9.12532034 103.571577,9.15572345 C103.571577,9.21646551 103.342469,9.43216397 103.142191,9.56002172 C102.697416,9.84396944 102.033028,9.82808882 101.704935,9.5256939 C101.554214,9.38676784 101.377752,9.11323609 101.377239,9.01773846 C101.377078,8.98715355 101.365047,8.96212953 101.35061,8.96212953 C101.336173,8.96212953 101.199643,9.05997985 101.047306,9.17960321 C100.691987,9.4585996 100.425085,9.61619743 100.178011,9.69293774 C99.9532009,9.76276972 99.4441012,9.79688365 99.179916,9.75988233 L99.1798625,9.75972192 Z M100.365199,9.13866648 C100.596896,9.04605623 100.967935,8.81343983 101.164342,8.63779048 C101.27526,8.53854994 101.325544,8.46563809 101.346472,8.37354115 C101.362406,8.30360223 101.375666,7.83322559 101.376094,7.32833933 L101.376854,6.41036432 L101.272908,6.42982744 C100.936292,6.49292219 99.9613925,6.78537166 99.7666864,6.8815751 C99.3591586,7.08293287 99.1306807,7.34040219 98.9899153,7.75689165 C98.8966634,8.03279747 98.911635,8.46266515 99.0218904,8.67566872 C99.1401022,8.90401821 99.2345197,9.0092581 99.4038596,9.10142989 C99.7009075,9.26310214 100.02283,9.27557138 100.365167,9.13864509 L100.365167,9.13864509 L100.365199,9.13866648 Z M101.168833,2.25463454 C100.696115,2.03990923 100.686811,1.3497597 101.153434,1.1137319 C101.302755,1.03823209 101.507823,1.02101471 101.643488,1.07255991 C101.806989,1.13469219 101.979205,1.32771932 102.031403,1.50729337 C102.076211,1.66136217 102.076318,1.69488794 102.03244,1.84574853 C101.923521,2.22040297 101.517084,2.41284193 101.168801,2.25463454 L101.168833,2.25463454 Z M98.9139236,2.2931758 C98.6814676,2.22708673 98.4507119,1.9207885 98.4507119,1.67830151 C98.4507119,1.50682283 98.5895738,1.25563091 98.7432576,1.14913982 C98.855716,1.07118038 98.9051758,1.05802673 99.0864396,1.05802673 C99.2629444,1.05802673 99.3197083,1.07224978 99.4271725,1.14336504 C99.5786427,1.24356805 99.7229692,1.50457709 99.7229692,1.67825873 C99.7229692,1.84487162 99.5839897,2.1009935 99.4390964,2.20141038 C99.315805,2.28685563 99.0531811,2.33271161 98.9139236,2.29316511 L98.9139236,2.29316511 L98.9139236,2.2931758 Z M106.254216,9.756364 C105.254378,9.63687967 104.575618,8.96659964 104.285842,7.81256474 C104.200183,7.47157509 104.166903,6.64022167 104.223389,6.25393214 C104.388109,5.12741296 105.127857,4.1576361 106.114777,3.77441575 C106.661338,3.56218215 107.317961,3.53508349 107.866479,3.70212415 C108.023917,3.75003338 108.209982,3.79024291 108.279964,3.79141925 L108.40719,3.79355805 L108.40719,2.55311544 C108.40719,1.23492728 108.391684,1.0679187 108.25571,0.92245859 C108.170799,0.831666327 107.920858,0.756048884 107.705566,0.756048884 C107.511117,0.756048884 107.476479,0.724822334 107.449017,0.524437714 L107.429019,0.37876372 L107.536408,0.362081042 C107.595439,0.352456421 107.765463,0.329357329 107.914153,0.309680325 C108.282648,0.261022516 108.930053,0.131132902 109.211745,0.0493877827 C109.55622,-0.0506013411 109.54204,-0.0905328264 109.502162,0.867993926 C109.453611,2.03440181 109.477352,8.20770892 109.531036,8.36660073 C109.623005,8.63918071 109.876068,8.80206138 110.284323,8.85148916 C110.389018,8.86421505 110.492493,8.88881131 110.514362,8.90634951 C110.558422,8.94153284 110.567191,9.11489367 110.528158,9.17646986 C110.514362,9.19817872 110.37596,9.23806743 110.220501,9.26512331 C109.829196,9.33335119 109.714364,9.36115565 109.446981,9.45263233 C109.217605,9.53112647 108.887213,9.70112936 108.851303,9.75923 C108.841678,9.77569879 108.777086,9.78906632 108.708997,9.78906632 C108.592967,9.78906632 108.583054,9.78158051 108.552041,9.66979587 C108.514291,9.5337465 108.466061,9.27093017 108.438224,9.04957457 C108.423788,8.9346352 108.406035,8.8984894 108.364008,8.8984894 C108.333637,8.8984894 108.173494,9.00008263 108.008143,9.12418677 C107.301247,9.65482424 106.828795,9.82515865 106.254259,9.75651371 L106.254259,9.75651371 L106.254216,9.756364 Z M107.248097,9.08004184 C107.505481,8.99235085 107.748802,8.84723294 108.073387,8.58803119 C108.449432,8.2877323 108.427605,8.42080874 108.416526,6.49669718 L108.406902,4.87484151 L108.320601,4.72799117 C108.203576,4.52892191 107.903641,4.26092967 107.693856,4.16798791 C107.315962,4.00056227 106.840954,3.99811334 106.404734,4.1615715 C106.084737,4.28130179 105.723161,4.67848853 105.566997,5.08182434 C105.233728,5.94255424 105.276451,7.47099761 105.655115,8.23470064 C106.023535,8.97772142 106.61993,9.29435008 107.247841,9.0802878 L107.248097,9.08004184 Z M111.028499,9.59300209 C110.987006,9.51547041 110.992567,9.36506966 111.039193,9.3020177 C111.066463,9.26523025 111.159191,9.23817437 111.333407,9.21635857 C111.679326,9.17304777 111.853372,9.08168872 111.946805,8.89435081 C112.062643,8.662098 112.087688,8.16703955 112.072674,6.40632198 C112.058237,4.71892264 112.052676,4.66097172 111.888437,4.50756595 C111.789518,4.41516958 111.492534,4.31820687 111.308586,4.31820687 C111.171382,4.31820687 111.126659,4.25693011 111.126659,4.06913236 L111.126659,3.94309259 L111.404971,3.90544963 C111.826187,3.84845048 112.582095,3.69298076 112.793526,3.61983363 C113.009438,3.54518935 113.109374,3.53813129 113.154353,3.59459574 C113.175207,3.6207961 113.176062,3.82467766 113.156492,4.19096937 C113.11286,5.01833392 113.138633,8.62762047 113.189216,8.77990337 C113.282575,9.0609744 113.482061,9.18118592 113.941294,9.23307332 C114.046203,9.24494369 114.142641,9.27103711 114.155496,9.29114187 C114.168328,9.31124664 114.178916,9.38492846 114.178916,9.45489946 C114.178916,9.52483838 114.168222,9.59703374 114.155496,9.61525635 C114.139775,9.63749992 113.62519,9.64819395 112.594756,9.64788013 C111.177531,9.64737051 111.055106,9.64359552 111.028296,9.59301278 L111.028296,9.59301278 L111.028499,9.59300209 Z M112.38695,2.01428635 C112.130465,1.92071364 111.916017,1.62385823 111.911986,1.35684984 C111.907708,1.10037507 112.168332,0.80331647 112.467401,0.72279047 C112.914721,0.602332984 113.391172,1.16229346 113.202348,1.58654678 C113.052589,1.92303425 112.67694,2.12009302 112.38695,2.01428635 L112.38695,2.01428635 Z M117.31297,9.75536945 C116.465822,9.67077972 115.828511,9.29863839 115.395756,8.63572654 C114.713895,7.59121983 114.81382,5.73359302 115.605766,4.73171269 C115.958679,4.28523719 116.527623,3.88443587 117.058517,3.70826252 C117.254677,3.64313591 117.33792,3.63479457 117.758259,3.63821666 C118.137234,3.64142487 118.287677,3.65607568 118.489805,3.71029438 C119.128976,3.88182653 119.473666,4.14967974 119.724483,4.66976221 C119.915906,5.0666923 119.96928,5.27733249 119.990957,5.72151946 C120.008281,6.07627232 120.006036,6.09396023 119.936097,6.16392054 L119.86327,6.23674684 L117.955767,6.21461021 L116.048274,6.19247358 L116.07041,6.51971072 C116.132756,7.44017744 116.407304,8.13805874 116.89262,8.60986839 C117.267253,8.97408545 117.616734,9.1214598 118.103515,9.12054011 C118.667304,9.11947071 119.094905,8.96724128 119.503791,8.6220168 C119.812474,8.36141413 119.794743,8.37076071 119.88668,8.41996391 C120.060126,8.51278804 120.026686,8.61652007 119.726558,8.91664785 C119.078842,9.56437419 118.257659,9.8497656 117.31296,9.75547639 L117.31297,9.75536945 Z M117.965081,5.72837433 C118.656322,5.70944591 118.745039,5.70099763 118.797194,5.64881079 C118.869379,5.57662613 118.871731,5.43689802 118.806819,5.06615759 C118.721266,4.57550508 118.536121,4.30827212 118.159392,4.13162823 C118.005195,4.05933663 117.938731,4.04778708 117.675498,4.04778708 C117.375359,4.04778708 117.36535,4.04992589 117.065864,4.19893642 C116.702288,4.37943015 116.55332,4.53177722 116.374228,4.90626055 C116.258946,5.14731454 116.119977,5.57887188 116.119977,5.69578964 C116.119977,5.74401969 116.17441,5.74947364 116.655534,5.74947364 C116.95009,5.74947364 117.539267,5.73984902 117.964825,5.72829947 L117.965081,5.72837433 Z" id="stq-tagline" fill="#000000" fill-rule="nonzero"></path>
    </g>
</svg>