<?xml version="1.0" encoding="UTF-8"?>
<svg  viewBox="0 0 90 18" version="1.1" xmlns="http://www.w3.org/2000/svg" xmlns:xlink="http://www.w3.org/1999/xlink">
    <title>Wiktionary</title>
            <g id="wikitionary" fill="#54595D" stroke="none"  fill-rule="evenodd">
                <path d="M20.223,1.805 C20.223,1.87700036 20.2005002,1.9429997 20.1555,2.003 C20.1104998,2.0630003 20.0610003,2.093 20.007,2.093 C19.5629978,2.13500021 19.2000014,2.27749879 18.918,2.5205 C18.6359986,2.76350122 18.3450015,3.22699658 18.045,3.911 L13.455,14.252 C13.4249999,14.3480005 13.3410007,14.396 13.203,14.396 C13.0949995,14.396 13.0110003,14.3480005 12.951,14.252 L10.377,8.87 L7.416,14.252 C7.3559997,14.3480005 7.27200054,14.396 7.164,14.396 C7.03199934,14.396 6.94500021,14.3480005 6.903,14.252 L2.394,3.911 C2.11199859,3.26899679 1.81500156,2.82050128 1.503,2.5655 C1.19099844,2.31049873 0.75600279,2.1530003 0.198,2.093 C0.14999976,2.093 0.10500021,2.06750026 0.063,2.0165 C0.02099979,1.96549975 0,1.90700033 0,1.841 C0,1.67299916 0.04799952,1.589 0.144,1.589 C0.54600201,1.589 0.96599781,1.60699982 1.404,1.643 C1.81200204,1.67900018 2.1959982,1.697 2.556,1.697 C2.92200183,1.697 3.35399751,1.67900018 3.852,1.643 C4.37400261,1.60699982 4.83599799,1.589 5.238,1.589 C5.33400048,1.589 5.382,1.67299916 5.382,1.841 C5.382,2.00900084 5.3520003,2.093 5.292,2.093 C4.88999799,2.12300015 4.57350116,2.22499913 4.3425,2.399 C4.11149884,2.57300087 3.996,2.80099859 3.996,3.083 C3.996,3.22700072 4.04399952,3.40699892 4.14,3.623 L7.866,12.038 L9.981,8.042 L8.01,3.911 C7.65599823,3.17299631 7.36500114,2.69750107 7.137,2.4845 C6.90899886,2.27149894 6.56400231,2.14100024 6.102,2.093 C6.05999979,2.093 6.01950019,2.06750026 5.9805,2.0165 C5.94149981,1.96549975 5.922,1.90700033 5.922,1.841 C5.922,1.67299916 5.96399958,1.589 6.048,1.589 C6.45000201,1.589 6.81899832,1.60699982 7.155,1.643 C7.47900162,1.67900018 7.82399817,1.697 8.19,1.697 C8.5500018,1.697 8.93099799,1.67900018 9.333,1.643 C9.74700207,1.60699982 10.154998,1.589 10.557,1.589 C10.6530005,1.589 10.701,1.67299916 10.701,1.841 C10.701,2.00900084 10.6710003,2.093 10.611,2.093 C9.80699598,2.14700027 9.405,2.37499799 9.405,2.777 C9.405,2.9570009 9.49799907,3.23599811 9.684,3.614 L10.989,6.26 L12.285,3.839 C12.4650009,3.49699829 12.555,3.20900117 12.555,2.975 C12.555,2.42299724 12.153004,2.12900018 11.349,2.093 C11.2769996,2.093 11.241,2.00900084 11.241,1.841 C11.241,1.7809997 11.2589998,1.72400027 11.295,1.67 C11.3310002,1.61599973 11.3669998,1.589 11.403,1.589 C11.6910014,1.589 12.0449979,1.60699982 12.465,1.643 C12.867002,1.67900018 13.1969987,1.697 13.455,1.697 C13.6410009,1.697 13.9139982,1.68200015 14.274,1.652 C14.7300023,1.60999979 15.1109985,1.589 15.417,1.589 C15.4890004,1.589 15.525,1.66099928 15.525,1.805 C15.525,1.99700096 15.4590007,2.093 15.327,2.093 C14.8589977,2.14100024 14.4825014,2.26999895 14.1975,2.48 C13.9124986,2.69000105 13.5570021,3.16699628 13.131,3.911 L11.403,7.106 L13.743,11.876 L17.199,3.839 C17.3190006,3.54499853 17.379,3.27500123 17.379,3.029 C17.379,2.44099706 16.977004,2.12900018 16.173,2.093 C16.1009996,2.093 16.065,2.00900084 16.065,1.841 C16.065,1.67299916 16.1189995,1.589 16.227,1.589 C16.5210015,1.589 16.868998,1.60699982 17.271,1.643 C17.6430019,1.67900018 17.9549987,1.697 18.207,1.697 C18.4710013,1.697 18.7769983,1.67900018 19.125,1.643 C19.4850018,1.60699982 19.8089986,1.589 20.097,1.589 C20.1810004,1.589 20.223,1.66099928 20.223,1.805 Z M22.51,2.975 C22.51,3.22700126 22.4185009,3.44599907 22.2355,3.632 C22.0524991,3.81800093 21.8320013,3.911 21.574,3.911 C21.3159987,3.911 21.0955009,3.81800093 20.9125,3.632 C20.7294991,3.44599907 20.638,3.22700126 20.638,2.975 C20.638,2.71099868 20.7279991,2.4890009 20.908,2.309 C21.0880009,2.1289991 21.3099987,2.039 21.574,2.039 C21.8320013,2.039 22.0524991,2.1289991 22.2355,2.309 C22.4185009,2.4890009 22.51,2.71099868 22.51,2.975 Z M23.77,13.856 C23.77,14.0240008 23.7220005,14.108 23.626,14.108 C23.3799988,14.108 23.0650019,14.0900002 22.681,14.054 C22.2489978,14.0179998 21.8860015,14 21.592,14 C21.2919985,14 20.9320021,14.0179998 20.512,14.054 C20.1339981,14.0900002 19.8220012,14.108 19.576,14.108 C19.4799995,14.108 19.432,14.0240008 19.432,13.856 C19.432,13.7059993 19.4799995,13.6250001 19.576,13.613 C20.0860026,13.5469997 20.4144993,13.4240009 20.5615,13.244 C20.7085007,13.0639991 20.782,12.6800029 20.782,12.092 L20.782,8.762 C20.782,8.2819976 20.7205006,7.96700075 20.5975,7.817 C20.4744994,7.66699925 20.2060021,7.56800024 19.792,7.52 C19.6959995,7.52 19.648,7.44200078 19.648,7.286 C19.648,7.14199928 19.6959995,7.07 19.792,7.07 C20.4220032,6.90799919 20.937998,6.73550092 21.34,6.5525 C21.742002,6.36949909 21.9939995,6.2180006 22.096,6.098 C22.1560003,6.02599964 22.2219996,5.99 22.294,5.99 C22.4620008,5.99 22.546,6.03799952 22.546,6.134 C22.4499995,7.47800672 22.402,8.52199628 22.402,9.266 L22.402,12.092 C22.402,12.6800029 22.4754993,13.0639991 22.6225,13.244 C22.7695007,13.4240009 23.1039974,13.5469997 23.626,13.613 C23.7220005,13.6250001 23.77,13.7059993 23.77,13.856 Z M33.841,13.856 C33.841,14.0240008 33.7930005,14.108 33.697,14.108 C33.4569988,14.108 33.1480019,14.0900002 32.77,14.054 C32.3559979,14.0179998 32.0020015,14 31.708,14 C31.4139985,14 31.0450022,14.0179998 30.601,14.054 C30.1869979,14.0900002 29.8600012,14.108 29.62,14.108 C29.5239995,14.108 29.476,14.0240008 29.476,13.856 C29.476,13.7059993 29.5239995,13.6250001 29.62,13.613 C29.7760008,13.5949999 29.8869997,13.5650002 29.953,13.523 C30.0190003,13.4809998 30.052,13.4000006 30.052,13.28 C30.052,13.0999991 29.7640029,12.7040031 29.188,12.092 L27.748,10.49 C27.6279994,10.3699994 27.466001,10.31 27.262,10.31 L27.262,12.092 C27.262,12.6200026 27.3264994,12.9949989 27.4555,13.217 C27.5845006,13.4390011 27.8259982,13.5709998 28.18,13.613 C28.2760005,13.6250001 28.324,13.7059993 28.324,13.856 C28.324,14.0240008 28.2760005,14.108 28.18,14.108 C27.9219987,14.108 27.5860021,14.0900002 27.172,14.054 C26.775998,14.0179998 26.4640011,14 26.236,14 C25.9779987,14 25.6660018,14.0179998 25.3,14.054 C24.9519983,14.0900002 24.6640011,14.108 24.436,14.108 C24.3399995,14.108 24.292,14.0240008 24.292,13.856 C24.292,13.7059993 24.3399995,13.6250001 24.436,13.613 C24.9400025,13.5589997 25.2669993,13.4405009 25.417,13.2575 C25.5670008,13.0744991 25.642,12.686003 25.642,12.092 L25.642,3.731 C25.642,3.24499757 25.5835006,2.92700075 25.4665,2.777 C25.3494994,2.62699925 25.0780021,2.52800024 24.652,2.48 C24.5559995,2.46799994 24.508,2.39300069 24.508,2.255 C24.508,2.09899922 24.5559995,2.021 24.652,2.021 C25.6780051,1.7809988 26.4369975,1.46300198 26.929,1.067 C27.0190005,0.99499964 27.0939997,0.959 27.154,0.959 C27.3220008,0.959 27.406,1.00699952 27.406,1.103 C27.3099995,2.08700492 27.262,3.13099448 27.262,4.235 L27.262,9.806 C27.4780011,9.806 27.6489994,9.74900057 27.775,9.635 L29.116,8.366 C29.1580002,8.32399979 29.2269995,8.26100042 29.323,8.177 C29.8210025,7.72699775 30.07,7.39400108 30.07,7.178 C30.07,7.02199922 29.8300024,6.9140003 29.35,6.854 C29.2539995,6.84199994 29.206,6.75800078 29.206,6.602 C29.206,6.43399916 29.2539995,6.35 29.35,6.35 C29.6020013,6.35 29.9199981,6.36799982 30.304,6.404 C30.6580018,6.44000018 30.9519988,6.458 31.186,6.458 C31.3600009,6.458 31.5849986,6.44300015 31.861,6.413 C32.1970017,6.37099979 32.4969987,6.35 32.761,6.35 C32.8570005,6.35 32.905,6.43399916 32.905,6.602 C32.905,6.75800078 32.8570005,6.84199994 32.761,6.854 C32.3229978,6.90200024 31.9405016,7.00399922 31.6135,7.16 C31.2864984,7.31600078 30.8440028,7.63999754 30.286,8.132 L28.738,9.5 L31.096,12.092 C31.5940025,12.6380027 32.0139983,13.012999 32.356,13.217 C32.6980017,13.421001 33.1449972,13.5529997 33.697,13.613 C33.7930005,13.6250001 33.841,13.7059993 33.841,13.856 Z M40.06,6.944 C40.06,7.26800162 39.9820008,7.43 39.826,7.43 L37.144,7.358 L37.144,11.678 C37.144,12.8060056 37.545996,13.37 38.35,13.37 C38.8480025,13.37 39.300998,13.2530012 39.709,13.019 C39.7570002,13.019 39.8004998,13.0504997 39.8395,13.1135 C39.8785002,13.1765003 39.898,13.2439996 39.898,13.316 C39.898,13.4660008 39.6745022,13.6684987 39.2275,13.9235 C38.7804978,14.1785013 38.2780028,14.306 37.72,14.306 C37.0359966,14.306 36.490002,14.0975021 36.082,13.6805 C35.673998,13.2634979 35.47,12.7130034 35.47,12.029 L35.47,11.948 L35.506,7.574 C35.506,7.40599916 35.4340007,7.322 35.29,7.322 L34.606,7.322 C34.4739993,7.322 34.408,7.24400078 34.408,7.088 C34.408,6.9679994 34.4619995,6.8780003 34.57,6.818 C35.4040042,6.32599754 36.1299969,5.63300447 36.748,4.739 C36.8140003,4.64299952 36.8979995,4.595 37,4.595 C37.1680008,4.595 37.252,4.64299952 37.252,4.739 L37.18,6.458 L39.826,6.458 C39.9820008,6.458 40.06,6.61999838 40.06,6.944 Z M44.02,2.975 C44.02,3.22700126 43.9285009,3.44599907 43.7455,3.632 C43.5624991,3.81800093 43.3420013,3.911 43.084,3.911 C42.8259987,3.911 42.6055009,3.81800093 42.4225,3.632 C42.2394991,3.44599907 42.148,3.22700126 42.148,2.975 C42.148,2.71099868 42.2379991,2.4890009 42.418,2.309 C42.5980009,2.1289991 42.8199987,2.039 43.084,2.039 C43.3420013,2.039 43.5624991,2.1289991 43.7455,2.309 C43.9285009,2.4890009 44.02,2.71099868 44.02,2.975 Z M45.28,13.856 C45.28,14.0240008 45.2320005,14.108 45.136,14.108 C44.8899988,14.108 44.5750019,14.0900002 44.191,14.054 C43.7589978,14.0179998 43.3960015,14 43.102,14 C42.8019985,14 42.4420021,14.0179998 42.022,14.054 C41.6439981,14.0900002 41.3320012,14.108 41.086,14.108 C40.9899995,14.108 40.942,14.0240008 40.942,13.856 C40.942,13.7059993 40.9899995,13.6250001 41.086,13.613 C41.5960026,13.5469997 41.9244993,13.4240009 42.0715,13.244 C42.2185007,13.0639991 42.292,12.6800029 42.292,12.092 L42.292,8.762 C42.292,8.2819976 42.2305006,7.96700075 42.1075,7.817 C41.9844994,7.66699925 41.7160021,7.56800024 41.302,7.52 C41.2059995,7.52 41.158,7.44200078 41.158,7.286 C41.158,7.14199928 41.2059995,7.07 41.302,7.07 C41.9320032,6.90799919 42.447998,6.73550092 42.85,6.5525 C43.252002,6.36949909 43.5039995,6.2180006 43.606,6.098 C43.6660003,6.02599964 43.7319996,5.99 43.804,5.99 C43.9720008,5.99 44.056,6.03799952 44.056,6.134 C43.9599995,7.47800672 43.912,8.52199628 43.912,9.266 L43.912,12.092 C43.912,12.6800029 43.9854993,13.0639991 44.1325,13.244 C44.2795007,13.4240009 44.6139974,13.5469997 45.136,13.613 C45.2320005,13.6250001 45.28,13.7059993 45.28,13.856 Z M54.541,10.274 C54.541,11.468006 54.1525039,12.4504961 53.3755,13.2215 C52.5984961,13.9925039 51.5920062,14.378 50.356,14.378 C49.1199938,14.378 48.1120039,13.9910039 47.332,13.217 C46.5519961,12.4429961 46.162,11.4620059 46.162,10.274 C46.162,9.06799397 46.5549961,8.06450401 47.341,7.2635 C48.1270039,6.462496 49.1319939,6.062 50.356,6.062 C51.5860062,6.062 52.5909961,6.46099601 53.371,7.259 C54.1510039,8.05700399 54.541,9.06199394 54.541,10.274 Z M52.732,10.256 C52.732,9.15799451 52.5205021,8.28050329 52.0975,7.6235 C51.6744979,6.96649672 51.0940037,6.638 50.356,6.638 C49.6239963,6.638 49.0450021,6.9679967 48.619,7.628 C48.1929979,8.2880033 47.98,9.16399454 47.98,10.256 C47.98,11.3420054 48.1899979,12.2044968 48.61,12.8435 C49.0300021,13.4825032 49.6119963,13.802 50.356,13.802 C51.1000037,13.802 51.6819979,13.4855032 52.102,12.8525 C52.5220021,12.2194968 52.732,11.3540055 52.732,10.256 Z M64.945,13.856 C64.945,14.0240008 64.8970005,14.108 64.801,14.108 C64.5609988,14.108 64.2670017,14.0900002 63.919,14.054 C63.5349981,14.0179998 63.1960015,14 62.902,14 C62.6019985,14 62.257002,14.0179998 61.867,14.054 C61.5129982,14.0900002 61.2160012,14.108 60.976,14.108 C60.8799995,14.108 60.832,14.0240008 60.832,13.856 C60.832,13.7059993 60.8799995,13.6250001 60.976,13.613 C61.3900021,13.5649998 61.6614994,13.4480009 61.7905,13.262 C61.9195006,13.0759991 61.984,12.686003 61.984,12.092 L61.984,9.086 C61.984,8.41399664 61.8520013,7.92200156 61.588,7.61 C61.3239987,7.29799844 60.9160028,7.142 60.364,7.142 C60.0159983,7.142 59.7085013,7.20799934 59.4415,7.34 C59.1744987,7.47200066 58.8880015,7.70599832 58.582,8.042 L58.582,12.092 C58.582,12.686003 58.6464994,13.0759991 58.7755,13.262 C58.9045006,13.4480009 59.1759979,13.5649998 59.59,13.613 C59.6860005,13.6250001 59.734,13.7059993 59.734,13.856 C59.734,14.0240008 59.6860005,14.108 59.59,14.108 C59.3439988,14.108 59.0440018,14.0900002 58.69,14.054 C58.2999981,14.0179998 57.9580015,14 57.664,14 C57.3759986,14 57.0400019,14.0179998 56.656,14.054 C56.3019982,14.0900002 56.0020012,14.108 55.756,14.108 C55.6599995,14.108 55.612,14.0240008 55.612,13.856 C55.612,13.7059993 55.6599995,13.6250001 55.756,13.613 C56.2720026,13.5469997 56.6049993,13.4225009 56.755,13.2395 C56.9050008,13.0564991 56.98,12.6740029 56.98,12.092 L56.98,8.762 C56.98,8.2819976 56.9185006,7.96700075 56.7955,7.817 C56.6724994,7.66699925 56.3980021,7.56800024 55.972,7.52 C55.8759995,7.52 55.828,7.44200078 55.828,7.286 C55.828,7.14199928 55.8759995,7.07 55.972,7.07 C56.566003,6.91999925 57.060998,6.75050095 57.457,6.5615 C57.853002,6.37249906 58.1019995,6.2180006 58.204,6.098 C58.2640003,6.02599964 58.3299996,5.99 58.402,5.99 C58.5700008,5.99 58.654,6.03799952 58.654,6.134 L58.582,7.268 C59.4460043,6.46399598 60.2499963,6.062 60.994,6.062 C61.8100041,6.062 62.4474977,6.29599766 62.9065,6.764 C63.3655023,7.23200234 63.595,7.86199604 63.595,8.654 L63.595,12.092 C63.595,12.6800029 63.6684993,13.0639991 63.8155,13.244 C63.9625007,13.4240009 64.2909975,13.5469997 64.801,13.613 C64.8970005,13.6250001 64.945,13.7059993 64.945,13.856 Z M71.47,14.306 C71.1339983,14.306 70.8415012,14.2235008 70.5925,14.0585 C70.3434988,13.8934992 70.1740005,13.6700014 70.084,13.388 C69.4419968,14.0480033 68.6020052,14.378 67.564,14.378 C67.0239973,14.378 66.5830017,14.2115017 66.241,13.8785 C65.8989983,13.5454983 65.728,13.1300025 65.728,12.632 C65.728,11.4019939 67.1859854,10.4060038 70.102,9.644 L70.156,8.24 L70.156,8.195 C70.156,7.76299784 70.0495011,7.41950128 69.8365,7.1645 C69.6234989,6.90949872 69.3400018,6.782 68.986,6.782 C68.6319982,6.782 68.3320012,6.86749915 68.086,7.0385 C67.8399988,7.20950086 67.714,7.42399871 67.708,7.682 C67.702,8.06600192 67.601501,8.36599892 67.4065,8.582 C67.211499,8.79800108 66.9520016,8.906 66.628,8.906 C66.435999,8.906 66.2800006,8.84900057 66.16,8.735 C66.0399994,8.62099943 65.98,8.46800096 65.98,8.276 C65.98,7.81399769 66.3999958,7.32950254 67.24,6.8225 C68.0800042,6.31549746 68.8599964,6.062 69.58,6.062 C70.2280032,6.062 70.752998,6.25399808 71.155,6.638 C71.557002,7.02200192 71.758,7.53799676 71.758,8.186 L71.758,8.294 L71.632,12.362 L71.632,12.425 C71.632,13.0550032 71.835998,13.37 72.244,13.37 C72.442001,13.37 72.6729987,13.2500012 72.937,13.01 L73,12.992 C73.0480002,12.992 73.0929998,13.0234997 73.135,13.0865 C73.1770002,13.1495003 73.198,13.2169996 73.198,13.289 C73.198,13.4630009 73.0165018,13.6759987 72.6535,13.928 C72.2904982,14.1800013 71.8960021,14.306 71.47,14.306 Z M70.084,10.256 C68.3319912,10.652002 67.456,11.3059954 67.456,12.218 C67.456,13.0700043 67.7859967,13.496 68.446,13.496 C68.7640016,13.496 69.0774985,13.4165008 69.3865,13.2575 C69.6955015,13.0984992 69.9039995,12.9020012 70.012,12.668 L70.084,10.256 Z M79.768,6.962 C79.768,7.2020012 79.6945007,7.40599916 79.5475,7.574 C79.4004993,7.74200084 79.2220011,7.826 79.012,7.826 C78.7479987,7.826 78.4870013,7.73900087 78.229,7.565 C78.024999,7.42699931 77.8480008,7.358 77.698,7.358 C77.3079981,7.358 76.9060021,7.58599772 76.492,8.042 L76.492,12.092 C76.492,12.6140026 76.5819991,12.978499 76.762,13.1855 C76.9420009,13.392501 77.3259971,13.5349996 77.914,13.613 C78.0100005,13.6250001 78.058,13.7059993 78.058,13.856 C78.058,14.0240008 78.0100005,14.108 77.914,14.108 C77.6679988,14.108 77.3200023,14.0900002 76.87,14.054 C76.3719975,14.0179998 75.9760015,14 75.682,14 C75.3819985,14 75.0190021,14.0179998 74.593,14.054 C74.2089981,14.0900002 73.8940012,14.108 73.648,14.108 C73.5519995,14.108 73.504,14.0240008 73.504,13.856 C73.504,13.7059993 73.5519995,13.6250001 73.648,13.613 C74.1700026,13.5469997 74.5044993,13.4240009 74.6515,13.244 C74.7985007,13.0639991 74.872,12.6800029 74.872,12.092 L74.872,8.762 C74.872,8.2819976 74.8105006,7.96700075 74.6875,7.817 C74.5644994,7.66699925 74.2900021,7.56800024 73.864,7.52 C73.7679995,7.52 73.72,7.44200078 73.72,7.286 C73.72,7.14199928 73.7679995,7.07 73.864,7.07 C74.458003,6.91999925 74.9484981,6.75350092 75.3355,6.5705 C75.7225019,6.38749909 75.9759994,6.23000066 76.096,6.098 C76.1680004,6.02599964 76.2399996,5.99 76.312,5.99 C76.4800008,5.99 76.564,6.03799952 76.564,6.134 L76.492,7.268 C76.9720024,6.82399778 77.3844983,6.5120009 77.7295,6.332 C78.0745017,6.1519991 78.4179983,6.062 78.76,6.062 C79.0360014,6.062 79.272999,6.1519991 79.471,6.332 C79.669001,6.5120009 79.768,6.7219988 79.768,6.962 Z M89.552,6.602 C89.552,6.75800078 89.5040005,6.84199994 89.408,6.854 C88.999998,6.89600021 88.6865011,7.01449903 88.4675,7.2095 C88.2484989,7.40450098 88.0070013,7.78999712 87.743,8.366 L83.495,17.546 C83.0209976,18.5300049 82.4690032,19.022 81.839,19.022 C81.5329985,19.022 81.2885009,18.9395008 81.1055,18.7745 C80.9224991,18.6094992 80.831,18.3980013 80.831,18.14 C80.831,17.8699987 80.9224991,17.6495009 81.1055,17.4785 C81.2885009,17.3074991 81.5329985,17.222 81.839,17.222 C81.9830007,17.222 82.1479991,17.2669996 82.334,17.357 C82.4540006,17.4110003 82.5409997,17.438 82.595,17.438 C82.8170011,17.438 83.0779985,17.1020034 83.378,16.43 L84.467,14 L82.145,8.366 C81.9229989,7.81999727 81.6995011,7.44350104 81.4745,7.2365 C81.2494989,7.02949897 80.9450019,6.90200024 80.561,6.854 C80.4649995,6.84199994 80.417,6.75800078 80.417,6.602 C80.417,6.43399916 80.4649995,6.35 80.561,6.35 C80.8070012,6.35 81.1069982,6.36799982 81.461,6.404 C81.857002,6.44000018 82.2049985,6.458 82.505,6.458 C82.7990015,6.458 83.1649978,6.44000018 83.603,6.404 C83.993002,6.36799982 84.3109988,6.35 84.557,6.35 C84.6530005,6.35 84.701,6.43399916 84.701,6.602 C84.701,6.75800078 84.6530005,6.84199994 84.557,6.854 C83.9209968,6.93200039 83.603,7.11199859 83.603,7.394 C83.603,7.59200099 83.6899991,7.91599775 83.864,8.366 L85.331,12.128 L86.933,8.366 C87.0770007,8.02399829 87.149,7.74200111 87.149,7.52 C87.149,7.14199811 86.8610029,6.91700036 86.285,6.845 C86.1889995,6.83299994 86.141,6.75200075 86.141,6.602 C86.141,6.43399916 86.1889995,6.35 86.285,6.35 C86.5370013,6.35 86.8159985,6.36799982 87.122,6.404 C87.4160015,6.44000018 87.6829988,6.458 87.923,6.458 C88.0430006,6.458 88.2379987,6.44300015 88.508,6.413 C88.8800019,6.37099979 89.1799989,6.35 89.408,6.35 C89.5040005,6.35 89.552,6.43399916 89.552,6.602 Z" id="Wiktionary"></path>
            </g>

</svg>