<svg xmlns="http://www.w3.org/2000/svg" viewBox="0 0 140 28.209"><path fill="#0d64c0" d="M122.69 28.176c-1.72-.176-3.07-1.11-3.398-2.348-.078-.285-.082-.762-.012-1.02.109-.413.28-.73.586-1.093.176-.207.227-.344.207-.543a.64.64 0 0 0-.367-.539l-.102-.047-3.797-.004-3.797-.008.004-3.797.008-3.796.047-.09a.67.67 0 0 1 .57-.348c.176 0 .29.05.492.223.508.426 1.01.625 1.586.625.992 0 1.89-.656 2.434-1.781.328-.672.477-1.36.48-2.188 0-.82-.152-1.52-.48-2.191-.445-.918-1.14-1.54-1.926-1.727a2.7 2.7 0 0 0-.898-.02c-.445.083-.801.259-1.196.59-.203.172-.316.223-.492.223a.67.67 0 0 1-.57-.348l-.047-.09-.008-3.796-.004-3.797 3.797.004 3.797.007.121.067c.141.078.23.18.29.336.085.23.038.449-.15.664a2.65 2.65 0 0 0-.593 1.078c-.047.18-.059.273-.062.52 0 .171.011.354.027.43.184.858.789 1.56 1.742 2.026.934.457 2.11.598 3.2.395.886-.168 1.62-.531 2.187-1.082.312-.301.492-.57.644-.945.117-.293.152-.535.137-.891-.023-.57-.195-.992-.613-1.488-.172-.203-.223-.316-.223-.489 0-.188.07-.34.207-.468.2-.176-.12-.164 4.09-.164h3.758V7.84l.05.11a.62.62 0 0 0 .586.366c.195 0 .312-.05.524-.23 1.27-1.06 2.84-.723 3.797.824.316.516.559 1.26.633 1.95.015.12.023.37.023.562a5 5 0 0 1-.254 1.625c-.406 1.22-1.23 2.07-2.223 2.281a2.3 2.3 0 0 1-1-.035 2.7 2.7 0 0 1-.992-.555c-.203-.172-.3-.21-.504-.21a.61.61 0 0 0-.59.363l-.05.113v7.57l-3.809.008-3.809.004-.117.058a.65.65 0 0 0-.343.579c0 .16.043.28.14.406.441.555.574.8.668 1.246.059.297.043.727-.039 1.004-.355 1.21-1.66 2.11-3.312 2.289-.195.02-.875.027-1.055.008zm4.625-8.644c.695-.11 1.32-.466 1.918-1.083.691-.71 1.04-1.43 1.11-2.312.058-.672-.079-1.14-.454-1.54-.266-.28-.598-.444-1.054-.526-.363-.063-1.11-.024-1.797.093-.11.02-.203.028-.207.024-.012-.012.266-.836.504-1.504l.093-.262.145.016c.707.066 1.87.07 2.644.011.305-.023.56-.039.563-.035.012.004.438-.988.5-1.16.008-.023-.031-.058-.125-.121l-.133-.086-.734.078c-.668.067-.79.074-1.407.074a9 9 0 0 1-1.207-.062 8 8 0 0 0-.539-.047c-.004.008-.32.922-.699 2.04-.473 1.39-.68 2.03-.66 2.034.012.004.293-.054.621-.129.81-.184.902-.199 1.234-.203.254-.004.301 0 .418.047.234.094.406.316.489.63.043.175.043.632 0 .94-.09.618-.371 1.41-.653 1.829-.273.418-.656.672-1.007.672-.246 0-.36-.105-.575-.547-.102-.211-.168-.312-.234-.371-.242-.22-.652-.285-.992-.16a.93.93 0 0 0-.418.398.76.76 0 0 0-.035.508c.074.266.406.516.86.644.53.152 1.29.2 1.831.11m-2.98-2.711c.163-.367.522-1.28.523-1.336 0-.008-.598-.293-.621-.293a.6.6 0 0 0-.117.136 2 2 0 0 1-.559.52c-.254.133-.3.137-1.309.137h-.91l.043-.11c.117-.297.29-.57.508-.804.055-.059.586-.5 1.184-.973 1.59-1.27 1.96-1.61 2.3-2.082.43-.609.54-.926.54-1.555 0-.332-.04-.527-.157-.765-.148-.305-.383-.523-.761-.715-.305-.152-.59-.22-1.028-.238a3.9 3.9 0 0 0-1.867.378c-.469.223-.96.625-1.207.977-.383.555-.367 1.11.035 1.324.117.059.152.067.328.063.188 0 .215-.004.368-.078a1.02 1.02 0 0 0 .457-.418c.062-.121.062-.125.062-.508s0-.387.063-.488c.156-.27.59-.555.945-.633.402-.082.66.027.887.379.156.238.184.379.183.863 0 .312-.012.473-.039.617-.129.645-.398 1.14-.879 1.629-.125.129-.648.582-1.16 1.004-1.99 1.66-2.55 2.17-2.793 2.601-.074.133-.102.238-.125.485l-.012.164 2.496-.004 2.497-.008z"/><path d="M57.93 2.922h8.871c-.105 1.57-.21 3.03-.418 4.594H64.4l-3.13-1.254v16.492h.415c1.25 0 2.4-.625 2.402-.942v-1.25h9.707v1.98h.418c1.04 0 2.4-.624 2.399-.73V8.453c.523-.102.836-.312.941-.52L74.836 5.95l-1.355 1.567h-6.473c1.25-1.25 2.4-2.92 3.34-4.594h9.5q.468 0 .625-.312L77.445.418l-1.773 1.985H57.93zM28.91 18.789c4.07-1.25 7.41-3.24 9.188-5.95h5.738c1.57 2.4 4.07 4.7 6.785 5.739.105-1.25.73-2.09 1.773-3.027v-.207c-2.61-.211-5.95-1.04-7.93-2.504h7.098q.468 0 .625-.317l-2.609-2.191-1.566 1.984h-1.668V3.758h4.59q.468 0 .628-.313l-2.507-1.984-1.461 1.879h-1.25V1.043c.625-.105.832-.312.937-.625L43.523.105v3.13h-6.261V1.042c.625-.105.836-.312.836-.625L34.445.105v3.13h-4.804l.105.523h4.7v8.558h-5.743l.207.524h5.535c-1.25 2.19-3.34 4.38-5.847 5.738zm56.781-.73c1.57-1.25 3.03-2.82 4.281-4.594v9.289h.414c1.36 0 2.2-.523 2.196-.73V10.018c.73 1.25 1.46 2.61 1.668 3.758.21.312.625.418.941.418.625 0 1.14-.523 1.144-1.254 0-1.04-.938-2.3-3.753-3.234V8.246h3.546q.47 0 .625-.313L94.355 5.95l-1.254 1.879h-.52V3.234c.833-.207 1.56-.312 2.399-.52.312.102.625.207.941.208.207 0 .414 0 .625-.106L93.52.206c-1.88 1.25-5.01 2.82-7.723 3.758v.211c1.25-.105 2.71-.21 4.07-.418v4.07h-3.968l.105.524h3.551c-.836 3.44-2.19 7.1-4.176 9.602zm9.184-1.567.21.52 8.036-1.563v7.305h.418c1.04 0 2.19-.625 2.191-.836v-6.992l3.34-.625c.312-.105.523-.211.523-.317l-2.402-1.875-1.148 2.192-.414.101V1.566c.625-.105.832-.312.832-.629l-3.34-.414V14.82zm-21.188-2.508v5.953H63.98v-5.953zm-9.602-.52v-5.53h9.707v5.53zM30.37 22.23h19.938c.312 0 .523-.102.625-.312l-3.129-2.297-1.777 2.09h-4.278v-3.653h4.696q.472 0 .629-.316l-2.508-1.879-1.461 1.879H41.75v-2.398c.625-.105.836-.211.835-.524l-3.757-.52v3.235H33.92l.106.523h4.8v3.653h-8.769zM43.522 9.707v2.504H37.26V9.707zm-6.156-2.922h6.261v2.61h-6.261zm6.156-3.027v2.504H37.26V3.758zm55.84 2.922c.316.211.73.418 1.047.418.73 0 1.25-.625 1.25-1.356 0-1.15-1.15-2.4-4.383-3.027l-.105.207c.94.941 1.98 2.5 2.191 3.758m-.418 5.95c.316.21.734.311 1.047.312.73 0 1.36-.625 1.355-1.356 0-1.04-1.15-2.4-4.382-2.82l-.211.21c.94.837 1.88 2.3 2.191 3.653M3.026 5.218c1.04-1.04 2.4-2.3 3.34-3.652.523 0 .836-.211.937-.524L3.963 0c-.417 1.67-1.04 3.45-1.562 4.801-.523-.312-1.25-.52-2.09-.73l-.105.21c.94.833 1.78 2.19 1.984 3.442 1.57 1.04 2.92-1.04.836-2.504M4.592 22.86c1.04 0 1.88-.523 1.88-.629v-10.75l1.042-.312c.207.625.312 1.15.313 1.773 1.46 1.36 3.13-.73 1.148-2.71.73-.63 1.36-1.46 1.985-2.196v14.926h.414c1.15 0 1.98-.625 1.984-.832V20.98h9.813q.468 0 .625-.312c-1.57-1.36-2.4-1.98-2.399-1.985l-1.36 1.88h-1.46v-4.801h3.863q.468 0 .625-.313c-1.46-1.25-2.19-1.88-2.191-1.879l-1.149 1.774h-1.043V10.75h3.86q.472 0 .629-.313c-1.57-1.25-2.3-1.88-2.297-1.879l-1.254 1.672h-1.043V5.845h4.281q.468.002.625-.313c-1.57-1.36-2.4-1.98-2.402-1.984l-1.356 1.879H17.01c.836-1.04 1.98-2.61 2.61-3.653.523 0 .94-.207 1.047-.52l-3.551-.73c-.207 1.46-.523 3.65-.938 5.008H13.57l-.73-.207a37 37 0 0 0 1.879-3.55c.625 0 .832-.208.937-.52L12.21.208c-.73 3.55-2.09 7.2-3.653 9.605-.418-.629-1.04-1.05-1.878-1.36l-.106.212c.316.52.523 1.25.836 1.879-1.25.102-2.61.102-3.652.207 1.88-1.98 3.86-4.59 5.113-6.262.523 0 .836-.105 1.043-.418L6.784 2.923c-.94 2.3-2.4 5.43-3.863 7.828-1.15 0-2.09.105-2.715.105l.836 2.399c.21 0 .523-.207.629-.52.832-.21 1.67-.418 2.398-.625v2.711l-2.715-.625c-.207 2.4-.625 4.8-1.355 6.68l.312.207c1.25-1.46 2.3-3.44 2.922-5.633.312 0 .63-.105.73-.316v7.828zm11.586-12.734h-2.82V5.845h2.82zm0 5.113h-2.82v-4.594h2.82zm-8.976-1.254-.211.106c.523 1.25 1.04 3.03 1.043 4.488 1.67 1.77 3.86-1.77-.832-4.594m8.976 6.473h-2.82v-4.8h2.82z"/></svg>