<?xml version="1.0" encoding="UTF-8" standalone="no"?><svg xmlns="http://www.w3.org/2000/svg" viewBox="0 0 79 22" id="svg5122"><g transform="matrix(.7756 0 0 .72746 -11.4 -84.266)" style="line-height:125%;-inkscape-font-specification:FreeFarsi;text-align:start" id="text3412" font-weight="400" font-size="36.348" font-family="FreeFarsi" fill="#54595d"><path d="M112.989 133.3c-.071-.485-.32-1.248-.746-2.29-.65-1.005-1.218-1.508-1.703-1.508a2.172 2.172 0 0 0-1.172 1.047c-.023.06-.047.113-.07.16-.107.45-.16.858-.16 1.224l.017.444c.06.615.272 1.041.64 1.278a.222.222 0 0 0 .088.053 4.62 4.62 0 0 0 1.118.124c.84 0 1.503-.177 1.988-.532m-2.503-6.265c.474 0 .829.06 1.065.178.604.307 1.148.786 1.633 1.437.532.675 1.018 1.544 1.455 2.609.284.639.52 1.49.71 2.556l.036.284.053 1.171-.089 1.384-.053.515c-.142.923-.438 1.9-.887 2.928-.379.923-.982 1.876-1.81 2.858-.426.568-1.036 1.094-1.829 1.58l-.567.301c-.474.19-1.048.284-1.722.284-.556 0-1.248-.112-2.077-.337-.437-.083-1.295-.39-2.573-.923l-.177-.071.39-.905 3.372-.018h.142c.13 0 .396-.065.799-.195.662-.237 1.378-.663 2.147-1.278.308-.248.823-.78 1.544-1.597.627-.793 1.112-1.509 1.456-2.148.2-.473.301-.834.301-1.082 0-.237-.059-.486-.177-.746-.568.379-1.455.562-2.662.55-.45 0-.823-.023-1.118-.07-.616-.036-1.195-.296-1.74-.782a1.611 1.611 0 0 1-.284-.284c-.32-.39-.544-.976-.674-1.757a2.741 2.741 0 0 1-.053-.496l-.036-.728a8.98 8.98 0 0 1 .249-1.917c.106-.544.42-1.142.94-1.792.119-.154.237-.284.355-.39.237-.285.592-.569 1.065-.853.32-.177.592-.266.817-.266" id="path3513"/><path d="M93.324 136.495h4.473c.757 0 1.384-.119 1.881-.355a4.724 4.724 0 0 0 1.331-.959c.343-.366.574-.822.692-1.366.071-.32.107-.686.107-1.1a9.56 9.56 0 0 0-.018-.55 12.56 12.56 0 0 0-.408-2.84 9.876 9.876 0 0 0-.763-2.06c-.367-.697-.704-1.242-1.012-1.632l-1.189 2.928c.047.048.313.592.799 1.633.461.982.727 1.61.798 1.881l.054.497-.036.213c-.201.39-.929.586-2.183.586h-4.526v3.124m6.123 5.963l2.414 1.633-1.562 1.987-2.413-1.561 1.561-2.06m-4.295 0l2.414 1.634-1.562 1.987-2.413-1.561 1.561-2.06" id="path3515"/><path d="M89.242 136.495h4.065v-3.124h-1.172c-.331 0-.704-.248-1.118-.745l-.266-.32c-1.124-1.42-1.846-2.301-2.165-2.644a24.75 24.75 0 0 0-2.645-2.45l-3.904-3.159-.426-.372 10.063-4.455v-2.485l-7.65 3.301c-.946.438-1.774.84-2.484 1.207-1.16.805-1.828 1.592-2.006 2.36l-.053.87.089 1.154.088.532 1.9 1.491c.319.225.644.414.976.568h1.064c1.089.793 1.994 1.55 2.716 2.272l.07.07c.865.83 1.338 1.444 1.42 1.847l.018.337c-.07.414-.461.621-1.17.621h-7.455v3.124h10.045" id="path3517"/><path d="M75.914 136.495H68.477v-3.124H75.24v-.515c-.059-.639-.177-1.171-.355-1.597l-1.26-2.644c.071-.272.444-1.237 1.118-2.893a.684.684 0 0 1 .036-.089c.426.497.917 1.438 1.473 2.822l.302.87c.153.532.319 1.218.497 2.058l.248 1.35c.012.07.03.123.053.159.119.32.408.48.87.48h.976v3.123h-3.283m-1.314 5.963l2.414 1.633-1.562 1.988-2.414-1.562 1.562-2.059m-4.295 0l2.414 1.633-1.562 1.988-2.413-1.562 1.561-2.059" id="path3519"/><path d="M65.194 136.495h-7.436v-3.124h6.762v-.515c-.06-.639-.178-1.171-.355-1.597l-1.26-2.644c.07-.272.443-1.237 1.118-2.893a.682.682 0 0 1 .035-.089c.426.497.917 1.438 1.473 2.822l.302.87c.154.532.32 1.218.497 2.058l.248 1.35c.012.07.03.123.054.159.118.32.408.48.87.48h.975v3.123h-3.283m-3.141 3.886l2.892 2.041-1.863 2.396-2.91-1.88 1.88-2.557" id="path3521"/><path d="M54.474 136.495h-7.436v-3.124H53.8v-.515c-.06-.639-.178-1.171-.355-1.597l-1.26-2.644c.07-.272.443-1.237 1.118-2.893a.682.682 0 0 1 .035-.089c.426.497.917 1.438 1.473 2.822l.302.87c.154.532.32 1.218.497 2.058l.249 1.35c.011.07.03.123.053.159.118.32.408.48.87.48h.976v3.123h-3.284m-1.313 5.963l2.414 1.633-1.562 1.988-2.414-1.562 1.562-2.059m-4.295 0l2.414 1.633-1.562 1.988-2.414-1.562 1.562-2.059" id="path3523"/><path d="M47.056 136.495v-3.124h-.888c-.106 0-.254-.29-.443-.87a2.564 2.564 0 0 1-.107-.372l-.799-2.325a15.641 15.641 0 0 0-.638-1.491c-.829-1.645-1.93-3.266-3.302-4.863a35.571 35.571 0 0 0-.87-.94c-.283.757-.644 1.786-1.082 3.087 1.124.781 2.219 1.894 3.284 3.337.556.852 1.029 1.686 1.42 2.503.189.532.283.875.283 1.029l-.053.32-.16.266c-.236.213-.692.32-1.366.32h-5.609c-.473 0-.81-.072-1.011-.214a1.941 1.941 0 0 1-.39-.355c-.072-.083-.13-.272-.178-.568-.024-.095-.036-.337-.036-.727a8.792 8.792 0 0 0-.426.496 1.558 1.558 0 0 0-.248.657l-.036.923.018.302c.06.438.166.834.32 1.189.177.414.384.716.62.905.403.343.847.515 1.332.515h10.365" id="path3525"/><path d="M22.333 136.495h4.472c.758 0 1.385-.119 1.882-.355a4.724 4.724 0 0 0 1.33-.959c.344-.366.575-.822.693-1.366.07-.32.106-.686.106-1.1 0-.166-.006-.35-.017-.55a12.558 12.558 0 0 0-.409-2.84 9.876 9.876 0 0 0-.763-2.06c-.367-.697-.704-1.242-1.011-1.632l-1.19 2.928c.048.048.314.592.8 1.633.46.982.727 1.61.798 1.881l.053.497-.035.213c-.202.39-.93.586-2.183.586h-4.526v3.124m6.123 5.963l2.414 1.633-1.562 1.987-2.414-1.561 1.562-2.06m-4.295 0l2.414 1.634-1.562 1.987-2.414-1.561 1.562-2.06" id="path3527"/><path d="M19.822 131.987l-.337-2.645a280.63 280.63 0 0 0-.48-4.188c-.117-1.006-.372-2.556-.762-4.65-.39-2.059-.757-3.508-1.1-4.348l-.143-.32-1.65 3.372c.343.675.562 1.243.657 1.704a.52.52 0 0 0 .017.124l.657 3.603c.035.213.065.426.089.639.2 1.621.343 2.923.426 3.905.118 1.514.26 2.91.426 4.188.059.45.177.94.355 1.473.106.343.33.704.674 1.083l.089.088c.355.308.834.468 1.437.48h2.166v-3.124h-1.846c-.249 0-.456-.373-.621-1.118a1.763 1.763 0 0 1-.054-.266" id="path3529"/></g></svg>