<?xml version="1.0" encoding="UTF-8"?>
<svg width="119px" height="13px" viewBox="0 0 119 13" version="1.1" xmlns="http://www.w3.org/2000/svg" xmlns:xlink="http://www.w3.org/1999/xlink">
    <title>ast-tagline</title>
    <g id="Page-1" stroke="none" stroke-width="1" fill="none" fill-rule="evenodd">
        <path d="M1.7485,9.074 L4.5045,9.074 C4.8685,9.074 6.0645,9.1 6.0645,9.1 C6.1945,8.45 6.3245,7.605 6.4025,6.929 C6.2725,6.877 6.1295,6.851 5.9735,6.864 C5.7135,7.8 5.362499,8.567 4.3745,8.567 L2.9055,8.567 C2.5285,8.567 2.2945,8.32 2.2945,7.917 L2.2945,2.275 C2.2945,1.196 2.515501,1.131 3.4255,1.092 C3.5035,1.014 3.5035,0.741 3.4255,0.663 C2.788501,0.676 2.398499,0.689 1.7355,0.689 C1.0855007,0.689 0.7084994,0.676 0.0585,0.663 C-0.0195,0.741 -0.0195,1.014 0.0585,1.092 C0.9684991,1.131 1.1895,1.196 1.1895,2.275 L1.1895,7.488 C1.1895,8.567 0.9684991,8.632 0.0585,8.671 C-0.0195,8.749 -0.0195,9.022 0.0585,9.1 C0.6954994,9.087 1.7485,9.074 1.7485,9.074 M10.776578,6.045 L10.776578,7.774 C10.776578,7.943 10.698578,8.034 10.594578,8.112 C10.256579,8.385 9.814578,8.671 9.450578,8.671 C8.800579,8.671 8.514578,8.151 8.514578,7.748 C8.514578,7.163 8.787579,6.578 9.749578,6.318 L10.776578,6.045 M10.776578,8.45 C10.854578,8.723 11.075579,9.204 11.777578,9.204 C12.414578,9.204 12.882578,8.684 12.882578,8.619 C12.882578,8.528 12.765578,8.398 12.713578,8.398 C12.635578,8.398 12.583578,8.606 12.310578,8.606 C11.803579,8.606 11.790578,8.099 11.790578,7.501 L11.790578,5.564 C11.790578,3.718 10.776577,3.367 9.827578,3.367 C8.761579,3.367 7.682578,4.108 7.682578,4.81 C7.682578,5.122 7.838579,5.265 8.137578,5.265 C8.514578,5.265 8.709578,5.005 8.709578,4.836 C8.709578,4.745 8.696578,4.654 8.670578,4.602 C8.657578,4.563 8.644578,4.485 8.644578,4.342 C8.644578,3.939 9.229579,3.796 9.723578,3.796 C10.165578,3.796 10.776578,4.017 10.776578,5.486 C10.776578,5.577 10.737578,5.629 10.698578,5.642 L9.580578,5.915 C8.33258,6.227 7.435578,6.916 7.435578,7.8 C7.435578,8.827 8.163579,9.204 9.073578,9.204 C9.671578,9.204 9.918579,9.1 10.490578,8.658 L10.750578,8.45 L10.776578,8.45 M18.370984,5.408 C18.617984,3.939 19.527984,3.822 19.839984,3.822 C20.333983,3.822 20.918984,4.095 20.918984,5.187 C20.918984,5.304 20.866984,5.369 20.723984,5.369 L18.370984,5.408 M21.776984,7.865 C21.295984,8.359 20.918983,8.567 20.164984,8.567 C19.696984,8.567 19.150984,8.294 18.747984,7.631 C18.487984,7.202 18.331984,6.604 18.331984,5.85 L21.789984,5.876 C21.945984,5.876 22.036984,5.798 22.036984,5.655 C22.036984,4.563 21.646982,3.393 19.839984,3.393 C18.708985,3.393 17.239984,4.472 17.239984,6.448 C17.239984,7.176 17.421984,7.878 17.850984,8.372 C18.292984,8.892 18.903985,9.204 19.839984,9.204 C20.827983,9.204 21.529985,8.749 22.049984,8.073 C22.010984,7.943 21.932984,7.878 21.776984,7.865 M25.265438,4.42 C25.226438,4.472 25.135438,4.602 25.135438,4.42 C25.135438,4.03 25.200438,3.432 25.200438,3.432 C25.200438,3.367 25.148438,3.328 25.044438,3.328 C24.680439,3.471 24.147437,3.588 23.250438,3.705 C23.224438,3.783 23.250438,3.991 23.276438,4.069 C23.978438,4.134 24.121438,4.199 24.121438,4.953 L24.121438,7.488 C24.121438,8.554 23.991437,8.606 23.211438,8.671 C23.133438,8.749 23.133438,9.022 23.211438,9.1 C23.744438,9.087 24.082439,9.074 24.641438,9.074 C25.148438,9.074 25.382439,9.087 25.928438,9.1 C26.006438,9.022 26.006438,8.749 25.928438,8.671 C25.265439,8.606 25.148438,8.554 25.148438,7.488 L25.148438,5.356 C25.148438,5.083 25.265438,4.927 25.369438,4.81 C25.863438,4.329 26.370439,4.043 26.877438,4.043 C27.137438,4.043 27.410438,4.212 27.566438,4.511 C27.696438,4.771 27.722438,5.122 27.722438,5.512 L27.722438,7.488 C27.722438,8.554 27.592438,8.606 26.916438,8.671 C26.851438,8.749 26.851438,9.022 26.916438,9.1 C27.462438,9.087 27.722439,9.074 28.242438,9.074 C28.775438,9.074 29.061439,9.087 29.620438,9.1 C29.685438,9.022 29.685438,8.749 29.620438,8.671 C28.892439,8.606 28.749438,8.554 28.749438,7.488 L28.749438,5.551 C28.749438,4.836 28.697438,4.212 28.398438,3.809 C28.177438,3.523 27.774438,3.367 27.319438,3.367 C26.682439,3.367 26.058437,3.536 25.265438,4.42 M35.304469,7.891 C35.252469,7.774 35.148469,7.722 35.031469,7.709 C34.589469,8.281 34.030468,8.567 33.471469,8.567 C32.52247,8.567 31.729469,7.605 31.729469,6.084 C31.729469,4.654 32.35347,3.796 33.211469,3.796 C33.978468,3.796 34.082469,4.251 34.134469,4.706 C34.173469,5.057 34.355469,5.174 34.628469,5.174 C34.901468,5.174 35.265469,5.005 35.265469,4.602 C35.265469,3.887 34.524468,3.367 33.276469,3.367 C31.98947,3.367 30.611469,4.524 30.611469,6.37 C30.611469,8.047 31.54747,9.204 33.185469,9.204 C33.965468,9.204 34.654469,8.957 35.304469,7.891 M37.110234,1.287 C37.110234,1.625 37.422234,1.963 37.734234,1.963 C38.098233,1.963 38.410234,1.625 38.410234,1.339 C38.410234,1.027 38.137233,0.663 37.786234,0.663 C37.474234,0.663 37.110234,0.975 37.110234,1.287 M38.293234,7.488 L38.293234,4.901 C38.293234,4.251 38.345234,3.419 38.345234,3.419 C38.345234,3.367 38.280234,3.328 38.176234,3.328 C37.799234,3.471 37.292233,3.588 36.395234,3.705 C36.369234,3.783 36.395234,3.991 36.421234,4.069 C37.123233,4.147 37.266234,4.212 37.266234,4.953 L37.266234,7.488 C37.266234,8.567 37.123233,8.606 36.330234,8.671 C36.252234,8.749 36.252234,9.022 36.330234,9.1 C36.876233,9.087 37.214234,9.074 37.786234,9.074 C38.345233,9.074 38.670234,9.087 39.229234,9.1 C39.307234,9.022 39.307234,8.749 39.229234,8.671 C38.436234,8.619 38.293234,8.567 38.293234,7.488 M44.94353,7.891 C44.89153,7.774 44.78753,7.722 44.67053,7.709 C44.22853,8.281 43.669529,8.567 43.11053,8.567 C42.161531,8.567 41.36853,7.605 41.36853,6.084 C41.36853,4.654 41.992531,3.796 42.85053,3.796 C43.617529,3.796 43.72153,4.251 43.77353,4.706 C43.81253,5.057 43.99453,5.174 44.26753,5.174 C44.540529,5.174 44.90453,5.005 44.90453,4.602 C44.90453,3.887 44.163528,3.367 42.91553,3.367 C41.628531,3.367 40.25053,4.524 40.25053,6.37 C40.25053,8.047 41.186531,9.204 42.82453,9.204 C43.604529,9.204 44.29353,8.957 44.94353,7.891 M46.814298,7.488 C46.814298,8.567 46.671298,8.632 45.878298,8.671 C45.800298,8.749 45.800298,9.022 45.878298,9.1 C46.424298,9.087 46.762299,9.074 47.334298,9.074 C47.893298,9.074 48.218299,9.087 48.777298,9.1 C48.855298,9.022 48.855298,8.749 48.777298,8.671 C47.984299,8.632 47.841298,8.567 47.841298,7.488 L47.841298,1.495 C47.841298,0.65 47.893298,0.13 47.893298,0.13 C47.893298,0.039 47.841298,5.68434189e-14 47.724298,5.68434189e-14 C47.399299,0.13 46.424298,0.312 45.904298,0.351 C45.878298,0.455 45.904298,0.663 45.982298,0.741 C46.658298,0.78 46.814298,0.715 46.814298,1.807 L46.814298,7.488 M49.840032,6.409 C49.840032,7.735 50.737034,9.204 52.570032,9.204 C54.50703,9.204 55.326032,7.592 55.326032,6.292 C55.326032,4.94 54.61103,3.367 52.596032,3.367 C50.841034,3.367 49.840032,4.758 49.840032,6.409 M52.453032,3.796 C53.571031,3.796 54.208032,4.797 54.208032,6.708 C54.208032,8.424 53.415031,8.775 52.804032,8.775 C51.452033,8.775 50.958032,7.111 50.958032,6.11 C50.958032,4.979 51.361033,3.796 52.453032,3.796 M58.432813,4.719 C58.835812,4.303 59.355813,3.965 59.745812,3.965 C60.577812,3.965 61.292813,4.901 61.292813,6.37 C61.292813,7.436 60.915811,8.762 59.459813,8.762 C59.225813,8.762 58.770812,8.697 58.536813,8.489 C58.263813,8.255 58.224812,8.19 58.224812,7.709 L58.224812,5.291 C58.224812,5.018 58.263812,4.901 58.432813,4.719 M58.328813,4.29 C58.276813,4.342 58.198812,4.355 58.198812,4.251 C58.198812,3.783 58.250812,3.419 58.250812,3.419 C58.250812,3.367 58.185812,3.328 58.081812,3.328 C57.717812,3.471 57.223811,3.588 56.326811,3.705 C56.300811,3.783 56.326812,3.991 56.352811,4.069 C57.054811,4.134 57.197812,4.212 57.197812,4.953 L57.197812,10.504 C57.197812,11.583 57.054811,11.648 56.261811,11.687 C56.183811,11.765 56.183811,12.038 56.261811,12.116 C56.807811,12.103 57.145812,12.09 57.717812,12.09 C58.328811,12.09 58.731812,12.103 59.290811,12.116 C59.368811,12.038 59.368811,11.765 59.290811,11.687 C58.367812,11.635 58.224811,11.583 58.224811,10.504 L58.224811,9.1 C58.224811,8.931 58.263811,8.957 58.406811,9.009 C58.718811,9.139 59.121812,9.204 59.537811,9.204 C60.265811,9.204 60.915812,8.983 61.448811,8.476 C62.059811,7.878 62.410811,7.072 62.410811,6.019 C62.410811,4.641 61.43581,3.367 60.109811,3.367 C59.628812,3.367 58.913811,3.692 58.328812,4.29 M64.92528,5.408 C65.17228,3.939 66.082281,3.822 66.39428,3.822 C66.88828,3.822 67.47328,4.095 67.47328,5.187 C67.47328,5.304 67.42128,5.369 67.27828,5.369 L64.92528,5.408 M68.33128,7.865 C67.850281,8.359 67.47328,8.567 66.71928,8.567 C66.251281,8.567 65.70528,8.294 65.30228,7.631 C65.042281,7.202 64.88628,6.604 64.88628,5.85 L68.34428,5.876 C68.50028,5.876 68.59128,5.798 68.59128,5.655 C68.59128,4.563 68.201279,3.393 66.39428,3.393 C65.263282,3.393 63.79428,4.472 63.79428,6.448 C63.79428,7.176 63.976281,7.878 64.40528,8.372 C64.84728,8.892 65.458281,9.204 66.39428,9.204 C67.382279,9.204 68.084281,8.749 68.60428,8.073 C68.56528,7.943 68.48728,7.878 68.33128,7.865 M73.988905,7.462 C73.988905,7.709 73.962905,7.813 73.780905,7.969 C73.299905,8.385 72.883904,8.593 72.558905,8.593 C71.856905,8.593 71.128905,7.826 71.128905,6.201 C71.128905,5.265 71.310905,4.745 71.505905,4.472 C71.908904,3.861 72.454905,3.822 72.714905,3.822 C73.182904,3.822 73.507905,3.991 73.767905,4.29 C73.949905,4.498 73.988905,4.589 73.988905,4.992 L73.988905,7.462 M73.845905,8.424 C73.897905,8.372 74.001905,8.346 74.001905,8.437 C74.001905,8.749 74.144905,9.204 74.144905,9.204 C74.248905,9.243 74.287905,9.23 74.391905,9.204 C74.677904,8.97 75.171906,8.775 75.964905,8.684 C76.042905,8.606 76.042905,8.411 75.964905,8.333 C75.132906,8.268 75.015905,8.021 75.015905,7.384 L75.015905,1.495 C75.015905,0.65 75.067905,0.13 75.067905,0.13 C75.067905,0.039 75.015905,0 74.898905,0 C74.573905,0.13 73.598904,0.312 73.078905,0.351 C73.052905,0.455 73.078905,0.663 73.156905,0.741 C73.832904,0.78 73.988905,0.715 73.988905,1.807 L73.988905,3.471 C73.988905,3.562 73.962905,3.588 73.871905,3.588 C73.819905,3.588 73.286904,3.367 72.857905,3.367 C71.999906,3.367 71.427904,3.653 70.907905,4.147 C70.348905,4.706 70.010905,5.473 70.010905,6.435 C70.010905,8.034 70.816906,9.204 72.220905,9.204 C72.727904,9.204 73.208905,8.944 73.845905,8.424 M77.55008,1.287 C77.55008,1.625 77.86208,1.963 78.17408,1.963 C78.538079,1.963 78.85008,1.625 78.85008,1.339 C78.85008,1.027 78.577079,0.663 78.22608,0.663 C77.91408,0.663 77.55008,0.975 77.55008,1.287 M78.73308,7.488 L78.73308,4.901 C78.73308,4.251 78.78508,3.419 78.78508,3.419 C78.78508,3.367 78.72008,3.328 78.61608,3.328 C78.23908,3.471 77.732079,3.588 76.83508,3.705 C76.80908,3.783 76.83508,3.991 76.86108,4.069 C77.563079,4.147 77.70608,4.212 77.70608,4.953 L77.70608,7.488 C77.70608,8.567 77.563079,8.606 76.77008,8.671 C76.69208,8.749 76.69208,9.022 76.77008,9.1 C77.316079,9.087 77.65408,9.074 78.22608,9.074 C78.785079,9.074 79.11008,9.087 79.66908,9.1 C79.74708,9.022 79.74708,8.749 79.66908,8.671 C78.87608,8.619 78.73308,8.567 78.73308,7.488 M84.018372,6.045 L84.018372,7.774 C84.018372,7.943 83.940372,8.034 83.836372,8.112 C83.498372,8.385 83.056372,8.671 82.692372,8.671 C82.042373,8.671 81.756372,8.151 81.756372,7.748 C81.756372,7.163 82.029373,6.578 82.991372,6.318 L84.018372,6.045 M84.018372,8.45 C84.096372,8.723 84.317373,9.204 85.019372,9.204 C85.656371,9.204 86.124372,8.684 86.124372,8.619 C86.124372,8.528 86.007372,8.398 85.955372,8.398 C85.877372,8.398 85.825372,8.606 85.552372,8.606 C85.045372,8.606 85.032372,8.099 85.032372,7.501 L85.032372,5.564 C85.032372,3.718 84.018371,3.367 83.069372,3.367 C82.003373,3.367 80.924372,4.108 80.924372,4.81 C80.924372,5.122 81.080372,5.265 81.379372,5.265 C81.756372,5.265 81.951372,5.005 81.951372,4.836 C81.951372,4.745 81.938372,4.654 81.912372,4.602 C81.899372,4.563 81.886372,4.485 81.886372,4.342 C81.886372,3.939 82.471372,3.796 82.965372,3.796 C83.407372,3.796 84.018372,4.017 84.018372,5.486 C84.018372,5.577 83.979372,5.629 83.940372,5.642 L82.822372,5.915 C81.574373,6.227 80.677372,6.916 80.677372,7.8 C80.677372,8.827 81.405373,9.204 82.315372,9.204 C82.913371,9.204 83.160373,9.1 83.732372,8.658 L83.992372,8.45 L84.018372,8.45 M91.235784,7.488 C91.235784,8.567 91.092784,8.632 90.299784,8.671 C90.221784,8.749 90.221784,9.022 90.299784,9.1 C90.845784,9.087 91.183785,9.074 91.75578,9.074 C92.31478,9.074 92.63978,9.087 93.19878,9.1 C93.27678,9.022 93.27678,8.749 93.19878,8.671 C92.40579,8.632 92.26278,8.567 92.26278,7.488 L92.26278,1.495 C92.26278,0.65 92.31478,0.13 92.31478,0.13 C92.31478,0.039 92.26278,5.68434189e-14 92.14578,5.68434189e-14 C91.82079,0.13 90.845784,0.312 90.325784,0.351 C90.299784,0.455 90.325784,0.663 90.403784,0.741 C91.079784,0.78 91.235784,0.715 91.235784,1.807 L91.235784,7.488 M94.96351,7.488 C94.96351,8.567 94.82051,8.632 94.02751,8.671 C93.94951,8.749 93.94951,9.022 94.02751,9.1 C94.57351,9.087 94.91151,9.074 95.48351,9.074 C96.04251,9.074 96.36751,9.087 96.92651,9.1 C97.00451,9.022 97.00451,8.749 96.92651,8.671 C96.13351,8.632 95.99051,8.567 95.99051,7.488 L95.99051,1.495 C95.99051,0.65 96.04251,0.13 96.04251,0.13 C96.04251,0.039 95.99051,5.68434189e-14 95.87351,5.68434189e-14 C95.54851,0.13 94.57351,0.312 94.05351,0.351 C94.02751,0.455 94.05351,0.663 94.13151,0.741 C94.80751,0.78 94.96351,0.715 94.96351,1.807 L94.96351,7.488 M98.62625,1.287 C98.62625,1.625 98.93825,1.963 99.25025,1.963 C99.61425,1.963 99.92625,1.625 99.92625,1.339 C99.92625,1.027 99.65325,0.663 99.30225,0.663 C98.99025,0.663 98.62625,0.975 98.62625,1.287 M99.80925,7.488 L99.80925,4.901 C99.80925,4.251 99.86125,3.419 99.86125,3.419 C99.86125,3.367 99.79625,3.328 99.69225,3.328 C99.31525,3.471 98.80825,3.588 97.91125,3.705 C97.88525,3.783 97.91125,3.991 97.93725,4.069 C98.63925,4.147 98.78225,4.212 98.78225,4.953 L98.78225,7.488 C98.78225,8.567 98.63925,8.606 97.84625,8.671 C97.76825,8.749 97.76825,9.022 97.84625,9.1 C98.39225,9.087 98.73025,9.074 99.30225,9.074 C99.86125,9.074 100.18625,9.087 100.74525,9.1 C100.82325,9.022 100.82325,8.749 100.74525,8.671 C99.95225,8.619 99.80925,8.567 99.80925,7.488 M103.54754,4.355 C103.88554,4.056 104.27554,3.939 104.65254,3.939 C105.44554,3.939 106.09554,4.901 106.09554,6.162 C106.09554,7.644 105.49754,8.762 104.26254,8.762 C103.85954,8.762 103.58654,8.476 103.32654,8.151 L103.32654,4.901 C103.32654,4.628 103.37854,4.511 103.54754,4.355 M103.45654,3.952 C103.36554,4.03 103.32654,4.004 103.32654,3.887 L103.32654,1.495 C103.32654,0.65 103.37854,0.13 103.37854,0.13 C103.37854,0.039 103.32654,1.13686838e-13 103.20954,1.13686838e-13 C102.88454,0.13 101.90954,0.312 101.38954,0.351 C101.36354,0.455 101.38954,0.663 101.46754,0.741 C102.14354,0.78 102.29954,0.715 102.29954,1.807 L102.29954,8.151 C102.29954,8.658 102.28654,8.892 102.24754,9.074 C102.31254,9.178 102.37754,9.23 102.53354,9.23 C102.61154,9.165 102.74154,9.035 102.83254,8.918 C102.97554,8.762 103.05354,8.762 103.19654,8.892 C103.48254,9.139 103.87254,9.204 104.34054,9.204 C105.66654,9.204 107.21354,7.995 107.21354,5.928 C107.21354,4.342 106.04354,3.367 104.91254,3.367 C104.35354,3.367 103.85954,3.588 103.45654,3.952 M109.28398,4.953 L109.28398,7.488 C109.28398,8.567 109.12798,8.619 108.32198,8.671 C108.24398,8.749 108.24398,9.022 108.32198,9.1 C108.86798,9.087 109.28398,9.074 109.80398,9.074 C110.33698,9.074 110.81798,9.087 111.37698,9.1 C111.45498,9.022 111.45498,8.749 111.37698,8.671 C110.46699,8.606 110.31098,8.567 110.31098,7.488 L110.31098,5.681 C110.31098,5.343 110.46698,5.044 110.62298,4.81 C110.76598,4.602 111.06498,4.173 111.22098,4.173 C111.31198,4.173 111.41598,4.186 111.49398,4.264 C111.62398,4.394 111.75398,4.641 112.02698,4.641 C112.33898,4.641 112.63798,4.316 112.63798,3.991 C112.63798,3.744 112.40398,3.367 111.85798,3.367 C111.24698,3.367 110.71398,3.939 110.41498,4.446 C110.33698,4.589 110.29798,4.524 110.29798,4.459 C110.29798,4.043 110.36298,3.419 110.36298,3.419 C110.36298,3.367 110.29798,3.328 110.19398,3.328 C109.82998,3.471 109.30998,3.588 108.41298,3.705 C108.38698,3.783 108.38698,3.991 108.43898,4.069 C109.14098,4.134 109.28398,4.238 109.28398,4.953 M114.61864,5.408 C114.86564,3.939 115.77564,3.822 116.08764,3.822 C116.58164,3.822 117.16664,4.095 117.16664,5.187 C117.16664,5.304 117.11464,5.369 116.97164,5.369 L114.61864,5.408 M118.02464,7.865 C117.54364,8.359 117.16664,8.567 116.41264,8.567 C115.94464,8.567 115.39864,8.294 114.99564,7.631 C114.73564,7.202 114.57964,6.604 114.57964,5.85 L118.03764,5.876 C118.19364,5.876 118.28464,5.798 118.28464,5.655 C118.28464,4.563 117.89464,3.393 116.08764,3.393 C114.95664,3.393 113.48764,4.472 113.48764,6.448 C113.48764,7.176 113.66964,7.878 114.09864,8.372 C114.54064,8.892 115.15164,9.204 116.08764,9.204 C117.07564,9.204 117.77764,8.749 118.29764,8.073 C118.25864,7.943 118.18064,7.878 118.02464,7.865" id="ast-tagline" fill="#000000" fill-rule="nonzero"></path>
    </g>
</svg>