<?xml version="1.0" encoding="UTF-8"?>
<svg width="120px" height="13px" viewBox="0 0 120 13" version="1.1" xmlns="http://www.w3.org/2000/svg" xmlns:xlink="http://www.w3.org/1999/xlink">
    <title>io-tagline</title>
    <g id="Page-1" stroke="none" stroke-width="1" fill="none" fill-rule="evenodd">
        <path d="M1.80205634,9.15361495 C1.34065862,9.15361495 0.76173759,9.16260132 0.0652915199,9.17917618 C0.0217635005,9.14502798 0,9.07676153 0,8.97434688 C0,8.86765872 0.0217635005,8.792982 0.0652915199,8.75030673 C0.565862114,8.73323263 0.883615739,8.66064274 1.01855341,8.53266687 C1.15784145,8.40464107 1.22748607,8.07818626 1.2274875,7.55329247 L1.2274875,2.29796424 C1.22748607,1.77308043 1.15784104,1.44876238 1.01855341,1.32500012 C0.883615739,1.1969843 0.565862114,1.12443435 0.0652915199,1.10736025 C0.0217635005,1.07321205 0,1.00280885 0,0.896120682 C0,0.789442501 0.0217635005,0.714765777 0.0652915199,0.672080526 C0.883615739,0.689154627 1.45818397,0.697741601 1.78899793,0.697641753 C2.14592433,0.697651738 2.72484526,0.688655384 3.52576224,0.672080526 C3.56058343,0.714815702 3.57798894,0.789442501 3.57799912,0.896120682 C3.58237851,0.998545315 3.56494245,1.06895851 3.52576224,1.10736025 C3.02518849,1.12443435 2.70525821,1.19702424 2.5659714,1.32500012 C2.4310324,1.44876238 2.36356443,1.77308043 2.36356646,2.29796424 L2.36356646,7.72612031 C2.36356443,8.05898539 2.42233168,8.29582613 2.53985499,8.43665251 C2.66173019,8.57320537 2.85760577,8.6414818 3.12748173,8.6414818 L3.96974722,8.6414818 C4.62266242,8.6414818 5.11017441,8.49212836 5.43228623,8.19340149 C5.75873976,7.89042108 5.99814336,7.46794194 6.15049702,6.92598403 C6.30283847,6.9004228 6.44865668,6.92199009 6.58795367,6.98998694 C6.50088541,7.74958472 6.38554161,8.47931779 6.24190597,9.17917618 C5.41922243,9.1620921 4.88818242,9.15360497 4.64878392,9.15360497 L1.80205634,9.15360497 M10.7796941,6.10027654 L9.72196496,6.37552901 C8.87316807,6.58463182 8.45094761,7.06471359 8.45530153,7.8157843 C8.45530051,8.05048828 8.53583127,8.26599138 8.69688158,8.46229361 C8.86228581,8.65433231 9.10168941,8.75034667 9.41509237,8.75034667 C9.71978545,8.75034667 10.1115366,8.5561812 10.5903469,8.16784027 C10.7165739,8.06968915 10.7796941,7.95661068 10.7796941,7.82858488 L10.7796941,6.10027654 M10.7796941,8.52630651 L10.7535808,8.52630651 L10.4858843,8.73114579 C10.0027211,9.0981391 9.51738459,9.28169378 9.02987464,9.28169378 C7.90685296,9.28169378 7.34534365,8.81008605 7.34534365,7.86698663 C7.34534365,7.43171689 7.54774757,7.04764948 7.95255845,6.7147844 C8.35736629,6.3819293 8.89058274,6.13228798 9.55220986,5.96585045 L10.7013469,5.69060796 C10.7535736,5.67353386 10.7796972,5.62231156 10.7796972,5.536981 C10.7796931,4.40185286 10.4184112,3.83428381 9.69585059,3.83427382 C9.39985823,3.83428381 9.14739694,3.88120263 8.93846468,3.9751002 C8.72952937,4.06476419 8.62506172,4.20127712 8.62506376,4.38477876 C8.62506172,4.50853104 8.63372068,4.59388158 8.65117711,4.64082038 C8.67729046,4.69204268 8.69252664,4.77098293 8.69688565,4.87766111 C8.69688361,4.97581223 8.63594092,5.0761001 8.51406878,5.17851475 C8.3921885,5.27666587 8.24201739,5.32574143 8.06355445,5.32574143 C7.7501525,5.32574143 7.59562849,5.16785093 7.5999814,4.85205995 C7.5999814,4.48506664 7.82850273,4.15220156 8.28554643,3.85348468 C8.74694099,3.55050427 9.25404104,3.39900408 9.80684862,3.39900408 C11.1518572,3.39900408 11.8243635,4.1372742 11.8243686,5.61379448 L11.8243686,7.54053183 C11.8243635,7.72403347 11.8265074,7.86912339 11.8308868,7.97581155 C11.8352661,8.0782262 11.8504718,8.19131466 11.8765953,8.31506694 C11.9027086,8.43881922 11.9440582,8.52630651 12.00065,8.57751883 C12.0615845,8.62874113 12.1355819,8.65430236 12.222643,8.65430236 C12.3836903,8.65430236 12.5490965,8.58390914 12.7188608,8.44306278 C12.8450858,8.51135919 12.9212596,8.63082797 12.9473832,8.80151905 C12.6078597,9.12584707 12.1834618,9.28587433 11.6741904,9.2816108 C11.3694902,9.2816108 11.1540275,9.21760788 11.0278004,9.0895721 C10.9059181,8.95728277 10.823216,8.76951759 10.7796921,8.52627656 M17.5896389,7.55333241 L17.5896389,1.8243227 C17.5896379,1.34211416 17.5439304,1.04979757 17.4525265,0.947372937 C17.3654685,0.840694757 17.1238894,0.774545099 16.7277864,0.748933948 C16.6276716,0.650782833 16.6015542,0.520640245 16.6494362,0.358466245 C17.4416433,0.298756818 18.0662687,0.179238115 18.5233134,-4.4408921e-15 C18.6408367,-4.4408921e-15 18.6995988,0.0448319947 18.6996019,0.13442609 C18.6647807,0.48436527 18.6451855,0.943109405 18.6408367,1.51066848 L18.6408367,7.55333241 C18.6408346,8.0782262 18.6974224,8.40468101 18.8105959,8.5327068 C18.9237663,8.65645909 19.1892863,8.72900904 19.6071569,8.75034667 C19.6419781,8.792982 19.6593938,8.86769866 19.6593938,8.97438682 C19.6593938,9.07680147 19.6419781,9.1450779 19.6071569,9.17921612 C19.0195271,9.16214202 18.5233093,9.15365489 18.1185015,9.15365489 C17.7441599,9.15365489 17.2457656,9.16264126 16.6233167,9.17921612 C16.5797877,9.14506792 16.5580231,9.07680147 16.5580231,8.97438682 C16.5580231,8.86769866 16.5797877,8.79302193 16.6233167,8.75034667 C17.0411843,8.73327257 17.3067043,8.66068268 17.4198777,8.5327068 C17.5330492,8.40468101 17.5896359,8.0782262 17.5896369,7.55333241 M21.0435815,1.29942891 C21.0435815,1.14154839 21.1197522,0.998585254 21.2721029,0.870559455 C21.4244494,0.738270124 21.5811499,0.672120466 21.7422053,0.672120466 C21.9119624,0.672120466 22.0599571,0.744710355 22.1861903,0.88976033 C22.3167713,1.03486023 22.3820658,1.18848719 22.3820658,1.35064122 C22.3820658,1.50000465 22.3102439,1.6429678 22.1666022,1.77952066 C22.0273113,1.91608351 21.8684344,1.98434996 21.6899714,1.98434996 C21.528916,1.98434996 21.3809214,1.91176007 21.2459865,1.76671009 C21.1110485,1.62163016 21.0435815,1.46586644 21.0435815,1.29942891 M22.2645405,7.55333241 C22.2645374,8.0782262 22.3167672,8.40255423 22.4212409,8.52630651 C22.5300584,8.64579526 22.7977549,8.72047199 23.2243313,8.75034667 C23.2678604,8.792982 23.2896249,8.86769866 23.2896249,8.97438682 C23.2896249,9.07680147 23.2678604,9.1450779 23.2243313,9.17921612 C22.6367015,9.16214202 22.1426602,9.15365489 21.7422053,9.15365489 C21.3330405,9.15365489 20.8324698,9.16264126 20.2404911,9.17921612 C20.20567,9.14506792 20.1882543,9.07680147 20.1882543,8.97438682 C20.1882543,8.86769866 20.20567,8.79302193 20.2404911,8.75034667 C20.6670645,8.71619847 20.934761,8.63939497 21.0435815,8.51990622 C21.1524,8.40041747 21.2068103,8.0782262 21.2068113,7.55333241 L21.2068113,4.99928662 C21.2068103,4.63229331 21.1545745,4.40185286 21.0501109,4.30796528 C20.9499961,4.20981417 20.712768,4.14367449 20.3384294,4.10952629 C20.2861926,3.96017285 20.2774949,3.83642056 20.3123161,3.73825946 C21.1393454,3.63158128 21.7487367,3.50569224 22.1404899,3.36059234 C22.2580132,3.36059234 22.3167753,3.39044706 22.3167784,3.45015648 C22.2819572,4.00919848 22.2645415,4.50635435 22.2645415,4.94162409 L22.2645415,7.55328249 M25.7968333,4.39757935 C25.6444827,4.52986868 25.5704854,4.71337033 25.5748403,4.94807431 L25.5748403,8.22545288 C25.9143556,8.63512145 26.2342859,8.83996073 26.5346311,8.83996073 C27.1483722,8.83996073 27.6162962,8.59885646 27.938408,8.11662795 C28.2605096,7.63014589 28.4215681,6.99643716 28.4215681,6.21550175 C28.4215681,5.58819331 28.2757438,5.05903599 27.9841114,4.62801979 C27.6968228,4.19275005 27.3464233,3.9751002 26.9329117,3.9751002 C26.4976294,3.9751002 26.118937,4.11593657 25.7968333,4.39757935 M25.7054264,3.98790078 C26.1494083,3.59530631 26.6478026,3.39900408 27.2006112,3.39900408 C27.8143502,3.39900408 28.3628018,3.64011833 28.845967,4.12232688 C29.329121,4.60028187 29.5707072,5.21906324 29.5707072,5.97865103 C29.5707072,6.95589865 29.2616531,7.7517714 28.6435621,8.36627926 C28.0298139,8.9765136 27.3529546,9.28164075 26.6129834,9.28164075 C26.0906462,9.28164075 25.698895,9.17495259 25.4377299,8.96158624 C25.3637285,8.90187681 25.3006145,8.87411892 25.2483827,8.87841241 C25.2005048,8.87841241 25.1417376,8.91685409 25.0720952,8.99363762 C25.0068016,9.06622751 24.902334,9.17286575 24.7586932,9.31369213 C24.6237563,9.31369213 24.525818,9.26037301 24.4648804,9.15366488 C24.4997016,8.98723733 24.5171173,8.67784664 24.5171173,8.2255028 L24.5171173,1.82437262 C24.5171163,1.54272985 24.5105991,1.33362703 24.4975323,1.19706418 C24.4844756,1.05624779 24.4278899,0.953833138 24.3277731,0.889810254 C24.2320072,0.821513852 24.1558375,0.785268832 24.0992517,0.78098533 C24.0470149,0.776991388 23.9011987,0.766107897 23.6617961,0.749033797 C23.5616814,0.650882681 23.5333885,0.520740093 23.5769176,0.358566094 C24.3691247,0.298856667 24.9937501,0.179337964 25.4507948,9.98485407e-05 C25.5683181,9.98485407e-05 25.6270813,0.0449318432 25.6270833,0.134525939 C25.5922621,0.484465119 25.5748464,0.943209253 25.5748464,1.51076833 L25.5748464,3.92399772 C25.5748444,4.04348647 25.6183754,4.0648241 25.7054305,3.98800063 M31.8428639,5.45376722 L34.2651937,5.41532554 C34.4001256,5.41532554 34.4654182,5.35561611 34.4610693,5.23609741 C34.4610652,4.73681476 34.3522447,4.38261205 34.1346097,4.17350924 C33.9169665,3.96440642 33.6557984,3.85985502 33.3511064,3.85985502 C33.233578,3.85985502 33.1182291,3.8748323 33.0050597,3.90468701 C32.8918842,3.93454172 32.7525953,3.99854464 32.5871911,4.09672571 C32.4217828,4.19058334 32.2716117,4.35490408 32.1366768,4.58960806 C32.0017388,4.82432202 31.9038015,5.11237508 31.8428639,5.45376722 M35.3490393,7.93739982 C35.5013818,7.94638619 35.5949661,8.01418335 35.6297945,8.1422391 C35.0334568,8.90183687 34.2738945,9.28164075 33.3511064,9.28164075 C32.4674873,9.28164075 31.7862761,9.00212475 31.30747,8.44309274 C30.8896014,7.96941126 30.6806681,7.32289196 30.6806681,6.50354482 C30.6806681,5.5775195 30.9635987,4.83285907 31.529463,4.26955355 C32.0953242,3.70625801 32.7025379,3.42460524 33.3511064,3.42460524 C34.8571683,3.42460524 35.6102013,4.184213 35.6102064,5.70340854 C35.6102013,5.85277198 35.5274971,5.9274487 35.362097,5.9274487 L31.8036888,5.90178763 C31.8036867,6.63579422 31.945152,7.23536473 32.2280857,7.70050916 C32.6198348,8.3278176 33.1073478,8.64147182 33.6906247,8.64147182 C34.0649612,8.64147182 34.3696563,8.59024952 34.6047111,8.48784486 C34.8441106,8.38116667 35.092219,8.19766503 35.3490393,7.9373499 M38.5156943,4.46159225 C38.5156923,4.50422757 38.528751,4.53418214 38.5548745,4.55125624 C38.5853469,4.56833034 38.6223374,4.54726229 38.6658715,4.48725332 C38.8443334,4.18853644 39.064149,3.93249483 39.3253191,3.7191185 C39.5908361,3.50575215 39.8650619,3.39906399 40.1479976,3.39906399 C40.4048077,3.39906399 40.6028597,3.46736039 40.7421537,3.60389328 C40.8814384,3.7361926 40.951088,3.87701898 40.951088,4.02637243 C40.951088,4.19280996 40.8857944,4.34430017 40.7552124,4.48085303 C40.6289771,4.61741588 40.4853344,4.68569231 40.3242861,4.68569231 C40.1588758,4.68569231 39.9978224,4.58327766 39.841126,4.37843838 C39.7540679,4.26748668 39.638717,4.21201083 39.4950783,4.21200085 C39.3862557,4.21201083 39.1816743,4.42537718 38.8813341,4.85211986 C38.6680449,5.16791084 38.5614018,5.46022742 38.5614039,5.72906962 L38.5614039,7.55339232 C38.5614018,8.07828611 38.6201691,8.40047738 38.7376924,8.51996613 C38.8595676,8.63518136 39.1664392,8.71199484 39.6583081,8.75040658 C39.7018372,8.7930419 39.7235915,8.86775857 39.7236017,8.97444673 C39.7235976,9.07686138 39.7018372,9.14513781 39.6583081,9.17927603 C39.0358561,9.16220193 38.4961103,9.1537148 38.0390686,9.1537148 C37.6473165,9.1537148 37.13804,9.16270117 36.5112381,9.17927603 C36.4764169,9.14512783 36.4590012,9.07686138 36.4590012,8.97444673 C36.4590012,8.86775857 36.4764169,8.79308184 36.5112381,8.75040658 C36.9465173,8.7247455 37.2207431,8.6501187 37.3339166,8.52636642 C37.447088,8.40261414 37.5036737,8.07828611 37.5036757,7.55339232 L37.5036757,4.99934653 C37.5036737,4.63235322 37.4514389,4.40191277 37.3469743,4.30802519 C37.2468595,4.20987408 37.0096324,4.1437344 36.6352928,4.1095862 C36.5830559,3.96023275 36.5743583,3.83648047 36.6091795,3.73831937 C37.2708025,3.65294887 37.8170777,3.52708979 38.248006,3.36065225 C38.3176484,3.36065225 38.3720587,3.39480045 38.4112358,3.46307689 C38.4547649,3.56976505 38.489586,3.90262015 38.5157024,4.46165216 M45.044887,6.10027654 L43.9871579,6.37552901 C43.138361,6.58463182 42.7161405,7.06471359 42.7204945,7.8157843 C42.7204934,8.05048828 42.8010242,8.26599138 42.9620745,8.46229361 C43.1274787,8.65433231 43.3668823,8.75034667 43.6802863,8.75034667 C43.9849784,8.75034667 44.3767295,8.5561812 44.8555398,8.16784027 C44.9817679,8.06968915 45.044887,7.95661068 45.044887,7.82858488 L45.044887,6.10027654 M45.044887,8.52630651 L45.0187737,8.52630651 L44.7510772,8.73114579 C44.2679141,9.0981391 43.7825775,9.28169378 43.2950676,9.28169378 C42.1720459,9.28169378 41.6105366,8.81008605 41.6105366,7.86698663 C41.6105366,7.43171689 41.8129405,7.04764948 42.2177514,6.7147844 C42.6225592,6.3819293 43.1557767,6.13228798 43.8174028,5.96585045 L44.9665409,5.69060796 C45.0187676,5.67353386 45.0448911,5.62231156 45.0448911,5.536981 C45.044887,4.40185286 44.6836052,3.83428381 43.9610456,3.83427382 C43.6650522,3.83428381 43.4125909,3.88120263 43.2036586,3.9751002 C42.9947233,4.06476419 42.8902557,4.20127712 42.8902577,4.38477876 C42.8902557,4.50853104 42.8989146,4.59388158 42.9163711,4.64082038 C42.9424844,4.69204268 42.9577206,4.77098293 42.9620694,4.87766111 C42.9620684,4.97581223 42.9011247,5.0761001 42.7792525,5.17851475 C42.6573723,5.27666587 42.5072012,5.32574143 42.3287382,5.32574143 C42.0153363,5.32574143 41.8608123,5.16785093 41.8651662,4.85205995 C41.8651652,4.48506664 42.0936865,4.15220156 42.5507312,3.85348468 C43.0121248,3.55050427 43.5192248,3.39900408 44.0720324,3.39900408 C45.417041,3.39900408 46.0895473,4.1372742 46.0895524,5.61379448 L46.0895524,7.54053183 C46.0895473,7.72403347 46.0916911,7.86912339 46.0960705,7.97581155 C46.1004499,8.0782262 46.1156555,8.19131466 46.1417791,8.31506694 C46.1678924,8.43881922 46.2092419,8.52630651 46.2658327,8.57751883 C46.3267673,8.62874113 46.4007646,8.65430236 46.4878257,8.65430236 C46.648874,8.65430236 46.8142793,8.58390914 46.9840446,8.44306278 C47.1102696,8.51135919 47.1864434,8.63082797 47.2125659,8.80151905 C46.8730425,9.12584707 46.4486455,9.28587433 45.9393741,9.2816108 C45.6346739,9.2816108 45.4192103,9.21760788 45.2929842,9.0895721 C45.1711019,8.95728277 45.0883988,8.76951759 45.0448748,8.52627656 M52.2400557,5.45376722 L54.6623856,5.41532554 C54.7973174,5.41532554 54.86261,5.35561611 54.8582611,5.23609741 C54.8582571,4.73681476 54.7494375,4.38261205 54.5318015,4.17350924 C54.3141583,3.96440642 54.0529912,3.85985502 53.7482992,3.85985502 C53.6307698,3.85985502 53.5154209,3.8748323 53.4022515,3.90468701 C53.289076,3.93454172 53.1497871,3.99854464 52.9843829,4.09672571 C52.8189746,4.19058334 52.6688035,4.35490408 52.5338696,4.58960806 C52.3989306,4.82432202 52.3009933,5.11237508 52.2400557,5.45376722 M55.7462311,7.93739982 C55.8985736,7.94638619 55.992159,8.01418335 56.0269863,8.1422391 C55.4306486,8.90183687 54.6710873,9.28164075 53.7482992,9.28164075 C52.8646791,9.28164075 52.183468,9.00212475 51.7046618,8.44309274 C51.2867932,7.96941126 51.0778599,7.32289196 51.0778599,6.50354482 C51.0778599,5.5775195 51.3607905,4.83285907 51.9266548,4.26955355 C52.492516,3.70625801 53.0997298,3.42460524 53.7482992,3.42460524 C55.2543611,3.42460524 56.0073931,4.184213 56.0073992,5.70340854 C56.0073931,5.85277198 55.92469,5.9274487 55.7592898,5.9274487 L52.2008806,5.90178763 C52.2008786,6.63579422 52.3423449,7.23536473 52.6252775,7.70050916 C53.0170266,8.3278176 53.5045396,8.64147182 54.0878165,8.64147182 C54.462153,8.64147182 54.7668481,8.59024952 55.0019029,8.48784486 C55.2413024,8.38116667 55.4894118,8.19766503 55.7462311,7.9373499 M59.0238831,4.46159225 C59.6550348,3.75320679 60.3863033,3.39900408 61.2176916,3.39900408 C61.726963,3.39900408 62.0969497,3.54836751 62.3276536,3.84708439 C62.5670511,4.16287537 62.6867529,4.74750854 62.686759,5.6009939 L62.686759,7.55333241 C62.6867529,8.06968915 62.7368062,8.38974366 62.8369301,8.51350593 C62.9413916,8.63299468 63.1895,8.71193493 63.5812583,8.75034667 C63.6160693,8.792982 63.6334952,8.86769866 63.6334952,8.97438682 C63.6334952,9.07680147 63.6160795,9.1450779 63.5812583,9.17921612 C63.0458583,9.16214202 62.5735804,9.15365489 62.1644238,9.15365489 C61.7900781,9.15365489 61.3352119,9.16264126 60.7998231,9.17921612 C60.7650019,9.13658079 60.7475862,9.06400089 60.7475862,8.96158624 C60.7475821,8.85489808 60.7649917,8.78448488 60.7998231,8.75034667 C61.1654527,8.71619847 61.3939741,8.63725821 61.4853881,8.51350593 C61.5811438,8.38974366 61.6290247,8.06968915 61.6290298,7.55333241 L61.6290298,5.56258216 C61.6290247,5.09743774 61.576793,4.76030912 61.4723294,4.55120631 C61.3025661,4.23541533 61.065339,4.07752483 60.7606479,4.07752483 C60.2165451,4.07752483 59.6724464,4.33570321 59.1283498,4.85205995 C58.9760002,5.0184875 58.8998264,5.20198914 58.8998284,5.40255491 L58.8998284,7.55333241 C58.8998264,8.06968915 58.9455268,8.38974366 59.0369418,8.51350593 C59.1326976,8.63299468 59.3590455,8.71193493 59.7159775,8.75034667 C59.7507987,8.792982 59.7682042,8.86769866 59.7682144,8.97438682 C59.7725938,9.07680147 59.7551577,9.1450779 59.7159775,9.17921612 C59.1805805,9.16214202 58.7365966,9.15365489 58.3840226,9.15365489 C57.9400355,9.15365489 57.4481707,9.16264126 56.9084248,9.17921612 C56.8736036,9.14506792 56.856188,9.07680147 56.856188,8.97438682 C56.856188,8.86769866 56.8735935,8.79302193 56.9084248,8.75034667 C57.3262924,8.71619847 57.5874605,8.63939497 57.6919282,8.51990622 C57.7963938,8.40041747 57.8486276,8.0782262 57.8486286,7.55333241 L57.8486286,4.99928662 C57.8486276,4.63229331 57.7963918,4.40185286 57.6919282,4.30796528 C57.5918134,4.20981417 57.3524098,4.14367449 56.9737174,4.10952629 C56.9214805,3.96017285 56.9127727,3.83642056 56.947604,3.73825946 C57.6092281,3.65288896 58.1576797,3.52702988 58.5929609,3.36059234 C58.6626033,3.36059234 58.7170126,3.39474054 58.7561907,3.46301698 C58.8084174,3.56970514 58.8432488,3.90256024 58.8606574,4.46159225 C58.8606553,4.57681746 58.9150636,4.57681746 59.0238872,4.46159225 M69.1441319,7.96300099 C68.8307238,8.47083066 68.4999113,8.8186231 68.1516922,9.00638828 C67.8078179,9.18988993 67.4117138,9.28164075 66.96338,9.28164075 C66.1363466,9.28164075 65.4877813,9.02346238 65.0176809,8.50710564 C64.5519314,7.98647538 64.3190572,7.29302726 64.3190572,6.42673134 C64.3190572,5.54338129 64.5998123,4.81792173 65.1613237,4.25035267 C65.722832,3.6827936 66.3561622,3.39900408 67.0613173,3.39900408 C67.692469,3.39900408 68.1908632,3.51422929 68.5565021,3.74465976 C68.9221317,3.97511019 69.1049496,4.27382707 69.1049547,4.64082038 C69.1049496,4.82432202 69.0353021,4.96728516 68.8960204,5.06969981 C68.7567265,5.17211446 68.6087308,5.22332678 68.4520354,5.22332678 C68.1473352,5.22332678 67.9775771,5.06543628 67.9427589,4.74963532 C67.9253432,4.5576066 67.8948709,4.40825316 67.851352,4.30156499 C67.8121718,4.19061329 67.7207639,4.08606189 67.5771262,3.98790078 C67.4378333,3.88549612 67.2419577,3.83428381 66.9894985,3.83427382 C66.5455114,3.83428381 66.1798767,4.04124986 65.8925942,4.45519195 C65.6096616,4.86913405 65.4681952,5.43029283 65.4681973,6.13868827 C65.4681952,6.88974899 65.6423073,7.49572979 65.9905325,7.9566007 C66.3387536,8.41321806 66.7609741,8.64152174 67.2571959,8.64152174 C67.870935,8.64152174 68.4063289,8.35347867 68.8633767,7.77737257 C69.0070133,7.79444667 69.1005987,7.85635276 69.1441319,7.96300099 M70.7437812,1.29942891 C70.7437812,1.14154839 70.8199519,0.998585254 70.9723036,0.870559455 C71.1246491,0.738270124 71.2813496,0.672120466 71.442405,0.672120466 C71.6121621,0.672120466 71.7601568,0.744710355 71.8863899,0.88976033 C72.0169709,1.03486023 72.0822655,1.18848719 72.0822655,1.35064122 C72.0822655,1.50000465 72.0104436,1.6429678 71.8668019,1.77952066 C71.727511,1.91608351 71.5686341,1.98434996 71.3901711,1.98434996 C71.2291167,1.98434996 71.0811211,1.91176007 70.9461862,1.76671009 C70.8112482,1.62163016 70.7437812,1.46586644 70.7437812,1.29942891 M71.9647402,7.55333241 C71.9647381,8.0782262 72.0169669,8.40255423 72.1214406,8.52630651 C72.2302581,8.64579526 72.4979546,8.72047199 72.924531,8.75034667 C72.9680601,8.792982 72.9898246,8.86769866 72.9898246,8.97438682 C72.9898246,9.07680147 72.9680601,9.1450779 72.924531,9.17921612 C72.3369012,9.16214202 71.8428599,9.15365489 71.442405,9.15365489 C71.0332412,9.15365489 70.5326705,9.16264126 69.9406908,9.17921612 C69.9058696,9.14506792 69.888454,9.07680147 69.888454,8.97438682 C69.888454,8.86769866 69.9058595,8.79302193 69.9406908,8.75034667 C70.3672642,8.71619847 70.6349607,8.63939497 70.7437812,8.51990622 C70.8525997,8.40041747 70.90701,8.0782262 70.907011,7.55333241 L70.907011,4.99928662 C70.90701,4.63229331 70.8547742,4.40185286 70.7503106,4.30796528 C70.6501958,4.20981417 70.4129687,4.14367449 70.0386291,4.10952629 C69.9863923,3.96017285 69.9776844,3.83642056 70.0125158,3.73825946 C70.8395461,3.63158128 71.4489364,3.50569224 71.8406895,3.36059234 C71.9582129,3.36059234 72.016975,3.39044706 72.0169781,3.45015648 C71.9821569,4.00919848 71.9647412,4.50635435 71.9647412,4.94162409 L71.9647412,7.55328249 M74.3217826,7.55333241 L74.3217826,1.8243227 C74.3217816,1.54267992 74.3152644,1.33357711 74.3021976,1.19701426 C74.2891409,1.05619786 74.2325552,0.953783214 74.1324394,0.88976033 C74.0366735,0.821463928 73.9605028,0.785218908 73.9039171,0.780935405 C73.8516802,0.776941464 73.705865,0.766057973 73.4664614,0.748983872 C73.3663467,0.650832757 73.3402303,0.520690169 73.3881112,0.35851617 C74.1803183,0.298806742 74.8027672,0.179288039 75.2554601,4.99242701e-05 C75.3729834,4.99242701e-05 75.4317455,0.044881919 75.4317476,0.134476014 C75.3969264,0.484415194 75.3795107,0.943159329 75.3795107,1.5107184 L75.3795107,6.08112559 C75.6667922,6.0426839 75.9693108,5.90829775 76.2870677,5.6778573 C76.6091714,5.44315332 76.9661003,5.08468708 77.3578556,4.60245857 C77.4013744,4.55123627 77.4362058,4.49791715 77.4623222,4.44243131 C77.4927844,4.38272188 77.5167284,4.3144155 77.5341441,4.23760202 C77.5515496,4.16081849 77.5189079,4.09464886 77.4362089,4.03916303 C77.3578484,3.9794536 77.2294469,3.9453054 77.050986,3.93674838 C77.0161648,3.90260018 76.9987492,3.83433373 76.9987492,3.7319091 C76.9987461,3.62523092 77.0161547,3.54841743 77.050986,3.50146865 C77.4601447,3.51854275 77.8976004,3.52702988 78.3633539,3.52702988 C78.7289826,3.52703986 79.1163808,3.51804351 79.5255497,3.50146865 C79.5690686,3.54410398 79.5908331,3.61883062 79.5908433,3.72550881 C79.5908372,3.83219697 79.5690686,3.90261016 79.5255497,3.93674838 C78.9030947,3.9964578 78.4351697,4.18852646 78.1217739,4.5128445 L76.9465194,5.70345847 C76.9116982,5.73760667 76.892103,5.78243866 76.8877542,5.83788456 C76.8877511,5.88051989 76.9203959,5.94243597 76.9856894,6.02351298 L78.7485706,8.19349136 C78.9096179,8.39406711 79.0728477,8.5284932 79.2382601,8.59676963 C79.4036603,8.66077254 79.6234758,8.71198486 79.8977087,8.75039659 C79.9412276,8.79303192 79.9630023,8.86774858 79.9630023,8.97443675 C79.9630023,9.0768514 79.9412276,9.14512783 79.8977087,9.17928601 C79.5407727,9.16219194 79.1751389,9.15370482 78.8008045,9.15370482 C78.6049228,9.15370482 78.3285205,9.16269119 77.9715967,9.17928601 C77.9367755,9.17928601 77.9193598,9.15789846 77.9193598,9.11526313 C77.9019441,8.97443675 77.7147733,8.66718282 77.3578495,8.19349136 L76.3849999,6.91327331 C76.2413541,6.72550813 76.0977123,6.58254499 75.9540726,6.48439387 C75.8365452,6.44595219 75.6450226,6.42248778 75.3795046,6.41400065 L75.3795046,7.5534023 C75.3795015,8.06975905 75.4208541,8.39195032 75.5035593,8.51997612 C75.5906174,8.6437284 75.7799585,8.72054188 76.071598,8.75041656 C76.115127,8.79305189 76.1368915,8.86776855 76.1368915,8.97445672 C76.1412709,9.07687137 76.1194758,9.1451478 76.071598,9.17928601 C75.6624332,9.16221191 75.2576243,9.15372479 74.8571694,9.15372479 C74.4915326,9.15372479 74.0149029,9.16271116 73.4272761,9.17928601 C73.3837471,9.14513781 73.3619826,9.07687137 73.3619826,8.97445672 C73.3619826,8.86776855 73.3837471,8.79309183 73.4272761,8.75041656 C73.8190273,8.72475549 74.0649592,8.65012869 74.165075,8.52637641 C74.2695406,8.40262413 74.3217744,8.0782961 74.3217755,7.5534023 M81.2884218,7.55333241 L81.2884218,1.8243227 C81.2884208,1.34211416 81.2427132,1.04979757 81.1513094,0.947372937 C81.0642513,0.840694757 80.8226723,0.774545099 80.4265692,0.748933948 C80.3264545,0.650782833 80.3003381,0.520640245 80.348219,0.358466245 C81.1404261,0.298756818 81.7650515,0.179238115 82.2220962,-4.4408921e-15 C82.3396195,-4.4408921e-15 82.3983827,0.0448319947 82.3983847,0.13442609 C82.3635635,0.48436527 82.3439683,0.943109405 82.3396195,1.51066848 L82.3396195,7.55333241 C82.3396175,8.0782262 82.3962052,8.40468101 82.5093787,8.5327068 C82.6225491,8.65645909 82.8880691,8.72900904 83.3059397,8.75034667 C83.3407609,8.792982 83.3581766,8.86769866 83.3581766,8.97438682 C83.3581766,9.07680147 83.3407609,9.1450779 83.3059397,9.17921612 C82.7183099,9.16214202 82.2220921,9.15365489 81.8172843,9.15365489 C81.4429427,9.15365489 80.9445485,9.16264126 80.3220995,9.17921612 C80.2785705,9.14506792 80.256806,9.07680147 80.256806,8.97438682 C80.256806,8.86769866 80.2785705,8.79302193 80.3220995,8.75034667 C80.7399671,8.73327257 81.0054871,8.66068268 81.1186616,8.5327068 C81.231833,8.40468101 81.2884187,8.0782262 81.2884197,7.55333241 M84.0894451,6.46514308 C84.0894451,5.59885714 84.335378,4.88193463 84.8272439,4.31436557 C85.3582829,3.70413123 86.0569057,3.39900408 86.9231142,3.39900408 C87.5629706,3.39900408 88.1027165,3.5547678 88.5423536,3.86628526 C88.9863335,4.17353919 89.2953815,4.54266926 89.4694987,4.97367547 C89.6436047,5.40042813 89.7306668,5.85917227 89.7306668,6.34991786 C89.7306668,7.26315258 89.4411997,7.99714919 88.8622839,8.55190768 C88.3530023,9.04266326 87.6979076,9.28590429 86.8969978,9.28169584 C86.0046718,9.28169584 85.3125785,8.99785123 84.8207146,8.43029216 C84.3332016,7.8627231 84.0894451,7.20767673 84.0894451,6.46514308 M86.7207092,3.85988497 C85.7326235,3.85988497 85.2385832,4.62801979 85.2385832,6.16428944 C85.2385832,6.4459422 85.2712249,6.7318585 85.3365184,7.02203833 C85.4061608,7.30795462 85.5062755,7.59174414 85.6368616,7.87338692 C85.7717966,8.15077615 85.9633192,8.37907984 86.2114307,8.55830797 C86.4638899,8.73754609 86.7555263,8.82716015 87.0863419,8.82716015 C87.47809,8.82716015 87.8241367,8.66925967 88.124483,8.35347867 C88.4291741,8.0376877 88.5815267,7.50853037 88.5815267,6.76599671 C88.5815267,5.83143434 88.4161153,5.11451184 88.0853079,4.61521921 C87.7544913,4.11166305 87.2996251,3.85988497 86.7207072,3.85988497 M92.6165738,4.81364822 C92.472929,4.9886228 92.4032846,5.18065151 92.4076395,5.38975432 L92.4076395,7.77737257 C92.4076375,8.00781301 92.425045,8.16571349 92.4598764,8.25105404 C92.4990464,8.33642454 92.5882809,8.44095598 92.7275728,8.56470826 C92.9365041,8.74820991 93.2520815,8.83996073 93.674305,8.83996073 C94.0312349,8.83996073 94.3381075,8.76737084 94.5949227,8.62232087 C94.8560868,8.47723096 95.0519573,8.28092872 95.1825444,8.03341418 C95.3174803,7.78590962 95.4132462,7.53199478 95.469832,7.27167965 C95.530736,7.00710098 95.5612898,6.72545821 95.5612898,6.42673134 C95.5612898,5.70980884 95.4067587,5.12731242 95.0977167,4.67922213 C94.7930237,4.22688827 94.4165087,4.00071135 93.9681718,4.00071135 C93.780999,4.00071135 93.5524746,4.08178837 93.2826047,4.24395238 C93.0170817,4.4061164 92.7950897,4.59601834 92.6166278,4.81364822 M92.361989,4.32716616 C92.3706459,4.45945549 92.4207542,4.47866635 92.5121601,4.38477876 C93.1084906,3.72759564 93.7200543,3.39900408 94.3468663,3.39900408 C95.017187,3.39900408 95.5786953,3.6657195 96.0313912,4.19914036 C96.4840769,4.7325712 96.7104299,5.35775287 96.7104299,6.07467537 C96.7104299,7.09885181 96.3817928,7.92459924 95.7245186,8.55190768 C95.1978315,9.04266326 94.5405573,9.28590429 93.7527061,9.28164075 C93.3174239,9.28164075 92.9300257,9.21554102 92.5905104,9.08320176 C92.520868,9.04905356 92.472983,9.03627295 92.4468686,9.04476008 C92.4207451,9.05374644 92.4076884,9.0980792 92.4076884,9.17917618 L92.4076884,10.5938303 C92.4076864,11.1187241 92.4664536,11.4430421 92.5839769,11.5668044 C92.7058521,11.6905567 93.0127237,11.7652334 93.5045927,11.7908446 C93.5481217,11.8334799 93.569876,11.9060598 93.5698862,12.0084744 C93.5698832,12.1151626 93.5481217,12.1855758 93.5045927,12.219714 C92.9169629,12.2026399 92.3772171,12.1941528 91.8853532,12.1941528 C91.5110116,12.1941528 91.0104409,12.2031392 90.3836391,12.219714 C90.3488179,12.1855658 90.3314022,12.1151626 90.3314022,12.0084744 C90.3314022,11.9060598 90.3488179,11.8335098 90.3836391,11.7908446 C90.8015066,11.7737705 91.0670266,11.7011806 91.1802001,11.5732047 C91.2933725,11.4451789 91.3499582,11.1187241 91.3499593,10.5938303 L91.3499593,4.99924668 C91.3499582,4.63225337 91.2977224,4.40181292 91.1932588,4.30792534 C91.093144,4.20977423 90.8559169,4.14363455 90.4815774,4.10948635 C90.4293405,3.96013291 90.4206326,3.83638062 90.455464,3.73821952 C91.1170881,3.65284902 91.6655397,3.52698994 92.1008209,3.3605524 C92.1704633,3.3605524 92.2226971,3.39470061 92.2575214,3.46297704 C92.3010504,3.56539169 92.3358716,3.85344474 92.361988,4.32712622 M98.989061,5.45376722 L101.41139,5.41532554 C101.546326,5.41532554 101.611619,5.35561611 101.60727,5.23609741 C101.60727,4.73681476 101.498448,4.38261205 101.280813,4.17350924 C101.063168,3.96440642 100.802004,3.85985502 100.497311,3.85985502 C100.37978,3.85985502 100.264429,3.8748323 100.151258,3.90468701 C100.038086,3.93454172 99.8987914,3.99854464 99.7333933,4.09672571 C99.567985,4.19058334 99.4178128,4.35490408 99.2828769,4.58960806 C99.1479409,4.82432202 99.0500057,5.11237508 98.989061,5.45376722 M102.495236,7.93739982 C102.647578,7.94638619 102.741164,8.01418335 102.775996,8.1422391 C102.179656,8.90183687 101.420098,9.28164075 100.497311,9.28164075 C99.6136833,9.28164075 98.9324753,9.00212475 98.453666,8.44309274 C98.0358015,7.96941126 97.8268642,7.32289196 97.8268642,6.50354482 C97.8268642,5.5775195 98.1098029,4.83285907 98.6756601,4.26955355 C99.2415274,3.70625801 99.848734,3.42460524 100.497311,3.42460524 C102.00337,3.42460524 102.7564,4.184213 102.756411,5.70340854 C102.7564,5.85277198 102.673712,5.9274487 102.508303,5.9274487 L98.949891,5.90178763 C98.949891,6.63579422 99.0913552,7.23536473 99.3742838,7.70050916 C99.766035,8.3278176 100.253552,8.64147182 100.836825,8.64147182 C101.21116,8.64147182 101.515853,8.59024952 101.750914,8.48784486 C101.990314,8.38116667 102.238421,8.19766503 102.495236,7.9373499 M108.031989,7.52773124 L108.031989,5.03768837 C108.031989,4.83712261 108.016713,4.69629623 107.986261,4.61521921 C107.960188,4.52984871 107.899182,4.43385432 107.803437,4.32716616 C107.529206,4.01138516 107.167927,3.85562144 106.71959,3.85988497 C106.184195,3.85988497 105.76851,4.07752483 105.472515,4.51279458 C105.215699,4.87126082 105.087292,5.45163046 105.087292,6.2539035 C105.087292,7.02203833 105.233115,7.61734531 105.524751,8.03981447 C105.820737,8.45803008 106.16461,8.66713289 106.556361,8.66713289 C106.904583,8.66713289 107.324627,8.45803008 107.816493,8.03981447 C107.960137,7.91606219 108.031959,7.74537111 108.031959,7.52773124 M107.881787,8.49429507 C107.228872,9.01918886 106.671712,9.28164075 106.210319,9.28164075 C105.505166,9.28164075 104.950187,9.02558916 104.545379,8.51350593 C104.140561,7.99714919 103.938162,7.32289196 103.938162,6.49074424 C103.938162,5.55618187 104.245034,4.78804705 104.85878,4.18633977 C105.420288,3.66145597 106.088439,3.39900408 106.863234,3.39900408 C106.99817,3.39900408 107.146162,3.418175 107.307222,3.45661669 C107.468271,3.49505837 107.605387,3.53340021 107.718558,3.5718419 C107.836078,3.6059901 107.899192,3.6230642 107.90791,3.6230642 C107.98623,3.6230642 108.0276,3.5825257 108.031959,3.5014387 L108.031959,1.82434267 C108.031959,1.54269989 108.022793,1.33359708 108.005886,1.19703423 C107.99285,1.05621783 107.936224,0.953803184 107.836129,0.889780299 C107.740394,0.821483898 107.666362,0.785238877 107.614135,0.780955375 C107.561888,0.776961433 107.413906,0.766077942 107.170147,0.749003842 C107.070032,0.650852727 107.043919,0.520710139 107.091827,0.358536139 C107.884038,0.298826712 108.50866,0.179308009 108.965705,6.98939784e-05 C109.083225,6.98939784e-05 109.14199,0.0449018887 109.142,0.134495984 C109.107169,0.484435164 109.087614,0.943179299 109.083235,1.51073837 L109.083235,7.45098766 C109.083225,7.7923798 109.144139,8.02922054 109.266049,8.16150987 C109.387918,8.28953567 109.653441,8.37061268 110.062608,8.4047509 C110.106096,8.44738623 110.127891,8.50930231 110.127891,8.59038931 C110.127891,8.66717283 110.106096,8.72480541 110.062608,8.76321715 C109.348748,8.84000067 108.822061,9.01285847 108.482547,9.28171065 C108.404227,9.31585885 108.319308,9.31585885 108.227911,9.28171065 C108.149591,8.97445672 108.101673,8.71840512 108.084267,8.51357582 C108.075101,8.4709405 108.047297,8.44957291 107.999429,8.44957291 C107.955941,8.44957291 107.91673,8.46455019 107.881899,8.4944049 M111.381464,1.29942891 C111.381464,1.14154839 111.457645,0.998585254 111.609987,0.870559455 C111.762328,0.738270124 111.919029,0.672120466 112.080088,0.672120466 C112.249845,0.672120466 112.397838,0.744710355 112.524076,0.88976033 C112.654653,1.03486023 112.719947,1.18848719 112.719947,1.35064122 C112.719947,1.50000465 112.648145,1.6429678 112.504481,1.77952066 C112.365196,1.91608351 112.206316,1.98434996 112.027851,1.98434996 C111.866802,1.98434996 111.718799,1.91176007 111.583863,1.76671009 C111.448927,1.62163016 111.381464,1.46586644 111.381464,1.29942891 M112.602426,7.55333241 C112.602416,8.0782262 112.654673,8.40255423 112.759127,8.52630651 C112.867939,8.64579526 113.135632,8.72047199 113.562214,8.75034667 C113.605702,8.792982 113.627498,8.86769866 113.627498,8.97438682 C113.627498,9.07680147 113.605702,9.1450779 113.562214,9.17921612 C112.974582,9.16214202 112.480537,9.15365489 112.080088,9.15365489 C111.670921,9.15365489 111.170348,9.16264126 110.578377,9.17921612 C110.543546,9.14506792 110.52613,9.07680147 110.52613,8.97438682 C110.52613,8.86769866 110.543546,8.79302193 110.578377,8.75034667 C111.004949,8.71619847 111.272642,8.63939497 111.381464,8.51990622 C111.490277,8.40041747 111.544693,8.0782262 111.544693,7.55333241 L111.544693,4.99928662 C111.544693,4.63229331 111.492446,4.40185286 111.387993,4.30796528 C111.287878,4.20981417 111.050648,4.14367449 110.676312,4.10952629 C110.624065,3.96017285 110.615408,3.83642056 110.65024,3.73825946 C111.477271,3.63158128 112.086667,3.50569224 112.478419,3.36059234 C112.595939,3.36059234 112.654704,3.39044706 112.654704,3.45015648 C112.619873,4.00919848 112.602457,4.50635435 112.602457,4.94162409 L112.602457,7.55328249 M114.358783,6.46514308 C114.358783,5.59885714 114.604711,4.88193463 115.096577,4.31436557 C115.627613,3.70413123 116.326237,3.39900408 117.192448,3.39900408 C117.832307,3.39900408 118.372051,3.5547678 118.81169,3.86628526 C119.255668,4.17353919 119.56471,4.54266926 119.738836,4.97367547 C119.912942,5.40042813 120,5.85917227 120,6.34991786 C120,7.26315258 119.710533,7.99714919 119.131619,8.55190768 C118.622338,9.04266326 117.967243,9.28590429 117.166335,9.28169584 C116.27401,9.28169584 115.581915,8.99785123 115.090049,8.43029216 C114.602532,7.8627231 114.358783,7.20767673 114.358783,6.46514308 M116.990039,3.85988497 C116.001959,3.85988497 115.507913,4.62801979 115.507913,6.16428944 C115.507913,6.4459422 115.540606,6.7318585 115.605889,7.02203833 C115.675552,7.30795462 115.775646,7.59174414 115.906223,7.87338692 C116.041159,8.15077615 116.232681,8.37907984 116.480798,8.55830797 C116.733255,8.73754609 117.024891,8.82716015 117.355708,8.82716015 C117.747459,8.82716015 118.093501,8.66925967 118.393846,8.35347867 C118.698539,8.0376877 118.85089,7.50853037 118.85089,6.76599671 C118.85089,5.83143434 118.685482,5.11451184 118.354676,4.61521921 C118.023859,4.11166305 117.568994,3.85988497 116.99007,3.85988497" id="io-tagline" fill="#000000" fill-rule="nonzero"></path>
    </g>
</svg>