<svg xmlns="http://www.w3.org/2000/svg" width="120" height="20"><path fill="#000" fill-rule="nonzero" d="M17.236 2.402H18.009l.176.001h.324l.146.001h.252l.104.001h.252l.056.054v.501c0 .138-.075.207-.223.207-.724.035-.872.11-1.137.507-.145.216-.43.682-.726 1.204l-2.542 4.94s-1.012 2.198-2.111 4.535l-.237.503-.237.502c-.71 1.5-1.403 2.938-1.832 3.764-.687 1.242-1.253 1.08-1.703.032C7.007 15.318 3.796 8.582 2.284 4.808c-.28-.695-.49-1.142-.69-1.318-.199-.175-.615-.28-1.246-.315C.116 3.149 0 3.09 0 2.995V2.47l.056-.051.359-.001h.323l.183-.001H5l.184.001.831.001h.05l.056.051v.501c0 .138-.084.205-.25.205l-.627.027c-.538.023-.807.19-.807.5 0 .145.057.38.182.695.464 1.177 1.369 3.257 2.305 5.368l.255.576c1.408 3.164 2.801 6.22 2.801 6.22l.153.04 5.805-12.036c.327-.742.26-.928.125-1.1-.078-.096-.338-.25-.904-.275l-.222-.025a.26.26 0 0 1-.16-.06.174.174 0 0 1-.076-.147v-.5l.069-.052 1.038-.004Zm2.623 5.296.337.007c.335.006.656.01.898.012h.114c.681 0 2.625-.052 2.625-.052l.025.052v.578c0 .078-.05.131-.152.131l-.53.053c-.782.078-1.06.29-1.06.815v8.738c0 .577.253.918 1.06.997l.53.053c.076 0 .152.052.152.157v.55l-.025.054s-1.919-.053-2.701-.053c-.707 0-2.675.053-2.675.053l-.05-.053v-.551c0-.105.075-.157.176-.157l.505-.053c.833-.079 1.085-.499 1.085-.997V9.294c0-.576-.304-.736-1.085-.813l-.505-.054c-.101 0-.177-.024-.177-.105v-.605l.025-.052s.697.018 1.428.033ZM80.6 19.082l.581-.053c.758-.079 1.01-.315 1.01-1.127v-8.66c0-.684-.178-.684-1.01-.76l-.553-.055c-.101 0-.179-.053-.179-.131v-.578l.024-.052s2.222.052 2.678.052c.477 0 2.675-.052 3.331-.052 4.215 0 6.286 2.729 6.286 6.219 0 4.593-3.13 5.955-5.932 5.955-2.019 0-2.901-.052-3.683-.052-.759 0-2.677.052-2.677.052l-.025-.052v-.551c-.002-.076.05-.155.15-.155Zm5.63 0c2.775 0 4.342-1.074 4.342-4.75 0-2.728-.582-5.905-4.822-5.905-.984 0-1.615.157-1.615.815v8.66c0 .732.176 1.18 2.095 1.18Zm11.914-1.05c0 .577.252.918 1.06.997l.53.053c.075 0 .151.052.151.157v.55l-.025.054s-1.918-.053-2.7-.053c-.707 0-2.675.053-2.675.053l-.052-.053v-.551c0-.105.076-.157.177-.157l.506-.053c.832-.079 1.085-.499 1.085-.997V9.294c0-.576-.304-.736-1.085-.813l-.506-.054c-.1 0-.177-.024-.177-.105v-.605l.026-.052s1.994.052 2.774.052c.682 0 2.626-.052 2.626-.052l.024.052v.578c0 .078-.051.131-.151.131l-.53.053c-.783.078-1.06.29-1.06.815l.002 8.738Zm-68.58 0c0 .577.328.866 1.06.997l.278.053c.075.026.151.052.151.157v.55l-.025.054s-1.59-.053-2.348-.053c-.706 0-2.776.053-2.776.053l-.05-.053v-.551c0-.105.075-.157.176-.157l.505-.053c.757-.079 1.085-.499 1.085-.997V9.294c0-.576-.277-.736-1.085-.813l-.505-.054c-.1 0-.176-.024-.176-.105v-.605l.025-.052s2.07.052 2.852.052c.708 0 2.297-.052 2.297-.052l.025.052v.578c0 .078-.05.105-.151.131l-.278.053c-.783.157-1.06.29-1.06.815v3.962c.833 0 1.312-.445 2.423-1.68 1.01-1.155 1.792-2.124 1.792-2.623 0-.211-.227-.446-.732-.526-.101-.025-.152-.053-.152-.131V7.69l.026-.025s2.044.052 2.776.052c.656 0 1.767-.052 1.767-.052l.075.025v.605c0 .078-.075.131-.201.131-.985.079-1.666.131-2.575 1.207l-2.17 2.597c-.43.473-.581.76-.581.972 0 .157.101.287.227.445l3.811 4.775c.303.367.909.525 1.414.63l.126.024c.076.027.177.08.177.158v.55l-.076.027s-1.338-.026-2.045-.026c-.63 0-1.54.026-1.54.026l-.024-.026v-.315c0-.342-.026-.629-.379-1.049L30.903 14.8c-.38-.526-.783-.655-1.338-.655v3.887Zm13.607 0c0 .577.252.918 1.06.997l.53.053c.075 0 .151.052.151.157v.55l-.025.054s-1.918-.053-2.7-.053c-.707 0-2.676.053-2.676.053l-.05-.053v-.551c0-.105.075-.157.176-.157l.505-.053c.833-.079 1.085-.499 1.085-.997V9.294c0-.576-.303-.736-1.085-.813l-.505-.054c-.1 0-.176-.024-.176-.105v-.605l.025-.052s1.994.052 2.776.052c.682 0 2.625-.052 2.625-.052l.025.052v.578c0 .078-.05.131-.151.131l-.53.053c-.783.078-1.06.29-1.06.815v8.738Zm5.162-8.687c0-.813-.328-.84-1.514-.918-.152 0-.177-.078-.177-.131v-.604l.05-.026c.38 0 1.868.052 2.6.052.707 0 1.716-.052 2.65-.052 3.582 0 4.239 1.836 4.239 3.202 0 1.576-.732 4.041-4.314 4.041-.631 0-1.136-.053-1.591-.262v3.514c0 .577.302.71 1.111.84l.506.078c.1.027.176.054.176.158v.55l-.024.053s-2.019-.052-2.801-.052c-.707 0-2.6.052-2.6.052l-.025-.052v-.551c0-.105.05-.131.151-.158l.53-.078c.783-.105 1.035-.341 1.035-.84l-.002-8.816Zm1.944 4.567c.504.211 1.135.236 1.64.236 1.515 0 2.244-.946 2.244-2.965 0-2.256-.984-2.755-2.37-2.755-1.213 0-1.515.236-1.515.918v4.566Zm16.631-6.195H60.397l-2.523-.052-.026.052v.578c0 .026 0 .078.152.105l.58.052c.707.053 1.01.21 1.01.814v8.947c0 .525-.227.735-1.01.814l-.58.052c-.126 0-.152.08-.152.132v.577l.026.052 2.498-.052h6.663c.05-.84.228-1.916.53-3.201l-.63-.08c-.404 1.34-.96 2.389-2.5 2.389h-2.17c-.454 0-.732-.131-.732-.63v-4.382h1.893c.656 0 .884.289.984.813l.127.578c0 .078.05.13.176.13h.43l.05-.052c-.05-.603-.152-1.154-.152-1.81 0-.63.101-1.365.152-1.942 0-.052 0-.079-.05-.079h-.43c-.1 0-.151.053-.151.131l-.152.552c-.1.524-.277.84-.984.84h-1.893V9.16c0-.446.253-.551.732-.551h2.02c1.615 0 2.094 1.39 2.347 2.335l.63-.079c-.176-.997-.328-2.02-.353-3.149m11.26 0h-6.511l-2.524-.052-.025.052v.578c0 .026 0 .078.151.105l.58.052c.708.053 1.01.21 1.01.814v8.947c0 .525-.227.735-1.01.814l-.58.052c-.126 0-.151.08-.151.132v.577l.025.052 2.499-.052h6.663c.05-.84.227-1.916.53-3.201l-.631-.08c-.404 1.34-.96 2.389-2.499 2.389h-2.17c-.455 0-.732-.131-.732-.63v-4.382h1.893c.656 0 .883.289.984.813l.126.578c0 .078.05.13.177.13h.429l.05-.052c-.05-.603-.15-1.154-.15-1.81 0-.63.1-1.365.15-1.942 0-.052 0-.079-.05-.079h-.43c-.1 0-.15.053-.15.131l-.152.552c-.1.524-.278.84-.984.84h-1.893V9.16c0-.446.252-.551.732-.551h2.019c1.615 0 2.095 1.39 2.347 2.335l.631-.079c-.177-.997-.328-2.02-.353-3.149m23.554 11.948c-.057-.172-.03-.533.047-.625.034-.041.127-.066.252-.066.25-.001.682-.093.995-.21.544-.205.911-.575 1.276-1.287.114-.224 1.56-3.517 3.213-7.319 1.653-3.801 3.043-6.985 3.088-7.074.308-.605.85-.748 1.16-.307.071.102 1.292 3.214 2.98 7.6 1.573 4.085 2.915 7.522 2.982 7.638.068.116.222.31.342.431.186.187.273.238.567.33.393.125.792.198 1.082.198.17 0 .204.016.246.11.054.118.063.507.014.631-.03.074-.191.078-3.312.086l-3.282.008-.044-.098c-.059-.129-.058-.49.002-.621.044-.098.07-.104.588-.13.56-.03 1.086-.114 1.257-.202.182-.093.246-.217.247-.478 0-.215-.107-.54-.84-2.536l-.842-2.29h-3.033c-3.217 0-3.205-.001-3.383.2-.04.045-.425.987-.854 2.092-.696 1.792-.781 2.041-.797 2.31-.015.28-.008.313.1.44a.953.953 0 0 0 .232.199c.203.105.823.243 1.206.268.34.022.375.032.418.127.06.13.061.492.002.62l-.044.1h-5.817l-.048-.145Zm11.56-7.336c0-.044-1.982-5.445-2.465-6.718-.06-.159-.132-.289-.16-.288-.045 0-2.768 6.72-2.767 6.83 0 .079.121.157.291.19.087.017 1.27.033 2.63.036 1.993.004 2.472-.006 2.472-.05Zm-5.691-9.949c-.121-.043-.282-.158-.435-.31-.49-.491-.505-1.127-.036-1.64.27-.296.544-.42.924-.42.827 0 1.424.783 1.196 1.567-.094.323-.451.698-.769.806a1.48 1.48 0 0 1-.88-.003Zm6.345.006c-.261-.096-.58-.401-.7-.668-.446-1.005.636-2.068 1.637-1.607.31.142.466.282.616.553.11.2.126.27.126.57-.001.267-.022.381-.093.514a1.61 1.61 0 0 1-.592.59c-.226.116-.74.142-.994.048Z"/></svg>