<svg xmlns="http://www.w3.org/2000/svg" width="120" height="22"><path fill="#000" fill-rule="nonzero" d="M16.516 1.1c1.327.08 2.094.352 2.3.817.207.466.093 1.15-.342 2.053L12.64 17.348h-.17L6.592 3.77c-.454-.965-.563-1.629-.328-1.991.235-.363.967-.589 2.198-.678.11-.121.166-.304.166-.55 0-.247-.055-.43-.166-.551L6.116.046c-.708.013-1.416.02-2.124.02-.699 0-1.307-.007-1.825-.02C1.65.033.977.017.15 0 .04.121-.009.304.001.55c.011.247.073.43.185.55.993.048 1.676.27 2.048.668.372.398.792 1.187 1.259 2.369l7.296 17.081c.11.26.233.453.37.579a.683.683 0 0 0 .48.188.737.737 0 0 0 .516-.204c.142-.135.265-.322.37-.563l7.637-17.014c.31-.803.699-1.484 1.168-2.043.469-.56 1.29-.913 2.464-1.06.11-.121.166-.304.166-.55 0-.247-.055-.43-.166-.551-.729.017-1.35.033-1.861.046-.512.013-.975.02-1.39.02-.431 0-.992-.007-1.681-.02L16.516 0c-.111.121-.166.304-.166.55 0 .247.055.43.166.55Zm12.777 17.47V8.66c-.02-.986.136-1.608.472-1.865.335-.258.971-.385 1.909-.383.082-.09.123-.226.123-.408 0-.182-.041-.318-.123-.408l-1.759.034a100.641 100.641 0 0 1-3.564 0l-1.765-.034c-.082.09-.124.226-.124.408 0 .182.042.318.124.408.937-.003 1.573.125 1.908.383.336.257.493.879.473 1.865v9.91c.02.987-.137 1.609-.473 1.866-.335.257-.971.385-1.908.383-.082.09-.124.225-.124.408 0 .182.042.318.124.407l1.758-.033a100.64 100.64 0 0 1 3.564 0l1.766.033c.082-.09.123-.225.123-.407 0-.183-.041-.318-.123-.408-.938.002-1.574-.126-1.91-.383-.335-.257-.492-.88-.471-1.866Zm12.667 3.262a8.706 8.706 0 0 0 3.773-.843c1.181-.56 2.24-1.392 3.178-2.493a.812.812 0 0 0-.253-.269.687.687 0 0 0-.376-.102c-.956.956-1.939 1.646-2.949 2.07-1.01.424-2.144.632-3.4.624-1.413-.026-2.58-.405-3.503-1.14a6.655 6.655 0 0 1-2.062-2.803 9.47 9.47 0 0 1-.675-3.545c.005-1.067.152-2.01.438-2.83.287-.82.683-1.507 1.188-2.063.687-.751 1.406-1.306 2.159-1.665.753-.359 1.489-.537 2.208-.534 1.858.04 3.24.466 4.146 1.279.907.812 1.523 1.77 1.848 2.872a.98.98 0 0 0 .458.031c.144-.026.292-.078.445-.154a33.648 33.648 0 0 0-.26-1.888c-.104-.621-.218-1.269-.342-1.943-.65-.1-1.403-.3-2.258-.602-.855-.301-2.1-.471-3.736-.51-1.161.004-2.231.188-3.208.55a9.094 9.094 0 0 0-2.675 1.55 7.861 7.861 0 0 0-2.132 2.786c-.506 1.094-.762 2.291-.77 3.59 0 1.352.32 2.636.964 3.851.642 1.216 1.612 2.21 2.909 2.983 1.296.773 2.925 1.173 4.885 1.198Zm13.15-3.262V8.66c-.02-.986.136-1.608.472-1.865.335-.258.971-.385 1.908-.383.083-.09.124-.226.124-.408 0-.182-.041-.318-.124-.408l-1.758.034a100.641 100.641 0 0 1-3.564 0l-1.765-.034c-.083.09-.124.226-.124.408 0 .182.041.318.124.408.937-.003 1.573.125 1.908.383.336.257.493.879.472 1.865v9.91c.02.987-.136 1.609-.472 1.866-.335.257-.971.385-1.908.383-.083.09-.124.225-.124.408 0 .182.041.318.124.407a1449.6 1449.6 0 0 1 1.758-.033 100.64 100.64 0 0 1 3.564 0l1.765.033c.083-.09.124-.225.124-.407 0-.183-.041-.318-.124-.408-.937.002-1.573-.126-1.908-.383-.336-.257-.493-.88-.472-1.866Zm8.07-10.676c-.025-.379.126-.732.451-1.06.325-.326.968-.5 1.93-.521.983-.042 1.848.184 2.596.676.747.493 1.14 1.503 1.18 3.03-.004 1.325-.352 2.285-1.043 2.88-.692.595-1.703.887-3.035.877-.367 0-.761-.012-1.183-.034a6.513 6.513 0 0 1-.897-.09V7.894Zm-2.327.766v9.91c.02.987-.137 1.609-.472 1.866-.335.257-.971.385-1.909.383-.082.09-.123.225-.123.408 0 .182.041.318.123.407l1.759-.033c.524-.01 1.124-.015 1.799-.016.75 0 1.427.006 2.032.016s1.242.02 1.909.033c.082-.09.123-.225.123-.407 0-.183-.041-.318-.123-.408-1.05-.009-1.782-.14-2.196-.392-.414-.253-.613-.872-.596-1.857V14.37c.296.086.621.149.975.188.354.04.768.06 1.242.06 2.45-.08 4.153-.657 5.11-1.734.959-1.076 1.417-2.18 1.376-3.308.061-.809-.328-1.675-1.166-2.598-.84-.923-2.494-1.425-4.964-1.504-.4.007-.976.036-1.731.086-.755.05-1.428.08-2.018.087-.66 0-1.249-.007-1.765-.016l-1.766-.034c-.082.09-.123.226-.123.408 0 .182.041.318.123.408.938-.003 1.574.125 1.91.383.334.257.492.88.471 1.865Zm21.271-7.34-3.393 2.126c-.173.108-.286.201-.339.278a.377.377 0 0 0-.072.241c.002.102.04.189.113.26a.426.426 0 0 0 .298.11c.12.002.27-.02.451-.064.182-.045.414-.122.698-.232l3.94-1.433c-.347-.527-.913-.956-1.696-1.285Zm-2.107 11.344h-2.49V7.72c0-.304.082-.56.246-.766.164-.206.41-.313.739-.321h2.873c.99.006 1.686.242 2.09.707.405.466.739 1.128 1.003 1.987.336.039.637-.003.903-.124a73.69 73.69 0 0 0-.332-2.097c-.14-.818-.23-1.314-.27-1.486.004-.05-.032-.074-.11-.074a7.289 7.289 0 0 1-.598.077c-.181.015-.429.022-.743.022H76.35l-1.252-.016c-.773-.01-1.533-.021-2.278-.034-.083.09-.124.226-.124.408 0 .182.041.318.124.408.937-.003 1.573.125 1.908.383.336.257.493.879.472 1.865v9.91c.02.987-.136 1.609-.472 1.866-.335.257-.971.385-1.908.383-.083.09-.124.225-.124.408 0 .182.041.318.124.407a450.367 450.367 0 0 1 3.557-.049h5.884c.72.003 1.469.01 2.244.025l1.259.024c.196-.633.385-1.318.568-2.054.182-.735.33-1.426.445-2.072-.283-.155-.602-.197-.958-.124-.26.913-.665 1.675-1.218 2.286-.553.61-1.342.928-2.367.951h-3.722c-.305-.002-.544-.096-.719-.28-.174-.186-.263-.446-.266-.782v-5.956h2.49c1.116 0 1.812.142 2.087.423.274.282.409.7.403 1.257.1.075.25.112.452.112s.352-.037.451-.112l-.037-1.096a33.082 33.082 0 0 1 0-2.178c.01-.323.023-.665.037-1.026-.099-.074-.25-.11-.451-.11-.202 0-.352.036-.452.11.006.665-.129 1.115-.403 1.35-.275.236-.97.346-2.087.33Zm12.776 5.906V8.66c-.02-.986.136-1.608.472-1.865.335-.258.971-.385 1.909-.383.082-.09.123-.226.123-.408 0-.182-.041-.318-.123-.408l-1.759.034a100.641 100.641 0 0 1-3.564 0l-1.765-.034c-.083.09-.124.226-.124.408 0 .182.041.318.124.408.937-.003 1.573.125 1.908.383.336.257.493.879.472 1.865v9.91c.021.987-.136 1.609-.472 1.866-.335.257-.971.385-1.908.383-.083.09-.124.225-.124.408 0 .182.041.318.124.407l1.758-.033a100.64 100.64 0 0 1 3.564 0l1.766.033c.082-.09.123-.225.123-.407 0-.183-.041-.318-.123-.408-.938.002-1.574-.126-1.91-.383-.335-.257-.492-.88-.471-1.866Zm9.954.246V2.769c.016-.579.307-.997.873-1.255.565-.258 1.309-.385 2.23-.38 2.643.04 4.742.609 6.296 1.704 1.554 1.096 2.664 2.477 3.332 4.143a13.33 13.33 0 0 1 .975 5.13c-.077 3.298-1.04 5.542-2.886 6.73-1.847 1.189-4.111 1.747-6.793 1.676-1.752-.003-2.876-.154-3.372-.45-.495-.296-.714-.713-.655-1.251ZM101.158.066c-.891 0-1.686-.007-2.383-.02L96.392 0c-.11.121-.166.304-.166.55 0 .247.055.43.166.55 1.266-.002 2.124.17 2.577.518.453.348.665 1.187.637 2.519v13.378c.028 1.332-.184 2.171-.637 2.519-.453.347-1.311.52-2.577.517-.11.12-.166.304-.166.55 0 .246.055.43.166.55a1891.9 1891.9 0 0 1 2.374-.045c.708-.013 1.518-.02 2.429-.02.64.002 1.456.013 2.448.032.991.02 2.416.031 4.276.034 1.79.024 3.605-.262 5.447-.858 1.843-.596 3.396-1.648 4.66-3.156 1.263-1.507 1.921-3.617 1.974-6.328-.088-3.186-1.325-5.847-3.713-7.982S110.888.083 107.254 0c-1.198.002-2.33.014-3.394.033-1.065.02-1.965.031-2.702.034Z"/></svg>