<svg xmlns="http://www.w3.org/2000/svg" width="120" height="12"><path fill="#000" fill-rule="nonzero" d="m84.295 4.515.417 6.263a3.692 3.692 0 0 1-.801 1.265l-.537-5.992a4.363 4.363 0 0 1 .92-1.536ZM31.905 1.98c.031.295.062.54.093.734h2.377c.675 0 1.258.21 1.747.63.49.414.784.96.881 1.635.11.746.166 1.573.166 2.482 0 .252-.01.658-.027 1.219a6.208 6.208 0 0 1-.814 1.02l-.126-2.066c-.057-1.095-.179-1.912-.364-2.45-.292-.852-.792-1.278-1.503-1.278h-2.278c.036.481.053 1.033.053 1.655 0 .486-.024 1.15-.072 1.993-.045.773-.08 1.22-.106 1.344-.3.327-.62.634-.96.92.061-.86.092-1.818.092-2.873 0-1.434-.143-2.56-.43-3.376.406-.46.83-.99 1.271-1.59Zm41.552.066 1.681 1.198c.26.181.428.435.503.761.045.181.062.484.053.908l-.053 3.767c-.269.428-.58.799-.933 1.112l-.1-4.476c-.008-.534-.211-.93-.609-1.191l-1.37-.907.828-1.172Zm-46.186 0 1.681 1.198c.26.181.428.435.503.761.045.181.062.484.053.908l-.053 3.767c-.269.428-.58.799-.933 1.112l-.1-4.476c-.008-.534-.211-.93-.608-1.191l-1.371-.907.828-1.172Zm87.538.073c.031.225.051.348.06.37.044.15.124.225.238.225h2.702c.67 0 1.171.084 1.502.252.46.238.689.669.689 1.291v.854l-.066 3.377c-.234.49-.574.916-1.02 1.277l.06-4.382c.009-.985-.285-1.477-.88-1.477h-4.629a7.092 7.092 0 0 1 1.344-1.787Zm-64.935 0c.03.225.05.348.06.37.043.15.123.225.238.225h2.7c.672 0 1.173.084 1.504.252.459.238.688.669.688 1.291v.854l-.066 3.377c-.234.49-.574.916-1.02 1.277l.06-4.382c.009-.985-.285-1.477-.88-1.477H48.53a7.092 7.092 0 0 1 1.344-1.787Zm-10.514 0c.03.225.05.348.06.37.044.15.123.225.238.225h2.701c.671 0 1.172.084 1.503.252.46.238.689.669.689 1.291v.854l-.067 3.377c-.234.49-.573.916-1.02 1.277l.06-4.382c.01-.985-.284-1.477-.88-1.477h-4.628A7.092 7.092 0 0 1 39.36 2.12Zm-37.572-.1c.03.186.103.417.218.695h3.105c.442 0 .821.11 1.139.331.344.234.57.572.675 1.013.04.155.06.358.06.61l-.033 4.104c-.181.38-.428.702-.742.967l-.205-3.933c-.009-.269-.053-.666-.132-1.191-.124-.473-.369-.709-.735-.709H2.602c.238 1.157.384 2.36.437 3.608-.128.41-.329.994-.603 1.748H0l.728-1.191h1.523v-.153c0-.604-.082-1.282-.245-2.032l-.477-1.98H.185c.367-.728.9-1.357 1.603-1.887Zm113.511 2.609c-.017.388-.026.759-.026 1.112l-.033 2.642c-.247.512-.59.96-1.026 1.344 0-.137.013-1.43.04-3.88.29-.38.64-.786 1.045-1.218Zm-64.935 0c-.018.388-.027.759-.027 1.112l-.033 2.642c-.247.512-.59.96-1.026 1.344v-.059c.002-.302.015-1.575.04-3.821.29-.38.64-.786 1.046-1.218Zm-10.514 0c-.018.388-.027.759-.027 1.112l-.033 2.642c-.247.512-.589.96-1.026 1.344V9.62l.04-3.774c.291-.38.64-.786 1.046-1.218Zm66.657-2.523c.737.556 1.686 1.406 2.847 2.55.318.308.748.75 1.291 1.323a2.72 2.72 0 0 0 .463-1.502c0-.41-.099-.76-.297-1.047l1.012-1.31c.323.693.482 1.224.477 1.595-.004.428-.159.91-.463 1.443-.265.42-.532.84-.801 1.258a19.287 19.287 0 0 1 1.78 1.993l-.609 1.305c-.776-1.108-1.822-2.344-3.138-3.708a75.934 75.934 0 0 0-1.205-1.205c-.459.56-.684 1.253-.675 2.079.004.38.048.777.132 1.192h.88l-.555 1.191h-1.761l.218-.635a8.323 8.323 0 0 1-.053-.775c0-.658.122-1.264.364-1.82.164-.367.495-.912.993-1.636l-1.641-1.317.741-.974ZM77.33 0c.19.265.284.587.284.967v.907c0 .56.082.84.245.84h2.834c.485 0 .808.128.967.384.114.19.172.528.172 1.013 0 1.272-.523 2.5-1.57 3.688-.648.728-1.783 1.35-3.402 1.867l.675-1.503c.874-.198 1.534-.432 1.98-.702.392-.238.7-.593.92-1.065.212-.45.318-.932.318-1.444 0-.697-.219-1.046-.656-1.046h-2.496c-.335 0-.558-.029-.669-.086-.097-.044-.15-.141-.158-.291L76.72 2.37c-.049-.454-.157-.843-.325-1.165L77.33 0ZM61.473 2.033c.022.247.05.41.086.49a.29.29 0 0 0 .291.191h2.172c.22-.264.464-.487.728-.668v.668h1.225l-.543 1.192h-.735v4.76a8.396 8.396 0 0 1-1.013.987V3.906h-3.648c.473-.702.952-1.326 1.437-1.873Zm-45.153.072c.199.777.298 1.377.298 1.801 0 .68-.216 1.302-.649 1.867-.287.375-.74.792-1.357 1.252.141.538.238.869.291.993.106.251.243.377.41.377.663 0 1.446-.388 2.351-1.165.516-.446.775-.92.775-1.424 0-.878-.137-1.666-.41-2.363.26-.292.626-.724 1.098-1.298.252.764.373 1.58.364 2.45-.004.993-.315 1.915-.933 2.767a5.693 5.693 0 0 1-1.682 1.543c-.675.41-1.309.616-1.9.616-.397 0-.702-.19-.914-.57-.106-.19-.238-.587-.397-1.192l-.735-2.74c-.225-.844-.454-1.417-.688-1.722.066-.084.36-.468.88-1.152.146.146.28.422.404.828.106.392.21.785.311 1.178l.57 2.112c.768-.53 1.152-1.03 1.152-1.503 0-.366-.095-.876-.285-1.53l1.046-1.125Zm67.783-.026.053.41c.026.15.103.225.231.225h4.324c.33 0 .589.142.774.424.155.239.232.521.232.848 0 1.447-.452 2.71-1.357 3.787-.654.776-1.66 1.346-3.02 1.708.15-.322.354-.788.61-1.397a4.23 4.23 0 0 0 1.774-.775c.596-.432.894-1.174.894-2.224 0-.786-.225-1.179-.675-1.179h-5.224a5.537 5.537 0 0 1 1.384-1.827Zm-61.785.04c.65.185 1.278.47 1.887.854.592.37 1.015.737 1.271 1.099.102.582.153 1.183.153 1.8 0 .504-.042 1.186-.126 2.046-.075.203-.318.651-.728 1.344h-4.708c.265-.397.501-.794.709-1.191h3.86a7.02 7.02 0 0 0 .112-1.238c0-.711-.1-1.424-.298-2.139-.547-.508-1.361-.947-2.443-1.317a1.306 1.306 0 0 0-.477 1.032c0 .265.109.497.325.696.101.092.307.227.616.403l-.656.987c-.468-.287-.757-.481-.867-.583-.296-.265-.444-.558-.444-.88 0-.508.228-1.088.682-1.742.393-.56.77-.95 1.132-1.171Zm46.186 0c.65.185 1.278.47 1.887.854.592.37 1.015.737 1.271 1.099.102.582.153 1.183.153 1.8 0 .504-.042 1.186-.126 2.046-.075.203-.318.651-.728 1.344h-4.708c.265-.397.501-.794.709-1.191h3.86a7.02 7.02 0 0 0 .112-1.238c0-.711-.1-1.424-.298-2.139-.547-.508-1.362-.947-2.443-1.317a1.306 1.306 0 0 0-.477 1.032c0 .265.109.497.325.696.101.092.307.227.616.403L68 6.495c-.468-.287-.757-.481-.867-.583-.296-.265-.444-.558-.444-.88 0-.508.228-1.088.682-1.742.393-.56.77-.95 1.132-1.171Zm27.542 0a10.271 10.271 0 0 0 1.708 2.462c.362.393.702.724 1.02.994.27-.406.404-.786.404-1.14 0-.268-.095-.604-.285-1.006l.973-1.257c.327.507.49 1.05.49 1.628 0 .618-.392 1.349-1.178 2.192.247.282.494.562.741.84.243.292.42.588.53.888-.141.503-.483 1.017-1.026 1.542h-4.774c.04-.053.298-.45.775-1.191h4.012c-.08-.274-.362-.66-.847-1.159-.177-.181-.662-.64-1.457-1.377-.605-.56-.986-.925-1.145-1.093a6.049 6.049 0 0 1-.86-1.132c.264-.419.57-.816.92-1.191Zm6.429 0c.75.401 1.454.966 2.112 1.694.07.442.106.994.106 1.656 0 .326-.027 1.134-.08 2.423l-.774 1.37h-2.655c.146-.234.358-.63.636-1.191h1.887c.061-.521.092-.982.092-1.384 0-.658-.057-1.3-.172-1.927a5.908 5.908 0 0 0-1.913-1.49l.761-1.151ZM8.839 2.033l.84.569c1.05.71 1.576 1.366 1.576 1.966 0 .371-.172.826-.516 1.364-.12.181-.446.622-.98 1.324l-.808.245c.777-1.165 1.165-1.988 1.165-2.47 0-.414-.443-.862-1.33-1.343l-.854-.457c.035-.044.337-.444.907-1.198Zm82.6 0 .84.569c1.05.71 1.576 1.366 1.576 1.966 0 .371-.172.826-.517 1.364-.119.181-.445.622-.98 1.324l-.807.245c.777-1.165 1.165-1.988 1.165-2.47 0-.414-.443-.862-1.33-1.343l-.855-.457c.036-.044.338-.444.907-1.198Zm-34.534 0 .84.569c1.051.71 1.576 1.366 1.576 1.966 0 .371-.172.826-.516 1.364-.12.181-.446.622-.98 1.324l-.808.245c.777-1.165 1.166-1.988 1.166-2.47 0-.414-.444-.862-1.331-1.343l-.854-.457c.035-.044.337-.444.907-1.198Z"/></svg>