<?xml version="1.0" encoding="UTF-8"?>
<svg width="110px" height="16px" viewBox="0 0 110 16" version="1.1" xmlns="http://www.w3.org/2000/svg" xmlns:xlink="http://www.w3.org/1999/xlink">
    <title>gcr-tagline</title>
    <g id="Page-1" stroke="none" stroke-width="1" fill="none" fill-rule="evenodd">
        <path d="M2.30563724,11.9892142 C1.37779121,12.0003752 0.634396307,12.0115362 0.0754525405,12.0226972 C0.0251508468,11.9723869 0,11.8801637 0,11.746025 C0,11.6062895 0.0251508468,11.5112666 0.0754525405,11.4609563 C0.718237614,11.4386343 1.12626643,11.3436157 1.29953898,11.1759005 C1.4784006,11.0082196 1.56783142,10.5806251 1.56783142,9.89311715 L1.56783142,3.00973088 C1.56783142,2.32223148 1.4784006,1.89743586 1.29953898,1.73534404 C1.12626643,1.56766314 0.718237614,1.47264454 0.0754525405,1.45028823 C0.0251508468,1.39997795 0,1.30495506 0,1.16521955 C0,1.02548403 0.0251508468,0.93046543 0.0754525405,0.880163737 C1.22128632,0.902485704 1.95909171,0.913646687 2.28886872,0.913646687 C2.65777099,0.913646687 3.40116589,0.902485704 4.51905342,0.880163737 C4.56935511,0.930474016 4.59450596,1.02549262 4.59450596,1.16521955 C4.59450596,1.29936598 4.56935511,1.39438888 4.51905342,1.45028823 C3.87626835,1.4726102 3.46544457,1.5676288 3.28658208,1.73534404 C3.11331039,1.89743586 3.02667454,2.32223148 3.02667454,3.00973088 L3.02667454,10.4632417 C3.02667454,10.7259454 3.0965423,10.9355487 3.23627781,11.0920515 C3.38160326,11.2429737 3.58002837,11.3184348 3.83155315,11.3184348 L5.77667561,11.3184348 C6.36915555,11.3184348 6.81631048,11.1283933 7.11814039,10.7483103 C7.42555937,10.3626383 7.68267323,9.80369192 7.88948196,9.07147131 C7.93978365,9.06546155 7.98729381,9.06245667 8.03201244,9.06245667 C8.17733789,9.06245667 8.31707383,9.0931923 8.45122026,9.15466357 C8.33943185,10.1495794 8.19131187,11.1053717 8.00686031,12.0220404 C6.95045691,11.9997184 6.26854573,11.9885574 5.96112674,11.9885574 L2.30563724,11.9892142 Z M13.8338453,7.98997202 L12.4756133,8.35049325 C11.3856737,8.63555335 10.8434985,9.26436315 10.8490876,10.2369227 C10.8490876,10.5443391 10.9524919,10.8266046 11.1593007,11.0837194 C11.3716993,11.335245 11.6791183,11.4610078 12.0815576,11.4610078 C12.4839969,11.4610078 12.9870461,11.212281 13.590705,10.7148274 C13.7527986,10.6030373 13.8338453,10.4549138 13.8338453,10.2704571 L13.8338453,7.98997202 Z M13.8338453,11.1675684 L13.8003109,11.1675684 L13.4565607,11.435857 C13.0764786,11.7320952 12.7662646,11.9249313 12.5259189,12.0143651 C12.2855731,12.109388 11.972565,12.1569415 11.5868947,12.1569415 C10.9329306,12.1569415 10.4075234,12.0087803 10.0106732,11.712542 C9.61941292,11.4162952 9.42378278,10.9467827 9.42378278,10.3040045 C9.42378278,9.73387568 9.6836916,9.2308244 10.2035093,8.79485063 C10.7233269,8.35887686 11.4080326,8.03189439 12.2576264,7.81390321 L13.7332368,7.45338199 C13.8003143,7.43106002 13.8338531,7.3639868 13.8338531,7.25216233 C13.8338531,5.76537339 13.36993,5.02197892 12.442084,5.02197892 C12.0620027,5.02197892 11.7294316,5.08346306 11.4443706,5.20643134 C11.1593088,5.32381055 11.0167779,5.50267389 11.0167779,5.74302138 C11.0167779,5.9051132 11.0279561,6.01690332 11.0503124,6.07839176 C11.0838468,6.14544351 11.1006141,6.24884573 11.1006141,6.38859841 C11.1006141,6.51715577 11.0307459,6.64571313 10.8910095,6.77427049 C10.7568631,6.89723877 10.5752065,6.95872291 10.3460397,6.95872291 C9.94360043,6.95872291 9.74517531,6.75750326 9.75076439,6.35506395 C9.75076439,5.88554714 10.0470048,5.45236361 10.6394856,5.05551339 C11.2375546,4.65307408 11.8859288,4.45185443 12.584608,4.45185443 C14.3117436,4.45185443 15.1753114,5.41882915 15.1753114,7.3527786 L15.1753114,9.90994878 C15.1753114,10.2397215 15.183695,10.4912428 15.2004622,10.6645128 C15.2172295,10.8377914 15.2787132,10.9998875 15.3849134,11.1508012 C15.4967026,11.2961257 15.6560016,11.368788 15.8628104,11.368788 C16.0025467,11.368788 16.1227196,11.3240711 16.223329,11.2346373 C16.3239393,11.1452035 16.3798335,11.1004866 16.3910116,11.1004866 C16.4245461,11.1004866 16.4692617,11.1340125 16.5251585,11.2010642 C16.5866469,11.268116 16.6173912,11.3296001 16.6173912,11.3855166 C16.6173912,11.4190854 16.555907,11.4973368 16.4329387,11.6202708 C16.3155613,11.73765 16.1366996,11.8578237 15.8963539,11.980792 C15.6560081,12.0981712 15.4100728,12.1568608 15.158548,12.1568608 C14.4710478,12.1628705 14.0294823,11.8330935 13.8338518,11.1675298 L13.8338453,11.1675684 Z M19.8117457,5.84362476 C20.2924373,5.30703902 20.7423867,4.94093301 21.1615941,4.74530673 C21.5863915,4.54967186 22.0391359,4.45185443 22.5198279,4.45185443 C23.1737915,4.45185443 23.6488936,4.647485 23.9451335,5.03874615 C24.2525525,5.45236361 24.4090565,6.21811869 24.4146456,7.33601137 L24.4146456,9.89316867 C24.4146456,10.5694985 24.4789243,10.9887093 24.6074817,11.1508012 C24.7416281,11.3073039 25.0602257,11.4107061 25.5632744,11.4610078 C25.607987,11.5113181 25.6303433,11.606341 25.6303433,11.7460765 C25.6303433,11.8802229 25.607987,11.972447 25.5632744,12.0227487 C24.5795341,12.0004267 23.9730806,11.9892657 23.7439139,11.9892657 C23.5371043,11.9892657 22.9530084,12.0004267 21.9916262,12.0227487 C21.9469136,11.9724384 21.9245572,11.8802143 21.9245572,11.7460765 C21.9245572,11.606341 21.9469136,11.5113181 21.9916262,11.4610078 C22.4611387,11.416278 22.7545837,11.3128758 22.8719612,11.1508012 C22.9949295,10.9887093 23.0564136,10.5694985 23.0564136,9.89316867 L23.0564136,7.28570967 C23.0564136,6.67645735 22.9865454,6.23489021 22.8468091,5.96100826 C22.6288213,5.5473908 22.3269918,5.34058207 21.9413206,5.34058207 C21.3097146,5.34058207 20.6445719,5.6787427 19.9458926,6.35506395 C19.7502629,6.57305513 19.652448,6.81339832 19.652448,7.07609353 L19.652448,9.89316867 C19.652448,10.5694985 19.7083422,10.9887093 19.8201306,11.1508012 C19.937509,11.3073039 20.2253649,11.4107061 20.6836984,11.4610078 C20.7340001,11.5113181 20.759151,11.606341 20.759151,11.7460765 C20.759151,11.8802229 20.7340001,11.972447 20.6836984,12.0227487 C19.7223154,12.0004267 19.1577825,11.9892657 18.9900999,11.9892657 C18.6715019,11.9892657 18.0398954,12.0004267 17.0952804,12.0227487 C17.0449787,11.9724384 17.0198279,11.8802143 17.0198279,11.7460765 C17.0198279,11.606341 17.0449787,11.5113181 17.0952804,11.4610078 C17.6318662,11.416278 17.9672323,11.3156703 18.1013787,11.1591848 C18.2355251,11.002682 18.3025983,10.5806767 18.3025983,9.89316867 L18.3025983,6.54789999 C18.3025983,6.06720502 18.2355251,5.76537339 18.1013787,5.64240511 C17.9728222,5.51384775 17.6654036,5.42721277 17.179123,5.38250015 C17.1120455,5.18687387 17.1008674,5.02478205 17.1455886,4.89622469 C18.2467071,4.74531102 19.0376122,4.58042037 19.5183037,4.40155273 C19.6580393,4.40155273 19.727907,4.44626964 19.727907,4.53570346 C19.6720162,5.06111105 19.6412763,5.49708482 19.6356872,5.84362476 C19.6412677,5.99453843 19.6999565,5.99453843 19.8117535,5.84362476 L19.8117457,5.84362476 Z M26.6615988,9.61649647 C26.7174896,9.5606057 26.8153049,9.53266032 26.9550447,9.53266032 C27.0668331,9.53266032 27.1478799,9.55502521 27.198185,9.599755 C27.3938147,10.4102227 27.617392,10.9384248 27.8689168,11.1843614 C28.1204415,11.4582433 28.5256758,11.5951843 29.0846196,11.5951843 C29.4535218,11.5951843 29.7888879,11.4917778 30.0907178,11.2849648 C30.3925469,11.0781603 30.5434614,10.7819221 30.5434614,10.39625 C30.5434614,10.016167 30.4260835,9.71154083 30.1913277,9.4823715 C29.956571,9.25321076 29.489853,8.99610033 28.7911737,8.71104023 C28.1036734,8.42597154 27.6173928,8.11855084 27.3323319,7.78877812 C27.0472701,7.45341633 26.9047391,6.98110927 26.9047391,6.37185694 C26.9047391,5.8352712 27.1450849,5.38252591 27.6257764,5.01362106 C28.106468,4.63912714 28.6737958,4.45188018 29.3277599,4.45188018 C29.5904628,4.45188018 29.8587557,4.47145483 30.1326385,4.51060413 C30.4065204,4.54975342 30.6943764,4.60285395 30.9962063,4.6699057 C31.3036244,4.73137696 31.4964596,4.76769309 31.5747118,4.77885407 C31.5747118,4.92976774 31.5579446,5.21482784 31.5244101,5.63403437 C31.4908757,6.04765183 31.4741084,6.36904523 31.4741084,6.59821456 C31.4182177,6.65410533 31.3176078,6.68205072 31.1722789,6.68205072 C31.0549015,6.68205072 30.9710602,6.65968582 30.920755,6.61495604 C30.8648643,6.27400516 30.7698439,5.98894506 30.6356941,5.75977573 C30.5071367,5.5306064 30.3534272,5.36851458 30.1745656,5.27350027 C29.9957031,5.1728883 29.8391986,5.10581508 29.7050522,5.07228062 C29.5764957,5.03871181 29.4507337,5.02192741 29.3277663,5.02192741 C29.0203473,5.02192741 28.7408755,5.12253938 28.4893507,5.32376333 C28.2434158,5.51938961 28.1204484,5.78488794 28.1204484,6.12025832 C28.1204484,6.34941907 28.1539872,6.54504965 28.2210647,6.70715005 C28.2937313,6.86365279 28.4222882,7.00618285 28.6067355,7.1347402 C28.7967761,7.25770848 28.9672537,7.35272709 29.1181682,7.41979601 C29.2690827,7.48684777 29.5094285,7.5846652 29.8392055,7.71324831 C31.1806699,8.22188008 31.851402,8.98204179 31.851402,9.99373342 C31.851402,10.3961727 31.7563817,10.748306 31.5663411,11.0501334 C31.3763004,11.3463716 31.1331601,11.5727464 30.8369202,11.7292578 C30.5406802,11.8801714 30.2472347,11.9891627 29.9565839,12.0562316 C29.6715229,12.1232834 29.392051,12.1568093 29.1181682,12.1568093 C28.5592253,12.1568093 28.0394081,12.0953251 27.5587165,11.9723569 C27.4804609,11.9500349 27.3658775,11.9388739 27.2149664,11.9388739 C27.1031771,11.9388739 26.9606462,11.9556583 26.7873737,11.9892271 C26.7817932,11.3911529 26.7398708,10.600247 26.6615988,9.61650935 L26.6615988,9.61649647 Z M33.9558106,1.70186109 C33.9558106,1.49504807 34.0536259,1.30780111 34.2492565,1.14012021 C34.4448862,0.966850236 34.6461058,0.880215249 34.8529154,0.880215249 C35.0709032,0.880215249 35.2609438,0.975233852 35.4230373,1.16527106 C35.59072,1.35531685 35.6745613,1.5565365 35.6745613,1.76893002 C35.6745613,1.96456488 35.5823359,2.15181184 35.3978852,2.3306709 C35.2190227,2.50952995 35.0150081,2.59895947 34.7858414,2.59895947 C34.5790326,2.59895947 34.388992,2.50394087 34.2157194,2.31390367 C34.0424469,2.12385787 33.9558106,1.91984368 33.9558106,1.70186109 Z M35.5236472,9.89316867 C35.5236472,10.5806767 35.5907204,11.0054766 35.7248668,11.1675684 C35.8646023,11.3240711 36.2083525,11.4218843 36.7561172,11.4610078 C36.8064189,11.5113181 36.8315698,11.606341 36.8315698,11.7460765 C36.8315698,11.8802229 36.8064189,11.972447 36.7561172,12.0227487 C35.772377,12.0004267 35.1379764,11.9892657 34.8529154,11.9892657 C34.5343174,11.9892657 33.8915324,12.0004267 32.9245602,12.0227487 C32.8742585,11.9724384 32.8491077,11.8802143 32.8491077,11.7460765 C32.8491077,11.606341 32.8742585,11.5113181 32.9245602,11.4610078 C33.472325,11.416278 33.8160751,11.3156703 33.9558106,11.1591848 C34.0955461,11.002682 34.1654139,10.5806767 34.1654139,9.89316867 L34.1654139,6.54789999 C34.1654139,6.06720502 34.0983407,5.76537339 33.9641942,5.64240511 C33.8356377,5.51384775 33.5310137,5.42721277 33.0503222,5.38250015 C32.9832447,5.18687387 32.9720665,5.02478205 33.0167877,4.89622469 C34.078781,4.75648918 34.861302,4.59159852 35.3643508,4.40155273 C35.5152653,4.40155273 35.5907225,4.4406591 35.5907225,4.51887184 C35.5460099,5.25108386 35.5236536,5.90224998 35.5236536,6.47237018 L35.5236472,9.89316867 Z M38.5503256,9.89316867 L38.5503256,2.38935621 C38.5503256,2.02045136 38.541942,1.74656942 38.5251747,1.56771036 C38.5084075,1.38326223 38.4357452,1.2491158 38.3071879,1.16527106 C38.1842204,1.07583724 38.0864051,1.02832579 38.013742,1.02273671 C37.9466645,1.01672695 37.7594184,1.00277572 37.4520037,0.980883027 C37.373748,0.902670289 37.3346202,0.774112931 37.3346202,0.595210952 C37.3346202,0.544900673 37.3402093,0.503004059 37.3513874,0.469521108 C38.3686647,0.391308371 39.1679538,0.234801335 39.7492547,-3.55271368e-15 C39.9001701,-3.55271368e-15 39.9756278,0.058689602 39.9756278,0.176068806 C39.9309152,0.634407468 39.9085589,1.23527189 39.9085589,1.97866207 L39.9085589,7.91464826 C40.3557142,7.7860909 41.0935196,7.1572768 42.1219751,6.02820597 C42.3287847,5.82140153 42.4321894,5.64254248 42.4321894,5.49162881 C42.4321894,5.28481579 42.2253803,5.17302566 41.811762,5.15625843 C41.7614603,5.10594815 41.7363094,5.01372409 41.7363094,4.87958624 C41.7363094,4.73985073 41.7614603,4.64203329 41.811762,4.58613394 C42.6613558,4.6084559 43.189557,4.61961689 43.3963658,4.61961689 C43.5472812,4.61961689 44.0447412,4.6084559 44.8887459,4.58613394 C44.9390476,4.63644421 44.9641985,4.73146711 44.9641985,4.87120262 C44.9641985,5.01093813 44.9390476,5.10595674 44.8887459,5.15625843 C44.0894564,5.18982724 43.4606449,5.44135287 43.0023114,5.91083535 L41.6943836,7.35290738 C41.649671,7.39763717 41.6273147,7.45632677 41.6273147,7.52897619 C41.6273147,7.60718892 41.6552601,7.6854403 41.7111509,7.7637303 L43.7233474,10.7317234 C43.8966199,10.9944272 44.0922501,11.1704917 44.3102378,11.2599169 C44.5338155,11.343796 44.8300555,11.4108692 45.1989577,11.4611366 C45.2492594,11.5114469 45.2744103,11.6064698 45.2744103,11.7462053 C45.2744103,11.8803517 45.2492594,11.9725758 45.1989577,12.0228775 C44.5114575,12.0005555 44.041945,11.9893945 43.7904202,11.9893945 C43.4606432,11.9893945 43.0637934,12.0005555 42.5998708,12.0228775 C42.5551582,12.0228775 42.5328018,11.9949321 42.5328018,11.9390413 L42.5328018,11.6623562 C42.5328018,11.4220088 42.40145,11.1117978 42.1387462,10.7317234 L40.8895076,8.97104822 C40.727414,8.73070073 40.5737046,8.56860462 40.4283791,8.48475988 C40.2886436,8.39533464 40.115371,8.35062203 39.9085615,8.35062203 L39.9085615,9.89329745 C39.9085615,10.5696273 39.9616611,10.9916327 40.0678605,11.1593136 C40.1796489,11.3214054 40.4227892,11.4220131 40.7972814,11.4611366 C40.8475831,11.5114469 40.8727339,11.6064698 40.8727339,11.7462053 C40.8783144,11.8803517 40.8531636,11.9725758 40.7972814,12.0228775 C39.8135411,12.0005555 39.2937239,11.9893945 39.2378297,11.9893945 C38.9751259,11.9893945 38.3630829,12.0005555 37.4017007,12.0228775 C37.351399,11.9725672 37.3262482,11.8803431 37.3262482,11.7462053 C37.3262482,11.6064698 37.351399,11.5114469 37.4017007,11.4611366 C37.9047494,11.4275678 38.2205524,11.3297546 38.3491098,11.1676972 C38.4832562,11.0056053 38.5503294,10.5808054 38.5503294,9.89329745 L38.5503256,9.89316867 Z M46.9931687,9.89316867 L46.9931687,2.38935621 C46.9931687,2.02045136 46.9819905,1.74656942 46.9596342,1.56771036 C46.942867,1.38326223 46.8702043,1.2491158 46.741646,1.16527106 C46.6186786,1.07583724 46.5236583,1.02832579 46.4565851,1.02273671 C46.3895076,1.01672695 46.1994669,1.00277572 45.8864632,0.980883027 C45.8082075,0.902670289 45.7718742,0.774112931 45.7774633,0.595210952 C45.7774633,0.544900673 45.7802535,0.503004059 45.785834,0.469521108 C46.8031104,0.391308371 47.6051941,0.234801335 48.1920849,-3.55271368e-15 C48.3429995,-3.55271368e-15 48.4184567,0.058689602 48.4184567,0.176068806 C48.3737441,0.634407468 48.3485933,1.23527189 48.3430042,1.97866207 L48.3430042,9.89329745 C48.3430042,10.5808054 48.4156665,11.0083999 48.5609911,11.1760808 C48.7063165,11.3381726 49.0472721,11.4331912 49.5838579,11.4611366 C49.6341595,11.5114469 49.6593104,11.6064698 49.6593104,11.7462053 C49.6593104,11.8803517 49.6341595,11.9725758 49.5838579,12.0228775 C48.6001176,12.0005555 47.9629221,11.9893945 47.6722712,11.9893945 C47.353674,11.9893945 46.7136839,12.0005555 45.7523008,12.0228775 C45.7019991,11.9725672 45.6768483,11.8803431 45.6768483,11.7462053 C45.6768483,11.6064698 45.7019991,11.5114469 45.7523008,11.4611366 C46.2888866,11.4388146 46.6298422,11.343796 46.7751676,11.1760808 C46.9204931,11.0083999 46.9931558,10.5808054 46.9931558,9.89329745 L46.9931687,9.89316867 Z M50.589969,8.46786387 C50.589969,7.33321254 50.9141565,6.3802148 51.5625315,5.60887065 C52.2164947,4.8375265 53.1052147,4.45185443 54.2286913,4.45185443 C54.8714763,4.45185443 55.4332146,4.56643909 55.9139062,4.79560842 C56.3945977,5.02477775 56.7690899,5.33219846 57.0373828,5.71787053 C57.3056757,6.09795353 57.5041003,6.50877645 57.6326568,6.95033929 C57.7668033,7.39190214 57.8338765,7.84744197 57.8338765,8.31695879 C57.8338765,8.93738068 57.7137036,9.52706266 57.4733578,10.0860047 C57.2330121,10.6449553 56.8249837,11.1312394 56.2492727,11.5448568 C55.6791499,11.9528852 54.9944438,12.1568994 54.1951542,12.1568994 C53.0604995,12.1568994 52.1745741,11.7824055 51.5373781,11.0334177 C50.905772,10.2844384 50.589969,9.42925381 50.589969,8.46786387 L50.589969,8.46786387 Z M54.0442401,5.02197892 C53.379097,5.02197892 52.8816374,5.32101601 52.5518613,5.91909018 C52.2276742,6.51156669 52.0655806,7.22980603 52.0655806,8.07380818 C52.0655806,8.42594579 52.1102958,8.79764517 52.1997262,9.18890632 C52.2947465,9.58016747 52.428893,9.96025047 52.6021655,10.3291553 C52.781028,10.6924625 53.0353473,10.9942898 53.3651235,11.2346373 C53.7004896,11.4749848 54.0805713,11.5951585 54.5053686,11.5951585 C55.0084173,11.5951585 55.4415983,11.3967334 55.8049115,10.9998832 C56.1738146,10.5974439 56.3582661,9.88478934 56.3582661,8.86191956 C56.3582661,7.6154781 56.1570465,6.6652749 55.7546072,6.01130996 C55.357757,5.35175593 54.7876346,5.02197892 54.0442401,5.02197892 L54.0442401,5.02197892 Z M61.5396716,6.23768045 C61.3552208,6.43331532 61.26579,6.68484096 61.2713791,6.99225737 L61.2713791,10.186621 C61.2713791,10.4884483 61.2937354,10.695257 61.338448,10.8070472 C61.3887497,10.9188373 61.5033335,11.0557783 61.6821995,11.2178701 C61.9504923,11.4582176 62.3557262,11.5783913 62.897901,11.5783913 C63.3562345,11.5783913 63.7502898,11.4833684 64.0800668,11.2933226 C64.4154329,11.1032854 64.6669572,10.846175 64.8346398,10.5219913 C65.0079124,10.1977991 65.1308802,9.86522757 65.2035434,9.5242767 C65.2817905,9.17772817 65.320914,8.80882332 65.320914,8.41756217 C65.320914,7.47853713 65.1224893,6.71558089 64.7256399,6.12869345 C64.3343797,5.53620836 63.8508936,5.23996581 63.2751817,5.23996581 C62.7609531,5.23996581 62.1824463,5.57253736 61.5396613,6.23768045 L61.5396716,6.23768045 Z M61.405526,5.66755596 C61.7856073,5.28748155 62.1880466,4.99124329 62.6128439,4.77884119 C63.0432303,4.56085002 63.4261065,4.45185443 63.7614726,4.45185443 C64.6222455,4.45185443 65.3432823,4.8011975 65.9245833,5.49988365 C66.5058851,6.19856121 66.7965359,7.01741251 66.7965359,7.95643756 C66.7965359,9.29790191 66.3745336,10.379457 65.5305289,11.2011028 C64.8542067,11.8438896 64.010202,12.1624885 62.9985147,12.1568994 C62.4395709,12.1568994 61.9421113,12.0702601 61.5061358,11.8969816 C61.4167046,11.8522518 61.3552208,11.8354674 61.3216847,11.8466284 C61.2881502,11.8577894 61.271383,11.916479 61.271383,12.0226972 L61.271383,13.8755921 C61.271383,14.5630915 61.3468402,14.9878914 61.4977548,15.1499919 C61.6542592,15.3120837 62.0483145,15.4098968 62.6799205,15.4434313 C62.7302222,15.4937416 62.7553731,15.5859656 62.7553731,15.7201035 C62.7553731,15.859839 62.7302222,15.9548619 62.6799205,16.0051722 C61.6961803,15.9828502 61.0030905,15.9716892 60.6006512,15.9716892 C60.2820532,15.9716892 59.6392682,15.9828502 58.672296,16.0051722 C58.6219943,15.9548619 58.5968435,15.859839 58.5968435,15.7201035 C58.5968435,15.585957 58.6219943,15.493733 58.672296,15.4434313 C59.2088817,15.4211093 59.5498373,15.3260907 59.6951628,15.1583755 C59.8404882,14.990686 59.913151,14.5630915 59.913151,13.8755921 L59.913151,6.54784848 C59.913151,6.06715351 59.8460777,5.76532188 59.7119313,5.6423536 C59.583374,5.51379624 59.2787495,5.42716125 58.798058,5.38244864 C58.7309805,5.18682235 58.7198023,5.02473053 58.7645235,4.89617318 C59.815337,4.75643766 60.586679,4.59154701 61.0785495,4.40150122 C61.229464,4.40150122 61.3049213,4.44060759 61.3049213,4.51882033 C61.2602087,4.83741489 61.2378524,5.2035209 61.2378524,5.61713836 C61.2378524,5.67302913 61.2602087,5.70376476 61.3049213,5.70934526 C61.3496339,5.71535502 61.3831727,5.70136086 61.4055376,5.66736279 L61.405526,5.66755596 Z M72.1959282,0.469392328 C72.2630058,0.447070361 72.3440525,0.435909378 72.4390686,0.435909378 C72.7912027,0.435909378 73.1042108,0.567261274 73.3780927,0.829965068 L73.4283944,1.01441749 L71.4581186,2.89247617 C71.2401308,3.11045876 71.0668583,3.21665552 70.9383009,3.21106644 C70.8824101,3.21106644 70.8293105,3.18870154 70.7790019,3.14397176 C70.7287002,3.09924197 70.7035494,3.04893598 70.7035494,2.9930538 C70.7035494,2.88126367 70.7678276,2.72196639 70.8963841,2.51516195 L72.1959282,0.469392328 Z M69.6890662,7.14317533 L72.7995872,7.09282213 C72.9728598,7.09282213 73.0567011,7.01456646 73.0511111,6.85805513 C73.0511111,6.20409877 72.9113752,5.74017533 72.6319033,5.46628479 C72.3524323,5.19240285 72.0170662,5.05546187 71.625805,5.05546187 C71.4748905,5.05546187 71.3267705,5.07503652 71.1814451,5.11418582 C71.0361205,5.15333511 70.8572589,5.23717556 70.6448602,5.36570716 C70.4324615,5.48867544 70.2396259,5.70386779 70.0663534,6.0112842 C69.8930808,6.31870061 69.7673184,6.69598907 69.6890662,7.14314958 L69.6890662,7.14317533 Z M74.1913563,10.3962242 C74.386986,10.4073852 74.5071589,10.4968147 74.5518749,10.6645128 C73.7861224,11.6594372 72.8107658,12.1568994 71.625805,12.1568994 C70.4911503,12.1568994 69.6164039,11.7907891 69.0015659,11.0585685 C68.4649802,10.4381466 68.1966873,9.59134992 68.1966873,8.51817844 C68.1966873,7.30527144 68.5600005,6.3299131 69.2866269,5.59210342 C70.0132533,4.85430232 70.7929793,4.48540177 71.625805,4.48540177 C73.5597502,4.48540177 74.5267228,5.48031758 74.5267228,7.47014922 C74.5267228,7.66578409 74.4205234,7.76360152 74.2081248,7.76360152 L69.6387619,7.73011857 C69.6387619,8.69149992 69.8204185,9.47681247 70.1837317,10.0860562 C70.6867804,10.9077106 71.312797,11.3185379 72.0617814,11.3185379 C72.5424729,11.3185379 72.9337332,11.2514646 73.2355623,11.1173182 C73.5429812,10.9775827 73.8615792,10.7372352 74.1913563,10.3962757 L74.1913563,10.3962242 Z M81.2675863,9.8596342 L81.2675863,6.59820168 C81.2675863,6.33549789 81.2480207,6.15104547 81.2088971,6.04484442 C81.1753627,5.93306288 81.0971104,5.80730006 80.9741404,5.66755596 C80.6220062,5.2539385 80.1580832,5.04992431 79.5823714,5.05551339 C78.8948711,5.05551339 78.3610803,5.34057778 77.9809991,5.91070657 C77.651222,6.3802148 77.4863335,7.1403765 77.4863335,8.19119167 C77.4863335,9.19729423 77.6735796,9.97702199 78.0480718,10.530375 C78.4281531,11.0781389 78.8697185,11.3520208 79.3727681,11.3520208 C79.8199226,11.3520208 80.3593029,11.0781389 80.9909089,10.530375 C81.1753605,10.3682746 81.2675863,10.1446943 81.2675863,9.8596342 L81.2675863,9.8596342 Z M81.0747464,11.1256503 C80.2363316,11.8131497 79.5208842,12.1568994 78.9284043,12.1568994 C78.0229154,12.1568994 77.3102622,11.8215333 76.7904445,11.1508012 C76.2706277,10.4744799 76.0107193,9.59134992 76.0107193,8.50141121 C76.0107193,7.27731747 76.4047742,6.27121921 77.1928838,5.48311642 C77.9139211,4.79560842 78.7718994,4.45185443 79.7668186,4.45185443 C79.9400912,4.45185443 80.1301323,4.47700957 80.3369419,4.52731985 C80.5437506,4.57763012 80.7198177,4.62793611 80.8651431,4.6782378 C81.0160576,4.72296759 81.0971044,4.74533249 81.1082834,4.74533249 C81.2088928,4.74533249 81.2619925,4.69223196 81.2675824,4.58603091 L81.2675824,2.38938196 C81.2675824,2.02047712 81.2564043,1.74659517 81.234048,1.56773612 C81.2172807,1.38328799 81.144618,1.24914156 81.0160598,1.16529681 C80.8930924,1.075863 80.7980721,1.02835155 80.7309988,1.02276247 C80.6639213,1.01675271 80.4738807,1.00280148 80.1608769,0.980908783 C80.0826212,0.902696045 80.046288,0.774138687 80.051877,0.595236708 C80.051877,0.544926429 80.0546673,0.503029815 80.0602478,0.469546865 C81.077525,0.391334127 81.8796087,0.234827091 82.4664987,2.57561161e-05 C82.6174141,2.57561161e-05 82.6928718,0.0587153581 82.6928718,0.176094562 C82.6481592,0.634433224 82.6230083,1.23529764 82.6174192,1.97868782 L82.6174192,9.75918535 C82.6174192,10.2063373 82.6956715,10.5165482 82.8521759,10.6898182 C83.0086795,10.8575077 83.3496347,10.9637087 83.8750414,11.0084213 C83.9253431,11.0587316 83.950494,11.136983 83.950494,11.2431755 C83.950494,11.3437874 83.9253431,11.4220388 83.8750414,11.4779296 C82.9136592,11.5897197 82.2205694,11.8160945 81.7957721,12.157054 C81.7063409,12.1793759 81.6476517,12.1905369 81.6197046,12.1905369 C81.580581,12.1905369 81.5302763,12.1793759 81.4687905,12.157054 C81.3402331,11.7546147 81.2787494,11.4192486 81.2843394,11.1509557 C81.2787589,11.0950649 81.253608,11.0671195 81.2088868,11.0671195 C81.1641742,11.0671195 81.1194586,11.0866942 81.07474,11.1258435 L81.0747464,11.1256503 Z M85.568649,1.70186109 C85.568649,1.49504807 85.6664643,1.30780111 85.8620948,1.14012021 C86.0577245,0.966850236 86.2589442,0.880215249 86.4657538,0.880215249 C86.6837415,0.880215249 86.8737822,0.975233852 87.0358757,1.16527106 C87.2035592,1.35531685 87.2874009,1.5565365 87.2874009,1.76893002 C87.2874009,1.96456488 87.1951751,2.15181184 87.0107236,2.3306709 C86.8318611,2.50952995 86.6278465,2.59895947 86.3986797,2.59895947 C86.191871,2.59895947 86.0018303,2.50394087 85.8285578,2.31390367 C85.6552852,2.12385787 85.568649,1.91984368 85.568649,1.70186109 L85.568649,1.70186109 Z M87.1364855,9.89316867 C87.1364855,10.5806767 87.2035587,11.0054766 87.3377052,11.1675684 C87.4774407,11.3240711 87.8211908,11.4218843 88.3689556,11.4610078 C88.4192573,11.5113181 88.4444081,11.606341 88.4444081,11.7460765 C88.4444081,11.8802229 88.4192573,11.972447 88.3689556,12.0227487 C87.3852153,12.0004267 86.7508147,11.9892657 86.4657538,11.9892657 C86.1471558,11.9892657 85.5043707,12.0004267 84.5373986,12.0227487 C84.4870969,11.9724384 84.461946,11.8802143 84.461946,11.7460765 C84.461946,11.606341 84.4870969,11.5113181 84.5373986,11.4610078 C85.0851633,11.416278 85.4289135,11.3156703 85.568649,11.1591848 C85.7083853,11.002682 85.7782535,10.5806767 85.7782535,9.89316867 L85.7782535,6.54789999 C85.7782535,6.06720502 85.7111803,5.76537339 85.5770339,5.64240511 C85.4484765,5.51384775 85.1438521,5.42721277 84.6631605,5.38250015 C84.596083,5.18687387 84.5849049,5.02478205 84.6296261,4.89622469 C85.6916194,4.75648918 86.4741404,4.59159852 86.9771891,4.40155273 C87.1281036,4.40155273 87.2035609,4.4406591 87.2035609,4.51887184 C87.1588483,5.25108386 87.136492,5.90224998 87.136492,6.47237018 L87.1364855,9.89316867 Z M94.6151497,9.89316867 L94.6151497,2.38935621 C94.6151497,2.02045136 94.6039716,1.74656942 94.5816153,1.56771036 C94.564848,1.38326223 94.4921853,1.2491158 94.3636271,1.16527106 C94.2406597,1.07583724 94.1456393,1.02832579 94.0785661,1.02273671 C94.0114886,1.01672695 93.821448,1.00277572 93.5084442,0.980883027 C93.4301885,0.902670289 93.3938552,0.774112931 93.3994443,0.595210952 C93.3994443,0.544900673 93.4022346,0.503004059 93.4078151,0.469521108 C94.4250923,0.391308371 95.227176,0.234801335 95.814066,-3.55271368e-15 C95.9649814,-3.55271368e-15 96.0404391,0.058689602 96.0404391,0.176068806 C95.9957265,0.634407468 95.9705756,1.23527189 95.9649865,1.97866207 L95.9649865,9.89329745 C95.9649865,10.5808054 96.0376493,11.0083999 96.1829747,11.1760808 C96.3282993,11.3381726 96.6692557,11.4331912 97.2058441,11.4611366 C97.2561543,11.5114469 97.2813095,11.6064698 97.2813095,11.7462053 C97.2813095,11.8803517 97.2561543,11.9725758 97.2058441,12.0228775 C96.2221012,12.0005555 95.5849044,11.9893945 95.2942535,11.9893945 C94.9756564,11.9893945 94.3356662,12.0005555 93.3742832,12.0228775 C93.3239815,11.9725672 93.2988306,11.8803431 93.2988306,11.7462053 C93.2988306,11.6064698 93.3239815,11.5114469 93.3742832,11.4611366 C93.9108689,11.4388146 94.2518245,11.343796 94.39715,11.1760808 C94.5424754,11.0083999 94.6151381,10.5808054 94.6151381,9.89329745 L94.6151497,9.89316867 Z M99.050367,1.70186109 C99.050367,1.49504807 99.1481801,1.30780111 99.3438064,1.14012021 C99.5394413,0.966850236 99.7406609,0.880215249 99.9474654,0.880215249 C100.165457,0.880215249 100.355498,0.975233852 100.51759,1.16527106 C100.685271,1.35531685 100.769111,1.5565365 100.769111,1.76893002 C100.769111,1.96456488 100.676887,2.15181184 100.492439,2.3306709 C100.31358,2.50952995 100.109566,2.59895947 99.8803964,2.59895947 C99.6735834,2.59895947 99.4835419,2.50394087 99.3102719,2.31390367 C99.137002,2.12385787 99.050367,1.91984368 99.050367,1.70186109 L99.050367,1.70186109 Z M100.618206,9.89316867 C100.618206,10.5806767 100.685279,11.0054766 100.819426,11.1675684 C100.959161,11.3240711 101.302911,11.4218843 101.850675,11.4610078 C101.900985,11.5113181 101.92614,11.606341 101.92614,11.7460765 C101.92614,11.8802229 101.900985,11.972447 101.850675,12.0227487 C100.866929,12.0004267 100.232525,11.9892657 99.9474654,11.9892657 C99.6288708,11.9892657 98.9860883,12.0004267 98.0191179,12.0227487 C97.9688076,11.9724384 97.9436525,11.8802143 97.9436525,11.7460765 C97.9436525,11.606341 97.9688076,11.5113181 98.0191179,11.4610078 C98.5668818,11.416278 98.9106315,11.3156703 99.050367,11.1591848 C99.1901025,11.002682 99.2599703,10.5806767 99.2599703,9.89316867 L99.2599703,6.54789999 C99.2599703,6.06720502 99.192897,5.76537339 99.0587506,5.64240511 C98.9301932,5.51384775 98.6255671,5.42721277 98.1448721,5.38250015 C98.0778204,5.18687387 98.0666594,5.02478205 98.1113892,4.89622469 C99.1733825,4.75648918 99.9559048,4.59159852 100.458956,4.40155273 C100.60987,4.40155273 100.685327,4.4406591 100.685327,4.51887184 C100.640597,5.25108386 100.618232,5.90224998 100.618232,6.47237018 L100.618206,9.89316867 Z M105.154025,5.75978861 C104.958399,5.93305858 104.863381,6.17340607 104.86897,6.48083106 L104.86897,10.7735127 C105.304943,11.3100984 105.715766,11.5783913 106.101438,11.5783913 C106.88955,11.5783913 107.490414,11.262587 107.904032,10.6309784 C108.317649,9.99378064 108.524458,9.16375118 108.524458,8.14088998 C108.524458,7.31924414 108.337211,6.62615136 107.962717,6.06161165 C107.593812,5.49149145 107.143861,5.20643134 106.612865,5.20643134 C106.053923,5.20643134 105.567643,5.39088377 105.154025,5.75978861 L105.154025,5.75978861 Z M105.036578,5.22319858 C105.606706,4.70896914 106.246699,4.45185443 106.956554,4.45185443 C107.744666,4.45185443 108.448932,4.76765875 109.069354,5.39926738 C109.689785,6.02528694 110,6.83575463 110,7.83067045 C110,9.11065495 109.60315,10.1530865 108.809449,10.9579651 C108.021338,11.7572547 107.152181,12.1568994 106.201977,12.1568994 C105.531245,12.1568994 105.028198,12.0171639 104.692836,11.7376929 C104.603403,11.6650606 104.527946,11.6259543 104.466466,11.6203738 C104.393834,11.6203738 104.312784,11.6734743 104.223315,11.7796754 C104.139436,11.8746982 104.00529,12.0144338 103.820876,12.1988819 C103.647606,12.1988819 103.521843,12.1290141 103.443588,11.9892786 C103.488317,11.7712874 103.510682,11.3660536 103.510682,10.7735771 L103.510682,2.3894206 C103.510682,2.02051575 103.502312,1.74663381 103.48557,1.56777475 C103.468829,1.38332662 103.396166,1.24918019 103.267583,1.16533545 C103.144615,1.07590163 103.046797,1.02839018 102.974131,1.0228011 C102.907079,1.01679134 102.719832,1.00284012 102.41239,0.980947417 C102.334177,0.902734679 102.295071,0.774177321 102.295071,0.595275343 C102.295071,0.544965064 102.298076,0.503068449 102.304086,0.469585499 C103.321358,0.391372761 104.123442,0.234865725 104.710338,6.43902884e-05 C104.861251,6.43902884e-05 104.936708,0.0587539923 104.936708,0.176133196 C104.891978,0.634471858 104.869614,1.23533628 104.869614,1.97872646 L104.869614,5.13955559 C104.869614,5.29605833 104.925504,5.32400372 105.037286,5.22339175 L105.036578,5.22319858 Z" id="gcr-tagline" fill="#000000" fill-rule="nonzero"></path>
    </g>
</svg>