<svg xmlns="http://www.w3.org/2000/svg" width="81.456" height="8.964" viewBox="0 0 21.552 2.372"><g fill-opacity=".67" fill-rule="nonzero" stroke-linejoin="round" stroke-miterlimit="2" clip-rule="evenodd"><path d="M0 1.662C0 1.286.202.98.662.978c.479 0 .674.308.672.684 0 .388-.208.693-.66.692-.484 0-.675-.304-.674-.692m.913.361c.057-.064.106-.209.106-.36 0-.21-.107-.385-.357-.385-.073 0-.19 0-.247.034-.054.054-.1.206-.1.35 0 .217.1.4.358.4a.7.7 0 0 0 .24-.039M2.783 2.369c.78 0 1.134-.524 1.132-1.182 0-.64-.334-1.173-1.144-1.174-.785 0-1.134.533-1.132 1.174 0 .66.33 1.183 1.144 1.182m0-.315c-.553 0-.78-.396-.78-.867 0-.33.107-.645.232-.772.11-.068.369-.08.536-.08.539 0 .78.388.78.852 0 .338-.11.645-.236.783-.11.057-.365.083-.532.083M2.794.837c.046-.03.323.354.346.4.008.026-.296.326-.33.353-.05.038-.312-.33-.343-.373-.03-.06.285-.35.327-.38M4.22 1.662c0-.376.2-.683.66-.684.48 0 .675.308.673.684 0 .388-.209.693-.661.692-.483 0-.674-.304-.673-.692m.911.361c.058-.064.107-.209.107-.36 0-.21-.107-.385-.357-.385-.073 0-.19 0-.247.034-.054.054-.1.206-.1.35 0 .217.1.4.358.4a.7.7 0 0 0 .24-.039M6.029 2.343h1.528c.038-.072.038-.24 0-.3H6.34V.37h1.217c.038-.083.038-.247 0-.308h-.97c-.372 0-.514.073-.615.145.05.926.057 1.813.057 2.136M7.929.552c0-.308.16-.552.532-.555.388 0 .548.248.547.555 0 .312-.175.553-.536.555-.388 0-.543-.243-.543-.555m.73.274a.47.47 0 0 0 .075-.277c0-.149-.076-.29-.273-.29-.05 0-.14 0-.186.024-.046.049-.073.155-.073.266 0 .155.073.296.27.296.053 0 .145 0 .186-.019m-.73.97c0-.305.16-.553.532-.552.388 0 .548.247.547.551 0 .316-.175.558-.536.559-.388 0-.543-.243-.543-.559m.73.277a.47.47 0 0 0 .075-.278c0-.148-.076-.289-.273-.289-.05 0-.145 0-.186.023-.046.05-.073.156-.073.266 0 .16.073.296.27.297.053 0 .149 0 .186-.02M12.075 2.016h-1.041c.144-.217.266-.392.426-.643.08-.118.083-.224 0-.342-.16-.235-.293-.444-.441-.665h1.056c.038-.083.038-.262 0-.32h-.969c-.372 0-.514.073-.616.145.168.262.441.64.696 1.019-.247.372-.529.78-.696 1.041.103.076.244.087.616.088h.97c.037-.058.037-.24 0-.323M13.96.058a.6.6 0 0 0-.38.145l.012.25c-.247.43-.471.796-.692 1.171Q12.9.83 12.904.058a.6.6 0 0 0-.38.145c.046.926.06 1.813.06 2.136.115.011.229 0 .32-.034v-.183c.244-.388.483-.79.707-1.178.023.625.03 1.159.03 1.395.114.011.228 0 .32-.034q-.006-1.147 0-2.247M14.512.545c0-.254.136-.46.44-.46.323 0 .46.205.46.46 0 .266-.144.467-.444.468-.323 0-.457-.202-.456-.468m.604.24c.03-.05.06-.137.06-.225 0-.121-.06-.235-.224-.235-.045 0-.11 0-.148.019a.37.37 0 0 0-.057.216c0 .122.057.232.217.232.05 0 .114 0 .152-.007m-.608.54c.425-.005.557-.005.95 0 0-.104-.057-.164-.103-.217-.403.034-.64.03-.87.038-.011.083 0 .11.023.178m.004.577c0-.258.136-.456.44-.456.323 0 .46.205.46.456 0 .266-.144.463-.444.464-.323 0-.457-.198-.456-.464m.604.217c.03-.05.06-.137.06-.225 0-.121-.06-.235-.224-.235-.045 0-.11 0-.148.019a.37.37 0 0 0-.057.216c0 .122.057.232.217.232.05 0 .114 0 .152-.007M17.438.058a.6.6 0 0 0-.38.145l.012.25c-.248.43-.472.796-.692 1.171q-.001-.794.004-1.566a.6.6 0 0 0-.38.145 52 52 0 0 1 .06 2.136c.114.011.228 0 .32-.034v-.183c.243-.388.483-.79.707-1.178.022.625.03 1.159.03 1.395.114.011.228 0 .32-.034q-.006-1.147 0-2.247M19.483.058a.6.6 0 0 0-.38.145l.011.25c-.247.43-.471.796-.692 1.171q-.001-.794.004-1.566a.6.6 0 0 0-.38.145 52 52 0 0 1 .061 2.136c.114.011.228 0 .32-.034v-.183c.243-.388.482-.79.706-1.178.023.625.03 1.159.03 1.395.115.011.228 0 .32-.034q-.006-1.147 0-2.247M21.524 2.016h-1.041c.144-.217.266-.392.425-.643.08-.118.084-.224 0-.342-.16-.235-.293-.444-.44-.665h1.056c.038-.083.038-.262 0-.32h-.97c-.372 0-.513.073-.615.145.167.262.44.64.696 1.019-.248.372-.529.78-.696 1.041.103.076.243.087.616.088h.969c.038-.058.038-.24 0-.323"/></g></svg>