<svg xmlns="http://www.w3.org/2000/svg" width="120" height="11"><path fill="#000" fill-rule="nonzero" d="M23.63.15c-.084.13-.23.166-.967.252-1.03.122-1.328.201-1.704.424-.32.187-.925.804-1.189 1.213-.257.388-.813 1.623-1.022 2.277-.431 1.321-.515 2.65-.209 3.26.925 1.824 3.846.912 4.653-1.465.243-.703.236-1.63-.014-2.154-.348-.711-1.071-1.041-1.954-.89-.633.114-1.14.394-1.697.933l-.473.467.167-.445c.487-1.279 1.015-2.054 1.627-2.37.188-.094.543-.187.939-.23.946-.108 1.307-.187 1.55-.345.251-.15.543-.574.613-.883.041-.165.027-.194-.09-.194-.077 0-.182.065-.23.15Zm-1.447 3.412c.223.208.285.603.202 1.3-.195 1.623-1.008 3.102-1.815 3.31-.626.166-1.19-.222-1.28-.883-.153-1.048.591-2.966 1.405-3.605.466-.366 1.168-.424 1.488-.122ZM10.041 3.16c.94 0 1.704.029 1.704.057 0 .036-.264.984-.577 2.104-.71 2.47-.681 2.377-.605 2.507.097.158.362-.008.633-.388.243-.36.285-.38.403-.237.056.079 0 .187-.236.474-.675.819-1.203 1.063-1.628.754-.153-.115-.16-.158-.125-.596.021-.28.258-1.228.564-2.298.292-1.006.528-1.853.528-1.889 0-.029-.243-.057-.542-.057-.438 0-.57.028-.654.122-.056.072-.32.804-.577 1.637-.786 2.55-1.175 3.196-1.913 3.196-.243 0-.556-.273-.556-.481 0-.403.438-.582.807-.338.257.18.466.05.674-.416.188-.41.78-2.234.988-3.024.118-.46.118-.488 0-.625a.772.772 0 0 0-.355-.186c-.167-.029-.236-.086-.236-.18 0-.107.053-.13 1.012-.135l.316-.001h.375ZM3.991.294C4.555.158 5.445.201 6.022.395c.675.223.73.223.98 0 .244-.208.432-.23.425-.057 0 .071-.118.646-.265 1.278-.187.84-.285 1.156-.368 1.17-.118.022-.195-.251-.195-.696 0-.438-.313-.984-.681-1.214-.3-.18-.39-.194-1.023-.194h-.164c-.506.005-.607.035-1.018.244-.695.352-1.363 1.07-1.787 1.918-.473.94-.64 1.608-.647 2.578 0 .718.021.833.195 1.228.348.775.918 1.2 1.78 1.343.911.143 1.85-.244 2.539-1.049.194-.222.403-.409.472-.409.174 0 .16.079-.097.438-.522.747-1.321 1.336-2.038 1.501-.458.108-1.446.1-1.877-.007C1.126 8.187.306 7.297.069 6.118c-.208-1.02.063-2.34.696-3.44C1.41 1.58 2.725.604 3.99.295Zm109.576.568a.607.607 0 0 0 .146.99c.396.202.814-.085.814-.545 0-.517-.598-.797-.96-.445Zm-22.754.761c-.042.1-.07.194-.07.215 0 .015.828.03 1.843.03h1.843l.07-.188c.042-.1.07-.193.07-.215 0-.014-.828-.029-1.843-.029h-1.843l-.07.187ZM15.23 3.131c-.542.15-1.022.438-1.516.92-.347.33-.514.567-.772 1.105l-.327.682V6.6c0 .825.056 1.02.425 1.4.382.388.702.51 1.356.51.563 0 .626-.014 1.203-.316.744-.38 1.307-.934 1.627-1.602.779-1.63.459-3.095-.765-3.468-.438-.13-.737-.13-1.23.007Zm1.113.503c.299.294.368.646.271 1.379-.209 1.644-1.23 3.174-2.114 3.174-.369 0-.716-.223-.848-.539-.425-1.063.535-3.576 1.585-4.122.403-.215.828-.172 1.106.108Zm10.292-.503c-.543.15-1.022.438-1.516.92-.348.33-.515.567-.772 1.105l-.327.682V6.6c0 .825.056 1.02.424 1.4.383.388.703.51 1.356.51.564 0 .626-.014 1.203-.316 1.016-.517 1.663-1.336 1.955-2.485.313-1.242-.126-2.284-1.085-2.578-.445-.136-.744-.136-1.238 0Zm1.113.503c.299.294.368.646.27 1.379-.208 1.644-1.23 3.174-2.113 3.174-.369 0-.717-.223-.849-.539-.424-1.063.536-3.576 1.586-4.122.403-.215.827-.172 1.106.108Zm4.707-.524c-1.48.567-2.795 2.549-2.677 4.05.063.804.529 1.386 1.12 1.386.577 0 1.384-.582 1.975-1.43.125-.172.222-.287.222-.25 0 .23-.521 1.931-.716 2.355-.417.89-1.057 1.379-1.933 1.458-.376.036-.41.028-.41-.1a.37.37 0 0 1 .104-.238c.222-.194.02-.574-.306-.574-.16 0-.494.294-.494.43 0 .187.216.575.376.683.146.1.292.122.758.086.709-.043.945-.122 1.516-.474.681-.417 1.23-1.17 1.592-2.176.18-.51 1.46-5.056 1.46-5.2 0-.071-.041-.093-.118-.071-.07.021-.264.072-.431.108-.313.071-.424.165-.424.373s-.09.208-.216 0a1.067 1.067 0 0 0-.285-.323c-.236-.158-.807-.208-1.113-.093Zm1.03.51c.208.215.236.287.236.624 0 .761-.535 1.99-1.182 2.743-.702.812-1.224.991-1.558.532-.153-.201-.18-.323-.18-.69 0-1.084.938-2.88 1.731-3.31.396-.216.675-.187.953.1Zm3.296-.489c-.25.058-.619.137-.814.18-.278.057-.368.107-.368.2 0 .101.041.123.208.094.292-.043.543.036.584.187.035.1-.66 2.729-1.182 4.48-.034.116.014.13.418.13h.452l.18-.632c.105-.345.272-.919.376-1.27l.188-.647.96-.022c.89-.014.952-.007.917.108-.59 2.04-.598 2.607-.014 2.607.39 0 1.113-.568 1.51-1.192.118-.187.118-.209.013-.273-.083-.05-.174.014-.396.265-.334.381-.584.54-.633.395-.02-.05.243-1.091.591-2.312.34-1.22.626-2.233.626-2.248 0-.014-.209-.021-.466-.007l-.466.022-.32 1.149-.32 1.149-.952.021c-.522.007-.953 0-.953-.021 0-.022.14-.553.313-1.17.174-.618.313-1.164.313-1.214 0-.115-.18-.108-.765.021Zm6.843.014c-1.322.489-2.601 2.435-2.601 3.972 0 .581.104.876.41 1.177.195.187.278.216.62.216.555 0 .98-.237 1.612-.898l.522-.546-.097.532c-.09.495-.09.531.041.718.306.43.932.223 1.62-.539.39-.423.418-.48.32-.581-.097-.1-.145-.072-.48.308-.264.302-.403.41-.486.374-.063-.022-.118-.093-.118-.15 0-.058.285-1.128.626-2.385.347-1.25.619-2.284.605-2.298-.007-.014-.23.014-.48.057-.452.072-.46.08-.543.367l-.083.287-.111-.23a.922.922 0 0 0-.258-.337c-.25-.173-.73-.187-1.12-.044Zm.883.338c.111.065.236.194.271.294.118.324.077 1.113-.09 1.616-.397 1.207-1.468 2.435-2.128 2.435-.216 0-.536-.374-.584-.661-.153-1.063.876-3.181 1.773-3.641.355-.18.48-.187.758-.043Zm8.136-.352c-.855.237-1.627.84-2.156 1.68-1.12 1.781-.681 3.57.904 3.713.487.05 1.19-.15 1.697-.488.564-.366 1.078-.847 1.03-.962-.021-.058-.056-.108-.09-.108-.029 0-.3.172-.613.388-.897.624-1.55.69-2.107.208-.278-.244-.41-.567-.41-1.013v-.352l.716-.122c1.168-.215 1.933-.574 2.51-1.185.48-.51.543-1.228.14-1.601-.306-.273-.981-.337-1.62-.158Zm.876.402c.439.424-.07 1.357-1.022 1.853-.424.223-1.085.43-1.37.43h-.16l.167-.459c.306-.869.807-1.5 1.46-1.838.376-.187.717-.187.925.014Zm3.012-.402c-.25.058-.62.137-.814.18-.278.057-.369.107-.369.2 0 .101.042.123.209.094.292-.043.542.036.584.187.035.1-.66 2.729-1.182 4.48-.035.116.014.13.417.13h.452l.181-.632c.104-.345.271-.919.375-1.27l.188-.647.96-.022c.89-.014.953-.007.918.108-.473 1.623-.563 2.276-.334 2.485.3.28.82.072 1.412-.568.493-.538.59-.718.43-.782-.083-.03-.187.043-.354.251-.285.345-.626.56-.674.416-.021-.05.243-1.091.59-2.312.342-1.22.627-2.233.627-2.248 0-.014-.209-.021-.466-.007l-.466.022-.32 1.149-.32 1.149-.953.021c-.521.007-.952 0-.952-.021 0-.022.139-.553.313-1.17.173-.618.312-1.164.312-1.214 0-.115-.18-.108-.764.021Zm5.368.036c-.299.158-1.057.948-1.057 1.113 0 .23.18.165.494-.18.327-.351.542-.46.556-.28.021.194-.028.403-.39 1.738-.493 1.832-.556 2.183-.451 2.514.16.51.737.603 1.363.222.375-.23 1.036-.969 1.502-1.687.194-.316.375-.56.39-.546.006.014-.063.33-.168.697-.382 1.4-.299 1.838.313 1.766l.313-.036-.34.31c-.348.308-.348.308-.348.753 0 .438-.007.46-.3.718-.201.187-.277.31-.25.388.056.144.209.108.62-.136.556-.33.757-.704.688-1.25-.042-.33-.028-.352.521-1.192.452-.682.55-.869.48-.948-.07-.086-.139-.036-.424.294-.202.245-.396.403-.48.403-.132 0-.139-.03-.097-.31.028-.164.299-1.177.598-2.254.306-1.077.556-1.99.556-2.025 0-.05-.174-.08-.438-.08h-.438l-.195.661c-.264.948-.786 1.99-1.398 2.808-.612.812-1.008 1.142-1.32 1.113-.168-.014-.216-.057-.23-.2-.014-.101.18-.92.43-1.817.251-.898.474-1.789.501-1.983.042-.316.028-.373-.132-.538-.222-.23-.473-.237-.869-.036Zm5.842.036c-.355.18-1.058.898-1.058 1.077 0 .223.181.158.48-.18.181-.2.383-.366.445-.366.216 0 .195.122-.264 1.824-.494 1.839-.556 2.183-.452 2.521.118.373.445.524.876.41.633-.173 1.21-.726 1.947-1.846.223-.338.41-.596.425-.582.014.014-.056.309-.16.66a7.446 7.446 0 0 0-.216 1.114c-.035.46-.028.488.146.603.376.251 1.05-.093 1.558-.797.236-.33.278-.43.209-.51-.07-.086-.14-.036-.425.294-.201.245-.396.403-.48.403-.132 0-.139-.03-.097-.31.028-.164.3-1.177.598-2.254.306-1.077.557-1.99.557-2.025 0-.05-.174-.08-.439-.08h-.43l-.237.77a8.34 8.34 0 0 1-1.37 2.7c-.605.81-.995 1.141-1.314 1.112-.167-.014-.216-.057-.23-.2-.014-.101.18-.92.431-1.817.25-.898.473-1.789.5-1.983.043-.316.029-.373-.131-.538-.23-.237-.417-.237-.87 0Zm13.164-.043c.938 0 1.703.029 1.703.057 0 .036-.264.984-.577 2.104-.71 2.47-.681 2.377-.605 2.507.098.158.362-.008.633-.388.243-.36.285-.38.403-.237.056.079 0 .187-.236.474-.668.811-1.203 1.055-1.62.754-.265-.194-.202-.618.403-2.765.306-1.077.556-1.99.556-2.018 0-.029-.243-.057-.542-.057-.438 0-.57.028-.654.122-.055.072-.32.804-.577 1.637-.786 2.55-1.175 3.196-1.912 3.196-.244 0-.557-.273-.557-.481 0-.403.438-.582.807-.338.257.18.466.05.674-.416.188-.41.78-2.234.988-3.024.118-.46.118-.488 0-.625a.772.772 0 0 0-.355-.186c-.167-.029-.236-.086-.236-.18 0-.107.053-.13 1.012-.135l.316-.001h.376Zm-7.323.05c.98-.208 1.168-.223 1.168-.115 0 .072-.59 2.19-.674 2.406-.056.15.368.122.709-.036.396-.187.55-.388 1.036-1.35.369-.733.46-.869.689-.984.521-.258 1.091.043 1.091.596 0 .223-.041.316-.18.431-.258.208-.418.187-.703-.1-.313-.317-.361-.28-.723.51-.174.373-.375.682-.563.861l-.3.287.21.216c.11.122.375.538.583.933.536 1.006.599 1.092.932 1.192.362.101.341.087.285.23-.034.094-.16.115-.73.115h-.688l-.355-.74c-.535-1.091-.91-1.673-1.14-1.73-.112-.029-.216-.022-.244.007-.028.029-.194.596-.382 1.257l-.334 1.206h-.445c-.236 0-.438-.021-.438-.057 0-.029.264-.991.59-2.133.328-1.15.592-2.169.592-2.27 0-.265-.153-.366-.5-.344-.23.021-.307 0-.32-.086-.014-.094.145-.151.834-.302Zm12.51-.079c-.542.15-1.022.438-1.516.92-.347.33-.514.567-.772 1.105l-.326.682V6.6c0 .825.055 1.02.424 1.4.382.388.702.51 1.356.51.563 0 .626-.014 1.203-.316 1.015-.517 1.662-1.336 1.954-2.485.313-1.242-.125-2.284-1.085-2.578-.445-.136-.744-.136-1.238 0Zm1.113.503c.299.294.369.646.271 1.379-.208 1.644-1.23 3.174-2.114 3.174-.368 0-.716-.223-.848-.539-.424-1.063.535-3.576 1.585-4.122.404-.215.828-.172 1.106.108Zm3.074-.474c-.3.136-.814.617-1.036.962-.105.172-.105.208-.021.266.139.093.146.086.396-.259.243-.33.466-.46.584-.337.049.05-.028.438-.222 1.177-.557 2.076-.626 2.385-.626 2.78.007.423.076.574.327.71.59.33 1.571-.38 2.517-1.816.48-.733.508-.761.417-.46-.445 1.544-.5 1.982-.264 2.226.327.338 1.015.008 1.586-.747.278-.366.299-.423.208-.524-.097-.093-.139-.064-.382.252-.278.366-.452.488-.584.402-.105-.065-.077-.201.563-2.456.299-1.077.55-2.004.55-2.068 0-.094-.07-.108-.432-.094l-.424.022-.257.79c-.425 1.292-.564 1.572-1.329 2.62-.632.87-1.064 1.207-1.432 1.135-.07-.014-.132-.086-.146-.165-.014-.086.188-.89.438-1.795.257-.912.48-1.831.5-2.054.035-.373.028-.41-.152-.553-.237-.194-.397-.194-.78-.014Zm7.635-.029c-.855.237-1.627.84-2.155 1.68-1.12 1.781-.682 3.57.904 3.713.486.05 1.189-.15 1.696-.488.564-.366 1.078-.847 1.03-.962-.021-.058-.056-.108-.09-.108-.029 0-.3.172-.613.388-.897.624-1.55.69-2.107.208-.278-.244-.41-.567-.41-1.013v-.344l.786-.151c1.064-.201 1.738-.503 2.274-1.013.361-.344.445-.474.528-.797.146-.603-.062-.99-.633-1.149-.368-.1-.75-.093-1.21.036Zm.877.402c.438.424-.07 1.357-1.023 1.853-.424.223-1.085.43-1.37.43h-.16l.167-.459c.306-.869.807-1.5 1.46-1.838.376-.187.717-.187.926.014Zm4.179-.423c-1.481.567-2.796 2.549-2.677 4.05.062.804.528 1.386 1.12 1.386.576 0 1.383-.582 1.974-1.43.125-.172.223-.287.223-.25 0 .23-.522 1.931-.717 2.355-.417.89-1.057 1.379-1.933 1.458-.375.036-.41.028-.41-.1a.37.37 0 0 1 .104-.238c.223-.194.021-.574-.306-.574-.16 0-.494.294-.494.43 0 .187.216.575.376.683.146.1.292.122.758.086.71-.043.946-.122 1.516-.474.682-.417 1.23-1.17 1.592-2.176.181-.51 1.46-5.056 1.46-5.2 0-.071-.04-.093-.117-.071-.07.021-.265.072-.432.108-.312.071-.424.165-.424.373s-.09.208-.215 0a1.067 1.067 0 0 0-.285-.323c-.237-.158-.807-.208-1.113-.093Zm1.03.51c.208.215.236.287.236.624 0 .761-.536 1.99-1.183 2.743-.702.812-1.224.991-1.557.532-.153-.201-.181-.323-.181-.69 0-1.084.939-2.88 1.731-3.31.397-.216.675-.187.953.1Zm9.867-.568c.132-.043.174-.036.174.043 0 .094-1.259 4.61-1.51 5.415-.368 1.192-.875 1.896-1.64 2.27-.612.294-1.155.294-1.447 0-.243-.26-.257-.46-.028-.69.195-.208.355-.223.578-.065.18.13.194.295.041.474-.111.115-.104.13 0 .172.174.072.71-.172.904-.409.09-.115.237-.395.32-.617.216-.604 1.6-5.509 1.6-5.68 0-.252-.202-.396-.501-.353-.223.029-.264.015-.264-.093 0-.077.067-.121.37-.19l.21-.044.275-.053c.466-.087.883-.166.918-.18Zm-7.045.15c.453-.236.64-.236.87 0 .16.166.174.223.132.54-.028.193-.25 1.084-.5 1.982-.251.897-.446 1.716-.432 1.816.014.144.063.187.23.201.32.03.709-.301 1.314-1.113a8.34 8.34 0 0 0 1.37-2.7l.236-.768h.431c.265 0 .438.029.438.079 0 .036-.25.948-.556 2.025-.299 1.077-.57 2.09-.598 2.255-.042.28-.035.309.097.309.084 0 .279-.158.48-.403.285-.33.355-.38.425-.294.069.08.027.18-.21.51-.507.704-1.181 1.048-1.557.797-.174-.115-.18-.144-.146-.603.021-.259.118-.761.216-1.113.104-.352.174-.647.16-.661-.014-.014-.202.244-.425.582-.737 1.12-1.314 1.673-1.947 1.845-.43.115-.758-.036-.876-.409-.104-.338-.042-.682.452-2.52.46-1.703.48-1.825.264-1.825-.062 0-.264.165-.445.367-.299.337-.48.402-.48.18 0-.18.703-.899 1.057-1.078Zm10.585-.057c-1.322.489-2.601 2.435-2.601 3.972 0 .581.104.876.41 1.177.195.187.278.216.619.216.556 0 .98-.237 1.613-.898l.522-.546-.097.532c-.09.495-.09.531.041.718.306.43.911.244 1.586-.503.424-.46.452-.517.354-.617-.097-.1-.139-.072-.48.308-.264.302-.403.41-.486.374-.063-.022-.118-.093-.118-.15 0-.058.285-1.128.625-2.385.348-1.25.62-2.284.605-2.298-.006-.014-.229.014-.48.057-.451.072-.458.08-.542.367l-.083.287-.111-.23a.922.922 0 0 0-.258-.337c-.25-.173-.73-.187-1.12-.044Zm.883.338c.111.065.236.194.271.294.118.324.076 1.113-.09 1.616-.397 1.207-1.468 2.435-2.128 2.435-.216 0-.536-.374-.585-.661-.152-1.063.877-3.181 1.774-3.641.354-.18.48-.187.758-.043Z"/></svg>