<svg xmlns="http://www.w3.org/2000/svg" width="84" height="18"><path fill="#000" fill-rule="nonzero" d="m14.642 14.91.302.282.605.512c.1.088.201.18.302.281-.269.403-.403.672-.806.94-.403-.403-.806-.806-1.21-1.074.27-.403.538-.672.807-.94Zm17.328 0 .302.282.605.512c.1.088.201.18.302.281-.269.403-.403.672-.806.94-.403-.403-.806-.806-1.209-1.074.269-.403.537-.672.806-.94Zm9.269 0 .302.282.605.512c.1.088.201.18.302.281-.269.403-.538.672-.806.94-.403-.403-.806-.806-1.21-1.074.27-.403.538-.672.807-.94Zm5.91-.134c.403.269.806.672 1.21 1.075-.27.403-.538.671-.807 1.074-.403-.403-.806-.671-1.209-1.074.269-.403.538-.806.806-1.075Zm-30.492 0c.403.403.806.672 1.209 1.075-.269.403-.403.671-.806.94-.403-.403-.806-.806-1.21-1.075.27-.403.538-.671.807-.94Zm17.328 0 .302.281.605.512c.1.089.201.181.302.282-.269.403-.403.671-.806.94-.403-.403-.806-.806-1.209-1.075.269-.403.537-.671.806-.94Zm9.269 0c.403.403.806.672 1.209 1.075-.269.403-.538.671-.806.94-.403-.403-.806-.806-1.21-1.075.27-.403.538-.671.807-.94ZM30.76 12.761c-1.343 0-2.015-.671-2.686-1.746-.353-.353-.603-.808-.84-1.096l-.1-.113c0 1.612-.941 2.82-3.896 2.82h-.269v.135h-.269c-.877 0-1.638-.35-1.954-.944l-.06-.13c-.27.537-1.075 1.074-2.015 1.074h-.135a.814.814 0 0 1-.27-.042l.002.042H18c-1.007 0-1.66-.236-2.07-.93l-.08-.144c-.402.671-1.208 1.074-2.149 1.074h-.268c-1.343 0-2.015-.671-2.687-1.746-.352-.353-.602-.808-.839-1.096l-.101-.113c-.134.94-.403 1.478-.806 1.746-.94.672-2.687 1.21-4.701 1.21C1.612 12.761 0 11.686 0 9.402c0-.672.134-1.209.403-1.88l.403.134C.672 8.06.672 8.328.672 8.73c0 1.747 1.343 2.553 3.895 2.553 1.478 0 3.627-.403 4.567-1.344 0-.268 0-.403-.134-.671-.403-.94-1.478-2.015-2.552-3.224l-.672-.672c0-.134-.134-.403-.134-.537 0-.269.134-.537.268-.94l.403-.403c1.03-.644 3.417-1.535 6.097-2.317l.351-.101c-.268.403-.537.806-.806 1.343-.671.134-1.477.403-2.418.806-1.088.483-2.176.858-2.97 1.222l-.254.121c.538.403 1.21.672 1.612.806l-.268.537c1.074 1.075 2.418 2.553 3.895 4.165.538.671 1.21 1.074 2.015 1.074h.134v.268h.27c.805 0 1.611-.268 1.745-.94l.27-1.074.67-.537V9c-.134.537-.268.94-.268 1.209 0 .403.134.672.403.806a2.27 2.27 0 0 0 1.343.403h.135l-.002.042a.814.814 0 0 1 .27-.042h.135c.403 0 .94-.134 1.209-.269.268-.134.537-.537.537-1.209 0-2.149-.134-4.03-.269-6.447v-.538l.94-.94c.135 2.418.27 5.104.27 8.194 0 .473.312 1.05 1.211 1.181a.702.702 0 0 1 .4-.106h.403c.806 0 1.88-.135 2.552-.672.269-.134.538-.403.538-.537 0-.269-.135-.403-.269-.672-.403-.94-1.478-2.015-2.552-3.224l-.153-.152-.519-.52c0-.134-.134-.403-.134-.537 0-.269.134-.537.268-.94l.403-.403c1.03-.644 3.417-1.534 6.097-2.317l.351-.101c-.268.403-.537.806-.806 1.343-.671.135-1.477.403-2.418.806-1.088.484-2.176.859-2.97 1.222l-.254.121c.538.403 1.21.672 1.612.806l-.268.538c1.074 1.074 2.418 2.552 3.895 4.164.538.672 1.21 1.075 2.015 1.075h.269v.134h.269c.805 0 1.611-.269 1.746-.94l.268-1.075.672-.537V9c-.134.537-.269.94-.269 1.209 0 .403.135.672.403.806a2.27 2.27 0 0 0 1.344.403h.134v.108a.71.71 0 0 1 .403-.108c.403 0 .94-.134 1.209-.269.269-.134.537-.537.537-1.209 0-2.149-.134-4.03-.268-6.447v-.538l.94-.94c.134 2.418.269 5.104.269 8.194 0 .537.403 1.209 1.612 1.209h.134c.806 0 1.612-.269 1.746-.94l.269-1.075.671-.537V9c-.134.537-.268.94-.268 1.209 0 .403.134.672.403.806a2.27 2.27 0 0 0 1.343.403h.134v.278a.938.938 0 0 1 .135-.01h.268v-.268c.94 0 1.612 0 2.015-.134.403-.135.538-.27.538-.403 0-.538-.538-1.478-1.075-2.553l.403-.604.403-.605c.537.806 1.075 2.15 1.075 3.224 0 .806-.27 1.344-.672 2.015-.537.538-1.21.672-2.821.672h-.134c-.293 0-.466-.12-.563-.272l.16.003c-1.008 0-1.661-.236-2.07-.93l-.08-.144c-.364.606-1.056.994-1.88 1.063v.011h-.403a.915.915 0 0 1-.159-.013c-.75-.07-1.38-.405-1.661-.93l-.06-.131c-.27.537-1.075 1.074-2.016 1.074H36a.71.71 0 0 1-.403-.108v.108h-.269c-1.007 0-1.66-.236-2.07-.93l-.079-.144c-.376.626-1.103 1.02-1.963 1.069l-.186.005h-.269Zm43.254 3.224.302.281.605.512c.1.089.201.181.302.282-.403.403-.537.671-.806.94-.403-.403-.806-.806-1.209-1.075.269-.403.537-.671.806-.94Zm-1.478-8.328c.672 0 1.747.268 3.493.94.537.134 1.074.269 1.746.403h.806l-.537 1.075c-.94 0-1.478.134-1.88.403l-1.747 1.209c-1.343.94-2.955 1.343-4.567 1.343h-.538c-.296 0-.47-.123-.566-.278-.84-.044-1.405-.298-1.773-.92l-.078-.145c-.403.671-1.21 1.074-2.15 1.074h-.134a.685.685 0 0 1-.439-.133l-.233-.001v.134c0 .403 0 .806-.134 1.343-.134.403-.403.806-.806 1.21-1.075.94-2.552 1.746-4.433 1.746-2.015 0-4.03-1.344-4.03-4.03 0-1.075.269-2.15.672-2.955l.403.134c-.269.672-.403 1.209-.403 1.746 0 2.15 1.343 3.493 3.224 3.493.94 0 2.015-.269 3.358-1.075.672-.537 1.343-.94 1.343-1.209 0-.134 0-.268-.134-.403h-.537c-2.015 0-3.224-.671-3.224-2.15 0-.67.268-1.208.537-1.745.403-.538.94-1.075 1.612-1.075.94 0 2.015 1.343 2.284 3.493h.94v.134h.403c.806 0 1.612-.269 1.746-.94l.269-1.075.671-.537V9c-.134.537-.268.94-.268 1.209 0 .403.134.672.403.806a2.27 2.27 0 0 0 1.343.403h.134v.269h.806v-.27c1.65 0 3.299-.478 5.288-1.663l.354-.217c-1.209-.403-2.283-.671-3.358-.671-.537 0-1.075.134-1.343.537l.134.537-.269.94h-.134l-.537-1.343c.134-1.209 1.074-1.88 2.283-1.88Zm-6.716 7.253.302.282.605.512c.1.088.201.18.302.281-.403.403-.537.672-.806.94-.403-.403-.806-.806-1.21-1.074.27-.403.538-.672.807-.94Zm2.015-.134.302.281.605.512c.1.089.201.181.302.282-.403.403-.538.671-.806.94-.403-.403-.806-.806-1.21-1.075.27-.403.538-.671.807-.94Zm4.701-.806c.403.403.806.672 1.21 1.075-.404.403-.538.671-.807.94-.403-.403-.806-.806-1.209-1.075.269-.403.538-.671.806-.94Zm2.015-.134.302.281.605.512c.1.088.201.18.302.281-.403.403-.537.672-.806.94-.403-.402-.806-.805-1.209-1.074.269-.403.538-.672.806-.94ZM81.27 2.015c.268 2.284.268 4.97.268 7.388 0 .672 0 1.209-.134 1.746 0 .538-.269 1.075-.94 1.747h-.135c.115-.576.132-1.152.134-1.812V9.672c0-1.881-.268-4.702-.402-6.582a4.088 4.088 0 0 1 1.074-1.075h.135ZM61.254 9.403c-.538 0-1.21.537-1.21.94 0 .538.538.806 1.21 1.075.537.134 1.209.134 1.88.134-.134-.671-.403-1.209-.806-1.612s-.671-.537-1.074-.537Zm-1.478-4.836.302.281.605.513c.1.088.201.18.302.28-.269.404-.537.672-.806.941-.403-.403-.806-.806-1.209-1.075.269-.403.537-.671.806-.94Zm2.015-.134.302.281.605.512c.1.088.201.18.302.281-.269.403-.537.672-.806.94-.403-.402-.806-.805-1.209-1.074.269-.403.537-.672.806-.94ZM83.149 0c-.134.269-.134.537-.268.806-.403.403-.94.537-1.478.537-.672 0-1.478-.134-1.88-.134-.135 0-.404.403-.538.806h-.134l-.403-.672c0-.537.268-1.209.94-1.209.672 0 1.478.269 2.284.269.268 0 .537 0 .806-.134.268 0 .403-.135.671-.269Z"/></svg>