<svg xmlns="http://www.w3.org/2000/svg" width="120" height="10"><path fill="#000" fill-rule="nonzero" d="M5.064 3.044c0-.301-.03-.602-.12-.844-.09-.24-.181-.482-.332-.663-.15-.18-.302-.331-.513-.422-.18-.09-.391-.15-.633-.15-.24 0-.452.06-.663.15-.21.09-.392.241-.572.422-.181.181-.332.362-.483.603-.15.241-.271.482-.361.754-.09.271-.181.542-.242.814-.06.27-.09.572-.09.844 0 .301.03.602.12.844.091.24.181.452.332.633.15.18.302.301.513.391.18.09.391.151.633.151.24 0 .452-.06.663-.15.21-.09.392-.242.572-.423.181-.18.332-.391.483-.602.15-.242.271-.483.361-.754.09-.271.181-.543.242-.814.06-.241.09-.512.09-.784Zm1.085 0c0 .332-.03.664-.12.995-.06.332-.181.633-.302.935a4.85 4.85 0 0 1-.512.844 2.886 2.886 0 0 1-.694.663c-.27.18-.542.331-.874.452-.331.12-.663.15-1.055.15-.392 0-.723-.06-1.055-.18a2.213 2.213 0 0 1-.814-.513 2.409 2.409 0 0 1-.542-.814A2.982 2.982 0 0 1 0 4.521c0-.331.03-.663.12-.994.091-.332.181-.633.332-.935a3.83 3.83 0 0 1 .543-.814c.21-.24.452-.452.693-.633.271-.18.543-.331.874-.422.302-.09.633-.15.995-.15.392 0 .753.06 1.085.21.332.121.603.302.814.543.21.241.392.483.512.814.12.241.181.573.181.904ZM9.797 4.1c0-.15 0-.27-.03-.422-.03-.15-.06-.27-.121-.391a.712.712 0 0 0-.241-.272.632.632 0 0 0-.332-.12c-.12 0-.241.03-.331.06-.121.06-.211.12-.302.18-.09.061-.18.121-.241.182-.06.06-.12.09-.15.12L7.475 6.33c.03.03.06.03.12.06l.18.09c.061.03.152.061.212.091.09.03.15.03.241.03.18 0 .332-.03.482-.12.151-.09.272-.181.392-.302.12-.12.211-.27.302-.452.09-.18.15-.362.21-.542.061-.181.091-.362.121-.573.03-.15.06-.332.06-.513Zm.934-.03c0 .241-.03.513-.09.754s-.151.482-.272.693c-.12.211-.271.422-.422.603a2.71 2.71 0 0 1-.542.482c-.211.151-.422.242-.663.332-.242.09-.483.12-.754.12-.15 0-.271-.03-.392-.06-.12-.03-.21-.09-.301-.12L6.993 8.38c0 .06 0 .09.03.12s.09.06.151.06l.603.06v.363H5.365V8.62l.513-.06c.12 0 .21-.06.241-.181l1.085-5.396-.814-.09v-.272l1.447-.301H8.2l-.12.573.27-.181c.091-.06.212-.12.332-.181.12-.06.241-.12.362-.15.12-.03.271-.061.392-.061.241 0 .452.06.603.15.15.091.301.242.392.393.09.15.15.361.21.542.091.241.091.452.091.663Zm3.466-.814c0-.06 0-.12-.03-.18a.659.659 0 0 0-.09-.151c-.03-.06-.09-.09-.15-.12-.061-.03-.152-.03-.212-.03a.51.51 0 0 0-.301.09c-.09.06-.181.12-.272.21-.09.091-.18.181-.24.302-.091.12-.151.241-.212.362-.06.12-.12.271-.15.392-.06.12-.09.27-.121.391.211-.03.422-.06.633-.15.211-.06.422-.181.603-.272.18-.12.331-.24.422-.391.06-.121.12-.272.12-.453Zm.844.03c0 .181-.03.332-.12.483-.09.15-.181.271-.332.392-.15.12-.301.21-.482.301-.18.09-.362.15-.573.241-.21.06-.392.12-.603.151-.21.03-.391.06-.602.06 0 .06-.03.12-.03.211v.211c0 .181.03.332.06.483.03.15.09.27.18.361.091.09.181.181.302.241.12.06.241.09.392.09.21 0 .452-.09.693-.24.271-.15.573-.392.904-.694v.573c-.09.09-.21.181-.331.271-.12.09-.271.211-.452.302-.181.09-.362.15-.543.21-.18.061-.392.091-.633.091-.09 0-.21 0-.301-.03-.12-.03-.211-.06-.332-.09-.12-.06-.21-.12-.331-.181-.09-.09-.181-.18-.272-.302a1.02 1.02 0 0 1-.18-.452c-.06-.18-.06-.392-.06-.603 0-.24.03-.482.09-.723s.15-.482.24-.693c.121-.211.242-.422.393-.633.15-.211.331-.362.512-.513.18-.15.392-.24.603-.331.21-.09.422-.12.663-.12.211 0 .392.03.543.12.15.06.27.15.361.271.09.09.151.211.181.301s.06.151.06.242Zm5.215 3.467c-.03.03-.12.03-.21.06-.091.03-.212.06-.332.09-.12.03-.242.061-.392.091-.12.03-.241.03-.332.03-.06 0-.12 0-.24-.03a.88.88 0 0 1-.272-.06.405.405 0 0 1-.211-.18c-.06-.061-.06-.182-.03-.302l.572-2.864c.03-.12.03-.241 0-.301a1.47 1.47 0 0 0-.09-.211.166.166 0 0 0-.15-.09c-.061 0-.121-.031-.182-.031-.09 0-.18.03-.301.06-.12.03-.241.09-.362.181-.12.06-.241.15-.392.271-.15.121-.24.211-.361.302l-.664 3.135h-.904l.844-3.949-.814-.09v-.272l1.447-.301h.392l-.18.874c.12-.09.24-.211.36-.301.152-.09.272-.211.453-.272.15-.09.301-.15.482-.21.181-.061.332-.091.483-.091.361 0 .602.09.753.271.15.181.181.482.12.904l-.512 2.623c-.03.09 0 .15.03.21.03.061.06.091.121.121.06.03.09.03.15.06h.121c.09 0 .181 0 .272-.03.09-.03.21-.06.331-.09v.392Zm6.24-2.653c0-.21-.03-.391-.06-.542-.03-.15-.121-.271-.181-.362a.565.565 0 0 0-.211-.18c-.09-.03-.151-.061-.211-.061-.09 0-.151 0-.241.03s-.181.06-.302.09c-.09.03-.18.091-.301.151l-.272.181-.542 2.834c.03.06.06.09.12.12s.121.09.181.12.151.061.211.091c.09.03.151.03.241.03.151 0 .272-.03.422-.12.121-.06.242-.181.362-.302.12-.12.211-.27.302-.422.09-.18.18-.331.24-.542.061-.181.121-.392.151-.573.09-.18.09-.362.09-.543Zm.964-.06c0 .181-.03.392-.06.633a2.82 2.82 0 0 1-.21.663c-.091.211-.212.422-.363.633-.15.211-.301.392-.512.543-.211.15-.422.271-.693.392-.272.12-.543.15-.874.15-.272 0-.543-.03-.784-.12a1.987 1.987 0 0 1-.724-.332L24.356.693l-.844-.09V.332L24.989.06h.361l-.542 2.834c.09-.09.18-.151.301-.211.09-.06.211-.12.332-.181.12-.06.241-.09.331-.12.121-.03.242-.061.362-.061.241 0 .452.06.633.15.181.121.302.242.422.423.09.18.181.361.211.542.03.211.06.422.06.603Zm3.889.06c0-.21-.03-.422-.06-.572a.9.9 0 0 0-.181-.422.591.591 0 0 0-.272-.272.608.608 0 0 0-.331-.09.846.846 0 0 0-.573.211c-.18.15-.331.332-.452.573-.12.24-.241.512-.301.814-.06.301-.121.602-.121.904 0 .241.03.422.06.603.03.18.09.331.181.422.09.12.181.21.271.271.09.06.211.09.332.09.15 0 .301-.03.422-.12.12-.06.241-.18.362-.302.12-.12.21-.27.301-.452.09-.18.15-.331.211-.542.06-.181.09-.392.12-.573 0-.18.03-.362.03-.543Zm.964.03c0 .242-.03.513-.09.754s-.15.482-.241.693c-.12.211-.241.422-.392.603-.15.181-.332.332-.512.483a2.26 2.26 0 0 1-.603.301c-.211.06-.452.12-.694.12-.27 0-.482-.03-.693-.12a1.71 1.71 0 0 1-.542-.362 1.261 1.261 0 0 1-.332-.542c-.09-.211-.12-.452-.12-.724 0-.24.03-.512.09-.753s.15-.483.241-.694c.09-.21.241-.422.392-.602.15-.181.331-.362.512-.483.181-.12.392-.24.603-.301.211-.09.452-.12.693-.12.242 0 .453.03.664.09.21.06.391.18.542.331.15.151.271.332.362.573.06.18.12.452.12.754Zm3.889-.03c0-.21-.03-.422-.06-.572a.9.9 0 0 0-.181-.422.591.591 0 0 0-.271-.272.608.608 0 0 0-.332-.09.846.846 0 0 0-.573.211c-.18.15-.331.332-.452.573-.12.24-.241.512-.301.814-.06.301-.12.602-.12.904 0 .241.03.422.06.603.03.18.09.331.18.422.09.12.181.21.272.271.09.06.21.09.331.09.15 0 .302-.03.422-.12.12-.06.241-.18.362-.302.12-.12.21-.27.301-.452.09-.18.151-.331.211-.542.06-.181.09-.392.12-.573 0-.18.031-.362.031-.543Zm.965.03c0 .242-.03.513-.09.754-.061.241-.152.482-.242.693a4.14 4.14 0 0 1-.392.603c-.15.181-.331.332-.512.483a2.26 2.26 0 0 1-.603.301c-.211.06-.452.12-.693.12-.272 0-.483-.03-.694-.12a1.71 1.71 0 0 1-.542-.362 1.261 1.261 0 0 1-.332-.542c-.09-.211-.12-.452-.12-.724 0-.24.03-.512.09-.753s.15-.483.241-.694c.09-.21.241-.422.392-.602.15-.181.332-.362.512-.483.181-.12.392-.24.603-.301.211-.09.452-.12.694-.12.24 0 .452.03.663.09.21.06.392.18.542.331.151.151.272.332.362.573.06.18.12.452.12.754ZM42.2 6.723c-.09.03-.18.09-.27.12-.091.03-.212.06-.332.09-.121.031-.211.061-.332.061-.09.03-.18.03-.271.03-.09 0-.151 0-.241-.03a1.47 1.47 0 0 1-.211-.09.8.8 0 0 1-.181-.15c-.06-.061-.09-.122-.151-.152-.03-.06-.09-.15-.15-.24-.061-.091-.121-.212-.182-.332-.06-.12-.12-.242-.18-.392-.06-.12-.121-.272-.181-.392s-.12-.241-.151-.332c-.06-.12-.09-.18-.12-.271l-.453.392-.392 1.899h-.874l1.266-6.24-.844-.09V.332L39.427.06h.392l-.874 4.34 1.537-1.567.241-.24c.06-.061.151-.121.211-.151s.151-.06.211-.09c.06-.031.151-.031.242-.031.12 0 .21.03.27.06.091.03.152.06.182.12.06.061.09.091.12.152.03.06.03.12.03.18 0 .121-.06.211-.15.332-.09.12-.272.211-.483.271l-.331-.331c-.09.06-.181.15-.271.21-.09.091-.211.151-.302.242-.09.09-.21.18-.301.241-.09.09-.181.15-.241.211.03.09.09.18.12.301.06.121.09.242.15.392.061.12.121.272.182.422.06.151.12.272.21.392.061.12.151.241.212.362.09.12.15.241.24.331.091.09.182.181.242.211.09.06.18.09.241.09h.12c.061 0 .091-.03.151-.03s.121-.03.151-.06c.06-.03.09-.03.15-.06v.362h.121Zm3.467-3.798c0 .12-.03.21-.06.271-.06.06-.12.12-.181.15-.06.031-.15.061-.211.061-.09 0-.15.03-.211.03l-.422-.572c-.03-.03-.06-.03-.09-.06s-.091-.03-.151-.03c-.121 0-.181.03-.272.06-.09.03-.12.09-.18.15s-.091.12-.091.211c-.03.06-.03.15-.03.211 0 .09.03.181.06.271.03.09.12.181.181.272.06.09.18.18.271.24.09.091.211.152.302.242.12.09.21.18.301.241l.271.271c.09.09.151.181.181.302.06.09.06.21.06.331 0 .181-.03.362-.12.543-.09.18-.18.332-.362.482-.15.151-.331.242-.572.332-.242.09-.483.12-.784.12a3.39 3.39 0 0 1-.603-.06 2.94 2.94 0 0 1-.422-.18.977.977 0 0 1-.241-.272.582.582 0 0 1-.09-.301.5.5 0 0 1 .15-.362c.09-.09.241-.15.422-.15.06 0 .12 0 .181.03.06.03.09.03.15.06.061.03.091.03.121.06s.06.03.06.06l-.18.452c.06.09.15.181.24.241.091.06.242.09.393.09.09 0 .18-.03.271-.06.09-.03.18-.09.241-.15.06-.06.12-.15.15-.241.031-.09.061-.211.061-.332 0-.09-.03-.18-.06-.271-.03-.09-.09-.15-.15-.241-.061-.09-.152-.15-.242-.241-.09-.09-.211-.151-.301-.242-.09-.09-.181-.15-.302-.24-.12-.091-.18-.182-.241-.272-.06-.09-.12-.211-.18-.301-.031-.121-.061-.211-.061-.332 0-.241.06-.422.15-.603.121-.18.242-.331.423-.452.18-.12.361-.211.542-.271.211-.06.392-.09.603-.09.18 0 .332.03.452.06s.211.09.302.15c.09.06.12.12.15.181.09.03.12.09.12.15ZM52.84.633c0 .15-.06.271-.18.332-.121.09-.242.12-.423.15l-.753-.572c-.06.06-.121.12-.181.24-.06.091-.12.212-.151.362-.06.121-.09.272-.15.422-.03.151-.091.302-.121.422-.03.151-.06.272-.09.392s-.03.211-.061.302h1.176v.452H50.67c0 .06-.03.18-.06.362-.03.18-.06.361-.091.602-.03.242-.06.483-.12.724-.03.271-.091.512-.121.753-.03.242-.09.453-.12.664a4.73 4.73 0 0 1-.091.482c-.03.18-.09.362-.181.543l-.271.542c-.09.18-.211.332-.332.482-.12.151-.271.302-.392.392-.12.09-.301.211-.452.272-.15.06-.301.09-.482.09-.12 0-.211-.03-.302-.06a.309.309 0 0 1-.18-.151c-.03-.06-.06-.09-.09-.15-.031-.061-.031-.091-.031-.121 0-.12.03-.211.06-.272l.181-.18.965.24c.09-.09.15-.21.24-.361.061-.15.121-.301.182-.482.06-.181.12-.362.15-.573.06-.211.09-.422.121-.633.09-.452.15-.935.211-1.477.06-.543.15-1.115.241-1.718l-.723.06v-.362l.844-.271c.03-.15.06-.332.12-.543.06-.18.12-.391.211-.572.09-.181.181-.362.302-.543.12-.18.24-.331.392-.452.15-.12.301-.241.482-.301.18-.09.362-.121.603-.121.15 0 .301.03.422.06.12.03.21.09.271.151.06.06.12.12.15.18.061.152.061.212.061.242Zm2.442 3.466c0-.21-.03-.422-.06-.572a.9.9 0 0 0-.182-.422c-.09-.12-.15-.211-.27-.272a.608.608 0 0 0-.332-.09.846.846 0 0 0-.573.211c-.181.15-.332.332-.452.573-.12.24-.241.512-.302.814-.06.301-.12.602-.12.904 0 .241.03.422.06.603.03.18.09.331.18.422.091.12.182.21.272.271.09.06.211.09.332.09.15 0 .301-.03.422-.12.12-.06.24-.18.361-.302.121-.12.211-.27.302-.452.09-.18.15-.331.21-.542.061-.181.091-.392.121-.573.03-.18.03-.362.03-.543Zm.964.03c0 .242-.03.513-.09.754s-.151.482-.241.693c-.121.211-.242.422-.392.603-.151.181-.332.332-.513.483-.18.15-.392.24-.603.301-.21.06-.452.12-.693.12-.271 0-.482-.03-.693-.12a1.71 1.71 0 0 1-.543-.362 1.261 1.261 0 0 1-.331-.542c-.09-.211-.12-.452-.12-.724 0-.24.03-.512.09-.753s.15-.483.24-.694c.091-.21.242-.422.393-.602.15-.181.331-.362.512-.483.18-.12.392-.24.603-.301.21-.09.452-.12.693-.12.241 0 .452.03.663.09.211.06.392.18.543.331.15.151.271.332.362.573.06.18.12.452.12.754Zm4.22-1.175c0 .12-.03.211-.06.271-.03.06-.09.12-.18.151-.061.03-.152.06-.272.06-.09 0-.211.03-.362.03l-.241-.452c-.12.06-.241.12-.392.241-.12.121-.271.272-.392.422-.12.151-.24.302-.331.483-.09.15-.151.301-.181.452l-.513 2.351h-.874l.814-3.949-.814-.09v-.271l1.447-.302h.392l-.211.935c.18-.302.422-.513.663-.694.241-.18.512-.24.814-.24.12 0 .21.03.301.06.09.03.151.09.181.15.06.06.09.12.09.211.091.06.121.12.121.181Zm5.999.332c0-.03 0-.06-.03-.09l-.09-.182a.658.658 0 0 0-.121-.15c-.03-.06-.09-.06-.09-.06-.242 0-.453.03-.664.12-.18.09-.362.18-.512.301-.151.12-.272.272-.362.452-.09.181-.181.362-.241.543-.06.18-.12.392-.12.573-.031.18-.031.361-.031.542 0 .12 0 .272.03.392s.06.241.12.362c.061.12.121.18.212.271.09.06.21.09.361.09.121 0 .211-.03.332-.06.12-.03.211-.09.301-.18.09-.06.181-.121.242-.181l.15-.151.513-2.592Zm1.416 3.406c-.03.03-.12.03-.21.09-.091.03-.212.09-.332.12-.12.03-.241.091-.362.121-.12.03-.241.06-.331.06-.121 0-.211 0-.302-.03-.09-.03-.15-.06-.18-.12s-.091-.12-.121-.211a.88.88 0 0 1-.06-.271c-.06.06-.151.15-.242.21-.09.06-.21.151-.331.212-.12.06-.241.12-.362.15-.12.03-.271.06-.422.06-.18 0-.362-.03-.482-.09-.151-.06-.272-.12-.362-.21-.09-.091-.18-.182-.241-.302-.06-.12-.12-.241-.15-.362l-.091-.362c-.03-.12-.03-.24-.03-.361 0-.242.03-.483.09-.724s.12-.482.241-.693c.12-.211.241-.452.392-.633.15-.211.332-.362.543-.513a1.85 1.85 0 0 1 .693-.331c.241-.09.512-.12.814-.12.09 0 .18 0 .271.03.09.03.15.06.241.09.06.03.15.06.211.12.06.06.12.09.15.121l.152-.211h.663c-.03.03-.03.09-.06.12-.03.06-.03.091-.06.151-.031.06-.031.09-.061.151 0 .06-.03.09-.03.09-.03.09-.06.211-.09.362-.03.15-.091.362-.121.573-.03.21-.09.422-.151.663-.06.241-.09.452-.12.633-.03.211-.06.392-.091.543-.03.15-.03.27-.03.331 0 .15.03.271.12.332.06.06.181.09.302.09.03 0 .09 0 .15-.03.06 0 .121-.03.181-.06s.121-.03.181-.06.09-.03.12-.03v.3h-.09Zm5.034.06c-.03.03-.12.03-.21.06-.091.03-.212.06-.332.09-.12.03-.241.061-.392.091-.12.03-.241.03-.332.03-.06 0-.12 0-.24-.03-.091 0-.182-.03-.272-.06a.405.405 0 0 1-.211-.18c-.06-.061-.06-.182-.03-.302l.572-2.864c.03-.12.03-.241 0-.301-.03-.09-.06-.151-.09-.211a.166.166 0 0 0-.15-.09c-.061-.031-.121-.031-.182-.031-.09 0-.18.03-.301.06-.12.03-.241.09-.362.181-.12.06-.24.15-.392.271-.12.09-.24.211-.361.302l-.663 3.135h-.905l.844-3.949-.814-.09v-.272l1.447-.301h.392l-.18.874c.12-.09.24-.211.361-.301.15-.09.271-.211.452-.272.15-.09.302-.15.482-.21.181-.061.332-.091.483-.091.361 0 .603.09.753.271.151.181.181.482.12.904l-.512 2.623c-.03.09 0 .15.03.21.03.061.06.091.121.121.06.03.09.03.15.06h.121c.09 0 .181 0 .272-.03.09-.03.21-.06.331-.09v.392Zm6.39-2.653c0-.21-.03-.422-.06-.572a.9.9 0 0 0-.18-.422.591.591 0 0 0-.272-.272.608.608 0 0 0-.331-.09.846.846 0 0 0-.573.211c-.18.15-.332.332-.452.573-.12.24-.241.512-.302.814-.06.301-.12.602-.12.904 0 .241.03.422.06.603.03.18.09.331.181.422.09.12.18.21.271.271.09.06.211.09.332.09.15 0 .301-.03.422-.12.12-.06.241-.18.362-.302.12-.12.21-.27.301-.452.09-.18.15-.331.211-.542.06-.181.09-.392.12-.573.03-.18.03-.362.03-.543Zm.965.03c0 .242-.03.513-.09.754s-.15.482-.241.693c-.12.211-.241.422-.392.603-.15.181-.332.332-.513.483-.18.15-.391.24-.602.301-.211.06-.453.12-.694.12-.271 0-.482-.03-.693-.12a1.71 1.71 0 0 1-.543-.362 1.261 1.261 0 0 1-.331-.542c-.09-.211-.12-.452-.12-.724 0-.24.03-.512.09-.753s.15-.483.24-.694c.091-.21.242-.422.393-.602.15-.181.331-.362.512-.483.181-.12.392-.24.603-.301.211-.09.452-.12.693-.12.241 0 .452.03.663.09.211.06.392.18.543.331.15.151.271.332.362.573.09.18.12.452.12.754Zm3.768-.03c0-.15 0-.27-.03-.422-.03-.15-.06-.27-.12-.391a.712.712 0 0 0-.242-.272.632.632 0 0 0-.331-.12c-.12 0-.241.03-.332.06-.12.06-.21.12-.301.18-.09.061-.181.121-.241.182-.06.06-.121.09-.151.12l-.573 2.894c.03.03.06.03.12.06l.182.09c.06.03.15.061.21.091.091.03.151.03.242.03.18 0 .331-.03.482-.12.15-.09.271-.181.392-.302.12-.12.21-.27.301-.452.09-.18.151-.362.211-.542.06-.181.09-.362.12-.573.061-.15.061-.332.061-.513Zm.965-.03c0 .241-.03.513-.09.754s-.151.482-.272.693c-.12.211-.271.422-.422.603a2.71 2.71 0 0 1-.543.482c-.21.151-.422.242-.663.332-.24.09-.482.12-.753.12-.151 0-.272-.03-.392-.06s-.211-.09-.302-.12l-.301 1.507c0 .06 0 .09.03.12s.09.06.15.06l.604.06v.363h-2.412V8.62l.513-.06c.12 0 .21-.06.24-.181l1.086-5.396-.814-.09v-.272l1.447-.301h.362l-.12.573.27-.181c.09-.06.211-.12.332-.181.12-.06.241-.12.362-.15.12-.03.271-.061.392-.061.24 0 .452.06.602.15.151.091.302.242.392.393.09.15.151.361.211.542.06.241.09.452.09.663Zm3.436-.814c0-.06 0-.12-.03-.18a.659.659 0 0 0-.09-.151c-.03-.06-.09-.09-.151-.12-.06-.03-.15-.03-.211-.03a.51.51 0 0 0-.302.09c-.09.06-.18.12-.27.21-.091.091-.182.181-.242.302-.09.12-.15.241-.211.362-.06.12-.12.271-.15.392-.061.12-.091.27-.121.391.21-.03.422-.06.633-.15.21-.06.422-.181.603-.272.18-.12.331-.24.422-.391.06-.121.12-.272.12-.453Zm.844.03c0 .181-.03.332-.12.483-.09.15-.181.271-.332.392-.15.12-.301.21-.482.301-.181.09-.362.15-.573.241-.211.06-.392.12-.603.151-.21.03-.392.06-.603.06 0 .06-.03.12-.03.211v.211c0 .181.03.332.06.483.03.15.09.27.181.361.09.09.181.181.302.241.12.06.24.09.392.09.21 0 .452-.09.693-.24.271-.15.573-.392.904-.694v.573c-.09.09-.21.181-.331.271-.121.09-.272.211-.453.302-.18.09-.361.15-.542.21-.181.061-.392.091-.633.091-.09 0-.211 0-.302-.03-.12-.03-.21-.06-.331-.09-.12-.03-.211-.12-.332-.181-.09-.09-.18-.18-.271-.302a1.02 1.02 0 0 1-.18-.452c-.061-.18-.061-.392-.061-.603 0-.24.03-.482.09-.723s.15-.482.241-.693c.12-.211.241-.422.392-.633.15-.211.332-.362.513-.513.18-.15.392-.24.603-.331.21-.09.422-.12.663-.12.21 0 .392.03.542.12.151.06.272.15.362.271.09.09.15.211.18.301.061.09.061.151.061.242ZM94.5 6.753c-.03.03-.12.03-.211.06-.09.03-.211.06-.332.09-.12.03-.24.061-.392.091-.15.03-.24.03-.331.03-.06 0-.12 0-.241-.03a.88.88 0 0 1-.272-.06.405.405 0 0 1-.21-.18c-.06-.061-.06-.182-.03-.302l.572-2.864c.03-.12.03-.241 0-.301-.03-.09-.06-.151-.09-.211a.166.166 0 0 0-.151-.09c-.06-.031-.12-.031-.181-.031-.09 0-.18.03-.301.06s-.242.09-.362.181c-.12.06-.241.15-.392.271-.12.09-.241.211-.362.302l-.663 3.135h-.904l.844-3.949-.814-.09v-.272l1.447-.301h.392l-.181.874c.12-.09.241-.211.362-.301.15-.09.27-.211.452-.272.15-.09.301-.15.482-.21.18-.061.332-.091.482-.091.362 0 .603.09.754.271.15.181.18.482.12.904l-.512 2.623c-.03.09 0 .15.03.21.03.061.06.091.12.121.061.03.091.03.151.06h.121c.09 0 .18 0 .271-.03.09-.03.211-.06.332-.09v.392Zm9.555-3.858c0 .12-.03.301-.09.482-.06.18-.15.392-.271.603-.121.21-.242.422-.392.663-.151.241-.302.452-.452.663l-.453.633c-.15.211-.301.392-.422.543-.12.15-.24.301-.301.392-.09.12-.15.18-.15.21h-.604l-.21-3.195c-.151.302-.272.603-.453.875-.15.301-.301.572-.452.844-.15.27-.301.542-.452.783-.15.241-.302.483-.422.664h-.693l.09-.211-.271-3.859-.724-.09v-.272l1.146-.331.422.03.21 3.497c.121-.211.242-.453.393-.724.15-.271.27-.542.422-.814.15-.271.27-.572.422-.874.15-.301.27-.573.392-.844l.723-.09.241 3.557c.302-.362.543-.754.784-1.146.21-.392.422-.814.633-1.236l-.181-1.085.06-.06c.03-.03.06-.06.12-.09.061-.03.121-.06.182-.06.06-.031.15-.031.21-.031.121 0 .212.03.272.06a.8.8 0 0 1 .18.151l.091.18v.182Zm3.527 1.205c0-.21-.03-.422-.06-.572a.9.9 0 0 0-.181-.422.591.591 0 0 0-.271-.272.608.608 0 0 0-.332-.09.846.846 0 0 0-.573.211c-.18.15-.331.332-.452.573-.12.24-.241.512-.301.814-.06.301-.12.602-.12.904 0 .241.03.422.06.603.03.18.09.331.18.422.09.12.181.21.272.271.09.06.21.09.331.09.15 0 .302-.03.422-.12.12-.06.241-.18.362-.302.12-.12.21-.27.301-.452.09-.18.151-.331.211-.542.06-.181.09-.392.12-.573.031-.18.031-.362.031-.543Zm.965.03c0 .242-.03.513-.09.754-.061.241-.152.482-.242.693a4.14 4.14 0 0 1-.392.603c-.15.181-.331.332-.512.483a2.26 2.26 0 0 1-.603.301c-.211.06-.452.12-.693.12-.272 0-.483-.03-.694-.12a1.71 1.71 0 0 1-.542-.362 1.261 1.261 0 0 1-.332-.542c-.09-.211-.12-.452-.12-.724 0-.24.03-.512.09-.753s.15-.483.241-.694c.09-.21.241-.422.392-.602.15-.181.332-.362.512-.483.181-.12.392-.24.603-.301.211-.09.452-.12.694-.12.24 0 .452.03.663.09.21.06.392.18.542.331.151.151.272.332.362.573.09.18.12.452.12.754Zm4.22-1.175c0 .12-.03.211-.06.271-.03.06-.091.12-.182.151-.06.03-.15.06-.27.06-.091 0-.212.03-.363.03l-.24-.452c-.121.06-.242.12-.393.241a5.39 5.39 0 0 0-.391.422c-.121.151-.242.302-.332.483-.09.15-.15.301-.18.452l-.513 2.351h-.874l.813-3.949-.813-.09v-.271l1.446-.302h.392l-.21.935c.18-.302.421-.513.662-.694.242-.18.513-.24.814-.24.12 0 .211.03.302.06.09.03.15.09.18.15.06.06.091.12.091.211.12.06.12.12.12.181Zm2.2 3.738c-.03.03-.12.03-.21.09-.091.03-.212.09-.332.12-.121.03-.272.091-.392.121-.151.03-.272.06-.362.06-.15 0-.271-.03-.362-.06a.656.656 0 0 1-.24-.15.54.54 0 0 1-.152-.211c-.03-.09-.03-.181-.03-.272 0-.09 0-.21.03-.331l1.055-5.336-.844-.09V.362l1.477-.272h.362l-1.145 5.939v.18c.03.06.06.121.09.151s.09.09.15.12c.061.03.121.061.182.061.06 0 .12 0 .18-.03.09-.03.151-.03.242-.06.09-.03.15-.03.21-.06s.121-.03.151-.03v.33h-.06Zm3.979-.543c-.03.09 0 .15 0 .211 0 .06.06.09.09.12s.09.061.121.061c.03 0 .09.03.09.03s.06 0 .121-.03c.06-.03.15-.03.211-.06.06-.03.15-.03.211-.06l.12-.03v.33c-.03.031-.12.031-.21.061s-.211.06-.332.12c-.12.061-.241.061-.362.091-.12.03-.24.03-.331.03-.151 0-.272-.03-.362-.06-.09-.03-.18-.09-.211-.15-.06-.06-.09-.151-.12-.212-.03-.06-.03-.18-.03-.27l-.272.27c-.09.09-.211.151-.332.211-.12.06-.24.12-.361.151a1.437 1.437 0 0 1-1.055-.09c-.181-.09-.302-.242-.422-.392a1.46 1.46 0 0 1-.211-.543c-.03-.21-.06-.392-.06-.603 0-.24.03-.482.09-.753.06-.241.12-.483.241-.724a4.46 4.46 0 0 1 .392-.633c.15-.18.331-.361.542-.512a1.96 1.96 0 0 1 .664-.332c.24-.09.512-.12.783-.12.06 0 .151 0 .211.03.06 0 .12.03.181.06.06.03.12.03.181.06.06.03.09.03.15.06l.332-1.808-.874-.09V.3l1.477-.27H120l-1.055 6.118Zm-.392-2.894s0-.06-.06-.09c-.03-.06-.09-.12-.15-.18a.54.54 0 0 0-.212-.152c-.06-.06-.15-.06-.21-.06-.242 0-.453.06-.664.211-.211.12-.392.302-.573.543-.15.24-.301.512-.392.814-.09.301-.15.663-.15 1.024 0 .211.03.362.06.513.03.15.09.271.18.362.091.09.152.15.242.21s.18.06.271.06c.09 0 .181-.03.272-.06.09-.03.21-.09.301-.18.09-.06.211-.15.301-.241l.272-.272.512-2.502Z"/></svg>