<?xml version="1.0" encoding="UTF-8"?>
<svg width="120px" height="25px" viewBox="0 0 120 25" version="1.1" xmlns="http://www.w3.org/2000/svg" xmlns:xlink="http://www.w3.org/1999/xlink">
    <title>wikipedia-wordmark-blk</title>
    <g id="Page-1" stroke="none" stroke-width="1" fill="none" fill-rule="evenodd">
        <path d="M7.14270945,0 C8.63077392,0 9.91216266,0.549757945 10.9868757,1.64927383 C12.053322,2.74052323 12.5865452,4.02604585 12.5865452,5.50584171 C12.5865452,6.95257158 12.0450551,8.22982771 10.9620749,9.3376101 C10.2018654,10.0864716 9.36379182,10.5783819 8.44785418,10.813341 C9.65023532,11.0944381 10.7238401,11.7026121 11.6689054,12.6361514 C13.0246975,13.9754084 13.7025936,15.5750769 13.7025936,17.4351569 C13.7025936,19.3117742 13.0246975,20.9362443 11.6689054,22.3085673 C10.3048464,23.656095 8.68450953,24.3298588 6.80789479,24.3298588 C4.91474621,24.3298588 3.30267647,23.656095 1.97168558,22.3085673 C0.657228527,20.9610438 0,19.3365737 0,17.4351569 C0,15.5006742 0.653094856,13.8844706 1.95928457,12.5865461 C2.9626649,11.5831684 4.14898101,10.9651746 5.5182329,10.7325648 C4.70860988,10.4819903 3.9771383,10.0286034 3.32334398,9.37480933 C2.2651648,8.27529344 1.73607521,6.98563757 1.73607521,5.50584171 C1.73607521,3.99297564 2.25689767,2.69505327 3.29854259,1.6120746 C4.33192101,0.537358201 5.61330996,0 7.14270945,0 Z M6.80789479,13.466985 C5.66704557,13.466985 4.72047128,13.843136 3.96817192,14.5954379 C3.21587255,15.3229361 2.83972287,16.2695091 2.83972287,17.4351569 C2.83972287,18.5677388 3.22413947,19.5225805 3.99297267,20.2996818 C4.77834014,21.0850497 5.71664751,21.4777337 6.80789479,21.4777337 C7.92394324,21.4777337 8.87465121,21.0809165 9.66001867,20.2872821 C10.4536531,19.4853812 10.8504702,18.5346728 10.8504702,17.4351569 C10.8504702,16.3604448 10.4495194,15.434538 9.64761766,14.6574366 C8.83744944,13.8638022 7.89087515,13.466985 6.80789479,13.466985 Z M7.04350515,7.53952664 C6.52268248,7.53952664 6.11759816,7.63873094 5.82825219,7.83713954 C6.20853554,8.07688484 6.64668796,8.1967575 7.14270945,8.1967575 C7.52161484,8.1967575 7.86607415,8.12499531 8.17608738,7.98147094 L8.35796178,7.88674486 C8.06034889,7.70486926 7.62219668,7.58912985 7.04350515,7.53952664 Z M4.53859631,5.67945082 C4.44765936,5.73732052 4.36498911,5.80345672 4.29058557,5.87785941 C4.21618245,5.94399561 4.14177933,6.01426506 4.06737622,6.08866775 C4.02604331,6.12173374 4.00537496,6.16720158 4.00537496,6.22507128 C3.99710846,6.28292405 4.00537496,6.33252726 4.03017444,6.3738809 C4.1789811,6.62188847 4.29885291,6.69215792 4.38978987,6.58468924 C4.48072767,6.46894984 4.53032982,6.1672037 4.53859631,5.67945082 Z M7.14270945,2.77772034 C6.39041009,2.77772034 5.76624966,3.0464005 5.27022817,3.58376082 C4.7824736,4.07978019 4.53859631,4.72047382 4.53859631,5.50584171 L4.53859631,5.67945082 C5.22475948,5.18342721 6.03906158,4.93541541 6.98150263,4.93541541 C7.32045054,4.93541541 7.65939845,4.97261676 7.99834636,5.04701945 C8.32902736,5.12142215 8.63904084,5.22475969 8.92838681,5.35703209 C9.10199423,5.43970551 9.2590676,5.51824357 9.39960691,5.59264626 C9.54014665,5.66704896 9.66415213,5.74145165 9.77162335,5.81585435 L9.77162335,5.50584171 C9.77162335,4.78661002 9.51121201,4.15418289 8.99038934,3.60856031 C8.46129975,3.054667 7.84540646,2.77772034 7.14270945,2.77772034 Z M22.3705691,0 C23.8586336,0 25.1400224,0.549757945 26.2147354,1.64927383 C27.2811819,2.74052323 27.8144052,4.02604585 27.8144052,5.50584171 C27.8144052,6.95257158 27.272915,8.22982771 26.1899347,9.3376101 C25.3692642,10.1460301 24.4578517,10.6550018 23.4556973,10.8645253 C23.7916709,10.9458965 24.1201656,11.0529893 24.4414591,11.1852862 C25.2846954,11.5242337 26.041128,12.0037222 26.7107569,12.6237517 C27.3969201,13.2768472 27.9177427,14.0084786 28.2732249,14.818646 C28.636974,15.6288133 28.8188485,16.5133855 28.8188485,17.4723625 C28.8188485,19.3820416 28.1657535,21.0230447 26.8595633,22.3953718 L26.8719631,22.3953718 C25.5823072,23.7594325 23.9826378,24.4414629 22.0729549,24.4414629 C21.0561109,24.4414629 20.0723349,24.2265192 19.121627,23.7966318 C18.6752077,23.5816902 18.2535894,23.3460802 17.8567723,23.0898019 C17.459955,22.8252571 17.1168735,22.5483126 16.8275277,22.2589683 L16.1826997,21.4033289 L15.5998745,20.4112859 L15.8230854,19.1712353 C17.1210083,17.8237076 18.5429366,17.1499438 20.0888702,17.1499438 C20.8742376,17.1499438 21.6306704,17.2987513 22.3581686,17.5963663 C23.0856667,17.8939771 23.7842304,18.3445286 24.4538594,18.9480209 C24.6357338,19.1464295 24.7886737,19.3241719 24.9126792,19.481248 C25.0366846,19.6383199 25.1441561,19.7871252 25.2350934,19.9276641 C25.5161721,19.6548529 25.710447,19.3324405 25.8179182,18.960427 C25.9336568,18.5801428 25.9915261,18.1171894 25.9915261,17.5715668 C25.9915261,16.3728445 25.5864417,15.3932013 24.7762731,14.6326371 C23.9661048,13.8555357 22.9616613,13.466985 21.7629428,13.466985 C21.3413245,13.466985 20.9610413,13.512455 20.6220933,13.6033949 C20.2914123,13.6943306 20.0062,13.8224676 19.7664562,13.987806 C19.6589849,14.0622129 19.514312,14.2027539 19.3324375,14.409429 C19.1505629,14.6161041 18.9314867,14.8765157 18.675209,15.1906637 C18.4354653,15.7197533 18.013847,15.9842981 17.4103542,15.9842981 C16.4100442,15.9842981 15.9098892,15.5089428 15.9098892,14.5582323 C15.9842924,14.1696816 16.1578999,13.7893995 16.4307118,13.4173861 C16.7200576,13.0453684 17.0094035,12.7146874 17.2987494,12.4253431 C17.5963622,12.1277281 17.8857081,11.8838495 18.166787,11.6937074 C18.9347472,11.183783 19.7940216,10.863335 20.7446103,10.7323636 C19.9363533,10.4819182 19.204946,10.0285514 18.5512036,9.37480933 C17.4930244,8.27529344 16.9639348,6.98563757 16.9639348,5.50584171 C16.9639348,3.99297564 17.4847574,2.69505327 18.5264025,1.6120746 C19.5597806,0.537358201 20.8411695,0 22.3705691,0 Z M20.0888702,20.0888735 C19.4605763,20.0888735 19.0430916,20.1343413 18.836416,20.225277 L18.9480208,20.3368811 C19.7664563,21.1801187 20.8081014,21.6017375 22.0729562,21.6017375 C22.3953702,21.6017375 22.668182,21.5686694 22.8913916,21.5025332 C22.8335225,21.4115975 22.7549857,21.3165264 22.6557814,21.21732 C22.5648442,21.1181178 22.4739069,21.0230468 22.3829696,20.9321069 C22.0522886,20.6592956 21.692673,20.4526205 21.3041229,20.3120816 C20.9155727,20.1632762 20.5104885,20.0888735 20.0888702,20.0888735 Z M22.2713648,7.53952664 C21.7505422,7.53952664 21.345458,7.63873094 21.0561121,7.83713954 C21.4363953,8.07688484 21.8745476,8.1967575 22.3705691,8.1967575 C22.7494744,8.1967575 23.0939338,8.12499531 23.4039472,7.98147094 L23.5858217,7.88674486 C23.2882088,7.70486926 22.8500565,7.58912985 22.2713648,7.53952664 Z M19.7664562,5.67945082 C19.675519,5.73732052 19.5928487,5.80345672 19.5184455,5.87785941 C19.4440423,5.94399561 19.3696391,6.01426506 19.2952358,6.08866775 C19.2539006,6.12173374 19.2332328,6.16720158 19.2332328,6.22507128 C19.2249659,6.28292405 19.2332331,6.33252726 19.2580342,6.3738809 C19.4068407,6.62188847 19.5267125,6.69215792 19.6176498,6.58468924 C19.7085872,6.46894984 19.7581893,6.1672037 19.7664562,5.67945082 Z M22.3705691,2.77772034 C21.6182698,2.77772034 20.9941095,3.0464005 20.498088,3.58376082 C20.0103335,4.07978019 19.7664562,4.72047382 19.7664562,5.50584171 L19.7664562,5.67945082 C20.4526193,5.18342721 21.2669213,4.93541541 22.2093621,4.93541541 C22.5483101,4.93541541 22.8872581,4.97261676 23.2262062,5.04701945 C23.5568872,5.12142215 23.8669006,5.22475969 24.1562464,5.35703209 C24.3298539,5.43970551 24.4869273,5.51824357 24.6274666,5.59264626 C24.7680064,5.66704896 24.8920119,5.74145165 24.9994831,5.81585435 L24.9994831,5.50584171 C24.9994831,4.78661002 24.7390718,4.15418289 24.2182491,3.60856031 C23.6891595,3.054667 23.0732662,2.77772034 22.3705691,2.77772034 Z M40.2273428,10.6148599 L40.8101682,10.7760692 C41.9840855,11.4291647 42.8934583,12.346805 43.5382864,13.5289901 L43.5258867,13.5289901 C44.1872487,14.7111752 44.5179297,15.9553611 44.5179297,17.2615478 C44.5179297,18.2122583 44.3360538,19.1092324 43.9723047,19.95247 C43.616823,20.7957033 43.116668,21.5604029 42.4718399,22.2465686 C41.802211,22.9244636 41.0540453,23.4411513 40.2273428,23.7966318 C39.4089072,24.1521165 38.5243355,24.3298588 37.5736275,24.3298588 C35.6639451,24.3298588 34.0394748,23.6271601 32.7002165,22.2217627 C31.3774926,20.8246361 30.7161306,19.1712311 30.7161306,17.2615478 C30.7161306,16.0049601 31.0426781,14.7979755 31.6957732,13.6405941 C32.3240671,12.4914793 33.2045052,11.5242379 34.3370875,10.73887 L34.9199129,10.6148599 C35.8375527,10.6148599 36.3459748,11.0902151 36.4451791,12.0409256 C36.4451791,12.5286785 36.2095687,12.9213625 35.738348,13.2189775 C35.4242013,13.4091196 35.1348555,13.6488628 34.8703107,13.938207 C34.6057659,14.2192848 34.3742892,14.5499658 34.1758806,14.93025 C33.7625292,15.6908142 33.5558535,16.4679135 33.5558535,17.2615478 C33.5558535,18.4106669 33.9568043,19.3985767 34.758706,20.225277 C35.5688743,21.0602481 36.5071814,21.4777337 37.5736275,21.4777337 C38.7392783,21.4777337 39.7106538,21.0643814 40.4877539,20.2376768 C41.2731214,19.4027099 41.6658051,18.4106669 41.6658051,17.2615478 C41.6658051,16.459647 41.4632631,15.6825477 41.058179,14.93025 C40.6613618,14.1696816 40.1405391,13.6033907 39.495711,13.2313772 C39.1319619,13.0164356 38.9128858,12.6692195 38.8384826,12.1897289 C38.8054124,11.2886258 39.2683658,10.7636695 40.2273428,10.6148599 Z M37.8960418,0 C39.3841063,0 40.665495,0.549757945 41.740208,1.64927383 C42.8066546,2.74052323 43.3398778,4.02604585 43.3398778,5.50584171 C43.3398778,6.95257158 42.7983876,8.22982771 41.7154073,9.3376101 C40.6076257,10.4288553 39.3345039,10.9744778 37.8960418,10.9744778 C36.4162443,10.9744778 35.1431224,10.441255 34.0766763,9.37480933 C33.0184972,8.27529344 32.4894076,6.98563757 32.4894076,5.50584171 C32.4894076,3.99297564 33.01023,2.69505327 34.0518749,1.6120746 C35.0852534,0.537358201 36.3666423,0 37.8960418,0 Z M37.7968375,7.53952664 C37.2760148,7.53952664 36.8709305,7.63873094 36.5815845,7.83713954 C36.9618679,8.07688484 37.4000203,8.1967575 37.8960418,8.1967575 C38.2749472,8.1967575 38.6194065,8.12499531 38.9294197,7.98147094 L39.1112941,7.88674486 C38.8136812,7.70486926 38.375529,7.58912985 37.7968375,7.53952664 Z M35.2919287,5.67945082 C35.2009917,5.73732052 35.1183215,5.80345672 35.0439179,5.87785941 C34.9695148,5.94399561 34.8951117,6.01426506 34.8207086,6.08866775 C34.7793757,6.12173374 34.7587073,6.16720158 34.7587073,6.22507128 C34.7504408,6.28292405 34.7587073,6.33252726 34.7835068,6.3738809 C34.9323135,6.62188847 35.0521853,6.69215792 35.1431222,6.58468924 C35.23406,6.46894984 35.2836622,6.1672037 35.2919287,5.67945082 Z M37.8960418,2.77772034 C37.1437424,2.77772034 36.519582,3.0464005 36.0235605,3.58376082 C35.535806,4.07978019 35.2919287,4.72047382 35.2919287,5.50584171 L35.2919287,5.67945082 C35.9780918,5.18342721 36.7923939,4.93541541 37.734835,4.93541541 C38.0737829,4.93541541 38.4127308,4.97261676 38.7516787,5.04701945 C39.0823597,5.12142215 39.3923732,5.22475969 39.6817192,5.35703209 C39.8553266,5.43970551 40.0124,5.51824357 40.1529393,5.59264626 C40.293479,5.66704896 40.4174845,5.74145165 40.5249557,5.81585435 L40.5249557,5.50584171 C40.5249557,4.78661002 40.2645444,4.15418289 39.7437217,3.60856031 C39.2146321,3.054667 38.5987388,2.77772034 37.8960418,2.77772034 Z M45.6587778,13.5909888 C45.6587778,13.1693721 45.7414481,12.7725549 45.9067886,12.4005372 C46.0638621,12.0285238 46.2788048,11.7061114 46.5516165,11.4333001 C46.8326955,11.1522181 47.1592431,10.9331411 47.5312591,10.7760692 C47.9032751,10.6107309 48.3000923,10.5280617 48.7217107,10.5280617 C49.143329,10.5280617 49.5401462,10.6107309 49.9121622,10.7760692 C50.2841783,10.9331411 50.6065923,11.1522181 50.8794045,11.4333001 C51.1604831,11.7061114 51.3795592,12.0285238 51.5366328,12.4005372 C51.7019733,12.7725549 51.7846435,13.1693721 51.7846435,13.5909888 C51.7846435,14.0126097 51.7019733,14.4094269 51.5366328,14.7814404 C51.3795592,15.1534581 51.1604831,15.4800058 50.8794045,15.7610836 C50.6065923,16.0338949 50.2841783,16.2529719 49.9121622,16.4183145 C49.5401462,16.5753864 49.143329,16.6539223 48.7217107,16.6539223 C48.3000923,16.6539223 47.9032751,16.5753864 47.5312591,16.4183145 C47.1592431,16.2529719 46.8326955,16.0338949 46.5516165,15.7610836 C46.2788048,15.4800058 46.0638621,15.1534581 45.9067886,14.7814404 C45.7414481,14.4094269 45.6587778,14.0126097 45.6587778,13.5909888 Z M48.1636866,13.5909888 C48.1636866,13.7480649 48.2174223,13.8803373 48.3248935,13.987806 C48.4323647,14.0952789 48.5646371,14.1490154 48.7217107,14.1490154 C48.8787842,14.1490154 49.0110566,14.0952789 49.1185279,13.987806 C49.2259991,13.8803373 49.2797347,13.7480649 49.2797347,13.5909888 C49.2797347,13.4339169 49.2259991,13.3016445 49.1185279,13.1941716 C49.0110566,13.0867029 48.8787842,13.0329686 48.7217107,13.0329686 C48.5646371,13.0329686 48.4323647,13.0867029 48.3248935,13.1941716 C48.2174223,13.3016445 48.1636866,13.4339169 48.1636866,13.5909888 Z M45.720781,21.1925205 C45.720781,20.7709038 45.8034512,20.3740867 45.9687917,20.002069 C46.1258649,19.6300512 46.3408075,19.3076368 46.6136197,19.0348255 C46.8946983,18.7537477 47.2212456,18.5346728 47.5932616,18.377601 C47.9652781,18.2122583 48.3620952,18.129587 48.7837132,18.129587 C49.2053316,18.129587 49.6021488,18.2122583 49.9741648,18.377601 C50.3461812,18.5346728 50.6685953,18.7537477 50.941407,19.0348255 C51.2224856,19.3076368 51.4415617,19.6300512 51.5986353,20.002069 C51.7639758,20.3740867 51.846646,20.7709038 51.846646,21.1925205 C51.846646,21.6141372 51.7639758,22.0109544 51.5986353,22.3829721 C51.4415617,22.7549898 51.2224856,23.0815376 50.941407,23.3626153 C50.6685953,23.6354266 50.3461812,23.8503682 49.9741648,24.0074401 C49.6021488,24.1727827 49.2053316,24.255454 48.7837132,24.255454 C48.3620952,24.255454 47.9652781,24.1727827 47.5932616,24.0074401 C47.2212456,23.8503682 46.8946983,23.6354266 46.6136197,23.3626153 C46.3408075,23.0815376 46.1258649,22.7549898 45.9687917,22.3829721 C45.8034512,22.0109544 45.720781,21.6141372 45.720781,21.1925205 Z M48.2256892,21.1925205 C48.2256892,21.3495924 48.2794248,21.4818648 48.386896,21.5893377 C48.4943676,21.6968106 48.62664,21.7505471 48.7837132,21.7505471 C48.9407868,21.7505471 49.0730592,21.6968106 49.1805304,21.5893377 C49.288002,21.4818648 49.3417378,21.3495924 49.3417378,21.1925205 C49.3417378,21.0354486 49.288002,20.9031762 49.1805304,20.7957033 C49.0730592,20.6882304 48.9407868,20.634494 48.7837132,20.634494 C48.62664,20.634494 48.4943676,20.6882304 48.386896,20.7957033 C48.2794248,20.9031762 48.2256892,21.0354486 48.2256892,21.1925205 Z M60.0186003,0 C61.5066647,0 62.7880535,0.549757945 63.8627665,1.64927383 C64.929213,2.74052323 65.4624363,4.02604585 65.4624363,5.50584171 C65.4624363,6.95257158 64.9209461,8.22982771 63.8379657,9.3376101 C63.1258602,10.0390857 62.3454328,10.5150996 61.4966837,10.7656518 C62.2538126,10.881126 62.9513964,11.0919965 63.5899518,11.3960691 C64.937477,12.0822348 65.7311113,13.0618781 65.970855,14.3349988 L66.0700624,15.0418541 C66.0700624,15.6040139 65.9956591,16.0959021 65.8468524,16.5175188 C65.7063131,16.930869 65.4831036,17.2698165 65.1772237,17.5343612 C65.7063133,18.0717173 65.9708581,19.0885619 65.9708581,20.584895 C65.4913705,23.0815376 63.4990174,24.3298588 59.9937989,24.3298588 C57.009403,24.3298588 55.0707857,23.1642067 54.1779471,20.8329026 L54.09114,20.473291 C54.09114,19.514314 54.5954318,19.0348255 55.604009,19.0348255 C56.1661667,19.0348255 56.5795179,19.2993703 56.8440627,19.8284598 C57.1416756,20.5063591 57.5343593,20.9527795 58.0221139,21.167721 C58.2370563,21.2834604 58.5057346,21.3661296 58.8281487,21.4157286 C59.1588297,21.4653318 59.5473797,21.4901334 59.9937989,21.4901334 C61.8621467,21.4901334 62.9203259,21.02718 63.1683364,20.1012732 C63.1518034,19.8780652 63.0153975,19.6300555 62.7591188,19.3572442 C62.6268464,19.2167011 62.4904406,19.1050949 62.3499013,19.0224257 C62.2093619,18.9397565 62.0688224,18.8818868 61.9282827,18.8488166 C61.7464083,18.8488166 61.5686675,18.8529435 61.39506,18.8611973 L60.8742372,18.8611973 C59.9565973,18.9025509 59.4977774,18.4478641 59.4977774,17.4971366 C59.4977774,16.5381596 59.9483304,16.0586711 60.8494364,16.0586711 L61.9654844,16.0586711 C62.3375004,15.9842684 62.6392468,15.8685311 62.8707235,15.7114593 C63.1022002,15.5543831 63.2262057,15.3683743 63.2427399,15.1534327 L63.1807349,14.9426244 C63.0484625,14.463138 62.7177815,14.0911224 62.1886919,13.8265776 C61.6596023,13.5620328 60.9279704,13.4297604 59.9937963,13.4297604 C58.9934864,13.4297604 58.2990563,13.5082963 57.9105061,13.6653682 C57.4062177,13.8555103 57.0672697,14.2688626 56.8936623,14.9054251 L56.9060621,14.8682196 C56.7655228,15.6453209 56.31497,16.0338716 55.5544037,16.0338716 C54.661565,16.0338716 54.1738104,15.4965156 54.09114,14.4218034 C54.3556848,12.5451861 55.5585369,11.3588678 57.6996965,10.8628484 C57.932382,10.8151901 58.174099,10.7756125 58.4248474,10.7441157 C57.603308,10.4936066 56.8614284,10.0370027 56.1992348,9.37480933 C55.1410556,8.27529344 54.611966,6.98563757 54.611966,5.50584171 C54.611966,3.99297564 55.1327885,2.69505327 56.1744334,1.6120746 C57.2078118,0.537358201 58.4892008,0 60.0186003,0 Z M59.919396,7.53952664 C59.3985733,7.53952664 58.993489,7.63873094 58.704143,7.83713954 C59.0844263,8.07688484 59.5225788,8.1967575 60.0186003,8.1967575 C60.3975056,8.1967575 60.741965,8.12499531 61.0519782,7.98147094 L61.2338526,7.88674486 C60.9362397,7.70486926 60.4980875,7.58912985 59.919396,7.53952664 Z M57.4144871,5.67945082 C57.3235502,5.73732052 57.2408799,5.80345672 57.1664764,5.87785941 C57.0920732,5.94399561 57.0176701,6.01426506 56.943267,6.08866775 C56.9019341,6.12173374 56.8812658,6.16720158 56.8812658,6.22507128 C56.8729993,6.28292405 56.8812658,6.33252726 56.9060652,6.3738809 C57.0548719,6.62188847 57.1747437,6.69215792 57.2656807,6.58468924 C57.3566185,6.46894984 57.4062206,6.1672037 57.4144871,5.67945082 Z M60.0186003,2.77772034 C59.2663009,2.77772034 58.6421405,3.0464005 58.146119,3.58376082 C57.6583644,4.07978019 57.4144871,4.72047382 57.4144871,5.50584171 L57.4144871,5.67945082 C58.1006503,5.18342721 58.9149524,4.93541541 59.8573934,4.93541541 C60.1963413,4.93541541 60.5352892,4.97261676 60.8742372,5.04701945 C61.2049182,5.12142215 61.5149316,5.22475969 61.8042776,5.35703209 C61.977885,5.43970551 62.1349584,5.51824357 62.2754977,5.59264626 C62.4160375,5.66704896 62.5400429,5.74145165 62.6475141,5.81585435 L62.6475141,5.50584171 C62.6475141,4.78661002 62.3871028,4.15418289 61.8662801,3.60856031 C61.3371906,3.054667 60.7212973,2.77772034 60.0186003,2.77772034 Z M67.7813362,13.5909888 C67.7813362,13.1693721 67.8640065,12.7725549 68.029347,12.4005372 C68.1864206,12.0285238 68.4013632,11.7061114 68.6741749,11.4333001 C68.955254,11.1522181 69.2818015,10.9331411 69.6538175,10.7760692 C70.0258335,10.6107309 70.4226507,10.5280617 70.8442691,10.5280617 C71.2658875,10.5280617 71.6627047,10.6107309 72.0347207,10.7760692 C72.4067367,10.9331411 72.7291508,11.1522181 73.0019629,11.4333001 C73.2830415,11.7061114 73.5021176,12.0285238 73.6591912,12.4005372 C73.8245317,12.7725549 73.907202,13.1693721 73.907202,13.5909888 C73.907202,14.0126097 73.8245317,14.4094269 73.6591912,14.7814404 C73.5021176,15.1534581 73.2830415,15.4800058 73.0019629,15.7610836 C72.7291508,16.0338949 72.4067367,16.2529719 72.0347207,16.4183145 C71.6627047,16.5753864 71.2658875,16.6539223 70.8442691,16.6539223 C70.4226507,16.6539223 70.0258335,16.5753864 69.6538175,16.4183145 C69.2818015,16.2529719 68.955254,16.0338949 68.6741749,15.7610836 C68.4013632,15.4800058 68.1864206,15.1534581 68.029347,14.7814404 C67.8640065,14.4094269 67.7813362,14.0126097 67.7813362,13.5909888 Z M70.2862451,13.5909888 C70.2862451,13.7480649 70.3399807,13.8803373 70.4474519,13.987806 C70.5549231,14.0952789 70.6871955,14.1490154 70.8442691,14.1490154 C71.0013427,14.1490154 71.1336151,14.0952789 71.2410863,13.987806 C71.3485575,13.8803373 71.4022931,13.7480649 71.4022931,13.5909888 C71.4022931,13.4339169 71.3485575,13.3016445 71.2410863,13.1941716 C71.1336151,13.0867029 71.0013427,13.0329686 70.8442691,13.0329686 C70.6871955,13.0329686 70.5549231,13.0867029 70.4474519,13.1941716 C70.3399807,13.3016445 70.2862451,13.4339169 70.2862451,13.5909888 Z M67.8433394,21.1925205 C67.8433394,20.7709038 67.9260097,20.3740867 68.0913502,20.002069 C68.2484233,19.6300512 68.463366,19.3076368 68.7361781,19.0348255 C69.0172567,18.7537477 69.343804,18.5346728 69.7158201,18.377601 C70.0878365,18.2122583 70.4846537,18.129587 70.9062716,18.129587 C71.32789,18.129587 71.7247072,18.2122583 72.0967232,18.377601 C72.4687396,18.5346728 72.7911537,18.7537477 73.0639654,19.0348255 C73.3450441,19.3076368 73.5641202,19.6300512 73.7211937,20.002069 C73.8865342,20.3740867 73.9692045,20.7709038 73.9692045,21.1925205 C73.9692045,21.6141372 73.8865342,22.0109544 73.7211937,22.3829721 C73.5641202,22.7549898 73.3450441,23.0815376 73.0639654,23.3626153 C72.7911537,23.6354266 72.4687396,23.8503682 72.0967232,24.0074401 C71.7247072,24.1727827 71.32789,24.255454 70.9062716,24.255454 C70.4846537,24.255454 70.0878365,24.1727827 69.7158201,24.0074401 C69.343804,23.8503682 69.0172567,23.6354266 68.7361781,23.3626153 C68.463366,23.0815376 68.2484233,22.7549898 68.0913502,22.3829721 C67.9260097,22.0109544 67.8433394,21.6141372 67.8433394,21.1925205 Z M70.3482476,21.1925205 C70.3482476,21.3495924 70.4019832,21.4818648 70.5094544,21.5893377 C70.6169261,21.6968106 70.7491985,21.7505471 70.9062716,21.7505471 C71.0633452,21.7505471 71.1956176,21.6968106 71.3030888,21.5893377 C71.4105605,21.4818648 71.4642963,21.3495924 71.4642963,21.1925205 C71.4642963,21.0354486 71.4105605,20.9031762 71.3030888,20.7957033 C71.1956176,20.6882304 71.0633452,20.634494 70.9062716,20.634494 C70.7491985,20.634494 70.6169261,20.6882304 70.5094544,20.7957033 C70.4019832,20.9031762 70.3482476,21.0354486 70.3482476,21.1925205 Z M88.5646373,22.3085673 C89.1267929,22.9781958 89.4864087,23.3832816 89.6434848,23.5238247 C89.8005567,23.6643636 89.7468203,23.5114228 89.4822755,23.0650024 C89.3252036,22.949263 89.1722649,22.8293904 89.0234596,22.7053845 C88.8746499,22.5813786 88.7217092,22.4491062 88.5646373,22.3085673 L88.5646373,22.3085673 Z M100.295544,17.4723625 C100.295544,19.2993724 99.6135157,20.9073074 98.2494593,22.2961675 C96.8688656,23.6602282 95.2733282,24.3422586 93.4628471,24.3422586 C92.0078508,24.3422586 90.6809935,23.9165065 89.4822755,23.0650024 C89.3665361,22.8665938 89.2053288,22.6061823 88.9986537,22.2837678 C88.7919786,21.9613533 88.5398357,21.5769359 88.2422249,21.1305155 C88.2752824,21.2131889 88.2752824,21.2875937 88.2422249,21.3537299 C88.2091674,21.4115996 88.1802325,21.4653339 88.1554204,21.5149329 C88.1306166,21.5645361 88.0975485,21.6141393 88.0562161,21.6637425 L88.5646373,22.3085673 L88.5646373,22.2961866 C88.4902346,22.2052509 88.4075633,22.1101799 88.3166234,22.0109734 C88.2256877,21.9035048 88.134752,21.7919007 88.0438163,21.6761613 C87.8536742,21.9655056 87.6015292,22.2465834 87.2873812,22.5193947 C86.9814997,22.7839395 86.6053508,23.0484843 86.1589347,23.3130291 C85.1338215,23.9495916 83.9599029,24.2678728 82.6371789,24.2678728 C80.71923,24.2678728 79.0988936,23.577576 77.7761696,22.1969823 C76.4369113,20.8081221 75.7672822,19.1753855 75.7672822,17.2987725 C75.7672822,16.6952802 75.8416856,16.1000544 75.9904922,15.5130951 C76.1475658,14.9261358 76.3707754,14.347443 76.6601209,13.7770167 C76.9742681,13.1900574 77.3462843,12.6568346 77.7761696,12.1773482 C78.2060549,11.6978618 78.7062098,11.2638433 79.2766344,10.8752926 L79.9462638,10.7140832 C80.1529393,10.7140832 80.3472142,10.7554199 80.5290885,10.8380934 C80.7192302,10.9124961 80.8804372,11.0158336 81.0127096,11.148106 C81.144982,11.2721119 81.2483198,11.4250505 81.3227229,11.6069219 C81.4053934,11.780531 81.4467286,11.9665399 81.4467286,12.1649485 C81.4467286,12.6692386 81.2152519,13.053656 80.7522985,13.3182008 L80.7646983,13.3182008 C80.4340173,13.5331424 80.1364044,13.7852853 79.8718596,14.0746296 C79.6155817,14.3639781 79.3923721,14.6987924 79.2022309,15.0790723 C79.0120892,15.4593565 78.8715497,15.8355075 78.7806123,16.2075252 C78.6896749,16.5712722 78.6442062,16.9350213 78.6442062,17.2987725 C78.6442062,18.4313543 79.0327565,19.4109955 79.8098571,20.2376958 L79.7974573,20.2376958 C80.5745574,21.0561339 81.5211313,21.465353 82.6371789,21.465353 C83.7118911,21.465353 84.6501997,21.072669 85.4521048,20.2873011 C86.2457392,19.5101998 86.6425564,18.584293 86.6425564,17.5095808 L86.6425564,17.2987725 C86.6425564,16.3397955 86.4565476,15.5420278 86.0845299,14.9054696 C85.943991,14.6491913 85.7455824,14.3805132 85.4893041,14.0994354 C85.2412923,13.8183534 84.9312796,13.529007 84.5592662,13.2313963 C84.2368517,12.8345791 84.0756444,12.4790965 84.0756444,12.1649485 C84.0756444,11.9830729 84.1087125,11.8053326 84.1748487,11.6317277 C84.2409849,11.4498521 84.336056,11.2927781 84.4600619,11.1605057 C84.5923342,11.0282333 84.7494061,10.9207625 84.9312775,10.8380934 C85.1131531,10.7554199 85.315695,10.7140832 85.538903,10.7140832 L86.0721301,10.8628928 C86.6425522,11.2018403 87.1385737,11.5821224 87.5601946,12.0037391 C87.9818113,12.4170935 88.3290252,12.8883155 88.6018365,13.4174051 C88.8746478,13.9382282 89.0771897,14.5210521 89.2094621,15.1658769 C89.3500052,15.8107059 89.4202767,16.5216711 89.4202767,17.2987725 C89.4202767,17.8278621 89.519481,18.3610849 89.7178896,18.898441 C89.9162982,19.4275306 90.2139111,19.8780842 90.6107283,20.2501019 C91.0075455,20.6717186 91.4539638,20.9858645 91.9499832,21.1925396 C92.4542733,21.3992147 92.9585613,21.5025522 93.4628471,21.5025522 C94.5210263,21.5025522 95.4634682,21.0974685 96.2901728,20.2873011 C96.6456533,19.9483537 96.9225978,19.5267349 97.1210064,19.0224448 C97.3276815,18.5181589 97.431019,18.0014712 97.431019,17.4723816 C97.431019,16.3480662 97.0424705,15.4138908 96.2653733,14.6698554 C95.8685561,14.2482387 95.3973341,13.9382261 94.8517073,13.7398175 C94.3143512,13.5331424 93.7356605,13.4298048 93.1156353,13.4298048 L92.545209,13.5042097 C92.0161194,13.5042097 91.6027692,13.3802038 91.3051584,13.132192 C91.0075434,12.8759137 90.8587359,12.5410994 90.8587359,12.1277492 C90.8587359,11.4415835 91.0736796,11.0282312 91.503567,10.8876923 C91.6854384,10.8298226 91.8425103,10.7843548 91.9747827,10.7512888 C92.1153216,10.7182313 92.2393275,10.6934297 92.3468004,10.676884 C92.4625398,10.6603341 92.5617441,10.6479322 92.6444133,10.6396784 C92.7270824,10.6231285 92.8014851,10.6148535 92.8676213,10.6148535 C95.0914526,10.6148535 96.8853986,11.2968839 98.2494593,12.6609446 C99.6135157,14.0415382 100.295544,15.6453421 100.295544,17.4723562 L100.295544,17.4723625 Z M100.369949,14.0994164 C100.345145,14.0580628 100.332743,14.0125928 100.332743,13.9630065 C100.332743,13.9134033 100.349272,13.8679355 100.382329,13.826603 C101.010625,13.0164356 101.74639,12.3261388 102.589623,11.7557125 L102.589623,11.7680932 C103.689139,11.0157955 104.941594,10.6396467 106.346987,10.6396467 C108.636955,10.6396467 110.4557,11.6110213 111.803223,13.5537705 C112.654728,14.8020918 113.08048,16.0958809 113.08048,17.4351379 C113.08048,19.8904437 112.09257,21.7629257 110.11675,23.0525837 C108.769227,23.9288872 107.405168,24.367039 106.024575,24.367039 C105.503752,24.367039 104.937461,24.2843698 104.325702,24.1190314 L103.891679,23.9702218 L103.432863,23.7222143 C102.730165,23.4990019 102.378815,23.0319132 102.378815,22.320948 C102.378815,22.1638761 102.411883,22.0150707 102.478019,21.8745318 C102.552422,21.7257264 102.65576,21.5769189 102.788032,21.4281093 C103.052577,21.1139655 103.379125,20.9568937 103.767675,20.9568937 C103.924751,20.9568937 104.057024,20.9734224 104.164493,21.0064799 C104.271965,21.0312836 104.362903,21.068485 104.437306,21.118084 L105.317745,21.4653022 L105.305364,21.4653022 C105.3715,21.4818521 105.458303,21.494254 105.565771,21.5025078 C105.681511,21.5107616 105.826185,21.5148885 105.999794,21.5148885 C107.12411,21.5148885 108.107884,21.1180713 108.951117,20.3244369 L108.951117,20.3368176 C109.794355,19.5349167 110.215974,18.5676753 110.215974,17.4350935 C110.215974,16.9969438 110.153971,16.5794604 110.029965,16.1826432 C109.905959,15.785826 109.736485,15.4179415 109.521544,15.0789898 C109.372738,14.8640482 109.178463,14.6615064 108.938718,14.4713643 C108.707243,14.2729557 108.434432,14.1034819 108.120284,13.962943 C107.516791,13.6570658 106.917432,13.5041271 106.322207,13.5041271 C105.520306,13.5041271 104.730805,13.7356038 103.953703,14.1985572 L103.978528,14.1861765 C103.416373,14.6243304 102.953419,15.1286205 102.589668,15.6990468 L102.143252,16.3562713 C102.093649,16.4389447 102.027512,16.4802815 101.944843,16.4802815 C101.853903,16.4720277 101.783634,16.4306909 101.734035,16.3562713 L100.369949,14.0994164 Z M113.812128,13.5909888 C113.812128,13.1693721 113.894799,12.7725549 114.060142,12.4005372 C114.217214,12.0285238 114.432155,11.7061114 114.704967,11.4333001 C114.986049,11.1522181 115.312596,10.9331411 115.68461,10.7760692 C116.056628,10.6107309 116.453445,10.5280617 116.875061,10.5280617 C117.296682,10.5280617 117.6935,10.6107309 118.065513,10.7760692 C118.437531,10.9331411 118.759945,11.1522181 119.032757,11.4333001 C119.313834,11.7061114 119.532911,12.0285238 119.689987,12.4005372 C119.855326,12.7725549 119.937995,13.1693721 119.937995,13.5909888 C119.937995,14.0126097 119.855326,14.4094269 119.689987,14.7814404 C119.532911,15.1534581 119.313834,15.4800058 119.032757,15.7610836 C118.759945,16.0338949 118.437531,16.2529719 118.065513,16.4183145 C117.6935,16.5753864 117.296682,16.6539223 116.875061,16.6539223 C116.453445,16.6539223 116.056628,16.5753864 115.68461,16.4183145 C115.312596,16.2529719 114.986049,16.0338949 114.704967,15.7610836 C114.432155,15.4800058 114.217214,15.1534581 114.060142,14.7814404 C113.894799,14.4094269 113.812128,14.0126097 113.812128,13.5909888 Z M116.317041,13.5909888 C116.317041,13.7480649 116.370776,13.8803373 116.478244,13.987806 C116.585717,14.0952789 116.71799,14.1490154 116.875061,14.1490154 C117.032138,14.1490154 117.16441,14.0952789 117.271879,13.987806 C117.379352,13.8803373 117.433088,13.7480649 117.433088,13.5909888 C117.433088,13.4339169 117.379352,13.3016445 117.271879,13.1941716 C117.16441,13.0867029 117.032138,13.0329686 116.875061,13.0329686 C116.71799,13.0329686 116.585717,13.0867029 116.478244,13.1941716 C116.370776,13.3016445 116.317041,13.4339169 116.317041,13.5909888 Z M113.874133,21.1925205 C113.874133,20.7709038 113.956804,20.3740867 114.122147,20.002069 C114.279219,19.6300512 114.49416,19.3076368 114.766972,19.0348255 C115.048049,18.7537477 115.374597,18.5346728 115.746615,18.377601 C116.118633,18.2122583 116.51545,18.129587 116.937067,18.129587 C117.358683,18.129587 117.7555,18.2122583 118.127518,18.377601 C118.499536,18.5346728 118.82195,18.7537477 119.094762,19.0348255 C119.375839,19.3076368 119.594914,19.6300512 119.751986,20.002069 C119.917329,20.3740867 120,20.7709038 120,21.1925205 C120,21.6141372 119.917329,22.0109544 119.751986,22.3829721 C119.594914,22.7549898 119.375839,23.0815376 119.094762,23.3626153 C118.82195,23.6354266 118.499536,23.8503682 118.127518,24.0074401 C117.7555,24.1727827 117.358683,24.255454 116.937067,24.255454 C116.51545,24.255454 116.118633,24.1727827 115.746615,24.0074401 C115.374597,23.8503682 115.048049,23.6354266 114.766972,23.3626153 C114.49416,23.0815376 114.279219,22.7549898 114.122147,22.3829721 C113.956804,22.0109544 113.874133,21.6141372 113.874133,21.1925205 Z M116.37904,21.1925205 C116.37904,21.3495924 116.432776,21.4818648 116.540249,21.5893377 C116.647722,21.6968106 116.779995,21.7505471 116.937067,21.7505471 C117.094138,21.7505471 117.226411,21.6968106 117.333884,21.5893377 C117.441357,21.4818648 117.495093,21.3495924 117.495093,21.1925205 C117.495093,21.0354486 117.441357,20.9031762 117.333884,20.7957033 C117.226411,20.6882304 117.094138,20.634494 116.937067,20.634494 C116.779995,20.634494 116.647722,20.6882304 116.540249,20.7957033 C116.432776,20.9031762 116.37904,21.0354486 116.37904,21.1925205 Z" id="wikipedia-wordmark-blk" fill="#000000" fill-rule="nonzero"></path>
    </g>
</svg>