<svg xmlns="http://www.w3.org/2000/svg" width="120" height="41.722" viewBox="0 0 31.75 11.039"><path d="M15.044 9.69c-.551-.237-.63-.394-.945.315.157.157.473.472.709.315.157-.158.236-.394.394-.473.236 0 .394.236.63.315.158-.079.394-.236.315-.473-.63-.787-.551-.551-1.103 0M23.317 9.61c-.08-.236-.315-.55-.552-.472-.157.079-.236.236-.315.394-.236.079-.394-.473-.63-.236-.158.157-.315.315-.315.472.078.237.315.237.472.394.158 0 .237-.157.237-.236.157-.237.236-.315.472-.079.316.315.552.158.63-.236M5.354 9.61c-.08.08-.158.237-.237.316-.236-.079-.315-.315-.551-.394-.158 0-.473.473-.394.63.394.394.788.394.945-.236.394.315.946.551.946-.158-.237-.157-.63-.709-.71-.157M18.432 9.217c-.158-.08-.315.394-.394.551.079.158.394.394.552.315.394-.315.236-.63-.158-.866M30.25 7.01c.315.552.945.237 1.182-.236.236.394-.394 1.103-.552 1.419-.788.945-2.048 1.339-3.23 1.181a6 6 0 0 0-.577-.045c-.028.117.15.136.498.282.302.066 1.89.394 2.758-.158.787-.63 1.339-1.733 1.418-2.757-.315-2.364-2.127-1.497-1.497.315m.866-.55c-.157.236-.787.157-.709-.158.08-.315.394-.552.552-.237.079.08.315.237.157.394M1.493 8.271C.784 7.956.548 7.247.47 6.538.311 5.356.311 4.096-.004 2.993c0-.71.237-.946.473-.08l.236 2.6c0 1.577.71 2.364 2.364 2.364 1.26 0 2.6-.078 3.86-.63-.157-.236-.315-.551-.472-.709s-.315-.315-.237-.551c.315-1.182 1.182.945.867 1.418-.158.157-.158.472-.394.551-1.024.315-2.127.473-3.151.552h.078c-.709.078-1.496-.08-2.127-.237"/><path d="M28.91 6.302c-.157-.158-.551-.552-.472-.08-.158.395-.08.474.236.71.158.158.236.394-.079.551-1.181.473-2.363.158-3.151-.866-.71-.71-1.497-1.34-2.285-1.812-.236-.237-.709-.394-.866-.63.078-.473.63-.71 1.024-.946 1.024-.709 2.048-1.182 3.151-1.733.552-.394 1.34-.473 1.733-.946.08-.157.237-.394.08-.551-1.261.63-2.6 1.26-3.861 1.89-.867.552-2.206.946-2.285 2.128-.315.867.788 1.418 1.26 1.89.237.316 1.261 1.104 1.025 1.576a2.8 2.8 0 0 1-.867.158c-.158-.079-.394-.315-.551-.315h-.08c-1.417.709-4.096 1.182-4.49-1.024-.079-.552-.236-.946-.315-.08 0 .316.079.71.157.946-.078.63-1.103.788-1.418.394 0-.157.394-.788.08-.709-.868 1.418-2.995 1.655-4.57 1.26-.946-.157-1.497-1.023-1.734-2.363-.078-.315-.157-.788-.236-1.103s-.158-.473-.315-.079.079.788.157 1.182.237.867.237 1.26c-.473.552-1.812 1.025-2.364.473 0-.078-.079-.236-.157-.078-.473 1.26 1.181 1.024 1.89.709.237-.158.473-.237.63-.552.08 0 .158-.394.237-.157.158.866.71 1.26 1.34 1.339 1.496.473 3.624 0 4.569-.788.867.63 1.34.63 1.733-.394.71 1.576 3.073 1.103 4.255.394.236 0 .394.079.63.158.157.079.315.157.394.236h.157c.788.079 1.182-.709.788-1.812.946.71 1.655 2.127 2.994 1.89.473-.157 1.024-.078 1.34-.55.236-.395.236-1.104 0-1.576M28.832 10.24c-.71-.708-.473-.235-.946.08-.63-.237-.551-.473-.866.315 0 .236.315.236.472.394.158.079.315-.394.394-.473.237-.079.473.394.71.236.078-.157.314-.315.236-.551"/></svg>