<?xml version="1.0" encoding="UTF-8"?>
<svg xmlns="http://www.w3.org/2000/svg" width="119" height="20" viewBox="0 0 119 20">
	<title>
		ja-wordmark
	</title>
	<g id="Page-1" fill="none" fill-rule="evenodd" stroke="none" stroke-width="1">
		<path id="ja-wordmark" fill="#000" fill-rule="nonzero" d="M23.4217508,5.39708455 C23.9232233,5.39708455 24.3426184,5.49817979 24.6799361,5.69836839 C25.016253,5.89955793 25.3715877,6.12176727 25.7439385,6.36499641 C26.1162893,6.6092265 26.2704345,6.80340944 26.2063742,6.94554334 C26.1423138,7.08967913 25.9841649,7.18576966 25.7329282,7.23581681 C25.4816915,7.2868649 25.2744963,7.3939658 25.1093407,7.55812044 C24.9441851,7.72327604 24.6539116,8.0415759 24.2385203,8.51502193 C23.822128,8.98846796 23.3847159,9.4178725 22.926284,9.80523744 C22.4678522,10.1926024 22.1665683,10.4438391 22.0234335,10.5579466 C22.6260012,10.7591361 22.9873416,10.9232907 23.1094566,11.0524124 C23.2315717,11.181534 23.2746122,11.2886349 23.2385783,11.374716 C23.2025443,11.4607971 23.1164632,11.5218546 22.980335,11.5578886 C22.8442067,11.5939225 22.7441124,11.8271423 22.6790511,12.2565468 C22.6139898,12.6859513 22.5819597,13.2785096 22.5819597,14.0302178 C22.5819597,14.7819259 22.5749531,15.5996963 22.5609399,16.4815271 C22.5459257,17.3633579 22.5499295,17.9118746 22.5719502,18.1270774 C22.593971,18.3422801 22.59297,18.6465668 22.5719502,19.0409383 C22.5509304,19.4353098 22.4248116,19.6064711 22.1955957,19.5574249 C21.9663797,19.5063768 21.7902138,19.3962731 21.6690997,19.2241109 C21.5469846,19.0519487 21.4328771,18.8477563 21.3247753,18.6115338 C21.2166734,18.3753112 21.1916499,18.1881349 21.2497046,18.0520067 C21.3067583,17.9148775 21.346796,17.7587304 21.3678158,17.5785606 C21.3888356,17.3993918 21.4358799,16.9870033 21.5079478,16.342396 C21.5790148,15.6967878 21.6220553,14.7508967 21.6370695,13.5037217 C21.6510827,12.2565468 21.5730091,11.4387764 21.4008469,11.0524124 C20.9704415,11.3827236 20.4549558,11.7550744 19.8523882,12.1704657 C19.2498205,12.586858 18.4941085,13.0272729 17.5832504,13.4927114 C16.6723923,13.9591508 15.7084842,14.3565252 14.6905252,14.6858354 C14.5463894,14.6427949 14.5113564,14.5647213 14.5834243,14.4496129 C15.5433286,13.991181 16.4291632,13.5107283 17.238926,13.0092559 C18.0486889,12.5077835 18.7873848,11.9983035 19.4540128,11.4828179 C20.1206409,10.9673322 20.7902717,10.3827815 21.4649073,9.73016671 C22.1385419,9.07855283 22.6650379,8.46897856 23.0453963,7.90244483 C23.4247537,7.33691205 23.6619771,6.95655371 23.7550648,6.76237078 C23.8481525,6.56918878 23.8621657,6.36199358 23.7981054,6.1387833 C23.734045,5.9175749 23.5578791,5.79245703 23.2716094,5.76242874 C23.084433,5.57625334 23.1354811,5.4541383 23.4217508,5.39708455 Z M96.0902112,5.39708455 C96.5916836,5.39708455 97.0110787,5.49817979 97.3483965,5.69836839 C97.6847134,5.89955793 98.0400481,6.12176727 98.4123989,6.36499641 C98.7847497,6.6092265 98.9388949,6.80340944 98.8748346,6.94554334 C98.8107742,7.08967913 98.6516243,7.18576966 98.4013885,7.23581681 C98.1501519,7.2868649 97.9419557,7.3939658 97.7778011,7.55812044 C97.6126455,7.72327604 97.322372,8.0415759 96.9069807,8.51502193 C96.4915893,8.98846796 96.0531763,9.4178725 95.5947444,9.80523744 C95.1363125,10.1926024 94.8350287,10.4438391 94.6918939,10.5579466 C95.2944615,10.7591361 95.6558019,10.9232907 95.777917,11.0524124 C95.8990311,11.181534 95.9420716,11.2886349 95.9070386,11.374716 C95.8710047,11.4607971 95.7849236,11.5218546 95.6487953,11.5578886 C95.5116662,11.5939225 95.4125728,11.8271423 95.3475115,12.2565468 C95.2824502,12.6859513 95.25042,13.2785096 95.25042,14.0302178 C95.25042,14.7819259 95.2434134,15.5996963 95.2294002,16.4815271 C95.215387,17.3633579 95.2183899,17.9118746 95.2404106,18.1270774 C95.2624314,18.3422801 95.2614304,18.6465668 95.2404106,19.0409383 C95.2193908,19.4353098 95.0942729,19.6064711 94.864056,19.5574249 C94.6348401,19.5063768 94.4586741,19.3962731 94.33756,19.2241109 C94.215445,19.0519487 94.1013375,18.8477563 93.9932357,18.6115338 C93.8851338,18.3753112 93.8601102,18.1881349 93.9181649,18.0520067 C93.9762196,17.9148775 94.0152564,17.7587304 94.0362762,17.5785606 C94.057296,17.3993918 94.1043403,16.9870033 94.1764082,16.342396 C94.2484761,15.6977888 94.2905157,14.7508967 94.3055299,13.5037217 C94.320544,12.2565468 94.2414695,11.4387764 94.0693073,11.0524124 C93.6389018,11.3827236 93.1234162,11.7550744 92.5208485,12.1704657 C91.9182809,12.586858 91.1625689,13.0272729 90.2517108,13.4927114 C89.3408527,13.9591508 88.3769446,14.3565252 87.3589856,14.6858354 C87.2148498,14.6427949 87.1798168,14.5647213 87.2518847,14.4496129 C88.2127899,13.991181 89.0976235,13.5107283 89.9073864,13.0092559 C90.7171493,12.5077835 91.4558452,11.9983035 92.1224732,11.4828179 C92.7891012,10.9673322 93.459733,10.3827815 94.1333677,9.73016671 C94.8070023,9.07855283 95.3334983,8.46897856 95.7138566,7.90244483 C96.093214,7.33691205 96.3294366,6.95655371 96.4235252,6.76237078 C96.5166129,6.56918878 96.5306261,6.36199358 96.4665658,6.1387833 C96.4025054,5.9175749 96.2263394,5.79245703 95.9400697,5.76242874 C95.7528934,5.57625334 95.8039415,5.4541383 96.0902112,5.39708455 Z M34.8094791,1.06400239 C35.3399789,1.17110329 35.8204315,1.26519193 36.2498361,1.34326548 C36.6802415,1.42233998 36.9094575,1.54045125 36.9384848,1.69759929 C36.9665112,1.85574829 36.8884377,2.01690011 36.7022623,2.18105475 C36.5150859,2.34621035 36.4370124,2.60445363 36.4660397,2.95478368 C36.4940661,3.30711561 36.6452085,4.12688791 36.917465,5.41710341 C39.0825047,4.93064512 40.3326825,4.61835091 40.6700003,4.48122172 C41.0063171,4.34509348 41.25355,4.24499918 41.411699,4.17993789 C41.5688471,4.11587754 41.76303,4.10186433 41.9922459,4.13689734 C42.2214619,4.17293129 42.5187419,4.31706707 42.8850871,4.56730282 C43.2504313,4.81853951 43.4296001,5.0117215 43.4225935,5.14784975 C43.4155869,5.28497894 43.1102992,5.34503552 42.5087325,5.33102231 C41.9061648,5.31700911 41.1754765,5.37406286 40.3156664,5.50318451 C39.4558564,5.63230615 38.7632039,5.74741459 38.2407116,5.84750889 C37.7172185,5.94860413 37.3198441,6.02767863 37.0475876,6.08373143 C37.3768979,7.57513648 37.7572562,9.11558772 38.1876617,10.7070871 C41.0693765,10.1625741 42.6999126,9.76820255 43.080271,9.52397246 C43.4596283,9.28074331 43.7428952,9.1406113 43.9300715,9.10457735 C44.1162469,9.06954435 44.449561,9.1406113 44.9300136,9.31978009 C45.4094653,9.49994983 45.7257633,9.66410448 45.8759047,9.81424592 C46.0260461,9.96438737 46.098114,10.1015166 46.0911074,10.2226307 C46.0841008,10.3447457 45.6857255,10.4058032 44.8979834,10.4058032 C44.1092403,10.4058032 42.991187,10.5169079 41.5428225,10.7391172 C40.094458,10.9623275 39.0264519,11.1444991 38.3388041,11.287634 C38.8402765,13.0803229 39.2276414,14.4275921 39.4998979,15.3304427 C39.7721544,16.2332933 39.9873571,16.886909 40.1455061,17.2872862 C40.3026542,17.6886643 40.4037494,18.0680217 40.44679,18.4273603 C40.4898305,18.7846969 40.4678098,19.0359336 40.3827296,19.1800694 C40.2966485,19.3232042 40.1425033,19.363242 39.920294,19.2981807 C39.6980846,19.2341203 39.4328347,19.0719675 39.1245443,18.8147252 C38.8162539,18.5564819 38.6410888,18.3312697 38.5980483,18.1370868 C38.5550077,17.9429039 38.5079634,17.6856615 38.4579163,17.3633579 C38.4078691,17.0410542 38.2857541,16.4104602 38.0925721,15.4705747 C37.8993901,14.5316902 37.6151223,13.2234577 37.2427715,11.5458773 C36.7983528,11.6749989 36.2248125,11.8721847 35.5221505,12.1374346 C34.8194885,12.4036854 34.1208303,12.6789447 33.425175,12.9652144 C32.7295196,13.2524851 32.3031179,13.4486699 32.1459698,13.5567717 C31.9878208,13.6638726 31.844686,13.7259311 31.7155644,13.7399443 C31.5864427,13.7549584 31.3782466,13.7119179 31.0919769,13.6108226 C30.8047062,13.5107283 30.5504667,13.3395671 30.3282574,13.0943361 C30.106048,12.8511069 29.8838387,12.5998702 29.6616294,12.3416269 C29.43942,12.0833837 29.3643493,11.6960187 29.4354162,11.1805331 C29.6215916,10.9653303 29.7647265,10.9943577 29.8658217,11.2666142 C29.7937538,11.6109386 29.9699198,11.8902017 30.3923177,12.1054044 C30.8147157,12.3206071 31.5033644,12.3346203 32.4572631,12.148445 C33.4101608,11.9622696 34.3280255,11.744064 35.2098563,11.4928273 C36.0916871,11.2425916 36.7262849,11.0664256 37.1126489,10.9663313 C36.7392972,9.37483195 36.3599398,7.83438071 35.9725749,6.34297567 C35.7713853,6.40103036 35.409044,6.50112466 34.8865517,6.6442595 C34.3630585,6.78839529 33.8075352,6.95655371 33.2199817,7.14973571 C32.6324281,7.3429177 32.2050255,7.46903652 31.9407765,7.52609027 C31.6755266,7.58414496 31.3812494,7.54110441 31.0589458,7.39696862 C30.7366421,7.25383378 30.4743951,7.09268196 30.2742065,6.91351317 C30.0730169,6.73434437 29.8728283,6.40103036 29.6716388,5.91357113 C29.6996652,5.56924674 29.8508076,5.53421374 30.1230641,5.80647023 C30.2802121,6.17982196 30.5885026,6.4020313 31.0479354,6.47309825 C31.5063673,6.54516615 32.2991141,6.45207845 33.424174,6.19383516 C34.5492339,5.93559187 35.3339732,5.75642308 35.7793929,5.65632878 C35.4350685,4.33808688 35.1838318,3.43823914 35.0266837,2.95778651 C34.8685347,2.47833482 34.6463254,2.10198026 34.3600557,1.82872283 C34.0727851,1.55746728 33.7434748,1.46337864 33.371124,1.54945973 C33.19696,1.40532394 33.19696,1.26118816 33.3691222,1.11805331 C33.7995276,0.974918463 34.2789793,0.956901489 34.8094791,1.06400239 Z M117.251147,2.72256491 C117.646519,2.95878745 117.981835,3.20602037 118.262099,3.46426366 C118.542363,3.72250694 118.749558,3.90467857 118.885687,4.01278041 C119.022816,4.11988131 119.035828,4.2570105 118.928727,4.42116514 C118.821626,4.58632074 118.617434,4.66539523 118.317151,4.65738769 C118.015867,4.65038109 117.736604,4.77249613 117.478361,5.02273188 C117.220118,5.27396856 116.688617,5.74040799 115.886861,6.42004828 C115.083104,7.10169045 114.194267,7.7783279 113.220349,8.45196253 C112.24443,9.12659809 111.38462,9.66410448 110.639918,10.0644817 C110.537822,10.7391172 110.356651,11.5088424 110.090401,12.37666 C109.825151,13.2444775 109.448796,14.1072904 108.962338,14.9681013 C108.473878,15.8279113 107.914351,16.5736139 107.284757,17.2042079 C106.653162,17.835803 105.771332,18.50143 104.639265,19.204092 C104.294941,19.3902674 104.222873,19.3181995 104.424062,18.9888893 C105.354939,18.2001462 106.101643,17.4914786 106.660169,16.8598836 C107.219696,16.2292895 107.692141,15.5046068 108.079506,14.6878373 C108.466871,13.8710678 108.768155,13.0182644 108.982357,12.1284261 C109.19756,11.2395887 109.343697,10.357758 109.421771,9.4829338 C109.500845,8.60911057 109.464811,8.0135495 109.31467,7.69825246 C109.164528,7.38395637 108.832215,7.16875363 108.315729,7.05264424 C108.145568,6.91051034 108.172594,6.79540189 108.403812,6.7093208 C109.277635,6.83844244 109.97329,7.08967913 110.489777,7.46202992 C111.006263,7.83538165 111.263506,8.10063154 111.263506,8.25777959 C111.263506,8.41592858 111.195442,8.5700738 111.058313,8.72021524 C110.922184,8.87035669 110.812081,9.1756443 110.725999,9.63407619 C111.242486,9.23369899 111.872079,8.70920487 112.618783,8.06459759 C113.363484,7.41898937 114.087166,6.70331514 114.790829,5.91457207 C115.49249,5.12682995 115.914888,4.57831319 116.060025,4.26902181 C116.203159,3.96073137 116.263216,3.78556635 116.242196,3.7425258 C116.221176,3.69948526 115.854831,3.67145885 115.145163,3.65644471 C114.435494,3.64243151 113.399518,3.71850317 112.038236,3.88265782 C110.675952,4.04781341 109.453801,4.25901238 108.370781,4.51725567 C107.288761,4.77549896 106.521038,5.0117215 106.069613,5.22692424 C105.618187,5.44212698 105.309897,5.62429861 105.144741,5.775441 C104.980587,5.92558244 104.804421,6.01166354 104.619246,6.03368429 C104.431069,6.05470409 104.263912,6.00565788 104.112769,5.88354284 C103.962628,5.76242874 103.776452,5.64431747 103.553242,5.52920902 C103.331033,5.41510152 103.040759,5.18888841 102.683423,4.85157063 C102.324084,4.51525378 102.065841,3.93770968 101.909694,3.12094021 C101.966747,2.90573747 102.081856,2.87771107 102.254018,3.03485912 C102.525274,3.4652646 102.816548,3.76554749 103.123838,3.93770968 C103.433129,4.10987188 103.772449,4.20396052 104.1458,4.21697278 C104.51715,4.23198692 104.96257,4.20996618 105.479056,4.15291243 C105.995543,4.09585868 106.944437,3.9777474 108.32774,3.79857861 C109.712044,3.61940982 110.805074,3.47627497 111.60783,3.36817313 C112.409586,3.26107223 113.363484,3.16097793 114.467524,3.06688929 C115.570563,2.97380159 116.162121,2.88371673 116.240194,2.79763563 C116.319269,2.71155453 116.408353,2.61846684 116.510449,2.51837254 C116.610543,2.41827824 116.857776,2.48634236 117.251147,2.72256491 Z M5.13151974,1.00995147 C5.84819492,1.08201936 6.37168809,1.1971278 6.70099834,1.35427585 C7.03030858,1.51242484 7.34660656,1.64154649 7.64688945,1.74164079 C7.94817329,1.84273603 8.10231851,1.9678539 8.10932511,2.11799535 C8.11633171,2.26813679 8.03025061,2.39725844 7.85108182,2.50536028 C7.67191303,2.61246118 7.55680458,2.77761677 7.50675743,2.99982611 C7.45671029,3.2230364 7.40966597,4.0638285 7.36662542,5.52620619 C8.94311061,5.29699025 10.1582554,5.14684881 11.0120598,5.07478091 C11.8648632,5.00371396 12.3272988,4.88860552 12.3993667,4.73045653 C12.4704337,4.57330848 12.5785355,4.47221324 12.7216704,4.42917269 C12.8648052,4.38613214 13.1300551,4.51225096 13.51742,4.80552725 C13.904785,5.09980448 14.273132,5.36205155 14.624463,5.59026655 C14.975794,5.81948249 15.0899015,6.02067203 14.9687874,6.19283422 C14.8466723,6.36499641 14.6604969,6.48310768 14.4092602,6.54716803 C14.1580235,6.61122839 13.974851,6.78038775 13.8607435,7.05264424 C13.745635,7.32490073 13.5634634,7.9274684 13.3122267,8.85934632 C13.06099,9.79222518 12.6455987,10.8201936 12.0650518,11.9452535 C11.4845048,13.0713144 10.6847514,14.1643441 9.66679239,15.2243427 C8.64883337,16.2863432 7.59484042,17.1241325 6.50581445,17.7407134 C5.41578755,18.3562933 4.38381534,18.8227327 3.40889687,19.1380298 C3.19369413,19.0949892 3.15065358,18.993894 3.27977523,18.8367459 C4.11155884,18.4353678 5.02541979,17.9088718 6.02135805,17.256257 C7.01729632,16.6046431 7.9601846,15.7618491 8.84902197,14.7298769 C9.73785934,13.6979047 10.4225043,12.6439117 10.902957,11.568899 C11.3824087,10.4938862 11.7347406,9.44389702 11.9569499,8.41893141 C12.1791593,7.39496674 12.3042771,6.45107751 12.3333045,5.59126749 C10.8128721,5.64932218 9.18934258,5.810474 7.46271594,6.07472295 C5.73508836,6.34097378 4.49492001,6.56918878 3.74221089,6.76337172 C2.98950176,6.95755466 2.5060463,7.06865933 2.29084356,7.09668573 C2.11868137,7.34091582 2.0215899,7.83838448 2.0005701,8.5910936 C1.9795503,9.34380272 1.97154275,10.0294487 1.9795503,10.6450286 C1.9865569,11.2616095 2.0075767,11.7030253 2.04361065,11.9672743 C2.07964459,12.2335251 2.0075767,12.4907675 1.82840791,12.7410032 C1.64923911,12.9922399 1.39800243,12.9852333 1.07569879,12.7199834 C0.753395146,12.4547335 0.620269729,12.1324299 0.678324422,11.7520715 C0.735378172,11.3727141 0.785425321,10.9993624 0.828465869,10.6340182 C0.871506417,10.268674 0.878513018,9.68112051 0.849485672,8.87035669 C0.820458325,8.06059382 0.806445124,7.56913082 0.806445124,7.39696862 C0.806445124,7.22480643 0.78842815,7.02061406 0.752394203,6.78439152 C0.716360256,6.54816898 0.645293304,6.30493983 0.537191462,6.05370315 C0.430090563,5.8034674 0.260931199,5.61328823 0.0317152569,5.48416659 C-0.0403526376,5.3120044 0.0106954544,5.1978969 0.181856704,5.1398422 C0.583234839,5.25495065 0.927559224,5.39508266 1.21382892,5.55923731 C1.50009861,5.7243929 1.82240225,5.90756547 2.18174078,6.10775407 C3.58606378,6.00765977 4.94134058,5.86452492 6.24657022,5.67734858 C6.27459663,3.8426201 6.19652307,2.69253662 6.01034768,2.22609719 C5.82317134,1.7606587 5.5008677,1.48439844 5.04243582,1.39831734 C4.90130286,1.26819476 4.9303302,1.13907311 5.13151974,1.00995147 Z M86.9285801,7.74129301 C87.2729045,8.02856365 87.2148498,8.22875224 86.7564179,8.34386068 C85.982689,8.34386068 85.1719252,8.29781731 84.3261283,8.20372867 C83.4803315,8.11064097 82.7496432,8.07861079 82.1330623,8.1066372 C81.5164814,8.13566454 80.7777855,8.20072584 79.9179755,8.29981919 C79.0581654,8.40091443 78.4986383,8.47198139 78.240395,8.51502193 C78.3695167,8.55806248 78.5306685,8.63013038 78.7238505,8.73022467 C78.9170325,8.83131992 79.1322352,8.96644722 79.3694587,9.13860941 C79.6066822,9.3107716 79.803868,9.46091305 79.961016,9.59003469 C80.1181641,9.71915634 80.1441886,9.85228176 80.0360867,9.98740906 C79.9289858,10.1245382 79.7958604,10.199609 79.6387124,10.2136222 C79.4815643,10.2286363 79.3234153,10.514906 79.1652663,11.0734322 C79.0071174,11.6319584 78.7568816,12.3496345 78.4125572,13.2234577 C78.0682328,14.0982819 77.5527472,14.9440787 76.8640984,15.7608482 C76.1754497,16.5776176 75.4377547,17.2412428 74.6490116,17.7497219 C73.8602685,18.2582009 73.1225736,18.6125347 72.4339248,18.8137243 C72.2467485,18.7846969 72.2117155,18.7066234 72.3268239,18.5775017 C72.8573237,18.3192584 73.4628942,17.9178803 74.1435354,17.3733673 C74.8241766,16.8288543 75.4407575,16.1552197 75.993278,15.3514625 C76.5447976,14.5487062 76.9571861,13.7389433 77.2294426,12.9211729 C77.5016991,12.1034025 77.6738613,11.4237622 77.7459292,10.8782483 C77.8169961,10.3337353 77.8600367,9.8672959 77.8750508,9.48093191 C77.890065,9.09456792 77.6528415,8.82231143 77.1653823,8.66416244 C76.5918419,8.75024353 76.0072912,8.86134821 75.4127311,8.99747645 C74.81717,9.13460564 74.1935826,9.28474709 73.5419687,9.44890173 C72.8893539,9.61405733 72.430922,9.78621952 72.1656721,9.96538831 C71.8994212,10.145558 71.6882223,10.2416486 71.5310742,10.2556618 C71.3739262,10.2706759 71.2448045,10.2276354 71.1437093,10.1265401 C71.0426141,10.0264458 70.8574396,9.90833456 70.5841822,9.77220632 C70.3119257,9.63607807 70.0466758,9.4178725 69.7884325,9.11658867 C69.5301892,8.81530483 69.3149865,8.46497478 69.1428243,8.06259571 C69.1578384,7.71827132 69.2789525,7.63219023 69.5081685,7.80435242 C69.7233712,8.17770415 70.0817088,8.43895027 70.5831812,8.58909171 C71.0846537,8.73923316 71.7943222,8.75424731 72.7121869,8.63213226 C73.6300517,8.51101816 74.9983407,8.31383239 76.8200569,8.04057496 C78.6407722,7.76931941 80.2633008,7.54610913 81.6906455,7.37394694 C83.1189911,7.20378663 84.0618794,7.02461784 84.5203113,6.83844244 C84.8496215,6.6092265 85.6533787,6.91051034 86.9285801,7.74129301 Z M56.2136438,4.79551782 C56.8442379,4.79551782 57.4888452,5.22292047 58.1494675,6.07472295 C58.809089,6.92852731 59.6258584,7.80535336 60.6007769,8.70920487 C61.5756953,9.61205544 62.6286874,10.4938862 63.7617548,11.3546972 C64.8938213,12.2145072 65.5784663,12.6959608 65.8156898,12.7950541 C66.0519124,12.8961494 66.2741217,13.0032503 66.4823178,13.1173578 C66.690514,13.2324662 66.8937054,13.4616821 67.0948949,13.8060065 C67.2950835,14.1503309 67.4171986,14.4586214 67.4602391,14.7308778 C67.5032797,15.0031343 67.4562354,15.1863069 67.3201071,15.2793946 C67.1839789,15.3734832 67.0048101,15.3975059 66.7826007,15.3544653 C66.5603914,15.3114248 66.1740274,15.0641919 65.6215069,14.6127666 C65.0689863,14.1613413 64.671612,13.8280273 64.4283828,13.6128245 C64.1841528,13.3976218 63.5725766,12.8711258 62.5896506,12.0323356 C61.6067246,11.1935453 60.6908618,10.2726778 59.8370574,9.268732 C58.983253,8.26578713 58.2525647,7.33691205 57.6439913,6.48410863 C57.034417,5.63130521 56.5579682,5.2049035 56.2136438,5.2049035 C55.9554005,5.2049035 55.683144,5.43411944 55.3968743,5.89355227 C55.1096037,6.3529851 54.7332491,6.94053863 54.2678106,7.6572138 C53.8013712,8.37488992 53.2318347,9.1406113 52.5582,9.95838171 C51.8845654,10.7751512 51.5512514,11.2846312 51.558258,11.4848198 C51.5652646,11.6860093 51.5042071,11.8471611 51.3750854,11.9682752 C51.2459638,12.0903903 51.0918186,12.1154138 50.9126498,12.0433459 C50.733481,11.972279 50.504265,11.8902017 50.224001,11.796113 C49.9447379,11.7030253 49.6714805,11.5568877 49.4072315,11.3556981 C49.1419816,11.1555095 48.7656271,10.7180974 48.2781679,10.0434619 C48.1920868,9.77220632 48.2781679,9.66410448 48.5364111,9.72115823 C48.9087619,10.0224421 49.1990354,10.2086175 49.4072315,10.2806854 C49.6154277,10.3527532 49.8806776,10.3127155 50.2029812,10.1625741 C50.5252848,10.0124326 51.030761,9.64308467 51.7194098,9.05553114 C52.4080586,8.46797761 53.0316461,7.84038637 53.5901723,7.17375834 C54.1486984,6.50713032 54.5931171,5.94460036 54.9234283,5.48516753 C55.2527385,5.02473376 55.683144,4.79551782 56.2136438,4.79551782 Z M64.4514045,2.53638951 C64.9678911,2.53638951 65.4153126,2.72356585 65.795671,3.09591664 C66.1760293,3.46926837 66.3652075,3.90668045 66.3652075,4.40815289 C66.3652075,4.92463946 66.1760293,5.36505437 65.795671,5.73039856 C65.4153126,6.09574275 64.9678911,6.27891532 64.4514045,6.27891532 C63.9209048,6.27891532 63.4694795,6.09574275 63.0961277,5.73039856 C62.7217751,5.36505437 62.5366006,4.92463946 62.5366006,4.40815289 C62.5366006,3.90668045 62.722776,3.46926837 63.0961277,3.09591664 C63.4684785,2.72356585 63.9199038,2.53638951 64.4514045,2.53638951 Z M64.4714234,2.92475539 C64.0700453,2.92475539 63.7327275,3.07890061 63.460471,3.38719105 C63.1882145,3.69548148 63.0520862,4.05081624 63.0520862,4.45119343 C63.0520862,4.83855837 63.1882145,5.17187238 63.460471,5.45113547 C63.7317265,5.73039856 64.0690443,5.87053058 64.4714234,5.87053058 C64.8437742,5.87053058 65.181092,5.73039856 65.4823758,5.45113547 C65.7836596,5.17187238 65.9338011,4.83855837 65.9338011,4.45119343 C65.9338011,4.05081624 65.7836596,3.69548148 65.4823758,3.38719105 C65.181092,3.07890061 64.8437742,2.92475539 64.4714234,2.92475539 Z M81.9288699,2.5594112 C82.4373489,2.83166769 82.6775753,3.0508742 82.6495489,3.21502885 C82.6215225,3.38018444 82.4413527,3.47727591 82.1120425,3.50530232 C81.7827322,3.53432966 81.4133843,3.53733249 81.0049995,3.51631269 C80.5966148,3.49529289 79.8178812,3.57036361 78.6718015,3.7425258 C77.5257217,3.914688 76.6569032,4.09085396 76.0693497,4.26902181 C75.4817962,4.44919155 75.0734114,4.6063396 74.8431946,4.74246784 C74.6139786,4.87959703 74.4087853,4.95767058 74.2306174,4.97869038 C74.0504477,4.99971019 73.7922044,4.92463946 73.4568885,4.75247727 C73.1195707,4.58031508 72.6221021,4.07183604 71.9624807,3.22603923 C71.8763996,3.03986383 71.9684863,2.96078934 72.2417437,2.98881574 C72.7432162,3.33314012 73.1305811,3.53432966 73.4028376,3.59138341 C73.6750941,3.64943811 74.5499183,3.58437681 76.0263092,3.39820142 C77.503701,3.21202602 78.6247571,3.01083648 79.3914795,2.79563374 C80.1582018,2.580431 80.645661,2.41927918 80.8538571,2.31217828 C81.0610523,2.20507739 81.4193899,2.28815565 81.9288699,2.5594112 Z M83.5313796,1.2902155 C84.0618794,1.49140504 84.4952877,1.67758044 84.8326055,1.84974263 C85.1689223,2.02190482 85.4702062,2.23010096 85.7354561,2.4733301 C86.000706,2.71756019 86.1728681,2.96779594 86.2519426,3.22603923 C86.3300162,3.48428251 86.2699596,3.70649186 86.0687701,3.89266725 C85.8685815,4.07984359 85.6924155,4.17193034 85.5422741,4.17193034 C85.3921326,4.17193034 85.2670148,4.06783227 85.1659195,3.85963613 C85.0648243,3.65244094 84.9437102,3.41221462 84.8005753,3.13895719 C84.6564395,2.86770164 84.4952877,2.61946778 84.3171199,2.39725844 C84.1369501,2.1750491 83.8396701,1.88477563 83.4242787,1.52643805 C83.3101712,1.36929 83.3452042,1.2902155 83.5313796,1.2902155 Z M85.596325,3.37507799e-14 C86.140838,0.158148991 86.5852567,0.309291381 86.929581,0.451425284 C87.2739054,0.595561073 87.5892025,0.770726095 87.8754722,0.977921292 C88.1617418,1.18611743 88.3549238,1.41633432 88.4560191,1.66657006 C88.5571143,1.91780675 88.5170766,2.14702269 88.3379078,2.35521883 C88.1577381,2.56341497 87.9935834,2.67051587 87.843442,2.67752247 C87.6933005,2.68553002 87.5561713,2.59144138 87.4350572,2.39825938 C87.3129422,2.20507739 87.1728102,1.98286804 87.0156621,1.73163136 C86.8585141,1.48139561 86.6783444,1.25217967 86.4781558,1.04298259 C86.2779672,0.835787389 85.9556635,0.573540328 85.5102439,0.258243289 C85.3811222,0.115108443 85.4091487,0.0290273464 85.596325,3.37507799e-14 Z"/>
	</g>
</svg>
