<?xml version="1.0" encoding="UTF-8"?>
<svg width="110px" height="10px" viewBox="0 0 110 10" version="1.1" xmlns="http://www.w3.org/2000/svg" xmlns:xlink="http://www.w3.org/1999/xlink">
    <title>wikipedia-tagline-atj</title>
    <g id="Page-1" stroke="none" stroke-width="1" fill="none" fill-rule="evenodd">
        <path d="M8.74294941,9.86099118 C8.89572533,9.86099118 8.99294638,9.70821526 9.06238998,9.49988445 L11.8540228,2.01386423 C12.0331876,1.53192546 12.2845731,1.20832452 13.0484527,1.16665229 C13.131785,1.08331997 13.131785,0.791656844 13.0484527,0.708324522 C12.6456798,0.722213242 12.2012408,0.736101962 11.840134,0.736101962 C11.4790273,0.736101962 10.8679236,0.722213242 10.3123748,0.708324522 C10.2290425,0.791656844 10.2290425,1.08331997 10.3123748,1.16665229 C10.8818123,1.20832452 11.4415276,1.25554044 11.2290303,1.84719958 L11.2290303,1.8471998 L9.05822353,7.87907084 L9.01377946,7.86101546 L7.10408042,1.99997551 C6.86102781,1.25276253 7.35407738,1.20832452 7.82629387,1.16665229 C7.90962619,1.08331997 7.90962619,0.791656844 7.82629387,0.708324522 C7.25685634,0.722213242 6.64575265,0.736101962 6.09020384,0.736101962 C5.63187607,0.736101962 5.14577086,0.722213242 4.70133181,0.708324522 C4.61799949,0.791656844 4.61799949,1.08331997 4.70133181,1.16665229 C5.43743399,1.20832452 5.74298583,1.64303523 5.86798431,1.99997551 L6.18742488,2.91663104 C6.24159081,3.08329569 6.28464592,3.22218289 6.28464592,3.34718137 C6.28464592,3.49023502 6.26381284,3.5985673 6.15964744,3.83328658 L4.36105817,7.90684807 L4.30133684,7.89295935 L2.27080576,1.74997854 C2.10969652,1.2624848 2.47913657,1.19442973 2.96524178,1.16665229 C3.0485741,1.08331997 3.0485741,0.791656844 2.96524178,0.708324522 C2.50691401,0.722213242 1.89581032,0.736101962 1.35415023,0.736101962 C0.872211675,0.736101962 0.465272129,0.722213242 0.0624992412,0.708324522 C-0.0208330804,0.791656844 -0.0208330804,1.08331997 0.0624992412,1.16665229 C0.687491653,1.20832452 0.790268099,1.22915153 1.04859838,1.97219807 L3.65967779,9.48599573 C3.7346768,9.7068263 3.80550935,9.86099118 3.96522964,9.86099118 C4.145783,9.86099118 4.22355992,9.71654857 4.32633636,9.48599573 L6.39575568,4.83327444 C6.51936521,4.55550004 6.56242033,4.48605644 6.63186393,4.48605644 C6.68741881,4.48605644 6.74436265,4.6374434 6.82630601,4.8749406 L8.42350884,9.48599573 C8.50545263,9.72210398 8.57628477,9.86099118 8.74294941,9.86099118 Z M14.8903107,2.09719676 C15.2791948,2.09719676 15.6125241,1.72358985 15.6125241,1.43053819 C15.6125241,1.0972089 15.320861,0.708324734 14.9458656,0.708324734 C14.6125363,0.708324734 14.2236521,1.04165402 14.2236521,1.37498331 C14.2236521,1.73609003 14.5569814,2.09719676 14.8903107,2.09719676 Z M16.4875135,9.72210419 C16.5708458,9.63877187 16.5708458,9.34710874 16.4875135,9.26377642 C15.6403016,9.20822154 15.4875256,9.15266666 15.4875256,7.99990288 L15.4875256,5.2318811 C15.4875256,4.54161153 15.5430805,3.65273343 15.5430805,3.65273343 C15.5430805,3.59717855 15.4736369,3.55551239 15.3625272,3.55551239 C14.9666986,3.70828831 14.4180942,3.83328679 13.4597725,3.95828528 C13.431995,4.0416176 13.4597725,4.26383712 13.4875499,4.34716944 C14.2444852,4.418002 14.3903167,4.49994537 14.3903167,5.29160242 L14.3903167,7.99990288 C14.3903167,9.15266666 14.2375408,9.19433282 13.3903289,9.26377642 C13.3069966,9.34710874 13.3069966,9.63877187 13.3903289,9.72210419 C13.8486567,9.70821547 14.3903167,9.69432675 14.9458656,9.69432675 C15.5014144,9.69432675 16.0291857,9.70821547 16.4875135,9.72210419 Z M18.8293654,9.83321395 C19.4682465,9.83321395 20.1626826,9.52766211 20.7043427,8.91655841 C20.6765652,8.77350455 20.5932329,8.69433889 20.4543457,8.68045017 C20.093239,8.95822457 19.6765774,9.06933434 19.3154706,9.06933434 C18.9404752,9.06933434 18.8571429,8.65267273 18.8571429,7.79157207 L18.8571429,4.27772584 L20.3015698,4.27772584 C20.440457,4.27772584 20.6348991,4.22217096 20.6348991,4.09717248 L20.6348991,3.81939807 C20.6348991,3.76384319 20.5932329,3.73606575 20.5237893,3.73606575 L18.8571429,3.73606575 L18.8571429,3.19440566 C18.8571429,2.29163884 18.9126977,1.73609003 18.9126977,1.73609003 C18.9126977,1.64720189 18.8710316,1.61386947 18.8057546,1.61386947 C18.7432554,1.61386947 18.6252013,1.66803497 18.4960361,1.73886795 C18.3390935,1.82636672 18.1974286,1.88608804 18.0238196,1.93469856 C17.857155,1.98192055 17.7182678,2.02914169 17.7182678,2.1249742 L17.7192382,2.16406185 C17.7254991,2.28290359 17.759934,2.33444135 17.759934,3.7346768 L17.1210528,3.73606575 C16.9266107,3.73606575 16.8710559,3.9027304 16.8710559,4.01384016 L16.8710559,4.19439352 C16.8710559,4.26383712 16.8849446,4.27772584 16.9404995,4.27772584 L17.759934,4.27772584 L17.759934,8.45823065 C17.759934,9.44432978 18.1904843,9.83321395 18.8293654,9.83321395 Z M25.6989401,9.83321395 C26.230878,9.83321395 26.7308719,9.59710571 27.0183686,9.3193313 C26.9947576,9.14850021 26.9392027,9.03183483 26.7822603,8.94433585 C26.6780949,9.03044609 26.4447646,9.16655538 26.2683777,9.16655538 C25.8943743,9.16655538 25.8556843,8.69951173 25.8520653,8.12126721 L25.8517161,5.94437228 C25.8517161,3.972174 24.7683959,3.59717855 23.7545193,3.59717855 C22.6156442,3.59717855 21.4628805,4.34716944 21.4628805,5.1388265 C21.4628805,5.47215579 21.6295451,5.63882043 21.9489857,5.63882043 C22.3517585,5.63882043 22.6017555,5.3471573 22.6017555,5.16660394 C22.6017555,5.0693829 22.5878668,4.97216186 22.5600894,4.91660698 C22.5462006,4.87494082 22.5323119,4.79160849 22.5323119,4.63883257 C22.5323119,4.20828224 23.1156382,4.05550632 23.6434095,4.05550632 C24.115626,4.05550632 24.7683959,4.29161456 24.7683959,5.86103995 C24.7683959,5.958261 24.7267297,6.01381588 24.6850636,6.0277046 L23.4906336,6.31936772 C22.1573165,6.65269701 21.1989948,7.38879918 21.1989948,8.33323216 C21.1989948,9.47210722 21.9767631,9.83321395 22.9489735,9.83321395 C23.432301,9.83321395 23.8517403,9.72210419 24.462844,9.2498877 L24.7406184,9.02766818 L24.7683959,9.02766818 C24.8517282,9.4582185 24.9989487,9.83321395 25.6989401,9.83321395 Z M23.3517464,9.26377642 C22.6573104,9.26377642 22.3517585,8.70822761 22.3517585,8.27767728 C22.3517585,7.65268487 22.6434217,7.01380374 23.671187,6.74991805 L24.7683959,6.45825493 L24.7683959,8.291566 C24.7683959,8.47211937 24.6850636,8.56934041 24.5739538,8.65267273 C24.2128471,8.94433585 23.7406306,9.26377642 23.3517464,9.26377642 Z M37.624009,9.72210419 C37.6934526,9.63877187 37.6934526,9.34710874 37.624009,9.26377642 C36.8601294,9.20822154 36.7351309,9.13877794 36.7351309,7.99990288 L36.7351309,5.80548507 C36.7351309,4.56938897 36.5268001,3.59717855 35.3045927,3.59717855 C34.5934901,3.59717855 33.7365563,3.85828632 33.0129539,4.62216594 C32.9712877,4.66661001 32.8879554,4.73605361 32.860178,4.61661053 C32.7282351,4.047173 32.1935194,3.59717855 31.471306,3.59717855 C30.6657602,3.59717855 29.9393801,4.07495044 29.3602205,4.72216489 C29.2963323,4.79299745 29.2005002,4.88882954 29.1935558,4.72216489 C29.1755004,4.30966973 29.147723,3.8096758 29.0824461,3.66662215 C29.0532797,3.60273395 29.0268912,3.55551239 28.9157814,3.55551239 C28.5268973,3.70828831 28.1657905,3.83328679 27.2074688,3.95828528 C27.1796914,4.0416176 27.2074688,4.26383712 27.2352463,4.34716944 C27.9852372,4.41661305 28.1380131,4.48605665 28.1380131,5.29160242 L28.1380131,7.99990288 C28.1380131,9.13877794 27.9574597,9.20822154 27.1935801,9.26377642 C27.1102478,9.34710874 27.1102478,9.63877187 27.1935801,9.72210419 C27.6102417,9.70821547 28.1380131,9.69432675 28.6935619,9.69432675 C29.2491107,9.69432675 29.6768833,9.70821547 30.0935449,9.72210419 C30.1768773,9.63877187 30.1768773,9.34710874 30.0935449,9.26377642 C29.3879979,9.19433282 29.235222,9.13877794 29.235222,7.99990288 L29.235222,5.72215275 C29.235222,5.43048963 29.3602205,5.25965854 29.4713302,5.1388265 C30.0213236,4.60133286 30.5421507,4.319392 30.971312,4.319392 C31.4990834,4.319392 31.8879676,4.65272129 31.8879676,5.58326555 L31.8879676,7.99990288 C31.8879676,9.13877794 31.7768578,9.20822154 31.0268669,9.26377642 C30.9574233,9.34710874 30.9574233,9.63877187 31.0268669,9.72210419 C31.3740849,9.70821547 31.8879676,9.69432675 32.4435164,9.69432675 C32.9990652,9.69432675 33.457393,9.70821547 33.804611,9.72210419 C33.8740546,9.63877187 33.8740546,9.34710874 33.804611,9.26377642 C33.1101749,9.20822154 32.9851765,9.13877794 32.9851765,7.99990288 L32.9851765,5.79159635 C32.9851765,5.59715427 32.9851765,5.40271219 32.9712877,5.23604754 C33.6379463,4.49994537 34.2629387,4.319392 34.8045988,4.319392 C35.3323702,4.319392 35.637922,4.62494385 35.637922,5.55548811 L35.637922,7.99990288 C35.637922,9.13877794 35.4990348,9.20822154 34.7768214,9.26377642 C34.7073778,9.34710874 34.7073778,9.63877187 34.7768214,9.72210419 C35.1240394,9.70821547 35.637922,9.69432675 36.1934708,9.69432675 C36.7490197,9.69432675 37.2351249,9.70821547 37.624009,9.72210419 Z M42.5908291,9.83321395 C43.1227669,9.83321395 43.6227608,9.59710571 43.9102575,9.3193313 C43.8866465,9.14850021 43.8310916,9.03183483 43.6741493,8.94433585 C43.5699839,9.03044609 43.3366535,9.16655538 43.1602666,9.16655538 C42.7862632,9.16655538 42.7475732,8.69951173 42.7439542,8.12126721 L42.743605,5.94437228 C42.743605,3.972174 41.6602848,3.59717855 40.6464082,3.59717855 C39.5075332,3.59717855 38.3547694,4.34716944 38.3547694,5.1388265 C38.3547694,5.47215579 38.521434,5.63882043 38.8408746,5.63882043 C39.2436475,5.63882043 39.4936445,5.3471573 39.4936445,5.16660394 C39.4936445,5.0693829 39.4797557,4.97216186 39.4519783,4.91660698 C39.4380896,4.87494082 39.4242009,4.79160849 39.4242009,4.63883257 C39.4242009,4.20828224 40.0075271,4.05550632 40.5352985,4.05550632 C41.007515,4.05550632 41.6602848,4.29161456 41.6602848,5.86103995 C41.6602848,5.958261 41.6186187,6.01381588 41.5769525,6.0277046 L40.3825226,6.31936772 C39.0492054,6.65269701 38.0908837,7.38879918 38.0908837,8.33323216 C38.0908837,9.47210722 38.868652,9.83321395 39.8408625,9.83321395 C40.32419,9.83321395 40.7436293,9.72210419 41.354733,9.2498877 L41.6325074,9.02766818 L41.6602848,9.02766818 C41.7436171,9.4582185 41.8908377,9.83321395 42.5908291,9.83321395 Z M40.2436353,9.26377642 C39.5491993,9.26377642 39.2436475,8.70822761 39.2436475,8.27767728 C39.2436475,7.65268487 39.5353106,7.01380374 40.5630759,6.74991805 L41.6602848,6.45825493 L41.6602848,8.291566 C41.6602848,8.47211937 41.5769525,8.56934041 41.4658427,8.65267273 C41.104736,8.94433585 40.6325195,9.26377642 40.2436353,9.26377642 Z M50.7103886,9.72210419 C50.7937209,9.63877187 50.7937209,9.34710874 50.7103886,9.26377642 C50.2381721,9.20822154 49.8867877,9.14711126 49.5159587,8.68045017 L47.6826476,6.3749226 C47.6326481,6.31242336 47.5854266,6.24992412 47.5854266,6.18048052 C47.5854266,6.12492564 47.5854266,6.0971482 47.6409814,6.04159332 L48.8631888,4.77771977 C49.2798504,4.33328072 49.7659556,4.22217096 50.3215044,4.16661608 C50.4048368,4.08328376 50.4048368,3.79162063 50.3215044,3.70828831 C50.0020639,3.72217703 49.6131797,3.73606575 49.1131858,3.73606575 C48.5854144,3.73606575 48.0715318,3.72217703 47.7520912,3.70828831 C47.6687589,3.79162063 47.6687589,4.08328376 47.7520912,4.16661608 C48.5298595,4.22217096 48.2006967,4.71244262 48.0715318,4.87494082 C47.7520912,5.2777137 47.3173744,5.74993019 46.9604341,6.01381588 C46.6521046,6.24159081 46.2784979,6.40547775 46.0160012,6.4415885 L46.0160012,1.59720304 C46.0160012,0.694436225 46.071556,0.138887415 46.071556,0.138887415 C46.071556,0.0416663727 46.0160012,2.11925057e-07 45.8910027,2.11925057e-07 C45.5437847,0.138887415 44.5021307,0.333329498 43.9465818,0.374995659 C43.9188044,0.486105421 43.9465818,0.708324946 44.0299142,0.791657267 C44.7521276,0.833323428 44.9187923,0.763879827 44.9187923,1.93053233 L44.9187923,7.99990288 C44.9187923,9.15266666 44.7660163,9.20822154 43.988248,9.26377642 C43.9049157,9.34710874 43.9049157,9.63877187 43.988248,9.72210419 C44.4465758,9.70821547 44.9187923,9.69432675 45.4743411,9.69432675 C45.9604463,9.69432675 46.4187741,9.70821547 46.7382146,9.72210419 C46.8215469,9.63877187 46.8215469,9.34710874 46.7382146,9.26377642 C46.1687771,9.20822154 46.0160012,9.15266666 46.0160012,7.99990288 L46.0160012,6.79297317 C46.2826646,6.79991753 46.4784956,6.82075061 46.6132161,6.86797217 C46.7659921,6.97213758 46.8923795,7.09713606 47.0576552,7.31935558 L48.0715318,8.68045017 C48.4798601,9.22905462 48.6368029,9.4901626 48.654858,9.65266059 C48.6590245,9.69432675 48.6687467,9.72210419 48.7104129,9.72210419 C48.9881873,9.70821547 49.2937391,9.69432675 49.5715136,9.69432675 C50.0020639,9.69432675 50.4326142,9.70821547 50.7103886,9.72210419 Z M53.9133412,9.83321395 C54.9688839,9.83321395 55.7188748,9.34710874 56.2744236,8.62489529 C56.2327575,8.48600809 56.1494251,8.41656448 55.9827605,8.40267576 C55.4688779,8.93044713 55.066105,9.15266666 54.2605592,9.15266666 C53.7605653,9.15266666 53.177239,8.86100353 52.7466887,8.1526788 C52.4689143,7.69435103 52.3022496,7.0554699 52.3022496,6.24992412 L55.9966492,6.27770156 C56.1633139,6.27770156 56.2605349,6.19436924 56.2605349,6.04159332 C56.2605349,4.87494082 55.8438733,3.62495599 53.9133412,3.62495599 C52.7050225,3.62495599 51.1355971,4.77771977 51.1355971,6.88880525 C51.1355971,7.66657359 51.3300392,8.41656448 51.788367,8.94433585 C52.2605835,9.49988467 52.9133533,9.83321395 53.9133412,9.83321395 Z M52.3439158,5.77770763 C52.6078015,4.20828224 53.5800119,4.08328376 53.9133412,4.08328376 C54.4411126,4.08328376 55.066105,4.37494689 55.066105,5.54159939 C55.066105,5.66659787 55.0105501,5.73326356 54.8577742,5.73604147 L52.3439158,5.77770763 Z M59.2690454,9.83321395 C60.0468137,9.83321395 61.4773519,9.4582185 61.4773519,8.0832352 C61.4773519,7.13463556 60.7968046,6.58325341 59.8523716,6.2332577 C59.0162707,5.9235392 58.4634996,5.70826403 58.4634996,4.94438442 C58.4634996,4.37494689 58.9634935,4.05550632 59.43571,4.05550632 C59.7412619,4.05550632 60.5468077,4.16661608 60.727361,5.3471573 C60.8106933,5.43048963 61.0884677,5.41660091 61.1718001,5.33326858 C61.2134662,4.83327465 61.2412437,4.319392 61.2551324,3.86106424 C60.8245821,3.79162063 60.1579235,3.59717855 59.43571,3.59717855 C58.4079447,3.59717855 57.4774005,4.26383712 57.4774005,5.15271522 C57.4774005,6.1665918 57.9357282,6.59714213 59.0051597,7.04158118 C60.1579235,7.51379767 60.4218092,7.80546079 60.4218092,8.40267576 C60.4218092,9.08322306 59.7551506,9.37488618 59.241268,9.37488618 C58.6996079,9.37488618 58.3982227,9.19016637 58.2551688,9.0415569 C57.949617,8.72211633 57.796841,8.11101264 57.7135087,7.76379463 C57.6301764,7.68046231 57.3662907,7.69435103 57.2829584,7.77768335 C57.3385133,8.45823065 57.3801794,9.1110005 57.3801794,9.69432675 C57.5190666,9.66654931 57.6579538,9.65266059 57.7273974,9.65266059 C57.8246185,9.65266059 57.9079508,9.65266059 58.0051718,9.68043803 C58.3801673,9.77765907 58.7551627,9.83321395 59.2690454,9.83321395 Z M63.7358715,2.09719676 C64.1247557,2.09719676 64.458085,1.72358985 64.458085,1.43053819 C64.458085,1.0972089 64.1664218,0.708324734 63.7914264,0.708324734 C63.4580971,0.708324734 63.0692129,1.04165402 63.0692129,1.37498331 C63.0692129,1.73609003 63.4025422,2.09719676 63.7358715,2.09719676 Z M65.3330743,9.72210419 C65.4164067,9.63877187 65.4164067,9.34710874 65.3330743,9.26377642 C64.4858624,9.20822154 64.3330865,9.15266666 64.3330865,7.99990288 L64.3330865,5.2318811 C64.3330865,4.54161153 64.3886414,3.65273343 64.3886414,3.65273343 C64.3886414,3.59717855 64.3191978,3.55551239 64.208088,3.55551239 C63.8122595,3.70828831 63.263655,3.83328679 62.3053333,3.95828528 C62.2775559,4.0416176 62.3053333,4.26383712 62.3331108,4.34716944 C63.090046,4.418002 63.2358776,4.49994537 63.2358776,5.29160242 L63.2358776,7.99990288 C63.2358776,9.15266666 63.0831017,9.19433282 62.2358897,9.26377642 C62.1525574,9.34710874 62.1525574,9.63877187 62.2358897,9.72210419 C62.6942175,9.70821547 63.2358776,9.69432675 63.7914264,9.69432675 C64.3469752,9.69432675 64.8747466,9.70821547 65.3330743,9.72210419 Z M72.6609768,9.72210419 C72.7304204,9.63877187 72.7304204,9.34710874 72.6609768,9.26377642 C71.8832085,9.19433282 71.7304326,9.13877794 71.7304326,7.99990288 L71.7304326,5.93048356 C71.7304326,5.16660394 71.6748777,4.49994537 71.3554371,4.06939504 C71.1193289,3.76384319 70.6887785,3.59717855 70.2026733,3.59717855 C69.522126,3.59717855 68.7485244,3.77773191 67.9249232,4.72216489 C67.8402019,4.81938593 67.7624252,4.85271878 67.7582586,4.72216489 C67.7443698,4.34716944 67.7124257,3.8096758 67.6471488,3.66662215 C67.6179824,3.60273395 67.5915939,3.55551239 67.4804842,3.55551239 C67.0916,3.70828831 66.7304933,3.83328679 65.7721716,3.95828528 C65.7443941,4.0416176 65.7721716,4.26383712 65.799949,4.34716944 C66.5499399,4.41661305 66.7027158,4.48605665 66.7027158,5.29160242 L66.7027158,7.99990288 C66.7027158,9.13877794 66.5638286,9.19433282 65.7305054,9.26377642 C65.6471731,9.34710874 65.6471731,9.63877187 65.7305054,9.72210419 C66.147167,9.70821547 66.7027158,9.69432675 67.2582646,9.69432675 C67.8138134,9.69432675 68.2304751,9.70821547 68.6471367,9.72210419 C68.730469,9.63877187 68.730469,9.34710874 68.6471367,9.26377642 C67.9388119,9.19433282 67.7999247,9.13877794 67.7999247,7.99990288 L67.7999247,5.72215275 C67.7999247,5.43048963 67.9249232,5.26382498 68.036033,5.1388265 C68.5638043,4.62494385 69.1887968,4.319392 69.7304568,4.319392 C70.0082313,4.319392 70.2998944,4.49994537 70.466559,4.81938593 C70.6054462,5.09716034 70.6332237,5.47215579 70.6332237,5.88881739 L70.6332237,7.99990288 C70.6332237,9.13877794 70.4943365,9.19433282 69.772123,9.26377642 C69.7026794,9.34710874 69.7026794,9.63877187 69.772123,9.72210419 C70.1887846,9.70821547 70.6332237,9.69432675 71.1887725,9.69432675 C71.7443213,9.69432675 72.2443152,9.70821547 72.6609768,9.72210419 Z M77.6833517,9.83321395 C78.2152896,9.83321395 78.7152835,9.59710571 79.0027802,9.3193313 C78.9791692,9.14850021 78.9236143,9.03183483 78.7666719,8.94433585 C78.6625065,9.03044609 78.4291762,9.16655538 78.2527893,9.16655538 C77.8787859,9.16655538 77.8400959,8.69951173 77.8364769,8.12126721 L77.8361277,5.94437228 C77.8361277,3.972174 76.7528075,3.59717855 75.7389309,3.59717855 C74.6000558,3.59717855 73.4472921,4.34716944 73.4472921,5.1388265 C73.4472921,5.47215579 73.6139567,5.63882043 73.9333973,5.63882043 C74.3361702,5.63882043 74.5861671,5.3471573 74.5861671,5.16660394 C74.5861671,5.0693829 74.5722784,4.97216186 74.544501,4.91660698 C74.5306122,4.87494082 74.5167235,4.79160849 74.5167235,4.63883257 C74.5167235,4.20828224 75.1000498,4.05550632 75.6278211,4.05550632 C76.1000376,4.05550632 76.7528075,4.29161456 76.7528075,5.86103995 C76.7528075,5.958261 76.7111413,6.01381588 76.6694752,6.0277046 L75.4750452,6.31936772 C74.1417281,6.65269701 73.1834064,7.38879918 73.1834064,8.33323216 C73.1834064,9.47210722 73.9611747,9.83321395 74.9333851,9.83321395 C75.4167126,9.83321395 75.836152,9.72210419 76.4472556,9.2498877 L76.72503,9.02766818 L76.7528075,9.02766818 C76.8361398,9.4582185 76.9833603,9.83321395 77.6833517,9.83321395 Z M75.336158,9.26377642 C74.641722,9.26377642 74.3361702,8.70822761 74.3361702,8.27767728 C74.3361702,7.65268487 74.6278333,7.01380374 75.6555986,6.74991805 L76.7528075,6.45825493 L76.7528075,8.291566 C76.7528075,8.47211937 76.6694752,8.56934041 76.5583654,8.65267273 C76.1972587,8.94433585 75.7250422,9.26377642 75.336158,9.26377642 Z M86.0806857,9.72210419 C86.1501293,9.63877187 86.1501293,9.34710874 86.0806857,9.26377642 C85.3029174,9.19433282 85.1501414,9.13877794 85.1501414,7.99990288 L85.1501414,5.93048356 C85.1501414,5.16660394 85.098753,4.49300101 84.775146,4.06939504 C84.5418157,3.76384319 84.1084874,3.59717855 83.6223822,3.59717855 C82.940446,3.59717855 82.1085117,3.77773191 81.2612998,4.72216489 C81.2140782,4.77494186 81.1251903,4.91660698 81.1251903,4.72216489 L81.1363013,1.59720283 C81.1363013,0.694436014 81.1918562,0.138887203 81.1918562,0.138887203 C81.1918562,0.0416661608 81.1363013,0 81.0113028,0 C80.6640848,0.138887203 79.6224308,0.333329287 79.066882,0.374995447 C79.0391045,0.486105209 79.066882,0.708324734 79.1502143,0.791657055 C79.8724277,0.833323216 80.0390924,0.763879615 80.0390924,1.93053212 L80.0390924,7.99990288 C80.0390924,9.15266666 79.8752054,9.20822154 79.0696597,9.26377642 C78.9863273,9.34710874 78.9863273,9.63877187 79.0696597,9.72210419 C79.5279874,9.70821547 80.0390924,9.69432675 80.5946412,9.69432675 C81.1224126,9.69432675 81.5779626,9.70821547 81.9668468,9.72210419 C82.0501791,9.63877187 82.0501791,9.34710874 81.9668468,9.26377642 C81.2612998,9.20822154 81.1363013,9.15266666 81.1363013,7.99990288 L81.1363013,5.72354171 C81.1363013,5.43048963 81.2612998,5.25965854 81.3724095,5.1388265 C81.9001809,4.6207774 82.6029502,4.319392 83.1501657,4.319392 C83.4334955,4.319392 83.7251587,4.50133432 83.8862679,4.81938593 C84.0251551,5.09438243 84.0529325,5.47215579 84.0529325,5.88881739 L84.0529325,7.99990288 C84.0529325,9.13877794 83.9140453,9.19433282 83.1918319,9.26377642 C83.1223883,9.34710874 83.1223883,9.63877187 83.1918319,9.72210419 C83.580716,9.70821547 84.0529325,9.69432675 84.6084813,9.69432675 C85.1640302,9.69432675 85.6223579,9.70821547 86.0806857,9.72210419 Z M87.9919873,2.09719676 C88.3808714,2.09719676 88.7142007,1.72358985 88.7142007,1.43053819 C88.7142007,1.0972089 88.4225376,0.708324734 88.0475422,0.708324734 C87.7142129,0.708324734 87.3253287,1.04165402 87.3253287,1.37498331 C87.3253287,1.73609003 87.658658,2.09719676 87.9919873,2.09719676 Z M89.5891901,9.72210419 C89.6725224,9.63877187 89.6725224,9.34710874 89.5891901,9.26377642 C88.7419782,9.20822154 88.5892022,9.15266666 88.5892022,7.99990288 L88.5892022,5.2318811 C88.5892022,4.54161153 88.6447571,3.65273343 88.6447571,3.65273343 C88.6447571,3.59717855 88.5753135,3.55551239 88.4642038,3.55551239 C88.0683752,3.70828831 87.5197708,3.83328679 86.5614491,3.95828528 C86.5336716,4.0416176 86.5614491,4.26383712 86.5892265,4.34716944 C87.3461618,4.418002 87.4919933,4.49994537 87.4919933,5.29160242 L87.4919933,7.99990288 C87.4919933,9.15266666 87.3392174,9.19433282 86.4920055,9.26377642 C86.4086732,9.34710874 86.4086732,9.63877187 86.4920055,9.72210419 C86.9503333,9.70821547 87.4919933,9.69432675 88.0475422,9.69432675 C88.603091,9.69432675 89.1308623,9.70821547 89.5891901,9.72210419 Z M96.6115407,9.72210419 C96.6948731,9.63877187 96.6948731,9.34710874 96.6115407,9.26377642 C96.1393243,9.20822154 95.7879398,9.14711126 95.4171108,8.68045017 L93.5837997,6.3749226 C93.5338003,6.31242336 93.4865787,6.24992412 93.4865787,6.18048052 C93.4865787,6.12492564 93.4865787,6.0971482 93.5421336,6.04159332 L94.764341,4.77771977 C95.1810026,4.33328072 95.6671078,4.22217096 96.2226566,4.16661608 C96.3059889,4.08328376 96.3059889,3.79162063 96.2226566,3.70828831 C95.903216,3.72217703 95.5143318,3.73606575 95.0143379,3.73606575 C94.4865665,3.73606575 93.9726839,3.72217703 93.6532433,3.70828831 C93.569911,3.79162063 93.569911,4.08328376 93.6532433,4.16661608 C94.4310117,4.22217096 94.1018488,4.71244262 93.9726839,4.87494082 C93.6532433,5.2777137 93.2185266,5.74993019 92.8615863,6.01381588 C92.5532567,6.24159081 92.17965,6.40547775 91.9171533,6.4415885 L91.9171533,1.59720304 C91.9171533,0.694436225 91.9727082,0.138887415 91.9727082,0.138887415 C91.9727082,0.0416663727 91.9171533,2.11925057e-07 91.7921548,2.11925057e-07 C91.4449368,0.138887415 90.4032828,0.333329498 89.847734,0.374995659 C89.8199565,0.486105421 89.847734,0.708324946 89.9310663,0.791657267 C90.6532798,0.833323428 90.8199444,0.763879827 90.8199444,1.93053233 L90.8199444,7.99990288 C90.8199444,9.15266666 90.6671685,9.20822154 89.8894001,9.26377642 C89.8060678,9.34710874 89.8060678,9.63877187 89.8894001,9.72210419 C90.3477279,9.70821547 90.8199444,9.69432675 91.3754932,9.69432675 C91.8615984,9.69432675 92.3199262,9.70821547 92.6393668,9.72210419 C92.7226991,9.63877187 92.7226991,9.34710874 92.6393668,9.26377642 C92.0699292,9.20822154 91.9171533,9.15266666 91.9171533,7.99990288 L91.9171533,6.79297317 C92.1838167,6.79991753 92.3796477,6.82075061 92.5143683,6.86797217 C92.6671442,6.97213758 92.7935316,7.09713606 92.9588073,7.31935558 L93.9726839,8.68045017 C94.3810122,9.22905462 94.537955,9.4901626 94.5560101,9.65266059 C94.5601766,9.69432675 94.5698989,9.72210419 94.611565,9.72210419 C94.8893394,9.70821547 95.1948913,9.69432675 95.4726657,9.69432675 C95.903216,9.69432675 96.3337663,9.70821547 96.6115407,9.72210419 Z M101.522806,9.83321395 C102.054744,9.83321395 102.554738,9.59710571 102.842234,9.3193313 C102.818623,9.14850021 102.763068,9.03183483 102.606126,8.94433585 C102.501961,9.03044609 102.26863,9.16655538 102.092243,9.16655538 C101.71824,9.16655538 101.67955,8.69951173 101.675931,8.12126721 L101.675582,5.94437228 C101.675582,3.972174 100.592262,3.59717855 99.5783851,3.59717855 C98.43951,3.59717855 97.2867462,4.34716944 97.2867462,5.1388265 C97.2867462,5.47215579 97.4534109,5.63882043 97.7728514,5.63882043 C98.1756243,5.63882043 98.4256213,5.3471573 98.4256213,5.16660394 C98.4256213,5.0693829 98.4117326,4.97216186 98.3839551,4.91660698 C98.3700664,4.87494082 98.3561777,4.79160849 98.3561777,4.63883257 C98.3561777,4.20828224 98.9395039,4.05550632 99.4672753,4.05550632 C99.9394918,4.05550632 100.592262,4.29161456 100.592262,5.86103995 C100.592262,5.958261 100.550595,6.01381588 100.508929,6.0277046 L99.3144994,6.31936772 C97.9811822,6.65269701 97.0228605,7.38879918 97.0228605,8.33323216 C97.0228605,9.47210722 97.8006289,9.83321395 98.7728393,9.83321395 C99.2561668,9.83321395 99.6756061,9.72210419 100.28671,9.2498877 L100.564484,9.02766818 L100.592262,9.02766818 C100.675594,9.4582185 100.822814,9.83321395 101.522806,9.83321395 Z M99.1756122,9.26377642 C98.4811762,9.26377642 98.1756243,8.70822761 98.1756243,8.27767728 C98.1756243,7.65268487 98.4672875,7.01380374 99.4950528,6.74991805 L100.592262,6.45825493 L100.592262,8.291566 C100.592262,8.47211937 100.508929,8.56934041 100.39782,8.65267273 C100.036713,8.94433585 99.5644964,9.26377642 99.1756122,9.26377642 Z M109.947917,9.72210419 C110.017361,9.63877187 110.017361,9.34710874 109.947917,9.26377642 C109.170149,9.19433282 109.017373,9.13877794 109.017373,7.99990288 L109.017373,5.93048356 C109.017373,5.16660394 108.961818,4.49994537 108.642378,4.06939504 C108.406269,3.76384319 107.975719,3.59717855 107.489614,3.59717855 C106.809067,3.59717855 106.035465,3.77773191 105.211864,4.72216489 C105.127142,4.81938593 105.049366,4.85271878 105.045199,4.72216489 C105.03131,4.34716944 104.999366,3.8096758 104.934089,3.66662215 C104.904923,3.60273395 104.878534,3.55551239 104.767425,3.55551239 C104.37854,3.70828831 104.017434,3.83328679 103.059112,3.95828528 C103.031335,4.0416176 103.059112,4.26383712 103.086889,4.34716944 C103.83688,4.41661305 103.989656,4.48605665 103.989656,5.29160242 L103.989656,7.99990288 C103.989656,9.13877794 103.850769,9.19433282 103.017446,9.26377642 C102.934114,9.34710874 102.934114,9.63877187 103.017446,9.72210419 C103.434107,9.70821547 103.989656,9.69432675 104.545205,9.69432675 C105.100754,9.69432675 105.517416,9.70821547 105.934077,9.72210419 C106.017409,9.63877187 106.017409,9.34710874 105.934077,9.26377642 C105.225752,9.19433282 105.086865,9.13877794 105.086865,7.99990288 L105.086865,5.72215275 C105.086865,5.43048963 105.211864,5.26382498 105.322973,5.1388265 C105.850745,4.62494385 106.475737,4.319392 107.017397,4.319392 C107.295172,4.319392 107.586835,4.49994537 107.753499,4.81938593 C107.892387,5.09716034 107.920164,5.47215579 107.920164,5.88881739 L107.920164,7.99990288 C107.920164,9.13877794 107.781277,9.19433282 107.059063,9.26377642 C106.98962,9.34710874 106.98962,9.63877187 107.059063,9.72210419 C107.475725,9.70821547 107.920164,9.69432675 108.475713,9.69432675 C109.031262,9.69432675 109.531256,9.70821547 109.947917,9.72210419 Z" id="wikipedia-tagline-atj" fill="#000000" fill-rule="nonzero"></path>
    </g>
</svg>