<svg xmlns="http://www.w3.org/2000/svg" width="120" height="19"><path fill="#000" fill-rule="nonzero" d="M27.779.305c.07.088.106.243.106.464 0 .212-.035.358-.106.438a2.989 2.989 0 0 0-.504.092c-.15.045-.287.084-.41.12-.116.035-.23.097-.346.185-.115.089-.212.16-.291.213-.071.044-.155.132-.252.265a4.996 4.996 0 0 1-.2.265c-.035.044-.096.15-.185.318-.08.168-.132.279-.159.332a20.86 20.86 0 0 1-.318.729l-6.431 13.843c-.203.416-.42.628-.65.636-.274 0-.482-.212-.623-.636l-3.66-7.876-4.004 7.876c-.16.416-.376.628-.65.636-.256 0-.464-.212-.623-.636l-5.9-13.896c-.045-.097-.102-.23-.173-.398-.362-.849-.663-1.392-.902-1.63-.23-.24-.685-.385-1.365-.438C.044 1.118 0 .967 0 .756 0 .544.035.393.106.305 1.812.34 2.754.358 2.93.358c.31 0 1.318-.018 3.024-.053.07.088.106.243.106.464 0 .212-.036.358-.106.438-.831.088-1.318.278-1.459.57-.133.291-.018.822.345 1.59l4.972 11.325h.133l3.036-6.166-2.294-4.853C10.21 2.665 9.847 2.02 9.6 1.737c-.248-.283-.65-.46-1.207-.53-.088-.089-.132-.24-.132-.451 0-.212.035-.363.106-.451 1.158.035 1.962.053 2.413.053.345 0 1.167-.018 2.466-.053.089.088.133.243.133.464.009.212-.035.358-.133.438-.548.08-.83.27-.848.57-.018.291.172.822.57 1.59l1.34 2.746.119.119 1.432-2.692c.309-.557.503-.985.583-1.286.08-.3.062-.535-.053-.703-.115-.176-.362-.291-.743-.344-.088-.071-.137-.217-.145-.438 0-.221.048-.376.145-.464 1.344.035 2.056.053 2.135.053.416 0 1.079-.018 1.99-.053.088.088.132.243.132.464 0 .212-.044.358-.133.438-.636.097-1.136.344-1.498.742-.363.398-.752.99-1.167 1.777l-1.989 3.779 3.474 7.187h.12L23.866 3.54c.363-.725.464-1.277.305-1.657-.15-.38-.64-.606-1.471-.676-.089-.071-.133-.217-.133-.438s.044-.376.133-.464c1.706.035 2.603.053 2.691.053.142 0 .937-.018 2.387-.053Zm5.649 5.025c.088.071.132.217.132.438 0 .212-.044.362-.132.45-.867.071-1.41.23-1.631.478-.221.248-.332.915-.332 2.002v5.861c0 1.087.106 1.76.318 2.016.221.247.77.402 1.645.464.088.088.132.243.132.464 0 .212-.044.353-.132.424a174.87 174.87 0 0 0-3.024-.053c-.503 0-1.516.018-3.036.053-.07-.07-.106-.212-.106-.424 0-.221.035-.376.106-.464.866-.071 1.405-.23 1.618-.478.22-.247.331-.915.331-2.002V8.7c0-1.088-.11-1.755-.331-2.003-.213-.256-.752-.415-1.618-.477-.07-.089-.106-.239-.106-.451 0-.221.035-.367.106-.438 1.452.033 2.423.051 2.912.053h.098c.504 0 1.52-.017 3.05-.053Zm4.11 3.368c0-1.087-.11-1.75-.331-1.989-.213-.247-.752-.41-1.618-.49-.07-.089-.106-.239-.106-.451 0-.221.035-.367.106-.438 1.52.036 2.533.053 3.036.053.177 0 1.048-.017 2.613-.053.07.071.106.217.106.438 0 .212-.036.362-.106.45-.69.071-1.123.23-1.3.478-.168.248-.252.915-.252 2.002v2.414c.866 0 1.817-.58 2.851-1.737 1.344-1.52 1.95-2.458 1.817-2.811-.08-.195-.35-.31-.81-.345-.088-.089-.132-.239-.132-.451 0-.221.044-.367.133-.438 1.556.036 2.55.053 2.983.053.292 0 .928-.017 1.91-.053.088.071.132.217.132.438 0 .212-.044.362-.132.45-1.344.071-2.316.452-2.918 1.141l-2.333 2.692c-.416.433-.623.769-.623 1.008 0 .106.084.26.251.464l4.018 4.72c.38.433.96.698 1.737.796.07.088.106.234.106.437 0 .195-.035.336-.106.425-.884-.018-1.582-.027-2.095-.027-.725 0-1.286.018-1.684.053v-.384a1.54 1.54 0 0 0-.41-1.074l-3.01-3.753c-.346-.45-.907-.676-1.685-.676v2.52c0 1.086.084 1.754.252 2.001.177.24.61.398 1.3.478.07.088.106.243.106.464 0 .212-.036.353-.106.424a254.977 254.977 0 0 0-2.613-.053c-.503 0-1.516.018-3.036.053-.07-.07-.106-.212-.106-.424 0-.221.035-.376.106-.464.866-.071 1.405-.23 1.618-.478.22-.247.331-.915.331-2.002V8.7Zm17.211 0v5.861c0 1.087.106 1.76.318 2.016.221.247.77.402 1.645.464.088.088.132.243.132.464 0 .212-.044.353-.132.424a174.87 174.87 0 0 0-3.024-.053c-.503 0-1.516.018-3.036.053-.07-.07-.106-.212-.106-.424 0-.221.035-.376.106-.464.866-.071 1.405-.23 1.618-.478.22-.247.331-.915.331-2.002V8.7c0-1.088-.11-1.755-.331-2.003-.213-.256-.752-.415-1.618-.477-.07-.089-.106-.239-.106-.451 0-.221.035-.367.106-.438 1.556.036 2.56.053 3.01.053.504 0 1.52-.017 3.05-.053.088.071.132.217.132.438 0 .212-.044.362-.132.45-.867.071-1.41.23-1.631.478-.221.248-.332.915-.332 2.002Zm8.142-1.365v3.341h2.121c.884 0 1.53-.186 1.936-.557.407-.371.61-.963.61-1.777 0-1.414-.866-2.121-2.599-2.121-.884 0-1.45.075-1.697.225-.248.142-.371.438-.371.889Zm0 4.243v4.07c0 .54.119.906.358 1.1.247.195.8.293 1.657.293 2.14 0 3.204-.915 3.196-2.745 0-1.812-1.03-2.718-3.09-2.718h-2.121Zm-1.061 6.298c-.504 0-1.516.018-3.037.053-.088-.07-.132-.212-.132-.424 0-.221.044-.376.132-.464.867-.071 1.406-.23 1.618-.478.221-.247.332-.915.332-2.002V8.7c0-1.088-.111-1.755-.332-2.003-.212-.256-.751-.415-1.618-.477-.088-.089-.132-.239-.132-.451 0-.221.044-.367.132-.438 1.556.036 2.56.053 3.01.053.451 0 1.039-.008 1.764-.026a75.92 75.92 0 0 1 1.419-.027c1.794 0 3.014.275 3.66.823.653.539.98 1.26.98 2.16 0 .522-.19 1.053-.57 1.592-.38.53-.844.924-1.392 1.18 1.865.433 2.798 1.565 2.798 3.395 0 .963-.398 1.78-1.193 2.453-.796.663-2.025.994-3.687.994-.557 0-1.268-.009-2.134-.026-.858-.018-1.397-.027-1.618-.027Zm14.93-9.176v5.861c0 1.087.106 1.76.318 2.016.221.247.77.402 1.645.464.088.088.132.243.132.464 0 .212-.044.353-.132.424a174.87 174.87 0 0 0-3.024-.053c-.503 0-1.516.018-3.036.053-.07-.07-.106-.212-.106-.424 0-.221.035-.376.106-.464.866-.071 1.406-.23 1.618-.478.22-.247.331-.915.331-2.002V8.7c0-1.088-.11-1.755-.331-2.003-.212-.256-.752-.415-1.618-.477-.07-.089-.106-.239-.106-.451 0-.221.035-.367.106-.438 1.556.036 2.56.053 3.01.053.504 0 1.52-.017 3.05-.053.088.071.132.217.132.438 0 .212-.044.362-.132.45-.867.071-1.41.23-1.631.478-.221.248-.332.915-.332 2.002Zm10.886 5.861c0 1.087.106 1.76.319 2.016.22.247.764.402 1.63.464.089.088.133.243.133.464.009.212-.035.353-.132.424a175.61 175.61 0 0 0-3.01-.053c-.504 0-1.516.018-3.037.053-.07-.07-.11-.212-.12-.424 0-.221.04-.376.12-.464.866-.071 1.406-.23 1.618-.478.22-.247.331-.915.331-2.002V7.691c0-.363-.088-.681-.265-.955-.168-.283-.433-.424-.795-.424H83.27c-.601 0-1.03.163-1.286.49-.248.318-.518.986-.81 2.002-.256.018-.499-.008-.729-.08.142-.848.217-2.09.226-3.725.274-.036.5-.036.676 0 .088.256.332.384.73.384h8.711c.398 0 .645-.128.742-.384.257-.07.482-.07.677 0 0 1.485.07 2.727.212 3.726-.177.106-.42.132-.73.08-.273-1-.543-1.662-.808-1.99-.257-.335-.676-.503-1.26-.503h-.888a.92.92 0 0 0-.81.437 1.724 1.724 0 0 0-.278.968v6.842ZM98.241 8.7v5.86c0 1.087.106 1.76.318 2.016.221.247.77.402 1.644.464.089.088.133.243.133.464 0 .212-.044.353-.133.424a174.869 174.869 0 0 0-3.023-.053c-.504 0-1.516.018-3.036.053-.071-.07-.106-.212-.106-.424 0-.221.035-.376.106-.464.866-.071 1.405-.23 1.617-.478.221-.247.332-.915.332-2.002V8.7c0-1.088-.11-1.755-.332-2.003-.212-.256-.751-.415-1.617-.477-.071-.089-.106-.239-.106-.451 0-.221.035-.367.106-.438 1.555.036 2.559.053 3.01.053.503 0 1.52-.017 3.05-.053.088.071.132.217.132.438 0 .212-.044.362-.133.45-.866.071-1.41.23-1.63.478-.222.248-.332.915-.332 2.002Zm10.183 1.484h4.72l-2.638-7.24h-.053l-2.718 6.882a.437.437 0 0 0-.027.133c0 .15.239.225.716.225Zm-2.943 5.543c-.053.15-.08.283-.08.398a.67.67 0 0 0 .16.45c.114.115.282.204.503.266.221.062.42.106.597.132.177.018.41.04.703.067.08.08.119.23.119.45 0 .213-.04.359-.12.438a134.574 134.574 0 0 0-3.474-.053c-.274 0-1.082.018-2.426.053-.08-.08-.12-.225-.12-.437 0-.221.04-.372.12-.451.468-.036.835-.089 1.1-.16.266-.079.544-.256.836-.53.292-.283.552-.698.782-1.246L110.214.98c.16-.371.3-.627.425-.769a.646.646 0 0 1 .49-.212c.292 0 .54.274.743.822l5.569 14.718c.124.327.26.597.41.81.16.202.372.348.637.437.274.088.473.141.597.159.133.018.398.048.796.093.08.08.119.23.119.45 0 .213-.04.359-.12.438a126.516 126.516 0 0 0-3.102-.053c-1.034 0-2.219.018-3.554.053-.08-.08-.119-.225-.119-.437 0-.221.04-.372.12-.451.105-.01.256-.018.45-.027.203-.017.354-.03.451-.04.106-.008.234-.022.384-.04.15-.017.261-.039.332-.066.08-.026.16-.061.239-.106a.467.467 0 0 0 .185-.185.557.557 0 0 0 .053-.252c0-.115-.026-.248-.08-.398l-1.657-4.601h-5.648c-.327 0-.553.035-.677.106-.114.062-.207.181-.278.358l-1.498 3.938Z"/></svg>