<?xml version="1.0" encoding="UTF-8"?>
<svg width="121px" height="13px" viewBox="0 0 121 13" version="1.1" xmlns="http://www.w3.org/2000/svg" xmlns:xlink="http://www.w3.org/1999/xlink">
    <title>scn-tagline</title>
    <g id="Page-1" stroke="none" stroke-width="1" fill="none" fill-rule="evenodd">
        <path d="M5.04377495,8.73586189 C5.28535305,8.73586189 5.49889584,8.69274005 5.68440231,8.60643521 C5.87421178,8.515808 6.03167274,8.38642211 6.15678417,8.21817559 C6.28619758,8.04993927 6.39188991,7.8709072 6.47386218,7.68108957 C6.56013643,7.49127194 6.63994445,7.26479566 6.71328827,7.00164033 L7.1080182,7.06637405 C6.9181965,7.99388089 6.80387572,8.73158028 6.76505588,9.27945186 C5.95402081,9.26216235 5.42771525,9.25353798 5.18613613,9.25353798 L2.35184599,9.25353798 C2.05849314,9.25353798 1.49767502,9.26169341 0.669390309,9.27945186 L0.6435063,9.25353798 L0.6435063,9.00116821 C0.6435063,8.93215288 0.67801804,8.89763503 0.747042029,8.89763503 L1.14824299,8.87174154 C1.42433732,8.85012965 1.60552467,8.80486702 1.69180565,8.73585169 C1.77808398,8.66683637 1.82122386,8.52231196 1.82122528,8.30228866 L1.82122528,1.64365551 C1.82122386,1.45384807 1.76729852,1.32010922 1.65945071,1.24244914 C1.55159984,1.16048707 1.36609848,1.10872048 1.10294611,1.08714937 L0.747042029,1.06125588 C0.67801753,1.06126607 0.6435063,1.02679919 0.6435063,0.957712505 L0.6435063,0.705352925 L0.669390615,0.679459436 C1.49767533,0.696687781 2.05849314,0.705352925 2.35184599,0.705352925 C2.6538232,0.705352925 3.21895472,0.697197495 4.04724362,0.679459436 L4.07312691,0.705352925 L4.07312691,0.957712505 C4.07312385,1.02672783 4.03860906,1.06126607 3.96959169,1.06125588 L3.62662937,1.08714937 C3.35484559,1.10876126 3.16503,1.16044629 3.0571826,1.24244914 C2.94933112,1.32441121 2.8954064,1.45816026 2.89540844,1.64365551 L2.89540844,8.07581237 C2.8954064,8.27856655 2.95148721,8.44033969 3.06365393,8.5611318 C3.17581454,8.67761173 3.32680417,8.73585169 3.51662281,8.73585169 L5.04377495,8.73585169 M11.6442772,6.16688112 L10.5959783,6.44513419 C9.74180609,6.67809404 9.31472356,7.16341347 9.31472356,7.90110268 C9.31472356,8.13837471 9.40099781,8.35622663 9.57356263,8.55466862 C9.74612031,8.74879844 9.9855464,8.84586844 10.2918419,8.84586844 C10.5938181,8.84586844 10.9820767,8.65388962 11.4566187,8.26995238 C11.581721,8.18370871 11.6442772,8.06934919 11.6442772,7.92698597 L11.6442772,6.16688112 M11.6442772,8.61938196 L11.6183939,8.61938196 L11.3530835,8.82644832 C11.0597297,9.05509599 10.8203036,9.20392239 10.6348053,9.27294791 C10.4536151,9.34624483 10.2120319,9.38296465 9.91005464,9.38296465 C9.40963033,9.38296465 9.0105872,9.26863572 8.71292318,9.03999825 C8.41525713,8.81135058 8.26642462,8.44898445 8.26642462,7.95286927 C8.26642462,7.51284306 8.46271052,7.12458343 8.85528437,6.7880904 C9.25217039,6.44729538 9.77631884,6.19492561 10.4277338,6.03099128 L11.5666263,5.75273821 C11.6183929,5.73550986 11.6442762,5.68372288 11.6442762,5.59742824 C11.6442721,5.30839981 11.6205439,5.05603004 11.5730997,4.84032911 C11.5256453,4.62031601 11.4674033,4.44775731 11.3983829,4.32265302 C11.3293573,4.19754872 11.2430759,4.09832773 11.1395438,4.02497983 C11.0403228,3.94729936 10.9454109,3.89557355 10.8548204,3.86968006 C10.768536,3.84378657 10.6736302,3.83083982 10.570097,3.83083982 C10.2853716,3.83085002 10.0308467,3.8826268 9.80652146,3.98614979 C9.58219209,4.08969316 9.47002843,4.23851956 9.47003047,4.43264937 C9.47002843,4.55344148 9.47869561,4.63972593 9.49591376,4.69148233 C9.52179706,4.74755091 9.53473361,4.82738237 9.5347438,4.93091555 C9.53474176,5.03444873 9.48081602,5.13366973 9.37296964,5.22857854 C9.26943238,5.32348736 9.12922729,5.37094176 8.95235539,5.37094176 C8.64606089,5.37094176 8.49291517,5.21564199 8.49291517,4.90502206 C8.49291517,4.6720724 8.59860751,4.44127374 8.80999421,4.21263627 C9.02137785,3.9839988 9.29747279,3.79849335 9.63828004,3.65613013 C9.9790822,3.50945473 10.3242016,3.43611702 10.6736373,3.43611702 C10.8850189,3.43611702 11.0769916,3.45334537 11.2495544,3.487904 C11.4264243,3.52246264 11.6032972,3.58923522 11.7801752,3.68850719 C11.9570441,3.783416 12.1037195,3.91068148 12.2202014,4.07029344 C12.3409895,4.22991559 12.4380533,4.4477675 12.5113961,4.72385938 C12.589046,4.99564927 12.6278689,5.31272219 12.627874,5.67509852 L12.627874,7.6487431 C12.6278689,7.77384739 12.6278689,7.87522958 12.627874,7.95287946 C12.6321556,8.02617639 12.6386494,8.11465261 12.647284,8.21818579 C12.6602205,8.3173762 12.6774794,8.39721786 12.6990505,8.45761901 C12.7206115,8.51368759 12.7486559,8.57193775 12.7831738,8.6323287 C12.8219937,8.69267888 12.8716092,8.73587208 12.9320063,8.76175537 C12.9967095,8.78764886 13.0700482,8.80059561 13.1520194,8.80059561 C13.246918,8.80059561 13.324573,8.78336726 13.3849752,8.74880863 C13.4453662,8.71425 13.4906614,8.67979331 13.520865,8.64527545 C13.5510605,8.61071682 13.5747826,8.59348847 13.5920518,8.59348847 C13.6179249,8.59348847 13.6481305,8.61510036 13.6826484,8.65822219 C13.7214682,8.70134403 13.7408883,8.74446586 13.7408883,8.78763867 C13.7408883,8.80486702 13.7236294,8.83504211 13.6891218,8.87826588 C13.6546039,8.92138772 13.6028373,8.9710339 13.5338189,9.02709228 C13.4691056,9.08316086 13.3936087,9.13926002 13.3073345,9.1953388 C13.22105,9.24712578 13.1175138,9.29024761 12.9967268,9.32475527 C12.8802438,9.36359551 12.7616098,9.38296465 12.6408228,9.38296465 C12.1188264,9.38296465 11.7866496,9.12844388 11.6442915,8.61939215 M20.0955809,3.43612722 L20.0567508,4.61384264 L20.0955809,4.61384264 C20.4881516,4.15225551 20.8505259,3.84164577 21.1827058,3.68202362 C21.5191937,3.51809948 21.8772548,3.43612722 22.256889,3.43612722 C22.5459215,3.43612722 22.7875047,3.4879142 22.9816396,3.59142699 C23.1800776,3.69497036 23.3310672,3.84811914 23.4346085,4.05086313 C23.5381386,4.24931531 23.6093192,4.46716723 23.6481503,4.70443927 C23.6912823,4.93739912 23.7128534,5.213491 23.7128636,5.5327251 L23.7128636,8.30229885 C23.7128575,8.49211648 23.7538447,8.63016752 23.8358118,8.71644177 C23.9177739,8.79840384 24.0622901,8.85018062 24.2693677,8.87175173 L24.5217365,8.89764522 C24.5993864,8.91487357 24.6382144,8.9494322 24.6382144,9.0011784 L24.6382144,9.25354818 L24.6123311,9.27944167 C23.9048271,9.26216235 23.4324453,9.25353798 23.1951814,9.25353798 C23.0269308,9.25353798 22.5890617,9.26169341 21.8815721,9.27944167 L21.8556888,9.25353798 L21.8556888,9.00116821 C21.8556847,8.94509963 21.8923576,8.910541 21.9656953,8.89763503 L22.1468825,8.87174154 C22.3668915,8.83718291 22.515724,8.78111433 22.59338,8.70349502 C22.6753421,8.62153295 22.7163241,8.4877941 22.7163292,8.30228866 L22.7163292,5.4356449 C22.7163241,4.94386229 22.6559281,4.59442252 22.5351411,4.38734596 C22.4186591,4.17596742 22.1921747,4.07027305 21.8556888,4.07027305 C21.5493912,4.07027305 21.2603546,4.14581272 20.988577,4.29675953 C20.7167922,4.44774711 20.4191272,4.71306363 20.0955809,5.09268869 L20.0955809,8.30228866 C20.0955788,8.49210628 20.1344007,8.62584514 20.2120588,8.70349502 C20.2940208,8.78117549 20.4450115,8.83722368 20.6650276,8.87174154 L20.8526861,8.89763503 C20.9217116,8.91058177 20.9562183,8.94503846 20.9562213,9.00116821 L20.9562213,9.25353798 L20.930338,9.27944167 C20.2228412,9.26216235 19.7720295,9.25353798 19.5779027,9.25353798 C19.366515,9.25353798 18.9070758,9.26169341 18.1995831,9.27944167 L18.1736988,9.25353798 L18.1736988,9.00116821 C18.1736988,8.94509963 18.2082065,8.910541 18.277235,8.89763503 L18.5296028,8.87174154 C18.7496159,8.85012965 18.8984484,8.79844461 18.9761013,8.71643157 C19.0580634,8.6344695 19.0990485,8.49641847 19.0990495,8.30228866 L19.0990495,5.00209206 C19.0990485,4.68718034 19.0753172,4.4757916 19.027873,4.36793604 C18.9847308,4.25577849 18.9113941,4.19322635 18.8078589,4.1802796 L18.2384131,4.12207022 L18.2125299,3.80498711 C19.0580705,3.67558083 19.6684994,3.53969098 20.0438184,3.39731757 C20.078326,3.39731757 20.0955849,3.41026431 20.0955849,3.4361578 M30.4880786,8.04993927 C30.2766889,8.39936885 30.0480473,8.67546073 29.802155,8.87822511 C29.5605667,9.08097928 29.3254548,9.21470794 29.0968174,9.27942128 C28.872487,9.3484366 28.615804,9.38295446 28.3267705,9.38295446 C27.50711,9.38295446 26.8686408,9.11980932 26.4113597,8.59349866 C25.9583898,8.06718801 25.7319064,7.36832884 25.7319064,6.49690078 C25.7319064,6.03961564 25.8073951,5.61684836 25.9583909,5.22858874 C26.1093795,4.84032911 26.3121367,4.51678283 26.5666636,4.25793968 C26.8211874,3.99910673 27.1123811,3.79850355 27.4402457,3.65614032 C27.7724204,3.50946492 28.1175389,3.43612722 28.475603,3.43612722 C29.0838716,3.43612722 29.5648809,3.56986607 29.9186329,3.83732339 C30.2723747,4.10047872 30.4492476,4.41756183 30.4492527,4.78856252 C30.4492476,4.96543341 30.3845393,5.10564563 30.2551239,5.20916862 C30.1256993,5.30835903 29.9833371,5.35800521 29.8280383,5.35800521 C29.5433108,5.35800521 29.3836938,5.20270544 29.3491861,4.8920957 C29.3319272,4.75405486 29.3103561,4.63973612 29.2844728,4.5491293 C29.2585895,4.45422049 29.2132861,4.3506975 29.1485819,4.23852976 C29.0881808,4.12204983 28.9954321,4.03577558 28.8703299,3.97968661 C28.7452205,3.91933643 28.5899177,3.8890594 28.4044193,3.8890594 C27.9557616,3.88906959 27.5847589,4.09829714 27.2914101,4.51675224 C27.0023715,4.93089516 26.8578532,5.49387467 26.8578542,6.20567039 C26.8578532,6.97356526 27.0217845,7.59909692 27.3496491,8.08225516 C27.6818238,8.56111141 28.1045941,8.80053444 28.6179621,8.80053444 C28.9069957,8.80053444 29.1938751,8.71857237 29.4786026,8.55463804 C29.7633209,8.38639153 30.0070612,8.15560306 30.2098235,7.86224206 C30.3478664,7.8794704 30.4406171,7.94206332 30.4880786,8.04990869 M32.4618282,2.14839505 C32.3367209,2.02330096 32.2741697,1.87446436 32.2741697,1.70190566 C32.2741697,1.52934696 32.3367219,1.38052057 32.4618282,1.25540608 C32.5869325,1.1259896 32.735765,1.06127627 32.9083258,1.06127627 C33.0808835,1.06127627 33.229716,1.12386919 33.3548233,1.24893271 C33.4842408,1.37404719 33.5489531,1.52503478 33.5489531,1.70190566 C33.5489531,1.87446436 33.4842398,2.02330096 33.3548233,2.14839505 C33.229716,2.27350954 33.0808835,2.33606169 32.9083258,2.33606169 C32.735765,2.33606169 32.5869325,2.27346876 32.4618282,2.14839505 M33.5230688,3.43612722 C33.4928733,4.03577558 33.4777654,4.55776386 33.4777756,5.00210226 L33.4777756,8.30229885 C33.4777725,8.49211648 33.5187566,8.63016752 33.6007238,8.71644177 C33.686998,8.79840384 33.8336765,8.85018062 34.040751,8.87175173 L34.2866485,8.89764522 C34.3686105,8.91059197 34.4095967,8.94504866 34.4095967,9.0011784 L34.4095967,9.25354818 L34.3837134,9.27944167 C33.6762135,9.26216235 33.2038317,9.25353798 32.9665647,9.25353798 C32.755178,9.25353798 32.2957378,9.26169341 31.5882451,9.27944167 L31.5623608,9.25353798 L31.5623608,9.00116821 C31.5623608,8.94509963 31.5968684,8.910541 31.665897,8.89763503 L31.9182658,8.87174154 C32.1425921,8.84156645 32.2935817,8.78763867 32.3712347,8.7099684 C32.4488845,8.62800633 32.4877105,8.49210628 32.4877115,8.30228866 L32.4877115,5.00209206 C32.4877105,4.68718034 32.4639792,4.4757916 32.416535,4.36793604 C32.3733928,4.25577849 32.3000561,4.19322635 32.1965219,4.1802796 L31.6270751,4.12207022 L31.6011918,3.80498711 C32.4898727,3.67125845 33.1110861,3.5353686 33.464835,3.39731757 C33.5036548,3.39731757 33.5230749,3.41026431 33.5230749,3.4361578 M40.3371159,8.04993927 C40.1257251,8.39936885 39.8970836,8.67546073 39.6511913,8.87822511 C39.409604,9.08097928 39.1744911,9.21470794 38.9458536,9.27942128 C38.7215232,9.3484366 38.4648413,9.38295446 38.1758067,9.38295446 C37.3561473,9.38295446 36.7176771,9.11980932 36.260396,8.59349866 C35.8074261,8.06718801 35.5809427,7.36832884 35.5809427,6.49690078 C35.5809427,6.03961564 35.6564416,5.61684836 35.8074271,5.22858874 C35.9584157,4.84032911 36.161173,4.51678283 36.4156998,4.25793968 C36.6702237,3.99910673 36.9614174,3.79850355 37.289282,3.65614032 C37.6214567,3.50946492 37.9665761,3.43612722 38.3246392,3.43612722 C38.9329079,3.43612722 39.4139172,3.56986607 39.7676691,3.83732339 C40.1214109,4.10047872 40.2982838,4.41756183 40.2982899,4.78856252 C40.2982838,4.96543341 40.2335766,5.10564563 40.1041601,5.20916862 C39.9747355,5.30835903 39.8323743,5.35800521 39.6770756,5.35800521 C39.3923481,5.35800521 39.23273,5.20270544 39.1982224,4.8920957 C39.1809635,4.75405486 39.1593923,4.63973612 39.133509,4.5491293 C39.1076257,4.45422049 39.0623223,4.3506975 38.9976192,4.23852976 C38.937218,4.12204983 38.8444684,4.03577558 38.7193661,3.97968661 C38.5942578,3.91933643 38.4389539,3.8890594 38.2534556,3.8890594 C37.8047979,3.88906959 37.4337952,4.09829714 37.1404464,4.51675224 C36.8514078,4.93089516 36.7068895,5.49387467 36.7068905,6.20567039 C36.7068895,6.97356526 36.8708207,7.59909692 37.1986853,8.08225516 C37.5308601,8.56111141 37.9536304,8.80053444 38.4669984,8.80053444 C38.7560319,8.80053444 39.0429114,8.71857237 39.3276389,8.55463804 C39.6123582,8.38639153 39.8560975,8.15560306 40.0588598,7.86224206 C40.1969027,7.8794704 40.2896533,7.94206332 40.3371159,8.04990869 M42.2461532,8.30229885 L42.2461532,1.7924921 C42.2461511,1.38267156 42.2137965,1.10873068 42.1490934,0.970679638 C42.0886922,0.828326612 41.9873172,0.757150098 41.844957,0.757139904 L41.4243428,0.731246415 C41.368264,0.731256609 41.3402195,0.709634526 41.3402195,0.666512691 L41.3143362,0.349429582 C41.5904311,0.327817693 41.9161366,0.282555058 42.2914546,0.213539734 C42.6667705,0.140242809 42.9385512,0.0690357129 43.1067987,0 C43.2189604,0 43.2750422,0.0452626351 43.2750442,0.135889848 C43.2491609,0.489652002 43.2362142,0.953400321 43.2362142,1.52715519 L43.2362142,8.30226827 C43.2362122,8.49639808 43.275034,8.63444912 43.3526921,8.71641119 C43.430342,8.79837325 43.5770164,8.85015004 43.7927183,8.87172115 L44.1097973,8.89761464 C44.183135,8.89761464 44.2198039,8.93217327 44.2198039,9.00114782 L44.2198039,9.25351759 L44.1939206,9.27943147 C43.3052346,9.26216235 42.8134408,9.25353798 42.718534,9.25353798 C42.6365618,9.25353798 42.1555576,9.26169341 41.2755051,9.27943147 L41.2625584,9.25353798 L41.2625584,9.00116821 C41.2625584,8.93215288 41.2927539,8.89763503 41.353155,8.89763503 L41.670233,8.87174154 C41.8902461,8.85012965 42.0412348,8.79844461 42.1232019,8.71643157 C42.205164,8.6344695 42.2461491,8.49641847 42.2461511,8.30228866 M49.5131681,4.58795934 C49.513163,4.36794623 49.4721769,4.21480765 49.3902189,4.1285232 C49.3125588,4.03789599 49.1594162,3.97969681 48.9307797,3.95380332 L48.7172369,3.92790983 L48.6784069,3.90201634 L48.6784069,3.56552331 L48.7172369,3.53962982 C49.372959,3.55685816 49.8108281,3.56552331 50.0308463,3.56552331 C50.2508543,3.5655335 50.404001,3.55736788 50.4902865,3.53962982 C50.5291063,3.53962982 50.5485163,3.54778525 50.5485264,3.56552331 C50.522633,4.16085948 50.5096964,4.59010014 50.5096964,4.85324528 L50.5096964,7.71342585 C50.5096903,8.04128432 50.5291063,8.24836088 50.5679364,8.33463513 C50.6067562,8.4208788 50.6973498,8.47052498 50.8397171,8.48347172 L51.4738731,8.54820545 L51.5127032,8.85880499 C50.6542137,9.00980277 50.0890822,9.19529802 49.8173055,9.41531113 L49.5131702,9.41531113 L49.5390535,8.40584223 L49.5131702,8.40584223 C49.1680467,8.77684292 48.8466544,9.03352488 48.5489935,9.1758881 C48.2556386,9.31392894 47.9579736,9.38295446 47.6559974,9.38295446 C47.3410744,9.38295446 47.0714498,9.33330828 46.8471245,9.23412806 C46.6227951,9.13493765 46.4502364,8.99685603 46.3294464,8.81998514 C46.2129675,8.64311426 46.1288442,8.45544763 46.0770776,8.25700563 C46.025311,8.05425145 45.9994277,7.82992616 45.9994277,7.58401957 L45.9994277,4.58795934 C45.9994267,4.36794623 45.9584467,4.21480765 45.8764795,4.1285232 C45.7988296,4.03789599 45.6456798,3.97969681 45.4170393,3.95380332 L45.2034975,3.92790983 L45.1646675,3.90201634 L45.1646675,3.56552331 L45.2034975,3.53962982 C45.8592226,3.55685816 46.2970917,3.56552331 46.5171069,3.56552331 C46.7414322,3.5655335 46.896736,3.55736788 46.9830174,3.53962982 C47.0175251,3.53962982 47.034784,3.54778525 47.034784,3.56552331 C47.0089007,4.16085948 46.995954,4.59010014 46.995954,4.85324528 L46.995954,7.39634274 C46.9959519,7.676757 47.0283106,7.91618003 47.093024,8.11462202 C47.1577271,8.30875183 47.2440116,8.45111506 47.351863,8.54171169 C47.4597104,8.6323389 47.5654028,8.69701146 47.6689421,8.7358415 C47.7724742,8.77040013 47.8824808,8.78762848 47.9989617,8.78762848 C48.2707394,8.78762848 48.5425211,8.69271966 48.8143059,8.50290203 C49.0903968,8.30877222 49.3233515,8.09954467 49.5131722,7.87521938 L49.5131722,4.58795934 M54.1529563,5.13151873 L54.1529563,8.36701219 C54.4765066,8.74664744 54.8431951,8.93645488 55.2530269,8.93645488 C55.5248045,8.93645488 55.7663877,8.8868087 55.9777775,8.78762848 C56.1934723,8.68409529 56.366032,8.55251763 56.4954556,8.39289548 C56.6248711,8.23328353 56.7305634,8.0434659 56.8125336,7.82345279 C56.8988079,7.60343969 56.9570479,7.38558777 56.9872505,7.16987665 C57.017446,6.95418592 57.0325437,6.72986063 57.0325437,6.49690078 C57.0325437,5.76783595 56.8858632,5.17682215 56.5925165,4.72384919 C56.3034748,4.27088643 55.9497279,4.04439995 55.5312749,4.04439995 C55.2896886,4.04439995 55.0330066,4.14359036 54.761228,4.34206294 C54.4937584,4.53619275 54.2910012,4.79934808 54.1529563,5.13151873 M53.1628952,5.00210226 C53.1628942,4.69150272 53.1391629,4.48011398 53.0917187,4.36794623 C53.0442643,4.25578869 52.9709256,4.19323654 52.8717056,4.1802898 L52.3022588,4.12208042 L52.2763756,3.80499731 C53.1003461,3.67990321 53.7086189,3.54401336 54.1011927,3.39732776 C54.1357004,3.39732776 54.1529593,3.41027451 54.1529593,3.436168 L54.1141293,4.49740349 L54.1529593,4.49740349 C54.6188668,3.78991996 55.1990981,3.436168 55.8936532,3.436168 C56.3077921,3.436168 56.6874222,3.56343348 57.0325468,3.81795425 C57.3776601,4.07248521 57.6451276,4.40681705 57.8349483,4.82095997 C58.0247577,5.23510289 58.1196717,5.6751291 58.1196717,6.14103861 C58.1196717,7.18071318 57.8090589,8.01546219 57.1878496,8.64530603 C56.7003649,9.13709883 56.0834647,9.38299524 55.3371491,9.38299524 C54.9100615,9.38299524 54.5153316,9.28594562 54.1529593,9.09180562 L54.1529593,11.3890067 C54.1529573,11.5745019 54.1939403,11.7082408 54.2759075,11.7902029 C54.3621818,11.8764465 54.5067031,11.9282539 54.7094634,11.9455026 L54.9618322,11.9713961 C55.0437942,11.9843429 55.0847773,12.0187996 55.0847804,12.0749293 L55.0847804,12.3272991 L55.0588971,12.3531926 C54.4031689,12.3359642 53.9307881,12.3272991 53.6417525,12.3272991 C53.3699698,12.3272889 52.9105306,12.3354545 52.2634329,12.3531926 L52.2310762,12.3272991 L52.2310762,12.0749293 C52.2310762,12.0188607 52.2677451,11.9843021 52.3410828,11.9713961 L52.5934505,11.9455026 C52.8048352,11.9282743 52.9515116,11.8764873 53.0334777,11.7902029 C53.119752,11.7082408 53.1628963,11.5745019 53.1628973,11.3890067 L53.1628973,5.00214303 M60.3328494,2.14839505 C60.207743,2.02330096 60.1451909,1.87446436 60.1451909,1.70190566 C60.1451909,1.52934696 60.207743,1.38052057 60.3328494,1.25540608 C60.4579537,1.1259896 60.6067862,1.06127627 60.7793479,1.06127627 C60.9519056,1.06127627 61.1007381,1.12386919 61.2258455,1.24893271 C61.355263,1.37404719 61.4199753,1.52503478 61.4199753,1.70190566 C61.4199753,1.87446436 61.355262,2.02330096 61.2258455,2.14839505 C61.1007381,2.27350954 60.9519056,2.33606169 60.7793479,2.33606169 C60.6067862,2.33606169 60.4579537,2.27346876 60.3328494,2.14839505 M61.394091,3.43612722 C61.3638955,4.03577558 61.3487876,4.55776386 61.3487978,5.00210226 L61.3487978,8.30229885 C61.3487957,8.49211648 61.3897788,8.63016752 61.471747,8.71644177 C61.5580212,8.79840384 61.7046997,8.85018062 61.9117742,8.87175173 L62.1576716,8.89764522 C62.2396337,8.91059197 62.2806198,8.94504866 62.2806198,9.0011784 L62.2806198,9.25354818 L62.2547365,9.27944167 C61.5472347,9.26216235 61.0748538,9.25353798 60.8375869,9.25353798 C60.6261992,9.25353798 60.16676,9.26169341 59.4592673,9.27944167 L59.4333829,9.25353798 L59.4333829,9.00116821 C59.4333829,8.94509963 59.4678906,8.910541 59.5369192,8.89763503 L59.7892869,8.87174154 C60.0136132,8.84156645 60.1646028,8.78763867 60.2422558,8.7099684 C60.3199057,8.62800633 60.3587327,8.49210628 60.3587337,8.30228866 L60.3587337,5.00209206 C60.3587327,4.68718034 60.3350014,4.4757916 60.2875572,4.36793604 C60.2444149,4.25577849 60.1710783,4.19322635 60.0675441,4.1802796 L59.4980973,4.12207022 L59.472214,3.80498711 C60.3608949,3.67125845 60.9821082,3.5353686 61.3358571,3.39731757 C61.374677,3.39731757 61.3940971,3.41026431 61.3940971,3.4361578 M67.5028004,8.00463586 L67.5028004,4.67855597 C67.3345498,4.41540064 67.1512056,4.22127083 66.9527666,4.09616654 C66.7543196,3.96675006 66.506265,3.90203673 66.2086041,3.90203673 C65.6779802,3.90203673 65.2659944,4.12204983 64.9726456,4.56207604 C64.7267462,4.915828 64.6038,5.50252962 64.6038,6.32218089 C64.6038,7.09870014 64.7461592,7.70049949 65.0308846,8.12758916 C65.3199191,8.55035644 65.6585672,8.76174518 66.0468289,8.76174518 C66.3919443,8.76174518 66.8772678,8.50937541 67.5028004,8.00463586 M68.4993318,1.52718578 L68.4993318,7.71344624 C68.4993256,8.04130471 68.5187417,8.24838127 68.5575717,8.33465552 C68.5963916,8.42089919 68.6869851,8.47054537 68.8293524,8.48349211 L69.4699798,8.54822583 L69.5088098,8.85882538 C68.6503204,9.00982316 68.0851888,9.19531841 67.8134122,9.41533152 L67.5028055,9.41533152 L67.5351622,8.4835125 L67.5028055,8.47056576 C66.7521675,9.07883848 66.1525233,9.38297485 65.7038717,9.38297485 C65.0050033,9.38297485 64.4592848,9.12198071 64.066713,8.59999243 C63.6741391,8.07799395 63.4778542,7.39854471 63.4778542,6.56162431 C63.4778542,5.59960982 63.7733611,4.82310077 64.364378,4.23207677 C64.6447861,3.96460926 64.9402941,3.76616727 65.2509028,3.6367406 C65.5658216,3.50302213 65.9325102,3.43614761 66.3509704,3.43614761 C66.4976427,3.43614761 66.6896144,3.4641819 66.9268874,3.52025048 C67.1684666,3.57631906 67.3604393,3.64535477 67.5028055,3.72731684 L67.5028055,1.7924921 C67.5028004,1.38267156 67.4725999,1.10873068 67.4122089,0.970679638 C67.3518077,0.828326612 67.2504296,0.757150098 67.1080725,0.757139904 L66.680987,0.731246415 C66.6292204,0.731256609 66.6033371,0.709634526 66.6033371,0.666512691 L66.5774538,0.349429582 C66.8535446,0.327817693 67.1792511,0.282555058 67.5545721,0.213539734 C67.929884,0.140242809 68.2016647,0.0690357129 68.3699163,0 C68.4820739,0 68.5381557,0.0452626351 68.5381618,0.135889848 C68.5122683,0.489652002 68.4993318,0.953400321 68.4993318,1.52715519 M71.3596071,0.36240691 L72.2849579,2.03192532 C72.3367245,2.1354687 72.3626078,2.24115287 72.3626078,2.34899824 C72.3626078,2.38355687 72.3431877,2.41801356 72.3043678,2.45253142 C72.2655378,2.48270651 72.2202446,2.49779405 72.1684769,2.49779405 C72.1037636,2.49779405 71.9743461,2.40940958 71.7802183,2.23247754 L70.2724792,0.782982422 L70.2983625,0.640619202 C70.5701432,0.437865024 70.8570237,0.336482837 71.159004,0.336482837 C71.2237071,0.336482837 71.2905796,0.344638267 71.3596041,0.362376327 M72.4337873,3.43609664 C72.4035817,4.035745 72.3884839,4.55773328 72.3884941,5.00207167 L72.3884941,8.30226827 C72.3884921,8.4920859 72.4294752,8.63013693 72.5114433,8.71641119 C72.5977176,8.79837325 72.7443961,8.85015004 72.9514706,8.87172115 L73.197367,8.89761464 C73.279329,8.91056138 73.3203162,8.94501808 73.3203162,9.00114782 L73.3203162,9.25351759 L73.2944329,9.27943147 C72.5869341,9.26216235 72.1145532,9.25353798 71.8772863,9.25353798 C71.6658986,9.25353798 71.2064594,9.26169341 70.4989667,9.27943147 L70.4730824,9.25353798 L70.4730824,9.00116821 C70.4730824,8.94509963 70.50759,8.910541 70.5766186,8.89763503 L70.8289863,8.87174154 C71.0533127,8.84156645 71.2043023,8.78763867 71.2819552,8.7099684 C71.3596051,8.62800633 71.3984321,8.49210628 71.3984331,8.30228866 L71.3984331,5.00209206 C71.3984321,4.68718034 71.3747008,4.4757916 71.3272566,4.36793604 C71.2841144,4.25577849 71.2107777,4.19322635 71.1072425,4.1802796 L70.5377967,4.12207022 L70.5119134,3.80498711 C71.4005943,3.67125845 72.0218077,3.5353686 72.3755566,3.39731757 C72.4143764,3.39731757 72.4337965,3.41026431 72.4337965,3.4361578 M77.8565671,6.16688112 L76.8082681,6.44513419 C75.9540969,6.67809404 75.5270134,7.16341347 75.5270134,7.90110268 C75.5270134,8.13837471 75.6132877,8.35622663 75.7858525,8.55466862 C75.9584102,8.74879844 76.1978362,8.84586844 76.5041318,8.84586844 C76.806109,8.84586844 77.1943676,8.65388962 77.6689086,8.26995238 C77.7940108,8.18370871 77.8565671,8.06934919 77.8565671,7.92698597 L77.8565671,6.16688112 M77.8565671,8.61938196 L77.8306838,8.61938196 L77.5653734,8.82644832 C77.2720185,9.05509599 77.0325924,9.20392239 76.8470941,9.27294791 C76.6659039,9.34624483 76.4243207,9.38296465 76.1223445,9.38296465 C75.6219202,9.38296465 75.222876,9.26863572 74.925212,9.03999825 C74.627546,8.81135058 74.4787145,8.44898445 74.4787145,7.95286927 C74.4787145,7.51284306 74.6750004,7.12458343 75.0675742,6.7880904 C75.4644592,6.44729538 75.9886087,6.19492561 76.6400226,6.03099128 L77.7789162,5.75273821 C77.8306827,5.73550986 77.856566,5.68372288 77.856566,5.59742824 C77.856563,5.30839981 77.8328337,5.05603004 77.7853895,4.84032911 C77.7379351,4.62031601 77.6796931,4.44775731 77.6106737,4.32265302 C77.5416482,4.19754872 77.4553658,4.09832773 77.3518336,4.02497983 C77.2526126,3.94729936 77.1577018,3.89557355 77.0671102,3.86968006 C76.9808258,3.84378657 76.88592,3.83083982 76.7823879,3.83083982 C76.4976614,3.83085002 76.2431366,3.8826268 76.0188113,3.98614979 C75.7944819,4.08969316 75.6823183,4.23851956 75.6823203,4.43264937 C75.6823183,4.55344148 75.6909855,4.63972593 75.7082036,4.69148233 C75.7340869,4.74755091 75.7470235,4.82738237 75.7470336,4.93091555 C75.7470316,5.03444873 75.6931059,5.13366973 75.5852585,5.22857854 C75.4817212,5.32348736 75.3415171,5.37094176 75.1646442,5.37094176 C74.8583507,5.37094176 74.705204,5.21564199 74.705205,4.90502206 C74.705204,4.6720724 74.8108963,4.44127374 75.022283,4.21263627 C75.2336677,3.9839988 75.5097626,3.79849335 75.8505689,3.65613013 C76.191372,3.50945473 76.5364905,3.43611702 76.8859262,3.43611702 C77.0973088,3.43611702 77.2892805,3.45334537 77.4618432,3.487904 C77.6387141,3.52246264 77.815587,3.58923522 77.992464,3.68850719 C78.1693339,3.783416 78.3160093,3.91068148 78.4324913,4.07029344 C78.5532783,4.22991559 78.6503432,4.4477675 78.723685,4.72385938 C78.8013349,4.99564927 78.8401578,5.31272219 78.8401629,5.67509852 L78.8401629,7.6487431 C78.8401578,7.77384739 78.8401578,7.87522958 78.8401629,7.95287946 C78.8444445,8.02617639 78.8509382,8.11465261 78.8595728,8.21818579 C78.8725093,8.3173762 78.8897683,8.39721786 78.9113394,8.45761901 C78.9329003,8.51368759 78.9609448,8.57193775 78.9954626,8.6323287 C79.0342825,8.69267888 79.0838981,8.73587208 79.1442951,8.76175537 C79.2089983,8.78764886 79.282338,8.80059561 79.3643082,8.80059561 C79.4592069,8.80059561 79.5368629,8.78336726 79.597264,8.74880863 C79.657655,8.71425 79.7029513,8.67979331 79.7331549,8.64527545 C79.7633504,8.61071682 79.7870725,8.59348847 79.8043314,8.59348847 C79.8302045,8.59348847 79.8604102,8.61510036 79.894928,8.65822219 C79.9337479,8.70134403 79.953168,8.74446586 79.953168,8.78763867 C79.953168,8.80486702 79.9359091,8.83504211 79.9014014,8.87826588 C79.8668835,8.92138772 79.815117,8.9710339 79.7460976,9.02709228 C79.6813842,9.08316086 79.6058874,9.13926002 79.5196131,9.1953388 C79.4333287,9.24712578 79.3297924,9.29024761 79.2090064,9.32475527 C79.0925235,9.36359551 78.9738885,9.38296465 78.8531025,9.38296465 C78.331105,9.38296465 77.9989282,9.12844388 77.8565701,8.61939215 M85.3695814,8.30229885 L85.3695814,1.7924921 C85.3695804,1.38267156 85.3372247,1.10873068 85.2725114,0.970679638 C85.2121102,0.828326612 85.1107362,0.757150098 84.968375,0.757139904 L84.5477608,0.731246415 C84.491682,0.731256609 84.4636375,0.709634526 84.4636375,0.666512691 L84.4377542,0.349429582 C84.7138491,0.327817693 85.0395546,0.282555058 85.4148726,0.213539734 C85.7901885,0.140242809 86.0619692,0.0690357129 86.2302167,0 C86.3423784,0 86.3984602,0.0452626351 86.3984622,0.135889848 C86.3725789,0.489652002 86.3596322,0.953400321 86.3596322,1.52715519 L86.3596322,8.30226827 C86.3596302,8.49639808 86.398452,8.63444912 86.4761101,8.71641119 C86.55376,8.79837325 86.7004354,8.85015004 86.9161373,8.87172115 L87.2332153,8.89761464 C87.306553,8.89761464 87.3432219,8.93217327 87.3432219,9.00114782 L87.3432219,9.25351759 L87.3173386,9.27943147 C86.4286628,9.26216235 85.936869,9.25353798 85.8419632,9.25353798 C85.759991,9.25353798 85.2789858,9.26169341 84.3989333,9.27943147 L84.3859917,9.25353798 L84.3859917,9.00116821 C84.3859917,8.93215288 84.4161872,8.89763503 84.4765883,8.89763503 L84.7936663,8.87174154 C85.0136794,8.85012965 85.1646691,8.79844461 85.2466352,8.71643157 C85.3285973,8.6344695 85.3695834,8.49641847 85.3695844,8.30228866 M89.2716854,0.36240691 L90.1970361,2.03192532 C90.2488027,2.1354687 90.274686,2.24115287 90.274686,2.34899824 C90.274686,2.38355687 90.2552659,2.41801356 90.216446,2.45253142 C90.177616,2.48270651 90.1323228,2.49779405 90.0805562,2.49779405 C90.0158429,2.49779405 89.8864244,2.40940958 89.6922966,2.23247754 L88.1845574,0.782982422 L88.2104407,0.640619202 C88.4822214,0.437865024 88.7691019,0.336482837 89.0710812,0.336482837 C89.1357945,0.336482837 89.2026568,0.344638267 89.2716823,0.362376327 M90.3458656,3.43609664 C90.3156701,4.035745 90.3005622,4.55773328 90.3005724,5.00207167 L90.3005724,8.30226827 C90.3005703,8.4920859 90.3415534,8.63013693 90.4235206,8.71641119 C90.5097948,8.79837325 90.6564733,8.85015004 90.8635478,8.87172115 L91.1094452,8.89761464 C91.1914073,8.91056138 91.2323944,8.94501808 91.2323944,9.00114782 L91.2323944,9.25351759 L91.2065111,9.27943147 C90.4990123,9.26216235 90.0266315,9.25353798 89.7893635,9.25353798 C89.5779768,9.25353798 89.1185376,9.26169341 88.4110439,9.27943147 L88.3851606,9.25353798 L88.3851606,9.00116821 C88.3851606,8.94509963 88.4196683,8.910541 88.4886958,8.89763503 L88.7410646,8.87174154 C88.9653909,8.84156645 89.1163805,8.78763867 89.1940335,8.7099684 C89.2716833,8.62800633 89.3105093,8.49210628 89.3105113,8.30228866 L89.3105113,5.00209206 C89.3105093,4.68718034 89.286779,4.4757916 89.2393348,4.36793604 C89.1961926,4.25577849 89.1228559,4.19322635 89.0193217,4.1802796 L88.449875,4.12207022 L88.4239917,3.80498711 C89.3126715,3.67125845 89.9338859,3.5353686 90.2876348,3.39731757 C90.3264546,3.39731757 90.3458748,3.41026431 90.3458748,3.4361578 M93.937369,8.3152456 C94.096981,8.51368759 94.2479686,8.66683637 94.3903318,8.77468173 C94.5370072,8.88253729 94.7052537,8.93645487 94.8950713,8.93645487 C95.4990217,8.93645487 95.958468,8.69271966 96.2733899,8.20523904 C96.592624,7.71775842 96.7522462,7.07712903 96.7522462,6.28336105 C96.7522462,5.64489284 96.6098728,5.10779663 96.3251565,4.6720826 C96.0404301,4.23637876 95.6953127,4.01851665 95.2898043,4.01851665 C95.1991771,4.01851665 95.0978255,4.02667208 94.985668,4.04441014 C94.8735002,4.05735689 94.7095659,4.10914386 94.493865,4.19970991 C94.2781641,4.29033713 94.0926688,4.41541084 93.937369,4.57502279 L93.937369,8.31525579 M92.947305,1.79250229 C92.9473039,1.38268175 92.9149483,1.10874087 92.8502451,0.970689832 C92.789844,0.828336806 92.68847,0.757160293 92.5461088,0.757150098 L92.1254945,0.731256609 C92.0694158,0.731266803 92.0413713,0.70964472 92.0413713,0.666522885 L92.015488,0.349439776 C92.2872687,0.327827888 92.6129752,0.280424452 92.9926063,0.20708675 C93.3765497,0.133789825 93.6483314,0.0647337237 93.8079526,1.01942879e-05 C93.9201203,1.01942879e-05 93.9761991,0.0452728294 93.9761991,0.135900043 C93.9503056,0.489662197 93.9373588,0.953410516 93.9373588,1.52716539 L93.9373588,4.16732266 C94.3860094,3.67985224 94.9252566,3.43610683 95.5551005,3.43610683 C95.8441289,3.43610683 96.1267043,3.49869975 96.4027962,3.62376327 C96.6788881,3.74455538 96.9269457,3.91496308 97.1469588,4.13496599 C97.3669719,4.35067711 97.5438428,4.62676899 97.6775816,4.96325183 C97.8113103,5.29543268 97.8781848,5.65565801 97.8781848,6.04390744 C97.8781848,6.54864698 97.7896984,7.01671768 97.6128683,7.44810933 C97.4403096,7.87951118 97.2138231,8.23326314 96.9334191,8.50935502 C96.6530048,8.7854469 96.3423951,9.00114782 96.0016,9.15645779 C95.6607846,9.30744537 95.3178284,9.38293407 94.972711,9.38293407 C94.4291516,9.38293407 93.9697053,9.22116093 93.5943873,8.89761464 C93.4520241,9.104681 93.3075058,9.2772397 93.1608314,9.41529074 C93.0400393,9.41529074 92.9472886,9.39153805 92.8825794,9.34413461 C92.9257216,9.1025504 92.9472927,8.75958399 92.9472927,8.3152456 L92.9472927,1.7924921 M100.790234,8.3152456 C100.949846,8.51368759 101.100833,8.66683637 101.243197,8.77468173 C101.389872,8.88253729 101.558119,8.93645487 101.747936,8.93645487 C102.351887,8.93645487 102.811333,8.69271966 103.126255,8.20523904 C103.445489,7.71775842 103.605111,7.07712903 103.605111,6.28336105 C103.605111,5.64489284 103.462738,5.10779663 103.178021,4.6720826 C102.893295,4.23637876 102.548178,4.01851665 102.142669,4.01851665 C102.052042,4.01851665 101.95069,4.02667208 101.838533,4.04441014 C101.726365,4.05735689 101.562431,4.10914386 101.34673,4.19970991 C101.131029,4.29033713 100.945534,4.41541084 100.790234,4.57502279 L100.790234,8.31525579 M99.8001648,1.79250229 C99.8001648,1.38268175 99.7678489,1.10874087 99.7031151,0.970689832 C99.642765,0.828336806 99.541342,0.757160293 99.3989788,0.757150098 L98.9783625,0.731256609 C98.9222939,0.731266803 98.8942596,0.70964472 98.8942596,0.666522885 L98.8683661,0.349439776 C99.1401458,0.327827888 99.4658533,0.280424452 99.8454886,0.20708675 C100.229426,0.133789825 100.501216,0.0647337237 100.660828,1.01942879e-05 C100.772995,1.01942879e-05 100.829074,0.0452728294 100.829074,0.135900043 C100.803181,0.489662197 100.790234,0.953410516 100.790234,1.52716539 L100.790234,4.16732266 C101.238885,3.67985224 101.778132,3.43610683 102.407976,3.43610683 C102.697004,3.43610683 102.979579,3.49869975 103.255671,3.62376327 C103.531763,3.74455538 103.779821,3.91496308 103.999834,4.13496599 C104.219847,4.35067711 104.396718,4.62676899 104.530457,4.96325183 C104.664185,5.29543268 104.73106,5.65565801 104.73106,6.04390744 C104.73106,6.54864698 104.642574,7.01671768 104.465743,7.44810933 C104.293185,7.87951118 104.066698,8.23326314 103.786294,8.50935502 C103.50588,8.7854469 103.19527,9.00114782 102.854475,9.15645779 C102.51366,9.30744537 102.170704,9.38293407 101.825586,9.38293407 C101.282017,9.38293407 100.82258,9.22116093 100.447268,8.89761464 C100.304904,9.104681 100.16039,9.2772397 100.013715,9.41529074 C99.8929226,9.41529074 99.8001648,9.39153805 99.7354616,9.34413461 C99.7785835,9.1025504 99.8001953,8.75958399 99.8001953,8.3152456 L99.8001953,1.7924921 M106.94424,2.14839505 C106.819125,2.02330096 106.756573,1.87446436 106.756573,1.70190566 C106.756573,1.52934696 106.819166,1.38052057 106.94424,1.25540608 C107.069344,1.1259896 107.21817,1.06127627 107.390729,1.06127627 C107.563288,1.06127627 107.712124,1.12386919 107.837229,1.24893271 C107.966645,1.37404719 108.031358,1.52503478 108.031358,1.70190566 C108.031358,1.87446436 107.966625,2.02330096 107.837229,2.14839505 C107.712124,2.27350954 107.563288,2.33606169 107.390729,2.33606169 C107.21817,2.33606169 107.069344,2.27346876 106.94424,2.14839505 M108.005475,3.43612722 C107.9753,4.03577558 107.960213,4.55776386 107.960213,5.00210226 L107.960213,8.30229885 C107.960213,8.49211648 108.001194,8.63016752 108.083156,8.71644177 C108.169399,8.79840384 108.316115,8.85018062 108.523182,8.87175173 L108.769078,8.89764522 C108.85104,8.91059197 108.892032,8.94504866 108.892032,9.0011784 L108.892032,9.25354818 L108.866138,9.27944167 C108.158624,9.26216235 107.686241,9.25353798 107.448969,9.25353798 C107.23758,9.25353798 106.778144,9.26169341 106.07065,9.27944167 L106.044757,9.25353798 L106.044757,9.00116821 C106.044757,8.94509963 106.079316,8.910541 106.14829,8.89763503 L106.40066,8.87174154 C106.624985,8.84156645 106.775983,8.78763867 106.853633,8.7099684 C106.931313,8.62800633 106.970113,8.49210628 106.970113,8.30228866 L106.970113,5.00209206 C106.970113,4.68718034 106.94636,4.4757916 106.898957,4.36793604 C106.855835,4.25577849 106.782477,4.19322635 106.678944,4.1802796 L106.109501,4.12207022 L106.083607,3.80498711 C106.972284,3.67125845 107.593504,3.5353686 107.947245,3.39731757 C107.986086,3.39731757 108.005455,3.41026431 108.005455,3.4361578 M110.859284,8.30229885 L110.859284,5.00210226 C110.859284,4.69150272 110.835532,4.48011398 110.788128,4.36794623 C110.740725,4.25578869 110.667336,4.19323654 110.568115,4.1802898 L109.998672,4.12208042 L109.966356,3.80499731 C110.820526,3.67559102 111.430949,3.53970118 111.797648,3.39732776 C111.832207,3.39732776 111.849435,3.41027451 111.849435,3.436168 L111.810595,4.62683016 L111.849435,4.62683016 C112.38437,3.83306218 112.902046,3.436168 113.402474,3.436168 C113.898579,3.436168 114.146636,3.63893237 114.146636,4.04444072 C114.146636,4.21699942 114.094849,4.35288927 113.991326,4.45211027 C113.887793,4.55130068 113.747581,4.60094686 113.57071,4.60094686 C113.363643,4.60094686 113.184611,4.52112559 113.033624,4.36151364 C112.951662,4.28383317 112.863216,4.24504391 112.768317,4.24503371 C112.690637,4.24504391 112.582812,4.30548584 112.444761,4.42622697 C112.30671,4.54701908 112.162196,4.7152656 112.011208,4.93096652 C111.903353,5.06901756 111.849435,5.22431733 111.849435,5.39687603 L111.849435,8.30233963 C111.849435,8.49646944 111.892557,8.63668166 111.978852,8.72295592 C112.065095,8.80919959 112.211801,8.85884577 112.418878,8.87179251 L112.807137,8.897686 C112.884818,8.897686 112.923617,8.93224463 112.923617,9.00121918 L112.923617,9.25358895 L112.897724,9.27948244 C112.241915,9.26215216 111.719917,9.25348701 111.331667,9.25348701 C111.068512,9.25348701 110.609066,9.26164244 109.953349,9.2793805 L109.940402,9.25348701 L109.940402,9.00111724 C109.940402,8.94504866 109.972718,8.91049002 110.037451,8.89758406 L110.289821,8.87169057 C110.505522,8.85007868 110.654359,8.79839364 110.736321,8.7163806 C110.818283,8.63013693 110.859274,8.49205531 110.859274,8.30223768 M118.546908,6.16688112 L117.498609,6.44513419 C116.64444,6.67809404 116.217361,7.16341347 116.217361,7.90110268 C116.217361,8.13837471 116.303605,8.35622663 116.476194,8.55466862 C116.648753,8.74879844 116.888176,8.84586844 117.194473,8.84586844 C117.496448,8.84586844 117.884708,8.65388962 118.359252,8.26995238 C118.484356,8.18370871 118.546908,8.06934919 118.546908,7.92698597 L118.546908,6.16688112 M118.546908,8.61938196 L118.521015,8.61938196 L118.255709,8.82644832 C117.962348,9.05509599 117.722925,9.20392239 117.537429,9.27294791 C117.356236,9.34624483 117.114652,9.38296465 116.812677,9.38296465 C116.312249,9.38296465 115.913204,9.26863572 115.615541,9.03999825 C115.317878,8.81135058 115.169052,8.44898445 115.169052,7.95286927 C115.169052,7.51284306 115.365333,7.12458343 115.757904,6.7880904 C116.154788,6.44729538 116.678938,6.19492561 117.330353,6.03099128 L118.469248,5.75273821 C118.521035,5.73550986 118.546929,5.68372288 118.546929,5.59742824 C118.546929,5.30839981 118.523176,5.05603004 118.475773,4.84032911 C118.428267,4.62031601 118.370078,4.44775731 118.301053,4.32265302 C118.232037,4.19754872 118.145743,4.09832773 118.04221,4.02497983 C117.943019,3.94729936 117.84808,3.89557355 117.757493,3.86968006 C117.67125,3.84378657 117.5763,3.83083982 117.472767,3.83083982 C117.188041,3.83085002 116.93352,3.8826268 116.709194,3.98614979 C116.484859,4.08969316 116.372701,4.23851956 116.372701,4.43264937 C116.372701,4.55344148 116.380857,4.63972593 116.398595,4.69148233 C116.424488,4.74755091 116.437435,4.82738237 116.437435,4.93091555 C116.437425,5.03444873 116.383507,5.13366973 116.275652,5.22857854 C116.172119,5.32348736 116.031917,5.37094176 115.855046,5.37094176 C115.548748,5.37094176 115.395599,5.21564199 115.395599,4.90502206 C115.395599,4.6720724 115.501294,4.44127374 115.712682,4.21263627 C115.924061,3.9839988 116.200163,3.79849335 116.540968,3.65613013 C116.881774,3.50945473 117.226891,3.43611702 117.576321,3.43611702 C117.787709,3.43611702 117.979678,3.45334537 118.152237,3.487904 C118.329107,3.52246264 118.505989,3.58923522 118.682859,3.68850719 C118.85973,3.783416 119.006406,3.91068148 119.122886,4.07029344 C119.243678,4.22991559 119.340738,4.4477675 119.414085,4.72385938 C119.491766,4.99564927 119.530555,5.31272219 119.530565,5.67509852 L119.530565,7.6487431 C119.530555,7.77384739 119.530555,7.87522958 119.530565,7.95287946 C119.534643,8.02617639 119.541371,8.11465261 119.549935,8.21818579 C119.562881,8.3173762 119.58011,8.39721786 119.601722,8.45761901 C119.623333,8.51368759 119.651368,8.57193775 119.685824,8.6323287 C119.724665,8.69267888 119.774311,8.73587208 119.834661,8.76175537 C119.899395,8.78764886 119.972702,8.80059561 120.054674,8.80059561 C120.149583,8.80059561 120.227223,8.78336726 120.287624,8.74880863 C120.347974,8.71425 120.393308,8.67979331 120.423514,8.64527545 C120.453689,8.61071682 120.477441,8.59348847 120.49467,8.59348847 C120.520563,8.59348847 120.550738,8.61510036 120.585297,8.65822219 C120.624137,8.70134403 120.643506,8.74446586 120.643506,8.78763867 C120.643506,8.80486702 120.626278,8.83504211 120.591719,8.87826588 C120.557161,8.92138772 120.505476,8.9710339 120.43642,9.02709228 C120.371686,9.08316086 120.296207,9.13926002 120.209933,9.1953388 C120.123689,9.24712578 120.020115,9.29024761 119.899323,9.32475527 C119.782843,9.36359551 119.664212,9.38296465 119.54342,9.38296465 C119.021422,9.38296465 118.689251,9.12844388 118.546888,8.61939215" id="scn-tagline" fill="#000000" fill-rule="nonzero"></path>
    </g>
</svg>