<svg xmlns="http://www.w3.org/2000/svg" width="120" height="25"><path fill="#000" fill-rule="nonzero" d="M7.143 0c1.488 0 2.77.55 3.844 1.65 1.066 1.09 1.6 2.376 1.6 3.856 0 1.447-.542 2.724-1.625 3.832-.76.748-1.598 1.24-2.514 1.475 1.202.281 2.276.89 3.22 1.823 1.357 1.34 2.035 2.94 2.035 4.8 0 1.876-.678 3.5-2.034 4.873-1.364 1.347-2.984 2.02-4.861 2.02-1.893 0-3.505-.673-4.836-2.02C.657 20.96 0 19.337 0 17.435c0-1.934.653-3.55 1.96-4.848 1.003-1.004 2.189-1.622 3.558-1.854-.81-.251-1.54-.704-2.195-1.358-1.058-1.1-1.587-2.39-1.587-3.87 0-1.512.52-2.81 1.563-3.893C4.332.537 5.613 0 7.143 0Zm-.335 13.467c-1.141 0-2.088.376-2.84 1.128-.752.728-1.128 1.675-1.128 2.84 0 1.133.384 2.088 1.153 2.865.785.785 1.724 1.178 2.815 1.178 1.116 0 2.067-.397 2.852-1.19.794-.803 1.19-1.753 1.19-2.853 0-1.075-.4-2-1.202-2.778-.81-.793-1.757-1.19-2.84-1.19Zm.236-5.927c-.521 0-.926.099-1.216.297.38.24.819.36 1.315.36a2.43 2.43 0 0 0 1.033-.216l.182-.094c-.298-.182-.736-.298-1.314-.347ZM4.539 5.68c-.091.057-.174.123-.248.198a5.228 5.228 0 0 0-.224.21.165.165 0 0 0-.062.137.22.22 0 0 0 .025.149c.149.248.269.318.36.21.09-.115.14-.417.149-.905Zm2.604-2.902c-.753 0-1.377.268-1.873.806-.488.496-.731 1.136-.731 1.922v.173c.686-.496 1.5-.744 2.443-.744a4.73 4.73 0 0 1 1.946.422c.174.083.331.161.472.236.14.074.264.148.372.223v-.31c0-.72-.26-1.352-.782-1.897-.529-.554-1.145-.831-1.847-.831ZM22.37 0c1.488 0 2.769.55 3.844 1.65 1.066 1.09 1.6 2.376 1.6 3.856 0 1.447-.542 2.724-1.625 3.832-.82.808-1.732 1.317-2.734 1.527.336.08.664.188.985.32.844.34 1.6.819 2.27 1.439a6.778 6.778 0 0 1 1.562 2.195c.364.81.546 1.694.546 2.653 0 1.91-.653 3.551-1.96 4.923h.013c-1.29 1.364-2.89 2.046-4.799 2.046-1.017 0-2-.214-2.951-.644-.447-.215-.868-.45-1.265-.707a6.725 6.725 0 0 1-1.03-.831l-.644-.856-.583-.992.223-1.24c1.298-1.347 2.72-2.021 4.266-2.021.785 0 1.542.149 2.27.446.727.298 1.425.749 2.095 1.352.182.198.335.376.459.533.124.157.231.306.322.447.281-.273.475-.596.583-.968.116-.38.174-.843.174-1.388 0-1.2-.406-2.179-1.216-2.94-.81-.776-1.814-1.165-3.013-1.165-.422 0-.802.045-1.14.136-.332.091-.617.22-.857.385a2.753 2.753 0 0 0-.434.421 28.1 28.1 0 0 0-.657.782c-.24.529-.661.793-1.265.793-1 0-1.5-.475-1.5-1.426.074-.388.248-.769.52-1.14.29-.373.58-.703.869-.993.297-.297.587-.541.868-.731a6.101 6.101 0 0 1 2.578-.962c-.809-.25-1.54-.703-2.194-1.357-1.058-1.1-1.587-2.39-1.587-3.87 0-1.512.52-2.81 1.562-3.893C19.56.537 20.841 0 22.371 0Zm-2.282 20.089c-.628 0-1.046.045-1.253.136l.112.112c.818.843 1.86 1.265 3.125 1.265.322 0 .595-.033.818-.1a1.712 1.712 0 0 0-.235-.285c-.091-.099-.182-.194-.273-.285-.33-.273-.69-.48-1.079-.62a3.37 3.37 0 0 0-1.215-.223Zm2.182-12.55c-.52 0-.926.1-1.215.298.38.24.819.36 1.315.36a2.43 2.43 0 0 0 1.033-.216l.182-.094c-.298-.182-.736-.298-1.315-.347Zm-2.505-1.86c-.09.058-.173.124-.248.199a5.228 5.228 0 0 0-.223.21.165.165 0 0 0-.062.137.22.22 0 0 0 .025.149c.149.248.269.318.36.21.09-.115.14-.417.148-.905Zm2.605-2.901c-.753 0-1.377.268-1.873.806-.488.496-.732 1.136-.732 1.922v.173c.687-.496 1.5-.744 2.443-.744a4.73 4.73 0 0 1 1.947.422c.174.083.33.161.471.236.141.074.265.148.372.223v-.31c0-.72-.26-1.352-.78-1.897-.53-.554-1.146-.831-1.848-.831Zm17.856 7.837.583.161a6.832 6.832 0 0 1 2.728 2.753h-.012c.661 1.182.992 2.426.992 3.733a6.72 6.72 0 0 1-.546 2.69 7.695 7.695 0 0 1-1.5 2.295 7.06 7.06 0 0 1-2.245 1.55 6.588 6.588 0 0 1-2.653.533c-1.91 0-3.535-.703-4.874-2.108-1.323-1.397-1.984-3.05-1.984-4.96 0-1.257.327-2.464.98-3.621.628-1.15 1.509-2.117 2.641-2.902l.583-.124c.918 0 1.426.475 1.525 1.426 0 .488-.235.88-.707 1.178a3.94 3.94 0 0 0-.868.72 4.418 4.418 0 0 0-.694.991c-.413.76-.62 1.538-.62 2.332 0 1.149.4 2.137 1.203 2.963.81.835 1.748 1.253 2.815 1.253 1.165 0 2.137-.414 2.914-1.24a4.196 4.196 0 0 0 1.178-2.976c0-.802-.203-1.58-.608-2.332-.397-.76-.917-1.327-1.562-1.699-.364-.215-.583-.562-.658-1.041-.033-.901.43-1.426 1.39-1.575ZM37.896 0c1.488 0 2.77.55 3.844 1.65 1.067 1.09 1.6 2.376 1.6 3.856 0 1.447-.542 2.724-1.625 3.832-1.107 1.09-2.38 1.636-3.819 1.636-1.48 0-2.753-.533-3.82-1.6-1.058-1.099-1.587-2.388-1.587-3.868 0-1.513.521-2.81 1.563-3.894C35.085.537 36.367 0 37.896 0Zm-.1 7.54c-.52 0-.925.099-1.214.297.38.24.818.36 1.314.36a2.43 2.43 0 0 0 1.033-.216l.182-.094c-.297-.182-.735-.298-1.314-.347Zm-2.504-1.86c-.091.057-.174.123-.248.198a5.228 5.228 0 0 0-.223.21.165.165 0 0 0-.062.137.22.22 0 0 0 .025.149c.148.248.268.318.36.21.09-.115.14-.417.148-.905Zm2.604-2.902c-.752 0-1.376.268-1.872.806-.488.496-.732 1.136-.732 1.922v.173c.686-.496 1.5-.744 2.443-.744a4.73 4.73 0 0 1 1.947.422c.173.083.33.161.47.236.141.074.265.148.373.223v-.31c0-.72-.26-1.352-.781-1.897-.53-.554-1.145-.831-1.848-.831Zm7.763 10.813c0-.422.082-.818.248-1.19a3.005 3.005 0 0 1 1.624-1.625 2.898 2.898 0 0 1 1.19-.248c.422 0 .82.083 1.191.248.372.157.695.376.967.657.281.273.5.596.658.968.165.372.248.768.248 1.19 0 .422-.083.818-.248 1.19a3.048 3.048 0 0 1-.658.98 3.178 3.178 0 0 1-.967.657 3.029 3.029 0 0 1-1.19.236c-.422 0-.819-.079-1.19-.236a3.342 3.342 0 0 1-.98-.657 3.153 3.153 0 0 1-.645-.98 2.898 2.898 0 0 1-.248-1.19Zm2.505 0c0 .157.053.29.16.397a.54.54 0 0 0 .398.161.54.54 0 0 0 .397-.161.54.54 0 0 0 .16-.397.54.54 0 0 0-.16-.397.54.54 0 0 0-.397-.161.54.54 0 0 0-.397.161.54.54 0 0 0-.161.397Zm-2.443 7.602c0-.422.082-.819.248-1.19a3.005 3.005 0 0 1 1.624-1.625 2.898 2.898 0 0 1 1.19-.248c.422 0 .82.082 1.191.248.372.157.695.376.967.657.281.273.5.595.658.967.165.372.248.769.248 1.19 0 .422-.083.819-.248 1.191a3.005 3.005 0 0 1-1.624 1.624 2.898 2.898 0 0 1-1.191.248c-.422 0-.819-.082-1.19-.248a3.153 3.153 0 0 1-.98-.644 3.153 3.153 0 0 1-.645-.98 2.898 2.898 0 0 1-.248-1.19Zm2.505 0c0 .157.053.289.16.396a.54.54 0 0 0 .398.162.54.54 0 0 0 .397-.162.54.54 0 0 0 .16-.396.54.54 0 0 0-.16-.397.54.54 0 0 0-.397-.162.54.54 0 0 0-.397.162.54.54 0 0 0-.161.397ZM60.019 0c1.488 0 2.77.55 3.844 1.65 1.066 1.09 1.6 2.376 1.6 3.856 0 1.447-.542 2.724-1.625 3.832-.712.701-1.493 1.177-2.341 1.428a7.454 7.454 0 0 1 2.093.63c1.347.686 2.141 1.666 2.38 2.939l.1.707c0 .562-.074 1.054-.223 1.476-.14.413-.364.752-.67 1.016.53.538.794 1.555.794 3.05-.48 2.498-2.472 3.746-5.977 3.746-2.985 0-4.923-1.166-5.816-3.497l-.087-.36c0-.959.504-1.438 1.513-1.438.562 0 .976.264 1.24.793.298.678.69 1.125 1.178 1.34.215.115.484.198.806.248.33.05.72.074 1.166.074 1.868 0 2.926-.463 3.174-1.389-.016-.223-.153-.47-.409-.744a1.869 1.869 0 0 0-.41-.335 1.518 1.518 0 0 0-.42-.173c-.183 0-.36.004-.534.012h-.52c-.918.042-1.377-.413-1.377-1.364 0-.959.45-1.438 1.351-1.438h1.116c.373-.075.674-.19.906-.348.231-.157.355-.343.372-.558l-.062-.21c-.133-.48-.463-.852-.992-1.116-.53-.265-1.261-.397-2.195-.397-1 0-1.695.078-2.083.235-.505.19-.844.604-1.017 1.24l.012-.037c-.14.777-.591 1.166-1.352 1.166-.892 0-1.38-.537-1.463-1.612.265-1.877 1.468-3.063 3.609-3.56a9.54 9.54 0 0 1 .725-.118c-.822-.25-1.564-.707-2.226-1.37-1.058-1.099-1.587-2.388-1.587-3.868 0-1.513.52-2.81 1.562-3.894C57.208.537 58.49 0 60.02 0Zm-.1 7.54c-.52 0-.926.099-1.215.297.38.24.819.36 1.315.36a2.43 2.43 0 0 0 1.033-.216l.182-.094c-.298-.182-.736-.298-1.315-.347Zm-2.505-1.86c-.09.057-.173.123-.248.198a5.228 5.228 0 0 0-.223.21.165.165 0 0 0-.062.137.22.22 0 0 0 .025.149c.149.248.269.318.36.21.09-.115.14-.417.148-.905Zm2.605-2.902c-.753 0-1.377.268-1.873.806-.488.496-.732 1.136-.732 1.922v.173c.687-.496 1.501-.744 2.443-.744a4.73 4.73 0 0 1 1.947.422c.174.083.331.161.471.236.141.074.265.148.373.223v-.31c0-.72-.26-1.352-.782-1.897-.529-.554-1.145-.831-1.847-.831ZM67.78 13.59c0-.422.083-.818.248-1.19a3.005 3.005 0 0 1 1.625-1.625 2.898 2.898 0 0 1 1.19-.248c.422 0 .819.083 1.19.248.373.157.695.376.968.657.281.273.5.596.657.968.166.372.248.768.248 1.19 0 .422-.082.818-.248 1.19a3.048 3.048 0 0 1-.657.98 3.178 3.178 0 0 1-.967.657 3.029 3.029 0 0 1-1.19.236c-.422 0-.82-.079-1.191-.236a3.342 3.342 0 0 1-.98-.657 3.153 3.153 0 0 1-.645-.98 2.898 2.898 0 0 1-.248-1.19Zm2.505 0c0 .157.054.29.161.397a.54.54 0 0 0 .397.161.54.54 0 0 0 .397-.161.54.54 0 0 0 .161-.397.54.54 0 0 0-.16-.397.54.54 0 0 0-.398-.161.54.54 0 0 0-.397.161.54.54 0 0 0-.16.397Zm-2.443 7.602c0-.422.083-.819.248-1.19a3.005 3.005 0 0 1 1.625-1.625 2.898 2.898 0 0 1 1.19-.248c.422 0 .819.082 1.19.248.373.157.695.376.968.657.281.273.5.595.657.967.166.372.248.769.248 1.19 0 .422-.082.819-.248 1.191a3.005 3.005 0 0 1-1.624 1.624 2.898 2.898 0 0 1-1.19.248c-.422 0-.82-.082-1.191-.248a3.153 3.153 0 0 1-.98-.644 3.153 3.153 0 0 1-.645-.98 2.898 2.898 0 0 1-.248-1.19Zm2.505 0c0 .157.054.289.161.396a.54.54 0 0 0 .397.162.54.54 0 0 0 .397-.162.54.54 0 0 0 .161-.396.54.54 0 0 0-.16-.397.54.54 0 0 0-.398-.162.54.54 0 0 0-.397.162.54.54 0 0 0-.16.397Zm18.217 1.116c.562.67.921 1.074 1.078 1.215.158.14.104-.013-.16-.459a9.763 9.763 0 0 1-.46-.36 17.27 17.27 0 0 1-.458-.396Zm11.73-4.837c0 1.827-.681 3.435-2.046 4.824-1.38 1.364-2.976 2.046-4.786 2.046a6.719 6.719 0 0 1-3.98-1.277 22.993 22.993 0 0 0-.484-.781 78.446 78.446 0 0 0-.757-1.153.263.263 0 0 1 0 .223 3.34 3.34 0 0 0-.087.16.777.777 0 0 1-.099.15l.509.645v-.013a6.746 6.746 0 0 0-.248-.285 11.9 11.9 0 0 1-.273-.335c-.19.29-.442.57-.757.843-.306.265-.682.53-1.128.794-1.025.637-2.2.955-3.522.955-1.918 0-3.538-.69-4.86-2.071-1.34-1.389-2.01-3.022-2.01-4.898 0-.604.075-1.199.223-1.786.158-.587.38-1.166.67-1.736a8.137 8.137 0 0 1 1.116-1.6c.43-.48.93-.913 1.5-1.302l.67-.16c.207 0 .401.04.583.123.19.074.351.178.484.31.132.124.235.277.31.459.082.174.124.36.124.558 0 .504-.232.889-.695 1.153h.013c-.331.215-.629.467-.893.757-.256.289-.48.624-.67 1.004-.19.38-.33.757-.421 1.129-.091.363-.137.727-.137 1.09 0 1.133.389 2.113 1.166 2.94h-.013c.778.818 1.724 1.227 2.84 1.227 1.075 0 2.013-.392 2.815-1.178.794-.777 1.19-1.703 1.19-2.777v-.211c0-.96-.185-1.757-.557-2.394a4.266 4.266 0 0 0-.596-.806 7.425 7.425 0 0 0-.93-.868c-.322-.396-.483-.752-.483-1.066 0-.182.033-.36.099-.533.066-.182.161-.34.285-.471.132-.133.29-.24.471-.323.182-.083.385-.124.608-.124l.533.149a7.53 7.53 0 0 1 1.488 1.14 5.49 5.49 0 0 1 1.042 1.414c.273.521.475 1.104.607 1.749.141.645.211 1.356.211 2.133 0 .529.1 1.062.298 1.6.198.529.496.98.893 1.351.397.422.843.736 1.339.943.504.206 1.009.31 1.513.31 1.058 0 2-.406 2.827-1.216.356-.339.633-.76.831-1.265.207-.504.31-1.02.31-1.55 0-1.124-.389-2.058-1.166-2.802a3.608 3.608 0 0 0-1.413-.93 4.795 4.795 0 0 0-1.736-.31l-.57.074c-.53 0-.943-.124-1.24-.372-.298-.256-.447-.59-.447-1.004 0-.686.215-1.1.645-1.24a4.92 4.92 0 0 1 1.14-.248c.083-.017.157-.025.224-.025 2.223 0 4.017.682 5.381 2.046 1.365 1.38 2.047 2.984 2.047 4.811Zm.075-3.373a.26.26 0 0 1-.037-.136c0-.05.016-.095.05-.136a9.546 9.546 0 0 1 2.207-2.071v.012c1.1-.752 2.352-1.128 3.757-1.128 2.29 0 4.109.971 5.456 2.914.852 1.248 1.277 2.542 1.277 3.881 0 2.455-.987 4.328-2.963 5.618-1.348.876-2.712 1.314-4.092 1.314-.521 0-1.088-.083-1.7-.248l-.433-.149-.46-.248c-.702-.223-1.053-.69-1.053-1.401 0-.157.033-.306.099-.446.074-.15.178-.298.31-.447.265-.314.591-.471.98-.471.157 0 .289.016.396.05a.82.82 0 0 1 .273.111l.88.347h-.012c.066.017.153.03.26.038.117.008.261.012.435.012 1.124 0 2.108-.397 2.951-1.19v.012c.843-.802 1.265-1.77 1.265-2.902 0-.438-.062-.856-.186-1.252a4.628 4.628 0 0 0-.508-1.104 2.865 2.865 0 0 0-.583-.608 3.35 3.35 0 0 0-.819-.508c-.603-.306-1.203-.459-1.798-.459-.802 0-1.591.232-2.368.695l.025-.013a6.01 6.01 0 0 0-1.39 1.513l-.446.657c-.05.083-.115.124-.198.124a.27.27 0 0 1-.211-.124L100.37 14.1Zm13.442-.508c0-.422.083-.818.248-1.19a3.005 3.005 0 0 1 1.625-1.625 2.898 2.898 0 0 1 1.19-.248c.422 0 .819.083 1.19.248.373.157.695.376.968.657.28.273.5.596.657.968.165.372.248.768.248 1.19 0 .422-.083.818-.248 1.19a3.048 3.048 0 0 1-.657.98 3.178 3.178 0 0 1-.967.657 3.029 3.029 0 0 1-1.19.236c-.423 0-.82-.079-1.191-.236a3.342 3.342 0 0 1-.98-.657 3.153 3.153 0 0 1-.645-.98 2.898 2.898 0 0 1-.248-1.19Zm2.505 0c0 .157.054.29.161.397a.54.54 0 0 0 .397.161.54.54 0 0 0 .397-.161.54.54 0 0 0 .161-.397.54.54 0 0 0-.161-.397.54.54 0 0 0-.397-.161.54.54 0 0 0-.397.161.54.54 0 0 0-.161.397Zm-2.443 7.602c0-.422.083-.819.248-1.19a3.005 3.005 0 0 1 1.625-1.625 2.898 2.898 0 0 1 1.19-.248c.422 0 .819.082 1.19.248.373.157.695.376.968.657.28.273.5.595.657.967.165.372.248.769.248 1.19 0 .422-.083.819-.248 1.191a3.005 3.005 0 0 1-1.624 1.624 2.898 2.898 0 0 1-1.19.248c-.423 0-.82-.082-1.191-.248a3.153 3.153 0 0 1-.98-.644 3.153 3.153 0 0 1-.645-.98 2.898 2.898 0 0 1-.248-1.19Zm2.505 0c0 .157.054.289.161.396a.54.54 0 0 0 .397.162.54.54 0 0 0 .397-.162.54.54 0 0 0 .161-.396.54.54 0 0 0-.161-.397.54.54 0 0 0-.397-.162.54.54 0 0 0-.397.162.54.54 0 0 0-.161.397Z"/></svg>