<svg xmlns="http://www.w3.org/2000/svg" viewBox="0 0 140 24.138"><path fill="none" stroke="#fff" stroke-linecap="round" stroke-linejoin="round" stroke-width=".013517280000000001" d="M115.853.27c-.543-.008-1.082.003-1.383.039-1.999.23-3.688 1.033-4.961 2.351-1.352 1.41-2.086 3.167-2.27 5.492-.046.629-.02 1.902.055 2.477.157 1.178.516 2.365.953 3.164 1.207 2.172 3.013 3.437 5.41 3.754.844.113 2.115.066 2.868-.106.668-.148 1.622-.582 2.132-.968.321-.243.985-.915 1.192-1.207.074-.106.149-.191.168-.192.043-.004-.012 1.169-.07 1.645-.29 2.25-1.439 4.374-3.47 6.39l-.519.512h2.692l.316-.347c1.207-1.333 1.99-2.627 2.516-4.149q1.177-3.403.52-6.922l-.055-.297-1.032.008-1.027.012-.027.098c-.216.706-.722 1.573-1.23 2.109-.755.789-1.613 1.245-2.65 1.414-.354.055-1.476.055-1.82 0-1.525-.246-2.684-.965-3.5-2.191-.53-.797-.84-1.651-1.019-2.836-.074-.485-.082-2.337-.016-2.785.227-1.487.676-2.578 1.454-3.508.742-.9 1.824-1.526 3.046-1.778.894-.183 2.067-.183 3.051 0 1.062.2 2.211.778 3.207 1.618.2.168.371.305.371.296 0-.007.27-.374.59-.82.325-.445.602-.828.621-.851.043-.055-.25-.36-.633-.66-1.13-.883-2.548-1.468-4.093-1.688-.297-.043-.84-.067-1.387-.074zM18.886.496V17.36h2.222V.496zm7.171 0V17.36h2.254v-4.242c0-2.337.016-4.239.032-4.235.015.008 1.873 1.922 4.12 4.246l4.098 4.23h3.07l-.296-.308c-.168-.172-2.076-2.124-4.242-4.332-2.163-2.21-3.94-4.036-3.938-4.054 0-.02.22-.168.488-.332C33.806 7 35.023 6.112 35.972 5.16c1.033-1.033 1.602-1.912 2.18-3.368.16-.406.46-1.245.46-1.285 0-.008-.53-.008-1.183-.004l-1.184.012-.066.184a21 21 0 0 1-.668 1.62c-.672 1.324-1.864 2.463-4.204 4.024-.788.527-2.77 1.748-2.941 1.813-.055.02-.055-.281-.055-3.817V.497zm16.278 0V17.36h2.258V.496zm7.203 0V17.36h2.223V2.516h9.055V17.36h2.254V.496zm33.926 0V17.36h2.254V.496zm10.461 0c-1.033 0-1.303.008-1.281.043.016.024 1.091 1.757 2.398 3.844 1.507 2.414 2.472 3.987 2.63 4.308a8 8 0 0 1 .609 1.57c.18.708.227 1.777.101 2.407-.292 1.506-1.139 2.54-2.351 2.863-.277.075-.422.09-.934.102-.691.02-1.004-.024-1.484-.195-1.004-.367-1.719-1.372-1.899-2.68a6.5 6.5 0 0 1-.023-.89c.023-.736.124-1.179.41-1.77.187-.391.578-1.004.813-1.278l.125-.144-2.454.015-.19.27a6.5 6.5 0 0 0-.864 1.867c-.172.645-.227 1.7-.121 2.422.172 1.226.601 2.134 1.343 2.883.887.89 1.96 1.352 3.418 1.46a9 9 0 0 0 1.61-.05c1.892-.258 3.398-1.42 4.129-3.184.137-.34.305-.96.34-1.265.011-.117.03-.21.043-.211.011 0 .644 1.004 1.402 2.238l1.379 2.238h2.637l-3.5-5.628c-1.922-3.1-4.278-6.894-5.239-8.43L95.234.5zM69.316.504l-1.285.012 1.734 2.773L71.5 6.066l-1.055.012-1.059.008-.219.445c-.448.915-.722 1.94-.886 3.324-.051.438-.059 1.072-.067 6.434v.004c-.011 3.273 0 5.948.016 5.95a53 53 0 0 0 1.102-.5l1.078-.497.02-5.133c.015-3.524.03-5.262.058-5.535.14-1.41.363-2.423.738-3.281.156-.363.434-.875.473-.875.011 0 1.535 2.462 3.39 5.469l3.364 5.469h2.617l-.05-.075c-.024-.043-2.376-3.833-5.224-8.425C72.948 4.273 70.612.508 70.613.504s-.586-.004-1.297 0zm58.145 0c-.707-.004-1.285 0-1.286.012s.766 1.245 1.704 2.746a305 305 0 0 1 1.718 2.777c.016.04-.152.047-1.027.047h-1.047l-.234.477c-.602 1.226-.871 2.53-.946 4.535-.015.473-.03 3.176-.03 6.015v5.157l.917-.422c.504-.231 1.004-.465 1.125-.516l.207-.094.016-5.23c.008-3.775.027-5.33.054-5.598.113-1.033.297-1.94.528-2.617.12-.355.5-1.159.617-1.3l.063-.083.113.184c.066.097 1.583 2.558 3.375 5.472l3.261 5.293h2.61l-1.79-2.886c-.984-1.584-3.34-5.378-5.226-8.422L128.75.516zM.466.527l.129.22c.074.12 1.65 3.012 3.508 6.413l3.37 6.192v10.253l1.114-.507 1.11-.512v-9.27l3.366-6.37A944 944 0 0 0 16.431.55c0-.012-.528-.024-1.172-.024h-1.172l-2.707 5.25c-1.487 2.887-2.733 5.262-2.754 5.285-.027.016-1.304-2.346-2.84-5.25L2.996.527zm0 0"/><path d="M115.85.27c-.543-.008-1.09.003-1.383.039-2 .23-3.69 1.03-4.96 2.351-1.36 1.41-2.08 3.17-2.27 5.492-.047.63-.02 1.9.054 2.477.156 1.18.516 2.37.954 3.164 1.2 2.18 3.02 3.43 5.41 3.754.844.113 2.12.066 2.867-.105.668-.148 1.62-.582 2.133-.97.32-.241.984-.913 1.191-1.206.074-.105.148-.191.168-.192.043-.004-.012 1.17-.07 1.645-.29 2.25-1.44 4.38-3.469 6.39l-.52.512h2.692l.316-.347c1.21-1.34 1.99-2.63 2.516-4.149.785-2.27.957-4.57.52-6.922l-.055-.297-1.031.008-1.028.012-.027.098c-.215.707-.723 1.57-1.23 2.109-.755.789-1.61 1.25-2.649 1.414-.355.055-1.47.055-1.82 0-1.53-.246-2.68-.965-3.5-2.191-.531-.797-.84-1.65-1.02-2.836-.074-.484-.082-2.34-.015-2.785.227-1.48.676-2.57 1.453-3.508.742-.898 1.82-1.53 3.047-1.778.895-.184 2.07-.184 3.05 0 1.07.2 2.21.777 3.207 1.618.2.168.371.305.372.297 0-.008.27-.375.59-.82.323-.446.601-.829.62-.852.043-.055-.25-.36-.632-.66-1.12-.884-2.55-1.47-4.094-1.688-.297-.043-.84-.066-1.387-.074zM18.885.496V17.36h2.223V.496zm7.172 0V17.36h2.254v-4.242c0-2.34.015-4.24.031-4.235.016.008 1.87 1.92 4.121 4.247l4.098 4.23h3.07l-.297-.309c-.168-.172-2.07-2.12-4.242-4.332-2.16-2.21-3.94-4.04-3.937-4.054 0-.02.219-.168.488-.332 2.16-1.33 3.38-2.22 4.328-3.172 1.04-1.03 1.61-1.91 2.18-3.367.16-.406.46-1.25.46-1.286 0-.007-.53-.007-1.183-.003l-1.184.011-.066.184c-.207.566-.523 1.34-.668 1.621-.672 1.32-1.87 2.46-4.203 4.023-.79.527-2.77 1.75-2.941 1.813-.055.02-.055-.281-.055-3.817V.496zm16.277 0V17.36h2.258V.496zm7.203 0V17.36h2.223V2.515h9.054V17.36h2.254V.496zm33.926 0V17.36h2.254V.496zm10.461 0c-1.04 0-1.3.008-1.281.043.015.023 1.09 1.75 2.398 3.844 1.5 2.41 2.47 3.99 2.63 4.308.265.52.483 1.09.608 1.57.18.708.227 1.78.102 2.407-.293 1.51-1.14 2.54-2.352 2.863-.277.074-.422.09-.933.102-.691.02-1-.024-1.485-.195-1.01-.367-1.72-1.37-1.898-2.68a6.5 6.5 0 0 1-.023-.89c.023-.735.125-1.18.41-1.77.188-.391.578-1 .812-1.278l.125-.144-2.453.015-.191.27a6.4 6.4 0 0 0-.864 1.867c-.172.645-.227 1.7-.12 2.422.171 1.22.601 2.14 1.343 2.883.887.89 1.96 1.35 3.418 1.46.434.036 1.15.013 1.61-.05 1.89-.258 3.4-1.42 4.128-3.184.137-.34.305-.96.34-1.265.012-.117.032-.211.043-.211s.645 1.01 1.403 2.238l1.379 2.238h2.636l-3.5-5.628c-1.93-3.1-4.28-6.89-5.238-8.43L95.233.5zM69.315.504 68.03.516l1.734 2.773L71.5 6.066l-1.055.012-1.059.008-.218.445c-.45.914-.723 1.94-.887 3.324-.051.438-.059 1.07-.067 6.434v.004c-.011 3.27 0 5.95.016 5.95.016-.005.512-.228 1.102-.5l1.078-.497.02-5.133c.015-3.52.03-5.26.058-5.535.14-1.41.363-2.42.738-3.281.156-.363.434-.875.473-.875.012 0 1.54 2.46 3.39 5.469l3.364 5.468h2.617l-.05-.074c-.024-.043-2.38-3.83-5.224-8.426-2.85-4.59-5.18-8.35-5.183-8.355s-.586-.004-1.297 0m58.145 0c-.707-.004-1.29 0-1.285.012s.766 1.25 1.703 2.746c.938 1.5 1.71 2.75 1.719 2.777.015.04-.152.047-1.028.047h-1.046l-.235.476c-.602 1.23-.87 2.53-.945 4.536-.016.473-.031 3.18-.031 6.015v5.156l.918-.421c.504-.23 1.01-.465 1.125-.516l.207-.094.015-5.23c.008-3.78.027-5.33.055-5.598.113-1.03.297-1.94.527-2.617.121-.355.5-1.16.617-1.301l.063-.082.113.184c.067.097 1.59 2.56 3.375 5.472l3.262 5.293h2.61l-1.79-2.886c-.984-1.59-3.34-5.38-5.226-8.422L128.749.515zM.46.527l.129.22c.074.12 1.65 3.01 3.508 6.413l3.37 6.192v10.254l1.114-.508 1.11-.512v-9.27l3.367-6.37c1.85-3.5 3.37-6.38 3.367-6.395 0-.012-.527-.023-1.172-.023h-1.172l-2.707 5.25c-1.49 2.89-2.73 5.27-2.754 5.285-.027.015-1.3-2.35-2.84-5.25L2.991.528z"/></svg>