<svg xmlns="http://www.w3.org/2000/svg" width="113" height="32"><path d="m14.505 21.905-.087 1.247c-.025.354-.05.677-.075.968-.025.291-.046.568-.062.831-.017.264-.034.544-.05.84-.017.296-.03.625-.042.985-.011.36-.02.783-.029 1.268a268.14 268.14 0 0 0-.03 3.96h-.764c0-1.512-.008-2.812-.025-3.898a197.29 197.29 0 0 0-.058-2.751 50.619 50.619 0 0 0-.079-1.804 24.91 24.91 0 0 0-.087-1.048 3.713 3.713 0 0 0-.075-.482c-.022-.077-.039-.116-.05-.116l-1.139-2.843h3.799l-1.147 2.843Zm5.336-8.296a9.06 9.06 0 0 1-.81.994c-.258.28-.568.583-.931.91a8.655 8.655 0 0 1-1.21.906 7.498 7.498 0 0 1-1.437.694 4.722 4.722 0 0 1-1.613.278 4.08 4.08 0 0 1-1.347-.228 6.667 6.667 0 0 1-1.288-.615 10.66 10.66 0 0 1-1.243-.894 21.579 21.579 0 0 1-1.2-1.076 65.55 65.55 0 0 1-1.169-1.156 73.559 73.559 0 0 0-2.718-2.598c-.496-.448-.99-.849-1.484-1.2-.493-.352-1-.654-1.52-.906a7.926 7.926 0 0 0-1.688-.586l.316-.242c.393.078.8.201 1.222.37.42.17.847.373 1.28.611.432.239.867.505 1.305.798a35.46 35.46 0 0 1 2.552 1.899c.41.336.8.661 1.172.977 1.285 1.086 2.419 1.886 3.4 2.398.98.513 1.784.772 2.41.778a6.48 6.48 0 0 0 1.525-.192c.53-.127 1.056-.302 1.58-.523a11.137 11.137 0 0 0 2.896-1.796v.4Zm-.14-4.48a5.643 5.643 0 0 1-.313 1.82 3.61 3.61 0 0 1-.91 1.413c-.41.394-.934.7-1.57.919-.638.219-1.403.328-2.295.328a3.09 3.09 0 0 1-1.03-.19 6.617 6.617 0 0 1-1.119-.529c-.385-.224-.777-.49-1.176-.798a26.51 26.51 0 0 1-1.214-.997c-.41-.358-.82-.734-1.23-1.13a99.73 99.73 0 0 1-1.222-1.202c-1.108-1.108-2.305-1.96-3.59-2.556A10.484 10.484 0 0 0 0 5.231l.324-.217h.241c.427 0 .892.049 1.397.146a13.04 13.04 0 0 1 1.562.407c.538.175 1.08.381 1.625.62.546.238 1.078.495 1.596.772a18.5 18.5 0 0 1 1.476.877c.465.308.884.617 1.255.927.626.527 1.2.995 1.72 1.405.522.41.998.758 1.43 1.043a7.63 7.63 0 0 0 1.185.657c.357.152.686.231.985.237.52 0 .986-.085 1.396-.254a3.25 3.25 0 0 0 1.04-.665c.282-.274.498-.587.648-.939.15-.352.224-.71.224-1.076 0-.255-.039-.508-.116-.757a2.371 2.371 0 0 0-.358-.702 2.753 2.753 0 0 0-.615-.599 3.557 3.557 0 0 0-.88-.453 2.52 2.52 0 0 0-.932-.19c-.233 0-.443.03-.632.095a1.623 1.623 0 0 0-.482.249 1.12 1.12 0 0 0-.307.353.743.743 0 0 0 .008.79c.078.127.2.241.366.34.166.1.38.18.644.242.263.06.58.091.952.091h.208l-.873 1.272c-.554 0-1.046-.07-1.476-.208a3.417 3.417 0 0 1-1.08-.553 2.353 2.353 0 0 1-.661-.793c-.15-.3-.224-.61-.224-.931 0-.316.085-.625.257-.927.172-.302.412-.57.72-.806a3.79 3.79 0 0 1 1.1-.57 4.395 4.395 0 0 1 1.414-.216 6.15 6.15 0 0 1 1.392.158c.213.05.41.11.59.179.18.069.337.145.47.228.188.111.404.266.648.466s.474.449.69.748c.216.3.4.652.549 1.06.15.407.224.871.224 1.392Zm7.718 10.503c.04-.158.079-.304.118-.439l.108-.37c.408-1.274.904-2.348 1.489-3.222h-.848l.562-1.616h2c.053-.132.099-.253.138-.365.04-.112.07-.214.089-.306.158-.578.237-1.087.237-1.527 0-.296-.032-.578-.094-.848a3.064 3.064 0 0 0-.29-.768H28.61c-.532 0-.934.138-1.207.413a1.412 1.412 0 0 0-.409 1.035c0 .473.168.917.503 1.33l-.562 1.765a6.296 6.296 0 0 1-.527-1.42 6.206 6.206 0 0 1-.163-1.409c0-.519.06-.995.182-1.429.122-.433.298-.83.528-1.192.46-.743.992-1.114 1.596-1.114h4.011l-.808 2.04c.112.283.194.593.246.932.053.338.08.645.08.921 0 .243-.014.481-.04.715a5.845 5.845 0 0 1-.118.684 1.9 1.9 0 0 1-.188.543h3.499a37.856 37.856 0 0 0-.177-1.602 28.82 28.82 0 0 0-.207-1.325 6.127 6.127 0 0 0-.08-.42 28.537 28.537 0 0 0-.108-.467h-.66l.66-2.02h2.71l-.69 2.02c-.006 0-.017.123-.034.37a140.592 140.592 0 0 0-.148 2.804c-.03.682-.057 1.46-.083 2.335-.04 1.734-.06 4.053-.06 6.957h-.906V21.09c-.355-.21-.708-.406-1.06-.586a12.72 12.72 0 0 0-1.06-.488c-1.3-.539-2.525-.808-3.675-.808-.414 0-.807.036-1.178.108a5.571 5.571 0 0 0-1.06.316Zm2.621-4.05a2.949 2.949 0 0 0-.389.497 4.38 4.38 0 0 0-.473 1.035c-.043.121-.09.26-.143.418.17-.013.32-.023.448-.03a6.45 6.45 0 0 1 .32-.009c1.446 0 2.73.397 3.854 1.192.335.244.652.516.951.818.3.303.573.641.823 1.016 0-.467-.003-.933-.01-1.4-.006-.466-.015-.915-.024-1.345-.01-.43-.019-.831-.025-1.202-.007-.372-.013-.695-.02-.971l-5.312-.02Zm-.217-13.345a2.872 2.872 0 0 0-.724-.266 3.977 3.977 0 0 0-.912-.099c-.532 0-.949.102-1.251.306-.388.256-.582.66-.582 1.212v.178c0 .374.104.666.31.877.208.21.472.315.794.315.316 0 .63-.09.941-.271.312-.18.593-.448.843-.803l1.064 2.119c-.736.368-1.422.552-2.06.552a2.57 2.57 0 0 1-1.143-.247 2.443 2.443 0 0 1-.852-.69 3.194 3.194 0 0 1-.537-1.054 4.558 4.558 0 0 1-.187-1.34C25.527 2 25.9 1.212 26.65.66A3.441 3.441 0 0 1 28.73 0c.23 0 .44.02.63.06.743.216 1.679.834 2.809 1.852.434.394.895.84 1.385 1.335.49.496 1.01 1.053 1.562 1.67.71.796 1.253 1.402 1.63 1.819.378.417.594.652.646.705l-.749.02a36.518 36.518 0 0 1-.606-.523c-.2-.177-.402-.358-.606-.542a61.906 61.906 0 0 0-1.35-1.138 71.128 71.128 0 0 0-1.39-1.109 31.326 31.326 0 0 0-1.636-1.183 11.149 11.149 0 0 0-1.232-.729Zm10.28 8.84L38.308 8.15h3.597l-1.804 2.927ZM54.677 8.15l-.226 1.015a24.96 24.96 0 0 1-.148.7c-.02.092-.036.166-.05.222l-.02.084-.103 1.143c-.069.755-.144 1.89-.226 3.405a246.33 246.33 0 0 0-.227 5.671 265.22 265.22 0 0 0-.104 7.944h-.69c0-3.023-.047-5.67-.142-7.944a212.667 212.667 0 0 0-.3-5.676 82.985 82.985 0 0 0-.444-4.543H49.82c-.033.21-.08.563-.138 1.059a41.38 41.38 0 0 0-.173 1.907 86.525 86.525 0 0 0-.212 6.238h-.67c0-1.274-.021-2.43-.064-3.469a79.89 79.89 0 0 0-.153-2.725 42.643 42.643 0 0 0-.325-3.01h-2.562l-2.612 6.957h-.562l1.833-6.957H43.02l.542-2.02h11.116Zm-7.53-5.913a2.872 2.872 0 0 0-.724-.266 3.977 3.977 0 0 0-.911-.099c-.532 0-.95.102-1.252.306-.387.256-.581.66-.581 1.212v.178c0 .374.103.666.31.877.207.21.472.315.794.315.315 0 .629-.09.94-.271a2.67 2.67 0 0 0 .843-.803l1.065 2.119c-.736.368-1.423.552-2.06.552-.427 0-.808-.083-1.143-.247a2.443 2.443 0 0 1-.853-.69 3.194 3.194 0 0 1-.537-1.054 4.558 4.558 0 0 1-.187-1.34c0-1.025.374-1.814 1.123-2.366a3.441 3.441 0 0 1 2.08-.66c.23 0 .44.02.63.06.743.216 1.68.834 2.81 1.852.433.394.895.84 1.384 1.335.49.496 1.01 1.053 1.562 1.67.71.796 1.253 1.402 1.631 1.819.378.417.593.652.646.705l-.75.02a32.794 32.794 0 0 1-.605-.523c-.2-.177-.403-.358-.607-.542a61.906 61.906 0 0 0-1.35-1.138 68.255 68.255 0 0 0-1.39-1.109 31.326 31.326 0 0 0-1.635-1.183 11.149 11.149 0 0 0-1.232-.729Zm10.28 8.84L55.634 8.15h3.597l-1.803 2.927ZM69.323 8.15h2.68l-.443 2.02a1.56 1.56 0 0 0-.054.262c-.03.174-.064.438-.104.793-.039.355-.08.805-.123 1.35-.042.546-.083 1.19-.123 1.932a135.666 135.666 0 0 0-.118 3.42 166.74 166.74 0 0 0-.04 3.685h-.887v-1.31c-.374-.762-1.067-1.525-2.079-2.287a8.606 8.606 0 0 0-2.38-1.256 8.192 8.192 0 0 0-2.626-.42c-.473 0-.953.035-1.44.104a8.348 8.348 0 0 0-1.468.35c.092-.236.183-.474.271-.714l.271-.725.675-1.68c.194-.483.367-.898.518-1.247.25-.558.473-1.026.67-1.404.197-.378.371-.662.522-.852h-2.237l.542-2.02h5.184l-.581 2.02h-2.02c-.204.295-.416.653-.636 1.074-.22.42-.446.91-.676 1.468l-.256.65c-.098.25-.207.536-.325.858.151 0 .312-.007.483-.02.17-.013.299-.02.384-.02 1.518 0 2.855.385 4.011 1.154.874.571 1.63 1.36 2.267 2.365.19.302.361.614.513.936.15.322.289.66.413 1.015 0-1.202-.016-2.283-.049-3.242a59.212 59.212 0 0 0-.133-2.518 37.216 37.216 0 0 0-.177-1.809c-.063-.486-.123-.86-.183-1.123-.124-.526-.207-.788-.246-.788h-.69l.69-2.02Zm-4.849-5.913a2.872 2.872 0 0 0-.724-.266 3.977 3.977 0 0 0-.912-.099c-.532 0-.95.102-1.251.306-.388.256-.582.66-.582 1.212v.178c0 .374.104.666.31.877.208.21.472.315.794.315.315 0 .63-.09.941-.271.312-.18.593-.448.843-.803l1.064 2.119c-.736.368-1.422.552-2.06.552-.427 0-.808-.083-1.143-.247a2.443 2.443 0 0 1-.852-.69 3.194 3.194 0 0 1-.537-1.054 4.558 4.558 0 0 1-.188-1.34c0-1.025.375-1.814 1.124-2.366A3.441 3.441 0 0 1 63.38 0c.23 0 .44.02.63.06.743.216 1.679.834 2.809 1.852.433.394.895.84 1.384 1.335.49.496 1.01 1.053 1.563 1.67.71.796 1.253 1.402 1.63 1.819.378.417.593.652.646.705l-.749.02a29.85 29.85 0 0 1-.606-.523c-.2-.177-.402-.358-.606-.542a61.906 61.906 0 0 0-1.35-1.138 74.253 74.253 0 0 0-1.39-1.109 31.326 31.326 0 0 0-1.636-1.183 11.149 11.149 0 0 0-1.232-.729Zm10.28 8.84L72.96 8.15h3.597l-1.804 2.927Zm11.027-.906c.171.295.343.648.518 1.059.174.41.356.885.547 1.424l.374 1.133a37.321 37.321 0 0 1 .596 2.016l.163.586a12.285 12.285 0 0 0-2.543-.266c-2.056 0-3.656.618-4.8 1.853-.991 1.051-1.678 2.572-2.059 4.563a21.78 21.78 0 0 0-.335 2.582 43.26 43.26 0 0 0-.108 3.213h-.69c0-1.433.02-2.674.059-3.726.04-1.05.102-1.915.187-2.592.151-1.248.38-2.348.685-3.301.306-.953.695-1.758 1.168-2.415 1.19-1.668 2.917-2.503 5.184-2.503.25 0 .502.012.759.035.256.023.522.054.798.093a17.177 17.177 0 0 0-.227-.783 25.897 25.897 0 0 0-.197-.596c-.361-1.019-.746-1.81-1.153-2.375h-6.07l-.563-2.02h8.791l.572 2.02H85.78Zm-5.105-7.934a2.872 2.872 0 0 0-.724-.266 3.977 3.977 0 0 0-.912-.099c-.532 0-.95.102-1.251.306-.388.256-.582.66-.582 1.212v.178c0 .374.104.666.31.877.208.21.472.315.794.315.315 0 .629-.09.941-.271.312-.18.593-.448.843-.803l1.064 2.119c-.736.368-1.422.552-2.06.552-.427 0-.808-.083-1.143-.247a2.443 2.443 0 0 1-.852-.69 3.194 3.194 0 0 1-.537-1.054 4.558 4.558 0 0 1-.188-1.34c0-1.025.375-1.814 1.124-2.366a3.441 3.441 0 0 1 2.08-.66c.23 0 .44.02.63.06.742.216 1.679.834 2.809 1.852.433.394.895.84 1.384 1.335.49.496 1.01 1.053 1.562 1.67.71.796 1.254 1.402 1.631 1.819.378.417.593.652.646.705l-.749.02a29.85 29.85 0 0 1-.606-.523c-.2-.177-.403-.358-.606-.542a61.906 61.906 0 0 0-1.35-1.138 74.253 74.253 0 0 0-1.39-1.109 31.326 31.326 0 0 0-1.636-1.183 11.149 11.149 0 0 0-1.232-.729Zm10.28 8.84L89.161 8.15h3.597l-1.804 2.927Zm13.008-2.927h2.7l-.463 2.02c-.006 0-.059.391-.158 1.173a37.296 37.296 0 0 0-.187 1.75c-.052.62-.098 1.28-.138 1.976a89.876 89.876 0 0 0-.143 3.198c-.03 1.087-.044 2.202-.044 3.345h-.788v-1.517l-4.642-4.957a4.092 4.092 0 0 1-.365 1.355c-.19.397-.463.744-.818 1.04a3.424 3.424 0 0 1-2.286.827c-.894 0-1.64-.295-2.237-.887a3.139 3.139 0 0 1-.779-1.207 4.689 4.689 0 0 1-.256-1.601c0-.618.097-1.298.29-2.04.194-.743.508-1.56.942-2.454h-1.143l.561-2.02h2.829l-.552 2.02h-.789c-.131.19-.26.412-.384.665-.125.253-.243.54-.355.862a7.909 7.909 0 0 0-.335 1.168 5.354 5.354 0 0 0-.108 1.04c0 .768.187 1.36.562 1.774.46.499 1.199.749 2.217.749.42 0 .798-.092 1.133-.276.335-.184.62-.442.853-.774a3.77 3.77 0 0 0 .537-1.188c.125-.46.187-.965.187-1.517 0-.224-.006-.432-.02-.626a7.265 7.265 0 0 0-.064-.586 6.2 6.2 0 0 0-.123-.607 12.564 12.564 0 0 0-.197-.684h-1.035l.552-2.02h2.819l-.542 2.02h-.907c0 .657.095 1.28.286 1.872.013.053.031.108.054.168.023.059.051.124.084.197l4.01 6.879c0-1-.012-1.896-.039-2.69a40.542 40.542 0 0 0-.118-2.11 65.467 65.467 0 0 0-.172-1.759 23.716 23.716 0 0 0-.232-1.592c-.098-.644-.164-.965-.197-.965h-.67l.67-2.02Zm7.628 3.37-.06.764c-.019.26-.035.518-.048.774-.046.821-.09 1.743-.129 2.765a226.795 226.795 0 0 0-.103 3.42 379.87 379.87 0 0 0-.103 9.091h-.917c0-2.09-.008-3.928-.025-5.514a222.572 222.572 0 0 0-.074-4.075 660.614 660.614 0 0 0-.093-2.996 87.086 87.086 0 0 0-.104-2.287c-.092-1.294-.141-1.941-.148-1.941l-1.35-3.37h4.504l-1.35 3.37Z"/></svg>