<?xml version="1.0" encoding="UTF-8"?>
<svg width="112px" height="21px" viewBox="0 0 112 21" version="1.1" xmlns="http://www.w3.org/2000/svg" xmlns:xlink="http://www.w3.org/1999/xlink">
    <title>sa-wordmark</title>
    <g id="Page-1" stroke="none" stroke-width="1" fill="none" fill-rule="evenodd">
        <path d="M-1.42108547e-14,5.3803756 L1.66061049,7.03149338 L1.66061049,20.9995979 L-1.42108547e-14,19.3579729 L-1.42108547e-14,5.3803756 M4.59277407,5.3803756 L6.25338456,7.03149338 L6.25338456,20.9995979 L4.59277407,19.3579729 L4.59277407,5.3803756 M13.5031339,7.75266989 L12.0987323,7.75266989 L10.7702439,6.4431699 L13.5221119,6.4431699 C12.8894985,5.51324357 12.5731911,4.38086101 12.5731926,3.04603717 C12.5731911,2.09080195 12.9432706,1.33483879 13.683428,0.77811779 C14.284409,0.328970819 15.0941532,0.104374909 16.1126636,0.104374909 C17.1374931,0.104374909 18.016824,0.218272422 18.7506625,0.445992702 C19.604683,0.705375265 20.4555478,1.16086067 21.3032569,1.81243398 C22.7709098,2.94483148 23.9001232,4.52953023 24.6909029,6.56653022 L24.2069528,6.56653022 C24.1057232,6.38941278 23.9380805,6.05728769 23.7040248,5.57015495 C23.4699466,5.03244926 23.0239554,4.44728005 22.3660482,3.81466226 C21.5309891,3.01125052 20.7149184,2.43874323 19.9178347,2.09711049 C18.956255,1.68593434 17.9851946,1.48033879 17.004649,1.48030889 C16.1000077,1.48033879 15.3535253,1.68276512 14.7651973,2.08761778 C14.0250384,2.59373593 13.6549589,3.25797116 13.6549604,4.08035336 C13.6549589,5.1241772 13.9617766,5.9117877 14.5754134,6.4431699 L16.5112107,6.4431699 L17.8396991,7.75266989 L15.0783415,7.75266989 L15.0783415,20.0506862 L13.5031339,18.4754802 L13.5031339,7.75266989 M16.501721,7.75266989 L15.21119,6.4431699 L28.2588415,6.4431699 L29.5398843,7.75266989 L26.3420236,7.75266989 L26.3420236,20.0506862 L24.6529455,18.3615976 L24.6529455,14.9549871 C24.1784777,15.271296 23.6344306,15.5496341 23.0208027,15.7900312 C22.3185966,16.0620608 21.7302657,16.1854211 21.2558113,16.1601122 C20.2942346,16.1095094 19.4623493,15.6445312 18.7601522,14.7651928 C18.2034506,14.0630017 17.9251006,13.2342811 17.9251021,12.2790309 C18.0326447,11.7855896 18.2161021,11.3902147 18.4754757,11.0928763 C19.4813272,10.1439645 20.5947258,9.69164835 21.8156746,9.73591276 C23.0302849,9.77388358 23.9760424,10.3558836 24.6529455,11.4819277 L24.6529455,7.75266989 L16.501721,7.75266989 M24.4536719,11.9089499 C24.2512277,11.4787734 23.6249423,11.2636852 22.57481,11.2636852 C21.4487539,11.2636852 20.4492258,11.7065236 19.5762229,12.5921706 C19.1523698,13.0223471 18.9404463,13.4620163 18.9404463,13.9111633 C18.9404463,14.5058252 19.4243934,14.8031487 20.3922935,14.8031487 C21.6069068,14.8031487 22.7108158,14.2907369 23.7040248,13.2658985 C24.2037821,12.7534868 24.4536719,12.3011706 24.4536719,11.9089499 M29.634777,7.75266989 L28.2303738,7.75266989 L26.9018869,6.4431699 L29.6537549,6.4431699 C29.0211401,5.51324357 28.7048342,4.38086101 28.7048342,3.04603717 C28.7048342,2.09080195 29.0749122,1.33483879 29.8150711,0.77811779 C30.416052,0.328970819 31.2257962,0.104374909 32.2443067,0.104374909 C33.2691361,0.104374909 34.1484671,0.218272422 34.882304,0.445992702 C35.7363261,0.705375265 36.5871894,1.16086067 37.4348999,1.81243398 C38.9025529,2.94483148 40.0317662,4.52953023 40.8225444,6.56653022 L40.3385958,6.56653022 C40.2373647,6.38941278 40.0697236,6.05728769 39.8356678,5.57015495 C39.6015897,5.03244926 39.155597,4.44728005 38.4976912,3.81466226 C37.6626307,3.01125052 36.8465615,2.43874323 36.0494762,2.09711049 C35.0878966,1.68593434 34.1168362,1.48033879 33.1362921,1.48030889 C32.2316507,1.48033879 31.4851668,1.68276512 30.8968403,2.08761778 C30.1566799,2.59373593 29.7866019,3.25797116 29.7866034,4.08035336 C29.7866019,5.1241772 30.0934196,5.9117877 30.7070565,6.4431699 L32.6428538,6.4431699 L33.9713407,7.75266989 L31.2099845,7.75266989 L31.2099845,20.0506862 L29.634777,18.4754802 L29.634777,7.75266989 M32.6333641,7.75266989 L31.3333433,6.4431699 L49.0686616,6.4431699 L50.3686808,7.75266989 L41.5911695,7.75266989 L41.5911695,11.406016 C41.7809444,11.235222 41.9201194,11.1181852 42.0086946,11.0549204 C42.2237738,10.8967734 42.4356989,10.7892293 42.6444711,10.732288 C43.0746386,10.6120969 43.4763475,10.5520014 43.8496007,10.5519864 C44.8174859,10.5520014 45.6177418,10.8904499 46.2503686,11.5673321 C46.882967,12.2379058 47.1992744,13.0634722 47.1992878,14.0440163 C47.1992744,14.8284576 46.9209243,15.5686195 46.3642392,16.2644871 C45.9467007,16.8022077 45.2919462,17.2513697 44.3999743,17.6119579 L43.7072624,16.2644871 C44.6055608,15.8469725 45.2065433,15.5180166 45.5102097,15.2776195 C46.1807669,14.7525458 46.5160522,14.1768693 46.5160657,13.550575 C46.5160522,12.9875604 46.2535169,12.478303 45.7284627,12.0228176 C45.3931639,11.738156 44.8712579,11.6306119 44.1627433,11.7001852 C43.8274475,11.7318176 43.416249,11.9532442 42.9291476,12.3644353 C42.4483518,12.769303 42.0023591,13.2659135 41.5911695,13.8542369 L41.5911695,20.0506862 L40.0159635,18.4564947 L40.0159635,15.6951341 C39.7439324,15.998796 39.3422221,16.2613328 38.8108339,16.4827446 C38.2794338,16.6978328 37.8018102,16.805377 37.3779646,16.805377 C36.4606718,16.805377 35.676232,16.4922373 35.0246423,15.865943 C34.379376,15.2396636 34.0567421,14.4678693 34.0567436,13.550575 C34.0567421,12.6143103 34.3635598,11.8425309 34.9771967,11.2352071 C35.5908291,10.6215896 36.3657791,10.3147734 37.3020514,10.3147585 C38.4913588,10.3147734 39.3959941,10.8208617 40.0159635,11.8330382 L40.0159635,12.411869 C39.4592559,11.9184426 38.8203176,11.671722 38.0991441,11.671722 C37.1755233,11.671722 36.4606718,11.8520236 35.9545851,12.2125969 C35.258707,12.7060531 34.8791393,13.3639649 34.8158805,14.186362 C34.7779216,14.7050973 34.9202599,15.1226268 35.2428938,15.4389357 C35.5085894,15.6919798 35.8755041,15.8184944 36.3436425,15.8184944 C37.0142071,15.8184944 37.7828322,15.4768916 38.6495177,14.7936709 C39.5604736,14.0724944 40.015956,13.3829353 40.0159635,12.7250236 L40.0159635,7.75266989 L32.6333641,7.75266989 M49.1066174,7.75266989 L47.8065967,6.4431699 L59.9432864,6.4431699 L61.262285,7.75266989 L58.0454449,7.75266989 L58.0454449,20.0506862 L56.4133036,18.4090462 L56.4133036,14.490009 C55.8945534,14.7999944 55.1227651,14.9549871 54.0979371,14.9549871 C53.0920781,14.8537665 52.2443766,14.3982811 51.5548324,13.5885309 C50.8716073,12.7977811 50.529997,11.8931337 50.5299985,10.8746188 L50.5299985,7.75266989 L49.1066174,7.75266989 M51.9628678,11.6906925 C51.9628678,12.2347515 52.111528,12.7281928 52.4088605,13.1710163 C52.7504678,13.6771046 53.1774811,13.9301487 53.6899018,13.9301487 C54.2402709,13.9301487 54.7210562,13.7783252 55.1322608,13.4746633 C55.2714298,13.3861046 55.524474,13.1646928 55.8913962,12.8104131 C56.0368917,12.6459426 56.2108593,12.3644353 56.4133036,11.9658763 L56.4133036,7.75266989 L51.9628678,7.75266989 L51.9628678,11.6906925 M61.3287086,7.75266989 L59.9148187,7.75266989 L58.614798,6.4431699 L61.5849174,6.4431699 C61.2812615,5.55119944 60.8447585,4.6876772 60.2754085,3.85261813 C59.5289245,2.75820639 58.8172348,2.21099305 58.1403376,2.2109781 C57.4760964,2.21099305 56.947864,2.48302259 56.5556404,3.02705176 C56.2013816,3.5141845 56.0242492,4.10250799 56.0242462,4.79205211 C56.0242492,5.22224357 56.160261,5.72833182 56.4322815,6.31031687 L54.8950314,6.31031687 C54.6799476,5.7409788 54.5723975,5.15265532 54.5723975,4.54533147 C54.5723975,3.41296386 54.8064697,2.51782419 55.274599,1.85988255 C55.8186506,1.10708861 56.6347213,0.730669214 57.7228126,0.730669214 C58.886823,0.730669214 59.905329,1.4233975 60.778335,2.80880924 C61.2274894,3.52367721 61.7683733,4.73512578 62.4009896,6.4431699 L64.8492031,6.4431699 L66.1492238,7.75266989 L62.9039161,7.75266989 L62.9039161,20.0317008 L61.3287086,18.4564947 L61.3287086,7.75266989 M66.2251371,7.75266989 L64.8207354,7.75266989 L63.492247,6.4431699 L66.244115,6.4431699 C65.6115017,5.51324357 65.2951943,4.38086101 65.2951958,3.04603717 C65.2951943,2.06549305 65.7222091,1.2937137 66.5762371,0.730669214 C67.316393,0.24358132 68.2052137,-1.24344979e-14 69.2427036,-1.24344979e-14 C71.2101243,-1.24344979e-14 73.038376,0.651603201 74.7274616,1.95477971 C76.6758999,3.46041244 78.0455059,4.99766261 78.8362856,6.56653022 L78.352337,6.56653022 C77.3401426,5.07357435 76.1824616,3.90008166 74.8792896,3.04603717 C73.4875304,2.13508131 71.8775317,1.63216227 70.0492861,1.53725017 C68.9928167,1.48033879 68.1261372,1.67011814 67.4492446,2.10660319 C66.7343886,2.57475052 66.3769635,3.23267721 66.376965,4.08035336 C66.3769635,5.1241772 66.6837797,5.9117877 67.2974166,6.4431699 L69.2806595,6.4431699 L70.6091479,7.75266989 L67.8003446,7.75266989 L67.8003446,20.0506862 L66.2251371,18.4849579 L66.2251371,7.75266989 M77.5837119,7.75266989 L69.2237242,7.75266989 L67.9237049,6.4431699 L81.4078594,6.4431699 L82.7268581,7.75266989 L78.9976018,7.75266989 L78.9976018,11.8899645 L74.5566557,11.8709941 C73.3610128,11.8646706 72.7631937,12.1493471 72.7631966,12.7250236 C72.7631937,13.0666414 72.8580848,13.3576414 73.0478732,13.5980236 C73.2503055,13.8574062 73.5191658,13.98709 73.8544556,13.987075 C74.1201482,13.98709 74.5155306,13.9459649 75.0406057,13.8637147 C75.5656674,13.775156 75.9610513,13.7308766 76.2267559,13.7308766 C77.1377103,13.7308766 77.9189883,14.1167738 78.5705885,14.8885531 C79.1968664,15.6223916 79.510009,16.4542814 79.5100195,17.3842227 C79.510009,18.1243697 79.1399311,18.7664802 78.3997826,19.3105243 C77.722878,19.810289 76.9985367,20.060164 76.2267559,20.060164 C74.7907174,20.060164 73.4305996,19.4085757 72.1463995,18.1053992 C71.279717,17.2260608 70.3782434,15.9513474 69.4419772,14.2812442 L70.0208184,13.9491191 C70.6281258,15.1004871 71.3651185,16.0905239 72.231801,16.9192446 C73.3262187,17.9693919 74.395335,18.4944506 75.4391514,18.4944506 C76.128694,18.4944506 76.7518176,18.2698697 77.3085251,17.8207227 C77.9094986,17.3462668 78.2099898,16.7737446 78.2099988,16.1031709 C78.2099898,15.8248328 78.1150971,15.5876049 77.9253222,15.3914871 C77.7355294,15.1953843 77.5046265,15.0973179 77.2326104,15.0973179 C76.9479264,15.0973179 76.5398926,15.2080312 76.0085044,15.429443 C75.4834292,15.6445312 75.0817189,15.7520754 74.8033748,15.7520754 C74.0821908,15.7520754 73.4464158,15.3788401 72.8960452,14.6323398 C72.7252363,14.410943 72.3456686,13.7308766 71.7573421,12.5921706 C71.523273,12.1430236 71.4062391,11.7792661 71.4062406,11.5009131 C71.4062391,10.9631925 71.6940774,10.6057734 72.2697584,10.4286261 C72.5923877,10.3274204 73.1016407,10.2768176 73.7975203,10.2768026 L77.5837119,10.2768026 L77.5837119,7.75266989 M81.4078594,7.75266989 L80.1078387,6.4431699 L93.364252,6.4431699 L94.6832596,7.75266989 L91.4474281,7.75266989 L91.4474281,20.0506862 L89.9007002,18.4849579 L89.9007002,15.0403766 C89.1352294,15.919715 88.1546703,16.3593843 86.9590424,16.3593843 C85.4850495,16.3593843 84.3589979,15.7963547 83.5808861,14.6703106 C83.0747949,13.9364722 82.8217493,13.101428 82.8217508,12.1651483 C83.3911008,12.1651633 83.9003538,12.0196633 84.3495127,11.7286483 C84.849273,11.4060309 85.1434377,10.9790087 85.2320084,10.4476115 C85.2699613,10.3210969 85.2889392,10.1028395 85.2889422,9.79285404 C85.2889392,8.8692512 84.9410024,8.18918484 84.2451303,7.75266989 L81.4078594,7.75266989 M85.715957,12.411869 C85.3553627,12.7914426 85.0327304,13.0571487 84.7480583,13.2089722 C84.5456185,13.3165163 84.2546171,13.4209062 83.8750524,13.5221119 C84.1723773,14.4520531 84.8049906,15.059362 85.7728923,15.3440385 C86.1271511,15.4136268 86.3548923,15.4484134 86.4561144,15.4484134 C87.6580748,15.4484134 88.6481116,14.7082665 89.4262294,13.2279426 C89.7172294,12.6712515 89.8627443,12.0354795 89.8627443,11.3206115 L89.8627443,7.75266989 L85.9721658,7.75266989 C86.4529467,8.38530263 86.6933394,9.14760423 86.6933453,10.0395747 C86.6933394,10.931575 86.3675437,11.7223398 85.715957,12.411869 M94.7781418,7.75266989 L93.364252,7.75266989 L92.054737,6.4431699 L98.2796644,6.4431699 L99.5796866,7.75266989 L96.3343774,7.75266989 L96.3343774,20.0506862 L94.7781418,18.4754802 L94.7781418,7.75266989 M105.330143,5.3803756 L106.990754,7.03149338 L106.990754,20.9995979 L105.330143,19.3579729 L105.330143,5.3803756 M109.922908,5.3803756 L111.583519,7.03149338 L111.583519,20.9995979 L109.922908,19.3579729 L109.922908,5.3803756" id="sa-wordmark" fill="#000000" fill-rule="nonzero"></path>
    </g>
</svg>