<svg xmlns="http://www.w3.org/2000/svg" width="120" height="26" fill="none"><path fill="#666" d="M95.38 25.753h-2.412l-.603-1.55h-3.36l-.602 1.55h-2.326l3.36-7.667h2.584l3.36 7.667ZM91.85 22.91l-1.12-2.756-1.12 2.756h2.24ZM27.326 25.753H25v-7.667h2.326v7.667ZM81.167 23.513c0 .517-.087.862-.345 1.206a2.352 2.352 0 0 1-1.034.776c-.43.172-.947.258-1.55.258h-.603c-.259 0-.517-.086-.948-.172-.344-.086-.775-.259-1.206-.431v-1.895c.345.258.775.43 1.12.603.344.172.775.258 1.206.258.43 0 .603-.086.775-.172.173-.086.173-.258.173-.345 0-.172-.087-.344-.259-.516-.172-.173-.517-.259-.861-.431-.431-.172-.776-.345-1.12-.603a1.69 1.69 0 0 1-.775-.776c-.173-.344-.345-.689-.345-1.12 0-.43.086-.775.345-1.12.258-.344.516-.602.947-.775.43-.172.948-.258 1.55-.258.431 0 .862 0 1.207.086.344.086.689.172.861.259.259.086.43.172.517.258v1.81c-.344-.26-.69-.432-1.034-.604-.344-.172-.775-.258-1.206-.258-.258 0-.517.086-.603.172a.658.658 0 0 0-.172.43c0 .173.086.26.172.431.086.173.345.259.69.431a6.525 6.525 0 0 1 1.378.775c.344.259.603.517.861.776.172.086.259.517.259.947ZM74.275 25.753h-5.772v-7.667h5.686v1.55h-3.36v1.38h3.188v1.55h-3.188v1.637h3.446v1.55ZM37.577 25.753H35.51l-3.963-4.307v4.307h-2.326v-7.58h2.067l3.963 4.22v-4.22h2.326v7.58ZM56.96 21.963c0 .689-.172 1.378-.517 1.981a3.98 3.98 0 0 1-1.465 1.465c-.603.344-1.464.516-2.412.516-.947 0-1.723-.172-2.412-.517-.689-.344-1.12-.86-1.464-1.464a3.69 3.69 0 0 1-.517-1.895c0-.69.172-1.292.517-1.895.344-.603.775-1.12 1.464-1.465.69-.344 1.465-.517 2.412-.517.69 0 1.379.087 1.896.345.516.172 1.033.517 1.378.775.344.259.603.776.775 1.292.259.345.345.862.345 1.379Zm-2.326 0c0-.259 0-.517-.086-.776-.086-.258-.173-.43-.345-.603-.172-.172-.345-.344-.603-.43-.258-.086-.517-.173-.861-.173-.603 0-1.12.173-1.465.517-.344.345-.517.862-.517 1.379s.173 1.033.517 1.464c.345.43.862.517 1.465.517.43 0 .775-.086 1.12-.259a2.62 2.62 0 0 0 .689-.689c0-.258.086-.603.086-.947ZM47.398 22.135c0 .775-.173 1.378-.431 1.895a2.618 2.618 0 0 1-1.034 1.12c-.517.43-1.292.69-2.326.69H39.472v-7.668h3.188c.517 0 .861 0 1.206.087.344.086.689.086.947.172.259.086.517.172.69.344.172.087.344.259.516.345.259.172.517.43.69.775.172.259.344.603.43 1.034.086.43.259.69.259 1.206Zm-2.412-.172c0-.603-.086-1.12-.345-1.465-.258-.344-.517-.603-.861-.689-.345-.086-.69-.172-1.034-.172h-.948v4.566h.948c.603 0 1.12-.173 1.55-.431.517-.259.69-.862.69-1.81ZM66.608 25.753H64.54l-3.962-4.307v4.307h-2.326v-7.667h2.067l3.963 4.221v-4.22h2.326v7.666ZM85.043 25.753h-2.326v-7.58h2.326v7.58Z"/><path fill="#444" d="M120 13.872h-3.963l-1.033-2.777h-5.514l-1.033 2.777h-3.963l5.685-13.7h4.222l5.599 13.7Zm-5.858-5.276-1.895-4.999-1.895 4.999h3.79ZM102.771 14.13h-3.877V.43h3.877v13.7ZM96.569 7.207c0 1.389-.259 2.5-.69 3.425-.516.834-1.033 1.574-1.722 2.037-.948.74-2.154 1.203-3.877 1.203H83.388V.172h5.341c.776 0 1.465 0 2.068.093.603.092 1.12.185 1.55.37.431.185.862.37 1.12.555.345.186.603.463.862.648.43.37.258.278 1.12 1.389.344.555.603 1.11.775 1.851.172.74.345 1.389.345 2.13Zm-3.963-.185c0-1.11-.172-1.944-.603-2.592-.43-.648-.862-1.018-1.465-1.296a5.2 5.2 0 0 0-1.722-.277h-1.637v8.146h1.637c1.033 0 1.895-.278 2.584-.74.861-.556 1.206-1.575 1.206-3.24ZM80.89 13.872h-9.648V.172h9.476V2.95h-5.6v2.5h5.342v2.777h-5.341v2.962h5.771v2.684ZM67.968 13.872h-3.876v-7.96l-3.446 4.628h-.345L56.856 5.91v7.961H53.15V.172h3.532l3.963 5.184L64.61.172h3.532v13.7h-.173ZM49.964 13.872h-3.877V.172h3.877v13.7ZM44.365 13.872h-4.738l-4.91-6.387v6.387H30.84V.172h3.877v6.11l4.651-6.11h4.221L38.852 6.56l5.513 7.313ZM27.739 13.786h-3.877V.086h3.877v13.7ZM22.14.09 16.625 13.7h-2.24l-3.273-7.893-3.36 7.893H5.427L0 .09h3.963l2.584 7.44L9.562.09h2.757l2.929 7.44L18.004.09h4.135Z"/></svg>