<svg xmlns="http://www.w3.org/2000/svg" width="113" height="10"><path fill="#000" fill-rule="nonzero" d="M3.668 5.843c-.324 0-.423-.028-.366-.183l1.422-3.576h.028l1.366 3.759h-2.45m-1.52 2.872.774-2.041c.07-.183.154-.24.492-.24h2.929l.859 2.38c.197.591-.38.535-1.042.577-.085.085-.085.38 0 .465.52-.014 1.295-.028 1.844-.028.577 0 1.084.014 1.605.028.085-.085.085-.38 0-.465-.549-.042-1.013-.042-1.267-.774L5.456.986c-.113-.268-.183-.423-.38-.423-.212 0-.324.127-.479.507L1.471 8.391c-.38.873-.802.958-1.408 1-.084.085-.084.38 0 .465.521-.014.704-.028 1.253-.028.578 0 1.282.014 1.803.028.084-.085.084-.38 0-.465-.535-.028-1.197-.084-.972-.676m13.591-.605V4.337h1.31c.126 0 .324-.057.324-.184v-.281c0-.056-.043-.085-.113-.085h-1.52v-.802c0-2.168.647-2.506 1.112-2.506.422 0 .647.169.844.661.113.254.268.451.564.451.239 0 .577-.296.577-.577 0-.24-.155-.493-.45-.718C18.018.042 17.652 0 17.117 0c-1.183 0-2.492 1.028-2.492 3.224v.563h-.718c-.253 0-.324.17-.324.282v.183c0 .07.014.085.07.085h.972V8.11c0 1.168-.155 1.225-.915 1.281-.085.085-.085.38 0 .465.591-.014.9-.028 1.478-.028.648 0 1.056.014 1.662.028.084-.085.084-.38 0-.465-.958-.056-1.113-.113-1.113-1.281m3.317-2.746V8.11c0 1.168-.17 1.225-1.042 1.281-.085.085-.085.38 0 .465.591-.014 1.042-.028 1.605-.028.577 0 1.098.014 1.703.028.085-.085.085-.38 0-.465-.985-.07-1.154-.113-1.154-1.281V6.153c0-.366.169-.69.338-.944.155-.225.479-.69.648-.69.098 0 .21.015.295.1.141.14.282.407.577.407.338 0 .662-.352.662-.704 0-.267-.253-.675-.845-.675-.661 0-1.239.62-1.562 1.168-.085.155-.127.085-.127.014 0-.45.07-1.126.07-1.126 0-.056-.07-.099-.183-.099-.394.155-.957.282-1.929.409-.028.084-.028.31.029.394.76.07.915.183.915.957m5.084-3.97c0 .366.338.732.676.732.394 0 .732-.366.732-.676 0-.338-.296-.732-.676-.732-.338 0-.732.338-.732.676M25.42 8.11V5.308c0-.704.056-1.605.056-1.605 0-.056-.07-.099-.183-.099-.408.155-.957.282-1.929.409-.028.084 0 .31.029.394.76.084.915.155.915.957V8.11c0 1.168-.155 1.21-1.014 1.281-.085.085-.085.38 0 .465.591-.014.957-.028 1.577-.028.605 0 .957.014 1.563.028.084-.085.084-.38 0-.465-.86-.056-1.014-.113-1.014-1.281m7.244-3.393a1.77 1.77 0 0 1 1.196-.45c.86 0 1.563 1.041 1.563 2.407 0 1.605-.647 2.816-1.985 2.816-.436 0-.732-.31-1.014-.662v-3.52c0-.296.057-.422.24-.591m-.099-.437c-.098.085-.14.057-.14-.07V1.62c0-.916.056-1.48.056-1.48 0-.098-.057-.14-.183-.14-.352.14-1.408.338-1.972.38-.028.113 0 .338.085.423.732.042.901-.029.901 1.154v6.87c0 .55-.014.803-.056 1 .07.113.14.17.31.17.084-.07.225-.212.323-.338.155-.17.24-.17.395-.029.31.268.732.338 1.239.338 1.436 0 3.111-1.31 3.111-3.548 0-1.717-1.267-2.773-2.492-2.773-.605 0-1.14.239-1.577.633M40.2 9.968c.549 0 1.126-.281 1.816-.844.056-.057.17-.085.17.014 0 .338.154.83.154.83.099.043.155.043.267 0 .31-.253.845-.464 1.704-.563.085-.084.085-.296 0-.38-.901-.07-1.028-.338-1.028-1.028V5.294c0-.422.057-1.436.057-1.436 0-.057-.043-.099-.113-.099-.07.014-.282.028-.493.028-.45 0-.915-.014-1.436-.028-.084.085-.084.38 0 .465.69.042.873.211.873 1.14v2.718c0 .267-.028.38-.225.549-.521.45-.972.676-1.324.676-.422 0-1.126-.198-1.126-1.45V5.293c0-.422.056-1.436.056-1.436 0-.057-.042-.099-.112-.099-.07.014-.282.028-.493.028-.45 0-.915-.014-1.436-.028-.085.085-.085.38 0 .465.675.056.873.211.873 1.126v2.704c0 .971.422 1.914 1.816 1.914m5.553-1.858c0 1.168-.155 1.225-.944 1.281-.084.085-.084.38 0 .465.592-.014.916-.028 1.507-.028.493 0 .676.014 1.281.028.085-.085.085-.38 0-.465-.577-.056-.732-.113-.732-1.281V6.843c.324.014.52.112.803.507l1.027 1.45c.282.408.324.577.324.76v.225c0 .043.014.07.056.07.282-.013.55-.027.972-.027.436 0 .732.014 1.155.028.084-.085.084-.38 0-.465-.48-.056-.902-.113-1.211-.591l-1.648-2.436a.336.336 0 0 1-.07-.197.18.18 0 0 1 .056-.141l1.07-1.183c.409-.422.845-.591 1.55-.62.084-.084.084-.38 0-.464-.522.014-.719.028-1.226.028-.535 0-.774-.014-1.295-.028-.085.085-.085.38 0 .465.845.042.394.577.253.718-.746.817-1.45 1.436-1.816 1.549V1.619c0-.915.056-1.478.056-1.478 0-.099-.056-.141-.183-.141-.352.14-1.408.338-1.97.38-.029.113 0 .338.084.423.732.042.9-.029.9 1.154V8.11m8.637 1.858c.55 0 1.127-.281 1.817-.844.056-.057.169-.085.169.014 0 .338.155.83.155.83.098.043.154.043.267 0 .31-.253.845-.464 1.704-.563.084-.084.084-.296 0-.38-.901-.07-1.028-.338-1.028-1.028V5.294c0-.422.056-1.436.056-1.436 0-.057-.042-.099-.112-.099-.07.014-.282.028-.493.028-.45 0-.915-.014-1.436-.028-.085.085-.085.38 0 .465.69.042.873.211.873 1.14v2.718c0 .267-.029.38-.226.549-.52.45-.971.676-1.323.676-.423 0-1.127-.198-1.127-1.45V5.293c0-.422.057-1.436.057-1.436 0-.057-.042-.099-.113-.099-.07.014-.281.028-.493.028-.45 0-.915-.014-1.436-.028-.084.085-.084.38 0 .465.676.056.873.211.873 1.126v2.704c0 .971.423 1.914 1.816 1.914M64.714 8.11V4.337h1.31c.126 0 .323-.057.323-.184v-.281c0-.056-.042-.085-.112-.085h-1.52v-.802c0-2.168.647-2.506 1.112-2.506.422 0 .647.169.844.661.113.254.268.451.563.451.24 0 .578-.296.578-.577 0-.24-.155-.493-.45-.718C66.994.042 66.628 0 66.093 0c-1.183 0-2.492 1.028-2.492 3.224v.563h-.718c-.254 0-.324.17-.324.282v.183c0 .07.014.085.07.085h.972V8.11c0 1.168-.155 1.225-.915 1.281-.085.085-.085.38 0 .465.591-.014.9-.028 1.478-.028.648 0 1.056.014 1.662.028.084-.085.084-.38 0-.465-.958-.056-1.113-.113-1.113-1.281m4.964 1.858c.549 0 1.126-.281 1.816-.844.057-.057.17-.085.17.014 0 .338.154.83.154.83.099.043.155.043.268 0 .31-.253.844-.464 1.703-.563.085-.084.085-.296 0-.38-.9-.07-1.028-.338-1.028-1.028V5.294c0-.422.057-1.436.057-1.436 0-.057-.043-.099-.113-.099-.07.014-.282.028-.493.028-.45 0-.915-.014-1.436-.028-.084.085-.084.38 0 .465.69.042.873.211.873 1.14v2.718c0 .267-.028.38-.225.549-.521.45-.972.676-1.324.676-.422 0-1.126-.198-1.126-1.45V5.293c0-.422.056-1.436.056-1.436 0-.057-.042-.099-.112-.099-.07.014-.282.028-.493.028-.45 0-.915-.014-1.436-.028-.085.085-.085.38 0 .465.676.056.873.211.873 1.126v2.704c0 .971.422 1.914 1.816 1.914m8.538-2.083c.056.69.098 1.351.098 1.943.141-.029.282-.043.352-.043.099 0 .183 0 .282.028.38.099.76.155 1.281.155.788 0 2.239-.38 2.239-1.774 0-.957-.704-1.506-1.648-1.872-.844-.324-1.408-.535-1.408-1.31 0-.577.507-.9.986-.9.31 0 1.126.112 1.31 1.309.084.084.365.07.45-.014 0-.507.07-1.028.084-1.493-.436-.07-1.112-.267-1.844-.267-1.042 0-1.985.675-1.985 1.577 0 1.027.464 1.464 1.549 1.914 1.154.493 1.436.775 1.436 1.38 0 .69-.676.986-1.197.986-.55 0-.859-.183-1-.338-.338-.324-.464-.944-.549-1.296-.084-.084-.352-.07-.436.015m8.839-1.338V8.42c0 .183-.085.281-.197.366-.366.295-.845.605-1.24.605-.703 0-1.013-.563-1.013-1 0-.633.296-1.267 1.338-1.548l1.112-.296m0 2.605c.084.295.324.816 1.084.816.69 0 1.197-.563 1.197-.633 0-.099-.127-.24-.183-.24-.085 0-.141.226-.437.226-.549 0-.563-.55-.563-1.197V6.026c0-2-1.098-2.38-2.126-2.38-1.154 0-2.323.803-2.323 1.563 0 .338.169.493.493.493.408 0 .62-.281.62-.464a.633.633 0 0 0-.043-.254.973.973 0 0 1-.028-.281c0-.437.633-.592 1.169-.592.478 0 1.14.24 1.14 1.83 0 .1-.042.155-.085.17l-1.21.295c-1.352.338-2.323 1.084-2.323 2.042 0 1.112.788 1.52 1.774 1.52.647 0 .915-.112 1.534-.591l.282-.225h.028m4.76-4.435a1.77 1.77 0 0 1 1.196-.45c.859 0 1.563 1.041 1.563 2.407 0 1.605-.648 2.816-1.985 2.816-.437 0-.732-.31-1.014-.662v-3.52c0-.296.056-.422.24-.591m-.1-.437c-.098.085-.14.057-.14-.07V1.62c0-.916.056-1.48.056-1.48 0-.098-.056-.14-.183-.14-.352.14-1.408.338-1.97.38-.03.113 0 .338.084.423.732.042.9-.029.9 1.154v6.87c0 .55-.013.803-.056 1 .07.113.141.17.31.17.085-.07.225-.212.324-.338.155-.17.24-.17.394-.029.31.268.732.338 1.24.338 1.435 0 3.11-1.31 3.11-3.548 0-1.717-1.266-2.773-2.491-2.773-.606 0-1.14.239-1.577.633m5.845-2.886c0 .366.338.732.676.732.394 0 .732-.366.732-.676 0-.338-.295-.732-.675-.732-.338 0-.733.338-.733.676m1.282 6.716V5.308c0-.704.056-1.605.056-1.605 0-.056-.07-.099-.183-.099-.408.155-.958.282-1.929.409-.028.084 0 .31.028.394.76.084.915.155.915.957V8.11c0 1.168-.155 1.21-1.013 1.281-.085.085-.085.38 0 .465.59-.014.957-.028 1.577-.028.605 0 .957.014 1.562.028.085-.085.085-.38 0-.465-.859-.056-1.013-.113-1.013-1.281m1.95-.225c.056.69.098 1.351.098 1.943.14-.029.282-.043.352-.043.099 0 .183 0 .282.028.38.099.76.155 1.28.155.79 0 2.24-.38 2.24-1.774 0-.957-.705-1.506-1.648-1.872-.845-.324-1.408-.535-1.408-1.31 0-.577.507-.9.986-.9.31 0 1.126.112 1.31 1.309.084.084.365.07.45-.014 0-.507.07-1.028.084-1.493-.436-.07-1.112-.267-1.844-.267-1.042 0-1.985.675-1.985 1.577 0 1.027.464 1.464 1.548 1.914 1.155.493 1.436.775 1.436 1.38 0 .69-.675.986-1.196.986-.55 0-.86-.183-1-.338-.338-.324-.465-.944-.55-1.296-.084-.084-.351-.07-.436.015m5.292-.944c0 1.436.971 3.027 2.956 3.027 2.098 0 2.985-1.746 2.985-3.153 0-1.465-.774-3.168-2.956-3.168-1.901 0-2.985 1.506-2.985 3.294m2.83-2.83c1.21 0 1.9 1.084 1.9 3.154 0 1.859-.858 2.239-1.52 2.239-1.464 0-2-1.802-2-2.887 0-1.225.437-2.506 1.62-2.506"/></svg>