<svg xmlns="http://www.w3.org/2000/svg" width="106" height="11"><path fill="#000" fill-rule="nonzero" d="M71.92 6.965v3.713h-.8v-2.93h-6.697v-.783h7.497zM9.594 5.67v.772H5.186v4.14h-.778v-4.14H0V5.67h9.594zM19.853.001c.105 0 .157.039.158.118l-.08.344v10.12h-.8V0h.722zm26.952 5.67v.772h-4.408v4.14h-.778v-4.14h-4.408V5.67h9.594zM57.087.001c.097 0 .146.035.146.106l-.09.344v10.132h-.8V0h.744zM82.63 0c.083 0 .131.027.147.082l-.089.398a.132.132 0 0 0-.002.018v4.413h1.894v.771h-1.894v4.9h-.778V0h.722zm11.273 0c.083 0 .132.027.147.082l-.083.367a.36.36 0 0 0-.007.048v4.106h1.894v.77H93.96v5.21h-.778V0h.721zm5.468 7.237c.06 0 .094.02.102.059l-.08.364a.512.512 0 0 0-.01.075V9.55H106v.771h-7.395V7.238h.766zm-68.304-.973c.098 0 .147.04.147.118l-.09.368v1.792h4.408v.77h-9.594v-.77h4.408V6.265h.721zM88.887.902a.132.132 0 0 1 .022.071l-.067.605c0 1.36.124 2.4.372 3.12.263.752.729 1.476 1.398 2.172l.635.66c.073.073.128.128.166.164l.134.113c-.07.108-.216.266-.436.474l-.184.167a7.43 7.43 0 0 1-.406-.368 8.92 8.92 0 0 1-1.578-2.1l-.132-.259a27.527 27.527 0 0 1-.42-.892 9.828 9.828 0 0 1-1.838 3.037l-.387.404a.966.966 0 0 1-.165.142l-.733-.498.118-.128.333-.335c.285-.277.571-.613.857-1.008.736-.997 1.187-2.065 1.352-3.204.076-.554.113-1.345.113-2.373h.586c.128-.023.215-.012.26.036zm-33.21 5.956v.795l-.647.05c-.793.067-2.104.188-3.93.363l-1.747.168c-.03 0-.184.055-.462.166l-.085.021a.177.177 0 0 1-.028.003c-.143 0-.27-.277-.383-.83l-.015-.1a.304.304 0 0 0-.008-.031l1.32-.119 5.985-.486zM77.23 3.856c.075 0 .113.032.113.095l-.08.392.012 2.847 4.002-.356v.795c-1.285.113-2.54.228-3.767.345l-2.376.227-.249.021c-.015 0-.094.048-.237.143a.338.338 0 0 1-.146.047c-.053 0-.105-.04-.158-.119l-.203-.878 2.05-.131.295-.023V3.856h.744zM16.313 1.127v3.678h-3.98v2.551c1.646 0 3.018-.09 4.115-.273l1.24-.213h.09l.068.688c0 .04-.004.067-.011.083l-1.24.237c-1.233.238-2.92.356-5.062.356V4.022h4.002V1.9h-4.002v-.772h4.78zM105.583 0c.09 0 .135.036.135.107l-.09.38v7.688h-.8v-4.26h-2.176v-.77h2.176V0h.755zm-2.503.89v.783h-2.446c0 1.569.553 2.792 1.659 3.67l.2.15c.43.317.73.519.903.606-.075.134-.267.336-.575.605l-.056.047c-1.105-.633-1.955-1.621-2.548-2.966-.21.538-.7 1.202-1.466 1.993-.496.514-.917.87-1.263 1.068l-.377-.35c-.11-.099-.201-.18-.276-.243v-.024c1.815-1.057 2.798-2.413 2.949-4.068l.016-.239c.007-.079.01-.162.01-.249h-2.502V.89h5.772zM71.875 0c.075 0 .113.032.113.095l-.068.38v5.884h-.8V3.963h-1.466v2.396h-.789V.237h.733c.097 0 .146.04.146.119l-.09.344v2.492h1.466V0h.755zm8.602 1.127v.938c0 1.55-.136 2.883-.406 3.998l-.778-.119a22.4 22.4 0 0 0 .383-4.045h-4.87v-.772h5.67zM64.187.593c.097 0 .146.04.146.12l-.101.355v1.27h2.649V.592h.766c.068 0 .102.036.102.107l-.068.368v4.615h-4.239V.593h.745zm-12.23.13c.752 0 1.372.258 1.86.772.406.427.61.945.61 1.554 0 1.124-.426 1.895-1.275 2.314-.39.19-.85.285-1.375.285-.91 0-1.601-.32-2.075-.961-.33-.443-.496-.985-.496-1.626 0-.672.279-1.246.835-1.72A2.361 2.361 0 0 1 51.27.77c.21-.031.44-.047.687-.047zm-17.7.357v4.556h-7.034V1.08h7.035zm32.624 2.029h-2.65v1.803h2.65V3.109zM51.64 1.495c-.255 0-.533.083-.834.25-.518.3-.778.77-.778 1.411 0 .617.24 1.092.722 1.424.286.198.612.296.98.296 1.038 0 1.643-.438 1.816-1.316.03-.15.045-.317.045-.499 0-.76-.387-1.246-1.161-1.46a2.77 2.77 0 0 0-.79-.106zm-18.184.356h-5.445v3.014h5.445V1.85zM4.735.356c2.54 0 3.81.669 3.81 2.005 0 .412-.064.736-.191.973-.429.83-1.714 1.246-3.856 1.246-1.398 0-2.386-.293-2.965-.878-.33-.324-.496-.736-.496-1.234 0-1.218.943-1.91 2.83-2.076.27-.024.56-.036.868-.036zm40.988.06v.783h-6.46V3.5h6.46v.783h-7.249V.415h7.249zm-40.515.723h-.721c-1.097 0-1.864.206-2.3.617a.99.99 0 0 0-.327.748c0 .696.643 1.115 1.928 1.257.27.032.549.048.834.048 2.067 0 3.1-.443 3.1-1.329 0-.767-.646-1.206-1.939-1.317a6.59 6.59 0 0 0-.575-.024z"/></svg>