<svg xmlns="http://www.w3.org/2000/svg" width="120" height="11"><path fill="#000" fill-rule="nonzero" d="M8.025 2.736V7.65c0 .279 0 .44-.103.44-.118 0-.28-.264-.706-.808L2.17.78.184.75c-.088.089-.088.397 0 .486.632.044 1.074.559 1.162.941v6.134c0 1.31-.25 1.398-1.28 1.501-.088.088-.088.397 0 .485.721-.014 1-.029 1.648-.029.632 0 .897.015 1.633.03.088-.089.088-.398 0-.486-1.03-.103-1.28-.162-1.28-1.5V3.81c0-.5 0-.72.118-.72.088 0 .25.161.5.485l5.134 6.487c.161.22.353.353.588.353.206 0 .338-.176.338-.456V2.736c0-1.31.25-1.397 1.28-1.5.089-.089.089-.397 0-.486-.72.015-1 .03-1.647.03-.633 0-.898-.015-1.633-.03-.088.089-.088.397 0 .486 1.03.103 1.28.162 1.28 1.5m3.43-1.28c0 .383.353.765.707.765.411 0 .764-.382.764-.706 0-.353-.308-.765-.706-.765-.353 0-.765.353-.765.706m1.34 7.017V5.546c0-.736.058-1.677.058-1.677 0-.059-.074-.103-.191-.103-.427.162-1 .294-2.016.427-.03.088 0 .323.03.411.794.089.956.162.956 1v2.87c0 1.22-.162 1.264-1.06 1.338-.087.088-.087.397 0 .485.619-.014 1.001-.029 1.648-.029.633 0 1 .015 1.633.03.088-.089.088-.398 0-.486-.897-.059-1.059-.118-1.059-1.339m4.126-3.03c.574-.56 1.045-.868 1.5-.868.56 0 .972.353.972 1.339v2.56c0 1.206-.118 1.28-.913 1.338-.073.088-.073.397 0 .485.618-.014.913-.029 1.501-.029.603 0 .809.015 1.442.03.073-.089.073-.398 0-.486-.736-.059-.868-.132-.868-1.339V6.134c0-.206 0-.412-.015-.588.706-.78 1.28-.971 1.854-.971.559 0 .912.324.912 1.31v2.588c0 1.207-.148 1.28-.912 1.339-.074.088-.074.397 0 .485.617-.014.912-.029 1.5-.029.603 0 .883.015 1.515.03.074-.089.074-.398 0-.486-.809-.059-.941-.132-.941-1.339V6.15c0-1.31-.25-2.339-1.545-2.339-.765 0-1.574.28-2.339 1.089-.044.044-.132.117-.162 0-.147-.604-.706-1.089-1.47-1.089-.854 0-1.501.515-2.149 1.192-.058.058-.147.206-.147 0 0-.442.074-1.118.074-1.118 0-.074-.059-.118-.177-.118-.426.162-1.015.294-2.03.427-.03.088 0 .323.03.411.794.089.956.148.956 1v2.87c0 1.206-.191 1.28-1 1.338-.089.088-.089.397 0 .485.603-.014.956-.029 1.588-.029.574 0 .824.015 1.442.03.088-.089.088-.398 0-.486-.736-.074-.868-.132-.868-1.339V6.061c0-.31.132-.486.25-.618m13.744 3c0 .28-.03.398-.235.575-.544.47-1.015.706-1.383.706-.794 0-1.618-.868-1.618-2.707 0-1.06.206-1.648.426-1.957.457-.691 1.074-.735 1.369-.735.53 0 .897.191 1.191.53.206.235.25.338.25.794v2.795m-.162 1.088c.06-.058.177-.088.177.015 0 .353.162.868.162.868.117.044.162.03.28 0 .323-.265.882-.485 1.78-.588.087-.089.087-.31 0-.398-.942-.073-1.075-.353-1.075-1.073V1.692c0-.956.06-1.545.06-1.545 0-.103-.06-.147-.192-.147-.368.147-1.471.353-2.06.397-.029.118 0 .353.089.442.765.044.941-.03.941 1.206v1.883c0 .103-.03.132-.132.132-.059 0-.662-.25-1.148-.25-.97 0-1.618.324-2.206.883-.633.632-1.015 1.5-1.015 2.589 0 1.81.912 3.133 2.5 3.133.574 0 1.119-.294 1.84-.883m4.352-3.412c.28-1.663 1.309-1.795 1.662-1.795.559 0 1.22.309 1.22 1.545 0 .132-.058.205-.22.205l-2.662.045m3.854 2.78c-.544.559-.971.794-1.824.794-.53 0-1.148-.309-1.604-1.059-.294-.485-.47-1.162-.47-2.015l3.913.03c.176 0 .28-.09.28-.25 0-1.237-.442-2.56-2.487-2.56-1.28 0-2.942 1.22-2.942 3.456 0 .824.206 1.619.691 2.178.5.588 1.192.941 2.251.941 1.118 0 1.912-.515 2.5-1.28-.043-.147-.132-.22-.308-.235m2.84-2.78c.28-1.663 1.31-1.795 1.662-1.795.56 0 1.221.309 1.221 1.545 0 .132-.058.205-.22.205l-2.663.045m3.854 2.78c-.544.559-.97.794-1.824.794-.53 0-1.147-.309-1.603-1.059-.294-.485-.471-1.162-.471-2.015l3.913.03c.177 0 .28-.09.28-.25 0-1.237-.442-2.56-2.487-2.56-1.28 0-2.942 1.22-2.942 3.456 0 .824.206 1.619.692 2.178.5.588 1.191.941 2.25.941 1.118 0 1.913-.515 2.501-1.28-.044-.147-.132-.22-.309-.235m3.461-3.972a1.85 1.85 0 0 1 1.25-.47c.898 0 1.633 1.088 1.633 2.515 0 1.677-.676 2.942-2.074 2.942-.456 0-.765-.324-1.059-.691V5.546c0-.309.059-.441.25-.618m-.103-.456c-.103.088-.147.059-.147-.074V1.692c0-.956.059-1.545.059-1.545 0-.103-.059-.147-.191-.147-.368.147-1.471.353-2.06.397-.03.118 0 .353.089.442.764.044.941-.03.941 1.206v7.179c0 .573-.015.838-.059 1.044.074.118.147.177.324.177.088-.074.235-.221.338-.354.162-.176.25-.176.412-.029.324.28.765.353 1.295.353 1.5 0 3.25-1.368 3.25-3.707 0-1.795-1.323-2.898-2.603-2.898-.633 0-1.192.25-1.648.662m7.976 5.943c.574 0 1.177-.294 1.898-.883.059-.058.176-.088.176.015 0 .353.162.868.162.868.103.044.162.044.28 0 .323-.265.882-.485 1.78-.588.088-.089.088-.31 0-.398-.942-.073-1.074-.353-1.074-1.073V5.53c0-.441.059-1.5.059-1.5 0-.06-.045-.103-.118-.103-.074.014-.294.03-.515.03-.47 0-.956-.016-1.5-.03-.089.088-.089.397 0 .485.72.044.912.22.912 1.192v2.839c0 .28-.03.397-.236.574-.544.47-1.015.706-1.383.706-.44 0-1.176-.206-1.176-1.515V5.53c0-.441.058-1.5.058-1.5 0-.06-.044-.103-.117-.103-.074.014-.294.03-.515.03-.47 0-.956-.016-1.5-.03-.089.088-.089.397 0 .485.706.059.911.22.911 1.177v2.824c0 1.015.442 2.001 1.898 2.001m7.729 0c.574 0 1.177-.294 1.898-.883.058-.058.176-.088.176.015 0 .353.162.868.162.868.103.044.162.044.28 0 .323-.265.882-.485 1.78-.588.088-.089.088-.31 0-.398-.942-.073-1.074-.353-1.074-1.073V5.53c0-.441.058-1.5.058-1.5 0-.06-.044-.103-.117-.103-.074.014-.295.03-.515.03-.47 0-.956-.016-1.5-.03-.089.088-.089.397 0 .485.72.044.911.22.911 1.192v2.839c0 .28-.029.397-.235.574-.544.47-1.015.706-1.383.706-.441 0-1.177-.206-1.177-1.515V5.53c0-.441.06-1.5.06-1.5 0-.06-.045-.103-.118-.103-.074.014-.295.03-.515.03-.471 0-.957-.016-1.5-.03-.09.088-.09.397 0 .485.705.059.911.22.911 1.177v2.824c0 1.015.442 2.001 1.898 2.001m5.802-1.942c0 1.221-.162 1.28-.986 1.339-.088.088-.088.397 0 .485.618-.014.956-.029 1.574-.029.515 0 .706.015 1.339.03.088-.089.088-.398 0-.486-.603-.059-.765-.118-.765-1.339V7.15c.338.015.544.118.838.53l1.074 1.515c.294.427.338.603.338.794v.236c0 .044.015.073.06.073.294-.014.573-.029 1.014-.029.456 0 .765.015 1.207.03.088-.089.088-.398 0-.486-.5-.059-.942-.118-1.265-.618L72.974 6.65a.351.351 0 0 1-.073-.206c0-.059.015-.103.059-.147l1.118-1.236c.426-.44.882-.617 1.618-.647.088-.088.088-.397 0-.485-.544.014-.75.03-1.28.03-.559 0-.81-.016-1.353-.03-.089.088-.089.397 0 .485.882.044.412.603.264.75-.78.854-1.515 1.5-1.897 1.619v-5.09c0-.956.059-1.545.059-1.545 0-.103-.06-.147-.192-.147-.367.147-1.47.353-2.06.397-.029.118 0 .353.09.442.764.044.94-.03.94 1.206v6.428m9.024 1.942c.574 0 1.177-.294 1.898-.883.059-.058.177-.088.177.015 0 .353.161.868.161.868.103.044.162.044.28 0 .324-.265.883-.485 1.78-.588.088-.089.088-.31 0-.398-.942-.073-1.074-.353-1.074-1.073V5.53c0-.441.059-1.5.059-1.5 0-.06-.044-.103-.118-.103-.073.014-.294.03-.515.03-.47 0-.956-.016-1.5-.03-.088.088-.088.397 0 .485.72.044.912.22.912 1.192v2.839c0 .28-.03.397-.235.574-.545.47-1.015.706-1.383.706-.442 0-1.177-.206-1.177-1.515V5.53c0-.441.059-1.5.059-1.5 0-.06-.044-.103-.118-.103-.073.014-.294.03-.515.03-.47 0-.956-.016-1.5-.03-.089.088-.089.397 0 .485.706.059.912.22.912 1.177v2.824c0 1.015.441 2.001 1.897 2.001m7.73 0c.573 0 1.176-.294 1.897-.883.059-.058.176-.088.176.015 0 .353.162.868.162.868.103.044.162.044.28 0 .323-.265.882-.485 1.78-.588.088-.089.088-.31 0-.398-.942-.073-1.074-.353-1.074-1.073V5.53c0-.441.059-1.5.059-1.5 0-.06-.044-.103-.118-.103-.074.014-.294.03-.515.03-.47 0-.956-.016-1.5-.03-.089.088-.089.397 0 .485.72.044.912.22.912 1.192v2.839c0 .28-.03.397-.236.574-.544.47-1.015.706-1.382.706-.442 0-1.177-.206-1.177-1.515V5.53c0-.441.059-1.5.059-1.5 0-.06-.045-.103-.118-.103-.074.014-.294.03-.515.03-.47 0-.956-.016-1.5-.03-.089.088-.089.397 0 .485.706.059.912.22.912 1.177v2.824c0 1.015.44 2.001 1.897 2.001m9.48-1.942c0 1.221-.162 1.28-.986 1.339-.088.088-.088.397 0 .485.618-.014.956-.029 1.574-.029.515 0 .706.015 1.339.03.088-.089.088-.398 0-.486-.603-.059-.765-.118-.765-1.339V7.15c.338.015.544.118.838.53l1.074 1.515c.294.427.338.603.338.794v.236c0 .044.015.073.06.073.294-.014.573-.029 1.014-.029.456 0 .765.015 1.207.03.088-.089.088-.398 0-.486-.5-.059-.942-.118-1.266-.618l-1.72-2.545a.351.351 0 0 1-.074-.206c0-.059.015-.103.059-.147l1.118-1.236c.426-.44.882-.617 1.618-.647.088-.088.088-.397 0-.485-.544.014-.75.03-1.28.03-.559 0-.81-.016-1.353-.03-.089.088-.089.397 0 .485.882.044.412.603.264.75-.78.854-1.515 1.5-1.897 1.619v-5.09c0-.956.059-1.545.059-1.545 0-.103-.06-.147-.192-.147-.367.147-1.47.353-2.06.397-.029.118 0 .353.09.442.764.044.94-.03.94 1.206v6.428m8.818-4.06c.089-.088.089-.397 0-.485-.544.014-1 .03-1.53.03-.558 0-.912-.016-1.294-.03-.088.088-.088.397 0 .485.691.074.853.22 1.162.986l1.927 4.751c.089.206.206.295.353.295.133 0 .25-.089.353-.324l1.486-3.619 1.515 3.648c.089.206.206.295.353.295.133 0 .25-.089.339-.31l1.912-4.663c.25-.588.5-1.015 1.25-1.059.089-.088.089-.397 0-.485-.367.014-.5.03-1.03.03-.558 0-.985-.016-1.53-.03-.087.088-.087.397 0 .485 1.104.059.942.486.736 1l-1.22 3.06c-.148.368-.162.486-.339.06l-1.265-3.222c-.265-.692-.235-.839.544-.898.088-.088.088-.397 0-.485-.544.014-.956.03-1.47.03-.516 0-.751-.016-1.295-.03-.089.088-.089.397 0 .485.75.059.853.5 1.118 1.148l.103.235-1.03 2.604c-.191.485-.235.515-.427.03l-1.177-3.031c-.264-.706-.25-.942.456-.986m12.3 2.427v1.957c0 .191-.088.294-.206.382-.383.31-.883.633-1.295.633-.735 0-1.059-.588-1.059-1.044 0-.662.31-1.324 1.398-1.619l1.162-.309m0 2.722c.088.309.338.853 1.133.853.72 0 1.25-.588 1.25-.662 0-.103-.132-.25-.191-.25-.089 0-.147.235-.456.235-.574 0-.589-.573-.589-1.25V6.296c0-2.089-1.147-2.486-2.221-2.486-1.206 0-2.427.839-2.427 1.633 0 .353.176.515.515.515.426 0 .647-.294.647-.486a.661.661 0 0 0-.044-.264 1.017 1.017 0 0 1-.03-.295c0-.456.662-.618 1.221-.618.5 0 1.192.25 1.192 1.913 0 .103-.044.162-.088.176l-1.265.31c-1.413.352-2.428 1.132-2.428 2.132 0 1.162.824 1.59 1.854 1.59.676 0 .956-.119 1.603-.619l.294-.235h.03"/></svg>