<svg xmlns="http://www.w3.org/2000/svg" width="146" height="22" fill="none"><path fill="#E8E8E8" d="M3.56 5.976 7.223 17.49h.14l3.67-11.515h3.553L9.361 21.132H5.232L0 5.976h3.56Zm16.055 0v15.156H16.41V5.976h3.205Zm2.636 15.156V5.976h3.204v6.682h.2l5.454-6.682h3.841l-5.624 6.786 5.69 8.37h-3.833L27.032 14.9l-1.577 1.924v4.307h-3.204ZM39.823 5.976v15.156H36.62V5.976h3.204Z"/><path fill="#595959" d="m7.936 4.725 3.663 11.515h.14L15.41 4.725h3.552l-5.224 15.156h-4.13L4.376 4.725h3.56Zm16.055 0v15.156h-3.204V4.725h3.204Zm2.636 15.156V4.725h3.205v6.683h.2l5.454-6.683h3.84l-5.624 6.787 5.691 8.37H35.56l-4.152-6.232-1.576 1.924v4.307h-3.205ZM44.2 4.725v15.156h-3.205V4.725H44.2Z"/><path fill="#E8E8E8" d="M61.322 5.972v15.156h-2.768l-6.594-9.54h-.111v9.54h-3.204V5.972h2.812l6.542 9.532h.133V5.972h3.19Zm16.575 7.578c0 1.653-.314 3.059-.94 4.218-.622 1.16-1.47 2.045-2.546 2.657-1.07.607-2.275.91-3.612.91-1.346 0-2.555-.306-3.626-.918-1.07-.611-1.916-1.497-2.538-2.656-.622-1.16-.932-2.563-.932-4.211 0-1.653.31-3.059.932-4.218.622-1.16 1.468-2.043 2.538-2.65 1.07-.611 2.28-.917 3.626-.917 1.337 0 2.541.306 3.612.917 1.075.607 1.924 1.49 2.546 2.65.626 1.159.94 2.565.94 4.218Zm-3.25 0c0-1.07-.16-1.974-.48-2.709-.316-.735-.763-1.292-1.34-1.672-.577-.38-1.253-.57-2.028-.57-.774 0-1.45.19-2.027.57-.577.38-1.026.937-1.347 1.672-.316.735-.474 1.638-.474 2.709 0 1.07.158 1.973.474 2.708.32.736.77 1.293 1.347 1.673.577.38 1.253.57 2.027.57.775 0 1.451-.19 2.028-.57.577-.38 1.024-.938 1.34-1.673.32-.735.48-1.638.48-2.708Zm7.506-7.578 3.664 11.515h.14l3.67-11.515h3.553l-5.225 15.156h-4.129L78.594 5.972h3.56Zm13.449 15.156h-3.434L97.4 5.972h4.13l5.224 15.156h-3.434L99.524 9.435h-.118l-3.804 11.693Zm-.215-5.957h8.111v2.5h-8.11v-2.5Zm19.26-9.199h3.167V16.54c0 .976-.22 1.825-.659 2.545a4.35 4.35 0 0 1-1.813 1.665c-.774.39-1.675.585-2.701.585-.913 0-1.741-.16-2.486-.481a3.98 3.98 0 0 1-1.762-1.48c-.434-.666-.648-1.502-.643-2.509h3.189c.01.4.091.743.244 1.029.158.281.373.498.644.651.276.148.602.222.977.222.395 0 .728-.084.999-.252a1.62 1.62 0 0 0 .629-.754c.143-.33.215-.738.215-1.221V5.972Zm3.063-1.362-1.487-1.806-1.488 1.806h-2.686v-.103l2.997-3.257h2.346l3.005 3.257v.103h-2.687Zm16.681 8.94c0 1.653-.313 3.059-.94 4.218-.622 1.16-1.47 2.045-2.546 2.657-1.07.607-2.274.91-3.611.91-1.347 0-2.556-.306-3.626-.918-1.071-.611-1.917-1.497-2.539-2.656-.621-1.16-.932-2.563-.932-4.211 0-1.653.311-3.059.932-4.218.622-1.16 1.468-2.043 2.539-2.65 1.07-.611 2.279-.917 3.626-.917 1.337 0 2.541.306 3.611.917 1.076.607 1.924 1.49 2.546 2.65.627 1.159.94 2.565.94 4.218Zm-3.249 0c0-1.07-.16-1.974-.481-2.709-.316-.735-.762-1.292-1.339-1.672-.578-.38-1.254-.57-2.028-.57-.775 0-1.451.19-2.028.57-.577.38-1.026.937-1.347 1.672-.315.735-.473 1.638-.473 2.709 0 1.07.158 1.973.473 2.708.321.736.77 1.293 1.347 1.673.577.38 1.253.57 2.028.57.774 0 1.45-.19 2.028-.57.577-.38 1.023-.938 1.339-1.673.321-.735.481-1.638.481-2.708Zm11.691-7.578H146V16.54c0 .976-.219 1.825-.658 2.545a4.358 4.358 0 0 1-1.814 1.665c-.774.39-1.674.585-2.701.585-.912 0-1.741-.16-2.486-.481a3.973 3.973 0 0 1-1.761-1.48c-.435-.666-.649-1.502-.644-2.509h3.189c.01.4.092.743.244 1.029.158.281.373.498.644.651.277.148.602.222.977.222.395 0 .728-.084.999-.252a1.62 1.62 0 0 0 .629-.754c.143-.33.215-.738.215-1.221V5.972Z"/><path fill="#8C8C8C" d="M59.654 4.721v15.156h-2.768l-6.593-9.539h-.111v9.54h-3.205V4.72h2.812l6.542 9.532h.133V4.721h3.19ZM76.229 12.3c0 1.652-.313 3.058-.94 4.218-.621 1.159-1.47 2.045-2.546 2.656-1.07.607-2.274.91-3.61.91-1.348 0-2.556-.305-3.627-.917-1.07-.612-1.917-1.497-2.538-2.657-.622-1.16-.933-2.563-.933-4.21 0-1.653.31-3.06.933-4.219.621-1.16 1.467-2.042 2.538-2.65 1.07-.61 2.28-.917 3.626-.917 1.337 0 2.54.306 3.611.918 1.076.607 1.925 1.49 2.546 2.65.627 1.159.94 2.565.94 4.217Zm-3.249 0c0-1.071-.16-1.974-.48-2.71-.317-.734-.763-1.292-1.34-1.672-.578-.38-1.253-.57-2.028-.57-.775 0-1.45.19-2.028.57-.577.38-1.026.938-1.347 1.673-.315.735-.473 1.638-.473 2.708 0 1.071.158 1.974.473 2.709.321.735.77 1.293 1.347 1.672.578.38 1.254.57 2.028.57.775 0 1.45-.19 2.028-.57.577-.38 1.023-.937 1.34-1.672.32-.735.48-1.638.48-2.709Zm7.506-7.579 3.663 11.515h.14L87.96 4.721h3.553l-5.225 15.156h-4.13l-5.23-15.156h3.56Zm13.448 15.156h-3.433l5.232-15.156h4.13l5.224 15.156h-3.434L97.857 8.185h-.119l-3.804 11.692Zm-.214-5.957h8.111v2.501H93.72v-2.5Zm19.259-9.199h3.168V15.29c0 .977-.22 1.826-.659 2.546a4.355 4.355 0 0 1-1.813 1.665c-.775.39-1.675.585-2.701.585-.913 0-1.742-.16-2.487-.481a3.973 3.973 0 0 1-1.761-1.48c-.434-.666-.649-1.503-.644-2.51h3.19c.01.4.091.743.244 1.03.158.28.372.498.644.65.276.149.602.223.977.223.394 0 .727-.084.999-.252a1.62 1.62 0 0 0 .629-.755c.143-.33.214-.737.214-1.22V4.72Zm3.064-1.361-1.487-1.806-1.488 1.806h-2.686v-.104L113.379 0h2.346l3.004 3.256v.104h-2.686Zm16.68 8.94c0 1.652-.313 3.058-.939 4.218-.622 1.159-1.471 2.045-2.546 2.656-1.071.607-2.275.91-3.612.91-1.346 0-2.555-.305-3.626-.917-1.07-.612-1.916-1.497-2.538-2.657-.622-1.16-.932-2.563-.932-4.21 0-1.653.31-3.06.932-4.219.622-1.16 1.468-2.042 2.538-2.65 1.071-.61 2.28-.917 3.626-.917 1.337 0 2.541.306 3.612.918 1.075.607 1.924 1.49 2.546 2.65.626 1.159.939 2.565.939 4.217Zm-3.248 0c0-1.071-.161-1.974-.481-2.71-.316-.734-.763-1.292-1.34-1.672-.577-.38-1.253-.57-2.028-.57-.774 0-1.45.19-2.027.57-.577.38-1.026.938-1.347 1.673-.316.735-.474 1.638-.474 2.708 0 1.071.158 1.974.474 2.709.321.735.77 1.293 1.347 1.672.577.38 1.253.57 2.027.57.775 0 1.451-.19 2.028-.57.577-.38 1.024-.937 1.34-1.672.32-.735.481-1.638.481-2.709Zm11.69-7.579h3.168V15.29c0 .977-.22 1.826-.659 2.546a4.35 4.35 0 0 1-1.813 1.665c-.775.39-1.675.585-2.701.585-.913 0-1.742-.16-2.487-.481a3.973 3.973 0 0 1-1.761-1.48c-.434-.666-.649-1.503-.644-2.51h3.19c.01.4.091.743.244 1.03.158.28.372.498.644.65.276.149.602.223.977.223.394 0 .727-.084.999-.252a1.62 1.62 0 0 0 .629-.755c.143-.33.214-.737.214-1.22V4.72Z"/></svg>