<?xml version="1.0" encoding="UTF-8"?>
<svg id="Layer_2" data-name="Layer 2" xmlns="http://www.w3.org/2000/svg" viewBox="0 0 118.94 8.72">
  <defs>
    <style>
      .cls-1 {
        stroke-width: 0px;
      }
    </style>
  </defs>
  <g id="svg3857">
    <path id="text166" class="cls-1" d="m5.74,7.33l-1.6,1.25h-.13v-.87h-.03c-.47.67-1.09,1.01-1.87,1.01-1.41,0-2.12-.8-2.12-2.41v-2.19l1.63-1.26h.13v.9h.02c.44-.7,1.09-1.04,1.95-1.04,1.34,0,2.01.79,2.01,2.36v2.25Zm-2.92.04c.17,0,.33-.03.46-.08.14-.06.26-.13.36-.23.1-.1.18-.23.24-.37.06-.15.09-.31.09-.49v-.79c0-.89-.35-1.33-1.06-1.33-.34,0-.62.12-.84.35-.09.1-.17.21-.23.34-.06.12-.09.26-.1.41v.98c0,.81.35,1.21,1.06,1.21h0ZM10.07,0c.96,0,1.69.2,2.19.61.5.4.75.98.75,1.75v6.22h-1.65c-.26,0-.52-.03-.78-.09-.26-.07-.5-.16-.72-.27-.22-.12-.42-.25-.59-.41-.17-.16-.29-.33-.37-.51v1.28h-1.76V2.36c0-.76.25-1.35.74-1.75C8.37.2,9.1,0,10.07,0h0Zm-.45,5.7c0,.25.05.46.14.65.1.19.22.34.37.47.16.13.33.22.52.29.2.07.39.1.59.11v-3.07c-.18,0-.37.04-.56.11-.19.07-.37.17-.53.3-.16.13-.28.29-.39.49s-.15.41-.15.66Zm-.72-1.52c.09-.21.23-.4.4-.57.17-.17.36-.32.58-.44s.44-.21.68-.27c.24-.07.47-.1.7-.11v-.22c0-.22-.03-.4-.08-.55s-.14-.28-.24-.37c-.1-.1-.23-.17-.37-.22-.14-.04-.3-.07-.48-.07s-.34.02-.49.07c-.14.04-.26.12-.36.22-.1.1-.18.22-.23.37-.06.15-.08.34-.08.55v1.61Zm9.21.25c0-.17-.07-.3-.21-.38-.14-.08-.34-.12-.6-.12-.15,0-.31.02-.47.06-.16.04-.3.1-.43.19-.13.09-.24.2-.32.34-.08.14-.12.31-.12.5v.2l1.07-.12c.2-.02.38-.05.51-.08.14-.04.25-.08.33-.13.09-.06.15-.12.18-.19.04-.07.06-.16.06-.26h0Zm-.77,3.04c.47,0,.9-.08,1.28-.24.39-.16.72-.42,1.01-.75v1.52c-.28.26-.64.45-1.07.56-.43.11-.95.17-1.57.17-.46,0-.87-.06-1.22-.17s-.64-.27-.87-.47-.41-.45-.52-.74c-.12-.29-.17-.61-.17-.97v-1.23c0-.43.08-.79.23-1.1.16-.31.37-.55.65-.75.28-.19.6-.34.98-.42.38-.09.78-.14,1.22-.14.85,0,1.46.14,1.86.41.39.27.59.67.59,1.2,0,.27-.04.51-.13.73-.09.21-.22.4-.4.55-.18.16-.42.28-.7.38-.29.1-.63.16-1.04.2l-1.5.16c0,.41.11.69.34.87.22.17.57.26,1.05.26Zm9.62-4.76c.34,0,.65.05.91.15.26.1.49.25.66.44.18.19.32.42.41.7.09.28.14.59.14.94v2.42l-1.6,1.22h-.12v-.82h-.02c-.41.64-1.02.96-1.81.96-.59,0-1.05-.16-1.4-.47-.34-.32-.5-.74-.5-1.26,0-1.11.7-1.75,2.09-1.92l1.65-.21c0-.16-.02-.29-.07-.41-.04-.12-.11-.22-.19-.3-.08-.08-.18-.14-.28-.17-.11-.04-.23-.06-.36-.06-.16,0-.3.03-.42.08-.12.05-.23.12-.34.21-.1.09-.18.19-.26.31-.07.12-.14.25-.2.39h-1.38l-.39-2.13h1.56l.16.8h.03c.07-.14.16-.26.26-.36.1-.11.22-.2.35-.27.14-.07.3-.13.47-.17.18-.04.39-.06.62-.06h0Zm.41,3.55v-.39l-1.16.13c-.64.07-.96.33-.96.78,0,.2.08.37.23.5.16.13.37.19.64.19.38,0,.68-.11.9-.34.23-.23.35-.52.35-.87ZM33.42,0C34.37,0,35.1.2,35.61.61c.5.4.75.98.75,1.75v6.22h-1.65c-.26,0-.52-.03-.78-.09-.26-.07-.5-.16-.72-.27-.22-.12-.42-.25-.59-.41-.17-.16-.29-.33-.37-.51v1.28h-1.76V2.36c0-.76.25-1.35.74-1.75C31.72.2,32.45,0,33.42,0h0Zm-.45,5.7c0,.25.05.46.14.65.1.19.22.34.37.47.16.13.33.22.52.29.2.07.39.1.59.11v-3.07c-.18,0-.37.04-.56.11s-.37.17-.53.3c-.16.13-.28.29-.39.49-.1.19-.15.41-.15.66Zm-.72-1.52c.09-.21.23-.4.4-.57.17-.17.36-.32.58-.44.21-.12.44-.21.68-.27.24-.07.47-.1.7-.11v-.22c0-.22-.03-.4-.08-.55s-.14-.28-.24-.37c-.1-.1-.23-.17-.37-.22-.14-.04-.3-.07-.48-.07s-.34.02-.49.07c-.14.04-.26.12-.36.22-.1.1-.18.22-.23.37-.06.15-.08.34-.08.55v1.61Zm9.21.25c0-.17-.07-.3-.21-.38-.14-.08-.34-.12-.6-.12-.15,0-.31.02-.47.06-.16.04-.3.1-.43.19-.13.09-.24.2-.32.34-.08.14-.12.31-.12.5v.2l1.07-.12c.2-.02.38-.05.51-.08.14-.04.25-.08.33-.13.09-.06.15-.12.18-.19.04-.07.06-.16.06-.26h0Zm-.77,3.04c.47,0,.9-.08,1.28-.24.39-.16.72-.42,1.01-.75v1.52c-.28.26-.64.45-1.07.56-.43.11-.95.17-1.57.17-.46,0-.87-.06-1.22-.17-.35-.11-.64-.27-.87-.47-.23-.2-.41-.45-.52-.74-.12-.29-.17-.61-.17-.97v-1.23c0-.43.08-.79.23-1.1s.37-.55.65-.75c.28-.19.6-.34.98-.42.38-.09.78-.14,1.22-.14.85,0,1.46.14,1.86.41.39.27.59.67.59,1.2,0,.27-.04.51-.13.73-.09.21-.22.4-.4.55s-.42.28-.7.38-.63.16-1.04.2l-1.5.16c0,.41.11.69.34.87.22.17.57.26,1.05.26Zm6.53-4.61h1.76v3.26c0,.42.08.73.23.94.16.2.39.31.68.31.15,0,.29-.03.41-.1.12-.07.23-.16.31-.27.09-.12.15-.26.2-.42.04-.16.07-.33.07-.51v-3.2h1.76v.87h.03c.21-.34.46-.59.74-.76.28-.17.6-.25.95-.25,1.28,0,1.92.8,1.92,2.41v2.2l-1.63,1.25h-.13v-.89h-.02c-.09.15-.2.29-.33.42s-.28.24-.44.33c-.16.09-.32.16-.5.21-.18.05-.36.08-.55.08-.79,0-1.34-.36-1.64-1.07-.21.36-.48.63-.82.8-.33.17-.7.26-1.11.26-.62,0-1.09-.19-1.42-.58-.32-.38-.48-.96-.48-1.73v-3.56Zm7.3,2.42c0-.81-.3-1.21-.9-1.21-.3,0-.54.11-.72.33-.18.22-.27.52-.27.9v.85c0,.81.3,1.21.9,1.21.15,0,.29-.03.41-.09.12-.06.23-.15.31-.27.09-.12.15-.26.2-.42.05-.16.07-.35.07-.55v-.75Zm6.09-5.28c.96,0,1.69.2,2.19.61.5.4.75.98.75,1.75v6.22h-1.65c-.26,0-.52-.03-.78-.09-.26-.07-.5-.16-.72-.27-.22-.12-.42-.25-.59-.41-.17-.16-.29-.33-.37-.51v1.28h-1.76V2.36c0-.76.25-1.35.74-1.75C58.92.2,59.65,0,60.61,0h0Zm-.45,5.7c0,.25.05.46.14.65.1.19.22.34.37.47.16.13.33.22.52.29.2.07.39.1.59.11v-3.07c-.18,0-.37.04-.56.11-.19.07-.37.17-.53.3-.16.13-.28.29-.39.49-.1.19-.15.41-.15.66Zm-.72-1.52c.09-.21.23-.4.4-.57.17-.17.36-.32.58-.44s.44-.21.68-.27c.24-.07.47-.1.7-.11v-.22c0-.22-.03-.4-.08-.55s-.14-.28-.24-.37c-.1-.1-.23-.17-.37-.22-.14-.04-.3-.07-.48-.07s-.34.02-.49.07c-.14.04-.26.12-.36.22-.1.1-.18.22-.23.37-.06.15-.08.34-.08.55v1.61Zm9.21.25c0-.17-.07-.3-.21-.38-.14-.08-.34-.12-.6-.12-.15,0-.31.02-.47.06-.16.04-.3.1-.43.19-.13.09-.24.2-.32.34-.08.14-.12.31-.12.5v.2l1.07-.12c.2-.02.38-.05.51-.08.14-.04.25-.08.33-.13.09-.06.15-.12.18-.19.04-.07.06-.16.06-.26h0Zm-.77,3.04c.47,0,.9-.08,1.28-.24.39-.16.72-.42,1.01-.75v1.52c-.28.26-.64.45-1.07.56-.43.11-.95.17-1.57.17-.46,0-.87-.06-1.22-.17s-.64-.27-.87-.47c-.23-.2-.41-.45-.52-.74-.12-.29-.17-.61-.17-.97v-1.23c0-.43.08-.79.23-1.1s.37-.55.65-.75.6-.34.98-.42c.38-.09.78-.14,1.22-.14.85,0,1.46.14,1.86.41.39.27.59.67.59,1.2,0,.27-.04.51-.13.73-.09.21-.22.4-.4.55s-.42.28-.7.38-.63.16-1.04.2l-1.5.16c0,.41.11.69.34.87.22.17.57.26,1.05.26Zm9.24,1.25c-.49,0-.9-.06-1.25-.17-.34-.11-.62-.28-.84-.5-.22-.23-.37-.51-.47-.85-.1-.34-.15-.74-.15-1.19v-1.89l1.64-1.26h.12v.89h.02c.09-.15.2-.29.33-.42.13-.13.27-.23.43-.32.16-.09.32-.16.5-.21.18-.05.36-.08.55-.08.8,0,1.34.36,1.63,1.07.22-.36.5-.62.84-.8.34-.18.72-.27,1.14-.27.61,0,1.07.19,1.38.58.31.38.47.96.47,1.73v3.56h-1.76v-3.26c0-.42-.08-.73-.23-.93-.16-.21-.38-.31-.67-.31-.15,0-.29.03-.41.1-.12.07-.22.16-.31.28-.09.12-.15.25-.2.41s-.07.33-.07.51v.65c0,.45-.05.85-.16,1.18-.1.34-.27.61-.49.84-.22.22-.5.39-.84.5-.34.11-.74.17-1.22.17h0Zm-.94-2.56c0,.41.08.71.24.92.16.2.39.3.68.3s.54-.1.71-.3c.17-.2.26-.5.26-.91v-.88c0-.81-.3-1.21-.9-1.21-.15,0-.28.03-.41.09-.12.06-.23.15-.31.26-.09.12-.15.26-.2.42-.04.16-.07.35-.07.55v.75Zm11.62-6.15c.96,0,1.69.2,2.19.61.5.4.75.98.75,1.75v6.22h-1.65c-.26,0-.52-.03-.78-.09-.26-.07-.5-.16-.72-.27-.22-.12-.42-.25-.59-.41-.17-.16-.29-.33-.37-.51v1.28h-1.76V2.36c0-.76.25-1.35.74-1.75C86.11.2,86.84,0,87.81,0h0Zm-.45,5.7c0,.25.05.46.14.65.1.19.22.34.37.47.16.13.33.22.52.29.2.07.39.1.59.11v-3.07c-.18,0-.37.04-.56.11-.19.07-.37.17-.53.3-.16.13-.28.29-.39.49-.1.19-.15.41-.15.66Zm-.72-1.52c.09-.21.23-.4.4-.57.17-.17.36-.32.58-.44s.44-.21.68-.27c.24-.07.47-.1.7-.11v-.22c0-.22-.03-.4-.08-.55-.06-.15-.14-.28-.24-.37-.1-.1-.23-.17-.37-.22-.14-.04-.3-.07-.48-.07s-.34.02-.49.07c-.14.04-.26.12-.36.22-.1.1-.18.22-.23.37-.06.15-.08.34-.08.55v1.61Zm9.21.25c0-.17-.07-.3-.21-.38-.14-.08-.34-.12-.6-.12-.15,0-.31.02-.47.06-.16.04-.3.1-.43.19-.13.09-.24.2-.32.34-.08.14-.12.31-.12.5v.2l1.07-.12c.2-.02.38-.05.51-.08.14-.04.25-.08.33-.13.09-.06.15-.12.18-.19.04-.07.06-.16.06-.26h0Zm-.77,3.04c.47,0,.9-.08,1.28-.24.39-.16.72-.42,1.01-.75v1.52c-.28.26-.64.45-1.07.56-.43.11-.95.17-1.57.17-.46,0-.87-.06-1.22-.17-.35-.11-.64-.27-.87-.47s-.41-.45-.52-.74c-.12-.29-.17-.61-.17-.97v-1.23c0-.43.08-.79.23-1.1.16-.31.37-.55.65-.75.28-.19.6-.34.98-.42.38-.09.78-.14,1.22-.14.85,0,1.46.14,1.86.41.39.27.59.67.59,1.2,0,.27-.04.51-.13.73-.09.21-.22.4-.4.55s-.42.28-.7.38c-.29.1-.63.16-1.04.2l-1.5.16c0,.41.11.69.34.87.22.17.57.26,1.05.26h0Zm13.88.35c0,.14-.03.26-.08.37-.05.11-.12.2-.2.28-.09.07-.19.13-.3.17-.11.04-.23.06-.35.06-.14,0-.27-.02-.39-.06-.12-.04-.23-.1-.36-.18-.12-.09-.26-.2-.41-.33-.15-.13-.32-.3-.52-.49-.18-.17-.32-.31-.44-.41-.11-.1-.2-.17-.27-.22-.07-.05-.12-.09-.17-.1-.04-.01-.09-.02-.15-.02-.05,0-.09,0-.14.02-.04.01-.1.04-.17.09-.07.05-.16.13-.27.23-.11.1-.25.24-.44.41-.2.19-.38.36-.52.49-.15.13-.28.24-.41.33-.12.08-.24.14-.36.18-.12.04-.24.06-.39.06-.13,0-.26-.02-.37-.06-.11-.04-.21-.09-.3-.17-.08-.08-.15-.17-.2-.28-.04-.11-.07-.23-.07-.37V2.86h1.76v3.83l.71-.67c.12-.12.23-.21.32-.28.1-.07.2-.13.28-.18.09-.04.18-.07.27-.09.09-.02.18-.03.28-.03.09,0,.18,0,.26.02.08.01.17.04.25.09.09.04.18.1.28.17.1.07.21.17.33.29l.74.68v-3.83h1.76v4.95Zm3.25.77h-1.76V.11h1.76v8.47Zm5.1-4.15c0-.17-.07-.3-.21-.38-.14-.08-.34-.12-.6-.12-.15,0-.31.02-.47.06-.16.04-.3.1-.43.19-.13.09-.24.2-.32.34-.08.14-.12.31-.12.5v.2l1.07-.12c.2-.02.38-.05.51-.08.14-.04.25-.08.33-.13.09-.06.15-.12.18-.19.04-.07.06-.16.06-.26h0Zm-.77,3.04c.47,0,.9-.08,1.28-.24.39-.16.72-.42,1.01-.75v1.52c-.28.26-.64.45-1.07.56-.43.11-.95.17-1.57.17-.46,0-.87-.06-1.22-.17-.35-.11-.64-.27-.87-.47-.23-.2-.41-.45-.52-.74-.12-.29-.17-.61-.17-.97v-1.23c0-.43.08-.79.23-1.1.16-.31.37-.55.65-.75.28-.19.6-.34.98-.42.38-.09.78-.14,1.22-.14.85,0,1.46.14,1.86.41.39.27.59.67.59,1.2,0,.27-.04.51-.13.73-.09.21-.22.4-.4.55s-.42.28-.7.38c-.29.1-.63.16-1.04.2l-1.5.16c0,.41.11.69.34.87.22.17.57.26,1.05.26Z"/>
  </g>
</svg>