<svg width="118.58" height="23.209" xmlns="http://www.w3.org/2000/svg"><g stroke-width=".563" aria-label="ვიკიპედია"><path d="M5.483 23.212q-1.666 0-2.905-.608Q1.34 22.018.664 20.96q-.653-1.036-.653-2.41 0-.72.293-1.328.315-.63.81-1.014.518-.382 1.149-.382.563 0 1.284.405-.316.563-.45 1.148-.136.586-.136 1.397 0 1.26.608 2.184.63.923 1.914.923 1.306 0 1.937-.99.653-.991.653-2.838 0-2.05-.72-3.063-.721-1.013-2.073-1.013h-.945v-1.396h.945q1.262 0 1.825-.856.585-.878.585-2.274 0-1.239-.563-2.095-.54-.878-1.666-.878-1.036 0-1.6.743-.562.72-.562 1.644 0 .518.067.878.068.338.248.834-.653.27-1.216.27-.856 0-1.396-.653-.54-.653-.54-1.554t.675-1.69q.676-.81 1.802-1.305Q4.087 5.15 5.46 5.15q1.599 0 2.77.608 1.17.608 1.779 1.554.63.946.63 1.982 0 1.441-.968 2.5-.946 1.036-2.522 1.396v.112q1.036.158 1.936.744.901.585 1.442 1.576.54.99.54 2.41 0 1.486-.698 2.657-.676 1.17-1.937 1.846-1.238.676-2.95.676zM16.081 17.602q-.856 0-1.531-.563-.653-.563-1.126-1.486-.45-.924-.698-2.005-.225-1.103-.225-2.161 0-2.996 1.418-4.684 1.419-1.69 4.076-1.69t4.076 1.69q1.419 1.666 1.419 4.684 0 1.058-.27 2.161-.248 1.081-.72 2.005-.451.923-1.127 1.486-.653.563-1.464.563-.473 0-.72-.225-.225-.225-.225-.54.608-.316.945-1.127t.473-1.936q.135-1.126.135-2.41 0-2.275-.563-3.626-.563-1.373-1.959-1.373-.946 0-1.509.63-.54.63-.788 1.78-.225 1.125-.225 2.589 0 1.306.135 2.432t.473 1.937q.338.788.946 1.103 0 .315-.248.54-.225.226-.698.226zM29.246 23.072q-1.666 0-2.882-.608-1.194-.586-1.847-1.644-.63-1.036-.63-2.41 0-.72.292-1.328.316-.63.811-.991.518-.383 1.148-.383.654 0 1.262.383-.293.563-.45 1.148-.136.586-.136 1.397 0 1.306.586 2.207.585.9 1.846.9 2.477 0 2.477-4.053 0-2.162-.72-3.265-.721-1.126-2.095-1.126h-.923v-1.397h.923q1.284 0 1.847-.765.563-.789.563-2.005 0-1.193-.586-1.981-.585-.811-1.711-.811V5.169q1.666 0 2.837.54 1.171.518 1.78 1.397.63.855.63 1.869 0 1.509-.946 2.432-.946.9-2.5 1.148v.113q1.036.248 1.914.878.901.608 1.442 1.644.54 1.014.54 2.522 0 1.6-.675 2.793-.676 1.216-1.915 1.891-1.216.676-2.882.676zM40.228 17.602q-.856 0-1.531-.563-.653-.563-1.126-1.486-.45-.924-.698-2.005-.225-1.103-.225-2.161 0-2.996 1.418-4.684 1.419-1.69 4.076-1.69t4.076 1.69q1.419 1.666 1.419 4.684 0 1.058-.27 2.161-.248 1.081-.72 2.005-.451.923-1.127 1.486-.653.563-1.464.563-.473 0-.72-.225-.225-.225-.225-.54.608-.316.945-1.127t.473-1.936q.135-1.126.135-2.41 0-2.275-.563-3.626-.563-1.373-1.959-1.373-.946 0-1.509.63-.54.63-.788 1.78-.225 1.125-.225 2.589 0 1.306.135 2.432t.473 1.937q.338.788.946 1.103 0 .315-.248.54-.225.226-.698.226zM54.941 17.702q-1.576 0-2.77-.518-1.193-.54-1.869-1.464-.653-.923-.653-2.072 0-1.036.563-1.779.586-.743 1.486-.743.653 0 1.306.406-.225.495-.337.968-.113.45-.113 1.058.023 1.329.63 2.072.631.743 1.735.743 1.148 0 1.779-.788.653-.81.653-2.635 0-1.711-.698-2.59-.676-.878-1.937-.878h-.991v-1.44h.99q2.253 0 2.253-1.757 0-.834-.54-1.329-.519-.518-1.172-.968-.72-.45-1.306-1.014-.585-.563-.585-1.554 0-.653.45-1.035.45-.383 1.104-.383.382 0 .653.112.27.09.473.248-.158.383-.158.743 0 .608.495 1.014t1.126.788q.586.338 1.126.743.563.383.924.923.382.54.382 1.306 0 1.059-.765 1.802-.743.72-2.365 1.036v.09q1.622.225 2.568 1.328.968 1.104.968 2.77 0 2.117-1.419 3.468-1.396 1.329-3.986 1.329zM67.27 23.072q-2.545 0-3.918-1.329Q62 20.415 62 18.163q0-.879.315-1.6.315-.72.856-1.148.54-.428 1.193-.428.586 0 1.261.406-.315.563-.518 1.26-.18.676-.18 1.712 0 1.532.518 2.477.518.946 1.802.946 1.306 0 1.846-1.036.563-1.036.563-3.287V9.853q0-1.666-.563-2.612-.54-.946-1.666-.946-1.036 0-1.6.81-.562.789-.562 1.96 0 1.058.428 2.05-.676.27-1.216.27-.878 0-1.441-.699-.563-.72-.563-1.824 0-1.058.653-1.914.675-.878 1.801-1.396 1.126-.518 2.5-.518 2.41 0 3.783 1.441 1.374 1.441 1.374 3.85v7.094q0 2.59-1.329 4.121-1.328 1.532-3.986 1.532zM87.603 17.292q-2.612 0-3.963-1.554-1.329-1.554-1.329-4.549V9.815q0-1.846-.495-2.657-.473-.81-1.396-.81-.789 0-1.262.653-.45.653-.63 1.734-.18 1.058-.18 2.342 0 1.846.473 3.152.495 1.284 1.328 2.14.856.855 1.937 1.373 1.08.54 2.252.856 1.283.36 2.41.81 1.148.474 1.846 1.06.72.585.72 1.305 0 .698-.54.991-.518.315-1.26.315 0-.72-.496-1.238-.473-.518-1.284-.856-.788-.315-1.734-.473-.923-.158-1.824-.158-2.41 0-3.85 1.014l-.541-.81q.495-.519 1.306-.88.81-.337 1.621-.382v-.09q-1.531-.676-2.747-1.757-1.194-1.058-1.914-2.612-.698-1.576-.698-3.76 0-2.883 1.283-4.46 1.306-1.598 3.536-1.598 1.26 0 2.207.675.945.676 1.35 1.734h.09q.361-1.058 1.442-1.734 1.081-.675 2.41-.675 2.567 0 3.918 1.576 1.351 1.554 1.351 4.64 0 2.927-1.373 4.503-1.352 1.554-3.964 1.554zm-.022-10.944q-1.42 0-1.914 1.261-.473 1.239-.473 3.603 0 1.419.202 2.5.203 1.058.698 1.666.518.586 1.487.586 1.328 0 1.846-1.149.518-1.17.518-3.58 0-2.478-.518-3.671-.518-1.216-1.846-1.216zM98.77 17.602q-.857 0-1.532-.563-.653-.563-1.126-1.486-.45-.924-.698-2.005-.225-1.103-.225-2.161 0-2.996 1.418-4.684 1.419-1.69 4.076-1.69t4.076 1.69q1.419 1.666 1.419 4.684 0 1.058-.27 2.161-.248 1.081-.72 2.005-.451.923-1.127 1.486-.653.563-1.464.563-.473 0-.72-.225-.226-.225-.226-.54.609-.316.946-1.127.338-.81.473-1.936.135-1.126.135-2.41 0-2.275-.563-3.626-.563-1.373-1.959-1.373-.946 0-1.509.63-.54.63-.788 1.78-.225 1.125-.225 2.589 0 1.306.135 2.432t.473 1.937q.338.788.946 1.103 0 .315-.248.54-.225.226-.698.226zM113.36 17.672q-1.735 0-2.906-.54-1.148-.541-1.711-1.464-.563-.924-.563-2.05 0-1.013.563-1.756.585-.766 1.486-.766.653 0 1.284.406-.248.495-.338.968-.09.473-.09 1.103 0 1.261.585 2.004.608.744 1.69.744 1.103 0 1.666-.766t.563-2.14q0-1.193-.496-1.959-.495-.788-1.126-1.418-.495-.473-.968-.969-.45-.518-.766-1.103-.293-.608-.293-1.374 0-.72.406-1.148t1.126-.428q.45 0 .743.112.315.09.518.248-.27.518-.27 1.104 0 .765.45 1.328.473.563 1.103 1.104.608.495 1.194 1.08t.968 1.397q.406.81.406 1.959 0 1.374-.676 2.342t-1.87 1.486q-1.17.496-2.679.496z"/></g></svg>