<svg xmlns="http://www.w3.org/2000/svg" width="128" height="30"><path fill="#484848" fill-rule="evenodd" d="M36.01.318v13.993l6.053-6.873h3.976l-6.3 7.433 7.422 7.551h-3.696l-.7-.318-6.755-6.611v6.93h-3.538V0h3.538v.318ZM25.4 7.438v14.666l.7.318h2.838V7.438H25.4Zm3.236-5.562a1.996 1.996 0 0 0-1.468-.598c-.583 0-1.073.199-1.47.596a1.96 1.96 0 0 0-.596 1.438c0 .565.198 1.045.593 1.44.395.396.886.593 1.473.593.583 0 1.073-.198 1.47-.595a1.96 1.96 0 0 0 .596-1.438c0-.558-.2-1.037-.598-1.436ZM0 7.438 6.458 22.64h1.346l3.991-9.685L15.8 22.64h1.346l6.526-15.203h-3.677l-3.49 8.78L12.95 7.22h-2.218l-3.584 9.046L3.67 7.438H0Zm48.44 0v14.666l.7.318h2.838V7.438H48.44Zm3.236-5.562a1.996 1.996 0 0 0-1.468-.598c-.583 0-1.073.199-1.47.596a1.96 1.96 0 0 0-.596 1.438c0 .565.198 1.045.593 1.44.396.396.887.593 1.473.593.584 0 1.074-.198 1.47-.595.398-.397.596-.876.596-1.438 0-.558-.2-1.037-.598-1.436Z" clip-rule="evenodd"/><path fill="#666" fill-rule="evenodd" d="M74.45 7.434V22.1l.7.319h2.838V7.434h-3.539Zm3.236-5.561a1.996 1.996 0 0 0-1.468-.598c-.583 0-1.073.198-1.47.595a1.96 1.96 0 0 0-.596 1.439c0 .564.198 1.044.593 1.44.396.395.886.593 1.473.593.583 0 1.073-.199 1.47-.596.397-.397.596-.876.596-1.437 0-.56-.2-1.038-.598-1.436ZM60.112 7.434h-1.91l6.552 15.203H66.1l6.573-15.203h-3.678l-3.552 8.859-3.537-8.859h-1.794Zm23.885 15.312c-1.13 0-2.035-.357-2.715-1.072-.68-.714-1.02-1.643-1.02-2.787 0-1.014.334-1.888 1.002-2.623.669-.734 1.659-1.337 2.97-1.807l3.483-1.259v-.673c0-.743-.174-1.277-.523-1.6-.349-.322-.92-.484-1.716-.484-.888 0-1.682.17-2.381.51-.7.34-1.545.909-2.537 1.705V9.32c.765-.79 1.54-1.355 2.326-1.698.786-.343 1.66-.515 2.623-.515 1.862 0 3.285.464 4.27 1.393.984.928 1.476 2.27 1.476 4.025v7.22c0 .118.017.193.05.226s.092.049.178.049c.071 0 .222-.073.454-.219.232-.146.676-.37 1.33-.67v2.237a4.379 4.379 0 0 1-1.533.978c-.607.235-1.184.353-1.733.353-.637 0-1.174-.193-1.61-.579-.322-.295-.492-.565-.509-.809-.073.243-.327.475-.763.698-.96.491-2 .737-3.122.737Zm3.72-3.344v-4.017l-1.375.64c-.846.302-1.469.665-1.867 1.09a2.114 2.114 0 0 0-.596 1.492c0 .429.16.774.482 1.036.32.262.756.393 1.304.393.466 0 .925-.104 1.38-.31.3-.142.657-.286 1.069-.433l-.397.11Zm9.531-11.968h-1.77v16.881c0 .85-.206 1.497-.619 1.943-.465.335-.97.62-1.517.856l2.35 2.54c.742-.26 1.32-.59 1.734-.99 1.06-1.004 1.59-2.453 1.59-4.349V7.435h-1.768Zm1.467-5.561a1.995 1.995 0 0 0-1.467-.598c-.583 0-1.073.198-1.47.595a1.96 1.96 0 0 0-.596 1.439c0 .564.198 1.044.593 1.44.396.395.887.593 1.473.593a2 2 0 0 0 1.47-.596 1.96 1.96 0 0 0 .595-1.437c0-.56-.2-1.038-.598-1.436Zm10.623 20.873c-2.302 0-4.183-.73-5.644-2.192-1.461-1.46-2.192-3.332-2.192-5.612 0-2.275.633-4.15 1.9-5.624 1.266-1.474 2.901-2.211 4.906-2.211 2.178 0 3.86.689 5.045 2.066 1.185 1.377 1.778 3.3 1.778 5.769v.833h-9.981c.104.859.414 1.614.928 2.264.977.905 2.105 1.357 3.384 1.357.938 0 1.809-.165 2.613-.495.804-.33 1.823-.893 3.056-1.688v3.464c-1.01.763-1.959 1.298-2.847 1.606-.887.308-1.869.463-2.946.463Zm2.379-9.494a4.317 4.317 0 0 0-.777-1.879c-.56-.767-1.386-1.15-2.476-1.15-.968 0-1.764.416-2.39 1.248a4.653 4.653 0 0 0-.863 1.78h6.506Zm12.787-2.699c.593.22 1.441.604 2.544 1.152V8.513c-.966-.532-1.797-.899-2.493-1.102a7.808 7.808 0 0 0-2.194-.304c-1.515 0-2.737.394-3.666 1.183-.928.788-1.393 1.83-1.393 3.128 0 .917.308 1.735.925 2.454.592.69 1.583 1.401 2.972 2.134 1.464.772 2.343 1.28 2.636 1.522.219.19.329.466.329.83 0 .368-.165.672-.493.912-.328.24-.781.36-1.356.36-.649 0-1.326-.146-2.031-.44-.706-.292-1.699-.79-2.982-1.494v3.516c1.091.58 2.006.981 2.744 1.202a7.866 7.866 0 0 0 2.269.332c1.617 0 2.921-.406 3.914-1.219.992-.813 1.489-1.895 1.489-3.247 0-.976-.354-1.856-1.06-2.642-.667-.743-1.78-1.53-3.337-2.362-.973-.517-1.644-.935-2.013-1.255-.301-.26-.452-.514-.452-.76 0-.293.16-.54.48-.74.32-.199.761-.298 1.322-.298.638 0 1.253.11 1.846.33Z" clip-rule="evenodd"/></svg>