<svg xmlns="http://www.w3.org/2000/svg" width="146" height="27" fill="none"><g fill="#000" clip-path="url(#a)"><path d="M40.67 6.548v3.068h11.234c1.501 0 2.745-.415 3.733-1.245 1.077-.916 1.614-2.111 1.614-3.585 0-1.299-.386-2.404-1.16-3.315C55.28.523 54.21.041 52.883.026c-.867-.002-1.621.24-2.264.726-.717.556-1.075 1.265-1.075 2.129 0 .761.247 1.379.741 1.853.495.474 1.137.71 1.928.71 1.47 0 2.205-.631 2.205-1.895 0-1.274-.58-1.912-1.742-1.912-1.149 0-1.724.558-1.723 1.672 0 .134.025.284.077.45.02.064.035.118.047.16-.268-.015-.402-.373-.402-1.073 0-.564.204-.997.613-1.302.446-.318.977-.477 1.594-.477.788 0 1.447.27 1.977.812.531.54.797 1.224.797 2.049 0 .842-.301 1.494-.903 1.958-.575.441-1.301.662-2.18.662H40.669ZM48.434 13.586c.385-.384.577-.845.577-1.384 0-.365-.094-.698-.28-.999-.16-.28-.393-.51-.698-.692a1.92 1.92 0 0 0-1.016-.27 1.815 1.815 0 0 0-1.035.258c-.299.186-.538.423-.717.713-.18.29-.27.62-.27.99 0 .542.195 1.008.585 1.397.39.39.868.584 1.434.584a2.003 2.003 0 0 0 1.42-.597ZM41.166 24.965h.892c-.08-.718-.12-1.259-.12-1.621 0-1.197.46-2.153 1.38-2.869.922-.715 2.135-1.073 3.642-1.073 1.128 0 2.015.14 2.659.42.606.262 1.022.575 1.25.94.227.364.424.964.589 1.798.16.768.453 1.361.877 1.779.423.417.978.626 1.664.626 1.03 0 1.85-.572 2.46-1.715.608-1.143.912-2.737.912-4.782 0-2.947-.75-5.175-2.25-6.685l-.684.219c.618 1.884.927 3.76.927 5.625 0 1.177-.212 2.212-.637 3.103-.425.891-.937 1.337-1.535 1.337-.301 0-.508-.078-.621-.233-.113-.156-.237-.519-.374-1.09-.328-1.507-.964-2.663-1.908-3.465-.944-.803-2.18-1.204-3.707-1.204-1.69 0-3.089.603-4.198 1.81-1.109 1.205-1.67 2.716-1.68 4.532 0 .973.154 1.822.462 2.547Z"/><path fill-rule="evenodd" d="M33.797 4.67c.975 1.206 1.463 2.642 1.463 4.305 0 1.343-.458 2.147-1.373 2.413h3.845v3.139h-4.755c1.12.042 2 .513 2.643 1.411.641.9.962 2 .962 3.303 0 1.598-.512 2.951-1.535 4.06-1.023 1.109-2.368 1.664-4.035 1.664-1.88 0-3.303-.574-4.272-1.72-.968-1.147-1.453-2.35-1.453-3.609 0-1.476.327-2.699.98-3.668.64-.952 1.518-1.433 2.634-1.441h-4.729v-3.139h6.788c2.067 0 3.1-.947 3.1-2.842 0-1.826-.733-3.026-2.199-3.6.938.986 1.407 1.836 1.407 2.553 0 .656-.264 1.221-.793 1.696-.528.476-1.159.713-1.892.713-1.056 0-2.002-.492-2.839-1.476-.767-.914-1.151-1.855-1.151-2.822 0-.808.303-1.489.91-2.043.605-.554 1.335-.831 2.187-.831 1.682 0 3.051.645 4.107 1.934Zm.538 13.61c0-1.08-.337-1.982-1.013-2.704-.676-.722-1.526-1.083-2.55-1.083-1.024 0-1.84.386-2.447 1.16-.607.772-.91 1.608-.91 2.507 0 .81.294 1.593.882 2.347.589.754 1.465 1.13 2.63 1.13.959 0 1.767-.33 2.423-.991.657-.662.985-1.45.985-2.367ZM31.588 6.622c0-.416-.133-.79-.399-1.12a1.469 1.469 0 0 0-1.207-.59c-.58 0-1.057.161-1.428.485-.37.324-.556.68-.556 1.07 0 .402.183.779.55 1.13.367.353.736.529 1.108.529.464 0 .902-.145 1.314-.434.412-.29.619-.646.619-1.07ZM10.543 19.248c-.019 1.776-.473 3.173-1.362 4.19-.889 1.018-2.088 1.527-3.599 1.527-1.576 0-2.864-.555-3.864-1.664-1-1.11-1.499-2.537-1.499-4.283 0-1.48.365-2.638 1.094-3.474.729-.836 1.637-1.254 2.724-1.254.867 0 1.631.299 2.293.896.662.597.994 1.32.994 2.166 0 .76-.276 1.386-.827 1.878-.55.491-1.344.743-2.381.756v-.94c.673-.057 1.113-.187 1.32-.39.207-.202.31-.511.31-.926 0-.457-.19-.847-.571-1.172a2.032 2.032 0 0 0-1.361-.486c-.825 0-1.44.229-1.842.687-.403.457-.605.964-.605 1.52 0 1 .371 1.81 1.115 2.43.743.619 1.69.929 2.843.929 1.308 0 2.372-.346 3.19-1.038.818-.691 1.518-1.85 2.1-3.478.675 1.631 1.355 2.791 2.04 3.481s1.538 1.035 2.559 1.035c2.581 0 3.872-1.892 3.872-5.676 0-2.872-.973-5.32-2.917-7.342-1.98-2.048-4.386-3.072-7.221-3.072l-.077-.001c.252.146.508.457.769.933.356.651.534 1.197.534 1.636 0 .735-.267 1.326-.801 1.773-.535.448-1.174.672-1.92.672-.981 0-1.883-.46-2.705-1.382-.822-.92-1.233-1.87-1.233-2.848 0-2.042 1.479-3.063 4.437-3.063 4.514 0 8.116 2.427 10.806 7.28 1.533 2.425 2.3 4.871 2.3 7.337 0 4.72-1.754 7.08-5.26 7.08-1.614 0-2.889-.509-3.826-1.525-.936-1.016-1.413-2.414-1.429-4.192ZM8.511 7.258c0-.462-.147-.849-.441-1.161a1.634 1.634 0 0 0-1.217-.514c-.528 0-.984.147-1.368.443-.376.286-.565.646-.565 1.078 0 .38.161.75.483 1.108.35.39.754.585 1.21.585.465 0 .897-.158 1.298-.472.4-.314.6-.67.6-1.067Z" clip-rule="evenodd"/><path d="M58.703 18.141c1.066 2.335 2.116 4.055 3.15 5.162 1.035 1.107 2.082 1.661 3.142 1.661 1.601 0 2.77-.508 3.505-1.524a5.651 5.651 0 0 0 1.103-3.393c0-.697-.096-1.493-.287-2.389-.175-.81-.262-1.478-.262-2.006 0-1.613.555-2.811 1.666-3.593a6.31 6.31 0 0 1 3.717-1.173c1.931 0 3.709.625 5.333 1.873s2.436 2.739 2.436 4.472c0 1.619-.534 2.886-1.6 3.803-1.066.917-2.207 1.376-3.422 1.376-1.063 0-1.94-.279-2.63-.836-.691-.558-1.037-1.284-1.036-2.18 0-.648.127-1.133.383-1.452.14-.175.25-.303.33-.382a6.588 6.588 0 0 1-.043.25 3.077 3.077 0 0 0-.051.538c0 1.424.735 2.136 2.205 2.136.499 0 .971-.184 1.417-.553.445-.369.668-.856.668-1.463 0-.88-.276-1.54-.827-1.978a2.89 2.89 0 0 0-1.841-.656c-.996 0-1.819.386-2.468 1.157-.65.77-.974 1.79-.974 3.057 0 1.424.494 2.6 1.483 3.526.99.927 2.22 1.39 3.692 1.39 1.772 0 3.18-.716 4.226-2.15 1.045-1.433 1.568-3.178 1.568-5.235.01-1.872-.381-3.543-1.175-5.013a10.054 10.054 0 0 0-3.265-3.606c-1.382-.933-2.926-1.4-4.633-1.4-1.875 0-3.438.543-4.689 1.628-1.25 1.086-1.882 2.502-1.893 4.25 0 .5.093 1.26.278 2.28.146.847.22 1.535.22 2.063 0 1.343-.359 2.322-1.076 2.936-.718.614-1.49.92-2.317.92-.745 0-1.52-.31-2.325-.933-.805-.623-1.704-1.64-2.697-3.05l-1.01.487Z"/><path fill-rule="evenodd" d="M88.186 12.157c.516-.89 1.111-1.491 1.784-1.802-.493.684-.739 1.506-.739 2.465 0 1.212.341 2.114 1.023 2.707.683.592 1.385.888 2.11.888 1.035 0 1.88-.411 2.531-1.235.652-.823.978-1.867.978-3.132 0-1.33-.333-2.41-.999-3.242-.665-.83-1.594-1.246-2.785-1.246-1.654 0-3.033.697-4.137 2.092-1.104 1.395-1.656 3.316-1.656 5.761 0 2.378.382 4.39 1.147 6.035.765 1.646 1.892 3.27 3.384 4.872h4.051c-2.566-2.02-4.452-3.86-5.658-5.522-1.207-1.663-1.81-3.355-1.81-5.076 0-1.486.259-2.675.776-3.565Zm5.956-1.54c.423.37.63.858.618 1.465 0 .563-.196 1.009-.586 1.337-.39.328-.891.492-1.501.492a2.499 2.499 0 0 1-1.535-.531c-.47-.355-.706-.822-.706-1.401 0-.564.204-1.021.612-1.372.41-.351.913-.527 1.512-.527.634-.011 1.162.168 1.586.537ZM98.521 9.616V6.548h19.855c.476-1.237 1.142-2.216 1.999-2.936.857-.721 1.872-1.082 3.047-1.082 1.633 0 2.887.366 3.762 1.097.875.73 1.357 1.938 1.447 3.621h-1.071c-.116-.817-.495-1.388-1.137-1.712-.643-.323-1.609-.485-2.898-.485-.968 0-1.806.169-2.514.508-.709.339-1.277.668-1.703.989h1.16c1.403 0 2.496.46 3.28 1.381.783.921 1.174 2.14 1.174 3.655a5.701 5.701 0 0 1-.916 3.147c-.61.95-1.532 1.426-2.765 1.426-2.362 0-3.544-1.77-3.544-5.31 0-.751.023-1.161.068-1.23H98.521Zm20.321 0a7.26 7.26 0 0 0-.032.697c0 1.018.233 1.825.698 2.421.465.596 1.07.899 1.814.908.783-.009 1.399-.195 1.848-.556.449-.362.673-.85.673-1.467 0-.585-.222-1.067-.666-1.448-.444-.38-.986-.566-1.626-.555h-2.709Z" clip-rule="evenodd"/><path d="M106.862 12.202c0 .539-.192 1-.576 1.384a2.002 2.002 0 0 1-1.42.597 1.953 1.953 0 0 1-1.435-.584 1.907 1.907 0 0 1-.584-1.397c0-.37.09-.7.269-.99.18-.29.419-.527.718-.712a1.808 1.808 0 0 1 1.034-.259c.373-.002.711.087 1.013.267.303.18.542.418.718.714.175.295.263.622.263.98ZM99.91 24.965h-.892c-.309-.726-.463-1.575-.463-2.548.012-1.816.572-3.327 1.681-4.533 1.109-1.206 2.508-1.809 4.198-1.809 1.527 0 2.762.401 3.706 1.204.945.802 1.581 1.958 1.909 3.466.136.57.261.933.374 1.088.112.156.319.234.621.234.598 0 1.11-.446 1.535-1.337.425-.891.637-1.926.637-3.103 0-1.866-.309-3.74-.927-5.625l.683-.219c1.501 1.51 2.251 3.738 2.251 6.685 0 2.045-.304 3.638-.913 4.782-.609 1.143-1.429 1.715-2.46 1.715-.685 0-1.24-.21-1.664-.627-.423-.417-.716-1.01-.877-1.778-.165-.834-.361-1.434-.589-1.798-.227-.365-.653-.683-1.278-.954-.625-.27-1.502-.406-2.631-.406-1.506 0-2.72.358-3.64 1.073-.921.716-1.382 1.672-1.382 2.869 0 .362.04.903.12 1.62ZM134.978 9.616h10.086V6.548h-8.73c-1.645 0-2.959.466-3.941 1.4-.982.932-1.474 2.208-1.474 3.825 0 1.065.299 2.035.896 2.909.597.874 1.317 1.376 2.16 1.505-2.037.637-3.056 2.302-3.056 4.994 0 .863.122 1.621.365 2.274.39 1.006 1.015 1.51 1.874 1.51.398 0 .813-.157 1.247-.47.433-.312.65-.673.65-1.082 0-.437-.234-.955-.703-1.553-.951-1.22-1.427-2.26-1.427-3.117 0-.98.593-1.47 1.779-1.47h5.26v-3.138h-5.415c-1.654 0-2.482-.593-2.482-1.778 0-.842.277-1.51.83-2.004.542-.491 1.236-.737 2.081-.737Z"/></g><defs><clipPath id="a"><path fill="#fff" d="M0 0h146v27H0z"/></clipPath></defs></svg>