<svg xmlns="http://www.w3.org/2000/svg" width="146" height="44" fill="none"><path fill="#fff" d="M0 0h146v44H0z"/><path fill="#555" d="M56.44 1.158c-.033.136-.235.442-.471.613.134.34.202.204.134.476-.067.273-.202.307-.471.647.034.136-.067.34-.135.511-.033.068-.202.136-.303.272-.1.069-.135.341-.236.477-.235.34-.505.75-.774 1.124 0 .034.034.17.034.238-.135.273-.64.92-.775 1.124-.135.272-.337.68-.505.987-.034.068-.202.17-.27.273-.27.408-.673 1.157-1.01 1.838-.169.34-.337.818-.472 1.192 0 0-.033 0-.067.068-.034.239-.303.784-.606.988l.067.068c0 .068-.067.306-.134.409l.033.068c-.033.136-.067.34-.135.51-.067 0-.134.136-.202.205-.134.204-.168.579-.235.85-.068.307-.337.716-.472 1.022l-.303.069.236-.886c0-.136.842-2.145 1.178-3.2 0-.307.236-.818.405-1.294.067-.205.168-.545.235-.818 0-.068-.067-.068-.1-.136.235-.068.201-.374.336-.613.101-.136.303-.272.37-.51.27-.375.304-1.056.506-1.533.067-.204.572-.987.74-1.362.304-.647.775-1.362 1.112-2.077.068-.17.135-.545.303-.851-.067-.51.27-1.26 1.01-1.805.102-.034.304.034.438.034.034 0 .135-.136.27-.136s.27.34.27.51c0 .205.033.477 0 .648Zm-7.072 14.437c-.068.034-.169.204-.27.272-.067.103 0 .273.034.443 0 .102-.135.34-.202.477-.101.272-.236.68-.37 1.056 0 0-.034.068-.102.136a3.07 3.07 0 0 0-.1.749c0 .17-.135.476-.27.715-.101.238-.27.613-.303.817-.067.306-.067.681-.202 1.056-.135.272-.303.579-.404.919-.068.34 0 .715-.169 1.021-.067.137-.235.103-.27.273-.033.136.068.204.035.34-.068.239-.034.545-.068.715-.034.137-.236.511-.404.886 0 .306.135.545-.27.953-.033.239-.033.545-.168.817-.1.205-.168.511-.236.75-.067 0-.202-.137-.168-.273.135-.477.202-1.055.337-1.566.067-.17.303-.409.303-.613 0-.102-.034-.783.034-1.056.033-.136.27-.579.404-.749.067-.374.168-.783.168-1.123.034-.034.135-.17.169-.239.303-.92.538-2.111.875-3.064.101-.273.236-.681.303-1.056.034-.068.068-.136.101-.17.202-.681.404-1.498.573-2.111.034-.136.168-.273.202-.375l.337-.17.1.17Zm-5.59 22.848c-.035.136-.136.783-.27 1.056-.068.136-.404.408-.64.544-.135.069-.337.069-.472.102-.235.103-.572.341-.875.41.033-.103-.068-.205-.202-.375 0 0 .033-.205 0-.307-.068-.17-.27-.442-.303-.613 0-.204.067-.579.067-.817-.034-.272-.27-.681-.337-.953a4.618 4.618 0 0 0-.236-.92c-.033-.068.068-.238.068-.374-.809-.307-.506-.852-.506-1.635-.033-1.498.405-4.597.438-4.767.068-.238.068-.34.37-.477 0-.17-.168-.442-.168-.715 0-.408 0-1.43.27-2.043.1.137.168.239.1.409.068.238.17.477.237.715.067 0 .033.102.067-.068.067-.204-.135-1.975-.27-1.975l-.168.068c.034-.136.202-.34.236-.51.034-.137-.168-.648-.236-.92-.067.17-.168.51-.303.851-.202.511-.707 2.384-1.179 3.235-.134.273-.471 1.737-.673 2.213-.337.783-.741 2.077-1.213 2.929-.303.578-.976.17-1.414.613-.135.51-.303 1.123-.337 1.566-.034.238.135.579.202.92.034.272-.067.85-.135 1.02-.1.477-.1.648-.64 1.158.068.069.102.069.169.069-.067.17-.202.374-.337.579.27 1.055-.91 1.77-1.516 1.77-.134 0-.437-.136-.572-.238.034-.92.471-2.111.606-3.099 0-.136-.1-.272-.1-.442.033-.545.336-2.282.437-3.303.034-.34.034-.954.034-1.362 0-.205-.101-.443-.068-.75 0-.34.135-.817.135-1.157-.034-.647-.202-1.805-.236-2.758-.033-.375.101-.954.068-1.362-.068-.647-.169-1.294-.202-1.907 0-.17.1-.375.1-.579 0-.204 0-.545.034-.851 0-.068-.033-.205-.067-.205 0-1.77.135-4.018.101-5.958-.034-.988-.135-2.248-.135-3.576 0-.579.101-1.6.135-2.11.034-.886-.034-1.703.27-2.963.033-.136.269-.852.437-1.226.068-.17.337-.34.438-.477.505-.715 1.179-1.226 1.65-1.226.404 0 .91.681.91.784-.034.272.1.544.033.885-.27 1.055-.539 1.702-.606 2.928 0 .034-.135.17-.168.307a66.307 66.307 0 0 0-.068 2.588.52.52 0 0 1-.168.34c.067.34.034.75.067 1.124a.51.51 0 0 0-.1.238c-.102.851-.034 2.213-.236 3.473 0 .136.1.307.1.443-.067.851-.134 1.975-.1 2.86.033.306-.135.988-.135 1.362.034.885.1 1.737.1 2.588 0 .238-.134.68-.1 1.021.034.545.1 1.192.067 1.737-.033.783.068 1.498-.033 2.281.067 0 .1.069.134.137.37-.239.741-.58 1.01-.988.102-.136.102-.443.337-.68.573-.58.607-1.124.977-1.874.27-.578.438-1.498.674-2.11.1-.205.437-.512.572-.75.101-.17.135-.477.202-.715.034-.136.202-.272.236-.409.101-.204.202-.715.168-1.021 0-.068.034-.204.068-.273.202-.374.438-.783.64-1.225.1-.307.168-.715.269-1.056.067-.034.135-.136.168-.204.135-1.294.943-2.384 1.55-3.44.1-.136.437-.374.572-.544.303-.409.64-.75 1.078-1.124.135.034.438 0 .606-.068.168.102.101.307.067.443-.067.374.203 1.021.169 1.157-.034.137-.37.58-.438.852-.27 1.055-.74 2.179-1.01 3.03-.034.068-.135.137-.169.273-.033.136-.202 1.6-.37 2.35-.101.544-.337 1.43-.404 1.974-.135.953-.337 2.18-.505 3.235-.068.306-.169.715-.304 1.021-.033.375.034.818 0 1.158-.067.681-.235 1.26-.202 1.839 0 .374-.202 1.055-.27 1.6v.988c.035.408.17.885.237 1.294 0 .102-.068.272-.068.374.034.17.202.443.169.681-.101.715 0 .817.1 1.226.304-.102.27-.34.371-.647.034-.17.236-1.907.27-2.043.168-.75.37-.647.505-1.158l-.068-.068c0-.068.068-.204.101-.272-.033-.034-.134-.239-.1-.375.033-.17.64-.953.707-1.123.033-.137-.202-.716-.169-.886.068-.136.472-1.055.607-1.702.168.034.437 0 .64-.102.067.068.168.136.134.306-.034.136-.202.272-.236.409-.067.204-.033.476-.134.749-.034.102-.169.238-.236.374-.034.102 0 .239-.034.375h-.067c-.034.17.067.17.034.238 0 0-.034 0-.101.068v.068l-.034.035c.067.136.168.306.236.374-.034.238-.203.443-.169.681-.27.75-.572 1.703-.673 2.486-.034.136.134.238.1.374-.067.375-.201.75-.235 1.124-.034.136.1.238.1.375.035.136-.1.442-.235.68 0 .137.034.205 0 .341ZM41.183 28.5l.067-.306c-.1-.068-.168-.238-.27-.238l-.067.272a.529.529 0 0 0 .27.272ZM58.104 25.334c.304-.069-.1.783-.37 1.021-.808.715-1.92 1.669-2.863 1.158-.842-.443.37-3.61-2.896-.715-1.044.92 1.212-2.01 1.852-3.133.135-.238.404-.374.506-.715.235-.681.437-.953.74-1.6.337-.715 1.246-1.294 2.021-1.465l.169.307c-.304 1.294-.977 2.554-.977 3.916v1.396c-.034.51.168.817.505.783.573-.034.707-.75 1.313-.953Zm1.078-8.309c0-.442-.135-.204-.404-.545-.303-.34-.707-1.021-1.145-.987-.236 0-1.044-.409-1.28-.272-.37.17-.74.102-1.078.408-.336.307-.707.545-1.044.851a2.804 2.804 0 0 0-.707 1.192c-.135.34-.303.58-.471.886-.135.34-.37.715-.337 1.09.034.34 0 .816.37.884.135 0 .303-.204.27-.34-.034-.306.134-.477.202-.783.067-.34.303-.58.505-.886.135-.204.303-.272.337-.476.067-.204.034-.443.135-.613.134-.17.303-.239.471-.375.337-.272.808-.647 1.212-.476.236.102.809.17 1.01.34.607.579 1.483 1.396 1.685 2.213 0 .102.067.273.236.137.202-.17.1-.477.202-.715.1-.307-.236-.613-.169-.92.034-.204-.034-.409 0-.613Z"/><path fill="#555" d="M69.947 16.889c.034.75-1.212.851-1.785 1.26-1.549 1.09-3.401 1.94-4.546 3.064-.977.92-.101 2.486.505 3.474.808 1.26 2.357 1.634 3.873 1.328.067-.035.135-.103.236-.103.1 0 .033.443-.135.545-.876.511-1.92.681-2.93.783-1.65.17-2.425-1.225-3.536-2.11-.337-.273-.27.374-.303.714-.068.886-.405 1.43-.674 2.418-.202.715-1.684 1.532-1.886.851-.404-1.226 1.01-2.451.606-3.61-.202-.544-.91 1.329-1.246.852-.707-.92 1.044-1.498 1.55-2.384.807-1.43 1.279-2.826 1.919-4.222.303-.613.64-1.191.842-1.838.505-1.533.943-3.03 1.718-4.495.303-.579 1.212-.954 1.852-.783l.067.068c-.842 1.94-1.583 3.95-2.391 5.89-.27.613-1.145 1.84-.505 1.941.91.17 2.324-1.123 3.368-1.872.64-.477 1.145-.784 1.785-1.226.437-.307 1.616-1.056 1.616-.545Z"/><path fill="#555" d="M74.418 25.334c.303-.069-.102.783-.371 1.021-.808.715-1.92 1.669-2.863 1.158-.842-.443.37-3.61-2.896-.715-1.044.92 1.212-2.01 1.852-3.133.135-.238.404-.374.505-.715.236-.681.438-.953.741-1.6.337-.715 1.246-1.294 2.021-1.465l.169.307c-.304 1.294-.977 2.554-.977 3.916v1.396c-.034.51.168.817.505.783.573-.034.707-.75 1.314-.953Zm1.077-8.309c0-.442-.135-.204-.404-.545-.303-.34-.707-1.021-1.145-.987-.236 0-1.044-.409-1.28-.272-.37.17-.74.102-1.078.408-.336.307-.707.545-1.043.851a2.803 2.803 0 0 0-.708 1.192c-.135.34-.303.58-.471.886-.135.34-.37.715-.337 1.09.034.34 0 .816.37.884.135 0 .303-.204.27-.34-.034-.306.135-.477.202-.783.067-.34.303-.58.505-.886.135-.204.303-.272.337-.476.067-.204.034-.443.135-.613.134-.17.303-.239.471-.375.337-.272.808-.647 1.212-.476.236.102.809.17 1.01.34.607.579 1.483 1.396 1.685 2.213 0 .102.067.273.236.137.202-.17.1-.477.202-.715.1-.307-.236-.613-.169-.92.034-.204-.034-.409 0-.613ZM82.758 26.049c.572.442-.404 1.294-.977 1.94-.876.988-1.583 1.907-2.155 3.1-.27.51-.304 1.157-.573 1.668-.168.34-.168.68-.27 1.021-.47 1.192-.875 2.384-1.347 3.541-.538 1.396-1.11 2.963-2.256 3.882-.27.239.202-.749.471-.885.506-.273.169-.34.405-.715.808-1.192.64-2.86 1.313-4.12l-.034-.069c0-.272.27-.646.27-.987 0-.613.808-1.226.303-1.6-.337-.239-.741.613-1.044.885-.91.817-1.482 1.839-2.324 2.724-.27.272-.471.681-.674.953-.606.818-.976 1.669-1.28 2.588l-.067.068c.034.307-.033.647-.168.954-.168.408.101.647.034.987-.135.511-.068.988.37 1.294.169.102.438 0 .606.068.068 0-.033.068-.067.137l-.067-.069c-.169.34-.505.443-.809.58-.168.033-.303-.069-.438-.137l-.067.068-.303-.272.135-.136c0-.035-.034-.069-.101-.035l-.068.035c-.134-.886.135-1.907.472-2.827.236-.613.37-1.191.707-1.736.27-.443.337-.852.741-1.158l.27-.647c1.178-1.328 2.155-2.656 3.3-4.086.168-.204.27-.204.37-.443.37-.817 1.482-1.362 1.55-2.315a3.64 3.64 0 0 1 .134-.647c.472-1.464.943-2.962 1.112-4.529.034-.238.202-.374-.068-.442h-.269c-.876.783-1.684 1.838-2.863 1.702-.235-.034-.37-.034-.606-.34-.539-.784.842-1.158 1.179-1.873.64-1.43 1.718-2.656 2.795-3.882.539-.647 1.213-1.192 2.02-1.328.506-.068-.067.783-.302 1.09-.404.476-.741.885-1.112 1.362-.774.92-2.189 1.736-2.29 3.03 0 .136.202.205.303.102.977-.68 2.021-1.634 2.29-2.826.203-.783 1.044-1.736 1.82-1.532.706.204-.27 1.328-.54 1.94-.067.137-.033.273-.1.444-.64 1.361-.876 2.86-1.415 4.256-.101.238-.236.68.1.817h.135c.472-.477.91-2.009 1.449-1.6ZM89.235 20.77c.034 2.316-.573 3.133-1.347 5.313-.236.715-.606.919-.977 1.43-.27.374-.808.783-1.313.851-.472.034-.876-.068-1.112-.34-1.077-1.192-.572-2.554-.438-4.018.169-1.805.438-1.124.843-1.805 1.11-1.907 1.313-1.805 3.132-2.997.572-.374 1.212.92 1.212 1.567Zm-2.257 4.768c.91-1.124 1.55-3.269-.134-3.575-1.01-.17-.943.68-.91 1.702.068 1.124-.841 2.384.27 2.792.505.17.471-.579.775-.92Z"/><path fill="#555" d="M105.238 9.364c.236.068-.471.613-.707.749-1.583 1.192-3.907.272-5.59 1.158-.708.374-.607 1.396-.843 2.145-.269.817-.606 1.634-.875 2.486-.404 1.396-.741 2.724-1.246 4.052-.708 1.974-1.347 4.154-1.684 6.095-.034.306-.034.783.404.68 1.145-.272 1.987-1.532 2.728-2.52.539-.68.977-2.927 1.516-2.212 1.077 1.43-1.348 2.553-2.19 3.813-.572.852-1.448 1.635-2.357 2.043-.404.17-.876.715-1.314.477-.909-.477-.303-1.805-.1-2.758.302-1.396.74-2.758 1.178-4.086.236-.75.741-1.703.168-2.145-.437-.307-.572.817-.875 1.157-.337.375-.404.92-.741 1.294-.91.988-1.785 2.077-2.863 2.895-.875.647-.74.647-2.256 1.6h-.169c.438-1.192 2.358-1.566 4.412-4.733 1.145-1.77 1.886-3.61 2.897-5.482.404-.715.606-1.464.909-2.213.202-.443.438-.784.573-1.226.134-.34.168-.681.404-.988.168-.17 0-.476-.169-.476-1.178.102-2.492.204-3.536-.205-.135-.068-.236-.272-.101-.476.438-.477.775-1.43 1.448-1.43.943 0 1.886.919 2.863.612 1.044-.34.572-1.872 1.717-2.588.438-.272 1.348-.85 1.314-.238-.067.783-.808 1.43-.674 2.213.068.511.943.34 1.448.375.472 0 .809-.034 1.348 0 .909.068 2.088-.34 2.963-.068Z"/><path fill="#555" d="M103.457 15.595c-.472.443-.977.783-1.55.885-.505.069-.909-.646-.741-1.021.304-.647 1.112-1.226 1.853-1.226l.101.375c.202.272.808.579.337.987Zm-1.314 9.739c.303-.069-.101.783-.37 1.021-.809.715-1.92 1.669-2.863 1.158-.842-.443.37-3.61-2.896-.715-1.044.92 1.212-2.01 1.852-3.133.135-.238.404-.374.505-.715.236-.681.438-.953.741-1.6.337-.715 1.246-1.294 2.021-1.465l.168.307c-.303 1.294-.977 2.554-.977 3.916v1.396c-.033.51.169.817.506.783.572-.034.707-.75 1.313-.953Z"/><path fill="#555" d="M107.046 27.138c-.337.17-.573.273-.741.136-1.347-1.123-.471-3.268-.438-4.903 0-.17-.033-.204-.033-.306.033-.307.235-.75-.034-.886-.606-.238-.707.58-1.044.954-1.246 1.498-1.65 3.405-2.56 5.073-.202.375-.606.715-1.077.715-.371.035.437-.783.37-1.225-.101-.477.236-.75.236-1.192 0-.988.37-1.669.572-2.622.303-1.635.337-3.507 2.29-4.46.236-.103.405-.443.64-.375.438.102-.134.51-.202.817-.168.579-.539.885-.438 1.464.135.715.943-.34 1.482-.579.573-.272 1.145-1.09 1.752-.817.37.17.202.647.168 1.022-.101 1.498-.505 2.894-.842 4.392-.168.715-.202 1.873.438 1.839 1.212-.068 1.818-1.396 2.526-2.282.505-.612.505-.374.808-1.123.168-.375 1.145-1.6 1.078-1.192-.371 2.009-3.065 4.495-4.951 5.55Z"/></svg>