<svg xmlns="http://www.w3.org/2000/svg" width="120" height="19"><path fill="#000" fill-rule="nonzero" d="M17.452.294h.426l1.04.001H19.476l.169.001.305.001h.357l.088.001h.165l.059.054v.514c0 .142-.08.213-.237.213-.773.036-.932.113-1.215.52-.154.222-.459.7-.775 1.236l-2.712 5.073-.076.158 3.315 6.785.2.055 5.223-12.393c.181-.5.153-.854-.08-1.062-.234-.202-.399-.324-1.004-.348l-.49-.024a.282.282 0 0 1-.172-.063.178.178 0 0 1-.082-.15V.348l.075-.052h5.9l.06.052v.516c0 .14-.08.21-.238.21-.773.035-1.346.203-1.717.502-.372.302-.662.716-.87 1.257 0 0-4.803 10.991-6.446 14.646-.629 1.197-1.247 1.088-1.791-.035-.681-1.403-2.096-4.497-3.135-6.784-1.11 2.292-2.632 5.4-3.387 6.798-.733 1.275-1.337 1.109-1.818.033-1.67-3.938-5.097-10.853-6.71-14.728-.298-.714-.523-1.172-.736-1.354-.213-.179-.657-.287-1.331-.323C.123 1.06 0 1 0 .903v-.54L.06.31.288.309h.141L.761.308h4.634L5.58.31l.893.001.06.053v.514c0 .142-.09.21-.268.21l-.669.028c-.574.024-.86.196-.86.514 0 .148.06.39.193.713 1.285 3.131 5.722 12.488 5.722 12.488l.163.043 2.86-5.706c-.35-.772-.572-1.267-.572-1.267l-1.967-3.865-.232-.471-.105-.213-.172-.346-.104-.206-.183-.363c-.587-1.166-.668-1.248-1.432-1.35-.245-.032-.371-.063-.371-.184V.36L8.61.307l.892-.001h.202L11.85.305h1.85l.134.044v.54c0 .123-.088.187-.267.187l-.369.053c-.932.072-.78.453-.16 1.687l1.886 3.86 2.087-4.162c.326-.711.285-.924.162-1.093l-.028-.036c-.083-.098-.36-.258-.965-.281l-.237-.026a.283.283 0 0 1-.171-.061.177.177 0 0 1-.08-.152V.351L15.764.3l.868-.004Zm15.032 5.404.027.054v.592c0 .081-.054.135-.162.135l-.566.055c-.835.08-1.131.296-1.131.836v8.97c0 .594.27.944 1.131 1.025l.566.055c.08 0 .162.052.162.16v.566l-.027.055s-.715-.02-1.473-.035l-.35-.007a63.55 63.55 0 0 0-1.06-.013c-.24 0-.616.005-1.018.013l-.348.007c-.756.016-1.49.035-1.49.035l-.053-.055v-.566c0-.108.08-.16.188-.16l.539-.055c.889-.081 1.158-.512 1.158-1.024V7.37c0-.591-.324-.756-1.158-.835l-.539-.056c-.108 0-.188-.025-.188-.108v-.62l.027-.054s1.947.05 2.847.053h.116c.727 0 2.802-.053 2.802-.053Zm6.118 10.643c0 .593.35.889 1.131 1.024l.297.055c.08.025.161.052.161.16v.566l-.027.055s-1.697-.055-2.505-.055c-.754 0-2.963.055-2.963.055l-.054-.055v-.566c0-.108.08-.16.188-.16l.54-.055c.807-.081 1.158-.512 1.158-1.024V7.37c0-.591-.297-.756-1.159-.835l-.539-.056c-.107 0-.188-.025-.188-.108v-.62l.027-.054s2.209.054 3.044.054c.755 0 2.451-.054 2.451-.054l.027.054v.592c0 .081-.054.108-.161.135l-.297.055c-.835.16-1.131.296-1.131.836v4.069c.889 0 1.4-.456 2.586-1.724 1.078-1.187 1.913-2.18 1.913-2.695 0-.217-.243-.457-.781-.54-.108-.025-.162-.054-.162-.135v-.621l.027-.025s2.182.054 2.963.054c.7 0 1.886-.054 1.886-.054l.08.025v.621c0 .081-.08.135-.215.135-1.05.08-1.778.135-2.748 1.24l-2.316 2.664c-.458.487-.62.781-.62.998 0 .162.108.295.242.457l4.068 4.903c.324.376.97.539 1.509.645l.135.026c.08.026.188.08.188.16v.567l-.08.027s-1.428-.027-2.183-.027c-.673 0-1.643.027-1.643.027l-.027-.027v-.324c0-.35-.027-.645-.404-1.076l-2.99-3.719c-.404-.54-.835-.672-1.428-.672v3.992Zm14.523 0c0 .593.27.943 1.132 1.024l.565.055c.081 0 .162.052.162.16v.566l-.027.055s-2.047-.055-2.882-.055c-.755 0-2.856.055-2.856.055l-.054-.055v-.566c0-.108.081-.16.189-.16l.539-.055c.889-.081 1.158-.512 1.158-1.024V7.37c0-.591-.323-.756-1.158-.835l-.54-.056c-.107 0-.188-.025-.188-.108v-.62l.027-.054s2.128.054 2.963.054c.728 0 2.802-.054 2.802-.054l.027.054v.592c0 .081-.054.135-.162.135l-.565.055c-.835.08-1.132.296-1.132.836v8.97Zm5.821-8.918c0-.835-.35-.862-1.616-.943-.162 0-.189-.08-.189-.135v-.62l.054-.026c.404 0 1.994.054 2.775.054.754 0 1.832-.054 2.829-.054 3.823 0 4.523 1.885 4.523 3.288 0 1.617-.78 4.148-4.604 4.148-.674 0-1.213-.055-1.698-.27v3.609c0 .591.323.728 1.186.862l.54.08c.107.026.19.055.19.161v.566l-.026.055s-2.156-.055-2.99-.055c-.755 0-2.776.055-2.776.055l-.027-.055v-.566c0-.108.054-.135.162-.16l.566-.081c.835-.108 1.104-.35 1.104-.862l-.003-9.051Zm2.075 4.688c.538.217 1.212.243 1.75.243 1.618 0 2.396-.972 2.396-3.044 0-2.317-1.05-2.829-2.53-2.829-1.294 0-1.617.243-1.617.943v4.687Zm10.941 6.035c-.808 0-2.666.055-2.666.055l-.028-.055v-.593c0-.053.028-.133.162-.133l.621-.055c.837-.081 1.08-.62 1.08-1.158v-8.89c0-.621-.324-.728-1.08-.78l-.621-.057c-.162-.025-.162-.08-.162-.108v-.62l.028-.054s2.1.054 2.909.054h3.96c.808 0 2.722-.054 2.722-.054l.055.054c.025 1.158.214 2.21.405 3.233l-.672.108c-.295-.998-.807-2.424-2.531-2.424h-2.155c-.512 0-.782.188-.782.645v3.907h2.02c.755 0 .943-.323 1.052-.862l.16-.565c0-.081.055-.136.162-.136h.456c.056 0 .056.028.056.08-.056.592-.162 1.349-.162 1.995 0 .673.108 1.24.162 1.86l-.056.054H76.6c-.134 0-.19-.055-.19-.136l-.136-.591c-.107-.54-.35-.837-1.053-.837h-2.019v4.123c0 .51.294 1.022.782 1.022h2.559c1.374 0 2.13-.862 2.451-2.265l.672.08-.54 3.098-.054.054s-1.59-.054-2.398-.054l-4.713.005Zm10.131-.726.62-.055c.81-.081 1.079-.324 1.079-1.158v-8.89c0-.702-.191-.702-1.08-.78l-.59-.057c-.107 0-.19-.054-.19-.135v-.592l.026-.054s2.371.054 2.857.054c.51 0 2.856-.054 3.556-.054 4.5 0 6.71 2.802 6.71 6.384 0 4.716-3.342 6.115-6.33 6.115-2.156 0-3.098-.055-3.933-.055-.809 0-2.857.055-2.857.055l-.026-.055v-.566a.15.15 0 0 1 .158-.157Zm6.009 0c2.962 0 4.634-1.103 4.634-4.878 0-2.8-.62-6.062-5.146-6.062-1.05 0-1.724.162-1.724.837v8.89c0 .752.187 1.213 2.236 1.213Zm13.338-1.08c0 .594.27.944 1.131 1.025l.566.055c.08 0 .162.052.162.16v.566l-.027.055s-2.048-.055-2.882-.055c-.755 0-2.855.055-2.855.055l-.055-.055v-.566c0-.108.08-.16.188-.16l.54-.055c.888-.081 1.159-.512 1.159-1.024V7.37c0-.591-.325-.756-1.159-.835l-.54-.056c-.107 0-.188-.025-.188-.108v-.62l.027-.054s2.128.054 2.961.054c.726 0 2.803-.054 2.803-.054l.025.054v.592c0 .081-.056.135-.162.135l-.566.055c-.836.08-1.131.296-1.131.836l.003 8.97Zm11.677-8.314c1.133 0 1.827-.109 2.081-.326.263-.227.413-.753.449-1.578.072-.091.222-.136.449-.136s.385.045.476.136a83.973 83.973 0 0 0-.054 2.407c0 .336.018 1.152.054 2.449-.09.09-.25.136-.476.136-.218 0-.368-.045-.45-.136-.035-.499-.09-.857-.162-1.075-.073-.217-.295-.408-.667-.571-.372-.172-.939-.258-1.7-.258h-2.53v6.72c0 .798.33 1.197.992 1.197h3.796c1.768 0 2.984-1.216 3.646-3.646.335-.073.662-.027.979.136a38.872 38.872 0 0 1-1.034 4.652 153.612 153.612 0 0 0-3.564-.054h-5.986c-1.505.018-2.716.036-3.632.054-.072-.072-.108-.217-.108-.435 0-.227.036-.385.108-.476 1.043-.036 1.71-.19 2-.463.29-.272.435-.965.435-2.08V3.508c0-1.115-.145-1.804-.435-2.067-.29-.272-.957-.426-2-.463-.072-.072-.108-.222-.108-.448 0-.227.036-.386.108-.477l3.605.055h7.101c.48 0 .934-.036 1.36-.109.073 0 .11.027.11.082.145.634.353 1.981.625 4.04-.299.145-.607.19-.925.136-.353-1.116-.725-1.9-1.115-2.354-.39-.453-1.066-.68-2.027-.68h-2.939c-.317 0-.562.118-.734.354-.172.227-.259.517-.259.87v5.578h2.53"/></svg>