<svg viewBox="0 0 125 23" xmlns="http://www.w3.org/2000/svg"><path d="m102 5.29 1.17.027c.709.016 1.29.025 1.74.027.41-.002.909-.011 1.5-.027l.967-.027.05.054v.594a.098.098 0 0 1-.05.088.46.46 0 0 1-.126.047l-.327.054c-.386.06-.663.143-.832.253-.169.11-.252.295-.248.557v8.23c-.006 1.68-.201 3.02-.584 4.01-.383.995-.917 1.77-1.6 2.33-.537.454-1.04.734-1.51.84-.471.106-.855.15-1.15.132-.294 0-.611-.114-.952-.341-.341-.227-.526-.563-.556-1.01.017-.286.127-.51.33-.672.203-.161.394-.243.575-.246.344.008.605.08.782.216.177.136.319.289.424.459.084.137.174.248.27.331a.577.577 0 0 0 .383.128c.41.07.784-.259 1.12-.985.338-.727.517-2.27.537-4.63v-8.8c.004-.29-.08-.493-.248-.607-.169-.115-.447-.182-.832-.202l-.704-.054a.166.166 0 0 1-.104-.037.128.128 0 0 1-.047-.098v-.594zm-14.6 0v.594a.191.191 0 0 1-.063.125.207.207 0 0 1-.138.064l-.402.054c-.455.052-.764.157-.927.314-.163.157-.239.457-.229.901v8.32c-.01.474.043.802.16.985.118.183.366.296.744.338l.427.054a.751.751 0 0 1 .33.148.49.49 0 0 1 .198.391l.151 3.64h-.628a5.354 5.354 0 0 0-.826-2.32c-.459-.714-1.31-1.09-2.54-1.14h-4.75c-1.24.08-2.07.528-2.48 1.34-.409.816-.62 1.52-.635 2.11h-.628l.151-3.65c.005-.174.051-.305.138-.39a.481.481 0 0 1 .29-.149l.401-.054c.34-.036.616-.14.83-.31.213-.172.363-.437.451-.797.247-1.17.457-2.52.631-4.06.174-1.53.265-3.12.273-4.75a.914.914 0 0 0-.166-.574c-.126-.195-.414-.318-.864-.37l-.678-.055c-.1-.004-.15-.05-.15-.135v-.648c.427.002.846.011 1.26.027.408.016.802.025 1.18.027h5.8c.43-.002.894-.011 1.39-.027.496-.016.928-.025 1.3-.027zm-50.8-.324c.476.008.83.127 1.06.354.231.228.347.515.346.86-.007.28-.1.519-.28.716a.922.922 0 0 1-.675.31 1.187 1.187 0 0 1-.393-.08 2 2 0 0 1-.336-.162.898.898 0 0 0-.27-.084 1.88 1.88 0 0 0-.308-.024c-.141.017-.286.165-.437.442-.15.277-.29.58-.418.908a7.822 7.822 0 0 1-.839 1.67c-.366.565-.865.926-1.5 1.08.68.024 1.26.286 1.74.786.482.5.856 1.09 1.12 1.78.203.594.519 1.3.949 2.13.429.823.884 1.28 1.36 1.36h.201a.384.384 0 0 1 .176.037c.062.028.095.087.101.179v.513l-.05.054-1.83-.027c-.624-.07-1.13-.443-1.52-1.12a11.241 11.241 0 0 1-.895-1.93 8.97 8.97 0 0 0-.936-2.09c-.391-.637-1.04-1.04-1.95-1.2v4.54c-.007.298.069.533.226.705.157.173.433.28.829.321l.528.054c.039 0 .074.014.104.04.03.028.045.068.047.123v.567l-.025.054c-.064-.003-.414-.012-1.05-.027a83.506 83.506 0 0 0-1.64-.027c-.42.002-.951.01-1.6.027-.645.015-1 .024-1.07.027l-.05-.054v-.567c0-.054.017-.095.05-.122a.19.19 0 0 1 .126-.041l.503-.054c.408-.046.692-.163.85-.351a.965.965 0 0 0 .23-.675v-8.99c.003-.29-.08-.493-.248-.611-.17-.118-.447-.193-.832-.226l-.503-.054a.277.277 0 0 1-.126-.024c-.033-.016-.05-.044-.05-.084v-.621l.025-.054 1.09.027c.66.016 1.22.025 1.67.027.406-.002.926-.011 1.56-.027l1.05-.027.025.054v.594c0 .086-.05.131-.151.135l-.528.054c-.385.037-.658.119-.82.246-.162.128-.24.325-.236.591v3.51c.969-.034 1.69-.337 2.16-.908a6.27 6.27 0 0 0 1.08-1.9c.242-.644.543-1.25.905-1.81.36-.56.839-.858 1.43-.894zm79.8-4.97c.17 0 .302.068.396.203.094.135.188.338.283.607l5.15 14.6c.169.519.397.898.685 1.14.288.239.68.382 1.17.429l.276.027c.065 0 .123.02.173.057.05.038.076.09.079.16v.512l-.076.054-1.09-.027a92.767 92.767 0 0 0-1.82-.027c-.318 0-.737.006-1.26.014l-1.41.026c-.422.01-.646.014-.67.014l-.026-.054v-.513c-.004-.14.055-.212.176-.216l.704-.054c.477-.036.804-.146.98-.327.176-.182.201-.46.075-.834l-1.53-4.56h-5.23c-.293-.002-.499.03-.619.098s-.207.188-.26.361l-1.46 3.91c-.127.347-.107.646.06.898.165.252.48.403.944.452l.73.054c.051 0 .098.02.137.058.04.037.061.09.063.159v.513l-.05.054-.732-.014a435.558 435.558 0 0 0-2.61-.04c-.38.002-.84.01-1.38.027-.537.015-.832.025-.886.027l-.05-.054v-.513c.003-.14.07-.212.2-.216.541-.012.998-.143 1.37-.395.372-.251.728-.795 1.07-1.63l5.58-14c.133-.348.263-.597.39-.75a.571.571 0 0 1 .464-.222zm-89.7 5.29.025.054v.594c0 .085-.05.13-.15.135l-.755.054c-.459.021-.74.114-.848.277-.107.163-.15.512-.132 1.05v8.23c-.016.488.035.822.151 1 .116.181.393.278.83.294l.753.054c.101 0 .151.054.151.162v.567l-.025.054-1.02-.027a86.749 86.749 0 0 0-1.87-.027c-.601.002-1.21.011-1.82.027l-.993.027v-.648c.004-.085.046-.131.126-.135l.779-.054c.439-.019.723-.123.854-.314s.19-.518.176-.982v-7.15l-5.18 7.53v.054c-.015.334.034.571.144.712.111.141.373.21.785.206.101 0 .151.054.151.162v.567l-.025.054a78.144 78.144 0 0 0-.716-.027 43.124 43.124 0 0 0-1.32-.027c-.59.002-1.19.011-1.8.027l-.99.027-.024-.054v-.594c.004-.085.046-.131.126-.135l.779-.054c.436-.016.708-.112.817-.287.109-.175.155-.493.138-.955v-8.23c.016-.562-.03-.93-.138-1.1-.11-.174-.381-.265-.817-.273l-.754-.054c-.101.005-.151-.031-.151-.108v-.621l.075-.054.964.027c.596.016 1.19.025 1.77.027.603-.002 1.22-.011 1.85-.027l1.02-.027.05.054v.594c0 .085-.05.13-.15.135l-.754.054c-.461.02-.752.114-.873.28-.121.166-.174.523-.157 1.07v7.32l5.18-7.56c.016-.332-.023-.606-.12-.823-.096-.217-.35-.33-.76-.338-.08.004-.12-.032-.126-.108V5.35l.05-.054.654.027c.403.016.797.025 1.18.027.615-.002 1.24-.011 1.87-.027l1.02-.027zm74.2 0 .025.054v.594c0 .086-.05.131-.15.135l-.755.054c-.459.021-.74.114-.848.277-.107.163-.15.512-.132 1.05v8.23c-.016.488.035.822.151 1 .116.181.393.278.83.294l.753.054c.101 0 .151.054.151.162v.567l-.025.054-1.02-.027a86.749 86.749 0 0 0-1.87-.027c-.601.002-1.21.011-1.82.027l-.993.027v-.648c.004-.085.046-.131.126-.135l.779-.054c.439-.019.724-.123.854-.314.131-.191.189-.518.176-.982v-7.15l-5.18 7.53v.054c-.015.334.034.571.144.712.111.141.373.21.785.206.101 0 .151.054.151.162v.567l-.025.054a78.144 78.144 0 0 0-.716-.027 43.124 43.124 0 0 0-1.32-.027c-.59.002-1.19.011-1.8.027l-.99.027-.024-.054v-.594c.004-.085.046-.131.126-.135l.779-.054c.436-.016.708-.112.817-.287.109-.175.155-.493.138-.955v-8.23c.017-.562-.03-.93-.138-1.1-.11-.174-.381-.265-.817-.273l-.754-.054c-.101.005-.151-.031-.151-.108v-.621l.075-.054.964.027c.596.016 1.19.025 1.77.027.603-.002 1.22-.011 1.85-.027l1.02-.027.05.054v.594c0 .086-.05.131-.15.135l-.755.054c-.46.02-.751.114-.872.28-.122.166-.175.523-.158 1.07v7.32l5.18-7.56c.017-.332-.023-.606-.119-.823-.096-.217-.35-.329-.76-.338-.08.005-.122-.031-.126-.108v-.62l.05-.055.654.027c.403.016.797.025 1.18.027.615-.002 1.24-.011 1.87-.027l1.02-.027zm-48.9 0 1.11.027c.672.016 1.23.025 1.68.027h6.94c.45-.002 1.03-.011 1.73-.027l1.16-.027.05.054v.594c0 .085-.05.13-.15.135l-.78.054c-.448.004-.727.076-.839.216-.112.14-.159.482-.14 1.03v8.42c-.015.495.039.814.16.958.12.144.393.22.82.23l.778.054c.101 0 .151.054.151.162v.567l-.05.054a372.06 372.06 0 0 0-1.15-.027c-.697-.016-1.28-.025-1.74-.027-.441.002-.979.011-1.61.027l-1.05.027-.05-.054v-.594c0-.086.05-.131.15-.135l.679-.054c.459-.026.74-.116.848-.27.107-.154.15-.46.132-.918v-8.37c-.01-.47-.11-.766-.302-.891a1.08 1.08 0 0 0-.678-.162h-3.07a1.112 1.112 0 0 0-.691.172c-.2.13-.304.424-.314.88v8.37c-.012.494.049.81.182.949.133.139.407.219.823.24l.653.054c.1 0 .15.054.15.162v.567l-.05.054-1.1-.027a91.486 91.486 0 0 0-1.66-.027 92.99 92.99 0 0 0-1.68.027l-1.11.027-.025-.054v-.594c.004-.086.046-.131.126-.135l.78-.054c.458-.014.74-.101.847-.26.107-.16.151-.47.132-.928v-8.4c.016-.557-.034-.907-.15-1.05-.117-.142-.394-.215-.83-.22l-.754-.053c-.1.004-.15-.032-.15-.108v-.621zm-.662 0 .025.054v.594c0 .086-.05.131-.15.135l-.755.054c-.459.021-.74.114-.848.277-.107.163-.15.512-.132 1.05v8.23c-.016.488.035.822.151 1 .116.181.393.278.83.294l.753.054c.101 0 .151.054.151.162v.567l-.025.054-1.02-.027a86.749 86.749 0 0 0-1.87-.027c-.601.002-1.21.011-1.82.027l-.993.027v-.648c.004-.085.046-.131.126-.135l.779-.054c.439-.019.723-.123.854-.314s.19-.518.176-.982v-7.15l-5.18 7.53v.054c-.015.334.034.571.144.712.111.141.373.21.785.206.101 0 .151.054.151.162v.567l-.025.054a78.144 78.144 0 0 0-.716-.027 43.124 43.124 0 0 0-1.32-.027c-.59.002-1.19.011-1.8.027l-.99.027-.024-.054v-.594c.004-.085.046-.131.126-.135l.779-.054c.436-.016.708-.112.817-.287.109-.175.155-.493.138-.955v-8.23c.017-.562-.03-.93-.138-1.1-.11-.174-.381-.265-.817-.273l-.754-.054c-.101.005-.151-.031-.151-.108v-.621l.075-.054.964.027c.596.016 1.19.025 1.77.027.603-.002 1.22-.011 1.85-.027l1.02-.027.05.054v.594c0 .086-.05.131-.15.135l-.754.054c-.461.02-.752.114-.873.28-.121.166-.174.523-.157 1.07v7.32l5.18-7.56c.016-.332-.023-.606-.12-.823-.096-.217-.35-.329-.76-.338-.08.005-.12-.031-.125-.108v-.62l.05-.055.653.027c.403.016.797.025 1.18.027.615-.002 1.24-.011 1.87-.027l1.02-.027zm14 0 1.07.027c.65.016 1.2.025 1.64.027h3.69a73.63 73.63 0 0 0 1.55-.027l.986-.027.05.054c.016.579.06 1.14.132 1.67.072.535.154 1.06.245 1.57l-.628.108a4.866 4.866 0 0 0-.682-1.59c-.336-.521-.896-.801-1.68-.84h-2.01c-.239-.002-.42.049-.543.152-.123.103-.185.268-.185.496v3.91h1.88c.342-.002.581-.079.716-.23.135-.15.223-.361.264-.633l.151-.567c0-.086.05-.131.151-.135h.427c.024 0 .04.007.044.02a.16.16 0 0 1 .007.06c-.029.304-.06.63-.095.98-.034.35-.053.69-.056 1.02.003.334.022.65.056.952.035.3.066.604.095.91l-.05.055h-.428c-.12-.005-.18-.05-.176-.135l-.126-.594c-.044-.271-.138-.478-.283-.621-.144-.143-.377-.215-.697-.216h-1.88v4.13c.002.267.067.502.195.705a.64.64 0 0 0 .534.32h2.39c.637-.006 1.14-.208 1.51-.606.37-.398.63-.952.776-1.66l.628.08-.503 3.1-.05.055-.836-.027a54.885 54.885 0 0 0-1.4-.027h-4.4c-.433.002-.942.011-1.53.027l-.961.027-.025-.054v-.594a.139.139 0 0 1 .028-.088c.02-.029.061-.045.123-.047l.578-.054c.383-.05.648-.186.795-.408.147-.222.217-.473.21-.753v-8.91c.002-.301-.077-.502-.239-.604-.16-.102-.417-.161-.766-.18l-.578-.053c-.072-.015-.116-.033-.132-.054-.016-.021-.022-.04-.019-.054v-.621zM-.062.316l1.12.013c.695.009 1.38.013 2.07.014.588-.001 1.13-.005 1.63-.014.5-.008.97-.012 1.41-.013 2.27.059 3.75.52 4.45 1.39.699.866 1.02 1.78.949 2.74a3.79 3.79 0 0 1-.688 2.1 4.608 4.608 0 0 1-1.65 1.49c1.12.33 2.03.884 2.73 1.66.704.773 1.07 1.81 1.09 3.09.049 1.23-.382 2.35-1.29 3.38-.909 1.03-2.59 1.58-5.04 1.64a63.099 63.099 0 0 1-2.11-.027c-.365-.016-.86-.025-1.49-.027-.683.002-1.37.011-2.07.027l-1.12.027-.05-.054v-.513c-.004-.14.054-.212.176-.216l.754-.054c.516-.024.866-.105 1.05-.243.183-.138.269-.435.258-.891v-13.6c.013-.444-.07-.737-.248-.881-.18-.143-.531-.228-1.06-.253l-.754-.054c-.063-.001-.107-.02-.135-.054A.207.207 0 0 1-.121.858v-.54zm6.46 8.48h-2.24v6.86c-.023.442.105.76.383.955.279.195.846.29 1.7.287 1.86-.027 3.1-.38 3.72-1.06.618-.678.903-1.52.854-2.53 0-1.25-.37-2.31-1.11-3.17-.739-.86-1.84-1.31-3.31-1.34zm76.4-2.43h-2.56c-.294.022-.491.126-.591.31-.1.186-.146.316-.138.392-.195 3.05-.402 5.32-.622 6.79-.22 1.48-.339 2.32-.358 2.52.004.143.052.235.144.273a.774.774 0 0 0 .333.05h3.79c.449.001.732-.109.851-.327.119-.219.17-.55.154-.996v-7.72c.016-.456-.035-.786-.154-.992-.119-.206-.403-.307-.851-.304zm33.1-3.46h-.05l-2.51 6.86c-.053.133-.03.225.069.277.098.052.285.076.559.074h4.37l-2.44-7.21zm-109-1.67h-.459c-.909.005-1.47.087-1.68.245-.228.172-.319.476-.273.915v5.48h1.86c1.06.014 1.93-.217 2.59-.692.664-.475 1.01-1.28 1.03-2.41-.05-1.35-.422-2.29-1.12-2.8-.696-.515-1.42-.76-2.17-.736z" fill="#000" fill-rule="nonzero"/></svg>