<svg xmlns="http://www.w3.org/2000/svg" width="104" height="18"><path fill="#000" fill-rule="nonzero" d="M87.766 14.937v-6.93c-.013-.69.09-1.124.308-1.304.218-.18.633-.27 1.243-.268.053-.063.08-.158.08-.285 0-.128-.027-.223-.08-.285l-1.145.023a61.67 61.67 0 0 1-2.321 0l-1.15-.023c-.053.062-.08.157-.08.285 0 .127.027.222.08.285.61-.002 1.025.088 1.243.268.219.18.321.615.308 1.304v6.93c.013.69-.09 1.124-.308 1.304-.218.18-.632.27-1.243.268-.053.063-.08.158-.08.285 0 .128.027.223.08.285l1.145-.024a61.586 61.586 0 0 1 2.321 0l1.15.024c.053-.062.08-.157.08-.285 0-.127-.027-.222-.08-.285-.61.001-1.025-.088-1.243-.268-.218-.18-.32-.615-.308-1.304ZM18.165 0H18.733l.173.001h.311l.137.001.32.001H19.844l.057.053v.496c0 .137-.077.205-.229.205-.746.035-.899.11-1.172.502-.149.215-.443.676-.748 1.193L15.134 7.35s-3.324 6.944-4.55 9.218c-.708 1.231-1.291 1.07-1.755.032C7.218 12.8 3.91 6.124 2.353 2.384c-.288-.689-.505-1.13-.71-1.306C1.437.905 1.009.801.358.766.119.74 0 .682 0 .588v-.52L.058.015h.369l.16-.001h.563l.212-.001H3.3l1.435.001h.214l.87.001h.429l.058.051v.496c0 .137-.087.203-.258.203l-.646.027c-.554.023-.831.19-.831.496 0 .143.058.375.187.688 1.24 3.021 5.523 12.052 5.523 12.052l.157.041 5.98-11.927c.337-.735.268-.919.129-1.089-.08-.096-.348-.249-.931-.273l-.229-.025a.273.273 0 0 1-.165-.059.17.17 0 0 1-.078-.146V.055l.071-.05.87-.004Zm4.457 5.864c.053.062.08.157.08.285 0 .127-.027.222-.08.285-.61-.002-1.025.088-1.243.268-.219.18-.321.615-.308 1.304v6.93c-.013.69.09 1.124.308 1.304.218.18.632.27 1.243.268.053.063.08.158.08.285 0 .128-.027.223-.08.285l-1.15-.024-.26-.004a65.06 65.06 0 0 0-2.06.004l-1.146.024c-.053-.062-.08-.157-.08-.285 0-.127.027-.222.08-.285.61.001 1.025-.088 1.243-.268.218-.18.32-.615.308-1.304v-6.93c.013-.69-.09-1.124-.308-1.304-.218-.18-.633-.27-1.243-.268-.053-.063-.08-.158-.08-.285 0-.128.027-.223.08-.285l1.15.023a59.555 59.555 0 0 0 2.32 0l1.146-.023Zm6.699 11.352a5.35 5.35 0 0 0 2.457-.59c.769-.391 1.458-.972 2.07-1.742a.553.553 0 0 0-.166-.188.424.424 0 0 0-.245-.072c-.622.669-1.262 1.151-1.92 1.448-.658.296-1.396.442-2.214.436-.92-.018-1.68-.284-2.281-.797-.601-.513-1.049-1.167-1.343-1.96a7.053 7.053 0 0 1-.44-2.479c.004-.746.099-1.406.286-1.979.187-.573.444-1.053.773-1.442.447-.525.916-.913 1.406-1.164.49-.251.97-.376 1.438-.374 1.21.028 2.11.326 2.7.894.59.568.992 1.238 1.203 2.009.106.033.205.04.299.021.094-.018.19-.054.29-.108a25.173 25.173 0 0 0-.17-1.32 87.471 87.471 0 0 0-.223-1.358 7.905 7.905 0 0 1-1.47-.421c-.557-.21-1.368-.33-2.433-.356a5.657 5.657 0 0 0-2.09.384 5.839 5.839 0 0 0-1.741 1.084 5.47 5.47 0 0 0-1.389 1.948 6.376 6.376 0 0 0-.5 2.51c0 .946.208 1.843.627 2.693.418.85 1.05 1.545 1.894 2.086.844.54 1.905.82 3.182.837Zm16.172-2.28v-6.93c-.013-.69.09-1.124.308-1.304.218-.18.632-.27 1.243-.268.053-.063.08-.158.08-.285 0-.128-.027-.223-.08-.285l-1.145.023a61.67 61.67 0 0 1-2.321 0l-1.15-.023c-.053.062-.08.157-.08.285 0 .127.027.222.08.285.61-.002 1.025.088 1.243.268.218.18.32.615.308 1.304v2.765h-6.095V8.007c-.014-.69.089-1.124.307-1.304.218-.18.633-.27 1.243-.268.054-.063.08-.158.08-.285 0-.128-.026-.223-.08-.285l-1.145.023a61.67 61.67 0 0 1-2.321 0l-1.15-.023c-.053.062-.08.157-.08.285 0 .127.027.222.08.285.61-.002 1.025.088 1.243.268.219.18.321.615.308 1.304v6.93c.013.69-.09 1.124-.308 1.304-.218.18-.632.27-1.243.268-.053.063-.08.158-.08.285 0 .128.027.223.08.285l1.145-.024a61.585 61.585 0 0 1 2.322 0l1.15.024c.053-.062.08-.157.08-.285 0-.127-.027-.222-.08-.285-.611.001-1.026-.088-1.244-.268-.218-.18-.32-.615-.307-1.304v-3.44h6.095v3.44c.013.69-.09 1.124-.308 1.304-.218.18-.633.27-1.243.268-.053.063-.08.158-.08.285 0 .128.027.223.08.285l1.145-.024a61.584 61.584 0 0 1 2.321 0l1.15.024c.053-.062.08-.157.08-.285 0-.127-.027-.222-.08-.285-.61.001-1.025-.088-1.243-.268-.219-.18-.321-.615-.308-1.304Zm5.409 0v-6.93c-.014-.69.089-1.124.307-1.304.219-.18.633-.27 1.243-.268.054-.063.08-.158.08-.285 0-.128-.026-.223-.08-.285l-1.145.023a61.67 61.67 0 0 1-2.321 0l-1.15-.023c-.053.062-.08.157-.08.285 0 .127.027.222.08.285.61-.002 1.025.088 1.244.268.218.18.32.615.307 1.304v6.93c.013.69-.09 1.124-.307 1.304-.219.18-.633.27-1.243.268-.054.063-.08.158-.08.285 0 .128.026.223.08.285l1.145-.024a61.585 61.585 0 0 1 2.32 0l1.15.024c.054-.062.08-.157.08-.285 0-.127-.026-.222-.08-.285-.61.001-1.024-.088-1.243-.268-.218-.18-.32-.615-.307-1.304Zm6.933-9.157c-.26.005-.634.027-1.125.062a22.82 22.82 0 0 1-1.313.063c-.43 0-.82-.024-1.156-.031-.336-.007-.726.009-1.156 0-.054.062-.063.154-.063.28 0 .128.01.22.063.282.61-.001 1.031.101 1.25.281.218.18.326.592.312 1.282v6.937c.014.69-.094 1.133-.312 1.313-.219.18-.64.251-1.25.25-.054.062-.063.154-.063.28 0 .128.01.25.063.313.422-.009.814-.024 1.156-.03.342-.008.717-.032 1.156-.032.488 0 .95.024 1.344.031.394.007.784.022 1.219.031a.516.516 0 0 0 .093-.312.42.42 0 0 0-.093-.281c-.684-.006-1.137-.074-1.407-.25-.27-.177-.417-.624-.406-1.313V12c.193.06.426.097.657.125.23.027.503.063.812.062 1.595-.055 2.689-.466 3.313-1.219.623-.752.932-1.523.906-2.312.04-.566-.235-1.167-.782-1.813-.546-.645-1.61-1.006-3.218-1.062Zm-.125.594c.64-.03 1.2.124 1.687.468.487.345.756 1.057.782 2.125-.003.926-.238 1.584-.688 2-.45.417-1.102.633-1.969.625-.239 0-.506-.015-.781-.03a4.152 4.152 0 0 1-.594-.063V7.467c-.015-.265.101-.52.313-.75.211-.228.624-.329 1.25-.343Zm9.412 4.433H65.5V7.35c0-.213.053-.392.16-.536.107-.144.268-.219.482-.225h1.87c.645.004 1.099.17 1.362.495.263.326.48.789.653 1.389.219.027.415-.002.588-.087a55.073 55.073 0 0 0-.216-1.466 28.36 28.36 0 0 0-.176-1.04c.003-.034-.021-.05-.072-.05a4.433 4.433 0 0 1-.39.053c-.117.01-.278.016-.483.015h-4.544a514.755 514.755 0 0 1-2.3-.034c-.053.062-.08.157-.08.285 0 .127.027.222.08.285.611-.002 1.025.088 1.244.268.218.18.32.615.307 1.304v6.93c.014.69-.089 1.124-.307 1.304-.219.18-.633.27-1.243.268-.054.063-.08.158-.08.285 0 .128.026.223.08.285a271.152 271.152 0 0 1 2.317-.034h3.831c.47.001.957.007 1.461.017l.82.017a27.774 27.774 0 0 0 .66-2.886.844.844 0 0 0-.624-.086c-.169.639-.433 1.172-.793 1.598-.36.427-.874.65-1.542.666h-2.423a.598.598 0 0 1-.468-.197c-.114-.13-.172-.311-.174-.546v-4.165h1.622c.727 0 1.18.1 1.359.296.179.197.266.49.263.88.064.051.162.077.294.077.131 0 .229-.026.294-.078l-.025-.766a24.759 24.759 0 0 1 0-1.523c.007-.226.015-.465.025-.717-.065-.052-.163-.078-.294-.078-.132 0-.23.026-.294.078.003.464-.084.779-.263.944-.18.164-.632.241-1.36.23Zm5.244-4.933c-.053.062-.063.154-.063.28 0 .128.01.22.063.282.61-.001 1.032.101 1.25.281.218.18.326.592.313 1.282v6.937c.013.69-.095 1.133-.313 1.313-.218.18-.64.251-1.25.25-.053.062-.063.154-.063.28 0 .128.01.25.063.313.422-.009.815-.024 1.156-.03.342-.008.717-.032 1.156-.032.31.001.71.021 1.188.031.478.01 1.165.03 2.063.031.863.013 1.736-.16 2.624-.468a4.801 4.801 0 0 0 2.25-1.625c.61-.781.944-1.877.97-3.282-.043-1.65-.662-3.019-1.813-4.125-1.152-1.105-2.59-1.675-4.344-1.718-.578.001-1.112-.01-1.625 0-.513.01-.957.03-1.313.03-.43 0-.82-.023-1.156-.03-.336-.007-.726.009-1.156 0Zm4.563.593c1.275.021 2.281.308 3.03.875.75.568 1.304 1.262 1.626 2.125a7.35 7.35 0 0 1 .469 2.657c-.038 1.708-.516 2.884-1.407 3.5-.89.615-1.956.911-3.25.875-.845-.002-1.386-.097-1.625-.25-.239-.154-.372-.347-.344-.625V7.31c.008-.3.165-.522.438-.656s.618-.19 1.063-.188ZM97.25 7.563c1.067 0 1.72-.102 1.96-.307.247-.214.388-.709.422-1.485.068-.086.21-.128.423-.128s.362.042.448.128a79.045 79.045 0 0 0-.051 2.266c0 .316.017 1.084.05 2.305-.085.085-.234.128-.447.128-.205 0-.346-.043-.423-.128-.034-.47-.085-.807-.154-1.012-.068-.205-.277-.384-.627-.538-.35-.162-.884-.243-1.6-.243H94.87v6.326c0 .75.311 1.127.934 1.127h3.573c1.665 0 2.808-1.144 3.432-3.432.315-.068.623-.026.922.128a36.59 36.59 0 0 1-.974 4.38c-1.4-.035-2.518-.052-3.354-.052h-5.635c-1.417.017-2.556.034-3.418.051-.069-.068-.103-.205-.103-.41 0-.213.034-.362.103-.448.981-.034 1.609-.18 1.882-.435.273-.256.41-.91.41-1.96V3.313c0-1.05-.137-1.699-.41-1.946-.273-.256-.9-.401-1.882-.436-.069-.068-.103-.209-.103-.422 0-.214.034-.363.103-.448l3.393.05h6.684c.452 0 .88-.033 1.28-.102.069 0 .103.026.103.077.136.598.333 1.865.589 3.803-.282.137-.572.18-.87.128-.334-1.05-.684-1.788-1.05-2.215-.368-.427-1.004-.64-1.909-.64h-2.766c-.298 0-.529.11-.691.333-.162.213-.243.486-.243.82v5.25h2.381"/></svg>