<svg xmlns="http://www.w3.org/2000/svg" width="120" height="15"><path fill="#000" fill-rule="nonzero" d="M4.146 5.223h-1.41v-2.79c0-.682.186-.992 1.022-.992h1.163c1.162 0 1.41.62 1.751 1.69a.863.863 0 0 0 .512-.078A54.407 54.407 0 0 0 6.843.806c0-.031-.016-.047-.062-.047a3.482 3.482 0 0 1-.76.062H2.07c-.473 0-1.38-.015-2-.03-.092.092-.092.418 0 .51 1.086.047 1.35.125 1.35 1.411v6.215c0 1.287-.264 1.364-1.35 1.41-.092.094-.092.42 0 .512a93.021 93.021 0 0 1 2.016-.03h3.332c.744 0 1.984.03 1.984.03.217-.775.45-1.798.573-2.588a.714.714 0 0 0-.542-.078c-.31 1.116-.853 2.03-2.03 2.03H3.602c-.65 0-.867-.247-.867-.976V5.812h1.41c1.317 0 1.364.357 1.41 1.054.093.093.419.093.512 0a33.52 33.52 0 0 1-.031-1.364c0-.434.015-.96.03-1.333-.092-.093-.418-.093-.51 0-.047.853-.094 1.054-1.411 1.054Zm7.13.047c-.095.108-.182.145-.187 0-.015-.419-.05-1.019-.124-1.178-.032-.072-.062-.124-.186-.124-.434.17-.836.31-1.906.45-.03.092 0 .34.031.433.837.078 1.008.155 1.008 1.054v3.022c0 1.271-.155 1.333-1.085 1.41-.093.094-.093.42 0 .512a42.84 42.84 0 0 1 3.255 0c.092-.093.092-.418 0-.511-.791-.078-.946-.14-.946-1.41V6.385a.91.91 0 0 1 .263-.651c.59-.574 1.287-.915 1.891-.915.31 0 .636.202.822.558.155.31.186.729.186 1.194v2.355c0 1.271-.155 1.333-.961 1.41-.078.094-.078.42 0 .512.465-.015.96-.03 1.58-.03.62 0 1.179.015 1.644.03.077-.093.077-.418 0-.511-.868-.078-1.039-.14-1.039-1.41v-2.31c0-.852-.062-1.596-.418-2.077-.264-.34-.744-.527-1.287-.527-.76 0-1.622.202-2.542 1.256Zm11.717 4.138c-.062-.14-.186-.202-.326-.217-.527.682-1.193 1.023-1.86 1.023-1.131 0-2.077-1.147-2.077-2.96 0-1.705.744-2.728 1.767-2.728.915 0 1.039.542 1.1 1.085.047.418.264.558.59.558.325 0 .76-.202.76-.682 0-.853-.884-1.473-2.372-1.473-1.535 0-3.178 1.38-3.178 3.58 0 2 1.116 3.38 3.07 3.38.93 0 1.75-.295 2.526-1.566Zm1.86-7.874c0 .403.371.806.743.806.434 0 .806-.417.806-.744 0-.372-.325-.806-.744-.806-.372 0-.806.372-.806.744Zm1.41 7.393V5.838c0-.77.062-1.762.062-1.762 0-.062-.078-.108-.202-.108-.441.17-1.054.31-2.123.45-.031.092 0 .34.031.433.845.08 1.007.17 1.007 1.054v3.022c0 1.287-.17 1.333-1.115 1.41-.093.094-.093.42 0 .512a57.51 57.51 0 0 1 1.735-.03c.62 0 1.21.015 1.72.03.094-.093.094-.418 0-.511-.945-.062-1.115-.124-1.115-1.41Zm7.563.48c-.062-.139-.186-.2-.325-.216-.527.682-1.194 1.023-1.86 1.023-1.131 0-2.077-1.147-2.077-2.96 0-1.705.744-2.728 1.767-2.728.914 0 1.038.542 1.1 1.085.047.418.264.558.59.558.325 0 .759-.202.759-.682 0-.853-.884-1.473-2.372-1.473-1.534 0-3.177 1.38-3.177 3.58 0 2 1.116 3.38 3.069 3.38.93 0 1.751-.295 2.526-1.566Zm1.938-.48c0 1.287-.17 1.364-1.116 1.41-.093.094-.093.42 0 .512a59.46 59.46 0 0 1 1.736-.03c.62 0 1.209.015 1.72.03.093-.093.093-.418 0-.511-.945-.047-1.116-.124-1.116-1.41V1.781c0-1.007.062-1.627.062-1.627 0-.109-.062-.155-.201-.155-.388.155-1.55.372-2.17.418-.031.124 0 .372.093.465.899.062.992.109.992 1.271v6.773Zm3.254-1.286c0 1.58 1.054 3.332 3.255 3.332.998 0 1.748-.352 2.277-.868.694-.679 1.009-1.653 1.009-2.604 0-1.611-.884-3.487-3.255-3.487-1.02 0-1.861.419-2.429 1.085-.562.66-.857 1.562-.857 2.542Zm3.054-3.084c1.333 0 2.154 1.209 2.154 3.44 0 1.953-1.007 2.434-1.736 2.434-1.612 0-2.139-1.953-2.139-3.147 0-1.348.326-2.727 1.72-2.727Zm6.835 1.131c.403-.496 1.113-.96 1.565-.96.992 0 1.844 1.115 1.844 2.866 0 1.271-.449 2.852-2.185 2.852-.279 0-.821-.077-1.1-.327-.312-.279-.372-.369-.372-.928V6.37c0-.325.068-.46.248-.682Zm-.295-.573c-.023-.465-.05-.864-.124-1.023-.032-.072-.062-.124-.186-.124-.434.17-.837.31-1.906.45-.031.092 0 .34.03.433.838.078 1.008.155 1.008 1.054v6.618c0 1.286-.17 1.364-1.116 1.41-.093.093-.093.419 0 .512a59.46 59.46 0 0 1 1.736-.031c.62 0 1.364.015 1.876.03.093-.092.093-.418 0-.51-1.1-.063-1.271-.125-1.271-1.41v-1.675c0-.201.059-.181.217-.116.38.153.858.24 1.348.24.868 0 1.643-.263 2.278-.868.729-.713 1.147-1.674 1.147-2.929 0-1.643-1.162-3.162-2.743-3.162-.72 0-1.511.473-2.123 1.163-.087.097-.163.086-.17-.062Zm7.548 1.333c.295-1.752 1.38-1.891 1.752-1.891.588 0 1.286.325 1.286 1.627 0 .14-.062.214-.233.217l-2.805.047Zm4.06 2.929c-.573.589-1.022.837-1.921.837-.558 0-1.209-.326-1.69-1.116-.31-.512-.495-1.225-.495-2.124l4.122.031c.186 0 .295-.093.295-.263 0-1.302-.465-2.697-2.62-2.697-1.348 0-3.1 1.287-3.1 3.642 0 .868.218 1.705.73 2.294.526.62 1.255.992 2.37.992 1.178 0 2.015-.542 2.635-1.348-.046-.155-.14-.233-.325-.248Zm6.293-.48c0 .294-.029.415-.248.604-.573.496-1.069.744-1.456.744-.837 0-1.705-.915-1.705-2.852 0-1.116.217-1.736.45-2.061.48-.729 1.13-.775 1.44-.775.558 0 .946.201 1.256.558.217.248.263.356.263.837v2.944Zm-.17 1.142c.074-.06.222-.089.232.02.04.38.17.914.17.914a.353.353 0 0 0 .295 0c.341-.279.884-.511 1.83-.62.092-.093.092-.325 0-.418-.993-.078-1.132-.372-1.132-1.132v-7.02c0-1.008.062-1.628.062-1.628 0-.109-.062-.155-.202-.155-.387.155-1.55.372-2.17.418-.03.124 0 .372.093.465.806.047.992-.03.992 1.271v1.984c0 .109-.03.14-.14.14-.061 0-.697-.264-1.208-.264-1.023 0-1.705.341-2.325.93-.666.667-1.07 1.581-1.07 2.728 0 1.906.962 3.301 2.636 3.301.604 0 1.177-.31 1.937-.934Zm4.06-8.505c0 .403.373.806.745.806.434 0 .806-.417.806-.744 0-.372-.326-.806-.744-.806-.372 0-.806.372-.806.744Zm1.411 7.393V5.838c0-.77.062-1.762.062-1.762 0-.062-.077-.108-.201-.108-.442.17-1.054.31-2.124.45-.03.092 0 .34.031.433.845.08 1.008.17 1.008 1.054v3.022c0 1.287-.17 1.333-1.116 1.41-.093.094-.093.42 0 .512a57.51 57.51 0 0 1 1.736-.03c.62 0 1.208.015 1.72.03.093-.093.093-.418 0-.511-.945-.062-1.116-.124-1.116-1.41Zm5.936-1.72v2.046c0 .201-.093.31-.217.403-.403.325-.93.682-1.364.682-.775 0-1.116-.62-1.116-1.1 0-.698.326-1.411 1.473-1.706l1.224-.325Zm0 2.867c.093.48.257.9 1.039.9.593 0 1.151-.264 1.472-.574-.026-.19-.088-.321-.264-.419-.116.096-.376.248-.573.248-.45 0-.465-.604-.465-1.317V6.634c0-2.201-1.209-2.62-2.34-2.62-1.271 0-2.558.837-2.558 1.72 0 .373.186.559.543.559.45 0 .728-.326.728-.527a.697.697 0 0 0-.046-.28 1.071 1.071 0 0 1-.031-.31c0-.48.65-.65 1.24-.65.527 0 1.255.263 1.255 2.015 0 .108-.046.17-.093.186l-1.333.325c-1.488.372-2.557 1.193-2.557 2.247 0 1.271.868 1.674 1.953 1.674.54 0 1.007-.124 1.69-.65l.31-.249h.03Zm7.889-1.147c0 1.287-.17 1.364-1.116 1.41-.093.094-.093.42 0 .512a59.46 59.46 0 0 1 1.736-.03c.62 0 1.209.015 1.72.03.093-.093.093-.418 0-.511-.945-.047-1.116-.124-1.116-1.41V1.781c0-1.007.062-1.627.062-1.627 0-.109-.062-.155-.201-.155-.388.155-1.55.372-2.17.418-.03.124 0 .372.093.465.899.062.992.109.992 1.271v6.773Zm4.014-7.393c0 .403.372.806.744.806.434 0 .806-.417.806-.744 0-.372-.325-.806-.744-.806-.372 0-.806.372-.806.744Zm1.41 7.393V5.838c0-.77.063-1.762.063-1.762 0-.062-.078-.108-.202-.108-.442.17-1.054.31-2.123.45-.031.092 0 .34.03.433.845.08 1.008.17 1.008 1.054v3.022c0 1.287-.17 1.333-1.116 1.41-.093.094-.093.42 0 .512a57.51 57.51 0 0 1 1.736-.03c.62 0 1.21.015 1.72.03.094-.093.094-.418 0-.511-.945-.062-1.115-.124-1.115-1.41Zm4.092-3.735a1.95 1.95 0 0 1 1.318-.496c.945 0 1.72 1.147 1.72 2.65 0 1.767-.713 3.1-2.185 3.1-.48 0-.806-.34-1.116-.728V5.843c0-.325.063-.474.263-.65Zm-.108-.48c-.098.088-.155.062-.155-.078V1.782c0-1.007.062-1.627.062-1.627 0-.109-.062-.155-.202-.155-.387.155-1.55.372-2.17.418-.03.124 0 .372.093.465.806.047.992-.03.992 1.271v7.564c0 .604-.015.883-.062 1.1.078.124.155.186.341.186.095-.09.248-.234.368-.372.16-.186.252-.186.423-.043.355.299.817.384 1.364.384 1.58 0 3.425-1.441 3.425-3.906 0-1.89-1.395-3.053-2.743-3.053-.665 0-1.256.264-1.736.698Zm9.594 2.495v2.046c0 .201-.093.31-.217.403-.403.325-.93.682-1.364.682-.775 0-1.116-.62-1.116-1.1 0-.698.325-1.411 1.472-1.706l1.225-.325Zm0 2.867c.093.48.257.9 1.038.9.594 0 1.152-.264 1.472-.574-.026-.19-.088-.321-.263-.419-.116.096-.377.248-.574.248-.449 0-.464-.604-.464-1.317V6.634c0-2.201-1.21-2.62-2.34-2.62-1.272 0-2.558.837-2.558 1.72 0 .373.186.559.542.559.45 0 .729-.326.729-.527a.697.697 0 0 0-.047-.28 1.071 1.071 0 0 1-.03-.31c0-.48.65-.65 1.24-.65.526 0 1.255.263 1.255 2.015 0 .108-.047.17-.093.186l-1.333.325c-1.488.372-2.558 1.193-2.558 2.247 0 1.271.868 1.674 1.953 1.674.54 0 1.008-.124 1.69-.65l.31-.249h.03Zm5.27-4.804c-.027-.62-.052-1.019-.125-1.178-.032-.072-.062-.124-.186-.124-.434.17-.837.31-1.906.45-.031.092 0 .34.03.433.838.078 1.008.155 1.008 1.054v3.022c0 1.287-.186 1.349-1.147 1.41-.093.094-.093.42 0 .512a61.692 61.692 0 0 1 1.767-.03c.62 0 1.333.015 1.876.03.093-.093.093-.418 0-.511-1.085-.078-1.271-.124-1.271-1.41V6.772c0-.403.186-.76.372-1.038.17-.248.527-.76.713-.76.14 0 .279.037.4.197.117.155.29.361.56.361.373 0 .729-.387.729-.775 0-.296-.279-.744-.93-.744-.728 0-1.364.682-1.72 1.287-.093.17-.168.046-.17-.031Zm7.578 1.937v2.046c0 .201-.093.31-.217.403-.403.325-.93.682-1.364.682-.775 0-1.116-.62-1.116-1.1 0-.698.326-1.411 1.473-1.706l1.224-.325Zm0 2.867c.093.48.257.9 1.039.9.593 0 1.151-.264 1.472-.574-.026-.19-.088-.321-.263-.419-.117.096-.377.248-.574.248-.45 0-.465-.604-.465-1.317V6.634c0-2.201-1.209-2.62-2.34-2.62-1.271 0-2.558.837-2.558 1.72 0 .373.186.559.543.559.45 0 .728-.326.728-.527a.697.697 0 0 0-.046-.28 1.071 1.071 0 0 1-.031-.31c0-.48.65-.65 1.24-.65.527 0 1.255.263 1.255 2.015 0 .108-.046.17-.093.186l-1.333.325c-1.488.372-2.557 1.193-2.557 2.247 0 1.271.868 1.674 1.953 1.674.54 0 1.007-.124 1.69-.65l.31-.249h.03Z"/></svg>