<svg viewBox="0 0 117 13" xmlns="http://www.w3.org/2000/svg"><path d="M16.685 3.327c.018 0 .035.005.045.017l.008.022-.04 1.04h.04c.612-.91 1.32-1.04 1.743-1.04 1.29 0 2.23 1.27 2.234 2.65 0 1.05-.333 1.86-.93 2.457-.52.507-1.16.728-1.863.727-.41 0-.733-.076-1.034-.213l-.15-.073v2.248c0 .331.121.48.453.533l.106.013.253.026c.05.01.092.027.11.062l.01.042v.247l-.027.026-.707-.018a33.471 33.471 0 0 0-1.743.009l-.357.01-.026-.027v-.247c0-.049.022-.075.061-.091l.045-.013.253-.026c.387-.035.543-.157.568-.452l.004-.094V4.9c0-.6-.091-.757-.251-.798l-.042-.008-.572-.052-.027-.312.438-.07c.672-.112 1.08-.213 1.398-.332zm92.741 0c.027 0 .053.013.053.039l-.04 1.446V7.64c0 2.11-.346 3.4-.97 3.898-.493.403-.945.403-1.211.403-.24 0-.692-.182-.692-.572 0-.234.253-.39.4-.39.345 0 .478.156.585.286.08.117.16.208.305.208.538 0 .582-1.67.585-3.042V4.899c0-.6-.079-.768-.248-.8l-.044-.006-.572-.052-.026-.312.472-.075c.656-.111 1.09-.21 1.403-.327zM8.246.663l.027.026v.247c0 .065-.04.104-.107.104-.679.036-.923.34-1.103.759l-.04.098-2.7 7.03c-.08.195-.174.3-.32.3-.111 0-.203-.073-.27-.21l-.036-.09-2.58-7.082c-.2-.546-.32-.74-1.011-.805A.107.107 0 0 1 .008.98L0 .935V.689L.026.663.93.684c.158.003.32.005.52.005l.624-.006 1.024-.02.027.026v.247c0 .048-.022.075-.062.091l-.044.013-.226.026c-.58.072-.714.167-.613.492l.027.08L4.31 7.42h.053l2.075-5.692c.173-.459-.055-.626-.483-.668l-.315-.02a.107.107 0 0 1-.097-.06l-.01-.044V.689L5.56.663l1.45.026.286-.003.951-.023zm59.258 2.703c.665 0 1.05.117 1.463.324.06.312.097.638.124.98l.022.346-.359.013c-.279-1.07-.97-1.27-1.25-1.274-.505 0-1.05.156-1.05.871 0 .483.183.741.795.984l.149.056c1.08.39 1.94.858 1.942 1.897 0 1.29-1.4 1.64-2.022 1.637a4.63 4.63 0 0 1-1.197-.143.837.837 0 0 0-.253-.026c-.067 0-.173.013-.306.04 0-.438-.025-.932-.063-1.439l-.03-.381.359-.013c.04.325.173.923.479 1.221.133.143.492.377.984.377.466 0 1.16-.338 1.157-.974 0-.524-.28-.876-1.181-1.293l-.51-.227c-.752-.348-1.11-.66-1.115-1.521 0-.871.81-1.46 1.862-1.455zm46.423 0c.935 0 1.88.325 1.951 1.997l.004.199v2.055l.006.228c.02.442.112.783.526.784.32 0 .36-.208.44-.208.052 0 .145.104.146.195 0 .065-.452.585-1.104.584-.655 0-.885-.415-.979-.692l-.019-.061h-.027l-.266.208c-.585.442-.838.546-1.45.545-.93 0-1.65-.377-1.649-1.403 0-.837.8-1.5 1.97-1.832l.198-.052 1.144-.273c.04-.013.08-.065.08-.156 0-1.47-.625-1.73-1.077-1.728-.505 0-1.1.182-1.104.584 0 .143.013.221.026.26.027.052.04.143.04.234 0 .17-.2.43-.585.429-.306 0-.466-.143-.466-.455 0-.702 1.1-1.44 2.195-1.442zm-40.767 0c.935 0 1.88.325 1.951 1.997l.004.199v1.936c0 .598.014 1.13.532 1.13.32 0 .36-.207.44-.207.052 0 .145.104.146.195 0 .065-.452.585-1.104.584-.604 0-.847-.353-.955-.626l-.043-.127h-.027l-.266.208c-.585.442-.838.546-1.45.545-.93 0-1.65-.377-1.649-1.403 0-.837.8-1.5 1.97-1.832l.198-.052 1.144-.273c.04-.013.08-.065.08-.156 0-1.47-.625-1.73-1.077-1.728-.505 0-1.1.182-1.104.584l.005.142a.676.676 0 0 0 .013.09l.008.028c.027.052.04.143.04.234 0 .17-.2.43-.585.429-.306 0-.466-.143-.466-.455 0-.702 1.1-1.44 2.195-1.442zm-48.481 0c.935 0 1.88.325 1.951 1.997l.004.199v2.055c.004.548.048 1.01.532 1.012.32 0 .36-.208.44-.208.052 0 .145.104.146.195 0 .065-.452.585-1.104.584-.655 0-.885-.415-.979-.692l-.019-.061h-.027l-.266.208c-.585.442-.838.546-1.45.545-.93 0-1.65-.377-1.649-1.403 0-.837.8-1.5 1.97-1.832l.198-.052 1.144-.273c.04-.013.08-.065.08-.156 0-1.47-.625-1.73-1.077-1.728-.505 0-1.1.182-1.104.584 0 .114.008.187.018.232l.008.028c.027.052.04.143.04.234 0 .17-.2.43-.585.429-.306 0-.466-.143-.466-.455 0-.702 1.1-1.44 2.195-1.442zm6.507 0c.935 0 1.88.325 1.951 1.997l.004.199v2.055l.006.228c.02.442.112.783.526.784.319 0 .359-.208.439-.208.053 0 .146.104.146.195 0 .065-.452.585-1.104.584-.655 0-.885-.415-.978-.692l-.02-.061h-.026l-.266.208c-.585.442-.838.546-1.45.545-.93 0-1.65-.377-1.649-1.403 0-.837.8-1.5 1.97-1.832l.198-.052 1.144-.273c.04-.013.08-.065.08-.156 0-1.47-.625-1.73-1.078-1.728-.505 0-1.1.182-1.104.584 0 .143.014.221.027.26.027.052.04.143.04.234 0 .17-.2.43-.585.429-.306 0-.466-.143-.466-.455 0-.702 1.1-1.44 2.195-1.442zm9.62-1.885v2.015h1.462c.05 0 .085.014.1.044l.007.034v.26c0 .1-.137.153-.26.165l-.06.003h-1.25V7.29c0 .806.08 1.2.439 1.196.346 0 .612-.104.958-.364.133.013.213.09.24.22-.52.573-1.05.859-1.663.858-.574 0-.925-.32-.967-1.12l-.004-.166V4.002h-.865c-.027 0-.041-.005-.048-.02l-.005-.032v-.402c0-.04.013-.052.04-.052.842 0 1.08-.464 1.102-1.347l.002-.408.771-.26zM11.067 3.366c.935 0 1.88.325 1.951 1.997l.004.199v2.055l.006.228c.02.442.112.783.526.784.32 0 .36-.208.44-.208.053 0 .145.104.146.195 0 .065-.452.585-1.104.584-.604 0-.847-.353-.954-.626l-.044-.127h-.026l-.267.207c-.585.442-.838.546-1.45.546-.93 0-1.65-.377-1.649-1.403 0-.837.8-1.5 1.97-1.832l.198-.052 1.144-.273c.04-.013.08-.065.08-.156 0-1.47-.625-1.73-1.077-1.728-.505 0-1.1.182-1.104.584l.005.142a.677.677 0 0 0 .013.09l.008.028c.027.052.04.143.04.234 0 .17-.2.43-.585.429-.306 0-.466-.143-.466-.455 0-.702 1.1-1.44 2.195-1.442zm76.066 0c.935 0 1.88.325 1.951 1.997l.004.199v2.055c.004.548.048 1.01.532 1.012.32 0 .36-.208.44-.208.053 0 .145.104.146.195 0 .065-.452.585-1.104.584-.655 0-.885-.415-.979-.692l-.019-.061h-.026l-.267.208c-.585.442-.838.546-1.45.545-.93 0-1.65-.377-1.649-1.403 0-.837.8-1.5 1.97-1.832l.198-.052 1.144-.273c.04-.013.08-.065.08-.156 0-1.47-.625-1.73-1.077-1.728-.505 0-1.1.182-1.104.584 0 .114.008.187.018.232l.008.028c.027.052.04.143.04.234 0 .17-.2.43-.585.429-.306 0-.466-.143-.466-.455 0-.702 1.1-1.44 2.195-1.442zm-25.954 0c1.97 0 2.73 1.57 2.727 2.923 0 1.3-.865 2.91-2.753 2.911-1.78 0-2.73-1.47-2.727-2.794 0-1.78.984-3.04 2.753-3.04zm-10.874 0c1.76 0 2.17 1.17 2.168 2.26 0 .12-.064.194-.17.215l-.07.007h-3.497c0 1.94 1.14 2.72 1.888 2.716.732 0 1.2-.234 1.663-.728.146.013.226.078.266.208-.505.676-1.29 1.16-2.248 1.156-1.82 0-2.63-1.22-2.634-2.716 0-1.98 1.37-3.12 2.634-3.118zm5.29-1.885v2.015h1.464c.05 0 .084.014.099.044l.007.034v.26c0 .1-.137.153-.26.165l-.06.003h-1.25V7.29l.006.32c.023.589.126.876.434.876.346 0 .612-.104.957-.364.133.013.213.09.24.22-.52.573-1.05.859-1.663.858-.574 0-.925-.32-.967-1.12l-.004-.166V4.002h-.865c-.026 0-.04-.005-.048-.02l-.005-.032v-.402c0-.04.014-.052.04-.052.842 0 1.08-.464 1.102-1.347l.002-.16V1.74l.772-.26zm-10.1 1.846c.027 0 .054.013.054.039l-.026.713c-.005.175-.01.366-.012.55l-.002.27v3.236c0 .343.12.492.453.545l.106.014.252.025c.05.01.093.027.11.063l.01.041v.247l-.027.026-.857-.02a30.326 30.326 0 0 0-.566-.006l-.54.006-.843.02-.027-.026v-.247c0-.048.023-.075.062-.09l.045-.014.252-.025c.411-.048.547-.16.57-.462l.002-.097V4.899c0-.6-.09-.757-.25-.798l-.042-.008-.572-.052-.027-.311.478-.076c.663-.111 1.09-.21 1.398-.327zm58.415 0c.017 0 .035.005.045.017l.008.022-.04 1.17h.04c.346-.508.93-1.17 1.556-1.17.545 0 .745.26.745.597 0 .338-.226.546-.572.546a.71.71 0 0 1-.545-.234.38.38 0 0 0-.266-.117c-.146 0-.44.234-.759.676a.762.762 0 0 0-.152.354l-.007.1v2.847c0 .343.12.503.462.548l.11.01.385.026c.05 0 .093.022.11.06l.01.044v.247l-.026.026-.78-.018a37.672 37.672 0 0 0-1.817.008l-.356.01-.014-.026v-.247c0-.048.015-.075.051-.09l.043-.014.252-.026c.4-.035.545-.157.569-.461l.003-.097V4.899c0-.6-.09-.757-.25-.798l-.042-.008-.572-.052-.027-.312.47-.075c.65-.111 1.06-.21 1.366-.327zM92.776 0c.12 0 .173.04.173.13l-.02.366c-.008.168-.015.39-.018.657l-.002.341v4.497c.32-.073.929-.582 1.589-1.268l.208-.219c.178-.193.486-.623-.228-.658a.103.103 0 0 1-.1-.065l-.006-.038v-.247l.03-.014c.005-.004.01-.008.01-.012l.761.022c.121.002.254.004.422.004L96 3.492l.754-.022.053.026v.247c0 .052-.051.079-.106.094l-.04.01-.094.013c-.314.045-.802.22-1.141.49l-.136.12-1.01 1.092a.165.165 0 0 0-.054.13c0 .043.012.086.032.126l.035.056 1.556 2.248c.21.307.562.485.87.559l.128.026.093.013c.074.01.106.029.116.069l.003.035v.246l-.026.026-.56-.017c-.091-.003-.182-.005-.276-.006L95.9 9.07c-.266 0-.455.006-.63.014l-.26.012-.04-.026v-.246c0-.15-.032-.29-.226-.584l-.08-.118-.972-1.339c-.236-.335-.41-.444-.679-.464l-.105-.003v1.819c0 .41.176.516.434.562l.164.023c.04 0 .08.022.097.06l.01.044v.246l-.027.026-.812-.023h-.69l-1.065.023-.027-.026v-.246c0-.05.015-.076.05-.092l.043-.012.253-.026c.4-.036.545-.157.569-.462l.003-.097v-6.38c0-.788-.116-.988-.348-1.012l-.477-.028c-.03 0-.06-.015-.073-.038L91.007.65 90.98.338C91.512.3 92.44.13 92.776 0zm7.176 3.327c.027 0 .053.013.053.039l-.03.847-.008.416-.002 3.506c0 .343.121.492.453.545l.106.013.253.026c.05.01.092.027.11.063l.01.041v.247l-.027.026-.857-.02a30.326 30.326 0 0 0-.566-.006l-.541.006-.843.02-.026-.026v-.247c0-.048.022-.075.061-.091l.045-.013.253-.026c.41-.047.547-.159.569-.462l.003-.096V4.899c0-.6-.091-.757-.251-.798l-.042-.008-.572-.052-.026-.311.478-.076c.663-.111 1.09-.21 1.397-.327zm-21.031 0c.018 0 .035.005.045.017l.008.022-.04 1.156h.04c.851-.975 1.49-1.16 2.168-1.156 1.15 0 1.44.82 1.462 1.903l.001 2.866c0 .343.121.492.453.545l.106.013.253.026c.05.01.092.027.11.063l.01.041v.247l-.027.026-.84-.02a30.724 30.724 0 0 0-.583-.006l-.454.004-.863.022-.027-.026v-.247c0-.048.023-.075.062-.091l.045-.013.186-.026c.387-.059.543-.16.568-.462l.004-.096V5.328c0-.91-.16-1.34-.865-1.339-.543 0-1.02.19-1.626.842l-.143.159v3.145c0 .343.11.47.46.54l.112.018.186.026c.05.01.085.027.1.063l.007.041v.247l-.027.026-.88-.022a27.615 27.615 0 0 0-.476-.004l-.558.006-.826.02-.026-.026v-.247c0-.048.022-.075.061-.091l.045-.013.253-.026c.399-.035.545-.157.568-.461l.004-.097V4.899c0-.6-.091-.757-.251-.798l-.042-.008-.572-.052-.026-.312.47-.075c.65-.111 1.06-.21 1.365-.327zm-17.888.468c-1.06 0-1.48 1.18-1.476 2.313 0 1 .505 2.66 1.822 2.664.599 0 1.4-.351 1.396-2.067 0-1.91-.652-2.91-1.742-2.91zm-42.914.168c-.417 0-.994.321-1.31.913l-.073.153v3.17c.466.534.89.56 1.104.56 1.42 0 1.78-1.33 1.782-2.392 0-1.47-.692-2.4-1.503-2.404zm96.777 2.08-1.05.272c-.985.26-1.29.845-1.291 1.43 0 .403.319.923.984.922.372 0 .825-.286 1.17-.558a.402.402 0 0 0 .178-.246l.009-.092V6.043zm-82.741 0-1.05.272c-.985.26-1.29.845-1.291 1.43 0 .403.319.923.984.922.372 0 .825-.286 1.17-.558a.402.402 0 0 0 .178-.246l.009-.092V6.043zm-6.507 0-1.05.272c-.985.26-1.29.845-1.29 1.43 0 .403.318.923.984.922.372 0 .825-.286 1.17-.558a.402.402 0 0 0 .177-.246l.01-.092V6.043zm62.455 0-1.05.272c-.985.26-1.29.845-1.29 1.43 0 .403.318.923.984.922.372 0 .825-.286 1.17-.558a.402.402 0 0 0 .177-.246l.01-.092V6.043zm-76.066 0-1.05.272c-.985.26-1.29.845-1.29 1.43 0 .403.318.923.984.922.372 0 .825-.286 1.17-.558a.402.402 0 0 0 .177-.246l.01-.092V6.043zm62.092 0-1.05.272c-.985.26-1.29.845-1.29 1.43 0 .403.318.923.984.922.372 0 .825-.286 1.17-.558a.402.402 0 0 0 .177-.246l.01-.092V6.043zM50.305 3.807l-.094.003c-.359.018-1.14.174-1.4 1.347l-.035.184h2.447c.133 0 .186-.065.186-.182 0-1.09-.625-1.35-1.104-1.352zM44.937 1.04a.64.64 0 0 1 .639.623.64.64 0 0 1-.639.624.64.64 0 0 1-.638-.624.64.64 0 0 1 .638-.623zm54.456 0a.64.64 0 0 1 .639.623c0 .338-.293.624-.639.624s-.638-.286-.638-.624a.64.64 0 0 1 .638-.623zm9.471 0a.64.64 0 0 1 .639.623.64.64 0 0 1-.639.624.64.64 0 0 1-.638-.624.64.64 0 0 1 .638-.623z" fill="#000" fill-rule="nonzero"/></svg>