<?xml version="1.0" encoding="UTF-8"?>
<svg width="120px" height="14px" viewBox="0 0 120 14" version="1.1" xmlns="http://www.w3.org/2000/svg" xmlns:xlink="http://www.w3.org/1999/xlink">
    <title>oc-tagline</title>
    <g id="Page-1" stroke="none" stroke-width="1" fill="none" fill-rule="evenodd">
        <path d="M2.01535868,10.4588874 L5.20247256,10.4588874 C5.61153774,10.4588874 6.99007305,10.4888556 6.99007305,10.4888556 C7.13991384,9.73965162 7.28975464,8.76568646 7.37965911,7.98651433 C7.23281532,7.9160892 7.07098698,7.88462254 6.88518449,7.91159393 C6.5855029,8.99044765 6.03109196,9.87450833 4.44277955,9.87450833 L3.49878254,9.87450833 C2.91440345,9.87450833 2.64469002,9.58981083 2.64469002,8.82562278 L2.64469002,2.6222139 C2.64469002,1.37853531 2.89941937,1.30361491 3.94830493,1.25866267 C4.0382094,1.16875819 4.0382094,0.854092527 3.94830493,0.76418805 C3.27402135,0.77917213 2.57126812,0.794156209 2.0003746,0.794156209 C1.45944924,0.794156209 0.75669601,0.77917213 0.0674283574,0.76418805 C-0.0224761191,0.854092527 -0.0224761191,1.16875819 0.0674283574,1.25866267 C1.11631392,1.30361491 1.37104327,1.37853531 1.37104327,2.6222139 L1.37104327,8.63082974 C1.37104327,9.87450833 1.11631392,9.94942873 0.0674283574,9.99438097 C-0.0224761191,10.0842854 -0.0224761191,10.3989511 0.0674283574,10.4888556 C0.651807455,10.4738715 1.51039525,10.4588874 2.01535868,10.4588874 Z M9.62727102,8.8817842e-16 C9.16276456,8.8817842e-16 8.83311482,0.314665668 8.83311482,0.734219891 C8.83311482,1.20621839 9.22270088,1.34856715 9.49241431,1.39351939 C9.77711182,1.42348754 10.0318412,1.51339202 10.0318412,1.85802585 C10.0318412,2.17269152 9.49241431,2.86195917 8.71324218,3.0567522 C8.71324218,3.20659299 8.74321034,3.31148155 8.84809889,3.41637011 C9.74714366,3.25154523 10.6162203,2.53230942 10.6162203,1.48342386 C10.6162203,0.584379097 10.2266342,8.8817842e-16 9.62727102,8.8817842e-16 Z M13.5680839,6.23337704 C13.8527814,4.54017606 14.901667,4.40531935 15.2612849,4.40531935 C15.8306799,4.40531935 16.5049635,4.71998502 16.5049635,5.97864769 C16.5049635,6.1135044 16.4450272,6.1854278 16.2802023,6.1884248 L13.5680839,6.23337704 Z M17.4939127,9.06536805 C16.9395018,9.63476306 16.5049635,9.87450833 15.6358869,9.87450833 C15.09646,9.87450833 14.4671287,9.55984267 14.0026222,8.79565462 C13.7029406,8.30118 13.5231317,7.61191234 13.5231317,6.74283574 L17.5088968,6.7728039 C17.6887058,6.7728039 17.7935943,6.68289942 17.7935943,6.51807455 C17.7935943,5.25941187 17.3440719,3.91084473 15.2612849,3.91084473 C13.95767,3.91084473 12.264469,5.15452332 12.264469,7.43210339 C12.264469,8.27121184 12.4742461,9.08035213 12.9687207,9.64974714 C13.4781794,10.2491103 14.1824312,10.6087282 15.2612849,10.6087282 C16.4000749,10.6087282 17.2092152,10.0842854 17.8085784,9.30511332 C17.7636261,9.15527252 17.6737217,9.08035213 17.4939127,9.06536805 Z M21.1650122,5.094587 C21.0736092,5.19947556 20.9896985,5.23543726 20.9852032,5.094587 C20.9702191,4.69001686 20.9357557,4.1101328 20.8653306,3.95579697 C20.8338639,3.88687011 20.8053943,3.83592433 20.6855216,3.83592433 C20.2659674,4.0007492 19.8763813,4.13560592 18.8424799,4.27046263 C18.8125117,4.36036711 18.8424799,4.60011238 18.872448,4.69001686 C19.6815883,4.76493725 19.8464132,4.83985765 19.8464132,5.70893426 L19.8464132,8.63082974 C19.8464132,9.85952426 19.6965724,9.91946057 18.7975276,9.99438097 C18.7076232,10.0842854 18.7076232,10.3989511 18.7975276,10.4888556 C19.24705,10.4738715 19.8464132,10.4588874 20.4457764,10.4588874 C21.0451395,10.4588874 21.4946619,10.4738715 21.9441843,10.4888556 C22.0340888,10.3989511 22.0340888,10.0842854 21.9441843,9.99438097 C21.1799963,9.91946057 21.0301555,9.85952426 21.0301555,8.63082974 L21.0301555,6.17344072 C21.0301555,5.85877505 21.1650122,5.6789661 21.2848848,5.54410938 C21.8542798,4.98969845 22.5285634,4.6600487 23.1129425,4.6600487 C23.4126241,4.6600487 23.7272898,4.85484173 23.9070987,5.19947556 C24.0569395,5.49915715 24.0869077,5.90372729 24.0869077,6.35324967 L24.0869077,8.63082974 C24.0869077,9.85952426 23.9370669,9.91946057 23.1578947,9.99438097 C23.0829743,10.0842854 23.0829743,10.3989511 23.1578947,10.4888556 C23.6074171,10.4738715 24.0869077,10.4588874 24.6862708,10.4588874 C25.285634,10.4588874 25.8250609,10.4738715 26.2745833,10.4888556 C26.3495037,10.3989511 26.3495037,10.0842854 26.2745833,9.99438097 C25.4354748,9.91946057 25.2706499,9.85952426 25.2706499,8.63082974 L25.2706499,6.39820191 C25.2706499,5.57407754 25.2107136,4.85484173 24.8660798,4.39033527 C24.6113504,4.06068552 24.146844,3.88087657 23.6224012,3.88087657 C22.8881813,3.88087657 22.0535681,4.0756696 21.1650122,5.094587 Z M32.4929762,9.09533621 C32.4330399,8.96047949 32.3131673,8.90054317 32.1783105,8.88555909 C31.6688518,9.54485859 31.0245364,9.87450833 30.380221,9.87450833 C29.2863832,9.87450833 28.3723544,8.76568646 28.3723544,7.01254917 C28.3723544,5.36430043 29.0915902,4.37535119 30.0805394,4.37535119 C30.9646001,4.37535119 31.0844727,4.89979397 31.1444091,5.42423675 C31.1893613,5.82880689 31.3991384,5.96366361 31.7138041,5.96366361 C32.0284698,5.96366361 32.448024,5.76887058 32.448024,5.30436411 C32.448024,4.48023975 31.5939314,3.88087657 30.1554598,3.88087657 C28.672036,3.88087657 27.0837235,5.21445964 27.0837235,7.34219891 C27.0837235,9.27514516 28.1625773,10.6087282 30.0505713,10.6087282 C30.949616,10.6087282 31.7437722,10.3240307 32.4929762,9.09533621 Z M34.2910657,1.48342386 C34.2910657,1.87300993 34.6506836,2.26259599 35.0103016,2.26259599 C35.4298558,2.26259599 35.7894737,1.85952389 35.7894737,1.54336018 C35.7894737,1.18374227 35.474808,0.76418805 35.0702379,0.76418805 C34.71062,0.76418805 34.2910657,1.12380596 34.2910657,1.48342386 Z M35.654617,8.63082974 L35.654617,5.6445029 C35.654617,4.89979397 35.7145533,3.94081289 35.7145533,3.94081289 C35.7145533,3.88087657 35.6396329,3.83592433 35.5197603,3.83592433 C35.092714,4.0007492 34.5008429,4.13560592 33.4669414,4.27046263 C33.4369732,4.36036711 33.4669414,4.60011238 33.4969095,4.69001686 C34.3135419,4.76643575 34.4708747,4.85484173 34.4708747,5.70893426 L34.4708747,8.63082974 C34.4708747,9.87450833 34.3060498,9.91946057 33.392021,9.99438097 C33.3021165,10.0842854 33.3021165,10.3989511 33.392021,10.4888556 C33.8864956,10.4738715 34.4708747,10.4588874 35.0702379,10.4588874 C35.669601,10.4588874 36.2389961,10.4738715 36.7334707,10.4888556 C36.8233752,10.3989511 36.8233752,10.0842854 36.7334707,9.99438097 C35.8194418,9.93444465 35.654617,9.87450833 35.654617,8.63082974 Z M42.9668477,9.09533621 C42.9069114,8.96047949 42.7870388,8.90054317 42.6521821,8.88555909 C42.1427234,9.54485859 41.4984079,9.87450833 40.8540925,9.87450833 C39.7602547,9.87450833 38.8462259,8.76568646 38.8462259,7.01254917 C38.8462259,5.36430043 39.5654617,4.37535119 40.5544109,4.37535119 C41.4384716,4.37535119 41.5583443,4.89979397 41.6182806,5.42423675 C41.6632328,5.82880689 41.8730099,5.96366361 42.1876756,5.96366361 C42.5023413,5.96366361 42.9218955,5.76887058 42.9218955,5.30436411 C42.9218955,4.48023975 42.067803,3.88087657 40.6293313,3.88087657 C39.1459075,3.88087657 37.5575951,5.21445964 37.5575951,7.34219891 C37.5575951,9.27514516 38.6364488,10.6087282 40.5244428,10.6087282 C41.4234875,10.6087282 42.2176438,10.3240307 42.9668477,9.09533621 Z M44.8398577,8.63082974 C44.8398577,9.87450833 44.6750328,9.94942873 43.7610039,9.99438097 C43.6710995,10.0842854 43.6710995,10.3989511 43.7610039,10.4888556 C44.2854467,10.4738715 44.8398577,10.4588874 45.4392208,10.4588874 C46.038584,10.4588874 46.607979,10.4738715 47.1024536,10.4888556 C47.1923581,10.3989511 47.1923581,10.0842854 47.1024536,9.99438097 C46.1884248,9.94942873 46.0235999,9.87450833 46.0235999,8.63082974 L46.0235999,1.72316913 C46.0235999,0.749203971 46.0835362,0.149840794 46.0835362,0.149840794 C46.0835362,0.0449522382 46.0235999,8.8817842e-16 45.8887432,8.8817842e-16 C45.5141412,0.149840794 44.3903353,0.359617906 43.7909721,0.404570144 C43.7610039,0.52444278 43.7909721,0.76418805 43.8808766,0.854092527 C44.7499532,0.914028844 44.8398577,0.958981083 44.8398577,2.08278704 L44.8398577,8.63082974 Z M47.9865143,7.38715115 C47.9865143,8.91552725 49.0054317,10.6087282 51.133171,10.6087282 C52.0981456,10.6087282 52.823375,10.2685897 53.3343322,9.76961978 C54.0056192,9.11331705 54.3097958,8.17081855 54.3097958,7.25229444 C54.3097958,5.69395018 53.4557033,3.88087657 51.1631392,3.88087657 C50.1771867,3.88087657 49.3635511,4.28544671 48.815134,4.92976213 C48.2712118,5.568084 47.9865143,6.44015715 47.9865143,7.38715115 Z M50.938378,4.40531935 C52.2270088,4.40531935 53.021165,5.57407754 53.021165,7.73178498 C53.021165,9.61977898 52.0471999,10.0842854 51.3429481,10.0842854 C49.7846039,10.0842854 49.2751452,8.19629144 49.2751452,7.04251733 C49.2751452,5.73890242 49.5898108,4.40531935 50.938378,4.40531935 Z M57.546357,5.49915715 C57.9359431,5.0196666 58.6222139,4.57014422 59.059749,4.57014422 C60.0187301,4.57014422 60.8428545,5.64899794 60.8428545,7.34219891 C60.8428545,8.57089343 60.4083162,10.0992695 58.7300993,10.0992695 C58.4603858,10.0992695 57.9359431,10.0243491 57.6662296,9.78310536 C57.3650495,9.51339193 57.3066117,9.42648445 57.3066117,8.88555909 L57.3066117,6.15845664 C57.3066117,5.84379097 57.3725416,5.7134293 57.546357,5.49915715 Z M57.2616595,4.94474621 C57.2391834,4.49522382 57.212212,4.1101328 57.1417869,3.95579697 C57.1103202,3.88687011 57.0818505,3.83592433 56.9619779,3.83592433 C56.5424237,4.0007492 56.1528376,4.13560592 55.1189361,4.27046263 C55.088968,4.36036711 55.1189361,4.60011238 55.1489043,4.69001686 C55.9580446,4.76493725 56.1228695,4.83985765 56.1228695,5.70893426 L56.1228695,12.1071362 C56.1228695,13.3508148 55.9580446,13.4257352 55.0440157,13.4706874 C54.9541113,13.5605919 54.9541113,13.8752575 55.0440157,13.965162 C55.5684585,13.9501779 56.1228695,13.9351939 56.7222326,13.9351939 C57.3215958,13.9351939 58.0408316,13.9501779 58.5353062,13.965162 C58.6252107,13.8752575 58.6252107,13.5605919 58.5353062,13.4706874 C57.4714366,13.4107511 57.3066117,13.3508148 57.3066117,12.1071362 L57.3066117,10.4888556 C57.3066117,10.2940626 57.3635513,10.3135419 57.5163888,10.376475 C57.8834988,10.5248173 58.3465067,10.6087282 58.8200037,10.6087282 C59.6591122,10.6087282 60.4083162,10.3539989 61.0226634,9.76961978 C61.7269152,9.08035213 62.1314853,8.1513392 62.1314853,6.93762877 C62.1314853,5.34931635 61.0076793,3.88087657 59.4793032,3.88087657 C58.7825435,3.88087657 58.0183555,4.33789099 57.4264844,5.00468252 C57.3425734,5.09908204 57.2691515,5.08859346 57.2616595,4.94474621 Z M65.847537,0.404570144 C65.7876007,0.389586065 65.6976962,0.374601985 65.6227758,0.374601985 C65.1133171,0.374601985 64.7686833,0.629331335 64.6488106,0.719235812 L64.6188425,0.884060686 L66.3270275,2.51732534 C66.5667728,2.74208653 66.6716614,2.81700693 66.7615658,2.81700693 C66.8814385,2.81700693 66.986327,2.72710245 66.986327,2.65218206 C66.986327,2.5472935 66.9713429,2.44240494 66.8964226,2.29256415 L65.847537,0.404570144 Z M64.5589062,6.23337704 C64.8436037,4.54017606 65.8924892,4.40531935 66.2521071,4.40531935 C66.8215022,4.40531935 67.4957857,4.71998502 67.4957857,5.97864769 C67.4957857,6.1135044 67.4358494,6.1854278 67.2710245,6.1884248 L64.5589062,6.23337704 Z M68.484735,9.06536805 C67.930324,9.63476306 67.4957857,9.87450833 66.6267091,9.87450833 C66.0872823,9.87450833 65.4579509,9.55984267 64.9934445,8.79565462 C64.6937629,8.30118 64.5139539,7.61191234 64.5139539,6.74283574 L68.499719,6.7728039 C68.679528,6.7728039 68.7844166,6.68289942 68.7844166,6.51807455 C68.7844166,5.25941187 68.3348942,3.91084473 66.2521071,3.91084473 C64.9484922,3.91084473 63.2552913,5.15452332 63.2552913,7.43210339 C63.2552913,8.27121184 63.4650684,9.08035213 63.959543,9.64974714 C64.4690017,10.2491103 65.1732534,10.6087282 66.2521071,10.6087282 C67.3908972,10.6087282 68.2000375,10.0842854 68.7994006,9.30511332 C68.7544484,9.15527252 68.6645439,9.08035213 68.484735,9.06536805 Z M74.5682712,8.60086158 C74.5682712,8.88555909 74.5398016,9.00243496 74.3285259,9.18524068 C73.774115,9.66473122 73.2946245,9.90447649 72.9200225,9.90447649 C72.1108822,9.90447649 71.2717737,9.02041581 71.2717737,7.14740588 C71.2717737,6.06855216 71.4815509,5.46918899 71.706312,5.15452332 C72.1708185,4.45027159 72.8001498,4.40531935 73.0998314,4.40531935 C73.6392583,4.40531935 74.0138603,4.60011238 74.3135419,4.94474621 C74.523319,5.18449148 74.5682712,5.28938003 74.5682712,5.7538865 L74.5682712,8.60086158 Z M74.4034463,9.70518842 C74.4753697,9.64675037 74.6177185,9.61977898 74.6282075,9.72466754 C74.6656677,10.0917775 74.7930324,10.6087282 74.7930324,10.6087282 C74.912905,10.6536805 74.9878254,10.6461884 75.0777299,10.6087282 C75.4073797,10.3390148 75.9318224,10.1142536 76.8458513,10.009365 C76.9357558,9.91946057 76.9357558,9.69469938 76.8458513,9.60479491 C75.8868702,9.52987451 75.7520135,9.245177 75.7520135,8.51095711 L75.7520135,1.72316913 C75.7520135,0.749203971 75.8119498,0.149840794 75.8119498,0.149840794 C75.8119498,0.0449522382 75.7520135,8.8817842e-16 75.6171568,8.8817842e-16 C75.2425548,0.149840794 74.1187488,0.359617906 73.5193857,0.404570144 C73.4894175,0.52444278 73.5193857,0.76418805 73.6092901,0.854092527 C74.3884623,0.899044765 74.5682712,0.824124368 74.5682712,2.08278704 L74.5682712,4.0007492 C74.5682712,4.10563776 74.5383031,4.13560592 74.4334145,4.13560592 C74.3734782,4.13560592 73.7591309,3.88087657 73.2646563,3.88087657 C72.2757071,3.88087657 71.6164076,4.21052632 71.0170444,4.77992133 C70.372729,5.42423675 69.9831429,6.30829743 69.9831429,7.41711931 C69.9831429,9.26016108 70.9121558,10.6087282 72.5304364,10.6087282 C73.1148155,10.6087282 73.6692264,10.3090466 74.4034463,9.70518842 Z M78.3292751,1.48342386 C78.3292751,1.87300993 78.6888931,2.26259599 79.048511,2.26259599 C79.4680652,2.26259599 79.8276831,1.85952389 79.8276831,1.54336018 C79.8276831,1.18374227 79.5130174,0.76418805 79.1084473,0.76418805 C78.7488294,0.76418805 78.3292751,1.12380596 78.3292751,1.48342386 Z M79.6928264,8.63082974 L79.6928264,5.6445029 C79.6928264,4.89979397 79.7527627,3.94081289 79.7527627,3.94081289 C79.7527627,3.88087657 79.6778423,3.83592433 79.5579697,3.83592433 C79.1309234,4.0007492 78.5390523,4.13560592 77.5051508,4.27046263 C77.4751826,4.36036711 77.5051508,4.60011238 77.5351189,4.69001686 C78.3517513,4.76643575 78.5090841,4.85484173 78.5090841,5.70893426 L78.5090841,8.63082974 C78.5090841,9.87450833 78.3442592,9.91946057 77.4302304,9.99438097 C77.3403259,10.0842854 77.3403259,10.3989511 77.4302304,10.4888556 C77.924705,10.4738715 78.5090841,10.4588874 79.1084473,10.4588874 C79.7078105,10.4588874 80.2772055,10.4738715 80.7716801,10.4888556 C80.8615846,10.3989511 80.8615846,10.0842854 80.7716801,9.99438097 C79.8576512,9.93444465 79.6928264,9.87450833 79.6928264,8.63082974 Z M85.4317288,6.96759693 L85.4317288,8.94549541 C85.4317288,9.14028844 85.3418243,9.245177 85.2219517,9.33508148 C84.8323656,9.64974714 84.3229069,9.99438097 83.9033527,9.99438097 C83.1541487,9.99438097 82.824499,9.39501779 82.824499,8.93051133 C82.824499,8.25622776 83.1391646,7.5669601 84.2479865,7.2822626 L85.4317288,6.96759693 Z M85.4317288,9.73965162 C85.5216333,10.2041581 85.6804646,10.6087282 86.4356621,10.6087282 C87.0095522,10.6087282 87.548979,10.3539989 87.8591497,10.0543173 C87.8336765,9.87001329 87.7737402,9.74414689 87.6044203,9.64974714 C87.4920397,9.74264862 87.2403074,9.88949241 87.0500094,9.88949241 C86.6154711,9.88949241 86.600487,9.30511332 86.600487,8.61584566 L86.600487,6.41318599 C86.600487,4.28544671 85.4317288,3.88087657 84.337891,3.88087657 C83.1091965,3.88087657 81.8655179,4.69001686 81.8655179,5.54410938 C81.8655179,5.90372729 82.0453268,6.08353624 82.3899607,6.08353624 C82.824499,6.08353624 83.0942124,5.76887058 83.0942124,5.57407754 C83.0942124,5.46918899 83.0792283,5.36430043 83.0492602,5.30436411 C83.0342761,5.25941187 83.019292,5.1695074 83.019292,5.00468252 C83.019292,4.54017606 83.6486233,4.37535119 84.2180184,4.37535119 C84.7274771,4.37535119 85.4317288,4.63008054 85.4317288,6.32328151 C85.4317288,6.42817007 85.3867765,6.48810639 85.3418243,6.50309047 L84.0531935,6.81775613 C82.6147219,7.17737404 81.5808204,7.97153025 81.5808204,8.99044765 C81.5808204,10.2191422 82.4199288,10.6087282 83.4688144,10.6087282 C83.9902604,10.6087282 84.4427795,10.4888556 85.102079,9.97939689 L85.4017606,9.73965162 L85.4317288,9.73965162 Z M93.0586252,8.63082974 C93.0586252,9.87450833 92.8938003,9.94942873 91.9797715,9.99438097 C91.889867,10.0842854 91.889867,10.3989511 91.9797715,10.4888556 C92.5042143,10.4738715 93.0586252,10.4588874 93.6579884,10.4588874 C94.2573516,10.4588874 94.8267466,10.4738715 95.3212212,10.4888556 C95.4111257,10.3989511 95.4111257,10.0842854 95.3212212,9.99438097 C94.4071924,9.94942873 94.2423675,9.87450833 94.2423675,8.63082974 L94.2423675,1.72316913 C94.2423675,0.749203971 94.3023038,0.149840794 94.3023038,0.149840794 C94.3023038,0.0449522382 94.2423675,8.8817842e-16 94.1075108,8.8817842e-16 C93.7329088,0.149840794 92.6091028,0.359617906 92.0097397,0.404570144 C91.9797715,0.52444278 92.0097397,0.76418805 92.0996441,0.854092527 C92.9687207,0.914028844 93.0586252,0.958981083 93.0586252,2.08278704 L93.0586252,8.63082974 Z M96.9395018,1.48342386 C96.9395018,1.87300993 97.2991197,2.26259599 97.6587376,2.26259599 C98.0782918,2.26259599 98.4379097,1.85952389 98.4379097,1.54336018 C98.4379097,1.18374227 98.1232441,0.76418805 97.7186739,0.76418805 C97.359056,0.76418805 96.9395018,1.12380596 96.9395018,1.48342386 Z M98.303053,8.63082974 L98.303053,5.6445029 C98.303053,4.89979397 98.3629893,3.94081289 98.3629893,3.94081289 C98.3629893,3.88087657 98.2880689,3.83592433 98.1681963,3.83592433 C97.74115,4.0007492 97.1492789,4.13560592 96.1153774,4.27046263 C96.0854093,4.36036711 96.1153774,4.60011238 96.1453456,4.69001686 C96.9619779,4.76643575 97.1193107,4.85484173 97.1193107,5.70893426 L97.1193107,8.63082974 C97.1193107,9.87450833 96.9544859,9.91946057 96.040457,9.99438097 C95.9505525,10.0842854 95.9505525,10.3989511 96.040457,10.4888556 C96.5349316,10.4738715 97.1193107,10.4588874 97.7186739,10.4588874 C98.3180371,10.4588874 98.8874321,10.4738715 99.3819067,10.4888556 C99.4718112,10.3989511 99.4718112,10.0842854 99.3819067,9.99438097 C98.4678779,9.93444465 98.303053,9.87450833 98.303053,8.63082974 Z M102.903165,10.6087282 C103.487544,10.6087282 104.191796,10.3090466 104.926016,9.70968346 C105.000937,9.64974714 105.140288,9.61977898 105.150777,9.72466754 C105.188237,10.1067616 105.315602,10.6087282 105.315602,10.6087282 C105.435475,10.6536805 105.502903,10.6461884 105.6003,10.6087282 C105.929949,10.3390148 106.454392,10.1142536 107.368421,10.009365 C107.458326,9.91946057 107.458326,9.69469938 107.368421,9.60479491 C106.40944,9.52987451 106.274583,9.245177 106.274583,8.51095711 L106.274583,5.63401386 C106.274583,5.18449148 106.33452,4.09065368 106.33452,4.09065368 C106.33452,4.04570144 106.289567,4.0007492 106.214647,4.0007492 C106.139727,4.01573328 105.914965,4.03071736 105.690204,4.03071736 C105.210714,4.03071736 104.671287,4.01573328 104.161828,4.0007492 C104.071924,4.09065368 104.071924,4.40531935 104.161828,4.49522382 C104.896048,4.54017606 105.090841,4.71998502 105.090841,5.70893426 L105.090841,8.60086158 C105.090841,8.88555909 105.060873,9.00543173 104.851096,9.18524068 C104.296685,9.66473122 103.72729,9.90447649 103.352688,9.90447649 C102.903165,9.90447649 102.153961,9.69469938 102.153961,8.36111631 L102.153961,5.63401386 C102.153961,5.18449148 102.213898,4.09065368 102.213898,4.09065368 C102.213898,4.04570144 102.168945,4.0007492 102.094025,4.0007492 C102.019105,4.01573328 101.794344,4.03071736 101.569582,4.03071736 C101.090092,4.03071736 100.550665,4.01573328 100.041206,4.0007492 C99.9513017,4.09065368 99.9513017,4.40531935 100.041206,4.49522382 C100.760442,4.55516014 100.970219,4.71998502 100.970219,5.69395018 L100.970219,8.57089343 C100.970219,9.60479491 101.419742,10.6087282 102.903165,10.6087282 Z M110.245364,5.094587 C110.219891,4.49522382 110.195917,4.1101328 110.125492,3.95579697 C110.094025,3.88687011 110.065555,3.83592433 109.945683,3.83592433 C109.526128,4.0007492 109.136542,4.13560592 108.102641,4.27046263 C108.072673,4.36036711 108.102641,4.60011238 108.132609,4.69001686 C108.941749,4.76493725 109.106574,4.83985765 109.106574,5.70893426 L109.106574,8.63082974 C109.106574,9.87450833 108.926765,9.93444465 107.997752,9.99438097 C107.907848,10.0842854 107.907848,10.3989511 107.997752,10.4888556 C108.522195,10.4738715 109.106574,10.4588874 109.705937,10.4588874 C110.305301,10.4588874 110.994568,10.4738715 111.519011,10.4888556 C111.608916,10.3989511 111.608916,10.0842854 111.519011,9.99438097 C110.470125,9.91946057 110.290317,9.87450833 110.290317,8.63082974 L110.290317,6.5480427 C110.290317,6.15845664 110.470125,5.81382281 110.649934,5.54410938 C110.814759,5.30436411 111.159393,4.80988949 111.339202,4.80988949 C111.474059,4.80988949 111.608916,4.84585119 111.725791,5.00018748 C111.83967,5.15002828 112.007492,5.34931635 112.268215,5.34931635 C112.627833,5.34931635 112.972467,4.97471437 112.972467,4.60011238 C112.972467,4.31391637 112.702753,3.88087657 112.073422,3.88087657 C111.36917,3.88087657 110.754823,4.54017606 110.410189,5.12455516 C110.320285,5.28938003 110.248361,5.1695074 110.245364,5.094587 Z M117.572579,6.96759693 L117.572579,8.94549541 C117.572579,9.14028844 117.482675,9.245177 117.362802,9.33508148 C116.973216,9.64974714 116.463757,9.99438097 116.044203,9.99438097 C115.294999,9.99438097 114.965349,9.39501779 114.965349,8.93051133 C114.965349,8.25622776 115.280015,7.5669601 116.388837,7.2822626 L117.572579,6.96759693 Z M117.572579,9.73965162 C117.662484,10.2041581 117.821315,10.6087282 118.576512,10.6087282 C119.150403,10.6087282 119.689829,10.3539989 120,10.0543173 C119.974527,9.87001329 119.914591,9.74414689 119.745271,9.64974714 C119.63289,9.74264862 119.381158,9.88949241 119.19086,9.88949241 C118.756321,9.88949241 118.741337,9.30511332 118.741337,8.61584566 L118.741337,6.41318599 C118.741337,4.28544671 117.572579,3.88087657 116.478741,3.88087657 C115.250047,3.88087657 114.006368,4.69001686 114.006368,5.54410938 C114.006368,5.90372729 114.186177,6.08353624 114.530811,6.08353624 C114.965349,6.08353624 115.235063,5.76887058 115.235063,5.57407754 C115.235063,5.46918899 115.220079,5.36430043 115.190111,5.30436411 C115.175126,5.25941187 115.160142,5.1695074 115.160142,5.00468252 C115.160142,4.54017606 115.789474,4.37535119 116.358869,4.37535119 C116.868327,4.37535119 117.572579,4.63008054 117.572579,6.32328151 C117.572579,6.42817007 117.527627,6.48810639 117.482675,6.50309047 L116.194044,6.81775613 C114.755572,7.17737404 113.721671,7.97153025 113.721671,8.99044765 C113.721671,10.2191422 114.560779,10.6087282 115.609665,10.6087282 C116.131111,10.6087282 116.58363,10.4888556 117.242929,9.97939689 L117.542611,9.73965162 L117.572579,9.73965162 Z" id="oc-tagline" fill="#000000" fill-rule="nonzero"></path>
    </g>
</svg>