<svg xmlns="http://www.w3.org/2000/svg" xml:space="preserve" viewBox="0 0 122.54 18.898"><path d="M6.742 15.545c-1.34-.169-2.65-.662-3.669-1.38-.522-.37-1.36-1.2-1.726-1.727A7.405 7.405 0 0 1 .023 7.593c.128-1.63.52-2.83 1.313-4.017.993-1.49 2.39-2.56 4.103-3.147.992-.341 1.83-.462 2.913-.421 1.23.047 1.97.189 2.911.56.634.25 1.16.395 1.583.44.313.032.265-.104.399 1.11.08.722.287 2.08.364 2.387.028.11.024.113-.347.182a3.275 3.275 0 0 1-.38.059 28.588 28.588 0 0 1-.123-.38c-.304-.957-.975-1.99-1.655-2.555-1.14-.944-3.41-1.27-5.057-.717-1.89.632-3.29 2.4-3.767 4.75-.393 1.96-.178 3.69.668 5.385.363.725.752 1.27 1.284 1.81 1.21 1.22 2.55 1.78 4.27 1.773 1.24 0 2.35-.325 3.145-.92l.226-.17-.012-1.962c-.013-2.2-.01-2.18-.33-2.393-.204-.135-.726-.266-1.204-.302-.377-.029-.384-.031-.428-.158a.983.983 0 0 1-.007-.555l.038-.1 2.503.006c2.83.01 2.56-.03 2.568.37.004.261-.069.42-.192.42-.172 0-.525.137-.679.263-.277.229-.29.328-.276 2.173l.012 1.632.142.176c.078.097.13.196.116.22-.052.083-.71.56-1.102.8-1.1.674-2.3 1.08-3.664 1.237-.681.08-1.97.077-2.615-.005zm97.326-1.349V5.974c0-.467.233-.734.918-.734h.233c.084 0 .133-.05.134-.133v-.4l-.034-.034s-1.67.034-2.268.034c-.65 0-2.27-.034-2.268-.034l-.033.034v.4c0 .083.066.133.133.133h.234c.667 0 .917.2.917.734v8.222c0 .534-.25.734-.917.734h-.234c-.067 0-.133.05-.133.15v.384l.033.033s1.62-.033 2.268-.033c.6 0 2.27.033 2.268.033l.034-.033v-.384c0-.1-.05-.15-.134-.15h-.233c-.684 0-.917-.267-.918-.734zm-12.88.017V5.941c0-.534.433-.584 1.033-.584 3.29 0 4.44 2.85 4.437 5.37 0 3.27-1.88 4.07-4.02 4.07-1.3 0-1.45-.1-1.45-.584zm-3.286 1.25h5.237c2.48 0 5.72-1.05 5.72-5.153 0-3.09-2.64-5.62-6.02-5.62h-4.937l-.033.033v.384c0 .083.066.133.133.133h.233c.667 0 .917.2.918.734v8.206c0 .534-.25.734-.918.733h-.233c-.067 0-.133.05-.133.15v.367zm-10.225 0h8.139c.117-.9.284-1.93.45-2.818l-.717-.166c-.284 1.23-.884 2.22-1.801 2.218h-2.552c-.15 0-.233-.1-.234-.484v-4.136h1.885c.417 0 .484.5.584 1.184 0 .067.1.167.267.167h.35l.1-.15c-.033-.284-.117-.951-.117-1.551 0-.617.083-1.28.117-1.551l-.1-.167h-.35c-.167 0-.267.117-.267.183-.1.667-.167 1.18-.584 1.184h-1.885V5.941c0-.35.084-.484.234-.484h2.168c1.12 0 1.53 1.23 1.768 2.085l.667-.15a21.433 21.433 0 0 1-.35-2.702h-7.772l-.05.033v.384c0 .083.066.133.133.133h.234c.667 0 .917.2.917.734v8.205c0 .534-.25.734-.917.734h-.234c-.066 0-.133.05-.133.15v.367zm-7.333-9.305c0-.584.117-.917 1-.918.968 0 2.08.4 2.086 2.435 0 1.73-.884 2.47-2.252 2.469-.25 0-.6-.017-.834-.05zm-2.034 7.821c0 .634-.25.834-.918.918l-.233.033c-.067.017-.133.05-.134.15v.384l.034.033c.617-.017 1.63-.033 2.268-.033.634 0 1.82.016 2.435.033l.033-.033v-.384c0-.1-.033-.133-.133-.15l-.317-.033c-.667-.067-1-.284-1-.918v-3.218c.232.033.516.05.916.05 3.29 0 4.29-1.82 4.287-3.42 0-1.07-.717-2.84-4.07-2.834-1.35 0-3.44.117-4.42.116l-.033.034v.4c0 .067.05.133.184.133l.533.034c.367.016.567.267.567.85zm-4.56.217V5.974c0-.467.233-.734.917-.734h.234c.083 0 .133-.05.133-.133v-.4l-.033-.034s-1.67.034-2.268.034c-.65 0-2.27-.034-2.269-.034l-.033.034v.4c0 .083.067.133.134.133h.233c.667 0 .917.2.917.734v8.222c0 .534-.25.734-.917.734h-.233c-.067 0-.133.05-.134.15v.384l.033.033s1.62-.033 2.269-.033c.6 0 2.27.033 2.268.033l.033-.033v-.384c0-.1-.05-.15-.133-.15h-.234c-.684 0-.917-.267-.917-.734zm-7.584-8.222v4.853c0 1.8-.317 4.12-2.769 4.12-.617 0-1.22-.35-1.701-.817-.767-.785-.767-2.07-.767-3.17V5.975c0-.467.217-.734.9-.734h.234c.083 0 .133-.05.133-.133v-.4l-.033-.017s-1.67.017-2.252.017c-.667 0-2.28-.017-2.284-.017l-.034.017v.4c0 .083.067.133.15.133h.234c.65 0 .9.2.9.734v5.537c0 3.17 2.55 4.12 4.17 4.12 3.69 0 4.34-2.12 4.336-5.087v-4.57c0-.467.233-.734.917-.734h.234c.083 0 .133-.05.133-.133v-.4l-.033-.017s-1.27.017-1.868.017c-.65 0-1.87-.017-1.868-.017l-.033.017v.4c0 .083.066.133.15.133h.233c.65 0 .917.2.918.734zm-23.512 8.222V5.974c0-.467.233-.734.917-.734h.233c.084 0 .133-.05.134-.133v-.4l-.034-.034s-1.67.034-2.268.034c-.65 0-2.27-.034-2.268-.034l-.033.034v.4c0 .083.066.133.133.133h.234c.667 0 .917.2.917.734v8.222c0 .534-.25.734-.917.734h-.234c-.067 0-.133.05-.133.15v.384l.033.033s1.62-.033 2.268-.033c.6 0 2.27.033 2.268.033l.034-.033v-.384c0-.1-.05-.15-.134-.15h-.233c-.684 0-.917-.267-.917-.734zM19.833 5.974c0-.667.05-.734.133-.734.05 0 .05-.117.05-.25v-.283l-.033-.034s-.584.034-1.168.034c-.667 0-2.28-.034-2.285-.034l-.033.034v.4c0 .083.067.133.15.133h.234c.65 0 .9.183.9.734v5.57c0 3.17 2.55 4.12 4.17 4.12 3.69 0 4.35-2.12 4.336-5.087V5.974c0-.5.233-.734.917-.734h.234c.083 0 .133-.05.133-.133v-.4l-.033-.034s-1.27.034-1.868.034c-.65 0-.984-.034-.984-.034l-.033.034v.317c0 .1 0 .217.083.216.133 0 .334.217.333.734v4.887c0 1.8-.317 4.12-2.768 4.12-.617 0-1.22-.35-1.701-.818-.784-.801-.767-2.17-.767-3.169zM20.3 4.14c0 .5.4.9.9.9s.884-.4.884-.9-.384-.901-.884-.901-.9.4-.9.9zm2.334 0c0 .5.4.9.901.9s.884-.4.884-.9-.384-.901-.884-.901-.9.4-.9.9zm18.561 1.002c1.86 0 3.47 1.71 3.472 5.052 0 2.86-1.27 4.59-2.929 4.59-1.94 0-3.55-1.79-3.554-4.886 0-3.36 1.61-4.76 3.011-4.755zm-3.208 12.291a1.503 1.503 0 0 0-.28.379l.642.493c.181-.263.378-.51.592-.74.23-.165.477-.23.61-.23 1.53 0 2.57 1.56 4.705 1.563 1.04 0 1.73-.428 2.37-1.35l-.28-.361c-.363.444-.955.609-1.432.608-1.45 0-2.78-1.35-4.59-1.349-.067 0-.116.017-.165.017.675-.51 1.35-.856 1.826-1.02 2.98-.263 4.85-2.47 4.854-5.562 0-3.27-2.53-5.41-5.446-5.413-3.13 0-5.36 2.48-5.364 5.71 0 2.95 1.93 4.87 4.508 5.232a8.764 8.764 0 0 0-2.55 2.024zm73.133-2.649.665.047a.18.18 0 0 1 .183.182v.436l-.046.047s-2.5-.047-3.049-.047c-.597 0-2.06.047-2.064.047l-.047-.047v-.436c0-.114.069-.183.184-.182 1.01-.069 1.58-.253 2.223-1.72l5.09-11.924c.25-.596.435-.826.78-.826.32 0 .436.23.618.689l4.7 12.426c.322.895.78 1.24 1.698 1.33l.251.022c.116 0 .23.068.23.184v.434l-.068.047s-1.77-.047-2.66-.047c-.803 0-3.05.047-3.05.047l-.022-.047v-.434c0-.116.046-.184.163-.184l.642-.047c.87-.068 1.19-.345.963-.985l-1.399-3.876h-4.77c-.55 0-.688.091-.802.388l-1.33 3.325c-.23.577.069 1.08.917 1.15zm5.617-5.825-2.224-6.12h-.046l-2.292 5.823c-.092.23.068.298.572.298h3.99z"/></svg>