<?xml version="1.0" encoding="UTF-8"?>
<svg width="120px" height="13px" viewBox="0 0 120 13" version="1.1" xmlns="http://www.w3.org/2000/svg" xmlns:xlink="http://www.w3.org/1999/xlink">
    <title>wikipedia-tagline-nl</title>
    <g id="Page-1" stroke="none" stroke-width="1" fill="none" fill-rule="evenodd">
        <path d="M92.7183305,3.46663711 C92.7363859,3.46663711 92.7544413,3.47265558 92.7644721,3.48469251 L92.7724967,3.50726176 L92.7318721,4.59058586 L92.7724967,4.59058586 C93.3954081,3.64267728 94.1131061,3.50726176 94.5464358,3.50726176 C95.8599662,3.50726176 96.8214164,4.83433378 96.8214164,6.26973821 C96.8214164,7.36660386 96.4828776,8.20618003 95.8735078,8.82909139 C95.3453873,9.35721189 94.6953928,9.58741826 93.9776906,9.58741826 C93.5598415,9.58741826 93.2315278,9.5078271 92.9245333,9.36570003 L92.7724967,9.28950413 L92.7724967,11.6321925 C92.7724967,11.9734396 92.8931528,12.1282195 93.2233088,12.1853784 L93.3412419,12.2009376 L93.5985314,12.2280207 C93.6493122,12.2381769 93.6924759,12.2559502 93.7108839,12.2927663 L93.7204053,12.3363532 L93.7204053,12.5936426 L93.6933222,12.6207257 L92.9739277,12.6021061 C92.7386431,12.597028 92.5016657,12.5936426 92.2443762,12.5936426 C91.8787551,12.5936426 91.5512185,12.6012597 91.1989263,12.6107812 L90.8360549,12.6207257 L90.8089718,12.5936426 L90.8089718,12.3363532 C90.8089718,12.2855723 90.8318232,12.2576429 90.8718131,12.2411391 L90.9173042,12.2280207 L91.1745937,12.2009376 C91.5685297,12.1640061 91.7274471,12.0375437 91.7530855,11.7299847 L91.7568804,11.6321925 L91.7568804,5.10516481 C91.7568804,4.48017014 91.6645735,4.31670999 91.5012613,4.27395888 L91.4589663,4.26558863 L90.8766796,4.21142243 L90.8495965,3.8864252 L91.2945866,3.81395282 C91.9791871,3.69609117 92.3910772,3.590768 92.7183305,3.46663711 Z M74.0751186,3.61559417 L74.1157433,3.64267728 L74.1157433,3.89996675 C74.1157433,3.9676745 74.0615771,3.99475761 73.9667862,4.00829916 C73.5112986,4.04523066 73.2460625,4.4514772 73.0591666,4.82008005 L72.782034,5.40558034 C72.3774678,6.27738853 71.9922507,7.15564667 71.5081346,8.30050299 L70.6084815,10.4540775 C70.202235,11.4290692 69.687655,12.5936426 68.7262059,12.5936426 C68.4689164,12.5936426 67.9407959,12.4446856 67.9407959,11.9571897 C67.9407959,11.5509432 68.2387101,11.4290692 68.4553749,11.4290692 C68.6584982,11.4290692 68.7939137,11.5103185 68.875163,11.6186509 C69.0105785,11.7540665 69.1053693,11.8488573 69.2407849,11.8488573 C69.384166,11.8488573 69.6759888,11.2550907 69.9543168,10.6152835 L70.2834843,9.83116618 C70.3647336,9.66866756 70.3918167,9.53325205 70.3918167,9.41137809 C70.3918167,9.31465273 70.3296361,9.10047513 70.2546246,8.88728453 L70.1616103,8.63950967 L68.4553749,4.67183517 C68.2387101,4.15725622 68.0762115,4.04892381 67.6293403,4.00829916 C67.5684033,3.99814299 67.5227005,3.98036971 67.5036577,3.94926646 L67.4939248,3.9135083 L67.4939248,3.64267728 L67.5210079,3.61559417 L67.8339684,3.62863419 C68.0686888,3.63665881 68.351557,3.64267728 68.6584982,3.64267728 C68.9834954,3.64267728 69.3084931,3.63665881 69.6375026,3.62863419 L70.1345272,3.61559417 L70.1616103,3.65621883 L70.1616103,3.89996675 C70.1616103,3.95413295 70.1096108,3.99096597 70.0541446,4.00353253 L70.0126533,4.00829916 C69.53483,4.04602205 69.3372339,4.14212561 69.4740756,4.52429444 L69.5116159,4.61766896 L71.0011865,8.11138918 L72.5042987,4.67183517 C72.7624909,4.20239473 72.4917803,4.07877541 72.1417342,4.02771072 L71.9761782,4.00829916 C71.922012,4.00829916 71.8678458,3.99096597 71.848346,3.94936633 L71.8407627,3.9135083 L71.8407627,3.65621883 L71.8678458,3.61559417 L72.6322397,3.63704399 C72.7897551,3.64051063 72.9511703,3.64267728 73.1407516,3.64267728 L73.5359482,3.63704399 L73.5359482,3.63704399 L74.0751186,3.61559417 Z M37.3536703,3.46663711 C37.3807534,3.46663711 37.4078365,3.48017866 37.4078365,3.50726176 L37.3677294,5.01402916 L37.3677294,5.01402916 L37.3672118,7.96243211 C37.3672118,10.1561634 37.0151304,11.5103185 36.3786786,12.0248975 C35.8776412,12.4446856 35.4172274,12.4446856 35.1463974,12.4446856 C34.9026495,12.4446856 34.4422368,12.2551038 34.4422368,11.8488573 C34.4422368,11.6051094 34.6995262,11.4426108 34.8484833,11.4426108 C35.2005626,11.4426108 35.3359791,11.6051094 35.4443116,11.7405249 C35.5255609,11.8623989 35.6068102,11.9571897 35.7557672,11.9571897 C36.3039283,11.9571897 36.347782,10.2150312 36.3512904,8.78691975 L36.3515955,5.10516481 C36.3515955,4.48017014 36.2708261,4.30517163 36.0986389,4.27129618 L35.4713947,4.21142243 L35.4443116,3.8864252 L35.9249701,3.80753625 C36.5932163,3.69225502 37.0323662,3.58851107 37.3536703,3.46663711 Z M109.231029,-1.86517468e-14 C109.352903,-1.86517468e-14 109.407069,0.0406246536 109.407069,0.135415512 L109.386757,0.51627164 C109.378052,0.726649311 109.369347,1.01786175 109.367037,1.37391967 L109.366445,7.8811828 C109.366445,8.50989768 109.413149,8.62486269 109.647506,8.65976278 L110.354978,8.73430053 L110.395603,9.04575621 C109.639984,9.17981757 109.081801,9.33581624 108.760542,9.54336759 L108.662284,9.61450136 L108.350828,9.61450136 L108.377912,8.66659277 L108.350828,8.65305122 C107.727917,9.15408862 107.05084,9.58741826 106.509178,9.58741826 C105.0467,9.58741826 104.234197,8.36867865 104.234197,6.70306785 C104.234197,5.70099306 104.559194,4.90204154 105.141481,4.31975484 C105.683143,3.80517589 106.278971,3.50726176 107.172714,3.50726176 C107.409691,3.50726176 107.895494,3.60057151 108.221893,3.74183211 L108.350828,3.80517589 L108.350828,1.82810941 C108.350828,1.00658864 108.232867,0.798470044 107.996943,0.774372101 L107.511252,0.744785317 C107.480784,0.744785317 107.450315,0.729551071 107.436985,0.704795423 L107.430003,0.677077561 L107.40292,0.352080331 C107.958124,0.311455678 108.892491,0.135415512 109.231029,-1.86517468e-14 Z M25.5937112,3.61559417 L25.6207943,3.64267728 L25.6207943,3.8864252 C25.6207943,3.95413295 25.5530865,3.99475761 25.4718372,4.00829916 C25.1184027,4.04486135 24.8307802,4.16917279 24.6188413,4.5687975 L24.5510117,4.71245982 L22.6822777,9.30304568 C22.5874868,9.53325205 22.4926959,9.61450136 22.3572804,9.61450136 C22.2063889,9.61450136 22.1251395,9.55480799 22.0538391,9.40983838 L22.0187416,9.33012878 L20.1770907,4.65829362 C20.0064671,4.21954736 19.7480943,4.08792348 19.4217159,4.026499 L19.3104314,4.00829916 C19.2562652,3.99746592 19.202099,3.98663268 19.1825992,3.94806634 L19.1750159,3.9135083 L19.1750159,3.64267728 L19.2156405,3.61559417 L19.989014,3.63866496 C20.1078788,3.64117266 20.2357711,3.64267728 20.3937555,3.64267728 L20.6892864,3.64116062 L20.6892864,3.64116062 L21.7479106,3.61559417 L21.8020768,3.64267728 L21.8020768,3.89996675 C21.8020768,3.96496619 21.7500773,3.99529927 21.7084776,4.00483252 L21.4499965,4.03538226 C21.0888885,4.08052076 21.0663192,4.24790938 21.1393558,4.4826923 L21.192707,4.63121051 L22.3572804,7.58326868 L22.5874868,8.20618003 L22.8176932,7.62389333 L24.0228912,4.65829362 C24.2260145,4.16318065 24.1553965,4.06082557 23.576724,4.01649153 L23.4541461,4.00829916 C23.4033653,4.00829916 23.3678187,3.97783067 23.3532192,3.9454579 L23.3458137,3.9135083 L23.3458137,3.64267728 L23.3728968,3.61559417 L24.1431406,3.63704399 C24.2238483,3.63877731 24.3061809,3.64018563 24.3933885,3.64116062 L24.8687507,3.64116062 L24.8687507,3.64116062 L25.5937112,3.61559417 Z M87.1966359,3.50726176 C89.2007834,3.50726176 89.9726539,5.14578946 89.9726539,6.55411079 C89.9726539,7.90826591 89.092451,9.58741826 87.1695528,9.58741826 C85.4221932,9.58741826 84.4659238,8.16847174 84.3974859,6.82998334 L84.3935348,6.67598475 C84.3935348,4.82079223 85.3956117,3.50726176 87.1966359,3.50726176 Z M117.711478,3.50726176 C119.498963,3.50726176 119.918751,4.72600137 119.918751,5.86349167 C119.918751,5.98762256 119.852924,6.06473417 119.744779,6.08698996 L119.675003,6.09369804 L116.113575,6.09369804 C116.113575,8.11138918 117.278148,8.92388225 118.036475,8.92388225 C118.78126,8.92388225 119.255215,8.68013433 119.729169,8.16555538 C119.878126,8.17909693 119.959375,8.24680469 120,8.3822202 C119.485421,9.08638086 118.68647,9.58741826 117.711478,9.58741826 C115.856285,9.58741826 115.030251,8.31451244 115.030251,6.75723405 C115.030251,4.69891827 116.42503,3.50726176 117.711478,3.50726176 Z M100.767862,3.50726176 C102.555347,3.50726176 102.975135,4.72600137 102.975135,5.86349167 C102.975135,5.98762256 102.909308,6.06473417 102.801163,6.08698996 L102.731387,6.09369804 L99.1699588,6.09369804 C99.1699588,8.11138918 100.334532,8.92388225 101.092859,8.92388225 C101.837644,8.92388225 102.311599,8.68013433 102.785553,8.16555538 C102.93451,8.17909693 103.015759,8.24680469 103.056384,8.3822202 C102.541805,9.08638086 101.742854,9.58741826 100.767862,9.58741826 C98.9126694,9.58741826 98.0866348,8.31451244 98.0866348,6.75723405 C98.0866348,4.69891827 99.4814145,3.50726176 100.767862,3.50726176 Z M12.6411685,3.50726176 C14.4286511,3.50726176 14.8484413,4.72600137 14.8484413,5.86349167 C14.8484413,5.98762256 14.7826136,6.06473417 14.6744696,6.08698996 L14.6046934,6.09369804 L11.0432654,6.09369804 C11.0432654,8.11138918 12.2078388,8.92388225 12.9661657,8.92388225 C13.71095,8.92388225 14.1849053,8.68013433 14.6588596,8.16555538 C14.8078156,8.17909693 14.889066,8.24680469 14.9296906,8.3822202 C14.4151117,9.08638086 13.6161591,9.58741826 12.6411685,9.58741826 C10.785977,9.58741826 9.95994133,8.31451244 9.95994133,6.75723405 C9.95994133,4.69891827 11.3547221,3.50726176 12.6411685,3.50726176 Z M51.4148441,3.50726176 C53.2023268,3.50726176 53.622117,4.72600137 53.622117,5.86349167 C53.622117,5.98762256 53.55629,6.06473417 53.4481457,6.08698996 L53.3783691,6.09369804 L49.8169411,6.09369804 C49.8169411,8.11138918 50.9815155,8.92388225 51.7398414,8.92388225 C52.4846256,8.92388225 52.958581,8.68013433 53.4325353,8.16555538 C53.5814923,8.17909693 53.6627416,8.24680469 53.7033663,8.3822202 C53.1887873,9.08638086 52.3898348,9.58741826 51.4148441,9.58741826 C49.5596537,9.58741826 48.733617,8.31451244 48.733617,6.75723405 C48.733617,4.69891827 50.1283978,3.50726176 51.4148441,3.50726176 Z M77.6688349,3.50726176 C78.9688228,3.50726176 79.686526,4.17079777 79.686526,4.88849999 C79.686526,5.28120497 79.3344457,5.47078669 79.0500731,5.47078669 C78.7657005,5.47078669 78.6032019,5.33537118 78.5625773,4.9968324 L78.5384828,4.82430986 C78.4705368,4.41348776 78.3002088,3.9676745 77.6011271,3.9676745 C76.7073858,3.9676745 76.0167656,4.84787533 76.0167656,6.33744597 C76.0167656,7.92180746 76.7750935,8.99159 77.8177919,8.99159 C78.4000776,8.99159 79.02299,8.63950967 79.4427781,8.03013987 C79.564652,8.04368142 79.6729845,8.09784762 79.7271507,8.21972158 C79.0500741,9.33012878 78.3323698,9.58741826 77.5198778,9.58741826 C75.8136444,9.58741826 74.8657338,8.3822202 74.8657338,6.63536009 C74.8657338,4.71245982 76.2063484,3.50726176 77.6688349,3.50726176 Z M64.8743502,3.50726176 C66.1743381,3.50726176 66.8920413,4.17079777 66.8920413,4.88849999 C66.8920413,5.28120497 66.539961,5.47078669 66.2555884,5.47078669 C65.9712159,5.47078669 65.8087172,5.33537118 65.7680926,4.9968324 L65.7439981,4.82430986 C65.6760521,4.41348776 65.5057241,3.9676745 64.8066425,3.9676745 C63.9129011,3.9676745 63.222281,4.84787533 63.222281,6.33744597 C63.222281,7.92180746 63.9806089,8.99159 65.0233073,8.99159 C65.6055929,8.99159 66.2285053,8.63950967 66.6482934,8.03013987 C66.7701674,8.04368142 66.8784998,8.09784762 66.932666,8.21972158 C66.2555884,9.33012878 65.5378852,9.58741826 64.7253931,9.58741826 C63.0191587,9.58741826 62.0712491,8.3822202 62.0712491,6.63536009 C62.0712491,4.71245982 63.4118637,3.50726176 64.8743502,3.50726176 Z M41.8206082,3.50726176 C43.6080919,3.50726176 44.0278811,4.72600137 44.0278811,5.86349167 C44.0278811,5.98762256 43.9620541,6.06473417 43.8539098,6.08698996 L43.7841332,6.09369804 L40.2227052,6.09369804 C40.2227052,8.11138918 41.3872796,8.92388225 42.1456055,8.92388225 C42.8903908,8.92388225 43.3643461,8.68013433 43.8382994,8.16555538 C43.9872564,8.17909693 44.0685057,8.24680469 44.1091304,8.3822202 C43.5945525,9.08638086 42.7955989,9.58741826 41.8206082,9.58741826 C39.9654178,9.58741826 39.1393811,8.31451244 39.1393811,6.75723405 C39.1393811,4.69891827 40.5341629,3.50726176 41.8206082,3.50726176 Z M56.4674552,3.46663711 C56.4855106,3.46663711 56.503566,3.47265558 56.5135968,3.48469251 L56.5216214,3.50726176 L56.4809968,4.71245982 L56.5216214,4.71245982 C57.3882797,3.69684348 58.0382752,3.50726176 58.7288943,3.50726176 C59.8946432,3.50726176 60.1931223,4.36214578 60.2168733,5.49121755 L60.2184649,8.47701106 C60.2184649,8.83401559 60.3415699,8.98957556 60.6793457,9.04543064 L60.7872101,9.05929776 L61.0444995,9.08638086 C61.0952803,9.09653703 61.138444,9.11431031 61.1568521,9.1511264 L61.1663735,9.19471327 L61.1663735,9.45200275 L61.1392904,9.47908585 L60.2842222,9.45763603 C60.1931146,9.45590271 60.1001655,9.45449439 60.002233,9.4535194 L59.6903444,9.45200275 C59.5143042,9.45200275 59.3668517,9.45350736 59.2284268,9.45601506 L58.3497308,9.47908585 L58.3226477,9.45200275 L58.3226477,9.19471327 C58.3226477,9.14393246 58.3454991,9.11600301 58.385489,9.09949924 L58.4309801,9.08638086 L58.6205619,9.05929776 C59.014497,8.99774525 59.1734151,8.89142729 59.1990537,8.57756038 L59.2028486,8.47701106 L59.2028486,5.552036 C59.2028486,4.60412741 59.0403489,4.15725622 58.3226477,4.15725622 C57.7693786,4.15725622 57.2861655,4.35575049 56.6670103,5.03463425 L56.5216214,5.19995566 L56.5216214,8.47701106 C56.5216214,8.83401559 56.6335351,8.96719283 56.9896239,9.03932626 L57.1039081,9.05929776 L57.2934898,9.08638086 C57.3442707,9.09653703 57.3798172,9.11431031 57.3944167,9.1511264 L57.4018223,9.19471327 L57.4018223,9.45200275 L57.3747392,9.47908585 L56.4779871,9.45601506 C56.3335439,9.45350736 56.1785684,9.45200275 55.9935009,9.45200275 L55.6962367,9.4535194 L55.6962367,9.4535194 L54.5851796,9.47908585 L54.5580965,9.45200275 L54.5580965,9.19471327 C54.5580965,9.14393246 54.5809479,9.11600301 54.6209378,9.09949924 L54.6664289,9.08638086 L54.9237184,9.05929776 C55.329964,9.02236626 55.4788099,8.89590384 55.5025154,8.57817082 L55.5060051,8.47701106 L55.5060051,5.10516481 C55.5060051,4.48017014 55.4136973,4.31670999 55.2503858,4.27395888 L55.208091,4.26558863 L54.6258043,4.21142243 L54.5987212,3.8864252 L55.076938,3.80753625 C55.7382252,3.69225502 56.1572306,3.58851107 56.4674552,3.46663711 Z M28.2156117,3.46663711 C28.2336671,3.46663711 28.2517225,3.47265558 28.2617533,3.48469251 L28.2697779,3.50726176 L28.2291533,4.72600137 L28.2697779,4.72600137 C28.6218572,4.19788088 29.2176865,3.50726176 29.8541394,3.50726176 C30.409342,3.50726176 30.6124663,3.77809279 30.6124663,4.13017312 C30.6124663,4.48225345 30.3822589,4.69891827 30.0301796,4.69891827 C29.7593486,4.69891827 29.6103915,4.59058586 29.474976,4.45517035 C29.3937267,4.37392104 29.2989358,4.33329639 29.204145,4.33329639 C29.0551879,4.33329639 28.7572727,4.57704431 28.4322765,5.03745705 C28.3564439,5.13495622 28.2979444,5.26712176 28.2775779,5.40622057 L28.2697779,5.51141134 L28.2697779,8.47701106 C28.2697779,8.83401559 28.3928829,9.00076692 28.7408326,9.04848283 L28.8520646,9.05929776 L29.2447696,9.08638086 C29.2955504,9.08638086 29.3387141,9.10923223 29.3571222,9.14922212 L29.3666436,9.19471327 L29.3666436,9.45200275 L29.3395605,9.47908585 L28.5456866,9.46046621 C28.2731628,9.45538813 27.9989464,9.45200275 27.7416574,9.45200275 C27.3760355,9.45200275 27.0484987,9.45961987 26.6962069,9.46914127 L26.3333361,9.47908585 L26.3197946,9.45200275 L26.3197946,9.19471327 C26.3197946,9.14393246 26.3350288,9.11600301 26.3712101,9.09949924 L26.4145854,9.08638086 L26.6718749,9.05929776 C27.0781205,9.02236626 27.2269664,8.89590384 27.2506719,8.57817082 L27.2541616,8.47701106 L27.2541616,5.10516481 C27.2541616,4.48017014 27.1618547,4.31670999 26.9985425,4.27395888 L26.9562475,4.26558863 L26.3739608,4.21142243 L26.3468777,3.8864252 L26.8250945,3.80753625 C27.4863817,3.69225502 27.9053871,3.58851107 28.2156117,3.46663711 Z M82.3467294,-1.86517468e-14 C82.4686033,-1.86517468e-14 82.5227695,0.0406246536 82.5227695,0.135415512 L82.5024572,0.51627164 C82.4937519,0.726649311 82.4850466,1.01786175 82.4827371,1.37391967 L82.4821449,8.47701106 C82.4821449,8.83401559 82.582868,8.98957556 82.9369215,9.04543064 L83.05089,9.05929776 L83.3758873,9.08638086 C83.4165119,9.08638086 83.4571366,9.10923223 83.4749099,9.14922212 L83.4842197,9.19471327 L83.4842197,9.45200275 L83.4571366,9.47908585 L82.4950784,9.45700148 C82.3853177,9.45493851 82.2739701,9.45340451 82.1502447,9.45261106 L81.6165472,9.45405998 L81.6165472,9.45405998 L80.4779953,9.47908585 L80.4644537,9.45200275 L80.4644537,9.19471327 C80.4644537,9.14393246 80.479688,9.10838588 80.5158693,9.0937864 L80.5592446,9.08638086 L80.8842418,9.05929776 C81.2904884,9.02236626 81.4393335,8.89590384 81.4630389,8.57817082 L81.4665285,8.47701106 L81.4665285,1.82810941 C81.4665285,1.00658864 81.3485666,0.798470044 81.1126427,0.774372101 L80.6269524,0.744785317 C80.5964839,0.744785317 80.5660154,0.729551071 80.5526854,0.704795423 L80.5457031,0.677077561 L80.51862,0.352080331 C81.0738236,0.311455678 82.0081906,0.135415512 82.3467294,-1.86517468e-14 Z M33.3458742,3.46663711 C33.3729573,3.46663711 33.4000404,3.48017866 33.4000404,3.50726176 L33.3699481,4.38997029 C33.3639296,4.62669666 33.3594158,4.87947229 33.3594158,5.10516481 L33.3594158,8.47701106 C33.3594158,8.83401559 33.4825217,8.98957556 33.8202968,9.04543064 L33.9281609,9.05929776 L34.1854504,9.08638086 C34.2362312,9.09653703 34.2793949,9.11431031 34.297803,9.1511264 L34.3073244,9.19471327 L34.3073244,9.45200275 L34.2802413,9.47908585 L33.407624,9.45763603 C33.3155414,9.45590271 33.2229171,9.45449439 33.1275845,9.4535194 L32.5496314,9.4535194 L32.5496314,9.4535194 L31.422974,9.47908585 L31.3958909,9.45200275 L31.3958909,9.19471327 C31.3958909,9.14393246 31.4187422,9.11600301 31.4587321,9.09949924 L31.5042233,9.08638086 L31.7615127,9.05929776 C32.1800698,9.01005576 32.3188427,8.89366556 32.340615,8.5778656 L32.3437994,8.47701106 L32.3437994,5.10516481 C32.3437994,4.48017014 32.2514925,4.31670999 32.0881803,4.27395888 L32.0458853,4.26558863 L31.4635986,4.21142243 L31.4365155,3.8864252 L31.9232175,3.80753625 C32.5985145,3.69225502 33.0356505,3.58851107 33.3458742,3.46663711 Z M3.95413316,0.690619112 C6.55410787,0.690619112 8.62596833,2.76247645 8.62596833,5.28120497 C8.62596833,8.61242657 6.10723772,9.47908585 4.19788108,9.47908585 L2.64737347,9.4655443 C2.32152967,9.45961987 2.07862786,9.45369544 1.84609433,9.4523069 L1.42110466,9.4535194 L1.42110466,9.4535194 L0.0270831024,9.47908585 L0,9.45200275 L0,9.20825482 C0,9.15747401 0.0228513677,9.11431031 0.0571284192,9.09590227 L0.0947908585,9.08638086 L0.501037603,9.05929776 C0.931904195,9.03467676 1.16132794,8.90933347 1.19948047,8.56118029 L1.20519827,8.44992796 L1.20519827,1.70623545 C1.20519827,1.25623929 1.07827538,1.16393238 0.622066938,1.12044163 L0.121874169,1.0833241 C0.0710931959,1.0833241 0.0279294624,1.06047273 0.00952140645,1.02048284 L0,0.974991687 L0,0.717702214 L0.0270831024,0.690619112 L1.09664888,0.712068929 C1.32003045,0.715535566 1.53561212,0.717702214 1.74686031,0.717702214 L3.63268027,0.691782839 C3.73852649,0.691042285 3.84580088,0.690619112 3.95413316,0.690619112 Z M113.121402,3.46663711 C113.148485,3.46663711 113.175569,3.48017866 113.175569,3.50726176 L113.149244,4.25020543 C113.141444,4.52450309 113.134944,4.83433378 113.134944,5.10516481 L113.134944,8.47701106 C113.134944,8.83401559 113.258049,8.98957556 113.595825,9.04543064 L113.703689,9.05929776 L113.960979,9.08638086 C114.011759,9.09653703 114.054923,9.11431031 114.073331,9.1511264 L114.082853,9.19471327 L114.082853,9.45200275 L114.055769,9.47908585 L113.183152,9.45763603 C113.091069,9.45590271 112.998445,9.45449439 112.903113,9.4535194 L112.325159,9.4535194 L112.325159,9.4535194 L111.198502,9.47908585 L111.171419,9.45200275 L111.171419,9.19471327 C111.171419,9.14393246 111.19427,9.11600301 111.23426,9.09949924 L111.279751,9.08638086 L111.537041,9.05929776 C111.955598,9.01005576 112.094371,8.89366556 112.116143,8.5778656 L112.119328,8.47701106 L112.119328,5.10516481 C112.119328,4.48017014 112.027021,4.31670999 111.863708,4.27395888 L111.821413,4.26558863 L111.239127,4.21142243 L111.212044,3.8864252 L111.698746,3.80753625 C112.374043,3.69225502 112.811178,3.58851107 113.121402,3.46663711 Z M87.0476789,3.95413295 C85.9643558,3.95413295 85.5445667,5.18641411 85.5445667,6.36452907 C85.5445667,7.40722851 86.0591467,9.14054707 87.3997592,9.14054707 C88.009129,9.14054707 88.8216221,8.77492518 88.8216221,6.98744042 C88.8216221,4.9968324 88.158085,3.95413295 87.0476789,3.95413295 Z M94.1808139,4.13017312 C93.7558223,4.13017312 93.1692883,4.46478565 92.8472496,5.08075673 L92.7724967,5.24058032 L92.7724967,8.54471881 C93.246451,9.09992241 93.6797807,9.12700552 93.8964413,9.12700552 C95.3453873,9.12700552 95.7110092,7.74576729 95.7110092,6.63536009 C95.7110092,5.10516481 95.0068485,4.13017312 94.1808139,4.13017312 Z M3.43955422,1.15103185 C2.82341364,1.15103185 2.37073892,1.19773639 2.30921468,1.5838828 L2.30206391,1.67915235 L2.30206391,8.46346951 C2.30206391,8.89679915 2.45102202,9.01867311 3.778093,9.01867311 C5.68744963,9.01867311 7.38014562,8.34159555 7.38014562,5.6062022 C7.38014562,3.52080331 6.36452615,1.15103185 3.43955422,1.15103185 Z M107.023756,3.98121606 L106.879231,3.98612233 C106.581453,4.00781839 106.119598,4.11975654 105.764392,4.65829362 C105.561269,4.94266619 105.385229,5.48432824 105.385229,6.45931993 C105.385229,8.15201383 106.130014,8.95096535 106.861258,8.95096535 C107.17813,8.95096535 107.637595,8.72062356 108.17055,8.31917074 L108.350828,8.17909693 L108.350828,4.78016758 C108.025831,4.26558863 107.660209,3.98121606 107.023756,3.98121606 Z M117.711478,3.9676745 L117.615515,3.9701275 C117.24977,3.98953776 116.457087,4.15185385 116.190174,5.3741661 L116.154199,5.56557755 L118.645845,5.56557755 C118.78126,5.56557755 118.835427,5.49786979 118.835427,5.37599583 C118.835427,4.23850553 118.198974,3.9676745 117.711478,3.9676745 Z M100.767862,3.9676745 L100.671899,3.9701275 C100.306154,3.98953776 99.5134715,4.15185385 99.2465582,5.3741661 L99.2105835,5.56557755 L101.702229,5.56557755 C101.837644,5.56557755 101.891811,5.49786979 101.891811,5.37599583 C101.891811,4.23850553 101.255358,3.9676745 100.767862,3.9676745 Z M51.4148441,3.9676745 L51.3188813,3.9701275 C50.9531359,3.98953776 50.1604538,4.15185385 49.8935404,5.3741661 L49.8575657,5.56557755 L52.3492112,5.56557755 C52.4846267,5.56557755 52.5387929,5.49786979 52.5387929,5.37599583 C52.5387929,4.23850553 51.9023389,3.9676745 51.4148441,3.9676745 Z M41.8206082,3.9676745 L41.7246456,3.9701275 C41.3589008,3.98953776 40.5662179,4.15185385 40.2993045,5.3741661 L40.2633298,5.56557755 L42.7549753,5.56557755 C42.8903908,5.56557755 42.944557,5.49786979 42.944557,5.37599583 C42.944557,4.23850553 42.3081041,3.9676745 41.8206082,3.9676745 Z M12.6411685,3.9676745 L12.5452056,3.9701275 C12.1794601,3.98953776 11.3867772,4.15185385 11.1198646,5.3741661 L11.0838901,5.56557755 L13.5755355,5.56557755 C13.710951,5.56557755 13.7651172,5.49786979 13.7651172,5.37599583 C13.7651172,4.23850553 13.1286633,3.9676745 12.6411685,3.9676745 Z M32.7771291,1.0833241 C33.1292094,1.0833241 33.4271235,1.38123822 33.4271235,1.73331855 C33.4271235,2.08539889 33.1292094,2.38331301 32.7771291,2.38331301 C32.4250498,2.38331301 32.1271346,2.08539889 32.1271346,1.73331855 C32.1271346,1.38123822 32.4250498,1.0833241 32.7771291,1.0833241 Z M36.7849251,1.0833241 C37.1370044,1.0833241 37.4349196,1.38123822 37.4349196,1.73331855 C37.4349196,2.08539889 37.1370044,2.38331301 36.7849251,2.38331301 C36.4328448,2.38331301 36.1349307,2.08539889 36.1349307,1.73331855 C36.1349307,1.38123822 36.4328448,1.0833241 36.7849251,1.0833241 Z M112.552657,1.0833241 C112.904738,1.0833241 113.202652,1.38123822 113.202652,1.73331855 C113.202652,2.08539889 112.904738,2.38331301 112.552657,2.38331301 C112.200577,2.38331301 111.902663,2.08539889 111.902663,1.73331855 C111.902663,1.38123822 112.200577,1.0833241 112.552657,1.0833241 Z" id="wikipedia-tagline-nl" fill="#000000" fill-rule="nonzero"></path>
    </g>
</svg>