<svg xmlns="http://www.w3.org/2000/svg" width="146" height="18" fill="none"><path fill="#595959" d="M0 .291h6.82c1.35 0 2.355.058 3.014.175.667.108 1.261.34 1.78.698.528.357.967.834 1.316 1.431.35.59.524 1.253.524 1.99 0 .8-.218 1.533-.652 2.2a3.966 3.966 0 0 1-1.746 1.501c1.04.303 1.839.819 2.398 1.548.558.73.838 1.587.838 2.572 0 .776-.183 1.533-.547 2.27a4.55 4.55 0 0 1-1.478 1.757c-.621.434-1.39.702-2.305.803-.574.062-1.959.1-4.155.116H0V.291Zm3.445 2.84v3.945h2.258c1.342 0 2.176-.02 2.502-.058.59-.07 1.051-.272 1.385-.605.341-.342.512-.788.512-1.339 0-.527-.148-.954-.442-1.28-.287-.334-.718-.535-1.292-.605-.342-.039-1.323-.058-2.945-.058H3.445Zm0 6.785v4.562h3.189c1.241 0 2.029-.035 2.362-.105.512-.093.927-.318 1.245-.675.326-.365.49-.85.49-1.455 0-.512-.125-.946-.373-1.303s-.61-.617-1.082-.78c-.466-.163-1.482-.244-3.05-.244H3.445Zm13.663 7.436V.291h3.445v17.061h-3.445ZM23.905.291h3.444v7.262c.769-.077 1.288-.275 1.56-.593.272-.319.69-1.203 1.257-2.654.714-1.846 1.431-2.995 2.153-3.445.714-.45 1.866-.675 3.456-.675.078 0 .245-.004.501-.011v2.548l-.489-.011c-.706 0-1.222.089-1.548.267a1.94 1.94 0 0 0-.791.792c-.202.357-.5 1.09-.896 2.2a7.554 7.554 0 0 1-.687 1.477c-.24.396-.671.768-1.292 1.118.768.217 1.4.655 1.897 1.315.505.66 1.056 1.59 1.653 2.793l2.328 4.678H32.4l-2.037-4.41a10.004 10.004 0 0 0-.198-.361c-.039-.062-.182-.33-.43-.803-.443-.838-.808-1.362-1.095-1.571-.279-.21-.71-.318-1.291-.326v7.471h-3.445V.291ZM38.29 17.352V.291h3.444v17.061H38.29Z"/><path fill="#8C8C8C" d="M45.04 17.352V.291h3.444v6.715h6.75V.291h3.445v17.061h-3.445v-7.46h-6.75v7.46H45.04Zm16.514-8.426c0-1.738.26-3.196.78-4.375a8.086 8.086 0 0 1 1.582-2.34c.675-.69 1.413-1.202 2.212-1.536C67.19.225 68.416 0 69.805 0c2.514 0 4.524.78 6.029 2.34 1.513 1.559 2.27 3.727 2.27 6.505 0 2.754-.75 4.911-2.247 6.47-1.497 1.553-3.499 2.328-6.005 2.328-2.537 0-4.555-.772-6.052-2.316-1.497-1.551-2.246-3.685-2.246-6.4Zm3.55-.116c0 1.932.446 3.398 1.338 4.4.892.992 2.025 1.489 3.398 1.489 1.374 0 2.499-.493 3.375-1.478.885-.993 1.327-2.479 1.327-4.458 0-1.955-.43-3.413-1.292-4.375-.853-.963-1.99-1.444-3.41-1.444-1.42 0-2.564.49-3.433 1.467-.869.97-1.303 2.436-1.303 4.399ZM80.815.291h6.82c1.35 0 2.355.058 3.014.175.667.108 1.261.34 1.78.698.528.357.967.834 1.316 1.431.35.59.524 1.253.524 1.99 0 .8-.218 1.533-.652 2.2a3.966 3.966 0 0 1-1.746 1.501c1.04.303 1.839.819 2.398 1.548.558.73.838 1.587.838 2.572 0 .776-.183 1.533-.547 2.27a4.549 4.549 0 0 1-1.478 1.757c-.621.434-1.39.702-2.305.803-.574.062-1.959.1-4.155.116h-5.807V.291Zm3.445 2.84v3.945h2.258c1.342 0 2.176-.02 2.502-.058.59-.07 1.051-.272 1.385-.605.341-.342.512-.788.512-1.339 0-.527-.148-.954-.442-1.28-.287-.334-.718-.535-1.292-.605-.342-.039-1.323-.058-2.945-.058H84.26Zm0 6.785v4.562h3.189c1.241 0 2.029-.035 2.362-.105.512-.093.927-.318 1.245-.675.326-.365.49-.85.49-1.455 0-.512-.125-.946-.373-1.303s-.61-.617-1.082-.78c-.466-.163-1.482-.244-3.05-.244H84.26ZM98.074.291h3.224V11.65L108.211.29h3.433v17.061h-3.223V6.215l-6.902 11.137h-3.445V.291Zm17.097 17.061V.291h3.445v6.715h6.75V.291h3.445v17.061h-3.445v-7.46h-6.75v7.46h-3.445ZM132.43.291h3.224V11.65L142.567.29H146v17.061h-3.224V6.215l-6.901 11.137h-3.445V.291Z"/></svg>