<?xml version="1.0" encoding="UTF-8"?>
<svg enable-background="new 0 0 682.3 534.3" version="1.1" viewBox="0 0 682.3 534.3" xml:space="preserve" xmlns="http://www.w3.org/2000/svg">
<style type="text/css">
	.st0{fill:#F0BC00;}
	.st1{fill:#E9E7C4;}
	.st2{fill:#EE8019;}
	.st3{fill:#010101;}
	.st4{fill:none;}
	.st5{fill:#DC0C18;}
	.st6{fill:#F7B821;}
	.st7{fill:#E679A6;}
	.st8{fill:#008B3F;}
</style>


<path class="st0" d="m91.55-0.050006s-91.6 0-91.6 91.3v351.8s0 91.3 91.6 91.3h499.2s91.6 0 91.6-91.3v-351.8s0-91.3-91.6-91.3z"/><path class="st1" d="m625.7 221.4c-3.1-2-5.1 3.2-2.7 5.2 12.3 10.1 20.5 25.7 15.5 41.8-1.7 5.5-4.6 10.5-8.6 14.6-3.4-9.6-11.9-17-23.3-13.9-14.9 4.1-14.8 27.1 0.7 30.2 6.1 1.2 12-0.2 17.3-3.1-3.9 13.9-21.4 25.9-34.9 21.3-3.9-1.3-4 5.2-0.7 6.4 16.7 6.2 37.1-9 41.6-25 0.7-2.5 1-5.1 0.9-7.6 5.8-5.2 10.1-11.7 12.6-19 6.2-18.7-1.9-40.5-18.4-50.9zm-21.6 69.2c-6.1-5.1-0.3-14.1 6.2-15 7.7-1 13.5 4.6 14.9 11.5-5.6 4-15.3 8.4-21.1 3.5z"/><path class="st1" d="m618.2 55.6c-3.3-2.4-7.1-4-11.1-4.8-3.4-5.6-7.8-10.4-13.2-14.1-16.6-11.4-40.9-8.8-54.7 5.8-2.3 2.4 0.5 7.8 3.5 5.3 12.3-9.9 29.1-15.1 44-7.7 5 2.4 9.4 6 12.8 10.4-2.4 0.3-4.7 0.9-6.8 2-6.8 3.4-10.9 10.4-10.8 18 0.5 14.6 21.4 22.7 28.5 7.9 2.9-6.2 2.7-12.9 0.6-19.4 13.1 5.7 22.6 24.8 15.4 37.2-1.8 3.1 2.5 7.9 4.7 4.4 9.1-14.5 0.2-35.7-12.9-45zm-14.9 21.3c-4.9 5.2-14.4 1.5-15.1-5.4-0.9-8.7 7.7-14.3 15.4-14.2 2.7 6.2 4.3 14.6-0.3 19.6z"/><path class="st1" d="m121.3 256.2c-14.9 5.8-32.4 5.5-44.4-6.2-4-4-7.1-8.8-8.8-14.2 8.8 2 18.1-0.7 22.4-10.7 6.2-14.4-12.1-31.4-24.2-18.6-4.7 5-6.5 11.7-6.3 18.5-10.7-9.2-13.7-30.7-3-40.4 2.7-2.4-0.7-8.1-3.7-5.5-12.9 10.9-10.8 33.3-1.7 46 2.5 3.4 5.7 6.2 9.4 8.2 1.5 6.6 4.5 12.8 8.7 18.2 12.6 15.6 36.2 20.7 53.9 10.9 3-1.8 1.2-7.5-2.3-6.2zm-48.3-46.2c8.6-4.7 15.5 6.3 10.7 13.5-3.9 5.8-10.9 7.2-17.1 5.2-0.7-6.6 0.4-15.3 6.4-18.7z"/><path class="st1" d="m459 176.5c0.1-1.2 0.1-2.3 0-3.5-0.3-1.7-0.9-3.4-1.3-5-0.9-3.9-1.6-7.9-0.6-11.9 0.9-3.6 1.8-7.2 3-10.7 0.9-2.8 1.3-5.7 1.2-8.6 0-5.4-2.4-9.3-7.3-11.4-6-2.5-12.2-3.6-18.6-1.3-2.7 0.9-5.4 1.7-8.2 2.3-5.9 1.3-11.6 0.8-16.7-2.9-1.6-1.1-3.2-2-4.9-2.9-4.8-2.5-10.4-3-15.6-1.3-5.5 1.6-11.1 3.1-16.5 4.8-5 1.7-10.3 2.5-15.5 2.7-0.6 0-1.2 0.1-1.9 0.2l0.5 5.2c0.5-0.2 0.9-0.4 1.4-0.6 1.3-0.4 2.7-0.6 4.1-0.7 1.8 0 2.8 1 3.4 3-0.7 1-1.9 1.5-3.1 1.5-2.1 0.3-4.1 1-5.9 2.2-1.2 0.7-2.3 1.3-3.5 1.9-2.7 1.5-6 1.3-8.5-0.7-0.4-0.3-0.9-0.6-1.4-1-1.8-1.5-4.3-1.8-6.5-0.9l-4.4 1.7c-0.6 0.3-1.2 0.5-1.8 0.6-0.4 0-0.9-0.3-1.1-0.7-0.1-0.4 0-0.8 0.2-1.1 0.4-0.5 1-1 1.6-1.4 2.5-1.4 5.1-2.7 8-4.2 0.1-2 0.2-4.5 0.4-7.2-3.9-0.6-7.5-1.4-11.1-0.6-3.4 0.7-6.7 1.8-10 2.8s-6.6 1.6-10 0.5c-3-1-5.9-2.2-8.8-3.4-3.9-1.6-7.7-3.3-11.9-3.8-5.2-0.6-10.2-0.6-14.8 2.4-2.8 1.8-5.6 3.5-8.4 5.3-2.3 1.7-4.9 2.8-7.7 3.4-3.9 0.6-7.9 0.4-11.7-0.7-1.6-0.5-3.2-0.8-4.8-1.1-2.2-0.6-4.6 0.4-5.8 2.4-1.3 2-2.8 4.2-3.1 6.5-1.1 5.5-1.4 11.1-1 16.7 0.7 7.1 0.3 14.1-2.5 20.9-1.2 3-2.2 6.1-3.1 9.2-0.7 1.9-0.8 4-0.1 6 0.5 1.6 2 2.8 3.6 2.8 1.6 0.3 3.2-0.6 3.8-2.1 0.7-1.5 1.4-3 1.9-4.6 2.1-6.7 4.1-13.4 6.1-20.1 0.6-2 1.4-4 2.4-5.9 4.8-8.6 11.8-11.7 21.3-10.7 5.7 0.6 10.7 2.9 15.5 5.9 1.8 1.1 3.7 2 5.7 2.7 5.3 1.6 10.4 0.6 15.3-2 2-1 3.9-2 5.8-3.2 3.2-1.8 6.7-2.9 10.3-3.2 4.5-0.5 8.6 0.2 12.2 3.2 1.6 1.4 3.5 2.4 5.2 3.7 3.2 2.3 6.9 3.6 10.8 3.7 5.6 0.3 11.2 0.5 16.5-1.8 2-0.9 4-1.8 6-2.8 2.3-1.2 4.5-2.6 6.7-3.9 3.1-1.8 6.5-3 10-3.5 6.1-0.9 11.4 0.4 15.6 5.2 1.3 1.4 2.8 2.8 4.3 4 5.1 4.3 10.7 4.2 16.3 1.4 3.4-1.7 6.5-3.8 9.8-5.7 2.1-1.2 4.2-2.5 6.4-3.6 2.3-1.4 5.2-1.3 7.4 0.2 1 0.6 2 1.3 2.9 2.1 4.1 3.7 5.9 9.5 4.5 14.9-0.3 1.5-0.7 3.1-1 4.6-0.3 1.2 0.3 2.4 1.4 3 2.5 1.4 5.1 1.8 7.6 1.1z"/><path class="st1" d="m510.6 278.2c-1.3-3.1-2.6-6.3-4.1-9.3-3-5.7-5.5-11.7-7.3-17.9-1.1-4-1.3-8.3-0.4-12.4 1.3-6.1 2.5-12.2 3.7-18.3 0.2-1.2 0.3-2.5 0.2-3.8-0.2-4.7-4.2-8.3-8.8-8.1-0.4 0-0.9 0.1-1.3 0.2l-1.3 3.2c-0.4 1.1-0.9 2.2-1.4 3.6 2-0.4 3.6-1.2 5.2-0.1 0 2.1-1.3 3.3-3.1 4-2.9 1.1-6.2 0.9-8.9-0.6-2.4-1.5-5.3-2.1-8.1-1.6-0.4 0.1-0.8-0.2-1.2-0.3 0-0.2 0-0.3-0.1-0.5 0.8-0.5 1.7-0.9 2.7-1.1 1.2-0.1 2.2-1 2.3-2.3 0.1-0.8 0.4-1.6 0.8-2.7-2.7 0.7-5.1 1.2-7.4 1.8-3 0.8-6.1 1-9.1 0.5-5.3-1-10.1-4-13.1-8.6-0.7-1.3-2.2-1.9-3.6-1.5-0.7 0.1-1.4 0.2-2.1 0.4-2.8 1-5.6 2.1-8.3 3.4-7.6 3.9-15.5 4.4-23.7 2.9-6.8-1.2-13.7-1.3-20.5-0.4-8.2 1.1-16.5 1.7-24.7 1.8-8.7 0.1-17.3-1.3-25.5-4.1-8.4-2.7-17.3-3.8-26.1-3.3-3.6 0.1-7.2 0.8-10.7 1.9-7.6 2.3-15 5.1-23.1 5.7-5 0.3-9.9 0.8-14.8-0.7-3.4-1.1-7-1.3-10.5-0.6-3.6 0.8-7.2 1.8-10.7 3-9.3 3.7-19.3 5-29.2 3.9h-2.5c1.1 1.8 2 3.3 2.9 4.6 5.3-0.1 14 3.1 15.9 5.9-1.3 1.5-3.5 2.1-5.4 1.4-1.3-0.4-2.6-0.8-3.8-1.3-1.1-0.4-2.2-0.9-3.3-1.2-2.2-0.6-3.2-0.3-4.3 1.7s-3.1 3.3-5.3 3.4c-0.6 0.1-1.3 0-1.9 0.1-2.3 0.3-4.5 0.6-6.8 1-1.7 0.3-3.3 1.3-4.1 2.9-0.6 0.8-1.2 1.5-1.9 2.2-0.3-0.6-0.4-1.3-0.5-1.9 0.2-2.3 1.6-4.4 3.6-5.5 0.8-0.4 1.5-0.8 2.4-1.3-1.9-3.9-3.8-7.8-5.8-11.9-2.2 0.7-4.2 1.3-6.1 2-1.4 0.4-2.6 1.1-3.8 1.9-3.9 3.2-7.5 6.8-10.6 10.8-0.6 0.6-1 1.3-1.2 2-0.7 4.3-1.9 8.7 0.3 12.9 0.6 1.3 1.1 2.6 1.7 3.9 2.9 6.1 0.7 11.8-1.3 17.5-0.2 0.5-0.6 1-0.9 1.4-2 2.8-4.5 5.3-7.2 7.4-2.5 1.8-4.5 4.2-6 6.9-1.6 3.1-1.1 5.5 1.4 7.9 1.6 1.5 3.7 2.5 5.9 2.8 3.9 0.5 7.1-1 9.9-3.5 3.4-3.1 6.4-6.6 8.9-10.4 1.6-2.5 2.7-5.4 3-8.4 0.4-3.4 0.8-6.9 1.3-10.3 1-7.3 5-12.6 11.2-16.4 2.7-1.7 6.1-1.9 9.1-0.5 2.4 1 4.6 2.5 6.4 4.3 1.8 1.7 3.3 1.8 5.3 0.4 0.8-0.6 1.5-1.3 2.2-2.1 1.1-1.2 2.1-2.6 3.2-3.8 6.2-6.9 15.2-9.9 24.3-5.1 3.1 1.6 6.4 3 9.8 4 3.1 0.9 6.2 1.6 9.4 2.1 4.6 0.8 9.1-0.4 13.5-1.6 3.6-1.1 7.5-1.3 11.2-0.7 4.6 0.6 8.7 3.2 11.1 7.2 3.1 4.9 3.8 10.9 1.8 16.4-0.7 1.9-1.5 3.8-2.1 5.8-1 3.1-0.7 4.1 1.8 6.2 0.4 0.4 0.9 0.7 1.2 1.1 2 1.7 3.2 4.2 3.2 6.9 0 1.7-0.2 3.5-0.3 5.2-0.1 1.1-0.4 2.2-0.5 3.3-0.1 1.8 0.8 3 2.8 3.5s2.9 0.1 3.9-1.7c1.1-2 1.5-4.4 1.1-6.6-0.5-2.9-1.1-5.7-1.9-8.5-1.6-5.6-0.9-10.7 2.7-15.4 4-5.3 5.7-11.9 4.8-18.5-0.6-3.5 1-7.1 4.1-9 4.6-3.4 10.5-4.4 16-2.7 4.8 1.5 9.9 2.2 14.9 2.2 2.4 0 4.9-0.4 7.2-1.1 4.7-1.7 9.1-4 13.2-6.8 3.8-2.4 8-4.1 12.4-5.2 5.3-1.4 10.8-1.6 16.2-0.7 4 0.8 7.9 2.2 11.5 4.1 7.6 3.6 15.4 4.9 23.6 2.4 5.4-1.5 10.6-3.5 15.7-5.8 2.8-1.4 5.8-2.5 8.8-3.4 10.2-2.5 17.1 2.8 19.3 11.2 1.2 4.7 0.3 9.6-2.3 13.6-1.5 2.5-2.4 5.3-2.9 8.2-0.9 4.7 0.2 8.8 3.9 11.9 1.3 1.1 2.6 2.1 4 3 6.2 3.7 10.4 10 11.3 17.2 0.3 2.2 0.6 4.4 0.9 6.5 0.2 1.6 0.5 3.1 1.8 4.2s1.8 1.1 2.8 0c0.9-0.9 1.6-2 2-3.1 1.6-5.2 2.1-10.2 0.1-15.2z"/><polygon class="st2" points="179 153 169.3 159.8 204.6 228.2 212.1 228.8 216.2 222.7"/><polygon class="st2" points="355.6 89.2 349.4 81.2 341.4 91.4 341.8 133.9 349.3 137.3 355.1 135.3"/><rect class="st3" transform="rotate(-51.631)" x="54.881" y="205.65" width="11.8" height="32.799" stroke-width=".99996"/><rect class="st3" transform="rotate(-16.32)" x="206.26" y="121.45" width="11.8" height="37.4" stroke-width=".99999"/><rect class="st3" transform="rotate(-71.531)" x="-3.8031" y="280.89" width="31.1" height="11.8"/><rect class="st3" transform="rotate(-15.332)" x="370.7" y="167.82" width="11.8" height="26.7" stroke-width=".99999"/><rect class="st3" transform="rotate(-79.589)" x="-13.407" y="443.07" width="39.499" height="11.7" stroke-width=".99996"/><rect class="st3" transform="rotate(-35.628)" x="308.68" y="344.4" width="30.299" height="11.8" stroke-width=".99998"/><rect class="st3" transform="rotate(-66.953)" x="-131.95" y="669.47" width="28.401" height="11.8"/><rect class="st3" transform="rotate(-51.77)" x="57.143" y="712" width="26.899" height="11.8" stroke-width=".99996"/><rect class="st3" transform="rotate(-13.102)" x="504.17" y="545.47" width="23.401" height="11.8"/><rect class="st3" transform="rotate(-59.789)" x="-86.062" y="762.05" width="11.8" height="27.001"/><rect class="st3" transform="rotate(-33.32)" x="229.55" y="721.96" width="11.8" height="25.999" stroke-width=".99998"/><rect class="st3" transform="rotate(-33.333)" x="-132.66" y="351.63" width="11.8" height="28.4"/><rect class="st3" transform="rotate(-48.511)" x="-259.13" y="299.04" width="11.8" height="26.901"/><rect class="st3" transform="rotate(-87.18)" x="-433.92" y="61.894" width="11.8" height="23.4"/><rect class="st3" transform="rotate(-40.49)" x="-275.47" y="388.69" width="26.999" height="11.8" stroke-width=".99998"/><rect class="st3" transform="rotate(-66.958)" x="-428.51" y="269.1" width="26" height="11.8" stroke-width=".99998"/><path class="st1" d="m538.8 374.1c2.3-3.8 2.2-5.9-0.5-9.5-3-3.7-4.7-8.3-4.9-13 0-2.4 0.3-4.9 0.8-7.3 0.7-3.3-0.1-6.7-2.3-9.3-0.9-1.2-1.8-2.4-2.8-3.5-1.6-2-3.8-3.4-6.3-3.9-3.7-0.8-7.4-1.4-11.1-1.9-2.4-0.3-4.9-0.4-6.8-2.2-0.9-0.9-2.2-1.2-3.4-0.8-3.4 1.1-7 1.9-10.5 2.5-11.3 1.4-22.7-0.6-32.7-5.9-3-1.6-6.1-3-9.3-4.1-4.8-1.7-10-1.1-14.3 1.5-2.1 1.3-4.2 2.8-6.2 4.3-2.6 2.1-5.7 3.5-9 4-6 0.7-12 0.7-17.7-1.6-5.5-2.2-11.6-2.2-17.1 0-4 1.4-7.8 3.3-11.7 5.1-1.7 0.8-3.3 1.8-5 2.6-3.8 2-7.9 3.2-12.2 3.5-3.9 0.3-7.9 0.2-11.8 0.4-7.1 0.3-13.3-2.1-18.9-6.3-2.2-1.7-4.5-3.3-6.8-4.7-4-2.4-8.5-3.9-13.2-4.1-5.2-0.3-10.4 0.9-15 3.4-3.8 2-7.5 4.1-11.3 5.8-9.4 4.2-19 4.7-28.6 0.5-3.6-1.5-7.2-3.1-10.9-4.4-5-1.8-10.6-1.6-15.5 0.4-1.7 0.7-3.3 1.5-5 2.1-6.4 2.2-12.4 2-17.9-2.9-3.1-2.8-6.5-5.2-9.8-7.8-2.5-2-5.6-3-8.8-2.7-1-0.1-1.9-0.2-2.8-0.6l-0.4-0.6c-2.6 1.4-5.2 2.6-7.6 4.2-2.8 1.7-5.4 3.6-8.1 5.4-3.5 2.3-7.2 3.5-11.4 2.5-1.4-0.3-2.8-0.4-4.2-0.6-2.4-0.4-5 0.3-6.9 1.9-5.6 4.3-9 9.8-9.2 17-0.2 6.5 1.4 12.6 3.5 18.7 1.1 3 2.3 6 3.2 9.1 1.5 4.8 1.8 9.8 0.7 14.7-1.4 6.4-3.3 12.6-5.8 18.7-1.3 3-2.1 6.1-2.3 9.4-0.1 0.7-0.1 1.4 0 2.1 0.4 3.1 2.9 4.6 5.8 3.7 2.3-0.8 4.3-2.4 5.8-4.4 6.8-8.3 11.2-17.6 11.3-28.6 0.1-9.6 3-18.4 7.6-26.8 2.5-4.4 5.9-8.2 10.2-11 6.5-4.3 13.1-4.6 19.7-0.4 3.7 2.2 7.6 3.9 11.7 5 4.7 1.5 9.4 1.2 13.7-1.4 3-1.8 6-3.7 9-5.7 2.6-1.9 5.6-3.2 8.8-3.9 4.3-0.7 8.4-0.4 11.7 2.8 2.6 2.4 4.4 5.6 5.1 9.1 0.8 4.3 0.6 8.7-0.6 12.9-1.3 4.6-1 5.3 3.2 7.4 0.9 0.4 1.7 0.8 2.5 1.3 1.2 0.8 2.3 1.6 3.4 2.6 2.6 2.3 3.6 6 2.5 9.3-0.3 1.1-0.6 2.1-0.9 3.2-0.3 0.6 0 1.4 0.6 1.8 0.1 0 0.2 0.1 0.3 0.1 1.3 0.4 2.6 0.6 3.9 0.6 2-0.2 4-0.6 6-1.2 2.2-0.7 2.7-1.8 2-4-0.4-1.3-1-2.5-1.3-3.8-1.4-4.8-0.1-8.7 3.9-11.7 1.8-1.3 3.9-2.1 6.2-2.1 2.1 0 4-1.5 4.3-3.6 0.3-1.3 0.4-2.7 0.4-4 0.1-2.7-0.1-5.4 0.1-8 0.2-3.8 3-6.9 6.6-7.6 4.7-1.1 9.1-0.5 13 2.5 1.4 1 2.7 2.2 4 3.4 4.2 4.2 9.4 5 14.9 3.9 4-0.7 7.8-2.3 11.2-4.7 3.6-2.4 7.8-3.9 12.1-4.4 2.7-0.4 5.4 0.5 7.3 2.4 2.4 2.2 4.9 4.2 7.6 6 3.4 2.5 7.8 3 11.6 1.2 2.7-1.2 5.4-2.6 8-4.1 2.7-1.8 5.6-3.3 8.6-4.4 5.1-1.7 9.9-1.3 14.4 1.9 1.2 0.9 2.5 1.6 3.9 2.2 2 0.8 3.8 0.9 5.6-0.9 2.2-2.1 4.9-3.5 7.8-4.2 2-0.5 4.1-0.4 6 0.4 7 2.9 11.2 11.3 8.9 18.5-1.2 4.3-1.9 8.8-2.1 13.2-0.3 2.8 0.3 5.5 1.7 8 2.4 4 2.6 9 0.3 13.1-1.1 2.2-2 4.5-2.9 6.7-1.5 3.8-1 7.1 2 9.9 0.2 0.2 0.4 0.5 0.7 0.7 1.8 1.9 4.8 2.1 6.8 0.3 1-0.9 1.9-1.9 2.8-2.9 1.5-1.5 2.2-3.7 1.9-5.9s-0.8-4.3-1.4-6.4c-1.3-4.1-1-8.5 0.8-12.5 1.2-2.7 2.6-5.4 3.9-8.1 0.4-0.8 0.8-1.5 1.1-2.3 0.7-1.2 0.3-2.7-0.8-3.6-1.8-1.7-3.5-3.4-5.1-5.3-2.2-2.7-3.2-6.3-2.7-9.8 0.5-5 4.6-9.1 10.1-10.1 2.3-0.6 4.8 0 6.6 1.6 1.1 0.9 2.1 1.9 3.2 2.8 2.2 1.6 4.3 1.2 5.8-1.1 1.1-1.8 2.6-3.2 4.4-4.2 4.5-2.4 9-3 12.7 1 2 2.1 4.6 2.6 7.4 2.1 2.4-0.4 4.7-1.2 6.9-2.4 3.6-1.9 7.5-3.1 11.5-3.5 1.6-0.1 3.3-0.1 4.9 0.2 3 0.3 5.5 2.6 5.9 5.6 0.7 3.4 1.1 6.8 1.6 10.3 0.2 2.3 0.6 4.5 1 6.8 1 3.3 4.5 5.1 7.8 4.1 0.4-0.1 0.7-0.3 1-0.4 0.7-0.3 1.2-0.7 1.6-1.3z"/><path class="st2" d="m499.07 152.34 7.8331 3.6184-17.788 62.113-9.5912-2.9483z"/>
	
		<path class="st4" d="m534.1 344.3c-0.5 2.4-0.8 4.8-0.8 7.3 0.1 3 0.8 5.9 2.1 8.6-1.3-2.7-2-5.6-2-8.6 0-2.5 0.2-4.9 0.7-7.3s0.2-5-0.9-7.2c1.1 2.2 1.5 4.7 0.9 7.2z"/>
		<path class="st4" d="m138.3 371.4c-0.9-3.1-2.2-6.1-3.2-9.1-1.9-5.3-3.4-10.6-3.5-16.3 0.2 5.6 1.7 11 3.5 16.3 1 3 2.2 6 3.2 9.1 1 3 1.4 6.1 1.4 9.2 0-3.2-0.4-6.3-1.4-9.2z"/>
		<path class="st4" d="m223.4 348.2c-1.5 1-3.1 2-4.6 2.9 1.5-0.9 3-1.9 4.6-2.9z"/>
		<path class="st4" d="m539.2 373.4c1.4-2.5 1.6-4.3 0.6-6.3 1 2 0.8 3.8-0.6 6.3z"/>
		<path class="st4" d="m530.3 333.1c0.2 0.2 0.3 0.4 0.5 0.6-0.2-0.2-0.4-0.4-0.5-0.6z"/>
		<path class="st4" d="m138.5 388.4c-1.4 5.6-3.1 11.1-5.3 16.5-0.3 0.6-0.5 1.3-0.7 1.9h0.1c0.2-0.7 0.5-1.3 0.7-1.9 2.1-5.5 3.8-11 5.2-16.5z"/>
		<path class="st4" d="m256.4 376.4c-0.8-0.5-1.6-0.9-2.5-1.3-4.2-2.1-4.6-2.8-3.2-7.4 1.3-4.2 1.5-8.6 0.6-12.9-0.7-3.5-2.5-6.7-5.1-9.1-3.3-3.2-7.4-3.5-11.7-2.8l-2.4 0.6c0.8-0.2 1.5-0.4 2.3-0.6 4.3-0.7 8.4-0.4 11.7 2.8 2.6 2.4 4.4 5.6 5.1 9.1 0.8 4.3 0.6 8.7-0.6 12.9-1.3 4.6-1 5.3 3.2 7.4 0.9 0.4 1.7 0.8 2.6 1.3 1.1 0.8 2.3 1.6 3.3 2.6 1.6 1.4 2.5 3.3 2.8 5.3h0.1c-0.3-2-1.2-3.9-2.8-5.3-1.1-1-2.2-1.9-3.4-2.6z"/>
		<path class="st4" d="m203 353.8c-4.1-1.1-8-2.8-11.7-5-3.6-2.3-7.2-3.3-10.8-3 3.6-0.3 7.2 0.7 10.8 3 3.6 2.2 7.5 3.9 11.7 5 3.5 1.1 7 1.3 10.3 0.2-3.3 1-6.8 0.9-10.3-0.2z"/>
		<path class="st4" d="m279.5 371.7c1-0.3 2.1-0.5 3.2-0.6 0.5 0 1.1-0.1 1.6-0.3-0.5 0.2-1 0.3-1.5 0.3-1.2 0.1-2.3 0.3-3.3 0.6z"/>
		<path class="st4" d="m206.7 227c1.3-0.1 2.4-0.2 3.5-0.4 2.3-0.4 3.1-2.3 1.9-4.4-2.5-4.2-4.9-8.4-7.3-12.7-4.7-8.2-8.9-16.7-12.8-25.3-3.5-7.7-7.2-15.4-10.8-23.1l-1.5-3-7.5 3.5c0.3 0.6 0.5 1 0.8 1.4 3.2 5.9 6.5 11.7 9.7 17.6 3.1 5.7 6.1 11.4 9.1 17.1 1.6 3.1 3.1 6.2 4.7 9.3 3.3 6.7 6.7 13.3 10.2 20z"/>
		<path class="st4" d="m346.7 135c1.5 1.2 3.6 1.2 5-0.1 0.2-11.2 0.5-22.2 0.7-33.2 0-1.1 0.6-2.3 0.3-3.3-0.9-3.4-2-6.8-4.6-9.9-1.5 3.3-3 6.2-4.1 9.3-0.5 1.4-0.3 3.1-0.3 4.7-0.1 1.1-0.1 2.1-0.1 3.1l0.1 27.5c1.2 0.7 2.1 1.2 3 1.9z"/>
		<path class="st4" d="m490.5 205.9c2.7-9.9 5.4-19.7 8.2-29.5 1.4-5 3.2-9.9 4.8-14.8 0.1-0.5 0.2-0.9 0.2-1.4l-5.8-3c-4.5 19.4-8.4 39-15.6 57.9l5.4 1.2c1-3.7 1.9-7.1 2.8-10.4z"/>
		<path class="st4" d="m503.7 131.8c1.1 4.2 5.3 6.1 9.3 4.2 2.4-1 4.3-3 5.3-5.4 2.5-5.6 4.1-11.7 4.7-17.8-0.3-2.2-0.5-4.5-1-6.7-0.6-2.6-2.3-3.8-5-3.6-1.8 0-3.6 0.8-4.9 2.1-1.4 1.4-2.6 3-3.6 4.6-2.8 5.1-4.6 10.7-5.3 16.5-0.1 2.1 0 4.1 0.5 6.1z"/>
		<path class="st4" d="m275.9 373.8z"/>
		<path class="st4" d="m375.7 358.4c-0.4 0.1-0.7 0.3-1.1 0.4 0.4-0.2 0.7-0.3 1.1-0.4z"/>
		<path class="st4" d="m530.5 374.8z"/>
		<path class="st4" d="m189.7 271.3c0.4-3.4 0.8-6.9 1.3-10.3 1-7.3 5-12.6 11.2-16.4 2.7-1.7 6.1-1.9 9.1-0.5 2.4 1 4.6 2.5 6.4 4.3 1.8 1.7 3.3 1.8 5.3 0.4 0.8-0.6 1.5-1.3 2.2-2.1 1.1-1.2 2.1-2.6 3.2-3.8 6.2-6.9 15.2-9.9 24.3-5.1 3.1 1.6 6.4 3 9.8 4 3.1 0.9 6.2 1.6 9.4 2.1 4.6 0.8 9.1-0.4 13.5-1.7 3.6-1.1 7.5-1.3 11.2-0.7 4.6 0.6 8.7 3.2 11.1 7.2 3.1 4.9 3.8 10.9 1.8 16.4-0.7 1.9-1.5 3.8-2.1 5.8-1 3.2-0.7 4.1 1.8 6.2 0.4 0.4 0.8 0.7 1.2 1.1 2 1.7 3.2 4.2 3.2 6.9 0 1.7-0.2 3.5-0.3 5.2-0.1 1.1-0.4 2.2-0.5 3.3-0.2 1.8 0.9 3 2.8 3.5s2.9 0.1 3.9-1.7c1.1-2 1.5-4.4 1.1-6.6-0.5-2.8-1.1-5.7-1.9-8.5-1.6-5.6-0.9-10.7 2.7-15.4 4-5.3 5.7-11.9 4.8-18.5-0.6-3.5 1-7.1 4.1-9 4.6-3.4 10.5-4.4 16-2.7 4.8 1.5 9.8 2.2 14.9 2.3 2.4 0 4.9-0.4 7.2-1.1 4.7-1.7 9.1-4 13.2-6.8 3.8-2.4 8-4.2 12.4-5.3 5.3-1.4 10.8-1.6 16.2-0.7 4 0.8 7.9 2.2 11.5 4.1 7.6 3.6 15.4 4.9 23.6 2.5 5.4-1.5 10.6-3.5 15.7-5.8 2.8-1.4 5.8-2.5 8.8-3.4 10.3-2.5 17.1 2.8 19.3 11.2 1.2 4.7 0.3 9.6-2.3 13.6-1.5 2.5-2.4 5.3-2.9 8.2-0.9 4.7 0.2 8.8 3.9 11.9 1.3 1.1 2.6 2.1 4 3 6.2 3.7 10.4 10 11.3 17.2 0.3 2.2 0.6 4.4 0.9 6.5 0.2 1.6 0.6 3.2 1.8 4.2 1.2 1.1 1.8 1.1 2.8 0 0.9-0.9 1.6-2 2-3.1 1.6-4.9 2.2-10 0.2-15-1.3-3.1-2.6-6.3-4.1-9.3-3-5.7-5.5-11.7-7.3-17.9-1.1-4-1.3-8.3-0.4-12.4 1.3-6.1 2.5-12.2 3.7-18.3 0.2-1.2 0.3-2.5 0.2-3.8 0-0.4-0.1-0.9-0.2-1.3-0.9-4.6-5.4-7.5-10-6.6l-1.3 3.2c-0.4 1.1-0.8 2.2-1.4 3.6 2-0.4 3.6-1.2 5.2-0.1 0 2.2-1.3 3.4-3.1 4-2.9 1.1-6.2 0.9-8.9-0.6-2.4-1.5-5.3-2.1-8.1-1.6-0.4 0.1-0.8-0.2-1.2-0.3-0.1-0.2-0.1-0.3-0.1-0.5 0.8-0.5 1.7-0.9 2.7-1.1 1.2-0.1 2.2-1 2.3-2.3 0.1-0.8 0.4-1.6 0.8-2.7-2.7 0.7-5.1 1.2-7.4 1.8-3 0.8-6.1 1-9.1 0.5-5.4-1-10.1-4-13.1-8.5-0.7-1.3-2.2-1.9-3.6-1.5-0.7 0.1-1.4 0.2-2.1 0.4-2.8 1-5.6 2.1-8.3 3.4-7.6 3.9-15.5 4.4-23.7 2.9-6.8-1.2-13.7-1.3-20.5-0.4-8.2 1.1-16.5 1.7-24.7 1.8-8.7 0.1-17.3-1.3-25.6-4.2-8.4-2.7-17.3-3.8-26.1-3.3-3.6 0.2-7.2 0.8-10.7 1.9-7.6 2.3-15.1 5.1-23.1 5.7-5 0.3-9.9 0.8-14.8-0.7-3.4-1.1-7-1.3-10.5-0.6-3.6 0.8-7.2 1.8-10.7 3-9.3 3.7-19.3 5-29.2 3.9h-2.5c1.1 1.8 2 3.3 2.9 4.6 5.3-0.1 14 3.2 15.9 5.9-1.3 1.5-3.5 2.1-5.4 1.4-1.3-0.4-2.6-0.8-3.8-1.3-1.1-0.4-2.2-0.9-3.3-1.2-2.3-0.7-3.2-0.3-4.3 1.7s-3.1 3.3-5.3 3.4c-0.6 0.1-1.3 0-1.9 0.1-2.3 0.3-4.5 0.6-6.8 1-1.7 0.3-3.3 1.3-4.1 2.9-0.6 0.8-1.2 1.5-1.9 2.2-0.3-0.6-0.4-1.3-0.5-1.9 0.2-2.3 1.6-4.4 3.6-5.5 0.8-0.4 1.5-0.8 2.4-1.3-1.9-3.9-3.8-7.8-5.8-11.9-2.2 0.7-4.2 1.3-6.1 2-1.4 0.4-2.6 1.1-3.8 1.9-3.9 3.2-7.5 6.8-10.5 10.8-0.6 0.6-1 1.3-1.2 2-0.7 4.3-1.9 8.7 0.3 12.9 0.6 1.3 1.1 2.6 1.7 3.9 2.9 6.1 0.7 11.8-1.3 17.5-0.2 0.5-0.6 1-0.9 1.4-2 2.8-4.5 5.3-7.2 7.4-2.5 1.8-4.5 4.2-6 6.9-1.6 3.1-1.1 5.5 1.4 7.9 1.6 1.5 3.7 2.5 5.9 2.8 3.9 0.5 7.1-1 9.9-3.5 3.4-3.1 6.4-6.6 8.9-10.4 1.7-2.7 2.7-5.6 3-8.6z"/>
		<path class="st4" d="m242.6 161.3c4.8-8.6 11.8-11.7 21.3-10.7 5.7 0.6 10.7 2.9 15.5 5.9 1.8 1.1 3.7 2 5.7 2.7 5.3 1.6 10.4 0.5 15.3-2 2-1 3.9-2.1 5.8-3.2 3.2-1.8 6.7-2.9 10.3-3.2 4.5-0.5 8.6 0.2 12.2 3.2 1.6 1.4 3.5 2.4 5.2 3.7 3.1 2.3 6.9 3.6 10.7 3.8 5.6 0.3 11.2 0.5 16.5-1.8 2-0.9 4.1-1.8 6-2.8 2.3-1.2 4.5-2.6 6.7-3.9 3.1-1.8 6.5-3 10-3.5 6.1-0.9 11.4 0.4 15.6 5.2 1.3 1.4 2.8 2.8 4.3 4 5.1 4.3 10.7 4.2 16.3 1.4 3.4-1.7 6.5-3.8 9.8-5.7 2.1-1.2 4.2-2.5 6.3-3.7 2.3-1.4 5.2-1.3 7.4 0.2 1 0.6 2 1.3 2.8 2.1 4.1 3.7 5.9 9.5 4.5 14.9-0.3 1.5-0.7 3.1-1 4.6-0.3 1.2 0.3 2.4 1.4 3 2.2 1.4 4.8 1.7 7.3 1 0.1-1.2 0.1-2.3 0-3.5-0.3-1.7-0.9-3.3-1.3-5-0.9-3.9-1.6-7.9-0.6-11.9 0.9-3.6 1.9-7.2 3-10.7 0.9-2.8 1.3-5.7 1.2-8.6 0-5.4-2.4-9.3-7.3-11.4-6-2.5-12.2-3.6-18.6-1.3-2.7 0.9-5.4 1.7-8.2 2.3-5.9 1.3-11.6 0.8-16.7-2.9-1.6-1.1-3.2-2-4.9-2.9-4.8-2.5-10.4-3-15.6-1.3-5.5 1.6-11.1 3.1-16.5 4.8-5 1.7-10.3 2.5-15.5 2.6-0.7 0-1.4 0.1-2.2 0.2v5.6c0.7-0.4 1.5-0.7 2.3-0.9 1.3-0.4 2.7-0.6 4.1-0.7 1.8 0 2.8 1 3.4 3-0.7 1-1.9 1.5-3.1 1.5-2.1 0.3-4.1 1-5.9 2.2-1.2 0.7-2.3 1.3-3.5 1.9-2.7 1.5-6 1.3-8.5-0.7-0.4-0.4-0.9-0.7-1.3-1-1.8-1.5-4.3-1.8-6.5-0.9l-4.4 1.7c-0.6 0.3-1.2 0.5-1.8 0.6-0.4 0-0.9-0.3-1.1-0.7-0.1-0.4 0-0.8 0.2-1.1 0.4-0.5 1-1 1.6-1.4 2.5-1.4 5.1-2.7 8-4.2 0.1-2 0.2-4.5 0.4-7.2-3.9-0.6-7.5-1.4-11.1-0.6-3.4 0.8-6.7 1.8-10 2.8-3.3 0.9-6.6 1.6-10 0.5-3-1-5.9-2.2-8.8-3.4-3.9-1.6-7.7-3.3-11.9-3.8-5.2-0.6-10.2-0.6-14.8 2.4-2.8 1.8-5.6 3.5-8.4 5.3-2.3 1.7-4.9 2.8-7.7 3.4-3.9 0.6-7.9 0.4-11.7-0.7-1.6-0.5-3.2-0.8-4.8-1.1-2.2-0.6-4.6 0.4-5.8 2.4-1.3 2-2.8 4.2-3.2 6.5-1.1 5.5-1.4 11.1-1 16.7 0.7 7.1 0.3 14.1-2.5 20.9-1.2 3-2.2 6.1-3.1 9.2-0.7 1.9-0.8 4-0.1 6 0.5 1.6 2 2.8 3.6 2.8 1.6 0.3 3.2-0.6 3.8-2.1 0.7-1.5 1.4-3 1.8-4.6 2.1-6.7 4-13.4 6.1-20.1 1.2-1.9 2-3.9 3-5.8z"/>
		<path class="st4" d="m515 349c1.7-0.1 3.3-0.1 5 0.2 1.1 0.1 2.2 0.5 3.1 1.1-0.9-0.6-2-1-3.1-1.1-1.7-0.3-3.4-0.3-5-0.2z"/>
		<path class="st4" d="m472.1 356c-0.5 0.9-1.2 1.5-1.9 1.8 0.7-0.4 1.4-1 1.9-1.8 1.2-1.8 2.7-3.3 4.5-4.2 0.8-0.4 1.7-0.8 2.5-1.1-0.9 0.3-1.7 0.7-2.6 1.1-1.9 0.9-3.4 2.4-4.4 4.2z"/>
		<path class="st4" d="m384 354.1c-2.5 1.5-5.2 2.9-7.9 4.1h0.1c2.6-1.2 5.3-2.6 7.8-4.1 2.8-1.8 5.6-3.3 8.6-4.4-3.1 1.2-6 2.6-8.6 4.4z"/>
		<path class="st4" d="m446.2 362.9c-0.5 3.5 0.5 7 2.7 9.8 1.6 1.8 3.3 3.6 5.1 5.3 1.1 0.8 1.5 2.3 0.8 3.6-0.4 0.8-0.8 1.5-1.2 2.3-0.5 0.9-0.9 1.9-1.4 2.8h0.1c0.5-1 0.9-1.9 1.4-2.9 0.4-0.8 0.8-1.5 1.1-2.3 0.7-1.2 0.3-2.7-0.8-3.6-1.8-1.7-3.5-3.4-5.1-5.3-2.1-2.8-3.1-6.3-2.7-9.7 0.5-4.1 3.3-7.5 7.2-9.2-3.9 1.6-6.8 5.1-7.2 9.2z"/>
		<path class="st4" d="m414.5 354.1c0.7-0.2 1.4-0.6 2-1.3 1.6-1.6 3.5-2.7 5.6-3.5-2.1 0.8-4 2-5.7 3.5-0.6 0.7-1.2 1.1-1.9 1.3z"/>
		<path class="st4" d="m500.2 354c1.2-0.4 2.3-0.9 3.3-1.6 3.5-1.9 7.4-3.1 11.5-3.5-4 0.4-8 1.6-11.5 3.5-1.1 0.7-2.2 1.2-3.3 1.6z"/>
		<path class="st4" d="m349.5 348.6c-4.3 0.5-8.5 2-12.1 4.4 3.6-2.4 7.8-3.9 12.1-4.4 0.4-0.1 0.7-0.1 1.1-0.1-0.4 0-0.8 0-1.1 0.1z"/>
		<path class="st4" d="m538.8 374.1c-0.4 0.6-0.9 1.1-1.5 1.4-0.3 0.2-0.7 0.3-1 0.4-2 0.6-4 0.2-5.6-1 1.9 1.4 4.5 1.7 6.7 0.6 0.5-0.3 1-0.8 1.4-1.4z"/>
		<path class="st4" d="m311.3 353.8c-1.3-1.2-2.6-2.3-4-3.3-3.9-3-8.3-3.6-13-2.5-0.3 0.1-0.5 0.1-0.7 0.2 0.2-0.1 0.4-0.1 0.7-0.2 4.7-1.1 9.1-0.5 13 2.5 1.3 1 2.7 2.1 4 3.3 4.2 4.2 9.3 5 14.8 3.9 4-0.7 7.9-2.3 11.3-4.7-3.4 2.3-7.2 3.9-11.2 4.7-5.6 1-10.7 0.2-14.9-3.9z"/>
		<path d="m466.3 357c-1.2-0.8-2.2-1.8-3.2-2.8-1.8-1.6-4.3-2.2-6.6-1.6-1.1 0.2-2.1 0.5-3 0.9 0.9-0.4 1.9-0.7 2.9-0.9 2.3-0.6 4.8 0 6.6 1.6 1.1 1.1 2.1 2.1 3.3 2.8 1.3 1.1 2.7 1.3 3.8 0.7-1.1 0.6-2.4 0.3-3.8-0.7z"/>
		<path d="m489.3 352.8c-3.1-3.3-6.6-3.5-10.3-2.2 3.7-1.3 7.2-1.1 10.3 2.2 1.9 2.2 4.5 2.6 7.3 2.2 1.2-0.2 2.5-0.5 3.6-0.9-1.1 0.4-2.3 0.7-3.5 0.9-2.8 0.3-5.4-0.1-7.4-2.2z"/>
		<path d="m376 358.2c-0.1 0-0.2 0.1-0.3 0.1 0.1 0 0.2 0 0.3-0.1z"/>
		<path d="m539.2 401.6-0.3-5.1c-0.3-4.6-0.5-9.3-0.7-13.5 1.9-1.5 4-2.5 5.3-4.1 1.3-1.8 2.3-3.9 2.9-6.1 1.3-3.7 0.5-7.7-2-10.6-4.1-4.7-5.6-9.9-4.1-16s-0.2-11.2-4.1-15.8c-1-1.2-2-2.4-3.1-3.5-2.1-2.3-4.8-3.9-7.7-4.8-4.6-1.3-9.3-2.1-14-2.3-1.5-0.1-3-0.1-4.2-1.1-0.2-4.8-0.4-9.5-0.6-13.8 1.9-0.6 3.7-1.4 5.5-2.3 2-1.3 3.6-3.1 4.5-5.4 2.3-5.2 3-10.9 2.1-16.4-0.9-5.2-3.2-9.8-5.5-14.5-1.8-3.8-3.6-7.5-5.2-11.4-2.6-5.9-3.1-12.5-1.3-18.7 1.3-5.1 2.4-10.3 3.2-15.5 1.7-9-4.2-17.6-13.2-19.3-0.1 0-0.2-0.2-0.5-0.4l12.6-40.5c6.8-1.7 12.6-6.2 16-12.3 1.6-2.7 3.3-5.4 4.8-8.2 1.6-3 3-6.1 4.2-9.2 2.4-7.1 4.1-14.4 4.9-21.9 0.8-6.3-0.1-12.7-2.7-18.5-3.9-8.4-13.9-12-22.3-8.1-1.4 0.6-2.6 1.5-3.8 2.4-1.2 1-2.4 2.1-3.3 3.4-2.6 3.5-5.1 7.2-7.3 11-3.1 5.4-5.5 11.2-7.3 17.1-2.8 9.9-3.5 19.8-0.5 29.8 0.5 1.6 1.2 3.2 1.9 4.8 0.8 1.7 2.5 3.3 2.7 5.1s-1.1 3.7-1.7 5.6c-3 10.4-6 20.7-9 31.1-0.8 2.8-1.6 5.6-2.5 8.4-0.3 0.8-0.6 1.6-1.6 1.8-4 0.8-8 1.8-12 2.6-2.9 0.6-5.9 0.2-8.5-1.1-3.1-1.5-4.9-4.3-6.9-7-0.2-0.3-0.2-0.9-0.2-1.4l-1.2-10.8v-1.8c1.6 0.2 3.2 0.4 4.9 0.5 5.3 0 8.6-3.2 8.7-8.5 0-1.4-0.1-2.8-0.4-4.2-0.3-1.6-0.9-3.2-1.3-4.8-0.7-3.1-1.3-6.2-0.6-9.3 0.7-3.2 1.5-6.6 2.5-9.9 1.2-3.8 1.6-7.7 1.2-11.7-0.3-3.9-1.3-7.6-4.1-10.6-2-2.2-4.4-3.9-7.1-5-7.5-2.9-15.1-3.9-22.8-1.1-2.4 0.8-4.8 1.5-7.3 2-4.3 0.9-8.5 0.5-12.1-2.3-1.4-1-2.9-1.9-4.4-2.7-5.2-3.2-11.4-4.3-17.3-2.9-6.5 1.4-13 3.3-19.4 5.1-4.4 1.4-9 2.2-13.7 2.4h-3.2c0-7-0.9-13.7-0.2-20.6h20.1c0.4-2.7 0.7-5.1 1.2-7.5 1.4-6.3 2.8-12.6 4.3-18.9 2.3-9.4 4.7-18.8 7-28.2 0.7-2.2 0.9-4.5 0.6-6.8-6-0.5-11.9-2.4-18.1-2.7-2.5 8-7.6 14.3-11.2 21.7-3.2-6.4-4.6-13-6.1-19.8h-13.8c-2 6.2-4.5 12.3-7.3 18.2-1.9-6-3.7-11.7-7.1-16.6-1.1 0.1-2.1 0.2-3.1 0.3-5.7 0.8-11.4 1.7-17.1 2.5-2 0.3-2.2 0.4-1.9 2.4 0.5 3.5 1.2 7 2 10.4 2.5 9.3 5.1 18.7 8 27.9 1.6 5.2 3.8 10.2 5.7 15.2 7.2 0.2 14.3 0.2 21.3 0.8-0.5 6.5-0.9 12.8-1.3 19.1-1.2-0.1-2.3-0.1-3.3-0.2-4.9-0.6-9.8-0.1-14.4 1.7l-6 2.1c-1.7 0.7-3.6 0.7-5.3 0.2-2.5-0.7-4.9-1.6-7.3-2.7-5.1-2.4-10.1-4.8-15.8-5.3-6-0.6-11.8-0.2-17.1 3.1-2.7 1.7-5.5 3.2-8 5.1-3.2 2.5-7.3 3.6-11.3 3-1.1-0.2-2.2-0.4-3.2-0.7-1.4-0.3-2.7-0.8-4.1-1.1-5.4-1.3-10 0-13.5 4.4-2.4 2.9-3.9 6.3-4.5 10-0.8 5.8-1.5 11.6-1.1 17.4 0.1 1.7 0.2 3.3 0.2 5 0.1 4.6-0.7 9.1-2.4 13.4-1.3 3.1-2.2 6.4-3.2 9.6-0.8 2.3-1.1 4.8-0.8 7.2 0.7 5.2 3.6 10.5 11.2 10.3 1.9-0.2 3.8-0.5 5.6-1v8.8c-2.6 0.5-5.2 0.9-7.9 1-5 0-10.1-0.3-15.1-0.4-1.4 0.1-2.8-0.7-3.3-2-4-8-8.2-16-12.2-24-4.2-8.3-8.2-16.7-13.2-24.6-0.3-0.5-0.6-1-1-1.8 8.2-3.5 15.9-8 23-13.5l-10.4-21.3-15.7 5.6c0.1-0.5 0.1-0.8 0.1-1.1 0.8-5.1 1.2-10.3 1.1-15.5-0.2-6.7-2.7-13.1-7.1-18.1-2.2-2.7-5.3-4.6-8.7-5.3-7.8-1.4-14.9 0.2-21 5.4-6.3 5.4-9.2 12.8-11.7 20.4l13.3 7.3c0.5-0.6 0.8-1 1.2-1.5 1.8-2.1 3.5-4.2 5.5-6.1s4.1-1.3 5 1.2c0.5 1.3 0.8 2.7 0.8 4.1-0.1 3.4-0.4 6.8-0.9 10.1-1.1 7.3-3.5 14.4-7.1 20.9-1.1 2-2.1 4-3.1 6.1l10.7 14.7 13.1-6.6c3.6 8.1 6.9 16 10.6 23.8s7.8 15.3 11.8 23c-0.9 0.3-1.6 0.6-2.4 0.8-4.6 1.5-9.1 3.6-13.1 6.3-5 3.1-8.5 8.2-9.6 14-0.3 1.2-0.5 2.5-0.7 3.7-0.4 5-0.8 10 1.3 14.9 1.5 3.4 1.7 7.2 1.7 10.9 0.1 1.8-0.6 3.6-1.9 5-1.8 1.8-3.5 3.7-5.3 5.3-3.2 2.8-6.2 5.7-7.8 9.7-3.2 8 0.1 15 7.4 18.1 5.1 2.3 11 2.2 16-0.3 0.8-0.4 1.6-0.7 2.7-1.2-0.5 4.9-0.9 9.4-1.4 13.9-3.6 0.8-7.1 2.1-10.3 3.9-2.5 1.4-5 2.7-7.5 4-2.8 1.7-6.2 2.2-9.3 1.2-0.8-0.2-1.5-0.3-2.3-0.6-5.3-1.6-10-0.3-14.2 3.1-6.7 5.4-10.5 12.2-11 20.9-0.4 7.6 1.4 14.8 3.9 22 1 2.8 2 5.5 2.9 8.2 1.3 4 1.4 8.3 0.2 12.4-1.7 5.6-3.4 11.1-5.4 16.6-0.9 2.3-1.5 4.7-2 7.1-23.6 8.9-37.3 19.4-37.3 30.6 0 32.6 115.2 59 257.3 59s257.3-26.4 257.3-59c-0.1-14.9-23.6-28.3-62.6-38.7zm-35.9-275.8c0.7-5.8 2.5-11.4 5.3-16.5 1-1.7 2.2-3.2 3.6-4.6 1.3-1.3 3.1-2 4.9-2.1 2.7-0.2 4.4 0.9 5 3.6 0.5 2.2 0.7 4.5 1 6.7-0.6 6.1-2.2 12.2-4.7 17.8-1 2.4-2.9 4.4-5.3 5.4-4 1.8-8.2 0-9.3-4.2-0.6-2.1-0.7-4.1-0.5-6.1zm-5.4 31.4 5.8 3c0 0.5-0.1 1-0.2 1.4-1.6 4.9-3.3 9.8-4.8 14.8-2.8 9.8-5.5 19.7-8.2 29.5-0.9 3.3-1.8 6.6-2.8 10.3l-5.4-1.2c7.1-18.9 11.1-38.4 15.6-57.8zm-154.2-54.7c0.1-1.6-0.2-3.3 0.3-4.7 1.1-3.1 2.6-6 4.1-9.3 2.6 3.1 3.7 6.5 4.6 9.9 0.3 1-0.3 2.2-0.3 3.3-0.3 11-0.5 22-0.7 33.2-1.4 1.3-3.5 1.4-5 0.1-0.9-0.6-1.8-1.2-3-1.9l-0.1-27.5c0-1.1 0-2.1 0.1-3.1zm-109.6 84.8c-0.5 1.6-1.1 3.1-1.8 4.6-0.6 1.5-2.2 2.4-3.8 2.1-1.7-0.1-3.2-1.2-3.6-2.8-0.6-2-0.6-4.1 0.1-6 0.9-3.1 1.9-6.2 3.1-9.2 2.9-6.7 3.2-13.8 2.5-20.9-0.4-5.6-0.1-11.2 1-16.7 0.4-2.3 1.8-4.5 3.2-6.5 1.2-2 3.5-2.9 5.8-2.4 1.6 0.3 3.2 0.7 4.8 1.1 3.8 1.1 7.8 1.4 11.7 0.7 2.8-0.6 5.4-1.7 7.7-3.4 2.8-1.8 5.6-3.5 8.4-5.3 4.6-3 9.7-3 14.8-2.4 4.2 0.5 8 2.2 11.9 3.8 2.9 1.2 5.8 2.4 8.8 3.4 3.4 1.1 6.7 0.4 10-0.5 3.3-1 6.6-2 10-2.8 3.6-0.8 7.2 0 11.1 0.6-0.1 2.8-0.3 5.2-0.4 7.2-2.9 1.5-5.5 2.8-8 4.2-0.6 0.4-1.2 0.8-1.6 1.4-0.2 0.3-0.3 0.7-0.2 1.1 0.3 0.4 0.7 0.6 1.1 0.7 0.6-0.1 1.2-0.3 1.8-0.6l4.4-1.7c2.2-0.9 4.6-0.5 6.5 0.9 0.4 0.3 0.9 0.6 1.3 1 2.4 1.9 5.8 2.2 8.5 0.7 1.2-0.6 2.4-1.2 3.5-1.9 1.8-1.2 3.8-1.9 5.9-2.2 1.2 0 2.3-0.5 3.1-1.5-0.6-2-1.5-3-3.4-3-1.4 0.1-2.8 0.3-4.1 0.7-0.8 0.2-1.5 0.5-2.3 0.9v-5.6c0.8-0.1 1.5-0.2 2.2-0.2 5.3-0.1 10.5-1 15.5-2.6 5.5-1.7 11-3.2 16.5-4.8 5.2-1.7 10.8-1.2 15.6 1.3 1.7 0.8 3.3 1.8 4.9 2.9 5.1 3.7 10.7 4.2 16.7 2.9 2.8-0.6 5.5-1.4 8.2-2.3 6.4-2.3 12.6-1.2 18.6 1.3 4.9 2.1 7.2 6.1 7.3 11.4 0 2.9-0.4 5.8-1.2 8.6-1.1 3.5-2.1 7.1-3 10.7-1 4-0.3 8 0.6 11.9 0.4 1.7 1 3.3 1.3 5 0.1 1.2 0.1 2.3 0 3.5-2.5 0.7-5.1 0.4-7.3-1-1.1-0.6-1.6-1.8-1.4-3 0.3-1.5 0.7-3.1 1-4.6 1.3-5.4-0.4-11.1-4.5-14.9-0.9-0.8-1.8-1.5-2.8-2.1-2.2-1.5-5.1-1.6-7.4-0.2-2.1 1.2-4.2 2.4-6.3 3.7-3.3 1.9-6.4 4-9.8 5.7-5.7 2.8-11.2 2.9-16.3-1.4-1.5-1.2-3-2.6-4.3-4-4.2-4.8-9.5-6.1-15.6-5.2-3.5 0.5-6.9 1.7-10 3.5-2.2 1.3-4.5 2.7-6.7 3.9-1.9 1-4 1.9-6 2.8-5.3 2.3-10.9 2.1-16.5 1.8-3.9-0.2-7.6-1.5-10.7-3.8-1.7-1.2-3.6-2.3-5.2-3.7-3.6-3-7.7-3.7-12.2-3.2-3.6 0.4-7.1 1.5-10.3 3.2-1.9 1.1-3.9 2.2-5.8 3.2-4.9 2.5-10 3.6-15.3 2-2-0.6-3.9-1.5-5.7-2.7-4.8-3-9.9-5.4-15.5-5.9-9.5-1-16.5 2.1-21.3 10.7-1 1.9-1.8 3.9-2.4 5.9-2.6 6.6-4.6 13.3-6.7 20zm-42.5 10.5c-3-5.7-6-11.4-9.1-17.1-3.2-5.9-6.5-11.7-9.7-17.6-0.2-0.4-0.4-0.8-0.8-1.4l7.5-3.5c0.5 1 1.1 2 1.5 3 3.6 7.7 7.3 15.4 10.8 23.1 3.9 8.6 8.1 17.1 12.8 25.3 2.4 4.2 4.9 8.5 7.3 12.7 1.2 2.1 0.5 4-1.9 4.4-1.1 0.2-2.2 0.2-3.5 0.4-3.5-6.7-6.9-13.3-10.4-19.9-1.4-3.2-2.9-6.4-4.5-9.4zm-13.8 92.3c-2.8 2.5-6 4.1-9.9 3.5-2.2-0.3-4.3-1.2-5.9-2.8-2.5-2.3-3-4.8-1.4-7.9 1.5-2.7 3.5-5.1 6-6.9 2.8-2.1 5.2-4.6 7.2-7.4 0.4-0.4 0.7-0.9 0.9-1.4 2-5.7 4.2-11.4 1.3-17.5-0.6-1.3-1.1-2.6-1.7-3.9-2.2-4.3-1-8.6-0.3-12.9 0.3-0.7 0.7-1.4 1.2-2 3.1-4 6.6-7.6 10.5-10.8 1.1-0.8 2.4-1.5 3.8-1.9 1.9-0.7 3.8-1.3 6.1-2 2 4.1 3.9 7.9 5.8 11.9-0.9 0.5-1.7 0.9-2.4 1.3-2 1.1-3.4 3.2-3.6 5.5 0.1 0.7 0.2 1.3 0.5 1.9 0.7-0.7 1.3-1.4 1.9-2.2 0.9-1.5 2.4-2.6 4.1-2.9 2.2-0.4 4.5-0.7 6.8-1 0.6-0.1 1.3 0 1.9-0.1 2.2-0.1 4.3-1.4 5.3-3.4 1.1-2 2-2.4 4.3-1.7 1.1 0.3 2.2 0.8 3.3 1.2 1.2 0.5 2.5 1 3.8 1.3 1.9 0.7 4 0.1 5.4-1.4-1.9-2.7-10.6-5.9-15.9-5.9-0.9-1.4-1.8-2.9-2.9-4.6h2.5c9.9 1.1 19.9-0.2 29.2-3.9 3.5-1.2 7-2.2 10.7-3 3.5-0.7 7.1-0.5 10.5 0.6 4.9 1.5 9.8 1.1 14.8 0.7 8-0.5 15.5-3.3 23.1-5.7 3.5-1.1 7-1.8 10.7-1.9 8.8-0.5 17.7 0.7 26.1 3.3 8.2 2.8 16.9 4.3 25.6 4.2 8.3-0.1 16.5-0.7 24.7-1.8 6.8-0.9 13.7-0.8 20.5 0.4 8.2 1.4 16.1 1 23.7-2.9 2.7-1.3 5.5-2.4 8.3-3.4 0.7-0.2 1.4-0.4 2.1-0.4 1.4-0.3 2.9 0.3 3.6 1.5 3 4.5 7.8 7.6 13.1 8.5 3 0.5 6.2 0.3 9.1-0.5 2.4-0.5 4.7-1.1 7.4-1.8-0.3 1.1-0.6 1.9-0.8 2.7-0.1 1.2-1.1 2.2-2.3 2.3-0.9 0.3-1.8 0.6-2.7 1.1 0 0.2 0 0.3 0.1 0.5 0.4 0.1 0.8 0.4 1.2 0.3 2.8-0.5 5.7 0.1 8.1 1.6 2.7 1.6 6 1.8 8.9 0.6 1.8-0.6 3.1-1.8 3.1-4-1.7-1.1-3.2-0.3-5.2 0.1 0.5-1.4 1-2.5 1.4-3.6l1.3-3.2c4.6-0.9 9 2 10 6.6 0.1 0.4 0.1 0.9 0.2 1.3 0.1 1.3 0 2.5-0.2 3.8-1.2 6.1-2.4 12.2-3.7 18.3-0.9 4.1-0.7 8.3 0.4 12.4 1.8 6.2 4.2 12.2 7.3 17.9 1.5 3 2.8 6.2 4.1 9.3 2 5 1.4 10.1-0.2 15-0.4 1.2-1.1 2.2-2 3.1-1 1.1-1.6 1.1-2.8 0s-1.6-2.7-1.8-4.2c-0.3-2.2-0.6-4.4-0.9-6.5-1-7.1-5.1-13.5-11.3-17.2-1.4-0.9-2.7-1.9-4-3-3.8-3.1-4.9-7.2-3.9-11.9 0.4-2.9 1.4-5.7 2.9-8.2 2.7-4 3.5-9 2.3-13.6-2.1-8.3-9-13.7-19.3-11.2-3 0.8-6 1.9-8.8 3.4-5.1 2.3-10.4 4.2-15.7 5.8-8.2 2.5-16.1 1.2-23.6-2.5-3.6-1.9-7.5-3.3-11.5-4.1-5.4-0.9-10.9-0.7-16.2 0.7-4.4 1.1-8.6 2.9-12.4 5.3-4.1 2.8-8.5 5.1-13.2 6.8-2.3 0.8-4.7 1.1-7.2 1.1-5 0-10.1-0.8-14.9-2.3-5.4-1.7-11.4-0.7-16 2.7-3 1.9-4.6 5.5-4.1 9 1 6.6-0.8 13.2-4.8 18.5-3.5 4.8-4.2 9.8-2.7 15.4 0.8 2.8 1.3 5.7 1.9 8.5 0.4 2.3 0 4.6-1.1 6.6-0.9 1.8-2 2.2-3.9 1.7s-2.9-1.7-2.8-3.5c0.1-1.1 0.4-2.2 0.5-3.3 0.2-1.7 0.3-3.4 0.3-5.2 0-2.6-1.1-5.2-3.2-6.9-0.4-0.4-0.8-0.7-1.2-1.1-2.5-2.1-2.8-3-1.8-6.2 0.6-1.9 1.4-3.8 2.1-5.8 2-5.4 1.3-11.5-1.8-16.4-2.4-4-6.5-6.7-11.1-7.2-3.7-0.6-7.6-0.4-11.2 0.7-4.4 1.3-8.8 2.5-13.5 1.7-3.2-0.5-6.3-1.2-9.4-2.1-3.4-1-6.7-2.4-9.8-4-9.1-4.8-18.1-1.8-24.3 5.1-1.1 1.2-2.1 2.6-3.2 3.8-0.7 0.8-1.4 1.5-2.2 2.1-2 1.4-3.5 1.4-5.3-0.4s-4-3.3-6.4-4.3c-2.9-1.4-6.3-1.2-9.1 0.5-6.2 3.7-10.2 9.1-11.2 16.4-0.5 3.4-0.9 6.9-1.3 10.3-0.3 3-1.4 5.8-3 8.4-2.5 4-5.5 7.5-8.9 10.6zm359.5 85.4c-2.2 1.2-4.8 0.8-6.7-0.6-0.1 0-0.1-0.1-0.2-0.1-0.9-0.7-1.6-1.8-2-3-0.5-2.2-0.8-4.5-1-6.8-0.5-3.4-0.9-6.9-1.6-10.3-0.2-1.9-1.3-3.5-2.8-4.5-0.9-0.6-1.9-1-3.1-1.1-1.6-0.3-3.3-0.4-5-0.2-4 0.4-7.9 1.6-11.5 3.5-1.1 0.6-2.2 1.1-3.3 1.6-1.2 0.4-2.4 0.7-3.6 0.9-2.8 0.4-5.4 0-7.4-2.2-3-3.3-6.5-3.5-10.2-2.2-0.8 0.3-1.6 0.7-2.5 1.1-1.8 1-3.3 2.4-4.4 4.2-0.6 0.9-1.2 1.5-2 1.8-1.2 0.6-2.5 0.4-3.9-0.7-1.1-0.8-2.2-1.8-3.2-2.8-1.8-1.6-4.3-2.2-6.6-1.6-1 0.2-2 0.5-2.9 0.9-4 1.7-6.8 5.1-7.1 9.2-0.5 3.5 0.5 7 2.7 9.8 1.6 1.8 3.3 3.6 5.1 5.3 1.1 0.8 1.5 2.3 0.8 3.6-0.4 0.8-0.8 1.5-1.1 2.3-0.5 1-0.9 1.9-1.4 2.9h-0.1c-0.9 1.7-1.7 3.5-2.5 5.3-1.8 3.9-2.1 8.3-0.8 12.5 0.6 2.1 1.1 4.3 1.4 6.4 0.4 2.1-0.3 4.3-1.9 5.9-0.9 1-1.8 2-2.8 2.9-2 1.8-5 1.7-6.8-0.3-0.2-0.2-0.4-0.5-0.7-0.7-3-2.8-3.5-6.2-2-9.9 0.9-2.3 1.8-4.6 2.9-6.7 2.2-4.1 2.1-9.1-0.3-13.1-1.4-2.4-1.9-5.2-1.7-8 0.2-4.5 0.9-8.9 2.1-13.2 2.3-7.2-1.9-15.6-8.9-18.5-1.9-0.8-4-0.9-6-0.4-0.7 0.2-1.5 0.4-2.2 0.6-2.1 0.8-4 2-5.6 3.5-0.7 0.7-1.3 1.1-2 1.3-1.2 0.4-2.4 0.2-3.7-0.3-1.4-0.6-2.7-1.3-3.9-2.2-4.5-3.1-9.3-3.5-14.4-1.9-3 1.1-5.8 2.6-8.5 4.3-2.6 1.5-5.2 2.9-8 4.1h-0.1c-0.1 0-0.2 0.1-0.3 0.1-0.4 0.1-0.7 0.3-1.1 0.4-3.5 1.1-7.3 0.4-10.2-1.7-2.7-1.8-5.2-3.8-7.6-6-1.7-1.7-3.9-2.6-6.3-2.5-0.3 0-0.7 0-1 0.1-4.3 0.5-8.5 2-12.1 4.4-3.4 2.3-7.2 3.9-11.3 4.7-5.5 1-10.7 0.3-14.9-3.9-1.3-1.2-2.6-2.3-4-3.3-3.9-3-8.3-3.6-13-2.5-0.2 0-0.5 0.1-0.7 0.2-3.3 1-5.7 3.9-5.9 7.4-0.2 2.6 0 5.3-0.1 8 0 1.3-0.1 2.7-0.4 4-0.3 1.6-1.4 2.9-2.8 3.4-0.5 0.2-1 0.3-1.6 0.3-1.1 0-2.2 0.2-3.2 0.6s-2 0.9-2.9 1.5c-0.2 0.2-0.5 0.4-0.7 0.6-3.4 2.9-4.5 6.7-3.1 11.1 0.3 1.3 0.9 2.5 1.3 3.8 0.7 2.2 0.3 3.3-2 4-2 0.6-4 1-6 1.2-1.3 0-2.6-0.2-3.9-0.6-0.1 0-0.2-0.1-0.3-0.1-0.6-0.3-0.9-1.1-0.6-1.8 0.3-1 0.6-2.1 0.9-3.2 0.4-1.3 0.5-2.7 0.3-4h-0.1c-0.3-2-1.2-3.9-2.8-5.3-1-1-2.2-1.8-3.4-2.6-0.8-0.5-1.6-0.9-2.5-1.3-4.2-2.1-4.6-2.8-3.2-7.4 1.3-4.2 1.5-8.6 0.6-12.9-0.7-3.5-2.5-6.7-5.1-9.1-3.3-3.2-7.4-3.5-11.7-2.8-0.8 0.2-1.6 0.3-2.3 0.6-2.3 0.7-4.5 1.8-6.4 3.3-0.8 0.5-1.5 1-2.3 1.5-1.5 1-3.1 2-4.6 2.9-0.7 0.4-1.4 0.9-2.1 1.3-1.1 0.7-2.2 1.2-3.3 1.5-3.4 1.1-6.9 1-10.4-0.1-4.1-1.1-8-2.8-11.7-5-3.6-2.3-7.2-3.3-10.8-3-3 0.3-5.9 1.4-8.9 3.3-4.2 2.8-7.7 6.6-10.2 11-4.6 8.3-7.5 17.2-7.6 26.8-0.1 11-4.5 20.3-11.3 28.6-1.4 2-3.4 3.5-5.8 4.4-3 0.9-5.4-0.6-5.8-3.7-0.1-0.7-0.1-1.4 0-2.1 0.2-2.5 0.7-5 1.6-7.4h-0.1c0.2-0.7 0.5-1.3 0.7-1.9 2.2-5.3 3.9-10.9 5.3-16.5 0.2-0.8 0.4-1.5 0.5-2.3 0.4-1.8 0.6-3.7 0.7-5.5 0.1-3.1-0.4-6.2-1.4-9.1-0.9-3.1-2.2-6.1-3.2-9.1-1.9-5.3-3.4-10.7-3.5-16.3v-2.4c0.2-7.2 3.7-12.7 9.2-17 1.9-1.6 4.4-2.3 6.9-1.9 1.4 0.2 2.8 0.3 4.2 0.6 4.2 1 7.9-0.3 11.4-2.5 2.7-1.8 5.3-3.7 8.1-5.4 2.5-1.5 5.1-2.8 7.6-4.2l0.3 0.6c0.9 0.3 1.9 0.5 2.8 0.6 3.2-0.3 6.3 0.7 8.8 2.7 3.3 2.6 6.7 5 9.8 7.8 5.4 4.9 11.4 5 17.9 2.9 1.7-0.6 3.3-1.4 5-2.1 4.9-2 10.4-2.2 15.5-0.4 3.7 1.3 7.3 2.8 11 4.4 9.6 4.1 19.2 3.7 28.6-0.5 3.9-1.7 7.6-3.8 11.3-5.8 4.6-2.5 9.8-3.7 15-3.4 4.7 0.3 9.2 1.7 13.2 4.1 2.3 1.5 4.6 3.1 6.8 4.7 5.6 4.2 11.8 6.6 18.9 6.3 3.9-0.2 7.9-0.1 11.8-0.4 4.3-0.3 8.4-1.5 12.2-3.5 1.7-0.9 3.3-1.9 5-2.6 3.9-1.8 7.7-3.7 11.7-5.1 5.5-2.2 11.6-2.2 17.1 0 5.7 2.3 11.7 2.4 17.7 1.6 3.3-0.5 6.4-1.9 9-4 2-1.6 4.1-3 6.2-4.3 4.3-2.6 9.6-3.2 14.3-1.5 3.2 1.1 6.3 2.5 9.3 4.1 10.1 5.3 21.5 7.3 32.7 5.9 3.6-0.6 7.1-1.4 10.5-2.5 1.2-0.5 2.5-0.2 3.4 0.8 1.9 1.8 4.4 1.9 6.8 2.2 3.7 0.5 7.4 1.2 11.1 1.9 2.5 0.6 4.7 1.9 6.3 3.9 0.4 0.5 0.9 1 1.3 1.6 0.2 0.2 0.3 0.4 0.5 0.6 0.4 0.4 0.7 0.9 1.1 1.3 0.5 0.6 1 1.3 1.4 2.1 1.1 2.2 1.5 4.8 0.9 7.2-0.5 2.4-0.8 4.8-0.8 7.3 0.1 3 0.8 5.9 2 8.6 0.8 1.6 1.7 3.1 2.8 4.5 0.7 0.9 1.2 1.7 1.5 2.4 1 2.1 0.8 3.9-0.6 6.3-0.1 0.2-0.3 0.5-0.4 0.7 0 0.4-0.5 0.9-1.1 1.2z"/>
		<path d="m528.9 372.9c-0.2-0.3-0.3-0.7-0.4-1-0.5-2.2-0.8-4.5-1-6.8-0.5-3.4-0.9-6.9-1.6-10.3-0.2-1.9-1.3-3.5-2.8-4.5 1.5 1 2.5 2.6 2.8 4.5 0.7 3.4 1.1 6.8 1.6 10.3 0.2 2.3 0.6 4.5 1 6.8 0.4 1.2 1.1 2.2 2 3-0.7-0.6-1.2-1.3-1.6-2z"/>
		<path d="m530.7 374.9c-0.1 0-0.1-0.1-0.2-0.1 0 0 0.1 0.1 0.2 0.1z"/>
		<path d="m287.6 355.5c-0.2 2.7 0 5.4-0.1 8 0 1.3-0.1 2.7-0.4 4-0.3 1.6-1.4 2.8-2.8 3.4 1.5-0.5 2.6-1.8 2.8-3.4 0.3-1.3 0.4-2.7 0.4-4 0.1-2.7 0-5.4 0.1-8 0.3-3.5 2.7-6.5 6-7.5-3.4 1-5.8 4-6 7.5z"/>
		<path d="m223.4 348.2c0.8-0.5 1.5-1 2.3-1.5 1.9-1.4 4.1-2.5 6.4-3.3-2.3 0.7-4.5 1.8-6.4 3.3-0.9 0.5-1.6 1-2.3 1.5z"/>
		<path d="m213.3 353.9c1.1-0.4 2.2-0.9 3.3-1.5 0.7-0.4 1.4-0.9 2.1-1.3-0.7 0.4-1.4 0.9-2.1 1.3-1.1 0.7-2.2 1.2-3.3 1.5z"/>
		<path d="m364.4 357c-2.7-1.8-5.2-3.8-7.6-6-1.7-1.7-4-2.6-6.3-2.5 2.3-0.1 4.6 0.8 6.3 2.5 2.4 2.2 4.9 4.2 7.6 6 2.9 2.2 6.7 2.8 10.2 1.7-3.5 1.1-7.2 0.5-10.2-1.7z"/>
		<path d="m275.9 373.8c0.2-0.2 0.5-0.4 0.7-0.6 0.9-0.7 1.9-1.2 2.9-1.5-1.1 0.4-2.1 0.9-3 1.5-0.2 0.3-0.4 0.4-0.6 0.6z"/>
		<path d="m539.8 367.1c-0.4-0.8-0.9-1.6-1.5-2.4-1.1-1.4-2.1-2.9-2.8-4.5 0.8 1.6 1.7 3.1 2.8 4.5 0.6 0.8 1.1 1.6 1.5 2.4z"/>
		<path d="m139.7 380.5c0 1.9-0.3 3.7-0.7 5.5-0.2 0.8-0.4 1.5-0.5 2.3 0.2-0.7 0.4-1.5 0.5-2.2 0.4-1.8 0.6-3.7 0.7-5.6z"/>
		<path d="m533.2 337.1c-0.4-0.7-0.8-1.4-1.4-2.1-0.4-0.4-0.7-0.9-1.1-1.3 0.4 0.5 0.7 0.9 1.1 1.4 0.6 0.6 1 1.3 1.4 2z"/>
		<path d="m140.8 326.6c1.9-1.6 4.4-2.3 6.9-1.8 1.4 0.2 2.8 0.3 4.2 0.6 4.2 1 7.9-0.3 11.4-2.5 2.7-1.8 5.3-3.7 8.1-5.4 2.5-1.5 5.1-2.8 7.6-4.2l0.3 0.6c0.9 0.3 1.9 0.5 2.8 0.6 3.2-0.3 6.3 0.7 8.8 2.7 3.3 2.6 6.7 5 9.8 7.8 5.4 4.9 11.4 5 17.9 2.9 1.7-0.6 3.3-1.4 5-2.1 4.9-2 10.4-2.2 15.5-0.4 3.7 1.3 7.3 2.8 10.9 4.4 9.6 4.1 19.2 3.7 28.6-0.5 3.9-1.7 7.6-3.9 11.3-5.8 4.6-2.5 9.8-3.7 15-3.4 4.7 0.3 9.2 1.7 13.2 4.1 2.3 1.5 4.6 3.1 6.8 4.7 5.6 4.2 11.8 6.6 18.9 6.3 3.9-0.2 7.9-0.1 11.8-0.4 4.3-0.3 8.4-1.5 12.2-3.5 1.7-0.9 3.3-1.9 5-2.6 3.9-1.8 7.7-3.7 11.7-5.1 5.5-2.2 11.6-2.2 17.1 0 5.7 2.3 11.7 2.4 17.7 1.6 3.3-0.5 6.4-1.9 9-4 2-1.6 4.1-3 6.2-4.3 4.3-2.6 9.6-3.2 14.3-1.5 3.2 1.1 6.3 2.5 9.3 4.1 10.1 5.3 21.5 7.3 32.7 5.9 3.6-0.6 7.1-1.4 10.5-2.5 1.2-0.5 2.5-0.2 3.4 0.8 1.9 1.8 4.4 1.9 6.8 2.2 3.7 0.5 7.5 1.2 11.2 1.9 2.5 0.6 4.7 1.9 6.3 3.9 0.4 0.5 0.9 1 1.3 1.5-0.4-0.5-0.8-1-1.3-1.6-1.6-2-3.8-3.4-6.3-3.9-3.7-0.8-7.4-1.4-11.1-1.9-2.4-0.3-4.9-0.4-6.8-2.2-0.9-0.9-2.2-1.2-3.4-0.8-3.4 1.1-7 1.9-10.5 2.5-11.3 1.4-22.7-0.6-32.7-5.9-3-1.6-6.1-3-9.3-4.1-4.8-1.7-10-1.1-14.3 1.5-2.1 1.3-4.2 2.8-6.2 4.3-2.6 2.1-5.7 3.5-9 4-6 0.7-12 0.7-17.7-1.6-5.5-2.2-11.6-2.2-17.1 0-4 1.4-7.8 3.3-11.7 5.1-1.7 0.8-3.3 1.8-5 2.6-3.8 2-7.9 3.2-12.2 3.5-3.9 0.3-7.9 0.2-11.8 0.4-7.1 0.3-13.3-2.1-18.9-6.3-2.2-1.7-4.5-3.3-6.8-4.7-4-2.4-8.5-3.9-13.2-4.1-5.2-0.3-10.4 0.9-15 3.4-3.8 2-7.5 4.1-11.3 5.8-9.4 4.2-19 4.7-28.6 0.5-3.6-1.5-7.2-3.1-11-4.4-5-1.8-10.6-1.6-15.5 0.4-1.7 0.7-3.3 1.5-5 2.1-6.4 2.2-12.5 2-17.9-2.9-3.1-2.8-6.5-5.2-9.8-7.8-2.5-2-5.6-3-8.8-2.7-1-0.1-1.9-0.2-2.8-0.6l-0.3-0.6c-2.5 1.4-5.2 2.6-7.6 4.2-2.8 1.7-5.4 3.6-8.1 5.4-3.5 2.3-7.2 3.5-11.4 2.5-1.4-0.3-2.8-0.4-4.2-0.6-2.5-0.4-5 0.3-6.9 1.9-5.6 4.3-9 9.8-9.2 17v2.4-2.4c0.2-7.2 3.6-12.7 9.2-17z"/>
		<path d="m411 353.8c-1.4-0.6-2.7-1.3-3.9-2.2-4.5-3.2-9.3-3.5-14.4-1.9h-0.1c5.1-1.7 9.9-1.3 14.4 1.9 1.2 0.9 2.5 1.6 4 2.2 1.2 0.6 2.4 0.8 3.6 0.4-1.2 0.3-2.4 0.1-3.6-0.4z"/>
	
	
		<path class="st5" d="m529.8 386.8c-1.4-2.8-3-4-8-8s-3-15-7-18-7.5 0-14.5 3-16.5-4-16.5-4-10.8 6.3-15 5.5c-5.5-1 0-3.5-8-2.5s1 7 6 12-5 13-7 19 2 10 6 17-11 16-19 20-19-6-22-14 8-17 4-19-4-10.8-3-20 4-18 0-14-19-1-27-4-12.7 4.8-24 9-19-6-26-9-18 10-27 11-11-8-18-10-4 7-3 12-12 5-17 8 3 7 3 15-14 10-25 9-9-14-9-14 1-8-10-12-1-18-7-25-18 9-27 13-23-15-32-13-15 35-16 46-17 25-17 25l-1 30s97.7 27.4 188.4 27.4 201.6-27.4 201.6-27.4-1.5-65-3-68z"/>
		<polygon class="st1" points="379.7 460.6 385.2 456.4 378.2 447.3 384.4 440.1 379.1 435.5 373.8 441.6 369.2 435.7 363.7 440 369.1 447 361.1 456.2 366.4 460.8 373.5 452.7"/>
		<polygon class="st6" points="410.3 409.6 415.9 405.4 408.9 396.3 415.1 389.1 409.8 384.5 404.5 390.6 399.9 384.7 394.3 389 399.8 396 391.8 405.2 397.1 409.8 404.2 401.7"/>
		<polygon class="st6" points="495.7 402.3 501.2 398 494.2 389 500.4 381.8 495.1 377.2 489.8 383.3 485.2 377.4 479.7 381.6 485.1 388.7 477.1 397.9 482.4 402.5 489.5 394.3"/>
		<polygon class="st1" points="510 446 515.5 441.8 508.5 432.7 514.7 425.5 509.5 420.9 504.1 427 499.5 421.1 494 425.4 499.5 432.4 491.5 441.6 496.7 446.2 503.8 438.1"/>
		<polygon class="st6" points="199.2 406 204.8 401.7 197.8 392.6 204 385.5 198.7 380.9 193.4 387 188.8 381 183.2 385.3 188.7 392.4 180.7 401.5 186 406.1 193.1 398"/>
		<polygon class="st1" points="239 441.6 244.5 437.4 237.5 428.3 243.8 421.1 238.5 416.5 233.1 422.6 228.5 416.7 223 421 228.5 428 220.5 437.2 225.8 441.8 232.8 433.7"/>
		<polygon class="st6" points="311.6 469.4 317.1 465.1 310.1 456 316.3 448.9 311 444.2 305.7 450.4 301.1 444.4 295.6 448.7 301 455.7 293 464.9 298.3 469.5 305.4 461.4"/>
		<polygon class="st1" points="347.7 412.3 353.2 408 346.2 399 352.4 391.8 347.1 387.2 341.8 393.3 337.2 387.4 331.7 391.6 337.1 398.7 329.1 407.9 334.4 412.5 341.5 404.3"/>
	
	
		<path class="st7" d="m187.3 305.8 1.5-16s12.5-12 11.5-17 0.5-21 6.5-21 9 10.5 15 8.5 13-14 20.5-14.5c4.5-0.3 15.2 1 19.5 3.5 8.5 4.8 27.7-2.6 33 1 4.5 3 4.3 1.6 7 10s-3.8 9.8-2.5 15.5c1.5 6.6 9 5 7 17.5-0.7 4.4 4 12 12 11 6.4-0.8 14.5-11.5 12.5-16.5s-4-10.5-1-17.5 7-9 6-14 2.5-17.5 8.5-14.5 18 3.5 28.5-0.5c9.2-3.5 32-13.5 39-7.5s26 8.5 32 5.5 27-11.5 32-5.5-2.6 16.7-0.5 24c4 14 14.4 19.9 18 26 4.5 7.5 4.9 25.2 4 27-3 6-24.5 10.5-43.5-4-7.3-5.6-28.5 7.5-38 8.5-6.3 0.7-23.5-7.5-29.5-3.5s-28 13-38 13-24.5-6-28.5-9-22.5-10.5-34.5-1.5-27.5 7.5-34.5 3.5-34 1-39 1-24.5-13-24.5-13z"/>
		<rect class="st6" transform="matrix(.5609 -.8279 .8279 .5609 -22.733 490.23)" x="438.3" y="263" width="25" height="7"/>
		
			<rect class="st8" transform="matrix(.8662 -.4997 .4997 .8662 -85.848 245.11)" x="409.8" y="272.9" width="10" height="20"/>
		
			<rect class="st5" transform="matrix(.2392 -.971 .971 .2392 40.997 574.91)" x="377.3" y="256.3" width="20.2" height="10"/>
		
			<rect class="st6" transform="matrix(.7208 -.6932 .6932 .7208 -104.18 331)" x="355.3" y="282.8" width="7" height="24"/>
		<rect class="st5" transform="matrix(.4061 -.9138 .9138 .4061 6.67 611.89)" x="469.1" y="291" width="10" height="19.7"/>
		
			<rect class="st8" transform="matrix(.638 -.7701 .7701 .638 -131.42 321.5)" x="265.4" y="295.5" width="21.6" height="10"/>
		
			<rect class="st5" transform="matrix(.9872 -.1592 .1592 .9872 -39.111 46.088)" x="257.6" y="262.2" width="20.9" height="10"/>
		
			<rect class="st6" transform="matrix(.8211 -.5708 .5708 .8211 -123.99 191.06)" x="232.3" y="289.8" width="21.1" height="7"/>
		<rect class="st8" x="208.1" y="275.5" width="10" height="20"/>
	
	
		<path class="st0" d="m241.3 205.3s2-21.5 3-25 6.2-18.2 10-20.5c11.5-7 18.5 2 25.5 5.5 10 5 18 4 28.5-1.5 3.6-1.9 15.7-4.1 21 0 6.5 5 23 10.5 34 4s21-11 26.5-9.5 15.5 14.5 24.5 12.5 20.5-14 25.5-11.5 2.4 12.1 4 20c0.9 5.5 0.9 11 0 16.5 0 0-15.9 7.1-22 7.5-7 0.5-38.5-3-49.5-0.5-9.4 2.1-31-5-40.5-7-5.4-1.1-33.5 0.5-42.5 5s-22-2-27.5-1-20.5 5.5-20.5 5.5z"/>
		<circle class="st8" cx="418.1" cy="184.5" r="4.3"/>
		<path class="st5" d="m371.4 193.8c-5.2 0-9.3-4.2-9.4-9.3s4.2-9.3 9.3-9.4 9.3 4.2 9.4 9.3c0.1 5.3-4.1 9.4-9.3 9.4zm0-10c-0.4 0-0.7 0.3-0.7 0.7s0.3 0.7 0.7 0.7 0.7-0.3 0.7-0.7-0.3-0.7-0.7-0.7z"/>
		<circle class="st8" cx="322.8" cy="179.2" r="4.3"/>
		<path class="st5" d="m267.2 191.4c-5.6 0-10.2-4.6-10.2-10.2s4.6-10.2 10.2-10.2 10.2 4.6 10.2 10.2-4.5 10.2-10.2 10.2zm0-10.4c-0.1 0-0.2 0.1-0.2 0.2 0 0.2 0.4 0.2 0.4 0 0-0.1-0.1-0.2-0.2-0.2z"/>
	
</svg>
