<svg width="120" height="11" viewBox="0 0 120 11" fill="none" xmlns="http://www.w3.org/2000/svg">
<path d="M3.92947 6.59876V1.76425C3.92947 1.37474 4.1586 1.05397 4.57102 1.05397H5.2813C5.91139 1.05397 5.99158 1.23727 6.18634 2.11939C6.31236 2.11939 6.43838 2.13085 6.57585 2.06211C6.4842 1.47785 6.42692 0.859213 6.42692 0.297861C6.31236 0.309317 6.1978 0.309316 6.08323 0.343685C6.08323 0.412422 6.07178 0.607177 5.8312 0.607177H0.847758C0.607178 0.607177 0.607178 0.412422 0.607178 0.343685C0.515528 0.320773 0.423879 0.286405 0.252036 0.297861C0.206211 0.859213 0.137474 1.45494 0 2.06211C0.103106 2.11939 0.24058 2.13085 0.38951 2.11939C0.618634 1.2029 0.767565 1.05397 1.39765 1.05397H2.30269C2.72657 1.05397 2.9557 1.37474 2.9557 1.72988V6.59876C2.9557 7.54962 2.76094 7.60691 1.84445 7.64127C1.77571 7.71001 1.77571 7.95059 1.84445 8.01933C2.4058 8.00787 2.81822 7.99642 3.44831 7.99642C4.06694 7.99642 4.46791 8.00787 5.04072 8.01933C5.10946 7.95059 5.10946 7.71001 5.04072 7.64127C4.12423 7.60691 3.92947 7.54962 3.92947 6.59876ZM7.12068 4.76577C7.33834 3.47122 8.14028 3.36812 8.41522 3.36812C8.85056 3.36812 9.36609 3.6087 9.36609 4.57102C9.36609 4.67412 9.32026 4.7314 9.19424 4.7314L7.12068 4.76577ZM10.1222 6.93099C9.69832 7.36633 9.36609 7.54963 8.70163 7.54963C8.28921 7.54963 7.80805 7.30904 7.4529 6.72478C7.22378 6.34673 7.08631 5.81974 7.08631 5.15528L10.1337 5.1782C10.2711 5.1782 10.3513 5.10946 10.3513 4.98344C10.3513 4.02112 10.0076 2.99006 8.41522 2.99006C7.41854 2.99006 6.12399 3.94093 6.12399 5.68227C6.12399 6.32381 6.28437 6.94245 6.66243 7.37778C7.05194 7.83603 7.59038 8.11098 8.41522 8.11098C9.28589 8.11098 9.90453 7.71001 10.3628 7.11429C10.3284 6.99973 10.2597 6.94245 10.1222 6.93099ZM15.2156 4.1586C15.5707 3.792 16.029 3.49414 16.3727 3.49414C17.1059 3.49414 17.736 4.31898 17.736 5.61353C17.736 6.55294 17.4037 7.72147 16.1206 7.72147C15.9144 7.72147 15.5135 7.66419 15.3073 7.48089C15.0667 7.27468 15.0323 7.2174 15.0323 6.79352V4.66267C15.0323 4.42209 15.0667 4.31898 15.2156 4.1586ZM15.124 3.78054C15.0781 3.82636 15.0094 3.83782 15.0094 3.74617C15.0094 3.33375 15.0552 3.01298 15.0552 3.01298C15.0552 2.96715 14.9979 2.93278 14.9063 2.93278C14.5855 3.0588 14.1502 3.16191 13.3597 3.26501C13.3368 3.33375 13.3597 3.51705 13.3826 3.58579C14.0012 3.64307 14.1273 3.7118 14.1273 4.36481V9.2566C14.1273 10.2075 14.0012 10.2647 13.3024 10.2991C13.2337 10.3678 13.2337 10.6084 13.3024 10.6772C13.7836 10.6657 14.0814 10.6543 14.5855 10.6543C15.124 10.6543 15.4791 10.6657 15.9717 10.6772C16.0404 10.6084 16.0404 10.3678 15.9717 10.2991C15.1583 10.2533 15.0323 10.2075 15.0323 9.2566V8.01933C15.0323 7.8704 15.0667 7.89331 15.1927 7.93914C15.4676 8.0537 15.8228 8.11098 16.1894 8.11098C16.8309 8.11098 17.4037 7.91622 17.8734 7.46943C18.4119 6.94245 18.7212 6.23216 18.7212 5.30421C18.7212 4.08986 17.862 2.96715 16.6935 2.96715C16.2696 2.96715 15.6395 3.25356 15.124 3.78054ZM21.4099 8.11098C21.8567 8.11098 22.3264 7.88185 22.8878 7.42361C22.9336 7.37778 23.0253 7.35487 23.0253 7.43506C23.0253 7.71001 23.1513 8.11098 23.1513 8.11098C23.2315 8.14535 23.2773 8.14535 23.3689 8.11098C23.621 7.90477 24.0563 7.73292 24.7551 7.65273C24.8239 7.58399 24.8239 7.41215 24.7551 7.34341C24.0219 7.28613 23.9188 7.06846 23.9188 6.50711V4.30753C23.9188 3.96384 23.9647 3.13899 23.9647 3.13899C23.9647 3.09317 23.9303 3.0588 23.873 3.0588C23.8157 3.07026 23.6439 3.08171 23.4721 3.08171C23.1055 3.08171 22.7274 3.07026 22.3035 3.0588C22.2348 3.12754 22.2348 3.36812 22.3035 3.43686C22.8649 3.47122 23.0138 3.6087 23.0138 4.36481V6.57585C23.0138 6.79352 22.9909 6.88517 22.8305 7.02264C22.4066 7.38924 22.04 7.57254 21.7536 7.57254C21.4099 7.57254 20.8371 7.41215 20.8371 6.39255V4.30753C20.8371 3.96384 20.883 3.13899 20.883 3.13899C20.883 3.09317 20.8486 3.0588 20.7913 3.0588C20.734 3.07026 20.5622 3.08171 20.3903 3.08171C20.0237 3.08171 19.6457 3.07026 19.2218 3.0588C19.1531 3.12754 19.1531 3.36812 19.2218 3.43686C19.7717 3.48268 19.9321 3.6087 19.9321 4.35335V6.55294C19.9321 7.34341 20.2758 8.11098 21.4099 8.11098ZM25.1969 3.08171C25.0365 3.08171 24.9907 3.21919 24.9907 3.31084V3.45977C24.9907 3.51705 25.0021 3.5285 25.0479 3.5285H25.7238V6.97682C25.7238 7.7902 26.079 8.11098 26.606 8.11098C27.133 8.11098 27.7058 7.85894 28.1526 7.35487C28.1296 7.24031 28.0609 7.17157 27.9463 7.16012C27.6485 7.38924 27.3048 7.48089 27.0069 7.48089C26.6976 7.48089 26.6289 7.1372 26.6289 6.42692V3.5285H27.8203C27.9349 3.5285 28.0953 3.48268 28.0953 3.37957V3.15045C28.0953 3.10463 28.0609 3.08171 28.0036 3.08171H26.6289V2.63492C26.6289 1.89027 26.6747 1.43202 26.6747 1.43202C26.6747 1.35183 26.6289 1.31746 26.5258 1.31746L25.8613 1.62678C25.7926 1.66115 25.6895 1.68406 25.7009 1.76425C25.7238 2.02774 25.7238 2.13085 25.7238 3.08171H25.1969ZM31.447 5.32713V6.8508C31.447 6.99973 31.3783 7.07992 31.2867 7.14866C30.9888 7.38924 30.5993 7.64127 30.2785 7.64127C29.7057 7.64127 29.4537 7.18303 29.4537 6.82789C29.4537 6.31236 29.6943 5.79683 30.542 5.56771L31.447 5.32713ZM31.447 7.44652C31.5158 7.6871 31.7105 8.11098 32.3292 8.11098C32.8905 8.11098 33.3029 7.65273 33.3029 7.59545C33.3029 7.51526 33.1998 7.4007 33.154 7.4007C33.0853 7.4007 33.0395 7.58399 32.7989 7.58399C32.3521 7.58399 32.3406 7.1372 32.3406 6.61022V4.90325C32.3406 3.27647 31.447 2.96715 30.6107 2.96715C29.6713 2.96715 28.7205 3.62016 28.7205 4.23879C28.7205 4.51374 28.8579 4.63975 29.1214 4.63975C29.4537 4.63975 29.6255 4.41063 29.6255 4.2617C29.6255 4.18151 29.6141 4.10131 29.5911 4.05549C29.5797 4.02112 29.5682 3.95238 29.5682 3.82637C29.5682 3.47122 30.0838 3.34521 30.5191 3.34521C30.9086 3.34521 31.447 3.53996 31.447 4.83451C31.447 4.9147 31.4127 4.96053 31.3783 4.97198L30.3931 5.21256C29.2933 5.48751 28.5028 6.09469 28.5028 6.87371C28.5028 7.77875 29.1444 8.11098 29.9463 8.11098C30.4733 8.11098 30.6909 8.01933 31.195 7.62982L31.4241 7.44652H31.447ZM37.7178 4.1586C38.0729 3.792 38.5311 3.49414 38.8748 3.49414C39.608 3.49414 40.2381 4.31898 40.2381 5.61353C40.2381 6.55294 39.9059 7.72147 38.6228 7.72147C38.4166 7.72147 38.0156 7.66419 37.8094 7.48089C37.5688 7.27468 37.5345 7.2174 37.5345 6.79352V4.66267C37.5345 4.42209 37.5688 4.31898 37.7178 4.1586ZM37.6261 3.78054C37.5803 3.82636 37.5115 3.83782 37.5115 3.74617C37.5115 3.33375 37.5574 3.01298 37.5574 3.01298C37.5574 2.96715 37.5001 2.93278 37.4084 2.93278C37.0877 3.0588 36.6523 3.16191 35.8619 3.26501C35.8389 3.33375 35.8619 3.51705 35.8848 3.58579C36.5034 3.64307 36.6294 3.7118 36.6294 4.36481V9.2566C36.6294 10.2075 36.5034 10.2647 35.8046 10.2991C35.7358 10.3678 35.7358 10.6084 35.8046 10.6772C36.2857 10.6657 36.5836 10.6543 37.0877 10.6543C37.6261 10.6543 37.9812 10.6657 38.4739 10.6772C38.5426 10.6084 38.5426 10.3678 38.4739 10.2991C37.6605 10.2533 37.5345 10.2075 37.5345 9.2566V8.01933C37.5345 7.8704 37.5688 7.89331 37.6948 7.93914C37.9698 8.0537 38.3249 8.11098 38.6915 8.11098C39.3331 8.11098 39.9059 7.91622 40.3756 7.46943C40.914 6.94245 41.2233 6.23216 41.2233 5.30421C41.2233 4.08986 40.3641 2.96715 39.1956 2.96715C38.7717 2.96715 38.1416 3.25356 37.6261 3.78054ZM44.8499 5.32713V6.8508C44.8499 6.99973 44.7812 7.07992 44.6895 7.14866C44.3916 7.38924 44.0021 7.64127 43.6814 7.64127C43.1086 7.64127 42.8565 7.18303 42.8565 6.82789C42.8565 6.31236 43.0971 5.79683 43.9448 5.56771L44.8499 5.32713ZM44.8499 7.44652C44.9186 7.6871 45.1134 8.11098 45.732 8.11098C46.2934 8.11098 46.7058 7.65273 46.7058 7.59545C46.7058 7.51526 46.6027 7.4007 46.5569 7.4007C46.4881 7.4007 46.4423 7.58399 46.2017 7.58399C45.7549 7.58399 45.7435 7.1372 45.7435 6.61022V4.90325C45.7435 3.27647 44.8499 2.96715 44.0136 2.96715C43.0742 2.96715 42.1233 3.62016 42.1233 4.23879C42.1233 4.51374 42.2608 4.63975 42.5243 4.63975C42.8565 4.63975 43.0284 4.41063 43.0284 4.2617C43.0284 4.18151 43.0169 4.10131 42.994 4.05549C42.9825 4.02112 42.9711 3.95238 42.9711 3.82637C42.9711 3.47122 43.4866 3.34521 43.9219 3.34521C44.3114 3.34521 44.8499 3.53996 44.8499 4.83451C44.8499 4.9147 44.8155 4.96053 44.7812 4.97198L43.7959 5.21256C42.6961 5.48751 41.9057 6.09469 41.9057 6.87371C41.9057 7.77875 42.5472 8.11098 43.3491 8.11098C43.8761 8.11098 44.0938 8.01933 44.5979 7.62982L44.827 7.44652H44.8499ZM47.636 4.36481V6.59876C47.636 7.54962 47.4985 7.59545 46.7883 7.64127C46.7195 7.71001 46.7195 7.95059 46.7883 8.01933C47.2694 8.00787 47.636 7.99642 48.0943 7.99642C48.564 7.99642 48.9878 8.00787 49.4805 8.01933C49.5492 7.95059 49.5492 7.71001 49.4805 7.64127C48.6785 7.58399 48.541 7.54962 48.541 6.59876V5.00635C48.541 4.70849 48.6785 4.445 48.816 4.23879C48.942 4.05549 49.2055 3.67744 49.343 3.67744C49.4232 3.67744 49.5148 3.68889 49.5836 3.75763C49.6981 3.87219 49.8127 4.08986 50.0533 4.08986C50.3282 4.08986 50.5917 3.80345 50.5917 3.51705C50.5917 3.29938 50.3855 2.96715 49.9043 2.96715C49.3659 2.96715 48.8962 3.47122 48.6327 3.91802C48.564 4.04403 48.5296 3.98675 48.5296 3.92947C48.5296 3.56287 48.5869 3.01298 48.5869 3.01298C48.5869 2.96715 48.5296 2.93278 48.4379 2.93278C48.1172 3.0588 47.6589 3.16191 46.8684 3.26501C46.8455 3.33375 46.8455 3.51705 46.8914 3.58579C47.51 3.64307 47.636 3.73472 47.636 4.36481ZM53.8597 5.32713V6.8508C53.8597 6.99973 53.791 7.07992 53.6993 7.14866C53.4015 7.38924 53.0119 7.64127 52.6912 7.64127C52.1184 7.64127 51.8663 7.18303 51.8663 6.82789C51.8663 6.31236 52.1069 5.79683 52.9547 5.56771L53.8597 5.32713ZM53.8597 7.44652C53.9284 7.6871 54.1232 8.11098 54.7418 8.11098C55.3032 8.11098 55.7156 7.65273 55.7156 7.59545C55.7156 7.51526 55.6125 7.4007 55.5667 7.4007C55.4979 7.4007 55.4521 7.58399 55.2115 7.58399C54.7647 7.58399 54.7533 7.1372 54.7533 6.61022V4.90325C54.7533 3.27647 53.8597 2.96715 53.0234 2.96715C52.084 2.96715 51.1331 3.62016 51.1331 4.23879C51.1331 4.51374 51.2706 4.63975 51.5341 4.63975C51.8663 4.63975 52.0382 4.41063 52.0382 4.2617C52.0382 4.18151 52.0267 4.10131 52.0038 4.05549C51.9923 4.02112 51.9809 3.95238 51.9809 3.82637C51.9809 3.47122 52.4964 3.34521 52.9318 3.34521C53.3213 3.34521 53.8597 3.53996 53.8597 4.83451C53.8597 4.9147 53.8253 4.96053 53.791 4.97198L52.8057 5.21256C51.7059 5.48751 50.9155 6.09469 50.9155 6.87371C50.9155 7.77875 51.557 8.11098 52.3589 8.11098C52.8859 8.11098 53.1036 8.01933 53.6077 7.62982L53.8368 7.44652H53.8597ZM57.9862 8.11098C58.433 8.11098 58.9027 7.88185 59.464 7.42361C59.5099 7.37778 59.6015 7.35487 59.6015 7.43506C59.6015 7.71001 59.7275 8.11098 59.7275 8.11098C59.8077 8.14535 59.8536 8.14535 59.9452 8.11098C60.1972 7.90477 60.6326 7.73292 61.3314 7.65273C61.4001 7.58399 61.4001 7.41215 61.3314 7.34341C60.5982 7.28613 60.4951 7.06846 60.4951 6.50711V4.30753C60.4951 3.96384 60.5409 3.13899 60.5409 3.13899C60.5409 3.09317 60.5066 3.0588 60.4493 3.0588C60.392 3.07026 60.2202 3.08171 60.0483 3.08171C59.6817 3.08171 59.3037 3.07026 58.8798 3.0588C58.811 3.12754 58.811 3.36812 58.8798 3.43686C59.4411 3.47122 59.5901 3.6087 59.5901 4.36481V6.57585C59.5901 6.79352 59.5671 6.88517 59.4068 7.02264C58.9829 7.38924 58.6163 7.57254 58.3299 7.57254C57.9862 7.57254 57.4134 7.41215 57.4134 6.39255V4.30753C57.4134 3.96384 57.4592 3.13899 57.4592 3.13899C57.4592 3.09317 57.4248 3.0588 57.3676 3.0588C57.3103 3.07026 57.1384 3.08171 56.9666 3.08171C56.6 3.08171 56.2219 3.07026 55.7981 3.0588C55.7293 3.12754 55.7293 3.36812 55.7981 3.43686C56.348 3.48268 56.5083 3.6087 56.5083 4.35335V6.55294C56.5083 7.34341 56.852 8.11098 57.9862 8.11098ZM65.9107 4.1586C66.2659 3.792 66.7241 3.49414 67.0678 3.49414C67.801 3.49414 68.4311 4.31898 68.4311 5.61353C68.4311 6.55294 68.0988 7.72147 66.8157 7.72147C66.6095 7.72147 66.2086 7.66419 66.0024 7.48089C65.7618 7.27468 65.7274 7.2174 65.7274 6.79352V4.66267C65.7274 4.42209 65.7618 4.31898 65.9107 4.1586ZM65.8191 3.78054C65.7732 3.82636 65.7045 3.83782 65.7045 3.74617C65.7045 3.33375 65.7503 3.01298 65.7503 3.01298C65.7503 2.96715 65.693 2.93278 65.6014 2.93278C65.2806 3.0588 64.8453 3.16191 64.0548 3.26501C64.0319 3.33375 64.0548 3.51705 64.0777 3.58579C64.6964 3.64307 64.8224 3.7118 64.8224 4.36481V9.2566C64.8224 10.2075 64.6964 10.2647 63.9975 10.2991C63.9288 10.3678 63.9288 10.6084 63.9975 10.6772C64.4787 10.6657 64.7766 10.6543 65.2806 10.6543C65.8191 10.6543 66.1742 10.6657 66.6668 10.6772C66.7356 10.6084 66.7356 10.3678 66.6668 10.2991C65.8534 10.2533 65.7274 10.2075 65.7274 9.2566V8.01933C65.7274 7.8704 65.7618 7.89331 65.8878 7.93914C66.1627 8.0537 66.5179 8.11098 66.8845 8.11098C67.526 8.11098 68.0988 7.91622 68.5685 7.46943C69.107 6.94245 69.4163 6.23216 69.4163 5.30421C69.4163 4.08986 68.5571 2.96715 67.3886 2.96715C66.9647 2.96715 66.3346 3.25356 65.8191 3.78054ZM73.0428 5.32713V6.8508C73.0428 6.99973 72.9741 7.07992 72.8825 7.14866C72.5846 7.38924 72.1951 7.64127 71.8743 7.64127C71.3015 7.64127 71.0495 7.18303 71.0495 6.82789C71.0495 6.31236 71.29 5.79683 72.1378 5.56771L73.0428 5.32713ZM73.0428 7.44652C73.1116 7.6871 73.3063 8.11098 73.925 8.11098C74.4863 8.11098 74.8987 7.65273 74.8987 7.59545C74.8987 7.51526 74.7956 7.4007 74.7498 7.4007C74.6811 7.4007 74.6353 7.58399 74.3947 7.58399C73.9479 7.58399 73.9364 7.1372 73.9364 6.61022V4.90325C73.9364 3.27647 73.0428 2.96715 72.2065 2.96715C71.2671 2.96715 70.3163 3.62016 70.3163 4.23879C70.3163 4.51374 70.4537 4.63975 70.7172 4.63975C71.0495 4.63975 71.2213 4.41063 71.2213 4.2617C71.2213 4.18151 71.2099 4.10131 71.1869 4.05549C71.1755 4.02112 71.164 3.95238 71.164 3.82637C71.164 3.47122 71.6796 3.34521 72.1149 3.34521C72.5044 3.34521 73.0428 3.53996 73.0428 4.83451C73.0428 4.9147 73.0085 4.96053 72.9741 4.97198L71.9889 5.21256C70.8891 5.48751 70.0986 6.09469 70.0986 6.87371C70.0986 7.77875 70.7402 8.11098 71.5421 8.11098C72.0691 8.11098 72.2867 8.01933 72.7908 7.62982L73.0199 7.44652H73.0428ZM76.1612 0C75.8061 0 75.554 0.24058 75.554 0.561353C75.554 0.92795 75.8519 1.03106 76.0581 1.06543C76.2758 1.08834 76.4705 1.15707 76.4705 1.42057C76.4705 1.66115 76.0581 2.18813 75.4624 2.33706C75.4624 2.45162 75.4853 2.53182 75.5655 2.61201C76.2528 2.48599 76.9173 1.93609 76.9173 1.13416C76.9173 0.446792 76.6194 0 76.1612 0ZM80.8668 5.32713V6.8508C80.8668 6.99973 80.798 7.07992 80.7064 7.14866C80.4085 7.38924 80.019 7.64127 79.6982 7.64127C79.1254 7.64127 78.8734 7.18303 78.8734 6.82789C78.8734 6.31236 79.114 5.79683 79.9617 5.56771L80.8668 5.32713ZM80.8668 7.44652C80.9355 7.6871 81.1302 8.11098 81.7489 8.11098C82.3102 8.11098 82.7227 7.65273 82.7227 7.59545C82.7227 7.51526 82.6195 7.4007 82.5737 7.4007C82.505 7.4007 82.4592 7.58399 82.2186 7.58399C81.7718 7.58399 81.7603 7.1372 81.7603 6.61022V4.90325C81.7603 3.27647 80.8668 2.96715 80.0305 2.96715C79.0911 2.96715 78.1402 3.62016 78.1402 4.23879C78.1402 4.51374 78.2777 4.63975 78.5412 4.63975C78.8734 4.63975 79.0452 4.41063 79.0452 4.2617C79.0452 4.18151 79.0338 4.10131 79.0109 4.05549C78.9994 4.02112 78.9879 3.95238 78.9879 3.82637C78.9879 3.47122 79.5035 3.34521 79.9388 3.34521C80.3283 3.34521 80.8668 3.53996 80.8668 4.83451C80.8668 4.9147 80.8324 4.96053 80.798 4.97198L79.8128 5.21256C78.713 5.48751 77.9225 6.09469 77.9225 6.87371C77.9225 7.77875 78.5641 8.11098 79.366 8.11098C79.893 8.11098 80.1107 8.01933 80.6147 7.62982L80.8438 7.44652H80.8668ZM83.6529 4.36481V6.59876C83.6529 7.54962 83.5154 7.59545 82.8051 7.64127C82.7364 7.71001 82.7364 7.95059 82.8051 8.01933C83.2863 8.00787 83.6529 7.99642 84.1111 7.99642C84.5808 7.99642 85.0047 8.00787 85.4973 8.01933C85.5661 7.95059 85.5661 7.71001 85.4973 7.64127C84.6954 7.58399 84.5579 7.54962 84.5579 6.59876V5.00635C84.5579 4.70849 84.6954 4.445 84.8329 4.23879C84.9589 4.05549 85.2224 3.67744 85.3598 3.67744C85.44 3.67744 85.5317 3.68889 85.6004 3.75763C85.715 3.87219 85.8296 4.08986 86.0701 4.08986C86.3451 4.08986 86.6086 3.80345 86.6086 3.51705C86.6086 3.29938 86.4024 2.96715 85.9212 2.96715C85.3828 2.96715 84.9131 3.47122 84.6496 3.91802C84.5808 4.04403 84.5465 3.98675 84.5465 3.92947C84.5465 3.56287 84.6037 3.01298 84.6037 3.01298C84.6037 2.96715 84.5465 2.93278 84.4548 2.93278C84.134 3.0588 83.6758 3.16191 82.8853 3.26501C82.8624 3.33375 82.8624 3.51705 82.9082 3.58579C83.5269 3.64307 83.6529 3.73472 83.6529 4.36481ZM87.551 1.13416C87.551 1.43202 87.8259 1.72988 88.1009 1.72988C88.4216 1.72988 88.6966 1.43202 88.6966 1.17999C88.6966 0.905039 88.456 0.584265 88.1467 0.584265C87.8717 0.584265 87.551 0.859214 87.551 1.13416ZM88.5935 6.59876V4.31898C88.5935 3.74617 88.6393 3.01298 88.6393 3.01298C88.6393 2.96715 88.582 2.93278 88.4904 2.93278C88.1581 3.0588 87.7113 3.16191 86.9209 3.26501C86.898 3.33375 86.9209 3.51705 86.9438 3.58579C87.5624 3.65452 87.6884 3.7118 87.6884 4.36481V6.59876C87.6884 7.54962 87.5624 7.58399 86.8636 7.64127C86.7949 7.71001 86.7949 7.95059 86.8636 8.01933C87.3447 8.00787 87.6426 7.99642 88.1467 7.99642C88.6393 7.99642 88.9257 8.00787 89.4183 8.01933C89.4871 7.95059 89.4871 7.71001 89.4183 7.64127C88.7195 7.59545 88.5935 7.54962 88.5935 6.59876ZM92.5094 3.08171C92.349 3.08171 92.3032 3.21919 92.3032 3.31084V3.45977C92.3032 3.51705 92.3146 3.5285 92.3605 3.5285H93.0364V6.97682C93.0364 7.7902 93.3915 8.11098 93.9185 8.11098C94.4455 8.11098 95.0183 7.85894 95.4651 7.35487C95.4422 7.24031 95.3734 7.17157 95.2589 7.16012C94.961 7.38924 94.6173 7.48089 94.3195 7.48089C94.0102 7.48089 93.9414 7.1372 93.9414 6.42692V3.5285H95.1329C95.2474 3.5285 95.4078 3.48268 95.4078 3.37957V3.15045C95.4078 3.10463 95.3735 3.08171 95.3162 3.08171H93.9414V2.63492C93.9414 1.89027 93.9872 1.43202 93.9872 1.43202C93.9872 1.35183 93.9414 1.31746 93.8383 1.31746L93.1739 1.62678C93.1051 1.66115 93.002 1.68406 93.0135 1.76425C93.0364 2.02774 93.0364 2.13085 93.0364 3.08171H92.5094ZM96.434 1.13416C96.434 1.43202 96.7089 1.72988 96.9839 1.72988C97.3046 1.72988 97.5796 1.43202 97.5796 1.17999C97.5796 0.905039 97.339 0.584265 97.0297 0.584265C96.7548 0.584265 96.434 0.859214 96.434 1.13416ZM97.4765 6.59876V4.31898C97.4765 3.74617 97.5223 3.01298 97.5223 3.01298C97.5223 2.96715 97.465 2.93278 97.3734 2.93278C97.0412 3.0588 96.5944 3.16191 95.8039 3.26501C95.781 3.33375 95.8039 3.51705 95.8268 3.58579C96.4454 3.65452 96.5715 3.7118 96.5715 4.36481V6.59876C96.5715 7.54962 96.4454 7.58399 95.7466 7.64127C95.6779 7.71001 95.6779 7.95059 95.7466 8.01933C96.2278 8.00787 96.5256 7.99642 97.0297 7.99642C97.5223 7.99642 97.8087 8.00787 98.3013 8.01933C98.3701 7.95059 98.3701 7.71001 98.3013 7.64127C97.6025 7.59545 97.4765 7.54962 97.4765 6.59876ZM99.7523 0C99.3971 0 99.1451 0.24058 99.1451 0.561353C99.1451 0.92795 99.443 1.03106 99.6492 1.06543C99.8668 1.08834 100.062 1.15707 100.062 1.42057C100.062 1.66115 99.6492 2.18813 99.0534 2.33706C99.0534 2.45162 99.0764 2.53182 99.1565 2.61201C99.8439 2.48599 100.508 1.93609 100.508 1.13416C100.508 0.446792 100.211 0 99.7523 0ZM104.458 5.32713V6.8508C104.458 6.99973 104.389 7.07992 104.297 7.14866C104 7.38924 103.61 7.64127 103.289 7.64127C102.717 7.64127 102.464 7.18303 102.464 6.82789C102.464 6.31236 102.705 5.79683 103.553 5.56771L104.458 5.32713ZM104.458 7.44652C104.527 7.6871 104.721 8.11098 105.34 8.11098C105.901 8.11098 106.314 7.65273 106.314 7.59545C106.314 7.51526 106.211 7.4007 106.165 7.4007C106.096 7.4007 106.05 7.58399 105.81 7.58399C105.363 7.58399 105.351 7.1372 105.351 6.61022V4.90325C105.351 3.27647 104.458 2.96715 103.622 2.96715C102.682 2.96715 101.731 3.62016 101.731 4.23879C101.731 4.51374 101.869 4.63975 102.132 4.63975C102.464 4.63975 102.636 4.41063 102.636 4.2617C102.636 4.18151 102.625 4.10131 102.602 4.05549C102.59 4.02112 102.579 3.95238 102.579 3.82637C102.579 3.47122 103.095 3.34521 103.53 3.34521C103.919 3.34521 104.458 3.53996 104.458 4.83451C104.458 4.9147 104.423 4.96053 104.389 4.97198L103.404 5.21256C102.304 5.48751 101.514 6.09469 101.514 6.87371C101.514 7.77875 102.155 8.11098 102.957 8.11098C103.484 8.11098 103.702 8.01933 104.206 7.62982L104.435 7.44652H104.458ZM108.275 4.23879C108.722 3.80345 109.088 3.56287 109.444 3.56287C109.879 3.56287 110.2 3.83782 110.2 4.60539V6.59876C110.2 7.53817 110.108 7.59545 109.489 7.64127C109.432 7.71001 109.432 7.95059 109.489 8.01933C109.971 8.00787 110.2 7.99642 110.658 7.99642C111.128 7.99642 111.288 8.00787 111.781 8.01933C111.838 7.95059 111.838 7.71001 111.781 7.64127C111.208 7.59545 111.105 7.53817 111.105 6.59876V4.77723C111.105 4.61684 111.105 4.45646 111.093 4.31898C111.643 3.7118 112.09 3.56287 112.537 3.56287C112.972 3.56287 113.247 3.81491 113.247 4.58247V6.59876C113.247 7.53817 113.132 7.59545 112.537 7.64127C112.479 7.71001 112.479 7.95059 112.537 8.01933C113.018 8.00787 113.247 7.99642 113.705 7.99642C114.175 7.99642 114.393 8.00787 114.885 8.01933C114.943 7.95059 114.943 7.71001 114.885 7.64127C114.255 7.59545 114.152 7.53817 114.152 6.59876V4.78869C114.152 3.76909 113.957 2.96715 112.949 2.96715C112.353 2.96715 111.723 3.18482 111.128 3.81491C111.093 3.84928 111.025 3.90656 111.002 3.81491C110.887 3.34521 110.452 2.96715 109.856 2.96715C109.192 2.96715 108.687 3.36812 108.183 3.8951C108.138 3.94093 108.069 4.05549 108.069 3.8951C108.069 3.55142 108.126 3.02443 108.126 3.02443C108.126 2.96715 108.08 2.93278 107.989 2.93278C107.656 3.0588 107.198 3.16191 106.408 3.26501C106.385 3.33375 106.408 3.51705 106.431 3.58579C107.049 3.65452 107.175 3.70035 107.175 4.36481V6.59876C107.175 7.53817 107.026 7.59545 106.396 7.64127C106.327 7.71001 106.327 7.95059 106.396 8.01933C106.866 8.00787 107.141 7.99642 107.633 7.99642C108.08 7.99642 108.275 8.00787 108.756 8.01933C108.825 7.95059 108.825 7.71001 108.756 7.64127C108.183 7.58399 108.08 7.53817 108.08 6.59876V4.71995C108.08 4.47937 108.183 4.34189 108.275 4.23879ZM118.476 2.06211C118.625 2.06211 118.751 1.82153 118.751 1.68406C118.751 1.61532 118.705 1.4893 118.591 1.4893H116.013C115.887 1.4893 115.761 1.71843 115.761 1.8559C115.761 1.9361 115.807 2.06211 115.91 2.06211H118.476ZM118.144 5.32713V6.8508C118.144 6.99973 118.075 7.07992 117.984 7.14866C117.686 7.38924 117.296 7.64127 116.976 7.64127C116.403 7.64127 116.151 7.18303 116.151 6.82789C116.151 6.31236 116.391 5.79683 117.239 5.56771L118.144 5.32713ZM118.144 7.44652C118.213 7.6871 118.408 8.11098 119.026 8.11098C119.588 8.11098 120 7.65273 120 7.59545C120 7.51526 119.897 7.4007 119.851 7.4007C119.782 7.4007 119.737 7.58399 119.496 7.58399C119.049 7.58399 119.038 7.1372 119.038 6.61022V4.90325C119.038 3.27647 118.144 2.96715 117.308 2.96715C116.368 2.96715 115.418 3.62016 115.418 4.23879C115.418 4.51374 115.555 4.63975 115.818 4.63975C116.151 4.63975 116.323 4.41063 116.323 4.2617C116.323 4.18151 116.311 4.10131 116.288 4.05549C116.277 4.02112 116.265 3.95238 116.265 3.82637C116.265 3.47122 116.781 3.34521 117.216 3.34521C117.606 3.34521 118.144 3.53996 118.144 4.83451C118.144 4.9147 118.11 4.96053 118.075 4.97198L117.09 5.21256C115.99 5.48751 115.2 6.09469 115.2 6.87371C115.2 7.77875 115.841 8.11098 116.643 8.11098C117.17 8.11098 117.388 8.01933 117.892 7.62982L118.121 7.44652H118.144Z" fill="black"/>
</svg>
