<?xml version="1.0" encoding="UTF-8"?>
<svg width="120px" height="11px" viewBox="0 0 120 11" version="1.1" xmlns="http://www.w3.org/2000/svg" xmlns:xlink="http://www.w3.org/1999/xlink">
    <title>kbp-tagline</title>
    <g id="Page-1" stroke="none" stroke-width="1" fill="none" fill-rule="evenodd">
        <path d="M116.981316,4.13842919 C116.981316,3.58957029 117.02519,2.88706156 117.02519,2.88706156 C117.02519,2.84318755 116.970323,2.81020639 116.882484,2.81020639 C116.56414,2.93095575 116.136031,3.02974793 115.378563,3.12854011 C115.356576,3.19440157 115.378563,3.37003884 115.400551,3.43591038 C115.993324,3.50177183 116.114073,3.55664965 116.114073,4.18235364 L116.114073,5.60941906 C116.114073,6.78403238 116.366546,7.77195419 117.837465,7.77195419 C118.913236,7.77195419 120,6.83889003 120,4.92891794 C120,3.61168885 119.57189,2.81035768 118.880355,2.81035768 C118.693744,2.81035768 118.507124,2.95306422 118.507124,3.13967504 C118.507124,3.39214731 118.660804,3.5458274 118.880355,3.66657676 C119.198689,3.84221403 119.549964,4.00686766 119.549964,5.06066102 C119.549964,6.13643173 118.946217,7.34392534 117.936307,7.34392534 C117.113019,7.34392534 116.981286,6.54259417 116.981286,5.43384231 L116.981286,4.1384998 L116.981316,4.13842919 Z M113.303665,5.104414 L113.303665,6.553366 C113.303665,6.69607254 113.237804,6.77290754 113.149985,6.838769 C112.864572,7.06929417 112.49135,7.32176644 112.18399,7.32176644 C111.635131,7.32176644 111.393633,6.88268336 111.393633,6.54239245 C111.393633,6.04841137 111.624158,5.54346683 112.436422,5.33489883 L113.303625,5.10437366 L113.303665,5.104414 Z M113.303665,7.13522623 C113.369527,7.47551713 113.479302,7.77192394 114.039135,7.77192394 C114.456271,7.77192394 114.85145,7.58529295 115.081924,7.3657514 C115.059937,7.23401841 115.016063,7.14620986 114.895314,7.06936477 C114.807465,7.14621995 114.620884,7.24500204 114.489161,7.24500204 C114.170818,7.24500204 114.159844,6.8168925 114.159844,6.31193788 L114.159844,4.69828181 C114.159844,3.13949349 113.303625,2.84316737 112.502314,2.84316737 C111.602191,2.84316737 110.691073,3.43594064 110.691073,4.06165471 C110.691073,4.32511061 110.822796,4.45683352 111.075279,4.45683352 C111.393612,4.45683352 111.591207,4.22631843 111.591207,4.08361189 C111.591207,4.00675672 111.580213,3.9299318 111.558226,3.88601744 C111.547232,3.85303628 111.536238,3.78727569 111.536238,3.6664759 C111.536238,3.32618499 111.997279,3.20543563 112.414415,3.20543563 C112.787636,3.20543563 113.303564,3.39204645 113.303564,4.63250105 C113.303564,4.70935622 113.270684,4.75325041 113.237703,4.76422396 L112.293665,4.99474913 C111.239882,5.25819495 110.482425,5.83999466 110.482425,6.58641776 C110.482425,7.4865512 111.097145,7.77192394 111.865515,7.77192394 C112.238737,7.77192394 112.579028,7.68407504 113.062015,7.31088367 L113.281557,7.1352464 L113.303544,7.1352464 L113.303665,7.13522623 Z M108.331983,7.77190376 C108.452732,9.30870465 109.144298,9.72586082 109.748054,9.72586082 C110.681109,9.72586082 111.021409,9.23188982 111.021409,8.89159892 C111.021409,8.65010019 110.878703,8.49642011 110.648178,8.49642011 C110.351801,8.49642011 110.198111,8.69400447 110.143233,8.92452964 C110.077372,9.15505482 110.022484,9.37459636 109.693167,9.37459636 C109.374823,9.37459636 109.144308,9.04527901 109.144308,7.35477786 L109.144308,6.38879305 L109.144308,6.24608651 L109.144308,1.2624017 C109.144308,0.548889159 109.177289,0.109775815 109.177289,0.109775815 C109.177289,0.0329206412 109.133415,0 109.034582,0 C108.749179,0.109775815 107.991793,0.252482356 107.552649,0.285413084 L107.574637,0.548868987 C107.574637,0.581850144 107.596624,0.603736722 107.640498,0.603736722 L107.991773,0.62572416 C108.211314,0.62572416 108.32109,0.768430702 108.32109,1.48194324 L108.32109,3.08460558 C108.068608,2.94189904 107.58562,2.84310686 107.366069,2.84310686 C106.641572,2.84310686 106.158575,3.08460558 105.719532,3.50174157 C105.247518,3.97375539 104.984062,4.6213863 104.984062,5.43371119 C104.984062,6.78392143 105.642697,7.77184325 106.828183,7.77184325 C107.267266,7.77184325 107.816125,7.4205788 108.32111,7.01441635 L108.32111,7.26689871 L108.32111,7.57425888 L108.32111,7.79380043 L108.332104,7.77181299 L108.331983,7.77190376 Z M108.320989,6.24609659 L108.320989,6.63030186 C107.827008,7.02548067 107.398898,7.25599576 107.113495,7.25599576 C106.520732,7.25599576 105.916995,6.60834468 105.916995,5.23617725 C105.916995,4.44581963 106.059692,4.0066962 106.224356,3.77623154 C106.564647,3.26030337 107.025687,3.22737264 107.245259,3.22737264 C107.761187,3.22737264 108.057573,3.45788773 108.321029,3.87502372 L108.321029,6.24613694 L108.320989,6.24609659 Z M102.755242,5.10446443 L102.755242,6.55341643 C102.755242,6.69612297 102.689381,6.77295797 102.601552,6.83881943 C102.316149,7.0693446 101.942927,7.32181687 101.635567,7.32181687 C101.086708,7.32181687 100.84521,6.88273379 100.84521,6.54244288 C100.84521,6.0484618 101.075725,5.54351726 101.887999,5.33494926 L102.755202,5.10442409 L102.755242,5.10446443 Z M102.755242,7.13527666 C102.821104,7.47556756 102.930869,7.77197437 103.490712,7.77197437 C103.907838,7.77197437 104.303017,7.58534338 104.533502,7.36580183 C104.511514,7.23406884 104.46764,7.14626029 104.346891,7.0694152 C104.259042,7.14627038 104.072461,7.24505247 103.940738,7.24505247 C103.622395,7.24505247 103.611421,6.81694293 103.611421,6.31198831 L103.611421,4.69833224 C103.611421,3.13954392 102.755202,2.8432178 101.953891,2.8432178 C101.053768,2.8432178 100.14265,3.43599107 100.14265,4.06170514 C100.14265,4.32516104 100.274373,4.45688395 100.526846,4.45688395 C100.845189,4.45688395 101.042774,4.22636886 101.042774,4.08366232 C101.042774,4.00680715 101.03178,3.92998223 101.009793,3.88606787 C100.998799,3.85308671 100.987805,3.78732612 100.987805,3.66652633 C100.987805,3.32623542 101.448856,3.20548606 101.865981,3.20548606 C102.239213,3.20548606 102.755141,3.39209688 102.755141,4.63255148 C102.755141,4.70940665 102.72216,4.75330084 102.68928,4.76427439 L101.745242,4.99479956 C100.691459,5.25824538 99.9340018,5.84004509 99.9340018,6.58646819 C99.9340018,7.48660163 100.548722,7.77197437 101.317092,7.77197437 C101.690314,7.77197437 102.030615,7.68412547 102.513592,7.3109341 L102.733134,7.13529683 L102.755121,7.13529683 L102.755242,7.13527666 Z M95.4761899,4.53369878 C95.4761899,4.29220006 95.5749317,4.16046706 95.6628008,4.06167488 C96.0799367,3.65552252 96.6287956,3.4140238 97.0678787,3.4140238 C97.2874203,3.4140238 97.5179354,3.56770389 97.6496684,3.80920261 C97.7594341,4.02874415 97.7813913,4.32513078 97.7813913,4.65444814 L97.7813913,6.32297194 C97.7813913,7.22310538 97.6716155,7.26701974 97.1008095,7.32189756 C97.0459417,7.38775901 97.0459417,7.61828419 97.1008095,7.68416582 C97.4081696,7.67315193 97.7813913,7.66215821 98.2204542,7.66215821 C98.6595474,7.66215821 99.0217954,7.67315193 99.3840738,7.68416582 C99.4389415,7.61828419 99.4389415,7.38775901 99.3840738,7.32189756 C98.7693534,7.26702982 98.6486041,7.22315581 98.6486041,6.32297194 L98.6486041,4.6874293 C98.6486041,4.08368249 98.60473,3.55679086 98.3522174,3.21648987 C98.1656066,2.97499114 97.8253056,2.84326823 97.4411104,2.84326823 C96.8922515,2.84326823 96.2446106,2.98597478 95.5750023,3.73241804 C95.5311283,3.77629206 95.4652366,3.88609813 95.4652366,3.73241804 L95.4762303,1.26256307 C95.4762303,0.549050535 95.5201043,0.10993719 95.5201043,0.10993719 C95.5201043,0.0330820169 95.4762303,0.000161375692 95.3773978,0.000161375692 C95.1029683,0.10993719 94.2796396,0.263617279 93.8405969,0.296548006 C93.8186094,0.384396899 93.8405969,0.56000391 93.9064583,0.625865364 C94.4772643,0.658745661 94.6089973,0.603877926 94.6089973,1.5259988 L94.6089973,6.32299211 C94.6089973,7.2340991 94.4772643,7.27801346 93.8405868,7.32191773 C93.7747253,7.38777919 93.7747253,7.61830436 93.8405868,7.68416582 C94.2028349,7.6731721 94.6089973,7.66217838 95.0480804,7.66217838 C95.4652164,7.66217838 95.8164808,7.6731721 96.1238511,7.68416582 C96.1897126,7.61830436 96.1897126,7.38777919 96.1238511,7.32191773 C95.5749821,7.27804372 95.4761899,7.23406884 95.4761899,6.32299211 L95.4761899,4.53373912 L95.4761899,4.53369878 Z M87.8751931,6.33394549 C87.8751931,5.71922513 88.2374412,5.35697705 88.8521616,5.35697705 C88.9509537,5.35697705 89.3241855,5.4228385 89.411994,5.4228385 C89.6644663,5.4228385 89.7413114,5.30208914 89.7413114,5.17036623 C89.7413114,5.03863324 89.6315355,4.93984105 89.4229776,4.93984105 C89.3680897,4.93984105 88.8741187,4.99470879 88.8631452,4.99470879 C88.3911213,4.99470879 87.9959526,4.75321007 87.9959526,3.99578317 C87.9959526,3.271287 88.4899236,3.20542554 88.8302145,3.20542554 C89.258324,3.20542554 89.4449348,3.43595072 89.5656842,3.67743936 C89.67546,3.86406026 89.7852257,4.03968744 90.0267244,4.03968744 C90.169431,4.03968744 90.377999,3.95183855 90.377999,3.63353508 C90.377999,3.23835627 89.7413214,2.84317746 88.8960658,2.84317746 C87.6007233,2.84317746 87.2165483,3.63353508 87.2165483,4.07265851 C87.2165483,4.61054387 87.5019513,4.91790405 88.0069059,5.12644178 L88.0069059,5.14842922 C87.2165483,5.42285867 87.0079803,6.0046483 87.0079803,6.42178429 C87.0079803,7.05846183 87.3702284,7.77199454 88.8192207,7.77199454 C89.5107862,7.77199454 90.1035695,7.45366081 90.4657571,7.11335982 C90.4547836,7.00359409 90.3889221,6.91577546 90.3011035,6.88284473 C89.8729939,7.17923136 89.4558579,7.35485854 88.9398995,7.35485854 C88.3361527,7.35485854 87.8751225,6.91577546 87.8751225,6.33395557 L87.8751931,6.33394549 Z M83.1257048,9.41854098 C83.2903584,9.12216444 83.433065,8.80382063 83.5757715,8.47450327 C84.4539478,6.35594301 84.9369755,5.23619743 85.5187348,3.99582351 C85.7273028,3.53478325 85.8919565,3.35914598 86.4078846,3.29328452 C86.4737461,3.22742307 86.4737461,2.99689789 86.4078846,2.93103644 C86.1883431,2.94203016 85.9358607,2.95302388 85.6285006,2.95302388 C85.2991832,2.95302388 84.9588923,2.94203016 84.6295749,2.93103644 C84.5637135,2.99689789 84.5637135,3.22742307 84.6295749,3.29328452 C84.9698658,3.32626568 85.3321139,3.39202627 85.1564767,3.78725552 L84.0587185,6.30108536 C83.9818734,6.48769618 83.8940548,6.50965336 83.7952626,6.29009164 L82.8292677,4.00682732 C82.6316834,3.54578705 82.5767954,3.34820269 83.1915158,3.29331478 C83.2573773,3.22745333 83.2573773,2.99692815 83.1915158,2.93103644 C82.7853634,2.94206042 82.3462703,2.95305413 81.9511419,2.95305413 C81.5779203,2.95305413 81.2815336,2.94206042 81.0619921,2.93103644 C80.9961306,2.99692815 80.9961306,3.22745333 81.0619921,3.29331478 C81.4901016,3.34818252 81.6328082,3.44699487 81.9182112,4.11660313 L83.1695788,7.00361426 C83.2573974,7.23412936 83.4330347,7.72811043 83.3232589,8.03551096 C83.191536,8.40873259 83.059803,8.70511922 82.8951493,9.04542021 C82.7744,9.26496175 82.6207199,9.36375393 82.3462904,9.36375393 C82.1926104,9.36375393 82.1487061,9.33087364 82.0279567,9.33087364 C81.709623,9.33087364 81.5449593,9.66019099 81.5449593,9.80289754 C81.5449593,10.0334227 81.7645008,10.2090499 82.0608874,10.2090499 C82.2914126,10.2090499 82.7304957,10.121201 83.1256644,9.41869227 L83.1257048,9.41854098 Z M77.86284,6.33394549 C77.86284,5.71922513 78.2250881,5.35697705 78.8398085,5.35697705 C78.9386006,5.35697705 79.3118324,5.4228385 79.3996409,5.4228385 C79.6521132,5.4228385 79.7289583,5.30208914 79.7289583,5.17036623 C79.7289583,5.03863324 79.6191824,4.93984105 79.4106245,4.93984105 C79.3557366,4.93984105 78.8617656,4.99470879 78.8507921,4.99470879 C78.3787682,4.99470879 77.9835995,4.75321007 77.9835995,3.99578317 C77.9835995,3.271287 78.4775705,3.20542554 78.8178614,3.20542554 C79.2459709,3.20542554 79.4325817,3.43595072 79.5533311,3.67743936 C79.6631069,3.86406026 79.7728726,4.03968744 80.0143713,4.03968744 C80.1570779,4.03968744 80.3656459,3.95183855 80.3656459,3.63353508 C80.3656459,3.23835627 79.7289683,2.84317746 78.8837127,2.84317746 C77.5883702,2.84317746 77.2041952,3.63353508 77.2041952,4.07265851 C77.2041952,4.61054387 77.4895982,4.91790405 77.9945528,5.12644178 L77.9945528,5.14842922 C77.2041952,5.42285867 76.9956272,6.0046483 76.9956272,6.42178429 C76.9956272,7.05846183 77.3578753,7.77199454 78.8068676,7.77199454 C79.4984331,7.77199454 80.0912164,7.45366081 80.453404,7.11335982 C80.4424305,7.00359409 80.376569,6.91577546 80.2887504,6.88284473 C79.8606408,7.17923136 79.4435048,7.35485854 78.9275464,7.35485854 C78.3237996,7.35485854 77.8627694,6.91577546 77.8627694,6.33395557 L77.86284,6.33394549 Z M73.0198546,3.67749987 C73.3052576,3.4250276 73.634575,3.32623542 73.9529188,3.32623542 C74.6225271,3.32623542 75.1714061,4.13855023 75.1714061,5.2033373 C75.1714061,6.45470493 74.6664515,7.39875273 73.6236115,7.39875273 C73.2833206,7.39875273 73.0527954,7.15725401 72.8332539,6.88282456 L72.8332539,4.13853005 C72.8332539,3.90800488 72.8771582,3.8092127 73.0198647,3.6774797 L73.0198546,3.67749987 Z M72.9430095,3.33720897 C72.8661645,3.40307042 72.8332337,3.38108299 72.8332337,3.28234123 L72.8332337,1.26252273 C72.8332337,0.549010191 72.877138,0.109896846 72.877138,0.109896846 C72.877138,0.033041673 72.8332337,0.000121031769 72.7344315,0.000121031769 C72.460002,0.109896846 71.6366733,0.263576935 71.1976306,0.296507662 C71.1756734,0.384356555 71.1976306,0.559963566 71.263492,0.62582502 C71.8343081,0.658705317 71.966031,0.603837582 71.966031,1.52595846 L71.966031,6.88282456 C71.966031,7.3109341 71.9550575,7.50851846 71.9221267,7.66220864 C71.9770147,7.75005753 72.0319026,7.79393155 72.1636255,7.79393155 C72.2294869,7.73906381 72.3392627,7.62926782 72.4160977,7.53047564 C72.5368471,7.39875273 72.6027086,7.39875273 72.7234579,7.5084882 C72.9649566,7.7170562 73.294274,7.77194411 73.6894528,7.77194411 C74.8090975,7.77194411 76.1154338,6.75104113 76.1154338,5.00566216 C76.1154338,3.66644564 75.1274918,2.84312703 74.1724704,2.84312703 C73.7004465,2.84312703 73.2833206,3.02973785 72.9429894,3.33709802 L72.9430095,3.33720897 Z M69.1229443,4.59957032 C69.1229443,5.62047329 68.6070162,5.82905138 68.2008638,5.82905138 C67.2787833,5.82905138 67.1799608,5.04967738 67.1799608,4.34711822 C67.1799608,3.57871778 67.4543903,3.18349862 68.0581371,3.18349862 C68.7497025,3.18349862 69.1229141,3.68845325 69.1229141,4.59957032 L69.1229443,4.59957032 Z M67.0702455,7.77201471 C67.1909949,7.80489501 67.3666322,7.82688244 67.5093286,7.82688244 C67.8496195,7.82688244 68.1569797,7.79400215 68.3106598,7.79400215 C68.8595187,7.79400215 69.320569,7.80499587 69.6388826,7.98061296 C70.0669921,8.22211169 70.198715,8.37579178 70.198715,8.66119477 C70.198715,9.4515524 69.0350954,9.86868839 68.0471736,9.86868839 C67.6519948,9.86868839 66.7299445,9.55035466 66.7299445,8.8039114 C66.7299445,8.43068977 66.7519017,8.15626032 67.0702354,7.77201471 L67.0702455,7.77201471 Z M70.495142,3.41406414 C70.70371,3.41406414 70.9012944,3.21646969 70.9012944,2.99692815 C70.9012944,2.76640297 70.6927264,2.59077579 70.3963398,2.59077579 C70.1109368,2.59077579 69.5840249,2.77738661 69.2985816,3.15060824 C69.1668587,3.06275935 68.8046106,2.84324806 68.1569494,2.84324806 C67.179981,2.84324806 66.2798476,3.50188278 66.2798476,4.51177186 C66.2798476,5.10453503 66.5433035,5.44483602 66.8506636,5.74125291 C66.5433035,6.00470882 66.3676662,6.47673272 66.3676662,6.84990392 C66.3676662,7.24508273 66.5872077,7.55244291 66.8726208,7.69514945 C66.2798476,8.0464139 65.9724874,8.55136853 65.9724874,9.02337226 C65.9724874,9.9783936 66.8726208,10.2747399 67.7178664,10.2747399 C69.1997995,10.2747399 70.8024619,9.56122735 70.8024619,8.37565057 C70.8024619,8.02437603 70.6378082,7.74994658 70.3194644,7.48650077 C69.8913549,7.13522623 69.1229645,7.12425268 68.7168021,7.12425268 C68.5192177,7.12425268 68.2447782,7.14624012 67.9813323,7.17912042 C67.8166787,7.19011414 67.7069029,7.20110785 67.652015,7.20110785 C67.3336813,7.20110785 66.949476,7.04742777 66.949476,6.57541395 C66.949476,6.35587241 67.0153375,6.12534723 67.1470604,5.93873642 C67.4105163,6.09241651 67.7178764,6.16925151 68.145986,6.16925151 C69.1119809,6.16925151 70.0011004,5.56551478 70.0011004,4.48973399 C70.0011004,3.97380582 69.8474203,3.67741919 69.5290765,3.34810183 C69.6059115,3.23832601 69.8254632,3.08464593 69.9681596,3.08464593 C70.0449946,3.08464593 70.1218397,3.11752622 70.1877012,3.21636883 C70.2316054,3.30421773 70.374312,3.41396328 70.4950613,3.41396328 L70.495142,3.41406414 Z M61.7535216,3.73239787 C61.7535216,3.29331478 61.7096174,3.01888533 61.665703,2.89813597 C61.6327723,2.85426195 61.6217987,2.81028708 61.5339801,2.81028708 C61.2266199,2.93103644 60.9082761,3.02982862 60.1508896,3.1286208 C60.1289324,3.19448226 60.1508896,3.37011952 60.1728467,3.43599107 C60.76562,3.4908588 60.8863694,3.54575679 60.8863694,4.18243433 L60.8863694,6.32298203 C60.8863694,7.22311546 60.7765935,7.26702982 60.1179689,7.32190765 C60.0521075,7.3877691 60.0521075,7.61829428 60.1179689,7.68415573 C60.5680356,7.67316201 60.8534386,7.66216829 61.3254625,7.66216829 C61.7535721,7.66216829 61.9511665,7.67316201 62.412227,7.68415573 C62.4780884,7.61829428 62.4780884,7.3877691 62.412227,7.32190765 C61.8523945,7.26703991 61.7535922,7.22316589 61.7535922,6.32298203 L61.7535922,4.52273532 C61.7535922,4.29222023 61.8523844,4.16048723 61.9402031,4.06169505 C62.357339,3.65554269 62.85131,3.41404397 63.2794196,3.41404397 C63.4989611,3.41404397 63.7294863,3.55674043 63.8612092,3.80922278 C63.970985,4.02876433 63.9929321,4.32515096 63.9929321,4.65446831 L63.9929321,6.82799717 C63.9929321,8.27694916 63.9490278,9.62715941 63.4001589,9.62715941 C63.2794095,9.62715941 63.1367029,9.58328539 63.0598679,9.50641005 C62.9500921,9.39664432 62.8183692,9.22100705 62.5768705,9.22100705 C62.4561211,9.22100705 62.225596,9.44054859 62.225596,9.63814304 C62.225596,9.95647677 62.6207748,10.1101569 62.8293428,10.1101569 C63.0598679,10.1101569 63.6306739,10.0772766 64.0368364,9.73693522 C64.5527646,9.31979923 64.8601247,8.52944161 64.8601247,6.45475536 L64.8601247,4.68738896 C64.8601247,4.08364215 64.8162104,3.55675051 64.5637381,3.21644952 C64.3771273,2.9749508 64.0368364,2.84322789 63.6526311,2.84322789 C63.1147458,2.84322789 62.5219927,2.98593443 61.8523844,3.7323777 C61.8194537,3.77625171 61.7535922,3.88605778 61.7535922,3.7323777 L61.7535216,3.73239787 Z M55.1174506,1.08684511 C55.1174506,1.3722582 55.3809065,1.6576612 55.6443523,1.6576612 C55.9517125,1.6576612 56.2151684,1.3722582 56.2151684,1.13075947 C56.2151684,0.867303571 55.9846432,0.559943394 55.6882667,0.559943394 C55.4248108,0.559943394 55.1174506,0.823399297 55.1174506,1.08684511 Z M56.1163762,6.32298203 L56.1163762,4.13856031 C56.1163762,3.58970141 56.1602805,2.88719268 56.1602805,2.88719268 C56.1602805,2.84331866 56.1053926,2.81033751 56.0175739,2.81033751 C55.6992402,2.93108687 55.2711206,3.02987905 54.5136534,3.12867123 C54.4916962,3.19453269 54.5136534,3.37016995 54.5356105,3.43604149 C55.1283838,3.50190295 55.2491231,3.55678077 55.2491231,4.18248476 L55.2491231,6.32303246 C55.2491231,7.23413944 55.1283737,7.26708025 54.4587654,7.32195808 C54.392904,7.38781953 54.392904,7.61834471 54.4587654,7.68420616 C54.8210135,7.67321244 55.2491231,7.66221872 55.6882465,7.66221872 C56.1273296,7.66221872 56.5444656,7.67321244 56.9067338,7.68420616 C56.9725953,7.61834471 56.9725953,7.38781953 56.9067338,7.32195808 C56.2371256,7.27808406 56.1163762,7.23410918 56.1163762,6.32303246 L56.1163762,6.32298203 Z M52.1587382,1.08684511 C52.1587382,1.3722582 52.4221941,1.6576612 52.6856399,1.6576612 C52.9930001,1.6576612 53.256456,1.3722582 53.256456,1.13075947 C53.256456,0.867303571 53.0259309,0.559943394 52.7295543,0.559943394 C52.4660984,0.559943394 52.1587382,0.823399297 52.1587382,1.08684511 Z M53.1576638,6.32298203 L53.1576638,4.13856031 C53.1576638,3.58970141 53.2015681,2.88719268 53.2015681,2.88719268 C53.2015681,2.84331866 53.1466802,2.81033751 53.0588616,2.81033751 C52.7405279,2.93108687 52.3124183,3.02987905 51.554941,3.12867123 C51.5329838,3.19453269 51.554941,3.37016995 51.5768982,3.43604149 C52.1696714,3.50190295 52.2904208,3.55678077 52.2904208,4.18248476 L52.2904208,6.32303246 C52.2904208,7.23413944 52.1696714,7.26708025 51.5000632,7.32195808 C51.4342017,7.38781953 51.4342017,7.61834471 51.5000632,7.68420616 C51.8623113,7.67321244 52.2904208,7.66221872 52.7295442,7.66221872 C53.1686273,7.66221872 53.5857633,7.67321244 53.9480316,7.68420616 C54.013893,7.61834471 54.013893,7.38781953 53.9480316,7.32195808 C53.2784233,7.27808406 53.1576739,7.23410918 53.1576739,6.32303246 L53.1576638,6.32298203 Z M49.404973,6.30099459 C49.404973,6.50956258 49.3830158,6.59737113 49.2293357,6.72910413 C48.8231834,7.08036858 48.4719088,7.25600585 48.197439,7.25600585 C47.6046658,7.25600585 46.9899454,6.60835477 46.9899454,5.23618734 C46.9899454,4.44582972 47.1436255,4.00670629 47.3082791,3.77624163 C47.64857,3.26031345 48.1096103,3.22738273 48.3291821,3.22738273 C48.7243609,3.22738273 48.9987904,3.37007918 49.2183319,3.62256154 C49.372012,3.79818872 49.4049427,3.87503381 49.4049427,4.21532471 L49.4049427,6.30100467 L49.404973,6.30099459 Z M49.2842236,7.11329931 C49.3281279,7.06942529 49.4379037,7.04743785 49.4488773,7.12429302 C49.4708344,7.39872248 49.5696266,7.77194411 49.5696266,7.77194411 C49.6574453,7.8048244 49.7123332,7.8048244 49.7781946,7.77194411 C50.0196933,7.57435974 50.4038986,7.40969602 51.0735371,7.33286102 C51.1393986,7.26699957 51.1393986,7.10233584 51.0735371,7.03647439 C50.3709981,6.98160665 50.272206,6.77301849 50.272206,6.23514322 L50.272206,1.26245213 C50.272206,0.548939589 50.3161102,0.109826244 50.3161102,0.109826244 C50.3161102,0.0329710711 50.272206,5.04299038e-05 50.1734037,5.04299038e-05 C49.8989742,0.109826244 49.0756455,0.263506333 48.6366028,0.29643706 C48.6146456,0.384285953 48.6366028,0.559892964 48.7024643,0.625754418 C49.2732803,0.658634716 49.4050032,0.60376698 49.4050032,1.52588786 L49.4050032,2.93096584 C49.4050032,3.00782101 49.3830461,3.02970759 49.3062111,3.02970759 C49.2623068,3.02970759 48.8122401,2.84309677 48.449992,2.84309677 C47.7254958,2.84309677 47.2424984,3.0845955 46.8034556,3.50173149 C46.3314317,3.9737453 46.0460287,4.62137621 46.0460287,5.4337011 C46.0460287,6.78391135 46.7266105,7.77183316 47.9121369,7.77183316 C48.3402464,7.77183316 48.7463988,7.55229162 49.2843346,7.11319845 L49.2842236,7.11329931 Z M41.9835772,4.56658916 C42.1921553,3.32621525 42.9605558,3.22737264 43.2239612,3.22737264 C43.6410972,3.22737264 44.1350682,3.45788773 44.1350682,4.37999852 C44.1350682,4.47874027 44.0911639,4.53367861 43.9704146,4.53367861 L41.9835772,4.56665977 L41.9835772,4.56658916 Z M44.8596047,6.64127541 C44.4534524,7.0584114 44.1351086,7.23403858 43.4984008,7.23403858 C43.1032219,7.23403858 42.6421817,7.00352349 42.3019009,6.44368096 C42.0823593,6.08144296 41.9506263,5.57648833 41.9506263,4.93986123 L44.8705178,4.96184866 C45.0022407,4.96184866 45.0790858,4.89598721 45.0790858,4.77523785 C45.0790858,3.85314723 44.7497684,2.86515481 43.2239713,2.86515481 C42.2689601,2.86515481 41.0285559,3.7762618 41.0285559,5.44474525 C41.0285559,6.05946561 41.182236,6.65223887 41.5444841,7.06939503 C41.9177057,7.50847812 42.4336339,7.77193402 43.2240016,7.77193402 C44.0582635,7.77193402 44.651067,7.38772876 45.0901097,6.81692276 C45.057179,6.70714695 44.9913175,6.65225904 44.8595846,6.64128549 L44.8596047,6.64127541 Z M36.7547123,4.02870381 C37.0401153,3.67742927 37.5340964,3.348122 37.8633633,3.348122 C38.5659023,3.348122 39.1696995,4.13847962 39.1696995,5.37893423 C39.1696995,6.27906767 38.8513658,7.39875273 37.6219049,7.39875273 C37.4243206,7.39875273 37.0401153,7.343885 36.8425209,7.16822756 C36.6119957,6.97064319 36.579065,6.91575529 36.579065,6.50960293 L36.579065,4.51177186 C36.579065,4.28124668 36.6229692,4.19342805 36.7547022,4.02877441 L36.7547123,4.02870381 Z M36.5461443,3.62255145 C36.5241871,3.29323409 36.50224,3.01880464 36.4583257,2.89805528 C36.4253949,2.85418126 36.4144214,2.81020639 36.3266028,2.81020639 C36.0192426,2.93095575 35.7338295,3.02974793 34.9763925,3.12854011 C34.9544353,3.19440157 34.9763925,3.37003884 34.9983497,3.43591038 C35.591123,3.49077811 35.7118723,3.54567611 35.7118723,4.18235364 L35.7118723,8.86961148 C35.7118723,9.78071847 35.591123,9.83560637 34.9215147,9.8685371 C34.8556532,9.93439855 34.8556532,10.1649237 34.9215147,10.2307852 C35.30572,10.2197915 35.7118723,10.2087977 36.1509958,10.2087977 C36.5900788,10.2087977 37.1169906,10.2197915 37.4792186,10.2307852 C37.54508,10.1649237 37.54508,9.93439855 37.4792186,9.8685371 C36.6998345,9.82466308 36.5790851,9.78068821 36.5790851,8.86961148 L36.5790851,7.6841053 C36.5790851,7.54140885 36.6120158,7.56335594 36.7327652,7.60725013 C36.9962211,7.71701586 37.336512,7.77190376 37.6877765,7.77190376 C38.3024968,7.77190376 38.8513961,7.58529295 39.3014325,7.15718341 C39.8173607,6.65222878 40.1137473,5.97167723 40.1137473,5.08249717 C40.1137473,3.91887757 39.290459,2.84310686 38.170784,2.84310686 C37.6548558,2.84310686 37.0950133,3.18339776 36.6668634,3.66639521 C36.601002,3.74325038 36.5461141,3.73225666 36.5461141,3.62252119 L36.5461443,3.62255145 Z M29.7523285,5.41180444 C29.7523285,6.53144916 30.4987718,7.77192394 32.0575803,7.77192394 C32.7601193,7.77192394 33.2870613,7.53042521 33.6602426,7.15720358 C34.1542136,6.68517968 34.3847388,5.99358398 34.3847388,5.31308286 C34.3847388,4.1714507 33.7590449,2.84322789 32.079487,2.84322789 C31.3549909,2.84322789 30.7512642,3.13961452 30.3560955,3.61162833 C29.9609167,4.08365223 29.7523285,4.72027934 29.7523285,5.41187504 L29.7523285,5.41180444 Z M31.9148637,3.22738273 C32.8589014,3.22738273 33.4406708,4.0836018 33.4406708,5.6643574 C33.4406708,7.04744794 32.7271482,7.38774893 32.2111898,7.38774893 C31.0695576,7.38774893 30.6963763,6.00465839 30.6963763,5.15935234 C30.6963763,4.20434108 30.9269015,3.22738273 31.9148637,3.22738273 Z M27.4507077,6.32297194 C27.4507077,7.23407893 27.3299584,7.28896683 26.6603501,7.32189756 C26.5944886,7.38775901 26.5944886,7.61828419 26.6603501,7.68414564 C27.0445554,7.67315193 27.4507077,7.66215821 27.8898312,7.66215821 C28.3289142,7.66215821 28.7460502,7.67315193 29.1083185,7.68414564 C29.1741799,7.61828419 29.1741799,7.38775901 29.1083185,7.32189756 C28.4387102,7.28901726 28.3179609,7.23404867 28.3179609,6.32297194 L28.3179609,1.26253281 C28.3179609,0.549020277 28.3618651,0.109906932 28.3618651,0.109906932 C28.3618651,0.0330517589 28.3179609,0.00013111775 28.2191586,0.00013111775 C27.9447291,0.109906932 27.1214004,0.263587021 26.6823577,0.296517748 C26.6604005,0.384366641 26.6823577,0.559973652 26.7482192,0.625835106 C27.3848967,0.669709122 27.4507582,0.702690279 27.4507582,1.52596854 L27.4507582,6.32296185 L27.4507077,6.32297194 Z M21.7131967,6.32297194 C21.7131967,7.23407893 21.5924473,7.27799329 20.977727,7.32189756 C20.9118655,7.38775901 20.9118655,7.61828419 20.977727,7.68414564 C21.3399751,7.67315193 21.7131967,7.66215821 22.1522394,7.66215821 C22.5364447,7.66215821 22.8986928,7.67315193 23.1511651,7.68414564 C23.2170265,7.61828419 23.2170265,7.38775901 23.1511651,7.32189756 C22.7010984,7.27802354 22.580349,7.23404867 22.580349,6.32297194 L22.580349,5.37893423 C22.788917,5.37893423 22.9425971,5.40092166 23.0523729,5.43380196 C23.1731222,5.51065714 23.2719144,5.60943923 23.4036474,5.7850765 L24.2049786,6.86084721 C24.5233123,7.29994038 24.6440617,7.50849829 24.6660189,7.62924765 C24.6660189,7.66222881 24.6769924,7.68414564 24.7099332,7.68414564 C24.9294748,7.67312167 25.1709735,7.66212795 25.390515,7.66212795 C25.7308059,7.66212795 26.0710968,7.67312167 26.2906485,7.68414564 C26.3565099,7.61825393 26.3565099,7.38772876 26.2906485,7.3218673 C25.9174268,7.27799329 25.6320138,7.23401841 25.3466108,6.86082704 L23.8976588,5.03859289 C23.8537545,4.99471888 23.8208137,4.93985114 23.8208137,4.8849128 C23.8208137,4.84103879 23.8208137,4.81905135 23.864718,4.77514707 L24.8307128,3.77622145 C25.1600302,3.42494692 25.5442355,3.33712828 25.9833387,3.29322401 C26.0492002,3.22736255 26.0492002,2.99683738 25.9833387,2.93097592 C25.7308665,2.94196964 25.4235063,2.95296336 25.0283174,2.95296336 C24.6111814,2.95296336 24.205029,2.94196964 23.9525467,2.93097592 C23.8866852,2.99683738 23.8866852,3.22736255 23.9525467,3.29322401 C24.567267,3.33709802 24.3038212,3.73230709 24.2050189,3.85305646 C23.9525467,4.17140027 23.6012721,4.5446219 23.3268427,4.75318989 C23.0743704,4.93980071 22.7779838,5.07152362 22.5803893,5.0934808 L22.5803893,1.26242187 C22.5803893,0.548909331 22.6242936,0.109795987 22.6242936,0.109795987 C22.6242936,0.0329408132 22.5803893,2.01719614e-05 22.4815871,2.01719614e-05 C22.2071576,0.109795987 21.3838289,0.263476075 20.9447862,0.296406803 C20.922829,0.384255695 20.9447862,0.559862706 21.0106476,0.62572416 C21.5814637,0.658604458 21.7131866,0.603736722 21.7131866,1.5258576 L21.7131866,6.32285091 L21.7131967,6.32297194 Z M18.7984491,1.08683503 C18.7984491,1.37224811 19.061905,1.65765111 19.3253508,1.65765111 C19.632711,1.65765111 19.8961669,1.37224811 19.8961669,1.13074939 C19.8961669,0.867293485 19.6656418,0.559933308 19.3692652,0.559933308 C19.1058093,0.559933308 18.7984491,0.823389211 18.7984491,1.08683503 Z M19.7973747,6.32297194 L19.7973747,4.13855023 C19.7973747,3.58969133 19.8412891,2.88718259 19.8412891,2.88718259 C19.8412891,2.84330858 19.7864012,2.81032742 19.6985826,2.81032742 C19.3802488,2.93107678 18.9521292,3.02986896 18.194662,3.12866115 C18.1727048,3.1945226 18.194662,3.37015987 18.2166192,3.43603141 C18.8093924,3.50189286 18.9301317,3.55677068 18.9301317,4.18247467 L18.9301317,6.32302237 C18.9301317,7.23412936 18.8093823,7.26707017 18.1397741,7.32194799 C18.0739126,7.38780944 18.0739126,7.61833462 18.1397741,7.68419607 C18.5020222,7.67320236 18.9301317,7.66220864 19.3692551,7.66220864 C19.8083382,7.66220864 20.2254742,7.67320236 20.5877425,7.68419607 C20.6536039,7.61833462 20.6536039,7.38780944 20.5877425,7.32194799 C19.9181342,7.27807397 19.7973848,7.2340991 19.7973848,6.32302237 L19.7973747,6.32297194 Z M14.0708575,6.14734476 C14.1147617,6.68522002 14.1476925,7.20112803 14.1476925,7.66215821 C14.2574683,7.64017077 14.367234,7.62917705 14.4221219,7.62917705 C14.498967,7.62917705 14.5648284,7.62917705 14.6416634,7.65116449 C14.9380501,7.72801966 15.2344367,7.77191385 15.6405891,7.77191385 C16.2553094,7.77191385 17.385968,7.47552722 17.385968,6.38882331 C17.385968,5.64236996 16.8480827,5.20331713 16.1016192,4.92887759 C15.432011,4.68737887 15.0038611,4.5117416 15.0038611,3.90797462 C15.0038611,3.4579079 15.3990399,3.20543563 15.7722615,3.20543563 C16.0137603,3.20543563 16.6504378,3.29328452 16.7931645,4.2263386 C16.859026,4.29220006 17.0785675,4.28120634 17.1444391,4.21534488 C17.1773698,3.82016607 17.199327,3.41401371 17.2103005,3.05172528 C16.8700096,2.99685755 16.3431079,2.84315729 15.7722414,2.84315729 C14.9599266,2.84315729 14.2244468,3.37005901 14.2244468,4.07263834 C14.2244468,4.8739796 14.5866949,5.2142705 15.4319404,5.56556521 C16.3430474,5.93878685 16.5515851,6.16930194 16.5515851,6.64133592 C16.5515851,7.17922128 16.0246834,7.40973637 15.6185209,7.40973637 C15.1904114,7.40973637 14.9489127,7.26703991 14.8391369,7.14629055 C14.5976381,6.89380819 14.4768888,6.41081075 14.4110273,6.1363813 C14.3451659,6.07051984 14.1365979,6.08151356 14.0707364,6.14737501 L14.0708575,6.14734476 Z M9.62495713,3.73235752 C9.54811205,3.8092127 9.49323423,3.84213334 9.49323423,3.73235752 C9.48226068,3.43598098 9.44932995,3.01884499 9.40541559,2.89809563 C9.37248486,2.85422161 9.36151132,2.81024673 9.27369268,2.81024673 C8.9663325,2.93099609 8.68091942,3.02978828 7.92348244,3.12858046 C7.90152526,3.19444191 7.92348244,3.37007918 7.94543962,3.43595072 C8.53821288,3.49081846 8.65896224,3.54571645 8.65896224,4.18239399 L8.65896224,6.32294168 C8.65896224,7.22307512 8.54918643,7.26698948 7.8905618,7.3218673 C7.82470034,7.38772876 7.82470034,7.61825393 7.8905618,7.68412547 C8.21987915,7.67312167 8.65896224,7.66212795 9.09805541,7.66212795 C9.5371385,7.66212795 9.86645586,7.67312167 10.1958136,7.68412547 C10.261675,7.61825393 10.261675,7.38772876 10.1958136,7.3218673 C9.63598111,7.26699957 9.5262053,7.22312555 9.5262053,6.32294168 L9.5262053,4.52269498 C9.5262053,4.29217989 9.62499748,4.16044689 9.71281611,4.06165471 C10.1299521,3.65550235 10.6239231,3.41400363 11.0520326,3.41400363 C11.2715742,3.41400363 11.5020994,3.55670008 11.6338223,3.80918244 C11.7435981,4.02872398 11.7655452,4.32511061 11.7655452,4.65442797 L11.7655452,6.32295177 C11.7655452,7.22308521 11.6557694,7.26699957 11.0849634,7.32187739 C11.0300755,7.38773884 11.0300755,7.61826402 11.0849634,7.68412547 C11.4142807,7.67313175 11.7655452,7.66213803 12.2046081,7.66213803 C12.6436912,7.66213803 13.0388801,7.67313175 13.3682277,7.68412547 C13.4231156,7.61826402 13.4231156,7.38773884 13.3682277,7.32187739 C12.7535073,7.26700965 12.632758,7.22313564 12.632758,6.32295177 L12.632758,4.68740913 C12.632758,4.08366232 12.5888537,3.55677068 12.3363713,3.21646969 C12.1497605,2.97497097 11.8094696,2.84324806 11.4252644,2.84324806 C10.887379,2.84324806 10.2726385,2.9859546 9.62501765,3.73239787 L9.62495713,3.73235752 Z M2.85958382,4.55564588 C2.6180851,4.55564588 2.5412501,4.52276558 2.57418082,4.41294942 L3.70481927,1.5698123 L3.77068072,1.5698123 L4.80257741,4.55556519 L2.85961408,4.55556519 L2.85958382,4.55564588 Z M1.67407764,6.79503618 L2.27782445,5.20336756 C2.33271236,5.06066102 2.39857381,5.01675674 2.66202972,5.01675674 L4.97817434,5.01675674 L5.61485187,6.87187118 C5.73560123,7.25606636 5.31846524,7.28899709 4.80253707,7.32192782 C4.73667561,7.38778927 4.73667561,7.61831445 4.80253707,7.6841759 C5.20868943,7.67318218 5.81244632,7.66218846 6.2405962,7.66218846 C6.69066292,7.66218846 7.10779892,7.67318218 7.49196384,7.6841759 C7.55782529,7.61831445 7.55782529,7.38778927 7.49196384,7.32192782 C7.0638543,7.28904752 6.69063267,7.25606636 6.50402185,6.71818101 L4.24274496,0.439254548 C4.07809133,0.5379963 3.7817047,0.658796091 3.63899816,0.658796091 L1.14715575,6.54255383 C0.861752752,7.22313564 0.521451761,7.28899709 0.0493976037,7.32192782 C-0.0164658679,7.38778927 -0.0164658679,7.61831445 0.0493976037,7.6841759 C0.334800601,7.67318218 0.686075139,7.66218846 1.02636604,7.66218846 C1.47643276,7.66218846 2.02529166,7.67318218 2.43144402,7.6841759 C2.49730548,7.61831445 2.49730548,7.38778927 2.43144402,7.32192782 C2.01430803,7.29994038 1.49837986,7.25606636 1.67401713,6.7950261 L1.67407764,6.79503618 Z" id="kbp-tagline" fill="#000000" fill-rule="nonzero"></path>
    </g>
</svg>