<svg viewBox="0 0 119 18" xmlns="http://www.w3.org/2000/svg"><path d="M15.2.004c1.28-.009 3.99-.001 4.53 0h.097l.057.052v.496c0 .137-.077.205-.229.205-.746.035-.899.11-1.17.502-.149.214-.443.675-.748 1.19l-2.62 4.9-.072.151 3.2 6.55.194.053 5.04-12c.175-.482.148-.824-.077-1.02-.226-.195-.385-.312-.97-.336L21.96.724a.272.272 0 0 1-.166-.06.172.172 0 0 1-.08-.146V.02l.073-.05h5.69l.058.05v.498c0 .135-.077.203-.23.203-.745.033-1.3.195-1.66.484-.358.291-.638.691-.84 1.21 0 0-4.64 10.6-6.22 14.1-.606 1.16-1.2 1.05-1.73-.033-.656-1.35-2.02-4.34-3.03-6.55-1.07 2.21-2.54 5.21-3.27 6.56-.707 1.23-1.29 1.07-1.76.032-1.61-3.8-4.92-10.5-6.48-14.2-.287-.689-.504-1.13-.71-1.31C1.4.841.973.737.326.702.088.676-.031.618-.031.524v-.52l.058-.052c.904-.005 4.77-.001 5.89 0h.304l.058.051V.5c0 .137-.087.203-.258.203L5.374.73c-.554.023-.831.19-.831.496 0 .143.058.376.187.688 1.24 3.02 5.52 12.1 5.52 12.1l.157.041 2.76-5.51-.553-1.22-1.9-3.73s-.367-.746-.492-.994C9.388.95 9.406.86 8.562.75 8.326.72 8.204.69 8.204.572V.05l.07-.05h.329c1.63-.003 4.58-.003 4.58-.003l.13.043V.56c0 .12-.085.18-.258.18l-.356.051c-.9.07-.753.438-.155 1.63l1.82 3.72 2.01-4.02c.313-.682.276-.89.158-1.05l-.029-.036c-.08-.095-.348-.25-.93-.272l-.23-.025a.273.273 0 0 1-.165-.06.17.17 0 0 1-.078-.145V.037zm95.1.115c.362 0 .493.261.7.781l5.33 14.1c.365 1.02.886 1.4 1.93 1.51l.285.025c.131 0 .261.077.261.21v.491l-.078.053s-1.83-.048-2.88-.052h-.138c-.91 0-3.46.052-3.46.052l-.024-.053v-.492c0-.132.052-.209.185-.209l.728-.053c.987-.077 1.35-.39 1.09-1.12l-1.59-4.4h-5.41c-.624 0-.78.104-.909.44l-1.51 3.77c-.26.654.078 1.23 1.04 1.3l.754.053c.104 0 .208.078.208.207v.494l-.052.053s-2.61-.048-3.37-.052h-.085c-.677 0-2.34.052-2.34.052l-.053-.053v-.494c0-.129.078-.207.209-.207 1.14-.078 1.79-.287 2.52-1.95l5.77-13.5c.285-.676.494-.937.886-.937zM96.8 5.27h.117c.701 0 2.7-.051 2.7-.051l.024.052v.572c0 .078-.054.13-.156.13l-.546.053c-.807.077-1.09.286-1.09.807l.003 8.66c0 .572.26.91 1.09.988l.546.053c.078 0 .156.05.156.155v.546l-.026.053s-1.8-.049-2.66-.053h-.117c-.729 0-2.76.053-2.76.053l-.053-.053v-.546c0-.104.078-.155.182-.155l.521-.053c.857-.078 1.12-.494 1.12-.988v-8.66c0-.57-.313-.73-1.12-.805l-.521-.054c-.104 0-.182-.024-.182-.104v-.6l.026-.051s1.87.047 2.74.051zm-46.6 0h.117c.702 0 2.7-.051 2.7-.051l.026.052v.572c0 .078-.052.13-.156.13l-.546.053c-.806.077-1.09.286-1.09.807v8.66c0 .572.26.91 1.09.988l.546.053c.078 0 .156.05.156.155v.546l-.026.053s-1.8-.049-2.67-.053h-.117c-.728 0-2.76.053-2.76.053l-.052-.053v-.546c0-.104.078-.155.182-.155l.52-.053c.858-.078 1.12-.494 1.12-.988v-8.66c0-.57-.312-.73-1.12-.805l-.52-.054c-.104 0-.182-.024-.182-.104v-.6l.026-.051s1.87.047 2.74.051zm-21.7 0h.117c.702 0 2.7-.051 2.7-.051l.026.052v.572c0 .078-.052.13-.156.13l-.546.053c-.806.077-1.09.286-1.09.807v8.66c0 .572.26.91 1.09.988l.546.053c.078 0 .156.05.156.155v.546l-.026.053s-1.8-.049-2.67-.053h-.117c-.728 0-2.76.053-2.76.053l-.052-.053v-.546c0-.104.078-.155.182-.155l.52-.053c.858-.078 1.12-.494 1.12-.988v-8.66c0-.57-.313-.73-1.12-.805l-.52-.054c-.104 0-.182-.024-.182-.104v-.6l.026-.051s1.87.047 2.74.051zm41 0h3.94c.78 0 2.63-.051 2.63-.051l.054.052c.024 1.12.206 2.13.39 3.12l-.648.104c-.285-.963-.779-2.34-2.44-2.34h-2.08c-.494 0-.754.182-.754.623v3.77h1.95c.729 0 .91-.312 1.02-.832l.155-.546c0-.078.053-.131.156-.131h.44c.054 0 .054.027.054.078-.054.57-.156 1.3-.156 1.92 0 .649.104 1.2.156 1.79l-.054.053h-.44c-.129 0-.184-.053-.184-.131l-.13-.571c-.104-.521-.338-.807-1.02-.807h-1.95v3.98c0 .492.283.986.754.986h2.47c1.33 0 2.06-.832 2.37-2.19l.648.078-.521 2.99-.052.052s-1.53-.052-2.31-.052l-4.55.005c-.78 0-2.57.053-2.57.053l-.027-.053v-.572c0-.051.027-.13.156-.13l.6-.052c.807-.078 1.04-.598 1.04-1.12v-8.58c0-.6-.312-.703-1.04-.754l-.6-.054c-.156-.024-.156-.077-.156-.104v-.6l.027-.051s1.85.047 2.69.051zm-33.3 0h.112c.729 0 2.37-.051 2.37-.051l.026.052v.572c0 .078-.052.104-.156.13l-.286.053c-.806.155-1.09.286-1.09.807v3.93c.858 0 1.35-.44 2.5-1.66 1.04-1.15 1.85-2.1 1.85-2.6 0-.21-.234-.441-.754-.521-.104-.024-.156-.052-.156-.13v-.6l.026-.024s2.11.052 2.86.052c.676 0 1.82-.052 1.82-.052l.078.024v.6c0 .078-.078.13-.208.13-1.01.078-1.72.13-2.65 1.2l-2.24 2.57c-.442.47-.598.754-.598.963 0 .156.104.285.234.44l3.93 4.73c.312.364.936.52 1.46.624l.13.025c.078.025.182.077.182.155v.546l-.078.026s-1.22-.023-1.97-.026h-.135c-.65 0-1.59.026-1.59.026l-.026-.026v-.312c0-.34-.026-.623-.39-1.04l-2.89-3.59c-.39-.521-.806-.65-1.38-.65v3.85c0 .573.338.859 1.09.989l.286.053c.078.025.156.05.156.155v.546l-.026.053s-1.47-.048-2.29-.053h-.13c-.728 0-2.86.053-2.86.053l-.052-.053v-.546c0-.104.078-.155.182-.155l.52-.053c.78-.078 1.12-.494 1.12-.988v-8.66c0-.57-.286-.73-1.12-.805l-.52-.054c-.104 0-.182-.024-.182-.104v-.6l.026-.051s1.95.047 2.83.051zm24.3-.05c3.69 0 4.37 1.82 4.37 3.17 0 1.56-.754 4-4.44 4-.65 0-1.17-.053-1.64-.26v3.48c0 .57.312.703 1.14.832l.521.078c.104.025.183.053.183.155v.546l-.024.053s-1.9-.049-2.77-.053h-.117c-.728 0-2.68.053-2.68.053l-.026-.053v-.546c0-.104.052-.13.156-.155l.546-.078c.806-.104 1.07-.338 1.07-.832l-.003-8.73c0-.806-.338-.832-1.56-.91-.156 0-.182-.077-.182-.13V5.24l.052-.026c.39 0 1.92.052 2.68.052.728 0 1.77-.052 2.73-.052zm21.2.052c.492 0 2.76-.052 3.43-.052 4.34 0 6.48 2.7 6.48 6.16 0 4.55-3.22 5.9-6.11 5.9-1.97 0-2.89-.048-3.67-.053h-.128c-.781 0-2.76.053-2.76.053l-.025-.053v-.546a.145.145 0 0 1 .153-.152l.598-.053c.781-.078 1.04-.312 1.04-1.12v-8.58c0-.678-.184-.678-1.04-.754l-.57-.054c-.104 0-.184-.052-.184-.13v-.572l.025-.052s2.29.052 2.76.052zm2.68.702c-1.01 0-1.66.156-1.66.808v8.58c0 .726.181 1.17 2.16 1.17 2.86 0 4.47-1.06 4.47-4.71 0-2.7-.599-5.85-4.97-5.85zm-24.1 0c-1.25 0-1.56.235-1.56.91l.001 4.52c.52.21 1.17.235 1.69.235 1.56 0 2.31-.938 2.31-2.94 0-2.24-1.01-2.73-2.44-2.73zm49.3-3.04h-.052l-2.6 6.6c-.104.263.077.339.649.339h4.52V9.87l-2.52-6.94z" fill="#000" fill-rule="nonzero"/></svg>