<svg viewBox="0 0 118 13" xmlns="http://www.w3.org/2000/svg"><path d="M92.264 3.325c.017 0 .035.006.044.018l.008.021-.039 1.04h.039c.598-.91 1.29-1.04 1.702-1.04 1.26 0 2.18 1.27 2.182 2.65 0 1.05-.325 1.86-.91 2.455-.506.507-1.13.727-1.818.727-.401 0-.716-.076-1.01-.212l-.146-.073v2.247c0 .327.116.476.432.53l.114.015.246.026c.049.01.09.027.108.062l.01.042v.247l-.027.026-.69-.018a31.918 31.918 0 0 0-1.702.008l-.348.01-.026-.026v-.247c0-.049.021-.075.06-.091l.043-.013.247-.026c.378-.035.53-.157.555-.451l.004-.094V4.897c0-.6-.089-.756-.245-.797l-.041-.008-.559-.052-.025-.312.426-.07c.657-.113 1.05-.214 1.366-.333zm-18.237.143.039.026v.247c0 .065-.052.09-.143.104-.48.039-.74.507-.922.883l-.32.685c-.42.916-.832 1.87-1.38 3.175l-.6 1.44c-.39.935-.882 2.05-1.805 2.052-.247 0-.753-.143-.753-.61 0-.39.286-.508.493-.507.195 0 .325.078.403.182.13.13.221.22.35.22.196 0 .676-1.14 1.001-1.935a.88.88 0 0 0 .104-.403c0-.11-.086-.385-.176-.624l-.045-.116-1.637-3.806c-.208-.494-.364-.598-.792-.636-.058-.01-.102-.027-.12-.057l-.01-.034v-.26l.026-.026.3.013c.225.007.496.013.791.013.312 0 .623-.006.94-.013l.476-.013.026.04v.233c0 .052-.05.087-.103.1l-.04.004c-.458.036-.648.128-.516.495l.036.09 1.428 3.35 1.442-3.299c.248-.45-.012-.569-.348-.618l-.158-.018c-.052 0-.104-.017-.123-.057l-.007-.034v-.247l.026-.039.733.02c.151.004.306.006.488.006l.379-.005.517-.02zM107.95 0c.117 0 .169.039.169.13l-.024.472c-.008.227-.015.53-.015.892V7.56c0 .603.045.713.27.747l.678.071.04.299c-.726.129-1.26.278-1.57.477l-.094.068h-.298l.026-.909-.026-.013c-.598.481-1.25.896-1.767.896-1.4 0-2.18-1.17-2.182-2.766 0-.961.312-1.73.87-2.286.52-.494 1.09-.78 1.949-.78.227 0 .693.09 1.006.225l.124.061V1.754c0-.788-.113-.988-.34-1.011L106.3.714c-.029 0-.058-.014-.07-.038l-.008-.027-.026-.311c.533-.04 1.43-.208 1.754-.338zm7.855 3.364c1.71 0 2.12 1.17 2.117 2.26 0 .12-.063.193-.167.215l-.067.006h-3.416c0 1.94 1.12 2.71 1.844 2.715.714 0 1.17-.234 1.624-.728.143.013.221.078.26.208-.494.675-1.26 1.16-2.195 1.156-1.78 0-2.57-1.22-2.572-2.714 0-1.97 1.34-3.12 2.572-3.118zm-100.36 0c1.71 0 2.12 1.17 2.117 2.26 0 .12-.063.193-.167.215l-.067.006h-3.416c0 1.94 1.12 2.71 1.844 2.715.714 0 1.17-.234 1.624-.728.143.013.221.078.26.208-.494.675-1.26 1.16-2.195 1.156-1.78 0-2.57-1.22-2.572-2.714 0-1.97 1.34-3.12 2.572-3.118zm17.593 0c1.71 0 2.12 1.17 2.117 2.26 0 .12-.063.193-.167.215l-.067.006h-3.416c0 1.94 1.12 2.71 1.844 2.715.714 0 1.17-.234 1.624-.728.143.013.221.078.26.208-.494.675-1.26 1.16-2.195 1.156-1.78 0-2.57-1.22-2.572-2.714 0-1.97 1.34-3.12 2.572-3.118zm54.069 0c1.92 0 2.66 1.57 2.663 2.923 0 1.3-.844 2.91-2.69 2.91-1.68 0-2.59-1.36-2.658-2.646l-.004-.147c0-1.78.961-3.04 2.689-3.04zm-44.918 0c1.71 0 2.12 1.17 2.117 2.26 0 .12-.063.193-.167.215l-.067.006h-3.416c0 1.94 1.12 2.71 1.844 2.715.714 0 1.17-.234 1.624-.728.143.013.221.078.26.208-.494.675-1.26 1.16-2.195 1.156-1.78 0-2.57-1.22-2.572-2.714 0-1.97 1.34-3.12 2.572-3.118zm57.372 0c.913 0 1.84.325 1.905 1.996l.004.2v2.053l.006.229c.02.442.109.783.514.783.312 0 .35-.208.428-.208.052 0 .143.104.143.195 0 .065-.442.585-1.078.584-.59 0-.827-.353-.932-.625l-.042-.128h-.026l-.26.208c-.572.442-.818.546-1.416.545-.909 0-1.61-.377-1.61-1.402 0-.837.78-1.5 1.923-1.832l.194-.052 1.117-.273c.04-.013.078-.065.078-.156 0-1.47-.61-1.73-1.052-1.727-.494 0-1.08.182-1.078.584 0 .114.008.187.018.232l.008.028a.584.584 0 0 1 .039.234c0 .169-.195.429-.572.429-.299 0-.455-.143-.454-.455 0-.701 1.08-1.44 2.143-1.442zm-42.17-.039c.017 0 .034.006.044.018l.008.021-.04 1.156h.04c.83-.974 1.45-1.16 2.117-1.156 1.12 0 1.4.82 1.427 1.903l.002 2.864c0 .342.118.492.442.545l.103.014.247.026c.049.01.09.027.108.062l.009.042v.246l-.026.026-.82-.02a30.103 30.103 0 0 0-.27-.004l-.3-.002c-.169 0-.31.002-.443.004l-.843.022-.026-.026V8.82c0-.05.022-.076.06-.092l.044-.012.182-.026c.378-.06.53-.161.555-.462l.004-.097V5.325c0-.909-.156-1.34-.845-1.337-.53 0-.994.19-1.588.841l-.14.159V8.13c0 .342.108.47.45.54l.11.019.181.026c.049.01.083.026.097.062l.007.042v.246l-.026.026-.86-.022a26.251 26.251 0 0 0-.465-.004l-.285.002-1.066.024-.026-.026V8.82c0-.05.022-.076.06-.092l.044-.012.247-.026c.39-.036.532-.157.555-.462l.004-.097V4.897c0-.6-.089-.756-.246-.797l-.04-.008-.559-.052-.026-.312.459-.076c.634-.11 1.04-.21 1.334-.327zm54.15 0c.026 0 .052.013.052.04l-.022.583c-.007.25-.015.546-.017.816v3.367c0 .342.118.492.442.545l.103.014.247.026c.049.01.09.027.108.062l.009.042v.246l-.026.026-.837-.02a31.24 31.24 0 0 0-.269-.004h-.554l-1.08.024-.027-.026V8.82c0-.049.022-.076.06-.092l.044-.012.247-.026c.401-.047.535-.16.556-.462l.003-.097V4.897c0-.6-.089-.756-.246-.797l-.04-.008-.559-.052-.026-.312.467-.076c.648-.11 1.07-.21 1.365-.327zM53.826.636c.026 0 .04.006.047.018l.056.313c.05.31.126.804.182 1.201l.053.39-.377.066c-.27-.844-.492-1.35-1.33-1.41l-.164-.006h-1.364c-.277 0-.43.103-.462.344l-.005.098v2.727h1.65c.412 0 .58-.15.635-.45l.053-.42c0-.039.021-.078.054-.095l.036-.009h.286l.052.052-.027.414c-.018.318-.025.57-.025.755l.004.247c.003.136.01.293.02.477l.028.406-.052.04h-.286c-.048 0-.075-.037-.085-.072l-.044-.358c-.036-.342-.178-.47-.536-.49l-.114-.003h-1.65v3.26c0 .316.148.41.386.426l.082.003h1.767c.929 0 1.43-.68 1.705-1.539l.048-.163.403.065-.48 2.17-1.542-.026h-3.209l-1.342.025-.026-.026v-.26c0-.029.015-.065.055-.082l.05-.008.389-.026c.464-.036.634-.17.659-.472l.003-.087V1.65c0-.37-.142-.52-.545-.573l-.117-.012-.39-.026c-.072 0-.095-.033-.102-.066l-.002-.025v-.26l.026-.026 1.026.021.624.005h3.286l.248-.004c.132-.007.216-.022.363-.048zM24.874 0c.494 0 .83.09 1.156.312.26.195.377.416.376.623 0 .273-.195.468-.441.468-.26 0-.43-.143-.533-.364-.169-.429-.416-.598-.805-.597-.413 0-1.01.289-1.05 2.096l-.002.216v.74h1.429c.048 0 .082.015.096.044l.008.034v.26c0 .1-.134.153-.246.165l-.053.004h-1.234v4.13c0 .342.107.502.449.548l.11.01.428.027c.039 0 .078.022.095.06l.009.044v.246l-.026.026-1.092-.023h-.783l-1.048.023-.026-.026V8.82c0-.05.022-.076.06-.092l.044-.012.247-.026c.417-.048.539-.161.556-.47l.003-.089v-4.13h-.897c-.039 0-.056-.008-.062-.039l-.003-.04v-.168c0-.091.05-.222.22-.253l.08-.007h.662v-.52C22.6.944 23.78.004 24.874 0zm51.354 0c.093 0 .145.025.162.081l.007.049s-.029.382-.037 1.022l-.002.342v4.494c.314-.072.907-.582 1.552-1.267l.207-.223c.174-.194.466-.619-.227-.653a.1.1 0 0 1-.096-.066l-.007-.038v-.247l.028-.013c.006-.004.01-.009.01-.013l.744.022c.118.003.248.004.413.004l.394-.004.736-.022.052.026v.247c0 .052-.05.079-.104.094l-.04.01-.09.013c-.307.045-.783.22-1.115.49l-.132.12-.987 1.091a.167.167 0 0 0-.052.13.29.29 0 0 0 .03.126l.035.056 1.52 2.247c.204.307.547.484.848.56l.126.025.09.013c.073.01.104.029.114.07l.003.034v.246l-.026.026-.547-.017a21.84 21.84 0 0 0-.27-.006l-.287-.003c-.325 0-.532.01-.742.02l-.128.006-.039-.026V8.82c0-.15-.03-.29-.22-.584l-.079-.118-.948-1.338c-.23-.335-.4-.444-.663-.464l-.103-.003V8.13c0 .411.17.516.424.562l.16.023c.04 0 .078.022.095.06l.01.044v.246l-.027.026-.793-.023h-.674l-1.04.023-.026-.026V8.82c0-.05.015-.076.05-.092l.041-.012.247-.026c.39-.036.532-.157.555-.462l.004-.097V1.754c0-.788-.113-.988-.34-1.011l-.466-.029c-.029 0-.058-.014-.071-.038L74.5.649l-.026-.311c.52-.04 1.43-.208 1.754-.338zM3.792.662c2.49 0 4.48 1.99 4.481 4.404 0 3.2-2.42 4.03-4.247 4.026L2.538 9.08c-.313-.006-.546-.012-.768-.013l-.408.001-1.337.024-.026-.025v-.234c0-.049.022-.09.055-.108l.036-.01.39-.025c.412-.024.632-.144.67-.478l.005-.107V1.637c0-.432-.122-.52-.56-.562l-.48-.036c-.048 0-.09-.022-.107-.06l-.01-.044V.688L.026.663l1.026.02c.214.003.42.005.623.005l1.81-.024.308-.001zm7.39 2.663c.025 0 .051.013.051.04l-.029.846c-.006.227-.01.47-.01.686V8.13c0 .342.118.492.442.545l.104.014.246.026c.05.01.09.027.108.062l.01.042v.246l-.027.026-.837-.02a31.24 31.24 0 0 0-.268-.004h-.555l-1.08.024-.026-.026V8.82c0-.05.022-.076.06-.092l.044-.012.246-.026c.401-.047.535-.16.556-.462l.003-.097V4.897c0-.6-.089-.756-.245-.797l-.04-.008-.56-.052-.025-.312.466-.076c.648-.11 1.07-.21 1.365-.327zm26.743 0c.026 0 .052.013.052.04l-.029.846-.01.686V8.13c0 .342.118.492.442.545l.104.014.246.026c.05.01.09.027.108.062l.01.042v.246l-.027.026-.837-.02a31.24 31.24 0 0 0-.268-.004h-.555l-1.08.024-.026-.026V8.82c0-.05.022-.076.06-.092l.044-.012.246-.026c.401-.047.535-.16.556-.462l.003-.097V4.897c0-.6-.089-.756-.245-.797l-.04-.008-.56-.052-.025-.312.466-.076c.648-.11 1.07-.21 1.365-.327zm-10.32 0c.016 0 .034.006.043.018l.008.021-.039 1.17h.04c.337-.508.908-1.17 1.519-1.17.533 0 .727.26.727.598s-.22.546-.558.545c-.26 0-.403-.104-.533-.234a.367.367 0 0 0-.26-.116c-.143 0-.429.234-.74.675a.77.77 0 0 0-.149.354l-.007.1v2.845c0 .342.118.502.452.548l.107.01.376.027c.049 0 .09.022.108.06l.01.044v.246l-.027.026-.761-.017a35.877 35.877 0 0 0-1.774.008l-.348.01-.013-.027V8.82c0-.05.014-.076.049-.092l.042-.012.246-.026c.39-.036.532-.157.555-.462l.004-.097V4.897c0-.6-.089-.756-.245-.797l-.04-.008-.56-.052-.025-.312.458-.076c.634-.11 1.04-.21 1.334-.327zM82.594 0c.116 0 .168.039.168.13l-.02.365c-.01.235-.019.576-.019.999V8.13c0 .342.097.492.436.545l.11.014.311.026c.04 0 .078.022.095.06l.01.044v.246l-.027.026-.923-.02a26.144 26.144 0 0 0-.33-.005l-.512.001-1.092.024-.013-.026V8.82c0-.049.014-.083.049-.097l.042-.007.311-.026c.39-.036.532-.157.555-.462l.004-.097V1.754c0-.788-.113-.988-.34-1.011l-.466-.029c-.029 0-.058-.014-.07-.038l-.007-.027-.026-.311C81.374.298 82.27.13 82.594 0zM62.911 3.325c.196.035.198.141.487.165l.124.004h2.636c.377 0 .792-.09.858-.09.09 0 .156.038.156.09 0 .04-.04.144-.161.347l-.125.199-3.118 4.585h1.728c.653 0 .906-.263 1.165-.782l.12-.257.17-.377.337.09-.134.481c-.12.458-.204.846-.257 1.145l-.024.141h-4c-.196 0-.3-.065-.3-.155 0-.055.01-.09.073-.191l.044-.07 3.196-4.714h-1.793c-.364 0-.773.238-1.037 1.04l-.054.18-.338-.038c.104-.636.182-1.17.195-1.754 0-.026.026-.039.052-.039zm24.051.468c-1.04 0-1.44 1.18-1.442 2.312 0 1 .494 2.66 1.78 2.663.585 0 1.36-.351 1.364-2.066 0-1.91-.636-2.91-1.702-2.91zm6.702.169c-.408 0-.97.32-1.279.911l-.072.154v3.17c.455.532.87.558 1.079.558 1.39 0 1.74-1.32 1.74-2.39 0-1.47-.675-2.4-1.468-2.403zm6.844 2.078-1.026.273c-.961.26-1.26.844-1.26 1.429 0 .403.312.922.96.922.319 0 .697-.22 1.013-.456l.13-.103a.4.4 0 0 0 .174-.245l.009-.092V6.04zM3.298 1.104c-.591 0-1.03.045-1.084.415l-.007.092v6.507c0 .416.143.533 1.416.533 1.83 0 3.46-.65 3.455-3.273 0-2-.974-4.27-3.78-4.274zm102.53 2.715-.139.005c-.286.02-.729.128-1.07.644-.194.273-.363.792-.363 1.728 0 1.62.714 2.39 1.416 2.39.304 0 .745-.221 1.256-.606l.173-.134v-3.26c-.312-.495-.662-.767-1.273-.767zm9.972-.013-.092.002c-.351.019-1.11.174-1.367 1.347l-.035.184h2.39c.13 0 .182-.065.182-.182 0-1.09-.61-1.35-1.078-1.351zm-100.36 0-.092.002c-.351.019-1.11.174-1.367 1.347l-.035.184h2.39c.13 0 .182-.065.182-.182 0-1.09-.61-1.35-1.078-1.351zm17.593 0-.092.002c-.351.019-1.11.174-1.367 1.347l-.035.184h2.39c.13 0 .182-.065.182-.182 0-1.09-.61-1.35-1.078-1.351zm9.151 0-.092.002c-.35.019-1.11.174-1.367 1.347l-.034.184h2.39c.13 0 .182-.065.181-.182 0-1.09-.61-1.35-1.078-1.351zM10.631 1.039c.338 0 .623.286.624.624s-.286.623-.624.623-.623-.286-.623-.623.286-.623.623-.624zm26.744 0c.338 0 .623.286.624.624s-.286.623-.624.623-.623-.286-.623-.623.286-.623.623-.624zm73.616 0c.338 0 .623.286.624.624s-.286.623-.624.623-.623-.286-.623-.623.286-.623.623-.624zm-12.539-.013c.325 0 .598.273.598.598a.604.604 0 0 1-.598.597.604.604 0 0 1-.597-.597c0-.325.273-.598.597-.598zm2.079 0c.325 0 .598.273.597.598 0 .325-.273.598-.597.597s-.598-.273-.598-.597c0-.325.273-.598.598-.598z" fill="#000" fill-rule="nonzero"/></svg>