<svg xmlns="http://www.w3.org/2000/svg" viewBox="0 0 140 22.453"><path fill-rule="evenodd" d="M17.715 3.371q-.13-.1-.14-.422c0-.219.046-.367.14-.453 1.31.031 2 .05 2.078.05.402 0 1.05-.019 1.934-.05q.129.13.129.45c0 .206-.043.351-.13.425-.616.098-1.11.336-1.456.727q-.527.576-1.137 1.726L17.199 9.5l3.38 6.988h.116l5.02-10.844c.352-.707.449-1.24.297-1.613q-.221-.555-1.434-.66-.129-.1-.129-.422c0-.219.043-.367.13-.453l2.616.05c.137 0 .914-.019 2.32-.05q.106.13.106.45c0 .206-.035.351-.105.425-.172.02-.332.047-.489.094l-.398.113a1 1 0 0 0-.336.18 5 5 0 0 1-.285.207 1.1 1.1 0 0 0-.246.261 6 6 0 0 1-.192.258 2.3 2.3 0 0 0-.18.309l-.155.324-.153.36q-.13.282-.156.347l-6.258 13.461q-.299.609-.633.621-.4 0-.605-.621l-3.555-7.66-3.894 7.664q-.234.604-.633.617-.375.002-.61-.617L5 5.773l-.168-.387c-.352-.824-.645-1.36-.875-1.586q-.336-.35-1.328-.425-.134-.13-.133-.442 0-.312.102-.437c1.66.03 2.58.05 2.75.05.297 0 1.28-.02 2.937-.05q.105.13.106.453c0 .203-.035.348-.106.422-.805.09-1.28.273-1.418.558q-.192.422.336 1.547l4.836 11.016h.133l2.95-6-2.231-4.719q-.696-1.472-1.059-1.882-.357-.415-1.172-.52-.129-.125-.129-.438c0-.203.035-.352.106-.437 1.12.031 1.91.05 2.344.05.336 0 1.14-.019 2.398-.05q.129.13.129.453c.012.203-.031.348-.13.422q-.795.118-.823.559-.025.421.554 1.546l1.305 2.672.113.114 1.395-2.618q.45-.815.566-1.25.117-.441-.047-.683c-.113-.176-.355-.285-.726-.34z"/><path d="M33.105 10.711v5.598c0 1.03.105 1.69.316 1.93.215.237.742.394 1.586.449.078.078.133.266.133.476 0 .238-.055.395-.133.473-1.5-.024-2.48-.051-2.93-.05-.503 0-1.48.026-2.96.05-.078-.078-.105-.234-.106-.473 0-.21.028-.398.106-.476.844-.078 1.38-.211 1.586-.45s.316-.898.316-1.93v-5.597c0-1.03-.105-1.69-.316-1.93s-.742-.398-1.586-.449c-.078-.078-.105-.266-.106-.476 0-.238.028-.395.106-.477 1.51.055 2.48.055 2.933.055.473 0 1.48 0 2.957-.055.078.082.133.238.133.477 0 .21-.055.398-.133.476-.844.078-1.37.238-1.586.45-.21.237-.316.897-.316 1.929M38.625 10.711c0-1.06-.105-1.69-.316-1.902q-.316-.358-1.582-.477c-.082-.078-.11-.266-.11-.476 0-.238.028-.395.11-.477 1.48.055 2.45.055 2.957.055.16 0 1 0 2.535-.055.078.082.105.238.105.477 0 .21-.027.398-.105.476-.66.078-1.08.211-1.266.45q-.239.355-.238 1.902v2.27c.844 0 1.77-.556 2.773-1.638 1.29-1.43 1.9-2.32 1.77-2.64-.078-.188-.344-.316-.793-.344-.078-.078-.133-.266-.133-.476 0-.238.055-.395.133-.477 1.5.055 2.48.055 2.906.055.266 0 .898 0 1.848-.055.082.082.133.238.133.477 0 .21-.051.398-.133.476-1.29.078-2.25.422-2.824 1.082L44.12 11.95c-.422.426-.605.742-.605.953 0 .105.078.29.234.5L47.66 18c.371.371.926.582 1.692.66.054.105.105.266.105.477s-.05.37-.105.476c-.871-.027-1.53-.027-2.036-.027-.71 0-1.24.027-1.636.05v-.366a1.52 1.52 0 0 0-.395-1.059l-2.933-3.644c-.344-.45-.871-.66-1.637-.66v2.402c0 1.03.078 1.66.238 1.875q.275.358 1.266.476c.078.105.105.266.105.504s-.027.395-.105.473c-1.5-.051-2.35-.051-2.535-.051-.504 0-1.48 0-2.957.05-.082-.077-.11-.233-.11-.472s.028-.398.11-.504c.844-.078 1.37-.21 1.582-.449.21-.238.316-.871.316-1.926zM54.949 10.711v5.598c0 1.03.105 1.69.32 1.93.211.237.738.394 1.582.449.082.078.133.266.133.476 0 .238-.05.395-.133.473-1.5-.024-2.48-.051-2.93-.05-.503 0-1.48.026-2.96.05-.078-.078-.105-.234-.106-.473 0-.21.028-.398.106-.476.848-.078 1.38-.211 1.586-.45s.316-.898.316-1.93v-5.597c0-1.03-.105-1.69-.316-1.93s-.738-.398-1.586-.449c-.078-.078-.105-.266-.106-.476 0-.238.028-.395.106-.477 1.51.055 2.48.055 2.933.055.477 0 1.48 0 2.957-.055.082.082.133.238.133.477 0 .21-.05.398-.133.476-.844.078-1.37.238-1.582.45-.215.237-.32.897-.32 1.929M66.23 7.805c.05.473.078 1.4.078 2.8a.9.9 0 0 1-.687.051c-.211-.82-.578-1.45-1.082-1.875a2.7 2.7 0 0 0-1.797-.66c-.66 0-1.19.156-1.559.5-.367.316-.555.766-.555 1.348 0 .82.848 1.61 2.563 2.379 2.46 1.03 3.7 2.3 3.7 3.804 0 1.14-.345 2.06-1.06 2.747-.683.66-1.64 1-2.824 1.003q-1.23.001-2.218-.238a32 32 0 0 0-1.086-.238c-.13 0-.262.027-.446.082-.188.05-.344.078-.425.105-.13-.609-.238-1.85-.29-3.754.371-.105.66-.133.844-.05.426 2.09 1.45 3.14 3.145 3.144 1.51 0 2.27-.742 2.273-2.246 0-.66-.21-1.19-.66-1.586-.449-.37-1.16-.793-2.195-1.27-2.09-.948-3.14-2.09-3.14-3.406 0-1.06.394-1.85 1.187-2.43a4.6 4.6 0 0 1 2.718-.847c.82 0 1.59.105 2.301.32.711.211 1.11.316 1.215.317zM79.062 10.711c0-1.03-.105-1.69-.316-1.93-.211-.238-.738-.398-1.582-.449-.082-.078-.133-.266-.133-.476 0-.238.05-.395.133-.477 1.05.055 1.9.055 2.507.055.633 0 1.48 0 2.536-.055.082.082.105.238.105.477 0 .21-.023.398-.105.476-.844.078-1.37.238-1.586.45-.211.237-.316.897-.317 1.929v2.957c0 2.09-.367 3.62-1.133 4.648-.77 1-2.11 1.53-4.043 1.532-.609 0-1.19-.079-1.718-.235-.527-.16-1.03-.426-1.532-.765-.477-.371-.844-.898-1.136-1.586-.29-.688-.422-1.54-.422-2.485v-4.066c0-1.03-.105-1.69-.317-1.93-.21-.238-.742-.398-1.585-.449-.051-.078-.105-.266-.106-.477 0-.238.055-.395.106-.476 1.51.055 2.48.055 2.933.055.5 0 1.48 0 2.957-.055.078.082.133.238.133.476 0 .211-.055.398-.133.477-.844.078-1.37.238-1.586.45-.21.237-.316.897-.316 1.929v3.512c0 .715.027 1.29.105 1.77.082.503.211.976.399 1.452.21.477.527.844.976 1.082.45.238 1.03.371 1.692.371a6 6 0 0 0 1.48-.183c.395-.133.738-.316.977-.61.238-.262.449-.527.605-.793.133-.262.238-.633.317-1.082.054-.449.082-.793.082-1.082.023-.266.023-.637.023-1.136zM95.051 9.469l-4.172 10.195c-.055.16-.133.238-.266.238s-.238-.078-.289-.21l-3.75-10.013h-.054l-.766 6.711c-.133.922-.16 1.53-.027 1.793.133.266.555.449 1.293.504.082.078.133.266.133.477 0 .238-.051.395-.133.472-.711-.023-1.4-.05-2.031-.05-.293 0-.871.027-1.747.05-.078-.078-.105-.234-.105-.472 0-.211.027-.398.105-.477.371-.027.66-.105.82-.184.16-.054.317-.266.45-.582.133-.344.238-.848.316-1.53l.871-7.638v-.105c0-.05 0-.078-.023-.106a.2.2 0 0 1-.105-.054c-.055-.024-.082-.024-.133-.051-.055 0-.105-.027-.16-.027h-.211c-.105 0-.184-.028-.266-.028-.078-.023-.156-.023-.289-.023-.105-.027-.211-.027-.316-.027-.079-.079-.105-.266-.106-.477 0-.238.027-.395.106-.477l3.671.055 3.383 9.457 3.828-9.457 3.434-.055c.082.082.105.238.105.477 0 .211-.023.398-.105.477-.711.05-1.13.133-1.293.238-.16.078-.238.367-.184.844l.528 6.921c.078 1.06.184 1.69.316 1.903.133.21.527.37 1.215.449.055.078.105.266.105.477 0 .238-.05.395-.105.472-1.19-.023-1.95-.05-2.273-.05-.395 0-1.27.027-2.641.05-.078-.078-.105-.234-.106-.472 0-.211.028-.398.106-.477.266-.027.477-.055.61-.078.132-.027.261-.055.394-.133s.21-.16.265-.21c.028-.083.051-.212.106-.423.027-.215.027-.426.027-.61-.027-.183-.027-.476-.054-.898l-.344-6.843zM104.43 9.387v3.117h2.063c.87 0 1.48-.184 1.875-.527s.605-.898.605-1.665q0-1.98-2.535-1.98c-.844 0-1.4.078-1.637.21-.238.134-.37.423-.371.845m0 4.07v3.883c0 .527.105.87.344 1.058.238.184.793.29 1.61.29 2.09 0 3.12-.872 3.116-2.641 0-1.72-1-2.59-3.007-2.59zm-1.031 6.129c-.5 0-1.48.027-2.957.05-.078-.077-.133-.233-.133-.472 0-.211.055-.398.133-.477.844-.078 1.37-.21 1.586-.449.21-.238.316-.898.316-1.93v-5.597c0-1.03-.105-1.69-.316-1.93-.215-.238-.742-.398-1.586-.45-.078-.077-.133-.265-.133-.476 0-.238.055-.395.133-.476 1.5.027 2.48.055 2.93.054.449 0 1 0 1.718-.027s1.16-.027 1.375-.027c1.77 0 2.98.266 3.618.793.66.53.977 1.24.976 2.113 0 .504-.184 1-.578 1.535-.371.5-.848.871-1.402 1.11 1.8.422 2.7 1.53 2.695 3.3 0 .95-.395 1.77-1.164 2.43-.766.633-1.95.977-3.563.977-.53 0-1.24 0-2.062-.024-.844-.027-1.38-.027-1.586-.027zM119.06 13.641h-1.504v3.965c0 .262.078.527.262.793.16.234.344.367.582.367h2.191c1.38 0 2.33-.949 2.856-2.879.262-.078.5-.027.738.106-.238 1.43-.5 2.67-.793 3.644-1.16-.023-2.09-.05-2.8-.05h-4.067c-1.24.027-2.22.027-2.957.05-.082-.078-.133-.211-.133-.422 0-.21.05-.367.133-.45.844-.05 1.37-.21 1.582-.448.21-.238.316-.898.316-1.926v-5.68c0-1.03-.105-1.69-.316-1.93-.211-.237-.738-.397-1.582-.449-.082-.105-.133-.266-.133-.504 0-.21.05-.367.133-.449l2.93.055h5.468c.238 0 .582-.027 1.082-.106q.082.001.082.079c.105.422.29 1.48.473 3.199a1.4 1.4 0 0 1-.71.105c-.294-.848-.583-1.45-.872-1.797-.293-.344-.82-.53-1.586-.531H118.4c-.238 0-.45.082-.606.188q-.239.198-.238.554v3.672h1.504c.398 0 .688-.027.899-.078.21-.027.398-.082.527-.11.133-.023.215-.104.265-.288.055-.184.079-.316.106-.395 0-.055 0-.266.027-.61.078-.077.184-.104.371-.105.184 0 .29.055.368.133-.051.871-.051 1.48-.051 1.848 0 .266 0 .898.05 1.93-.078.077-.183.104-.367.105-.188 0-.293-.027-.37-.106q-.04-.912-.239-1.109c-.211-.266-.738-.371-1.586-.371zM133.38 10.445c0-.793-.184-1.38-.527-1.742-.344-.371-.871-.555-1.637-.555-1.14 0-1.72.262-1.719.817v4.28h.899c1.03 0 1.77-.21 2.273-.66.473-.421.711-1.14.71-2.14m-3.883 5.863c0 1 .078 1.64.238 1.852.184.21.61.367 1.27.45.078.237.105.448.105.632 0 .21-.027.344-.105.394-1.51-.023-2.35-.05-2.54-.05-.5 0-1.48.027-2.956.05-.078-.05-.105-.184-.106-.394 0-.184.028-.395.106-.633.844.078 1.38 0 1.586-.238.21-.238.316-.898.316-1.957v-5.73c0-1.08-.105-1.72-.316-1.981-.211-.238-.742-.398-1.586-.45-.078-.081-.105-.237-.106-.449 0-.21.028-.344.106-.425 1.5.027 2.48.054 2.933.054.367 0 .844 0 1.477-.027.61-.027 1-.027 1.191-.027q2.61 0 3.567.714c.66.477.977 1.24.976 2.352 0 .871-.316 1.61-.898 2.164-.609.56-1.38.875-2.297.953v.028c.422.023.793.238 1.133.578.37.344.637.742.793 1.164l.898 1.98c.266.61.531 1.03.766 1.243.238.21.609.344 1.086.343q.236.276.156.715c-.316.156-.816.234-1.531.235-.61 0-1.08-.184-1.48-.555-.396-.367-.794-.977-1.16-1.793l-.716-1.586a5 5 0 0 0-.476-.793c-.13-.211-.422-.422-.817-.633-.398-.188-.848-.293-1.402-.293h-.21z"/></svg>