<?xml version="1.0" encoding="UTF-8"?>
<svg width="120px" height="12px" viewBox="0 0 120 12" version="1.1" xmlns="http://www.w3.org/2000/svg" xmlns:xlink="http://www.w3.org/1999/xlink">
    <title>se-tagline</title>
    <g id="Page-1" stroke="none" stroke-width="1" fill="none" fill-rule="evenodd">
        <path d="M3.40769664,4.61244099 C4.48247919,4.61244099 4.52041389,4.89533529 4.55834755,5.44882942 C4.63421279,5.52261653 4.89974946,5.52261653 4.97561678,5.44882942 C4.96296738,5.01834072 4.95032836,4.78463445 4.95032836,4.36644023 C4.95032836,3.94824601 4.96297776,3.67765628 4.97561678,3.3086602 C4.89975153,3.23487309 4.63421487,3.23487309 4.55834755,3.3086602 C4.52040974,3.98514966 4.4824823,4.14504864 3.40769664,4.14504864 L2.23175628,4.14504864 L2.23175628,1.56208612 C2.23175628,1.26688724 2.38349093,1.14389191 2.68695917,1.14389191 L4.01463313,1.14389191 C4.96297153,1.14389191 5.16528404,1.63588332 5.44346387,2.48456625 L5.83544364,2.42309382 C5.7595784,1.91879782 5.56990906,0.738012361 5.55726381,0.639616096 C5.54461442,0.614986748 5.5319754,0.602672074 5.50668698,0.602672074 C5.27908606,0.65182983 5.21586295,0.65182983 4.9123947,0.65182983 L1.68804291,0.65182983 C1.68804291,0.65182983 0.689125708,0.639515156 0.0569004906,0.627200482 C-0.0189668302,0.700987587 -0.0189668302,0.959303016 0.0569004906,1.03310021 C0.942015774,1.0699433 1.15697353,1.13151667 1.15697353,2.15238296 L1.15697353,7.08461181 C1.15697353,8.10549829 0.942015774,8.167001 0.0569004906,8.20390465 C-0.0189668302,8.27769175 -0.0189668302,8.53599709 0.0569004906,8.60979428 C0.676481189,8.59747961 1.055818,8.58516494 1.70068815,8.58516494 C2.33291306,8.58516494 2.69960545,8.59747961 3.33183036,8.60979428 C3.40769561,8.53600718 3.40769561,8.27770184 3.33183036,8.20390465 C2.44671508,8.16696062 2.23175732,8.10548819 2.23175732,7.08461181 L2.23175732,4.61235014 L3.40769768,4.61235014 M7.22080881,4.68623818 L7.22080881,7.08470265 C7.22080881,8.10558913 7.06907314,8.15479736 6.28511463,8.20399549 C6.20924938,8.2777826 6.20924938,8.53608793 6.28511463,8.60988513 C6.8161838,8.59757046 7.22080881,8.58525578 7.72658957,8.58525578 C8.24501349,8.58525578 8.71286163,8.59757046 9.25657604,8.60988513 C9.33244129,8.53609803 9.33244129,8.27779269 9.25657604,8.20399549 C8.37146076,8.14252306 8.21972508,8.10557904 8.21972508,7.08470265 L8.21972508,5.37503223 C8.21972508,5.05523427 8.37145972,4.77233996 8.52319332,4.55093827 C8.66228272,4.35414574 8.9531078,3.94824601 9.1048414,3.94824601 C9.19335604,3.94824601 9.2945097,3.96056069 9.37037599,4.03434779 C9.49682117,4.15734312 9.62326636,4.3910393 9.88880095,4.3910393 C10.1922692,4.3910393 10.4830932,4.08354592 10.4830932,3.77605255 C10.4830932,3.54235637 10.2554923,3.18566487 9.72442314,3.18566487 C9.13013085,3.18566487 8.61170485,3.72685442 8.32088185,4.20655135 C8.24501661,4.34184116 8.20708087,4.28033845 8.20708087,4.21886602 C8.20708087,3.82527087 8.2703071,3.23488319 8.2703071,3.23488319 C8.2703071,3.18572543 8.20708087,3.14878141 8.10592825,3.14878141 C7.75188214,3.28408132 7.24610034,3.39478216 6.3736303,3.50547292 C6.34834189,3.57926002 6.34834189,3.77607274 6.39891872,3.84986994 C7.08172253,3.91134237 7.22081297,4.00976891 7.22081297,4.68625837 M11.7866638,1.2176891 C11.7866638,1.53748706 12.0901321,1.85727492 12.3936003,1.85727492 C12.7476464,1.85727492 13.0511157,1.53748706 13.0511157,1.26688724 C13.0511157,0.971688348 12.7855801,0.627291328 12.4441782,0.627291328 C12.140711,0.627291328 11.7866638,0.922490216 11.7866638,1.2176891 M12.9373147,7.08470265 L12.9373147,4.63704005 C12.9373147,4.0220533 12.9878916,3.234863 12.9878916,3.234863 C12.9878916,3.18570524 12.9246653,3.14876122 12.8235127,3.14876122 C12.4568224,3.28406113 11.9636848,3.39476198 11.0912148,3.50545273 C11.0659263,3.57923983 11.0912148,3.77605255 11.1165032,3.84984975 C11.799307,3.92363685 11.9383964,3.98514966 11.9383964,4.68623818 L11.9383964,7.08470265 C11.9383964,8.10558913 11.7993059,8.14249278 11.0279916,8.20399549 C10.9521264,8.2777826 10.9521264,8.53608793 11.0279916,8.60988513 C11.5590608,8.59757046 11.8878196,8.58525578 12.4441771,8.58525578 C12.9878916,8.58525578 13.304005,8.59757046 13.8477184,8.60988513 C13.9235837,8.53609803 13.9235837,8.27779269 13.8477184,8.20399549 C13.0764041,8.15483774 12.9373137,8.10557904 12.9373137,7.08470265 M18.4438054,7.06010359 C18.4438054,7.29379976 18.418517,7.39220612 18.2414929,7.53980052 C17.7736458,7.93339567 17.3690208,8.13019829 17.0529083,8.13019829 C16.3701055,8.13019829 15.6620112,7.40450061 15.6620112,5.86702364 C15.6620112,4.98143707 15.8390353,4.48944566 16.0287026,4.23115041 C16.4206824,3.65305722 16.9517526,3.61615357 17.2046429,3.61615357 C17.6598448,3.61615357 17.9759583,3.77605255 18.2288487,4.05894686 C18.4058717,4.25574948 18.4438054,4.34184116 18.4438054,4.72314183 L18.4438054,7.06010359 M18.3047149,7.97029932 C18.3552918,7.92114156 18.4564496,7.89651221 18.4564496,7.98261399 C18.4564496,8.27781288 18.595539,8.70830158 18.595539,8.70830158 C18.6966926,8.74524561 18.7346294,8.73293093 18.8357852,8.70830158 C19.1139639,8.48690999 19.5944573,8.30241194 20.3657716,8.21631017 C20.4416369,8.14252306 20.4416369,7.95801492 20.3657716,7.88421773 C19.5565237,7.8227453 19.4427216,7.58901884 19.4427216,6.98632658 L19.4427216,1.41450182 C19.4427216,0.61501703 19.4932985,0.123025613 19.4932985,0.123025613 C19.4932985,0.0369238342 19.4427216,2.01879903e-05 19.3289207,2.01879903e-05 C19.0128072,0.123025613 18.0644677,0.295219076 17.558688,0.332122722 C17.5333996,0.430539175 17.558688,0.627311516 17.6345533,0.701118809 C18.2920676,0.738062831 18.4438023,0.67648946 18.4438023,1.70970071 L18.4438023,3.28408132 C18.4438023,3.3701831 18.4185138,3.39478216 18.3300013,3.39478216 C18.2794245,3.39478216 17.7609974,3.18568505 17.3437292,3.18568505 C16.5091918,3.18568505 15.9528321,3.45627478 15.4470514,3.92366713 C14.903338,4.4525622 14.5745803,5.17824979 14.5745803,6.08844552 C14.5745803,7.60132342 15.3585409,8.70830158 16.7241475,8.70830158 C17.217283,8.70830158 17.6851311,8.46231092 18.3047118,7.9703195 M29.1880872,3.14876122 C29.2892398,3.14876122 29.352466,3.18570524 29.352466,3.234863 C29.352466,3.234863 29.3018892,4.0220533 29.3018892,4.63704005 L29.3018892,7.23230714 C29.3018892,9.55697441 28.947842,10.442561 28.3535497,10.9099533 C27.8857037,11.2912035 27.2281872,11.3281476 26.9626527,11.3281476 C26.7224075,11.3281476 26.2672046,11.1559541 26.2672046,10.7992525 C26.2672046,10.5778609 26.5327392,10.3318601 26.6718297,10.3318601 C26.8705288,10.3318601 27.0047156,10.4322696 27.1112541,10.5344699 L27.2281883,10.6516581 C27.3166998,10.7378002 27.4810787,10.786958 27.6201681,10.786958 C28.252395,10.786958 28.3029719,9.27408011 28.3029719,7.65050136 L28.3029698,4.68623818 C28.3029698,3.98514966 28.1638794,3.91132218 27.4810766,3.84984975 C27.4557882,3.77605255 27.4304998,3.57923983 27.4557882,3.50545273 C28.3282592,3.39476198 28.834041,3.28406113 29.1880872,3.14876122 Z M25.7252678,2.01879903e-05 C25.8390698,2.01879903e-05 25.8896466,0.0369238342 25.8896466,0.123025613 C25.8896466,0.123025613 25.8390698,0.61501703 25.8390698,1.41450182 L25.8390698,6.98632658 C25.8390698,7.58901884 25.9528708,7.8227453 26.7621187,7.88421773 C26.837984,7.95801492 26.837984,8.14252306 26.7621187,8.21631017 C25.9908044,8.30241194 25.5103111,8.48690999 25.2321323,8.70830158 C25.1309765,8.73293093 25.0930408,8.74524561 24.9918871,8.70830158 C24.9918871,8.70830158 24.8527967,8.27781288 24.8527967,7.98261399 C24.8527967,7.89651221 24.7516399,7.92114156 24.7010631,7.97029932 C24.0814793,8.46231092 23.6136312,8.70830158 23.1204946,8.70830158 C21.7548891,8.70830158 20.9709274,7.60132342 20.9709274,6.08844552 C20.9709274,5.17824979 21.2996851,4.4525622 21.8433985,3.92366713 C22.3491793,3.45627478 22.9055389,3.18568505 23.7400764,3.18568505 C24.1573445,3.18568505 24.6757716,3.39478216 24.7263484,3.39478216 C24.814861,3.39478216 24.8401494,3.3701831 24.8401494,3.28408132 L24.8401494,1.70970071 C24.8401494,0.67648946 24.6884147,0.738062831 24.0309004,0.701118809 C23.9550351,0.627311516 23.9297467,0.430539175 23.9550351,0.332122722 C24.4608159,0.295219076 25.4091553,0.123025613 25.7252678,2.01879903e-05 Z M23.6009901,3.61615357 C23.3480997,3.61615357 22.8170295,3.65305722 22.4250497,4.23115041 C22.2353824,4.48944566 22.0583583,4.98143707 22.0583583,5.86702364 C22.0583583,7.40450061 22.7664527,8.13019829 23.4492554,8.13019829 C23.7653679,8.13019829 24.1699939,7.93339567 24.63784,7.53980052 C24.8148641,7.39220612 24.8401525,7.29379976 24.8401525,7.06010359 L24.8401525,4.72314183 C24.8401525,4.34184116 24.8022188,4.25574948 24.6251958,4.05894686 C24.3723054,3.77605255 24.0561919,3.61615357 23.6009901,3.61615357 Z M28.7834632,0.627291328 C29.1248651,0.627291328 29.3904007,0.971688348 29.3904007,1.26688724 C29.3904007,1.53748706 29.0869314,1.85727492 28.7328853,1.85727492 C28.4294171,1.85727492 28.1259488,1.53748706 28.1259488,1.2176891 C28.1259488,0.922490216 28.479996,0.627291328 28.7834632,0.627291328 Z M34.011773,5.71942925 L34.011773,7.35530247 C34.011773,7.51520145 33.9359077,7.60130323 33.8347489,7.67510043 C33.5059922,7.93339567 33.0760777,8.20399549 32.7220316,8.20399549 C32.0898067,8.20399549 31.8116269,7.71199398 31.8116269,7.33070341 C31.8116269,6.77720928 32.0771625,6.22371515 33.0128557,5.97772449 L34.011773,5.71942925 M34.011773,7.99489838 C34.0876382,8.25319362 34.302597,8.7082814 34.9854008,8.7082814 C35.6049815,8.7082814 36.0601844,8.21628998 36.0601844,8.15479736 C36.0601844,8.06869558 35.9463834,7.94570025 35.8958055,7.94570025 C35.8199403,7.94570025 35.7693604,8.14249278 35.5038258,8.14249278 C35.0106903,8.14249278 34.998045,7.66279585 34.998045,7.09700723 L34.998045,5.26433138 C34.998045,3.51775731 34.0117719,3.18566487 33.088723,3.18566487 C32.0518731,3.18566487 31.0023779,3.88675339 31.0023779,4.55093827 C31.0023779,4.84613716 31.1541125,4.98143707 31.4449355,4.98143707 C31.8116258,4.98143707 32.0012941,4.73543632 32.0012941,4.57553734 C32.0012941,4.48943556 31.9886551,4.40334388 31.9633563,4.35414574 C31.9507069,4.31720172 31.9380679,4.2434449 31.9380679,4.10814499 C31.9380679,3.72685442 32.5070718,3.59155451 32.9875621,3.59155451 C33.4174755,3.59155451 34.0117688,3.80065162 34.0117688,5.19053418 C34.0117688,5.27663596 33.973831,5.32583409 33.9359036,5.33812858 L32.8484747,5.59642382 C31.6346028,5.89162271 30.7621296,6.5435131 30.7621296,7.37990154 C30.7621296,8.35158989 31.4702239,8.7082814 32.3553392,8.7082814 C32.9369863,8.7082814 33.1772324,8.60986494 33.7335911,8.19169091 L33.9864814,7.99489838 L34.0117698,7.99489838 M43.6093564,7.06010359 C43.6093564,7.29379976 43.584068,7.39220612 43.4070439,7.53980052 C42.9391978,7.93339567 42.5345718,8.13019829 42.2184593,8.13019829 C41.5356565,8.13019829 40.8275633,7.40450061 40.8275633,5.86702364 C40.8275633,4.98143707 41.0045863,4.48944566 41.1942536,4.23115041 C41.5862334,3.65305722 42.1173036,3.61615357 42.3701939,3.61615357 C42.8253958,3.61615357 43.1415093,3.77605255 43.3943997,4.05894686 C43.5714227,4.25574948 43.6093564,4.34184116 43.6093564,4.72314183 L43.6093564,7.06010359 M43.470267,7.97029932 C43.5208438,7.92114156 43.6220006,7.89651221 43.6220006,7.98261399 C43.6220006,8.27781288 43.761091,8.70830158 43.761091,8.70830158 C43.8622447,8.74524561 43.9001804,8.73293093 44.0013362,8.70830158 C44.279516,8.48690999 44.7600083,8.30241194 45.5313226,8.21631017 C45.6071879,8.14252306 45.6071879,7.95801492 45.5313226,7.88421773 C44.7220747,7.8227453 44.6082737,7.58901884 44.6082737,6.98632658 L44.6082737,1.41450182 C44.6082737,0.61501703 44.6588505,0.123025613 44.6588505,0.123025613 C44.6588505,0.0369238342 44.6082737,2.01879903e-05 44.4944717,2.01879903e-05 C44.1783592,0.123025613 43.2300198,0.295219076 42.724239,0.332122722 C42.6989506,0.430539175 42.724239,0.627311516 42.8001043,0.701118809 C43.4576186,0.738062831 43.6093533,0.67648946 43.6093533,1.70970071 L43.6093533,3.28408132 C43.6093533,3.3701831 43.5840649,3.39478216 43.4955523,3.39478216 C43.4449755,3.39478216 42.9265495,3.18568505 42.5092802,3.18568505 C41.6747428,3.18568505 41.1183832,3.45627478 40.6126024,3.92366713 C40.068889,4.4525622 39.7401313,5.17824979 39.7401313,6.08844552 C39.7401313,7.60132342 40.5240929,8.70830158 41.8896995,8.70830158 C42.382835,8.70830158 42.8506832,8.46231092 43.4702639,7.9703195 M46.7813517,1.2176891 C46.7813517,1.53748706 47.084821,1.85727492 47.3882892,1.85727492 C47.7423354,1.85727492 48.0458036,1.53748706 48.0458036,1.26688724 C48.0458036,0.971688348 47.780269,0.627291328 47.4388671,0.627291328 C47.1353989,0.627291328 46.7813517,0.922490216 46.7813517,1.2176891 M47.9320026,7.08470265 L47.9320026,4.63704005 C47.9320026,4.0220533 47.9825794,3.234863 47.9825794,3.234863 C47.9825794,3.18570524 47.9193532,3.14876122 47.8182006,3.14876122 C47.4515092,3.28406113 46.9583727,3.39476198 46.0859016,3.50545273 C46.0606132,3.57923983 46.0859016,3.77605255 46.11119,3.84984975 C46.7939928,3.92363685 46.9330832,3.98514966 46.9330832,4.68623818 L46.9330832,7.08470265 C46.9330832,8.10558913 46.7939928,8.14249278 46.0226775,8.20399549 C45.9468122,8.2777826 45.9468122,8.53608793 46.0226775,8.60988513 C46.5537466,8.59757046 46.8825054,8.58525578 47.438864,8.58525578 C47.9825774,8.58525578 48.2986919,8.59757046 48.8424053,8.60988513 C48.9182705,8.53609803 48.9182705,8.27779269 48.8424053,8.20399549 C48.0710899,8.15483774 47.9319995,8.10557904 47.9319995,7.08470265 M50.6440528,5.11673698 C50.884299,3.72685442 51.7694153,3.61615357 52.0728836,3.61615357 C52.5533749,3.61615357 53.1223787,3.87444881 53.1223787,4.90763987 C53.1223787,5.01833063 53.0718019,5.07983334 52.9327104,5.07983334 L50.6440528,5.11677736 M53.9569162,7.44144463 C53.4890701,7.90883698 53.1223777,8.10562951 52.3889971,8.10562951 C51.9337942,8.10562951 51.402724,7.84733427 51.0107442,7.22004294 C50.7578538,6.8141533 50.6061192,6.24835459 50.6061192,5.53497158 L53.9695614,5.55960093 C54.121295,5.55960093 54.2098065,5.48581382 54.2098065,5.35050382 C54.2098065,4.31731276 53.8304699,3.21033459 52.0728836,3.21033459 C50.9728116,3.21033459 49.5439798,4.23122107 49.5439798,6.10079048 C49.5439798,6.78958452 49.7210039,7.4537694 50.1382721,7.92117184 C50.5681855,8.41316326 51.1624788,8.70835205 52.0728836,8.70835205 C53.0338662,8.70835205 53.716671,8.27786335 54.2224518,7.63826744 C54.184514,7.51527211 54.1086508,7.4537694 53.9569162,7.44147491 M56.8432261,5.07983334 C56.8432261,4.80923352 56.9570271,4.66163912 57.0581828,4.55093827 C57.5386741,4.0958505 58.0950338,3.82525068 58.6008135,3.82525068 C58.8537038,3.82525068 59.1192395,3.99745424 59.2709731,4.26804397 C59.3974183,4.51404472 59.4227077,4.84613716 59.4227077,5.21513325 L59.4227077,7.08470265 C59.4227077,8.09329465 59.2962615,8.14249278 58.6387471,8.20399549 C58.5755209,8.2777826 58.5755209,8.53608793 58.6387471,8.60988513 C59.1698163,8.59757046 59.4227077,8.58525578 59.9284885,8.58525578 C60.4469124,8.58525578 60.7250933,8.59757046 61.2688066,8.60988513 C61.3320329,8.53609803 61.3320329,8.27779269 61.2688066,8.20399549 C60.5607144,8.14252306 60.421624,8.09329465 60.421624,7.08470265 L60.421624,5.25203689 C60.421624,4.57553734 60.3710472,3.98514966 60.0802221,3.60385909 C59.8652654,3.33325926 59.4732845,3.18566487 59.0307269,3.18566487 C58.398502,3.18566487 57.7283414,3.34556384 56.957026,4.18194219 C56.9064492,4.23109994 56.8305819,4.35414574 56.8305819,4.18194219 L56.8432313,1.41448163 C56.8432313,0.614996842 56.8938081,0.123005425 56.8938081,0.123005425 C56.8938081,0.0369036462 56.8432313,8.8817842e-16 56.7294292,8.8817842e-16 C56.4133168,0.123005425 55.4649774,0.295198888 54.9591966,0.332102534 C54.9339082,0.430518987 54.9591966,0.627291328 55.0350618,0.701098621 C55.6925762,0.738042643 55.8443108,0.676469272 55.8443108,1.70968052 L55.8443108,7.08470265 C55.8443108,8.10558913 55.6925762,8.15479736 54.9591945,8.20399549 C54.8833293,8.2777826 54.8833293,8.53608793 54.9591945,8.60988513 C55.4776195,8.59757046 55.8063782,8.58525578 56.3500916,8.58525578 C56.8432271,8.58525578 57.0581849,8.59757046 57.589254,8.60988513 C57.6651193,8.53609803 57.6651193,8.27779269 57.589254,8.20399549 C56.9570291,8.15483774 56.8432281,8.10557904 56.8432281,7.08470265 L56.8432281,5.07983334 M61.992708,3.3086602 C61.815685,3.3086602 61.7651071,3.45625459 61.7651071,3.55465086 L61.7651071,3.71454984 C61.7651071,3.77602227 61.7777565,3.78833694 61.8283333,3.78833694 L62.5743602,3.78833694 L62.5743602,7.49059229 C62.5743602,8.36387428 62.96634,8.7082713 63.5479881,8.7082713 C64.1296351,8.7082713 64.7618621,8.43768157 65.2549976,7.89648193 C65.2297092,7.7734866 65.153844,7.6996894 65.0273957,7.68738482 C64.698639,7.93338558 64.3193024,8.03178184 63.9905457,8.03178184 C63.6491438,8.03178184 63.5732765,7.66278575 63.5732765,6.90020461 L63.5732765,3.78833694 L64.8883063,3.78833694 C65.0147515,3.78833694 65.1917745,3.73917918 65.1917745,3.62844806 L65.1917745,3.3824473 C65.1917745,3.33328955 65.1538367,3.3086602 65.0906209,3.3086602 L63.5732786,3.3086602 L63.5732786,2.82896327 C63.5732786,2.02947848 63.6238554,1.53748706 63.6238554,1.53748706 C63.6238554,1.45138528 63.5732786,1.41448163 63.4594776,1.41448163 L62.7260949,1.74658417 C62.6502296,1.78342725 62.5364276,1.8080566 62.5490718,1.89417856 C62.5743602,2.17707287 62.5743602,2.28777372 62.5743602,3.3086602 L61.9927122,3.3086602 M65.9682212,6.06382627 C65.9682212,7.31839883 66.8406954,8.7082814 68.6235702,8.7082814 C70.5076017,8.7082814 71.3042076,7.18310901 71.3042076,5.95312542 C71.3042076,4.6739437 70.6087575,3.18566487 68.6488596,3.18566487 C66.9418511,3.18566487 65.9682212,4.50174014 65.9682212,6.06382627 M68.5097692,3.59155451 C69.597197,3.59155451 70.2167798,4.53864379 70.2167798,6.34672057 C70.2167798,7.97028922 69.4454634,8.30239176 68.8511711,8.30239176 C67.5361434,8.30239176 67.05565,6.72801115 67.05565,5.78092186 C67.05565,4.71083725 67.4476309,3.59155451 68.5097692,3.59155451 M72.428384,6.88791012 C72.4789608,7.49060239 72.5168986,8.06869558 72.5168986,8.58528606 C72.6433438,8.56065672 72.769789,8.54834204 72.8330111,8.54834204 C72.9215257,8.54834204 72.9973899,8.54834204 73.0859014,8.57297139 C73.4273033,8.65907317 73.7687063,8.70826121 74.2365523,8.70826121 C74.9446446,8.70826121 76.2470312,8.37616877 76.2470312,7.15848976 C76.2470312,6.32210132 75.6148042,5.84240439 74.7676226,5.52260643 C74.0089525,5.23971213 73.5031707,5.05521408 73.5031707,4.37872462 C73.5031707,3.87442863 73.9583736,3.59153432 74.388287,3.59153432 C74.6664658,3.59153432 75.3998485,3.68995077 75.5642273,4.73541613 C75.6400926,4.80920323 75.892985,4.79688856 75.9688513,4.72310146 C75.9688513,4.28030817 76.0320776,3.82521031 76.0447166,3.41932067 C75.6527368,3.35784824 75.0457993,3.18562449 74.3882849,3.18562449 C73.4525918,3.18562449 72.6054081,3.77601217 72.6054081,4.56320248 C72.6054081,5.46108353 73.0226783,5.8423842 73.9963051,6.23597935 C75.033154,6.66646806 75.2860454,6.91246881 75.2860454,7.44136388 C75.2860454,8.04405614 74.6791079,8.30235138 74.2112619,8.30235138 C73.7181263,8.30235138 73.4399465,8.1424524 73.3135013,8.00715249 C73.0100331,7.72425818 72.8962321,7.18306864 72.8203648,6.87556517 C72.7444995,6.80177806 72.5042523,6.81409274 72.428384,6.88787984 M79.7471917,0.332102534 L78.7862091,1.7957823 C78.6850554,1.95568128 78.6471186,2.00487941 78.6471186,2.14017932 C78.6471186,2.2262811 78.7356333,2.3000682 78.8241427,2.3000682 C78.9126574,2.3000682 79.01381,2.25091045 79.2034783,2.06637203 L80.6575974,0.725697687 L80.6196596,0.590397776 C80.3288356,0.319797954 80.0000779,0.307503468 79.9242116,0.307503468 C79.8609854,0.307503468 79.7851212,0.319818142 79.7471875,0.332132816 M80.3667693,5.71945953 L80.3667693,7.35533276 C80.3667693,7.51523173 80.290904,7.60133351 80.1897462,7.67513071 C79.8609885,7.93342595 79.4310751,8.20402577 79.077029,8.20402577 C78.444803,8.20402577 78.1666232,7.71202426 78.1666232,7.33073369 C78.1666232,6.77723956 78.4321588,6.22374543 79.367852,5.97775477 L80.3667693,5.71945953 M80.3667693,7.99492866 C80.4426345,8.25322391 80.6575933,8.70831168 81.3403971,8.70831168 C81.9599778,8.70831168 82.4151807,8.21632026 82.4151807,8.15482764 C82.4151807,8.06872586 82.3013807,7.94573053 82.2508018,7.94573053 C82.1749366,7.94573053 82.1243567,8.14252306 81.8588221,8.14252306 C81.3656866,8.14252306 81.3530413,7.66282613 81.3530413,7.09703751 L81.3530413,5.26436166 C81.3530413,3.51778759 80.3667682,3.18569515 79.4437193,3.18569515 C78.4068704,3.18569515 77.3573742,3.88678368 77.3573742,4.55096856 C77.3573742,4.84616744 77.5091088,4.98146735 77.7999318,4.98146735 C78.1666232,4.98146735 78.3562915,4.7354666 78.3562915,4.57556762 C78.3562915,4.48946584 78.3436421,4.40337416 78.3183537,4.35417603 C78.3057043,4.317232 78.2930653,4.24347518 78.2930653,4.10817527 C78.2930653,3.7268847 78.8620691,3.59158479 79.3425604,3.59158479 C79.7724739,3.59158479 80.3667661,3.8006819 80.3667661,5.19056446 C80.3667661,5.27666624 80.3288283,5.32586438 80.2909009,5.33815886 L79.2034731,5.5964541 C77.9896001,5.89165299 77.117127,6.54354339 77.117127,7.37993182 C77.117127,8.35162017 77.8252213,8.70831168 78.7103366,8.70831168 C79.2919836,8.70831168 79.5322308,8.60989522 80.0885884,8.19172119 L80.3414788,7.99492866 L80.3667672,7.99492866 M82.984583,3.3086602 C82.80756,3.3086602 82.7569811,3.45625459 82.7569811,3.55465086 L82.7569811,3.71454984 C82.7569811,3.77602227 82.7696305,3.78833694 82.8202073,3.78833694 L83.5662332,3.78833694 L83.5662332,7.49059229 C83.5662332,8.36387428 83.958214,8.7082713 84.539861,8.7082713 C85.1215091,8.7082713 85.753735,8.43768157 86.2468716,7.89648193 C86.2215832,7.7734866 86.1457179,7.6996894 86.0192696,7.68738482 C85.690513,7.93338558 85.3111764,8.03178184 84.9824197,8.03178184 C84.6410178,8.03178184 84.5651505,7.66278575 84.5651505,6.90020461 L84.5651505,3.78833694 L85.8801802,3.78833694 C86.0066254,3.78833694 86.1836485,3.73917918 86.1836485,3.62844806 L86.1836485,3.3824473 C86.1836485,3.33328955 86.1457107,3.3086602 86.0824948,3.3086602 L84.5651526,3.3086602 L84.5651526,2.82896327 C84.5651526,2.02947848 84.6157294,1.53748706 84.6157294,1.53748706 C84.6157294,1.45138528 84.5651526,1.41448163 84.4513505,1.41448163 L83.7179689,1.74658417 C83.6421036,1.78342725 83.5283016,1.8080566 83.5409458,1.89417856 C83.5662342,2.17707287 83.5662342,2.28777372 83.5662342,3.3086602 L82.9845872,3.3086602 M88.7682584,4.18194219 C88.7303206,4.23109994 88.6418132,4.35414574 88.6418132,4.18194219 C88.6418132,3.8129562 88.7050394,3.24715749 88.7050394,3.24715749 C88.7050394,3.18568505 88.6544626,3.14874103 88.5533048,3.14874103 C88.1992587,3.28404094 87.6808327,3.39474179 86.8083616,3.50543254 C86.7830732,3.57921964 86.8083616,3.77603236 86.83365,3.84982956 C87.5164538,3.91130199 87.6555442,3.97283498 87.6555442,4.686218 L87.6555442,7.08468246 C87.6555442,8.09327446 87.529098,8.14247259 86.7704279,8.2039753 C86.6945627,8.27776241 86.6945627,8.53606774 86.7704279,8.60986494 C87.2888529,8.59755027 87.6176106,8.58523559 88.161325,8.58523559 C88.6544605,8.58523559 88.8820625,8.59755027 89.4131316,8.60986494 C89.4889969,8.53607784 89.4889969,8.2777725 89.4131316,8.2039753 C88.7682625,8.14250287 88.6544605,8.09327446 88.6544605,7.08468246 L88.6544605,5.06751866 C88.6544605,4.80921333 88.7682615,4.66161893 88.8694172,4.55091809 C89.3499085,4.09583031 89.8430461,3.82523049 90.3361816,3.82523049 C90.589072,3.82523049 90.8546066,3.98512947 91.0063412,4.26802378 C91.1327864,4.51402453 91.1580748,4.84611697 91.1580748,5.21511306 L91.1580748,7.08468246 C91.1580748,8.09327446 91.0316296,8.14247259 90.3741153,8.2039753 C90.3108891,8.27776241 90.3108891,8.53606774 90.3741153,8.60986494 C90.9051844,8.59755027 91.1580759,8.58523559 91.6638556,8.58523559 C92.1822805,8.58523559 92.4604614,8.59755027 93.0041748,8.60986494 C93.067401,8.53607784 93.067401,8.2777725 93.0041748,8.2039753 C92.2960826,8.14250287 92.1569921,8.09327446 92.1569921,7.08468246 L92.1569921,5.25201671 C92.1569921,4.57551715 92.1064153,3.98512947 91.8155902,3.6038389 C91.6006335,3.33323908 91.2086527,3.18564468 90.7660951,3.18564468 C90.1465144,3.18564468 89.5395758,3.34554366 88.7682615,4.181922 M94.7763832,5.11673698 C95.0166283,3.72685442 95.9017436,3.61615357 96.205215,3.61615357 C96.6857052,3.61615357 97.2547101,3.87444881 97.2547101,4.90763987 C97.2547101,5.01833063 97.2041748,5.07983334 97.0650418,5.07983334 L94.7763832,5.11677736 M98.0892486,7.44144463 C97.6213973,7.90883698 97.2547101,8.10562951 96.5213253,8.10562951 C96.0661235,8.10562951 95.5350564,7.84733427 95.1430704,7.22004294 C94.8901862,6.8141533 94.7384454,6.24835459 94.7384454,5.53497158 L98.1018876,5.55960093 C98.2536285,5.55960093 98.3421327,5.48581382 98.3421327,5.35050382 C98.3421327,4.31731276 97.9627961,3.21033459 96.205215,3.21033459 C95.105143,3.21033459 93.6763101,4.23122107 93.6763101,6.10079048 C93.6763101,6.78958452 93.8533342,7.4537694 94.2706024,7.92117184 C94.7005179,8.41316326 95.2948113,8.70835205 96.205215,8.70835205 C97.1661955,8.70835205 97.8490035,8.27786335 98.3547821,7.63826744 C98.3168028,7.51527211 98.2409791,7.4537694 98.0892486,7.44147491 M102.897524,5.15363054 C102.897524,6.29751235 102.30323,6.53121862 101.835379,6.53121862 C100.773245,6.53121862 100.659442,5.65792653 100.659442,4.87073623 C100.659442,4.00974872 100.975552,3.56695544 101.670999,3.56695544 C102.46761,3.56695544 102.897524,4.13274406 102.897524,5.15363054 M100.533,8.7082814 C100.672091,8.74522542 100.874399,8.76975383 101.038778,8.76975383 C101.430754,8.76975383 101.784802,8.7328098 101.961832,8.7328098 C102.594052,8.7328098 103.125119,8.74512448 103.491817,8.94190691 C103.984946,9.21250673 104.136687,9.38471029 104.136687,9.70449815 C104.136687,10.5900847 102.79637,11.0574872 101.65836,11.0574872 C101.203158,11.0574872 100.141014,10.7007856 100.141014,9.86439713 C100.141014,9.44620291 100.166333,9.13870954 100.533,8.70821074 M104.478086,3.82518002 C104.718331,3.82518002 104.945937,3.60378843 104.945937,3.35778767 C104.945937,3.09949243 104.705692,2.90268981 104.364283,2.90268981 C104.035534,2.90268981 103.428591,3.11178692 103.099831,3.52998114 C102.948101,3.43156468 102.530826,3.18559421 101.784802,3.18559421 C100.659442,3.18559421 99.6225961,3.92357629 99.6225961,5.05516361 C99.6225961,5.71935859 99.9260571,6.10064916 100.280105,6.4327416 C99.9260571,6.72794049 99.7237498,7.25683555 99.7237498,7.67502977 C99.7237498,8.11782306 99.9766443,8.46222008 100.305394,8.62211905 C99.6225961,9.01571421 99.2685479,9.58150282 99.2685479,10.1103979 C99.2685479,11.1804825 100.305394,11.5125749 101.279024,11.5125749 C102.986028,11.5125749 104.832134,10.7130901 104.832134,9.38471029 C104.832134,8.99111514 104.642466,8.68361167 104.275779,8.38842288 C103.782639,7.99482772 102.897524,7.98252314 102.429672,7.98252314 C102.202077,7.98252314 101.885956,8.00715249 101.582495,8.04399558 C101.392827,8.05631025 101.266385,8.06862492 101.203158,8.06862492 C100.836471,8.06862492 100.393908,7.89642137 100.393908,7.3675364 C100.393908,7.12153564 100.469763,6.8632404 100.621514,6.65414329 C100.924975,6.82633675 101.279024,6.91243853 101.772163,6.91243853 C102.884874,6.91243853 103.909081,6.23594907 103.909081,5.03056455 C103.909081,4.45247135 103.732062,4.12037891 103.365365,3.75138282 C103.453879,3.62838749 103.706774,3.45618394 103.871154,3.45618394 C103.959668,3.45618394 104.048173,3.49312796 104.124038,3.60378843 C104.174573,3.70220488 104.338995,3.82518002 104.478086,3.82518002 M106.324192,1.2176891 C106.324192,1.53748706 106.627653,1.85727492 106.931125,1.85727492 C107.285173,1.85727492 107.588644,1.53748706 107.588644,1.26688724 C107.588644,0.971688348 107.323111,0.627291328 106.981701,0.627291328 C106.67824,0.627291328 106.324192,0.922490216 106.324192,1.2176891 M107.474841,7.08470265 L107.474841,4.63704005 C107.474841,4.0220533 107.525376,3.234863 107.525376,3.234863 C107.525376,3.18570524 107.462181,3.14876122 107.360996,3.14876122 C106.994309,3.28406113 106.50117,3.39476198 105.628704,3.50545273 C105.603384,3.57923983 105.628704,3.77605255 105.654023,3.84984975 C106.336821,3.92363685 106.475912,3.98514966 106.475912,4.68623818 L106.475912,7.08470265 C106.475912,8.10558913 106.336821,8.14249278 105.565509,8.20399549 C105.489654,8.2777826 105.489654,8.53608793 105.565509,8.60988513 C106.096576,8.59757046 106.425335,8.58525578 106.981691,8.58525578 C107.525407,8.58525578 107.841518,8.59757046 108.385234,8.60988513 C108.461089,8.53609803 108.461089,8.27779269 108.385234,8.20399549 C107.613922,8.15483774 107.474831,8.10557904 107.474831,7.08470265 M115.625172,3.14876122 C115.726356,3.14876122 115.789552,3.18570524 115.789552,3.234863 C115.789552,3.234863 115.739016,4.0220533 115.739016,4.63704005 L115.739016,7.23230714 C115.739016,9.55697441 115.384968,10.442561 114.790675,10.9099533 C114.322834,11.2912035 113.665314,11.3281476 113.399781,11.3281476 C113.159536,11.3281476 112.704334,11.1559541 112.704334,10.7992525 C112.704334,10.5778609 112.969867,10.3318601 113.108959,10.3318601 C113.307653,10.3318601 113.441842,10.4322696 113.548381,10.5344699 L113.665314,10.6516581 C113.753829,10.7378002 113.918209,10.786958 114.05729,10.786958 C114.689563,10.786958 114.740098,9.27408011 114.740098,7.65050136 L114.740087,4.68623818 C114.740087,3.98514966 114.600996,3.91132218 113.918198,3.84984975 C113.892879,3.77605255 113.867559,3.57923983 113.892879,3.50545273 C114.765345,3.39476198 115.271123,3.28406113 115.625172,3.14876122 Z M110.768509,3.14878141 C110.869694,3.14878141 110.932889,3.18572543 110.932889,3.23488319 C110.932889,3.23488319 110.869694,3.82527087 110.869694,4.21886602 C110.869694,4.28033845 110.907632,4.34184116 110.983487,4.20655135 C111.274319,3.72685442 111.792737,3.18566487 112.38703,3.18566487 C112.918097,3.18566487 113.145703,3.54235637 113.145703,3.77605255 C113.145703,4.08354592 112.854881,4.3910393 112.55141,4.3910393 C112.285876,4.3910393 112.159434,4.15734312 112.032982,4.03434779 C111.957117,3.96056069 111.855963,3.94824601 111.767448,3.94824601 C111.615718,3.94824601 111.324896,4.35414574 111.185804,4.55093827 C111.034074,4.77233996 110.882333,5.05523427 110.882333,5.37503223 L110.882333,7.08470265 C110.882333,8.10557904 111.034074,8.14252306 111.919189,8.20399549 C111.995044,8.27779269 111.995044,8.53609803 111.919189,8.60988513 C111.375473,8.59757046 110.907621,8.58525578 110.389193,8.58525578 C109.883415,8.58525578 109.47879,8.59757046 108.947723,8.60988513 C108.871868,8.53608793 108.871868,8.2777826 108.947723,8.20399549 C109.731684,8.15479736 109.883415,8.10558913 109.883415,7.08470265 L109.883425,4.68625837 C109.883425,4.00976891 109.744334,3.91134237 109.061536,3.84986994 C109.010897,3.77607274 109.010897,3.57926002 109.036216,3.50547292 C109.908682,3.39478216 110.414471,3.28408132 110.768509,3.14878141 Z M115.220588,0.627291328 C115.561987,0.627291328 115.827531,0.971688348 115.827531,1.26688724 C115.827531,1.53748706 115.524059,1.85727492 115.170011,1.85727492 C114.86654,1.85727492 114.563079,1.53748706 114.563079,1.2176891 C114.563079,0.922490216 114.917127,0.627291328 115.220588,0.627291328 Z M117.882067,1.2176891 C117.882067,1.53748706 118.185538,1.85727492 118.488999,1.85727492 C118.843047,1.85727492 119.146519,1.53748706 119.146519,1.26688724 C119.146519,0.971688348 118.880985,0.627291328 118.539576,0.627291328 C118.236115,0.627291328 117.882067,0.922490216 117.882067,1.2176891 M119.032716,7.08470265 L119.032716,4.63704005 C119.032716,4.0220533 119.083251,3.234863 119.083251,3.234863 C119.083251,3.18570524 119.020056,3.14876122 118.918871,3.14876122 C118.552184,3.28406113 118.059044,3.39476198 117.186578,3.50545273 C117.161259,3.57923983 117.186578,3.77605255 117.211898,3.84984975 C117.894695,3.92363685 118.033787,3.98514966 118.033787,4.68623818 L118.033787,7.08470265 C118.033787,8.10558913 117.894695,8.14249278 117.123383,8.20399549 C117.047528,8.2777826 117.047528,8.53608793 117.123383,8.60988513 C117.65445,8.59757046 117.98321,8.58525578 118.539565,8.58525578 C119.083282,8.58525578 119.399403,8.59757046 119.943109,8.60988513 C120.018964,8.53609803 120.018964,8.27779269 119.943109,8.20399549 C119.171797,8.15483774 119.032705,8.10557904 119.032705,7.08470265" id="se-tagline" fill="#000000" fill-rule="nonzero"></path>
    </g>
</svg>