<svg xmlns="http://www.w3.org/2000/svg" width="146" height="21" fill="none"><path fill="#595959" d="M5.044 20.535 0 .34 3.887.265l3.337 16.288L10.94.265h3.85l3.26 16.004L21.692.265h3.736l-5.442 20.213-3.982.076-3.413-15.53-3.64 15.473-3.906.038Zm24.289 0V.285h3.678v20.25h-3.678Zm9.5-.095V.284h3.602v9.348L49.394.284h4.474L46.74 9.196l7.736 11.244h-4.361l-5.802-9.158-1.858 2.389v6.769h-3.622Zm18.922 0V.284h3.603V20.44h-3.603Z"/><path fill="#8C8C8C" d="M140.179 0c-2.01 0-3.678.417-4.854 1.441-2.579 2.294-2.768 5.67-.531 8.077 1.479 1.593 3.697 2.067 5.65 2.901.967.418 1.859 1.309 1.878 2.409.019 1.061-.323 1.839-.986 2.332-.645.493-1.574.74-2.769.74-1.687-.02-3.375-.418-4.816-1.328l-.758 2.901c.986.588 1.289.664 2.332.91a14.44 14.44 0 0 0 3.318.38c1.043 0 1.991-.114 2.825-.342.854-.227 1.84-.588 2.427-1.08.607-.494 1.195-.968 1.517-1.764.323-.778.588-1.574.588-2.693 0-1.118-.322-2.389-1.062-3.431-1.611-2.333-6.333-2.883-7.508-4.57-.285-.398-.436-1.043-.436-1.498 0-.74.284-1.27.929-1.726.606-.417 1.327-.587 2.237-.587 1.1 0 1.422-.02 2.143.208.72.228 1.46.38 2.123.872l.835-2.995c-.702-.531-1.043-.645-2.029-.854-.91-.208-1.953-.303-3.053-.303Zm-35.59.284 5.063 20.194h3.83l3.887-15.776 3.185 15.776h4.039L129.997.284h-3.773l-3.489 16.269L119.436.284h-3.868L111.87 16.63 108.571.284h-3.982ZM67.236.417v20.08h3.394V5.138l8.286 15.359H83.2V.417h-3.11v14.79L71.388.417h-4.152Zm21.862 0v20.137H101.1v-2.996h-8.4v-5.916h7.756V8.627h-7.755V3.28h8.172V.417H89.098Z"/></svg>