<svg xmlns="http://www.w3.org/2000/svg" width="120" height="14"><path fill="#000" fill-rule="nonzero" d="M23.142 4.297v1.017h-1.427a10.583 10.583 0 0 1-.32 2.288c-.191.76-.446 1.424-.763 1.993.099.24.208.519.328.836a13.046 13.046 0 0 1 .607 2.149c.077.393.131.787.164 1.18h-1.213a16.037 16.037 0 0 0-.28-1.64c-.12-.535-.24-1.011-.36-1.427-.153.164-.33.328-.533.492-.202.164-.43.312-.68.443-.252.131-.531.235-.837.312a4.047 4.047 0 0 1-.984.115c-.361 0-.716-.05-1.066-.148a2.855 2.855 0 0 1-.935-.451 2.262 2.262 0 0 1-.664-.795c-.17-.328-.255-.722-.255-1.181 0-.405.077-.766.23-1.083.153-.317.36-.585.623-.803.263-.22.572-.389.927-.509.355-.12.73-.18 1.123-.18.667 0 1.269.15 1.804.45.536.301.984.698 1.345 1.19a9.12 9.12 0 0 0 .361-1.476c.099-.58.159-1.165.18-1.755h-8.462v3.87h-2.64c-.602 0-1.176.129-1.723.386-.547.257-1.011.664-1.394 1.222a3.903 3.903 0 0 0 2.296 1.853c.36.11.755.164 1.18.164.559 0 1.02-.082 1.387-.246.366-.164.659-.328.877-.492l.574.82c-.284.263-.67.49-1.156.68-.487.192-1.058.288-1.714.288-.492 0-.973-.063-1.443-.189a4.939 4.939 0 0 1-2.46-1.542 4.736 4.736 0 0 1-.82-1.353c.36-.645.76-1.137 1.197-1.476.437-.339.836-.585 1.197-.738a3.043 3.043 0 0 1-.738-.525 3.748 3.748 0 0 1-.607-.754 4.648 4.648 0 0 1-.434-.927 5.06 5.06 0 0 1-.238-1.041H2.952v8.446H1.738V5.314H0V4.297h1.706V2.575c0-.448.07-.834.213-1.156.142-.323.336-.588.582-.796.246-.208.525-.36.837-.459.311-.098.642-.148.992-.148.372 0 .721.058 1.05.173.328.114.612.281.852.5.24.219.43.492.566.82.137.328.205.705.205 1.132v.377H5.79v-.394c0-.514-.137-.907-.41-1.18-.274-.274-.618-.41-1.034-.41-.186 0-.366.027-.541.081a1.108 1.108 0 0 0-.46.28c-.13.13-.234.3-.31.508a2.19 2.19 0 0 0-.116.754v1.64h20.223Zm-6.2 3.657c-.317 0-.588.044-.812.132-.224.087-.41.202-.557.344a1.358 1.358 0 0 0-.328.484 1.53 1.53 0 0 0-.107.566c0 .492.164.869.492 1.131.328.263.776.394 1.345.394.295 0 .571-.041.828-.123.257-.082.492-.191.705-.328.214-.137.402-.29.566-.46.164-.169.306-.34.427-.516-.328-.557-.716-.968-1.165-1.23a2.723 2.723 0 0 0-1.394-.394Zm-6.085-2.64H6.593c.033.339.115.672.246 1 .131.328.31.624.533.886.224.262.487.481.787.656.301.175.637.273 1.01.295h1.688V5.314Zm54.99-1.017v1.017h-1.673v4.133h-5.347c0 1.148.285 1.998.853 2.55.569.552 1.312.829 2.23.829.504 0 .95-.063 1.337-.19.389-.125.714-.275.976-.45l.492.853a4.1 4.1 0 0 1-1.189.598c-.475.159-1.025.238-1.648.238-1.356 0-2.4-.393-3.133-1.18-.732-.788-1.11-1.865-1.131-3.232-.35-.032-.61-.13-.78-.295a.85.85 0 0 1-.254-.64c0-.196.041-.377.123-.54a1.57 1.57 0 0 1 .32-.435 1.44 1.44 0 0 1 .46-.296c.174-.07.355-.106.54-.106.34 0 .608.06.804.18v1.066h4.15V5.314h-8.184v4.658h-1.214V5.314H50.84v8.446h-1.214V9.48H45.56v4.28h-1.214V9.496a1.392 1.392 0 0 1-.73-.254c-.202-.148-.303-.375-.303-.68 0-.198.041-.378.123-.542a1.57 1.57 0 0 1 .32-.435 1.44 1.44 0 0 1 .46-.295c.174-.07.354-.106.54-.106.208 0 .372.016.492.049s.225.076.312.131V8.43h4.067V5.314h-8.298v4.658h-1.214V5.314h-2.74v8.446h-1.213V8.48c-.382.262-.773.543-1.172.844-.4.3-.829.626-1.288.976-.098.809-.276 1.391-.533 1.746-.257.356-.533.534-.828.534a.87.87 0 0 1-.533-.165.831.831 0 0 1-.304-.475l1.05-2.673a23.596 23.596 0 0 0-.23-2.837c-.382.262-.76.568-1.131.918-.372.35-.733.678-1.083.984-.076.93-.243 1.626-.5 2.09-.257.465-.566.698-.927.698a.87.87 0 0 1-.533-.164.831.831 0 0 1-.303-.476l.951-2.427c0-.164-.013-.366-.04-.607a54.43 54.43 0 0 0-.091-.746 27.87 27.87 0 0 0-.107-.755 7.234 7.234 0 0 0-.123-.631h-1.722V4.297h2.69c.12.383.227.82.32 1.312.093.492.167.968.221 1.427.383-.328.801-.678 1.255-1.05.454-.371.867-.678 1.238-.918l.919.279c.043.23.087.5.13.812a41.536 41.536 0 0 1 .222 1.918c.028.312.047.583.058.812a28.99 28.99 0 0 1 1.238-.918c.421-.295.806-.569 1.156-.82V4.297h29.686Zm-18.238 6.446c.24 0 .44.084.599.254.158.17.238.363.238.582 0 .219-.08.407-.238.566a.812.812 0 0 1-.599.238c-.24 0-.44-.08-.599-.238a.773.773 0 0 1-.237-.566c0-.219.079-.413.237-.582a.785.785 0 0 1 .6-.254ZM120 4.297v1.017h-1.738v8.446h-1.214V9.923h-3.56a7.213 7.213 0 0 1-.163 1.328c-.088.372-.202.68-.345.927-.142.246-.303.426-.483.54-.18.116-.364.173-.55.173-.251 0-.44-.065-.566-.197a1.117 1.117 0 0 1-.254-.377l1.132-3.067a.987.987 0 0 0 .016-.147v-.099c0-.197-.008-.437-.024-.722-.017-.284-.041-.59-.074-.918-.033-.328-.069-.667-.107-1.017-.038-.35-.08-.694-.123-1.033h-2.608a10.583 10.583 0 0 1-.32 2.288c-.19.76-.445 1.424-.762 1.993.098.24.208.519.328.836a13.046 13.046 0 0 1 .607 2.149c.076.393.131.787.164 1.18h-1.214a16.037 16.037 0 0 0-.279-1.64c-.12-.535-.24-1.011-.36-1.427-.154.164-.331.328-.534.492-.202.164-.429.312-.68.443-.252.131-.53.235-.837.312a4.047 4.047 0 0 1-.984.115c-.36 0-.716-.05-1.066-.148a2.855 2.855 0 0 1-.935-.451 2.262 2.262 0 0 1-.664-.795c-.17-.328-.254-.722-.254-1.181 0-.405.077-.766.23-1.083.153-.317.36-.585.623-.803.262-.22.571-.389.926-.509.356-.12.73-.18 1.124-.18.667 0 1.268.15 1.804.45.536.301.984.698 1.345 1.19a9.12 9.12 0 0 0 .36-1.476c.1-.58.16-1.165.181-1.755h-8.25v2.608h-4.805c-.339 0-.615.084-.828.254-.213.17-.32.407-.32.713 0 .34.112.59.336.755.224.164.511.246.861.246h4.461v1.033h-3.624c-.142.175-.214.405-.214.689 0 .426.184.74.55.943.366.202.84.303 1.419.303.415 0 .795-.043 1.14-.13.344-.088.625-.181.844-.28l.426.87a3.494 3.494 0 0 1-1.098.426 6.417 6.417 0 0 1-1.41.148c-.46 0-.878-.047-1.256-.14a2.897 2.897 0 0 1-.967-.418 2.052 2.052 0 0 1-.632-.689 1.88 1.88 0 0 1-.23-.935c0-.306.066-.568.198-.787-.58-.055-1.061-.251-1.444-.59-.382-.34-.574-.82-.574-1.444 0-.328.06-.617.18-.869a1.77 1.77 0 0 1 .5-.631c.214-.17.46-.298.739-.386.279-.087.582-.131.91-.131h3.641V5.314H90.79v8.446h-1.214V9.923h-3.559a7.213 7.213 0 0 1-.164 1.328c-.087.372-.202.68-.344.927-.142.246-.304.426-.484.54-.18.116-.364.173-.55.173-.25 0-.44-.065-.565-.197a1.117 1.117 0 0 1-.254-.377l1.131-3.067a.987.987 0 0 0 .017-.147v-.099c0-.197-.009-.437-.025-.722-.016-.284-.041-.59-.074-.918-.033-.328-.068-.667-.106-1.017-.039-.35-.08-.694-.123-1.033h-2.674v2.608h-4.805c-.34 0-.615.084-.828.254-.214.17-.32.407-.32.713 0 .34.112.59.336.755.224.164.511.246.861.246h4.461v1.033h-3.625c-.142.175-.213.405-.213.689 0 .426.183.74.55.943.366.202.839.303 1.418.303.416 0 .796-.043 1.14-.13.345-.088.626-.181.845-.28l.426.87a3.494 3.494 0 0 1-1.099.426 6.417 6.417 0 0 1-1.41.148c-.46 0-.878-.047-1.255-.14a2.897 2.897 0 0 1-.967-.418 2.052 2.052 0 0 1-.632-.689 1.88 1.88 0 0 1-.23-.935c0-.306.066-.568.197-.787-.58-.055-1.06-.251-1.443-.59-.383-.34-.574-.82-.574-1.444 0-.328.06-.617.18-.869a1.77 1.77 0 0 1 .5-.631c.214-.17.46-.298.739-.386.279-.087.582-.131.91-.131h3.641V5.314H72.7v8.446h-1.214V5.314h-1.738V4.297h1.705V2.575c0-.448.071-.834.213-1.156.143-.323.337-.588.583-.796.246-.208.525-.36.836-.459.312-.098.643-.148.992-.148.372 0 .722.058 1.05.173.328.114.612.281.853.5.24.219.43.492.566.82.136.328.205.705.205 1.132v.377h-1.214v-.394c0-.514-.137-.907-.41-1.18-.273-.274-.618-.41-1.033-.41-.186 0-.366.027-.541.081a1.108 1.108 0 0 0-.46.28c-.13.13-.235.3-.311.508a2.19 2.19 0 0 0-.115.754v1.64h35.492c-.066-.525-.236-.894-.509-1.107-.273-.213-.683-.347-1.23-.402l-1.115-.115c-.722-.076-1.274-.303-1.657-.68-.382-.378-.574-.987-.574-1.829V0h.902c.033.295.093.541.18.738.088.197.203.355.345.476.142.12.304.21.484.27.18.06.369.096.566.107l1.28.115c.666.054 1.215.281 1.647.68.432.4.648 1.036.648 1.911H120Zm-32.26 6.61c.24 0 .44.084.598.254.159.17.238.363.238.582 0 .219-.08.407-.238.566a.812.812 0 0 1-.599.238c-.24 0-.44-.08-.598-.238a.773.773 0 0 1-.238-.566c0-.219.08-.413.238-.582a.785.785 0 0 1 .598-.254Zm27.47 0c.241 0 .441.084.6.254.158.17.237.363.237.582 0 .219-.079.407-.237.566a.812.812 0 0 1-.6.238c-.24 0-.44-.08-.598-.238a.773.773 0 0 1-.238-.566c0-.219.08-.413.238-.582a.785.785 0 0 1 .599-.254Zm-10.643-2.953c-.317 0-.588.044-.812.132-.224.087-.41.202-.558.344a1.358 1.358 0 0 0-.328.484 1.53 1.53 0 0 0-.106.566c0 .492.164.869.492 1.131.328.263.776.394 1.345.394.295 0 .57-.041.828-.123.257-.082.492-.191.705-.328.213-.137.402-.29.566-.46.164-.169.306-.34.426-.516-.328-.557-.716-.968-1.164-1.23a2.723 2.723 0 0 0-1.394-.394Zm-14.99-2.64h-3.92c.098.612.174 1.219.23 1.82.054.602.092 1.181.114 1.739h3.575v-3.56Zm27.47 0h-3.919c.098.612.175 1.219.23 1.82.054.602.093 1.181.114 1.739h3.576v-3.56Z"/></svg>