<svg xmlns="http://www.w3.org/2000/svg" width="117" height="13"><path fill="#000" fill-rule="nonzero" d="M4.316 8.57c.237 0 .447-.043.629-.128.186-.088.34-.215.463-.38.127-.165.23-.341.311-.527.085-.187.163-.409.235-.667l.387.064c-.186.91-.298 1.633-.336 2.17a95.798 95.798 0 0 0-1.549-.025h-2.78c-.288 0-.838.008-1.65.026L0 9.077V8.83c0-.068.034-.102.102-.102l.393-.025c.27-.022.449-.066.533-.134.085-.067.127-.21.127-.425V1.612c0-.186-.053-.317-.158-.393-.106-.08-.288-.131-.546-.153L.1 1.041C.035 1.041 0 1.007 0 .94V.692L.025.667c.813.016 1.363.025 1.65.025.297 0 .851-.008 1.664-.025l.025.025v.247c0 .068-.034.102-.101.102l-.337.025c-.266.022-.453.072-.558.153-.106.08-.159.211-.159.393v6.31c0 .199.055.358.165.476.11.114.258.171.444.171h1.498M8.784 0c.258 0 .465.119.622.355.156.233.235.544.235.934 0 .435-.15.806-.451 1.11-.3.3-.66.49-1.08.565a.408.408 0 0 1-.12-.31c.313-.077.582-.23.806-.458.225-.232.337-.427.337-.584 0-.237-.155-.37-.464-.4C8.29 1.15 8.1.96 8.1.642a.61.61 0 0 1 .19-.458A.696.696 0 0 1 8.784 0m3.521 5.345h2.387c.123 0 .184-.06.184-.178 0-.258-.034-.48-.102-.666a.898.898 0 0 0-.266-.42.966.966 0 0 0-.343-.203 1.052 1.052 0 0 0-.368-.063c-.085 0-.17.006-.254.019-.08.008-.19.042-.33.102a1.19 1.19 0 0 0-.375.234 1.77 1.77 0 0 0-.317.457 2.423 2.423 0 0 0-.216.718m3.428 2.494c.135.013.222.083.26.21a2.885 2.885 0 0 1-.952.844 2.537 2.537 0 0 1-1.244.311c-.846 0-1.488-.254-1.923-.762-.432-.507-.648-1.16-.648-1.955 0-.474.076-.912.229-1.314.152-.402.35-.732.596-.99s.519-.457.82-.597a2.15 2.15 0 0 1 .926-.215c.33 0 .622.044.876.133.254.089.457.205.61.349.156.14.283.311.38.514.097.203.163.406.197.61.038.203.057.42.057.653 0 .148-.078.223-.235.223h-3.421c0 .372.04.715.12 1.028.085.309.19.565.318.768.13.203.279.377.444.52.17.14.334.242.495.305.161.064.318.095.47.095.351 0 .652-.057.901-.171.25-.119.491-.305.724-.559M19 3.371l-.038 1.155H19c.386-.453.741-.758 1.067-.914.33-.161.681-.241 1.054-.241.283 0 .52.05.71.152.195.102.343.252.445.45.101.195.171.409.21.642.042.228.063.5.063.812v2.717c0 .186.04.322.12.406.08.08.223.132.426.153l.247.025c.076.017.115.05.115.102v.247l-.026.026a71.361 71.361 0 0 0-1.39-.026c-.165 0-.595.008-1.289.026l-.025-.026V8.83c0-.055.036-.09.108-.102l.178-.025c.216-.034.362-.09.438-.165.08-.08.12-.212.12-.394V5.332c0-.482-.059-.825-.177-1.028-.115-.208-.337-.311-.667-.311-.3 0-.584.074-.85.222-.267.148-.56.408-.877.78v3.15c0 .185.039.316.115.393.08.076.228.13.444.165l.184.025c.068.013.102.047.102.102v.247l-.026.026a74.315 74.315 0 0 0-1.326-.026c-.208 0-.658.008-1.352.026l-.026-.026V8.83c0-.055.034-.09.102-.102l.247-.025c.216-.022.362-.072.438-.153.08-.08.121-.216.121-.406V4.907c0-.31-.023-.516-.07-.622-.042-.11-.114-.172-.216-.184l-.558-.057-.026-.312c.83-.126 1.429-.26 1.797-.4.034 0 .05.013.05.039m10.295 4.526a3.158 3.158 0 0 1-.673.812c-.237.199-.468.33-.692.394a2.57 2.57 0 0 1-.755.101c-.804 0-1.43-.258-1.88-.774-.443-.517-.666-1.202-.666-2.057 0-.448.074-.863.223-1.244.148-.38.347-.698.596-.952a2.7 2.7 0 0 1 .857-.59 2.488 2.488 0 0 1 1.016-.216c.596 0 1.068.13 1.415.393.347.258.52.57.52.933a.5.5 0 0 1-.19.413.673.673 0 0 1-.419.146c-.279 0-.435-.152-.47-.457a2.288 2.288 0 0 0-.063-.337 1.31 1.31 0 0 0-.133-.304.551.551 0 0 0-.273-.254 1.048 1.048 0 0 0-.457-.09c-.44.001-.804.206-1.092.617-.283.406-.425.958-.425 1.656 0 .754.16 1.367.482 1.841.326.47.74.705 1.244.705.284 0 .565-.08.845-.241.279-.165.518-.392.717-.68.135.017.226.079.273.184m2.036-5.789a.598.598 0 0 1-.184-.438c0-.169.061-.315.184-.438a.589.589 0 0 1 .438-.19c.17 0 .315.061.438.184.127.123.19.271.19.444 0 .17-.063.316-.19.438a.598.598 0 0 1-.438.185.598.598 0 0 1-.438-.185m1.041 1.264c-.03.588-.044 1.1-.044 1.536v3.237c0 .186.04.322.12.406.085.08.229.132.432.153l.241.025c.08.013.12.047.12.102v.247l-.025.026a71.36 71.36 0 0 0-1.39-.026c-.207 0-.658.008-1.352.026l-.025-.026V8.83c0-.055.034-.09.101-.102l.248-.025c.22-.03.368-.083.444-.159.076-.08.114-.214.114-.4V4.907c0-.31-.023-.516-.07-.622-.042-.11-.114-.172-.215-.184l-.559-.057-.025-.312c.872-.13 1.48-.264 1.828-.4.038 0 .057.013.057.039m6.784 4.526a3.158 3.158 0 0 1-.673.812c-.237.199-.467.33-.691.394a2.57 2.57 0 0 1-.756.101c-.804 0-1.43-.258-1.879-.774-.444-.517-.666-1.202-.666-2.057 0-.448.074-.863.222-1.244.148-.38.347-.698.597-.952a2.7 2.7 0 0 1 .857-.59 2.488 2.488 0 0 1 1.015-.216c.597 0 1.069.13 1.416.393.347.258.52.57.52.933a.5.5 0 0 1-.19.413.673.673 0 0 1-.42.146c-.279 0-.435-.152-.469-.457a2.288 2.288 0 0 0-.063-.337 1.311 1.311 0 0 0-.134-.304.551.551 0 0 0-.273-.254 1.048 1.048 0 0 0-.457-.09c-.44.001-.804.206-1.091.617-.284.406-.426.958-.426 1.656 0 .754.161 1.367.483 1.841.325.47.74.705 1.244.705.283 0 .565-.08.844-.241.28-.165.518-.392.717-.68.136.017.227.079.273.184m1.973.248V1.758c0-.402-.032-.67-.095-.806-.06-.14-.159-.21-.299-.21l-.412-.025c-.055 0-.083-.02-.083-.063l-.025-.311c.27-.021.59-.066.958-.134.369-.071.635-.141.8-.209.11 0 .165.044.165.133-.025.347-.038.802-.038 1.365v6.646c0 .19.038.326.114.406.077.08.22.131.432.153l.311.025c.072 0 .108.034.108.102v.247l-.025.026c-.872-.017-1.355-.026-1.448-.026-.08 0-.552.008-1.415.026l-.013-.026V8.83c0-.068.03-.102.089-.102l.311-.025c.216-.022.364-.072.444-.153.08-.08.12-.216.12-.406m7.23-3.643c0-.216-.04-.367-.121-.451-.076-.09-.227-.146-.45-.172l-.21-.025-.038-.025v-.33l.038-.026c.643.017 1.072.026 1.288.026.216 0 .366-.008.45-.026.039 0 .058.008.058.026a32.917 32.917 0 0 0-.038 1.263v2.805c0 .322.019.525.057.61.038.084.127.133.267.146l.622.063.038.305c-.842.148-1.397.33-1.663.546h-.299l.026-.99h-.026c-.338.364-.653.615-.945.755-.288.135-.58.203-.876.203-.31 0-.574-.049-.794-.146a1.168 1.168 0 0 1-.508-.406 1.846 1.846 0 0 1-.247-.552 2.668 2.668 0 0 1-.076-.66V4.5c0-.215-.04-.366-.121-.45-.076-.09-.226-.146-.45-.172l-.21-.025-.038-.025v-.33l.038-.026c.643.017 1.073.026 1.288.026.22 0 .373-.008.457-.026.034 0 .051.008.051.026a32.939 32.939 0 0 0-.038 1.263v2.494c0 .275.032.51.095.705.064.19.149.33.254.419.106.089.21.152.311.19.102.034.21.051.324.051.267 0 .533-.093.8-.28.27-.19.5-.395.685-.615V4.501m4.652.533v3.174c.317.372.677.558 1.079.558.266 0 .503-.049.71-.146.212-.101.382-.23.509-.387s.23-.343.31-.559a2.83 2.83 0 0 0 .172-.64 4.76 4.76 0 0 0 .044-.66c0-.716-.143-1.296-.431-1.74-.284-.445-.63-.667-1.041-.667-.237 0-.489.098-.756.292-.262.19-.46.449-.596.775m-.971-.127c0-.305-.024-.512-.07-.622-.047-.11-.119-.172-.216-.184l-.559-.057-.025-.312c.808-.122 1.405-.256 1.79-.4.034 0 .05.013.05.039l-.037 1.04h.038c.457-.693 1.026-1.04 1.707-1.04.407 0 .779.125 1.117.374.339.25.601.578.788.984.186.406.279.838.279 1.295 0 1.02-.305 1.839-.914 2.457-.478.482-1.083.723-1.816.723-.419 0-.806-.095-1.161-.285v2.253c0 .182.04.313.12.393.085.085.227.136.426.153l.247.025c.08.013.12.047.12.102v.247l-.025.026a60.053 60.053 0 0 0-1.39-.026c-.266 0-.717.008-1.352.026l-.031-.026v-.247c0-.055.036-.09.107-.102l.248-.025c.207-.017.351-.068.432-.152.084-.08.127-.212.127-.394V4.907m7.457.438h2.386c.123 0 .184-.06.184-.178 0-.258-.033-.48-.101-.666a.898.898 0 0 0-.267-.42.966.966 0 0 0-.343-.203 1.052 1.052 0 0 0-.368-.063c-.084 0-.169.006-.254.019-.08.008-.19.042-.33.102a1.19 1.19 0 0 0-.374.234 1.77 1.77 0 0 0-.318.457 2.423 2.423 0 0 0-.215.718m3.427 2.494c.136.013.223.083.26.21a2.885 2.885 0 0 1-.952.844 2.537 2.537 0 0 1-1.244.311c-.846 0-1.487-.254-1.923-.762-.432-.507-.647-1.16-.647-1.955 0-.474.076-.912.228-1.314.152-.402.351-.732.597-.99.245-.258.518-.457.819-.597a2.15 2.15 0 0 1 .926-.215c.33 0 .622.044.876.133.254.089.457.205.61.349.156.14.283.311.38.514.098.203.163.406.197.61.038.203.057.42.057.653 0 .148-.078.223-.234.223H59.45c0 .372.04.715.12 1.028.085.309.191.565.318.768.131.203.28.377.445.52.169.14.334.242.495.305.16.064.317.095.47.095.35 0 .651-.057.9-.171.25-.119.492-.305.724-.559m5.642.013V4.59c-.165-.258-.345-.448-.54-.57-.194-.128-.438-.191-.73-.191-.52 0-.924.215-1.212.647-.241.347-.362.923-.362 1.727 0 .761.14 1.352.42 1.77.283.415.615.623.996.623.338 0 .814-.248 1.428-.743m.978-6.354v6.068c0 .322.019.525.057.61.038.084.127.133.266.146l.629.063.038.305c-.842.148-1.397.33-1.663.546h-.305l.032-.914-.032-.013c-.736.597-1.325.895-1.765.895-.685 0-1.22-.256-1.606-.768-.385-.512-.577-1.178-.577-2 0-.943.29-1.705.87-2.285.274-.262.564-.457.869-.584a2.744 2.744 0 0 1 1.08-.196c.143 0 .331.027.564.082.237.055.425.123.565.203V1.758c0-.402-.03-.67-.089-.806-.06-.14-.159-.21-.298-.21l-.42-.025c-.05 0-.075-.02-.075-.063l-.026-.311c.271-.021.59-.066.959-.134.368-.071.635-.141.8-.209.11 0 .165.044.165.133-.026.347-.038.802-.038 1.365m2.918.61a.598.598 0 0 1-.184-.439c0-.169.061-.315.184-.438a.588.588 0 0 1 .438-.19c.17 0 .315.061.438.184.127.123.19.271.19.444 0 .17-.063.316-.19.438a.598.598 0 0 1-.438.185.598.598 0 0 1-.438-.185m1.041 1.264c-.03.588-.044 1.1-.044 1.536v3.237c0 .186.04.322.12.406.085.08.229.132.432.153l.241.025c.08.013.12.047.12.102v.247l-.025.026a71.36 71.36 0 0 0-1.39-.026c-.207 0-.658.008-1.352.026l-.025-.026V8.83c0-.055.033-.09.101-.102l.248-.025c.22-.03.368-.083.444-.159.076-.08.114-.214.114-.4V4.907c0-.31-.023-.516-.07-.622-.042-.11-.114-.172-.215-.184l-.559-.057-.025-.312c.871-.13 1.48-.264 1.828-.4.038 0 .057.013.057.039m5.42 2.678-1.029.273c-.838.229-1.257.705-1.257 1.429 0 .232.085.446.254.64.17.191.404.286.705.286.296 0 .677-.188 1.142-.565a.39.39 0 0 0 .184-.336V6.049m0 2.406h-.025l-.26.203c-.288.225-.523.37-.705.438-.178.072-.415.108-.71.108-.492 0-.883-.112-1.175-.336-.292-.225-.438-.58-.438-1.067 0-.431.192-.812.578-1.142.389-.335.903-.582 1.542-.743l1.117-.273c.051-.017.076-.068.076-.152a3.49 3.49 0 0 0-.07-.743 1.907 1.907 0 0 0-.17-.508.858.858 0 0 0-.255-.292.835.835 0 0 0-.558-.19c-.28 0-.53.05-.75.152-.22.102-.33.248-.33.438 0 .119.01.203.026.254a.577.577 0 0 1 .038.235c0 .102-.053.199-.159.292a.587.587 0 0 1-.412.14c-.3 0-.45-.153-.45-.457 0-.229.103-.455.31-.68.207-.224.478-.406.813-.546a2.548 2.548 0 0 1 1.015-.215c.208 0 .396.017.565.05.174.034.347.1.52.197.174.093.318.218.432.375.119.156.214.37.286.64.076.267.114.578.114.934V7.8c.004.072.01.159.02.26.012.098.029.176.05.235.021.055.049.113.083.172.038.059.086.101.146.127a.577.577 0 0 0 .215.038.456.456 0 0 0 .362-.152c.03-.034.053-.051.07-.051.025 0 .055.02.089.063a.191.191 0 0 1 .057.127c0 .017-.017.047-.05.09a2.024 2.024 0 0 1-.375.311c-.085.05-.186.092-.305.126-.114.038-.23.057-.349.057-.512 0-.838-.25-.978-.749m7.57-.31V1.757c0-.402-.032-.67-.095-.806-.06-.14-.159-.21-.298-.21l-.413-.025c-.055 0-.082-.02-.082-.063l-.026-.311c.271-.021.59-.066.959-.134.368-.071.634-.141.8-.209.11 0 .165.044.165.133-.026.347-.039.802-.039 1.365v6.646c0 .19.039.326.115.406.076.08.22.131.431.153l.311.025c.072 0 .108.034.108.102v.247l-.025.026c-.872-.017-1.354-.026-1.447-.026-.08 0-.553.008-1.416.026l-.013-.026V8.83c0-.068.03-.102.09-.102l.31-.025c.216-.022.364-.072.445-.153.08-.08.12-.216.12-.406M91.25.356a.563.563 0 0 1 .177-.026c.271 0 .51.1.718.298l.038.14L90.69 2.19c-.165.16-.296.241-.394.241a.186.186 0 0 1-.127-.05.158.158 0 0 1-.05-.115c0-.046.006-.089.019-.127.012-.042.023-.074.031-.095l.09-.14.99-1.549m.222 3.016c-.03.588-.045 1.1-.045 1.536v3.237c0 .186.04.322.12.406.086.08.23.131.433.153l.24.025c.081.013.121.047.121.102v.247l-.025.026a71.36 71.36 0 0 0-1.39-.026c-.208 0-.658.008-1.352.026l-.026-.026V8.83c0-.055.034-.09.102-.102l.248-.025c.22-.03.368-.083.444-.159.076-.08.114-.214.114-.4V4.907c0-.31-.023-.517-.07-.622-.042-.11-.114-.172-.216-.184l-.558-.058-.026-.31c.872-.132 1.482-.265 1.829-.4.038 0 .057.012.057.038m3.623 4.786c.156.194.304.345.444.45a.814.814 0 0 0 .495.16c.593 0 1.043-.24 1.352-.718.313-.478.47-1.107.47-1.885 0-.627-.14-1.154-.419-1.581-.28-.427-.618-.641-1.016-.641a1.92 1.92 0 0 0-.298.025c-.11.013-.27.064-.482.153a1.636 1.636 0 0 0-.546.368v3.669m-.971-6.399c0-.402-.032-.67-.096-.806-.059-.14-.158-.21-.298-.21l-.413-.025c-.055 0-.082-.02-.082-.063l-.026-.311c.267-.021.587-.068.959-.14.377-.072.643-.14.8-.203.11 0 .165.044.165.133a19.51 19.51 0 0 0-.038 1.365v2.59c.44-.478.969-.717 1.587-.717.283 0 .56.061.831.184a2.318 2.318 0 0 1 1.25 1.314c.132.326.197.679.197 1.06 0 .495-.086.954-.26 1.377a3 3 0 0 1-.666 1.041c-.275.271-.58.483-.914.635-.335.148-.671.222-1.01.222-.533 0-.984-.159-1.352-.476a3.13 3.13 0 0 1-.425.508.457.457 0 0 1-.273-.07 6.11 6.11 0 0 0 .064-1.01V1.759m7.406 3.587h2.387c.122 0 .184-.06.184-.178 0-.258-.034-.48-.102-.666a.898.898 0 0 0-.267-.42.966.966 0 0 0-.342-.203 1.052 1.052 0 0 0-.369-.063c-.084 0-.169.006-.253.019-.08.008-.19.042-.33.102a1.19 1.19 0 0 0-.375.234 1.77 1.77 0 0 0-.317.457 2.423 2.423 0 0 0-.216.718m3.428 2.494c.135.013.222.083.26.21a2.885 2.885 0 0 1-.952.844 2.537 2.537 0 0 1-1.245.311c-.846 0-1.487-.254-1.923-.762-.431-.507-.647-1.16-.647-1.955 0-.474.076-.912.228-1.314.153-.402.351-.732.597-.99.245-.258.518-.457.819-.597a2.15 2.15 0 0 1 .926-.215c.33 0 .623.044.876.133.254.089.457.205.61.349.156.14.283.311.38.514.098.203.164.406.197.61.039.203.058.42.058.653 0 .148-.079.223-.235.223h-3.422c0 .372.04.715.12 1.028.086.309.191.565.318.768.131.203.28.377.445.52.169.14.334.242.495.305.16.064.317.095.47.095.35 0 .651-.057.9-.171.25-.119.492-.305.724-.559m2.373.305V4.907c0-.305-.023-.512-.07-.622-.046-.11-.118-.172-.216-.184l-.558-.057-.032-.312c.838-.126 1.437-.26 1.797-.4.033 0 .05.013.05.039l-.038 1.168h.038c.525-.779 1.033-1.168 1.524-1.168.486 0 .73.199.73.596 0 .17-.051.303-.153.4a.572.572 0 0 1-.412.146.701.701 0 0 1-.527-.235.373.373 0 0 0-.26-.114c-.076 0-.182.06-.318.178a2.77 2.77 0 0 0-.425.495.723.723 0 0 0-.159.457v2.85c0 .19.043.328.127.413.085.084.229.133.432.146l.38.025c.077 0 .115.034.115.102v.247l-.025.026a61.615 61.615 0 0 0-1.536-.026c-.259 0-.71.008-1.353.026l-.012-.026V8.83c0-.055.031-.09.095-.102l.248-.025c.211-.021.357-.072.438-.153.08-.084.12-.22.12-.406m7.641-2.095-1.028.273c-.838.229-1.257.705-1.257 1.429 0 .232.085.446.254.64.17.191.404.286.705.286.296 0 .677-.188 1.142-.565a.39.39 0 0 0 .184-.336V6.049m0 2.406h-.025l-.26.203c-.288.225-.523.37-.705.438-.178.072-.415.108-.711.108-.49 0-.882-.112-1.174-.336-.292-.225-.438-.58-.438-1.067 0-.431.192-.812.577-1.142.39-.335.904-.582 1.543-.743l1.117-.273c.05-.017.076-.068.076-.152 0-.284-.023-.531-.07-.743a1.909 1.909 0 0 0-.171-.508.858.858 0 0 0-.254-.292.835.835 0 0 0-.558-.19c-.28 0-.53.05-.75.152-.22.102-.33.248-.33.438 0 .119.008.203.026.254a.576.576 0 0 1 .038.235c0 .102-.053.199-.159.292a.587.587 0 0 1-.412.14c-.3 0-.451-.153-.451-.457 0-.229.104-.455.311-.68.207-.224.478-.406.812-.546a2.548 2.548 0 0 1 1.016-.215c.207 0 .396.017.565.05.174.034.347.1.52.197.174.093.318.218.432.375.119.156.214.37.286.64.076.267.114.578.114.934V7.8c.004.072.01.159.02.26.012.098.029.176.05.235.021.055.049.113.083.172.038.059.086.101.145.127a.577.577 0 0 0 .216.038.456.456 0 0 0 .362-.152c.03-.034.053-.051.07-.051.025 0 .055.02.089.063a.191.191 0 0 1 .057.127c0 .017-.017.047-.05.09a2.026 2.026 0 0 1-.375.311c-.085.05-.187.092-.305.126-.114.038-.23.057-.35.057-.511 0-.837-.25-.977-.749"/></svg>