<svg xmlns="http://www.w3.org/2000/svg" width="146" height="28" fill="none"><path fill="#000" d="M50.952 0c-1.376 1.51-2.622 3.212-3.742 5.088h14.035c.695 0 1.236.241 1.638.716.402.476.6 1.138.6 2.003 0 .804-.033 1.544-.118 2.208a8.444 8.444 0 0 1-.41 1.784 8.83 8.83 0 0 1-.643 1.403 4.588 4.588 0 0 1-.891 1.111c-.36.33-.725.62-1.097.863a7.471 7.471 0 0 1-1.345.673c-.524.207-1.042.38-1.535.526-.494.146-1.068.31-1.725.468a13.177 13.177 0 0 0-1.813 3.83c1.316-.134 2.721-.556 4.196-1.257 1.474-.7 2.646-1.477 3.523-2.354 1.39-1.389 2.543-3.143 3.45-5.263.908-2.12 1.36-4.135 1.36-6.024 0-1.535-.336-2.59-.994-3.187-.658-.597-1.586-.907-2.792-.907h-10.79a.722.722 0 0 1-.453-.146.552.552 0 0 1-.147-.205 4.715 4.715 0 0 1-.102-.233 1.488 1.488 0 0 1-.073-.264 13.958 13.958 0 0 0-.059-.277 4.143 4.143 0 0 1-.043-.293 3.166 3.166 0 0 1-.03-.263Zm57.678 0c-1.377 1.51-2.622 3.212-3.743 5.088h14.036c.694 0 1.235.241 1.637.716.402.476.6 1.138.6 2.003 0 .804-.032 1.544-.117 2.208a8.418 8.418 0 0 1-.41 1.784 8.702 8.702 0 0 1-.643 1.403 4.56 4.56 0 0 1-.892 1.111 8.71 8.71 0 0 1-1.096.863 7.477 7.477 0 0 1-1.345.673c-.524.207-1.042.38-1.535.526-.494.146-1.068.31-1.726.468a13.18 13.18 0 0 0-1.813 3.83c1.316-.134 2.722-.556 4.196-1.257 1.475-.7 2.647-1.477 3.524-2.354 1.389-1.389 2.543-3.143 3.45-5.263.908-2.12 1.36-4.135 1.36-6.024 0-1.535-.336-2.59-.994-3.187-.658-.597-1.586-.907-2.793-.907h-10.789a.728.728 0 0 1-.454-.146.555.555 0 0 1-.146-.205 4.088 4.088 0 0 1-.102-.233 1.407 1.407 0 0 1-.073-.264 21.727 21.727 0 0 0-.059-.277c-.012-.055-.025-.153-.044-.293A3.253 3.253 0 0 1 108.63 0ZM26.712.03c-1.377 1.376-2.622 2.967-3.743 4.795.048.024.168.097.35.22.183.12.314.207.38.262.068.055.173.159.337.293.165.134.297.269.395.409.097.14.208.31.336.512.128.2.247.425.351.687.104.262.193.563.278.892.28.999.667 2.55 1.155 4.664.487 2.114.853 3.655 1.096 4.605.098.39.25.758.439 1.111.189.354.429.708.746 1.068.316.359.737.649 1.242.862a4.369 4.369 0 0 0 1.71.322c.927 0 1.822-.177 2.706-.512a8.762 8.762 0 0 0 2.397-1.36 18.015 18.015 0 0 0 1.872-1.71 16.267 16.267 0 0 0 1.462-1.813c2.022-2.924 3.04-5.797 3.041-8.612 0-.597-.024-1.038-.073-1.33-.061-.634-.158-1.167-.292-1.594a3.584 3.584 0 0 0-.6-1.14 2.213 2.213 0 0 0-1.067-.731c-.451-.152-1.01-.22-1.667-.22H27.852c-.61 0-.994-.56-1.14-1.68Zm114.083.248a21.88 21.88 0 0 0-2.325 3.216c.366.268.902.618 1.609 1.038.706.42 1.269.778 1.696 1.082.658.463 1.089.94 1.272 1.433.182.494.263 1.357.263 2.588 0 1.401.03 3.47.073 6.199.043 2.73.058 4.457.058 5.176.841-.61 1.67-1.46 2.486-2.544 0-1.62.019-3.747.044-6.36.024-2.614.029-4.528.029-5.746 0-1.413-.517-2.54-1.564-3.392a54.34 54.34 0 0 0-3.641-2.69Zm-44.753.19c-1.024 1.035-1.85 2.086-2.471 3.158 1.194.682 2.393 1.535 3.611 2.558.67.549 1.01 1.11 1.01 1.682 0 .17-.052.39-.162.658-.536 1.34-1.557 3.319-3.055 5.95a10.017 10.017 0 0 0 3.055-1.345c1.23-1.486 2.235-3.168 3.027-5.044a4.06 4.06 0 0 0 .277-1.462c0-1.109-.387-1.988-1.155-2.646-1.766-1.572-3.138-2.742-4.137-3.51Zm34.358 0c-1.023 1.035-1.85 2.086-2.471 3.158 1.194.682 2.393 1.535 3.611 2.558.67.549 1.009 1.11 1.009 1.682 0 .17-.051.39-.161.658-.536 1.34-1.557 3.319-3.055 5.95a10.005 10.005 0 0 0 3.055-1.345c1.231-1.486 2.235-3.168 3.027-5.044a4.04 4.04 0 0 0 .278-1.462c0-1.109-.388-1.988-1.155-2.646-1.767-1.572-3.139-2.742-4.138-3.51ZM2.559.498C1.413 1.85.56 3.135 0 4.341c.573 1 1.027 2.012 1.374 3.041.348 1.03.75 2.454 1.214 4.27.146.584.334 1.329.54 2.236.208.908.361 1.617.483 2.135.122.518.288 1.083.483 1.71.195.628.394 1.175.614 1.638.438.975 1.747 1.462 3.903 1.462 1.548 0 2.773-.178 3.7-.555 2.314-.866 4.19-2.474 5.628-4.825.622-1.011 1.104-2.168 1.433-3.465.33-1.298.497-2.595.497-3.875 0-2.254-.68-3.991-2.032-5.234-1.34-1.242-3.095-1.871-5.263-1.871-1.085 0-2.13.336-3.13.994a16.142 16.142 0 0 0-1.49 4.313c1.462-1.145 3-1.725 4.62-1.725 1.145 0 2.144.339 2.997 1.009.548.414.984.999 1.301 1.754.317.756.468 1.564.468 2.442 0 5.239-2.8 7.866-8.392 7.866-.817 0-1.371-.087-1.682-.264-.31-.176-.536-.5-.658-.95-.182-.707-.464-2.05-.848-4.035-.383-1.986-.827-4-1.345-6.053A49.995 49.995 0 0 0 2.56.497Zm70.69 0C72.103 1.85 71.25 3.135 70.69 4.341c.573 1 1.027 2.012 1.374 3.041.348 1.03.75 2.454 1.214 4.27.146.584.334 1.329.54 2.236.208.908.361 1.617.483 2.135.122.518.288 1.083.483 1.71.195.628.394 1.175.614 1.638.438.975 1.747 1.462 3.903 1.462 1.548 0 2.773-.178 3.7-.555 2.314-.866 4.19-2.474 5.628-4.825.622-1.011 1.104-2.168 1.433-3.465a15.76 15.76 0 0 0 .497-3.875c0-2.254-.68-3.991-2.032-5.234-1.34-1.242-3.095-1.871-5.263-1.871-1.085 0-2.13.336-3.13.994a16.142 16.142 0 0 0-1.49 4.313c1.462-1.145 3-1.725 4.62-1.725 1.145 0 2.144.339 2.997 1.009.548.414.984.999 1.301 1.754.317.756.468 1.564.468 2.442 0 5.239-2.8 7.866-8.392 7.866-.817 0-1.371-.087-1.682-.264-.31-.176-.536-.5-.658-.95-.182-.707-.464-2.05-.848-4.035-.383-1.986-.827-4-1.345-6.053A49.982 49.982 0 0 0 73.25.497ZM27.647 5.102h10.761c1.328 0 2.003 1.047 2.003 3.143 0 .755-.09 1.533-.249 2.325-.402 2.083-1.164 3.658-2.31 4.737-1.145 1.078-2.846 1.744-5.087 1.988a1.02 1.02 0 0 0-.176.015 1.168 1.168 0 0 1-.19.014c-.768 0-1.37-.257-1.828-.775-.457-.517-.804-1.286-1.023-2.31l-1.9-9.137Zm23.89 2.353c-1.157 1.499-1.986 2.715-2.485 3.64 0 2.109.175 4.784.54 8.013.366 3.229.556 6.082.556 8.567.95-.962 1.68-1.956 2.179-2.967 0-1.986-.133-4.625-.395-7.94-.262-3.313-.395-6.425-.395-9.313Zm57.678 0c-1.158 1.499-1.986 2.715-2.486 3.64 0 2.109.176 4.784.541 8.013.366 3.229.556 6.082.556 8.567.95-.962 1.679-1.956 2.178-2.967 0-1.986-.132-4.625-.394-7.94-.262-3.313-.395-6.425-.395-9.313Z"/></svg>