<svg xmlns="http://www.w3.org/2000/svg" width="146" height="25" fill="none"><path fill="#000" d="M0 24.283v-.959l3.113-.489V1.425L0 .958V0h11.093c1.7 0 3.118.13 4.253.39 1.134.26 2.044.636 2.732 1.13.688.495 1.176 1.095 1.466 1.801.29.706.434 1.499.434 2.38 0 .76-.124 1.454-.371 2.081a5.253 5.253 0 0 1-1.031 1.656c-.44.477-.968.875-1.582 1.195a8.033 8.033 0 0 1-2.008.715c1.05.109 2 .32 2.852.634.851.314 1.572.722 2.164 1.224a5.176 5.176 0 0 1 1.367 1.784c.32.689.48 1.456.48 2.302 0 1.051-.178 2.014-.534 2.89a5.595 5.595 0 0 1-1.674 2.247c-.76.623-1.738 1.106-2.933 1.45-1.194.344-2.636.516-4.326.516-1.352 0-2.698-.019-4.037-.055-1.34-.038-2.577-.056-3.711-.056H0ZM16.257 5.881c0-.712-.105-1.334-.316-1.865a3.068 3.068 0 0 0-1.02-1.33c-.47-.356-1.078-.622-1.825-.797-.747-.174-1.662-.262-2.746-.262H6.611v9.179h3.956c1.12 0 2.047-.118 2.782-.353.735-.236 1.316-.568 1.743-.996.428-.428.73-.944.904-1.548.174-.604.261-1.28.261-2.028Zm1.85 11.483c0-.846-.136-1.578-.408-2.194a3.66 3.66 0 0 0-1.267-1.533c-.574-.405-1.313-.707-2.218-.906-.905-.2-1.991-.3-3.258-.3H6.61V22.66c.555.024 1.135.043 1.738.055.519.024 1.092.039 1.72.045.627.006 1.249.009 1.864.009 1.135 0 2.094-.127 2.878-.38.785-.255 1.421-.614 1.91-1.08a4.032 4.032 0 0 0 1.06-1.695c.217-.665.326-1.414.326-2.249ZM24.39 24.283v-.678l2.18-.346V8.287l-2.18-.33v-.672h6.81v.672l-2.18.33V20.56l7.998-11.765v-.507l-2.18-.33v-.672h6.788v.672l-2.18.33V23.26l2.18.346v.678h-6.788v-.678l2.18-.346V10.822L29.02 22.587v.672l2.18.346v.678h-6.81ZM59.055 7.285v.673l-1.965.33-5.39 5.726 6.252 9.245 1.838.346v.679h-4.277l-5.589-8.491-2.164 1.938v5.528l2.433.347v.678H43.13v-.678l2.18-.347V8.29l-2.18-.33v-.673h6.81v.672l-2.18.33v8.074l7.594-8.073-1.622-.33v-.673h5.323ZM60.438 24.283v-.678l2.18-.346V8.287l-2.18-.33v-.672h6.81v.672l-2.18.33V20.56l7.998-11.765v-.507l-2.18-.33v-.672h6.788v.672l-2.179.33V23.26l2.179.346v.678h-6.788v-.678l2.18-.346V10.822l-7.998 11.765v.672l2.18.346v.678h-6.81ZM82.423 24.283v-.678l2.7-.346V8.377h-.646c-1.106 0-2.034.025-2.785.076-.751.05-1.283.11-1.595.177l-.342 2.643h-.848V7.285h14.949v3.988h-.861l-.343-2.643a5.588 5.588 0 0 0-.677-.089c-.3-.025-.648-.048-1.045-.07a51.128 51.128 0 0 0-2.736-.07h-.62V23.26l2.698.346v.678h-7.849ZM95.029 23.605l2.18-.346V8.287l-2.18-.33v-.672h12.762v4.077h-.837l-.406-2.763a17.513 17.513 0 0 0-.984-.089 34.29 34.29 0 0 0-1.173-.057 55.935 55.935 0 0 0-1.129-.025 85.75 85.75 0 0 0-.825-.007h-2.778v6.64h4.588l.393-2.028h.811v5.213h-.811l-.393-2.05h-4.588v6.95h3.35a55.495 55.495 0 0 0 2.741-.063c.372-.016.691-.037.958-.063.267-.025.464-.05.591-.076l.723-3.14h.838l-.242 4.479h-13.59v-.678ZM126.805 7.285v.673l-1.965.33-5.389 5.726 6.251 9.245 1.838.346v.679h-4.277l-5.588-8.491-2.165 1.938v5.528l2.433.347v.678h-7.063v-.678l2.18-.347V8.29l-2.18-.33v-.673h6.81v.672l-2.18.33v8.074l7.594-8.073-1.622-.33v-.673h5.323ZM133.295 23.605v.678h-5.589v-.678l1.927-.346 5.788-16.108h2.399l6.026 16.108 2.154.346v.678h-7.186v-.678l2.282-.346-1.677-4.902h-6.702l-1.704 4.902 2.282.346Zm2.72-14.629-2.914 8.245h5.915l-3.001-8.245Z"/></svg>