<svg viewBox="0 0 106 30" xmlns="http://www.w3.org/2000/svg"><path d="m89.1 26.4 2.56 1.62-1.65 1.97-2.56-1.55 1.65-2.04zm-4.55 0 2.56 1.62-1.65 1.97-2.56-1.55 1.65-2.04zm-21.8 0 2.56 1.62-1.65 1.97-2.56-1.55 1.65-2.04zm-4.55 0 2.56 1.62-1.65 1.97-2.56-1.55 1.65-2.04zm-18.1 0 2.56 1.62-1.65 1.97-2.56-1.55 1.65-2.04zm-4.55 0 2.56 1.62-1.65 1.97-2.56-1.55 1.65-2.04zm-21.6 0 2.56 1.62-1.65 1.97-2.56-1.55 1.65-2.04zm-4.55 0 2.56 1.62-1.65 1.97-2.56-1.55L9.4 26.4zm91.4-15.3c.501 0 .877.059 1.13.176.639.305 1.21.781 1.73 1.43.564.669 1.08 1.53 1.54 2.59.301.634.551 1.48.752 2.54l.038.282.056 1.16-.094 1.37-.056.511c-.15.915-.463 1.88-.94 2.9-.4.915-1.04 1.86-1.92 2.83-.45.563-1.1 1.09-1.94 1.57l-.6.299c-.501.188-1.11.282-1.82.282-.59 0-1.32-.112-2.2-.335-.463-.082-1.37-.387-2.72-.915l-.188-.07.413-.898 3.57-.018h.15c.138 0 .42-.065.845-.194.7-.235 1.46-.657 2.27-1.27.326-.246.87-.775 1.63-1.58.664-.786 1.18-1.5 1.54-2.13.213-.47.319-.827.319-1.07 0-.235-.063-.481-.188-.74-.601.377-1.54.559-2.82.547-.476 0-.87-.024-1.18-.07-.651-.036-1.27-.294-1.84-.776a1.649 1.649 0 0 1-.301-.282c-.338-.387-.576-.968-.714-1.74a2.554 2.554 0 0 1-.056-.493l-.038-.722c.025-.716.113-1.35.263-1.9.113-.54.445-1.13.996-1.78.125-.153.25-.282.376-.387.25-.282.626-.563 1.13-.845.338-.176.626-.264.864-.264zM49.5 24.3l3.06 2.02-1.97 2.38-3.08-1.87 1.99-2.54zM89.3 9.7c.326.387.683.927 1.07 1.62.338.622.607 1.3.808 2.04.263.951.407 1.89.432 2.82.012.2.019.381.019.546 0 .411-.038.775-.113 1.09-.125.54-.37.992-.733 1.36a5.01 5.01 0 0 1-1.41.951c-.526.235-1.19.352-1.99.352h-4.73v-3.1h4.79c1.33 0 2.1-.194 2.31-.581l.037-.211-.056-.493c-.075-.27-.357-.892-.845-1.87-.514-1.03-.795-1.57-.845-1.62l1.26-2.9zM80.9.88v2.46L70.2 7.76l.451.37 4.13 3.13c1 .751 1.94 1.56 2.8 2.43.338.34 1.1 1.21 2.29 2.62l.282.317c.438.493.833.739 1.18.739h1.24v3.1h-59.9c-.514 0-.983-.17-1.41-.511-.251-.188-.47-.487-.658-.898a4.205 4.205 0 0 1-.338-1.18l-.019-.299.038-.915a1.49 1.49 0 0 1 .263-.651c.075-.094.225-.258.45-.493 0 .387.013.628.038.722.05.293.113.481.188.563.1.117.238.235.413.352.213.141.57.211 1.07.211h5.94c.714 0 1.2-.106 1.45-.317l.17-.264.056-.317c0-.153-.1-.493-.301-1.02-.413-.81-.914-1.64-1.5-2.48-1.13-1.43-2.29-2.54-3.48-3.31.463-1.29.845-2.31 1.15-3.06.3.293.607.604.92.933 1.45 1.58 2.62 3.19 3.49 4.82.226.423.452.916.677 1.48l.845 2.31a2.4 2.4 0 0 0 .113.37c.2.575.357.863.47.863h8.08v-.511c-.063-.634-.188-1.16-.376-1.58l-1.33-2.62c.075-.27.47-1.23 1.18-2.87a.642.642 0 0 1 .037-.088c.451.493.971 1.43 1.56 2.8l.32.863c.162.528.337 1.21.525 2.04l.263 1.34c.013.07.032.123.057.158.125.317.432.475.92.475h8.19v-.511c-.062-.634-.187-1.16-.375-1.58l-1.33-2.62c.075-.27.47-1.23 1.18-2.87a.642.642 0 0 1 .037-.088c.451.493.971 1.43 1.56 2.8l.32.863c.162.528.337 1.21.525 2.04l.263 1.34c.013.07.032.123.057.158.125.317.432.475.92.475h8.19v-.511c-.062-.634-.187-1.16-.375-1.58l-1.33-2.62c.075-.27.47-1.23 1.18-2.87a.642.642 0 0 1 .037-.088c.451.493.971 1.43 1.56 2.8l.32.863c.162.528.337 1.21.525 2.04l.263 1.34c.013.07.032.123.057.158.125.317.432.475.92.475h8.92c.752 0 1.16-.205 1.24-.616l-.018-.335c-.088-.4-.589-1.01-1.5-1.83l-.075-.07c-.764-.717-1.72-1.47-2.87-2.25h-1.13a6.659 6.659 0 0 1-1.03-.564l-2.01-1.48-.094-.528-.094-1.14.056-.863c.188-.763.896-1.54 2.12-2.34.752-.364 1.63-.763 2.63-1.2l8.1-3.27zM14.1 9.7c.326.387.683.927 1.07 1.62.338.622.607 1.3.808 2.04.263.951.407 1.89.432 2.82.013.2.019.381.019.546 0 .411-.038.775-.113 1.09-.125.54-.37.992-.733 1.36a5.025 5.025 0 0 1-1.41.951c-.526.235-1.19.352-1.99.352h-4.73v-3.1h4.79c1.33 0 2.1-.194 2.31-.581l.037-.211-.056-.493c-.075-.27-.357-.892-.845-1.87-.514-1.03-.795-1.57-.845-1.62l1.26-2.9zM1.8-.02l.15.317c.363.833.752 2.27 1.16 4.31.413 2.08.683 3.62.808 4.61.288 2.28.457 3.66.507 4.15l.357 2.62c.013.094.031.182.056.264.175.739.395 1.11.658 1.11h1.95v3.1h-2.29c-.639-.012-1.15-.17-1.52-.475l-.093-.088c-.363-.376-.601-.734-.714-1.07a7.638 7.638 0 0 1-.376-1.46 77.798 77.798 0 0 1-.451-4.15 95.868 95.868 0 0 0-.451-3.87 11.165 11.165 0 0 0-.094-.634l-.695-3.57a.488.488 0 0 1-.02-.123c-.1-.458-.331-1.02-.694-1.69l1.75-3.35zm99.1 13.6c-.564.211-.977.558-1.24 1.04-.025.059-.05.112-.075.158a4.981 4.981 0 0 0-.17 1.21l.02.44c.062.61.288 1.03.676 1.27a.238.238 0 0 0 .093.053c.351.082.745.123 1.18.123.89 0 1.59-.176 2.1-.528-.075-.481-.338-1.24-.789-2.27-.689-.998-1.29-1.5-1.8-1.5z" fill="#000" fill-rule="nonzero"/></svg>