<svg xmlns="http://www.w3.org/2000/svg" xmlns:xlink="http://www.w3.org/1999/xlink" viewBox="0 0 140 11"><defs><symbol id="a" overflow="visible"><path d="M2.766-7.969 1.688-3.39h2.156zm-.454-1.219h.907L5.453 0h-.828l-.531-2.36H1.438L.906 0H.063z"/></symbol><symbol id="b" overflow="visible"><path d="M4.063-.906h1.859v-5.985h.734V0H.734v-6.89h.735v5.984h1.86v-5.985h.734z"/></symbol><symbol id="c" overflow="visible"><path d="M4.938-6.89h.718V0h-.718zM3.516-2.048q-.001-.545-.266-.828c-.168-.195-.418-.297-.75-.297H1.47v2.266H2.5q.498 0 .75-.282c.176-.195.266-.484.266-.859M.734-6.89h.735v2.813H2.53q.841.001 1.297.5.452.502.453 1.531c.001 1.029-.152 1.2-.453 1.547-.305.336-.734.5-1.297.5H.734z"/></symbol><symbol id="d" overflow="visible"><path d="M.734-6.89h.72v3.234L3.5-6.891h.89L2.704-4.234 4.188-.937h.562V1.75h-.734V0h-.22L2.235-3.484l-.78 1.234V0h-.72z"/></symbol><symbol id="f" overflow="visible"><path d="M.453-1.312q.608.531 1.235.53.574 0 .984-.515.419-.528.5-1.875H.938v-.906H3.14a3.8 3.8 0 0 0-.36-1.328q-.314-.687-1.094-.688c-.406 0-.82.172-1.234.516v-1.047c.406-.289.828-.438 1.266-.437q1.032 0 1.625.984.593.974.593 2.64c0 1.11-.195 1.98-.578 2.641q-.58.971-1.594.969A2.12 2.12 0 0 1 .453-.266z"/></symbol><symbol id="i" overflow="visible"><path d="M.734-6.89h.735v2.812h2.344v-2.813h.734V0h-.734v-3.172H1.469V0H.734z"/></symbol><symbol id="j" overflow="visible"><path d="M4.547 0H.734v-6.89h.735v5.984h2.344v-5.985h.734v5.985h.578V1.75h-.578z"/></symbol><symbol id="l" overflow="visible"><path d="M4.516-6.89V0h-.72v-5.531L1.673 0H.734v-6.89h.72v5.515l2.124-5.516z"/></symbol><symbol id="m" overflow="visible"><path d="M.734-6.89h.72v3.234L3.5-6.891h.89L2.704-4.234 4.61 0h-.812L2.234-3.484l-.78 1.234V0h-.72z"/></symbol><symbol id="n" overflow="visible"><path d="M.297 0v-.937q.715-.169.937-.954.265-1.091.266-3.875V-6.89h3V0h-.734v-5.984H2.234v.671c0 1.78-.117 3.07-.343 3.86Q1.516-.17.297 0"/></symbol><symbol id="o" overflow="visible"><path d="M2.469-6.094q-.581.002-.922.719c-.23.469-.344 1.12-.344 1.937 0 .824.113 1.48.344 1.954q.341.703.922.703.574 0 .922-.703c.227-.477.344-1.13.343-1.954 0-.82-.117-1.47-.343-1.937-.23-.477-.54-.719-.922-.719m0-.969q.951 0 1.484.97.546.953.547 2.655c0 1.12-.184 2.01-.547 2.657Q3.42.173 2.47.172 1.515.173.984-.781q-.531-.967-.53-2.657c0-1.13.175-2.02.53-2.656q.529-.968 1.485-.969"/></symbol><symbol id="p" overflow="visible"><path d="M4.547-6.89V0h-.734v-5.984H1.469V0H.734v-6.89z"/></symbol><symbol id="q" overflow="visible"><path d="M4.547-3.734v.562H1.203c.031.781.18 1.38.453 1.781q.405.61 1.125.61.42.001.813-.157.388-.169.781-.484v1.078a3.1 3.1 0 0 1-.813.375 2.5 2.5 0 0 1-.828.14c-.699 0-1.26-.315-1.672-.952Q.453-1.75.453-3.375c0-1.13.191-2.03.578-2.688.395-.664.922-1 1.578-1 .594 0 1.06.305 1.406.907q.53.89.532 2.422zm-.734-.329q0-.938-.329-1.484c-.219-.363-.508-.547-.859-.547-.406 0-.734.18-.984.531-.242.355-.375.855-.407 1.5z"/></symbol><symbol id="v" overflow="visible"><path d="M1.75-.906h2.11v-5.078H2.327v.859c0 1.69-.156 2.98-.469 3.89zm-1.062 0c.238-.164.41-.422.515-.766.258-.863.391-2.17.39-3.922V-6.89h2.985v5.985h.578V1.75h-.578V0H1v1.75H.422V-.906z"/></symbol><symbol id="w" overflow="visible"><path d="M1.484-4.906q-.001.518.25.812.265.281.735.282h.969v-2.172h-.97q-.468 0-.734.28-.251.283-.25.798M.454 0l1.359-3.016a1.66 1.66 0 0 1-.782-.593Q.733-4.03.734-4.906q0-.997.422-1.485.436-.499 1.297-.5h1.719V0h-.734v-2.906h-.891L1.235 0z"/></symbol><symbol id="x" overflow="visible"><path d="M3.938-6.625v1.047a2.4 2.4 0 0 0-.626-.39 1.6 1.6 0 0 0-.609-.126q-.721 0-1.11.703-.39.69-.39 1.954c0 1.263.13 1.5.39 1.968q.39.69 1.11.688.31.001.61-.125.308-.14.624-.406v1.046a2.1 2.1 0 0 1-.624.329c-.22.07-.45.109-.688.109-.668 0-1.2-.32-1.594-.969-.387-.656-.578-1.54-.578-2.64 0-1.12.195-2.01.594-2.657q.594-.969 1.625-.968.327.002.64.109.328.112.625.328z"/></symbol><symbol id="y" overflow="visible"><path d="M2.766-3.469q-.879 0-1.22.313-.344.316-.343 1.078-.001.596.25.953c.176.242.41.359.703.36q.608 0 .969-.673.358-.669.36-1.78v-.25zm1.453-.469V0h-.735v-1.047q-.234.628-.61.922c-.25.195-.554.297-.905.297-.461 0-.824-.195-1.094-.594Q.483-1.015.485-2c0-.781.163-1.37.5-1.766q.498-.594 1.484-.593h1.015v-.11q0-.78-.328-1.203c-.328-.423-.527-.422-.922-.422q-.376 0-.734.14a2.4 2.4 0 0 0-.688.423v-1.047c.258-.164.516-.285.766-.36q.373-.124.734-.125c.633 0 1.11.262 1.422.782.32.512.484 1.29.485 2.344"/></symbol><symbol id="z" overflow="visible"><path d="M1.547-1.047h2.781V0H.594v-1.047c.3-.488.71-1.14 1.234-1.969q.78-1.23.984-1.593.374-.667.532-1.125.155-.466.156-.922 0-.731-.328-1.188-.331-.469-.86-.469-.375.002-.796.203a4.7 4.7 0 0 0-.891.61v-1.25c.32-.195.625-.348.906-.453q.42-.155.766-.156c.602 0 1.09.242 1.453.718.363.47.547 1.11.547 1.906q0 .562-.14 1.079-.13.503-.485 1.187a174.76 174.76 0 0 1-2.125 3.422z"/></symbol><symbol id="A" overflow="visible"><path d="M.875-9.187H4v1.046H1.594v2.25c.125-.062.242-.109.36-.14q.168-.047.343-.047c.656 0 1.18.28 1.562.844q.576.842.579 2.28c0 .993-.2 1.76-.594 2.313q-.595.813-1.672.813c-.25 0-.508-.031-.766-.094a3.7 3.7 0 0 1-.781-.297v-1.25q.358.315.734.453c.376.138.516.141.797.141q.685.002 1.078-.547.405-.56.407-1.531-.001-.95-.407-1.516a1.25 1.25 0 0 0-1.078-.562q-.314.002-.64.11a2.6 2.6 0 0 0-.64.343z"/></symbol><symbol id="B" overflow="visible"><path d="M3.281-6.89H4v3.234l1.922-3.235h.844L5.188-4.234 7 0h-.781L4.734-3.484 4-2.25V0h-.719v-2.25l-.734-1.234L1.047 0H.28l1.813-4.234L.5-6.891h.844L3.28-3.656z"/></symbol></defs><g stroke-width="1.009" transform="scale(.98146 1)"><use xlink:href="#a" x="-.102" y="9.363"/><use xlink:href="#b" x="5.423" y="9.363"/><use xlink:href="#c" x="12.814" y="9.363"/><use xlink:href="#d" x="19.19" y="9.363"/><use xlink:href="#e" x="24.069" y="9.363"/><use xlink:href="#f" x="26.636" y="9.363"/><use xlink:href="#i" x="31.068" y="9.363"/><use xlink:href="#j" x="36.349" y="9.363"/><use xlink:href="#l" x="41.846" y="9.363"/><use xlink:href="#m" x="47.095" y="9.363"/><use xlink:href="#n" x="51.973" y="9.363"/><use xlink:href="#o" x="57.135" y="9.363"/><use xlink:href="#p" x="62.076" y="9.363"/><use xlink:href="#q" x="67.357" y="9.363"/><use xlink:href="#v" x="72.326" y="9.363"/><use xlink:href="#l" x="77.91" y="9.363"/><use xlink:href="#w" x="83.159" y="9.363"/><use xlink:href="#x" x="88.017" y="9.363"/><use xlink:href="#c" x="92.458" y="9.363"/><use xlink:href="#i" x="98.834" y="9.363"/><use xlink:href="#y" x="104.115" y="9.363"/><use xlink:href="#e" x="109.064" y="9.363"/><use xlink:href="#z" x="111.631" y="9.363"/><use xlink:href="#A" x="116.77" y="9.363"/><use xlink:href="#e" x="121.908" y="9.363"/><use xlink:href="#B" x="124.475" y="9.363"/><use xlink:href="#c" x="131.751" y="9.363"/><use xlink:href="#n" x="138.128" y="9.363"/></g></svg>