<svg xmlns="http://www.w3.org/2000/svg" width="101" height="18"><path fill="#000" fill-rule="nonzero" d="M41.621 13.035c-.397 0-.752-.18-1.065-.542-.313-.36-.47-.86-.47-1.498 0-.758.187-1.565.56-2.42a6.555 6.555 0 0 1 1.661-2.292c.747-.662 1.565-.993 2.456-.993.89 0 1.336.379 1.336 1.137 0 .65-.5 1.216-1.499 1.697-.987.482-1.865.722-2.636.722-.12 0-.21.06-.27.18-.205.434-.307 1.006-.307 1.716 0 .927.3 1.39.902 1.39.722 0 1.372-.379 1.95-1.137.096-.133.205-.199.325-.199.12 0 .18.06.18.18 0 .061-.011.11-.035.145-.374.602-.825 1.071-1.355 1.408a3.166 3.166 0 0 1-1.733.506Zm2.87-7.222c-.456 0-.986.325-1.588.975-.59.638-.885 1.114-.885 1.426 0 .073.043.109.127.109.253 0 .584-.054.993-.163.409-.108.818-.319 1.227-.632.422-.325.632-.704.632-1.137 0-.385-.168-.578-.505-.578Zm-5.505 5.164c.024-.024.054-.06.09-.109a2.2 2.2 0 0 0 .109-.144.59.59 0 0 1 .072-.09.176.176 0 0 1 .09-.036c.06 0 .09.078.09.234 0 .482-.39.97-1.173 1.463-.782.481-1.378.722-1.787.722-.53 0-.795-.21-.795-.632 0-.205.067-.535.199-.993l2.618-8.72c.168-.53.253-.92.253-1.174 0-.144-.15-.27-.452-.379C38 1 37.85.91 37.85.85c0-.097.036-.163.108-.199.265-.132.638-.27 1.12-.415.481-.157.794-.235.938-.235.205 0 .307.06.307.18 0 .133-.024.271-.072.416l-3.105 10.616c-.06.216-.09.39-.09.523 0 .193.06.289.18.289.253 0 .56-.126.92-.38a6.75 6.75 0 0 0 .831-.667Zm-5.8-3.304c0-.47-.103-.885-.308-1.246-.204-.36-.487-.541-.848-.541-.446 0-.777.054-.993.162-.169.072-.283.259-.343.56l-1.102 4.044c-.132.493-.198.854-.198 1.083 0 .18.084.337.253.47a.885.885 0 0 0 .56.198c.18 0 .433-.126.758-.379s.656-.584.993-.993c.337-.41.625-.915.866-1.517.24-.613.361-1.227.361-1.841Zm-7.89 10.255c-.241.036-.362-.018-.362-.162 0-.18.181-.301.542-.361.277-.037.488-.103.632-.199.132-.096.235-.253.307-.47l2.78-9.28c.193-.65.229-.974.109-.974a.494.494 0 0 0-.109.018c-.433.144-.969.385-1.607.722a.227.227 0 0 1-.18.036c-.072-.012-.114-.048-.126-.108-.037-.12.054-.247.27-.38a10.33 10.33 0 0 1 1.896-.956c.18-.085.289-.18.325-.29.24-.781.451-1.311.632-1.588.18-.277.403-.415.668-.415.168 0 .217.132.144.397l-.27 1.192c-.049.264-.03.397.054.397a6.682 6.682 0 0 1 .776-.163c.24-.036.487-.054.74-.054.53 0 .993.217 1.39.65.398.421.596.999.596 1.733 0 .819-.265 1.655-.794 2.51-.53.854-1.156 1.54-1.878 2.058-.722.518-1.378.776-1.968.776a.947.947 0 0 1-.505-.144l-.235-.145c-.12 0-.235.157-.343.47l-1.047 3.322c-.133.397.06.626.578.686.36.024.541.114.541.27 0 .133-.174.2-.523.2-1.084 0-2.095.084-3.033.252ZM20.244 7.186c.12-.324.175-.571.162-.74 0-.18-.036-.289-.108-.325a.67.67 0 0 0-.27-.072c-.482-.024-1.102.427-1.86 1.354-.301.361-.722.957-1.264 1.788a39.33 39.33 0 0 0-1.318 2.166c-.53.963-.855 1.505-.975 1.625a.34.34 0 0 1-.217.09c-.084 0-.156-.072-.216-.216a1.042 1.042 0 0 1-.09-.398c0-.084.132-.487.397-1.21l1.57-4.116c.06-.144.103-.258.127-.343.024-.096.042-.18.054-.252.012-.073.006-.12-.018-.145-.024-.036-.066-.054-.127-.054-.445 0-.878.277-1.3.83-.048.06-.102.085-.162.073-.06-.012-.096-.06-.108-.145-.012-.108.012-.259.072-.451.072-.205.15-.355.235-.452.457-.59 1.017-.89 1.679-.902.289 0 .505.078.65.234.156.145.168.392.036.74l-.975 2.673c-.036.084-.03.138.018.162.06.012.108-.018.144-.09.71-1.216 1.427-2.136 2.149-2.762.734-.638 1.408-.957 2.022-.957.41 0 .68.174.812.523.133.35.06.97-.216 1.86l-.47 1.264c-.036.084-.03.138.018.162.06.012.109-.018.145-.09.71-1.216 1.426-2.136 2.148-2.762.734-.638 1.408-.957 2.022-.957.41 0 .68.18.813.541.144.35.072.963-.217 1.842l-1.354 3.539c-.18.433-.15.65.09.65.169 0 .403-.097.704-.29.313-.192.566-.366.759-.523a9.68 9.68 0 0 0 .45-.415c.013-.012.031-.018.055-.018.096 0 .144.054.144.162 0 .097-.024.18-.072.253-1.095 1.324-2.13 1.986-3.105 1.986-.18 0-.325-.096-.433-.289a.687.687 0 0 1-.036-.614l1.895-4.928c.12-.325.175-.572.163-.74 0-.181-.036-.29-.109-.326a.67.67 0 0 0-.27-.072c-.482-.024-1.102.427-1.86 1.354-.301.361-.722.957-1.264 1.788a39.33 39.33 0 0 0-1.318 2.166c-.626 1.144-1.101 1.715-1.426 1.715-.084 0-.157-.072-.217-.216a1.042 1.042 0 0 1-.09-.397c0-.085.132-.488.397-1.21l1.535-4.062Zm-7.392-5.488c.18 0 .325.078.433.235.12.156.18.337.18.541a.988.988 0 0 1-.306.723.911.911 0 0 1-.686.306.564.564 0 0 1-.452-.216.742.742 0 0 1-.18-.488c0-.289.096-.541.289-.758a.906.906 0 0 1 .722-.343Zm-3.593 9.695 1.3-3.503c.205-.578.205-.866 0-.866-.217 0-.62.138-1.21.415-.036.024-.09.024-.162 0-.072-.024-.109-.054-.109-.09 0-.097.055-.187.163-.271a32.661 32.661 0 0 1 2.943-1.86c.229-.12.343-.096.343.072 0 .193-.06.458-.18.795l-1.86 5.127c-.085.229-.127.403-.127.524 0 .192.073.289.217.289.169 0 .415-.109.74-.325a8.43 8.43 0 0 0 .795-.596c.192-.18.355-.337.487-.47.024-.023.048-.036.072-.036.073 0 .109.03.109.09 0 .615-.386 1.156-1.156 1.626-.758.469-1.36.704-1.805.704-.518 0-.777-.21-.777-.632 0-.29.073-.62.217-.993Zm-5.63 1.083c.566 0 1.083-.193 1.553-.578.47-.385.704-.818.704-1.3 0-.481-.157-.963-.47-1.444-.3-.493-.782-1.113-1.444-1.86C2.83 6.007 2.257 4.947 2.257 4.117c0-.963.33-1.745.993-2.347.662-.602 1.546-.903 2.654-.903.289 0 .656.097 1.101.29.445.18.716.27.813.27a.692.692 0 0 0 .379-.072.728.728 0 0 1 .325-.109c.144 0 .216.097.216.29l-.054.071c-.024.06-.06.145-.108.253a6.122 6.122 0 0 0-.163.415c-.048.169-.108.398-.18.687-.072.276-.133.59-.18.938a1.208 1.208 0 0 1-.127.416c-.06.108-.115.162-.163.162-.132 0-.198-.205-.198-.614 0-1.649-.626-2.473-1.878-2.473-.626 0-1.131.204-1.516.614-.374.409-.56.908-.56 1.498 0 .795.541 1.751 1.625 2.87.421.446.74.79.957 1.03.216.24.463.62.74 1.137.289.518.433 1 .433 1.445 0 .926-.415 1.667-1.246 2.22-.83.542-1.78.813-2.852.813-.361 0-.716-.042-1.065-.127a10.772 10.772 0 0 1-.849-.234c-.217-.085-.343-.127-.38-.127-.06 0-.186.042-.378.127-.193.072-.331.108-.415.108-.12 0-.181-.139-.181-.415 0-.049.048-.199.144-.452.109-.265.223-.614.343-1.047.133-.433.23-.854.29-1.264.035-.24.132-.36.288-.36.145 0 .217.234.217.703 0 .686.223 1.282.668 1.788.457.505 1.017.758 1.679.758Zm92.07-.126c0-.12.055-.235.163-.344.108-.12.217-.18.325-.18.144 0 .313.078.505.235.205.144.374.216.506.216.554 0 1.09-.704 1.607-2.112.53-1.408.794-2.54.794-3.394 0-.217-.042-.41-.126-.578-.072-.18-.169-.27-.29-.27-.54 0-1.335.523-2.382 1.57-.35.337-.83.915-1.445 1.733-.601.806-1.07 1.517-1.408 2.13l-.325.614c-.12.229-.21.397-.27.506a2.19 2.19 0 0 1-.181.325.928.928 0 0 1-.18.216.224.224 0 0 1-.163.073c-.084 0-.157-.073-.217-.217a1.042 1.042 0 0 1-.09-.397c0-.157.078-.512.235-1.065l2.545-8.72c.217-.723.295-1.168.235-1.337-.024-.072-.193-.156-.506-.252-.3-.109-.45-.187-.45-.235 0-.096.035-.162.107-.199.277-.132.65-.276 1.12-.433.47-.156.776-.235.92-.235.205 0 .307.06.307.18 0 .061-.024.2-.072.416L94.58 8.937c-.024.084-.018.133.018.145.048.012.096-.012.145-.073 2.034-2.563 3.713-3.845 5.037-3.845.674 0 1.01.53 1.01 1.589 0 .758-.18 1.619-.54 2.581a7.89 7.89 0 0 1-1.59 2.564c-.686.746-1.414 1.12-2.184 1.12a.838.838 0 0 1-.56-.2.582.582 0 0 1-.217-.469Zm-4.592-7.06a.92.92 0 0 1 .65.253c.18.157.27.295.27.415s-.06.277-.18.47c-.12.192-.229.289-.325.289-.06 0-.193-.097-.397-.29a.892.892 0 0 0-.668-.306.666.666 0 0 0-.524.253.991.991 0 0 0-.198.631c0 .157.06.416.18.777.132.349.27.644.415.884.361.614.542 1.24.542 1.878 0 .674-.367 1.258-1.101 1.751-.723.482-1.475.722-2.257.722-.289 0-.524-.084-.704-.252-.18-.169-.271-.35-.271-.542 0-.132.06-.3.18-.505.133-.217.241-.325.325-.325.073 0 .175.066.307.198.133.12.313.247.542.38.229.12.493.18.794.18.301 0 .542-.102.723-.307.192-.217.294-.476.306-.776a3.495 3.495 0 0 0-.433-1.734c-.385-.71-.578-1.221-.578-1.534 0-.65.295-1.228.885-1.733.59-.518 1.095-.777 1.517-.777Zm-4.63-3.593c.18 0 .325.079.433.235.12.157.18.337.18.542a.988.988 0 0 1-.306.722.911.911 0 0 1-.686.307.564.564 0 0 1-.452-.217.742.742 0 0 1-.18-.487c0-.29.096-.542.289-.759a.906.906 0 0 1 .722-.343Zm-3.593 9.695 1.3-3.502c.205-.578.205-.867 0-.867-.217 0-.62.138-1.21.415-.036.024-.09.024-.162 0-.072-.024-.109-.054-.109-.09 0-.096.055-.186.163-.27a32.661 32.661 0 0 1 2.943-1.86c.228-.12.343-.097.343.072 0 .192-.06.457-.18.794l-1.86 5.128c-.085.228-.127.403-.127.523 0 .193.073.29.217.29.168 0 .415-.11.74-.326a8.43 8.43 0 0 0 .795-.596c.192-.18.355-.337.487-.469.024-.024.048-.036.072-.036.072 0 .109.03.109.09 0 .614-.386 1.156-1.156 1.625-.758.47-1.36.704-1.805.704-.518 0-.777-.21-.777-.632 0-.289.073-.62.217-.993Zm-1.443-.415c.024-.024.054-.06.09-.108.048-.06.084-.109.108-.145a.593.593 0 0 1 .072-.09.176.176 0 0 1 .09-.036c.06 0 .09.078.09.235 0 .481-.39.968-1.173 1.462-.782.481-1.378.722-1.787.722-.53 0-.794-.21-.794-.632 0-.204.066-.535.198-.993l2.618-8.72c.169-.53.253-.92.253-1.173 0-.145-.15-.271-.452-.38-.3-.12-.45-.21-.45-.27 0-.097.035-.163.107-.199.265-.132.638-.27 1.12-.415.481-.157.794-.235.939-.235.204 0 .306.06.306.18 0 .133-.024.271-.072.416L79.6 11.212c-.06.216-.09.39-.09.523 0 .193.06.29.18.29.253 0 .56-.127.921-.38a6.75 6.75 0 0 0 .83-.668Zm-9.158 2.979c.048-.012.072-.048.072-.108.012-.06 0-.109-.036-.145-.433-.385-.65-.782-.65-1.191 0-.085.006-.157.018-.217a.364.364 0 0 1 .108-.199l.127-.126c.036-.036.114-.096.234-.18.12-.097.205-.163.253-.2a.776.776 0 0 0 .199-.198c.06-.072.066-.12.018-.144-.229-.133-.476-.361-.74-.686-.265-.337-.398-.686-.398-1.047-.012-.867.368-1.788 1.138-2.763.77-.975 1.6-1.462 2.491-1.462.446 0 .759.09.94.27.096.097.234.145.414.145.193-.012.452-.054.777-.126.325-.073.602-.109.83-.109.193 0 .29.073.29.217 0 .554-.061.83-.181.83-.169 0-.392-.018-.668-.054a4.096 4.096 0 0 0-.668-.072c-.217 0-.325.036-.325.108 0 .012.006.03.018.055.072.204.096.47.072.794-.024.542-.24 1.198-.65 1.968-.397.758-.879 1.312-1.444 1.66-.422.266-.849.398-1.282.398-.06 0-.169.096-.325.289a.31.31 0 0 1-.09.09.227.227 0 0 0-.09.127v.198c.011.229.102.44.27.632.169.18.433.397.794.65.049.036.35.235.903.596.566.36.993.65 1.282.866.325.23.488.542.488.94 0 1.492-1.433 2.238-4.297 2.238a4.93 4.93 0 0 1-2.33-.56c-.71-.36-1.065-.836-1.065-1.426 0-.229.18-.475.542-.74.349-.265.674-.464.975-.596a7.4 7.4 0 0 1 .704-.289c.373-.12.8-.265 1.282-.433Zm2.708-8.07c-.325 0-.65.204-.975.613-.337.434-.65.993-.939 1.68-.289.686-.427 1.263-.415 1.733.012.65.187.975.524.975.397 0 .788-.26 1.173-.777.385-.53.68-1.107.885-1.733.216-.638.319-1.161.307-1.57-.036-.614-.223-.921-.56-.921Zm-1.896 8.431c-.18-.096-.42-.096-.722 0-1.625.505-2.437 1.083-2.437 1.733 0 .385.33.716.993.993a5.647 5.647 0 0 0 2.166.415c1.396 0 2.083-.433 2.058-1.3-.024-.505-.674-1.1-1.95-1.787a121.14 121.14 0 0 0-.108-.054Zm-6.37-2.203 1.896-4.928c.12-.325.175-.572.163-.74 0-.181-.036-.29-.109-.326a.67.67 0 0 0-.27-.072c-.482-.024-1.102.427-1.86 1.354-.301.361-.722.957-1.264 1.788a39.33 39.33 0 0 0-1.318 2.166c-.53.963-.854 1.505-.975 1.625a.34.34 0 0 1-.216.09c-.085 0-.157-.072-.217-.216a1.042 1.042 0 0 1-.09-.398c0-.084.132-.487.397-1.21l1.57-4.116c.06-.144.103-.258.127-.343.024-.096.042-.18.054-.252.012-.073.006-.12-.018-.145-.024-.036-.066-.054-.126-.054-.446 0-.879.277-1.3.83-.048.06-.103.085-.163.073-.06-.012-.096-.06-.108-.145-.012-.108.012-.258.072-.451.072-.205.15-.355.235-.451.457-.59 1.017-.891 1.679-.903.289 0 .505.078.65.235.156.144.168.39.036.74l-.975 2.672c-.036.084-.03.138.018.162.06.012.108-.018.145-.09.71-1.216 1.426-2.136 2.148-2.762.734-.638 1.408-.957 2.022-.957a.83.83 0 0 1 .614.235c.156.144.247.397.27.758.037.349-.06.812-.288 1.39l-1.354 3.539c-.18.433-.15.65.09.65.169 0 .403-.097.704-.29.313-.192.566-.366.758-.523a9.68 9.68 0 0 0 .452-.415c.012-.012.03-.018.054-.018.096 0 .144.054.144.162 0 .097-.024.18-.072.253-1.095 1.324-2.13 1.986-3.105 1.986-.18 0-.325-.096-.433-.289a.687.687 0 0 1-.037-.614ZM54.9.978c.049 0 .313.012.795.037.493.012.884.018 1.173.018h4.604c.18 0 .391-.013.632-.037l.343-.036c.096 0 .144.06.144.18 0 .06-.03.181-.09.362-.06.168-.132.397-.216.686a5.126 5.126 0 0 0-.181.83.418.418 0 0 1-.126.199c-.073.072-.133.108-.18.108-.061 0-.11-.048-.145-.144a.774.774 0 0 1-.055-.27c0-.555-.06-.904-.18-1.048-.145-.169-.373-.253-.686-.253h-2.6c-.481 0-.776.18-.885.542l-1.245 3.863a.53.53 0 0 0-.018.307c.024.097.072.145.144.145l2.618-.054c.47-.012.897-.235 1.282-.668.204-.23.373-.343.505-.343.049 0 .09.03.127.09.036.048.036.114 0 .198a9.883 9.883 0 0 0-.83 2.221c-.073.205-.151.307-.235.307-.181 0-.271-.138-.271-.415 0-.253-.072-.446-.217-.578-.144-.144-.295-.223-.451-.235-.277-.024-1.03-.036-2.257-.036-.253 0-.445.036-.578.108-.132.06-.228.211-.289.452l-.92 3.213c-.29 1-.085 1.499.613 1.499h2.98c.397 0 .764-.09 1.1-.27.35-.193.59-.368.723-.524.144-.157.349-.41.614-.759.084-.12.18-.18.289-.18.096 0 .144.072.144.216 0 .157-.084.44-.253.849a6.56 6.56 0 0 1-.505 1.011c-.12.193-.26.289-.416.289-.938 0-2.166-.018-3.683-.054a160.536 160.536 0 0 0-2.997-.054c-.288 0-.662.018-1.119.054-.457.036-.836.054-1.137.054-.29 0-.434-.066-.434-.199 0-.144.217-.252.65-.325 1.084-.192 1.734-.644 1.95-1.354l2.474-8.124c.132-.421.132-.722 0-.903-.133-.192-.404-.33-.813-.415-.3-.06-.451-.18-.451-.361 0-.133.186-.199.56-.199Z"/></svg>