<svg xmlns="http://www.w3.org/2000/svg" width="120" height="10" fill="none"><path fill="#000" d="M116.026 9.306c.512 0 1.13-.263 1.773-.789.066-.052.184-.078.197.014.027.341.145.775.145.775.105.04.158.04.25 0 .289-.237.748-.434 1.55-.526.079-.079.079-.276 0-.354-.841-.066-.959-.316-.959-.96V4.944c0-.394.052-1.353.052-1.353 0-.04-.039-.079-.105-.079a3.278 3.278 0 0 1-.46.026c-.42 0-.893-.013-1.34-.026-.078.079-.078.355 0 .434.644.039.815.197.815 1.064v2.535c0 .25-.026.355-.21.513-.486.42-.986.63-1.314.63-.394 0-1.051-.184-1.051-1.353V4.944c0-.394.052-1.353.052-1.353 0-.04-.039-.079-.105-.079a3.263 3.263 0 0 1-.459.026c-.421 0-.894-.013-1.34-.026-.079.079-.079.355 0 .434.63.052.814.197.814 1.05V7.52c0 .906.394 1.787 1.695 1.787Zm-5.006-3.193v1.734c0 .171-.079.263-.184.342-.341.276-.788.578-1.156.578-.657 0-.946-.525-.946-.933 0-.59.276-1.195 1.248-1.445l1.038-.276Zm0 2.43c.079.408.21.763.88.763.5 0 .972-.224 1.248-.486-.026-.158-.078-.263-.223-.355-.105.092-.328.21-.486.21-.381 0-.394-.512-.394-1.116V5.627c0-1.865-1.025-2.22-1.984-2.22-1.077 0-2.168.71-2.168 1.458 0 .316.158.473.46.473.381 0 .618-.276.618-.446a.577.577 0 0 0-.04-.237.917.917 0 0 1-.026-.263c0-.407.552-.551 1.051-.551.447 0 1.064.223 1.064 1.708 0 .091-.039.144-.079.157l-1.13.276c-1.261.315-2.167 1.012-2.167 1.905 0 1.077.736 1.419 1.655 1.419.447 0 .854-.105 1.432-.552l.263-.21h.026Zm-6.065-.971c0 1.09-.145 1.156-.946 1.195-.079.079-.079.355 0 .434.46-.014.946-.027 1.471-.027.526 0 1.025.013 1.459.027.079-.08.079-.355 0-.434-.802-.04-.946-.105-.946-1.195V1.515c0-.854.052-1.38.052-1.38 0-.091-.052-.13-.17-.13-.329.13-1.314.315-1.84.354-.026.105 0 .315.079.394.762.053.841.092.841 1.078v5.74Zm-9.223-3.1c-.092.091-.157.13-.157 0-.014-.356-.053-.855-.106-1-.039-.052-.052-.104-.157-.104-.368.144-.71.262-1.616.38-.026.08 0 .29.026.368.71.066.854.132.854.894v2.562c0 1.077-.131 1.13-.92 1.195-.078.079-.078.355 0 .434.395-.014.92-.027 1.446-.027.525 0 .92.014 1.313.027.08-.08.08-.355 0-.434-.67-.066-.801-.118-.801-1.195V5.417c0-.276.118-.433.223-.552.5-.486 1.09-.775 1.603-.775.263 0 .539.171.696.473.132.263.158.618.158 1.012v1.997c0 1.077-.131 1.13-.814 1.195-.066.079-.066.355 0 .434.394-.013.814-.027 1.34-.027.525 0 .998.014 1.392.027.066-.08.066-.355 0-.434-.736-.066-.88-.118-.88-1.195V5.614c0-.722-.053-1.353-.355-1.76-.223-.29-.63-.447-1.09-.447-.644 0-1.38.17-2.155 1.064Zm-6.627-2.825a.617.617 0 1 0 1.235 0 .628.628 0 0 0-.617-.631.628.628 0 0 0-.618.63Zm2.22 0a.617.617 0 1 0 1.235 0 .628.628 0 0 0-.617-.631.628.628 0 0 0-.618.63Zm-1.629 5.938c0-.736.434-1.17 1.17-1.17.118 0 .565.08.67.08.302 0 .394-.145.394-.303 0-.157-.132-.276-.381-.276-.066 0-.657.066-.67.066-.565 0-1.038-.289-1.038-1.195 0-.868.591-.946.998-.946.513 0 .736.276.88.565.132.223.263.433.552.433.171 0 .42-.105.42-.486 0-.473-.761-.946-1.773-.946-1.55 0-2.01.946-2.01 1.472 0 .643.342 1.011.946 1.26v.027c-.946.328-1.195 1.025-1.195 1.524 0 .762.433 1.616 2.167 1.616.828 0 1.537-.381 1.97-.788a.322.322 0 0 0-.196-.276c-.513.354-1.012.565-1.63.565-.722 0-1.274-.526-1.274-1.222ZM83.9 4.405c.342-.302.736-.42 1.117-.42.801 0 1.458.972 1.458 2.247 0 1.497-.604 2.627-1.852 2.627-.407 0-.683-.289-.946-.617V4.957c0-.276.053-.394.223-.552Zm-.092-.407c-.092.08-.131.053-.131-.066V1.515c0-.854.052-1.38.052-1.38 0-.091-.052-.13-.17-.13-.329.13-1.314.315-1.84.354-.026.105 0 .315.08.394.682.04.84-.026.84 1.077v6.411c0 .513-.013.75-.052.933.065.105.131.158.289.158.078-.066.21-.197.302-.315.144-.158.223-.158.368-.027.289.25.683.316 1.156.316 1.34 0 2.903-1.222 2.903-3.311 0-1.603-1.182-2.588-2.325-2.588-.565 0-1.064.223-1.472.591ZM77.04 1.62a.617.617 0 1 0 1.235 0 .628.628 0 0 0-.618-.63.628.628 0 0 0-.617.63Zm2.22 0a.617.617 0 1 0 1.235 0 .628.628 0 0 0-.617-.63.628.628 0 0 0-.618.63Zm-1.891 3.85c.25-1.485 1.169-1.603 1.484-1.603.5 0 1.09.276 1.09 1.38 0 .118-.052.183-.197.183l-2.377.04Zm3.441 2.483c-.486.499-.867.71-1.629.71-.473 0-1.024-.277-1.432-.947-.262-.433-.42-1.038-.42-1.8l3.495.027c.157 0 .25-.08.25-.224 0-1.103-.395-2.286-2.221-2.286-1.143 0-2.627 1.09-2.627 3.088 0 .735.183 1.445.617 1.944.447.525 1.064.84 2.01.84.998 0 1.708-.46 2.233-1.142-.04-.132-.118-.197-.276-.21Zm-5.461.026c-.053-.118-.158-.17-.276-.184-.447.578-1.012.867-1.577.867-.959 0-1.76-.972-1.76-2.51 0-1.444.63-2.311 1.498-2.311.775 0 .88.46.932.92.04.354.224.472.5.472.275 0 .643-.17.643-.578 0-.722-.749-1.248-2.01-1.248-1.3 0-2.693 1.17-2.693 3.035 0 1.695.946 2.864 2.601 2.864.789 0 1.485-.25 2.142-1.327Zm-9.439-6.337a.617.617 0 1 0 1.235 0 .628.628 0 0 0-.617-.63.628.628 0 0 0-.618.63Zm2.22 0a.617.617 0 1 0 1.235 0 .628.628 0 0 0-.617-.63.628.628 0 0 0-.618.63ZM66.5 7.58c0-.735.434-1.169 1.17-1.169.118 0 .565.079.67.079.302 0 .394-.145.394-.302 0-.158-.132-.276-.381-.276-.066 0-.657.066-.67.066-.565 0-1.038-.29-1.038-1.196 0-.867.591-.946.998-.946.513 0 .736.276.88.565.132.223.263.434.552.434.171 0 .42-.105.42-.486 0-.473-.761-.946-1.773-.946-1.55 0-2.01.946-2.01 1.471 0 .644.342 1.012.946 1.261v.026c-.946.329-1.195 1.025-1.195 1.524 0 .762.433 1.616 2.167 1.616.828 0 1.537-.38 1.97-.788a.322.322 0 0 0-.196-.276c-.513.355-1.012.565-1.63.565-.722 0-1.274-.525-1.274-1.222Zm-5.825-5.938a.617.617 0 1 0 1.235 0 .628.628 0 0 0-.618-.63.628.628 0 0 0-.617.63Zm2.22 0a.617.617 0 1 0 1.235 0 .628.628 0 0 0-.617-.63.628.628 0 0 0-.618.63ZM61.266 7.58c0-.735.434-1.169 1.17-1.169.117 0 .564.079.67.079.301 0 .393-.145.393-.302 0-.158-.131-.276-.38-.276-.066 0-.657.066-.67.066-.566 0-1.038-.29-1.038-1.196 0-.867.59-.946.998-.946.512 0 .736.276.88.565.131.223.263.434.552.434.17 0 .42-.105.42-.486 0-.473-.762-.946-1.773-.946-1.55 0-2.01.946-2.01 1.471 0 .644.341 1.012.946 1.261v.026c-.946.329-1.196 1.025-1.196 1.524 0 .762.434 1.616 2.168 1.616.827 0 1.537-.38 1.97-.788a.322.322 0 0 0-.197-.276c-.512.355-1.011.565-1.629.565-.722 0-1.274-.525-1.274-1.222ZM57.292 1.3c0 .342.315.684.63.684.368 0 .683-.342.683-.63 0-.316-.275-.684-.63-.684-.316 0-.683.315-.683.63Zm1.195 6.267V4.953c0-.657.053-1.498.053-1.498 0-.053-.066-.092-.171-.092-.381.145-.894.263-1.8.381-.026.079 0 .29.026.368.71.079.854.144.854.893v2.562c0 1.09-.144 1.13-.946 1.196-.078.078-.078.354 0 .433.434-.013.946-.026 1.472-.026.525 0 1.024.013 1.458.026.079-.079.079-.355 0-.433-.801-.053-.946-.106-.946-1.196Zm-4.94-3.1c-.027-.526-.053-.854-.106-.999-.04-.052-.053-.105-.158-.105-.367.145-.709.263-1.616.381-.026.079 0 .29.027.368.71.066.854.131.854.893v2.562c0 1.09-.158 1.143-.973 1.196-.078.078-.078.354 0 .433.46-.013.973-.026 1.498-.026.526 0 1.13.013 1.59.026.079-.079.079-.355 0-.433-.92-.066-1.077-.105-1.077-1.196V5.741c0-.342.157-.644.315-.88.144-.21.446-.644.604-.644.118 0 .237.04.329.17.105.132.25.303.486.303.315 0 .617-.328.617-.657 0-.25-.236-.63-.788-.63-.617 0-1.156.578-1.458 1.09-.08.144-.145.04-.145-.026Zm-5.905-.933c-.184 0-.236.158-.236.263v.17c0 .066.013.08.065.08h.775V8c0 .932.408 1.3 1.012 1.3.604 0 1.261-.289 1.773-.867-.026-.131-.105-.21-.236-.223a1.779 1.779 0 0 1-1.077.368c-.355 0-.434-.394-.434-1.209V4.046h1.367c.131 0 .315-.052.315-.17v-.263c0-.053-.04-.079-.105-.079h-1.577v-.512c0-.854.053-1.38.053-1.38 0-.079-.04-.105-.105-.105-.066 0-.171.053-.29.118a3.197 3.197 0 0 1-.446.184c-.158.04-.289.092-.289.171 0 .158.04.066.04 1.524h-.605Zm-4.775-1.892a.617.617 0 1 0 1.235 0 .628.628 0 0 0-.617-.63.628.628 0 0 0-.618.63Zm2.22 0a.617.617 0 1 0 1.236 0 .628.628 0 0 0-.618-.63.628.628 0 0 0-.617.63ZM43.46 7.58c0-.735.433-1.169 1.169-1.169.118 0 .565.079.67.079.302 0 .394-.145.394-.302 0-.158-.131-.276-.381-.276-.066 0-.657.066-.67.066-.565 0-1.038-.29-1.038-1.196 0-.867.591-.946.999-.946.512 0 .735.276.88.565.131.223.263.434.552.434.17 0 .42-.105.42-.486 0-.473-.762-.946-1.774-.946-1.55 0-2.01.946-2.01 1.471 0 .644.342 1.012.946 1.261v.027c-.946.328-1.195 1.024-1.195 1.523 0 .762.433 1.616 2.167 1.616.828 0 1.537-.38 1.971-.788a.322.322 0 0 0-.197-.276c-.512.355-1.012.565-1.629.565-.723 0-1.274-.525-1.274-1.222ZM38.25 3.534c-.184 0-.237.158-.237.263v.17c0 .066.014.08.066.08h.775V8c0 .932.408 1.3 1.012 1.3.604 0 1.261-.289 1.773-.867-.026-.131-.105-.21-.236-.223a1.779 1.779 0 0 1-1.077.368c-.355 0-.434-.394-.434-1.209V4.046h1.366c.132 0 .316-.052.316-.17v-.263c0-.053-.04-.079-.105-.079h-1.577v-.512c0-.854.053-1.38.053-1.38 0-.079-.04-.105-.105-.105-.066 0-.171.053-.29.118-.157.08-.288.132-.446.184-.158.04-.29.092-.29.171 0 .158.04.066.04 1.524h-.604Zm-5.14-1.918a.617.617 0 1 0 1.235 0 .628.628 0 0 0-.618-.63.628.628 0 0 0-.617.63Zm2.22 0a.617.617 0 1 0 1.235 0 .628.628 0 0 0-.618-.63.628.628 0 0 0-.617.63Zm-1.892 3.85c.25-1.485 1.17-1.604 1.485-1.604.499 0 1.09.276 1.09 1.38 0 .118-.053.184-.197.184l-2.378.04Zm3.442 2.482c-.486.5-.867.71-1.629.71-.473 0-1.025-.276-1.432-.946-.263-.434-.42-1.038-.42-1.8l3.494.026c.158 0 .25-.079.25-.223 0-1.104-.394-2.286-2.22-2.286-1.143 0-2.628 1.09-2.628 3.087 0 .736.184 1.445.618 1.944.446.526 1.064.841 2.01.841.998 0 1.708-.46 2.233-1.143-.04-.131-.118-.197-.276-.21Zm-7.634-3.481c-.026-.526-.052-.854-.105-.999-.04-.052-.053-.105-.158-.105-.368.145-.71.263-1.616.381-.026.079 0 .29.027.368.71.066.854.131.854.893v2.562c0 1.09-.158 1.143-.973 1.196-.078.078-.078.354 0 .433.46-.013.973-.026 1.498-.026.526 0 1.13.013 1.59.026.079-.079.079-.355 0-.433-.92-.066-1.078-.105-1.078-1.196V5.741c0-.342.158-.644.316-.88.144-.21.446-.644.604-.644.118 0 .237.04.329.17.105.132.25.303.486.303.315 0 .617-.328.617-.657 0-.25-.236-.63-.788-.63-.618 0-1.156.578-1.458 1.09-.08.144-.145.04-.145-.026Zm-7.343-2.851a.617.617 0 1 0 1.235 0 .628.628 0 0 0-.617-.63.628.628 0 0 0-.617.63Zm2.22 0a.617.617 0 1 0 1.236 0 .628.628 0 0 0-.618-.63.628.628 0 0 0-.617.63Zm-3.27 4.86c0 1.34.893 2.825 2.758 2.825.841 0 1.472-.289 1.918-.735.592-.565.867-1.393.867-2.207 0-1.367-.748-2.956-2.758-2.956-.867 0-1.59.354-2.063.92-.473.564-.723 1.326-.723 2.154Zm2.588-2.614c1.13 0 1.826 1.025 1.826 2.917 0 1.655-.854 2.063-1.472 2.063-1.366 0-1.813-1.656-1.813-2.667 0-1.143.276-2.313 1.459-2.313Zm-7.99 1.564a.78.78 0 0 1 .224-.565c.5-.486 1.156-.775 1.682-.775.262 0 .538.184.696.473.131.262.157.617.157 1.011v1.997c0 1.077-.131 1.13-.814 1.196-.066.078-.066.354 0 .433a36.644 36.644 0 0 1 2.733 0c.065-.079.065-.355 0-.433-.736-.066-.88-.119-.88-1.196V5.61c0-.723-.053-1.353-.355-1.76-.224-.29-.631-.447-1.09-.447-.658 0-1.433.17-2.234 1.064-.053.052-.131.184-.131 0l.013-2.956c0-.854.052-1.38.052-1.38 0-.092-.052-.131-.17-.131-.329.131-1.314.315-1.84.355-.026.105 0 .315.079.394.683.04.84-.026.84 1.077v5.741c0 1.09-.157 1.143-.919 1.196-.079.078-.079.354 0 .433a34.77 34.77 0 0 1 2.733 0c.079-.079.079-.355 0-.433-.657-.053-.775-.105-.775-1.196V5.426ZM9.668 3.534c-.184 0-.237.158-.237.263v.17c0 .066.013.08.066.08h.775V8c0 .932.407 1.3 1.012 1.3.604 0 1.26-.289 1.773-.867-.026-.131-.105-.21-.236-.223a1.779 1.779 0 0 1-1.078.368c-.354 0-.433-.394-.433-1.209V4.046h1.366c.132 0 .316-.052.316-.17v-.263c0-.053-.04-.079-.106-.079H11.31v-.512c0-.854.053-1.38.053-1.38 0-.079-.04-.105-.106-.105-.065 0-.17.053-.289.118a3.201 3.201 0 0 1-.446.184c-.158.04-.29.092-.29.171 0 .158.04.066.04 1.524h-.604ZM3.422 5.452c-.289 0-.38-.04-.341-.17l1.353-3.403h.079l1.235 3.573H3.422Zm-1.419 2.68.723-1.905c.066-.17.145-.223.46-.223h2.772l.762 2.22c.144.46-.355.5-.972.539-.08.078-.08.354 0 .433a72.98 72.98 0 0 1 1.72-.026c.54 0 1.039.013 1.498.026.08-.079.08-.355 0-.433-.512-.04-.959-.08-1.182-.723L5.078.525c-.198.119-.552.263-.723.263L1.373 7.83c-.342.814-.749.893-1.314.933-.079.078-.079.354 0 .433.342-.013.762-.026 1.17-.026.538 0 1.195.013 1.68.026.08-.079.08-.355.001-.433-.5-.027-1.117-.08-.907-.631Z"/></svg>