<svg xmlns="http://www.w3.org/2000/svg" width="120" height="22"><path fill="#000" fill-rule="nonzero" d="m100.14 5.473.046.037v.455c0 .105-.053.158-.157.158l-.325.018c-.383.02-.648.09-.797.214-.149.124-.223.325-.223.603v8.852c0 1.138-.168 2.065-.502 2.783a4.838 4.838 0 0 1-1.4 1.8 3.196 3.196 0 0 1-1.326.65c-.508.122-.947.185-1.318.185a4.5 4.5 0 0 1-1.002-.103 1.649 1.649 0 0 1-.76-.39.887.887 0 0 1-.325-.705c0-.254.111-.47.334-.649.216-.179.427-.269.631-.269.241 0 .452.037.631.111.186.074.318.15.399.231.086.087.182.201.287.343.142.194.349.29.62.29a.994.994 0 0 0 .391-.075c.117-.044.24-.146.371-.306.136-.154.247-.369.334-.64.092-.267.166-.644.223-1.133.061-.482.092-1.052.092-1.707V7.237c0-.439-.096-.725-.287-.854-.186-.13-.538-.21-1.058-.242l-.38-.018c-.118 0-.177-.053-.177-.158V5.51l.037-.037c1.188.025 2.063.037 2.626.037.822 0 1.827-.012 3.015-.037ZM.054.297l1.185.027C1.963.34 2.621.35 3.213.351A209.453 209.453 0 0 0 6.292.297l.054.055v.512c0 .066-.019.117-.057.148a.324.324 0 0 1-.159.068l-.459.054c-.623.07-1.017.187-1.181.351-.165.164-.167.443-.007.838l4.266 12.015h.108l4.212-11.826c.178-.504.149-.86-.081-1.067-.23-.207-.6-.319-1.11-.337l-.432-.027a.213.213 0 0 1-.215-.217V.352l.054-.055a152.867 152.867 0 0 0 2.97.054 92.73 92.73 0 0 0 2.484-.054l.054.055v.512c-.005.141-.076.213-.216.217-.722.05-1.248.235-1.576.557a3.09 3.09 0 0 0-.746 1.225L8.774 17.47c-.079.203-.17.358-.273.463a.512.512 0 0 1-.375.158c-.274-.004-.481-.21-.621-.62L2.267 2.754c-.174-.557-.392-.96-.651-1.21C1.357 1.292.89 1.14.215 1.08A.213.213 0 0 1 0 .864V.352Zm21.044 5.177.037.037v.455c0 .105-.049.158-.148.158h-.269c-.377 0-.646.07-.807.213-.155.137-.232.344-.232.621v9.362c0 .278.077.488.232.631.161.137.43.204.807.204h.269c.099 0 .148.06.148.177v.435l-.037.037a157.439 157.439 0 0 0-2.579-.037l-2.588.037-.037-.037v-.436c0-.117.049-.177.148-.177h.269c.383 0 .652-.062.807-.186.161-.13.241-.347.241-.649V6.96c0-.304-.081-.517-.241-.64-.155-.13-.424-.195-.807-.195h-.269a.143.143 0 0 1-.102-.047.151.151 0 0 1-.046-.11V5.51l.037-.037c1.231.025 2.094.037 2.588.037l2.579-.037Zm22.742 0 .037.037v.455c0 .105-.049.158-.148.158h-.269c-.377 0-.646.07-.807.213-.155.137-.232.344-.232.621v9.362h.001c0 .278.077.488.232.631.161.137.43.204.807.204h.269c.099 0 .148.06.148.177v.435l-.037.037a157.439 157.439 0 0 0-2.579-.037l-2.588.037-.038-.037v-.436c0-.117.049-.177.148-.177h.269c.383 0 .652-.062.807-.186.161-.13.241-.347.241-.649V6.96c0-.304-.081-.517-.241-.64-.155-.13-.424-.195-.807-.195h-.269a.143.143 0 0 1-.102-.047.151.151 0 0 1-.046-.11V5.51l.037-.037c1.231.025 2.094.037 2.588.037l2.579-.037Zm7.865-.128c.612 0 1.166.053 1.661.157.501.1.916.238 1.243.417.328.174.609.37.844.585.235.21.415.442.538.696.123.254.213.491.269.714.056.217.083.437.083.66 0 .382-.049.75-.148 1.103a3.33 3.33 0 0 1-.501 1.05 3.45 3.45 0 0 1-.9.898c-.359.254-.826.458-1.401.612a7.432 7.432 0 0 1-1.939.232c-.452 0-.798-.02-1.039-.064v3.674c0 .346.09.596.269.75.179.155.467.252.863.29l.362.035c.105.024.158.083.158.177v.435l-.037.037a97.766 97.766 0 0 0-5.362 0l-.037-.037v-.436c0-.08.049-.14.148-.177l.269-.037c.402-.056.677-.155.826-.297.149-.142.222-.389.222-.742V7.126c0-.625-.216-.947-.649-.965l-.603-.037c-.142 0-.213-.053-.213-.158v-.455l.037-.037c.34 0 1.125-.02 2.356-.064a86.818 86.818 0 0 1 2.681-.064Zm-15.981.127.093.057v.398c0 .137-.188.213-.566.232-.668.105-1.392.528-2.171 1.271l-2.941 2.663c-.408.377-.643.648-.705.816-.062.166.003.355.195.565l4.537 4.824c.513.544.9.816 1.16.816h.343a.54.54 0 0 1 .204.028c.049.018.077.043.083.074.012.03.019.074.019.13v.42l-.065.037a131.057 131.057 0 0 0-2.466-.037l-1.503.037-.074-.074v-.492c0-.148-.003-.256-.009-.324a.868.868 0 0 0-.278-.51l-3.906-4.222v4.138c0 .278.077.488.232.631.161.137.43.204.807.204h.269c.099 0 .148.06.148.177v.435l-.037.037a157.439 157.439 0 0 0-2.579-.037l-2.588.037-.038-.037v-.436c0-.117.049-.177.148-.177h.269c.383 0 .652-.062.807-.186.161-.13.241-.347.241-.649V6.96c0-.304-.081-.517-.241-.64-.155-.13-.424-.195-.807-.195h-.269a.143.143 0 0 1-.102-.047.151.151 0 0 1-.046-.11V5.51l.037-.037c1.231.025 2.094.037 2.588.037l2.561-.037.037.037v.455c0 .105-.043.158-.13.158h-.288c-.377 0-.643.067-.798.203-.148.137-.223.348-.223.631v3.813l3.952-3.702a2.04 2.04 0 0 0 .213-.25c.067-.093.121-.19.158-.297.043-.105.037-.19-.019-.26-.056-.069-.167-.102-.334-.102-.507 0-.761-.078-.761-.232V5.53l.074-.057c1.2.025 2.047.037 2.542.037l2.227-.037Zm55.975.001.037.037v.455c0 .105-.05.158-.148.158h-.269c-.378 0-.646.07-.808.213-.155.137-.231.344-.231.621v9.362h.001c0 .278.076.488.231.631.161.137.43.204.808.204h.269c.099 0 .148.06.148.177v.435l-.037.037a157.733 157.733 0 0 0-2.579-.037l-2.588.037-.037-.037v-.436c0-.117.049-.177.148-.177h.269c.384 0 .652-.062.808-.186.16-.13.24-.347.24-.649V6.96c0-.304-.08-.517-.24-.64-.155-.13-.424-.195-.808-.195h-.269a.145.145 0 0 1-.103-.047.151.151 0 0 1-.046-.11V5.51l.037-.037c1.23.025 2.094.037 2.588.037l2.579-.037Zm-14.702.02c1.262 0 2.419.286 3.471.861 1.057.575 1.886 1.354 2.486 2.338.605.978.908 2.044.908 3.2 0 .897-.139 1.698-.417 2.403-.272.698-.624 1.262-1.058 1.688a5.533 5.533 0 0 1-1.54 1.058 7.222 7.222 0 0 1-1.735.565 9.731 9.731 0 0 1-1.771.158h-5.964v.002l-.037-.037v-.418c0-.117.049-.176.148-.176h.269c.384 0 .652-.062.808-.186.16-.13.24-.346.24-.649V6.958c0-.303-.08-.516-.24-.64-.155-.13-.424-.194-.808-.194h-.269a.145.145 0 0 1-.103-.047.151.151 0 0 1-.046-.11V5.53l.037-.037h5.621Zm-8.917 0c.074 1.087.207 2.114.399 3.08l-.762.165c-.068-.24-.133-.447-.194-.62a4.244 4.244 0 0 0-.26-.622 2.556 2.556 0 0 0-.38-.576 1.611 1.611 0 0 0-.511-.389 1.377 1.377 0 0 0-.668-.168h-2.478c-.173 0-.26.186-.26.557v3.906h2.144a.442.442 0 0 0 .278-.084c.08-.06.145-.166.195-.314.049-.148.083-.28.102-.399.024-.118.056-.3.093-.548 0-.043.028-.086.083-.129a.347.347 0 0 1 .223-.074h.399l.111.186c-.087.711-.13 1.3-.13 1.762 0 .428.043 1.018.13 1.772l-.111.167h-.399a.403.403 0 0 1-.223-.056c-.055-.044-.083-.087-.083-.13a9.817 9.817 0 0 0-.093-.547 2.529 2.529 0 0 0-.102-.408c-.051-.148-.115-.25-.195-.307a.414.414 0 0 0-.278-.093h-2.144v4.713c0 .21.021.355.065.437.043.08.108.12.194.12h2.914c.494 0 .914-.23 1.262-.696.352-.47.615-1.082.788-1.836l.816.194a51.833 51.833 0 0 0-.511 3.21h-9.275l-.056-.037v-.418c0-.117.052-.176.158-.176h.26c.383 0 .652-.062.808-.186.16-.13.24-.346.24-.649V6.958c0-.303-.08-.516-.24-.64-.155-.13-.424-.194-.808-.194h-.26a.15.15 0 0 1-.111-.047.151.151 0 0 1-.046-.11V5.53l.056-.037h8.86Zm8.224.761c-.402 0-.699.044-.891.131-.191.08-.287.26-.287.537v9.415c-.001.198.032.341.101.427.074.086.223.148.445.186.229.037.597.056 1.104.056.52 0 .99-.04 1.41-.12.428-.08.842-.227 1.244-.437a3.269 3.269 0 0 0 1.011-.835c.278-.34.498-.785.659-1.336.166-.55.25-1.188.25-1.91 0-.6-.056-1.18-.167-1.736a6.691 6.691 0 0 0-.538-1.65 5.227 5.227 0 0 0-.946-1.4 4.096 4.096 0 0 0-1.438-.966c-.581-.24-1.233-.362-1.957-.362Zm-24.757-.13c-.464 0-.77.08-.918.24-.142.162-.213.427-.213.798v4.49c.26.037.575.055.946.055.81 0 1.438-.229 1.883-.686.452-.458.677-1.166.677-2.125 0-1.85-.792-2.773-2.375-2.773ZM66.761 2.95c.18 0 .27.105.27.316a.705.705 0 0 1-.158.417c-.099.143-.211.215-.334.215h-5.205c-.191 0-.287-.115-.287-.344 0-.123.049-.254.148-.39.099-.142.207-.214.324-.214h5.242Zm41.222 7.176c-.295.002-.496-.023-.602-.074-.105-.053-.131-.145-.074-.277l2.7-6.857h.054l2.619 7.21h-4.697v-.002Zm-2.998 5.508 1.566-3.915c.059-.173.151-.293.28-.36.129-.068.351-.102.665-.099h5.615l1.647 4.563c.135.373.108.651-.081.833-.189.182-.54.291-1.053.327l-.756.055c-.131.004-.193.076-.189.215v.514l.027.055c.026-.002.268-.006.721-.015.454-.009.961-.017 1.52-.026a88.823 88.823 0 0 1 1.351-.014c.591.002 1.245.012 1.961.027s1.106.024 1.171.027l.081-.055v-.514a.191.191 0 0 0-.085-.158.318.318 0 0 0-.186-.057l-.297-.027c-.531-.047-.953-.189-1.262-.429-.31-.239-.555-.618-.736-1.138L111.41.81c-.101-.27-.201-.473-.303-.607a.5.5 0 0 0-.426-.203.63.63 0 0 0-.5.223c-.135.152-.275.402-.418.75l-5.994 14.04c-.365.835-.748 1.378-1.146 1.63-.4.25-.891.383-1.473.395-.139.004-.211.076-.215.215v.514l.053.055c.059-.002.375-.012.953-.027a66.06 66.06 0 0 1 1.478-.027c.249 0 .655.005 1.219.014l1.585.026c.492.008.755.013.787.015l.055-.055v-.514a.21.21 0 0 0-.068-.158.221.221 0 0 0-.148-.057l-.783-.055c-.498-.049-.837-.2-1.016-.452-.179-.252-.2-.552-.065-.898Z"/></svg>