<?xml version="1.0" encoding="UTF-8"?>
<svg width="122px" height="14px" viewBox="0 0 122 14" version="1.1" xmlns="http://www.w3.org/2000/svg" xmlns:xlink="http://www.w3.org/1999/xlink">
    <title>dv-tagline</title>
    <g id="Page-1" stroke="none" stroke-width="1" fill="none" fill-rule="evenodd" stroke-linecap="round">
        <g id="dv-tagline" transform="translate(1.000000, 1.000000)" stroke="#000000">
            <g id="g5360">
                <g id="g5290" transform="translate(11.740072, 0.054486)">
                    <g id="g5210" transform="translate(3.400750, -0.000000)" stroke-width="0.997095332">
                        <path d="M7.94752916,0.398969201 C6.34357284,1.04897471 5.60349239,1.46398656 3.81997039,1.76196248" id="path5212"></path>
                        <path d="M4.12755831,0 C2.52360244,0.650005511 1.783522,1.06501736 1.6242958e-15,1.36299328" id="path5214"></path>
                    </g>
                    <path d="M13.0970422,3.70037978 L10.5049221,4.43693674 C14.2625894,4.95025867 13.8151388,5.59113253 8.663147,6.18626277 C15.9240448,6.86892472 1.26441756,10.6142558 0,10.5135408" id="path5226" stroke-width="0.997094624" stroke-linejoin="round"></path>
                </g>
                <g id="g5296" transform="translate(26.824297, 0.033759)">
                    <g id="g5220" transform="translate(1.837910, 0.000000)" stroke-width="0.997095332">
                        <path d="M7.94752916,0.398969201 C6.34357284,1.04897471 5.60349239,1.46398656 3.81997039,1.76196248" id="path5222"></path>
                        <path d="M4.12755831,0 C2.52360244,0.650005511 1.783522,1.06501736 1.6242958e-15,1.36299328" id="path5224"></path>
                    </g>
                    <path d="M4.90112449,5.10464401 C16.9982087,3.85635186 5.87908542,8.42905826 1.10030368e-14,8.92673927" id="path5242" stroke-width="0.997094624" stroke-linejoin="round"></path>
                </g>
                <g id="g5286" transform="translate(0.000000, 0.051974)" stroke-linejoin="round" stroke-width="0.997094624">
                    <path d="M17.9707885,4.56674265 C16.1419282,5.65913936 15.0356204,6.20057838 13.3964059,4.97100309 C10.9681523,6.11431293 8.40059208,6.0418944 8.49528142,4.93425214 C11.8425817,5.42769024 6.74854017,7.76021727 1.3753796e-15,9.05035499" id="path5248"></path>
                    <path d="M8.2922725,0 C13.1483895,0.423346553 11.331094,1.06909557 7.94571085,1.76710409" id="path5250"></path>
                </g>
                <g id="g5302" transform="translate(39.190967, 0.051972)" stroke-linejoin="round" stroke-width="0.997094624">
                    <path d="M10.0789653,4.60798209 C7.70829415,6.36114868 4.87375405,7.86766938 0,8.28992385 C1.12201384,7.15304281 2.27155686,6.01616351 1.37832428,4.87928421" id="path5228"></path>
                    <path d="M3.9225906,0 C8.77870678,0.423346553 6.96141019,1.06909557 3.5760274,1.76710409" id="path5252"></path>
                </g>
                <g id="g5306" transform="translate(48.372290, 0.000000)" stroke-linejoin="round" stroke-width="0.997094624">
                    <path d="M6.62525705,1.76710409 C1.76914087,1.34375753 3.58643746,0.698008518 6.97182025,-9.90070906e-15" id="path5254"></path>
                    <path d="M9.01060835,8.0559161 C10.109065,6.52902737 10.2096582,5.20485408 8.77956622,4.88552317 C5.06101896,7.23401334 2.59843424,7.85985066 0,8.31578363" id="path5258"></path>
                </g>
            </g>
            <g id="g5381" transform="translate(67.124487, 0.103948)" stroke-width="0.997094624">
                <g id="g5314" transform="translate(18.018774, 0.150360)">
                    <path d="M7.10936155,9.90070906e-15 C5.50540729,0.650005856 4.7653253,1.06501813 2.98180623,1.36299343" id="path5234"></path>
                    <path d="M7.92533748,6.55867023 C0.433765345,7.20344387 2.89876966,3.99968072 8.26991855,4.8533478 C11.4687294,5.97250652 3.45074279,8.61789734 0.344581069,8.88411007 C0.216160666,8.88411007 0.114862937,8.93578608 0,8.96162322" id="path5238"></path>
                </g>
                <g id="g5322" transform="translate(42.559509, 4.785417)">
                    <path d="M8.24337658,5.45649385 C6.43477892,6.07581005 4.73970858,6.49082058 3.16082517,6.69672866" id="path5216"></path>
                    <path d="M4.90112449,0.215024676 C16.9982087,-1.03326748 5.87908542,3.53943892 0,4.03711993" id="path5240" stroke-linejoin="round"></path>
                </g>
                <g id="g5318" transform="translate(24.202372, 4.412427)">
                    <path d="M11.2179124,5.89988072 C9.40931476,6.51919692 7.71424441,6.93420746 6.13536101,7.14011554" id="path5218"></path>
                    <path d="M17.9707885,0 C16.1419282,1.09239672 15.0356204,1.63383574 13.3964059,0.404260444 C10.9681523,1.54757029 8.40059208,1.47515176 8.49528142,0.367509494 C11.8425817,0.860947597 6.74854017,3.19347462 4.40121473e-14,4.48361235" id="path5244" stroke-linejoin="round"></path>
                </g>
                <g id="g5310" stroke-linejoin="round">
                    <path d="M17.9707885,4.57599831 C16.1419282,5.66839503 15.0356204,6.20983405 13.3964059,4.98025875 C10.9681523,6.1235686 8.40059208,6.05115007 8.49528142,4.94350781 C11.8425817,5.43694591 6.74854017,7.76947293 0,9.05961066" id="path5246"></path>
                    <path d="M10.2068515,0 C6.84537037,0.00156757604 5.99102936,1.29853122 7.42712579,1.54888705 C9.25238961,1.86708583 12.9754005,0.80297341 10.3223725,0" id="path5260"></path>
                </g>
            </g>
        </g>
    </g>
</svg>