<svg xmlns="http://www.w3.org/2000/svg" width="120" height="23" fill="none"><path fill="#000" d="M19.667 17.13c0 .773.096 1.253.289 1.438.192.186.632.294 1.318.326.049.063.074.171.077.325.003.154-.023.256-.077.307a155.381 155.381 0 0 0-2.384-.038c-.397 0-1.198.012-2.402.038-.06-.05-.09-.153-.09-.307s.03-.263.09-.325c.692-.025 1.134-.132 1.323-.321.19-.189.285-.67.285-1.443V9.387c0-.773-.095-1.253-.285-1.438-.19-.186-.63-.291-1.323-.316-.06-.05-.09-.154-.09-.312 0-.157.03-.267.09-.33 1.234.026 2.029.038 2.384.038.398 0 1.198-.012 2.402-.038.049.063.074.172.077.326.003.154-.023.26-.077.316-.692.025-1.133.13-1.323.316-.19.185-.284.665-.284 1.438v7.743Zm2.293 2.358v-.368c0-.1.043-.15.127-.15l.497-.039c.38-.025.64-.099.785-.221.145-.123.217-.32.217-.59V8.397c0-.283-.074-.481-.221-.595-.148-.113-.408-.185-.781-.216l-.479-.038c-.096 0-.144-.05-.144-.151v-.368l.036-.038c1.234.026 2.036.038 2.406.038.37 0 1.158-.012 2.362-.038l.036.038v.368c0 .1-.048.15-.144.15l-.48.039c-.366.025-.628.099-.785.221-.156.123-.235.32-.235.59v4.017c.976 0 1.623-.094 1.942-.283.482-.27.828-.65 1.038-1.14.211-.491.37-1.092.48-1.802.234-1.522.956-2.28 2.166-2.273.446 0 .775.102.99.306.213.205.32.436.32.694 0 .257-.08.45-.24.58a.884.884 0 0 1-.573.193c-.27 0-.5-.097-.686-.292-.199-.208-.395-.308-.587-.302a.53.53 0 0 0-.43.203 1.19 1.19 0 0 0-.23.415 4.33 4.33 0 0 0-.117.58c-.319 1.88-.984 3.011-1.995 3.395v.094c.614 0 1.118.184 1.512.552.394.368.721.913.98 1.636.47 1.264.928 2.237 1.377 2.92.448.681.841 1.035 1.178 1.06l.29.02c.096 0 .147.05.153.15v.368l-.018.038-1.463-.02c-.656-.012-1.184-.314-1.585-.905-.4-.59-.841-1.524-1.323-2.8-.27-.736-.501-1.258-.69-1.566-.19-.308-.48-.554-.868-.736-.388-.182-.928-.274-1.62-.274v4.895c0 .283.073.483.22.6.148.116.415.186.8.211l.479.038c.096 0 .144.05.144.151v.368l-.036.038a57.663 57.663 0 0 0-2.348-.038 60.83 60.83 0 0 0-2.42.038l-.036-.038Zm14.395-2.358c0 .773.097 1.253.29 1.438.192.186.631.294 1.318.326.048.063.073.171.076.325.003.154-.022.256-.076.307a155.381 155.381 0 0 0-2.384-.038c-.398 0-1.199.012-2.403.038-.06-.05-.09-.153-.09-.307s.03-.263.09-.325c.693-.025 1.134-.132 1.323-.321.19-.189.285-.67.285-1.443V9.387c0-.773-.095-1.253-.285-1.438-.19-.186-.63-.291-1.323-.316-.06-.05-.09-.154-.09-.312 0-.157.03-.267.09-.33 1.235.026 2.03.038 2.384.038.398 0 1.199-.012 2.403-.038.048.063.073.172.076.326.003.154-.022.26-.076.316-.693.025-1.134.13-1.323.316-.19.185-.285.665-.285 1.438v7.743Zm2.294 2.358v-.368c0-.1.042-.15.126-.15l.497-.039c.38-.025.641-.099.786-.221.144-.123.216-.32.216-.59V8.397c0-.283-.073-.481-.22-.595-.148-.113-.409-.185-.782-.216l-.479-.038c-.096 0-.144-.05-.144-.151v-.368l.036-.038c1.234.026 2.036.038 2.407.038.37 0 1.157-.012 2.361-.038l.036.038v.368c0 .1-.048.15-.144.15l-.479.039c-.367.025-.629.099-.785.221-.157.123-.235.32-.235.59v4.017c.975 0 1.622-.094 1.941-.283a2.34 2.34 0 0 0 1.039-1.14c.21-.491.37-1.092.478-1.802.235-1.522.958-2.28 2.168-2.273.445 0 .775.102.989.306.213.205.32.436.32.694 0 .257-.08.45-.24.58a.884.884 0 0 1-.573.193c-.27 0-.5-.097-.686-.292-.199-.208-.394-.308-.587-.302a.531.531 0 0 0-.429.203 1.191 1.191 0 0 0-.23.415 4.362 4.362 0 0 0-.118.58c-.319 1.88-.984 3.011-1.995 3.395v.094c.614 0 1.118.184 1.512.552.395.368.721.913.98 1.636.47 1.264.929 2.237 1.377 2.92.449.681.842 1.035 1.179 1.06l.289.02c.096 0 .147.05.153.15v.368l-.018.038-1.463-.02c-.656-.012-1.184-.314-1.585-.905-.4-.59-.841-1.524-1.323-2.8-.27-.736-.5-1.258-.69-1.566-.19-.308-.479-.554-.867-.736-.389-.182-.929-.274-1.621-.274v4.895c0 .283.073.483.22.6.148.116.415.186.8.211l.479.038c.096 0 .144.05.144.151v.368l-.036.038a57.66 57.66 0 0 0-2.348-.038c-1.011 0-1.818.012-2.42.038l-.036-.038ZM53.007 8.783v4.508c.223.063.693.095 1.41.095.914 0 1.602-.236 2.063-.708.46-.471.69-1.213.69-2.225 0-1.12-.234-1.883-.704-2.292-.47-.409-1.087-.613-1.851-.613-1.072 0-1.608.412-1.608 1.235Zm-1.57.604c0-.773-.096-1.253-.285-1.438-.19-.186-.631-.291-1.323-.316-.06-.05-.09-.154-.09-.312 0-.157.03-.267.09-.33 1.234.026 2.029.038 2.384.038.27 0 .727-.022 1.368-.066a26.293 26.293 0 0 1 1.17-.066c.8 0 1.49.109 2.067.325.578.217 1.009.503 1.292.859.282.355.483.696.6 1.023.117.327.176.66.176 1 0 .452-.074.894-.221 1.325a4.41 4.41 0 0 1-.69 1.254c-.314.406-.77.733-1.369.981s-1.299.373-2.1.373c-.614 0-1.113-.063-1.499-.19v3.283c0 .76.118 1.234.353 1.42.234.185.746.3 1.535.344.06.063.09.171.09.325s-.03.256-.09.307a148.032 148.032 0 0 0-2.664-.038c-.398 0-1.198.012-2.402.038-.06-.05-.09-.153-.09-.307s.03-.262.09-.325c.692-.025 1.133-.132 1.323-.321.19-.189.284-.67.284-1.443V9.387Zm20.715 7.724c0 .773.096 1.253.289 1.438.192.186.632.291 1.318.316.049.05.074.154.077.312.003.157-.022.267-.077.33a156.256 156.256 0 0 0-2.384-.038c-.397 0-1.198.013-2.402.038-.06-.063-.09-.172-.09-.326 0-.154.03-.259.09-.316.692-.025 1.133-.13 1.323-.316.19-.185.285-.665.285-1.438V9.368c0-.773-.095-1.253-.285-1.438-.19-.186-.63-.294-1.323-.326-.06-.062-.09-.17-.09-.325 0-.154.03-.256.09-.306 1.234.025 2.029.037 2.384.037.398 0 1.198-.012 2.402-.037.049.05.074.152.077.306.003.154-.022.263-.077.325-.692.026-1.133.132-1.323.321-.19.189-.284.67-.284 1.443v7.743Zm-8.263 1.783c.668 0 1.236-.095 1.702-.283.467-.189.818-.44 1.052-.755.235-.314.4-.627.492-.938.094-.311.14-.634.14-.967 0-.736-.243-1.402-.731-2-.488-.597-1.261-.895-2.32-.895h-1.392v4.536c0 .868.353 1.302 1.057 1.302Zm-2.628-1.764V9.387c0-.773-.095-1.253-.284-1.438-.19-.186-.63-.291-1.323-.316-.06-.05-.09-.154-.09-.312 0-.157.03-.267.09-.33 1.234.026 2.029.038 2.384.038.397 0 1.198-.012 2.402-.038.048.063.072.172.072.326 0 .154-.024.26-.072.316-.692.025-1.133.13-1.323.316-.19.185-.284.665-.284 1.438v2.895h1.625c.656 0 1.237.05 1.743.146.506.098.918.24 1.237.425.32.185.587.388.804.608.216.22.377.481.483.783.105.302.176.582.212.84.036.257.054.546.054.867 0 1.276-.41 2.191-1.228 2.745-.819.553-2.122.83-3.91.83-.235 0-.55-.007-.944-.02a30.247 30.247 0 0 0-.853-.018c-.398 0-1.198.012-2.402.038-.06-.05-.09-.153-.09-.307s.03-.263.09-.325c.692-.025 1.133-.132 1.323-.321.19-.189.284-.67.284-1.443Zm24.211 0c0 .773.095 1.253.284 1.438.19.186.63.294 1.323.326.06.063.09.171.09.325s-.03.256-.09.307a155.406 155.406 0 0 0-2.384-.038c-.397 0-1.2.012-2.41.038-.05-.05-.073-.153-.073-.307s.024-.263.072-.325c.692-.025 1.135-.132 1.328-.321.192-.189.288-.67.288-1.443v-3.838h-6.33v3.838c0 .773.097 1.253.29 1.438.192.186.631.294 1.318.326.048.063.073.171.076.325.003.154-.022.256-.076.307a155.4 155.4 0 0 0-2.384-.038c-.398 0-1.198.012-2.403.038-.06-.05-.09-.153-.09-.307s.03-.263.09-.325c.693-.025 1.134-.132 1.323-.321.19-.189.285-.67.285-1.443V9.387c0-.773-.095-1.253-.285-1.438-.19-.186-.63-.291-1.323-.316-.06-.05-.09-.154-.09-.312 0-.157.03-.267.09-.33 1.235.026 2.03.038 2.384.038.398 0 1.199-.012 2.403-.038.048.063.073.172.076.326.003.154-.022.26-.076.316-.693.025-1.134.13-1.323.316-.19.185-.285.665-.285 1.438v3.093h6.33V9.387c0-.773-.096-1.253-.288-1.438-.193-.186-.636-.291-1.328-.316-.048-.05-.072-.154-.072-.312 0-.157.024-.267.072-.33 1.234.026 2.032.038 2.393.038.397 0 1.198-.012 2.402-.038.06.063.09.172.09.326 0 .154-.03.26-.09.316-.692.025-1.133.13-1.323.316-.19.185-.284.665-.284 1.438v7.743Zm5.608 0c0 .773.096 1.253.289 1.438.192.186.632.294 1.318.326.048.063.074.171.077.325.003.154-.023.256-.077.307a155.406 155.406 0 0 0-2.384-.038c-.397 0-1.198.012-2.402.038-.06-.05-.09-.153-.09-.307s.03-.263.09-.325c.692-.025 1.133-.132 1.323-.321.19-.189.284-.67.284-1.443V9.387c0-.773-.094-1.253-.284-1.438-.19-.186-.63-.291-1.323-.316-.06-.05-.09-.154-.09-.312 0-.157.03-.267.09-.33 1.234.026 2.029.038 2.384.038.397 0 1.198-.012 2.402-.038.048.063.074.172.077.326.003.154-.023.26-.077.316-.692.025-1.133.13-1.323.316-.19.185-.284.665-.284 1.438v7.743Zm12.281-7.743v7.743c0 .503.05.887.149 1.15.1.265.197.425.294.482.096.056.243.1.442.132.343.05.53.176.56.377.072.924.108 1.905.108 2.942-.21.17-.415.177-.614.02-.15-.761-.45-1.41-.898-1.944-.449-.534-1.004-.801-1.666-.801h-6.033c-.397 0-1.198.012-2.402.038-.048-.05-.073-.153-.076-.307-.003-.154.022-.263.076-.325.693-.025 1.134-.132 1.323-.321.19-.189.285-.67.285-1.443V9.387c0-.773-.097-1.253-.29-1.438-.192-.186-.631-.291-1.318-.316-.048-.05-.073-.154-.076-.312-.003-.157.022-.267.076-.33 1.234.026 2.03.038 2.384.038.398 0 1.198-.012 2.402-.038.06.063.09.172.09.326 0 .154-.03.26-.09.316-.692.025-1.133.13-1.323.316-.19.185-.284.665-.284 1.438v8.384c0 .296.077.53.23.703.154.173.366.26.637.26h3.757c.307 0 .498-.084.573-.25.075-.167.113-.618.113-1.354V9.387c0-.773-.096-1.253-.289-1.438-.193-.186-.632-.291-1.319-.316-.048-.05-.073-.154-.076-.312-.003-.157.022-.267.076-.33 1.235.026 2.029.038 2.385.038.397 0 1.198-.012 2.402-.038.06.063.09.172.09.326 0 .154-.03.26-.09.316-.693.025-1.134.13-1.323.316-.19.185-.285.665-.285 1.438Zm14.955 7.724c0 .773.096 1.253.289 1.438.192.186.632.291 1.318.316.048.05.074.154.077.312.003.157-.023.267-.077.33a156.276 156.276 0 0 0-2.384-.038c-.397 0-1.198.013-2.402.038-.06-.063-.09-.172-.09-.326 0-.154.03-.259.09-.316.692-.025 1.133-.13 1.323-.316.189-.185.284-.665.284-1.438V9.368c0-.773-.095-1.253-.284-1.438-.19-.186-.631-.294-1.323-.326-.06-.062-.09-.17-.09-.325 0-.154.03-.256.09-.306 1.234.025 2.029.037 2.384.037.397 0 1.198-.012 2.402-.037.048.05.074.152.077.306.003.154-.023.263-.077.325-.692.026-1.133.132-1.323.321-.19.189-.284.67-.284 1.443v7.743Zm-8.263 1.783c.668 0 1.235-.095 1.702-.283.467-.189.817-.44 1.052-.755.235-.314.399-.627.492-.938a3.36 3.36 0 0 0 .14-.967c0-.736-.244-1.402-.731-2-.488-.597-1.262-.895-2.321-.895h-1.391v4.536c0 .868.352 1.302 1.057 1.302Zm-2.628-1.764V9.387c0-.773-.095-1.253-.285-1.438-.189-.186-.63-.291-1.323-.316-.06-.05-.09-.154-.09-.312 0-.157.03-.267.09-.33 1.235.026 2.029.038 2.384.038.398 0 1.199-.012 2.403-.038.048.063.072.172.072.326 0 .154-.024.26-.072.316-.693.025-1.134.13-1.323.316-.19.185-.285.665-.285 1.438v2.895h1.626c.656 0 1.237.05 1.743.146.505.098.918.24 1.237.425.319.185.587.388.803.608.217.22.378.481.484.783.105.302.176.582.212.84.036.257.054.546.054.867 0 1.276-.409 2.191-1.228 2.745-.819.553-2.122.83-3.91.83-.235 0-.55-.007-.944-.02a30.242 30.242 0 0 0-.853-.018c-.398 0-1.199.012-2.403.038-.06-.05-.09-.153-.09-.307s.03-.263.09-.325c.693-.025 1.134-.132 1.323-.321.19-.189.285-.67.285-1.443ZM5.324 2.324v6.133H7.56c2.853 0 4.28-1.152 4.28-3.456 0-1.383-.392-2.39-1.177-3.023-.784-.632-1.691-.948-2.72-.948-.864 0-1.479.044-1.847.132-.367.088-.588.208-.661.36-.074.152-.11.42-.11.802Zm0 7.163v7.045c0 1.343.834 2.02 2.5 2.03 2.109 0 3.54-.359 4.295-1.074.755-.716 1.133-1.707 1.133-2.971 0-1.471-.488-2.677-1.464-3.618-.975-.942-2.439-1.412-4.39-1.412H5.324ZM4.03.059c.441 0 1.093-.01 1.956-.03A97.645 97.645 0 0 1 7.796 0c4.313 0 6.47 1.544 6.47 4.633 0 .784-.274 1.54-.823 2.265a5.728 5.728 0 0 1-2.03 1.691v.06c1.402.401 2.525 1.043 3.368 1.926.844.882 1.265 2.005 1.265 3.368 0 .706-.12 1.37-.36 1.993-.24.622-.63 1.216-1.17 1.78-.539.563-1.326 1.01-2.36 1.338-1.035.328-2.267.493-3.699.493-1 0-1.902-.01-2.706-.03-.804-.02-1.368-.03-1.692-.03-.647 0-1.95.02-3.912.06C.05 19.468 0 19.309 0 19.069s.049-.41.147-.508c1.128-.039 1.846-.206 2.155-.5.309-.294.463-1.044.463-2.25V3.736c0-1.206-.154-1.954-.463-2.243-.31-.29-1.027-.454-2.155-.493C.05.922 0 .76 0 .515S.049.098.147 0c2.01.04 3.304.059 3.883.059Z"/></svg>