<svg xmlns="http://www.w3.org/2000/svg" width="125" height="23"><path fill="#000" fill-rule="nonzero" d="m102.149 5.292 1.174.027c.71.016 1.29.025 1.74.027.41-.002.91-.011 1.496-.027.586-.015.908-.025.967-.027l.05.054v.594a.098.098 0 0 1-.05.088.46.46 0 0 1-.126.047l-.326.054c-.386.06-.664.144-.833.253-.169.11-.252.296-.248.557v8.235c-.006 1.68-.2 3.018-.584 4.013-.383.995-.917 1.772-1.602 2.332-.537.454-1.04.734-1.51.84-.471.107-.856.15-1.154.132-.293 0-.61-.114-.951-.34-.341-.227-.527-.564-.556-1.01.017-.286.127-.51.33-.672.202-.161.394-.243.574-.246.344.008.605.08.782.216.178.136.32.29.424.46.084.136.174.247.27.33a.578.578 0 0 0 .384.128c.41.07.784-.259 1.121-.985.338-.727.517-2.27.537-4.63V6.938c.004-.29-.079-.493-.248-.607-.169-.115-.446-.182-.832-.203l-.704-.054a.164.164 0 0 1-.103-.037.127.127 0 0 1-.048-.098v-.594zm-14.64 0v.594a.19.19 0 0 1-.063.125.207.207 0 0 1-.138.064l-.403.054c-.455.053-.763.157-.926.314-.163.157-.24.457-.23.901v8.316c-.01.474.043.802.16.986.118.183.367.295.745.337l.427.054a.746.746 0 0 1 .33.149.49.49 0 0 1 .198.391l.15 3.645h-.627a5.308 5.308 0 0 0-.827-2.315c-.459-.715-1.306-1.095-2.54-1.14h-4.75c-1.245.079-2.072.527-2.482 1.342-.409.816-.62 1.52-.634 2.113h-.628l.15-3.645c.006-.174.052-.305.139-.391a.484.484 0 0 1 .289-.149l.402-.054c.339-.036.615-.14.829-.31.214-.171.364-.437.452-.797.247-1.17.457-2.522.632-4.057a43.89 43.89 0 0 0 .273-4.745.911.911 0 0 0-.166-.574c-.127-.194-.415-.318-.864-.37l-.679-.055c-.1-.004-.15-.05-.15-.135v-.648c.428.002.847.011 1.256.027.41.016.803.025 1.181.027h5.805c.43-.002.894-.011 1.391-.027s.93-.025 1.298-.027zm-50.812-.324c.476.009.83.127 1.061.355.232.227.347.514.346.86-.007.28-.1.518-.28.716a.918.918 0 0 1-.675.31c-.13-.003-.26-.03-.393-.08a1.939 1.939 0 0 1-.336-.163.892.892 0 0 0-.27-.084 1.886 1.886 0 0 0-.308-.024c-.14.018-.286.165-.436.442-.15.278-.29.58-.418.908a7.95 7.95 0 0 1-.839 1.67c-.366.566-.865.927-1.498 1.084.68.024 1.261.286 1.743.786.482.5.856 1.093 1.122 1.78.203.593.519 1.302.948 2.125.43.824.884 1.276 1.363 1.357h.202a.383.383 0 0 1 .175.037c.062.028.096.087.1.179v.513l-.05.054-1.834-.027c-.623-.07-1.129-.443-1.517-1.12a11.26 11.26 0 0 1-.895-1.93 9.111 9.111 0 0 0-.936-2.093c-.39-.637-1.042-1.038-1.954-1.202v4.536c-.006.298.07.533.226.705.157.173.434.28.83.321l.527.054a.15.15 0 0 1 .104.04c.03.028.045.068.047.122v.567l-.025.054-1.052-.027a84.229 84.229 0 0 0-1.637-.027c-.419.002-.95.011-1.596.027l-1.068.027-.05-.054V17.2c.001-.054.018-.094.05-.121a.19.19 0 0 1 .126-.04l.503-.055c.407-.046.691-.163.85-.35a.967.967 0 0 0 .23-.676v-8.99c.004-.29-.079-.494-.248-.612-.17-.117-.447-.193-.832-.226l-.503-.054a.274.274 0 0 1-.126-.023c-.032-.017-.049-.045-.05-.085v-.62l.025-.055 1.09.027c.66.016 1.218.025 1.674.027.406-.002.927-.011 1.562-.027l1.052-.027.025.054v.594c0 .086-.05.131-.15.135l-.529.054c-.384.037-.658.119-.82.247-.161.127-.24.324-.235.59v3.51c.97-.034 1.688-.337 2.158-.908.47-.57.83-1.204 1.084-1.9a9.434 9.434 0 0 1 .904-1.805c.362-.56.839-.858 1.433-.895zM116.54 0c.17 0 .302.068.396.203.094.135.188.337.282.607l5.152 14.634c.168.52.397.898.685 1.137.288.24.68.382 1.174.429l.277.027c.065 0 .123.02.173.057.05.038.075.09.078.159v.513l-.075.054-1.09-.027a93.41 93.41 0 0 0-1.825-.027c-.318 0-.737.006-1.258.014l-1.413.026-.671.014-.025-.054v-.513c-.005-.14.054-.212.176-.216l.703-.054c.478-.036.804-.146.98-.327.176-.182.201-.46.075-.834l-1.532-4.563h-5.227c-.293-.003-.5.03-.619.098-.12.068-.207.188-.26.361l-1.458 3.915c-.126.347-.106.646.06.898.165.252.48.403.945.452l.729.054c.052 0 .098.02.138.058.04.037.06.09.063.158v.513l-.05.054-.733-.014c-.458-.009-.95-.018-1.475-.026a91.566 91.566 0 0 0-1.135-.014c-.38.002-.838.011-1.375.027l-.886.027-.05-.054v-.513c.004-.14.07-.212.2-.216.542-.012.998-.143 1.37-.395.372-.251.728-.795 1.068-1.63l5.579-14.04c.133-.347.262-.597.39-.75A.57.57 0 0 1 116.54 0zM26.813 5.292l.025.054v.594c0 .086-.05.131-.15.135l-.755.054c-.458.022-.741.114-.848.277-.107.163-.15.512-.132 1.046v8.235c-.015.488.035.822.151 1.003.116.18.393.278.83.293l.753.054c.1 0 .15.054.15.162v.567l-.024.054-1.021-.027a87.228 87.228 0 0 0-1.869-.027c-.601.003-1.208.012-1.822.027l-.992.027v-.648c.004-.085.046-.13.125-.135l.78-.054c.438-.018.723-.123.854-.314.13-.19.189-.518.175-.982V8.532l-5.176 7.533v.054c-.015.334.033.571.144.712.111.142.373.21.786.206.1 0 .15.054.15.162v.567l-.025.054a77.64 77.64 0 0 0-.716-.027 43.162 43.162 0 0 0-1.32-.027 81.52 81.52 0 0 0-1.799.027l-.99.027-.025-.054v-.594c.005-.085.046-.13.126-.135l.78-.054c.435-.016.707-.112.816-.287.109-.175.155-.493.138-.955V7.506c.017-.562-.03-.93-.138-1.103-.11-.174-.381-.265-.817-.274l-.754-.054c-.1.005-.15-.031-.15-.108v-.62l.075-.055c.046.002.368.012.964.027a77.57 77.57 0 0 0 1.775.027 86.776 86.776 0 0 0 1.847-.027c.628-.015.967-.025 1.018-.027l.05.054v.594c0 .086-.05.131-.151.135l-.754.054c-.46.021-.752.114-.873.28-.122.166-.174.523-.157 1.07v7.317l5.176-7.56c.017-.332-.023-.606-.119-.823-.096-.217-.35-.33-.76-.338-.08.005-.122-.031-.126-.108v-.62l.05-.055.654.027c.403.016.797.025 1.18.027a87.229 87.229 0 0 0 1.87-.027c.63-.015.971-.025 1.02-.027zm74.171 0 .025.054v.594c0 .086-.05.131-.15.135l-.754.054c-.459.022-.742.114-.848.277-.107.163-.151.512-.132 1.046v8.235c-.016.488.034.822.15 1.003.117.18.393.278.83.293l.754.054c.1 0 .15.054.15.162v.567l-.025.054-1.02-.027a87.228 87.228 0 0 0-1.87-.027c-.6.003-1.208.012-1.821.027l-.993.027v-.648c.004-.085.046-.13.126-.135l.779-.054c.438-.018.723-.123.854-.314.13-.19.19-.518.176-.982V8.532l-5.177 7.533v.054c-.014.334.034.571.145.712.11.142.373.21.785.206.1 0 .15.054.15.162v.567l-.024.054a77.662 77.662 0 0 0-.716-.027 43.16 43.16 0 0 0-1.32-.027c-.589.003-1.189.012-1.8.027l-.989.027-.025-.054v-.594c.004-.085.046-.13.126-.135l.779-.054c.435-.016.707-.112.816-.287.11-.175.155-.493.139-.955V7.506c.016-.562-.03-.93-.139-1.103-.109-.174-.38-.265-.816-.274l-.754-.054c-.1.005-.151-.031-.151-.108v-.62l.075-.055c.047.002.368.012.965.027a77.57 77.57 0 0 0 1.774.027 86.019 86.019 0 0 0 1.847-.027c.629-.015.968-.025 1.018-.027l.05.054v.594c0 .086-.05.131-.15.135l-.754.054c-.461.021-.752.115-.874.28-.121.166-.173.523-.157 1.07v7.317l5.177-7.56c.017-.332-.023-.606-.12-.823-.096-.217-.35-.33-.76-.338-.08.005-.121-.031-.125-.108v-.62l.05-.055c.032.002.25.012.653.027.403.016.797.025 1.181.027a87.228 87.228 0 0 0 1.87-.027c.63-.015.97-.025 1.02-.027zm-48.868 0 1.112.027a92.41 92.41 0 0 0 1.678.027h6.935c.45-.002 1.026-.011 1.728-.027.701-.015 1.089-.025 1.162-.027l.05.054v.594c0 .086-.05.131-.15.135l-.78.054c-.447.005-.727.077-.838.216-.112.14-.159.482-.141 1.026v8.424c-.015.495.039.815.16.959.12.144.394.22.82.23l.779.053c.1 0 .15.054.15.162v.567l-.05.054-1.153-.027a100.34 100.34 0 0 0-1.737-.027c-.44.002-.979.011-1.614.027l-1.05.027-.05-.054v-.594c0-.085.05-.13.151-.135l.679-.054c.458-.026.741-.116.848-.27.107-.154.15-.46.132-.918v-8.37c-.01-.469-.11-.766-.302-.89a1.081 1.081 0 0 0-.678-.163H56.89a1.112 1.112 0 0 0-.691.172c-.2.13-.304.424-.314.881v8.37c-.012.493.049.81.182.948.133.14.407.22.823.24l.653.054c.1 0 .151.054.151.162v.567l-.05.054-1.1-.027a91.338 91.338 0 0 0-1.664-.027c-.446.002-1.006.011-1.678.027l-1.112.027-.025-.054v-.594c.004-.085.046-.13.126-.135l.779-.054c.458-.014.741-.1.848-.26.107-.159.15-.468.132-.928V7.398c.016-.557-.035-.907-.15-1.05-.117-.142-.394-.215-.83-.219l-.754-.054c-.1.005-.15-.031-.15-.108v-.62zm-.661 0 .025.054v.594c0 .086-.05.131-.15.135l-.755.054c-.458.022-.741.114-.848.277-.107.163-.15.512-.132 1.046v8.235c-.015.488.035.822.151 1.003.116.18.393.278.83.293l.753.054c.1 0 .151.054.151.162v.567l-.025.054-1.021-.027a87.228 87.228 0 0 0-1.869-.027c-.601.003-1.208.012-1.822.027l-.992.027v-.648c.004-.085.046-.13.125-.135l.78-.054c.438-.018.723-.123.854-.314.13-.19.19-.518.175-.982V8.532l-5.176 7.533v.054c-.015.334.033.571.144.712.111.142.373.21.786.206.1 0 .15.054.15.162v.567l-.025.054a77.64 77.64 0 0 0-.716-.027 43.162 43.162 0 0 0-1.32-.027 81.52 81.52 0 0 0-1.799.027l-.99.027-.025-.054v-.594c.005-.085.047-.13.126-.135l.78-.054c.435-.016.707-.112.816-.287.109-.175.155-.493.138-.955V7.506c.017-.562-.03-.93-.138-1.103-.11-.174-.381-.265-.817-.274l-.754-.054c-.1.005-.15-.031-.15-.108v-.62l.075-.055c.046.002.368.012.964.027a77.57 77.57 0 0 0 1.775.027 86.018 86.018 0 0 0 1.847-.027c.628-.015.967-.025 1.018-.027l.05.054v.594c0 .086-.05.131-.15.135l-.755.054c-.46.021-.752.115-.873.28-.121.166-.174.523-.157 1.07v7.317l5.176-7.56c.017-.332-.023-.606-.119-.823-.096-.217-.35-.33-.76-.338-.08.005-.122-.031-.126-.108v-.62l.05-.055c.033.002.25.012.654.027.403.016.797.025 1.181.027a87.229 87.229 0 0 0 1.869-.027c.63-.015.971-.025 1.02-.027zm13.988 0 1.074.027c.65.016 1.197.025 1.64.027h3.694c.435-.002.953-.011 1.552-.027l.986-.027.05.054c.016.579.06 1.136.132 1.67.072.536.154 1.059.245 1.57l-.628.108a4.88 4.88 0 0 0-.682-1.59c-.335-.52-.895-.801-1.68-.84h-2.01c-.24-.002-.42.05-.544.152-.123.103-.185.268-.185.496v3.915h1.884c.343-.002.581-.079.717-.23.135-.15.223-.362.263-.634l.151-.567c0-.085.05-.13.151-.135h.427c.024 0 .039.007.044.02a.16.16 0 0 1 .006.061c-.028.303-.06.629-.094.979s-.053.69-.056 1.02c.003.333.022.65.056.95.035.301.066.605.094.912l-.05.054h-.427c-.122-.004-.18-.05-.176-.135l-.126-.594c-.044-.271-.138-.478-.282-.62-.145-.144-.377-.216-.698-.217h-1.884v4.131c.002.267.067.502.194.705.128.203.306.31.534.321h2.388c.637-.007 1.14-.21 1.51-.607.37-.399.63-.952.776-1.66l.629.08-.503 3.105-.05.054-.836-.027a54.947 54.947 0 0 0-1.4-.027H67.93c-.434.002-.943.011-1.527.027l-.96.027-.026-.054v-.594a.139.139 0 0 1 .028-.088c.02-.029.061-.045.123-.047l.578-.054c.382-.05.647-.186.794-.408.147-.222.218-.473.21-.753v-8.91c.003-.3-.077-.502-.238-.604-.161-.102-.417-.161-.766-.179l-.578-.054c-.073-.014-.117-.032-.132-.054-.016-.021-.022-.04-.02-.054v-.62zM.05.324l1.125.014C1.87.346 2.559.35 3.242.35c.588 0 1.133-.005 1.633-.013.5-.009.97-.013 1.407-.014 2.27.06 3.755.522 4.455 1.387.699.866 1.015 1.78.948 2.744a3.79 3.79 0 0 1-.688 2.1 4.637 4.637 0 0 1-1.649 1.491c1.116.332 2.026.884 2.73 1.657.704.774 1.067 1.805 1.09 3.095.048 1.225-.382 2.353-1.291 3.382-.91 1.03-2.59 1.576-5.042 1.64a62.832 62.832 0 0 1-2.107-.027 39.52 39.52 0 0 0-1.486-.027c-.683.002-1.372.011-2.067.027L.05 17.82 0 17.766v-.513c-.004-.14.055-.212.176-.216l.754-.054c.516-.024.866-.105 1.05-.243.182-.138.268-.435.257-.89V2.267c.013-.444-.07-.737-.248-.88-.179-.144-.532-.228-1.059-.254L.176 1.08c-.062 0-.107-.019-.135-.054a.207.207 0 0 1-.04-.135v-.54zM6.51 8.802H4.272v6.858c-.023.442.105.76.383.955.279.195.846.291 1.703.287 1.861-.026 3.101-.378 3.719-1.056.618-.678.902-1.523.854-2.535 0-1.25-.37-2.306-1.109-3.166-.738-.86-1.843-1.307-3.313-1.343zm76.35-2.43h-2.562c-.295.023-.492.126-.591.31-.1.185-.146.316-.138.392-.195 3.053-.402 5.317-.622 6.794-.22 1.477-.34 2.317-.358 2.521.004.144.052.235.144.274a.775.775 0 0 0 .333.05h3.795c.448 0 .732-.108.85-.327.12-.22.171-.55.155-.996V7.668c.016-.455-.035-.786-.154-.992-.119-.206-.403-.307-.851-.304zm33.104-3.456h-.05L113.4 9.774c-.052.133-.03.225.069.277.098.052.285.076.56.074h4.372l-2.438-7.209zM6.683 1.243h-.46c-.908.005-1.467.087-1.678.246-.227.171-.318.476-.273.914v5.481h1.86c1.063.014 1.927-.216 2.591-.692.664-.475 1.007-1.28 1.027-2.413-.049-1.352-.422-2.286-1.118-2.801-.696-.515-1.42-.76-2.174-.736z"/></svg>