<svg xmlns="http://www.w3.org/2000/svg" width="119" height="19"><path fill="#000" fill-rule="nonzero" d="M118.371 14.724c0 1.482-.506 2.222-1.517 2.222-.88 0-1.434-.789-1.663-2.366a35.516 35.516 0 0 0-.632-4.48c-.47-1.579-1.427-2.368-2.872-2.368-.639 0-1.229.106-1.771.317a4.073 4.073 0 0 0-1.4.894 4.06 4.06 0 0 0-.912 1.373 4.586 4.586 0 0 0-.326 1.752c0 1.952 1.06 2.927 3.18 2.927.783 0 1.608-.138 2.475-.415.072.096.157.228.253.397s.223.398.38.687a6 6 0 0 1 .343.686c.072.18.108.307.108.38 0 .277-.506.487-1.517.632-.386.06-.741.1-1.066.117a16.36 16.36 0 0 1-.904.027c-1.77 0-3.185-.421-4.245-1.264-1.193-.916-1.789-2.235-1.789-3.957 0-2.192.789-3.932 2.367-5.221 1.47-1.229 3.312-1.843 5.528-1.843 2.036 0 3.601 1.132 4.697 3.397.831 1.77 1.259 3.806 1.283 6.106Zm-16.476.271c0 1.072-.428 1.8-1.283 2.186-.53.217-1.433.325-2.71.325h-7.66v-2.51h5.709c.638 0 .957-.115.957-.344-.891-1.457-1.337-2.355-1.337-2.692 0-1.084.633-1.626 1.897-1.626 1.084 0 2.096.506 3.035 1.518.928 1 1.392 2.047 1.392 3.143Zm-28.563 2.511v-2.51h4.408a11.822 11.822 0 0 1-.615-1.97 8.572 8.572 0 0 1-.198-1.77c0-1.482.325-2.551.975-3.207.65-.657 1.705-.985 3.162-.985h4.517c1.638 0 2.776.976 3.414 2.927.325 1.156.506 2.824.542 5.004h1.933v2.511H73.332Zm13.333-5.618c-.35-1.53-.946-2.295-1.789-2.295h-3.541c-1.036 0-1.554.554-1.554 1.662 0 .314.066.78.199 1.4.132.62.337 1.4.614 2.34h6.323l-.252-3.107ZM62.13 17.506v-2.51h1.265c2.758.035 4.137-.08 4.137-.344-.542-1.06-.948-1.915-1.22-2.566-.27-.65-.406-1.114-.406-1.39 0-.29.063-.567.19-.832.126-.265.295-.497.506-.695.21-.199.454-.359.731-.48.278-.12.567-.18.868-.18 2.324 0 3.486 1.578 3.486 4.734 0 .265-.006.545-.018.84-.012.295-.03.599-.054.912h2.945v2.511H62.13Zm-16.91 0v-2.51h13.55c.843 0 1.265-.091 1.265-.272 0-.35-.301-1.06-.904-2.132a27.807 27.807 0 0 0-.74-1.282 7.867 7.867 0 0 0-.579-.831c-.879.71-1.68 1.24-2.402 1.59-.723.349-1.391.523-2.006.523-.65 0-1.237-.093-1.761-.28a4.296 4.296 0 0 1-1.418-.84c-.892-.783-1.337-1.794-1.337-3.035 0-1.397.481-2.541 1.445-3.433.976-.867 2.174-1.3 3.595-1.3 1.759 0 3.62 1.457 5.583 4.372a33.497 33.497 0 0 1 2.014 3.414 23.8 23.8 0 0 1 1.454 3.505h.38v2.511H45.22Zm11.4-9.033c-.807-1.505-1.819-2.258-3.035-2.258-.614 0-1.12.199-1.518.596-.397.397-.596.903-.596 1.518a1.57 1.57 0 0 0 .578 1.237c.181.15.389.271.624.361.234.09.478.136.731.136.506 0 1.024-.13 1.554-.388.53-.26 1.084-.66 1.662-1.202Zm-10.894 9.033c-.217.843-.735 1.265-1.554 1.265-1.011 0-1.704-.56-2.077-1.68-.06-.205-.133-.608-.217-1.21a76.915 76.915 0 0 1-.29-2.44 16.454 16.454 0 0 0-.37-2.113c-.15-.59-.34-1.06-.569-1.41-.289-.47-1.186-.885-2.691-1.246-1.241-.35-1.861-.958-1.861-1.825 0-.542.289-.987.867-1.337a3.459 3.459 0 0 1 1.662-.397c.807 0 2.469.036 4.986.108.157.35.298.735.425 1.156.126.422.256.874.388 1.355-.036.073-.18.271-.433.597a.867.867 0 0 0-.181.325c-.036.12-.054.247-.054.38 0 .288.27 1.228.813 2.818.698 1.975 1.048 3.023 1.048 3.143h.885v2.511h-.777Zm-5.926-.993c0 .229-.045.445-.135.65a1.77 1.77 0 0 1-.913.912c-.204.09-.421.136-.65.136-.229 0-.446-.045-.65-.136a1.77 1.77 0 0 1-.913-.912 1.657 1.657 0 0 1 0-1.31 1.74 1.74 0 0 1 .913-.921c.204-.09.421-.136.65-.136.229 0 .446.046.65.136a1.74 1.74 0 0 1 1.048 1.58Zm-6.341-1.518c0 1.072-.428 1.8-1.283 2.186-.53.217-1.433.325-2.71.325h-7.66v-2.51h5.71c.637 0 .957-.115.957-.344-.892-1.457-1.337-2.355-1.337-2.692 0-1.084.632-1.626 1.897-1.626 1.084 0 2.095.506 3.035 1.518.927 1 1.391 2.047 1.391 3.143Zm-8.69-12.881c0 .759-.385 1.575-1.156 2.448-.771.873-1.927 1.821-3.469 2.845-2.42 1.59-5.558 2.403-9.413 2.44.338.192.735.454 1.193.785.457.331.975.75 1.554 1.256 1.228 1.06 2.137 1.758 2.728 2.095.542.338 1.062.59 1.562.76.5.168 1.003.252 1.509.252h3.776v2.511c-1.036 0-2.59.109-4.661.326a54.733 54.733 0 0 1-2.683.289c-.765.06-1.412.09-1.942.09-.398 0-.88-.554-1.446-1.662a58.504 58.504 0 0 0-.406-.84 69.031 69.031 0 0 1-.623-1.31 7.611 7.611 0 0 0-1.283-1.933 6.89 6.89 0 0 0-1.861-1.427 8.843 8.843 0 0 0-1.554-.723 4.27 4.27 0 0 0-1.373-.253c-.566 0-.945.066-1.138.199-.47.24-.705.819-.705 1.734v2.114l.037 2.132c0 1.035-.223 1.553-.669 1.553-.662 0-1.3-1.192-1.915-3.577C.277 12.195 0 10.641 0 9.558c0-.772.301-1.404.903-1.898.542-.47 1.217-.704 2.024-.704.53 0 1.33.036 2.403.108.542.048 1.017.081 1.427.1.41.017.753.026 1.03.026 4.456 0 7.708-.788 9.755-2.366.097-.085.365-.365.804-.84.44-.476 1.04-1.148 1.798-2.015C21.288.656 22.246 0 23.017 0c1.168 0 1.752.705 1.752 2.114Z"/></svg>