<svg xmlns="http://www.w3.org/2000/svg" width="146" height="21" fill="none"><path fill="#595959" d="M4.674 19.69 0 0h4.762l1.49 8.092c.438 2.366.847 4.908 1.168 6.894h.058c.322-2.132.789-4.499 1.286-6.952L10.429 0h4.732l1.577 8.296c.439 2.308.76 4.412 1.052 6.603h.059c.292-2.191.73-4.5 1.139-6.865L20.595 0h4.527L20.04 19.69h-4.82l-1.666-8.472c-.38-1.987-.7-3.827-.934-6.076h-.059c-.35 2.22-.672 4.09-1.14 6.076l-1.869 8.471H4.674ZM31.9 0v19.689h-4.441V0h4.44ZM35.755 0h4.41v8.705h.06c.438-.76.905-1.46 1.372-2.161L46.037 0h5.493l-6.515 8.384 6.836 11.305h-5.17l-4.85-8.5-1.665 2.073v6.427h-4.411V0ZM58.16 0v19.689h-4.44V0h4.44Z"/><path fill="#8C8C8C" d="M62.045 0h4.44v15.95h7.83v3.739h-12.27V0ZM81.704 14.636l-1.402 5.053h-4.586L81.705 0h5.842l6.135 19.69h-4.82l-1.52-5.055h-5.638Zm4.996-3.33-1.227-4.178c-.35-1.169-.701-2.63-.993-3.798h-.059c-.292 1.169-.584 2.658-.905 3.798l-1.169 4.177H86.7ZM100.575 0h4.441v12.444c0 5.61-2.688 7.566-6.982 7.566-1.052 0-2.396-.175-3.272-.467l.497-3.593c.613.204 1.402.35 2.278.35 1.87 0 3.038-.847 3.038-3.885V0ZM125.376 12.152c-.087-2.366-.175-5.229-.175-8.091h-.058a124.076 124.076 0 0 1-2.221 7.624l-2.395 7.683h-3.476l-2.104-7.595a107.71 107.71 0 0 1-1.782-7.712h-.058a615.521 615.521 0 0 1-.321 8.15l-.38 7.478h-4.119L109.543 0h5.93l1.928 6.573a84.643 84.643 0 0 1 1.665 7.04h.117c.526-2.278 1.198-4.878 1.87-7.07L123.127 0h5.842l1.052 19.69h-4.324l-.321-7.538ZM145.153 11.364h-7.245v4.674H146v3.651h-12.532V0h12.123v3.652h-7.683v4.09h7.245v3.622Z"/></svg>