<?xml version="1.0" encoding="UTF-8"?>
<svg width="120px" height="12px" viewBox="0 0 120 12" version="1.1" xmlns="http://www.w3.org/2000/svg" xmlns:xlink="http://www.w3.org/1999/xlink">
    <title>nv-tagline</title>
    <g id="Page-1" stroke="none" stroke-width="1" fill="none" fill-rule="evenodd">
        <path d="M2.50567396,1.81274441 C2.56272873,1.8759799 2.56272873,2.09731331 2.50567396,2.16053036 C1.84003064,2.19214811 1.67837348,2.24485049 1.67837348,3.11958652 L1.67837348,7.34580324 C1.67837348,8.22054848 1.84003064,8.27326008 2.50567396,8.30486861 C2.51960422,8.32030792 2.53013332,8.34517178 2.53726127,8.3748578 L2.53927517,8.35924397 L2.56666146,8.30486861 C3.13721288,8.25216623 3.23230543,8.21001538 3.23230543,7.34580324 L3.23230543,5.2906592 C3.23230543,4.67939821 3.12770369,4.62671426 2.61420741,4.57400266 C2.59518885,4.51076718 2.57617028,4.34212693 2.59518885,4.27890988 C3.25132298,4.18405665 3.64120117,4.08920343 3.90745841,3.97326556 C3.98353174,3.97326556 4.02156887,4.00487409 4.02156887,4.05758568 C4.02156887,4.05758568 3.97402246,4.54238492 3.97402246,4.85855313 C3.97402246,5.00610874 4.04058661,4.90075927 4.06911446,4.85855313 C4.64917562,4.14189659 5.10561832,4.0048833 5.57156865,4.0048833 C5.90439031,4.0048833 6.19917595,4.13135427 6.36083219,4.36321157 C6.57954679,4.68993131 6.61758023,5.19581519 6.61758023,5.77546766 L6.61758023,7.34580324 C6.61758023,8.20998773 6.72218216,8.25215701 7.25469645,8.30486861 C7.30224747,8.36810409 7.30224747,8.5894375 7.25469645,8.65265456 C6.84580182,8.64224125 6.63659797,8.63164364 6.2467219,8.63164364 C5.8663542,8.63164364 5.67616947,8.64205695 5.27678347,8.65265456 C5.22923706,8.58942829 5.22923706,8.36808566 5.27678347,8.30486861 C5.77126137,8.25216623 5.86635383,8.21001538 5.86635383,7.34580324 L5.86635383,5.74384991 C5.86635383,5.42768171 5.84733536,5.14311281 5.75224345,4.93234015 C5.63813317,4.68993131 5.43843962,4.55291803 5.24825581,4.55291803 C4.87739748,4.55291803 4.50653786,4.78478454 4.14518862,5.17473055 C4.06911575,5.26958378 3.9835322,5.39606396 3.9835322,5.61737894 L3.9835322,7.34580324 C3.9835322,8.20998773 4.06911556,8.25215701 4.55408427,8.30486861 C4.61113904,8.36810409 4.61113904,8.5894375 4.55408427,8.65265456 C4.15469818,8.64224125 3.98353193,8.63164364 3.61267341,8.63164364 C3.20377823,8.63164364 2.95653817,8.64205695 2.56666146,8.65265456 C2.5527312,8.63721749 2.5422021,8.61235479 2.53507415,8.58266922 L2.53306025,8.59828008 L2.50567396,8.65265456 C2.03021444,8.64224125 1.75444663,8.63164364 1.27898712,8.63164364 C0.794018408,8.63164364 0.508741499,8.64205695 0.0427910801,8.65265456 C-0.0142636934,8.58942829 -0.0142636934,8.36808566 0.0427910801,8.30486861 C0.708434496,8.27325087 0.87009147,8.22054848 0.87009147,7.34580324 L0.87009147,3.11958652 C0.87009147,2.24485049 0.708434496,2.19213889 0.0427910801,2.16053036 C-0.0142636934,2.09729488 -0.0142636934,1.87596147 0.0427910801,1.81274441 C0.51825069,1.82315772 0.794018408,1.83375533 1.26947792,1.83375533 C1.75444663,1.83375533 2.03972354,1.82334202 2.50567396,1.81274441 Z M1.85904837,-1.77635684e-15 C2.12530561,0.147546392 2.32499925,0.326719742 2.44861873,0.548034723 L1.07929393,1.15931415 C0.879600936,1.25417659 0.765490191,1.28578511 0.679907571,1.28578511 C0.594324304,1.28578511 0.537269531,1.21201653 0.537269531,1.1276964 C0.537269531,1.0539186 0.556288096,1.00124386 0.679907571,0.906362991 Z M7.4990276,7.17718142 C7.53706381,7.69358919 7.56559442,8.18893074 7.56559442,8.63157913 C7.66068724,8.61047607 7.75577915,8.59997061 7.80332464,8.59997061 C7.86988685,8.59997061 7.92694439,8.59997061 7.99350937,8.62098152 C8.25025723,8.69470403 8.50700693,8.73691939 8.85884578,8.73691939 C9.39136099,8.73691939 10.3708088,8.45235049 10.3708088,7.40897421 C10.3708088,6.69231767 9.89534836,6.28128703 9.25823196,6.00726966 C8.68768146,5.76487004 8.30731292,5.60678133 8.30731292,5.02712887 C8.30731292,4.5950228 8.64964433,4.35262318 8.97295717,4.35262318 C9.18215862,4.35262318 9.7336924,4.4369433 9.85731215,5.33276397 C9.91436416,5.39598103 10.1045516,5.38547557 10.1616064,5.32216636 C10.1616064,4.94275345 10.2091574,4.55280744 10.2186584,4.20501228 C9.92387344,4.15230068 9.46743064,4.00477272 8.97295348,4.00477272 C8.26927211,4.00477272 7.63215571,4.51064738 7.63215571,5.18516229 C7.63215571,5.95451199 7.94595927,6.28123173 8.67816757,6.61848458 C9.45792136,6.98736438 9.64810609,7.19813704 9.64810609,7.65132776 C9.64810609,8.16773552 9.19166422,8.38906893 8.83982353,8.38906893 C8.46896612,8.38906893 8.25976282,8.25205564 8.16467092,8.13611778 C7.93645091,7.89372737 7.85086736,7.43000356 7.79381259,7.1665193 C7.73676058,7.10330225 7.55608237,7.11380771 7.4990276,7.17711691 M13.1032885,6.17595599 L13.1032885,7.57766975 C13.1032885,7.71467382 13.0462365,7.78844241 12.9701604,7.8516779 C12.7229209,8.07300209 12.3996081,8.30486861 12.13335,8.30486861 C11.6578905,8.30486861 11.4486881,7.88329564 11.4486881,7.55658511 C11.4486881,7.08232819 11.6483821,6.60805284 12.3520617,6.39728018 L13.1032885,6.17595599 M13.1032885,8.12569526 C13.1603406,8.34701945 13.3220011,8.73697468 13.8354978,8.73697468 C14.301448,8.73697468 14.6437794,8.31540171 14.6437794,8.26271776 C14.6437794,8.1889031 14.5581968,8.08354441 14.5201597,8.08354441 C14.4631076,8.08354441 14.4250678,8.25216623 14.2253737,8.25216623 C13.8545163,8.25216623 13.8450061,7.84114479 13.8450061,7.35633634 L13.8450061,5.78600076 C13.8450061,4.28944298 13.1032876,4.0048833 12.4091164,4.0048833 C11.6293636,4.0048833 10.8400987,4.60562041 10.8400987,5.17473055 C10.8400987,5.42768171 10.9542091,5.54360114 11.1729217,5.54360114 C11.4486881,5.54360114 11.5913264,5.33281926 11.5913264,5.19580598 C11.5913264,5.12208346 11.5818162,5.04825958 11.5627958,5.00610874 C11.5532856,4.97450021 11.5437754,4.91122786 11.5437754,4.79531765 C11.5437754,4.46860712 11.9716895,4.35267847 12.3330385,4.35267847 C12.6563513,4.35267847 13.1032839,4.5318426 13.1032839,5.72276528 C13.1032839,5.79648779 13.0747533,5.83870314 13.0462319,5.84923624 L12.2284401,6.07056044 C11.3155591,6.32350238 10.6594223,6.88207942 10.6594223,7.59873596 C10.6594223,8.43133958 11.1919384,8.73697468 11.8575818,8.73697468 C12.2950041,8.73697468 12.4756805,8.65265456 12.8940843,8.2943355 L13.0842691,8.12569526 L13.1032895,8.12569526 M17.5780303,7.3247186 C17.5780303,7.52496737 17.5590099,7.60928749 17.4258836,7.73575846 C17.0740429,8.07300209 16.7697487,8.24163312 16.5320184,8.24163312 C16.0185227,8.24163312 15.4860066,7.6198206 15.4860066,6.30242696 C15.4860066,5.54360114 15.6191356,5.12203739 15.761773,4.90072241 C16.0565589,4.40537163 16.4559451,4.37376311 16.6461298,4.37376311 C16.9884603,4.37376311 17.2261905,4.51076718 17.4163743,4.7531668 C17.5495034,4.92178861 17.5780303,4.99556642 17.5780303,5.32227695 L17.5780303,7.3247186 M17.47343,8.10461983 C17.5114616,8.0624137 17.5875396,8.04140278 17.5875396,8.11521745 C17.5875396,8.36815938 17.6921417,8.73702997 17.6921417,8.73702997 C17.7682141,8.7686385 17.7967429,8.75804089 17.8728162,8.73702997 C18.0820186,8.54732352 18.4433686,8.38924402 19.0234293,8.315457 C19.0804813,8.25223995 19.0804813,8.09414202 19.0234293,8.03090654 C18.4148407,7.97819494 18.3292572,7.7779646 18.3292572,7.2615384 L18.3292572,2.48729618 C18.3292572,1.80225739 18.3672888,1.38069363 18.3672888,1.38069363 C18.3672888,1.30687897 18.3292572,1.27529809 18.243669,1.27529809 C18.0059379,1.38069363 17.2927481,1.52823081 16.9123805,1.55984855 C16.8933601,1.64416867 16.9123805,1.81279971 16.9694325,1.87603519 C17.4639097,1.90764372 17.5780211,1.85493212 17.5780211,2.74023812 L17.5780211,4.08925872 C17.5780211,4.16298123 17.5590007,4.18413959 17.4924385,4.18413959 C17.4544069,4.18413959 17.0645235,4.00497546 16.7507209,4.00497546 C16.1231138,4.00497546 15.7047081,4.23683276 15.3243405,4.63732109 C14.9154459,5.0905118 14.6682055,5.71231511 14.6682055,6.49221635 C14.6682055,7.78852535 15.2577773,8.73705762 16.2847697,8.73705762 C16.6556281,8.73705762 17.0074697,8.52627574 17.4734199,8.10470277 M19.1318124,6.47104877 C19.1318124,7.54604279 19.7879492,8.73697468 21.1287451,8.73697468 C22.5456144,8.73697468 23.1446946,7.43011414 23.1446946,6.37619554 C23.1446946,5.2801261 22.6216878,4.0048833 21.1477628,4.0048833 C19.8640226,4.0048833 19.1318124,5.13257971 19.1318124,6.47104877 M21.0431625,4.35267847 C21.8609525,4.35267847 22.3269046,5.16419745 22.3269046,6.71345761 C22.3269046,8.10461983 21.746843,8.38917952 21.2999104,8.38917952 C20.3109551,8.38917952 19.9496043,7.04015892 19.9496043,6.22864915 C19.9496043,5.31174384 20.2443902,4.35267847 21.0431625,4.35267847 M23.6321091,6.47104877 C23.6321091,7.54604279 24.288246,8.73697468 25.6290419,8.73697468 C27.0459112,8.73697468 27.6449923,7.43011414 27.6449923,6.37619554 C27.6449923,5.2801261 27.1219845,4.0048833 25.6480604,4.0048833 C24.3643193,4.0048833 23.6321091,5.13257971 23.6321091,6.47104877 M25.5434583,4.35267847 C26.3612483,4.35267847 26.8272004,5.16419745 26.8272004,6.71345761 C26.8272004,8.10461983 26.2471388,8.38917952 25.8002071,8.38917952 C24.811251,8.38917952 24.449901,7.04015892 24.449901,6.22864915 C24.449901,5.31174384 24.744686,4.35267847 25.5434583,4.35267847 M29.3228411,4.80586918 C29.5700797,4.56346035 29.8553563,4.46860712 30.1311236,4.46860712 C30.7111843,4.46860712 31.1866439,5.24850836 31.1866439,6.27080921 C31.1866439,7.4722742 30.7492205,8.3786372 29.845847,8.3786372 C29.551062,8.3786372 29.351368,8.1467799 29.1611851,7.88329564 L29.1611851,5.24850836 C29.1611851,5.02718416 29.1992167,4.93233093 29.3228411,4.80586918 M29.2562789,4.47914944 C29.1897166,4.54236649 29.161187,4.52135558 29.161187,4.42643784 L29.161187,2.48723167 C29.161187,1.80219288 29.1992186,1.38062913 29.1992186,1.38062913 C29.1992186,1.30681446 29.161187,1.27523358 29.0755988,1.27523358 C28.8378686,1.38062913 28.1246779,1.5281663 27.7443103,1.55978404 C27.7252899,1.64410417 27.7443103,1.8127352 27.8013623,1.87597068 C28.2958413,1.90757921 28.4099518,1.85486761 28.4099518,2.74017361 L28.4099518,7.88328642 C28.4099518,8.29431707 28.4004416,8.48402353 28.3719202,8.63156992 C28.4194712,8.71589004 28.4670121,8.75804089 28.5811226,8.75804089 C28.6381746,8.70532929 28.7332702,8.59995218 28.7998342,8.50509895 C28.9044354,8.37862798 28.9614902,8.37862798 29.0660914,8.48408803 C29.2752937,8.68432759 29.5605704,8.73702076 29.9029018,8.73702076 C30.8728394,8.73702076 32.0044348,7.75687075 32.0044348,6.08115805 C32.0044348,4.79537294 31.1486058,4.0049386 30.3213065,4.0049386 C29.9124111,4.0049386 29.5510602,4.18410273 29.2562761,4.47919551 M33.5328112,1.55979326 L32.8101122,2.81396063 C32.7340398,2.9509647 32.705511,2.99312477 32.705511,3.10905342 C32.705511,3.18277593 32.7720732,3.2460667 32.83864,3.2460667 C32.9052022,3.2460667 32.9812783,3.20386057 33.1239166,3.04581793 L34.217474,1.89704611 L34.1889434,1.78112667 C33.9702317,1.54926016 33.7229922,1.53871784 33.6659375,1.53871784 C33.6183864,1.53871784 33.5613353,1.54931545 33.5328075,1.55982091 M33.7039737,7.34583088 L33.7039737,5.248536 C33.7039737,4.7215767 33.7420053,4.0470618 33.7420053,4.0470618 C33.7420053,4.00485566 33.6944542,3.97333928 33.6183855,3.97333928 C33.3426191,4.08927715 32.9717589,4.18413038 32.3156249,4.2789836 C32.2966045,4.34220066 32.3156249,4.5108409 32.3346453,4.57407639 C32.848141,4.63729344 32.9527431,4.69000504 32.9527431,5.29073293 L32.9527431,7.34587696 C32.9527431,8.22062221 32.848141,8.25223995 32.2680812,8.30494233 C32.2110292,8.36815938 32.2110292,8.58950201 32.2680812,8.6527375 C32.6674665,8.64213988 32.9147069,8.63163443 33.3331107,8.63163443 C33.7420062,8.63163443 33.9797373,8.64223204 34.3886328,8.6527375 C34.4456848,8.58952044 34.4456848,8.36817781 34.3886328,8.30494233 C33.8085721,8.26273619 33.70397,8.22062221 33.70397,7.34587696 M35.7486703,1.55979326 L35.0259713,2.81396063 C34.9498989,2.9509647 34.9213701,2.99312477 34.9213701,3.10905342 C34.9213701,3.18277593 34.9879323,3.2460667 35.0544991,3.2460667 C35.1210613,3.2460667 35.1971374,3.20386057 35.3397748,3.04581793 L36.4333331,1.89704611 L36.4048025,1.78112667 C36.1860908,1.54926016 35.9388513,1.53871784 35.8817966,1.53871784 C35.8342455,1.53871784 35.7771945,1.54931545 35.7486666,1.55982091 M35.9198328,7.34583088 L35.9198328,5.248536 C35.9198328,4.7215767 35.9578644,4.0470618 35.9578644,4.0470618 C35.9578644,4.00485566 35.9103134,3.97333928 35.8342446,3.97333928 C35.5584782,4.08927715 35.187618,4.18413038 34.531484,4.2789836 C34.5124636,4.34220066 34.531484,4.5108409 34.5505044,4.57407639 C35.0640001,4.63729344 35.1686022,4.69000504 35.1686022,5.29073293 L35.1686022,7.34587696 C35.1686022,8.22062221 35.0640001,8.25223995 34.4839403,8.30494233 C34.4268883,8.36815938 34.4268883,8.58950201 34.4839403,8.6527375 C34.8833256,8.64213988 35.130566,8.63163443 35.5489698,8.63163443 C35.9578653,8.63163443 36.1955964,8.64223204 36.6044919,8.6527375 C36.6615439,8.58952044 36.6615439,8.36817781 36.6044919,8.30494233 C36.0244312,8.26273619 35.9198291,8.22062221 35.9198291,7.34587696 M40.3608474,1.27529809 C40.4464346,1.27529809 40.4844662,1.30687897 40.4844662,1.38069363 C40.4844662,1.38069363 40.4464346,1.80225739 40.4464346,2.48729618 L40.4464346,7.2615384 C40.4464346,7.7779646 40.5320182,7.97819494 41.1406067,8.03090654 C41.1976587,8.09414202 41.1976587,8.25223995 41.1406067,8.315457 L41.1464916,8.30472301 C41.7246974,8.25213439 41.829045,8.21954283 41.829045,7.34584931 L41.829045,5.29071449 C41.829045,4.68997739 41.7244448,4.6372658 41.2109481,4.57404874 C41.1919277,4.51081326 41.1729073,4.34217301 41.1919277,4.27895596 C41.8480618,4.18410273 42.218921,4.0892495 42.4946884,3.97332085 C42.5707562,3.97332085 42.6183072,4.00483723 42.6183072,4.04704337 C42.6183072,4.04704337 42.5802756,4.72154906 42.5802756,5.24850836 L42.5802719,7.34584931 C42.5802719,8.22059456 42.684874,8.26270855 43.2649347,8.30491468 C43.3219867,8.36815017 43.3219867,8.5894928 43.2649347,8.65270985 C42.8560402,8.64220439 42.618309,8.63160678 42.2094145,8.63160678 C41.7910088,8.63160678 41.5437693,8.64211224 41.1443832,8.65270985 C41.0873311,8.58947436 41.0873311,8.36813174 41.1443832,8.30491468 L41.1385174,8.31572327 C40.5596772,8.38962384 40.1989438,8.54755139 39.9899928,8.73702997 C39.9139185,8.75804089 39.8853906,8.7686385 39.8093182,8.73702997 C39.8093182,8.73702997 39.704717,8.36815938 39.704717,8.11521745 C39.704717,8.04140278 39.6286382,8.0624137 39.5906066,8.10461983 C39.124648,8.52627574 38.7728064,8.73705762 38.4019481,8.73705762 C37.3749557,8.73705762 36.7853839,7.78852535 36.7853839,6.49221635 C36.7853839,5.71231511 37.0326234,5.0905118 37.4415189,4.63732109 C37.8218865,4.23683276 38.2402921,4.00497546 38.8678983,4.00497546 C39.1817028,4.00497546 39.5715852,4.18413959 39.6096168,4.18413959 C39.6761791,4.18413959 39.6951995,4.16298123 39.6951995,4.08925872 L39.6951995,2.74023812 C39.6951995,1.85493212 39.5810881,1.90764372 39.0866109,1.87603519 C39.0295589,1.81279971 39.0105385,1.64416867 39.0295589,1.55984855 C39.4099274,1.52823081 40.1231172,1.38069363 40.3608474,1.27529809 Z M38.7633054,4.37376311 C38.5731226,4.37376311 38.1737355,4.40537163 37.8789505,4.90072241 C37.7363122,5.12203739 37.603184,5.54360114 37.603184,6.30242696 C37.603184,7.6198206 38.1356993,8.24163312 38.6491959,8.24163312 C38.8869252,8.24163312 39.1912204,8.07300209 39.5430602,7.73575846 C39.6761874,7.60928749 39.6952078,7.52496737 39.6952078,7.3247186 L39.6952078,5.32227695 C39.6952078,4.99556642 39.6666799,4.92178861 39.5335509,4.7531668 C39.343368,4.51076718 39.1056369,4.37376311 38.7633054,4.37376311 Z M42.2094182,1.81274441 C42.4661661,1.81274441 42.6658591,2.1078372 42.6658591,2.36076992 C42.6658591,2.59263644 42.4376373,2.8666538 42.1713801,2.8666538 C41.9431601,2.8666538 41.7149392,2.59263644 41.7149392,2.31861907 C41.7149392,2.06567714 41.9811973,1.81274441 42.2094182,1.81274441 Z M50.1119969,4.08913892 C50.1690489,4.15243891 50.1690489,4.37377232 50.1119969,4.43698938 C49.7601571,4.46860712 49.4748805,4.80586918 49.3417524,5.11149507 C48.8377641,6.29188464 48.4193584,7.3879633 47.6586232,9.41147116 C47.5350034,9.72764858 47.4113837,10.0332837 47.2687463,10.3178434 C46.9169065,10.9922938 46.5365371,11.0766139 46.336844,11.0766139 C46.0800961,11.0766139 45.8899114,10.9079829 45.8899114,10.6866587 C45.8899114,10.5496546 46.0325497,10.2334772 46.308317,10.2334772 C46.4129182,10.2334772 46.4509554,10.2650857 46.5840835,10.2650857 C46.8218128,10.2650857 46.9549427,10.1702325 47.0595439,9.95945059 C47.2021813,9.63274006 47.3258011,9.34817116 47.4304022,8.9898429 C47.5254941,8.6947409 47.3828568,8.22048398 47.2972741,7.99915978 L46.2227344,5.22735921 C45.9659866,4.56339584 45.8899114,4.47913101 45.4715076,4.43692487 C45.4144555,4.37368938 45.4144555,4.15235597 45.4715076,4.08913892 C45.6616914,4.09955222 45.9184402,4.11014984 46.2417521,4.11014984 C46.5840835,4.11014984 46.964452,4.09973653 47.3162927,4.08913892 C47.3733447,4.1523744 47.3733447,4.37370782 47.3162927,4.43692487 C46.736232,4.48961803 46.8408323,4.6793337 47.0119975,5.12197288 L47.848807,7.31412099 C47.9343896,7.52496737 48.0104657,7.50389195 48.0770279,7.3247186 L49.0279479,4.91125551 C49.1705862,4.53187025 48.866291,4.4685979 48.5715069,4.43698938 C48.5144549,4.37376311 48.5144549,4.15242048 48.5715069,4.08913892 C48.9233467,4.09961673 49.1040221,4.11021434 49.4368443,4.11021434 C49.7031014,4.11021434 49.8742667,4.09980104 50.1119969,4.08913892 Z M44.7105502,3.97332085 C44.786619,3.97332085 44.83417,4.00483723 44.83417,4.04704337 C44.83417,4.04704337 44.7961384,4.72154906 44.7961384,5.24850836 L44.7961356,7.34584931 C44.7961356,8.22059456 44.9007377,8.26270855 45.4807984,8.30491468 C45.5378504,8.36815017 45.5378504,8.5894928 45.4807984,8.65270985 C45.071903,8.64220439 44.8341718,8.63160678 44.4252764,8.63160678 C44.0068726,8.63160678 43.7596321,8.64211224 43.3602469,8.65270985 C43.3031949,8.58947436 43.3031949,8.36813174 43.3602469,8.30491468 C43.9403067,8.2522123 44.0449088,8.22060378 44.0449088,7.34584931 L44.0449088,5.29071449 C44.0449088,4.68997739 43.9403067,4.6372658 43.4268109,4.57404874 C43.4077905,4.51081326 43.3887701,4.34217301 43.4077905,4.27895596 C44.0639236,4.18410273 44.4347838,4.0892495 44.7105502,3.97332085 Z M44.4252791,1.81274441 C44.6820279,1.81274441 44.8817219,2.1078372 44.8817219,2.36076992 C44.8817219,2.59263644 44.6535001,2.8666538 44.3872429,2.8666538 C44.159022,2.8666538 43.930802,2.59263644 43.930802,2.31861907 C43.930802,2.06567714 44.19706,1.81274441 44.4252791,1.81274441 Z M52.6516167,6.17595599 L52.6516167,7.57766975 C52.6516167,7.71467382 52.5945647,7.78844241 52.5184867,7.8516779 C52.2712491,8.07300209 51.9479353,8.30486861 51.6816782,8.30486861 C51.2062177,8.30486861 50.9970154,7.88329564 50.9970154,7.55658511 C50.9970154,7.08232819 51.1967094,6.60805284 51.9003898,6.39728018 L52.6516167,6.17595599 M52.6516167,8.12569526 C52.7086687,8.34701945 52.8703283,8.73697468 53.3838241,8.73697468 C53.8497743,8.73697468 54.1921066,8.31540171 54.1921066,8.26271776 C54.1921066,8.1889031 54.106524,8.08354441 54.0684878,8.08354441 C54.0114358,8.08354441 53.973395,8.25216623 53.7737019,8.25216623 C53.4028436,8.25216623 53.3933333,7.84114479 53.3933333,7.35633634 L53.3933333,5.78600076 C53.3933333,4.28944298 52.6516158,4.0048833 51.9574446,4.0048833 C51.1776917,4.0048833 50.3884268,4.60562041 50.3884268,5.17473055 C50.3884268,5.42768171 50.5025373,5.54360114 50.721248,5.54360114 C50.9970154,5.54360114 51.1396537,5.33281926 51.1396537,5.19580598 C51.1396537,5.12208346 51.1301435,5.04825958 51.1111231,5.00610874 C51.1016129,4.97450021 51.0921026,4.91122786 51.0921026,4.79531765 C51.0921026,4.46860712 51.5200176,4.35267847 51.8813666,4.35267847 C52.2046786,4.35267847 52.6516121,4.5318426 52.6516121,5.72276528 C52.6516121,5.79648779 52.6230815,5.83870314 52.5945601,5.84923624 L51.7767691,6.07056044 C50.8638863,6.32350238 50.2077514,6.88207942 50.2077514,7.59873596 C50.2077514,8.43133958 50.7402666,8.73697468 51.4059108,8.73697468 C51.8433332,8.73697468 52.0240086,8.65265456 52.4424125,8.2943355 L52.6325972,8.12569526 L52.6516176,8.12569526 M56.266143,4.11026963 C56.1330139,4.11026963 56.0949777,4.2367406 56.0949777,4.32106073 L56.0949777,4.4580648 C56.0949777,4.5107764 56.1044879,4.52128185 56.1425288,4.52128185 L56.7035718,4.52128185 L56.7035718,7.69357075 C56.7035718,8.44185425 56.9983568,8.73695625 57.4357801,8.73695625 C57.8732025,8.73695625 58.3486629,8.50508973 58.7195222,8.04136592 C58.7005018,7.93597959 58.6434498,7.8727441 58.548357,7.862211 C58.3011174,8.07298366 58.0158408,8.15729457 57.7686022,8.15729457 C57.5118544,8.15729457 57.4547987,7.84112636 57.4547987,7.18769609 L57.4547987,4.52128185 L58.4437558,4.52128185 C58.5388467,4.52128185 58.6719758,4.47907572 58.6719758,4.38427778 L58.6719758,4.1734959 C58.6719758,4.13128977 58.6434452,4.11027885 58.5959034,4.11027885 L57.4547996,4.11027885 L57.4547996,3.69925742 C57.4547996,3.0142094 57.4928312,2.59264565 57.4928312,2.59264565 C57.4928312,2.51892314 57.4547996,2.48725011 57.3692114,2.48725011 L56.8176786,2.77180979 C56.7606266,2.80341831 56.6750403,2.82452138 56.6845486,2.89828075 C56.703569,3.14068037 56.703569,3.2355336 56.703569,4.11027885 L56.2661457,4.11027885 M59.2515075,1.76004203 C58.9662318,1.76004203 58.8331028,1.94974849 58.8331028,2.1183703 C58.8331028,2.28700133 58.8806538,2.51885863 59.2705261,2.51885863 C59.3465985,2.51885863 59.4036542,2.60317876 59.4036542,2.74018283 C59.4036542,2.98258245 59.2039602,3.37253767 58.8045749,3.4673909 L58.852126,3.64654582 C59.5177693,3.5622257 59.8220645,2.90881386 59.8220645,2.52941017 C59.8220645,2.14998804 59.6128612,1.76004203 59.2515121,1.76004203 M61.8980987,4.00491095 C62.5922699,4.00491095 63.3339884,4.28947063 63.3339884,5.78602841 L63.3339884,7.35636399 C63.3339884,7.84117244 63.3434986,8.25219387 63.714356,8.25219387 C63.9140491,8.25219387 63.9520899,8.08357206 64.0091419,8.08357206 C64.047179,8.08357206 64.1327617,8.18893074 64.1327617,8.26274541 C64.1327617,8.31542936 63.7904303,8.73700233 63.3244791,8.73700233 C62.8109824,8.73700233 62.6493228,8.3470471 62.5922708,8.1257229 L62.5732504,8.1257229 L62.3830666,8.29435393 C61.9646618,8.6526822 61.7839864,8.73700233 61.346564,8.73700233 C60.6809207,8.73700233 60.1484045,8.43136722 60.1484045,7.5987636 C60.1484045,6.88210707 60.8045395,6.32353002 61.7174223,6.07058809 L62.5352142,5.84926389 C62.5637356,5.83873079 62.5922662,5.79651543 62.5922662,5.72279292 C62.5922662,4.53187025 62.1453336,4.35270611 61.8220208,4.35270611 C61.4606717,4.35270611 61.0327568,4.46863476 61.0327568,4.79534529 C61.0327568,4.91125551 61.042267,4.97452786 61.0517772,5.00613638 C61.0707976,5.04828723 61.0803078,5.12211111 61.0803078,5.19583362 C61.0803078,5.33283769 60.9376695,5.54362879 60.661903,5.54362879 C60.4431914,5.54362879 60.3290809,5.42770014 60.3290809,5.1747582 C60.3290809,4.60563884 61.1183458,4.00491095 61.8980987,4.00491095 Z M65.8783633,4.0048833 C66.5725345,4.0048833 67.314253,4.28944298 67.314253,5.78600076 L67.3145819,7.46675189 C67.3178542,7.90194678 67.3522907,8.25216623 67.6946206,8.25216623 C67.8943137,8.25216623 67.9323545,8.08354441 67.9894065,8.08354441 C68.0274436,8.08354441 68.1130263,8.1889031 68.1130263,8.26271776 C68.1130263,8.31540171 67.7706948,8.73697468 67.3047437,8.73697468 C66.791247,8.73697468 66.6295874,8.34701945 66.5725354,8.12569526 L66.553515,8.12569526 L66.3633312,8.2943355 C65.9449264,8.65265456 65.764251,8.73697468 65.3268286,8.73697468 C64.6611853,8.73697468 64.1286691,8.43133958 64.1286691,7.59873596 C64.1286691,6.88207942 64.784805,6.32350238 65.6976869,6.07056044 L66.5154788,5.84923624 C66.5440002,5.83870314 66.5725308,5.79648779 66.5725308,5.72276528 C66.5725308,4.5318426 66.1255982,4.35267847 65.8022853,4.35267847 C65.4409363,4.35267847 65.0130214,4.46860712 65.0130214,4.79531765 C65.0130214,4.91122786 65.0225316,4.97450021 65.0320418,5.00610874 C65.0510622,5.04825958 65.0605724,5.12208346 65.0605724,5.19580598 C65.0605724,5.33281926 64.9179341,5.54360114 64.6421676,5.54360114 C64.423456,5.54360114 64.3093455,5.42768171 64.3093455,5.17473055 C64.3093455,4.60562041 65.0986104,4.0048833 65.8783633,4.0048833 Z M62.5922708,6.17598363 L61.8410439,6.39730783 C61.1373635,6.60808049 60.9376704,7.08235584 60.9376704,7.55661276 C60.9376704,7.88332328 61.1468728,8.30489625 61.6223323,8.30489625 C61.8885903,8.30489625 62.2119032,8.07302974 62.4591418,7.85170554 C62.5352188,7.78847006 62.5922708,7.71470147 62.5922708,7.5776974 L62.5922708,6.17598363 Z M66.5725354,6.17595599 L65.8213085,6.39728018 C65.1176281,6.60805284 64.917935,7.08232819 64.917935,7.55658511 C64.917935,7.88329564 65.1271373,8.30486861 65.6025969,8.30486861 C65.868854,8.30486861 66.1921678,8.07300209 66.4394073,7.8516779 C66.5154834,7.78844241 66.5725354,7.71467382 66.5725354,7.57766975 L66.5725354,6.17595599 Z M62.2594487,1.53871784 C62.3165044,1.53871784 62.5637429,1.54926016 62.7824546,1.78112667 L62.8109852,1.89704611 L61.7174269,3.04581793 C61.5747886,3.20386057 61.4987125,3.2460667 61.4321503,3.2460667 C61.3655844,3.2460667 61.2990222,3.18277593 61.2990222,3.10905342 C61.2990222,2.99312477 61.327551,2.9509647 61.4036234,2.81396063 L62.1263196,1.55982091 C62.1548475,1.54931545 62.2118977,1.53871784 62.2594487,1.53871784 Z M71.0472817,7.3247186 C71.0472817,7.52496737 71.0282613,7.60928749 70.8951351,7.73575846 C70.5432953,8.07300209 70.2390001,8.24163312 70.0012708,8.24163312 C69.4877742,8.24163312 68.955259,7.6198206 68.955259,6.30242696 C68.955259,5.54360114 69.0883871,5.12203739 69.2310254,4.90072241 C69.5258095,4.40537163 69.9251975,4.37376311 70.1153804,4.37376311 C70.4577108,4.37376311 70.6954429,4.51076718 70.8856258,4.7531668 C71.0187548,4.92178861 71.0472817,4.99556642 71.0472817,5.32227695 L71.0472817,7.3247186 M70.9426806,8.10461983 C70.9807122,8.0624137 71.056792,8.04140278 71.056792,8.11521745 C71.056792,8.36815938 71.1613922,8.73702997 71.1613922,8.73702997 C71.2374646,8.7686385 71.2659934,8.75804089 71.3420677,8.73702997 C71.5512691,8.54732352 71.91262,8.38924402 72.4926807,8.315457 C72.5497327,8.25223995 72.5497327,8.09414202 72.4926807,8.03090654 C71.8840931,7.97819494 71.7985095,7.7779646 71.7985095,7.2615384 L71.7985095,2.48729618 C71.7985095,1.80225739 71.8365411,1.38069363 71.8365411,1.38069363 C71.8365411,1.30687897 71.7985095,1.27529809 71.7129214,1.27529809 C71.4751921,1.38069363 70.7620014,1.52823081 70.3816338,1.55984855 C70.3626134,1.64416867 70.3816338,1.81279971 70.4386858,1.87603519 C70.9331639,1.90764372 71.0472744,1.85493212 71.0472744,2.74023812 L71.0472744,4.08925872 C71.0472744,4.16298123 71.028254,4.18413959 70.9616918,4.18413959 C70.9236602,4.18413959 70.5337777,4.00497546 70.2199733,4.00497546 C69.5923671,4.00497546 69.1739614,4.23683276 68.7935938,4.63732109 C68.3846983,5.0905118 68.1374588,5.71231511 68.1374588,6.49221635 C68.1374588,7.78852535 68.7270306,8.73705762 69.754023,8.73705762 C70.1248813,8.73705762 70.476723,8.52627574 70.9426723,8.10470277 M72.6010593,6.47104877 C72.6010593,7.54604279 73.2571961,8.73697468 74.5979911,8.73697468 C76.0148603,8.73697468 76.6139414,7.43011414 76.6139414,6.37619554 C76.6139414,5.2801261 76.0909337,4.0048833 74.6170096,4.0048833 C73.3332694,4.0048833 72.6010593,5.13257971 72.6010593,6.47104877 M74.5124084,4.35267847 C75.3301994,4.35267847 75.7961505,5.16419745 75.7961505,6.71345761 C75.7961505,8.10461983 75.2160898,8.38917952 74.7691572,8.38917952 C73.780202,8.38917952 73.4188511,7.04015892 73.4188511,6.22864915 C73.4188511,5.31174384 73.713637,4.35267847 74.5124084,4.35267847 M77.1013578,6.47104877 C77.1013578,7.54604279 77.7574937,8.73697468 79.0982897,8.73697468 C80.5151589,8.73697468 81.11424,7.43011414 81.11424,6.37619554 C81.11424,5.2801261 80.5912332,4.0048833 79.1173082,4.0048833 C77.8335671,4.0048833 77.1013578,5.13257971 77.1013578,6.47104877 M79.012707,4.35267847 C79.830497,4.35267847 80.2964491,5.16419745 80.2964491,6.71345761 C80.2964491,8.10461983 79.7163875,8.38917952 79.2694549,8.38917952 C78.2804997,8.38917952 77.9191488,7.04015892 77.9191488,6.22864915 C77.9191488,5.31174384 78.2139347,4.35267847 79.012707,4.35267847 M89.5078374,3.97332085 C89.5839301,3.97332085 89.6314626,4.00483723 89.6314626,4.04704337 C89.6314626,4.04704337 89.593385,4.72154906 89.593385,5.24850836 L89.5933905,7.34584931 C89.5933905,8.22059456 89.6979945,8.26270855 90.2780598,8.30491468 C90.3351026,8.36815017 90.3351026,8.5894928 90.2780598,8.65270985 C89.8691597,8.64220439 89.6314332,8.63160678 89.222534,8.63160678 C88.8041274,8.63160678 88.556887,8.64211224 88.1575027,8.65270985 C88.1355639,8.62840114 88.1220587,8.5807281 88.1169872,8.527655 L88.1071524,8.59828008 L88.0843368,8.65265456 C87.6754459,8.64224125 87.4662389,8.63164364 87.0763602,8.63164364 C86.6959972,8.63164364 86.5058106,8.64205695 86.1064263,8.65265456 C86.0588937,8.58942829 86.0588937,8.36808566 86.1064263,8.30486861 C86.6008997,8.25216623 86.6959972,8.21001538 86.6959972,7.34580324 L86.6959972,5.74384991 C86.6959972,5.42768171 86.6769759,5.14311281 86.5818867,4.93234015 C86.4677772,4.68993131 86.268085,4.55291803 86.0778984,4.55291803 C85.707041,4.55291803 85.3361762,4.78478454 84.9748272,5.17473055 C84.8987538,5.26958378 84.8131712,5.39606396 84.8131712,5.61737894 L84.8131712,7.34580324 C84.8131712,8.20998773 84.8987548,8.25215701 85.3837245,8.30486861 C85.4407949,8.36810409 85.4407949,8.5894375 85.3837245,8.65265456 C84.9843374,8.64224125 84.8131703,8.63164364 84.442312,8.63164364 C84.0334174,8.63164364 83.786177,8.64205695 83.3963001,8.65265456 C83.3392481,8.58942829 83.3392481,8.36808566 83.3963001,8.30486861 C83.9668515,8.25216623 84.0619434,8.21001538 84.0619434,7.34580324 L84.0619434,5.2906592 C84.0619434,4.67939821 83.9573423,4.62671426 83.4438465,4.57400266 C83.4248261,4.51076718 83.4058057,4.34212693 83.4248261,4.27890988 C84.0809602,4.18405665 84.470838,4.08920343 84.737096,3.97326556 C84.813174,3.97326556 84.8512056,4.00487409 84.8512056,4.05758568 C84.8512056,4.05758568 84.846926,4.10121762 84.8409346,4.17083886 L84.8274301,4.33950633 C84.8155423,4.50022716 84.8036546,4.70046903 84.8036546,4.85855313 C84.8036546,5.00610874 84.8702159,4.90075927 84.8987465,4.85855313 C85.4788219,4.14189659 85.935261,4.0048833 86.4012067,4.0048833 C86.7340306,4.0048833 87.0288202,4.13135427 87.1904697,4.36321157 C87.4091482,4.68993131 87.4472259,5.19581519 87.4472259,5.77546766 L87.4472259,7.34580324 C87.4472259,8.20998773 87.5518206,8.25215701 88.0843368,8.30486861 C88.102609,8.32917731 88.1138572,8.37684899 88.1180811,8.42992042 L88.1301089,8.35929012 L88.1575027,8.30491468 C88.7375671,8.2522123 88.8421701,8.22060378 88.8421701,7.34584931 L88.8421701,5.29071449 C88.8421701,4.68997739 88.7375671,4.6372658 88.2240723,4.57404874 C88.2050795,4.51081326 88.1860867,4.34217301 88.2050795,4.27895596 C88.8612117,4.18410273 89.2320691,4.0892495 89.5078374,3.97332085 Z M89.2225276,1.81274441 C89.4792754,1.81274441 89.6789676,2.1078372 89.6789676,2.36076992 C89.6789676,2.59263644 89.4507476,2.8666538 89.1844941,2.8666538 C88.9562741,2.8666538 88.7280458,2.59263644 88.7280458,2.31861907 C88.7280458,2.06567714 88.9943075,1.81274441 89.2225276,1.81274441 Z M92.9174363,7.34580324 C92.9174363,8.22054848 92.8128332,8.26271776 92.2803171,8.30486861 C92.2232743,8.36808566 92.2232743,8.58942829 92.2803171,8.65267299 C92.6796996,8.64205695 92.8984159,8.63164364 93.2977984,8.63164364 C93.6306186,8.63164364 93.7542513,8.64224125 94.1631348,8.65267299 C94.2201776,8.5894375 94.2201776,8.36810409 94.1631348,8.30486861 C93.7732625,8.26266247 93.6686687,8.22054848 93.6686687,7.34580324 L93.6686687,6.39728018 C93.8873665,6.40787779 94.0205001,6.48160031 94.2106858,6.77668387 L94.904857,7.86222022 C95.0950426,8.16785532 95.123564,8.2943355 95.123564,8.43133958 L95.123564,8.59996139 C95.123564,8.63156992 95.1331479,8.65267299 95.1616233,8.65267299 C95.3517997,8.64207538 95.5324844,8.63166207 95.8177536,8.63166207 C96.1125423,8.63166207 96.3122381,8.64225968 96.5975166,8.65267299 C96.6545594,8.58945593 96.6545594,8.36812252 96.5975166,8.30488704 C96.2741973,8.2626809 95.9889189,8.22056692 95.779722,7.86223865 L94.6671387,6.03896113 C94.6385712,5.99675499 94.6195877,5.94408026 94.6195877,5.89140552 C94.6195877,5.84919938 94.6291716,5.81768301 94.6576469,5.78601919 L95.3803395,4.90073162 C95.6561078,4.58456341 95.9508965,4.45808323 96.4263514,4.43700781 C96.4833942,4.37379075 96.4833942,4.15245734 96.4263514,4.08922186 C96.0745107,4.09981947 95.941377,4.11023277 95.5990466,4.11023277 C95.2376957,4.11023277 95.0760498,4.09963516 94.7241999,4.08922186 C94.6671572,4.15243891 94.6671572,4.37377232 94.7241999,4.43700781 C95.2947569,4.46861633 94.9904672,4.86911388 94.8953652,4.97450943 C94.3913797,5.58577963 93.9159155,6.04950345 93.6686871,6.13381436 L93.6686871,2.48725932 C93.6686871,1.80221131 93.7066542,1.38065677 93.7066542,1.38065677 C93.7066542,1.30684211 93.6686871,1.27525201 93.5830308,1.27525201 C93.3453033,1.38065677 92.6321117,1.52819395 92.2517404,1.55981169 C92.2327569,1.64413181 92.2517404,1.81276284 92.3087832,1.87599833 C92.8032677,1.90760686 92.917381,1.85489526 92.917381,2.74020126 L92.917381,7.34582167 M98.8331057,1.55979326 L98.1104131,2.81396063 C98.0343868,2.9509647 98.0058101,2.99312477 98.0058101,3.10905342 C98.0058101,3.18277593 98.0723447,3.2460667 98.1389438,3.2460667 C98.2054783,3.2460667 98.2815784,3.20386057 98.4242222,3.04581793 L99.5177759,1.89704611 L99.4892084,1.78112667 C99.2704922,1.54926016 99.0232453,1.53871784 98.9661933,1.53871784 C98.9186423,1.53871784 98.8615995,1.54931545 98.8330596,1.55982091 M96.6554625,6.47107642 C96.6554625,7.54607044 97.3116021,8.73700233 98.6523934,8.73700233 C100.069257,8.73700233 100.668345,7.43014179 100.668345,6.37622319 C100.668345,5.28015374 100.145339,4.00491095 98.6714138,4.00491095 C97.3876653,4.00491095 96.6554625,5.13259814 96.6554625,6.47107642 M98.5668108,4.35270611 C99.3845962,4.35270611 99.8505593,5.16421588 99.8505593,6.71347604 C99.8505593,8.10464748 99.2704922,8.38920716 98.8235586,8.38920716 C97.8345988,8.38920716 97.4732479,7.04018656 97.4732479,6.2286768 C97.4732479,5.31177149 97.7680366,4.35270611 98.5668108,4.35270611 M102.260576,1.27523358 C102.346241,1.27523358 102.384209,1.30682368 102.384209,1.38063834 C102.384209,1.38063834 102.346241,1.80219288 102.346241,2.48724089 L102.346241,7.34580324 C102.346241,8.22054848 102.450835,8.27326008 103.030902,8.30486861 C103.041274,8.31636597 103.04976,8.33308971 103.05636,8.35313921 L103.080416,8.30486861 C103.650973,8.25216623 103.746057,8.21001538 103.746057,7.34580324 L103.746057,5.2906592 C103.746057,4.67939821 103.641454,4.62671426 103.127958,4.57400266 C103.108975,4.51076718 103.089991,4.34212693 103.108975,4.27890988 C103.765114,4.18405665 104.154996,4.08920343 104.421244,3.97326556 C104.497391,3.97326556 104.535358,4.00487409 104.535358,4.05758568 C104.535358,4.05758568 104.487807,4.54238492 104.487807,4.85855313 C104.487807,5.00610874 104.554341,4.90075927 104.582909,4.85855313 C105.16293,4.14189659 105.619374,4.0048833 106.085318,4.0048833 C106.418148,4.0048833 106.712936,4.13135427 106.874582,4.36321157 C107.093271,4.68993131 107.13133,5.19581519 107.13133,5.77546766 L107.13133,7.34580324 C107.13133,8.20998773 107.235933,8.25215701 107.768449,8.30486861 C107.816,8.36810409 107.816,8.5894375 107.768449,8.65265456 C107.359557,8.64224125 107.15035,8.63164364 106.760469,8.63164364 C106.380107,8.63164364 106.189921,8.64205695 105.790539,8.65265456 C105.742988,8.58942829 105.742988,8.36808566 105.790539,8.30486861 C106.285014,8.25216623 106.380107,8.21001538 106.380107,7.34580324 L106.380107,5.74384991 C106.380107,5.42768171 106.361086,5.14311281 106.266003,4.93234015 C106.15189,4.68993131 105.952194,4.55291803 105.762008,4.55291803 C105.391156,4.55291803 105.020286,4.78478454 104.658935,5.17473055 C104.5829,5.26958378 104.497289,5.39606396 104.497289,5.61737894 L104.497289,7.34580324 C104.497289,8.20998773 104.582872,8.25215701 105.067837,8.30486861 C105.12488,8.36810409 105.12488,8.5894375 105.067837,8.65265456 C104.668454,8.64224125 104.497289,8.63164364 104.126428,8.63164364 C103.717535,8.63164364 103.470289,8.64205695 103.080416,8.65265456 C103.070064,8.64118016 103.061591,8.62449812 103.054996,8.60449867 L103.030902,8.65265456 C102.622,8.64224125 102.384273,8.63164364 101.97538,8.63164364 C101.556977,8.63164364 101.30974,8.64205695 100.910348,8.65265456 C100.853305,8.58942829 100.853305,8.36808566 100.910348,8.30486861 C101.490406,8.27325087 101.595009,8.22054848 101.595009,7.34580324 L101.594935,2.74018283 C101.594935,1.85487683 101.480822,1.90758843 100.986338,1.8759799 C100.929295,1.81274441 100.910311,1.64411338 100.929295,1.55979326 C101.309666,1.52817552 102.022858,1.38063834 102.260576,1.27523358 Z M110.123865,1.55979326 L109.401163,2.81396063 C109.325137,2.9509647 109.29656,2.99312477 109.29656,3.10905342 C109.29656,3.18277593 109.363095,3.2460667 109.429685,3.2460667 C109.496219,3.2460667 109.572329,3.20386057 109.714972,3.04581793 L110.808517,1.89704611 L110.779949,1.78112667 C110.561242,1.54926016 110.314005,1.53871784 110.256943,1.53871784 C110.209392,1.53871784 110.15234,1.54931545 110.123819,1.55982091 M108.735477,5.65955744 C108.916143,4.46863476 109.581793,4.37378154 109.81001,4.37378154 C110.171361,4.37378154 110.599274,4.59510573 110.599274,5.4803933 C110.599274,5.57527418 110.561215,5.62793969 110.456639,5.62793969 L108.735477,5.65955744 M111.226883,7.65145677 C110.875042,8.0519451 110.599274,8.22056692 110.047737,8.22056692 C109.705407,8.22056692 109.306024,7.99925193 109.011245,7.46175032 C108.821059,7.11396437 108.706946,6.62915591 108.706946,6.01787649 L111.236393,6.03897956 C111.350506,6.03897956 111.417069,5.97576251 111.417069,5.85980621 C111.417069,4.97452786 111.13179,4.0260048 109.81001,4.0260048 C108.982714,4.0260048 107.908172,4.90075005 107.908172,6.50270337 C107.908172,7.09289816 108.041305,7.6620083 108.355105,8.06249663 C108.678425,8.4840696 109.125358,8.73701154 109.81001,8.73701154 C110.532712,8.73701154 111.046207,8.36814095 111.426569,7.82009702 C111.398002,7.71471068 111.340959,7.6620083 111.226883,7.6514752 M113.031813,5.62792126 C113.031813,5.39606396 113.117423,5.26958378 113.193468,5.17473055 C113.554819,4.78478454 113.973222,4.55291803 114.353593,4.55291803 C114.543769,4.55291803 114.743474,4.70046442 114.857588,4.93233093 C114.952671,5.14311281 114.971692,5.42768171 114.971692,5.74384991 L114.971692,7.34580324 C114.971692,8.21001538 114.876599,8.25216623 114.382123,8.30486861 C114.334572,8.36808566 114.334572,8.58942829 114.382123,8.65265456 C114.781506,8.64205695 114.971692,8.63164364 115.352054,8.63164364 C115.741935,8.63164364 115.951141,8.64224125 116.360034,8.65265456 C116.407585,8.5894375 116.407585,8.36810409 116.360034,8.30486861 C115.827518,8.25215701 115.722915,8.20998773 115.722915,7.34580324 L115.722915,5.77546766 C115.722915,5.19580598 115.684856,4.68993131 115.466167,4.36321157 C115.304521,4.13135427 115.009723,4.0048833 114.676903,4.0048833 C114.201439,4.0048833 113.697453,4.14188738 113.117395,4.85855313 C113.079336,4.90075927 113.022302,5.00610874 113.022302,4.85855313 L113.031886,2.48724089 C113.031886,1.80219288 113.069946,1.38063834 113.069946,1.38063834 C113.069946,1.30682368 113.031886,1.27523358 112.946331,1.27523358 C112.708595,1.38063834 111.995412,1.52817552 111.615041,1.55979326 C111.596058,1.64411338 111.615041,1.81274441 111.672084,1.8759799 C112.166568,1.90758843 112.280672,1.85487683 112.280672,2.74018283 L112.280672,7.34580324 C112.280672,8.22054848 112.166568,8.26271776 111.615032,8.30486861 C111.557989,8.36808566 111.557989,8.58942829 111.615032,8.65265456 C112.004904,8.64205695 112.252151,8.63164364 112.661035,8.63164364 C113.031905,8.63164364 113.193551,8.64224125 113.592952,8.65265456 C113.649994,8.5894375 113.649994,8.36810409 113.592952,8.30486861 C113.117487,8.26266247 113.031905,8.22054848 113.031905,7.34580324 L113.031905,5.62792126 M118.697286,1.55979326 L117.974585,2.81396063 C117.898558,2.9509647 117.869982,2.99312477 117.869982,3.10905342 C117.869982,3.18277593 117.936516,3.2460667 118.003115,3.2460667 C118.06965,3.2460667 118.14575,3.20386057 118.288394,3.04581793 L119.381947,1.89704611 L119.35338,1.78112667 C119.134664,1.54926016 118.887426,1.53871784 118.830365,1.53871784 C118.782814,1.53871784 118.725762,1.54931545 118.69724,1.55982091 M117.308898,5.65955744 C117.489564,4.46863476 118.155214,4.37378154 118.383431,4.37378154 C118.744782,4.37378154 119.172695,4.59510573 119.172695,5.4803933 C119.172695,5.57527418 119.134728,5.62793969 119.030061,5.62793969 L117.308898,5.65955744 M119.800313,7.65145677 C119.448463,8.0519451 119.172695,8.22056692 118.621168,8.22056692 C118.278828,8.22056692 117.879446,7.99925193 117.584666,7.46175032 C117.394481,7.11396437 117.280367,6.62915591 117.280367,6.01787649 L119.809814,6.03897956 C119.923928,6.03897956 119.99049,5.97576251 119.99049,5.85980621 C119.99049,4.97452786 119.705211,4.0260048 118.383431,4.0260048 C117.556136,4.0260048 116.481602,4.90075005 116.481602,6.50270337 C116.481602,7.09289816 116.614718,7.6620083 116.928527,8.06249663 C117.251846,8.4840696 117.69877,8.73701154 118.383431,8.73701154 C119.106133,8.73701154 119.619629,8.36814095 120,7.82009702 C119.971433,7.71471068 119.91439,7.6620083 119.800313,7.6514752" id="nv-tagline" fill="#000000" fill-rule="nonzero"></path>
    </g>
</svg>