<svg xmlns="http://www.w3.org/2000/svg" width="146" height="22" fill="none"><path fill="#000" d="M3.486 9.033c.044 2.1.067 4.917.067 8.45-.628.994-1.401 1.925-2.32 2.791a54.425 54.425 0 0 1-.09-1.58 90.662 90.662 0 0 1-.056-1.816c-.007-.68-.015-1.217-.022-1.613-.008-.404-.015-1.058-.023-1.962v-1.849c.628-.874 1.442-1.681 2.444-2.42M0 7.653c.613-1.636 1.55-3.283 2.813-4.942.067.27.123.486.168.65.052.165.116.307.19.426.075.12.139.21.191.27.053.059.138.104.258.134.127.03.232.048.314.056h6.086c.508 0 .896.15 1.165.448.276.291.415.691.415 1.2 0 2.965-.598 5.248-1.793 6.847-.598.8-1.383 1.476-2.354 2.028-.971.546-1.92.92-2.847 1.121.082-1.21.378-2.376.886-3.496 1.083-.314 1.909-.677 2.477-1.088.283-.209.519-.523.706-.941a3.26 3.26 0 0 0 .291-1.39l.011-.202c0-.134-.004-.201-.011-.201a.902.902 0 0 0-.37-.673c-.217-.164-.5-.246-.852-.246H0Zm16.509-4.46c.32.5.627 1.098.919 1.793.299.688.534 1.3.706 1.838.179.538.37 1.237.571 2.096.21.852.348 1.439.415 1.76.067.314.176.859.325 1.636.897-.381 1.55-.81 1.961-1.289a2.444 2.444 0 0 0 .628-1.659c0-.799-.348-1.83-1.042-3.093.657-1.218 1.43-2.245 2.32-3.082.373.613.672 1.326.896 2.14.224.808.336 1.645.336 2.511a9.053 9.053 0 0 1-.728 3.598c-1.12 2.555-4.576 4.875-10.367 6.96.366-1.51.848-2.843 1.446-4.001.216-.112.478-.24.784-.381.314-.142.643-.288.987-.438l.616-.268a13.01 13.01 0 0 0-.437-1.648c-.172-.53-.336-.979-.493-1.345a10.853 10.853 0 0 0-.617-1.2 18.685 18.685 0 0 0-.594-.963c-.142-.21-.355-.512-.639-.908a25.887 25.887 0 0 1-.549-.784c.628-1.106 1.48-2.197 2.556-3.273Zm10.389 3.329a9.252 9.252 0 0 1 2.185-3.329c.524 1.069.92 2.051 1.188 2.948.277.889.636 2.282 1.076 4.18.068.27.116.475.146.617.105.455.28.833.527 1.131.254.292.575.438.964.438h.078c.546-.03 1.158-.225 1.838-.583.688-.366 1.207-.744 1.558-1.132.359-.366.538-.807.538-1.323 0-.313-.064-.653-.19-1.02-.135-.388-.423-.702-.864-.941a2.961 2.961 0 0 0-1.434-.359c-.912 0-1.79.333-2.634.998.082-1.36.381-2.552.897-3.575.762-.628 1.647-.942 2.656-.942 1.09 0 1.976.366 2.656 1.099.68.732 1.02 1.755 1.02 3.07 0 .95-.105 1.816-.314 2.6a8.877 8.877 0 0 1-1.008 2.354c-.65 1.084-1.398 1.857-2.242 2.32a7.915 7.915 0 0 1-1.39.628 4.586 4.586 0 0 1-1.434.213 4.24 4.24 0 0 1-1.132-.135 2.014 2.014 0 0 1-.807-.437 3.375 3.375 0 0 1-.538-.661 5.137 5.137 0 0 1-.415-.953c-.127-.403-.239-.788-.336-1.154a55.057 55.057 0 0 0-.392-1.412 23.915 23.915 0 0 0-.516-1.603c-.426-1.21-.986-2.223-1.681-3.037Zm16.43-3.329c2.204 1.681 4.468 3.631 6.792 5.85.284-.425.426-.833.426-1.221 0-.643-.37-1.237-1.11-1.782A9.108 9.108 0 0 1 51.6 3.194c1.031.964 1.547 1.984 1.547 3.06 0 1.188-.65 2.484-1.95 3.889 1.337 1.382 2.294 2.413 2.869 3.093a10.19 10.19 0 0 1-1.681 2.981c-2.339-2.75-4.666-5.14-6.982-7.173-.322.382-.58.792-.774 1.233-.187.441-.28.86-.28 1.256v.123c0 .44.198.661.594.661h1.894c-.291 1.27-.75 2.406-1.378 3.407h-4.17c.083-.448.348-1.098.796-1.95.082-.314.138-.732.168-1.255.03-.53.082-.953.157-1.267.15-.657.359-1.225.628-1.703.269-.486.624-.99 1.065-1.513-1.181-.904-2.044-1.528-2.59-1.872.449-1.21 1.054-2.2 1.816-2.97Zm1.49 16.094a4.662 4.662 0 0 1 .606-1.816h5.447a4.83 4.83 0 0 1-.605 1.816h-1.513v2.118a6.425 6.425 0 0 1-.908.068c-.292 0-.594-.023-.908-.068v-2.118h-2.118ZM57.73 3.194a38.654 38.654 0 0 1 2.33 2.354 2.66 2.66 0 0 1 .707 1.838c0 .538-.146 1.087-.437 1.647-.396.747-.938 1.588-1.625 2.522a5.767 5.767 0 0 1-2.286.908 25.386 25.386 0 0 0 1.434-2.712c.142-.307.213-.572.213-.796 0-.374-.224-.774-.672-1.2L55.623 6.12a9.81 9.81 0 0 1 2.107-2.925ZM64.959 0c.112.112.201.254.269.426.067.164.112.373.134.628.03.246.049.466.056.66.008.195.008.464 0 .808 0 .336.004.586.011.75v.191c0 .172.008.306.023.404.022.09.09.175.201.257.12.083.296.124.527.124h4.91c.694 0 1.041.467 1.041 1.4 0 .546-.056 1.181-.168 1.906a12.596 12.596 0 0 1-.448 2.006c-.12.366-.224.669-.314.908-.082.239-.198.53-.347.874-.15.336-.314.635-.493.897-.18.261-.393.541-.64.84a6.446 6.446 0 0 1-.885.852 9.28 9.28 0 0 1-1.143.796c-1.12.68-2.41 1.113-3.866 1.3.224-1.293.65-2.53 1.277-3.71.18-.06.471-.146.874-.258.404-.12.722-.216.953-.291.24-.082.516-.198.83-.348.313-.156.582-.328.806-.515.576-.493.863-1.267.863-2.32 0-.142-.007-.254-.022-.336a.806.806 0 0 0-.09-.28.45.45 0 0 0-.246-.236 1.189 1.189 0 0 0-.47-.078h-4.506c-.314 0-.53-.068-.65-.202-.12-.142-.18-.415-.18-.818V4.248c0-.344-.03-.587-.09-.729-.06-.15-.25-.392-.571-.728.553-.987 1.338-1.917 2.354-2.791Zm12.417 2.712c.105.396.191.695.258.897.075.194.18.344.314.448a.843.843 0 0 0 .37.168c.12.015.329.023.628.023h2.432c.657 0 1.161.25 1.513.75.358.501.538 1.118.538 1.85l-.023 5.469h1.681c-.314 1.27-.803 2.406-1.468 3.407H74.44c.359-1.24.9-2.376 1.625-3.407h5.088l-.1-3.138c-.053-1.016-.453-1.524-1.2-1.524h-5.189c.56-1.786 1.465-3.434 2.712-4.943m11.242.482a38.655 38.655 0 0 1 2.33 2.354 2.66 2.66 0 0 1 .707 1.838c0 .538-.146 1.087-.437 1.647-.396.747-.938 1.588-1.625 2.522a5.767 5.767 0 0 1-2.287.908 25.385 25.385 0 0 0 1.435-2.712c.142-.307.213-.572.213-.796 0-.374-.224-.774-.673-1.2l-1.77-1.636a9.811 9.811 0 0 1 2.107-2.925Zm8.26-.482c.104.396.19.695.257.897.075.194.18.344.314.448a.843.843 0 0 0 .37.168c.12.015.329.023.628.023h2.432c.657 0 1.161.25 1.513.75.358.501.538 1.118.538 1.85l-.023 5.469h1.681c-.314 1.27-.803 2.406-1.468 3.407h-9.179c.359-1.24.9-2.376 1.625-3.407h5.088l-.1-3.138c-.053-1.016-.452-1.524-1.2-1.524h-5.189c.56-1.786 1.465-3.434 2.713-4.943m11.241.482a38.654 38.654 0 0 1 2.331 2.354c.471.523.706 1.135.706 1.838 0 .538-.146 1.087-.437 1.647-.396.747-.938 1.588-1.625 2.522a5.772 5.772 0 0 1-2.287.908 25.448 25.448 0 0 0 1.435-2.712c.142-.307.213-.572.213-.796 0-.374-.224-.774-.673-1.2l-1.77-1.636a9.8 9.8 0 0 1 2.107-2.925Zm8.921 5.84c.045 2.099.067 4.916.067 8.45a14.451 14.451 0 0 1-2.32 2.79 58.006 58.006 0 0 1-.09-1.58 94.436 94.436 0 0 1-.056-1.816c-.007-.68-.015-1.217-.022-1.613-.007-.404-.015-1.058-.022-1.962v-1.849c.627-.874 1.442-1.681 2.443-2.42m-3.486-1.38c.613-1.636 1.551-3.283 2.813-4.942.068.27.124.486.168.65.053.165.116.307.191.426.075.12.138.21.191.27.052.059.138.104.257.134.127.03.232.048.314.056h6.086c.508 0 .896.15 1.165.448.277.291.415.691.415 1.2 0 2.965-.598 5.248-1.793 6.847-.598.8-1.382 1.476-2.354 2.028-.971.546-1.92.92-2.846 1.121.082-1.21.377-2.376.885-3.496 1.083-.314 1.909-.677 2.477-1.088.284-.209.519-.523.706-.941.194-.418.291-.882.291-1.39l.012-.202c-.001-.134-.004-.201-.012-.201a.901.901 0 0 0-.37-.673c-.216-.164-.5-.246-.851-.246h-7.745Zm16.128-4.46a38.654 38.654 0 0 1 2.331 2.354c.471.523.706 1.135.706 1.838 0 .538-.146 1.087-.437 1.647-.396.747-.938 1.588-1.625 2.522a5.768 5.768 0 0 1-2.286.908 25.43 25.43 0 0 0 1.434-2.712c.142-.307.213-.572.213-.796 0-.374-.224-.774-.672-1.2l-1.771-1.636a9.8 9.8 0 0 1 2.107-2.925Zm7.262 0c.919.725 1.678 1.427 2.275 2.107.65.74.976 1.752.976 3.037v5.436a9.234 9.234 0 0 1-2.388 2.432v-5.537c-.015-1.292-.31-2.204-.885-2.734-.613-.56-1.3-1.113-2.062-1.659.575-1.315 1.27-2.342 2.084-3.082Zm5.806 0c.919.725 1.677 1.427 2.275 2.107.65.74.975 1.752.975 3.037v5.436a9.23 9.23 0 0 1-2.387 2.432v-5.537c-.015-1.292-.31-2.204-.886-2.734-.612-.56-1.3-1.113-2.062-1.659.576-1.315 1.27-2.342 2.085-3.082Z"/></svg>