<svg xmlns="http://www.w3.org/2000/svg" viewBox="0 0 119.21 40"><g fill="#666" stroke="#666" stroke-width=".5"><path d="m-989.81 72.039.983 17.389 6.733.257c1.98.09 3.83-.307 5.272-1.228 1.45-.923 2.49-2.38 2.831-4.355l.004-.003v-.01l1.374-12.05zm4.276 3.612h8.57l-1.02 7.377c-.203 1.15-.696 1.92-1.377 2.411-.684.49-1.57.704-2.572.67h-3.062zM-1008 72.039l.849 2.591 3.002 9.042v.003c.391 1.37 1.56 2.09 2.654 2.568l-5.262 1.828-1.365.557v3.431l2.66-.72 6.832-2.374h.003c2.78-1.01 4.1-2.76 4.542-4.78l.003-.006 1.625-9.795.404-2.345h-3.94l-.28 1.694-1.624 9.669c-.125.467-.306.897-.592 1.28l-.55-.157h-.006c-.27-.063-.585-.344-.855-.733a5.11 5.11 0 0 1-.625-1.324l-2.864-9.022-.487-1.407zM-959.57 71.686c-2.69 0-4.63 1.11-6.492 2.315-.046-.144-.102-.294-.119-.43v-.027l-.49-1.504h-3.706l.809 2.547v.004c.243.907.444 1.93.31 2.931v.007l-.886 9.762-.2 2.218h4.071l.162-1.818.884-9.678c.07-.544-.04-1.09-.158-1.631 1.1-.52 2.89-1.01 4.861-1.014.881 0 1.49.203 1.881.51.391.31.576.72.59 1.224v8.831h-5.089v3.576h9.087V77.133c0-2.71-2.2-5.45-5.515-5.447z" transform="matrix(1.1877 0 0 1.1713 1197.9 -83.67)"/></g><g fill="#464646" stroke="#464646" stroke-width=".5"><path d="M-950.56 72.039v10.149h4.035V72.039zM-943.26 72.039v3.642h12.027l-.993 8.448v.003c-.099.684-.365 1.09-.767 1.424-.405.334-.964.587-1.601.89l-1.822.888 1.5 2.995 1.779-.89c1.12-.56 2.2-1.01 3.078-1.702.855-.674 1.48-1.6 1.7-3.005l.053-.106 1.135-10.365.243-2.222zm0 7.324v16.155h4.035V93.5l.004-14.137zM-924.56 72.039v10.149h4.035V72.039zM-917.28 72.039v17.469h4.035V72.039z" transform="matrix(1.1877 0 0 1.1713 1203.6 -83.67)"/></g><path fill="#010101" d="M10.91 31.395c-.184.246-.371.492-.555.734l-.16.211c-.02.028-.058.067-.078.102-.012.039.047.12.059.156.047.121.09.246.12.375.106.418.118.867.122 1.297 0 .172-.02.406.176.48.23.09.523.063.761.063h1.813c.125 0 .246-.004.355.062.262.156.301.531.305.805 0 .7-.219 1.47-.73 1.98a2.4 2.4 0 0 1-.727.466 7.343 7.343 0 0 1-.899.304c-.09.028-.184.051-.273.074-.04.008-.09.008-.121.032a.322.322 0 0 0-.047.105c-.039.078-.07.16-.105.238-.102.211-.188.422-.282.633-.047.105-.113.22-.136.332.3-.07.605-.21.894-.328.621-.258 1.23-.574 1.735-1.02.234-.21.434-.456.617-.71.383-.523.69-1.1.855-1.727.13-.473.176-.973.125-1.457-.02-.23-.058-.465-.238-.633-.211-.195-.547-.203-.816-.203H11.5c-.07 0-.168.02-.223-.039-.145-.145-.12-.438-.125-.621v-.707c0-.203 0-.402-.05-.602-.04-.129-.09-.309-.192-.402m25.652 0c-.188.238-.367.488-.55.727l-.165.218c-.02.032-.058.067-.07.102-.008.04.05.113.058.152.051.125.09.254.13.383.07.27.081.535.1.809.02.16.02.324.02.484 0 .176-.011.41.184.484.23.086.523.06.766.06h1.789c.105 0 .207-.009.304.03.281.113.34.465.36.727.05.766-.22 1.62-.793 2.148a2.25 2.25 0 0 1-.64.395c-.282.129-.583.23-.884.308-.102.028-.199.055-.3.079-.04.007-.098.011-.125.035a.159.159 0 0 0-.051.11l-.113.26c-.137.313-.281.622-.414.938.3-.07.598-.203.878-.32.59-.238 1.17-.539 1.66-.945.274-.23.5-.5.712-.785.387-.527.695-1.11.863-1.743a4.1 4.1 0 0 0 .125-1.43c-.02-.23-.063-.476-.235-.644-.219-.203-.555-.21-.835-.21h-2.168c-.07 0-.164.019-.223-.04a.37.37 0 0 1-.09-.207 2.345 2.345 0 0 1-.039-.469v-.64c0-.207 0-.41-.05-.614-.04-.133-.09-.3-.192-.402m38.172 1.734c-.25.316-.48.648-.735.961a8.444 8.444 0 0 1-.238.29c-.027.039-.09.085-.105.132-.02.035.02.098.039.133.039.117.07.23.097.348.09.379.141.766.18 1.152.05.543.05 1.09.05 1.637 0 .379 0 .758-.019 1.136-.011.352-.05.707-.05 1.059.215-.148.395-.359.582-.543.046-.055.102-.113.156-.168.031-.027.07-.059.082-.098.047-.109.039-.277.047-.394.02-.266.03-.527.05-.79.051-.737.079-1.48.06-2.222 0-.316-.04-.633-.052-.95h1.535c.305 0 .621-.03.907.099.535.242.758.84.886 1.363.2.84.2 1.71.262 2.57.02.242.02.48.047.723 0 .098 0 .203.02.3.082-.05.129-.128.187-.19.117-.138.23-.282.336-.43.05-.075.145-.172.172-.262.02-.098 0-.211 0-.309.02-.324.02-.652.02-.976-.02-.492-.032-.98-.079-1.473a4.648 4.648 0 0 0-.164-.926 2.197 2.197 0 0 0-1.828-1.515c-.277-.036-.562-.02-.844-.02H74.84l-.047-.434-.02-.203m19.574 0c-.324.395-.68.758-.949 1.196-.09.145-.219.32-.246.488h1.922c.23 0 .48-.027.707.004.168.02.324.074.469.148.277.141.48.402.62.672.298.59.329 1.34.169 1.969a2.462 2.462 0 0 1-.258.637c-.043.062-.082.152-.14.199-.04.031-.138.012-.188.012h-2.496c-.051 0-.141-.016-.188.003-.02.012-.039.051-.05.075l-.118.191c-.105.176-.21.348-.316.52-.051.082-.113.164-.153.254H96.3c.07 0 .2.023.254-.012.09-.055.168-.184.235-.266a6.04 6.04 0 0 0 .515-.742c.121-.207.23-.426.32-.648.47-1.16.528-2.78-.55-3.641-.488-.391-1.08-.422-1.676-.422h-.922l-.09-.422-.031-.215m-86.746.043c-.18.242-.363.484-.543.73-.07.099-.19.212-.226.321.184.086.363.2.542.297.32.176.652.355.926.605.172.156.352.348.39.586.04.242-.07.516-.16.739a7.06 7.06 0 0 1-.523 1.011c-.097.164-.215.32-.304.489.152-.024.305-.094.453-.137.07-.02.18-.035.234-.078.05-.04.09-.117.133-.172.105-.141.207-.281.308-.422.273-.375.551-.75.72-1.184.108-.293.16-.598.07-.898-.082-.254-.254-.48-.434-.672-.301-.32-.648-.578-1.008-.824l-.355-.246c-.07-.047-.141-.11-.22-.149m7.892 1.055c.184.086.359.195.535.293.332.18.668.367.945.621.191.176.367.383.387.653.02.207-.082.434-.153.625-.14.37-.344.723-.55 1.062-.09.156-.215.309-.293.473.156-.024.312-.098.464-.141.07-.02.168-.035.223-.074.063-.043.105-.133.145-.192.102-.133.199-.266.297-.402.277-.383.562-.762.726-1.207.11-.305.152-.613.04-.922a1.902 1.902 0 0 0-.427-.637c-.3-.324-.66-.578-1.02-.828-.128-.09-.261-.18-.39-.27-.039-.026-.109-.101-.152-.097-.02 0-.05.04-.05.055-.048.062-.087.12-.13.183-.133.176-.262.355-.398.536-.059.078-.16.176-.192.27m4.297-1.056c-.203.254-.383.52-.574.778-.05.066-.102.129-.144.191-.02.02-.047.055-.047.078 0 .036.117.075.144.09.152.082.301.164.453.25.332.18.664.371.934.637.137.133.266.289.308.476.06.25-.05.535-.14.762a7.386 7.386 0 0 1-.516 1.008c-.105.168-.238.336-.324.516.156-.051.316-.098.477-.149.07-.02.156-.031.21-.066.06-.04.103-.13.141-.184.098-.129.191-.258.29-.39.28-.38.561-.77.734-1.215.109-.29.164-.602.058-.903-.09-.266-.266-.496-.46-.699-.29-.297-.626-.543-.966-.777-.19-.133-.379-.29-.582-.399m31.746 0c-.168.238-.344.47-.52.703-.077.105-.202.227-.25.348.153.067.294.16.438.238.36.191.72.391 1.028.657.172.152.359.355.394.593.04.262-.078.555-.18.793a9.129 9.129 0 0 1-.523.993c-.09.152-.199.297-.285.453.07-.008.133-.04.195-.059.102-.031.2-.058.301-.09.059-.02.145-.03.195-.066.059-.043.102-.133.145-.192.098-.129.19-.258.285-.39.285-.387.574-.777.738-1.23.09-.25.148-.528.082-.79-.19-.68-.855-1.14-1.406-1.53-.133-.09-.262-.18-.39-.274-.083-.051-.157-.117-.239-.157m2.754 1.051c.184.086.36.195.531.29.332.183.668.366.95.62.19.176.367.387.386.657.012.203-.078.43-.148.617a6.287 6.287 0 0 1-.535 1.043c-.098.164-.227.324-.309.5.156-.024.312-.098.465-.14.066-.02.168-.036.223-.075.058-.043.102-.133.144-.191.098-.133.2-.266.297-.403.273-.375.555-.75.719-1.191.113-.31.16-.625.05-.938-.09-.242-.253-.453-.425-.636-.305-.32-.66-.578-1.024-.829-.129-.09-.258-.18-.39-.27-.04-.026-.105-.101-.153-.097-.02 0-.047.04-.046.055-.051.062-.09.12-.133.184-.133.172-.262.352-.39.527-.063.082-.169.18-.2.277m36.043-1.05c-.168.237-.348.468-.52.703-.082.105-.203.227-.254.347.176.074.344.184.508.278.336.18.672.367.961.617.172.152.36.355.395.593.039.262-.082.555-.18.793a9.129 9.129 0 0 1-.523.993c-.09.152-.2.297-.286.453.07-.008.133-.04.196-.059.097-.031.199-.058.3-.09.06-.02.141-.03.192-.066.062-.043.105-.133.144-.192.102-.129.195-.258.29-.39.284-.387.573-.777.738-1.23.09-.25.145-.528.078-.79-.078-.285-.25-.523-.445-.742-.293-.316-.641-.57-.996-.816a21.376 21.376 0 0 1-.368-.254c-.07-.051-.145-.113-.226-.149m8.976 0-.515.696-.164.222-.09.133c.188.086.367.2.547.297.324.18.652.359.93.613.194.172.374.387.39.657.012.219-.086.465-.168.668-.145.359-.34.703-.539 1.035-.09.148-.211.297-.285.457.152-.02.305-.094.449-.137.07-.02.18-.035.238-.078s.105-.137.149-.195c.097-.133.195-.262.289-.391.277-.387.555-.766.726-1.21.102-.263.152-.556.079-.829-.203-.676-.863-1.13-1.418-1.52a83.64 83.64 0 0 1-.391-.273c-.07-.047-.141-.109-.219-.145m9.344.004c-.102.13-.215.25-.316.38-.207.265-.41.534-.606.812-.102.145-.227.289-.3.445h3.12v5.02c.067-.036.13-.11.188-.16.16-.142.32-.298.465-.454.07-.07.172-.152.207-.242.011-.031 0-.078 0-.113v-4.05h.457l.168-.005.05-.078.09-.195.215-.485.125-.285h-1.094v-.582c-.16.102-.293.25-.421.39-.047.052-.098.153-.16.188-.04.016-.098.004-.133.004h-1.434c-.137 0-.332.04-.445-.05-.113-.086-.13-.25-.145-.383 0-.043 0-.121-.02-.157m-107.49.008c-.151.137-.308.262-.453.406a4.636 4.636 0 0 0-.546.696c-.079.117-.168.246-.223.379.12.043.23.074.332.156.289.246.195.707.195 1.039 0 .5-.011 1-.011 1.5 0 .355 0 .711.07 1.062.07.31.18.613.387.856.058.066.137.184.226.215.078.023.195.004.274.004h3.398c.07 0 .211.023.27-.012.05-.035.102-.094.144-.14.148-.146.273-.313.39-.481.118-.176.259-.38.321-.586.043-.11.02-.238.043-.352.02-.254.039-.508.047-.761.02-.56.031-1.12-.028-1.676-.05-.5-.145-1.05-.55-1.402-.406-.348-.953-.32-1.453-.32H1.279l-.031-.427-.02-.156m69.66 0-.437.637-.27.39c.277.157.531.36.793.536.285.195.586.359.754.668.141.258.148.55.149.836 0 .199 0 .398.011.597.02.48.02.961.028 1.446.011.55.043 1.11.043 1.66.086-.043.18-.164.242-.235a5.36 5.36 0 0 0 .418-.52c.047-.062.109-.136.133-.21v-1.016c.02-.285 0-.574 0-.859 0-.441.011-.883.011-1.324 0-.41.047-.867-.171-1.235-.156-.262-.426-.414-.665-.593-.23-.168-.46-.332-.69-.5-.126-.094-.247-.203-.384-.278M43.9 34.664c.145.055.273.09.383.212.141.152.148.352.149.547v.703c0 .453 0 .902-.02 1.355 0 .664.047 1.4.555 1.906.039.036.078.09.125.106.05.012.105.004.148.004h3.637c.05 0 .12.011.16-.012.059-.035.098-.094.145-.14.125-.126.234-.263.335-.403.141-.195.305-.43.375-.66.02-.086.02-.188.032-.273.008-.16.02-.324.039-.489.05-.609.05-1.23 0-1.84-.031-.43-.09-.895-.301-1.277a1.546 1.546 0 0 0-.164-.215c-.355-.402-.906-.422-1.41-.422h-2.836c-.024 0-.063.008-.07-.007-.032-.028-.02-.117-.02-.157 0-.133 0-.285-.04-.414a.511.511 0 0 0-.136.102c-.09.074-.168.152-.25.23a4.788 4.788 0 0 0-.594.723c-.085.133-.184.273-.246.422m38.797 0c.141.055.273.09.383.21.141.153.145.356.145.552v.703c0 .449-.008.898-.008 1.351 0 .668.05 1.4.555 1.906.03.032.078.09.128.106.047.012.105.004.153.004h3.629c.05 0 .12.012.16-.012.058-.035.102-.094.148-.14.121-.125.23-.262.332-.403.141-.195.305-.43.375-.664.024-.082.024-.184.032-.27.02-.16.02-.323.039-.488.05-.613.05-1.23 0-1.847-.028-.426-.09-.891-.301-1.27a1.83 1.83 0 0 0-.168-.223c-.352-.402-.914-.414-1.41-.414h-2.832c-.02 0-.059.008-.078-.007-.02-.028-.012-.117-.012-.157 0-.133 0-.285-.04-.414-.05.024-.089.067-.132.102a4.788 4.788 0 0 0-.844.953c-.09.133-.184.273-.25.422M30.322 33.2c-.184.273-.352.559-.535.832-.047.07-.086.145-.137.215-.011.023-.05.062-.05.09 0 .054.09.129.117.172.09.125.184.254.261.39.2.355.332.742.375 1.149 0 .093.02.195.008.289-.027.426-.16.84-.273 1.25-.141.52-.277 1.04-.422 1.558-.05.156-.082.312-.129.469-.031.102-.07.211-.078.316.086-.046.172-.133.25-.199.156-.137.316-.27.46-.418.09-.082.204-.168.267-.27.05-.07.058-.18.09-.257.07-.215.132-.43.199-.645.207-.652.398-1.31.66-1.945.215-.523.516-1.12 1.054-1.387.52-.258 1.11-.05 1.461.38.461.57.645 1.35.696 2.062.011.262.03.527.011.789 0 .109 0 .238-.09.324-.07.066-.155.078-.242.086-.148.008-.3.004-.445.004h-1.746c-.05 0-.121-.016-.164.004-.031.012-.04.055-.063.082-.039.058-.078.12-.117.18l-.34.503c-.058.086-.137.176-.172.274h3.13c.058 0 .187.023.234-.012.039-.027.058-.082.09-.117.07-.098.129-.203.183-.305.117-.219.258-.445.336-.68.05-.151.05-.331.07-.488.098-.973.121-2.02-.23-2.949-.211-.559-.582-1.06-1.168-1.265a1.496 1.496 0 0 0-.414-.082 1.77 1.77 0 0 0-.477.019c-.574.125-.992.594-1.293 1.063a4.222 4.222 0 0 0-.367.722c-.039.082-.047.234-.152.235 0-.176.02-.344 0-.516-.059-.465-.246-.902-.461-1.313-.078-.14-.148-.277-.23-.41-.04-.066-.083-.145-.133-.199m83.688 0c-.184.27-.355.547-.528.82-.05.07-.09.145-.14.215-.012.028-.051.067-.051.098 0 .05.09.133.117.172.105.148.207.297.297.453.223.398.37.895.355 1.355-.02.496-.195.996-.324 1.473-.199.715-.383 1.43-.59 2.148.23-.14.43-.355.63-.535.077-.07.151-.145.226-.218a.467.467 0 0 0 .129-.137c.039-.063.05-.156.078-.23l.176-.56c.19-.604.37-1.22.593-1.816.23-.605.54-1.31 1.149-1.629.508-.262 1.1-.058 1.449.352.48.57.664 1.38.715 2.102.02.254.02.508.02.765 0 .11 0 .242-.09.328-.09.094-.228.098-.348.098h-2.121c-.043 0-.102-.012-.133.004-.031.012-.05.05-.063.074-.046.063-.078.125-.125.188-.109.168-.223.336-.336.504-.058.085-.137.176-.175.273h3.132c.051 0 .191.023.235-.012.039-.023.058-.074.078-.11.062-.093.121-.19.176-.288.086-.164.18-.336.258-.508.027-.066.078-.133.09-.203.046-.156.046-.332.07-.492.097-.977.125-2.05-.25-2.98-.22-.54-.574-1.02-1.145-1.22a1.398 1.398 0 0 0-.422-.085 1.653 1.653 0 0 0-.57.042c-.52.148-.914.586-1.187 1.024-.148.234-.273.48-.375.738-.043.082-.051.234-.157.235 0-.188.02-.367-.008-.555-.07-.477-.266-.934-.496-1.352-.102-.172-.188-.383-.32-.531m-10.855.023a3.29 3.29 0 0 0-.918 1.102c-.078.145-.16.328-.176.488h2.625c.18 0 .348 0 .508.094.45.266.551.887.606 1.356.058.555.039 1.12.046 1.675.012.688.051 1.38.051 2.063.059-.035.11-.094.164-.145.164-.145.305-.316.434-.488.05-.07.148-.164.172-.25.02-.043 0-.094 0-.133v-1.164c0-.875.07-1.78-.125-2.64-.098-.445-.29-.902-.672-1.18-.312-.223-.68-.234-1.043-.235h-1.3c-.083 0-.173.012-.24-.043-.147-.12-.07-.344-.132-.5m-41.672.012c-.211.227-.414.461-.625.688a8.336 8.336 0 0 1-.187.203c-.02.027-.07.058-.079.094 0 .027.012.066.02.093.02.067.039.137.05.207.06.25.118.5.145.758.02.16.031.324 0 .485-.125.492-.582.812-.957 1.109-.039-.266-.14-.531-.207-.79-.145-.565-.293-1.13-.441-1.694-.07-.262-.13-.527-.238-.778a1.027 1.027 0 0 0-.208-.336c-.199.23-.37.492-.554.739-.051.062-.09.125-.14.187-.02.02-.048.05-.048.078 0 .031.04.074.059.102.05.086.098.172.137.258.129.262.215.547.296.824.297 1.03.52 2.07.817 3.101.12.406.254.938.707 1.102.227.082.477.059.707.02.566-.094 1.1-.387 1.559-.723.34-.25.648-.54.914-.867a4.47 4.47 0 0 0 .859-1.664c.109-.41.141-.828.129-1.25a6.841 6.841 0 0 0-.305-1.907c-.09.067-.156.184-.226.27-.152.188-.305.375-.461.559l-.176.21c-.02.028-.063.06-.07.09-.02.051.05.156.07.207.047.16.098.32.133.485.078.37.12.742.136 1.12 0 .22 0 .439-.062.65-.121.386-.406.687-.711.945-.344.293-.711.559-1.125.742a2.192 2.192 0 0 1-.61.176c-.097.007-.198.023-.285-.028-.133-.07-.207-.23-.253-.367-.09-.262-.148-.531-.223-.8.078-.032.133-.098.195-.145.141-.11.273-.227.41-.348.59-.527 1.05-1.21 1.102-2.016.02-.316 0-.633-.07-.945a7.532 7.532 0 0 0-.114-.578c-.02-.078-.02-.195-.07-.266m4.7 3.836c.14-.21.272-.43.413-.64.04-.051.07-.102.102-.157.02-.015.039-.043.031-.062-.012-.04-.129-.086-.164-.106a2.075 2.075 0 0 1-.394-.293c-.398-.402-.254-1.08.132-1.433.07-.063.242.043.325.074.309.121.617.25.91.414.227.13.445.266.652.426.078.059.18.129.234.207.04.055.047.145.06.21.05.173.077.349.105.524.078.461.109.938.09 1.407-.012.273-.06.543-.09.812H65.42l-.078.004-.051.074-.106.2-.293.5-.16.265h3.938c.02 0 .058.008.078-.008.039-.023.058-.094.078-.133.062-.102.12-.207.176-.312.082-.148.164-.297.242-.45a.94.94 0 0 0 .12-.265c.032-.098.02-.215.032-.312.02-.188.027-.371.051-.555a12.15 12.15 0 0 0 0-1.848 9.004 9.004 0 0 0-.05-.457c0-.066 0-.148-.04-.21-.039-.083-.117-.157-.18-.223a3.01 3.01 0 0 0-.464-.422 6.459 6.459 0 0 0-1.371-.809 4.122 4.122 0 0 0-.649-.238c-.047-.008-.066.015-.101.039-.07.043-.13.094-.192.144-.262.227-.469.504-.672.782a3.472 3.472 0 0 0-.21.328c-.286.492-.587 1.18-.274 1.722.133.227.344.383.558.528.102.066.2.133.301.195.051.027.09.063.133.078m-42.801-3.797c-.215.277-.402.578-.598.871-.047.082-.102.16-.152.243-.012.027-.05.066-.062.101 0 .043.05.11.082.145.066.109.12.227.171.343.176.406.31.824.426 1.25.176.641.32 1.3.469 1.946.078.359.137.785.367 1.09.23.305.66.348 1.02.347.879 0 1.7-.348 2.312-.965.805-.8 1.28-1.87 1.25-3 0-.43-.066-.867-.281-1.254-.398-.723-1.29-.922-2.063-.812-.176.023-.348.07-.511.133-.059.023-.141.047-.188.09a.283.283 0 0 0-.047.097c-.03.082-.062.168-.101.254-.117.31-.238.621-.344.938.07-.024.129-.07.187-.106.102-.055.203-.109.305-.156.277-.133.566-.215.867-.242.102-.008.2 0 .293.02.723.14.938.952.996 1.573.04.363.012.742-.113 1.09-.25.684-.918 1.13-1.621 1.27a2.918 2.918 0 0 1-.902.047c-.125-.016-.266-.043-.352-.137-.082-.086-.102-.227-.133-.332-.078-.27-.129-.547-.187-.82-.195-.934-.41-1.87-.606-2.801-.07-.32-.148-.625-.297-.918-.046-.098-.109-.234-.195-.305m-22.145 1.54h2.453c.344 0 .758-.071 1.04.175.155.141.241.34.308.535.148.438.152.895.184 1.348.02.34.011.695 0 1.035 0 .156 0 .336-.11.457-.078.086-.199.09-.312.09H2.225c-.246 0-.621.05-.79-.168-.09-.109-.116-.25-.136-.387-.028-.219-.02-.445-.02-.668v-2.418m43.93 0h2.422c.344 0 .766-.07 1.051.16.18.145.273.371.34.586.145.461.176.97.176 1.446v.937c0 .148 0 .31-.11.422-.078.086-.199.09-.308.09h-2.625c-.25 0-.617.047-.793-.172a.83.83 0 0 1-.13-.383c-.03-.219-.019-.445-.019-.668v-2.418m38.797 0h2.426c.344 0 .762-.07 1.047.16.18.145.273.371.34.586.145.461.176.97.176 1.446v.937c0 .148 0 .31-.11.422-.082.086-.199.09-.312.09h-2.621c-.25 0-.621.047-.793-.172a.83.83 0 0 1-.13-.383c-.03-.219-.011-.445-.011-.668z"/></svg>