<svg xmlns="http://www.w3.org/2000/svg" width="120" height="13"><path fill="#000" fill-rule="nonzero" d="M54.064 3.401c.019 0 .037.006.047.018l.008.022-.04 1.063h.04c.626-.93 1.348-1.063 1.783-1.063 1.32 0 2.287 1.302 2.287 2.71 0 1.076-.34 1.9-.953 2.511-.53.518-1.184.744-1.905.744-.42 0-.75-.078-1.06-.218l-.152-.074v2.298c0 .338.124.49.463.544l.109.014.258.027c.051.01.095.027.113.063l.01.043v.252l-.027.027-.724-.018a34.236 34.236 0 0 0-1.784.008l-.365.01-.027-.027v-.252c0-.05.023-.077.063-.093l.046-.013.259-.027c.396-.036.555-.16.581-.462l.004-.096V5.008c0-.613-.093-.773-.257-.815l-.043-.008-.585-.053-.027-.32c.966-.145 1.484-.265 1.878-.411ZM71.084 0c.097 0 .152.026.17.083l.006.05s-.04.531-.04 1.395v6.338c.008.496.064.597.278.63l.715.073.041.306c-.76.131-1.32.284-1.644.488l-.098.07h-.313l.027-.93-.027-.014c-.627.492-1.307.917-1.852.917-1.47 0-2.287-1.196-2.287-2.83 0-.983.327-1.767.912-2.338.545-.505 1.144-.797 2.042-.797.238 0 .727.091 1.055.23l.13.062v-1.94c0-.805-.119-1.01-.356-1.033l-.488-.03c-.031 0-.062-.014-.075-.039l-.007-.027-.027-.319c.558-.04 1.497-.212 1.837-.345Zm26.132 0c.122 0 .177.04.177.133l-.02.374c-.011.24-.021.589-.021 1.02v2.645c.463-.492 1.007-.731 1.66-.731 1.185 0 2.383.996 2.383 2.617 0 2.112-1.593 3.348-2.981 3.348-.586 0-1.021-.16-1.416-.492a3.48 3.48 0 0 1-.45.519c-.136 0-.204-.014-.285-.067.054-.292.068-.518.068-1.036V1.794c0-.806-.119-1.01-.356-1.034l-.488-.03c-.03 0-.062-.014-.075-.039l-.007-.027-.027-.319c.544-.04 1.497-.212 1.838-.345Zm8.33 3.44c1.797 0 2.22 1.197 2.22 2.313 0 .121-.067.197-.176.219l-.07.006h-3.58c0 1.98 1.17 2.777 1.933 2.777.749 0 1.225-.24 1.702-.744.15.013.231.08.272.213-.517.69-1.32 1.182-2.3 1.182-1.866 0-2.696-1.249-2.696-2.777 0-2.019 1.402-3.188 2.695-3.188Zm11.31 0c.956 0 1.926.334 1.996 2.043l.004.203v1.98c0 .61.014 1.155.545 1.155.327 0 .368-.212.45-.212.054 0 .149.106.149.2 0 .066-.463.597-1.13.597-.618 0-.867-.361-.976-.64l-.045-.13h-.027l-.272.212c-.6.452-.858.558-1.484.558-.953 0-1.688-.385-1.688-1.435 0-.856.818-1.533 2.016-1.873l.203-.053 1.17-.28c.041-.012.082-.066.082-.159 0-1.5-.64-1.767-1.103-1.767-.517 0-1.13.186-1.13.598 0 .117.01.192.02.237l.008.029c.027.053.04.146.04.24 0 .172-.204.438-.598.438-.313 0-.477-.147-.477-.465 0-.718 1.13-1.475 2.246-1.475Zm-54.49 0c1.797 0 2.219 1.197 2.219 2.313 0 .121-.066.197-.175.219l-.07.006h-3.58c0 1.98 1.17 2.777 1.933 2.777.748 0 1.225-.24 1.701-.744.15.013.232.08.273.213-.518.69-1.32 1.182-2.301 1.182-1.865 0-2.695-1.249-2.695-2.777 0-2.019 1.402-3.188 2.695-3.188Zm17.471 0c.957 0 1.927.334 1.997 2.043l.004.203v1.98c0 .61.014 1.155.545 1.155.326 0 .367-.212.449-.212.054 0 .15.106.15.2 0 .066-.463.597-1.13.597-.619 0-.867-.361-.977-.64l-.044-.13h-.027l-.273.212c-.599.452-.857.558-1.484.558-.952 0-1.688-.385-1.688-1.435 0-.856.819-1.533 2.016-1.873l.203-.053 1.171-.28c.041-.012.082-.066.082-.159 0-1.5-.64-1.767-1.103-1.767-.517 0-1.13.186-1.13.598l.006.145a.69.69 0 0 0 .013.092l.008.029c.028.053.041.146.041.24 0 .172-.204.438-.599.438-.313 0-.476-.147-.476-.465 0-.718 1.13-1.475 2.246-1.475Zm-41.53 0c1.307 0 2.028.652 2.028 1.356 0 .385-.354.571-.64.571-.285 0-.449-.133-.49-.465l-.024-.169c-.068-.403-.24-.84-.942-.84-.898 0-1.593.863-1.593 2.325 0 1.554.763 2.603 1.81 2.603.586 0 1.212-.345 1.634-.943.123.013.232.067.286.186-.68 1.09-1.402 1.342-2.219 1.342-1.715 0-2.668-1.182-2.668-2.896 0-1.887 1.348-3.07 2.818-3.07Zm-24.067 0c1.797 0 2.22 1.197 2.22 2.313 0 .121-.067.197-.176.219l-.07.006h-3.58c0 1.98 1.17 2.777 1.933 2.777.749 0 1.225-.24 1.702-.744.15.013.231.08.272.213-.517.69-1.32 1.182-2.3 1.182-1.866 0-2.696-1.249-2.696-2.777 0-2.019 1.402-3.188 2.695-3.188Zm34.064 0c2.015 0 2.79 1.608 2.79 2.99 0 1.329-.884 2.976-2.817 2.976-1.824 0-2.79-1.501-2.79-2.856 0-1.82 1.007-3.11 2.817-3.11Zm-20.114 0c1.307 0 2.028.652 2.028 1.356 0 .385-.354.571-.64.571-.285 0-.449-.133-.49-.465l-.024-.169c-.068-.403-.24-.84-.942-.84-.899 0-1.593.863-1.593 2.325 0 1.554.763 2.603 1.81 2.603.586 0 1.212-.345 1.634-.943.123.013.232.067.286.186-.68 1.09-1.402 1.342-2.219 1.342-1.715 0-2.668-1.182-2.668-2.896 0-1.887 1.348-3.07 2.818-3.07Zm-8.66-.039c.017 0 .035.006.046.018l.008.022-.041 1.182h.04c.872-.996 1.525-1.182 2.22-1.182 1.171 0 1.472.839 1.495 1.946l.002.153v2.777c0 .35.124.502.463.557l.109.014.258.026c.051.01.095.028.113.064l.01.043v.252l-.027.027-.86-.021a31.822 31.822 0 0 0-.283-.004h-.56L21.42 9.3l-.027-.027v-.252c0-.05.023-.078.063-.094l.046-.013.19-.026c.397-.06.556-.165.582-.473l.004-.098v-2.87c0-.93-.163-1.368-.885-1.368-.556 0-1.042.194-1.664.86l-.146.162v3.216c0 .35.112.48.47.551l.115.02.19.026c.052.01.087.028.102.064l.007.043v.252l-.027.027-.901-.023a28.184 28.184 0 0 0-.487-.004l-.3.002-1.116.025-.027-.027v-.252c0-.05.023-.078.063-.094l.046-.013.258-.026c.409-.036.558-.16.582-.472l.004-.1V5.009c0-.613-.093-.773-.257-.815l-.043-.008-.585-.053-.027-.32.48-.077c.665-.113 1.086-.214 1.398-.334Zm13.79 0c.018 0 .036.006.046.018l.008.022-.029.813c-.005.197-.01.41-.01.608l-.002 3.455c0 .35.124.502.464.557l.108.014.259.026c.05.01.094.028.113.064l.01.043v.252l-.028.027-.877-.021a33.415 33.415 0 0 0-.282-.004h-.58l-1.133.025-.027-.027v-.252c0-.05.023-.078.063-.094l.045-.013.26-.026c.42-.048.56-.163.581-.473l.003-.098V5.008c0-.613-.092-.773-.256-.815l-.043-.008-.585-.053-.028-.32.49-.077c.679-.113 1.118-.214 1.43-.334ZM89.43 0c.123 0 .177.04.177.133l-.02.373c-.01.241-.02.59-.02 1.022v6.789c0 .35.1.502.457.557l.114.014.327.026a.11.11 0 0 1 .1.062l.009.045v.252l-.027.027-1.136-.025-.564-.001-1.295.026-.014-.027v-.252c0-.05.016-.085.052-.1l.043-.007.327-.026c.409-.036.558-.16.582-.472l.004-.1V1.795c0-.806-.119-1.01-.356-1.034l-.488-.03c-.031 0-.062-.014-.075-.039L87.62.664l-.027-.319C88.15.305 89.09.133 89.43 0ZM3.5.678l.027.026v.253c0 .05-.023.084-.063.099l-.046.007-.354.026c-.512.037-.714.163-.745.47l-.004.088v6.444c0 .374.203.617.536.658l.104.006H4.52c.92 0 1.344-.62 1.618-1.429l.097-.311.408.066c-.15.69-.3 1.475-.354 2.219l-1.62-.027-3.235.002L.027 9.3 0 9.273v-.252c0-.05.03-.085.069-.1l.04-.007.408-.026.224-.022c.33-.043.449-.137.468-.449l.003-.1v-6.67c0-.365-.183-.496-.612-.546L.476 1.09.11 1.063A.11.11 0 0 1 .009 1L0 .957V.704L.027.678l1.075.02c.225.004.442.006.654.006l1.01-.011.733-.015ZM110.917 3.4c.018 0 .036.006.046.018l.008.022-.04 1.196h.04c.354-.519.953-1.196 1.593-1.196.558 0 .762.266.762.611s-.231.558-.585.558a.727.727 0 0 1-.558-.24.39.39 0 0 0-.272-.119c-.15 0-.45.24-.776.691a.78.78 0 0 0-.156.362l-.008.103v2.91c0 .35.124.513.474.56l.112.01.394.027c.051 0 .095.023.113.062l.01.045v.252l-.027.027-.798-.019a38.545 38.545 0 0 0-1.86.008l-.364.01-.014-.026v-.252c0-.05.015-.077.052-.094l.043-.013.259-.026c.408-.036.558-.16.582-.472l.003-.1V5.009c0-.613-.093-.773-.257-.815l-.042-.008-.586-.053-.027-.32.481-.077c.665-.113 1.086-.214 1.398-.334Zm-17.314 0c.028 0 .055.013.055.04l-.023.597c-.006.213-.013.459-.016.695l-.002 3.584c0 .35.124.502.463.557l.109.014.258.026c.051.01.095.028.113.064l.01.043v.252l-.027.027-.878-.021a33.415 33.415 0 0 0-.281-.004h-.581L91.67 9.3l-.027-.027v-.252c0-.05.023-.078.063-.094l.046-.013.259-.026c.42-.048.56-.163.582-.473l.003-.098V5.008c0-.613-.093-.773-.257-.815l-.043-.008-.585-.053-.027-.32.49-.077c.678-.113 1.117-.214 1.43-.334ZM43.22 0c.098 0 .153.026.17.083l.007.05s-.04.531-.04 1.395v6.789c0 .35.1.502.456.557l.115.014.327.026a.11.11 0 0 1 .1.062l.009.045v.252l-.028.027-1.135-.025-.564-.001-1.296.026-.013-.027v-.252c0-.05.015-.085.052-.1l.043-.007.327-.026c.408-.036.558-.16.582-.472l.003-.1V1.795c0-.806-.118-1.01-.355-1.034L41.49.73c-.03 0-.061-.014-.074-.039l-.007-.027-.028-.319C41.94.305 42.88.133 43.22 0Zm31.985 3.401c.027 0 .054.013.054.04l-.026.729c-.008.269-.015.573-.015.838v3.309c0 .35.124.502.464.557l.108.014.259.026c.05.01.094.028.113.064l.01.043v.252l-.028.027-.877-.021a33.415 33.415 0 0 0-.282-.004h-.58L73.27 9.3l-.027-.027v-.252c0-.05.023-.078.063-.094l.045-.013.26-.026c.42-.048.56-.163.581-.473l.003-.098V5.008c0-.613-.092-.773-.257-.815l-.042-.008-.585-.053-.028-.32.49-.077c.679-.113 1.118-.214 1.43-.334Zm-27.05.478c-1.089 0-1.51 1.21-1.51 2.365 0 1.023.517 2.724 1.864 2.724.613 0 1.43-.36 1.43-2.113 0-1.953-.667-2.976-1.784-2.976Zm7.38.173c-.427 0-1.016.328-1.34.933l-.075.156v3.242c.476.545.912.571 1.13.571 1.456 0 1.824-1.355 1.824-2.444 0-1.501-.708-2.458-1.538-2.458Zm43.206-.027-.096.003c-.231.014-.742.086-1.176.45l-.116.105V8.33c.272.332.558.624.98.624 1.293 0 1.906-1.142 1.906-2.657 0-1.288-.667-2.272-1.498-2.272Zm19.11 2.153-1.076.279c-1.008.265-1.32.863-1.32 1.461 0 .412.326.943 1.007.943.38 0 .844-.292 1.198-.571a.41.41 0 0 0 .18-.25l.01-.095V6.178Zm-37.02 0-1.075.279c-1.007.265-1.32.863-1.32 1.461 0 .412.327.943 1.007.943.334 0 .73-.223 1.06-.466l.138-.105a.41.41 0 0 0 .181-.25l.01-.095V6.178ZM68.865 3.906l-.145.005a1.42 1.42 0 0 0-1.12.66c-.205.278-.382.81-.382 1.766 0 1.66.749 2.445 1.484 2.445.319 0 .78-.226 1.316-.62l.182-.138V4.69c-.327-.505-.695-.784-1.335-.784Zm36.682-.013-.096.002c-.368.019-1.165.178-1.433 1.377l-.036.188h2.505c.136 0 .19-.066.19-.186 0-1.116-.64-1.381-1.13-1.381Zm-43.18 0-.096.002c-.368.019-1.165.178-1.433 1.377l-.036.188h2.504c.136 0 .19-.066.19-.186 0-1.116-.639-1.381-1.129-1.381Zm-48.126 0-.096.002c-.368.019-1.165.178-1.433 1.377l-.036.188h2.505c.136 0 .19-.066.19-.186 0-1.116-.64-1.381-1.13-1.381ZM9.096 0c.544 0 .898.518.898 1.315 0 .93-.79 1.568-1.606 1.714-.095-.093-.123-.186-.123-.319.708-.173 1.198-.784 1.198-1.063 0-.305-.231-.385-.49-.411-.245-.04-.599-.173-.599-.585 0-.372.3-.651.722-.651Zm23.652 1.063c.354 0 .654.292.654.638a.655.655 0 0 1-1.307 0c0-.346.3-.638.653-.638Zm41.884 0c.354 0 .654.292.654.638a.655.655 0 0 1-1.307 0c0-.346.3-.638.653-.638Zm18.4 0c.354 0 .653.292.653.638a.655.655 0 0 1-1.307 0c0-.346.3-.638.654-.638Z"/></svg>