<svg viewBox="0 0 118 15" xmlns="http://www.w3.org/2000/svg"><g aria-label="মুক্ত বিশ্বের জন্য মুক্ত বই"><path d="M8.25 4.29H6.9v7.84l-.293-.293q-.6-2.27-2.08-2.75-.333.427-.68.573t-.64.147q-.533 0-.907-.347-.36-.36-.36-.907 0-.627.467-1 .4-.32 1.08-.32.36 0 .587.147 0-.947-.413-1.36-.267-.253-1.03-.467-.4-.12-.693-.24-.28-.133-.467-.253-.28-.187-.693-.747l-.787-.773h7.51zM6.2 9.68V4.29H2.57q1.16.947 1.6 1.56.707.907.707 1.95v.173q0 .08-.013.187.427.36.747.733.333.373.56.787z"/><path d="M8.65 14.86q-.2-.267-.44-.547-.24-.267-.507-.52-.253-.24-.507-.453-.267-.2-.493-.333-.587.827-1.52.893-.573 0-1.01-.307-.427-.32-.427-.84 0-.267.12-.493.107-.213.293-.373.187-.16.44-.253.24-.08.507-.08.427 0 1.09.4.093-.2.08-.613-.027-.4-.12-.893l.627.413q.147.32.173.747.013.427-.013.747.293.253.6.56.32.32.587.627.227.267.32.413.107.16.2.32zm-3.39-2.6q-.747.013-.773.453 0 .347.373.413.32.04.667-.12.307-.2.413-.413-.133-.147-.293-.227-.173-.067-.387-.107zM18.65 4.29H7.95l-.773-.747h10.8zm-.8 3.2q0 .573-.347 1.11-.373.48-1 .547-.173.013-.347-.013-.16-.04-.293-.16-.12-.12-.2-.307-.067-.187-.067-.347-.013-.307.16-.507.227-.213.52-.2.36 0 .587.547h.067q.24 0 .28-.56 0-.467-.253-.76-.24-.293-.68-.293-.507 0-1.07.48-.24.227-.387.48-.147.24-.147.493l.013.093q.533.547.533 1.35 0 .787-.613 1.35-.307.293-.667.427t-.787.133q-2.88 0-4.65-6.44l.533.28.853 2.13q.293.68.587 1.19.293.493.627.827.893.867 2.11.867.64 0 1.01-.32.387-.32.387-.933 0-.333-.36-.707-.333.293-.627.293-.387 0-.64-.253-.24-.253-.24-.64 0-.333.227-.587.24-.267.547-.267.333 0 .667.187.4-.24.4-.667 0-.32-.387-.56-.387-.187-.733-.187-.493 0-.973.227t-.707.627q.44.227.44.733 0 .653-.667.653-.413 0-.68-.28t-.267-.707q0-.907.88-1.57.84-.613 1.75-.613 1 0 1.4.547.36.467.387 1.53.787-.853 1.39-.853.6 0 1.01.507.427.533.427 1.13zM31.05 2.64q-.36-.32-.8-.627-.44-.32-1-.627-.507-.293-1.05-.427-.533-.133-1.11-.133-.84 0-1.72.587-.973.64-1.03 1.43l.293.707h.813l.76.747h-1.31v7.8l-.76-.747V4.3h-1.13l-.733-.747h1.99l-.52-.493q-.293-.293-.293-.6 0-.907 1.01-1.71.987-.747 1.91-.747 2.37 0 4.53 2.24z"/><path d="M31.65 4.29v7.84l-.413-.493q-.04-.12-.107-.24-.053-.133-.227-.453-.16-.32-.467-.693-.307-.387-.573-.64-.96-.88-2.55-1.04l-.973-1.39q2.24-1.56 4.59-2.35v-.547h-5.11l-.733-.747h7.37l.72.747zm-.72 1.76q-.72.267-1.47.64-.733.373-1.55.92 2.01.84 3.01 2.56z"/><path d="M37.55 4.29q-.84.2-1.45.627t-1.04 1.07q-.387.6-.587 1.33-.2.733-.2 1.64.013.8.427 1.44.72 1 1.4.8-.253-.16-.373-.373-.107-.213-.107-.44 0-.347.28-.587.293-.24.64-.24.373 0 .64.307.267.293.267.76 0 .267-.107.493-.107.227-.293.4-.187.16-.44.253-.24.093-.507.093-1.31 0-2-1.31-.587-1.07-.587-2.47 0-1.95 1.59-3.8h-2.48l-.747-.747h4.95z"/><path d="M44.15 13.26q-.44-.2-.853-.827t-.72-.867q-.267-.187-.707-.293-.44-.107-.907-.12l-.733-1.04q.853-.6 1.65-1.12.8-.533 1.55-1.01l.173.173q.12.093.253.24.293.333.293.48zm-.733-4.07q-.333.2-.827.507t-1.12.72q.56.133 1.04.453t.907.88zm.733-4.95v7.85l-.773-.76.053-4.79q0-.467-.507-1.16-.507-.667-.96-.667-.293 0-.573.187-.267.173-.267.44 1.17.84 1.17 1.39 0 .48-.267.787-.253.293-.733.4-.373-.013-.693-.24-.307-.24-.453-.68-.347.933-1.23.933-.4 0-.667-.32-.253-.333-.253-.747 0-.267.094-.52.107-.267.28-.493.187-.227.427-.4t.507-.267q-.533-.947-1.25-.947-.72-.013-.853 0l-.747-.747h1.6q.587 0 1.11.44.52.44.64 1.07.68-1.52 1.88-1.52.413 0 1.08.787.613.733.76 1.2h.04l-.133-3.31.453.427q.12.84.773.907l.747.747z"/><path d="M50.85 4.29v7.84l-.413-.493v.013q-.213-.533-.36-.773-.133-.253-.44-.627-.307-.387-.573-.64-.96-.88-2.55-1.04h.013l-.987-1.39q2.24-1.56 4.59-2.35v-.547h-5.11l-.733-.747h7.35l.747.747zm-.72 1.76q-.72.267-1.47.64-.733.373-1.55.92 2.01.84 3.01 2.56zm-3.16 4.64q0-.333.227-.547.227-.227.547-.227t.547.227q.227.213.227.547 0 .307-.227.547-.227.227-.547.227t-.547-.227q-.227-.24-.227-.547zM66.35 4.29h-4.27q-.187.013-.387.173-.187.147-.213.307 0 .187.147.32.16.133.373.24.213.093.427.147.227.053.347.053.613.054 1.09-.04.48-.107.8-.28l1.13 1.19q-.613.6-.933 1.48t-.32 2.03q0 .867.573 2.13l-.733-.2q-.267-.76-.427-1.51-.16-.747-.173-1.59 0-1.09.48-2.28-1.19 0-1.92-.293-.773-.307-1.47-1.2l-.067-.026q-.187 0-.387.187t-.413.533q-.44.707-.44 1.09 0 .547.587.547.133 0 .347-.067.213-.067.48-.2l.827-.427q.48.213.853.867.187.347.293.667.107.32.107.587 0 .827-.627 1.48-.613.613-1.47.613-1.93 0-2.79-2.09-.307-.76-.467-1.68-.147-.933-.147-2.09l.387.24q-.04.32 0 .787.133 1.32.693 2.2.4.667.907 1.03.52.36 1.15.36.573 0 1.12-.253.72-.32.72-.827 0-.2-.12-.413-.107-.227-.32-.227-.08 0-.6.187-.467.187-.8.187-.747 0-1.24-.6-.507-.587-.507-1.36 0-.453.347-1.05.373-.613.787-.92h-3.28l-.747-.747h9.55z"/><path d="M72.05 4.29v8.03l-.587-.373.053-.787q.014-1.27-.587-2.64-.893-1.56-2.08-1.56-.147.013-.213.067.493.653.493.947 0 .48-.28.813-.28.32-.747.32-1.44 0-1.44-1.4 0-.76.533-1.25.573-.507 1.31-.507 1.57 0 2.77 2.48h.027V4.3h-5.25l-.733-.747h7.27l.773.747z"/><path d="M75.95 4.29q-1.03.04-1.16 1.44-.013 1.01.2 2.07.12.68.187 1.19.067.507.067.853 0 .413-.187.84-.187.413-.52.8-.307.267-.693.48-.373.213-.76.333l-.427-.32q.373-.133.72-.32.347-.2.573-.48.32-.4.32-1.24 0-.267-.08-.64-.067-.387-.213-.88-.293-.973-.293-1.52-.094-1.45 1.16-2.6h-2.17l-.747-.747h3.76l.747.747zM88.15 4.29H86.8v7.84l-.293-.293q-.6-2.27-2.08-2.75-.333.427-.68.573-.347.147-.64.147-.533 0-.907-.347-.36-.36-.36-.907 0-.627.467-1 .4-.32 1.08-.32.36 0 .587.147 0-.947-.413-1.36-.267-.253-1.03-.467-.4-.12-.693-.24-.28-.133-.467-.253-.28-.187-.693-.747l-.787-.773h7.51zM86.1 9.68V4.29h-3.63q1.16.947 1.6 1.56.707.907.707 1.95v.173q0 .08-.013.187.427.36.747.733.333.373.56.787z"/><path d="M88.55 14.86q-.2-.267-.44-.547-.24-.267-.507-.52-.253-.24-.507-.453-.267-.2-.493-.333-.587.827-1.52.893-.573 0-1.01-.307-.427-.32-.427-.84 0-.267.12-.493.107-.213.293-.373.187-.16.44-.253.24-.08.507-.08.427 0 1.09.4.093-.2.08-.613-.027-.4-.12-.893l.627.413q.147.32.173.747.013.427-.013.747.293.253.6.56.32.32.587.627.227.267.32.413.107.16.2.32zm-3.39-2.6q-.747.013-.773.453 0 .347.373.413.32.04.667-.12.307-.2.413-.413-.133-.147-.293-.227-.173-.067-.387-.107zM98.95 4.29h-10.7l-.773-.747h10.8zm-.8 3.2q0 .573-.347 1.11-.373.48-1 .547-.173.013-.347-.013-.16-.04-.293-.16-.12-.12-.2-.307-.067-.187-.067-.347-.013-.307.16-.507.227-.213.52-.2.36 0 .587.547h.067q.24 0 .28-.56 0-.467-.253-.76-.24-.293-.68-.293-.507 0-1.07.48-.24.227-.387.48-.147.24-.147.493l.013.093q.533.547.533 1.35 0 .787-.613 1.35-.307.293-.667.427t-.787.133q-2.88 0-4.65-6.44l.533.28.853 2.13q.293.68.587 1.19.293.493.627.827.893.867 2.11.867.64 0 1.01-.32.387-.32.387-.933 0-.333-.36-.707-.333.293-.627.293-.387 0-.64-.253-.24-.253-.24-.64 0-.333.227-.587.24-.267.547-.267.333 0 .667.187.4-.24.4-.667 0-.32-.387-.56-.387-.187-.733-.187-.493 0-.973.227t-.707.627q.44.227.44.733 0 .653-.667.653-.413 0-.68-.28t-.267-.707q0-.907.88-1.57.84-.613 1.75-.613 1 0 1.4.547.36.467.387 1.53.787-.853 1.39-.853.6 0 1.01.507.427.533.427 1.13zM108.95 4.29v7.84l-.413-.493q-.04-.12-.107-.24-.053-.133-.227-.453-.16-.32-.467-.693-.307-.387-.573-.64-.96-.88-2.55-1.04l-.973-1.39q2.24-1.56 4.59-2.35v-.547h-5.11l-.733-.747h7.37l.72.747zm-.72 1.76q-.72.267-1.47.64-.733.373-1.55.92 2.01.84 3.01 2.56z"/><path d="M116.95 4.29H113q.093.147.2.293.107.133.213.253 1.13.4 1.52.853.6.587.6 1.51 0 .92-.733 1.52-.547.467-1.67.76.76.453 1.61 1.19.867.733 1.87 1.75l.173.773q-.533-.6-1.17-1.12-.64-.533-1.44-1-.76-.427-1.57-.747-.813-.32-1.63-.52l-.893-1.87q.947.52 2.09.613.867.067 1.53-.28.92-.453.88-1.21 0-.24-.08-.467-.067-.227-.213-.4-.133-.173-.32-.28-.187-.107-.427-.107-.107 0-.2.027-.08.026-.187.053 0 .533-.453.973-.467.44-.987.44-.333 0-.613-.2-.28-.213-.28-.547 0-.627.533-1.12.507-.467 1.21-.533 0-.213-.507-.6h-2.4l-.747-.747h5.07q.147 0 .32-.027.173-.04.32-.093.413-.147.413-.44 0-.28-.467-.413-.147-.053-.32-.067-.173-.026-.36-.026t-.467.013q-.267.013-.64.04-.373.027-.653.04-.267.013-.453.013-.84 0-1.55-.413-.813-.48-.813-1.25 0-.16.187-.507.187-.333.347-.307.04 0 .093.014h.107q-.32.227-.32.627 0 .373.4.613.32.2.733.2.16 0 .64-.027l1.29-.107q1.4.027 2.12.56.72.52.653 1.56h.627z"/></g></svg>