<?xml version="1.0" encoding="UTF-8" standalone="no"?>
<svg xmlns="http://www.w3.org/2000/svg" width="106" height="24">
	<g font-family="Kalimati" font-size="23.294" font-weight="400" style="line-height:125%;-inkscape-font-specification:Kalimati;text-align:start">
		<path d="M3.276 9.293H1.592L0 7.723h3.299C2.54 6.608 2.16 5.251 2.16 3.651c0-1.145.444-2.051 1.33-2.718C4.213.394 5.184.125 6.405.125c1.228 0 2.282.137 3.162.41 1.023.31 2.043.856 3.06 1.637 1.759 1.358 3.112 3.257 4.06 5.699h-.58c-.121-.212-.322-.61-.603-1.194-.28-.645-.815-1.346-1.604-2.105-1-.963-1.979-1.649-2.934-2.058-1.153-.493-2.317-.74-3.492-.74-1.084 0-1.98.243-2.684.728-.888.607-1.331 1.403-1.331 2.389 0 1.251.368 2.195 1.103 2.832h2.32l1.593 1.57h-3.31v14.74l-1.888-1.887V9.293"/>
		<path d="M6.87 9.293l-1.547-1.57h15.64l1.535 1.57h-3.833v14.74L16.64 22.01v-4.083c-.568.379-1.22.713-1.956 1-.842.327-1.547.475-2.115.444-1.153-.06-2.15-.618-2.992-1.672-.667-.841-1-1.835-1-2.98.128-.591.348-1.065.659-1.422 1.206-1.137 2.54-1.68 4.004-1.626 1.455.045 2.59.743 3.4 2.093v-4.47H6.87m9.532 4.982c-.243-.516-.994-.774-2.252-.774-1.35 0-2.548.531-3.595 1.593-.508.515-.762 1.042-.762 1.58 0 .713.58 1.07 1.74 1.07 1.456 0 2.78-.614 3.97-1.843.6-.614.899-1.156.899-1.626"/>
		<path d="M22.612 9.293h-1.683l-1.593-1.57h3.299c-.759-1.115-1.138-2.472-1.138-4.072 0-1.145.444-2.051 1.331-2.718.72-.539 1.691-.808 2.912-.808 1.228 0 2.282.137 3.162.41 1.024.31 2.043.856 3.06 1.637 1.759 1.358 3.112 3.257 4.06 5.699h-.58c-.121-.212-.322-.61-.603-1.194-.28-.645-.815-1.346-1.603-2.105-1.001-.963-1.98-1.649-2.935-2.058-1.153-.493-2.317-.74-3.492-.74-1.084 0-1.98.243-2.684.728-.887.607-1.331 1.403-1.331 2.389 0 1.251.368 2.195 1.103 2.832h2.32l1.593 1.57H24.5v14.74l-1.888-1.887V9.293"/>
		<path d="M26.206 9.293l-1.558-1.57h21.258l1.559 1.57H36.943v4.379c.228-.205.395-.345.501-.421.258-.19.512-.318.762-.387a5.386 5.386 0 011.445-.216c1.16 0 2.119.406 2.877 1.217.759.804 1.138 1.794 1.138 2.969 0 .94-.334 1.827-1.001 2.661-.5.645-1.286 1.183-2.355 1.616l-.83-1.616c1.077-.5 1.797-.894 2.161-1.182.804-.63 1.206-1.32 1.206-2.07 0-.675-.315-1.286-.944-1.832-.402-.341-1.028-.47-1.877-.387-.402.038-.895.304-1.479.797a9.217 9.217 0 00-1.603 1.785v7.428l-1.889-1.911v-3.31c-.326.364-.807.679-1.444.944-.637.258-1.21.387-1.718.387-1.1 0-2.04-.376-2.82-1.126-.774-.751-1.16-1.676-1.16-2.776 0-1.122.367-2.047 1.103-2.775.735-.735 1.664-1.103 2.786-1.103 1.426 0 2.51.606 3.253 1.82v.693c-.667-.591-1.433-.887-2.297-.887-1.107 0-1.964.216-2.57.649-.835.591-1.29 1.38-1.366 2.365-.045.622.125 1.123.512 1.502.319.303.758.455 1.32.455.803 0 1.725-.41 2.763-1.229 1.092-.864 1.638-1.69 1.638-2.48v-5.96h-8.849"/>
		<path d="M45.952 9.293l-1.558-1.57H58.94l1.581 1.57h-3.856v14.74l-1.956-1.967v-4.698c-.622.372-1.547.558-2.775.558-1.206-.122-2.222-.667-3.049-1.638-.819-.948-1.228-2.032-1.228-3.253V9.293h-1.706m3.424 4.72c0 .652.178 1.244.534 1.774.41.607.921.91 1.536.91.66 0 1.236-.182 1.729-.546.166-.106.47-.371.91-.796.174-.197.382-.534.625-1.012v-5.05h-5.334v4.72"/>
		<path d="M60.602 9.293h-1.695l-1.558-1.57h3.56a12.866 12.866 0 00-1.57-3.105c-.894-1.312-1.747-1.968-2.559-1.968-.796 0-1.43.326-1.9.978-.424.584-.636 1.29-.636 2.116 0 .516.163 1.122.489 1.82H52.89a5.939 5.939 0 01-.387-2.116c0-1.357.281-2.43.842-3.219.652-.902 1.63-1.353 2.935-1.353 1.395 0 2.616.83 3.662 2.49.539.858 1.187 2.31 1.945 4.357h2.935l1.558 1.57h-3.89V24.01l-1.888-1.888V9.293"/>
		<path d="M66.471 9.293h-1.683l-1.593-1.57h3.299c-.759-1.115-1.138-2.472-1.138-4.072 0-1.175.512-2.1 1.536-2.775C67.779.292 68.844 0 70.088 0c2.358 0 4.55.781 6.574 2.343 2.336 1.805 3.977 3.647 4.925 5.528h-.58c-1.213-1.79-2.6-3.196-4.163-4.22-1.668-1.092-3.598-1.695-5.79-1.808-1.266-.069-2.304.159-3.116.682-.857.561-1.285 1.35-1.285 2.366 0 1.251.368 2.195 1.103 2.832h2.378l1.592 1.57h-3.367v14.74l-1.888-1.876V9.293"/>
		<path d="M80.086 9.293h-10.02l-1.559-1.57H84.67l1.58 1.57h-4.47v4.959l-5.322-.023c-1.434-.008-2.15.334-2.15 1.024 0 .41.114.758.341 1.046.243.311.565.467.967.467.318 0 .792-.05 1.422-.148.629-.106 1.103-.16 1.421-.16 1.092 0 2.029.463 2.81 1.388.75.88 1.126 1.877 1.126 2.992 0 .887-.444 1.656-1.33 2.309-.812.599-1.68.898-2.606.898-1.72 0-3.351-.781-4.89-2.343-1.04-1.054-2.12-2.582-3.242-4.584l.694-.398c.728 1.38 1.611 2.567 2.65 3.56 1.312 1.259 2.593 1.888 3.844 1.888.827 0 1.574-.269 2.241-.807.72-.569 1.08-1.255 1.08-2.059 0-.334-.113-.618-.34-.853a1.112 1.112 0 00-.83-.353c-.342 0-.831.133-1.468.398-.63.258-1.111.387-1.445.387-.864 0-1.626-.447-2.286-1.342-.205-.265-.66-1.08-1.365-2.445-.28-.539-.42-.975-.42-1.308 0-.645.344-1.073 1.034-1.286.387-.121.998-.182 1.832-.182h4.538V9.293"/>
		<path d="M84.67 9.293l-1.559-1.57h15.89l1.581 1.57h-3.878v14.74l-1.854-1.876v-4.129c-.918 1.054-2.093 1.581-3.526 1.581-1.767 0-3.117-.675-4.05-2.024-.606-.88-.91-1.881-.91-3.003.683 0 1.293-.175 1.832-.523.599-.387.951-.899 1.058-1.536.045-.152.068-.413.068-.785 0-1.107-.417-1.922-1.251-2.445H84.67m5.164 5.584c-.433.455-.82.774-1.16.956-.243.129-.592.254-1.047.375.356 1.115 1.115 1.843 2.275 2.184.425.084.697.125.819.125 1.44 0 2.627-.887 3.56-2.661.349-.668.523-1.43.523-2.287V9.293h-4.663c.576.758.864 1.672.864 2.74 0 1.07-.39 2.018-1.171 2.844"/>
		<path d="M100.696 9.293h-1.695l-1.57-1.57h7.462l1.558 1.57h-3.89v14.74l-1.865-1.887V9.293"/>
	</g>
</svg>
