<?xml version="1.0" encoding="UTF-8"?>
<svg width="135px" height="14px" viewBox="0 0 135 14" version="1.1" xmlns="http://www.w3.org/2000/svg" xmlns:xlink="http://www.w3.org/1999/xlink">
    <title>mrj-tagline</title>
    <g id="Page-1" stroke="none" stroke-width="1" fill="none" fill-rule="evenodd">
        <path d="M8.372,8.292 L8.372,2.678 C8.372,1.516 8.61,1.446 9.59,1.404 C9.674,1.32 9.674,1.026 9.59,0.942 C8.974,0.956 8.309,0.97 7.77,0.97 C7.301,0.97 6.622,0.956 5.964,0.942 C5.88,1.026 5.88,1.32 5.964,1.404 C6.72,1.43619983 7.035,1.48660034 7.13859991,2.041 C7.05740009,2.26780017 6.92719983,2.52119983 6.769,2.72 L2.92180017,7.508 C2.81959991,7.61020004 2.73840009,7.65779996 2.674,7.662 L2.674,2.678 C2.674,1.516 2.912,1.446 3.892,1.404 C3.976,1.32 3.976,1.026 3.892,0.942 C3.276,0.956 2.611,0.97 2.072,0.97 C1.603,0.97 0.924,0.956 0.266,0.942 C0.182,1.026 0.182,1.32 0.266,1.404 C1.246,1.446 1.484,1.516 1.484,2.678 L1.484,8.292 C1.484,9.454 1.246,9.524 0.266,9.566 C0.182,9.65 0.182,9.944 0.266,10.028 C0.896,10.014 1.57779996,10 2.086,10 C2.58440009,10 3.262,10.014 3.892,10.028 C3.976,9.944 3.976,9.65 3.892,9.566 C3.12479996,9.53380017 2.81259991,9.482 2.71320004,8.90379996 C2.80979996,8.572 2.94979996,8.45859991 3.11359991,8.25 L6.937,3.49 C7.00559991,3.406 7.077,3.343 7.182,3.308 L7.182,8.292 C7.182,9.454 6.944,9.524 5.964,9.566 C5.88,9.65 5.88,9.944 5.964,10.028 C6.594,10.014 7.27580017,10 7.784,10 C8.28239966,10 8.96,10.014 9.59,10.028 C9.674,9.944 9.674,9.65 9.59,9.566 C8.61,9.524 8.372,9.454 8.372,8.292 Z M12.39,5.366 C12.754,4.918 13.3952,4.498 13.804,4.498 C14.7,4.498 15.47,5.506 15.47,7.088 C15.47,8.236 15.064,9.664 13.496,9.664 C13.244,9.664 12.754,9.594 12.502,9.36859991 C12.2205999,9.11659991 12.166,9.03540009 12.166,8.53 L12.166,5.982 C12.166,5.688 12.2275999,5.56619983 12.39,5.366 Z M12.124,4.848 C12.103,4.428 12.0778,4.06819983 12.012,3.924 C11.9825999,3.85959991 11.956,3.812 11.844,3.812 C11.452,3.966 11.088,4.092 10.122,4.218 C10.094,4.302 10.122,4.526 10.15,4.61 C10.906,4.68 11.06,4.75 11.06,5.562 L11.06,11.54 C11.06,12.702 10.906,12.772 10.052,12.814 C9.968,12.898 9.968,13.192 10.052,13.276 C10.542,13.262 11.06,13.248 11.62,13.248 C12.18,13.248 12.852,13.262 13.314,13.276 C13.398,13.192 13.398,12.898 13.314,12.814 C12.32,12.758 12.166,12.702 12.166,11.54 L12.166,10.028 C12.166,9.846 12.2192,9.86420004 12.362,9.923 C12.705,10.0615999 13.1375999,10.14 13.58,10.14 C14.364,10.14 15.064,9.902 15.638,9.356 C16.296,8.712 16.674,7.844 16.674,6.71 C16.674,5.226 15.624,3.854 14.196,3.854 C13.545,3.854 12.831,4.281 12.278,4.904 C12.1995999,4.99219983 12.131,4.98240009 12.124,4.848 Z M25.844,5.702 C25.844,4.54 25.998,4.498 26.852,4.428 C26.936,4.344 26.936,4.05 26.852,3.966 C26.376,3.98 25.9,3.994 25.284,3.994 C24.682,3.994 24.192,3.98 23.73,3.966 C23.646,4.05 23.646,4.344 23.73,4.428 C24.584,4.484 24.738,4.54 24.738,5.702 L24.738,8.292 C24.738,9.454 24.584,9.496 23.73,9.566 C23.646,9.65 23.646,9.944 23.73,10.028 C24.192,10.014 24.682,10 25.298,10 C25.9,10 26.404,10.014 26.852,10.028 C26.936,9.944 26.936,9.65 26.852,9.566 C25.998,9.51 25.844,9.454 25.844,8.292 L25.844,5.702 Z M22.176,8.236 C22.176,9.384 21.476,9.566 20.734,9.566 C20.048,9.566 19.81,9.426 19.81,8.936 L19.81,6.864 L20.804,6.864 C21.854,6.864 22.176,7.494 22.176,8.236 Z M19.81,5.716 C19.81,4.54 19.964,4.498 20.818,4.428 C20.902,4.344 20.902,4.05 20.818,3.966 C20.342,3.98 19.8618,3.994 19.25,3.994 C18.6438,3.994 18.158,3.98 17.696,3.966 C17.612,4.05 17.612,4.344 17.696,4.428 C18.55,4.484 18.704,4.54 18.704,5.702 L18.704,8.292 C18.704,9.454 18.55,9.496 17.696,9.566 C17.612,9.65 17.612,9.944 17.696,10.028 C18.158,10.014 18.6522,10 19.264,10 C19.8324001,10 20.1515999,10.028 20.72,10.028 C22.442,10.028 23.38,9.594 23.38,8.096 C23.38,6.78 22.232,6.402 20.818,6.402 L19.81,6.402 L19.81,5.716 Z M20.454,1.978 C20.454,2.342 20.748,2.636 21.112,2.636 C21.476,2.636 21.77,2.342 21.77,1.978 C21.77,1.614 21.476,1.306 21.112,1.306 C20.748,1.306 20.454,1.614 20.454,1.978 Z M22.82,1.978 C22.82,2.342 23.114,2.636 23.478,2.636 C23.842,2.636 24.136,2.342 24.136,1.978 C24.136,1.614 23.842,1.306 23.478,1.306 C23.114,1.306 22.82,1.614 22.82,1.978 Z M32.746,10 C32.746,10 33.838,10.014 34.118,10.028 C34.202,9.944 34.202,9.65 34.118,9.566 C33.572,9.538 33.46,9.426 33.222,8.978 L32.592,7.788 C32.242,7.13 31.752,6.794 30.954,6.794 L30.954,6.752 C31.5,6.598 31.738,6.108 31.948,5.548 C32.116,5.114 32.284,4.848 32.578,4.848 C32.704,4.848 32.816,4.89 32.9,4.946 C32.984,5.002 33.138,5.044 33.32,5.044 C33.628,5.044 33.88,4.778 33.88,4.498 C33.88,4.19 33.544,3.868 33.082,3.868 C32.27,3.868 31.892,4.624 31.626,5.282 C31.318,6.052 30.94,6.584 29.946,6.584 L29.946,5.702 C29.946,4.54 30.1,4.498 30.814,4.428 C30.898,4.344 30.898,4.05 30.814,3.966 C30.478,3.98 29.946,3.994 29.386,3.994 C28.784,3.994 28.294,3.98 27.832,3.966 C27.748,4.05 27.748,4.344 27.832,4.428 C28.686,4.484 28.84,4.54 28.84,5.702 L28.84,8.292 C28.84,9.454 28.686,9.496 27.832,9.566 C27.748,9.65 27.748,9.944 27.832,10.028 C28.294,10.014 28.784,10 29.4,10 C29.946,10 30.506,10.014 30.814,10.028 C30.898,9.944 30.898,9.65 30.814,9.566 C30.1,9.51 29.946,9.454 29.946,8.292 L29.946,7.074 C30.898,7.13 31.15,7.508 31.402,8.026 L32.004,9.286 C32.186,9.664 32.466,9.986 32.746,10 Z M35.532,1.95 C35.532,2.314 35.826,2.608 36.19,2.608 C36.554,2.608 36.848,2.314 36.848,1.95 C36.848,1.586 36.554,1.278 36.19,1.278 C35.826,1.278 35.532,1.586 35.532,1.95 Z M37.898,1.95 C37.898,2.314 38.192,2.608 38.556,2.608 C38.92,2.608 39.214,2.314 39.214,1.95 C39.214,1.586 38.92,1.278 38.556,1.278 C38.192,1.278 37.898,1.586 37.898,1.95 Z M38.472,6.738 L38.472,8.586 C38.472,8.768 38.388,8.866 38.276,8.95 C37.912,9.244 37.436,9.566 37.044,9.566 C36.344,9.566 36.036,9.006 36.036,8.572 C36.036,7.942 36.33,7.298 37.366,7.032 L38.472,6.738 Z M38.472,9.328 C38.556,9.762 38.7044001,10.14 39.41,10.14 C39.9461998,10.14 40.4501998,9.902 40.74,9.622 C40.7161998,9.44980017 40.6601998,9.33220004 40.502,9.244 C40.397,9.33080017 40.1618002,9.468 39.984,9.468 C39.578,9.468 39.564,8.922 39.564,8.278 L39.564,6.22 C39.564,4.232 38.472,3.854 37.45,3.854 C36.302,3.854 35.14,4.61 35.14,5.408 C35.14,5.744 35.308,5.912 35.63,5.912 C36.036,5.912 36.288,5.618 36.288,5.436 C36.288,5.338 36.274,5.24 36.246,5.184 C36.232,5.142 36.218,5.058 36.218,4.904 C36.218,4.47 36.806,4.316 37.338,4.316 C37.814,4.316 38.472,4.554 38.472,6.136 C38.472,6.234 38.43,6.29 38.388,6.304 L37.184,6.598 C35.84,6.934 34.874,7.676 34.874,8.628 C34.874,9.776 35.658,10.14 36.638,10.14 C37.1252,10.14 37.548,10.028 38.164,9.552 L38.444,9.328 L38.472,9.328 Z M47.474,5.702 C47.474,4.54 47.628,4.498 48.482,4.428 C48.566,4.344 48.566,4.05 48.482,3.966 C47.992,3.994 47.376,3.994 46.914,3.994 C46.522,3.994 45.962,3.98 45.416,3.966 C45.332,4.05 45.332,4.344 45.416,4.428 C46.27,4.484 46.368,4.54 46.368,5.702 L46.368,6.612 L43.372,6.612 L43.372,5.702 C43.372,4.54 43.47,4.498 44.324,4.428 C44.408,4.344 44.408,4.05 44.324,3.966 C43.792,3.98 43.2572,3.994 42.812,3.994 C42.3975999,3.994 41.818,3.98 41.258,3.966 C41.174,4.05 41.174,4.344 41.258,4.428 C42.112,4.484 42.266,4.54 42.266,5.702 L42.266,8.292 C42.266,9.454 42.112,9.496 41.258,9.566 C41.174,9.65 41.174,9.944 41.258,10.028 C41.818,10.014 42.3808,10 42.826,10 C43.2712,10 43.82,10.014 44.324,10.028 C44.408,9.944 44.408,9.65 44.324,9.566 C43.47,9.51 43.372,9.454 43.372,8.292 L43.372,7.074 L46.368,7.074 L46.368,8.292 C46.368,9.454 46.27,9.496 45.416,9.566 C45.332,9.65 45.332,9.944 45.416,10.028 C45.92,10.014 46.4408002,10 46.928,10 C47.3521998,10 47.936,10.014 48.482,10.028 C48.566,9.944 48.566,9.65 48.482,9.566 C47.628,9.51 47.474,9.454 47.474,8.292 L47.474,5.702 Z M53.13,8.852 C53.13,9.594 54.18,10.14 55.524,10.14 C56.98,10.14 58.324,9.16 58.324,6.906 C58.324,5.212 57.547,3.854 55.51,3.854 C54.81,3.854 54.082,4.064 53.354,4.12 C53.2798,4.65619983 53.2518,5.23019983 53.228,5.8 C53.3441998,5.86580017 53.4492,5.87840009 53.592,5.856 C53.844,4.96 54.306,4.344 55.398,4.344 C56.567,4.344 57.148,5.492 57.148,6.78 L57.106,6.808 C56.728,6.584 56.336,6.416 55.902,6.416 C55.573,6.416 55.3055999,6.50840009 55.0508,6.62459991 C54.8225999,6.72959991 54.5958,6.808 54.348,6.808 C54.152,6.808 53.97,6.724 53.872,6.724 C53.788,6.724 53.76,6.864 53.76,6.92 C53.76,7.116 54.446,7.368 55.076,7.368 C55.4175999,7.368 55.6598,7.29659991 55.881,7.20420004 C56.0895999,7.116 56.2911998,7.06 56.56,7.06 C56.756,7.06 56.938,7.116 57.12,7.186 C57.12,8.852 56.602,9.65 55.356,9.65 C54.768,9.65 54.432,9.342 54.25,8.964 C54.04,8.516 53.844,8.446 53.592,8.446 C53.326,8.446 53.13,8.628 53.13,8.852 Z M65.534,5.702 C65.534,4.54 65.688,4.498 66.542,4.428 C66.626,4.344 66.626,4.05 66.542,3.966 C66.052,3.994 65.436,3.994 64.974,3.994 C64.582,3.994 64.022,3.98 63.476,3.966 C63.392,4.05 63.392,4.344 63.476,4.428 C64.33,4.484 64.428,4.54 64.428,5.702 L64.428,6.612 L61.432,6.612 L61.432,5.702 C61.432,4.54 61.53,4.498 62.384,4.428 C62.468,4.344 62.468,4.05 62.384,3.966 C61.852,3.98 61.3172,3.994 60.872,3.994 C60.4575999,3.994 59.878,3.98 59.318,3.966 C59.234,4.05 59.234,4.344 59.318,4.428 C60.172,4.484 60.326,4.54 60.326,5.702 L60.326,8.292 C60.326,9.454 60.172,9.496 59.318,9.566 C59.234,9.65 59.234,9.944 59.318,10.028 C59.878,10.014 60.4408,10 60.886,10 C61.3312,10 61.88,10.014 62.384,10.028 C62.468,9.944 62.468,9.65 62.384,9.566 C61.53,9.51 61.432,9.454 61.432,8.292 L61.432,7.074 L64.428,7.074 L64.428,8.292 C64.428,9.454 64.33,9.496 63.476,9.566 C63.392,9.65 63.392,9.944 63.476,10.028 C63.98,10.014 64.5008002,10 64.988,10 C65.4121998,10 65.996,10.014 66.542,10.028 C66.626,9.944 66.626,9.65 66.542,9.566 C65.688,9.51 65.534,9.454 65.534,8.292 L65.534,5.702 Z M70.182,9.454 C69.664,9.454 69.58,9.3 69.58,8.74 L69.58,5.702 C69.58,4.554 69.72,4.484 70.448,4.428 C70.518,4.344 70.518,4.05 70.448,3.966 C70.098,3.98 69.58,3.994 69.02,3.994 C68.46,3.994 67.97,3.98 67.578,3.966 C67.508,4.05 67.508,4.344 67.578,4.428 C68.348,4.484 68.474,4.554 68.474,5.702 L68.474,8.292 C68.474,9.44 68.292,9.51 67.522,9.566 C67.438,9.65 67.438,9.944 67.522,10.028 C67.942,10.014 68.474,10 69.034,10 L72.562,10 C73.738,10 74.144,11.12 74.326,11.806 C74.4533997,11.8382 74.5738002,11.8284001 74.69,11.792 L74.606,9.93 C74.592,9.678 74.3791998,9.608 74.186,9.566 C73.8681998,9.496 73.64,9.412 73.64,8.292 L73.64,5.702 C73.64,4.554 73.822,4.484 74.592,4.428 C74.676,4.344 74.676,4.05 74.592,3.966 C74.172,3.98 73.64,3.994 73.08,3.994 C72.52,3.994 72.1,3.98 71.68,3.966 C71.596,4.05 71.596,4.344 71.68,4.428 C72.394,4.498 72.534,4.554 72.534,5.702 L72.534,8.74 C72.534,9.174 72.492,9.454 71.946,9.454 L70.182,9.454 Z M77.882,9.118 C77.84,9.118 77.784,9.09 77.784,8.95 L77.784,5.758 C77.784,4.596 78.078,4.47 78.792,4.428 C78.876,4.344 78.876,4.05 78.792,3.966 C78.47,3.98 77.672,3.994 77.154,3.994 C76.6975999,3.994 76.132,3.98 75.6,3.966 C75.516,4.05 75.516,4.344 75.6,4.428 C76.454,4.47 76.678,4.596 76.678,5.758 L76.678,8.236 C76.678,9.398 76.454,9.524 75.6,9.566 C75.516,9.65 75.516,9.944 75.6,10.0280002 C76.146,10.014 76.706,10 77.154,10 C77.4704001,10 77.854,10.014 78.008,10.0280002 C78.078,9.83479996 78.2082,9.55620004 78.3524001,9.26920004 L80.542,4.89000021 C80.584,4.89000021 80.64,4.91800021 80.64,5.05800021 L80.64,8.23600021 C80.64,9.39800021 80.346,9.52400021 79.632,9.56600021 C79.548,9.65000021 79.548,9.94400021 79.632,10.0280002 C79.954,10.0140002 80.7128002,10.0000002 81.27,10.0000002 C81.7011998,10.0000002 82.278,10.0140002 82.824,10.0280002 C82.908,9.94400021 82.908,9.65000021 82.824,9.56600021 C81.97,9.52400021 81.746,9.39800021 81.746,8.23600021 L81.746,5.75800021 C81.746,4.59600021 81.97,4.47000021 82.824,4.42800021 C82.908,4.34400021 82.908,4.05000021 82.824,3.966 C82.264,3.98000021 81.7011998,3.99400021 81.27,3.99400021 C80.9591998,3.99400021 80.57,3.98000021 80.43,3.966 C80.3208002,4.22500021 80.1934001,4.5064003 80.0674001,4.75700021 L77.882,9.118 Z M88.718,10 C88.718,10 89.81,10.014 90.09,10.028 C90.174,9.944 90.174,9.65 90.09,9.566 C89.544,9.538 89.432,9.426 89.194,8.978 L88.564,7.788 C88.214,7.13 87.724,6.794 86.926,6.794 L86.926,6.752 C87.472,6.598 87.71,6.108 87.92,5.548 C88.088,5.114 88.256,4.848 88.55,4.848 C88.676,4.848 88.788,4.89 88.872,4.946 C88.956,5.002 89.11,5.044 89.292,5.044 C89.6,5.044 89.852,4.778 89.852,4.498 C89.852,4.19 89.516,3.868 89.054,3.868 C88.242,3.868 87.864,4.624 87.598,5.282 C87.29,6.052 86.912,6.584 85.918,6.584 L85.918,5.702 C85.918,4.54 86.072,4.498 86.786,4.428 C86.87,4.344 86.87,4.05 86.786,3.966 C86.45,3.98 85.918,3.994 85.358,3.994 C84.756,3.994 84.266,3.98 83.804,3.966 C83.72,4.05 83.72,4.344 83.804,4.428 C84.658,4.484 84.812,4.54 84.812,5.702 L84.812,8.292 C84.812,9.454 84.658,9.496 83.804,9.566 C83.72,9.65 83.72,9.944 83.804,10.028 C84.266,10.014 84.756,10 85.372,10 C85.918,10 86.478,10.014 86.786,10.028 C86.87,9.944 86.87,9.65 86.786,9.566 C86.072,9.51 85.918,9.454 85.918,8.292 L85.918,7.074 C86.87,7.13 87.122,7.508 87.374,8.026 L87.976,9.286 C88.158,9.664 88.438,9.986 88.718,10 Z M96.194,8.292 L96.194,5.702 C96.194,4.554 96.376,4.484 97.146,4.428 C97.23,4.344 97.23,4.05 97.146,3.966 C96.726,3.98 96.194,3.994 95.634,3.994 L92.988,3.994 C92.526,3.994 91.98,3.98 91.56,3.966 C91.476,4.05 91.476,4.344 91.56,4.428 C92.5498,4.498 92.694,4.582 92.694,6.094 C92.694,7.564 92.582,8.334 92.386,8.908 C92.204,9.412 91.966,9.594 91.728,9.594 C91.546,9.594 91.49,9.482 91.462,9.3 C91.42,9.034 91.336,8.768 90.944,8.768 C90.594,8.768 90.398,9.048 90.398,9.356 C90.398,9.79 90.79,10.168 91.434,10.168 C92.148,10.168 92.54,9.804 92.862,9.048 C93.142,8.376 93.226,6.948 93.226,5.996 C93.226,4.904 93.268,4.54 93.828,4.54 L94.458,4.54 C94.99,4.54 95.088,4.876 95.088,5.352 L95.088,8.292 C95.088,9.44 94.948,9.51 94.22,9.566 C94.15,9.65 94.15,9.944 94.22,10.028 C94.57,10.014 95.088,10 95.648,10 C96.208,10 96.838,10.014 97.23,10.028 C97.3,9.944 97.3,9.65 97.23,9.566 C96.32,9.51 96.194,9.44 96.194,8.292 Z M98.294,7.13 C98.294,8.558 99.246,10.14 101.234,10.14 C102.1356,10.14 102.8132,9.82220004 103.2906,9.356 C103.9178,8.74279996 104.202,7.86220004 104.202,7.004 C104.202,5.548 103.404,3.854 101.262,3.854 C100.3408,3.854 99.5805999,4.232 99.0682,4.834 C98.56,5.43040009 98.294,6.24519983 98.294,7.13 Z M101.052,4.344 C102.256,4.344 102.998,5.436 102.998,7.452 C102.998,9.216 102.088,9.65 101.43,9.65 C99.974,9.65 99.498,7.886 99.498,6.808 C99.498,5.59 99.792,4.344 101.052,4.344 Z M110.894,3.994 L106.918,3.994 C106.358,3.994 105.826,3.98 105.406,3.966 C105.322,4.05 105.322,4.344 105.406,4.428 C106.176,4.484 106.358,4.554 106.358,5.702 L106.358,8.292 C106.358,9.44 106.176,9.51 105.266,9.566 C105.182,9.65 105.182,9.944 105.266,10.028 C105.686,10.014 106.358,10 106.918,10 C107.478,10 107.898,10.014 108.318,10.028 C108.402,9.944 108.402,9.65 108.318,9.566 C107.604,9.496 107.464,9.44 107.464,8.292 L107.464,5.254 C107.464,4.82 107.506,4.54 108.052,4.54 L109.746,4.54 C110.264,4.54 110.348,4.694 110.348,5.254 L110.348,8.292 C110.348,9.44 110.208,9.51 109.48,9.566 C109.41,9.65 109.41,9.944 109.48,10.028 C109.83,10.014 110.348,10 110.908,10 C111.468,10 112.098,10.014 112.49,10.028 C112.56,9.944 112.56,9.65 112.49,9.566 C111.58,9.51 111.454,9.44 111.454,8.292 L111.454,5.702 C111.454,4.554 111.636,4.484 112.406,4.428 C112.49,4.344 112.49,4.05 112.406,3.966 C111.986,3.98 111.454,3.994 110.894,3.994 Z M114.716,6.052 C114.982,4.47 115.962,4.344 116.298,4.344 C116.83,4.344 117.46,4.638 117.46,5.814 C117.46,5.94 117.404,6.00719983 117.25,6.01 L114.716,6.052 Z M118.384,8.698 C117.866,9.23 117.46,9.454 116.648,9.454 C116.144,9.454 115.556,9.16 115.122,8.446 C114.842,7.984 114.674,7.34 114.674,6.528 L118.398,6.556 C118.566,6.556 118.664,6.472 118.664,6.318 C118.664,5.142 118.244,3.882 116.298,3.882 C115.08,3.882 113.498,5.044 113.498,7.172 C113.498,7.956 113.694,8.712 114.156,9.244 C114.632,9.804 115.29,10.14 116.298,10.14 C117.362,10.14 118.118,9.65 118.678,8.922 C118.636,8.782 118.552,8.712 118.384,8.698 Z M121.492,9.286 C121.492,9.048 121.87,8.11979996 122.08,4.918 C122.094,4.70380017 122.1878,4.526 122.57,4.526 L123.536,4.526 C124.096,4.526 124.166,4.918 124.166,5.394 L124.166,8.768 C124.166,9.23 124.138,9.454 123.578,9.454 L121.772,9.454 C121.618,9.454 121.492,9.44 121.492,9.286 Z M121.884,3.994 C121.422,3.994 120.876,3.98 120.456,3.966 C120.372,4.05 120.372,4.344 120.456,4.428 C121.31,4.498 121.5606,4.55540009 121.506,5.716 C121.4458,7.00820004 121.2204,8.03440009 120.988,9.02 C120.904,9.398 120.498,9.524 120.106,9.566 C119.896,9.594 119.7,9.678 119.686,9.93 L119.602,11.792 C119.7056,11.8395999 119.8148,11.8508 119.98,11.806 C120.106,11.288 120.484,10 121.744,10 L124.166,10 C125.412,10 125.818,11.26 125.944,11.82 C126.0658,11.8522 126.2016,11.8508 126.336,11.792 L126.252,9.916 C126.252,9.72 126.14,9.608 125.874,9.566 C125.622,9.524 125.272,9.426 125.272,8.908 L125.272,5.702 C125.272,4.554 125.454,4.484 126.224,4.428 C126.308,4.344 126.308,4.05 126.224,3.966 C125.804,3.98 125.272,3.994 124.712,3.994 L121.884,3.994 Z M129.542,9.118 C129.5,9.118 129.444,9.09 129.444,8.95 L129.444,5.758 C129.444,4.596 129.738,4.47 130.452,4.428 C130.536,4.344 130.536,4.05 130.452,3.966 C130.13,3.98 129.332,3.994 128.814,3.994 C128.3576,3.994 127.792,3.98 127.26,3.966 C127.176,4.05 127.176,4.344 127.26,4.428 C128.114,4.47 128.338,4.596 128.338,5.758 L128.338,8.236 C128.338,9.398 128.114,9.524 127.26,9.566 C127.176,9.65 127.176,9.944 127.26,10.0280002 C127.806,10.014 128.366,10 128.814,10 C129.1304,10 129.514,10.014 129.668,10.0280002 C129.738,9.83479996 129.8682,9.55620004 130.0124,9.26920004 L132.202,4.89000021 C132.244,4.89000021 132.3,4.91800021 132.3,5.05800021 L132.3,8.23600021 C132.3,9.39800021 132.006,9.52400021 131.292,9.56600021 C131.208,9.65000021 131.208,9.94400021 131.292,10.0280002 C131.614,10.0140002 132.3728,10.0000002 132.93,10.0000002 C133.3612,10.0000002 133.938,10.0140002 134.484,10.0280002 C134.568,9.94400021 134.568,9.65000021 134.484,9.56600021 C133.63,9.52400021 133.406,9.39800021 133.406,8.23600021 L133.406,5.75800021 C133.406,4.59600021 133.63,4.47000021 134.484,4.42800021 C134.568,4.34400021 134.568,4.05000021 134.484,3.966 C133.924,3.98000021 133.3612,3.99400021 132.93,3.99400021 C132.6192,3.99400021 132.23,3.98000021 132.09,3.966 C131.9808,4.22500021 131.8534,4.5064003 131.7274,4.75700021 L129.542,9.118 Z" id="mrj-tagline" fill="#000000" fill-rule="nonzero"></path>
    </g>
</svg>