<svg xmlns="http://www.w3.org/2000/svg" width="120" height="17" fill="none"><path fill="#000" fill-rule="evenodd" d="M109.437 8.726c-.093.241.07.313.584.313h4.067l-2.267-6.436h-.047l-2.337 6.123Zm-.654 1.735-1.355 3.496c-.234.602.07 1.133.934 1.205l.678.048c.093 0 .187.072.187.193v.458l-.047.048s-2.547-.048-3.108-.048c-.314 0-.865.013-1.325.025l-.033.023-.341-.012-.404.012-.025-.026a43.802 43.802 0 0 0-1.169-.022c-.655 0-2.618.048-2.618.048l-.047-.048v-.506c0-.072.071-.145.164-.145l.421-.048c.537-.072.934-.145.934-.458a.663.663 0 0 0-.016-.13c-.003-.02-.008-.039-.012-.059l-.018-.076-1.052-2.796h-3.996c-.304 0-.467.096-.514.265l-1.028 2.53v.002c-.047.12-.094.24-.094.312 0 .314.374.386.958.434l.304.024c.07 0 .14.072.14.145v.506l-.046.048s-1.94-.048-2.384-.048c-.467 0-1.519.048-1.519.048l-.047-.048v-.506c0-.072.07-.145.14-.145.585-.072 1.099-.169 1.496-1.036l4.113-9.112c.164-.386.537-.627.748-.627.49 0 .771.193.935.603l3.411 8.991c.359.87.622 1.073 1.236 1.157.862-.095 1.398-.384 1.992-1.784L111.564.868c.257-.627.444-.868.794-.868.328 0 .444.241.631.723l4.791 13.065c.327.94.795 1.302 1.729 1.398l.257.024c.117 0 .234.072.234.193v.458l-.07.048s-1.799-.048-2.711-.048c-.818 0-3.108.048-3.108.048l-.023-.048v-.458c0-.12.046-.193.163-.193l.655-.048c.888-.072 1.215-.362.981-1.037l-1.425-4.073h-4.861c-.561 0-.701.096-.818.41ZM64.604 4.773h-6.029l-2.337-.048-.023.048v.53c0 .024 0 .072.14.097l.537.048c.655.048.935.193.935.747v8.22c0 .482-.21.675-.935.747l-.537.048c-.117 0-.14.072-.14.12v.531l.023.048 2.314-.048h6.169c.047-.771.21-1.76.49-2.94l-.583-.073c-.374 1.23-.888 2.193-2.314 2.193h-2.01c-.42 0-.677-.12-.677-.578v-4.026h1.752c.608 0 .818.266.912.748l.117.53c0 .072.046.12.163.12h.397l.047-.048a11.916 11.916 0 0 0-.057-.544c-.042-.359-.083-.717-.083-1.119 0-.42.049-.889.094-1.318v-.002c.017-.162.033-.318.046-.464 0-.048 0-.072-.047-.072h-.397c-.093 0-.14.048-.14.12l-.14.507c-.094.482-.257.771-.912.771h-1.752V6.1c0-.41.233-.507.677-.507h1.87c1.495 0 1.94 1.278 2.173 2.146l.584-.073c-.163-.916-.303-1.856-.327-2.892ZM61.777.193h-1.169c-.678 1.109-1.566 2.145-2.407 3.11l.468.337c.888-.651 1.635-1.254 2.5-2.17.795.868 1.566 1.47 2.477 2.17l.49-.338c-.84-.964-1.682-1.976-2.36-3.11ZM13.46 1.06c1.005.144.888.675.187 2.073l-1.238 2.41-.117-.12-1.145-2.435c-.631-1.374-.725-1.784.257-1.928.14-.145.14-.651 0-.796-.23.007-.423.013-.603.02-.482.016-.86.028-1.524.028C8.555.313 8.153.3 7.662.281H7.66L7.463.274a94.279 94.279 0 0 0-.265-.009c-.14.145-.116.651.024.796 1.005.144 1.192.482 1.963 2.193l1.963 4.315-2.594 5.472h-.117L4.16 2.989c-.584-1.374-.514-1.76.959-1.928.14-.145.14-.651 0-.796l-.832.02h-.008c-.621.016-1.105.028-1.754.028-.62 0-1.004-.01-1.513-.024H.998C.743.28.457.272.094.264c-.14.145-.117.651.024.796 1.236.111 1.365.43 1.937 1.844l.057.14.085.21 5.095 12.34c.14.362.304.555.537.555.257 0 .421-.192.561-.554l3.435-6.99 3.155 6.99c.117.361.304.554.538.554.257 0 .397-.192.56-.554l5.516-12.294.11-.252.004-.01c.43-.992.78-1.802 2.2-1.98.14-.144.14-.65 0-.795l-.56.015-.22.007h-.012c-.508.015-.898.026-1.265.026-.354 0-.77-.01-1.326-.024a286.81 286.81 0 0 0-.988-.024c-.14.145-.14.651 0 .796 1.52.12 1.543.771 1.005 2.073l-4.44 9.907h-.117l-2.991-6.364L14.7 3.302c.584-1.108 1.098-2.049 2.313-2.241.14-.145.14-.651 0-.796h-.002c-.583.024-1.167.048-1.704.048-.354 0-.668-.01-1.088-.024-.13-.005-.271-.01-.427-.014L13.6.269l-.139-.004c-.14.145-.14.651 0 .796Zm14.464 5.158c0-.482.257-.699.981-.771l.491-.048c.094 0 .14-.049.14-.121v-.506l-.023-.048s-1.8.048-2.43.048c-.725 0-2.571-.048-2.571-.048l-.023.048v.53c0 .072.07.097.163.097l.468.048c.724.072 1.004.24 1.004.771v8.027c0 .458-.233.844-1.004.916l-.468.048c-.093 0-.163.048-.163.145v.506l.046.048s1.823-.048 2.477-.048c.725 0 2.5.048 2.5.048l.024-.048v-.506a.137.137 0 0 0-.14-.145l-.49-.048c-.748-.072-.982-.386-.982-.916V6.219Zm-.21-4.194c0 .602.49 1.109 1.075 1.109.584 0 1.051-.507 1.051-1.11 0-.602-.467-1.084-1.052-1.084-.584 0-1.075.482-1.075 1.085Zm-3.74 0c0 .602.468 1.109 1.052 1.109.584 0 1.075-.507 1.075-1.11 0-.602-.49-1.084-1.075-1.084-.584 0-1.052.482-1.052 1.085Zm10.78 9.256c-.35-.482-.724-.603-1.238-.603v3.568c0 .53.304.795.981.916l.257.048c.07.024.14.048.14.145v.506l-.023.048s-1.472-.048-2.173-.048c-.654 0-2.57.048-2.57.048l-.047-.048v-.506c0-.097.07-.145.163-.145l.468-.048c.7-.072 1.005-.458 1.005-.916V6.219c0-.53-.258-.675-1.005-.747l-.468-.048c-.093 0-.163-.024-.163-.097v-.554l.023-.048s1.916.048 2.64.048c.655 0 2.127-.048 2.127-.048l.024.048v.53c0 .072-.047.097-.14.12l-.258.049c-.724.144-.981.265-.981.747v3.64c.771 0 1.215-.41 2.243-1.543.935-1.06 1.66-1.952 1.66-2.41 0-.193-.21-.41-.678-.482-.094-.024-.14-.049-.14-.12v-.555l.023-.024s1.893.048 2.57.048c.608 0 1.636-.048 1.636-.048l.07.024v.554c0 .072-.07.12-.187.12l-.005.001c-.908.072-1.539.122-2.378 1.108L36.32 8.92c-.397.434-.537.699-.537.892 0 .144.093.265.21.41l3.529 4.387c.28.337.841.482 1.308.578l.117.024c.07.024.164.073.164.145v.506l-.07.024s-1.239-.024-1.893-.024c-.584 0-1.426.024-1.426.024l-.023-.024v-.29c0-.313-.023-.578-.35-.963l-2.595-3.327Zm10.06-5.062c0-.482.256-.699.98-.771l.492-.048c.093 0 .14-.049.14-.121v-.506l-.023-.048s-1.8.048-2.43.048c-.725 0-2.571-.048-2.571-.048l-.024.048v.53c0 .072.07.097.164.097l.467.048c.724.072 1.005.24 1.005.771v8.027c0 .458-.234.844-1.005.916l-.467.048c-.094 0-.164.048-.164.145v.506l.047.048s1.823-.048 2.477-.048c.724 0 2.5.048 2.5.048l.024-.048v-.506a.137.137 0 0 0-.14-.145l-.491-.048c-.748-.072-.982-.386-.982-.916V6.219Zm-.211-4.194c0 .602.49 1.109 1.075 1.109.584 0 1.052-.507 1.052-1.11 0-.602-.468-1.084-1.052-1.084-.584 0-1.075.482-1.075 1.085Zm-3.739 0c0 .602.467 1.109 1.052 1.109.584 0 1.075-.507 1.075-1.11 0-.602-.491-1.084-1.075-1.084-.585 0-1.052.482-1.052 1.085Zm10.897 3.399c-1.122 0-1.402.217-1.402.843v4.194c.467.193 1.051.217 1.519.217 1.402 0 2.08-.867 2.08-2.723 0-2.073-.912-2.531-2.197-2.531Zm-4.16 9.714c.725-.097.958-.313.958-.771v-8.1c0-.747-.303-.771-1.402-.843-.14 0-.163-.073-.163-.12v-.555l.046-.024c.146 0 .468.008.844.018h.01c.528.013 1.16.03 1.553.03.305 0 .67-.01 1.06-.022.45-.013.932-.026 1.394-.026 3.319 0 3.926 1.687 3.926 2.94 0 1.447-.678 3.712-3.996 3.712-.584 0-1.052-.048-1.472-.24v3.23c0 .53.28.65 1.028.77l.467.073c.094.024.164.048.164.145v.506l-.023.048s-1.87-.048-2.594-.048c-.655 0-2.407.048-2.407.048l-.024-.048v-.506c0-.097.047-.12.14-.145l.491-.072Zm18.267.723v-.506c0-.073.047-.145.14-.145l.538-.048c.7-.072.934-.29.934-1.037V6.171c0-.612-.155-.627-.88-.694l-.054-.005-.514-.048c-.094 0-.164-.049-.164-.121v-.53l.023-.048s2.057.048 2.478.048a313.353 313.353 0 0 0 1.315-.021h.016c.684-.013 1.426-.027 1.753-.027 3.903 0 5.82 2.506 5.82 5.712 0 4.219-2.899 5.472-5.493 5.472-1.152 0-1.905-.018-2.482-.032h-.005c-.357-.009-.648-.016-.924-.016-.702 0-2.478.048-2.478.048l-.023-.048Zm3.412-9.69v7.954c0 .675.163 1.085 1.94 1.085 2.57 0 4.019-.988 4.019-4.363 0-2.507-.537-5.424-4.463-5.424-.912 0-1.496.145-1.496.748Zm12.188.048c0-.482.257-.699.981-.771l.491-.048c.094 0 .14-.049.14-.121v-.506l-.023-.048s-1.8.048-2.43.048c-.725 0-2.57-.048-2.57-.048l-.024.048v.53c0 .072.07.097.163.097l.468.048c.724.072 1.005.24 1.005.771v8.027c0 .458-.234.844-1.005.916l-.468.048c-.093 0-.163.048-.163.145v.506l.046.048s1.823-.048 2.478-.048c.724 0 2.5.048 2.5.048l.023-.048v-.506a.137.137 0 0 0-.14-.145l-.49-.048c-.748-.072-.982-.386-.982-.916V6.219Zm-.21-4.194c0 .602.49 1.109 1.075 1.109.584 0 1.051-.507 1.051-1.11 0-.602-.467-1.084-1.051-1.084-.585 0-1.075.482-1.075 1.085Zm-3.74 0c0 .602.468 1.109 1.052 1.109.584 0 1.075-.507 1.075-1.11 0-.602-.49-1.084-1.075-1.084-.584 0-1.051.482-1.051 1.085Zm9.121 13.137c.725-.072 1.005-.29 1.005-.771v-3.255l-2.944-4.99c-.304-.505-.678-.65-1.356-.722-.07 0-.187-.024-.187-.12v-.531l.047-.048c.1 0 .48.01.878.022.44.013.903.026 1.038.026.117 0 2.08-.024 2.36-.048l.024.024v.554c0 .048-.047.12-.117.12l-.514.049c-.56.048-.467.265-.234.65L89 10.1h.047l2.174-3.977c.303-.579.303-.603-.257-.651l-.538-.048c-.07 0-.093-.073-.093-.12v-.555l.046-.024c.061 0 .181.002.332.006l.605.019c.379.011.749.023.863.023.163 0 1.238-.024 1.589-.048l.023.048v.53c0 .022 0 .044-.016.064-.018.024-.059.044-.147.057l-.398.048c-.747.096-.864.24-1.215.892l-2.57 4.676v3.35c0 .531.257.7.981.772l.49.048c.094 0 .165.073.165.145v.506l-.047.048s-1.776-.048-2.5-.048c-.655 0-2.478.048-2.478.048l-.047-.048v-.506c0-.072.07-.145.164-.145l.467-.048Zm13.611-4.218h-3.178c-.468 0-.468-.217-.468-.338l1.776-4.411h.024l1.846 4.749Zm-.468-8.895c0 .603.491 1.109 1.075 1.109.585 0 1.052-.506 1.052-1.11 0-.602-.467-1.084-1.052-1.084-.584 0-1.075.482-1.075 1.085Zm-3.739 0c0 .603.468 1.109 1.052 1.109.584 0 1.075-.506 1.075-1.11 0-.602-.49-1.084-1.075-1.084-.584 0-1.052.482-1.052 1.085Z" clip-rule="evenodd"/></svg>