<svg xmlns="http://www.w3.org/2000/svg" xml:space="preserve" viewBox="0 0 105.3 12"><path d="M2.235 1.897c0-.643 0-.858 1.071-.858.75 0 1.608.429 1.608 1.715 0 1.072-.75 1.5-1.822 1.5h-.857zm0 2.786h.857c1.715 0 2.465.965 2.465 2.144 0 .964-.322 1.714-2.358 1.714-.857 0-1.072-.321-1.072-1.071zM1.699.718H.09a.326.326 0 0 0 0 .429c.857 0 1.072.107 1.072 1.178V7.47C1.163 8.54.948 8.648.09 8.648a.326.326 0 0 0 0 .43h3.644c2.572 0 3.215-1.287 3.215-2.359 0-1.286-.857-1.929-1.93-2.25.644-.322 1.18-.965 1.18-1.715 0-.857-.322-1.929-2.787-1.929C2.878.611 2.127.718 1.7.718M11.13 5.97v1.714c0 .214-.108.214-.215.321-.321.322-.75.536-1.179.536-.643 0-.964-.536-.964-.964 0-.536.321-1.18 1.179-1.393zm0 2.357c.107.429.214.75.857.75.536 0 .965-.214 1.179-.429 0-.107-.107-.214-.214-.321-.108.107-.322.214-.43.214-.32 0-.428-.536-.428-1.071V5.54c0-1.821-.964-2.143-1.929-2.143-1.072 0-2.143.643-2.143 1.393 0 .322.107.429.428.429s.643-.322.643-.429v-.428c0-.429.536-.536 1.072-.536.429 0 1.072.214 1.072 1.715 0 .107 0 .107-.107.107l-1.072.321c-1.286.322-2.143.965-2.143 1.822 0 1.072.75 1.393 1.607 1.393.429 0 .857-.107 1.393-.536zM15.524 4.362c0-.536 0-.858-.108-.965 0 0 0-.107-.107-.107-.321.107-.75.214-1.607.321v.322c.643.107.857.107.857.857v2.465c0 1.072-.107 1.072-.857 1.18a.326.326 0 0 0 0 .428h2.6790000000000003a.326.326 0 0 0 0-.429c-.643-.107-.75-.107-.75-1.179V5.112c0-.322.107-.429.214-.536.536-.429 1.072-.75 1.608-.75.214 0 .536.214.643.428s.107.643.107.965v2.572c0 1.715 0 3.322-.643 3.322-.107 0-.322 0-.429-.107s-.321-.321-.536-.321c-.107 0-.428.214-.428.536s.428.535.75.535.964 0 1.393-.428c.643-.536.965-1.394.965-3.858V5.54c0-.75 0-1.286-.322-1.714-.214-.322-.643-.429-1.072-.429-.643 0-1.286.214-2.143 1.072-.107 0-.214.107-.214-.107M21.204 1.254c0 .321.321.643.643.643s.643-.322.643-.643-.322-.643-.643-.643-.643.321-.643.643m1.178 6.108V3.29s-.107-.107-.214-.107c-.321.107-.857.214-1.715.321v.322c.643.107.858.107.858.857v2.465c0 1.072-.107 1.072-.965 1.179a.326.326 0 0 0 0 .429h2.787a.326.326 0 0 0 0-.43c-.643.215-.75.108-.75-.964M25.812 4.362c0-.536 0-.858-.107-.965 0 0 0-.107-.107-.107-.322.107-.643.214-1.608.321v.322c.643.107.857.107.857.857v2.465c0 1.072-.107 1.072-.964 1.18a.326.326 0 0 0 0 .428h3.108a.326.326 0 0 0 0-.429c-.858-.107-1.072-.107-1.072-1.179V5.433c0-.321.107-.643.322-.857.107-.214.428-.643.643-.643.107 0 .214 0 .321.214.107.107.214.322.429.322.321 0 .643-.322.643-.643 0-.215-.215-.643-.75-.643-.643 0-1.18.536-1.394 1.071-.321.322-.321.215-.321.108M33.421 8.97h4.18c.107-.643.214-1.5.321-2.143-.107 0-.321-.108-.429-.108-.214.965-.75 1.715-2.143 1.715h-.857c-.536 0-.75-.214-.75-.857V2.218c0-1.071.214-1.179 1.071-1.179a.326.326 0 0 0 0-.428h-3.322a.326.326 0 0 0 0 .428c.857 0 1.072.108 1.072 1.18v5.143c0 1.072-.215 1.18-1.072 1.18a.326.326 0 0 0 0 .428zM42.102 5.97v1.714c0 .214-.107.214-.215.321-.321.322-.75.536-1.178.536-.643 0-.965-.536-.965-.964 0-.536.322-1.18 1.179-1.393zm0 2.357c.107.429.214.75.857.75.536 0 .965-.214 1.179-.429 0-.107-.107-.214-.214-.321-.108.107-.322.214-.429.214-.322 0-.429-.536-.429-1.071V5.54c0-1.821-.964-2.143-1.929-2.143-1.071 0-2.143.643-2.143 1.393 0 .322.107.429.429.429s.643-.322.643-.429v-.428c0-.429.535-.536 1.071-.536.429 0 1.072.214 1.072 1.715 0 .107 0 .107-.107.107l-1.072.321c-1.286.322-2.143.965-2.143 1.822 0 1.072.75 1.393 1.607 1.393.429 0 .858-.107 1.393-.536zM46.389 4.254c.321-.321.75-.428 1.071-.428.75 0 1.393.964 1.393 2.25 0 1.5-.643 2.572-1.821 2.572-.43 0-.643-.321-.965-.643V4.79c.107-.214.214-.321.322-.536m-.108-.321c-.107.107-.107 0-.107-.107V.075c0-.107 0-.107-.214-.107-.322.107-1.286.321-1.822.321 0 .107 0 .322.107.429.643 0 .858 0 .858 1.072v7.287000000000001c.107.107.107.107.321.107l.322-.321q.16-.16.321 0c.322.214.643.321 1.179.321 1.286 0 2.894-1.179 2.894-3.215 0-1.607-1.18-2.572-2.251-2.572-.643-.107-1.179.107-1.608.536M54.32 5.97v1.714c0 .214-.108.214-.215.321-.322.322-.75.536-1.18.536-.642 0-.964-.536-.964-.964 0-.536.322-1.18 1.18-1.393zm0 2.357c.106.429.213.75.857.75.535 0 .964-.214 1.178-.429 0-.107-.107-.214-.214-.321-.107.107-.321.214-.429.214-.321 0-.428-.536-.428-1.071V5.54c0-1.821-.965-2.143-1.93-2.143-1.071 0-2.143.643-2.143 1.393 0 .322.107.429.429.429s.643-.322.643-.429v-.428c0-.429.536-.536 1.072-.536.428 0 1.071.214 1.071 1.715 0 .107 0 .107-.107.107l-1.072.321c-1.286.322-2.143.965-2.143 1.822 0 1.072.75 1.393 1.608 1.393.428 0 .857-.107 1.393-.536zM59.035 11.006c.214-.321.321-.75.535-1.072 1.072-2.464 1.608-3.75 2.251-5.25.214-.537.429-.751 1.072-.858a.326.326 0 0 0 0-.429h-2.144a.326.326 0 0 0 0 .429c.429 0 .858.107.643.536l-1.286 2.893q-.16.322-.321 0l-1.18-2.679c-.213-.536-.32-.75.43-.857a.326.326 0 0 0 0-.43h-2.572a.326.326 0 0 0 0 .43c.535.107.643.214.964.964l1.5 3.43c.108.321.322.857.215 1.178-.107.43-.322.75-.536 1.18q-.161.32-.643.32h-.322c-.321 0-.535.43-.535.537 0 .321.214.428.643.428.321.215.75.108 1.286-.75M66.75 5.97v1.714c0 .214-.106.214-.213.321-.322.322-.75.536-1.18.536-.642 0-.964-.536-.964-.964 0-.536.322-1.18 1.179-1.393zm0 2.357c.108.429.215.75.858.75.536 0 .965-.214 1.18-.429 0-.107-.108-.214-.215-.321-.107.107-.322.214-.429.214-.321 0-.429-.536-.429-1.071V5.54c0-1.821-.964-2.143-1.929-2.143-1.071 0-2.143.643-2.143 1.393 0 .322.107.429.429.429s.643-.322.643-.429v-.428c0-.429.535-.536 1.071-.536.429 0 1.072.214 1.072 1.715 0 .107 0 .107-.107.107l-1.072.321c-1.286.322-2.143.965-2.143 1.822 0 1.072.75 1.393 1.607 1.393.429 0 .858-.107 1.394-.536zM76.932.504a4.433 4.433 0 0 0-4.394 4.5c0 2.358 1.608 4.073 4.073 4.073 1.5 0 2.679-.321 3.536-1.072-.107-.107-.214-.214-.214-.321v-1.5c0-.43.214-.536.643-.643.107-.108.107-.43 0-.43h-2.787c-.107.108-.107.43 0 .43.643.107 1.072.107 1.072.643v1.929c-.429.428-1.286.535-2.036.535-2.036 0-3.108-2.143-3.108-3.858 0-2.25 1.5-3.75 3-3.75 1.823 0 2.358 1.071 2.68 2.143.107 0 .321 0 .429-.107 0-.536-.108-1.072-.322-1.93-.643-.214-1.072-.642-2.572-.642M83.148 4.254c.321-.321.75-.428 1.072-.428.75 0 1.393.964 1.393 2.25 0 1.5-.643 2.572-1.822 2.572-.429 0-.643-.321-.965-.643V4.79c.108-.214.215-.321.322-.536m-.107-.321c-.107.107-.107 0-.107-.107V.075c0-.107 0-.107-.215-.107-.321.107-1.286.321-1.822.321 0 .107 0 .322.107.429.643 0 .858 0 .858 1.072v7.287000000000001c.107.107.107.107.321.107l.322-.321q.16-.16.321 0c.322.214.643.321 1.18.321 1.285 0 2.893-1.179 2.893-3.215 0-1.607-1.179-2.572-2.25-2.572-.644-.107-1.18.107-1.608.536M90.971 5.97v1.714c0 .214-.107.214-.214.321-.322.322-.75.536-1.179.536-.643 0-.964-.536-.964-.964 0-.536.321-1.18 1.178-1.393zm0 2.357c.107.429.215.75.858.75.535 0 .964-.214 1.179-.429 0-.107-.108-.214-.215-.321-.107.107-.321.214-.429.214-.321 0-.428-.536-.428-1.071V5.54c0-1.821-.965-2.143-1.93-2.143-1.071 0-2.143.643-2.143 1.393 0 .322.108.429.429.429s.643-.322.643-.429v-.428c0-.429.536-.536 1.072-.536.428 0 1.071.214 1.071 1.715 0 .107 0 .107-.107.107l-1.071.321c-1.286.322-2.144.965-2.144 1.822 0 1.072.75 1.393 1.608 1.393.428 0 .857-.107 1.393-.536zM95.365 4.79v-1.5s-.107-.107-.214-.107c-.322.107-.857.214-1.715.321v.322c.643.107.858.107.858.857v1.93c0 1.392.321 2.571 2.036 2.571 1.286 0 2.572-1.071 2.572-3.322 0-1.5-.536-2.465-1.286-2.465a.46.46 0 0 0-.429.429c0 .321.214.428.429.643.321.214.75.428.75 1.607 0 1.286-.75 2.68-1.929 2.68-.965 0-1.072-.965-1.072-2.251zM101.688 4.362c0-.536 0-.858-.107-.965 0 0 0-.107-.107-.107-.322.107-.75.214-1.608.321v.322c.643.107.858.107.858.857v2.465c0 1.072-.107 1.072-.858 1.18a.326.326 0 0 0 0 .428h2.6799999999999997a.326.326 0 0 0 0-.429c-.643-.107-.75-.107-.75-1.179V5.112c0-.322.107-.429.214-.536.536-.429 1.071-.75 1.607-.75.215 0 .536.214.643.428s.108.643.108.965v2.572c0 1.715 0 3.322-.643 3.322-.108 0-.322 0-.43-.107s-.32-.321-.535-.321c-.107 0-.429.214-.429.536s.429.535.75.535.965 0 1.394-.428c.643-.536.964-1.394.964-3.858V5.54c0-.75 0-1.286-.321-1.714-.215-.322-.643-.429-1.072-.429-.643 0-1.286.214-2.143 1.072-.108 0-.215.107-.215-.107"/></svg>