<?xml version="1.0" encoding="UTF-8"?>
<svg width="120px" height="18px" viewBox="0 0 120 18" version="1.1" xmlns="http://www.w3.org/2000/svg" xmlns:xlink="http://www.w3.org/1999/xlink">
    <title>lg-wordmark</title>
    <g id="Page-1" stroke="none" stroke-width="1" fill="none" fill-rule="evenodd">
        <path d="M18.5379306,0.00112909058 L18.9131018,0.00178231465 C18.9727503,0.00189615282 19.0308213,0.0020116468 19.0871086,0.00212755475 L19.4017803,0.00281803495 C19.4501086,0.00293063124 19.496241,0.00304115774 19.5399714,0.00314837259 L19.8631224,0.00399036103 L19.9020251,0.00409917997 L20.0344947,0.00448710938 L20.0920418,0.0579958887 L20.0920418,0.558757295 C20.0920418,0.697072442 20.0143027,0.765725215 19.8608435,0.765725215 C19.1076822,0.801061201 18.9532135,0.875771572 18.6775928,1.27254422 C18.5271624,1.48960814 18.2303402,1.95503356 17.9224123,2.47699655 L15.2792805,7.41999624 C15.2792805,7.41999624 15.2534608,7.47393483 15.2055156,7.57389898 L18.4352889,14.1843136 L18.6311512,14.2378224 L23.7195332,2.16200148 C23.8962132,1.67537446 23.868954,1.3300914 23.6417941,1.12716188 C23.4136245,0.929280352 23.2530982,0.812166797 22.663492,0.787936406 L22.1859514,0.763706016 C22.1273946,0.763706016 22.0718667,0.742504424 22.0183579,0.703130039 C21.9658587,0.665774854 21.9385995,0.616304473 21.9385995,0.556738096 L21.9385995,0.0539574902 L22.0112907,0.00246791016 L27.7599509,0.00246791016 L27.8185076,0.0539574902 L27.8185076,0.556738096 C27.8185076,0.693034043 27.7407685,0.761686817 27.5873093,0.761686817 C26.834148,0.795003604 26.2758394,0.95855874 25.9144028,1.25033303 C25.5519565,1.54412651 25.2692686,1.94897596 25.0663391,2.47497735 C25.0663391,2.47497735 23.6220508,5.78079287 22.0636805,9.32969476 L21.7956619,9.93988772 C20.6315567,12.5894233 19.4464429,15.2765241 18.7856199,16.7456678 C18.172793,17.912765 17.570062,17.8057474 17.0400222,16.712351 C16.6058738,15.8182167 15.8660055,14.2189836 15.1227821,12.5958997 L14.7716683,11.8279683 C14.4985278,11.2297311 14.2314883,10.6430003 13.9859573,10.1024905 C13.7054415,10.6810618 13.3978511,11.3134814 13.0833718,11.9564412 L12.8372933,12.4588029 L12.7138653,12.7101764 L12.4675457,13.2104949 C11.7721423,14.620287 11.1064438,15.9459034 10.6856023,16.7264854 C9.97080574,17.9693026 9.38220917,17.806757 8.91375495,16.7587926 C7.28728998,12.9213045 3.94753447,6.18323672 2.37558788,2.40733418 C2.08482319,1.71172005 1.86574008,1.26547702 1.65877216,1.08879709 C1.45079464,0.914136358 1.01868601,0.809137998 0.36143666,0.773802012 C0.120142354,0.747552422 0,0.688995645 0,0.594093281 L0,0.0680918848 L0.0585567774,0.0166023047 C0.184459787,0.0158896461 0.367235745,0.015344672 0.591760176,0.0149377908 L1.59988279,0.0140015017 L1.71539787,0.0139657262 L2.56907786,0.0139515663 C2.65303409,0.0139677491 2.73747273,0.0139884014 2.82215744,0.0140130608 L4.55565261,0.0149613714 L4.66939221,0.0150490474 L5.73042954,0.0159905958 L5.80499758,0.0160650944 L6.30797836,0.0166023047 L6.36653514,0.0680918848 L6.36653514,0.568853291 C6.36653514,0.707168438 6.27869997,0.773802012 6.10605844,0.773802012 L5.45385709,0.801061201 C4.89453891,0.824281992 4.61487982,0.991875528 4.61487982,1.30182261 C4.61487982,1.44619535 4.67343659,1.68042246 4.80367494,1.99642714 C6.05557846,5.04642756 10.3796936,14.1641216 10.3796936,14.1641216 L10.5382007,14.2055152 L13.3256675,8.64631871 C12.9847843,7.89322789 12.7673967,7.41090985 12.7673967,7.41090985 L10.8511766,3.6451033 C10.8511766,3.6451033 10.4806535,2.89194199 10.3544536,2.64156129 C9.51244752,0.972693135 9.53062031,0.883848369 8.67952784,0.771782813 C8.44126234,0.740485225 8.31809118,0.710197237 8.31809118,0.592074082 L8.31809118,0.0640534863 L8.38977276,0.0125639063 L8.90227076,0.0120167033 L8.99644142,0.0119364307 L10.579461,0.0110576584 C10.65299,0.011030661 10.7264507,0.0110050845 10.7996466,0.0109808541 L13.348926,0.010544707 L13.480174,0.0539574902 L13.480174,0.579958887 C13.480174,0.70010124 13.394358,0.761686817 13.2196973,0.761686817 L12.8602798,0.813176397 C11.9516402,0.883848369 12.1000513,1.25538103 12.7037919,2.45781416 L14.542,6.219 L16.5756064,2.16402067 C16.8931591,1.47143534 16.8536456,1.26343987 16.7328688,1.09924218 L16.7058447,1.0645667 C16.6250768,0.967645137 16.3545041,0.813176397 15.7659075,0.788946006 L15.5347092,0.763706016 C15.4761524,0.763706016 15.421634,0.743514024 15.3681253,0.704139639 C15.3156261,0.666784453 15.2893765,0.618323672 15.2893765,0.556738096 L15.2893765,0.0559766895 L15.3610581,0.00448710938 C15.6092803,0.00274642039 15.9108337,0.00160596899 16.2399493,0.000910521313 L18.3392401,0.000836009062 C18.406498,0.000928735419 18.4727969,0.00102684322 18.5379306,0.00112909058 Z M111.416384,0.120591064 C111.782869,0.120591064 111.915126,0.384096563 112.124113,0.90908836 L117.505279,15.1363661 C117.873783,16.1611097 118.398775,16.5538439 119.448759,16.6588423 L119.737504,16.6840823 C119.868752,16.6840823 120,16.762831 120,16.8950886 L120,17.3928212 L119.921251,17.4453204 C119.921251,17.4453204 119.172369,17.4258689 118.355406,17.410646 L117.827536,17.4016753 C117.478303,17.3963939 117.14336,17.3928212 116.876299,17.3928212 C116.582303,17.3928212 116.118863,17.3981971 115.624528,17.4055083 L115.250149,17.4113009 C114.310543,17.4264207 113.384094,17.4453204 113.384094,17.4453204 L113.358854,17.3928212 L113.358854,16.8950886 C113.358854,16.762831 113.411353,16.6840823 113.54462,16.6840823 L114.279609,16.6315831 C115.276083,16.5538439 115.645597,16.2368296 115.382091,15.5028507 L113.780866,11.0656604 L108.320952,11.0656604 C107.690962,11.0656604 107.533464,11.1706588 107.403226,11.5108939 L105.87974,15.318094 C105.617244,15.9763529 105.958489,16.5548535 106.929723,16.6336023 L107.690962,16.6871111 C107.79596,16.6871111 107.900958,16.7658598 107.900958,16.8960982 L107.900958,17.3948404 L107.848459,17.4483492 C107.848459,17.4483492 104.987254,17.3948404 104.357264,17.3948404 C104.141422,17.3948404 103.826209,17.4001764 103.495909,17.4074784 L103.163703,17.4153109 C102.556885,17.4304141 101.993791,17.4483492 101.993791,17.4483492 L101.940282,17.3948404 L101.940282,16.8960982 C101.940282,16.7658598 102.019031,16.6871111 102.151289,16.6871111 C103.30728,16.6083623 103.961501,16.397356 104.696489,14.7173822 L110.522888,1.0665859 C110.810624,0.384096563 111.021631,0.120591064 111.416384,0.120591064 Z M55.0503389,5.09630428 C56.881814,5.15688456 58.108437,5.53745255 58.7302121,6.23802698 C59.3519669,6.93862018 59.6402353,7.59585064 59.5950192,8.20968086 C59.6254425,9.06656369 59.2856056,9.90352817 58.5755104,10.7205368 C57.8653949,11.5375642 56.6024221,11.9759741 54.7865858,12.0357479 C54.4353323,12.0361418 54.128465,12.0213062 53.865984,11.9912036 C53.6034928,11.9611198 53.3625649,11.913462 53.143196,11.8481929 L53.143698,15.233562 C53.158576,15.8671696 53.305502,16.271171 53.5844759,16.4455802 C53.8913392,16.6374302 54.4340622,16.7366844 55.212649,16.7433238 C55.27351,16.8113125 55.3039415,16.9144678 55.3039475,17.0527897 C55.3039415,17.1911116 55.27351,17.2942668 55.212649,17.3622556 C54.7181063,17.3524839 54.2463928,17.3438752 53.7975086,17.3364667 C53.3486162,17.3290396 52.8464692,17.3251197 52.2910696,17.3247445 C51.7906106,17.3251197 51.3459485,17.3290396 50.9570832,17.3364667 C50.5682138,17.3438752 50.1336961,17.3524839 49.6535303,17.3622556 C49.5926652,17.2942668 49.5622317,17.1911116 49.5622317,17.0527897 C49.5622317,16.9144678 49.5926632,16.8113125 49.6535303,16.7433238 C50.3484188,16.7448805 50.8201323,16.6479896 51.0686707,16.4526135 C51.3172071,16.2572561 51.4338669,15.7852363 51.4186521,15.0365915 L51.4186521,7.51572712 C51.4338669,6.76710107 51.3172071,6.29508124 51.0686707,6.09970512 C50.8201323,5.90434777 50.3484188,5.80745682 49.6535303,5.80899477 C49.5926652,5.74102482 49.5622317,5.63786953 49.5622317,5.49954767 C49.5622317,5.36122581 49.5926632,5.25807052 49.6535303,5.19008181 C50.1429966,5.19985343 50.5792043,5.20846221 50.9621554,5.21587063 C51.3451024,5.22329781 51.7813101,5.22721771 52.2707806,5.22759282 C52.7086743,5.22213497 53.2074391,5.20024729 53.767075,5.16194855 C54.3267008,5.12366856 54.7544561,5.10178088 55.0503389,5.09630428 Z M69.075077,5.1525708 C69.1325538,5.1525708 69.1596051,5.17134506 69.1562331,5.20883732 C69.1862345,5.33975075 69.2530178,5.71562986 69.356583,6.33649339 C69.4601321,6.95737569 69.5421322,7.48800648 69.6025853,7.92834826 C69.4057758,8.02056909 69.1825987,8.05183452 68.933056,8.0221258 C68.7373461,7.37078456 68.4896538,6.86828703 68.189981,6.51467071 C67.890292,6.16107314 67.3737743,5.9821081 66.6404279,5.97779433 L64.5101078,5.97779433 C64.2666396,5.98405867 64.0840405,6.06534504 63.9623125,6.22161592 C63.8405764,6.37792431 63.7797094,6.57172496 63.7797134,6.80303662 L63.7797134,10.5540817 L65.8263925,10.5549398 C66.5373755,10.550831 66.9862463,10.466917 67.1730064,10.3032268 C67.3767324,10.1246744 67.4764854,9.78317409 67.4722673,9.27872598 C67.5458048,9.22247822 67.6573944,9.19434496 67.8070299,9.1943262 C67.9566533,9.19434496 68.0682408,9.22247822 68.1417946,9.27872598 C68.1312199,9.55225629 68.1219215,9.81170121 68.1138992,10.0570795 C68.1058587,10.3024578 68.1016325,10.5806582 68.1012186,10.8916808 C68.1016325,11.1984084 68.1058587,11.4711509 68.1138972,11.709871 C68.1219215,11.9486286 68.1312199,12.2260413 68.1417946,12.5421466 C68.0682408,12.5984131 67.9566533,12.6265464 67.8070299,12.6265464 C67.6573944,12.6265464 67.5458048,12.5984131 67.4722673,12.5421466 C67.4764854,12.1197726 67.3767324,11.801698 67.1730064,11.587979 C66.9692681,11.3742412 66.4535965,11.2671848 65.6259893,11.2667909 L63.7797134,11.2667909 L63.7797134,15.7868118 C63.7822455,16.0419617 63.8481828,16.2396635 63.9775293,16.3799359 C64.1068657,16.5202083 64.2843925,16.5913292 64.5101078,16.5932798 L67.2693792,16.5932798 C68.0293529,16.575312 68.614346,16.3346226 69.0243565,15.8712115 C69.4343488,15.4078005 69.7352978,14.8295119 69.9272055,14.1363459 C70.1912873,14.0822738 70.4279891,14.1135205 70.6373128,14.2301235 C70.5527645,14.7204862 70.442867,15.2448526 70.3076204,15.8032228 C70.1723515,16.3615743 70.0320205,16.8812518 69.8866274,17.3622556 C69.8392769,17.3606801 69.5281835,17.3544345 68.953345,17.3435 C68.3784882,17.3325468 67.8239307,17.3263012 67.2896682,17.3247445 L62.905229,17.3249634 C62.8140807,17.3259387 62.5062112,17.3297823 61.9816219,17.3364667 C61.3987429,17.3438752 60.8348848,17.3524839 60.2900477,17.3622556 C60.2291827,17.2942668 60.1987492,17.1911116 60.1987492,17.0527897 C60.1987492,16.9144678 60.2291807,16.8113125 60.2900477,16.7433238 C60.9849363,16.7448805 61.4566498,16.6479896 61.7051882,16.4526135 C61.9537245,16.2572561 62.0703843,15.7852363 62.0551696,15.0365915 L62.0551696,7.51572712 C62.0703843,6.76710107 61.9537245,6.29508124 61.7051882,6.09970512 C61.4566498,5.90434777 60.9849363,5.80745682 60.2900477,5.80899477 C60.2291827,5.74102482 60.1987492,5.63786953 60.1987492,5.49954767 C60.1987492,5.36122581 60.2291807,5.25807052 60.2900477,5.19008181 C60.8429152,5.19985343 61.4059293,5.20846221 61.9790858,5.21587063 C62.4949267,5.22255509 62.7971259,5.22639866 62.8856893,5.22737398 L68.0809296,5.22759282 C68.313819,5.22798669 68.4972622,5.22252884 68.631261,5.21118175 C68.7652435,5.19985343 68.9131829,5.18032895 69.075077,5.1525708 Z M77.5727206,5.19008181 C79.5686178,5.23697058 81.2221501,5.86059117 82.5333215,7.06092484 C83.8444686,8.2612585 84.5241425,9.7569914 84.572341,11.5481235 C84.5433967,13.0723835 84.1819561,14.2583693 83.4880191,15.1060619 C82.7940577,15.9537545 81.9411786,16.5451156 80.9293817,16.880164 C79.9175665,17.2152124 78.9204122,17.3759096 77.9379188,17.3622556 C76.9167119,17.3606801 76.1339049,17.3544345 75.5894959,17.3435 C75.0450767,17.3325468 74.5970344,17.3263012 74.245367,17.3247445 C73.744908,17.3251197 73.3002459,17.3290396 72.9113806,17.3364667 C72.5225112,17.3438752 72.0879935,17.3524839 71.6078277,17.3622556 C71.5469626,17.2942668 71.5165291,17.1911116 71.5165291,17.0527897 C71.5165291,16.9144678 71.5469606,16.8113125 71.6078277,16.7433238 C72.3027162,16.7448805 72.7744297,16.6479896 73.0229681,16.4526135 C73.2715045,16.2572561 73.3881643,15.7852363 73.3729495,15.0365915 L73.3729495,7.51572712 C73.3881643,6.76710107 73.2715045,6.29508124 73.0229681,6.09970512 C72.7744297,5.90434777 72.3027162,5.80745682 71.6078277,5.80899477 C71.5469626,5.74102482 71.5165291,5.63786953 71.5165291,5.49954767 C71.5165291,5.36122581 71.5469606,5.25807052 71.6078277,5.19008181 C72.097294,5.19985343 72.5335017,5.20846221 72.9164528,5.21587063 C73.2993998,5.22329781 73.7356075,5.22721771 74.225078,5.22759282 C74.6295821,5.22603611 75.1241187,5.21979053 75.7086918,5.20883732 C76.2932568,5.19790285 76.9145998,5.19165727 77.5727206,5.19008181 Z M48.9255949,5.19008181 C48.9864559,5.25807052 49.0168935,5.36122581 49.0168935,5.49954767 C49.0168935,5.63786953 48.9864539,5.74102482 48.9255949,5.80899477 C48.2307003,5.80745682 47.7589868,5.90434777 47.5104545,6.09970512 C47.261912,6.29508124 47.1452522,6.76710107 47.1604731,7.51572712 L47.1604731,15.0365915 C47.1452522,15.7852363 47.261912,16.2572561 47.5104545,16.4526135 C47.7589868,16.6479896 48.2307003,16.7448805 48.9255949,16.7433238 C48.9864559,16.8113125 49.0168935,16.9144678 49.0168935,17.0527897 C49.0168935,17.1911116 48.9864539,17.2942668 48.9255949,17.3622556 C48.4361225,17.3524839 47.9999148,17.3438752 47.6169698,17.3364667 C47.2340147,17.3290396 46.7978069,17.3251197 46.3083446,17.3247445 C45.8078877,17.3251197 45.3632256,17.3290396 44.9743602,17.3364667 C44.5854909,17.3438752 44.1509732,17.3524839 43.6708073,17.3622556 C43.6099403,17.2942668 43.5795068,17.1911116 43.5795068,17.0527897 C43.5795068,16.9144678 43.6099403,16.8113125 43.6708073,16.7433238 C44.3656959,16.7448805 44.8374094,16.6479896 45.0859478,16.4526135 C45.3344821,16.2572561 45.451144,15.7852363 45.4359292,15.0365915 L45.4359292,7.51572712 C45.451144,6.76710107 45.3344821,6.29508124 45.0859478,6.09970512 C44.8374094,5.90434777 44.3656959,5.80745682 43.6708073,5.80899477 C43.6099403,5.74102482 43.5795068,5.63786953 43.5795068,5.49954767 C43.5795068,5.36122581 43.6099403,5.25807052 43.6708073,5.19008181 C44.1602717,5.19985343 44.5964794,5.20846221 44.9794325,5.21587063 C45.3623795,5.22329781 45.7985872,5.22721771 46.2880556,5.22759282 C46.6884179,5.22729273 47.0530741,5.22472398 47.3820243,5.21990576 L47.9222494,5.21008983 C48.2310168,5.20408514 48.5654644,5.19741052 48.9255949,5.19008181 Z M91.0887015,5.19008181 C91.1495625,5.25807052 91.1800001,5.36122581 91.1800001,5.49954767 C91.1800001,5.63786953 91.1495605,5.74102482 91.0887015,5.80899477 C90.3938069,5.80745682 89.9220934,5.90434777 89.6735611,6.09970512 C89.4250187,6.29508124 89.3083589,6.76710107 89.3235797,7.51572712 L89.3235797,15.0365915 C89.3083589,15.7852363 89.4250187,16.2572561 89.6735611,16.4526135 C89.9220934,16.6479896 90.3938069,16.7448805 91.0887015,16.7433238 C91.1495625,16.8113125 91.1800001,16.9144678 91.1800001,17.0527897 C91.1800001,17.1911116 91.1495605,17.2942668 91.0887015,17.3622556 C90.5992291,17.3524839 90.1630214,17.3438752 89.7800764,17.3364667 C89.3971213,17.3290396 88.9609136,17.3251197 88.4714512,17.3247445 C87.9709943,17.3251197 87.5263322,17.3290396 87.1374669,17.3364667 C86.7485975,17.3438752 86.3140798,17.3524839 85.833914,17.3622556 C85.7730469,17.2942668 85.7426134,17.1911116 85.7426134,17.0527897 C85.7426134,16.9144678 85.7730469,16.8113125 85.833914,16.7433238 C86.5288025,16.7448805 87.000516,16.6479896 87.2490544,16.4526135 C87.4749947,16.2750159 87.5919495,15.8687716 87.5999156,15.2339088 L87.5999156,7.31841441 C87.5919495,6.68356559 87.4749947,6.27731977 87.2490544,6.09970512 C87.000516,5.90434777 86.5288025,5.80745682 85.833914,5.80899477 C85.7730469,5.74102482 85.7426134,5.63786953 85.7426134,5.49954767 C85.7426134,5.36122581 85.7730469,5.25807052 85.833914,5.19008181 C86.3233783,5.19985343 86.759586,5.20846221 87.1425391,5.21587063 C87.5254861,5.22329781 87.9616938,5.22721771 88.4511622,5.22759282 C88.8515245,5.22729273 89.2161808,5.22472398 89.5451309,5.21990576 L90.085356,5.21008983 C90.3941234,5.20408514 90.728571,5.19741052 91.0887015,5.19008181 Z M95.9555429,5.19008181 C96.0164039,5.25807052 96.0468374,5.36122581 96.0468414,5.49954767 C96.0468374,5.63786953 96.0164039,5.74102482 95.9555429,5.80899477 C95.388891,5.81338356 95.02995,5.83934118 94.8787177,5.88683012 C94.7274773,5.93435658 94.7753249,6.14599371 95.0222605,6.52170402 L97.5827015,10.6853702 C97.6678221,10.8381526 97.7410309,10.9217646 97.802326,10.9362251 C97.863609,10.9506856 97.9378323,10.8795647 98.0249959,10.7228812 L100.439358,6.52170402 C100.653732,6.15008241 100.663708,5.93964563 100.469282,5.89035616 C100.274841,5.84108544 99.9470087,5.81398374 99.4857867,5.80899477 C99.4249115,5.74181255 99.394478,5.64178943 99.3944861,5.50892542 C99.394478,5.37608017 99.4249115,5.27605705 99.4857867,5.20883732 C99.8885926,5.21783996 100.23942,5.22329781 100.538265,5.22524838 C100.687678,5.22623305 100.828535,5.22691762 100.960834,5.2273068 L101.577211,5.22759768 C101.746564,5.22734066 101.927755,5.22656127 102.120788,5.22524838 C102.410314,5.22329781 102.708727,5.21783996 103.016028,5.20883732 C103.076883,5.27605705 103.107329,5.37608017 103.107329,5.50892542 C103.107329,5.64178943 103.076883,5.74181255 103.016028,5.80899477 C102.581373,5.82315518 102.24551,5.86754946 102.008437,5.94215887 C101.771346,6.01680578 101.520188,6.27876395 101.254964,6.7280146 L98.6640918,11.0604804 C98.4699888,11.3651448 98.3595841,11.5646471 98.3328777,11.6590061 C98.306157,11.753365 98.2982119,11.9683594 98.3090381,12.3039517 L98.3090381,15.0365915 C98.289587,15.7852363 98.4147012,16.2572561 98.6843808,16.4526135 C98.9540441,16.6479896 99.4849325,16.7448805 100.277048,16.7433238 C100.337905,16.8113125 100.368338,16.9144678 100.368347,17.0527897 C100.368336,17.1911116 100.337905,17.2942668 100.277048,17.3622556 C99.7841914,17.3524839 99.3243125,17.3438752 98.8974113,17.3364667 C98.470496,17.3290396 97.9903301,17.3251197 97.4569117,17.3247445 C96.9124905,17.3251197 96.4238702,17.3290396 95.9910487,17.3364667 C95.5582171,17.3438752 95.1000303,17.3524839 94.6164863,17.3622556 C94.5556152,17.2942668 94.5251837,17.1911116 94.5251857,17.0527897 C94.5251816,16.9144678 94.5556152,16.8113125 94.6164863,16.7433238 C95.4085876,16.7448805 95.939476,16.6479896 96.2091515,16.4526135 C96.4788189,16.2572561 96.6039331,15.7852363 96.5844942,15.0365915 L96.5841223,12.3143 C96.5791881,12.0726979 96.5526827,11.8966227 96.5046062,11.7860746 C96.4469063,11.6534169 96.3315146,11.4615669 96.158431,11.2105244 L93.494518,7.06561371 C93.1081848,6.45551584 92.794892,6.09276559 92.5546416,5.97732544 C92.3143872,5.86192281 91.9939933,5.80580634 91.5934618,5.80899477 C91.5317487,5.74102482 91.497935,5.63786953 91.4920167,5.49954767 C91.4861004,5.36122581 91.5131518,5.25807052 91.5731728,5.19008181 C91.8762358,5.19985343 92.1983179,5.20846221 92.5394249,5.21587063 C92.8805278,5.22329781 93.2482601,5.22721771 93.6426258,5.22759282 C94.0433257,5.22721771 94.4288109,5.22329781 94.7990833,5.21587063 C95.1693497,5.20846221 95.5548369,5.19985343 95.9555429,5.19008181 Z M42.8445089,5.19008181 C42.9053617,5.25807052 42.9357952,5.36122581 42.9358074,5.49954767 C42.9357952,5.63786953 42.9053617,5.74102482 42.8445089,5.80899477 C42.4378764,5.83635906 42.0135033,5.90826767 41.5713895,6.0246831 C41.1292533,6.14113604 40.6744467,6.41933647 40.2069716,6.85930314 L37.3665462,9.69134713 C37.0450038,10.011091 36.8369603,10.2306055 36.7424115,10.3498905 C36.6478525,10.4691943 36.6056676,10.5560135 36.6158608,10.6103482 C36.6145866,10.6838135 36.6323395,10.7572788 36.6691194,10.8307254 C36.7058872,10.9041907 36.7692883,10.9870338 36.8593269,11.0792359 L41.3025641,15.9556113 C41.6524908,16.3267265 41.9898747,16.5494482 42.3147181,16.6237575 C42.6395371,16.6980856 42.8972887,16.7379222 43.087973,16.7433238 C43.1488278,16.8113125 43.1792735,16.9144678 43.1792735,17.0527897 C43.1792735,17.1911116 43.1488258,17.2942668 43.087973,17.3622556 C42.6348462,17.3524839 42.2730302,17.3438752 42.0025249,17.3364667 C41.7319973,17.3290396 41.4107593,17.3251197 41.038809,17.3247445 C40.74123,17.3251197 40.4893115,17.3290396 40.2830533,17.3364667 C40.0767749,17.3438752 39.8755789,17.3524839 39.6794633,17.3622556 C39.6397212,17.361074 39.6126698,17.3493518 39.5983072,17.327089 C39.5839284,17.3048074 39.5771641,17.2790186 39.5780203,17.2497225 C39.5863367,17.0748274 39.5691763,16.8732057 39.5265369,16.6448574 C39.4838792,16.4165091 39.3657809,16.1867542 39.172244,15.9556113 L35.8651774,12.2420585 C35.662622,12.0027383 35.4265979,11.8263615 35.157101,11.7129282 C34.8875939,11.5994949 34.5825871,11.5389333 34.2420766,11.5312436 L34.2420766,15.0365915 C34.2268558,15.7852363 34.3435176,16.2572561 34.592058,16.4526135 C34.8405903,16.6479896 35.3123038,16.7448805 36.0071985,16.7433238 C36.0680594,16.8113125 36.098493,16.9144678 36.098497,17.0527897 C36.098493,17.1911116 36.0680594,17.2942668 36.0071985,17.3622556 C35.5177281,17.3524839 35.0815203,17.3438752 34.6985733,17.3364667 C34.3156202,17.3290396 33.8794125,17.3251197 33.3899502,17.3247445 C32.8894912,17.3251197 32.4448291,17.3290396 32.0559638,17.3364667 C31.6670944,17.3438752 31.2325788,17.3524839 30.7524129,17.3622556 C30.6915459,17.2942668 30.6611124,17.1911116 30.6611124,17.0527897 C30.6611124,16.9144678 30.6915459,16.8113125 30.7524129,16.7433238 C31.4472995,16.7448805 31.9190129,16.6479896 32.1675513,16.4526135 C32.4160877,16.2572561 32.5327475,15.7852363 32.5175328,15.0365915 L32.5175328,7.51572712 C32.5327475,6.76710107 32.4160877,6.29508124 32.1675534,6.09970512 C31.9190129,5.90434777 31.4473015,5.80745682 30.7524129,5.80899477 C30.6915459,5.74102482 30.6611124,5.63786953 30.6611124,5.49954767 C30.6611124,5.36122581 30.6915459,5.25807052 30.7524129,5.19008181 C31.2418773,5.19985343 31.678085,5.20846221 32.061036,5.21587063 C32.4439851,5.22329781 32.8801928,5.22721771 33.3696612,5.22759282 C33.7700235,5.22729273 34.1346784,5.22472398 34.4636281,5.21990576 L35.0038532,5.21008983 C35.3126211,5.20408514 35.6470695,5.19741052 36.0071985,5.19008181 C36.0680594,5.25807052 36.098493,5.36122581 36.098497,5.49954767 C36.098493,5.63786953 36.0680594,5.74102482 36.0071985,5.80899477 C35.3123038,5.80745682 34.8405903,5.90434777 34.592058,6.09970512 C34.3435176,6.29508124 34.2268578,6.76710107 34.2420766,7.51572712 L34.2420766,10.8110321 C34.5915041,10.7807982 34.8862832,10.7020251 35.1264138,10.5747127 C35.3665343,10.4474191 35.5857368,10.2842462 35.7840234,10.0852128 L39.1925331,6.78428111 C39.6415817,6.30946671 39.7604408,6.02970957 39.5491084,5.94497219 C39.3377578,5.86027233 39.0295392,5.81495902 38.6244488,5.80899477 C38.5635736,5.74102482 38.5331401,5.63786953 38.5331482,5.49954767 C38.5331401,5.36122581 38.5635736,5.25807052 38.6244488,5.19008181 C39.0864317,5.19985343 39.4862875,5.20846221 39.8240205,5.21587063 C40.1617332,5.22329781 40.5260853,5.22721771 40.9170769,5.22759282 C41.2928315,5.22721771 41.5963166,5.22329781 41.8275342,5.21587063 C42.0587296,5.20846221 42.3977204,5.19985343 42.8445089,5.19008181 Z M29.9838975,5.19008181 C30.0447585,5.25807052 30.0751961,5.36122581 30.0751961,5.49954767 C30.0751961,5.63786953 30.0447585,5.74102482 29.9838975,5.80899477 C29.2890029,5.80745682 28.8172894,5.90434777 28.5687571,6.09970512 C28.3202167,6.29508124 28.2035569,6.76710107 28.2187757,7.51572712 L28.2187757,15.0365915 C28.2035548,15.7852363 28.3202167,16.2572561 28.5687571,16.4526135 C28.8172894,16.6479896 29.2890029,16.7448805 29.9838975,16.7433238 C30.0447585,16.8113125 30.0751961,16.9144678 30.0751961,17.0527897 C30.0751961,17.1911116 30.0447585,17.2942668 29.9838975,17.3622556 C29.4944271,17.3524839 29.0582194,17.3438752 28.6752724,17.3364667 C28.2923193,17.3290396 27.8561116,17.3251197 27.3666493,17.3247445 C26.8661903,17.3251197 26.4215282,17.3290396 26.0326628,17.3364667 C25.6437935,17.3438752 25.2092779,17.3524839 24.729112,17.3622556 C24.6682449,17.2942668 24.6378114,17.1911116 24.6378114,17.0527897 C24.6378114,16.9144678 24.6682449,16.8113125 24.729112,16.7433238 C25.4239985,16.7448805 25.895712,16.6479896 26.1442504,16.4526135 C26.3927867,16.2572561 26.5094465,15.7852363 26.4942318,15.0365915 L26.4942318,7.51572712 C26.5094465,6.76710107 26.3927867,6.29508124 26.1442524,6.09970512 C25.895712,5.90434777 25.4240005,5.80745682 24.729112,5.80899477 C24.6682449,5.74102482 24.6378114,5.63786953 24.6378114,5.49954767 C24.6378114,5.36122581 24.6682449,5.25807052 24.729112,5.19008181 C25.2185763,5.19985343 25.654784,5.20846221 26.0377351,5.21587063 C26.4206841,5.22329781 26.8568918,5.22721771 27.3463602,5.22759282 C27.7467225,5.22729273 28.1113775,5.22472398 28.4403271,5.21990576 L28.9805523,5.21008983 C29.2893201,5.20408514 29.6237686,5.19741052 29.9838975,5.19008181 Z M76.8017482,5.82767516 C76.295793,5.82503073 75.8874827,5.89615161 75.5768152,6.04109417 C75.2661397,6.18607423 75.1063658,6.42128704 75.0974934,6.7467701 L75.0974934,15.7680562 C75.0653657,16.07047 75.1854077,16.3049139 75.4576193,16.471369 C75.7298208,16.6378241 76.3469375,16.7222239 77.3089675,16.7245683 C78.7820067,16.7644238 80.0255386,16.450269 81.0395612,15.7821229 C82.0535655,15.113958 82.5819178,13.8526689 82.6246201,11.9982369 C82.6338759,11.0127851 82.4552859,10.0516404 82.0888481,9.1147841 C81.7223879,8.1779653 81.1124738,7.4015811 80.2591037,6.78566902 C79.4057153,6.16975694 78.2532648,5.8504632 76.8017482,5.82767516 Z M55.1481176,5.73095517 L54.9083179,5.7339915 C54.1956703,5.7500087 53.7188846,5.88208498 53.4779607,6.13018282 C53.2714475,6.34287027 53.1599614,6.57017782 53.143505,6.81212911 L53.143196,11.3043019 C53.2733784,11.3328291 53.4948634,11.3554857 53.8076531,11.3722907 C54.1204326,11.3890956 54.4129291,11.3976856 54.6851407,11.3980795 C55.6720978,11.4059005 56.4219351,11.1839479 56.9346567,10.732259 C57.4473621,10.2805701 57.705199,9.55225629 57.7081652,8.54727998 C57.6789917,7.38796461 57.3873411,6.62135203 56.8332137,6.24740474 C56.402213,5.95658602 55.9182874,5.78842808 55.3814368,5.74293976 L55.1481176,5.73095517 Z M110.814663,2.95655637 L110.762164,2.95655637 L108.137205,9.62395219 C108.032206,9.88745769 108.214944,9.96519686 108.792435,9.96519686 L113.360873,9.96519686 L110.814663,2.95655637 Z" id="lg-wordmark" fill="#000000" fill-rule="nonzero"></path>
    </g>
</svg>