<?xml version="1.0" encoding="UTF-8"?>
<svg xmlns="http://www.w3.org/2000/svg" width="126" height="11" viewBox="0 0 126 11">
	<title>
		Shape
	</title>
	<g id="Page-1" fill="none" fill-rule="evenodd" stroke="none" stroke-width="1">
		<path id="Shape" fill="#000" fill-rule="nonzero" d="M42.47412,2.847 C43.79412,2.847 44.78512,3.881 44.78512,5.135 C44.78512,6.819 43.70612,7.785 42.23212,7.785 C41.75912,7.785 41.47312,7.677 41.16512,7.488 L41.1648634,8.61275802 L41.1648634,8.61275802 L41.1581929,9.10740525 C41.1489567,9.42040816 41.1274057,9.70057143 41.07712,9.952 L40.16412,10.295 L40.04312,10.097 L40.0955204,9.94630756 L40.0955204,9.94630756 L40.1446981,9.77006672 C40.1604247,9.7062857 40.1754208,9.63708262 40.189493,9.56129346 L40.228745,9.31300375 L40.228745,9.31300375 L40.2612938,9.01821357 C40.2660956,8.96481884 40.2705697,8.90919558 40.274692,8.8511983 L40.2950109,8.47356238 C40.2976293,8.40548702 40.2998475,8.33474663 40.3016415,8.26119572 L40.30712,7.785 L40.30712,7.785 L40.30712,5.651 C40.30712,4.37184211 40.5567377,3.90465097 40.8129243,3.61284167 L40.95612,3.463 L40.95612,3.463 C41.41812,2.98999 41.95712,2.847 42.47412,2.847 Z M47.02712,2.81298 C47.11512,2.81298 47.17012,2.84598 47.17012,2.88998 L47.1470005,3.32468473 L47.1470005,3.32468473 L47.13012,3.80198 L47.13012,3.80198 C47.31112,3.53098 47.84912,2.84599 48.86412,2.84599 C49.61212,2.84599 50.11812,3.31999 50.11812,4.58299 L50.11812,7.74099 L50.121552,8.07359 L50.121552,8.07359 L50.147688,8.99123 C50.1498,9.08443 50.15112,9.17419 50.15112,9.25999 C50.15112,9.524 50.14012,9.74299 50.09612,9.91899 L49.21612,10.29399 L49.09512,10.09599 C49.1427867,9.97132667 49.1757867,9.80743889 49.1986015,9.59792037 L49.2213772,9.32418539 L49.2213772,9.32418539 L49.236096,9.00418488 L49.236096,9.00418488 L49.2444788,8.63545882 L49.2444788,8.63545882 L49.2482465,8.2155472 L49.2482465,8.2155472 L49.24912,4.71799 C49.24912,4.00199 49.12812,3.41999 48.45712,3.41999 C47.84812,3.41999 47.46512,3.742 47.12612,4.26199 L47.1274108,6.9753519 L47.1336965,7.15715698 C47.1448088,7.48743495 47.1355486,7.78499 46.80712,7.78499 C46.45512,7.78499 46.30112,7.67699 46.25712,7.48799 C46.2497867,7.45166 46.2473422,7.39443778 46.2473422,7.32695519 L46.25712,6.88399 L46.25712,6.88399 L46.25712,4.18899 C46.25712,3.64471467 46.1699911,3.52483964 45.7568299,3.46543758 L45.54212,3.44099 L45.54212,3.44099 C45.52012,3.37499 45.49812,3.19899 45.52012,3.13198 C45.67192,3.111978 45.81076,3.0920568 45.938256,3.07201616 L46.288328,3.01133568 C46.34154,3.0010958 46.39232,2.990776 46.44087,2.98035125 L46.707026,2.91634311 C46.82834,2.8835091 46.93322,2.84928 47.02712,2.81298 Z M58.67812,2.81801 C58.77812,2.81801 58.83212,2.87501 58.87712,2.96301 C59.35013,4.07301 59.84412,5.23001 60.19612,6.39601 C60.31052,6.10961 60.4286,5.79873 60.54812,5.477386 L61.08812,4.00801 C61.23112,3.63301 61.36212,3.18301 61.39612,2.88501 C61.4304057,2.89786714 61.4873037,2.90794878 61.5531229,2.91579134 L61.7636535,2.93313828 L61.7636535,2.93313828 L62.00012,2.94101 L62.00012,2.94101 L62.1492311,2.93815815 C62.2494533,2.93245444 62.3594533,2.91534333 62.52812,2.86401 L62.58412,2.88501 C62.32662,3.19751 62.16912,3.47041972 61.9837265,3.81486764 L60.68012,6.28601 C60.57112,6.507 60.46112,6.73701 60.36212,6.95801 L60.43912,7.28801 C60.47112,7.42182636 60.5009382,7.55458554 60.5283101,7.68391319 L60.6028225,8.05922722 L60.6028225,8.05922722 L60.6610704,8.39970609 C60.7023927,8.66496661 60.72512,8.87910091 60.72512,9.00501 C60.72512,9.70801 60.59212,10.27001 59.94412,10.27001 C59.44912,10.27001 59.24012,9.63201 59.24012,9.16901 C59.23932,8.88341 59.28844,8.57349 59.381336,8.285842 L59.45912,8.075 L59.75612,7.38401 C59.5214533,6.61401 59.1645644,5.76578778 58.8128607,4.98897296 L58.4676042,4.24150246 C58.4119225,4.1227384 58.3575644,4.00734333 58.30512,3.89601 C58.1575644,3.57423222 58.0021077,3.55507173 57.8387496,3.55478641 L57.6887763,3.55672875 L57.6887763,3.55672875 L57.4955888,3.56429125 C57.45812,3.5653225 57.41687,3.56601 57.37012,3.56601 C57.28512,3.45702 57.26612,3.33601 57.31512,3.22501 L57.9187352,3.0648557 C58.2372606,2.97746312 58.513745,2.893635 58.67812,2.81801 Z M59.92212,7.998 C59.76712,8.44899 59.68012,8.835 59.68012,9.086 C59.68012,9.525 59.76812,9.834 59.93212,9.834 C60.08612,9.834 60.14112,9.63699 60.14112,9.351 L60.1323793,9.13272016 C60.1112928,8.85355556 60.0496756,8.48566667 59.92212,7.998 Z M80.68012,0.003 L80.786993,0.007741 C81.12974,0.03934 81.65822,0.2557 82.01012,1.423 L83.3659049,5.908085 L83.3659049,5.908085 L83.512309,6.35633 C83.542162,6.44229 83.570496,6.51952 83.597848,6.58876 L83.677495,6.77325 C83.80712,7.04325 83.92562,7.132 84.10012,7.132 C84.33212,7.132 84.55112,7.076 84.78412,6.79 C84.90712,6.816 84.96812,6.867 85.00512,6.96799 C84.8214836,7.35981727 84.4510704,7.73097512 84.1448195,7.79522013 L84.05512,7.805 C83.54272,7.805 83.2777156,7.38425333 82.9950566,6.49479081 L82.15312,3.691 L80.58112,7.685 C80.28212,7.706 80.00912,7.75 79.75512,7.817 L79.48212,7.685 L81.91212,2.899 L81.76912,2.42599 C81.3518473,1.04599 80.966806,0.728799917 80.6680907,0.682533952 L80.58112,0.67599 L80.58112,0.67599 C80.30812,0.67599 80.02012,0.78498 79.80012,0.94999 C79.72012,0.92399 79.63612,0.90399 79.61212,0.76299 C79.89912,0.34499 80.25112,0.003 80.68012,0.003 Z M15.54712,0.003 L15.654021,0.007741 C15.99693,0.03934 16.52622,0.2557 16.87812,1.423 L18.2324684,5.908085 L18.2324684,5.908085 L18.3326356,6.22075 L18.3326356,6.22075 L18.4221379,6.478815 C18.4363465,6.5175225 18.450246,6.55414 18.463904,6.58876 L18.543495,6.77325 C18.67312,7.04325 18.79212,7.132 18.96812,7.132 C19.19912,7.132 19.41912,7.076 19.65012,6.79 C19.77512,6.816 19.83412,6.867 19.87012,6.96799 C19.69012,7.35981727 19.3192109,7.73097512 19.0135911,7.79522013 L18.92412,7.805 C18.37412,7.805 18.11012,7.322 17.80212,6.297 L17.02112,3.691 L15.44812,7.685 C15.15112,7.706 14.87612,7.75 14.62312,7.817 L14.34812,7.685 L16.77912,2.899 L16.63612,2.42599 C16.2188473,1.04599 15.8329795,0.728799917 15.5348653,0.682533952 L15.44812,0.67599 L15.44812,0.67599 C15.17312,0.67599 14.88712,0.78498 14.66712,0.94999 C14.58712,0.92399 14.50312,0.90399 14.48012,0.76299 C14.76612,0.34499 15.11812,0.003 15.54712,0.003 Z M117.70312,2.855 L117.72412,3.912 L117.72412,3.912 L117.72412,6.706 C117.72412,7.036 117.75712,7.201 117.97612,7.201 C118.28512,7.201 118.50512,6.992 118.71412,6.72799 C118.83112,6.74999 118.91512,6.80499 118.94412,6.91499 C118.71412,7.32199 118.23912,7.808 117.76612,7.808 C117.14912,7.808 116.85212,7.466 116.85212,6.90601 L116.85212,4.14401 C116.85512,3.83397 116.84612,3.34897 116.65612,2.96501 L116.67912,2.943 L116.801527,2.95403704 L116.801527,2.95403704 L117.15212,2.965 L117.15212,2.965 C117.36112,2.965 117.53912,2.92 117.70312,2.855 Z M104.84112,2.855 L104.86212,3.912 L104.86212,3.912 L104.86212,6.706 C104.86212,7.036 104.89512,7.201 105.11612,7.201 C105.42512,7.201 105.64312,6.992 105.85212,6.72799 C105.96912,6.74999 106.05512,6.80499 106.08212,6.91499 C105.85212,7.32199 105.37912,7.808 104.90412,7.808 C104.28912,7.808 103.99212,7.466 103.99212,6.90601 L103.99212,4.14401 C103.99512,3.83397 103.98312,3.34897 103.79612,2.96501 L103.81712,2.943 L103.940046,2.95403704 L103.940046,2.95403704 L104.29212,2.965 L104.29212,2.965 C104.50112,2.965 104.67712,2.92 104.84112,2.855 Z M87.85912,2.855 C89.56412,2.855 90.17212,4.186 90.17212,5.331 C90.17212,6.433 89.47912,7.796 87.84012,7.796 C86.28712,7.796 85.52712,6.552 85.52712,5.431 C85.52712,4.033 86.37512,2.855 87.85912,2.855 Z M96.46412,2.965 L96.58612,3.095 C96.39812,3.491 96.04712,3.712 95.57212,3.712 L95.02312,3.712 L95.0168198,3.79994556 L95.0168198,3.79994556 L95.0028142,4.14915252 L95.0028142,4.14915252 L94.9948335,4.63172649 L94.9948335,4.63172649 L94.9906356,5.49442188 L94.9906356,5.49442188 L94.99012,6.518 C94.99012,6.98001 95.09012,7.18901 95.34412,7.18901 L95.4380783,7.18463037 C95.6298144,7.16731556 95.9857867,7.08634333 96.33412,6.73801 C96.44112,6.75001 96.49812,6.80401 96.53112,6.914 C96.27712,7.256 95.70712,7.795 95.18712,7.795 C94.5280575,7.795 94.3216317,7.54451172 94.298403,6.82270996 L94.2985106,6.11853125 L94.2985106,6.11853125 L94.3147867,4.90103704 L94.3147867,4.90103704 L94.34112,3.713 L94.34112,3.713 L92.97612,3.713 L92.9703754,4.24597847 L92.9703754,4.24597847 L92.9527652,4.74316311 C92.8538846,6.73970868 92.4312924,7.795 91.50112,7.795 C91.25912,7.795 91.07112,7.68601 91.07112,7.42 C91.07112,7.2485 91.199745,7.07470313 91.4214891,6.98971875 L91.6469968,6.92627047 L91.6469968,6.92627047 L91.728178,6.89720095 C91.7415356,6.89161198 91.7547999,6.88559883 91.7679607,6.87908329 L91.8455992,6.83333559 C92.0488772,6.69192779 92.2203198,6.38185918 92.3174138,5.58274317 L92.3502558,5.25952481 L92.3502558,5.25952481 L92.3756295,4.88670373 C92.3792084,4.82022474 92.3824554,4.75152253 92.38536,4.68051888 L92.398597,4.22625396 L92.398597,4.22625396 L92.40312,3.713 L92.40312,3.713 L92.20412,3.713 C91.65512,3.713 91.34712,3.955 91.14912,4.582 C91.02812,4.627 90.89912,4.584 90.88312,4.494 C90.97112,3.834 91.36712,2.965 92.40312,2.965 L96.46412,2.965 Z M32.43012,0.005 C33.31012,0.005 34.66312,0.984 34.66312,3.9 C34.66312,6.916 33.24412,7.795 32.36412,7.795 C31.41812,7.795 30.13112,6.89501 30.13112,3.9 C30.13112,1.258 31.35212,0.005 32.43012,0.005 Z M75.51012,2.81699 C75.59812,2.81699 75.65312,2.84999 75.65312,2.89399 L75.6260552,3.41766321 L75.6260552,3.41766321 L75.6107829,3.89471558 C75.6099774,3.93551652 75.6093316,3.97616813 75.6088779,4.01636218 L75.60812,4.98499 C75.76212,4.98499 75.86212,4.91199 76.07112,4.65499 L76.48912,4.13698 C77.25112,3.19698 77.62412,2.84998 78.11812,2.84998 C78.46012,2.84998 78.68812,2.98198 78.68812,3.36898 C78.68812,3.55598 78.50212,3.74198 78.29312,3.74198 C78.14192,3.74198 78.0336,3.69334 77.946656,3.628828 L77.88512,3.57798 C77.80912,3.49998 77.70912,3.47698 77.64312,3.47698 C77.56112,3.47698 77.48687,3.52398 77.38087,3.63698 L77.2628237,3.7726837 L77.2628237,3.7726837 L76.92812,4.19298 L76.92812,4.19298 L76.54312,4.66599 C76.51012,4.71099 76.51012,4.75399 76.51012,4.80999 C76.51012,4.91099 76.63112,5.09599 76.71912,5.229 L77.756632,6.89401041 C77.91388,7.1393049 78.01272,7.252 78.18212,7.252 C78.33612,7.252 78.42412,7.176 78.59012,6.978 C78.70912,7.006 78.76812,7.076 78.79912,7.165 C78.43612,7.628 78.12712,7.792 77.70912,7.792 C77.4652867,7.792 77.2777519,7.63402778 76.9531819,7.13400018 L76.05812,5.70201 L75.9669794,5.5473225 C75.880495,5.40501 75.79612,5.30601 75.60712,5.30601 L75.6084254,6.9813619 L75.6148146,7.16316698 C75.6261914,7.49344495 75.6175486,7.791 75.28912,7.791 C74.93512,7.791 74.78112,7.683 74.73812,7.494 L74.7320907,7.44515975 L74.7320907,7.44515975 L74.7288915,7.30763408 L74.7288915,7.30763408 L74.73812,6.89 L74.73812,6.89 L74.73812,4.195 C74.73612,3.56499 74.62312,3.50199 74.02312,3.445 C74.00212,3.379 73.97812,3.203 74.00212,3.13599 C74.15412,3.115988 74.29304,3.0960668 74.420552,3.07602616 L74.770536,3.01534568 C74.82372,3.0051058 74.87447,2.994786 74.922995,2.98436125 L75.189117,2.92035311 C75.3105,2.8875191 75.41562,2.85329 75.51012,2.81699 Z M64.55312,2.81699 C64.64112,2.81699 64.69612,2.84999 64.69612,2.89399 L64.6618683,3.65058386 L64.6618683,3.65058386 L64.6538442,4.01636218 L64.6538442,4.01636218 L64.65312,4.98499 C64.78787,4.98499 64.8812763,4.92909938 65.0411962,4.7429568 L65.53212,4.13698 C66.29412,3.19698 66.66712,2.84998 67.16112,2.84998 C67.50312,2.84998 67.73312,2.98198 67.73312,3.36898 C67.73312,3.55598 67.54512,3.74198 67.33812,3.74198 C67.18692,3.74198 67.07988,3.69334 66.992424,3.628828 L66.93012,3.57798 C66.85412,3.49998 66.75412,3.47698 66.68812,3.47698 C66.60612,3.47698 66.53187,3.52398 66.42587,3.63698 L66.3078237,3.7726837 L66.3078237,3.7726837 L65.97312,4.19298 L65.97312,4.19298 L65.58812,4.66599 C65.55512,4.71099 65.55512,4.75399 65.55512,4.80999 C65.55512,4.91099 65.67612,5.09599 65.76412,5.229 L66.801632,6.89401041 C66.95888,7.1393049 67.05772,7.252 67.22712,7.252 C67.38112,7.252 67.46912,7.176 67.63512,6.978 C67.75412,7.006 67.81312,7.076 67.84412,7.165 C67.48112,7.628 67.17212,7.792 66.75412,7.792 C66.51212,7.792 66.3230575,7.63402778 65.9982201,7.13400018 L65.10312,5.70201 L65.0119794,5.5473225 C64.925495,5.40501 64.84112,5.30601 64.65212,5.30601 L64.6534254,6.9813619 L64.6598146,7.16316698 C64.6711914,7.49344495 64.6625486,7.791 64.33412,7.791 C63.98012,7.791 63.82612,7.683 63.78312,7.494 L63.7770907,7.44515975 L63.7770907,7.44515975 L63.7738915,7.30763408 L63.7738915,7.30763408 L63.78312,6.89 L63.78312,6.89 L63.78312,4.195 L63.7754116,3.97190676 C63.7418311,3.54829684 63.58612,3.49439133 63.06612,3.445 C63.04512,3.379 63.02312,3.203 63.04512,3.13599 C63.19712,3.115988 63.33604,3.0960668 63.463552,3.07602616 L63.813536,3.01534568 C63.86672,3.0051058 63.91747,2.994786 63.965995,2.98436125 L64.232117,2.92035311 C64.3535,2.8875191 64.45862,2.85329 64.55312,2.81699 Z M28.09712,2.817 C28.79012,2.817 29.21912,3.622 29.21912,4.94101 C29.21912,6.85501 28.13012,7.79001 27.05212,7.79001 C25.63708,7.79001 25.3473136,6.9891396 25.3263964,5.77756738 L25.32512,4.19301 C25.32512,3.565 25.20912,3.50101 24.61012,3.44501 C24.58812,3.38001 24.56612,3.20401 24.58812,3.136 L25.006256,3.076424 C25.133752,3.056448 25.249904,3.036296 25.356328,3.015792 L25.648032,2.953048 C25.8252,2.91028 25.96992,2.8654 26.09512,2.817 C26.18312,2.817 26.23812,2.85 26.23812,2.894 L26.2116566,3.41767321 L26.2116566,3.41767321 L26.1967237,3.89472558 C26.1959361,3.93552652 26.1953047,3.97617813 26.194861,4.01637218 L26.19412,5.445 C26.19412,5.5561 26.19478,5.66412 26.196859,5.768565 L26.208112,6.07068 C26.25352,6.84508 26.43832,7.359 27.15112,7.359 C28.16312,7.359 28.76812,6.149 28.76812,5.071 C28.76812,4.26270588 28.5622792,3.97603114 28.3227622,3.80761856 L28.2104516,3.73681824 L28.2104516,3.73681824 L28.09712,3.674 L28.09712,3.674 C27.87712,3.554 27.72312,3.4 27.72312,3.14701 C27.72312,2.95901 27.91012,2.817 28.09712,2.817 Z M72.06412,2.817 C72.75712,2.817 73.18512,3.622 73.18512,4.94101 C73.18512,6.85501 72.09712,7.79001 71.01912,7.79001 C69.60312,7.79001 69.3123936,6.9891396 69.2914011,5.77756738 L69.29012,4.19301 C69.29012,3.565 69.17512,3.50101 68.57512,3.44501 C68.55412,3.38001 68.53012,3.20401 68.55412,3.136 L68.772519,3.106278 L68.772519,3.106278 L69.155473,3.046306 C69.213734,3.036208 69.269352,3.026044 69.322536,3.015792 L69.614104,2.953048 L69.614104,2.953048 L69.857288,2.887136 L69.857288,2.887136 L70.06212,2.817 L70.06212,2.817 C70.15012,2.817 70.20512,2.85 70.20512,2.894 L70.1780552,3.41767321 L70.1780552,3.41767321 L70.1627829,3.89472558 C70.1619774,3.93552652 70.1613316,3.97617813 70.1608779,4.01637218 L70.16012,5.445 C70.16012,5.5561 70.16078,5.66412 70.162859,5.768565 L70.174112,6.07068 C70.21952,6.84508 70.40432,7.359 71.11712,7.359 C72.13112,7.359 72.73612,6.149 72.73612,5.071 C72.73612,4.26270588 72.5291096,3.97603114 72.2894894,3.80761856 L72.1772151,3.73681824 L72.1772151,3.73681824 L72.06412,3.674 C71.84312,3.554 71.68912,3.4 71.68912,3.14701 C71.68912,2.95901 71.87812,2.817 72.06412,2.817 Z M12.11412,2.852 C12.96112,2.852 13.59912,3.248 13.59912,3.64401 C13.59912,3.962 13.39012,4.05002 13.24712,4.05002 C13.00512,4.05002 12.89512,3.87403 12.78512,3.68802 C12.66412,3.44702 12.47712,3.21402 12.04812,3.21402 L11.905045,3.21895037 C11.58392,3.24337111 11.21212,3.37695333 11.21212,4.00702 C11.21212,4.76602 11.60812,5.00702 12.08112,5.00702 L12.6026747,4.95438328 C12.621495,4.95287938 12.635245,4.95202 12.64212,4.95202 C12.85112,4.95202 12.96112,5.05203 12.96112,5.18302 C12.96112,5.31401 12.88412,5.43603 12.63112,5.43603 L12.5658839,5.43114111 L12.5658839,5.43114111 L12.1399394,5.37491889 C12.1107589,5.37186333 12.08662,5.37003 12.07012,5.37003 C11.45412,5.37003 11.09112,5.73304 11.09112,6.34903 C11.0901867,6.89499267 11.4934489,7.31558502 12.0391087,7.3692375 L12.15812,7.375 C12.67512,7.375 13.09312,7.198 13.52212,6.901 C13.61812,6.931 13.68312,7.013 13.68712,7.132 C13.32412,7.473 12.73012,7.79 12.03712,7.79 C10.58512,7.79 10.22212,7.075 10.22212,6.437 C10.22212,6.019 10.43112,5.436 11.22312,5.161 L11.22312,5.14 C10.71912,4.927 10.43112,4.616 10.43112,4.083 C10.43112,3.644 10.81612,2.852 12.11412,2.852 Z M108.44912,-8.8817842e-16 C108.81212,-8.8817842e-16 109.19987,0.129375 109.529261,0.268316719 L109.83612,0.40601 L109.83612,0.40601 L110.051032,0.51442216 C110.3526,0.6700036 110.68412,0.86361 110.68412,1.02201 C110.68412,1.34101 110.35412,1.41801 110.20012,1.41801 C109.961245,1.41801 109.720073,1.29091625 109.51546,1.04677758 L109.43012,0.93501 C109.15512,0.53901 108.82512,0.363 108.53712,0.363 C107.97412,0.363 107.83412,0.63799 107.83412,0.925 C107.83412,1.1986 108.0594,1.47156 108.577544,1.902088 L108.861334,2.13121511 C108.912804,2.17183556 108.966387,2.21373333 109.02212,2.257 L109.80312,2.839 C110.23112,3.14801 110.56112,3.522 110.79112,3.906 C111.04512,4.345 111.17812,4.798 111.17812,5.216 C111.17812,7.009 109.95512,7.79 108.78912,7.79 C107.42612,7.79 106.56612,6.777 106.56612,5.558 C106.56612,4.27 107.77712,3.369 108.71212,2.951 L108.54612,2.815 C107.64612,2.08 107.27112,1.649 107.27112,1.078 C107.27112,0.395 107.78912,-8.8817842e-16 108.44912,-8.8817842e-16 Z M22.32212,2.852 C23.16912,2.852 23.80712,3.248 23.80712,3.64401 C23.80712,3.962 23.59812,4.05002 23.45512,4.05002 C23.21312,4.05002 23.10312,3.87403 22.99312,3.68802 C22.87212,3.44702 22.68512,3.21402 22.25612,3.21402 L22.113045,3.21895037 C21.79192,3.24337111 21.42012,3.37695333 21.42012,4.00702 C21.42012,4.76602 21.81612,5.00702 22.28912,5.00702 L22.8106747,4.95438328 C22.829495,4.95287938 22.843245,4.95202 22.85012,4.95202 C23.05912,4.95202 23.16912,5.05203 23.16912,5.18302 C23.16912,5.31401 23.09212,5.43603 22.83912,5.43603 L22.7738839,5.43114111 L22.7738839,5.43114111 L22.3479394,5.37491889 C22.3187589,5.37186333 22.29462,5.37003 22.27812,5.37003 C21.66212,5.37003 21.29912,5.73304 21.29912,6.34903 C21.29912,6.89499267 21.7015733,7.31558502 22.2471212,7.3692375 L22.36612,7.375 C22.88312,7.375 23.30212,7.198 23.73012,6.901 C23.82612,6.931 23.89112,7.013 23.89512,7.132 C23.53212,7.473 22.93812,7.79 22.24512,7.79 C20.79212,7.79 20.43012,7.075 20.43012,6.437 C20.43012,6.019 20.63912,5.436 21.43112,5.161 L21.43112,5.14 C20.92712,4.927 20.63912,4.616 20.63912,4.083 C20.63912,3.644 21.02412,2.852 22.32212,2.852 Z M113.94412,2.852 C114.79212,2.852 115.42812,3.248 115.42812,3.64401 C115.42812,3.962 115.21912,4.05002 115.07612,4.05002 C114.83412,4.05002 114.72212,3.87403 114.61312,3.68802 C114.49212,3.44702 114.30412,3.21402 113.87712,3.21402 L113.733745,3.21895037 C113.412169,3.24337111 113.04112,3.37695333 113.04112,4.00702 C113.04112,4.76602 113.43712,5.00702 113.91012,5.00702 L114.431716,4.95438328 C114.450511,4.95287938 114.464245,4.95202 114.47112,4.95202 C114.68012,4.95202 114.79112,5.05203 114.79112,5.18302 C114.79112,5.31401 114.71312,5.43603 114.46112,5.43603 L114.395111,5.43114111 L114.395111,5.43114111 L113.968296,5.37491889 C113.939037,5.37186333 113.914787,5.37003 113.89812,5.37003 C113.28312,5.37003 112.91912,5.73304 112.91912,6.34903 C112.920053,6.89499267 113.32344,7.31558502 113.867482,7.3692375 L113.98612,7.375 C114.50412,7.375 114.92212,7.198 115.35112,6.901 C115.44712,6.931 115.51112,7.013 115.51512,7.132 C115.15212,7.473 114.55812,7.79 113.86512,7.79 C112.41412,7.79 112.05112,7.075 112.05112,6.437 C112.05112,6.019 112.26012,5.436 113.05312,5.161 L113.05312,5.14 C112.54912,4.927 112.26012,4.616 112.26012,4.083 C112.26012,3.644 112.64512,2.852 113.94412,2.852 Z M55.14712,2.852 C55.99412,2.852 56.63212,3.248 56.63212,3.64401 C56.63212,3.962 56.42312,4.05002 56.28012,4.05002 C56.03812,4.05002 55.92812,3.87403 55.81812,3.68802 C55.69712,3.44702 55.51012,3.21402 55.08112,3.21402 L54.938045,3.21895037 C54.61692,3.24337111 54.24512,3.37695333 54.24512,4.00702 C54.24512,4.76602 54.64112,5.00702 55.11412,5.00702 L55.6356747,4.95438328 C55.654495,4.95287938 55.668245,4.95202 55.67512,4.95202 C55.88412,4.95202 55.99412,5.05203 55.99412,5.18302 C55.99412,5.31401 55.91712,5.43603 55.66412,5.43603 L55.5988839,5.43114111 L55.5988839,5.43114111 L55.1729394,5.37491889 C55.1437589,5.37186333 55.11962,5.37003 55.10312,5.37003 C54.48712,5.37003 54.12412,5.73304 54.12412,6.34903 C54.12412,6.89499267 54.5265646,7.31558502 55.0721194,7.3692375 L55.19112,7.375 C55.70812,7.375 56.12612,7.198 56.55512,6.901 C56.65112,6.931 56.71612,7.013 56.72012,7.132 C56.35712,7.473 55.76312,7.79 55.07012,7.79 C53.61812,7.79 53.25512,7.075 53.25512,6.437 C53.25512,6.019 53.46412,5.436 54.25612,5.161 L54.25612,5.14 C53.75212,4.927 53.46412,4.616 53.46412,4.083 C53.46412,3.644 53.84912,2.852 55.14712,2.852 Z M37.45812,2.852 C38.30512,2.852 38.94312,3.248 38.94312,3.64401 C38.94312,3.962 38.73412,4.05002 38.59112,4.05002 C38.34912,4.05002 38.23912,3.87403 38.12912,3.68802 C38.00812,3.44702 37.82112,3.21402 37.39212,3.21402 L37.249045,3.21895037 C36.92792,3.24337111 36.55612,3.37695333 36.55612,4.00702 C36.55612,4.76602 36.95212,5.00702 37.42512,5.00702 L37.9466747,4.95438328 C37.965495,4.95287938 37.979245,4.95202 37.98612,4.95202 C38.19512,4.95202 38.30512,5.05203 38.30512,5.18302 C38.30512,5.31401 38.22812,5.43603 37.97512,5.43603 L37.9098839,5.43114111 L37.9098839,5.43114111 L37.4839394,5.37491889 C37.4547589,5.37186333 37.43062,5.37003 37.41412,5.37003 C36.79812,5.37003 36.43512,5.73304 36.43512,6.34903 C36.43512,6.89499267 36.8375733,7.31558502 37.3831212,7.3692375 L37.50212,7.375 C38.01912,7.375 38.43812,7.198 38.86612,6.901 C38.96212,6.931 39.02712,7.013 39.03112,7.132 C38.66812,7.473 38.07412,7.79 37.38112,7.79 C35.92812,7.79 35.56612,7.075 35.56612,6.437 C35.56612,6.019 35.77512,5.436 36.56712,5.161 L36.56712,5.14 C36.06312,4.927 35.77512,4.616 35.77512,4.083 C35.77512,3.644 36.16012,2.852 37.45812,2.852 Z M99.59812,2.847 C100.356557,2.847 100.786284,3.3101748 101.01584,4.1566236 L101.05912,4.331 C101.076977,4.40957143 101.091263,4.40753061 101.109266,4.36970262 L101.65412,2.902 C101.81812,2.902 102.01712,2.958 102.18112,2.958 L102.315261,2.94925 L102.315261,2.94925 L102.598917,2.91075 C102.643182,2.9055 102.68437,2.902 102.72012,2.902 L101.34512,5.575 L101.50612,6.215 C101.64912,6.799 101.86712,7.11699 102.11912,7.11699 C102.39412,7.11699 102.53912,7.03899 102.72412,6.70899 C102.85712,6.70899 102.93312,6.75399 102.99912,6.82999 C102.75712,7.52298 102.48112,7.787 101.99712,7.787 C101.59112,7.787 101.30612,7.426 101.13012,6.67799 L101.02812,6.248 C100.47912,7.338 99.97312,7.787 99.22512,7.787 C97.81712,7.787 97.22112,6.88701 97.22112,5.521 C97.22112,3.498 98.59612,2.847 99.59812,2.847 Z M121.77111,2.847 C122.58011,2.847 123.01311,3.37399 123.23211,4.331 C123.249967,4.40957143 123.264253,4.40753061 123.282256,4.36970262 L123.82711,2.902 C123.99111,2.902 124.19012,2.958 124.3541,2.958 L124.488241,2.94925 L124.488241,2.94925 L124.771897,2.91075 C124.816162,2.9055 124.85735,2.902 124.8931,2.902 L123.5181,5.575 L123.67612,6.215 C123.82112,6.799 124.03913,7.11699 124.29312,7.11699 C124.56611,7.11699 124.71112,7.03899 124.89712,6.70899 C125.03012,6.70899 125.10612,6.75399 125.17211,6.82999 C124.93011,7.52298 124.6541,7.787 124.17011,7.787 C123.7641,7.787 123.47912,7.426 123.30111,6.67799 L123.20111,6.248 C122.6521,7.338 122.14411,7.787 121.39611,7.787 C119.98811,7.787 119.39411,6.88701 119.39411,5.521 C119.39411,3.498 120.76911,2.847 121.77111,2.847 Z M7.59781,0.64471 C7.63347,0.68381 7.65154,0.75119 7.65154,0.84693 C7.65154,0.94263 7.63396,1.00812 7.5983,1.0433 C7.19091,1.057 6.93104,1.1166 6.81967,1.22111 C6.70781,1.32563 6.65212,1.59529 6.65212,2.031 L6.65212,6.395 C6.65212,6.83071 6.70781,7.10035 6.81967,7.20489 C6.93104,7.30943 7.19091,7.37097 7.5983,7.38856 C7.63396,7.42866 7.65154,7.49603 7.65154,7.59371 C7.65154,7.69041 7.63347,7.7549 7.59781,7.78617 L6.3422532,7.763706 L6.3422532,7.763706 L5.9907089,7.7639486 L5.9907089,7.7639486 L4.74601,7.78617 L4.74601,7.78617 C4.72354,7.75487 4.71231,7.69047 4.71231,7.59371 C4.71231,7.49601 4.72648,7.42861 4.75481,7.38856 C5.1622,7.37486 5.42304,7.31426 5.53637,7.20782 C5.6497,7.10231 5.70636,6.83071 5.70636,6.39598 L5.70636,4.23398 L1.94506,4.23398 L1.94506,6.39598 C1.94506,6.83072 2.00221,7.10133 2.11652,7.20489 C2.23131,7.30943 2.49216,7.37097 2.90003,7.38856 C2.92885,7.42866 2.94399,7.49603 2.94595,7.59371 C2.94742,7.69041 2.93227,7.7549 2.90003,7.78617 L1.63629912,7.763706 L1.63629912,7.763706 L1.28521071,7.7639486 L1.28521071,7.7639486 L0.05373,7.78617 L0.05373,7.78617 C0.01758,7.75487 0,7.69047 0,7.59371 C0,7.49601 0.01759,7.42861 0.05324,7.38856 C0.46063,7.37486 0.7205,7.31426 0.83187,7.20782 C0.94373,7.10133 0.99942,6.83071 0.99942,6.395 L0.99942,2.031 C0.99942,1.59529 0.94373,1.32563 0.83187,1.22111 C0.7205,1.11657 0.46063,1.05697 0.05324,1.0433 C0.01758,1.012 0,0.9476 0,0.84986 C0,0.75216 0.01759,0.68378 0.05373,0.64471 L1.3092868,0.667174 L1.3092868,0.667174 L1.92551903,0.663421934 L1.92551903,0.663421934 L2.90013,0.64471 L2.90013,0.64471 C2.92895,0.68381 2.94409,0.75119 2.94605,0.84693 C2.94752,0.94263 2.93237,1.00812 2.90013,1.0433 C2.48883,1.057 2.22701,1.1166 2.11417,1.22111 C2.00133,1.32563 1.94516,1.59529 1.94516,2.031 L1.94516,3.7729 L5.70646,3.7729 L5.70646,2.031 C5.70646,1.59529 5.6498,1.32563 5.53647,1.22111 C5.42314,1.11657 5.1623,1.05697 4.75491,1.0433 C4.72658,1.012 4.71241,0.9476 4.71241,0.84986 C4.71241,0.75216 4.72364,0.68378 4.74611,0.64471 L6.01318168,0.667174 L6.01318168,0.667174 L6.62963318,0.663421934 L6.62963318,0.663421934 L7.59781,0.64471 L7.59781,0.64471 Z M87.74112,3.217 C86.81612,3.217 86.47412,4.219 86.47412,5.176 C86.47412,6.02401 86.89212,7.432 88.03712,7.432 C88.55512,7.432 89.22512,7.135 89.22512,5.682 C89.22512,4.065 88.68612,3.217 87.74112,3.217 Z M109.03012,3.201 C108.18412,3.619 107.44612,4.267 107.44612,5.357 C107.44612,6.24801 107.88512,7.425 108.90912,7.425 L108.977863,7.42354899 L108.977863,7.42354899 L109.1212,7.41053318 C109.658014,7.3346448 110.29612,6.92372 110.29612,5.345 C110.29612,4.774 109.94212,3.949 109.38212,3.487 L109.03012,3.201 Z M42.25412,3.265 C41.78112,3.265 41.16512,3.562 41.16512,5.168 L41.16512,6.852 C41.50612,7.182 41.89112,7.42401 42.38612,7.42401 C43.29912,7.42401 43.8381221,6.77501 43.8381221,5.59801 C43.83912,3.86001 43.13412,3.265 42.25412,3.265 Z M33.76112,4.107 L31.03312,4.107 C31.04412,5.692 31.57212,7.419 32.41912,7.419 C33.26612,7.419 33.75012,5.703 33.76112,4.107 Z M99.54712,3.223 C98.81112,3.223 98.15112,4.00401 98.15112,5.27 C98.15112,6.458 98.46912,7.415 99.28412,7.415 C99.79012,7.415 100.25312,6.73299 100.62612,5.688 L100.80412,5.237 L100.653178,4.64567963 C100.419456,3.78744637 100.127708,3.223 99.54712,3.223 Z M121.71912,3.223 C120.98112,3.223 120.32112,4.00401 120.32112,5.27 C120.32112,6.458 120.64112,7.415 121.45612,7.415 C121.96212,7.415 122.42512,6.73299 122.79812,5.688 L122.97411,5.237 L122.91812,5.004 C122.66412,3.948 122.37912,3.223 121.71912,3.223 Z M32.36412,0.378 C31.6533508,0.378 31.2550076,1.51172781 31.1040017,2.68041238 L31.0660549,3.03096768 C31.0609454,3.08920209 31.056438,3.1472492 31.0525246,3.20497167 L31.0361059,3.5463119 C31.0345357,3.60218639 31.0335431,3.65746154 31.03312,3.712 L33.76112,3.712 C33.75112,1.995 33.17812,0.378 32.36412,0.378 Z M27.54712,0.17501 C27.76812,0.17501 28.00912,0.33901 28.00912,0.56 C28.00912,0.615 27.98712,0.70301 27.94312,0.758 L26.93112,2.1 C26.89812,2.144 26.84312,2.188 26.79912,2.188 C26.71112,2.188 26.64512,2.123 26.64512,2.044 C26.64512,2.012 26.65612,1.968 26.66712,1.93501 L27.23912,0.36201 C27.28312,0.24201 27.40412,0.17501 27.54712,0.17501 Z M104.81912,0.16901 C105.04012,0.17001 105.28012,0.33602 105.28012,0.55402 C105.28012,0.61 105.25912,0.698 105.21612,0.75101 L104.20412,2.09501 C104.17112,2.13901 104.11412,2.18301 104.07112,2.18301 C103.98312,2.18301 103.91712,2.11701 103.91712,2.04 C103.91712,2.007 103.92912,1.962 103.93812,1.92901 L104.51012,0.35701 C104.55312,0.23601 104.67412,0.16901 104.81912,0.16901 Z"/>
	</g>
</svg>
