<svg xmlns="http://www.w3.org/2000/svg" width="121" height="9" fill="none"><path fill="#000" d="M6.538 2.529c0 .275-.042.518-.124.73a1.796 1.796 0 0 1-.339.555c-.142.159-.31.295-.501.41a3.697 3.697 0 0 1-.61.292c.205.031.393.079.561.143.17.065.315.152.438.264.122.111.217.25.285.414.067.165.101.365.101.597 0 .439-.07.81-.212 1.114a1.929 1.929 0 0 1-.586.74c-.25.19-.545.327-.884.412a4.515 4.515 0 0 1-1.102.128H.983V7.88l.594-.052c.058-.007.1-.027.126-.06a.3.3 0 0 0 .053-.144l.98-5.747a.205.205 0 0 0-.023-.146c-.024-.038-.08-.06-.165-.068l-.525-.052v-.448h2.646c.34 0 .63.032.868.096s.431.157.58.276c.149.12.256.265.322.433.066.169.099.356.099.561Zm-1.22 3.515a1.36 1.36 0 0 0-.101-.555.922.922 0 0 0-.288-.368 1.194 1.194 0 0 0-.453-.204 2.627 2.627 0 0 0-.598-.062 4.403 4.403 0 0 0-.709.057l-.497 2.905a5.243 5.243 0 0 0 .288.021 5.067 5.067 0 0 0 .296.01c.675 0 1.188-.159 1.538-.477.35-.318.524-.76.524-1.327Zm.17-3.442c0-.337-.112-.585-.338-.743-.225-.158-.539-.237-.94-.237a3.438 3.438 0 0 0-.484.03l-.46 2.713.115.01.124.005c.043 0 .082.001.117.003l.085.003c.295 0 .554-.048.776-.144.222-.095.408-.224.557-.386.149-.161.26-.35.336-.568.075-.218.113-.446.113-.686Zm6.301 5.47a1.71 1.71 0 0 1-.242.126 3.69 3.69 0 0 1-.7.222 1.646 1.646 0 0 1-.337.039c-.178 0-.31-.034-.396-.102a.53.53 0 0 1-.177-.235.71.71 0 0 1-.044-.268c.003-.09.005-.157.005-.199a2.715 2.715 0 0 1-.78.603c-.272.134-.566.2-.882.2a.988.988 0 0 1-.534-.13A.872.872 0 0 1 7.39 8a1.146 1.146 0 0 1-.129-.433 1.63 1.63 0 0 1 .014-.444l.612-3.332-.791-.1v-.307l1.422-.334h.386l-.75 4.073a.505.505 0 0 0 .012.259.63.63 0 0 0 .287.36.382.382 0 0 0 .19.054c.113 0 .227-.018.342-.055a1.89 1.89 0 0 0 .343-.148 2.65 2.65 0 0 0 .617-.48l.713-3.932h.879l-.755 4.11a.606.606 0 0 0 0 .278.455.455 0 0 0 .1.186.384.384 0 0 0 .151.104c.057.02.111.031.163.031a1.048 1.048 0 0 0 .594-.193v.376Zm4.717.011a3.332 3.332 0 0 1-.904.342 1.262 1.262 0 0 1-.265.034.6.6 0 0 1-.225-.045 1.009 1.009 0 0 1-.21-.115 1.135 1.135 0 0 1-.32-.346 3.29 3.29 0 0 1-.144-.285 16.24 16.24 0 0 1-.352-.818 281.465 281.465 0 0 1-.456-1.13l-.433.439-.386 2.17h-.865l1.251-7.135-.828-.094V.777l1.459-.318h.377l-.874 4.964 1.523-1.783c.09-.105.17-.194.244-.269.074-.075.145-.135.214-.182a.752.752 0 0 1 .44-.138.67.67 0 0 1 .274.052.547.547 0 0 1 .338.527c0 .121-.05.247-.15.377-.1.13-.26.24-.48.326l-.323-.386a38.999 38.999 0 0 0-.58.542c-.101.098-.198.194-.29.288a24.09 24.09 0 0 1-.248.25c.04.09.083.203.13.339.048.136.1.28.153.435.053.155.112.313.175.475a6.61 6.61 0 0 0 .423.892c.078.137.159.259.242.365.082.106.167.19.253.253a.43.43 0 0 0 .377.08c.05-.008.101-.02.157-.033a1.383 1.383 0 0 0 .303-.115v.365Zm5.058-.01c-.058.038-.139.08-.241.125a3.689 3.689 0 0 1-.7.222 1.663 1.663 0 0 1-.338.039c-.178 0-.31-.034-.396-.102a.53.53 0 0 1-.177-.235.71.71 0 0 1-.044-.268c.003-.09.005-.157.005-.199a2.715 2.715 0 0 1-.78.603c-.272.134-.566.2-.882.2a.988.988 0 0 1-.534-.13.872.872 0 0 1-.313-.328 1.147 1.147 0 0 1-.128-.433 1.624 1.624 0 0 1 .013-.444l.613-3.332-.792-.1v-.307l1.422-.334h.387l-.75 4.073a.506.506 0 0 0 .011.259.63.63 0 0 0 .288.36.382.382 0 0 0 .188.054c.114 0 .228-.018.343-.055a1.9 1.9 0 0 0 .343-.148 2.653 2.653 0 0 0 .617-.48l.713-3.932h.88l-.756 4.11a.609.609 0 0 0 0 .278.456.456 0 0 0 .1.186.384.384 0 0 0 .151.104c.057.02.112.031.164.031a1.047 1.047 0 0 0 .594-.193v.376Zm6.195-3.015c0-.24-.024-.442-.074-.607a1.45 1.45 0 0 0-.18-.404.712.712 0 0 0-.222-.225.42.42 0 0 0-.2-.067.882.882 0 0 0-.254.041 1.643 1.643 0 0 0-.283.118 2.67 2.67 0 0 0-.287.174 2.148 2.148 0 0 0-.263.214l-.524 3.233c.03.053.072.103.124.152a1.036 1.036 0 0 0 .4.23c.08.024.163.036.249.036a.752.752 0 0 0 .412-.125c.13-.084.251-.197.363-.34.112-.142.214-.309.306-.5s.17-.394.233-.608c.063-.213.112-.434.147-.662.035-.228.053-.448.053-.66Zm.934-.041a4.481 4.481 0 0 1-.265 1.481c-.09.253-.206.499-.347.735s-.31.445-.506.626c-.197.18-.422.326-.677.435-.254.11-.541.165-.86.165a2.561 2.561 0 0 1-1.51-.496l1.114-6.77L24.8 1.1V.777l1.473-.318h.368l-.539 3.233c.086-.087.18-.17.283-.248.103-.078.21-.146.32-.203a1.94 1.94 0 0 1 .34-.138c.117-.035.232-.053.346-.053.242 0 .446.061.612.183.166.122.3.278.403.47.102.19.176.402.22.633.045.231.067.458.067.68Zm3.415-.897a.602.602 0 0 0-.138-.386.504.504 0 0 0-.161-.128.457.457 0 0 0-.212-.05.536.536 0 0 0-.299.094 1.282 1.282 0 0 0-.274.25 2.281 2.281 0 0 0-.244.36 3.759 3.759 0 0 0-.202.428 5.475 5.475 0 0 0-.27.887c.2-.021.406-.073.62-.157.213-.083.407-.19.582-.32a1.85 1.85 0 0 0 .43-.446.938.938 0 0 0 .168-.532Zm.838.01c0 .195-.04.374-.12.537-.08.164-.188.311-.324.443-.137.133-.295.25-.474.352-.18.103-.369.19-.566.261-.198.072-.4.129-.606.172a3.9 3.9 0 0 1-.589.081 4.765 4.765 0 0 0-.037.496c0 .194.021.373.063.537.041.163.1.305.18.425a.9.9 0 0 0 .282.281c.11.068.235.102.373.102.212 0 .445-.087.7-.26a6.77 6.77 0 0 0 .902-.778v.673a4.864 4.864 0 0 1-.327.32 3.12 3.12 0 0 1-.44.33 2.687 2.687 0 0 1-.536.255 1.836 1.836 0 0 1-.612.102 1.6 1.6 0 0 1-.31-.032 1.305 1.305 0 0 1-.654-.333 1.349 1.349 0 0 1-.272-.358 2.108 2.108 0 0 1-.189-.516 3.085 3.085 0 0 1-.07-.707c0-.281.03-.562.089-.842.06-.28.144-.548.253-.803.109-.256.24-.494.393-.715a3.18 3.18 0 0 1 .507-.573c.184-.162.381-.289.591-.38.21-.093.427-.14.651-.14.218 0 .4.042.546.123.145.082.263.18.352.295.089.115.152.233.189.355.036.121.055.22.055.297Zm3.576.928c0-.24-.025-.442-.074-.607a1.47 1.47 0 0 0-.18-.404.71.71 0 0 0-.223-.225.42.42 0 0 0-.2-.067.88.88 0 0 0-.253.041 1.64 1.64 0 0 0-.283.118c-.097.05-.192.108-.288.174a2.154 2.154 0 0 0-.262.214l-.525 3.233a.663.663 0 0 0 .125.152 1.032 1.032 0 0 0 .4.23c.08.024.163.036.249.036a.752.752 0 0 0 .411-.125 1.5 1.5 0 0 0 .364-.34c.112-.142.214-.309.306-.5s.17-.394.233-.608c.063-.213.111-.434.147-.662.035-.228.053-.448.053-.66Zm.934-.041a4.49 4.49 0 0 1-.265 1.481 4.15 4.15 0 0 1-.347.735c-.141.236-.31.445-.506.626-.197.18-.422.326-.677.435-.255.11-.541.165-.86.165a2.562 2.562 0 0 1-1.51-.496l1.114-6.77-.843-.093V.777l1.473-.318h.368l-.538 3.233c.086-.087.18-.17.283-.248.103-.078.21-.146.32-.203.11-.058.224-.104.34-.138.117-.035.232-.053.346-.053.242 0 .446.061.612.183.165.122.3.278.402.47.103.19.177.402.221.633.045.231.067.458.067.68Zm3.82-.877c.003-.017-.009-.057-.035-.12a2.131 2.131 0 0 0-.094-.195 1.25 1.25 0 0 0-.117-.18c-.042-.052-.076-.078-.104-.078a1.493 1.493 0 0 0-1.137.493 2.232 2.232 0 0 0-.36.524c-.1.198-.181.405-.242.62a4.372 4.372 0 0 0-.134.652 5.013 5.013 0 0 0-.041.626c0 .15.01.299.032.449.021.149.059.285.113.406a.787.787 0 0 0 .22.298.552.552 0 0 0 .362.114.73.73 0 0 0 .331-.083 2.03 2.03 0 0 0 .557-.413c.07-.072.123-.128.156-.166l.493-2.947Zm1.385 3.901-.202.097a4.708 4.708 0 0 1-.698.266 1.176 1.176 0 0 1-.324.055.776.776 0 0 1-.288-.047.466.466 0 0 1-.193-.141.671.671 0 0 1-.117-.23 1.466 1.466 0 0 1-.056-.313c-.07.077-.153.158-.248.243a2.4 2.4 0 0 1-.315.237 1.862 1.862 0 0 1-.368.18c-.13.047-.267.07-.408.07a1.153 1.153 0 0 1-.847-.326 1.294 1.294 0 0 1-.25-.344 2.267 2.267 0 0 1-.16-.406 2.564 2.564 0 0 1-.082-.428 3.891 3.891 0 0 1-.023-.41 4.529 4.529 0 0 1 .31-1.64 3.74 3.74 0 0 1 .385-.727c.153-.226.33-.422.531-.59a2.43 2.43 0 0 1 .672-.393c.247-.096.518-.144.813-.144.086 0 .17.012.255.034a1.274 1.274 0 0 1 .596.352l.138-.255h.645a4.042 4.042 0 0 0-.154.49.897.897 0 0 0-.026.12 26.2 26.2 0 0 0-.219 1.064l-.138.743a31.803 31.803 0 0 0-.218 1.35 3.25 3.25 0 0 0-.037.39c0 .187.035.316.106.385.07.07.17.105.299.105a.59.59 0 0 0 .136-.024c.06-.016.122-.034.186-.055a22.097 22.097 0 0 1 .3-.094v.386Zm3.323-4.318a.54.54 0 0 1-.074.3.548.548 0 0 1-.18.175.708.708 0 0 1-.222.086 1.526 1.526 0 0 1-.205.029l-.423-.652a.352.352 0 0 0-.235-.084.44.44 0 0 0-.263.076.614.614 0 0 0-.172.188.794.794 0 0 0-.095.24 1.108 1.108 0 0 0-.027.232.66.66 0 0 0 .074.294c.049.1.113.198.193.297.08.1.17.197.27.293.099.095.2.188.3.279.105.093.205.19.302.289.097.099.183.202.26.308.077.106.138.218.184.336.046.118.07.242.07.37 0 .22-.04.43-.118.631a1.59 1.59 0 0 1-.911.91 2.037 2.037 0 0 1-.776.139c-.227 0-.423-.03-.589-.086a1.249 1.249 0 0 1-.41-.225.886.886 0 0 1-.317-.675c0-.17.045-.309.136-.415.09-.106.232-.159.425-.159a.53.53 0 0 1 .166.026c.052.018.1.038.143.06a.686.686 0 0 1 .184.138l-.18.522c.068.108.151.2.251.274.1.075.23.112.389.112.095 0 .187-.02.276-.063a.74.74 0 0 0 .237-.177.84.84 0 0 0 .163-.279c.04-.11.06-.232.06-.368a.819.819 0 0 0-.057-.305 1.193 1.193 0 0 0-.161-.279c-.07-.09-.15-.18-.244-.268a8.426 8.426 0 0 0-.31-.28 3.479 3.479 0 0 1-.284-.28 2.596 2.596 0 0 1-.244-.322 1.667 1.667 0 0 1-.172-.357 1.18 1.18 0 0 1-.065-.386c0-.26.052-.492.157-.693a1.62 1.62 0 0 1 .402-.509 1.802 1.802 0 0 1 1.14-.415c.177 0 .327.024.448.07.121.048.22.105.295.173a.611.611 0 0 1 .21.43Zm7.888 4.35a1.71 1.71 0 0 1-.241.125 3.69 3.69 0 0 1-.7.222 1.663 1.663 0 0 1-.338.039c-.178 0-.31-.034-.396-.102a.529.529 0 0 1-.177-.235.71.71 0 0 1-.044-.268c.003-.09.005-.157.005-.199a2.714 2.714 0 0 1-.78.603c-.272.134-.566.2-.882.2a.987.987 0 0 1-.533-.13.872.872 0 0 1-.313-.328 1.147 1.147 0 0 1-.13-.433 1.632 1.632 0 0 1 .014-.444l.613-3.332-.792-.1v-.307L50.6 3.05h.387l-.75 4.073a.505.505 0 0 0 .011.259.63.63 0 0 0 .288.36.382.382 0 0 0 .188.054c.114 0 .228-.018.343-.055a1.89 1.89 0 0 0 .343-.148 2.654 2.654 0 0 0 .617-.48l.713-3.932h.88l-.755 4.11a.606.606 0 0 0 0 .278.456.456 0 0 0 .098.186.384.384 0 0 0 .152.104c.057.02.111.031.164.031a1.048 1.048 0 0 0 .594-.193v.376Zm4.998.041a9.945 9.945 0 0 1-.543.196c-.122.04-.248.075-.377.104-.129.03-.242.045-.34.045-.056 0-.132-.007-.228-.019a.882.882 0 0 1-.279-.083.538.538 0 0 1-.216-.19c-.055-.084-.07-.197-.041-.34l.575-3.28c.021-.142.022-.26.002-.354a.553.553 0 0 0-.097-.227.36.36 0 0 0-.154-.12.46.46 0 0 0-.165-.034.72.72 0 0 0-.283.076c-.112.05-.23.117-.355.2a3.443 3.443 0 0 0-.72.652l-.65 3.588h-.878l.82-4.537-.793-.1v-.307l1.423-.334h.377l-.175.997a3.93 3.93 0 0 1 .36-.358 2.874 2.874 0 0 1 .908-.55 1.42 1.42 0 0 1 .481-.089c.344 0 .588.108.734.324.146.215.182.563.108 1.043l-.501 3.014a.404.404 0 0 0 .02.24c.03.06.068.104.115.136a.386.386 0 0 0 .15.06.789.789 0 0 0 .12.013c.085 0 .18-.014.28-.042.102-.028.206-.06.313-.1l.01.376Zm1.929-4.26-.594 3.353a.497.497 0 0 0 .01.253.442.442 0 0 0 .117.188c.053.05.116.09.188.117a.627.627 0 0 0 .228.042 1.4 1.4 0 0 0 .276-.029 3.043 3.043 0 0 0 .518-.156l.186-.076v.428a6.06 6.06 0 0 1-1.086.42 1.74 1.74 0 0 1-.446.065c-.172 0-.315-.024-.428-.07a.682.682 0 0 1-.272-.194.744.744 0 0 1-.145-.292 1.471 1.471 0 0 1-.043-.368c0-.069.002-.14.007-.213.004-.073.014-.148.03-.225l.575-3.243-.594.062v-.35l.709-.354.46-1.069h.575l-.188 1.22h1.302v.49H60.8Zm5.868 4.219c-.059.038-.14.08-.242.125a3.698 3.698 0 0 1-.7.222 1.655 1.655 0 0 1-.338.039c-.178 0-.31-.034-.395-.102a.53.53 0 0 1-.178-.235.71.71 0 0 1-.043-.268c.003-.09.004-.157.004-.199a2.715 2.715 0 0 1-.78.603 1.96 1.96 0 0 1-.881.2.988.988 0 0 1-.534-.13.871.871 0 0 1-.313-.328 1.145 1.145 0 0 1-.129-.433 1.628 1.628 0 0 1 .014-.444l.612-3.332-.792-.1v-.307l1.422-.334h.387l-.75 4.073a.506.506 0 0 0 .011.259.63.63 0 0 0 .288.36.382.382 0 0 0 .189.054c.113 0 .228-.018.343-.055a1.9 1.9 0 0 0 .342-.148 2.653 2.653 0 0 0 .617-.48l.714-3.932h.879l-.755 4.11a.609.609 0 0 0 0 .278.456.456 0 0 0 .099.186.384.384 0 0 0 .152.104c.056.02.11.031.163.031a1.047 1.047 0 0 0 .594-.193v.376Zm4.717.01a3.32 3.32 0 0 1-.904.342 1.261 1.261 0 0 1-.265.034.6.6 0 0 1-.225-.045 1.004 1.004 0 0 1-.21-.115 1.126 1.126 0 0 1-.32-.346 3.293 3.293 0 0 1-.145-.285 16.24 16.24 0 0 1-.352-.818 165.442 165.442 0 0 1-.455-1.13l-.433.439-.387 2.17h-.865l1.252-7.135-.828-.094V.777l1.459-.318h.377l-.874 4.964 1.523-1.783a4.84 4.84 0 0 1 .244-.269 1.45 1.45 0 0 1 .214-.182.752.752 0 0 1 .44-.138.67.67 0 0 1 .273.052.547.547 0 0 1 .338.527c0 .121-.05.247-.15.377-.099.13-.26.24-.48.326l-.322-.386c-.086.077-.179.162-.279.256l-.301.287c-.101.097-.198.193-.29.287-.092.094-.175.177-.249.25.04.09.084.203.132.339l.151.435c.054.155.112.313.175.475a6.61 6.61 0 0 0 .424.892 3 3 0 0 0 .241.365c.083.106.167.19.253.253a.43.43 0 0 0 .378.08 2.32 2.32 0 0 0 .156-.033 1.377 1.377 0 0 0 .304-.115v.365Zm6.793-.673a.48.48 0 0 0 .014.245.377.377 0 0 0 .099.15.357.357 0 0 0 .129.075c.044.014.077.02.099.02a.59.59 0 0 0 .13-.028c.067-.02.137-.041.21-.065l.207-.068.13-.042v.397a6.846 6.846 0 0 1-.53.209 5.14 5.14 0 0 1-.37.109 1.423 1.423 0 0 1-.334.047.896.896 0 0 1-.355-.06.514.514 0 0 1-.216-.167.638.638 0 0 1-.108-.253 1.618 1.618 0 0 1-.03-.324 3.27 3.27 0 0 1-.274.295c-.1.096-.206.18-.32.256a1.786 1.786 0 0 1-.359.182c-.126.047-.254.07-.386.07-.264 0-.483-.057-.656-.172a1.254 1.254 0 0 1-.412-.448 2.028 2.028 0 0 1-.214-.615 3.755 3.755 0 0 1-.062-.678c0-.282.027-.564.08-.848.054-.283.134-.554.24-.813.106-.26.235-.5.389-.723a2.92 2.92 0 0 1 .524-.581 2.32 2.32 0 0 1 .656-.389c.241-.094.5-.14.776-.14.07 0 .14.007.207.023a2.02 2.02 0 0 1 .363.123c.052.024.099.043.138.057l.318-2.06-.856-.094V.777l1.459-.318h.386L78.177 7.41Zm-.368-3.29c.003-.014-.015-.053-.053-.118a1.45 1.45 0 0 0-.343-.388.328.328 0 0 0-.198-.084c-.23 0-.45.076-.658.227a2.085 2.085 0 0 0-.552.623 3.57 3.57 0 0 0-.382.936 4.55 4.55 0 0 0-.143 1.166c0 .23.02.428.062.595.042.166.097.304.166.412a.72.72 0 0 0 .237.24c.089.052.18.078.272.078a.639.639 0 0 0 .278-.073c.1-.049.2-.114.301-.196a2.9 2.9 0 0 0 .302-.282c.1-.106.192-.214.278-.325l.433-2.811Zm6.346 3.953c-.058.038-.138.08-.241.125a3.689 3.689 0 0 1-.7.222 1.663 1.663 0 0 1-.338.039c-.178 0-.31-.034-.396-.102a.53.53 0 0 1-.177-.235.71.71 0 0 1-.044-.268c.003-.09.005-.157.005-.199a2.715 2.715 0 0 1-.78.603c-.272.134-.566.2-.881.2a.988.988 0 0 1-.534-.13.872.872 0 0 1-.313-.328 1.147 1.147 0 0 1-.13-.433 1.624 1.624 0 0 1 .015-.444l.612-3.332-.792-.1v-.307l1.422-.334h.387l-.75 4.073a.505.505 0 0 0 .011.259.63.63 0 0 0 .288.36.382.382 0 0 0 .188.054c.114 0 .228-.018.343-.055a1.9 1.9 0 0 0 .343-.148 2.653 2.653 0 0 0 .617-.48l.713-3.932h.88l-.756 4.11a.606.606 0 0 0 0 .278.456.456 0 0 0 .1.186.384.384 0 0 0 .151.104c.057.02.112.031.164.031a1.047 1.047 0 0 0 .594-.193v.376Zm4.998.041a9.868 9.868 0 0 1-.543.196c-.122.04-.248.075-.377.104-.129.03-.242.045-.34.045-.056 0-.132-.007-.228-.019a.881.881 0 0 1-.279-.083.538.538 0 0 1-.216-.19c-.055-.084-.07-.197-.041-.34l.575-3.28c.021-.142.022-.26.002-.354a.554.554 0 0 0-.097-.227.36.36 0 0 0-.154-.12.46.46 0 0 0-.165-.034.72.72 0 0 0-.284.076c-.112.05-.23.117-.354.2a3.445 3.445 0 0 0-.72.652l-.649 3.588h-.88l.82-4.537-.791-.1v-.307l1.422-.334h.377l-.175.997c.105-.119.224-.238.36-.358a2.874 2.874 0 0 1 .908-.55 1.42 1.42 0 0 1 .481-.089c.344 0 .588.108.734.324.146.215.182.563.108 1.043l-.501 3.014a.404.404 0 0 0 .02.24c.03.06.068.104.115.136a.385.385 0 0 0 .15.06.79.79 0 0 0 .12.013c.085 0 .18-.014.28-.042.102-.028.206-.06.313-.1l.01.376Zm2.504-.094a13.7 13.7 0 0 0-.202.1 3.987 3.987 0 0 1-.762.281 1.627 1.627 0 0 1-.412.058.696.696 0 0 1-.387-.094.574.574 0 0 1-.211-.245.917.917 0 0 1-.079-.34 1.664 1.664 0 0 1 .023-.37l.603-3.619-.81-.1v-.307l1.422-.334h.387l-.713 4.272a.559.559 0 0 0 .071.383c.032.05.074.09.124.12.051.03.109.044.173.044a.69.69 0 0 0 .196-.034c.075-.022.15-.048.225-.078.075-.03.145-.058.21-.086a2.15 2.15 0 0 1 .142-.057v.406Zm-.041-6.54a.654.654 0 0 1-.15.418.518.518 0 0 1-.177.133.57.57 0 0 1-.244.05c-.193 0-.339-.059-.437-.175a.637.637 0 0 1 .007-.824.563.563 0 0 1 .44-.196.52.52 0 0 1 .236.052.583.583 0 0 1 .325.543Zm3.562 2.66c.003-.017-.008-.057-.035-.12a2.133 2.133 0 0 0-.094-.195 1.242 1.242 0 0 0-.117-.18c-.042-.052-.076-.078-.104-.078a1.492 1.492 0 0 0-1.137.493 2.232 2.232 0 0 0-.36.524c-.1.198-.181.405-.243.62a4.372 4.372 0 0 0-.133.652 5.013 5.013 0 0 0-.041.626c0 .15.01.299.032.449.021.149.059.285.112.406a.8.8 0 0 0 .221.298.552.552 0 0 0 .362.114.74.74 0 0 0 .331-.083 2.127 2.127 0 0 0 .557-.413c.07-.072.123-.128.157-.166l.492-2.947Zm1.385 3.901-.202.097a4.708 4.708 0 0 1-.698.266 1.175 1.175 0 0 1-.324.055.777.777 0 0 1-.288-.047.467.467 0 0 1-.193-.141.673.673 0 0 1-.117-.23 1.466 1.466 0 0 1-.055-.313 3.46 3.46 0 0 1-.25.243c-.094.085-.2.164-.314.237a1.862 1.862 0 0 1-.368.18c-.13.047-.267.07-.408.07a1.152 1.152 0 0 1-.847-.326 1.297 1.297 0 0 1-.25-.344 2.274 2.274 0 0 1-.16-.406 2.564 2.564 0 0 1-.082-.428 3.891 3.891 0 0 1-.023-.41 4.529 4.529 0 0 1 .31-1.64 3.74 3.74 0 0 1 .385-.727c.153-.226.33-.422.531-.59a2.43 2.43 0 0 1 .672-.393c.247-.096.518-.144.813-.144.086 0 .17.012.255.034a1.274 1.274 0 0 1 .596.352l.138-.255h.645a4.042 4.042 0 0 0-.154.49.897.897 0 0 0-.026.12 27.08 27.08 0 0 0-.219 1.064l-.138.743a31.825 31.825 0 0 0-.218 1.35 3.19 3.19 0 0 0-.037.39c0 .187.035.316.106.385.07.07.17.105.299.105.03 0 .076-.008.136-.024.06-.016.122-.034.186-.055a24.934 24.934 0 0 1 .3-.094v.386Zm6.195-2.983c0-.24-.025-.442-.074-.607a1.485 1.485 0 0 0-.179-.404.718.718 0 0 0-.223-.225.423.423 0 0 0-.201-.067.884.884 0 0 0-.253.041 1.653 1.653 0 0 0-.283.118c-.096.05-.192.108-.287.174a2.11 2.11 0 0 0-.263.214l-.524 3.233c.03.053.072.103.124.152a1.043 1.043 0 0 0 .4.23.85.85 0 0 0 .249.036.755.755 0 0 0 .412-.125 1.49 1.49 0 0 0 .363-.34 2.69 2.69 0 0 0 .306-.5 4.02 4.02 0 0 0 .233-.608 5.06 5.06 0 0 0 .147-.662c.035-.228.053-.448.053-.66Zm.934-.041a4.447 4.447 0 0 1-.265 1.481c-.09.253-.206.499-.347.735s-.31.445-.506.626c-.197.18-.422.326-.677.435-.254.11-.541.165-.86.165a2.57 2.57 0 0 1-.79-.126 2.485 2.485 0 0 1-.72-.37l1.114-6.77-.842-.093V.777l1.472-.318h.369l-.539 3.233c.086-.087.18-.17.283-.248.103-.078.209-.146.32-.203a1.92 1.92 0 0 1 .341-.138 1.19 1.19 0 0 1 .345-.053c.242 0 .446.061.612.183.165.122.3.278.402.47.103.19.177.402.221.633.045.231.067.458.067.68Zm3.415-.897a.59.59 0 0 0-.037-.206.59.59 0 0 0-.101-.18.508.508 0 0 0-.161-.128.46.46 0 0 0-.212-.05.536.536 0 0 0-.299.094 1.297 1.297 0 0 0-.274.25 2.295 2.295 0 0 0-.244.36 3.826 3.826 0 0 0-.202.428 5.368 5.368 0 0 0-.269.887c.199-.021.405-.073.619-.157.213-.083.407-.19.582-.32a1.85 1.85 0 0 0 .43-.446.938.938 0 0 0 .168-.532Zm.838.01c0 .195-.04.374-.12.537a1.59 1.59 0 0 1-.324.443 2.37 2.37 0 0 1-.475.352c-.179.103-.368.19-.566.261a4.561 4.561 0 0 1-.605.172c-.205.044-.402.07-.589.081a4.408 4.408 0 0 0-.037.496c0 .194.021.373.062.537.042.163.102.305.18.425s.172.214.283.281c.11.068.235.102.373.102.211 0 .445-.087.699-.26.255-.174.556-.434.902-.778v.673a5.057 5.057 0 0 1-.326.32 3.136 3.136 0 0 1-.44.33 2.688 2.688 0 0 1-.536.255 1.833 1.833 0 0 1-.612.102 1.71 1.71 0 0 1-.311-.032 1.313 1.313 0 0 1-.653-.333 1.34 1.34 0 0 1-.272-.358 2.132 2.132 0 0 1-.189-.516 3.115 3.115 0 0 1-.071-.707c0-.281.03-.562.09-.842.06-.28.144-.548.253-.803.109-.256.24-.494.393-.715a3.18 3.18 0 0 1 .507-.573c.184-.162.381-.289.591-.38.21-.093.427-.14.651-.14.218 0 .4.042.546.123.145.082.263.18.352.295.089.115.152.233.188.355.037.121.056.22.056.297Zm3.576.928c0-.24-.025-.442-.074-.607a1.455 1.455 0 0 0-.18-.404.698.698 0 0 0-.223-.225.42.42 0 0 0-.2-.067.879.879 0 0 0-.253.041 1.653 1.653 0 0 0-.283.118c-.097.05-.193.108-.288.174a2.174 2.174 0 0 0-.262.214l-.525 3.233a.672.672 0 0 0 .125.152 1.043 1.043 0 0 0 .4.23.86.86 0 0 0 .248.036.75.75 0 0 0 .412-.125c.131-.084.252-.197.364-.34.112-.142.214-.309.306-.5s.17-.394.232-.608a5.23 5.23 0 0 0 .148-.662c.035-.228.053-.448.053-.66Zm.934-.041c0 .222-.022.461-.065.717-.043.255-.109.51-.2.764-.09.253-.206.499-.347.735s-.31.445-.506.626c-.197.18-.422.326-.677.435-.255.11-.542.165-.861.165a2.558 2.558 0 0 1-1.509-.496l1.114-6.77-.843-.093V.777l1.473-.318h.368l-.538 3.233c.086-.087.18-.17.283-.248.103-.078.209-.146.32-.203a1.94 1.94 0 0 1 .34-.138 1.2 1.2 0 0 1 .345-.053c.243 0 .447.061.613.183.165.122.299.278.402.47.103.19.177.402.221.633.045.231.067.458.067.68Zm3.82-.877c.003-.017-.009-.057-.035-.12a2.05 2.05 0 0 0-.094-.195 1.293 1.293 0 0 0-.117-.18c-.042-.052-.076-.078-.104-.078a1.494 1.494 0 0 0-1.137.493 2.246 2.246 0 0 0-.361.524c-.1.198-.18.405-.242.62a4.943 4.943 0 0 0-.175 1.278c0 .15.011.299.033.449.021.149.059.285.112.406a.8.8 0 0 0 .221.298.554.554 0 0 0 .362.114.73.73 0 0 0 .331-.083c.11-.056.213-.12.308-.193a2.31 2.31 0 0 0 .249-.22c.07-.072.123-.128.156-.166l.493-2.947Zm1.385 3.901-.202.097a4.741 4.741 0 0 1-.698.266 1.171 1.171 0 0 1-.324.055.776.776 0 0 1-.288-.047.47.47 0 0 1-.193-.141.655.655 0 0 1-.117-.23 1.489 1.489 0 0 1-.056-.313c-.07.077-.153.158-.248.243a2.4 2.4 0 0 1-.315.237 1.877 1.877 0 0 1-.369.18 1.19 1.19 0 0 1-.407.07 1.15 1.15 0 0 1-.847-.326 1.304 1.304 0 0 1-.251-.344 2.514 2.514 0 0 1-.241-.834 3.712 3.712 0 0 1-.023-.41 4.546 4.546 0 0 1 .31-1.64 3.74 3.74 0 0 1 .385-.727c.153-.226.33-.422.531-.59a2.43 2.43 0 0 1 .672-.393c.247-.096.518-.144.813-.144.085 0 .171.012.255.034a1.295 1.295 0 0 1 .596.352l.138-.255h.644a3.803 3.803 0 0 0-.05.148l-.056.175-.048.167a.842.842 0 0 0-.025.12c-.022.094-.052.236-.092.425-.04.19-.082.402-.127.639l-.138.743a30.166 30.166 0 0 0-.218 1.35 3.19 3.19 0 0 0-.037.39c0 .187.035.316.106.385.07.07.17.105.299.105.03 0 .076-.008.136-.024a3.78 3.78 0 0 0 .186-.055 21.093 21.093 0 0 1 .299-.094v.386Zm3.323-4.318a.54.54 0 0 1-.074.3.551.551 0 0 1-.179.175.714.714 0 0 1-.223.086 1.553 1.553 0 0 1-.205.029l-.424-.652a.339.339 0 0 0-.234-.084.441.441 0 0 0-.263.076.614.614 0 0 0-.172.188.798.798 0 0 0-.095.24 1.132 1.132 0 0 0-.027.232.66.66 0 0 0 .073.294c.049.1.114.198.194.297.079.1.169.197.269.293.1.095.2.188.301.279.105.093.205.19.302.289.096.099.183.202.26.308.077.106.138.218.184.336.046.118.069.242.069.37 0 .22-.039.43-.117.631a1.601 1.601 0 0 1-.912.91 2.034 2.034 0 0 1-.775.139c-.227 0-.424-.03-.589-.086a1.255 1.255 0 0 1-.41-.225.887.887 0 0 1-.317-.675.62.62 0 0 1 .135-.415c.091-.106.233-.159.426-.159.058 0 .114.009.166.026a.912.912 0 0 1 .255.133.719.719 0 0 1 .072.065l-.18.522c.068.108.151.2.251.274a.63.63 0 0 0 .389.112c.095 0 .187-.02.276-.063a.74.74 0 0 0 .237-.177.842.842 0 0 0 .163-.279c.04-.11.06-.232.06-.368a.818.818 0 0 0-.057-.305 1.214 1.214 0 0 0-.161-.279 2.32 2.32 0 0 0-.244-.268 8.448 8.448 0 0 0-.311-.28 3.431 3.431 0 0 1-.283-.28 2.411 2.411 0 0 1-.244-.322 1.678 1.678 0 0 1-.173-.357 1.18 1.18 0 0 1-.064-.386c0-.26.052-.492.156-.693.105-.202.239-.372.403-.509a1.801 1.801 0 0 1 1.139-.415c.178 0 .328.024.449.07a.96.96 0 0 1 .295.173c.075.068.128.14.161.219a.566.566 0 0 1 .048.211Z"/></svg>