<svg xmlns="http://www.w3.org/2000/svg" width="121" height="9" fill="none"><path fill="#000" d="M64.466 3.22c0 .18-.03.332-.09.482-.06.151-.15.272-.241.392a.823.823 0 0 1-.362.272 2.1 2.1 0 0 1-.392.15c.12 0 .21.03.331.06a.59.59 0 0 1 .272.152c.09.06.15.15.21.271.061.12.061.241.061.392 0 .211-.03.392-.09.543-.06.15-.12.302-.242.422-.09.12-.21.211-.331.302-.12.09-.272.15-.422.211-.151.06-.302.09-.453.09-.15.03-.301.03-.452.03-.211 0-.422-.03-.633-.06a2.298 2.298 0 0 1-.604-.18l.181-1.056h.392v.513c0 .03 0 .09.03.12s.06.06.121.09c.06.03.09.06.15.06.061.031.121.031.182.061.06 0 .09.03.15.03h.091c.15 0 .302-.03.422-.06.151-.06.272-.12.362-.211.12-.09.181-.211.241-.362.06-.15.091-.332.091-.513 0-.12-.03-.21-.06-.301a.272.272 0 0 0-.181-.181.342.342 0 0 0-.242-.09c-.09-.03-.18-.03-.271-.03h-.18c-.061 0-.122 0-.152.03l.09-.483h.151c.151 0 .272 0 .393-.06a.78.78 0 0 0 .331-.212.781.781 0 0 0 .212-.331c.06-.121.09-.302.09-.483 0-.12-.03-.211-.06-.301a.309.309 0 0 0-.151-.181.274.274 0 0 0-.211-.09c-.09-.031-.151-.031-.242-.031-.06 0-.12 0-.18.03-.091.03-.151.06-.242.09-.09.03-.15.06-.241.121-.06.06-.12.09-.12.181l-.182.543h-.392l.181-1.025c.242-.121.453-.211.694-.242.211-.06.452-.09.724-.09.12 0 .271.03.392.06.15.03.271.09.392.151.12.06.21.181.301.302.151.09.181.24.181.422Zm3.197 0c0-.03 0-.06-.03-.09l-.09-.182c-.03-.06-.06-.12-.09-.15-.031-.06-.061-.06-.091-.06-.212 0-.392.03-.543.12a2.14 2.14 0 0 0-.422.301 1.69 1.69 0 0 0-.302.453c-.09.18-.15.362-.211.543-.06.18-.09.392-.12.573-.03.18-.03.362-.03.543 0 .12 0 .271.03.392l.09.362c.06.12.12.18.18.271.091.06.182.09.302.09.09 0 .181-.03.272-.06.09-.06.18-.09.271-.18.09-.061.15-.121.211-.182.06-.06.09-.12.12-.15l.453-2.594Zm1.176 3.408c-.03.03-.09.03-.18.09-.091.03-.181.09-.272.12-.09.031-.211.061-.302.091a.88.88 0 0 1-.271.06c-.09 0-.18 0-.241-.03-.06-.03-.12-.06-.151-.12-.03-.06-.06-.12-.09-.211-.03-.09-.03-.181-.06-.272-.061.06-.122.151-.212.211s-.18.151-.271.212c-.09.06-.212.12-.302.15-.12.03-.211.06-.332.06a.963.963 0 0 1-.422-.09 1.059 1.059 0 0 1-.512-.513c-.06-.12-.091-.24-.121-.361s-.06-.242-.06-.362c0-.121-.03-.242-.03-.362 0-.242.03-.483.06-.724s.12-.483.18-.694c.091-.241.212-.452.332-.633.12-.211.272-.362.453-.513.18-.15.362-.271.573-.331.21-.09.452-.121.693-.121.06 0 .151 0 .211.03s.151.03.212.09l.18.091c.06.03.091.09.121.12l.12-.21h.544c0 .03-.03.09-.03.12-.03.06-.03.09-.06.151-.031.06-.031.09-.031.15 0 .061-.03.091-.03.091-.03.09-.03.211-.09.362-.03.15-.061.362-.121.543-.03.211-.06.422-.12.663-.031.212-.061.453-.091.634-.03.21-.06.392-.09.543-.031.15-.031.271-.031.331 0 .151.03.272.09.332s.151.09.242.09c.03 0 .06 0 .12-.03s.09-.03.151-.06c.06-.03.09-.03.15-.06.061-.03.091-.03.091-.03v.392Zm5.308-2.594c0-.211-.03-.422-.06-.603a1.373 1.373 0 0 0-.15-.422c-.061-.12-.152-.211-.212-.272a.486.486 0 0 0-.271-.09.645.645 0 0 0-.483.21c-.15.152-.271.333-.392.574-.12.241-.18.513-.241.814-.06.302-.09.603-.09.905 0 .241.03.422.06.603s.09.332.15.452c.06.121.151.212.212.272.09.06.18.09.271.09a.58.58 0 0 0 .362-.12 1.597 1.597 0 0 0 .543-.754c.06-.181.12-.332.18-.543.061-.181.091-.392.121-.573v-.543Zm.815.03c0 .242-.03.513-.06.754-.061.241-.121.483-.212.694-.09.211-.18.422-.331.603-.121.181-.272.332-.423.483-.15.12-.332.24-.513.301-.18.09-.392.12-.573.12a1.35 1.35 0 0 1-.603-.12 1.335 1.335 0 0 1-.452-.362 1.531 1.531 0 0 1-.271-.543 2.64 2.64 0 0 1-.09-.723c0-.242.03-.513.06-.754.06-.242.12-.483.21-.694.091-.211.181-.422.332-.603.12-.181.272-.362.422-.483.151-.15.332-.241.513-.331.181-.09.392-.121.603-.121.181 0 .362.03.543.09.181.06.332.181.453.332.12.15.24.332.301.573.06.211.09.483.09.784Zm6.272-2.654h-4.523l.12-.603h4.524l-.12.603Zm.302 5.248c-.06.03-.12.06-.211.12-.09.03-.181.091-.272.121-.09.03-.21.06-.301.09-.09.03-.211.03-.272.03-.15 0-.271-.03-.331-.09s-.121-.12-.151-.21c-.03-.091-.03-.152-.03-.242v-.181c-.212.241-.423.422-.664.543a1.64 1.64 0 0 1-.754.18c-.12 0-.241-.03-.332-.06a.657.657 0 0 1-.24-.15.656.656 0 0 1-.152-.242l-.09-.271a2.762 2.762 0 0 1-.664.543c-.24.12-.482.18-.754.18-.18 0-.331-.03-.452-.12a.855.855 0 0 1-.271-.301 1.547 1.547 0 0 1-.121-.393v-.392l.513-2.925-.664-.09v-.272l1.207-.301h.331l-.633 3.558c-.03.09 0 .151 0 .242l.09.18c.03.06.09.091.151.121.06.03.12.06.151.06.09 0 .181-.03.302-.06.09-.03.18-.09.301-.12l.272-.181c.09-.06.18-.151.24-.242l.604-3.438h.724l-.603 3.468v.242l.09.18c.03.061.09.091.151.121.06.03.12.06.15.06.091 0 .182-.03.302-.06.09-.03.181-.09.302-.12l.271-.181a.928.928 0 0 0 .242-.242l.603-3.438h.754l-.634 3.59c-.03.09-.03.18 0 .24s.03.121.09.151c.031.03.091.06.121.09.06.03.091.03.151.03s.121 0 .211-.03.181-.06.302-.15v.362h-.03Zm3.197-3.498c0-.06 0-.121-.03-.181l-.09-.181c-.03-.06-.091-.09-.181-.12a.756.756 0 0 0-.302-.061.72.72 0 0 0-.422.15c-.12.091-.242.212-.362.362-.12.151-.211.302-.302.513-.09.181-.15.392-.21.573a4.154 4.154 0 0 0-.121.603c-.03.181-.06.362-.06.513 0 .181.03.362.06.543.03.15.09.301.15.422.06.12.12.211.211.272.09.06.181.09.272.09.15 0 .301-.03.452-.09a1.05 1.05 0 0 0 .392-.242.919.919 0 0 0 .272-.392c.06-.15.09-.332.09-.543 0-.21-.06-.392-.211-.512-.15-.121-.362-.181-.633-.181h-.543l.15-.362c.151 0 .332-.03.513-.06s.332-.091.453-.181c.15-.09.241-.212.331-.362.09-.151.121-.362.121-.573Zm.724-.06c0 .18-.03.361-.09.512-.06.15-.151.271-.242.362-.09.09-.211.18-.332.271a4.9 4.9 0 0 1-.392.181c.121.03.242.06.332.09.12.061.211.121.271.182.091.09.151.18.212.271.06.12.06.241.06.362 0 .211-.03.362-.09.543-.06.15-.121.301-.242.422a1.73 1.73 0 0 1-.332.332c-.12.09-.271.15-.392.21-.15.061-.271.091-.422.122-.15.03-.271.03-.422.03-.272 0-.513-.06-.694-.151a1.258 1.258 0 0 1-.482-.392 1.682 1.682 0 0 1-.272-.573 2.349 2.349 0 0 1-.09-.664c0-.21.03-.422.09-.663a4.3 4.3 0 0 1 .242-.664c.12-.21.24-.422.392-.633.15-.211.331-.362.512-.513.181-.15.392-.271.603-.361.212-.091.453-.121.694-.121.211 0 .392.03.543.06.15.06.241.12.332.181.09.09.15.15.18.272 0 .12.03.21.03.331Zm3.166.934c0-.211-.03-.422-.06-.603s-.09-.302-.15-.422a1.089 1.089 0 0 0-.212-.272.486.486 0 0 0-.271-.09.643.643 0 0 0-.483.21c-.15.152-.271.333-.392.574-.12.241-.18.513-.241.814-.06.302-.09.603-.09.905 0 .241.03.422.06.603s.09.332.15.452c.06.121.151.212.212.272.09.06.18.09.271.09a.58.58 0 0 0 .362-.12 1.6 1.6 0 0 0 .543-.754c.06-.181.12-.332.18-.543.061-.181.091-.392.121-.573v-.543Zm.815.03c0 .242-.03.513-.06.754-.06.241-.121.483-.212.694-.09.211-.18.422-.331.603-.121.181-.272.332-.423.483-.15.12-.331.24-.512.301-.181.09-.392.12-.573.12a1.35 1.35 0 0 1-.604-.12 1.335 1.335 0 0 1-.452-.362A1.53 1.53 0 0 1 86 5.994a2.636 2.636 0 0 1-.09-.723c0-.242.03-.513.06-.754.06-.242.12-.483.21-.694.091-.211.182-.422.332-.603.121-.181.272-.362.423-.483.15-.15.331-.241.512-.331.181-.09.392-.121.603-.121.181 0 .362.03.543.09.181.06.332.181.453.332.12.15.24.332.301.573.03.211.09.483.09.784Zm3.106-.03c0-.15 0-.271-.03-.422a1.5 1.5 0 0 0-.12-.392 1.108 1.108 0 0 0-.182-.272c-.09-.06-.18-.12-.271-.12-.09 0-.181.03-.302.09-.09.06-.18.09-.271.181-.09.06-.151.12-.211.181l-.121.12-.483 2.896c.03.03.06.03.09.06.031.03.091.06.152.09l.18.091c.061.03.121.03.212.03a.61.61 0 0 0 .392-.12c.12-.09.241-.181.332-.302.09-.12.18-.271.271-.452.06-.181.15-.362.181-.543.06-.181.09-.392.12-.573.03-.181.06-.362.06-.543Zm.784-.03c0 .241-.03.513-.09.754s-.121.482-.212.694c-.09.21-.21.422-.361.603-.151.18-.302.362-.453.482-.18.151-.362.242-.543.332-.21.09-.392.12-.603.12-.12 0-.21-.03-.332-.06-.09-.03-.18-.09-.24-.12l-.242 1.508c0 .06 0 .09.03.12s.06.06.15.06l.513.06v.363h-1.99v-.362l.422-.06c.12 0 .181-.06.181-.181l.905-5.429-.663-.09v-.272l1.206-.301h.301l-.09.573c.06-.06.15-.121.241-.181l.272-.181c.09-.06.21-.12.301-.151.12-.03.211-.06.332-.06a.94.94 0 0 1 .513.15c.12.09.24.242.331.392.09.151.151.362.181.543-.06.272-.06.483-.06.694Zm2.865-.814c0-.06 0-.12-.03-.181a.663.663 0 0 0-.09-.15c-.03-.061-.091-.091-.121-.122a.43.43 0 0 0-.181-.06c-.09 0-.181.03-.242.09-.09.06-.15.121-.24.212-.061.09-.152.21-.212.301l-.18.362c-.061.12-.091.272-.122.392-.03.12-.06.272-.09.392.18-.03.332-.06.513-.15.18-.06.331-.181.482-.272.151-.12.272-.241.362-.392.12-.09.15-.241.15-.422Zm.724.03a1.148 1.148 0 0 1-.362.875c-.12.12-.241.21-.392.301-.151.09-.302.15-.483.241-.15.06-.332.121-.513.151-.18.03-.331.06-.482.06 0 .06-.03.121-.03.212v.21c0 .182.03.332.06.483a.94.94 0 0 0 .392.603c.09.06.211.09.302.09.18 0 .362-.09.603-.24.211-.151.483-.392.754-.694v.603c-.06.09-.181.181-.272.272-.12.09-.24.21-.361.301-.151.09-.302.15-.453.211-.15.06-.332.09-.513.09-.09 0-.18 0-.27-.03l-.272-.09c-.09-.06-.181-.12-.272-.211-.09-.09-.15-.181-.241-.302-.06-.12-.12-.271-.15-.452a3.76 3.76 0 0 1-.061-.633c0-.242.03-.483.06-.724.06-.241.12-.483.211-.694.09-.21.211-.422.332-.633.12-.181.271-.362.422-.513.151-.15.332-.241.483-.331.18-.091.362-.121.543-.121.18 0 .331.03.452.12.12.06.211.151.302.242.06.09.12.21.15.301.03.121.06.211.06.302Zm4.493 3.408c-.03.03-.09.03-.181.09-.09.03-.18.09-.301.12-.121.031-.241.091-.362.122-.121.03-.241.06-.362.06a.607.607 0 0 1-.332-.09.405.405 0 0 1-.18-.212.891.891 0 0 1-.06-.301c0-.12 0-.211.03-.332l.21-1.267h-1.628L97.912 6.9h-.754l.633-3.98-.663-.091v-.272l1.206-.301h.332l-.332 2.111h1.629l.332-1.99h.723l-.573 3.619v.18c0 .06.031.121.061.151s.06.09.12.09c.03.03.091.03.151.03s.091 0 .151-.03.121-.03.181-.06l.181-.09c.06-.03.09-.03.12-.06v.422Zm5.549-3.71c0 .06 0 .12-.03.181l-.09.181c-.03.06-.091.09-.181.15a3.436 3.436 0 0 1-.302.091l-.452-.723a.499.499 0 0 0-.362.15c-.121.09-.211.181-.302.332-.09.12-.15.272-.211.453-.06.15-.09.331-.151.512-.06.181-.06.332-.09.513-.03.15-.03.301-.03.422 0 .15 0 .302.03.452.03.151.06.272.121.393.06.12.12.21.211.271.09.06.211.12.332.12.09 0 .211-.03.331-.06.121-.06.211-.12.332-.18.121-.091.211-.182.332-.272.12-.12.211-.241.331-.362v.603c-.09.09-.18.181-.271.302-.09.12-.211.21-.362.301a1.95 1.95 0 0 1-.422.242c-.151.06-.302.09-.483.09a.987.987 0 0 1-.512-.12 1.342 1.342 0 0 1-.392-.332 2.27 2.27 0 0 1-.242-.543 2.729 2.729 0 0 1-.09-.754c0-.272.03-.543.09-.814.061-.242.121-.483.242-.724.09-.211.211-.422.331-.603.121-.181.272-.332.423-.453a2.1 2.1 0 0 1 .482-.301c.181-.06.362-.09.543-.09.151 0 .271.03.362.06.09.03.181.09.241.15s.121.121.151.211c.09 0 .09.09.09.151Zm3.409.242c0-.06 0-.121-.031-.181l-.09-.181c-.03-.06-.09-.09-.181-.12a.719.719 0 0 0-.271-.061.723.723 0 0 0-.423.15 2.13 2.13 0 0 0-.362.362c-.12.151-.211.302-.301.513-.091.181-.151.392-.211.573a4.156 4.156 0 0 0-.121.603c-.03.181-.06.362-.06.513 0 .181.03.362.06.543.03.15.091.301.151.422.06.12.121.211.211.272a.49.49 0 0 0 .271.09c.151 0 .302-.03.453-.09.151-.06.271-.121.392-.242a.912.912 0 0 0 .271-.392c.061-.15.091-.332.091-.543 0-.21-.06-.392-.211-.512-.151-.121-.362-.181-.634-.181h-.542l.15-.362c.151 0 .332-.03.483-.06a1.02 1.02 0 0 0 .452-.181.954.954 0 0 0 .332-.362c.06-.151.121-.362.121-.573Zm.693-.06c0 .18-.03.361-.09.512-.061.15-.151.271-.241.362-.091.09-.212.18-.332.271-.121.06-.241.121-.392.181.12.03.211.06.331.09.091.061.212.121.272.182.09.09.151.18.181.271.06.12.06.241.06.362 0 .211-.03.362-.09.543-.061.15-.121.301-.242.422-.09.12-.211.241-.331.332-.121.09-.272.15-.392.21a2.246 2.246 0 0 1-.423.122c-.15.03-.271.03-.422.03a1.56 1.56 0 0 1-.693-.151 1.54 1.54 0 0 1-.483-.392 1.668 1.668 0 0 1-.271-.573 2.327 2.327 0 0 1-.091-.664c0-.21.03-.422.091-.663.06-.241.15-.452.241-.664.09-.21.241-.422.362-.633a2.08 2.08 0 0 1 .512-.513 2.48 2.48 0 0 1 .604-.361c.211-.091.452-.121.693-.121.211 0 .392.03.543.06.151.06.241.12.332.181.09.09.151.15.181.272.09.12.09.21.09.331Zm2.805.09c0-.06 0-.12-.03-.181a.625.625 0 0 0-.091-.15c-.03-.061-.09-.091-.12-.122-.061-.03-.121-.06-.181-.06a.34.34 0 0 0-.241.09c-.091.06-.151.121-.242.212-.06.09-.151.21-.211.301l-.181.362c-.06.12-.09.272-.12.392-.031.12-.061.272-.091.392.181-.03.332-.06.513-.15.181-.06.332-.181.482-.272.151-.12.272-.241.362-.392a.594.594 0 0 0 .151-.422Zm.694.03a1.15 1.15 0 0 1-.362.875 2.01 2.01 0 0 1-.392.301c-.151.09-.302.15-.483.241-.151.06-.332.121-.513.151-.18.03-.331.06-.482.06 0 .06-.03.121-.03.212v.21c0 .182.03.332.06.483.03.151.091.272.151.362a.92.92 0 0 0 .241.241c.091.06.181.09.302.09.181 0 .362-.09.573-.24.211-.151.452-.392.754-.694v.603c-.061.09-.151.181-.272.272-.12.09-.241.21-.362.301-.15.09-.271.15-.452.211-.151.06-.332.09-.513.09-.09 0-.181 0-.271-.03l-.272-.09a1.65 1.65 0 0 1-.271-.211c-.09-.09-.151-.181-.241-.302a1.564 1.564 0 0 1-.151-.452 3.784 3.784 0 0 1-.06-.633c0-.242.03-.483.06-.724a4.68 4.68 0 0 1 .211-.694c.091-.21.211-.422.332-.633.12-.181.271-.362.422-.513.151-.15.332-.241.483-.331.181-.091.361-.121.542-.121.181 0 .332.03.453.12.12.06.211.151.301.242.061.09.121.21.151.301a.668.668 0 0 1 .091.302Zm6.122-1.81h-4.494l.121-.603h4.493l-.12.603Zm.301 5.248c-.06.03-.12.06-.211.12-.09.03-.181.091-.271.121-.091.03-.211.06-.302.09-.09.03-.181.03-.271.03-.151 0-.272-.03-.332-.09s-.121-.12-.151-.21c-.03-.091-.03-.152-.03-.242v-.181c-.211.241-.422.422-.663.543a1.52 1.52 0 0 1-.724.18c-.121 0-.242-.03-.332-.06a.646.646 0 0 1-.392-.392l-.091-.271a2.764 2.764 0 0 1-.663.543c-.241.12-.483.18-.754.18-.181 0-.332-.03-.452-.12a.86.86 0 0 1-.272-.301 1.508 1.508 0 0 1-.12-.393v-.392l.512-2.925-.663-.09v-.272l1.176-.301h.332l-.634 3.558c-.03.09 0 .151 0 .242l.091.18c.03.06.09.091.151.121.06.03.12.06.15.06.091 0 .181-.03.272-.06.09-.03.181-.09.271-.12l.272-.181a.92.92 0 0 0 .241-.242l.603-3.438h.724l-.603 3.468v.242l.09.18c.03.061.091.091.151.121s.121.06.151.06c.09 0 .181-.03.271-.06.091-.03.181-.09.302-.12l.271-.181a.923.923 0 0 0 .242-.242l.603-3.438h.724l-.634 3.59a.332.332 0 0 0 0 .24c.03.06.03.121.091.151.03.03.09.06.12.09.061.03.091.03.151.03s.121 0 .211-.03a.93.93 0 0 0 .302-.15l.09.362ZM5.265 2.979c0-.302-.03-.604-.09-.845a2.19 2.19 0 0 0-.272-.663 1.405 1.405 0 0 0-.422-.423c-.15-.09-.331-.15-.543-.15-.21 0-.392.06-.573.15-.18.09-.331.242-.482.423a4.31 4.31 0 0 0-.422.603 5.59 5.59 0 0 0-.302.754 3.95 3.95 0 0 0-.18.814 7.744 7.744 0 0 0-.061.845c0 .331.03.603.09.844s.181.452.272.633c.12.181.271.302.422.392.15.09.332.151.543.151.21 0 .392-.06.573-.15.18-.091.332-.242.482-.423.151-.18.272-.392.392-.603.121-.241.211-.483.302-.754.09-.271.15-.543.18-.814.091-.242.091-.513.091-.784Zm.935 0c0 .331-.03.663-.09.995-.06.332-.151.633-.272.935a7.35 7.35 0 0 1-.422.844c-.18.241-.362.483-.603.664a3.128 3.128 0 0 1-.754.452c-.271.12-.573.15-.875.15-.331 0-.633-.06-.904-.18a1.744 1.744 0 0 1-.694-.543 2.172 2.172 0 0 1-.452-.814c-.12-.332-.151-.664-.151-1.056 0-.332.03-.663.09-.995.06-.332.151-.633.272-.935a3.54 3.54 0 0 1 .452-.814c.181-.241.392-.453.603-.664.211-.18.483-.331.724-.422.272-.09.543-.15.845-.15.331 0 .633.06.904.21.272.121.513.302.694.543.18.242.332.483.452.815.121.331.181.633.181.965Zm6.364-1.569H7.919L8.04.807h4.644l-.12.603Zm.301 5.248c-.06.03-.12.06-.21.12-.091.03-.182.091-.272.121-.09.03-.211.06-.332.09-.12.03-.211.03-.302.03-.15 0-.27-.03-.331-.09a.54.54 0 0 1-.151-.21c-.03-.091-.03-.152-.03-.242v-.181a2.63 2.63 0 0 1-.664.543c-.24.12-.482.18-.754.18-.12 0-.24-.03-.362-.06-.12-.03-.18-.09-.24-.15a.657.657 0 0 1-.152-.242l-.09-.271c-.211.241-.452.392-.694.543a1.76 1.76 0 0 1-.784.18c-.18 0-.332-.03-.452-.12a.855.855 0 0 1-.272-.301 1.508 1.508 0 0 1-.12-.393v-.392l.543-2.925-.694-.09v-.272l1.236-.301h.332l-.633 3.558c-.03.09 0 .151 0 .242l.09.18c.03.06.09.091.151.121.06.03.12.06.15.06.091 0 .212-.03.303-.06.09-.03.21-.09.301-.12l.272-.181c.09-.06.18-.151.24-.242l.634-3.438h.754L9.7 5.813v.242l.09.18c.03.061.09.091.151.121.06.03.12.06.15.06.091 0 .212-.03.302-.06s.212-.09.302-.12l.271-.181a.928.928 0 0 0 .242-.242l.603-3.438h.754l-.664 3.59c-.03.09-.03.18 0 .24s.06.121.09.151.091.06.121.09c.06.03.09.03.151.03.06 0 .12 0 .211-.03.09-.03.181-.06.302-.15l.09.362Zm3.288-3.498c0-.06 0-.121-.03-.181l-.091-.181c-.03-.06-.12-.09-.18-.12a.893.893 0 0 0-.303-.061.72.72 0 0 0-.422.15 2.13 2.13 0 0 0-.362.362c-.12.151-.21.302-.301.513-.09.181-.151.392-.211.573-.06.211-.09.392-.12.603a3.263 3.263 0 0 0-.061.513c0 .181.03.362.06.543.03.15.09.301.15.422.061.12.152.211.212.272.09.06.18.09.271.09.151 0 .332-.03.483-.09.15-.06.302-.121.392-.242a.918.918 0 0 0 .271-.392c.06-.15.09-.332.09-.543 0-.21-.06-.392-.21-.512-.151-.121-.362-.181-.664-.181h-.543l.151-.362c.181 0 .332-.03.513-.06.18-.03.332-.091.482-.181.151-.09.242-.212.332-.362.03-.151.09-.362.09-.573Zm.724-.06c0 .18-.03.361-.091.512-.06.15-.15.271-.241.362-.09.09-.211.18-.332.271-.12.06-.271.121-.392.181.12.03.241.06.332.09.12.061.21.121.301.182.09.09.151.18.211.271.06.12.09.241.09.362 0 .211-.03.362-.09.543-.06.15-.15.301-.24.422a1.73 1.73 0 0 1-.333.332c-.12.09-.271.15-.422.21-.15.061-.301.091-.452.122-.151.03-.302.03-.422.03-.272 0-.513-.06-.724-.151-.211-.09-.362-.241-.513-.392a1.728 1.728 0 0 1-.301-.573 2.352 2.352 0 0 1-.091-.664c0-.21.03-.422.09-.663.06-.241.151-.452.242-.664.12-.21.241-.422.392-.633.15-.211.332-.362.512-.513.181-.15.393-.271.634-.361.241-.091.482-.121.724-.121.21 0 .392.03.543.06.15.06.27.12.331.181.09.09.151.15.181.272.06.12.06.21.06.331Zm3.256.934c0-.211-.03-.422-.06-.603s-.09-.302-.15-.422a.712.712 0 0 0-.242-.272.487.487 0 0 0-.271-.09.645.645 0 0 0-.483.21c-.15.152-.271.333-.392.574a3.23 3.23 0 0 0-.271.814 4.63 4.63 0 0 0-.091.905c0 .241.03.422.06.603s.09.332.151.452c.06.121.15.212.241.272.09.06.181.09.272.09a.58.58 0 0 0 .362-.12 1.597 1.597 0 0 0 .543-.754c.06-.181.12-.332.18-.543.06-.181.091-.392.121-.573.03-.181.03-.362.03-.543Zm.815.03c0 .242-.03.513-.09.754-.061.241-.122.483-.212.694a3.86 3.86 0 0 1-.332.603 3.19 3.19 0 0 1-.422.483c-.15.12-.332.24-.513.301a1.35 1.35 0 0 1-.603.12 1.35 1.35 0 0 1-.603-.12 1.335 1.335 0 0 1-.452-.362 2.314 2.314 0 0 1-.302-.543 2.64 2.64 0 0 1-.09-.723c0-.242.03-.513.06-.754.06-.242.12-.483.211-.694a3.86 3.86 0 0 1 .332-.603c.12-.181.271-.362.422-.483.15-.15.332-.241.513-.331.18-.09.392-.121.603-.121.211 0 .392.03.543.09.18.06.331.181.452.332.12.15.241.332.332.573.12.211.15.483.15.784Zm3.227-.03c0-.15 0-.271-.03-.422-.03-.15-.06-.272-.121-.392a1.05 1.05 0 0 0-.181-.272c-.09-.06-.181-.12-.272-.12-.09 0-.21.03-.301.09-.09.06-.181.09-.272.181-.09.06-.15.12-.21.181l-.121.12-.483 2.896c.03.03.06.03.09.06s.091.06.151.09l.181.091c.06.03.121.03.211.03a.76.76 0 0 0 .423-.12c.12-.09.24-.181.331-.302.09-.12.181-.271.272-.452.09-.181.15-.362.18-.543.061-.181.091-.392.121-.573 0-.181.03-.362.03-.543Zm.814-.03c0 .241-.03.513-.09.754s-.121.482-.242.694c-.09.21-.211.422-.362.603-.15.18-.301.362-.482.482a2.168 2.168 0 0 1-.573.332c-.211.09-.422.12-.634.12-.12 0-.24-.03-.331-.06-.09-.03-.181-.09-.242-.12l-.271 1.508c0 .06 0 .09.03.12s.06.06.15.06l.514.06v.363h-2.051v-.362l.422-.06c.12 0 .181-.06.181-.181l.905-5.429-.694-.09v-.272l1.237-.301h.331l-.09.573c.06-.06.15-.121.241-.181l.271-.181c.091-.06.212-.12.302-.151.12-.03.211-.06.332-.06.21 0 .392.06.512.15.151.09.242.242.332.392.09.151.151.362.181.543.09.272.12.483.12.694Zm2.925-.814c0-.06 0-.12-.03-.181-.03-.06-.06-.12-.09-.15-.03-.061-.09-.091-.151-.122a.426.426 0 0 0-.181-.06c-.09 0-.181.03-.271.09-.09.06-.151.121-.242.212-.06.09-.15.21-.21.301l-.182.362c-.06.12-.09.272-.12.392s-.06.272-.09.392c.18-.03.361-.06.542-.15.18-.06.362-.181.513-.272.15-.12.271-.241.362-.392.09-.09.15-.241.15-.422Zm.724.03a1.148 1.148 0 0 1-.362.875c-.12.12-.241.21-.422.301-.15.09-.332.15-.482.241-.181.06-.332.121-.513.151s-.362.06-.513.06c0 .06-.03.121-.03.212v.21c0 .182.03.332.06.483.03.151.09.272.151.362.06.09.15.181.241.241.09.06.212.09.332.09.181 0 .392-.09.603-.24.211-.151.483-.392.784-.694v.603l-.271.272c-.12.09-.241.21-.392.301-.15.09-.302.15-.453.211-.18.06-.331.09-.542.09-.09 0-.181 0-.272-.03l-.271-.09c-.09-.06-.181-.12-.272-.211-.09-.09-.15-.181-.24-.302a1.553 1.553 0 0 1-.152-.452 3.77 3.77 0 0 1-.06-.633c0-.242.03-.483.09-.724s.121-.483.212-.694c.09-.21.21-.422.331-.633a2.42 2.42 0 0 1 .453-.513c.15-.15.331-.241.512-.331.181-.091.362-.121.573-.121a.89.89 0 0 1 .483.12c.12.06.241.151.301.242.06.09.121.21.151.301-.06.121-.03.211-.03.302Zm4.644 3.408c-.03.03-.09.03-.18.09-.091.03-.181.09-.302.12-.12.031-.241.091-.362.122-.12.03-.241.06-.362.06a.542.542 0 0 1-.332-.09.406.406 0 0 1-.18-.212c-.03-.09-.061-.18-.061-.301 0-.12 0-.211.03-.332l.211-1.267h-1.658L29.754 6.9H29l.663-3.98-.693-.091v-.272l1.236-.301h.332l-.332 2.111h1.659l.332-1.99h.754l-.604 3.619v.18c0 .06.03.121.06.151s.061.09.121.09c.03.03.09.03.151.03.06 0 .09 0 .181-.03.06-.03.12-.03.181-.06l.181-.09c.06-.03.09-.03.12-.06l-.06.422Zm2.685-3.438c0-.06 0-.12-.03-.181a.66.66 0 0 0-.091-.15c-.03-.061-.09-.091-.15-.122a.428.428 0 0 0-.182-.06.49.49 0 0 0-.271.09c-.09.06-.151.121-.242.212-.06.09-.15.21-.21.301l-.181.362c-.06.12-.091.272-.121.392s-.06.272-.09.392c.18-.03.361-.06.542-.15.181-.06.362-.181.513-.272.15-.12.271-.241.362-.392.09-.09.15-.241.15-.422Zm.723.03a1.148 1.148 0 0 1-.362.875c-.12.12-.24.21-.422.301-.15.09-.331.15-.482.241-.181.06-.332.121-.513.151-.18.03-.362.06-.513.06 0 .06-.03.121-.03.212v.21c0 .182.03.332.06.483.03.151.091.272.151.362a.91.91 0 0 0 .242.241c.09.06.21.09.331.09.181 0 .392-.09.603-.24a6.75 6.75 0 0 0 .785-.694v.603l-.272.272c-.12.09-.241.21-.392.301-.15.09-.301.15-.452.211-.181.06-.332.09-.543.09-.09 0-.181 0-.272-.03l-.27-.09c-.091-.06-.182-.12-.272-.211-.09-.09-.151-.181-.242-.302-.06-.12-.12-.271-.15-.452a3.76 3.76 0 0 1-.06-.633c0-.242.03-.483.09-.724s.12-.483.21-.694a6.54 6.54 0 0 1 .333-.633 2.4 2.4 0 0 1 .452-.513c.15-.15.332-.241.513-.331.18-.091.361-.121.573-.121.18 0 .331.03.482.12.12.06.242.151.302.242.09.09.12.21.15.301-.06.121-.03.211-.03.302Zm6.545-.513c0 .09-.03.181-.09.272-.061.09-.152.15-.242.24l-.603-.3c-.09.09-.151.18-.211.27-.06.091-.09.182-.151.302-.03.09-.09.211-.12.302a.94.94 0 0 1-.152.302c-.06.12-.12.21-.21.301-.061.09-.152.15-.242.211a.8.8 0 0 1 .181.151c.06.06.12.12.12.181l.513 1.146c.03.06.06.12.09.15.031.03.091.061.121.061a.43.43 0 0 0 .181-.06c.06-.06.151-.09.212-.181.06-.06.15-.12.21-.211.06-.06.121-.12.151-.181l.121.241a.66.66 0 0 0-.09.15.877.877 0 0 1-.151.212c-.06.09-.12.15-.211.241l-.242.241c-.09.06-.15.121-.24.181-.091.06-.182.06-.242.06-.09 0-.15-.03-.211-.09a.655.655 0 0 1-.151-.241l-.694-1.568c-.03-.03-.03-.06-.06-.09s-.06-.03-.09-.061c-.03-.03-.06-.03-.121-.03h-.181l-.332 1.96h-.754l.664-3.95-.634-.121v-.242l1.267-.301h.241l-.362 2.232c.121 0 .242-.03.332-.06.09-.03.181-.091.272-.152.09-.06.15-.15.21-.27.061-.091.121-.212.182-.333.06-.12.09-.21.15-.331.03-.09.09-.212.121-.302.06-.09.09-.181.15-.271.061-.09.152-.181.242-.272.09-.09.181-.15.272-.18.09-.031.21-.061.301-.061.15 0 .272.03.332.12.12.091.15.212.15.332ZM47.94 5.24c0-.15 0-.24-.03-.361a.606.606 0 0 0-.121-.242.538.538 0 0 0-.212-.15 1.08 1.08 0 0 0-.331-.06c-.03 0-.06 0-.09.03-.03 0-.091.03-.121.06s-.09.03-.121.06c-.03.03-.06.03-.09.06-.03.121-.03.242-.06.362-.03.151-.061.272-.061.392-.03.121-.03.242-.06.332 0 .09-.03.181-.03.211 0 .151.03.241.06.332.06.09.09.15.18.211.061.06.121.09.212.09.06.03.15.03.18.03.091 0 .212-.03.302-.09a.82.82 0 0 0 .242-.301c.06-.121.12-.272.15-.423-.03-.18 0-.361 0-.542Zm.784.03c0 .302-.06.574-.151.785a1.79 1.79 0 0 1-.392.543c-.151.15-.332.24-.543.301a2.09 2.09 0 0 1-.603.09c-.121 0-.272-.03-.423-.06-.15-.03-.271-.12-.392-.21-.12-.091-.21-.212-.301-.332a.885.885 0 0 1-.12-.483c0-.09 0-.18.03-.271.03-.121.03-.211.06-.332.03-.12.03-.211.06-.302.03-.09.03-.15.03-.18h-1.417l-.332 2.08h-.754l.663-3.98-.693-.091v-.272l1.236-.301h.332l-.332 2.111H46.1l.241-1.448-.694-.09v-.272l1.237-.301h.332l-.332 1.93c.03-.03.06-.03.12-.06.03-.03.091-.03.121-.06s.09-.03.12-.03h.121c.212 0 .392.03.573.09.181.06.332.12.453.241.12.09.21.241.271.392 0 .12.06.302.06.513Zm4.523 1.388c-.06.03-.12.06-.21.12-.091.03-.182.091-.272.121-.09.03-.211.06-.332.09-.12.03-.211.03-.302.03-.15 0-.271-.03-.331-.09s-.121-.12-.151-.21c-.03-.091-.03-.152-.03-.242v-.181a2.63 2.63 0 0 1-.664.543 1.64 1.64 0 0 1-.754.18c-.18 0-.331-.03-.452-.12a.855.855 0 0 1-.272-.301 1.512 1.512 0 0 1-.12-.392v-.393l.543-2.925-.694-.09v-.272l1.236-.301h.332l-.663 3.588c-.03.09 0 .151 0 .242l.09.18c.03.061.09.091.151.121.06.03.12.06.15.06.091 0 .212-.03.302-.06s.212-.09.302-.12l.271-.181a.928.928 0 0 0 .242-.242l.603-3.438h.754l-.664 3.59c-.03.09-.03.18 0 .24s.06.121.09.151c.031.03.091.06.121.09.06.03.09.03.151.03.06 0 .12 0 .211-.03.09-.03.181-.06.302-.15v.362h.06ZM55.69 1.41h-1.658l.12-.603h1.659l-.12.603Zm-.271 5.218c-.03.03-.09.03-.181.09-.09.03-.181.09-.302.12-.12.031-.24.091-.361.121s-.242.06-.362.06a.542.542 0 0 1-.332-.09.405.405 0 0 1-.181-.21.891.891 0 0 1-.06-.302c0-.121 0-.212.03-.332l.512-3.167-.693-.09v-.272l1.236-.301h.332l-.603 3.74v.18c0 .06.03.121.06.151s.06.09.12.09c.03.03.091.03.152.03.06 0 .09 0 .18-.03.06-.03.121-.03.181-.06l.181-.09c.06-.03.09-.03.121-.06v.422h-.03Zm2.594-3.438c0-.06 0-.12-.03-.181a.663.663 0 0 0-.091-.15c-.03-.061-.09-.091-.15-.122-.061-.03-.121-.06-.182-.06a.49.49 0 0 0-.271.09c-.09.06-.151.121-.242.212-.06.09-.15.21-.21.301l-.182.362c-.06.12-.09.272-.12.392s-.06.272-.09.392c.18-.03.361-.06.542-.15.181-.06.362-.181.513-.272.15-.12.271-.241.362-.392.12-.09.15-.241.15-.422Zm.723.03a1.148 1.148 0 0 1-.362.875c-.12.12-.24.21-.422.301-.15.09-.332.15-.482.241-.181.06-.332.121-.513.151s-.362.06-.513.06c0 .06-.03.121-.03.212v.21c0 .182.03.332.06.483.03.151.09.272.151.362a.91.91 0 0 0 .242.241c.09.06.21.09.331.09.181 0 .392-.09.603-.24a6.75 6.75 0 0 0 .785-.694v.603l-.272.272c-.12.09-.241.21-.392.301-.15.09-.302.15-.452.211-.181.06-.332.09-.543.09-.09 0-.181 0-.272-.03l-.271-.09c-.09-.06-.181-.12-.272-.211-.09-.09-.15-.181-.24-.302a1.554 1.554 0 0 1-.151-.452 3.76 3.76 0 0 1-.06-.633c0-.242.03-.483.09-.724s.12-.483.21-.694a6.54 6.54 0 0 1 .333-.633 2.4 2.4 0 0 1 .452-.513c.15-.15.332-.241.513-.331.18-.091.361-.121.573-.121.18 0 .331.03.482.12.12.06.241.151.302.242.09.09.12.21.15.301-.03.121-.03.211-.03.302Z"/></svg>