<?xml version="1.0" encoding="UTF-8"?>
<svg width="120px" height="13px" viewBox="0 0 120 13" version="1.1" xmlns="http://www.w3.org/2000/svg" xmlns:xlink="http://www.w3.org/1999/xlink">
    <title>wikipedia-tagline-cy</title>
    <g id="Page-1" stroke="none" stroke-width="1" fill="none" fill-rule="evenodd">
        <path d="M3.33555822,8.112 C3.33555822,8.528 3.1254443,8.658 2.61329163,8.697 L2.27185652,8.723 C2.20619592,8.723 2.16679956,8.762 2.16679956,8.827 L2.16679956,9.074 L2.1930638,9.1 C2.69208435,9.087 3.33555923,9.074 3.86084301,9.074 C4.37299568,9.074 5.16092387,9.087 5.55488646,9.1 L5.5811507,9.074 L5.5811507,8.827 C5.5811507,8.762 5.52862222,8.723 5.47609374,8.723 L5.12152651,8.697 C4.59624272,8.658 4.39925992,8.515 4.39925992,8.112 L4.39925992,5.59 C4.39925992,5.356 4.41239204,5.187 4.47805264,5.044 L6.32968152,1.729 C6.55292756,1.339 6.68424977,1.105 7.14387295,1.066 L7.41964746,1.04 C7.49844018,1.027 7.55096866,1.014 7.55096866,0.949 L7.55096866,0.689 L7.52470442,0.663 C7.13074184,0.676 6.68424876,0.689 6.38221,0.689 C6.08017226,0.689 5.71247189,0.676 5.1871871,0.663 L5.16092286,0.689 L5.16092286,0.949 C5.16092286,0.988 5.17405498,1.04 5.22658346,1.04 L5.62054706,1.066 C5.90945369,1.079 6.02764277,1.183 5.80439673,1.586 L4.1234854,4.719 L4.09722116,4.719 L2.29812076,1.586 C2.10113896,1.248 2.00921513,1.066 2.46883831,1.053 L2.84966979,1.04 C2.90219827,1.04 2.9284625,0.988 2.9284625,0.936 L2.9284625,0.689 L2.90219827,0.663 C2.37691449,0.676 1.9304214,0.689 1.40513681,0.689 C0.892984649,0.689 0.420227428,0.676 0.0262642395,0.663 L3.33955086e-13,0.689 L3.33955086e-13,0.949 C3.33955086e-13,1.027 0.0919248383,1.04 0.131321198,1.04 L0.288906635,1.053 C0.761662542,1.092 0.892984548,1.274 1.31321198,1.963 L3.21736914,5.148 C3.29616186,5.265 3.33555822,5.564 3.33555822,5.707 L3.33555822,8.112 M28.1487611,3.471 C28.4115159,3.48513376 28.7901476,3.497 29.2167247,3.497 C29.689481,3.497 30.1622383,3.484 30.6481258,3.471 L30.67439,3.51 L30.67439,3.744 C30.67439,3.809 30.5955973,3.848 30.5299367,3.848 C30.0309161,3.887 29.8470665,3.991 30.0440483,4.433 L31.4885814,7.787 L32.9462467,4.485 C33.2351534,3.965 32.8411898,3.887 32.4340941,3.848 C32.3684335,3.848 32.3027729,3.822 32.3027729,3.757 L32.3027729,3.51 L32.3290371,3.471 C32.8149255,3.484 33.1038332,3.497 33.5634564,3.497 C33.9311557,3.497 34.1412696,3.484 34.4695726,3.471 L34.508969,3.497 L34.508969,3.744 C34.508969,3.809 34.4564405,3.835 34.3645157,3.848 C33.8786282,3.887 33.6159848,4.355 33.4321352,4.732 C32.7361338,6.188 32.1583185,7.527 31.10775,10.036 C30.7137864,10.972 30.2147648,12.09 29.2823853,12.09 C29.032875,12.09 28.5207224,11.947 28.5207224,11.479 C28.5207224,11.089 28.809629,10.972 29.0197429,10.972 C29.2167247,10.972 29.3480459,11.05 29.4268386,11.154 C29.5581598,11.284 29.6500847,11.375 29.7814059,11.375 C29.9783877,11.375 30.4642761,10.231 30.7925791,9.438 C30.8713718,9.282 30.897636,9.152 30.897636,9.035 C30.897636,8.905 30.779447,8.554 30.67439,8.294 L29.0197429,4.485 C28.809629,3.991 28.6520436,3.887 28.2186836,3.848 C28.1807286,3.8417378 28.148868,3.83245906 28.1260375,3.81871069 C28.0979836,3.83471111 28.0577118,3.84135556 28.0174399,3.848 C27.6760048,3.887 27.3477018,3.991 27.1113237,4.563 L25.3253554,8.957 C25.2465627,9.152 25.1415057,9.23 25.0233166,9.23 C24.8919954,9.23 24.7869385,9.152 24.7081458,8.97 L23.3949338,5.72 L22.0817218,8.944 C21.989797,9.152 21.88474,9.23 21.7665509,9.23 C21.6352297,9.23 21.5301728,9.152 21.4513801,8.97 L19.6522797,4.472 C19.4421657,3.952 19.2057876,3.887 18.8249561,3.848 C18.7592955,3.835 18.6673707,3.822 18.6673707,3.757 L18.6673707,3.497 L18.6936349,3.471 C19.1795223,3.484 19.3896373,3.497 19.8886578,3.497 C20.3614141,3.497 20.7028492,3.484 21.1887377,3.471 L21.2150019,3.51 L21.2150019,3.744 C21.2150019,3.809 21.1624734,3.848 21.0968128,3.848 L20.899831,3.861 C20.4664711,3.887 20.5058674,4.121 20.6371886,4.446 L22.0160612,7.878 L23.1585556,5.057 L22.9221775,4.472 C22.7514599,4.043 22.4625533,3.887 22.0817218,3.848 C22.0160612,3.835 21.9504006,3.822 21.9504006,3.757 L21.9504006,3.497 L21.9766648,3.471 C22.4625523,3.484 22.7120636,3.497 23.1716877,3.497 C23.6313119,3.497 23.9990113,3.484 24.4848997,3.471 L24.5242961,3.497 L24.5242961,3.744 C24.5242961,3.809 24.4586355,3.848 24.3929749,3.848 L24.1565967,3.861 C23.6969725,3.887 23.749501,4.056 23.9070865,4.446 L25.2728269,7.878 L26.6385674,4.511 C26.7567564,4.277 26.7830197,3.9 26.1132826,3.861 L25.9163008,3.848 C25.8506402,3.848 25.7981117,3.796 25.7981117,3.757 L25.7981117,3.497 L25.8243759,3.471 C26.3102634,3.484 26.6910958,3.497 27.1901164,3.497 C27.644533,3.497 27.8077574,3.48498906 28.1112958,3.47251217 L28.1487611,3.471 Z M14.8119106,0.52 C16.4140272,0.52 16.8867855,1.105 17.6747127,1.105 C17.7666376,2.041 17.8454303,2.561 17.9636194,3.107 L17.5696558,3.185 C17.2282207,2.067 16.5322163,1.001 14.6280609,1.001 C12.8552258,1.001 11.450088,2.548 11.450088,4.823 C11.450088,6.539 12.7107735,8.736 15.0482888,8.736 C15.7574222,8.736 16.5322183,8.528 16.9787104,8.112 L16.9787104,6.123 C16.9787104,5.72 16.7817276,5.616 16.2564438,5.577 L15.9150087,5.551 C15.8624802,5.551 15.8099517,5.512 15.8099517,5.447 L15.8099517,5.109 L15.836216,5.083 C16.4534246,5.096 16.9918425,5.109 17.5039952,5.109 C17.8041573,5.109 18.0271354,5.1047551 18.236637,5.09869096 L18.5487452,5.08853353 L18.7121502,5.083 L18.7384144,5.109 L18.7384144,5.447 C18.7384144,5.512 18.6990181,5.538 18.6333575,5.551 C18.252526,5.59 18.0424121,5.668 18.0424121,6.123 L18.0424121,7.631 C18.0424121,7.774 18.1080727,7.878 18.252526,7.995 C17.3595429,8.749 16.2958381,9.204 14.74625,9.204 C12.106696,9.204 10.3075935,7.332 10.3075935,5.083 C10.3075935,2.223 12.553188,0.52 14.8119106,0.52 Z M38.7255633,7.852 C38.134619,8.32 37.6224653,8.593 37.2810302,8.593 C36.5718967,8.593 35.8496291,7.826 35.8496291,6.201 C35.8496291,5.265 36.0203477,4.745 36.2173285,4.472 C36.6244242,3.861 37.1759742,3.822 37.4386156,3.822 C38.0558252,3.822 38.4103935,4.095 38.7255633,4.589 L38.7255633,7.852 M39.7104723,1.495 C39.7104723,0.65 39.7498687,0.13 39.7498687,0.13 C39.7498687,0.039 39.6973402,-1.42108547e-14 39.5791511,-1.42108547e-14 C39.2508491,0.13 38.3447319,0.299 37.806315,0.338 L37.8325792,0.65 C37.8325792,0.689 37.8719756,0.715 37.9113719,0.715 L38.3315997,0.741 C38.5942421,0.741 38.7255633,0.91 38.7255633,1.755 L38.7255633,3.653 C38.4235256,3.484 37.8457113,3.367 37.5830689,3.367 C36.71635,3.367 36.1385357,3.653 35.613251,4.147 C35.0485708,4.706 34.7333989,5.473 34.7333989,6.435 C34.7333989,8.034 35.5213281,9.204 36.939595,9.204 C37.4648798,9.204 38.1214868,8.788 38.7255633,8.307 L38.7518276,8.32 L38.7255633,9.23 L39.0276021,9.23 C39.3165087,8.996 39.894323,8.827 40.7085134,8.684 L40.6691171,8.385 L40.0387753,8.32 C39.7630018,8.294 39.7104723,8.216 39.7104723,7.566 L39.7104723,1.495 M44.9388541,7.852 C44.3479097,8.32 43.835756,8.593 43.4943209,8.593 C42.7851874,8.593 42.0629198,7.826 42.0629198,6.201 C42.0629198,5.265 42.2336374,4.745 42.4306192,4.472 C42.8377149,3.861 43.3892639,3.822 43.6519063,3.822 C44.269115,3.822 44.6236832,4.095 44.9388541,4.589 L44.9388541,7.852 M45.9237631,1.495 C45.9237631,0.65 45.9631594,0.13 45.9631594,0.13 C45.9631594,0.039 45.9106309,-1.42108547e-14 45.7924419,-1.42108547e-14 C45.4641389,0.13 44.5580226,0.299 44.0196057,0.338 L44.0458699,0.65 C44.0458699,0.689 44.0852663,0.715 44.1246626,0.715 L44.5448905,0.741 C44.8075329,0.741 44.9388541,0.91 44.9388541,1.755 L44.9388541,3.653 C44.6368153,3.484 44.059002,3.367 43.7963597,3.367 C42.9296408,3.367 42.3518265,3.653 41.8265417,4.147 C41.2618615,4.706 40.9466897,5.473 40.9466897,6.435 C40.9466897,8.034 41.7346179,9.204 43.1528858,9.204 C43.6781706,9.204 44.3347776,8.788 44.9388541,8.307 L44.9651183,8.32 L44.9388541,9.23 L45.2408928,9.23 C45.5297995,8.996 46.1076137,8.827 46.9218042,8.684 L46.8824078,8.385 L46.252066,8.32 C45.9762915,8.294 45.9237631,8.216 45.9237631,7.566 L45.9237631,1.495 M47.1205881,6.409 C47.1205881,7.735 48.0529696,9.204 49.8126726,9.204 C51.6774316,9.204 52.5310214,7.592 52.5310214,6.292 C52.5310214,4.94 51.7824886,3.367 49.8389369,3.367 C48.092366,3.367 47.1205881,4.628 47.1205881,6.409 M49.6944836,3.796 C50.7713164,3.796 51.4147912,4.797 51.4147912,6.708 C51.4147912,8.424 50.6268631,8.775 50.0359187,8.775 C48.7358398,8.775 48.2368183,7.111 48.2368183,6.11 C48.2368183,4.979 48.643915,3.796 49.6944836,3.796 M54.7845669,3.367 C54.7845669,3.341 54.7583027,3.328 54.7320384,3.328 C54.3643391,3.471 53.8390533,3.588 52.9198059,3.731 L52.9460702,4.043 L53.5107513,4.095 C53.694601,4.121 53.7996579,4.251 53.7996579,4.901 L53.7996579,8.138 C53.7996579,8.515 53.6683367,8.658 53.2349768,8.697 L52.9854665,8.723 C52.9198059,8.736 52.8804096,8.762 52.8804096,8.827 L52.8804096,9.074 L52.9066738,9.1 C53.4319586,9.087 53.7602626,9.074 54.2724142,9.074 C54.8108312,9.074 55.0866067,9.087 55.6118905,9.1 L55.6381547,9.074 L55.6381547,8.827 C55.6381547,8.762 55.5987583,8.736 55.5330977,8.723 L55.3492481,8.697 C54.9158891,8.632 54.7845669,8.515 54.7845669,8.138 L54.7845669,4.992 C55.454304,4.212 55.9533266,3.991 56.5311388,3.991 C57.2271402,3.991 57.3847266,4.42 57.3847266,5.33 L57.3847266,8.138 C57.3847266,8.515 57.2402733,8.632 56.8200455,8.697 L56.6361958,8.723 C56.5705352,8.736 56.5311388,8.762 56.5311388,8.827 L56.5311388,9.074 L56.5574031,9.1 C57.0826879,9.087 57.3453313,9.074 57.8574829,9.074 C58.3958999,9.074 58.737336,9.087 59.2626198,9.1 L59.288884,9.074 L59.288884,8.827 C59.288884,8.762 59.2363555,8.736 59.1706949,8.723 L58.9211846,8.697 C58.5140889,8.658 58.3696356,8.515 58.3696356,8.138 L58.3696356,5.421 C58.3696356,4.264 58.1069922,3.367 56.9251024,3.367 C56.2553653,3.367 55.6250216,3.549 54.7845669,4.524 L54.7451706,4.524 L54.7845669,3.367 M60.2037786,1.664 C60.2037786,2.002 60.4926852,2.288 60.8341203,2.288 C61.1755554,2.288 61.4644621,2.002 61.4644621,1.664 C61.4644621,1.326 61.1755554,1.04 60.8341203,1.04 C60.4926852,1.04 60.2037786,1.326 60.2037786,1.664 M61.4381978,3.367 C61.4381978,3.341 61.4119336,3.328 61.3856694,3.328 C61.01797,3.471 60.46642,3.588 59.5340405,3.731 L59.5603047,4.043 L60.1249859,4.095 C60.3088355,4.121 60.4138925,4.251 60.4138925,4.901 L60.4138925,8.138 C60.4138925,8.515 60.2957024,8.645 59.8492113,8.697 L59.5997011,8.723 C59.5340405,8.736 59.4946441,8.762 59.4946441,8.827 L59.4946441,9.074 L59.5209083,9.1 C60.0461921,9.087 60.4138925,9.074 60.8866488,9.074 C61.3856683,9.074 61.7665008,9.087 62.2917856,9.1 L62.3180499,9.074 L62.3180499,8.827 C62.3180499,8.762 62.2655214,8.736 62.1998608,8.723 L61.9503505,8.697 C61.5432548,8.658 61.3988015,8.515 61.3988015,8.138 L61.3988015,4.901 C61.3988015,4.251 61.4381978,3.367 61.4381978,3.367 M66.0056642,6.045 L66.0056642,7.774 C66.0056642,7.943 65.9268715,8.034 65.8218146,8.112 C65.4803795,8.385 65.0338874,8.671 64.666188,8.671 C64.0095831,8.671 63.6944112,8.151 63.6944112,7.748 C63.6944112,7.163 63.9964509,6.578 64.9682268,6.318 L66.0056642,6.045 M66.0056642,8.45 C66.084457,8.723 66.2945719,9.204 66.9905732,9.204 C67.6340461,9.204 68.0805392,8.684 68.0805392,8.619 C68.0805392,8.528 67.9886143,8.424 67.9360859,8.424 C67.8572931,8.424 67.8178968,8.632 67.5027259,8.632 C66.9905732,8.632 66.9774411,8.099 66.9774411,7.501 L66.9774411,5.564 C66.9774411,3.718 66.0056632,3.367 65.0470195,3.367 C63.9701867,3.367 62.8802197,4.108 62.8802197,4.81 C62.8802197,5.122 63.0378052,5.265 63.3398439,5.265 C63.7206754,5.265 63.9176572,5.005 63.9176572,4.836 C63.9176572,4.745 63.9045251,4.654 63.8782608,4.602 C63.8651287,4.563 63.8519966,4.485 63.8519966,4.342 C63.8519966,3.939 64.442942,3.757 64.9419625,3.757 C65.3884546,3.757 66.0056642,4.017 66.0056642,5.486 C66.0056642,5.577 65.9662679,5.629 65.9268715,5.642 L64.7975092,5.915 C63.5368267,6.227 62.6569737,6.916 62.6569737,7.8 C62.6569737,8.827 63.3661092,9.204 64.2853566,9.204 C64.8894331,9.204 65.1389454,9.1 65.7167576,8.658 L65.9794,8.45 L66.0056642,8.45 M72.209311,7.852 C71.6183656,8.32 71.1062119,8.593 70.7647778,8.593 C70.0556443,8.593 69.3333767,7.826 69.3333767,6.201 C69.3333767,5.265 69.5040943,4.745 69.7010761,4.472 C70.1081708,3.861 70.6597208,3.822 70.9223632,3.822 C71.5395718,3.822 71.8941401,4.095 72.209311,4.589 L72.209311,7.852 M73.1942199,1.495 C73.1942199,0.65 73.2336163,0.13 73.2336163,0.13 C73.2336163,0.039 73.1810878,-1.42108547e-14 73.0628987,-1.42108547e-14 C72.7345957,0.13 71.8284785,0.299 71.2900626,0.338 L71.3163268,0.65 C71.3163268,0.689 71.3557232,0.715 71.3951195,0.715 L71.8153474,0.741 C72.0779898,0.741 72.209311,0.91 72.209311,1.755 L72.209311,3.653 C71.9072722,3.484 71.3294589,3.367 71.0668165,3.367 C70.2000976,3.367 69.6222824,3.653 69.0969986,4.147 C68.5323174,4.706 68.2171466,5.473 68.2171466,6.435 C68.2171466,8.034 69.0050747,9.204 70.4233427,9.204 C70.9486265,9.204 71.6052334,8.788 72.209311,8.307 L72.2355752,8.32 L72.209311,9.23 L72.5113497,9.23 C72.8002563,8.996 73.3780706,8.827 74.192261,8.684 L74.1528647,8.385 L73.5225229,8.32 C73.2467484,8.294 73.1942199,8.216 73.1942199,7.566 L73.1942199,1.495 M78.5539229,4.498 L78.5539229,7.722 C78.2781484,8.047 77.6609377,8.619 77.0568612,8.619 C76.6628976,8.619 76.0588201,8.411 76.0588201,7.254 L76.0588201,4.758 C76.0588201,4.368 76.0982165,3.497 76.0982165,3.497 C76.0982165,3.471 76.0719523,3.471 76.045688,3.471 C75.9800274,3.484 75.7830446,3.497 75.5860638,3.497 C75.165836,3.497 74.7718714,3.484 74.285984,3.471 L74.2465876,3.497 L74.2465876,3.822 L74.285984,3.848 L74.4960979,3.874 C74.9557211,3.926 75.0739112,4.069 75.0739112,4.498 L75.0739112,7.436 C75.0739112,8.333 75.4153473,9.204 76.7154261,9.204 C77.253842,9.204 77.8185242,9.022 78.5539229,8.242 L78.5801871,8.242 L78.5539229,9.23 L78.8559616,9.23 C79.1448673,8.996 79.7226816,8.827 80.536873,8.684 L80.4974766,8.385 L79.8671349,8.32 C79.5913604,8.294 79.5388319,8.216 79.5388319,7.566 L79.5388319,4.758 C79.5388319,4.368 79.5782282,3.497 79.5782282,3.497 C79.5782282,3.471 79.551964,3.471 79.5256998,3.471 C79.4600392,3.484 79.2630563,3.497 79.0660756,3.497 C78.6458477,3.497 78.2518831,3.484 77.7659957,3.471 L77.7265993,3.497 L77.7265993,3.822 L77.7659957,3.848 L77.9761096,3.874 C78.4357328,3.926 78.5539229,4.069 78.5539229,4.498 M81.5849384,8.138 C81.5849384,8.515 81.4536172,8.658 81.0202572,8.697 L80.7707469,8.723 C80.7050863,8.736 80.6788221,8.762 80.6788221,8.827 L80.6788221,9.074 L80.6919542,9.1 C81.1778427,9.087 81.5849394,9.074 82.0576947,9.074 C82.5567152,9.074 83.1213974,9.087 83.6072848,9.1 L83.633549,9.074 L83.633549,8.827 C83.633549,8.762 83.5810206,8.723 83.51536,8.723 L83.1345285,8.697 C82.7143017,8.671 82.5698473,8.515 82.5698473,8.138 L82.5698473,5.291 C82.5698473,5.122 82.6355079,4.953 82.7274328,4.836 C83.0426037,4.394 83.3315103,4.16 83.4759636,4.16 C83.5678884,4.16 83.6598133,4.199 83.738606,4.277 C83.8699272,4.407 84.0143815,4.511 84.2770229,4.511 C84.618458,4.511 84.8417041,4.303 84.8417041,3.965 C84.8417041,3.627 84.6447223,3.367 84.1063054,3.367 C83.4890967,3.367 82.9112825,4.03 82.5698473,4.537 L82.530451,4.537 L82.5698473,3.367 C82.5698473,3.341 82.5435831,3.328 82.5173189,3.328 C82.1496205,3.471 81.6243337,3.588 80.7050863,3.731 L80.7313506,4.043 L81.2960317,4.095 C81.4798814,4.121 81.5849384,4.251 81.5849384,4.901 L81.5849384,8.138 M107.54776,3.471 L107.587157,3.497 L107.587157,3.744 C107.587157,3.809 107.534628,3.835 107.442703,3.848 C106.956815,3.887 106.694173,4.355 106.510323,4.732 C105.814321,6.188 105.236507,7.527 104.185938,10.036 C103.791974,10.972 103.292954,12.09 102.360573,12.09 C102.111063,12.09 101.59891,11.947 101.59891,11.479 C101.59891,11.089 101.887817,10.972 102.097931,10.972 C102.294912,10.972 102.426234,11.05 102.505026,11.154 C102.636348,11.284 102.728272,11.375 102.859594,11.375 C103.056575,11.375 103.542464,10.231 103.870767,9.438 C103.94956,9.282 103.975824,9.152 103.975824,9.035 C103.975824,8.905 103.857635,8.554 103.752578,8.294 L102.097931,4.485 C101.887817,3.991 101.730231,3.887 101.296871,3.848 C101.218079,3.835 101.16555,3.809 101.16555,3.757 L101.16555,3.497 L101.191814,3.471 C101.454457,3.484 101.84842,3.497 102.294912,3.497 C102.767669,3.497 103.240425,3.484 103.726314,3.471 L103.752578,3.51 L103.752578,3.744 C103.752578,3.809 103.673785,3.848 103.608124,3.848 C103.109104,3.887 102.925254,3.991 103.122236,4.433 L104.566769,7.787 L106.024434,4.485 C106.313341,3.965 105.919378,3.887 105.512282,3.848 C105.446621,3.848 105.380961,3.822 105.380961,3.757 L105.380961,3.51 L105.407225,3.471 C105.893113,3.484 106.18202,3.497 106.641644,3.497 C107.009343,3.497 107.219457,3.484 107.54776,3.471 Z M96.6512325,-2.84217094e-14 C96.7694216,-2.84217094e-14 96.82195,0.039 96.82195,0.13 C96.82195,0.13 96.7825537,0.65 96.7825537,1.495 L96.7825537,4.446 C97.6624057,3.575 98.4372008,3.367 98.9493534,3.367 C99.8948661,3.367 100.367622,4.043 100.367622,5.382 L100.367622,8.138 C100.367622,8.515 100.498944,8.658 100.932304,8.697 L101.181814,8.723 C101.234342,8.723 101.286871,8.762 101.286871,8.827 L101.286871,9.074 L101.260607,9.1 C100.686076,9.088625 100.453392,9.07725 100.0435,9.07458398 L99.6953623,9.07446365 C99.2938689,9.07688889 99.073379,9.08844444 98.4897293,9.1 L98.463465,9.074 L98.463465,8.827 C98.463465,8.762 98.5028614,8.736 98.568522,8.723 L98.8180322,8.697 C99.2645243,8.645 99.3827134,8.515 99.3827134,8.138 L99.3827134,5.239 C99.3827134,4.186 99.0938068,3.978 98.3584081,3.978 C97.9775766,3.978 97.4128954,4.316 96.7825537,4.927 L96.7825537,8.138 C96.7825537,8.515 96.9138749,8.658 97.3472348,8.697 L97.5967451,8.723 C97.6492736,8.723 97.7018021,8.762 97.7018021,8.827 L97.7018021,9.074 L97.6755378,9.1 C97.1010076,9.088625 96.8683228,9.07725 96.4584314,9.07458398 L96.110744,9.07446365 C95.7732125,9.0765143 95.5708589,9.08509265 95.1635736,9.09467924 L95.162636,9.113 C95.0313148,9.178 94.8080688,9.204 94.611087,9.204 C93.8231598,9.204 93.2584786,8.658 92.8776472,8.047 L91.4725063,5.785 C91.2886566,5.486 91.0128811,5.291 89.9097841,5.291 L89.9097841,8.138 C89.9097841,8.528 90.0936347,8.658 90.6189185,8.697 L90.9734858,8.723 C91.0260142,8.723 91.0785427,8.762 91.0785427,8.827 L91.0785427,9.074 L91.0522785,9.1 C90.4350699,9.087 89.8966509,9.074 89.3713671,9.074 C88.8592145,9.074 88.3207966,9.087 87.7035879,9.1 L87.6773237,9.074 L87.6773237,8.827 C87.6773237,8.762 87.7167201,8.723 87.7823807,8.723 L88.1238158,8.697 C88.6753638,8.658 88.8460824,8.502 88.8460824,8.138 L88.8460824,1.612 C88.8460824,1.196 88.4915151,1.079 88.2682691,1.066 L87.7561164,1.04 C87.7035879,1.04 87.6773237,1.014 87.6773237,0.962 L87.6773237,0.689 L87.7035879,0.663 C88.3207966,0.676 88.8460834,0.689 89.3713671,0.689 C89.8835188,0.689 90.6845791,0.572 91.0128821,0.572 C91.8402046,0.572 92.6543981,0.637 93.2847429,1.222 C93.7574992,1.664 93.9807452,2.197 93.9807452,2.847 C93.9807452,4.212 92.7988494,4.888 92.2341693,5.07 L93.8888204,7.8 C94.1796488,8.27614634 94.4609494,8.6674053 94.9031499,8.77292805 C94.9154097,8.7450359 94.9413211,8.73134167 94.9834533,8.723 L95.2329636,8.697 C95.6794556,8.645 95.7976447,8.515 95.7976447,8.138 L95.7976447,1.755 C95.7976447,0.91 95.6663235,0.741 95.4036811,0.741 L94.9834533,0.715 C94.9440569,0.715 94.9046606,0.689 94.9046606,0.65 L94.8783963,0.338 C95.4036811,0.299 96.3229295,0.13 96.6512325,-2.84217094e-14 Z M91.0260142,1.014 C90.0936347,1.014 89.9097841,1.235 89.9097841,1.612 L89.9097841,4.849 L90.56639,4.849 C91.8402046,4.849 92.8251146,4.485 92.8251146,2.86 C92.8251146,1.326 91.8270725,1.014 91.0260142,1.014 Z M111.803759,7.852 C111.212814,8.32 110.700661,8.593 110.359226,8.593 C109.650092,8.593 108.927825,7.826 108.927825,6.201 C108.927825,5.265 109.098543,4.745 109.295524,4.472 C109.70262,3.861 110.254169,3.822 110.516811,3.822 C111.134021,3.822 111.488588,4.095 111.803759,4.589 L111.803759,7.852 M112.788668,1.495 C112.788668,0.65 112.828065,0.13 112.828065,0.13 C112.828065,0.039 112.775536,-1.42108547e-14 112.657347,-1.42108547e-14 C112.329044,0.13 111.422928,0.299 110.884511,0.338 L110.910775,0.65 C110.910775,0.689 110.950171,0.715 110.989568,0.715 L111.409796,0.741 C111.672438,0.741 111.803759,0.91 111.803759,1.755 L111.803759,3.653 C111.50172,3.484 110.923907,3.367 110.661265,3.367 C109.794545,3.367 109.216732,3.653 108.691447,4.147 C108.126766,4.706 107.811595,5.473 107.811595,6.435 C107.811595,8.034 108.599522,9.204 110.017791,9.204 C110.543076,9.204 111.199682,8.788 111.803759,8.307 L111.830023,8.32 L111.803759,9.23 L112.105798,9.23 C112.394705,8.996 112.972518,8.827 113.786709,8.684 L113.747313,8.385 L113.116971,8.32 C112.841197,8.294 112.788668,8.216 112.788668,7.566 L112.788668,1.495 M118.01705,7.852 C117.426105,8.32 116.913952,8.593 116.572517,8.593 C115.863382,8.593 115.141116,7.826 115.141116,6.201 C115.141116,5.265 115.311833,4.745 115.508815,4.472 C115.915911,3.861 116.46746,3.822 116.730102,3.822 C117.347312,3.822 117.701879,4.095 118.01705,4.589 L118.01705,7.852 M119.001959,1.495 C119.001959,0.65 119.041355,0.13 119.041355,0.13 C119.041355,0.039 118.988827,-1.42108547e-14 118.870638,-1.42108547e-14 C118.542335,0.13 117.636218,0.299 117.097802,0.338 L117.124066,0.65 C117.124066,0.689 117.163462,0.715 117.202858,0.715 L117.623086,0.741 C117.885729,0.741 118.01705,0.91 118.01705,1.755 L118.01705,3.653 C117.715011,3.484 117.137198,3.367 116.874555,3.367 C116.007836,3.367 115.430022,3.653 114.904738,4.147 C114.340056,4.706 114.024886,5.473 114.024886,6.435 C114.024886,8.034 114.812813,9.204 116.231082,9.204 C116.756366,9.204 117.412972,8.788 118.01705,8.307 L118.043314,8.32 L118.01705,9.23 L118.319089,9.23 C118.607995,8.996 119.185809,8.827 120,8.684 L119.960604,8.385 L119.330262,8.32 C119.054487,8.294 119.001959,8.216 119.001959,7.566 L119.001959,1.495" id="wikipedia-tagline-cy" fill="#000000" fill-rule="nonzero"></path>
    </g>
</svg>