<svg viewBox="0 0 99 40" xmlns="http://www.w3.org/2000/svg"><path d="M89.2 35.9c-.863.262-1.5.48-1.92.652-.422.172-.73.328-.934.469-.188.137-.395.297-.625.477-.145.109-.312.109-.5 0-.188-.113-.281-.211-.281-.301 0-.449.363-.883 1.08-1.3.723-.414 1.78-.836 3.18-1.27.867-.27 1.5-.484 1.91-.652.418-.172.727-.328.93-.465.199-.145.418-.305.648-.477.129-.109.289-.109.477 0 .188.102.281.203.281.301 0 .449-.363.879-1.08 1.29-.723.418-1.77.836-3.16 1.27zM93.1 16.6c.832 0 1.55.172 2.14.516a4.45 4.45 0 0 1 1.47 1.34c.383.547.668 1.14.844 1.78.191.633.289 1.25.289 1.85 0 .758-.191 1.5-.578 2.24a9.685 9.685 0 0 1-1.38 2.03c-.535.625-1.06 1.16-1.58 1.6-.504.43-.891.727-1.16.883-.164.098-.633.203-1.4.316-.758.105-1.64.207-2.65.305-1.01.086-1.99.16-2.94.223-.938.063-1.67.102-2.21.121a.623.623 0 0 1-.555-.266c-.133-.191-.082-.32.156-.383.684-.168 1.54-.391 2.56-.672 1.02-.289 2.09-.617 3.18-.977 1.11-.371 2.15-.758 3.12-1.16.965-.406 1.75-.805 2.36-1.2.609-.402.91-.785.91-1.14 0-.309-.176-.43-.531-.359-1.74.363-3.17.492-4.3.398-1.13-.098-1.86-.496-2.18-1.2-.309-.703-.141-1.79.516-3.24.43-.953.867-1.63 1.31-2.05.457-.422.902-.688 1.34-.793a5.52 5.52 0 0 1 1.27-.156zM71.8 20.7c-.52 0-.992-.04-1.43-.113a18.222 18.222 0 0 0-1.23-.188 3.925 3.925 0 0 0-1.17.031c-.387.07-.805.254-1.25.551-.102.063-.18.027-.238-.105a1.591 1.591 0 0 1-.105-.539 1.857 1.857 0 0 1 .062-.64c.06-.208.152-.353.281-.427.824-.438 1.49-.723 2.01-.859.52-.14.98-.19 1.38-.156.406.035.824.094 1.26.176.445.082.992.125 1.64.125.781 0 1.32-.156 1.62-.469.302-.309.478-.789.52-1.44.055-.652.086-1.48.086-2.5 0-1.29.352-2.48 1.06-3.57.898-.969 1.03-2.04 2.67-3.09 1.22-.738.648-.598 2.13-1.11 1.47-.71 2.96-1.32 4.48-1.84 2.05-.703 5.7-2.51 6.91-2.97 1.23-.457-.69.324 0 0 1.23-.312 1.95-1.95 2.89-1.04-.219 1.4-2.99 3.4-4.29 4.07-.879.45-1.55.535-3.02 1.05-1.47.54-.445.105-2.64.855-1.8.625-3.27 1.15-4.41 1.59-1.12.438-1.48.66-1.92 1.14-.617.367.262-.402 0 0-.258.398-.535.84-.574 1.39-.015.246-.168.883-.27 1.46-.086.582-.207 1.08-.41 1.84-.188.758-.238 1.52-.582 2.3-.332.79-.75 1.52-1.25 2.2a6.116 6.116 0 0 1-1.77 1.65c-.695.414-1.5.621-2.43.621zM71.2 30.7c.035-.246.164-.473.395-.68.23-.211.398-.348.516-.414.105-.05.238-.04.395.04.16.081.191.163.094.253-.09.066-.156.258-.2.578-.027.23-.042.492-.05.79v.854c0 .273-.016.5-.043.684-.043.34-.129.66-.262.965a4.94 4.94 0 0 1-.41.777c-.133.207-.238.344-.316.41-.07.059-.199.05-.383-.023-.195-.078-.27-.152-.223-.227.043-.059.109-.145.195-.258.09-.121.152-.32.188-.605.043-.27.059-.59.05-.961v-1.13a6.266 6.266 0 0 1 .055-1.05zM72.6 26.7c0 .133-.172.363-.52.684-.332.328-.734.676-1.21 1.04-.477.371-.93.688-1.36.945-.43.262-.734.391-.906.391-.23 0-.578-.125-1.04-.375a11.722 11.722 0 0 1-1.43-.914 11.15 11.15 0 0 1-1.28-1.02c-.348-.332-.52-.582-.52-.746 0-.145.172-.379.52-.699.332-.332.734-.68 1.21-1.04.477-.363.93-.676 1.36-.934.418-.258.719-.387.906-.387.16 0 .355.145.586.434.23.289.699.695 1.41 1.21.707.496 1.26.828 1.66.996.402.164.605.305.605.418zm6.64-.543c0 .133-.172.367-.52.699-.332.328-.734.676-1.21 1.04-.477.371-.93.688-1.36.945-.43.258-.734.391-.906.391-.23 0-.578-.125-1.04-.375a13.566 13.566 0 0 1-1.45-.914 9.914 9.914 0 0 1-1.25-1.04c-.348-.328-.52-.578-.52-.742 0-.145.172-.379.52-.699.332-.332.734-.68 1.21-1.04.477-.363.93-.676 1.36-.934.43-.258.742-.387.93-.387.145 0 .332.148.562.449.246.289.719.688 1.43 1.2.691.508 1.24.844 1.64 1.01.402.156.605.293.605.406z"/><path d="M53 22.1c0-.355.031-.762.09-1.22.054-.473.156-.969.3-1.5.216-.719.505-1.36.868-1.94.344-.578.898-1.26 1.66-2.03.058-.055.188-.07.39-.05.216.019.302.066.259.132-.648 1.2-.871 2.19-.672 2.98.203.79.695 1.38 1.47 1.76.793.387 1.73.582 2.81.582 1.61 0 2.93-.156 3.96-.469 1.04-.309 1.91-.656 2.62-1.04.117-.062.21-.027.28.102.075.125.118.297.13.508a1.32 1.32 0 0 1-.063.625.821.821 0 0 1-.348.477c-.3.2-.715.48-1.23.848-.504.36-1.09.73-1.77 1.11-.66.38-1.38.703-2.16.965a7.571 7.571 0 0 1-2.42.395c-.984 0-1.92-.156-2.81-.469a6.676 6.676 0 0 1-2.32-1.38c-.246.133-.484.25-.715.355-.242.102-.598.203-1.06.301.172-.117.34-.273.496-.469.16-.19.238-.387.238-.578zM55.6 29.8c0 .117-.164.32-.496.609a14.757 14.757 0 0 1-2.59 1.734c-.434.227-.734.34-.906.34-.234 0-.578-.109-1.04-.324-.461-.219-.938-.48-1.43-.785-.504-.316-.93-.621-1.27-.91-.348-.297-.52-.52-.52-.664 0-.117.172-.316.52-.598.332-.289.734-.59 1.21-.906.477-.316.93-.586 1.36-.812.418-.227.719-.34.906-.34.16 0 .355.125.586.379.23.254.699.605 1.41 1.06.703.434 1.26.723 1.66.867.402.145.605.262.605.352zm7.64-.34c0 .117-.176.32-.52.609-.332.289-.738.598-1.21.922-.477.316-.93.59-1.36.816-.434.223-.734.336-.91.336-.23 0-.574-.105-1.04-.324-.461-.215-.941-.48-1.45-.785a12.624 12.624 0 0 1-1.25-.91c-.344-.297-.52-.52-.52-.664 0-.125.176-.328.52-.609.332-.289.738-.59 1.21-.906.477-.316.926-.59 1.34-.816.43-.223.742-.336.93-.336.156 0 .352.129.582.391.23.254.699.602 1.41 1.05.707.441 1.26.734 1.67.879.402.137.605.254.605.352zm-3.03 4.86c0 .117-.172.32-.516.609-.332.289-.738.59-1.21.906-.473.316-.93.59-1.36.812-.434.238-.738.355-.91.355-.23 0-.578-.113-1.04-.34a12.727 12.727 0 0 1-1.43-.801c-.504-.305-.93-.605-1.28-.895-.348-.289-.52-.504-.52-.648 0-.129.172-.336.52-.625.332-.281.734-.578 1.21-.895.477-.316.93-.586 1.36-.812.418-.227.723-.34.91-.34.156 0 .352.125.582.379.23.254.699.605 1.41 1.06.707.434 1.26.723 1.66.867.406.145.605.266.605.367z"/><path d="M49.5 24.9c-.258 0-.598-.063-1.02-.188a84.263 84.263 0 0 0-1.23-.391c-.406-.129-.746-.254-.996-.191-.363.09-.562.156-.996.438-.211.207-.617.191-1.12.637-.117.09-1.13.809-1.13.809-.07-.195.676-.961.676-1.27a3.12 3.12 0 0 1 .086-.898c.058-.293.152-.492.28-.598.98-.734 1.7-1.23 2.14-1.47.45-.25.939-.379 1.47-.379.575 0 1.1.117 1.58.352.489.23 1.07.348 1.73.348.446 0 .923-.164 1.43-.492.509-.332.962-.676 1.36-1.04.407-.367.665-.609.782-.727.07-.078.172-.066.3.031.13.086.173.172.13.262-.418.766-.84 2.7-.973 2.35-.977.758-2.01 1.23-2.7 1.71-.676.477-1.28.711-1.8.711zM37.2 35.7c.04-.23.176-.441.41-.633.238-.195.418-.32.535-.383.109-.05.246-.035.41.035.168.074.199.152.098.234-.09.063-.16.242-.207.535a8.925 8.925 0 0 0-.055.734v.793c0 .254-.012.465-.04.633a3.095 3.095 0 0 1-.272.898 4.682 4.682 0 0 1-.426.723c-.137.191-.246.32-.328.38-.074.054-.207.046-.398-.024-.2-.07-.277-.141-.234-.207l.207-.242c.09-.11.156-.297.19-.56.048-.25.067-.546.056-.894v-1.05a5.736 5.736 0 0 1 .054-.973zM38.6 32.2c0 .113-.172.312-.52.59-.332.285-.734.582-1.21.895-.477.324-.93.594-1.36.816-.43.227-.734.336-.906.336-.23 0-.578-.105-1.04-.32s-.938-.477-1.43-.789c-.504-.305-.93-.602-1.27-.887-.348-.285-.52-.5-.52-.641 0-.125.172-.328.52-.605.332-.285.734-.582 1.21-.895.477-.312.93-.582 1.36-.805.418-.223.719-.336.906-.336.16 0 .355.125.586.375.23.25.699.598 1.41 1.05.707.426 1.26.715 1.66.855.402.145.605.266.605.363zm6.64-.469c0 .113-.172.316-.52.602-.332.285-.734.586-1.21.898-.477.32-.93.594-1.36.816-.434.223-.734.336-.906.336-.23 0-.578-.109-1.04-.324s-.945-.477-1.45-.789a9.68 9.68 0 0 1-1.25-.898c-.348-.285-.52-.5-.52-.641 0-.125.172-.328.52-.605.332-.285.734-.582 1.21-.895.477-.312.93-.582 1.36-.805.43-.223.742-.336.93-.336.145 0 .332.129.562.391.242.25.719.594 1.43 1.03.691.438 1.24.727 1.64.871.402.133.605.25.605.348z"/><path d="M44 23.3c.117-.07.195-.023.238.141.043.156.059.363.043.621 0 .246-.027.488-.086.723-.043.227-.109.375-.195.445l-1.52 1.23c-.562.453-1.17.891-1.84 1.32-.648.422-1.34.77-2.08 1.04-.719.273-1.46.41-2.23.41-1.56 0-2.9-.605-4.02-1.82-1.14-1.21-1.8-2.91-1.99-5.09-.012-.266.082-.547.281-.844.188-.301.418-.566.695-.793.273-.227.52-.371.734-.434.215-.07.434.254.45.457.07.855.163 1.39.48 2.12.315.727.827 1.31 1.54 1.75.706.438 1.68.66 2.92.668 1.08.008 2.02-.09 2.83-.293a10.87 10.87 0 0 0 2.12-.77 33.48 33.48 0 0 0 1.62-.891zM29.3 6.73c.027-.43.238-.828.625-1.21.406-.375.691-.617.867-.73.102-.059.207-.031.324.078.113.11.164.188.148.23a3.853 3.853 0 0 0-.086.36c-.027.151-.035.43-.02.831 0 .617-.015 1.27-.042 1.96a7.858 7.858 0 0 1-.324 2.04c-.188.664-.551 1.29-1.08 1.87-.52.59-1.29 1.1-2.29 1.52-.102.043-.316.043-.648 0s-.47-.078-.41-.113c.934-.395 1.61-.863 2.03-1.41.418-.547.672-1.13.758-1.76.102-.62.137-1.25.109-1.88-.032-.633-.016-1.23.043-1.79zm1.06 6.98c-1.18.16-2.25.266-3.2.309-.949.05-1.67.074-2.16.074-.145 0-.254-.102-.324-.305-.074-.207.004-.32.238-.348 2.85-.332 5.05-.648 6.57-.949 1.53-.297 2.29-.734 2.29-1.3 0-.148-.074-.266-.219-.359-.129-.105-.402-.156-.82-.156-.578 0-1.2.207-1.88.617-.676.41-1.43 1.09-2.27 2.05-.074.074-.254.145-.543.203-.285.07-.531.098-.734.09-.203-.008-.215-.074-.043-.203.734-.539 1.4-1.11 1.99-1.72.59-.605 1.22-1.12 1.9-1.55.676-.434 1.48-.652 2.42-.652.547 0 .973.113 1.28.344.316.223.477.492.477.809 0 .375-.238.777-.715 1.2-.461.43-1.07.809-1.82 1.14-.75.344-1.57.578-2.45.707z"/><path d="M32.8 16.2s-.195.719-.281 1.23c-.07.52-.094.93-.066 1.23.03.34.058.789.09 1.35.042.555.054 1.12.042 1.71a7.857 7.857 0 0 1-.176 1.54c-.097.434-.266.723-.496.859-.23.133-.547.02-.953-.332-.011-.02-.105.129-.28.445-.157.316-.376.703-.649 1.17a14.46 14.46 0 0 1-.93 1.38c-.344.453-.715.809-1.1 1.06-.273.176-.78.352-1.52.527-.734.176-1.57.34-2.51.488-.922.148-1.84.285-2.75.414l-2.34.309c-.652.082-1.05.141-1.19.18-.23.055-.44-.02-.629-.223-.172-.203-.148-.34.067-.402 2.06-.676 3.85-1.36 5.36-2.06 1.52-.703 2.83-1.52 3.94-2.45 1.11-.938 2.09-2.08 2.94-3.44.852-1.36 1.64-3.04 2.38-5.03 0 0 .12-.301 0 0zM9.05 33.9c0 .121-.172.328-.516.617-.332.297-.738.609-1.21.938-.473.336-.93.621-1.36.852-.434.234-.738.352-.91.352-.23 0-.578-.113-1.04-.336-.461-.223-.938-.5-1.43-.824a11.08 11.08 0 0 1-1.28-.926c-.348-.297-.52-.52-.52-.672 0-.129.172-.34.52-.629.332-.297.734-.609 1.21-.938.477-.324.93-.605 1.36-.84.418-.23.723-.348.91-.348.156 0 .352.129.582.391.23.262.699.625 1.41 1.09.707.449 1.26.746 1.66.898.406.148.605.273.605.375zm6.57-.34c0 .121-.102.184-.449.48-.328.301-.734.613-1.21.938-.473.336-.93.621-1.36.855-.434.23-.738.348-.91.348-.23 0-.578-.113-1.04-.336-.461-.223-.945-.5-1.45-.824a10.054 10.054 0 0 1-1.25-.938c-.348-.297-.52-.523-.52-.672 0-.129.172-.34.52-.629a11.25 11.25 0 0 1 1.21-.938c.477-.328.93-.605 1.36-.84.434-.234.742-.668.93-.668.145 0 .441.305.672.578.246.258.719.668 1.43 1.12.695.457 1.13.859 1.54 1.01.406.141.535.406.535.512zM9.12 25.8c1.17 0 2.3-.238 3.39-.715 1.11-.484 1.88-1.96 2.25-2.8 0 0 .238-.992.41-.941.188.047.121 1.84.094 1.91a14.6 14.6 0 0 1-.328.98c-.391 1.03-.871 1.88-1.45 2.56-.75.887-1.58 1.53-2.49 1.93-.91.395-1.83.59-2.77.59-.82 0-1.66-.219-2.53-.664-.863-.441-1.62-1.11-2.27-2.02-.664-.906-1.11-2.05-1.34-3.43-.027-.207.058-.445.262-.715.188-.27.418-.516.69-.738.274-.219.528-.363.759-.422.215-.07.332 0 .348.215.113 1.45.28 1.75.973 2.45.707.691 2.2 1.8 4 1.8z"/><path d="M4.24 18.6c.055 1.44.172 2.64.344 3.62.188.98.551 1.77 1.08 2.36.578.641 1.08 1.15 1.52 1.53.445.383.691.719.734 1.01.059.285-.203.602-.777.941-.793.469-1.56.438-2.29-.098-.738-.53-1.47-1.51-2.32-2.84-.652-1.25-.402-2.39-.562-3.98a64.398 64.398 0 0 1-.258-5.19c0-1.74.059-3.34.172-4.82.129-1.49.297-2.73.496-3.73a7.11 7.11 0 0 1 .562-1.63c.277-.582.586-1.12.934-1.62.344-.512.684-.91 1.02-1.2.199-.18.41-.145.625.113.219.242.27.441.152.59-.215.297-.434.79-.648 1.47-.203.68-.332 1.29-.391 1.82-.098 1.02-.18 2.12-.238 3.29-.055 1.16-.098 2.29-.129 3.4-.027 1.11-.043 2.1-.043 2.98 0 .871.008 1.53.023 1.98z"/></svg>