<svg width="120" height="13" viewBox="0 0 120 13" fill="none" xmlns="http://www.w3.org/2000/svg">
<path d="M4.66419 0.89029C4.68568 1.05372 4.70718 1.24942 4.7287 1.47735C4.75449 1.70099 4.77815 1.89668 4.79966 2.0644C4.82115 2.22784 4.84911 2.40417 4.88352 2.59339L4.4771 2.67084C4.41688 2.46871 4.35882 2.29883 4.30292 2.1612C4.2513 2.01928 4.17604 1.86875 4.07713 1.70962C3.97821 1.5462 3.86639 1.41718 3.74167 1.32255C3.62124 1.22366 3.46426 1.14192 3.27073 1.0774C3.0772 1.01287 2.85786 0.980653 2.61272 0.980653C2.18694 0.980653 1.83858 1.12474 1.56763 1.41288C1.29668 1.69673 1.16121 2.0451 1.16121 2.45797C1.16121 3.22781 1.75901 3.82775 2.95463 4.25782C3.20837 4.34817 3.43201 4.43847 3.62555 4.52879C3.82338 4.61477 4.02982 4.73308 4.24486 4.8836C4.46419 5.02983 4.64483 5.1868 4.78676 5.35454C4.92868 5.52227 5.04695 5.73086 5.14157 5.9803C5.23618 6.22974 5.28349 6.50069 5.28349 6.79313C5.28349 7.47696 5.01469 8.07476 4.4771 8.58655C3.9395 9.09834 3.29654 9.35424 2.54821 9.35424C2.14823 9.35424 1.72461 9.32202 1.27733 9.25748C0.830047 9.19295 0.488136 9.16073 0.251595 9.16073C0.230091 8.69625 0.146226 7.99092 0 7.04475L0.406423 7.00605C0.668768 8.25756 1.4171 8.88332 2.65142 8.88332C3.15891 8.88332 3.54813 8.7457 3.81908 8.47044C4.09003 8.1952 4.2255 7.79093 4.22551 7.25763C4.2255 6.97808 4.18895 6.73509 4.11584 6.52865C4.04271 6.31791 3.93305 6.14158 3.78683 5.99965C3.6406 5.85342 3.49007 5.73731 3.33525 5.65129C3.18042 5.56094 2.98903 5.47066 2.76109 5.38034C2.47724 5.27282 2.23425 5.17175 2.03211 5.07714C1.82997 4.98252 1.60849 4.85995 1.36764 4.70942C1.1311 4.5546 0.937566 4.39333 0.787041 4.2256C0.640813 4.05787 0.516091 3.85357 0.412874 3.61272C0.313956 3.36758 0.264497 3.10309 0.264497 2.81923C0.264497 2.37196 0.391369 1.96985 0.645115 1.61288C0.898859 1.25592 1.21066 0.98711 1.58053 0.806472C1.9547 0.621545 2.33962 0.529082 2.73529 0.529072C3.09655 0.529082 3.3804 0.550625 3.58684 0.593615C3.79327 0.636604 3.98036 0.690368 4.14809 0.754894C4.31582 0.819429 4.48785 0.864574 4.66418 0.890368M7.92857 3.10152e-05C8.19091 4.11782e-05 8.40165 0.120462 8.56078 0.361296C8.71991 0.597851 8.79947 0.913947 8.79947 1.30962C8.79947 1.7526 8.64679 2.12892 8.34144 2.43857C8.03609 2.74393 7.67052 2.93531 7.24475 3.01272C7.16304 2.93528 7.12217 2.82994 7.12217 2.69661C7.44043 2.61917 7.71353 2.46438 7.94147 2.23213C8.16941 1.9956 8.28338 1.79776 8.28338 1.63862C8.28338 1.39778 8.1264 1.26231 7.81245 1.2322C7.42538 1.16767 7.23184 0.974173 7.23184 0.651598C7.23184 0.466681 7.29636 0.311846 7.42538 0.187114C7.5587 0.0624037 7.72643 4.11782e-05 7.92857 3.10152e-05ZM11.4058 5.4319H13.8315C13.9562 5.4319 14.0186 5.37174 14.0186 5.25127C14.0186 4.98893 13.9841 4.76314 13.9153 4.5739C13.8508 4.38467 13.7605 4.24275 13.6444 4.14812C13.5326 4.04924 13.4164 3.9804 13.296 3.94169C13.1799 3.8987 13.0552 3.87714 12.9219 3.87714C12.8358 3.87715 12.7498 3.88325 12.6638 3.89656C12.5821 3.90469 12.4703 3.93955 12.3284 3.99978C12.1864 4.05567 12.0596 4.13525 11.9477 4.23847C11.8402 4.3417 11.7327 4.49652 11.6252 4.70295C11.522 4.9094 11.4488 5.15239 11.4058 5.43193M14.8895 7.96724C15.0271 7.98014 15.1152 8.05108 15.154 8.18013C14.8916 8.54139 14.5691 8.82739 14.1863 9.03813C13.8035 9.24886 13.382 9.35424 12.9219 9.35424C12.0617 9.35424 11.4101 9.0962 10.9672 8.5801C10.5285 8.06401 10.3091 7.40168 10.3091 6.59314C10.3091 6.11145 10.3866 5.66633 10.5414 5.25775C10.6962 4.84919 10.8983 4.51372 11.1478 4.25137C11.3972 3.98902 11.6746 3.78689 11.98 3.64496C12.2896 3.49874 12.6036 3.42562 12.9219 3.42562C13.2573 3.42562 13.5541 3.47075 13.8121 3.5611C14.0702 3.65145 14.2766 3.76969 14.4314 3.91591C14.5906 4.05784 14.7196 4.23202 14.8185 4.43846C14.9174 4.6449 14.9841 4.85133 15.0185 5.05777C15.0572 5.26421 15.0765 5.4857 15.0765 5.72224C15.0765 5.87277 14.997 5.94803 14.8379 5.94803H11.3607C11.3607 6.3265 11.4015 6.67486 11.4833 6.99311C11.5693 7.30707 11.6768 7.56726 11.8058 7.7737C11.9391 7.98013 12.0897 8.15647 12.2574 8.3027C12.4294 8.44461 12.5972 8.54785 12.7606 8.61235C12.924 8.67689 13.0831 8.7091 13.238 8.7091C13.5949 8.7091 13.9003 8.65108 14.154 8.53492C14.4078 8.4145 14.6529 8.22526 14.8895 7.96722M18.1087 3.42559L18.07 4.5997H18.1087C18.5001 4.13953 18.8613 3.82987 19.1925 3.67074C19.5279 3.50732 19.8849 3.42559 20.2634 3.42559C20.5515 3.42559 20.7924 3.47723 20.9859 3.58042C21.1837 3.68365 21.3343 3.83633 21.4375 4.03845C21.5407 4.2363 21.6117 4.45347 21.6504 4.69002C21.6934 4.92227 21.7149 5.19751 21.7149 5.51577V8.27686C21.7149 8.4661 21.7557 8.60373 21.8375 8.68974C21.9192 8.77145 22.0632 8.82306 22.2697 8.84456L22.5213 8.87038C22.5987 8.88756 22.6374 8.92201 22.6374 8.9736V9.2252L22.6116 9.251C21.9063 9.23377 21.4353 9.22518 21.1988 9.22518C21.0311 9.22518 20.5945 9.23332 19.8892 9.251L19.8634 9.22518V8.97359C19.8634 8.91769 19.9 8.88323 19.9731 8.87037L20.1537 8.84455C20.373 8.81009 20.5214 8.7542 20.5988 8.67682C20.6805 8.59511 20.7214 8.46178 20.7214 8.27685V5.41898C20.7214 4.92871 20.6612 4.58034 20.5408 4.3739C20.4246 4.16317 20.1989 4.05781 19.8634 4.05781C19.558 4.05781 19.2699 4.13311 18.9989 4.2836C18.728 4.43412 18.4312 4.69863 18.1087 5.07709V8.27685C18.1087 8.46608 18.1474 8.59941 18.2248 8.67682C18.3065 8.75426 18.457 8.81014 18.6764 8.84455L18.8635 8.87037C18.9323 8.88327 18.9667 8.91763 18.9667 8.97359V9.22518L18.9409 9.251C18.2356 9.23378 17.7861 9.22518 17.5926 9.22518C17.3819 9.22518 16.9238 9.23332 16.2185 9.251L16.1927 9.22518V8.97359C16.1927 8.91769 16.2271 8.88323 16.2959 8.87037L16.5475 8.84455C16.7668 8.823 16.9152 8.77148 16.9926 8.68972C17.0743 8.60801 17.1152 8.47038 17.1152 8.27685V4.98676C17.1152 4.67281 17.0916 4.46207 17.0442 4.35454C17.0012 4.24273 16.9281 4.18038 16.8249 4.16748L16.2572 4.10943L16.2314 3.79332C17.0743 3.66432 17.6829 3.52884 18.0571 3.3869C18.0915 3.38691 18.1087 3.39981 18.1087 3.42562M25.405 4.07071V7.41241C25.405 7.84679 25.4351 8.15859 25.4954 8.34782C25.5556 8.53706 25.6695 8.63167 25.8373 8.63167C26.1512 8.63167 26.4695 8.50695 26.792 8.25751C26.9254 8.27905 27.0049 8.35426 27.0307 8.4833C26.5146 9.0639 25.9641 9.3542 25.3792 9.3542C24.7341 9.3542 24.4116 8.91982 24.4116 8.05107V4.07071H23.5536C23.5192 4.07072 23.502 4.05354 23.502 4.01908V3.61266C23.502 3.57394 23.5149 3.55463 23.5407 3.55463C23.9621 3.55464 24.2503 3.43422 24.4051 3.19337C24.5599 2.94823 24.6374 2.559 24.6374 2.02571V1.77411L25.4051 1.5096V3.55463H26.8566C26.9297 3.55464 26.9662 3.58257 26.9662 3.63847V3.90296C26.9662 3.95459 26.9318 3.99544 26.863 4.02554C26.7942 4.05562 26.7211 4.07066 26.6437 4.07066H25.4051M28.4243 3.38689C28.4673 3.39502 28.5404 3.42561 28.6436 3.47723C28.7468 3.52886 28.8802 3.55468 29.0436 3.55468H31.7273C31.8391 3.55469 31.9617 3.54858 32.095 3.53537C32.2326 3.5182 32.3466 3.50315 32.4369 3.49024C32.5315 3.47307 32.5853 3.46442 32.5982 3.46442C32.7057 3.46443 32.7595 3.4945 32.7595 3.55477C32.7595 3.62358 32.6627 3.80854 32.4692 4.10959L29.2952 8.77376H31.0499C31.4069 8.77376 31.6692 8.69632 31.8369 8.54153C32.009 8.38671 32.1831 8.1136 32.3595 7.72223L32.5337 7.33516L32.8756 7.42551C32.6906 8.04913 32.5487 8.64908 32.4498 9.22538H28.3856C28.1834 9.22538 28.0824 9.17162 28.0824 9.0641C28.0824 9.00821 28.1211 8.92003 28.1985 8.79961L31.4499 4.0064H29.6242C29.4006 4.0064 29.1898 4.10316 28.992 4.2967C28.7941 4.48594 28.635 4.8042 28.5146 5.25147L28.1727 5.20634C28.2974 4.42791 28.3641 3.8344 28.3727 3.42583C28.3727 3.40001 28.3899 3.3871 28.4243 3.3871M34.8691 2.14181C34.7444 2.0171 34.682 1.86871 34.682 1.69668C34.682 1.52465 34.7444 1.37629 34.8691 1.25155C34.9938 1.12253 35.1422 1.05803 35.3142 1.05802C35.4862 1.05803 35.6346 1.12042 35.7593 1.2451C35.8884 1.36983 35.9529 1.52036 35.9529 1.69668C35.9529 1.86871 35.8884 2.0171 35.7593 2.14181C35.6346 2.26655 35.4862 2.3289 35.3142 2.3289C35.1422 2.3289 34.9938 2.2665 34.8691 2.14181ZM35.9271 3.42559C35.897 4.0234 35.8819 4.5438 35.8819 4.98677V8.27686C35.8819 8.4661 35.9228 8.60373 36.0045 8.68974C36.0905 8.77145 36.2367 8.82306 36.4432 8.84456L36.6883 8.87038C36.77 8.88329 36.8109 8.91764 36.8109 8.9736V9.2252L36.7851 9.251C36.0797 9.23377 35.6088 9.22518 35.3723 9.22518C35.1615 9.22518 34.7035 9.23332 33.9982 9.251L33.9724 9.22518V8.97359C33.9724 8.91769 34.0068 8.88323 34.0756 8.87037L34.3272 8.84455C34.5508 8.81446 34.7014 8.76072 34.7788 8.68328C34.8562 8.60157 34.8949 8.46608 34.8949 8.27685V4.98676C34.8949 4.67281 34.8712 4.46207 34.8239 4.35454C34.7809 4.24273 34.7078 4.18038 34.6046 4.16748L34.0369 4.10943L34.0111 3.79332C34.897 3.66001 35.5164 3.52453 35.869 3.3869C35.9077 3.38691 35.9271 3.39981 35.9271 3.42562M42.7202 8.02527C42.5095 8.37363 42.2816 8.64887 42.0364 8.85101C41.7956 9.05315 41.5612 9.18647 41.3332 9.25099C41.1096 9.31979 40.8537 9.3542 40.5655 9.3542C39.7484 9.3542 39.1119 9.09186 38.656 8.56716C38.2044 8.04247 37.9786 7.34575 37.9786 6.47699C37.9786 6.02111 38.0539 5.59963 38.2044 5.21256C38.355 4.82549 38.5571 4.50294 38.8108 4.24489C39.0646 3.98685 39.3549 3.78686 39.6817 3.64493C40.0129 3.49871 40.357 3.42559 40.7139 3.42559C41.3203 3.42559 41.7999 3.55893 42.1525 3.82557C42.5052 4.08791 42.6815 4.40402 42.6815 4.77388C42.6815 4.95021 42.617 5.09 42.488 5.19321C42.359 5.2921 42.217 5.34159 42.0622 5.34159C41.7784 5.34159 41.6192 5.18676 41.5848 4.8771C41.5676 4.73949 41.5461 4.62552 41.5203 4.53519C41.4945 4.44057 41.4493 4.33736 41.3848 4.22554C41.3246 4.10941 41.2322 4.02341 41.1074 3.96749C40.9827 3.90733 40.8279 3.87714 40.643 3.87714C40.1957 3.87715 39.8258 4.08573 39.5334 4.50291C39.2452 4.91578 39.1011 5.47704 39.1011 6.18666C39.1011 6.9522 39.2646 7.57581 39.5914 8.05749C39.9226 8.53488 40.3441 8.77357 40.8558 8.77357C41.144 8.77357 41.43 8.69186 41.7139 8.52843C41.9977 8.36069 42.2407 8.13061 42.4428 7.83815C42.5805 7.85533 42.6729 7.91772 42.7202 8.02524M44.6234 8.27686V1.787C44.6234 1.37844 44.5912 1.10533 44.5267 0.967704C44.4664 0.825787 44.3654 0.754826 44.2235 0.754816L43.8041 0.729011C43.7482 0.729022 43.7203 0.707459 43.7203 0.664469L43.6945 0.348362C43.9697 0.326817 44.2944 0.281692 44.6686 0.212888C45.0428 0.139816 45.3137 0.0688242 45.4814 0C45.5933 1.0163e-05 45.6492 0.0451247 45.6492 0.135474C45.6234 0.488152 45.6105 0.950476 45.6105 1.52247V8.27683C45.6104 8.47037 45.6492 8.60799 45.7266 8.6897C45.804 8.77142 45.9502 8.82303 46.1653 8.84453L46.4814 8.87035C46.5545 8.87035 46.591 8.90481 46.591 8.97357V9.22517L46.5652 9.25097C45.6793 9.23377 45.189 9.22518 45.0944 9.22518C45.0126 9.22518 44.5331 9.23332 43.6558 9.251L43.6428 9.22518V8.97359C43.6428 8.90478 43.673 8.87037 43.7332 8.87037L44.0493 8.84455C44.2686 8.823 44.4191 8.77148 44.5009 8.68972C44.5826 8.60801 44.6234 8.47038 44.6234 8.27685M47.6814 6.5157C47.6814 5.59104 47.9222 4.84485 48.4039 4.27715C48.8856 3.70945 49.5565 3.42559 50.4167 3.42559C50.7951 3.42559 51.1392 3.48576 51.4488 3.60623C51.7585 3.72235 52.0144 3.87933 52.2165 4.07716C52.423 4.2707 52.595 4.49864 52.7326 4.76098C52.8745 5.01903 52.9756 5.28568 53.0358 5.56093C53.096 5.83618 53.1261 6.11572 53.1261 6.39958C53.1261 6.74364 53.0681 7.08556 52.952 7.42531C52.8401 7.76077 52.6767 8.07473 52.4617 8.36718C52.2509 8.65963 51.9649 8.89833 51.6037 9.08326C51.2424 9.26389 50.8381 9.3542 50.3909 9.3542C49.9651 9.3542 49.5759 9.27036 49.2232 9.10261C48.8705 8.93489 48.5845 8.71339 48.3652 8.43814C48.1459 8.16288 47.976 7.85968 47.8556 7.52853C47.7394 7.19736 47.6814 6.85977 47.6814 6.5157M50.2683 3.86427C49.9328 3.86427 49.6511 3.98469 49.4232 4.22554C49.1952 4.46208 49.034 4.75024 48.9393 5.08999C48.849 5.42976 48.8039 5.80393 48.8039 6.21249C48.8039 6.42754 48.8232 6.65332 48.8619 6.88986C48.9049 7.12211 48.9738 7.3608 49.0684 7.60594C49.163 7.85108 49.277 8.07042 49.4103 8.26396C49.5436 8.45749 49.7135 8.61662 49.9199 8.74134C50.1307 8.86177 50.3607 8.92198 50.6102 8.92198C50.7779 8.92198 50.9349 8.89402 51.0811 8.83813C51.2317 8.77796 51.3779 8.67685 51.5198 8.53492C51.666 8.3887 51.7822 8.16936 51.8682 7.87691C51.9542 7.58445 51.9972 7.2318 51.9972 6.81892C51.9972 5.85985 51.8467 5.12872 51.5456 4.62552C51.2446 4.11804 50.8188 3.86429 50.2683 3.86429M56.0551 5.1158V8.34137C56.3776 8.71984 56.7432 8.90908 57.1518 8.90907C57.4227 8.90908 57.6636 8.85957 57.8743 8.7607C58.0893 8.65748 58.2614 8.52631 58.3904 8.36718C58.5194 8.20805 58.6248 8.01881 58.7065 7.79948C58.7925 7.58014 58.8506 7.36296 58.8807 7.14791C58.9108 6.93288 58.9258 6.70924 58.9258 6.47699C58.9258 5.75016 58.7796 5.16096 58.4871 4.70937C58.199 4.2578 57.8463 4.032 57.4292 4.032C57.1883 4.032 56.9324 4.13089 56.6615 4.32876C56.3948 4.52229 56.1927 4.78464 56.0551 5.1158M55.068 4.98677C55.068 4.67713 55.0444 4.46638 54.9971 4.35456C54.9498 4.24275 54.8767 4.18038 54.7777 4.16748L54.21 4.10945L54.1842 3.79334C55.0057 3.66863 55.6121 3.53315 56.0035 3.38692C56.0379 3.38693 56.0551 3.39983 56.0551 3.42564L56.0164 4.48361H56.0551C56.5195 3.7783 57.098 3.42564 57.7904 3.42564C58.2033 3.42564 58.5818 3.55252 58.9258 3.80626C59.2699 4.06001 59.5365 4.39331 59.7258 4.80619C59.915 5.21906 60.0096 5.65774 60.0096 6.12222C60.0096 7.15871 59.7 7.99091 59.0807 8.61882C58.5947 9.1091 57.9797 9.35424 57.2356 9.35424C56.8099 9.35424 56.4163 9.25749 56.0551 9.06395V11.3541C56.0551 11.539 56.0959 11.6724 56.1776 11.7541C56.2636 11.8401 56.4077 11.8917 56.6099 11.9089L56.8615 11.9347C56.9432 11.9476 56.984 11.982 56.984 12.0379V12.2895L56.9582 12.3153C56.3045 12.2982 55.8336 12.2895 55.5454 12.2895C55.2745 12.2895 54.8164 12.2976 54.1713 12.3153L54.1391 12.2895V12.0379C54.1391 11.982 54.1756 11.9476 54.2487 11.9347L54.5003 11.9089C54.7111 11.8917 54.8573 11.8401 54.939 11.7541C55.025 11.6724 55.068 11.539 55.068 11.3541V4.98682M62.545 5.4319H64.9707C65.0954 5.4319 65.1577 5.37174 65.1577 5.25127C65.1577 4.98893 65.1233 4.76314 65.0545 4.5739C64.99 4.38467 64.8997 4.24275 64.7836 4.14812C64.6718 4.04924 64.5556 3.9804 64.4352 3.94169C64.3191 3.8987 64.1944 3.87714 64.0611 3.87714C63.975 3.87715 63.889 3.88325 63.803 3.89656C63.7213 3.90469 63.6095 3.93955 63.4675 3.99978C63.3256 4.05567 63.1987 4.13525 63.0869 4.23847C62.9794 4.3417 62.8719 4.49652 62.7644 4.70295C62.6611 4.9094 62.588 5.15239 62.545 5.43193M66.0287 7.96724C66.1663 7.98014 66.2544 8.05108 66.2932 8.18013C66.0308 8.54139 65.7082 8.82739 65.3255 9.03813C64.9427 9.24886 64.5212 9.35424 64.0611 9.35424C63.2009 9.35424 62.5493 9.0962 62.1064 8.5801C61.6677 8.06401 61.4483 7.40168 61.4483 6.59314C61.4483 6.11145 61.5257 5.66633 61.6806 5.25775C61.8354 4.84919 62.0375 4.51372 62.287 4.25137C62.5364 3.98902 62.8138 3.78689 63.1192 3.64496C63.4288 3.49874 63.7428 3.42562 64.0611 3.42562C64.3965 3.42562 64.6933 3.47075 64.9513 3.5611C65.2094 3.65145 65.4158 3.76969 65.5706 3.91591C65.7297 4.05784 65.8588 4.23202 65.9577 4.43846C66.0566 4.6449 66.1233 4.85133 66.1577 5.05777C66.1964 5.26421 66.2157 5.4857 66.2157 5.72224C66.2157 5.87277 66.1362 5.94803 65.977 5.94803H62.4999C62.4999 6.3265 62.5407 6.67486 62.6224 6.99311C62.7085 7.30707 62.816 7.56726 62.945 7.7737C63.0783 7.98013 63.2288 8.15647 63.3966 8.3027C63.5686 8.44461 63.7363 8.54785 63.8998 8.61235C64.0632 8.67689 64.2223 8.7091 64.3772 8.7091C64.7341 8.7091 65.0395 8.65108 65.2932 8.53492C65.547 8.4145 65.7921 8.22526 66.0287 7.96722M71.6606 7.98011V4.66422C71.4929 4.40187 71.3101 4.20833 71.1123 4.08361C70.9144 3.95459 70.6671 3.89008 70.3704 3.89008C69.8414 3.89008 69.4307 4.10942 69.1382 4.54809C68.8931 4.90076 68.7705 5.48567 68.7705 6.30281C68.7705 7.07695 68.9124 7.6769 69.1963 8.10268C69.4844 8.52415 69.822 8.73489 70.2091 8.73489C70.5532 8.73489 71.037 8.4833 71.6606 7.98011ZM72.6541 1.5225V7.68981C72.6541 8.01666 72.6734 8.22311 72.7121 8.30912C72.7508 8.3951 72.8412 8.44459 72.9831 8.45749L73.6218 8.52204L73.6605 8.83168C72.8046 8.98221 72.2412 9.16714 71.9703 9.38648H71.6606L71.6929 8.45751L71.6606 8.44461C70.9123 9.05102 70.3145 9.35422 69.8672 9.35422C69.1705 9.35422 68.6264 9.09403 68.2351 8.57365C67.8437 8.05325 67.648 7.37587 67.648 6.54152C67.648 5.58245 67.9426 4.80831 68.5318 4.2191C68.8114 3.95245 69.106 3.75463 69.4156 3.62559C69.7296 3.49229 70.0951 3.42562 70.5123 3.42562C70.6585 3.42562 70.8499 3.45356 71.0865 3.50946C71.3273 3.56536 71.5187 3.63418 71.6606 3.7159V1.787C71.6606 1.37844 71.6305 1.10533 71.5703 0.967704C71.5101 0.825787 71.409 0.754826 71.2671 0.754816L70.8413 0.729011C70.7897 0.729022 70.7639 0.707459 70.7639 0.664469L70.7381 0.348362C71.0133 0.326817 71.3381 0.281692 71.7122 0.212888C72.0864 0.139816 72.3573 0.0688242 72.5251 0C72.6369 1.0163e-05 72.6928 0.0451247 72.6928 0.135474C72.667 0.488152 72.6541 0.950476 72.6541 1.52247M75.5185 2.14181C75.3938 2.0171 75.3314 1.86871 75.3314 1.69668C75.3314 1.52465 75.3938 1.37629 75.5185 1.25155C75.6432 1.12253 75.7916 1.05803 75.9636 1.05802C76.1357 1.05803 76.284 1.12042 76.4088 1.2451C76.5378 1.36983 76.6023 1.52036 76.6023 1.69668C76.6023 1.86871 76.5378 2.0171 76.4088 2.14181C76.284 2.26655 76.1357 2.3289 75.9636 2.3289C75.7916 2.3289 75.6432 2.2665 75.5185 2.14181ZM76.5765 3.42559C76.5464 4.0234 76.5313 4.5438 76.5313 4.98677V8.27686C76.5313 8.4661 76.5722 8.60373 76.6539 8.68974C76.7399 8.77145 76.8861 8.82306 77.0926 8.84456L77.3377 8.87038C77.4194 8.88329 77.4603 8.91764 77.4603 8.9736V9.2252L77.4345 9.251C76.7292 9.23377 76.2582 9.22518 76.0217 9.22518C75.8109 9.22518 75.3529 9.23332 74.6476 9.251L74.6218 9.22518V8.97359C74.6218 8.91769 74.6562 8.88323 74.725 8.87037L74.9766 8.84455C75.2002 8.81446 75.3508 8.76072 75.4282 8.68328C75.5056 8.60157 75.5443 8.46608 75.5443 8.27685V4.98676C75.5443 4.67281 75.5206 4.46207 75.4733 4.35454C75.4303 4.24273 75.3572 4.18038 75.254 4.16748L74.6863 4.10943L74.6605 3.79332C75.5465 3.66001 76.1658 3.52453 76.5184 3.3869C76.5571 3.38691 76.5765 3.39981 76.5765 3.42562M81.9827 6.14798L80.9376 6.42538C80.086 6.65763 79.6602 7.14146 79.6602 7.87689C79.6602 8.11343 79.7462 8.33062 79.9183 8.52846C80.0903 8.72199 80.329 8.81876 80.6344 8.81876C80.9354 8.81876 81.3225 8.62737 81.7956 8.24461C81.9203 8.15863 81.9826 8.04462 81.9827 7.90269V6.14798ZM81.9827 8.59297H81.9568L81.6923 8.7994C81.3999 9.02735 81.1612 9.17572 80.9763 9.24453C80.7956 9.31761 80.5548 9.3542 80.2537 9.3542C79.7549 9.3542 79.357 9.24023 79.0603 9.01229C78.7635 8.78435 78.6151 8.42309 78.6151 7.9285C78.6151 7.48982 78.8108 7.10275 79.2022 6.76729C79.5979 6.42754 80.1204 6.17594 80.7698 6.01251L81.9052 5.73511C81.9568 5.71793 81.9827 5.66631 81.9827 5.58028C81.9826 5.29214 81.959 5.04053 81.9117 4.82549C81.8644 4.60616 81.8063 4.43412 81.7375 4.3094C81.6687 4.18468 81.5827 4.08577 81.4795 4.01265C81.3805 3.93521 81.2859 3.88364 81.1956 3.85782C81.1096 3.83201 81.015 3.8191 80.9118 3.8191C80.6279 3.81911 80.3742 3.87072 80.1505 3.97393C79.9269 4.07715 79.8151 4.22554 79.8151 4.41907C79.8151 4.53949 79.8237 4.6255 79.8409 4.6771C79.8667 4.733 79.8796 4.81259 79.8796 4.91581C79.8796 5.01903 79.8258 5.11793 79.7183 5.21255C79.6151 5.30717 79.4753 5.35449 79.299 5.35449C78.9936 5.35449 78.8409 5.19966 78.8409 4.88999C78.8409 4.65775 78.9463 4.42767 79.1571 4.19973C79.3678 3.9718 79.643 3.78686 79.9828 3.64493C80.3226 3.49871 80.6666 3.42559 81.015 3.42559C81.2257 3.42559 81.4171 3.44277 81.5891 3.47722C81.7655 3.51167 81.9418 3.57824 82.1181 3.6772C82.2945 3.77182 82.4407 3.8987 82.5568 4.05782C82.6772 4.21696 82.774 4.43414 82.8471 4.70939C82.9245 4.98035 82.9632 5.29644 82.9632 5.65771V7.62531C82.9632 7.75003 82.9632 7.8511 82.9632 7.92851C82.9675 8.00159 82.974 8.08978 82.9826 8.193C82.9955 8.29188 83.0127 8.37149 83.0342 8.4317C83.0557 8.4876 83.0836 8.54566 83.1181 8.60587C83.1568 8.66604 83.2062 8.7091 83.2664 8.73491C83.3309 8.76072 83.404 8.77363 83.4858 8.77363C83.5804 8.77363 83.6578 8.75644 83.718 8.72199C83.7782 8.68754 83.8234 8.6532 83.8535 8.61879C83.8836 8.58434 83.9072 8.56715 83.9244 8.56715C83.9502 8.56715 83.9804 8.5887 84.0148 8.63169C84.0535 8.67468 84.0728 8.71767 84.0728 8.76071C84.0728 8.77789 84.0556 8.80797 84.0212 8.85106C83.9868 8.89405 83.9352 8.94354 83.8664 8.99942C83.8019 9.05532 83.7266 9.11126 83.6406 9.16717C83.5546 9.2188 83.4514 9.26177 83.3309 9.29617C83.2148 9.3349 83.0965 9.3542 82.9761 9.3542C82.4557 9.3542 82.1246 9.10048 81.9827 8.59298M89.4726 8.27686V1.787C89.4726 1.37844 89.4404 1.10533 89.3759 0.967704C89.3157 0.825787 89.2146 0.754826 89.0727 0.754816L88.6534 0.729011C88.5974 0.729022 88.5695 0.707459 88.5695 0.664469L88.5437 0.348362C88.8189 0.326817 89.1436 0.281692 89.5178 0.212888C89.892 0.139816 90.1629 0.0688242 90.3307 0C90.4425 1.0163e-05 90.4984 0.0451247 90.4984 0.135474C90.4726 0.488152 90.4597 0.950476 90.4597 1.52247V8.27683C90.4597 8.47037 90.4984 8.60799 90.5758 8.6897C90.6532 8.77142 90.7994 8.82303 91.0145 8.84453L91.3306 8.87035C91.4037 8.87035 91.4402 8.90481 91.4402 8.97357V9.22517L91.4144 9.25097C90.5285 9.23377 90.0382 9.22518 89.9436 9.22518C89.8619 9.22518 89.3823 9.23332 88.505 9.251L88.4921 9.22518V8.97359C88.4921 8.90478 88.5222 8.87037 88.5824 8.87037L88.8985 8.84455C89.1178 8.823 89.2684 8.77148 89.3501 8.68972C89.4318 8.60801 89.4726 8.47038 89.4726 8.27685M93.3757 2.14181C93.251 2.0171 93.1886 1.86871 93.1886 1.69668C93.1886 1.52465 93.251 1.37629 93.3757 1.25155C93.5004 1.12253 93.6488 1.05803 93.8208 1.05802C93.9928 1.05803 94.1412 1.12042 94.266 1.2451C94.395 1.36983 94.4595 1.52036 94.4595 1.69668C94.4595 1.86871 94.3949 2.0171 94.266 2.14181C94.1412 2.26655 93.9928 2.3289 93.8208 2.3289C93.6488 2.3289 93.5004 2.2665 93.3757 2.14181ZM94.4337 3.42559C94.4036 4.0234 94.3886 4.5438 94.3886 4.98677V8.27686C94.3886 8.4661 94.4294 8.60373 94.5111 8.68974C94.5971 8.77145 94.7434 8.82306 94.9498 8.84456L95.1949 8.87038C95.2767 8.88329 95.3175 8.91764 95.3175 8.9736V9.2252L95.2917 9.251C94.5864 9.23377 94.1154 9.22518 93.8789 9.22518C93.6681 9.22518 93.2101 9.23332 92.5048 9.251L92.479 9.22518V8.97359C92.479 8.91769 92.5134 8.88323 92.5822 8.87037L92.8338 8.84455C93.0574 8.81446 93.208 8.76072 93.2854 8.68328C93.3628 8.60157 93.4015 8.46608 93.4015 8.27685V4.98676C93.4015 4.67281 93.3778 4.46207 93.3306 4.35454C93.2876 4.24273 93.2144 4.18038 93.1112 4.16748L92.5435 4.10943L92.5177 3.79332C93.4037 3.66001 94.023 3.52453 94.3757 3.3869C94.4144 3.38691 94.4337 3.39981 94.4337 3.42562M98.0142 8.28976C98.1733 8.4876 98.3238 8.64028 98.4657 8.7478C98.612 8.85532 98.7797 8.90908 98.9689 8.90907C99.571 8.90908 100.029 8.66608 100.343 8.18009C100.661 7.69411 100.82 7.05544 100.82 6.2641C100.82 5.62759 100.678 5.09214 100.395 4.65776C100.111 4.2234 99.7667 4.0062 99.3625 4.0062C99.2721 4.0062 99.1711 4.01433 99.0593 4.03202C98.9474 4.04492 98.784 4.09656 98.569 4.18685C98.3539 4.27719 98.169 4.40187 98.0142 4.561V8.28978M97.0271 1.78702C97.0271 1.37845 96.9949 1.10535 96.9304 0.96772C96.8701 0.825803 96.7691 0.754842 96.6272 0.754832L96.2079 0.729011C96.152 0.729022 96.124 0.707474 96.124 0.664484L96.0982 0.348362C96.3691 0.326817 96.6938 0.279565 97.0723 0.206452C97.4551 0.13338 97.726 0.0645407 97.8852 1.55076e-05C97.997 2.56706e-05 98.0529 0.0451402 98.0529 0.13549C98.0271 0.488168 98.0142 0.950491 98.0142 1.52249V4.15456C98.4614 3.66858 98.999 3.42558 99.627 3.42558C99.9151 3.42558 100.197 3.48798 100.472 3.61266C100.747 3.73308 100.995 3.90296 101.214 4.12229C101.433 4.33734 101.61 4.61258 101.743 4.94803C101.876 5.2792 101.943 5.63833 101.943 6.02539C101.943 6.52859 101.855 6.99521 101.678 7.42528C101.506 7.85536 101.281 8.20804 101.001 8.48328C100.722 8.75853 100.412 8.97356 100.072 9.1284C99.7323 9.27892 99.3904 9.35417 99.0464 9.35417C98.5045 9.35417 98.0464 9.19291 97.6723 8.87035C97.5303 9.07678 97.3863 9.24882 97.24 9.38644C97.1196 9.38644 97.0271 9.36276 96.9626 9.3155C97.0056 9.07465 97.0272 8.73274 97.0272 8.28976V1.787M104.453 5.4319H106.878C107.003 5.4319 107.065 5.37174 107.065 5.25127C107.065 4.98893 107.031 4.76314 106.962 4.5739C106.897 4.38467 106.807 4.24275 106.691 4.14812C106.579 4.04924 106.463 3.9804 106.343 3.94169C106.227 3.8987 106.102 3.87714 105.969 3.87714C105.883 3.87715 105.797 3.88325 105.71 3.89656C105.629 3.90469 105.517 3.93955 105.375 3.99978C105.233 4.05567 105.106 4.13525 104.994 4.23847C104.887 4.3417 104.779 4.49652 104.672 4.70295C104.569 4.9094 104.496 5.15239 104.453 5.43193M107.936 7.96724C108.074 7.98014 108.162 8.05108 108.201 8.18013C107.938 8.54139 107.616 8.82739 107.233 9.03813C106.85 9.24886 106.429 9.35424 105.969 9.35424C105.108 9.35424 104.457 9.0962 104.014 8.5801C103.575 8.06401 103.356 7.40168 103.356 6.59314C103.356 6.11145 103.433 5.66633 103.588 5.25775C103.743 4.84919 103.945 4.51372 104.194 4.25137C104.444 3.98902 104.721 3.78689 105.027 3.64496C105.336 3.49874 105.65 3.42562 105.969 3.42562C106.304 3.42562 106.601 3.47075 106.859 3.5611C107.117 3.65145 107.323 3.76969 107.478 3.91591C107.637 4.05784 107.766 4.23202 107.865 4.43846C107.964 4.6449 108.031 4.85133 108.065 5.05777C108.104 5.26421 108.123 5.4857 108.123 5.72224C108.123 5.87277 108.044 5.94803 107.885 5.94803H104.407C104.407 6.3265 104.448 6.67486 104.53 6.99311C104.616 7.30707 104.723 7.56726 104.852 7.7737C104.986 7.98013 105.136 8.15647 105.304 8.3027C105.476 8.44461 105.644 8.54785 105.807 8.61235C105.971 8.67689 106.13 8.7091 106.285 8.7091C106.642 8.7091 106.947 8.65108 107.201 8.53492C107.454 8.4145 107.7 8.22526 107.936 7.96722M110.246 8.27686V4.98677C110.246 4.67713 110.222 4.46638 110.175 4.35456C110.127 4.24275 110.054 4.18038 109.955 4.16748L109.388 4.10945L109.356 3.79334C110.207 3.66433 110.816 3.52885 111.181 3.38692C111.216 3.38693 111.233 3.39983 111.233 3.42564L111.194 4.61265H111.233C111.766 3.82132 112.282 3.42564 112.781 3.42564C113.276 3.42564 113.523 3.62778 113.523 4.03205C113.523 4.20408 113.471 4.33955 113.368 4.43847C113.265 4.53736 113.125 4.58685 112.949 4.58685C112.742 4.58685 112.564 4.50726 112.413 4.34814C112.332 4.2707 112.244 4.23203 112.149 4.23202C112.071 4.23203 111.964 4.2923 111.826 4.41267C111.689 4.53309 111.545 4.70082 111.394 4.91586C111.287 5.05348 111.233 5.20831 111.233 5.38034V8.27689C111.233 8.47043 111.276 8.61021 111.362 8.69622C111.448 8.7822 111.594 8.8317 111.801 8.84461L112.188 8.87041C112.265 8.87041 112.304 8.90487 112.304 8.97363V9.22523L112.278 9.25105C111.624 9.23378 111.104 9.22518 110.717 9.22518C110.454 9.22518 109.996 9.23332 109.343 9.251L109.33 9.22518V8.97359C109.33 8.91769 109.362 8.88323 109.426 8.87037L109.678 8.84455C109.893 8.823 110.041 8.77148 110.123 8.68972C110.205 8.60374 110.246 8.46608 110.246 8.27685M117.91 6.14798L116.865 6.42538C116.013 6.65763 115.587 7.14146 115.587 7.87689C115.587 8.11343 115.673 8.33062 115.845 8.52846C116.017 8.72199 116.256 8.81876 116.562 8.81876C116.863 8.81876 117.25 8.62737 117.723 8.24461C117.847 8.15863 117.91 8.04462 117.91 7.90269V6.14798ZM117.91 8.59297H117.884L117.62 8.7994C117.327 9.02735 117.088 9.17572 116.903 9.24453C116.723 9.31761 116.482 9.3542 116.181 9.3542C115.682 9.3542 115.284 9.24023 114.987 9.01229C114.691 8.78435 114.542 8.42309 114.542 7.9285C114.542 7.48982 114.738 7.10275 115.129 6.76729C115.525 6.42754 116.048 6.17594 116.697 6.01251L117.832 5.73511C117.884 5.71793 117.91 5.66631 117.91 5.58028C117.91 5.29214 117.886 5.04053 117.839 4.82549C117.792 4.60616 117.734 4.43412 117.665 4.3094C117.596 4.18468 117.51 4.08577 117.407 4.01265C117.308 3.93521 117.213 3.88364 117.123 3.85782C117.037 3.83201 116.942 3.8191 116.839 3.8191C116.555 3.81911 116.301 3.87072 116.078 3.97393C115.854 4.07715 115.742 4.22554 115.742 4.41907C115.742 4.53949 115.75 4.6255 115.768 4.6771C115.794 4.733 115.807 4.81259 115.807 4.91581C115.807 5.01903 115.753 5.11793 115.646 5.21255C115.542 5.30717 115.403 5.35449 115.226 5.35449C114.921 5.35449 114.768 5.19966 114.768 4.88999C114.768 4.65775 114.874 4.42767 115.084 4.19973C115.295 3.9718 115.57 3.78686 115.91 3.64493C116.25 3.49871 116.594 3.42559 116.942 3.42559C117.153 3.42559 117.344 3.44277 117.516 3.47722C117.693 3.51167 117.869 3.57824 118.045 3.6772C118.222 3.77182 118.368 3.8987 118.484 4.05782C118.604 4.21696 118.701 4.43414 118.774 4.70939C118.852 4.98035 118.89 5.29644 118.89 5.65771V7.62531C118.89 7.75003 118.89 7.8511 118.89 7.92851C118.895 8.00159 118.901 8.08978 118.91 8.193C118.923 8.29188 118.94 8.37149 118.961 8.4317C118.983 8.4876 119.011 8.54566 119.045 8.60587C119.084 8.66604 119.133 8.7091 119.194 8.73491C119.258 8.76072 119.331 8.77363 119.413 8.77363C119.508 8.77363 119.585 8.75644 119.645 8.72199C119.705 8.68754 119.751 8.6532 119.781 8.61879C119.811 8.58434 119.834 8.56715 119.852 8.56715C119.877 8.56715 119.908 8.5887 119.942 8.63169C119.981 8.67468 120 8.71767 120 8.76071C120 8.77789 119.983 8.80797 119.948 8.85106C119.914 8.89405 119.862 8.94354 119.794 8.99942C119.729 9.05532 119.654 9.11126 119.568 9.16717C119.482 9.2188 119.379 9.26177 119.258 9.29617C119.142 9.3349 119.024 9.3542 118.903 9.3542C118.383 9.3542 118.052 9.10048 117.91 8.59298" fill="black"/>
</svg>
