<svg viewBox="0 0 106 25" xmlns="http://www.w3.org/2000/svg"><path d="M16.2.254c1.05 0 2.07.178 3.05.534.858.322 1.26.712 1.21 1.17l-.158 1.65v14.6c0 2.41-.263 4.15-.788 5.24-.158.288-.324.491-.499.61a.711.711 0 0 1-.473.178c-.175 0-.324-.119-.446-.356-.158-.305-.245-1.3-.263-2.97l-.026-7.25c-1.65.475-4.12.966-7.43 1.47l.026 2.08c0 3.08-.385 4.99-1.16 5.72-.193.186-.403.28-.63.28-.595 0-.84-1.15-.735-3.46l-.016-1.12c-.007-.693-.01-1.54-.01-2.54l-.027-.33v-.381l-1.85.173a5.754 5.754 0 0 0-.432.056l-.315.076-1.34.56-.289.025c-.525 0-1.28-.305-2.26-.915-.893-.56-1.34-1.03-1.34-1.42 0-.181.152-.275.457-.281l.28.001c1.52.12 2.84.178 3.94.178 4.03 0 8.41-.407 13.2-1.22v-8.41c0-.729-.053-1.23-.159-1.5-.09-.22-.524-.574-1.3-1.06l-.67-.41c-.439-.275-.658-.463-.658-.56 0-.289.385-.433 1.16-.433zM43.4.229c1.07 0 2.1.178 3.1.534.858.305 1.29.678 1.29 1.12l-.131 1.68-.026 14.8c0 1.88-.21 3.43-.63 4.65-.28.847-.64 1.27-1.08 1.27-.455-.153-.71-.924-.762-2.31v-18.2c0-.627-.08-1.04-.236-1.25-.105-.136-.622-.491-1.55-1.07l-.788-.534c-.123-.12-.184-.22-.184-.305 0-.254.333-.39.998-.407zm29.8 15c1.47 0 2.21.246 2.21.737 0 .119-.096.542-.289 1.27-.07.288-.105.542-.105.763l.052 1.68c0 2.42-.42 3.89-1.26 4.4l-.394.153h-.184c-.473 0-.709-.534-.709-1.6v-5.29c0-.441-.193-.661-.578-.661h-.158l-1.31.077c-1 .051-2.48.12-4.44.202-.63.034-1.09.11-1.39.23l-.972.431a.51.51 0 0 1-.158.025c-.385 0-.969-.235-1.75-.705l-.218-.133c-.718-.441-1.08-.805-1.08-1.09 0-.153.184-.23.552-.23l.114.007c.171.014.474.055.91.12.77.103 1.57.154 2.39.154l3.42-.002c2.06-.013 3.36-.088 3.9-.227l.384-.101c.535-.136.89-.204 1.06-.204zm23.7-15c.928 0 1.91.169 2.94.508.963.322 1.42.695 1.37 1.12l-.038.413c-.145 1.74-.194 4.52-.145 8.36v1.86c0 .22.009.38.026.483.035.033.149.05.34.05.316 0 .798-.16 1.44-.483.49-.237.938-.356 1.34-.356 1.07 0 1.66.263 1.79.788a.73.73 0 0 1 .027.178c0 .631-.822.953-2.46.966h-.687l-1.81.051v4.68c0 2.27-.289 3.86-.867 4.78l-.315.381-.34.203a1.375 1.375 0 0 1-.264.025c-.455 0-.692-.602-.709-1.81v-6.74a80.02 80.02 0 0 1-9.98 2.33l-1.15.185c-.508.085-.814.144-.919.178l-1.05.458a1.375 1.375 0 0 1-.263.026c-.438 0-1.21-.33-2.31-.991l-.373-.23c-.75-.483-1.12-.864-1.12-1.14 0-.17.438-.237 1.31-.203l3.73.127.257-.004c.241-.007.55-.023.925-.047v-3.38c0-.532-.343-1.01-1.03-1.44l-.179-.107c-.473-.271-.718-.466-.735-.585 0-.254.36-.381 1.08-.381 2.4 0 3.56.364 3.49 1.09l-.073.596a9.724 9.724 0 0 0-.056.629l-.002 3.3.525-.05c1.52-.161 4.03-.542 7.51-1.14.14-.034.28-.06.42-.076V3.73c0-.508-.053-.873-.158-1.09-.105-.237-.657-.652-1.65-1.25l-.29-.184c-.437-.287-.656-.48-.656-.58 0-.287.376-.431 1.13-.431zm-58.2 4.37.657.102 1.52.153c.49.119.735.314.735.585v.102l-2.65 5.19c-1.35 2.41-2.94 4.35-4.78 5.82a12.55 12.55 0 0 1-1.05.814c-1.49 1.02-2.82 1.73-3.99 2.14-.385.136-.7.203-.945.203a.48.48 0 0 1-.21-.051c-.035-.034-.052-.06-.052-.076 0-.064.088-.165.266-.305l.207-.153c2.29-1.68 3.96-3.08 4.99-4.22.77-.83 1.48-1.76 2.13-2.8l.229-.368c.355-.577.576-.971.664-1.18l-.14.045c-.493.151-1.65.432-3.46.844l-.762.178-1.37.585-.263.025c-.368 0-1.03-.27-2-.814-.718-.407-1.08-.72-1.08-.94 0-.137.123-.204.368-.204l2.84.102c1.72 0 3.78-.254 6.2-.763.125-.03.39-.658.796-1.88l.24-.744c.08-.257.119-.424.119-.5 0-.272-.21-.399-.63-.382l-2.31.092a8.586 8.586 0 0 0-.582.036c-.438.05-.814.119-1.13.203l-1.08.407-.158.025c-.372 0-.967-.231-1.79-.693l-.21-.12c-.682-.39-1.02-.703-1.02-.941 0-.085.053-.144.159-.178l2.76.229h.394l3.99-.076.117-.016c.193-.031.535-.104 1.03-.22l.616-.146c.263-.068.473-.102.63-.102zm32.8-4.63c.84 0 1.77.178 2.78.534.98.356 1.44.754 1.39 1.19l-.167 1.36a13.65 13.65 0 0 0-.043.42v4.96l-.006.753c-.027 1.94-.166 3.31-.415 4.13-.298.983-.762 1.47-1.39 1.47-.438 0-.639-1-.604-3v-2.11h-2.15c0 1.9-.14 3.19-.42 3.89-.245.559-.578.88-.998.966l-.21.025c-.438-.102-.674-.881-.709-2.34v-7.45c0-.441-.035-.763-.105-.966-.123-.356-.578-.788-1.37-1.3l-.604-.458c-.087-.102-.13-.186-.13-.254 0-.271.34-.407 1.02-.407.787 0 1.64.186 2.55.559.787.322 1.16.695 1.13 1.12l-.159 1.75v3.58h2.15v-4.88c0-.83-.508-1.58-1.52-2.24l-.893-.585c-.123-.119-.184-.229-.184-.33 0-.271.35-.407 1.05-.407zm-8.56 3.43c.805 0 1.59.16 2.36.483.385.17.622.347.709.534l.052.458v.05l-.098 1.03a7.788 7.788 0 0 0-.033.547v3.86c0 1.73-.298 2.9-.893 3.51l-.34.28-.447.102h-.052c-.368 0-.595-.22-.683-.66-.07-.374-.184-.577-.341-.61l-.654.001c-1.78.01-2.95.06-3.5.151l-.04.05c-.075.106-.246.369-.512.789-.28.424-.595.636-.945.636-.63 0-.945-1.04-.945-3.13l.052-2.9-.004-.474c-.017-.892-.086-1.45-.206-1.69-.073-.141-.371-.383-.894-.724l-.341-.217c-.403-.254-.604-.432-.604-.534 0-.271.394-.407 1.18-.407 1.05 0 1.94.169 2.68.508.455.22.683.483.683.788l-.052 1.75 4.36-.102v-1.42c0-.593-.455-1.2-1.37-1.83l-.525-.407a.22.22 0 0 1-.027-.102c0-.22.473-.33 1.42-.33zm31.2.915c.98 0 1.72.127 2.23.38.21.103.315.213.315.33 0 .204-.131.577-.394 1.12a3.163 3.163 0 0 0-.184.535c-.385 2.15-.797 3.71-1.23 4.68a.955.955 0 0 1-.079.203c-.543 1.15-1.07 1.91-1.58 2.26-.14.102-.263.153-.368.153-.158 0-.236-.094-.236-.28l.105-.56.42-2.69v-.025l.037-.278c.088-.76.163-2.01.225-3.76-.157-.373-.445-.576-.866-.61l-.71.077-3.47.127-.604.076-1.68.483a1.375 1.375 0 0 1-.263.025c-.4 0-.986-.228-1.76-.684l-.214-.13c-.683-.407-1.02-.737-1.02-.99 0-.154.114-.23.341-.23l1.05.153 1.51.104c.224.013.391.02.502.023h4.16c1.19 0 2.05-.067 2.57-.202l1.02-.28h.158zm-30.7 4.3-4.25.127h-.079v3.23l4.36-.102v-2.62l-.026-.636zm-55.8-6.51c.49 0 1.05.136 1.68.407.333.153.499.305.499.458 0 .102-.131.356-.394.763.788 0 1.6.203 2.44.61l.093.056a.863.863 0 0 0 .038.02c1.3.712 1.99 1.71 2.07 3 .018.119.027.246.027.38 0 .679-.271 1.36-.814 2.03-1.05 1.36-2.58 2.03-4.6 2.03-1.73 0-3.14-.474-4.23-1.42-.858-.745-1.29-1.69-1.29-2.82 0-1.49.98-2.64 2.94-3.46.28-.118.569-.22.867-.304l.762-.203c.158-.085.236-.186.236-.305 0-.133-.127-.325-.382-.576l-.117-.111c-.175-.153-.263-.271-.263-.356 0-.136.14-.203.42-.203zm.657 2.95c-.963 0-1.72.38-2.26 1.14a2.49 2.49 0 0 0-.446 1.42c0 .932.446 1.65 1.34 2.16.49.288 1.01.432 1.55.432 1.3 0 2.23-.407 2.81-1.22.28-.407.42-.873.42-1.4 0-1.37-.805-2.19-2.42-2.47a6.27 6.27 0 0 0-.998-.077z" fill="#000" fill-rule="nonzero"/></svg>