<svg xmlns="http://www.w3.org/2000/svg" width="144" height="26"><path fill="#484848" d="M6.543.772c1.92 0 3.43.425 4.533 1.274 1.111.85 1.667 2.03 1.667 3.541 0 1.217-.31 2.181-.931 2.892-.621.702-1.508 1.147-2.66 1.335v.074c1.536.196 2.68.69 3.431 1.482.76.785 1.14 1.887 1.14 3.309 0 1.715-.535 3.067-1.605 4.055-1.062.989-2.524 1.483-4.387 1.483-1.633 0-2.965-.258-3.994-.772V26H0V6.543c0-1.83.572-3.247 1.715-4.252C2.86 1.278 4.468.771 6.543.771Zm-.098 2.916c-1.805 0-2.708 1.07-2.708 3.21v9.484c.392.253.874.461 1.446.625a6.106 6.106 0 0 0 1.593.232c1.045 0 1.821-.253 2.328-.76.506-.506.76-1.216.76-2.131 0-.899-.274-1.58-.822-2.046-.539-.474-1.327-.711-2.364-.711h-.883V8.626h.65c.809 0 1.438-.22 1.887-.662.449-.45.674-1.09.674-1.923 0-.752-.225-1.332-.674-1.74-.45-.409-1.078-.613-1.887-.613Zm13.652 16.284H16V6.386h4.097v13.586Zm6.615-7.132 1.728-2.082 3.848-4.485h3.982l-5.392 6.274 5.722 7.425h-4.264l-3.847-5.22-1.752 1.103v4.117H23V6.273h3.737v3.59l-.037 1.973-.037 1.005h.05Zm16.385 7.132H39V6.386h4.097v13.586Z"/><path fill="#666" fill-rule="evenodd" d="M98.737 6.273v9.41c0 .531.147.923.441 1.177.302.253.698.38 1.189.38.661 0 1.45-.143 2.364-.43v2.782c-.89.417-1.964.625-3.222.625-1.552 0-2.692-.376-3.418-1.127-.727-.76-1.091-1.895-1.091-3.407v-9.41h3.737Zm-2.904-1.887c.147-.44.327-1.11.54-2.009.22-.899.375-1.69.465-2.377h3.467v.294c-.637 1.52-1.4 3.01-2.29 4.472h-2.182v-.38Zm-13.786 7.511c-.596.776-.894 1.679-.894 2.708 0 1.421.453 2.577 1.36 3.468.914.89 2.258 1.49 4.03 1.8.834.156 1.41.315 1.728.479.327.171.49.388.49.649 0 .384-.163.89-.49 1.52-.318.636-.76 1.335-1.323 2.095h3.762c1.127-1.577 1.69-2.974 1.69-4.19 0-.834-.322-1.504-.968-2.01-.645-.515-1.645-.907-3.001-1.177-1.111-.22-1.867-.437-2.267-.649a2.26 2.26 0 0 1-.882-.845c-.188-.352-.282-.817-.282-1.397 0-1.005.314-1.756.943-2.255.63-.506 1.65-.76 3.064-.76h2.058V8.762H89.03s-2.067-.168-2.598-.503c-.522-.335-.784-.89-.784-1.666 0-.956.478-1.711 1.434-2.267.964-.563 2.201-.845 3.712-.845h.92V.907h-9.852v2.732h.27c.547 0 1.658-.053 3.333-.16-1.25.303-2.153.72-2.708 1.25-.548.523-.821 1.222-.821 2.096 0 1.65.894 2.687 2.683 3.112v.122c-1.119.442-1.977 1.054-2.573 1.838ZM57.958 8.806v6.604c0 .53.147.923.442 1.176.302.254.698.38 1.188.38.653 0 1.438-.143 2.352-.429v2.782c-.873.416-1.944.624-3.21.624-1.552 0-2.691-.375-3.418-1.127-.727-.76-1.09-1.895-1.09-3.406V8.806h-3.444V7.25L52.935 6h9.888v2.806h-4.865Zm13.454 8.433c.964 0 1.662-.29 2.095-.87.441-.588.678-1.613.71-3.075v-.147c0-1.47-.228-2.524-.686-3.161-.449-.637-1.176-.956-2.18-.956-1.757 0-2.635 1.389-2.635 4.166 0 1.348.217 2.36.65 3.039.44.67 1.123 1.004 2.046 1.004Zm-1.14 2.978c-1.674 0-2.99-.621-3.945-1.863-.948-1.241-1.421-2.969-1.421-5.182 0-2.271.494-4.027 1.482-5.27.997-1.24 2.385-1.861 4.166-1.861.964 0 1.756.171 2.377.514.629.343 1.148.858 1.556 1.544h.184c.196-.768.47-1.376.82-1.826h3.088a17.544 17.544 0 0 0-.637 2.733 18.79 18.79 0 0 0-.232 2.806v3.822c0 .964.343 1.446 1.029 1.446.261 0 .502-.04.723-.122v2.94c-.131.082-.384.155-.76.22a5.432 5.432 0 0 1-.919.099c-.915 0-1.613-.155-2.095-.466-.482-.318-.862-.845-1.14-1.58h-.257c-.898 1.364-2.238 2.046-4.019 2.046ZM105.78 4.533c0 1.56.968 2.957 2.904 4.19-1.634.475-2.847 1.202-3.639 2.182-.784.98-1.176 2.213-1.176 3.7 0 1.715.596 3.08 1.789 4.093 1.2 1.012 2.797 1.519 4.79 1.519 2.165 0 3.823-.556 4.975-1.667 1.152-1.119 1.728-2.736 1.728-4.852 0-1.306-.356-2.462-1.066-3.467-.703-1.005-1.806-1.891-3.309-2.659-1.127-.572-1.972-1.07-2.536-1.495-.563-.433-.845-.87-.845-1.31 0-.376.151-.675.453-.895.302-.22.752-.331 1.348-.331a6.85 6.85 0 0 1 2.132.343 15.7 15.7 0 0 1 2.181.882l1.482-2.634c-1.151-.54-2.156-.899-3.014-1.078a12.156 12.156 0 0 0-2.634-.282c-1.74 0-3.104.335-4.092 1.005-.981.661-1.471 1.58-1.471 2.756Zm6.96 7.352a3.74 3.74 0 0 1 .588 2.058c0 1.07-.249 1.883-.748 2.439-.498.555-1.2.833-2.107.833-.858 0-1.532-.253-2.022-.76-.49-.514-.735-1.184-.735-2.01 0-1.028.274-1.91.821-2.646.556-.743 1.336-1.258 2.34-1.544.858.474 1.479 1.017 1.863 1.63Zm10.997-5.612v9.41c0 .531.147.923.441 1.177.302.253.699.38 1.189.38.661 0 1.45-.143 2.364-.43v2.782c-.89.417-1.964.625-3.222.625-1.552 0-2.692-.376-3.419-1.127-.727-.76-1.09-1.895-1.09-3.407v-9.41h3.737Zm14.308 10.096c-.433.58-1.131.87-2.095.87-.923 0-1.605-.335-2.046-1.004-.433-.678-.65-1.691-.65-3.039 0-2.777.879-4.166 2.635-4.166 1.004 0 1.731.319 2.181.956.457.637.686 1.69.686 3.161v.147c-.033 1.462-.27 2.487-.711 3.075Zm-7.18 1.985c.956 1.242 2.271 1.863 3.946 1.863 1.78 0 3.12-.682 4.018-2.046h.258c.277.735.657 1.262 1.139 1.58.482.31 1.181.466 2.095.466.245 0 .552-.033.919-.098.376-.066.629-.14.76-.22v-2.941a2.07 2.07 0 0 1-.723.122c-.686 0-1.029-.482-1.029-1.446v-3.822c0-.85.077-1.785.233-2.806.163-1.03.375-1.94.637-2.733h-3.088c-.351.45-.625 1.058-.821 1.826h-.184c-.408-.686-.927-1.2-1.556-1.544-.62-.343-1.413-.514-2.377-.514-1.78 0-3.169.62-4.166 1.862-.988 1.242-1.482 2.998-1.482 5.269 0 2.213.474 3.94 1.421 5.182Z" clip-rule="evenodd"/></svg>