<svg width="120" height="10" viewBox="0 0 120 10" fill="none" xmlns="http://www.w3.org/2000/svg">
<path d="M116.026 9.30572C116.538 9.30572 117.156 9.04297 117.799 8.51747C117.865 8.46486 117.983 8.43862 117.996 8.53059C118.023 8.87216 118.141 9.3057 118.141 9.3057C118.246 9.34508 118.299 9.34508 118.391 9.3057C118.68 9.06923 119.139 8.87216 119.941 8.78021C120.02 8.70136 120.02 8.50433 119.941 8.4255C119.1 8.35977 118.982 8.11021 118.982 7.46647V4.94405C118.982 4.54993 119.034 3.59089 119.034 3.59089C119.034 3.55151 118.995 3.51203 118.929 3.51203C118.864 3.52516 118.666 3.53829 118.469 3.53829C118.049 3.53829 117.576 3.52516 117.129 3.51203C117.051 3.59088 117.051 3.86673 117.129 3.94556C117.773 3.98494 117.944 4.14262 117.944 5.00969V7.54523C117.944 7.79485 117.918 7.89994 117.734 8.05759C117.248 8.47798 116.748 8.68818 116.42 8.68818C116.026 8.68818 115.369 8.50427 115.369 7.33501V4.94405C115.369 4.54993 115.421 3.59087 115.421 3.59087C115.421 3.5515 115.382 3.51202 115.316 3.51202C115.251 3.52514 115.054 3.53827 114.857 3.53827C114.436 3.53827 113.963 3.52514 113.517 3.51202C113.438 3.59087 113.438 3.86672 113.517 3.94555C114.147 3.99815 114.331 4.14261 114.331 4.99656V7.51896C114.331 8.42544 114.725 9.30567 116.026 9.30567L116.026 9.30572ZM111.02 6.11333V7.84743C111.02 8.01822 110.941 8.11019 110.836 8.18901C110.495 8.4649 110.048 8.76705 109.68 8.76705C109.023 8.76705 108.734 8.24156 108.734 7.8343C108.734 7.24312 109.01 6.63882 109.982 6.38914L111.02 6.11326L111.02 6.11333ZM111.02 8.54377C111.099 8.95103 111.23 9.30574 111.9 9.30574C112.4 9.30574 112.872 9.0824 113.148 8.81965C113.122 8.66201 113.07 8.55691 112.925 8.46494C112.82 8.55692 112.597 8.67514 112.439 8.67514C112.058 8.67514 112.045 8.16278 112.045 7.55851V5.62734C112.045 3.76178 111.02 3.40711 110.061 3.40711C108.984 3.40711 107.893 4.11653 107.893 4.86539C107.893 5.18068 108.051 5.33833 108.353 5.33833C108.734 5.33833 108.971 5.06244 108.971 4.89166C108.971 4.79968 108.958 4.70773 108.931 4.65518C108.918 4.61581 108.905 4.53694 108.905 4.39243C108.905 3.98516 109.457 3.84066 109.956 3.84066C110.403 3.84066 111.02 4.064 111.02 5.54852C111.02 5.64049 110.981 5.69303 110.941 5.70616L109.811 5.98205C108.55 6.29735 107.644 6.99363 107.644 7.88698C107.644 8.96424 108.38 9.30578 109.299 9.30578C109.746 9.30578 110.153 9.20069 110.731 8.75402L110.994 8.54381H111.02L111.02 8.54377ZM104.955 7.57159C104.955 8.66197 104.81 8.72771 104.009 8.76708C103.93 8.84593 103.93 9.12179 104.009 9.20061C104.469 9.18749 104.955 9.17436 105.48 9.17436C106.006 9.17436 106.505 9.18749 106.939 9.20061C107.018 9.12176 107.018 8.84591 106.939 8.76708C106.137 8.72771 105.993 8.66198 105.993 7.57159V1.51526C105.993 0.66132 106.045 0.135822 106.045 0.135822C106.045 0.0438464 105.993 0.00445908 105.875 0.00445908C105.546 0.135829 104.561 0.319752 104.035 0.359167C104.009 0.464257 104.035 0.674472 104.114 0.753303C104.876 0.805904 104.955 0.845276 104.955 1.83055V7.57159H104.955ZM95.7323 4.47119C95.6403 4.56316 95.5746 4.60257 95.5746 4.47119C95.5615 4.11648 95.5221 3.61726 95.4695 3.47275C95.4301 3.42014 95.417 3.36765 95.3118 3.36765C94.944 3.51217 94.6024 3.63039 93.696 3.74863C93.6697 3.82748 93.696 4.03765 93.7222 4.11648C94.4316 4.18221 94.5761 4.24786 94.5761 5.00983V7.57161C94.5761 8.64886 94.4448 8.70146 93.6565 8.76708C93.5777 8.84593 93.5777 9.12181 93.6565 9.20063C94.0507 9.1875 94.5761 9.17437 95.1017 9.17437C95.6272 9.17437 96.0213 9.1875 96.4154 9.20063C96.4942 9.12178 96.4942 8.84591 96.4154 8.76708C95.7454 8.70135 95.614 8.64885 95.614 7.57161V5.41711C95.614 5.14122 95.7322 4.98357 95.8373 4.86534C96.3366 4.37925 96.9277 4.09021 97.4401 4.09021C97.7028 4.09021 97.9787 4.26101 98.1364 4.56317C98.2677 4.82592 98.294 5.18062 98.294 5.57474V7.57166C98.294 8.64891 98.1626 8.7015 97.4795 8.76713C97.4138 8.84598 97.4138 9.12184 97.4795 9.20066C97.8736 9.18753 98.294 9.17442 98.8196 9.17442C99.3451 9.17442 99.818 9.18753 100.212 9.20066C100.278 9.12181 100.278 8.84596 100.212 8.76713C99.4764 8.7014 99.3319 8.6489 99.3319 7.57166V5.61421C99.3319 4.89166 99.2794 4.26105 98.9772 3.85377C98.7539 3.56475 98.3466 3.4071 97.8868 3.4071C97.2431 3.4071 96.5074 3.57788 95.7323 4.47122L95.7323 4.47119ZM89.1052 1.6466C89.1052 1.98818 89.3811 2.26407 89.7226 2.26407C90.0642 2.26407 90.3401 1.98818 90.3401 1.6466C90.3401 1.30503 90.0642 1.01601 89.7226 1.01601C89.3811 1.01601 89.1052 1.30503 89.1052 1.6466ZM91.3254 1.6466C91.3254 1.98818 91.6013 2.26407 91.9429 2.26407C92.2844 2.26407 92.5603 1.98818 92.5603 1.6466C92.5603 1.30503 92.2844 1.01601 91.9429 1.01601C91.6013 1.01601 91.3254 1.30503 91.3254 1.6466ZM89.6964 7.58472C89.6964 6.84903 90.13 6.4155 90.8656 6.4155C90.9839 6.4155 91.4306 6.49434 91.5357 6.49434C91.8378 6.49434 91.9298 6.34984 91.9298 6.19219C91.9298 6.03454 91.7984 5.9163 91.5488 5.9163C91.4831 5.9163 90.8919 5.98203 90.8788 5.98203C90.3139 5.98203 89.8409 5.693 89.8409 4.78655C89.8409 3.91947 90.4321 3.84066 90.8393 3.84066C91.3517 3.84066 91.575 4.11655 91.7196 4.40557C91.8509 4.6289 91.9823 4.8391 92.2713 4.8391C92.4421 4.8391 92.6917 4.734 92.6917 4.35301C92.6917 3.88007 91.9298 3.40713 90.9181 3.40713C89.3679 3.40713 88.9081 4.35302 88.9081 4.87853C88.9081 5.52226 89.2497 5.8901 89.854 6.13973V6.16598C88.9081 6.49442 88.6585 7.19071 88.6585 7.68989C88.6585 8.45186 89.0921 9.30577 90.8262 9.30577C91.6538 9.30577 92.3632 8.92478 92.7968 8.51753C92.7837 8.38616 92.7049 8.28106 92.5998 8.24164C92.0874 8.59635 91.5882 8.80654 90.9707 8.80654C90.2482 8.80654 89.6964 8.28106 89.6964 7.58472V7.58472ZM83.9003 4.40546C84.2419 4.1033 84.636 3.98507 85.017 3.98507C85.8184 3.98507 86.4753 4.95723 86.4753 6.23154C86.4753 7.72919 85.871 8.85905 84.623 8.85905C84.2157 8.85905 83.9399 8.57003 83.6771 8.2416V4.95724C83.6771 4.68136 83.7296 4.56311 83.9004 4.40546H83.9003ZM83.8084 3.99821C83.7164 4.07706 83.677 4.05081 83.677 3.93248V1.51518C83.677 0.661242 83.7295 0.135744 83.7295 0.135744C83.7295 0.0437681 83.677 0.00438085 83.5587 0.00438085C83.2303 0.135751 82.245 0.319674 81.7195 0.359089C81.6933 0.464179 81.7195 0.674378 81.7984 0.753209C82.4815 0.792583 82.6391 0.726957 82.6391 1.83046V8.24149C82.6391 8.75384 82.626 8.99031 82.5866 9.17423C82.6523 9.27933 82.718 9.3319 82.8756 9.3319C82.9545 9.26617 83.0858 9.13482 83.1778 9.01658C83.3223 8.85893 83.4011 8.85895 83.5456 8.99035C83.8346 9.23995 84.2288 9.30563 84.7017 9.30563C86.0418 9.30563 87.6051 8.0838 87.6051 5.99502C87.6051 4.39227 86.4227 3.40699 85.2797 3.40699C84.7148 3.40699 84.2156 3.63033 83.8083 3.99818L83.8084 3.99821ZM77.0391 1.62038C77.0391 1.96196 77.315 2.23785 77.6565 2.23785C77.9981 2.23785 78.274 1.96196 78.274 1.62038C78.274 1.27881 77.9981 0.98979 77.6565 0.98979C77.315 0.98979 77.0391 1.27881 77.0391 1.62038ZM79.2593 1.62038C79.2593 1.96196 79.5352 2.23785 79.8768 2.23785C80.2183 2.23785 80.4942 1.96196 80.4942 1.62038C80.4942 1.27881 80.2183 0.98979 79.8768 0.98979C79.5352 0.98979 79.2593 1.27881 79.2593 1.62038ZM77.3675 5.46961C77.6171 3.98509 78.5367 3.86687 78.852 3.86687C79.3512 3.86687 79.9424 4.14274 79.9424 5.24629C79.9424 5.36453 79.8898 5.43022 79.7453 5.43022L77.3675 5.4696L77.3675 5.46961ZM80.8094 7.95265C80.3234 8.45187 79.9424 8.66206 79.1804 8.66206C78.7075 8.66206 78.1557 8.38618 77.7484 7.71616C77.4857 7.28262 77.328 6.67829 77.328 5.91634L80.8226 5.94259C80.9802 5.94259 81.0722 5.86373 81.0722 5.71924C81.0722 4.61574 80.6781 3.43329 78.852 3.43329C77.709 3.43329 76.2245 4.52367 76.2245 6.52058C76.2245 7.25627 76.4084 7.96573 76.8419 8.46488C77.2886 8.99038 77.906 9.30567 78.8519 9.30567C79.8504 9.30567 80.5598 8.84587 81.0853 8.16269C81.0459 8.03131 80.9671 7.96563 80.8094 7.95249L80.8094 7.95265ZM75.3477 7.9789C75.2952 7.86067 75.1901 7.8081 75.0718 7.79497C74.6252 8.37301 74.0603 8.66205 73.4953 8.66205C72.5363 8.66205 71.7349 7.68987 71.7349 6.15276C71.7349 4.70761 72.3655 3.84056 73.2325 3.84056C74.0076 3.84056 74.1127 4.30037 74.1653 4.76018C74.2047 5.11489 74.3886 5.23313 74.6645 5.23313C74.9404 5.23313 75.3082 5.06233 75.3082 4.65507C75.3082 3.93252 74.5594 3.407 73.2982 3.407C71.9976 3.407 70.6051 4.57623 70.6051 6.44179C70.6051 8.13652 71.551 9.30574 73.2063 9.30574C73.9946 9.30574 74.6909 9.05614 75.3477 7.97892V7.9789ZM65.9092 1.64211C65.9092 1.98369 66.1851 2.25958 66.5267 2.25958C66.8682 2.25958 67.1441 1.98369 67.1441 1.64211C67.1441 1.30054 66.8682 1.01151 66.5267 1.01151C66.1851 1.01151 65.9092 1.30054 65.9092 1.64211ZM68.1294 1.64211C68.1294 1.98369 68.4053 2.25958 68.7469 2.25958C69.0885 2.25958 69.3643 1.98369 69.3643 1.64211C69.3643 1.30054 69.0885 1.01151 68.7469 1.01151C68.4053 1.01151 68.1294 1.30054 68.1294 1.64211ZM66.5004 7.58023C66.5004 6.84454 66.934 6.411 67.6697 6.411C67.7879 6.411 68.2346 6.48985 68.3397 6.48985C68.6418 6.48985 68.7338 6.34535 68.7338 6.1877C68.7338 6.03005 68.6024 5.91181 68.3528 5.91181C68.2871 5.91181 67.6959 5.97754 67.6828 5.97754C67.1179 5.97754 66.6449 5.68851 66.6449 4.78206C66.6449 3.91498 67.2361 3.83617 67.6434 3.83617C68.1557 3.83617 68.379 4.11206 68.5236 4.40108C68.6549 4.62441 68.7863 4.83461 69.0753 4.83461C69.2461 4.83461 69.4957 4.72951 69.4957 4.34852C69.4957 3.87558 68.7338 3.40264 67.7222 3.40264C66.1719 3.40264 65.7121 4.34853 65.7121 4.87404C65.7121 5.51776 66.0537 5.88561 66.658 6.13524V6.16149C65.7121 6.48993 65.4625 7.18622 65.4625 7.6854C65.4625 8.44737 65.8961 9.30128 67.6302 9.30128C68.4578 9.30128 69.1672 8.92029 69.6008 8.51304C69.5877 8.38167 69.5089 8.27655 69.4038 8.23714C68.8914 8.59184 68.3922 8.80205 67.7748 8.80205C67.0522 8.80205 66.5004 8.27657 66.5004 7.58023H66.5004ZM60.6748 1.64211C60.6748 1.98369 60.9507 2.25958 61.2923 2.25958C61.6338 2.25958 61.9097 1.98369 61.9097 1.64211C61.9097 1.30054 61.6338 1.01151 61.2923 1.01151C60.9507 1.01151 60.6748 1.30054 60.6748 1.64211ZM62.895 1.64211C62.895 1.98369 63.1709 2.25958 63.5125 2.25958C63.8541 2.25958 64.1299 1.98369 64.1299 1.64211C64.1299 1.30054 63.8541 1.01151 63.5125 1.01151C63.1709 1.01151 62.895 1.30054 62.895 1.64211ZM61.266 7.58023C61.266 6.84454 61.6996 6.411 62.4353 6.411C62.5535 6.411 63.0002 6.48985 63.1053 6.48985C63.4074 6.48985 63.4994 6.34535 63.4994 6.1877C63.4994 6.03005 63.368 5.91181 63.1184 5.91181C63.0527 5.91181 62.4615 5.97754 62.4484 5.97754C61.8835 5.97754 61.4105 5.68851 61.4105 4.78206C61.4105 3.91498 62.0017 3.83617 62.409 3.83617C62.9213 3.83617 63.1446 4.11206 63.2892 4.40108C63.4205 4.62441 63.5519 4.83461 63.8409 4.83461C64.0117 4.83461 64.2613 4.72951 64.2613 4.34852C64.2613 3.87558 63.4994 3.40264 62.4878 3.40264C60.9375 3.40264 60.4777 4.34853 60.4777 4.87404C60.4777 5.51776 60.8193 5.88561 61.4236 6.13524V6.16149C60.4777 6.48993 60.2281 7.18622 60.2281 7.6854C60.2281 8.44737 60.6617 9.30128 62.3958 9.30128C63.2234 9.30128 63.9328 8.92029 64.3664 8.51304C64.3533 8.38167 64.2745 8.27655 64.1694 8.23714C63.657 8.59184 63.1578 8.80205 62.5404 8.80205C61.8178 8.80205 61.266 8.27657 61.266 7.58023V7.58023ZM57.2916 1.30056C57.2916 1.64214 57.6069 1.98371 57.9222 1.98371C58.29 1.98371 58.6053 1.64214 58.6053 1.35312C58.6053 1.03782 58.3295 0.669957 57.9747 0.669957C57.6594 0.669957 57.2916 0.985264 57.2916 1.30056H57.2916ZM58.4871 7.5671V4.95272C58.4871 4.29585 58.5396 3.45507 58.5396 3.45507C58.5396 3.40246 58.4739 3.3631 58.3688 3.3631C57.9878 3.50761 57.4755 3.62584 56.569 3.74408C56.5427 3.82293 56.569 4.0331 56.5953 4.11193C57.3047 4.19078 57.4492 4.25645 57.4492 5.00528V7.56706C57.4492 8.65743 57.3047 8.6969 56.5033 8.76253C56.4245 8.84138 56.4245 9.11725 56.5033 9.19607C56.9369 9.18295 57.4492 9.16982 57.9747 9.16982C58.5002 9.16982 58.9995 9.18295 59.433 9.19607C59.5118 9.11722 59.5118 8.84136 59.433 8.76253C58.6316 8.71003 58.4871 8.65744 58.4871 7.56706L58.4871 7.5671ZM53.5461 4.4667C53.5199 3.94121 53.4936 3.61277 53.441 3.46826C53.4016 3.41565 53.3885 3.36316 53.2834 3.36316C52.9155 3.50768 52.574 3.6259 51.6675 3.74414C51.6412 3.82299 51.6675 4.03316 51.6938 4.11199C52.4032 4.17772 52.5477 4.24337 52.5477 5.00534V7.56712C52.5477 8.6575 52.39 8.71009 51.5755 8.76259C51.4967 8.84144 51.4967 9.11732 51.5755 9.19614C52.0353 9.18301 52.5477 9.16988 53.0732 9.16988C53.5987 9.16988 54.203 9.18301 54.6628 9.19614C54.7416 9.11729 54.7416 8.84142 54.6628 8.76259C53.7432 8.69686 53.5856 8.65751 53.5856 7.56712V5.74104C53.5856 5.39946 53.7432 5.0973 53.9009 4.86083C54.0454 4.65063 54.3475 4.2171 54.5052 4.2171C54.6234 4.2171 54.7416 4.25646 54.8336 4.38787C54.9387 4.51924 55.0832 4.69004 55.3197 4.69004C55.635 4.69004 55.9372 4.3616 55.9372 4.03317C55.9372 3.78356 55.7007 3.40257 55.1489 3.40257C54.5315 3.40257 53.9928 3.98062 53.6906 4.49295C53.6118 4.63746 53.5461 4.53232 53.5461 4.4667H53.5461ZM47.6421 3.53394C47.4581 3.53394 47.4056 3.69159 47.4056 3.79669V3.96748C47.4056 4.03321 47.4187 4.04632 47.4713 4.04632H48.2464V8.00067C48.2464 8.93342 48.6536 9.30125 49.258 9.30125C49.8623 9.30125 50.5192 9.01222 51.0315 8.43418C51.0053 8.3028 50.9264 8.22398 50.7951 8.21084C50.4535 8.47359 50.0594 8.57869 49.7178 8.57869C49.3631 8.57869 49.2843 8.18457 49.2843 7.37009V4.04636H50.6506C50.782 4.04636 50.9659 3.99375 50.9659 3.87556V3.61281C50.9659 3.56021 50.9265 3.53397 50.8608 3.53397H49.2843V3.02161C49.2843 2.16768 49.3368 1.64218 49.3368 1.64218C49.3368 1.56333 49.2974 1.53708 49.2317 1.53708C49.166 1.53708 49.0609 1.58958 48.9427 1.65532C48.7851 1.73417 48.6537 1.78669 48.496 1.83924C48.3384 1.87861 48.207 1.93122 48.207 2.01003C48.207 2.16768 48.2464 2.07576 48.2464 3.53394H47.6421H47.6421ZM42.8674 1.64213C42.8674 1.9837 43.1433 2.25959 43.4849 2.25959C43.8265 2.25959 44.1023 1.9837 44.1023 1.64213C44.1023 1.30056 43.8265 1.01154 43.4849 1.01154C43.1433 1.01154 42.8674 1.30056 42.8674 1.64213ZM45.0877 1.64213C45.0877 1.9837 45.3635 2.25959 45.7051 2.25959C46.0467 2.25959 46.3226 1.9837 46.3226 1.64213C46.3226 1.30056 46.0467 1.01154 45.7051 1.01154C45.3635 1.01154 45.0877 1.30056 45.0877 1.64213ZM43.4586 7.58026C43.4586 6.84457 43.8922 6.41103 44.6279 6.41103C44.7461 6.41103 45.1928 6.48988 45.2979 6.48988C45.6 6.48988 45.692 6.34536 45.692 6.18771C45.692 6.03006 45.5606 5.91183 45.311 5.91183C45.2453 5.91183 44.6541 5.97756 44.641 5.97756C44.0761 5.97756 43.6031 5.68854 43.6031 4.78209C43.6031 3.91502 44.1943 3.83618 44.6016 3.83618C45.1139 3.83618 45.3373 4.11207 45.4818 4.40109C45.6132 4.62443 45.7445 4.83463 46.0336 4.83463C46.2043 4.83463 46.454 4.72953 46.454 4.34854C46.454 3.8756 45.692 3.40265 44.6804 3.40265C43.1301 3.40265 42.6703 4.34854 42.6703 4.87405C42.6703 5.51778 43.0119 5.88564 43.6162 6.13527V6.16151C42.6703 6.48994 42.4208 7.18624 42.4208 7.68542C42.4208 8.44739 42.8543 9.30129 44.5884 9.30129C45.416 9.30129 46.1254 8.92031 46.559 8.51305C46.5459 8.38168 46.4671 8.27658 46.362 8.23717C45.8496 8.59187 45.3504 8.80208 44.733 8.80208C44.0104 8.80208 43.4586 8.27658 43.4586 7.58025V7.58026ZM38.2509 3.53394C38.067 3.53394 38.0144 3.69159 38.0144 3.79669V3.96748C38.0144 4.03321 38.0276 4.04632 38.0801 4.04632H38.8552V8.00067C38.8552 8.93342 39.2625 9.30125 39.8668 9.30125C40.4711 9.30125 41.128 9.01222 41.6404 8.43418C41.6141 8.3028 41.5353 8.22398 41.4039 8.21084C41.0623 8.47359 40.6682 8.57869 40.3267 8.57869C39.9719 8.57869 39.8931 8.18457 39.8931 7.37009V4.04636H41.2594C41.3908 4.04636 41.5747 3.99375 41.5747 3.87556V3.61281C41.5747 3.56021 41.5353 3.53397 41.4696 3.53397H39.8931V3.02161C39.8931 2.16768 39.9457 1.64218 39.9457 1.64218C39.9457 1.56333 39.9063 1.53708 39.8406 1.53708C39.7749 1.53708 39.6698 1.58958 39.5516 1.65532C39.3939 1.73417 39.2625 1.78669 39.1049 1.83924C38.9472 1.87861 38.8159 1.93122 38.8159 2.01003C38.8159 2.16768 38.8553 2.07576 38.8553 3.53394H38.251H38.2509ZM33.1107 1.61589C33.1107 1.95747 33.3866 2.23336 33.7282 2.23336C34.0698 2.23336 34.3456 1.95747 34.3456 1.61589C34.3456 1.27432 34.0698 0.9853 33.7282 0.9853C33.3866 0.9853 33.1107 1.27432 33.1107 1.61589ZM35.331 1.61589C35.331 1.95747 35.6068 2.23336 35.9484 2.23336C36.29 2.23336 36.5659 1.95747 36.5659 1.61589C36.5659 1.27432 36.29 0.9853 35.9484 0.9853C35.6068 0.9853 35.331 1.27432 35.331 1.61589ZM33.4392 5.46512C33.6888 3.9806 34.6084 3.86238 34.9237 3.86238C35.4229 3.86238 36.0141 4.13825 36.0141 5.24179C36.0141 5.36004 35.9615 5.42573 35.817 5.42573L33.4392 5.46511L33.4392 5.46512ZM36.8811 7.94816C36.395 8.44738 36.014 8.65757 35.2521 8.65757C34.7792 8.65757 34.2274 8.38169 33.8201 7.71167C33.5573 7.27813 33.3997 6.6738 33.3997 5.91185L36.8942 5.9381C37.0519 5.9381 37.1439 5.85924 37.1439 5.71475C37.1439 4.61125 36.7497 3.4288 34.9236 3.4288C33.7806 3.4288 32.2961 4.51918 32.2961 6.51609C32.2961 7.25178 32.48 7.96124 32.9136 8.46039C33.3602 8.98589 33.9777 9.30118 34.9236 9.30118C35.922 9.30118 36.6315 8.84138 37.157 8.1582C37.1175 8.02682 37.0387 7.96114 36.8811 7.948L36.8811 7.94816ZM29.247 4.46671C29.2208 3.94122 29.1945 3.61279 29.1419 3.46827C29.1025 3.41567 29.0894 3.36318 28.9843 3.36318C28.6164 3.50769 28.2749 3.62594 27.3684 3.74417C27.3421 3.82302 27.3684 4.03319 27.3947 4.11202C28.1041 4.17775 28.2486 4.24338 28.2486 5.00535V7.56713C28.2486 8.65751 28.091 8.71012 27.2764 8.76262C27.1976 8.84147 27.1976 9.11733 27.2764 9.19615C27.7362 9.18303 28.2486 9.1699 28.7741 9.1699C29.2996 9.1699 29.9039 9.18303 30.3637 9.19615C30.4426 9.1173 30.4426 8.84145 30.3637 8.76262C29.4441 8.69689 29.2865 8.65752 29.2865 7.56713V5.74106C29.2865 5.39947 29.4441 5.09732 29.6018 4.86085C29.7463 4.65065 30.0484 4.21711 30.2061 4.21711C30.3243 4.21711 30.4426 4.25649 30.5345 4.3879C30.6396 4.51928 30.7841 4.69006 31.0206 4.69006C31.3359 4.69006 31.6381 4.36162 31.6381 4.03318C31.6381 3.78358 31.4016 3.40259 30.8498 3.40259C30.2324 3.40259 29.6937 3.98063 29.3916 4.49297C29.3127 4.63747 29.247 4.53234 29.247 4.46671V4.46671ZM21.9045 1.61589C21.9045 1.95747 22.1804 2.23336 22.5219 2.23336C22.8635 2.23336 23.1394 1.95747 23.1394 1.61589C23.1394 1.27432 22.8635 0.9853 22.5219 0.9853C22.1804 0.9853 21.9045 1.27432 21.9045 1.61589ZM24.1247 1.61589C24.1247 1.95747 24.4006 2.23336 24.7422 2.23336C25.0837 2.23336 25.3596 1.95747 25.3596 1.61589C25.3596 1.27432 25.0837 0.9853 24.7422 0.9853C24.4006 0.9853 24.1247 1.27432 24.1247 1.61589ZM20.8535 6.47676C20.8535 7.81681 21.7468 9.30134 23.6123 9.30134C24.4531 9.30134 25.0837 9.01231 25.5304 8.56564C26.1216 8.00073 26.3975 7.17309 26.3975 6.35854C26.3975 4.99223 25.6486 3.40261 23.6386 3.40261C22.7715 3.40261 22.049 3.75731 21.5761 4.32222C21.1031 4.88713 20.8535 5.64905 20.8535 6.47672L20.8535 6.47676ZM23.4415 3.86238C24.5714 3.86238 25.2676 4.88709 25.2676 6.77893C25.2676 8.43428 24.4137 8.84155 23.7962 8.84155C22.4299 8.84155 21.9832 7.18621 21.9832 6.17468C21.9832 5.0317 22.2591 3.86247 23.4415 3.86247V3.86238ZM15.4525 5.42574C15.4525 5.13672 15.5708 4.97908 15.6759 4.86085C16.1751 4.37476 16.832 4.08572 17.3575 4.08572C17.6202 4.08572 17.8961 4.26966 18.0538 4.55868C18.1851 4.82143 18.2114 5.17613 18.2114 5.57025V7.56717C18.2114 8.64442 18.08 8.69701 17.3969 8.76264C17.3312 8.84149 17.3312 9.11735 17.3969 9.19617C17.7647 9.18304 18.2114 9.16993 18.737 9.16993C19.2625 9.16993 19.696 9.18304 20.1295 9.19617C20.1952 9.11732 20.1952 8.84147 20.1295 8.76264C19.3938 8.69691 19.2493 8.64441 19.2493 7.56717V5.60972C19.2493 4.88717 19.1967 4.25656 18.8946 3.84928C18.6713 3.56026 18.264 3.40261 17.8042 3.40261C17.1473 3.40261 16.3722 3.57339 15.5709 4.46673C15.5183 4.51933 15.4395 4.65066 15.4395 4.46673L15.4526 1.5108C15.4526 0.656861 15.5052 0.131363 15.5052 0.131363C15.5052 0.0393873 15.4526 0 15.3344 0C15.006 0.13137 14.0207 0.315293 13.4952 0.354708C13.4689 0.459798 13.4952 0.669997 13.574 0.748828C14.2572 0.788202 14.4148 0.722592 14.4148 1.82609V7.56713C14.4148 8.65751 14.2572 8.71011 13.4952 8.7626C13.4164 8.84146 13.4164 9.11732 13.4952 9.19614C13.9287 9.18301 14.4148 9.1699 14.9403 9.1699C15.4396 9.1699 15.86 9.18301 16.2278 9.19614C16.3066 9.11729 16.3066 8.84144 16.2278 8.7626C15.5709 8.71011 15.4527 8.65752 15.4527 7.56713V5.42574H15.4525ZM9.66669 3.53394C9.48277 3.53394 9.43022 3.69159 9.43022 3.79669V3.96748C9.43022 4.03321 9.44336 4.04632 9.49591 4.04632H10.271V8.00067C10.271 8.93342 10.6783 9.30125 11.2826 9.30125C11.8869 9.30125 12.5438 9.01222 13.0562 8.43418C13.0299 8.3028 12.9511 8.22398 12.8197 8.21084C12.4781 8.47359 12.084 8.57869 11.7424 8.57869C11.3877 8.57869 11.3089 8.18457 11.3089 7.37009V4.04636H12.6752C12.8066 4.04636 12.9905 3.99375 12.9905 3.87556V3.61281C12.9905 3.56021 12.9511 3.53397 12.8854 3.53397H11.3089V3.02161C11.3089 2.16768 11.3615 1.64218 11.3615 1.64218C11.3615 1.56333 11.322 1.53708 11.2564 1.53708C11.1907 1.53708 11.0856 1.58958 10.9673 1.65532C10.8097 1.73417 10.6783 1.78669 10.5207 1.83924C10.363 1.87861 10.2316 1.93122 10.2316 2.01003C10.2316 2.16768 10.2711 2.07576 10.2711 3.53394H9.66674H9.66669ZM3.4223 5.452C3.13328 5.452 3.04131 5.41262 3.08073 5.28121L4.4339 1.87863H4.51273L5.74768 5.45204H3.42235L3.4223 5.452ZM2.00349 8.132L2.72605 6.22708C2.79174 6.05629 2.87057 6.00373 3.18586 6.00373H5.95784L6.71981 8.22396C6.86433 8.68377 6.3651 8.72318 5.74764 8.76259C5.66882 8.84144 5.66882 9.11732 5.74764 9.19614C6.23373 9.18301 6.95624 9.16988 7.46862 9.16988C8.00725 9.16988 8.5065 9.18301 8.96627 9.19614C9.04509 9.11729 9.04509 8.84142 8.96627 8.76259C8.45391 8.72322 8.00724 8.68375 7.78392 8.04005L5.07756 0.52542C4.88049 0.643656 4.52579 0.788162 4.355 0.788162L1.37282 7.82978C1.03125 8.64429 0.623984 8.72312 0.0591182 8.76253C-0.0197061 8.84138 -0.0197061 9.11724 0.0591182 9.19606C0.400689 9.18293 0.82109 9.1698 1.22835 9.1698C1.76698 9.1698 2.42382 9.18293 2.90995 9.19606C2.98877 9.11721 2.98877 8.84136 2.90995 8.76253C2.41073 8.73628 1.79322 8.68368 2.00346 8.13193L2.00349 8.132Z" fill="black"/>
</svg>
