<svg xmlns="http://www.w3.org/2000/svg" viewBox="0 0 120 18"><path fill="#000" fill-rule="nonzero" d="m18.339 0 .199.001h.375l.174.001h.315l.138.001.323.001H20.034l.058.053v.5c0 .139-.078.208-.231.208-.753.035-.908.11-1.184.507-.15.216-.447.68-.755 1.204L15.28 7.419l-.074.154 3.23 6.611.196.054 5.088-12.076c.177-.487.15-.832-.078-1.035-.228-.197-.389-.315-.978-.34l-.477-.023a.275.275 0 0 1-.168-.061.174.174 0 0 1-.08-.147V.054l.073-.052h5.749l.058.052v.502c0 .136-.078.205-.231.205-.753.034-1.31.197-1.673.489-.362.294-.645.698-.848 1.225 0 0-1.53 3.5-3.137 7.159l-.268.61c-1.12 2.55-2.24 5.09-2.876 6.501-.613 1.17-1.22 1.06-1.745-.033-.411-.847-1.1-2.33-1.8-3.86l-.469-1.024c-.273-.6-.54-1.19-.786-1.727-1.08 2.23-2.56 5.26-3.3 6.624-.715 1.24-1.3 1.08-1.771.032-1.63-3.84-4.97-10.6-6.539-14.35-.29-.697-.51-1.14-.716-1.32C1.45.914 1.019.808.36.774.121.747.001.688 0 .593V.067L.058.016.592.014H1.6l.969-.001h.253l1.734.001h.225l.95.001h.577l.058.052v.5c0 .139-.087.206-.26.206L5.454.8c-.56.023-.84.191-.84.5 0 .145.06.38.19.696 1.25 3.05 5.58 12.2 5.576 12.169l.158.04 2.787-5.56c-.34-.751-.558-1.23-.558-1.234l-1.916-3.765s-.37-.753-.497-1.004C9.512.972 9.53.882 8.68.772c-.238-.031-.361-.061-.362-.18V.065L8.39.013h.702L10.58.01h2.77l.131.043V.58c0 .12-.086.182-.26.182l-.36.052c-.909.07-.76.442-.156 1.644l1.838 3.76 2.034-4.055c.318-.693.278-.9.157-1.064l-.027-.035c-.081-.096-.351-.251-.94-.275l-.231-.025a.276.276 0 0 1-.167-.06.172.172 0 0 1-.079-.147v-.5l.072-.052L16.24 0zm10.464 5.318h.118c.71 0 2.73-.053 2.73-.053l.027.053v.577c0 .08-.053.131-.158.132l-.551.053c-.814.078-1.1.29-1.103.815v8.74c0 .578.262.92 1.103.998l.551.054c.079 0 .157.051.158.156v.552l-.027.053s-1.99-.053-2.808-.053c-.735 0-2.78.053-2.783.053l-.052-.053v-.552c0-.105.078-.156.184-.156l.525-.054c.866-.078 1.13-.499 1.128-.997V6.895c0-.575-.316-.736-1.128-.813l-.525-.054c-.105 0-.184-.024-.184-.105v-.605l.026-.053s1.89.048 2.769.053zm8.81 10.318c0 .577.341.866 1.103.997l.288.054c.079.025.157.051.158.156v.551l-.027.054s-1.65-.054-2.44-.054c-.736 0-2.89.054-2.888.054l-.053-.054v-.55c0-.106.08-.157.184-.157l.525-.054c.787-.079 1.13-.499 1.129-.997V6.895c0-.575-.29-.736-1.129-.813l-.525-.055c-.105 0-.184-.024-.184-.105v-.604l.027-.053s2.15.053 2.966.053c.736 0 2.39-.053 2.389-.053l.026.053v.577c0 .079-.053.105-.158.131l-.288.054c-.814.156-1.1.289-1.103.815v3.964c.866 0 1.36-.444 2.52-1.68 1.05-1.16 1.86-2.12 1.864-2.626 0-.21-.236-.445-.762-.526-.105-.024-.157-.052-.157-.13V5.29l.026-.024s2.13.053 2.888.053c.682 0 1.84-.053 1.837-.053l.079.024v.606c0 .079-.079.131-.21.131-1.02.08-1.73.131-2.678 1.208l-2.257 2.597c-.446.475-.604.76-.604.972 0 .157.105.288.237.445l3.963 4.778c.315.366.945.525 1.47.628l.131.026c.08.025.184.077.184.156v.551l-.079.027s-1.39-.026-2.126-.027c-.656 0-1.6.027-1.6.027l-.027-.027v-.315c0-.342-.026-.629-.394-1.049l-2.914-3.623c-.394-.526-.814-.655-1.39-.655v3.89zm14.151 0c0 .577.262.919 1.102.997l.552.054c.078 0 .157.051.157.156v.551l-.026.054s-1.99-.054-2.809-.054c-.735 0-2.78.054-2.782.054l-.053-.054v-.55c0-.106.08-.157.184-.157l.525-.054c.866-.079 1.13-.499 1.129-.997V6.895c0-.575-.315-.736-1.129-.813l-.525-.055c-.105 0-.184-.024-.184-.105v-.604l.027-.053s2.07.053 2.887.053c.709 0 2.73-.053 2.73-.053l.026.053v.577c0 .079-.052.131-.157.131l-.552.054c-.814.078-1.1.289-1.102.815v8.74zm5.672-8.69c0-.814-.341-.84-1.575-.919-.157 0-.184-.077-.184-.13v-.605l.053-.026c.394 0 1.94.053 2.703.053.735 0 1.78-.053 2.757-.053 3.73 0 4.41 1.84 4.407 3.203 0 1.58-.76 4.04-4.486 4.043-.656 0-1.18-.054-1.655-.263v3.516c0 .576.315.71 1.156.84l.526.079c.105.025.185.053.185.156v.551l-.024.054s-2.1-.054-2.915-.054c-.735 0-2.7.054-2.704.054l-.026-.054v-.551c0-.105.053-.131.158-.156l.55-.08c.815-.104 1.08-.34 1.077-.84l-.003-8.818zm2.021 4.568c.525.211 1.18.236 1.706.237 1.58 0 2.33-.947 2.335-2.967 0-2.26-1.02-2.76-2.466-2.756-1.26 0-1.58.236-1.576.919l.001 4.567zm10.661 5.88c-.787 0-2.6.054-2.598.054l-.027-.054v-.577c0-.052.027-.13.158-.13l.605-.054c.815-.079 1.05-.604 1.051-1.128V6.843c0-.606-.315-.71-1.05-.761l-.606-.055c-.157-.024-.157-.077-.158-.105v-.604l.027-.053s2.05.053 2.834.053h3.859c.787 0 2.65-.053 2.652-.053l.055.053c.024 1.13.208 2.15.393 3.15l-.654.105c-.288-.972-.786-2.36-2.466-2.362h-2.1c-.5 0-.761.184-.761.63v3.806h1.967c.736 0 .92-.315 1.025-.84l.157-.55c0-.08.053-.133.157-.133h.444c.055 0 .055.027.055.079-.055.576-.157 1.31-.158 1.943 0 .655.105 1.21.158 1.811l-.055.054h-.444c-.13 0-.186-.054-.186-.133l-.13-.576c-.106-.526-.342-.815-1.028-.815h-1.966v4.017c0 .497.286.995.76.996h2.495c1.34 0 2.08-.84 2.388-2.207l.654.079-.526 3.017-.052.053s-1.55-.053-2.336-.053l-4.593.005zm9.872-.707.604-.054c.788-.079 1.05-.315 1.05-1.128V6.843c0-.685-.185-.685-1.05-.761l-.576-.055c-.105 0-.186-.052-.186-.13v-.578l.026-.053s2.31.053 2.784.053c.497 0 2.78-.053 3.465-.053 4.38 0 6.54 2.73 6.537 6.221 0 4.59-3.26 5.96-6.167 5.958-2.1 0-3.02-.054-3.832-.054-.788 0-2.78.054-2.784.054l-.026-.054v-.55a.147.147 0 0 1 .155-.154zm5.855 0c2.89 0 4.52-1.07 4.515-4.752 0-2.73-.605-5.91-5.014-5.908-1.02 0-1.68.157-1.68.816v8.662c0 .733.183 1.18 2.179 1.182zm12.996-1.051c0 .577.262.919 1.102.997l.551.054c.079 0 .157.051.158.156v.551l-.027.054s-1.99-.054-2.807-.054c-.736 0-2.78.054-2.783.054l-.053-.054v-.55c0-.106.079-.157.184-.157l.526-.054c.865-.079 1.13-.499 1.128-.997V6.895c0-.575-.316-.736-1.128-.813l-.526-.055c-.105 0-.184-.024-.184-.105v-.604l.026-.053s2.07.053 2.886.053c.708 0 2.73-.053 2.73-.053l.025.053v.577c0 .079-.055.131-.158.131l-.551.054c-.815.078-1.1.289-1.103.815l.003 8.74zm8.086.997.762.054c.105 0 .21.078.21.209v.498l-.053.054s-2.86-.054-3.491-.054c-.683 0-2.36.054-2.364.054l-.053-.054v-.498c0-.13.079-.21.21-.21 1.16-.078 1.81-.29 2.546-1.97l5.826-13.65c.288-.682.5-.946.895-.946.365 0 .498.264.707.788l5.38 14.227c.37 1.02.895 1.42 1.945 1.523l.288.025c.132 0 .264.078.263.211v.497l-.078.053s-2.02-.053-3.046-.053c-.92 0-3.49.053-3.492.053l-.025-.053v-.497c0-.133.053-.21.187-.21l.735-.054c.996-.078 1.37-.395 1.103-1.128l-1.602-4.438h-5.461c-.63 0-.787.105-.918.444l-1.524 3.807c-.262.66.079 1.24 1.05 1.318zm6.431-6.67-2.546-7.007h-.052l-2.625 6.667c-.105.265.078.341.655.342h4.568v-.001z"/></svg>