<svg xmlns="http://www.w3.org/2000/svg" width="120" height="16"><path fill="#000" fill-rule="nonzero" d="M5.091 0c.424.197.73.453.918.766l-2.13.859c-.275.12-.482.178-.622.173-.15 0-.224-.072-.224-.216 0-.111.075-.215.224-.31L5.091 0Zm-1.14 6.789c.601 0 .97-.058 1.104-.174.14-.12.22-.4.239-.837.038-.049.118-.073.238-.073s.205.024.253.073c-.02.592-.03 1.018-.03 1.278 0 .178.01.611.03 1.3-.048.048-.133.072-.253.072-.116 0-.195-.024-.238-.072a2.591 2.591 0 0 0-.087-.57c-.039-.116-.156-.217-.354-.304-.197-.092-.498-.137-.903-.137H2.607v3.567c0 .424.176.636.527.636H5.15c.94 0 1.584-.645 1.936-1.936a.652.652 0 0 1 .52.073c-.12.78-.304 1.603-.55 2.47-.789-.02-1.42-.03-1.891-.03H1.986c-.8.01-1.442.02-1.928.03-.039-.04-.058-.116-.058-.232 0-.12.02-.204.058-.252.553-.02.907-.101 1.061-.246.154-.144.231-.513.231-1.105V4.39c0-.591-.077-.957-.23-1.097C.964 3.15.61 3.067.057 3.048.019 3.009 0 2.93 0 2.809c0-.12.02-.204.058-.252l1.914.028h3.77a4.3 4.3 0 0 0 .722-.057c.038 0 .057.014.057.043.077.337.188 1.052.333 2.145a.794.794 0 0 1-.491.072c-.188-.592-.386-1.009-.593-1.25-.207-.24-.565-.36-1.076-.36h-1.56a.454.454 0 0 0-.39.187.743.743 0 0 0-.137.463v2.96H3.95Zm7.622.043c.414-.462.801-.778 1.162-.946a2.763 2.763 0 0 1 1.17-.253c.564 0 .973.169 1.228.506.265.356.4 1.016.405 1.978v2.203c0 .583.055.944.166 1.083.115.135.39.224.823.268.038.043.058.125.058.245 0 .116-.02.195-.058.239-.847-.02-1.37-.03-1.567-.03-.178 0-.681.01-1.51.03-.038-.044-.057-.123-.057-.239 0-.12.019-.202.057-.245.405-.039.658-.128.759-.268.106-.14.159-.5.159-1.083V8.074c0-.525-.06-.905-.18-1.14-.189-.357-.449-.535-.78-.535-.545 0-1.118.29-1.72.873a.91.91 0 0 0-.253.622v2.426c0 .583.049.944.145 1.083.101.135.349.224.744.268.043.043.065.125.065.245 0 .116-.022.195-.065.239-.828-.02-1.315-.03-1.459-.03-.274 0-.819.01-1.632.03-.044-.044-.065-.123-.065-.239 0-.12.021-.202.065-.245.462-.039.75-.126.866-.26.116-.135.174-.499.174-1.09V7.438c0-.414-.058-.674-.174-.78-.11-.111-.375-.186-.794-.224-.058-.169-.067-.308-.029-.42.949-.13 1.63-.271 2.044-.425.12 0 .18.038.18.115-.048.453-.074.828-.079 1.127.005.13.055.13.152 0Zm6.72 3.25c.047-.048.132-.072.252-.072.096 0 .166.019.21.057.168.699.36 1.154.577 1.365.217.236.566.354 1.047.354a1.5 1.5 0 0 0 .867-.267c.26-.178.39-.433.39-.765 0-.328-.101-.59-.303-.788-.202-.197-.605-.419-1.206-.664-.593-.246-1.011-.51-1.257-.795-.245-.288-.368-.695-.368-1.22 0-.462.207-.852.62-1.17.415-.323.904-.484 1.467-.484.226 0 .457.017.693.05.236.034.484.08.744.138.265.053.43.084.498.094 0 .13-.014.375-.043.736a10.98 10.98 0 0 0-.043.83c-.048.05-.135.073-.26.073-.101 0-.174-.02-.217-.058a2.137 2.137 0 0 0-.246-.736 1.017 1.017 0 0 0-.397-.42 1.692 1.692 0 0 0-.404-.172 1.285 1.285 0 0 0-.325-.044c-.265 0-.506.087-.722.26a.83.83 0 0 0-.318.686c0 .198.029.366.087.506a.948.948 0 0 0 .332.368c.163.106.31.188.44.246.13.057.337.142.621.252 1.156.439 1.734 1.093 1.734 1.965 0 .346-.082.65-.246.91-.164.255-.373.45-.628.585-.255.13-.508.224-.758.281a3.149 3.149 0 0 1-.723.087c-.481 0-.929-.053-1.343-.159a1.146 1.146 0 0 0-.296-.029c-.096 0-.22.015-.368.044a30.65 30.65 0 0 0-.109-2.044Zm7.102-6.818c0-.178.084-.34.252-.484.169-.149.342-.223.52-.223.188 0 .352.081.491.245a.776.776 0 0 1 .217.52c0 .169-.08.33-.238.484a.726.726 0 0 1-.527.231c-.179 0-.342-.082-.491-.245a.77.77 0 0 1-.224-.528Zm1.35 7.056c0 .592.058.958.173 1.098.12.135.417.219.889.253.043.043.065.125.065.245 0 .116-.022.195-.065.239a95.65 95.65 0 0 0-1.64-.03c-.274 0-.828.01-1.66.03-.044-.044-.066-.123-.066-.239 0-.12.022-.202.065-.245.472-.039.768-.126.889-.26.12-.135.18-.499.18-1.09V7.438c0-.414-.058-.674-.173-.78-.11-.111-.373-.186-.787-.224-.058-.169-.068-.308-.03-.42.916-.12 1.59-.262 2.023-.425.13 0 .195.033.195.1a27.93 27.93 0 0 0-.058 1.684v2.946Zm3.427 0V3.857c0-.318-.008-.554-.022-.708-.015-.16-.077-.275-.188-.347-.106-.077-.19-.118-.253-.123l-.484-.036c-.067-.067-.1-.178-.1-.332 0-.043.004-.08.014-.108.876-.068 1.565-.203 2.065-.405.13 0 .195.05.195.152-.038.395-.058.912-.058 1.553v5.113c.386-.111 1.021-.653 1.907-1.625.178-.178.267-.332.267-.462 0-.179-.178-.275-.534-.29-.043-.043-.065-.122-.065-.238 0-.12.022-.204.065-.252.732.019 1.187.029 1.365.029.13 0 .558-.01 1.285-.03.044.044.065.126.065.246s-.021.202-.065.246c-.688.029-1.23.245-1.625.65L32.88 8.132a.205.205 0 0 0-.058.152c0 .067.024.134.072.202l1.733 2.556c.15.227.318.378.506.455.193.072.448.13.766.174.043.043.065.125.065.245 0 .116-.022.195-.065.239-.593-.02-.997-.03-1.214-.03-.284 0-.626.01-1.025.03-.039 0-.058-.025-.058-.073v-.238c0-.207-.113-.474-.34-.802l-1.076-1.516c-.14-.207-.272-.347-.397-.42a.815.815 0 0 0-.448-.115v1.33c0 .582.046.945.138 1.09.096.14.305.226.628.26.043.043.065.125.065.245.005.116-.017.195-.065.239-.847-.02-1.295-.03-1.343-.03-.227 0-.754.01-1.582.03-.043-.044-.065-.123-.065-.239 0-.12.022-.202.065-.245.433-.03.705-.113.816-.253.116-.14.174-.506.174-1.098Zm8.091 0V3.857c0-.318-.01-.554-.029-.708-.014-.16-.077-.275-.187-.347-.106-.077-.188-.118-.246-.123a85.039 85.039 0 0 0-.491-.036c-.067-.067-.099-.178-.094-.332 0-.043.003-.08.007-.108.877-.068 1.568-.203 2.073-.405.13 0 .195.05.195.152-.038.395-.06.912-.065 1.553v6.817c0 .592.063.96.188 1.105.125.14.419.222.88.246.044.043.066.125.066.245 0 .116-.022.195-.065.239a95.247 95.247 0 0 0-1.647-.03c-.274 0-.825.01-1.654.03-.043-.044-.065-.123-.065-.239 0-.12.022-.202.065-.245.463-.02.756-.101.882-.246.125-.144.187-.513.187-1.105Zm3.918-1.228c0-.977.279-1.798.837-2.462.564-.665 1.33-.997 2.297-.997.554 0 1.038.099 1.452.296.414.198.736.462.967.795.232.327.402.68.513 1.061.116.38.173.773.173 1.177 0 .535-.103 1.043-.31 1.524-.207.482-.559.9-1.054 1.257-.492.351-1.081.527-1.77.527-.977 0-1.74-.323-2.29-.968a3.332 3.332 0 0 1-.815-2.21Zm2.975-2.968c-.573 0-1.001.258-1.285.773-.28.51-.42 1.129-.42 1.856 0 .303.04.623.116.96.082.338.198.665.347.983a2.1 2.1 0 0 0 .657.78c.29.207.616.31.982.31.434 0 .807-.17 1.12-.513.318-.346.476-.96.476-1.841 0-1.074-.173-1.892-.52-2.456-.341-.568-.832-.852-1.473-.852Zm7.276 1.047c-.159.169-.236.386-.231.65v2.752c0 .26.019.438.058.534.043.097.142.215.296.354.23.207.58.31 1.047.31.395 0 .734-.081 1.018-.245.289-.163.506-.385.65-.664.15-.28.255-.566.318-.86a4.32 4.32 0 0 0 .1-.953c0-.809-.17-1.466-.512-1.972-.337-.51-.753-.765-1.25-.765-.442 0-.94.286-1.494.86Zm-.116-.49a4.017 4.017 0 0 1 1.04-.766c.371-.188.7-.282.99-.282.741 0 1.362.301 1.863.903.5.602.751 1.307.751 2.116 0 1.155-.364 2.087-1.09 2.795-.583.553-1.31.828-2.182.823a3.46 3.46 0 0 1-1.285-.224c-.077-.038-.13-.053-.159-.043-.029.01-.043.06-.043.152v1.596c0 .592.065.958.195 1.097.135.14.474.224 1.018.253.043.043.065.123.065.238 0 .12-.022.203-.065.246a91.388 91.388 0 0 0-1.791-.029c-.274 0-.828.01-1.661.029-.043-.043-.065-.125-.065-.246 0-.115.022-.195.065-.238.462-.02.756-.101.881-.245.125-.145.188-.513.188-1.105V7.439c0-.414-.058-.674-.174-.78-.11-.111-.373-.186-.787-.224-.057-.169-.067-.308-.029-.42.906-.12 1.57-.262 1.994-.425.13 0 .195.034.195.1-.039.275-.058.59-.058.947 0 .048.02.075.058.08.038.004.067-.008.086-.037ZM62.43 2.202a.666.666 0 0 1 .21-.03c.303 0 .573.114.808.34l.044.16-1.697 1.617c-.188.188-.337.28-.448.274a.204.204 0 0 1-.137-.058.171.171 0 0 1-.065-.13c0-.096.055-.233.166-.411l1.12-1.762ZM60.27 7.95l2.68-.043c.15 0 .222-.067.217-.202 0-.563-.12-.963-.361-1.199a1.194 1.194 0 0 0-.867-.354c-.13 0-.257.017-.383.05a1.9 1.9 0 0 0-.462.217c-.183.106-.349.292-.498.556-.15.265-.258.59-.325.975Zm3.879 2.802c.169.01.272.087.31.232-.66.857-1.5 1.285-2.52 1.285-.977 0-1.73-.315-2.26-.946-.463-.534-.694-1.264-.694-2.188 0-1.045.313-1.885.94-2.52.625-.636 1.297-.954 2.014-.954 1.666 0 2.499.857 2.499 2.571 0 .169-.092.253-.275.253l-3.936-.03c0 .829.157 1.505.47 2.03.433.708.972 1.062 1.618 1.062.414 0 .75-.058 1.01-.173.266-.12.54-.328.824-.622Zm6.915-.462v-2.81c0-.225-.017-.384-.051-.476a.924.924 0 0 0-.202-.325c-.304-.356-.703-.532-1.199-.527-.592 0-1.052.246-1.38.737-.283.404-.426 1.059-.426 1.964 0 .867.162 1.538.484 2.015.328.472.708.708 1.141.708.386 0 .85-.236 1.394-.708.16-.14.239-.332.239-.578Zm-.167 1.09c-.722.593-1.338.89-1.848.89-.78 0-1.394-.29-1.842-.868-.448-.582-.672-1.343-.672-2.282 0-1.054.34-1.92 1.019-2.6a3.103 3.103 0 0 1 2.217-.888c.15 0 .313.022.49.065.18.043.33.087.456.13.13.039.2.058.21.058.086 0 .132-.046.137-.137V3.857c0-.318-.01-.554-.03-.708-.014-.16-.076-.275-.187-.347-.106-.077-.188-.118-.246-.123a85.039 85.039 0 0 0-.49-.036c-.068-.067-.1-.178-.095-.332 0-.043.003-.08.008-.108.876-.068 1.567-.203 2.072-.405.13 0 .195.05.195.152-.038.395-.06.912-.065 1.553v6.702c0 .385.068.652.203.801.134.145.428.236.88.275.044.043.066.11.066.202a.292.292 0 0 1-.065.202c-.828.096-1.425.291-1.791.585a.819.819 0 0 1-.152.029.4.4 0 0 1-.13-.029c-.11-.347-.164-.635-.159-.867-.005-.048-.026-.072-.065-.072a.176.176 0 0 0-.116.05Zm4.69-8.117c0-.178.085-.34.253-.484.169-.149.342-.223.52-.223.188 0 .352.081.492.245a.776.776 0 0 1 .216.52c0 .169-.08.33-.238.484a.726.726 0 0 1-.527.231c-.178 0-.342-.082-.491-.245a.77.77 0 0 1-.224-.528Zm1.351 7.056c0 .592.058.958.174 1.098.12.135.416.219.888.253.043.043.065.125.065.245 0 .116-.022.195-.065.239a95.65 95.65 0 0 0-1.64-.03c-.274 0-.828.01-1.66.03-.044-.044-.066-.123-.066-.239 0-.12.022-.202.065-.245.472-.039.768-.126.889-.26.12-.135.18-.499.18-1.09V7.438c0-.414-.058-.674-.173-.78-.11-.111-.373-.186-.787-.224-.058-.169-.068-.308-.03-.42.916-.12 1.59-.262 2.023-.425.13 0 .195.033.195.1-.039.632-.058 1.193-.058 1.684v2.946Zm9.243-3.56c-.168.149-.25.356-.245.62v3.698c.375.463.73.694 1.061.694.68 0 1.197-.272 1.553-.816.356-.55.535-1.264.535-2.145 0-.708-.162-1.305-.484-1.791-.318-.491-.706-.737-1.163-.737-.481 0-.9.159-1.257.477Zm-.1-.462c.49-.443 1.042-.665 1.653-.665.679 0 1.286.272 1.82.816.534.54.802 1.238.802 2.095 0 1.102-.342 2-1.026 2.693-.679.689-1.427 1.033-2.246 1.033-.578 0-1.01-.12-1.3-.361-.077-.063-.142-.096-.195-.101-.062 0-.132.046-.21.137a8.839 8.839 0 0 1-.346.361c-.15 0-.257-.06-.325-.18.039-.188.058-.537.058-1.048V3.856c0-.317-.007-.553-.022-.707-.014-.16-.077-.275-.188-.347-.105-.077-.19-.118-.252-.123l-.484-.036c-.068-.067-.101-.178-.101-.332 0-.043.002-.08.007-.108.876-.068 1.567-.203 2.073-.405.13 0 .195.05.195.152-.039.395-.058.912-.058 1.553v2.722c0 .135.048.16.144.073Zm9.622-4.095a.666.666 0 0 1 .21-.03c.303 0 .572.114.808.34l.044.16-1.697 1.617c-.188.188-.337.28-.448.274a.204.204 0 0 1-.137-.058.171.171 0 0 1-.065-.13c0-.096.055-.233.166-.411l1.12-1.762Zm-2.16 5.748 2.68-.043c.15 0 .222-.067.217-.202 0-.563-.12-.963-.361-1.199a1.194 1.194 0 0 0-.867-.354c-.13 0-.258.017-.383.05a1.9 1.9 0 0 0-.462.217c-.183.106-.349.292-.498.556-.15.265-.258.59-.325.975Zm3.879 2.802c.168.01.272.087.31.232-.66.857-1.5 1.285-2.52 1.285-.977 0-1.73-.315-2.26-.946-.463-.534-.694-1.264-.694-2.188 0-1.045.313-1.885.94-2.52.625-.636 1.297-.954 2.014-.954 1.666 0 2.499.857 2.499 2.571 0 .169-.092.253-.275.253l-3.936-.03c0 .829.157 1.505.47 2.03.433.708.972 1.062 1.618 1.062.414 0 .75-.058 1.01-.173.265-.12.54-.328.824-.622Zm4.293-3.993c-.169.149-.25.356-.246.62v3.698c.376.463.73.694 1.062.694.679 0 1.196-.272 1.553-.816.356-.55.534-1.264.534-2.145 0-.708-.161-1.305-.484-1.791-.317-.491-.705-.737-1.162-.737-.482 0-.9.159-1.257.477Zm-.101-.462c.49-.443 1.042-.665 1.654-.665.679 0 1.285.272 1.82.816.534.54.801 1.238.801 2.095 0 1.102-.342 2-1.025 2.693-.68.689-1.428 1.033-2.246 1.033-.578 0-1.011-.12-1.3-.361-.077-.063-.142-.096-.195-.101-.063 0-.133.046-.21.137a8.885 8.885 0 0 1-.346.361c-.15 0-.258-.06-.325-.18.038-.188.057-.537.057-1.048V3.856c0-.317-.007-.553-.021-.707-.015-.16-.077-.275-.188-.347-.106-.077-.19-.118-.253-.123a96.414 96.414 0 0 0-.484-.036c-.067-.067-.1-.178-.1-.332 0-.043.002-.08.006-.108.877-.068 1.567-.203 2.073-.405.13 0 .195.05.195.152-.039.395-.058.912-.058 1.553v2.722c0 .135.048.16.145.073Zm9.962 2.383-1.17.31c-.939.246-1.406.787-1.401 1.625 0 .265.09.508.267.73.183.216.448.325.795.325.346 0 .78-.215 1.3-.643a.444.444 0 0 0 .209-.383V8.681Zm0 2.737h-.029l-.296.231c-.327.255-.595.421-.802.498-.207.082-.476.123-.808.123-.564 0-1.016-.128-1.358-.383-.337-.255-.506-.66-.506-1.213 0-.491.224-.924.672-1.3.448-.375 1.037-.657 1.77-.845l1.27-.31c.058-.02.087-.077.087-.174 0-1.28-.4-1.92-1.199-1.92-.327 0-.614.052-.86.158-.245.101-.368.255-.368.462 0 .14.01.236.03.29a.626.626 0 0 1 .043.266c0 .111-.06.222-.18.333-.116.105-.273.158-.47.158-.347 0-.518-.173-.513-.52 0-.404.255-.777.765-1.119a2.942 2.942 0 0 1 1.676-.52c1.488 0 2.231.833 2.231 2.499v2.203c0 .284.008.5.022.65.015.149.068.288.159.418a.489.489 0 0 0 .412.188c.12 0 .224-.038.31-.115a.769.769 0 0 1 .145-.116c.029 0 .067.029.115.087.053.058.08.11.08.159 0 .029-.053.096-.16.202a1.86 1.86 0 0 1-.461.31 1.433 1.433 0 0 1-.636.152c-.592.005-.973-.28-1.141-.852Zm3.954-1.336c.048-.048.132-.072.252-.072.097 0 .167.019.21.057.168.699.36 1.154.578 1.365.216.236.565.354 1.047.354a1.5 1.5 0 0 0 .866-.267c.26-.178.39-.433.39-.765 0-.328-.1-.59-.303-.788-.202-.197-.604-.419-1.206-.664-.592-.246-1.011-.51-1.257-.795-.245-.288-.368-.695-.368-1.22 0-.462.207-.852.621-1.17.414-.323.903-.484 1.466-.484.226 0 .458.017.694.05.235.034.483.08.743.138.265.053.431.084.499.094 0 .13-.015.375-.044.736-.028.357-.043.634-.043.83-.048.05-.135.073-.26.073-.101 0-.173-.02-.217-.058a2.137 2.137 0 0 0-.245-.736 1.017 1.017 0 0 0-.397-.42 1.692 1.692 0 0 0-.405-.172 1.285 1.285 0 0 0-.325-.044c-.265 0-.505.087-.722.26a.83.83 0 0 0-.318.686c0 .198.03.366.087.506a.948.948 0 0 0 .332.368c.164.106.31.188.44.246.13.057.338.142.622.252 1.155.439 1.733 1.093 1.733 1.965 0 .346-.082.65-.246.91-.163.255-.373.45-.628.585-.255.13-.508.224-.758.281a3.149 3.149 0 0 1-.722.087c-.482 0-.93-.053-1.344-.159a1.146 1.146 0 0 0-.296-.029c-.096 0-.219.015-.368.044a30.428 30.428 0 0 0-.108-2.044Z"/></svg>