<?xml version="1.0" encoding="UTF-8"?>
<svg width="120px" height="28px" viewBox="0 0 120 28" version="1.1" xmlns="http://www.w3.org/2000/svg" xmlns:xlink="http://www.w3.org/1999/xlink">
    <title>zh-classical-wordmark</title>
    <g id="Page-1" stroke="none" stroke-width="1" fill="none" fill-rule="evenodd">
        <path d="M6.38568588,18.1752788 C4.44450978,18.3774882 2.46290215,18.620143 0.440856087,18.9032086 C-0.0646588804,18.9639456 -0.135431321,19.1964201 0.228540491,19.6008217 C0.552065239,19.9243499 0.936254544,20.146782 1.38111013,20.2681008 C1.8866182,20.4095904 2.33146861,20.4197708 2.71566309,20.2984693 C8.53916032,18.5999549 16.1521757,17.7608004 25.5547317,17.7810058 L25.6760504,17.7810058 C26.1613134,17.781023 26.454511,17.6798924 26.5556434,17.4777002 C26.6971503,17.2148401 26.5656512,16.9115345 26.1613427,16.5677837 C24.8065412,15.5769936 23.4214368,15.2837822 22.0060276,15.6881838 C21.3387261,15.8094853 20.64112,15.9510613 19.9132039,16.1128254 C20.519796,12.1698362 21.4297195,9.6018333 22.6429727,8.40879934 C23.0271378,7.9235243 23.0372475,7.468566 22.6733067,7.04392446 C22.2284304,6.72041351 21.3589488,6.28567789 20.0648602,5.73970033 C19.6199856,5.55773081 19.1245837,5.58803031 18.5786527,5.83063332 C17.6080474,6.21484678 16.6576838,6.56870898 15.72756,6.89221993 C15.7882108,5.92165258 16.0712902,4.47588702 16.5768207,2.55490599 C16.6576769,2.31228572 16.4959128,2.01909153 16.0915284,1.67532341 C15.3433517,1.25071637 14.7064067,0.977744845 14.1806915,0.856391574 C13.8167059,0.775466387 13.5538388,0.82602306 13.3920902,1.00806159 C13.2100896,1.14955126 13.2100896,1.39227506 13.3920902,1.73599141 C13.958249,2.66616518 14.2312257,3.43454034 14.211022,4.04113414 C14.2110048,5.09262667 14.1907821,6.19464136 14.150354,7.34719548 C13.2808569,7.48868514 12.2698321,7.71118627 11.117278,8.01447454 C11.1374834,6.41707347 11.1981514,5.38582087 11.2992631,4.92073398 C11.3801365,4.41523627 11.2588005,4.01083465 10.935293,3.70749461 C10.4297677,3.32333291 9.86359331,3.00991605 9.23676994,2.76724402 C8.91323138,2.64594251 8.6604739,2.65612287 8.47850093,2.79761253 C8.27628459,2.9391022 8.25606538,3.18182599 8.41783293,3.52554235 C9.08509819,5.00167643 9.50972766,6.58898342 9.69172478,8.28748058 C8.41782085,8.48970727 7.14393072,8.67169404 5.8700475,8.83344088 C5.36452735,8.50992994 4.82868356,8.3077205 4.26251784,8.22681257 C3.93898274,8.14588738 3.69633659,8.18643625 3.53457939,8.34811408 C3.39303796,8.48960374 3.41324338,8.71208761 3.5952474,9.01537589 C4.16141484,9.82421364 4.60626526,10.6835908 4.92980036,11.5935074 C5.19266055,12.4629959 5.67795112,14.656914 6.38567725,18.1752788 M14.9086213,16.9620394 C15.0299263,15.4859571 15.1613633,14.0503029 15.3029237,12.6550768 C15.6062137,12.5741516 15.9297419,12.5034067 16.2735083,12.442756 C17.0823098,12.2405638 17.5473811,12.088911 17.668724,11.9877977 C17.8102482,11.846308 17.8506884,11.6946207 17.7900428,11.5328394 C17.6484841,11.3306472 17.3148411,11.1486604 16.7891277,10.9868791 C16.3038164,10.9059539 15.8488564,10.9363224 15.4242442,11.0778121 C15.4848776,10.0465767 15.5657683,9.03554679 15.6668903,8.04472227 C16.1521636,7.90323261 16.6880057,7.78187934 17.27442,7.68076599 C18.0832198,7.43812847 18.669615,7.48868514 19.0336058,7.83243601 C19.4177727,8.21663222 19.5795368,8.80303786 19.5188981,9.59161843 C19.1549056,12.1596386 18.7100552,14.4344473 18.1843434,16.4160446 C17.1328578,16.5575343 16.040951,16.7395728 14.9086213,16.9620394 M12.8157976,17.2652932 C12.3102706,17.3260302 11.8249783,17.3967751 11.3599207,17.477614 C11.2992527,16.0217543 11.248696,14.6973075 11.208268,13.5042908 C12.0777358,13.3020986 12.9775479,13.1100005 13.9077061,12.9279965 L13.5437378,17.1743084 C13.3010761,17.1743257 13.05843,17.204677 12.8157993,17.2652414 M7.68989966,17.9931885 C6.96195086,14.2928541 6.53732139,11.6439605 6.4160078,10.046525 C6.73952565,10.0263368 7.0933844,9.95559197 7.47758406,9.83420419 C8.22573137,9.65225193 8.98400037,9.49048783 9.75239106,9.34891189 C9.77259648,10.1577496 9.81304181,11.1991136 9.87370982,12.4729865 C9.44906655,12.4931746 9.02443708,12.5337235 8.59981797,12.594288 C7.93253028,12.7155895 7.84153689,12.9279447 8.32683954,13.231233 C8.81212149,13.4739051 9.33785395,13.6154465 9.90404037,13.6558746 C9.92424579,14.8084459 9.96469113,16.1430041 10.0253591,17.6595317 C9.2367475,17.7404569 8.45825929,17.8516298 7.68989103,17.9931885 M13.9986909,11.5327186 C13.432501,11.6742083 12.8461057,11.8360414 12.2395068,12.0180109 C11.8755229,12.0787479 11.5216641,12.1595006 11.1779288,12.2606484 C11.1576889,10.744138 11.1374662,9.67244009 11.1172608,9.04558911 C12.1080508,8.80296884 13.1089659,8.58053673 14.1200062,8.37831004 C14.0997663,9.4095799 14.059321,10.4610379 13.9986875,11.5327186 M7.84154034,20.9959098 C7.63932573,22.3506906 6.01157685,24.3525278 2.95828681,27.0014041 C2.45277011,27.3856004 2.52354083,27.5271418 3.1706024,27.4260457 C4.74779461,27.284556 7.18436398,25.5657499 10.4803174,22.2698172 C10.7431707,21.9665116 10.8442737,21.7036342 10.7836264,21.4812021 C10.7027357,21.1576912 10.3488718,20.8948137 9.72204843,20.6926043 C9.03453979,20.4499667 8.53913788,20.3690933 8.23584098,20.4499667 C8.03362464,20.4701549 7.90219282,20.6521762 7.84154034,20.9959098 M15.1209248,21.4508853 C16.7183276,22.7854435 18.5078406,24.4131786 20.4894724,26.3341251 C20.9140794,26.83964 21.3285993,27.1429456 21.7330337,27.2440589 C21.9352138,27.2642471 22.137418,27.1429456 22.3396482,26.8800854 C22.6631522,26.5161118 22.6328199,25.7780707 22.2486634,24.6659447 C21.9251111,23.6346921 20.7624318,22.6641075 18.760624,21.7541909 C18.1944289,21.3699947 16.9710903,20.864497 15.0906012,20.237646 C14.8479378,20.0961563 14.7063946,20.1972697 14.6659717,20.5409515 C14.6659717,20.864497 14.8176072,21.1678025 15.1209317,21.4508853 M43.1769089,14.7175647 C43.6015246,15.5061798 44.5619978,17.0328188 46.0583321,19.2975162 C47.7163943,21.7442003 49.1621599,23.6550355 50.3956323,25.0300217 C50.9617842,25.7175235 51.5279568,26.0612743 52.0941553,26.0612743 C53.7522123,25.9399728 55.3091905,25.8388595 56.7650932,25.7579688 C57.3919011,25.7377806 57.705318,25.6466751 57.7053473,25.4849973 C57.7255354,25.3030105 57.4020107,25.0502444 56.7347627,24.7267162 C53.2163685,23.1495205 51.1134369,22.0576172 50.4259628,21.4510061 C48.3027896,19.5705049 46.0886454,17.0934868 43.7835251,14.0199689 L43.3892245,13.4740086 C43.4700979,13.0898296 43.54086,12.6955393 43.6015401,12.2911032 C44.5721091,12.1091337 47.615293,11.8563848 52.7311004,11.5328394 C53.1759283,11.5126512 53.448905,11.4013575 53.5500322,11.1991999 C53.6308884,10.9363569 53.4893469,10.6532568 53.125401,10.349934 C51.952588,9.54113078 50.9314536,9.24793658 50.0619927,9.47035144 C48.5252148,9.85454764 46.4323928,10.3297286 43.7835251,10.8958943 C43.9857139,7.0742412 44.2688002,4.63766838 44.6327858,3.58617585 C44.7540873,3.32333291 44.7035479,3.09078947 44.481133,2.88856278 C44.0362671,2.50440108 43.3892107,2.14042754 42.5399638,1.79665942 C42.0344385,1.59448449 41.5794768,1.56415049 41.1750803,1.70572643 C40.6897759,1.88773045 40.6493341,2.18092465 41.0537616,2.58530901 C41.741246,3.27282801 42.0849952,3.98055241 42.085009,4.70846498 C42.1052144,7.2158344 42.024341,9.40975245 41.8423628,11.2902364 L35.0786012,12.5034758 C34.593302,12.5844009 34.5427505,12.8067985 34.9269484,13.1707548 C35.5942189,13.7167151 36.4636988,13.8683679 37.535395,13.6257131 C38.8092765,13.2010888 40.1943809,12.8674493 41.6907101,12.6247945 C41.0234206,16.4667048 39.8000803,19.3582359 38.0206873,21.2994051 C37.8791286,21.4207066 37.7477002,21.552154 37.6263866,21.6936954 C36.6962353,22.66428 35.1898086,23.7865174 33.1071032,25.0604075 C32.8037908,25.2018972 32.6218057,25.3232849 32.5611481,25.424381 C32.4398293,25.5658707 32.5813707,25.6569245 32.9857793,25.6973526 C34.0170198,25.6973526 35.5942189,24.9896454 37.71738,23.5741966 C39.4361119,22.1789877 40.5886798,21.0264336 41.1750872,20.1164998 C41.7816897,19.1459152 42.4489653,17.3463047 43.1769175,14.7176165 M76.510423,15.4758458 C76.5710737,15.556771 76.6620585,15.6578326 76.7834014,15.7791513 C78.6841097,18.023626 80.6859383,20.1568933 82.7888923,22.1789359 C83.2943814,22.6844509 83.9616587,22.937217 84.7907243,22.9371998 C86.3072347,23.018125 87.8541033,22.8968235 89.4313317,22.5732435 C89.81549,22.5530553 90.0278056,22.4721301 90.0682768,22.3305887 C90.1289103,22.189099 89.9873688,22.0576172 89.6436473,21.9362984 C88.6123706,21.5521022 87.4901349,21.1780346 86.2769318,20.8140611 C83.8908863,20.0254632 81.0094665,18.2561695 77.6326621,15.5061625 L77.5719941,15.4454255 C78.9874101,15.3645003 80.5949397,15.3544925 82.3945865,15.415057 C83.7291153,15.475794 84.4671633,15.4047041 84.6087324,15.2027362 C84.7300339,14.9600987 84.6289205,14.6972385 84.3054251,14.4141384 C83.2134924,13.5446671 81.9497119,13.281807 80.5140784,13.6255406 L78.0876169,14.0501649 C78.2898039,11.1788737 78.4616776,8.4389953 78.6032398,5.83052979 C81.1712237,5.22393598 82.4754444,4.92063045 82.5159087,4.9206132 C82.7180905,4.77912353 82.768642,4.60721359 82.6675615,4.4049869 C82.5259855,4.14214396 82.1721354,3.92982319 81.6059835,3.76804183 C80.9993483,3.62655217 80.0489846,3.74785368 78.7548925,4.13201537 C78.8357487,3.44453089 79.0278503,2.60537639 79.3311765,1.61455187 C79.39181,1.3719316 79.2199518,1.09896008 78.8155536,0.795620037 C78.0673753,0.41145834 77.4405415,0.158709484 76.9350455,0.0373562132 C76.6115001,-0.0435689736 76.3587443,0.0069876996 76.1767765,0.189026233 C76.0352179,0.371030256 76.0352179,0.613685033 76.1767765,0.916973308 C76.6822725,1.70558839 76.9451396,2.37286746 76.9653761,2.91879325 C76.9855815,3.46477081 76.9956928,4.02084246 76.9957101,4.58699092 C74.9736451,5.01163247 73.2549028,5.345272 71.8394799,5.58790952 C71.8596853,4.96109305 71.910242,4.51624609 71.9911326,4.25335139 C72.0720061,3.74785368 71.9607814,3.35356339 71.6574931,3.07044602 C71.1721904,2.68628432 70.6363467,2.37286746 70.0499634,2.13019543 C69.7466458,2.00889392 69.4938883,2.00889392 69.2916944,2.13019543 C69.1501358,2.27168509 69.1299131,2.50429755 69.2310264,2.8278085 C69.6556473,3.79841035 69.9690659,4.78921761 70.1712805,5.80021304 C69.3017885,5.8204012 68.4323086,5.87095787 67.5628357,5.95188306 C66.8146694,6.03280825 66.6933454,6.26533443 67.1988656,6.64949613 C68.1087804,7.19547369 69.1096939,7.35723779 70.201611,7.13478843 C70.2218164,7.11460027 70.2622618,7.11460027 70.3229298,7.13478843 C70.3835805,8.61090525 70.4341372,11.2294648 70.4745826,14.9904672 C68.816491,15.1319569 67.0876392,15.3038841 65.28802,15.5060763 C64.8633837,15.5262644 64.8027226,15.7184143 65.106035,16.0823706 C65.3688969,16.3856934 65.6924251,16.5878855 66.0766196,16.6889816 C66.5012439,16.8102831 66.8753236,16.8304713 67.1988587,16.7497187 C67.8863483,16.5677319 68.6041754,16.4160791 69.3523435,16.2947431 C69.3523331,17.6899692 68.1188831,19.5704877 65.6519901,21.9362812 C65.5913221,21.9564693 65.5407654,21.9968457 65.5003374,22.0575827 C64.7521728,22.7248617 63.4782827,23.685335 61.6786601,24.9390025 C61.5371186,25.0199277 61.5573413,25.1006803 61.7393281,25.1816572 C62.9121135,25.1816572 64.6510767,24.2616121 66.9562194,22.4215562 C68.7760561,20.5814831 70.1207186,19.1660516 70.9902123,18.1752443 C71.1721853,17.9730521 71.323838,17.8213993 71.4451741,17.720286 C71.5866982,17.6393608 71.6574758,17.4978711 71.6574879,17.2956445 C71.6574758,17.1136749 71.5563746,16.9013542 71.3541807,16.6586994 C71.1519643,16.4160619 70.9093182,16.223981 70.6262422,16.0824223 C72.5067365,15.7184661 74.4681249,15.5162566 76.5104109,15.4758113 M74.2659345,14.5355434 C73.4571002,14.6164686 72.6280604,14.7175475 71.7788119,14.838849 C71.7585719,14.1109364 71.7383493,13.433546 71.7181404,12.806695 C73.1740069,12.6247255 74.4478971,12.4528501 75.5398194,12.2910687 C75.9846543,12.2101435 76.1261992,12.0484484 75.9644506,11.8057764 C75.7622291,11.5024881 75.3982607,11.31039 74.8725438,11.2294994 C74.0839287,11.1485742 73.0324638,11.370989 71.7181404,11.8967784 L71.7181404,10.01626 L71.8394626,10.01626 C73.3155466,9.77363971 74.5894368,9.59165294 75.6611399,9.47031693 C76.1059748,9.38939174 76.2475179,9.22767941 76.0857711,8.98502463 C75.8835496,8.72216444 75.5398004,8.54017767 75.0545237,8.43906432 C74.4478936,8.3783273 73.3357676,8.63117968 71.7181404,9.19732815 C71.7181404,8.04479129 71.7383458,7.28651021 71.7788084,6.92251942 C73.4975386,6.61923115 75.2466097,6.34625962 77.026032,6.10358759 C77.026032,8.65140235 76.9350128,11.3609467 76.7530536,14.2322379 C75.9644385,14.3131631 75.1353971,14.4142419 74.265931,14.5355434 M73.3863398,25.6669495 C71.2429525,25.8084392 68.947928,25.9904777 66.5012542,26.2128926 C66.0766179,26.2330808 66.015955,26.4252134 66.3192692,26.7891869 C66.5821294,27.0520471 66.8854366,27.2441452 67.2291927,27.365464 C67.6133751,27.5069536 67.9773434,27.5373221 68.3211012,27.4563969 C72.2236467,26.6071484 76.7934782,26.3847163 82.0306078,26.7891351 C82.4147747,26.7891351 82.6574208,26.70821 82.7585462,26.5464804 C82.8798477,26.3442709 82.7888457,26.0915221 82.4855695,25.7882165 C81.3936403,24.9389507 80.251182,24.6457565 79.0581929,24.9086167 C77.885385,25.0501064 76.4295099,25.2523676 74.6905622,25.5152278 C74.751213,24.4233244 74.821975,23.392089 74.9028778,22.4215045 C77.147337,21.9968629 78.3201258,21.7441141 78.4212461,21.6632234 C78.6234331,21.5217337 78.6739846,21.3498238 78.5728989,21.1475971 C78.4313402,20.9049595 78.057257,20.7027674 77.4506598,20.540986 C76.7833669,20.4196845 75.9745464,20.5410033 75.0241983,20.9049595 C75.0444037,20.1770297 75.1252944,19.6715148 75.2668444,19.3884146 C75.4690349,19.0649037 75.4488139,18.7717095 75.2061764,18.5088321 C74.5793254,18.0235398 74.0131511,17.7202342 73.5076534,17.5988982 C73.2447725,17.5381612 72.9920167,17.6092511 72.7493844,17.811219 C72.6887164,17.8921442 72.7999238,18.2459719 73.0830222,18.8728056 C73.0830084,18.9941071 73.1335616,19.8130562 73.2346749,21.3295838 L70.8992051,21.5722386 C70.1510354,21.6935401 70.0398228,21.9362122 70.5655673,22.3001684 C71.4148176,22.72481 72.3247394,22.8764627 73.2953361,22.755144 C73.3155415,23.6852832 73.3458755,24.6558678 73.3863208,25.6668978 M102.079262,15.4455118 C102.321896,15.9308041 102.615094,16.2341096 102.958853,16.3554284 C103.161047,16.4363536 103.373361,16.3352402 103.5958,16.0521228 C103.676673,15.8499307 103.676673,15.5466251 103.5958,15.1422063 C103.514909,14.8389007 103.292479,14.5659292 102.928523,14.3232744 C102.382557,13.8784275 101.988258,13.6054559 101.745622,13.5043426 C101.604064,13.4234174 101.492856,13.4841544 101.411985,13.6863294 C101.351317,13.7672545 101.482747,14.181733 101.806285,14.9298855 C100.694147,15.1927629 99.5415793,15.5668478 98.3485764,16.0521228 C97.9037191,16.2543323 97.8127257,16.1532362 98.0755997,15.7488173 C98.8844133,14.5355952 100.239185,12.7157448 102.139923,10.2892833 C102.685864,9.54113078 103.201487,8.93451972 103.686792,8.46943284 C103.929426,8.26724065 103.979977,8.06503122 103.838444,7.86282178 C103.636226,7.4988655 103.191376,7.13489196 102.503891,6.77090117 C102.180351,6.58894891 101.927595,6.53839223 101.745621,6.61923115 C101.543406,6.67996817 101.472634,6.86190318 101.533307,7.16519145 C101.593958,7.89313853 101.149106,9.11648923 100.198752,10.8352091 C99.228159,10.8553972 98.3586774,10.8755854 97.5903057,10.8959461 C96.9028022,10.9161343 96.7309285,10.7038652 97.0746828,10.259001 C98.4092289,7.87300213 99.7235609,5.77006884 101.017682,3.95020115 C101.280539,3.5660222 101.391752,3.30316201 101.351322,3.16160332 C101.290654,2.85831505 100.835689,2.39324542 99.9864366,1.76637718 C99.6628998,1.50353425 99.2989314,1.41254949 98.8945298,1.49340566 C98.6923169,1.57433084 98.651875,1.76641169 98.773211,2.06968271 C99.1978336,3.10095257 98.3890131,5.47687464 96.3467496,9.19741442 C95.982776,9.68272397 95.5480352,10.1882389 95.0425272,10.7139593 C94.6583327,11.0375048 94.486459,11.3205876 94.5269043,11.5632252 C94.6482231,11.9474214 94.8605387,12.3316176 95.1638494,12.7157965 C95.3660502,12.918006 95.6086963,12.94834 95.8917878,12.8067295 C96.639942,12.3012318 97.9037225,11.9170356 99.6831345,11.6541582 C97.6610764,14.6468026 96.3770749,16.3150003 95.8311267,16.6587339 C95.5682544,16.8609606 95.4671532,17.0934868 95.5278195,17.356347 C95.5884702,17.6192244 95.881673,17.9225299 96.4074107,18.2662636 C96.6096097,18.5089183 96.8623672,18.498807 97.1656814,18.235895 C98.4395646,17.1844543 100.077425,16.2542978 102.079265,15.4454773 M94.3752498,22.3305542 L95.376165,24.6963649 C95.5177064,25.0198931 95.7300185,25.2524193 96.0131117,25.3939608 C96.2153108,25.4748859 96.4074055,25.4141489 96.5893957,25.211974 C96.7915948,25.0097818 96.9432493,24.6053629 97.0443575,23.9987519 C97.1050082,23.5539049 96.9129101,23.0483899 96.4680735,22.482207 C95.9625551,21.9767093 95.4166017,21.4813056 94.8302116,20.9959961 C94.587562,20.7938039 94.4055769,20.6926905 94.2842582,20.6926905 C94.1629221,20.7128787 94.0618278,20.8545409 93.9809492,21.1173321 C93.9607265,21.3195415 94.0921566,21.7239431 94.3752498,22.3305542 M98.0756032,20.2377322 C98.8844167,21.7138318 99.4910313,22.5327636 99.8954501,22.6945277 C100.138086,22.7754529 100.350402,22.6641592 100.532395,22.3608882 C100.613269,22.1182507 100.613269,21.7947225 100.532395,21.3903036 C100.28974,20.7028191 99.5719133,20.0860795 98.3789121,19.5401192 C98.2373535,19.459194 98.1261477,19.5297663 98.0452726,19.7524399 C97.9643819,19.8939296 97.9744933,20.0557627 98.0756066,20.2377322 M101.715299,19.2064796 C102.018596,19.6513439 102.321903,20.1568588 102.625222,20.7230245 C102.766747,20.985902 102.958848,21.1476661 103.201506,21.2083168 C103.34303,21.228505 103.484581,21.1577602 103.626137,20.9959961 C103.767662,20.7938039 103.838453,20.450053 103.838453,19.9647607 C103.838453,19.6412325 103.636235,19.307593 103.231839,18.9638421 C102.261242,18.2156896 101.654627,17.8719388 101.411992,17.9325895 C101.331101,17.9527777 101.270433,18.0640714 101.230007,18.2662291 C101.230007,18.4684557 101.391753,18.7818726 101.715299,19.2064796 M111.876107,5.49697653 L113.483638,6.98318743 C113.746481,7.22585946 114.029569,7.34716097 114.332899,7.34716097 C114.53508,7.32697281 114.686735,7.18548314 114.78786,6.92251942 C114.868717,6.65967648 114.828283,6.23505219 114.666542,5.64862929 C114.484532,5.04203549 113.51395,4.52642644 111.754788,4.10176764 C111.451458,4.02084246 111.239144,4.01083465 111.117841,4.07139913 C111.036933,4.15232432 110.996522,4.31407116 110.996522,4.55669143 C111.077378,4.75891812 111.37058,5.07233498 111.876113,5.49694202 M112.331075,21.8452274 C110.854958,22.0474368 109.287869,22.2900916 107.629807,22.5731745 C107.569121,17.1540858 107.629789,13.797485 107.81179,12.503355 C107.993758,11.8967612 107.963426,11.482231 107.720805,11.2597988 L106.71989,10.1375615 C106.598554,9.99607182 106.477228,9.89492396 106.35592,9.8342387 C107.993765,7.10448893 108.913798,5.52729328 109.116021,5.10265173 C109.43953,4.29384849 109.783278,3.69734877 110.147267,3.3131353 C110.288791,3.07051504 110.309014,2.82786026 110.207935,2.58518823 C110.086599,2.34256796 109.722623,2.0291511 109.116028,1.64493764 C108.570056,1.3820947 108.115096,1.26077594 107.751143,1.2809641 C107.387157,1.36188929 107.306275,1.60452681 107.508497,2.00891117 C107.751125,2.43356997 107.801677,2.9997357 107.660149,3.70742559 C106.911974,6.31589111 105.547091,9.15688281 103.565495,12.2303834 C103.383498,12.4325929 103.282395,12.6044683 103.262188,12.7459925 C103.241948,12.9482192 103.353173,13.0189985 103.595826,12.9583133 C103.899121,12.8370118 104.536066,12.2000667 105.506665,11.0474781 C105.52687,11.1284033 105.587538,11.2294821 105.68865,11.3507836 C106.113264,12.1393987 106.325579,13.6963717 106.325595,16.0217198 C106.325579,18.8728229 106.012162,21.6025899 105.385341,24.2110381 C105.12246,25.1411774 105.344878,26.1319847 106.052618,27.1834427 C106.072823,27.2643679 106.133491,27.3451205 106.234603,27.4260975 C106.618777,27.7900537 106.942305,27.668735 107.205188,27.0621239 C107.447816,26.3341768 107.58936,25.1108434 107.629819,23.3921063 C108.115094,23.6347438 108.8127,23.6751892 109.722641,23.5134078 C112.10864,22.9472421 114.990061,22.6540306 118.366916,22.633808 C118.690409,22.6539961 118.993715,22.6539961 119.276832,22.633808 C119.640771,22.6338252 119.873315,22.5528828 119.974445,22.3911704 C120.05537,22.188961 119.944077,21.9463235 119.640806,21.6632234 C118.548868,20.8746255 117.43674,20.6724334 116.304417,21.0566123 C115.515794,21.198102 114.615981,21.3902518 113.604979,21.6328894 C113.625185,20.3994446 113.655501,19.2165565 113.695981,18.0841905 C115.47536,17.6595835 116.435834,17.4068174 116.577404,17.3259267 C116.718929,17.184437 116.749245,17.0327325 116.668389,16.8709684 C116.526813,16.6687762 116.183071,16.4969008 115.637143,16.3553421 C115.010282,16.2744169 114.373337,16.3857106 113.726305,16.6889816 C113.746493,15.8801784 113.776827,15.1016919 113.81729,14.3535049 C114.423882,14.1715354 115.060827,14.0097713 115.728128,13.8682126 C116.294277,13.7267229 116.617805,13.6053697 116.698713,13.5042563 C116.840237,13.3627666 116.870554,13.2211735 116.789698,13.0796148 C116.648122,12.8774226 116.3246,12.7257698 115.819113,12.6246565 C115.09115,12.503355 114.433984,12.6350094 113.847613,13.018964 C113.847591,12.6954531 113.87793,12.2505889 113.938615,11.6844059 C114.120576,11.1789082 113.847596,10.6936159 113.119683,10.228529 C115.808986,9.54104451 117.2042,9.15686555 117.305331,9.07595762 C117.446838,8.93446796 117.477172,8.78278068 117.396316,8.62099933 C117.25474,8.41880714 116.910997,8.24693171 116.36507,8.10537303 C115.79887,8.02444784 115.252916,8.10539028 114.727208,8.3480278 C113.918363,8.65135059 113.058993,8.93443345 112.149092,9.19727638 C111.158267,9.46017108 110.07647,9.66236327 108.9037,9.8039047 C108.236406,9.94539436 108.145414,10.1577669 108.630724,10.4408498 C109.297982,10.7643952 110.369668,10.794712 111.845785,10.5317828 C112.047968,10.976647 112.209732,11.9674542 112.331077,13.5042045 C111.522236,13.6861913 110.652754,13.8479554 109.72263,13.9894968 C109.095776,14.1107984 109.014894,14.313025 109.479984,14.5961079 C110.106801,14.9600814 111.057164,14.9904154 112.331077,14.6870409 L112.331077,17.1135024 C111.785103,17.2549921 110.925731,17.4067138 109.752961,17.5684779 C109.085666,17.6897794 108.994675,17.9021175 109.479984,18.205423 C110.268565,18.5896192 111.178487,18.6603813 112.209755,18.4177265 C112.22996,18.3975384 112.270388,18.3975384 112.331073,18.4177265 L112.331073,21.8451066" id="zh-classical-wordmark" fill="#000000" fill-rule="nonzero"></path>
    </g>
</svg>