<svg xmlns="http://www.w3.org/2000/svg" width="146" height="22" fill="none"><path fill="#000" d="m30.03 19.912-.072-.035c-.644-.108-.93-.394-.93-.93V8.616c0-.537.286-.858.966-.93h.035l.036-.036c.179-.107.286-.25.286-.393 0-.143-.107-.286-.286-.393l-.036-.036H26.24l-.036.036c-.178.107-.286.25-.286.393 0 .143.108.286.286.393l.036.036h.036c.643.107.965.393.965.93v.715l-7.114 7.185c-.107.107-.179.143-.215.179 0-.036-.035-.107-.035-.286V8.616c0-.537.286-.858.965-.93h.036l.035-.036c.18-.107.286-.25.286-.393 0-.143-.107-.286-.286-.393l-.035-.036h-3.79l-.036.036c-.178.107-.286.25-.286.393 0 .143.108.286.286.393l.036.036h.036c.643.107.965.393.965.93v10.331c0 .536-.286.858-.93.93h-.035l-.036.035c-.179.108-.286.25-.286.394 0 .143.107.286.286.393l.036.036h3.79l.035-.036c.179-.107.286-.25.286-.393 0-.143-.107-.286-.286-.394l-.036-.035h-.035c-.644-.108-.93-.394-.93-.93v-.965l7.114-7.186c.107-.107.179-.143.215-.178 0 .035.035.107.035.286v8.043c0 .536-.286.858-.929.93h-.072l-.035.035c-.143.143-.215.322-.179.465.036.143.143.25.322.322h3.753l.036-.036c.179-.107.286-.25.286-.393 0-.143-.286-.25-.465-.358ZM42.863 19.948l-.071-.036c-.75-.214-1.287-.536-1.609-1.036a93.671 93.671 0 0 1-3.289-5.399v-.035c-.035-.036-.035-.143 0-.25.215-.18.394-.394.572-.68.43-.75.894-1.787 1.43-3.11.179-.465.393-.68.715-.68.393 0 .5.037.536.072a.99.99 0 0 0 .465.108c.68 0 1.037-.358 1.037-1.037 0-.358-.107-.68-.358-.93-.25-.25-.607-.357-1.072-.357-.822 0-1.502.715-2.038 2.109-.572 1.466-1.036 2.574-1.394 3.253-.393.751-1.001 1.109-1.895 1.109h-1.501c-.179 0-.215-.036-.215-.215V8.616c0-.537.286-.858.965-.93h.036l.036-.036c.179-.107.286-.25.286-.393 0-.143-.107-.286-.286-.393l-.036-.036h-3.79l-.035.036c-.179.107-.286.25-.286.393 0 .143.107.286.286.393l.036.036h.036c.643.107.965.393.965.93v10.331c0 .536-.286.858-.93.93h-.035l-.036.035c-.179.108-.286.25-.286.394 0 .143.107.285.286.393l.036.035h3.789l.036-.035c.178-.108.286-.25.286-.393 0-.143-.107-.287-.286-.394l-.036-.035h-.036c-.643-.108-.93-.394-.93-.93v-4.933c0-.18.036-.215.215-.215h1.502c.286 0 .5.107.643.393.93 1.68 1.895 3.36 2.824 5.005.036.143.072.286.072.394 0 0-.036.143-.572.321h-.036l-.036.036c-.071.072-.285.25-.25.465.036.143.108.25.322.322H43.006c.18-.072.286-.18.322-.322a1.369 1.369 0 0 0-.465-.465ZM57.199 19.912l-.072-.035c-.643-.108-.93-.394-.93-.93V8.616c0-.537.287-.858.966-.93h.036l.035-.036c.18-.107.286-.25.286-.393 0-.143-.107-.286-.286-.393l-.035-.036h-3.79l-.035.036c-.18.107-.286.25-.286.393 0 .143.107.286.286.393l.035.036h.036c.644.107.965.393.965.93v.715l-7.114 7.185c-.107.107-.178.143-.214.179 0-.036-.036-.107-.036-.286V8.616c0-.537.286-.858.965-.93h.036l.036-.036c.178-.107.286-.25.286-.393 0-.143-.108-.286-.286-.393l-.036-.036h-3.79l-.035.036c-.179.107-.286.25-.286.393 0 .143.107.286.286.393l.035.036h.036c.644.107.965.393.965.93v10.331c0 .536-.286.858-.929.93h-.036l-.035.035c-.18.108-.286.25-.286.394 0 .143.107.286.285.393l.036.036h3.79l.035-.036c.18-.107.286-.25.286-.393 0-.143-.107-.286-.286-.394l-.035-.035h-.036c-.643-.108-.93-.394-.93-.93v-.965l7.115-7.186c.107-.107.178-.143.214-.178 0 .035.036.107.036.286v8.043c0 .536-.286.858-.93.93h-.071l-.036.035c-.143.143-.214.322-.179.465.036.143.143.25.322.322h3.754l.035-.036c.18-.107.286-.25.286-.393 0-.143-.25-.25-.464-.358ZM67.316 14.3c-.536-.537-1.073-.93-1.537-1.144l-.072-.072s.036-.035.143-.107c.393-.179.787-.465 1.251-.93.465-.464.68-1.143.68-2.037 0-.858-.322-1.609-1.001-2.288-.823-.822-2.145-1.251-3.897-1.251-1.752 0-3.182.321-4.183 1l-.071.036v2.36c0 .107.071.465.322.465.178 0 .285-.18.393-.286v-.036c.25-.68.608-1.216 1.072-1.68.644-.644 1.466-.966 2.467-.966.822 0 1.573.322 2.216.966.43.464.644 1 .644 1.716 0 .75-.215 1.358-.644 1.787-.5.5-1.25.75-2.216.75h-1.895c-.322 0-.5.18-.5.501 0 .322.178.5.5.5h1.716c1.216 0 2.145.322 2.789.966.607.608.893 1.43.893 2.43 0 .859-.214 1.502-.643 1.931-.787.823-1.752 1.216-2.789 1.216-1.144 0-2.073-.358-2.788-1.073-.5-.5-.93-1.144-1.215-1.859v-.035l-.036-.036c-.143-.143-.25-.179-.358-.179-.107 0-.286.036-.322.358v.035l.18 2.396.07.035c1.073.823 2.61 1.216 4.505 1.216 1.93 0 3.36-.465 4.29-1.394.75-.787 1.144-1.68 1.144-2.682-.036-1-.393-1.894-1.108-2.61ZM79.077 14.55c-.572-.572-1.18-.93-1.751-1.073.286-.143.643-.428 1.108-.893.5-.5.75-1.287.75-2.288 0-.93-.285-1.716-.822-2.288-.75-.787-1.823-1.18-3.11-1.18h-6.149l-.035.036c-.18.107-.287.25-.287.393 0 .143.108.286.286.393l.036.036h.036c.644.107.965.393.965.93v10.331c0 .608-.286.894-.93.93h-.035l-.036.035c-.178.108-.286.25-.286.394 0 .143.108.286.286.393l.036.036h6.578c1.394 0 2.502-.394 3.289-1.18.715-.715 1.072-1.573 1.072-2.503-.071-1.072-.393-1.894-1-2.502Zm-2.36-2.18c-.535.536-1.25.822-2.144.822h-2.36c-.214 0-.285-.072-.285-.287V8.76c0-.751.357-1.109 1.072-1.109h1.43c1 0 1.787.286 2.324.823.429.429.643 1.108.643 2.037-.036.822-.25 1.43-.68 1.86ZM73 19.911c-.75 0-1.073-.357-1.073-1.108v-4.468c0-.215.072-.287.286-.287h2.503c1.144 0 2.002.287 2.538.894.5.537.75 1.216.75 2.038 0 .894-.214 1.573-.643 2.038-.607.607-1.358.893-2.323.893H73ZM92.269 8.473c-1.287-1.287-2.896-1.967-4.755-1.967s-3.467.644-4.754 1.967c-1.287 1.287-1.93 3.074-1.93 5.29 0 2.217.643 4.004 1.93 5.291 1.287 1.287 2.895 1.967 4.754 1.967 1.86 0 3.468-.644 4.755-1.967 1.287-1.287 1.93-3.074 1.93-5.29 0-2.217-.643-3.969-1.93-5.291Zm-4.79-1.109c1.144 0 2.18.43 3.002 1.287 1.073 1.073 1.61 2.789 1.61 5.113 0 2.323-.537 4.04-1.61 5.112-.858.858-1.858 1.287-3.002 1.287a4.058 4.058 0 0 1-3.004-1.287c-1.072-1.073-1.608-2.789-1.608-5.112 0-2.324.536-4.04 1.608-5.113.859-.858 1.86-1.287 3.004-1.287Z"/><path fill="#000" d="M104.209 8.15c-.858-.893-2.145-1.322-3.825-1.322h-5.863l-.036.036c-.178.107-.286.25-.286.393 0 .143.108.286.286.393l.036.036h.036c.643.107.965.393.965.93v10.331c0 .536-.286.858-.965.93h-.036l-.036.035c-.178.108-.286.25-.286.394 0 .143.108.286.286.393l.036.036h3.79l.035-.036c.179-.107.286-.25.286-.393 0-.143-.107-.286-.286-.394l-.035-.035h-.036c-.644-.108-.966-.394-.966-.93v-3.575c0-.178.036-.214.215-.214h2.824c1.68 0 3.003-.5 3.968-1.502.608-.607.93-1.537.93-2.752.036-1.073-.322-2.002-1.037-2.753Zm-6.864.609c0-.751.358-1.109 1.073-1.109h1.322c1.144 0 2.074.322 2.717.966.537.536.823 1.322.823 2.359 0 1.001-.215 1.752-.644 2.18-.751.752-1.752 1.145-2.931 1.145H98.06c-.465 0-.679-.215-.679-.68V8.76h-.036ZM118.652 19.912l-.072-.035c-.643-.108-.965-.394-.965-.93V8.616c0-.537.286-.858.965-.93h.036l.036-.036c.179-.107.286-.25.286-.393 0-.143-.107-.286-.286-.393l-.036-.036h-3.789l-.036.036c-.179.107-.286.25-.286.393 0 .143.107.286.286.393l.036.036h.035c.644.107.966.393.966.93v3.575c0 .178-.036.214-.215.214h-6.935c-.179 0-.215-.036-.215-.214V8.616c0-.537.286-.858.965-.93h.036l.036-.036c.179-.107.286-.25.286-.393 0-.143-.107-.286-.286-.393l-.107-.036h-3.79l-.035.036c-.179.107-.286.25-.286.393 0 .143.107.286.286.393l.035.036h.036c.644.107.965.393.965.93v10.331c0 .536-.286.858-.965.93h-.036l-.035.035c-.179.108-.286.25-.286.394 0 .143.107.286.286.393l.035.036h3.79l.035-.036c.179-.107.286-.25.286-.393 0-.143-.107-.286-.286-.394l-.035-.035h-.036c-.643-.108-.929-.394-.929-.93v-5.505c0-.179.035-.215.214-.215h6.935c.179 0 .215.036.215.215v5.505c0 .608-.286.894-.93.93h-.035l-.036.035c-.179.108-.286.25-.286.394 0 .143.107.286.286.393l.036.036h3.789l.036-.036c.179-.107.286-.25.286-.393 0-.143-.107-.286-.286-.394ZM132.773 19.912l-.072-.035c-.643-.108-.965-.394-.965-.93V8.616c0-.537.286-.858.965-.93h.036l.036-.036c.178-.107.286-.25.286-.393 0-.143-.108-.286-.286-.393l-.036-.036h-3.789l-.036.036c-.179.107-.286.25-.286.393 0 .143.107.286.286.393l.036.036h.035c.644.107.966.393.966.93v.715l-7.115 7.185c-.107.107-.178.143-.214.179 0-.036-.036-.107-.036-.286V8.616c0-.537.286-.858.965-.93h.036l.036-.036c.179-.107.286-.25.286-.393 0-.143-.107-.286-.286-.393l-.036-.036h-3.789l-.036.036c-.179.107-.286.25-.286.393 0 .143.107.286.286.393l.036.036h.036c.643.107.965.393.965.93v10.331c0 .536-.286.858-.965.93h-.036l-.036.035c-.179.108-.286.25-.286.394 0 .143.107.286.286.393l.036.036h3.789l.036-.036c.179-.107.286-.25.286-.393 0-.143-.107-.286-.286-.394l-.036-.035h-.036c-.643-.108-.929-.394-.929-.93v-.965l7.114-7.186c.107-.107.179-.143.215-.178 0 .035.035.107.035.286v8.043c0 .536-.286.858-.965.93h-.071l-.036.035c-.143.143-.215.322-.179.465.036.143.143.25.322.322h3.753l.036-.036c.179-.107.286-.25.286-.393 0-.143-.179-.25-.357-.358ZM145.607 19.948l-.072-.036c-.75-.214-1.287-.536-1.608-1.036-1.073-1.68-2.217-3.504-3.289-5.399v-.035c-.036-.036-.036-.143 0-.25.214-.18.393-.394.572-.68.429-.75.893-1.787 1.43-3.11.178-.465.393-.68.715-.68.393 0 .5.037.536.072a.99.99 0 0 0 .465.108c.679 0 1.036-.358 1.036-1.037 0-.358-.107-.68-.357-.93s-.608-.357-1.073-.357c-.822 0-1.501.715-2.037 2.109-.572 1.466-1.037 2.574-1.395 3.253-.393.751-1.001 1.109-1.894 1.109h-1.502c-.179 0-.214-.036-.214-.215V8.616c0-.537.286-.858.965-.93h.036l.035-.036c.179-.107.286-.25.286-.393 0-.143-.107-.286-.286-.393l-.035-.036h-3.79l-.036.036c-.178.107-.286.25-.286.393 0 .143.108.286.286.393l.036.036h.036c.643.107.965.393.965.93v10.331c0 .536-.286.858-.965.93h-.036l-.036.035c-.178.108-.286.25-.286.394 0 .143.108.285.286.393l.036.035h3.79l.035-.035c.179-.108.286-.25.286-.393 0-.143-.107-.287-.286-.394l-.035-.035h-.036c-.644-.108-.965-.394-.965-.93v-4.933c0-.18.035-.215.214-.215h1.502c.286 0 .5.107.643.393.93 1.68 1.895 3.36 2.824 5.005.036.143.072.286.072.394 0 0-.036.143-.572.321h-.036l-.036.036c-.071.072-.286.25-.25.465.036.143.107.25.322.322H145.678c.179-.072.286-.18.322-.322a1.076 1.076 0 0 0-.393-.465ZM15.3 11.511c-.857-.858-1.751-1.394-2.609-1.573-.036-.071-.036-.107 0-.178.429-.18.965-.608 1.68-1.323.75-.75 1.108-1.86 1.108-3.36 0-1.395-.429-2.503-1.215-3.361C13.12.572 11.583 0 9.652 0H.43L.393.036C.143.179 0 .357 0 .536s.107.358.393.5l.036.036h.036c1 .143 1.501.644 1.501 1.502v15.515c0 .93-.465 1.43-1.466 1.502H.465l-.036.035c-.25.143-.393.322-.393.5 0 .18.107.358.393.501l.036.036h9.83c2.074 0 3.719-.572 4.827-1.716 1.037-1.072 1.573-2.324 1.573-3.718-.036-1.537-.5-2.788-1.394-3.718ZM11.87 8.294c-.822.822-1.93 1.251-3.29 1.251H5.042c-.358 0-.537-.143-.537-.536V2.824c0-1.18.537-1.716 1.716-1.716h2.11c1.501 0 2.68.43 3.539 1.251.679.68 1 1.716 1 3.11.037 1.18-.321 2.146-1 2.825ZM4.54 17.839v-6.685c0-.393.143-.537.536-.537H8.83c1.752 0 3.039.465 3.861 1.359.75.822 1.144 1.895 1.144 3.11 0 1.359-.322 2.431-1.001 3.11-.894.93-2.073 1.395-3.54 1.395H6.22c-1.144 0-1.68-.572-1.68-1.752Z"/></svg>