<?xml version="1.0" encoding="UTF-8"?>
<svg width="120px" height="18px" viewBox="0 0 120 18" version="1.1" xmlns="http://www.w3.org/2000/svg" xmlns:xlink="http://www.w3.org/1999/xlink">
    <title>wikipedia-wordmark-mdf</title>
    <g id="Page-1" stroke="none" stroke-width="1" fill="none" fill-rule="evenodd">
        <path d="M5.89106772,0.00429383428 C10.1302573,0.00429383428 10.790759,1.9874626 10.790759,3.51393689 C10.790759,4.75175364 9.76839559,5.92135737 8.62541157,6.50033617 L8.62541157,6.54608881 C10.6085803,7.11674895 12.1358865,8.36870742 12.1358865,10.5565153 C12.1358865,12.514728 10.9280169,14.7965367 6.39351484,14.7965367 C4.3654253,14.7965367 4.04598872,14.7499522 3.06605046,14.7499522 C1.90476539,14.7499522 1.21930773,14.7715808 0.102943429,14.7965367 C-0.0343144764,14.6601107 -0.0343144764,14.1809558 0.102943429,14.0445298 C1.69763073,13.9763168 2.08528033,13.8623511 2.08528033,11.9715195 L2.08528033,2.83263856 C2.08528033,0.941806923 1.69763073,0.827841268 0.102943429,0.759628249 C-0.0343144764,0.623202209 -0.0343144764,0.14571107 0.102943429,0.00762129866 C1.24259998,0.0300816832 1.90226979,0.0542058 3.04275821,0.0542058 C4.02269647,0.0508783356 5.09330813,0.00429383428 5.89106772,0.00429383428 Z M4.02269647,6.40966277 L5.70888904,6.40966277 C7.60055254,6.40966277 8.94568002,5.72586884 8.94568002,3.7909483 C8.94568002,1.46588256 7.28194783,0.782088633 6.00669711,0.782088633 C4.02352834,0.782088633 4.02352834,1.00918808 4.02352834,1.76285876 L4.02269647,6.40966277 L4.02269647,6.40966277 Z M4.02269647,12.5155599 C4.02269647,13.2675669 4.3188408,14.0428661 5.9135281,14.0428661 C9.37741852,14.0428661 10.0162917,12.6536497 10.0162917,10.9899175 C10.0162917,8.93936756 8.71608498,7.18329823 5.59575525,7.18329823 L4.02269647,7.18329823 L4.02269647,12.5155599 Z M23.917606,14.2624788 C24.0099431,14.3573116 24.0099431,14.6983766 23.917606,14.7965368 C23.1423068,14.7790677 22.6930991,14.7640941 21.9186318,14.7640941 C21.128359,14.7640941 20.6633458,14.7815633 19.9038521,14.7965368 C19.811515,14.7000404 19.811515,14.3589753 19.9038521,14.2624788 C20.9886055,14.211735 21.252307,14.1335396 21.252307,12.789244 L21.252307,7.02857125 C21.1358458,7.06933269 21.0576504,7.14336877 20.9819505,7.23903338 L16.7494159,12.7401639 C16.5672372,12.9822369 16.413342,13.112008 16.3060312,13.4954983 C16.4158376,14.1651505 16.7618938,14.2233811 17.6103973,14.2624788 C17.7027344,14.3581434 17.7027344,14.6983766 17.6103973,14.7965368 C16.8350981,14.7790677 16.3850585,14.7640941 15.6105912,14.7640941 C14.8194865,14.7640941 14.3553052,14.7815633 13.5958115,14.7965368 C13.5026425,14.7000404 13.5026425,14.360639 13.5958115,14.2624788 C14.6805649,14.2125669 14.9442664,14.1335396 14.9442664,12.789244 L14.9442664,6.29985655 C14.9442664,4.95805654 14.6805649,4.87486993 13.5958115,4.8266217 C13.5026425,4.7309571 13.5026425,4.389892 13.5958115,4.2942274 C14.3711107,4.31003285 14.8194865,4.32500644 15.5939539,4.32500644 C16.3850585,4.32500644 16.8500717,4.30753726 17.6087335,4.2942274 C17.7010707,4.38906013 17.7010707,4.7284615 17.6087335,4.8266217 C16.5239801,4.87736553 16.2602786,4.95722468 16.2602786,6.29985655 L16.2602786,12.0605293 C16.3318191,12.0555381 16.4208287,12.0006349 16.5347944,11.8825099 L20.7931169,6.34893665 C20.9686407,6.12017348 21.1133854,5.82569288 21.2023951,5.56448693 C21.0867657,4.92311817 20.7382138,4.86405567 19.9021884,4.82828543 C19.8098512,4.7309571 19.8098512,4.389892 19.9021884,4.29339553 C20.6774876,4.31003285 21.1266952,4.32583831 21.9011626,4.32583831 C22.6914354,4.32583831 23.1572804,4.30836912 23.9159423,4.29339553 C24.0082794,4.38906013 24.0082794,4.7284615 23.9159423,4.82828543 C22.830357,4.87736553 22.5674873,4.95639281 22.5674873,6.30152029 L22.5674873,12.7900758 C22.5691511,14.1335396 22.8320207,14.2150624 23.917606,14.2624788 Z M25.1129976,14.4554712 C25.1129976,14.3739483 25.1587502,14.326532 25.2211402,14.326532 L25.6395688,14.2957529 C26.2900881,14.2433454 26.477258,14.0678216 26.477258,13.6161183 L26.477258,5.47630858 C26.477258,4.99049879 26.2459992,4.84575408 25.6395688,4.79667399 L25.2369456,4.76589494 C25.1753875,4.76589494 25.1138294,4.71515111 25.1138294,4.63695569 L25.1138294,4.32916524 L25.1446085,4.29838619 C25.9199077,4.31502352 26.3849208,4.32916524 27.16022,4.32916524 C27.9346874,4.32916524 28.3847269,4.31252792 29.1450525,4.29838619 L29.1758316,4.32916524 L29.1758316,4.63695569 C29.1758316,4.71847857 29.1284152,4.76589494 29.0510517,4.76589494 L28.6492603,4.79667399 C28.0295201,4.84908155 27.7974295,5.02377343 27.7974295,5.47630858 L27.7974295,8.84120694 C28.3547797,8.84120694 29.0518835,8.82540148 29.4237277,8.59913391 C30.3387804,8.08171319 30.5550656,7.04520804 30.6939872,6.14013773 C30.850378,5.13773908 31.2837803,4.23017317 32.5074553,4.23017317 C33.329339,4.23017317 33.6071823,4.69851379 33.6071823,5.07285353 C33.6071823,5.54119414 33.2511436,5.71921348 32.9267158,5.71921348 C32.7237405,5.71921348 32.5074553,5.63769061 32.3535601,5.47630858 C32.1830275,5.29828924 32.0582476,5.2159345 31.8577679,5.2159345 C31.391091,5.2159345 31.2846121,5.75248813 31.2064167,6.21999687 C31.0358842,7.22405925 30.7106245,8.61493936 29.5327021,9.06830638 L29.5327021,9.14982926 C30.6016501,9.14982926 31.2064167,9.84526932 31.6256772,10.9791028 C32.4325873,13.1619194 33.2211964,14.2624783 33.7635731,14.3107265 L34.0106373,14.3281957 C34.0888327,14.3281957 34.1345854,14.3781077 34.1345854,14.4563031 L34.1345854,14.7640935 L34.1187799,14.7965363 L32.8934412,14.7790671 C31.6847397,14.7615979 31.1273894,13.450577 30.4602328,11.6728791 C29.8538025,10.0548996 29.5626493,9.52000967 27.7949339,9.52000967 L27.7949339,13.6152865 C27.7949339,14.0994325 28.0270245,14.2441772 28.6475966,14.2949211 L29.0502198,14.3257001 C29.1117779,14.3257001 29.173336,14.3756121 29.173336,14.4538075 L29.173336,14.7615979 L29.1425569,14.7940407 C28.3980368,14.7615979 27.9479972,14.7615979 27.1735299,14.7615979 C26.3998944,14.7615979 25.9032704,14.7615979 25.1437766,14.7940407 L25.1121657,14.7615979 L25.1129976,14.4554712 L25.1129976,14.4554712 Z M45.7258075,14.2624788 C45.8189765,14.3573116 45.8189765,14.6983766 45.7258075,14.7965368 C44.9505083,14.7790677 44.5021325,14.7640941 43.7276652,14.7640941 C42.9373924,14.7640941 42.4715474,14.7815633 41.7128855,14.7965368 C41.6205484,14.7000404 41.6205484,14.3589753 41.7128855,14.2624788 C42.7984708,14.211735 43.0613404,14.1335396 43.0613404,12.789244 L43.0613404,7.02857125 C42.9440473,7.06933269 42.8666838,7.14336877 42.7901521,7.23903338 L38.5576174,12.7401639 C38.3762706,12.9822369 38.2215435,13.112008 38.1142328,13.4954983 C38.224871,14.1651505 38.5709273,14.2233811 39.4185988,14.2624788 C39.510936,14.3581434 39.510936,14.6983766 39.4185988,14.7965368 C38.6449633,14.7790677 38.1940919,14.7640941 37.4196246,14.7640941 C36.6293518,14.7640941 36.1643387,14.7815633 35.4056768,14.7965368 C35.3125078,14.7000404 35.3125078,14.360639 35.4056768,14.2624788 C36.4904302,14.2125669 36.7532998,14.1335396 36.7532998,12.789244 L36.7532998,6.29985655 C36.7532998,4.95805654 36.4904302,4.87486993 35.4056768,4.8266217 C35.3125078,4.7309571 35.3125078,4.389892 35.4056768,4.2942274 C36.1793122,4.31003285 36.6293518,4.32500644 37.4038191,4.32500644 C38.1940919,4.32500644 38.6599369,4.30753726 39.4185988,4.2942274 C39.510936,4.38906013 39.510936,4.7284615 39.4185988,4.8266217 C38.3330136,4.87736553 38.0701439,4.95722468 38.0701439,6.29985655 L38.0701439,12.0605293 C38.1416844,12.0555381 38.2315259,12.0006349 38.3446597,11.8825099 L42.6029822,6.34893665 C42.778506,6.12017348 42.9232507,5.82569288 43.0122603,5.56448693 C42.896631,4.92311817 42.5480791,4.86405567 41.7120536,4.82828543 C41.6188846,4.7309571 41.6188846,4.389892 41.7120536,4.29339553 C42.4873528,4.31003285 42.9365605,4.32583831 43.7110279,4.32583831 C44.5013007,4.32583831 44.9671457,4.30836912 45.7258075,4.29339553 C45.8181447,4.38906013 45.8181447,4.7284615 45.7258075,4.82828543 C44.6402223,4.87736553 44.3773526,4.95639281 44.3773526,6.30152029 L44.3773526,12.7900758 C44.3781845,14.1335396 44.6427179,14.2150624 45.7258075,14.2624788 Z M56.8719814,4.29230959 C56.9634866,4.38631045 56.9634866,4.72737555 56.8719814,4.82553575 C55.7863961,4.87544772 55.5235264,4.954475 55.5235264,6.29877061 L55.5235264,12.788158 C55.5235264,14.1316218 55.7863961,14.2123128 56.8719814,14.2613929 C56.9634866,14.3587212 56.9634866,14.6981226 56.8719814,14.7962828 C56.1124876,14.7788136 55.6466426,14.76384 54.8572017,14.76384 C54.0819025,14.76384 53.6318629,14.7813092 52.8573956,14.7962828 C52.7650584,14.6997863 52.7650584,14.3595531 52.8573956,14.2613929 C53.9429808,14.2123128 54.2058505,14.1332855 54.2058505,12.788158 L54.2058505,6.17066323 C54.2058505,5.16743272 53.8647854,4.97443978 53.4929413,4.97443978 L50.4399927,4.97443978 C50.0681486,4.97443978 49.7279153,5.16576899 49.7279153,6.17066323 L49.7279153,12.788158 C49.7279153,14.1316218 49.990785,14.2123128 51.0755384,14.2613929 C51.1687074,14.3587212 51.1687074,14.6981226 51.0755384,14.7962828 C50.3002392,14.7788136 49.8518634,14.76384 49.077396,14.76384 C48.2871233,14.76384 47.8212782,14.7813092 47.0626164,14.7962828 C46.9702792,14.6997863 46.9702792,14.3595531 47.0626164,14.2613929 C48.1482016,14.2123128 48.4110713,14.1332855 48.4110713,12.788158 L48.4110713,6.29877061 C48.4110713,4.9569706 48.1465379,4.87461585 47.0626164,4.82553575 C46.9702792,4.72820742 46.9702792,4.38880605 47.0626164,4.29230959 C47.8379156,4.30894691 48.7055519,4.32308863 49.0615906,4.32308863 L54.8730071,4.32308863 C55.2914358,4.32308863 56.0966822,4.30728318 56.8719814,4.29230959 Z M63.6150879,7.82050778 C63.7074251,7.72567504 64.0326847,7.72567504 64.1250218,7.82050778 C64.1092164,8.30798131 64.0959065,8.66318813 64.0959065,9.21388348 C64.0959065,9.76374697 64.1108801,10.0707056 64.1250218,10.6380382 C64.0326847,10.7337028 63.7074251,10.7337028 63.6150879,10.6380382 C63.5676716,9.90932354 63.5219189,9.53664753 62.204243,9.53664753 L60.7950619,9.53664753 L60.7950619,13.4364358 C60.7950619,13.8731655 61.0130108,14.1335396 61.3524121,14.1335396 L63.4603608,14.1335396 C64.6382832,14.1335396 65.1789962,13.1785573 65.4884504,12.0131129 C65.6914257,11.9607053 65.8719406,11.9956437 66.0324908,12.0946358 C65.9093746,12.9198469 65.6747884,13.9871311 65.4593351,14.7965368 C65.4593351,14.7965368 64.2198546,14.7640941 63.4736707,14.7640941 L60.1428788,14.7640941 C60.1428788,14.7640941 58.886761,14.7815633 58.1280992,14.7965368 C58.035762,14.7000404 58.035762,14.3598071 58.1280992,14.2616469 C59.2120207,14.2125669 59.4757222,14.1335396 59.4757222,12.7884121 L59.4757222,6.29902469 C59.4757222,4.95639281 59.2120207,4.87486993 58.1280992,4.82578983 C58.035762,4.72929337 58.035762,4.389892 58.1280992,4.29339553 C58.9033984,4.31003285 60.1262415,4.32417458 60.1262415,4.32417458 L64.0776055,4.32417458 C64.4494496,4.32417458 64.5750614,4.30753726 64.8370992,4.26012089 C64.8853474,4.26012089 64.8978254,4.27759008 64.8978254,4.31003285 C64.9302682,4.43814023 65.1606951,5.99123423 65.2372268,6.65423151 C65.0858272,6.73076319 64.9202858,6.7648697 64.7281248,6.73741812 C64.3878915,5.62022195 64.1391636,4.97303013 62.9778785,4.97303013 L61.3507484,4.97303013 C60.9789043,4.97303013 60.7933981,5.29745791 60.7933981,5.68427564 L60.7933981,8.92106662 L62.2025793,8.92106662 C63.5219189,8.92273035 63.5685034,8.7131001 63.6150879,7.82050778 Z M69.398221,9.88993654 C69.7392861,8.04485754 69.9247923,6.37779789 69.9247923,5.36042565 C69.9247923,5.02102428 69.7867025,4.85298733 69.3824156,4.81056216 L68.9174024,4.7606502 C68.839207,4.7606502 68.7942862,4.72820742 68.7942862,4.66332186 L68.7942862,4.32475236 L68.8250653,4.29397332 C68.8250653,4.29397332 69.9098187,4.32475236 70.3748318,4.32475236 L74.4185329,4.32475236 C74.8852098,4.32475236 76.1072211,4.29397332 76.1072211,4.29397332 L76.138832,4.32475236 L76.138832,4.63254282 C76.138832,4.72820742 76.0756102,4.755659 76.0157158,4.7606502 L75.5656762,4.79309297 C75.0665566,4.82886322 74.9933524,5.03516601 74.9933524,5.61830414 L74.9933524,13.4985717 C74.9933524,14.0975152 75.3410724,14.2755346 75.6122607,14.3237828 C75.9466709,14.3836772 76.0672915,14.4377485 76.076442,14.6324051 L76.1862483,17.0256839 C75.7686516,17.0256839 75.7686516,17.0431531 75.7686516,17.0431531 C75.5814817,16.1372509 75.0232995,14.7621763 73.7838191,14.7621763 L69.2909103,14.7621763 C68.0031816,14.7621763 67.6013902,16.2021365 67.4308577,17.0431531 L67.0115972,17.0256839 L67.1214035,14.6324051 C67.130554,14.4377485 67.2935998,14.3479069 67.447495,14.3237828 C67.7494624,14.2738709 67.9965266,14.2364369 68.2227942,13.999355 C68.6245855,13.5775989 68.9032607,12.4146501 69.398221,9.88993654 Z M71.1950518,4.96944859 C70.777455,4.96944859 70.6227279,5.19571616 70.5894533,5.60083495 C70.4655052,7.23545183 70.218441,8.91748507 70.032103,10.0180439 C69.6918697,11.9113712 69.3042201,13.5135452 69.3042201,13.8529466 C69.3042201,14.0451077 69.5063636,14.1282943 69.7226488,14.1282943 L73.1174943,14.1282943 C73.4885066,14.1282943 73.6748446,14.0775505 73.6748446,13.4802706 L73.6748446,5.59833935 C73.6748446,5.0967241 73.5825075,4.96944859 73.1025207,4.96944859 L71.1950518,4.96944859 L71.1950518,4.96944859 Z M87.997915,14.2624788 C88.0894203,14.3573116 88.0894203,14.6983766 87.997915,14.7965368 C87.2226158,14.7790677 86.7725763,14.7640941 85.9981089,14.7640941 C85.208668,14.7640941 84.742823,14.7815633 83.9833293,14.7965368 C83.8909921,14.7000404 83.8909921,14.3589753 83.9833293,14.2624788 C85.0689145,14.211735 85.3317842,14.1335396 85.3317842,12.789244 L85.3317842,7.02857125 C85.2153229,7.06933269 85.1371275,7.14336877 85.0622596,7.23903338 L80.8280612,12.7401639 C80.6467144,12.9822369 80.4919873,13.112008 80.3863403,13.4954983 C80.4953147,14.1651505 80.841371,14.2233811 81.6898744,14.2624788 C81.7830434,14.3581434 81.7830434,14.6983766 81.6898744,14.7965368 C80.9145752,14.7790677 80.4653675,14.7640941 79.6909002,14.7640941 C78.9014593,14.7640941 78.4356143,14.7815633 77.6761205,14.7965368 C77.5837834,14.7000404 77.5837834,14.360639 77.6761205,14.2624788 C78.7617058,14.2125669 79.0245755,14.1335396 79.0245755,12.789244 L79.0245755,6.29985655 C79.0245755,4.95805654 78.7617058,4.87486993 77.6761205,4.8266217 C77.5837834,4.7309571 77.5837834,4.389892 77.6761205,4.2942274 C78.4514197,4.31003285 78.9014593,4.32500644 79.6759266,4.32500644 C80.4653675,4.32500644 80.9303807,4.30753726 81.6898744,4.2942274 C81.7830434,4.38906013 81.7830434,4.7284615 81.6898744,4.8266217 C80.6042892,4.87736553 80.3422514,4.95722468 80.3422514,6.29985655 L80.3422514,12.0605293 C80.4137918,12.0555381 80.5019697,12.0006349 80.6159353,11.8825099 L84.8750897,6.34893665 C85.0497816,6.12017348 85.1928626,5.82569288 85.2827041,5.56448693 C85.1670747,4.92311817 84.8193547,4.86405567 83.9824974,4.82828543 C83.8901603,4.7309571 83.8901603,4.389892 83.9824974,4.29339553 C84.7577966,4.31003285 85.2061724,4.32583831 85.9806398,4.32583831 C86.7700807,4.32583831 87.2359257,4.30836912 87.9962513,4.29339553 C88.0877566,4.38906013 88.0877566,4.7284615 87.9962513,4.82828543 C86.9114979,4.87736553 86.6469645,4.95639281 86.6469645,6.30152029 L86.6469645,12.7900758 C86.6486282,14.1335396 86.9131616,14.2150624 87.997915,14.2624788 Z M94.7327068,7.82050778 C94.825044,7.72567504 95.1503036,7.72567504 95.2426408,7.82050778 C95.2268353,8.30798131 95.2135254,8.66318813 95.2135254,9.21388348 C95.2135254,9.76374697 95.228499,10.0707056 95.2426408,10.6380382 C95.1503036,10.7337028 94.825044,10.7337028 94.7327068,10.6380382 C94.6852905,9.90932354 94.6395378,9.53664753 93.3218619,9.53664753 L91.9126808,9.53664753 L91.9126808,13.4364358 C91.9126808,13.8731655 92.1306297,14.1335396 92.4700311,14.1335396 L94.5779797,14.1335396 C95.7559021,14.1335396 96.2966151,13.1785573 96.6060693,12.0131129 C96.8090446,11.9607053 96.9895596,11.9956437 97.1501097,12.0946358 C97.0269935,12.9198469 96.7924073,13.9871311 96.576954,14.7965368 C96.576954,14.7965368 95.3374735,14.7640941 94.5912896,14.7640941 L91.2604978,14.7640941 C91.2604978,14.7640941 90.00438,14.7815633 89.2457181,14.7965368 C89.1533809,14.7000404 89.1533809,14.3598071 89.2457181,14.2616469 C90.3296396,14.2125669 90.5933412,14.1335396 90.5933412,12.7884121 L90.5933412,6.29902469 C90.5933412,4.95639281 90.3296396,4.87486993 89.2457181,4.82578983 C89.1533809,4.72929337 89.1533809,4.389892 89.2457181,4.29339553 C90.0210173,4.31003285 91.2438604,4.32417458 91.2438604,4.32417458 L95.1952244,4.32417458 C95.5670685,4.32417458 95.6926803,4.30753726 95.9547181,4.26012089 C96.0029664,4.26012089 96.0154444,4.27759008 96.0154444,4.31003285 C96.0478871,4.43814023 96.278314,5.99123423 96.3548457,6.65423151 C96.2034461,6.73076319 96.0379047,6.7648697 95.8457437,6.73741812 C95.5055104,5.62022195 95.2567825,4.97303013 94.0954974,4.97303013 L92.4683673,4.97303013 C92.0965232,4.97303013 91.911017,5.29745791 91.911017,5.68427564 L91.911017,8.92106662 L93.3201982,8.92106662 C94.6395378,8.92273035 94.6861223,8.7131001 94.7327068,7.82050778 Z M114.165998,14.0505936 C116.645069,14.0505936 117.884618,12.8184777 117.884618,10.3542411 C117.884618,9.14439638 117.561734,8.26113223 116.915995,7.70444551 C116.270238,7.14777463 115.219971,6.86942732 113.765189,6.86942732 C113.356952,6.86942732 112.904186,6.89170162 112.40689,6.93622807 L112.40689,12.5141572 C112.40689,12.9817704 112.525644,13.3566017 112.763165,13.6386511 C113.000677,13.9132805 113.468287,14.0505936 114.165998,14.0505936 M110.469645,11.9686116 L110.469645,2.8279331 C110.469643,1.91499204 110.350885,1.35089005 110.113371,1.13562715 C109.883274,0.912969569 109.34144,0.78678807 108.487866,0.757084241 C108.428487,0.697719336 108.398797,0.575251014 108.398797,0.389676108 C108.398797,0.204131288 108.428487,0.0742397796 108.487866,0 C109.705137,0.0297054125 110.684892,0.0445502016 111.427134,0.0445343671 C112.213904,0.0445502016 113.201081,0.0297054125 114.38867,0 C114.462887,0.0742397796 114.499999,0.204131288 114.500006,0.389676108 C114.507422,0.567827828 114.47031,0.690297733 114.38867,0.757084241 C113.535089,0.78678807 112.989543,0.912969569 112.752032,1.13562715 C112.521933,1.35089005 112.406886,1.91499204 112.40689,2.8279331 L112.40689,6.02327434 C113.089746,5.9639031 113.716937,5.93421352 114.288467,5.93420561 C116.322195,5.93421352 117.780694,6.29791165 118.663969,7.02529681 C119.554645,7.75269939 120,8.86234539 120,10.3542411 C120,11.8016105 119.506399,12.9038349 118.519232,13.6609175 C117.532044,14.4180018 116.066123,14.7965447 114.121464,14.7965447 C113.831984,14.7965447 113.368085,14.7891215 112.729765,14.7742767 C112.091435,14.7594319 111.664647,14.7520103 111.449402,14.7520103 C110.662625,14.7520103 109.675448,14.7668551 108.487866,14.7965447 C108.428487,14.7371655 108.398797,14.6184072 108.398797,14.4402697 C108.398797,14.2547107 108.428487,14.1248176 108.487866,14.0505936 C109.34144,14.020904 109.883274,13.8947241 110.113371,13.6720507 C110.350885,13.4493805 110.469643,12.8815685 110.469645,11.9686116 M103.531649,14.7965273 C105.245197,14.7965273 106.299691,14.1594385 107.332213,12.775418 L106.892842,12.4239208 C105.882288,13.610224 105.113385,14.0495956 103.641492,14.0495956 C100.983296,14.0495956 100.192425,11.6110833 100.192425,9.43619395 C100.192425,5.7454726 101.905976,4.888698 103.553618,4.888698 C105.464882,4.888698 106.431501,5.94318981 106.695124,7.48099037 L107.266307,7.41508464 C107.134496,6.51437288 107.024653,5.59169254 107.002684,4.60310646 C106.167879,4.60310646 105.179291,4.25160919 103.421806,4.25160919 C100.521957,4.25160919 98.2811585,6.44846714 98.2811585,9.65587974 C98.2811585,12.1822664 100.148491,14.7965273 103.531649,14.7965273" id="wikipedia-wordmark-mdf" fill="#000000" fill-rule="nonzero"></path>
    </g>
</svg>