<svg viewBox="0 0 103 35" xmlns="http://www.w3.org/2000/svg"><g fill="none" fill-rule="evenodd"><g fill="#000" fill-rule="nonzero"><path d="m83.574 0.25391c-2e-5 0.365-0.215 1.29-0.64454 2.7734-3.16 1.04-7.24 2.51-12.227 4.3945 2.32 2.04 5.16 5.25 8.5156 9.6094 1.18 1.54 2.15 2.53 2.8906 2.9688 0.573 0.339 1.4 0.508 2.4805 0.50782h0.50781l-1.8e-4 1.7e-4 1.1888 7.1e-4c2.49 0 3.73-0.449 3.7305-1.3477-1e-5 -0.625-0.566-1.66-1.6992-3.1055l1.0156-2.4609c0.104-0.247 0.189-0.371 0.2539-0.37109 0.0651 0 0.202 0.15 0.41016 0.44922 1.05 1.55 1.58 3.14 1.582 4.7656 0 3.31-1.65 4.96-4.9415 4.961h-2.9101l-1.6e-4 -0.00331-0.14627-0.0048888c-1.22-0.0779-2.46-0.779-3.737-2.1021-0.664-0.69-1.63-1.97-2.9102-3.8281 0.13 3.96-2.1 5.94-6.6992 5.9375h-9.4805c-0.677 0-1.35 0.111-2.0312 0.33203-0.898 0.312-1.35 0.736-1.3477 1.2695-1.7e-5 0.195 1.2 0.531 3.6035 1.0059 2.4 0.475 3.6 0.999 3.6035 1.5723-2.4e-5 1.97-0.566 3.43-1.6992 4.3945-1.91 1.64-5.29 2.46-10.117 2.4609-5.83 0-8.75-2.16-8.75-6.4648 0-0.964 0.208-2.04 0.625-3.2422 0.417-1.2 0.924-2.19 1.5234-2.9688 0.234-0.299 0.449-0.462 0.64453-0.48829 0.195-0.013 0.293 0.0912 0.29297 0.3125-6e-6 0.195-0.0781 0.443-0.23438 0.74219-0.755 1.43-1.13 2.92-1.1328 4.4531-5e-6 1.26 0.475 2.3 1.4258 3.125 1.22 1.07 3.12 1.6 5.7031 1.6016 1.99-1e-5 3.84-0.104 5.5469-0.3125 3.02-0.378 4.53-1.02 4.5312-1.9336-2.2e-5 -0.378-0.658-0.677-1.9727-0.89844-2.08-0.352-3.29-0.573-3.6328-0.66406-1.32-0.365-1.97-0.924-1.9727-1.6797-1.5e-5 -0.599 0.319-1.35 0.95703-2.2461 0.534-0.755 1.09-1.37 1.6797-1.8359 1.17-0.951 2.84-1.43 5-1.4258l7.586 7e-5c3.36 0 5.04-0.931 5.0391-2.793-1e-5 -0.99-0.586-2.2-1.7578-3.6328-0.742-0.911-1.82-2.02-3.2422-3.3398-1.17-1.09-1.76-1.7-1.7578-1.8164-1e-5 -1.65 0.28-2.86 0.83984-3.6328 0.13-0.169 1.76-0.833 4.9023-1.9922 3.32-1.22 6.31-2.24 8.9648-3.0469zm-45.563 30.173 1.8359 1.8359-1.8164 1.8164-1.8359-1.8359 1.8164-1.8164zm60.589-16.348c1.56 0 2.72 1.07 3.4766 3.2227 0.521 1.5 0.781 3.2 0.78133 5.0977 0 3.72-1.28 6.91-3.8477 9.5702-0.807 0.833-1.32 1.25-1.543 1.25-1.39 0-3.01-0.143-4.8633-0.42969-0.638-0.104-0.957-0.202-0.95703-0.29297 0-0.104 0.339-0.254 1.0156-0.44922 2.03-0.586 3.91-1.63 5.6445-3.125 0.729-0.625 1.39-1.36 1.9922-2.207 0.755-1.05 1.13-1.94 1.1328-2.6562v-0.82031l-3.2617 0.11719c-2.3 0.0781-3.46-0.879-3.457-2.8711-1e-5 -1.24 0.358-2.57 1.0742-3.9844 0.82-1.61 1.76-2.42 2.8125-2.4219zm-9.4362 12.325 1.9336 1.9531-1.9336 1.9336-1.9336-1.9531 1.9336-1.9336zm-4.2969 0 1.9531 1.9531-1.9336 1.9336-1.9336-1.9531 1.9141-1.9336zm-71.725 0 1.9336 1.9531-1.9336 1.9336-1.9336-1.9531 1.9336-1.9336zm-4.2969 0 1.9531 1.9531-1.9336 1.9336-1.9336-1.9531 1.9141-1.9336zm26.94 0.1172 1.8359 1.8359-1.8359 1.8164-1.8555-1.8359 1.8555-1.8164zm4.4335 0 1.8555 1.8359-1.8359 1.8164-1.8555-1.8359 1.8359-1.8164zm-13.05-18.454c0.0781 0.0521 0.176 0.215 0.29297 0.48828 0.859 2.03 2 5 3.418 8.9062 0.742 2.03 1.79 3.05 3.1445 3.0469h0.19531l0.65226 8.6e-4h2.5586c2.49 0 3.73-0.449 3.7305-1.3477-5e-6 -0.625-0.566-1.66-1.6992-3.1055l1.0156-2.4609c0.104-0.247 0.189-0.371 0.25391-0.37109 0.0651 0 0.202 0.15 0.41016 0.44922 1.05 1.55 1.58 3.14 1.582 4.7656 0 3.31-1.65 4.96-4.9414 4.961h-2.9102l-0.6524-9e-4h-0.60547c-0.938 0-1.73-0.299-2.3828-0.89844-0.404-0.365-0.892-1.03-1.4648-1.9922-0.599 1.05-1.3 1.8-2.0898 2.2461-0.977 0.534-2.36 0.801-4.1406 0.80078-3.5 0-5.25-1.26-5.2539-3.7695 0-0.846 0.26-1.72 0.78125-2.6172 0.169-0.299 0.339-0.449 0.50781-0.44922 0.156 1e-5 0.234 0.13 0.23438 0.39063-4e-6 0.143-0.0195 0.355-0.05859 0.63476-0.0391 0.28-0.0586 0.492-0.05859 0.63477-5e-6 1.5 1.27 2.25 3.8086 2.2461 3.58 1e-5 5.37-0.697 5.3711-2.0898-1.3e-5 -0.755-1.04-3.47-3.1055-8.1445l1.1133-1.9336c0.143-0.247 0.241-0.378 0.29297-0.39062zm-25.293-8.0665c0.0781 0 0.15 0.156 0.21484 0.46875 0.0651 0.313 0.124 0.732 0.17578 1.2598 0.0521 0.527 0.0976 1.14 0.13672 1.8262 0.0391 0.69 0.0716 1.41 0.09766 2.1582 0.026 0.749 0.0456 1.5 0.05859 2.2656 0.013 0.762 0.0195 1.47 0.01953 2.1387v7.2852c-5e-6 2.07 0.996 3.11 2.9883 3.1055h0.78121l0.6334 7.6e-4h2.5586c2.49 0 3.73-0.449 3.7305-1.3477-5e-6 -0.625-0.566-1.66-1.6992-3.1055l1.0156-2.4609c0.104-0.247 0.189-0.371 0.25391-0.37109 0.0651 0 0.202 0.15 0.41016 0.44922 1.05 1.55 1.58 3.14 1.582 4.7656 0 3.31-1.65 4.96-4.9414 4.961h-2.9102l-0.6334-9e-4h-1.1719c-0.807 0-1.5-0.133-2.0801-0.40039-0.579-0.267-1.06-0.684-1.4355-1.25-0.378-0.566-0.654-1.3-0.83008-2.1875-0.176-0.892-0.264-1.97-0.26367-3.2324l0.01953-4.7656c-4e-6 -2.27-0.195-5.51-0.58594-9.7266l1.543-1.6406c0.13-0.13 0.241-0.195 0.33203-0.19532zm96.316 16.871c-0.521 0-0.973 0.195-1.3574 0.58594-0.384 0.391-0.576 0.846-0.57618 1.3672 0 1.15 0.82 1.72 2.4609 1.7188 0.612 0 1.39-0.0716 2.3438-0.21485 0-0.794-0.273-1.56-0.82032-2.2852-0.599-0.781-1.28-1.17-2.0508-1.1719z"/></g></g></svg>
