<svg width="120" height="13" viewBox="0 0 120 13" fill="none" xmlns="http://www.w3.org/2000/svg">
<path d="M3.10028 4.40801H2.0456V1.79203C2.0456 1.63071 2.08037 1.49556 2.14991 1.38655C2.21945 1.27756 2.32375 1.22087 2.46284 1.2165H3.67976C4.09868 1.21951 4.39374 1.34432 4.56494 1.59092C4.73612 1.83754 4.87761 2.18796 4.98941 2.64221C5.13196 2.66293 5.25945 2.64114 5.37188 2.57682C5.33734 2.26973 5.2905 1.89967 5.23135 1.46666C5.17219 1.03367 5.13404 0.771528 5.1169 0.680229C5.11883 0.654082 5.10338 0.641003 5.07054 0.64099C4.97806 0.660349 4.89355 0.673965 4.81702 0.681866C4.74047 0.689779 4.63568 0.693577 4.50264 0.693302H1.54724C1.52116 0.69304 1.34442 0.690319 1.01701 0.685139C0.689593 0.679972 0.367977 0.673951 0.0521549 0.667136C0.017385 0.714552 0 0.786503 0 0.882969C0 0.979435 0.017385 1.05138 0.0521549 1.09878C0.449105 1.09771 0.718568 1.16528 0.860544 1.30152C1.00252 1.43778 1.06916 1.76697 1.06047 2.28906V7.53412C1.06916 8.05622 1.00252 8.38541 0.860544 8.52165C0.718567 8.65791 0.449105 8.72548 0.0521549 8.72439C0.017385 8.77181 0 8.84374 0 8.94021C0 9.03667 0.017385 9.10863 0.0521549 9.15604C0.363388 9.14923 0.68549 9.14322 1.01846 9.13806C1.35142 9.13288 1.53154 9.13014 1.55883 9.12987H4.05064C4.35583 9.13096 4.67262 9.13531 5.001 9.14295C5.32938 9.15057 5.50709 9.15494 5.53414 9.15604C5.61719 8.82059 5.69735 8.45817 5.77462 8.06877C5.85188 7.67936 5.91466 7.31366 5.96296 6.97168C5.84338 6.89036 5.70817 6.86857 5.55731 6.90628C5.44769 7.38969 5.27577 7.79299 5.04157 8.11617C4.80735 8.43936 4.47318 8.60722 4.03905 8.61975H2.46284C2.3339 8.61839 2.23248 8.56879 2.1586 8.47096C2.08472 8.37313 2.04705 8.23526 2.0456 8.05732V4.90504H3.10028C3.57304 4.90532 3.86761 4.97998 3.984 5.12904C4.10037 5.27809 4.15736 5.49992 4.15495 5.79448C4.19696 5.83372 4.2607 5.85334 4.34618 5.85334C4.43165 5.85334 4.49539 5.83372 4.53741 5.79448C4.53137 5.57403 4.52606 5.38057 4.52148 5.21406C4.51688 5.04758 4.51447 4.85736 4.51423 4.64344C4.51447 4.42654 4.51688 4.23252 4.52148 4.06139C4.52606 3.89026 4.53137 3.70933 4.53741 3.51857C4.49539 3.47935 4.43165 3.45973 4.34618 3.45971C4.2607 3.45973 4.19696 3.47935 4.15495 3.51857C4.15736 3.87038 4.10037 4.10853 3.984 4.23305C3.86761 4.35759 3.57304 4.41592 3.10028 4.40801ZM8.42968 4.44725C8.40963 4.4816 8.38597 4.51102 8.35869 4.53555C8.3314 4.56007 8.31643 4.53064 8.31378 4.44725C8.31619 4.23416 8.32585 4.01943 8.34275 3.80306C8.35965 3.58671 8.36931 3.47007 8.37173 3.45317C8.37172 3.3856 8.32537 3.35071 8.23265 3.34852C8.07401 3.41993 7.86685 3.48643 7.61115 3.54801C7.35544 3.60961 7.02948 3.66955 6.63326 3.72786C6.62263 3.77255 6.6207 3.8336 6.62746 3.91098C6.63422 3.98838 6.64388 4.04941 6.65644 4.0941C6.96163 4.11236 7.16542 4.17394 7.2678 4.27884C7.37017 4.38375 7.4175 4.61867 7.40977 4.98354V7.53412C7.41943 8.04887 7.37114 8.37315 7.2649 8.50694C7.15866 8.64074 6.93652 8.71322 6.59849 8.72439C6.56372 8.77181 6.54633 8.84374 6.54633 8.94021C6.54633 9.03667 6.56372 9.10863 6.59849 9.15604C6.82835 9.14923 7.03793 9.14322 7.22723 9.13806C7.41653 9.13288 7.63191 9.13014 7.87337 9.12987C8.0885 9.13014 8.27539 9.13288 8.43402 9.13806C8.59266 9.14322 8.78823 9.14923 9.02076 9.15604C9.05552 9.10863 9.07291 9.03667 9.07291 8.94021C9.07291 8.84374 9.05552 8.77181 9.02076 8.72439C8.73318 8.71322 8.5434 8.64074 8.45141 8.50694C8.35941 8.37315 8.3174 8.04887 8.32537 7.53412V5.389C8.32778 5.25331 8.34903 5.14213 8.38911 5.05547C8.42919 4.96881 8.47362 4.89688 8.52239 4.83966C8.74284 4.59578 8.96546 4.40664 9.19026 4.27229C9.41505 4.13796 9.64057 4.06984 9.86681 4.06794C9.98512 4.06875 10.0991 4.10961 10.2087 4.19054C10.3183 4.27148 10.4091 4.38757 10.4811 4.5388C10.5376 4.6707 10.5752 4.82221 10.5941 4.99334C10.6129 5.16447 10.6216 5.34867 10.6202 5.54596V7.53412C10.6279 8.04887 10.5834 8.37315 10.4869 8.50694C10.3903 8.64074 10.1952 8.71322 9.90158 8.72439C9.8726 8.77181 9.85812 8.84374 9.85812 8.94021C9.85812 9.03667 9.87261 9.10863 9.90158 9.15604C10.1348 9.14923 10.3347 9.14322 10.5014 9.13806C10.668 9.13288 10.8621 9.13014 11.0837 9.12987C11.3117 9.13014 11.5135 9.13288 11.6893 9.13806C11.8651 9.14322 12.0727 9.14923 12.3123 9.15604C12.3412 9.10863 12.3557 9.03667 12.3557 8.94021C12.3557 8.84374 12.3412 8.77181 12.3123 8.72439C11.996 8.71322 11.7854 8.64074 11.6806 8.50694C11.5758 8.37315 11.5275 8.04887 11.5357 7.53412V5.58521C11.5394 5.22279 11.5205 4.89143 11.4792 4.59113C11.4379 4.29084 11.3525 4.03797 11.2228 3.8325C11.1219 3.68809 10.9876 3.57799 10.8201 3.50223C10.6525 3.42648 10.4661 3.38831 10.2609 3.38776C9.98029 3.37633 9.69248 3.44174 9.39742 3.58398C9.10236 3.72622 8.77978 4.01398 8.42968 4.44725ZM17.1123 7.9396C17.0884 7.88129 17.0551 7.83767 17.0124 7.80879C16.9696 7.77991 16.9218 7.76247 16.8689 7.75648C16.6697 8.04424 16.451 8.26006 16.2127 8.40394C15.9744 8.54782 15.7295 8.61975 15.4782 8.61975C15.0433 8.6113 14.6787 8.38622 14.3844 7.94451C14.09 7.50278 13.937 6.89511 13.9251 6.12148C13.9324 5.39609 14.057 4.83257 14.2989 4.4309C14.5408 4.02925 14.8567 3.82541 15.2464 3.81941C15.5769 3.82895 15.7937 3.92433 15.8969 4.10554C16 4.28675 16.0574 4.49658 16.0693 4.73501C16.0881 4.90915 16.1356 5.03176 16.2117 5.10289C16.2877 5.17401 16.3871 5.20834 16.5097 5.20588C16.6398 5.20725 16.7649 5.16202 16.8849 5.07018C17.0049 4.97834 17.0691 4.83175 17.0776 4.63037C17.0732 4.26387 16.9167 3.96684 16.6082 3.7393C16.2996 3.51177 15.865 3.39458 15.3043 3.38776C14.7033 3.39759 14.1639 3.669 13.6861 4.202C13.2083 4.73501 12.9557 5.47076 12.9284 6.40925C12.9328 7.26626 13.1327 7.95241 13.5282 8.46771C13.9237 8.98301 14.4887 9.24732 15.2232 9.26066C15.5699 9.27266 15.8993 9.18655 16.2112 9.00234C16.5232 8.81813 16.8236 8.46389 17.1123 7.9396ZM19.8224 11.2227C19.9999 10.8595 20.1583 10.4845 20.2976 10.0978C20.7524 8.86312 21.1339 7.84141 21.4424 7.03266C21.7508 6.22391 22.053 5.46674 22.349 4.76116C22.4323 4.56279 22.5554 4.38076 22.7184 4.21507C22.8814 4.0494 23.0712 3.9524 23.2878 3.92405C23.3225 3.87664 23.3399 3.80471 23.3399 3.70824C23.3399 3.61177 23.3225 3.53982 23.2878 3.49241C23.147 3.49922 23.0142 3.50522 22.8894 3.51039C22.7645 3.51557 22.623 3.51831 22.4649 3.51857C22.2703 3.51831 22.0974 3.51557 21.9463 3.51039C21.7951 3.50522 21.6164 3.49922 21.4102 3.49241C21.3754 3.53982 21.3581 3.61177 21.3581 3.70824C21.3581 3.80471 21.3754 3.87664 21.4102 3.92405C21.605 3.93615 21.7662 3.97996 21.894 4.0555C22.0217 4.13104 22.0458 4.28344 21.9665 4.51265L20.8168 7.50795C20.7759 7.61573 20.732 7.67226 20.6848 7.67752C20.6377 7.68278 20.5894 7.6219 20.5398 7.49488L19.5118 4.77425C19.392 4.50127 19.3405 4.29842 19.3572 4.16569C19.374 4.033 19.5523 3.95245 19.892 3.92405C19.9267 3.87664 19.9441 3.80471 19.9441 3.70824C19.9441 3.61177 19.9267 3.53982 19.892 3.49241C19.6759 3.49922 19.4561 3.50522 19.2328 3.51039C19.0094 3.51557 18.7926 3.51831 18.5823 3.51857C18.1883 3.5164 17.8753 3.50767 17.6435 3.49241C17.6088 3.53982 17.5914 3.61177 17.5914 3.70824C17.5914 3.80471 17.6088 3.87664 17.6435 3.92405C17.8829 3.93575 18.0587 4.00164 18.1712 4.12172C18.2836 4.24183 18.4125 4.50292 18.558 4.90504L19.8688 8.34508C19.9269 8.48845 19.981 8.68045 20.0312 8.92109C20.0813 9.16174 20.0813 9.37957 20.031 9.57459C19.9627 9.79052 19.8919 9.99499 19.8185 10.188C19.7451 10.3811 19.6653 10.5777 19.579 10.7779C19.5172 10.9082 19.4409 11.0041 19.3501 11.0657C19.2593 11.1273 19.1425 11.1578 18.9995 11.1573C18.9225 11.1556 18.8622 11.1491 18.8185 11.1377C18.7747 11.1262 18.7231 11.1197 18.6634 11.118C18.4951 11.1308 18.3681 11.2033 18.2824 11.3355C18.1967 11.4676 18.1537 11.5826 18.1535 11.6805C18.1566 11.8208 18.2083 11.9358 18.3085 12.0254C18.4087 12.1151 18.5386 12.1614 18.6982 12.1644C18.8255 12.1775 18.9911 12.1252 19.1951 12.0075C19.3991 11.8897 19.6082 11.6281 19.8224 11.2227ZM28.0458 7.9396C28.0219 7.88129 27.9886 7.83767 27.9459 7.80879C27.9031 7.77991 27.8553 7.76247 27.8024 7.75648C27.6032 8.04424 27.3845 8.26006 27.1462 8.40394C26.9079 8.54782 26.663 8.61975 26.4117 8.61975C25.9768 8.6113 25.6122 8.38622 25.3179 7.94451C25.0235 7.50278 24.8705 6.89511 24.8586 6.12148C24.8659 5.39609 24.9905 4.83257 25.2324 4.4309C25.4743 4.02925 25.7902 3.82541 26.1799 3.81941C26.5104 3.82895 26.7272 3.92433 26.8303 4.10554C26.9334 4.28675 26.9909 4.49658 27.0027 4.73501C27.0216 4.90915 27.0691 5.03176 27.1452 5.10289C27.2212 5.17401 27.3206 5.20834 27.4432 5.20588C27.5733 5.20725 27.6984 5.16202 27.8184 5.07018C27.9384 4.97834 28.0026 4.83175 28.0111 4.63037C28.0067 4.26387 27.8502 3.96684 27.5417 3.7393C27.2331 3.51177 26.7985 3.39458 26.2378 3.38776C25.6368 3.39759 25.0974 3.669 24.6196 4.202C24.1418 4.73501 23.8892 5.47076 23.8619 6.40925C23.8663 7.26626 24.0662 7.95241 24.4617 8.46771C24.8572 8.98301 25.4222 9.24732 26.1567 9.26066C26.5034 9.27266 26.8328 9.18655 27.1447 9.00234C27.4567 8.81813 27.757 8.46389 28.0458 7.9396ZM29.4463 7.53412C29.4557 8.05622 29.405 8.38541 29.2942 8.52165C29.1833 8.65791 28.9559 8.72548 28.6118 8.72439C28.577 8.77181 28.5596 8.84374 28.5596 8.94021C28.5596 9.03667 28.577 9.10863 28.6118 9.15604C28.847 9.14923 29.0604 9.14322 29.2521 9.13806C29.4439 9.13288 29.6631 9.13014 29.9099 9.12987C30.1503 9.13014 30.3648 9.13288 30.5531 9.13806C30.7414 9.14322 30.9558 9.14923 31.1963 9.15604C31.2311 9.10863 31.2485 9.03667 31.2485 8.94021C31.2485 8.84374 31.2311 8.77181 31.1963 8.72439C30.8523 8.72548 30.6248 8.65791 30.514 8.52165C30.4031 8.38541 30.3524 8.05622 30.3619 7.53412V1.50426C30.3638 1.07509 30.3715 0.739916 30.385 0.498745C30.3986 0.257587 30.4063 0.134974 30.4082 0.130866C30.4101 0.0415031 30.3599 -0.00209404 30.2576 7.72565e-05C30.0922 0.0695719 29.8435 0.139877 29.5115 0.210981C29.1795 0.28211 28.8873 0.329525 28.635 0.353226C28.6234 0.410465 28.6234 0.479137 28.635 0.55924C28.6466 0.639368 28.6698 0.701501 28.7045 0.745634C28.9991 0.738832 29.1981 0.785145 29.3014 0.884606C29.4047 0.984067 29.453 1.29526 29.4463 1.81817V7.53412ZM31.8764 6.44849C31.8756 7.14936 32.077 7.78482 32.4805 8.35488C32.884 8.92495 33.4939 9.22688 34.3102 9.26066C35.1681 9.22034 35.7935 8.89551 36.1863 8.2862C36.5792 7.6769 36.7728 7.02508 36.7673 6.33075C36.7781 5.61299 36.597 4.95247 36.224 4.34915C35.8509 3.74585 35.2207 3.42538 34.3334 3.38776C33.5465 3.41148 32.9414 3.71396 32.5181 4.29518C32.0949 4.87644 31.881 5.59421 31.8764 6.44849ZM34.2059 3.81941C34.7072 3.82132 35.0925 4.06929 35.362 4.56333C35.6315 5.05738 35.7676 5.78604 35.7705 6.74932C35.7524 7.59134 35.6119 8.15379 35.349 8.43663C35.086 8.71949 34.8093 8.85029 34.5188 8.82904C34.1191 8.81458 33.7983 8.65747 33.5565 8.35767C33.3146 8.05789 33.1398 7.70214 33.0319 7.29044C32.924 6.87875 32.8711 6.49782 32.8731 6.14765C32.8678 5.55278 32.9682 5.02249 33.1744 4.55678C33.3806 4.09109 33.7245 3.8453 34.2059 3.81941ZM39.2696 4.74809C39.4545 4.53336 39.6522 4.35459 39.8628 4.2118C40.0734 4.06901 40.2658 3.99491 40.4402 3.98946C40.8222 3.99791 41.1448 4.21644 41.408 4.64508C41.6711 5.07373 41.8083 5.66178 41.8194 6.40925C41.8324 6.97878 41.7223 7.51395 41.4891 8.0148C41.2558 8.51565 40.8212 8.7827 40.1852 8.81594C40.0727 8.81761 39.9356 8.79795 39.7738 8.75693C39.612 8.71592 39.4749 8.64359 39.3624 8.53996C39.2489 8.43382 39.1734 8.33284 39.1359 8.237C39.0985 8.14117 39.0812 7.98099 39.0842 7.75648V5.3236C39.0827 5.19024 39.095 5.08158 39.1213 4.99759C39.1476 4.9136 39.197 4.83044 39.2696 4.74809ZM39.1769 4.31644C39.1564 4.33893 39.1326 4.34924 39.1055 4.34736C39.0784 4.34547 39.0636 4.32209 39.061 4.2772C39.063 4.03632 39.0707 3.83795 39.0842 3.68207C39.0977 3.52621 39.1055 3.44555 39.1074 3.4401C39.1069 3.4134 39.0934 3.39159 39.0668 3.37469C39.0403 3.3578 39.0036 3.34907 38.9567 3.34852C38.7995 3.41993 38.5982 3.48643 38.3526 3.54801C38.107 3.60961 37.7869 3.66955 37.3921 3.72786C37.3815 3.77255 37.3795 3.8336 37.3863 3.91098C37.3931 3.98838 37.4027 4.04941 37.4153 4.0941C37.7205 4.11317 37.9243 4.17639 38.0266 4.28375C38.129 4.39112 38.1763 4.62439 38.1686 4.98354V10.5687C38.178 11.0908 38.1273 11.4199 38.0165 11.5562C37.9057 11.6924 37.6782 11.76 37.3342 11.759C37.2994 11.8064 37.282 11.8783 37.282 11.9748C37.282 12.0712 37.2994 12.1431 37.3342 12.1906C37.5693 12.1838 37.7828 12.1778 37.9745 12.1726C38.1662 12.1674 38.3854 12.1647 38.6322 12.1644C38.8978 12.1647 39.1373 12.1674 39.3508 12.1726C39.5642 12.1778 39.7922 12.1838 40.0346 12.1906C40.0693 12.1431 40.0867 12.0712 40.0867 11.9748C40.0867 11.8783 40.0693 11.8064 40.0346 11.759C39.635 11.7543 39.3737 11.6851 39.2508 11.5513C39.1279 11.4175 39.0724 11.09 39.0842 10.5687V9.15604C39.0836 9.07412 39.0959 9.02964 39.121 9.02262C39.1462 9.01558 39.188 9.02736 39.2465 9.05794C39.3898 9.12304 39.5476 9.173 39.7198 9.20785C39.8919 9.24271 40.0703 9.26031 40.2548 9.26066C40.58 9.26204 40.8857 9.20371 41.1718 9.08573C41.4579 8.96773 41.7202 8.7819 41.9585 8.5282C42.2325 8.22818 42.4436 7.87337 42.5916 7.4638C42.7396 7.05424 42.8144 6.585 42.8161 6.05608C42.8045 5.33832 42.6104 4.7203 42.2337 4.202C41.8571 3.68371 41.3674 3.4123 40.7647 3.38776C40.5436 3.38886 40.2905 3.46844 40.0056 3.62649C39.7207 3.78455 39.4445 4.01453 39.1769 4.31644ZM44.6999 5.44133C44.8334 4.7282 45.0445 4.27749 45.333 4.08919C45.6215 3.90089 45.8471 3.81969 46.0096 3.84558C46.2423 3.83413 46.4577 3.9257 46.6557 4.12027C46.8537 4.31483 46.959 4.68105 46.9715 5.21895C46.9722 5.27793 46.9592 5.32285 46.9324 5.35369C46.9056 5.38455 46.8607 5.40066 46.7977 5.40207L44.6999 5.44133ZM47.7364 7.91343C47.531 8.16032 47.3219 8.34016 47.1091 8.45298C46.8964 8.56579 46.6265 8.62139 46.2993 8.61975C46.0866 8.62221 45.8688 8.54864 45.6459 8.39903C45.4231 8.24943 45.2198 8.00908 45.036 7.678C44.9192 7.4619 44.8284 7.20411 44.7637 6.90464C44.6989 6.60516 44.6661 6.26564 44.6651 5.88605L47.748 5.91222C47.818 5.91194 47.8721 5.89286 47.9103 5.85498C47.9484 5.8171 47.9677 5.76205 47.9682 5.68984C47.9873 5.11433 47.8622 4.59767 47.593 4.13987C47.3238 3.68208 46.796 3.4401 46.0096 3.41393C45.4718 3.41775 44.9595 3.68154 44.4725 4.20527C43.9855 4.72903 43.7252 5.48984 43.6916 6.48773C43.6904 6.85779 43.7334 7.20984 43.8205 7.54392C43.9077 7.87801 44.0463 8.17123 44.2363 8.42356C44.4304 8.68734 44.6709 8.89226 44.9578 9.03832C45.2446 9.18438 45.5952 9.25849 46.0096 9.26066C46.448 9.25576 46.8286 9.15113 47.1512 8.94675C47.4737 8.74238 47.75 8.4677 47.9798 8.12272C47.9632 8.05759 47.9356 8.00799 47.8972 7.97393C47.8589 7.93987 47.8053 7.9197 47.7364 7.91343ZM52.4451 7.50795C52.4475 7.62796 52.437 7.72411 52.4136 7.79638C52.3902 7.86864 52.3388 7.94254 52.2596 8.01808C52.0447 8.22736 51.8458 8.3843 51.6627 8.48894C51.4797 8.59358 51.3155 8.64592 51.1702 8.64592C50.8432 8.64783 50.5525 8.45106 50.298 8.05568C50.0435 7.66028 49.9093 7.0548 49.8953 6.2392C49.8984 5.77187 49.9327 5.39855 49.9981 5.11924C50.0636 4.83993 50.1413 4.63337 50.2314 4.49956C50.419 4.20336 50.6146 4.01752 50.8181 3.94204C51.0217 3.86655 51.1854 3.83441 51.3093 3.84558C51.5164 3.8464 51.6961 3.88728 51.8482 3.9682C52.0003 4.04913 52.1336 4.16521 52.248 4.31644C52.3272 4.4121 52.3803 4.50531 52.4074 4.59604C52.4344 4.68679 52.447 4.82904 52.4451 5.02278V7.50795ZM52.3176 8.47196C52.3477 8.44463 52.3778 8.42963 52.408 8.42699C52.4381 8.42435 52.4543 8.44499 52.4566 8.48894C52.4619 8.65843 52.4832 8.82632 52.5204 8.99254C52.5576 9.15876 52.5788 9.24813 52.5841 9.26066C52.6281 9.27947 52.6648 9.28765 52.6942 9.28519C52.7237 9.28275 52.7604 9.27457 52.8043 9.26066C52.9301 9.14158 53.1074 9.0364 53.336 8.94512C53.5647 8.85383 53.8549 8.78461 54.2067 8.73747C54.2415 8.69332 54.2589 8.63447 54.2589 8.56089C54.2589 8.48732 54.2415 8.42846 54.2067 8.38432C53.8469 8.35599 53.6132 8.26877 53.5055 8.12272C53.3978 7.97665 53.3495 7.74558 53.3606 7.42948V1.50426C53.3626 1.07509 53.3703 0.739916 53.3838 0.498745C53.3973 0.257587 53.4051 0.134974 53.407 0.130866C53.4089 0.0415031 53.3587 -0.00209404 53.2563 7.72565e-05C53.0909 0.0695719 52.8422 0.139877 52.5102 0.210981C52.1782 0.28211 51.8861 0.329525 51.6338 0.353226C51.6222 0.410465 51.6222 0.479137 51.6338 0.55924C51.6453 0.639368 51.6685 0.701501 51.7033 0.745634C51.9979 0.738832 52.1968 0.785145 52.3002 0.884606C52.4035 0.984067 52.4518 1.29526 52.4451 1.81817V3.49241C52.4458 3.53738 52.4385 3.56845 52.4233 3.58561C52.4081 3.60279 52.3806 3.61095 52.3407 3.61012C52.3067 3.60086 52.198 3.56382 52.0148 3.49895C51.8315 3.4341 51.6388 3.39704 51.4367 3.38776C51.0586 3.38941 50.7312 3.45808 50.4545 3.59378C50.1778 3.72948 49.9257 3.92241 49.6983 4.17256C49.4469 4.45406 49.2513 4.78706 49.1115 5.17155C48.9717 5.55605 48.9007 5.99041 48.8986 6.47463C48.9024 7.29459 49.0743 7.96002 49.4143 8.47096C49.7543 8.98189 50.2391 9.24514 50.8688 9.26066C51.0915 9.26076 51.3184 9.19518 51.5497 9.06397C51.781 8.93276 52.037 8.73544 52.3176 8.47196ZM55.3525 1.29498C55.3583 1.47211 55.4163 1.62798 55.5264 1.76259C55.6365 1.89721 55.764 1.96806 55.9088 1.97515C56.0759 1.96624 56.2169 1.89608 56.3319 1.7647C56.4468 1.63334 56.5067 1.49422 56.5115 1.34731C56.5079 1.18164 56.4543 1.02904 56.3507 0.889516C56.2471 0.750003 56.1153 0.675861 55.9552 0.667136C55.8084 0.673689 55.6732 0.739089 55.5496 0.86335C55.4259 0.987611 55.3603 1.13149 55.3525 1.29498ZM56.4072 7.53412V4.9273C56.4091 4.58092 56.4169 4.25178 56.4304 3.9399C56.4439 3.62803 56.4516 3.46144 56.4536 3.4401C56.4531 3.4134 56.4396 3.39159 56.413 3.37469C56.3864 3.3578 56.3497 3.34907 56.3029 3.34852C56.1422 3.41993 55.9363 3.48643 55.685 3.54801C55.4338 3.60961 55.1105 3.66955 54.7151 3.72786C54.7045 3.77255 54.7025 3.8336 54.7093 3.91098C54.7161 3.98838 54.7257 4.04941 54.7383 4.0941C55.046 4.11375 55.2505 4.17713 55.3518 4.28425C55.4531 4.39137 55.4997 4.62446 55.4916 4.98354V7.53412C55.501 8.05459 55.4503 8.3805 55.3395 8.51183C55.2287 8.64319 55.0012 8.71404 54.6571 8.72439C54.6224 8.77181 54.605 8.84374 54.605 8.94021C54.605 9.03667 54.6224 9.10863 54.6571 9.15604C54.8923 9.14923 55.1058 9.14322 55.2975 9.13806C55.4892 9.13288 55.7084 9.13014 55.9552 9.12987C56.1957 9.13014 56.4101 9.13288 56.5984 9.13806C56.7868 9.14322 57.0012 9.14923 57.2417 9.15604C57.2764 9.10863 57.2938 9.03667 57.2938 8.94021C57.2938 8.84374 57.2764 8.77181 57.2417 8.72439C56.8976 8.71976 56.6701 8.65054 56.5593 8.51674C56.4485 8.38295 56.3978 8.05541 56.4072 7.53412ZM59.8666 11.2227C60.0441 10.8595 60.2025 10.4845 60.3418 10.0978C60.7966 8.86312 61.1782 7.84141 61.4866 7.03266C61.795 6.22391 62.0972 5.46674 62.3932 4.76116C62.4765 4.56279 62.5996 4.38076 62.7626 4.21507C62.9256 4.0494 63.1154 3.9524 63.332 3.92405C63.3667 3.87664 63.3841 3.80471 63.3841 3.70824C63.3841 3.61177 63.3667 3.53982 63.332 3.49241C63.1912 3.49922 63.0584 3.50522 62.9336 3.51039C62.8087 3.51557 62.6673 3.51831 62.5091 3.51857C62.3145 3.51831 62.1416 3.51557 61.9905 3.51039C61.8393 3.50522 61.6606 3.49922 61.4544 3.49241C61.4197 3.53982 61.4023 3.61177 61.4023 3.70824C61.4023 3.80471 61.4197 3.87664 61.4544 3.92405C61.6492 3.93615 61.8104 3.97996 61.9382 4.0555C62.0659 4.13104 62.0901 4.28344 62.0107 4.51265L60.861 7.50795C60.8202 7.61573 60.7762 7.67226 60.7291 7.67752C60.6819 7.68278 60.6336 7.6219 60.584 7.49488L59.556 4.77425C59.4362 4.50127 59.3847 4.29842 59.4014 4.16569C59.4182 4.033 59.5965 3.95245 59.9362 3.92405C59.9709 3.87664 59.9883 3.80471 59.9883 3.70824C59.9883 3.61177 59.9709 3.53982 59.9362 3.49241C59.7201 3.49922 59.5003 3.50522 59.277 3.51039C59.0536 3.51557 58.8368 3.51831 58.6265 3.51857C58.2325 3.5164 57.9195 3.50767 57.6877 3.49241C57.653 3.53982 57.6356 3.61177 57.6356 3.70824C57.6356 3.80471 57.653 3.87664 57.6877 3.92405C57.9271 3.93575 58.1029 4.00164 58.2154 4.12172C58.3278 4.24183 58.4567 4.50292 58.6022 4.90504L59.913 8.34508C59.9711 8.48845 60.0252 8.68045 60.0754 8.92109C60.1255 9.16174 60.1255 9.37957 60.0752 9.57459C60.0069 9.79052 59.9361 9.99499 59.8627 10.188C59.7893 10.3811 59.7095 10.5777 59.6232 10.7779C59.5614 10.9082 59.4851 11.0041 59.3943 11.0657C59.3036 11.1273 59.1867 11.1578 59.0437 11.1573C58.9667 11.1556 58.9064 11.1491 58.8627 11.1377C58.819 11.1262 58.7673 11.1197 58.7076 11.118C58.5394 11.1308 58.4123 11.2033 58.3266 11.3355C58.2409 11.4676 58.1979 11.5826 58.1977 11.6805C58.2008 11.8208 58.2525 11.9358 58.3527 12.0254C58.4529 12.1151 58.5828 12.1614 58.7424 12.1644C58.8697 12.1775 59.0353 12.1252 59.2393 12.0075C59.4434 11.8897 59.6525 11.6281 59.8666 11.2227ZM66.8731 6.08224V7.82188C66.8721 7.90554 66.8567 7.97366 66.8267 8.02626C66.7968 8.07884 66.7582 8.12408 66.7108 8.16196C66.5568 8.30557 66.3897 8.43364 66.2096 8.54618C66.0295 8.65872 65.8566 8.71813 65.6909 8.72439C65.4026 8.71104 65.1911 8.60694 65.0564 8.4121C64.9217 8.21727 64.855 8.01181 64.8565 7.79572C64.8489 7.49427 64.9255 7.21295 65.0862 6.95174C65.247 6.69052 65.5374 6.49224 65.9575 6.35692L66.8731 6.08224ZM66.8731 8.50203C66.902 8.65382 66.9821 8.81459 67.1133 8.98436C67.2445 9.15412 67.4619 9.24622 67.7655 9.26066C68.055 9.24023 68.2902 9.15031 68.471 8.9909C68.6519 8.83148 68.7451 8.72521 68.7507 8.67208C68.7473 8.62276 68.7279 8.57425 68.6927 8.52656C68.6574 8.47887 68.6265 8.45325 68.6 8.4497C68.5708 8.45843 68.533 8.49331 68.4864 8.55435C68.4398 8.61539 68.3579 8.65027 68.2407 8.65899C68.0236 8.65027 67.8899 8.54018 67.8394 8.32871C67.7889 8.11726 67.7682 7.85676 67.7771 7.54719V5.59829C67.7571 4.6936 67.5711 4.093 67.2193 3.79652C66.8675 3.50004 66.4701 3.36379 66.0271 3.38776C65.5316 3.40413 65.0941 3.55782 64.7145 3.84885C64.3349 4.13988 64.135 4.47016 64.1147 4.83966C64.115 4.99607 64.1493 5.11161 64.2176 5.18626C64.2859 5.26093 64.3868 5.298 64.5204 5.29745C64.6887 5.2901 64.8157 5.2394 64.9014 5.14538C64.9871 5.05138 65.0301 4.95818 65.0303 4.8658C65.0303 4.81921 65.0274 4.77508 65.0216 4.73338C65.0158 4.69169 65.0071 4.65736 64.9956 4.63037C64.9895 4.6113 64.9842 4.58077 64.9796 4.5388C64.975 4.49684 64.9726 4.44018 64.9724 4.36877C64.9849 4.16849 65.0902 4.02623 65.2882 3.94204C65.4862 3.85784 65.7016 3.81696 65.9343 3.81941C66.1458 3.79788 66.3516 3.89654 66.5515 4.11536C66.7514 4.33417 66.8586 4.80233 66.8731 5.51981C66.8724 5.56559 66.8651 5.60155 66.8514 5.62771C66.8376 5.65387 66.8217 5.67022 66.8036 5.67676L65.8068 5.95146C65.2404 6.11222 64.7826 6.35638 64.4335 6.68392C64.0843 7.01146 63.9047 7.3995 63.8945 7.84803C63.9047 8.35896 64.0466 8.72356 64.3205 8.94184C64.5943 9.16011 64.9391 9.26639 65.3548 9.26066C65.6088 9.26557 65.8223 9.2296 65.9952 9.15277C66.1681 9.07592 66.3757 8.92878 66.6181 8.71132L66.8499 8.50203H66.8731ZM74.0824 11.2227C74.2599 10.8595 74.4183 10.4845 74.5576 10.0978C75.0124 8.86312 75.394 7.84141 75.7024 7.03266C76.0108 6.22391 76.313 5.46674 76.609 4.76116C76.6923 4.56279 76.8154 4.38076 76.9784 4.21507C77.1414 4.0494 77.3312 3.9524 77.5478 3.92405C77.5825 3.87664 77.5999 3.80471 77.5999 3.70824C77.5999 3.61177 77.5825 3.53982 77.5478 3.49241C77.407 3.49922 77.2742 3.50522 77.1494 3.51039C77.0245 3.51557 76.8831 3.51831 76.7249 3.51857C76.5303 3.51831 76.3574 3.51557 76.2063 3.51039C76.0551 3.50522 75.8764 3.49922 75.6702 3.49241C75.6355 3.53982 75.6181 3.61177 75.6181 3.70824C75.6181 3.80471 75.6355 3.87664 75.6702 3.92405C75.865 3.93615 76.0263 3.97996 76.154 4.0555C76.2817 4.13104 76.3059 4.28344 76.2265 4.51265L75.0768 7.50795C75.036 7.61573 74.992 7.67226 74.9449 7.67752C74.8977 7.68278 74.8494 7.6219 74.7998 7.49488L73.7718 4.77425C73.652 4.50127 73.6005 4.29842 73.6172 4.16569C73.634 4.033 73.8123 3.95245 74.152 3.92405C74.1867 3.87664 74.2041 3.80471 74.2041 3.70824C74.2041 3.61177 74.1867 3.53982 74.152 3.49241C73.9359 3.49922 73.7161 3.50522 73.4928 3.51039C73.2695 3.51557 73.0526 3.51831 72.8423 3.51857C72.4483 3.5164 72.1353 3.50767 71.9035 3.49241C71.8688 3.53982 71.8514 3.61177 71.8514 3.70824C71.8514 3.80471 71.8688 3.87664 71.9035 3.92405C72.1429 3.93575 72.3188 4.00164 72.4312 4.12172C72.5436 4.24183 72.6725 4.50292 72.818 4.90504L74.1288 8.34508C74.1869 8.48845 74.241 8.68045 74.2912 8.92109C74.3413 9.16174 74.3413 9.37957 74.2911 9.57459C74.2227 9.79052 74.1519 9.99499 74.0785 10.188C74.0051 10.3811 73.9253 10.5777 73.839 10.7779C73.7772 10.9082 73.7009 11.0041 73.6101 11.0657C73.5194 11.1273 73.4025 11.1578 73.2596 11.1573C73.1825 11.1556 73.1222 11.1491 73.0785 11.1377C73.0348 11.1262 72.9831 11.1197 72.9235 11.118C72.7552 11.1308 72.6281 11.2033 72.5424 11.3355C72.4567 11.4676 72.4137 11.5826 72.4135 11.6805C72.4166 11.8208 72.4683 11.9358 72.5685 12.0254C72.6687 12.1151 72.7986 12.1614 72.9582 12.1644C73.0855 12.1775 73.2511 12.1252 73.4551 12.0075C73.6592 11.8897 73.8683 11.6281 74.0824 11.2227ZM81.0889 6.08224V7.82188C81.0879 7.90554 81.0725 7.97366 81.0426 8.02626C81.0126 8.07884 80.974 8.12408 80.9267 8.16196C80.7726 8.30557 80.6055 8.43364 80.4254 8.54618C80.2453 8.65872 80.0724 8.71813 79.9067 8.72439C79.6185 8.71104 79.4069 8.60694 79.2722 8.4121C79.1375 8.21727 79.0708 8.01181 79.0723 7.79572C79.0647 7.49427 79.1413 7.21295 79.3021 6.95174C79.4628 6.69052 79.7532 6.49224 80.1733 6.35692L81.0889 6.08224ZM81.0889 8.50203C81.1178 8.65382 81.1979 8.81459 81.3291 8.98436C81.4603 9.15412 81.6777 9.24622 81.9813 9.26066C82.2708 9.24023 82.506 9.15031 82.6869 8.9909C82.8677 8.83148 82.9609 8.72521 82.9665 8.67208C82.9631 8.62276 82.9438 8.57425 82.9085 8.52656C82.8733 8.47887 82.8424 8.45325 82.8158 8.4497C82.7866 8.45843 82.7488 8.49331 82.7022 8.55435C82.6557 8.61539 82.5738 8.65027 82.4565 8.65899C82.2394 8.65027 82.1057 8.54018 82.0552 8.32871C82.0047 8.11726 81.984 7.85676 81.9929 7.54719V5.59829C81.9729 4.6936 81.787 4.093 81.4352 3.79652C81.0834 3.50004 80.6859 3.36379 80.2429 3.38776C79.7474 3.40413 79.3099 3.55782 78.9303 3.84885C78.5507 4.13988 78.3508 4.47016 78.3305 4.83966C78.3308 4.99607 78.3651 5.11161 78.4334 5.18626C78.5017 5.26093 78.6027 5.298 78.7362 5.29745C78.9045 5.2901 79.0315 5.2394 79.1172 5.14538C79.2029 5.05138 79.2459 4.95818 79.2461 4.8658C79.2461 4.81921 79.2432 4.77508 79.2374 4.73338C79.2316 4.69169 79.223 4.65736 79.2114 4.63037C79.2053 4.6113 79.2 4.58077 79.1954 4.5388C79.1908 4.49684 79.1884 4.44018 79.1882 4.36877C79.2007 4.16849 79.306 4.02623 79.504 3.94204C79.702 3.85784 79.9174 3.81696 80.1501 3.81941C80.3616 3.79788 80.5674 3.89654 80.7673 4.11536C80.9672 4.33417 81.0744 4.80233 81.0889 5.51981C81.0882 5.56559 81.0809 5.60155 81.0672 5.62771C81.0534 5.65387 81.0375 5.67022 81.0194 5.67676L80.0226 5.95146C79.4562 6.11222 78.9984 6.35638 78.6493 6.68392C78.3001 7.01146 78.1205 7.3995 78.1103 7.84803C78.1205 8.35896 78.2624 8.72356 78.5363 8.94184C78.8101 9.16011 79.1549 9.26639 79.5706 9.26066C79.8247 9.26557 80.0381 9.2296 80.211 9.15277C80.3839 9.07592 80.5915 8.92878 80.8339 8.71132L81.0657 8.50203H81.0889ZM88.0896 4.83966C88.3173 4.58605 88.5269 4.39414 88.7185 4.26397C88.9101 4.1338 89.0945 4.06846 89.2718 4.06794C89.4963 4.06276 89.6789 4.15159 89.8194 4.33442C89.9599 4.51728 90.0324 4.82522 90.0367 5.25821V7.53412C90.0459 8.04968 90.0043 8.37559 89.9121 8.51183C89.8199 8.64809 89.6219 8.71894 89.3181 8.72439C89.2892 8.77181 89.2747 8.84374 89.2747 8.94021C89.2747 9.03667 89.2892 9.10863 89.3181 9.15604C89.5514 9.14923 89.7513 9.14322 89.9179 9.13806C90.0845 9.13288 90.2786 9.13014 90.5003 9.12987C90.7244 9.13014 90.9108 9.13288 91.0595 9.13806C91.2082 9.14322 91.4004 9.14923 91.6361 9.15604C91.6651 9.10863 91.6796 9.03667 91.6796 8.94021C91.6796 8.84374 91.6651 8.77181 91.6361 8.72439C91.3541 8.71894 91.1677 8.64809 91.0769 8.51183C90.9861 8.37559 90.9446 8.04968 90.9523 7.53412V5.4544C90.9525 5.36231 90.9521 5.27183 90.9509 5.18299C90.9496 5.09416 90.9463 5.01024 90.9407 4.93121C91.2167 4.59195 91.4731 4.36141 91.71 4.2396C91.9469 4.1178 92.1772 4.06057 92.401 4.06794C92.6237 4.06167 92.7985 4.14614 92.9255 4.32135C93.0525 4.49657 93.1172 4.80014 93.1196 5.23205V7.53412C93.1273 8.04968 93.0829 8.37559 92.9863 8.51183C92.8897 8.64809 92.6946 8.71894 92.401 8.72439C92.3721 8.77181 92.3576 8.84374 92.3576 8.94021C92.3576 9.03667 92.3721 9.10863 92.401 9.15604C92.6343 9.14923 92.8342 9.14322 93.0008 9.13806C93.1674 9.13288 93.3615 9.13014 93.5832 9.12987C93.8097 9.13014 94.0057 9.13288 94.1714 9.13806C94.337 9.14322 94.5389 9.14923 94.7769 9.15604C94.8059 9.10863 94.8204 9.03667 94.8204 8.94021C94.8204 8.84374 94.8059 8.77181 94.7769 8.72439C94.4672 8.71894 94.2638 8.64809 94.167 8.51183C94.0702 8.37559 94.0263 8.04968 94.0352 7.53412V5.46748C94.0482 4.87153 93.9729 4.3794 93.8092 3.99109C93.6455 3.60278 93.3152 3.40167 92.8183 3.38776C92.5196 3.38303 92.2138 3.45399 91.9008 3.60064C91.5878 3.74731 91.2794 3.99812 90.9755 4.35306C90.9564 4.37819 90.9337 4.39662 90.9074 4.40833C90.8811 4.42005 90.8613 4.39989 90.848 4.34784C90.7892 4.07322 90.6576 3.84618 90.4532 3.66671C90.2488 3.48725 89.9941 3.39425 89.689 3.38776C89.3563 3.39432 89.054 3.49569 88.7821 3.69187C88.5102 3.88808 88.2485 4.13988 87.9969 4.44725C87.9744 4.47931 87.9504 4.50806 87.9249 4.53357C87.8994 4.55908 87.8855 4.53031 87.8833 4.44725C87.8856 4.23416 87.8949 4.01943 87.9111 3.80306C87.9274 3.58671 87.9366 3.47007 87.939 3.45317C87.939 3.3856 87.8926 3.35071 87.7999 3.34852C87.6387 3.41993 87.4308 3.48643 87.1762 3.54801C86.9216 3.60961 86.5963 3.66955 86.2005 3.72786C86.1899 3.77255 86.1879 3.8336 86.1947 3.91098C86.2015 3.98838 86.2111 4.04941 86.2237 4.0941C86.5314 4.11292 86.7359 4.17467 86.8372 4.27934C86.9385 4.384 86.9851 4.61875 86.977 4.98354V7.53412C86.984 8.04968 86.9323 8.37559 86.822 8.51183C86.7116 8.64809 86.5006 8.71894 86.1889 8.72439C86.1541 8.77181 86.1367 8.84374 86.1367 8.94021C86.1367 9.03667 86.1541 9.10863 86.1889 9.15604C86.4178 9.14923 86.6235 9.14322 86.8061 9.13806C86.9886 9.13288 87.2001 9.13014 87.4406 9.12987C87.6556 9.13014 87.8419 9.13288 87.9997 9.13806C88.1574 9.14322 88.3527 9.14923 88.5857 9.15604C88.6204 9.10863 88.6378 9.03667 88.6378 8.94021C88.6378 8.84374 88.6204 8.77181 88.5857 8.72439C88.2992 8.71322 88.1101 8.64074 88.0183 8.50694C87.9266 8.37315 87.8847 8.04887 87.8926 7.53412V5.389C87.895 5.25306 87.9163 5.1414 87.9563 5.05399C87.9964 4.96661 88.0409 4.89517 88.0896 4.83966ZM98.3154 6.08224V7.82188C98.3144 7.90554 98.299 7.97366 98.269 8.02626C98.2391 8.07884 98.2005 8.12408 98.1531 8.16196C97.9991 8.30557 97.832 8.43364 97.6519 8.54618C97.4718 8.65872 97.2989 8.71813 97.1332 8.72439C96.8449 8.71104 96.6334 8.60694 96.4987 8.4121C96.364 8.21727 96.2973 8.01181 96.2988 7.79572C96.2912 7.49427 96.3678 7.21295 96.5285 6.95174C96.6893 6.69052 96.9797 6.49224 97.3998 6.35692L98.3154 6.08224ZM98.3154 8.50203C98.3443 8.65382 98.4244 8.81459 98.5556 8.98436C98.6868 9.15412 98.9042 9.24622 99.2078 9.26066C99.4973 9.24023 99.7325 9.15031 99.9133 8.9909C100.094 8.83148 100.187 8.72521 100.193 8.67208C100.19 8.62276 100.17 8.57425 100.135 8.52656C100.1 8.47887 100.069 8.45325 100.042 8.4497C100.013 8.45843 99.9752 8.49331 99.9287 8.55435C99.8821 8.61539 99.8002 8.65027 99.683 8.65899C99.4659 8.65027 99.3321 8.54018 99.2817 8.32871C99.2312 8.11726 99.2105 7.85676 99.2194 7.54719V5.59829C99.1993 4.6936 99.0134 4.093 98.6616 3.79652C98.3098 3.50004 97.9124 3.36379 97.4693 3.38776C96.9739 3.40413 96.5364 3.55782 96.1568 3.84885C95.7772 4.13988 95.5773 4.47016 95.557 4.83966C95.5573 4.99607 95.5916 5.11161 95.6599 5.18626C95.7282 5.26093 95.8291 5.298 95.9627 5.29745C96.131 5.2901 96.258 5.2394 96.3437 5.14538C96.4294 5.05138 96.4724 4.95818 96.4726 4.8658C96.4726 4.81921 96.4697 4.77508 96.4639 4.73338C96.4581 4.69169 96.4494 4.65736 96.4378 4.63037C96.4318 4.6113 96.4265 4.58077 96.4219 4.5388C96.4173 4.49684 96.4149 4.44018 96.4147 4.36877C96.4272 4.16849 96.5325 4.02623 96.7305 3.94204C96.9285 3.85784 97.1439 3.81696 97.3766 3.81941C97.5881 3.79788 97.7938 3.89654 97.9938 4.11536C98.1937 4.33417 98.3009 4.80233 98.3154 5.51981C98.3147 5.56559 98.3074 5.60155 98.2937 5.62771C98.2799 5.65387 98.264 5.67022 98.2459 5.67676L97.2491 5.95146C96.6827 6.11222 96.2249 6.35638 95.8757 6.68392C95.5266 7.01146 95.3469 7.3995 95.3368 7.84803C95.3469 8.35896 95.4889 8.72356 95.7627 8.94184C96.0365 9.16011 96.3813 9.26639 96.7971 9.26066C97.0511 9.26557 97.2646 9.2296 97.4375 9.15277C97.6103 9.07592 97.818 8.92878 98.0604 8.71132L98.2922 8.50203H98.3154ZM102.152 5.39032C102.154 5.25375 102.176 5.14169 102.216 5.05417C102.256 4.96664 102.3 4.89514 102.349 4.83966C102.572 4.59405 102.806 4.40445 103.05 4.27084C103.294 4.13723 103.532 4.0696 103.763 4.06794C103.884 4.06884 103.999 4.10987 104.108 4.19104C104.218 4.27223 104.308 4.38814 104.377 4.5388C104.434 4.66955 104.471 4.82074 104.49 4.99236C104.509 5.16399 104.518 5.34851 104.516 5.54596V7.53412C104.524 8.04887 104.48 8.37315 104.383 8.50694C104.287 8.64074 104.091 8.71322 103.798 8.72439C103.769 8.77181 103.754 8.84374 103.754 8.94021C103.754 9.03667 103.769 9.10863 103.798 9.15604C104.031 9.14923 104.231 9.14322 104.398 9.13806C104.564 9.13288 104.758 9.13014 104.98 9.12987C105.208 9.13014 105.41 9.13288 105.586 9.13806C105.761 9.14322 105.969 9.14923 106.208 9.15604C106.237 9.10863 106.252 9.03667 106.252 8.94021C106.252 8.84374 106.237 8.77181 106.208 8.72439C105.892 8.71322 105.682 8.64074 105.577 8.50694C105.472 8.37315 105.424 8.04887 105.432 7.53412V5.58521C105.436 5.22238 105.417 4.8902 105.377 4.58868C105.336 4.28715 105.25 4.03511 105.119 3.8325C105.019 3.68809 104.885 3.57799 104.717 3.50223C104.549 3.42648 104.362 3.38831 104.157 3.38776C103.873 3.37633 103.574 3.44174 103.258 3.58398C102.943 3.72622 102.609 4.01398 102.256 4.44725C102.234 4.47987 102.211 4.50881 102.185 4.53407C102.159 4.55933 102.145 4.5304 102.143 4.44725L102.152 1.50426C102.155 1.07509 102.163 0.739916 102.176 0.498745C102.189 0.257587 102.197 0.134974 102.198 0.130866C102.2 0.0415031 102.15 -0.00209404 102.048 7.72565e-05C101.882 0.0695719 101.634 0.139877 101.302 0.210981C100.97 0.28211 100.677 0.329525 100.425 0.353226C100.414 0.410465 100.414 0.479137 100.425 0.55924C100.437 0.639368 100.46 0.701501 100.495 0.745634C100.789 0.738832 100.988 0.785145 101.092 0.884606C101.195 0.984067 101.243 1.29526 101.236 1.81817V7.53412C101.245 8.05541 101.194 8.38295 101.084 8.51674C100.974 8.65054 100.755 8.71976 100.427 8.72439C100.393 8.77181 100.375 8.84374 100.375 8.94021C100.375 9.03667 100.393 9.10863 100.427 9.15604C100.658 9.14923 100.868 9.14322 101.056 9.13806C101.244 9.13288 101.459 9.13014 101.7 9.12987C101.915 9.13014 102.101 9.13288 102.259 9.13806C102.417 9.14322 102.612 9.14923 102.845 9.15604C102.88 9.10863 102.897 9.03667 102.897 8.94021C102.897 8.84374 102.88 8.77181 102.845 8.72439C102.559 8.71976 102.37 8.65054 102.278 8.51674C102.186 8.38295 102.144 8.05541 102.152 7.53412V5.39032ZM109.77 6.08224V7.82188C109.769 7.90554 109.753 7.97366 109.723 8.02626C109.693 8.07884 109.655 8.12408 109.607 8.16196C109.453 8.30557 109.286 8.43364 109.106 8.54618C108.926 8.65872 108.753 8.71813 108.587 8.72439C108.299 8.71104 108.088 8.60694 107.953 8.4121C107.818 8.21727 107.751 8.01181 107.753 7.79572C107.745 7.49427 107.822 7.21295 107.983 6.95174C108.143 6.69052 108.434 6.49224 108.854 6.35692L109.77 6.08224ZM109.77 8.50203C109.798 8.65382 109.879 8.81459 110.01 8.98436C110.141 9.15412 110.358 9.24622 110.662 9.26066C110.951 9.24023 111.187 9.15031 111.367 8.9909C111.548 8.83148 111.642 8.72521 111.647 8.67208C111.644 8.62276 111.624 8.57425 111.589 8.52656C111.554 8.47887 111.523 8.45325 111.496 8.4497C111.467 8.45843 111.429 8.49331 111.383 8.55435C111.336 8.61539 111.254 8.65027 111.137 8.65899C110.92 8.65027 110.786 8.54018 110.736 8.32871C110.685 8.11726 110.665 7.85676 110.674 7.54719V5.59829C110.653 4.6936 110.468 4.093 110.116 3.79652C109.764 3.50004 109.367 3.36379 108.923 3.38776C108.428 3.40413 107.99 3.55782 107.611 3.84885C107.231 4.13988 107.031 4.47016 107.011 4.83966C107.011 4.99607 107.046 5.11161 107.114 5.18626C107.182 5.26093 107.283 5.298 107.417 5.29745C107.585 5.2901 107.712 5.2394 107.798 5.14538C107.884 5.05138 107.927 4.95818 107.927 4.8658C107.927 4.81921 107.924 4.77508 107.918 4.73338C107.912 4.69169 107.904 4.65736 107.892 4.63037C107.886 4.6113 107.881 4.58077 107.876 4.5388C107.871 4.49684 107.869 4.44018 107.869 4.36877C107.881 4.16849 107.987 4.02623 108.185 3.94204C108.383 3.85784 108.598 3.81696 108.831 3.81941C109.042 3.79788 109.248 3.89654 109.448 4.11536C109.648 4.33417 109.755 4.80233 109.77 5.51981C109.769 5.56559 109.762 5.60155 109.748 5.62771C109.734 5.65387 109.718 5.67022 109.7 5.67676L108.703 5.95146C108.137 6.11222 107.679 6.35638 107.33 6.68392C106.981 7.01146 106.801 7.3995 106.791 7.84803C106.801 8.35896 106.943 8.72356 107.217 8.94184C107.491 9.16011 107.835 9.26639 108.251 9.26066C108.505 9.26557 108.719 9.2296 108.892 9.15277C109.064 9.07592 109.272 8.92878 109.515 8.71132L109.746 8.50203H109.77ZM112.772 7.53412C112.781 8.05622 112.73 8.38541 112.62 8.52165C112.509 8.65791 112.281 8.72548 111.937 8.72439C111.902 8.77181 111.885 8.84374 111.885 8.94021C111.885 9.03667 111.902 9.10863 111.937 9.15604C112.172 9.14923 112.386 9.14322 112.578 9.13806C112.769 9.13288 112.989 9.13014 113.235 9.12987C113.476 9.13014 113.69 9.13288 113.879 9.13806C114.067 9.14322 114.281 9.14923 114.522 9.15604C114.557 9.10863 114.574 9.03667 114.574 8.94021C114.574 8.84374 114.557 8.77181 114.522 8.72439C114.178 8.72548 113.95 8.65791 113.839 8.52165C113.729 8.38541 113.678 8.05622 113.687 7.53412V1.50426C113.689 1.07509 113.697 0.739916 113.71 0.498745C113.724 0.257587 113.732 0.134974 113.734 0.130866C113.736 0.0415031 113.685 -0.00209404 113.583 7.72565e-05C113.418 0.0695719 113.169 0.139877 112.837 0.210981C112.505 0.28211 112.213 0.329525 111.96 0.353226C111.949 0.410465 111.949 0.479137 111.96 0.55924C111.972 0.639368 111.995 0.701501 112.03 0.745634C112.325 0.738832 112.524 0.785145 112.627 0.884606C112.73 0.984067 112.778 1.29526 112.772 1.81817V7.53412ZM118.122 6.08224V7.82188C118.121 7.90554 118.106 7.97366 118.076 8.02626C118.046 8.07884 118.008 8.12408 117.96 8.16196C117.806 8.30557 117.639 8.43364 117.459 8.54618C117.279 8.65872 117.106 8.71813 116.94 8.72439C116.652 8.71104 116.44 8.60694 116.306 8.4121C116.171 8.21727 116.104 8.01181 116.106 7.79572C116.098 7.49427 116.175 7.21295 116.336 6.95174C116.496 6.69052 116.787 6.49224 117.207 6.35692L118.122 6.08224ZM118.122 8.50203C118.151 8.65382 118.231 8.81459 118.363 8.98436C118.494 9.15412 118.711 9.24622 119.015 9.26066C119.304 9.24023 119.54 9.15031 119.72 8.9909C119.901 8.83148 119.994 8.72521 120 8.67208C119.997 8.62276 119.977 8.57425 119.942 8.52656C119.907 8.47887 119.876 8.45325 119.849 8.4497C119.82 8.45843 119.782 8.49331 119.736 8.55435C119.689 8.61539 119.607 8.65027 119.49 8.65899C119.273 8.65027 119.139 8.54018 119.089 8.32871C119.038 8.11726 119.018 7.85676 119.026 7.54719V5.59829C119.006 4.6936 118.82 4.093 118.469 3.79652C118.117 3.50004 117.719 3.36379 117.276 3.38776C116.781 3.40413 116.343 3.55782 115.964 3.84885C115.584 4.13988 115.384 4.47016 115.364 4.83966C115.364 4.99607 115.399 5.11161 115.467 5.18626C115.535 5.26093 115.636 5.298 115.77 5.29745C115.938 5.2901 116.065 5.2394 116.151 5.14538C116.236 5.05138 116.279 4.95818 116.28 4.8658C116.28 4.81921 116.277 4.77508 116.271 4.73338C116.265 4.69169 116.256 4.65736 116.245 4.63037C116.239 4.6113 116.234 4.58077 116.229 4.5388C116.224 4.49684 116.222 4.44018 116.222 4.36877C116.234 4.16849 116.34 4.02623 116.538 3.94204C116.736 3.85784 116.951 3.81696 117.184 3.81941C117.395 3.79788 117.601 3.89654 117.801 4.11536C118.001 4.33417 118.108 4.80233 118.122 5.51981C118.122 5.56559 118.114 5.60155 118.101 5.62771C118.087 5.65387 118.071 5.67022 118.053 5.67676L117.056 5.95146C116.49 6.11222 116.032 6.35638 115.683 6.68392C115.334 7.01146 115.154 7.3995 115.144 7.84803C115.154 8.35896 115.296 8.72356 115.57 8.94184C115.844 9.16011 116.188 9.26639 116.604 9.26066C116.858 9.26557 117.072 9.2296 117.245 9.15277C117.417 9.07592 117.625 8.92878 117.867 8.71132L118.099 8.50203H118.122Z" fill="black"/>
</svg>
