<svg xmlns="http://www.w3.org/2000/svg" width="146" height="28" fill="none"><path fill="#8C8C8C" d="M93.859.008v27.089h-4.947l-11.786-17.05h-.198v17.05h-5.727V.007h5.026L87.92 17.045h.238V.008h5.7ZM98.59 27.097V.007h18.254V4.73h-12.526v6.455h11.587v4.722h-11.587v6.468h12.579v4.722H98.591ZM126.067 27.097h-6.138l9.352-27.09h7.381L146 27.098h-6.137l-6.786-20.899h-.212l-6.798 20.899Zm-.384-10.648h14.497v4.471h-14.497v-4.47Z"/><path fill="#595959" d="M0 27.09V0h10.846c1.993 0 3.655.295 4.987.886 1.331.591 2.332 1.411 3.002 2.46.67 1.041 1.006 2.24 1.006 3.598 0 1.058-.212 1.989-.635 2.791a5.48 5.48 0 0 1-1.746 1.958c-.732.502-1.57.86-2.513 1.071v.265a6.067 6.067 0 0 1 2.896.873c.909.538 1.645 1.292 2.21 2.261.564.962.846 2.108.846 3.44 0 1.437-.357 2.72-1.072 3.849-.705 1.12-1.75 2.006-3.134 2.658-1.385.653-3.091.98-5.12.98H0Zm5.727-4.683h4.67c1.596 0 2.76-.305 3.492-.913.731-.617 1.097-1.437 1.097-2.46 0-.75-.18-1.411-.542-1.984-.362-.573-.877-1.023-1.548-1.35-.66-.326-1.45-.489-2.367-.489H5.727v7.196Zm0-11.071h4.246c.785 0 1.482-.137 2.09-.41.617-.283 1.102-.68 1.455-1.19.362-.512.542-1.125.542-1.84 0-.978-.348-1.767-1.045-2.367-.687-.6-1.666-.9-2.936-.9H5.727v6.707ZM30.353 0v27.09h-5.727V0h5.727ZM35.065 27.09V0h5.727v11.944h.358L50.898 0h6.865L47.71 12.13l10.172 14.96H51.03l-7.42-11.138-2.818 3.439v7.698h-5.727ZM66.473 0v27.09h-5.727V0h5.727Z"/></svg>