<?xml version="1.0" encoding="UTF-8"?>
<svg xmlns="http://www.w3.org/2000/svg" width="66" height="11" viewBox="0 0 66 11">
	<title>
		ar-tagline
	</title>
	<g id="Page-1" fill="none" fill-rule="evenodd" stroke="none" stroke-width="1">
		<path id="ar-tagline" fill="#000" fill-rule="nonzero" d="M52.774379,4.02405 L52.97751,4.04313 C53.02829,4.05583 53.07272,4.07063 53.110811,4.08753 C53.364714,4.21449 53.561491,4.38588 53.701143,4.60169 C53.921191,4.90215 54.079882,5.21319 54.177217,5.5348 C54.244917,5.83949 54.285123,6.08705 54.297822,6.27747 L54.640596,6.27747 L54.640596,7.39466 L54.640596,7.39466 L54.329561,7.39466 L54.329561,7.39466 C54.295701,7.78822 54.204719,8.19235 54.056611,8.60706 C54.026981,8.68326 53.999481,8.7446 53.974091,8.79115 C53.754035,9.18893 53.540331,9.49785 53.332978,9.7179 C53.138313,9.91257 52.899218,10.09876 52.615692,10.2765 L52.40622,10.39076 C52.236947,10.45846 52.031706,10.49232 51.790497,10.49232 C51.553516,10.49232 51.305958,10.45212 51.047821,10.37171 C50.815073,10.30821 50.487111,10.18975 50.063935,10.01624 L50.203583,9.66712 L51.250946,9.66712 L51.536591,9.65442 C51.608531,9.64642 51.695281,9.62482 51.796845,9.59092 C51.995736,9.51902 52.224251,9.39838 52.482392,9.2291 C52.765918,9.02175 52.988085,8.82709 53.148896,8.64512 C53.280077,8.47162 53.394335,8.27696 53.491669,8.06114 C53.567839,7.85801 53.616503,7.63585 53.637665,7.39463 L53.040985,7.36923 L52.507782,7.29943 C52.431612,7.28673 52.370247,7.27193 52.3237,7.25503 C52.150196,7.19583 51.970345,7.07942 51.784149,6.90591 C51.720669,6.85091 51.674122,6.80012 51.644501,6.75357 C51.530242,6.57584 51.468881,6.3579 51.460419,6.09976 L51.485809,5.78238 C51.523889,5.51578 51.570439,5.30631 51.625457,5.15396 C51.684697,4.96777 51.798958,4.75829 51.968231,4.52554 C51.993621,4.49164 52.016891,4.46204 52.038051,4.43664 C52.156538,4.3097 52.275028,4.21025 52.393519,4.1383 C52.524702,4.0664 52.651655,4.02828 52.774379,4.02405 Z M40.25681,4.02405 L40.459932,4.04313 C40.510712,4.05583 40.555142,4.07063 40.593233,4.08753 C40.847135,4.21449 41.043913,4.38588 41.183565,4.60169 C41.403613,4.90215 41.562304,5.21319 41.659639,5.5348 C41.727339,5.83949 41.767545,6.08705 41.780244,6.27747 L42.123018,6.27747 L42.123018,7.39466 L42.123018,7.39466 L41.811983,7.39466 L41.811983,7.39466 C41.778123,7.78822 41.687141,8.19235 41.539033,8.60706 C41.509403,8.68326 41.481903,8.7446 41.456513,8.79115 C41.236457,9.18893 41.022753,9.49785 40.815399,9.7179 C40.620735,9.91257 40.38164,10.09876 40.098114,10.2765 L39.888642,10.39076 C39.719369,10.45846 39.514128,10.49232 39.272919,10.49232 C39.035938,10.49232 38.78838,10.45212 38.530243,10.37171 C38.297495,10.30821 37.969533,10.18975 37.546357,10.01624 L37.686005,9.66712 L38.733368,9.66712 L39.019013,9.65442 C39.090953,9.64642 39.177703,9.62482 39.279267,9.59092 C39.478158,9.51902 39.706673,9.39838 39.964814,9.2291 C40.248339,9.02175 40.470507,8.82709 40.631317,8.64512 C40.762499,8.47162 40.876757,8.27696 40.974091,8.06114 C41.050261,7.85801 41.098925,7.63585 41.120087,7.39463 L40.523407,7.36923 L39.990204,7.29943 C39.914034,7.28673 39.852669,7.27193 39.806122,7.25503 C39.632617,7.19583 39.452767,7.07942 39.266571,6.90591 C39.203091,6.85091 39.156544,6.80012 39.126923,6.75357 C39.012664,6.57584 38.951303,6.3579 38.942841,6.09976 L38.968231,5.78238 C39.006311,5.51578 39.052861,5.30631 39.107879,5.15396 C39.167119,4.96777 39.28138,4.75829 39.450652,4.52554 C39.476042,4.49164 39.499312,4.46204 39.520482,4.43664 C39.638969,4.3097 39.757459,4.21025 39.87595,4.1383 C40.007133,4.0664 40.134086,4.02828 40.25681,4.02405 Z M11.40675,3.33924 L11.667004,3.34524 C11.925139,3.37484 12.136728,3.45739 12.30177,3.5928 C12.483732,3.74091 13.008472,4.28046 13.875988,5.21145 L14.041027,5.39553 L14.866223,6.27785 L15.634289,6.27785 L15.634289,7.39504 L8.931219,7.39505 C8.897361,7.66589 8.838115,7.92614 8.753485,8.17581 C8.668845,8.42549 8.582091,8.63073 8.493231,8.79154 C8.476301,8.8212 8.457261,8.855 8.436101,8.8931 C8.216045,9.27819 8.040427,9.53633 7.909245,9.66751 C7.875388,9.70983 7.824612,9.75851 7.756902,9.81351 C7.494529,10.05895 7.270245,10.23037 7.08405,10.32767 C6.927472,10.41657 6.673566,10.46097 6.322331,10.46097 C6.10651,10.46097 5.939355,10.44617 5.820867,10.41657 C5.765852,10.40807 5.674869,10.38267 5.547917,10.34037 C4.942774,10.12455 4.640203,10.01664 4.640203,10.01664 C4.640203,10.01241 4.674055,9.90027 4.741765,9.68022 L4.741765,9.68022 L5.249578,9.68622 C5.52041,9.68622 5.770084,9.67352 5.998601,9.64812 L5.998601,9.64812 L6.227117,9.59732 C6.565656,9.48729 6.840721,9.33283 7.052312,9.13394 C7.306215,8.95621 7.558006,8.67903 7.807683,8.3024 C7.820373,8.2855 7.835183,8.2665 7.852113,8.2453 C8.012916,8.00409 8.112362,7.77134 8.150452,7.54706 L8.150452,7.54706 L8.156752,7.40106 L8.156752,7.32486 C8.13559,7.0498 8.055186,6.77896 7.915541,6.51236 L7.915541,6.51236 L7.864761,6.41716 L7.103042,5.20476 L7.680679,4.25896 C7.71876,4.28859 7.7632,4.33511 7.81398,4.39861 C7.852062,4.44516 7.989595,4.6504 8.226577,5.01433 C8.235037,5.02703 8.243467,5.04183 8.251967,5.05873 C8.510101,5.49884 8.677252,5.81199 8.753432,5.99819 C8.761892,6.01519 8.772472,6.04049 8.785172,6.07439 C8.844408,6.20981 8.893078,6.27752 8.931168,6.27751 L8.931168,6.27751 L13.577649,6.27785 L12.606461,5.24919 L12.06691,4.7033 L11.863785,4.52556 C11.707207,4.39438 11.495619,4.31186 11.22902,4.278 L11.032242,4.272 C10.79103,4.3016 10.408055,4.41376 9.883317,4.60842 C10.25148,4.04137 10.522313,3.70283 10.695817,3.5928 C10.882013,3.45739 11.095717,3.37487 11.33693,3.34524 C11.36232,3.34124 11.38559,3.33924 11.40675,3.33924 Z M61.902375,0 C62.236683,1.03256 62.54137,1.81332 62.816437,2.34229 L62.524445,2.69141 C62.613305,3.37696 62.668323,3.80014 62.689484,3.96094 C62.748724,4.48145 62.791044,4.83269 62.816437,5.01465 C62.875677,5.74252 62.905307,6.11915 62.905307,6.14453 L62.886249,6.60759 L62.841819,6.86785 C62.833319,6.88905 62.827009,6.90805 62.822779,6.92495 C62.759299,7.06036 62.683128,7.16404 62.594263,7.23598 C62.458844,7.34601 62.283226,7.40102 62.067408,7.40102 L61.210474,7.40102 L60.385279,7.39502 L60.385277,7.3947 L59.31887,7.3947 L58.944359,7.4074 C58.851259,7.4201 58.76662,7.4624 58.690452,7.53435 C58.563495,7.69093 58.332864,7.80307 57.998558,7.87078 C57.812357,7.87078 57.638854,7.82428 57.47805,7.73113 C57.249532,7.54493 57.131042,7.44549 57.122581,7.43279 C57.088721,7.40319 57.054871,7.36929 57.021019,7.33123 C56.894064,7.18735 56.790385,7.07944 56.709984,7.0075 C56.375672,7.21485 56.062521,7.34181 55.770531,7.38835 C55.719751,7.39235 55.675311,7.39435 55.63723,7.39435 L54.647036,7.3947 L54.647036,6.27751 L55.624576,6.27751 C55.836163,6.27752 56.164125,6.07439 56.608462,5.66814 C56.705792,5.57504 56.794658,5.48618 56.875064,5.40154 C57.145895,5.04184 57.456929,4.73504 57.808169,4.48113 C57.935119,4.38803 58.078999,4.34148 58.23981,4.34148 C58.2652,4.34148 58.28636,4.34348 58.30329,4.34748 C58.451399,4.34748 58.576236,4.38558 58.677802,4.46173 C58.885155,4.61832 59.039614,4.82567 59.141181,5.08381 L59.191961,5.2425 C59.217351,5.56835 59.230041,5.91535 59.230051,6.28351 L59.617258,6.27751 L61.686548,6.27783 C61.826195,6.27784 61.938337,6.22913 62.022974,6.13184 C62.061054,6.07684 62.080104,5.98161 62.080104,5.84619 C62.080102,5.77849 62.075904,5.7002 62.067414,5.61133 C61.999704,4.93425 61.959502,4.53647 61.946808,4.41797 C61.908718,4.09213 61.832549,3.62664 61.718293,3.02149 C61.587106,2.32325 61.460153,1.71599 61.337433,1.19971 L61.902375,0 Z M64.758802,0.00603 C64.961928,0.48846 65.135431,1.14862 65.279313,1.9865 C65.418959,2.94289 65.54168,3.89292 65.647477,4.8366 C65.727877,5.45444 65.768082,5.95167 65.768082,6.3283 L65.749042,6.79802 L64.961933,7.8073 C64.995783,7.58302 65.012713,7.327 65.012713,7.03923 C65.012712,6.79379 64.980973,6.30079 64.917493,5.56023 C64.777844,4.18491 64.676281,3.34067 64.612806,3.02751 C64.545096,2.69744 64.405448,2.09018 64.19386,1.20574 L64.758802,0.00603 Z M20.020531,0.00603 C20.223647,0.48846 20.39715,1.14862 20.541031,1.9865 C20.680678,2.94289 20.803399,3.89292 20.909195,4.8366 C20.989595,5.45444 21.029801,5.95167 21.029801,6.3283 L21.010761,6.79802 L20.223652,7.8073 C20.257502,7.58302 20.274432,7.327 20.274432,7.03923 C20.27443,6.79379 20.242692,6.30079 20.179222,5.56023 C20.039572,4.18491 19.93801,3.34067 19.874535,3.02751 C19.806825,2.69744 19.667177,2.09018 19.455589,1.20574 L20.020531,0.00603 Z M2.374041,3.31944 L2.577166,3.49717 C2.911472,3.88656 3.154798,4.19125 3.307145,4.41129 L3.332535,4.44299 C3.459485,4.58265 3.603365,4.80904 3.764176,5.12219 C3.789566,5.16879 3.808606,5.20679 3.821306,5.23645 C3.914406,5.41842 3.97153,5.68925 3.992693,6.04895 L3.992693,6.13145 C3.992693,6.45307 3.891127,6.75141 3.688005,7.02647 C3.383315,7.28461 3.042657,7.41368 2.666032,7.41368 C2.065119,7.41368 1.646174,7.33328 1.409196,7.17246 C1.269547,7.06667 1.146826,6.91433 1.041032,6.71543 C0.994482,6.59695 0.971212,6.46999 0.971212,6.33457 C0.971212,5.96641 1.1828,5.42475 1.605978,4.70957 L1.878927,4.24619 L1.790057,4.12559 L2.374041,3.31944 Z M17.164085,0 C17.498393,1.03256 17.803081,1.81332 18.078148,2.34229 L17.786156,2.69141 C17.875026,3.37696 17.930034,3.80014 17.951195,3.96094 C18.010435,4.48145 18.052755,4.83269 18.078148,5.01465 C18.137388,5.74252 18.167018,6.11915 18.167018,6.14453 L18.147968,6.60759 L18.103538,6.86785 C18.095038,6.88905 18.088728,6.90805 18.084498,6.92495 C18.021018,7.06036 17.944848,7.16404 17.855983,7.23598 C17.720564,7.34601 17.544946,7.40102 17.329127,7.40102 L16.472194,7.40102 L15.646998,7.39502 L15.646998,6.27783 L16.948268,6.27783 C17.087915,6.27784 17.200057,6.22913 17.284694,6.13184 C17.322774,6.07684 17.341824,5.98161 17.341824,5.84619 C17.341822,5.77849 17.337624,5.7002 17.329124,5.61133 C17.261414,4.93425 17.221213,4.53647 17.208519,4.41797 C17.170429,4.09213 17.09426,3.62664 16.980003,3.02149 C16.848817,2.32325 16.721864,1.71599 16.599144,1.19971 L17.164085,0 Z M48.69922,3.66223 C49.067377,4.35625 49.274733,4.77519 49.32129,4.91907 C49.38476,5.17721 49.4165,5.41419 49.4165,5.63 L49.39111,5.94104 L49.38481,5.98544 C49.33825,6.34091 49.230344,6.66464 49.06108,6.95663 L48.97221,7.08993 C48.815628,7.26344 48.648473,7.365 48.470745,7.39462 L47.759807,7.39462 L47.759807,7.39462 C47.654008,7.39462 47.527055,7.34172 47.378948,7.23593 C47.298538,7.18093 47.220252,7.1111 47.144085,7.02646 C47.101765,6.97566 47.044635,6.87835 46.972698,6.73447 C46.888058,6.89104 46.807654,7.00107 46.731487,7.06454 C46.625688,7.16611 46.500851,7.24228 46.356975,7.29306 C46.213091,7.34386 46.041705,7.37766 45.842815,7.39462 L45.411175,7.39462 C45.305377,7.39462 45.186888,7.36292 45.055706,7.29942 C45.047206,7.29542 45.038776,7.29142 45.030316,7.28672 C44.852579,7.18093 44.73409,7.09841 44.674847,7.03916 C44.624067,6.98836 44.560587,6.90375 44.484418,6.78526 C44.310913,6.98415 44.205119,7.09841 44.167035,7.12803 C44.095095,7.18303 43.980835,7.24652 43.824262,7.31846 C43.714234,7.36926 43.508993,7.39466 43.208539,7.39466 L42.129435,7.39466 L42.129435,6.27747 L43.208537,6.27747 C43.449747,6.27748 43.614785,6.25207 43.703654,6.20127 C43.779824,6.15477 43.845417,6.09337 43.900431,6.01719 C43.972371,5.91989 44.021035,5.76117 44.046428,5.54112 C44.050628,5.51572 44.052728,5.49242 44.052728,5.47132 L44.052728,5.06542 C44.065418,4.99772 44.122548,4.94059 44.224115,4.89404 C44.249505,4.88134 44.272775,4.87504 44.293935,4.87504 L44.433584,4.89404 C44.522444,4.91944 44.57323,4.95114 44.585927,4.98924 L44.611317,5.47801 C44.611314,5.61343 44.651517,5.75308 44.731922,5.89696 C44.795392,6.00275 44.852525,6.07469 44.903309,6.11278 C45.047186,6.21857 45.203762,6.27359 45.373036,6.27781 C45.762382,6.27752 46.003593,6.26061 46.096695,6.22671 C46.270194,6.15901 46.384452,6.07226 46.439469,5.96646 C46.464859,5.91146 46.507169,5.72314 46.566422,5.40152 L46.610852,5.05874 C46.632002,4.90641 46.710292,4.83023 46.845715,4.83023 C46.968431,4.83023 47.048835,4.87893 47.086926,4.97623 C47.095426,4.99313 47.099616,5.01223 47.099616,5.03333 C47.099611,5.12223 47.116536,5.24916 47.150396,5.41419 C47.171546,5.54538 47.203286,5.6681 47.245606,5.78236 C47.283686,5.88816 47.332356,5.97279 47.391602,6.03626 C47.531245,6.18438 47.658198,6.26478 47.772462,6.27747 L48.483399,6.27747 C48.699213,6.26057 48.843093,6.20557 48.91504,6.11244 C48.92773,6.09554 48.93619,6.07854 48.94043,6.06164 C48.940424,5.83736 48.84309,5.5623 48.648438,5.23645 C48.546869,5.06718 48.422032,4.89156 48.273927,4.70959 L48.69922,3.66223 Z M29.230972,2.1261 C29.260592,2.34616 29.319832,2.72067 29.408706,3.24963 C29.518728,4.01559 29.603363,4.51494 29.662612,4.74768 C29.857269,5.59404 29.969411,6.05742 29.999038,6.13782 L30.018078,6.18862 C30.064618,6.24362 30.151374,6.27322 30.278332,6.27752 L31.052746,6.27752 L31.052746,7.39471 L29.90382,7.39471 C29.709155,7.39471 29.575854,7.34821 29.503918,7.25506 C29.39812,7.11119 29.266935,6.68589 29.110363,5.97918 C29.034193,5.64911 28.979175,5.41848 28.945324,5.28729 C28.886074,5.35919 28.759123,5.47772 28.564465,5.64276 L28.532725,5.66176 C28.299974,5.86912 28.124356,6.00665 28.005869,6.07436 C27.836596,6.17593 27.684252,6.22671 27.548838,6.2267 L27.479018,6.2207 C27.170097,6.1868 26.966972,6.11702 26.869643,6.01122 C26.704602,5.85888 26.522636,5.59017 26.323744,5.20507 C26.188327,4.93424 26.09946,4.70149 26.057143,4.50683 C26.158704,4.26985 26.325859,4.03499 26.558608,3.80224 C26.727877,3.61605 27.026217,3.36849 27.453627,3.05956 C27.546727,2.99186 27.62078,2.94108 27.675795,2.90722 C27.891613,2.75488 28.143403,2.61312 28.431166,2.48193 L29.07228,2.1832 C29.13152,2.1578 29.184419,2.1388 29.230972,2.1261 Z M34.569344,2.79231 C34.603197,2.79231 34.645507,2.79861 34.696297,2.81131 C34.878259,2.85364 35.013677,2.91919 35.102547,3.00809 C35.212569,3.10543 35.301438,3.20699 35.369148,3.31278 C35.394528,3.35508 35.419918,3.39958 35.445318,3.44608 C35.491863,3.53918 35.606121,3.84387 35.788092,4.36014 C35.694988,4.3136 35.500327,4.2078 35.204107,4.04276 C34.912111,3.87773 34.630699,3.77402 34.359869,3.73172 C34.330249,3.72772 34.298509,3.72572 34.264659,3.72572 C34.040372,3.72572 33.816089,3.78497 33.591808,3.90345 C33.43523,3.98386 33.299813,4.10447 33.185558,4.26527 C33.02898,4.4684 32.933763,4.67364 32.899913,4.88099 C32.891423,4.93179 32.887221,4.98049 32.887223,5.02699 C32.887221,5.23858 32.954929,5.43536 33.090348,5.61732 L33.090348,5.61732 L33.318863,5.83949 C33.521986,6.01719 33.77166,6.10609 34.067887,6.10609 C34.850761,6.10609 35.790213,6.01511 36.886246,5.83314 L36.886246,5.83314 L36.188004,7.0138 C36.132986,7.0265 36.07374,7.0392 36.01027,7.0519 L36.01027,7.0519 L34.201188,7.3312 C34.129244,7.3397 34.061533,7.3486 33.998063,7.3566 C33.761081,7.382 33.246921,7.3947 32.455582,7.3947 L31.059088,7.39435 L31.059088,6.27716 L31.814459,6.27716 C32.085291,6.27716 32.275721,6.26866 32.385748,6.25176 C32.305343,6.21368 32.227055,6.16497 32.150885,6.10577 C32.091636,6.05499 32.045086,6.00422 32.011236,5.95342 C31.939296,5.83494 31.903325,5.68683 31.903326,5.50909 C31.903325,5.29327 31.945639,5.06899 32.030279,4.83624 C32.144536,4.51463 32.330734,4.19724 32.588873,3.88409 C32.906254,3.49477 33.225752,3.21336 33.547369,3.03985 C33.695478,2.95941 33.807615,2.90441 33.883795,2.87481 L33.883795,2.87481 L33.915535,2.86211 C34.055181,2.81561 34.273117,2.79231 34.569344,2.79231 Z M57.960472,5.33767 L57.782738,5.33767 C57.757348,5.34167 57.731958,5.34827 57.706568,5.35667 C57.524599,5.40327 57.387066,5.54922 57.29397,5.79466 C57.27704,5.84966 57.26223,5.90681 57.24954,5.96605 C57.24954,6.1861 57.391301,6.42308 57.674832,6.67699 C57.708682,6.70659 57.740422,6.73199 57.770042,6.75319 C57.850442,6.83784 57.979512,6.91828 58.157249,6.99445 C58.216489,7.01565 58.258808,7.02615 58.284202,7.02615 C58.423847,6.94995 58.506367,6.77436 58.531761,6.49929 L58.531761,5.97244 C58.519061,5.85395 58.485211,5.73758 58.430199,5.62332 C58.341329,5.45828 58.184752,5.36307 57.960472,5.33767 Z M52.812516,4.96358 C52.617852,4.98478 52.467624,5.09477 52.361832,5.29366 C52.332212,5.34866 52.311052,5.4058 52.298352,5.46504 C52.234872,5.64278 52.203142,5.79513 52.203142,5.92208 C52.203142,5.96438 52.205242,6.01098 52.209442,6.06172 C52.289842,6.20561 52.42526,6.2775475 52.615692,6.2775475 L53.59958,6.2775475 C53.527685,5.99822 53.445162,5.76759 53.352067,5.58562 C53.246269,5.29786 53.115084,5.10532 52.958512,5.00798 C52.907732,4.97838 52.859062,4.96358 52.812516,4.96358 Z M40.294938,4.96358 C40.100274,4.98478 39.950046,5.09477 39.844254,5.29366 C39.814634,5.34866 39.793474,5.4058 39.780774,5.46504 C39.717294,5.64278 39.685564,5.79513 39.685564,5.92208 C39.685564,5.96438 39.687664,6.01098 39.691864,6.06172 C39.772264,6.20561 39.907682,6.2775475 40.098114,6.2775475 L41.082002,6.2775475 C41.010107,5.99822 40.927584,5.76759 40.834488,5.58562 C40.728691,5.29786 40.597506,5.10532 40.440934,5.00798 C40.390154,4.97838 40.341484,4.96358 40.294938,4.96358 Z M2.189966,4.55686 L2.012232,4.75364 L2.012225,4.75401 C1.914895,4.86827 1.82391,4.99311 1.739276,5.12852 C1.625017,5.31049 1.557308,5.43744 1.536151,5.50938 L1.517111,5.57918 L1.491721,5.76326 L1.517111,5.91561 L1.567891,6.01081 L1.593281,6.03621 L1.593281,6.03621 C1.749855,6.15894 1.921241,6.23299 2.107441,6.25838 C2.132831,6.26238 2.158221,6.26438 2.183611,6.26438 L2.894548,6.26438 C3.135756,6.26438 3.326186,6.20728 3.465837,6.09299 C3.512387,6.05909 3.542007,6.02319 3.554707,5.98508 C3.554707,5.93428 3.522967,5.84332 3.459497,5.71213 C3.412947,5.60634 3.345237,5.4942 3.256372,5.37571 C2.92206,4.99062 2.566592,4.71767 2.189966,4.55686 Z M28.64064,3.34482 C28.272474,3.44647 28.005873,3.53745 27.840836,3.61785 C27.553074,3.75327 27.320326,3.89715 27.142594,4.04949 C27.129894,4.06219 27.117204,4.07279 27.104504,4.08119 C26.998708,4.19122 26.939463,4.26316 26.92677,4.29701 L26.90773,4.39221 L26.90773,4.42391 C26.92466,4.49161 26.99025,4.54452 27.104507,4.5826 C27.320325,4.6461 27.576347,4.69475 27.872573,4.7286 C28.10955,4.754 28.316906,4.76670002 28.494644,4.76670002 C28.591974,4.76670002 28.710461,4.7627 28.850112,4.754 L28.64064,3.34482 Z M1.256852,0.81852 L2.29152,1.5485 L1.625016,2.40543 L0.584,1.73258 L1.256852,0.81852 Z M3.161149,0.72332 L4.195817,1.4533 L3.529313,2.31023 L2.488297,1.63738 L3.161149,0.72332 Z M28.545424,0.55859 L29.408705,1.16796 L28.850111,1.8789 L27.98683,1.32031 L28.545424,0.55859 Z M27.009291,0.55859 L27.872572,1.16796 L27.313979,1.8789 L26.450697,1.32031 L27.009291,0.55859 Z"/>
	</g>
</svg>
