<svg xmlns="http://www.w3.org/2000/svg" width="81" height="18"><path fill="#000" fill-rule="nonzero" d="M3.72 5.805c.03.1.302 1.405.812 3.917.155.767.3 1.264.43 1.493.189.333.482.506.878.524l1.262-.004c.236 0 .442-.039.617-.12.174-.08.349-.214.523-.4.175-.188.366-.43.575-.728.209-.3.466-.664.77-1.095.393-.547.795-.82 1.206-.82.586 0 1.06.292 1.42.877.268.423.42.857.458 1.301.006.062.009.12.009.18v.172c0 .332-.04.627-.122.883a2.463 2.463 0 0 1-.3.649 1.47 1.47 0 0 1-.377.398.676.676 0 0 1-.37.135c-.634 0-1.538-.407-2.71-1.224-.367.43-.62.7-.756.813-.311.245-.694.363-1.149.363l-.401-.001-.645.002c-1.022 0-1.67-.634-1.944-1.905-.56.555-.885.832-.971.832H1.879c-.368 0-.739-.057-1.112-.166-.511-.158-.767-.374-.767-.655 0-.89.317-1.62.953-2.185.436-.381 1.169-.775 2.197-1.18l-.234-1.148.803-.908Zm6.885 3.992c-.361 0-.779.365-1.252 1.095.088.1.235.21.44.332.205.12.424.236.658.341.233.106.464.194.691.266.228.071.407.108.537.108.188-.003.282-.104.282-.313 0-.18-.04-.376-.122-.587a2.817 2.817 0 0 0-.313-.594 2.08 2.08 0 0 0-.434-.461.808.808 0 0 0-.487-.187Zm-7.25-1.013c-.399.118-.882.315-1.45.589-.766.373-1.149.67-1.149.888 0 .187.293.325.879.42.392.068.756.103 1.093.103a4.36 4.36 0 0 0 1.028-.101l-.401-1.9ZM18.81 13.12c-.113 1.627-.739 3.014-1.878 4.16-.362.36-.589.54-.682.54-.66 0-1.436-.069-2.327-.207-.293-.044-.44-.09-.44-.139 0-.05.156-.121.468-.215a7.108 7.108 0 0 0 2.7-1.495c.35-.3.667-.65.954-1.056.361-.505.541-.928.541-1.27v-.32h-1.494c-1.146 0-1.72-.463-1.72-1.39 0-.591.172-1.227.515-1.906.393-.774.84-1.159 1.345-1.159.617 0 1.112.382 1.486 1.142.275.554.446 1.198.515 1.935l.409-.001 1.224-.002c1.19 0 1.784-.213 1.784-.644 0-.3-.271-.794-.813-1.485l.487-1.178c.05-.117.09-.176.121-.176.032 0 .097.07.196.214.505.744.758 1.501.758 2.282 0 1.581-.788 2.37-2.364 2.37H18.81ZM16.596 10c-.243 0-.461.099-.654.295-.192.195-.29.415-.29.657 0 .543.465.815 1.393.815.242 0 .55-.017.925-.046 0-.362-.128-.727-.383-1.094-.286-.418-.617-.627-.99-.627Zm5.298-5.68.971.98-.971.971-.972-.98.972-.97Zm18.462 8.8v-.01c-.675-.062-1.159-.384-1.455-.97-.286.685-.816 1.028-1.588 1.028-.723 0-1.227-.353-1.515-1.064-.392.718-.956 1.075-1.69 1.075-.275 0-.57-.051-.888-.15a53.89 53.89 0 0 1-.131 2.278c-.318.89-1.003 1.579-2.056 2.065A6.867 6.867 0 0 1 28.1 18c-1.047 0-1.906-.26-2.58-.785-.734-.574-1.101-1.367-1.101-2.382 0-.542.134-1.12.402-1.739.192-.442.393-.787.597-1.037.1-.117.19-.176.272-.176.074 0 .112.044.112.13 0 .057-.019.12-.056.197-.355.726-.532 1.394-.532 1.997 0 .592.195 1.102.588 1.531.517.568 1.3.851 2.345.851 1.183 0 2.214-.211 3.094-.634.722-.348 1.177-.728 1.364-1.14.062-.13.07-.396.028-.795-.044-.392-.102-.686-.178-.887-.15-.38-.536-.971-1.158-1.775l.523-.99c.075-.143.13-.213.168-.213.032 0 .088.057.168.175.33.498.557.807.682.925a1.67 1.67 0 0 0 1.215.495c.529 0 .912-.143 1.149-.431.155-.187.28-.527.374-1.018.044-.223.116-.337.215-.337.099 0 .162.1.186.301.131 1.003.564 1.504 1.3 1.504.884 0 1.376-.474 1.476-1.422.025-.235.088-.353.187-.353.113 0 .184.117.215.348.12.899.56 1.365 1.32 1.398l1.105-.001c1.19 0 1.783-.213 1.783-.644 0-.3-.269-.794-.813-1.485l.486-1.178c.05-.117.09-.176.121-.176.032 0 .097.07.197.214.508.744.76 1.501.76 2.282 0 1.581-.789 2.37-2.365 2.37h-1.393Zm-5.643-6.886.88.88-.87.867-.888-.879.878-.868Zm2.123 0 .887.88-.878.867-.878-.879.87-.868ZM43.05 4.32l.97.98-.97.971-.971-.98.971-.97Zm-7.28.045.88.88-.87.877-.888-.889.878-.868Zm11.15 7.283c0 .486-.1.93-.3 1.336-.118.243-.2.363-.245.363-.048 0-.073-.152-.073-.457 0-1.383-.243-4.76-.728-10.129l.992-.925a.592.592 0 0 1 .175-.13c.032 0 .051.07.058.205.08 1.555.12 4.802.12 9.737Zm7.306-1.021c0 1.663-1.102 2.493-3.307 2.493-.82 0-1.424-.112-1.804-.337-.493-.285-.738-.804-.738-1.559 0-.355.097-.718.29-1.084.088-.169.167-.253.242-.253.096 0 .128.102.105.307-.019.15-.027.273-.027.374 0 .497.223.833.673 1.009.282.106.724.16 1.329.16 1.743 0 2.616-.27 2.616-.814 0-.854-1.019-2.019-3.057-3.494l.354-1.216c.037-.117.07-.176.104-.176.036 0 .117.046.233.139 1.99 1.604 2.987 3.086 2.987 4.45Zm11.98 0c0 1.663-1.102 2.493-3.307 2.493-.822 0-1.426-.112-1.804-.337-.493-.285-.738-.804-.738-1.559 0-.355.097-.718.29-1.084.087-.169.167-.253.242-.253.095 0 .129.102.104.307-.02.15-.027.273-.027.374 0 .497.223.833.673 1.009.281.106.725.16 1.33.16 1.743 0 2.614-.27 2.614-.814 0-.854-1.018-2.019-3.056-3.494l.355-1.216c.037-.117.07-.176.102-.176.036 0 .116.046.234.139 1.99 1.604 2.988 3.086 2.988 4.45Zm2.814 1.02c0 .487-.101.93-.3 1.337-.117.243-.2.363-.245.363-.05 0-.073-.152-.073-.457 0-1.383-.243-4.76-.727-10.129l.99-.925c.087-.079.147-.123.177-.13.03 0 .049.07.057.205.078 1.555.121 4.802.121 9.737Zm6.044 1.587c0 1.165-.371 2.266-1.112 3.3-.634.885-1.164 1.328-1.587 1.328-.911 0-1.696-.047-2.355-.141-.218-.03-.328-.083-.328-.159 0-.075.113-.134.337-.178.934-.193 1.875-.688 2.823-1.485 1.009-.853 1.513-1.671 1.513-2.457 0-.523-.416-1.192-1.25-2l.54-1.13c.05-.102.087-.155.112-.16.037.012.092.063.161.15.28.343.54.806.775 1.392.245.616.371 1.13.371 1.54Zm-.88-6.419-.97.971-.972-.981.971-.961.97.971ZM79.896.321c-.513.423-1.153.634-1.926.634-.114 0-.28-.015-.504-.042a4.736 4.736 0 0 0-.505-.042c-.08 0-.188.086-.322.26-.134.175-.232.26-.294.26-.108 0-.16-.073-.16-.223 0-.1.068-.302.206-.607.15-.337.28-.504.393-.504.138 0 .36.026.67.08.306.052.548.078.724.078.685 0 1.196-.046 1.532-.14.18-.051.3-.075.353-.075.051 0 .075.018.075.047-.003.052-.082.142-.242.274Zm-.778 11.327c0 .472-.105.916-.307 1.336-.118.243-.2.363-.245.363-.05 0-.073-.152-.073-.457 0-1.383-.242-4.76-.727-10.129l.99-.925c.087-.079.147-.123.177-.13.03 0 .05.07.056.205.085 1.48.129 4.725.129 9.737Z"/></svg>