<svg xmlns="http://www.w3.org/2000/svg" width="100" height="50" fill="none"><path fill="#555" fill-rule="evenodd" d="m4.945 38.128-.744 2.729s-.967.508-1.13-.414c-.197-1.105 1.874-2.315 1.874-2.315Zm21.537 11.395c1.671-2.071-.107-7.316-2.245-3.082-2.586 2.816-1.196-5.447-3.659-1.179-2.216 1.388 2.009-3.87 2.414-5.263 1.513-3.604 2.927.177 1.436 2.04.736 4.38 2.618-2.654 4.167-3.518 2.31.71-1.557 5.148 1.365 6.336-2.116.524-1.024 6.913-3.478 4.666Zm-23.65-3.478c.608-1.178.97-2.847 1.046-3.637-1.628.2-2.495-.367-2.382-1.3.371-3.093 4.001-4.284 4.916-7.405 1.614-2.355 2.42-5.139.64-7.193.058-2.587 2.482-4.213 4.127-5.987-.376-2.605 1.159-5.485 3.38-6.513.389 2.138-2.01 6.177 1.748 3.965 1.415-1.424 3.93.378 5.053-1.379 2.195-2.05 4.07-4.403 5.767-6.831 1.135-2.612 1.408-7.532-2.289-7.6-3.195.586-6.24 1.47-8.79 3.74-2.99 2.12-5.758 4.713-7.807 7.784-2.452 2.307-3.727 5.373-5.307 8.19-2.5 2.883 2.452 6.152-.645 8.68C-.899 29.13-.119 24.67.847 21.99c1.63-2.944 3.45-5.718 5.463-8.435 2.158-3.29 5.19-6.03 8.347-8.347 2.58-2.136 5.522-3.703 8.73-4.522 2.442-1.766 6.848.039 5.877 3.523-.062 3.452-1.448 6.674-3.643 9.298-1.642 2.191-6.234 4.9-1.687 6.576 2.16 2.89-.166 5.842-1.032 8.8-1.964 3.153-4.836 5.873-7.898 7.974-2.49 2.19-5.633 2.87-8.463 4.405-1.07 1.772-1.544 5.74-3.642 5.663l-.067-.881Zm5.564-6.753c3.302-1.356 6.495-3.11 9.137-5.687 2.71-2.595 5.971-5.58 5.47-9.671.395-1.696-.511-3.228-2.194-3.74-2.916.307-5.05 3.074-7.854 4.041-2.09.79-3.6 5.68-2.577 6.956 1.43-2.043 5.522-1.07 2.084 1.257-1.862 2.12-6.362 3.93-5.037 7.172.35.064.734-.058.971-.328Zm7.033-17.371c2.97-1.543-2.622-.188-2.056.942.9.018 1.11-.424 2.056-.942Zm17.468 12c-.44-1.266 2.457-5.82.014-3.367-5.833 2.515-1.602-5.294-2.432-.863-.065 1.845 1.88 1.488 3.617-1.553 1.46-2.394 2.938-4.822 3.617-7.549 1.063-1.84 3.073-7.82 4.42-5.21-1.319 2.278-2.369 4.743-3.233 7.26-1.659 2.337 3.186-1.625 3.805-2.323 1.192-1.61 3.885-1.808 1.59.385-2.267 1.11-4.197 2.848-5.988 4.654-.818 2.759 1.774 5.245 4.347 3.293 1.643-1.65 2.627-5.99 4.667-6.009-1.924 4.14-2.499 9.366-2.754 6.411-.798-2.93-4.268 5.098-6.944 2.243-1.363-.715-2.181-3.622-2.12-.278-.413 1.04-1.009 3.532-2.606 2.906Zm22.626-8.643c-.79-2.737 4.438-.919 6.086-2.31 4.03 1.546-1.453 2.296-3.13 2.413-.854.587-2.109.396-2.956-.103Z" clip-rule="evenodd"/><path fill="#555" d="M49.261 28.56c-.051 0-.315.227-.585.503-.644.657-1.718 1.49-2.239 1.736-.79.373-1.523.327-1.75-.11-.06-.12-.161-.551-.223-.96-.194-1.294-.475-1.433-1.546-.764-.364.228-.777.473-.917.544l-.256.128.174-.309c.096-.17.443-.609.77-.975.758-.845 1.084-1.333 1.407-2.103.142-.338.477-1.065.745-1.616.635-1.306 1.083-1.747 2.137-2.107.346-.117.375-.117.465.005.142.195.127.276-.28 1.55-.625 1.959-.625 1.959-.663 3.491-.032 1.252-.02 1.435.102 1.672.122.235.171.265.418.258.248-.007.385-.106 1.158-.827.482-.45 1.175-1.208 1.175-1.208s-.024.59-.092 1.093Zm-1.437-10.083c-.2-.129-.438-.58-.438-.835 0-.197.344-.73.585-.908.341-.251.952-.542 1.259-.6.259-.049.28-.038.328.165.028.12.188.36.355.534.387.403.354.58-.19 1.014-.803.64-1.513.876-1.898.63ZM33.838 29.85c-.052 0-.315.225-.586.501-.644.657-1.717 1.49-2.238 1.736-.79.374-1.523.327-1.75-.11-.061-.12-.162-.55-.223-.96-.195-1.294-.476-1.433-1.546-.763-.364.228-.777.472-.918.543l-.255.129.174-.31c.095-.17.442-.608.77-.974.758-.846 1.084-1.334 1.407-2.104.142-.338.477-1.065.745-1.616.635-1.305 1.082-1.747 2.137-2.106.346-.118.375-.117.464.005.142.194.128.276-.28 1.55-.624 1.958-.624 1.958-.663 3.49-.03 1.253-.02 1.436.103 1.673.121.234.17.265.418.258.247-.008.385-.106 1.157-.828.483-.45 1.175-1.207 1.175-1.207s-.024.59-.091 1.092ZM32.4 19.764c-.2-.128-.439-.58-.439-.835 0-.197.344-.73.586-.908.34-.25.952-.542 1.258-.6.26-.048.28-.037.328.165.028.12.188.36.356.534.387.403.354.58-.19 1.015-.803.64-1.513.875-1.899.63Z"/><path fill="#555" fill-rule="evenodd" d="M55.03 43.572c1.525-1.143 1.962-3.993-.351-1.666-.405.902-1.863 3.874.351 1.666Zm10.204-4.02c-.127-.02-.558-.01-1.212 1.81-1.203 3.347-3.204 6.51-3.156 4.197.32-1.838 2.44-5.748 1.483-6.417a19.224 19.224 0 0 1-5.199 7.212c-1.224-.981-1.705-2.698-3.262-.238-.727.649-3.13.607-3.447-.157-.491-1.524 1.71-7.17-.792-3.57-.586 1.552-3.612 7.308-2.615 1.043.347-2.184.269-2.381.18-2.456-.208-.174-.513.386-1.177 2.194-1.084 2.949-2.037 6.168-3.18 5.985-.615-3.002 1.905-6.28 1.633-8.841-1.678 2.545-1.62 3.167-3.528 5.235-.364-.54-.18.113-.851-.893 1.438-1.535 2.03-2.985 2.595-4.044 1.02-2.065 2.545-7.665 5.505-6.015-.131 1.361-2.956 5.946-1.344 5.073.286-1.887 3.302-4.449 2.719-.715-1.595 3.187.883 1.048 1.691-.669 3.44-2.14.53 4.327.547 5.975 1.768-1.212 2.244-5.693 4.934-6.747.806.764.301 2.858 1.777 1.44.624 1.555-1.798 6.66 1.08 3.462 1.434-2.998 3.12-5.816 4.223-8.98 2.418-3.392 2.989.675 1.462 2.564-1.209 1.424-1.09 4.19.247 1.318 1.758-4.232 2.567.484 1.683 2.243.797-1.334 4.608-5.64 3.646-1.4-1.627 2.34 2.339 7.43-2.33 6.85-.775-1.496 1.876-7.108-.67-4.4-.932 1.274-3.933 7.067-2.747 1.73.518-2.33.2-2.775.105-2.79Zm11.555 6.631c-3.291-.194.782-6.36-1.403-5.375-.182 2.113-5.05 6.549-2.885 1.908.591-1.543 2.704-7.329-.303-3.85-.292-3.002 3.733-5.393 3.783-8.662.298-1.713 4.146-4.898 2.535-1.076-1.453 2.466-1.323 5.467-2.537 8.038-1.408 2.263 2.58-.713 2.091-2.201-.326-2.844 4.355-4.096 2.185-.62-.411 3.033-2.37 5.54-2.75 8.52.469 1.832 1.881 2.138 3.961.907 0 0-.267 1.635-4.677 2.411ZM88.481 39.686c2.115-2.038 2.558-4.995 3.97-7.456 1.609-2.032 1.81-5.348 4.224-6.545 1.014 2.208-2.367 4.617-2.342 7.187-1.667 4.15 3.949-2.59 5.6-2.918-.398 3.173-4.914 3.534-6.194 6.09-2.365 2.892 1.88 4.897 3.32 5.482-1.87 2.154-5.114 1.461-6.007-.427-.325 1.692-3.14 6.639-3.225 3.244.305-2.352.463-2.742.654-4.657Z" clip-rule="evenodd"/><path fill="#555" d="M88.394 40.715c-.048 0-.296.212-.55.472-.607.619-1.618 1.403-2.108 1.635-.744.351-1.434.308-1.648-.105-.057-.111-.152-.518-.21-.902-.183-1.22-.448-1.35-1.456-.72-.343.215-.731.445-.864.512l-.24.121.164-.29c.09-.16.416-.574.725-.919.713-.796 1.02-1.255 1.325-1.98.133-.319.449-1.003.7-1.522.599-1.23 1.02-1.645 2.013-1.983.326-.111.353-.11.437.005.134.183.12.26-.263 1.459-.588 1.844-.588 1.844-.624 3.287-.03 1.179-.02 1.351.096 1.574.114.221.161.25.394.243.233-.006.362-.1 1.09-.779.454-.424 1.106-1.137 1.106-1.137s-.023.555-.087 1.029Zm-1.352-9.495c-.19-.121-.413-.547-.413-.787 0-.185.323-.687.55-.855.322-.236.897-.51 1.186-.564.244-.046.264-.036.309.155.026.112.177.338.334.503.365.38.334.546-.179.955-.755.602-1.424.824-1.787.593Z"/><path stroke="#555" stroke-linecap="round" stroke-linejoin="round" stroke-width="2.005" d="M34.014 39.66c-2.274 3.71-3.118 6.067-2.534 7.07.585.982 1.43.877 2.534-.315 1.169-1.436 1.06-2.681-.325-3.736 1.754.628 3.334-.026 4.742-1.962-1.061 1.902-1.58 3.664-1.559 5.286-.022 1.604 1.19 1.311 3.638-.88m-9.744-2.285 3.248-3.179m4.417 1.058 1.007-1.724"/></svg>