<svg viewBox="0 0 112 21" xmlns="http://www.w3.org/2000/svg"><path d="m86.6 5.15.041.038v.37c0 .116-.08.15-.162.156l-.589.037c-.608.041-.735.26-.749.86l-.001 9.63c0 .67.394.903.736.98l.077.014c.44.073.596.138.608.371l.141 2.88-.48.01c-.068.005-.068.002-.068.002l-.068-.263c-.297-1.07-1.04-2.48-2.53-2.48h-5.88c-1.69 0-2.21 1.73-2.44 2.75l-.548-.02.142-2.88c.014-.232.226-.342.427-.371l.285-.046c.272-.052.51-.131.73-.344.53-.508.893-1.91 1.54-4.95l.15-.775c.35-1.91.54-3.6.54-4.68 0-.41-.183-.612-.71-.662l-.608-.06c-.102 0-.16-.04-.16-.116v-.41l.04-.037 1.66.035.252.002 5.79-.002c.723-.009 1.84-.035 1.84-.035zM112 .03v.576c0 .109-.055.19-.188.19L111 .852l-.317.029c-.877.1-1.12.34-1.12 1.18v13.7c0 .778.315 1.09 1.28 1.19l.908.073c.106 0 .216.08.216.218v.522l-.054.056-2.96-.054a49.524 49.524 0 0 0-.45-.002l-1.83.023c-.864.015-1.65.033-1.65.033l-.054-.056v-.522c0-.137.081-.218.217-.218l.702-.058c1.14-.087 1.49-.439 1.49-1.21v-6.89c-2.7 0-3.34.708-4.35 3.23l-.406 1.03c-1.08 2.7-2.07 4.64-3.87 4.67l-1.79.027-.025-.056v-.522h-.003l.007-.062a.186.186 0 0 1 .131-.148l.294-.035c.84-.105 2.13-1.51 3.47-4.94l.126-.328c.677-1.78 1.49-2.47 2.22-2.91V8.74c-1.84-.274-4.03-1.65-4.03-4.45l.005-.234c.077-1.85 1.12-4.02 5.94-4.02l3.15.026 3.75-.026zM7 .003c5.03 0 5.81 2.39 5.81 4.23 0 1.49-1.21 2.9-2.57 3.6v.055c2.35.687 4.17 2.2 4.17 4.83 0 2.36-1.43 5.11-6.82 5.11l-1.47-.009c-1.18-.016-1.61-.047-2.48-.047l-.847.004c-.918.008-1.64.03-2.67.052-.162-.165-.162-.742 0-.907l.339-.017c1.61-.09 2.02-.345 2.02-2.48v-11l-.006-.402c-.057-1.89-.573-2.02-2.35-2.1-.162-.163-.162-.74 0-.905l1.74.038c.534.01 1.07.018 1.74.018 1.16-.001 2.43-.057 3.38-.057zm52.2 5.15c.123.115.123.525 0 .642l-.298.014c-1.17.068-1.47.261-1.47 1.76v7.82l.006.335c.051 1.3.446 1.38 1.76 1.44.123.115.123.526 0 .642l-1.61-.03a74.124 74.124 0 0 0-1.03-.008l-.786.005c-.601.007-1.11.021-1.83.033-.122-.115-.122-.526 0-.642l.298-.014c1.12-.065 1.44-.246 1.47-1.59l.001-8.15c0-1.21-.445-1.44-.935-1.44h-4c-.487 0-.934.231-.934 1.44v7.97l.006.335c.051 1.3.444 1.38 1.76 1.44.122.115.122.526 0 .642l-1.48-.03a71.13 71.13 0 0 0-1.14-.008l-.709.003c-.654.007-1.18.022-1.93.035-.122-.115-.122-.526 0-.642l.298-.014c1.12-.065 1.44-.246 1.47-1.59l.002-7.99c0-1.62-.345-1.72-1.77-1.77-.122-.116-.122-.526 0-.642l2.5.037h8.04c.585-.006 1.46-.022 2.3-.037zm-25.3-.078c1.07 0 1.44.565 1.44 1.01 0 .566-.467.78-.893.78-.265 0-.548-.096-.75-.292-.224-.215-.387-.314-.648-.314-.527 0-.704.485-.809.98l-.108.553c-.242 1.17-.72 2.61-2.13 3.11V11c1.33 0 2.12.76 2.66 2.01l.08.19c1.06 2.63 2.09 3.96 2.8 4.01l.325.022c.1 0 .16.059.16.154v.37l-.02.039-1.6-.02c-1.47-.019-2.2-1.37-2.99-3.27l-.346-.839c-.7-1.66-1.18-2.22-3.33-2.22v4.93c0 .544.266.732.96.804l.683.052c.08 0 .16.06.16.155v.37l-.04.039-.671-.022c-.416-.01-.786-.014-1.21-.015h-1.49l-.6.004a47.68 47.68 0 0 0-1.26.033l-.04-.038v-.37c0-.096.063-.154.143-.154l.548-.038c.853-.062 1.1-.274 1.1-.818v-9.8c0-.585-.306-.76-1.1-.82l-.527-.037c-.081 0-.162-.06-.162-.156v-.37l.04-.038 1.49.029c.234.004.472.006.733.008h.412c1.01 0 1.6-.02 2.6-.037l.04.038v.37c0 .099-.06.156-.161.156l-.526.037c-.813.062-1.12.274-1.12.82v4.05c.73 0 1.64-.02 2.13-.292 1.13-.59 1.45-1.73 1.63-2.78l.031-.183c.203-1.21.772-2.3 2.37-2.3zm60.7.074c.121.116.121.526 0 .644l-.298.014c-1.12.065-1.44.245-1.47 1.59l-.001 7.99c0 1.62.346 1.72 1.77 1.77.12.114.12.526 0 .642l-1.48-.029a69.356 69.356 0 0 0-1.14-.009l-.71.003c-.654.007-1.18.022-1.93.035-.12-.115-.12-.527 0-.642l.299-.014c1.17-.069 1.47-.262 1.47-1.76v-7.82l-.006-.335c-.051-1.3-.444-1.39-1.76-1.44-.121-.117-.121-.527 0-.644l1.48.03c.23.004.465.007.725.008l.41.002c1.04 0 1.64-.021 2.64-.04zm-51 0c.121.116.121.526 0 .644l-.298.014c-1.12.065-1.44.245-1.47 1.59l-.001 7.99c.003 1.62.347 1.72 1.77 1.77.12.114.12.526 0 .642l-1.48-.029a69.356 69.356 0 0 0-1.14-.009l-.71.003c-.653.007-1.18.022-1.93.035-.121-.115-.121-.527 0-.642l.299-.014c1.12-.066 1.44-.246 1.47-1.59l.001-7.99c0-1.62-.346-1.72-1.77-1.77-.122-.117-.122-.527 0-.644l1.48.03c.23.004.465.007.725.008l.411.002c1.04 0 1.64-.021 2.64-.04zm-21.6 0c.122.116.122.526 0 .644l-.298.014c-1.12.065-1.44.245-1.47 1.59l-.001 7.99c0 1.62.347 1.72 1.77 1.77.122.114.122.526 0 .642l-1.48-.029a69.356 69.356 0 0 0-1.14-.009l-.71.003c-.653.007-1.18.022-1.93.035-.121-.115-.121-.527 0-.642l.299-.014c1.12-.066 1.44-.246 1.47-1.59l.001-7.99c0-1.62-.346-1.72-1.77-1.77-.122-.117-.122-.527 0-.644l1.48.03c.23.004.465.007.725.008l.411.002c1.04 0 1.64-.021 2.64-.04zm48.7-.04c.047 0 .07.012.078.034l.042.217c.094.528.324 1.96.409 2.63a1.177 1.177 0 0 1-.67.098l-.17-.497c-.38-1.04-.8-1.63-2.12-1.63h-2.13c-.487 0-.73.39-.73.856v3.9h1.85c1.73.002 1.79-.25 1.85-1.32.123-.116.548-.116.67 0l-.028.81c-.005.174-.009.354-.011.552l-.002.314c0 .662.021 1.03.042 1.72-.123.115-.548.115-.671 0l-.025-.297c-.075-.682-.303-1.03-1.82-1.03h-1.85v4.7c0 .526.283.838.73.838h2.76c1.54 0 2.25-1.15 2.66-2.55a.948.948 0 0 1 .71.097c-.161.995-.467 2.28-.75 3.25l-1.95-.034a61.874 61.874 0 0 0-.644-.004l-4.71.005c-.538.007-1.58.021-2.29.034-.121-.115-.121-.526 0-.643l.435-.023c1.06-.076 1.33-.312 1.33-1.75v-7.82l-.006-.335c-.051-1.3-.444-1.38-1.76-1.44-.121-.116-.121-.526 0-.642l2.57.037h5.21c.486 0 .648-.02.993-.077zm12 .86h-2.5c-.547 0-.75.275-.791.76-.164 1.97-.487 3.99-.73 5.32l-.216 1.06c-.379 1.8-.736 3.21-.736 3.56 0 .233.265.333.548.333h4.44c.487 0 .73-.06.73-.78v-9.49c0-.604-.122-.758-.75-.758zM6.6 8.65H4.73v6.42c0 .908.353 1.84 2.24 1.84 4.11 0 4.87-1.67 4.87-3.68 0-2.47-1.54-4.58-5.25-4.58zM104.9.99l-.281.006c-1.48.056-3.29.588-3.29 2.99 0 2.91 1.68 3.84 3.92 3.84h2.11v-5.84c0-.908-.107-.99-2.46-.99zM7.1.936l-.44.003c-1.91.036-1.91.331-1.91 1.18l-.001 5.6h2c2.24 0 3.84-.825 3.84-3.16 0-2.8-1.97-3.62-3.49-3.62z" fill="#000" fill-rule="nonzero"/></svg>