<svg xmlns="http://www.w3.org/2000/svg" width="120" height="14"><path fill="#000" fill-rule="nonzero" d="M1.94 10.056c-.496 0-1.12.009-1.87.028C.023 10.046 0 9.97 0 9.859c0-.117.023-.2.07-.246.54-.02.882-.099 1.027-.24.15-.14.225-.499.225-1.075V2.524c0-.576-.075-.932-.225-1.068-.145-.141-.488-.22-1.027-.24C.023 1.18 0 1.103 0 .985 0 .867.023.785.07.738c.882.019 1.5.028 1.857.028.384 0 1.008-.009 1.87-.028.038.047.057.13.057.246.004.113-.015.19-.057.233-.539.018-.883.098-1.033.239-.146.136-.218.492-.218 1.068v5.964c0 .365.063.625.19.78.13.15.342.225.632.225h.907c.704 0 1.229-.164 1.576-.492.351-.333.609-.797.773-1.392a.746.746 0 0 1 .471.07 28.098 28.098 0 0 1-.372 2.405c-.886-.019-1.458-.028-1.716-.028H1.94ZM11.61 6.7l-1.14.303c-.914.23-1.368.757-1.364 1.582 0 .258.087.495.26.71.179.211.437.317.774.317.328 0 .75-.214 1.266-.64.136-.108.204-.232.204-.373V6.701Zm0 2.666h-.028l-.289.225c-.52.403-1.043.604-1.568.604-1.21 0-1.814-.518-1.814-1.554 0-.478.218-.9.654-1.265.436-.366 1.01-.64 1.723-.823l1.237-.303c.057-.018.085-.075.085-.168 0-1.247-.39-1.87-1.168-1.87-.318 0-.59.05-.815.154-.225.098-.338.248-.338.45 0 .136.01.23.028.281a.67.67 0 0 1 .05.26c0 .108-.066.218-.197.33a.74.74 0 0 1-.486.163c-.337 0-.504-.174-.499-.52 0-.404.246-.77.739-1.098a2.883 2.883 0 0 1 1.638-.499c1.449 0 2.173.811 2.173 2.433v2.117c0 .201.002.36.007.478.005.112.021.237.05.373.027.135.072.232.133.288a.355.355 0 0 0 .239.084c.173 0 .351-.077.534-.232.136.075.218.206.246.394-.365.356-.822.532-1.37.527-.33 0-.561-.07-.697-.21-.131-.146-.22-.352-.267-.62Zm7.749-3.376 2.609-.042c.145 0 .215-.066.21-.197 0-.548-.116-.937-.35-1.167a1.163 1.163 0 0 0-.845-.345c-.126 0-.25.017-.372.05a1.85 1.85 0 0 0-.45.21c-.179.104-.34.284-.486.542-.145.258-.25.574-.316.95Zm3.776 2.729c.164.009.265.084.302.225-.642.834-1.46 1.251-2.454 1.251-.951 0-1.685-.307-2.2-.92-.45-.521-.676-1.231-.676-2.132 0-1.017.305-1.835.914-2.454.61-.618 1.264-.928 1.962-.928 1.622 0 2.433.835 2.433 2.503 0 .165-.089.247-.267.247l-3.832-.028c0 .806.152 1.464.457 1.975.422.69.947 1.034 1.575 1.034.403 0 .731-.056.984-.169.258-.117.525-.318.802-.604Zm3.53-3.819c.68-.778 1.467-1.167 2.363-1.167.548 0 .947.164 1.195.492.258.347.387.99.387 1.927v2.145c0 .567.054.919.162 1.054.112.132.38.218.801.26.038.048.057.13.057.247 0 .112-.02.187-.057.225a47.592 47.592 0 0 0-1.526-.028c-.403 0-.893.009-1.47.028-.037-.047-.055-.127-.055-.24 0-.117.018-.194.056-.231.394-.038.64-.125.738-.26.103-.136.155-.488.155-1.055V6.11c0-.511-.056-.882-.169-1.111-.183-.347-.438-.52-.766-.52-.586 0-1.172.283-1.758.85a.886.886 0 0 0-.246.605v2.363c0 .567.049.919.147 1.054.103.132.347.218.731.26.038.048.057.13.057.247.004.112-.014.187-.057.225a45.562 45.562 0 0 0-1.434-.028c-.478 0-1.008.009-1.59.028-.037-.038-.055-.113-.055-.225 0-.117.018-.2.056-.246.45-.038.731-.122.844-.254.112-.13.168-.485.168-1.061V5.492c0-.403-.056-.656-.168-.76-.108-.107-.366-.18-.774-.218-.056-.164-.066-.3-.028-.407.713-.094 1.303-.232 1.772-.415.075 0 .134.037.176.112.056.117.094.483.112 1.097 0 .127.059.127.176 0Zm5.858 3.165c.047-.047.122-.07.225-.07.103 0 .178.018.225.056.154.651.342 1.094.562 1.329.22.23.56.344 1.02.344.31 0 .59-.087.844-.26.253-.173.38-.422.38-.745 0-.32-.099-.575-.296-.767-.197-.192-.588-.408-1.174-.647-.577-.239-.985-.497-1.224-.773-.239-.282-.358-.678-.358-1.189 0-.45.201-.83.604-1.139.404-.314.88-.471 1.428-.471.22 0 .445.016.675.05.23.032.471.077.724.133.258.051.42.082.485.091-.018.511-.046 1.02-.084 1.526-.047.047-.124.07-.232.07-.108 0-.185-.018-.232-.056a2.08 2.08 0 0 0-.24-.717.99.99 0 0 0-.386-.408 1.647 1.647 0 0 0-.394-.169 1.25 1.25 0 0 0-.316-.042c-.258 0-.492.084-.703.253a.808.808 0 0 0-.31.668c0 .361.108.626.324.795.22.164.593.344 1.118.541 1.125.418 1.687 1.055 1.687 1.913 0 .338-.08.633-.239.886-.159.249-.363.438-.611.57a3.226 3.226 0 0 1-.739.274c-.239.056-.473.084-.703.084-.469 0-.905-.051-1.308-.154a1.118 1.118 0 0 0-.288-.029 1.96 1.96 0 0 0-.359.043 29.808 29.808 0 0 0-.105-1.99Zm6.23-6.639c0-.173.082-.33.246-.47.164-.146.333-.219.506-.219.183 0 .343.08.479.24.14.159.21.328.21.506 0 .164-.077.32-.232.47a.707.707 0 0 1-.513.226c-.173 0-.333-.08-.478-.24a.75.75 0 0 1-.218-.513Zm1.315 6.87c0 .577.056.934.169 1.07.117.13.405.213.865.246.047.047.07.129.07.246 0 .112-.023.187-.07.225a55.408 55.408 0 0 0-1.597-.028c-.44 0-.98.009-1.617.028-.037-.038-.056-.113-.056-.225 0-.117.019-.2.056-.246.46-.038.748-.122.865-.254.117-.13.176-.485.176-1.061V5.492c0-.403-.056-.656-.169-.76-.108-.107-.363-.18-.766-.218-.057-.164-.066-.3-.029-.407.891-.118 1.547-.256 1.97-.415.126 0 .19.033.19.098a27.2 27.2 0 0 0-.057 1.639v2.869Zm7.032.45c-.338.559-.694.94-1.069 1.147-.37.202-.797.302-1.28.302-.89 0-1.589-.283-2.095-.85-.502-.572-.753-1.334-.753-2.286 0-.97.303-1.767.907-2.39.605-.624 1.287-.936 2.047-.936.68 0 1.216.127 1.61.38.394.253.59.581.59.984a.555.555 0 0 1-.224.471.783.783 0 0 1-.478.17c-.329 0-.511-.174-.549-.521a1.805 1.805 0 0 0-.098-.493c-.043-.121-.141-.236-.296-.344-.15-.113-.36-.169-.633-.169-.478 0-.872.228-1.181.682-.305.455-.457 1.071-.457 1.85 0 .825.187 1.49.562 1.997.376.501.83.752 1.365.752.66 0 1.237-.316 1.73-.95.154.02.255.088.302.205Zm1.8-.45V2.005c0-.53-.05-.85-.148-.963-.093-.117-.354-.19-.78-.218-.108-.108-.136-.251-.085-.43.854-.065 1.526-.196 2.019-.393.126 0 .19.05.19.148a17.6 17.6 0 0 0-.064 1.512v6.638c0 .576.061.935.183 1.076.122.136.408.215.858.239.037.047.056.129.056.246 0 .112-.019.187-.056.225a55.567 55.567 0 0 0-1.603-.028c-.403 0-.94.009-1.61.028-.048-.038-.071-.113-.071-.225 0-.117.023-.2.07-.246.45-.02.736-.099.858-.24.122-.14.183-.499.183-1.075Zm3.017-1.195c0-.951.265-1.739.794-2.362.572-.67 1.325-1.006 2.258-1.006.689 0 1.27.171 1.744.513.478.338.81.743.998 1.217.188.469.281.973.281 1.512 0 1.003-.311 1.81-.935 2.419-.548.539-1.254.806-2.116.801-.962 0-1.707-.311-2.237-.935a3.253 3.253 0 0 1-.787-2.159ZM54.75 4.24c-1.065 0-1.597.844-1.597 2.532 0 .31.036.623.106.942.075.314.183.626.323.935.146.305.352.556.62.753.271.197.585.295.941.295.422 0 .795-.173 1.119-.52.328-.347.492-.929.492-1.744 0-1.027-.178-1.814-.535-2.363-.356-.553-.846-.83-1.47-.83Zm6.35 1.048a.954.954 0 0 0-.226.633v2.623c0 .253.02.426.057.52.042.094.138.209.288.345.225.201.565.302 1.02.302.384 0 .715-.08.991-.239.281-.16.492-.375.633-.647.145-.272.249-.55.31-.837.065-.29.098-.6.098-.928 0-.788-.167-1.427-.5-1.92-.328-.497-.733-.745-1.216-.745-.201 0-.448.089-.738.267a2.827 2.827 0 0 0-.717.626Zm-.275-.534c.01.145.064.166.162.063.642-.722 1.3-1.083 1.976-1.083.722 0 1.327.293 1.814.879.488.586.732 1.273.732 2.06 0 1.125-.354 2.033-1.062 2.722-.568.539-1.275.806-2.124.801-.469 0-.886-.072-1.252-.218-.075-.037-.126-.051-.154-.042-.028.01-.043.059-.043.148v1.554c0 .576.064.933.19 1.069.132.136.462.218.992.246.047.047.07.126.07.239 0 .117-.023.194-.07.232a59.328 59.328 0 0 0-1.744-.028c-.403 0-.942.01-1.617.028-.038-.038-.057-.115-.057-.232 0-.113.02-.192.057-.24.45-.018.736-.098.857-.238.122-.14.183-.5.183-1.076V5.492c0-.403-.056-.656-.168-.76-.108-.107-.364-.18-.767-.218-.056-.164-.066-.3-.028-.407.713-.094 1.303-.232 1.772-.415.075 0 .131.037.169.112.047.113.084.43.112.95Zm7.138 1.237 2.609-.042c.145 0 .215-.066.21-.197 0-.548-.117-.937-.351-1.167a1.163 1.163 0 0 0-.844-.345c-.127 0-.25.017-.373.05a1.85 1.85 0 0 0-.45.21c-.178.104-.34.284-.485.542-.145.258-.25.574-.316.95ZM71.74 8.72c.164.009.265.084.302.225-.642.834-1.46 1.251-2.454 1.251-.952 0-1.685-.307-2.2-.92-.451-.521-.676-1.231-.676-2.132 0-1.017.305-1.835.914-2.454.61-.618 1.264-.928 1.962-.928 1.622 0 2.433.835 2.433 2.503 0 .165-.089.247-.267.247l-3.833-.028c0 .806.153 1.464.458 1.975.421.69.947 1.034 1.575 1.034.403 0 .731-.056.984-.169.258-.117.525-.318.802-.604Zm5.963-.45V5.534c0-.22-.017-.375-.05-.464a.9.9 0 0 0-.196-.316c-.296-.347-.685-.518-1.168-.514-.576 0-1.024.24-1.343.718-.276.393-.414 1.03-.414 1.912 0 .844.157 1.498.47 1.962.32.46.69.69 1.112.69.375 0 .827-.23 1.357-.69.155-.136.232-.323.232-.562ZM77.54 9.33c-.703.577-1.303.865-1.8.865-.76 0-1.357-.281-1.793-.844-.436-.567-.654-1.307-.654-2.222 0-1.026.33-1.87.991-2.531a3.021 3.021 0 0 1 2.16-.865c.145 0 .304.021.477.063.174.042.321.085.443.127.127.037.195.056.204.056.085 0 .13-.044.134-.133V2.004c0-.31-.01-.539-.028-.689-.014-.155-.075-.267-.183-.338-.103-.075-.183-.114-.24-.12a38.323 38.323 0 0 0-.477-.034c-.108-.108-.136-.251-.085-.43.854-.065 1.526-.196 2.018-.393.127 0 .19.05.19.148a17.6 17.6 0 0 0-.063 1.512v6.525c0 .375.066.635.197.78.131.141.417.23.858.268.047.047.07.115.07.204 0 .084-.023.148-.07.19-.769.084-1.336.274-1.702.57a.348.348 0 0 1-.274 0 5.487 5.487 0 0 1-.155-.845c-.01-.046-.04-.07-.091-.07a.187.187 0 0 0-.127.05Zm3.77-7.904c0-.173.081-.33.245-.47.164-.146.333-.219.507-.219.183 0 .342.08.478.24.14.159.21.328.21.506 0 .164-.077.32-.231.47a.707.707 0 0 1-.514.226c-.173 0-.332-.08-.478-.24a.75.75 0 0 1-.218-.513Zm1.314 6.87c0 .577.057.934.169 1.07.117.13.406.213.865.246.047.047.07.129.07.246 0 .112-.023.187-.07.225a55.408 55.408 0 0 0-1.596-.028c-.441 0-.98.009-1.618.028-.037-.038-.056-.113-.056-.225 0-.117.019-.2.056-.246.46-.038.748-.122.865-.254.117-.13.176-.485.176-1.061V5.492c0-.403-.056-.656-.169-.76-.108-.107-.363-.18-.766-.218-.056-.164-.066-.3-.028-.407.89-.118 1.547-.256 1.969-.415.126 0 .19.033.19.098a27.2 27.2 0 0 0-.057 1.639v2.869Zm5.52-1.596-1.139.303c-.914.23-1.369.757-1.364 1.582 0 .258.087.495.26.71.178.211.436.317.774.317.328 0 .75-.214 1.265-.64.136-.108.204-.232.204-.373V6.701Zm0 2.666h-.028l-.288.225c-.52.403-1.043.604-1.568.604-1.21 0-1.814-.518-1.814-1.554 0-.478.218-.9.654-1.265.435-.366 1.01-.64 1.722-.823l1.238-.303c.056-.018.084-.075.084-.168 0-1.247-.389-1.87-1.167-1.87-.319 0-.59.05-.816.154-.225.098-.337.248-.337.45 0 .136.01.23.028.281a.67.67 0 0 1 .05.26c0 .108-.066.218-.198.33a.74.74 0 0 1-.485.163c-.337 0-.504-.174-.5-.52 0-.404.247-.77.74-1.098a2.883 2.883 0 0 1 1.638-.499c1.448 0 2.172.811 2.172 2.433v2.117c0 .201.003.36.007.478.005.112.022.237.05.373.028.135.072.232.133.288a.355.355 0 0 0 .24.084c.173 0 .351-.077.534-.232.136.075.218.206.246.394-.366.356-.823.532-1.371.527-.328 0-.56-.07-.696-.21-.132-.146-.22-.352-.268-.62Zm7.335-1.07V2.005c0-.53-.05-.85-.148-.963-.094-.117-.354-.19-.78-.218-.108-.108-.137-.251-.085-.43C95.32.329 95.993.198 96.485 0c.127 0 .19.05.19.148-.037.384-.059.888-.063 1.512v6.638c0 .576.06.935.183 1.076.121.136.407.215.857.239.038.047.057.129.057.246 0 .112-.019.187-.057.225a55.652 55.652 0 0 0-1.603-.028c-.403 0-.94.01-1.61.028-.047-.038-.07-.113-.07-.225 0-.117.023-.2.07-.246.45-.02.736-.099.858-.24.122-.14.183-.499.183-1.075Zm3.72-6.87c0-.173.082-.33.246-.47.164-.146.332-.219.506-.219.183 0 .342.08.478.24.14.159.211.328.211.506 0 .164-.077.32-.232.47a.707.707 0 0 1-.513.226c-.174 0-.333-.08-.478-.24a.75.75 0 0 1-.218-.513Zm1.314 6.87c0 .577.057.934.17 1.07.116.13.405.213.864.246.047.047.07.129.07.246 0 .112-.023.187-.07.225a55.493 55.493 0 0 0-1.596-.028c-.44 0-.98.01-1.617.028-.038-.038-.057-.113-.057-.225 0-.117.02-.2.057-.246.459-.038.747-.122.865-.253.117-.132.175-.486.175-1.062V5.492c0-.403-.056-.656-.168-.76-.108-.107-.364-.18-.767-.217-.056-.165-.066-.3-.028-.408.89-.118 1.547-.256 1.969-.415.127 0 .19.033.19.098a27.19 27.19 0 0 0-.056 1.639v2.869Zm3.805-3.466c-.164.145-.244.347-.24.605v3.6c.366.45.71.675 1.034.675.661 0 1.165-.265 1.512-.794.347-.535.52-1.231.52-2.089 0-.69-.156-1.27-.47-1.744-.31-.478-.687-.717-1.133-.717-.468 0-.876.155-1.223.464Zm-.099-.45c.479-.431 1.015-.647 1.61-.647.662 0 1.252.265 1.773.795.52.525.78 1.204.78 2.039 0 1.073-.333 1.948-.998 2.623-.661.67-1.39 1.005-2.187 1.005-.563 0-.985-.117-1.266-.351-.08-.066-.148-.096-.204-.092-.051 0-.115.043-.19.127-.07.08-.183.197-.337.352-.146 0-.251-.06-.317-.176.038-.183.057-.523.057-1.02V2.004c0-.31-.007-.539-.021-.689-.015-.155-.075-.267-.183-.338-.103-.075-.185-.114-.246-.119a39.965 39.965 0 0 0-.472-.035c-.107-.108-.138-.251-.09-.43.852-.065 1.525-.196 2.017-.393.127 0 .19.05.19.148a16.23 16.23 0 0 0-.056 1.512v2.65c0 .132.047.155.14.07Zm7.215.52c0 .047.014.08.042.099.033.018.073-.005.12-.07.192-.329.429-.61.71-.844.286-.235.581-.352.886-.352.277 0 .49.075.64.225.15.145.225.3.225.464 0 .183-.07.35-.21.5a.613.613 0 0 1-.465.224c-.178 0-.352-.112-.52-.337a.447.447 0 0 0-.373-.183c-.117 0-.338.234-.661.703-.23.347-.345.668-.345.964v2.004c0 .576.064.93.19 1.061.131.127.462.211.992.254.047.046.07.129.07.246 0 .112-.023.187-.07.225a63.598 63.598 0 0 0-1.744-.028c-.422 0-.97.009-1.646.028-.037-.038-.056-.113-.056-.225 0-.117.019-.2.056-.246.47-.029.764-.11.886-.246s.183-.493.183-1.07V5.493c0-.403-.056-.656-.169-.76-.107-.107-.363-.18-.766-.218-.056-.164-.066-.3-.028-.407.712-.094 1.3-.232 1.765-.415.075 0 .133.037.176.112.047.117.084.483.112 1.097Zm4.486 1.09 2.61-.042c.145 0 .215-.066.21-.197 0-.548-.117-.937-.351-1.167a1.163 1.163 0 0 0-.844-.345c-.127 0-.251.017-.373.05a1.85 1.85 0 0 0-.45.21c-.178.104-.34.284-.485.542-.145.258-.25.574-.317.95Zm3.777 2.729c.164.009.264.084.302.225-.642.834-1.46 1.251-2.454 1.251-.952 0-1.685-.307-2.201-.92-.45-.521-.675-1.231-.675-2.132 0-1.017.305-1.835.914-2.454.61-.618 1.263-.928 1.962-.928 1.622 0 2.433.835 2.433 2.503 0 .165-.09.247-.267.247l-3.833-.028c0 .806.153 1.464.457 1.975.422.69.947 1.034 1.576 1.034.403 0 .73-.056.984-.169.258-.117.525-.318.802-.604Z"/></svg>