<svg viewBox="0 0 120 10" xmlns="http://www.w3.org/2000/svg"><path d="M93.162 3.434a1.609 1.609 0 0 1 .911.259c.082.057.135.086.16.086h.573v.373h-.47c.056.191.085.37.085.535 0 .377-.185.724-.554 1.043-.363.32-.758.479-1.184.479-.087 0-.169-.007-.244-.02l-.112-.019c-.063 0-.135.048-.216.144-.082.095-.122.178-.122.248 0 .102.103.198.31.287a7.901 7.901 0 0 0 .685.23c.25.07.479.204.685.402.213.198.32.446.32.746 0 .415-.182.75-.545 1.005-.363.261-.839.392-1.427.392-.476 0-.858-.1-1.146-.297a.924.924 0 0 1-.422-.794c0-.217.065-.402.197-.555.086-.095.236-.222.449-.38l.286-.204a17.767 17.767 0 0 1 .166-.114c-.169-.127-.253-.252-.253-.373 0-.115.05-.23.15-.344.071-.077.18-.17.326-.281l.247-.179c-.27-.127-.46-.267-.573-.42-.113-.16-.169-.364-.169-.613 0-.453.185-.838.554-1.157.37-.32.814-.479 1.333-.479Zm-1.399 3.951a.147.147 0 0 0-.052.019l-.098.055a3.51 3.51 0 0 0-.066.041 1.713 1.713 0 0 0-.385.373.937.937 0 0 0-.197.564c0 .307.103.546.31.718.213.172.507.258.883.258.363 0 .663-.086.901-.258.244-.172.366-.386.366-.641a.675.675 0 0 0-.047-.258.632.632 0 0 0-.16-.22l-.141-.115a2.446 2.446 0 0 0-.065-.048 1.703 1.703 0 0 0-.291-.153l-.164-.065-.338-.12-.409-.13-.037-.018a.033.033 0 0 0-.01-.002Zm-23.449.976c.119 0 .222.048.31.143.094.096.14.205.14.326a.432.432 0 0 1-.14.325.417.417 0 0 1-.32.144.446.446 0 0 1-.328-.144.459.459 0 0 1-.132-.335c0-.127.044-.236.132-.325a.474.474 0 0 1 .338-.134ZM15.152 3.425l-.188 1.33h-.15c-.094-.734-.382-1.1-.864-1.1a.515.515 0 0 0-.385.143.49.49 0 0 0-.14.373c0 .153.059.332.178.536a4.08 4.08 0 0 0 .394.564c.144.166.275.364.394.593.12.23.179.447.179.65 0 .364-.129.664-.385.9-.25.23-.573.344-.967.344-.126 0-.295-.032-.507-.095a2.032 2.032 0 0 0-.47-.086c-.087 0-.163.067-.225.2h-.15l.187-1.52h.15c.076.452.188.784.339.994a.743.743 0 0 0 .62.306.65.65 0 0 0 .497-.2.753.753 0 0 0 .197-.536c0-.185-.06-.383-.178-.593a2.537 2.537 0 0 0-.385-.546 3.255 3.255 0 0 1-.385-.564 1.367 1.367 0 0 1-.17-.631c0-.32.104-.574.31-.766.207-.191.483-.287.827-.287.125 0 .285.029.479.086l.206.05c.085.018.145.027.179.027a.303.303 0 0 0 .281-.172h.132Zm4.33.01.066.028-.057.201-.393 1.495-.233.932-.147.647-.047.25-.014.11a.488.488 0 0 0-.001.039c0 .082.044.124.131.124a.22.22 0 0 0 .094-.029l.088-.068.161-.14a1.226 1.226 0 0 0 .042-.04l.045-.051.321-.332.113.096-.242.297c-.225.269-.401.453-.528.554a.849.849 0 0 1-.535.2c-.25 0-.376-.13-.376-.391 0-.036.004-.081.01-.137l.033-.199a6.814 6.814 0 0 1 .024-.122l.064-.29.085-.353-.264.367c-.294.394-.54.67-.74.83-.257.203-.551.305-.883.305-.3 0-.535-.092-.704-.277-.17-.191-.254-.453-.254-.784 0-.492.135-.992.404-1.502.275-.51.623-.931 1.042-1.263.426-.332.839-.498 1.24-.498.419 0 .67.185.75.555l.104-.459.028-.029.573-.067Zm99.945-.996c.157 0 .291.074.404.22a.853.853 0 0 1 .17.536c0 .383-.13.689-.386.918-.256.23-.513.348-.77.354a1.207 1.207 0 0 1-.328-.047c.037.108.056.252.056.43 0 .663-.294 1.314-.883 1.952-.582.638-1.195.956-1.84.956-.445 0-.792-.118-1.042-.354s-.376-.577-.376-1.023c0-.702.288-1.368.864-2 .582-.631 1.214-.947 1.896-.947.25 0 .46.042.63.125.169.076.288.162.356.258.07.096.16.185.273.268a.684.684 0 0 0 .394.115c.207 0 .416-.106.63-.316.218-.21.328-.415.328-.612 0-.128-.05-.192-.15-.192-.025 0-.063.016-.113.048a.275.275 0 0 1-.14.039.341.341 0 0 1-.254-.106.388.388 0 0 1-.104-.268.31.31 0 0 1 .113-.248.384.384 0 0 1 .272-.106Zm-49.366.995c.4 0 .723.125.967.373.25.25.375.571.375.967 0 .42-.121.86-.366 1.32a3.527 3.527 0 0 1-1.014 1.176c-.438.326-.898.488-1.38.488-.426 0-.764-.118-1.014-.354-.244-.242-.366-.57-.366-.985 0-.753.29-1.438.873-2.057.582-.618 1.224-.928 1.925-.928ZM42.419 2.44c.157 0 .292.074.404.22a.854.854 0 0 1 .17.536c0 .383-.13.689-.386.918-.256.23-.513.348-.77.354a1.207 1.207 0 0 1-.328-.047c.037.108.056.252.056.43 0 .663-.294 1.314-.883 1.952-.582.638-1.195.956-1.84.956-.445 0-.792-.118-1.042-.354s-.376-.577-.376-1.023c0-.702.288-1.368.864-2 .582-.631 1.214-.947 1.897-.947.25 0 .46.042.629.125.169.076.288.162.357.258.068.096.16.185.272.268a.684.684 0 0 0 .394.115c.207 0 .417-.106.63-.316.218-.21.328-.415.328-.612 0-.128-.05-.192-.15-.192-.025 0-.063.016-.113.048a.275.275 0 0 1-.14.039.341.341 0 0 1-.254-.106.388.388 0 0 1-.103-.268.31.31 0 0 1 .112-.248.384.384 0 0 1 .272-.106Zm31.51-.009c.05 0 .075.032.075.096a.108.108 0 0 1-.009.048l-.263.985h.751l-.047.306h-.788L72.82 7.05a.16.16 0 0 0-.01.048c0 .128.048.192.142.192.075 0 .162-.048.263-.144l.102-.112.134-.163.166-.212a20.73 20.73 0 0 0 .095-.125l.122.067c-.294.446-.535.753-.723.918a.925.925 0 0 1-.61.24.495.495 0 0 1-.32-.106.32.32 0 0 1-.13-.258l.002-.045.024-.134.07-.283.12-.437.675-2.631h-.694a.184.184 0 0 1-.01-.058c0-.063.04-.118.122-.162.082-.051.185-.099.31-.144.125-.05.291-.159.498-.325a3.67 3.67 0 0 0 .62-.66c.043-.057.09-.086.14-.086ZM22.551 3.434c.282 0 .516.074.704.22a.676.676 0 0 1 .282.555.436.436 0 0 1-.45.44c-.245 0-.367-.12-.367-.363 0-.064.022-.147.066-.249a.713.713 0 0 0 .075-.21c0-.128-.12-.192-.357-.192-.376 0-.71.153-1.005.46-.294.3-.513.653-.657 1.061-.138.402-.207.791-.207 1.167 0 .338.075.606.226.804.15.191.36.287.629.287.232 0 .447-.058.648-.172.206-.121.438-.322.695-.603l.15.096c-.282.363-.56.625-.836.784a1.84 1.84 0 0 1-.939.24c-.438 0-.78-.125-1.023-.374-.238-.255-.357-.609-.357-1.062 0-.746.278-1.412.836-1.999.557-.593 1.186-.89 1.887-.89Zm25.474 0c.281 0 .516.074.704.22a.676.676 0 0 1 .282.555.436.436 0 0 1-.451.44c-.244 0-.366-.12-.366-.363a.67.67 0 0 1 .065-.249.715.715 0 0 0 .075-.21c0-.128-.119-.192-.356-.192-.376 0-.71.153-1.005.46-.294.3-.513.653-.657 1.061-.138.402-.207.791-.207 1.167 0 .338.075.606.225.804.15.191.36.287.63.287a1.282 1.282 0 0 0 .647-.172c.207-.121.439-.322.695-.603l.15.096c-.281.363-.56.625-.835.784a1.84 1.84 0 0 1-.94.24c-.437 0-.779-.125-1.023-.374-.238-.255-.357-.609-.357-1.062 0-.746.28-1.412.836-1.999.557-.593 1.186-.89 1.888-.89Zm38.955 0c.232 0 .414.058.545.172a.589.589 0 0 1 .207.479c0 .414-.226.784-.676 1.11-.451.325-1.027.539-1.728.64l-.263.039a2.682 2.682 0 0 0-.094.593c0 .261.078.472.235.631.162.153.378.23.648.23.2 0 .394-.048.582-.144a2.416 2.416 0 0 0 .18-.109l.215-.153a9.755 9.755 0 0 0 .394-.312l.112.115c-.275.325-.585.58-.93.766a2.193 2.193 0 0 1-1.013.267c-.37 0-.67-.12-.902-.363-.225-.242-.338-.558-.338-.947 0-.466.14-.935.423-1.406a3.646 3.646 0 0 1 1.08-1.158c.444-.3.885-.45 1.323-.45Zm-30.747 0c.4 0 .723.125.967.373.25.25.375.571.375.967 0 .42-.122.86-.366 1.32a3.528 3.528 0 0 1-1.014 1.176c-.438.326-.898.488-1.38.488-.426 0-.764-.118-1.014-.354-.245-.242-.367-.57-.367-.985 0-.752.291-1.438.874-2.057.582-.618 1.223-.928 1.925-.928ZM78.88 2.43c.05 0 .075.032.075.096l-.002.026-.27 1.007h.751l-.047.306H78.6l-.826 3.185a.16.16 0 0 0-.01.048c0 .128.048.192.142.192.075 0 .162-.048.263-.144l.101-.112.135-.163.261-.337.122.067c-.294.446-.535.753-.723.918a.925.925 0 0 1-.61.24.495.495 0 0 1-.32-.106.32.32 0 0 1-.13-.258.65.65 0 0 1 .01-.105l.036-.163.169-.631.676-2.631H77.2a.184.184 0 0 1-.01-.058c0-.063.042-.118.123-.162a1.6 1.6 0 0 1 .31-.144c.125-.05.29-.159.498-.325a3.67 3.67 0 0 0 .62-.66c.043-.057.09-.086.14-.086Zm23.674.01c.156 0 .291.073.404.22a.853.853 0 0 1 .169.535c0 .383-.129.69-.385.919-.257.23-.514.347-.77.354a1.207 1.207 0 0 1-.329-.048c.038.108.056.252.056.43 0 .664-.294 1.314-.882 1.952-.582.638-1.196.956-1.84.956-.445 0-.792-.118-1.043-.354-.25-.235-.375-.577-.375-1.023 0-.702.287-1.368.863-2 .583-.63 1.215-.946 1.897-.946.25 0 .46.04.63.124.168.076.287.162.356.258s.16.185.272.268a.684.684 0 0 0 .395.115c.206 0 .416-.105.629-.316.219-.21.329-.414.329-.612 0-.128-.05-.191-.15-.191-.026 0-.063.016-.113.047a.275.275 0 0 1-.141.039.342.342 0 0 1-.254-.106.388.388 0 0 1-.103-.267.31.31 0 0 1 .113-.25.384.384 0 0 1 .272-.104Zm1.999.995.028.019-.911 3.398-.042.17-.021.11a.268.268 0 0 0-.003.033c0 .032.016.064.047.096s.066.048.104.048c.144 0 .4-.249.77-.746l.122.105c-.27.402-.501.686-.695.851a.96.96 0 0 1-.62.24c-.288 0-.432-.182-.432-.546 0-.046.005-.103.013-.17l.039-.23a6.26 6.26 0 0 1 .029-.137l.077-.322.5-1.877a1.69 1.69 0 0 0 .084-.42c0-.096-.038-.157-.113-.182a.763.763 0 0 0-.171-.032l-.19-.012a6.577 6.577 0 0 0-.118-.004v-.153l.224-.025.287-.041.35-.058.642-.116Zm-7.74 0 .029.019-.935 3.49-.031.14a.488.488 0 0 0-.01.081c0 .032.015.064.046.096s.066.048.103.048c.144 0 .401-.249.77-.746l.122.105c-.269.402-.5.685-.694.851a.96.96 0 0 1-.62.24c-.288 0-.432-.182-.432-.546 0-.092.017-.226.052-.4l.064-.29.09-.353.451-1.693c.057-.191.085-.332.085-.42 0-.096-.038-.157-.113-.183a.763.763 0 0 0-.171-.03l-.19-.013a6.577 6.577 0 0 0-.118-.004v-.153l.224-.025.286-.042.35-.057.643-.116Zm-90.188 0 .028.019L5.8 6.926a.293.293 0 0 0-.01.086c0 .16.066.24.198.24.224 0 .522-.251.891-.752l.21-.298.222-.347c.17-.276.305-.515.403-.717l.101-.223.133-.327.245-.65.151-.417h.695l-.812 3.135-.1.414-.008.057c0 .109.034.163.103.163.075 0 .163-.048.263-.144l.104-.108.138-.162.174-.215c.032-.04.066-.082.1-.127l.132.086-.225.319c-.21.288-.376.485-.498.59a.85.85 0 0 1-.573.21.474.474 0 0 1-.338-.114.494.494 0 0 1-.112-.345l.002-.049.017-.137.034-.19.085-.385.172-.696.112-.428-.282.472a19.785 19.785 0 0 1-.26.414l-.238.355a5.604 5.604 0 0 1-.497.634c-.313.326-.635.488-.967.488s-.498-.175-.498-.526c0-.03.003-.07.01-.12l.028-.178.047-.236.105-.46.045-.182.382-1.496.054-.229.032-.168a.742.742 0 0 0 .01-.107c0-.089-.043-.15-.13-.182-.082-.031-.226-.047-.433-.047v-.134a12.79 12.79 0 0 0 1.409-.259Zm106.523 0c.156 0 .288.057.394.172.107.114.16.258.16.43 0 .102-.01.191-.028.268l-.639 2.401-.086.376a.376.376 0 0 0-.008.055c0 .102.04.153.122.153s.17-.045.263-.134l.101-.11.327-.382.107-.13.141.115a4.607 4.607 0 0 1-.695.803 1.03 1.03 0 0 1-.704.287c-.25 0-.375-.146-.375-.44l.002-.043.02-.134.04-.196.06-.258.544-2.2c.044-.16.066-.271.066-.335a.185.185 0 0 0-.056-.134.168.168 0 0 0-.132-.067c-.138 0-.316.099-.535.296-.213.192-.435.45-.667.775a5.03 5.03 0 0 0-.563 1.024 6.84 6.84 0 0 0-.141.406l-.104.346-.113.407-.121.467h-.704l.588-2.246.302-1.221a.108.108 0 0 0 .002-.015c0-.16-.063-.24-.188-.24-.163 0-.372.125-.63.374a5.263 5.263 0 0 0-.778.976c-.163.249-.301.52-.414.813l-.126.365-.106.329-.265.865h-.705l.192-.727.512-1.882.163-.65.034-.161.018-.106a.303.303 0 0 0 .002-.032c0-.14-.122-.21-.367-.211h-.234v-.153l.835-.16.464-.094.203-.043.028.02-.544 1.999c.838-1.346 1.536-2.019 2.094-2.019a.5.5 0 0 1 .385.163c.1.109.15.246.15.411a.919.919 0 0 1-.013.134l-.037.192a5.454 5.454 0 0 1-.028.117l-.12.44-.178.572c.489-.785.905-1.327 1.25-1.627.3-.268.578-.402.835-.402ZM51.333 1.119l.047.048-1.127 4.286c.845-1.346 1.562-2.019 2.15-2.019.182 0 .329.061.441.182a.609.609 0 0 1 .179.46.999.999 0 0 1-.01.13l-.033.184-.053.24-.12.464-.402 1.412-.107.414-.033.169a.244.244 0 0 0-.003.028.223.223 0 0 0 .038.125.152.152 0 0 0 .113.048c.075 0 .16-.045.253-.134l.1-.11.138-.164.279-.348.122.115c-.282.414-.523.701-.723.86-.194.154-.41.23-.648.23a.422.422 0 0 1-.3-.105.405.405 0 0 1-.113-.297l.003-.049.023-.15.047-.22.114-.46.517-1.98.055-.243.01-.073a.201.201 0 0 0-.084-.163.241.241 0 0 0-.178-.077c-.163 0-.385.131-.667.393-.282.261-.545.58-.789.956-.188.294-.335.58-.441.861l-.073.22-.087.288-.099.355-.173.658h-.704l1.267-4.898.09-.334.066-.27.045-.208a1.16 1.16 0 0 0 .025-.192c0-.058-.035-.112-.104-.163a.29.29 0 0 0-.197-.086.128.128 0 0 0-.056.01c-.006.006-.016.01-.028.01h-.244v-.144a14.61 14.61 0 0 0 1.474-.259Zm-25.474 0 .047.048-1.127 4.286c.845-1.346 1.562-2.019 2.15-2.019.182 0 .33.061.442.182a.609.609 0 0 1 .178.46c0 .05-.008.122-.024.215l-.043.212-.064.268-.085.323-.402 1.412-.107.415-.027.125a.456.456 0 0 0-.008.072c0 .044.012.086.037.124a.152.152 0 0 0 .113.048c.075 0 .16-.045.253-.134l.164-.185.25-.307.103-.13.122.115c-.282.414-.523.701-.723.86-.194.154-.41.23-.648.23a.422.422 0 0 1-.3-.105.406.406 0 0 1-.113-.297c0-.027.004-.065.012-.116l.035-.185.058-.254.083-.324.516-1.98.042-.18.021-.109a.214.214 0 0 0 .003-.028.201.201 0 0 0-.085-.162.242.242 0 0 0-.178-.077c-.163 0-.385.131-.667.393-.281.261-.544.58-.789.956a4.69 4.69 0 0 0-.44.861l-.074.22-.086.289-.154.557-.119.455h-.704l1.268-4.898.089-.334.066-.27.045-.208.022-.144a.5.5 0 0 0 .003-.048c0-.058-.034-.112-.103-.163a.29.29 0 0 0-.197-.086.129.129 0 0 0-.057.01c-.006.006-.015.01-.028.01h-.244v-.144a14.6 14.6 0 0 0 1.474-.259Zm40.12 2.315c.157 0 .288.058.395.173.106.114.16.258.16.43 0 .102-.01.191-.029.268l-.638 2.401-.077.328-.017.103c0 .102.04.153.122.153.081 0 .169-.045.263-.134l.101-.11.23-.266.204-.246.14.115a4.61 4.61 0 0 1-.694.803 1.03 1.03 0 0 1-.704.287c-.25 0-.376-.146-.376-.44l.003-.043.02-.134.067-.317.577-2.337c.044-.16.066-.271.066-.335a.185.185 0 0 0-.057-.134.168.168 0 0 0-.131-.067c-.138 0-.316.099-.535.296-.213.192-.435.45-.667.775a5.02 5.02 0 0 0-.563 1.024 6.84 6.84 0 0 0-.141.406l-.105.346a22.428 22.428 0 0 0-.055.196l-.178.678h-.705l.67-2.559.216-.883.006-.04c0-.16-.062-.24-.187-.24-.163 0-.373.125-.63.374a5.26 5.26 0 0 0-.779.976c-.163.249-.3.52-.413.813l-.126.365-.166.52-.206.674h-.704l.303-1.137.355-1.3.156-.603.072-.306.032-.18a.303.303 0 0 0 .002-.032c0-.14-.122-.21-.366-.211h-.235v-.153l1.077-.208.426-.089.028.02-.545 1.999c.84-1.346 1.537-2.019 2.094-2.019a.5.5 0 0 1 .385.163c.1.109.15.246.15.411l-.003.06-.025.162-.05.221-.074.28-.099.336-.124.396c.488-.785.904-1.327 1.249-1.627.3-.268.579-.402.835-.402Zm-29.838 0c.156 0 .288.058.394.173.107.114.16.258.16.43 0 .102-.01.191-.028.268l-.639 2.401-.063.267-.023.109-.008.055c0 .102.04.153.122.153s.17-.045.263-.134l.101-.11.327-.382a38.09 38.09 0 0 0 .107-.13l.141.115a4.607 4.607 0 0 1-.695.803 1.03 1.03 0 0 1-.704.287c-.25 0-.375-.147-.375-.44l.01-.102.03-.165.082-.364.544-2.2c.044-.16.066-.272.066-.335a.186.186 0 0 0-.056-.134.168.168 0 0 0-.132-.067c-.138 0-.316.099-.535.296-.213.192-.435.45-.667.775A5.02 5.02 0 0 0 34 6.027l-.092.255-.1.316-.109.377-.117.437a36.08 36.08 0 0 0-.061.241h-.704l.836-3.225.054-.243a.109.109 0 0 0 .002-.014c0-.16-.063-.24-.188-.24-.163 0-.373.125-.63.374a5.263 5.263 0 0 0-.779.976c-.162.248-.3.52-.413.813l-.08.226-.152.468-.265.865h-.705l.192-.727.417-1.524.173-.66.104-.435.026-.134.009-.079c0-.14-.122-.21-.367-.21h-.234V3.73l.835-.16.667-.137.028.02-.544 1.999c.838-1.346 1.536-2.019 2.094-2.019a.5.5 0 0 1 .385.163c.1.108.15.245.15.411a.919.919 0 0 1-.013.134l-.037.191-.062.25-.087.308-.177.571c.488-.784.905-1.326 1.25-1.626.3-.268.578-.402.835-.402ZM81.685 1.12l.047.048-1.127 4.286c.845-1.346 1.562-2.019 2.15-2.019.182 0 .329.061.441.182a.609.609 0 0 1 .179.46.999.999 0 0 1-.01.13l-.033.184-.053.24-.12.464-.403 1.412-.106.414-.034.169a.244.244 0 0 0-.002.028c0 .045.013.086.038.125a.152.152 0 0 0 .112.048c.076 0 .16-.045.254-.134l.1-.11.138-.164.279-.348.122.115c-.282.414-.523.701-.723.86-.194.154-.41.23-.648.23a.422.422 0 0 1-.3-.105.406.406 0 0 1-.114-.297l.003-.049.024-.15.047-.22.114-.46.517-1.98.055-.243.01-.073a.201.201 0 0 0-.084-.163.241.241 0 0 0-.179-.077c-.162 0-.385.131-.666.393-.282.261-.545.58-.789.956-.188.294-.335.58-.441.861l-.074.22-.086.288-.099.355-.173.658h-.704l1.267-4.898.09-.334.066-.27.044-.208a1.16 1.16 0 0 0 .025-.192c0-.058-.034-.112-.103-.163a.29.29 0 0 0-.197-.086.13.13 0 0 0-.056.01c-.007.006-.016.01-.028.01h-.245v-.144a14.6 14.6 0 0 0 1.475-.259ZM5.39 1.406l-.413 1.56-.16-.02c.019-.165.028-.309.028-.43 0-.268-.078-.462-.235-.584-.156-.127-.403-.19-.741-.19h-.517L2.047 6.504l-.063.254-.037.188a.815.815 0 0 0-.013.122c0 .14.035.24.104.297.069.057.197.092.385.105l.15.01.206.019v.153H.056V7.5c.313-.026.542-.086.686-.182.144-.102.247-.277.31-.526l1.352-5.051h-.197c-.633 0-1.07.073-1.315.22-.244.14-.485.46-.723.957L0 2.88l.394-1.474H5.39Zm34.729 2.23c-.35 0-.68.19-.986.573a4.021 4.021 0 0 0-.695 1.254c-.15.459-.225.86-.225 1.205 0 .255.062.469.188.64.131.167.319.25.563.25.344 0 .66-.189.948-.565.295-.383.51-.8.648-1.253.144-.453.216-.848.216-1.186 0-.243-.053-.456-.16-.641a.534.534 0 0 0-.497-.278Zm77.008 0c-.35 0-.68.19-.986.573a4.02 4.02 0 0 0-.695 1.254c-.15.459-.225.86-.225 1.205 0 .255.062.469.187.64.132.167.32.25.564.25.344 0 .66-.189.948-.565.294-.383.51-.8.648-1.253.144-.453.216-.848.216-1.186 0-.243-.053-.456-.16-.641a.534.534 0 0 0-.497-.278Zm-61.007 0c-.313 0-.62.168-.92.506-.3.338-.538.743-.714 1.215a3.83 3.83 0 0 0-.263 1.33c0 .262.066.472.198.631.137.16.316.24.535.24.332 0 .641-.176.93-.527.294-.35.516-.755.666-1.215a4.05 4.05 0 0 0 .235-1.281c0-.275-.063-.492-.188-.651a.56.56 0 0 0-.479-.249Zm44.134 0c-.35 0-.679.19-.986.573a4.02 4.02 0 0 0-.694 1.254c-.15.459-.226.86-.226 1.205 0 .255.063.469.188.64.131.167.32.25.563.25.345 0 .66-.189.949-.565.294-.383.51-.8.648-1.253.144-.453.216-.848.216-1.186 0-.243-.054-.456-.16-.641a.534.534 0 0 0-.498-.278Zm-30.306 0c-.313 0-.62.168-.92.506-.3.338-.538.743-.714 1.215a3.831 3.831 0 0 0-.263 1.33c0 .262.066.472.198.631.137.16.316.24.535.24.332 0 .641-.176.93-.527.294-.35.516-.755.666-1.215a4.05 4.05 0 0 0 .235-1.281c0-.275-.063-.492-.188-.651a.56.56 0 0 0-.479-.249Zm-51.912.009c-.344 0-.673.204-.986.612a4.742 4.742 0 0 0-.695 1.282c-.15.44-.225.785-.225 1.033 0 .217.05.392.15.526.1.128.232.192.394.192.295 0 .595-.172.902-.517.307-.35.554-.765.742-1.243.194-.479.29-.912.29-1.301a.556.556 0 0 0-.572-.584Zm75.117 0c-.307 0-.576.166-.807.497a1.966 1.966 0 0 0-.338 1.148c0 .224.05.399.15.527.1.127.238.19.413.19.32 0 .582-.184.789-.554.212-.376.319-.753.319-1.129 0-.453-.175-.68-.526-.68Zm-6.37.01c-.237 0-.507.159-.807.478-.3.312-.53.682-.686 1.11l-.16.42c.339-.083.633-.185.883-.306.257-.12.451-.239.583-.354.137-.114.247-.239.328-.373.082-.134.132-.245.15-.335a.988.988 0 0 0 .038-.268.387.387 0 0 0-.094-.267.284.284 0 0 0-.235-.105ZM7.81 1.397c.188 0 .347.044.479.134.138.083.206.217.206.401a.664.664 0 0 1-.103.364.914.914 0 0 1-.225.24 2.057 2.057 0 0 0-.263.2.73.73 0 0 0-.197.258h-.32c.044-.134.116-.258.216-.373.107-.115.198-.22.273-.316a.596.596 0 0 0 .112-.363c0-.172-.084-.258-.253-.258-.22 0-.354.07-.404.21.069.064.103.128.103.191a.26.26 0 0 1-.112.23.424.424 0 0 1-.216.067.177.177 0 0 1-.141-.067.34.34 0 0 1-.047-.182c0-.16.094-.322.282-.488a.906.906 0 0 1 .61-.248ZM19.416 1.3c.094 0 .172.035.235.105a.312.312 0 0 1 .103.24.298.298 0 0 1-.16.267L17.99 2.927h-.329l1.521-1.53a.36.36 0 0 1 .235-.096Zm51.386.01.845 1.597h-.319l-.939-.985-1.342.985h-.32l1.493-1.597h.582Zm16.526-.106.845 1.598h-.32l-.938-.985-1.343.985h-.32l1.494-1.598h.582Zm14.682-.047c.17 0 .254.076.254.23a.32.32 0 0 1-.01.076c-.031.153-.153.287-.366.401l-1.634.928h-.375l1.671-1.415a.996.996 0 0 1 .263-.182.474.474 0 0 1 .197-.038ZM40.504 1.11c.188 0 .347.044.479.134.138.083.206.217.206.401a.663.663 0 0 1-.103.364.912.912 0 0 1-.225.24 2.057 2.057 0 0 0-.263.2.73.73 0 0 0-.197.258h-.32a1.07 1.07 0 0 1 .216-.373c.107-.115.198-.22.273-.316a.596.596 0 0 0 .112-.363c0-.172-.084-.258-.253-.258-.22 0-.354.07-.404.21.069.064.103.128.103.191 0 .102-.037.18-.112.23a.424.424 0 0 1-.216.067.177.177 0 0 1-.141-.067.34.34 0 0 1-.047-.182c0-.16.094-.322.282-.488a.906.906 0 0 1 .61-.248Zm77.008 0c.188 0 .347.044.479.134.137.083.206.217.206.401a.664.664 0 0 1-.103.364.912.912 0 0 1-.225.24 2.057 2.057 0 0 0-.263.2.731.731 0 0 0-.197.258h-.32c.044-.134.116-.258.216-.373.107-.115.197-.22.272-.316a.596.596 0 0 0 .113-.363c0-.172-.084-.258-.253-.258-.22 0-.354.07-.404.21.069.064.103.128.103.191 0 .102-.037.18-.113.23a.424.424 0 0 1-.216.067.177.177 0 0 1-.14-.067.34.34 0 0 1-.047-.182c0-.16.094-.322.281-.488a.906.906 0 0 1 .61-.248Zm-20.8.287c.124 0 .234.054.328.162a.519.519 0 0 1 0 .708.417.417 0 0 1-.32.144.423.423 0 0 1-.328-.134.556.556 0 0 1-.122-.373c0-.147.04-.268.122-.364a.417.417 0 0 1 .32-.143Zm7.738 0c.126 0 .235.054.33.162.093.102.14.223.14.364a.474.474 0 0 1-.14.344.417.417 0 0 1-.32.144.423.423 0 0 1-.329-.134.556.556 0 0 1-.122-.373c0-.147.04-.268.122-.364a.417.417 0 0 1 .32-.143ZM89.61 0c.094 0 .172.035.234.105a.312.312 0 0 1 .104.24.298.298 0 0 1-.16.267l-1.606 1.014h-.328l1.52-1.53A.36.36 0 0 1 89.61 0Z"/></svg>