<svg xmlns="http://www.w3.org/2000/svg" width="120" height="25"><path fill="#000" fill-rule="nonzero" d="M3.886 0C2.992.361 1.716.58 0 .707l.04.667c0 .09.048.157.156.157l.903.039c.298 0 .502.173.628.471.135.298.196.84.196 1.688v18.016c0 .885-.358 1.423-1.099 1.649l-.55.157c-.126.027-.192.13-.156.274l.196.707 3.886-1.06v-5.809c1.146-.885 2.08-1.636 2.865-2.277a38.853 38.853 0 0 0 2.552-2.315c.902-.885 1.617-1.694 2.158-2.434a11.23 11.23 0 0 0 1.374-2.434c.37-.902.55-1.78.55-2.63C13.708 1.855 12.246 0 9.302 0 8.5 0 7.721.274 6.908.824c-.803.551-1.706 1.28-2.708 2.238 0-1.201.024-2.12.078-2.787C4.278.085 4.13 0 3.886 0Zm4.788 1.374c.921 0 1.575.428 1.963 1.295.397.867.589 2.19.589 4.004 0 .866-.21 1.754-.589 2.63-.38.866-.92 1.723-1.688 2.59A32.852 32.852 0 0 1 6.79 14.13a61.316 61.316 0 0 1-2.59 2.277V4.278C5.247 3.222 6.092 2.483 6.75 2.041c.668-.442 1.31-.667 1.923-.667ZM18.99 17.319c0 .628.285 1 1.2 1.085l.599.058c.085 0 .171.056.171.17v.6l-.028.058s-2.17-.058-3.056-.058c-.8 0-3.026.058-3.026.058l-.057-.058v-.6c0-.114.085-.17.2-.17l.57-.058c.943-.086 1.228-.543 1.228-1.085V7.81c0-.626-.343-.8-1.227-.884l-.572-.059c-.114 0-.2-.026-.2-.114v-.658l.03-.057s2.255.057 3.14.057c.771 0 2.97-.057 2.97-.057l.028.057v.628c0 .086-.057.143-.171.143l-.6.058c-.885.085-1.2.314-1.2.886v9.509Zm8.426 0c0 .628.372.942 1.2 1.085l.314.058c.085.027.171.056.171.17v.6l-.028.058s-1.8-.058-2.656-.058c-.8 0-3.14.058-3.14.058l-.058-.058v-.6c0-.114.086-.17.2-.17l.571-.058c.857-.086 1.228-.543 1.228-1.085V7.81c0-.626-.314-.8-1.228-.884l-.571-.059c-.114 0-.2-.026-.2-.114v-.658l.029-.057s2.341.057 3.226.057c.8 0 2.599-.057 2.599-.057l.028.057v.628c0 .086-.057.114-.171.143l-.314.058c-.885.17-1.2.314-1.2.886v4.313c.943 0 1.485-.483 2.742-1.827 1.142-1.259 2.027-2.31 2.027-2.857 0-.23-.257-.484-.828-.572-.114-.026-.171-.057-.171-.143v-.659l.028-.026s2.313.057 3.141.057c.742 0 1.999-.057 1.999-.057l.085.026v.66c0 .085-.085.142-.228.142-1.114.086-1.885.143-2.912 1.314l-2.456 2.824c-.486.516-.657.828-.657 1.058 0 .171.114.313.257.484l4.312 5.197c.342.398 1.028.57 1.599.684l.142.027c.086.028.2.085.2.17v.6l-.085.029s-1.514-.029-2.313-.029c-.714 0-1.742.029-1.742.029l-.028-.029v-.342c0-.373-.029-.685-.429-1.141L28.93 13.8c-.427-.572-.884-.713-1.513-.713v4.232Zm15.394 0c0 .628.286 1 1.2 1.085l.599.058c.086 0 .171.056.171.17v.6l-.028.058s-2.17-.058-3.056-.058c-.799 0-3.026.058-3.026.058l-.057-.058v-.6c0-.114.085-.17.2-.17l.57-.058c.943-.086 1.228-.543 1.228-1.085V7.81c0-.626-.342-.8-1.227-.884l-.571-.059c-.115 0-.2-.026-.2-.114v-.658l.028-.057s2.256.057 3.141.057c.771 0 2.97-.057 2.97-.057l.028.057v.628c0 .086-.057.143-.171.143l-.6.058c-.885.085-1.199.314-1.199.886v9.509Zm7.255-11.223c.8 0 1.941-.057 2.998-.057 4.052 0 4.795 1.998 4.795 3.485 0 1.714-.828 4.397-4.88 4.397-.715 0-1.286-.058-1.8-.286v3.824c0 .627.342.772 1.257.914l.572.086c.114.027.2.058.2.17v.6l-.025.058s-2.1-.054-3.053-.058h-.118c-.8 0-2.941.058-2.941.058l-.029-.058v-.6c0-.114.058-.143.172-.17l.6-.086c.885-.114 1.17-.371 1.17-.914l-.003-9.593c0-.885-.371-.913-1.713-.999-.172 0-.2-.084-.2-.143v-.656l.057-.029c.428 0 2.113.057 2.94.057Zm12.058-.055c.286.006 2.283.049 4.173.055h4.465c.908-.004 2.745-.056 2.745-.056l.057.057c.028 1.221.227 2.329.426 3.408l-.71.114c-.312-1.051-.852-2.556-2.67-2.556h-1.988c-.54 0-.824.17-.824.653v4.43h1.733c.767 0 .966-.34 1.108-.908l.142-.597c.028-.113.085-.17.17-.17h.483c.057 0 .085.028.085.085-.057.653-.17 1.449-.17 2.13 0 .71.085 1.278.17 1.96l-.057.057h-.511c-.114 0-.17-.085-.199-.142l-.113-.625c-.142-.597-.37-.88-1.108-.88h-1.733v4.43c0 .54.341.71.824.71h2.017c1.732 0 2.385-1.136 2.811-2.556l.739.085c-.341 1.392-.568 2.528-.597 3.437h-6.816c-.252 0-.534.003-.82.007l-.344.006c-.856.017-1.648.044-1.648.044l-.028-.057v-.625c0-.057.028-.142.142-.142l.483-.057c.908-.113 1.164-.34 1.164-.909v-4.402h-3.18c-.54 0-.711.142-.825.37l-2.045 4.09c-.255.51.086.596.938.851l.284.057c.085.028.17.085.17.17v.597l-.028.057s-2.33-.057-2.869-.057c-.54 0-1.704.057-1.704.057l-.028-.057v-.597c0-.085.056-.17.17-.17.937-.085 1.477-.568 1.704-.966.568-.909 1.875-3.323 2.755-5.027.455-.909 2.073-4.147 2.073-4.942 0-.34-.198-.511-.937-.596-.17-.029-.17-.085-.17-.114v-.653l.057-.057Zm-9.231.827c-1.372 0-1.715.257-1.715 1l.001 4.968c.571.23 1.285.257 1.856.257 1.715 0 2.54-1.03 2.54-3.227 0-2.455-1.114-2.998-2.682-2.998Zm12.207-.004c-.284 0-.653.454-.965 1.136l-1.676 3.863c-.029.056-.057.113-.057.142 0 .113.17.142.568.142h2.755v-4.09c0-.88-.256-1.193-.625-1.193Zm5.875-3.502c.207 0 .29.228.29.352 0 .248-.228.683-.497.683h-4.638c-.186 0-.269-.228-.269-.372 0-.249.228-.663.456-.663Zm5.725 15.1.656-.058c.858-.086 1.144-.343 1.144-1.227V7.754c0-.744-.203-.744-1.144-.828l-.626-.059c-.114 0-.202-.057-.202-.143v-.628l.028-.057s2.514.057 3.029.057c.54 0 3.026-.057 3.769-.057 4.768 0 7.11 2.97 7.11 6.767 0 4.998-3.541 6.48-6.708 6.48-2.285 0-3.283-.057-4.168-.057-.858 0-3.029.058-3.029.058l-.027-.058v-.6a.16.16 0 0 1 .168-.167Zm6.368 0c3.14 0 4.912-1.169 4.912-5.17 0-2.968-.657-6.425-5.454-6.425-1.114 0-1.828.171-1.828.887v9.423c0 .797.199 1.285 2.37 1.285Zm13.259-1.143c0 .628.285 1 1.199 1.085l.6.058c.085 0 .17.056.17.17v.6l-.028.058s-2.17-.058-3.054-.058c-.8 0-3.026.058-3.026.058l-.059-.058v-.6c0-.114.086-.17.2-.17l.572-.058c.942-.086 1.228-.543 1.228-1.085V7.81c0-.626-.344-.8-1.228-.884l-.572-.059c-.114 0-.2-.026-.2-.114v-.658l.029-.057s2.256.057 3.139.057c.77 0 2.97-.057 2.97-.057l.027.057v.628c0 .086-.06.143-.172.143l-.6.058c-.886.085-1.199.314-1.199.886l.004 9.509Zm9.456 1.085.828.058c.114 0 .228.086.228.227v.543l-.057.058s-3.112-.058-3.798-.058c-.743 0-2.57.058-2.57.058l-.059-.058v-.543c0-.141.086-.227.23-.227 1.257-.086 1.969-.315 2.768-2.143L109.69 1.47c.313-.742.543-1.029.973-1.029.398 0 .541.287.769.858l5.853 15.476c.401 1.115.973 1.542 2.115 1.656l.313.028c.144 0 .287.084.287.23v.54l-.086.058s-2.198-.058-3.313-.058c-1 0-3.799.058-3.799.058l-.026-.058v-.54c0-.146.057-.23.203-.23l.8-.059c1.084-.084 1.486-.429 1.199-1.226l-1.742-4.828h-5.941c-.685 0-.857.114-.998.483l-1.658 4.142c-.285.718.086 1.347 1.143 1.433Zm6.995-7.255-2.77-7.623h-.057l-2.855 7.253c-.114.288.085.371.713.371h4.97v-.001Z"/></svg>