<?xml version="1.0" encoding="UTF-8"?>
<svg width="120px" height="15px" viewBox="0 0 120 15" version="1.1" xmlns="http://www.w3.org/2000/svg" xmlns:xlink="http://www.w3.org/1999/xlink">
    <title>wikipedia-tagline-lv</title>
    <g id="Page-1" stroke="none" stroke-width="1" fill="none" fill-rule="evenodd">
        <path d="M2.69517083,2.25997328 C2.69517083,1.45065852 2.69517083,1.29795763 4.02366864,1.29795763 C4.87879366,1.29795763 5.99351021,1.75606032 5.99351021,3.31360947 C5.99351021,4.61156709 5.09257492,5.06966978 3.82515747,5.06966978 L2.69517083,5.06966978 L2.69517083,2.25997328 Z M2.69517083,5.58885283 L3.74880702,5.58885283 C5.84080931,5.58885283 6.71120443,6.76464974 6.71120443,8.13895782 C6.71120443,9.25367437 6.28364192,10.1851498 3.96258828,10.1851498 C2.893682,10.1851498 2.69517083,9.78812751 2.69517083,8.85665203 L2.69517083,5.58885283 Z M2.03855698,0.809314755 C1.49341482,0.809314755 0.664248902,0.794044665 0.0687154037,0.778774575 C-0.0229051346,0.870395114 -0.0229051346,1.191067 0.0687154037,1.28268754 C1.13762168,1.3284978 1.39721321,1.40484825 1.39721321,2.6722657 L1.39721321,8.79557167 C1.39721321,10.0629891 1.13762168,10.1393396 0.0687154037,10.1851498 C-0.0229051346,10.2767704 -0.0229051346,10.5974423 0.0687154037,10.6890628 C0.664248902,10.6737927 1.48730664,10.6585226 2.05382707,10.6585226 C2.59896922,10.6585226 3.00057263,10.6890628 4.28326016,10.6890628 C7.32200802,10.6890628 8.13132277,9.16205383 8.13132277,7.84882611 C8.13132277,6.3828975 7.10822676,5.54304257 5.77972896,5.16129032 L5.77972896,5.13075014 C6.54476054,4.74288996 7.23038748,3.95953408 7.23038748,3.13036839 C7.23038748,2.10727238 6.78755488,0.778774575 3.94731819,0.778774575 C3.41286505,0.778774575 2.58828021,0.809314755 2.03855698,0.809314755 Z M11.4449322,5.1918305 C11.4189731,4.58102691 11.3945409,4.18858542 11.3227715,4.03130368 C11.2907042,3.96106118 11.2616912,3.90914297 11.1395304,3.90914297 C10.7119679,4.07711395 10.3149456,4.21454476 9.26130941,4.35197557 C9.23076923,4.44359611 9.26130941,4.68791754 9.29184959,4.77953808 C10.1164344,4.85588853 10.2844054,4.93223898 10.2844054,5.81790418 L10.2844054,8.79557167 C10.2844054,10.0629891 10.1011643,10.1240695 9.15441878,10.1851498 C9.06279824,10.2767704 9.06279824,10.5974423 9.15441878,10.6890628 C9.68887192,10.6737927 10.2844054,10.6585226 10.895209,10.6585226 C11.5060126,10.6585226 12.2084367,10.6737927 12.7428899,10.6890628 C12.8345104,10.5974423 12.8345104,10.2767704 12.7428899,10.1851498 C11.6739836,10.1087994 11.4907425,10.0629891 11.4907425,8.79557167 L11.4907425,6.6730292 C11.4907425,6.27600687 11.6739836,5.92479481 11.8572247,5.64993319 C12.0251956,5.40561176 12.3764077,4.9016988 12.5596488,4.9016988 C12.6970796,4.9016988 12.8345104,4.93834692 12.9536169,5.09562912 C13.0696697,5.24833002 13.2406949,5.45142203 13.5063944,5.45142203 C13.8728765,5.45142203 14.2240886,5.06966978 14.2240886,4.68791754 C14.2240886,4.39625873 13.949227,3.95495324 13.3078832,3.95495324 C12.590189,3.95495324 11.9641153,4.62683718 11.6129032,5.22237068 C11.5212827,5.39034167 11.4479862,5.26818095 11.4449322,5.1918305 Z M17.7957625,2.74861615 C17.9744227,2.74861615 18.1255965,2.42794426 18.1255965,2.24470319 C18.1255965,2.15308265 18.0706241,1.98511166 17.9331933,1.98511166 L14.8410001,1.98511166 C14.6898263,1.98511166 14.5386525,2.29051346 14.5386525,2.47375453 C14.5386525,2.58064516 14.5936247,2.74861615 14.7173125,2.74861615 L17.7957625,2.74861615 Z M17.2017561,8.79557167 L17.2017561,5.75224298 C17.2017561,4.99331934 17.2628364,4.01603359 17.2628364,4.01603359 C17.2628364,3.95495324 17.186486,3.90914297 17.0643253,3.90914297 C16.6291277,4.07711395 16.0259592,4.21454476 14.972323,4.35197557 C14.9417828,4.44359611 14.972323,4.68791754 15.0028631,4.77953808 C15.835083,4.85741563 15.995419,4.94750907 15.995419,5.81790418 L15.995419,8.79557167 C15.995419,10.0629891 15.827448,10.1087994 14.8959725,10.1851498 C14.804352,10.2767704 14.804352,10.5974423 14.8959725,10.6890628 C15.3998855,10.6737927 15.995419,10.6585226 16.6062226,10.6585226 C17.2170262,10.6585226 17.7972896,10.6737927 18.3012025,10.6890628 C18.3928231,10.5974423 18.3928231,10.2767704 18.3012025,10.1851498 C17.369727,10.1240695 17.2017561,10.0629891 17.2017561,8.79557167 Z M23.5388433,4.58102691 C24.3634281,4.64210727 24.4489407,4.82840255 24.1297959,5.60412292 L22.8974995,8.59706051 C22.6501239,9.20022905 22.5707197,9.18954004 22.3325062,8.55125024 L21.2315326,5.60412292 C20.9581981,4.87115862 20.8925367,4.68791754 21.7064325,4.58102691 C21.7980531,4.48940638 21.7980531,4.16873449 21.7064325,4.07711395 C21.2025196,4.09238404 20.6680664,4.10765413 20.1641535,4.10765413 C19.6602405,4.10765413 19.2021378,4.09238404 18.7440351,4.07711395 C18.6524146,4.16873449 18.6524146,4.48940638 18.7440351,4.58102691 C19.5533499,4.67722829 19.6602405,4.92307683 19.9717502,5.69574346 L21.9202138,10.5210918 C22.0118343,10.7501432 22.1034549,10.8417637 22.301966,10.8417637 C22.4546669,10.8417637 22.5600304,10.7440352 22.6684482,10.4905516 L24.7054781,5.71101355 C24.9910289,5.04065671 25.1574728,4.65737736 26.0125978,4.58102691 C26.1042184,4.48940638 26.1042184,4.16873449 26.0125978,4.07711395 C25.707196,4.09238404 25.3407139,4.10765413 24.9436915,4.10765413 C24.4397786,4.10765413 23.9205955,4.09238404 23.5388433,4.07711395 C23.4472228,4.16873449 23.4472228,4.48940638 23.5388433,4.58102691 Z M31.0822676,2.74861615 C31.2807788,2.74861615 31.4487498,2.42794426 31.4487498,2.24470319 C31.4487498,2.15308265 31.3876694,1.98511166 31.2349685,1.98511166 L27.7991983,1.98511166 C27.6312273,1.98511166 27.4632563,2.29051346 27.4632563,2.47375453 C27.4632563,2.58064516 27.5243367,2.74861615 27.6617675,2.74861615 L31.0822676,2.74861615 Z M30.639435,7.10059172 L30.639435,9.11624356 C30.639435,9.31475472 30.5478145,9.42164535 30.4256538,9.51326589 C30.0286314,9.83393777 29.5094484,10.1851498 29.0818859,10.1851498 C28.3183814,10.1851498 27.9824394,9.57434625 27.9824394,9.10097347 C27.9824394,8.41381943 28.3031113,7.7113953 29.4330979,7.4212636 L30.639435,7.10059172 Z M30.639435,9.92555831 C30.7310555,10.3989311 30.8929186,10.8112235 31.662531,10.8112235 C32.2473753,10.8112235 32.7970985,10.551632 33.1131895,10.2462302 C33.0872302,10.0584083 33.0261498,9.93013939 32.853598,9.83393777 C32.7390723,9.92861252 32.482535,10.0782592 32.2886047,10.0782592 C31.8457721,10.0782592 31.830502,9.48272571 31.830502,8.78030158 L31.830502,6.5355984 C31.830502,4.36724566 30.639435,3.95495324 29.5247185,3.95495324 C28.2725711,3.95495324 27.0051537,4.77953808 27.0051537,5.64993319 C27.0051537,6.01641535 27.1883947,6.19965642 27.5396068,6.19965642 C27.9824394,6.19965642 28.257301,5.87898454 28.257301,5.68047337 C28.257301,5.57358274 28.2420309,5.46669212 28.2114907,5.40561176 C28.1962207,5.35980149 28.1809506,5.26818095 28.1809506,5.10020996 C28.1809506,4.62683718 28.8222943,4.4588662 29.4025577,4.4588662 C29.9217408,4.4588662 30.639435,4.71845772 30.639435,6.44397786 C30.639435,6.55086849 30.5936247,6.61194885 30.5478145,6.62721893 L29.2345868,6.94789082 C27.7686581,7.31437297 26.715022,8.12368773 26.715022,9.16205383 C26.715022,10.4142012 27.570147,10.8112235 28.6390533,10.8112235 C29.1704524,10.8112235 29.6316091,10.6890628 30.303493,10.1698797 L30.6088948,9.92555831 L30.639435,9.92555831 Z M38.8547433,6.35235732 C39.144875,4.62683718 40.2137813,4.48940638 40.5802634,4.48940638 C41.1605268,4.48940638 41.8476809,4.81007826 41.8476809,6.0927658 C41.8476809,6.2301966 41.7866005,6.30349285 41.6186295,6.30654705 L38.8547433,6.35235732 Z M42.8555068,9.23840428 C42.2905135,9.81866768 41.8476809,10.0629891 40.9620157,10.0629891 C40.4122924,10.0629891 39.7709487,9.74231724 39.2975759,8.96354266 C38.9921741,8.4596297 38.808933,7.75720557 38.808933,6.87154037 L42.8707769,6.90208055 C43.0540179,6.90208055 43.1609086,6.81046001 43.1609086,6.64248902 C43.1609086,5.35980149 42.7028059,3.98549341 40.5802634,3.98549341 C39.2517656,3.98549341 37.5262455,5.25291086 37.5262455,7.5739645 C37.5262455,8.42908952 37.7400267,9.25367437 38.2439397,9.83393777 C38.7631227,10.4447414 39.4808169,10.8112235 40.5802634,10.8112235 C41.7407902,10.8112235 42.5653751,10.2767704 43.1761787,9.48272571 C43.1303684,9.33002481 43.0387479,9.25367437 42.8555068,9.23840428 Z M46.5966788,5.1918305 C46.5035311,5.29872113 46.4180188,5.33536925 46.4134377,5.1918305 C46.3981676,4.77953808 46.3630463,4.18858542 46.291277,4.03130368 C46.2592097,3.96106118 46.2301966,3.90914297 46.1080359,3.90914297 C45.6804734,4.07711395 45.283451,4.21454476 44.2298149,4.35197557 C44.1992747,4.44359611 44.2298149,4.68791754 44.260355,4.77953808 C45.0849399,4.85588853 45.2529109,4.93223898 45.2529109,5.81790418 L45.2529109,8.79557167 C45.2529109,10.047719 45.10021,10.1087994 44.1840046,10.1851498 C44.092384,10.2767704 44.092384,10.5974423 44.1840046,10.6890628 C44.6421073,10.6737927 45.2529109,10.6585226 45.8637144,10.6585226 C46.474518,10.6585226 46.9326207,10.6737927 47.3907234,10.6890628 C47.482344,10.5974423 47.482344,10.2767704 47.3907234,10.1851498 C46.6119488,10.1087994 46.4592479,10.047719 46.4592479,8.79557167 L46.4592479,6.29127696 C46.4592479,5.97060508 46.5966788,5.787364 46.7188395,5.64993319 C47.2991029,5.08493987 47.9862569,4.7489979 48.5817904,4.7489979 C48.8871922,4.7489979 49.2078641,4.94750907 49.3911052,5.29872113 C49.5438061,5.60412292 49.5743462,6.01641535 49.5743462,6.47451804 L49.5743462,8.79557167 C49.5743462,10.047719 49.4216454,10.1087994 48.6276007,10.1851498 C48.5512502,10.2767704 48.5512502,10.5974423 48.6276007,10.6890628 C49.0857034,10.6737927 49.5743462,10.6585226 50.1851498,10.6585226 C50.7959534,10.6585226 51.3456767,10.6737927 51.8037793,10.6890628 C51.8801298,10.5974423 51.8801298,10.2767704 51.8037793,10.1851498 C50.9486543,10.1087994 50.7806833,10.047719 50.7806833,8.79557167 L50.7806833,6.52032831 C50.7806833,5.68047337 50.719603,4.94750907 50.3683909,4.47413629 C50.1087994,4.13819431 49.6354266,3.95495324 49.1009735,3.95495324 C48.3527391,3.95495324 47.5021951,4.1534644 46.5966788,5.1918305 Z M58.1408666,9.26894446 C58.0797862,9.13151365 57.9576255,9.07043329 57.8201947,9.0551632 C57.3010116,9.72704715 56.6443978,10.0629891 55.9877839,10.0629891 C54.8730674,10.0629891 53.9415919,8.93300248 53.9415919,7.14640199 C53.9415919,5.46669212 54.6745562,4.4588662 55.6823821,4.4588662 C56.5833174,4.4588662 56.7054781,4.99331934 56.7665585,5.52777248 C56.8123688,5.9400649 57.02615,6.07749571 57.3468219,6.07749571 C57.6674938,6.07749571 58.0950563,5.87898454 58.0950563,5.40561176 C58.0950563,4.56575682 57.2246612,3.95495324 55.7587326,3.95495324 C54.2469937,3.95495324 52.6283642,5.31399122 52.6283642,7.48234396 C52.6283642,9.45218553 53.7278107,10.8112235 55.651842,10.8112235 C56.5680473,10.8112235 57.3773621,10.5210918 58.1408666,9.26894446 Z M59.9732773,1.51173888 C59.9732773,1.90876121 60.3397595,2.30578355 60.7062416,2.30578355 C61.1338042,2.30578355 61.5002863,1.89501776 61.5002863,1.57281924 C61.5002863,1.20633709 61.1796144,0.778774575 60.767322,0.778774575 C60.4008399,0.778774575 59.9732773,1.14525673 59.9732773,1.51173888 Z M61.3628555,8.79557167 L61.3628555,5.75224298 C61.3628555,4.99331934 61.4239359,4.01603359 61.4239359,4.01603359 C61.4239359,3.95495324 61.3475854,3.90914297 61.2254247,3.90914297 C60.7902271,4.07711395 60.1870586,4.21454476 59.1334224,4.35197557 C59.1028822,4.44359611 59.1334224,4.68791754 59.1639626,4.77953808 C59.9961825,4.85741563 60.1565184,4.94750907 60.1565184,5.81790418 L60.1565184,8.79557167 C60.1565184,10.0629891 59.9885474,10.1087994 59.057072,10.1851498 C58.9654514,10.2767704 58.9654514,10.5974423 59.057072,10.6890628 C59.5609849,10.6737927 60.1565184,10.6585226 60.767322,10.6585226 C61.3781256,10.6585226 61.958389,10.6737927 62.462302,10.6890628 C62.5539225,10.5974423 62.5539225,10.2767704 62.462302,10.1851498 C61.5308265,10.1240695 61.3628555,10.0629891 61.3628555,8.79557167 Z M64.0503913,8.79557167 C64.0503913,10.0629891 63.8824203,10.1240695 63.0272953,10.1851498 C62.9356747,10.2767704 62.9356747,10.5974423 63.0272953,10.6890628 C63.5312082,10.6737927 64.0503913,10.6585226 64.6611949,10.6585226 C65.195648,10.6585226 65.699561,10.6737927 66.050773,10.6890628 C66.1423936,10.5974423 66.1423936,10.2767704 66.050773,10.1851498 C65.4246994,10.1240695 65.2567284,10.0629891 65.2567284,8.79557167 L65.2567284,7.46860097 C65.5499141,7.47623602 65.7652224,7.49914115 65.9133422,7.55105936 C66.0813132,7.66558504 66.2202711,7.80301584 66.4019851,8.04733728 L67.5167017,9.54380607 C67.9656422,10.1469746 68.1381945,10.4340523 68.1580454,10.6127123 C68.1626263,10.6585226 68.1733155,10.6890628 68.2191258,10.6890628 C68.5245276,10.6737927 68.8604696,10.6585226 69.1658713,10.6585226 C69.6392441,10.6585226 70.1126169,10.6737927 70.4180187,10.6890628 C70.5096392,10.5974423 70.5096392,10.2767704 70.4180187,10.1851498 C69.8988357,10.1240695 69.5125026,10.0568812 69.104791,9.54380607 L67.0891391,7.00897118 C67.0341667,6.94025577 66.9822485,6.87154037 66.9822485,6.79518992 C66.9822485,6.73410956 66.9822485,6.70356938 67.0433289,6.64248902 L68.3870968,5.25291086 C68.8451995,4.76426799 69.3796526,4.64210727 69.9904562,4.58102691 C70.0820767,4.48940638 70.0820767,4.16873449 69.9904562,4.07711395 C69.6392441,4.09238404 69.2116816,4.10765413 68.6619584,4.10765413 C68.081695,4.10765413 67.5167017,4.09238404 67.1654896,4.07711395 C67.0738691,4.16873449 67.0738691,4.48940638 67.1654896,4.58102691 C68.0206146,4.64210727 67.6587133,5.18114125 67.5167017,5.35980149 C67.1654896,5.80263409 66.687536,6.32181714 66.2950945,6.61194885 C65.9560985,6.86237822 65.545333,7.04256533 65.2567284,7.08226765 L65.2567284,1.75606055 C65.2567284,0.763504719 65.3178087,0.15270113 65.3178087,0.15270113 C65.3178087,0.0458105021 65.2567284,2.33005258e-07 65.1192976,2.33005258e-07 C64.7375453,0.15270113 63.5922886,0.366482386 62.981485,0.412292655 C62.9509448,0.534453373 62.981485,0.778774808 63.0731056,0.870395347 C63.8671502,0.916205616 64.0503913,0.839855167 64.0503913,2.1225427 L64.0503913,8.79557167 Z M72.006108,8.79557167 C72.006108,10.0629891 71.838137,10.1393396 70.9066616,10.1851498 C70.815041,10.2767704 70.815041,10.5974423 70.9066616,10.6890628 C71.4411147,10.6737927 72.006108,10.6585226 72.6169116,10.6585226 C73.2277152,10.6585226 73.8079786,10.6737927 74.3118916,10.6890628 C74.4035121,10.5974423 74.4035121,10.2767704 74.3118916,10.1851498 C73.3804161,10.1393396 73.2124451,10.0629891 73.2124451,8.79557167 L73.2124451,1.75606032 C73.2124451,0.763504486 73.2735255,0.152700897 73.2735255,0.152700897 C73.2735255,0.0458102691 73.2124451,-8.8817842e-15 73.0750143,-8.8817842e-15 C72.6932621,0.152700897 71.5480053,0.366482153 70.9372018,0.412292422 C70.9066616,0.53445314 70.9372018,0.778774575 71.0288223,0.870395114 C71.9144875,0.931475472 72.006108,0.977285742 72.006108,2.12254247 L72.006108,8.79557167 Z M75.2128269,7.52815423 C75.2128269,9.08570338 76.251193,10.8112235 78.4195457,10.8112235 C79.4029394,10.8112235 80.1420116,10.4645925 80.6627218,9.95609849 C81.3468221,9.28726852 81.6568047,8.32677997 81.6568047,7.39072342 C81.6568047,5.80263409 80.7864096,3.95495324 78.4500859,3.95495324 C77.4453139,3.95495324 76.616148,4.36724566 76.0572629,5.02385952 C75.5029586,5.67436543 75.2128269,6.56308437 75.2128269,7.52815423 Z M78.2210345,4.48940638 C79.5342623,4.48940638 80.343577,5.68047337 80.343577,7.87936629 C80.343577,9.80339759 79.3510212,10.2767704 78.633327,10.2767704 C77.0452376,10.2767704 76.5260546,8.35273907 76.5260546,7.17694216 C76.5260546,5.84844436 76.8467265,4.48940638 78.2210345,4.48940638 Z M84.9551441,5.60412292 C85.3521664,5.11548005 86.0515366,4.65737736 86.4974232,4.65737736 C87.4747089,4.65737736 88.3145638,5.75682382 88.3145638,7.48234396 C88.3145638,8.73449132 87.8717312,10.2920405 86.1614812,10.2920405 C85.8866196,10.2920405 85.3521664,10.21569 85.0773048,9.96984148 C84.7703759,9.69497986 84.7108227,9.60641353 84.7108227,9.0551632 L84.7108227,6.27600687 C84.7108227,5.95533499 84.778011,5.82248502 84.9551441,5.60412292 Z M84.6650124,5.0391296 C84.6421073,4.58102691 84.6146211,4.18858542 84.5428517,4.03130368 C84.5107844,3.96106118 84.4817713,3.90914297 84.3596106,3.90914297 C83.9320481,4.07711395 83.5350258,4.21454476 82.4813896,4.35197557 C82.4508494,4.44359611 82.4813896,4.68791754 82.5119298,4.77953808 C83.3365146,4.85588853 83.5044856,4.93223898 83.5044856,5.81790418 L83.5044856,12.3382325 C83.5044856,13.6056499 83.3365146,13.6820004 82.4050391,13.7278107 C82.3134186,13.8194312 82.3134186,14.1401031 82.4050391,14.2317236 C82.9394923,14.2164535 83.5044856,14.2011834 84.1152892,14.2011834 C84.7260928,14.2011834 85.4590571,14.2164535 85.96297,14.2317236 C86.0545906,14.1401031 86.0545906,13.8194312 85.96297,13.7278107 C84.8787937,13.6667303 84.7108227,13.6056499 84.7108227,12.3382325 L84.7108227,10.6890628 C84.7108227,10.4905516 84.7688491,10.5104028 84.9246039,10.5745371 C85.2987211,10.7257109 85.7705668,10.8112235 86.2531017,10.8112235 C87.1082268,10.8112235 87.8717312,10.551632 88.4978049,9.95609849 C89.2154991,9.25367437 89.6277916,8.3069288 89.6277916,7.07005154 C89.6277916,5.45142203 88.4825348,3.95495324 86.9249857,3.95495324 C86.2149265,3.95495324 85.4361519,4.42069097 84.8329834,5.10020996 C84.7474708,5.19641134 84.6726475,5.18572256 84.6650124,5.0391296 Z M95.3540752,2.74861615 C95.5525864,2.74861615 95.7205574,2.42794426 95.7205574,2.24470319 C95.7205574,2.15308265 95.659477,1.98511166 95.5067761,1.98511166 L92.0710059,1.98511166 C91.9030349,1.98511166 91.7350639,2.29051346 91.7350639,2.47375453 C91.7350639,2.58064516 91.7961443,2.74861615 91.9335751,2.74861615 L95.3540752,2.74861615 Z M92.1015461,6.35235732 C92.3916778,4.62683718 93.4605841,4.48940638 93.8270662,4.48940638 C94.4073296,4.48940638 95.0944837,4.81007826 95.0944837,6.0927658 C95.0944837,6.2301966 95.0334033,6.30349285 94.8654323,6.30654705 L92.1015461,6.35235732 Z M96.1023096,9.23840428 C95.5373163,9.81866768 95.0944837,10.0629891 94.2088185,10.0629891 C93.6590952,10.0629891 93.0177515,9.74231724 92.5443787,8.96354266 C92.2389769,8.4596297 92.0557358,7.75720557 92.0557358,6.87154037 L96.1175797,6.90208055 C96.3008208,6.90208055 96.4077114,6.81046001 96.4077114,6.64248902 C96.4077114,5.35980149 95.9496087,3.98549341 93.8270662,3.98549341 C92.4985684,3.98549341 90.7730483,5.25291086 90.7730483,7.5739645 C90.7730483,8.42908952 90.9868295,9.25367437 91.4907425,9.83393777 C92.0099256,10.4447414 92.7276198,10.8112235 93.8270662,10.8112235 C94.9875931,10.8112235 95.8121779,10.2767704 96.4229815,9.48272571 C96.3771712,9.33002481 96.2855507,9.25367437 96.1023096,9.23840428 Z M102.301966,8.76503149 C102.301966,9.0551632 102.272953,9.17426995 102.057645,9.36056499 C101.492651,9.84920786 101.004008,10.0935293 100.622256,10.0935293 C99.7976713,10.0935293 98.9425463,9.19259401 98.9425463,7.28383279 C98.9425463,6.18438633 99.1563275,5.57358274 99.3853789,5.25291086 C99.8587517,4.53521664 100.500095,4.48940638 100.805497,4.48940638 C101.35522,4.48940638 101.736973,4.68791754 102.042374,5.0391296 C102.256156,5.28345104 102.301966,5.39034167 102.301966,5.86371445 L102.301966,8.76503149 Z M102.133995,9.89043729 C102.207291,9.8308838 102.352357,9.80339759 102.363046,9.91028822 C102.401222,10.2844054 102.531017,10.8112235 102.531017,10.8112235 C102.653178,10.8570338 102.729529,10.8493987 102.821149,10.8112235 C103.157091,10.5363619 103.691544,10.3073106 104.62302,10.2004199 C104.71464,10.1087994 104.71464,9.87974804 104.62302,9.78812751 C103.645734,9.71177706 103.508303,9.42164535 103.508303,8.67341096 L103.508303,1.75606032 C103.508303,0.763504486 103.569383,0.152700897 103.569383,0.152700897 C103.569383,0.0458102691 103.508303,9.00612918e-13 103.370872,9.00612918e-13 C102.98912,0.152700897 101.843863,0.366482153 101.23306,0.412292422 C101.20252,0.53445314 101.23306,0.778774575 101.32468,0.870395114 C102.118725,0.916205383 102.301966,0.839854934 102.301966,2.12254247 L102.301966,4.07711395 C102.301966,4.18400458 102.271426,4.21454476 102.164535,4.21454476 C102.103455,4.21454476 101.477381,3.95495324 100.973468,3.95495324 C99.9656423,3.95495324 99.2937584,4.29089521 98.6829548,4.87115862 C98.0263409,5.52777248 97.6293186,6.42870777 97.6293186,7.55869441 C97.6293186,9.43691544 98.5760641,10.8112235 100.225234,10.8112235 C100.820767,10.8112235 101.385761,10.5058217 102.133995,9.89043729 Z M111.693071,3.90914297 C111.815232,3.90914297 111.891582,3.95495324 111.891582,4.01603359 C111.891582,4.01603359 111.830502,4.99331934 111.830502,5.75682382 L111.830502,8.97881275 C111.830502,11.8648597 111.402939,12.9643062 110.685245,13.5445696 C110.120252,14.0179424 109.326207,14.0637526 109.005535,14.0637526 C108.715404,14.0637526 108.16568,13.8499714 108.16568,13.4071388 C108.16568,13.1322772 108.486352,12.8268754 108.654323,12.8268754 C108.990265,12.8268754 109.173506,13.0711968 109.326207,13.2238977 C109.433098,13.3307883 109.631609,13.3918687 109.79958,13.3918687 C110.563085,13.3918687 110.624165,11.5136476 110.624165,9.4979958 L110.624165,5.81790418 C110.624165,4.94750907 110.456194,4.85588853 109.631609,4.77953808 C109.601069,4.68791754 109.570529,4.44359611 109.601069,4.35197557 C110.654705,4.21454476 111.265509,4.07711395 111.693071,3.90914297 Z M107.386906,3.90914297 C107.509067,3.90914297 107.585417,3.95495324 107.585417,4.01603359 C107.585417,4.01603359 107.524337,4.99331934 107.524337,5.75224298 L107.524337,8.79557167 C107.524337,10.0629891 107.692308,10.1240695 108.623783,10.1851498 C108.715404,10.2767704 108.715404,10.5974423 108.623783,10.6890628 C108.11987,10.6737927 107.539607,10.6585226 106.928803,10.6585226 C106.318,10.6585226 105.722466,10.6737927 105.218553,10.6890628 C105.126933,10.5974423 105.126933,10.2767704 105.218553,10.1851498 C106.150029,10.1087994 106.318,10.0629891 106.318,8.79557167 L106.318,5.81790418 C106.318,4.94750907 106.157664,4.85741563 105.325444,4.77953808 C105.294904,4.68791754 105.264363,4.44359611 105.294904,4.35197557 C106.34854,4.21454476 106.951708,4.07711395 107.386906,3.90914297 Z M106.928803,0.778774575 C107.341096,0.778774575 107.661768,1.20633709 107.661768,1.57281924 C107.661768,1.89501776 107.295285,2.30578355 106.867723,2.30578355 C106.501241,2.30578355 106.134759,1.90876121 106.134759,1.51173888 C106.134759,1.14525673 106.562321,0.778774575 106.928803,0.778774575 Z M111.204428,0.778774575 C111.616721,0.778774575 111.937393,1.20633709 111.937393,1.57281924 C111.937393,1.89501776 111.57091,2.30578355 111.143348,2.30578355 C110.776866,2.30578355 110.410384,1.90876121 110.410384,1.51173888 C110.410384,1.14525673 110.837946,0.778774575 111.204428,0.778774575 Z M117.526245,7.10059172 L117.526245,9.11624356 C117.526245,9.31475472 117.434625,9.42164535 117.312464,9.51326589 C116.915442,9.83393777 116.396259,10.1851498 115.968696,10.1851498 C115.205192,10.1851498 114.86925,9.57434625 114.86925,9.10097347 C114.86925,8.41381943 115.189922,7.7113953 116.319908,7.4212636 L117.526245,7.10059172 Z M117.526245,9.92555831 C117.617866,10.3989311 117.779729,10.8112235 118.549341,10.8112235 C119.134186,10.8112235 119.683909,10.551632 120,10.2462302 C119.974041,10.0584083 119.91296,9.93013939 119.740408,9.83393777 C119.625883,9.92861252 119.369345,10.0782592 119.175415,10.0782592 C118.732583,10.0782592 118.717312,9.48272571 118.717312,8.78030158 L118.717312,6.5355984 C118.717312,4.36724566 117.526245,3.95495324 116.411529,3.95495324 C115.159382,3.95495324 113.891964,4.77953808 113.891964,5.64993319 C113.891964,6.01641535 114.075205,6.19965642 114.426417,6.19965642 C114.86925,6.19965642 115.144111,5.87898454 115.144111,5.68047337 C115.144111,5.57358274 115.128841,5.46669212 115.098301,5.40561176 C115.083031,5.35980149 115.067761,5.26818095 115.067761,5.10020996 C115.067761,4.62683718 115.709105,4.4588662 116.289368,4.4588662 C116.808551,4.4588662 117.526245,4.71845772 117.526245,6.44397786 C117.526245,6.55086849 117.480435,6.61194885 117.434625,6.62721893 L116.121397,6.94789082 C114.655469,7.31437297 113.601832,8.12368773 113.601832,9.16205383 C113.601832,10.4142012 114.456957,10.8112235 115.525864,10.8112235 C116.057263,10.8112235 116.51842,10.6890628 117.190303,10.1698797 L117.495705,9.92555831 L117.526245,9.92555831 Z" id="wikipedia-tagline-lv" fill="#000000" fill-rule="nonzero"></path>
    </g>
</svg>