<svg xmlns="http://www.w3.org/2000/svg" fill="none" viewBox="0 0 140 11"><g fill="#1e1e1e" clip-path="url(#a)"><path d="m137.87 5.578-.822.218q-.991.249-.986 1.143 0 .279.188.513.193.229.559.228c.366 0 .548-.15.914-.452a.31.31 0 0 0 .147-.269zm0 1.924h-.02l-.208.163q-.346.269-.564.35a1.6 1.6 0 0 1-.569.087q-.594 0-.954-.27-.356-.269-.356-.853 0-.518.472-.914t1.245-.594l.893-.218q.061-.021.061-.122 0-1.35-.843-1.351-.345 0-.604.112-.26.105-.259.325 0 .147.02.203.031.06.031.188 0 .117-.127.233a.47.47 0 0 1-.33.112q-.366 0-.361-.366 0-.426.538-.787a2.07 2.07 0 0 1 1.179-.365c1.05 0 1.57.586 1.569 1.757V6.74q0 .3.015.457a.48.48 0 0 0 .112.294.34.34 0 0 0 .289.132.31.31 0 0 0 .218-.081.5.5 0 0 1 .102-.081q.03 0 .081.06.056.061.056.112 0 .03-.112.142a1.3 1.3 0 0 1-.325.219 1 1 0 0 1-.446.106q-.625.006-.803-.599M132.94 1.77q0-.19.178-.341a.55.55 0 0 1 .366-.158q.198 0 .345.173a.54.54 0 0 1 .152.366q0 .178-.167.34a.52.52 0 0 1-.371.162q-.187 0-.345-.172a.54.54 0 0 1-.158-.37m.95 4.96q0 .625.122.772.127.142.624.178.051.05.051.178 0 .12-.051.162a68 68 0 0 0-1.152-.02q-.29 0-1.168.02-.04-.04-.041-.162 0-.127.041-.178.497-.04.624-.183.127-.142.127-.767V4.704q0-.436-.122-.548-.117-.116-.553-.158-.062-.178-.02-.294c.643-.085 1.12-.185 1.421-.3q.138 0 .138.071a4.63 4.63 0 0 0-.016.27 6 6 0 0 1-.015.279l-.01.31V6.73M130.33 6.71V4.735q0-.24-.035-.335a.7.7 0 0 0-.143-.229q-.32-.375-.843-.37a1.1 1.1 0 0 0-.969.517q-.3.426-.3 1.382 0 .913.34 1.416.345.498.803.498.405 0 .98-.498a.52.52 0 0 0 .167-.406m-.117.767q-.761.625-1.3.625-.822 0-1.295-.61-.471-.615-.472-1.604 0-1.111.716-1.829a2.18 2.18 0 0 1 1.559-.624q.157 0 .346.046.187.045.319.09.138.042.148.042.091 0 .096-.097v-1.33q0-.335-.02-.498-.015-.168-.132-.244a.4.4 0 0 0-.173-.086l-.345-.026q-.117-.115-.061-.31.923-.07 1.457-.284.137 0 .137.107-.04.417-.045 1.092v4.712q0 .407.142.564.142.153.619.193.051.051.051.147 0 .092-.051.137-.872.102-1.259.412a.33.33 0 0 1-.198 0 2 2 0 0 1-.112-.61q0-.026-.015-.035a.03.03 0 0 0-.03-.016q-.02 0-.041.01c-.021.01-.027.016-.041.026M123.33 5.065l1.884-.03q.157 0 .153-.143 0-.594-.254-.843a.84.84 0 0 0-.609-.249q-.138 0-.27.036a1.1 1.1 0 0 0-.325.152q-.192.112-.35.391a2.2 2.2 0 0 0-.229.686m2.727 1.97q.178.01.219.163c-.464.603-1.06.904-1.772.903q-1.034 0-1.59-.665-.487-.564-.487-1.538c0-.735.22-1.33.66-1.773q.66-.67 1.417-.67c1.17 0 1.76.603 1.757 1.808q0 .178-.193.177l-2.768-.02q0 .875.33 1.427.457.746 1.138.747.437 0 .711-.122.28-.127.578-.437M118.4 4.557a.7.7 0 0 0-.163.457v1.894q0 .194.02.295a.5.5 0 0 0 .066.162q.046.06.163.168.127.111.34.167.219.051.396.051.417 0 .716-.173.305-.172.457-.467.158-.294.224-.604a3 3 0 0 0 .071-.67q0-.853-.361-1.387-.356-.538-.878-.538-.219 0-.534.193a2 2 0 0 0-.517.452m-.163-.386q0 .051.03.066.032.01.051-.02.666-.782 1.427-.782.782 0 1.31.635c.528.635.529.919.529 1.487q0 1.22-.767 1.966-.615.584-1.534.579-.508 0-.904-.158-.08-.04-.112-.03-.03.01-.03.106v1.123q0 .625.137.771.143.148.716.178.051.051.051.173 0 .126-.051.167a65 65 0 0 0-1.259-.02q-.29 0-1.168.02-.04-.04-.041-.167 0-.122.041-.173.487-.019.619-.173.132-.152.132-.776V4.704q0-.436-.122-.548-.116-.116-.553-.158a.45.45 0 0 1-.02-.294q.812-.102 1.31-.3.081 0 .122.081.086.188.086.686M111.76 5.867c0-.687.192-1.26.574-1.706q.62-.726 1.63-.726.747 0 1.26.37.517.367.721.88.203.507.203 1.09 0 1.09-.675 1.748-.594.583-1.529.579-1.04 0-1.615-.676a2.35 2.35 0 0 1-.569-1.559m2.047-2.067c-.769 0-1.15.61-1.153 1.829q0 .335.076.68.082.34.234.675.158.33.447.544.294.213.68.213.457 0 .808-.376.355-.375.355-1.26 0-1.111-.386-1.705-.386-.6-1.061-.6M109.58 6.73V2.187q0-.335-.02-.498-.015-.168-.132-.244a.4.4 0 0 0-.173-.086l-.345-.026q-.117-.115-.061-.31.923-.07 1.457-.284.138 0 .137.107-.04.417-.045 1.092V6.73q0 .624.132.777.132.148.619.172.04.05.041.178 0 .121-.041.162-.894-.02-1.158-.02-.289 0-1.163.02-.05-.04-.05-.162 0-.127.05-.178.488-.02.62-.172c.132-.152.132-.361.132-.777M108.28 7.056q-.366.605-.772.827a1.9 1.9 0 0 1-.924.219q-.966 0-1.513-.615-.544-.62-.544-1.65c0-.701.219-1.28.655-1.727q.656-.675 1.478-.675.737 0 1.163.274.427.275.427.71 0 .22-.163.341c-.163.121-.223.122-.345.122q-.356 0-.396-.376a1.4 1.4 0 0 0-.071-.355.54.54 0 0 0-.214-.25q-.162-.12-.457-.12-.517 0-.853.492-.33.493-.33 1.335c0 .596.135 1.08.406 1.442q.406.543.985.544.716-.001 1.25-.686.167.02.218.148M101 9.666q-.417.746-1.01.746a.55.55 0 0 1-.351-.112.33.33 0 0 1-.137-.274q0-.137.127-.294a.42.42 0 0 1 .33-.153 1 1 0 0 1 .137.016q.091.015.162.015a.56.56 0 0 0 .524-.3q.248-.508.406-.955.126-.356-.148-.98l-1.178-2.737a3.3 3.3 0 0 0-.248-.492.56.56 0 0 0-.214-.203 1 1 0 0 0-.355-.082q-.04-.04-.04-.162 0-.127.04-.183.417.02.843.02.406 0 1.173-.02.04.05.04.178 0 .126-.04.167-.183.015-.29.051a.5.5 0 0 0-.152.071q-.05.036-.046.127.01.087.036.158l.086.213q.015.035.026.056l.924 2.163q.03.075.061.112.035.035.066.035a.12.12 0 0 0 .061-.035.5.5 0 0 0 .061-.102l1.03-2.381q.117-.25-.035-.34-.153-.098-.467-.128-.051-.04-.051-.162 0-.127.051-.183.771.02.949.02.218 0 .737-.02.05.05.05.178 0 .126-.05.167a.82.82 0 0 0-.493.219 1.5 1.5 0 0 0-.35.447c-.444.928-1.06 2.34-1.839 4.245a9 9 0 0 1-.426.894M98.564 7.056q-.366.605-.772.827a1.9 1.9 0 0 1-.924.219c-.643 0-1.15-.205-1.513-.615q-.543-.62-.544-1.65c0-.701.218-1.28.655-1.727s.93-.675 1.478-.675q.736 0 1.163.274.427.275.427.71a.4.4 0 0 1-.163.341.57.57 0 0 1-.345.122q-.356 0-.396-.376a1.3 1.3 0 0 0-.071-.355.53.53 0 0 0-.214-.25q-.162-.12-.457-.12-.518 0-.853.492-.33.493-.33 1.335c0 .596.135 1.08.406 1.442q.407.543.985.544.716-.001 1.25-.686.167.02.218.148M90.704 4.278c.508-.562 1.08-.843 1.706-.843q.594 0 .863.355.28.376.28 1.392V6.73q0 .615.117.762.12.142.579.188.04.04.04.168 0 .121-.04.172A72 72 0 0 0 93.147 8q-.188 0-1.062.02-.04-.04-.04-.162 0-.127.04-.178.426-.04.534-.188.111-.147.111-.762V5.151q0-.553-.122-.802-.198-.376-.553-.376-.634 0-1.27.614a.64.64 0 0 0-.177.437V6.73q0 .615.101.762.106.142.523.188.05.05.05.178.006.12-.05.162Q90.36 8 90.206 8q-.29 0-1.147.02-.04-.04-.04-.162 0-.127.04-.178.487-.04.61-.183.12-.142.121-.767V4.704q0-.436-.122-.548-.117-.116-.559-.158a.46.46 0 0 1-.02-.294q.813-.102 1.31-.3.081 0 .127.081.081.188.081.793.006.126.097 0zM85.427 5.065l1.884-.03q.158 0 .152-.143 0-.594-.253-.843a.84.84 0 0 0-.61-.249 1 1 0 0 0-.27.036 1.3 1.3 0 0 0-.324.152q-.194.112-.35.391a2.2 2.2 0 0 0-.229.686m2.727 1.97q.177.01.218.163c-.464.603-1.05.904-1.772.903-.687 0-1.22-.222-1.59-.665q-.486-.564-.487-1.538c0-.735.22-1.33.66-1.773q.66-.67 1.417-.67c1.17 0 1.76.603 1.757 1.808q0 .178-.193.177l-2.767-.02q0 .875.33 1.427.458.746 1.137.747.437 0 .711-.122.28-.127.579-.437M78.176 5.065l1.884-.03q.158 0 .152-.143 0-.594-.254-.843a.84.84 0 0 0-.609-.249q-.136 0-.27.036c-.133.036-.195.074-.324.152q-.195.112-.35.391a2.2 2.2 0 0 0-.229.686m2.727 1.97q.177.01.218.163c-.464.603-1.05.904-1.772.903-.687 0-1.22-.222-1.59-.665q-.487-.564-.487-1.538c0-.735.22-1.33.66-1.773q.66-.67 1.417-.67c1.17 0 1.76.603 1.757 1.808q0 .178-.193.177l-2.767-.02q0 .875.33 1.427.458.746 1.137.747.437 0 .711-.122.279-.127.579-.437M73.453 5.065l1.884-.03q.158 0 .152-.143 0-.594-.254-.843a.84.84 0 0 0-.609-.249 1 1 0 0 0-.27.036 1.3 1.3 0 0 0-.324.152q-.194.112-.35.391a2.2 2.2 0 0 0-.229.686m2.727 1.97q.177.01.218.163c-.464.603-1.05.904-1.772.903-.687 0-1.22-.222-1.59-.665q-.486-.564-.487-1.538c0-.735.22-1.33.66-1.773q.66-.67 1.417-.67c1.17 0 1.76.603 1.757 1.808q0 .178-.193.177l-2.767-.02q0 .875.33 1.427.457.746 1.137.747.436 0 .711-.122.28-.127.579-.437M70.239 4.278q0 .05.015.07t.066-.05q.21-.355.513-.61.31-.252.64-.253.3 0 .462.162a.47.47 0 0 1 .163.335q0 .198-.153.36a.45.45 0 0 1-.335.163.35.35 0 0 1-.147-.035q-.072-.041-.107-.076l-.096-.102a1 1 0 0 0-.077-.091q-.07-.071-.218-.071-.127 0-.477.507-.25.376-.249.696V6.73q0 .624.137.767.142.137.716.183.05.05.05.178 0 .121-.05.162c-.596-.013-1.02-.02-1.26-.02a63 63 0 0 0-1.188.02q-.04-.04-.04-.162 0-.127.04-.178.509-.03.64-.178.132-.147.132-.772V4.704q0-.436-.122-.548-.116-.116-.553-.158a.46.46 0 0 1-.02-.294q.813-.102 1.31-.3.081 0 .122.082.086.187.086.792"/><path d="M66.973 6.73q0 .625.137.772.137.142.686.178.04.05.04.178 0 .122-.04.162c-.596-.013-1-.02-1.224-.02q-.219 0-1.097.02-.05-.04-.05-.162 0-.127.05-.178.447-.03.564-.178.117-.147.116-.771V3.943h-.72q-.052 0-.051-.061v-.137q0-.209.238-.209h.533V3.12q0-1.132.554-1.757.559-.624 1.285-.625.624 0 .934.224.335.249.335.528 0 .158-.147.294-.142.132-.28.132-.267 0-.416-.335-.101-.27-.244-.375a.6.6 0 0 0-.38-.112q-.823 0-.823 1.853v.59H68.1q.082 0 .082.065v.209q0 .136-.24.132h-.969zM59.194 5.065l1.884-.03q.158 0 .152-.143 0-.594-.254-.843a.84.84 0 0 0-.609-.249q-.137 0-.27.036a1.3 1.3 0 0 0-.324.152q-.195.112-.35.391a2.2 2.2 0 0 0-.229.686m2.727 1.97q.176.01.218.163c-.464.603-1.05.904-1.772.903-.687 0-1.22-.222-1.59-.665q-.486-.564-.487-1.538c0-.735.22-1.33.66-1.773q.66-.67 1.417-.67c1.17 0 1.76.603 1.757 1.808q0 .178-.193.177l-2.767-.02q0 .875.33 1.427.457.746 1.137.747.436 0 .711-.122.279-.127.579-.437M54.044 5.024V6.73q0 .442.05.63.057.183.168.239c.111.056.208.064.402.081q.045.045.045.173.005.121-.045.167Q53.79 8 53.638 8q-.284 0-1.143.02-.045-.045-.045-.167 0-.127.045-.173.26-.02.37-.046a.43.43 0 0 0 .214-.122.47.47 0 0 0 .117-.274q.025-.172.025-.508V2.185q0-.335-.015-.497-.015-.168-.132-.244a.4.4 0 0 0-.178-.086l-.34-.026q-.117-.116-.06-.31.922-.07 1.457-.284.137 0 .132.107-.04.417-.041 1.092l-.01 2.34q.01.112.101 0 .763-.842 1.773-.842.594 0 .863.355.279.366.28 1.392V6.73q0 .615.116.762.121.142.579.188.04.04.04.168 0 .121-.04.172A72 72 0 0 0 56.644 8q-.188 0-1.061.02-.04-.04-.04-.162 0-.127.04-.178.426-.04.533-.188.111-.147.112-.762V5.151q0-.553-.122-.802-.188-.376-.554-.376-.706 0-1.33.614a.63.63 0 0 0-.178.437M49.464 3.536h.477q0-.32-.005-.548 0-.235-.005-.34a5 5 0 0 0-.02-.26v-.055q0-.036.04-.066a.24.24 0 0 1 .087-.046l.269-.086q.06-.026.157-.076.096-.05.163-.082a.3.3 0 0 1 .096-.03q.082 0 .082.091-.04.417-.041 1.097v.401h1.25q.08 0 .08.066v.209q0 .136-.248.132h-1.082v2.63q0 .509.071.736.075.224.274.224.478 0 .853-.295.157.01.183.178-.615.686-1.401.686-.802 0-.803-1.026V3.943h-.614q-.05 0-.05-.061v-.137q0-.209.187-.209M45.016 6.73q0 .625.137.772.137.142.686.178.04.05.04.178 0 .122-.04.162c-.596-.013-1-.02-1.224-.02q-.219 0-1.097.02-.05-.04-.05-.162 0-.127.05-.178.447-.03.564-.178.116-.147.116-.771V3.943h-.72q-.052 0-.051-.061v-.137q0-.209.238-.209h.533V3.12q0-1.132.554-1.757.559-.624 1.285-.625.624 0 .934.224.335.249.335.528 0 .158-.147.294-.142.132-.28.132-.267 0-.416-.335-.101-.27-.244-.375a.6.6 0 0 0-.38-.112q-.823 0-.823 1.853v.59h1.127q.082 0 .082.065v.209q0 .136-.239.132h-.97zM38.384 5.867c0-.687.191-1.26.574-1.706q.62-.726 1.63-.726.747 0 1.26.37.517.367.72.88.203.507.203 1.09 0 1.09-.675 1.748-.594.583-1.528.579-1.04 0-1.615-.676a2.35 2.35 0 0 1-.569-1.559M40.431 3.8q-1.15 0-1.153 1.829 0 .335.076.68.081.34.233.675.157.33.447.544.294.213.68.213.459 0 .808-.376.356-.375.356-1.26-.001-1.111-.386-1.705-.386-.6-1.061-.6M31.802 6.563q.05-.05.163-.05.112 0 .162.04.178.735.406.96.228.25.737.248.336 0 .609-.188c.273-.188.274-.305.274-.538a.74.74 0 0 0-.213-.553q-.213-.21-.848-.468-.624-.26-.884-.558-.26-.305-.259-.858 0-.488.437-.823.437-.34 1.03-.34.24 0 .488.035.249.036.523.097.28.056.35.066 0 .137-.03.518-.03.375-.03.584-.051.05-.168.05c-.117 0-.134-.013-.167-.04a1.5 1.5 0 0 0-.173-.518.7.7 0 0 0-.28-.295 1.2 1.2 0 0 0-.284-.121 1 1 0 0 0-.228-.03.8.8 0 0 0-.508.182.58.58 0 0 0-.223.482.8.8 0 0 0 .056.3 1 1 0 0 0 .121.218.9.9 0 0 0 .234.173q.162.087.274.132l.356.142q1.22.462 1.218 1.381 0 .366-.172.64a1.16 1.16 0 0 1-.442.412 2.34 2.34 0 0 1-1.041.259q-.507 0-.945-.112a.8.8 0 0 0-.208-.02q-.101 0-.259.03a22 22 0 0 0-.076-1.437M29.278 4.278q0 .05.015.07t.066-.05q.21-.355.513-.61.31-.252.64-.253.3 0 .462.162a.47.47 0 0 1 .163.335q0 .198-.153.36a.45.45 0 0 1-.335.163.35.35 0 0 1-.147-.035q-.071-.041-.107-.076c-.036-.035-.056-.058-.096-.102a1 1 0 0 0-.076-.091q-.071-.071-.219-.071-.127 0-.477.507-.25.376-.249.696V6.73q0 .624.137.767.143.137.716.183.05.05.05.178 0 .121-.05.162c-.596-.013-1.02-.02-1.26-.02a63 63 0 0 0-1.187.02q-.041-.04-.041-.162 0-.127.04-.178.509-.03.64-.178.132-.147.132-.772V4.704q0-.436-.121-.548-.116-.116-.554-.158a.46.46 0 0 1-.02-.294q.813-.102 1.31-.3.081 0 .122.082.086.187.086.792M25.709 5.578l-.823.218q-.99.249-.985 1.143a.8.8 0 0 0 .188.513q.194.229.559.228.365 0 .914-.452a.31.31 0 0 0 .147-.269zm0 1.924h-.02l-.208.163q-.346.269-.564.35a1.6 1.6 0 0 1-.569.087q-.594 0-.955-.27-.356-.269-.355-.853 0-.518.472-.914.473-.396 1.244-.594l.894-.218q.06-.021.061-.122 0-1.35-.843-1.351-.345 0-.604.112-.26.105-.26.325 0 .147.021.203.03.06.03.188 0 .117-.126.233a.47.47 0 0 1-.33.112q-.367 0-.361-.366 0-.426.538-.787a2.06 2.06 0 0 1 1.178-.365c1.05 0 1.57.586 1.57 1.757V6.74q0 .3.015.457t.112.294a.34.34 0 0 0 .289.132.32.32 0 0 0 .218-.081.5.5 0 0 1 .102-.081q.03 0 .081.06.056.061.056.112 0 .03-.112.142a1.3 1.3 0 0 1-.325.219 1 1 0 0 1-.447.106q-.625.006-.802-.599M19.249 5.065l1.884-.03q.158 0 .152-.143 0-.594-.254-.843a.84.84 0 0 0-.609-.249q-.136 0-.27.036c-.133.036-.195.074-.324.152q-.194.112-.35.391a2.2 2.2 0 0 0-.229.686m2.727 1.97q.177.01.218.163c-.464.603-1.05.904-1.772.903-.687 0-1.22-.222-1.59-.665q-.486-.564-.487-1.538c0-.735.22-1.33.66-1.773q.66-.67 1.417-.67c1.17 0 1.76.603 1.757 1.808q0 .178-.193.177l-2.768-.02q0 .875.33 1.427.459.746 1.138.747.436 0 .711-.122.28-.127.579-.437M14.811 9.666q-.417.746-1.01.746a.55.55 0 0 1-.35-.112.33.33 0 0 1-.138-.274q0-.137.127-.294a.42.42 0 0 1 .33-.153q.051 0 .137.016.091.015.163.015.354 0 .523-.3.248-.508.406-.955.127-.356-.147-.98l-1.179-2.737a3.3 3.3 0 0 0-.248-.492.55.55 0 0 0-.214-.203 1 1 0 0 0-.355-.082q-.04-.04-.04-.162 0-.127.04-.183.417.02.843.02.406 0 1.173-.02.04.05.04.178 0 .126-.04.167-.182.015-.29.051a.5.5 0 0 0-.152.071q-.05.036-.046.127a.7.7 0 0 0 .036.158l.112.269.924 2.163q.03.075.06.112.037.035.067.035a.1.1 0 0 0 .06-.035.5.5 0 0 0 .062-.102l1.03-2.381q.118-.25-.035-.34-.153-.098-.467-.128-.05-.04-.05-.162 0-.127.05-.183.771.02.95.02.218 0 .736-.02.05.05.05.178 0 .126-.05.167a.82.82 0 0 0-.493.219 1.5 1.5 0 0 0-.35.447c-.444.928-1.06 2.34-1.838 4.245a10 10 0 0 1-.427.894M8.57 6.035q0-.813-.335-1.194a1.09 1.09 0 0 0-.869-.386q-.655 0-1.32.25l.35-2.997Q7 1.76 7.52 1.76q.624 0 1.706-.112l.076.04-.167.707q-.645.06-1.092.06-.355 0-1.219-.09L6.615 4.1q.427-.168 1.02-.168.841 0 1.351.564.513.559.513 1.35c0 .66-.207 1.2-.62 1.631q-.618.64-1.589.64-.477 0-.975-.239-.498-.244-.498-.543 0-.157.117-.27a.39.39 0 0 1 .274-.116q.279 0 .534.335a1 1 0 0 0 .06.086 1 1 0 0 1 .072.102 1 1 0 0 0 .076.081q.05.051.091.076l.102.066a.4.4 0 0 0 .132.046q.07.01.152.01.477 0 .808-.492.335-.498.335-1.224M1.054 3.135q0-.518.528-.995.533-.482 1.346-.483.706 0 1.229.402.528.396.528 1.178 0 .376-.157.71-.157.33-.34.544-.178.213-.544.564l-1.051 1.01q-.772.772-.772 1.26h1.854a.51.51 0 0 0 .436-.219q.157-.218.29-.782.198-.04.304.056a7.7 7.7 0 0 1-.248 1.64Q3.979 8 3.644 8H1.821l-.863.02a2.1 2.1 0 0 1 .233-.96q.239-.46.955-1.193l.772-.756q.853-.866.848-1.834 0-.676-.274-.964-.275-.295-.63-.295-.518 0-.772.198c-.254.198-.254.278-.254.437q0 .051.041.147.04.09.04.102a1 1 0 0 1 .041.218q0 .157-.172.29a.53.53 0 0 1-.315.126.42.42 0 0 1-.295-.116.38.38 0 0 1-.122-.285"/></g><defs><clipPath id="a"><path fill="#fff" d="M0 0h140v10.4H0z"/></clipPath></defs></svg>