<svg xmlns="http://www.w3.org/2000/svg" viewBox="0 0 140.17 29"><path fill="#595959" d="M14.984 20.012c-.195 2.51-.676 5.12-1.258 6.863-.578-.293-1.74-.68-2.418-.87.68-1.64.97-4.16 1.16-6.477zm5.508-8.219c.969 1.84 1.84 4.16 2.031 5.606l-2.418.968c-.094-.387-.094-.773-.191-1.16-5.7.871-6.77 1.16-7.348 1.45a79.444 79.444 0 0 0-.871-2.708c.68-.19 1.26-.773 2.129-1.933.676-.773 1.25-1.64 1.836-2.512-2.22.29-2.9.387-3.286.578-.293-.867-.582-1.84-.968-2.707.582-.094.969-.676 1.547-1.547.582-.77 2.32-3.86 3.285-6.863l2.804 1.066c-1.06 2.41-2.32 4.73-3.77 6.864l2.032-.098c.773-1.26 1.45-2.61 2.027-3.965l2.516 1.547c-1.64 3.09-3.68 6.09-5.898 8.797l3.289-.387c-.293-.773-.582-1.55-.969-2.32zm-2.61 7.54c.387 1.93.582 3.87.774 5.898l-2.418.578c0-1.64-.387-4.06-.676-5.895l2.32-.582zm2.996-.774c.68 1.74 1.16 3.48 1.645 5.316l-2.32.774c-.29-1.45-.965-3.67-1.45-5.41zm16.82 7.058H26.776v1.836H23.78V12.855a9.345 9.345 0 0 1-1.257 1.547c-.387-1.06-.871-2.22-1.45-3.187 2.12-2.52 3.96-6.77 4.832-10.055l3.192.965c-.484 1.36-.97 2.71-1.547 3.964h3.383c-.387-1.06-1.06-2.61-1.645-3.672l2.805-1.257c.676 1.26 1.35 2.61 1.933 3.964l-2.03.965h5.413v2.996h-4.351v2.418h3.77V14.5h-3.77v2.418h3.867v2.996h-3.867v2.511h4.64v3.192zm-7.734-16.53H26.68v2.417h3.285zm0 5.414H26.68v2.418h3.285V14.5zm-3.187 7.925h3.187v-2.511H26.68v2.511zm36.828-5.414c1.64 1.45 3.48 2.52 5.511 3.29-.87.772-1.64 1.64-2.222 2.609a17.305 17.305 0 0 1-4.45-2.996v2.125h-5.12v1.836h9.183v2.804H45.046v-2.804h8.894V22.04h-5.027V20.3c-1.36 1.16-2.9 2.12-4.45 2.899-.577-.965-1.35-1.84-2.124-2.61 2.12-.773 4.06-2.03 5.703-3.578h-5.508V14.31h5.317V5.9h-3.868V3.192h3.868V1.063h3.382v2.129h8.797V1.063h3.48v2.129h3.864v2.707h-3.863v8.41h5.219v2.703zm-1.739 2.32c-.773-.675-1.45-1.55-2.03-2.32h-7.927a11.88 11.88 0 0 1-2.03 2.32h4.062v-1.738h3.382v1.739zM51.233 5.9v1.253h8.797V5.9h-8.797zm0 4.832h8.797V9.473h-8.797v1.258zm0 3.578h8.797V13.05h-8.797z"/><path fill="#8c8c8c" d="M78.492 19.43c-.676 2.03-1.64 3.96-2.8 5.8-.68-.581-1.45-1.06-2.227-1.546.969-1.36 1.93-3.29 2.515-5.027zm3.867-1.644v9.378h-3.285v-9.378h-5.223v-2.801h5.223v-2.13H73.66v-2.8h2.707a25.903 25.903 0 0 0-.774-2.902l2.32-.578h-3.769V3.868h4.832c-.289-.773-.578-1.45-.87-2.223L81.487.87c.387.965.969 2.12 1.258 3.094h4.062v2.707h-3.48l2.32.48c-.387 1.06-.87 2.13-1.258 3.095h2.899v2.804h-4.832v2.125h4.351v2.805zM78.301 6.573c.387.965.773 1.93.964 2.899l-2.027.582h4.059c.484-1.16.87-2.32 1.258-3.48zm21.555 6.864h-2.61v13.824h-3.285V13.438h-2.61v.387c0 4.16-.386 9.96-2.804 13.53-.582-.577-1.93-1.64-2.61-2.027a9.858 9.858 0 0 0 1.254-2.707l-2.027 1.254c-.676-1.45-1.36-2.9-2.223-4.25l2.223-1.16c.773 1.16 1.55 2.41 2.125 3.672.773-2.71.871-5.8.871-8.313V3.672c3.09-.578 6.48-1.45 8.508-2.414l2.61 2.414c-2.32.97-5.22 1.64-8.024 2.13v4.445h8.508zm9.28-2.223v16.047h-3.284V1.836h10.824v9.379h-7.54zm0-7.058v1.355h4.446V4.157zm4.446 4.93v-1.45h-4.445v1.45zm9.281 14.5v2.995h-2.996v-2.996H110.2v-2.32h2.32V14.5h-1.644v-2.32h13.727v2.32h-1.64v6.766h2.027v2.32h-2.125zm-7.441-9.087v.965h4.445V14.5zm0 3.867h4.445v-1.062h-4.445zm4.445 2.899v-1.063h-4.445v1.063zm9.86 2.707c0 1.55-.29 2.22-1.16 2.805-.872.484-2.22.578-3.965.578-.191-.965-.48-2.03-.965-2.899h2.32c.387 0 .484-.097.484-.484V11.215h-7.734V1.836h11.02v22.137zM121.8 4.157v1.355h4.543V4.157zm4.64 4.93v-1.45h-4.64v1.45z"/></svg>