<?xml version="1.0" encoding="UTF-8"?>
<svg xmlns="http://www.w3.org/2000/svg" width="117" height="13" viewBox="0 0 117 13">
	<title>
		Shape
	</title>
	<g id="Page-1" fill="none" fill-rule="evenodd" stroke="none" stroke-width="1">
		<path id="Shape" fill="#000" fill-rule="nonzero" d="M47.6002163,3.51815008 C47.6190643,3.51815008 47.6379123,3.52427594 47.6483834,3.5364985 L47.6567603,3.55940121 L47.6143523,4.65879788 L47.6567603,4.65879788 C48.3069539,3.69682948 49.0560924,3.55940121 49.5084011,3.55940121 C50.8794621,3.55940121 51.8830255,4.90616681 51.8830255,6.36287306 C51.8830255,7.47601354 51.5296577,8.32805113 50.8935982,8.96020742 C50.3423465,9.49616686 49.663882,9.72978213 48.9147455,9.72978213 C48.4785904,9.72978213 48.1358963,9.64900941 47.8154558,9.50477395 L47.6567603,9.4274478 L47.6567603,11.8049009 C47.6567603,12.1547165 47.7852569,12.3114291 48.1378271,12.3680239 L48.2504159,12.3820917 L48.5189747,12.4095597 C48.5719757,12.4198675 48.6170319,12.4378952 48.6362475,12.4752557 L48.6461867,12.5194905 L48.6461867,12.7806032 L48.6179146,12.8080712 L47.8670108,12.7892054 C47.6214208,12.784049 47.374064,12.7806032 47.1055057,12.7806032 C46.8510818,12.7806032 46.614326,12.7840244 46.3758034,12.7891685 L45.6355007,12.8080712 L45.6072286,12.7806032 L45.6072286,12.5194905 C45.6072286,12.4679807 45.6310826,12.4395972 45.6728234,12.4228515 L45.7203056,12.4095597 L45.9888644,12.3820917 C46.4000541,12.3446086 46.5659324,12.2162736 46.5926939,11.9041459 L46.596655,11.8049009 L46.596658,5.18096429 C46.596658,4.54669811 46.5003076,4.38079298 46.3298426,4.33741789 L46.2856952,4.3289267 L45.6779046,4.27399083 L45.6496326,3.94416887 L46.1141131,3.8706231 C46.8286988,3.75101493 47.258629,3.64412682 47.6002163,3.51815008 Z M86.3907649,0.851880067 C89.0158022,0.851880067 89.4250872,2.04570145 89.4250872,2.9650404 C89.4250872,3.66941668 88.871851,4.32598059 88.2243641,4.68930735 L88.0843416,4.76258532 L88.0843416,4.7899548 C89.3121793,5.13300862 90.2577598,5.88766795 90.2577598,7.20493752 C90.2577598,8.38498556 89.5097604,9.75716146 86.7012548,9.75716146 L85.6573251,9.74850158 C85.2812325,9.74128502 85.065897,9.73190349 84.7500884,9.73009935 L83.9988541,9.73378108 C83.6089135,9.73878387 83.2670613,9.7478414 82.8060324,9.75716146 C82.7213379,9.67481673 82.7213379,9.3864428 82.8060324,9.30433436 L83.0573014,9.29164197 C83.7577625,9.24682359 83.9884185,9.12017938 84.027545,8.34052823 L84.0338753,8.05567555 L84.0338753,2.55334628 L84.027545,2.26849761 C83.9840711,1.40224384 83.7041411,1.34227801 82.8060324,1.30468748 C82.7213379,1.2223526 82.7213379,0.933988515 82.8060324,0.851880067 L83.9978078,0.875172933 C84.1891192,0.877718084 84.3914076,0.87924955 84.6266266,0.87924955 C85.2334876,0.87930862 85.8968066,0.851880067 86.3907649,0.851880067 Z M65.6163864,8.86062385e-05 C65.7435932,8.86062385e-05 65.8001373,0.0413298877 65.8001373,0.137516882 L65.776816,0.575323682 C65.7669648,0.821589598 65.7577292,1.16362504 65.7577292,1.58047932 L65.7586626,8.13645439 L65.7673268,8.36210447 C65.7906614,8.68583674 65.8629317,8.76116693 66.051102,8.78840269 L66.7895605,8.86404996 L66.8319686,9.1801281 C66.0352882,9.31754832 65.4488738,9.47769372 65.1152069,9.6915199 L65.0227318,9.75730914 L64.697634,9.75730914 L64.725906,8.7953309 L64.697634,8.7815477 C64.0474405,9.29001953 63.3407059,9.72977229 62.7753193,9.72977229 C61.2487773,9.72977229 60.4006959,8.49294734 60.4006959,6.80262582 C60.4006959,5.78567233 60.7399287,4.97486618 61.3477182,4.38394133 C61.9131049,3.86172569 62.5350315,3.55939136 63.4679188,3.55939136 C63.715275,3.55939136 64.2223563,3.65408728 64.5630512,3.79744271 L64.697634,3.86172569 L64.697634,1.85531618 C64.697634,1.0178857 64.5734033,0.808529811 64.3249428,0.785631538 L63.8212846,0.755939201 C63.7894862,0.755939201 63.757682,0.740488488 63.7437674,0.715360313 L63.7364787,0.687220141 L63.7082067,0.357398185 C64.2877273,0.316166749 65.2630206,0.137516882 65.6163864,8.86062385e-05 Z M99.8339457,9.84513761e-05 C99.9357412,9.84513761e-05 99.9922625,0.0264928715 100.010799,0.0862983807 L100.017694,0.137526727 C100.017694,0.137526727 99.9752653,0.687229986 99.9752653,1.58048917 L99.9752653,4.3152518 C100.455839,3.80677998 101.021229,3.55941105 101.699686,3.55941105 C102.929407,3.55941105 104.173254,4.59009851 104.173254,6.26668606 C104.173254,8.45173559 102.519504,9.72979198 101.077762,9.72979198 C100.469975,9.72979198 100.017663,9.56488592 99.6077595,9.22132016 C99.4805455,9.39997987 99.2826617,9.63359514 99.1413117,9.7572796 C98.9999719,9.7572796 98.9292412,9.74349641 98.844486,9.68856054 C98.8939265,9.424018 98.9109605,9.21208095 98.9144465,8.80417921 L98.9152268,1.85532603 C98.9152268,1.01789555 98.7909934,0.808539656 98.542535,0.785641383 L98.0388753,0.755949046 C98.0070541,0.755949046 97.9752329,0.740498333 97.9613111,0.715370158 L97.9540188,0.687229986 L97.925767,0.357408031 C98.4911465,0.316176594 99.4805759,0.137526727 99.8339457,9.84513761e-05 Z M56.3924148,3.55940121 C58.2581886,3.55940121 58.6963653,4.79622615 58.6963653,5.95059807 C58.6963653,6.08013196 58.6236725,6.1592507 58.504991,6.1792125 L58.4419415,6.18422319 L54.724524,6.18422319 C54.724524,8.23185429 55.9401061,9.05640426 56.7316466,9.05640426 C57.5090531,9.05640426 58.0037668,8.80903533 58.4984804,8.28681969 C58.6539613,8.30056351 58.7387652,8.36927272 58.7811732,8.506701 C58.2440566,9.22131031 57.4101101,9.72978213 56.3924148,9.72978213 C54.4559672,9.72978213 53.5937507,8.43799178 53.5937507,6.85760107 C53.5937507,4.76873853 55.0496228,3.55940121 56.3924148,3.55940121 Z M108.375669,3.55940121 L108.596604,3.56552117 C109.514853,3.6183572 110.384005,4.03585004 110.449505,5.67878909 L110.453459,5.88187901 L110.453803,8.05488838 L110.458658,8.2809735 C110.47848,8.7564558 110.572946,9.12511347 111.018849,9.12511347 C111.358083,9.12511347 111.40043,8.90523217 111.485286,8.90523217 C111.541841,8.90523217 111.640772,9.01518266 111.640772,9.11136966 C111.640772,9.18008872 111.160189,9.72978213 110.467595,9.72978213 C109.818343,9.72978213 109.561945,9.3478633 109.449877,9.05815653 L109.407516,8.93271979 L109.379264,8.93271979 L109.096575,9.15260109 C108.474651,9.61984148 108.206087,9.72978213 107.555892,9.72978213 C106.566472,9.72978213 105.803199,9.33125096 105.803199,8.2455981 C105.803199,7.35783202 106.657886,6.65610502 107.906748,6.30537063 L108.107145,6.2529324 L109.32273,5.96434189 C109.365057,5.95059807 109.407486,5.89561298 109.407486,5.79942599 C109.407486,4.2465229 108.743154,3.97167619 108.262581,3.97167619 C107.725463,3.97167619 107.089403,4.16406987 107.089403,4.59008866 C107.089403,4.74125091 107.10358,4.82368424 107.117655,4.86493537 C107.145907,4.91991062 107.160083,5.0161173 107.160083,5.1123043 C107.160083,5.29095416 106.948063,5.56580087 106.53816,5.56580087 C106.213062,5.56580087 106.04344,5.41463863 106.04344,5.08481667 C106.04344,4.34271973 107.216627,3.55940121 108.375669,3.55940121 Z M75.0505986,3.55940121 L75.2715349,3.56552117 C76.1897851,3.6183572 77.0589403,4.03585004 77.1244401,5.67878909 L77.1283942,5.88187901 L77.1287376,8.05488838 L77.1335934,8.2809735 C77.1534143,8.7564558 77.2478795,9.12511347 77.6937808,9.12511347 C78.0330126,9.12511347 78.0754186,8.90523217 78.1602245,8.90523217 C78.2167645,8.90523217 78.3157064,9.01518266 78.3157064,9.11136966 C78.3157064,9.18008872 77.8351267,9.72978213 77.1425292,9.72978213 C76.4433352,9.72978213 76.1997136,9.28684668 76.1013879,8.99315384 L76.0824279,8.93271979 L76.0541559,8.93271979 L75.7714621,9.15260109 C75.1495375,9.61984148 74.8809777,9.72978213 74.2307831,9.72978213 C73.2413578,9.72978213 72.4780853,9.33125096 72.4780853,8.2455981 C72.4780853,7.35783202 73.3327739,6.65610502 74.5816381,6.30537063 L74.7820357,6.2529324 L75.9976169,5.96434189 C76.0400148,5.95059807 76.0824228,5.89561298 76.0824228,5.79942599 C76.0824228,4.2465229 75.4180933,3.97167619 74.9375146,3.97167619 C74.400398,3.97167619 73.7643374,4.16406987 73.7643374,4.59008866 L73.770218,4.74025647 C73.7738368,4.7804911 73.7788127,4.8114921 73.7842409,4.83502245 L73.7926094,4.86493537 C73.8208814,4.91991062 73.8350174,5.0161173 73.8350174,5.1123043 C73.8350174,5.29095416 73.6229966,5.56580087 73.2130918,5.56580087 C72.8879951,5.56580087 72.7183782,5.41463863 72.7183782,5.08481667 C72.7183782,4.34271973 73.8915564,3.55940121 75.0505986,3.55940121 Z M94.4384566,3.55940121 C96.3042272,3.55940121 96.742403,4.79622615 96.742403,5.95059807 C96.742403,6.08013196 96.6697109,6.1592507 96.5510328,6.1792125 L96.4879852,6.18422319 L92.7705697,6.18422319 C92.7705697,8.23185429 93.9861448,9.05640426 94.7776903,9.05640426 C95.5550897,9.05640426 96.0498095,8.80903533 96.5445191,8.28681969 C96.7000051,8.30056351 96.7847907,8.36927272 96.827219,8.506701 C96.2901014,9.22131031 95.4561478,9.72978213 94.4384566,9.72978213 C92.502016,9.72978213 91.6398066,8.43799178 91.6398066,6.85760107 C91.6398066,4.76873853 93.0956675,3.55940121 94.4384566,3.55940121 Z M18.972019,3.55932245 C19.6787515,3.55932245 20.0886583,3.68300691 20.526832,3.90288821 C20.590441,4.23270278 20.630192,4.57798468 20.6580193,4.9387256 L20.6823139,5.30461921 L20.3006781,5.31840241 C20.0038504,4.19151811 19.2688468,3.97163681 18.972019,3.97163681 C18.4349024,3.97163681 17.8553808,4.13654286 17.8553808,4.89238361 C17.8553808,5.40543999 18.0523868,5.67906577 18.7107145,5.9367295 L18.8589421,5.99178028 C20.0038483,6.40405527 20.9226027,6.89879312 20.9226027,7.99818979 C20.9226027,9.35869921 19.4384627,9.72974275 18.7741342,9.72974275 C18.378364,9.72974275 18.0368697,9.69455859 17.7279424,9.63123719 L17.502014,9.57858051 C17.4030711,9.55111257 17.3323971,9.55111257 17.2334552,9.55111257 C17.1627823,9.55111257 17.0497043,9.56489577 16.9083584,9.5923637 C16.9083584,9.130611 16.8812173,8.60729861 16.841415,8.07166925 L16.8094155,7.66836784 L17.1910512,7.65458465 C17.2334552,7.99815041 17.3748021,8.6303067 17.6998989,8.94638484 C17.8412458,9.09754709 18.2228825,9.34491601 18.7458642,9.34491601 C19.2405779,9.34491601 19.9755804,8.98760643 19.9755804,8.31422856 C19.9755804,7.75806399 19.6750835,7.38449001 18.7087832,6.94146492 L18.1777683,6.70713448 C17.3783241,6.33958481 16.9931664,6.00791183 16.9931664,5.09848172 C16.9931664,4.17773492 17.8553818,3.55932245 18.972019,3.55932245 Z M41.4465582,3.55940121 C43.5384868,3.55940121 44.3441653,5.22224495 44.3441653,6.65146358 C44.3441653,8.0257168 43.4254098,9.72978213 41.4182892,9.72978213 C39.5242455,9.72978213 38.5206832,8.17687904 38.5206832,6.77514804 C38.5206832,4.89242299 39.5666495,3.55940121 41.4465582,3.55940121 Z M115.049413,3.55932245 C115.756143,3.55932245 116.166057,3.68300691 116.604232,3.90288821 C116.667829,4.23270278 116.707594,4.57798468 116.735421,4.9387256 L116.759708,5.30461921 L116.378076,5.31840241 C116.081251,4.19151811 115.346239,3.97163681 115.049413,3.97163681 C114.512296,3.97163681 113.93278,4.13654286 113.93278,4.89238361 C113.93278,5.40543999 114.129787,5.67906577 114.788109,5.9367295 L114.936335,5.99178028 C116.081241,6.40405527 117,6.89879312 117,7.99818979 C117,9.35869921 115.515861,9.72974275 114.851529,9.72974275 C114.455762,9.72974275 114.114263,9.69455859 113.805337,9.63123719 L113.57941,9.57858051 C113.480468,9.55111257 113.409778,9.55111257 113.310846,9.55111257 C113.240176,9.55111257 113.127099,9.56489577 112.985759,9.5923637 C112.985759,9.130611 112.958605,8.60729861 112.918803,8.07166925 L112.886807,7.66836784 L113.268449,7.65458465 C113.310846,7.99815041 113.452196,8.6303067 113.777294,8.94638484 C113.918644,9.09754709 114.300276,9.34491601 114.823257,9.34491601 C115.317977,9.34491601 116.052979,8.98760643 116.052979,8.31422856 C116.052979,7.72330371 115.713745,7.3385065 114.597102,6.85752231 C113.565274,6.4177597 113.070565,6.12916918 113.070565,5.09848172 C113.070565,4.17773492 113.93278,3.55932245 115.049413,3.55932245 Z M70.0672439,3.51815008 C70.095516,3.51815008 70.123788,3.53193327 70.123788,3.55940121 L70.0888266,4.60090739 C70.0855094,4.74790838 70.0829838,4.89762163 70.0819284,5.04059189 L70.081388,8.60284861 C70.081388,8.96514967 70.2098855,9.12300547 70.562455,9.17970488 L70.6750436,9.19378331 L70.9436025,9.22125124 C70.9966034,9.23156648 71.0416596,9.24959601 71.0608752,9.28695692 L71.0708144,9.33119189 L71.0708144,9.59230463 L71.0425424,9.61977256 L70.1317042,9.59803214 C69.9394726,9.59450994 69.7449794,9.59230463 69.5301324,9.59230463 L68.9557002,9.59803214 L68.9557002,9.59803214 L68.0601274,9.61977256 L68.0318553,9.59230463 L68.0318553,9.33119189 C68.0318553,9.27967475 68.0557093,9.25134475 68.0974501,9.23458479 L68.1449323,9.22125124 L68.4134911,9.19378331 C68.8540215,9.14338933 68.9976258,9.0237119 69.0185006,8.69714514 L69.0212817,8.60284861 L69.0212817,5.18096429 C69.0212817,4.54669811 68.9249312,4.38079298 68.7544663,4.33741789 L68.7103189,4.3289267 L68.1025283,4.27399083 L68.0742563,3.94416887 L68.5428594,3.8706231 C69.2702056,3.75101493 69.7374358,3.64412682 70.0672439,3.51815008 Z M6.06377163,0.673446793 C6.0920369,0.673446793 6.10774132,0.679572656 6.11507035,0.691795212 L6.13888656,0.808739789 C6.17345233,0.999483946 6.24379588,1.43117616 6.30927948,1.85815316 L6.43127238,2.70725532 L6.02136766,2.77597438 C5.72768058,1.88042894 5.48442395,1.34035468 4.56525185,1.28311046 L4.39588075,1.27804654 L2.91174074,1.27804654 C2.61020139,1.27804654 2.44267953,1.38663184 2.40917516,1.6423995 L2.40289309,1.74528692 L2.40289309,4.63122165 L4.19799487,4.63122165 C4.64773458,4.63122165 4.82879507,4.47221047 4.88986008,4.15420291 L4.9047284,4.05403076 L4.94713642,3.710465 C4.94713642,3.66921141 4.97098524,3.62799659 5.00676416,3.60996753 L5.04607835,3.60052435 L5.35704114,3.60052435 L5.41358517,3.65546021 L5.37352628,4.28649576 C5.36165698,4.5333001 5.35704114,4.7352299 5.35704114,4.89228516 L5.35991252,5.11774697 C5.36488221,5.3228108 5.37675425,5.5735055 5.3989798,5.88995639 L5.41358517,6.08787867 L5.35704114,6.1291298 L5.04607835,6.1291298 C4.99307592,6.1291298 4.9639223,6.09049194 4.95265814,6.05377019 L4.94713642,6.01918915 L4.9047284,5.67562338 C4.8658581,5.31030314 4.70821712,5.17593048 4.31204561,5.15607198 L4.19799487,5.15340775 L2.40289309,5.15340775 L2.40289309,8.60277969 C2.40289309,8.93668344 2.56317982,9.03690064 2.82192905,9.05360505 L2.91174074,9.05628611 L4.83405545,9.05628611 C5.84860909,9.05628611 6.39667783,8.33306704 6.69258941,7.41916242 L6.74223517,7.2560141 L7.18040988,7.32473316 L6.65742723,9.61972334 L5.26709499,9.59479029 C5.11851548,9.59322107 4.97540217,9.5922554 4.84819045,9.5922554 L1.82337147,9.5922554 L1.14468131,9.59798291 L1.14468131,9.59798291 L0.0282689766,9.61972334 L0,9.5922554 L0,9.31739885 C0,9.28439795 0.0180924043,9.24263882 0.0687510325,9.2272552 L0.113077324,9.22121186 L0.53711734,9.19374392 C1.04243077,9.15594844 1.22706554,9.01422365 1.25432888,8.69448108 L1.25798526,8.60280923 L1.25798526,1.74529677 C1.25798526,1.35477954 1.10358348,1.19523471 0.664132961,1.13958196 L0.53711734,1.1268843 L0.113077324,1.09941636 C0.0339234605,1.09941636 0.00904629124,1.06425741 0.00226157807,1.02907325 L0,1.00322937 L0,0.728382661 L0.0282689766,0.700914727 L1.14468131,0.722655154 L1.14468131,0.722655154 L1.82337147,0.728382661 L5.39944207,0.728382661 C5.73867384,0.728382661 5.82348179,0.71469792 6.06377163,0.673446793 Z M28.5239672,0 C28.6257327,0 28.682274,0.0263944201 28.7008198,0.0861999293 L28.7077181,0.137428276 C28.7077181,0.137428276 28.6805769,0.489238361 28.6697205,1.0873111 L28.6653101,1.58039071 L28.6653101,6.33529683 C28.9838107,6.26383754 29.5677306,5.78981315 30.2146411,5.13687226 L30.6102966,4.72486283 C30.799292,4.50754976 31.0473722,4.10252221 30.3332009,4.06778442 C30.2801985,4.06778442 30.2430934,4.03684423 30.2278535,3.99819807 L30.220123,3.95784377 L30.220123,3.69674088 L30.2515364,3.68252012 C30.257819,3.6784508 30.262531,3.67386734 30.262531,3.66927294 L31.1277129,3.69368917 C31.2412847,3.69561572 31.3670543,3.69674088 31.5205162,3.69674088 L31.9492679,3.69268249 L31.9492679,3.69268249 L32.7502324,3.66927294 L32.8067764,3.69674088 L32.8067764,3.95784377 C32.8067764,4.01279539 32.7524967,4.04136519 32.6946019,4.05765204 L32.6512945,4.06778442 L32.5523526,4.08156761 C32.2184213,4.12966234 31.7005173,4.31454341 31.3395316,4.5993817 L31.1954245,4.72746771 L30.1211902,5.88182979 C30.0787822,5.92307107 30.0646462,5.9643222 30.0646462,6.01925806 C30.0646462,6.06506421 30.077207,6.11088785 30.0981462,6.15262467 L30.1353161,6.21165174 L31.789072,8.5891048 C32.0116928,8.91377652 32.38582,9.1016845 32.7126015,9.18039125 L32.8491723,9.20751727 L32.9481142,9.22130046 C33.0272661,9.23230339 33.0611906,9.25208345 33.0715943,9.29473952 L33.0753261,9.33124112 L33.0753261,9.59235386 L33.0470541,9.61982179 L32.4516316,9.60095605 C32.2590466,9.59579965 32.0646947,9.59235386 31.8456079,9.59235386 L31.3190916,9.60095605 L31.3190916,9.60095605 L30.8985855,9.61982179 L30.8561775,9.59235386 L30.8561775,9.33124112 C30.8561775,9.17244123 30.8226723,9.02449288 30.6166826,8.71367478 L30.5310797,8.58914418 L29.4992494,7.17366936 C29.2479669,6.81941068 29.0636924,6.70404901 28.777664,6.68278664 L28.665304,6.67894135 L28.665304,8.60288799 C28.665304,9.04477109 28.8575857,9.15208589 29.1393909,9.19963806 L29.3013636,9.22130046 C29.3437716,9.22130046 29.3861739,9.24448761 29.4047246,9.28507204 L29.4144415,9.33124112 L29.4144415,9.59235386 L29.3861695,9.61982179 L28.4797846,9.5947213 C28.3764248,9.59321531 28.2589305,9.59235386 28.1140503,9.59235386 L27.4367548,9.6011478 L27.4367548,9.6011478 L26.6581793,9.61982179 L26.6299073,9.59235386 L26.6299073,9.33124112 C26.6299073,9.27972397 26.6458103,9.25139397 26.6835757,9.23463401 L26.7288492,9.22130046 L26.997408,9.19383253 C27.4249814,9.15603705 27.5793832,9.02586088 27.6021476,8.69745684 L27.6051986,8.60289784 L27.6052148,1.85522758 C27.6052148,1.01779709 27.4809841,0.808441205 27.2325236,0.785542931 L26.7288654,0.755850595 C26.697067,0.755850595 26.6652629,0.740399882 26.6513482,0.715271707 L26.6440595,0.687131534 L26.6157875,0.357309579 C27.1811741,0.316078143 28.1706014,0.137428276 28.5239672,0 Z M10.4852676,3.51815008 C10.5041089,3.51815008 10.5229546,3.52427594 10.533425,3.5364985 L10.5418208,3.55935198 L10.4994127,4.78243312 L10.5418208,4.78243312 C11.4464381,3.75174566 12.1249037,3.55935198 12.8457712,3.55935198 C14.0625799,3.55935198 14.3741316,4.42692375 14.3989229,5.57274925 L14.4005842,8.60284861 C14.4005842,8.96514967 14.5290816,9.12300547 14.8816519,9.17970488 L14.9942408,9.19378331 L15.2627986,9.22125124 C15.3158071,9.23156648 15.3608595,9.24959601 15.3800727,9.28695692 L15.3900105,9.33119189 L15.3900105,9.59230463 L15.3617385,9.61977256 L14.4692193,9.59803214 C14.2790231,9.59450994 14.0811377,9.59230463 13.8493295,9.59230463 L13.1549637,9.60090682 L13.1549637,9.60090682 L12.4499974,9.61977256 L12.4217254,9.59230463 L12.4217254,9.33119189 C12.4217254,9.27967475 12.4455794,9.25134475 12.4873202,9.23458479 L12.5348023,9.22125124 L12.7326872,9.19378331 C13.1438778,9.13131143 13.3097554,9.02341361 13.3365167,8.70488975 L13.3404778,8.60284861 L13.3404778,5.63447071 C13.3404778,4.67249246 13.1708619,4.21898605 12.4217254,4.21898605 C11.8412615,4.21898605 11.3346739,4.42249948 10.6836176,5.12002426 L10.5418147,5.27716113 L10.5418147,8.60284861 C10.5418147,8.96816885 10.6605853,9.10254151 11.0396609,9.17533118 L11.1496053,9.19378331 L11.3474901,9.22125124 C11.4004926,9.23156648 11.4375977,9.24959601 11.4528376,9.28695692 L11.4605681,9.33119189 L11.4605681,9.59230463 L11.4322961,9.61977256 L10.716729,9.60090682 C10.4994084,9.59575043 10.2803208,9.59230463 9.99056002,9.59230463 L9.39780934,9.59803214 L9.39780934,9.59803214 L8.52055501,9.61977256 L8.49228299,9.59230463 L8.49228299,9.33119189 C8.49228299,9.27967475 8.51613693,9.25134475 8.55787777,9.23458479 L8.60535991,9.22125124 L8.87391873,9.19378331 C9.30149211,9.15598782 9.45589389,9.02581165 9.47865826,8.69740761 L9.48170933,8.60284861 L9.48170933,5.18096429 C9.48170933,4.54669811 9.38535976,4.38079298 9.21489415,4.33741789 L9.17074653,4.3289267 L8.56295594,4.27399083 L8.53468393,3.94416887 L8.99523806,3.8706231 C9.70786049,3.75101493 10.1554595,3.64412682 10.4852676,3.51815008 Z M24.4593608,3.51815008 C24.4876227,3.51815008 24.5158947,3.53193327 24.5158947,3.55940121 L24.4809403,4.60090739 C24.4776233,4.74790838 24.4750977,4.89762163 24.4740422,5.04059189 L24.4735019,8.60284861 C24.4735019,8.96514967 24.6019994,9.12300547 24.9545697,9.17970488 L25.0671585,9.19378331 L25.3357163,9.22125124 C25.3887248,9.23156648 25.4337773,9.24959601 25.4529905,9.28695692 L25.4629282,9.33119189 L25.4629282,9.59230463 L25.4346562,9.61977256 L24.5238185,9.59803214 C24.331587,9.59450994 24.1370939,9.59230463 23.9222473,9.59230463 L23.3478144,9.59803214 L23.3478144,9.59803214 L22.4522422,9.61977256 L22.4239702,9.59230463 L22.4239702,9.33119189 C22.4239702,9.27967475 22.4478247,9.25134475 22.4895659,9.23458479 L22.5370482,9.22125124 L22.805607,9.19378331 C23.2461365,9.14338933 23.3897415,9.0237119 23.4106164,8.69714514 L23.4133976,8.60284861 L23.4133976,5.18096429 C23.4133976,4.54669811 23.3170471,4.38079298 23.1465822,4.33741789 L23.1024348,4.3289267 L22.4946442,4.27399083 L22.4663722,3.94416887 L22.9349753,3.8706231 C23.6623215,3.75101493 24.1295519,3.64412682 24.4593608,3.51815008 Z M35.9941281,8.86062385e-05 C36.0959008,8.86062385e-05 36.1524371,0.0264830264 36.1709807,0.0862885356 L36.1778779,0.137516882 C36.1778779,0.137516882 36.1354699,0.687220141 36.1354699,1.58047932 L36.1354699,8.60289784 C36.1354699,8.96821808 36.2423641,9.12567143 36.6194602,9.18115058 L36.7291265,9.19383253 L37.0683583,9.22130046 C37.1107656,9.22130046 37.1531677,9.24448761 37.1717183,9.28507204 L37.1814352,9.33124112 L37.1814352,9.59235386 L37.1531632,9.61982179 L35.9744644,9.5947213 C35.8554239,9.59321531 35.7290954,9.59235386 35.5842152,9.59235386 L34.7856308,9.60296649 L34.7856308,9.60296649 L34.0435363,9.61982179 L34.0294003,9.59235386 L34.0294003,9.33124112 C34.0294003,9.27972397 34.0453033,9.24364093 34.0830686,9.22881923 L34.1283422,9.22130046 L34.467574,9.19383253 C34.8951473,9.15603705 35.0495491,9.02586088 35.0723135,8.69745684 L35.0753757,8.60288799 L35.0753757,1.85531618 C35.0753757,1.0178857 34.951145,0.808529811 34.7026845,0.785631538 L34.1990263,0.755939201 C34.1672279,0.755939201 34.1354237,0.740488488 34.1215091,0.715360313 L34.1142204,0.687220141 L34.0859483,0.357398185 C34.665469,0.316166749 35.6407613,0.137516882 35.9941281,8.86062385e-05 Z M86.2072955,5.17410223 L85.2334886,5.17410223 L85.2334886,8.38492649 C85.2334886,8.83775359 85.4169621,9.30427528 86.4048786,9.30427528 C88.5500703,9.30427528 88.9452406,8.46727122 88.9452406,7.46558754 C88.9452406,6.27640066 88.1992767,5.25261063 86.4174986,5.17840559 L86.2072955,5.17410223 Z M41.2910773,4.01289778 C40.1603051,4.01289778 39.7221294,5.26347638 39.7221294,6.4590699 C39.7221294,7.51724498 40.259248,9.27628556 41.6585791,9.27628556 C42.2946376,9.27628556 43.1427181,8.90523217 43.1427181,7.09122618 C43.1427181,5.07107286 42.4501185,4.01289778 41.2910773,4.01289778 Z M101.416996,4.16406987 L101.325707,4.16670854 C101.088548,4.17960856 100.545621,4.25231661 100.087738,4.63812838 L99.9752653,4.74125091 L99.9752653,8.61664165 C100.257955,8.96020742 100.554781,9.26254175 100.992957,9.26254175 C102.335746,9.26254175 102.971815,8.0806822 102.971815,6.5140353 C102.971815,5.18101351 102.279212,4.16406987 101.416996,4.16406987 Z M49.1267603,4.19155749 C48.6831492,4.19155749 48.0709253,4.53113435 47.7347821,5.1562464 L47.6567553,5.31844179 L47.6567553,8.6716169 C48.1514679,9.23507381 48.6037776,9.26254175 48.8299325,9.26254175 C50.3423394,9.26254175 50.7239772,7.8608009 50.7239772,6.7339166 C50.7239772,5.18101351 49.9889737,4.19155749 49.1267603,4.19155749 Z M109.407496,6.39036068 L108.290853,6.6789512 C107.244889,6.95379791 106.919791,7.57221038 106.919791,8.19062285 C106.919791,8.61664165 107.259025,9.16634491 107.965755,9.16634491 C108.317557,9.16634491 108.736359,8.92746346 109.083194,8.67168543 L109.209612,8.57541021 C109.303886,8.50669936 109.378456,8.42844419 109.400694,8.30088242 L109.407496,8.21811048 L109.407496,6.39036068 Z M76.0824289,6.39036068 L74.9657907,6.6789512 C73.9198264,6.95379791 73.5947276,7.57221038 73.5947276,8.19062285 C73.5947276,8.61664165 73.9339604,9.16634491 74.6406929,9.16634491 C74.9924891,9.16634491 75.411294,8.92746346 75.7581269,8.67168543 L75.8845441,8.57541021 C75.9787765,8.50669936 76.0533749,8.42844419 76.0756235,8.30088242 L76.0824289,8.21811048 L76.0824289,6.39036068 Z M63.3124319,4.0403854 L63.1735991,4.04455245 C62.863296,4.06450599 62.3734861,4.17388828 61.9979077,4.72751694 C61.7858879,5.01610746 61.602137,5.56581072 61.602137,6.55526674 C61.602137,8.27307588 62.3795445,9.08389188 63.142816,9.08389188 C63.4769076,9.08389188 63.9628611,8.84537918 64.5263354,8.43031676 L64.6976289,8.30056351 L64.6976289,4.85119156 C64.3583972,4.32897592 63.9767604,4.0403854 63.3124319,4.0403854 Z M56.3924148,4.02664159 L56.2317663,4.03329007 C55.8291161,4.06799262 55.069152,4.27558273 54.8044782,5.45401175 L54.7669279,5.64826374 L57.3677072,5.64826374 C57.509048,5.64826374 57.5655921,5.57954468 57.5655921,5.45587006 C57.5655921,4.30149814 56.9012625,4.02664159 56.3924148,4.02664159 Z M94.4384566,4.02664159 L94.2778078,4.03329007 C93.8751575,4.06799262 93.1151951,4.27558273 92.8505184,5.45401175 L92.8129676,5.64826374 L95.4137499,5.64826374 C95.5551302,5.64826374 95.6116338,5.57954468 95.6116338,5.45587006 C95.6116338,4.30149814 94.9473022,4.02664159 94.4384566,4.02664159 Z M86.4613315,1.31834269 L86.1285861,1.32263743 C85.2832163,1.34747977 85.2362513,1.4843465 85.2336421,1.84279378 L85.2334886,4.70756084 L86.2778611,4.70756084 C87.449248,4.70756084 88.2819216,4.29591595 88.2819216,3.12958219 C88.2819216,1.72999743 87.2516649,1.31834269 86.4613315,1.31834269 Z M23.8657002,1.09949512 C24.2332009,1.09949512 24.5441647,1.40182945 24.5441647,1.75912919 C24.5441647,2.11643877 24.2332009,2.4187731 23.8657002,2.4187731 C23.4981994,2.4187731 23.1872366,2.11643877 23.1872366,1.75912919 C23.1872366,1.40182945 23.4981994,1.09949512 23.8657002,1.09949512 Z M69.4735934,1.09949512 C69.8410941,1.09949512 70.1520569,1.40182945 70.1520569,1.75912919 C70.1520569,2.11643877 69.8410941,2.4187731 69.4735934,2.4187731 C69.1060916,2.4187731 68.7951288,2.11643877 68.7951288,1.75912919 C68.7951288,1.40182945 69.1060916,1.09949512 69.4735934,1.09949512 Z"/>
	</g>
</svg>
