<svg xmlns="http://www.w3.org/2000/svg" width="118" height="6"><path fill="#333" d="M1.313 4.881c-.366 0-.691-.169-.947-.399C-.012 4.138 0 3.733 0 3.015c0-.719-.012-1.068.366-1.412.256-.275.582-.454.947-.454.691 0 1.174.454 1.324 1.146h-.575c-.103-.348-.346-.587-.749-.587-.218 0-.403.022-.519.201-.173.155-.23.386-.23 1.106 0 .775.057.976.23 1.123.115.161.3.23.519.23.403 0 .661-.23.749-.578h.575c-.136.692-.649 1.091-1.324 1.091Zm2.042-.051V1.234h.551V4.83h-.551Zm2.74.051c-.739 0-1.277-.513-1.277-1.243V1.234h.528v2.334c0 .53.293.801.749.801.461 0 .762-.271.762-.801V1.234h.563v2.404c.001.731-.576 1.243-1.325 1.243Zm4.437-.399c-.23.23-.576.348-.922.348H8.32V1.234h1.29c.346 0 .691.107.922.337.403.376.37.935.37 1.415 0 .574.033 1.152-.37 1.496Zm-.373-2.535a.872.872 0 0 0-.606-.23h-.691v2.652h.691c.23 0 .461-.117.606-.23.2-.23.2-.621.2-1.152 0-.462 0-.81-.2-1.04Zm3.6 2.883-.23-.691h-1.44l-.264.691h-.602l1.344-3.596h.442l1.327 3.596h-.577Zm-.948-2.766-.553 1.613h1.097l-.544-1.613ZM17.1 4.482c-.23.23-.576.348-.948.348h-1.299V1.234h1.299c.372 0 .717.107.948.337.403.376.346.935.346 1.415 0 .574.057 1.152-.346 1.496Zm-.403-2.535c-.125-.146-.346-.23-.599-.23h-.669v2.652h.669a.928.928 0 0 0 .599-.23c.213-.23.228-.621.228-1.152 0-.462-.015-.81-.228-1.04Zm5.014 2.535c-.23.23-.539.348-.923.348H19.52V1.234h1.268c.384 0 .693.107.923.337.402.376.402.935.402 1.415 0 .574 0 1.152-.402 1.496Zm-.347-2.535a.93.93 0 0 0-.634-.23h-.682v2.652h.682c.265 0 .461-.117.634-.23.173-.23.173-.621.173-1.152 0-.462 0-.81-.173-1.04ZM22.92 4.83V1.234h2.308v.482h-1.755v1.039h1.521v.489h-1.521v1.124h1.755v.461H22.92v.001Zm6.971 0V2.408l-.846 1.784h-.42l-.851-1.784V4.83h-.533V1.234h.533l1.081 2.213 1.037-2.213h.56V4.83h-.561Zm1.498 0V1.234h2.322v.482h-1.755v1.039h1.508v.489h-1.508v1.124h1.755v.461h-2.322v.001ZM32.645.868h-.391L32.617 0h.582l-.554.868Zm3.639 3.962-.804-1.383-.807 1.383h-.634l1.152-1.844-1.072-1.752h.636l.725 1.291.708-1.291h.635l-1.055 1.752L36.92 4.83h-.636Zm1.155 0V1.234h.549V4.83h-.549Zm2.673.051c-.368 0-.714-.169-.944-.399-.353-.344-.346-.749-.346-1.467 0-.719-.007-1.068.346-1.412.23-.275.576-.454.944-.454.669 0 1.188.454 1.303 1.146h-.576c-.058-.348-.321-.587-.727-.587-.195 0-.42.022-.541.201-.173.155-.23.386-.23 1.106 0 .775.058.976.23 1.123.121.161.346.23.541.23.406 0 .669-.23.729-.578h.574c-.115.692-.634 1.091-1.303 1.091Zm4.184-.399a1.42 1.42 0 0 1-.979.399c-.376 0-.691-.169-.929-.399-.38-.344-.366-.749-.366-1.467 0-.719-.014-1.068.366-1.412.238-.275.553-.454.929-.454.403 0 .732.179.979.454.346.344.346.693.346 1.412-.001.718-.001 1.123-.346 1.467Zm-.409-2.56c-.151-.179-.341-.215-.571-.215-.201 0-.403.036-.519.215-.173.142-.23.372-.23 1.093 0 .775.058.961.23 1.123.115.147.318.23.519.23.23 0 .42-.083.571-.23.178-.162.187-.348.187-1.123 0-.72-.009-.951-.187-1.093Zm2.829 3.311h-.519L47.675.796h.481l-1.44 4.437Z"/><path fill="gray" d="M51.135 4.881a1.29 1.29 0 0 1-.905-.399c-.346-.332-.346-.627-.346-1.467 0-.838 0-1.135.346-1.444.23-.258.553-.422.905-.422.651 0 1.112.454 1.227 1.111h-.288c-.115-.544-.461-.84-.939-.84-.271 0-.501.065-.69.296-.272.23-.272.572-.272 1.299 0 .775 0 1.111.272 1.354.188.175.419.24.69.24.478 0 .85-.252.944-.818h.283c-.115.691-.576 1.09-1.227 1.09Zm2.192-3.647h.255V4.83h-.255V1.234Zm2.339 3.596h-.255V1.486h-1.09v-.252h2.426v.252h-1.081V4.83Zm2.638 0h-.256v-1.5L56.97 1.234h.289l.922 1.838.949-1.838h.232L58.304 3.33v1.5Zm5.002-.348c-.258.234-.537.399-.889.399-.354 0-.637-.165-.891-.399-.322-.332-.324-.627-.324-1.467 0-.838.002-1.135.324-1.444.254-.258.537-.422.891-.422.352 0 .631.164.889.422.318.31.324.606.324 1.444 0 .84-.006 1.135-.324 1.467Zm-.199-2.766c-.174-.23-.404-.296-.689-.296-.291 0-.521.065-.689.296-.293.23-.293.572-.293 1.299 0 .775 0 1.111.293 1.354.168.175.398.24.689.24.285 0 .516-.065.689-.24.287-.242.287-.578.287-1.354 0-.726 0-1.068-.287-1.299Zm1.785 1.27h1.691v.23h-1.691v1.613h-.23V1.233h2.189v.252h-1.959v1.501Z"/><path fill="#4D4D4D" d="M69.156 2.986h1.662v.23h-1.662v1.613h-.23V1.233h2.189v.252h-1.959v1.501Zm3.96.222h-.965V4.83h-.334V1.234h1.393c.625 0 1.057.337 1.057.943 0 .578-.295.922-.848 1.017l.922 1.636h-.346l-.879-1.622Zm.073-1.722h-1.037v1.45h1.037c.461 0 .807-.23.807-.759-.001-.461-.346-.691-.807-.691Zm2.027-.252h2.236v.252h-1.959v1.383h1.613v.239h-1.613v1.491h1.959v.23h-2.236V1.234Zm3.043 0h2.189v.252h-1.906v1.383h1.676v.239h-1.676v1.491h1.906v.23h-2.189V1.234Zm5.186 3.253c-.23.226-.49.343-.922.343h-1.164V1.234h1.164c.432 0 .691.107.922.31.357.403.346.981.346 1.442 0 .461.011 1.152-.346 1.501Zm-.182-2.771c-.172-.23-.51-.23-.742-.23h-.92v3.113h.92c.232 0 .57-.042.742-.242.297-.336.297-.962.297-1.371 0-.431 0-.922-.297-1.27Zm3.523 2.766a1.31 1.31 0 0 1-.912.399c-.354 0-.633-.165-.893-.399-.311-.332-.322-.627-.322-1.467 0-.838.012-1.135.322-1.444.26-.258.539-.422.893-.422.35 0 .682.164.912.422.346.31.346.606.346 1.444 0 .84 0 1.135-.346 1.467Zm-.224-2.766c-.121-.23-.373-.296-.688-.296a.893.893 0 0 0-.691.296c-.24.23-.24.572-.24 1.299 0 .775 0 1.111.24 1.354.221.175.451.24.691.24.314 0 .566-.065.688-.24.314-.242.34-.578.34-1.354 0-.726-.026-1.068-.34-1.299Zm4.373.118-1.152 2.535h-.23l-1.152-2.535V4.83h-.23V1.234h.23l1.268 2.787 1.268-2.787h.23V4.83h-.23V1.834h-.002Zm4.494 2.142h-1.68l-.279.854h-.346l1.383-3.596h.23l1.338 3.596h-.301l-.345-.854Zm-1.613-.271h1.541l-.734-2.102-.807 2.102Zm3.166-1.989v3.113h-.285V1.233h.285l2.135 3.135V1.233h.23v3.596h-.23l-2.135-3.113Zm5.625 2.771c-.201.226-.494.343-.891.343h-1.217V1.234h1.217c.396 0 .689.107.891.31.408.403.365.981.365 1.442 0 .461.043 1.152-.365 1.501Zm-.149-2.771c-.23-.23-.527-.23-.807-.23h-.922v3.113h.922c.279 0 .576-.042.807-.242.23-.336.23-.962.23-1.371.001-.431.001-.922-.23-1.27Zm4.955 1.392h-1.844V4.83h-.338V1.234h.338v1.635h1.844V1.234h.324V4.83h-.324V3.108Zm3.457 1.374c-.23.234-.576.399-.922.399a1.34 1.34 0 0 1-.922-.399c-.346-.332-.346-.627-.346-1.467 0-.838 0-1.135.346-1.444.23-.258.576-.422.922-.422.346 0 .691.164.922.422.346.31.346.606.346 1.444 0 .84 0 1.135-.346 1.467Zm-.23-2.766a.903.903 0 0 0-.691-.296.878.878 0 0 0-.691.296c-.23.23-.275.572-.275 1.299 0 .775.045 1.111.275 1.354.199.175.461.24.691.24.23 0 .477-.065.691-.24.23-.242.26-.578.26-1.354 0-.726-.03-1.068-.26-1.299Zm2.881 1.614h-1.037v1.5h-.34V1.234h1.377c.598 0 1.086.369 1.086 1.061 0 .626-.489 1.035-1.086 1.035Zm-.006-1.844h-1.031v1.613h1.031c.467 0 .813-.3.813-.805-.001-.578-.346-.808-.813-.808Zm1.863-.252h2.246v.252h-1.914v1.383h1.613v.239h-1.613v1.491h1.914v.23h-2.246V1.234Z"/></svg>