<svg width="28.2mm" height="4.71mm" viewBox="0 0 107 17.8" xml:space="preserve" xmlns="http://www.w3.org/2000/svg"><path d="M11.3 0c1.19.026 2.17.054 2.76.054S15.27.027 16.28 0c.152.161.152.729 0 .891-1.67.216-2 1.23-2.48 2.51l-5.23 13.8c-.147.386-.329.621-.607.621-.253 0-.43-.2-.582-.621l-4.99-13.8c-.721-1.97-.822-2.32-2.26-2.46C-.021.779-.046.212.106.05c1.19.026 1.62.054 2.63.054.986 0 1.87-.027 3.06-.054.151.161.151.729 0 .891-1.72.188-1.87.553-1.28 2.16l4.02 11h.116l3.99-10.8c.542-1.47.531-2.19-1.34-2.32-.151-.163-.151-.731.001-.892zM23.7 14c0 2.24.278 2.35 1.82 2.46.152.162.152.729 0 .891-1.09-.026-1.72-.054-2.81-.054-1.11 0-1.77.027-2.83.054-.151-.162-.151-.729 0-.891 1.54-.135 1.82-.216 1.82-2.46V8.17c0-2.24-.278-2.35-1.82-2.46-.151-.162-.151-.729 0-.891 1.09.027 1.72.054 2.81.054 1.11 0 1.77-.026 2.83-.054.152.162.152.729 0 .891-1.54.135-1.82.216-1.82 2.46V14zM22.41 1c.683 0 1.21.755 1.21 1.4 0 .569-.607 1.3-1.32 1.3-.607 0-1.21-.702-1.21-1.4-.001-.647.707-1.3 1.31-1.3zM29.9 6c-.151-.162-.151-.729 0-.891 1.06.027 1.72.054 2.83.054.936 0 1.34-.026 2.43-.054.151.162.151.729 0 .891-1.21.135-1.44.216-1.44 2.46v2.4c.834 0 1.58-.426 2.66-1.73 1.95-2.35 2.2-3.05.936-3.13-.152-.162-.152-.729 0-.891 1.09.027 2.05.054 2.78.054.657 0 1.09-.026 1.77-.054.151.162.151.729 0 .891-1.01.054-1.94.191-2.71 1.13l-2.17 2.67c-.43.486-.582.783-.582.999 0 .162.101.297.228.459l3.74 4.7c.331.41.936.701 1.62.782.151.162.151.702 0 .864 0 0-1.24-.027-1.95-.027-.658 0-1.29.027-1.57.054v-.378c0-.351-.025-.647-.379-1.08l-2.81-3.73c-.379-.54-1.01-.675-1.57-.675v2.51c0 2.24.228 2.32 1.44 2.46.151.162.151.729 0 .891-1.09-.026-1.49-.054-2.43-.054-1.11 0-1.77.027-2.83.054-.151-.162-.151-.729 0-.891 1.54-.135 1.82-.216 1.82-2.46v-5.83c0-2.24-.279-2.32-1.82-2.46zM50.1 14c0 2.24.278 2.35 1.82 2.46.152.162.152.729 0 .891-1.09-.026-1.72-.054-2.81-.054-1.11 0-1.77.027-2.83.054-.151-.162-.151-.729 0-.891 1.54-.135 1.82-.216 1.82-2.46V8.17c0-2.24-.278-2.35-1.82-2.46-.151-.162-.151-.729 0-.891 1.09.027 1.72.054 2.81.054 1.11 0 1.77-.026 2.83-.054.152.162.152.729 0 .891-1.54.135-1.82.216-1.82 2.46V14zM48.81 1c.683 0 1.21.647 1.21 1.3 0 .569-.607 1.4-1.32 1.4-.606 0-1.21-.702-1.21-1.4-.001-.647.707-1.3 1.31-1.3zM61.8 17c.152.162.152.729 0 .891-1.09-.026-1.72-.054-2.81-.054-1.11 0-1.77.027-2.83.054-.152-.162-.152-.729 0-.891 1.54-.135 1.82-.216 1.82-2.46V8.71c0-2.24-.278-2.35-1.82-2.46-.152-.162-.152-.729 0-.891 1.09.027 1.72.054 2.81.054.683 0 1.74-.054 2.68-.054 3.59 0 4.35 1.89 4.35 3.29 0 1.62-1.04 4.21-4.42 4.21-.632 0-1.14-.107-1.59-.324v2c0 2.24.278 2.35 1.82 2.46zm-1.82-5.32c.506.216 1.14.297 1.64.297 1.52 0 2.18-1.05 2.18-3 0-1.89-.81-2.73-2.3-2.73-1.21 0-1.52.351-1.52 1.22zM74 11v4.05c0 .513.354 1.19.81 1.19h2.1c1.59 0 2.33-1.35 2.73-2.94.278-.081.48-.026.708.108-.177 1.13-.455 2.62-.759 3.72 0 0-1.67-.054-2.68-.054h-3.89s-1.77.027-2.83.054c-.151-.162-.151-.729 0-.891 1.54-.135 1.82-.216 1.82-2.46v-5.83c0-2.24-.278-2.35-1.82-2.46-.151-.162-.151-.729 0-.891 1.09.027 2.81.054 2.81.054h5.23c.506 0 .683-.054 1.04-.107.05 0 .075.026.075.081.051.188.354 2.29.455 3.21-.202.107-.43.162-.683.135-.455-1.54-.783-2.43-2.35-2.43h-1.95c-.48 0-.81.297-.81.756v3.83h1.44c1.77-.026 1.69-.297 1.74-1.51.126-.135.581-.135.708 0-.025.675-.051 1.16-.051 1.92s.025 1.19.051 1.97c-.127.135-.582.135-.708 0-.051-.999.05-1.51-1.74-1.51h-1.44zM90.1 5c4.22 0 6.3 2.81 6.3 6.4 0 4.72-3.14 6.13-5.94 6.13-2.02 0-2.93-.054-3.69-.054-1.11 0-1.77.027-2.83.054-.151-.162-.151-.729 0-.891 1.54-.135 1.82-.216 1.82-2.46v-5.83c0-2.24-.278-2.35-1.82-2.46-.151-.162-.151-.729 0-.891 1.09.027 1.72.054 2.81.054.48.001 2.7-.053 3.36-.053zm-.253 11.6c2.78 0 4.35-.999 4.35-4.78 0-2.81-.582-5.97-4.83-5.97-.985 0-1.62.162-1.62.837v8.69c0 .756.178 1.22 2.1 1.22zM105.1 14c0 2.24.278 2.35 1.82 2.46.152.162.152.729 0 .891-1.09-.026-1.72-.054-2.81-.054-1.11 0-1.77.027-2.83.054-.152-.162-.152-.729 0-.891 1.54-.135 1.82-.216 1.82-2.46V6.96c0-2.24-.278-2.35-1.82-2.46-.152-.162-.152-.729 0-.891 1.09.027 1.72.054 2.81.054 1.11 0 1.77-.026 2.83-.054.152.162.152.729 0 .891-1.54.135-1.82.216-1.82 2.46zM103.81-.2c.683 0 1.21.755 1.21 1.4 0 .569-.606 1.3-1.31 1.3-.606 0-1.21-.702-1.21-1.4 0-.647.708-1.3 1.32-1.3z"/></svg>