<svg xmlns="http://www.w3.org/2000/svg" viewBox="0 0 120 13"><path d="M4.7.897q.032.247.065.592.039.337.072.591.032.248.084.533l-.41.078a6 6 0 0 0-.175-.513 2.5 2.5 0 0 0-.227-.455 1.4 1.4 0 0 0-.339-.39q-.182-.15-.474-.247a2.1 2.1 0 0 0-.663-.098q-.644 0-1.053.436-.41.429-.41 1.053 0 1.164 1.807 1.814.384.136.676.273.3.13.625.357.33.222.546.475a2.3 2.3 0 0 1 .5 1.45q0 1.032-.812 1.807a2.72 2.72 0 0 1-1.944.773 9 9 0 0 1-1.28-.097A8 8 0 0 0 .253 9.23Q.221 8.529 0 7.1l.41-.039q.396 1.892 2.262 1.892.767 0 1.176-.416.41-.417.41-1.222 0-.423-.11-.735a1.34 1.34 0 0 0-.332-.533 2 2 0 0 0-.455-.351 4 4 0 0 0-.579-.273q-.429-.163-.734-.306a6 6 0 0 1-.67-.37 3 3 0 0 1-.585-.488 2.3 2.3 0 0 1-.377-.617q-.15-.37-.15-.8 0-.675.384-1.216c.384-.541.57-.63.943-.812q.566-.28 1.163-.28.546 0 .858.065.312.066.566.163t.52.136m2.33 7.443V1.8q0-.618-.098-.826Q6.842.76 6.627.76L6.203.735Q6.12.735 6.12.67L6.093.35a10 10 0 0 0 .982-.136q.566-.111.819-.215.168 0 .169.137-.04.532-.04 1.397V8.34q0 .292.118.416.117.123.442.156l.318.026q.11 0 .11.104v.253l-.025.026q-1.34-.026-1.482-.026-.124 0-1.45.026l-.013-.026v-.253q0-.105.09-.104l.32-.026q.33-.033.454-.156.124-.124.124-.416m2.57-1.775q0-1.398.728-2.256t2.028-.858q.572 0 1.04.182.468.175.774.475.311.292.52.689.214.39.305.806.09.416.091.845 0 .52-.175 1.033a3.4 3.4 0 0 1-.494.95 2.4 2.4 0 0 1-.865.721 2.7 2.7 0 0 1-1.222.273q-.644 0-1.177-.253a2.4 2.4 0 0 1-.864-.67 3.06 3.06 0 0 1-.69-1.937m2.607-2.672q-.507 0-.851.364-.345.357-.488.871a4.4 4.4 0 0 0-.078 1.814q.065.35.208.722.143.37.345.663t.513.48q.319.183.696.183a1.3 1.3 0 0 0 .474-.085q.229-.09.442-.305.222-.222.351-.663.13-.442.13-1.067 0-1.45-.455-2.21-.455-.767-1.287-.767m5.294 4.46q.24.299.455.461a.83.83 0 0 0 .507.163q.91 0 1.384-.735.481-.735.481-1.93 0-.963-.429-1.62-.428-.656-1.04-.656-.136 0-.305.026a2 2 0 0 0-.494.156 1.7 1.7 0 0 0-.56.377zM16.505 1.8q0-.618-.098-.826-.09-.214-.305-.214l-.423-.026q-.084 0-.084-.065L15.568.35a9 9 0 0 0 .981-.143q.58-.11.82-.208.169 0 .169.137-.04.532-.04 1.397v2.653q.677-.735 1.626-.735.435 0 .851.188.417.183.748.514.332.325.533.832.202.501.202 1.086 0 .76-.267 1.41-.259.651-.683 1.067a3.3 3.3 0 0 1-.936.65 2.5 2.5 0 0 1-1.033.227q-.82 0-1.385-.487a3.2 3.2 0 0 1-.436.52.47.47 0 0 1-.28-.072q.066-.363.066-1.033zm5.891 4.765q0-1.398.728-2.256.729-.858 2.029-.858.572 0 1.04.182.468.175.773.475.313.292.52.689.215.39.306.806.09.416.091.845 0 .52-.176 1.033a3.4 3.4 0 0 1-.494.95q-.318.442-.864.721a2.7 2.7 0 0 1-1.222.273q-.645 0-1.177-.253a2.4 2.4 0 0 1-.865-.67 3.06 3.06 0 0 1-.69-1.937m2.608-2.672q-.507 0-.851.364-.345.357-.488.871a4.4 4.4 0 0 0-.078 1.814q.065.35.208.722.142.37.345.663.201.293.513.48.318.183.696.183a1.3 1.3 0 0 0 .474-.085q.229-.09.442-.305.222-.222.351-.663.13-.442.13-1.067 0-1.45-.455-2.21-.455-.767-1.287-.767m7.9 4.148V4.7q-.253-.397-.552-.585-.3-.195-.748-.195a1.41 1.41 0 0 0-1.242.663q-.37.534-.37 1.768 0 1.17.429 1.814.435.637 1.02.637.52 0 1.463-.76m1.001-6.508V7.75q0 .494.059.624t.273.15l.643.065.04.312q-1.294.227-1.704.559h-.312l.033-.936-.033-.013q-1.13.915-1.807.916-1.053 0-1.645-.786-.591-.787-.591-2.048 0-1.45.89-2.34.423-.404.89-.598a2.8 2.8 0 0 1 1.106-.202q.22 0 .579.084.363.085.578.209V1.8q0-.618-.09-.826-.091-.214-.306-.214l-.43-.026Q32.001.735 32 .67l-.027-.32q.415-.033.981-.136.565-.111.82-.215.168 0 .168.137-.039.532-.039 1.397m3.252 1.918-.039 1.183h.04q.591-.696 1.092-.936a2.4 2.4 0 0 1 1.079-.247q.435 0 .728.156.299.156.455.462.156.299.214.656.066.351.065.832V8.34q0 .285.124.416.123.123.435.156l.254.026q.117.026.117.104v.253l-.026.026a73 73 0 0 0-1.424-.026q-.254 0-1.32.026l-.025-.026v-.253q0-.085.11-.104l.182-.026q.331-.052.449-.17.123-.123.123-.402V5.46q0-.741-.182-1.053-.175-.32-.682-.319-.462 0-.872.228-.41.227-.897.8V8.34q0 .285.117.403.124.117.455.169l.189.026q.105.019.104.104v.253l-.026.026a76 76 0 0 0-1.359-.026q-.319 0-1.384.026l-.026-.026v-.253q0-.085.104-.104l.253-.026q.331-.033.449-.156.123-.124.123-.416V5.025q0-.474-.071-.637-.066-.169-.221-.188l-.572-.059-.026-.318q1.274-.195 1.84-.41.051 0 .051.039m8.531 2.743-1.053.28q-1.287.35-1.287 1.463a.98.98 0 0 0 .26.656q.26.293.721.293.456 0 1.17-.579a.4.4 0 0 0 .19-.344zm0 2.464h-.027l-.266.208q-.443.345-.722.449-.273.11-.728.11-.755 0-1.203-.344-.448-.345-.448-1.092 0-.664.591-1.17.598-.514 1.58-.761l1.144-.28q.078-.026.078-.156 0-.435-.071-.76a2 2 0 0 0-.176-.52.9.9 0 0 0-.26-.3.86.86 0 0 0-.572-.194 1.8 1.8 0 0 0-.767.156q-.338.156-.338.448a1 1 0 0 0 .026.26.6.6 0 0 1 .039.24q0 .157-.163.3a.6.6 0 0 1-.422.143q-.462 0-.462-.468 0-.351.319-.696t.832-.559a2.6 2.6 0 0 1 1.04-.221q.318 0 .579.052.266.052.533.202.266.143.442.383.181.24.292.657.117.41.117.955V7.99q.006.11.02.266.02.15.052.24.032.085.084.176.06.09.15.13a.6.6 0 0 0 .22.04.47.47 0 0 0 .371-.157q.045-.052.072-.052.039 0 .09.065a.2.2 0 0 1 .06.13q0 .026-.053.091a2 2 0 0 1-.384.319q-.13.078-.311.13a1.1 1.1 0 0 1-.358.058q-.786 0-1-.767m6.815-3.185h2.444q.189 0 .189-.182a2 2 0 0 0-.104-.683.9.9 0 0 0-.273-.429 1 1 0 0 0-.351-.208 1.1 1.1 0 0 0-.377-.065q-.13 0-.26.02a1.3 1.3 0 0 0-.338.104 1.2 1.2 0 0 0-.384.24q-.162.156-.325.468a2.5 2.5 0 0 0-.22.735m3.51 2.555q.207.02.266.214-.397.546-.975.865a2.6 2.6 0 0 1-1.274.318q-1.3 0-1.97-.78-.663-.78-.663-2.002 0-.728.234-1.346.234-.617.611-1.014c.377-.397.531-.468.839-.611q.468-.22.949-.221.507 0 .897.137.39.136.624.357.24.215.39.527t.202.624q.058.311.058.67 0 .227-.24.227h-3.504q0 .571.123 1.053.13.474.325.787a2.5 2.5 0 0 0 .455.533q.261.214.507.312.247.097.481.097.54 0 .923-.175a2.5 2.5 0 0 0 .742-.572m2.732-4.577-.04 1.183h.04q.591-.696 1.092-.936a2.4 2.4 0 0 1 1.079-.247q.435 0 .728.156.3.156.455.462.156.299.214.656.065.351.066.832v2.783q0 .285.123.416.123.123.436.156l.253.026q.117.026.117.104v.253l-.026.026a73 73 0 0 0-1.424-.026q-.253 0-1.32.026l-.025-.026v-.253q0-.085.11-.104l.182-.026q.331-.052.449-.17.123-.123.123-.402V5.46q0-.741-.182-1.053-.175-.32-.682-.319-.462 0-.871.228-.41.227-.897.8V8.34q0 .285.117.403.123.117.455.169l.188.026q.105.019.104.104v.253l-.026.026a76 76 0 0 0-1.359-.026q-.318 0-1.384.026l-.026-.026v-.253q0-.085.104-.104l.253-.026q.331-.033.449-.156.123-.124.123-.416V5.025q0-.474-.071-.637-.065-.169-.221-.188l-.572-.059-.026-.318q1.274-.195 1.84-.41.051 0 .052.039m9.928 4.635a3.2 3.2 0 0 1-.69.832 1.95 1.95 0 0 1-.708.403q-.338.104-.773.104-1.236 0-1.925-.793-.682-.793-.682-2.106 0-.69.227-1.274.228-.585.611-.975.384-.39.878-.605.5-.22 1.04-.221.916 0 1.45.403.533.396.533.956a.51.51 0 0 1-.195.422.7.7 0 0 1-.43.15q-.428 0-.48-.468a2.3 2.3 0 0 0-.065-.345 1.3 1.3 0 0 0-.137-.312.56.56 0 0 0-.28-.26 1.1 1.1 0 0 0-.467-.091q-.676 0-1.119.63-.435.625-.435 1.697 0 1.158.494 1.886.5.72 1.274.721.436 0 .865-.247.428-.253.734-.695.209.026.28.188m1.47-5.929a.6.6 0 0 1-.188-.448q0-.26.189-.449a.6.6 0 0 1 .448-.195q.26 0 .449.189a.6.6 0 0 1 .195.455.6.6 0 0 1-.195.448.6.6 0 0 1-.449.189.6.6 0 0 1-.448-.189m1.066 1.294q-.046.903-.046 1.573v3.316q0 .285.124.416.13.123.442.156l.247.026q.123.019.123.104v.253l-.026.026a73 73 0 0 0-1.423-.026q-.319 0-1.385.026l-.026-.026v-.253q0-.085.104-.104l.254-.026q.338-.046.455-.163.117-.123.117-.41V5.026q0-.474-.072-.637-.065-.169-.22-.188l-.573-.059-.026-.318q1.34-.202 1.872-.41.06 0 .059.039m2.231-1.651q0-.618-.09-.826-.091-.214-.306-.214l-.43-.026q-.077 0-.077-.065L72.512.35q.41-.033.975-.143.571-.11.819-.208.175 0 .175.137-.039.532-.039 1.397v4.61q.52-.13 1.743-1.47.078-.078.143-.169a1 1 0 0 0 .123-.227q.052-.13-.058-.221-.105-.098-.384-.111-.104 0-.104-.11v-.254q.039-.012.039-.026.988.026 1.19.026.168 0 1.157-.026l.052.026v.253q0 .085-.15.111l-.09.013q-.3.045-.677.215a2 2 0 0 0-.604.41L75.814 5.7a.2.2 0 0 0-.052.137q0 .097.065.182l1.554 2.301q.169.254.442.403t.559.202l.09.013q.124.019.124.104v.253l-.026.026a41 41 0 0 0-1.13-.026q-.365 0-.898.026l-.039-.026v-.253q0-.273-.305-.722l-.969-1.365q-.195-.286-.364-.384a.8.8 0 0 0-.423-.097V8.34q0 .338.143.455.144.11.455.143.105 0 .104.104v.253l-.026.026a91 91 0 0 0-1.196-.026l-1.371.026-.026-.026v-.253q0-.085.09-.104l.254-.026q.331-.033.449-.156.123-.124.123-.416V1.8m6.366 6.54V1.8q0-.618-.097-.826-.091-.214-.306-.214l-.422-.026q-.085 0-.085-.065L78.871.35a10 10 0 0 0 .982-.136q.566-.111.819-.215.168 0 .169.137-.04.532-.04 1.397V8.34q0 .292.118.416.117.123.442.156l.318.026q.11 0 .11.104v.253l-.025.026q-1.34-.026-1.482-.026-.124 0-1.45.026l-.013-.026v-.253q0-.105.091-.104l.319-.026q.33-.033.455-.156.123-.124.123-.416m2.57-1.775q0-1.398.728-2.256t2.028-.858q.572 0 1.04.182.468.175.774.475.312.292.52.689.215.39.305.806t.091.845q0 .52-.175 1.033a3.4 3.4 0 0 1-.494.95q-.319.442-.865.721a2.7 2.7 0 0 1-1.222.273q-.644 0-1.177-.253a2.4 2.4 0 0 1-.864-.67 3.06 3.06 0 0 1-.69-1.937m2.607-2.672q-.507 0-.851.364-.344.357-.488.871a4.4 4.4 0 0 0-.078 1.814q.066.35.208.722.143.37.345.663t.513.48q.32.183.696.183.253 0 .475-.085.227-.09.442-.305.22-.222.35-.663t.13-1.067q0-1.45-.454-2.21-.456-.767-1.288-.767m5.32 1.261v3.25q.487.573 1.105.573.41 0 .728-.15a1.5 1.5 0 0 0 .52-.396q.195-.24.319-.572.13-.332.175-.657.046-.325.046-.676 0-1.099-.442-1.781-.435-.683-1.067-.683-.363 0-.773.3a1.8 1.8 0 0 0-.611.792m-.995-.13q0-.468-.071-.637-.072-.169-.221-.188l-.573-.059-.026-.318q1.242-.19 1.834-.41.051 0 .052.039l-.04 1.066h.04q.702-1.065 1.748-1.066.624 0 1.145.384.52.383.806 1.007t.286 1.326q0 1.567-.936 2.516-.735.741-1.86.741a2.5 2.5 0 0 1-1.19-.292v2.308q0 .279.124.403.13.129.436.156l.253.026q.124.019.124.104v.253l-.026.026a62 62 0 0 0-1.424-.026q-.409 0-1.385.026l-.032-.026v-.253q0-.085.11-.104l.254-.026q.319-.027.442-.156.13-.124.13-.403V5.025m7.023.449h2.444q.189 0 .188-.182 0-.397-.104-.683a.9.9 0 0 0-.273-.429 1 1 0 0 0-.35-.208 1.1 1.1 0 0 0-.378-.065q-.13 0-.26.02a1.3 1.3 0 0 0-.338.104 1.2 1.2 0 0 0-.383.24q-.163.156-.325.468a2.5 2.5 0 0 0-.221.735m3.51 2.555q.209.02.267.214a3 3 0 0 1-.976.865q-.578.318-1.274.318-1.3 0-1.97-.78-.663-.78-.663-2.002 0-.728.234-1.346.234-.617.612-1.014.376-.396.838-.611a2.2 2.2 0 0 1 .95-.221q.506 0 .896.137.39.136.624.357.24.215.39.527t.202.624q.06.311.059.67 0 .227-.241.227h-3.504q0 .572.124 1.053.13.474.325.787a2.5 2.5 0 0 0 .455.533q.26.215.507.312t.48.097q.54 0 .924-.175.384-.183.741-.572m5.163.013V4.7q-.253-.397-.552-.585-.3-.195-.748-.195a1.41 1.41 0 0 0-1.242.663q-.37.534-.37 1.768 0 1.17.429 1.814.435.637 1.02.637.52 0 1.463-.76m1.001-6.508V7.75q0 .494.059.624t.273.15l.643.065.04.312q-1.294.227-1.704.559h-.312l.033-.936-.033-.013q-1.13.915-1.807.916-1.053 0-1.645-.786-.591-.787-.591-2.048 0-1.45.89-2.34.423-.404.891-.598a2.8 2.8 0 0 1 1.105-.202q.22 0 .579.084.363.085.578.209V1.8q0-.618-.09-.826-.092-.214-.306-.214l-.43-.026q-.077 0-.077-.065l-.026-.319q.415-.033.981-.136.565-.111.82-.215.168 0 .168.137a20 20 0 0 0-.039 1.397m7.018 1.879q.052 0 .052.039a58 58 0 0 0-.039 1.573v2.809q0 3.205-.969 3.991a1.7 1.7 0 0 1-.487.286 1.6 1.6 0 0 1-.397.117 4 4 0 0 1-.331.013.8.8 0 0 1-.455-.162.49.49 0 0 1-.234-.43q0-.162.136-.279.137-.117.26-.117.163 0 .286.052a.7.7 0 0 1 .176.097q.052.053.123.144.15.214.306.214a.27.27 0 0 0 .195-.084.6.6 0 0 0 .143-.26q.065-.182.11-.365.046-.181.072-.494a21 21 0 0 0 .065-1.124q.006-.377.006-.579V5.025q0-.48-.071-.643-.066-.17-.228-.182l-.572-.059-.026-.318q1.32-.202 1.879-.41Zm-3.636 0q.04 0 .052.017l.007.022q-.046.904-.046 1.573V8.34q0 .285.124.416.13.123.442.156l.247.026q.123.019.124.104v.253l-.026.026a88 88 0 0 0-1.336-.025h-.088a70 70 0 0 0-1.385.025l-.026-.026v-.253q0-.085.104-.104l.254-.026q.338-.046.455-.163.117-.123.117-.41V5.026q0-.474-.072-.637-.065-.169-.22-.188l-.573-.059-.026-.318q1.34-.202 1.872-.41Zm-.559-2.347q.26 0 .449.189a.6.6 0 0 1 .195.455.6.6 0 0 1-.195.448.6.6 0 0 1-.449.189.6.6 0 0 1-.448-.189.6.6 0 0 1-.189-.448q0-.26.189-.449a.6.6 0 0 1 .448-.195m3.636 0q.26 0 .448.195a.6.6 0 0 1 .189.449.6.6 0 0 1-.189.448.6.6 0 0 1-.448.189.6.6 0 0 1-.449-.189.6.6 0 0 1-.188-.448q0-.26.188-.449a.6.6 0 0 1 .449-.195m5.43 5.13-1.053.279q-1.288.35-1.288 1.463a.98.98 0 0 0 .26.656q.26.293.722.293.454 0 1.17-.579a.4.4 0 0 0 .189-.344zm0 2.464h-.026l-.267.208q-.442.345-.721.449-.273.11-.729.11-.753 0-1.202-.344-.45-.345-.449-1.092 0-.664.592-1.17.598-.514 1.58-.761l1.144-.28q.078-.026.078-.156 0-.435-.072-.76a2 2 0 0 0-.175-.52.9.9 0 0 0-.26-.3.86.86 0 0 0-.572-.194 1.8 1.8 0 0 0-.767.156q-.339.156-.339.448 0 .182.027.26a.6.6 0 0 1 .039.24q0 .157-.163.3a.6.6 0 0 1-.423.143q-.46 0-.461-.468 0-.351.318-.696.319-.345.833-.559a2.6 2.6 0 0 1 1.04-.221q.318 0 .578.052.267.052.533.202.267.143.442.383.183.24.293.657.117.41.117.955V7.99q.006.11.02.266.019.15.051.24.033.085.085.176.058.09.15.13a.6.6 0 0 0 .22.04.47.47 0 0 0 .371-.157q.045-.052.071-.052.04 0 .092.065a.2.2 0 0 1 .058.13q0 .026-.052.091a2 2 0 0 1-.384.319 1.3 1.3 0 0 1-.312.13 1.1 1.1 0 0 1-.357.058q-.787 0-1.001-.767"/></svg>