<svg xmlns="http://www.w3.org/2000/svg" width="100" height="18" viewBox="0 0 26.458 4.763"><path d="M2.02 1.215a.618.618 0 0 1-.149.298 1.018 1.018 0 0 0-.554-.157.994.994 0 0 0-.546.148.59.59 0 0 0-.289.414h.19a.462.462 0 0 1 .248-.29.845.845 0 0 1 .405-.099c.158 0 .305.043.439.132a3.607 3.607 0 0 1-.414.39h-.025a.74.74 0 0 0-.48.164.542.542 0 0 0-.222.439v.537a.369.369 0 0 0 .372.364.348.348 0 0 0 .256-.1.36.36 0 0 0 .1-.256.335.335 0 0 0-.1-.248.344.344 0 0 0-.256-.107.377.377 0 0 0-.174.041v-.231c0-.122.048-.222.149-.298a.565.565 0 0 1 .364-.116c.147 0 .277.03.388.091.133.076.207.18.207.306v.877h.19V1.967a.521.521 0 0 0-.116-.33.941.941 0 0 0 .207-.422zm-.14.57c.032.065.049.124.049.174v.306a.816.816 0 0 0-.372-.19 2.46 2.46 0 0 0 .322-.29zm-.885 1.24c.05 0 .088.014.124.05a.187.187 0 0 1 .058.133c0 .05-.022.088-.058.124a.175.175 0 0 1-.124.05.195.195 0 0 1-.133-.05.175.175 0 0 1-.05-.124c0-.05.018-.097.05-.133a.18.18 0 0 1 .133-.05zM4.36 3.512h-.194V1.901a.326.326 0 0 0-.124-.264.47.47 0 0 0-.329-.108.381.381 0 0 0-.301.13.44.44 0 0 0-.124.269h-.2a.567.567 0 0 1 .178-.399.625.625 0 0 1 .453-.172c.208 0 .366.05.474.15a.513.513 0 0 1 .167.4v1.605M6.584 1.347c-.032.083-.072.124-.107.124-.062 0-.158-.022-.298-.058a1.245 1.245 0 0 0-.323-.058c-.327 0-.499.19-.52.57.692.112 1.04.242 1.041.39v.57a.352.352 0 0 0-.165-.041.335.335 0 0 0-.248.107.345.345 0 0 0-.108.248c0 .097.04.184.108.256.072.069.15.1.248.1a.35.35 0 0 0 .265-.1.368.368 0 0 0 .09-.256v-.901c0-.147-.108-.26-.33-.34a4.102 4.102 0 0 0-.678-.173.27.27 0 0 1 .082-.173.25.25 0 0 1 .182-.083c.072 0 .182.018.323.058.144.04.255.058.33.058.13 0 .22-.084.273-.257zm-.372 1.67a.18.18 0 0 1 .132.05.187.187 0 0 1 .058.132c0 .05-.022.097-.058.132a.18.18 0 0 1-.132.05.161.161 0 0 1-.124-.05.187.187 0 0 1-.058-.132c0-.05.022-.096.058-.132a.161.161 0 0 1 .124-.05zM8.879 3.512h-.194V1.901a.326.326 0 0 0-.124-.264.47.47 0 0 0-.329-.108.381.381 0 0 0-.301.13.44.44 0 0 0-.124.269h-.2a.567.567 0 0 1 .178-.399.625.625 0 0 1 .453-.172c.208 0 .366.05.474.15a.513.513 0 0 1 .167.4v1.605M10.173 1.356a.354.354 0 0 0-.256.107.345.345 0 0 0-.108.249c0 .097.04.184.108.256a.36.36 0 0 0 .256.1c.061 0 .11-.009.157-.034v1.48h.24c.122-.14.29-.257.513-.347v.041c0 .097.039.18.107.248s.151.1.248.1.18-.032.248-.1a.331.331 0 0 0 .108-.248c0-.158-.081-.27-.232-.33.08-.08.124-.209.124-.381v-1.1h-.198v1.075c0 .151-.06.275-.182.372a2.07 2.07 0 0 1-.397.215c-.183.083-.308.161-.38.24V1.712a.337.337 0 0 0-.116-.249.314.314 0 0 0-.24-.107zm0 .174c.05 0 .088.022.124.058a.169.169 0 0 1 .058.124c0 .05-.022.096-.058.132a.161.161 0 0 1-.124.05.18.18 0 0 1-.132-.05.187.187 0 0 1-.058-.132c0-.05.022-.089.058-.124a.187.187 0 0 1 .132-.058zm1.265 1.488c.05 0 .088.014.124.05a.187.187 0 0 1 .058.132c0 .05-.022.096-.058.132a.161.161 0 0 1-.124.05.18.18 0 0 1-.132-.05.187.187 0 0 1-.058-.132c0-.05.022-.097.058-.132a.18.18 0 0 1 .132-.05zM11.398 3.77a.27.27 0 0 0-.198.083.29.29 0 0 0-.091.206c0 .08.033.145.09.199a.257.257 0 0 0 .199.083c.036 0 .07-.006.1-.017v.438h.19V4.06a.296.296 0 0 0-.083-.206.296.296 0 0 0-.207-.083zm0 .14c.04 0 .07.017.1.042.024.029.04.06.04.1s-.016.073-.04.098c-.03.029-.06.042-.1.042s-.074-.013-.1-.042a.126.126 0 0 1-.04-.099.14.14 0 0 1 .14-.14zM14.301 3.512h-.194V2.106a.548.548 0 0 0-.167-.42.582.582 0 0 0-.42-.157.687.687 0 0 0-.356.103.538.538 0 0 0-.237.264c.212.018.357.097.436.237a.393.393 0 0 0-.226.145.38.38 0 0 0-.097.253v.981h-.194v-.975c0-.212.094-.356.28-.431a.73.73 0 0 0-.41-.06.779.779 0 0 1 .27-.495.822.822 0 0 1 .545-.194c.233 0 .42.064.56.194.14.129.21.307.21.533v1.428M16.523 1.347c-.032.083-.063.124-.1.124-.06 0-.165-.022-.305-.058a1.197 1.197 0 0 0-.314-.058c-.327 0-.5.19-.521.57.693.112 1.03.242 1.033.39v.57a.32.32 0 0 0-.157-.041.354.354 0 0 0-.355.355.36.36 0 0 0 .099.256.36.36 0 0 0 .256.1.332.332 0 0 0 .256-.1.376.376 0 0 0 .1-.256v-.901c0-.147-.108-.26-.331-.34a4.189 4.189 0 0 0-.686-.173.284.284 0 0 1 .09-.173.25.25 0 0 1 .183-.083c.071 0 .174.018.314.058.144.04.255.058.33.058.13 0 .22-.084.273-.257zm-.364 1.67a.18.18 0 0 1 .132.05.18.18 0 0 1 .05.132.18.18 0 0 1-.05.132.18.18 0 0 1-.132.05.18.18 0 0 1-.132-.05.18.18 0 0 1-.05-.132.18.18 0 0 1 .05-.132.18.18 0 0 1 .132-.05zM17.87 1.356a.354.354 0 0 0-.356.356.36.36 0 0 0 .1.256.36.36 0 0 0 .256.1c.061 0 .11-.009.157-.034v.785a.354.354 0 0 0-.372.1.361.361 0 0 0-.107.264.36.36 0 0 0 .107.265c.072.072.16.107.265.107a.343.343 0 0 0 .256-.107.353.353 0 0 0 .1-.364c.243.068.504.214.785.43h.215V1.397h-.199v1.919a3.105 3.105 0 0 0-.851-.439V1.712a.329.329 0 0 0-.108-.249.331.331 0 0 0-.248-.107zm0 .174c.05 0 .088.022.124.058a.169.169 0 0 1 .058.124c0 .05-.022.096-.058.132a.161.161 0 0 1-.124.05.18.18 0 0 1-.132-.05.187.187 0 0 1-.058-.132c0-.05.022-.089.058-.124a.187.187 0 0 1 .132-.058zm.05 1.447c.054 0 .092.018.132.057.04.04.066.087.066.141s-.027.101-.066.14c-.04.04-.078.067-.132.067a.2.2 0 0 1-.14-.066.2.2 0 0 1-.067-.141.2.2 0 0 1 .066-.14.191.191 0 0 1 .14-.058zM20.4 1.356v1.819c0 .097.03.18.09.248a.355.355 0 0 0 .274.124.341.341 0 0 0 .256-.107.368.368 0 0 0 .108-.265.323.323 0 0 0-.108-.248.344.344 0 0 0-.256-.108.314.314 0 0 0-.166.042V1.356zm.364 1.637c.05 0 .096.022.132.058a.169.169 0 0 1 .058.124c0 .05-.022.096-.058.132a.187.187 0 0 1-.132.058.169.169 0 0 1-.124-.058.187.187 0 0 1-.058-.132c0-.05.022-.088.058-.124a.169.169 0 0 1 .124-.058zM23.402 1.215a.618.618 0 0 1-.149.298 1.018 1.018 0 0 0-.554-.157.994.994 0 0 0-.546.148.59.59 0 0 0-.289.414h.19a.462.462 0 0 1 .248-.29.845.845 0 0 1 .405-.099c.158 0 .305.043.439.132a3.607 3.607 0 0 1-.414.39h-.025a.74.74 0 0 0-.48.164.542.542 0 0 0-.222.439v.537a.369.369 0 0 0 .372.364.348.348 0 0 0 .256-.1.36.36 0 0 0 .1-.256.335.335 0 0 0-.1-.248.344.344 0 0 0-.256-.107.377.377 0 0 0-.174.041v-.231c0-.122.048-.222.149-.298a.565.565 0 0 1 .364-.116c.147 0 .277.03.388.091.133.076.207.18.207.306v.877h.19V1.967a.521.521 0 0 0-.116-.33.941.941 0 0 0 .207-.422zm-.14.57c.032.065.049.124.049.174v.306a.816.816 0 0 0-.372-.19 2.46 2.46 0 0 0 .322-.29zm-.885 1.24c.05 0 .088.014.124.05a.187.187 0 0 1 .058.133c0 .05-.022.088-.058.124a.175.175 0 0 1-.124.05.195.195 0 0 1-.133-.05.175.175 0 0 1-.05-.124c0-.05.018-.097.05-.133a.18.18 0 0 1 .133-.05zM25.717 1.347c-.032.083-.063.124-.1.124-.06 0-.165-.022-.305-.058a1.197 1.197 0 0 0-.314-.058c-.327 0-.5.19-.521.57.693.112 1.04.242 1.042.39v.57a.354.354 0 0 0-.52.314.36.36 0 0 0 .098.256.36.36 0 0 0 .256.1.332.332 0 0 0 .257-.1.376.376 0 0 0 .099-.256v-.901c0-.147-.108-.26-.331-.34a4.102 4.102 0 0 0-.678-.173.27.27 0 0 1 .083-.173.25.25 0 0 1 .182-.083c.071 0 .182.018.322.058.144.04.247.058.323.058.129 0 .227-.084.28-.257zm-.364 1.67a.18.18 0 0 1 .132.05.18.18 0 0 1 .05.132.18.18 0 0 1-.05.132.18.18 0 0 1-.132.05.18.18 0 0 1-.132-.05.18.18 0 0 1-.05-.132.18.18 0 0 1 .05-.132.18.18 0 0 1 .132-.05zM25.684.024v.52c-.151-.19-.366-.28-.653-.28-.19 0-.36.053-.496.157a.56.56 0 0 0-.232.455c.154-.022.301-.033.43-.033.363 0 .753.067 1.166.215a.89.89 0 0 0-.033-.141V.024zm-.628.397c.277 0 .495.147.653.438A2.252 2.252 0 0 0 24.55.702c.086-.19.253-.281.505-.281z"/></svg>