<?xml version="1.0" encoding="UTF-8"?>
<svg width="112px" height="13px" viewBox="0 0 112 13" version="1.1" xmlns="http://www.w3.org/2000/svg" xmlns:xlink="http://www.w3.org/1999/xlink">
    <title>eml-tagline</title>
    <g id="Page-1" stroke="none" stroke-width="1" fill="none" fill-rule="evenodd">
        <path d="M1.75585984,9.11219456 L4.52346048,9.11219456 C4.88899231,9.11219456 6.09002688,9.138304 6.09002688,9.138304 C6.22057375,8.48557126 6.35112128,7.6370112 6.4294496,6.95816576 C6.2989024,6.90595014 6.15530015,6.87983744 5.99864384,6.89289216 C5.73754944,7.832832 5.38507102,8.60306048 4.39291328,8.60306048 L2.91772992,8.60306048 C2.53914337,8.60306048 2.30415808,8.3550208 2.30415808,7.95032448 L2.30415808,2.284576 C2.30415808,1.2010375 2.52608897,1.13576064 3.43991872,1.09659648 C3.51824671,1.01827142 3.51824671,0.74411904 3.43991872,0.66579072 C2.80023809,0.67884544 2.40859519,0.69190016 1.74280512,0.69190016 C1.09006977,0.69190016 0.711481587,0.67884544 0.05874624,0.66579072 C-0.01958208,0.74411904 -0.01958208,1.01827142 0.05874624,1.09659648 C0.972575661,1.13576064 1.19450688,1.2010375 1.19450688,2.284576 L1.19450688,7.51951872 C1.19450688,8.60306048 0.972575661,8.66833408 0.05874624,8.70749824 C-0.01958208,8.78582656 -0.01958208,9.05997894 0.05874624,9.138304 C0.698426867,9.12524928 1.75585984,9.11219456 1.75585984,9.11219456 M8.37970238,-1.50990331e-14 C7.97500639,-1.50990331e-14 7.68780222,0.274152384 7.68780222,0.63968128 C7.68780222,1.05743232 8.02722494,1.1749248 8.2622099,1.21408896 C8.51024925,1.2401984 8.73217982,1.31852998 8.73217982,1.61878528 C8.73217982,1.8929344 8.26220925,2.49345478 7.58336446,2.66316288 C7.58336446,2.79371008 7.6094739,2.88509638 7.70085694,2.97647616 C8.48413916,2.8328775 9.2413139,2.20624768 9.2413139,1.29241728 C9.2413139,0.509137344 8.90189053,-1.50990331e-14 8.37970238,-1.50990331e-14 M11.5016163,5.43076352 C11.7496556,3.95558342 12.6634867,3.83808768 12.9767996,3.83808768 C13.4728783,3.83808768 14.0603414,4.11224006 14.0603414,5.20883328 C14.0603414,5.32632576 14.0081222,5.39159936 13.8645206,5.39159936 L11.5016163,5.43076352 M14.9219529,7.8981056 C14.4389286,8.39418496 14.0603404,8.60306048 13.3031676,8.60306048 C12.833198,8.60306048 12.2848988,8.32891136 11.8802032,7.66312064 C11.6191088,7.23231814 11.4624521,6.63179776 11.4624521,5.874624 L14.9350076,5.90073344 C15.091664,5.90073344 15.1830473,5.82240512 15.1830473,5.6788032 C15.1830473,4.58220998 14.7914038,3.40728192 12.9767996,3.40728192 C11.84104,3.40728192 10.3658556,4.49082694 10.3658556,6.47514112 C10.3658556,7.20620544 10.548622,7.91116358 10.9794275,8.40723968 C11.4232873,8.92942848 12.0368608,9.24274176 12.9767996,9.24274176 C13.9689574,9.24274176 14.6739136,8.78582656 15.196102,8.10698112 C15.1569379,7.97643718 15.0786092,7.91116032 14.9219529,7.8981056 M18.123827,4.4386048 C18.0846628,4.49082368 17.9932798,4.62137088 17.9932798,4.4386048 C17.9932798,4.04696646 18.0585534,3.44644608 18.0585534,3.44644608 C18.0585534,3.38117574 18.0063342,3.34200832 17.9018967,3.34200832 C17.5363649,3.48561024 17.0011201,3.60310598 16.1003454,3.7205952 C16.0742359,3.79892352 16.1003454,4.0078023 16.1264548,4.08612736 C16.8314087,4.15140096 16.9750116,4.21667782 16.9750116,4.97384832 L16.9750116,7.51951872 C16.9750116,8.59000576 16.8444634,8.6422279 16.0611812,8.70749824 C15.9828529,8.78582656 15.9828529,9.05997894 16.0611812,9.138304 C16.5964241,9.12524928 16.9358478,9.11219456 17.4972004,9.11219456 C18.0063338,9.11219456 18.2413198,9.12524928 18.7896177,9.138304 C18.8679457,9.05997894 18.8679457,8.78582656 18.7896177,8.70749824 C18.1238276,8.6422279 18.0063345,8.59000576 18.0063345,7.51951872 L18.0063345,5.37854464 C18.0063345,5.10439878 18.123827,4.94773888 18.2282647,4.8302464 C18.7243434,4.34722502 19.2334785,4.06001792 19.7426119,4.06001792 C20.0037063,4.06001792 20.2778555,4.22973254 20.4345121,4.52998784 C20.5650593,4.79108224 20.5911687,5.14356294 20.5911687,5.53520128 L20.5911687,7.51951872 C20.5911687,8.59000576 20.4606215,8.6422279 19.7817761,8.70749824 C19.7165025,8.78582656 19.7165025,9.05997894 19.7817761,9.138304 C20.3300743,9.12524928 20.5911687,9.11219456 21.1133575,9.11219456 C21.6486011,9.11219456 21.9358049,9.12524928 22.4971579,9.138304 C22.5624315,9.05997894 22.5624315,8.78582656 22.4971579,8.70749824 C21.7660935,8.6422279 21.6224916,8.59000576 21.6224916,7.51951872 L21.6224916,5.57436544 C21.6224916,4.8563591 21.5702727,4.22972928 21.2700142,3.82503296 C21.0480839,3.53783238 20.6433876,3.38117248 20.1864724,3.38117248 C19.5467911,3.38117248 18.9201639,3.5508871 18.123827,4.4386048 M27.9038517,7.92421504 C27.8516329,7.80672582 27.7471951,7.75450368 27.6297026,7.74144896 C27.1858421,8.31585664 26.6244892,8.60306048 26.0631362,8.60306048 C25.1101417,8.60306048 24.3138037,7.6370112 24.3138037,6.10960896 C24.3138037,4.67359302 24.9404303,3.81197824 25.8020418,3.81197824 C26.5722703,3.81197824 26.6767081,4.2688967 26.7289269,4.72580864 C26.7680911,5.07828608 26.9508572,5.19577856 27.2250063,5.19577856 C27.4991554,5.19577856 27.8646876,5.0260672 27.8646876,4.62137088 C27.8646876,3.90336454 27.1205685,3.38117248 25.8673154,3.38117248 C24.5748981,3.38117248 23.1910978,4.54304582 23.1910978,6.3968128 C23.1910978,8.08087168 24.1310409,9.24274176 25.7759324,9.24274176 C26.5592156,9.24274176 27.2511157,8.99470208 27.9038517,7.92421504 M29.4159571,1.29241728 C29.4159571,1.63184 29.7292704,1.97126272 30.0425837,1.97126272 C30.4081126,1.97126272 30.7214291,1.63184 30.7214291,1.34463616 C30.7214291,1.03132614 30.4472767,0.66579072 30.0948025,0.66579072 C29.7814893,0.66579072 29.4159571,0.979107264 29.4159571,1.29241728 M30.6039366,7.51951872 L30.6039366,4.92162944 C30.6039366,4.2688967 30.6561555,3.43339136 30.6561555,3.43339136 C30.6561555,3.38117574 30.5908819,3.34200832 30.4864441,3.34200832 C30.1078573,3.48561024 29.5987199,3.60310598 28.6979475,3.7205952 C28.6718381,3.79892352 28.6979475,4.0078023 28.7240569,4.08612736 C29.4290086,4.16445568 29.5726137,4.22973254 29.5726137,4.97384832 L29.5726137,7.51951872 C29.5726137,8.60306048 29.4290086,8.6422279 28.6326739,8.70749824 C28.5543456,8.78582656 28.5543456,9.05997894 28.6326739,9.138304 C29.1809689,9.12524928 29.5203949,9.11219456 30.0948025,9.11219456 C30.6561522,9.11219456 30.9825235,9.12524928 31.5438765,9.138304 C31.6222048,9.05997894 31.6222048,8.78582656 31.5438765,8.70749824 C30.7475385,8.65528262 30.6039366,8.60306048 30.6039366,7.51951872 M36.9809617,7.92421504 C36.9287429,7.80672582 36.8243051,7.75450368 36.7068126,7.74144896 C36.2629521,8.31585664 35.7015992,8.60306048 35.1402462,8.60306048 C34.1872517,8.60306048 33.3909137,7.6370112 33.3909137,6.10960896 C33.3909137,4.67359302 34.0175403,3.81197824 34.8791518,3.81197824 C35.6493803,3.81197824 35.7538181,4.2688967 35.8060369,4.72580864 C35.8452011,5.07828608 36.0279672,5.19577856 36.3021163,5.19577856 C36.5762654,5.19577856 36.9417976,5.0260672 36.9417976,4.62137088 C36.9417976,3.90336454 36.1976785,3.38117248 34.9444254,3.38117248 C33.6520081,3.38117248 32.2682078,4.54304582 32.2682078,6.3968128 C32.2682078,8.08087168 33.2081509,9.24274176 34.8530424,9.24274176 C35.6363256,9.24274176 36.3282257,8.99470208 36.9809617,7.92421504 M38.5583407,7.51951872 C38.5583407,8.60306048 38.4147355,8.66833408 37.6184009,8.70749824 C37.5400725,8.78582656 37.5400725,9.05997894 37.6184009,9.138304 C38.1666958,9.12524928 38.5061218,9.11219456 39.0805295,9.11219456 C39.6418792,9.11219456 39.9682505,9.12524928 40.5296034,9.138304 C40.6079317,9.05997894 40.6079317,8.78582656 40.5296034,8.70749824 C39.7332655,8.66833408 39.5896636,8.60306048 39.5896636,7.51951872 L39.5896636,1.5012928 C39.5896636,0.652739264 39.6418825,0.1305472 39.6418825,0.1305472 C39.6418825,0.0391674237 39.5896636,-1.50990331e-14 39.4721711,-1.50990331e-14 C39.1458031,0.1305472 38.1666958,0.31331328 37.6445103,0.35247744 C37.6184009,0.4569152 37.6445103,0.665793984 37.7228386,0.74411904 C38.4016808,0.7832832 38.5583407,0.718012864 38.5583407,1.81460608 L38.5583407,7.51951872 M41.2955467,6.43597696 C41.2955467,7.7675584 42.1963256,9.24274176 44.0370379,9.24274176 C45.9821879,9.24274176 46.8046385,7.62395648 46.8046385,6.31848448 C46.8046385,4.96079686 46.0866257,3.38117248 44.0631473,3.38117248 C42.3007634,3.38117248 41.2955467,4.77803078 41.2955467,6.43597696 M43.9195454,3.81197824 C45.0422513,3.81197824 45.6819326,4.81719494 45.6819326,6.73623552 C45.6819326,8.45945856 44.8855947,8.811936 44.2720229,8.811936 C42.914332,8.811936 42.4182526,7.14093184 42.4182526,6.1357184 C42.4182526,4.99996102 42.8229489,3.81197824 43.9195454,3.81197824 M49.6232342,4.73886336 C50.0279305,4.32111558 50.5501193,3.9816896 50.9417609,3.9816896 C51.777263,3.9816896 52.4952726,4.9216327 52.4952726,6.3968128 C52.4952726,7.46729984 52.1166857,8.79888128 50.6545571,8.79888128 C50.4195721,8.79888128 49.9626569,8.73360768 49.7276719,8.52473216 C49.4535228,8.28975046 49.4143587,8.2244736 49.4143587,7.74144896 L49.4143587,5.31327104 C49.4143587,5.03912518 49.4535228,4.92162944 49.6232342,4.73886336 M49.5187964,4.3080576 C49.4665775,4.36027648 49.3882492,4.3733312 49.3882492,4.26889344 C49.3882492,3.79892678 49.4404681,3.43339136 49.4404681,3.43339136 C49.4404681,3.38117574 49.3751945,3.34200832 49.2707567,3.34200832 C48.9052246,3.48561024 48.4091452,3.60310598 47.5083695,3.7205952 C47.4822601,3.79892352 47.5083695,4.0078023 47.534479,4.08612736 C48.2394339,4.15140096 48.3830358,4.22973254 48.3830358,4.97384832 L48.3830358,10.5482138 C48.3830358,11.6317555 48.2394339,11.6970291 47.4430959,11.7361933 C47.3647676,11.8145216 47.3647676,12.088674 47.4430959,12.166999 C47.9913942,12.1539443 48.3308169,12.1408896 48.9052246,12.1408896 C49.5187964,12.1408896 49.9234927,12.1539443 50.4848457,12.166999 C50.563174,12.088674 50.563174,11.8145216 50.4848457,11.7361933 C49.5579606,11.6839777 49.4143587,11.6317555 49.4143587,10.5482138 L49.4143587,9.138304 C49.4143587,8.9685959 49.4535228,8.99470534 49.5971247,9.04692096 C49.910438,9.17746816 50.3151343,9.24274176 50.7328854,9.24274176 C51.4639497,9.24274176 52.1166857,9.02081152 52.6519292,8.51167744 C53.2655011,7.91116358 53.6179785,7.10176768 53.6179785,6.04433536 C53.6179785,4.6605383 52.6388745,3.38117248 51.3072931,3.38117248 C50.8242684,3.38117248 50.1062588,3.70754374 49.5187964,4.3080576 M55.8417685,5.43076352 C56.0898081,3.95558342 57.0036385,3.83808768 57.3169518,3.83808768 C57.8130312,3.83808768 58.4004936,4.11224006 58.4004936,5.20883328 C58.4004936,5.32632576 58.3482747,5.39159936 58.2046728,5.39159936 L55.8417685,5.43076352 M59.2621051,7.8981056 C58.7790805,8.39418496 58.4004936,8.60306048 57.6433198,8.60306048 C57.1733499,8.60306048 56.6250517,8.32891136 56.2203553,7.66312064 C55.9592609,7.23231814 55.8026043,6.63179776 55.8026043,5.874624 L59.2751598,5.90073344 C59.4318165,5.90073344 59.5231995,5.82240512 59.5231995,5.6788032 C59.5231995,4.58220998 59.1315579,3.40728192 57.3169518,3.40728192 C56.1811912,3.40728192 54.7060078,4.49082694 54.7060078,6.47514112 C54.7060078,7.20620544 54.8887739,7.91116358 55.3195797,8.40723968 C55.7634401,8.92942848 56.377012,9.24274176 57.3169518,9.24274176 C58.3091105,9.24274176 59.0140654,8.78582656 59.5362542,8.10698112 C59.4970901,7.97643718 59.4187617,7.91116032 59.2621051,7.8981056 M64.6422816,7.49340928 C64.6422816,7.74144896 64.6161721,7.84588998 64.4334061,8.00254336 C63.9503814,8.4202944 63.5326304,8.62916992 63.2062624,8.62916992 C62.5013075,8.62916992 61.7702432,7.85894144 61.7702432,6.22710144 C61.7702432,5.28716486 61.9530093,4.7649728 62.1488301,4.49082368 C62.5535264,3.8772551 63.1018246,3.83808768 63.362919,3.83808768 C63.8328889,3.83808768 64.1592569,4.0078023 64.4203513,4.3080576 C64.6031174,4.51693312 64.6422816,4.60831942 64.6422816,5.01301248 L64.6422816,7.49340928 M64.4986797,8.45945856 C64.5508985,8.40724294 64.6553363,8.3811335 64.6553363,8.47251328 C64.6553363,8.78582656 64.7989382,9.24274176 64.7989382,9.24274176 C64.903376,9.28190592 64.9425401,9.2688512 65.0469779,9.24274176 C65.3341817,9.00776006 65.8302611,8.811936 66.626599,8.72055296 C66.7049273,8.6422279 66.7049273,8.44640384 66.626599,8.36807552 C65.7910969,8.30280518 65.6736045,8.05476224 65.6736045,7.41508096 L65.6736045,1.5012928 C65.6736045,0.652739264 65.7258233,0.1305472 65.7258233,0.1305472 C65.7258233,0.0391674237 65.6736045,-1.50990331e-14 65.556112,-1.50990331e-14 C65.229744,0.1305472 64.25064,0.31331328 63.7284512,0.35247744 C63.7023417,0.4569152 63.7284512,0.665793984 63.8067795,0.74411904 C64.4856249,0.7832832 64.6422816,0.718012864 64.6422816,1.81460608 L64.6422816,3.48561024 C64.6422816,3.57699328 64.6161721,3.60310272 64.5247891,3.60310272 C64.4725702,3.60310272 63.9373267,3.38117248 63.5065209,3.38117248 C62.6449094,3.38117248 62.0705017,3.66837958 61.5483129,4.16445568 C60.98696,4.72580864 60.6475373,5.49604038 60.6475373,6.4620864 C60.6475373,8.06781696 61.4569299,9.24274176 62.8668397,9.24274176 C63.3759737,9.24274176 63.8589984,8.98164736 64.4986797,8.45945856 M70.2670317,0.35247744 L69.274873,1.90598912 C69.1704352,2.07570048 69.1312711,2.12792262 69.1312711,2.27152128 C69.1312711,2.36290432 69.2226541,2.44123264 69.3140371,2.44123264 C69.4054202,2.44123264 69.5098579,2.38901376 69.7056787,2.19319296 L71.2069715,0.77022848 L71.1678074,0.62662656 C70.8675488,0.339425984 70.5281261,0.326368 70.4497978,0.326368 C70.3845242,0.326368 70.3061959,0.33942272 70.2670317,0.35247744 M68.3610426,5.43076352 C68.609079,3.95558342 69.5229127,3.83808768 69.8362259,3.83808768 C70.332302,3.83808768 70.9197677,4.11224006 70.9197677,5.20883328 C70.9197677,5.32632576 70.8675488,5.39159936 70.7239469,5.39159936 L68.3610426,5.43076352 M71.7813792,7.8981056 C71.2983546,8.39418496 70.9197644,8.60306048 70.1625939,8.60306048 C69.692624,8.60306048 69.1443225,8.32891136 68.7396295,7.66312064 C68.4785351,7.23231814 68.3218784,6.63179776 68.3218784,5.874624 L71.7944339,5.90073344 C71.9510906,5.90073344 72.0424736,5.82240512 72.0424736,5.6788032 C72.0424736,4.58220998 71.6508288,3.40728192 69.8362259,3.40728192 C68.7004653,3.40728192 67.2252819,4.49082694 67.2252819,6.47514112 C67.2252819,7.20620544 67.408048,7.91116358 67.8388538,8.40723968 C68.282711,8.92942848 68.8962861,9.24274176 69.8362259,9.24274176 C70.8283814,9.24274176 71.5333395,8.78582656 72.0555283,8.10698112 C72.0163642,7.97643718 71.9380359,7.91116032 71.7813792,7.8981056 M73.756108,1.29241728 C73.756108,1.63184 74.0694213,1.97126272 74.3827345,1.97126272 C74.7482667,1.97126272 75.06158,1.63184 75.06158,1.34463616 C75.06158,1.03132614 74.7874309,0.66579072 74.4349534,0.66579072 C74.1216401,0.66579072 73.756108,0.979107264 73.756108,1.29241728 M74.9440875,7.51951872 L74.9440875,4.92162944 C74.9440875,4.2688967 74.9963064,3.43339136 74.9963064,3.43339136 C74.9963064,3.38117574 74.9310328,3.34200832 74.826595,3.34200832 C74.4480081,3.48561024 73.9388741,3.60310598 73.0380984,3.7205952 C73.0119889,3.79892352 73.0380984,4.0078023 73.0642078,4.08612736 C73.7691627,4.16445568 73.9127646,4.22973254 73.9127646,4.97384832 L73.9127646,7.51951872 C73.9127646,8.60306048 73.7691627,8.6422279 72.9728248,8.70749824 C72.8944965,8.78582656 72.8944965,9.05997894 72.9728248,9.138304 C73.521123,9.12524928 73.8605457,9.11219456 74.4349534,9.11219456 C74.9963064,9.11219456 75.3226744,9.12524928 75.8840273,9.138304 C75.9623557,9.05997894 75.9623557,8.78582656 75.8840273,8.70749824 C75.0876894,8.65528262 74.9440875,8.60306048 74.9440875,7.51951872 M79.9503703,6.0704448 L79.9503703,7.80672256 C79.9503703,7.97643392 79.8720419,8.06782022 79.7676042,8.14614528 C79.4281815,8.4202944 78.9843177,8.70749824 78.6187888,8.70749824 C77.9660528,8.70749824 77.678849,8.18530944 77.678849,7.78061312 C77.678849,7.19315398 77.9529981,6.60568832 78.9190474,6.34459392 L79.9503703,6.0704448 M79.9503703,8.485568 C80.0286986,8.75971712 80.2506288,9.24274176 80.9555837,9.24274176 C81.5952617,9.24274176 82.0652349,8.72055296 82.0652349,8.65527936 C82.0652349,8.56389958 81.9477424,8.43334912 81.8955235,8.43334912 C81.8171952,8.43334912 81.7649731,8.64222464 81.4908272,8.64222464 C80.9816931,8.64222464 80.9686384,8.13309056 80.9686384,7.53257344 L80.9686384,5.58742016 C80.9686384,3.73365318 79.950367,3.38117248 78.9973757,3.38117248 C77.9268887,3.38117248 76.8433469,4.12529478 76.8433469,4.8302464 C76.8433469,5.14355968 77.0000035,5.2871616 77.3002621,5.2871616 C77.6788457,5.2871616 77.8746698,5.0260672 77.8746698,4.85635584 C77.8746698,4.76497606 77.8616151,4.67358976 77.8355056,4.62137088 C77.8224509,4.58220672 77.8093962,4.5038784 77.8093962,4.36027648 C77.8093962,3.95558342 78.3968586,3.81197824 78.8929379,3.81197824 C79.3367952,3.81197824 79.9503703,4.03391174 79.9503703,5.50909184 C79.9503703,5.60047488 79.9112061,5.65269376 79.8720419,5.66574848 L78.749336,5.9398976 C77.4960829,6.25321088 76.5953072,6.9451143 76.5953072,7.832832 C76.5953072,8.86415488 77.3263715,9.24274176 78.2402019,9.24274176 C78.8407158,9.24274176 79.0887587,9.138304 79.6631664,8.69444352 L79.9242608,8.485568 L79.9503703,8.485568 M86.5956307,7.51951872 C86.5956307,8.60306048 86.4520255,8.66833408 85.6556909,8.70749824 C85.5773625,8.78582656 85.5773625,9.05997894 85.6556909,9.138304 C86.2039858,9.12524928 86.5434118,9.11219456 87.1178195,9.11219456 C87.6791692,9.11219456 88.0055405,9.12524928 88.5668934,9.138304 C88.6452217,9.05997894 88.6452217,8.78582656 88.5668934,8.70749824 C87.7705555,8.66833408 87.6269536,8.60306048 87.6269536,7.51951872 L87.6269536,1.5012928 C87.6269536,0.652739264 87.6791725,0.1305472 87.6791725,0.1305472 C87.6791725,0.0391674237 87.6269536,-1.50990331e-14 87.5094611,-1.50990331e-14 C87.1830931,0.1305472 86.2039858,0.31331328 85.6818003,0.35247744 C85.6556909,0.4569152 85.6818003,0.665793984 85.7601286,0.74411904 C86.4389708,0.7832832 86.5956307,0.718012864 86.5956307,1.81460608 L86.5956307,7.51951872 M92.3223676,0.35247744 L91.3302089,1.90598912 C91.2257711,2.07570048 91.1866069,2.12792262 91.1866069,2.27152128 C91.1866069,2.36290432 91.27799,2.44123264 91.369373,2.44123264 C91.4607561,2.44123264 91.5651938,2.38901376 91.7610146,2.19319296 L93.2623074,0.77022848 L93.2231433,0.62662656 C92.9228847,0.339425984 92.583462,0.326368 92.5051337,0.326368 C92.4398601,0.326368 92.3615317,0.33942272 92.3223676,0.35247744 M90.4163785,5.43076352 C90.6644181,3.95558342 91.5782485,3.83808768 91.8915618,3.83808768 C92.3876412,3.83808768 92.9751036,4.11224006 92.9751036,5.20883328 C92.9751036,5.32632576 92.9228847,5.39159936 92.7792828,5.39159936 L90.4163785,5.43076352 M93.8367151,7.8981056 C93.3536905,8.39418496 92.9751036,8.60306048 92.2179298,8.60306048 C91.7479599,8.60306048 91.1996617,8.32891136 90.7949653,7.66312064 C90.5338709,7.23231814 90.3772143,6.63179776 90.3772143,5.874624 L93.8497698,5.90073344 C94.0064265,5.90073344 94.0978095,5.82240512 94.0978095,5.6788032 C94.0978095,4.58220998 93.7061679,3.40728192 91.8915618,3.40728192 C90.7558012,3.40728192 89.2806178,4.49082694 89.2806178,6.47514112 C89.2806178,7.20620544 89.4633839,7.91116358 89.8941897,8.40723968 C90.3380501,8.92942848 90.951622,9.24274176 91.8915618,9.24274176 C92.8837205,9.24274176 93.5886754,8.78582656 94.1108642,8.10698112 C94.0717001,7.97643718 93.9933717,7.91116032 93.8367151,7.8981056 M96.9080436,4.3733312 C97.247463,4.0730759 97.6391079,3.95558016 98.0176948,3.95558016 C98.8140294,3.95558016 99.4667687,4.9216327 99.4667687,6.18793728 C99.4667687,7.67617536 98.8662483,8.79888128 97.6260532,8.79888128 C97.2213569,8.79888128 96.9472045,8.51167744 96.6861133,8.18530944 L96.6861133,4.92162944 C96.6861133,4.64748358 96.7383322,4.52998784 96.9080436,4.3733312 M96.8166605,3.96863488 C96.7252775,4.0469632 96.6861133,4.02085376 96.6861133,3.90336128 L96.6861133,1.5012928 C96.6861133,0.652739264 96.7383322,0.1305472 96.7383322,0.1305472 C96.7383322,0.0391674237 96.6861133,-1.50990331e-14 96.5686209,-1.50990331e-14 C96.2422529,0.1305472 95.2631456,0.31331328 94.7409601,0.35247744 C94.7148506,0.4569152 94.7409601,0.665793984 94.8192884,0.74411904 C95.4981306,0.7832832 95.6547905,0.718012864 95.6547905,1.81460608 L95.6547905,8.18530944 C95.6547905,8.69444352 95.6417357,8.92943174 95.6025716,9.11219456 C95.6678452,9.21663232 95.7331188,9.2688512 95.8897754,9.2688512 C95.9681037,9.20358086 96.0986509,9.0730304 96.190034,8.95553792 C96.3336359,8.79888454 96.4119642,8.79888454 96.5555661,8.92942848 C96.8427667,9.17746816 97.2344116,9.24274176 97.7043815,9.24274176 C99.0359597,9.24274176 100.589475,8.0286528 100.589475,5.95295232 C100.589475,4.36027974 99.4145466,3.38117248 98.2787892,3.38117248 C97.7174362,3.38117248 97.2213536,3.60310598 96.8166605,3.96863488 M102.367364,4.97384832 L102.367364,7.51951872 C102.367364,8.60306048 102.210704,8.65528262 101.401315,8.70749824 C101.322987,8.78582656 101.322987,9.05997894 101.401315,9.138304 C101.94961,9.12524928 102.367364,9.11219456 102.889553,9.11219456 C103.424793,9.11219456 103.907821,9.12524928 104.469174,9.138304 C104.547503,9.05997894 104.547503,8.78582656 104.469174,8.70749824 C103.555344,8.6422279 103.398687,8.60306048 103.398687,7.51951872 L103.398687,5.70491264 C103.398687,5.36549318 103.555344,5.06523136 103.712,4.8302464 C103.855602,4.62137414 104.155861,4.19056512 104.312518,4.19056512 C104.403901,4.19056512 104.508338,4.2036231 104.586667,4.28194816 C104.717214,4.41249536 104.847761,4.66053504 105.12191,4.66053504 C105.43522,4.66053504 105.735482,4.33416704 105.735482,4.00779904 C105.735482,3.75976262 105.500494,3.38117248 104.952199,3.38117248 C104.338627,3.38117248 103.80338,3.95558342 103.503125,4.46471424 C103.424797,4.60831616 103.385632,4.54304256 103.385632,4.47776896 C103.385632,4.06002118 103.450906,3.43339136 103.450906,3.43339136 C103.450906,3.38117574 103.385632,3.34200832 103.281195,3.34200832 C102.915663,3.48561024 102.39347,3.60310598 101.492698,3.7205952 C101.466589,3.79892352 101.466589,4.0078023 101.518808,4.08612736 C102.223759,4.15140096 102.367364,4.25584198 102.367364,4.97384832 M109.73145,6.0704448 L109.73145,7.80672256 C109.73145,7.97643392 109.653122,8.06782022 109.548684,8.14614528 C109.209261,8.4202944 108.765398,8.70749824 108.399869,8.70749824 C107.747133,8.70749824 107.459929,8.18530944 107.459929,7.78061312 C107.459929,7.19315398 107.734078,6.60568832 108.700127,6.34459392 L109.73145,6.0704448 M109.73145,8.485568 C109.809779,8.75971712 110.031709,9.24274176 110.736664,9.24274176 C111.376342,9.24274176 111.846315,8.72055296 111.846315,8.65527936 C111.846315,8.56389958 111.728822,8.43334912 111.676604,8.43334912 C111.598275,8.43334912 111.546053,8.64222464 111.271907,8.64222464 C110.762773,8.64222464 110.749718,8.13309056 110.749718,7.53257344 L110.749718,5.58742016 C110.749718,3.73365318 109.731447,3.38117248 108.778456,3.38117248 C107.707969,3.38117248 106.624427,4.12529478 106.624427,4.8302464 C106.624427,5.14355968 106.781084,5.2871616 107.081342,5.2871616 C107.459926,5.2871616 107.65575,5.0260672 107.65575,4.85635584 C107.65575,4.76497606 107.642695,4.67358976 107.616586,4.62137088 C107.603531,4.58220672 107.590476,4.5038784 107.590476,4.36027648 C107.590476,3.95558342 108.177939,3.81197824 108.674018,3.81197824 C109.117875,3.81197824 109.73145,4.03391174 109.73145,5.50909184 C109.73145,5.60047488 109.692286,5.65269376 109.653122,5.66574848 L108.530416,5.9398976 C107.277163,6.25321088 106.376387,6.9451143 106.376387,7.832832 C106.376387,8.86415488 107.107452,9.24274176 108.021282,9.24274176 C108.621796,9.24274176 108.869839,9.138304 109.444246,8.69444352 L109.705341,8.485568 L109.73145,8.485568" id="eml-tagline" fill="#000000" fill-rule="nonzero"></path>
    </g>
</svg>