<svg xmlns="http://www.w3.org/2000/svg" width="106" height="13"><path fill="#000" fill-rule="nonzero" d="M3.514 4.427H2.32V1.8c0-.316.157-.578.473-.578H4.17c.985 0 1.195.525 1.484 1.432.158.026.302 0 .434-.066a46.11 46.11 0 0 0-.29-1.905c0-.026-.012-.04-.052-.04-.223.04-.328.053-.643.053h-3.35S.716.683.059.67c-.079.079-.079.355 0 .433.92.04 1.143.106 1.143 1.196v5.268c0 1.09-.223 1.156-1.143 1.195-.079.079-.079.355 0 .434.644-.013 1.708-.027 1.708-.027H4.59c.63 0 1.682.027 1.682.027.184-.657.38-1.524.486-2.194a.687.687 0 0 0-.46-.066c-.263.946-.722 1.721-1.72 1.721H2.791c-.29 0-.473-.21-.473-.565V4.926h1.195c1.117 0 1.156.302 1.195.893.08.08.355.08.434 0-.013-.46-.026-.709-.026-1.156 0-.446.013-.735.026-1.13-.079-.078-.355-.078-.434 0-.039.723-.078.894-1.195.894Zm6.04.04c-.039.052-.13.183-.13 0 0-.395.065-.999.065-.999 0-.066-.053-.105-.158-.105-.367.145-.906.263-1.813.381-.026.079 0 .289.027.368.71.066.854.131.854.893v2.562c0 1.077-.132 1.13-.92 1.195-.079.079-.079.355 0 .434.539-.013.88-.027 1.445-.027.512 0 .749.013 1.3.027.08-.08.08-.355 0-.434-.67-.066-.788-.118-.788-1.195V5.412c0-.276.119-.433.224-.551.499-.486 1.011-.775 1.524-.775.262 0 .538.17.696.472.131.263.157.618.157 1.012v1.997c0 1.077-.13 1.13-.814 1.195-.066.079-.066.355 0 .434.552-.013.814-.027 1.34-.027.539 0 .828.013 1.392.027.066-.08.066-.355 0-.434-.735-.066-.88-.118-.88-1.195V5.609c0-.722-.052-1.353-.354-1.76-.224-.289-.631-.447-1.09-.447-.644 0-1.275.171-2.076 1.064Zm5.244 2.89c.053.643.092 1.26.092 1.812a1.95 1.95 0 0 1 .329-.039c.092 0 .17 0 .262.026.355.092.71.145 1.196.145.735 0 2.088-.355 2.088-1.655 0-.894-.656-1.406-1.536-1.748-.789-.302-1.314-.499-1.314-1.221 0-.539.473-.841.92-.841.288 0 1.05.105 1.221 1.222.079.078.342.065.42-.013 0-.473.066-.96.08-1.393-.408-.066-1.038-.25-1.722-.25-.972 0-1.852.631-1.852 1.472 0 .959.434 1.366 1.445 1.786 1.077.46 1.34.723 1.34 1.288 0 .643-.63.92-1.117.92-.512 0-.8-.171-.932-.316-.315-.302-.434-.88-.513-1.208-.078-.08-.328-.066-.407.013Zm5.58-6.056c0 .341.316.683.631.683.368 0 .683-.342.683-.63 0-.316-.275-.684-.63-.684-.315 0-.683.315-.683.63Zm1.196 6.266V4.953c0-.657.053-1.498.053-1.498 0-.053-.066-.092-.171-.092-.38.144-.893.263-1.8.38-.026.08 0 .29.027.369.709.079.853.144.853.893v2.562c0 1.09-.144 1.13-.945 1.195-.08.079-.08.355 0 .434.551-.013.893-.027 1.47-.027.566 0 .894.013 1.46.027.078-.08.078-.355 0-.434-.802-.052-.947-.105-.947-1.195Zm2.319 0c0 1.09-.145 1.143-.88 1.195-.08.079-.08.355 0 .434.551-.013.853-.027 1.405-.027.46 0 .63.013 1.196.027.078-.08.078-.355 0-.434-.539-.052-.684-.105-.684-1.195V6.384c.303.014.487.106.75.473l.958 1.353c.263.381.302.539.302.71v.21c0 .04.014.066.053.066.263-.013.512-.027.906-.027.408 0 .683.014 1.078.027.078-.08.078-.355 0-.434-.447-.052-.841-.105-1.13-.552L26.31 5.938a.314.314 0 0 1-.066-.184c0-.053.013-.092.053-.131l.998-1.104c.381-.394.788-.552 1.445-.578.079-.079.079-.355 0-.433-.486.013-.67.026-1.143.026-.499 0-.722-.013-1.208-.026-.08.078-.08.354 0 .433.788.04.367.539.236.67-.696.762-1.353 1.34-1.695 1.445V1.511c0-.854.053-1.38.053-1.38 0-.092-.053-.13-.17-.13-.33.13-1.314.314-1.84.354-.026.105 0 .315.079.394.683.04.84-.026.84 1.077v5.74Zm6.455 0c0 1.09-.144 1.156-.946 1.195-.078.079-.078.355 0 .434.552-.013.894-.027 1.472-.027.565 0 .893.013 1.458.027.079-.08.079-.355 0-.434-.801-.04-.946-.105-.946-1.195V1.51c0-.854.053-1.38.053-1.38 0-.092-.053-.131-.171-.131-.329.131-1.314.315-1.84.355-.026.105 0 .315.08.394.683.04.84-.026.84 1.077v5.74Zm2.755-1.09c0 1.34.906 2.824 2.758 2.824 1.958 0 2.785-1.63 2.785-2.943 0-1.366-.722-2.956-2.758-2.956-1.774 0-2.785 1.406-2.785 3.074Zm2.64-2.641c1.13 0 1.774 1.011 1.774 2.943 0 1.734-.802 2.088-1.42 2.088-1.365 0-1.865-1.681-1.865-2.693 0-1.143.408-2.338 1.511-2.338Zm5.74.933c.407-.42.932-.762 1.326-.762.841 0 1.564.946 1.564 2.43 0 1.077-.381 2.417-1.853 2.417-.236 0-.696-.066-.932-.276-.276-.236-.316-.302-.316-.788V5.347c0-.276.04-.394.21-.578Zm-.105-.434c-.053.053-.132.066-.132-.04 0-.472.053-.84.053-.84 0-.053-.066-.092-.171-.092-.368.144-.867.263-1.773.38-.027.08 0 .29.026.369.71.065.854.144.854.893v5.61c0 1.09-.145 1.155-.946 1.195-.079.079-.079.355 0 .433.552-.013.893-.026 1.471-.026.618 0 1.025.013 1.59.026.078-.078.078-.354 0-.433-.933-.053-1.078-.105-1.078-1.196V9.196c0-.171.04-.145.184-.092.316.131.723.197 1.143.197.736 0 1.393-.224 1.931-.736.618-.604.972-1.419.972-2.483 0-1.392-.985-2.68-2.325-2.68-.486 0-1.208.329-1.8.933Zm6.362 1.13c.25-1.485 1.17-1.603 1.485-1.603.499 0 1.09.276 1.09 1.38 0 .118-.053.183-.197.183l-2.378.04Zm3.442 2.483c-.486.499-.867.71-1.629.71-.473 0-1.025-.277-1.432-.947-.263-.433-.42-1.038-.42-1.8l3.494.027c.158 0 .25-.079.25-.223 0-1.104-.394-2.286-2.22-2.286-1.143 0-2.628 1.09-2.628 3.087 0 .736.184 1.445.618 1.944.446.526 1.064.84 2.01.84.998 0 1.707-.459 2.233-1.142-.04-.131-.118-.197-.276-.21Zm5.414-.408c0 .25-.026.355-.21.513-.486.42-.907.63-1.235.63-.71 0-1.445-.775-1.445-2.417 0-.946.184-1.471.38-1.747a1.378 1.378 0 0 1 1.223-.657c.472 0 .8.171 1.064.473.184.21.223.302.223.71V7.54Zm-.145.973c.053-.053.158-.08.158.013 0 .315.145.775.145.775.105.04.144.026.25 0 .288-.237.787-.434 1.589-.526.079-.079.079-.276 0-.354-.841-.066-.96-.316-.96-.96v-5.95c0-.854.053-1.38.053-1.38 0-.092-.052-.131-.17-.131-.329.131-1.314.315-1.84.355-.026.105 0 .315.08.394.682.04.84-.027.84 1.077v1.681c0 .092-.026.119-.118.119-.053 0-.591-.224-1.025-.224-.867 0-1.445.29-1.97.789-.565.564-.907 1.34-.907 2.312 0 1.615.815 2.798 2.233 2.798.513 0 .999-.263 1.642-.788Zm3.44-7.212c0 .341.316.683.63.683.369 0 .684-.342.684-.63 0-.316-.276-.684-.63-.684-.316 0-.684.315-.684.63Zm1.196 6.266V4.953c0-.657.052-1.498.052-1.498 0-.053-.065-.092-.17-.092-.381.144-.894.263-1.8.38-.026.08 0 .29.026.369.71.079.854.144.854.893v2.562c0 1.09-.144 1.13-.946 1.195-.079.079-.079.355 0 .434.552-.013.893-.027 1.471-.027.565 0 .894.013 1.459.027.078-.08.078-.355 0-.434-.802-.052-.946-.105-.946-1.195Zm5.038-1.458v1.747c0 .17-.08.262-.184.341-.342.276-.789.565-1.156.565-.657 0-.946-.525-.946-.933 0-.59.276-1.182 1.248-1.445l1.038-.275Zm0 2.43c.078.276.302.762 1.011.762.644 0 1.117-.526 1.117-.591 0-.092-.119-.224-.171-.224-.079 0-.131.21-.407.21-.513 0-.526-.512-.526-1.116V5.623c0-1.866-1.024-2.22-1.983-2.22-1.078 0-2.168.748-2.168 1.458 0 .315.158.46.46.46.38 0 .578-.263.578-.434a.59.59 0 0 0-.04-.237.908.908 0 0 1-.026-.262c0-.408.591-.552 1.09-.552.447 0 1.065.223 1.065 1.708 0 .092-.04.144-.08.157l-1.129.276c-1.261.315-2.168 1.012-2.168 1.905 0 1.038.736 1.419 1.656 1.419.604 0 .854-.105 1.432-.552l.262-.21h.027Zm7.921-6.647c0-.381.197-.841 1.143-.841.907 0 1.813.302 1.813 1.97 0 1.42-.683 1.997-1.957 1.997-.329 0-.854-.026-.999-.065V1.892Zm-1.116.407v5.268c0 1.09-.224 1.156-1.143 1.195-.079.079-.079.355 0 .434.644-.013 1.038-.027 1.708-.027.735 0 1.234.013 1.891.027.08-.08.08-.355 0-.434-1.024-.052-1.34-.105-1.34-1.195V5.334c.29.091.605.13 1.064.13 2.391 0 3.114-1.562 3.114-2.679 0-.775-.513-2.18-2.943-2.18-.341 0-1.274.091-1.8.091-.656 0-1.037-.013-1.694-.026-.079.079-.079.355 0 .433.92.04 1.143.106 1.143 1.196Zm7.241 3.166c.25-1.485 1.17-1.603 1.485-1.603.499 0 1.09.276 1.09 1.38 0 .118-.052.183-.197.183l-2.378.04Zm3.442 2.483c-.486.499-.867.71-1.629.71-.473 0-1.025-.277-1.432-.947-.262-.433-.42-1.038-.42-1.8l3.494.027c.158 0 .25-.079.25-.223 0-1.104-.394-2.286-2.22-2.286-1.143 0-2.628 1.09-2.628 3.087 0 .736.184 1.445.618 1.944.446.526 1.064.84 2.01.84.998 0 1.707-.459 2.233-1.142-.04-.131-.118-.197-.276-.21Zm2.119-2.943v2.562c0 1.09-.158 1.143-.973 1.195-.078.079-.078.355 0 .434.552-.013.973-.027 1.498-.027.539 0 1.025.013 1.59.027.078-.08.078-.355 0-.434-.92-.066-1.078-.105-1.078-1.195V5.74c0-.342.158-.644.316-.88.144-.21.446-.644.604-.644.092 0 .197.013.276.092.131.131.263.38.538.38.316 0 .618-.328.618-.656 0-.25-.237-.63-.788-.63-.618 0-1.156.577-1.459 1.09-.078.144-.118.079-.118.013 0-.42.066-1.051.066-1.051 0-.053-.066-.092-.17-.092-.369.144-.894.263-1.8.38-.027.08-.027.29.026.369.71.065.854.17.854.893Zm5.087.46c.25-1.485 1.17-1.603 1.485-1.603.499 0 1.09.276 1.09 1.38 0 .118-.053.183-.197.183l-2.378.04Zm3.442 2.483c-.486.499-.867.71-1.629.71-.473 0-1.025-.277-1.432-.947-.263-.433-.42-1.038-.42-1.8l3.494.027c.158 0 .25-.079.25-.223 0-1.104-.394-2.286-2.22-2.286-1.143 0-2.628 1.09-2.628 3.087 0 .736.184 1.445.618 1.944.446.526 1.064.84 2.01.84.998 0 1.707-.459 2.233-1.142-.04-.131-.118-.197-.276-.21Zm3.435 3.323c.197-.354.367-.735.538-1.13 1.051-2.522 1.63-3.888 2.325-5.36.184-.38.578-.8 1.064-.84.08-.079.08-.355 0-.433-.328.013-.564.026-.932.026-.46 0-.71-.013-1.196-.026-.079.078-.079.354 0 .433.408.04.828.118.63.591L98.813 7.54c-.092.224-.197.25-.315-.013L97.34 4.795c-.237-.552-.381-.788.433-.854.08-.079.08-.355 0-.433a56.98 56.98 0 0 1-1.484.026c-.447 0-.801-.013-1.064-.026-.079.078-.079.354 0 .433.565.053.67.158 1.025.985l1.497 3.455c.105.276.315.867.184 1.235-.158.447-.315.801-.512 1.209-.145.262-.329.38-.657.38-.184 0-.237-.039-.381-.039-.381 0-.578.394-.578.565 0 .276.263.486.617.486.276 0 .802-.105 1.275-.946Zm5.274-9.97c0 .341.316.683.63.683.369 0 .684-.342.684-.63 0-.316-.276-.684-.63-.684-.316 0-.684.315-.684.63Zm1.196 6.266V4.953c0-.657.052-1.498.052-1.498 0-.053-.065-.092-.17-.092-.381.144-.894.263-1.8.38-.027.08 0 .29.026.369.71.079.854.144.854.893v2.562c0 1.09-.145 1.13-.946 1.195-.079.079-.079.355 0 .434.552-.013.893-.027 1.471-.027.565 0 .894.013 1.459.027.078-.08.078-.355 0-.434-.802-.052-.946-.105-.946-1.195Z"/></svg>