<svg xmlns="http://www.w3.org/2000/svg" width="120" height="10"><path fill="#000" fill-rule="nonzero" d="M7.914 6.298c-.13.961-.166.973-.949 1.009-.083.07-.13.32-.07.391.557-.012.913-.024 1.268-.024.356 0 .89.012 1.293.024.083-.071.13-.32.072-.391-.795-.036-.819-.083-.7-1.068l.64-4.994c.083-.64.178-.806.997-.854.083-.07.13-.32.07-.391L8.983.024 5.269 6.038c-.07.118-.118.166-.142.166-.036 0-.036-.048-.071-.155L3.834.024 2.114 0c-.083.071-.13.32-.071.391.807.048.878.072.617.961L1.189 6.24C.987 6.951.786 7.247.098 7.307c-.083.07-.13.32-.072.391a33.92 33.92 0 0 1 1.02-.024c.285 0 .76.012 1.116.024.083-.071.13-.32.07-.391-.77-.06-.77-.415-.557-1.092l1.4-4.756h.024L4.32 7.615c0 .095.083.13.155.13.07 0 .118-.035.19-.13L8.59 1.34h.024l-.7 4.958m3.79-1.969c.498-1.34 1.352-1.447 1.637-1.447.45 0 .937.25.735 1.246-.024.107-.083.166-.214.166l-2.158.035m2.668 2.242c-.533.451-.913.64-1.6.64-.428 0-.879-.248-1.128-.853-.154-.392-.19-.937-.047-1.625l3.143.023c.143 0 .237-.07.273-.201.19-.997.047-2.064-1.601-2.064-1.032 0-2.562.984-2.93 2.787-.13.665-.095 1.305.213 1.756.309.474.807.759 1.661.759.902 0 1.625-.415 2.218-1.032-.012-.119-.071-.178-.202-.19m1.041.119c-.06.26.071.45.273.64.225.214.771.463 1.649.463 1.115 0 2.3-.498 2.514-1.53.143-.712-.38-1.198-1.245-1.317l.012-.06c.688-.153 1.34-.545 1.47-1.209.143-.688-.343-1.21-1.541-1.21-.653 0-1.27.261-1.886.332l-.546 1.412.297.047c.344-.688.996-1.423 1.933-1.423.64 0 .913.415.807.937-.107.522-.475 1.032-1.246 1.032-.213 0-.498-.06-.712-.06-.094 0-.237.06-.272.25-.036.19.095.237.19.237.213 0 .462-.06.735-.06.984 0 1.139.606 1.032 1.127-.143.7-.664 1.127-1.483 1.127-.629 0-.937-.32-1.091-.711-.071-.202-.154-.38-.439-.38-.202 0-.415.166-.45.356m4.4 2.503.308.012c.19-.44.712-1.53 1.708-1.53h1.922c.984 0 1.115 1.043 1.115 1.518h.296l.25-1.59c.035-.166-.036-.201-.25-.249-.19-.035-.439-.142-.356-.581l.664-3.286c.072-.403.214-.498.653-.557l.202-.024c.035 0 .094-.036.106-.083l.048-.237-.012-.024s-.866.024-1.257.024h-2.254c-.202 0-1.127-.024-1.127-.024l-.036.024-.059.26c0 .048.024.06.071.06l.32.024c.404.035.428.273.404.415-.285 1.411-.724 2.49-1.139 3.5-.13.32-.486.474-.806.51-.167.023-.32.047-.38.26l-.391 1.578m1.933-2.124c.047-.201.498-1.02 1.21-3.724.012-.048.118-.308.391-.308h.842c.44 0 .44.177.356.58l-.593 3.014c-.083.391-.154.58-.593.58H21.95c-.119 0-.226-.011-.202-.142m5.438-4.507-.012.024-.059.26c0 .036 0 .06.047.06l.344.024c.309.024.44.095.356.51l-.77 3.345c-.107.415-.202.522-.618.545l-.367.024c-.048.012-.071.024-.083.06l-.048.26.012.024s.76-.024 1.115-.024c.356 0 .937.024.937.024l.024-.024.047-.249c.012-.047-.012-.059-.059-.07l-.19-.025c-.356-.035-.427-.154-.344-.545l.783-3.44h.024l.925 4.258c.024.083.06.119.107.119a.216.216 0 0 0 .19-.119l2.74-4.46h.011l-.735 3.63c-.095.427-.142.498-.557.557l-.166.024c-.036.012-.06.024-.072.071l-.047.25.012.023s.652-.024 1.008-.024 1.388.024 1.388.024l.012-.024.047-.249c.012-.035-.012-.059-.06-.07l-.343-.025c-.475-.023-.487-.154-.404-.557l.665-3.333c.095-.439.13-.475.581-.51l.332-.024c.048 0 .083-.024.083-.06l.06-.26-.024-.024-1.827.024-2.432 4.02-.806-4.02-1.827-.024M36.102.854c-.059.308.143.558.451.558.308 0 .605-.25.664-.558.06-.308-.13-.57-.439-.57-.308 0-.616.262-.676.57m2.005 0c-.06.308.142.558.45.558.309 0 .606-.25.665-.558.06-.308-.13-.57-.439-.57-.308 0-.617.262-.676.57m-3.831 4.389c-.238 1.21.308 2.55 1.98 2.55 1.768 0 2.812-1.47 3.049-2.657.249-1.234-.119-2.669-1.957-2.669-1.602 0-2.776 1.27-3.072 2.776m2.858-2.384c1.02 0 1.424.913 1.068 2.657-.309 1.565-1.091 1.886-1.649 1.886-1.234 0-1.388-1.519-1.198-2.432.202-1.032.783-2.111 1.78-2.111m3.493-.297-.012.024-.06.26c0 .036 0 .06.048.06l.344.024c.308.024.439.095.356.51l-.771 3.345c-.107.415-.202.522-.617.545l-.368.024c-.047.012-.07.024-.083.06l-.047.26.012.024s.759-.024 1.115-.024.937.024.937.024l.023-.024.048-.249c.012-.047-.012-.059-.06-.07l-.19-.025c-.355-.035-.426-.154-.343-.545l.783-3.44h.023l.926 4.258c.023.083.059.119.106.119a.216.216 0 0 0 .19-.119l2.74-4.46h.012l-.735 3.63c-.095.427-.143.498-.558.557l-.166.024c-.036.012-.06.024-.071.071l-.048.25.012.023s.653-.024 1.009-.024c.355 0 1.387.024 1.387.024l.012-.024.048-.249c.011-.035-.012-.059-.06-.07l-.344-.025c-.474-.023-.486-.154-.403-.557l.664-3.333c.095-.439.13-.475.582-.51l.332-.024c.047 0 .083-.024.083-.06l.059-.26-.024-.024-1.826.024-2.432 4.02-.807-4.02-1.826-.024m8.593 4.14c-.119.628.629 1.091 1.708 1.091 1.174 0 2.526-.83 2.906-2.74.285-1.435-.154-2.586-1.732-2.586-.557 0-1.08.19-1.672.226-.13.45-.261.854-.498 1.423l.284.047c.356-.759.842-1.328 1.72-1.328 1.056 0 1.198 1.02.985 2.111l-.036.024c-.273-.19-.57-.332-.913-.332-.51 0-.89.332-1.305.332-.154 0-.285-.071-.368-.071-.07 0-.118.118-.13.166-.036.166.474.38.984.38.534 0 .795-.262 1.246-.262.154 0 .296.048.427.107-.285 1.412-.95 2.112-1.945 2.112-.475 0-.748-.285-.819-.605-.107-.368-.225-.44-.427-.44-.213 0-.368.155-.415.345m9.053.06c-.083.45-.166.545-.593.568l-.32.024c-.036.012-.06.024-.071.06l-.048.26.012.024c.356-.012.854-.024 1.281-.024.44 0 .866.012 1.222.024l.024-.024.047-.249c.012-.047-.012-.059-.06-.07l-.225-.025c-.403-.035-.474-.094-.38-.569l.665-3.274c.095-.486.178-.51.593-.557l.237-.024c.048 0 .083-.024.095-.071l.048-.25-.012-.023c-.356.012-.795.024-1.234.024-.427 0-.913-.012-1.269-.024l-.024.024-.059.26c0 .048.012.06.048.06l.308.024c.368.035.463.107.38.557l-.261 1.27h-2.432l.26-1.27c.096-.486.179-.51.594-.557l.237-.024c.048 0 .083-.024.095-.071l.048-.25-.012-.023a38.39 38.39 0 0 1-1.246.024c-.427 0-.901-.012-1.257-.024l-.024.024-.06.26c0 .048.013.06.048.06l.309.024c.367.035.462.107.38.557l-.665 3.274c-.083.45-.166.546-.593.57l-.32.023c-.036.012-.06.024-.071.06l-.048.26.012.024c.356-.012.842-.024 1.27-.024.438 0 .877.012 1.233.024l.023-.024.048-.249c.012-.047-.012-.059-.06-.07l-.225-.025c-.403-.035-.474-.094-.38-.569l.32-1.601h2.433l-.32 1.601M65.263 3.5l-.617 3.132c-.083.403-.154.58-.593.58H62.63c-.415 0-.45-.142-.355-.58l.628-3.144c.095-.486.166-.51.582-.557l.249-.024c.047 0 .083-.024.095-.071l.047-.25-.024-.023s-.759.024-1.233.024c-.499 0-1.27-.024-1.27-.024l-.011.024-.06.26c0 .048.012.06.06.06l.308.024c.391.035.45.107.368.557l-.665 3.321c-.094.463-.166.475-.58.522l-.214.024c-.036.012-.06.024-.071.071l-.048.25.024.023s.747-.024 1.103-.024h2.882c.937 0 1.103.95 1.115 1.53l.297-.011.249-1.578c.024-.202-.095-.225-.297-.26-.201-.036-.38-.226-.308-.582l.652-3.274c.107-.486.19-.534.605-.57l.297-.023c.047 0 .083-.024.083-.06l.06-.26-.025-.024s-.782.024-1.28.024c-.475 0-1.21-.024-1.21-.024l-.012.024-.06.26c0 .048.012.06.048.06l.249.024c.391.047.45.107.356.57m3.811-.914c-.51 0-1.292-.024-1.292-.024l-.036.024-.06.26c0 .048.013.06.06.06l.356.024c.427.035.45.13.344.628l-.64 3.203c-.084.415-.143.546-.582.57l-.38.023c-.035.012-.059.024-.07.06l-.048.26.012.024c.474-.012.806-.024 1.316-.024.38 0 .487.012.961.024l.012-.024.047-.249c.012-.047-.011-.059-.059-.07-.391-.036-.403-.167-.344-.452V6.88l3.037-2.942-.558 2.8c-.083.414-.166.569-.605.592l-.38.024c-.035.012-.059.024-.07.06l-.048.26.024.024c.474-.012.795-.024 1.305-.024.533 0 .89.012 1.364.024l.012-.024.047-.249c.012-.047-.012-.059-.06-.07l-.343-.025c-.415-.023-.451-.154-.356-.593l.64-3.19c.095-.499.143-.582.593-.617l.356-.024c.048 0 .083-.024.095-.071l.048-.25-.012-.023s-.83.024-1.364.024c-.332 0-.866-.024-.866-.024l-.024.024-.06.26c0 .048.013.06.048.06.403.036.368.237.32.522L68.78 6.37l.57-2.823c.094-.487.142-.582.604-.617l.356-.024c.047 0 .083-.024.095-.071l.047-.25-.023-.023s-.83.024-1.353.024m4.304 5.088.023.024s.807-.024 1.222-.024c.463 0 1.15.024 1.15.024l.024-.024.048-.225c.012-.06-.036-.083-.083-.095-.25-.035-.593-.107-.51-.498l.332-1.66c.878.059 1.056.486 1.15 1.138.072.522.273 1.34.866 1.352l.854.012.036-.024.047-.213c.012-.083-.07-.107-.118-.107l-.083-.012c-.415-.059-.7-1.091-.795-1.542-.13-.58-.51-.842-1.15-.842l.011-.047c.463-.13.819-.534 1.092-1.009.201-.367.474-.628.593-.628.106 0 .19.035.249.083.07.06.166.107.308.107.25 0 .498-.214.546-.451.047-.285-.024-.534-.51-.534-.57 0-1.08.64-1.412 1.198-.391.652-.806 1.103-1.601 1.103l.273-1.352c.083-.427.344-.486.688-.522.047 0 .106-.06.118-.119l.048-.201-.024-.024s-.664.024-1.127.024c-.415 0-1.222-.024-1.222-.024l-.023.024-.048.225c-.012.06.024.083.071.095l.226.024c.368.035.462.19.391.522l-.676 3.38c-.06.332-.166.451-.593.498l-.237.024c-.06.012-.095.036-.107.095l-.047.225m5.245-.545c-.072.367.177.688.7.688.569 0 .948-.297 1.34-.95.332-.569.64-1.778.794-2.585.19-.925.285-1.234.736-1.234h.534c.427 0 .438.166.355.57l-.628 3.179c-.071.344-.19.486-.617.533l-.237.024c-.06.012-.095.036-.107.095l-.047.225.023.024s.807-.024 1.234-.024c.462 0 1.27.024 1.27.024l.023-.024.047-.225c.012-.06-.035-.095-.083-.095l-.213-.024c-.38-.035-.475-.19-.404-.533l.665-3.31c.083-.45.13-.522.593-.557l.332-.024c.071 0 .107-.024.118-.083l.048-.237-.036-.024s-.806.024-1.316.024h-2.064c-.475 0-1.222-.024-1.222-.024l-.036.024-.035.19c-.024.106.024.118.213.13.665.048.665.214.416 1.459-.25 1.245-.475 1.898-.724 2.384-.237.427-.45.581-.64.581-.143 0-.178-.094-.167-.249.012-.213 0-.45-.32-.45-.285 0-.486.237-.545.498m6.59-1.886c-.238 1.21.308 2.55 1.98 2.55 1.768 0 2.811-1.47 3.049-2.657.249-1.234-.119-2.669-1.957-2.669-1.602 0-2.776 1.27-3.073 2.776m2.859-2.384c1.02 0 1.423.913 1.068 2.657-.309 1.565-1.092 1.886-1.65 1.886-1.233 0-1.387-1.519-1.197-2.432.201-1.032.783-2.111 1.779-2.111m4.051.652-.652 3.262c-.083.415-.178.534-.593.557l-.368.024c-.048.012-.071.024-.083.06l-.048.26.024.024s.807-.024 1.329-.024a55.9 55.9 0 0 1 1.292.024l.012-.024.048-.249c.012-.047-.012-.059-.048-.07l-.308-.025c-.403-.023-.45-.106-.368-.557l.653-3.262c.083-.415.332-.463.58-.463h1.436c.237 0 .486.024.391.463l-.652 3.262c-.083.415-.178.534-.593.557l-.332.024c-.036.012-.06.024-.071.06l-.048.26.012.024s.795-.024 1.305-.024c.51 0 1.328.024 1.328.024l.012-.024.048-.249c.012-.047-.012-.059-.06-.07l-.344-.025c-.415-.023-.462-.106-.38-.557l.653-3.274c.107-.486.143-.534.605-.57l.356-.023c.047 0 .083-.024.095-.071l.047-.25-.012-.023s-.83.024-1.364.024H92.74c-.51 0-1.305-.024-1.305-.024l-.024.024-.059.26c0 .048.012.06.047.06l.356.024c.404.035.475.083.368.581m6.56.818c.498-1.34 1.352-1.447 1.637-1.447.45 0 .937.25.736 1.246-.024.107-.084.166-.214.166l-2.159.035m2.669 2.242c-.534.451-.913.64-1.601.64-.427 0-.878-.248-1.127-.853-.154-.392-.19-.937-.048-1.625l3.144.023c.142 0 .237-.07.273-.201.19-.997.047-2.064-1.602-2.064-1.032 0-2.562.984-2.93 2.787-.13.665-.094 1.305.214 1.756.308.474.807.759 1.66.759.902 0 1.626-.415 2.219-1.032-.012-.119-.071-.178-.202-.19m.295 2.622.309.012c.19-.44.711-1.53 1.708-1.53h1.921c.985 0 1.115 1.043 1.115 1.518h.297l.249-1.59c.035-.166-.036-.201-.25-.249-.19-.035-.438-.142-.355-.581l.664-3.286c.071-.403.214-.498.652-.557l.202-.024c.036 0 .095-.036.107-.083l.047-.237-.012-.024s-.865.024-1.257.024h-2.254c-.201 0-1.126-.024-1.126-.024l-.036.024-.06.26c0 .048.024.06.072.06l.32.024c.403.035.427.273.403.415-.284 1.411-.723 2.49-1.138 3.5-.13.32-.487.474-.807.51-.166.023-.32.047-.38.26l-.39 1.578m1.933-2.124c.047-.201.498-1.02 1.21-3.724.011-.048.118-.308.39-.308h.843c.439 0 .439.177.356.58l-.593 3.014c-.083.391-.154.58-.593.58h-1.412c-.118 0-.225-.011-.201-.142m6.636-4.483c-.51 0-1.293-.024-1.293-.024l-.036.024-.059.26c0 .048.012.06.06.06l.355.024c.427.035.45.13.344.628l-.64 3.203c-.083.415-.143.546-.582.57l-.38.023c-.035.012-.058.024-.07.06l-.048.26.012.024c.475-.012.807-.024 1.317-.024.38 0 .486.012.96.024l.012-.024.048-.249c.012-.047-.012-.059-.06-.07-.39-.036-.403-.167-.343-.452V6.88l3.036-2.942-.557 2.8c-.083.414-.167.569-.605.592l-.38.024c-.036.012-.06.024-.071.06l-.048.26.024.024c.475-.012.795-.024 1.305-.024.534 0 .89.012 1.364.024l.012-.024.047-.249c.012-.047-.012-.059-.059-.07l-.344-.025c-.415-.023-.45-.154-.356-.593l.64-3.19c.096-.499.143-.582.594-.617l.356-.024c.047 0 .083-.024.094-.071l.048-.25-.012-.023s-.83.024-1.364.024c-.332 0-.866-.024-.866-.024l-.024.024-.059.26c0 .048.012.06.048.06.403.036.367.237.32.522L109.92 6.37l.57-2.823c.095-.487.142-.582.605-.617l.355-.024c.048 0 .083-.024.095-.071l.048-.25-.024-.023s-.83.024-1.352.024m4.09 5.088.035.024.747-.012c.38-.012.866-.486 1.198-1.067.44-.771.866-1.27 1.34-1.27h.297l-.284 1.412c-.083.463-.13.558-.522.581l-.19.012c-.048 0-.071.036-.083.083l-.048.261s.677-.024 1.104-.024c.415 0 1.079.024 1.079.024l.047-.237c0-.024-.012-.107-.106-.107l-.25-.012c-.19-.012-.201-.273-.142-.58l.7-3.476c.047-.25.154-.344.368-.356l.296-.024c.024 0 .048-.012.048-.036l.059-.284-.024-.024s-.628.024-1.032.024c-.38 0-.07-.024-.972-.024-2.029 0-2.349 1.091-2.42 1.435-.166.842.617 1.258 1.27 1.258l-.013.035c-.344.06-.794.344-1.091.83-.273.44-.807 1.187-1.127 1.222l-.107.012c-.047 0-.118.012-.13.095l-.048.225m2.16-3.807c.118-.558.379-.96 1.399-.96.463 0 .546.047.463.426l-.32 1.613h-.795c-.677 0-.866-.486-.748-1.08"/></svg>