<svg xmlns="http://www.w3.org/2000/svg" viewBox="0 0 131 40"><g fill="#595959"><path d="m18.043 14.008 1.832-2.078V2.239L17.801 0H3.883L1.785 2.348v9.555l1.828 2.078h14.43zm-5.922-6.125v1.512H10.02V7.883zm1.398-2.43H8.247L7.008 6.801v2.594H5.984V4.617H16.05v4.75l-1.183-.082v-2.43zM52.5 14.008l1.828-2.078V2.239L52.258 0H38.34l-2.102 2.348v9.555l1.832 2.078H52.5zm-5.95-6.125v1.512h-2.073V7.883zm1.4-2.43h-5.278l-1.238 1.348v2.594H40.41V4.617h10.07v4.75l-1.183-.082v-2.43zM38.906 15.086l-.836.89v1.11l-3.363-2.105-.676.675v3.778l7.27 3.183.835-.648V19.89h9.5v8.367h-2.582V25.21l-1.75-1.809H36.05l-2.02 2.106v5.504l1.966 2.105h18.062l1.965-2.078V17.461l-2.016-2.32H38.905zm5.758 12.363v.809h-6.27v-.809zM59.094 23.969l-1.32 1.32v5.266l1.375 1.32h2.394l-2.316 6.13L59.93 40l6.297-9.472v-5.211l-1.184-1.32h-5.949zm4.09 3.344v1.242h-2.422v-1.242zM24.828 23.969l-1.32 1.32v5.266l1.37 1.32h2.4l-2.317 6.13L25.66 40l6.3-9.472v-5.211l-1.187-1.32h-5.945zm4.063 3.344v1.242h-2.422v-1.242z"/></g><g fill="#8c8c8c"><path d="m72.957 15.086-.836.89v1.11l-3.363-2.105-.672.675v3.778l7.265 3.183.836-.648V19.89h9.5v8.367h-2.582V25.21l-1.75-1.809H70.101l-2.015 2.106v5.504l1.965 2.105h18.062l1.964-2.078V17.461l-2.02-2.32H72.957zm5.762 12.363v.809h-6.246v-.809zM91.531 18.57l1.29.89-.106 13.603h4.359V15.36h-5.543zM100.87 15.086l-2.152 2.43v13.469l1.91 2.105h18.117l1.91-2.105V17.41l-1.937-2.325zm15.586 4.805v8.367h-13.379V19.89z"/></g><path fill="#595959" d="M2.242 15.086.09 17.516v13.469L2 33.09h18.117l1.91-2.105V17.41l-1.937-2.325zm15.586 4.805v8.367H4.45V19.89z"/><path fill="#8c8c8c" d="m103.29.406-2.098 2.348v9.906l2.692 2.156 3.308-2.914-1.828-1.43V5.02h10.066l1.535 1.594 2.395-3.886-2.152-2.32zM129.67 23.969h-5.894l-1.317 1.32v5.266l1.371 1.32h2.395l-2.313 6.13.7 1.995 6.296-9.472v-5.211zm-1.8 3.344v1.242h-2.427v-1.242z"/></svg>