<svg viewBox="0 0 143 25" xmlns="http://www.w3.org/2000/svg"><path d="M27.895 21.871c0 .941.086 1.45.34 1.71.258.259.77.345 1.62.345.087.086.087.258.087.425 0 .172 0 .344-.086.43-1.54 0-2.56-.086-2.988-.086-.508 0-1.45 0-2.985.086-.086-.086-.086-.172-.086-.43 0-.254 0-.34.086-.425.855 0 1.37-.172 1.621-.344.258-.258.344-.77.344-1.711v-9.074c0-.938-.086-1.45-.344-1.707-.254-.258-.766-.344-1.62-.344-.087-.086-.087-.172-.087-.43 0-.168 0-.34.086-.425 1.54 0 2.48.085 2.985.086.516 0 1.54 0 2.988-.086.086.085.086.258.086.425 0 .172 0 .344-.086.43-.852 0-1.36.172-1.621.344-.254.254-.34.77-.34 1.707zM26.102 8.266c-.254-.258-.34-.516-.34-.86 0-.34.086-.597.34-.855.258-.258.512-.34.852-.34.344 0 .598.082.855.34.258.258.34.516.34.856 0 .344-.082.602-.34.859-.258.254-.512.34-.855.34-.34 0-.594-.086-.852-.34zM35.316 21.871c0 .941.086 1.45.344 1.71.254.259.77.345 1.62.345.087.086.087.258.087.425 0 .172 0 .344-.086.43-1.54 0-2.56-.086-2.988-.086-.512 0-1.45 0-2.985.086-.086-.086-.086-.172-.086-.43 0-.254 0-.34.086-.425.852 0 1.36-.172 1.621-.344.254-.258.34-.77.34-1.711v-9.074c0-.938-.086-1.45-.34-1.707-.258-.258-.77-.344-1.62-.344-.087-.086-.087-.172-.087-.43 0-.168 0-.34.086-.425 1.54 0 2.47.085 2.985.086.516 0 1.54 0 2.988-.086.086.085.086.258.086.425 0 .172 0 .344-.086.43-.852 0-1.37.172-1.621.344-.258.254-.344.77-.344 1.707v4.023c.684-.086 1.28-.34 1.793-.855l3.758-4.02c.254-.258.34-.43.422-.601.086-.168 0-.254-.082-.34-.172-.086-.258-.086-.34-.172-.086 0-.344-.086-.598-.086-.086-.086-.086-.172-.086-.43 0-.168 0-.34.086-.425 1.45 0 2.3.085 2.559.085 0 0 .766 0 2.219-.085.082.085.082.258.082.425 0 .172 0 .344-.082.43-.855.086-1.54.258-1.961.512-.344.172-.598.43-.942.773l-3.414 3.422c-.512.512-.766.941-.765 1.113 0 .168.085.34.253.598l5.036 5.906c.172.168.34.34.425.426.172.086.344.172.512.258.172.086.344.086.43.172.086.086.254.086.426.086h.253c.086.086.086.254.086.425s0 .344-.086.43c-1.45 0-2.21-.086-2.3-.086-.258 0-.598 0-1.196.086-.086 0-.086-.086-.086-.172-.085-.43-.344-1.03-.851-1.625l-3.586-4.535c-.426-.516-1.11-.855-1.879-.855v4.191zM50.766 21.871c0 .941.086 1.45.34 1.71.254.259.766.345 1.62.345.087.086.087.258.087.425 0 .172 0 .344-.086.43-1.54 0-2.56-.086-2.988-.086-.508 0-1.45 0-2.985.086-.086-.086-.086-.172-.086-.43 0-.254 0-.34.086-.425.852 0 1.36-.172 1.621-.344.254-.258.34-.77.34-1.711v-9.074c0-.938-.086-1.45-.34-1.707-.258-.258-.77-.344-1.62-.344-.087-.086-.087-.172-.087-.43 0-.168 0-.34.086-.425 1.54 0 2.48.085 2.985.086.512 0 1.54 0 2.988-.086.086.085.086.258.086.425 0 .172 0 .344-.086.43-.855 0-1.37.172-1.621.344-.254.254-.34.77-.34 1.707zM48.887 8.266c-.258-.258-.34-.516-.34-.86 0-.34.082-.597.34-.855s.512-.34.852-.34c.344 0 .598.082.855.34.258.258.34.516.34.856 0 .344-.082.602-.34.859-.258.254-.512.34-.855.34-.34 0-.594-.086-.852-.34zM58.102 21.871c0 .941.086 1.45.344 1.71.254.259.766.345 1.62.345.083.086.083.258.083.425 0 .172 0 .344-.082.43-1.54 0-2.56-.086-2.988-.086-.512 0-1.45 0-2.989.086-.082-.086-.082-.172-.082-.43 0-.254 0-.34.082-.425.855 0 1.37-.172 1.621-.344.258-.258.344-.77.344-1.711v-9.074c0-.938-.086-1.45-.344-1.707-.254-.258-.766-.344-1.62-.344 0-.086-.083-.258-.083-.43 0-.168 0-.34.082-.425 1.54 0 2.48.085 2.989.086s1.54 0 2.988-.086c.082.085.082.258.082.425 0 .172 0 .344-.082.43-.855 0-1.37.172-1.621.344-.258.254-.344.77-.344 1.707v4.023c.684-.086 1.28-.34 1.793-.855l3.754-4.02c.258-.258.34-.43.426-.601.086-.168 0-.254-.086-.34-.168-.086-.254-.086-.34-.172-.086 0-.34-.086-.598-.086-.082-.086-.082-.172-.082-.43 0-.168 0-.34.082-.425 1.45 0 2.3.085 2.559.085 0 0 .77 0 2.219-.085.086.085.086.258.086.425 0 .172 0 .344-.086.43-.852.086-1.54.258-1.961.512-.34.172-.598.43-.938.773l-3.414 3.422c-.512.512-.766.941-.765 1.113 0 .168.082.34.253.598l5.036 5.906c.172.168.34.34.425.426.172.086.344.172.512.258.172.086.344.086.43.172.086.086.254.086.422.086h.258c.085.086.085.254.085.425s0 .344-.085.43c-1.45 0-2.22-.086-2.305-.086-.254 0-.594 0-1.192.086-.085 0-.085-.086-.086-.172-.085-.43-.344-1.03-.855-1.625l-3.668-4.535a2.442 2.442 0 0 0-1.879-.855zM71.84 22.898c0 .172 0 .258-.086.426 0 .086 0 .172.172.258.172.085.172.172.258.171.086 0 .168.086.34.086.172 0 .344.086.425.086.086 0 .258 0 .43.086.086.086.086.254.086.426s0 .344-.086.43c-1.11 0-2.13-.086-2.902-.086-.258 0-.941 0-2.047.086-.086-.086-.086-.172-.086-.43 0-.254 0-.34.086-.426.598-.086 1.02-.172 1.363-.343.34-.172.684-.598.938-1.286l5.207-12.234c.34 0 .77-.172 1.28-.43l4.692 13.095c.086.258.172.512.34.683.172.172.344.258.516.344.254.086.426.172.511.172.086 0 .34 0 .68.086.086.086.086.254.086.426s0 .344-.086.43c-1.11 0-2.05-.087-2.644-.087-.852 0-1.88 0-2.985.086-.086-.086-.086-.172-.086-.43 0-.257 0-.34.086-.425h1.024c.172 0 .258 0 .257-.086.082 0 .168 0 .168-.086.086 0 .172-.086.172-.086s.082-.086.082-.172v-.172c0-.086 0-.172-.082-.258l-1.195-4.02h-4.863c-.258 0-.426 0-.598.087-.086.086-.172.172-.258.344zm2.477-4.621h4.093l-2.132-6.246h-.168l-2.305 5.988v.086s0 .086.086.086c0 0 .082 0 .082.086s.086 0 .172 0h.172zM90.273 21.871c0 .941.172 1.45.426 1.71.258.259.855.345 1.793.345.086.086.086.258.086.425 0 .172 0 .344-.086.43-1.54 0-2.56-.086-3.156-.086-.684 0-1.71 0-3.247.086-.082-.086-.082-.172-.082-.43 0-.254 0-.34.082-.425.941 0 1.54-.172 1.793-.344.258-.258.426-.77.426-1.711v-2.91c0-.426 0-.684-.082-.942-.086-.172-.172-.512-.43-.855l-2.984-5.047c-.258-.43-.512-.773-.683-.941a2.59 2.59 0 0 0-.598-.43c-.168-.086-.512-.086-.852-.172-.086-.086-.086-.258-.086-.426 0-.172 0-.344.086-.43.938 0 1.71.086 2.305.087.512 0 1.36 0 2.645-.086.082.085.082.258.082.43 0 .167 0 .34-.082.425-.598 0-1.02.172-1.11.258-.086.086 0 .512.254.941l2.648 4.621c.086.172.168.258.254.258s.172-.086.254-.258l2.563-4.793c.086-.258.172-.426.172-.597s0-.258-.086-.344c-.086-.086-.172-.172-.344-.172-.168 0-.34-.086-.594-.086-.086-.086-.086-.168-.086-.426 0-.172 0-.344.086-.43 1.19 0 1.88.087 2.047.087.34 0 1.02 0 1.879-.086.086.086.086.258.086.43 0 .171 0 .34-.086.425-.516.086-.941.172-1.281.344-.344.172-.598.598-.938 1.113l-2.734 4.875c-.082.258-.168.43-.254.602s-.086.344-.086.511v.602zM109.05 13.055c0-.512 0-.938-.086-1.195-.086-.258-.172-.516-.34-.684-.172-.172-.344-.258-.597-.344-.172-.086-.512-.086-1.024-.172-.086-.085-.086-.172-.086-.425 0-.172 0-.344.086-.43 1.54 0 2.39.086 2.559.086.258 0 1.11 0 2.558-.086.086.086.086.258.086.43 0 .168 0 .34-.086.425-.852.086-1.36.258-1.62.516-.255.254-.34.855-.34 1.793v11.215c0 .512-.169.77-.512.77-.34 0-.684-.172-.938-.602l-8.023-10.098c-.426-.512-.684-.77-.77-.77-.086 0-.168.34-.168 1.114v6.93c0 .516 0 .94.082 1.199.086.258.172.512.344.683s.34.258.598.344c.172.086.512.086 1.023.172.086.086.086.258.086.426 0 .172 0 .344-.086.43-1.54 0-2.39-.086-2.558-.087-.258 0-1.11 0-2.563.086-.082-.085-.082-.172-.082-.43 0-.253 0-.34.082-.425.855-.086 1.37-.258 1.621-.516.258-.254.344-.855.344-1.797v-9.41c-.086-.344-.258-.688-.598-.945-.34-.34-.77-.426-1.195-.512-.086-.086-.086-.172-.086-.43 0-.167 0-.34.086-.425l3.07.086 7.856 10.098c.082.172.254.258.34.43.082.171.254.253.253.34.086.085.172.171.172.257.086.086.086.168.172.168.082 0 .082.086.082.086.086 0 .172-.254.172-.68v-7.62zM115.88 22.898c0 .172 0 .258-.086.426 0 .086 0 .172.172.258.172.085.172.172.254.171.086 0 .172.086.34.086.172 0 .344.086.43.086s.253 0 .425.086c.086.086.086.254.086.426s0 .344-.086.43c-1.11 0-2.13-.086-2.902-.086-.258 0-.938 0-2.047.086-.086-.086-.086-.172-.086-.43 0-.254 0-.34.086-.426.598-.086 1.02-.172 1.367-.343.34-.172.68-.598.938-1.286l5.207-12.234c.336 0 .766-.172 1.277-.43l4.695 13.095c.086.258.168.512.34.683.168.172.34.258.512.344.254.086.426.172.512.172.085 0 .344 0 .683.086.086.086.086.254.086.426s0 .344-.086.43c-1.11 0-2.05-.087-2.644-.087-.855 0-1.88 0-2.989.086-.086-.086-.086-.172-.086-.43 0-.257 0-.34.086-.425h1.024c.172 0 .258 0 .258-.086.085 0 .172 0 .171-.086.082 0 .168-.086.168-.086s.086-.086.086-.172v-.172c0-.086 0-.172-.086-.258l-1.367-3.847h-4.863c-.254 0-.426 0-.598.086-.082.086-.168.172-.254.34zm2.473-4.621h4.097l-2.136-6.246h-.168l-2.305 5.988v.086s0 .086.086.086c0 0 .086 0 .086.086s.082 0 .168 0h.172zM132.68 21.871c0 .941.086 1.45.344 1.71.254.259.766.345 1.62.345.083.086.083.258.083.425 0 .172 0 .344-.082.43-1.54 0-2.56-.086-2.988-.086-.512 0-1.45 0-2.989.086-.082-.086-.082-.172-.082-.43 0-.254 0-.34.082-.425.855 0 1.37-.172 1.621-.344.258-.258.344-.77.344-1.711v-9.074c0-.938-.086-1.45-.344-1.707-.254-.258-.766-.344-1.62-.344-.083-.086-.083-.172-.083-.43 0-.168 0-.34.082-.425 1.54 0 2.48.085 2.989.086.512 0 1.54 0 2.988-.086.082.085.082.258.082.425 0 .172 0 .344-.082.43-.855 0-1.37.172-1.621.344-.258.254-.344.77-.344 1.707v4.023c.684-.086 1.28-.34 1.793-.855l3.754-4.02c.258-.258.34-.43.426-.601.086-.168 0-.254-.086-.34-.168-.086-.254-.086-.34-.172-.082 0-.34-.086-.598-.086-.082-.086-.082-.172-.082-.43 0-.168 0-.34.082-.425 1.45 0 2.3.085 2.563.085 0 0 .766 0 2.215-.085.085.085.085.258.085.425 0 .172 0 .344-.085.43-.852.086-1.54.258-1.957.512-.344.172-.602.43-.942.773l-3.414 3.422c-.512.512-.766.941-.766 1.113 0 .168.082.34.254.598l5.036 5.906.425.426c.172.086.344.172.512.258.172.086.344.086.43.172.082.086.254.086.422.086h.257c.086.086.086.254.086.425s0 .344-.086.43c-1.45 0-2.21-.086-2.3-.086-.258 0-.598 0-1.196.086-.086 0-.086-.086-.086-.172-.086-.43-.344-1.03-.855-1.625l-3.582-4.535c-.426-.516-1.11-.855-1.879-.855v4.191zM17.141 1.418c-.086-.086-.172-.344-.172-.684 0-.344.086-.602.172-.687 2.39.086 3.75.086 4.098.086.172 0 1.28 0 3.328-.086.086.172.172.344.172.687 0 .34-.086.512-.172.684-.512.086-.938.172-1.281.344-.34.168-.68.34-.852.511-.258.172-.426.43-.684.77-.258.344-.34.688-.425.855-.086.172-.258.512-.43 1.028l-7.848 19.172c-.258.598-.512.855-.937.855-.344 0-.684-.258-.856-.855L3.83 4.84C3.23 3.39 2.809 2.45 2.465 2.1c-.34-.34-1.02-.598-2.047-.683C.332 1.246.246 1.074.246.734.246.39.332.218.418.047c2.39.086 3.67.086 3.926.086.68 0 2.22 0 4.606-.086.086.172.172.344.171.687 0 .34-.085.512-.171.684-1.36.172-2.05.426-2.301.77-.258.343-.172 1.11.34 2.222l5.972 15.32h.168l5.977-15.062c.512-1.02.598-1.8.34-2.308-.258-.516-1.02-.855-2.305-.942z"/></svg>