<?xml version="1.0" encoding="UTF-8"?>
<svg width="110px" height="11px" viewBox="0 0 110 11" version="1.1" xmlns="http://www.w3.org/2000/svg" xmlns:xlink="http://www.w3.org/1999/xlink">
    <title>arc-tagline</title>
    <g id="Page-1" stroke="none" stroke-width="1" fill="none" fill-rule="evenodd">
        <path d="M109.810239,3.77884014 C109.810239,4.10209422 109.678568,4.44970253 109.415253,4.82167627 C109.151919,5.19367244 108.756933,5.59771482 108.230293,6.03383704 C107.411512,6.71110195 106.302671,7.05743199 104.903766,7.07282718 C104.998394,7.14465644 105.190744,7.31396986 105.480817,7.58076745 C105.77088,7.84757625 106.160723,8.21442574 106.650347,8.68132713 C106.6956,8.72237722 106.755259,8.75958132 106.829326,8.79292822 C106.903379,8.82627511 106.993897,8.86347922 107.100878,8.9045181 C107.33951,8.96608764 107.487629,9.02765717 107.545239,9.08922671 C107.672779,9.23289644 107.736553,9.43812449 107.73656,9.70492208 C107.736553,9.95633569 107.648092,10.161575 107.471179,10.3206287 C107.302479,10.4591517 107.113216,10.5284244 106.903386,10.5284244 C106.401418,10.5284244 105.835683,9.99738579 105.206178,8.93530847 C104.885247,8.37604718 104.506719,7.92966523 104.070592,7.59616264 C103.704404,7.30884561 103.39582,7.16517588 103.144842,7.16517588 C102.955575,7.16517588 102.821856,7.19339852 102.743684,7.24983259 C102.583219,7.35245222 102.502988,7.59873037 102.502989,7.98866703 L102.502989,8.88913412 L102.515333,9.79728199 C102.51533,10.2385285 102.439213,10.4591517 102.286981,10.4591517 C102.0648,10.4591517 101.846734,9.95121144 101.632785,8.93530847 C101.538152,8.49918625 101.468207,8.11694157 101.422948,7.78857445 C101.377689,7.46019611 101.35506,7.18057107 101.35506,6.94968811 C101.35506,6.61105005 101.459977,6.34168472 101.669815,6.14158093 C101.859078,5.94148834 102.089487,5.84143644 102.361041,5.84142523 C102.542074,5.84143644 102.817742,5.85682042 103.188045,5.88761079 C103.373191,5.90813023 103.532625,5.92224716 103.666348,5.92993915 C103.800064,5.93763113 103.914239,5.94148834 104.008876,5.94147713 C105.531214,5.94148834 106.642113,5.60541802 107.341573,4.93327736 C107.423856,4.86144811 107.72421,4.45611626 108.242637,3.7172706 C108.621157,3.15802051 108.946198,2.87838426 109.217759,2.87838426 C109.612736,2.87838426 109.810239,3.17853996 109.810239,3.77884014 L109.810239,3.77884014 Z M99.8466132,9.26624333 C99.8466132,9.722885 99.7005465,10.0333004 99.4084247,10.1974896 C99.2273859,10.2898383 98.9188032,10.3360126 98.4826747,10.3360126 L95.8658896,10.3360126 L95.8658896,9.26624333 L97.8161351,9.26624333 C98.0341989,9.26624333 98.1432317,9.21750125 98.1432335,9.12001708 C97.8387635,8.49918625 97.6865295,8.11694157 97.6865304,7.97328306 C97.6865295,7.51150593 97.9025368,7.28062297 98.3345552,7.28062297 C98.7048531,7.28062297 99.0504652,7.49612195 99.3713944,7.9270975 C99.6882036,8.35296 99.8466132,8.79934195 99.8466132,9.26624333 L99.8466132,9.26624333 Z M91.8949418,10.3360126 L91.8949418,9.26624333 L93.6415228,9.26624333 C93.8307854,9.26624333 93.9439328,9.25084815 93.9809649,9.22006898 C94.0673657,9.16875917 94.1105679,9.04562009 94.1105697,8.85065176 C94.1105679,8.70185778 94.069423,8.50175398 93.9871359,8.25034037 C93.904846,7.99893797 93.7855268,7.69750401 93.6291799,7.3460385 C93.4728295,6.9945842 93.3555684,6.70982369 93.277395,6.49175697 C93.1992198,6.27370146 93.1601321,6.11592602 93.160133,6.01844185 C93.1601321,5.89530278 93.1776191,5.77857743 93.2125921,5.66826581 C93.2475643,5.55795419 93.2938515,5.46303776 93.3514547,5.3835053 C93.4090562,5.30398406 93.4779727,5.23984679 93.5582052,5.19109349 C93.6384359,5.14236262 93.7258681,5.11798597 93.8205016,5.11798597 C94.2772021,5.11798597 94.6392726,5.70033445 94.906714,6.86502018 C94.9272833,6.96763981 94.9684282,7.2164857 95.0301469,7.61155782 C95.0918611,8.00662995 95.1762074,8.55818805 95.2831855,9.26624333 L95.7522315,9.26624333 L95.7522315,10.3360126 L91.8949418,10.3360126 Z M87.4302677,10.3360126 C86.7020085,10.3360126 86.070442,10.1153894 85.5355672,9.67414292 C85.3504156,9.93581625 85.1899524,10.1102651 85.0541775,10.1974896 C84.9060562,10.2898383 84.6962198,10.3360126 84.4246674,10.3360126 L83.2582234,10.3360126 L83.2582234,9.26624333 L84.4246674,9.26624333 C84.5974734,9.26624333 84.7620504,9.18158662 84.9184008,9.0122732 C84.5563285,8.4530119 84.3752933,7.79114218 84.3752942,7.02664162 C84.3752933,6.39042681 84.5563285,5.8799188 84.9184008,5.49509518 C85.2598975,5.13081343 85.6857422,4.94867255 86.1959349,4.94867255 C86.4057686,4.94867255 86.6084045,4.98972265 86.8038435,5.07181162 C86.9992762,5.1539006 87.1782541,5.27062595 87.3407783,5.42198767 C87.5032952,5.57334938 87.6452428,5.75292252 87.766623,5.96071831 C87.887995,6.16852531 87.9795417,6.39813001 88.0412622,6.64953241 C88.6460804,5.89017853 89.2262164,5.51049037 89.7816713,5.51049037 C90.2260244,5.51049037 90.5880949,5.70033445 90.8678846,6.08001139 C91.1394298,6.4648238 91.2752065,6.93172519 91.2752137,7.48072676 C91.2752065,8.11694157 91.0468554,8.7121175 90.5901594,9.26624333 L91.78129,9.26624333 L91.78129,10.3360126 L87.4302677,10.3360126 Z M90.324778,7.51150593 C90.324778,6.89581056 90.0676185,6.58796287 89.5533202,6.58796287 C89.21593,6.58796287 88.9299765,6.81372158 88.6954589,7.26522778 C88.4691597,7.65517565 88.3560168,8.07333496 88.3560168,8.51970569 L88.3560168,9.26624333 L88.7201455,9.26624333 C88.9176337,9.26624333 89.1048399,9.22263672 89.2817669,9.13541227 C89.4586822,9.04818783 89.6294309,8.92248102 89.7940151,8.75829185 C90.1478501,8.39913435 90.324778,7.98354278 90.324778,7.51150593 L90.324778,7.51150593 Z M87.4796409,8.51970569 C87.4796409,8.19647403 87.4600939,7.90016433 87.4210099,7.63079901 C87.3819196,7.36143368 87.3212313,7.11900153 87.238946,6.90350254 C87.029106,6.32373302 86.6896648,6.03383704 86.2206215,6.03383704 C85.6199107,6.03383704 85.3195589,6.43404464 85.3195589,7.2344374 C85.3195589,7.75778407 85.5129352,8.22982093 85.899695,8.65054796 C86.2741065,9.06101528 86.6752647,9.26624333 87.1031693,9.26624333 L87.4796409,9.26624333 L87.4796409,8.51970569 Z M76.9420447,10.3360126 L76.9420447,9.26624333 L78.4479308,9.26624333 C78.3532981,8.97379084 78.2833521,8.69415458 78.2380944,8.42735699 C78.1928349,8.1605594 78.1702056,7.90914579 78.1702056,7.67312736 C78.1702056,7.04203681 78.2812948,6.58668461 78.5034758,6.30704836 C78.7256542,6.02742331 79.0856674,5.88761079 79.5835172,5.88761079 L81.1264328,5.88761079 C81.6859923,5.88761079 82.0748067,6.30320236 82.2928777,7.13439672 C82.4039623,7.62695301 82.4656784,8.33756481 82.4780275,9.26624333 L83.1383952,9.26624333 L83.1383952,10.3360126 L76.9420447,10.3360126 Z M81.4967324,7.94249268 C81.3774096,7.29088269 81.173745,6.96507208 80.8857379,6.96507208 L79.6760917,6.96507208 C79.3222477,6.96507208 79.1453288,7.20109051 79.1453288,7.67312736 C79.1453288,7.80652616 79.1679563,8.00535169 79.2132176,8.26958155 C79.2584744,8.53382262 79.3284195,8.86604695 79.423054,9.26624333 L81.5831359,9.26624333 L81.4967324,7.94249268 Z M76.5012972,10.3360126 C76.2914572,10.3360126 76.051791,10.3116472 75.7822985,10.2629051 C75.5127989,10.214163 75.2052448,10.1384766 74.8596344,10.0358682 C74.4235015,10.1384766 74.0552591,10.214163 73.7549064,10.2629051 C73.454552,10.3116472 73.2241426,10.3360126 73.0636803,10.3360126 L72.2551922,10.3360126 L72.2551922,9.26624333 L73.5697566,9.26624333 C73.7878213,9.26624333 73.9956004,9.20724153 74.1930949,9.08922671 C74.4276161,8.95582792 74.544878,8.76085958 74.5448798,8.50432172 C74.544878,7.79114218 74.2794966,6.53665306 73.7487346,4.74086555 C73.4895241,3.83271769 73.2940887,3.05540088 73.1624266,2.40891514 C73.0307646,1.76244061 72.9649331,1.23140195 72.964934,0.815799167 C72.9649331,0.271944268 73.1377401,-1.77635684e-15 73.4833531,-1.77635684e-15 C73.9153688,-1.77635684e-15 74.2280661,0.623409782 74.421446,1.87018449 C74.5736792,2.86043255 74.7187128,3.8660758 74.8565485,4.8870918 C74.9943798,5.90813023 75.1229559,6.96251556 75.2422778,8.05023657 C75.2628471,8.24008065 75.2937056,8.40299156 75.3348523,8.53894687 C75.3759945,8.67492461 75.4253677,8.78651449 75.4829727,8.87373894 C75.6557761,9.13541227 76.1021928,9.26624333 76.8222237,9.26624333 L76.8222237,10.3360126 L76.5012972,10.3360126 Z M71.3639018,10.3360126 C70.9401081,10.3360126 70.6315253,9.97942287 70.4381517,9.26624333 C70.3928878,9.07639926 70.3291145,8.81344766 70.24683,8.47737733 C70.1645366,8.14131822 70.0596184,7.73212917 69.9320754,7.24983259 C69.7469211,6.5315288 69.4486248,6.1723713 69.0371847,6.17236009 C68.5845926,6.1723713 68.1752062,6.33656047 67.8090229,6.6649276 C67.3975775,7.0240851 67.1918547,7.4755913 67.1918574,8.01945741 C67.1918547,8.85065176 67.5539261,9.26624333 68.2780698,9.26624333 C68.545505,9.26624333 68.8273447,9.20724153 69.1235873,9.08922671 C69.2058727,9.28420625 69.2768465,9.45736567 69.3365097,9.60872739 C69.3961657,9.7600891 69.4486248,9.89219842 69.4938879,10.0050778 C69.4938834,10.1230926 69.3169627,10.2128736 68.9631241,10.2744431 C68.8314584,10.300098 68.7111114,10.3167715 68.6020822,10.3244747 C68.4930459,10.3321666 68.3932709,10.3360126 68.3027564,10.3360126 C67.6979311,10.3360126 67.2144849,10.1564395 66.8524153,9.79728199 C66.4450845,9.40734533 66.2414208,8.8455163 66.2414208,8.11180611 C66.2414208,7.5012462 66.4574282,6.90351376 66.8894457,6.31859755 C67.4572362,5.50793385 68.2533805,5.10259079 69.2778796,5.10259079 C69.788066,5.10259079 70.1748231,5.35913987 70.4381517,5.8722156 C70.5204362,6.01588533 70.5996382,6.21726739 70.6757607,6.47636178 C70.7518732,6.73547859 70.8290189,7.05486426 70.9071986,7.4345412 C70.9894813,7.80396964 71.0697129,8.11566331 71.1478935,8.36963345 C71.2260615,8.6236148 71.3062932,8.81729365 71.3885884,8.95070366 C71.4791001,9.10975736 71.5922466,9.2046738 71.7280296,9.23545296 C71.760939,9.24572389 71.8123695,9.25341588 71.8823209,9.25855135 C71.9522598,9.2636756 72.0407206,9.26624333 72.1477033,9.26624333 L72.1477033,10.3360126 L71.3639018,10.3360126 Z M64.8193774,9.70492208 C64.8193774,10.1256491 64.6671379,10.3360126 64.3626742,10.3360126 L58.6600572,10.3360126 L58.6600572,9.26624333 L63.2888047,9.26624333 C63.5768118,9.26624333 63.7208168,9.22776097 63.7208212,9.15079625 C63.7208168,9.00200226 63.6179558,8.69929005 63.4122385,8.24264838 C63.3176023,8.02716061 63.233256,7.84500852 63.1591999,7.69621454 C63.0851356,7.54742055 63.0193051,7.42941695 62.9617072,7.3421925 C62.6613491,7.64490472 62.3877385,7.87066343 62.1408754,8.01945741 C61.894006,8.16825139 61.6656548,8.24264838 61.4558211,8.24264838 C61.2336392,8.24264838 61.0330597,8.20288776 60.8540835,8.1233553 C60.6751037,8.04383406 60.5136119,7.92454098 60.3696078,7.76547606 C60.0651388,7.43198468 59.9129038,7.00099792 59.9129047,6.47251579 C59.9129038,5.87735107 60.0774816,5.38991903 60.4066382,5.01024209 C60.7399066,4.64082487 61.149293,4.45610504 61.6347991,4.45610504 C62.2766494,4.45610504 62.9411307,5.13851663 63.6282468,6.50330616 C63.7311032,6.70340996 63.8421924,6.93557118 63.9615161,7.19981225 C64.08083,7.46405332 64.2063202,7.76291954 64.3379876,8.09642213 C64.4943309,8.5120137 64.6136501,8.85193002 64.6959445,9.11617109 C64.7782271,9.38040095 64.8193774,9.57665875 64.8193774,9.70492208 L64.8193774,9.70492208 Z M62.5543772,6.48791097 C62.2787057,5.8465607 61.9330936,5.52588556 61.5175371,5.52588556 C61.3076989,5.52588556 61.1348919,5.61054227 60.999118,5.77985569 C60.8633395,5.94918033 60.7954525,6.1646681 60.7954525,6.42634144 C60.7954525,6.53409654 60.8129377,6.63285896 60.8479116,6.72263993 C60.8828829,6.81243211 60.9312274,6.88939683 60.9929461,6.9535341 C61.0546612,7.01767137 61.125635,7.06898119 61.2058684,7.10745234 C61.2860983,7.1459347 61.3694149,7.16517588 61.4558211,7.16517588 C61.6286245,7.16517588 61.8055461,7.11002007 61.986584,6.99970845 C62.1676166,6.88939683 62.3568801,6.71880515 62.5543772,6.48791097 L62.5543772,6.48791097 Z M58.2933668,10.3360126 C58.2193025,10.6951701 58.0423819,10.8747545 57.7626039,10.8747545 C57.4169872,10.8747545 57.1804069,10.6361683 57.0528621,10.1590072 C57.0322874,10.0717828 57.0075999,9.89990162 56.9788024,9.64335254 C56.9499985,9.38681467 56.9170828,9.04048463 56.8800551,8.60437361 C56.8471376,8.25547583 56.804964,7.95532014 56.7535363,7.70390652 C56.7021031,7.45250412 56.6373012,7.25240032 56.5591286,7.10360634 C56.4603796,6.90351376 56.1538542,6.72649713 55.6395514,6.57256768 C55.2157624,6.4237737 55.0038698,6.1646681 55.0038698,5.79525088 C55.0038698,5.56436792 55.1026154,5.37452384 55.3001096,5.22572986 C55.4688004,5.11286172 55.6580643,5.05641644 55.8679025,5.05641644 C56.1435686,5.05641644 56.7113609,5.07181162 57.5712822,5.10259079 C57.6247663,5.25138477 57.6731109,5.41557394 57.7163157,5.59514708 C57.7595143,5.77473144 57.8037443,5.96713204 57.8490065,6.17236009 C57.83666,6.20315046 57.787286,6.28780718 57.700887,6.42634144 C57.6720822,6.46739153 57.6515102,6.51356588 57.6391701,6.5648757 C57.6268236,6.61618551 57.6206518,6.67005185 57.6206553,6.72649713 C57.6206518,6.84963621 57.7132262,7.24983259 57.8983796,7.9270975 C58.1370136,8.76855157 58.256332,9.21493352 58.2563365,9.26624333 L58.5587482,9.26624333 L58.5587482,10.3360126 L58.2933668,10.3360126 Z M56.2690606,9.91272908 C56.2690606,10.0102132 56.2536291,10.1025619 56.2227734,10.1897864 C56.1919131,10.2770108 56.1497396,10.3539756 56.0962545,10.4206806 C56.042765,10.4873744 55.9810481,10.5399624 55.9111047,10.5784448 C55.8411568,10.6169272 55.7670971,10.6361683 55.6889245,10.6361683 C55.6107484,10.6361683 55.5366887,10.6169272 55.4667446,10.5784448 C55.3967978,10.5399624 55.3350812,10.4873744 55.2815947,10.4206806 C55.2281058,10.3539756 55.1859328,10.2770108 55.1550755,10.1897864 C55.1242163,10.1025619 55.1087881,10.0102132 55.1087881,9.91272908 C55.1087881,9.81524491 55.1242163,9.72160674 55.1550755,9.63181456 C55.1859328,9.54202238 55.2281058,9.4637794 55.2815947,9.39707439 C55.3350812,9.3303806 55.3967978,9.27779253 55.4667446,9.23931016 C55.5366887,9.2008278 55.6107484,9.18158662 55.6889245,9.18158662 C55.7670971,9.18158662 55.8411568,9.2008278 55.9111047,9.23931016 C55.9810481,9.27779253 56.042765,9.3303806 56.0962545,9.39707439 C56.1497396,9.4637794 56.1919131,9.54202238 56.2227734,9.63181456 C56.2536291,9.72160674 56.2690606,9.81524491 56.2690606,9.91272908 L56.2690606,9.91272908 Z M53.5633005,9.26624333 C53.5633005,9.722885 53.4172344,10.0333004 53.1251124,10.1974896 C52.9440741,10.2898383 52.6354912,10.3360126 52.1993629,10.3360126 L49.5825775,10.3360126 L49.5825775,9.26624333 L51.5328232,9.26624333 C51.750887,9.26624333 51.8599196,9.21750125 51.8599214,9.12001708 C51.5554512,8.49918625 51.4032169,8.11694157 51.4032183,7.97328306 C51.4032169,7.51150593 51.6192249,7.28062297 52.051243,7.28062297 C52.4215404,7.28062297 52.7671532,7.49612195 53.0880825,7.9270975 C53.4048912,8.35296 53.5633005,8.79934195 53.5633005,9.26624333 L53.5633005,9.26624333 Z M50.0552344,3.77884014 C50.0552344,4.10209422 49.923563,4.44970253 49.660248,4.82167627 C49.3969149,5.19367244 49.0019288,5.59771482 48.4752885,6.03383704 C47.6482786,6.71110195 46.5764675,7.05743199 45.2598518,7.07282718 C45.3750515,7.15491616 45.510828,7.26651725 45.6671816,7.40760803 C45.8235253,7.54871003 46.0004461,7.72700491 46.1979447,7.94249268 C46.6176118,8.3940101 46.9282519,8.69159806 47.1298658,8.83525658 C47.3150091,8.97891509 47.4929586,9.08667019 47.6637148,9.15849945 C47.834457,9.2303287 48.0062348,9.26624333 48.1790487,9.26624333 L49.4689263,9.26624333 L49.4689263,10.3360126 C49.1150758,10.3360126 48.5843133,10.3821982 47.8766371,10.4745469 C47.5269027,10.5309922 47.2214057,10.5720311 46.9601451,10.597686 C46.698872,10.6233409 46.4777209,10.6361683 46.2966913,10.6361683 C46.1609092,10.6361683 45.9963317,10.4001499 45.8029582,9.92811305 C45.7700376,9.84089982 45.7237501,9.72160674 45.6640958,9.57024502 C45.6044314,9.41888331 45.5334573,9.23289644 45.4511734,9.0122732 C45.3359643,8.70442551 45.1899017,8.42992472 45.0129852,8.18877083 C44.83606,7.94762815 44.6241665,7.74495662 44.3773039,7.58076745 C44.1921505,7.44736866 44.0152296,7.34476024 43.8465408,7.27291977 C43.6778457,7.20109051 43.5214971,7.16517588 43.3774944,7.16517588 C43.1841131,7.16517588 43.0545083,7.19339852 42.9886796,7.24983259 C42.8282142,7.35245222 42.7479826,7.59873037 42.7479847,7.98866703 L42.7479847,8.88913412 L42.760328,9.79728199 C42.7603259,10.2385285 42.6842089,10.4591517 42.5319765,10.4591517 C42.3056805,10.4591517 42.0876153,9.95121144 41.8777802,8.93530847 C41.6885148,8.07333496 41.5938836,7.41145403 41.5938836,6.94968811 C41.5938836,6.62130977 41.6967437,6.35194445 41.9024668,6.14158093 C42.0876153,5.94148834 42.3180238,5.84143644 42.5936932,5.84142523 C42.7747265,5.84143644 43.0483367,5.85682042 43.4145244,5.88761079 C43.5996714,5.90813023 43.7621917,5.92224716 43.9020858,5.92993915 C44.0419735,5.93763113 44.159235,5.94148834 44.2538706,5.94147713 C45.7762092,5.94148834 46.8871076,5.60541802 47.586569,4.93327736 C47.6194775,4.89736273 47.7110238,4.77806965 47.861208,4.57539812 C48.0113778,4.3727378 48.2160711,4.08669903 48.4752885,3.7172706 C48.8661524,3.15802051 49.1932502,2.87838426 49.4565831,2.87838426 C49.8556748,2.87838426 50.0552344,3.17853996 50.0552344,3.77884014 L50.0552344,3.77884014 Z M36.99704,8.35039227 C36.99704,8.6531157 36.9600033,8.92761649 36.8859499,9.17388342 C36.8118838,9.42017278 36.7049083,9.62924683 36.5650234,9.80112798 C36.4251268,9.97300914 36.2554057,10.1051297 36.0558611,10.1974896 C35.8563058,10.2898383 35.6310397,10.3360126 35.3800638,10.3360126 C35.0591328,10.3360126 34.7618651,10.284714 34.4882581,10.1820944 C34.2146448,10.0794748 33.9605785,9.92555653 33.7260582,9.72031727 C33.6561094,9.89476616 33.5913075,10.0409924 33.5316505,10.1590072 C33.4719882,10.2770108 33.4133581,10.366803 33.3557585,10.4283725 C33.191178,10.6079457 32.9854562,10.6977379 32.7385921,10.6977379 C32.5945845,10.6977379 32.3847481,10.6361683 32.109082,10.5130293 C31.8251849,10.3950257 31.6132912,10.3360126 31.4734009,10.3360126 L30.4612482,10.3360126 L30.4612482,9.26624333 L31.4734009,9.26624333 C31.5392315,9.26624333 31.6194631,9.27779253 31.7140957,9.3008797 C31.8087266,9.32396688 31.921874,9.3637275 32.0535369,9.42017278 C32.1851981,9.47660685 32.2993732,9.51765695 32.3960641,9.54331186 C32.4927522,9.56896676 32.5698979,9.58179422 32.627502,9.581783 C32.8867098,9.58179422 33.0163146,9.43812449 33.0163164,9.15079625 C33.0163146,9.11488162 32.8393939,8.80703393 32.4855535,8.22725319 C32.1317104,7.63721273 31.9547897,7.21136144 31.9547906,6.94968811 C31.9547897,6.71880515 32.0154771,6.5315288 32.1368545,6.38785907 C32.2582292,6.24420056 32.411492,6.17236009 32.5966436,6.17236009 C33.0615732,6.17236009 33.3989571,6.44173662 33.6087962,6.98046727 C33.6622813,7.11387728 33.7353124,7.30243188 33.8278904,7.54614229 C33.9204622,7.78985271 34.0325809,8.0938544 34.1642457,8.45813615 C34.4152234,8.99687801 34.7875804,9.26624333 35.2813174,9.26624333 C35.6351543,9.26624333 35.8120749,9.12258482 35.8120803,8.83525658 C35.8120749,8.76855157 35.6968712,8.50688945 35.4664673,8.05023657 C35.3594873,7.81935361 35.278227,7.62567475 35.2226865,7.46917757 C35.1671369,7.3126916 35.1393644,7.18570653 35.1393689,7.08821115 C35.1393644,6.49817069 35.3512581,6.20315046 35.77505,6.20315046 C36.1535734,6.20315046 36.4642135,6.45199634 36.7069719,6.94968811 C36.9003446,7.36015542 36.99704,7.82705681 36.99704,8.35039227 L36.99704,8.35039227 Z M30.9338999,3.77884014 C30.9338999,4.10209422 30.8022279,4.44970253 30.5389128,4.82167627 C30.2755805,5.19367244 29.8805943,5.59771482 29.353954,6.03383704 C28.526944,6.71110195 27.4551327,7.05743199 26.1385173,7.07282718 C26.2537165,7.15491616 26.3894932,7.26651725 26.5458473,7.40760803 C26.7021905,7.54871003 26.8791112,7.72700491 27.0766102,7.94249268 C27.4962767,8.3940101 27.8069176,8.69159806 28.0085312,8.83525658 C28.1936747,8.97891509 28.371624,9.08667019 28.54238,9.15849945 C28.7131225,9.2303287 28.8848999,9.26624333 29.0577141,9.26624333 L30.347592,9.26624333 L30.347592,10.3360126 C29.9937407,10.3360126 29.4629787,10.3821982 28.7553024,10.4745469 C28.4055675,10.5309922 28.1000707,10.5720311 27.8388101,10.597686 C27.577537,10.6233409 27.3563863,10.6361683 27.1753565,10.6361683 C27.0395744,10.6361683 26.8749966,10.4001499 26.681623,9.92811305 C26.6487028,9.84089982 26.6024155,9.72160674 26.5427613,9.57024502 C26.4830963,9.41888331 26.4121225,9.23289644 26.329839,9.0122732 C26.2146298,8.70442551 26.0685667,8.42992472 25.8916505,8.18877083 C25.7147254,7.94762815 25.5028317,7.74495662 25.2559694,7.58076745 C25.070816,7.44736866 24.8938944,7.34476024 24.7252056,7.27291977 C24.5565105,7.20109051 24.4001619,7.16517588 24.2561596,7.16517588 C24.062778,7.16517588 23.9331732,7.19339852 23.8673453,7.24983259 C23.7068793,7.35245222 23.6266477,7.59873037 23.6266504,7.98866703 L23.6266504,8.88913412 L23.6389933,9.79728199 C23.6389915,10.2385285 23.5628744,10.4591517 23.4106421,10.4591517 C23.1843456,10.4591517 22.9662809,9.95121144 22.7564454,8.93530847 C22.5671801,8.07333496 22.4725492,7.41145403 22.4725492,6.94968811 C22.4725492,6.62130977 22.5754093,6.35194445 22.781132,6.14158093 C22.9662809,5.94148834 23.1966893,5.84143644 23.4723581,5.84142523 C23.6533916,5.84143644 23.9270022,5.85682042 24.29319,5.88761079 C24.4783362,5.90813023 24.6408567,5.92224716 24.7807507,5.92993915 C24.9206383,5.93763113 25.0379003,5.94148834 25.1325356,5.94147713 C26.6548747,5.94148834 27.7657727,5.60541802 28.4652343,4.93327736 C28.4981429,4.89736273 28.5896887,4.77806965 28.7398736,4.57539812 C28.8900432,4.3727378 29.0947364,4.08669903 29.353954,3.7172706 C29.7448176,3.15802051 30.0719151,2.87838426 30.3352482,2.87838426 C30.73434,2.87838426 30.9338999,3.17853996 30.9338999,3.77884014 L30.9338999,3.77884014 Z M19.7729672,3.24010949 C19.7729672,3.34272913 19.7575349,3.43764556 19.7266791,3.52487 C19.6958179,3.61209445 19.6536453,3.68905917 19.6001602,3.75575296 C19.5466698,3.82245797 19.4849538,3.87505726 19.4150104,3.91352841 C19.3450625,3.95201077 19.2710028,3.97125195 19.1928303,3.97125195 C19.1146541,3.97125195 19.0405944,3.95201077 18.970651,3.91352841 C18.9007031,3.87505726 18.8389862,3.82245797 18.7855012,3.75575296 C18.7320107,3.68905917 18.6898381,3.61209445 18.6589814,3.52487 C18.6281212,3.43764556 18.6126942,3.34272913 18.6126942,3.24010949 C18.6126942,3.14262533 18.6281212,3.05027663 18.6589814,2.96304097 C18.6898381,2.87582774 18.7320107,2.79886301 18.7855012,2.73215801 C18.8389862,2.66546422 18.9007031,2.61287614 18.970651,2.57438257 C19.0405944,2.53591142 19.1146541,2.51665902 19.1928303,2.51665902 C19.2710028,2.51665902 19.3450625,2.53591142 19.4150104,2.57438257 C19.4849538,2.61287614 19.5466698,2.66546422 19.6001602,2.73215801 C19.6536453,2.79886301 19.6958179,2.87582774 19.7266791,2.96304097 C19.7575349,3.05027663 19.7729672,3.14262533 19.7729672,3.24010949 L19.7729672,3.24010949 Z M21.0258147,9.7818868 C21.0258147,10.5104615 20.8365467,10.8747545 20.4580215,10.8747545 C20.100062,10.8747545 19.8634817,10.6361683 19.7482806,10.1590072 C19.727705,10.0717828 19.7030185,9.89990162 19.67422,9.64335254 C19.6454161,9.38681467 19.6125013,9.04562009 19.5754737,8.61975759 C19.5425552,8.26573556 19.5003826,7.96173386 19.4489548,7.70776373 C19.3975217,7.45378238 19.3327188,7.25240032 19.2545472,7.10360634 C19.1557981,6.90351376 18.8492727,6.72649713 18.334969,6.57256768 C17.9111807,6.4237737 17.6992879,6.1646681 17.6992879,5.79525088 C17.6992879,5.56436792 17.7980333,5.37452384 17.9955278,5.22572986 C18.1642184,5.11286172 18.3534828,5.05641644 18.563321,5.05641644 C18.8389862,5.05641644 19.4067795,5.07181162 20.2666998,5.10259079 C20.320184,5.25138477 20.3685294,5.41557394 20.4117343,5.59514708 C20.454932,5.77473144 20.4991628,5.96713204 20.544425,6.17236009 C20.5320777,6.20315046 20.4827045,6.28780718 20.3963046,6.42634144 C20.3675007,6.46739153 20.3469278,6.51356588 20.3345886,6.5648757 C20.3222412,6.61618551 20.3160703,6.67005185 20.316073,6.72649713 C20.3160703,6.99843019 20.4353886,7.50381394 20.6740298,8.24264838 C20.7933445,8.60694135 20.8818053,8.91734555 20.9394112,9.17388342 C20.9970091,9.4304325 21.0258147,9.63309282 21.0258147,9.7818868 L21.0258147,9.7818868 Z M16.2648971,9.85115954 C16.2648971,10.3950257 16.0488825,10.6669587 15.6168732,10.6669587 C15.2630246,10.6669587 15.0490737,10.3514078 14.9750202,9.72031727 C14.9256407,9.33550486 14.7816349,8.70954977 14.5430036,7.84244078 C14.2755595,6.87785885 14.0904097,6.39556227 13.9875532,6.39555106 C13.9422902,6.39556227 13.8322287,6.44687209 13.6573699,6.54948051 C13.4825011,6.65210014 13.2428349,6.81115385 12.9383712,7.02664162 C13.3786115,8.26316782 13.5987344,9.07639926 13.5987389,9.46634713 C13.5987344,10.1487475 13.0453422,10.4899421 11.9385614,10.4899421 C11.6217468,10.4899421 11.3522508,10.4783929 11.1300733,10.4553057 C10.9078914,10.4322185 10.7309707,10.3924579 10.5993104,10.3360126 C10.1096906,10.1461798 9.86488207,9.74597217 9.86488207,9.13541227 C9.86488207,8.59667041 10.0932332,8.08359468 10.5499372,7.59616264 C10.6445672,7.4832945 10.7926876,7.33705704 10.9942966,7.15748389 C11.1959021,6.97791075 11.4530544,6.7649795 11.7657544,6.51869014 C11.6958065,6.21085366 11.5908883,5.84143644 11.4509998,5.41043847 C11.3111068,4.97945171 11.1321288,4.48177116 10.914065,3.9173744 C10.9017195,3.87120005 10.7474281,3.59926699 10.45119,3.10157523 C10.1960941,2.67572394 10.0685466,2.38070371 10.0685475,2.21651454 C10.0685466,1.73422918 10.2495819,1.49306407 10.6116533,1.49306407 C10.8544036,1.49306407 11.0909839,1.73935343 11.321395,2.23189852 C11.3666518,2.33452936 11.4263105,2.4884476 11.500373,2.69367565 C11.5744309,2.89891491 11.6587762,3.15545278 11.7534116,3.46330047 C11.7904383,3.59157501 11.8788991,3.8622298 12.018793,4.27525364 C12.1586807,4.68828869 12.3520597,5.2539525 12.5989291,5.9722675 C13.3312956,5.43353686 13.8497148,5.16417154 14.1541884,5.16416032 C14.4668803,5.16417154 14.7199189,5.36939959 14.9133033,5.77985569 C14.9585565,5.86709135 15.0120433,6.01973133 15.0737665,6.23778683 C15.1354771,6.45584234 15.2074796,6.73932459 15.2897748,7.08821115 C15.3844003,7.49355422 15.4893185,7.85783597 15.6045294,8.18107884 C15.7197269,8.50432172 15.8431607,8.79677421 15.9748291,9.05844755 C16.0694545,9.24829163 16.141457,9.40990185 16.1908374,9.54331186 C16.2402033,9.67671065 16.2648971,9.77933028 16.2648971,9.85115954 L16.2648971,9.85115954 Z M12.6359594,9.26624333 C12.6359594,8.98918602 12.4590352,8.41709727 12.1051965,7.54998829 L11.3460816,8.15799167 C11.0333816,8.42478926 10.8770356,8.72494496 10.8770356,9.05844755 C10.8770356,9.29959023 11.2061886,9.42017278 11.8645016,9.42017278 C12.3788035,9.42017278 12.6359594,9.36886297 12.6359594,9.26624333 L12.6359594,9.26624333 Z M8.45517878,3.77884014 C8.45517878,4.10209422 8.3235077,4.44970253 8.06019254,4.82167627 C7.79685938,5.19367244 7.40187314,5.59771482 6.87523292,6.03383704 C6.05645208,6.71110195 4.9476113,7.05743199 3.54870698,7.07282718 C3.64333424,7.14465644 3.83568369,7.31396986 4.12575712,7.58076745 C4.41581976,7.84757625 4.80566277,8.21442574 5.29528706,8.68132713 C5.34054025,8.72237722 5.40019897,8.75958132 5.47426592,8.79292822 C5.54831937,8.82627511 5.63883655,8.86347922 5.74581834,8.9045181 C5.98444962,8.96608764 6.13256912,9.02765717 6.19017864,9.08922671 C6.31771895,9.23289644 6.38149315,9.43812449 6.38150034,9.70492208 C6.38149315,9.95633569 6.29303237,10.161575 6.11611889,10.3206287 C5.94741929,10.4591517 5.75815578,10.5284244 5.54832567,10.5284244 C5.04635764,10.5284244 4.4806226,9.99738579 3.85111786,8.93530847 C3.53018688,8.37604718 3.15165896,7.92966523 2.71553231,7.59616264 C2.34934364,7.30884561 2.04075999,7.16517588 1.78978227,7.16517588 C1.60051516,7.16517588 1.46679669,7.19339852 1.38862416,7.24983259 C1.22815912,7.35245222 1.14792749,7.59873037 1.14792929,7.98866703 L1.14792929,8.88913412 L1.16027303,9.79728199 C1.16027034,10.2385285 1.0841533,10.4591517 0.931921011,10.4591517 C0.709739958,10.4591517 0.491674386,9.95121144 0.277725192,8.93530847 C0.183091639,8.49918625 0.113146468,8.11694157 0.0678878806,7.78857445 C0.0226283944,7.46019611 0,7.18057107 0,6.94968811 C0,6.61105005 0.104917307,6.34168472 0.314754618,6.14158093 C0.504018127,5.94148834 0.734426542,5.84143644 1.00598076,5.84142523 C1.18701421,5.84143644 1.46268211,5.85682042 1.83298447,5.88761079 C2.0181307,5.90813023 2.1775653,5.92224716 2.31128826,5.92993915 C2.44500404,5.93763113 2.55918005,5.94148834 2.6538154,5.94147713 C4.17615353,5.94148834 5.2870525,5.60541802 5.9865141,4.93327736 C6.06879582,4.86144811 6.36914941,4.45611626 6.88757666,3.7172706 C7.26609738,3.15802051 7.59113755,2.87838426 7.86269897,2.87838426 C8.25767621,2.87838426 8.45517878,3.17853996 8.45517878,3.77884014 L8.45517878,3.77884014 Z" id="arc-tagline" fill="#000000" fill-rule="nonzero"></path>
    </g>
</svg>