<svg xmlns="http://www.w3.org/2000/svg" width="82" height="16"><path fill="#000" fill-rule="nonzero" d="m72.667 12.111 1.222.667-.556 1.11-1.222-.666.556-1.11Zm1.777-.778 1.223.667-.556 1.111-1.222-.667.555-1.11Zm-9.666-.777c-.334 0-.556-.112-.778-.223a.611.611 0 0 1-.333-.555v-.556c0-.11.11-.333.11-.555H64c0 .222.111.333.333.444.111.111.334.111.445.111h2.889c0-.889-.111-1.666-.334-2.222-.333-.667-.777-1.111-1.555-1.333l.11-1.445c.89.445 1.445 1.111 1.89 2 .333.778.444 1.778.444 3h3.111c0-.555-.11-1-.222-1.333A3.642 3.642 0 0 0 70.444 7L71 5.778c.333.444.556.778.667 1.11.11.334.222 1 .222 1.89l-.001.444h3.223c0-.555-.111-1-.222-1.333A3.642 3.642 0 0 0 74.222 7l.556-1.222c.333.444.555.778.666 1.11.112.334.223 1 .223 1.89l-.001.444h5.223c-.333-.555-.778-1-1.222-1.444-.445-.445-1.111-.778-1.89-1.334l-.221.223-.89-.667c-.333-.222-.444-.444-.444-.667 0-.889.222-1.555.667-2 .444-.444 1.111-.889 2-1.222L81 1.333v1.334l-1.556.555c-.666.222-1.11.445-1.555.556-.445.222-.778.333-.778.444 0 .111.111.334.445.556.222.11.444.333.666.444.778.556 1.445 1.222 2 1.778a6.514 6.514 0 0 1 1.445 2.111v1.445h-16.89Zm5.333-7.667 1.222.667-.555 1.11L69.556 4l.555-1.111Zm-7.889 5.667c0 .444-.11.777-.222 1.222-.111.222-.222.555-.444 1l-.112-.111v-.889c0-.556 0-1.222-.11-2.222-.112-.89-.223-1.89-.334-2.89-.111-.666-.111-1.222-.222-1.888l.333-.667c.111-.222.222-.444.333-.778.112.556.223 1.334.334 2.334.11 1 .222 1.889.333 2.666.111 1 .111 1.778.111 2.223Zm-3-1.89v.445c0 .111 0 .333-.11.333-.223-.222-.334-.444-.668-.555-.222-.111-.444-.222-.777-.222-.445 0-.89.222-1.334.777-.444.445-.666.89-.666 1.112 0 .11 0 .222.11.222.112 0 .334.11.556.11h1.445c.222 0 .333 0 .666.112.223 0 .334.222.334.556 0 1.222-.556 2.222-1.667 2.888-1 .556-2.333.89-4.111.89-.889 0-1.556-.223-2-.556-.556-.334-.778-1-.778-1.667 0-.555.111-1.111.222-1.667.112-.444.334-.888.556-1.333 0 0 .222-.333.444-.889l.334.111c-.334.556-.556 1.111-.778 1.556-.111.444-.222.889-.222 1.333 0 .667.222 1.111.666 1.334.445.333 1 .444 1.778.444.556 0 1.334-.111 2.111-.333.667-.223 1.334-.445 1.89-.778.555-.333.777-.445.777-.667 0-.11 0-.11-.111-.222h-2a.849.849 0 0 1-.556-.222.849.849 0 0 1-.222-.556c0-.333.111-.778.445-1.333a5.577 5.577 0 0 1 1.11-1.556c.556-.555 1-.777 1.556-.777.334 0 .556.11.778.333.111.222.222.444.222.778Zm-2.889 7.445-.555 1.111-1.222-.666.555-1.112 1.222.667Zm-1.666.778L54.11 16l-1.222-.667.555-1.11 1.223.666Zm-20.445-4.333c-.333 0-.666-.112-.778-.445C33.222 9.89 33.111 9.556 33 9c-.111-.444-.111-1.111-.222-1.778 0-.555-.111-1.11-.111-1.778 0-.555-.111-1-.111-1.333 0-.333-.112-.555-.223-.778-.11-.222-.222-.444-.444-.666l.889-1.445c.222.556.333 1.334.444 2.111 0 .556.111 1.778.111 3.667.111.889.223 1.444.445 1.667.11.222.333.333.444.333h1.111v.222h.111c.445 0 .778 0 1.223-.11.444-.112.777-.223 1.222-.556l-.333-.445A.611.611 0 0 0 37 7.778h-.222c-.111 0-.111.11-.222.222h-.112v-.444c0-.556.112-.89.445-1.112.222-.222.778-.333 1.444-.333.556 0 1 .111 1.445.222.444.223.666.445.666.89 0 .221-.11.444-.333.666-.111.222-.333.444-.778.667.111.11.223.222.445.333C40 9 40.222 9 40.333 9h1.111v.222h3.445c0-.444 0-.889-.111-1.222-.222.111-.445.111-.556.222-.222.111-.444.111-.666.111-.334 0-.667-.11-.89-.333-.222-.222-.444-.556-.444-.889 0-.667.111-1.333.334-1.889.333-.555.666-.889 1.11-.889.667 0 1.112.445 1.445 1.445.222.778.445 1.778.445 2.778v2h-5.223c-.333 0-.666-.112-1-.223-.444-.222-.666-.444-.889-.777-.333.333-.666.555-1.11.666a4.606 4.606 0 0 1-1.778.334h-1.334Zm9.222-4.89c-.11 0-.222.112-.333.223C43 6 43 6.11 43 6.333c0 .445.222.556.667.556.11 0 .222 0 .333-.111.111 0 .222-.111.333-.222-.11-.223-.222-.334-.333-.556-.222-.222-.444-.333-.556-.333Zm-6.555-2.11 1.222.666-.555 1.111-1.223-.666.556-1.111Zm1.667-.667 1.222.667-.556 1.11L38 4l.556-1.111Zm3.333-.778 1.222.667-.555 1.11-1.223-.666.556-1.11Zm-4.778-.555 1.222.666-.555 1.111-1.222-.666.555-1.111Zm6.556-.223L44.889 2l-.556 1.111-1.222-.667.556-1.11ZM42.11 0l1.222.667-.555 1.11-1.222-.666L42.11 0ZM26.89 10.556c-.333 0-.667-.112-.778-.445-.222-.222-.333-.555-.444-1.111-.111-.444-.111-1.111-.223-1.778 0-.555-.11-1.11-.11-1.778 0-.555-.112-1-.112-1.333 0-.333-.11-.555-.222-.778-.111-.222-.222-.444-.444-.666l.888-1.445c.223.556.334 1.334.445 2.111C25.889 3.89 26 5.111 26 7c.111.889.222 1.444.444 1.667.112.222.334.333.445.333H28l-.001.222h3.223c0-.555-.11-1-.222-1.333A3.642 3.642 0 0 0 30.333 7l.556-1.222c.333.444.555.778.667 1.11.11.334.222 1 .222 1.89v1.778h-4.89Zm1.889-7.445L30 3.778l-.556 1.11-1.222-.666.556-1.11Zm1.778-.667 1.222.667-.556 1.111L30 3.556l.556-1.112ZM17 10.556v-.003l-.107-.002c-.57-.022-1.041-.131-1.337-.329C15.222 10 15 9.556 15 9c0-.556.111-1 .333-1.444.334-.556.667-.778 1.111-.778.445 0 .778.222.89.778.11.444.222 1 .222 1.666h.666c.222 0 .445-.11.778-.222a1.534 1.534 0 0 0-.444-.333c-.112-.111-.223-.223-.223-.334v-.222s0-.111.111-.222l.778-1.333c.111-.223.222-.334.222-.334.112-.11.223-.11.334-.11-.334-.223-.556-.445-.556-.556 0-.112.111-.334.334-.778.11-.111.222-.334.333-.667.333.333.778.778 1.222 1.333a14.318 14.318 0 0 1 1.445 2c.666.778.888 1.334.888 1.778 0 .334-.11.667-.222 1-.222.334-.444.556-.555.556-.223 0-.556-.111-1.111-.445-.556-.222-1-.444-1.334-.666-.555.333-1 .555-1.222.666-.333.111-.778.223-1.222.223l-.367-.001c-.098.66-.403 1.367-.855 2-.667.89-1.445 1.334-2.334 1.334-.333 0-.666 0-1-.111-.222 0-.555-.111-1-.334l-1-.333.111-.222c.334.111.556.111.89.222.333.111.555.111.888.111.667 0 1.222-.11 1.778-.444.444-.222.889-.556 1.333-1.111.222-.223.556-.667.89-1.111H17Zm4.444-2.778c0 .222 0 .444-.11.666a.868.868 0 0 1-.445.445c.333.111.555.333.889.444.222.111.444.111.555.111.111 0 .111 0 .111-.11.112.11.112.11.112 0 0-.223-.112-.445-.445-.778-.222-.223-.444-.445-.667-.778ZM16.111 8c-.111 0-.222 0-.333.111-.111.111-.111.222-.111.333 0 .223.11.445.333.556.111.222.556.222 1 .222-.111-.444-.222-.778-.444-1-.112-.11-.334-.222-.445-.222Zm4-1.111c-.222 0-.444.111-.667.222a.611.611 0 0 0-.333.556c0 .222.333.444.889.777A.868.868 0 0 0 20.444 8c.334-.111.334-.222.334-.333 0-.223 0-.334-.111-.556-.111-.111-.223-.222-.556-.222Zm-9.889 1.667c0 .444-.11.777-.222 1.222-.111.222-.222.555-.444 1l-.112-.111v-.889c0-.556 0-1.222-.11-2.222-.112-.89-.223-1.89-.334-2.89-.111-.666-.111-1.222-.222-1.888l.333-.667c.111-.222.222-.444.333-.778.112.556.223 1.334.334 2.334.11 1 .222 1.889.333 2.666 0 1 .111 1.778.111 2.223Zm-2.555 2c0 1.11-.334 2-1 2.444-.667.556-1.89.889-3.445.889-1 0-1.778-.222-2.333-.556C.333 13 0 12.333 0 11.556c0-.445 0-.89.111-1.334.111-.444.222-.889.445-1.333.11-.222.333-.667.555-1.222l.333.11C1.111 8.557.89 9.112.778 9.445c-.111.445-.111.778-.111 1.112 0 .666.222 1.11.666 1.444.445.333 1.111.444 1.89.444 1 0 1.777-.222 2.555-.555.889-.445 1.333-1 1.333-1.778 0-.555-.111-1-.222-1.444a2.148 2.148 0 0 0-.556-1L7 6.11c.222.445.444.778.556 1.222.11.445.11 1 .11 1.667v1.556ZM4.889 4.778l-.556 1.11-1.222-.666.556-1.11 1.222.666Z"/></svg>