<?xml version="1.0" encoding="utf-8"?>
<!-- Generator: Adobe Illustrator 24.2.3, SVG Export Plug-In . SVG Version: 6.00 Build 0)  -->
<svg version="1.1" id="图层_1" xmlns="http://www.w3.org/2000/svg" xmlns:xlink="http://www.w3.org/1999/xlink" x="0px" y="0px"
	 viewBox="0 0 109 13" style="enable-background:new 0 0 109 13;" xml:space="preserve">
<g>
	<path d="M1.8,8.7C2,8.4,2.1,8.3,2.1,8.2c0.1,0,0.1,0,0.1,0c0,0,0,0.2-0.1,0.3l-0.7,2.2c-0.1,0.6-0.4,0.8-0.7,0.7
		c-0.2,0-0.4-0.2-0.6-0.5c-0.1-0.5-0.1-1,0.1-1.5c0.1-0.3,0.2-0.4,0.2-0.4c0,0,0,0.2,0,0.5c-0.1,0.5-0.1,0.9,0.2,1
		c0.1,0,0.2-0.1,0.4-0.3C1.3,9.8,1.6,9.3,1.8,8.7z M0.3,5.7c0-0.3,0.1-0.3,0.4,0c0.9,0.6,0.8,1.3-0.1,2c-0.1,0-0.1-0.2,0-0.5
		c0.1-0.3,0.1-0.6,0-0.9C0.4,6.1,0.4,5.9,0.3,5.7z M0.8,2.1c0-0.1,0.2,0,0.5,0.1l0.5,0.2c0.3,0.1,0.6,0.3,0.7,0.5
		c0.1,0.3,0,0.4-0.4,0.5c-0.3-0.1-0.6,0-0.8,0.3C1.2,3.9,1,4.1,1,4.1C0.9,4,1,3.8,1.2,3.5c0.2-0.3,0.2-0.6,0.1-0.7
		C1,2.5,0.8,2.2,0.8,2.1z M3.9,10.5L4.5,10c0,0,0.1,0,0.1,0.1c0,0.1-0.1,0.2-0.4,0.6c-0.3,0.5-0.5,0.8-0.6,1c-0.3,0.2-0.5,0-0.6-0.5
		c0-0.2,0-0.4,0.1-0.5c0.1-0.3,0.2-0.4,0.3-0.5c0.1,0.1,0.2,0.2,0.1,0.4C3.5,10.7,3.6,10.7,3.9,10.5z M5.9,1.6C7,1,7.9,0.8,8.6,0.8
		c0.4,0,0.8,0.4,1.1,0.9c0.1,0.3,0,0.5-0.3,0.7l-1,0.3C8.1,2.9,8,2.8,8,2.7c0-0.1,0.1-0.2,0.3-0.4c0.2-0.2,0.3-0.4,0.4-0.5
		c0.1-0.1,0.1-0.2,0.1-0.3C8.6,1.3,8.4,1.3,8.2,1.3c-1,0.2-2,0.6-3.1,1.2C4.5,2.9,4.2,3.3,4.2,3.8C4.1,4.1,4,4.2,3.8,4
		C3.5,3.9,3.4,3.6,3.4,3.3c0-0.2,0.1-0.3,0.2-0.5C3.9,2.4,4.1,2.2,4.2,2c0.1-0.2,0.2-0.3,0.3-0.3c0.2,0.1,0.2,0.3,0.1,0.5
		c0,0.2,0.1,0.2,0.4,0C5.2,1.9,5.6,1.7,5.9,1.6z M5.8,5.9C5.7,5.8,5.8,5.7,6,5.7c0.1,0,0.3,0.1,0.5,0.4c0.2,0.2,0.2,0.5,0,0.9
		c0,0.2,0.1,0.3,0.3,0.1l0.5-0.3c0.2-0.1,0.3-0.2,0.2-0.4C7.6,6.3,7.5,6.2,7.5,6.1c0-0.1,0.1,0,0.4,0.2c0.4,0.1,0.6,0.3,0.6,0.6
		c0,0.1-0.1,0.2-0.3,0.3c-0.5,0.2-1,0.4-1.5,0.7C6.5,8,6.4,8.2,6.4,8.5c0,1,0,2,0,3.1c0.1,0.5,0,0.9-0.2,1.2c-0.1,0.1-0.2,0-0.3-0.1
		c-0.2-0.3-0.6-0.6-1-0.9c-0.2-0.2-0.3-0.3-0.3-0.3c0-0.1,0-0.1,0.1-0.2c0.1,0,0.3,0.1,0.5,0.1c0.5,0.1,0.7-0.1,0.7-0.6
		c0-0.7,0-1.4,0-2c0-0.3-0.1-0.3-0.3-0.3C5.2,8.7,4.9,8.8,4.7,9.1C4.4,9.2,4.2,9.2,4.1,9.2C3.6,9,3.5,8.6,3.8,8.1c0,0,0.1,0,0.1,0
		c0,0.2,0,0.3,0.1,0.4c0.1,0,0.3,0,0.5-0.1c0.4-0.2,0.7-0.4,1.1-0.6c0.2-0.1,0.3-0.3,0.3-0.6l0-0.9C5.8,6.1,5.8,6,5.8,5.9z M5.1,4.9
		c0.3-0.3,0.4-0.4,0.4-0.4c0.1,0,0.1,0.1,0,0.3C5.4,5,5.2,5.3,5.1,5.7C5,6,4.9,6.1,4.7,6.1C4.3,6,4.2,5.5,4.4,4.9
		c0.1-0.3,0.2-0.4,0.2-0.4c0.1,0,0.1,0.2,0.1,0.4C4.8,5.1,4.9,5.1,5.1,4.9z M6.7,2.8c-0.1-0.1-0.1-0.2,0-0.2c0.1,0,0.2,0,0.3,0.1
		c0.3,0.3,0.4,0.7,0.3,1.2C7.2,4,7.2,4.2,7.5,4.3c0.1,0,0.3,0,0.4-0.1c0.2-0.1,0.4-0.1,0.5-0.1c0.3,0.1,0.4,0.3,0.2,0.6
		C8.4,4.8,8,5,7.5,5.3c-0.3,0.1-0.5,0.1-0.5,0c0,0,0.1-0.1,0.2-0.2c0.2-0.2,0.3-0.3,0.2-0.3C7.1,4.7,6.9,4.4,6.9,4.1
		C6.8,3.8,6.8,3.6,6.7,3.3C6.7,3,6.7,2.9,6.7,2.8z M7.4,9.3c0.8-0.1,1.6,0.2,2.3,1c0.3,0.4,0.3,0.7,0,0.9c-0.3,0.1-0.7,0.1-1.3-0.2
		c-0.3-0.1-0.4-0.2-0.4-0.2c0-0.2,0.2-0.2,0.4-0.2c0.2-0.1,0.3-0.1,0.3-0.2C8.5,9.9,8.2,9.7,7.9,9.6C7.6,9.5,7.4,9.5,7.4,9.4
		C7.4,9.4,7.4,9.3,7.4,9.3z"/>
	<path d="M15.4,8c0.1-0.3,0.2-0.4,0.3-0.5c0.1,0,0,0.2,0,0.4l-0.8,2.2c-0.1,0.2-0.2,0.5-0.4,0.9c-0.1,0.2-0.3,0.3-0.5,0.3
		c-0.5-0.2-0.8-0.5-0.8-0.9c0-0.3,0.1-0.7,0.2-1c0.1-0.1,0.1-0.1,0.2,0c0,0.1,0,0.2,0,0.4c-0.1,0.4,0.1,0.6,0.3,0.6
		c0.3-0.2,0.6-0.6,0.9-1.1C14.9,8.9,15.2,8.5,15.4,8z M13.3,5.6c0.3-0.1,0.6-0.2,1-0.2c0.3,0.1,0.5,0.3,0.6,0.6
		c0,0.2-0.1,0.4-0.3,0.5c-0.2,0.1-0.3,0.2-0.5,0.3C13.8,7,13.7,7,13.6,6.8C13.9,6.5,14,6.3,14.1,6c-0.1-0.2-0.2-0.3-0.5-0.2
		c-0.2,0-0.3,0-0.3-0.1C13.3,5.6,13.3,5.6,13.3,5.6z M14.1,2.1C14.2,2,14.3,2,14.4,2c0.2,0.1,0.5,0.2,1,0.2c0.3,0.1,0.5,0.3,0.5,0.5
		c-0.1,0.3-0.3,0.5-0.7,0.4c-0.3,0-0.5,0.2-0.8,0.5c-0.1,0-0.1,0-0.1-0.1c0-0.1,0.1-0.2,0.2-0.3c0.3-0.3,0.3-0.6-0.1-0.8
		C14.2,2.3,14.1,2.1,14.1,2.1z M17.1,2.2c0-0.1,0.1-0.1,0.2,0c0.1,0.1,0.2,0.2,0.3,0.4c0.1,0.2,0.2,0.6,0.2,1.1c0,1.2,0,2.5,0,3.8
		c-0.1,0.9-0.2,1.6-0.3,2.2c-0.4,1-1.1,1.7-2.1,2.1c-0.1,0-0.1,0-0.2-0.1c0,0,0.1-0.2,0.4-0.4c0.3-0.3,0.5-0.6,0.8-1.1
		c0.5-1.3,0.8-2.7,0.9-4.4C17.4,4.3,17.3,3.1,17.1,2.2z M20.8,2.2c0.3-0.2,0.6-0.1,0.9,0.1C21.9,2.7,22,3,21.9,3.3
		c-0.2,0.5-0.7,1.4-1.5,2.5c-0.2,0.3-0.2,0.3,0.1,0.2c0.2-0.1,0.4-0.1,0.5,0.1c0.2,0.2,0.2,0.4-0.1,0.6c-0.2,0.2-0.3,0.4-0.4,0.5
		c-0.2,0.3-0.2,0.5,0.1,0.8l0.1,0.1c0.1,0.2,0.3,0.3,0.4,0.2c0.1-0.1,0.1-0.3,0.2-0.5c0.1-0.3,0.2-0.4,0.2-0.3c0,0.1,0,0.2,0,0.4
		c-0.1,0.4-0.1,0.9-0.2,1.4c0.1,0.3,0.1,0.4,0.1,0.5C21.2,10,21,9.9,20.8,9.7c-0.1-0.1-0.2-0.3-0.2-0.5c0-0.4-0.1-0.7-0.2-0.9
		C20.2,8,20,8,19.8,8.2c-0.6,0.7-1,1.2-1.4,1.4c-0.3,0.1-0.3,0-0.1-0.3c0.4-0.5,0.9-1.2,1.4-2.2c0.1-0.3,0.1-0.3-0.1-0.2l-0.4,0.3
		c-0.4,0.3-0.8,0.3-1.2,0C18,7.1,17.9,7.1,17.9,7c0,0,0.2-0.1,0.4-0.1l0.5-0.1c0.2-0.1,0.4-0.2,0.5-0.3c0.9-1.2,1.4-2.3,1.7-3.6
		c0-0.2-0.1-0.3-0.2-0.3c-0.1,0-0.2-0.1-0.2-0.2C20.6,2.3,20.7,2.3,20.8,2.2z M19.5,3.3C19.6,3.1,19.7,3,19.8,3c0,0.1,0,0.2-0.2,0.5
		c-0.2,0.3-0.2,0.7-0.2,1.1c0.1,0.3,0,0.5-0.2,0.5c-0.2,0-0.4-0.1-0.6-0.4c-0.1-0.1-0.2-0.3-0.2-0.6c0-0.2,0-0.4-0.1-0.6
		c-0.1-0.2-0.1-0.3-0.1-0.3c0.2,0,0.3,0.1,0.5,0.3c0.2,0.2,0.3,0.1,0.6-0.1C19.4,3.4,19.4,3.4,19.5,3.3z M21.8,1
		c0.2-0.2,0.5-0.2,0.8,0c0.4,0.3,0.6,0.6,0.5,1c-0.1,1.8-0.1,3.6,0,5.5c0.1,2,0.1,3.4-0.1,4.4c-0.1,0.2-0.2,0.4-0.3,0.5
		c-0.3,0.2-0.5,0-0.7-0.3c-0.4-0.4-0.6-0.7-0.6-1c0-0.1,0.1-0.1,0.4,0.1c0.2,0.2,0.4,0.2,0.4,0.2c0.1,0,0.1-0.2,0.2-0.5
		c0.2-2.9,0.2-5.8,0-8.7c0-0.4-0.1-0.7-0.2-0.9c-0.1,0-0.1,0-0.3,0c-0.1,0-0.2,0.1-0.2,0C21.6,1.3,21.6,1.2,21.8,1z"/>
	<path d="M27.3,3.4c0-0.3,0.1-0.3,0.4,0.1C28,4.2,28.1,5.2,28,6.4c0,1.2,0,2.7,0,4.5c0,0.2-0.1,0.4-0.1,0.5
		c-0.1,0.1-0.1,0.1-0.3-0.1c-0.1-0.2-0.3-0.4-0.3-0.7c0-2,0.1-3.7,0.2-5.2C27.5,4.5,27.5,3.8,27.3,3.4z M28.6,3.1
		C28.8,3,29,3,29.2,3.1c0.4,0.2,0.4,0.5,0.1,0.7c-0.2,0.1-0.4,0.3-0.6,0.5c-0.1,0-0.1,0-0.1,0c0,0,0.1-0.2,0.3-0.5
		c0.1-0.3-0.1-0.4-0.4-0.2c-0.2,0-0.3,0-0.3,0C28.2,3.3,28.4,3.2,28.6,3.1z M29.8,1.4c0.3-0.2,0.7-0.1,1,0.5c0.1,0.1,0.1,0.2,0,0.4
		c-0.1,0.3-0.2,0.6-0.3,0.9c0,0.2,0,0.3,0.1,0.3c0.1,0,0.1,0,0.1,0c0,0.1-0.1,0.2-0.2,0.3c-0.1,0.1-0.2,0.2-0.1,0.4
		c0,0.2,0,0.4,0,0.6c0,0.3,0,0.4-0.1,0.5c-0.1,0.1-0.2,0.1-0.4-0.1c-0.1-0.3-0.3-0.3-0.5-0.1l-0.6,0.6c-0.1,0.1-0.4,0-0.7-0.3
		c-0.1-0.3-0.1-0.5,0-0.7c0.2-0.2,0.3-0.2,0.3,0c0,0.2-0.1,0.3-0.1,0.3c0,0.1,0.2,0,0.4-0.1l0.7-0.5c0.2-0.2,0.3-0.4,0.3-0.6
		c0-0.5,0-1.1,0.1-1.6c0-0.2-0.1-0.3-0.4-0.2c-0.6,0.3-1,0.4-1.2,0.3C28.3,2.2,28.3,2,28.6,2C28.9,1.9,29.3,1.7,29.8,1.4z M31.5,6.4
		C32,6,32.5,6,32.9,6.2c0.4,0.2,0.4,0.5,0.2,0.8c-0.1,0.2-0.4,0.5-0.8,0.9c-0.2,0.2-0.2,0.4-0.1,0.4c0.2,0,0.4,0,0.5,0.2
		c0.1,0.1,0.2,0.2,0.1,0.3c0,0-0.2,0.1-0.4,0.1c-0.3,0-0.6,0.2-1,0.4C31,9.4,30.9,9.3,31,8.8l1-1.6c0.1-0.3,0.2-0.4,0.2-0.5
		c-0.2,0-0.3,0.1-0.6,0.2c-0.7,0.4-1.1,0.9-1.1,1.5c0,0.3-0.1,0.5-0.1,0.7c0,0.2-0.1,0.2-0.3,0c-0.4-0.4-0.5-0.9-0.3-1.5L30,6.8
		c0.1-0.4,0.2-0.5,0.3-0.5c0.1,0.2,0.2,0.5,0.1,0.8c0,0.2,0,0.3,0.1,0.4C30.8,7,31.2,6.6,31.5,6.4z M32.2,2c0,0,0.2,0.1,0.4,0.4
		c0.2,0.5,0.2,1.2,0.2,2.3c0,0.2-0.1,0.4-0.2,0.4c-0.4-0.3-0.5-0.8-0.4-1.4C32.2,3.1,32.3,2.6,32.2,2z M34.2,1.2
		c0.4-0.3,0.7-0.3,1-0.1c0.5,0.4,0.7,0.7,0.5,1.1c-0.1,0.4-0.2,1-0.2,1.9c0,2.3,0,4.7,0,7l-0.1,0.5c-0.1,0.3-0.2,0.4-0.4,0.5
		c-0.1,0-0.3-0.1-0.4-0.3c-0.1-0.2-0.3-0.5-0.6-0.7c-0.3-0.3-0.5-0.5-0.4-0.5c0,0,0.2,0,0.5,0.1c0.5,0.2,0.7,0.1,0.7-0.5L34.8,2
		c0-0.4-0.2-0.5-0.5-0.3C33.7,2,33.2,2,33,1.9c-0.1-0.1-0.1-0.1-0.1-0.2c0,0,0.2-0.1,0.4-0.2C33.6,1.5,33.9,1.4,34.2,1.2z M33.8,2.7
		c0.1-0.1,0.3-0.1,0.5,0c0.3,0.2,0.3,0.4,0.1,0.7l-0.8,0.7c-0.2,0.2-0.1,0.3,0.2,0.2c0.3-0.2,0.6-0.1,0.7,0.1c0,0-0.1,0.2-0.4,0.5
		c-0.3,0.3-0.5,0.5-0.8,0.6c0,0,0-0.1,0.1-0.3c0.1-0.2,0.2-0.3,0.2-0.3c-0.3,0.1-0.5,0.1-0.7-0.1c-0.1-0.2,0-0.3,0.2-0.5l0.3-0.5
		c0.1-0.2,0.1-0.3-0.1-0.3c-0.1,0-0.3,0-0.3-0.2c0-0.1,0.1-0.1,0.4-0.2L33.8,2.7z"/>
	<path d="M40.6,5.9c0.1-0.2,0.2-0.3,0.3-0.2c0,0,0,0.2-0.1,0.5c-0.1,0.2-0.1,0.6,0,1.1c0,0.4,0,0.8-0.2,1c-0.1,0.1-0.2,0.1-0.3,0
		C40,8.1,39.9,7.8,40,7.6C40,7,40.2,6.5,40.6,5.9z M44,0.2c0.2-0.3,0.5-0.3,0.7-0.1c0.2,0.2,0.4,0.3,0.5,0.3
		c0.3-0.1,0.6-0.1,0.8,0.2c0,0.1-0.1,0.1-0.4,0.2l-0.2,0.1c-0.2,0.2-0.4,0.4-0.4,0.6c-0.1,0.2-0.1,0.4-0.2,0.5
		c-0.1,0.2-0.1,0.3,0.1,0.4c0.1,0.1,0.3,0,0.4-0.2c0.6-0.9,1.3-1.5,1.9-1.7c0.4-0.1,0.6,0,0.8,0.5c0.1,0.5,0.1,1.1-0.2,1.8
		c-0.1,0.6-0.3,1.2-0.6,1.9C47.1,4.9,47.1,5,47.3,5c0.6,0,1.1,0.1,1.6,0.4c0.3,0.2,0.5,0.5,0.5,0.8c0,0.3-0.2,0.5-0.6,0.5l-1,0.1
		c-0.2,0.1-0.4,0.1-0.6,0c-0.1,0-0.1-0.1,0-0.2c0.2-0.1,0.3-0.1,0.5-0.2c0.4-0.2,0.5-0.4,0.4-0.6c-0.2-0.2-0.6-0.3-1.2-0.3
		c-0.2,0-0.5,0-0.8,0c-1.4,0.2-2.6,0.5-3.6,1c-0.4,0.2-0.8,0.3-1.2,0.2c-0.2-0.1-0.3-0.2-0.2-0.4c0.5,0,0.9-0.2,1.3-0.4
		c0.2-0.1,0.3-0.2,0.2-0.5c-0.1-0.8,0-1.6,0-2.3c0.1-0.6,0.1-1.2,0-2c0,0,0.1-0.1,0.1-0.1C43,1.3,43.2,1.6,43.3,2
		c0,0.2,0.1,0.2,0.3-0.1c0.1-0.2,0.3-0.4,0.5-0.7c0.2-0.2,0.3-0.4,0.3-0.5c0-0.2-0.1-0.4-0.3-0.4C44,0.3,44,0.3,44,0.2z M41.5,2.2
		c0.1-0.1,0.2-0.1,0.3,0.1c0.2,0.3,0.3,0.6,0.4,1.1l0.1,1.5c0,0.3-0.1,0.4-0.2,0.4c-0.3-0.3-0.4-0.7-0.4-1.1c0-0.4,0.1-0.8,0.1-1.2
		l-0.1-0.2C41.5,2.4,41.5,2.2,41.5,2.2z M45.3,6.4c0.4-0.2,0.7-0.1,1,0.3c0.2,0.2,0.1,0.5-0.3,0.8c-0.3,0.3-0.6,0.5-1,0.8
		c-0.2,0.1-0.3,0.2-0.2,0.3c0.1,0.1,0.2,0.3,0.2,0.4c0.1,0.1,0.2,0.2,0.5,0.1l0.9-0.1c0.5-0.1,0.9-0.1,1.1,0.1
		c0.2,0.1,0.4,0.3,0.4,0.4c0,0.2-0.2,0.4-0.4,0.3c-0.5,0-1.1,0-1.8,0c-0.2,0-0.3,0.2-0.3,0.5c0.1,0.4,0.1,0.8,0.1,1.2
		c-0.1,1.1-0.6,1.5-1.5,1.4c-0.4-0.1-0.7-0.2-1-0.4c0-0.1,0.1-0.1,0.5-0.1c0.4,0,0.7-0.2,1-0.5c0.3-0.5,0.5-1,0.4-1.6
		c0-0.2-0.1-0.3-0.4-0.3c-0.5,0.1-1,0.2-1.5,0.4c-0.4,0.2-0.7,0.1-1.1-0.1c0,0,0-0.1,0-0.2c0-0.1,0.2-0.1,0.5-0.2
		c0.8-0.2,1.5-0.4,2.1-0.5c0.2,0,0.3-0.1,0.2-0.3c-0.1-0.2-0.2-0.3-0.3-0.3c-0.1,0-0.2-0.1-0.1-0.2c0,0,0.1-0.1,0.1-0.1
		c0.1,0,0.2-0.1,0.3-0.3c0.2-0.1,0.4-0.4,0.6-0.8l0.1-0.3c0.1-0.2,0-0.3-0.2-0.2l-0.9,0.5C43.5,8,43,8,42.5,7.5
		c-0.1-0.1-0.1-0.2-0.1-0.3c0,0,0.2-0.1,0.4-0.1C43.3,7.1,44.1,6.9,45.3,6.4z M47.1,0.9c-0.3,0-0.6,0.3-1,0.7
		c-0.2,0.2-0.2,0.3-0.1,0.3c0.2,0,0.3,0.1,0.5,0.2c0.2,0.2,0.2,0.5,0.1,0.8c-0.2,0.6-0.5,1.1-1,1.5c-0.1,0.1-0.2,0.1-0.3,0
		c0.4-0.5,0.6-1.1,0.7-1.7c0.1-0.2,0-0.3-0.1-0.5c-0.1,0-0.2-0.1-0.3-0.1c0,0-0.2,0.1-0.4,0.4c-0.2,0.2-0.2,0.4-0.1,0.7
		c0.2,0.8-0.1,1.5-0.8,2c-0.7,0.1-0.9-0.2-0.6-0.9l0.6-1c0.2-0.2,0.2-0.4,0.1-0.5c-0.1,0-0.1,0-0.2,0.1c-0.1,0.1-0.2,0.1-0.2,0
		c0.1-0.3,0.2-0.6,0.3-0.9c0.1-0.2-0.1-0.2-0.3,0c-0.2,0.2-0.4,0.5-0.6,0.7c-0.1,0.1-0.1,0.3-0.1,0.5c0,0.1,0,0.3,0,0.4
		c0,0.5,0,1.1,0,1.7c0,0.3,0.1,0.4,0.4,0.3c0.9-0.3,1.7-0.5,2.5-0.5c0.2,0,0.4-0.1,0.3-0.2c0-0.1-0.1-0.2-0.2-0.3
		c-0.1-0.1-0.1-0.2-0.1-0.2c0,0,0.1-0.1,0.2-0.1c0.2-0.1,0.4-0.3,0.5-0.8c0.3-1,0.4-1.8,0.4-2.4C47.3,1,47.2,0.9,47.1,0.9z
		 M44.6,3.8c0-0.2,0-0.2-0.2,0c-0.1,0.2-0.2,0.4-0.3,0.6C44,4.7,44,4.8,44,4.8c0.2,0,0.3-0.1,0.4-0.4C44.5,4.3,44.6,4.1,44.6,3.8z"
		/>
	<path d="M63.3,3.4c0-0.1,0.2-0.1,0.4-0.1c0.3,0,0.6,0.2,0.9,0.5c0.2,0.1,0.3,0.3,0.3,0.6c0,0.4,0,0.8,0,1.2c0,0.2,0.1,0.3,0.3,0.2
		c0.2,0,0.5-0.1,0.9-0.3c0.3-0.2,0.7-0.1,1,0.1c0.3,0.3,0.2,0.5-0.2,0.7c-0.8,0.2-1.4,0.3-1.8,0.2c-0.2-0.1-0.3,0-0.4,0.3l-0.3,2.6
		c0,0.2,0.1,0.3,0.3,0.3c1.3-0.2,2.4-0.3,3.2-0.1c0.7,0.1,1.2,0.4,1.4,1c0,0.4-0.2,0.4-0.5,0.2c-0.5-0.1-1-0.1-1.6,0.2
		c-0.3,0.1-0.4,0.1-0.5,0c0-0.1,0.1-0.2,0.3-0.4c0.2-0.2,0.2-0.4-0.1-0.4c-1.2,0-2.1,0-2.8,0.2c-1.1,0.2-2.1,0.5-3.1,1
		c-0.3,0.2-0.7,0.2-1.2,0.1c-0.4-0.1-0.7-0.3-0.9-0.6c-0.1-0.1,0-0.1,0.1-0.2l0.6,0.1c0.4-0.1,0.8-0.2,1.3-0.3
		c0.2,0,0.3-0.2,0.3-0.5c-0.1-0.5-0.1-1.3-0.1-2.4l0-0.3c-0.1-0.3-0.1-0.5-0.1-0.6c0.1-0.2,0.2-0.1,0.4,0.2c0.3,0.4,0.5,0.8,0.4,1.1
		c0.1,0.6,0,1.2,0,1.9c0,0.2,0.1,0.3,0.4,0.2c0.4-0.1,0.9-0.2,1.4-0.3c0.2,0,0.3-0.2,0.3-0.5c0-0.9-0.1-1.8,0-2.8c0-1,0-1.9-0.2-2.5
		c-0.1-0.1-0.2-0.2-0.3-0.4C63.4,3.5,63.3,3.4,63.3,3.4z M61.5,2.8C63.2,2,65,1.7,66.7,1.7c0.4,0,0.8,0.2,1,0.6
		c0.1,0.1,0.1,0.3,0,0.3c-0.1,0.1-0.3,0.2-0.4,0.1c-0.6-0.3-1.8-0.3-3.5,0c-0.3,0.1-0.7,0.2-1,0.4c-0.4,0.3-1,0.4-1.8,0.2
		c-0.2,0-0.4-0.1-0.4-0.2C60.4,3.1,60.6,3,61,3C61.1,2.9,61.3,2.9,61.5,2.8z"/>
	<path d="M74.9,3.7c0-0.1,0.1-0.1,0.2-0.1c0.2,0,0.4,0.1,0.6,0.4c0.1,0.1,0.1,0.1,0.3,0.1c0.4,0.1,0.4,0.4,0,0.7
		c-0.1,0.1-0.2,0.1-0.3,0.2c-0.1,0.1-0.2,0.3-0.2,0.6c0,0.2-0.1,0.5-0.1,0.8c0,0.3,0.1,0.4,0.4,0.2c0.3-0.1,0.5-0.2,0.6-0.1
		c0,0.1,0,0.2-0.2,0.3c-0.2,0.1-0.3,0.2-0.5,0.3c-0.2,0.2-0.3,0.4-0.3,0.7c0.1,1.1,0.1,2.2,0.1,3.3c0,0.2-0.1,0.4-0.1,0.5
		c-0.2,0.4-0.5,0.4-0.8-0.1c-0.3-0.2-0.6-0.4-0.9-0.6c-0.5-0.3-0.6-0.9-0.4-1.7c0.4-0.6,0.8-1.2,1.3-1.7c0.2-0.2,0.3-0.4,0.3-0.6
		l0-0.7c0-0.2-0.1-0.2-0.3,0l-1,0.9c-0.3,0.3-0.6,0.4-0.8,0.2c-0.4-0.3-0.4-0.7-0.2-1.1c0.3-0.7,0.6-1.4,0.9-1.9
		c0.2-0.2,0.3-0.2,0.2,0.2l-0.3,1.4c0,0.2,0,0.3,0,0.4c0,0,0.1,0,0.2-0.1l1-0.9C74.9,5.1,75,4.9,75,4.6C75.1,4.2,75,3.9,74.9,3.7z
		 M74.9,8.4c0-0.2-0.1-0.2-0.3,0.1c-0.4,0.6-0.6,1.1-0.8,1.5c-0.2,0.5-0.1,0.8,0.4,0.9c0.5,0.1,0.8,0,0.8-0.5
		C74.9,9.7,74.9,9,74.9,8.4z M75.1,1.6c0.4-0.3,0.8-0.3,1.1,0.1c0.3,0.3,0.2,0.5-0.1,0.6c-0.3,0.1-0.7,0.1-1.2,0
		c-0.4-0.1-0.6-0.2-0.7-0.5c0,0,0.2-0.1,0.4,0C74.7,1.7,74.9,1.7,75.1,1.6z M78,0.6c0.1-0.1,0.2-0.1,0.5,0c0.3,0.2,0.3,0.5,0.2,0.8
		c-0.2,0.2-0.4,0.7-0.7,1.3c-0.1,0.2,0,0.3,0.3,0.1c0.9-0.7,1.5-1.2,1.9-1.4c0.2-0.1,0.3-0.1,0.5,0.1c0.4,0.4,0.2,0.7-0.4,0.9
		c-0.7,0.5-1.2,1.3-1.5,2.4c-0.1,0.2,0,0.3,0.3,0.2c0.8-0.4,1.4-0.6,1.9-0.6c0.3,0,0.6,0.2,0.8,0.5c0,0.1-0.1,0.2-0.3,0.2
		c-0.6-0.1-1.3,0.1-1.9,0.3c-0.2,0.1-0.5,0.2-0.7,0.2c-0.2,0-0.4,0.1-0.4,0.4c-0.5,1.7-0.6,3.7-0.4,5.8c0.1,0.4,0.1,0.6-0.1,0.7
		c-0.2-0.1-0.4-0.4-0.6-0.8c-0.2-0.5-0.2-1.2-0.1-2.2c0.4-2.5,1.1-4.7,2-6.6c0.1-0.3,0.2-0.4,0.1-0.5c-0.9,0.6-1.5,1.2-1.9,1.8
		c-0.2,0.3-0.3,0.4-0.4,0.4c-0.2-0.1-0.4-0.3-0.4-0.7c0-0.2,0.1-0.3,0.3-0.5c0.1-0.1,0.2-0.3,0.3-0.5c0.2-0.5,0.4-1.1,0.7-1.6
		C78.2,1,78.2,0.8,78,0.6z M79.8,5.5c0.1-0.1,0.3-0.1,0.5,0c0.3,0.2,0.4,0.4,0.3,0.7c0,0.2,0,0.3,0.2,0.3c0.3,0,0.5,0.2,0.5,0.4
		c0,0.2-0.2,0.3-0.6,0.4c-0.2,0.1-0.3,0.2-0.3,0.5c0,0.3,0,0.4,0.2,0.4C80.9,8,81.1,8,81.4,8.2c0.2,0.2,0.1,0.4-0.3,0.5l-0.3,0.2
		c-0.2,0.2-0.3,0.4-0.3,0.7c0,0.3,0.1,0.4,0.3,0.4c0.1,0,0.2-0.1,0.1-0.2c-0.1-0.1-0.1-0.2,0-0.2c0.1,0,0.2,0,0.5,0.2
		c0.2,0.1,0.3,0.1,0.5,0.2c0.2,0,0.3,0.1,0.4,0.3c0.1,0.2,0,0.3-0.2,0.4c-0.8-0.1-1.7-0.1-2.6,0.2c-0.2,0-0.3,0.1-0.5,0.3
		c-0.1,0.1-0.3,0.1-0.4-0.2c-0.2-0.3-0.1-0.4,0-0.5c0.1,0,0.2-0.1,0.3-0.2l0.8-0.9C79.9,9,79.9,8.9,79.6,9c-0.4,0-0.7,0-0.8-0.2
		c0-0.1,0.1-0.1,0.4-0.2l0.5-0.1C79.9,8.4,80,8.3,80,8.1V7.8c0-0.2-0.1-0.4-0.4-0.4c-0.5,0-0.8,0-0.9-0.2c0-0.1,0.1-0.1,0.4-0.2
		c0.2,0,0.4-0.1,0.6-0.2C79.9,6.8,80,6.6,80,6.3c0-0.3,0-0.4-0.1-0.5C79.8,5.7,79.7,5.6,79.8,5.5z M80.1,9.9c-0.1-0.2-0.2-0.1-0.3,0
		c-0.2,0.3-0.2,0.3,0.1,0.2C80,10.1,80.1,10.1,80.1,9.9z"/>
	<path d="M86.2,8c0.2-0.3,0.3-0.4,0.3-0.4c0,0,0.1,0,0.1,0.1c-0.2,0.5-0.2,1.3-0.1,2.4c0.1,0.4,0.1,0.8,0.1,1.1
		c0,0.2-0.1,0.3-0.2,0.3c-0.1,0-0.3-0.1-0.3-0.3C85.7,10.3,85.8,9.2,86.2,8z M86.4,3.3c0-0.1,0-0.1,0-0.1c0.2,0,0.3,0.2,0.4,0.4
		c0.1,0.2,0.2,0.2,0.3,0.2c0.1-0.1,0.2-0.1,0.3-0.1c0,0,0.1,0,0.1,0.1c-0.3,0.3-0.5,0.7-0.5,1.1c-0.2,0.2-0.4,0.1-0.6-0.4
		c-0.1-0.1-0.1-0.3-0.1-0.5C86.4,3.8,86.4,3.6,86.4,3.3z M89.2,4.4c0.1-0.1,0.3-0.1,0.5,0.2c0.2,0.2,0.2,0.4-0.1,0.7
		c-0.2,0.2-0.4,0.4-0.6,0.5c-0.2,0.2-0.3,0.3-0.2,0.4C89,6.2,89,6.3,89,6.3c0,0,0.2,0,0.4-0.1c0.4-0.1,0.7,0.1,0.9,0.6
		c0.1,0.2,0.1,0.6,0.1,1.1c0,0.7,0.1,1.4,0.2,2.1c0,0.5,0,1-0.1,1.3c-0.2,0.7-0.6,0.8-1.1,0.4L89,11.3c-0.3-0.3-0.5-0.5-0.5-0.5
		c0,0,0.2,0,0.5,0.1c0.2,0.1,0.4,0.1,0.6,0.1c0.1,0,0.1-0.2,0.2-0.5c0.1-1.1,0.1-2.3,0-3.6c-0.1-0.2-0.2-0.3-0.6-0.2
		c-0.2,0-0.4,0.1-0.7,0.2c-0.2,0.1-0.3,0.3-0.4,0.6c0,0.1-0.1,0.1-0.1,0.2C87.9,8,87.9,8.1,88.1,8c0.1,0,0.1,0,0.2-0.1
		c0.3-0.2,0.5-0.2,0.5-0.1c0,0.1-0.1,0.2-0.4,0.4c-0.2,0.2-0.4,0.3-0.6,0.5c-0.4,0.3-0.6,0.1-0.6-0.5c0-0.2,0.1-0.3,0.3-0.4
		c0.3-0.2,0.4-0.4,0.5-0.6c0,0-0.1,0-0.4,0.1c-0.2,0.2-0.5,0.1-0.7-0.1c0,0,0.1-0.1,0.4-0.2l1-0.4c0.2-0.1,0.2-0.2-0.1-0.4
		c-0.1-0.1-0.2-0.1-0.3-0.1c-0.3-0.1-0.4-0.2-0.4-0.2c0-0.1,0.2-0.1,0.4-0.2c0,0,0.1,0,0.1,0c0.2,0,0.4-0.1,0.6-0.4
		c0.2-0.3,0.1-0.4-0.1-0.3c-0.3,0.1-0.6,0.3-0.9,0.5c-0.4,0.2-0.7,0.2-1-0.1c-0.1-0.2-0.2-0.2-0.1-0.2c0.1,0,0.3,0,0.4-0.1
		C87.7,4.9,88.4,4.6,89.2,4.4z M88.2,0.8c0.3-0.1,0.7-0.1,1,0.1c0.5,0.3,0.4,0.6-0.2,0.9c-0.6,0.4-1.2,0.6-1.8,0.9
		c-0.3,0-0.4,0-0.4,0c0-0.1,0-0.2,0.2-0.2c0.3-0.2,0.7-0.5,1.1-0.9c0.2-0.3,0.2-0.5,0.2-0.5C88.2,0.9,88.2,0.8,88.2,0.8z M88.3,8.7
		c0.4-0.4,0.7-0.4,0.9,0c0,0.1-0.1,0.3-0.2,0.5l-0.1,0.2c-0.1,0.2-0.1,0.3,0.1,0.4c0.2,0.1,0.3,0.3,0.3,0.7
		c-0.2,0.2-0.4,0.1-0.6-0.1c-0.2-0.2-0.4-0.1-0.7,0.1c-0.1,0.1-0.3,0.1-0.5,0.1c-0.1,0,0-0.1,0.2-0.3c0.2-0.2,0.3-0.3,0.1-0.4
		c-0.1-0.1-0.2-0.1-0.2-0.2c0,0,0.1-0.1,0.3-0.1c0.2,0,0.3-0.1,0.4-0.2c0.1-0.2,0-0.2-0.3-0.1c-0.2,0.1-0.4,0.1-0.5,0.1
		c-0.1,0,0-0.1,0.3-0.3C87.9,9.1,88.1,8.9,88.3,8.7z M87.7,2.9c0.1-0.1,0.2-0.1,0.3,0.2c0.1,0.1,0.2,0.1,0.3,0
		c0.1-0.1,0.1-0.2,0.2-0.2c0.1,0,0,0.2-0.1,0.5c-0.1,0.2-0.1,0.5-0.1,0.9C88.2,4.3,88,4.3,87.8,4c-0.1-0.1-0.1-0.4-0.1-0.6
		C87.8,3.2,87.8,3.1,87.7,2.9z M89.3,2c0.5-0.1,0.8,0.1,1,0.6c0.1,0.2,0,0.5-0.4,0.8c-0.6,0.5-1,0.8-1.3,0.8c0-0.1-0.1-0.1-0.1-0.2
		c0.4-0.4,0.8-0.8,1-1.1c0.2-0.3,0.2-0.6-0.2-0.7C89.1,2.1,89.2,2.1,89.3,2z M88.6,7.3c0-0.1,0.1,0,0.3,0c0.4,0.2,0.6,0.5,0.5,0.9
		c-0.1,0.2-0.1,0.2-0.3,0.1C89,8.2,88.9,8,88.8,7.7C88.7,7.5,88.6,7.3,88.6,7.3z M93.8,6.2c0.4-0.1,0.7,0,0.8,0.3
		c0,0.1-0.1,0.2-0.3,0.3c-0.2,0.1-0.3,0.2-0.5,0.3c-0.2,0.2-0.3,0.4-0.4,0.7c0,0.1,0,0.2,0,0.2c0,0.2,0.1,0.3,0.3,0.3
		C93.9,8.3,94,8.3,94,8.2c-0.2-0.3-0.3-0.4-0.2-0.5c0.4,0.2,0.7,0.3,1.1,0.5c0.2,0,0.4,0.1,0.5,0.2c0.2,0.2,0.2,0.3,0,0.6
		c-0.1,0.1-0.2,0.1-0.5,0c-0.5-0.1-0.9-0.1-1.2,0c-0.2,0-0.3,0.2-0.3,0.4c0,1,0,2-0.2,2.8c0,0.3-0.1,0.5-0.2,0.6c0,0-0.1,0-0.1-0.1
		c-0.1-0.7-0.1-1.8-0.1-3.2c0-0.2-0.1-0.3-0.4-0.2c-0.3,0.1-0.6,0.2-0.9,0.4c-0.2,0.2-0.3,0.2-0.5,0c-0.2-0.2-0.3-0.4-0.2-0.5
		c0-0.1,0.1-0.2,0.2-0.2c0.2,0,0.3-0.1,0.5-0.3c0.3-0.3,0.7-0.6,1-0.9c0.2-0.2,0.3-0.3,0.3-0.4c-0.4,0.1-0.8,0.1-1.2,0
		c0,0-0.1-0.1-0.1-0.1c0,0,0.1-0.1,0.4-0.2C92.6,6.9,93.2,6.6,93.8,6.2z M93.8,2.8c0.6-0.2,1-0.1,1.2,0.2c0,0.1,0,0.2-0.1,0.2
		c-0.7,0.1-1.4,0.2-2.1,0.5C92.2,4,91.7,4,91.2,3.8c-0.2-0.1-0.3-0.2-0.3-0.3c0-0.1,0.1-0.1,0.4-0.2C92.2,3.2,93,3,93.8,2.8z
		 M91.6,4.5c0-0.1,0.1-0.1,0.2,0c0.1,0.1,0.2,0.2,0.3,0.4c0.1,0.2,0.2,0.2,0.4,0c0.2-0.1,0.3-0.2,0.3-0.1c0,0.1-0.1,0.2-0.2,0.5
		c-0.1,0.2-0.2,0.4-0.2,0.5c0,0.2,0,0.4-0.2,0.4c-0.1,0-0.2-0.2-0.4-0.4c-0.1-0.1-0.1-0.3-0.1-0.5C91.8,4.9,91.8,4.7,91.6,4.5z
		 M92.1,1.3C91.9,1,92,0.9,92.2,0.9c0.3-0.1,0.7,0,1,0.2c0.2,0.1,0.3,0.3,0.2,0.7c0,0.3-0.1,0.6-0.3,0.9c-0.1,0-0.1-0.1-0.3-0.4
		C92.8,2,92.5,1.6,92.1,1.3z M92.8,8.2c0-0.2-0.1-0.2-0.4,0c-0.1,0.1-0.2,0.2-0.3,0.3c-0.2,0.2-0.2,0.3,0.1,0.2l0.3-0.1
		C92.7,8.6,92.8,8.4,92.8,8.2z M93.7,4.1C94,3.9,94.3,3.9,94.5,4c0.4,0.1,0.4,0.4,0.2,0.7c-0.7,0.6-1.1,1-1.4,1.2
		C93,6,92.9,6,92.8,6c0-0.1,0.1-0.2,0.4-0.5c0.4-0.4,0.6-0.8,0.7-1.1c0-0.1,0-0.1-0.1-0.1C93.7,4.2,93.7,4.1,93.7,4.1z"/>
	<path d="M105.7,3.4c0.5-0.2,0.9-0.2,1.3,0.1c0.4,0.3,0.3,0.6-0.1,0.6c-0.4-0.1-1,0-1.8,0.1c-0.2,0-0.3,0.1-0.2,0.2
		c0.1,0.3,0,0.8-0.4,1.3c-0.3,0.5-0.7,1.2-1.1,2.1c-0.1,0.2,0,0.4,0.2,0.6c1,1,2.1,1.7,3.1,2.1l1,0.4c0.6,0.3,0.9,0.7,1.2,1
		c0,0.1-0.1,0.2-0.4,0.2c-0.9,0.1-1.7-0.1-2.3-0.4c-0.8-0.7-1.7-1.6-2.8-2.8c-0.2-0.2-0.4-0.2-0.6,0.1c-0.4,0.8-1,1.4-1.7,1.8
		c-0.8,0.4-1.5,0.5-2.2,0.5c-0.3-0.1-0.4-0.1-0.4-0.2c0,0,0-0.1,0.1-0.1c1.5-0.1,2.8-1,3.9-2.6c0.1-0.2,0.1-0.4-0.2-0.7
		c-0.4-0.4-0.9-0.7-1.4-0.9c-0.1-0.1,0-0.2,0.1-0.2c0.3,0,0.7,0.2,1.1,0.5l0.5,0.4c0.2,0.2,0.4,0.1,0.5-0.1c0.5-1,0.8-1.9,1.1-2.6
		c0.1-0.2,0-0.3-0.3-0.2c-0.9,0.2-1.8,0.5-3,1c-0.6,0.4-1.1,0.5-1.7,0.3c-0.4-0.1-0.7-0.3-0.7-0.6c0-0.1,0.2-0.1,0.4-0.1
		c0.3,0,0.6-0.1,1-0.2c1.5-0.5,2.9-0.8,4.1-1.1C104.7,3.7,105.2,3.5,105.7,3.4z M102.4,1.3c0-0.1,0.1-0.1,0.4,0
		c0.2,0.1,0.5,0.1,0.9,0.1c0.2,0,0.3,0.1,0.5,0.1c0.3,0.1,0.5,0.3,0.5,0.6c0,0.1-0.1,0.3-0.3,0.4c-0.1,0-0.3,0-0.7,0
		c-0.2,0-0.3,0.1-0.5,0.2c-0.3,0.2-0.4,0.3-0.4,0.2c0-0.1,0.1-0.2,0.3-0.4c0.2-0.2,0.3-0.3,0.3-0.4c0,0-0.2-0.2-0.4-0.3
		C102.5,1.5,102.4,1.3,102.4,1.3z"/>
</g>
</svg>
