<svg xmlns="http://www.w3.org/2000/svg" width="110" height="16"><path fill="#000" fill-rule="nonzero" d="M4.404 6.129c1.39 0 1.439.375 1.488 1.11.098.099.44.099.539 0-.016-.571-.033-.882-.033-1.437 0-.556.017-.915.033-1.406-.098-.098-.441-.098-.54 0-.048.9-.097 1.112-1.487 1.112h-1.52V2.076c0-.393.197-.556.589-.556h1.716c1.226 0 1.487.654 1.847 1.781l.506-.081C7.444 2.55 7.2.98 7.182.85 7.167.817 7.15.8 7.118.8c-.294.066-.376.066-.768.066H2.182S.89.85.074.833c-.099.099-.099.442 0 .54 1.144.049 1.421.13 1.421 1.487v6.554c0 1.356-.277 1.438-1.421 1.487-.099.098-.099.441 0 .539.8-.016 1.29-.033 2.124-.033.817 0 1.291.017 2.108.033.098-.098.098-.441 0-.54-1.144-.048-1.421-.13-1.421-1.486V6.129h1.52m4.928.098v3.187c0 1.356-.196 1.421-1.21 1.487-.098.098-.098.441 0 .539.687-.016 1.21-.033 1.864-.033.67 0 1.274.017 1.977.033.098-.098.098-.441 0-.54-1.144-.081-1.34-.13-1.34-1.486V7.142c0-.425.196-.801.392-1.095.18-.262.556-.8.752-.8.114 0 .245.015.343.113.164.164.327.474.67.474.392 0 .768-.408.768-.817 0-.31-.294-.784-.98-.784-.768 0-1.438.719-1.814 1.356-.098.18-.147.098-.147.017 0-.523.081-1.308.081-1.308 0-.065-.081-.114-.212-.114-.458.18-1.111.327-2.24.474-.032.098-.032.36.034.457.882.082 1.062.213 1.062 1.112m5.901-4.61c0 .426.392.85.785.85.457 0 .85-.424.85-.784 0-.392-.344-.85-.785-.85-.392 0-.85.393-.85.785m1.487 7.796V6.16c0-.817.066-1.863.066-1.863 0-.065-.082-.114-.213-.114-.474.18-1.111.327-2.239.474-.032.098 0 .36.033.457.882.098 1.062.18 1.062 1.112v3.187c0 1.356-.18 1.405-1.176 1.487-.098.098-.098.441 0 .539.686-.016 1.11-.033 1.83-.033.703 0 1.111.017 1.814.033.098-.098.098-.441 0-.54-.997-.065-1.177-.13-1.177-1.486m7.036-7.796c0 .425.392.85.784.85.458 0 .85-.425.85-.785 0-.392-.343-.85-.784-.85-.393 0-.85.393-.85.785m1.487 7.796V6.16c0-.817.065-1.863.065-1.863 0-.065-.081-.114-.212-.114-.474.18-1.111.327-2.24.474-.032.098 0 .36.034.457.882.098 1.062.18 1.062 1.112v3.187c0 1.356-.18 1.405-1.177 1.487-.098.098-.098.441 0 .539.687-.016 1.111-.033 1.83-.033.703 0 1.112.017 1.815.033.098-.098.098-.441 0-.54-.997-.065-1.177-.13-1.177-1.486m4.486-3.857c-.05.065-.164.228-.164 0 0-.49.082-1.242.082-1.242 0-.082-.065-.131-.196-.131-.458.18-1.128.327-2.255.474-.033.098 0 .36.032.457.883.082 1.063.164 1.063 1.112v3.187c0 1.34-.164 1.405-1.144 1.487-.098.098-.098.441 0 .539.67-.016 1.095-.033 1.797-.033.638 0 .932.017 1.618.033.098-.098.098-.441 0-.54-.833-.081-.98-.146-.98-1.486v-2.68a.96.96 0 0 1 .278-.687c.62-.605 1.258-.964 1.895-.964.327 0 .67.212.866.588.164.327.197.768.197 1.258v2.485c0 1.34-.164 1.405-1.014 1.487-.081.098-.081.441 0 .539.687-.016 1.014-.033 1.667-.033.67 0 1.03.017 1.733.033.081-.098.081-.441 0-.54-.916-.081-1.095-.146-1.095-1.486V6.978c0-.898-.066-1.683-.442-2.19-.277-.36-.784-.555-1.356-.555-.8 0-1.585.212-2.582 1.324m6.523 3.595c.066.8.115 1.569.115 2.255a2.43 2.43 0 0 1 .408-.049c.115 0 .213 0 .327.033.441.114.883.18 1.487.18.915 0 2.599-.441 2.599-2.06 0-1.11-.817-1.748-1.912-2.173-.981-.376-1.635-.621-1.635-1.52 0-.67.589-1.046 1.144-1.046.36 0 1.308.13 1.52 1.52.098.098.425.082.523-.016 0-.589.082-1.193.098-1.733-.506-.081-1.29-.31-2.14-.31-1.21 0-2.305.784-2.305 1.83 0 1.193.54 1.7 1.798 2.223 1.34.572 1.667.899 1.667 1.601 0 .801-.785 1.144-1.39 1.144-.637 0-.996-.212-1.16-.392-.392-.376-.54-1.095-.637-1.503-.098-.098-.409-.082-.507.016m10.26-1.553v2.174c0 .213-.098.327-.228.425-.425.343-.98.703-1.439.703-.817 0-1.176-.654-1.176-1.16 0-.736.343-1.471 1.552-1.798l1.291-.344m0 3.024c.098.343.376.948 1.259.948.8 0 1.389-.654 1.389-.736 0-.114-.147-.277-.212-.277-.099 0-.164.261-.507.261-.637 0-.654-.637-.654-1.39V6.996c0-2.32-1.275-2.762-2.468-2.762-1.34 0-2.696.931-2.696 1.814 0 .392.196.572.572.572.474 0 .719-.327.719-.54a.735.735 0 0 0-.05-.294 1.13 1.13 0 0 1-.032-.326c0-.507.736-.687 1.357-.687.555 0 1.323.278 1.323 2.125 0 .114-.049.18-.098.196l-1.405.343c-1.569.392-2.697 1.258-2.697 2.37 0 1.29.916 1.765 2.06 1.765.751 0 1.062-.131 1.78-.687l.328-.261h.032m4.708-3.824c.31-1.847 1.454-1.994 1.846-1.994.621 0 1.357.343 1.357 1.716 0 .147-.065.229-.245.229l-2.958.049m4.282 3.088c-.605.621-1.08.883-2.027.883-.588 0-1.275-.343-1.781-1.177-.327-.539-.523-1.29-.523-2.239l4.347.033c.196 0 .31-.098.31-.278 0-1.373-.49-2.844-2.762-2.844-1.421 0-3.268 1.357-3.268 3.841 0 .915.229 1.798.768 2.419.556.654 1.324 1.046 2.5 1.046 1.243 0 2.125-.572 2.779-1.422-.05-.163-.147-.245-.343-.262m2.406-.473c0 1.356-.18 1.421-1.095 1.487-.098.098-.098.441 0 .539.687-.016 1.063-.033 1.749-.033.572 0 .784.017 1.487.033.098-.098.098-.441 0-.54-.67-.065-.85-.13-.85-1.486V7.943c.376.016.605.13.932.588l1.193 1.683c.327.474.376.67.376.883v.261c0 .05.016.082.065.082.327-.016.638-.033 1.128-.033.507 0 .85.017 1.34.033.098-.098.098-.441 0-.54-.556-.065-1.046-.13-1.405-.686l-1.913-2.827a.39.39 0 0 1-.081-.229.21.21 0 0 1 .065-.163l1.242-1.373c.474-.49.98-.686 1.798-.72.098-.097.098-.44 0-.538-.605.016-.834.032-1.422.032-.621 0-.899-.016-1.504-.032-.098.098-.098.44 0 .539.981.049.458.67.295.833-.867.948-1.684 1.667-2.109 1.798V1.88c0-1.062.066-1.716.066-1.716C59.266.05 59.2 0 59.053 0c-.408.163-1.634.392-2.288.441-.032.131 0 .392.098.49.85.05 1.046-.032 1.046 1.34v7.143m8.032 0c0 1.356-.18 1.438-1.177 1.487-.098.098-.098.441 0 .539.686-.016 1.111-.033 1.83-.033.703 0 1.112.017 1.814.033.098-.098.098-.441 0-.54-.997-.048-1.176-.13-1.176-1.486V1.879c0-1.062.065-1.716.065-1.716 0-.114-.065-.163-.212-.163-.409.163-1.635.392-2.288.441-.033.131 0 .392.098.49.85.05 1.046-.032 1.046 1.34v7.143m3.426-1.357c0 1.667 1.128 3.514 3.432 3.514 2.435 0 3.465-2.027 3.465-3.661 0-1.7-.899-3.677-3.432-3.677-2.206 0-3.465 1.749-3.465 3.824m3.285-3.285c1.406 0 2.206 1.259 2.206 3.66 0 2.158-.997 2.6-1.765 2.6-1.7 0-2.32-2.092-2.32-3.35 0-1.423.506-2.91 1.88-2.91m7.14 1.16c.506-.522 1.16-.947 1.65-.947 1.046 0 1.945 1.176 1.945 3.023 0 1.34-.474 3.007-2.304 3.007-.295 0-.867-.082-1.16-.343-.344-.294-.393-.376-.393-.98v-3.04c0-.344.049-.49.261-.72m-.13-.539c-.066.066-.164.082-.164-.049 0-.588.066-1.046.066-1.046 0-.065-.082-.114-.213-.114-.457.18-1.078.327-2.206.474-.033.098 0 .36.033.457.882.082 1.062.18 1.062 1.112v6.978c0 1.357-.18 1.438-1.177 1.487-.098.098-.098.442 0 .54.687-.017 1.111-.033 1.83-.033.769 0 1.275.016 1.978.033.098-.098.098-.442 0-.54-1.16-.065-1.34-.13-1.34-1.487V11.44c0-.212.049-.18.229-.114.392.163.899.245 1.422.245.915 0 1.732-.278 2.402-.915.768-.752 1.21-1.765 1.21-3.09 0-1.732-1.226-3.333-2.893-3.333-.605 0-1.504.408-2.24 1.16m7.233-3.775c0 .425.392.85.784.85.458 0 .85-.425.85-.785 0-.392-.343-.85-.784-.85-.392 0-.85.393-.85.785m1.487 7.796V6.16c0-.817.066-1.863.066-1.863 0-.065-.082-.114-.213-.114-.474.18-1.111.327-2.239.474-.033.098 0 .36.033.457.882.098 1.062.18 1.062 1.112v3.187c0 1.356-.18 1.405-1.177 1.487-.098.098-.098.441 0 .539.687-.016 1.112-.033 1.83-.033.704 0 1.112.017 1.815.033.098-.098.098-.441 0-.54-.997-.065-1.177-.13-1.177-1.486m7.117-.033c0 .31-.032.441-.261.637-.605.523-1.128.785-1.536.785-.883 0-1.798-.965-1.798-3.007 0-1.177.229-1.83.474-2.174.506-.768 1.193-.817 1.52-.817.588 0 .997.212 1.323.588.23.262.278.376.278.883V9.38m-.18 1.21c.066-.066.197-.099.197.016 0 .392.18.964.18.964.13.049.18.032.31 0 .36-.294.98-.54 1.977-.654.098-.098.098-.343 0-.441-1.046-.082-1.193-.392-1.193-1.193V1.879c0-1.062.066-1.716.066-1.716 0-.114-.066-.163-.213-.163-.408.163-1.634.392-2.288.441-.032.131 0 .392.098.49.85.05 1.046-.032 1.046 1.34v2.093c0 .114-.032.147-.147.147-.065 0-.735-.278-1.275-.278-1.078 0-1.797.36-2.451.98-.703.703-1.128 1.667-1.128 2.877 0 2.01 1.014 3.48 2.779 3.48.637 0 1.242-.326 2.042-.98m4.28-8.972c0 .425.392.85.784.85.458 0 .85-.425.85-.785 0-.392-.343-.85-.784-.85-.392 0-.85.393-.85.785m1.487 7.796V6.16c0-.817.066-1.863.066-1.863 0-.065-.082-.114-.213-.114-.474.18-1.111.327-2.239.474-.033.098 0 .36.033.457.882.098 1.062.18 1.062 1.112v3.187c0 1.356-.18 1.405-1.177 1.487-.098.098-.098.441 0 .539.687-.016 1.112-.033 1.83-.033.704 0 1.112.017 1.815.033.098-.098.098-.441 0-.54-.997-.065-1.177-.13-1.177-1.486m6.267-1.815v2.174c0 .213-.098.327-.228.425-.425.343-.98.703-1.439.703-.817 0-1.176-.654-1.176-1.16 0-.736.343-1.471 1.552-1.798l1.291-.344m0 3.024c.099.343.376.948 1.259.948.8 0 1.389-.654 1.389-.736 0-.114-.147-.277-.212-.277-.099 0-.164.261-.507.261-.637 0-.654-.637-.654-1.39V6.996c0-2.32-1.275-2.762-2.468-2.762-1.34 0-2.696.931-2.696 1.814 0 .392.196.572.572.572.474 0 .719-.327.719-.54a.735.735 0 0 0-.05-.294 1.13 1.13 0 0 1-.032-.326c0-.507.736-.687 1.357-.687.555 0 1.323.278 1.323 2.125 0 .114-.049.18-.098.196l-1.405.343c-1.569.392-2.697 1.258-2.697 2.37 0 1.29.916 1.765 2.06 1.765.751 0 1.062-.131 1.78-.687l.328-.261h.032"/></svg>