<?xml version="1.0" encoding="UTF-8"?>
<svg width="120px" height="21px" viewBox="0 0 120 21" version="1.1" xmlns="http://www.w3.org/2000/svg" xmlns:xlink="http://www.w3.org/1999/xlink">
    <title>mrj-wordmark</title>
    <g id="Page-1" stroke="none" stroke-width="1" fill="none" fill-rule="evenodd">
        <path d="M4.64499582,2.02737446 L4.64499582,7.37809623 L6.59538067,7.37809623 C9.08467846,7.37809623 10.3293414,6.37296985 10.3293414,4.36269687 C10.3293414,3.15655733 9.98715816,2.27973248 9.302823,1.73224253 C8.61846844,1.17624226 7.82719466,0.898211809 6.92899922,0.898211809 C6.17621246,0.898211809 5.63729084,0.936720462 5.31223273,1.01367712 C4.99571747,1.09069443 4.80324556,1.19762922 4.73481619,1.3344815 C4.67493089,1.46280324 4.64499582,1.6937743 4.64499582,2.02737446 M4.64499582,8.27630804 L4.64499582,14.4225923 C4.64499582,15.5945289 5.37210731,16.1847725 6.82634728,16.1933233 C8.66551712,16.1933233 9.91444654,15.8810899 10.5731396,15.256623 C11.2318106,14.6321764 11.5611635,13.7681878 11.5611635,12.6646773 C11.5611635,11.3815205 11.133436,10.3293549 10.2780155,9.50812001 C9.43112797,8.68692551 8.15653562,8.27630804 6.45423443,8.27630804 L4.64499582,8.27630804 M3.51582548,0.0513246564 C3.90076566,0.0513448709 4.46962741,0.0427941306 5.22241235,0.0256724355 C5.97518618,0.00857095483 6.50127644,8.8817842e-15 6.80068435,8.8817842e-15 C10.5645743,8.8817842e-15 12.4465227,1.34731771 12.4465356,4.04191271 C12.4465227,4.72627515 12.2070021,5.38496516 11.7279727,6.01796252 C11.2489191,6.6510003 10.6586716,7.14285991 9.95722854,7.49358176 L9.95722854,7.54490642 C11.1804847,7.89564849 12.1599534,8.45595445 12.8956375,9.22582429 C13.6312949,9.99573457 13.9991447,10.9751885 13.9991447,12.1642468 C13.9991447,12.7801629 13.8922014,13.3618558 13.6783577,13.9093255 C13.4730401,14.4482445 13.1351449,14.9657766 12.6646707,15.4619419 C12.1941705,15.9495362 11.5055485,16.3387465 10.5988025,16.629593 C9.70058889,16.9118887 8.62702282,17.0530466 7.37810109,17.0530466 C6.50555342,17.0530466 5.71855683,17.0444757 5.01710867,17.0273742 C4.3156498,17.0102727 3.82377686,17.0017018 3.54148842,17.0017018 C2.97690001,17.0017018 1.83917671,17.0188235 0.128314875,17.0530466 C0.0427712882,16.9846003 0,16.8477278 0,16.6424292 C0,16.4285798 0.0427712882,16.2788711 0.128314875,16.1933233 C1.11206016,16.1591203 1.73652497,16.0136971 2.00171092,15.7570536 C2.2754466,15.5004303 2.41231545,14.8460258 2.41231828,13.79384 L2.41231828,3.25918643 C2.41231545,2.20702087 2.2754466,1.55690182 2.00171092,1.30880906 C1.73652497,1.05220599 1.11206016,0.906782764 0.128314875,0.872539373 C0.0427712882,0.804113236 0,0.662975485 0,0.449105904 C0,0.235256538 0.0427712882,0.0855680467 0.128314875,8.8817842e-15 C1.8819482,0.0342433903 3.01111733,0.0513448709 3.51582548,0.0513246564 M19.0932422,5.72283058 C19.0932382,5.7228508 20.1539728,5.70574932 22.2754493,5.67150593 L22.3524381,5.72283058 L22.3524381,6.39007133 C22.3524308,6.49274086 22.2925506,6.54406551 22.1727974,6.5440453 L21.3259197,6.59539017 C20.7869918,6.62961335 20.4576508,6.71516118 20.3378958,6.85201345 C20.2266844,6.9803352 20.1710814,7.31395557 20.1710864,7.85287457 L20.1710864,14.1146242 L25.958084,7.59623108 C25.958073,7.22840774 25.9024702,6.97178446 25.7912748,6.82634102 C25.6886123,6.67238726 25.4191514,6.57828869 24.9828914,6.5440453 C24.8973385,6.54406551 24.8545668,6.5012916 24.8545768,6.41574377 L24.8545768,5.72283058 L24.9059026,5.67150593 C25.7442154,5.70574932 26.4285602,5.7228508 26.9589394,5.72283058 L30.1411465,5.67150593 L30.1668095,5.72283058 L30.1668095,6.39007133 C30.1668095,6.49274086 30.1111913,6.54406551 30.0000001,6.5440453 L29.165954,6.59539017 C28.6612356,6.62961335 28.344726,6.71516118 28.2164244,6.85201345 C28.096651,6.9803352 28.0367707,7.31395557 28.0367837,7.85287457 L28.0367837,14.9230027 C28.0367707,15.4106172 28.1009282,15.7314014 28.229256,15.8853753 C28.3575575,16.0307986 28.6697897,16.1120609 29.165954,16.1291624 L30.0000001,16.1933233 C30.1026371,16.1933233 30.1582399,16.2446479 30.1668095,16.3472972 L30.1668095,17.0017018 L30.1411465,17.0530466 C28.6355726,17.0188235 27.5748379,17.0017018 26.9589394,17.0017018 C26.3943429,17.0017018 25.3592714,17.0188235 23.8537213,17.0530466 L23.8023954,17.0017018 L23.8023954,16.321645 C23.8023865,16.2360972 23.8451582,16.1933233 23.9307101,16.1933233 L24.8032509,16.1291624 C25.3079455,16.1120609 25.6244549,16.0265131 25.7527803,15.8725391 C25.8896386,15.7185652 25.958073,15.4020463 25.958084,14.9230027 L25.958084,8.72541395 L20.1710864,15.243807 L20.1710864,15.2951317 C20.1710814,15.6287521 20.2309616,15.8511522 20.3507272,15.9623522 C20.4790366,16.0735725 20.7698833,16.1505494 21.223268,16.1933233 C21.3259134,16.1933233 21.3815165,16.2446479 21.3900771,16.3472972 L21.3900771,17.0017018 L21.3515826,17.0530466 L19.0932422,17.0017018 C18.5286536,17.0017018 17.4978591,17.0188235 16.0008556,17.0530466 L15.9751926,17.0017018 L15.9751926,16.321645 C15.9751926,16.2360972 16.0179632,16.1933233 16.1035074,16.1933233 L17.001711,16.1291624 C17.5064134,16.1120609 17.8143686,16.0350638 17.9255775,15.8982116 C18.0453351,15.7613391 18.1052152,15.4533709 18.1052183,14.9743273 L18.1052183,7.8785268 C18.1052152,7.31395557 18.0496122,6.96749898 17.938409,6.83917723 C17.8357544,6.7108757 17.523522,6.62961335 17.001711,6.59539017 L16.1548333,6.5440453 C16.0350719,6.54406551 15.9751926,6.5012916 15.9751926,6.41574377 L15.9751926,5.72283058 L16.0521815,5.67150593 C17.2925556,5.70574932 18.3062416,5.7228508 19.0932422,5.72283058 M32.0402055,17.0017018 L32.0402055,16.3986219 C32.0402055,16.2959726 32.1086391,16.2275465 32.2455092,16.1933233 L32.7715999,16.1291624 C33.2420853,16.0778377 33.5543177,15.9794739 33.7082979,15.8340507 C33.8708273,15.6800767 33.9520932,15.4106172 33.9520961,15.0256722 L33.9520961,7.75020505 C33.9520932,7.38238171 33.8622729,7.10865695 33.682635,6.92899033 C33.5115462,6.7408134 33.2078681,6.62961335 32.7715999,6.59539017 L32.2455092,6.5440453 C32.1086391,6.50984234 32.0402055,6.4414162 32.0402055,6.33874667 L32.0402055,5.72283058 L32.0915314,5.67150593 C33.3490142,5.70574932 34.30282,5.7228508 34.9529513,5.72283058 L37.5834045,5.67150593 L37.6347311,5.72283058 L37.6347311,6.2745858 C37.6347251,6.44568146 37.5534587,6.53551477 37.3909326,6.5440453 C36.9204393,6.59539017 36.5739896,6.69377422 36.3515828,6.83917723 C36.1377197,6.97604972 36.030791,7.26263092 36.0307958,7.69888039 L36.0307958,10.5859782 C36.9033305,10.5859782 37.579121,10.3806796 38.0581687,9.97006213 C38.545759,9.55946488 38.9478115,8.95209953 39.2643284,8.14798629 C39.9828837,6.37725533 40.8939176,5.49187974 41.9974341,5.49187974 C42.9469523,5.49187974 43.4174391,5.88537551 43.4088965,6.67236705 C43.4088844,6.93756128 43.3019556,7.17279761 43.0881103,7.37809623 C42.8827935,7.57486433 42.6389963,7.67322817 42.3567148,7.67322817 C42.0829657,7.67322817 41.8306138,7.59625129 41.5996589,7.44225711 C41.4028989,7.32250631 41.2018716,7.25834544 40.996579,7.2497947 C40.8425909,7.2497947 40.6543958,7.38666719 40.4319936,7.66039195 C40.2095713,7.93413693 40.0213762,8.26347183 39.8674083,8.64841686 C39.4140209,9.8716983 38.7211219,10.6159159 37.7887092,10.8810899 L37.7887092,10.9837393 C39.3113696,10.9837595 40.337887,11.6039408 40.8682633,12.8443035 C41.8520007,15.0171012 42.7074305,16.1591203 43.4345588,16.2703204 L43.678358,16.2959726 C43.8750938,16.2959726 43.9691923,16.3729697 43.9606497,16.5269437 L43.9606497,17.0017018 L43.8836607,17.0530466 L41.8947827,17.0273742 C40.8425909,17.0102727 39.9572193,16.0136971 39.2386661,14.0376473 C38.9392567,13.2164326 38.5714213,12.6048019 38.1351577,12.2027352 C37.6988819,11.792138 36.9974281,11.5611669 36.0307958,11.5098423 L36.0307958,15.0769968 C36.030791,15.6928927 36.5141095,16.0650217 37.4807531,16.1933233 C37.6176155,16.2275465 37.6860497,16.2959726 37.6860558,16.3986219 L37.6860558,17.0017018 L37.6347311,17.0530466 C36.5654354,17.0188235 35.6715099,17.0017018 34.9529513,17.0017018 L32.0915314,17.0530466 L32.0402055,17.0017018 M48.349017,5.72283058 C48.3490129,5.7228508 49.4097474,5.70574932 51.5312245,5.67150593 L51.6082115,5.72283058 L51.6082115,6.39007133 C51.6082054,6.49274086 51.548324,6.54406551 51.4285711,6.5440453 L50.5816941,6.59539017 C50.042767,6.62961335 49.713426,6.71516118 49.5936692,6.85201345 C49.482459,6.9803352 49.426855,7.31395557 49.426861,7.85287457 L49.426861,14.1146242 L55.2138585,7.59623108 C55.2138464,7.22840774 55.1582444,6.97178446 55.0470484,6.82634102 C54.9443869,6.67238726 54.6749254,6.57828869 54.2386658,6.5440453 C54.1531119,6.54406551 54.110342,6.5012916 54.1103501,6.41574377 L54.1103501,5.72283058 L54.1616768,5.67150593 C54.999989,5.70574932 55.6843352,5.7228508 56.2147136,5.72283058 L59.3969211,5.67150593 L59.4225835,5.72283058 L59.4225835,6.39007133 C59.4225835,6.49274086 59.3669652,6.54406551 59.2557753,6.5440453 L58.4217284,6.59539017 C57.9170103,6.62961335 57.6004995,6.71516118 57.472198,6.85201345 C57.352425,6.9803352 57.2925455,7.31395557 57.2925577,7.85287457 L57.2925577,14.9230027 C57.2925455,15.4106172 57.3567024,15.7314014 57.4850302,15.8853753 C57.6133317,16.0307986 57.9255631,16.1120609 58.4217284,16.1291624 L59.2557753,16.1933233 C59.3584105,16.1933233 59.4140145,16.2446479 59.4225835,16.3472972 L59.4225835,17.0017018 L59.3969211,17.0530466 C57.891346,17.0188235 56.8306115,17.0017018 56.2147136,17.0017018 C55.6501181,17.0017018 54.615046,17.0188235 53.1094951,17.0530466 L53.0581704,17.0017018 L53.0581704,16.321645 C53.0581603,16.2360972 53.1009322,16.1933233 53.1864841,16.1933233 L54.0590255,16.1291624 C54.5637193,16.1120609 54.8802301,16.0265131 55.0085539,15.8725391 C55.1454122,15.7185652 55.2138464,15.4020463 55.2138585,14.9230027 L55.2138585,8.72541395 L49.426861,15.243807 L49.426861,15.2951317 C49.426855,15.6287521 49.4867364,15.8511522 49.6065014,15.9623522 C49.734811,16.0735725 50.0256574,16.1505494 50.4790428,16.1933233 C50.581688,16.1933233 50.6372901,16.2446479 50.6458509,16.3472972 L50.6458509,17.0017018 L50.6073564,17.0530466 L48.349017,17.0017018 C47.7844275,17.0017018 46.7536328,17.0188235 45.2566306,17.0530466 L45.2309663,17.0017018 L45.2309663,16.321645 C45.2309663,16.2360972 45.2737382,16.1933233 45.3592819,16.1933233 L46.2574857,16.1291624 C46.7621876,16.1120609 47.0701436,16.0350638 47.1813517,15.8982116 C47.3011086,15.7613391 47.36099,15.4533709 47.3609921,14.9743273 L47.3609921,7.8785268 C47.36099,7.31395557 47.305386,6.96749898 47.1941839,6.83917723 C47.0915285,6.7108757 46.7792971,6.62961335 46.2574857,6.59539017 L45.4106066,6.5440453 C45.2908457,6.54406551 45.2309663,6.5012916 45.2309663,6.41574377 L45.2309663,5.72283058 L45.3079553,5.67150593 C46.5483301,5.70574932 47.5620153,5.7228508 48.349017,5.72283058 M63.3361845,7.8785268 C63.3361825,7.3396078 63.2763011,7.00172216 63.1565442,6.86484967 C63.0367813,6.71942644 62.7202725,6.62961335 62.2070158,6.59539017 L61.3729689,6.5440453 C61.2874251,6.54406551 61.2446532,6.5012916 61.2446532,6.41574377 L61.2446532,5.72283058 L61.2959799,5.67150593 L64.3370396,5.72283058 L72.0102657,5.72283058 L75.1924733,5.67150593 L75.2181356,5.72283058 L75.2181356,6.39007133 C75.2181356,6.49274086 75.1667948,6.54406551 75.0641576,6.5440453 L74.2172805,6.59539017 C73.6954529,6.62961335 73.3746667,6.71516118 73.25492,6.85201345 C73.1436997,6.9803352 73.0880977,7.31395557 73.0881098,7.85287457 L73.0881098,14.8973504 C73.0880977,15.4020463 73.1522545,15.7314014 73.2805823,15.8853753 C73.4174386,16.0307986 73.72967,16.1120609 74.2172805,16.1291624 L75.0641576,16.1933233 C75.1667948,16.1933233 75.2181356,16.2446479 75.2181356,16.3472972 L75.2181356,17.0017018 L75.1924733,17.0530466 C73.9349747,17.0188235 72.8999026,17.0017018 72.0872547,17.0017018 L69.046193,17.0530466 L69.0205307,17.0017018 L69.0205307,16.321645 C69.0205226,16.2360972 69.0632945,16.1933233 69.1488464,16.1933233 L69.9059023,16.1291624 C70.3934885,16.0949594 70.7014446,16.0008609 70.8297703,15.8468869 C70.9666287,15.684342 71.0350629,15.3678433 71.035073,14.8973504 L71.035073,7.77587748 C71.0350629,7.3396078 70.9324116,7.06159756 70.727117,6.94182655 C70.530359,6.81352501 70.2566201,6.74936414 69.9059023,6.74936414 L66.5440544,6.74936414 C66.1933224,6.74936414 65.9153061,6.81781049 65.7100095,6.95466277 C65.5132536,7.08298451 65.4148796,7.35672949 65.4148857,7.77587748 L65.4148857,14.8973504 C65.4148796,15.4020463 65.4790364,15.7314014 65.6073562,15.8853753 C65.7442206,16.0307986 66.0478992,16.1120609 66.5183921,16.1291624 L67.2882801,16.1933233 C67.3738178,16.1933233 67.4165877,16.2446479 67.4165958,16.3472972 L67.4165958,17.0017018 L67.3909335,17.0530466 C66.1676601,17.0188235 65.1582503,17.0017018 64.3627039,17.0017018 L61.2703176,17.0530466 L61.2061587,17.0017018 L61.2061587,16.321645 C61.2061587,16.2360972 61.2617608,16.1933233 61.3729689,16.1933233 L62.2070158,16.1291624 C62.6946081,16.1120609 63.0025642,16.0222478 63.1308819,15.8597029 C63.2677483,15.6886275 63.3361825,15.3678433 63.3361845,14.8973504 L63.3361845,7.8785268 M79.2600524,9.5851171 L84.0205305,9.50812001 C84.2857065,9.50814023 84.4140202,9.38836922 84.4054755,9.14884742 C84.4054674,8.14800651 84.19161,7.43799185 83.7639011,7.01882364 C83.3361781,6.59967565 82.8229194,6.39007133 82.224123,6.39007133 C81.9931499,6.39007133 81.7664623,6.42002924 81.5440541,6.47990464 C81.3216379,6.53978004 81.047899,6.66810179 80.7228394,6.86484967 C80.3977718,7.05304682 80.102648,7.38238171 79.8374679,7.85287457 C79.5722817,8.32336744 79.3798092,8.90077487 79.2600524,9.5851171 M86.1505563,14.5637301 C86.4499474,14.5808315 86.6338651,14.717704 86.7023095,14.9743273 C85.5303587,16.497006 84.0376319,17.2583453 82.224123,17.2583453 C80.487593,17.2583453 79.1488422,16.6980393 78.2078706,15.5774072 C77.3866539,14.6278909 76.9760485,13.3319181 76.9760485,11.6894684 C76.9760485,9.83318964 77.5320771,8.34046892 78.6441403,7.21128605 C79.7561995,6.08212339 80.949525,5.51753196 82.224123,5.51753196 C85.1839082,5.51753196 86.6638049,7.0402106 86.663815,10.0855477 C86.6638049,10.3849449 86.5012721,10.5346536 86.1762186,10.5346536 L79.1830633,10.4833289 C79.1830593,11.9546627 79.4610756,13.1565572 80.0171082,14.0889719 C80.7869922,15.3464563 81.7450754,15.9751884 82.8913597,15.9751884 C83.6270246,15.9751884 84.2258271,15.8725391 84.6877672,15.6672405 C85.1582459,15.4533709 85.6458423,15.0855476 86.1505563,14.5637301 M88.4345601,20.3635577 L88.6013682,16.8734002 C88.6184778,16.4884552 88.8793825,16.2617696 89.3840885,16.1933233 C90.3678339,16.090674 90.9195871,15.7485028 91.0393501,15.1668099 C91.7236923,12.2583454 92.0658634,9.67066494 92.0658695,7.40376867 C92.0658634,6.91617433 91.6894752,6.64671483 90.9366987,6.59539017 L90.1668087,6.5440453 C90.0299382,6.54406551 89.961504,6.5012916 89.961506,6.41574377 L89.961506,5.72283058 L90.0641573,5.67150593 C91.5183876,5.70574932 92.4037592,5.7228508 92.720274,5.72283058 L98.0581697,5.72283058 C98.0581596,5.7228508 99.0461824,5.70574932 101.022242,5.67150593 L101.047905,5.72283058 L101.047905,6.24893358 C101.047891,6.36870459 100.988011,6.43286546 100.868264,6.44139599 L100.367836,6.49272064 C99.8631198,6.54406551 99.5209466,6.65526557 99.3413184,6.82634102 C99.1702207,6.98888594 99.0846769,7.28828314 99.0846891,7.72455283 L99.0846891,14.9999997 C99.0846769,15.2993969 99.1531112,15.5432042 99.2899917,15.7314014 C99.4268501,15.9110276 99.5594411,16.0222478 99.6877669,16.0650217 C99.8246253,16.1077754 99.9999882,16.1505494 100.213858,16.1933233 C100.684332,16.2617696 100.919577,16.4799045 100.919589,16.8477278 L101.073567,20.3635577 L100.367836,20.3635577 C100.299389,20.0299374 100.196738,19.7006025 100.05988,19.3755328 C99.931554,19.0504632 99.7390815,18.6911906 99.4824643,18.2976948 C99.2343776,17.9041991 98.8922044,17.5876802 98.4559448,17.3481584 C98.0282198,17.1171873 97.5449009,17.0017018 97.0059879,17.0017018 L92.4636447,17.0017018 C90.7955489,17.0017018 89.6920425,18.1308846 89.1531235,20.3892302 L88.4345601,20.3635577 M91.9888805,15.6672405 C91.9888805,15.8810899 92.1642394,15.9837392 92.5149713,15.9751884 L95.9024815,15.9751884 C96.3900698,15.9751884 96.6937464,15.8853753 96.8135154,15.7057289 C96.941821,15.5175318 97.0059879,15.1796462 97.0059879,14.6920518 L97.0059879,8.01968476 C97.0059879,7.51498894 96.941821,7.17279761 96.8135154,6.9931512 C96.6937464,6.81352501 96.3900698,6.7236917 95.9024815,6.7236917 L93.8751071,6.7236917 C93.6783511,6.7236917 93.5158203,6.77930184 93.3875107,6.89050189 C93.259191,6.99317142 93.1779246,7.09153525 93.1437135,7.18563383 C93.1094904,7.2797324 93.0923808,7.35244401 93.0923869,7.40376867 C92.9726219,9.15739816 92.8186439,10.6886275 92.6304528,11.9974366 C92.4422537,13.2976949 92.2882756,14.2215589 92.1685208,14.7690287 C92.0487559,15.3165186 91.9888805,15.6159158 91.9888805,15.6672405 M117.587683,13.79384 C117.587666,14.8460258 117.720259,15.5004303 117.985458,15.7570536 C118.25918,16.0051261 118.887923,16.1505494 119.871686,16.1933233 C119.95721,16.2788711 120,16.4285798 120,16.6424292 C120,16.8477278 119.95721,16.9846003 119.871686,17.0530466 C118.118035,17.0188235 116.988864,17.0017018 116.484174,17.0017018 C115.919577,17.0017018 114.777576,17.0188235 113.058169,17.0530466 C112.989725,16.9846003 112.955508,16.8477278 112.955518,16.6424292 C112.955508,16.4285798 112.989725,16.2788711 113.058169,16.1933233 C114.041905,16.1591203 114.670647,16.0136971 114.944398,15.7570536 C115.218123,15.5004303 115.354991,14.8460258 115.355005,13.79384 L115.355005,4.43969396 C115.192458,4.49103883 115.038482,4.60650415 114.893071,4.78615055 L107.707444,13.7168429 C107.67322,13.7596168 107.600509,13.8451647 107.489307,13.9734864 C107.386649,14.1018082 107.313938,14.1959067 107.271172,14.2557821 C107.236951,14.3156575 107.185624,14.4097561 107.117194,14.5380576 C107.057308,14.6578286 107.005984,14.7947011 106.963218,14.9486751 C107.023091,15.2993969 107.142852,15.5645912 107.322499,15.7442174 C107.502133,15.915313 107.720268,16.0265131 107.976903,16.0778377 C108.233526,16.1291624 108.631302,16.1676711 109.170231,16.1933233 C109.238659,16.2788711 109.272876,16.4285798 109.272884,16.6424292 C109.281431,16.8477278 109.247214,16.9846003 109.170231,17.0530466 C107.416591,17.0188235 106.28742,17.0017018 105.78272,17.0017018 C105.218133,17.0017018 104.08041,17.0188235 102.369548,17.0530466 C102.284004,16.9846003 102.241232,16.8477278 102.241232,16.6424292 C102.241232,16.4285798 102.284004,16.2788711 102.369548,16.1933233 C103.353291,16.1591203 103.977756,16.0136971 104.242942,15.7570536 C104.516679,15.5004303 104.653548,14.8460258 104.65355,13.79384 L104.65355,3.25918643 C104.653548,2.20702087 104.516679,1.55690182 104.242942,1.30880906 C103.977756,1.05220599 103.353291,0.906782764 102.369548,0.872539373 C102.284004,0.804113236 102.241232,0.662975485 102.241232,0.449105904 C102.241232,0.235256538 102.284004,0.0855680467 102.369548,8.8817842e-15 C104.123179,0.0342433903 105.25235,0.0513448709 105.757058,0.0513246564 C106.321639,0.0513448709 107.459361,0.0342433903 109.170231,8.8817842e-15 C109.238659,0.0855680467 109.272876,0.235256538 109.272884,0.449105904 C109.281431,0.654424744 109.247214,0.795562496 109.170231,0.872539373 C108.186479,0.906782764 107.557737,1.05220599 107.284004,1.30880906 C107.018814,1.55690182 106.886223,2.20702087 106.886229,3.25918643 L106.886229,12.6133527 C107.014538,12.6048019 107.168514,12.5064179 107.348161,12.3182208 L114.572285,3.33618352 C114.863117,2.97691093 115.094085,2.55347746 115.265184,2.0658629 C115.171074,1.57828877 114.974324,1.26605536 114.674937,1.12916266 C114.384078,0.983759641 113.845155,0.898211809 113.058169,0.872539373 C112.989725,0.804113236 112.955508,0.662975485 112.955518,0.449105904 C112.955508,0.235256538 112.989725,0.0855680467 113.058169,8.8817842e-15 C114.811793,0.0342433903 115.945239,0.0513448709 116.458512,0.0513246564 C117.023083,0.0513448709 118.160804,0.0342433903 119.871686,8.8817842e-15 C119.95721,0.0855680467 120,0.235256538 120,0.449105904 C120,0.654424744 119.95721,0.795562496 119.871686,0.872539373 C118.887923,0.906782764 118.25918,1.05220599 117.985458,1.30880906 C117.720259,1.55690182 117.587666,2.20702087 117.587683,3.25918643 L117.587683,13.79384" id="mrj-wordmark" fill="#000000" fill-rule="nonzero"></path>
    </g>
</svg>