<svg xmlns="http://www.w3.org/2000/svg" width="120" height="12"><path fill="#000" fill-rule="nonzero" d="M118.077 5.537v1.567c0 .154-.071.238-.166.309-.309.249-.712.522-1.045.522-.593 0-.854-.475-.854-.843 0-.534.249-1.08 1.127-1.305l.938-.25Zm0 2.196c.071.368.19.689.795.689.451 0 .879-.202 1.128-.44-.024-.142-.071-.237-.202-.32-.095.083-.297.19-.439.19-.344 0-.356-.463-.356-1.009V5.098c0-1.685-.926-2.006-1.792-2.006-.974 0-1.959.641-1.959 1.318 0 .285.142.427.415.427.345 0 .558-.25.558-.404a.534.534 0 0 0-.035-.213.82.82 0 0 1-.024-.238c0-.368.499-.498.95-.498.403 0 .961.202.961 1.543 0 .083-.036.13-.071.142l-1.021.25c-1.14.285-1.959.914-1.959 1.72 0 .974.665 1.283 1.496 1.283.404 0 .772-.095 1.294-.499l.237-.19h.024Zm-5.48-.878c0 .985-.13 1.044-.855 1.08-.07.071-.07.32 0 .392.416-.012.855-.024 1.33-.024.475 0 .926.012 1.317.024.072-.072.072-.32 0-.392-.724-.036-.854-.095-.854-1.08V1.383c0-.772.047-1.247.047-1.247 0-.083-.047-.118-.154-.118-.297.118-1.187.285-1.662.32-.024.095 0 .285.071.356.689.048.76.083.76.974v5.187Zm-3.075-1.318v1.567c0 .155-.07.238-.166.309-.308.25-.712.522-1.044.522-.594 0-.855-.475-.855-.843 0-.534.25-1.08 1.128-1.305l.937-.25Zm0 2.196c.072.368.19.689.796.689.45 0 .878-.202 1.127-.44-.023-.142-.07-.237-.201-.32-.095.083-.297.19-.44.19-.344 0-.356-.463-.356-1.009V5.098c0-1.685-.926-2.006-1.792-2.006-.973 0-1.959.641-1.959 1.318 0 .285.143.427.416.427.344 0 .558-.25.558-.404a.534.534 0 0 0-.036-.213.82.82 0 0 1-.024-.238c0-.368.499-.498.95-.498.403 0 .961.202.961 1.543 0 .083-.035.13-.07.142l-1.022.25c-1.14.285-1.958.914-1.958 1.72 0 .974.664 1.283 1.495 1.283.404 0 .772-.095 1.294-.499l.238-.19h.023Zm-7.87-2.813c0-.26.106-.403.201-.51.451-.44 1.045-.7 1.52-.7.237 0 .486.166.628.427.12.237.143.558.143.914v1.804c0 .973-.119 1.02-.736 1.08-.06.071-.06.32 0 .392.332-.012.736-.024 1.21-.024.475 0 .867.012 1.259.024.06-.071.06-.32 0-.392-.665-.06-.795-.107-.795-1.08V5.086c0-.652-.048-1.222-.32-1.59-.203-.261-.57-.404-.986-.404-.594 0-1.294.155-2.018.962-.048.047-.119.166-.119 0l.012-2.67c0-.772.048-1.247.048-1.247 0-.084-.048-.119-.155-.119-.296.119-1.187.285-1.661.32-.024.095 0 .285.07.357.618.035.76-.024.76.973v5.187c0 .985-.142 1.033-.83 1.08-.072.071-.072.32 0 .392a31.53 31.53 0 0 1 2.469 0c.07-.071.07-.32 0-.392-.594-.047-.7-.095-.7-1.08V4.92Zm-3.93.617v1.567c0 .155-.071.238-.166.309-.309.25-.712.522-1.045.522-.593 0-.854-.475-.854-.843 0-.534.249-1.08 1.127-1.305l.938-.25Zm0 2.196c.071.368.19.689.795.689.451 0 .879-.202 1.128-.44-.024-.142-.071-.237-.202-.32-.095.083-.297.19-.44.19-.343 0-.355-.463-.355-1.009V5.098c0-1.685-.926-2.006-1.793-2.006-.973 0-1.958.641-1.958 1.318 0 .285.142.427.415.427.345 0 .558-.25.558-.403a.534.534 0 0 0-.035-.214.82.82 0 0 1-.024-.237c0-.368.498-.499.95-.499.403 0 .96.202.96 1.543 0 .083-.035.13-.07.143l-1.021.249c-1.14.285-1.959.914-1.959 1.721 0 .973.665 1.282 1.496 1.282.403 0 .771-.095 1.294-.499l.237-.19h.024Zm-10.827-3.68c-.023-.343-.047-.77-.095-.901-.035-.048-.047-.095-.142-.095-.332.13-.641.237-1.46.344-.024.071 0 .261.024.332.64.06.771.119.771.807v2.315c0 .973-.154 1.033-.807 1.08-.071.072-.071.32 0 .392.356-.012.807-.024 1.282-.024s.83.012 1.187.024c.071-.071.071-.32 0-.392-.593-.06-.724-.107-.724-1.08V4.908c0-.249.107-.391.202-.498.463-.451.914-.7 1.282-.7.45 0 .783.284.783 1.08v2.065c0 .973-.095 1.033-.736 1.08-.06.072-.06.32 0 .392a31.297 31.297 0 0 1 2.374 0c.06-.071.06-.32 0-.392-.593-.047-.7-.107-.7-1.08V4.968c0-.166 0-.333-.012-.475.57-.63 1.104-.783 1.567-.783.45 0 .712.26.712 1.056v2.09c0 .972-.119 1.032-.736 1.08-.06.07-.06.32 0 .39a31.368 31.368 0 0 1 2.433 0c.06-.07.06-.32 0-.39-.653-.048-.76-.108-.76-1.08V4.98c0-1.057-.177-1.888-1.222-1.888-.617 0-1.341.226-1.959.879-.035.035-.106.095-.13 0-.119-.487-.57-.879-1.187-.879-.689 0-1.318.416-1.804.962-.06.071-.143.142-.143 0Zm-6.932 1.485v1.566c0 .155-.071.238-.166.31-.309.248-.712.521-1.045.521-.593 0-.855-.474-.855-.842 0-.535.25-1.08 1.128-1.306l.938-.25Zm0 2.196c.071.368.19.688.795.688.451 0 .879-.202 1.128-.44-.024-.142-.071-.237-.202-.32-.095.083-.297.19-.44.19-.343 0-.355-.463-.355-1.009V5.098c0-1.685-.926-2.006-1.793-2.006-.973 0-1.958.641-1.958 1.318 0 .285.142.427.415.427.345 0 .558-.249.558-.403a.534.534 0 0 0-.035-.214.82.82 0 0 1-.024-.237c0-.368.498-.499.95-.499.403 0 .96.202.96 1.543 0 .083-.035.13-.07.143l-1.021.249c-1.14.285-1.959.914-1.959 1.721 0 .973.665 1.282 1.496 1.282.403 0 .771-.095 1.294-.499l.237-.19h.024Zm-7.154 2.469c.178-.321.333-.665.487-1.021.95-2.291 1.472-3.502 2.1-4.843.226-.499.404-.689.962-.76.072-.071.072-.32 0-.392-.237.012-.51.024-.842.024-.356 0-.724-.012-1.08-.024-.072.072-.072.32 0 .392.367.036.76.107.57.534l-1.188 2.718c-.083.202-.178.226-.285-.011L72.49 4.35c-.214-.498-.273-.712.391-.77.072-.072.072-.321 0-.393-.439.012-.914.024-1.34.024-.404 0-.725-.012-.962-.024-.072.072-.072.32 0 .392.463.06.617.166.926.89l1.353 3.122c.095.25.285.784.166 1.116-.143.403-.285.724-.463 1.092-.13.237-.297.344-.594.344-.166 0-.213-.035-.344-.035-.344 0-.522.356-.522.51 0 .25.237.44.558.44.25 0 .724-.096 1.151-.855Zm-7.336-4.665v1.566c0 .155-.071.238-.166.31-.309.248-.712.521-1.045.521-.593 0-.854-.474-.854-.842 0-.535.249-1.08 1.127-1.306l.938-.25Zm0 2.196c.071.368.19.688.795.688.452 0 .879-.202 1.128-.44-.024-.142-.071-.237-.202-.32-.095.083-.296.19-.439.19-.344 0-.356-.463-.356-1.009V5.098c0-1.685-.926-2.006-1.792-2.006-.974 0-1.959.641-1.959 1.318 0 .285.143.427.416.427.344 0 .557-.249.557-.403a.534.534 0 0 0-.035-.214.82.82 0 0 1-.024-.237c0-.368.499-.499.95-.499.403 0 .961.202.961 1.543 0 .083-.035.13-.071.143l-1.02.249c-1.14.285-1.96.914-1.96 1.721 0 .973.665 1.282 1.496 1.282.404 0 .772-.095 1.294-.499l.237-.19h.024Zm-5.609-6.54c0 .308.285.616.57.616.332 0 .617-.308.617-.57 0-.284-.249-.617-.57-.617-.284 0-.617.285-.617.57Zm1.08 5.661V4.493c0-.593.048-1.353.048-1.353 0-.048-.06-.083-.154-.083-.345.13-.808.237-1.627.344-.023.071 0 .261.024.332.641.072.772.131.772.808v2.314c0 .985-.13 1.021-.855 1.08-.071.072-.071.32 0 .392.392-.012.855-.024 1.33-.024.474 0 .925.012 1.317.024.071-.071.071-.32 0-.392-.724-.047-.855-.095-.855-1.08Zm-4.058-.023c0 .225-.023.32-.19.462-.439.38-.818.57-1.115.57-.641 0-1.306-.7-1.306-2.184 0-.855.166-1.33.344-1.579a1.245 1.245 0 0 1 1.104-.593c.428 0 .724.154.962.427.166.19.202.273.202.641v2.256Zm-.13.878c.047-.048.166-.071.178.012.024.297.13.7.13.7.095.036.155.036.226 0 .261-.214.677-.392 1.4-.475.072-.07.072-.249 0-.32-.759-.06-.866-.285-.866-.867V1.383c0-.771.048-1.246.048-1.246 0-.083-.048-.119-.155-.119-.296.119-1.187.285-1.662.32-.023.096 0 .285.072.357.617.035.76-.024.76.973v1.52c0 .082-.024.106-.107.106-.048 0-.535-.202-.926-.202-.784 0-1.306.261-1.78.713-.511.51-.82 1.21-.82 2.089 0 1.46.736 2.528 2.018 2.528.463 0 .902-.237 1.484-.712ZM50.66 1.193c0 .309.285.617.57.617.332 0 .617-.308.617-.57 0-.284-.249-.617-.57-.617-.284 0-.617.285-.617.57Zm1.08 5.662V4.493c0-.593.048-1.353.048-1.353 0-.048-.06-.083-.154-.083-.345.13-.808.237-1.627.344-.023.071 0 .261.024.332.641.072.772.131.772.808v2.314c0 .986-.13 1.021-.855 1.08-.071.072-.071.32 0 .392.392-.012.855-.024 1.33-.024.474 0 .925.012 1.317.024.071-.071.071-.32 0-.392-.724-.047-.855-.095-.855-1.08Zm-6.238-2.48c.309-.38.843-.737 1.2-.737.759 0 1.412.855 1.412 2.196 0 .974-.345 2.184-1.674 2.184-.214 0-.63-.059-.843-.249-.249-.213-.285-.273-.285-.712v-2.16c0-.25.048-.345.19-.523Zm-.225-.44c-.024-.356-.048-.653-.095-.783-.036-.048-.048-.095-.143-.095-.332.13-.64.237-1.46.344-.023.071 0 .261.024.332.641.06.772.12.772.808v5.068c0 .985-.13 1.045-.855 1.08-.071.071-.071.32 0 .392.416-.012.855-.024 1.33-.024.474 0 1.044.012 1.436.024.071-.071.071-.32 0-.392-.843-.047-.974-.095-.974-1.08V8.327c0-.154.036-.13.167-.083.285.119.652.178 1.032.178.665 0 1.259-.202 1.745-.665.558-.546.879-1.282.879-2.243 0-1.258-.89-2.422-2.101-2.422-.558 0-1.164.368-1.627.89-.07.084-.13.072-.13-.047ZM37.93 5.87c0 1.21.808 2.552 2.493 2.552.76 0 1.33-.261 1.733-.665.534-.51.783-1.258.783-1.994 0-1.234-.676-2.67-2.492-2.67-.784 0-1.436.32-1.864.83-.427.51-.653 1.2-.653 1.947Zm2.339-2.362c1.02 0 1.65.926 1.65 2.635 0 1.496-.772 1.864-1.33 1.864-1.234 0-1.638-1.496-1.638-2.41 0-1.033.25-2.09 1.318-2.09Zm-4.827 3.347c0 .985-.13 1.045-.855 1.08-.071.072-.071.32 0 .392.415-.012.855-.024 1.33-.024.474 0 .925.012 1.317.024.071-.071.071-.32 0-.392-.724-.035-.855-.095-.855-1.08V1.383c0-.771.048-1.246.048-1.246 0-.083-.048-.119-.154-.119-.297.119-1.188.285-1.662.32-.024.095 0 .285.07.357.69.047.76.083.76.973v5.187Zm-6.205 0c0 .985-.13 1.033-.795 1.08-.071.072-.071.32 0 .392.392-.012.795-.024 1.27-.024.416 0 .807.012 1.08.024.072-.071.072-.32 0-.392-.486-.047-.617-.095-.617-1.08v-1.02c.226 0 .392.023.51.059.131.083.238.19.38.38l.867 1.163c.344.475.475.7.498.83 0 .036.012.06.048.06a15.183 15.183 0 0 1 1.71 0c.07-.071.07-.32 0-.392-.404-.047-.713-.095-1.022-.498L31.6 5.448c-.048-.047-.083-.107-.083-.166 0-.047 0-.071.047-.119l1.045-1.08c.356-.38.771-.475 1.246-.522.072-.071.072-.32 0-.392-.273.012-.605.024-1.032.024-.451 0-.89-.012-1.164-.024-.07.072-.07.32 0 .392.665.047.38.475.273.605-.273.345-.653.748-.95.974-.272.201-.593.344-.806.368V1.365c0-.771.047-1.246.047-1.246 0-.083-.047-.119-.154-.119-.297.119-1.187.285-1.662.32-.024.095 0 .285.071.357.617.035.76-.024.76.973v5.205ZM24.38 4.947c.226-1.34 1.057-1.448 1.342-1.448.45 0 .985.25.985 1.247 0 .106-.048.166-.178.166l-2.149.035Zm3.11 2.244c-.439.45-.783.64-1.472.64-.427 0-.926-.248-1.293-.854-.238-.392-.38-.938-.38-1.626l3.157.024c.143 0 .226-.072.226-.202 0-.997-.356-2.065-2.006-2.065-1.033 0-2.374.985-2.374 2.789 0 .665.166 1.306.558 1.757.403.474.961.76 1.816.76.902 0 1.543-.416 2.017-1.033-.035-.12-.106-.178-.249-.19ZM20.96 5.529v1.567c0 .154-.07.237-.166.308-.308.25-.712.523-1.044.523-.594 0-.855-.475-.855-.843 0-.534.25-1.08 1.128-1.306l.937-.249Zm0 2.196c.072.368.19.688.796.688.45 0 .878-.201 1.127-.439-.023-.142-.07-.237-.201-.32-.095.083-.297.19-.44.19-.344 0-.356-.463-.356-1.01V5.09c0-1.686-.926-2.006-1.792-2.006-.973 0-1.959.64-1.959 1.317 0 .285.143.428.416.428.344 0 .558-.25.558-.404a.534.534 0 0 0-.036-.214.82.82 0 0 1-.024-.237c0-.368.499-.498.95-.498.403 0 .961.201.961 1.543 0 .083-.035.13-.07.142l-1.022.25c-1.14.284-1.958.913-1.958 1.72 0 .974.664 1.282 1.495 1.282.404 0 .772-.095 1.294-.498l.238-.19h.023ZM13.44 6.657c.047.581.083 1.14.083 1.638.118-.024.237-.036.297-.036.083 0 .154 0 .237.024.32.083.64.13 1.08.13.665 0 1.887-.32 1.887-1.495 0-.807-.581-1.282-1.388-1.579-.724-.261-1.187-.451-1.187-1.104 0-.486.427-.76.83-.76.262 0 .95.096 1.104 1.104.072.072.309.06.38-.011a24.4 24.4 0 0 0 .071-1.259c-.367-.059-.937-.225-1.554-.225-.879 0-1.674.57-1.674 1.33 0 .866.392 1.234 1.306 1.614.985.403 1.21.652 1.21 1.163 0 .581-.57.83-1.009.83-.463 0-.724-.154-.842-.284-.262-.273-.392-.796-.463-1.092-.072-.072-.297-.06-.368.012ZM8.63 4.045c-.083.083-.142.119-.142 0-.012-.32-.048-.771-.095-.902-.036-.047-.048-.095-.143-.095-.332.13-.64.238-1.46.344-.023.072 0 .262.024.333.641.06.772.119.772.807v2.315c0 .973-.12 1.02-.831 1.08-.072.071-.072.32 0 .392.356-.012.83-.024 1.305-.024s.831.012 1.187.024c.072-.072.072-.321 0-.392-.605-.06-.724-.107-.724-1.08V4.9c0-.25.107-.392.202-.499.451-.439.985-.7 1.448-.7.238 0 .487.154.63.427.118.238.142.558.142.914v1.805c0 .973-.119 1.02-.736 1.08-.06.071-.06.32 0 .392a34.16 34.16 0 0 1 1.21-.024c.475 0 .903.012 1.259.024.06-.072.06-.32 0-.392-.665-.06-.795-.107-.795-1.08V5.078c0-.653-.048-1.222-.32-1.59-.203-.262-.57-.404-.986-.404-.582 0-1.246.154-1.947.961ZM3.175 4.01h-1.08V1.873c0-.522.143-.76.783-.76h.89c.891 0 1.08.475 1.342 1.294.142.024.273 0 .392-.06A41.682 41.682 0 0 0 5.24.628c0-.024-.012-.036-.048-.036a2.665 2.665 0 0 1-.582.048H1.585C1.217.639.528.627.053.615c-.07.071-.07.32 0 .392.831.035 1.033.095 1.033 1.08v4.76c0 .985-.202 1.044-1.033 1.08-.07.07-.07.32 0 .391a70.98 70.98 0 0 1 1.544-.023h2.552c.57 0 1.519.023 1.519.023.166-.593.344-1.377.44-1.982-.131-.06-.262-.095-.416-.06-.238.855-.653 1.556-1.555 1.556H2.76c-.499 0-.665-.19-.665-.748V4.46h1.08c1.01 0 1.045.273 1.08.807.072.07.32.07.392 0a25.33 25.33 0 0 1-.024-1.045c0-.332.012-.736.024-1.02-.071-.072-.32-.072-.392 0-.035.652-.07.806-1.08.806Z"/></svg>