<svg xmlns="http://www.w3.org/2000/svg" viewBox="0 0 103 13.42"><path d="M1.193 11.932v-2.78H7.83v2.78zM7.83 5.995v2.721H1.193v-2.72H7.83zm0-3.085v2.678H1.193V2.91zm.48-1.15-.64.743H3.696A14.39 14.39 0 0 0 5.108.683c.305-.014.465-.16.509-.334L3.696.015c-.087.727-.276 1.73-.51 2.488h-1.89L0 1.92V13.4h.204c.538 0 .99-.305.99-.45v-.582h6.635v1.004h.174c.422 0 1-.306 1.033-.422V3.158c.306-.073.524-.204.626-.32zm11.94 10.013v-3.9h3.667v3.9zm-4.743-3.9h3.55v3.9h-3.55zm3.55-4.089v3.653h-3.55V3.783h3.55zm4.86 0v3.653H20.25V3.783h3.667zm.495-1.193-.67.771H20.25V.728c.364-.059.48-.204.524-.408L19.058.131v3.23H15.61l-1.266-.567v10.622h.203c.495 0 .96-.276.96-.422v-.8h8.411v1.12h.175c.422 0 .99-.276 1.004-.392V4.089c.364-.073.655-.218.771-.364L24.413 2.59zm5.671 8.382V7.13h2.823v3.842h-2.823zm2.823-7.887v3.623h-2.823V3.085h2.823zm.451-1.106-.597.684h-1.7c.393-.597.844-1.34 1.164-1.892.306 0 .495-.116.553-.32l-1.76-.407-.199 1.12c-.097.532-.199 1.08-.282 1.499h-.378l-1.164-.539v10.841h.203c.466 0 .888-.276.888-.407v-1.164h2.823v1.12h.16c.393 0 .931-.276.946-.378V3.303c.29-.073.524-.189.626-.305l-1.28-1.019zm7.116-.073-.684.742h-2.94c.277-.582.539-1.18.772-1.819.305 0 .48-.13.538-.305l-1.717-.48c-.451 2.23-1.34 4.5-2.226 5.951l.203.131c.83-.786 1.59-1.85 2.212-3.056h3.303l-.04 1.865c-.104 3.78-.31 6.21-.76 6.762l-.044.046c-.13.16-.247.204-.538.204l-.232-.007a38.051 38.051 0 0 1-1.834-.153l-.015.247c.64.116 1.24.29 1.47.495.233.174.29.494.29.873.787 0 1.38-.219 1.82-.728.698-.844.945-3.91 1.047-9.43.335-.043.51-.115.626-.246zm-4.991 3.827c.698.771 1.47 2.02 1.615 3.012 1.19.96 2.23-1.63-1.47-3.114zm18.214-1.047v3.157h-6.621V4.686h6.62zm-6.621 7.057V8.265h6.62v3.478h-6.62zm7.363-10.448H43.962l.13.408h5.298l-.086.653a65.89 65.89 0 0 1-.293 1.908h-1.833l-1.28-.553v9.676h.203c.524 0 .975-.29.975-.436v-.786h6.62V13.3h.19c.407 0 .99-.291 1.004-.378V4.904c.291-.058.51-.19.597-.306l-1.31-1.033-.626.699h-4.089c.451-.67.975-1.67 1.383-2.561h5.544c.218 0 .364-.073.407-.233l-.819-.657c-.386-.304-.709-.551-.709-.551l-.83 1.033zm11.07.364c.698.538 1.51 1.47 1.76 2.24 1.18.757 1.98-1.63-1.615-2.357l-.146.117zm-.32 3.492c.712.51 1.56 1.43 1.804 2.168 1.21.742 1.99-1.66-1.674-2.299zm-2.46-.35h2.095c.19 0 .335-.072.364-.232L65 4.381c-.436-.422-1-.903-1.004-.903l-.67.902h-.596V1.688a40.041 40.041 0 0 0 1.528-.422c.378.116.655.116.771-.015L63.66.058c-1 .67-3 1.54-4.642 2.023l.073.218a24.756 24.756 0 0 0 2.503-.378V4.38h-2.561l.116.422h2.227c-.524 2.02-1.43 4.12-2.663 5.66l.204.19a12.387 12.387 0 0 0 2.677-3.333v6.112h.19c.552 0 .945-.277.945-.364v-6.94c.51.596 1.05 1.37 1.237 2.022.99.727 1.86-1.24-1.237-2.401v-.946zm8.12 3.551-.51.102V.902c.364-.058.48-.218.524-.422L69.204.306v8.367l-5.107.99.19.377 4.917-.945v4.292h.219c.436 0 .916-.276.916-.422V8.876l2.052-.393c.175-.029.32-.145.32-.305l-.437-.335c-.42-.314-.843-.611-.843-.611l-.582 1.12zm3.44-1.484c2.85-1.22 5.47-3.26 6.97-5.631 1.05 2.02 3.27 3.9 5.53 5.093a1.54 1.54 0 0 1 1.12-1.048l.015-.174c-2.6-.8-5.2-2.4-6.243-3.857.495-.029.873-.13 1.034-.305L81.347.015l-.51.77h-4.161l.13.423h2.882c-1.08 2.01-3.23 4.12-5.53 5.471l.131.19zm12.747 6.112c.204 0 .35-.058.393-.219-.553-.509-1.43-1.21-1.426-1.207l-.8 1.004h-3.667V9.444h4.205c.204 0 .335-.073.364-.233-.51-.466-1.35-1.09-1.353-1.091l-.742.902h-2.474V6.286h3.376c.203 0 .349-.073.393-.233a38.122 38.122 0 0 0-1.325-1.047l-.727.858h-6.548l.116.422h3.507v2.736h-4.074l.116.422h3.958v3.114h-5.53l.117.422h12.121zm15.47-5.006c.203 0 .334-.073.378-.233-.495-.465-1.32-1.06-1.325-1.062l-.698.859h-4.133v-1.15h4.846c.204 0 .35-.073.378-.233-.48-.436-1.27-1.02-1.266-1.018l-.684.829h-3.274v-1.12h2.634v.567h.175c.378 0 .931-.262.946-.364V3.245h2.153c.19 0 .335-.073.364-.233a18.41 18.41 0 0 0-1.193-1.018l-.64.829h-.684v-.946c.29-.058.509-.174.596-.29L99.813.625l-.596.64h-2.489V.582c.364-.058.495-.204.524-.407L95.564 0v1.266H91.36l.13.407h4.075v1.15h-5.98l.13.422h5.85v1.179h-4.292l.13.422h4.162v1.12h-4.743l.116.422h4.627v1.15h-5.893l.131.436h12.703zm-3.144-5.151h-2.634v-1.15h2.634zm0 1.6h-2.634V3.246h2.634v1.179zm-7.275 8.993c.48 0 .974-.262.974-.378v-.422h6.374v.757h.19c.363 0 .96-.233.974-.32V9.618c.291-.058.524-.174.611-.29l-1.324-1.005-.597.655h-6.126l-1.251-.51v4.948h.175zm7.348-2.866H93.06V9.415h6.374v1.135zm0 1.644H93.06v-1.222h6.374z"/></svg>