<svg xmlns="http://www.w3.org/2000/svg" viewBox="0 0 140 32"><g fill="#010101"><path d="M.977.906H4.94l3.25 9.492 2.91-9.492h3.82l2.888 9.492 3.25-9.492h3.964L19.301 17.41h-2.72L12.989 5.922 9.414 17.41H6.699zM27.004.906h3.672V17.41h-3.672zM34.711.906h3.672v6.79l6.191-6.79h4.524l-6.531 7.305c.562.785 1.61 2.26 3.132 4.406 1.52 2.14 2.64 3.74 3.403 4.8H44.82L40 10.899l-1.637 1.848v4.672h-3.671V.906zM51.371.906h3.672V17.41H51.37zM77.5.906V17.41h-3.672V7.031h-.05l-4.43 9.028h-2.172L62.77 7.03v10.38h-3.668V.905h4.96l4.235 9.078L72.559.906zM93.324.906V4.18h-8.172v3.414h7.34v3.152h-7.34v3.418h8.441v3.246H81.511V.906zM106.7 12.883c.906-.863 1.34-2.09 1.344-3.715 0-1.62-.438-2.88-1.344-3.742-.902-.883-2.27-1.3-4.133-1.3h-2.05V14.16h2.32c1.66.004 2.96-.414 3.863-1.277m2.668-9.812c1.57 1.45 2.35 3.45 2.348 6.003 0 2.56-.758 4.6-2.301 6.102-1.52 1.5-3.87 2.24-6.992 2.242h-5.606V.906h5.797c2.97 0 5.19.734 6.754 2.164zM114.9.906h3.672V17.41H114.9zM129.33 5.824l-2.05 4.801h4.109zm4.973 11.586-1.52-3.566h-6.87l-1.52 3.566h-3.887L127.6.906h3.547l7.09 16.504zM6.234 27.449c0-2.14 1.62-3.68 3.817-3.684 1.16 0 2.16.418 2.816 1.2l-.851.808a2.5 2.5 0 0 0-1.899-.836c-1.47 0-2.55 1.05-2.547 2.516 0 1.47 1.07 2.52 2.547 2.515.742 0 1.38-.277 1.899-.851l.851.82c-.66.777-1.66 1.2-2.828 1.2-2.18 0-3.8-1.55-3.805-3.688zM15.711 27.449c0-2.12 1.62-3.68 3.836-3.684s3.84 1.56 3.84 3.684c0 2.13-1.63 3.68-3.84 3.684s-3.84-1.56-3.836-3.684m6.336 0c0-1.46-1.07-2.52-2.5-2.516s-2.5 1.05-2.5 2.516c0 1.46 1.07 2.52 2.5 2.516 1.43.004 2.5-1.05 2.5-2.516M27.016 23.867h1.324v6.04h3.723v1.124h-5.047zM34.695 27.449c0-2.12 1.62-3.68 3.84-3.684 2.21 0 3.84 1.56 3.836 3.684 0 2.13-1.62 3.68-3.836 3.684-2.21.004-3.84-1.56-3.84-3.684m6.34 0c0-1.46-1.07-2.52-2.5-2.516-1.44 0-2.5 1.05-2.504 2.516 0 1.46 1.07 2.52 2.504 2.516 1.43.004 2.5-1.05 2.5-2.516M52.547 31.031l-.012-4.746-2.34 3.93h-.593l-2.34-3.871v4.687H46v-7.164h1.09l2.828 4.746 2.781-4.746h1.09l.008 7.164zM64.285 29.086c0 1.23-.957 1.95-2.79 1.945h-3.538v-7.164h3.336c1.71 0 2.63.727 2.629 1.863 0 .734-.367 1.28-.918 1.575.762.246 1.28.852 1.28 1.78zm-5.008-4.176v1.977h1.871c.914 0 1.43-.332 1.434-.988 0-.664-.52-.992-1.434-.993h-1.87zm3.672 4.043c0-.719-.543-1.04-1.539-1.035h-2.133v2.07h2.133c.996 0 1.54-.32 1.54-1.035M67.926 23.867h1.324v7.164h-1.324zM78.02 29.371h-3.562l-.7 1.66h-1.363l3.207-7.164h1.3l3.216 7.164h-1.383zm-.437-1.04L76.239 25.2l-1.332 3.133z"/></g></svg>