<svg xmlns="http://www.w3.org/2000/svg" width="114" height="13"><path fill="#000" fill-rule="nonzero" d="M39.17 3.329c-1.257 0-2.917 1.202-2.917 3.398 0 .808.21 1.579.686 2.127.49.578 1.19.927 2.23.927 1.098 0 1.86-.519 2.437-1.27-.043-.144-.135-.191-.309-.206-.534.549-.947.755-1.784.755-.52 0-1.131-.293-1.579-1.03-.289-.476-.446-1.152-.446-1.99l3.844.034c.173 0 .274-.08.274-.24 0-1.213-.429-2.505-2.436-2.505Zm0 .48c.548 0 1.2.297 1.2 1.51 0 .13-.08.206-.24.206l-2.608.035c.275-1.632 1.301-1.75 1.648-1.75ZM96.338 0c-.349.14-1.397.336-1.956.378-.028.111.02.328.103.411.727.042.892-.006.892 1.167v6.795c0 .545-.026.8-.068.996.07.111.141.171.309.171a2.62 2.62 0 0 0 .309-.343c.153-.168.258-.14.411 0 .308.265.733.309 1.236.309 1.425 0 3.089-1.28 3.089-3.5 0-1.705-1.256-2.746-2.471-2.746-.601 0-1.146.226-1.58.618-.097.083-.136.057-.136-.07V1.614c0-.908.068-1.476.068-1.476 0-.098-.08-.137-.206-.137Zm1.579 4.221c.852 0 1.544 1.047 1.544 2.403 0 1.592-.663 2.78-1.99 2.78-.433 0-.716-.303-.995-.653V5.285c0-.293.058-.45.24-.618a1.79 1.79 0 0 1 1.201-.446ZM75.095 0c-.35.14-1.397.336-1.956.378-.028.111-.015.328.068.411.727.042.893-.006.893 1.167v1.785c0 .098-.04.137-.138.137-.056 0-.602-.24-1.064-.24-.922 0-1.534.293-2.093.823-.6.601-.96 1.438-.96 2.471 0 1.719.858 2.952 2.367 2.952.545 0 1.066-.265 1.75-.824.056-.056.172-.098.172 0 0 .336.137.824.137.824.112.042.163.028.275 0 .307-.252.83-.451 1.681-.55.084-.083.084-.293 0-.377-.894-.07-1.03-.345-1.03-1.03V1.614c0-.908.07-1.476.07-1.476 0-.098-.046-.137-.172-.137Zm-2.608 4.118c.1-.014.17 0 .24 0 .503 0 .853.194 1.132.515.196.224.24.288.24.72v2.678c0 .265-.01.381-.205.549-.517.447-.99.652-1.339.652-.754 0-1.51-.828-1.51-2.574 0-1.006.168-1.56.378-1.853.325-.493.76-.644 1.064-.687Zm7.378-.48c-1.886 0-2.951 1.486-2.951 3.26 0 1.425.981 2.986 2.951 2.986 2.082 0 2.952-1.726 2.952-3.123 0-1.453-.786-3.123-2.952-3.123Zm-.137.446c1.202 0 1.888 1.07 1.888 3.123 0 1.844-.854 2.23-1.51 2.23-1.454 0-1.991-1.806-1.991-2.882 0-1.216.44-2.471 1.613-2.471ZM54.675 0c-.38.146-1.474.334-2.059.378l.034.343c0 .044.045.068.103.068l.446.035c.293 0 .447.182.447 1.132v9.507c0 .482-.145.726-.584.858l-.274.102c-.074.015-.118.065-.103.138l.103.343 2.024-.515V9.3c2.572-1.972 5.045-4.045 5.045-6.383 0-1.593-.565-2.917-2.333-2.917-.936 0-1.879.81-2.712 1.613 0-.95.069-1.476.069-1.476 0-.102-.074-.137-.206-.137Zm2.54.72c1.008 0 1.338.954 1.338 2.78 0 1.93-1.928 3.629-3.74 5.148V2.265c1.08-1.081 1.744-1.544 2.402-1.544Zm5.986 1.8c.168 0 .308-.294.308-.462 0-.083-.056-.237-.182-.237h-2.822c-.14 0-.28.28-.28.447 0 .098.056.251.168.251h2.808m-.53 5.533v-2.78c0-.699.055-1.593.055-1.593 0-.056-.07-.098-.181-.098-.406.154-.95.28-1.915.405-.027.084 0 .308.028.392.755.084.909.153.909.95v2.724c0 1.16-.154 1.202-1.006 1.272-.084.083-.084.377 0 .46.586-.013.95-.027 1.564-.027.601 0 .95.014 1.551.028.084-.084.084-.378 0-.461-.852-.056-1.006-.112-1.006-1.272m1.935-.223a24.4 24.4 0 0 1 .098 1.928c.14-.028.28-.042.35-.042a.95.95 0 0 1 .279.028c.377.098.754.153 1.271.153.783 0 2.222-.377 2.222-1.76 0-.95-.699-1.495-1.635-1.858-.838-.322-1.397-.531-1.397-1.3 0-.572.503-.894.978-.894.307 0 1.118.112 1.3 1.3.083.083.362.07.446-.014 0-.503.07-1.02.084-1.481-.433-.07-1.104-.266-1.83-.266-1.034 0-1.97.67-1.97 1.565 0 1.02.46 1.453 1.537 1.9 1.145.49 1.425.769 1.425 1.37 0 .684-.67.977-1.188.977-.545 0-.852-.181-.992-.335-.335-.321-.46-.936-.545-1.285-.084-.084-.349-.07-.433.014m16.775-5.31c.182 0 .336-.293.336-.46 0-.084-.056-.238-.196-.238h-3.143c-.154 0-.308.28-.308.447 0 .098.056.251.182.251h3.13m4.665 2.655c.545-.53.992-.824 1.425-.824.53 0 .922.335.922 1.271v2.431c0 1.146-.112 1.216-.866 1.272-.07.083-.07.377 0 .46.586-.013.866-.027 1.425-.027.573 0 .768.014 1.369.028.07-.084.07-.378 0-.461-.699-.056-.824-.126-.824-1.272V5.831c0-.196 0-.391-.014-.56.67-.74 1.215-.921 1.76-.921.531 0 .866.307.866 1.243v2.46c0 1.145-.14 1.215-.866 1.27-.07.084-.07.378 0 .462.587-.014.866-.028 1.425-.028.573 0 .838.014 1.44.028.07-.084.07-.378 0-.461-.77-.056-.895-.126-.895-1.272V5.845c0-1.244-.237-2.222-1.467-2.222-.726 0-1.495.266-2.221 1.034-.042.042-.126.112-.154 0-.14-.573-.67-1.034-1.397-1.034-.81 0-1.425.49-2.04 1.132-.056.056-.14.196-.14 0 0-.42.07-1.062.07-1.062 0-.07-.056-.112-.168-.112-.405.154-.964.28-1.928.405-.028.084 0 .308.028.392.755.084.908.14.908.95v2.724c0 1.146-.181 1.216-.95 1.272-.084.083-.084.377 0 .46.573-.013.908-.027 1.51-.027.544 0 .782.014 1.368.028.084-.084.084-.378 0-.461-.698-.07-.824-.126-.824-1.272V5.761a.82.82 0 0 1 .238-.587m20.14-2.655c.181 0 .335-.293.335-.46 0-.084-.056-.238-.196-.238h-3.143c-.154 0-.308.28-.308.447 0 .098.056.251.182.251h3.13m-1.508 1.119c-1.886 0-2.952 1.486-2.952 3.26 0 1.425.948 2.986 2.918 2.986 2.081 0 2.985-1.726 2.985-3.123 0-1.453-.786-3.123-2.951-3.123Zm-.137.446c1.201 0 1.887 1.07 1.887 3.123 0 1.844-.853 2.23-1.51 2.23-1.453 0-1.99-1.806-1.99-2.882 0-1.216.439-2.471 1.613-2.471Zm9.216 4.401c-.056-.125-.168-.181-.294-.195-.475.614-1.076.922-1.676.922-1.02 0-1.873-1.034-1.873-2.669 0-1.537.671-2.459 1.593-2.459.825 0 .936.49.992.978.042.378.238.503.531.503.294 0 .685-.181.685-.614 0-.769-.797-1.328-2.138-1.328-1.383 0-2.864 1.244-2.864 3.228 0 1.802 1.006 3.045 2.766 3.045.839 0 1.58-.265 2.278-1.41M10.04 3.637c-1.216 0-2.78 1.17-2.78 3.294 0 .783.19 1.529.652 2.06.475.558 1.122.892 2.128.892 1.062 0 1.843-.475 2.402-1.201-.042-.14-.141-.227-.309-.24-.517.53-.905.754-1.716.754-.503 0-1.111-.282-1.544-.995-.28-.46-.446-1.111-.446-1.922l3.706.035c.168 0 .275-.087.275-.24 0-1.174-.426-2.437-2.368-2.437Zm0 .48c.53 0 1.167.302 1.167 1.476 0 .126-.053.172-.206.172l-2.506.068c.266-1.579 1.21-1.716 1.545-1.716Zm1.415-1.599c.181 0 .335-.293.335-.46 0-.084-.056-.238-.195-.238H8.45c-.154 0-.307.28-.307.447 0 .098.055.251.181.251h3.13m5.071 1.119c-1.886 0-2.951 1.486-2.951 3.26 0 1.425.947 2.986 2.917 2.986 2.081 0 2.985-1.726 2.985-3.123 0-1.453-.785-3.123-2.951-3.123Zm-.137.446c1.201 0 1.887 1.07 1.887 3.123 0 1.844-.853 2.23-1.51 2.23-1.453 0-1.99-1.806-1.99-2.882 0-1.216.44-2.471 1.613-2.471ZM5.506.41C4.636.29 4.681.005 3.211.005 1.845.005.36 1.01.36 2.6c0 1.41.99 2.13 2.16 2.626.945.42 2.475.705 2.475 2.416 0 1.215-.69 1.845-1.875 1.845-1.41 0-2.31-.63-2.64-2.13A.584.584 0 0 0 0 7.402c.06 1.155.12 1.545.3 2.28.945 0 1.35.345 2.686.345 1.815 0 3.27-1.38 3.27-2.91 0-1.426-.975-2.146-2.07-2.611-.72-.3-2.76-.84-2.76-2.31 0-.916.69-1.681 1.635-1.681 1.47 0 1.935.93 2.235 1.92.165 0 .345.015.48-.09-.044-.72-.105-1.14-.27-1.935M26.91 5.04c1.238 0 1.282.336 1.326.991.087.088.393.088.48 0-.014-.51-.029-.786-.029-1.281 0-.496.015-.816.03-1.253-.088-.087-.394-.087-.481 0-.044.801-.088.99-1.326.99h-1.354V1.43c0-.35.175-.495.524-.495h1.53c1.092 0 1.325.582 1.645 1.587l.452-.073c-.088-.597-.306-1.995-.32-2.111-.015-.03-.03-.044-.059-.044-.262.058-.335.058-.684.058h-3.714s-1.15-.014-1.88-.029c-.086.087-.086.393 0 .48 1.02.044 1.268.117 1.268 1.326v5.84c0 1.21-.248 1.282-1.267 1.326-.087.087-.087.393 0 .48.714-.014 1.15-.029 1.893-.029.729 0 1.15.015 1.88.03.086-.088.086-.394 0-.481-1.02-.044-1.268-.117-1.268-1.326V5.041h1.354m4.393.087v2.84c0 1.21-.175 1.267-1.078 1.326-.088.087-.088.393 0 .48.611-.014 1.078-.029 1.66-.029.597 0 1.136.015 1.762.03.088-.088.088-.394 0-.481-1.02-.073-1.194-.117-1.194-1.326V5.944c0-.379.175-.714.35-.976.16-.233.495-.714.67-.714.102 0 .218.015.305.102.146.146.292.423.598.423.35 0 .684-.364.684-.728 0-.277-.262-.7-.874-.7-.684 0-1.281.641-1.616 1.21-.088.16-.131.087-.131.014 0-.466.072-1.165.072-1.165 0-.059-.072-.102-.189-.102-.408.16-.99.291-1.995.422-.03.088-.03.32.029.408.786.073.947.19.947.99m14.8-1.765c-1.966 0-3.089 1.548-3.089 3.398 0 1.485 1.001 3.123 3.055 3.123 2.17 0 3.089-1.804 3.089-3.26 0-1.515-.797-3.26-3.055-3.26Zm-.171.48c1.252 0 1.99 1.12 1.99 3.261 0 1.923-.894 2.3-1.579 2.3-1.514 0-2.059-1.865-2.059-2.986 0-1.267.424-2.574 1.648-2.574Zm-5.332-1.69c.188 0 .347-.304.347-.477 0-.087-.058-.246-.202-.246h-3.25c-.158 0-.317.29-.317.463 0 .1.058.26.188.26h3.234"/></svg>