<svg viewBox="0 0 80 25" xmlns="http://www.w3.org/2000/svg"><g aria-label="উইকিবই"><path d="M16.9 8.11H8.81v4.33q0 .428.227.806.252.378.68.378.983-.328 1.81-1.44.832-1.21 1.11-1.21 1.01 0 1.84 1.59.756 1.41.756 2.57.101 2.49-1.26 4.21-1.64 1.66-3.88 1.74-6.2 0-7.48-12l.983.554q.101 1.51.479 2.95t1.08 2.77q1.86 3.3 4.66 3.3.857 0 1.59-.277t1.39-.806q1.34-1.06 1.34-2.72 0-.958-.781-1.81-.302.504-.731 1.01t-.983.932q-.504.428-1.01.655t-.882.227q-.454 0-.882-.176-.403-.176-.731-.504-.302-.328-.504-.781t-.202-1.01v-5.27h-6l-1.39-1.41h11.9q.907.025.907-.756 0-.655-.806-1.01-.63-.252-1.34-.252-.353 0-.857.025-.479.025-1.18.076-.655.05-1.18.075-.504.026-.832.026-1.59 0-2.92-.806-1.51-.907-1.51-2.39 0-1.21.756-1.64l.252.126q.176.075.302.126-.529.428-.529 1.01 0 .78 1.01 1.26.353.15.781.252.454.1.882.1.353 0 .857-.025.529-.025 1.26-.075.706-.05 1.23-.076.554-.05.907-.05 1.97 0 3.1 1.06 1.13 1.03 1.06 2.95h1.39z"/><path d="M30.3 8.11h-7.46q.176.277.378.554.202.252.403.479 2.14.756 2.87 1.61 1.13 1.11 1.13 2.85t-1.39 2.87q-1.03.882-3.15 1.44 1.44.857 3.05 2.24 1.64 1.39 3.53 3.3l.328 1.46q-1.01-1.13-2.22-2.12-1.21-1.01-2.72-1.89-1.44-.806-2.97-1.41t-3.07-.983l-1.69-3.53q1.79.983 3.96 1.16 1.64.126 2.9-.529 1.74-.857 1.66-2.29 0-.454-.151-.882-.126-.428-.403-.756-.252-.328-.605-.529t-.806-.202q-.202 0-.378.05-.151.05-.353.101 0 1.01-.857 1.84-.882.832-1.86.832-.63 0-1.16-.378-.529-.403-.529-1.03 0-1.18 1.01-2.12.958-.882 2.29-1.01 0-.403-.958-1.13h-4.54l-1.41-1.41h9.58q.277 0 .605-.05.328-.076.605-.176.781-.277.781-.832 0-.529-.882-.781-.277-.101-.605-.126-.328-.05-.68-.05t-.882.025q-.504.025-1.21.075t-1.23.076q-.504.025-.857.025-1.59 0-2.92-.78-1.54-.908-1.54-2.37 0-.303.353-.959.353-.63.655-.58.076 0 .176.025h.202q-.605.428-.605 1.18 0 .706.756 1.16.605.378 1.39.378.302 0 1.21-.05.932-.076 2.44-.202 2.65.05 4.01 1.06 1.36.983 1.23 2.95h1.18z"/><path d="M45 4.99q-.68-.605-1.51-1.18-.832-.605-1.89-1.18-.958-.554-1.99-.806-1.01-.252-2.09-.252-1.59 0-3.25 1.11-1.84 1.21-1.94 2.7l.554 1.34h1.54l1.44 1.41h-2.47v14.7l-1.44-1.41v-13.3h-2.14l-1.39-1.41h3.75l-.983-.932q-.554-.554-.554-1.13 0-1.71 1.92-3.23 1.86-1.41 3.6-1.41 4.49 0 8.57 4.23z"/><path d="M45.5 8.11v1.03q2.47 0 3.98 2.02 1.44 1.81 1.44 3.98 0 .529-.176 1.01t-.479.857q-.302.353-.731.58-.428.202-.932.202-.353 0-.68-.126-.328-.151-.605-.378-.252-.227-.428-.529-.151-.328-.151-.706 0-.68.479-1.13t1.18-.454q.428 0 .756.202.353.202.63.554l.126-.328q0-1.46-1.16-2.62-1.13-1.23-3.28-1.21v11.8q-.151-.025-.302-.101-.151-.101-.202-.227-.504-1.23-1.21-2.29-.68-1.08-1.51-1.92-1.92-1.92-4.28-2.19l-1.99-2.47q3.6-2.85 8.19-4.33v-1.18h-9.17l-1.44-1.41h17.8l1.46 1.41zm-1.41 3.12q-1.29.479-2.57 1.21-1.29.706-2.72 1.71 3.53 1.49 5.24 4.71h.05z"/><path d="M63.3 8.11v14.8l-.781-.932q-.076-.227-.202-.454-.101-.252-.428-.857-.302-.605-.882-1.31-.58-.731-1.08-1.21-1.81-1.66-4.81-1.97l-1.84-2.62q4.23-2.95 8.67-4.44v-1.03h-9.65l-1.39-1.41h13.9l1.36 1.41zm-1.36 3.33q-1.36.504-2.77 1.21-1.39.706-2.92 1.74 3.81 1.59 5.7 4.84z" fill="#0a4e98"/><path d="M79.2 8.11h-7.46q.176.277.378.554.202.252.403.479 2.14.756 2.87 1.61 1.13 1.11 1.13 2.85t-1.39 2.87q-1.03.882-3.15 1.44 1.44.857 3.05 2.24 1.64 1.39 3.53 3.3l.328 1.46q-1.01-1.13-2.22-2.12-1.21-1.01-2.72-1.89-1.44-.806-2.97-1.41t-3.07-.983l-1.69-3.53q1.79.983 3.96 1.16 1.64.126 2.9-.529 1.74-.857 1.66-2.29 0-.454-.151-.882-.126-.428-.403-.756-.252-.328-.605-.529t-.806-.202q-.202 0-.378.05-.151.05-.353.101 0 1.01-.857 1.84-.882.832-1.86.832-.63 0-1.16-.378-.529-.403-.529-1.03 0-1.18 1.01-2.12.958-.882 2.29-1.01 0-.403-.958-1.13h-4.54l-1.41-1.41h9.58q.277 0 .605-.05.328-.076.605-.176.781-.277.781-.832 0-.529-.882-.781-.277-.101-.605-.126-.328-.05-.68-.05t-.882.025q-.504.025-1.21.075t-1.23.076q-.504.025-.857.025-1.59 0-2.92-.78-1.54-.908-1.54-2.37 0-.303.353-.959.353-.63.655-.58.076 0 .176.025h.202q-.605.428-.605 1.18 0 .706.756 1.16.605.378 1.39.378.302 0 1.21-.05.932-.076 2.44-.202 2.65.05 4.01 1.06 1.36.983 1.23 2.95h1.18z" fill="#0a4e98"/></g></svg>