<svg xmlns="http://www.w3.org/2000/svg" width="70" height="15"><path fill="#000" fill-rule="nonzero" d="M59.439 2.347c.129.066.26.182.393.346.012.07.098.532.258 1.385.121.668.178 1.151.17 1.449-.027.817-.043 1.253-.047 1.308-.043.317.02.792.188 1.426 0 .207.115.454.346.739.211.262.417.456.616.58h.13c.05-.375.078-.562.082-.562l.17-.528c.05-.149.123-.34.217-.575.07-.133.227-.474.47-1.021.566.426.899.929.996 1.508.122.805.26 1.198.417 1.179h.422c.45-.04.855-.198 1.215-.475-.067-.18-.282-.523-.645-1.027-.333-.462-.55-.841-.652-1.138.008-.329.124-.7.346-1.115.259-.548.415-.91.47-1.085.512-.122 1.287-.425 2.323-.91 1.127-.512 1.833-.927 2.118-1.244.086 0 .13.047.13.141 0 .118-.079.33-.235.64l-.3.598c-.504.293-.927.518-1.267.675-.446.227-1.412.657-2.898 1.29.18.619.455 1.164.827 1.637.575.751.956 1.193 1.144 1.326-.012.153-.055.452-.129.898a8.13 8.13 0 0 1-1.772.763h-1.027c-.156 0-.29.015-.404.047 0 .113-.108.313-.323.598l-.475.657c-.548-.027-.87-.058-.968-.094-.22-.097-.329-.352-.329-.762 0-.118.014-.266.041-.446h-.176v-.005h-.042c-.816-.065-1.252-.673-1.307-1.826-.106.888-.499 1.696-1.18 2.423-.465.497-1.173 1.047-2.123 1.649-.016-.399.064-.831.24-1.297.884-.598 1.496-1.148 1.837-1.648l.079-.1a14.875 14.875 0 0 1-.572-.616c-.188-.223-.364-.44-.528-.651-.215-.266-.481-.74-.798-1.42-.337-.7-.538-1.213-.605-1.537-.11-.266-.222-.46-.34-.581-.129-.14-.324-.258-.587-.352.012-.43.108-.865.288-1.303.704.18 1.16.67 1.367 1.467.313 1.26.86 2.304 1.643 3.133.2.313.383.577.548.792l.12.153c.231-.575.347-1.412.347-2.511 0-.869-.188-1.782-.564-2.74a.316.316 0 0 1-.017-.1c0-.137.117-.516.352-1.138ZM65.916 0c.25 0 .376.172.376.516 0 .215-.057.434-.17.657a.83.83 0 0 1 .217.188l-.047.546-.429-.311c-.457.536-.833.804-1.126.804-.059 0-.188-.038-.387-.112.183-.113.37-.242.557-.387.192-.145.393-.311.604-.499-.16-.18-.24-.322-.24-.428a.98.98 0 0 1 .047-.288 1.44 1.44 0 0 1 .135-.31c.058-.106.127-.194.205-.265A.368.368 0 0 1 65.916 0ZM49.864 2.411c.246.282.381.806.405 1.573 0 .062-.012.57-.035 1.525a81.35 81.35 0 0 0-.018 1.62c-.055 1.693-.035 2.606.059 2.74l-.81.715c-.207-.152-.303-.675-.288-1.566.008-.278.032-.955.07-2.03.028-.77.046-1.494.054-2.171.031-.708-.043-1.219-.223-1.531.328-.372.59-.663.786-.875m-12.11-.123c.157.395.253.996.288 1.801.059.81.07 1.397.035 1.76-.023.364-.033.927-.03 1.69.02.888.065 1.416.136 1.584.086.22.17.342.252.37.203.059.342.088.416.088h.493c.325.055.51.055.558 0 .262-.25.434-.546.516-.886.125.61.528.915 1.209.915.313 0 .532-.078.657-.234.129-.16.242-.366.34-.617.121 0 .182.008.182.024.023.145.049.233.076.264.258.391.68.55 1.267.475.25.008.47-.12.658-.381l.48-.558.177.61.434.388h.956c.164 0 .37-.125.616-.376-.129-.2-.193-.32-.193-.363 0-.485.105-.841.316-1.068.114-.008.172-.004.176.012.102.316.311.7.628 1.15-.281 1.079-.808 1.619-1.578 1.619h-.915c-.172 0-.339-.07-.499-.211l-.499-.47c-.11.477-.414.716-.915.716-.356 0-.81-.178-1.361-.534-.035.117-.202.247-.499.387-.219.114-.456.17-.71.17a1.52 1.52 0 0 1-.903-.293c-.13.172-.34.26-.634.264h-.293l-.253-.03h-.487c-.645 0-1.067-.091-1.267-.275-.375-.364-.563-.892-.563-1.584V5.527c0-1.475-.05-2.337-.153-2.588l.886-.65Zm9.481 2.705.02.02.06.06.046.046.12.121.476.48-.75.787-.681-.722.71-.792Zm-23.79-2.934c.375.247.616.587.721 1.021.067.223.1.58.1 1.068 0 .415-.06 1.054-.182 1.919-.121.864-.182 1.55-.182 2.059 0 .399.03.806.088 1.22.012.157.23.235.652.235h.692c.504-.04.923-.198 1.255-.475-.058-.18-.271-.523-.64-1.027-.335-.462-.555-.841-.656-1.138.023-.329.143-.7.358-1.115.258-.548.416-.91.475-1.085.504-.122 1.273-.425 2.306-.91 1.13-.512 1.844-.927 2.141-1.244.078 0 .117.047.117.141 0 .118-.078.33-.234.64l-.3.598c-.504.293-.92.518-1.25.675-.46.227-1.435.657-2.92 1.29.128.47.412 1.016.85 1.637.434.681.784 1.137 1.05 1.367.497.43 1.132.646 1.907.646h1.871c.094 0 .3-.466.616-1.396.4-.06.607-.045.622.04.067.27.159.556.276.857.121.301.24.468.358.499h1.209c.164 0 .37-.125.616-.376-.13-.2-.194-.32-.194-.363 0-.485.106-.841.317-1.068.113-.008.172-.004.176.012.102.316.31.7.628 1.15-.282 1.079-.808 1.619-1.579 1.619h-1.138c-.047 0-.17-.05-.37-.147-.289-.152-.47-.307-.545-.463l-.1.111c-.015.074-.123.182-.323.323-.176.117-.271.176-.287.176h-2.153c-.297 0-.732-.078-1.303-.235-.254-.062-.49-.238-.71-.528a8.13 8.13 0 0 1-1.771.763h-1.362c-.183 0-.428-.245-.733-.734.05.07-.07.217-.364.44-.184.145-.426.243-.727.294h-.704c-.325 0-.56-.073-.704-.217-.012.434-.045.714-.1.839-.149.406-.806 1.028-1.971 1.865-.966.697-1.706 1.1-2.218 1.209 0-.227.057-.528.17-.903.239-.087.823-.417 1.754-.992.04-.023.47-.362 1.291-1.015.317-.246.465-.534.446-.862l-1.396.352c-.051-.145-.077-.347-.077-.605 0-.547.09-1.068.27-1.56.215-.556.471-.834.769-.834.344 0 .702.442 1.073 1.326.137.282.368.423.693.423h.721c.118 0 .247-.072.388-.217.039-.035.058-.859.058-2.47 0-1.807-.164-2.953-.493-3.438.313-.564.53-1.029.652-1.397Zm9.821 9.212.02.02.025.025.08.08.12.122.161.162.316.318-.751.786-.68-.721.71-.792Zm-1.584-.006.32.323.181.182.22.222-.75.786-.68-.721.709-.792Zm4.119-6.571-.135.551-.792.458.352.082h.252l.31-.03.347-.082.458-.158-.124.399-.146.147-.71.381-1.602.997.141-.557.722-.54-.282-.058-.158-.112.129-.704.54-.416.698-.358Zm-20.705 7.674.02.02.3.303.181.182.22.222-.75.786-.681-.721.71-.792Zm-2.294-1.097.02.02.702.707-.751.786-.681-.721.71-.792Zm-1.584-.006.02.02.025.025.135.137.541.545-.75.786-.681-.721.71-.792Zm4.682-.2.045.046.035.035.165.167.476.48-.75.786-.681-.722.71-.792Zm-1.584-.006.045.046.04.04.118.12.518.522-.75.786-.681-.722.71-.792ZM8.402 5.005c.09-.008.213.238.37.739.148.493.35 1.347.604 2.564.195.622.465 1.046.81 1.273H11.2c.094 0 .3-.466.616-1.396.4-.06.606-.045.622.04.067.27.159.556.276.857.121.301.24.468.358.499h1.208c.165 0 .37-.125.616-.376-.129-.2-.193-.32-.193-.363 0-.485.105-.841.317-1.068.113-.008.172-.004.176.012.101.316.31.7.627 1.15-.281 1.079-.807 1.619-1.578 1.619h-1.138c-.047 0-.17-.05-.37-.147-.29-.152-.471-.307-.545-.463l-.1.111c-.016.074-.123.182-.323.323-.176.117-.272.176-.287.176H10.19c-.329 0-.61-.166-.845-.499-.098-.133-.24-.42-.428-.862-.32.618-.577.944-.769.98-.184.039-.706.197-1.566.475-.458.133-.814.346-1.068.64a.436.436 0 0 1-.094-.3c0-.094.02-.227.059-.399.055-.207.086-.344.094-.41.473-.4.942-.628 1.408-.687.876-.137 1.441-.313 1.695-.528.02-.626-.238-1.612-.774-2.957l.499-1.003Zm-.329-3.837c.188.207.282.475.282.803 0 .086-.006.214-.018.382a5.65 5.65 0 0 0-.018.358c0 .215.026.402.077.563.121-.094.264-.229.428-.405.09-.086.162-.13.217-.13.031 0 .254.118.669.353-.098.45-.397.735-.898.857-.156.058-.448.12-.874.187-.61-.125-.915-.264-.915-.416 0-.012.002-.022.006-.03.05.016.295.024.733.024.055-.043.082-.211.082-.505 0-.317-.002-.63-.006-.938 0-.313-.025-.509-.076-.587.286-.215.383-.387.293-.516h.018ZM2.828 9.58c.164 0 .37-.125.616-.376-.13-.2-.194-.32-.194-.363 0-.485.106-.841.317-1.068.114-.008.172-.004.176.012.102.316.311.7.628 1.15-.282 1.079-.808 1.619-1.578 1.619h-.81c-.645 0-1.068-.092-1.267-.276C.34 9.915.153 9.387.153 8.695V5.527C.153 4.052.102 3.19 0 2.939l.886-.65c.156.394.252.995.287 1.8.06.81.07 1.397.036 1.76-.024.364-.034.927-.03 1.69.02.888.065 1.416.135 1.584.086.22.17.342.252.37.204.059.343.088.417.088h.845Zm1.596 1.613.721.728-.75.786-.681-.722.71-.792m-1.584-.006.721.728-.75.786-.681-.722.71-.792"/></svg>