<svg xmlns="http://www.w3.org/2000/svg" width="120" height="19"><path fill="#000" fill-rule="nonzero" d="M26.142.12c.154.163.154.737 0 .9-1.687.219-1.98 1.26-2.511 2.537l-6.05 13.914c-.178.41-.332.628-.612.628-.255 0-.452-.222-.588-.628l-3.437-7.92-3.769 7.92c-.152.41-.332.628-.613.628-.255 0-.435-.219-.588-.628L2.416 3.504C1.636 1.566 1.585 1.158.129 1.02-.025.858-.051.285.103.121 1.304.147 1.74.176 2.76.176c.997 0 1.636-.028 2.837-.055.154.163.154.737 0 .9-1.61.19-1.678.622-1.037 2.183L9.24 14.58h.117L12.21 8.38l-2.154-4.877C9.2 1.566 8.996 1.185 7.896 1.02c-.152-.163-.178-.736-.025-.9.818.026 1.253.055 2.274.055.997 0 1.406-.028 2.326-.055.154.163.154.737 0 .9-1.073.164-.971.627-.27 2.183l1.256 2.756.113.122 1.354-2.715c.79-1.581.894-2.182-.204-2.346-.154-.165-.154-.738 0-.901.946.026 1.43.055 2.018.055.588 0 1.227-.028 1.866-.055.152.163.152.737 0 .9-1.33.219-1.884 1.258-2.513 2.537l-1.868 3.795 3.269 7.227h.117l4.853-11.213c.606-1.476.562-2.21-1.098-2.346-.154-.163-.154-.736 0-.9 1.2.026 1.941.055 2.53.055.588 0 1.227-.028 2.248-.055Zm5.177 4.983.027.054v.6c0 .087-.054.133-.164.137l-.573.055c-.418.037-.714.12-.89.249-.176.129-.26.328-.256.597v9.087c-.007.3.075.538.246.712.17.175.47.283.9.324l.573.055a.17.17 0 0 1 .113.04c.032.028.05.07.051.124v.573l-.027.054-1.143-.027a96.298 96.298 0 0 0-1.777-.027c-.455.002-1.032.011-1.733.027l-1.16.027-.054-.054v-.573c.001-.055.02-.096.055-.123a.216.216 0 0 1 .136-.041l.546-.055c.443-.046.75-.164.924-.354a.936.936 0 0 0 .25-.682V6.795c.003-.293-.087-.499-.27-.618-.184-.119-.485-.195-.904-.228l-.546-.055a.315.315 0 0 1-.136-.024.09.09 0 0 1-.055-.085v-.628l.027-.054 1.184.027c.717.016 1.323.025 1.818.027a97.23 97.23 0 0 0 1.695-.027l1.143-.027Zm6.271 6.74c.297-.006.562.04.795.136.232.097.45.279.651.546l3.03 3.766c.183.214.3.406.347.576.048.17.068.342.062.515v.328l.027.027a71.549 71.549 0 0 1 1.664-.027c.427 0 .89.006 1.392.013l.819.014.082-.027v-.573c-.003-.041-.025-.075-.065-.103a.48.48 0 0 0-.126-.061l-.137-.027a5.54 5.54 0 0 1-.846-.225 1.649 1.649 0 0 1-.682-.43l-4.12-4.967a1.864 1.864 0 0 1-.174-.232.45.45 0 0 1-.072-.232c-.003-.106.044-.24.14-.402.096-.161.258-.364.488-.607l2.346-2.702c.48-.536.933-.875 1.361-1.016.428-.141.903-.22 1.423-.239.14-.004.213-.05.218-.136V5.13l-.082-.027-.689.027a38.3 38.3 0 0 1-1.221.027c-.471-.002-1.07-.011-1.798-.027l-1.204-.027-.027.027v.628c0 .04.014.069.041.088.027.02.068.036.123.048.272.045.472.119.6.222.129.103.192.21.191.324-.012.265-.199.635-.56 1.108-.36.474-.819 1.014-1.377 1.62-.578.634-1.053 1.086-1.423 1.355-.37.269-.769.4-1.197.392v-4.12c-.005-.264.08-.453.256-.567.176-.113.472-.207.89-.28l.3-.054a.354.354 0 0 0 .123-.048c.027-.019.041-.049.041-.088v-.6l-.027-.055-.955.027a69.27 69.27 0 0 1-1.528.027c-.499-.002-1.119-.011-1.86-.027l-1.224-.027-.027.054v.628a.09.09 0 0 0 .054.085c.036.017.081.025.137.024l.546.055c.43.033.735.11.914.228.178.12.265.325.259.618v9.086a.922.922 0 0 1-.28.683c-.189.19-.486.308-.893.354l-.546.055a.216.216 0 0 0-.137.04c-.035.028-.053.07-.054.124v.573l.054.054 1.215-.027c.732-.016 1.328-.025 1.787-.027.464.002.99.011 1.576.027l.962.027.027-.054v-.573c-.002-.053-.019-.09-.051-.113a.379.379 0 0 0-.113-.051l-.3-.055c-.394-.065-.684-.18-.87-.344-.186-.164-.278-.395-.276-.693v-4.038ZM52.38 6.795c-.005-.27.08-.468.256-.597.176-.13.472-.212.89-.25l.573-.054c.11-.004.164-.05.164-.136v-.6l-.027-.055-1.143.027a97.23 97.23 0 0 1-1.695.027c-.495-.002-1.102-.01-1.818-.027l-1.184-.027-.027.054v.628a.09.09 0 0 0 .054.085c.036.017.081.025.137.024l.545.055c.42.033.72.11.904.228.184.12.274.325.27.618v9.087a.936.936 0 0 1-.25.682c-.173.19-.48.308-.924.354l-.545.055a.216.216 0 0 0-.137.04c-.035.028-.053.07-.054.124v.573l.054.054 1.16-.027c.7-.016 1.278-.025 1.733-.027.492.002 1.084.011 1.777.027l1.143.027.027-.054v-.573c-.002-.055-.019-.096-.051-.123a.17.17 0 0 0-.113-.041l-.573-.055c-.43-.041-.73-.15-.9-.324-.17-.174-.253-.412-.246-.712V6.795Zm8.072.054c-.013-.35.096-.598.328-.743.232-.146.668-.216 1.31-.212.763-.027 1.378.157 1.845.553.467.395.707 1.166.72 2.312 0 1.048-.2 1.825-.6 2.33-.402.505-1.012.757-1.829.754a8.171 8.171 0 0 1-.887-.041 3.434 3.434 0 0 1-.887-.205V6.85Zm-2.1 9.169c.005.256-.075.453-.243.59-.168.137-.46.231-.877.283l-.573.082a.296.296 0 0 0-.123.051c-.027.022-.04.06-.04.113v.573l.027.054 1.119-.027c.676-.016 1.24-.025 1.691-.027.497.002 1.107.011 1.832.027l1.197.027.028-.054v-.573c-.001-.053-.02-.09-.055-.113a.423.423 0 0 0-.136-.051l-.546-.082c-.432-.058-.741-.146-.928-.263-.186-.116-.277-.32-.273-.61V12.36c.244.107.507.18.788.219.282.038.592.057.931.054 1.89-.073 3.152-.568 3.787-1.487.634-.919.927-1.824.88-2.715.05-.76-.229-1.492-.84-2.197-.61-.705-1.858-1.082-3.745-1.132-.513.002-1.021.011-1.524.027-.504.016-.95.025-1.34.027a71.105 71.105 0 0 1-1.55-.027 84.479 84.479 0 0 0-1.262-.027l-.054.027v.628c-.002.03.009.059.034.088.025.03.077.046.157.048.63.023 1.062.086 1.3.191.236.105.35.36.337.764v9.169Zm18.038 1.692c.46.002.967.011 1.522.027l.907.027.054-.054.546-3.138-.682-.082c-.16.716-.44 1.276-.842 1.678-.402.402-.95.607-1.641.614H73.66a.701.701 0 0 1-.58-.324 1.262 1.262 0 0 1-.212-.713V11.57h2.047c.348.001.6.074.757.218.157.145.26.354.307.628l.136.6c-.004.087.06.132.191.137h.464l.055-.055c-.03-.31-.065-.617-.102-.92a8.55 8.55 0 0 1-.062-.963c.004-.333.024-.676.062-1.03l.102-.989a.153.153 0 0 0-.007-.061c-.006-.014-.021-.02-.048-.02h-.464c-.109.004-.163.05-.163.136l-.164.573c-.044.275-.14.489-.286.64-.147.153-.406.23-.778.233h-2.047V6.74c0-.23.068-.397.201-.501.134-.104.33-.156.59-.154h2.184c.852.04 1.46.323 1.824.85.365.527.612 1.062.74 1.606l.683-.11a35.696 35.696 0 0 1-.266-1.585 14.743 14.743 0 0 1-.143-1.689l-.055-.054-1.071.027c-.65.016-1.212.025-1.685.027H71.86a99.802 99.802 0 0 1-1.781-.027l-1.167-.027-.027.054v.628c-.003.015.004.033.02.055.018.021.065.04.144.054l.628.055c.38.017.657.078.832.18.175.103.261.307.26.611v9.005c.006.283-.07.536-.23.76-.16.225-.447.363-.862.413l-.628.055c-.067.002-.11.018-.133.048a.134.134 0 0 0-.03.088v.6l.026.055 1.044-.027a84.013 84.013 0 0 1 1.658-.027h4.775Zm5.366-.573v.573l.028.054 1.139-.027c.69-.016 1.275-.025 1.753-.027.4.002.897.011 1.49.027.595.016 1.426.025 2.494.027a7.076 7.076 0 0 0 4.342-1.306c1.303-.911 1.993-2.54 2.07-4.888.003-1.857-.56-3.389-1.688-4.595-1.127-1.205-2.829-1.83-5.106-1.872-.428.002-1.052.011-1.872.027-.82.016-1.397.025-1.73.027-.19 0-.513-.005-.968-.014l-1.284-.026c-.4-.01-.614-.013-.64-.014l-.028.054v.6c.002.042.02.075.055.1.035.024.08.037.136.037l.6.055c.44.024.735.078.884.16.15.083.22.293.208.631v9.005c.006.414-.074.705-.238.873-.165.169-.45.269-.853.3l-.628.055c-.054.002-.095.019-.123.051a.17.17 0 0 0-.04.113Zm3.984-1.392V6.74c.007-.334.165-.56.475-.679.31-.119.733-.174 1.272-.167 2.223.079 3.664.747 4.325 2.006.66 1.258.956 2.637.887 4.134-.008 1.877-.415 3.178-1.221 3.902-.806.724-1.964 1.07-3.473 1.037-1.001-.003-1.638-.113-1.91-.327-.272-.215-.39-.516-.355-.901Zm15.83-8.95c-.006-.27.08-.468.255-.597.176-.13.473-.212.89-.25l.573-.054c.11-.004.164-.05.164-.136v-.6l-.027-.055-1.143.027a97.23 97.23 0 0 1-1.695.027c-.495-.002-1.101-.01-1.818-.027l-1.184-.027-.027.054v.628a.09.09 0 0 0 .055.085c.035.017.08.025.136.024l.546.055c.419.033.72.11.904.228.183.12.273.325.27.618v9.087a.937.937 0 0 1-.25.682c-.173.19-.481.308-.924.354l-.546.055a.217.217 0 0 0-.136.04c-.036.028-.054.07-.055.124v.573l.055.054 1.16-.027c.7-.016 1.277-.025 1.732-.027.492.002 1.084.011 1.777.027l1.143.027.027-.054v-.573c-.002-.055-.019-.096-.05-.123a.17.17 0 0 0-.114-.041l-.573-.055c-.43-.041-.73-.15-.9-.324-.17-.174-.252-.412-.246-.712V6.795ZM117.952.082c.004-.055-.031-.082-.109-.082-.215.04-.405.069-.57.085a7.54 7.54 0 0 1-.712.024h-6.877c-.275 0-.686-.003-1.233-.007L106.934.09l-.742-.007-.054.027v.546a.197.197 0 0 0 .037.126c.028.04.088.062.181.065l.819.054c.511.032.873.132 1.084.3.212.169.314.46.307.874v13.671c.008.378-.09.659-.296.843-.207.183-.572.293-1.095.33l-.819.055c-.08.003-.138.024-.17.065a.189.189 0 0 0-.048.126v.546l.054.054 3.493-.054h5.813c.718.002 1.464.011 2.237.027l1.255.027 1.01-4.557-.846-.136c-.263 1.008-.686 1.85-1.269 2.524-.583.674-1.388 1.024-2.415 1.05h-3.71c-.304.009-.543-.049-.717-.173-.174-.125-.263-.367-.266-.727v-6.85h3.465c.46-.005.796.068 1.01.222.214.155.332.426.355.816l.054.71c0 .043.02.085.058.125.038.04.092.062.16.065h.628l.082-.082a54.295 54.295 0 0 1-.055-.893c-.031-.55-.05-1.08-.054-1.59.004-.492.023-.995.054-1.51.032-.517.05-.795.055-.837a.114.114 0 0 0-.024-.075c-.016-.021-.045-.033-.085-.034h-.6a.177.177 0 0 0-.137.069.238.238 0 0 0-.054.15l-.082.682c-.033.382-.152.668-.355.86-.204.19-.54.286-1.01.286h-3.465V2.074c0-.323.082-.55.245-.682.164-.132.41-.196.737-.191h2.865c.989.006 1.693.266 2.112.78.419.515.76 1.246 1.026 2.194l.792-.136a89.342 89.342 0 0 0-.331-2.316c-.14-.904-.23-1.45-.27-1.641Z"/></svg>