<svg xmlns="http://www.w3.org/2000/svg" width="146" height="20" fill="none"><g fill="#000" clip-path="url(#a)"><path d="M13.75.232c.974.023 1.775.041 2.293.041a54.5 54.5 0 0 0 1.57-.033l.954-.026c.172.18.172.81 0 .989-1.83.232-2.242 1.297-2.765 2.649l-.054.14L9.82 19.288c-.167.43-.373.69-.688.69-.287 0-.488-.223-.66-.69L2.807 3.933l-.046-.125c-.776-2.08-.917-2.459-2.52-2.605-.173-.18-.202-.81-.03-.99.45.01.803.02 1.118.03.629.017 1.1.03 1.865.03.897 0 1.72-.019 2.707-.042l.763-.017c.172.18.172.81 0 .989-1.95.21-2.116.615-1.45 2.4l4.562 12.206h.132l4.529-12.027c.613-1.631.602-2.43-1.52-2.58-.173-.18-.173-.809 0-.988l.834.018Zm10.58 18.486c.13.13.13.58 0 .71l-.697-.015a83.71 83.71 0 0 0-2.078-.028c-.845 0-1.421.013-2.123.028h-.006l-.667.015c-.13-.13-.13-.58 0-.71 1.505-.064 1.871-.172 1.871-1.958V8.133c0-1.786-.365-1.893-1.871-1.958-.13-.129-.13-.58 0-.71.26.006.493.01.713.016.69.015 1.246.028 2.062.028.838 0 1.413-.013 2.108-.029l.688-.015c.13.13.13.581 0 .71-1.505.065-1.871.172-1.871 1.958v8.627c0 1.786.366 1.893 1.871 1.958Zm6.907.71c.13-.13.13-.58 0-.71-1.506-.064-1.872-.172-1.871-1.957V12.74c.723.021 1.29.262 1.72.815l3.508 4.26c.428.52.43 1.093.43 1.484 0 .065.022.13.108.13l.117-.007c.382-.019.738-.037 1.324-.037.55 0 .877.01 1.322.022.235.006.502.014.851.021.129-.129.129-.58 0-.71a3.79 3.79 0 0 0-.17-.019c-.42-.04-1.095-.106-1.723-.884L32.14 12.22c-.194-.215-.258-.366-.258-.538 0-.15.093-.294.796-1.054L35.69 7.38c.92-.982 1.804-1.087 2.616-1.184l.18-.021c.13-.13.13-.581 0-.71-.386.008-.65.016-.877.023-.366.012-.635.02-1.167.02-.623 0-1.088-.011-1.681-.026l-.75-.017c-.129.129-.129.58 0 .71.09.008.182.014.272.02.68.046 1.245.084.33 1.098L31 11.08c-.433.452-.883.768-1.636.832v-3.78c0-1.786.366-1.893 1.872-1.958.13-.129.13-.58 0-.71l-.689.015c-.695.016-1.27.029-2.108.029-.816 0-1.372-.013-2.062-.028l-.713-.016c-.13.13-.13.581 0 .71 1.507.065 1.872.172 1.872 1.958v8.627c0 1.786-.366 1.893-1.872 1.958-.13.13-.13.58 0 .71l.668-.015h.005a85.64 85.64 0 0 1 2.124-.028c.822 0 1.38.012 2.078.028l.697.015Zm14.502-.71c.129.13.129.58 0 .71l-.697-.015a83.717 83.717 0 0 0-2.078-.028c-.845 0-1.422.013-2.124.028h-.003l-.67.015c-.13-.13-.13-.58 0-.71 1.506-.064 1.872-.172 1.872-1.958V8.133c0-1.786-.366-1.893-1.872-1.958-.13-.129-.13-.58 0-.71.26.006.493.01.713.016.69.015 1.246.028 2.062.028.839 0 1.413-.013 2.108-.029h.001l.688-.015c.129.13.129.581 0 .71-1.506.065-1.872.172-1.872 1.958v8.627c0 1.786.366 1.893 1.872 1.958Zm8.693-10.004c.213 0 .425 0 .59-.129-.075-1.033-.16-1.635-.382-2.776a4.915 4.915 0 0 1-1.03-.257c-.477-.162-.95-.324-2.27-.324-1.965 0-4.094 1.442-4.094 3.722 0 2.003 1.439 3.04 3.106 3.765.2.087.418.17.645.256 1.308.498 2.896 1.103 2.896 3.208 0 1.743-.972 2.647-2.69 2.647-2.01 0-3.302-.915-3.775-3.056a.857.857 0 0 0-.7.065c.087 1.657.173 2.216.431 3.27.62 0 1.082.104 1.584.216.596.133 1.247.279 2.282.279 2.6 0 4.675-1.98 4.675-4.174 0-2.048-1.398-3.08-2.95-3.743a13.861 13.861 0 0 0-.525-.204c-1.271-.476-3.444-1.29-3.444-3.11 0-1.311.982-2.409 2.356-2.409 2.09 0 2.756 1.334 3.186 2.754h.109Zm-5.487-6.798-.344.43c.774.602 1.527 1.248 2.173 2.044h.925c.646-.732 1.334-1.42 2.151-2.044l-.322-.43c-.817.344-1.506.753-2.302 1.312a10.823 10.823 0 0 0-2.28-1.312Z"/><path fill-rule="evenodd" d="M61.403 18.718c.129.13.129.58 0 .71a110.2 110.2 0 0 0-2.754-.043c-.584 0-.897.01-1.302.024l-.613.019c-.129-.13-.129-.58 0-.71.936-.064 1.584-.198 2.151-1.528l4.783-11.193c.245-.577.409-.768.725-.768.301 0 .424.23.581.645l4.41 11.66c.377 1.05 1.028 1.106 1.804 1.172h.005l.127.012c.13.13.13.58 0 .71h-.02a83.743 83.743 0 0 0-2.432-.043c-.839 0-2.022.022-2.818.043-.13-.13-.13-.58 0-.71.124-.009.247-.016.366-.022.856-.046 1.507-.082 1.226-.86L66.329 14.2h-4.474c-.517 0-.646.086-.753.366l-1.184 3.12c-.335.884.676.976 1.485 1.032Zm4.582-5.421-2.087-5.744h-.043L61.7 13.01c-.09.232.065.286.543.286h3.743Z" clip-rule="evenodd"/><path d="M71.903 18.718c-.129.13-.129.58 0 .71a500.45 500.45 0 0 1 2.797-.043h4.576c.587 0 2.567.043 2.567.043.215-1.076.43-2.475.559-3.593a1.195 1.195 0 0 0-.71-.108c-.43 1.55-1.01 2.819-2.646 2.819h-2.431c-.624 0-1.011-.409-1.011-1.076V8.133c0-1.786.365-1.893 1.871-1.958.13-.129.13-.58 0-.71l-.688.015c-.695.016-1.27.029-2.108.029-.816 0-1.372-.013-2.062-.028l-.714-.016c-.129.13-.129.581 0 .71 1.506.065 1.872.172 1.872 1.958v8.627c0 1.786-.366 1.893-1.872 1.958Zm20.569 0c.129.13.129.58 0 .71l-.546-.012c-.81-.017-1.489-.031-2.445-.031-.98 0-1.68.015-2.49.032l-.174.004-.198.004-.15.003c-.129-.13-.129-.58 0-.71 1.721-.064 2.087-.172 2.087-1.958V7.617c0-.667-.43-1.27-1.226-1.27h-1.7c-1.182 0-1.462.28-1.892 2.001-.27.005-.519-.02-.732-.108.258-1.14.387-2.258.473-3.312.332-.035.496.024.662.084l.005.002c0 .129 0 .495.452.495h9.359c.451 0 .473-.366.473-.495.215-.065.43-.084.645-.086 0 1.054.108 2.216.28 3.312-.207.102-.413.104-.618.106l-.114.002c-.365-1.656-.516-2-1.7-2H91.59c-.775 0-1.205.602-1.205 1.334v9.078c0 1.786.365 1.893 2.087 1.958Zm9.51.71c.129-.13.129-.58 0-.71-1.506-.064-1.872-.172-1.872-1.958V8.133c0-1.786.366-1.893 1.872-1.958.129-.129.129-.58 0-.71l-.689.015c-.695.016-1.269.029-2.108.029-.816 0-1.372-.013-2.062-.028l-.713-.016c-.13.13-.13.581 0 .71 1.506.065 1.872.172 1.872 1.958v8.627c0 1.786-.366 1.893-1.872 1.958-.13.13-.13.58 0 .71l.672-.015c.703-.015 1.28-.028 2.125-.028.822 0 1.38.012 2.077.028l.698.015Zm11.016-13.253c-.129-.129-.129-.58 0-.71l.889.021c.503.013.881.023 1.499.023.639 0 1.033-.01 1.545-.024l.864-.02c.129.13.129.581 0 .71-1.506.15-1.871.28-1.871 2.195v10.563c0 .409-.194.667-.495.667-.345 0-.625-.194-.861-.516l-7.509-9.488c-.365-.473-.602-.71-.731-.71-.172 0-.172.323-.172 1.054v6.583c0 1.958.366 2.044 1.871 2.195.13.129.13.58 0 .71l-.88-.02a51.714 51.714 0 0 0-1.508-.023c-.642 0-1.037.01-1.553.023l-.856.02c-.129-.13-.129-.581 0-.71 1.506-.151 1.872-.28 1.872-2.195V7.552c-.129-.56-.775-1.312-1.7-1.377-.128-.13-.128-.58 0-.71l2.905.043 7.379 9.51c.157.199.289.373.402.522.337.443.502.66.631.66.15 0 .15-.236.15-.645V8.369c0-1.957-.365-2.043-1.871-2.194Zm11.446 13.253c.13-.13.13-.58 0-.71-1.505-.064-1.871-.172-1.872-1.958V8.133c0-1.786.366-1.893 1.872-1.958.13-.129.13-.58 0-.71l-.689.015c-.694.016-1.269.029-2.107.029-.816 0-1.372-.013-2.062-.028l-.714-.016c-.129.13-.129.581 0 .71 1.506.065 1.872.172 1.872 1.958v8.627c0 1.786-.366 1.893-1.872 1.958-.129.13-.129.58 0 .71l.672-.015c.703-.015 1.28-.028 2.125-.028.822 0 1.38.012 2.077.028l.698.015Z"/><path fill-rule="evenodd" d="M129.673 18.718c.129.13.129.58 0 .71-.796-.022-1.872-.043-2.754-.043-.584 0-.897.01-1.301.024l-.614.019c-.129-.13-.129-.58 0-.71.936-.064 1.584-.198 2.152-1.528l4.782-11.193c.245-.577.409-.768.725-.768.301 0 .424.23.581.645l4.41 11.66c.377 1.05 1.028 1.106 1.804 1.172h.001l.131.012c.13.13.13.58 0 .71h-.018a84.014 84.014 0 0 0-2.434-.043c-.839 0-2.022.022-2.819.043-.129-.13-.129-.58 0-.71.125-.009.248-.015.366-.022.857-.046 1.508-.082 1.226-.86l-1.312-3.636h-4.475c-.516 0-.646.086-.753.366l-1.183 3.12c-.335.884.676.976 1.485 1.032Zm4.582-5.421-2.086-5.744h-.043l-2.156 5.458c-.09.232.064.286.542.286h3.743Z" clip-rule="evenodd"/><path d="M145.789 19.428c.129-.13.129-.58 0-.71-1.506-.064-1.872-.172-1.872-1.958V8.133c0-1.786.366-1.893 1.872-1.958.129-.129.129-.58 0-.71l-.689.015c-.695.016-1.269.029-2.108.029-.816 0-1.372-.013-2.062-.028l-.713-.016c-.129.13-.129.581 0 .71 1.506.065 1.872.172 1.872 1.958v8.627c0 1.786-.366 1.893-1.872 1.958-.129.13-.129.58 0 .71l.672-.015a85.697 85.697 0 0 1 2.125-.028c.822 0 1.379.012 2.077.028l.698.015Z"/></g><defs><clipPath id="a"><path fill="#fff" d="M0 0h146v20H0z"/></clipPath></defs></svg>