<svg xmlns="http://www.w3.org/2000/svg" width="130" height="20" viewBox="0 0 34.396 5.292"><g stroke-width=".54" aria-label="ikiamachtI" style="font-variant-caps:small-caps"><path d="M3.763.905q-.03-.024-.033-.1 0-.075.033-.105l.484.012q.14 0 .45-.012.03.03.03.105 0 .073-.03.1-.216.033-.34.168-.122.135-.264.403l-.45.856.787 1.63h.027l1.17-2.528q.122-.247.068-.376-.05-.13-.333-.153-.03-.024-.03-.1T5.362.7l.61.012q.048 0 .541-.012.024.03.024.105 0 .073-.024.1-.06.006-.114.02l-.093.028q-.04.012-.079.042t-.066.048q-.024.015-.057.06-.03.042-.045.06-.012.015-.042.072l-.036.075-.036.085-.036.08L4.45 4.615q-.069.14-.147.144-.094 0-.142-.144l-.83-1.786-.907 1.786q-.054.14-.147.144-.087 0-.141-.144L.799 1.464l-.04-.09q-.122-.289-.203-.37-.079-.081-.31-.1-.03-.03-.03-.102T.24.7q.579.012.64.012.105 0 .685-.012.025.03.025.105 0 .073-.025.1-.282.03-.33.129-.045.1.078.36L2.44 3.962h.03l.689-1.397-.52-1.1q-.163-.343-.247-.44Q2.308.93 2.12.905q-.03-.03-.03-.102T2.113.7q.393.012.547.012.117 0 .559-.012.03.03.03.105.003.073-.03.1-.187.027-.193.129-.006.1.13.36l.303.623.027.027.325-.61q.105-.19.132-.292t-.012-.16q-.039-.06-.168-.077M7.164 2.602V3.93q0 .371.072.457.075.084.373.105.03.03.03.105 0 .073-.03.097-.528-.012-.685-.012-.172 0-.689.012-.024-.024-.024-.097 0-.075.024-.105.294-.024.367-.108.075-.084.075-.454V2.602q0-.371-.075-.454-.072-.088-.367-.108-.024-.03-.024-.103 0-.075.024-.099.528.012.683.012.171 0 .691-.012.03.024.03.1 0 .072-.03.102-.294.024-.37.108t-.075.454M8.368 2.602q0-.371-.075-.451-.072-.084-.366-.111-.024-.03-.024-.103 0-.075.024-.099.516.012.688.012.06 0 .592-.012.024.024.024.1 0 .072-.024.102-.234.024-.295.108-.057.084-.057.454v.547q.294 0 .647-.394.456-.516.411-.637-.027-.066-.183-.078-.03-.03-.03-.103 0-.075.03-.099.528.012.676.012.1 0 .433-.012.03.024.03.1 0 .072-.03.102-.456.024-.661.258l-.53.61q-.14.147-.14.229 0 .036.057.105l.91 1.07q.13.147.394.18.024.03.024.1 0 .066-.024.096-.3-.006-.475-.006-.246 0-.381.012v-.088q0-.14-.094-.243l-.682-.85q-.117-.154-.382-.154v.571q0 .371.057.454.06.081.295.108.024.03.024.105 0 .073-.024.097-.528-.012-.592-.012-.172 0-.688.012-.024-.024-.024-.097 0-.075.024-.105.293-.024.366-.108.075-.084.075-.454zM12.092 2.602V3.93q0 .371.072.457.075.084.373.105.03.03.03.105 0 .073-.03.097-.528-.012-.686-.012-.171 0-.688.012-.024-.024-.024-.097 0-.075.024-.105.294-.024.367-.108.075-.084.075-.454V2.602q0-.371-.075-.454-.072-.088-.367-.108-.024-.03-.024-.103 0-.075.024-.099.528.012.682.012.172 0 .692-.012.03.024.03.1 0 .072-.03.102-.294.024-.37.108t-.075.454M13.236 4.036l.953-2.098q.075-.16.204-.162.184 0 .247.156l.874 2.11q.012.024.036.087.025.06.03.076l.028.063q.024.045.033.057l.033.045q.024.03.042.036t.048.027q.033.021.066.027l.075.015q.045.01.1.018.023.03.023.105.003.072-.024.097-.456-.012-.54-.012-.2 0-.653.012-.024-.025-.024-.097 0-.075.024-.105.264-.018.283-.105.02-.087-.09-.31l-.18-.448H13.77q-.105 0-.135.067l-.172.381q-.105.235-.06.316.049.078.3.1.025.03.025.104 0 .073-.024.097-.456-.012-.592-.012t-.406.012q-.024-.025-.024-.097 0-.075.024-.105.123-.012.204-.039.085-.03.145-.102.063-.075.09-.126.03-.055.09-.19m1.515-.616-.445-1.133q-.03-.012-.042.006l-.463 1.04q0 .087.123.087zM18.874 2.33l-.98 2.375q-.018.048-.066.051-.054 0-.075-.05l-.875-2.333h-.012l-.177 1.563q-.048.34-.003.439.045.096.297.117.03.03.03.105 0 .072-.03.096-.246-.012-.472-.012-.099 0-.408.012-.024-.024-.024-.096 0-.075.024-.105.135-.012.192-.04.057-.03.102-.147.048-.117.078-.37l.202-1.779v-.033q0-.015-.01-.024-.008-.009-.023-.018-.012-.009-.03-.015t-.036-.009-.052-.003q-.03 0-.057-.003-.027-.006-.069-.009-.039-.003-.075-.003-.024-.03-.024-.102 0-.075.024-.1l.857.013.787 2.203.893-2.203.8-.012q.023.024.023.099 0 .072-.024.102-.246.018-.303.057-.054.036-.042.217l.123 1.61q.03.386.075.464.048.075.283.105.024.03.024.105 0 .072-.024.096-.417-.012-.53-.012-.134 0-.615.012-.025-.024-.025-.096 0-.075.025-.105l.14-.015q.049-.01.094-.036.045-.03.057-.051.015-.024.024-.103.012-.078.01-.144l-.01-.22-.081-1.592zM20.43 4.036l.953-2.098q.075-.16.204-.162.183 0 .247.156l.874 2.11q.012.024.036.087l.03.076.027.063q.024.045.033.057l.034.045q.024.03.042.036t.048.027q.033.021.066.027l.075.015q.045.01.1.018.023.03.023.105.003.072-.024.097-.456-.012-.54-.012-.2 0-.653.012-.024-.025-.024-.097 0-.075.024-.105.264-.018.282-.105.021-.087-.09-.31l-.18-.448h-1.052q-.105 0-.135.067l-.172.381q-.105.235-.06.316.048.078.3.1.025.03.025.104 0 .073-.024.097-.457-.012-.592-.012t-.406.012q-.024-.025-.024-.097 0-.075.024-.105.123-.012.204-.039.084-.03.144-.102.064-.075.09-.126.03-.055.09-.19m1.515-.616L21.5 2.287q-.03-.012-.042.006l-.463 1.04q0 .087.123.087zM24.748 4.74q-.664 0-1.046-.348-.425-.393-.423-1.09 0-.665.411-1.089.411-.428 1.028-.427.277 0 .595.051.323.048.41.048.068.328.071.788-.08.048-.183.018-.054-.334-.273-.517t-.584-.183q-.94 0-.94 1.25 0 .493.267.88.268.389.697.388.3 0 .5-.102.198-.102.414-.355.048.019.123.124-.222.293-.468.43-.247.135-.599.135M28.984 2.602V3.93q0 .371.072.457.075.084.37.105.023.03.023.105.003.073-.024.097-.527-.012-.682-.012-.171 0-.688.012-.03-.024-.03-.097 0-.075.03-.105.294-.024.367-.108.075-.084.075-.454v-.598h-1.422v.598q0 .37.072.457.075.084.373.105.024.03.024.105 0 .073-.024.097-.528-.012-.685-.012-.172 0-.689.012-.03-.024-.03-.097 0-.075.03-.105.294-.024.367-.108.075-.084.075-.454V2.602q0-.371-.075-.454-.072-.088-.367-.108-.03-.03-.03-.103 0-.075.03-.099.528.012.682.012.172 0 .692-.012.024.024.024.1 0 .072-.024.102-.294.024-.37.108-.075.084-.075.454v.529h1.422V2.6q0-.37-.075-.453-.073-.088-.367-.108-.03-.03-.03-.103 0-.075.03-.099.527.012.682.012.172 0 .688-.012.024.024.024.1.003.072-.024.102-.293.024-.37.108-.071.084-.071.454M31.271 3.93q0 .372.072.458.075.084.37.105.03.03.03.105.003.072-.03.096-.528-.012-.682-.012-.172 0-.689.012-.024-.024-.027-.096 0-.075.027-.105.294-.024.367-.108.075-.085.075-.454V2.374q0-.123-.06-.217-.057-.096-.18-.096h-.265q-.204 0-.291.111-.085.109-.184.454-.087.006-.165-.018.048-.288.051-.844.093-.012.153 0 .03.087.166.087h1.974q.136 0 .169-.087.087-.024.153 0 0 .504.048.844-.06.036-.165.018-.093-.34-.184-.45-.087-.115-.285-.115h-.201q-.118 0-.184.1-.063.096-.063.219zM33.504 3.93q0 .372.097.46.096.088.438.103.027.027.027.102.003.072-.027.1-.616-.013-.793-.013-.199 0-.8.012-.027-.027-.027-.099 0-.075.027-.102.345-.012.44-.102t.095-.46V1.463q0-.37-.096-.457-.093-.09-.439-.102-.027-.027-.027-.102T32.446.7q.616.012.794.012.198 0 .8-.012.026.027.026.102.003.072-.027.102-.345.012-.441.102-.094.087-.094.457z"/></g></svg>