<svg viewBox="0 0 106 18" xmlns="http://www.w3.org/2000/svg"><path d="m95.276 5.285-.87-.876h2.235c-.267.288-.451.58-.552.876h-.813zm3.967 2.571c-.322.262-.76.394-1.314.394a1.572 1.572 0 0 1-1.149-.654 2.038 2.038 0 0 1-.412-1.276c0-.525.148-.984.444-1.377.322-.432.736-.652 1.244-.66.681-.009 1.29.471 1.822 1.44.212.39.328.876.35 1.46 0 .047-.009.21-.026.49-.08 1.19-.605 2.18-1.574 2.964l1.7 2.653-.279.222-1.86-2.691c-.27.13-.575.16-.914.089-.698-.152-1.05-.472-1.047-.959 0-.52.216-.827.648-.92.364 0 .523-.004.476-.013.182.025.366.13.552.317.038.038.1.125.187.26.087.136.13.22.13.254.681-.317 1.02-.982 1.022-1.993zM97.93 4.765c-.444.008-.667.377-.666 1.104 0 .322.061.641.184.959.224.584.605.876 1.142.876.347-.072.521-.394.521-.965 0-.491-.078-.916-.235-1.276-.207-.474-.523-.707-.946-.698zm2.197.52a2.797 2.797 0 0 0-.699-.876h5.618l.882.876h-2.19v8.227l-1.04-1.066v-7.16h-2.571zm-8.083.01h-.966l-.896-.89h4.257l.889.89h-2.22v8.359l-1.063-1.071V5.295m.733-.89a22.381 22.381 0 0 0-.824-1.2c-.861-1.15-1.36-1.8-1.493-1.94C89.694.42 88.99.004 88.358 0c-.46 0-.993.09-1.603.27l1.18 1.194c.412-.06.71-.09.896-.09.601 0 1.28.37 2.051 1.11a8.289 8.289 0 0 1 1.505 1.921h.39m-13.374.89-.89-.89h12.129l.889.89h-6.003v2.483a3.77 3.77 0 0 1 .286-.239c.147-.107.292-.18.435-.219.294-.081.569-.123.824-.122.662 0 1.21.23 1.642.69.433.456.649 1.02.648 1.683 0 .533-.19 1.04-.57 1.51-.287.364-.734.67-1.344.915l-.474-.916c.614-.284 1.03-.507 1.233-.67.46-.357.688-.748.688-1.174 0-.383-.18-.73-.538-1.039-.23-.193-.586-.267-1.071-.219-.229.022-.51.172-.844.451a5.227 5.227 0 0 0-.915 1.013v4.212l-1.077-1.084v-1.877c-.186.206-.46.385-.824.536-.363.146-.69.219-.98.219-.627 0-1.16-.213-1.61-.639a2.101 2.101 0 0 1-.661-1.573c0-.636.21-1.16.63-1.574.42-.417.95-.626 1.59-.626.812 0 1.43.344 1.855 1.032v.394a1.929 1.929 0 0 0-1.31-.503c-.633 0-1.12.123-1.467.367-.476.335-.735.783-.779 1.342-.026.353.072.636.292.851.182.172.433.258.753.258.459 0 .984-.232 1.577-.696.623-.49.934-.96.934-1.406v-3.38h-5.048M72.485 9.21c-.303-.378-.454-.7-.454-.961 0-.451.175-.701.525-.748h4.108V5.295h-5.613l-.89-.89h8.859l.889.89h-2.207v8.358l-1.038-1.019v-4.12h-2.732v1.444c-.026.245-.1.396-.22.451a.64.64 0 0 1-.461-.245l-.766-.954M68.67 5.295h-.966l-.896-.89h4.257l.889.89h-2.22v8.359l-1.064-1.071V5.295m-3.374 0h-7.236l-.895-.89h7.235l.896.89m-.909 2.548h-3.205c.199.073.53.288.992.645.523.4.84.718.948.954.082.176.123.378.123.606 0 .44-.173.838-.519 1.2-.346.361-.74.574-1.181.638l.675 1.62-.396.406-.785-1.87a2 2 0 0 1-.584.077c-.381 0-.705-.107-.974-.323a1.102 1.102 0 0 1-.434-.903c0-.64.309-.967.928-.98.307-.01.569.097.785.316.16.163.266.35.318.561a.873.873 0 0 0 .655-.297.942.942 0 0 0 .286-.67c0-.43-.128-.724-.383-.884l-2.498-1.574V6.85h5.25v.994m0-2.548h-.708l-.882-.89h4.094l.89.89H65.6v8.358l-1.214-1.206V5.295M44.243 8.416v5.225l-1.077-1.078v-4.23h-2.128c-.536 0-.96.133-1.272.4-.337.283-.506.687-.506 1.212 0 .709.26 1.39.778 2.032l1.467 1.676h-.428a9.528 9.528 0 0 1-1.921-1.786c-.666-.83-1-1.6-1-2.309 0-.434.187-.843.559-1.225h-.993l-1.064-1.071h6.508V5.295h-6.528l-.895-.89H50.22l.889.89h-6.866v2.09c.277-.013.584-.018.922-.013.355.004.794.025 1.317.064.692.155 1.23.428 1.603.82.51.532.766 1.14.765 1.83 0 .564-.2 1.2-.603 1.91-.195.34-.55.886-1.064 1.638l-.954-.922c.324-.241.755-.602 1.291-1.084.532-.593.798-1.16.798-1.709 0-.45-.18-.832-.538-1.141-.346-.297-.911-.464-1.694-.503-.359-.018-.973.03-1.843.141m-10.065 6.908-.766-.794c.48-.37.997-.542 1.551-.515.467.021.861.245 1.181.67.294.396.441.834.442 1.316 0 .576-.24 1.02-.72 1.322-.408.262-.916.393-1.526.393-.865 0-1.79-.419-2.777-1.257a10.48 10.48 0 0 1-2.05-2.374h.408c.376.641 1.03 1.27 1.953 1.884.973.645 1.81.967 2.518.967 1.16 0 1.75-.335 1.746-1.006 0-.224-.115-.441-.344-.651-.23-.206-.456-.31-.682-.31-.368 0-.679.118-.934.355m-3.33-3.838c-.034.026-.166.039-.395.039-.1 0-.586-.514-1.46-1.541l-.396-.439c-.134-.155-.2-.307-.201-.458 0-.292.188-.439.565-.438.229 0 .549.004.96.012V5.295h-2.492l-.889-.89h9.727l.89.89h-2.24v8.358l-1.187-1.18V9.771h-2.764c0 .49.004.924.013 1.303.004.206-.04.344-.13.412m2.881-6.191h-2.764V8.66h2.764V5.295m-25.029 0-.889-.89H19.94l.89.89h-6.003v2.483a3.77 3.77 0 0 1 .285-.239c.147-.107.292-.18.435-.219.294-.082.569-.123.824-.123.662 0 1.21.23 1.642.69.433.457.649 1.02.649 1.684 0 .533-.19 1.04-.571 1.509-.286.365-.733.671-1.344.916l-.473-.916c.614-.284 1.03-.507 1.233-.67.459-.358.688-.749.688-1.175 0-.383-.18-.729-.539-1.038-.229-.193-.586-.267-1.07-.22-.23.022-.51.173-.844.452a5.227 5.227 0 0 0-.915 1.013v4.211l-1.078-1.083v-1.877c-.186.206-.46.385-.824.535-.363.146-.69.22-.98.22-.627 0-1.16-.213-1.609-.639a2.101 2.101 0 0 1-.662-1.574c0-.636.21-1.16.63-1.573.42-.417.95-.626 1.59-.626.813 0 1.43.344 1.856 1.032v.393a1.929 1.929 0 0 0-1.311-.503c-.632 0-1.12.123-1.467.368-.476.335-.735.783-.779 1.342-.026.353.072.636.292.85.182.173.433.259.753.259.46 0 .984-.232 1.577-.697.623-.49.934-.959.935-1.406v-3.38H8.7m-3.691 4.78c.056-.043.266-.232.629-.568.19-.21.286-.673.286-1.386V5.295H2.906v4.198c0 .606.182 1.04.545 1.297L6.8 13.15c.268.19.532.383.791.58.268.259.402.545.403.858 0 .25-.138.527-.416.832a1.2 1.2 0 0 1-.512.413l-.656-.619c.208-.047.392-.16.552-.342a.812.812 0 0 0 .233-.574c-.004-.107-.062-.226-.175-.354a4.01 4.01 0 0 0-.383-.29l-3.316-2.368c-.15-.099-.43-.292-.837-.58a1.356 1.356 0 0 1-.467-.58c-.108-.263-.162-.616-.162-1.058V5.295h-.96l-.896-.89H8.33l.889.883L7 5.294v3.038c-.003.451-.03.761-.077.929-.082.292-.266.559-.552.8l-1.032.87-.616-.619c.047-.043.143-.123.285-.239" fill="#000" fill-rule="nonzero"/></svg>