<svg xmlns="http://www.w3.org/2000/svg" viewBox="0 0 127.54 40"><path d="M5.426 28.102h3.039c.69 0 1.24.207 1.644.59.395.367.617.887.614 1.43 0 .562-.203 1.05-.602 1.453-.406.41-.953.59-1.644.59H7.125v2.757h-1.7zm1.695 1.25v1.586h.793c.707 0 1.06-.281 1.063-.793 0-.305-.098-.508-.286-.637q-.285-.154-.964-.156zM19.617 28c1.16 0 2.1.36 2.816 1.047.72.715 1.07 1.53 1.075 2.453 0 .945-.355 1.76-1.098 2.453-.715.688-1.66 1.05-2.793 1.047-1.16 0-2.09-.332-2.82-1.023a3.34 3.34 0 0 1-1.09-2.477c0-.918.359-1.73 1.082-2.449.723-.69 1.66-1.05 2.828-1.05m0 5.594c.641 0 1.16-.203 1.566-.586.388-.383.59-.87.59-1.508 0-.613-.203-1.12-.59-1.507-.405-.383-.925-.562-1.566-.563-.648 0-1.17.18-1.562.563-.398.383-.594.895-.594 1.507 0 .637.195 1.12.594 1.508.395.383.914.586 1.562.586m14.414.078v1.25h-5.207v-6.82h1.707v5.57zm9.652-5.136v1.328c-.89-.406-1.63-.613-2.171-.614-.305 0-.535.051-.715.157-.176.102-.277.254-.278.406 0 .129.075.258.203.383.13.105.434.258.946.437.512.203.922.355 1.226.535.281.152.562.383.766.664.23.281.332.664.332 1.098 0 .641-.23 1.12-.715 1.508s-1.12.562-1.89.562c-.844 0-1.66-.23-2.477-.664V32.88c.457.31.867.512 1.227.664.355.13.715.203 1.12.204.669 0 .997-.203.997-.637 0-.13-.074-.254-.203-.383-.125-.129-.461-.28-.97-.488-.511-.176-.921-.328-1.202-.485a2 2 0 0 1-.766-.687c-.23-.281-.332-.637-.332-1.098-.015-.566.25-1.11.715-1.43.461-.358 1.1-.538 1.89-.539q1.073.001 2.297.536m11.215-.434-2.222 3.195 3.015 3.625h-2.12l-2.708-3.218v3.218h-1.687v-6.82h1.687v3.066l2.168-3.066zm9.528 0 3.039 6.82h-1.84l-.562-1.351h-3.04l-.511 1.351h-1.79l2.735-6.82zm.152 4.266-1.098-2.63-1 2.63zM12.434 13.418l-4.492 9.453H6.383L0 8.172h3.836L7.254 16.2l3.735-8.027h2.91l3.734 8.027 3.399-8.027h3.84l-6.364 14.7h-1.562zm17.82-5.246V22.71h-3.617V8.17zm15.562 0-4.73 6.832L47.5 22.71h-4.532l-5.75-6.832v6.832h-3.617V8.17h3.617v6.544l4.618-6.543zm6.863 0V22.71H49.05V8.17zm11.172 5.375 4.664-5.375h3.141V22.71h-3.625v-9.066l-3.918 4.535h-.555l-3.918-4.536v9.067h-3.593V8.17h3.14zm21.758 6.476v2.688H74.925V8.172H85.48v2.656h-6.96v3.043h6.636v2.684H78.52v3.465zm2.754-11.852h6.41c2.46 0 4.44.68 5.864 2.04 1.45 1.36 2.16 3.11 2.164 5.246 0 2.27-.742 4.02-2.2 5.312-1.46 1.29-3.53 1.94-6.218 1.938h-6.02zm3.625 2.657v9.195h2.363c1.52 0 2.69-.422 3.497-1.262.809-.844 1.23-1.95 1.23-3.304 0-1.46-.422-2.56-1.23-3.399-.81-.809-2.01-1.23-3.528-1.23zm17.227-2.657v14.54h-3.594V8.17zm11.883 0 6.442 14.54h-3.883l-1.2-2.88h-6.507l-1.067 2.88h-3.855l5.863-14.54zm.29 9.133-2.364-5.668-2.106 5.668z"/></svg>