<svg width="120" height="13" viewBox="0 0 120 13" fill="none" xmlns="http://www.w3.org/2000/svg">
<path fill-rule="evenodd" clip-rule="evenodd" d="M34.4722 8.71004C35.2035 8.6578 35.3471 8.60557 35.3471 7.52171V1.81514C35.3471 0.786856 35.2094 0.779902 34.6328 0.750785C34.5943 0.748841 34.5539 0.746799 34.5114 0.744348C34.433 0.665997 34.4069 0.457046 34.433 0.352578C34.9554 0.313402 35.9347 0.130585 36.2612 0C36.3787 0 36.431 0.0391805 36.431 0.13059C36.431 0.13059 36.3787 0.652936 36.3787 1.50174V6.01999C36.7183 5.91552 37.3712 5.34094 38.0633 4.58354C38.1939 4.45296 38.6117 3.95674 37.8282 3.91756C37.7499 3.83921 37.7499 3.56498 37.8282 3.48663C37.9616 3.49024 38.075 3.49384 38.1798 3.49717C38.4548 3.5059 38.6703 3.51275 39.0296 3.51275C39.3554 3.51275 39.5433 3.50648 39.7887 3.49828L39.7888 3.49828C39.8975 3.49465 40.0174 3.49064 40.1657 3.48663C40.2441 3.56498 40.2441 3.83921 40.1657 3.91756C39.5128 3.94368 39.108 4.10038 38.7293 4.49213L37.7368 5.58906C37.6977 5.62823 37.6846 5.6674 37.6846 5.71963C37.6846 5.78492 37.7107 5.85022 37.7499 5.90246L39.2777 8.16157C39.565 8.60556 39.9568 8.6578 40.4008 8.71004C40.4791 8.78839 40.4791 9.06262 40.4008 9.14097L40.1881 9.1336L40.188 9.1336C39.8998 9.12341 39.6577 9.11485 39.33 9.11485C38.9505 9.11485 38.7058 9.1271 38.4534 9.13974L38.4289 9.14097C38.3898 9.14097 38.3767 9.11485 38.3767 9.07567V8.86675C38.3767 8.69699 38.3375 8.54027 38.0763 8.16157L37.1231 6.81656C36.8619 6.45092 36.6791 6.35951 36.3787 6.34645V7.52171C36.3787 8.60557 36.5224 8.6578 37.0578 8.71004C37.1361 8.78839 37.1361 9.06262 37.0578 9.14097C36.8581 9.13632 36.7079 9.13168 36.5768 9.12762L36.5767 9.12762C36.3391 9.12027 36.1639 9.11485 35.8695 9.11485C35.4596 9.11485 35.1883 9.12214 34.8484 9.13128L34.8483 9.13128C34.7334 9.13437 34.6107 9.13767 34.4722 9.14097C34.3938 9.06262 34.3938 8.78839 34.4722 8.71004ZM27.7068 1.95879C27.3934 1.95879 27.08 1.61926 27.08 1.27974C27.08 0.966332 27.4456 0.652935 27.759 0.652935C28.1116 0.652935 28.3858 1.01857 28.3858 1.33197C28.3858 1.61926 28.0724 1.95879 27.7068 1.95879ZM29.6656 7.7437C29.7831 7.75676 29.8876 7.809 29.9398 7.92653C29.2869 8.99733 28.5948 9.24544 27.8113 9.24544C26.1659 9.24544 25.2257 8.08323 25.2257 6.39868C25.2257 4.54437 26.6099 3.38216 27.9027 3.38216C29.1563 3.38216 29.9006 3.9045 29.9006 4.62272C29.9006 5.02753 29.535 5.1973 29.2608 5.1973C28.9865 5.1973 28.8037 5.07977 28.7645 4.72719C28.7123 4.27014 28.6078 3.81309 27.8374 3.81309C26.9755 3.81309 26.3487 4.67495 26.3487 6.11139C26.3487 7.63923 27.1453 8.60557 28.0986 8.60557C28.6601 8.60557 29.2216 8.31828 29.6656 7.7437ZM1.75637 9.11485H4.52478C4.89041 9.11485 6.0918 9.14097 6.0918 9.14097C6.22238 8.48804 6.35297 7.63923 6.43132 6.96019C6.30074 6.90796 6.15709 6.88184 6.00039 6.8949C5.73922 7.83511 5.38664 8.60556 4.39419 8.60556H2.91858C2.53988 8.60556 2.30483 8.35746 2.30483 7.95264V2.28525C2.30483 1.20139 2.52682 1.1361 3.44092 1.09693C3.51927 1.01857 3.51927 0.744345 3.44092 0.665994C3.29744 0.668922 3.16643 0.671851 3.04201 0.674632C2.61157 0.684253 2.25996 0.692112 1.74331 0.692112C1.24814 0.692112 0.910687 0.684601 0.491726 0.675275C0.358256 0.672304 0.216513 0.669149 0.0587633 0.665994C-0.0195878 0.744345 -0.0195878 1.01857 0.0587633 1.09693C0.972859 1.1361 1.19485 1.20139 1.19485 2.28525V7.52171C1.19485 8.60557 0.972859 8.67086 0.0587633 8.71004C-0.0195878 8.78839 -0.0195878 9.06262 0.0587633 9.14097C0.69863 9.12791 1.75637 9.11485 1.75637 9.11485ZM10.4373 6.2028C10.6071 6.2028 10.7899 5.83716 10.7899 5.68045C10.7899 5.54987 10.7377 5.41929 10.6071 5.41929H7.74729C7.59059 5.41929 7.42083 5.71964 7.42083 5.95469C7.42083 6.08528 7.49918 6.2028 7.61671 6.2028H10.4373ZM14.6066 3.83921C14.2932 3.83921 13.3791 3.95674 13.131 5.43235L15.4946 5.39317C15.6382 5.39317 15.6905 5.32789 15.6905 5.21036C15.6905 4.11345 15.1028 3.83921 14.6066 3.83921ZM14.9331 8.60557C15.6905 8.60557 16.0692 8.39663 16.5523 7.90041C16.709 7.91347 16.7874 7.97875 16.8266 8.10934C16.3042 8.78838 15.5991 9.24544 14.6066 9.24544C13.6664 9.24544 13.0527 8.93204 12.6087 8.4097C12.1777 7.91347 11.9949 7.2083 11.9949 6.47702C11.9949 4.49213 13.4705 3.40828 14.6066 3.40828C16.4218 3.40828 16.8135 4.58354 16.8135 5.68045C16.8135 5.8241 16.7221 5.90246 16.5654 5.90246L13.0918 5.87634C13.0918 6.63373 13.2485 7.23443 13.5097 7.66536C13.9145 8.33135 14.463 8.60557 14.9331 8.60557ZM19.956 4.43989L19.9509 4.44677C19.9094 4.50242 19.8255 4.61513 19.8255 4.43989C19.8255 4.04814 19.8908 3.44746 19.8908 3.44746C19.8908 3.38216 19.8385 3.34298 19.7341 3.34298C19.3684 3.48663 18.833 3.60415 17.932 3.72168C17.9059 3.80003 17.932 4.00897 17.9581 4.08732C18.6633 4.15261 18.8069 4.2179 18.8069 4.9753V7.52171C18.8069 8.59251 18.6763 8.64474 17.8928 8.71004C17.8144 8.78839 17.8144 9.06262 17.8928 9.14097C18.0079 9.13816 18.114 9.13535 18.2151 9.13268L18.2152 9.13267C18.5845 9.1229 18.8885 9.11485 19.3292 9.11485C19.6853 9.11485 19.9073 9.12123 20.1961 9.12954H20.1961L20.1962 9.12954L20.1963 9.12954L20.1965 9.12955L20.1967 9.12956L20.1971 9.12957C20.3211 9.13313 20.4575 9.13705 20.622 9.14097C20.7004 9.06262 20.7004 8.78839 20.622 8.71004C19.956 8.64474 19.8385 8.59251 19.8385 7.52171V5.38011C19.8385 5.10588 19.956 4.94918 20.0605 4.83165C20.5567 4.34848 21.066 4.0612 21.5753 4.0612C21.8365 4.0612 22.1107 4.23096 22.2674 4.53131C22.398 4.79248 22.4241 5.14507 22.4241 5.53682V7.52171C22.4241 8.59251 22.2935 8.64474 21.6145 8.71004C21.5492 8.78839 21.5492 9.06262 21.6145 9.14097C21.7696 9.13728 21.9017 9.13358 22.0233 9.13018H22.0234C22.3316 9.12157 22.5719 9.11485 22.9464 9.11485C23.3364 9.11485 23.5947 9.12178 23.9232 9.13059L23.9234 9.13059L23.9237 9.1306L23.9242 9.13061L23.9248 9.13063L23.9258 9.13066C24.0476 9.13392 24.1792 9.13745 24.3307 9.14097C24.3959 9.06262 24.3959 8.78839 24.3307 8.71004C23.5994 8.64474 23.4557 8.59251 23.4557 7.52171V5.576C23.4557 4.85778 23.4035 4.23097 23.1031 3.82615C22.8812 3.53886 22.4763 3.38216 22.0193 3.38216C21.3794 3.38216 20.7526 3.55192 19.956 4.43989ZM31.6533 1.2928C31.6533 1.63232 31.9667 1.97185 32.2801 1.97185C32.6457 1.97185 32.9591 1.63232 32.9591 1.34503C32.9591 1.03163 32.6849 0.665994 32.3323 0.665994C32.0189 0.665994 31.6533 0.979391 31.6533 1.2928ZM32.8416 7.52171V4.92306C32.8416 4.27014 32.8938 3.4344 32.8938 3.4344C32.8938 3.38216 32.8285 3.34298 32.7241 3.34298C32.3454 3.48663 31.8361 3.60415 30.935 3.72168C30.9089 3.80003 30.935 4.00897 30.9612 4.08732C31.6663 4.16567 31.81 4.23096 31.81 4.9753V7.52171C31.81 8.60557 31.6663 8.64474 30.8697 8.71004C30.7914 8.78839 30.7914 9.06262 30.8697 9.14097C30.9906 9.13809 31.1013 9.13521 31.2066 9.13247L31.2073 9.13246H31.2073H31.2073H31.2073C31.5796 9.12278 31.8846 9.11485 32.3323 9.11485C32.7584 9.11485 33.0492 9.12237 33.41 9.1317C33.5247 9.13467 33.6464 9.13782 33.7818 9.14097C33.8601 9.06262 33.8601 8.78839 33.7818 8.71004C32.9852 8.6578 32.8416 8.60557 32.8416 7.52171ZM41.9652 7.52171C41.9652 8.60557 41.8216 8.67086 41.025 8.71004C40.9467 8.78839 40.9467 9.06262 41.025 9.14097C41.1461 9.13809 41.257 9.1352 41.3626 9.13246H41.3626H41.3626C41.7349 9.12278 42.0399 9.11485 42.4876 9.11485C42.9137 9.11485 43.2045 9.12237 43.5653 9.13171L43.5654 9.13171L43.5657 9.13171C43.6802 9.13468 43.8018 9.13782 43.9371 9.14097C44.0154 9.06262 44.0154 8.78839 43.9371 8.71004C43.1405 8.67086 42.9969 8.60557 42.9969 7.52171V1.50174C42.9969 0.652936 43.0491 0.13059 43.0491 0.13059C43.0491 0.0391805 42.9969 0 42.8793 0C42.5529 0.130585 41.5735 0.313402 41.0511 0.352578C41.025 0.457046 41.0511 0.665997 41.1295 0.744348C41.172 0.746799 41.2124 0.748841 41.2509 0.750785C41.8275 0.779902 41.9652 0.786856 41.9652 1.81514V7.52171ZM47.6464 9.24544C45.8052 9.24544 44.9041 7.76983 44.9041 6.43786C44.9041 4.77943 45.9096 3.38216 47.6725 3.38216C49.6966 3.38216 50.4148 4.96224 50.4148 6.32033C50.4148 7.62618 49.5921 9.24544 47.6464 9.24544ZM49.2918 6.7382C49.2918 4.8186 48.6519 3.81309 47.5289 3.81309C46.432 3.81309 46.0272 5.00141 46.0272 6.1375C46.0272 7.14301 46.5234 8.81451 47.8815 8.81451C48.4952 8.81451 49.2918 8.46193 49.2918 6.7382ZM53.4351 4.74025C53.84 4.32238 54.3623 3.98286 54.7541 3.98286C55.5898 3.98286 56.308 4.92307 56.308 6.39868C56.308 7.46948 55.9293 8.80145 54.4668 8.80145C54.2317 8.80145 53.7747 8.73615 53.5396 8.52721C53.2654 8.29216 53.2262 8.22687 53.2262 7.7437V5.31482C53.2262 5.04059 53.2654 4.92307 53.4351 4.74025ZM53.3307 4.30932C53.2784 4.36155 53.2001 4.37461 53.2001 4.27014C53.2001 3.80004 53.2523 3.4344 53.2523 3.4344C53.2523 3.38216 53.187 3.34298 53.0826 3.34298C52.7169 3.48663 52.2207 3.60415 51.3197 3.72168C51.2935 3.80003 51.3197 4.00897 51.3458 4.08732C52.0509 4.15261 52.1946 4.23096 52.1946 4.9753V10.5513C52.1946 11.6351 52.0509 11.7004 51.2544 11.7396C51.176 11.818 51.176 12.0922 51.2544 12.1706C51.3755 12.1677 51.4864 12.1648 51.5919 12.162C51.9642 12.1524 52.2692 12.1444 52.7169 12.1444C53.2238 12.1444 53.5881 12.1533 54.0159 12.1638L54.297 12.1706C54.3754 12.0922 54.3754 11.818 54.297 11.7396C53.3699 11.6874 53.2262 11.6351 53.2262 10.5513V9.14097C53.2262 8.98211 53.2605 8.99478 53.3826 9.03986L53.409 9.04956C53.7224 9.18014 54.1272 9.24544 54.5451 9.24544C55.2764 9.24544 55.9293 9.02343 56.4647 8.51415C57.0785 7.91346 57.431 7.10385 57.431 6.04611C57.431 4.6619 56.4517 3.38216 55.1197 3.38216C54.6365 3.38216 53.9183 3.70863 53.3307 4.30932ZM61.332 3.83921C61.0186 3.83921 60.1045 3.95674 59.8564 5.43235L62.22 5.39317C62.3637 5.39317 62.4159 5.32789 62.4159 5.21036C62.4159 4.11345 61.8283 3.83921 61.332 3.83921ZM61.6585 8.60557C62.4159 8.60557 62.7946 8.39663 63.2777 7.90041C63.4344 7.91347 63.5128 7.97875 63.552 8.10934C63.0296 8.78838 62.3245 9.24544 61.332 9.24544C60.3918 9.24544 59.7781 8.93204 59.3341 8.4097C58.9031 7.91347 58.7203 7.2083 58.7203 6.47702C58.7203 4.49213 60.1959 3.40828 61.332 3.40828C63.1472 3.40828 63.5389 4.58354 63.5389 5.68045C63.5389 5.8241 63.4475 5.90246 63.2908 5.90246L59.8172 5.87634C59.8172 6.63373 59.9739 7.23443 60.2351 7.66536C60.6399 8.33135 61.1884 8.60557 61.6585 8.60557ZM68.8604 7.4956C68.8604 7.74371 68.8343 7.84818 68.6514 8.00488C68.1683 8.42275 67.7504 8.63168 67.4239 8.63168C66.7188 8.63168 65.9875 7.86123 65.9875 6.22892C65.9875 5.2887 66.1703 4.76636 66.3662 4.49213C66.771 3.87838 67.3195 3.83921 67.5806 3.83921C68.0507 3.83921 68.3772 4.00897 68.6384 4.30932C68.8212 4.51826 68.8604 4.60966 68.8604 5.01448V7.4956ZM68.7167 8.46193C68.769 8.4097 68.8734 8.38358 68.8734 8.47499C68.8734 8.78839 69.0171 9.24544 69.0171 9.24544C69.1167 9.28279 69.1569 9.27266 69.251 9.24901L69.2652 9.24544C69.5525 9.01039 70.0487 8.81451 70.8453 8.7231C70.9236 8.64474 70.9236 8.44887 70.8453 8.37052C70.0095 8.30523 69.892 8.05711 69.892 7.41724V1.50174C69.892 0.652936 69.9442 0.13059 69.9442 0.13059C69.9442 0.0391805 69.892 0 69.7745 0C69.448 0.130585 68.4686 0.313402 67.9463 0.352578C67.9202 0.457046 67.9463 0.665997 68.0246 0.744348C68.0667 0.746779 68.1069 0.748807 68.1451 0.750736L68.1453 0.75075L68.1456 0.750762L68.1457 0.75077L68.1459 0.750779L68.146 0.750785C68.7227 0.779902 68.8604 0.786856 68.8604 1.81514V3.48663C68.8604 3.57804 68.8343 3.60416 68.7428 3.60416C68.7294 3.60416 68.6836 3.58936 68.6158 3.5674C68.4211 3.50431 68.0439 3.38216 67.7243 3.38216C66.8624 3.38216 66.2878 3.66945 65.7655 4.16567C65.204 4.72719 64.8645 5.49763 64.8645 6.46396C64.8645 8.07016 65.6741 9.24544 67.0844 9.24544C67.5937 9.24544 68.0769 8.98427 68.7167 8.46193ZM72.9639 1.97185C72.6505 1.97185 72.3371 1.63232 72.3371 1.2928C72.3371 0.979391 72.7028 0.665994 73.0162 0.665994C73.3688 0.665994 73.643 1.03163 73.643 1.34503C73.643 1.63232 73.3296 1.97185 72.9639 1.97185ZM73.5255 4.92306V7.52171C73.5255 8.60557 73.6691 8.6578 74.4657 8.71004C74.544 8.78839 74.544 9.06262 74.4657 9.14097C74.3303 9.13782 74.2086 9.13467 74.0939 9.1317C73.7331 9.12237 73.4423 9.11485 73.0162 9.11485C72.5685 9.11485 72.2635 9.12278 71.8912 9.13246L71.8905 9.13247C71.7852 9.13521 71.6745 9.13809 71.5536 9.14097C71.4753 9.06262 71.4753 8.78839 71.5536 8.71004C72.3502 8.64474 72.4938 8.60557 72.4938 7.52171V4.9753C72.4938 4.23096 72.3502 4.16567 71.645 4.08732C71.6189 4.00897 71.5928 3.80003 71.6189 3.72168C72.52 3.60415 73.0292 3.48663 73.4079 3.34298C73.5124 3.34298 73.5777 3.38216 73.5777 3.4344C73.5777 3.4344 73.5255 4.27014 73.5255 4.92306ZM76.2008 1.2928C76.2008 1.63232 76.5142 1.97185 76.8276 1.97185C77.1932 1.97185 77.5066 1.63232 77.5066 1.34503C77.5066 1.03163 77.2324 0.665994 76.8798 0.665994C76.5664 0.665994 76.2008 0.979391 76.2008 1.2928ZM76.3836 4.9753V8.1224C76.3836 9.84612 76.3313 11.4523 75.6784 11.4523C75.5348 11.4523 75.365 11.4001 75.2736 11.3087C75.264 11.2991 75.2543 11.2891 75.2444 11.2788L75.2232 11.2566L75.2221 11.2555L75.2218 11.2552C75.1006 11.1279 74.9494 10.9692 74.699 10.9692C74.5554 10.9692 74.2811 11.2303 74.2811 11.4654C74.2811 11.8441 74.7513 12.0269 74.9994 12.0269C75.2736 12.0269 75.9526 11.9877 76.4358 11.5829C77.0496 11.0867 77.4152 10.1465 77.4152 7.67842V4.92306C77.4152 4.27014 77.4674 3.4344 77.4674 3.4344C77.4674 3.38216 77.4021 3.34298 77.2977 3.34298C76.932 3.48663 76.4097 3.60415 75.5086 3.72168C75.4825 3.80003 75.5086 4.00897 75.5348 4.08732C76.2399 4.15261 76.3836 4.23096 76.3836 4.9753ZM82.4802 7.809V6.07221L81.4485 6.34645C80.4822 6.60762 80.208 7.19524 80.208 7.78288C80.208 8.18769 80.4953 8.71004 81.1482 8.71004C81.5138 8.71004 81.9578 8.42274 82.2974 8.14851C82.4018 8.07016 82.4802 7.97876 82.4802 7.809ZM83.4857 9.24544C82.7805 9.24544 82.5585 8.76228 82.4802 8.48805H82.4541L82.1929 8.69698C81.6183 9.14097 81.3702 9.24544 80.7695 9.24544C79.8554 9.24544 79.1241 8.86674 79.1241 7.83511C79.1241 6.94713 80.0252 6.25504 81.2788 5.94163L82.4018 5.6674C82.441 5.65434 82.4802 5.60211 82.4802 5.5107C82.4802 4.03509 81.8664 3.81309 81.4224 3.81309C80.9262 3.81309 80.3386 3.95674 80.3386 4.36156C80.3386 4.5052 80.3516 4.58354 80.3647 4.62272C80.3908 4.67495 80.4039 4.76636 80.4039 4.85777C80.4039 5.02753 80.208 5.2887 79.8293 5.2887C79.5289 5.2887 79.3723 5.14505 79.3723 4.83165C79.3723 4.12649 80.4561 3.38216 81.5269 3.38216C82.4802 3.38216 83.4987 3.73475 83.4987 5.58906V7.53477C83.4987 8.13546 83.5118 8.64474 84.0211 8.64474C84.1998 8.64474 84.2842 8.55602 84.343 8.4942C84.3745 8.46116 84.3986 8.43581 84.4259 8.43581C84.4781 8.43581 84.5957 8.56639 84.5957 8.6578C84.5957 8.72309 84.1255 9.24544 83.4857 9.24544ZM90.4694 5.39317C90.4694 5.10588 90.5869 4.94918 90.6914 4.83165C91.1876 4.34848 91.7622 4.0612 92.2845 4.0612C92.5457 4.0612 92.8199 4.24402 92.9766 4.53131C93.1072 4.79248 93.1333 5.14507 93.1333 5.53682V7.52171C93.1333 8.59251 93.0027 8.64474 92.3237 8.71004C92.2584 8.78839 92.2584 9.06262 92.3237 9.14097C92.4788 9.13728 92.611 9.13358 92.7326 9.13018C93.0408 9.12157 93.2811 9.11485 93.6557 9.11485C94.0456 9.11485 94.3039 9.12178 94.6324 9.13059C94.755 9.13387 94.8873 9.13742 95.0399 9.14097C95.1052 9.06262 95.1052 8.78839 95.0399 8.71004C94.3086 8.64474 94.165 8.59251 94.165 7.52171V5.576C94.165 4.85778 94.1127 4.23097 93.8124 3.82615C93.5904 3.53886 93.1856 3.38216 92.7285 3.38216C92.0756 3.38216 91.3835 3.55192 90.5869 4.43989C90.5777 4.44917 90.5676 4.46091 90.5572 4.47292C90.5093 4.52861 90.4563 4.59026 90.4563 4.43989V2.19384H92.7416V1.68455H90.4694V1.50174C90.4694 0.652936 90.5216 0.13059 90.5216 0.13059C90.5216 0.0391805 90.4694 0 90.3519 0C90.0254 0.130585 89.046 0.313402 88.5237 0.352578C88.4976 0.457046 88.5237 0.665997 88.602 0.744348C88.6409 0.746727 88.678 0.748769 88.7135 0.750719C89.2619 0.780886 89.4125 0.789165 89.4247 1.68455H88.6282V2.19384H89.4378V7.52171C89.4378 8.60557 89.2811 8.6578 88.5237 8.71004C88.4453 8.78839 88.4453 9.06262 88.5237 9.14097C88.6388 9.13816 88.7448 9.13535 88.846 9.13268L88.8461 9.13267L88.8463 9.13267C89.2155 9.1229 89.5194 9.11485 89.9601 9.11485C90.3128 9.11485 90.5277 9.12111 90.8087 9.1293C90.9334 9.13294 91.0712 9.13695 91.2399 9.14097C91.3182 9.06262 91.3182 8.78839 91.2399 8.71004C90.5869 8.6578 90.4694 8.60557 90.4694 7.52171V5.39317ZM97.2289 1.97185C96.9155 1.97185 96.6021 1.63232 96.6021 1.2928C96.6021 0.979391 96.9678 0.665994 97.2812 0.665994C97.6337 0.665994 97.908 1.03163 97.908 1.34503C97.908 1.63232 97.5946 1.97185 97.2289 1.97185ZM97.7904 4.92306V7.52171C97.7904 8.60557 97.9341 8.6578 98.7307 8.71004C98.809 8.78839 98.809 9.06262 98.7307 9.14097C98.5953 9.13782 98.4736 9.13467 98.359 9.13171L98.3589 9.1317C97.998 9.12237 97.7073 9.11485 97.2812 9.11485C96.8335 9.11485 96.5285 9.12278 96.1562 9.13246L95.9601 9.1375L95.8186 9.14097C95.7403 9.06262 95.7403 8.78839 95.8186 8.71004C96.6152 8.64474 96.7588 8.60557 96.7588 7.52171V4.9753C96.7588 4.23096 96.6152 4.16567 95.91 4.08732C95.8839 4.00897 95.8578 3.80003 95.8839 3.72168C96.7849 3.60415 97.2942 3.48663 97.6729 3.34298C97.7774 3.34298 97.8427 3.38216 97.8427 3.4344C97.8427 3.4344 97.7904 4.27014 97.7904 4.92306ZM100.792 5.43235C101.04 3.95674 101.954 3.83921 102.268 3.83921C102.764 3.83921 103.352 4.11345 103.352 5.21036C103.352 5.32789 103.299 5.39317 103.156 5.39317L100.792 5.43235ZM104.214 7.90041C103.73 8.39663 103.352 8.60557 102.594 8.60557C102.124 8.60557 101.576 8.33135 101.171 7.66536C100.91 7.23443 100.753 6.63373 100.753 5.87634L104.227 5.90246C104.383 5.90246 104.475 5.8241 104.475 5.68045C104.475 4.58354 104.083 3.40828 102.268 3.40828C101.132 3.40828 99.6561 4.49213 99.6561 6.47702C99.6561 7.2083 99.8389 7.91347 100.27 8.4097C100.714 8.93204 101.328 9.24544 102.268 9.24544C103.26 9.24544 103.965 8.78838 104.488 8.10934C104.449 7.97875 104.37 7.91347 104.214 7.90041ZM105.515 8.71004C106.311 8.67086 106.455 8.60557 106.455 7.52171V1.81514C106.455 0.786856 106.317 0.779902 105.741 0.750785L105.741 0.750779C105.702 0.748837 105.662 0.746797 105.619 0.744348C105.541 0.665997 105.515 0.457046 105.541 0.352578C106.063 0.313402 107.043 0.130585 107.369 0C107.487 0 107.539 0.0391805 107.539 0.13059C107.539 0.13059 107.487 0.652936 107.487 1.50174V7.52171C107.487 8.60557 107.63 8.67086 108.427 8.71004C108.505 8.78839 108.505 9.06262 108.427 9.14097C108.292 9.13782 108.17 9.13467 108.055 9.13171L108.055 9.13171C107.694 9.12237 107.403 9.11485 106.977 9.11485C106.53 9.11485 106.225 9.12278 105.852 9.13246C105.747 9.1352 105.636 9.13809 105.515 9.14097C105.436 9.06262 105.436 8.78839 105.515 8.71004ZM109.485 7.31277C109.538 7.95264 109.577 8.56639 109.577 9.11485C109.707 9.08873 109.838 9.07567 109.903 9.07567C109.995 9.07567 110.073 9.07567 110.164 9.10179C110.517 9.1932 110.87 9.24544 111.353 9.24544C112.084 9.24544 113.429 8.89286 113.429 7.60007C113.429 6.71209 112.776 6.2028 111.901 5.86328L111.887 5.85788C111.111 5.56056 110.595 5.36274 110.595 4.64884C110.595 4.11344 111.065 3.81309 111.509 3.81309C111.797 3.81309 112.554 3.91756 112.724 5.02753C112.802 5.10589 113.063 5.09283 113.142 5.01448C113.142 4.74571 113.163 4.47267 113.184 4.20756L113.184 4.20725C113.199 4.00877 113.214 3.81473 113.22 3.63027C113.111 3.61271 112.986 3.58667 112.849 3.55797C112.474 3.4799 112.006 3.38216 111.509 3.38216C110.543 3.38216 109.668 4.00896 109.668 4.84471C109.668 5.79798 110.099 6.2028 111.105 6.62067C112.175 7.07772 112.437 7.33889 112.437 7.90041C112.437 8.54028 111.81 8.81451 111.327 8.81451C110.817 8.81451 110.53 8.64475 110.399 8.50111C110.108 8.22153 109.986 7.70431 109.907 7.37081L109.89 7.29971C109.812 7.22136 109.564 7.23442 109.485 7.31277ZM117.885 7.809V6.07221L116.853 6.34645C115.887 6.60762 115.612 7.19524 115.612 7.78288C115.612 8.18769 115.9 8.71004 116.553 8.71004C116.918 8.71004 117.362 8.42274 117.702 8.14851C117.806 8.07016 117.885 7.97876 117.885 7.809ZM118.89 9.24544C118.185 9.24544 117.963 8.76228 117.885 8.48805H117.858L117.597 8.69698C117.023 9.14097 116.775 9.24544 116.174 9.24544C115.26 9.24544 114.528 8.86674 114.528 7.83511C114.528 6.94713 115.43 6.25504 116.683 5.94163L117.806 5.6674C117.845 5.65434 117.885 5.60211 117.885 5.5107C117.885 4.03509 117.271 3.81309 116.827 3.81309C116.331 3.81309 115.743 3.95674 115.743 4.36156C115.743 4.5052 115.756 4.58354 115.769 4.62272C115.795 4.67495 115.808 4.76636 115.808 4.85777C115.808 5.02753 115.612 5.2887 115.234 5.2887C114.933 5.2887 114.777 5.14505 114.777 4.83165C114.777 4.12649 115.86 3.38216 116.931 3.38216C117.885 3.38216 118.903 3.73475 118.903 5.58906V7.53477C118.903 8.13546 118.916 8.64474 119.425 8.64474C119.604 8.64474 119.689 8.55602 119.747 8.4942C119.779 8.46116 119.803 8.43581 119.83 8.43581C119.882 8.43581 120 8.56639 120 8.6578C120 8.72309 119.53 9.24544 118.89 9.24544Z" fill="black"/>
</svg>
