<?xml version="1.0" encoding="UTF-8"?>
<svg version="1.1" viewBox="0 0 519.24 96.688" xmlns="http://www.w3.org/2000/svg">
<g transform="translate(-370 -777.34)" fill="#54595D" fill-rule="evenodd">
<path d="m412.99 806.72s-1.468-2.984-1.968-3.976c-3.336-6.612-3.264-6.964-6.636-7.408-0.944-0.124-1.432-0.244-1.432-0.712v-2.092l0.284-0.204c6.092-8e-3 19.648-8e-3 19.648-8e-3l0.52 0.172v2.084c0 0.476-0.34 0.72-1.032 0.72l-1.424 0.204c-3.6 0.28-3.012 1.752-0.62 6.516l22.708 46.46 0.776 0.212 20.16-47.844c0.7-1.928 0.592-3.296-0.308-4.1-0.904-0.784-1.54-1.248-3.876-1.344l-1.892-0.096c-0.232 0-0.452-0.084-0.664-0.24-0.208-0.148-0.316-0.344-0.316-0.58v-1.992l0.288-0.204h22.776l0.232 0.204v1.992c0 0.54-0.308 0.812-0.916 0.812-2.984 0.132-5.196 0.78-6.628 1.936-1.436 1.164-2.556 2.768-3.36 4.852 0 0-18.54 42.436-24.884 56.54-2.428 4.624-4.816 4.2-6.916-0.132-4.436-9.136-16.928-36.852-16.928-36.852z"/>
<path d="m449.37 792.3s-12.812-0.04-18.516 0l-0.284 0.204v1.984c0 0.244 0.104 0.436 0.312 0.584 0.212 0.156 0.428 0.236 0.66 0.236l0.916 0.1c2.332 0.096 3.404 0.708 3.724 1.092 0.556 0.68 0.832 1.416-0.516 4.356l-23.92 47.708-0.628-0.164s-17.132-36.124-22.092-48.208c-0.516-1.252-0.748-2.18-0.748-2.752 0-1.228 1.108-1.892 3.324-1.984l2.584-0.108c0.684 0 1.032-0.264 1.032-0.812v-1.984l-0.232-0.204s-20.52-0.024-24.76 0l-0.232 0.204v2.084c0 0.376 0.476 0.608 1.432 0.712 2.604 0.14 4.316 0.556 5.14 1.248 0.82 0.7 1.688 2.468 2.84 5.224 6.228 14.96 19.46 41.656 25.904 56.86 1.856 4.152 4.188 4.796 7.02-0.128 4.904-9.096 18.2-36.872 18.2-36.872l10.472-19.584c1.22-2.068 2.396-3.912 2.992-4.772 1.092-1.572 1.704-1.868 4.688-2.008 0.608 0 0.916-0.272 0.916-0.82v-1.984z"/>
<path d="m488.33 854.23c0 2.288 1.04 3.64 4.368 3.952l2.184 0.212c0.312 0 0.624 0.204 0.624 0.62v2.184l-0.104 0.212s-7.904-0.212-11.128-0.212c-2.912 0-11.024 0.212-11.024 0.212l-0.208-0.212v-2.184c0-0.416 0.312-0.62 0.728-0.62l2.08-0.212c3.432-0.312 4.472-1.976 4.472-3.952v-34.632c0-2.284-1.252-2.916-4.472-3.22l-2.08-0.216c-0.416 0-0.728-0.096-0.728-0.416v-2.396l0.104-0.208s8.216 0.208 11.44 0.208c2.808 0 10.816-0.208 10.816-0.208l0.104 0.208v2.288c0 0.312-0.208 0.52-0.624 0.52l-2.184 0.212c-3.224 0.308-4.368 1.144-4.368 3.228z"/>
<path d="m519.02 854.23c0 2.288 1.352 3.432 4.368 3.952l1.144 0.212c0.312 0.1 0.624 0.204 0.624 0.62v2.184l-0.104 0.212s-6.552-0.212-9.672-0.212c-2.912 0-11.44 0.212-11.44 0.212l-0.208-0.212v-2.184c0-0.416 0.312-0.62 0.728-0.62l2.08-0.212c3.12-0.312 4.472-1.976 4.472-3.952v-34.632c0-2.284-1.144-2.916-4.472-3.22l-2.08-0.216c-0.416 0-0.728-0.096-0.728-0.416v-2.396l0.104-0.208s8.528 0.208 11.752 0.208c2.916 0 9.464-0.208 9.464-0.208l0.104 0.208v2.288c0 0.312-0.208 0.416-0.624 0.52l-1.144 0.212c-3.224 0.62-4.368 1.144-4.368 3.228v15.704c3.432 0 5.408-1.764 9.984-6.656 4.16-4.58 7.384-8.42 7.384-10.4 0-0.836-0.936-1.768-3.016-2.084-0.416-0.1-0.624-0.208-0.624-0.52v-2.396l0.104-0.1s8.424 0.208 11.44 0.208c2.704 0 7.28-0.208 7.28-0.208l0.312 0.1v2.396c0 0.312-0.312 0.52-0.832 0.52-4.056 0.312-6.864 0.52-10.608 4.784l-8.944 10.292c-1.768 1.876-2.392 3.016-2.392 3.852 0 0.624 0.416 1.14 0.936 1.764l15.704 18.928c1.248 1.452 3.744 2.08 5.824 2.492l0.52 0.1c0.312 0.104 0.728 0.312 0.728 0.624v2.184l-0.312 0.104s-5.512-0.104-8.424-0.104c-2.6 0-6.344 0.104-6.344 0.104l-0.104-0.104v-1.248c0-1.356-0.104-2.492-1.56-4.156l-11.544-14.356c-1.56-2.084-3.224-2.596-5.512-2.596z"/>
<path d="m575.09 854.23c0 2.288 1.04 3.64 4.368 3.952l2.184 0.212c0.312 0 0.624 0.204 0.624 0.62v2.184l-0.104 0.212s-7.904-0.212-11.128-0.212c-2.912 0-11.024 0.212-11.024 0.212l-0.208-0.212v-2.184c0-0.416 0.312-0.62 0.728-0.62l2.08-0.212c3.432-0.312 4.472-1.976 4.472-3.952v-34.632c0-2.284-1.248-2.916-4.472-3.22l-2.08-0.216c-0.416 0-0.728-0.096-0.728-0.416v-2.396l0.104-0.208s8.216 0.208 11.44 0.208c2.808 0 10.816-0.208 10.816-0.208l0.104 0.208v2.288c0 0.312-0.208 0.52-0.624 0.52l-2.184 0.212c-3.224 0.308-4.368 1.144-4.368 3.228z"/>
<path d="m597.56 819.8c0-3.224-1.352-3.328-6.24-3.64-0.624 0-0.728-0.308-0.728-0.52v-2.392l0.208-0.104c1.56 0 7.696 0.208 10.712 0.208 2.912 0 7.072-0.208 10.92-0.208 14.76 0 17.464 7.276 17.464 12.692 0 6.244-3.016 16.016-17.776 16.016-2.6 0-4.68-0.212-6.556-1.04v13.928c0 2.288 1.248 2.812 4.58 3.328l2.084 0.312c0.416 0.104 0.728 0.212 0.728 0.624v2.184l-0.1 0.208s-8.32-0.208-11.544-0.208c-2.912 0-10.712 0.208-10.712 0.208l-0.104-0.208v-2.184c0-0.416 0.208-0.52 0.624-0.624l2.184-0.312c3.224-0.416 4.264-1.352 4.264-3.328zm8.008 18.1c2.08 0.836 4.68 0.936 6.76 0.936 6.244 0 9.248-3.752 9.248-11.752 0-8.944-4.056-10.92-9.768-10.92-4.996 0-6.244 0.936-6.244 3.64z"/>
<path d="m647.81 861.2c-3.12 0-10.292 0.212-10.292 0.212l-0.108-0.212v-2.288c0-0.204 0.108-0.516 0.624-0.516l2.396-0.212c3.228-0.312 4.164-2.392 4.164-4.468v-34.32c0-2.4-1.252-2.812-4.164-3.016l-2.396-0.216c-0.624-0.096-0.624-0.308-0.624-0.416v-2.396l0.108-0.208s8.108 0.208 11.228 0.208h15.288c3.12 0 10.508-0.208 10.508-0.208l0.212 0.208c0.1 4.472 0.828 8.536 1.56 12.484l-2.596 0.416c-1.14-3.852-3.116-9.36-9.772-9.36h-8.32c-1.976 0-3.016 0.728-3.016 2.492v15.084h7.796c2.916 0 3.64-1.248 4.06-3.328l0.62-2.184c0-0.312 0.212-0.524 0.624-0.524h1.764c0.212 0 0.212 0.108 0.212 0.312-0.212 2.288-0.624 5.204-0.624 7.7 0 2.596 0.416 4.784 0.624 7.176l-0.212 0.212h-1.764c-0.516 0-0.732-0.212-0.732-0.524l-0.52-2.284c-0.416-2.084-1.352-3.228-4.064-3.228h-7.792v15.916c0 1.972 1.136 3.948 3.016 3.948h9.88c5.304 0 8.22-3.328 9.464-8.74l2.596 0.312-2.084 11.956-0.208 0.208s-6.136-0.208-9.256-0.208z"/>
<path d="m686.92 858.39 2.392-0.212c3.124-0.312 4.164-1.248 4.164-4.468v-34.32c0-2.712-0.736-2.712-4.164-3.016l-2.28-0.216c-0.416 0-0.736-0.208-0.736-0.52v-2.288l0.1-0.208s9.156 0.208 11.032 0.208c1.968 0 11.024-0.208 13.728-0.208 17.368 0 25.9 10.816 25.9 24.648 0 18.204-12.9 23.604-24.44 23.604-8.32 0-11.956-0.208-15.18-0.208-3.124 0-11.028 0.208-11.028 0.208l-0.104-0.208v-2.184c-8e-3 -0.3 0.204-0.612 0.616-0.612zm23.196 0c11.436 0 17.892-4.26 17.892-18.828 0-10.812-2.396-23.404-19.868-23.404-4.056 0-6.656 0.624-6.656 3.232v34.32c0 2.904 0.724 4.68 8.632 4.68z"/>
<g transform="scale(1.0247 .97591)">
<path d="m744.62 873.16v-11.034c0-3.044-0.2283-2.283 1.2937-5.0987l9.7408-17.579c2.1308-3.805 3.1962-3.3484 6.6207-3.7289 0.4566-0.4566 0.4566-1.9786 0-2.4352-2.283 0.0761-4.566 0.0761-6.3163 0.0761s-3.8811 0-6.9251-0.0761c-0.4566 0.4566-0.4566 1.9786 0 2.4352 3.3484 0.2283 5.2509-0.3044 3.5767 2.8918l-9.0559 17.046c-0.68489 1.2937-0.98929 1.0654-1.6742-0.1522l-9.5886-16.894c-1.9025-3.1962-0.761-2.6635 3.5006-2.8918 0.4566-0.4566 0.4566-2.0547 0-2.5113-3.044 0.0761-5.6314 0.1522-8.6754 0.1522-2.9679 0-5.4792-0.0761-7.7622-0.1522-0.4566 0.4566-0.3805 2.0547 0.0761 2.5113 3.1962 0.2283 4.0333-0.0761 7.0773 5.0987l10.045 16.818c1.2937 2.283 1.5981 2.283 1.5981 5.0987v10.426c0 6.3163-1.2937 6.6968-7.3817 6.9251-0.4566 0.4566-0.4566 2.0547 0 2.5113 3.7289-0.0761 6.4685-0.1522 10.654-0.1522 4.1094 0 6.7729 0.0761 10.578 0.1522 0.4566-0.4566 0.4566-2.0547 0-2.5113-6.088-0.2283-7.3817-0.6088-7.3817-6.9251z" stroke-width="1.0247"/>
</g>
<g transform="scale(1.063 .94074)">
<path d="m756.87 874.22c0-6.5524 1.3421-6.9471 6.0788-7.184 0.47367-0.47367 0.47367-2.1315 0-2.6052-3.8683 0.0789-5.763 0.15789-9.4734 0.15789-4.263 0-7.0261-0.0789-10.973-0.15789-0.47367 0.47367-0.47367 2.1315 0 2.6052 6.3156 0.23683 7.6576 0.63156 7.6576 7.184v34.894c0 14.21-4.1051 16.421-6.7103 16.421-1.1052 0-2.2104-0.63155-2.7631-1.421-0.78945-1.0263-1.1052-2.6841-3.5525-2.6841-1.1052 0-3.4736 1.6578-3.4736 3.3946 0 2.842 4.1841 4.263 5.9209 4.263 3.5525 0 5.9998-0.63156 9.2365-3.3946 3.3946-2.921 8.0524-7.0261 8.0524-18.315z" stroke-width="1.063"/>
</g>
<g transform="scale(1.0375 .96384)">
<path d="m838.09 806.5h-3.0212c-0.75531 4.2082-6.3662 6.582-11.653 6.582-5.7188 0-10.79-2.3738-11.653-6.582h-3.0212c0.5395 7.5531 6.7978 12.193 14.675 12.193 7.1215 0 14.027-4.5318 14.675-12.193zm-17.156 19.53c14.675 0 25.788 11.438 25.788 33.881 0 19.314-9.2795 30.86-21.58 30.86-12.948 0-25.573-11.977-25.573-32.694 0-22.659 11.545-32.047 21.364-32.047zm36.147 31.831c0-21.364-15.862-35.5-34.744-35.5-19.314 0-33.126 16.401-33.126 37.55 0 21.257 15.214 34.528 33.773 34.528 20.609 0 34.097-14.998 34.097-36.579z" stroke-width="1.0375"/>
</g>
</g>
</svg>
