<svg xmlns="http://www.w3.org/2000/svg" width="120" height="20"><path fill="#000" fill-rule="nonzero" d="M83.587 4.819h4.918c.564 0 2.053-.035 2.053-.035l.038.035v.344c0 .108-.074.138-.15.143l-.548.036c-.604.04-.696.271-.696.925v8.813c0 .669.424.869.755.923.409.068.554.128.565.344l.132 2.678c-.509 0-.509.02-.509.02-.226-1.014-.904-2.553-2.413-2.553H82.27c-1.565 0-2.054 1.612-2.261 2.552l-.51-.02.132-2.677c.013-.216.21-.317.397-.344.369-.055.67-.099.942-.362.493-.471.83-1.775 1.432-4.598.413-2.062.64-3.926.64-5.067 0-.38-.17-.566-.66-.614l-.564-.056c-.095 0-.15-.035-.15-.109V4.82l.037-.035s1.318.035 1.882.035ZM116.785.05c.78 0 3.215-.025 3.215-.025V.56c0 .102-.05.176-.175.176l-.755.053c-1.056.076-1.332.256-1.332 1.121v12.72c0 .765.329 1.045 1.358 1.12l.678.054a.2.2 0 0 1 .2.203v.485l-.05.053s-2.007-.049-3.036-.053h-.128c-.904 0-3.239.053-3.239.053l-.05-.053v-.485c0-.127.075-.203.201-.203l.652-.054c1.056-.08 1.381-.406 1.381-1.12V8.232c-2.662 0-3.163.738-4.219 3.442-1.08 2.764-2.008 4.814-3.791 4.842l-1.657.023-.025-.05-.003-.484c0-.127.075-.203.175-.203l.225-.026c.804-.1 2.05-1.488 3.342-4.895.627-1.656 1.38-2.294 2.06-2.7v-.076c-1.71-.255-3.742-1.53-3.742-4.13 0-1.76.853-3.95 5.525-3.95.88 0 2.36.024 3.19.024ZM6.491 0c4.672 0 5.4 2.216 5.4 3.925 0 1.383-1.127 2.693-2.385 3.34v.051c2.185.638 3.868 2.038 3.868 4.487 0 2.19-1.332 4.741-6.33 4.741-2.234 0-2.586-.053-3.666-.053-1.28 0-2.034.026-3.265.053-.15-.153-.15-.69 0-.843 1.759-.075 2.185-.203 2.185-2.318V3.161C2.298 1.046 1.872.917.113.84c-.15-.152-.15-.687 0-.84 1.256.024 1.984.051 3.24.051C4.433.052 5.612 0 6.49 0Zm60.122 4.784c.113.106.113.488 0 .596-1.319.055-1.64.145-1.64 1.648v7.258c0 1.503.321 1.593 1.64 1.648.113.108.113.488 0 .597-.923-.02-1.488-.037-2.45-.037-.941 0-1.488.02-2.429.037-.112-.108-.112-.488 0-.597 1.319-.055 1.64-.144 1.64-1.648V6.883c0-1.12-.415-1.338-.868-1.338h-3.711c-.451 0-.867.215-.867 1.338v7.403c0 1.503.32 1.593 1.64 1.648.114.108.114.488 0 .597-.942-.02-1.49-.037-2.43-.037-.961 0-1.527.02-2.45.037-.113-.108-.113-.488 0-.597 1.32-.055 1.64-.144 1.64-1.648V7.028c0-1.501-.32-1.594-1.64-1.648-.113-.107-.113-.489 0-.596.942.018 1.997.035 2.431.035h7.064c.508 0 1.489-.019 2.43-.035Zm-13.358-.003c.113.107.113.488 0 .597-1.32.054-1.64.144-1.64 1.648v7.257c0 1.504.32 1.595 1.64 1.648.113.106.113.488 0 .597-.942-.018-1.489-.037-2.43-.037-.96 0-1.526.02-2.448.037-.114-.108-.114-.49 0-.597 1.318-.056 1.64-.144 1.64-1.648V7.84a.712.712 0 0 0-.33.234l-5.145 6.155c-.22.27-.408.416-.538.846.134.748.553.812 1.586.856.114.108.114.488 0 .597-.942-.02-1.49-.037-2.43-.037-.961 0-1.526.02-2.45.037-.113-.108-.113-.488 0-.597 1.32-.055 1.64-.144 1.64-1.648V7.025c0-1.501-.32-1.594-1.64-1.648-.113-.107-.113-.488 0-.595.943.017 1.49.034 2.431.034.961 0 1.526-.019 2.45-.034.113.106.113.487 0 .595-1.32.055-1.641.146-1.641 1.648v6.442c.087-.004.196-.066.334-.198l5.176-6.19c.213-.257.388-.585.497-.879-.14-.716-.563-.781-1.581-.822-.114-.108-.114-.49 0-.597.942.018 1.489.036 2.43.036.96 0 1.526-.02 2.449-.036Zm51.756 0c.113.107.113.488 0 .597-1.319.054-1.64.144-1.64 1.648v7.257c0 1.504.321 1.595 1.64 1.648.113.106.113.488 0 .597-.943-.018-1.49-.037-2.43-.037-.96 0-1.527.02-2.449.037-.112-.108-.112-.49 0-.597 1.318-.056 1.64-.144 1.64-1.648V7.84a.703.703 0 0 0-.33.234l-5.145 6.155c-.219.27-.407.416-.538.846.135.748.555.812 1.587.856.112.108.112.488 0 .597-.943-.02-1.49-.037-2.43-.037-.96 0-1.527.02-2.45.037-.112-.108-.112-.488 0-.597 1.32-.055 1.64-.144 1.64-1.648V7.025c0-1.501-.32-1.594-1.64-1.648-.112-.107-.112-.488 0-.595.943.017 1.49.034 2.43.034.96 0 1.527-.019 2.45-.034.112.106.112.487 0 .595-1.32.055-1.64.146-1.64 1.648v6.442c.088-.004.196-.066.332-.198l5.177-6.19a3.17 3.17 0 0 0 .497-.879c-.138-.716-.562-.781-1.58-.822-.112-.108-.112-.49 0-.597.942.018 1.49.036 2.43.036.96 0 1.527-.02 2.449-.036Zm-77.7 0c.113.107.113.488 0 .597-1.318.054-1.639.144-1.639 1.648v7.257c.001 1.504.321 1.595 1.64 1.648.113.106.113.488 0 .597-.942-.018-1.488-.037-2.43-.037-.96 0-1.526.02-2.449.037-.113-.108-.113-.49 0-.597 1.319-.056 1.64-.144 1.64-1.648V7.84a.708.708 0 0 0-.33.234l-5.145 6.155c-.22.27-.408.416-.539.846.134.748.554.812 1.587.856.113.108.113.488 0 .597-.943-.02-1.489-.037-2.43-.037-.962 0-1.526.02-2.45.037-.112-.108-.112-.488 0-.597 1.319-.055 1.64-.144 1.64-1.648V7.025c0-1.501-.32-1.594-1.64-1.648-.112-.107-.112-.488 0-.595.943.017 1.49.034 2.43.034.962 0 1.527-.019 2.45-.034.113.106.113.487 0 .595-1.319.055-1.64.146-1.64 1.648v6.442c.087-.004.196-.066.333-.198l5.177-6.19c.213-.257.388-.585.497-.879-.14-.716-.563-.781-1.58-.822-.114-.108-.114-.49 0-.597.942.018 1.488.036 2.43.036.96 0 1.526-.02 2.449-.036Zm10.25-.07c.999 0 1.338.524 1.338.94 0 .525-.432.725-.829.725-.244 0-.509-.09-.698-.271-.207-.2-.358-.29-.602-.29-.565 0-.696.598-.791 1.12-.208 1.124-.603 2.678-2.035 3.186v.091c1.3 0 2.035.777 2.543 2.047.981 2.441 1.94 3.673 2.6 3.727l.3.018c.096 0 .152.054.152.143v.344l-.02.037-1.488-.02c-1.47-.018-2.148-1.484-2.958-3.474-.737-1.808-1.092-2.407-3.24-2.407v4.58c0 .54.282.703 1.036.76l.49.034c.075 0 .15.056.15.144v.345l-.038.036a42.825 42.825 0 0 0-1.748-.035h-1.384c-.573.002-1.07.01-1.728.035l-.039-.036v-.343h.002c0-.09.057-.143.132-.143l.508-.035c.792-.058 1.018-.255 1.018-.76V6.105c0-.544-.283-.707-1.018-.761l-.489-.036c-.075 0-.15-.055-.15-.143V4.82l.037-.035c.943.018 1.508.035 2.45.035.942 0 1.488-.019 2.411-.035l.038.035v.344c0 .091-.057.143-.15.143l-.49.036c-.754.057-1.037.254-1.037.76v3.764c.679 0 1.526-.017 1.979-.27 1.11-.58 1.375-1.738 1.544-2.75.189-1.121.717-2.137 2.204-2.137Zm38.734.031c.057 0 .074.02.074.056.038.144.322 1.88.414 2.622a1.073 1.073 0 0 1-.622.093c-.414-1.248-.716-1.972-2.128-1.972h-1.978c-.45 0-.679.36-.679.794v3.62h1.715c1.605.002 1.662-.232 1.718-1.228.113-.108.509-.108.622 0-.02.545-.038.94-.038 1.557 0 .614.02.958.038 1.594-.113.105-.509.105-.622 0-.057-.815-.113-1.234-1.714-1.234h-1.716v4.362c0 .49.263.78.678.78h2.564c1.43 0 2.091-1.07 2.466-2.372a.881.881 0 0 1 .66.09c-.15.923-.434 2.118-.697 3.023 0 0-1.36-.033-2.272-.037h-4.23c-.246.004-1.576.021-2.41.037-.113-.108-.113-.489 0-.598 1.319-.054 1.639-.143 1.639-1.647V7.024c0-1.502-.32-1.593-1.64-1.648-.112-.107-.112-.488 0-.595.944.017 2.43.034 2.43.034h4.805c.452 0 .602-.019.923-.073Zm10.611.8h-2.318c-.508 0-.696.254-.735.706a53.197 53.197 0 0 1-.678 4.94c-.414 2.117-.885 3.91-.885 4.289 0 .217.246.309.51.309h4.125c.452 0 .678-.056.678-.725V6.246c0-.561-.113-.704-.697-.704ZM6.166 8.029H4.432v5.963c0 .842.327 1.708 2.085 1.708 3.818 0 4.52-1.553 4.52-3.415 0-2.293-1.432-4.256-4.871-4.256ZM113.419.917c-1.407 0-3.315.408-3.315 2.778 0 2.702 1.557 3.57 3.642 3.57h1.958V1.837c0-.844-.1-.92-2.285-.92ZM6.618.868c-2.113 0-2.183.237-2.186 1.013v5.282h1.86c2.083 0 3.566-.766 3.566-2.93 0-2.601-1.834-3.365-3.24-3.365Z"/></svg>