<svg xmlns="http://www.w3.org/2000/svg" width="101.9" height="13.441" viewBox="0 0 26.962 3.556"><path d="M.315 3.161v-.733h1.749v.733zm1.749-1.565v.717H.314v-.717zm0-.813v.705H.314V.783zm.127-.304-.17.196H.975a3.79 3.79 0 0 0 .373-.48c.08-.003.123-.042.134-.088L.974.02A4.136 4.136 0 0 1 .84.675H.341L0 .522v3.027h.054c.142 0 .26-.08.26-.12v-.153h1.75v.265h.046c.111 0 .265-.08.272-.111V.848a.327.327 0 0 0 .165-.085zm3.148 2.64V2.091h.967v1.028zM4.09 2.091h.936v1.028H4.09zm.936-1.078v.963H4.09v-.963zm1.281 0v.963H5.34v-.963zm.13-.315L6.26.902h-.92V.207c.095-.015.126-.054.137-.107L5.025.05v.852h-.91l-.333-.15v2.8h.053c.13 0 .253-.072.254-.11V3.23h2.217v.296h.046c.111 0 .261-.073.265-.104V1.093c.096-.019.173-.057.203-.096zm1.496 2.21V1.895h.744v1.013zm.744-2.08v.956h-.744V.829zm.119-.291-.157.18h-.45c.105-.157.224-.353.308-.498.08 0 .13-.031.145-.085L8.177.027l-.052.295c-.025.14-.052.283-.074.395h-.1L7.644.575v2.859h.054c.123 0 .234-.073.234-.108V3.02h.744v.296h.042c.104 0 .246-.073.25-.1V.886a.347.347 0 0 0 .165-.08zm1.876-.02-.18.197h-.775a5.41 5.41 0 0 0 .203-.48c.08 0 .127-.035.142-.08L9.608.026c-.119.587-.353 1.19-.587 1.569l.054.034a3.04 3.04 0 0 0 .583-.805h.871l-.01.491c-.028.995-.082 1.64-.201 1.783l-.012.012c-.034.042-.065.054-.141.054l-.062-.002a10.022 10.022 0 0 1-.483-.04l-.004.065c.169.03.326.077.387.13.062.046.077.13.077.23.207 0 .364-.057.48-.191.184-.223.249-1.03.276-2.486.088-.012.134-.03.165-.065zm-1.316 1.01c.184.203.387.533.426.794.315.253.587-.43-.388-.821zm4.802-.276v.832h-1.745v-.832zm-1.745 1.86v-.917h1.745v.917zm1.94-2.754h-2.761l.034.107h1.397L13 .637a18.24 18.24 0 0 1-.077.502h-.483L12.1.994v2.55h.054c.138 0 .257-.076.257-.114v-.207h1.745v.299h.05c.107 0 .261-.077.265-.1V1.308a.273.273 0 0 0 .157-.08l-.345-.273-.165.184H13.04a5.08 5.08 0 0 0 .364-.675h1.462c.058 0 .096-.02.107-.061L14.76.229l-.187-.145zm2.92.096c.183.142.398.387.464.59.31.2.522-.43-.426-.621zm-.085.92c.188.134.41.376.476.572.318.196.526-.437-.442-.606zm-.648-.092h.552c.05 0 .088-.019.096-.061l-.05-.05c-.115-.11-.265-.238-.265-.238l-.176.238h-.157V.46c.15-.038.288-.076.402-.11.1.03.173.03.204-.005l-.36-.314c-.266.176-.79.407-1.225.533l.02.057c.214-.019.444-.057.66-.1v.65h-.676l.03.11h.588c-.138.533-.376 1.09-.702 1.493l.053.05a3.27 3.27 0 0 0 .706-.879v1.611h.05c.146 0 .25-.073.25-.096V1.63c.134.157.276.361.326.534.26.192.49-.326-.326-.633zm2.14.936-.134.027V.254c.096-.016.127-.058.138-.112l-.437-.046v2.206l-1.347.26.05.1 1.297-.249v1.132h.057c.115 0 .242-.073.242-.111V2.356l.54-.104c.047-.008.085-.038.085-.08l-.115-.089a11.136 11.136 0 0 0-.222-.16zm3.786 1.086h-.975v-.825h1.086c.054 0 .096-.019.104-.061l-.057-.048a6.97 6.97 0 0 0-.316-.24l-.195.238h-.622v-.725h.921c.054 0 .092-.02.104-.061l-.084-.069c-.127-.103-.27-.211-.27-.212l-.191.23h-1.746l.03.112h.918v.725h-1.02l.03.111h.99v.825h-1.5l.034.115h3.254c.053 0 .092-.019.1-.061l-.054-.05c-.143-.125-.335-.268-.334-.269zM21.157 0c-.196.56-.963 1.38-1.608 1.776l.027.05c.733-.338 1.51-.99 1.88-1.569.26.587.833 1.1 1.439 1.423a.381.381 0 0 1 .276-.272l.004-.058c-.644-.257-1.3-.645-1.65-1.143.1-.008.15-.027.161-.077zm4.773.18c.23.161.533.453.66.675.364.165.499-.533-.625-.71zM24.887.011l.445.05c-.008.05-.035.085-.123.1v.671h.729l.142-.16.318.256c-.027.031-.057.043-.126.05l-.058.837h.234l.18-.18.334.28c-.027.03-.073.05-.15.06l-.007.168c-.031.563-.098.903-.238 1.018-.1.085-.246.127-.434.127.004-.096-.015-.176-.069-.223-.065-.05-.226-.1-.38-.123l.004-.057.43.03c.04.003.073.004.092.004.07 0 .1-.007.13-.034.081-.073.124-.422.143-.96h-1.274v1.512c0 .043-.142.12-.261.12h-.061V1.925h-1.324l-.03-.111h1.354V.948H23.85l-.035-.116h1.07zm1.078.937h-.756v.867h.694z"/></svg>