<svg xmlns="http://www.w3.org/2000/svg" width="114" height="15" fill="none"><path fill="#0B2645" d="M.155 1.15h3.107l2.173 9.136L7.59 1.15h3.124l2.156 9.137 2.172-9.137h3.083L15.16 13.722h-3.739L9.14 4.164l-2.257 9.558H3.144L.154 1.15Zm20.101 0h3.242v12.572h-3.242V1.15Zm6.434 0h3.242v4.589l4.674-4.59h3.764l-6.055 5.954 6.678 6.62h-4.059L29.932 8.77v4.951H26.69V1.15Zm13.373 0h3.242v12.572h-3.242V1.15Z"/><path fill="#0A4E98" d="M45.557 1.221H48.8v10.122h5.693v2.451h-8.935V1.221Zm10.982 0h3.242v12.573h-3.242V1.221Zm4.934 0h3.26l3.334 9.28 3.326-9.28h3.26l-4.658 12.573H66.13L61.473 1.221Zm19.445 5.575c.68 0 1.165-.126 1.457-.379.297-.253.446-.668.446-1.246 0-.573-.149-.983-.446-1.23-.292-.247-.778-.37-1.457-.37h-1.364v3.225h1.364Zm-1.364 2.24v4.758H76.31V1.221h4.952c1.656 0 2.869.278 3.638.834.775.556 1.162 1.434 1.162 2.636 0 .83-.202 1.513-.606 2.046-.399.533-1.002.926-1.81 1.179a2.37 2.37 0 0 1 1.187.69c.353.354.71.893 1.07 1.617l1.76 3.571H84.21l-1.533-3.124c-.309-.629-.623-1.059-.943-1.289-.315-.23-.736-.345-1.263-.345h-.918Zm15.772-5.693c-.988 0-1.754.365-2.299 1.095-.544.73-.817 1.757-.817 3.082 0 1.32.273 2.344.817 3.074.545.73 1.311 1.095 2.3 1.095.993 0 1.762-.365 2.307-1.095.544-.73.817-1.754.817-3.074 0-1.325-.273-2.352-.817-3.082-.545-.73-1.314-1.095-2.308-1.095Zm0-2.35c2.021 0 3.605.579 4.75 1.736 1.145 1.156 1.718 2.753 1.718 4.791 0 2.033-.573 3.627-1.718 4.783-1.145 1.157-2.729 1.735-4.75 1.735-2.015 0-3.598-.578-4.75-1.735-1.144-1.156-1.717-2.75-1.717-4.783 0-2.038.573-3.635 1.718-4.791 1.15-1.157 2.734-1.735 4.75-1.735Zm17.659.624v2.661a11.524 11.524 0 0 0-2.021-.699 8.003 8.003 0 0 0-1.861-.236c-.774 0-1.347.107-1.718.32-.37.214-.555.545-.555.994 0 .337.123.6.37.792.253.185.708.345 1.364.48l1.381.277c1.398.281 2.392.708 2.982 1.28.589.573.884 1.387.884 2.443 0 1.386-.413 2.42-1.238 3.099-.82.673-2.075 1.01-3.764 1.01-.798 0-1.598-.076-2.4-.227a14.858 14.858 0 0 1-2.409-.674V10.4c.803.427 1.578.75 2.324.969.753.213 1.477.32 2.173.32.707 0 1.249-.118 1.625-.354.376-.236.565-.573.565-1.01 0-.394-.13-.697-.388-.91-.252-.213-.761-.404-1.524-.573l-1.255-.278c-1.257-.27-2.178-.699-2.762-1.288-.578-.59-.867-1.384-.867-2.383 0-1.252.404-2.215 1.212-2.889.809-.673 1.971-1.01 3.487-1.01.69 0 1.4.053 2.13.16.73.1 1.485.255 2.265.463Z"/></svg>