<svg xmlns="http://www.w3.org/2000/svg" xmlns:xlink="http://www.w3.org/1999/xlink" width="146" height="32" fill="none"><path fill="#fff" d="M-171-202h691v700h-691z"/><path fill="url(#a)" d="M-3.231-4.575h140.203v68H-3.231z"/><path fill="#595959" d="M6.105 20.73c-.204 2.568-.671 5.34-1.255 7.121-.584-.32-1.839-.7-2.51-.875.671-1.723.992-4.32 1.167-6.655l2.598.408Zm5.721-8.495c.963 1.869 1.868 4.262 2.102 5.838l-2.452.993c-.059-.35-.146-.76-.234-1.168-5.925.934-6.976 1.226-7.618 1.489a24.14 24.14 0 0 0-.934-2.803c.7-.175 1.313-.846 2.247-1.955a25.63 25.63 0 0 0 1.898-2.598c-2.335.263-2.978.438-3.415.642A22.734 22.734 0 0 0 2.456 9.9c.555-.146 1.022-.7 1.606-1.576.613-.788 2.422-4.028 3.415-7.093l2.89 1.139a42.906 42.906 0 0 1-3.94 7.122l2.13-.146a42.174 42.174 0 0 0 2.13-4.116l2.599 1.635a54.366 54.366 0 0 1-6.13 9.077l3.386-.438a23.275 23.275 0 0 0-.993-2.422l2.277-.847Zm-2.685 7.881c.375 2.008.638 4.035.788 6.072l-2.51.642c-.03-1.693-.35-4.233-.672-6.13l2.394-.584Zm3.035-.875a44.482 44.482 0 0 1 1.693 5.516l-2.364.847c-.263-1.518-.963-3.824-1.547-5.604l2.218-.76Zm17.484 7.297H18.306v1.897h-3.123V13.374a23.8 23.8 0 0 1-1.285 1.605 21.086 21.086 0 0 0-1.488-3.327c2.218-2.627 4.145-7.035 5.02-10.392l3.299.964a56.696 56.696 0 0 1-1.606 4.115h3.503c-.438-1.138-1.139-2.656-1.722-3.823l2.89-1.256a40.022 40.022 0 0 1 2.013 4.058l-2.13 1.021h5.575v3.123h-4.495v2.54h3.94v3.094h-3.94v2.452h3.97v3.123h-3.97v2.627h4.903v3.24ZM21.663 9.462h-3.357v2.54h3.357v-2.54Zm0 5.634h-3.357v2.452h3.357v-2.452Zm-3.357 8.202h3.357V20.67h-3.357v2.627Zm38.121-5.604a17.15 17.15 0 0 0 5.692 3.386 12.63 12.63 0 0 0-2.306 2.685 18.78 18.78 0 0 1-4.582-3.065v2.16h-5.313v1.897h9.545v2.86H37.221v-2.86h9.166V22.86H41.22v-1.81a19.29 19.29 0 0 1-4.64 2.978 13.747 13.747 0 0 0-2.219-2.656 17.631 17.631 0 0 0 5.896-3.678h-5.604v-2.832h5.546V6.164H36.17V3.362h4.028V1.173h3.473v2.19h9.136v-2.19h3.561v2.19h3.999v2.801h-3.999v8.698h5.4v2.832h-5.342Zm-1.838 2.422a18.116 18.116 0 0 1-2.102-2.422h-8.231a17.859 17.859 0 0 1-2.072 2.422h4.203v-1.81h3.532v1.81h4.67ZM43.672 6.164V7.45h9.136V6.164h-9.136Zm0 4.962h9.136V9.842h-9.136v1.284Zm0 3.736h9.136V13.55h-9.136v1.313Z"/><path fill="#8C8C8C" d="M71.782 20.204a27.88 27.88 0 0 1-2.948 5.984 22.35 22.35 0 0 0-2.277-1.577c.992-1.371 1.956-3.356 2.569-5.166l2.656.759Zm4.086-1.693v9.69h-3.357v-9.69h-5.429v-2.919h5.43v-2.248h-5.605v-2.86h2.832a17.557 17.557 0 0 0-.847-3.036l2.393-.583h-3.94V4.034h4.991a34.842 34.842 0 0 0-.875-2.306L74.934.88c.438.963.963 2.16 1.314 3.152h4.173v2.832h-3.648l2.364.467c-.438 1.109-.876 2.247-1.313 3.152h3.035v2.86h-4.99v2.248h4.523v2.919h-4.524ZM71.665 6.865c.432.973.755 1.991.963 3.035l-2.102.584h4.204a33.19 33.19 0 0 0 1.255-3.62h-4.32Zm22.212 7.093h-2.714v14.331h-3.386V13.958h-2.715v.35c0 4.29-.379 10.303-2.86 14.04-.584-.613-1.956-1.723-2.685-2.073a11.43 11.43 0 0 0 1.313-2.831l-2.072 1.284a35.236 35.236 0 0 0-2.277-4.378l2.277-1.226a28.874 28.874 0 0 1 2.189 3.824c.817-2.802.905-5.955.905-8.64V3.917c3.181-.584 6.713-1.489 8.844-2.481l2.656 2.54c-2.393.962-5.429 1.663-8.29 2.188v4.583h8.815v3.21Zm9.692-2.248v16.637h-3.386V2.02h11.238v9.69h-7.852Zm0-7.385v1.43h4.583v-1.43h-4.583Zm4.583 5.108v-1.46h-4.583v1.46h4.583Zm9.573 15.003v3.123h-3.123v-3.123h-9.982v-2.364h2.364v-7.005h-1.693v-2.365h14.157v2.365h-1.723v7.005h2.102v2.364h-2.102Zm-7.705-9.37v1.022h4.582v-1.021h-4.582Zm0 4h4.582v-1.051h-4.582v1.05Zm4.582 3.006v-1.08h-4.582v1.08h4.582Zm10.187 2.773c0 1.576-.292 2.335-1.226 2.89-.905.496-2.277.583-4.057.583a10.33 10.33 0 0 0-.963-3.006c.963.03 2.014.03 2.364 0 .35 0 .467-.146.467-.496V11.71h-8.027V2.02h11.442v22.825Zm-8.144-20.52v1.43h4.729v-1.43h-4.729Zm4.729 5.108v-1.46h-4.729v1.46h4.729Z"/><defs><pattern id="a" width="1" height="1" patternContentUnits="objectBoundingBox"><use xlink:href="#b" transform="scale(.00067 .00137)"/></pattern></defs></svg>