<svg xmlns="http://www.w3.org/2000/svg" width="140" height="42" fill="none"><path fill="#555" d="M24.101 10.521c0 .558-.142.993-.428 1.305a2.015 2.015 0 0 1-.408.286c-.666-.19-1.672-.415-3.017-.673l-1.448-.122a24.492 24.492 0 0 0-1.142-.082c-1.44 0-2.61.544-3.507 1.631-.53.884-.931 1.652-1.203 2.305-.816 1.753-1.224 3.099-1.224 4.037 0 .503.116.863.347 1.08.666 0 1.754-.441 3.263-1.325a25.868 25.868 0 0 0 1.998-1.346c-.109-.435.251-.652 1.08-.652.45 0 .966.068 1.55.204.748.163 1.176.373 1.285.632.312 1.631.469 3.616.469 5.954 0 2.678-.265 4.73-.796 6.158-.856 2.31-2.861 3.466-6.015 3.466-1.672 0-3.8-.57-6.382-1.713-2.95-1.291-4.526-2.657-4.73-4.098-.354-.422-.633-.755-.836-1-1.251-1.644-1.876-2.854-1.876-3.629 0-.761.394-1.142 1.182-1.142 2.243 4.785 4.9 7.348 7.973 7.687.19 0 .476.014.856.041.394.027.694.041.897.041 3.304 0 5.193-.612 5.669-1.835.34-.857.51-1.788.51-2.794 0-.951-.197-2.093-.592-3.425-2.175 1.223-3.452 1.916-3.833 2.08-.979.421-1.652.577-2.019.469-.883-.367-1.508-.775-1.875-1.224-.055-.054-.347-.482-.877-1.284-.027-.163-.041-.456-.041-.877 0-1.305.224-3.059.673-5.26.163-.87.4-1.83.714-2.876-.694-.652-1.965-.979-3.813-.979-1.972 0-3.33.13-4.079.388-.503.163-.938.244-1.305.244a3.83 3.83 0 0 1-.611-.04C.17 11.147 0 10.657 0 10.685c0-.272.109-.633.326-1.081l.184-.326a22.317 22.317 0 0 1 3.588-.306c3.33 0 5.628.408 6.892 1.223.966-.312 2.44-.7 4.425-1.162.218-.34.326-.734.326-1.183 0-.747-.122-1.325-.367-1.733-.23-.408-.68-.775-1.345-1.101-.98-.503-1.938-.754-2.876-.754h-5.77c-.082-.055-.272-.082-.57-.082h-.674c-1.373 0-2.154-.17-2.345-.51-.136-.272.143-.564.836-.877.163-.081.524-.203 1.081-.367l6.607-.244c.829-.027 1.855-.068 3.079-.123.584-.04 1.114.028 1.59.204 2.447.83 3.67 2.107 3.67 3.834 0 .584-.306 1.617-.917 3.1l2.508-.082c1.345-.055 2.406.027 3.18.244.45.367.673.755.673 1.162Z"/><path fill="#555" d="M45.246 10.787c0 .665-.095 1.094-.285 1.284-.068.054-.184.095-.347.122-1.36-.163-2.223-.244-2.59-.244-1.223 0-2.276.224-3.16.672.666.83 1.223 1.605 1.672 2.325.856 1.4 1.285 3.004 1.285 4.812 0 3.643-3.215 6.05-9.645 7.218.367.53 1.074 1.17 2.12 1.917.558.394 1.38.979 2.468 1.754 1.169.897 3.255 2.514 6.26 4.853.42.394.713.686.876.876l.428 1.163c-.163.081-.373.122-.632.122-.475 0-1.114-.218-1.916-.653-.34-.204-.673-.428-1-.672-2.365-1.482-5.097-3.039-8.196-4.67-.72-.367-1.93-1.012-3.63-1.937-1.087-.612-1.937-1.026-2.549-1.244a18.44 18.44 0 0 1-.876-.999c-.585-.734-.877-1.448-.877-2.14 0-.246.054-.483.163-.715l.938-1.916a2.29 2.29 0 0 1 .53-.082c.585 0 1.461.197 2.63.591 1.455-.135 2.4-.23 2.835-.285 1.06-.122 1.984-.306 2.773-.55.557-.163 1.543-.456 2.956-.877.925-.286 1.387-.775 1.387-1.468 0-1.17-.782-2.617-2.345-4.344-1.427-1.59-2.766-2.494-4.017-2.711-.557-.082-.918-.123-1.08-.123-.612 0-.918.15-.918.449 0 .095.027.19.081.285.055.095.456.544 1.203 1.346.476.503.714.979.714 1.427 0 .952-.707 1.672-2.12 2.162-.925.34-1.734.51-2.427.51-.584 0-1.223-.415-1.917-1.244-.639-.761-1.012-1.462-1.121-2.1-.15-.64-.02-1.38.387-2.223.408-.857.918-1.393 1.53-1.61-.422-.137-.714-.205-.877-.205-.476 0-1.258.095-2.345.286-.612.19-1.074.244-1.387.163-.272-.83-.407-1.332-.407-1.509 0-.245.108-.591.326-1.04.027-.054.088-.136.183-.245 2.393 0 4.452.32 6.179.959.747-.449 1.72-.673 2.915-.673 1.645 0 3.317.394 5.016 1.183.449-.232.932-.694 1.448-1.387.53-.693.755-1.264.673-1.713-.3-1.7-1.788-2.549-4.465-2.549-.164 0-.408.014-.735.041-.312.027-.557.04-.734.04h-.326c-.299 0-.734-.06-1.305-.183-.57-.122-.999-.183-1.284-.183-.64 0-1.611.15-2.916.448a2.395 2.395 0 0 0-.428-.04h-.327c-.136 0-.36.013-.673.04-.299.028-.523.041-.672.041-.381 0-.571-.251-.571-.754 0-.517.292-.877.877-1.08 1.889-.382 3.908-.728 6.055-1.04a16.997 16.997 0 0 1 2.366-.164c2.46 0 4.343.557 5.648 1.672.91.775 1.366 1.597 1.366 2.467 0 1.808-.068 3.032-.204 3.67a12.431 12.431 0 0 1 3.263-.795c.244-.027.672-.04 1.284-.04.054.027.102.054.143.081.217.272.326.748.326 1.428Z"/><path fill="#555" d="M69.837 5.22c-.109.027-.3.04-.571.04-.952 0-2.195-.176-3.731-.53l-3.711-.876c-1.278-.259-2.645-.51-4.099-.755a18.35 18.35 0 0 0-3.425-.306c-2.053 0-3.664.558-4.833 1.672-.585.558-.877 1.271-.877 2.141 0 .802.279 1.76.836 2.876a22.183 22.183 0 0 1 2.712-.164h1.631c.245.11.367.497.367 1.163 0 .87-.32 1.44-.958 1.712-.19.028-.496.041-.917.041H51.18c-.843 0-1.319.768-1.428 2.304 0 .694-.013 1.733-.04 3.12-.055 2.596-.15 5.213-.286 7.85l-.51 9.155a124.706 124.706 0 0 1-1.04 5.853c-.163.503-.36.754-.59.754-.409 0-.613-1.366-.613-4.099 0-3.56-.04-7.503-.122-11.826l-.143-6.464-.244-6.137c-.3-.476-1.006-.714-2.12-.714-.395 0-.701.014-.918.041-.34-.585-.51-1.115-.51-1.59 0-.354.108-.646.326-.877.054-.055.184-.136.388-.245.829 0 1.536.04 2.12.123.109 0 .265.04.469.122l-.999-2.998c-.394-.584-.591-1.42-.591-2.508 0-1.78 1.25-2.963 3.751-3.547A19.768 19.768 0 0 1 52.69 0h.917c.218.054.367.082.449.082 2.786.312 5.097.72 6.932 1.223 1.305.353 2.672.863 4.099 1.53.503.094 1.448.4 2.834.917 1.536.557 2.304.979 2.304 1.264 0 .109-.129.177-.387.204Z"/><path fill="#555" d="M82.153 11.031c0 .585-.17.945-.51 1.08a3.552 3.552 0 0 0-.49-.04c-.978-.136-2.453-.32-4.424-.55h-.673c-1.006 0-1.787.06-2.345.183.258.082.564.218.918.408 1.699.87 3.147 2.08 4.343 3.63 1.278 1.698 1.917 3.438 1.917 5.22 0 1.195-.347 2.27-1.04 3.22-.748 1.034-1.706 1.619-2.875 1.754-.476.055-.755.082-.836.082h-.47c-1.726 0-2.684-.462-2.874-1.387-.11-.543-.163-.815-.163-.815 0-.476.237-1.06.713-1.754.612-.897 1.183-1.346 1.713-1.346.353.055.918.354 1.692.898l1.183.815c.19 0 .285-.224.285-.672 0-.245-.013-.442-.04-.592l-.164-.877c-.081-.353-.455-.965-1.121-1.835-.584-.747-1.087-1.305-1.509-1.672a21.054 21.054 0 0 0-2.426-1.876c-.19-.136-.578-.4-1.162-.795a94.47 94.47 0 0 0-.368 2.814c-.258 2.161-.387 4.037-.387 5.628 0 1.142.081 2.63.245 4.465.027.422.115 1.244.265 2.467l1.162 2.264c-.082 1.25-.836 1.876-2.263 1.876-.354 0-.836-.068-1.448-.204-.082 0-.21-.034-.388-.102.082-.19.123-.354.123-.49 0-.775-.598-1.556-1.794-2.345-1.7-1.087-4.133-1.63-7.3-1.63-.897 0-1.856.074-2.875.223-.666-.475-1.197-.897-1.59-1.264-.87-.774-1.306-1.386-1.306-1.835 0-.611.517-1.699 1.55-3.262.612-.911 1.862-2.386 3.752-4.425.788-.83 2.542-2.304 5.26-4.425.599-.448 1.244-.924 1.938-1.427a334.525 334.525 0 0 1-2.671-.326c-2.04-.218-3.487-.326-4.344-.326-3.82 0-6.103.122-6.85.367-.45-.164-.674-.605-.674-1.326 0-.367.082-.883.245-1.55 1.06-.108 2.494-.163 4.302-.163h1.55c.449 0 1.033.055 1.754.164 3.67 0 6.538.278 8.604.835a3.766 3.766 0 0 1 1.59-.346c.53 0 1.061.075 1.591.224.082 0 .19.041.326.123 1.537-.422 3.25-.66 5.139-.714 1.726-.027 3.439-.068 5.138-.122.055.38.082.965.082 1.753Zm-13.458 3.16c-3.086 2.176-5.254 4.1-6.504 5.771-.748 1.006-1.462 2.175-2.141 3.507a29.675 29.675 0 0 0-.775 1.754l1.61.245c3.182.53 5.649 1.454 7.402 2.773-.367-2.067-.55-4.017-.55-5.852 0-2.76.32-5.492.958-8.197Z"/><path fill="#555" d="M104.868 10.521c0 .558-.143.993-.429 1.305a2.043 2.043 0 0 1-.408.286c-.666-.19-1.672-.415-3.017-.673l-1.448-.122a24.403 24.403 0 0 0-1.142-.082c-1.44 0-2.61.544-3.507 1.631-.53.884-.931 1.652-1.203 2.305-.816 1.753-1.223 3.099-1.223 4.037 0 .503.115.863.346 1.08.666 0 1.754-.441 3.262-1.325a25.791 25.791 0 0 0 1.999-1.346c-.109-.435.251-.652 1.08-.652.45 0 .966.068 1.55.204.748.163 1.176.373 1.285.632.313 1.631.469 3.616.469 5.954 0 2.678-.265 4.73-.795 6.158-.856 2.31-2.861 3.466-6.016 3.466-1.672 0-3.799-.57-6.382-1.713-2.95-1.291-4.526-2.657-4.73-4.098a468.22 468.22 0 0 1-.836-1c-1.25-1.644-1.876-2.854-1.876-3.629 0-.761.394-1.142 1.183-1.142 2.242 4.785 4.9 7.348 7.972 7.687.19 0 .476.014.857.041.394.027.693.041.897.041 3.303 0 5.192-.612 5.668-1.835.34-.857.51-1.788.51-2.794 0-.951-.198-2.093-.592-3.425-2.174 1.223-3.452 1.916-3.833 2.08-.978.421-1.651.577-2.018.469-.884-.367-1.51-.775-1.876-1.224-.055-.054-.347-.482-.877-1.284-.027-.163-.04-.456-.04-.877 0-1.305.223-3.059.672-5.26.163-.87.401-1.83.714-2.876-.694-.652-1.965-.979-3.813-.979-1.971 0-3.33.13-4.078.388-.503.163-.938.244-1.305.244a3.83 3.83 0 0 1-.612-.04c-.34-1.006-.51-1.496-.51-1.468 0-.272.109-.633.326-1.081l.184-.326a22.317 22.317 0 0 1 3.589-.306c3.33 0 5.627.408 6.892 1.223.965-.312 2.44-.7 4.424-1.162.218-.34.327-.734.327-1.183 0-.747-.123-1.325-.367-1.733-.231-.408-.68-.775-1.346-1.101-.979-.503-1.938-.754-2.875-.754h-5.77c-.082-.055-.273-.082-.572-.082h-.673c-1.373 0-2.154-.17-2.344-.51-.136-.272.142-.564.835-.877.164-.081.524-.203 1.081-.367l6.607-.244c.829-.027 1.855-.068 3.078-.123.585-.04 1.115.028 1.591.204 2.446.83 3.67 2.107 3.67 3.834 0 .584-.306 1.617-.918 3.1l2.509-.082c1.345-.055 2.406.027 3.18.244.449.367.674.755.674 1.162Z"/><path fill="#555" d="M129.438 5.22c-.109.027-.299.04-.571.04-.952 0-2.196-.176-3.732-.53l-3.711-.876a127.36 127.36 0 0 0-4.098-.755 18.344 18.344 0 0 0-3.425-.306c-2.053 0-3.664.558-4.833 1.672-.584.558-.877 1.271-.877 2.141 0 .802.278 1.76.836 2.876a22.195 22.195 0 0 1 2.712-.164h1.631c.245.11.368.497.368 1.163 0 .87-.32 1.44-.959 1.712-.19.028-.496.041-.918.041h-1.081c-.843 0-1.318.768-1.427 2.304 0 .694-.013 1.733-.041 3.12a252.505 252.505 0 0 1-.285 7.85l-.51 9.155a124.573 124.573 0 0 1-1.039 5.853c-.164.503-.361.754-.592.754-.407 0-.612-1.366-.612-4.099 0-3.56-.041-7.503-.122-11.826l-.142-6.464-.246-6.137c-.298-.476-1.006-.714-2.12-.714-.394 0-.7.014-.917.041-.34-.585-.511-1.115-.511-1.59 0-.354.11-.646.327-.877.054-.055.184-.136.388-.245.828 0 1.536.04 2.12.123.109 0 .266.04.469.122l-.999-2.998c-.394-.584-.591-1.42-.591-2.508 0-1.78 1.25-2.963 3.751-3.547A19.768 19.768 0 0 1 112.29 0h.917c.218.054.368.082.449.082 2.787.312 5.098.72 6.932 1.223 1.305.353 2.672.863 4.099 1.53.503.094 1.447.4 2.834.917 1.536.557 2.304.979 2.304 1.264 0 .109-.128.177-.387.204Z"/><path fill="#555" d="M135.024 10.236c0 .775-.346 1.4-1.039 1.876l-1.51-.591h-.284c-.15 0-.32-.014-.51-.041-1.196 0-1.964.353-2.305 1.06 1.061 1.686 1.591 2.963 1.591 3.833 0 1.06-.204 1.937-.612 2.63-.149.218-.36.456-.632.714.802.503 1.346.89 1.631 1.163 1.088 1.033 1.632 2.256 1.632 3.67 0 1.115-.184 2.284-.551 3.507-1.033 3.453-2.828 5.18-5.383 5.18-1.672 0-3.412-.218-5.219-.653-3.182-.789-5.812-2.38-7.892-4.772a8.182 8.182 0 0 1-.428-.489 7.307 7.307 0 0 0-.163-.469c-.245-.802-.367-1.4-.367-1.794 0-.72.319-1.081.958-1.081.503 0 .972.279 1.407.836.149.136.401.707.754 1.713.612 1.672 2.115 2.753 4.507 3.242.394.095 1.427.224 3.099.387.272.027.537.041.795.041 2.556 0 4.098-1.794 4.629-5.383.081-.557.123-1.047.123-1.468 0-.775-.238-1.264-.715-1.468-.747-.082-1.202.142-1.365.673-.286.843-.626 1.393-1.02 1.651-.38.259-1.013.388-1.896.388-.735 0-1.237-.15-1.51-.449-.231-.19-.448-.632-.652-1.325-.204-.707-.306-1.258-.306-1.652 0-.83.544-1.352 1.631-1.57.694 0 1.387-.04 2.08-.122 1.414-.177 2.121-.626 2.121-1.346 0-1.142-.258-2.365-.774-3.67-.653-1.618-1.448-2.427-2.386-2.427-.952 0-2.162.347-3.63 1.04-.312.258-.605.51-.877.755.693.394 1.176.7 1.448.917.612.503.918.992.918 1.468 0 .422-.266.836-.795 1.244-.939.761-1.618 1.142-2.04 1.142-.951 0-1.713-.313-2.283-.938-.572-.639-.857-1.44-.857-2.406 0-.925.462-1.903 1.386-2.936-.163-.558-.985-.836-2.467-.836-.448 0-1.019.088-1.713.265-.829.217-1.4.34-1.712.367-.218-.3-.496-.83-.836-1.59-.19-.748.272-1.163 1.386-1.244.326-.028.673-.041 1.041-.041h1.508c.803 0 1.747.265 2.834.795.34.163.843.442 1.509.836 1.223-.897 2.502-1.454 3.834-1.672.788 0 1.597.136 2.427.408.978.312 1.671.734 2.079 1.264.421-.177.925-.415 1.509-.714 1.4-.72 2.65-1.08 3.752-1.08 1.427 0 2.14.387 2.14 1.162Zm4.853-1c.082.232.123.551.123.96 0 .747-.218 1.236-.653 1.467a2.73 2.73 0 0 1-.55.041c-.353 0-.802-.048-1.346-.143-1.237-.217-2.08-.326-2.528-.326-.517 0-1.305.095-2.366.286-.502.095-.931.19-1.284.285-.299-.285-.449-.605-.449-.958 0-.34.143-.673.429-1 .842-.557 2.086-.836 3.731-.836.407 0 1.087.028 2.039.082l2.854.143Zm-4.404 15.232c-.421 0-.883-.129-1.387-.387-.597-.313-.896-.686-.896-1.122 0-.095.02-.19.06-.285l.816-1.937c.082-.095.205-.143.368-.143.515 0 1.012.456 1.488 1.366.081.068.149.102.204.102.15 0 .224-.23.224-.693 0-.639-.129-1.332-.387-2.08-.245-.761-.551-1.332-.918-1.713-.367-.394-.734-.59-1.101-.59-.272 0-.544.094-.816.285-.679.503-1.278.958-1.794 1.366-.217.204-.585.516-1.101.938a2.167 2.167 0 0 1-.225-.286c-.298-.408-.448-.897-.448-1.468 0-.652.32-1.155.958-1.509.258-.15.823-.353 1.693-.612 1.047-.312 2.025-.468 2.936-.468 1.006 0 1.794.353 2.366 1.06.584.707.876 1.638.876 2.793 0 1.265-.218 2.413-.652 3.446-.53 1.292-1.285 1.937-2.264 1.937Z"/></svg>