<?xml version="1.0" encoding="UTF-8"?>
<svg width="120px" height="13px" viewBox="0 0 120 13" version="1.1" xmlns="http://www.w3.org/2000/svg" xmlns:xlink="http://www.w3.org/1999/xlink">
    <title>zh-classical-tagline</title>
    <g id="Page-1" stroke="none" stroke-width="1" fill="none" fill-rule="evenodd">
        <path d="M10.7190587,1.19696095 L5.63539944,1.19696095 C5.62665607,1.0393382 5.61350067,0.877316861 5.59598703,0.710923838 C5.58724366,0.623355643 5.5478178,0.583943229 5.47776324,0.592686597 C5.41645205,0.592686597 5.38142477,0.632099011 5.37266795,0.710923838 C5.33762722,1.21885973 5.24568734,1.64358565 5.09681065,1.98511507 C4.93041494,2.30915775 4.73337439,2.57187578 4.50568767,2.77328263 C4.37432192,2.87833757 4.30426333,2.99223003 4.29551055,3.1148255 C4.29551055,3.24624505 4.32615269,3.34690139 4.38746388,3.41695595 C4.44876161,3.47829404 4.5407136,3.51770646 4.66332118,3.53519319 C4.79467347,3.54460913 4.92603787,3.48259847 5.05740362,3.35128653 C5.27633218,3.13235259 5.44710092,2.77330954 5.56971119,2.27413047 C5.60473847,2.06395335 5.62662379,1.84064772 5.63539406,1.60418669 L10.6665084,1.60418669 L10.2461541,2.73388367 C10.184843,2.87401969 10.1935998,2.96597302 10.2724246,3.00974366 C10.3599928,3.04471714 10.4300474,3.00975712 10.4826017,2.90468873 C10.7015249,2.58942978 10.9073236,2.3223266 11.0999979,2.10337921 C11.2313502,1.94575646 11.3451915,1.83628949 11.4415353,1.7749783 C11.5816418,1.71364021 11.7699241,1.66548443 12.0063865,1.63048405 C12.1377388,1.62241325 12.168385,1.56484153 12.0983399,1.45971934 C11.9406942,1.24955568 11.7261387,1.00433782 11.4546733,0.724092696 C11.4283894,0.689119223 11.3977338,0.671497973 11.3627199,0.671497973 C11.3276792,0.671511425 11.2970236,0.68898471 11.2707666,0.724092696 L10.902956,1.11817648 C10.8679152,1.1707712 10.8066175,1.19700131 10.719052,1.19700131 M6.68627832,2.61568678 C6.4147927,3.19369068 6.09076886,3.68847116 5.71420813,4.10006859 C5.31136349,4.55546356 4.80781408,4.98457462 4.20356125,5.38740177 C4.09846596,5.44873986 4.06781709,5.52752433 4.11160792,5.62384935 C4.1466352,5.71141754 4.23420339,5.72016091 4.37432999,5.65007945 C4.89976741,5.40488851 5.33763529,5.14215702 5.68793632,4.86191189 C6.02946708,4.59045048 6.4366861,4.19198156 6.90959067,3.66653203 C7.04094297,3.52642292 7.12413948,3.44322641 7.15917617,3.41695595 C7.24674437,3.35561786 7.38686021,3.3338267 7.57953041,3.35131343 C7.61455769,3.35131343 7.64519983,3.3338267 7.67148374,3.29871871 C7.69774075,3.26374524 7.6670448,3.20240715 7.57953041,3.11481205 C7.38686021,2.9571893 7.14603287,2.77765432 6.85704706,2.57623402 C6.77822224,2.52363929 6.72130022,2.5368216 6.68627832,2.61564643 M8.63041602,2.79955309 C9.26969478,3.2724617 9.78200101,3.72347154 10.167336,4.15256915 C10.5176209,4.5554232 10.7540699,4.90570944 10.8766842,5.20345475 C10.9292116,5.31725305 10.9861377,5.3786046 11.0474529,5.38736142 C11.1087372,5.37794548 11.1700484,5.33046226 11.2313582,5.24286717 C11.2838857,5.15529897 11.3276832,5.0020479 11.362724,4.78310051 C11.3977378,4.56418002 11.3320684,4.33210413 11.1656834,4.08688628 C11.0518313,3.9205067 10.797862,3.7059579 10.4037917,3.44322641 C10.0009403,3.17175155 9.47112047,2.89151987 8.81432671,2.60251793 C8.70923143,2.54117984 8.63479039,2.54561878 8.59101302,2.61596926 C8.55597229,2.69479409 8.56911424,2.75610528 8.63042543,2.79987592 M7.64522001,6.60933456 L4.63706014,6.60933456 C4.57574895,6.59991862 4.27800229,6.56992214 3.74380805,6.51732742 C3.62995594,6.49109732 3.59930707,6.52136282 3.65185471,6.60933456 L3.95398517,7.08224317 C3.96272853,7.10847327 3.98901244,7.11721664 4.03279654,7.10847327 C4.3305432,7.04713518 4.59764234,7.01646614 4.83409799,7.01646614 L6.73882731,7.01646614 C6.34473815,7.86593144 5.78864513,8.71102506 5.07054692,9.55172009 C4.56261372,10.1384674 3.83575196,10.7908975 2.88995895,11.5089971 C2.8023773,11.5703351 2.79362049,11.6578764 2.86368849,11.7717151 C2.91622941,11.8330532 3.00380299,11.8286142 3.12640922,11.7582638 C4.133504,11.0489076 4.96107457,10.3658353 5.60912629,9.70903346 C6.35349766,8.93839299 6.98840608,8.04075845 7.51385696,7.01614331 L7.6452227,7.01614331 L7.6452227,9.44631542 C7.63647933,10.2432398 7.60581029,11.2240574 7.55326937,12.3887951 C7.544526,12.5289042 7.57952638,12.5902154 7.65836466,12.5727018 L8.23635107,12.3362542 C8.2976488,12.3268383 8.32829095,12.2836595 8.3283044,12.2048346 C8.29326367,11.4604512 8.27575003,10.5409313 8.27576348,9.44626162 L8.27576348,7.0160895 L8.55162078,7.0160895 C8.55161271,7.0423196 8.56036415,7.07742759 8.57789124,7.12114443 C8.92817613,8.11948912 9.27409203,8.89014305 9.61564027,9.43309276 C9.98344014,10.01984 10.530775,10.6328578 11.2576489,11.2721459 C11.3189331,11.333484 11.3714875,11.3422274 11.4152824,11.298376 C11.4765667,11.2108078 11.586039,11.1100977 11.7436833,10.9962456 C11.8750356,10.9086774 12.0107717,10.8561365 12.1509023,10.8386094 C12.2647275,10.8291934 12.3347942,10.7860147 12.3610794,10.7071898 C12.3698228,10.6458517 12.352336,10.6064393 12.3085385,10.5889526 C12.2472273,10.5795367 12.1946864,10.5670269 12.1509063,10.5495402 C11.7743268,10.4357419 11.3714875,10.2167676 10.9423872,9.89273836 C10.513264,9.56872258 10.1323195,9.17901048 9.79954962,8.72362896 C9.47551636,8.27700426 9.14711411,7.70777063 8.8143442,7.01594154 L12.0458178,7.01594154 C12.1596564,7.0065256 12.2253312,6.96778575 12.2428583,6.89770429 C12.2516017,6.81887947 12.2121893,6.73569641 12.1246345,6.64811476 C11.8619017,6.3766399 11.5948012,6.11829355 11.3233344,5.87308915 C11.2445096,5.79426432 11.174447,5.79426432 11.1131573,5.87308915 L10.7716198,6.35912626 C10.692795,6.44669446 10.6314905,6.51237733 10.5877145,6.55616143 C10.5526738,6.5911349 10.4826192,6.60875615 10.3775374,6.60875615 L8.27576617,6.60875615 L8.27576617,6.20154386 C8.2757581,5.54474204 8.28450954,5.19882749 8.30203663,5.16378676 C8.31078,5.12881329 8.45090256,5.03680615 8.72239087,4.88794022 C8.80995907,4.85296675 8.80557393,4.80037203 8.70920856,4.73030402 C8.52529383,4.62524909 8.1881361,4.49385644 7.69773134,4.33622024 C7.61014969,4.30124676 7.57073727,4.36245034 7.57950755,4.5201269 C7.61453482,4.94048114 7.63642015,5.50095795 7.64519042,6.20154386 L7.64519042,6.60875615 M1.01147588,0.566174014 C1.32673887,0.855175963 1.57194596,1.13103596 1.7470958,1.39374054 C1.93975525,1.68274249 2.09300901,2.02428536 2.20685842,2.41835569 C2.23312888,2.58474871 2.29005494,2.66794522 2.37762717,2.66794522 C2.482709,2.66794522 2.57904343,2.56289029 2.6666197,2.35267282 C2.78045835,2.08996823 2.82424918,1.87102084 2.79798544,1.69587099 C2.76295817,1.53824824 2.65348447,1.37624036 2.46958319,1.20983388 C2.18058662,0.938372474 1.76023372,0.671269301 1.20852046,0.408537811 C1.10342518,0.34719972 1.02899221,0.342895293 0.985206767,0.395086475 C0.950179489,0.447681198 0.958936309,0.504580348 1.01147723,0.565864634 M0.0525436077,3.50834433 C0.324021156,3.82361673 0.538576686,4.11697691 0.696211545,4.38845177 C0.862599187,4.68621054 0.976445912,5.03212509 1.03774903,5.42620887 C1.0464924,5.5926019 1.09904677,5.68017009 1.1953812,5.68892691 C1.30046303,5.69834285 1.40555697,5.60135872 1.51064688,5.39993841 C1.65076272,5.15473401 1.71206449,4.94455689 1.6945522,4.76940705 C1.68580883,4.60301403 1.59384205,4.43224932 1.41869489,4.25709948 C1.17348646,3.98562462 0.788162186,3.68786585 0.262720729,3.36383663 C0.175152533,3.30249854 0.105087215,3.29375517 0.0525436077,3.33760652 C0.0175163294,3.39020124 0.0175163294,3.44710039 0.0525436077,3.50838468 M3.80945998,2.18163908 C2.8899307,4.3972624 2.20247732,6.12683515 1.74709715,7.37038423 C1.52816052,7.97464514 1.3442552,8.30743118 1.1953812,8.36872892 C1.06401545,8.43006701 0.739996988,8.40370239 0.22331235,8.28990409 C0.0831938213,8.28048816 0.00875547443,8.34680324 0,8.48695271 C0,8.62707527 0.0525409174,8.69274469 0.157632168,8.68398787 C0.376566109,8.71021798 0.577985065,8.77599501 0.761891727,8.88103649 C0.928280715,8.99483479 1.05526132,9.12185576 1.14283759,9.26197832 C1.17786487,9.40210088 1.18223655,9.6560621 1.1560199,10.0238754 C1.10347898,10.5055274 1.00714186,10.9696657 0.867026022,11.4162904 C0.779444375,11.652738 0.78382951,11.8541583 0.880208331,12.0205514 C0.985290166,12.1869444 1.13417089,12.300783 1.32683572,12.3620942 C1.49322336,12.3970677 1.61582691,12.3755456 1.69464501,12.2964517 C1.79972685,12.2088835 1.83913926,12.0293485 1.8128688,11.7578737 C1.73404397,10.9959766 1.75157106,10.1202408 1.86540972,9.13065293 C1.95297791,8.54391912 2.13688592,7.82580611 2.41712567,6.9763408 L4.09854264,2.28676127 C4.13356991,2.17296297 4.107286,2.09849638 4.01973126,2.06345565 C3.93214961,2.02848217 3.86209371,2.06749105 3.80955414,2.18169289 M24.9848298,9.44640958 L24.9848298,2.20843414 C24.9848177,1.55163232 24.9935732,1.20571777 25.0111003,1.17067704 C25.0198436,1.13570357 25.1599621,1.04369643 25.4314545,0.8948305 C25.5190092,0.859857028 25.5146376,0.807262305 25.4182722,0.737194297 C25.2343548,0.632139365 24.8971957,0.500760169 24.406795,0.343110514 C24.3192133,0.308137041 24.2798009,0.369340619 24.2885712,0.527017176 C24.323585,0.947384869 24.3454838,1.50784822 24.354254,2.20843414 L24.354254,3.5614502 L22.6071569,3.5614502 L22.6071569,1.86689128 C22.5984135,1.62170033 22.6114613,1.47720608 22.6465693,1.43340853 C22.6553127,1.40717843 22.7910568,1.31517129 23.053787,1.15754854 C23.1150847,1.12257507 23.0888008,1.06998034 22.9749756,0.999912335 C22.8348477,0.91234414 22.5283388,0.789748666 22.0554504,0.632099011 C21.9766255,0.597125538 21.9415983,0.649585747 21.9503551,0.789735214 C21.9853823,1.06122352 22.0072677,1.42028003 22.0160379,1.86689128 L22.0160379,3.23304929 C22.0160285,3.39944231 21.9985109,3.5176661 21.963497,3.58772066 C21.9284563,3.66654549 21.8671586,3.749742 21.7795917,3.83731019 C21.7007669,3.91613502 21.7007669,3.97743276 21.7795917,4.0212034 C21.910944,4.08254149 22.0817114,4.20512352 22.2918979,4.38901673 C22.3444389,4.4239902 22.3838378,4.40650346 22.4101217,4.33642201 C22.4626626,4.20500246 22.5589877,4.08246079 22.6991156,3.96860868 L24.3542594,3.96860868 L24.3542594,5.71570852 L18.1014907,5.71570852 C18.1277612,5.16400199 18.1540317,4.58163986 18.1803021,3.96860868 L19.9142627,3.96860868 C19.9055193,4.10002823 19.8967356,4.22258335 19.8879922,4.33642201 C19.8617083,4.4239902 19.8617083,4.48092971 19.8879922,4.50718671 C19.9230195,4.51660265 20.1331913,4.42836189 20.5185236,4.24446867 C20.5798213,4.2094952 20.6060918,4.15246154 20.597335,4.07370397 C20.5885916,3.83725639 20.5798079,3.64022122 20.5710645,3.48257157 L20.5710645,1.53843656 C20.5710578,1.45086837 20.5885782,1.38081381 20.6236054,1.32825944 C20.6586327,1.27566472 20.7549577,1.2100222 20.9125993,1.13122427 C20.9388698,1.12180834 20.9563834,1.0962508 20.9651402,1.05239945 C20.9651322,1.02616934 20.9388563,0.999804725 20.8863289,0.97357462 C20.6761437,0.85977632 20.4002877,0.728383672 20.0587569,0.579490837 C19.9799321,0.544517364 19.9230101,0.544517364 19.8879882,0.579490837 C19.8617043,0.605720942 19.8617043,0.684545769 19.8879882,0.815938416 C19.9142587,1.03488581 19.9317723,1.27571852 19.9405291,1.53842311 L19.9405291,3.48255812 C19.9317858,3.50878822 19.9273468,3.53515284 19.9273468,3.56138294 L18.1933849,3.56138294 C18.1933795,3.19358307 18.1978238,2.82138461 18.2065672,2.44481447 L18.2065672,1.42019932 C18.2065618,1.28009021 18.2372093,1.17938006 18.2985205,1.11806887 C18.3335478,1.0830954 18.4473905,0.9955272 18.640058,0.85535083 C18.7188694,0.802756107 18.7188694,0.754600325 18.640058,0.710856582 C18.4473905,0.60580165 18.1146098,0.478794138 17.6417174,0.329901302 C17.5541357,0.303671198 17.5147368,0.360570348 17.5234936,0.500679461 C17.549764,0.77216777 17.5672777,1.07866991 17.5760345,1.42019932 L17.5760345,2.44481447 C17.5760291,4.79180353 17.4972097,6.57830233 17.3395856,7.80432432 C17.2082198,8.8639802 16.9673925,9.79225688 16.6171009,10.5891813 C16.2930743,11.3335513 15.8727201,11.8940281 15.3560382,12.2705982 C15.2684565,12.3494231 15.2509429,12.4369778 15.3034972,12.5333163 C15.364795,12.6471146 15.4567483,12.6558579 15.5793545,12.5595464 C16.2711836,12.1654626 16.8097617,11.5480732 17.1950913,10.7073647 C17.4665648,10.0680765 17.6854988,9.26678045 17.8518945,8.30346304 L17.8781649,8.11955638 L19.5727185,8.11955638 L19.5727185,12.191733 C19.5727118,12.2793012 19.5814619,12.3274705 19.5989889,12.3362407 C19.6340162,12.3456567 19.8398096,12.283646 20.2163837,12.1523341 C20.2689247,12.1429182 20.29081,12.090996 20.2820666,11.9946979 C20.2295122,11.4604915 20.2032418,11.0357656 20.2032552,10.7204932 L20.2032552,8.51364016 C20.2032472,8.45230207 20.2119986,8.39540292 20.2295257,8.34287545 C20.2382691,8.28153736 20.3564928,8.1983812 20.5841997,8.09328592 C20.6454975,8.05831244 20.6848964,8.01890003 20.7024235,7.97504868 C20.7111669,7.9400752 20.6761396,7.88748048 20.5973283,7.81741247 C20.3521131,7.62474899 20.1025289,7.44522746 19.8485718,7.27883444 C19.7872606,7.21749635 19.7259628,7.22193529 19.6646664,7.29228578 L19.4282175,7.66008565 C19.4019336,7.69505912 19.3625346,7.71268037 19.3099937,7.71268037 L17.9175706,7.71268037 C17.9788684,7.23102839 18.0314093,6.70120718 18.0752041,6.12320329 L24.3542446,6.12320329 L24.3542446,7.71268037 L22.3838351,7.71268037 C22.1999204,7.58126082 22.0641803,7.46309084 21.9766161,7.35799555 C21.9153049,7.29665746 21.8715208,7.27042736 21.8452504,7.27917072 C21.8102096,7.28858666 21.8014528,7.34481324 21.8189799,7.44993543 C21.8540072,7.85277603 21.8758925,8.21183254 21.8846628,8.52709149 L21.8846628,9.42035435 C21.8759194,10.7076875 21.8540072,11.6272074 21.8189799,12.1789274 C21.8102365,12.3103469 21.8452369,12.362834 21.9240752,12.3365636 C22.0904561,12.2577388 22.2612249,12.1832991 22.4363814,12.1132445 C22.4889223,12.1038286 22.5151928,12.0650887 22.5151928,11.9950073 L22.5151928,8.11986576 L24.3542419,8.11986576 L24.3542419,9.44661135 C24.3454986,10.2435357 24.3148161,11.2243533 24.2622886,12.389091 C24.2535452,12.5292002 24.2885456,12.5905113 24.3673839,12.5729977 L24.9453703,12.3365501 C25.0066546,12.3271342 25.0373102,12.2839554 25.0373236,12.2051306 C25.0022829,11.4607471 24.9847693,10.5412273 24.9847827,9.44655755 M14.3182945,0.5534356 C14.6072857,0.79865345 14.8349778,1.03948617 15.0013695,1.27592029 C15.1940303,1.52113814 15.3429056,1.8232686 15.4479969,2.18231165 C15.4830241,2.34870467 15.548707,2.4275295 15.6450374,2.41875923 C15.7326056,2.40934329 15.8201819,2.30052199 15.9077581,2.09035832 C16.01284,1.81888346 16.0434942,1.59994952 15.9997115,1.4335565 C15.9646842,1.29344738 15.8552118,1.15770995 15.6713092,1.02633076 C15.3998276,0.80741027 15.0057465,0.597233149 14.4890632,0.395799396 C14.383968,0.334461305 14.3139134,0.334461305 14.2788861,0.395799396 C14.2438588,0.448394119 14.2569873,0.500854328 14.3182985,0.5534356 M13.5169984,3.40396196 C13.7797178,3.69296391 13.9855165,3.96443877 14.1343932,4.21839999 C14.3007822,4.48988829 14.419006,4.80953239 14.4890673,5.17733226 C14.5153377,5.34372528 14.5722638,5.43130693 14.659836,5.4400503 C14.7649179,5.44946623 14.865632,5.34817767 14.9619651,5.13791985 C15.0933309,4.87521526 15.1458678,4.660653 15.1195986,4.49425998 C15.0933282,4.35415087 15.0013749,4.20088635 14.8437413,4.03449332 C14.5985329,3.78928892 14.2219655,3.53095602 13.714039,3.25946771 C13.6089437,3.19812962 13.5388905,3.18938625 13.5038619,3.23323761 C13.4688346,3.28583233 13.4732063,3.34273148 13.5170442,3.40400231 M16.8010613,2.24803488 C16.0304088,4.41110382 15.4568008,6.09252079 15.080236,7.29228578 C14.8963293,7.87903304 14.7386958,8.20743395 14.6073381,8.27748851 C14.493486,8.3388266 14.1957394,8.32564429 13.7140847,8.23807609 C13.5739662,8.22866016 13.5039076,8.29497525 13.5039076,8.43511126 C13.5039076,8.57523383 13.5564485,8.6409167 13.6615411,8.63215988 C13.8804737,8.64157581 14.0731358,8.70224134 14.2395275,8.81606654 C14.3971583,8.90363474 14.5153835,9.01748684 14.5942016,9.15759595 C14.6292289,9.29771852 14.6467425,9.52979441 14.6467425,9.85381019 C14.6379991,10.3004349 14.5766879,10.7251743 14.4628385,11.1280149 C14.4015408,11.3732193 14.4234261,11.5790113 14.5285214,11.7454043 C14.64236,11.9117973 14.7956192,12.0125075 14.988284,12.0475347 C15.1546717,12.0737648 15.2772752,12.0475347 15.3560933,11.9687099 C15.4436615,11.8549116 15.469932,11.6709511 15.4349047,11.4169899 C15.3210526,10.7251608 15.2860266,9.91947961 15.3298094,8.99995975 C15.3648367,8.43948294 15.5005754,7.74765385 15.7370271,6.924459 L17.0900431,2.3268328 C17.1250704,2.22177787 17.0944821,2.15169641 16.9980898,2.11665568 C16.8929945,2.09042557 16.827317,2.13414242 16.8010492,2.24807523 M30.712157,6.70096506 L30.712157,9.98498762 C30.7034136,10.2039216 30.6902582,10.4272406 30.6727446,10.6549314 C30.6640012,10.7424996 30.7252855,10.7599863 30.8566499,10.7075261 L31.2770042,10.536748 C31.3120314,10.5286772 31.3339168,10.4885922 31.342687,10.4185107 L31.342687,9.69602602 L34.3902553,9.69602602 L34.3902553,10.4579231 C34.3902472,10.5454913 34.3989986,10.5936606 34.4165257,10.6024174 C34.451553,10.6118333 34.657345,10.5498227 35.0339205,10.4185107 C35.0864614,10.4090948 35.1083468,10.3571726 35.0996034,10.260888 C35.047049,9.72668162 35.0207786,9.30195569 35.020792,8.98668328 L35.020792,7.20018448 C35.0207826,7.13884639 35.0295354,7.08194724 35.0470625,7.02940632 C35.0558059,6.96806823 35.1740296,6.88491207 35.4017365,6.77983024 C35.4630343,6.74485677 35.5024332,6.70544435 35.5199603,6.661593 C35.5287037,6.62661953 35.4936764,6.5740248 35.414865,6.50395679 C35.1696485,6.31129331 34.9200644,6.13177179 34.6661085,5.96537876 C34.6047974,5.90404067 34.5434996,5.90847961 34.4822032,5.9788301 L34.2457543,6.34664342 C34.2194704,6.3816169 34.1800714,6.39923815 34.1275305,6.39923815 L31.3164125,6.39923815 C31.1587736,6.28543985 31.0230349,6.17156084 30.9091935,6.05770873 C30.8303687,5.9788839 30.7734494,5.9526538 30.7384248,5.9788839 C30.7033975,5.98829984 30.6858704,6.03147863 30.6858839,6.11030345 C30.6946272,6.27669648 30.7033975,6.47374509 30.7121543,6.7014224 M34.3902539,6.80647734 L34.3902539,9.28919037 L31.3426857,9.28919037 L31.3426857,6.80647734 L34.3902539,6.80647734 M27.7696746,1.53890736 L27.7696746,9.68327416 C27.7434042,10.6115508 27.7127486,11.5135705 27.6777213,12.3893063 C27.6689779,12.5556993 27.6821602,12.6432675 27.7171337,12.6520243 C27.7784314,12.6520243 27.9710963,12.5776384 28.2951215,12.4287052 C28.3564192,12.4024751 28.3914465,12.345576 28.4002168,12.2579405 C28.3914734,11.5485978 28.3914734,10.6903757 28.4002168,9.68327416 L28.4002168,4.96742416 L31.447785,4.96742416 L31.447785,5.30896703 C31.4477796,5.39653523 31.4565284,5.44470446 31.4740555,5.45346128 C31.5090827,5.46287721 31.7148774,5.40086656 32.0914503,5.26955462 C32.1439912,5.26013868 32.1658765,5.20821653 32.1571331,5.11191841 C32.1045788,4.57772552 32.0783083,4.15299959 32.0783217,3.83772718 L32.0783217,1.57831977 C32.078315,1.51698168 32.0870651,1.46008253 32.1045922,1.40755506 C32.1133356,1.34621697 32.2315728,1.26306082 32.4592663,1.15796553 C32.520564,1.12299206 32.5599764,1.08357964 32.5774901,1.03972829 C32.5862334,1.00475482 32.5512061,0.952160093 32.4723948,0.882092086 C32.227181,0.689442055 31.9775968,0.509920528 31.7236383,0.343514054 C31.6623271,0.282175963 31.6010293,0.286614904 31.539733,0.35696539 L31.303284,0.724765263 C31.2770136,0.759738736 31.2376012,0.777359986 31.1850602,0.777359986 L28.2163087,0.777359986 C28.0761889,0.663561685 27.9623435,0.562811181 27.8747713,0.475229534 C27.7871896,0.387661338 27.7258946,0.352687865 27.6908659,0.370174601 C27.6645955,0.379590536 27.6602103,0.427073752 27.6776836,0.51466885 C27.7302245,0.917522904 27.7608801,1.25906577 27.769637,1.539284 M31.4477366,3.07620671 L31.4477366,4.56058852 L28.4001683,4.56058852 L28.4001683,3.07620671 L31.4477366,3.07620671 M31.4477366,1.18461263 L31.4477366,2.66899443 L28.4001683,2.66899443 L28.4001683,1.18461263 L31.4477366,1.18461263 M38.2259481,11.3913382 L38.2259481,1.52615549 C38.2259359,1.49118202 38.2391304,1.45176961 38.2653605,1.40791825 C38.2916175,1.37294478 38.4492537,1.28537658 38.7382597,1.14518676 C38.7995439,1.11895666 38.7995439,1.06636193 38.7382597,0.987564009 C38.5280704,0.768630069 38.2872418,0.549696128 38.015775,0.330748736 C37.9807342,0.295775263 37.945707,0.278154014 37.9106797,0.278154014 C37.875639,0.278154014 37.8493685,0.29564075 37.8318683,0.330748736 L37.5034661,0.764244933 C37.4947227,0.773660868 37.4509117,0.777696269 37.3721003,0.777696269 L34.5215726,0.777696269 C34.3639324,0.663897969 34.2281922,0.550005509 34.1143549,0.436153403 C34.0355301,0.357328576 33.9786067,0.331098471 33.9435862,0.357328576 C33.9085455,0.366744511 33.8910318,0.409923299 33.8910453,0.488748126 C33.8997886,0.6551546 33.9085589,0.852189766 33.9173157,1.07986707 L33.9173157,4.73170296 C33.9085724,4.9506369 33.895417,5.17395597 33.8779033,5.40164673 C33.8691599,5.48921493 33.9304442,5.50670167 34.0618086,5.45424146 L34.4821629,5.2834633 C34.5171902,5.2753925 34.5390755,5.23530752 34.5478457,5.16522606 L34.5478457,4.96819089 L37.595414,4.96819089 L37.595414,11.2078216 C37.5954032,11.3654578 37.5559881,11.4574112 37.4771902,11.4836816 C37.3720949,11.5450197 37.0699604,11.5625065 36.5708015,11.5362764 C36.062863,11.5013029 35.6162369,11.4749383 35.2309221,11.4574515 C35.1258268,11.4480356 35.0689021,11.4881206 35.0601533,11.5756888 C35.0601439,11.663257 35.1083091,11.7158113 35.2046503,11.733325 C35.7826273,11.8121498 36.1986017,11.9128465 36.4525764,12.0354554 C36.7941031,12.1930782 37.0349318,12.3769848 37.1750598,12.587162 C37.2100736,12.6397567 37.2801416,12.6353177 37.3852369,12.5737106 C37.6041601,12.4948858 37.801202,12.3503916 37.9763599,12.1402144 C38.1427394,11.947551 38.2259333,11.6979614 38.2259454,11.3914593 M37.595414,3.07632778 L37.595414,4.56070958 L34.5478457,4.56070958 L34.5478457,3.07632778 L37.595414,3.07632778 M37.595414,1.18473369 L37.595414,2.66911549 L34.5478457,2.66911549 L34.5478457,1.18473369 L37.595414,1.18473369 M46.4097609,1.48594945 C46.0331867,2.01139898 45.6347259,2.44489517 45.2143784,2.78642459 C45.1268022,2.84776268 45.1049114,2.9134052 45.1486955,2.98345975 C45.1837228,3.04479785 45.2537773,3.04479785 45.3588726,2.98345975 C45.7529483,2.73826881 46.085729,2.48867927 46.3572133,2.2347046 C46.4973251,2.09459549 46.6462004,1.95885806 46.8038393,1.82749232 C46.8125827,1.85372242 46.8388666,1.88008704 46.8826507,1.90631714 C47.1015779,2.12526453 47.29424,2.34857016 47.4606384,2.57626092 C47.6007475,2.82146532 47.7014577,2.93531742 47.7627675,2.91779033 C47.8240653,2.90971953 47.8634642,2.83022214 47.8809913,2.68134275 C47.9160186,2.51496318 47.9116335,2.35732698 47.867809,2.20844759 C47.8327683,2.04206802 47.6576238,1.81874895 47.3423662,1.53850382 L47.184734,1.43344889 C47.2197613,1.38085416 47.2635454,1.33713732 47.3160998,1.30202934 C47.4824821,1.10937931 47.6007058,0.9955272 47.6707738,0.96048647 C47.7233148,0.934256366 47.7977545,0.925512997 47.8940862,0.934256366 C47.9816544,0.943672301 48.0385751,0.934269817 48.0648549,0.908026261 C48.0735983,0.873052788 48.0473279,0.807275756 47.9860436,0.710991095 L47.4606008,0.146142605 C47.3467487,0.0323443044 47.2679306,0.0366487319 47.2241505,0.15959394 C47.1628393,0.326000415 46.9789367,0.645644506 46.6724359,1.11852621 C46.6724292,1.10911028 46.6679969,1.10103948 46.6592536,1.09229611 C46.3614948,0.925916537 46.0287155,0.76390865 45.6609116,0.606258995 C45.5558163,0.544920904 45.4813793,0.549359845 45.4375979,0.619710331 C45.4025706,0.698535158 45.4244156,0.76421803 45.5032808,0.816745497 C45.8272965,1.03569289 46.129427,1.25901196 46.4096694,1.48668927 M49.2470606,0.724792165 C49.1857494,0.71537623 48.8879987,0.689818693 48.3538071,0.645967338 C48.239955,0.619737233 48.2093021,0.650002739 48.2618538,0.737974474 C48.349422,0.878097039 48.4501281,1.03136156 48.5639829,1.19774113 C48.5727263,1.22397123 48.5990102,1.2327146 48.6427943,1.22397123 C48.9405356,1.16263314 49.207636,1.13209861 49.4440944,1.1319641 L50.4555716,1.1319641 L50.2585311,2.40615533 L49.404686,2.40615533 C49.3433748,2.39673939 49.0456241,2.37118185 48.5114339,2.3273305 C48.3975818,2.3011004 48.3669276,2.3313659 48.4194806,2.41933764 C48.5070488,2.5594602 48.6077562,2.71271127 48.721611,2.87910429 C48.7303544,2.9053344 48.7566383,2.91407776 48.8004224,2.9053344 C49.098165,2.84399631 49.3652642,2.81332726 49.6017239,2.81332726 L50.2059821,2.81332726 L50.0352133,3.98243665 L49.2470498,3.98243665 C49.1857386,3.97302072 48.8879879,3.94746318 48.3537964,3.90361183 C48.2399443,3.87738172 48.2092913,3.90764723 48.261843,3.99561896 C48.3494112,4.13575498 48.4501173,4.28900605 48.5639721,4.45538562 C48.5727155,4.48161572 48.5989994,4.49035909 48.6427835,4.48161572 C48.9405248,4.42027763 49.2076253,4.38960859 49.4440836,4.38960859 L49.982663,4.38960859 L49.7987577,5.61127235 L44.9384121,5.61127235 C44.9471555,5.60185641 44.9646826,5.58934667 44.990953,5.57185994 C45.4113019,5.33541236 45.7703543,5.09896478 46.0681104,4.86250375 C46.252009,4.72239463 46.4271575,4.57790038 46.5935532,4.429021 C46.6723646,4.48161572 46.7468003,4.5428193 46.8168669,4.61292766 C47.0533091,4.82310478 47.2503497,5.04203872 47.4079899,5.26972948 C47.5656153,5.50617706 47.6707039,5.61565749 47.7232556,5.59813039 C47.7757965,5.58871446 47.8151955,5.5105622 47.8414794,5.36168282 C47.8677498,5.19530324 47.858993,5.03766704 47.8152089,4.88878766 C47.7626545,4.72239463 47.5787506,4.50346069 47.263493,4.23197238 C47.1759113,4.17063429 47.0883377,4.11373514 47.0007722,4.06120768 C47.0270427,4.0262342 47.0576848,3.99556516 47.0927256,3.96920054 C47.285381,3.77655051 47.4167413,3.66708354 47.486808,3.64079963 C47.5393489,3.61456952 47.6094035,3.61013058 47.6969851,3.62734829 C47.802067,3.63676423 47.8633674,3.63138369 47.8808904,3.61389696 C47.8896338,3.57892348 47.8633633,3.50884203 47.8020791,3.40371984 L47.3291799,2.81260089 C47.2240846,2.69880259 47.1408894,2.69880259 47.0795957,2.81260089 C47.0182845,2.97899391 46.8124885,3.28988118 46.4621996,3.7452627 C46.190714,3.60515359 45.8885849,3.46503102 45.5558109,3.32490846 C45.4419588,3.26357037 45.3675218,3.27231374 45.3324972,3.35113857 C45.2974699,3.42996339 45.3193149,3.49564627 45.3981801,3.54817373 L46.1863436,4.08675176 C45.7572258,4.61220129 45.3149782,5.03694067 44.8596007,5.36095644 C44.7720191,5.42229453 44.7457486,5.48793705 44.7807893,5.55799161 C44.7895327,5.58422171 44.8026747,5.60184296 44.8202018,5.61058633 L43.0205597,5.61058633 L42.8629275,4.38892257 L44.7676581,4.38892257 C44.8814968,4.38085177 44.9559365,4.34520573 44.9909705,4.28386764 C45.017241,4.22252955 44.9822271,4.12185975 44.8858752,3.98173718 C44.7457526,3.76280324 44.5618473,3.54825444 44.3341606,3.33806387 C44.2728494,3.27672578 44.2115517,3.28116472 44.1502553,3.3515152 L43.7167658,3.85068082 C43.6291842,3.93824902 43.5372349,3.98210037 43.4409072,3.98210037 L42.8103758,3.98210037 L42.6658802,2.81299098 L44.7676514,2.81299098 C44.8814901,2.80357504 44.9559298,2.76913962 44.9909638,2.70793604 C45.0172342,2.64659795 44.9822204,2.54594161 44.8858685,2.40580559 C44.7457459,2.1868851 44.5618406,1.97232285 44.3341539,1.76214573 C44.2728427,1.70080764 44.211545,1.70524658 44.1502486,1.77559706 L43.7167591,2.27477613 C43.6291774,2.36234433 43.5372281,2.40619568 43.4409004,2.40619568 L42.600192,2.40619568 L42.4950967,1.49980433 C42.9504782,1.38600602 43.4189976,1.22834292 43.9006563,1.02690917 C44.3472783,0.860529594 44.6318925,0.790475038 44.7545014,0.816732045 C44.8946145,0.869326768 44.9778097,0.873631195 45.0040869,0.830183381 C45.0128303,0.795209908 45.0040815,0.755797494 44.9778164,0.71194614 C44.8727211,0.554323388 44.7019538,0.339761131 44.4655089,0.0682728222 C44.4304816,0.0156780994 44.3779272,0.0201170402 44.3078767,0.0817241579 C43.7036131,0.537119129 43.1124901,0.896162183 42.5345064,1.15888022 C42.3418416,1.07131203 42.1754512,0.979358694 42.0353367,0.883020228 C41.974039,0.821682137 41.9214846,0.799890973 41.8777032,0.817377709 C41.842676,0.826793644 41.8339191,0.887459169 41.8514328,1.00128437 C41.88646,1.29028632 41.9302441,1.6843701 41.9827985,2.18353572 L42.3900162,5.61205253 L41.7069412,5.61205253 C41.6981978,5.41938905 41.6762856,5.22235388 41.6412583,5.02092013 C41.632515,4.93335193 41.5930891,4.89393952 41.5230345,4.90268289 C41.4617368,4.90269634 41.4266961,4.94653424 41.4179393,5.03410244 C41.3916688,5.48072714 41.3172291,5.85729728 41.1946269,6.16379942 C41.054507,6.45280136 40.8881167,6.68924894 40.6954559,6.87315561 C40.5640902,6.97821054 40.498414,7.09208955 40.498414,7.21468502 C40.4896707,7.34610457 40.5203128,7.44676092 40.5903674,7.51681547 C40.6516651,7.57815356 40.7479995,7.61756598 40.8793612,7.63505271 C40.9931999,7.63505271 41.1201872,7.5694102 41.2603071,7.43801755 C41.4442097,7.21908361 41.5843283,6.88629756 41.6806613,6.43967286 C41.6894047,6.29956375 41.7025467,6.15944118 41.7200738,6.01931862 L51.1254992,6.01931862 L50.5737846,7.18842801 C50.486203,7.32855058 50.4905747,7.42487559 50.5869669,7.47741651 C50.6657783,7.51238998 50.7358315,7.47742996 50.7971441,7.37236158 C51.0423404,7.0483458 51.2787893,6.76810067 51.5064922,6.53165309 C51.6465986,6.36527352 51.777959,6.25142142 51.9005746,6.19011023 C52.0406797,6.12877214 52.2289634,6.08061636 52.4654258,6.04561598 C52.5967781,6.03620005 52.6274243,5.97997346 52.5573791,5.87485127 C52.3997335,5.66467415 52.185178,5.41946975 51.9137125,5.13922462 C51.8874286,5.10425115 51.856773,5.0866299 51.8217592,5.0866299 C51.7867185,5.08664335 51.7560629,5.10411664 51.7298059,5.13922462 L51.3619952,5.53330841 C51.3269545,5.58590313 51.2656568,5.61213324 51.1780913,5.61213324 L50.4424713,5.61213324 L51.0467296,1.63189644 C51.0554729,1.51809814 51.0773717,1.43486128 51.1124124,1.38230691 C51.1649399,1.34733343 51.3182004,1.25102187 51.5721751,1.09331841 C51.6597432,1.03198032 51.6728718,0.970776742 51.6115875,0.909411748 C51.3926414,0.699248079 51.1342991,0.502212913 50.8365592,0.318292799 C50.7577343,0.265698077 50.6920515,0.265698077 50.6395186,0.318292799 L50.3242529,0.686106124 C50.297969,0.695522059 50.2760837,0.708031801 50.2585701,0.725518538 L50.1928872,0.725518538 L49.2470901,0.725518538 M43.1519536,7.08338653 C43.0906425,7.0739706 42.7928971,7.04841306 42.2587002,7.00456171 C42.1448481,6.9783316 42.1142019,7.00859711 42.1667469,7.09656884 C42.2543151,7.23669141 42.3550279,7.38994247 42.468876,7.5563355 C42.4776194,7.5825656 42.5039033,7.59130897 42.5476874,7.5825656 C42.8454354,7.52122751 43.1125345,7.49055847 43.3489875,7.49055847 L48.2356062,7.49055847 C47.8152439,7.81458769 47.3292095,8.1429886 46.7775016,8.4757612 C46.6198627,8.41442311 46.431579,8.34878059 46.2126504,8.27872603 C46.1250688,8.24375256 46.0856563,8.30495614 46.0944266,8.46263269 C46.10317,8.68156663 46.1163119,8.95742663 46.133839,9.29019922 L41.5230776,9.29019922 C41.4617799,9.28078329 41.1640238,9.25078681 40.6298255,9.19819209 C40.5159734,9.17196198 40.4853272,9.20222749 40.5378722,9.29019922 L40.8400026,9.76309438 C40.848746,9.78932449 40.8750299,9.79806785 40.918814,9.78932449 C41.2165634,9.7279864 41.4836638,9.69731735 41.7201155,9.69731735 L46.1469702,9.69731735 C46.1469635,9.83743991 46.1514092,9.9863193 46.1601525,10.1439555 L46.1601525,11.3524639 C46.1601458,11.4662622 46.1469702,11.5407557 46.1207401,11.5757829 C46.0331585,11.6283777 45.7835743,11.6414255 45.3719836,11.6151953 C44.951624,11.5889652 44.5881931,11.571344 44.2816896,11.5626006 C44.1678375,11.5531847 44.1065384,11.5845263 44.0977857,11.6546078 C44.0890423,11.742176 44.1371846,11.799102 44.2422826,11.8253859 C44.7151751,11.9129541 45.0742275,12.0268062 45.31944,12.1669153 C45.5383686,12.2983349 45.6784858,12.4208766 45.7397943,12.5347287 C45.7748215,12.6223018 45.8361193,12.6442225 45.9236996,12.6003712 C46.1426268,12.5390331 46.3396673,12.4120794 46.5148226,12.2194159 C46.6812048,12.0267659 46.7731581,11.7859332 46.7906799,11.4969447 L46.7906799,10.1439286 L46.7906799,9.69729045 L52.1370599,9.69729045 C52.2508985,9.68921965 52.3165733,9.64913467 52.3341018,9.57905321 C52.3428451,9.50022838 52.3034327,9.41704532 52.215878,9.32947712 C51.9531438,9.05800226 51.6860446,8.79965591 51.4145779,8.55445151 C51.335753,8.47562668 51.2656904,8.47562668 51.2044007,8.55445151 L50.8628633,9.04047517 C50.7840384,9.12804337 50.722734,9.19373969 50.6789579,9.23752379 C50.6439172,9.27249726 50.5738626,9.29011851 50.4687808,9.29011851 L46.7906812,9.29011851 C46.7906745,9.17632021 46.7994246,9.11496867 46.8169517,9.10621185 C46.825695,9.07123838 46.9658203,8.97923124 47.2373059,8.83035186 C47.3248741,8.79537839 47.320489,8.74278366 47.2241236,8.67272911 C47.1890829,8.66331317 47.1540556,8.646499 47.1190283,8.62013438 C47.6707362,8.34865953 48.1173622,8.14723922 48.4589078,8.01587348 C48.7829222,7.87576437 48.9755844,7.79695299 49.0368955,7.7794259 C49.2558201,7.71808781 49.509784,7.69629665 49.7987873,7.71378338 C49.9126259,7.72319932 49.9870602,7.70436745 50.022101,7.66118866 C50.048358,7.60859394 50.0308443,7.55169479 49.96956,7.49042395 C49.7243435,7.24521955 49.4265928,6.96935956 49.076308,6.66285742 C49.0412672,6.63662732 49.0106251,6.62344501 48.9843546,6.62344501 C48.9493139,6.62344501 48.9186718,6.63689635 48.8924013,6.66285742 L48.4983189,7.00438684 C48.4632781,7.05698156 48.419494,7.08321167 48.3669531,7.08321167 L43.1519335,7.08321167 M73.1679354,1.81435036 L73.1679354,11.5481808 L70.3305443,11.5481808 L70.3305443,5.83398612 C70.3305403,5.693877 70.3611864,5.59316685 70.4224976,5.53185566 C70.4575249,5.49688219 70.5713689,5.40931399 70.7640351,5.26913763 C70.8428465,5.2165429 70.8428465,5.16838712 70.7640351,5.12464338 C70.5713689,5.01958844 70.2385896,4.89258093 69.7656945,4.7436881 C69.6781128,4.71745799 69.6387139,4.77435714 69.6474707,4.91446626 C69.6737411,5.18595457 69.6912548,5.4924567 69.7000116,5.83398612 L69.7000116,11.5481808 L68.2681801,11.5481808 C68.2068824,11.5387649 67.9091263,11.5087684 67.3749267,11.4561737 C67.2610746,11.4299436 67.2304297,11.4602091 67.2829734,11.5481808 L67.5851025,12.021076 C67.5938458,12.0473061 67.6201297,12.0560494 67.6639138,12.0473061 C67.9616632,11.985968 68.2287637,11.9552989 68.4652139,11.9552989 L79.3024722,11.9552989 C79.4163109,11.945883 79.4819857,11.9071431 79.4995128,11.8370617 C79.5082562,11.7582369 79.4688437,11.6750538 79.381289,11.5874721 C79.1185562,11.3159973 78.8514557,11.0576644 78.5799889,10.8124465 C78.5011641,10.7336217 78.4311014,10.7336217 78.3698118,10.8124465 L78.0282743,11.2984836 C77.9494495,11.3860518 77.888145,11.4517347 77.844369,11.4955323 C77.8093282,11.5305057 77.7392737,11.548127 77.6341918,11.548127 L73.7984601,11.548127 L73.7984601,6.43819321 L77.9363223,6.43819321 C78.050161,6.42877728 78.1158371,6.39003743 78.1333628,6.31995597 C78.1421062,6.24113115 78.1026938,6.15794809 78.0151391,6.07036644 C77.7699212,5.79889158 77.5028221,5.54055868 77.213839,5.29534083 C77.1350141,5.216516 77.0649528,5.216516 77.0036618,5.29534083 L76.6095807,5.84706081 L76.4519472,6.00468357 L76.2680419,6.03091367 L73.7984614,6.03091367 L73.7984614,1.8142293 L78.6193986,1.8142293 C78.7332373,1.80481336 78.7989134,1.76607352 78.8164405,1.69599206 C78.8251839,1.61716723 78.7857715,1.53398417 78.6982167,1.44640252 C78.4354839,1.17494112 78.1683834,0.916594762 77.8969166,0.671376911 C77.8180918,0.592552084 77.7480292,0.592552084 77.6867395,0.671376911 L77.345202,1.15741403 C77.2663772,1.24498222 77.2050727,1.31067854 77.1612967,1.35444919 C77.126256,1.38942266 77.0562014,1.40704391 76.9511196,1.40704391 L69.056341,1.40704391 C68.9950432,1.39762798 68.6972871,1.3676315 68.1630889,1.31503678 C68.0492368,1.28880667 68.0185906,1.31907218 68.0711355,1.40704391 L68.373266,1.87993907 C68.3820094,1.90616918 68.4082933,1.91491255 68.4520774,1.90616918 C68.7498267,1.84483109 69.0169272,1.81416204 69.2533788,1.81416204 L73.1679274,1.81416204 M88.9049477,0.513875221 C89.1238722,0.81164744 89.2858841,1.0831223 89.3909821,1.32831325 C89.5223344,1.59104474 89.6011498,1.89756032 89.627431,2.24784656 C89.6361744,2.41423958 89.6843436,2.50619291 89.771928,2.5236931 C89.8594962,2.53310903 89.9689591,2.44056384 90.1003289,2.24784656 C90.2579516,2.00264216 90.3280116,1.79246504 90.310506,1.61731519 C90.3017626,1.47720608 90.227296,1.33269838 90.0871937,1.183819 C89.8770071,0.93862805 89.5529833,0.671524876 89.1151248,0.382522928 C89.0275432,0.321184837 88.9574819,0.308137041 88.9049477,0.343110514 C88.869907,0.395705237 88.869907,0.452604387 88.9049477,0.513875221 M84.3598664,11.4430855 L84.3598664,5.38736142 L85.5946574,5.38736142 C85.6209278,5.37794548 85.6471983,5.37794548 85.6734687,5.38736142 C85.4808012,5.75517474 85.2793809,6.10547442 85.0692092,6.43824702 C85.007898,6.52581522 85.007898,6.60026836 85.0692092,6.6615661 C85.1305069,6.71416082 85.2005615,6.69223514 85.2793863,6.59592358 C85.8048237,5.82526965 86.2339348,5.10717009 86.5667208,4.441598 L86.5667208,9.34135465 C86.5667141,10.138279 86.5360652,11.1191101 86.4747675,12.2838343 C86.4660241,12.467741 86.4835109,12.5596943 86.5273084,12.5596943 C86.5623357,12.5596943 86.7812669,12.4676872 87.1841129,12.2838343 C87.2191402,12.2744184 87.2410255,12.2444219 87.2497958,12.1918272 C87.2410524,11.9466228 87.227897,11.6926616 87.2103834,11.4299436 L92.8588938,11.4299436 C92.9727325,11.4205276 93.0384073,11.3817878 93.0559344,11.3117063 C93.0646778,11.2328815 93.0252653,11.149685 92.9377106,11.0621168 C92.6924914,10.7906419 92.4253923,10.5322956 92.1364105,10.2870912 C92.0575857,10.2082663 91.987523,10.2082663 91.9262334,10.2870912 L91.5321523,10.8387977 L91.3745188,10.9964339 L91.1906135,11.022664 L89.8770071,11.022664 L89.8770071,8.53995097 L92.3465876,8.53995097 C92.4516695,8.53053504 92.5173443,8.49179519 92.5436295,8.42171373 C92.5523729,8.36037564 92.5085888,8.27721948 92.4122638,8.1721242 C92.1933177,7.9269198 91.9437322,7.69047222 91.6635086,7.46278146 C91.6021974,7.38395663 91.5365146,7.38395663 91.4664667,7.46278146 L91.0986574,7.97508903 C91.0373462,8.03642712 90.989177,8.08014396 90.9541605,8.10650858 C90.9016061,8.11592452 90.8403084,8.12399532 90.7702552,8.13273868 L89.8770031,8.13273868 L89.8770031,5.91273023 L92.3465836,5.91273023 C92.4516654,5.90465943 92.5173402,5.86457445 92.5436255,5.79449299 C92.5523688,5.7331549 92.5085847,5.6500122 92.4122597,5.54491691 C92.1933137,5.29971251 91.9437282,5.06326493 91.6635046,4.83556072 C91.6021934,4.75673589 91.5365105,4.75673589 91.4664627,4.83556072 L91.0986534,5.34786829 C91.0373422,5.40920638 90.989173,5.45292323 90.9541565,5.47928784 C90.9016021,5.48870378 90.8403044,5.49677458 90.7702511,5.50551795 L89.8769991,5.50551795 L89.8769991,3.23298203 L92.7537986,3.23298203 C92.8676372,3.2235661 92.933312,3.18482625 92.9508391,3.11474479 C92.9595825,3.03591996 92.9201701,2.9527369 92.8326153,2.86515526 C92.5873961,2.5936804 92.320297,2.3353475 92.0313152,2.09012965 C91.9524904,2.01130482 91.8824278,2.01130482 91.8211381,2.09012965 L91.427057,2.64183618 L91.2694235,2.79947238 L91.0855182,2.82570249 L87.2891948,2.82570249 C87.4030334,2.50168671 87.5212572,2.19518458 87.6438688,1.90618263 C87.8365229,1.37198973 87.9766414,1.05673078 88.0642231,0.96037886 C88.0992503,0.925405387 88.1693049,0.8902974 88.2744002,0.855323927 C88.379482,0.829093823 88.4320243,0.798424777 88.4320324,0.763316791 C88.4320243,0.710722068 88.379478,0.653822918 88.2744002,0.592552084 C88.1342736,0.513727256 87.8890665,0.391145234 87.5387803,0.224738759 C87.3986537,0.145913932 87.3242167,0.181021918 87.3154666,0.329793692 C87.3242099,0.758918204 87.1052827,1.64341079 86.6586634,2.98328489 C86.3959346,3.75393881 86.1069421,4.46766669 85.7916818,5.12446851 C85.7829384,5.08949504 85.7566545,5.04120474 85.7128704,4.97997426 C85.5727465,4.76104032 85.3888412,4.54649152 85.1611544,4.33630094 C85.0998433,4.27496285 85.0385455,4.27940179 84.9772505,4.34975228 L84.5437597,4.8489179 C84.4824485,4.90151262 84.4211507,4.94092503 84.3598543,4.96715514 L84.3598543,1.55178029 L86.1857682,1.55178029 C86.2996069,1.54236435 86.3652884,1.5036245 86.3828101,1.43354305 C86.3915535,1.35471822 86.3521545,1.27153516 86.2645863,1.18395351 C86.0018589,0.912478653 85.7347598,0.65414575 85.4632862,0.4089279 C85.3844614,0.330103072 85.3144055,0.330103072 85.2531091,0.4089279 L84.9115716,0.894965014 C84.8327468,0.982533209 84.7714477,1.04822953 84.7276663,1.09200018 C84.692639,1.12697365 84.622571,1.1445949 84.5174892,1.1445949 L81.7195064,1.1445949 C81.6582087,1.13517897 81.3604526,1.10518249 80.826253,1.05258777 C80.7124009,1.02635766 80.6817561,1.05662317 80.7342997,1.1445949 L81.0364288,1.61750351 C81.0451721,1.64373362 81.0714561,1.65247699 81.1152402,1.64373362 C81.4129895,1.58239553 81.68009,1.55172648 81.9165403,1.55172648 L83.7293176,1.55172648 L83.7293176,4.98024329 L81.7063631,4.98024329 C81.7326336,4.86644499 81.7676609,4.73065375 81.8114584,4.57301755 C81.8902698,4.30154269 82.0084976,3.82427585 82.1661325,3.14119012 C82.1748759,3.05362192 82.1924029,2.99232418 82.2186734,2.95728345 C82.2712143,2.86971526 82.3938192,2.77776193 82.586484,2.68142346 C82.6740522,2.64644999 82.7178363,2.611342 82.7178498,2.57636853 C82.7091064,2.54139506 82.6653089,2.49323927 82.586484,2.43186083 C82.2712157,2.2392108 81.9778447,2.07720291 81.7063672,1.94583717 C81.6450694,1.91960706 81.6144138,1.9552531 81.6144138,2.0508921 C81.6231572,2.24356903 81.6099749,2.46687466 81.5750014,2.72083588 C81.4874198,3.27255586 81.3604446,3.88118845 81.1940556,4.54674709 C81.1415146,4.66054539 81.0758318,4.75255253 80.9970137,4.82260708 C80.9094455,4.88394518 80.8306233,4.93640538 80.7605648,4.98024329 C80.699267,5.01521676 80.699267,5.05906812 80.7605648,5.11166284 C81.0057705,5.2517854 81.1852961,5.40066479 81.2991441,5.55828754 C81.3341714,5.61088226 81.3779555,5.60644332 81.4305099,5.5448362 C81.4567803,5.50986273 81.4918076,5.45726801 81.5356052,5.3872 L83.0199816,5.3872 C82.7485,6.2366653 82.358796,7.13429984 81.8508708,8.08009016 C81.4480302,8.84198726 81.0408126,9.5382015 80.6292165,10.1687329 C80.5416348,10.2737878 80.5285063,10.3526395 80.5898041,10.4051804 C80.6511018,10.4665185 80.7211698,10.4488973 80.7999812,10.3525857 C81.491813,9.47684996 82.0960712,8.60110074 82.6127585,7.72536498 C83.0155951,7.00726542 83.379026,6.22785468 83.7030525,5.38714619 L83.7030525,11.298376 C83.729323,11.4121743 83.7249378,11.4866678 83.6898702,11.5216951 C83.6022886,11.5830332 83.330815,11.596081 82.8754349,11.5611075 C82.420048,11.5348774 82.0215885,11.5129517 81.6800523,11.495465 C81.5662002,11.4860491 81.5092822,11.5261341 81.5092836,11.6137022 C81.5005402,11.7012704 81.548696,11.7538114 81.6537805,11.771325 C82.1617057,11.8588932 82.5295149,11.9683736 82.7572097,12.0997259 C83.0286859,12.2398485 83.2038331,12.3712142 83.2826525,12.4938097 C83.3176798,12.5551478 83.3877344,12.5726345 83.4928297,12.5464044 C83.7117609,12.4850663 83.9088015,12.3581126 84.0839526,12.1654491 C84.2503389,11.9727857 84.3422909,11.7319664 84.3598099,11.4429644 M89.2464287,11.0226102 L87.1972011,11.0226102 C87.1884577,10.5146878 87.1884577,9.95421096 87.1972011,9.34119324 L87.1972011,8.53989717 L89.2464287,8.53989717 L89.2464287,11.0226102 M87.1972011,3.23292823 L89.2464287,3.23292823 L89.2464287,5.50546414 L87.1972011,5.50546414 L87.1972011,3.23292823 M87.1972011,5.91267643 L89.2464287,5.91267643 L89.2464287,8.13268488 L87.1972011,8.13268488 L87.1972011,5.91267643 M99.0065847,0.172345807 C98.5862251,0.382536379 98.0651621,0.583943229 97.4433929,0.776606711 C96.7077689,0.995540651 95.7357014,1.21010291 94.527185,1.42026658 C94.4220897,1.42968251 94.3739299,1.47716573 94.3826881,1.56476083 C94.3826881,1.65232902 94.4571278,1.69174143 94.6060018,1.68299807 C95.5342811,1.63040334 96.5282434,1.50348999 97.5878898,1.30205624 C98.2446876,1.18825794 98.730722,1.12253471 99.0459931,1.10502107 C99.2561648,1.09560514 99.4575838,1.10905647 99.6502527,1.14443349 C99.7640913,1.17940696 99.8341512,1.17940696 99.8604298,1.14443349 C99.8867002,1.10946001 99.8648687,1.04812192 99.7947469,0.960526824 C99.5758062,0.724092696 99.3831441,0.465746342 99.2167592,0.185501213 C99.1817184,0.124163122 99.1116639,0.119858695 99.006582,0.172049877 M94.7636312,2.06364397 C94.9037484,2.20376653 95.0351088,2.38328806 95.1577137,2.602222 C95.2452819,2.76861502 95.3284811,2.97003532 95.4072992,3.2064829 C95.4685969,3.37287592 95.525523,3.45605899 95.5780679,3.45605899 C95.6306088,3.45605899 95.7181838,3.40346426 95.84079,3.29843623 C95.9546286,3.18463793 96.0159345,3.03133306 96.024694,2.83866958 C96.0159506,2.75110138 95.9414974,2.63726273 95.8013816,2.49712671 C95.6087168,2.30447668 95.3284811,2.10305638 94.9606731,1.89286581 C94.8555778,1.81404098 94.7767665,1.80973655 94.7242229,1.87941447 C94.6891956,1.94075256 94.7023241,2.00195614 94.7636353,2.06332113 M96.7603179,1.8137316 C96.8478861,1.98012462 96.9179474,2.17717324 96.970495,2.40485055 C97.0055223,2.59752748 97.023036,2.8077046 97.023036,3.03538191 C97.0317793,3.21930202 97.0580632,3.32001217 97.1018473,3.33751236 C97.1543883,3.3469283 97.2550971,3.31558668 97.4039764,3.24550523 C97.5440909,3.18416713 97.6491795,3.05724033 97.7192421,2.8645634 C97.7279855,2.78573857 97.6929717,2.66315655 97.6141468,2.49675007 C97.4827811,2.26031595 97.2769837,1.99321277 96.996752,1.695454 C96.9179272,1.59040405 96.8478727,1.56416897 96.7865749,1.61662918 C96.7252637,1.6692239 96.7165069,1.73486642 96.7603045,1.81366434 M98.9934374,1.43272251 C98.9321262,1.70421082 98.8445567,1.98005737 98.7307153,2.26028904 C98.6431337,2.47923643 98.511776,2.72881252 98.3366329,3.00904419 C98.2315376,3.11409913 98.2227808,3.20172113 98.3103624,3.27176223 C98.3891738,3.35058706 98.4679905,3.33740475 98.5468113,3.23234982 C98.792013,2.96963178 98.9846752,2.74632616 99.1247991,2.56240604 C99.1860968,2.47483785 99.2211241,2.42229693 99.2298944,2.40476984 C99.3174626,2.29971491 99.5276384,2.15957889 99.8604257,1.9844156 C99.8866962,1.97499966 99.9042098,1.95818549 99.9129667,1.93182088 C99.92171,1.90559077 99.9129613,1.88366509 99.8866962,1.86617836 L99.1773481,1.36701274 C99.1247937,1.34078263 99.0853948,1.33203927 99.0591243,1.34078263 C99.0328404,1.35019857 99.0109551,1.38019505 98.9934414,1.43278977 M96.4844512,8.1847281 C96.4231535,8.17531216 96.125396,8.14975462 95.5911991,8.10590327 C95.477347,8.07967317 95.4466995,8.10993867 95.4992458,8.19791041 C95.586814,8.33803297 95.6875282,8.49128404 95.8013762,8.65767706 C95.8101196,8.68390717 95.8364035,8.69265053 95.8801876,8.68390717 C96.177937,8.62256908 96.4450361,8.59190003 96.6814891,8.59190003 L97.9031434,8.59190003 C97.7455059,8.85463152 97.5616005,9.13047806 97.3514275,9.41948001 C96.9748573,9.30568171 96.5501247,9.21367457 96.0772295,9.14362002 C95.9458638,9.11738991 95.8758065,9.14362002 95.8670524,9.22244484 C95.858309,9.30126967 95.8976945,9.35386439 95.9852762,9.38008105 C96.3355691,9.45890588 96.6946216,9.60340012 97.0624349,9.81357724 C97.0274076,9.84855072 96.9923669,9.89240207 96.9573396,9.94499679 C96.6420699,10.3390806 96.2392307,10.7550631 95.7488205,11.192931 C95.6437252,11.2804992 95.6174548,11.3549389 95.6700091,11.4162366 C95.7225501,11.4775747 95.810125,11.4556491 95.9327312,11.3505941 C96.4669281,10.9477535 96.9704776,10.5098856 97.4433794,10.0369905 C97.7411261,10.229654 98.0476336,10.4617299 98.3629047,10.7332047 C98.4767433,10.8646243 98.5643183,10.9214831 98.6256254,10.9039694 C98.6606527,10.8777393 98.7131936,10.7901711 98.7832589,10.6412514 C98.8445567,10.5011288 98.8314147,10.3347492 98.7438465,10.1420858 C98.6825353,9.98444956 98.4679838,9.83119849 98.1001786,9.68231911 C98.0125969,9.64734564 97.9294058,9.61667659 97.8505931,9.59031197 L98.3234923,9.02546348 C98.5424208,8.75398863 98.7000543,8.59196729 98.7963901,8.53942637 C98.9365033,8.45185817 99.0591068,8.39931726 99.1642007,8.38179017 C99.2517689,8.37237423 99.2561406,8.32919544 99.1773831,8.25050513 C99.0109873,8.08411211 98.8183252,7.91771908 98.5993966,7.75132606 C98.6344239,7.72509596 98.678208,7.69442691 98.7307624,7.65931892 C98.844601,7.55426399 98.9059042,7.40098602 98.9146677,7.19956572 C98.9146623,7.13822763 98.8533565,7.04631465 98.7307624,6.92370573 C98.5643667,6.7573127 98.3235393,6.586548 98.008279,6.41139815 C97.9031838,6.33257333 97.8243697,6.32813439 97.7718288,6.39794682 C97.7368015,6.45928491 97.74993,6.52048849 97.8112412,6.58185348 C97.916323,6.69565178 98.0126575,6.84019983 98.1002351,7.01534968 C97.7236636,7.05032315 97.4215345,7.08099219 97.1938464,7.10735681 C96.9223635,7.13358692 96.6202344,7.13358692 96.2874577,7.10735681 C96.7691097,6.73954349 97.1982208,6.35860166 97.5747923,5.96451788 L99.335026,5.96451788 L99.335026,11.2058039 C99.3350193,11.3634401 99.2956136,11.4553935 99.2168022,11.4816639 C99.1292205,11.543002 98.8708809,11.5560498 98.4417739,11.5210764 L97.2989363,11.4554338 C97.1850842,11.4460179 97.1237851,11.4816639 97.115031,11.5604888 C97.1062876,11.6393136 97.1544299,11.6919083 97.2595279,11.718125 C97.7937235,11.8495445 98.1746694,11.9764713 98.4023655,12.0990668 C98.6738404,12.2391894 98.8446091,12.3705551 98.9146731,12.4931506 C98.9497004,12.5807188 99.0197549,12.6069489 99.1248502,12.5719754 C99.3437788,12.4931506 99.5408193,12.3486563 99.7159732,12.1384792 C99.8823568,11.9458157 99.965552,11.6962262 99.9655587,11.3897241 L99.9655587,6.27979028 C99.965552,6.17473535 99.9743021,6.10465389 99.9918292,6.06961316 C100.000573,6.04338306 100.096911,5.98204497 100.280823,5.8857065 C100.333364,5.8776357 100.333364,5.82006398 100.280823,5.71494179 C100.140698,5.49600785 99.9261422,5.26831709 99.6371551,5.03186951 C99.5758439,4.97053142 99.5101745,4.97497036 99.4401145,5.04532085 L99.0985771,5.50508751 C99.0635363,5.54006098 99.0109954,5.55768223 98.9409435,5.55768223 L97.7061526,5.55768223 C97.7411799,5.4788574 97.7674504,5.39130266 97.784964,5.29496419 C98.3191596,4.92716432 98.7570275,4.65568946 99.0985717,4.48052617 C99.3700438,4.32290341 99.527676,4.23533522 99.5714695,4.21780813 C99.7816399,4.15647004 100.018089,4.13467887 100.280818,4.15216561 C100.394656,4.16158154 100.464715,4.14813021 100.490995,4.11275319 C100.517265,4.06015847 100.50414,4.00769826 100.451582,3.95513044 C100.215127,3.71868286 99.934891,3.46472164 99.6108739,3.19323334 C99.58459,3.15825986 99.5583195,3.14063861 99.5320625,3.14063861 C99.4970218,3.14063861 99.4663796,3.15812535 99.4401092,3.19323334 L99.0854351,3.49536379 C99.0503944,3.53033726 99.0066103,3.55226294 98.9540694,3.56100631 L95.2759697,3.56100631 C95.214672,3.55159037 94.9169159,3.52603283 94.3827163,3.48218148 C94.2688642,3.45595137 94.2382194,3.48621688 94.290763,3.57418861 C94.3783312,3.71432463 94.4790454,3.8675757 94.5928921,4.03395527 C94.6016355,4.06018537 94.6279194,4.06892874 94.6717035,4.06018537 C94.9694528,3.99884728 95.2365533,3.96817824 95.4730036,3.96817824 L98.8489741,3.96817824 C98.5249462,4.3097211 98.1483787,4.6556491 97.7192717,5.00593534 C97.6842444,4.94459725 97.6054196,4.87895473 97.4828228,4.80888672 C97.2463698,4.66877761 96.9311041,4.53304018 96.5370257,4.40167443 C96.40566,4.34033634 96.3268459,4.35351865 96.3005755,4.44108685 C96.2655482,4.52865504 96.2918321,4.59435137 96.3793869,4.63813547 C96.5457745,4.7431904 96.7034067,4.887725 96.852286,5.07161821 C96.9661247,5.20303776 97.0799741,5.3650053 97.1938235,5.55765533 L95.0132356,5.55765533 C94.8030571,5.40003257 94.6454249,5.26429514 94.5403377,5.15044304 C94.47904,5.08910495 94.4352424,5.06287484 94.408972,5.07161821 C94.3739447,5.08103415 94.3651879,5.13726073 94.3827015,5.24239637 C94.4177288,5.64523697 94.4396276,6.00429348 94.4483844,6.31955243 L94.4483844,9.73492728 C94.439641,11.0222605 94.4177288,11.9417938 94.3827015,12.4935003 C94.3739581,12.6249199 94.408972,12.677407 94.4877968,12.6511365 C94.6541858,12.5723117 94.8249545,12.4978854 95.0001044,12.4278174 C95.0526453,12.4184015 95.0789157,12.3796617 95.0789157,12.3095802 L95.0789157,5.96486761 L96.8391495,5.96486761 C96.6552415,6.23634247 96.4582009,6.51220246 96.2480265,6.79243414 C96.1079053,6.95882716 95.9677881,7.06392245 95.8276722,7.10770655 C95.7488609,7.13393665 95.7313338,7.18209243 95.7751313,7.2522008 C95.9064971,7.44486428 95.9940639,7.61562899 96.0378534,7.76450837 C96.0465968,7.81710309 96.0947795,7.83015089 96.1823503,7.80392078 C96.5851869,7.63754121 97.2638821,7.47114819 98.2184414,7.30475516 C98.2447118,7.38357999 98.2709823,7.4667765 98.2972527,7.5543447 C98.33228,7.65939963 98.3629222,7.73386623 98.3892061,7.77765032 L98.0608038,8.14546365 C98.0345334,8.17169375 97.9644654,8.18487606 97.8506267,8.18487606 L96.4844754,8.18487606 M101.568135,2.39187001 L106.008131,2.39187001 C106.12193,2.38245407 106.200781,2.35245759 106.244579,2.29986287 C106.305917,2.21229468 106.288296,2.10721284 106.191984,1.98459047 C106.034335,1.79194043 105.841671,1.58176331 105.613994,1.3540591 C105.552656,1.29272101 105.491318,1.29272101 105.430087,1.3540591 L104.957192,1.89263713 C104.904597,1.95397523 104.852137,1.98464427 104.799556,1.98464427 L103.70926,1.98464427 C103.840613,1.73945332 103.897536,1.52489107 103.880036,1.3409844 C103.853806,1.20087529 103.761799,1.04323909 103.604172,0.868075794 C103.34144,0.605371207 102.960495,0.333896349 102.461334,0.0536512202 C102.356239,-0.00768687073 102.286178,-0.016430239 102.251157,0.0274211155 C102.216116,0.0800158383 102.216116,0.136914988 102.251157,0.198199274 C102.522627,0.495958042 102.737182,0.771818035 102.894824,1.0257658 C103.034933,1.29725411 103.1444,1.6168982 103.223226,1.98469808 L101.37104,1.98469808 C101.309729,1.97528214 101.01198,1.9497246 100.477787,1.90587325 C100.363935,1.87964314 100.333283,1.90990865 100.385834,1.99788038 C100.473402,2.13800295 100.574111,2.29125402 100.687963,2.45764704 C100.696706,2.48387715 100.72299,2.49262051 100.766774,2.48387715 C101.064517,2.42253905 101.331617,2.39187001 101.568074,2.39187001 M101.187128,3.03552987 C101.458599,3.42962711 101.664398,3.78867016 101.804523,4.11268594 C101.962149,4.46299907 102.054101,4.86583968 102.08038,5.32120775 C102.071637,5.48760077 102.111023,5.5795541 102.198604,5.59706774 C102.303686,5.62329784 102.421908,5.54016859 102.553278,5.3474782 C102.719659,5.11104408 102.802854,4.90962378 102.802864,4.7432173 C102.811607,4.55932409 102.737181,4.3535321 102.57955,4.12582789 C102.334335,3.75802802 101.944632,3.3595591 101.410441,2.93044804 C101.322859,2.84287486 101.252799,2.82095417 101.200264,2.86480552 C101.147709,2.91740024 101.143337,2.97429939 101.187081,3.03557023 M104.694407,8.80230582 L105.902929,8.80230582 C106.016727,8.79288989 106.095579,8.76289341 106.139376,8.71029869 C106.200714,8.62273049 106.183227,8.51764866 106.086781,8.39503973 C105.929132,8.20237625 105.736468,7.99219913 105.508791,7.76450837 C105.447453,7.70317028 105.386249,7.70317028 105.324884,7.76450837 L104.851989,8.3030864 C104.799394,8.36442449 104.746934,8.39509354 104.694353,8.39509354 L103.538384,8.39509354 L103.538384,6.38527566 L106.113052,6.38527566 C106.22685,6.37585972 106.305702,6.34586325 106.349499,6.29326852 C106.410838,6.20570033 106.393351,6.10060504 106.296905,5.97799612 C106.139255,5.78534609 105.946592,5.57516896 105.718914,5.34746475 C105.657576,5.28612666 105.596373,5.28612666 105.535008,5.34746475 L105.062112,5.88604278 C105.009518,5.94738088 104.957057,5.97804992 104.904476,5.97804992 L103.774779,5.97804992 C104.203877,5.28622082 104.523521,4.70385869 104.733712,4.23095008 C104.838766,3.98575913 104.904476,3.84563657 104.93076,3.81059584 C104.992098,3.69679754 105.171566,3.52162079 105.469338,3.28515976 C105.495568,3.27574383 105.508751,3.25892966 105.508751,3.23256504 C105.516821,3.20633494 105.508737,3.18440926 105.48252,3.16692252 C105.184762,3.00929977 104.922044,2.88231916 104.694353,2.78598069 C104.641758,2.77656476 104.602346,2.77656476 104.576116,2.78598069 C104.5667,2.79539663 104.549886,2.82539311 104.523521,2.87798783 C104.435953,3.41219418 104.304574,3.92887344 104.129437,4.42803905 C103.989315,4.85715011 103.774752,5.33005872 103.485772,5.84673798 C103.450731,5.88171145 103.433218,5.92556281 103.433231,5.97815753 L101.581045,5.97815753 C101.519734,5.9687416 101.221985,5.94318406 100.687792,5.8993327 C100.57394,5.8731026 100.543288,5.90336811 100.595839,5.99133984 C100.683407,6.13146241 100.784114,6.28471347 100.897968,6.4511065 C100.906711,6.4773366 100.932995,6.48607997 100.976779,6.4773366 C101.274522,6.41599851 101.541622,6.38532946 101.778079,6.38532946 L102.907781,6.38532946 L102.907781,8.39514734 L101.738671,8.39514734 C101.67736,8.38573141 101.37961,8.36017387 100.845419,8.31632251 C100.731567,8.29009241 100.700914,8.32035792 100.753465,8.40832965 C100.841033,8.54845222 100.941742,8.70170328 101.055596,8.86809631 C101.064339,8.89432641 101.090623,8.90306978 101.134407,8.89432641 C101.432151,8.83298832 101.69925,8.80231928 101.935709,8.80231928 L102.907777,8.80231928 L102.907777,9.44599259 C102.899034,10.242917 102.868365,11.2237346 102.815824,12.3884723 C102.807081,12.5285814 102.842095,12.5898926 102.920919,12.5723789 L103.498907,12.3359314 C103.560191,12.3265154 103.590847,12.2833366 103.59086,12.2045118 C103.55582,11.4601283 103.538306,10.5406085 103.53832,9.44593879 L103.53832,8.80226547 L104.694288,8.80226547 M113.784669,2.77328263 L108.727276,2.77328263 C108.665938,2.76521183 108.368219,2.73387022 107.834026,2.6812755 C107.720228,2.65504539 107.689532,2.6853109 107.742019,2.77328263 L108.04415,3.24617779 C108.053566,3.2724079 108.079123,3.28115127 108.122975,3.2724079 C108.420733,3.21106981 108.687823,3.18040076 108.924284,3.18040076 L110.999771,3.18040076 C110.999771,3.1898167 111.003807,3.20232644 111.013223,3.21981317 C111.381023,4.67355283 111.770735,5.89520314 112.182332,6.88477756 C112.506348,7.68170195 112.922331,8.39542982 113.430253,9.02596118 C112.974871,9.49885634 112.410023,9.95423786 111.735707,10.3921057 C110.702336,11.0576778 109.436888,11.6531685 107.939377,12.178618 C107.799268,12.2135915 107.746714,12.2881119 107.781755,12.4019236 C107.816728,12.5157219 107.899992,12.5551881 108.031331,12.5201609 C109.765289,11.985968 111.245285,11.3160242 112.471321,10.510343 C112.944216,10.195084 113.377712,9.84041266 113.771796,9.44632888 C113.955689,9.63899236 114.148353,9.8272707 114.349786,10.0111774 C115.251779,10.8343722 116.666106,11.6312966 118.592741,12.4019371 C118.697796,12.4369105 118.772249,12.4369105 118.816047,12.4019371 C118.956156,12.2881388 119.126921,12.1873883 119.328354,12.0998066 C119.485977,12.0384685 119.665499,11.9860083 119.866932,11.9421839 C119.945757,11.9327679 119.989474,11.8940281 119.998352,11.8239466 C120.006423,11.7626085 119.984901,11.7231961 119.932709,11.7057094 C119.818911,11.6962935 119.709377,11.6837837 119.604308,11.666297 C118.413287,11.4561199 117.257319,11.0445224 116.136379,10.4315047 C115.391996,10.0286641 114.739579,9.54701212 114.179116,8.98653532 C114.520645,8.56618108 114.831532,8.10642787 115.111764,7.6072488 C115.777323,6.33742926 116.228333,4.86181773 116.46478,3.18038731 L119.551768,3.18038731 C119.665566,3.17231651 119.731276,3.13223153 119.748803,3.06215007 C119.758219,2.98332524 119.718134,2.90015563 119.630565,2.81257399 C119.367834,2.54109913 119.100731,2.28275277 118.829269,2.03754837 C118.750445,1.95872355 118.680377,1.95872355 118.619092,2.03754837 L118.277549,2.52357204 C118.198725,2.61114023 118.137427,2.67683656 118.093643,2.72062065 C118.058669,2.75559413 117.988588,2.77321538 117.883466,2.77321538 L113.8901,2.77321538 C113.951438,2.76514458 114.043351,2.67690381 114.16596,2.51049734 C114.33234,2.27404976 114.415536,2.07262946 114.41555,1.90623643 C114.415536,1.72234322 114.336725,1.52092292 114.179102,1.30197553 C113.933884,0.951689297 113.548557,0.561990649 113.023121,0.132866136 C112.935553,0.054041309 112.865485,0.0365545725 112.812944,0.0802714136 C112.76035,0.132866136 112.756045,0.189765287 112.799493,0.251036121 C113.070968,0.627619716 113.276773,0.97790595 113.416896,1.30192173 C113.574519,1.64346459 113.666472,2.03754837 113.692756,2.48417307 C113.692742,2.6505661 113.723425,2.74690456 113.784763,2.77316157 M114.375882,7.79114201 C114.218246,8.06261687 114.034339,8.32972005 113.824162,8.59243808 C113.692742,8.45232897 113.570201,8.2990779 113.456362,8.13268488 C113.009724,7.52842398 112.598126,6.77528369 112.22157,5.87327747 C111.818716,4.91873033 111.52097,4.02109579 111.328307,3.18037386 L115.794581,3.18037386 C115.523092,5.0281973 115.050197,6.56510657 114.375882,7.79114201" id="zh-classical-tagline" fill="#000000" fill-rule="nonzero"></path>
    </g>
</svg>