<svg xmlns="http://www.w3.org/2000/svg" width="120" height="14"><path fill="#000" fill-rule="nonzero" d="M3.976 5.01H2.624V2.037c0-.357.178-.655.535-.655h1.56c1.116 0 1.353.595 1.68 1.62.179.03.342 0 .491-.074A52.183 52.183 0 0 0 6.563.773c0-.03-.015-.045-.06-.045a3.34 3.34 0 0 1-.728.06h-3.79S.81.773.067.758c-.09.09-.09.401 0 .49 1.04.045 1.293.12 1.293 1.353v5.961c0 1.234-.253 1.308-1.293 1.353-.09.09-.09.401 0 .49.728-.014 1.932-.03 1.932-.03h3.196c.714 0 1.903.03 1.903.03.208-.743.431-1.724.55-2.482-.163-.074-.327-.119-.52-.074-.297 1.07-.818 1.947-1.947 1.947H3.159c-.327 0-.535-.238-.535-.639V5.574h1.352c1.264 0 1.309.342 1.353 1.011.09.09.402.09.49 0-.014-.52-.029-.802-.029-1.308 0-.505.015-.832.03-1.278-.09-.09-.402-.09-.49 0-.045.817-.09 1.01-1.354 1.01m5.587.655v2.898c0 1.234-.178 1.294-1.1 1.353-.089.09-.089.401 0 .49.625-.014 1.1-.03 1.695-.03.61 0 1.16.016 1.798.03.09-.089.09-.4 0-.49-1.04-.074-1.218-.119-1.218-1.353V6.496c0-.386.178-.728.356-.996.164-.238.506-.728.684-.728.104 0 .223.015.312.104.149.148.298.43.61.43.357 0 .698-.37.698-.742 0-.283-.267-.714-.891-.714-.7 0-1.309.654-1.65 1.234-.09.163-.134.09-.134.015 0-.476.074-1.19.074-1.19 0-.059-.074-.104-.193-.104-.416.164-1.011.298-2.037.432-.03.089-.03.327.03.416.803.074.966.193.966 1.01m5.308 2.9c0 1.233-.163 1.293-.996 1.352-.089.09-.089.401 0 .49.625-.014.967-.03 1.591-.03.52 0 .714.016 1.353.03.089-.089.089-.4 0-.49-.61-.06-.773-.119-.773-1.353V7.224c.342.015.55.12.847.536l1.085 1.53c.298.432.342.61.342.803v.238c0 .045.015.075.06.075.297-.015.58-.03 1.025-.03.461 0 .773.015 1.22.03.088-.09.088-.402 0-.49-.506-.06-.952-.12-1.28-.625l-1.738-2.572a.355.355 0 0 1-.075-.208.19.19 0 0 1 .06-.149l1.13-1.248c.43-.446.891-.625 1.635-.654.089-.09.089-.402 0-.491-.55.015-.758.03-1.294.03-.564 0-.817-.015-1.367-.03-.09.09-.09.401 0 .49.892.045.416.61.267.759-.787.862-1.53 1.516-1.917 1.635V1.709c0-.966.06-1.56.06-1.56 0-.104-.06-.149-.194-.149-.372.149-1.486.357-2.081.401-.03.12 0 .357.09.446.772.045.95-.03.95 1.22v6.495m7.231-7.09c0 .386.357.773.714.773.416 0 .773-.387.773-.714 0-.357-.312-.773-.714-.773-.357 0-.773.357-.773.714m1.353 7.09V5.604c0-.743.06-1.694.06-1.694 0-.06-.075-.105-.194-.105-.43.164-1.01.298-2.036.432-.03.089 0 .327.03.416.802.089.966.163.966 1.01v2.9c0 1.233-.164 1.278-1.07 1.352-.09.09-.09.401 0 .49.624-.014 1.01-.03 1.664-.03.64 0 1.011.016 1.65.03.09-.089.09-.4 0-.49-.907-.06-1.07-.119-1.07-1.353m4.08-3.508c-.044.06-.148.208-.148 0 0-.446.074-1.13.074-1.13 0-.074-.06-.119-.178-.119-.417.164-1.026.298-2.052.432-.03.089 0 .327.03.416.803.074.966.148.966 1.01v2.9c0 1.218-.149 1.278-1.04 1.352-.09.09-.09.401 0 .49.609-.014.995-.03 1.635-.03.58 0 .847.016 1.471.03.09-.089.09-.4 0-.49-.758-.074-.892-.134-.892-1.353V6.124c0-.312.134-.49.253-.624.565-.55 1.145-.877 1.725-.877.297 0 .609.193.787.535.149.298.179.699.179 1.145v2.26c0 1.218-.149 1.278-.922 1.352-.074.09-.074.401 0 .49.624-.014.922-.03 1.516-.03.61 0 .937.016 1.576.03.074-.089.074-.4 0-.49-.832-.074-.996-.134-.996-1.353V6.347c0-.817-.06-1.53-.401-1.991-.253-.328-.714-.506-1.234-.506-.728 0-1.442.193-2.349 1.204m10.78 1.13c.282-1.68 1.323-1.814 1.68-1.814.564 0 1.233.313 1.233 1.561 0 .134-.06.208-.223.208l-2.69.045m3.894 2.81c-.55.564-.98.802-1.843.802-.535 0-1.16-.312-1.62-1.07-.297-.49-.476-1.174-.476-2.037l3.954.03c.179 0 .283-.09.283-.253 0-1.248-.446-2.586-2.512-2.586-1.294 0-2.973 1.234-2.973 3.493 0 .833.208 1.635.698 2.2.506.595 1.204.952 2.275.952 1.13 0 1.932-.52 2.527-1.294-.045-.148-.134-.223-.313-.238m3.646-3.939c-.044.06-.148.208-.148 0 0-.446.074-1.13.074-1.13 0-.074-.06-.119-.178-.119-.417.164-1.026.298-2.052.432-.03.089 0 .327.03.416.803.074.966.148.966 1.01v2.9c0 1.218-.148 1.278-1.04 1.352-.09.09-.09.401 0 .49.61-.014.996-.03 1.635-.03.58 0 .847.016 1.472.03.089-.089.089-.4 0-.49-.759-.074-.892-.134-.892-1.353V6.124c0-.312.133-.49.252-.624.565-.55 1.145-.877 1.725-.877.297 0 .61.193.788.535.148.298.178.699.178 1.145v2.26c0 1.218-.149 1.278-.922 1.352-.074.09-.074.401 0 .49.625-.014.922-.03 1.517-.03.609 0 .936.016 1.575.03.075-.089.075-.4 0-.49-.832-.074-.996-.134-.996-1.353V6.347c0-.817-.06-1.53-.401-1.991-.253-.328-.714-.506-1.234-.506-.728 0-1.442.193-2.349 1.204m5.934 3.27c.06.729.104 1.428.104 2.052a2.21 2.21 0 0 1 .372-.045c.104 0 .193 0 .297.03.401.104.803.164 1.353.164.832 0 2.363-.402 2.363-1.873 0-1.011-.743-1.591-1.739-1.978-.892-.341-1.487-.564-1.487-1.382 0-.61.536-.951 1.041-.951.327 0 1.19.119 1.383 1.382.089.09.386.074.475-.015 0-.535.075-1.085.09-1.575-.461-.075-1.175-.283-1.948-.283-1.1 0-2.096.714-2.096 1.665 0 1.085.49 1.546 1.635 2.022 1.22.52 1.516.817 1.516 1.456 0 .729-.713 1.041-1.263 1.041-.58 0-.907-.193-1.055-.357-.357-.342-.491-.996-.58-1.367-.09-.09-.372-.075-.461.015m6.315-6.853c0 .386.357.773.713.773.417 0 .773-.387.773-.714 0-.357-.312-.773-.713-.773-.357 0-.773.357-.773.714m1.353 7.09V5.604c0-.743.06-1.694.06-1.694 0-.06-.075-.105-.194-.105-.431.164-1.011.298-2.037.432-.03.089 0 .327.03.416.803.089.966.163.966 1.01v2.9c0 1.233-.163 1.278-1.07 1.352-.09.09-.09.401 0 .49.624-.014 1.01-.03 1.665-.03.64 0 1.01.016 1.65.03.09-.089.09-.4 0-.49-.907-.06-1.07-.119-1.07-1.353m2.623 0c0 1.234-.163 1.294-.996 1.353-.09.09-.09.401 0 .49.624-.014.966-.03 1.59-.03.521 0 .714.016 1.353.03.09-.089.09-.4 0-.49-.61-.06-.773-.119-.773-1.353V7.224c.342.015.55.12.848.536l1.085 1.53c.297.432.342.61.342.803v.238c0 .045.015.075.06.075.297-.015.579-.03 1.025-.03.46 0 .773.015 1.219.03.09-.09.09-.402 0-.49-.506-.06-.951-.12-1.278-.625l-1.74-2.572a.355.355 0 0 1-.074-.208.19.19 0 0 1 .06-.149l1.13-1.248c.43-.446.891-.625 1.634-.654.09-.09.09-.402 0-.491-.55.015-.758.03-1.293.03-.565 0-.818-.015-1.368-.03-.089.09-.089.401 0 .49.892.045.417.61.268.759-.788.862-1.531 1.516-1.918 1.635V1.709c0-.966.06-1.56.06-1.56 0-.104-.06-.149-.193-.149-.372.149-1.487.357-2.081.401-.03.12 0 .357.089.446.773.045.951-.03.951 1.22v6.495m7.305 0c0 1.234-.163 1.308-1.07 1.353-.09.09-.09.401 0 .49.624-.014 1.01-.03 1.665-.03.639 0 1.01.016 1.65.03.089-.089.089-.4 0-.49-.907-.045-1.07-.119-1.07-1.353V1.71c0-.966.059-1.56.059-1.56 0-.104-.06-.149-.193-.149-.372.149-1.487.357-2.081.401-.03.12 0 .357.089.446.773.045.951-.03.951 1.22v6.495m3.117-1.233c0 1.516 1.026 3.196 3.122 3.196 2.215 0 3.151-1.844 3.151-3.33 0-1.546-.817-3.345-3.122-3.345-2.006 0-3.151 1.59-3.151 3.479M75.49 4.34c1.278 0 2.007 1.144 2.007 3.33 0 1.962-.907 2.363-1.606 2.363-1.546 0-2.11-1.903-2.11-3.047 0-1.294.46-2.646 1.709-2.646m6.495 1.055c.46-.476 1.055-.862 1.501-.862.951 0 1.769 1.07 1.769 2.75 0 1.219-.431 2.735-2.096 2.735-.268 0-.788-.074-1.055-.312-.313-.268-.357-.342-.357-.892V6.05c0-.312.044-.446.238-.654m-.12-.49c-.059.059-.148.074-.148-.045 0-.535.06-.951.06-.951 0-.06-.075-.105-.194-.105-.416.164-.98.298-2.007.432-.03.089 0 .327.03.416.803.074.966.163.966 1.01v6.348c0 1.234-.163 1.308-1.07 1.353-.09.089-.09.401 0 .49.624-.015 1.01-.03 1.665-.03.699 0 1.16.015 1.799.03.089-.089.089-.401 0-.49-1.056-.06-1.22-.12-1.22-1.353v-1.605c0-.194.045-.164.209-.104.357.148.817.223 1.293.223.833 0 1.576-.253 2.185-.833.699-.684 1.1-1.605 1.1-2.81 0-1.575-1.115-3.032-2.63-3.032-.55 0-1.368.372-2.037 1.056m7.2 1.278c.282-1.68 1.323-1.814 1.68-1.814.564 0 1.233.313 1.233 1.561 0 .134-.06.208-.223.208l-2.69.045m3.894 2.81c-.55.564-.98.802-1.843.802-.535 0-1.16-.312-1.62-1.07-.298-.49-.476-1.174-.476-2.037l3.954.03c.178 0 .283-.09.283-.253 0-1.248-.446-2.586-2.513-2.586-1.293 0-2.973 1.234-2.973 3.493 0 .833.208 1.635.699 2.2.505.595 1.204.952 2.274.952 1.13 0 1.933-.52 2.527-1.294-.044-.148-.133-.223-.312-.238m6.127-.46c0 .282-.03.401-.238.58-.55.475-1.026.713-1.398.713-.802 0-1.635-.877-1.635-2.735 0-1.07.208-1.665.431-1.977.461-.699 1.085-.744 1.383-.744.535 0 .907.194 1.204.536.208.237.253.341.253.802v2.825m-.164 1.1c.06-.06.178-.09.178.015 0 .356.164.877.164.877.119.044.163.03.282 0 .327-.268.892-.491 1.799-.595.09-.09.09-.312 0-.401-.951-.075-1.085-.357-1.085-1.086V1.71c0-.966.06-1.56.06-1.56 0-.104-.06-.149-.194-.149-.372.149-1.486.357-2.081.401-.03.12 0 .357.09.446.772.045.95-.03.95 1.22v1.902c0 .104-.03.134-.133.134-.06 0-.67-.253-1.16-.253-.98 0-1.635.327-2.23.892-.639.64-1.025 1.516-1.025 2.616 0 1.829.921 3.167 2.527 3.167.58 0 1.13-.298 1.858-.892m3.893-8.161c0 .386.356.773.713.773.416 0 .773-.387.773-.714 0-.357-.312-.773-.713-.773-.357 0-.773.357-.773.714m1.352 7.09V5.604c0-.743.06-1.694.06-1.694 0-.06-.075-.105-.193-.105-.432.164-1.011.298-2.037.432-.03.089 0 .327.03.416.802.089.966.163.966 1.01v2.9c0 1.233-.164 1.278-1.07 1.352-.09.09-.09.401 0 .49.624-.014 1.01-.03 1.665-.03.639 0 1.01.016 1.65.03.089-.089.089-.4 0-.49-.907-.06-1.07-.119-1.07-1.353m6.027-8.16-1.13 1.768c-.119.194-.163.253-.163.417 0 .104.104.193.208.193s.223-.06.446-.283l1.71-1.62-.045-.163a1.21 1.21 0 0 0-.818-.342.775.775 0 0 0-.208.03m-1.59 12.352c.222-.401.416-.832.609-1.278 1.19-2.854 1.843-4.4 2.631-6.065.208-.431.654-.907 1.204-.951.09-.09.09-.402 0-.491-.372.015-.64.03-1.055.03-.52 0-.803-.015-1.353-.03-.09.09-.09.401 0 .49.46.045.936.134.713.67l-1.486 3.404c-.104.252-.223.282-.357-.015l-1.308-3.092c-.268-.625-.431-.892.476-.966.089-.09.089-.402 0-.491-.55.015-1.145.03-1.68.03-.505 0-.907-.015-1.204-.03-.09.09-.09.401 0 .49.654.06.773.179 1.174 1.115l1.68 3.91c.134.312.357.981.208 1.397-.163.506-.357.907-.58 1.368-.163.297-.371.431-.743.431-.208 0-.268-.045-.431-.045-.431 0-.654.446-.654.64 0 .312.297.55.699.55.312 0 .906-.12 1.441-1.07h.015m8.987-5.843V8.89c0 .194-.09.298-.208.387-.387.312-.892.64-1.308.64-.744 0-1.07-.596-1.07-1.056 0-.67.311-1.338 1.411-1.636l1.175-.312m0 2.75c.089.313.342.863 1.144.863.729 0 1.264-.595 1.264-.67 0-.103-.134-.252-.193-.252-.09 0-.149.238-.461.238-.58 0-.595-.58-.595-1.264V6.362c0-2.11-1.16-2.512-2.244-2.512-1.22 0-2.453.847-2.453 1.65 0 .357.178.52.52.52.431 0 .654-.297.654-.49a.668.668 0 0 0-.044-.268 1.027 1.027 0 0 1-.03-.297c0-.46.669-.624 1.234-.624.505 0 1.204.252 1.204 1.932 0 .104-.045.164-.09.178l-1.278.313c-1.427.356-2.453 1.144-2.453 2.155 0 1.174.833 1.606 1.873 1.606.684 0 .967-.12 1.62-.625l.298-.238h.03"/></svg>