<svg xmlns="http://www.w3.org/2000/svg" width="120" height="25"><path fill="#3F3F3F" d="m11.345 4.78-4.098 8.642H5.824L0 0h3.5l3.12 7.323L10.027 0h2.656l3.405 7.323L19.19 0h3.5l-5.805 13.422h-1.423L11.345 4.78ZM27.603 0v13.251h-3.301V0h3.3Zm14.2 0-4.317 6.222 5.853 7.03h-4.136l-5.245-6.214v6.213h-3.301V0h3.3l.02 5.966L38.169 0h3.633Zm6.25 0v13.251h-3.3V0h3.3ZM58.25 4.913 62.509 0h2.874v13.251h-3.301V4.98l-3.576 4.154h-.503L54.427 4.98v8.271h-3.3V0H54l4.25 4.913ZM76.064 0l5.88 13.251h-3.547l-1.09-2.618h-5.93l-.986 2.618h-3.5L72.231 0h3.833Zm.265 8.319-2.134-5.15-1.945 5.15h4.08ZM96.913 0v13.251h-2.78l-7.322-8.49v8.49H83.51V0h3.025l7.077 8.1V0h3.3Zm6.383 0v13.251h-3.3V0h3.3Zm10.823 0L120 13.251h-3.548l-1.09-2.618h-5.929l-.986 2.618h-3.5L110.287 0h3.832Zm.266 8.319-2.135-5.15-1.944 5.15h4.079Z"/><path fill="#666" d="M53.308 23.258v1.636H48v-.235l.082-.094 1.024-1.354c.8-1.059 1.334-1.871 1.6-2.436.275-.565.413-1.036.413-1.412 0-.322-.106-.593-.318-.812a.985.985 0 0 0-.765-.341c-.596 0-1.24.333-1.93 1v-1.683c.8-.51 1.55-.765 2.248-.765.792 0 1.412.204 1.86.612.454.4.682.957.682 1.671 0 .55-.22 1.216-.66 2-.203.37-.392.68-.564.93-.196.283-.514.71-.953 1.283h2.589Zm6.528-2.506v.094c0 1.318-.235 2.342-.706 3.071-.463.722-1.122 1.083-1.977 1.083-.879 0-1.558-.357-2.036-1.07-.479-.723-.718-1.739-.718-3.049 0-1.294.24-2.303.718-3.024.486-.73 1.157-1.095 2.012-1.095.518 0 .981.153 1.389.459.408.298.722.722.941 1.271.252.62.377 1.373.377 2.26Zm-1.848.047c0-.714-.047-1.295-.14-1.742-.11-.526-.35-.789-.719-.789-.36 0-.6.251-.718.754-.102.423-.153 1.07-.153 1.941 0 .903.067 1.554.2 1.954.142.392.365.588.671.588.4 0 .652-.317.754-.953.07-.431.105-1.016.105-1.753Zm8.353-.047v.094c0 1.318-.235 2.342-.706 3.071-.463.722-1.122 1.083-1.977 1.083-.879 0-1.558-.357-2.036-1.07-.479-.723-.718-1.739-.718-3.049 0-1.294.24-2.303.718-3.024.486-.73 1.157-1.095 2.012-1.095.518 0 .98.153 1.389.459.408.298.722.722.941 1.271.251.62.377 1.373.377 2.26Zm-1.848.047c0-.714-.047-1.295-.14-1.742-.11-.526-.35-.789-.719-.789-.36 0-.6.251-.718.754-.102.423-.153 1.07-.153 1.941 0 .903.067 1.554.2 1.954.142.392.365.588.671.588.4 0 .651-.317.753-.953.071-.431.106-1.016.106-1.753ZM68.186 25l1.835-3.013c-.22.055-.392.083-.517.083-.612 0-1.134-.247-1.566-.742-.431-.494-.647-1.09-.647-1.789 0-.792.255-1.451.765-1.977.51-.533 1.145-.8 1.907-.8.76 0 1.392.267 1.894.8.502.526.754 1.193.754 2 0 .754-.189 1.507-.565 2.26a12.2 12.2 0 0 1-.495.883L70.151 25h-1.965Zm2.624-5.602c0-.353-.082-.628-.247-.824a.76.76 0 0 0-.636-.306.794.794 0 0 0-.659.342c-.165.227-.247.514-.247.859 0 .36.082.651.247.87a.793.793 0 0 0 .66.318c.258 0 .47-.11.635-.33.165-.227.247-.513.247-.858v-.07Z"/></svg>