<svg xmlns="http://www.w3.org/2000/svg" viewBox="0 0 140 38.674"><g fill="#010101"><path d="m43.84 17.008 2.055-6.66h2.691l2.04 6.66 2.292-6.66h2.797l-4.039 11.578h-1.918l-2.535-8.059-2.52 8.059h-1.918l-4.039-11.578h2.801zM57.113 10.348h2.59v11.578h-2.59zM62.551 10.348h2.59v4.762l4.367-4.762h3.191l-4.605 5.125c.395.551 1.14 1.59 2.21 3.09s1.86 2.62 2.4 3.367h-3.02l-3.403-4.57-1.156 1.293v3.277h-2.59V10.348zM74.305 10.348h2.594v11.578h-2.594zM90.113 14.645l-3.125 6.336h-1.531l-3.11-6.336v7.281h-2.59V10.348h3.505l2.984 6.367 3.008-6.367h3.484v11.578h-2.59v-7.281zM103.91 10.348v2.297h-5.766v2.394h5.18v2.211h-5.18v2.399h5.957v2.277h-8.527V10.348zM113.34 18.75c.641-.605.949-1.47.95-2.605 0-1.14-.31-2.02-.95-2.625-.637-.621-1.6-.914-2.914-.915h-1.45v7.04h1.641c1.17.003 2.09-.29 2.723-.895m1.883-6.883c1.11 1.02 1.66 2.41 1.656 4.211s-.535 3.23-1.621 4.281c-1.07 1.05-2.73 1.57-4.938 1.57h-3.953V10.349h4.094c2.09 0 3.66.516 4.762 1.52zM119.13 10.348h2.59v11.578h-2.59zM129.31 13.797l-1.45 3.367h2.903zm3.508 8.129-1.074-2.5h-4.848l-1.07 2.5h-2.743l5.004-11.578h2.5l5.004 11.578zM20.559 28.402c4.36-.621 7.71-4.37 7.715-8.89 0-2.76-1.25-5.21-3.192-6.868l-4.523 4.52zM18.02 28.402V17.164l-4.523-4.54a8.96 8.96 0 0 0-3.192 6.868c0 4.54 3.35 8.29 7.715 8.91z"/><path d="M27.098 11.691c2.09 2.09 3.23 4.87 3.227 7.8 0 2.93-1.16 5.73-3.227 7.802a10.97 10.97 0 0 1-7.8 3.23c-2.94 0-5.73-1.16-7.802-3.23-2.07-2.07-3.25-4.85-3.246-7.801 0-2.95 1.16-5.73 3.227-7.801q.265-.257.555-.52L9.508 8.652c-.188.172-.359.344-.55.52-1.35 1.35-2.4 2.9-3.126 4.644-.758 1.8-1.16 3.71-1.156 5.676 0 1.97.383 3.88 1.156 5.68.742 1.74 1.8 3.29 3.125 4.644 1.35 1.35 2.9 2.4 4.645 3.125 1.8.758 3.71 1.16 5.68 1.156 1.96 0 3.88-.383 5.675-1.156 1.75-.746 3.3-1.8 4.645-3.125 1.35-1.35 2.4-2.9 3.125-4.644.758-1.8 1.16-3.71 1.156-5.68 0-1.96-.383-3.88-1.156-5.676-.742-1.75-1.8-3.3-3.125-4.644-.172-.176-.36-.344-.55-.52l-2.5 2.52c.183.155.354.327.546.519"/><path d="M23.836 9.363c0 2.52-2.04 4.55-4.555 4.555-2.52 0-4.56-2.04-4.558-4.555a4.556 4.556 0 1 1 9.113 0M42.457 28.969c0-1.5 1.15-2.58 2.695-2.582.816 0 1.52.293 1.989.84l-.602.566a1.76 1.76 0 0 0-1.34-.586c-1.04 0-1.8.734-1.797 1.766 0 1.04.754 1.76 1.797 1.762.523 0 .977-.191 1.34-.594l.602.574c-.47.547-1.17.844-1.996.844-1.54-.004-2.69-1.09-2.688-2.59M49.145 28.969c0-1.48 1.15-2.58 2.707-2.582 1.56 0 2.71 1.09 2.707 2.582 0 1.5-1.15 2.59-2.707 2.586-1.56 0-2.71-1.1-2.707-2.586m4.473 0c0-1.03-.754-1.77-1.766-1.766-1.01 0-1.77.738-1.765 1.766s.753 1.77 1.765 1.766c1.01 0 1.77-.738 1.766-1.766M57.121 26.457h.934v4.234h2.625v.79H57.12zM62.539 28.969c0-1.48 1.15-2.58 2.707-2.582 1.56 0 2.71 1.09 2.707 2.582 0 1.5-1.14 2.59-2.707 2.586-1.56 0-2.71-1.1-2.707-2.586m4.473 0c0-1.03-.754-1.77-1.766-1.766-1.01 0-1.76.738-1.762 1.766s.754 1.77 1.762 1.766c1.02 0 1.77-.738 1.766-1.766M75.133 31.48l-.004-3.328-1.652 2.758h-.418l-1.652-2.715v3.285h-.891v-5.023h.77l1.996 3.328 1.96-3.328h.766l.008 5.023zM83.414 30.117c0 .863-.676 1.36-1.965 1.363h-2.5v-5.023h2.356c1.21 0 1.86.508 1.855 1.305 0 .52-.258.898-.648 1.105.539.172.902.598.902 1.25zm-3.531-2.93v1.387h1.32c.645 0 1.01-.23 1.012-.691 0-.47-.367-.695-1.012-.696zm2.59 2.836c0-.504-.383-.723-1.086-.722h-1.504v1.449h1.504c.703 0 1.09-.223 1.086-.727M85.988 26.457h.934v5.023h-.934zM93.105 30.316h-2.512l-.496 1.164h-.96l2.265-5.023h.918l2.265 5.023h-.976zm-.309-.727-.945-2.199-.941 2.2z"/></g></svg>