<?xml version="1.0" encoding="UTF-8"?>
<svg width="120px" height="22px" viewBox="0 0 120 22" version="1.1" xmlns="http://www.w3.org/2000/svg" xmlns:xlink="http://www.w3.org/1999/xlink">
    <title>Combined Shape</title>
    <g id="Page-1" stroke="none" stroke-width="1" fill="none" fill-rule="evenodd">
        <path d="M0.053999,0.297200571 C0.1198095,0.299500571 0.5146787,0.308500571 1.2386077,0.324200571 C1.9625342,0.340000571 2.6206503,0.349200571 3.2129583,0.351200571 C3.7546353,0.349000571 4.3857513,0.340000571 5.1063083,0.324200571 C5.8268563,0.308500571 6.2217283,0.299200571 6.2909183,0.297200571 L6.2909183,0.297200571 L6.3449183,0.351200571 L6.3449183,0.864200571 C6.3443483,0.930600571 6.3252283,0.980100571 6.2875483,1.01270057 C6.2498553,1.04530057 6.1969853,1.06790057 6.1289253,1.08020057 L6.1289253,1.08020057 L5.6699313,1.13420057 C5.0466843,1.20397057 4.6529403,1.32097057 4.4886963,1.48520057 C4.3243943,1.64946057 4.3221443,1.92846057 4.4818963,2.32219057 L4.4818963,2.32219057 L8.7478413,14.3370306 L8.8558403,14.3370306 L13.0678323,2.51122057 C13.2461333,2.00724057 13.2202583,1.65174057 12.9902123,1.44473057 C12.7601393,1.23775057 12.3900203,1.12523057 11.8798513,1.10723057 L11.8798513,1.10723057 L11.4478573,1.08023057 C11.3915983,1.07963057 11.3420983,1.06053057 11.2993583,1.02283057 C11.2565983,0.985160571 11.2340583,0.932310571 11.2318583,0.864210571 L11.2318583,0.864210571 L11.2318583,0.351210571 L11.2858583,0.297200571 C11.3437833,0.299510571 11.7071523,0.308510571 12.3759683,0.324210571 C13.0447593,0.340010571 13.6713763,0.349210571 14.2558203,0.351210571 C14.7727363,0.349010571 15.3048533,0.340010571 15.8521743,0.324210571 C16.3994633,0.308510571 16.6953383,0.299210571 16.7397883,0.297200571 L16.7397883,0.297200571 L16.7937883,0.351210571 L16.7937883,0.864210571 C16.7892713,1.00370057 16.7172723,1.07620057 16.5777913,1.08020057 C15.8549723,1.12916057 15.3296043,1.31478057 15.0016863,1.63707057 C14.6737383,1.95940057 14.4251163,2.36777057 14.2558213,2.86218057 L14.2558213,2.86218057 L8.7748913,17.4689906 C8.6955713,17.6720506 8.6044473,17.8261806 8.5015203,17.9313606 C8.3985753,18.0365906 8.2737023,18.0894206 8.1268993,18.0899906 C7.8523953,18.0854906 7.6453983,17.8784906 7.5059073,17.4689906 L7.5059073,17.4689906 L2.2679713,2.75420057 C2.0930337,2.19679057 1.8759118,1.79292057 1.6166047,1.54259057 C1.3572943,1.29230057 0.8904257,1.13822057 0.2159975,1.08022057 C0.159748,1.07962057 0.110248,1.06052057 0.067499,1.02282057 C0.024749,0.985150571 0.00225,0.932300571 0,0.864200571 L0,0.864200571 L0,0.351200571 Z M21.0975723,5.47350057 L21.1346853,5.51060057 L21.1346853,5.96519057 C21.1346853,6.07034057 21.0851923,6.12292057 20.9862443,6.12290057 L20.7172013,6.12290057 C20.3399183,6.12292057 20.0708753,6.19400057 19.9100723,6.33628057 C19.7554463,6.47236057 19.6781343,6.67956057 19.6781393,6.95786057 L19.6781393,16.3187006 C19.6781373,16.5970506 19.7554523,16.8073306 19.9100753,16.9495806 C20.0708783,17.0856506 20.3399213,17.1536906 20.7172043,17.1536906 L20.9862473,17.1536906 C21.0851973,17.1536906 21.1346853,17.2124906 21.1346853,17.3299506 L21.1346853,17.7659906 L21.0975753,17.8030906 C19.8296673,17.7783606 18.9699683,17.7659906 18.5184743,17.7659906 L15.9300953,17.8030906 L15.8929823,17.7659906 L15.8929823,17.3299506 C15.8929823,17.2124406 15.9424653,17.1536906 16.0414233,17.1536906 L16.3104663,17.1536906 C16.6939283,17.1536906 16.9629713,17.0918906 17.1175953,16.9681406 C17.2784003,16.8382606 17.3588043,16.6217906 17.3588063,16.3187206 L17.3588063,6.95788057 C17.3588043,6.65484057 17.2783963,6.44146057 17.1175953,6.31775057 C16.9629713,6.18788057 16.6939283,6.12294057 16.3104663,6.12292057 L16.0414233,6.12292057 C16.0043133,6.12294057 15.9702933,6.10742057 15.9393723,6.07652057 C15.9084523,6.04562057 15.8929823,6.00852057 15.8929823,5.96519057 L15.8929823,5.51060057 L15.9300923,5.47350057 C17.1608843,5.49820057 18.0236773,5.51060057 18.5184713,5.51060057 L21.0975723,5.47350057 Z M107.98088,10.1250906 C107.68612,10.1270906 107.48588,10.1025906 107.38013,10.0507906 C107.27438,9.99909057 107.24963,9.90680057 107.30593,9.77404057 L110.00589,2.91613057 L110.05989,2.91613057 L112.67886,10.1250406 L107.98088,10.1250906 Z M104.98392,15.6330206 L106.5499,11.7180706 C106.6078,11.5453906 106.7012,11.4250206 106.83002,11.3569506 C106.95882,11.2888506 107.18044,11.2562706 107.49488,11.2590506 L113.11081,11.2590506 L114.75779,15.8220006 C114.89277,16.1960506 114.86578,16.4739306 114.67679,16.6556106 C114.48778,16.8373006 114.13679,16.9464206 113.62381,16.9829806 L112.86781,17.0369806 C112.7373,17.0419806 112.67431,17.1134806 112.67882,17.2529806 L112.67882,17.7659706 L112.70582,17.8199706 C112.73262,17.8193006 112.97297,17.8149706 113.42681,17.8059706 C113.88062,17.7969706 114.38695,17.7886706 114.94579,17.7799706 C115.5046,17.7709706 115.95493,17.7666706 116.29677,17.7659706 C116.88794,17.7679706 117.54155,17.7771706 118.25762,17.7929706 C118.97366,17.8087706 119.36403,17.8177706 119.42873,17.8199706 L119.50973,17.7659706 L119.50973,17.2529806 C119.50673,17.1848806 119.47873,17.1320406 119.42533,17.0943506 C119.37183,17.0566506 119.31001,17.0375506 119.23971,17.0369506 L118.94272,17.0099506 C118.41058,16.9632506 117.98984,16.8203906 117.68048,16.5813306 C117.3711,16.3422706 117.12585,15.9631506 116.94474,15.4439706 L111.40981,0.810160571 C111.30855,0.540180571 111.20731,0.337680571 111.10607,0.202670571 C111.00481,0.0676805708 110.86306,8.28022268e-05 110.68082,8.28022268e-05 C110.48394,-0.00282942923 110.31744,0.0710705708 110.18133,0.222920571 C110.0452,0.374810571 109.9057,0.624550571 109.76283,0.972160571 L103.76891,15.0119806 C103.40329,15.8472806 103.02079,16.3906506 102.62143,16.6420806 C102.22206,16.8935106 101.73156,17.0251406 101.14995,17.0369506 C101.01045,17.0419506 100.93845,17.1134506 100.93395,17.2529506 L100.93395,17.7659406 L100.98795,17.8199706 C101.04535,17.8179406 101.36257,17.8087406 101.93969,17.7929406 C102.5168,17.7772406 103.00954,17.7682406 103.41792,17.7659406 C103.66624,17.7666106 104.07257,17.7709406 104.6369,17.7799406 C105.20122,17.7889406 105.72955,17.7972406 106.22188,17.8059406 C106.7142,17.8149406 106.97653,17.8192406 107.00887,17.8199706 L107.06287,17.7659406 L107.06287,17.2529506 C107.06087,17.1848506 107.03807,17.1320106 106.99537,17.0943206 C106.95257,17.0566206 106.90307,17.0375206 106.84687,17.0369206 L106.06388,16.9829206 C105.56495,16.9334206 105.22633,16.7826706 105.04802,16.5306806 C104.86971,16.2786806 104.84833,15.9794306 104.98392,15.6329406 L104.98392,15.6330206 Z M27.6722823,16.3187206 C27.6722783,16.5970506 27.7495923,16.8073306 27.9042163,16.9495806 C28.0650193,17.0856506 28.3340613,17.1536906 28.7113453,17.1536906 L28.9803883,17.1536906 C29.0793383,17.1536906 29.1288203,17.2124906 29.1288253,17.3299506 L29.1288253,17.7659906 L29.0917153,17.8030906 C27.8238083,17.7783606 26.9641083,17.7659906 26.5126143,17.7659906 L23.9242353,17.8030906 L23.8871223,17.7659906 L23.8871223,17.3299506 C23.8871223,17.2124406 23.9366053,17.1536906 24.0355633,17.1536906 L24.3046063,17.1536906 C24.6880683,17.1536906 24.9571113,17.0918906 25.1117343,16.9681406 C25.2725403,16.8382606 25.3529443,16.6217906 25.3529453,16.3187206 L25.3529453,6.95788057 C25.3529443,6.65484057 25.2725453,6.44146057 25.1117343,6.31775057 C24.9571113,6.18788057 24.6880683,6.12294057 24.3046063,6.12292057 L24.0355633,6.12292057 C23.9984533,6.12294057 23.9644333,6.10742057 23.9335123,6.07652057 C23.9025923,6.04562057 23.8871223,6.00852057 23.8871223,5.96519057 L23.8871223,5.51060057 L23.9242323,5.47345057 C25.1550253,5.49820057 26.0178173,5.51060057 26.5126113,5.51060057 L29.0731583,5.47345057 L29.1102683,5.51060057 L29.1102683,5.96519057 C29.1102623,6.07034057 29.0669683,6.12292057 28.9803853,6.12290057 L28.6927873,6.12290057 C28.3155043,6.12292057 28.0495533,6.19090057 27.8949363,6.32701057 C27.7464943,6.46308057 27.6722753,6.67337057 27.6722793,6.95786057 L27.6722793,10.7708506 L31.6244283,7.06919057 C31.6986383,6.99499057 31.7697653,6.91149057 31.8378073,6.81870057 C31.9058273,6.72590057 31.9584043,6.62698057 31.9955223,6.52183057 C32.0388023,6.41670057 32.0326223,6.33011057 31.9769723,6.26206057 C31.9213023,6.19406057 31.8099713,6.16002057 31.6429873,6.16001057 C31.1358183,6.16002057 30.8822383,6.08271057 30.8822453,5.92808057 L30.8822453,5.52915057 L30.9564653,5.47345057 C32.1563263,5.49815057 33.0036563,5.51055057 33.4984573,5.51055057 L35.7250203,5.47345057 L35.8177903,5.52915057 L35.8177903,5.92808057 C35.8177783,6.06416057 35.6291393,6.14147057 35.2518723,6.16001057 C34.5838923,6.26517057 33.8602603,6.68883057 33.0809743,7.43101057 L30.1400563,10.0936106 C29.7318463,10.4708906 29.4968213,10.7430306 29.4349783,10.9100106 C29.3731183,11.0770106 29.4380783,11.2656506 29.6298023,11.4759306 L34.1664233,16.3001506 C34.6797583,16.8444206 35.0663143,17.1165606 35.3260913,17.1165606 L35.6693533,17.1165606 C35.7621133,17.1165606 35.8301483,17.1255606 35.8734543,17.1443606 C35.9229243,17.1629606 35.9507543,17.1876606 35.9569543,17.2185606 C35.9693143,17.2494606 35.9755043,17.2927606 35.9755043,17.3484406 L35.9755043,17.7659206 L35.9105643,17.8030906 C34.7477923,17.7783606 33.9252023,17.7659906 33.4427903,17.7659906 L31.9398603,17.8030906 L31.8656403,17.7288906 L31.8656403,17.2371906 C31.8656313,17.0887506 31.8625403,16.9805206 31.8563403,16.9124806 C31.8501403,16.8444806 31.8254103,16.7640506 31.7821203,16.6712706 C31.7388203,16.5784706 31.6707833,16.4888206 31.5780183,16.4022306 L27.6722563,12.1810406 L27.6722563,16.3187306 M42.4203293,16.3187206 C42.4203253,16.5970506 42.4976393,16.8073306 42.6522633,16.9495806 C42.8130653,17.0856506 43.0821083,17.1536906 43.4593923,17.1536906 L43.7284353,17.1536906 C43.8273853,17.1536906 43.8768723,17.2124906 43.8768723,17.3299506 L43.8768723,17.7659906 L43.8397623,17.8030906 C42.5718553,17.7783606 41.7121553,17.7659906 41.2606613,17.7659906 L38.6722823,17.8030906 L38.6351693,17.7659906 L38.6351693,17.3299506 C38.6351693,17.2124406 38.6846523,17.1536906 38.7836093,17.1536906 L39.0526523,17.1536906 C39.4361153,17.1536906 39.7051573,17.0918906 39.8597813,16.9681406 C40.0205873,16.8382606 40.1009903,16.6217906 40.1009923,16.3187206 L40.1009923,6.95788057 C40.1009903,6.65484057 40.0205923,6.44146057 39.8597813,6.31775057 C39.7051573,6.18788057 39.4361153,6.12294057 39.0526523,6.12292057 L38.7836093,6.12292057 C38.7464993,6.12294057 38.7124793,6.10742057 38.6815593,6.07652057 C38.6506293,6.04562057 38.6351693,6.00852057 38.6351693,5.96519057 L38.6351693,5.51060057 L38.6722793,5.47350057 C39.9030723,5.49820057 40.7658643,5.51060057 41.2606583,5.51060057 L43.8397603,5.47350057 L43.8768723,5.51060057 L43.8768723,5.96519057 C43.8768723,6.07034057 43.8273903,6.12292057 43.7284333,6.12290057 L43.4593903,6.12290057 C43.0821063,6.12292057 42.8130633,6.19400057 42.6522613,6.33628057 C42.4976343,6.47236057 42.4203233,6.67956057 42.4203273,6.95786057 L42.4203273,16.3187006 M50.4144703,7.16199057 L50.4144703,11.6522206 C50.6742313,11.6893206 50.9896603,11.7079206 51.3607593,11.7079206 C52.1709743,11.7079206 52.7987413,11.4790906 53.2440603,11.0214006 C53.6955503,10.5637306 53.9213063,9.85556057 53.9213063,8.89689057 C53.9213063,7.04762057 53.1296323,6.12296057 51.5463063,6.12296057 C51.0824343,6.12296057 50.7762823,6.20336057 50.6278493,6.36417057 C50.4855923,6.52499057 50.4144703,6.79094057 50.4144703,7.16203057 M48.0951343,16.0775506 L48.0951343,7.12492057 C48.0951323,6.50025057 47.8786613,6.17864057 47.4457203,6.16007057 L46.8426923,6.12297057 C46.7004393,6.12299057 46.6293143,6.07037057 46.6293143,5.96526057 L46.6293143,5.51067057 L46.6664243,5.47357057 C47.0065923,5.47358057 47.7920733,5.45197057 49.0228693,5.40867057 C50.2598443,5.36537057 51.1535613,5.34377057 51.7040223,5.34377057 C52.3163203,5.34377057 52.8698683,5.39637057 53.3646663,5.50148057 C53.8656353,5.60048057 54.2800233,5.73961057 54.6078303,5.91896057 C54.9356213,6.09215057 55.2170333,6.28697057 55.4520683,6.50343057 C55.6870853,6.71373057 55.8664473,6.94567057 55.9901543,7.19924057 C56.1138423,7.45283057 56.2035233,7.69094057 56.2591973,7.91359057 C56.3148473,8.13007057 56.3426973,8.34964057 56.3426973,8.57228057 C56.3426973,8.95575057 56.2932073,9.32376057 56.1942603,9.67629057 C56.1014803,10.0288306 55.9344853,10.3782806 55.6932833,10.7246306 C55.4582483,11.0709906 55.1582813,11.3709506 54.7933813,11.6245306 C54.4346493,11.8781206 53.9676903,12.0822206 53.3925023,12.2368306 C52.8234853,12.3914606 52.1771643,12.4687706 51.4535373,12.4687706 C51.0020353,12.4687706 50.6556813,12.4471706 50.4144753,12.4038706 L50.4144753,16.0776906 C50.4144713,16.4240506 50.5041553,16.6745406 50.6835183,16.8291606 C50.8628753,16.9837806 51.1504723,17.0796506 51.5463113,17.1167606 L51.9081273,17.1538606 C52.0132653,17.1785606 52.0658363,17.2373606 52.0658423,17.3301206 L52.0658423,17.7661606 L52.0287323,17.8032606 C51.0886193,17.7783606 50.1639783,17.7659906 49.2548023,17.7659906 C48.4693183,17.7659906 47.6065263,17.7783906 46.6664233,17.8030906 L46.6293143,17.7659906 L46.6293143,17.3299506 C46.6293143,17.2495506 46.6787943,17.1908006 46.7777513,17.1536906 L47.0467943,17.1165906 C47.4488113,17.0608906 47.7240393,16.9619606 47.8724783,16.8197106 C48.0209133,16.6774606 48.0951323,16.4300606 48.0951343,16.0775206 M59.2435713,17.7659906 L59.1879083,17.7288906 L59.1879083,17.3114106 C59.1879083,17.1939006 59.2404813,17.1351406 59.3456263,17.1351406 L59.6053923,17.1351406 C59.9888543,17.1351406 60.2578973,17.0733406 60.4125213,16.9495906 C60.5733263,16.8197106 60.6537303,16.6032406 60.6537323,16.3001806 L60.6537323,6.95789057 C60.6537303,6.65485057 60.5733223,6.44147057 60.4125213,6.31776057 C60.2578973,6.18789057 59.9888543,6.12295057 59.6053923,6.12293057 L59.3456263,6.12293057 C59.3023263,6.12295057 59.2652263,6.10743057 59.2342983,6.07653057 C59.2033683,6.04563057 59.1879083,6.00853057 59.1879083,5.96520057 L59.1879083,5.52916057 L59.2435683,5.49206057 L68.1034323,5.49206057 C68.1776423,6.58062057 68.3106163,7.60731057 68.5023573,8.57214057 L67.7416153,8.73913057 C67.6735753,8.49793057 67.6086313,8.29074057 67.5467913,8.11755057 C67.4911213,7.93820057 67.4045303,7.73101057 67.2870253,7.49597057 C67.1695043,7.26095057 67.0427143,7.06922057 66.9066543,6.92078057 C66.7767633,6.76616057 66.6066793,6.63628057 66.3964003,6.53113057 C66.1922913,6.41981057 65.9696353,6.36415057 65.7284323,6.36413057 L63.2513813,6.36413057 C63.0781993,6.36415057 62.9916113,6.54969057 62.9916153,6.92078057 L62.9916153,10.8265406 L65.1346823,10.8265406 C65.2460033,10.8265406 65.3387773,10.7987406 65.4130023,10.7430406 C65.4934023,10.6812406 65.5583403,10.5760606 65.6078263,10.4276106 C65.6572963,10.2791806 65.6913163,10.1462106 65.7098773,10.0286906 C65.7346073,9.91118057 65.7655373,9.72873057 65.8026473,9.48132057 C65.8026403,9.43802057 65.8304673,9.39472057 65.8861473,9.35144057 C65.9479873,9.30194057 66.0222073,9.27724057 66.1088033,9.27724057 L66.5077293,9.27724057 L66.6190573,9.46279057 C66.5324573,10.1740606 66.4891663,10.7616206 66.4891743,11.2254806 C66.4891663,11.6522506 66.5324643,12.2429006 66.6190573,12.9974606 L66.5077293,13.1644506 L66.1088033,13.1644506 C66.0160233,13.1644506 65.9418033,13.1458506 65.8861473,13.1087506 C65.8304773,13.0654506 65.8026473,13.0221506 65.8026473,12.9788706 C65.7655273,12.7314806 65.7346073,12.5490306 65.7098773,12.4315106 C65.6913173,12.3078106 65.6572973,12.1717506 65.6078263,12.0233006 C65.5583363,11.8748706 65.4933993,11.7728206 65.4130023,11.7171506 C65.3387823,11.6553506 65.2460033,11.6243506 65.1346823,11.6243506 L62.9916153,11.6243506 L62.9916153,16.3372406 C62.9916113,16.5475306 63.0132553,16.6928706 63.0565553,16.7732706 C63.0998453,16.8536706 63.1647863,16.8938806 63.2513793,16.8938806 L66.1644653,16.8938806 C66.6592493,16.8938806 67.0798213,16.6619506 67.4261843,16.1980806 C67.7787143,15.7280306 68.0415713,15.1157206 68.2147583,14.3611606 L69.0311643,14.5559906 C68.8084983,15.7434906 68.6384133,16.8134806 68.5209103,17.7659906 L59.2435663,17.7659906 M75.1234543,16.3372806 C75.1234543,16.5352006 75.1574643,16.6774506 75.2255053,16.7640406 C75.2997153,16.8506406 75.4481573,16.9124806 75.6708173,16.9495806 C75.8996543,16.9866806 76.2676553,17.0052806 76.7748213,17.0052806 C77.2943463,17.0052806 77.7643983,16.9650806 78.1849783,16.8846706 C78.6117283,16.8042706 79.0261153,16.6589206 79.4281423,16.4486406 C79.8301513,16.2321706 80.1672283,15.9538506 80.4393723,15.6136806 C80.7176833,15.2735106 80.9372463,14.8282006 81.0980643,14.2777406 C81.2650453,13.7272906 81.3485523,13.0902406 81.3485523,12.3666106 C81.3485523,11.7666806 81.2928823,11.1883906 81.1815603,10.6317406 C81.0764063,10.0689206 80.8970443,9.51847057 80.6434743,8.98038057 C80.3898843,8.44230057 80.0744543,7.97534057 79.6971853,7.57950057 C79.3198983,7.17749057 78.8405693,6.85587057 78.2591963,6.61465057 C77.6778093,6.37345057 77.0253043,6.25284057 76.3016773,6.25284057 C75.8996543,6.25284057 75.6027793,6.29614057 75.4110523,6.38272057 C75.2193163,6.46312057 75.1234543,6.64250057 75.1234543,6.92081057 L75.1234543,16.3373106 M71.3754073,17.7659906 L71.3382943,17.7288906 L71.3382943,17.3114106 C71.3382943,17.1939006 71.3877773,17.1351406 71.4867343,17.1351406 L71.7557773,17.1351406 C72.1392403,17.1351406 72.4082823,17.0733406 72.5629063,16.9495906 C72.7237123,16.8197106 72.8041153,16.6032406 72.8041173,16.3001806 L72.8041173,6.95789057 C72.8041153,6.65485057 72.7237173,6.44147057 72.5629063,6.31776057 C72.4082823,6.18789057 72.1392403,6.12295057 71.7557773,6.12293057 L71.4867343,6.12293057 C71.4496243,6.12295057 71.4156043,6.10743057 71.3846843,6.07653057 C71.3537643,6.04563057 71.3382943,6.00853057 71.3382943,5.96520057 L71.3382943,5.52916057 L71.3754043,5.49206057 L76.9974753,5.49206057 C78.2591863,5.49206057 79.4157603,5.77967057 80.4672013,6.35486057 C81.5248083,6.93006057 82.3535833,7.70936057 82.9535293,8.69275057 C83.5596363,9.66997057 83.8627093,10.7368606 83.8627093,11.8934306 C83.8627093,12.7902506 83.7235363,13.5911906 83.4452293,14.2962606 C83.1730813,14.9951606 82.8205423,15.5579806 82.3876113,15.9847406 C81.9546583,16.4115006 81.4413123,16.7640406 80.8475723,17.0423606 C80.2599983,17.3144906 79.6817113,17.5031306 79.1127093,17.6082806 C78.5436943,17.7134206 77.9530373,17.7659906 77.3407393,17.7659906 L71.3754073,17.7659906 M90.2797043,16.3187206 C90.2797003,16.5970506 90.3570143,16.8073306 90.5116383,16.9495806 C90.6724403,17.0856506 90.9414833,17.1536906 91.3187673,17.1536906 L91.5878103,17.1536906 C91.6867603,17.1536906 91.7362473,17.2124906 91.7362473,17.3299506 L91.7362473,17.7659906 L91.6991373,17.8030906 C90.4312303,17.7783606 89.5715303,17.7659906 89.1200363,17.7659906 L86.5316573,17.8030906 L86.4945443,17.7659906 L86.4945443,17.3299506 C86.4945443,17.2124406 86.5440273,17.1536906 86.6429843,17.1536906 L86.9120273,17.1536906 C87.2954903,17.1536906 87.5645323,17.0918906 87.7191563,16.9681406 C87.8799623,16.8382606 87.9603653,16.6217906 87.9603673,16.3187206 L87.9603673,6.95788057 C87.9603653,6.65484057 87.8799673,6.44146057 87.7191563,6.31775057 C87.5645323,6.18788057 87.2954903,6.12294057 86.9120273,6.12292057 L86.6429843,6.12292057 C86.6058743,6.12294057 86.5718543,6.10742057 86.5409343,6.07652057 C86.5100143,6.04562057 86.4945443,6.00852057 86.4945443,5.96519057 L86.4945443,5.51060057 L86.5316543,5.47350057 C87.7624473,5.49820057 88.6252393,5.51060057 89.1200333,5.51060057 L91.6991353,5.47350057 L91.7362473,5.51060057 L91.7362473,5.96519057 C91.7362473,6.07034057 91.6867553,6.12292057 91.5878083,6.12290057 L91.3187653,6.12290057 C90.9414813,6.12292057 90.6724383,6.19400057 90.5116363,6.33628057 C90.3570093,6.47236057 90.2796983,6.67956057 90.2797023,6.95786057 L90.2797023,16.3187006 M94.9525603,20.0853306 C95.0948103,20.0853206 95.2246903,20.0605306 95.3422003,20.0111306 C95.4597203,19.9678306 95.5834103,19.8657806 95.7133003,19.7049706 C95.8493603,19.5503506 95.9606903,19.3369706 96.0472803,19.0648406 C96.1400803,18.7988906 96.2142703,18.4216106 96.2699403,17.9330006 C96.3317403,17.4505806 96.3627403,16.8815706 96.3627403,16.2259706 L96.3627403,7.23622057 C96.3627403,6.79711057 96.2668403,6.51260057 96.0751403,6.38271057 C95.8896003,6.25284057 95.5370603,6.17243057 95.0175303,6.14150057 L94.6371603,6.12290057 C94.5196403,6.12292057 94.4608903,6.07030057 94.4608903,5.96519057 L94.4608903,5.51060057 L94.4979903,5.47350057 C95.6854803,5.49820057 96.5606503,5.51060057 97.1234703,5.51060057 C97.9460603,5.51061057 98.9511103,5.49820057 100.13861,5.47350057 L100.18501,5.51060057 L100.18501,5.96519057 C100.18501,6.07034057 100.13241,6.12292057 100.02729,6.12290057 L99.7025903,6.14150057 C99.3191203,6.16010057 99.0531703,6.23120057 98.9047303,6.35488057 C98.7562903,6.47859057 98.6820703,6.67960057 98.6820803,6.95790057 L98.6820803,15.8084906 C98.6820703,16.9465106 98.5150803,17.8742506 98.1811003,18.5916906 C97.8533003,19.3091406 97.3863403,19.9090706 96.7802203,20.3915006 C96.4091303,20.7007406 95.9669103,20.9172106 95.4535603,21.0409106 C94.9464003,21.1646106 94.5072703,21.2264606 94.1361803,21.2264606 C93.7650903,21.2264606 93.4311003,21.1924606 93.1342303,21.1244106 C92.8373503,21.0564106 92.5837703,20.9264906 92.3734803,20.7347606 C92.1570143,20.5492106 92.0487773,20.3141806 92.0487773,20.0296806 C92.0487773,19.7761006 92.1601073,19.5596306 92.3827603,19.3802706 C92.5992303,19.2009006 92.8095203,19.1112206 93.0136203,19.1112206 C93.2548303,19.1112206 93.4651203,19.1483206 93.6444803,19.2225506 C93.8300303,19.2967506 93.9630003,19.3740806 94.0434103,19.4544906 C94.1300103,19.5410906 94.2258603,19.6554906 94.3310003,19.7977506 C94.4732603,19.9894806 94.6804503,20.0853406 94.9525903,20.0853506" id="Combined-Shape" fill="#000000" fill-rule="nonzero"></path>
    </g>
</svg>