<svg xmlns="http://www.w3.org/2000/svg" width="119" height="18"><path fill="#000" fill-rule="nonzero" d="M17.545.036h.817l.19.001h.354l.161.001h.287l.123.001.323.001h.044l.057.052v.496c0 .137-.077.205-.229.205-.746.035-.899.11-1.172.502-.149.214-.443.675-.748 1.193l-2.618 4.896-.016.033-.057.119 3.199 6.55.194.052 5.04-11.96c.175-.483.148-.825-.077-1.026-.226-.195-.385-.312-.969-.336l-.473-.023a.272.272 0 0 1-.166-.06.172.172 0 0 1-.079-.146V.09l.072-.05h5.694l.058.05v.498c0 .135-.077.203-.229.203-.746.033-1.299.195-1.657.484-.359.291-.639.691-.84 1.213 0 0-1.741 3.985-3.454 7.882l-.27.614a902.684 902.684 0 0 1-2.497 5.64c-.607 1.155-1.204 1.05-1.729-.034-.634-1.305-1.925-4.127-2.916-6.306l-.11-.242c-1.071 2.212-2.54 5.21-3.268 6.561-.708 1.231-1.291 1.07-1.755.032C7.218 12.834 3.91 6.16 2.353 2.42c-.288-.689-.505-1.13-.71-1.306C1.437.94 1.009.836.358.801.119.775 0 .717 0 .623v-.52L.058.05.428.05H.76L.95.048h4L5.15.05l.984.001H6.248l.058.051v.496c0 .137-.087.203-.258.203l-.646.027c-.554.023-.831.19-.831.496 0 .143.058.376.187.688 1.24 3.022 5.523 12.053 5.523 12.053l.157.041 2.76-5.507-.552-1.223-1.898-3.73s-.367-.746-.492-.994C9.422 1 9.44.912 8.597.8 8.361.77 8.239.74 8.239.622V.1L8.31.05l.158-.001L9.614.047h3.608l.13.042V.61c0 .12-.085.18-.258.18l-.356.051c-.9.07-.753.438-.155 1.63l1.821 3.724 2.014-4.017c.313-.682.276-.89.158-1.052l-.029-.037c-.08-.095-.348-.249-.931-.272l-.229-.025a.273.273 0 0 1-.165-.059.17.17 0 0 1-.078-.146V.091l.071-.05c.344-.003.792-.005 1.273-.005Zm11.102 5.267c.702 0 2.704-.052 2.704-.052l.026.052v.572c0 .078-.052.13-.156.13l-.546.053c-.806.077-1.092.286-1.092.807v8.658c0 .572.26.91 1.092.988l.546.053c.078 0 .156.051.156.155v.546l-.026.053s-1.8-.048-2.665-.053h-.117c-.728 0-2.756.053-2.756.053l-.052-.053v-.546c0-.104.078-.155.182-.155l.52-.053c.858-.078 1.118-.494 1.118-.988V6.865c0-.57-.313-.729-1.118-.805l-.52-.054c-.104 0-.182-.024-.182-.104v-.599l.026-.052s2.054.052 2.86.052Zm8.609 10.22c0 .572.338.858 1.092.988l.286.053c.078.025.156.051.156.155v.546l-.026.053s-1.638-.053-2.418-.053c-.728 0-2.86.053-2.86.053l-.052-.053v-.546c0-.104.078-.155.182-.155l.52-.053c.78-.078 1.118-.494 1.118-.988V6.865c0-.57-.286-.729-1.118-.805l-.52-.054c-.104 0-.182-.024-.182-.104v-.599l.026-.052s2.132.052 2.938.052c.729 0 2.366-.052 2.366-.052l.026.052v.572c0 .078-.052.104-.156.13l-.286.053c-.806.155-1.092.286-1.092.807v3.927c.858 0 1.352-.44 2.496-1.664 1.04-1.146 1.846-2.104 1.846-2.6 0-.21-.234-.442-.754-.522-.104-.024-.156-.052-.156-.13v-.6l.026-.024s2.106.052 2.86.052c.676 0 1.82-.052 1.82-.052l.078.024v.6c0 .078-.078.13-.208.13-1.014.078-1.716.13-2.652 1.196l-2.236 2.572c-.442.47-.598.754-.598.963 0 .156.104.285.234.441l3.926 4.732c.312.363.936.52 1.456.623l.13.025c.078.025.182.077.182.155v.546l-.078.026s-1.378-.026-2.106-.026c-.65 0-1.586.026-1.586.026l-.026-.026v-.312c0-.339-.026-.623-.39-1.039l-2.886-3.589c-.39-.52-.806-.649-1.378-.649v3.853Zm14.017 0c0 .572.26.91 1.092.988l.546.053c.078 0 .156.051.156.155v.546l-.026.053s-1.976-.053-2.782-.053c-.728 0-2.756.053-2.756.053l-.052-.053v-.546c0-.104.078-.155.182-.155l.52-.053c.858-.078 1.118-.494 1.118-.988V6.865c0-.57-.312-.729-1.118-.805l-.52-.054c-.104 0-.182-.024-.182-.104v-.599l.026-.052s2.054.052 2.86.052c.702 0 2.704-.052 2.704-.052l.026.052v.572c0 .078-.052.13-.156.13l-.546.053c-.806.077-1.092.286-1.092.807v8.658Zm5.618-8.607c0-.806-.338-.832-1.56-.91-.156 0-.182-.077-.182-.13v-.598l.052-.026c.39 0 1.924.052 2.678.052.728 0 1.768-.052 2.73-.052 3.69 0 4.366 1.82 4.366 3.173 0 1.561-.754 4.004-4.444 4.004-.65 0-1.17-.053-1.639-.26v3.482c0 .571.312.703 1.145.832l.521.078c.104.025.183.053.183.155v.546l-.024.053s-2.081-.053-2.887-.053c-.728 0-2.678.053-2.678.053l-.026-.053v-.546c0-.104.052-.13.156-.155l.546-.078c.806-.104 1.066-.338 1.066-.832l-.003-8.735Zm2.002 4.525c.52.21 1.17.234 1.69.234 1.561 0 2.312-.938 2.312-2.938 0-2.236-1.014-2.73-2.442-2.73-1.249 0-1.561.234-1.561.91l.001 4.524Zm20.338 5.123.598-.053c.781-.078 1.041-.312 1.041-1.117v-8.58c0-.678-.184-.678-1.041-.754l-.57-.054c-.104 0-.184-.052-.184-.13v-.572l.025-.052s2.289.052 2.758.052c.492 0 2.756-.052 3.432-.052 4.342 0 6.475 2.704 6.475 6.162 0 4.551-3.225 5.901-6.109 5.901-2.08 0-2.989-.053-3.795-.053-.781 0-2.758.053-2.758.053l-.025-.053v-.546a.145.145 0 0 1 .153-.152Zm5.799 0c2.859 0 4.473-1.064 4.473-4.707 0-2.703-.599-5.85-4.967-5.85-1.014 0-1.664.155-1.664.807v8.58c0 .726.181 1.17 2.158 1.17Zm12.873-1.04c0 .571.26.91 1.092.987l.546.053c.078 0 .156.051.156.155v.546l-.026.053s-1.976-.053-2.781-.053c-.729 0-2.756.053-2.756.053l-.053-.053v-.546c0-.104.078-.155.182-.155l.521-.053c.857-.078 1.118-.494 1.118-.988V6.865c0-.57-.313-.729-1.118-.805l-.521-.054c-.104 0-.182-.024-.182-.104v-.599l.026-.052s2.054.052 2.858.052c.701 0 2.705-.052 2.705-.052l.024.052v.572c0 .078-.054.13-.156.13l-.546.053c-.807.077-1.092.286-1.092.807l.003 8.658Zm8.01.987.754.053c.104 0 .208.078.208.207v.494l-.052.053s-2.834-.053-3.458-.053c-.677 0-2.341.053-2.341.053l-.053-.053v-.494c0-.129.078-.207.209-.207 1.145-.078 1.793-.287 2.521-1.95l5.771-13.522c.285-.676.494-.937.886-.937.362 0 .493.261.7.781l5.33 14.092c.365 1.015.886 1.404 1.926 1.508l.285.025c.131 0 .261.077.261.21v.491l-.078.053s-2.002-.053-3.017-.053a275 275 0 0 0-3.459.053l-.024-.053v-.492c0-.132.052-.209.185-.209l.728-.053c.987-.077 1.353-.39 1.092-1.117l-1.586-4.396h-5.41c-.624 0-.78.104-.909.44l-1.509 3.771c-.26.654.078 1.227 1.04 1.305Zm6.37-6.606-2.522-6.94h-.052l-2.6 6.603c-.104.262.077.338.649.338h4.525Zm-42.83 7.36c-.78 0-2.573.053-2.573.053l-.027-.053v-.572c0-.05.027-.129.156-.129l.6-.053c.807-.078 1.041-.598 1.041-1.117v-8.58c0-.6-.312-.703-1.041-.754l-.6-.054c-.156-.024-.156-.077-.156-.104v-.599l.027-.052s2.027.052 2.807.052h3.822c.78 0 2.627-.052 2.627-.052l.054.052c.024 1.118.206 2.134.39 3.121l-.648.104c-.285-.963-.779-2.34-2.443-2.34h-2.08c-.494 0-.754.182-.754.623v3.771h1.949c.729 0 .91-.312 1.015-.832l.155-.546c0-.078.053-.13.156-.13h.44c.054 0 .054.026.054.077-.054.571-.156 1.301-.156 1.925 0 .65.104 1.196.156 1.794l-.054.053h-.44c-.129 0-.184-.053-.184-.13l-.13-.572c-.104-.52-.338-.807-1.017-.807h-1.948v3.98c0 .491.283.985.754.985h2.47c1.326 0 2.056-.832 2.366-2.186l.648.078-.521 2.99-.052.051s-1.534-.052-2.314-.052l-4.549.005ZM72.764 0c.156 0 .779.026 1.337.597l.073.285L71.38 3.71c-.365.388-.558.493-.73.493a.354.354 0 0 1-.34-.338c0-.29.08-.394.277-.727L72.424.051c.074-.024.219-.051.34-.051Z"/></svg>