<svg width="120" height="15" viewBox="0 0 120 15" fill="none" xmlns="http://www.w3.org/2000/svg">
<path d="M4.62089 1.14308C5.71258 1.14438 6.60585 1.55113 7.3007 2.36332C7.99552 3.17553 8.3544 4.38544 8.37733 5.9931C8.35833 7.38678 8.05839 8.46864 7.47752 9.23868C6.89662 10.0087 6.14874 10.3994 5.23387 10.4106C4.2535 10.401 3.3969 9.99168 2.66409 9.1827C1.93126 8.37372 1.54619 7.223 1.50886 5.73052C1.54914 4.1203 1.88902 2.95026 2.52852 2.22043C3.16802 1.49063 3.86547 1.1315 4.62089 1.14308ZM1.60317 13.1446L2.21614 13.4535C2.38674 13.1047 2.58779 12.864 2.81929 12.7314C3.05079 12.5988 3.2322 12.5358 3.36351 12.5422C3.84133 12.5603 4.295 12.6871 4.72451 12.9226C5.15401 13.1581 5.61583 13.3936 6.10996 13.6291C6.60408 13.8646 7.18698 13.9914 7.85866 14.0096C8.34785 14.0108 8.77222 13.9079 9.13176 13.7006C9.49129 13.4934 9.82135 13.1742 10.122 12.743L9.85476 12.5576C9.67498 12.7639 9.46083 12.9113 9.21231 12.9998C8.96377 13.0883 8.72212 13.1314 8.48735 13.1291C8.02979 13.1135 7.57399 13.004 7.11995 12.8008C6.66588 12.5975 6.19262 12.3942 5.70015 12.1909C5.20767 11.9877 4.67502 11.8782 4.10222 11.8626C4.00739 11.8626 3.90313 11.8703 3.78945 11.8857C4.18119 11.6082 4.55566 11.3863 4.91284 11.22C5.27001 11.0537 5.57925 10.9353 5.84056 10.8648C7.09283 10.6492 8.07673 10.0841 8.79227 9.16956C9.50779 8.25503 9.87243 7.0984 9.88619 5.69965C9.84722 4.1499 9.34754 2.92067 8.38715 2.01192C7.42675 1.1032 6.23944 0.638526 4.82522 0.617924C3.3933 0.652681 2.23742 1.17013 1.35758 2.17024C0.477741 3.17038 0.025212 4.44466 0 5.9931C0.0280286 7.40393 0.440346 8.53645 1.23695 9.39063C2.03356 10.2448 3.04628 10.7475 4.27511 10.8987C3.70139 11.2011 3.18004 11.5552 2.71104 11.9608C2.24204 12.3665 1.87275 12.7611 1.60317 13.1446ZM11.8537 1.52923C11.8616 1.73842 11.9401 1.92246 12.0895 2.08141C12.2388 2.24038 12.4117 2.32406 12.6081 2.33242C12.8347 2.3219 13.0259 2.23909 13.1818 2.08394C13.3377 1.92881 13.4189 1.76449 13.4254 1.59101C13.4205 1.39537 13.3478 1.21517 13.2074 1.0504C13.0669 0.885663 12.8881 0.798128 12.671 0.787827C12.4719 0.795559 12.2885 0.872785 12.1209 1.01951C11.9532 1.16625 11.8642 1.33617 11.8537 1.52923ZM13.284 8.89695V5.81857C13.2866 5.40955 13.2971 5.02089 13.3154 4.6526C13.3337 4.28432 13.3442 4.08757 13.3468 4.06236C13.3462 4.03084 13.3279 4.00509 13.2918 3.98513C13.2558 3.96519 13.206 3.9549 13.1425 3.95425C12.9246 4.03856 12.6453 4.11707 12.3046 4.1898C11.9639 4.26252 11.5254 4.33333 10.9892 4.40218C10.9748 4.45496 10.9722 4.52704 10.9814 4.61841C10.9906 4.70981 11.0037 4.7819 11.0207 4.83466C11.438 4.85787 11.7154 4.93273 11.8527 5.05922C11.9901 5.18571 12.0533 5.46096 12.0423 5.88498V8.89695C12.0551 9.51157 11.9863 9.89643 11.836 10.0515C11.6857 10.2066 11.3773 10.2903 10.9107 10.3025C10.8635 10.3585 10.8399 10.4435 10.8399 10.5574C10.8399 10.6713 10.8635 10.7563 10.9107 10.8122C11.2296 10.8042 11.5191 10.7971 11.779 10.791C12.039 10.7849 12.3364 10.7817 12.671 10.7813C12.9971 10.7817 13.2879 10.7849 13.5433 10.791C13.7987 10.7971 14.0895 10.8042 14.4156 10.8122C14.4628 10.7563 14.4863 10.6713 14.4864 10.5574C14.4863 10.4435 14.4628 10.3585 14.4156 10.3025C13.949 10.297 13.6406 10.2153 13.4903 10.0573C13.34 9.89932 13.2712 9.51254 13.284 8.89695ZM15.4606 8.6498C15.4927 9.02919 15.5189 9.39797 15.5392 9.75611C15.5595 10.1143 15.57 10.456 15.5707 10.7813C15.6509 10.7659 15.7262 10.7543 15.7966 10.7466C15.867 10.7389 15.9227 10.735 15.9636 10.735C16.0179 10.7344 16.0703 10.7357 16.1208 10.7389C16.1712 10.7421 16.2236 10.7511 16.2779 10.7659C16.4868 10.8203 16.7056 10.8621 16.9341 10.8914C17.1627 10.9207 17.4207 10.9355 17.7082 10.9358C18.1974 10.9503 18.7239 10.8171 19.2878 10.5361C19.8517 10.2552 20.1581 9.73972 20.2073 8.98963C20.1972 8.46717 20.024 8.042 19.6874 7.71417C19.3509 7.38632 18.9112 7.12568 18.3683 6.93222C17.8903 6.77153 17.5104 6.59481 17.2288 6.40204C16.9472 6.2093 16.8032 5.90823 16.7966 5.49884C16.809 5.18059 16.9256 4.93667 17.1463 4.76708C17.367 4.59751 17.6172 4.51191 17.8968 4.51029C18.0962 4.4881 18.3575 4.5634 18.6807 4.73621C19.0039 4.90901 19.2298 5.31253 19.3585 5.94677C19.4148 5.99246 19.4987 6.01306 19.61 6.00855C19.7213 6.00404 19.8052 5.97831 19.8615 5.93133C19.8644 5.6517 19.8782 5.37302 19.9027 5.0953C19.9273 4.8176 19.945 4.55053 19.9558 4.29406C19.7079 4.24804 19.406 4.18947 19.0501 4.11835C18.6941 4.04724 18.3097 4.008 17.8968 4.00058C17.2956 4.0109 16.7809 4.17565 16.3526 4.49486C15.9243 4.81408 15.7003 5.22596 15.6807 5.73052C15.6771 6.28047 15.8139 6.70973 16.0913 7.01832C16.3686 7.32692 16.8081 7.59787 17.4096 7.83117C18.0457 8.08518 18.4756 8.32089 18.6992 8.53822C18.9228 8.75556 19.0273 9.02444 19.0127 9.34488C18.9934 9.72105 18.8435 9.99586 18.5628 10.1693C18.2822 10.3427 17.9869 10.4283 17.6768 10.4261C17.3719 10.4213 17.129 10.3807 16.9479 10.3045C16.7668 10.2282 16.6378 10.1452 16.5608 10.0554C16.3762 9.86488 16.2386 9.63191 16.1483 9.35645C16.0579 9.081 15.9911 8.8403 15.9479 8.63435C15.8922 8.58867 15.811 8.56807 15.7043 8.57258C15.5975 8.57709 15.5163 8.60282 15.4606 8.6498ZM23.4736 5.60695C23.7242 5.35339 23.9923 5.14229 24.2779 4.97367C24.5635 4.80506 24.8246 4.71753 25.061 4.71109C25.5791 4.72106 26.0165 4.97915 26.3734 5.48532C26.7303 5.9915 26.9163 6.68592 26.9314 7.56859C26.9491 8.24115 26.7998 8.87313 26.4835 9.46457C26.1671 10.056 25.5777 10.3714 24.7153 10.4106C24.5627 10.4126 24.3767 10.3894 24.1573 10.341C23.9379 10.2925 23.7519 10.2071 23.5993 10.0847C23.4454 9.95939 23.343 9.84013 23.2923 9.72696C23.2415 9.61379 23.2181 9.42465 23.2221 9.15953V6.28658C23.22 6.12909 23.2368 6.00078 23.2724 5.9016C23.308 5.80243 23.3751 5.70421 23.4736 5.60695ZM23.3479 5.09724C23.32 5.1238 23.2877 5.13596 23.251 5.13373C23.2143 5.13152 23.1942 5.10392 23.1907 5.05091C23.1933 4.76645 23.2038 4.53218 23.2221 4.34811C23.2405 4.16405 23.2509 4.06881 23.2536 4.06236C23.2529 4.03084 23.2346 4.00509 23.1985 3.98513C23.1625 3.96519 23.1127 3.9549 23.0492 3.95425C22.8361 4.03856 22.563 4.11707 22.23 4.1898C21.897 4.26252 21.4628 4.33333 20.9274 4.40218C20.913 4.45496 20.9104 4.52704 20.9195 4.61841C20.9287 4.70981 20.9418 4.7819 20.9588 4.83466C21.3727 4.85719 21.6491 4.93183 21.7879 5.05862C21.9267 5.18541 21.9909 5.46087 21.9805 5.88498V12.4804C21.9932 13.0969 21.9245 13.4857 21.7742 13.6466C21.6239 13.8075 21.3154 13.8873 20.8488 13.886C20.8017 13.942 20.7781 14.0269 20.7781 14.1408C20.7781 14.2547 20.8017 14.3397 20.8488 14.3957C21.1677 14.3876 21.4572 14.3806 21.7172 14.3745C21.9772 14.3683 22.2745 14.3651 22.6091 14.3648C22.9693 14.3651 23.2942 14.3683 23.5836 14.3745C23.8731 14.3806 24.1822 14.3876 24.5109 14.3957C24.5581 14.3397 24.5817 14.2547 24.5817 14.1408C24.5817 14.0269 24.5581 13.942 24.5109 13.886C23.969 13.8805 23.6147 13.7988 23.4481 13.6408C23.2814 13.4828 23.2061 13.096 23.2221 12.4804V10.8122C23.2213 10.7155 23.2379 10.663 23.272 10.6547C23.3061 10.6464 23.3629 10.6603 23.4422 10.6964C23.6366 10.7733 23.8505 10.8323 24.084 10.8734C24.3175 10.9146 24.5594 10.9354 24.8096 10.9358C25.2506 10.9374 25.6652 10.8686 26.0532 10.7292C26.4412 10.5899 26.7968 10.3704 27.12 10.0708C27.4917 9.71653 27.7778 9.29757 27.9786 8.81392C28.1793 8.33028 28.2808 7.77614 28.2831 7.15154C28.2674 6.30396 28.0041 5.57413 27.4933 4.96208C26.9825 4.35004 26.3184 4.02956 25.5011 4.00058C25.2012 4.00188 24.858 4.09584 24.4716 4.28247C24.0853 4.46911 23.7107 4.74071 23.3479 5.09724ZM30.3034 1.52923C30.3112 1.73842 30.3898 1.92246 30.5391 2.08141C30.6884 2.24038 30.8613 2.32406 31.0578 2.33242C31.2844 2.3219 31.4756 2.23909 31.6315 2.08394C31.7873 1.92881 31.8686 1.76449 31.8751 1.59101C31.8702 1.39537 31.7975 1.21517 31.657 1.0504C31.5165 0.885663 31.3378 0.798128 31.1207 0.787827C30.9216 0.795559 30.7382 0.872785 30.5706 1.01951C30.4029 1.16625 30.3138 1.33617 30.3034 1.52923ZM31.7336 8.89695V5.81857C31.7363 5.40955 31.7467 5.02089 31.7651 4.6526C31.7834 4.28432 31.7939 4.08757 31.7965 4.06236C31.7959 4.03084 31.7775 4.00509 31.7415 3.98513C31.7055 3.96519 31.6557 3.9549 31.5922 3.95425C31.3743 4.03856 31.095 4.11707 30.7543 4.1898C30.4136 4.26252 29.9751 4.33333 29.4389 4.40218C29.4245 4.45496 29.4219 4.52704 29.4311 4.61841C29.4402 4.70981 29.4533 4.7819 29.4704 4.83466C29.8877 4.85787 30.165 4.93273 30.3024 5.05922C30.4397 5.18571 30.5029 5.46096 30.492 5.88498V8.89695C30.5047 9.51157 30.436 9.89643 30.2857 10.0515C30.1354 10.2066 29.8269 10.2903 29.3603 10.3025C29.3132 10.3585 29.2896 10.4435 29.2896 10.5574C29.2896 10.6713 29.3132 10.7563 29.3603 10.8122C29.6793 10.8042 29.9687 10.7971 30.2287 10.791C30.4887 10.7849 30.786 10.7817 31.1207 10.7813C31.4468 10.7817 31.7376 10.7849 31.993 10.791C32.2484 10.7971 32.5392 10.8042 32.8653 10.8122C32.9124 10.7563 32.936 10.6713 32.936 10.5574C32.936 10.4435 32.9124 10.3585 32.8653 10.3025C32.3987 10.297 32.0902 10.2153 31.9399 10.0573C31.7896 9.89932 31.7209 9.51254 31.7336 8.89695ZM38.4998 1.52923C38.5077 1.73842 38.5863 1.92246 38.7356 2.08141C38.8849 2.24038 39.0578 2.32406 39.2542 2.33242C39.4808 2.3219 39.6721 2.23909 39.8279 2.08394C39.9838 1.92881 40.065 1.76449 40.0715 1.59101C40.0666 1.39537 39.9939 1.21517 39.8535 1.0504C39.713 0.885663 39.5342 0.798128 39.3171 0.787827C39.118 0.795559 38.9347 0.872785 38.767 1.01951C38.5994 1.16625 38.5103 1.33617 38.4998 1.52923ZM39.9301 8.89695V5.81857C39.9327 5.40955 39.9432 5.02089 39.9615 4.6526C39.9799 4.28432 39.9903 4.08757 39.993 4.06236C39.9923 4.03084 39.974 4.00509 39.9379 3.98513C39.9019 3.96519 39.8522 3.9549 39.7886 3.95425C39.5707 4.03856 39.2914 4.11707 38.9507 4.1898C38.61 4.26252 38.1715 4.33333 37.6354 4.40218C37.6209 4.45496 37.6183 4.52704 37.6275 4.61841C37.6367 4.70981 37.6498 4.7819 37.6668 4.83466C38.0841 4.85787 38.3615 4.93273 38.4988 5.05922C38.6362 5.18571 38.6994 5.46096 38.6884 5.88498V8.89695C38.7012 9.51157 38.6324 9.89643 38.4821 10.0515C38.3318 10.2066 38.0234 10.2903 37.5568 10.3025C37.5096 10.3585 37.486 10.4435 37.486 10.5574C37.486 10.6713 37.5096 10.7563 37.5568 10.8122C37.8757 10.8042 38.1652 10.7971 38.4252 10.791C38.6851 10.7849 38.9825 10.7817 39.3171 10.7813C39.6432 10.7817 39.934 10.7849 40.1894 10.791C40.4448 10.7971 40.7356 10.8042 41.0617 10.8122C41.1089 10.7563 41.1325 10.6713 41.1325 10.5574C41.1325 10.4435 41.1089 10.3585 41.0617 10.3025C40.5951 10.297 40.2867 10.2153 40.1364 10.0573C39.9861 9.89932 39.9173 9.51254 39.9301 8.89695ZM44.2443 5.2517C44.2171 5.29225 44.185 5.32701 44.148 5.35596C44.111 5.38492 44.0907 5.35017 44.0871 5.2517C44.0904 5.00006 44.1035 4.74649 44.1264 4.49098C44.1493 4.23549 44.1624 4.09777 44.1657 4.07781C44.1657 3.99801 44.1028 3.95684 43.9771 3.95425C43.762 4.03856 43.481 4.11707 43.1343 4.1898C42.7875 4.26252 42.3455 4.33333 41.8081 4.40218C41.7937 4.45496 41.7911 4.52704 41.8003 4.61841C41.8094 4.70981 41.8225 4.7819 41.8395 4.83466C42.2534 4.85622 42.5298 4.92895 42.6686 5.05284C42.8075 5.17673 42.8717 5.45411 42.8612 5.88498V8.89695C42.8743 9.50482 42.8088 9.88773 42.6647 10.0457C42.5206 10.2037 42.2194 10.2893 41.761 10.3025C41.7138 10.3585 41.6902 10.4435 41.6902 10.5574C41.6902 10.6713 41.7138 10.7563 41.761 10.8122C42.0727 10.8042 42.3569 10.7971 42.6136 10.791C42.8703 10.7849 43.1624 10.7817 43.4899 10.7813C43.7816 10.7817 44.0351 10.7849 44.2502 10.791C44.4653 10.7971 44.7306 10.8042 45.0459 10.8122C45.093 10.7563 45.1166 10.6713 45.1166 10.5574C45.1166 10.4435 45.093 10.3585 45.0459 10.3025C44.6559 10.2893 44.3985 10.2037 44.2738 10.0457C44.149 9.88773 44.092 9.50482 44.1028 8.89695V6.36381C44.1061 6.20356 44.1349 6.07227 44.1893 5.96993C44.2436 5.86761 44.3039 5.78266 44.37 5.71508C44.669 5.42709 44.9709 5.20376 45.2757 5.04511C45.5806 4.88646 45.8864 4.80602 46.1932 4.80377C46.3537 4.80474 46.5082 4.85301 46.6569 4.94857C46.8056 5.04414 46.9287 5.18123 47.0263 5.35982C47.1029 5.51557 47.154 5.69448 47.1795 5.89656C47.205 6.09866 47.2168 6.31619 47.2149 6.54916V8.89695C47.2253 9.50482 47.1651 9.88773 47.0341 10.0457C46.9031 10.2037 46.6386 10.2893 46.2404 10.3025C46.2011 10.3585 46.1815 10.4435 46.1815 10.5574C46.1815 10.6713 46.2011 10.7563 46.2404 10.8122C46.5567 10.8042 46.8278 10.7971 47.0538 10.791C47.2797 10.7849 47.543 10.7817 47.8436 10.7813C48.1527 10.7817 48.4264 10.7849 48.6648 10.791C48.9032 10.7971 49.1848 10.8042 49.5096 10.8122C49.5489 10.7563 49.5685 10.6713 49.5685 10.5574C49.5685 10.4435 49.5489 10.3585 49.5096 10.3025C49.0806 10.2893 48.7951 10.2037 48.653 10.0457C48.5109 9.88773 48.4454 9.50482 48.4565 8.89695V6.59551C48.4614 6.16752 48.4359 5.77622 48.3799 5.4216C48.3239 5.06699 48.208 4.76838 48.0322 4.52574C47.8953 4.35519 47.7132 4.2252 47.486 4.13574C47.2587 4.04628 47.006 4.00124 46.7276 4.00058C46.3471 3.98708 45.9568 4.0643 45.5567 4.23228C45.1566 4.40026 44.7191 4.74006 44.2443 5.2517ZM50.5181 8.6498C50.5502 9.02919 50.5764 9.39797 50.5967 9.75611C50.617 10.1143 50.6274 10.456 50.6281 10.7813C50.7083 10.7659 50.7836 10.7543 50.854 10.7466C50.9244 10.7389 50.9801 10.735 51.021 10.735C51.0754 10.7344 51.1278 10.7357 51.1782 10.7389C51.2286 10.7421 51.281 10.7511 51.3354 10.7659C51.5443 10.8203 51.763 10.8621 51.9916 10.8914C52.2201 10.9207 52.4781 10.9355 52.7656 10.9358C53.2548 10.9503 53.7814 10.8171 54.3452 10.5361C54.9091 10.2552 55.2156 9.73972 55.2647 8.98963C55.2547 8.46717 55.0814 8.042 54.7449 7.71417C54.4083 7.38632 53.9686 7.12568 53.4258 6.93222C52.9477 6.77153 52.5679 6.59481 52.2863 6.40204C52.0047 6.2093 51.8606 5.90823 51.854 5.49884C51.8665 5.18059 51.9831 4.93667 52.2038 4.76708C52.4244 4.59751 52.6746 4.51191 52.9543 4.51029C53.1537 4.4881 53.415 4.5634 53.7382 4.73621C54.0613 4.90901 54.2873 5.31253 54.416 5.94677C54.4723 5.99246 54.5561 6.01306 54.6674 6.00855C54.7788 6.00404 54.8626 5.97831 54.9189 5.93133C54.9219 5.6517 54.9356 5.37302 54.9602 5.0953C54.9847 4.8176 55.0024 4.55053 55.0132 4.29406C54.7653 4.24804 54.4634 4.18947 54.1075 4.11835C53.7516 4.04724 53.3672 4.008 52.9543 4.00058C52.3531 4.0109 51.8383 4.17565 51.41 4.49486C50.9817 4.81408 50.7578 5.22596 50.7381 5.73052C50.7345 6.28047 50.8714 6.70973 51.1487 7.01832C51.4261 7.32692 51.8655 7.59787 52.467 7.83117C53.1032 8.08518 53.533 8.32089 53.7566 8.53822C53.9802 8.75556 54.0847 9.02444 54.0702 9.34488C54.0509 9.72105 53.9009 9.99586 53.6203 10.1693C53.3397 10.3427 53.0443 10.4283 52.7342 10.4261C52.4294 10.4213 52.1864 10.3807 52.0053 10.3045C51.8242 10.2282 51.6952 10.1452 51.6183 10.0554C51.4336 9.86488 51.2961 9.63191 51.2057 9.35645C51.1153 9.081 51.0485 8.8403 51.0053 8.63435C50.9496 8.58867 50.8684 8.56807 50.7617 8.57258C50.6549 8.57709 50.5737 8.60282 50.5181 8.6498ZM57.1951 1.52923C57.2029 1.73842 57.2815 1.92246 57.4308 2.08141C57.5801 2.24038 57.753 2.32406 57.9495 2.33242C58.1761 2.3219 58.3673 2.23909 58.5232 2.08394C58.679 1.92881 58.7602 1.76449 58.7668 1.59101C58.7619 1.39537 58.6892 1.21517 58.5487 1.0504C58.4082 0.885663 58.2295 0.798128 58.0124 0.787827C57.8133 0.795559 57.6299 0.872785 57.4623 1.01951C57.2946 1.16625 57.2055 1.33617 57.1951 1.52923ZM58.6253 8.89695V5.81857C58.628 5.40955 58.6384 5.02089 58.6568 4.6526C58.6751 4.28432 58.6856 4.08757 58.6882 4.06236C58.6875 4.03084 58.6692 4.00509 58.6332 3.98513C58.5972 3.96519 58.5474 3.9549 58.4839 3.95425C58.266 4.03856 57.9867 4.11707 57.646 4.1898C57.3052 4.26252 56.8668 4.33333 56.3306 4.40218C56.3162 4.45496 56.3136 4.52704 56.3228 4.61841C56.3319 4.70981 56.345 4.7819 56.362 4.83466C56.7794 4.85787 57.0567 4.93273 57.1941 5.05922C57.3314 5.18571 57.3946 5.46096 57.3837 5.88498V8.89695C57.3964 9.51157 57.3277 9.89643 57.1774 10.0515C57.0271 10.2066 56.7186 10.2903 56.252 10.3025C56.2049 10.3585 56.1813 10.4435 56.1813 10.5574C56.1813 10.6713 56.2049 10.7563 56.252 10.8122C56.5709 10.8042 56.8604 10.7971 57.1204 10.791C57.3804 10.7849 57.6777 10.7817 58.0124 10.7813C58.3385 10.7817 58.6293 10.7849 58.8847 10.791C59.1401 10.7971 59.4308 10.8042 59.757 10.8122C59.8041 10.7563 59.8277 10.6713 59.8277 10.5574C59.8277 10.4435 59.8041 10.3585 59.757 10.3025C59.2904 10.297 58.9819 10.2153 58.8316 10.0573C58.6813 9.89932 58.6126 9.51254 58.6253 8.89695ZM61.3993 8.89695C61.4104 9.51254 61.3449 9.89932 61.2028 10.0573C61.0607 10.2153 60.7752 10.297 60.3462 10.3025C60.299 10.3585 60.2755 10.4435 60.2755 10.5574C60.2755 10.6713 60.299 10.7563 60.3462 10.8122C60.6638 10.8042 60.9441 10.7971 61.1871 10.791C61.43 10.7849 61.7103 10.7817 62.028 10.7813C62.286 10.7817 62.5086 10.7849 62.6959 10.791C62.8832 10.7971 63.1373 10.8042 63.4582 10.8122C63.5054 10.7563 63.5289 10.6713 63.5289 10.5574C63.5289 10.4435 63.5054 10.3585 63.4582 10.3025C63.1422 10.297 62.9255 10.2153 62.8079 10.0573C62.6904 9.89932 62.6347 9.51254 62.6409 8.89695V7.50681C62.8227 7.50547 62.9805 7.54447 63.1142 7.62382C63.2479 7.70318 63.3888 7.84952 63.5368 8.06287L64.6842 9.65381C64.8368 9.87198 64.9363 10.0419 64.9828 10.1635C65.0293 10.2852 65.0503 10.3933 65.0457 10.4879V10.735C65.0431 10.7839 65.064 10.8097 65.1085 10.8122C65.2618 10.8042 65.4229 10.7971 65.5918 10.791C65.7608 10.7849 65.9612 10.7817 66.193 10.7813C66.4304 10.7817 66.6472 10.7849 66.8433 10.791C67.0395 10.7971 67.2523 10.8042 67.4819 10.8122C67.529 10.7563 67.5526 10.6713 67.5526 10.5574C67.5526 10.4435 67.529 10.3585 67.4819 10.3025C67.2141 10.2811 66.9668 10.2305 66.74 10.1508C66.5131 10.071 66.3099 9.90538 66.1302 9.65381L64.2912 6.98164C64.2415 6.91729 64.2153 6.84521 64.2127 6.76541C64.21 6.7062 64.231 6.65471 64.2755 6.61094L65.47 5.31349C65.6972 5.07965 65.9455 4.91096 66.2148 4.80744C66.4842 4.70392 66.8123 4.64607 67.1989 4.63386C67.2461 4.57788 67.2697 4.49293 67.2697 4.37901C67.2697 4.26509 67.2461 4.18014 67.1989 4.12416C66.9229 4.1322 66.693 4.13928 66.5094 4.14539C66.3257 4.15151 66.0997 4.15472 65.8315 4.15504C65.5463 4.15472 65.3034 4.15151 65.1027 4.14539C64.9019 4.13928 64.6629 4.1322 64.3855 4.12416C64.3384 4.18014 64.3148 4.26509 64.3148 4.37901C64.3148 4.49293 64.3384 4.57788 64.3855 4.63386C64.8237 4.67683 65.0103 4.79364 64.9455 4.9843C64.8806 5.17497 64.7883 5.32072 64.6685 5.4216C64.2484 5.87321 63.8594 6.25126 63.5014 6.55573C63.1435 6.86022 62.8566 7.04594 62.6409 7.11294V1.77636C62.6435 1.26956 62.654 0.873738 62.6724 0.588947C62.6907 0.304169 62.7012 0.159393 62.7038 0.154545C62.7064 0.0490155 62.6383 -0.00247741 62.4995 9.15567e-05C62.2752 0.0821601 61.9379 0.16516 61.4877 0.249142C61.0374 0.333138 60.6412 0.389129 60.299 0.417123C60.2833 0.48471 60.2833 0.565791 60.299 0.66039C60.3148 0.755001 60.3462 0.82838 60.3934 0.880502C60.7928 0.872468 61.0626 0.92716 61.2028 1.0446C61.3429 1.16207 61.4084 1.52957 61.3993 2.14707V8.89695ZM69.1232 8.89695C69.136 9.51349 69.0672 9.90223 68.9169 10.0631C68.7666 10.224 68.4581 10.3038 67.9915 10.3025C67.9444 10.3585 67.9208 10.4435 67.9208 10.5574C67.9208 10.6713 67.9444 10.7563 67.9915 10.8122C68.3105 10.8042 68.5999 10.7971 68.8599 10.791C69.1199 10.7849 69.4172 10.7817 69.7519 10.7813C70.078 10.7817 70.3688 10.7849 70.6242 10.791C70.8796 10.7971 71.1704 10.8042 71.4965 10.8122C71.5436 10.7563 71.5672 10.6713 71.5672 10.5574C71.5672 10.4435 71.5436 10.3585 71.4965 10.3025C71.0299 10.3038 70.7214 10.224 70.5711 10.0631C70.4208 9.90223 70.3521 9.51349 70.3649 8.89695V1.77636C70.3675 1.26956 70.378 0.873738 70.3963 0.588947C70.4146 0.304169 70.4251 0.159393 70.4277 0.154545C70.4303 0.0490155 70.3622 -0.00247741 70.2234 9.15567e-05C69.9991 0.0821601 69.6618 0.16516 69.2116 0.249142C68.7614 0.333138 68.3652 0.389129 68.023 0.417123C68.0073 0.48471 68.0073 0.565791 68.023 0.66039C68.0387 0.755001 68.0701 0.82838 68.1173 0.880502C68.5168 0.872468 68.7866 0.92716 68.9267 1.0446C69.0669 1.16207 69.1324 1.52957 69.1232 2.14707V8.89695ZM75.185 10.9358C75.4895 10.9359 75.8078 10.8585 76.1398 10.7035C76.4718 10.5486 76.8294 10.3156 77.2125 10.0044C77.2534 9.97214 77.2942 9.95444 77.3351 9.95132C77.376 9.9482 77.398 9.97258 77.4011 10.0245C77.4083 10.2199 77.4371 10.4168 77.4876 10.6151C77.538 10.8134 77.5668 10.9203 77.574 10.9358C77.6311 10.9577 77.6807 10.968 77.7227 10.9665C77.7647 10.9651 77.8147 10.9548 77.8726 10.9358C78.0432 10.7952 78.2836 10.671 78.5937 10.5632C78.9037 10.4554 79.2973 10.3736 79.7744 10.318C79.8216 10.2658 79.8451 10.1963 79.8452 10.1094C79.8451 10.0226 79.8216 9.95305 79.7744 9.90092C79.2865 9.86746 78.9696 9.7645 78.8235 9.59201C78.6775 9.41954 78.612 9.14666 78.6271 8.77338V5.80775C78.6297 5.5388 78.6402 5.21599 78.6585 4.8393C78.6768 4.46261 78.6873 4.25563 78.6899 4.21837C78.6896 4.1935 78.6785 4.17182 78.6565 4.15331C78.6346 4.13481 78.6038 4.12509 78.5642 4.12416C78.5216 4.1322 78.4496 4.13928 78.3481 4.14539C78.2466 4.15151 78.1352 4.15472 78.0141 4.15504C77.7636 4.15472 77.5062 4.15151 77.242 4.14539C76.9777 4.13928 76.7007 4.1322 76.4109 4.12416C76.3638 4.18014 76.3402 4.26509 76.3402 4.37901C76.3402 4.49293 76.3638 4.57788 76.4109 4.63386C76.7885 4.64255 77.0471 4.72945 77.187 4.89452C77.3268 5.0596 77.3929 5.38976 77.3854 5.88498V8.86605C77.3888 9.00778 77.3745 9.12128 77.3428 9.20663C77.311 9.29197 77.2413 9.37924 77.1339 9.46844C76.8425 9.71557 76.5727 9.90092 76.3245 10.0245C76.0763 10.1481 75.8536 10.2098 75.6565 10.2098C75.3978 10.2295 75.1293 10.1362 74.851 9.92989C74.5726 9.72363 74.422 9.28664 74.3991 8.61892V5.80775C74.4017 5.5388 74.4122 5.21599 74.4305 4.8393C74.4489 4.46261 74.4593 4.25563 74.462 4.21837C74.4616 4.1935 74.4505 4.17182 74.4286 4.15331C74.4066 4.13481 74.3758 4.12509 74.3362 4.12416C74.2937 4.1322 74.2216 4.13928 74.1201 4.14539C74.0186 4.15151 73.9073 4.15472 73.7861 4.15504C73.5356 4.15472 73.2783 4.15151 73.014 4.14539C72.7498 4.13928 72.4727 4.1322 72.183 4.12416C72.1358 4.18014 72.1122 4.26509 72.1122 4.37901C72.1122 4.49293 72.1358 4.57788 72.183 4.63386C72.5536 4.64963 72.8103 4.73781 72.9531 4.89838C73.0959 5.05896 73.164 5.38268 73.1574 5.86955V8.83516C73.1447 9.38896 73.2881 9.87229 73.5877 10.2851C73.8873 10.698 74.4197 10.9149 75.185 10.9358ZM82.7827 5.60695C83.0333 5.35339 83.3014 5.14229 83.587 4.97367C83.8726 4.80506 84.1336 4.71753 84.3701 4.71109C84.8881 4.72106 85.3256 4.97915 85.6825 5.48532C86.0394 5.9915 86.2254 6.68592 86.2405 7.56859C86.2582 8.24115 86.1088 8.87313 85.7925 9.46457C85.4762 10.056 84.8868 10.3714 84.0243 10.4106C83.8718 10.4126 83.6858 10.3894 83.4664 10.341C83.247 10.2925 83.061 10.2071 82.9084 10.0847C82.7545 9.95939 82.6521 9.84013 82.6013 9.72696C82.5505 9.61379 82.5272 9.42465 82.5312 9.15953V6.28658C82.5291 6.12909 82.5459 6.00078 82.5815 5.9016C82.6171 5.80243 82.6842 5.70421 82.7827 5.60695ZM82.6569 5.09724C82.6291 5.1238 82.5968 5.13596 82.5601 5.13373C82.5234 5.13152 82.5033 5.10392 82.4998 5.05091C82.5024 4.76645 82.5129 4.53218 82.5312 4.34811C82.5495 4.16405 82.56 4.06881 82.5626 4.06236C82.562 4.03084 82.5436 4.00509 82.5076 3.98513C82.4716 3.96519 82.4218 3.9549 82.3583 3.95425C82.1451 4.03856 81.8721 4.11707 81.539 4.1898C81.206 4.26252 80.7718 4.33333 80.2365 4.40218C80.2221 4.45496 80.2194 4.52704 80.2286 4.61841C80.2378 4.70981 80.2509 4.7819 80.2679 4.83466C80.6818 4.85719 80.9582 4.93183 81.097 5.05862C81.2358 5.18541 81.3 5.46087 81.2895 5.88498V12.4804C81.3023 13.0969 81.2335 13.4857 81.0832 13.6466C80.9329 13.8075 80.6245 13.8873 80.1579 13.886C80.1107 13.942 80.0872 14.0269 80.0872 14.1408C80.0872 14.2547 80.1107 14.3397 80.1579 14.3957C80.4768 14.3876 80.7663 14.3806 81.0263 14.3745C81.2863 14.3683 81.5836 14.3651 81.9182 14.3648C82.2784 14.3651 82.6032 14.3683 82.8927 14.3745C83.1822 14.3806 83.4913 14.3876 83.82 14.3957C83.8672 14.3397 83.8907 14.2547 83.8907 14.1408C83.8907 14.0269 83.8672 13.942 83.82 13.886C83.2781 13.8805 82.9238 13.7988 82.7571 13.6408C82.5905 13.4828 82.5152 13.096 82.5312 12.4804V10.8122C82.5303 10.7155 82.547 10.663 82.5811 10.6547C82.6152 10.6464 82.6719 10.6603 82.7512 10.6964C82.9457 10.7733 83.1596 10.8323 83.3931 10.8734C83.6266 10.9146 83.8684 10.9354 84.1186 10.9358C84.5597 10.9374 84.9743 10.8686 85.3623 10.7292C85.7503 10.5899 86.1059 10.3704 86.4291 10.0708C86.8007 9.71653 87.0869 9.29757 87.2877 8.81392C87.4884 8.33028 87.5899 7.77614 87.5922 7.15154C87.5765 6.30396 87.3132 5.57413 86.8024 4.96208C86.2916 4.35004 85.6275 4.02956 84.8102 4.00058C84.5103 4.00188 84.1671 4.09584 83.7807 4.28247C83.3943 4.46911 83.0198 4.74071 82.6569 5.09724ZM89.6125 1.52923C89.6203 1.73842 89.6989 1.92246 89.8482 2.08141C89.9975 2.24038 90.1704 2.32406 90.3669 2.33242C90.5935 2.3219 90.7847 2.23909 90.9406 2.08394C91.0964 1.92881 91.1776 1.76449 91.1842 1.59101C91.1793 1.39537 91.1066 1.21517 90.9661 1.0504C90.8256 0.885663 90.6468 0.798128 90.4297 0.787827C90.2307 0.795559 90.0473 0.872785 89.8796 1.01951C89.712 1.16625 89.6229 1.33617 89.6125 1.52923ZM91.0427 8.89695V5.81857C91.0453 5.40955 91.0558 5.02089 91.0742 4.6526C91.0925 4.28432 91.103 4.08757 91.1056 4.06236C91.1049 4.03084 91.0866 4.00509 91.0506 3.98513C91.0146 3.96519 90.9648 3.9549 90.9013 3.95425C90.6834 4.03856 90.4041 4.11707 90.0633 4.1898C89.7226 4.26252 89.2842 4.33333 88.748 4.40218C88.7336 4.45496 88.731 4.52704 88.7401 4.61841C88.7493 4.70981 88.7624 4.7819 88.7794 4.83466C89.1967 4.85787 89.4741 4.93273 89.6115 5.05922C89.7488 5.18571 89.812 5.46096 89.8011 5.88498V8.89695C89.8138 9.51157 89.7451 9.89643 89.5948 10.0515C89.4445 10.2066 89.136 10.2903 88.6694 10.3025C88.6223 10.3585 88.5987 10.4435 88.5987 10.5574C88.5987 10.6713 88.6223 10.7563 88.6694 10.8122C88.9883 10.8042 89.2778 10.7971 89.5378 10.791C89.7978 10.7849 90.0951 10.7817 90.4297 10.7813C90.7559 10.7817 91.0467 10.7849 91.3021 10.791C91.5575 10.7971 91.8482 10.8042 92.1744 10.8122C92.2215 10.7563 92.2451 10.6713 92.2451 10.5574C92.2451 10.4435 92.2215 10.3585 92.1744 10.3025C91.7078 10.297 91.3993 10.2153 91.249 10.0573C91.0987 9.89932 91.0299 9.51254 91.0427 8.89695ZM97.8874 8.86605C97.8908 9.00778 97.8766 9.12128 97.8448 9.20663C97.813 9.29197 97.7434 9.37924 97.6359 9.46844C97.3445 9.71557 97.0747 9.90092 96.8265 10.0245C96.5783 10.1481 96.3556 10.2098 96.1585 10.2098C95.7152 10.2121 95.3209 9.97977 94.9758 9.51284C94.6307 9.04593 94.4486 8.33092 94.4296 7.36779C94.4339 6.81593 94.4804 6.37507 94.5691 6.04523C94.6578 5.7154 94.7633 5.4715 94.8854 5.31349C95.1398 4.96371 95.4051 4.74424 95.6811 4.6551C95.9571 4.56598 96.1791 4.52799 96.3471 4.54119C96.6281 4.54216 96.8717 4.59044 97.078 4.686C97.2843 4.78158 97.465 4.91866 97.6202 5.09724C97.7276 5.2102 97.7997 5.32025 97.8363 5.4274C97.873 5.53456 97.89 5.70254 97.8874 5.93133V8.86605ZM97.7145 10.0044C97.7554 9.97214 97.7963 9.95444 97.8371 9.95132C97.878 9.9482 97.9 9.97258 97.9031 10.0245C97.9103 10.2246 97.9392 10.4229 97.9896 10.6192C98.04 10.8155 98.0688 10.921 98.076 10.9358C98.1356 10.958 98.1854 10.9677 98.2254 10.9648C98.2653 10.9619 98.3151 10.9522 98.3747 10.9358C98.5453 10.7952 98.7856 10.671 99.0957 10.5632C99.4058 10.4554 99.7994 10.3736 100.276 10.318C100.324 10.2658 100.347 10.1963 100.347 10.1094C100.347 10.0226 100.324 9.95305 100.276 9.90092C99.7886 9.86746 99.4716 9.7645 99.3256 9.59201C99.1795 9.41954 99.114 9.14666 99.1291 8.77338V1.77636C99.1317 1.26956 99.1422 0.873738 99.1605 0.588947C99.1789 0.304169 99.1893 0.159393 99.192 0.154545C99.1946 0.0490155 99.1265 -0.00247741 98.9876 9.15567e-05C98.7633 0.0821601 98.4261 0.16516 97.9758 0.249142C97.5256 0.333138 97.1294 0.389129 96.7872 0.417123C96.7715 0.48471 96.7715 0.565791 96.7872 0.66039C96.8029 0.755001 96.8344 0.82838 96.8815 0.880502C97.281 0.872468 97.5508 0.92716 97.691 1.0446C97.8311 1.16207 97.8966 1.52957 97.8874 2.14707V4.12416C97.8884 4.17725 97.8786 4.21394 97.858 4.2342C97.8373 4.25448 97.8 4.26413 97.746 4.26316C97.6998 4.25222 97.5524 4.20845 97.3039 4.13186C97.0554 4.05528 96.7941 4.01154 96.52 4.00058C96.0072 4.00252 95.5632 4.08362 95.188 4.24385C94.8127 4.40411 94.4709 4.63195 94.1624 4.92734C93.8215 5.25976 93.5563 5.65297 93.3667 6.10701C93.1771 6.56106 93.0809 7.074 93.0779 7.64582C93.0832 8.61409 93.3163 9.3999 93.7773 10.0033C94.2384 10.6066 94.8959 10.9175 95.7499 10.9358C96.0518 10.9359 96.3596 10.8585 96.6733 10.7035C96.9869 10.5486 97.334 10.3156 97.7145 10.0044ZM101.83 1.52923C101.838 1.73842 101.917 1.92246 102.066 2.08141C102.215 2.24038 102.388 2.32406 102.585 2.33242C102.811 2.3219 103.003 2.23909 103.158 2.08394C103.314 1.92881 103.396 1.76449 103.402 1.59101C103.397 1.39537 103.324 1.21517 103.184 1.0504C103.044 0.885663 102.865 0.798128 102.648 0.787827C102.449 0.795559 102.265 0.872785 102.098 1.01951C101.93 1.16625 101.841 1.33617 101.83 1.52923ZM103.261 8.89695V5.81857C103.263 5.40955 103.274 5.02089 103.292 4.6526C103.31 4.28432 103.321 4.08757 103.324 4.06236C103.323 4.03084 103.305 4.00509 103.268 3.98513C103.232 3.96519 103.183 3.9549 103.119 3.95425C102.901 4.03856 102.622 4.11707 102.281 4.1898C101.941 4.26252 101.502 4.33333 100.966 4.40218C100.951 4.45496 100.949 4.52704 100.958 4.61841C100.967 4.70981 100.98 4.7819 100.997 4.83466C101.415 4.85787 101.692 4.93273 101.829 5.05922C101.967 5.18571 102.03 5.46096 102.019 5.88498V8.89695C102.032 9.51157 101.963 9.89643 101.813 10.0515C101.662 10.2066 101.354 10.2903 100.887 10.3025C100.84 10.3585 100.817 10.4435 100.817 10.5574C100.817 10.6713 100.84 10.7563 100.887 10.8122C101.206 10.8042 101.496 10.7971 101.756 10.791C102.016 10.7849 102.313 10.7817 102.648 10.7813C102.974 10.7817 103.265 10.7849 103.52 10.791C103.775 10.7971 104.066 10.8042 104.392 10.8122C104.439 10.7563 104.463 10.6713 104.463 10.5574C104.463 10.4435 104.439 10.3585 104.392 10.3025C103.926 10.297 103.617 10.2153 103.467 10.0573C103.317 9.89932 103.248 9.51254 103.261 8.89695ZM107.952 13.2527C108.193 12.8238 108.408 12.381 108.596 11.9243C109.213 10.4663 109.731 9.25983 110.149 8.30479C110.567 7.34975 110.977 6.45562 111.378 5.6224C111.491 5.38814 111.658 5.1732 111.879 4.97755C112.1 4.78191 112.358 4.66734 112.652 4.63386C112.699 4.57788 112.722 4.49293 112.722 4.37901C112.722 4.26509 112.699 4.18014 112.652 4.12416C112.461 4.1322 112.281 4.13928 112.111 4.14539C111.942 4.15151 111.75 4.15472 111.536 4.15504C111.272 4.15472 111.037 4.15151 110.832 4.14539C110.627 4.13928 110.385 4.1322 110.105 4.12416C110.058 4.18014 110.035 4.26509 110.035 4.37901C110.035 4.49293 110.058 4.57788 110.105 4.63386C110.369 4.64816 110.588 4.69991 110.761 4.78911C110.935 4.8783 110.967 5.05826 110.86 5.32894L109.301 8.86605C109.245 8.99333 109.186 9.06007 109.122 9.06628C109.058 9.07249 108.992 9.00059 108.925 8.8506L107.531 5.63785C107.368 5.31548 107.298 5.07595 107.321 4.91923C107.344 4.76252 107.586 4.6674 108.046 4.63386C108.094 4.57788 108.117 4.49293 108.117 4.37901C108.117 4.26509 108.094 4.18014 108.046 4.12416C107.753 4.1322 107.455 4.13928 107.152 4.14539C106.85 4.15151 106.556 4.15472 106.27 4.15504C105.736 4.15247 105.312 4.14218 104.997 4.12416C104.95 4.18014 104.926 4.26509 104.926 4.37901C104.926 4.49293 104.95 4.57788 104.997 4.63386C105.322 4.64768 105.56 4.72548 105.713 4.86729C105.865 5.00911 106.04 5.31745 106.237 5.7923L108.015 9.85459C108.094 10.0239 108.167 10.2506 108.235 10.5348C108.303 10.819 108.303 11.0762 108.235 11.3065C108.142 11.5615 108.046 11.803 107.947 12.0309C107.847 12.2589 107.739 12.4911 107.622 12.7275C107.538 12.8814 107.435 12.9946 107.312 13.0673C107.188 13.1401 107.03 13.1761 106.836 13.1755C106.732 13.1735 106.65 13.1658 106.591 13.1523C106.531 13.1388 106.461 13.131 106.38 13.1291C106.152 13.1442 105.98 13.2298 105.864 13.3859C105.747 13.542 105.689 13.6778 105.689 13.7933C105.693 13.959 105.763 14.0948 105.899 14.2007C106.035 14.3066 106.211 14.3613 106.428 14.3648C106.6 14.3803 106.825 14.3185 107.101 14.1795C107.378 14.0404 107.662 13.7315 107.952 13.2527ZM117.454 7.18244V9.23676C117.452 9.33555 117.432 9.41599 117.391 9.4781C117.35 9.5402 117.298 9.59361 117.234 9.63834C117.025 9.80793 116.798 9.95917 116.554 10.0921C116.31 10.225 116.075 10.2951 115.851 10.3025C115.46 10.2868 115.173 10.1638 114.99 9.93376C114.807 9.70367 114.717 9.46103 114.719 9.20586C114.709 8.84989 114.813 8.51769 115.031 8.20921C115.249 7.90075 115.642 7.66662 116.212 7.50681L117.454 7.18244ZM117.454 10.0399C117.493 10.2192 117.602 10.409 117.78 10.6095C117.957 10.81 118.252 10.9188 118.664 10.9358C119.057 10.9117 119.376 10.8055 119.621 10.6172C119.866 10.429 119.992 10.3035 120 10.2407C119.995 10.1825 119.969 10.1252 119.921 10.0689C119.874 10.0126 119.832 9.98234 119.796 9.97816C119.756 9.98846 119.705 10.0296 119.642 10.1017C119.579 10.1738 119.467 10.215 119.308 10.2253C119.014 10.215 118.833 10.085 118.764 9.83528C118.696 9.58557 118.668 9.27794 118.68 8.91238V6.61094C118.653 5.5426 118.4 4.83338 117.923 4.48327C117.446 4.13317 116.907 3.97227 116.306 4.00058C115.635 4.0199 115.041 4.20139 114.526 4.54505C114.012 4.88873 113.741 5.27874 113.713 5.71508C113.713 5.89979 113.76 6.03624 113.853 6.1244C113.945 6.21258 114.082 6.25634 114.263 6.2557C114.491 6.24701 114.664 6.18715 114.78 6.07613C114.896 5.96511 114.954 5.85507 114.955 5.74597C114.955 5.69095 114.951 5.63882 114.943 5.58958C114.935 5.54034 114.923 5.49981 114.908 5.46795C114.899 5.44542 114.892 5.40937 114.886 5.35982C114.88 5.31027 114.876 5.24335 114.876 5.15904C114.893 4.92252 115.036 4.75454 115.304 4.6551C115.573 4.55568 115.865 4.50741 116.181 4.51029C116.468 4.48488 116.746 4.60136 117.018 4.85976C117.289 5.11817 117.434 5.67101 117.454 6.51828C117.453 6.57234 117.443 6.61481 117.424 6.6457C117.406 6.67659 117.384 6.69591 117.359 6.70363L116.008 7.02799C115.24 7.21785 114.619 7.50617 114.145 7.89297C113.672 8.27976 113.428 8.73799 113.414 9.26766C113.428 9.87101 113.621 10.3016 113.992 10.5593C114.363 10.8171 114.831 10.9426 115.395 10.9358C115.739 10.9416 116.029 10.8991 116.263 10.8084C116.498 10.7176 116.779 10.5439 117.108 10.2871L117.422 10.0399H117.454Z" fill="black"/>
</svg>
