<svg width="114" height="24" viewBox="0 0 30.162 6.35" xmlns="http://www.w3.org/2000/svg"><path d="M3.226 6.13c-.087-.108-.183-.523-.136-.596.023-.036.043-.455.046-.93.002-.475.033-1.138.068-1.474.08-.754.05-.846-.264-.793-.193.033-.211.026-.211-.082 0-.065.068-.207.151-.315.407-.528.68-1.366.47-1.446-.131-.05-.094-.164.075-.234.133-.055.195-.048.4.042.236.105.242.114.26.385.018.255.005.293-.156.448-.096.094-.175.2-.175.237 0 .036-.04.106-.089.155-.145.145-.343.458-.343.542 0 .076.074.106.189.078.03-.007.224-.046.432-.086.337-.065.52-.207.62-.234.016-.239.037-.502-.139-.645-.128-.1-.133-.12-.067-.26.112-.234.44-.24.684-.011.11.102.123.158.107.447l-.018.33.189-.01c.29-.018.742.128.782.252.086.272-.246.43-.528.25-.082-.053-.335-.04-.335-.04l-.188.025-.001.149v.36l.002.188s.074-.032.2-.05c.195-.029.499-.03.59.046.042.034.07.114.06.176-.014.098-.313.116-.313.116l-.538.071c0 .204.009.418.008.622.231-.004.819-.153.843.163-.014.1-.047.115-.232.105-.349-.02-.62.021-.62.021-.004.208.004.4.01.607l.487-.007s1.224.108 1.346.173c.14.076.279.304.242.4-.041.108-.454.11-.572.002-.194-.175-.75-.264-1.54-.245-.416.01-.731-.01-1.095.017-.121.01-.36.05-.36.05l-.015.485s-.016.387-.093.472c-.116.128-.157.135-.233.043zm1.007-1.28c.159-.02.329-.062.407-.076v-.59c-.082 0-.147.027-.296.041-.272.025-.374-.046-.374-.132 0-.06.26-.095.394-.133.09-.027.276-.067.276-.067s-.005-.392 0-.595c0 0-.095.032-.223.036-.26.007-.398-.118-.276-.193.037-.023.499-.165.499-.165s-.001.04-.006-.142c-.01-.45-.048-.615-.048-.615l-.875.056-.148.02-.004.276s-.016.68-.041 1.203c-.013.276-.021.49-.022.655 0 .165.006.28.024.36l.033.165s.149-.01.22-.027c.093-.022.3-.057.46-.077zm-4.03.598C.09 5.376-.03 4.708.04 4.534a.828.828 0 0 0 .05-.299c-.01-.206.14-.176.298.06.096.142.12.257.123.615.006.525-.083.68-.308.538zm1.113-.371c-.08-.049-.158-.127-.173-.173a2.965 2.965 0 0 0-.164-.322C.905 4.45.857 4.324.871 4.3c.048-.077.374.119.483.29l.187.292c.071.11.071.133 0 .204-.07.07-.098.069-.225-.01zm.927-.068c0-.03-.043-.097-.095-.149-.251-.252-.4-.66-.239-.66.026 0 .209.156.406.347.396.385.424.516.111.516-.1 0-.183-.024-.183-.054zM.756 3.815A.502.502 0 0 1 .7 3.526c.017-.067.251-.348.52-.626.478-.49.954-1.185.888-1.293-.019-.03.026-.053.1-.053.131 0 .413.266.413.39 0 .033-.28.334-.62.67-.342.337-.621.647-.621.69 0 .1.09.158.134.086.019-.03.138-.055.265-.055.343 0 .5-.216.354-.49-.084-.157.116-.137.318.033.204.172.254.388.148.641-.098.236-.217.293-.354.17-.082-.075-.158-.085-.403-.055-.166.02-.315.06-.331.086-.017.026-.074.047-.127.047a.497.497 0 0 0-.235.108c-.191.15-.292.135-.393-.06zM.84 2.71C.715 2.63.37 1.953.425 1.897c.014-.013.142.032.287.1.213.101.285.174.387.388.069.145.112.296.096.337-.037.097-.187.091-.355-.013zM.915 1.8c-.016-.042.01-.121.06-.175.048-.055.185-.226.304-.382.189-.246.216-.316.208-.54-.016-.454-.02-.446.21-.446.27 0 .513.216.597.53.055.202.049.242-.059.387-.066.089-.162.175-.214.192-.053.017-.235.138-.405.27-.324.252-.639.326-.7.164zM8.238 5.847c0-.078.112-.181.307-.282.241-.125 1.437-1.207 1.659-1.501a.738.738 0 0 0 .153-.363s-.15.005-.757.132c-.348.074-.475.08-.58.033-.236-.108-.15-.172.23-.172.213 0 .426-.033.515-.08.082-.043.24-.094.35-.114.11-.02.274-.077.274-.077s.039-.314.024-.875c-.013-.452-.039-.872-.039-.872s-.372-.023-.615-.031c-.164-.006.014-.108.288-.165.27-.056.295-.073.295-.208 0-.081-.021-.17-.048-.199A.543.543 0 0 1 10.21.9c-.033-.11-.019-.121.148-.121.213 0 .47.176.47.321 0 .193.117.222.562.137.23-.044.43-.08.442-.08.013 0 .047-.061.075-.135.06-.16-.014-.405-.123-.405a.386.386 0 0 1-.175-.076c-.097-.07-.09-.08.111-.166.244-.103.509-.119.654-.038.055.03.148.182.208.337.1.262.127.288.378.369.347.112.404.151.404.28 0 .16-.145.185-.447.076-.269-.096-.273-.096-.363.015-.094.116-.157.571-.177 1.281l-.011.378h.497c.393 0 .516.02.587.09.102.102.07.246-.064.298-.05.018-.201-.006-.339-.055a1.088 1.088 0 0 0-.527-.056c-.16.02-.313.066-.47.1l.123.105c.192.127.392.249.543.37.308.248.737.544 1.035.714.053.03.194.142.3.2.16.088.338.18.503.223.164.043.39.14.503.216.112.077.25.154.308.172.07.022.103.082.103.19 0 .178-.033.191-.583.232-.313.024-.368.01-.674-.163-.184-.104-.357-.229-.385-.278-.074-.133-.796-.824-1.615-1.548a4.078 4.078 0 0 0-.297-.208c-.193-.125-.445-.121-.445-.121l-.618.098s-.034.145-.07.21a3.539 3.539 0 0 1-.925 1.097c-.173.135-.33.247-.352.247-.02 0-.152.084-.293.187-.3.22-.973.535-.973.454zm3.2-2.563a.555.555 0 0 0 .427-.347c.128-.303.096-.796.085-1.087l-.016-.45-.189.006a3.763 3.763 0 0 0-.54.086c-.347.078-.35.081-.35.263 0 .142.024.187.108.2.282.042.34.07.328.154-.018.127-.168.218-.37.236-.046.004-.141.006-.141.006s-.003.064.004.115c.007.052.022.083.066.106a.791.791 0 0 0 .238.05c.307.038.348.059.366.184.018.119-.139.167-.384.156-.064-.003-.202-.022-.202-.022l.014.123.03.296s.351-.043.526-.075zM10.018 5.8a.238.238 0 0 0-.174-.023c-.069.021-.086.007-.063-.053.043-.11.116-.129.794-.192.321-.03.604-.067.628-.082.024-.015.064-.097.07-.28.008-.311-.006-.265-.006-.469-.2 0-.6.053-.6-.01 0-.092.207-.187.409-.187.188 0 .218-.137.083-.376-.178-.317-.157-.4.087-.362.215.034.469.243.466.439-.001.07.003.212.003.212s.305-.007.368 0c.037.003.067.055.067.114 0 .08-.042.113-.162.126-.125.014-.273.004-.273.004s-.024.271-.024.448v.322l.592-.038c.497-.033.623-.024.783.052.195.092.244.225.125.344-.094.094-.29.08-.4-.03-.078-.078-.181-.093-.61-.084-.748.014-1.135.047-1.38.116-.262.075-.672.08-.782.01zM21.738 5.7a41.443 41.443 0 0 0-1.958-1.567 19.2 19.2 0 0 0-.28-.2s-.184.238-.283.351c-.358.41-.93 1.11-1.122 1.184-.066.025-.506.058-.98.073-.472.015-.756.016-.63.001.128-.014.27-.059.318-.1.047-.04.293-.147.547-.237.588-.21.702-.328.997-.572.203-.168.352-.392.514-.598.097-.123.275-.382.275-.382s-.134-.172-.26-.304a16.06 16.06 0 0 0-.586-.703l-.16-.176-.22.048s-.455.167-.61-.037c-.046-.062-.094-.12-.094-.137 0-.018.149-.05.33-.071 1.1-.263 1.791-.6 3.122-.678.248-.014.638-.006.746.018.239.053.437.239.39.364-.049.126-.406.12-.535-.01-.08-.08-.201-.1-.606-.1-.299 0-.599.066-.599.066s-.058.229-.085.43c-.027.203-.09.518-.14.702-.068.254-.147.558-.147.558l.292.213c.133.097.308.22.397.292.655.424 1.94.845 2.659 1.045.732.203.733.21.73.372-.242.157-1.212.266-1.43.294-.214.028-.316.004-.592-.139zm-2.284-2.73c.058-.154.112-.37.137-.56.017-.129.008-.39.008-.39s-.231.039-.344.07c-.294.081-.864.302-.864.302l.93.95s.075-.219.133-.373zM19.205.857c-.08-.063-.17-.115-.2-.115-.079 0-.206-.267-.162-.34.024-.038.237-.063.53-.063.406 0 .522.02.66.119.188.134.217.32.066.434-.162.124-.72.102-.894-.035zM27.225.043c-.302.085.265.427.165.929l-.134.065c-.603.135-.678.16-1.101.294l-.357.009c0 .035-.002.07 0 .106.022.14.143.124.443.094.03.427-.077.806-.149 1.145-.158.747-.322 1.481-.693 2.128-.153.267-.18.447-.613.69-.008.099-.058.228.104.136.237-.071.515-.224.674-.44.384-.522.62-1.184.775-1.853.154-.668.226-1.343.28-1.892.81-.108 1.704-.47 2.58-.593.09-.013.215.162.278.123 0 0 .057-.034.063-.064.023-.107.033-.302-.052-.348-.193-.106-.332-.026-.606.038-.18.042-.647.167-.733.144-.148-.047-.122-.353-.186-.47-.048-.09-.067-.178-.156-.231C27.717 0 27.642 0 27.453 0m.28 1.31s-.036.092-.033.14c.009.125.131.346.131.346s-.669.262-.96.336c-.084.08.014.092.028.192.217.046.932-.228.932-.228v.47c-.158.013-.435.17-.575.272h-.015c-.13-.167-.335-.195-.535-.197-.04 0-.106-.011-.134.025-.07.091.12.26.15.339.04.103.028.21.047.315.039.218.082.44.145.653.027.093.061.404.23.288.084-.058.042-.203.06-.287.036-.174-.061-.725-.054-.895.378-.214.681-.256.681-.256v.47l-.19.086c-.167-.126-.208.321-.013.231.032-.015.203-.06.203-.06v.385s-.223.073-.262.08c-.082.016-.24.048-.302.104-.052.047-.064.132.034.115.099-.017.076.01.19-.043.113-.053.34-.085.34-.043v.47c-.395.156-.946.172-1.393.246-.068.012-.208.028-.17.134.032.085.125.095.2.096.397.018 1.363-.176 1.363-.176v.128c.01.342-.027 1.043.08 1.304h.081l.17-.409c.16-.766.16-1.108.16-1.108s1.07-.11 1.307.018l.38.228c.056-.074.134-.124.133-.272-.01-.317-.291-.364-.535-.364-.336.038-1.284.09-1.284.09v-.47c.11.019.368.046.492.043l-.041-.072.074.273h.015c.12.015.184-.088.268-.147.094-.067.16-.213.218-.311.116-.334.263-.652.289-.95.047-.29-.01-.323-.113-.523-.038-.076-.176-.154-.26-.143-.258.034-.518.045-.7.1a5.717 5.717 0 0 1-.242.062l-.015-.367s.079-.061.26-.048c.135.01.439.116.46-.123.021-.264-.01-.254-.175-.317-.166-.064-.454.17-.53.085-.076-.085-.076-.214-.227-.3-.114 0-.265-.035-.364-.016m1.386 1.3c-.006.292-.042 1.111-.24 1.289-.067-.244-.403-.113-.555-.092v-.385s.242.019.347-.038a.185.185 0 0 0 .095-.106c.047-.3-.442-.198-.442-.198v-.342"/></svg>