<svg xmlns="http://www.w3.org/2000/svg" width="90" height="17"><path fill="#000" fill-rule="nonzero" d="m8.359 4.12.655.654H7.635v8.79l.001.172a7.476 7.476 0 0 0-.017.31c.253.161.684.483 1.293.966.609.482 1.04.844 1.292 1.085l.155.793a46.55 46.55 0 0 0-1.568-1.396c-.448-.356-.867-.66-1.258-.913-.103.402-.305.712-.603.93-.31.23-.667.345-1.069.345-.413 0-.752-.132-1.017-.396-.275-.265-.413-.54-.413-.828 0-.39.143-.723.43-1 .288-.264.61-.396.966-.396.218 0 .425.04.62.121.195.08.368.19.517.327.046-.034.086-.126.12-.275.035-.15.047-.288.035-.414 0-.115-.011-.287-.034-.517l-.018-.172a4.363 4.363 0 0 0-.535-1.017 2.868 2.868 0 0 0-1.448-1.103c-.184.344-.408.597-.672.758-.264.161-.557.241-.879.241-.436 0-.798-.137-1.086-.413-.275-.287-.413-.667-.413-1.138 0-.39.143-.718.43-.982.3-.276.678-.414 1.138-.414.138 0 .264.017.38.052a.907.907 0 0 1 .327.138.442.442 0 0 0 .155-.207.692.692 0 0 0 .069-.276c0-.356-.196-.73-.586-1.12-.39-.402-.937-.7-1.638-.896-.505-.15-.844-.299-1.016-.448-.173-.161-.259-.397-.259-.707H.81L0 4.12h8.359ZM5.93 14.011c-.31 0-.569.052-.775.155-.219.115-.328.27-.328.465A.38.38 0 0 0 5 14.96c.104.092.265.138.483.138.322 0 .632-.092.93-.276.288-.184.443-.38.466-.586a1.66 1.66 0 0 0-.448-.172 2.735 2.735 0 0 0-.5-.052Zm4.331-8.876.586.31c.276.77.563 1.47.862 2.103.31.632.62 1.195.93 1.689.575.885 1.184 1.54 1.828 1.965.655.413 1.344.62 2.068.62.597 0 1.074-.132 1.43-.396.357-.265.535-.58.535-.948a1 1 0 0 0-.138-.535.94.94 0 0 0-.397-.396 1.082 1.082 0 0 1-.396.293 1.343 1.343 0 0 1-.5.103c-.276 0-.517-.097-.724-.293a.996.996 0 0 1-.31-.758 1.1 1.1 0 0 1 .276-.758c.195-.218.454-.328.775-.328.138 0 .265.03.38.087a.542.542 0 0 1 .258.206c.15-.218.264-.442.345-.672.08-.241.12-.43.12-.569a.768.768 0 0 0-.31-.637c-.195-.173-.442-.259-.74-.259-.564 0-1.133.161-1.707.483-.575.322-.925.649-1.051.982.275.046.482.15.62.31.138.161.207.368.207.62a.907.907 0 0 1-.293.69.994.994 0 0 1-.707.276c-.299 0-.574-.132-.827-.396a1.366 1.366 0 0 1-.38-.983c0-.712.368-1.327 1.104-1.844a4.176 4.176 0 0 1 2.499-.793c.666 0 1.155.161 1.465.483.322.31.528.758.62 1.344.012-.011.035-.04.07-.086l.085-.086c.219-.207.443-.385.673-.534.23-.161.361-.253.396-.276a.63.63 0 0 1 .241-.086c.115-.023.201-.035.259-.035.448 0 .81.184 1.086.552.275.356.413.781.413 1.275 0 .517-.138.925-.413 1.224-.276.298-.58.448-.914.448-.322 0-.557-.092-.707-.276a.894.894 0 0 1-.224-.569.8.8 0 0 1 .173-.5c.115-.16.287-.24.517-.24.241 0 .425.074.551.223.127.15.224.334.293.552a.44.44 0 0 0 .207-.224.733.733 0 0 0 .086-.362c0-.31-.126-.586-.379-.827a1.245 1.245 0 0 0-.913-.38c-.265 0-.506.07-.724.207a2.185 2.185 0 0 0-.62.569.901.901 0 0 0-.138.19 3.8 3.8 0 0 1-.07.155c-.045.184-.109.396-.189.637-.08.23-.15.391-.207.483.253.172.46.425.62.758.161.333.242.638.242.914a2.16 2.16 0 0 1-.655 1.585c-.437.425-1.034.638-1.792.638-.816 0-1.598-.282-2.344-.845-.747-.574-1.465-1.47-2.155-2.688a24.537 24.537 0 0 1-.982-1.982 27.359 27.359 0 0 1-.914-2.413Zm-3.333-.362H2.62c0 .023.011.057.034.103a.26.26 0 0 0 .086.104c1.092.988 1.816 1.752 2.172 2.292.368.529.551 1.034.551 1.517a.82.82 0 0 1-.034.224.73.73 0 0 1-.069.207c.333.31.65.66.948 1.051.299.39.494.7.586.93h.034V4.775Zm14.864-.655.706.655H9.865l-.758-.655h12.685Zm53.512.655.02.063.1.299c.07.207.104.39.104.551.632 0 1.23.213 1.792.638.575.414.862 1.006.862 1.775 0 .667-.218 1.241-.655 1.724-.425.47-1.12.833-2.085 1.086v.051c.712.322 1.453.787 2.223 1.396.77.61 1.476 1.247 2.12 1.913l.224.776c-1.172-1.057-2.292-1.884-3.36-2.482-1.058-.597-2.236-1.051-3.534-1.361l-.948-1.913c.333.183.718.356 1.155.517.436.149.758.224.965.224.712 0 1.436-.236 2.172-.707.746-.471 1.12-1.005 1.12-1.603 0-.322-.127-.592-.38-.81-.252-.23-.58-.345-.982-.345-.115 0-.235.018-.362.052a1.61 1.61 0 0 0-.379.12c-.092.495-.293.886-.603 1.173-.31.287-.666.43-1.069.43a1.1 1.1 0 0 1-.758-.275c-.195-.184-.293-.442-.293-.776 0-.436.224-.81.672-1.12a2.51 2.51 0 0 1 1.5-.483.823.823 0 0 0-.207-.551 1.253 1.253 0 0 0-.552-.362h-3.493v8.79l-.327-.293a3.205 3.205 0 0 0-.552-1.172c-.276-.39-.65-.764-1.12-1.12-.552-.414-1.069-.707-1.551-.88-.471-.183-.89-.275-1.258-.275l-.897-1.069a4.71 4.71 0 0 0 .075-.06l.12-.099c.192-.158.506-.42.943-.789a60.1 60.1 0 0 1 1.689-1.378 5.204 5.204 0 0 0-.965-.604 3.18 3.18 0 0 0-.828-.275c-.655-.104-1.103-.207-1.344-.31-.23-.116-.356-.27-.38-.466h-.403c-.137 0-.264-.017-.379-.052a1.033 1.033 0 0 1-.275-.138l-.035.035.138 9.22-.896-.896.034-6.308c-.23-.563-.47-1.01-.724-1.344-.252-.345-.476-.517-.672-.517h-3.953v.655c.988 0 1.827.362 2.517 1.086.7.712 1.05 1.58 1.05 2.602 0 .517-.137.937-.413 1.258-.264.31-.574.466-.93.466a.943.943 0 0 1-.69-.293.982.982 0 0 1-.293-.69.94.94 0 0 1 .241-.637c.173-.184.368-.276.586-.276.196 0 .374.057.535.172.172.104.304.253.396.448a.875.875 0 0 0 .138-.465c0-.724-.31-1.339-.93-1.844-.61-.517-1.345-.776-2.207-.776v7.084l-.31-.293a3.697 3.697 0 0 0-.38-1.172c-.171-.356-.442-.73-.81-1.12a5.216 5.216 0 0 0-1.55-1.172c-.586-.31-1.138-.489-1.655-.535l-.827-1.292c.46-.345.885-.638 1.275-.88.39-.252.793-.493 1.207-.723a11.33 11.33 0 0 1 1.292-.603c.402-.161.747-.265 1.034-.31v-.69h-3.883c-.885 0-1.591.098-2.12.293-.517.195-.97.488-1.361.879A5.632 5.632 0 0 0 47.8 7.807a5.8 5.8 0 0 0-.414 2.206c0 .908.179 1.632.535 2.172.367.54.77.81 1.206.81.08 0 .155-.017.224-.052a.716.716 0 0 0 .224-.155.956.956 0 0 1-.276-.293.988.988 0 0 1-.086-.413c0-.219.086-.42.259-.604a.915.915 0 0 1 .672-.275c.287 0 .523.097.707.293.183.195.275.453.275.775 0 .38-.143.69-.43.93-.288.242-.644.363-1.069.363-.85 0-1.568-.385-2.154-1.155-.586-.77-.88-1.74-.88-2.913 0-1 .213-1.924.638-2.774.425-.85.977-1.488 1.655-1.913v-.035H45.31c-.184 0-.328-.017-.431-.052-.104-.034-.167-.08-.19-.138l-.052.035v9.238l-.327-.293a2.556 2.556 0 0 0-.534-.948 4.383 4.383 0 0 0-.965-.862 4.599 4.599 0 0 0-1.086-.551 4.576 4.576 0 0 0-1.19-.259l-.551-.81c.31-.253.684-.511 1.12-.776.448-.264.908-.505 1.379-.723.241-.127.477-.236.707-.328.23-.103.476-.207.74-.31V6.653A7.273 7.273 0 0 0 43 5.515c-.287-.299-.534-.448-.741-.448a.927.927 0 0 0-.517.172 1.753 1.753 0 0 0-.483.448c.529.276.925.563 1.19.862.264.299.396.603.396.914a.919.919 0 0 1-.31.689 1.021 1.021 0 0 1-.724.293c-.241 0-.465-.075-.672-.224-.207-.15-.454-.425-.741-.827-.184.39-.385.678-.604.861a1.078 1.078 0 0 1-.74.276c-.3 0-.564-.109-.793-.327a1.08 1.08 0 0 1-.328-.793c0-.253.132-.534.396-.845.265-.321.667-.637 1.207-.947a.847.847 0 0 0-.5-.414c-.207-.07-.534-.104-.982-.104h-.535l-.224-.327h-.873v8.79l-.293-.293a3.709 3.709 0 0 0-.431-1.12c-.207-.357-.511-.747-.914-1.172a5.425 5.425 0 0 0-1.516-1.155 5.006 5.006 0 0 0-1.879-.517l-.982-1.138a24.58 24.58 0 0 1 3.016-1.913c.977-.517 1.74-.816 2.292-.896v-.586H28.95l.155 9.066-.896-.897.069-8.169h-1.414l-.758-.655h2.189a3.831 3.831 0 0 1-.62-.775c-.173-.3-.26-.558-.26-.776 0-.552.357-1.115 1.07-1.689C29.207.293 30.057 0 31.034 0c.781 0 1.632.23 2.55.69.932.448 1.805 1.114 2.62 1.999v.413c-.827-.804-1.643-1.373-2.447-1.706-.804-.333-1.545-.5-2.223-.5-.85 0-1.597.253-2.24.759-.644.494-.966 1.01-.966 1.55 0 .15.04.317.12.5.093.173.202.31.328.414h9.484c.264 0 .551.115.861.345.31.23.603.551.88.965.344-.471.666-.816.964-1.034.31-.23.615-.345.914-.345.276 0 .586.172.93.517.357.345.73.816 1.12 1.413V2.585l.466.414c0 .345.063.62.19.827.126.195.321.293.586.293h15.492l.037.033c.324.048.583.146.779.295.299.206.638.712 1.017 1.516h.034V2.585l.397.414c0 .345.063.62.19.827a.675.675 0 0 0 .585.293H78.32l.035.03c.332.047.598.146.797.298.299.206.638.712 1.017 1.516h.035V2.585L80.6 3c0 .345.063.62.19.827a.675.675 0 0 0 .586.293h7.952l.672.655h-1.379v8.79l-.327-.293c-.023-.437-.115-.965-.276-1.586-.15-.632-.327-1.149-.534-1.55-.368-.725-.764-1.248-1.19-1.57a2.169 2.169 0 0 0-1.361-.482.462.462 0 0 0-.172.035.386.386 0 0 0-.138.051c.218.092.402.242.551.448.161.207.242.426.242.655 0 .414-.127.753-.38 1.017-.24.264-.574.397-1 .397-.447 0-.81-.144-1.085-.431-.276-.3-.414-.684-.414-1.155 0-.62.207-1.103.62-1.448a2.15 2.15 0 0 1 1.449-.534c.62 0 1.223.241 1.81.724.585.47 1.085 1.264 1.499 2.378h.034l-.034-.465V4.774h-6.367c-.138 0-.264-.017-.38-.052a1.033 1.033 0 0 1-.275-.138l-.034.035.137 9.22-.896-.896.035-6.308c-.23-.563-.471-1.01-.724-1.344-.253-.345-.477-.517-.672-.517h-3.435ZM43.948 8.98a9.562 9.562 0 0 1-.69.345c-.275.126-.453.207-.534.241-.287.138-.54.265-.758.38-.207.114-.396.23-.569.344.276.08.552.207.828.38.287.16.563.356.827.585.184.173.344.34.482.5.15.15.282.305.397.465h.017V8.98Zm24.795-1.913A112.593 112.593 0 0 0 66.57 8.91c.402.104.914.391 1.534.862.632.471 1.24 1.097 1.827 1.879h.034V8.066a7.33 7.33 0 0 0-.603-.534c-.23-.184-.436-.34-.62-.466Zm-33.028-.603c-.448.08-1.051.322-1.81.724a20.77 20.77 0 0 0-2.016 1.206 7.43 7.43 0 0 1 2.12 1.155 7.215 7.215 0 0 1 1.672 1.844h.034V6.463Zm20.674.069c-.23.046-.488.126-.775.241-.287.115-.592.253-.914.414-.298.16-.597.333-.896.517-.287.172-.569.356-.844.551.62.253 1.212.62 1.775 1.104.574.47 1.114 1.103 1.62 1.895h.034V6.532Zm13.577-1.758H66.52v.034c.437.288.994.707 1.672 1.259.69.551 1.281 1.045 1.775 1.482V4.774Z"/></svg>