<svg xmlns="http://www.w3.org/2000/svg" width="120" height="13"><path d="M23.016 0h4.3v12.757h-4.3V0Zm21.23 0h4.3v12.757h-4.3V0ZM99.17 0h4.302v12.757h-4.301V0ZM75.431 6.136c1.008 4.09-1.491 4.09-.485 0-4.089 1.007-4.089-1.492 0-.485-1.006-4.09 1.493-4.09.486 0 4.089-1.007 4.089 1.492 0 .485ZM77.34 0h-4.228l-5.577 12.757h4.374l.856-2.223h4.848l.856 2.223h4.447L77.34 0Z"/><path fill="#0E65C0" d="M94.75 11.022a.522.522 0 1 1-1.041-.073l.002-.041a.522.522 0 0 1 1.044.024 1.68 1.68 0 0 1-.005.09Zm-1.356-1.784a.52.52 0 0 1-.738.003l-.086-.085a.522.522 0 0 1 .734-.743l.087.086a.523.523 0 0 1 .003.739Zm-1.735-1.889a.522.522 0 0 1-.722.15l-.095-.06a.523.523 0 0 1 .557-.883l.11.07c.24.158.308.482.15.723Zm-2.183-1.34a.522.522 0 0 1-.716.18l-.105-.063a.522.522 0 0 1 .537-.896l.105.063a.523.523 0 0 1 .18.716Zm-2.192-1.342a.521.521 0 0 1-.736-.055 8.646 8.646 0 0 1-.085-.1.523.523 0 0 1 .804-.668l.072.087a.523.523 0 0 1-.055.736Zm-1.18-2.225a.522.522 0 0 1-.521-.511l-.002-.068a.522.522 0 0 1 1.044-.016l.001.063a.521.521 0 0 1-.511.532h-.01ZM92.446 0v5.795L87.6 0h-3.535v12.757h4.191V6.962l4.847 5.795h3.536V0h-4.192Z"/><path fill="#EE8019" d="M117.467 11.69a.524.524 0 0 1-.679-.29l-.024-.06a.522.522 0 0 1 .969-.39l.024.06a.521.521 0 0 1-.29.68Zm-.935-2.326a.521.521 0 0 1-.678-.29l-.046-.113a.523.523 0 0 1 .969-.39l.046.114a.522.522 0 0 1-.291.68Zm-.954-2.378a.524.524 0 0 1-.679-.29l-.046-.113a.522.522 0 0 1 .969-.39l.046.113a.524.524 0 0 1-.29.68Zm-.956-2.378a.524.524 0 0 1-.679-.29l-.045-.113a.522.522 0 1 1 .969-.39l.045.113a.523.523 0 0 1-.29.68Zm-.956-2.379a.52.52 0 0 1-.678-.29l-.025-.06a.523.523 0 0 1 .969-.39l.024.06a.523.523 0 0 1-.29.68Zm-2.632 5.206 1.239-3.207 1.239 3.207h-2.478ZM114.424 0h-4.228l-5.577 12.757h4.374l.857-2.224h4.847l.857 2.224H120L114.424 0Z"/><path fill="#900" d="M19.437 2.145a.522.522 0 1 1-.995-.316l.02-.063a.523.523 0 0 1 .996.316l-.02.063Zm-.895 2.813-.045.141a.522.522 0 1 1-.995-.317l.045-.14a.522.522 0 1 1 .995.316ZM17.6 7.912l-.045.141a.523.523 0 0 1-.995-.317l.045-.141a.523.523 0 0 1 .995.317Zm-.941 2.954-.02.063a.522.522 0 0 1-.994-.319l.02-.062a.522.522 0 1 1 .994.318Zm-5.941-8.783-.02.062a.523.523 0 0 1-.994-.317l.02-.062a.523.523 0 0 1 .994.317Zm-.916 2.875-.045.141a.523.523 0 0 1-.994-.317l.045-.14a.522.522 0 1 1 .994.316Zm-.94 2.954-.045.14a.523.523 0 0 1-.995-.316l.045-.14a.523.523 0 0 1 .995.316Zm-.941 2.954-.02.062a.522.522 0 1 1-.994-.317l.02-.062a.522.522 0 0 1 .994.317ZM17.53 0l-2.35 7.344L12.957 0H9.002l-2.35 7.253L4.427 0H0l4.082 12.757h4.61l2.169-6.816 2.06 6.816h4.61L21.613 0H17.53Z"/><path fill="#E679A6" d="M37.85 5.613 42.952 0H38.27l-4.191 4.629V0H29.85v12.757h4.227V9.604l.966-1.076 3.19 4.229h4.975L37.85 5.613Zm1.087-4.582.087-.097a.522.522 0 0 1 .78.694l-.087.097a.521.521 0 1 1-.78-.694Zm-6.423 8.787-.086.097a.521.521 0 1 1-.78-.694l.087-.098a.522.522 0 0 1 .78.695Zm1.822-2.048-.086.098a.52.52 0 0 1-.737.043.522.522 0 0 1-.043-.737l.087-.098a.522.522 0 1 1 .78.694Zm1.823-2.047-.087.097a.52.52 0 0 1-.737.043.523.523 0 0 1-.043-.737l.087-.097a.522.522 0 0 1 .78.694Zm.998-1.907a.522.522 0 0 1-.043-.737l.087-.098a.523.523 0 0 1 .78.695l-.087.097a.52.52 0 0 1-.736.043Z"/><path fill="#5748B5" d="m62.185 5.853-.038.053a.52.52 0 1 1-.847-.611l.039-.053a.522.522 0 0 1 .846.61Zm-1.493 2.066-.038.053a.522.522 0 1 1-.846-.612l.038-.053a.523.523 0 0 1 .846.612Zm-1.63 1.794c-.061.243-.213.363-.363.36-.15-.004-.297-.129-.347-.375-.244-.06-.363-.213-.36-.362.003-.15.128-.297.374-.347.061-.244.213-.363.362-.36.15.003.297.129.348.374.243.06.362.213.36.362-.004.15-.129.297-.375.348ZM57.625 8.09a.521.521 0 0 1-.728-.118l-.039-.053a.522.522 0 0 1 .847-.611l.038.053a.522.522 0 0 1-.118.729Zm-1.492-2.067a.52.52 0 0 1-.728-.117l-.039-.053a.522.522 0 0 1 .846-.612l.038.053a.522.522 0 0 1-.117.729ZM66.35 0h-3.535L58.77 6.797 54.614 0H51.08v12.757h3.918V7.144l2.77 4.464h1.896l2.77-4.665.036 5.814h3.918L66.35 0Z"/><path fill="#F0BC00" fill-rule="evenodd" d="M75.431 6.136c4.09 1.007 4.09-1.492 0-.485 1.008-4.09-1.491-4.09-.485 0-4.089-1.007-4.089 1.492 0 .485-1.006 4.09 1.493 4.09.486 0Z" clip-rule="evenodd"/></svg>