<svg xmlns="http://www.w3.org/2000/svg" width="120" height="10.223" viewBox="0 0 31.75 2.705"><path d="m11.17.64.312 1.649h-.347v.382h.772c.433 0 .655-.304.668-.692L12.671.64h-.406l-.084 1.365c-.008.156-.06.284-.262.284h-.036l-.276-1.65zM4.75.64v1.191h.71v-.379h-.286V1.02h.496c.14 0 .23.055.226.261v.746c0 .175-.084.262-.266.263h-.882l-.036.382h.932c.208 0 .364-.039.47-.137.127-.12.192-.31.192-.57V1.09A.458.458 0 0 0 5.86.64zM30.2.64v1.312c0 .243.072.43.202.56.134.13.323.194.565.194h.06c.209 0 .379-.07.511-.208.142-.147.212-.347.213-.602v-.543c0-.232-.048-.406-.14-.519-.109-.129-.29-.194-.547-.194h-.096zm.403.378h.432c.206 0 .31.111.31.34v.576c0 .255-.12.382-.344.382h-.036c-.242 0-.364-.116-.364-.349zM28.47.64v1.191h.71v-.379h-.286V1.02h.495c.14 0 .23.055.226.261v.746c0 .175-.084.262-.266.263h-.882l-.036.382h.933c.208 0 .364-.039.47-.137.127-.12.192-.31.193-.57V1.09a.459.459 0 0 0-.448-.45zM26.84.64v.379h.607c.211-.004.337.089.34.278v1.374h.41V1.214c.006-.42-.25-.573-.586-.574h-.275zM25.98.64v.379h.294v.743h.406V.64h-.26zM24.32.64v2.03h1.542V1.178c0-.18-.049-.314-.128-.4-.096-.091-.24-.137-.446-.137h-.138zm.406.374.298.001h.24c.127 0 .192.068.192.203v1.07h-.73zM22.1.64v1.191h.71v-.379h-.286V1.02h.495c.14 0 .23.055.226.261v.746c0 .175-.084.262-.266.263h-.882l-.036.382h.933c.208 0 .364-.039.47-.137.127-.12.192-.31.193-.57V1.09a.459.459 0 0 0-.448-.45zM20.23.64v.379h.186v1.27h-.322v.382h.73V1.019h.45c.156 0 .234.082.234.248v1.404h.406V1.21c0-.395-.2-.571-.601-.571h-.224zM19.22.64v.379h.294V2.67h.406V.64h-.407zM16.56.64v.379h.294v.743h.406V.64H17zM14.89.64v2.03h1.542V1.178c0-.18-.049-.314-.128-.4-.096-.091-.24-.137-.446-.137h-.137zm.406.375h.538c.13 0 .192.068.192.203v1.07h-.73zM10.23.64v.379h.294V2.67h.406V.64h-.26zM6.97.64v2.03h1.542V1.178c0-.18-.049-.314-.128-.4C8.288.686 8.144.64 7.938.64H7.8zm.406.375h.538c.127 0 .192.068.192.203v1.07h-.73zM2.85.64v.379h.186v1.27h-.322v.382h.73V1.019h.45c.156 0 .234.082.234.248v1.404h.406V1.21c0-.395-.2-.571-.601-.571h-.224zM1.81.64v.379h.293V2.67h.406V.64H2.25zM.12.64H0v.379h.325l-.207.257v1.395h.406V1.039L.7 1.037h.352c.132 0 .198.068.198.203v1.432h.402V1.188c0-.195-.048-.335-.135-.42-.084-.085-.233-.128-.43-.127H.914zM17.56.61h-.12V.99h.325l-.207.257v1.395h.406V1.009l.177-.002h.352c.133 0 .198.067.198.203v1.432h.402V1.158c0-.195-.049-.335-.135-.42-.084-.085-.233-.128-.43-.127h-.175zM12.84 0v1.021h.995L13.25 2.67h.408l.56-1.587V.641L13.244.64V0zM8.67 0v1.021h.995L9.08 2.67h.408l.56-1.587V.641L9.074.64V0z"/></svg>