<?xml version="1.0" encoding="UTF-8"?>
<svg width="120px" height="17px" viewBox="0 0 120 17" version="1.1" xmlns="http://www.w3.org/2000/svg" xmlns:xlink="http://www.w3.org/1999/xlink">
    <title>new-tagline</title>
    <g id="Page-1" stroke="none" stroke-width="1" fill="none" fill-rule="evenodd">
        <path d="M1.6229162,4.89821591 L0.788917637,4.89821591 L-7.10542736e-15,4.07488351 L1.63418652,4.07488351 C1.25851101,3.49020077 1.07067359,2.77824636 1.07067387,1.93900147 C1.07067359,1.32251256 1.32425401,0.837261699 1.83141588,0.483258279 C2.27095421,0.177011109 2.79877713,0.0238640262 3.41488623,0.0238640262 C4.58323192,0.0238640262 5.66893166,0.43355644 6.67198875,1.25289427 C7.82906036,2.19954137 8.64239694,3.16604853 9.11199849,4.15244395 L8.82460663,4.15244395 C8.2235189,3.21377659 7.53603474,2.47596556 6.76215041,1.93900147 C5.93566051,1.36626484 4.97956865,1.05005475 3.89387191,0.990389984 C3.26649212,0.954608043 2.75181782,1.07394697 2.34984742,1.34835038 C1.92533356,1.64268903 1.71307729,2.05634782 1.71307832,2.58930794 C1.71307729,3.24559215 1.89527955,3.74078715 2.25968549,4.07488351 L3.43742678,4.07488351 L4.22634432,4.89821591 L2.55834711,4.89821591 L2.55834711,12.6303484 L1.6229162,11.6459268 L1.6229162,4.89821591 M9.08382315,4.89821591 L6.46348916,4.89821591 C6.59121575,5.06129773 6.67574271,5.21840178 6.71707005,5.36953748 C6.76214853,5.54058023 6.80722795,5.71160419 6.85231301,5.88262814 C6.90114638,6.20878237 6.91430026,6.46732028 6.89175585,6.65823249 C6.84666797,7.03211477 6.73021265,7.35825959 6.54237767,7.63667636 C6.79783366,7.88327757 7.19041428,8.00657347 7.72011953,8.00657347 C8.30992472,8.00657347 8.76449071,7.82958116 9.08382315,7.47559654 L9.08382315,4.89821591 M3.40361327,4.89821591 L2.63160102,4.07488351 L11.1744519,4.07488351 L11.9464639,4.89821591 L10.013616,4.89821591 L10.013616,12.6303484 L9.08382033,11.6280311 L9.08382033,8.48387279 C8.73068068,8.68672171 8.32307296,8.78814617 7.86099718,8.78814617 C7.21858962,8.78814617 6.67386103,8.65291356 6.22681141,8.38243893 C6.00891753,8.73245718 5.72340443,8.89156322 5.37027211,8.85973825 C5.85113336,9.86205555 6.69828054,11.1268865 7.91171411,12.6542124 L7.68067386,12.9107577 C6.84291496,12.0317363 6.10659273,11.1507412 5.47170437,10.2677534 C4.64897472,9.12225194 4.23761108,8.28102387 4.23761192,7.74406918 C4.23761108,7.51736563 4.30335388,7.32445144 4.43484128,7.1653548 C4.57008311,7.00626756 4.74289344,6.92670514 4.95327283,6.92670514 C5.2462976,6.92670514 5.5036346,7.00630515 5.72528526,7.1653548 C5.9882548,6.90682628 6.11974098,6.6025529 6.1197438,6.25252525 C6.11974098,5.75934164 6.00891753,5.4073308 5.7872712,5.19652094 C5.73842889,5.14487351 5.69147203,5.09112071 5.64639327,5.03543172 C5.58628356,4.97973332 5.49048608,4.93203347 5.35900188,4.89224756 L3.40361327,4.89804673 M11.9915481,4.89821591 L11.1575488,4.89821591 L10.3686317,4.07488351 L12.0028184,4.07488351 C11.6271428,3.49020077 11.439305,2.77824636 11.4393059,1.93900147 C11.439305,1.32251256 11.6928859,0.837261699 12.2000477,0.483258279 C12.6395866,0.177011109 13.1674092,0.0238640262 13.7835184,0.0238640262 C14.9518631,0.0238640262 16.0375635,0.43355644 17.0406205,1.25289427 C18.1976931,2.19954137 19.0110287,3.16604853 19.4806303,4.15244395 L19.1932393,4.15244395 C18.5921516,3.21377659 17.9046665,2.47596556 17.1307831,1.93900147 C16.3042927,1.36626484 15.3481996,1.05005475 14.2625039,0.990389984 C13.6351234,0.954608043 13.120449,1.07394697 12.7184788,1.34835038 C12.2939651,1.64268903 12.0817097,2.05634782 12.0817097,2.58930794 C12.0817097,3.24559215 12.2639109,3.74078715 12.6283172,4.07488351 L13.806059,4.07488351 L14.5949761,4.89821591 L12.9269794,4.89821591 L12.9269794,12.6303484 L11.9915481,11.6459268 L11.9915481,4.89821591 M13.7722481,4.89821591 L13.0002351,4.07488351 L20.8161548,4.07488351 L21.5881668,4.89821591 L19.6327782,4.89821591 L19.6327782,12.6303484 L18.6973479,11.6280311 L18.6973479,7.37416268 L17.0913375,7.37416268 C16.3775512,7.37417208 15.8891742,7.54520543 15.6262047,7.88725334 C15.4496353,8.11397569 15.3575948,8.46995289 15.3500822,8.95519436 C15.3425921,9.37282891 15.4834454,9.79443924 15.772718,10.2200253 L17.2209448,12.3618757 L17.0237155,12.5945476 L15.4627854,10.5302577 C15.1885418,10.1683215 14.9875558,9.79643183 14.8598264,9.41458861 C14.7020428,8.94525023 14.6231514,8.5793383 14.6231514,8.31681521 C14.6231514,8.12193663 14.6344236,7.9469275 14.6569671,7.79179723 C14.7170727,7.38610879 14.9105471,7.05995456 15.2373846,6.81334396 C15.5454373,6.57867947 15.8985713,6.46135193 16.2967885,6.46134253 L18.6973526,6.46134253 L18.6973526,4.89821591 L13.7722528,4.89821591 M20.7823448,4.89821591 L20.0103327,4.07488351 L30.5423818,4.07488351 L31.3143948,4.89821591 L26.1019031,4.89821591 L26.1019031,7.19517778 C26.2145998,7.08780376 26.2972498,7.0142097 26.3498484,6.97443319 C26.4775731,6.87501071 26.6034236,6.80738501 26.7274019,6.77158427 C26.9828551,6.69605401 27.2214089,6.65823249 27.4430633,6.65823249 C28.0178385,6.65823249 28.4930673,6.87102554 28.8687504,7.29661164 C29.2444166,7.71822197 29.4322544,8.23727159 29.4322619,8.8537793 C29.4322544,9.3469817 29.2669572,9.81233491 28.9363714,10.2498483 C28.6884186,10.5879393 28.2995948,10.8703412 27.7699008,11.0970448 L27.3585373,10.2498483 C27.891988,9.98734404 28.2488788,9.78051934 28.4292106,9.62936485 C28.8274174,9.29924425 29.0265255,8.93730809 29.026534,8.54353756 C29.0265255,8.18954354 28.8706199,7.86935767 28.5588179,7.58297996 C28.3597032,7.40399506 28.0497716,7.33638815 27.6290232,7.38013103 C27.4299075,7.40004748 27.185719,7.53923707 26.8964568,7.79776559 C26.6109372,8.05231834 26.3460869,8.36455266 26.1019031,8.73444977 L26.1019031,12.6303484 L25.1664728,11.6280311 L25.1664728,9.89187853 C25.0049277,10.0828001 24.7663748,10.2478651 24.4508114,10.3870735 C24.1352414,10.5223155 23.8516063,10.5899224 23.599908,10.5899224 C23.0551757,10.5899224 22.5893393,10.3930419 22.2023962,9.99927135 C21.8192061,9.60551022 21.6276125,9.12025936 21.6276134,8.54353756 C21.6276125,7.95486965 21.8098156,7.46962818 22.17422,7.08779436 C22.5386234,6.70198477 22.998825,6.50907998 23.5548267,6.50907058 C24.2610919,6.50907998 24.798307,6.82727326 25.1664728,7.46365982 L25.1664728,7.82758857 C24.8358747,7.51736563 24.4564433,7.36223536 24.0281766,7.36223536 C23.4796893,7.36223536 23.0551757,7.47559654 22.7546384,7.70230009 C22.341395,8.01255122 22.1159895,8.42620061 22.0784236,8.94325765 C22.0558801,9.26942127 22.1404109,9.53193495 22.3320045,9.73079871 C22.4897862,9.88989535 22.7076773,9.96944837 22.9856786,9.96944837 C23.383892,9.96944837 23.840336,9.75467213 24.3550141,9.32510086 C24.8959822,8.87167497 25.1664681,8.43813732 25.1664728,8.02447854 L25.1664728,4.89821591 L20.7823448,4.89821591 M25.8708619,1.92707416 L25.0875796,2.74442881 L24.3099319,1.92707416 L25.0875796,1.0977734 L25.8708619,1.92707416 M44.2920884,6.44940581 L44.2920884,5.83490009 C45.8210769,5.82716472 46.6757362,5.88267514 46.8560708,6.00194827 C47.1791402,6.21275814 47.3406806,6.32016035 47.3406919,6.32411733 C47.5210039,6.46732028 47.6261936,6.62044857 47.6562591,6.78352098 C47.6825481,6.93068091 47.6956925,7.06393034 47.6957019,7.18324107 C47.6956907,7.5213414 47.5566909,7.83554951 47.2787027,8.1258936 C47.2073165,8.20152724 47.000692,8.33273709 46.6588387,8.51966413 C46.5048015,8.60718749 46.3488968,8.64893779 46.1911235,8.64495262 C46.281272,9.22169322 46.6193827,9.60153445 47.2054461,9.78449512 C47.3970285,9.82027706 47.5191232,9.83817273 47.5717293,9.83817273 C47.891042,9.83817273 48.2141209,9.70890847 48.5409706,9.45037055 C48.8677959,9.18786626 49.1345241,8.84580896 49.341158,8.42418923 C49.4989285,8.10998112 49.5778207,7.714218 49.5778339,7.23692808 L49.5834968,4.89819712 L45.3515177,4.89819712 L44.5625997,4.07486471 L51.9953312,4.07486471 L52.7842483,4.89819712 L50.4118605,4.89819712 L50.4118605,12.6303202 L49.6060374,11.8070066 L49.5947652,9.34297773 C49.3693475,9.61742813 49.1063751,9.84810745 48.8058482,10.0350533 C48.4639713,10.2498389 48.1427694,10.3572223 47.8422415,10.3572223 C47.0533132,10.3572223 46.4522339,10.0390291 46.0390009,9.4026425 C45.7685056,8.98500794 45.6332626,8.51169379 45.633272,7.98270004 C45.9676137,7.98270004 46.2380996,7.93695518 46.4447307,7.84547484 C46.6851521,7.73808203 46.8410568,7.66052159 46.9124459,7.61279354 C47.0927588,7.48552187 47.2129747,7.32045687 47.2730944,7.11760795 C47.2355144,6.79145372 47.05707,6.57866067 46.7377563,6.4792288 C46.6776423,6.4513702 45.862424,6.44141668 44.2920884,6.44934002 M42.2014822,8.35255015 C42.1977367,8.63892787 42.2803679,8.923313 42.4494275,9.20570554 C42.6372587,9.52390822 42.8589075,9.68299546 43.1143728,9.68299546 C43.3623115,9.65117989 43.5614187,9.42446695 43.7116963,9.00285662 C43.8356614,8.65682354 43.8976552,8.33066931 43.8976552,8.02441275 C43.8300229,7.36416216 43.623405,6.99426505 43.2777911,6.91470263 C43.0260825,6.91470263 42.7368137,7.1792089 42.4099818,7.70820265 C42.2747332,7.92696406 42.2052333,8.14174969 42.2014822,8.35255015 M40.6067412,12.6184023 C39.92301,12.6184023 39.3463493,12.4532809 38.8767581,12.1231509 C38.3320276,11.7413265 38.0596638,11.2023886 38.0596657,10.5063279 C38.0596638,10.0091497 38.2437439,9.58953194 38.6119069,9.24746524 C38.1723661,9.24747463 37.8173532,9.08240964 37.5468683,8.75227964 C37.2876518,8.43807153 37.1580435,8.044301 37.1580444,7.57097745 C37.1580435,7.2209686 37.3064356,6.9047679 37.6032199,6.62235656 C37.888731,6.34394919 38.1986626,6.2047408 38.5330156,6.2047314 L39.6656761,6.2047314 L40.5672955,7.17124796 C40.4583462,7.17124796 40.2930491,7.16738498 40.071405,7.15935824 C39.8497534,7.14745913 39.6825774,7.14146257 39.5698788,7.14146257 C38.9800671,7.14147197 38.5687026,7.21903241 38.3357863,7.37414388 C37.9901639,7.6048514 37.8173532,7.84547484 37.8173551,8.09605182 C37.8173532,8.63301591 38.0822035,8.90147915 38.6119069,8.90147915 C39.1528759,8.90147915 39.6919698,8.80403986 40.2291886,8.60914248 L41.1026326,9.50405756 C40.5353587,9.50406696 40.058252,9.5796912 39.6713108,9.73077991 C39.1115523,9.94954131 38.8316749,10.3055185 38.8316777,10.7987209 C38.8316749,11.6300049 39.3425916,12.0456468 40.3644315,12.0456468 C40.7363457,12.0456468 41.1984252,11.8070066 41.750673,11.3297073 C42.2014766,10.9399219 42.5677588,10.5342147 42.8495226,10.1126137 C41.7788427,9.59157152 41.2435056,8.90744751 41.2435112,8.06025108 C41.2435056,7.5630823 41.3918977,7.12954466 41.6886857,6.75962876 C42.0004905,6.37382857 42.3874355,6.176948 42.8495226,6.16898706 L42.8495226,4.89819712 L36.3353173,4.89819712 L35.5463984,4.07486471 L44.607681,4.07486471 L45.396598,4.89819712 L43.6215346,4.89819712 L43.6215346,6.2047784 C44.1925522,6.78151899 44.4780652,7.54319405 44.4780736,8.48982235 C44.4780652,9.98931782 43.8112428,11.1566907 42.4776037,11.9919504 C41.8126527,12.409585 41.1890328,12.6184023 40.6067412,12.6184023 M50.1751602,4.07488351 C49.8783796,3.58964205 49.6398259,3.21974494 49.4594997,2.9651828 C48.71191,1.90321013 48.2798837,1.30460749 48.1634199,1.16936548 C47.4984802,0.389804159 46.8898864,7.10542736e-15 46.3376405,7.10542736e-15 C45.9394299,7.10542736e-15 45.4754715,0.0835569882 44.9457634,0.250576975 L45.9713573,1.35431873 C46.3282538,1.29861094 46.5874693,1.27076174 46.7490041,1.27076174 C47.2711967,1.27077114 47.8647624,1.61282845 48.5297031,2.29694307 C49.0631642,2.84583447 49.4989482,3.43847815 49.8370532,4.07488351 L50.1751602,4.07488351 M52.5193726,4.89821591 L51.6853742,4.89821591 L50.8964572,4.07488351 L52.5306429,4.07488351 C52.1549673,3.49020077 51.9671305,2.77824636 51.9671305,1.93900147 C51.9671305,1.32251256 52.2207104,0.837261699 52.7278731,0.483258279 C53.1674111,0.177011109 53.6952337,0.0238640262 54.311342,0.0238640262 C55.4796886,0.0238640262 56.5653881,0.43355644 57.5684451,1.25289427 C58.7255176,2.19954137 59.5388533,3.16604853 60.0084548,4.15244395 L59.7210629,4.15244395 C59.1199762,3.21377659 58.4324911,2.47596556 57.6586077,1.93900147 C56.8321172,1.36626484 55.8760251,1.05005475 54.7903284,0.990389984 C54.1629489,0.954608043 53.6482745,1.07394697 53.2463043,1.34835038 C52.8217906,1.64268903 52.6095343,2.05634782 52.6095352,2.58930794 C52.6095343,3.24559215 52.7917355,3.74078715 53.1561417,4.07488351 L54.3338836,4.07488351 L55.1228006,4.89821591 L53.4548039,4.89821591 L53.4548039,12.6303484 L52.5193726,11.6459268 L52.5193726,4.89821591 M60.8199135,11.6220721 L60.8199135,7.32047567 C60.737255,7.30858595 60.6546107,7.3025894 60.5719682,7.3025894 C59.9896662,7.3025894 59.538857,7.56709567 59.2195377,8.09608002 C59.0166691,8.43814672 58.8006559,8.84981292 58.5714983,9.33106922 L57.8163922,8.56143323 L58.2784727,8.01255122 C58.0906311,7.74208599 57.959144,7.57503781 57.8840132,7.51139728 C57.7299826,7.38014983 57.5346322,7.31451671 57.297961,7.31450731 C56.4977708,7.31451671 56.0976767,7.69238416 56.0976785,8.44808145 C56.0976767,8.54752273 56.1051686,8.65491554 56.1202229,8.7702505 C56.1352491,8.89754098 56.2009903,9.07651647 56.3174522,9.30721459 C56.4789898,9.62540787 56.5916921,9.84019351 56.6555591,9.9515527 C56.8020705,10.1981539 56.9467059,10.3910681 57.0894643,10.5302671 C57.5064606,10.9837024 58.0286476,11.534577 58.65603,12.1829002 L58.4137194,12.4334772 C57.9779326,12.0118669 57.3561906,11.4212158 56.5484925,10.6615239 C55.6130602,9.80637596 55.1453451,8.92935654 55.145346,8.03045629 C55.1453451,7.5770304 55.2768312,7.20314812 55.5398045,6.90881887 C55.8027759,6.61051384 56.1465185,6.46136132 56.5710331,6.46135193 C56.9767591,6.46136132 57.3580694,6.58465723 57.7149631,6.83125843 C57.9027971,6.96252467 58.1601338,7.28270114 58.4869751,7.79180663 C58.6935921,7.51338986 58.9997669,7.28468433 59.4055014,7.10569943 C59.7774136,6.93865125 60.1324265,6.85512246 60.4705391,6.85512246 C60.6057764,6.85512246 60.7222354,6.87098795 60.8199172,6.9028975 L60.8199172,4.89827231 L54.3000764,4.89827231 L53.5280652,4.07493991 L62.9218191,4.07493991 L63.7107371,4.89827231 L61.7666188,4.89827231 L61.7666188,12.6304048 L60.8199172,11.6221191 M65.1251483,10.0828001 L63.9586777,8.47193608 C63.8384609,8.3048879 63.7652033,8.14181548 63.7389068,7.98271884 L63.7389068,7.70230009 C63.7764774,7.58696513 63.8835413,7.52928355 64.0601097,7.52928355 L65.1026076,7.52928355 L65.1026076,4.89821591 L62.9105432,4.89821591 L62.1328964,4.07488351 L70.3432747,4.07488351 L71.1321917,4.89821591 L69.2162497,4.89821591 L69.2162497,12.6303484 L68.1624805,11.508711 L68.1624805,4.89821591 L65.9422416,4.89821591 L65.9422416,9.70693468 C65.9497317,9.76263307 65.9535044,9.83421575 65.9535138,9.92172032 C65.953511,10.2041129 65.8614705,10.3751462 65.6773923,10.4348016 C65.6398227,10.4466913 65.6116511,10.4526878 65.5928616,10.4526878 C65.5214847,10.4526878 65.4425896,10.4089732 65.3561866,10.321431 L65.1251464,10.0827907 M68.1568449,14.1755887 L67.4919004,13.4417441 C67.9089034,13.0996868 68.3578337,12.9405807 68.8386953,12.9644541 C69.244426,12.9843706 69.5862897,13.1911577 69.8642882,13.5849282 C70.119748,13.950859 70.2474764,14.3565474 70.2474764,14.8020312 C70.2474764,15.3350007 70.0389787,15.7426911 69.6219777,16.0250837 C69.2688446,16.2677091 68.8274268,16.3890218 68.2977225,16.3890218 C67.546377,16.3890218 66.7424328,16.0012196 65.88589,15.2256247 C65.2021664,14.6051506 64.6086007,13.8732985 64.1051891,13.0300779 L64.4602029,13.0300779 C64.7870461,13.6227122 65.3524364,14.2034191 66.1563759,14.7721988 C67.0016484,15.3688088 67.730458,15.6671139 68.3428048,15.6671233 C69.3533716,15.6671139 69.8586535,15.3568721 69.8586535,14.7364074 C69.8586535,14.5295639 69.7591004,14.3287076 69.5599914,14.1338196 C69.3608851,13.942898 69.1636558,13.8474419 68.9683035,13.8474419 C68.6489814,13.8474419 68.3784955,13.9568273 68.1568449,14.1755887 M76.1192788,4.89821591 L75.3472658,4.07488351 L82.7292804,4.07488351 L83.5125637,4.89821591 L81.2641476,4.89821591 L81.2641476,6.99829721 L78.8297745,6.99829721 C78.4916638,6.99830661 78.2775295,7.01018693 78.1873688,7.03407916 C78.0483672,7.0698611 77.916882,7.13153724 77.7929103,7.21903241 C77.631369,7.330401 77.5505997,7.44772854 77.5505997,7.57102444 C77.5505997,8.10798853 77.7196527,8.52760627 78.0577615,8.82988707 C78.6776237,8.43215017 79.2486488,8.23327702 79.7708395,8.23327702 C80.2178891,8.23327702 80.623618,8.37647057 80.988027,8.66283889 C81.3824809,8.9770564 81.5797102,9.36287539 81.5797149,9.82026766 C81.5797102,10.6356485 81.329886,11.2302754 80.8302434,11.6041483 L80.249825,10.9061137 C80.4677133,10.8225474 80.6555501,10.6654715 80.8133384,10.4347828 C80.9748732,10.2001183 81.0556434,9.96346121 81.055649,9.72481155 C81.0556434,9.51401109 80.9786262,9.32706525 80.8246088,9.16399284 C80.6705772,8.99694466 80.4940107,8.91341586 80.2949073,8.91341586 C79.7652011,8.91341586 79.2524055,9.10234489 78.7565169,9.48020293 C78.2155432,9.89385232 77.9450573,10.3691591 77.9450592,10.9061137 C77.9450573,11.5345488 78.3057049,12.0516152 79.0270028,12.457313 C79.7032148,12.8351711 80.2911458,13.1155711 80.7907978,13.2985411 L80.6442845,13.5968461 C80.0770115,13.4019582 79.5022287,13.1473866 78.9199352,12.8331785 C78.134773,12.4075924 77.6482749,12.0257586 77.460438,11.6876677 C77.242546,11.2939159 77.1336005,10.8544099 77.1336015,10.3691591 C77.1336005,9.87198088 77.3270721,9.44042642 77.7140199,9.07449569 C77.2181265,8.60119094 76.9701822,8.03441327 76.9701832,7.37414388 C76.9701822,6.55479665 77.4679497,6.14513243 78.4634913,6.14512303 L80.3287173,6.14512303 L80.3287173,4.89819712 L76.1192788,4.89819712 M83.5351035,4.89821591 L82.7011041,4.89821591 L81.9121871,4.07488351 L83.5463728,4.07488351 C83.1706982,3.49020077 82.9828604,2.77824636 82.9828604,1.93900147 C82.9828604,1.32251256 83.2364413,0.837261699 83.7436021,0.483258279 C84.1831401,0.177011109 84.7109636,0.0238640262 85.3270728,0.0238640262 C86.4954185,0.0238640262 87.581118,0.43355644 88.5841769,1.25289427 C89.7412456,2.19954137 90.5545832,3.16604853 91.0241847,4.15244395 L90.7367919,4.15244395 C90.1357023,3.21377659 89.44822,2.47596556 88.6743348,1.93900147 C87.8478471,1.36626484 86.891755,1.05005475 85.8060583,0.990389984 C85.1786788,0.954608043 84.6640044,1.07394697 84.2620342,1.34835038 C83.8375205,1.64268903 83.6252632,2.05634782 83.6252642,2.58930794 C83.6252632,3.24559215 83.8074663,3.74078715 84.1718726,4.07488351 L85.3496125,4.07488351 L86.1385315,4.89821591 L84.4705338,4.89821591 L84.4705338,12.6303484 L83.5351035,11.6459268 L83.5351035,4.89821591 M91.8356462,11.6220721 L91.8356462,7.32047567 C91.7529727,7.30858595 91.6703462,7.3025894 91.5877009,7.3025894 C91.0053961,7.3025894 90.5545926,7.56709567 90.2352686,8.09608002 C90.0323999,8.43814672 89.8163868,8.84981292 89.5872292,9.33106922 L88.832124,8.56143323 L89.2942026,8.01255122 C89.1063601,7.74208599 88.9748786,7.57503781 88.8997469,7.51139728 C88.745721,7.38014983 88.5503696,7.31451671 88.3136947,7.31450731 C87.5135036,7.31451671 87.1134103,7.69238416 87.1134122,8.44808145 C87.1134103,8.54752273 87.1209032,8.65491554 87.1359566,8.7702505 C87.1509828,8.89754098 87.216724,9.07651647 87.3331849,9.30721459 C87.4947234,9.62540787 87.6074267,9.84019351 87.6712928,9.9515527 C87.8178042,10.1981539 87.9624358,10.3910681 88.1051904,10.5302671 C88.5221896,10.9837024 89.0443738,11.534577 89.6717599,12.1829002 L89.4294484,12.4334772 C88.9936587,12.0118669 88.3719177,11.4212158 87.5642252,10.6615239 C86.6287939,9.80637596 86.1610787,8.92935654 86.1610797,8.03045629 C86.1610787,7.5770304 86.2925649,7.20314812 86.5555382,6.90881887 C86.8185096,6.61051384 87.1622522,6.46136132 87.5867658,6.46135193 C87.9924881,6.46136132 88.3737994,6.58465723 88.7306939,6.83125843 C88.918527,6.96252467 89.1758647,7.28270114 89.5027069,7.79180663 C89.7093211,7.51338986 90.0155005,7.28468433 90.4212285,7.10569943 C90.7931388,6.93865125 91.1481573,6.85512246 91.4862671,6.85512246 C91.6214997,6.85512246 91.7379719,6.87098795 91.8356462,6.9028975 L91.8356462,4.89827231 L85.315811,4.89827231 L84.5437989,4.07493991 L93.9375509,4.07493991 L94.7264642,4.89827231 L92.7823497,4.89827231 L92.7823497,12.6304048 L91.8356462,11.6221191 M96.8959852,10.6257138 C96.8659367,10.649606 96.7513442,10.6614957 96.5522455,10.6614957 C96.4658312,10.6614957 96.0432058,10.186189 95.2843411,9.23559432 C95.2204937,9.16005466 95.1058919,9.02478445 94.9406013,8.82988707 C94.8241385,8.68670292 94.7659024,8.54551134 94.7659024,8.40629356 C94.7659024,8.13582833 94.9293319,8.00059571 95.2561629,8.00058632 C95.455271,8.00059571 95.7332742,8.0044587 96.0901631,8.01248543 L96.0901631,4.89815012 L93.9262815,4.89815012 L93.1542676,4.07482712 L101.601325,4.07482712 L102.373338,4.89815012 L100.429215,4.89815012 L100.429215,12.6302826 L99.397986,11.5384869 L99.397986,9.03866676 L96.9974191,9.03866676 C96.9974191,9.49209265 97.0010753,9.89381473 97.0086603,10.243833 C97.0123165,10.4347546 96.9748615,10.5620263 96.8959476,10.6256574 M99.3979484,4.89815012 L96.9973909,4.89815012 L96.9973909,8.01248543 L99.3979484,8.01248543 L99.3979484,4.89815012 M107.247728,4.89821591 L104.627385,4.89821591 C104.755107,5.06129773 104.839632,5.21840178 104.88096,5.36953748 C104.926084,5.54058023 104.971115,5.71160419 105.016202,5.88262814 C105.065077,6.20878237 105.078226,6.46732028 105.055668,6.65823249 C105.010638,7.03211477 104.894118,7.35825959 104.706289,7.63667636 C104.961744,7.88327757 105.35433,8.00657347 105.884029,8.00657347 C106.473834,8.00657347 106.928407,7.82958116 107.247728,7.47559654 L107.247728,4.89821591 M101.567526,4.89821591 L100.795512,4.07488351 L109.338363,4.07488351 L110.110377,4.89821591 L108.177523,4.89821591 L108.177523,12.6303484 L107.247728,11.6280311 L107.247728,8.48387279 C106.894589,8.68672171 106.486993,8.78814617 106.02491,8.78814617 C105.382499,8.78814617 104.837771,8.65291356 104.390728,8.38243893 C104.172831,8.73245718 103.887318,8.89156322 103.534188,8.85973825 C104.015041,9.86205555 104.862199,11.1268865 106.075627,12.6542124 L105.844591,12.9107577 C105.006822,12.0317363 104.270505,11.1507412 103.635613,10.2677534 C102.812891,9.12225194 102.401526,8.28102387 102.401526,7.74406918 C102.401526,7.51736563 102.467291,7.32445144 102.598754,7.1653548 C102.733996,7.00626756 102.906806,6.92670514 103.117184,6.92670514 C103.410216,6.92670514 103.667551,7.00630515 103.889198,7.1653548 C104.152172,6.90682628 104.283654,6.6025529 104.283654,6.25252525 C104.283654,5.75934164 104.172831,5.4073308 103.951184,5.19652094 C103.902319,5.14487351 103.85538,5.09112071 103.810303,5.03543172 C103.750196,4.97973332 103.654392,4.93203347 103.52291,4.89224756 L101.567526,4.89804673 M111.000715,7.37416268 C111.000715,7.71622938 111.088953,8.02647112 111.26556,8.3048879 C111.468427,8.62309058 111.722003,8.78217782 112.026304,8.78217782 C112.293029,8.78217782 112.584181,8.65888192 112.899752,8.41228071 C113.204044,8.17760682 113.414422,7.92504666 113.530885,7.65457203 L113.530885,4.89821591 L111.000715,4.89821591 L111.000715,7.37416268 M114.381794,12.6303484 L113.530885,11.7115599 L113.530885,9.13417925 C113.222823,9.32907663 112.802068,9.42652532 112.26861,9.42652532 C111.735152,9.42652532 111.235502,9.14015701 110.769669,8.56739218 C110.356424,8.06227186 110.149806,7.56906006 110.149806,7.08779436 L110.149806,4.89821591 L109.321445,4.89821591 L108.543792,4.07488351 L119.222365,4.07488351 L120,4.89821591 L114.404323,4.89821591 L114.404323,7.27870657 C114.795029,6.91279464 115.198876,6.72982457 115.61588,6.72982457 C116.314629,6.72982457 116.900675,6.9863699 117.374036,7.49945116 C117.851138,8.01255122 118.089694,8.63900306 118.089703,9.37878787 C118.089694,10.0310963 117.826719,10.7609558 117.30078,11.5683663 L116.444241,10.6555556 C116.534406,10.5800159 116.684667,10.4288426 116.895054,10.2021203 C117.214366,9.76460686 117.374027,9.27538962 117.374036,8.73444977 C117.374027,8.39239246 117.246304,8.12193663 116.990849,7.92305408 C116.765433,7.74406918 116.485559,7.65457203 116.151219,7.65457203 C115.561404,7.65457203 114.969719,7.94493492 114.376154,8.52563249 L114.381634,12.6303484 M113.840816,14.7602621 L114.550844,15.5537621 C114.2766,15.7406985 113.865235,15.8341714 113.316738,15.8341714 C112.971128,15.8341714 112.651807,15.6611549 112.358775,15.3151124 C112.077021,14.9810067 111.93614,14.6290052 111.93614,14.2591081 C111.93614,13.7897697 112.167186,13.4397609 112.629259,13.2090628 C112.986157,13.0300779 113.412542,12.9405807 113.908432,12.9405807 C114.62597,12.9405807 115.439311,13.308504 116.348447,14.0443319 C117.035926,14.6011654 117.680208,15.2773285 118.281292,16.0728117 L117.98263,16.0728117 C116.359716,14.390365 114.932151,13.5491369 113.699935,13.5491369 C112.783289,13.5491369 112.324966,13.8056728 112.324957,14.3187635 C112.324966,14.5057093 112.4264,14.6807184 112.629259,14.8437909 C112.832126,15.0068633 113.023725,15.0883995 113.204044,15.0883995 C113.358075,15.0883995 113.570323,14.9790235 113.840816,14.7602621" id="new-tagline" fill="#000000" fill-rule="nonzero"></path>
    </g>
</svg>