<?xml version="1.0" encoding="UTF-8"?>
<svg xmlns="http://www.w3.org/2000/svg" xmlns:xlink="http://www.w3.org/1999/xlink" width="247pt" height="43pt" viewBox="0 0 247 43" version="1.1">
<g id="surface1">
<path style=" stroke:none;fill-rule:nonzero;fill:rgb(0%,0%,0%);fill-opacity:1;" d="M 48.179688 37.679688 C 48.179688 39.304688 48.328125 40.191406 48.769531 40.636719 C 49.210938 41.078125 50.097656 41.226562 51.570312 41.226562 C 51.71875 41.375 51.71875 41.671875 51.71875 41.964844 C 51.71875 42.261719 51.71875 42.558594 51.570312 42.703125 C 48.917969 42.703125 47.148438 42.558594 46.410156 42.558594 C 45.527344 42.558594 43.90625 42.558594 41.253906 42.703125 C 41.105469 42.558594 41.105469 42.410156 41.105469 41.964844 C 41.105469 41.523438 41.105469 41.375 41.253906 41.226562 C 42.726562 41.226562 43.613281 40.929688 44.054688 40.636719 C 44.496094 40.191406 44.644531 39.304688 44.644531 37.679688 L 44.644531 22.015625 C 44.644531 20.390625 44.496094 19.503906 44.054688 19.0625 C 43.613281 18.617188 42.726562 18.472656 41.253906 18.472656 C 41.105469 18.324219 41.105469 18.175781 41.105469 17.730469 C 41.105469 17.4375 41.105469 17.140625 41.253906 16.992188 C 43.90625 16.992188 45.527344 17.140625 46.410156 17.140625 C 47.296875 17.140625 49.066406 17.140625 51.570312 16.992188 C 51.71875 17.140625 51.71875 17.4375 51.71875 17.730469 C 51.71875 18.027344 51.71875 18.324219 51.570312 18.472656 C 50.097656 18.472656 49.210938 18.765625 48.769531 19.0625 C 48.328125 19.503906 48.179688 20.390625 48.179688 22.015625 Z M 45.085938 14.1875 C 44.644531 13.742188 44.496094 13.300781 44.496094 12.707031 C 44.496094 12.117188 44.644531 11.671875 45.085938 11.230469 C 45.527344 10.785156 45.96875 10.640625 46.558594 10.640625 C 47.148438 10.640625 47.589844 10.785156 48.035156 11.230469 C 48.476562 11.671875 48.621094 12.117188 48.621094 12.707031 C 48.621094 13.300781 48.476562 13.742188 48.035156 14.1875 C 47.589844 14.628906 47.148438 14.777344 46.558594 14.777344 C 45.96875 14.777344 45.527344 14.628906 45.085938 14.1875 Z M 45.085938 14.1875 "/>
<path style=" stroke:none;fill-rule:nonzero;fill:rgb(0%,0%,0%);fill-opacity:1;" d="M 61.003906 37.679688 C 61.003906 39.304688 61.152344 40.191406 61.59375 40.636719 C 62.035156 41.078125 62.921875 41.226562 64.394531 41.226562 C 64.542969 41.375 64.542969 41.671875 64.542969 41.964844 C 64.542969 42.261719 64.542969 42.558594 64.394531 42.703125 C 61.742188 42.703125 59.972656 42.558594 59.234375 42.558594 C 58.351562 42.558594 56.730469 42.558594 54.078125 42.703125 C 53.929688 42.558594 53.929688 42.410156 53.929688 41.964844 C 53.929688 41.523438 53.929688 41.375 54.078125 41.226562 C 55.550781 41.226562 56.433594 40.929688 56.878906 40.636719 C 57.320312 40.191406 57.464844 39.304688 57.464844 37.679688 L 57.464844 22.015625 C 57.464844 20.390625 57.320312 19.503906 56.878906 19.0625 C 56.433594 18.617188 55.550781 18.472656 54.078125 18.472656 C 53.929688 18.324219 53.929688 18.175781 53.929688 17.730469 C 53.929688 17.4375 53.929688 17.140625 54.078125 16.992188 C 56.730469 16.992188 58.351562 17.140625 59.234375 17.140625 C 60.121094 17.140625 61.886719 17.140625 64.394531 16.992188 C 64.542969 17.140625 64.542969 17.4375 64.542969 17.730469 C 64.542969 18.027344 64.542969 18.324219 64.394531 18.472656 C 62.921875 18.472656 62.035156 18.765625 61.59375 19.0625 C 61.152344 19.503906 61.003906 20.390625 61.003906 22.015625 L 61.003906 28.960938 C 62.183594 28.8125 63.214844 28.371094 64.097656 27.484375 L 70.585938 20.539062 C 71.027344 20.097656 71.175781 19.800781 71.320312 19.503906 C 71.46875 19.210938 71.320312 19.0625 71.175781 18.914062 C 70.878906 18.765625 70.730469 18.765625 70.585938 18.617188 C 70.4375 18.617188 69.996094 18.472656 69.554688 18.472656 C 69.40625 18.324219 69.40625 18.175781 69.40625 17.730469 C 69.40625 17.4375 69.40625 17.140625 69.554688 16.992188 C 72.058594 16.992188 73.53125 17.140625 73.976562 17.140625 C 73.976562 17.140625 75.300781 17.140625 77.808594 16.992188 C 77.953125 17.140625 77.953125 17.4375 77.953125 17.730469 C 77.953125 18.027344 77.953125 18.324219 77.808594 18.472656 C 76.332031 18.617188 75.152344 18.914062 74.417969 19.355469 C 73.828125 19.652344 73.386719 20.097656 72.796875 20.6875 L 66.898438 26.597656 C 66.015625 27.484375 65.574219 28.222656 65.574219 28.519531 C 65.574219 28.8125 65.722656 29.109375 66.015625 29.554688 L 74.710938 39.75 C 75.007812 40.042969 75.300781 40.339844 75.449219 40.488281 C 75.742188 40.636719 76.039062 40.785156 76.332031 40.929688 C 76.628906 41.078125 76.921875 41.078125 77.070312 41.226562 C 77.21875 41.375 77.511719 41.375 77.808594 41.375 L 78.25 41.375 C 78.398438 41.523438 78.398438 41.816406 78.398438 42.113281 C 78.398438 42.410156 78.398438 42.703125 78.25 42.851562 C 75.742188 42.851562 74.417969 42.703125 74.269531 42.703125 C 73.828125 42.703125 73.238281 42.703125 72.207031 42.851562 C 72.058594 42.851562 72.058594 42.703125 72.058594 42.558594 C 71.910156 41.816406 71.46875 40.785156 70.585938 39.75 L 64.394531 31.917969 C 63.65625 31.03125 62.476562 30.441406 61.152344 30.441406 L 61.152344 37.679688 Z M 61.003906 37.679688 "/>
<path style=" stroke:none;fill-rule:nonzero;fill:rgb(0%,0%,0%);fill-opacity:1;" d="M 87.683594 37.679688 C 87.683594 39.304688 87.832031 40.191406 88.273438 40.636719 C 88.714844 41.078125 89.597656 41.226562 91.074219 41.226562 C 91.21875 41.375 91.21875 41.671875 91.21875 41.964844 C 91.21875 42.261719 91.21875 42.558594 91.074219 42.703125 C 88.417969 42.703125 86.652344 42.558594 85.914062 42.558594 C 85.03125 42.558594 83.410156 42.558594 80.753906 42.703125 C 80.609375 42.558594 80.609375 42.410156 80.609375 41.964844 C 80.609375 41.523438 80.609375 41.375 80.753906 41.226562 C 82.230469 41.226562 83.113281 40.929688 83.554688 40.636719 C 83.996094 40.191406 84.144531 39.304688 84.144531 37.679688 L 84.144531 22.015625 C 84.144531 20.390625 83.996094 19.503906 83.554688 19.0625 C 83.113281 18.617188 82.230469 18.472656 80.753906 18.472656 C 80.609375 18.324219 80.609375 18.175781 80.609375 17.730469 C 80.609375 17.4375 80.609375 17.140625 80.753906 16.992188 C 83.410156 16.992188 85.03125 17.140625 85.914062 17.140625 C 86.796875 17.140625 88.566406 17.140625 91.074219 16.992188 C 91.21875 17.140625 91.21875 17.4375 91.21875 17.730469 C 91.21875 18.027344 91.21875 18.324219 91.074219 18.472656 C 89.597656 18.472656 88.714844 18.765625 88.273438 19.0625 C 87.832031 19.503906 87.683594 20.390625 87.683594 22.015625 Z M 84.441406 14.1875 C 83.996094 13.742188 83.851562 13.300781 83.851562 12.707031 C 83.851562 12.117188 83.996094 11.671875 84.441406 11.230469 C 84.882812 10.785156 85.324219 10.640625 85.914062 10.640625 C 86.503906 10.640625 86.945312 10.785156 87.386719 11.230469 C 87.832031 11.671875 87.976562 12.117188 87.976562 12.707031 C 87.976562 13.300781 87.832031 13.742188 87.386719 14.1875 C 86.945312 14.628906 86.503906 14.777344 85.914062 14.777344 C 85.324219 14.777344 84.882812 14.628906 84.441406 14.1875 Z M 84.441406 14.1875 "/>
<path style=" stroke:none;fill-rule:nonzero;fill:rgb(0%,0%,0%);fill-opacity:1;" d="M 100.359375 37.679688 C 100.359375 39.304688 100.507812 40.191406 100.949219 40.636719 C 101.390625 41.078125 102.273438 41.226562 103.75 41.226562 C 103.894531 41.375 103.894531 41.671875 103.894531 41.964844 C 103.894531 42.261719 103.894531 42.558594 103.75 42.703125 C 101.097656 42.703125 99.328125 42.558594 98.589844 42.558594 C 97.707031 42.558594 96.085938 42.558594 93.429688 42.703125 C 93.285156 42.558594 93.285156 42.410156 93.285156 41.964844 C 93.285156 41.523438 93.285156 41.375 93.429688 41.226562 C 94.90625 41.226562 95.789062 40.929688 96.230469 40.636719 C 96.675781 40.191406 96.820312 39.304688 96.820312 37.679688 L 96.820312 22.015625 C 96.820312 20.390625 96.675781 19.503906 96.230469 19.0625 C 95.789062 18.617188 94.90625 18.472656 93.429688 18.472656 C 93.429688 18.324219 93.285156 18.027344 93.285156 17.730469 C 93.285156 17.4375 93.285156 17.140625 93.429688 16.992188 C 96.085938 16.992188 97.707031 17.140625 98.589844 17.140625 C 99.472656 17.140625 101.242188 17.140625 103.75 16.992188 C 103.894531 17.140625 103.894531 17.4375 103.894531 17.730469 C 103.894531 18.027344 103.894531 18.324219 103.75 18.472656 C 102.273438 18.472656 101.390625 18.765625 100.949219 19.0625 C 100.507812 19.503906 100.359375 20.390625 100.359375 22.015625 L 100.359375 28.960938 C 101.539062 28.8125 102.570312 28.371094 103.453125 27.484375 L 109.941406 20.539062 C 110.382812 20.097656 110.527344 19.800781 110.675781 19.503906 C 110.824219 19.210938 110.675781 19.0625 110.527344 18.914062 C 110.234375 18.765625 110.085938 18.765625 109.941406 18.617188 C 109.792969 18.617188 109.351562 18.472656 108.90625 18.472656 C 108.761719 18.324219 108.761719 18.175781 108.761719 17.730469 C 108.761719 17.4375 108.761719 17.140625 108.90625 16.992188 C 111.414062 16.992188 112.886719 17.140625 113.328125 17.140625 C 113.328125 17.140625 114.65625 17.140625 117.160156 16.992188 C 117.308594 17.140625 117.308594 17.4375 117.308594 17.730469 C 117.308594 18.027344 117.308594 18.324219 117.160156 18.472656 C 115.6875 18.617188 114.507812 18.914062 113.773438 19.355469 C 113.183594 19.652344 112.738281 20.097656 112.152344 20.6875 L 106.253906 26.597656 C 105.371094 27.484375 104.929688 28.222656 104.929688 28.519531 C 104.929688 28.8125 105.074219 29.109375 105.371094 29.554688 L 114.066406 39.75 C 114.363281 40.042969 114.65625 40.339844 114.804688 40.488281 C 115.097656 40.636719 115.394531 40.785156 115.6875 40.929688 C 115.984375 41.078125 116.277344 41.078125 116.425781 41.226562 C 116.574219 41.375 116.867188 41.375 117.160156 41.375 L 117.605469 41.375 C 117.75 41.523438 117.75 41.816406 117.75 42.113281 C 117.75 42.410156 117.75 42.703125 117.605469 42.851562 C 115.097656 42.851562 113.773438 42.703125 113.625 42.703125 C 113.183594 42.703125 112.59375 42.703125 111.5625 42.851562 C 111.414062 42.851562 111.414062 42.703125 111.414062 42.558594 C 111.265625 41.816406 110.824219 40.785156 109.941406 39.75 L 103.601562 31.917969 C 102.863281 31.03125 101.683594 30.441406 100.359375 30.441406 Z M 100.359375 37.679688 "/>
<path style=" stroke:none;fill-rule:nonzero;fill:rgb(0%,0%,0%);fill-opacity:1;" d="M 124.089844 39.453125 C 124.089844 39.75 124.089844 39.898438 123.941406 40.191406 C 123.941406 40.339844 123.941406 40.488281 124.238281 40.636719 C 124.53125 40.785156 124.53125 40.929688 124.679688 40.929688 C 124.828125 40.929688 124.972656 41.078125 125.269531 41.078125 C 125.5625 41.078125 125.859375 41.226562 126.003906 41.226562 C 126.152344 41.226562 126.449219 41.226562 126.742188 41.375 C 126.890625 41.523438 126.890625 41.816406 126.890625 42.113281 C 126.890625 42.410156 126.890625 42.703125 126.742188 42.851562 C 124.828125 42.851562 123.058594 42.703125 121.730469 42.703125 C 121.289062 42.703125 120.109375 42.703125 118.195312 42.851562 C 118.046875 42.703125 118.046875 42.558594 118.046875 42.113281 C 118.046875 41.671875 118.046875 41.523438 118.195312 41.375 C 119.226562 41.226562 119.960938 41.078125 120.550781 40.785156 C 121.140625 40.488281 121.730469 39.75 122.171875 38.566406 L 131.164062 17.4375 C 131.753906 17.4375 132.492188 17.140625 133.375 16.699219 L 141.480469 39.304688 C 141.628906 39.75 141.777344 40.191406 142.070312 40.488281 C 142.367188 40.785156 142.660156 40.929688 142.957031 41.078125 C 143.398438 41.226562 143.691406 41.375 143.839844 41.375 C 143.988281 41.375 144.429688 41.375 145.019531 41.523438 C 145.167969 41.671875 145.167969 41.964844 145.167969 42.261719 C 145.167969 42.558594 145.167969 42.851562 145.019531 43 C 143.105469 43 141.480469 42.851562 140.449219 42.851562 C 138.976562 42.851562 137.207031 42.851562 135.292969 43 C 135.144531 42.851562 135.144531 42.703125 135.144531 42.261719 C 135.144531 41.816406 135.144531 41.671875 135.292969 41.523438 C 135.4375 41.523438 135.585938 41.523438 135.882812 41.523438 C 136.175781 41.523438 136.324219 41.523438 136.472656 41.523438 C 136.617188 41.523438 136.765625 41.523438 137.058594 41.523438 C 137.355469 41.523438 137.503906 41.523438 137.503906 41.375 C 137.648438 41.375 137.796875 41.375 137.796875 41.226562 C 137.945312 41.226562 138.09375 41.078125 138.09375 41.078125 C 138.09375 41.078125 138.238281 40.929688 138.238281 40.785156 C 138.238281 40.636719 138.238281 40.488281 138.238281 40.488281 C 138.238281 40.339844 138.238281 40.191406 138.09375 40.042969 L 136.027344 33.101562 L 127.628906 33.101562 C 127.183594 33.101562 126.890625 33.101562 126.59375 33.246094 C 126.449219 33.394531 126.300781 33.542969 126.152344 33.839844 Z M 128.363281 31.472656 L 135.4375 31.472656 L 131.753906 20.6875 L 131.460938 20.6875 L 127.480469 31.03125 C 127.480469 31.179688 127.480469 31.179688 127.480469 31.179688 C 127.480469 31.179688 127.480469 31.328125 127.628906 31.328125 C 127.628906 31.328125 127.773438 31.328125 127.773438 31.472656 C 127.773438 31.621094 127.921875 31.472656 128.070312 31.472656 C 128.070312 31.472656 128.214844 31.472656 128.363281 31.472656 Z M 128.363281 31.472656 "/>
<path style=" stroke:none;fill-rule:nonzero;fill:rgb(0%,0%,0%);fill-opacity:1;" d="M 155.925781 37.679688 C 155.925781 39.304688 156.222656 40.191406 156.664062 40.636719 C 157.105469 41.078125 158.136719 41.226562 159.757812 41.226562 C 159.90625 41.375 159.90625 41.671875 159.90625 41.964844 C 159.90625 42.261719 159.90625 42.558594 159.757812 42.703125 C 157.105469 42.703125 155.335938 42.558594 154.304688 42.558594 C 153.125 42.558594 151.359375 42.558594 148.703125 42.703125 C 148.558594 42.558594 148.558594 42.410156 148.558594 41.964844 C 148.558594 41.523438 148.558594 41.375 148.703125 41.226562 C 150.324219 41.226562 151.359375 40.929688 151.800781 40.636719 C 152.242188 40.191406 152.535156 39.304688 152.535156 37.679688 L 152.535156 32.65625 C 152.535156 31.917969 152.535156 31.472656 152.390625 31.03125 C 152.242188 30.734375 152.09375 30.144531 151.652344 29.554688 L 146.492188 20.835938 C 146.050781 20.097656 145.609375 19.503906 145.316406 19.210938 C 145.019531 18.914062 144.578125 18.617188 144.28125 18.472656 C 143.988281 18.324219 143.398438 18.324219 142.808594 18.175781 C 142.660156 18.027344 142.660156 17.730469 142.660156 17.4375 C 142.660156 17.140625 142.660156 16.84375 142.808594 16.699219 C 144.429688 16.699219 145.757812 16.84375 146.789062 16.84375 C 147.671875 16.84375 149.148438 16.84375 151.359375 16.699219 C 151.503906 16.84375 151.503906 17.140625 151.503906 17.4375 C 151.503906 17.730469 151.503906 18.027344 151.359375 18.175781 C 150.324219 18.175781 149.589844 18.472656 149.441406 18.617188 C 149.292969 18.765625 149.441406 19.503906 149.882812 20.242188 L 154.453125 28.222656 C 154.601562 28.519531 154.746094 28.667969 154.894531 28.667969 C 155.042969 28.667969 155.191406 28.519531 155.335938 28.222656 L 159.757812 19.949219 C 159.90625 19.503906 160.054688 19.210938 160.054688 18.914062 C 160.054688 18.617188 160.054688 18.472656 159.90625 18.324219 C 159.757812 18.175781 159.613281 18.027344 159.316406 18.027344 C 159.023438 18.027344 158.726562 17.878906 158.285156 17.878906 C 158.136719 17.730469 158.136719 17.585938 158.136719 17.140625 C 158.136719 16.84375 158.136719 16.550781 158.285156 16.402344 C 160.347656 16.402344 161.527344 16.550781 161.824219 16.550781 C 162.414062 16.550781 163.589844 16.550781 165.066406 16.402344 C 165.214844 16.550781 165.214844 16.84375 165.214844 17.140625 C 165.214844 17.4375 165.214844 17.730469 165.066406 17.878906 C 164.179688 18.027344 163.445312 18.175781 162.855469 18.472656 C 162.265625 18.765625 161.824219 19.503906 161.234375 20.390625 L 156.515625 28.8125 C 156.371094 29.257812 156.222656 29.554688 156.074219 29.847656 C 155.925781 30.144531 155.925781 30.441406 155.925781 30.734375 C 155.925781 31.03125 155.925781 31.328125 155.925781 31.769531 Z M 155.925781 37.679688 "/>
<path style=" stroke:none;fill-rule:nonzero;fill:rgb(0%,0%,0%);fill-opacity:1;" d="M 188.355469 22.460938 C 188.355469 21.574219 188.355469 20.835938 188.207031 20.390625 C 188.058594 19.949219 187.910156 19.503906 187.617188 19.210938 C 187.324219 18.914062 187.027344 18.765625 186.585938 18.617188 C 186.289062 18.472656 185.699219 18.472656 184.816406 18.324219 C 184.667969 18.175781 184.667969 18.027344 184.667969 17.585938 C 184.667969 17.289062 184.667969 16.992188 184.816406 16.84375 C 187.46875 16.84375 188.945312 16.992188 189.238281 16.992188 C 189.679688 16.992188 191.15625 16.992188 193.660156 16.84375 C 193.808594 16.992188 193.808594 17.289062 193.808594 17.585938 C 193.808594 17.878906 193.808594 18.175781 193.660156 18.324219 C 192.1875 18.472656 191.300781 18.765625 190.859375 19.210938 C 190.417969 19.652344 190.269531 20.6875 190.269531 22.3125 L 190.269531 41.671875 C 190.269531 42.558594 189.976562 43 189.386719 43 C 188.796875 43 188.207031 42.703125 187.765625 41.964844 L 173.910156 24.527344 C 173.171875 23.644531 172.730469 23.199219 172.582031 23.199219 C 172.433594 23.199219 172.289062 23.789062 172.289062 25.121094 L 172.289062 37.089844 C 172.289062 37.976562 172.289062 38.714844 172.433594 39.15625 C 172.582031 39.601562 172.730469 40.042969 173.023438 40.339844 C 173.320312 40.636719 173.613281 40.785156 174.058594 40.929688 C 174.351562 41.078125 174.941406 41.078125 175.824219 41.226562 C 175.972656 41.375 175.972656 41.671875 175.972656 41.964844 C 175.972656 42.261719 175.972656 42.558594 175.824219 42.703125 C 173.171875 42.703125 171.699219 42.558594 171.402344 42.558594 C 170.960938 42.558594 169.488281 42.558594 166.980469 42.703125 C 166.835938 42.558594 166.835938 42.410156 166.835938 41.964844 C 166.835938 41.523438 166.835938 41.375 166.980469 41.226562 C 168.457031 41.078125 169.339844 40.785156 169.78125 40.339844 C 170.222656 39.898438 170.371094 38.863281 170.371094 37.238281 L 170.371094 20.984375 C 170.222656 20.390625 169.929688 19.800781 169.339844 19.355469 C 168.75 18.765625 168.011719 18.617188 167.277344 18.472656 C 167.128906 18.324219 167.128906 18.175781 167.128906 17.730469 C 167.128906 17.4375 167.128906 17.140625 167.277344 16.992188 L 172.582031 17.140625 L 186.144531 34.578125 C 186.289062 34.871094 186.585938 35.019531 186.734375 35.316406 C 186.878906 35.613281 187.175781 35.757812 187.175781 35.90625 C 187.324219 36.054688 187.46875 36.203125 187.46875 36.351562 C 187.617188 36.5 187.617188 36.644531 187.765625 36.644531 C 187.910156 36.644531 187.910156 36.792969 187.910156 36.792969 C 188.058594 36.792969 188.207031 36.351562 188.207031 35.613281 L 188.207031 22.460938 Z M 188.355469 22.460938 "/>
<path style=" stroke:none;fill-rule:nonzero;fill:rgb(0%,0%,0%);fill-opacity:1;" d="M 200.144531 39.453125 C 200.144531 39.75 200.144531 39.898438 200 40.191406 C 200 40.339844 200 40.488281 200.292969 40.636719 C 200.589844 40.785156 200.589844 40.929688 200.734375 40.929688 C 200.882812 40.929688 201.03125 41.078125 201.324219 41.078125 C 201.621094 41.078125 201.914062 41.226562 202.0625 41.226562 C 202.210938 41.226562 202.503906 41.226562 202.800781 41.375 C 202.945312 41.523438 202.945312 41.816406 202.945312 42.113281 C 202.945312 42.410156 202.945312 42.703125 202.800781 42.851562 C 200.882812 42.851562 199.113281 42.703125 197.789062 42.703125 C 197.34375 42.703125 196.167969 42.703125 194.25 42.851562 C 194.101562 42.703125 194.101562 42.558594 194.101562 42.113281 C 194.101562 41.671875 194.101562 41.523438 194.25 41.375 C 195.28125 41.226562 196.019531 41.078125 196.609375 40.785156 C 197.199219 40.488281 197.789062 39.75 198.230469 38.566406 L 207.222656 17.4375 C 207.808594 17.4375 208.546875 17.140625 209.433594 16.699219 L 217.539062 39.304688 C 217.6875 39.75 217.832031 40.191406 218.128906 40.488281 C 218.421875 40.785156 218.71875 40.929688 219.011719 41.078125 C 219.453125 41.226562 219.75 41.375 219.898438 41.375 C 220.042969 41.375 220.488281 41.375 221.074219 41.523438 C 221.222656 41.671875 221.222656 41.964844 221.222656 42.261719 C 221.222656 42.558594 221.222656 42.851562 221.074219 43 C 219.160156 43 217.539062 42.851562 216.507812 42.851562 C 215.03125 42.851562 213.265625 42.851562 211.347656 43 C 211.199219 42.851562 211.199219 42.703125 211.199219 42.261719 C 211.199219 41.816406 211.199219 41.671875 211.347656 41.523438 C 211.496094 41.523438 211.644531 41.523438 211.9375 41.523438 C 212.230469 41.523438 212.378906 41.523438 212.527344 41.523438 C 212.675781 41.523438 212.820312 41.523438 213.117188 41.523438 C 213.410156 41.523438 213.558594 41.523438 213.558594 41.375 C 213.707031 41.375 213.855469 41.375 213.855469 41.226562 C 214 41.226562 214.148438 41.078125 214.148438 41.078125 C 214.148438 41.078125 214.296875 40.929688 214.296875 40.785156 C 214.296875 40.636719 214.296875 40.488281 214.296875 40.488281 C 214.296875 40.339844 214.296875 40.191406 214.148438 40.042969 L 211.789062 33.394531 L 203.386719 33.394531 C 202.945312 33.394531 202.652344 33.394531 202.355469 33.542969 C 202.210938 33.691406 202.0625 33.839844 201.914062 34.132812 Z M 204.421875 31.472656 L 211.496094 31.472656 L 207.808594 20.6875 L 207.515625 20.6875 L 203.535156 31.03125 C 203.535156 31.179688 203.535156 31.179688 203.535156 31.179688 C 203.535156 31.179688 203.535156 31.328125 203.683594 31.328125 C 203.683594 31.328125 203.832031 31.328125 203.832031 31.472656 C 203.832031 31.621094 203.976562 31.472656 204.125 31.472656 C 204.125 31.472656 204.273438 31.472656 204.421875 31.472656 Z M 204.421875 31.472656 "/>
<path style=" stroke:none;fill-rule:nonzero;fill:rgb(0%,0%,0%);fill-opacity:1;" d="M 229.183594 37.679688 C 229.183594 39.304688 229.332031 40.191406 229.773438 40.636719 C 230.214844 41.078125 231.097656 41.226562 232.574219 41.226562 C 232.71875 41.375 232.71875 41.671875 232.71875 41.964844 C 232.71875 42.261719 232.71875 42.558594 232.574219 42.703125 C 229.917969 42.703125 228.152344 42.558594 227.414062 42.558594 C 226.53125 42.558594 224.910156 42.558594 222.253906 42.703125 C 222.109375 42.558594 222.109375 42.410156 222.109375 41.964844 C 222.109375 41.523438 222.109375 41.375 222.253906 41.226562 C 223.730469 41.226562 224.613281 40.929688 225.054688 40.636719 C 225.496094 40.191406 225.644531 39.304688 225.644531 37.679688 L 225.644531 22.015625 C 225.644531 20.390625 225.496094 19.503906 225.054688 19.0625 C 224.613281 18.617188 223.730469 18.472656 222.253906 18.472656 C 222.109375 18.324219 222.109375 18.175781 222.109375 17.730469 C 222.109375 17.4375 222.109375 17.140625 222.253906 16.992188 C 224.910156 16.992188 226.53125 17.140625 227.414062 17.140625 C 228.296875 17.140625 230.066406 17.140625 232.574219 16.992188 C 232.71875 17.140625 232.71875 17.4375 232.71875 17.730469 C 232.71875 18.027344 232.71875 18.324219 232.574219 18.472656 C 231.097656 18.472656 230.214844 18.765625 229.773438 19.0625 C 229.332031 19.503906 229.183594 20.390625 229.183594 22.015625 L 229.183594 28.960938 C 230.363281 28.8125 231.394531 28.371094 232.277344 27.484375 L 238.761719 20.539062 C 239.207031 20.097656 239.351562 19.800781 239.5 19.503906 C 239.648438 19.210938 239.5 19.0625 239.351562 18.914062 C 239.058594 18.765625 238.910156 18.765625 238.761719 18.617188 C 238.617188 18.617188 238.175781 18.472656 237.730469 18.472656 C 237.585938 18.324219 237.585938 18.175781 237.585938 17.730469 C 237.585938 17.4375 237.585938 17.140625 237.730469 16.992188 C 240.238281 16.992188 241.710938 17.140625 242.152344 17.140625 C 242.152344 17.140625 243.480469 17.140625 245.984375 16.992188 C 246.132812 17.140625 246.132812 17.4375 246.132812 17.730469 C 246.132812 18.027344 246.132812 18.324219 245.984375 18.472656 C 244.511719 18.617188 243.332031 18.914062 242.597656 19.355469 C 242.007812 19.652344 241.5625 20.097656 240.972656 20.6875 L 235.078125 26.597656 C 234.195312 27.484375 233.753906 28.222656 233.753906 28.519531 C 233.753906 28.8125 233.898438 29.109375 234.195312 29.554688 L 242.890625 39.75 C 243.183594 40.042969 243.480469 40.339844 243.628906 40.488281 C 243.921875 40.636719 244.21875 40.785156 244.511719 40.929688 C 244.808594 41.078125 245.101562 41.078125 245.25 41.226562 C 245.394531 41.375 245.691406 41.375 245.984375 41.375 L 246.429688 41.375 C 246.574219 41.523438 246.574219 41.816406 246.574219 42.113281 C 246.574219 42.410156 246.574219 42.703125 246.429688 42.851562 C 243.921875 42.851562 242.597656 42.703125 242.449219 42.703125 C 242.007812 42.703125 241.417969 42.703125 240.386719 42.851562 C 240.238281 42.851562 240.238281 42.703125 240.238281 42.558594 C 240.089844 41.816406 239.648438 40.785156 238.761719 39.75 L 232.574219 31.917969 C 231.835938 31.03125 230.65625 30.441406 229.332031 30.441406 L 229.332031 37.679688 Z M 229.183594 37.679688 "/>
<path style=" stroke:none;fill-rule:nonzero;fill:rgb(0%,0%,0%);fill-opacity:1;" d="M 29.609375 2.363281 C 29.460938 2.214844 29.3125 1.773438 29.3125 1.183594 C 29.3125 0.589844 29.460938 0.148438 29.609375 0 C 33.734375 0.148438 36.09375 0.148438 36.683594 0.148438 C 36.980469 0.148438 38.894531 0.148438 42.433594 0 C 42.578125 0.296875 42.726562 0.589844 42.726562 1.183594 C 42.726562 1.773438 42.578125 2.070312 42.433594 2.363281 C 41.546875 2.511719 40.8125 2.660156 40.222656 2.957031 C 39.632812 3.25 39.042969 3.546875 38.746094 3.84375 C 38.304688 4.136719 38.011719 4.582031 37.566406 5.171875 C 37.125 5.761719 36.980469 6.355469 36.832031 6.648438 C 36.683594 6.945312 36.390625 7.535156 36.09375 8.421875 L 22.535156 41.523438 C 22.089844 42.558594 21.648438 43 20.914062 43 C 20.324219 43 19.734375 42.558594 19.4375 41.523438 L 6.613281 8.273438 C 5.582031 5.761719 4.847656 4.136719 4.257812 3.546875 C 3.667969 2.957031 2.488281 2.511719 0.71875 2.363281 C 0.570312 2.070312 0.425781 1.773438 0.425781 1.183594 C 0.425781 0.589844 0.570312 0.296875 0.71875 0 C 4.847656 0.148438 7.058594 0.148438 7.5 0.148438 C 8.679688 0.148438 11.332031 0.148438 15.457031 0 C 15.605469 0.296875 15.753906 0.589844 15.753906 1.183594 C 15.753906 1.773438 15.605469 2.070312 15.457031 2.363281 C 13.101562 2.660156 11.921875 3.101562 11.480469 3.695312 C 11.035156 4.285156 11.183594 5.613281 12.070312 7.535156 L 22.386719 33.984375 L 22.679688 33.984375 L 33 7.980469 C 33.882812 6.207031 34.03125 4.875 33.589844 3.988281 C 33.144531 3.101562 31.820312 2.511719 29.609375 2.363281 Z M 29.609375 2.363281 "/>
</g>
</svg>
