<svg viewBox="0 0 144 17" xmlns="http://www.w3.org/2000/svg"><path d="M7.46 9.78 10.47.01h3.95l2.99 9.77L20.77.01h4.1l-5.92 17h-2.81l-3.72-11.8-3.69 11.8H5.92L0 .01h4.1zM26.9.004h3.8v17h-3.8zM34.9.004h3.79v6.99l6.4-6.99h4.68l-6.75 7.52c.582.812 1.67 2.33 3.24 4.54 1.57 2.2 2.73 3.85 3.52 4.94h-4.43l-4.96-6.71-1.7 1.9v4.81H34.9zM52.1.004h3.79v17H52.1zM75.3 6.31l-4.58 9.3h-2.28l-4.55-9.3v10.7h-3.8v-17h5.14l4.38 9.34 4.4-9.34h5.11v17h-3.79V6.31zM120 .004h3.8v17H120zM140 17l-1.57-3.67h-7.11L129.75 17h-4.02l7.34-17h3.67l7.34 17zm-5.14-11.9-2.12 4.94h4.25zM95.4 17l-1.57-3.67h-7.11L85.15 17h-4.02l7.34-17h3.67l7.34 17zM90.26 5.1l-2.13 4.94h4.25zM117 17V0h-3.69v10.5L105.35 0h-3.44v17h3.68V6.2l8.22 10.8z"/></svg>