<svg xmlns="http://www.w3.org/2000/svg" width="50" height="50"><defs><radialGradient id="a" cx="63.835%" cy="28.864%" r="63.835%" fx="63.835%" fy="28.864%"><stop offset="0%" stop-color="#E29988"/><stop offset="100%" stop-color="#651300"/></radialGradient><radialGradient id="b" cx="50%" cy="58.909%" r="64.723%" fx="50%" fy="58.909%" gradientTransform="matrix(.82316 0 0 1 .088 0)"><stop offset="0%" stop-color="#68C5FF"/><stop offset="41.086%" stop-color="#3485B8"/><stop offset="100%" stop-color="#004672"/></radialGradient><radialGradient id="c" cx="50%" cy="50%" r="75.567%" fx="50%" fy="50%" gradientTransform="matrix(.66166 0 0 1 .17 0)"><stop offset="0%" stop-color="#1489CC"/><stop offset="100%" stop-color="#041B28"/></radialGradient><radialGradient id="d" cx="50%" cy="50%" r="83.788%" fx="50%" fy="50%" gradientTransform="matrix(.66028 0 0 1 .17 0)"><stop offset="0%" stop-color="#06B160"/><stop offset="64.434%" stop-color="#038748"/><stop offset="100%" stop-color="#011B0F"/></radialGradient><radialGradient id="e" cx="50%" cy="64.918%" r="74.362%" fx="50%" fy="64.918%" gradientTransform="matrix(.6724 0 0 1 .164 0)"><stop offset="0%" stop-color="#B5F0D4"/><stop offset="66.3%" stop-color="#66A788"/><stop offset="100%" stop-color="#185E3C"/></radialGradient><radialGradient id="f" cx="50%" cy="50%" r="71.644%" fx="50%" fy="50%" gradientTransform="matrix(.6979 0 0 1 .151 0)"><stop offset="0%" stop-color="#0C81C8"/><stop offset="65.376%" stop-color="#07476F"/><stop offset="100%" stop-color="#020E16"/></radialGradient><radialGradient id="g" cx="50%" cy="50%" r="74.97%" fx="50%" fy="50%" gradientTransform="matrix(.66693 0 0 1 .167 0)"><stop offset="0%" stop-color="#B1E8CE"/><stop offset="66%" stop-color="#62B18C"/><stop offset="100%" stop-color="#2E6049"/></radialGradient><radialGradient id="h" cx="50%" cy="50%" r="75.672%" fx="50%" fy="50%" gradientTransform="matrix(.66075 0 0 1 .17 0)"><stop offset="0%" stop-color="#B2D4E7"/><stop offset="65.868%" stop-color="#6692A9"/><stop offset="100%" stop-color="#1A506C"/></radialGradient></defs><g fill="none" fill-rule="evenodd"><path fill="url(#a)" d="M27.335 6.146a6.146 6.146 0 1 1-12.293 0 6.146 6.146 0 0 1 12.293 0z" transform="translate(4)"/><path fill="url(#b)" d="M37.136 14.797 33.6 18.251c2.607 2.857 4.194 6.628 4.194 10.761 0 8.919-7.382 16.154-16.483 16.154-9.1 0-16.494-7.235-16.494-16.154 0-4.09 1.561-7.82 4.123-10.667l-3.595-3.49C2.023 18.568 0 23.438 0 28.778c0 11.604 9.53 21.018 21.264 21.018 11.735 0 21.252-9.414 21.252-21.018 0-5.365-2.033-10.263-5.38-13.98z" transform="translate(4)"/><path fill="url(#c)" d="m8.42 9.345-.066 4.41s.549 2.314 4.376 3.513c3.72 1.166 8.957.748 12.627 2.4 3.183 1.432 4.275 3.807 4.275 3.807l.077-4.133s-.277-2.18-3.217-3.082c-2.94-.902-7.855-1.195-13.573-3.15-2.565-.878-4.532-3.698-4.498-3.765z" transform="translate(4)"/><path fill="url(#d)" d="m12.586 18.803-.16 4.846s.4 1.034 3.946 2.056c2.122.612 8.412 1.163 11.67 2.484 2.847 1.156 4.162 3.871 4.162 3.871l.301-4.042c-.94-2.29-2.025-2.857-5.857-3.844-2.61-.673-5.603-.792-7.91-1.556-4.53-1.5-6.152-3.815-6.152-3.815z" transform="translate(4)"/><path fill="url(#e)" d="M33.741 9.312v4.326s-.61 2.01-3.892 3.223c-4.228 1.564-10.687 1.453-15.015 3.875-1.956 1.095-2.405 2.906-2.405 2.906l.067-4.977s.748-1.85 4.576-3.04c4.913-1.527 8.03-.945 12.41-2.806 2.853-1.212 4.292-3.474 4.26-3.507z" transform="translate(4)"/><path fill="url(#f)" d="m9.731 27.918-.172 4.776s.753 1.52 2.982 2.467c4.26 1.81 7.261.477 13.517 3.313 2.823 1.28 3.488 3.392 3.488 3.392l-.014-4.795s-.367-1.47-3.106-2.372c-2.74-.902-8.722-1.516-12.787-3.038-2.795-1.047-3.94-3.776-3.908-3.743z" transform="translate(4)"/><path fill="url(#g)" d="M12.463 41.38c0-.133.066-4.576.066-4.576s.316-1.32 4.577-2.673c4.017-1.275 9.01-1.25 11.347-2.218 2.339-.969 4.052-3.897 4.052-3.897l-.017 4.856s.122 1.73-3.447 2.861c-4.642 1.47-7.579.945-12.151 2.653-2.591.968-4.36 3.094-4.427 2.994z" transform="translate(4)"/><path fill="url(#h)" d="m29.71 19.342.056 4.167s-.657 1.225-3.546 2.393c-3.934 1.59-7.51.69-12.522 2.818-1.87.793-4.142 3.975-4.142 3.975l.134-5.044s1.347-2.169 3.775-3.04c5.21-1.87 7.148-.5 12.593-2.739 1.842-.757 3.598-2.323 3.651-2.53z" transform="translate(4)"/></g></svg>