<svg xmlns="http://www.w3.org/2000/svg" width="120" height="28"><path fill="#484848" d="M5.975 14.093 0 .206h3.753l3.094 7.687h-.006L10.392.206h2.655l3.542 7.697h.005L19.676.206h3.752l-5.964 13.887h-1.479l-4.269-8.647h-.001l-4.261 8.647H5.975ZM25.067.206h3.421v13.682h-3.421V.206Zm9.968 13.682h-3.42V.206h3.42v6.473h.005L39.407.206h3.863L38.5 6.767l6.21 7.12h-4.34l-5.34-6.522h.005v6.523ZM46.162.206h3.421v13.682h-3.421V.206Zm9.968 13.682h-3.421V.206h3.078l4.281 4.935h.002L64.341.206h3.078v13.682h-3.42V5.485h.01l-3.646 4.21h-.588l-3.648-4.21h.003v8.403Zm14.368 0V.206H80.58v2.469h-6.661v2.931h6.25v2.47h-6.25v3.343h6.66v2.469H70.5ZM83.172.206h5.196c2.809 0 4.916.571 6.322 1.713 1.39 1.13 2.087 2.831 2.087 5.103v.03c.006 2.278-.663 3.987-2.01 5.126-1.345 1.14-3.367 1.71-6.066 1.71h-5.529V.205Zm3.42 11.16h2.113c1.499 0 2.623-.358 3.373-1.075.75-.718 1.124-1.798 1.124-3.24 0-1.441-.402-2.523-1.208-3.244-.805-.72-2.013-1.081-3.623-1.081h-1.778v8.64ZM99.374.206h3.421v13.682h-3.421V.206ZM110.234 0h3.987L120 13.888h-3.725l-1.016-2.598h-6.073l-1.007 2.598h-3.723L110.234 0Zm-.105 8.821h4.188l-2.104-5.361h-.002l-2.082 5.361Z"/><path fill="#666" d="M24.074 24.69c0 .405-.083.766-.247 1.085a2.208 2.208 0 0 1-.669.792c-.33.247-.693.423-1.09.528-.393.105-.893.157-1.5.157h-3.651v-8.365h3.247c.674 0 1.166.023 1.477.067.315.046.626.145.933.298.318.161.554.379.708.652.157.27.236.579.236.927 0 .404-.107.762-.32 1.073a2.108 2.108 0 0 1-.905.719v.045c.547.109.98.333 1.298.674.322.34.483.79.483 1.348Zm-2.764-3.438a.904.904 0 0 0-.107-.415.635.635 0 0 0-.365-.31 1.747 1.747 0 0 0-.59-.095c-.232-.007-.56-.011-.983-.011h-.202v1.77h.337c.34 0 .63-.006.87-.017.24-.012.43-.05.568-.113.195-.086.322-.196.382-.331.06-.139.09-.298.09-.478Zm.528 3.405c0-.266-.053-.47-.157-.613-.102-.146-.276-.254-.523-.326a2.745 2.745 0 0 0-.697-.078 74.208 74.208 0 0 0-.926-.006h-.472v2.084h.157c.607 0 1.041-.001 1.303-.005s.504-.053.725-.146c.225-.094.378-.217.46-.371.087-.157.13-.337.13-.54Zm11.573 2.595h-2.23l-.58-1.69h-3.1l-.579 1.69h-2.174l3.09-8.365h2.483l3.09 8.365Zm-3.332-3.224-1.028-3-1.028 3h2.056Zm12.14 3.224h-2.078l-3.55-5.741v5.741h-1.978v-8.365h2.578l3.051 4.792v-4.792h1.977v8.365Zm9.534-.477c-.374.146-.87.292-1.489.438a8.214 8.214 0 0 1-1.848.213c-1.423 0-2.537-.385-3.343-1.157-.805-.775-1.208-1.845-1.208-3.208 0-1.3.407-2.346 1.22-3.14.812-.798 1.945-1.197 3.398-1.197.551 0 1.075.05 1.573.152.499.097 1.053.294 1.663.59v1.96h-.241a25.367 25.367 0 0 0-.46-.331 5.316 5.316 0 0 0-.585-.37 3.811 3.811 0 0 0-.764-.31 3.205 3.205 0 0 0-.921-.129 3.05 3.05 0 0 0-1.04.168c-.31.113-.59.285-.837.517a2.382 2.382 0 0 0-.562.86 3.27 3.27 0 0 0-.202 1.197c0 .925.245 1.632.736 2.123.49.49 1.215.736 2.174.736a7.148 7.148 0 0 0 .545-.023v-1.64h-1.668v-1.579h3.859v4.13Zm7.966.477h-6.033v-8.365h2.157v6.747h3.876v1.618Zm9.028 0h-2.23l-.579-1.69h-3.1l-.58 1.69h-2.174l3.09-8.365h2.483l3.09 8.365Zm-3.331-3.224-1.028-3-1.028 3h2.056Zm12.438-.95c0 .78-.178 1.478-.534 2.096-.356.614-.805 1.086-1.348 1.415a4.14 4.14 0 0 1-1.343.517 8.933 8.933 0 0 1-1.73.146h-2.95v-8.365h3.034c.682 0 1.27.058 1.764.174.494.113.91.274 1.247.483a3.77 3.77 0 0 1 1.36 1.427c.333.596.5 1.298.5 2.107Zm-2.23-.017c0-.55-.102-1.02-.304-1.41-.198-.393-.515-.7-.95-.921a2.401 2.401 0 0 0-.68-.22c-.228-.04-.574-.061-1.038-.061h-.545v5.236h.544c.514 0 .89-.023 1.13-.068.24-.048.473-.134.702-.258.393-.225.682-.524.865-.899.184-.378.275-.845.275-1.399Zm9.926 4.191H79.5v-8.365h6.05v1.618h-3.904v1.444h3.623v1.618h-3.623v2.067h3.904v1.618Zm8.506-2.629c0 .824-.35 1.494-1.05 2.011-.698.513-1.645.77-2.844.77-.693 0-1.297-.06-1.814-.18a9.583 9.583 0 0 1-1.444-.466v-2.006h.236c.446.356.944.63 1.494.82a4.892 4.892 0 0 0 1.596.287c.13 0 .303-.011.517-.034.213-.022.387-.06.522-.112.165-.068.3-.152.405-.253.108-.101.162-.25.162-.45a.595.595 0 0 0-.235-.471c-.154-.135-.38-.238-.68-.31a18.593 18.593 0 0 0-1-.207 8.028 8.028 0 0 1-.983-.253c-.704-.228-1.212-.537-1.523-.927-.307-.393-.46-.88-.46-1.46 0-.78.348-1.414 1.044-1.905.7-.494 1.6-.742 2.697-.742.55 0 1.094.055 1.63.163a7.48 7.48 0 0 1 1.398.4v1.926h-.23a4.388 4.388 0 0 0-1.242-.674 4.205 4.205 0 0 0-1.494-.275c-.18 0-.36.013-.54.04a2.018 2.018 0 0 0-.51.134.969.969 0 0 0-.377.258.552.552 0 0 0-.157.388c0 .22.084.391.252.511.169.116.487.223.956.32l.881.186c.285.06.59.142.916.247.64.21 1.113.496 1.416.86.307.359.46.827.46 1.404Zm8.977 2.63h-2.157v-3.686H97.69v3.685h-2.157v-8.365h2.157v3.062h3.186v-3.062h2.157v8.365Z"/></svg>