<svg xmlns="http://www.w3.org/2000/svg" width="120" height="20" fill="none"><path fill="#000" fill-rule="evenodd" d="M13.263.512c.01.244.053.404.131.482 1.034.078 1.648.322 1.843.731.205.41.117 1.024-.263 1.843L10.25 15.573h-.147L5.337 3.378c-.36-.887-.448-1.477-.263-1.77.185-.302.78-.506 1.784-.614.078-.087.117-.248.117-.482 0-.244-.039-.414-.117-.512-1.881.039-3.09.059-3.626.058C3.037.058 1.998.04.117 0 .039.098 0 .263 0 .497c0 .234.049.4.146.497.82.069 1.355.249 1.609.541.263.283.624 1.01 1.082 2.18l5.907 15.324c.176.468.405.702.688.702.302-.01.54-.244.716-.702l6.2-15.266.337-.834c.068-.146.19-.365.365-.658.176-.302.346-.512.512-.629a3.79 3.79 0 0 1 .702-.38c.302-.136.643-.229 1.023-.278.098-.087.147-.248.147-.482 0-.244-.05-.414-.147-.512-1.598.039-2.476.059-2.632.058-.292 0-1.38-.019-3.26-.058-.088.098-.132.268-.132.512Zm92.058 18.166.855.06c.118 0 .236.089.236.235v.56l-.059.06s-3.213-.06-3.921-.06c-.767 0-2.654.06-2.654.06l-.06-.06v-.56c0-.146.089-.235.237-.235 1.298-.088 2.033-.325 2.858-2.212l6.543-15.33c.323-.766.56-1.062 1.005-1.062.41 0 .559.296.793.886l6.043 15.977c.414 1.15 1.005 1.591 2.184 1.71l.323.028c.149 0 .296.087.296.237v.557l-.088.06s-2.27-.06-3.421-.06c-1.032 0-3.922.06-3.922.06l-.027-.06v-.557c0-.15.059-.237.21-.237l.825-.06c1.119-.088 1.534-.444 1.238-1.267l-1.798-4.984h-6.133c-.708 0-.885.118-1.031.5l-1.711 4.274c-.295.742.089 1.392 1.179 1.48Zm7.222-7.49-2.859-7.869h-.059l-2.948 7.487c-.118.297.088.384.736.384h5.13v-.002Zm-90.814 6.37c0 .648.295 1.032 1.239 1.12l.619.06c.088 0 .177.058.177.176v.619l-.03.06s-2.24-.06-3.154-.06c-.825 0-3.125.06-3.125.06l-.059-.06v-.62c0-.117.089-.175.207-.175l.59-.06c.972-.088 1.267-.56 1.267-1.12V7.742c0-.646-.355-.827-1.268-.913l-.59-.061c-.117 0-.206-.027-.206-.118v-.68l.03-.058s2.329.059 3.242.059c.796 0 3.066-.059 3.066-.059l.03.059v.648c0 .089-.06.148-.177.148l-.62.06c-.913.087-1.237.324-1.237.915v9.816Zm23.798 0c0 .648.295 1.032 1.238 1.12l.62.06c.087 0 .176.058.176.176v.619l-.03.06s-2.24-.06-3.154-.06c-.825 0-3.124.06-3.124.06l-.06-.06v-.62c0-.117.09-.175.207-.175l.59-.06c.972-.088 1.267-.56 1.267-1.12V7.742c0-.646-.353-.827-1.267-.913l-.59-.061c-.118 0-.206-.027-.206-.118v-.68l.03-.058s2.328.059 3.242.059c.796 0 3.066-.059 3.066-.059l.029.059v.648c0 .089-.059.148-.177.148l-.619.06c-.914.087-1.238.324-1.238.915v9.816Zm4.6-10.79c1.386.088 1.77.118 1.77 1.032l.003 9.903c0 .56-.295.825-1.209.943l-.619.089c-.118.028-.177.058-.177.175v.62l.03.06s2.21-.06 3.036-.06c.914 0 3.273.06 3.273.06l.027-.06v-.62c0-.115-.09-.147-.207-.175l-.59-.089c-.945-.146-1.299-.296-1.299-.943v-3.948c.532.235 1.121.295 1.858.295 4.184 0 5.039-2.77 5.039-4.54 0-1.535-.767-3.597-4.95-3.597-.584 0-1.192.017-1.758.033-.493.013-.953.026-1.337.026-.498 0-1.294-.02-1.96-.037-.48-.012-.892-.022-1.077-.022l-.058.03v.678c0 .06.029.147.206.147Zm5.955 6.427c-.59 0-1.326-.028-1.916-.265V7.8c0-.766.353-1.03 1.769-1.03 1.619 0 2.769.56 2.769 3.094 0 2.268-.852 3.331-2.622 3.331Zm10.057 6.338c-.885 0-2.917.06-2.917.06l-.031-.06v-.649c0-.057.03-.146.177-.146l.68-.06c.915-.088 1.18-.678 1.18-1.266V7.684c0-.68-.353-.797-1.18-.855l-.68-.061c-.177-.027-.177-.087-.177-.118v-.68l.03-.058s2.299.059 3.183.059h4.333c.885 0 2.979-.059 2.979-.059l.06.059c.028 1.267.234 2.42.443 3.538l-.735.118c-.323-1.092-.883-2.653-2.77-2.653h-2.358c-.56 0-.855.207-.855.707v4.275h2.21c.827 0 1.032-.354 1.15-.943l.177-.62c0-.088.06-.148.177-.148h.498c.062 0 .062.03.062.089-.016.164-.035.34-.055.522-.058.538-.122 1.132-.122 1.66 0 .49.052.93.105 1.369.026.22.052.439.072.665l-.062.06h-.498c-.147 0-.21-.06-.21-.148l-.146-.648c-.118-.59-.384-.915-1.153-.915h-2.209v4.511c0 .558.32 1.118.855 1.118h2.8c1.504 0 2.331-.943 2.683-2.478l.734.088-.59 3.39-.06.058s-1.739-.059-2.623-.059l-5.157.006Zm31.339-.855c-.943-.088-1.238-.472-1.238-1.12l-.003-9.816c0-.59.323-.828 1.238-.915l.619-.06c.115 0 .176-.06.176-.148v-.648l-.027-.059s-2.272.059-3.067.059c-.911 0-3.24-.059-3.24-.059l-.03.059v.679c0 .09.09.118.207.118l.59.061c.913.086 1.268.267 1.268.913v9.816c0 .56-.296 1.032-1.267 1.12l-.591.06c-.118 0-.206.058-.206.176v.619l.06.06s2.298-.06 3.124-.06c.913 0 3.153.06 3.153.06l.03-.06v-.62c0-.117-.089-.175-.177-.175l-.619-.06Zm-12.823-2.759c0 1.186.116 1.92.347 2.199.242.27.835.438 1.78.506.096.096.144.265.144.506.01.232-.038.386-.145.463a191.529 191.529 0 0 0-3.283-.058c-.55 0-1.653.02-3.312.058-.077-.077-.12-.231-.13-.463 0-.24.043-.41.13-.506.945-.077 1.533-.25 1.765-.52.24-.27.361-.999.361-2.185V8.427c0-.395-.096-.742-.289-1.041-.183-.309-.472-.463-.868-.463h-1.273c-.655 0-1.123.178-1.403.535-.27.347-.564 1.075-.882 2.184-.28.02-.545-.01-.795-.087.154-.925.236-2.28.245-4.064a2.34 2.34 0 0 1 .738 0c.097.28.362.42.796.42h9.502c.434 0 .704-.14.81-.42.28-.077.526-.077.738 0 0 1.62.077 2.975.231 4.064-.193.116-.458.145-.795.087-.3-1.09-.593-1.813-.883-2.17-.28-.366-.737-.549-1.374-.549h-.969c-.376 0-.67.16-.882.477-.202.309-.304.66-.304 1.056v7.463Zm-50.358 2.199c-.231-.28-.347-1.013-.347-2.199V8.456c0-.395.101-.747.304-1.056.212-.318.506-.477.882-.477h.969c.636 0 1.094.183 1.374.55.29.356.583 1.08.882 2.17.338.057.603.028.796-.088-.154-1.09-.232-2.444-.232-4.064-.212-.077-.458-.077-.737 0-.106.28-.376.42-.81.42h-9.503c-.434 0-.699-.14-.795-.42a2.339 2.339 0 0 0-.738 0c-.01 1.784-.091 3.139-.246 4.064.251.077.516.106.796.087.318-1.109.612-1.837.882-2.184.28-.357.747-.535 1.403-.535h1.273c.395 0 .684.154.868.463.192.299.289.646.289 1.041v7.492c0 1.186-.12 1.914-.362 2.184-.231.27-.82.444-1.764.52-.087.097-.13.266-.13.507.01.232.053.386.13.463 1.658-.039 2.762-.058 3.312-.058.492 0 1.586.02 3.283.058.106-.077.154-.231.145-.463 0-.24-.048-.41-.145-.506-.945-.068-1.538-.236-1.779-.506Z" clip-rule="evenodd"/></svg>