<?xml version="1.0" encoding="UTF-8"?>
<svg width="119px" height="20px" viewBox="0 0 119 20" version="1.1" xmlns="http://www.w3.org/2000/svg" xmlns:xlink="http://www.w3.org/1999/xlink">
    <title>lbe-wordmark</title>
    <g id="Page-1" stroke="none" stroke-width="1" fill="none" fill-rule="evenodd">
        <path d="M4.32247756,1.91598152 C4.27808649,1.51215206 4.36686129,1.23119585 4.58880688,1.07306312 C4.81074266,0.914980147 5.43217365,0.839285453 6.45310472,0.846003917 C7.1847346,0.824256 7.8826977,1.0544256 8.54699647,1.53651272 C9.21127809,2.01862472 9.56638221,2.88331592 9.61231127,4.13053655 C9.59444317,5.1751084 9.26893065,5.9164287 8.63577372,6.35444767 C8.0025972,6.7925164 7.16891878,7.00504381 6.13473602,6.99207967 L4.32247756,6.99207967 L4.32247756,1.91598152 Z M4.32247756,7.83808358 L6.01228708,7.83808358 C7.67810593,7.87127777 8.88933625,8.28391588 9.64598295,9.07602278 C10.4026101,9.86812969 10.7750606,10.8406398 10.7633396,11.9935282 C10.8123079,12.9271708 10.5429173,13.7099465 9.95517025,14.3418553 C9.36740115,14.9737891 8.16739472,15.3024464 6.35514606,15.3278521 C5.52043905,15.3096874 4.96737513,15.1344848 4.69594939,14.8021945 C4.42451385,14.4699043 4.30002488,14.0893904 4.32247756,13.6606777 L4.32247756,7.83808358 Z M3.26941035,0.0497664 C2.67858731,0.0492438528 2.1520537,0.0440681472 1.68980707,0.0342144 C1.22755799,0.0243606528 0.701024383,0.0129641472 0.110206247,1.77635684e-15 C0.0367354155,0.0902016 3.46389584e-14,0.2270592 3.46389584e-14,0.410547917 C3.46389584e-14,0.5940864 0.0367354155,0.730944 0.110206247,0.821120717 C0.948985989,0.819055411 1.51837513,0.947626906 1.81838103,1.20681032 C2.11837957,1.46601861 2.25919622,2.09222922 2.24083096,3.08546703 L2.24083096,13.0635058 C2.25919622,14.0567436 2.11837957,14.6829542 1.81837858,14.9421625 C1.51837513,15.2013459 0.94898354,15.3299174 0.110206247,15.3278521 C0.0367354155,15.4180537 3.46389584e-14,15.5549113 3.46389584e-14,15.7384001 C3.46389584e-14,15.9219137 0.0367354155,16.0587713 0.110206247,16.1489729 C0.689800489,16.1360087 1.21429161,16.1246122 1.6836845,16.1147585 C2.1530725,16.1049047 2.68981121,16.099729 3.29390062,16.0992065 C3.7673687,16.1012966 4.22247397,16.1095827 4.65921642,16.1240897 C5.09594908,16.1386214 5.83268764,16.1469075 6.86943453,16.1489729 C9.25872555,16.0898753 10.8964908,15.5860153 11.7827327,14.6373433 C12.6689501,13.6886962 13.0883412,12.6498226 13.040906,11.5207723 C13.0169104,10.3321018 12.6546649,9.38136453 11.9541622,8.66856038 C11.2536374,7.95578112 10.3587333,7.44672061 9.26944984,7.14137887 L9.26944984,7.09161247 C9.90317005,6.76372654 10.444295,6.31035464 10.8928295,5.73144699 C11.3413395,5.15256422 11.5757286,4.5194112 11.5959968,3.83196303 C11.6612927,2.94291118 11.3531267,2.09586217 10.6715011,1.29079112 C9.98985338,0.485744947 8.54290659,0.0554646528 6.33065579,1.77635684e-15 C5.89391088,0.0020901888 5.40819522,0.0103762944 4.87350145,0.0248832 C4.33880033,0.0393901056 3.80410411,0.0477010944 3.26941035,0.0497664 L3.26941035,0.0497664 Z M17.5690553,5.42446295 C16.9971094,5.42239764 16.420574,5.41411154 15.8394516,5.39957975 C15.2583218,5.38507284 14.9450568,5.37678674 14.8996494,5.37469655 L14.8261786,5.42446295 L14.8261786,5.97186847 C14.8261786,6.02014188 14.8384237,6.0523905 14.862914,6.06861435 C14.8874018,6.0848382 14.9241372,6.09406986 14.9731178,6.09628447 L15.7078163,6.14605087 C16.1525622,6.16292168 16.4312395,6.25986662 16.5438434,6.43688571 C16.6564447,6.61392968 16.7043012,6.95657134 16.6874152,7.46486047 L16.6874152,14.1832249 C16.7043012,14.6102953 16.6564423,14.9107351 16.5438434,15.0846189 C16.4312371,15.2584778 16.1525622,15.3561443 15.7078163,15.3776185 L14.9486275,15.4273849 C14.8710766,15.4340039 14.8302587,15.4754842 14.8261786,15.5518009 L14.8261786,16.0992065 L14.8506689,16.1489729 C15.3266913,16.1360087 15.7705702,16.1246122 16.1823105,16.1147585 C16.594046,16.1049047 17.0562926,16.099729 17.5690553,16.0992065 C17.9333384,16.099729 18.239462,16.1049047 18.4874285,16.1147585 C18.7353852,16.1246122 19.0904893,16.1360087 19.5527408,16.1489729 L19.5772311,16.0992065 L19.5772311,15.5766593 C19.5772262,15.482128 19.5282456,15.4323616 19.4302919,15.4273849 C19.0282424,15.392648 18.7731394,15.3003562 18.6649805,15.1505593 C18.5568119,15.0007376 18.5098714,14.7778339 18.5241639,14.4818233 L18.5241639,14.4320569 L23.5690948,8.26109798 L23.5690948,14.1334585 C23.5851066,14.5625942 23.5334737,14.8713449 23.4141963,15.0597357 C23.2948992,15.2481264 23.0118382,15.354079 22.5650057,15.3776185 L21.8058169,15.4273849 C21.7282587,15.4340039 21.6874432,15.4754842 21.683368,15.5518009 L21.683368,16.0992065 L21.7323485,16.1489729 C22.2073424,16.1360087 22.6471412,16.1246122 23.0517451,16.1147585 C23.4563293,16.1049047 23.9144959,16.099729 24.4262447,16.0992065 C24.9645018,16.099729 25.4491987,16.1049047 25.8803353,16.1147585 C26.3114475,16.1246122 26.7655315,16.1360087 27.2425898,16.1489729 L27.2670801,16.0992065 L27.2670801,15.5766593 C27.2670801,15.4808838 27.2180873,15.4311174 27.1201385,15.4273849 L26.3854399,15.3776185 C25.9717526,15.3582843 25.7019555,15.258851 25.5760485,15.0793187 C25.4501171,14.8998113 25.3933805,14.5845163 25.4058436,14.1334585 L25.4058436,7.43997727 C25.3901673,6.93273324 25.4404728,6.59422218 25.5567624,6.42444411 C25.6730276,6.25466604 25.9492534,6.16187658 26.3854399,6.14605087 L27.1201385,6.09628447 C27.2180873,6.09257687 27.2670801,6.04281047 27.2670801,5.94698527 L27.2670801,5.42446295 L27.2425898,5.37469655 C27.1941064,5.37678674 26.8624714,5.38507284 26.2476846,5.39957975 C25.6328733,5.41408666 25.0257275,5.42239764 24.4262447,5.42446295 C24.0517419,5.42239764 23.6680674,5.41411154 23.2752164,5.39957975 C22.8823458,5.38507284 22.6701008,5.37678674 22.6384765,5.37469655 L22.589496,5.42446295 L22.589496,5.97186847 C22.589998,6.02014188 22.6012219,6.0523905 22.6231701,6.06861435 C22.6451012,6.0848382 22.6746928,6.09406986 22.7119474,6.09628447 C23.1119397,6.1372671 23.3588801,6.2544172 23.4527685,6.44775967 C23.5466348,6.64112701 23.5854127,6.8889388 23.5690948,7.19114527 L18.5241639,13.3621042 L18.5241639,7.43997727 C18.5078313,6.94360719 18.5588519,6.60820654 18.6772257,6.43377531 C18.7955896,6.25934408 19.079263,6.16344422 19.5282505,6.14605087 L20.2629515,6.09628447 C20.3609028,6.09257687 20.4098834,6.04281047 20.4098907,5.94698527 L20.4098907,5.42446295 L20.3609102,5.37469655 C20.3119247,5.37678674 19.9813109,5.38507284 19.3690662,5.39957975 C18.7568117,5.41408666 18.1568097,5.42239764 17.5690553,5.42446295 L17.5690553,5.42446295 Z M28.936788,16.0992065 L28.9857686,16.1489729 C29.0372986,16.1469075 29.3505659,16.1386214 29.9255707,16.1240897 C30.5005706,16.1095827 31.0281254,16.1012966 31.5082328,16.0992065 C32.0250707,16.1012966 32.540378,16.1095827 33.054162,16.1240897 C33.5679361,16.1386214 33.8444681,16.1469075 33.8837603,16.1489729 L33.9327409,16.0992065 L33.9327409,15.6264257 C33.9306935,15.5652627 33.9102857,15.5196518 33.8715152,15.4895929 C33.8327324,15.4595091 33.7878343,15.4387814 33.7368211,15.4273849 C33.4480366,15.4025017 33.1684434,15.3216313 32.8980389,15.1847737 C32.6276246,15.0479161 32.4827254,14.7804217 32.4633414,14.3822905 L32.4633414,10.8986923 C33.3562005,10.9671211 34.0011006,11.2097323 34.3980488,11.6265259 C34.7949847,12.0432946 35.0970258,12.5969458 35.3041768,13.2874546 C35.4884563,13.8819889 35.7737656,14.4881934 36.1601022,15.1060682 C36.546424,15.7239429 37.0447938,16.0632751 37.655214,16.1240897 L39.4184919,16.1489729 L39.4919603,16.0992065 L39.4919603,15.6513089 C39.4868491,15.5657853 39.4541938,15.5066877 39.3940016,15.4740409 C39.3337849,15.4413693 39.2766417,15.4258173 39.2225721,15.4273849 L39.0266523,15.4025017 C38.570516,15.2723875 38.1296984,14.8358864 37.7041945,14.0930233 C37.2786711,13.3501852 36.9603024,12.7083977 36.749086,12.1677106 C36.5041783,11.560685 36.1551968,11.1138324 35.7021389,10.8271531 C35.2490688,10.5404738 34.6919223,10.3984404 34.0306995,10.4010283 L34.0306995,10.3014955 C34.4819206,10.1556799 34.8578415,9.89306266 35.1584621,9.51364362 C35.4590704,9.13424947 35.6953967,8.69185106 35.8674458,8.18644838 C36.010807,7.79404032 36.1771351,7.47782461 36.3664303,7.23780127 C36.5557083,6.99777792 36.7159139,6.87440701 36.8470446,6.86766367 C36.9567317,6.86870876 37.0557116,6.88530586 37.1439868,6.91743007 C37.2322424,6.94957916 37.312857,6.99105946 37.3858234,7.04184607 C37.4710202,7.10562171 37.5700001,7.15849851 37.6827655,7.20047647 C37.7955114,7.24247931 37.9251042,7.26425211 38.0715438,7.26579487 C38.3353114,7.25750876 38.5547002,7.16213146 38.7297102,6.97963807 C38.9047006,6.79716956 38.9955179,6.57737626 39.0021621,6.32023327 C39.0118455,6.01232855 38.9251108,5.75105495 38.7419553,5.53643735 C38.5587803,5.32181975 38.2210226,5.20984535 37.7286848,5.20051415 C37.141937,5.2321407 36.6500963,5.5048108 36.2531628,6.01852447 C35.8562146,6.53226301 35.5480485,7.09731072 35.328667,7.71369247 C35.0857504,8.40885443 34.7487079,8.96561603 34.317537,9.38395238 C33.8863563,9.80228874 33.2682927,10.0169063 32.4633414,10.0277803 L32.4633414,7.19114527 C32.4699709,6.758302 32.5852785,6.47316541 32.8092641,6.33578527 C33.0332399,6.19843 33.3260995,6.1186047 33.6878405,6.09628447 C33.7388562,6.0937215 33.7837543,6.0677932 33.8225346,6.01852447 C33.8613052,5.9693055 33.8817129,5.9122732 33.8837603,5.84747735 L33.8837603,5.42446295 L33.8347797,5.37469655 C33.79753,5.37678674 33.5291607,5.38507284 33.0296717,5.39957975 C32.5301753,5.41408666 32.0230282,5.42239764 31.5082328,5.42446295 C31.0281254,5.42239764 30.5005706,5.41411154 29.9255683,5.39957975 C29.3505635,5.38507284 29.0372961,5.37678674 28.9857686,5.37469655 L28.936788,5.42446295 L28.936788,5.89721887 C28.9372974,5.95840666 28.9546439,6.00401756 28.9888299,6.03407647 C29.0230109,6.06416026 29.0709702,6.08488796 29.1327078,6.09628447 L29.5980157,6.14605087 C29.9837327,6.1808127 30.2531208,6.2855212 30.406185,6.46020127 C30.5592444,6.63490621 30.6327152,6.8951596 30.6265951,7.24091167 L30.6265951,14.3325241 C30.6373071,14.6746681 30.5730202,14.9235001 30.4337366,15.0790201 C30.2944482,15.2345401 30.0158762,15.3340729 29.5980157,15.3776185 L29.1327078,15.4273849 C29.0709702,15.4387814 29.0230109,15.4595091 28.9888299,15.4895929 C28.9546439,15.5196518 28.9372974,15.5652627 28.936788,15.6264257 L28.936788,16.0992065 Z M43.3508099,5.42446295 C42.7788665,5.42239764 42.2023311,5.41411154 41.6212062,5.39957975 C41.0400788,5.38507284 40.7268115,5.37678674 40.681404,5.37469655 L40.6079357,5.42446295 L40.6079357,5.97186847 C40.6079357,6.02014188 40.6201783,6.0523905 40.6446711,6.06861435 C40.6691589,6.0848382 40.7058943,6.09406986 40.7548749,6.09628447 L41.4895734,6.14605087 C41.9343193,6.16292168 42.2129941,6.25986662 42.3256004,6.43688571 C42.4381994,6.61392968 42.4860583,6.95657134 42.4691722,7.46486047 L42.4691722,14.1832249 C42.4860583,14.6102953 42.4381994,14.9107351 42.3256004,15.0846189 C42.2129941,15.2584778 41.9343193,15.3561443 41.4895734,15.3776185 L40.7303846,15.4273849 C40.6528337,15.4340039 40.6120157,15.4754842 40.6079357,15.5518009 L40.6079357,16.0992065 L40.6324259,16.1489729 C41.1084483,16.1360087 41.5523273,16.1246122 41.9640676,16.1147585 C42.3758006,16.1049047 42.8380497,16.099729 43.3508099,16.0992065 C43.7150955,16.099729 44.021219,16.1049047 44.2691831,16.1147585 C44.5171398,16.1246122 44.8722439,16.1360087 45.3344979,16.1489729 L45.3589882,16.0992065 L45.3589882,15.5766593 C45.3589833,15.482128 45.3100027,15.4323616 45.212049,15.4273849 C44.8099994,15.392648 44.5548965,15.3003562 44.4467351,15.1505593 C44.3385665,15.0007376 44.2916284,14.7778339 44.3059185,14.4818233 L44.3059185,14.4320569 L49.3508519,8.26109798 L49.3508519,14.1334585 C49.3668636,14.5625942 49.3152308,14.8713449 49.1959533,15.0597357 C49.0766563,15.2481264 48.7935928,15.354079 48.3467628,15.3776185 L47.587574,15.4273849 C47.5100157,15.4340039 47.4691978,15.4754842 47.465125,15.5518009 L47.465125,16.0992065 L47.5141056,16.1489729 C47.9890994,16.1360087 48.4288983,16.1246122 48.8335021,16.1147585 C49.2380864,16.1049047 49.696253,16.099729 50.2079993,16.0992065 C50.7462589,16.099729 51.2309558,16.1049047 51.6620924,16.1147585 C52.0932045,16.1246122 52.5472886,16.1360087 53.0243469,16.1489729 L53.0488347,16.0992065 L53.0488347,15.5766593 C53.0488347,15.4808838 52.9998419,15.4311174 52.9018955,15.4273849 L52.167197,15.3776185 C51.7535097,15.3582843 51.4837126,15.258851 51.3578031,15.0793187 C51.2318717,14.8998113 51.1751375,14.5845163 51.1875982,14.1334585 L51.1875982,7.43997727 C51.1719244,6.93273324 51.2222299,6.59422218 51.3385171,6.42444411 C51.4547822,6.25466604 51.731008,6.16187658 52.167197,6.14605087 L52.9018955,6.09628447 C52.9998419,6.09257687 53.0488347,6.04281047 53.0488347,5.94698527 L53.0488347,5.42446295 L53.0243469,5.37469655 C52.9758635,5.37678674 52.6442284,5.38507284 52.0294416,5.39957975 C51.4146279,5.41408666 50.8074821,5.42239764 50.2079993,5.42446295 C49.8334989,5.42239764 49.449822,5.41411154 49.056971,5.39957975 C48.6641029,5.38507284 48.4518579,5.37678674 48.4202336,5.37469655 L48.3712531,5.42446295 L48.3712531,5.97186847 C48.3717551,6.02014188 48.382979,6.0523905 48.4049272,6.06861435 C48.4268582,6.0848382 48.4564498,6.09406986 48.493702,6.09628447 C48.8936968,6.1372671 49.1406371,6.2544172 49.2345231,6.44775967 C49.3283919,6.64112701 49.3671673,6.8889388 49.3508519,7.19114527 L44.3059185,13.3621042 L44.3059185,7.43997727 C44.2895884,6.94360719 44.340609,6.60820654 44.4589827,6.43377531 C44.5773442,6.25934408 44.86102,6.16344422 45.3100076,6.14605087 L46.0447061,6.09628447 C46.1426599,6.09257687 46.1916404,6.04281047 46.1916478,5.94698527 L46.1916478,5.42446295 L46.1426672,5.37469655 C46.0936793,5.37678674 45.7630655,5.38507284 45.1508233,5.39957975 C44.5385688,5.41408666 43.9385643,5.42239764 43.3508099,5.42446295 L43.3508099,5.42446295 Z M56.5308011,7.36532767 L56.5308011,14.2081081 C56.5436046,14.6341334 56.4855431,14.9304425 56.3566164,15.0970605 C56.2276849,15.2636784 55.9510501,15.3571894 55.526712,15.3776185 L54.7920135,15.4273849 C54.6940524,15.435248 54.6450743,15.4767283 54.6450743,15.5518009 L54.6450743,16.0992065 L54.6940548,16.1489729 C54.7414508,16.1469075 55.0648205,16.1386214 55.6641637,16.1240897 C56.263502,16.1095827 56.854423,16.1012966 57.4369291,16.0992065 C58.0035117,16.1012966 58.578514,16.1095827 59.1619409,16.1240897 C59.7453581,16.1386214 60.0601561,16.1469075 60.106335,16.1489729 L60.1308253,16.0992065 L60.1308253,15.5766593 C60.1267379,15.4796397 60.0859224,15.4298733 60.0083763,15.4273849 L59.3471462,15.3776185 C58.945251,15.3607726 58.6788212,15.2762693 58.5478546,15.1241085 C58.4168806,14.9719726 58.356779,14.6666309 58.3675474,14.2081081 L58.3675474,7.36532767 C58.3772382,6.94388091 58.4803006,6.67327611 58.6767347,6.55351327 C58.8731589,6.43377531 59.1047929,6.38089851 59.3716365,6.39488287 L62.3349233,6.39488287 C62.5910377,6.37778811 62.8196103,6.42444411 63.0206412,6.53485087 C63.2216525,6.64528251 63.3277762,6.92210811 63.3390099,7.36532767 L63.3390099,14.2081081 C63.3518086,14.6338099 63.293747,14.9295219 63.1648253,15.0951942 C63.0358864,15.2608666 62.7592541,15.3549997 62.3349233,15.3776185 L61.6736931,15.4273849 C61.5961349,15.4340039 61.5553169,15.4754842 61.5512442,15.5518009 L61.5512442,16.0992065 L61.5757345,16.1489729 C61.6223076,16.1469075 61.9399637,16.1386214 62.5287001,16.1240897 C63.1174195,16.1095827 63.6977288,16.1012966 64.2696282,16.0992065 C64.8521221,16.1012966 65.4430431,16.1095827 66.0423961,16.1240897 C66.6417246,16.1386214 66.9650942,16.1469075 67.012505,16.1489729 L67.0369952,16.0992065 L67.0369952,15.5766593 C67.0369952,15.4808838 66.9880024,15.4311174 66.890056,15.4273849 L66.1553575,15.3776185 C65.7417192,15.3629374 65.4681456,15.2790562 65.3346344,15.1259747 C65.2011037,14.9728933 65.1399808,14.6669543 65.1512684,14.2081081 L65.1512684,7.34044447 C65.1350828,6.84822989 65.1864095,6.52942633 65.3052486,6.38400891 C65.4240631,6.23859149 65.7074328,6.15928873 66.1553575,6.14605087 L66.890056,6.09628447 C66.9880024,6.09257687 67.0369952,6.04281047 67.0369952,5.94698527 L67.0369952,5.42446295 L67.012505,5.37469655 C66.9640215,5.37678674 66.6323889,5.38507284 66.0175997,5.39957975 C65.4027884,5.41408666 64.7956426,5.42239764 64.1961598,5.42446295 L57.4124388,5.42446295 C56.8405468,5.42239764 56.2602374,5.41411154 55.6715107,5.39957975 C55.0827792,5.38507284 54.7651256,5.37678674 54.7185451,5.37469655 L54.6695645,5.42446295 L54.6695645,5.97186847 C54.6700739,6.02031606 54.6812978,6.05286328 54.7032387,6.06953503 C54.7251771,6.08625654 54.7547687,6.09516472 54.7920135,6.09628447 L55.526712,6.14605087 C55.9510501,6.15767132 56.2276849,6.23772058 56.3566164,6.38617375 C56.4855431,6.5346518 56.5436046,6.86104474 56.5308011,7.36532767 L56.5308011,7.36532767 Z M70.795234,9.08224358 C71.0773766,7.72561152 71.5232956,6.86818621 72.1329982,6.50996767 C72.742691,6.151774 73.2192252,5.9972991 73.5625985,6.04651807 C74.0544343,6.02477015 74.5095371,6.19895255 74.9279143,6.56906527 C75.3462768,6.93920287 75.5687269,7.63593247 75.595267,8.65922918 C75.5967903,8.77142753 75.5692388,8.85685156 75.5126123,8.91552614 C75.4559712,8.97422561 75.3610738,9.0049066 75.2279178,9.00759398 L70.795234,9.08224358 Z M77.2116033,13.7850937 C76.7774078,14.2547641 76.3355689,14.5969081 75.8860842,14.8115257 C75.4365847,15.0261433 74.8661719,15.1318969 74.1748481,15.1287865 C73.7253487,15.1334397 73.2651421,14.9934717 72.7942259,14.7088825 C72.3232999,14.4242934 71.8937061,13.9670646 71.5054422,13.337221 C71.2584994,12.9261257 71.0666621,12.4357276 70.929928,11.8660018 C70.793189,11.296301 70.7238007,10.6503828 70.7217631,9.9282475 L77.2360935,9.9780139 C77.3840442,9.97751624 77.4983305,9.94121165 77.5789525,9.8691499 C77.6595574,9.79711304 77.7003729,9.69240453 77.7014039,9.55502438 C77.7417002,8.46016358 77.4774109,7.47730207 76.908541,6.60639007 C76.3396514,5.73550295 75.2243373,5.27516375 73.5625985,5.22539735 C72.4263623,5.23266324 71.3437035,5.73445786 70.3146172,6.73080607 C69.2855284,7.72717916 68.7355257,9.17451049 68.6645545,11.0728747 C68.6620549,11.7768453 68.7528722,12.4466264 68.9370587,13.0821682 C69.1212427,13.71771 69.4140999,14.2755167 69.8156351,14.7555385 C70.2258399,15.2573331 70.7340058,15.6471782 71.3401353,15.9250241 C71.9462574,16.2028947 72.6870785,16.343883 73.5625985,16.3480385 C74.4891294,16.3387073 75.2932162,16.1396417 75.9748614,15.7508417 C76.6564895,15.3620665 77.2401663,14.8395193 77.7258942,14.1832249 C77.6906772,14.0593315 77.6325152,13.9649993 77.551401,13.9001785 C77.4702696,13.8353827 77.357002,13.7970377 77.2116033,13.7850937 L77.2116033,13.7850937 Z M79.2998965,19.2842312 L79.9366364,19.3091144 C80.0141848,18.7725579 80.2631677,18.1225092 80.68358,17.3589185 C81.1039875,16.5953028 81.8182782,16.1754237 82.8264523,16.0992065 L86.7938258,16.0992065 C87.7933132,16.1697254 88.5127053,16.5761427 88.952002,17.3184833 C89.3912817,18.0607989 89.651486,18.7160482 89.7326198,19.2842312 L90.3448694,19.2842312 L90.1979302,15.9499073 C90.199958,15.7807015 90.1530199,15.660018 90.0571136,15.5878567 C89.9611827,15.5157203 89.8040384,15.4622214 89.5856806,15.4273849 C89.3627089,15.4014566 89.1474026,15.3039891 88.9397569,15.1350073 C88.7320916,14.9660006 88.620869,14.6570508 88.6060818,14.2081081 L88.6060818,7.31556127 C88.5979094,6.90324664 88.6754603,6.61562173 88.838737,6.45273631 C89.0019916,6.28987576 89.2999526,6.18765558 89.7326198,6.14605087 L90.1489496,6.09628447 C90.1882247,6.09526426 90.2259814,6.07866716 90.2622172,6.04651807 C90.2984285,6.01439386 90.3178174,5.97293844 90.3203791,5.92210207 L90.3203791,5.42446295 L90.2958889,5.37469655 C90.238224,5.37678674 89.9065914,5.38507284 89.300986,5.39957975 C88.6953586,5.41408666 88.1616812,5.42239764 87.6999538,5.42446295 L83.0468599,5.42446295 C82.7677736,5.42239764 82.3279748,5.41411154 81.7274634,5.39957975 C81.1269471,5.38507284 80.7912319,5.37678674 80.7203154,5.37469655 L80.6468446,5.42446295 L80.6468446,5.97186847 C80.6478634,6.02061466 80.6641886,6.05378396 80.6958252,6.07140127 C80.7274568,6.08904346 80.7682723,6.09732956 80.8182741,6.09628447 L81.4795042,6.14605087 C81.8963385,6.1963647 82.1708305,6.3135148 82.3029776,6.49752607 C82.4351173,6.68156221 82.4953217,6.8547244 82.4835909,7.01696287 C82.4747622,8.48609188 82.3815987,9.81525289 82.2041005,11.0044459 C82.026595,12.1936389 81.8177174,13.3112927 81.5774629,14.3574073 C81.4927657,14.6912652 81.3131736,14.9442278 81.0386842,15.1163449 C80.7641898,15.2884371 80.4621487,15.3921254 80.1325561,15.4273849 C79.9555135,15.4439571 79.8014305,15.4854374 79.6703071,15.5518009 C79.5391837,15.6181395 79.464694,15.7591526 79.4468357,15.9747905 L79.2998965,19.2842312 Z M82.4101225,14.8301881 C82.4284853,14.6741456 82.5448117,14.0282275 82.7591041,12.8924338 C82.9733866,11.7566402 83.175429,9.79815813 83.3652311,7.01696287 C83.3585942,6.94646876 83.402471,6.82620826 83.4968639,6.65615647 C83.5912469,6.48612956 83.7759428,6.39075226 84.050949,6.36996753 L85.7897367,6.36996753 C86.2269763,6.36793436 86.5035082,6.46540186 86.619335,6.66237727 C86.7351422,6.85937756 86.785144,7.16835226 86.7693355,7.58927647 L86.7693355,13.9095097 C86.785144,14.31956 86.7351422,14.6254243 86.6193326,14.8270777 C86.5035082,15.0287312 86.2269763,15.1293091 85.7897367,15.1287865 L82.8754304,15.1287865 C82.7488965,15.1334397 82.6407303,15.1178877 82.5509392,15.0821305 C82.4611382,15.0463485 82.4142002,14.9623677 82.4101225,14.8301881 L82.4101225,14.8301881 Z M94.6273274,5.42446295 C94.0553839,5.42239764 93.4788485,5.41411154 92.8977236,5.39957975 C92.3165963,5.38507284 92.0033289,5.37678674 91.9579215,5.37469655 L91.8844531,5.42446295 L91.8844531,5.97186847 C91.8844531,6.02014188 91.8966958,6.0523905 91.9211885,6.06861435 C91.9456764,6.0848382 91.9824118,6.09406986 92.0313923,6.09628447 L92.7660908,6.14605087 C93.2108367,6.16292168 93.4895116,6.25986662 93.6021179,6.43688571 C93.7147168,6.61392968 93.7625757,6.95657134 93.7456897,7.46486047 L93.7456897,14.1832249 C93.7625757,14.6102953 93.7147168,14.9107351 93.6021179,15.0846189 C93.4895116,15.2584778 93.2108367,15.3561443 92.7660908,15.3776185 L92.0069021,15.4273849 C91.9293511,15.4340039 91.8885332,15.4754842 91.8844531,15.5518009 L91.8844531,16.0992065 L91.9089434,16.1489729 C92.3849658,16.1360087 92.8288447,16.1246122 93.2405851,16.1147585 C93.6523181,16.1049047 94.1145671,16.099729 94.6273274,16.0992065 C94.9916129,16.099729 95.2977365,16.1049047 95.5457006,16.1147585 C95.7936573,16.1246122 96.1487614,16.1360087 96.6110154,16.1489729 L96.6355056,16.0992065 L96.6355056,15.5766593 C96.6355007,15.482128 96.5865202,15.4323616 96.4885664,15.4273849 C96.0865169,15.392648 95.8314139,15.3003562 95.7232526,15.1505593 C95.615084,15.0007376 95.5681459,14.7778339 95.582436,14.4818233 L95.582436,14.4320569 L100.627369,8.26109798 L100.627369,14.1334585 C100.643381,14.5625942 100.591748,14.8713449 100.472471,15.0597357 C100.353174,15.2481264 100.07011,15.354079 99.6232802,15.3776185 L98.8640915,15.4273849 C98.7865332,15.4340039 98.7457152,15.4754842 98.7416425,15.5518009 L98.7416425,16.0992065 L98.7906231,16.1489729 C99.2656169,16.1360087 99.7054157,16.1246122 100.11002,16.1147585 C100.514604,16.1049047 100.97277,16.099729 101.484517,16.0992065 C102.022776,16.099729 102.507473,16.1049047 102.93861,16.1147585 C103.369722,16.1246122 103.823806,16.1360087 104.300864,16.1489729 L104.325352,16.0992065 L104.325352,15.5766593 C104.325352,15.4808838 104.276359,15.4311174 104.178413,15.4273849 L103.443714,15.3776185 C103.030027,15.3582843 102.76023,15.258851 102.634321,15.0793187 C102.508389,14.8998113 102.451655,14.5845163 102.464116,14.1334585 L102.464116,7.43997727 C102.448442,6.93273324 102.498747,6.59422218 102.615035,6.42444411 C102.7313,6.25466604 103.007525,6.16187658 103.443714,6.14605087 L104.178413,6.09628447 C104.276359,6.09257687 104.325352,6.04281047 104.325352,5.94698527 L104.325352,5.42446295 L104.300864,5.37469655 C104.252381,5.37678674 103.920746,5.38507284 103.305959,5.39957975 C102.691145,5.41408666 102.084,5.42239764 101.484517,5.42446295 C101.110016,5.42239764 100.726339,5.41411154 100.333488,5.39957975 C99.9406204,5.38507284 99.7283754,5.37678674 99.6967511,5.37469655 L99.6477705,5.42446295 L99.6477705,5.97186847 C99.6482726,6.02014188 99.6594965,6.0523905 99.6814447,6.06861435 C99.7033757,6.0848382 99.7329673,6.09406986 99.7702195,6.09628447 C100.170214,6.1372671 100.417155,6.2544172 100.511041,6.44775967 C100.604909,6.64112701 100.643685,6.8889388 100.627369,7.19114527 L95.582436,13.3621042 L95.582436,7.43997727 C95.5661059,6.94360719 95.6171264,6.60820654 95.7355002,6.43377531 C95.8538617,6.25934408 96.1375375,6.16344422 96.5865251,6.14605087 L97.3212236,6.09628447 C97.4191774,6.09257687 97.4681579,6.04281047 97.4681653,5.94698527 L97.4681653,5.42446295 L97.4191847,5.37469655 C97.3701968,5.37678674 97.039583,5.38507284 96.4273407,5.39957975 C95.8150863,5.41408666 95.2150818,5.42239764 94.6273274,5.42446295 L94.6273274,5.42446295 Z M109.350186,3.60801423 C109.399162,2.48259686 109.766511,1.74127657 110.452234,1.38410312 C111.137947,1.02692966 111.848155,0.864168653 112.582861,0.895770317 C113.60786,0.881785958 114.245619,0.928441958 114.49614,1.03573832 C114.746641,1.14305956 114.851743,1.39500196 114.811447,1.79156552 L114.811447,7.09161247 L112.90123,7.09161247 C111.863971,7.11131996 111.018048,6.86042266 110.363457,6.33889567 C109.708856,5.81741844 109.371101,4.90711634 109.350186,3.60801423 L109.350186,3.60801423 Z M105.358323,16.0992065 L105.382813,16.1489729 L106.999149,16.1240897 C107.848132,16.0838784 108.550177,15.6299591 109.105286,14.7623814 C109.660388,13.8948038 110.191004,12.7727954 110.697135,11.3963563 C111.156315,10.1024548 111.646113,9.21288038 112.166532,8.72765798 C112.686935,8.24246047 113.568573,8.01229087 114.811447,8.03714918 L114.811447,14.2827577 C114.819602,14.6282112 114.723684,14.8878425 114.523691,15.0616019 C114.323679,15.2353613 113.970618,15.3406919 113.464499,15.3776185 L112.827762,15.4273849 C112.701223,15.4315155 112.635915,15.497879 112.631842,15.6264257 L112.631842,16.0992065 L112.68082,16.1489729 C112.757345,16.1469075 113.173675,16.1386214 113.929809,16.1240897 C114.685927,16.1095827 115.322665,16.1012966 115.840027,16.0992065 C116.386449,16.1012966 117.020125,16.1095827 117.74106,16.1240897 C118.46197,16.1386214 118.856869,16.1469075 118.925762,16.1489729 L118.97474,16.0992065 L118.97474,15.6264257 C118.972688,15.56372 118.952278,15.5149738 118.913517,15.4802617 C118.874727,15.4455248 118.829829,15.4278826 118.778821,15.4273849 L118.117593,15.3776185 C117.623188,15.345992 117.277268,15.2475043 117.07983,15.0821305 C116.882367,14.9167568 116.78747,14.6503075 116.795135,14.2827577 L116.795135,1.86621512 C116.78492,1.45514465 116.872674,1.17622886 117.058403,1.02951752 C117.244106,0.882831053 117.589005,0.796784947 118.093103,0.771354317 L118.827801,0.721587917 C118.888503,0.720567706 118.93238,0.703970611 118.959434,0.671821517 C118.986461,0.639697306 118.999728,0.598241894 118.999244,0.547405517 L118.999244,0.0248832 C118.974576,0.0252066816 118.759912,0.0273466368 118.355237,0.0313279488 C117.950535,0.035334144 117.503668,0.039315456 117.014637,0.043296768 C116.525583,0.0473029632 116.14221,0.0494678016 115.864517,0.0497664 C115.434911,0.0487461888 114.922662,0.0445906944 114.327772,0.0373248 C113.732861,0.0300589056 113.208368,0.0259282944 112.754291,0.0248832 C110.536924,0.0782825472 109.069567,0.506472653 108.35222,1.30945352 C107.634865,2.11245926 107.306292,2.96988457 107.366498,3.88172943 C107.414458,5.14452695 107.81446,6.10253015 108.566507,6.75568927 C109.31855,7.40887327 110.134879,7.79456287 111.015503,7.91273318 L111.015503,7.98738278 C110.680802,8.17039872 110.339983,8.45757573 109.993046,8.84896358 C109.646102,9.24035144 109.317529,9.83237253 109.007327,10.6249771 C108.36987,12.2722201 107.767622,13.4715903 107.200579,14.2230381 C106.633534,14.9745107 106.150062,15.3676653 105.750162,15.4025017 L105.529752,15.4273849 C105.479753,15.4278826 105.438935,15.4455248 105.407303,15.4802617 C105.375669,15.5149738 105.359344,15.56372 105.358323,15.6264257 L105.358323,16.0992065 Z" id="lbe-wordmark" fill="#000000" fill-rule="nonzero"></path>
    </g>
</svg>