<?xml version="1.0" encoding="UTF-8"?>
<svg width="120px" height="11px" viewBox="0 0 120 11" version="1.1" xmlns="http://www.w3.org/2000/svg" xmlns:xlink="http://www.w3.org/1999/xlink">
    <title>nah-tagline</title>
    <g id="Page-1" stroke="none" stroke-width="1" fill="none" fill-rule="evenodd">
        <path d="M10.8076233,7.28217766 C10.3340242,7.89696421 9.69466535,8.31076285 8.79482699,8.31076285 C7.94234855,8.31076285 7.38586957,8.02701521 6.98331031,7.55410248 C6.59259102,7.10483538 6.42683132,6.46640319 6.42683132,5.80432536 C6.42683132,4.00452863 7.76474888,3.02323471 8.79482699,3.02323471 C10.440584,3.02323471 10.7957833,4.0900167 10.7957833,5.08313344 C10.7957833,5.21318445 10.7129035,5.28412136 10.5708237,5.28412136 L7.4213895,5.26138517 C7.4213895,5.94710863 7.56346924,6.49095828 7.80026881,6.88020183 C8.16730814,7.48316557 8.66458723,7.7323542 9.09082645,7.7323542 C9.77754519,7.7323542 10.1209046,7.54409856 10.5589838,7.09483146 C10.7010635,7.10483538 10.7721034,7.16576837 10.8076233,7.28217766 Z M9.59994552,4.82212199 C9.73018528,4.8203031 9.77754519,4.76391735 9.77754519,4.65569309 C9.77754519,3.6616669 9.24474617,3.41520661 8.79482699,3.41520661 C8.51066751,3.41520661 7.68186903,3.52161197 7.45690944,4.85759045 L9.59994552,4.82212199 Z M3.79471306,3.0650693 C4.2091123,3.0650693 4.57524086,3.20694312 4.77652049,3.46522622 C5.05066153,3.83173359 5.09711068,4.39922887 5.09711068,5.04948388 L5.09711068,6.81199327 C5.09711068,7.77964548 5.22917197,7.82966509 5.89038923,7.88877918 C5.94867835,7.95971609 5.94867835,8.20890473 5.89038923,8.27984164 C5.38127016,8.26710937 5.11987987,8.25710545 4.63626229,8.25710545 C4.16175239,8.25710545 3.92677436,8.26983771 3.42767373,8.27984164 C3.36847384,8.20890473 3.36847384,7.95971609 3.42767373,7.88877918 C4.04335261,7.83057454 4.16175239,7.78237382 4.16175239,6.81199327 L4.16175239,5.01310598 C4.16175239,4.65842143 4.13807243,4.34011478 4.01967265,4.10274897 C3.87759291,3.83082415 3.62895336,3.67712751 3.3921538,3.67712751 C2.93039464,3.67712751 2.46863549,3.93541062 2.01871631,4.37467379 C1.92399648,4.48107916 1.81743668,4.62295298 1.81743668,4.8739605 L1.81743668,6.81199327 C1.81743668,7.77964548 1.92399648,7.82966509 2.52783538,7.88877918 C2.59887525,7.95971609 2.59887525,8.20890473 2.52783538,8.27984164 C2.03055629,8.26710937 1.81743668,8.25710545 1.35567752,8.25710545 C0.846558452,8.25710545 0.538719015,8.26983771 0.0532799026,8.27984164 C-0.0177599675,8.20890473 -0.0177599675,7.95971609 0.0532799026,7.88877918 C0.763678603,7.83057454 0.882078387,7.78237382 0.882078387,6.81199327 L0.882078387,4.50654369 C0.882078387,3.82082022 0.751838625,3.76261558 0.112479794,3.70350149 C0.0887998376,3.63256458 0.0651198809,3.44249004 0.0887998376,3.37246257 C0.905758343,3.26605721 1.39119746,3.15965184 1.72271685,3.02869139 C1.81743668,3.02869139 1.86479659,3.06415985 1.86479659,3.12327394 C1.86479659,3.12327394 1.8055967,3.66894248 1.8055967,4.02180813 C1.8055967,4.18823704 1.88847655,4.06909941 1.92399648,4.02180813 C2.64532439,3.21967538 3.21364335,3.0650693 3.79471306,3.0650693 Z M68.5102111,10.9999993 C68.1896209,10.9999993 67.9537321,10.8099248 67.9537321,10.5634645 C67.9537321,10.4088584 68.1313318,10.0532644 68.4746912,10.0532644 C68.6049309,10.0532644 68.6504693,10.0887328 68.8180505,10.0887328 C69.1131392,10.0887328 69.2788989,9.98323693 69.4082279,9.74587111 C69.5858276,9.38027319 69.7306396,9.05287207 69.8708978,8.65908127 C69.9902084,8.32895181 69.8089656,7.78510216 69.7051381,7.5468269 L68.3635775,4.43742567 C68.0411658,3.68440309 67.9455352,3.59800557 67.4318623,3.54980485 C67.3608224,3.47886794 67.3608224,3.22876986 67.4318623,3.15783295 C67.6686619,3.17147466 67.9865197,3.17965969 68.3909005,3.17965969 C68.8180505,3.17965969 69.2907389,3.16874632 69.7288181,3.15783295 C69.799858,3.22876986 69.799858,3.47886794 69.7288181,3.54980485 C69.0029363,3.6061906 69.1277115,3.81991078 69.3408311,4.31919749 L70.3900353,6.77743426 C70.489309,7.01298118 70.591315,6.98115051 70.6732841,6.79016652 L71.849085,4.08274112 C72.0339708,3.65257242 71.65327,3.5852733 71.2798553,3.54980485 C71.2088154,3.47886794 71.2088154,3.22876986 71.2798553,3.15783295 C71.7170237,3.17147466 71.9438048,3.17965969 72.3582041,3.17965969 C72.6888127,3.17965969 72.9046646,3.16874632 73.1979318,3.15783295 C73.2689716,3.22876986 73.2689716,3.47886794 73.1979318,3.54980485 C72.7616741,3.5852733 72.4064747,3.96360349 72.2388935,4.30646522 C71.6122854,5.62971143 71.0949694,6.85019006 70.1432173,9.13108456 C69.9974945,9.48122187 69.842664,9.81953637 69.6577782,10.1469375 C69.2324498,10.9054168 68.7570291,10.9999993 68.5102111,10.9999993 Z M100.847924,8.31258175 C99.3569978,8.31258175 98.5054301,7.26035092 98.5054301,5.73520735 C98.5054301,4.05636714 99.759557,3.00322686 100.931715,3.00322686 C102.068353,3.00322686 102.742321,3.47704904 102.742321,4.12548516 C102.742321,4.49108308 102.411712,4.64477972 102.162162,4.64477972 C101.915344,4.64477972 101.749584,4.53837435 101.712243,4.21915826 C101.665794,3.80535961 101.571984,3.39156097 100.872515,3.39156097 C100.090166,3.39156097 99.5227575,4.17095754 99.5227575,5.472377 C99.5227575,6.85564675 100.244996,7.72871641 101.109315,7.72871641 C101.618434,7.72871641 102.126642,7.46952386 102.531023,6.9502293 C102.637583,6.96205211 102.732302,7.00752449 102.777841,7.1166582 C102.187663,8.0879482 101.559234,8.31258175 100.847924,8.31258175 Z M114.744416,1.67725231 C114.744416,0.684135569 114.602336,0.744159108 113.986657,0.708690653 C113.915617,0.639572638 113.891027,0.450407545 113.915617,0.353096655 C114.389216,0.3176282 115.276304,0.152108743 115.573214,0.0338805596 C115.677953,0.0338805596 115.726223,0.0693490147 115.726223,0.152108743 C115.726223,0.152108743 115.677953,0.625021477 115.677953,1.39350467 L115.677953,6.84291448 C115.677953,7.82511785 115.810014,7.88423195 116.532252,7.9197004 C116.603292,7.99063731 116.603292,8.23982594 116.532252,8.31076285 C116.021312,8.29803059 115.726223,8.28802666 115.218015,8.28802666 C114.697056,8.28802666 114.389216,8.30075893 113.891027,8.31076285 C113.819987,8.23982594 113.819987,7.99063731 113.891027,7.9197004 C114.613265,7.88423195 114.745327,7.82511785 114.745327,6.84291448 L114.744416,1.67725231 Z M119.94672,7.91242482 C120.01776,7.98336173 120.01776,8.23255036 119.94672,8.30348727 C119.437601,8.29075501 119.140691,8.28075108 118.632483,8.28075108 C118.113345,8.28075108 117.805506,8.29348335 117.305494,8.30348727 C117.238097,8.23255036 117.238097,7.98336173 117.305494,7.91242482 C118.027733,7.85422018 118.159794,7.81784227 118.159794,6.8356389 L118.159794,4.53018932 C118.159794,3.85719813 118.035019,3.78808011 117.389285,3.72714712 C117.366516,3.65621021 117.340103,3.46613567 117.366516,3.39610821 C118.182563,3.28970284 118.650698,3.18329748 118.988593,3.05233703 C119.083312,3.05233703 119.141602,3.08780548 119.141602,3.13600621 C119.141602,3.13600621 119.095152,3.89266658 119.095152,4.48107916 L119.095152,6.83836725 C119.094242,7.81875172 119.224481,7.8642241 119.94672,7.91242482 Z M118.631572,0.629568715 C118.952162,0.629568715 119.19898,0.959698181 119.19898,1.24435527 C119.19898,1.49263445 118.91482,1.81185055 118.583301,1.81185055 C118.299142,1.81185055 118.015893,1.50445727 118.015893,1.19615455 C118.016804,0.913316356 118.347412,0.629568715 118.631572,0.629568715 Z M66.5575254,7.34583899 C66.0839263,7.96062554 65.4436567,8.37442418 64.5438183,8.37442418 C63.6913399,8.37442418 63.1348609,8.09067654 62.7332124,7.61776381 C62.3415824,7.16849671 62.178555,6.53006452 62.178555,5.86798669 C62.178555,4.06818996 63.5164725,3.08689604 64.5465507,3.08689604 C66.1959507,3.08689604 66.547507,4.15367803 66.547507,5.14679477 C66.547507,5.27684578 66.4655379,5.34778269 66.3234582,5.34778269 L63.1731132,5.3250465 C63.1731132,6.01076996 63.3133714,6.5546196 63.5519925,6.94386316 C63.918121,7.5468269 64.4163109,7.79601553 64.8434609,7.79601553 C65.5301796,7.79601553 65.873539,7.60775989 66.3088859,7.15849279 C66.4509656,7.16849671 66.5220055,7.2294297 66.5575254,7.34583899 Z M65.3498476,4.88578332 C65.4819089,4.88396443 65.5274473,4.82757868 65.5274473,4.71935442 C65.5274473,3.72532823 64.9937375,3.47886794 64.5438183,3.47886794 C64.2605696,3.47886794 63.4317712,3.5852733 63.2059008,4.92125178 L65.3498476,4.88578332 Z M80.6288843,7.68870072 L80.3920847,7.87695637 C79.8711257,8.27802274 79.6452553,8.37442418 79.1006163,8.37442418 C78.2718179,8.37442418 77.6078683,8.03156245 77.6078683,7.0975598 C77.6078683,6.29360815 78.4257376,5.66790823 79.5623755,5.38325114 L80.5778813,5.13497195 C80.6134013,5.12314914 80.6489212,5.07676731 80.6489212,4.99491703 C80.6489212,3.65711966 80.0942638,3.45886009 79.6880614,3.45886009 C79.2399638,3.45886009 78.706254,3.59072999 78.706254,3.95541846 C78.706254,4.08819781 78.7190047,4.15913472 78.7290232,4.19460317 C78.7517924,4.240985 78.7645431,4.32465417 78.7645431,4.40468556 C78.7645431,4.5583822 78.5869434,4.79483857 78.2435841,4.79483857 C77.9712646,4.79483857 77.8291848,4.66478756 77.8291848,4.38103992 C77.8291848,3.74533607 78.8109923,3.07052598 79.783692,3.07052598 C80.6480104,3.07052598 81.5733503,3.39065152 81.5733503,5.06858228 L81.5733503,6.83109166 C81.5733503,7.3767602 81.586101,7.83603122 82.0469494,7.83603122 C82.295589,7.83603122 82.3456812,7.64595668 82.4148995,7.64595668 C82.4613487,7.64595668 82.5679085,7.76509431 82.5679085,7.84785404 C82.5679085,7.90514924 82.14258,8.37988087 81.5624211,8.37988087 C80.9303484,8.37988087 80.7208718,7.94334604 80.649832,7.6941574 L80.6279735,7.6941574 L80.6279735,7.68870072 L80.6288843,7.68870072 Z M79.7162952,5.7515774 C78.8428691,5.98257709 78.592408,6.52097004 78.592408,7.05299687 C78.592408,7.41768534 78.8519768,7.89241697 79.446708,7.89241697 C79.7773166,7.89241697 80.183519,7.63231497 80.4904476,7.38221689 C80.5851675,7.31127998 80.6562073,7.2294297 80.6562073,7.07482361 L80.6562073,5.50238877 L79.7162952,5.7515774 Z M55.6255824,3.54434816 C55.3578167,3.55980877 55.2011647,3.6234701 55.1556263,3.73715105 C55.1146417,3.8490131 55.1538048,4.04181598 55.2749368,4.3155597 L56.2011875,6.69103674 C56.254012,6.82199719 56.293175,6.90293802 56.320498,6.93204034 C56.3496426,6.96296156 56.3787871,6.96023322 56.4051994,6.92658366 C56.4307009,6.8929341 56.4707747,6.80653658 56.5235992,6.6673911 L57.3369146,4.62568132 L57.2631424,4.44470125 C57.1993887,4.28463848 57.1483857,4.16368195 57.1101335,4.08456002 C57.072792,4.00634753 57.0190567,3.91995001 56.9471061,3.82627691 C56.8797093,3.73260381 56.8004725,3.66530469 56.7093958,3.6234701 C56.6192298,3.58254496 56.5081161,3.55617098 56.3760548,3.54434816 C56.3459995,3.51524584 56.3314272,3.4552223 56.3314272,3.36518699 C56.3314272,3.27060445 56.3459995,3.20330533 56.3760548,3.16238019 C56.8396355,3.17784079 57.178441,3.18420693 57.3933822,3.18420693 C57.7021324,3.18420693 58.0873871,3.17784079 58.5518785,3.16238019 C58.5810231,3.19966754 58.5965061,3.26514776 58.5965061,3.35973031 C58.5965061,3.45340341 58.5810231,3.51524584 58.5518785,3.54434816 C58.2504145,3.56708435 58.0746363,3.6234701 58.0254549,3.71350541 C57.9808273,3.80081238 58.0145257,3.97815465 58.1283716,4.24826058 L59.1274836,6.76924923 C59.173022,6.88929631 59.212185,6.94750095 59.2467942,6.94386316 C59.2795818,6.93931593 59.326031,6.86656012 59.3824986,6.72377685 L60.3533768,4.32738252 C60.4062013,4.20005986 60.4389889,4.10183952 60.4490074,4.0345404 C60.4644904,3.96724128 60.4626689,3.89175713 60.4435428,3.8089974 C60.4253274,3.72714712 60.3597522,3.66439524 60.2459062,3.6234701 C60.132971,3.58254496 59.9726759,3.55617098 59.7659317,3.54434816 C59.7285902,3.51524584 59.7094641,3.45431285 59.7094641,3.36518699 C59.7094641,3.27060445 59.7285902,3.20330533 59.7659317,3.16238019 C60.2295124,3.17693135 60.622964,3.18420693 60.9462865,3.18420693 C61.1958368,3.18420693 61.4727101,3.17693135 61.7769065,3.16238019 C61.8151587,3.19966754 61.8333741,3.26514776 61.8333741,3.35973031 C61.8370171,3.45249396 61.8188018,3.51524584 61.7769065,3.54434816 C61.5054978,3.55980877 61.3023966,3.63529292 61.1666922,3.76989116 C61.0309878,3.90085161 60.908945,4.10183952 60.7996529,4.37194545 L59.2914218,8.02883411 C59.2313111,8.19071578 59.1429667,8.27165661 59.0263884,8.27165661 C58.9098102,8.27165661 58.8169119,8.19435357 58.7495151,8.04065693 L57.5573204,5.18317268 L56.3878948,8.01883019 C56.3123011,8.18707799 56.2203136,8.27165661 56.1110215,8.27165661 C55.9935324,8.27165661 55.9024557,8.19435357 55.8341481,8.04065693 L54.3195417,4.3155597 C54.1956773,4.01180421 54.079099,3.81445409 53.9707177,3.72532823 C53.8605148,3.63165513 53.6728967,3.57163159 53.405131,3.54434816 C53.3668788,3.51524584 53.3459311,3.45431285 53.3431988,3.36518699 C53.3431988,3.27060445 53.3632357,3.20330533 53.405131,3.16238019 C53.8040472,3.17693135 54.1546927,3.18420693 54.4561568,3.18420693 C54.7721931,3.18420693 55.1610909,3.17693135 55.6255824,3.16238019 C55.6629238,3.19966754 55.6820499,3.26514776 55.6820499,3.35973031 C55.6820499,3.45249396 55.6629238,3.51524584 55.6255824,3.54434816 Z M74.7489689,1.33348113 C74.7489689,1.19342621 74.8154549,1.06701299 74.9475162,0.953332048 C75.0804883,0.836013312 75.2161927,0.777808668 75.3564509,0.777808668 C75.5039952,0.777808668 75.6324135,0.842379445 75.7426163,0.970611552 C75.8555515,1.09884366 75.9129299,1.23526079 75.9129299,1.37804406 C75.9129299,1.51082341 75.8500869,1.63723662 75.7253117,1.75819314 C75.6041797,1.87914967 75.465743,1.93917321 75.3109125,1.93917321 C75.1715651,1.93917321 75.0422361,1.87551188 74.9256578,1.74637033 C74.8081688,1.61813822 74.7489689,1.48081164 74.7489689,1.33348113 Z M75.8100131,6.86837901 C75.8100131,7.33310672 75.8555515,7.6195827 75.9466283,7.72962586 C76.0413481,7.83512178 76.2735938,7.90151145 76.6442762,7.92788543 C76.6788854,7.96153499 76.6952792,8.02610577 76.6952792,8.12068831 C76.6952792,8.21072362 76.6788854,8.2734755 76.6442762,8.30712506 C75.9785051,8.2925739 75.5495336,8.28438887 75.3564509,8.28438887 C75.140599,8.28438887 74.7061628,8.2925739 74.051321,8.30712506 C74.0176226,8.2734755 74.000318,8.21072362 74.000318,8.12068831 C74.000318,8.02610577 74.0176226,7.96153499 74.051321,7.92788543 C74.4220034,7.89787366 74.6551599,7.82966509 74.7489689,7.72416917 C74.8436887,7.61776381 74.8910487,7.33310672 74.8910487,6.86837901 L74.8910487,4.60749237 C74.8910487,4.28281959 74.8455103,4.07910333 74.7553443,3.9963436 C74.6679106,3.90903664 74.4620771,3.85083199 74.1369331,3.81991078 C74.0913947,3.68804088 74.0831978,3.57890717 74.1141639,3.4916002 C74.8327595,3.39701766 75.3619155,3.28606505 75.7025426,3.15783295 C75.8045485,3.15783295 75.8555515,3.18420693 75.8555515,3.23695489 C75.8254962,3.73169436 75.8100131,4.17186698 75.8100131,4.5565633 L75.8100131,6.86837901 Z M84.7746983,3.05415592 C84.8694181,3.05415592 84.916778,3.08962438 84.916778,3.14873847 C84.916778,3.14873847 84.8575781,3.69440701 84.8575781,4.04727267 C84.8575781,4.21370157 84.940458,4.09456394 84.9759779,4.04727267 C85.6973058,3.24513991 86.2656248,3.09053383 86.8466945,3.09053383 C87.2610937,3.09053383 87.6272223,3.23240765 87.8285019,3.49069076 C87.9711029,3.68133829 88.0520948,3.92636929 88.0969875,4.20914325 C88.7893416,3.32992162 89.6029956,3.07098612 90.1473161,3.07780156 C90.5617154,3.08325825 90.9278439,3.21967538 91.1291236,3.47795849 C91.4032646,3.84446586 91.4497138,4.41196114 91.4497138,5.06221615 L91.4497138,6.82472553 C91.4497138,7.79237774 91.5817751,7.84239736 92.2429923,7.90151145 C92.3012814,7.97244836 92.3012814,8.22163699 92.2429923,8.2925739 C91.7338732,8.27984164 91.4724829,8.26983771 90.9888654,8.26983771 C90.5143555,8.26983771 90.2793774,8.28256998 89.7802768,8.2925739 C89.7210769,8.22163699 89.7210769,7.97244836 89.7802768,7.90151145 C90.3959557,7.84330681 90.5143555,7.79510608 90.5143555,6.82472553 L90.5143555,5.02583825 C90.5143555,4.6711537 90.4906755,4.35284705 90.3722757,4.11548123 C90.230196,3.84355641 89.9815564,3.68985977 89.7447569,3.68985977 C89.2829977,3.68985977 88.8212386,3.94814288 88.3713194,4.38740606 C88.2765996,4.49381142 88.1700398,4.63568524 88.1700398,4.88669277 L88.1700398,6.82472553 C88.1700398,7.79237774 88.2765996,7.84239736 88.8804385,7.90151145 C88.9033362,7.91071986 88.9226173,7.91247773 88.9423706,7.91424372 C89.0006598,7.98518063 89.0006598,8.23436926 88.9423706,8.30530617 C88.4332516,8.2925739 88.1718613,8.28256998 87.6882437,8.28256998 C87.2137338,8.28256998 86.9787558,8.29530225 86.4796552,8.30530617 L86.4761264,8.29108291 C86.4531099,8.29158526 86.4297104,8.29208287 86.405883,8.2925739 C86.3348431,8.22163699 86.3348431,7.97244836 86.405883,7.90151145 C86.7583288,7.87263473 86.9650607,7.84622036 87.0839122,7.70843426 C87.1852833,7.56721866 87.2137338,7.31313454 87.2137338,6.8374578 L87.2137338,5.03857051 C87.2137338,4.68388596 87.1900539,4.36557931 87.0716541,4.1282135 C86.9295743,3.85628868 86.6809348,3.70259204 86.4441352,3.70259204 C85.9823761,3.70259204 85.5206169,3.96087515 85.0706977,4.40013832 C84.9759779,4.50654369 84.8694181,4.64841751 84.8694181,4.89942504 L84.8694181,6.8374578 C84.8694181,7.80511001 84.9759779,7.85512962 85.5798168,7.91424372 C85.6508567,7.98518063 85.6508567,8.23436926 85.5798168,8.30530617 C85.0825377,8.2925739 84.8694181,8.28256998 84.4076589,8.28256998 C83.8985399,8.28256998 83.5907004,8.29530225 83.1052613,8.30530617 C83.0342215,8.23436926 83.0342215,7.98518063 83.1052613,7.91424372 C83.81566,7.85603907 83.9340598,7.80783835 83.9340598,6.8374578 L83.9340598,4.53200822 C83.9340598,3.84628475 83.80382,3.78808011 83.1644612,3.72896602 C83.1407813,3.65802911 83.1171013,3.46795457 83.1407813,3.3979271 C83.9577398,3.29152174 84.4431789,3.18511637 84.7746983,3.05415592 Z M95.1082671,3.01686857 C96.9443745,3.01686857 97.5946625,4.44833904 97.5946625,5.67791215 C97.5946625,6.86019399 96.8496546,8.32622346 95.0845871,8.32622346 C93.4142394,8.32622346 92.5981917,6.99024499 92.5981917,5.78431752 C92.5981917,4.28281959 93.5107808,3.01686857 95.1082671,3.01686857 Z M93.6173406,5.51330214 C93.6173406,6.4245686 94.0672597,7.93788935 95.2986175,7.93788935 C95.8550965,7.93788935 96.5773351,7.61685436 96.5773351,6.05897068 C96.5773351,4.32101638 95.9971762,3.4106542 94.9780273,3.4106542 C93.9834691,3.40793103 93.6173406,4.48471695 93.6173406,5.51330214 Z M105.10374,0.030091801 C105.208478,0.030091801 105.256749,0.0655602561 105.256749,0.148319985 C105.256749,0.148319985 105.208478,0.621232719 105.208478,1.38971591 L105.20838,4.12679615 C105.233083,4.14556864 105.278712,4.07594419 105.306841,4.0453028 C106.02908,3.24135116 106.596488,3.08674507 107.177558,3.08674507 C107.591957,3.08674507 107.961728,3.22861889 108.160276,3.486902 C108.436238,3.84704323 108.479955,4.42090465 108.479955,5.07115966 L108.479955,6.83366904 C108.479955,7.80132125 108.610195,7.85134087 109.273234,7.91045496 C109.332434,7.98139187 109.332434,8.2305805 109.273234,8.30151741 C108.764115,8.28878514 108.503635,8.27878122 108.018196,8.27878122 C107.544597,8.27878122 107.307797,8.29151349 106.810518,8.30151741 C106.751318,8.2305805 106.751318,7.98139187 106.810518,7.91045496 C107.426197,7.85225031 107.544597,7.80404959 107.544597,6.83366904 L107.544597,5.03478175 C107.544597,4.6800972 107.520917,4.35906221 107.402517,4.12442474 C107.264991,3.85340937 107.016352,3.69880328 106.774998,3.69880328 C106.308685,3.69880328 105.85148,3.9534486 105.401561,4.39634956 C105.322628,4.48198921 105.235472,4.59731221 105.208613,4.77863332 L105.208478,6.83912572 C105.208478,7.8213291 105.340539,7.88044319 106.062778,7.91591164 C106.133818,7.98684855 106.133818,8.23603719 106.062778,8.3069741 C105.551837,8.29424183 105.256749,8.28423791 104.74854,8.28423791 C104.227581,8.28423791 103.919742,8.29697017 103.421552,8.3069741 C103.350512,8.23603719 103.350512,7.98684855 103.421552,7.91591164 C104.143791,7.88044319 104.275852,7.8213291 104.275852,6.83912572 L104.274941,1.67346355 C104.274941,0.68034681 104.132862,0.74037035 103.517183,0.704901895 C103.446143,0.63578388 103.421552,0.446618786 103.446143,0.349307897 C103.919742,0.313839442 104.80683,0.148319985 105.10374,0.030091801 Z M110.065803,3.21330925 L110.599513,3.21330925 L110.599513,2.98140012 C110.599513,2.41481429 110.591316,2.04830692 110.576743,1.88187801 C110.57219,1.85550403 110.576743,1.83458674 110.587673,1.82003558 C110.603156,1.80457497 110.631389,1.78729547 110.672374,1.76910651 C110.714269,1.75000812 110.737038,1.7381853 110.740682,1.73454751 L111.416471,1.42897313 C111.518477,1.42897313 111.567658,1.46626048 111.564015,1.54174462 C111.533049,1.85186624 111.518477,2.2602082 111.518477,2.76586105 L111.518477,3.21330925 L112.913773,3.21330925 C112.974794,3.21330925 113.00485,3.23786433 113.00485,3.2869745 L113.00485,3.51979308 C113.00485,3.62165121 112.911951,3.67076137 112.727066,3.66712358 L111.518477,3.66712358 L111.518477,6.60191088 C111.518477,6.97933162 111.544889,7.25307534 111.597714,7.42314203 C111.654181,7.58957093 111.756187,7.67233066 111.903732,7.67233066 C112.259842,7.67233066 112.5777,7.56319696 112.857305,7.34402009 C112.974794,7.35129567 113.042191,7.41768534 113.061317,7.54227966 C112.604112,8.0515703 112.082242,8.30712506 111.495708,8.30712506 C110.898244,8.30712506 110.599513,7.92515709 110.599513,7.16213058 L110.599513,3.66712358 L109.912794,3.66712358 C109.874542,3.66712358 109.855415,3.64438739 109.855415,3.59891502 L109.855415,3.44612783 C109.855415,3.29061229 109.925545,3.21330925 110.065803,3.21330925 Z M31.6851472,3.0650693 C33.5212546,3.0650693 34.1715426,4.49653976 34.1715426,5.72611287 C34.1715426,6.90839471 33.4265348,8.37442418 31.6614672,8.37442418 C29.9911195,8.37442418 29.1750718,7.03844571 29.1750718,5.83251824 C29.1750718,4.33102031 30.0876609,3.0650693 31.6851472,3.0650693 Z M30.1942207,5.56150286 C30.1942207,6.47276932 30.6441398,7.98609007 31.8754976,7.98609007 C32.4319766,7.98609007 33.1542153,7.66505508 33.1542153,6.1071714 C33.1542153,4.3692171 32.5740563,3.45885492 31.5549074,3.45885492 C30.5603492,3.45613175 30.1942207,4.53291767 30.1942207,5.56150286 Z M17.6802743,7.88968863 C17.7513142,7.96062554 17.7513142,8.20981417 17.6802743,8.28075108 C17.1711553,8.26801882 16.874245,8.2580149 16.3660367,8.2580149 C15.8468992,8.2580149 15.5390598,8.27074716 15.0390484,8.28075108 C14.9716516,8.20981417 14.9716516,7.96062554 15.0390484,7.88968863 C15.7612871,7.83148399 15.8933484,7.79510608 15.8933484,6.81290271 L15.8933484,4.50745313 C15.8933484,3.83446194 15.7685732,3.76534392 15.122839,3.70441093 C15.1000698,3.63347402 15.0736576,3.44339948 15.1000698,3.37337202 C15.9161175,3.26696666 16.3842521,3.16056129 16.7221468,3.02960084 C16.8168667,3.02960084 16.8751558,3.0650693 16.8751558,3.11327002 C16.8751558,3.11327002 16.8287066,3.86993039 16.8287066,4.45834297 L16.8287066,6.81563106 C16.8277959,7.79601553 16.9580356,7.84148791 17.6802743,7.88968863 Z M16.365126,0.606832526 C16.6857161,0.606832526 16.9325342,0.936961992 16.9325342,1.22161908 C16.9325342,1.46989827 16.6483747,1.78911436 16.3168553,1.78911436 C16.0326958,1.78911436 15.7494471,1.48172108 15.7494471,1.17341836 C15.7503579,0.890580166 16.0809665,0.606832526 16.365126,0.606832526 Z M20.324504,4.4408921e-15 C20.4292422,4.4408921e-15 20.4775129,0.0354684551 20.4775129,0.118228184 C20.4775129,0.118228184 20.4292422,0.591140918 20.4292422,1.35962411 L20.4291444,4.09670435 C20.4538472,4.11547684 20.4994764,4.04585239 20.5276051,4.015211 C21.2498438,3.21125935 21.817252,3.05665327 22.3983217,3.05665327 C22.812721,3.05665327 23.1824926,3.19852709 23.3810399,3.4568102 C23.6570025,3.81695143 23.7007193,4.39081285 23.7007193,5.04106786 L23.7007193,6.80357724 C23.7007193,7.77122945 23.8309591,7.82124906 24.4939979,7.88036316 C24.5531978,7.95130007 24.5531978,8.2004887 24.4939979,8.27142561 C23.9848788,8.25869334 23.7243993,8.24868942 23.2389602,8.24868942 C22.765361,8.24868942 22.5285615,8.26142169 22.0312824,8.27142561 C21.9720825,8.2004887 21.9720825,7.95130007 22.0312824,7.88036316 C22.6469613,7.82215851 22.765361,7.77395779 22.765361,6.80357724 L22.765361,5.00468995 C22.765361,4.6500054 22.7416811,4.32897041 22.6232813,4.09433294 C22.4857554,3.82331757 22.2371159,3.66871148 21.9957625,3.66871148 C21.5294495,3.66871148 21.0722441,3.9233568 20.622325,4.36625776 C20.5433918,4.45189741 20.4562364,4.56722041 20.4293772,4.74854152 L20.4292422,6.80903392 C20.4292422,7.79123729 20.5613035,7.85035139 21.2835422,7.88581984 C21.3545821,7.95675675 21.3545821,8.20594538 21.2835422,8.27688229 C20.7726016,8.26415003 20.4775129,8.25414611 19.9693046,8.25414611 C19.4483456,8.25414611 19.1405061,8.26687837 18.6423163,8.27688229 C18.5712764,8.20594538 18.5712764,7.95675675 18.6423163,7.88581984 C19.364555,7.85035139 19.4966163,7.79123729 19.4966163,6.80903392 L19.4957055,1.64337175 C19.4957055,0.650255009 19.3536257,0.710278549 18.7379469,0.674810094 C18.666907,0.605692079 18.6423163,0.416526985 18.666907,0.319216096 C19.1405061,0.28374764 20.0275937,0.118228184 20.324504,4.4408921e-15 Z M25.287005,3.18329748 L25.8207148,3.18329748 L25.8207148,2.95138835 C25.8207148,2.38480252 25.8125179,2.01829515 25.7979456,1.85186624 C25.7933918,1.82549226 25.7979456,1.80457497 25.8088748,1.79002381 C25.8243579,1.7745632 25.8525917,1.7572837 25.8935762,1.73909475 C25.9354715,1.71999635 25.9582407,1.70817353 25.9618838,1.70453574 L26.6376733,1.39896136 C26.7396793,1.39896136 26.7888607,1.43624871 26.7852177,1.51173285 C26.7542516,1.82185447 26.7396793,2.23019643 26.7396793,2.73584928 L26.7396793,3.18329748 L28.1349752,3.18329748 C28.1959966,3.18329748 28.226052,3.20785256 28.226052,3.25696273 L28.226052,3.48978131 C28.226052,3.59163944 28.1331537,3.6407496 27.9482679,3.63711181 L26.7396793,3.63711181 L26.7396793,6.57189911 C26.7396793,6.94931985 26.7660916,7.22306357 26.8189161,7.39313026 C26.8753837,7.55955916 26.9773896,7.64231889 27.124934,7.64231889 C27.4810441,7.64231889 27.798902,7.53318519 28.0785076,7.31400832 C28.1959966,7.3212839 28.2633934,7.38767357 28.2825195,7.51226789 C27.8253142,8.02155853 27.3034444,8.27711329 26.7169101,8.27711329 C26.1194466,8.27711329 25.8207148,7.89514532 25.8207148,7.13211881 L25.8207148,3.63711181 L25.1339961,3.63711181 C25.0957438,3.63711181 25.0766177,3.61437563 25.0766177,3.56890325 L25.0766177,3.41611606 C25.0766177,3.26060052 25.1467468,3.18329748 25.287005,3.18329748 Z M38.6206422,3.0823488 C39.0350414,3.0823488 39.40117,3.22422262 39.6024496,3.48250573 C39.8765907,3.8490131 39.9230398,4.41650838 39.9230398,5.06676339 L39.9230398,6.82927277 C39.9230398,7.79692498 40.0551011,7.8469446 40.7163183,7.90605869 C40.7746075,7.9769956 40.7746075,8.22618423 40.7163183,8.29712114 C40.2071993,8.28438887 39.945809,8.27438495 39.4621914,8.27438495 C38.9876815,8.27438495 38.7527035,8.28711722 38.2536028,8.29712114 C38.194403,8.22618423 38.194403,7.9769956 38.2536028,7.90605869 C38.8692817,7.84785404 38.9876815,7.79965332 38.9876815,6.82927277 L38.9876815,5.03038548 C38.9876815,4.67570093 38.9640015,4.35739429 38.8456018,4.12002847 C38.703522,3.84810365 38.4548825,3.69440701 38.2180829,3.69440701 C37.7563238,3.69440701 37.2945646,3.95269012 36.8446454,4.39195329 C36.7499256,4.49835866 36.6433658,4.64023248 36.6433658,4.89124001 L36.6433658,6.82927277 C36.6433658,7.79692498 36.7499256,7.8469446 37.3537645,7.90605869 C37.4248044,7.9769956 37.4248044,8.22618423 37.3537645,8.29712114 C36.8564854,8.28438887 36.6433658,8.27438495 36.1816066,8.27438495 C35.6724876,8.27438495 35.3646481,8.28711722 34.879209,8.29712114 C34.8081692,8.22618423 34.8081692,7.9769956 34.879209,7.90605869 C35.5896077,7.84785404 35.7080075,7.79965332 35.7080075,6.82927277 L35.7080075,4.52382319 C35.7080075,3.83809973 35.5777677,3.77989508 34.9384089,3.72078099 C34.914729,3.64984408 34.891049,3.45976954 34.914729,3.38974208 C35.7316875,3.28333671 36.2171266,3.17693135 36.548646,3.0459709 C36.6433658,3.0459709 36.6907257,3.08143935 36.6907257,3.14055344 C36.6907257,3.14055344 36.6315258,3.68622198 36.6315258,4.03908764 C36.6315258,4.20551654 36.7144057,4.08637891 36.7499256,4.03908764 C37.4712535,3.23695489 38.0395725,3.0823488 38.6206422,3.0823488 Z M42.1726357,6.86201288 L42.1726357,1.79093326 C42.1726357,1.54174462 42.1671711,1.35712677 42.1553311,1.23617024 C42.1444019,1.11157592 42.0952204,1.02063117 42.0077868,0.964245419 C41.9249069,0.903312432 41.8584209,0.871481768 41.8092394,0.867843977 C41.763701,0.864206187 41.6371044,0.855111711 41.4294493,0.839651103 C41.3766248,0.786903144 41.3502126,0.699596178 41.3502126,0.578639651 C41.3502126,0.544990091 41.3538556,0.516797217 41.3611418,0.494061028 C42.0496821,0.441313069 42.590678,0.334907704 42.9841296,0.176663827 C43.0861355,0.176663827 43.1371385,0.21667952 43.1371385,0.295801458 C43.1070832,0.605013631 43.0916002,1.01153669 43.0916002,1.51355175 L43.0916002,5.52512496 C43.393975,5.43781799 43.8939864,5.01310598 44.5898128,4.25007947 C44.7291602,4.11002455 44.7992893,3.98997747 44.7992893,3.88720989 C44.7992893,3.74806442 44.6599419,3.67258027 44.3794255,3.66075745 C44.3457271,3.62710789 44.3284225,3.56435601 44.3284225,3.4743207 C44.3284225,3.37973815 44.3457271,3.31334848 44.3794255,3.27606113 C44.9550306,3.29061229 45.3120515,3.29879732 45.4523097,3.29879732 C45.5543157,3.29879732 45.8903889,3.29061229 46.4623509,3.27606113 C46.4960493,3.30971069 46.5133539,3.37428147 46.5133539,3.46795457 C46.5133539,3.56253711 46.4960493,3.62710789 46.4623509,3.66075745 C45.921355,3.68349364 45.4951158,3.85356034 45.1854548,4.17095754 L44.3001887,5.14497588 C44.2701334,5.1758971 44.2546503,5.21500334 44.2546503,5.26411351 C44.2546503,5.31686147 44.2737765,5.37051887 44.3111179,5.42326683 L45.6736262,7.42859872 C45.7902045,7.60594099 45.9231765,7.72507862 46.0707209,7.78601161 C46.2219083,7.84239736 46.4222771,7.88786974 46.6718275,7.9215193 C46.7055259,7.95516886 46.7228304,8.01973963 46.7228304,8.11432218 C46.7228304,8.20526694 46.7055259,8.26710937 46.6718275,8.30075893 C46.2064252,8.28620777 45.8885673,8.27893219 45.7182538,8.27893219 C45.4951158,8.27893219 45.2273501,8.28620777 44.9131353,8.30075893 C44.88308,8.30075893 44.8675969,8.28256998 44.8675969,8.24437318 L44.8675969,8.05793643 C44.8675969,7.89514532 44.7783417,7.68506293 44.600742,7.42859872 L43.7555497,6.2390413 C43.6462576,6.07625019 43.5415193,5.96711648 43.4431564,5.90982128 C43.3493474,5.84979774 43.2318584,5.81978597 43.0916002,5.81978597 L43.0916002,6.86201288 C43.0916002,7.31946501 43.1280309,7.6041221 43.1990707,7.71780304 C43.2755752,7.82693675 43.4395134,7.89514532 43.6927067,7.9215193 C43.7273159,7.95516886 43.7446205,8.01973963 43.7446205,8.11432218 C43.7482636,8.20435749 43.730959,8.26710937 43.6927067,8.30075893 C43.0269357,8.28620777 42.6753794,8.27802274 42.6380379,8.27802274 C42.4604382,8.27802274 42.046039,8.28620777 41.3948402,8.30075893 C41.3611418,8.26710937 41.3438372,8.20435749 41.3438372,8.11432218 C41.3438372,8.01973963 41.3611418,7.95516886 41.3948402,7.9215193 C41.7354673,7.89878311 41.9494976,7.83239343 42.0360205,7.72325973 C42.1270973,7.61412602 42.1726357,7.32674059 42.1726357,6.86201288 Z M50.368633,7.91697206 C50.4396729,7.98790897 50.4396729,8.2370976 50.368633,8.30803451 C49.8595139,8.29530225 49.5626037,8.28529832 49.0543954,8.28529832 C48.5352579,8.28529832 48.2274185,8.29803059 47.7274071,8.30803451 C47.6600103,8.2370976 47.6600103,7.98790897 47.7274071,7.91697206 C48.4496457,7.85876741 48.581707,7.82238951 48.581707,6.84018614 L48.581707,4.53473656 C48.581707,3.86174536 48.4569319,3.79262735 47.8111977,3.73169436 C47.7884285,3.66075745 47.7620162,3.47068291 47.7884285,3.40065545 C48.6044762,3.29425008 49.0726108,3.18784472 49.4105055,3.05688427 C49.5052253,3.05688427 49.5635145,3.09235272 49.5635145,3.14055344 C49.5635145,3.14055344 49.5170653,3.89721382 49.5170653,4.48562639 L49.5170653,6.84291448 C49.5161546,7.82329896 49.6463943,7.86877134 50.368633,7.91697206 Z M49.0534846,0.634115953 C49.3740748,0.634115953 49.6208928,0.964245419 49.6208928,1.24890251 C49.6208928,1.49718169 49.3367333,1.81639779 49.005214,1.81639779 C48.7210545,1.81639779 48.4378058,1.50900451 48.4378058,1.20070179 C48.4387165,0.917863593 48.7693252,0.634115953 49.0534846,0.634115953 Z" id="nah-tagline" fill="#000000" fill-rule="nonzero"></path>
    </g>
</svg>