<svg xmlns="http://www.w3.org/2000/svg" viewBox="0 0 118.86 18.08"><path d="M8.97 3.14s-.31-.62-.41-.83C7.86.93 7.88.86 7.18.76c-.2-.03-.3-.05-.3-.15V.18l.06-.04h4.1l.11.04v.43c0 .1-.07.15-.22.15l-.3.04c-.75.06-.63.37-.13 1.36l4.74 9.69.16.04 4.21-9.98c.15-.4.12-.69-.06-.86-.19-.16-.32-.26-.81-.28l-.39-.02s-.09-.02-.14-.05c-.04-.03-.07-.07-.07-.12V.17l.06-.04h4.75l.05.04v.42c0 .11-.06.17-.19.17-.62.03-1.08.16-1.38.4s-.53.58-.7 1.01c0 0-3.87 8.85-5.19 11.8-.51.96-1 .88-1.44-.03-.93-1.91-3.53-7.69-3.53-7.69L8.99 3.14Z"/><path d="M16.56.13H12.7l-.06.04v.41c0 .05.02.09.07.12.04.03.09.05.14.05l.19.02c.49.02.71.15.78.23.12.14.17.3-.11.91l-4.99 9.95-.13-.03S5.01 4.3 3.97 1.78c-.11-.26-.16-.45-.16-.57 0-.26.23-.39.69-.41l.54-.02c.14 0 .22-.06.22-.17V.18L5.21.14S.93.13.05.14L0 .18v.43q0 .12.3.15c.54.03.9.12 1.07.26.17.15.35.51.59 1.09 1.3 3.12 4.06 8.69 5.4 11.86.39.87.87 1 1.46-.03 1.02-1.9 3.8-7.69 3.8-7.69l2.18-4.09c.25-.43.5-.82.62-1 .23-.33.36-.39.98-.42.13 0 .19-.06.19-.17v-.4l-.05-.04Z"/><path fill="#fff" d="M11.29 9.64c-.02.06.16.24.21.26l.13-.08c.05.02.17-.03.19-.09l.02-.22-.23-1.09c-.04-.06-.08-.02-.09.04z"/><path d="M24.69 13.05c0 .48.22.76.91.82l.46.04c.07 0 .13.04.13.13v.46l-.02.04s-1.65-.04-2.32-.04c-.61 0-2.3.04-2.3.04l-.04-.04v-.46c0-.09.07-.13.15-.13l.43-.04c.72-.07.93-.41.93-.82V5.82c0-.48-.26-.61-.93-.67l-.43-.05c-.09 0-.15-.02-.15-.09v-.5l.02-.04s1.71.04 2.39.04c.59 0 2.26-.04 2.26-.04l.02.04v.48c0 .07-.04.11-.13.11l-.46.04c-.67.06-.91.24-.91.67v7.23ZM31.09 13.05c0 .48.28.72.91.82l.24.04c.07.02.13.04.13.13v.46l-.02.04s-1.37-.04-2.02-.04c-.61 0-2.39.04-2.39.04l-.04-.04v-.46c0-.09.07-.13.15-.13l.43-.04c.65-.07.93-.41.93-.82V5.82c0-.48-.24-.61-.93-.67l-.43-.05c-.09 0-.15-.02-.15-.09v-.5l.02-.04s1.78.04 2.45.04c.61 0 1.97-.04 1.97-.04l.02.04v.48c0 .07-.04.09-.13.11l-.24.04c-.67.13-.91.24-.91.67v3.28c.72 0 1.13-.37 2.08-1.39.87-.96 1.54-1.76 1.54-2.17 0-.17-.2-.37-.63-.43-.09-.02-.13-.04-.13-.11v-.5l.02-.02s1.76.04 2.39.04c.56 0 1.52-.04 1.52-.04l.07.02v.5c0 .07-.07.11-.17.11-.85.07-1.43.11-2.21 1l-1.87 2.15c-.37.39-.5.63-.5.8 0 .13.09.24.2.37l3.28 3.95c.26.3.78.43 1.22.52l.11.02c.07.02.15.07.15.13v.46l-.07.02s-1.15-.02-1.76-.02c-.54 0-1.32.02-1.32.02l-.02-.02v-.26c0-.28-.02-.52-.33-.87l-2.41-3c-.33-.43-.67-.54-1.15-.54v3.21ZM42.79 13.05c0 .48.22.76.91.82l.46.04c.07 0 .13.04.13.13v.46l-.02.04s-1.65-.04-2.32-.04c-.61 0-2.3.04-2.3.04l-.04-.04v-.46c0-.09.07-.13.15-.13l.43-.04c.72-.07.93-.41.93-.82V5.82c0-.48-.26-.61-.93-.67l-.43-.05c-.09 0-.15-.02-.15-.09v-.5l.02-.04s1.71.04 2.39.04c.59 0 2.26-.04 2.26-.04l.02.04v.48c0 .07-.04.11-.13.11l-.46.04c-.67.06-.91.24-.91.67v7.23ZM47.48 5.87c0-.67-.28-.69-1.3-.76-.13 0-.15-.06-.15-.11v-.5l.04-.02c.33 0 1.61.04 2.24.04s1.48-.04 2.28-.04c3.08 0 3.64 1.52 3.64 2.65 0 1.3-.63 3.34-3.71 3.34-.54 0-.98-.04-1.37-.22v2.91c0 .48.26.59.96.69l.43.07c.09.02.15.04.15.13v.46l-.02.04s-1.74-.04-2.41-.04c-.61 0-2.24.04-2.24.04l-.02-.04v-.46c0-.09.04-.11.13-.13l.46-.07c.67-.09.89-.28.89-.69zm1.67 3.77c.43.17.98.2 1.41.2 1.3 0 1.93-.78 1.93-2.45 0-1.87-.85-2.28-2.04-2.28-1.04 0-1.3.2-1.3.76v3.78ZM63.62 4.52h-5.6l-2.17-.04-.02.04V5s0 .07.13.09l.5.04c.61.04.87.17.87.67v7.4c0 .43-.2.61-.87.67l-.5.04c-.11 0-.13.07-.13.11v.48l.02.04L58 14.5h5.73c.04-.69.2-1.58.46-2.65l-.54-.07c-.35 1.11-.82 1.97-2.15 1.97h-1.87c-.39 0-.63-.11-.63-.52V9.61h1.63c.56 0 .76.24.85.67l.11.48c0 .07.04.11.15.11h.37l.04-.04c-.04-.5-.13-.95-.13-1.5s.09-1.13.13-1.61c0-.04 0-.07-.04-.07h-.37c-.09 0-.13.04-.13.11l-.13.46c-.09.43-.24.69-.85.69H59V5.7c0-.37.22-.46.63-.46h1.74c1.39 0 1.8 1.15 2.02 1.93l.54-.07c-.15-.82-.28-1.67-.3-2.6M66.12 13.92l.5-.04c.65-.07.87-.26.87-.93V5.79c0-.57-.15-.57-.87-.63l-.48-.05c-.09 0-.15-.04-.15-.11v-.48l.02-.04s1.91.04 2.3.04c.41 0 2.3-.04 2.86-.04 3.62 0 5.4 2.26 5.4 5.14 0 3.8-2.69 4.92-5.1 4.92-1.74 0-2.49-.04-3.17-.04s-2.3.04-2.3.04l-.02-.04v-.46c0-.06.04-.13.13-.13Zm4.84 0c2.39 0 3.73-.89 3.73-3.93 0-2.26-.5-4.88-4.15-4.88-.85 0-1.39.13-1.39.67v7.16c0 .61.15.98 1.8.98ZM81.71 13.05c0 .48.22.76.91.82l.46.04c.07 0 .13.04.13.13v.46l-.02.04s-1.65-.04-2.32-.04c-.61 0-2.3.04-2.3.04l-.04-.04v-.46c0-.09.07-.13.15-.13l.43-.04c.72-.07.93-.41.93-.82V5.82c0-.48-.26-.61-.93-.67l-.43-.05c-.09 0-.15-.02-.15-.09v-.5l.02-.04s1.71.04 2.39.04c.59 0 2.26-.04 2.26-.04l.02.04v.48c0 .07-.04.11-.13.11l-.46.04c-.67.06-.91.24-.91.67v7.23ZM88.39 13.88l.63.04c.09 0 .17.07.17.17v.41l-.04.04s-2.37-.04-2.89-.04c-.57 0-1.95.04-1.95.04l-.04-.04v-.41c0-.11.07-.17.17-.17.96-.07 1.5-.24 2.1-1.63l4.82-11.28c.24-.56.41-.78.74-.78.3 0 .41.22.59.65l4.45 11.76c.3.85.74 1.17 1.61 1.26l.24.02c.11 0 .22.07.22.17v.41l-.07.04s-1.67-.04-2.52-.04c-.76 0-2.89.04-2.89.04l-.02-.04v-.41c0-.11.04-.17.15-.17l.61-.04c.82-.06 1.13-.33.91-.93l-1.32-3.67h-4.51c-.52 0-.65.09-.76.37l-1.26 3.15c-.22.54.07 1.02.87 1.09Zm5.32-5.52-2.1-5.79h-.04L89.4 8.08c-.09.22.06.28.54.28h3.78ZM60.61.05c.08-.03.19-.04.31-.04.45 0 .85.17 1.2.5l.06.24-2.51 2.37c-.28.28-.49.42-.65.42q-.105 0-.21-.09a.26.26 0 0 1-.1-.2c0-.14.09-.34.26-.61z"/><path fill="#0e65c0" d="M117 4.8c-.38 0-.74.15-1.05.44-.08.07-.17.11-.27.11s-.21-.04-.28-.11a.4.4 0 0 1-.12-.3V.19h-4.73a.36.36 0 0 0-.29.13c-.07.08-.11.18-.11.28s.04.2.11.27c.29.31.44.67.44 1.05 0 1.03-1.13 1.86-2.53 1.86s-2.53-.83-2.53-1.86c0-.38.15-.74.44-1.05.07-.08.11-.17.11-.27a.41.41 0 0 0-.4-.41h-4.73v4.75c0 .11.04.22.13.3.08.07.18.11.28.11s.2-.04.27-.11c.31-.29.67-.44 1.05-.44 1.02 0 1.85 1.14 1.85 2.54s-.83 2.54-1.85 2.54c-.38 0-.74-.15-1.05-.44-.08-.07-.17-.11-.27-.11s-.2.04-.28.11c-.08.08-.13.18-.13.3v4.75h4.73c.11 0 .22.04.29.13.07.08.11.18.11.28s-.04.2-.11.27c-.29.31-.44.67-.44 1.05 0 1.03 1.13 1.86 2.53 1.86s2.53-.83 2.53-1.86c0-.38-.15-.74-.44-1.05-.07-.08-.11-.17-.11-.27a.41.41 0 0 1 .4-.41h4.73V9.74c0-.11.04-.22.12-.3.08-.07.18-.11.28-.11s.2.04.27.11c.31.29.67.44 1.05.44 1.02 0 1.85-1.14 1.85-2.54S118.02 4.8 117 4.8m-11.36 6.17.03-.28c.04-.13.16-.29.34-.49.19-.2.57-.54 1.16-1.02l.85-.71q.21-.18.36-.36c.1-.12.19-.25.26-.39s.12-.29.16-.45c.03-.16.05-.34.05-.53 0-.2-.05-.38-.15-.53a.45.45 0 0 0-.39-.22c-.18 0-.36.06-.53.17-.17.12-.26.23-.28.34-.01.07-.01.15 0 .23.01.09.01.16 0 .19q-.03.135-.12.24c-.06.07-.13.12-.21.16s-.16.05-.24.05-.16-.02-.22-.06a.5.5 0 0 1-.14-.15.4.4 0 0 1-.04-.19c0-.1.03-.21.08-.32s.12-.21.2-.31q.135-.15.3-.27c.12-.08.24-.16.38-.23.33-.16.69-.24 1.07-.24s.69.09.95.28c.25.19.38.45.38.8 0 .15-.01.28-.04.41s-.08.25-.16.38-.16.24-.23.34-.19.22-.36.37-.31.27-.44.38c-.13.1-.31.25-.55.45l-.58.46c-.27.22-.46.48-.55.78h1.06c.19 0 .36-.06.51-.19.1-.08.19-.19.28-.33-.01.01.4.19.39.19-.15.43-.29.78-.42 1.03h-3.17.01ZM113 7.96c-.08 0-.18.01-.31.02s-.22.02-.26.02-.1 0-.17.01h-.22c-.5 0-.89-.02-1.18-.05-.06.15-.19.53-.4 1.16.1-.03.27-.05.48-.08.22-.03.38-.04.51-.04.4 0 .72.11.94.32q.33.315.33.84c0 .67-.29 1.28-.85 1.8-.43.39-.9.58-1.41.58s-.9-.08-1.15-.24q-.24-.15-.24-.39c0-.13.05-.24.15-.34q.15-.15.36-.15c.27 0 .46.11.55.34q.15.39.36.39c.24 0 .45-.13.63-.37.12-.17.23-.4.33-.72.1-.31.15-.6.15-.89 0-.15-.03-.28-.08-.39a.5.5 0 0 0-.2-.23.6.6 0 0 0-.27-.07c-.2 0-.37.02-.5.05-.14.04-.76.17-.76.17l.88-2.61c.1.01.26.03.5.05s.42.04.55.04c.11 0 .24 0 .36-.01.12 0 .22-.01.3-.02.08 0 .2-.02.37-.04s.3-.03.4-.04l.16.11-.31.75Z"/><g fill="#fff"><path d="M108.64 7.72c-.07.14-.16.27-.26.39q-.15.18-.36.36l-.85.71c-.58.49-.97.83-1.16 1.02-.19.2-.3.36-.34.49l-.03.27h3.16c.13-.25.27-.6.42-1.03.01 0-.4-.18-.39-.19-.09.14-.18.25-.28.33-.15.13-.32.19-.51.19h-1.06c.09-.3.27-.56.55-.78l.58-.46c.24-.2.43-.35.55-.45s.27-.23.44-.38.29-.27.36-.37c.07-.09.15-.21.23-.34s.13-.26.16-.38c.03-.13.04-.26.04-.41 0-.34-.13-.61-.38-.8-.26-.19-.56-.28-.95-.28s-.74.08-1.07.24c-.13.07-.26.14-.38.23-.11.08-.22.18-.3.27-.08.1-.15.2-.2.31s-.08.21-.08.32c0 .07.01.13.04.19a.4.4 0 0 0 .36.21c.08 0 .16-.02.24-.05.08-.04.15-.09.21-.16q.09-.105.12-.24v-.19a1 1 0 0 1 0-.23c.02-.11.12-.23.28-.34a.86.86 0 0 1 .53-.17c.15 0 .28.07.39.22.1.15.15.32.15.53 0 .19-.02.37-.05.53s-.09.31-.16.45ZM113.31 7.21l-.16-.11c-.1 0-.24.02-.4.04s-.28.03-.37.04c-.08 0-.18.01-.3.02-.12 0-.24.01-.36.01-.13 0-.31-.01-.55-.04-.24-.02-.4-.04-.5-.05l-.88 2.61s.62-.14.76-.17c.14-.04.31-.05.5-.05.1 0 .19.02.27.07.08.04.15.12.2.23s.08.24.08.39c0 .28-.05.57-.15.89q-.15.465-.33.72c-.19.25-.39.37-.63.37q-.21 0-.36-.39c-.09-.23-.27-.34-.55-.34a.46.46 0 0 0-.36.15c-.1.1-.15.21-.15.34q0 .24.24.39c.25.16.64.24 1.15.24s.99-.19 1.41-.58c.57-.52.85-1.12.85-1.8q0-.525-.33-.84c-.33-.315-.54-.32-.94-.32-.13 0-.29.01-.51.04-.21.03-.37.05-.48.08.21-.63.34-1.01.4-1.16.28.03.68.05 1.18.05h.22c.07 0 .13 0 .17-.01.04 0 .13-.01.26-.02s.23-.02.31-.02.31-.74.31-.74Z"/></g></svg>