<svg width="119.001" height="10.653" xml:space="preserve" xmlns="http://www.w3.org/2000/svg"><path style="font-style:normal;font-variant:normal;font-weight:300;font-stretch:normal;font-size:144px;font-family:'AR PL UMing CN';-inkscape-font-specification:'AR PL UMing CN Light';fill:#000;fill-opacity:1;stroke:none;stroke-width:.0839713px;stroke-linecap:butt;stroke-linejoin:miter;stroke-opacity:1" d="m.861 1.5-.23 1.148C.39 3.845.693 4.8 2.072 4.8c.689 0 1.535-.18 2.527-.773l-.472 2.321c-.193 1.004-.411 1.064-1.27 1.1-.084.073-.133.327-.072.4.592-.012.955-.025 1.572-.025.604 0 .955.013 1.56.025.084-.073.133-.327.072-.4-.834-.036-1.028-.096-.834-1.1l.98-4.849C6.326.496 6.543.435 7.403.4c.084-.073.132-.326.072-.399-.593.012-.956.024-1.572.024-.605 0-.956-.012-1.56-.024C4.258.074 4.21.327 4.27.4c.835.036 1.028.097.835 1.1l-.412 2.056a3.852 3.852 0 0 1-1.97.544c-.871 0-1.294-.326-1.1-1.318L1.888 1.5C2.083.496 2.3.435 3.16.4c.083-.074.132-.327.07-.4-.59.012-.954.024-1.57.024C1.055.024.704.012.1 0 .016.073-.032.326.028.399c.834.036 1.028.097.834 1.1m6.353 3.846c-.242 1.233.315 2.6 2.02 2.6 1.801 0 2.865-1.5 3.107-2.71.254-1.257-.12-2.72-1.995-2.72-1.632 0-2.83 1.294-3.132 2.83m2.914-2.43c.895 0 1.318.7 1.198 2.03-.182.061-.387.11-.58.11-.46 0-.678-.242-1.222-.242a3.42 3.42 0 0 0-1.221.278l.012-.025c.205-1.051.798-2.152 1.813-2.152m1.15 2.37c-.025.109-.037.23-.061.339-.315 1.596-1.113 1.922-1.681 1.922-1.125 0-1.366-1.221-1.282-2.14.145-.024.423-.085.544-.085.424 0 .774.339 1.294.339.4 0 .87-.206 1.185-.375m1.196 1.983c-.072.375.182.702.714.702.58 0 .967-.303 1.366-.968.339-.58.653-1.814.81-2.636.194-.943.29-1.257.75-1.257h.544c.435 0 .447.169.363.58l-.641 3.24c-.073.351-.194.496-.629.545l-.242.024c-.06.012-.097.036-.109.097l-.048.23.024.024s.822-.025 1.258-.025c.471 0 1.294.025 1.294.025l.024-.025.048-.23c.012-.06-.036-.096-.085-.096l-.217-.024c-.387-.037-.484-.194-.411-.544l.677-3.374c.084-.46.133-.532.604-.568l.339-.024c.073 0 .109-.025.12-.085l.05-.242-.037-.024s-.822.024-1.342.024h-2.104c-.484 0-1.246-.024-1.246-.024l-.036.024-.036.193c-.024.11.024.121.217.134.678.048.678.217.424 1.487-.254 1.27-.484 1.935-.738 2.43-.242.436-.46.593-.653.593-.145 0-.181-.097-.17-.254.013-.218 0-.46-.326-.46-.29 0-.495.242-.556.508m6.904-1.922c-.242 1.233.314 2.6 2.02 2.6 1.801 0 2.865-1.5 3.107-2.71.254-1.257-.12-2.72-1.995-2.72-1.633 0-2.83 1.294-3.132 2.83m2.914-2.43c.895 0 1.318.7 1.197 2.03a1.88 1.88 0 0 1-.58.11c-.46 0-.677-.242-1.221-.242a3.42 3.42 0 0 0-1.222.278l.012-.025c.206-1.052.798-2.152 1.814-2.152m1.149 2.37c-.024.109-.036.23-.06.339-.315 1.596-1.113 1.922-1.681 1.922-1.125 0-1.367-1.221-1.282-2.14.145-.024.423-.085.544-.085.423 0 .774.339 1.294.339.399 0 .87-.206 1.185-.375m2.125.06c-.242 1.234.314 2.6 2.019 2.6 1.802 0 2.866-1.499 3.108-2.708.254-1.258-.121-2.72-1.996-2.72-1.632 0-2.83 1.293-3.131 2.829m2.914-2.43c.895 0 1.318.7 1.197 2.03a1.88 1.88 0 0 1-.58.11c-.46 0-.678-.242-1.222-.242a3.42 3.42 0 0 0-1.221.278l.012-.025c.206-1.052.798-2.152 1.814-2.152m1.149 2.37c-.025.109-.037.23-.06.339-.315 1.596-1.113 1.922-1.682 1.922-1.124 0-1.366-1.221-1.281-2.14.145-.024.423-.085.544-.085.423 0 .774.339 1.294.339.399 0 .87-.206 1.185-.375m5.343-2.2c.98 0 1.112.338 1.125 1.317l.314-.048c.048-.556.085-1.016.218-1.717h-4.462a12.26 12.26 0 0 1-.496 1.717l.326.048c.4-.979.641-1.318 1.633-1.318h.205l-.761 3.821c-.097.472-.17.557-.593.569l-.508.024c-.048.012-.072.024-.084.073l-.049.278s.883-.025 1.451-.025c.593 0 1.548.025 1.548.025l.048-.278c.012-.037-.012-.061-.06-.073l-.472-.024c-.375-.012-.471-.085-.375-.569l.762-3.82h.23m8.915 3.808c-.084.46-.169.557-.604.58l-.327.025c-.036.012-.06.024-.072.06l-.049.266.013.025c.362-.012.87-.025 1.305-.025.448 0 .883.013 1.246.025l.024-.025.049-.253c.012-.049-.013-.061-.061-.073l-.23-.024c-.41-.037-.483-.097-.387-.58l.678-3.338c.096-.496.18-.52.604-.568l.242-.024c.048 0 .085-.025.097-.073l.048-.254-.012-.024c-.363.012-.81.024-1.258.024-.435 0-.93-.012-1.293-.024l-.025.024-.06.266c0 .048.012.06.048.06l.315.025c.375.036.471.109.387.568l-.266 1.294h-2.48l.267-1.294c.097-.496.181-.52.604-.568l.242-.024c.049 0 .085-.025.097-.073l.048-.254-.012-.024c-.363.012-.822.024-1.27.024-.435 0-.918-.012-1.281-.024l-.024.024-.06.266c0 .048.011.06.048.06l.314.025c.375.036.472.109.387.568L40.5 6.892c-.085.46-.17.557-.605.58l-.326.025c-.037.012-.06.024-.073.06l-.048.266.012.025c.363-.012.858-.025 1.294-.025.447 0 .894.013 1.257.025l.024-.025.049-.253c.012-.049-.012-.061-.06-.073l-.23-.024c-.412-.037-.484-.097-.387-.58l.326-1.633h2.479l-.327 1.632m2.535-.06c-.12.64.641 1.112 1.742 1.112 1.197 0 2.575-.846 2.962-2.793.29-1.463-.157-2.636-1.765-2.636-.569 0-1.1.194-1.705.23-.133.46-.266.87-.508 1.45l.29.05c.363-.775.859-1.355 1.753-1.355 1.077 0 1.222 1.04 1.004 2.152l-.036.024c-.278-.193-.58-.338-.931-.338-.52 0-.907.338-1.33.338-.158 0-.29-.072-.375-.072-.073 0-.121.12-.133.17-.037.169.483.386 1.003.386.545 0 .81-.266 1.27-.266.157 0 .302.049.435.109-.29 1.439-.967 2.152-1.983 2.152-.483 0-.762-.29-.834-.616-.109-.375-.23-.448-.435-.448-.218 0-.375.157-.424.35m7.324-1.982.29-1.427c.072-.363.23-.435.774-.435.653 0 1.088.181.943.93-.097.484-.556.932-1.258.932h-.75m-.072.35h.859c.689 0 .991.508.87 1.137-.169.81-.774 1.161-1.5 1.161-.592 0-.664-.109-.58-.544l.351-1.753M51.41 7.848s.846-.025 1.306-.025c.423 0 .786.025 1.548.025.713 0 1.79-.424 2.007-1.536.133-.677-.327-1.1-.834-1.258V5.03c.338-.048 1.015-.496 1.148-1.112.145-.738-.242-1.306-1.717-1.306-.46 0-.677.024-1.112.024-.52 0-1.318-.024-1.318-.024l-.024.024-.06.266c0 .024.023.06.06.06l.41.025c.279.024.364.169.315.41l-.701 3.544c-.085.423-.266.52-.484.532l-.399.024c-.085.012-.109.036-.12.109l-.05.217.025.025m9.397-4.765c.98 0 1.112.339 1.124 1.318l.315-.048c.048-.556.084-1.016.217-1.717h-4.461a12.26 12.26 0 0 1-.496 1.717l.326.048c.4-.979.641-1.318 1.633-1.318h.205l-.762 3.821c-.096.472-.169.557-.592.569l-.508.024c-.048.012-.072.024-.085.073l-.048.278s.883-.025 1.451-.025c.593 0 1.548.025 1.548.025l.048-.278c.012-.037-.012-.061-.06-.073l-.472-.024c-.375-.012-.471-.085-.375-.569l.762-3.82h.23m1.697 3.748c-.121.64.64 1.112 1.74 1.112 1.198 0 2.576-.846 2.963-2.793.29-1.463-.157-2.636-1.765-2.636-.568 0-1.1.194-1.705.23-.133.46-.266.87-.508 1.45l.29.05c.363-.775.859-1.355 1.754-1.355 1.076 0 1.22 1.04 1.003 2.152l-.036.024c-.278-.193-.58-.338-.931-.338-.52 0-.907.338-1.33.338-.157 0-.29-.072-.375-.072-.073 0-.121.12-.133.17-.036.169.484.386 1.004.386.544 0 .81-.266 1.27-.266.156 0 .301.049.434.109-.29 1.439-.967 2.152-1.983 2.152-.483 0-.761-.29-.834-.616-.109-.375-.23-.448-.435-.448-.218 0-.375.157-.423.35m7.42-2.768c.399-.641 1.064-.992 1.475-.992.737 0 1.112.774.822 2.237-.218 1.04-.677 2.225-1.97 2.225-.194 0-.593-.024-.92-.52l.593-2.95m.29-1.427-.024-.024s-.278.024-.448.024c-.423 0-1.245-.024-1.245-.024l-.024.024-.049.23c-.012.06.012.097.073.097l.23.024c.386.048.483.193.41.532l-1.245 6.227c-.06.339-.266.496-.629.532l-.23.024c-.06.012-.108.037-.12.097l-.037.23.013.024s.834-.024 1.257-.024c.472 0 1.294.024 1.294.024l.036-.024.036-.23c.013-.06-.024-.085-.084-.097l-.23-.024c-.375-.036-.471-.193-.411-.532l.411-2.068c.29.17.605.266 1.04.266.629 0 1.173-.205 1.741-.677.653-.556 1.113-1.306 1.306-2.285.254-1.282-.278-2.467-1.45-2.467-.388 0-1.065.121-1.79.967h-.037l.206-.846m6.033.859c-.218-.46-.109-.412.447-.484.085-.073.133-.327.073-.4-.447.013-.858.025-1.221.025-.363 0-.593-.012-1.04-.024-.085.072-.133.326-.073.399.4.036.69.242.931.737l.75 1.536c.012.06.048.109-.024.182L74.809 6.77c-.629.653-.87.653-1.306.678-.084.072-.133.326-.072.399.447-.012.435-.025.87-.025.46 0 .569.013 1.016.025.085-.073.133-.327.073-.4-.315-.036-.508-.108-.17-.483l.98-1.1c.109-.121.145-.146.23-.025l.507.968c.327.616.11.58-.29.64-.085.073-.133.327-.072.4.447-.012.822-.025 1.257-.025.46 0 .568.013 1.016.025.084-.073.133-.327.072-.4-.374-.036-.689-.012-1.052-.761l-.786-1.536c-.048-.097-.012-.133.037-.181L78.4 3.676c.557-.568.847-.629 1.306-.665.085-.073.133-.327.073-.4-.302.013-.496.025-.883.025-.375 0-.568-.012-1.016-.024-.084.072-.133.326-.072.399.387.06.568.072.181.496l-1.003 1.1c-.06.06-.133.145-.218-.024l-.52-1.088m5.638-.859c-.52 0-1.318-.024-1.318-.024l-.037.024-.06.266c0 .048.012.06.06.06l.363.025c.435.036.46.133.35.64l-.652 3.265c-.085.424-.145.557-.593.58l-.387.025c-.036.012-.06.024-.072.06l-.048.266.012.025c.483-.012.822-.025 1.342-.025.387 0 .496.013.98.025l.011-.025.049-.253c.012-.049-.012-.061-.06-.073-.4-.036-.412-.17-.351-.46v-.024l3.095-2.999-.568 2.854c-.085.423-.17.58-.617.605l-.387.024c-.036.012-.06.024-.072.06l-.049.266.024.025c.484-.012.81-.025 1.33-.025.545 0 .907.013 1.391.025l.012-.025.049-.253c.012-.049-.013-.061-.06-.073l-.352-.024c-.423-.024-.459-.157-.362-.605l.653-3.253c.096-.507.145-.592.604-.628l.363-.024c.048 0 .085-.025.097-.073l.048-.254-.012-.024s-.846.024-1.39.024c-.34 0-.883-.024-.883-.024l-.024.024-.06.266c0 .048.011.06.047.06.412.037.375.242.327.533l-3.096 2.998.58-2.878c.098-.495.146-.592.618-.628l.362-.024c.049 0 .085-.025.097-.073l.048-.254-.024-.024s-.846.024-1.378.024M92.516.713c.037-.23-.096-.399-.386-.399-.218 0-.46.17-.496.375-.012.037-.012.06 0 .085 0 .036-.012.072-.012.109-.06.266-.363.508-.714.508-.362 0-.544-.254-.495-.52 0-.025.012-.06.036-.097.012-.036.024-.06.024-.097.036-.193-.073-.363-.339-.363-.278 0-.507.182-.544.4-.133.652.448 1.051 1.234 1.051.774 0 1.56-.387 1.693-1.052m-3.664 1.923c-.52 0-1.318-.024-1.318-.024l-.037.024-.06.266c0 .048.012.06.06.06l.363.025c.435.036.46.133.35.64l-.652 3.265c-.085.424-.145.557-.593.58l-.387.025c-.036.012-.06.024-.072.06l-.048.266.012.025c.483-.012.822-.025 1.342-.025.387 0 .496.013.98.025l.011-.025.049-.253c.012-.049-.012-.061-.06-.073-.4-.036-.412-.17-.351-.46v-.024l3.095-2.999-.568 2.854c-.085.423-.17.58-.617.605l-.387.024c-.036.012-.06.024-.072.06l-.049.266.024.025c.484-.012.81-.025 1.33-.025.545 0 .907.013 1.391.025l.012-.025.049-.253c.012-.049-.013-.061-.06-.073l-.352-.024c-.423-.024-.46-.157-.362-.605l.653-3.253c.096-.507.145-.592.604-.628l.363-.024c.048 0 .085-.025.097-.073l.048-.254-.012-.024s-.846.024-1.39.024c-.34 0-.883-.024-.883-.024l-.024.024-.06.266c0 .048.011.06.047.06.412.037.375.242.327.533L88.55 6.493l.58-2.878c.098-.495.146-.592.618-.628l.362-.024c.049 0 .085-.025.097-.073l.048-.254-.024-.024s-.846.024-1.378.024m11.513.447c.98 0 1.113.339 1.125 1.318l.314-.048c.049-.556.085-1.016.218-1.717H97.56a12.26 12.26 0 0 1-.496 1.717l.327.048c.399-.979.64-1.318 1.632-1.318h.206l-.762 3.821c-.097.472-.17.557-.593.569l-.508.024c-.048.012-.072.024-.084.073l-.049.278s.883-.025 1.451-.025c.593 0 1.548.025 1.548.025l.049-.278c.012-.037-.012-.061-.06-.073l-.472-.024c-.375-.012-.472-.085-.375-.569l.761-3.82h.23m2.072 2.26c-.242 1.234.314 2.6 2.02 2.6 1.8 0 2.865-1.499 3.107-2.708.254-1.258-.121-2.72-1.995-2.72-1.633 0-2.83 1.293-3.132 2.829m2.914-2.43c1.04 0 1.45.93 1.088 2.708-.314 1.596-1.112 1.922-1.68 1.922-1.258 0-1.415-1.547-1.222-2.479.206-1.051.798-2.152 1.814-2.152m2.345 4.353c-.073.375.18.702.713.702.58 0 .967-.303 1.366-.968.339-.58.653-1.814.81-2.636.194-.943.29-1.257.75-1.257h.544c.436 0 .448.169.363.58l-.64 3.24c-.073.351-.194.496-.63.545l-.241.024c-.06.012-.097.036-.11.097l-.048.23.025.024s.822-.025 1.257-.025c.472 0 1.294.025 1.294.025l.024-.025.049-.23c.012-.06-.037-.096-.085-.096l-.218-.024c-.387-.037-.483-.194-.41-.544l.676-3.374c.085-.46.133-.532.605-.568l.338-.024c.073 0 .11-.025.121-.085l.049-.242-.036-.024s-.823.024-1.343.024h-2.104c-.483 0-1.245-.024-1.245-.024l-.036.024-.037.193c-.024.11.024.121.218.134.677.048.677.217.423 1.487-.254 1.27-.484 1.935-.737 2.43-.242.436-.46.593-.653.593-.146 0-.182-.097-.17-.254.012-.218 0-.46-.326-.46-.29 0-.496.242-.556.508m10.338-.967c-.194.991-.798 1.173-1.403 1.173-.556 0-.738-.121-.653-.544l.363-1.814h.81c.858 0 1.016.544.883 1.185m-2.963.629c-.073.35-.193.507-.629.544l-.242.024c-.06.012-.096.036-.108.097l-.049.23.024.024s.762-.025 1.258-.025c.472 0 .738.025 1.221.025 1.342 0 2.213-.653 2.419-1.67.23-1.136-.702-1.45-1.863-1.45h-.689l.242-1.197c.073-.35.218-.484.629-.532l.23-.024a.127.127 0 0 0 .12-.11l.049-.217-.024-.024s-.823.012-1.294.012c-.435 0-1.258-.012-1.258-.012l-.024.024-.048.218c-.012.072.012.109.072.109l.23.024c.411.048.484.181.411.532l-.677 3.398"/></svg>