<?xml version="1.0" encoding="UTF-8"?>
<svg width="120px" height="13px" viewBox="0 0 120 13" version="1.1" xmlns="http://www.w3.org/2000/svg" xmlns:xlink="http://www.w3.org/1999/xlink">
    <title>jbo-tagline</title>
    <g id="Page-1" stroke="none" stroke-width="1" fill="none" fill-rule="evenodd">
        <path d="M2.13021614,4.4574448 C2.10754722,4.49183137 2.08078418,4.52137761 2.04992702,4.54588183 C2.01905977,4.57048688 2.00212867,4.54083981 1.99913371,4.4574448 C2.0018564,4.24387493 2.0127875,4.02867144 2.03190684,3.81182425 C2.05102618,3.59497706 2.06194719,3.47809296 2.06467997,3.46115178 C2.06467795,3.39338703 2.01224296,3.358466 1.90737097,3.35627776 C1.72793859,3.42787445 1.49361375,3.49447953 1.20439644,3.55619385 C0.915175596,3.61790817 0.546483044,3.67800905 0.0983174695,3.73644606 C0.0863003196,3.78121919 0.0841151082,3.84240914 0.0917628438,3.91997558 C0.0994065458,3.99752184 0.110333611,4.05871179 0.124535972,4.10349501 C0.469741083,4.12174712 0.70024226,4.18356228 0.81604011,4.28866823 C0.931835741,4.39381451 0.985364444,4.62922641 0.976626322,4.99491402 L0.976626322,7.55118779 C0.987549353,8.06708725 0.932928145,8.39207568 0.812762595,8.52617324 C0.692595029,8.6602708 0.441337974,8.73291622 0.0589906229,8.7441095 C0.0196628687,8.79160533 -7.10542736e-15,8.86373646 -7.10542736e-15,8.96041215 C-7.10542736e-15,9.05711809 0.0196638771,9.12918872 0.0589906229,9.1767148 C0.318986608,9.16965597 0.55604231,9.16390807 0.770158133,9.15866437 C0.984271839,9.15362235 1.22788217,9.15059713 1.50098922,9.15059713 C1.74432415,9.1508694 1.9557078,9.15362235 2.13514119,9.15866437 C2.31456852,9.16370639 2.53578411,9.16985765 2.79878796,9.1767148 C2.83811572,9.12921897 2.85777959,9.05708784 2.85777959,8.96041215 C2.85777657,8.86370621 2.83811572,8.79163558 2.79878796,8.7441095 C2.47351618,8.73291622 2.25885521,8.66031113 2.15480506,8.52617324 C2.05074887,8.39207568 2.00322884,8.06708725 2.01224397,7.55118779 L2.01224397,5.40130081 C2.01496666,5.26529737 2.03900701,5.15386874 2.08434485,5.0670149 C2.1296827,4.98019132 2.17993147,4.90807027 2.23510024,4.85071226 C2.48444324,4.60629531 2.73624675,4.4167557 2.99051077,4.2821136 C3.24476873,4.14747151 3.49984955,4.07919248 3.75575323,4.07727651 C3.88957146,4.0781034 4.01847675,4.11902443 4.14247111,4.20018078 C4.26645639,4.28125646 4.36914418,4.39763636 4.45053448,4.54920956 C4.51443704,4.68139115 4.5570411,4.83323662 4.57834867,5.00474596 C4.59964616,5.17626539 4.6094781,5.36088398 4.60784449,5.55860175 L4.60784449,7.55118779 C4.6166176,8.06708725 4.5663285,8.39207568 4.45709011,8.52617324 C4.34784265,8.6602708 4.12717362,8.73291622 3.79508199,8.7441095 C3.76230887,8.79160533 3.7459223,8.86373646 3.7459223,8.96041215 C3.74591928,9.05711809 3.76230887,9.12918872 3.79508199,9.1767148 C4.05889761,9.16965597 4.28502917,9.16390807 4.47347668,9.15866437 C4.66191511,9.15362235 4.88149204,9.15059713 5.13220849,9.15059713 C5.39001402,9.1508694 5.6183308,9.15362235 5.8171578,9.15866437 C6.01597271,9.16370639 6.2508431,9.16985765 6.52177099,9.1767148 C6.55453403,9.12921897 6.57093068,9.05708784 6.57093068,8.96041215 C6.57093068,8.86370621 6.55453403,8.79163558 6.52177099,8.7441095 C6.16399532,8.73291622 5.92584762,8.66031113 5.80732586,8.52617324 C5.68879201,8.39207568 5.63417081,8.06708725 5.64346224,7.55118779 L5.64346224,5.5979295 C5.6475967,5.2347024 5.62624878,4.90261481 5.57955968,4.60164656 C5.53285041,4.3006884 5.43617371,4.04724624 5.28952153,3.84132007 C5.17535709,3.69657376 5.02351061,3.58624429 4.83398008,3.51031147 C4.64444048,3.43437865 4.43360237,3.39616014 4.20146778,3.39560552 C3.88411398,3.38410971 3.55857194,3.44965597 3.22484065,3.59224429 C2.8911023,3.73481244 2.52623251,4.02320589 2.13023228,4.4574448 L2.13021614,4.4574448 Z M7.73437353,6.46313001 C7.7335559,7.16556404 7.96132612,7.80244172 8.4176874,8.37378323 C8.87404565,8.94511466 9.56390992,9.24771652 10.4872832,9.28158881 C11.457624,9.24115181 12.1649679,8.91562893 12.6093161,8.30495966 C13.0536531,7.6942904 13.2726845,7.04102615 13.2664092,6.34514675 C13.2786916,5.6257917 13.0738636,4.96378459 12.6519211,4.35912541 C12.2299666,3.75447632 11.5171612,3.43329966 10.5135017,3.39560552 C9.6234471,3.41940385 8.93904434,3.72252 8.46029146,4.30505479 C7.98153555,4.88758959 7.73956397,5.60694463 7.73437353,6.46313001 L7.73437353,6.46313001 Z M10.369302,3.82821082 C10.936266,3.83022762 11.3721426,4.07864794 11.6769327,4.57378436 C11.9817137,5.06893087 12.1357454,5.79921702 12.1390277,6.76464279 C12.118537,7.60853572 11.9595923,8.17223354 11.6621848,8.45571605 C11.3647681,8.73919857 11.0517898,8.87029109 10.7232467,8.84898351 C10.2710613,8.8344625 9.90821533,8.67703047 9.63470795,8.37657651 C9.36119451,8.07611247 9.16342632,7.71958117 9.04140037,7.30697252 C8.91937038,6.89436388 8.85948934,6.51258214 8.86175724,6.16162731 C8.85570682,5.56543873 8.96935898,5.03396951 9.20259374,4.56722974 C9.43582346,4.10050005 9.82472554,3.85415705 10.369302,3.82821082 L10.369302,3.82821082 Z M15.4458162,1.29815555 C15.4523709,1.47568506 15.5179171,1.63189692 15.642452,1.7668012 C15.7669868,1.90172565 15.9111866,1.97273746 16.0750522,1.97982654 C16.2640392,1.9707509 16.4235324,1.90056599 16.5535328,1.76893902 C16.6835292,1.6372818 16.7512597,1.49782961 16.7567242,1.35059255 C16.7525898,1.18454876 16.6919948,1.03161421 16.5748354,0.891768754 C16.4576709,0.751953546 16.3085552,0.677664427 16.1274882,0.668921565 C15.9614384,0.675980392 15.8084988,0.741022447 15.6686705,0.865550252 C15.5288391,0.990098224 15.4545541,1.13429999 15.4458162,1.29815555 Z M16.638742,7.55118779 L16.638742,4.93854424 C16.6409605,4.59141126 16.649663,4.26155225 16.6649605,3.94897727 C16.6802479,3.63641238 16.6889907,3.46943077 16.691179,3.44804252 C16.6906304,3.42131982 16.675337,3.39943745 16.6452966,3.38249627 C16.6152562,3.36555508 16.5737403,3.35678197 16.5207607,3.35627776 C16.339006,3.42787445 16.1060475,3.49447953 15.8218823,3.55619385 C15.5377151,3.61790817 15.1720265,3.67800905 14.7248165,3.73644606 C14.7127963,3.78121919 14.7106182,3.84240914 14.7182619,3.91997558 C14.7259257,3.99752184 14.7368367,4.05871179 14.751035,4.10349501 C15.0991078,4.12315889 15.3304286,4.18668834 15.4449974,4.29407327 C15.5595642,4.40143804 15.6122735,4.6350449 15.6031262,4.99491402 L15.6031262,7.55118779 C15.613775,8.07282507 15.5564271,8.3994572 15.4310683,8.53109425 C15.3057116,8.6627313 15.0484466,8.73373302 14.6592722,8.7441095 C14.6199445,8.79160533 14.6002806,8.86373646 14.6002806,8.96041215 C14.6002806,9.05711809 14.6199445,9.12918872 14.6592722,9.1767148 C14.9252761,9.16965597 15.1667011,9.16390807 15.3835483,9.15866437 C15.6003935,9.15362235 15.8483731,9.15059713 16.1274892,9.15059713 C16.3995002,9.1508694 16.6420183,9.15362235 16.8550426,9.15866437 C17.0680629,9.16370639 17.310581,9.16985765 17.582597,9.1767148 C17.6219247,9.12921897 17.6415886,9.05708784 17.6415886,8.96041215 C17.6415886,8.86370621 17.6219247,8.79163558 17.582597,8.7441095 C17.1934186,8.73906748 16.9361526,8.67009265 16.8107999,8.53600518 C16.6854422,8.40190762 16.6280902,8.07364188 16.638743,7.55118779 L16.638742,7.55118779 Z M22.8284444,3.35627776 C22.8114024,3.35728617 22.7943604,3.36676517 22.7773184,3.38380719 C22.7602763,3.40084922 22.7510999,3.41789125 22.7497889,3.43493327 C22.7424276,3.7249805 22.7211099,4.00681932 22.6858763,4.2804699 C22.6506426,4.55413057 22.606404,4.84907864 22.5531471,5.16533429 C22.6121388,5.19034271 22.6796494,5.20718305 22.755682,5.21595617 C22.8317157,5.2250318 22.9084028,5.22099819 22.9857474,5.20466204 C23.1201142,4.73464496 23.2807005,4.40965653 23.4675063,4.2296766 C23.6543091,4.04969666 23.8476676,3.96394199 24.0475826,3.9724025 L25.8566361,3.9724025 L22.6318016,8.73100025 C22.5810083,8.80663055 22.5482352,8.86182049 22.5334822,8.89650959 C22.5187293,8.93119869 22.5121747,8.96336677 22.5138184,8.99321553 C22.5140906,9.03990463 22.5397646,9.07761894 22.5908302,9.10627778 C22.6418958,9.13491645 22.7167314,9.14973999 22.8153231,9.15054671 L26.9053571,9.15054671 C26.9375756,8.94599197 26.9878344,8.69309435 27.0561115,8.39185383 C27.1243804,8.0906234 27.213961,7.74923833 27.3248471,7.36770869 C27.2810118,7.34270027 27.2244705,7.32132211 27.1552487,7.30367504 C27.0860116,7.28602797 27.0114533,7.27675066 26.9315746,7.27594393 L26.7611563,7.65611222 C26.6169525,8.00377965 26.4563662,8.26541006 26.2793984,8.44101352 C26.1024215,8.61662707 25.8304086,8.7045599 25.4633576,8.70483217 L23.7198493,8.70483217 L26.8660293,4.07732693 C26.97554,3.90856044 27.0514627,3.78074524 27.0937995,3.69389141 C27.1361223,3.60706783 27.1563408,3.55133334 27.1544248,3.52674845 C27.1536009,3.50002575 27.138855,3.47814338 27.1101861,3.4612022 C27.0815071,3.44426101 27.043813,3.4354879 26.9971198,3.43498369 C26.9561484,3.43901731 26.8512774,3.45414337 26.6825018,3.48086607 C26.5137182,3.50768962 26.3301917,3.52291652 26.1319213,3.52674845 L23.4707766,3.52674845 C23.2742487,3.52271484 23.1432671,3.49962239 23.0778318,3.45827782 C23.0123965,3.41693326 22.9292616,3.38295005 22.8284323,3.35634835 L22.8284444,3.35627776 Z M29.2279383,1.29815555 C29.2344929,1.47568506 29.3000392,1.63189692 29.424574,1.7668012 C29.5491089,1.90172565 29.6933086,1.97273746 29.8571743,1.97982654 C30.0461613,1.9707509 30.2056545,1.90056599 30.3356549,1.76893902 C30.4656513,1.6372818 30.5333817,1.49782961 30.5388463,1.35059255 C30.5347118,1.18454876 30.4741168,1.03161421 30.3569574,0.891768754 C30.239793,0.751953546 30.0906773,0.677664427 29.9096103,0.668921565 C29.7435604,0.675980392 29.5906208,0.741022447 29.4507925,0.865550252 C29.3109612,0.990098224 29.2366761,1.13429999 29.2279383,1.29815555 L29.2279383,1.29815555 Z M30.420864,7.55118779 L30.420864,4.93854424 C30.4230825,4.59141126 30.431785,4.26155225 30.4470825,3.94897727 C30.4623699,3.63641238 30.4711128,3.46943077 30.473301,3.44804252 C30.4727525,3.42131982 30.457459,3.39943745 30.4274186,3.38249627 C30.3973783,3.36555508 30.3558623,3.35678197 30.3028828,3.35627776 C30.121128,3.42787445 29.8881696,3.49447953 29.6040044,3.55619385 C29.3198372,3.61790817 28.9541485,3.67800905 28.5069385,3.73644606 C28.4949184,3.78121919 28.4927402,3.84240914 28.5003839,3.91997558 C28.5080478,3.99752184 28.5189587,4.05871179 28.533157,4.10349501 C28.8812298,4.12315889 29.1125506,4.18668834 29.2271195,4.29407327 C29.3416862,4.40143804 29.3943955,4.6350449 29.3852483,4.99491402 L29.3852483,7.55118779 C29.395897,8.07282507 29.3385491,8.3994572 29.2131914,8.53109425 C29.0878337,8.6627313 28.8305686,8.73373302 28.4413943,8.7441095 C28.4020665,8.79160533 28.3824027,8.86373646 28.3824027,8.96041215 C28.3824027,9.05711809 28.4020665,9.12918872 28.4413943,9.1767148 C28.7073981,9.16965597 28.9488232,9.16390807 29.1656703,9.15866437 C29.3825155,9.15362235 29.6304952,9.15059713 29.9096113,9.15059713 C30.1816222,9.1508694 30.4241403,9.15362235 30.6371647,9.15866437 C30.8501849,9.16370639 31.0927031,9.16985765 31.364719,9.1767148 C31.4040468,9.12921897 31.4237107,9.05708784 31.4237107,8.96041215 C31.4237107,8.86370621 31.4040468,8.79163558 31.364719,8.7441095 C30.9755406,8.73906748 30.7182746,8.67009265 30.5929219,8.53600518 C30.4675642,8.40190762 30.4102122,8.07364188 30.420865,7.55118779 L30.420864,7.55118779 Z M34.3644273,7.55118779 L34.3644273,4.03794875 L35.5835726,4.03794875 C35.6477474,4.03823111 35.7127481,4.02453698 35.7785697,3.99700755 C35.8443882,3.96937728 35.8798881,3.92631844 35.8850813,3.86755874 L35.8850813,3.60537371 C35.8828629,3.5529367 35.8479317,3.5267182 35.7802083,3.5267182 L34.3644273,3.5267182 L34.3644273,2.77950096 C34.3805416,1.79906004 34.4990664,1.15780589 34.7200118,0.855738481 C34.9409521,0.553701329 35.1676292,0.417143265 35.4000451,0.446084459 C35.5934005,0.443059247 35.7507095,0.488437425 35.8719721,0.5820879 C35.9932276,0.675768627 36.0980996,0.835812419 36.1865901,1.06220919 C36.2371111,1.18293531 36.3032019,1.28234377 36.3848655,1.36044466 C36.466516,1.43859597 36.5752159,1.47898254 36.7109531,1.48170524 C36.8308422,1.47565481 36.9482779,1.41888167 37.0632602,1.31128497 C37.1782324,1.20368827 37.2399547,1.08133861 37.2484264,0.944225928 C37.248148,0.831990568 37.2126482,0.718928317 37.1419147,0.60502909 C37.0711752,0.491160116 36.9668487,0.381365093 36.8289353,0.275664191 C36.6617894,0.160968325 36.4848175,0.0855901295 36.2980177,0.0495296041 C36.1112089,0.013529583 35.8949093,-0.00290740146 35.6491178,0.000420331589 C35.0706772,-0.00260488027 34.5463142,0.242396944 34.0760278,0.734528326 C33.6057385,1.22666979 33.3566657,1.9826299 33.3288106,3.00239857 L33.3288106,3.52675854 L32.6602468,3.52675854 C32.5444498,3.53079215 32.4647022,3.56175015 32.421006,3.6185233 C32.3773119,3.67529644 32.3565489,3.73214017 32.3587371,3.78894357 L32.3587371,3.95935375 C32.3581905,3.99132015 32.362569,4.01259748 32.3718463,4.02328656 C32.3811237,4.03397564 32.3986094,4.03881598 32.4242833,4.03800926 L33.3288106,4.03800926 L33.3288106,7.5512483 C33.3375837,8.07370238 33.2840173,8.40196812 33.1682243,8.53606568 C33.0524262,8.67016324 32.8219243,8.73953135 32.4767204,8.74417001 C32.4373926,8.79166583 32.4177287,8.86379697 32.4177287,8.96047265 C32.4177287,9.05717859 32.4373926,9.12924922 32.4767204,9.1767753 C32.7413588,9.16971647 32.9724064,9.16396857 33.1698629,9.15872487 C33.3673175,9.15368285 33.5950867,9.15065764 33.8531736,9.15065764 C34.1462138,9.15092991 34.4089413,9.15368285 34.6413573,9.15872487 C34.8737671,9.16376689 35.1266638,9.16991815 35.4000451,9.1767753 C35.4393729,9.12927948 35.4590367,9.05714834 35.4590367,8.96047265 C35.4590337,8.86376671 35.4393729,8.79169608 35.4000451,8.74417001 C34.9668963,8.73912799 34.6828662,8.67015316 34.5479548,8.53606568 C34.4130385,8.40196812 34.3518626,8.07370238 34.3644273,7.5512483 L34.3644273,7.55118779 Z M37.9155451,4.99491402 L37.9155451,7.55118779 C37.9259215,8.07364188 37.8658408,8.40190762 37.7352949,8.53600518 C37.6047489,8.67010274 37.3414748,8.73947084 36.9454726,8.7441095 C36.9061448,8.79160533 36.8864809,8.86373646 36.8864809,8.96041215 C36.8864809,9.05711809 36.9061448,9.12918872 36.9454726,9.1767148 C37.2158468,9.16965597 37.4681959,9.16390807 37.7025217,9.15866437 C37.9368456,9.15362235 38.182641,9.15059713 38.4399081,9.15059713 C38.7059109,9.1508694 38.9669998,9.15362235 39.2231757,9.15866437 C39.4793456,9.16370639 39.7469892,9.16985765 40.0261073,9.1767148 C40.065425,9.12921897 40.0850989,9.05708784 40.0850989,8.96041215 C40.0850949,8.86370621 40.0654351,8.79163558 40.0261073,8.7441095 C39.5798482,8.73372294 39.2859872,8.6627313 39.1445202,8.53109425 C39.0030492,8.3994572 38.9385971,8.07281499 38.9511618,7.55118779 L38.9511618,5.72902202 C38.9543887,5.55806729 38.9872122,5.39856804 39.0494812,5.25054442 C39.1117501,5.10252081 39.183846,4.96925014 39.2657808,4.85071226 C39.3441641,4.73219454 39.4430239,4.59891379 39.5623746,4.45089017 C39.6817182,4.30286656 39.7838594,4.2220329 39.8687993,4.20836902 C39.9154985,4.20736062 39.9630145,4.21240264 40.0113604,4.22470517 C40.0596932,4.23670517 40.103942,4.26181443 40.1440896,4.30003294 C40.2066308,4.37324307 40.2781811,4.45297757 40.3587505,4.53927678 C40.4393119,4.62559616 40.5469167,4.67255753 40.6815618,4.68020123 C40.8448748,4.6731424 40.9868904,4.60507514 41.1076074,4.47536414 C41.2283154,4.34564305 41.2916754,4.19544128 41.2977191,4.02473866 C41.299302,3.88898732 41.2370532,3.75281245 41.1108848,3.61623422 C40.9847052,3.47965599 40.7847921,3.40608284 40.5111436,3.39550468 C40.1997998,3.40891645 39.917954,3.52633501 39.6656079,3.74781077 C39.4132559,3.9693067 39.2100645,4.21456062 39.0560358,4.48356246 C39.0167081,4.55132721 38.9872122,4.57966336 38.9675484,4.56877259 C38.9478845,4.55788183 38.9380526,4.53378098 38.9380526,4.49667171 C38.9407752,4.26944805 38.9517063,4.04222439 38.9708257,3.81500072 C38.989945,3.58777706 39.000866,3.46542741 39.0035988,3.44794168 C39.0030502,3.42121898 38.9877568,3.39933661 38.9577164,3.38239543 C38.9276761,3.36545424 38.8861601,3.35668113 38.8331806,3.35617692 C38.6542937,3.42777361 38.4221541,3.49437869 38.1367596,3.55609301 C37.8513632,3.61780733 37.4848557,3.67790821 37.0372363,3.73634522 C37.0235825,3.78111835 37.018117,3.8423083 37.0208497,3.91987473 C37.0235724,3.997421 37.0377808,4.05861095 37.0634548,4.10339417 C37.4086607,4.12416729 37.6391617,4.19082279 37.7549598,4.30331025 C37.8707548,4.41583805 37.9242839,4.64633903 37.9155461,4.99481318 L37.9155451,4.99491402 Z M43.5581843,5.45373782 C43.709211,4.73902143 43.9479052,4.28730688 44.2742681,4.09858408 C44.600628,3.90987137 44.8557078,3.82848308 45.0395116,3.85442932 C45.3027817,3.84293351 45.5463919,3.93469827 45.7703423,4.12971351 C45.9942856,4.32471867 46.113359,4.69176763 46.1275653,5.23088055 C46.1283801,5.28997302 46.1136292,5.33498817 46.0833267,5.36590584 C46.053004,5.39686384 46.0022107,5.4129983 45.9309336,5.41441007 L43.5581843,5.45373782 Z M46.9927648,7.931346 C46.7603469,8.17878816 46.5238368,8.35903028 46.2832357,8.47210262 C46.0426245,8.58516487 45.7372928,8.64087919 45.3672378,8.63924557 C45.1266286,8.64126238 44.8802876,8.56795141 44.6282139,8.41802191 C44.3761341,8.26809241 44.1461796,8.02721496 43.9383486,7.69538956 C43.806163,7.47881464 43.7034752,7.22046155 43.6302842,6.92031011 C43.5570943,6.62016876 43.5199477,6.27988284 43.5188576,5.89944228 L47.0058731,5.92566079 C47.0850731,5.92538852 47.1462449,5.90629943 47.1894006,5.8682826 C47.2325502,5.83026577 47.2543922,5.77510608 47.2549468,5.70277326 C47.2765166,5.12597628 47.1350486,4.60817094 46.8305409,4.14934714 C46.5260231,3.69053342 45.9290136,3.44802236 45.0395126,3.42179377 C44.4313028,3.42582739 43.8517721,3.68998889 43.3009193,4.2148934 C42.7500645,4.73980799 42.455657,5.50232272 42.4176657,6.50242751 C42.4162838,6.8733084 42.4649393,7.22615903 42.563534,7.56098948 C42.6621257,7.89581993 42.8188871,8.18967892 43.0338224,8.44257655 C43.2533983,8.70693973 43.5254112,8.91232136 43.8498632,9.05870128 C44.1743101,9.2050812 44.5708599,9.27937032 45.0395126,9.28155856 C45.5354689,9.27651654 45.9658829,9.17176353 46.3307567,8.96693652 C46.6956215,8.76210951 47.0080543,8.48681523 47.2680561,8.14106377 C47.249209,8.07582003 47.2180695,8.02608555 47.1746577,7.99195108 C47.1312258,7.95786702 47.0705995,7.9375981 46.9927699,7.931346 L46.9927648,7.931346 Z M56.2602624,3.93308483 C56.6082223,3.95103442 56.8155098,4.02071513 56.8821249,4.1421673 C56.94873,4.26364973 56.9105518,4.48672885 56.7675844,4.8113845 L55.7096809,7.38076752 C55.6093346,7.63991726 55.5275157,7.76658288 55.4642132,7.76076439 C55.4009056,7.75471396 55.3210481,7.61518111 55.2246456,7.34143977 L54.2794797,4.8113845 C54.142843,4.50393222 54.0795374,4.2877405 54.089562,4.16281942 C54.0995452,4.03789833 54.2987866,3.96132014 54.6871724,3.93308483 C54.7265001,3.885589 54.746164,3.81346795 54.746164,3.71678218 C54.746162,3.62007624 54.7265001,3.54800561 54.6871724,3.50047953 C54.4506603,3.50753836 54.2256219,3.51328626 54.012055,3.51852996 C53.7984841,3.52357198 53.5603364,3.52659719 53.2976099,3.52659719 C53.0791241,3.52633501 52.890135,3.52357198 52.7306418,3.51852996 C52.5711476,3.51348794 52.375604,3.50733668 52.1440109,3.50047953 C52.1046831,3.54797536 52.0850193,3.62010649 52.0850193,3.71678218 C52.0850193,3.81348812 52.1046831,3.88556883 52.1440109,3.93308483 C52.5009869,3.97049661 52.7374415,4.05821767 52.8533757,4.19624801 C52.9693079,4.33427834 53.0841762,4.5655457 53.1979806,4.89004001 L54.8706999,9.03251303 C54.9081117,9.13002569 54.9512613,9.20047279 55.0001517,9.24389467 C55.0490392,9.28735688 55.1151269,9.3086342 55.1984271,9.30785925 C55.2630658,9.30883588 55.3202565,9.28584427 55.369992,9.23865097 C55.4197164,9.1915585 55.4674038,9.11406266 55.5130451,9.00629453 L57.2617961,4.90314926 C57.3699141,4.61505834 57.4958154,4.38963972 57.6395019,4.22688332 C57.7831772,4.06414709 58.0313212,3.9662109 58.3839339,3.93308483 C58.4232516,3.885589 58.4429255,3.81346795 58.4429255,3.71678218 C58.4429255,3.62007624 58.4232516,3.54800561 58.3839339,3.50047953 C58.2430054,3.50753836 58.1053593,3.51328626 57.9709975,3.51852996 C57.8366237,3.52357198 57.6858693,3.52659719 57.5187344,3.52659719 C57.2844045,3.52633501 57.0746595,3.52357198 56.8894984,3.51852996 C56.7043282,3.51348794 56.4945832,3.50733668 56.2602624,3.50047953 C56.2209346,3.54797536 56.2012708,3.62010649 56.2012708,3.71678218 C56.2012667,3.81348812 56.2209346,3.88556883 56.2602624,3.93308483 L56.2602624,3.93308483 Z M60.2773938,4.99491402 L60.2773938,7.55118779 C60.2877703,8.07364188 60.2276896,8.40190762 60.0971436,8.53600518 C59.9665987,8.67010274 59.7033246,8.73947084 59.3073213,8.7441095 C59.2679936,8.79160533 59.2483297,8.86373646 59.2483297,8.96041215 C59.2483297,9.05711809 59.2679936,9.12918872 59.3073213,9.1767148 C59.5776956,9.16965597 59.8300457,9.16390807 60.0643715,9.15866437 C60.2986943,9.15362235 60.5444898,9.15059713 60.8017568,9.15059713 C61.0677607,9.1508694 61.3288496,9.15362235 61.5850245,9.15866437 C61.8411954,9.16370639 62.1088389,9.16985765 62.3879561,9.1767148 C62.4272838,9.12921897 62.4469477,9.05708784 62.4469477,8.96041215 C62.4469447,8.86370621 62.4272838,8.79163558 62.3879561,8.7441095 C61.941698,8.73372294 61.647836,8.6627313 61.50637,8.53109425 C61.364899,8.3994572 61.3004459,8.07281499 61.3130116,7.55118779 L61.3130116,5.72902202 C61.3162385,5.55806729 61.349062,5.39856804 61.411331,5.25054442 C61.4735999,5.10252081 61.5456968,4.96925014 61.6276316,4.85071226 C61.7060148,4.73219454 61.8048747,4.59891379 61.9242244,4.45089017 C62.043569,4.30286656 62.1457102,4.2220329 62.2306491,4.20836902 C62.2773483,4.20736062 62.3248643,4.21240264 62.3732102,4.22470517 C62.421543,4.23670517 62.4657918,4.26181443 62.5059403,4.30003294 C62.5684816,4.37324307 62.6400308,4.45297757 62.7206013,4.53927678 C62.8011627,4.62559616 62.9087675,4.67255753 63.0434126,4.68020123 C63.2067256,4.6731424 63.3487402,4.60507514 63.4694572,4.47536414 C63.5901652,4.34564305 63.6535262,4.19544128 63.6595699,4.02473866 C63.6611528,3.88898732 63.598904,3.75281245 63.4727345,3.61623422 C63.346555,3.47965599 63.1466419,3.40608284 62.8729943,3.39550468 C62.5616496,3.40891645 62.2798048,3.52633501 62.0274587,3.74781077 C61.7751056,3.9693067 61.5719153,4.21456062 61.4178866,4.48356246 C61.3785588,4.55132721 61.349063,4.57966336 61.3293992,4.56877259 C61.3097353,4.55788183 61.2999033,4.53378098 61.2999033,4.49667171 C61.302626,4.26944805 61.3135571,4.04222439 61.3326765,3.81500072 C61.3517958,3.58777706 61.3627168,3.46542741 61.3654496,3.44794168 C61.364901,3.42121898 61.3496076,3.39933661 61.3195672,3.38239543 C61.2895269,3.36545424 61.2480109,3.35668113 61.1950303,3.35617692 C61.0161445,3.42777361 60.7840039,3.49437869 60.4986104,3.55609301 C60.2132129,3.61780733 59.8467055,3.67790821 59.3990861,3.73634522 C59.3854323,3.78111835 59.3799667,3.8423083 59.3826995,3.91987473 C59.3854222,3.997421 59.3996306,4.05861095 59.4253046,4.10339417 C59.7705095,4.12416729 60.0010105,4.19082279 60.1168085,4.30331025 C60.2326046,4.41583805 60.2861327,4.64633903 60.2773948,4.99481318 L60.2773938,4.99491402 Z M65.4743286,1.29815555 C65.4808833,1.47568506 65.5464295,1.63189692 65.6709654,1.7668012 C65.7955003,1.90172565 65.9397,1.97273746 66.1035646,1.97982654 C66.2925527,1.9707509 66.4520459,1.90056599 66.5820463,1.76893902 C66.7120426,1.6372818 66.7797731,1.49782961 66.7852376,1.35059255 C66.7811032,1.18454876 66.7205082,1.03161421 66.6033488,0.891768754 C66.4861844,0.751953546 66.3370686,0.677664427 66.1560016,0.668921565 C65.9899518,0.675980392 65.8370122,0.741022447 65.6971839,0.865550252 C65.5573526,0.990098224 65.4830675,1.13429999 65.4743286,1.29815555 L65.4743286,1.29815555 Z M66.6672554,7.55118779 L66.6672554,4.93854424 C66.6694739,4.59141126 66.6781764,4.26155225 66.6934739,3.94897727 C66.7087613,3.63641238 66.7175042,3.46943077 66.7196924,3.44804252 C66.7191438,3.42131982 66.7038504,3.39943745 66.67381,3.38249627 C66.6437697,3.36555508 66.6022537,3.35678197 66.5492741,3.35627776 C66.3675194,3.42787445 66.134561,3.49447953 65.8503958,3.55619385 C65.5662275,3.61790817 65.2005399,3.67800905 64.7533299,3.73644606 C64.7413097,3.78121919 64.7391316,3.84240914 64.7467753,3.91997558 C64.7544391,3.99752184 64.7653501,4.05871179 64.7795484,4.10349501 C65.1276212,4.12315889 65.358942,4.18668834 65.4735108,4.29407327 C65.5880776,4.40143804 65.6407869,4.6350449 65.6316387,4.99491402 L65.6316387,7.55118779 C65.6422874,8.07282507 65.5849395,8.3994572 65.4595817,8.53109425 C65.334225,8.6627313 65.07696,8.73373302 64.6877857,8.7441095 C64.6484579,8.79160533 64.628794,8.86373646 64.628794,8.96041215 C64.628794,9.05711809 64.6484579,9.12918872 64.6877857,9.1767148 C64.9537895,9.16965597 65.1952145,9.16390807 65.4120617,9.15866437 C65.6289069,9.15362235 65.8768865,9.15059713 66.1560027,9.15059713 C66.4280136,9.1508694 66.6705317,9.15362235 66.883556,9.15866437 C67.0965763,9.16370639 67.3390934,9.16985765 67.6111104,9.1767148 C67.6504382,9.12921897 67.670102,9.05708784 67.670102,8.96041215 C67.670102,8.86370621 67.6504382,8.79163558 67.6111104,8.7441095 C67.221932,8.73906748 66.964666,8.67009265 66.8393133,8.53600518 C66.7139556,8.40190762 66.6566036,8.07364188 66.6672564,7.55118779 L66.6672554,7.55118779 Z M73.5341404,7.9575645 C73.507095,7.89907707 73.469411,7.85542326 73.4210752,7.82648207 C73.3727323,7.79754088 73.3186546,7.78009549 73.2588502,7.77404507 C73.0335324,8.06243851 72.7860993,8.27874116 72.5165479,8.42294293 C72.2469884,8.56714469 71.9700595,8.63924557 71.6857602,8.63924557 C71.193893,8.63117834 70.7815032,8.40518493 70.4485897,7.96248551 C70.1156722,7.51977601 69.9425232,6.91075044 69.9291427,6.13540881 C69.9373108,5.40839998 70.0782574,4.84362318 70.351911,4.44105823 C70.6255606,4.03850338 70.9827826,3.8342209 71.4235782,3.82821082 C71.7974571,3.83728645 72.0427059,3.9333571 72.1593258,4.11497065 C72.2759377,4.2965842 72.3409364,4.50687676 72.3543229,4.74583825 C72.3756507,4.92036272 72.4293381,5.04325691 72.5154014,5.11454098 C72.6014485,5.18583514 72.7138079,5.2202318 72.8524684,5.2177713 C72.9996672,5.2187797 73.1411362,5.17380488 73.2768744,5.08176785 C73.4126036,4.98970057 73.485249,4.84279629 73.4948137,4.64097432 C73.4898725,4.27364301 73.3129198,3.97596216 72.9638951,3.74791161 C72.6148612,3.51988122 72.1232714,3.4024425 71.4891234,3.39560552 C70.8093603,3.40568956 70.1992427,3.67745442 69.6587674,4.21164633 C69.1182901,4.74584833 68.8326224,5.48323364 68.8017622,6.42380226 C68.8067034,7.28272041 69.0328087,7.97040148 69.4801569,8.48684548 C69.927503,9.00328949 70.56657,9.26820729 71.3973597,9.28158881 C71.7895371,9.29358882 72.1620526,9.20726944 72.5149093,9.02268109 C72.8677579,8.8380625 73.2075013,8.48302363 73.5341404,7.9575645 L73.5341404,7.9575645 Z M77.0627496,11.2479463 C77.2635339,10.8839528 77.442691,10.508161 77.6002218,10.1205708 C78.1145855,8.88314824 78.5462015,7.85917453 78.895071,7.04861943 C79.2439314,6.23806433 79.5857511,5.47922019 79.9205291,4.77205675 C80.0147442,4.57323982 80.154029,4.39080947 80.3383814,4.22475559 C80.5227217,4.05871179 80.7373827,3.96149157 80.9823653,3.93308483 C81.021683,3.885589 81.0413569,3.81346795 81.0413569,3.71678218 C81.0413569,3.62007624 81.021683,3.54800561 80.9823653,3.50047953 C80.8231373,3.50753836 80.6729295,3.51328626 80.5317398,3.51852996 C80.3905381,3.52357198 80.2304983,3.52659719 80.0516196,3.52659719 C79.831491,3.52633501 79.6359474,3.52357198 79.4649886,3.51852996 C79.2940188,3.51348794 79.0919215,3.50733668 78.8586938,3.50047953 C78.819356,3.54797536 78.7997022,3.62010649 78.7997022,3.71678218 C78.7996982,3.81348812 78.8193661,3.88556883 78.8586938,3.93308483 C79.0790039,3.94518567 79.2613838,3.98915209 79.4058336,4.06482272 C79.5502744,4.14055386 79.5776394,4.29325647 79.4879278,4.52299106 L78.1875062,7.52496929 C78.1412608,7.63297944 78.0915061,7.68962149 78.0382261,7.69489544 C77.984942,7.69993746 77.9302644,7.6391307 77.8741991,7.51186004 L76.7114236,4.785166 C76.575879,4.51157592 76.5175983,4.30828169 76.5365805,4.1752732 C76.5555587,4.04227481 76.7571659,3.96154199 77.141401,3.93308483 C77.1807288,3.885589 77.2003927,3.81346795 77.2003927,3.71678218 C77.2003907,3.62007624 77.1807288,3.54800561 77.141401,3.50047953 C76.896969,3.50753836 76.6484428,3.51328626 76.3958214,3.51852996 C76.1431971,3.52357198 75.8979482,3.52659719 75.6600748,3.52659719 C75.2143653,3.52458038 74.8604205,3.51570643 74.5982395,3.50037869 C74.5589118,3.54787452 74.5392479,3.62000565 74.5392479,3.71668134 C74.5392479,3.81338728 74.5589118,3.88546799 74.5982395,3.93298399 C74.8689416,3.94468147 75.0678714,4.01073193 75.1950302,4.13109503 C75.3221869,4.25144804 75.4680253,4.51313895 75.6325464,4.91615767 L77.1151835,8.36385045 C77.1809113,8.50752785 77.2421466,8.69996158 77.2988744,8.94114155 C77.3555971,9.18232152 77.3555366,9.40064098 77.29871,9.59609992 C77.2214461,9.81251349 77.1413163,10.0174514 77.0583227,10.2109137 C76.9753209,10.4043861 76.8850345,10.6014585 76.7874563,10.802141 C76.7175336,10.9326789 76.6312364,11.02881 76.5285506,11.0905344 C76.4258608,11.1522487 76.2936782,11.1828034 76.1320018,11.1822992 C76.0448757,11.1802824 75.9766027,11.1742319 75.9271728,11.1626353 C75.8777408,11.1511395 75.8192937,11.1445849 75.7518385,11.1429714 C75.5614821,11.1557781 75.4178289,11.2284841 75.3208769,11.3609178 C75.2239189,11.4933716 75.1753108,11.6086221 75.1750385,11.7066692 C75.178568,11.8473113 75.2370352,11.9625618 75.3503728,12.0524207 C75.4637103,12.1422695 75.6106418,12.1886964 75.7911653,12.1917014 C75.9350908,12.2048107 76.1224411,12.1523737 76.3532174,12.0343904 C76.5839896,11.9164072 76.8204987,11.6542221 77.0627465,11.2478454 L77.0627496,11.2479463 Z M82.9077816,1.29815555 C82.9143362,1.47568506 82.9798825,1.63189692 83.1044183,1.7668012 C83.2289532,1.90172565 83.3731529,1.97273746 83.5370176,1.97982654 C83.7260056,1.9707509 83.8854988,1.90056599 84.0154992,1.76893902 C84.1454956,1.6372818 84.213225,1.49782961 84.2186906,1.35059255 C84.2145561,1.18454876 84.1539611,1.03161421 84.0368017,0.891768754 C83.9196373,0.751953546 83.7705216,0.677664427 83.5894546,0.668921565 C83.4234037,0.675980392 83.2704651,0.741022447 83.1306368,0.865550252 C82.9908045,0.990098224 82.9165204,1.13429999 82.9077816,1.29815555 L82.9077816,1.29815555 Z M83.0913091,4.99491402 L83.0913091,8.15420327 C83.1027746,9.05053321 83.0667242,9.82396896 82.9831588,10.4745105 C82.8995822,11.1250521 82.6996742,11.4658825 82.3834186,11.497022 C82.3091295,11.4967498 82.2348484,11.4842153 82.1605643,11.4593077 C82.0862752,11.434501 82.0251034,11.3989043 81.9770368,11.3528001 C81.9136788,11.2812034 81.8372065,11.2080538 81.747628,11.1332201 C81.6580514,11.0583966 81.5422524,11.0179697 81.4002378,11.0119596 C81.3196764,11.01801 81.2317315,11.0714554 81.1364172,11.1725479 C81.0411028,11.2736001 80.9892134,11.3861178 80.9807468,11.5101111 C80.9952174,11.6999129 81.0842545,11.8413819 81.2478448,11.9345181 C81.4114351,12.0276946 81.5627351,12.0740711 81.7017466,12.0737989 C81.8519544,12.0808577 82.0660688,12.0571602 82.3440918,12.0033114 C82.6221128,11.9494626 82.8886632,11.8244206 83.1437451,11.6280641 C83.4542649,11.4016573 83.6951444,10.995815 83.8663835,10.4105575 C84.0376185,9.82528997 84.1244663,8.92458356 84.1269268,7.70844839 L84.1269268,4.9424266 C84.1291453,4.5934079 84.1378478,4.26239931 84.1531453,3.94941089 C84.1684327,3.63644264 84.1771756,3.46929968 84.1793638,3.4479921 C84.1788153,3.4212694 84.1635218,3.39938703 84.1334815,3.38244585 C84.1034411,3.36550466 84.0619251,3.35673155 84.0089446,3.35622734 C83.8300577,3.42782403 83.5979181,3.49442911 83.3125247,3.55614343 C83.0271272,3.61785775 82.6606197,3.67795863 82.2130003,3.73639564 C82.2009801,3.78116877 82.198802,3.84235872 82.2064457,3.91992515 C82.2141096,3.99747142 82.2250205,4.05866137 82.2392188,4.10344459 C82.5844237,4.12260427 82.8149247,4.18593203 82.9307228,4.29352874 C83.0465188,4.40113552 83.1000469,4.63491381 83.0913091,4.9948636 L83.0913091,4.99491402 Z M88.4768759,9.28158881 C88.7308606,9.28166948 88.9963199,9.21594171 89.2732529,9.08445592 C89.5501777,8.95296004 89.8484092,8.75517169 90.1679472,8.49111103 C90.2020212,8.46368245 90.2361052,8.44865723 90.2701973,8.44603538 C90.3042713,8.44301016 90.3226242,8.46408581 90.3252562,8.50815306 C90.3313066,8.67400526 90.3552965,8.84109779 90.3973571,9.0094105 C90.4394075,9.1777232 90.4634479,9.2684493 90.4694579,9.28158881 C90.517105,9.30014344 90.5584597,9.30891656 90.5935027,9.30760563 C90.6285347,9.30659723 90.670212,9.29752159 90.7185307,9.28158881 C90.8608135,9.16223412 91.0612731,9.05681557 91.3199095,8.96533316 C91.5785349,8.87387092 91.9068037,8.80447256 92.30473,8.75721875 C92.3440577,8.71294982 92.3637216,8.65398844 92.3637216,8.58025394 C92.3637216,8.50653961 92.3440577,8.44751773 92.30473,8.40327905 C91.8977986,8.37484206 91.6334294,8.28748402 91.5116303,8.14109402 C91.3898192,7.9947141 91.335198,7.76311397 91.3477667,7.44631378 L91.3477667,4.92936776 C91.3499852,4.70111553 91.3586877,4.42713218 91.3739852,4.10742779 C91.3892726,3.78773348 91.3980155,3.6120796 91.4002037,3.58044596 C91.3999254,3.55937032 91.3906239,3.54091653 91.3723415,3.52518543 C91.354039,3.50945433 91.328365,3.50128625 91.2953297,3.50047953 C91.2598238,3.50753836 91.199733,3.51328626 91.1150795,3.51852996 C91.0304139,3.52357198 90.937555,3.52659719 90.8365109,3.52659719 C90.6275797,3.52633501 90.4129188,3.52357198 90.192527,3.51852996 C89.9721262,3.51348794 89.7410797,3.50733668 89.4993854,3.50047953 C89.4600577,3.54797536 89.4403938,3.62010649 89.4403938,3.71678218 C89.4403898,3.81348812 89.4600577,3.88556883 89.4993854,3.93308483 C89.8142717,3.94014365 90.0300247,4.0141605 90.1466457,4.1542984 C90.2632575,4.29440605 90.3184242,4.57461125 90.3121479,4.99491402 L90.3121479,7.52496929 C90.3149715,7.64524163 90.3030723,7.74159463 90.2765916,7.81402828 C90.2500706,7.88643169 90.1920067,7.96051912 90.102405,8.03622001 C89.8593362,8.24596803 89.6342968,8.40327905 89.4272866,8.50815306 C89.2202693,8.61302707 89.0345576,8.66546408 88.8701515,8.66545399 C88.6543944,8.68209266 88.430447,8.60293295 88.1983104,8.42785385 C87.9661677,8.25279493 87.8405388,7.88191404 87.8214245,7.31522127 L87.8214245,4.92936776 C87.8236429,4.70111553 87.8323455,4.42713218 87.847643,4.10742779 C87.8629304,3.78773348 87.8716732,3.6120796 87.8738615,3.58044596 C87.8735862,3.55937032 87.8642816,3.54091653 87.8460093,3.52518543 C87.8277068,3.50945433 87.8020329,3.50128625 87.7689975,3.50047953 C87.7334916,3.50753836 87.6734109,3.51328626 87.5887473,3.51852996 C87.5040818,3.52357198 87.4112269,3.52659719 87.3101788,3.52659719 C87.1012516,3.52633501 86.8865906,3.52357198 86.6661949,3.51852996 C86.4457981,3.51348794 86.2147506,3.50733668 85.9730533,3.50047953 C85.9337255,3.54797536 85.9140617,3.62010649 85.9140617,3.71678218 C85.9140617,3.81348812 85.9337255,3.88556883 85.9730533,3.93308483 C86.2822078,3.9464966 86.4963232,4.02132017 86.6153975,4.15757571 C86.7344709,4.29386151 86.7912773,4.56860117 86.7858158,4.98180477 L86.7858158,7.49875079 C86.775167,7.96876787 86.8947839,8.37896643 87.1446765,8.72936664 C87.3945671,9.07975676 87.8386369,9.26383081 88.476888,9.28158881 L88.4768759,9.28158881 Z M95.3950141,4.4574448 C95.372325,4.49183137 95.3456023,4.52137761 95.3147452,4.54588183 C95.283888,4.57048688 95.2669468,4.54083981 95.2639216,4.4574448 C95.2669468,4.24387493 95.2775351,4.02867144 95.2966947,3.81182425 C95.3158544,3.59497706 95.3267452,3.47809296 95.3294679,3.46115178 C95.3294679,3.39338703 95.2770309,3.358466 95.1721568,3.35627776 C94.9927214,3.42787445 94.7583986,3.49447953 94.4691783,3.55619385 C94.1799579,3.61790817 93.8112653,3.67800905 93.3631003,3.73644606 C93.3511003,3.78121919 93.3488818,3.84240914 93.3560415,3.91997558 C93.3641087,3.99752184 93.3745961,4.05871179 93.3888146,4.10349501 C93.7340215,4.12174712 93.9645225,4.18356228 94.0803175,4.28866823 C94.1961126,4.39381451 94.2496487,4.62922641 94.2409059,4.99491402 L94.2409059,7.55118779 C94.2517966,8.06708725 94.197242,8.39207568 94.0770402,8.52617324 C93.9568788,8.6602708 93.7056148,8.73291622 93.3232684,8.7441095 C93.2839406,8.79160533 93.2642767,8.86373646 93.2642767,8.96041215 C93.2642767,9.05711809 93.2839406,9.12918872 93.3232684,9.1767148 C93.5832652,9.16965597 93.8203208,9.16390807 94.0344352,9.15866437 C94.2485496,9.15362235 94.4921598,9.15059713 94.7652658,9.15059713 C95.0086038,9.1508694 95.2199854,9.15362235 95.3994208,9.15866437 C95.5788462,9.16370639 95.8000698,9.16985765 96.0630717,9.1767148 C96.1023994,9.12921897 96.1220633,9.05708784 96.1220633,8.96041215 C96.1220532,8.86370621 96.1023994,8.79163558 96.0630717,8.7441095 C95.7378009,8.73291622 95.5231318,8.66031113 95.4190847,8.52617324 C95.3150275,8.39207568 95.2675115,8.06708725 95.2765267,7.55118779 L95.2765267,5.40130081 C95.2795519,5.26529737 95.3032494,5.15386874 95.3486275,5.0670149 C95.3940057,4.98019132 95.4442242,4.90807027 95.4993839,4.85071226 C95.7487219,4.60629531 96.0005304,4.4167557 96.2547894,4.2821136 C96.5090484,4.14747151 96.7641242,4.07919248 97.0200369,4.07727651 C97.1538521,4.0781034 97.2827564,4.11902443 97.4067498,4.20018078 C97.530733,4.28125646 97.6334188,4.39763636 97.7148172,4.54920956 C97.77875,4.68139115 97.8213248,4.83323662 97.8426324,5.00474596 C97.8639097,5.17626539 97.873792,5.36088398 97.8720778,5.55860175 L97.8720778,7.55118779 C97.8811534,8.06708725 97.8305315,8.39207568 97.7213315,8.52617324 C97.612081,8.6602708 97.3914119,8.73291622 97.0593243,8.7441095 C97.0265512,8.79160533 97.0101142,8.86373646 97.0102151,8.96041215 C97.010205,9.05711809 97.0265512,9.12918872 97.0593243,9.1767148 C97.3231329,9.16965597 97.5492675,9.16390807 97.737718,9.15866437 C97.9261484,9.15362235 98.1457283,9.15059713 98.3964478,9.15059713 C98.6542564,9.1508694 98.8825691,9.15362235 99.0813961,9.15866437 C99.280213,9.16370639 99.5150804,9.16985765 99.7860083,9.1767148 C99.8187814,9.12921897 99.8351176,9.05708784 99.8351176,8.96041215 C99.8351176,8.86370621 99.8186806,8.79163558 99.7860083,8.7441095 C99.4282367,8.73291622 99.1900819,8.66031113 99.0715642,8.52617324 C98.9530263,8.39207568 98.8984111,8.06708725 98.9076985,7.55118779 L98.9076985,5.5979295 C98.9117322,5.2347024 98.8904548,4.90261481 98.8437657,4.60164656 C98.7970766,4.3006884 98.7003808,4.04724624 98.5537286,3.84132007 C98.4395571,3.69657376 98.2877116,3.58624429 98.0981821,3.51031147 C97.9086425,3.43437865 97.6978054,3.39616014 97.4656708,3.39560552 C97.148316,3.38410971 96.8227729,3.44965597 96.4890417,3.59224429 C96.1553104,3.73481244 95.7904396,4.02320589 95.3944393,4.4574448 L95.3950141,4.4574448 Z M105.679121,7.9575645 C105.652096,7.89907707 105.614381,7.85542326 105.566049,7.82648207 C105.517746,7.79754088 105.463635,7.78009549 105.403827,7.77404507 C105.178509,8.06243851 104.931077,8.27874116 104.66152,8.42294293 C104.391964,8.56714469 104.115036,8.63924557 103.830737,8.63924557 C103.338868,8.63117834 102.926481,8.40518493 102.593566,7.96248551 C102.260652,7.51977601 102.087499,6.91075044 102.074117,6.13540881 C102.082184,5.40839998 102.22323,4.84362318 102.496891,4.44105823 C102.770541,4.03850338 103.127758,3.8342209 103.568552,3.82821082 C103.942438,3.83728645 104.187681,3.9333571 104.304303,4.11497065 C104.420915,4.2965842 104.485917,4.50687676 104.499298,4.74583825 C104.520576,4.92036272 104.574324,5.04325691 104.660381,5.11454098 C104.746398,5.18583514 104.858784,5.2202318 104.99744,5.2177713 C105.144647,5.2187797 105.286116,5.17380488 105.421847,5.08176785 C105.557578,4.98970057 105.630223,4.84279629 105.639793,4.64097432 C105.634751,4.27364301 105.457897,3.97596216 105.108869,3.74791161 C104.75984,3.51988122 104.268243,3.4024425 103.634098,3.39560552 C102.954333,3.40568956 102.344218,3.67745442 101.803744,4.21164633 C101.26327,4.74584833 100.977599,5.48323364 100.946742,6.42380226 C100.951784,7.28272041 101.177787,7.97040148 101.625135,8.48684548 C102.072484,9.00328949 102.71155,9.26820729 103.542333,9.28158881 C103.934512,9.29358882 104.307026,9.20726944 104.659887,9.02268109 C105.012737,8.8380625 105.352479,8.48302363 105.679121,7.9575645 L105.679121,7.9575645 Z M107.60841,7.55118779 C107.617485,8.07364188 107.563031,8.40190762 107.444544,8.53600518 C107.326016,8.67010274 107.087871,8.73947084 106.7301,8.7441095 C106.690772,8.79160533 106.671108,8.86373646 106.671108,8.96041215 C106.671108,9.05711809 106.690772,9.12918872 106.7301,9.17673497 C106.995018,9.16965597 107.228796,9.16390807 107.431435,9.15866437 C107.634083,9.15362235 107.867862,9.15059713 108.132769,9.15059713 C108.347983,9.1508694 108.533691,9.15362235 108.689913,9.15866437 C108.846125,9.16370639 109.058051,9.16985765 109.325701,9.17673497 C109.365029,9.12921897 109.384693,9.05708784 109.384693,8.96041215 C109.384683,8.86370621 109.365029,8.79163558 109.325701,8.7441095 C109.062145,8.73906748 108.881358,8.67009265 108.783311,8.53600518 C108.685294,8.40190762 108.638837,8.07364188 108.64403,7.55118779 L108.64403,6.37136525 C108.795684,6.37035685 108.927261,6.40333166 109.03877,6.47069304 C109.150279,6.53805442 109.267768,6.66224945 109.391248,6.84331847 L110.348213,8.19355119 C110.475473,8.37871433 110.558495,8.52291609 110.597279,8.62615649 C110.636102,8.7293868 110.653547,8.82115156 110.649716,8.90144069 L110.649716,9.11118871 C110.647699,9.15273495 110.665043,9.17451648 110.702153,9.17673497 C110.829958,9.16967614 110.964327,9.16392824 111.105262,9.15868453 C111.246176,9.15364251 111.413319,9.1506173 111.606681,9.1506173 C111.804681,9.15088957 111.985468,9.15364251 112.149071,9.15868453 C112.312654,9.16372655 112.490174,9.16987782 112.681629,9.17673497 C112.720957,9.12923914 112.740621,9.057108 112.740621,8.96043232 C112.740621,8.86372638 112.720957,8.79165575 112.681629,8.74412967 C112.458328,8.7259784 112.252079,8.68302039 112.062873,8.61533632 C111.873666,8.54767241 111.704123,8.40707065 111.554244,8.19355119 L110.020482,5.92568095 C109.978935,5.87102546 109.957154,5.80988593 109.954935,5.74215144 C109.952918,5.69193292 109.970263,5.64816819 110.007372,5.61105892 L111.003665,4.50990197 C111.193114,4.31143799 111.40018,4.16827488 111.624872,4.08041264 C111.849545,3.99258066 112.123145,3.94345122 112.445663,3.93310499 C112.484991,3.88560917 112.504654,3.81348812 112.504654,3.71680235 C112.504644,3.62009641 112.484991,3.54802578 112.445663,3.5004997 C112.215424,3.50755853 112.023706,3.51330643 111.870499,3.51855013 C111.717283,3.52359215 111.528842,3.52661736 111.305168,3.52661736 C111.067296,3.52635518 110.864647,3.52359215 110.697242,3.51855013 C110.529816,3.51350811 110.330455,3.50735685 110.099137,3.5004997 C110.059809,3.54799552 110.040145,3.62012666 110.040145,3.71680235 C110.040145,3.81350829 110.059809,3.885589 110.099137,3.93310499 C110.464542,3.96960922 110.62022,4.06870507 110.566149,4.23051357 C110.512099,4.39233216 110.435046,4.51605324 110.335104,4.60166673 C109.984754,4.98494091 109.66031,5.30578479 109.361752,5.56419839 C109.063183,5.82261199 108.82395,5.98024569 108.64403,6.03710959 L108.64403,1.50792374 C108.646047,1.07778903 108.654921,0.741869507 108.670249,0.500155079 C108.685577,0.258470903 108.694249,0.135566629 108.696467,0.131462425 C108.698484,0.0419161543 108.641812,-0.00179815711 108.526047,0.000302459858 C108.338968,0.0700607086 108.057664,0.140487641 107.682144,0.211761632 C107.306624,0.283055792 106.976171,0.330571786 106.690772,0.354319699 C106.677663,0.411697884 106.677663,0.480501286 106.690772,0.560790409 C106.703881,0.641059363 106.7301,0.70335856 106.769428,0.747597241 C107.102614,0.740538413 107.32766,0.787227516 107.444544,0.886877995 C107.561438,0.986609146 107.616053,1.29845807 107.60841,1.82253569 L107.60841,7.55118779 Z M116.113157,9.28158881 C116.367144,9.28166948 116.632596,9.21594171 116.909534,9.08445592 C117.186452,8.95296004 117.484688,8.75517169 117.804231,8.49111103 C117.838315,8.46368245 117.872399,8.44865723 117.906473,8.44603538 C117.940557,8.44301016 117.95891,8.46408581 117.961532,8.50815306 C117.967582,8.67400526 117.991582,8.84109779 118.033632,9.0094105 C118.075683,9.1777232 118.099683,9.2684493 118.105733,9.28158881 C118.153431,9.30014344 118.194775,9.30891656 118.229777,9.30760563 C118.264769,9.30659723 118.306517,9.29752159 118.354809,9.28158881 C118.497095,9.16223412 118.697545,9.05681557 118.956191,8.96533316 C119.214816,8.87387092 119.543082,8.80447256 119.941008,8.75721875 C119.980336,8.71294982 120,8.65398844 120,8.58025394 C120,8.50653961 119.980336,8.44751773 119.941008,8.40327905 C119.534077,8.37484206 119.269704,8.28748402 119.147909,8.14109402 C119.026094,7.9947141 118.971478,7.76311397 118.984043,7.44631378 L118.984043,4.92936776 C118.98606,4.70111553 118.994934,4.42713218 119.010262,4.10742779 C119.025589,3.78773348 119.034262,3.6120796 119.03648,3.58044596 C119.036198,3.55937032 119.027404,3.54091653 119.008648,3.52518543 C118.990396,3.50945433 118.964682,3.50128625 118.931606,3.50047953 C118.89611,3.50753836 118.836009,3.51328626 118.751354,3.51852996 C118.666648,3.52357198 118.573834,3.52659719 118.472792,3.52659719 C118.263861,3.52633501 118.049192,3.52357198 117.828805,3.51852996 C117.608409,3.51348794 117.377353,3.50733668 117.135659,3.50047953 C117.096331,3.54797536 117.076667,3.62010649 117.076667,3.71678218 C117.076667,3.81348812 117.096331,3.88556883 117.135659,3.93308483 C117.450553,3.94014365 117.666301,4.0141605 117.782923,4.1542984 C117.899535,4.29440605 117.954705,4.57461125 117.948422,4.99491402 L117.948422,7.52496929 C117.951448,7.64524163 117.939347,7.74159463 117.912826,7.81402828 C117.886305,7.88643169 117.828221,7.96051912 117.738644,8.03622001 C117.495568,8.24596803 117.270533,8.40327905 117.063518,8.50815306 C116.856502,8.61302707 116.670795,8.66546408 116.506385,8.66545399 C116.290626,8.68209266 116.06668,8.60293295 115.834545,8.42785385 C115.602401,8.25279493 115.476774,7.88191404 115.457665,7.31522127 L115.457665,4.92936776 C115.459681,4.70111553 115.468555,4.42713218 115.483883,4.10742779 C115.499211,3.78773348 115.507883,3.6120796 115.510102,3.58044596 C115.509829,3.55937032 115.501026,3.54091653 115.48227,3.52518543 C115.464018,3.50945433 115.438303,3.50128625 115.405228,3.50047953 C115.369732,3.50753836 115.309631,3.51328626 115.224975,3.51852996 C115.140269,3.52357198 115.047456,3.52659719 114.946404,3.52659719 C114.737483,3.52633501 114.522814,3.52357198 114.302417,3.51852996 C114.08202,3.51348794 113.850975,3.50733668 113.60928,3.50047953 C113.569953,3.54797536 113.550289,3.62010649 113.550289,3.71678218 C113.550289,3.81348812 113.569953,3.88556883 113.60928,3.93308483 C113.918437,3.9464966 114.132551,4.02132017 114.251624,4.15757571 C114.370696,4.29386151 114.427499,4.56860117 114.422044,4.98180477 L114.422044,7.49875079 C114.411355,7.96876787 114.531012,8.37896643 114.780904,8.72936664 C115.030797,9.07975676 115.474868,9.26383081 116.113117,9.28158881 L116.113157,9.28158881 Z" id="jbo-tagline" fill="#000000" fill-rule="nonzero"></path>
    </g>
</svg>