<?xml version="1.0" encoding="UTF-8"?>
<svg width="82px" height="17px" viewBox="0 0 82 17" version="1.1" xmlns="http://www.w3.org/2000/svg" xmlns:xlink="http://www.w3.org/1999/xlink">
    <title>ckb-tagline</title>
    <g id="Page-1" stroke="none" stroke-width="1" fill="none" fill-rule="evenodd">
        <path d="M80.3764112,8.46785985 C80.4126181,8.34715201 80.4669831,8.32904857 80.539375,8.41349483 C80.6641083,8.56639507 80.7546364,8.8410095 80.8109704,9.23733813 C80.8673043,9.63366675 80.8653354,9.97869317 80.8044072,10.2724174 C80.6474925,11.0449585 80.3034615,11.4754922 79.772347,11.5640077 C79.6677736,11.5800875 79.6154213,11.3950167 79.6154213,11.0087516 C79.6154213,10.6224756 79.667708,10.4353812 79.772347,10.4474465 C79.9534033,10.4755588 80.1706883,10.4656046 80.4241802,10.4172559 C80.3597517,10.0672086 80.2873707,9.82175658 80.2068952,9.68093259 C80.1263868,9.5401086 80.0942382,9.43750421 80.1103071,9.3731194 L80.3764112,8.46785985 Z M81.5533318,6.5183982 C81.1067073,6.60689176 80.7908542,6.68035563 80.6057616,6.73869137 C80.4206799,6.7969943 80.0726344,6.93886839 79.5616251,7.16419333 C79.4530045,7.20849481 79.3745307,7.19438397 79.3262476,7.1219702 C79.2256121,6.97309538 79.3866288,6.76788659 79.8090789,6.50634383 C79.5032894,6.35345453 79.3322748,6.18043814 79.2960679,5.98729466 C79.2316393,5.65333814 79.3704506,5.24895868 79.7125127,4.77416723 C80.0585454,4.3034012 80.4267071,4.08411438 80.8170085,4.11629584 C81.066475,4.13642293 81.1781257,4.2762515 81.1519714,4.53575968 C81.125828,4.79530067 81.0524298,5.00955571 80.9316782,5.17854669 C80.8109704,5.34753766 80.708366,5.36565204 80.623876,5.2329117 C80.5393203,5.10013855 80.4156481,5.02570114 80.2526843,5.00959947 C80.0897315,4.99351967 79.9619792,5.0397901 79.8694383,5.14842168 C79.7768975,5.25704233 79.7849921,5.36369402 79.8936127,5.46830019 C80.1672208,5.72581753 80.5675748,5.86262704 81.0946748,5.87871777 C81.1791211,5.87871777 81.3059108,5.85859068 81.4749018,5.81833651 C81.6438927,5.77808233 81.7615925,5.7590491 81.827979,5.76101806 C81.8943765,5.76320579 81.9426487,5.78923974 81.9728284,5.83944807 C82.0030191,5.88976579 82.0080508,5.93702069 81.9879237,5.98127841 C81.8309981,6.3112314 81.6861487,6.49027497 81.5533646,6.51844196 L81.5533318,6.5183982 Z M77.847552,7.76170533 C77.8355195,7.68929157 77.8736953,7.56656008 77.9622217,7.39354369 C78.0507152,7.2205273 78.1151219,7.10988301 78.1553652,7.06158894 C78.2358735,6.97309538 78.2941764,7.01334956 78.3303943,7.18229678 C78.3666011,7.35129869 78.4310297,7.65307375 78.5235268,8.08762196 C78.7287246,9.05329559 78.887663,9.65684571 79.000331,9.89826139 C79.1572457,10.2282034 79.414763,10.4112834 79.772872,10.4474902 C79.8694602,10.4551473 79.941863,10.5057932 79.9901462,10.5983778 C80.0383855,10.6909186 80.0464801,10.8136501 80.0143205,10.9665394 C79.9419068,11.3689062 79.8614203,11.5680768 79.7729049,11.5640514 C79.0727885,11.5479716 78.5839081,11.0228734 78.3062855,9.98880047 C78.2902057,9.94854629 78.2760949,9.94657734 78.2640624,9.98223729 C77.9019389,10.9720525 77.3989804,11.4991525 76.755198,11.5635264 C76.6787369,11.5711834 76.6244266,11.5222877 76.5922342,11.4156579 C76.5600746,11.3090062 76.5238678,11.12294 76.4836136,10.8573828 C76.4433594,10.5918255 76.5339313,10.455016 76.7552089,10.4469652 C77.4432491,10.4188529 77.9240787,10.1673299 78.1976867,9.69252754 C78.2137665,9.66441525 78.1911236,9.52655563 78.1282264,9.27910183 C78.0658762,9.03164803 77.9723071,8.52568147 77.8475738,7.76118028 L77.847552,7.76170533 Z M78.8615087,12.6625091 C78.8816358,12.6303495 78.9158738,12.622255 78.9641131,12.6383348 C79.2900298,12.7510027 79.5817413,12.9220064 79.8392586,13.1513567 C79.8754655,13.1835163 79.8814818,13.2197232 79.8574168,13.2599774 L79.2659429,14.1954823 C79.2417685,14.2316891 79.2015143,14.2256729 79.145235,14.1773241 C79.0929484,14.1330226 78.8595507,13.9861934 78.4451187,13.7367268 L77.9803908,14.4730611 C77.9562164,14.5092679 77.9149777,14.5032517 77.8566639,14.4549029 C77.7983609,14.4066635 77.5096138,14.2255526 76.9905646,13.9117122 C76.958405,13.8915851 76.9523888,13.8674107 76.9725159,13.8392984 L77.576066,12.9400114 C77.5961931,12.9078518 77.630431,12.8997572 77.6786704,12.915837 C77.948253,13.0083778 78.1957068,13.1431746 78.4210318,13.3202164 L78.8615087,12.6625091 Z M74.8298112,7.76170533 C74.8177349,7.68929157 74.8559655,7.56656008 74.9444853,7.39354369 C75.0330007,7.2205273 75.0973822,7.10988301 75.13762,7.06158894 C75.2180955,6.97309538 75.2764346,7.01334956 75.3126491,7.18229678 C75.348856,7.35129869 75.4132408,7.65307375 75.5057838,8.08762196 C75.7109883,9.05329559 75.8699222,9.65684571 75.9825869,9.89826139 C76.1395071,10.2282034 76.3970233,10.4112834 76.7551324,10.4474902 C76.8517205,10.4551473 76.9241233,10.5057932 76.9724065,10.5983778 C77.0206459,10.6909186 77.0287404,10.8136501 76.9965809,10.9665394 C76.9241671,11.3689062 76.8436806,11.5680768 76.7551652,11.5640514 C76.0550433,11.5479716 75.5661695,11.0228734 75.2885404,9.98880047 C75.2724496,9.94854629 75.2583607,9.94657734 75.2462953,9.98223729 C74.8841653,10.9720525 74.381209,11.4991525 73.7374255,11.5635264 C73.6609754,11.5711834 73.6066574,11.5222877 73.5744672,11.4156579 C73.5422748,11.3090062 73.5060679,11.12294 73.4658247,10.8573828 C73.4255924,10.5918255 73.5161205,10.455016 73.7374211,10.4469652 C74.4254646,10.4188529 74.9062909,10.1673299 75.1799,9.69252754 C75.1959908,9.66441525 75.1728993,9.52655563 75.1104944,9.27910183 C75.0481223,9.03164803 74.9545762,8.52568147 74.8298451,7.76118028 L74.8298112,7.76170533 Z M74.7211687,4.05592552 C74.7412848,4.02376593 74.7754899,4.01567134 74.8237731,4.03175113 C75.1496875,4.14441907 75.4414023,4.31542276 75.6989175,4.54476218 C75.7351244,4.57692176 75.7411625,4.61312864 75.7170209,4.65338282 L75.1255438,5.58887676 C75.1014022,5.62508364 75.0601526,5.61906739 75.0018169,5.57082801 C74.9434702,5.52258863 74.6547755,5.34148859 74.1357253,5.02763728 C74.1035329,5.00751019 74.0974947,4.98333581 74.1176218,4.95522351 L74.7211687,4.05592552 Z M68.2994232,9.56631757 C68.3477063,9.46174422 68.4040403,9.39833295 68.4684163,9.37619316 C68.5327902,9.35409712 68.5901294,9.3751868 68.6404274,9.43952785 C68.6907233,9.50395641 68.6866979,9.59745987 68.6283512,9.72016947 C68.5700045,9.84290096 68.5026094,9.97265504 68.4261626,10.1094646 C69.4240253,10.5198712 70.1221279,10.2523012 70.5204725,9.30674376 C70.5647302,9.20217041 70.6190515,9.13875915 70.6834308,9.11663029 C70.7478047,9.09453425 70.8031301,9.11225483 70.849406,9.1709953 C70.8956764,9.22929823 70.9027209,9.30881117 70.8705285,9.40940285 C70.7739513,9.68703635 70.7317085,9.87413076 70.7437837,9.97069703 C70.7638998,10.1557897 70.9157904,10.2815293 71.199462,10.3479159 C71.4831249,10.4143134 71.696378,10.3740592 71.8392223,10.227208 C71.9820568,10.0803459 72.1138313,9.7473848 72.2345468,9.22833563 C72.2506375,9.15996916 72.3019397,9.12573123 72.3884512,9.12573123 C72.4749539,9.12573123 72.5322909,9.15996916 72.5604623,9.22833563 C72.8582065,9.98881141 73.2525235,10.3951926 73.7434155,10.4475012 C73.8439963,10.4595337 73.9144137,10.5782726 73.954657,10.8035975 C73.9948893,11.0047809 73.9918702,11.1818227 73.9455779,11.3347229 C73.8992965,11.4876122 73.8319025,11.5640624 73.7433893,11.5640624 C73.0674101,11.5640624 72.574513,11.1556684 72.2646969,10.3388696 C72.2445698,10.2825356 72.2244537,10.2845046 72.2043375,10.3454328 C72.0594805,10.8443658 71.9166405,11.1843714 71.7758187,11.3654277 C71.634986,11.5464949 71.4740393,11.6410485 71.2929797,11.6490993 C70.7095468,11.6732737 70.2709688,11.4539541 69.9772457,10.9912279 C69.6593744,11.3734785 69.2640511,11.5645983 68.7912745,11.5645983 C68.3184936,11.5645983 67.9654185,11.4036582 67.7320482,11.081767 C67.4061316,11.4036582 67.0661336,11.5645983 66.7120522,11.5645983 C66.5551309,11.5645983 66.4585625,11.2869758 66.4223501,10.7317088 C66.4102739,10.5627178 66.5068511,10.4681643 66.7120522,10.4480372 C67.5328764,10.3836086 68.061987,10.0899391 68.2993838,9.5668645 L68.2994232,9.56631757 Z M64.8109196,2.66173086 C64.8994351,2.51688146 64.9618061,2.57925355 64.9980195,2.84882527 C65.1509176,4.12433574 65.2494965,5.21675534 65.2937586,6.126095 C65.3782487,7.84419358 65.4345848,8.8802792 65.4627518,9.23436282 C65.5231003,9.99885308 65.9355284,10.4032325 66.7000241,10.4474902 C66.913275,10.4595227 66.9957599,10.610454 66.947479,10.9001528 C66.8710289,11.3427519 66.7885417,11.5640514 66.7000241,11.5640514 C65.6176604,11.5640514 65.0382551,11.0631166 64.9618072,10.0612252 C64.8974224,9.21625938 64.8531646,8.36626181 64.8290264,7.51123247 C64.8048848,6.65621407 64.7555953,5.96414851 64.6811579,5.43502486 C64.6067205,4.90592309 64.5071341,4.30137755 64.3824008,3.62136637 C64.3582592,3.48859322 64.3703314,3.3819634 64.4186186,3.30148786 L64.8109196,2.66173086 Z M62.2337707,8.9506912 L62.5838278,8.18418823 C62.6562525,8.02727351 62.7327015,8.0252608 62.813176,8.17762505 C63.1390904,8.77714975 63.1994454,9.50140771 62.994241,10.3503989 C62.7970808,11.1591578 62.2981478,11.5635264 61.4974419,11.5635264 C61.4089265,11.5635264 61.3224139,11.3543031 61.2379163,10.9358456 C61.1735424,10.6018781 61.2600451,10.4389253 61.4974419,10.4469652 C61.9843031,10.4670923 62.3504553,10.3363209 62.5958997,10.054662 C62.607965,10.0385822 62.6099777,10.0103605 62.6019159,9.97021573 C62.5536328,9.73282547 62.4429808,9.49342251 62.2699644,9.2519959 C62.1975397,9.15136045 62.1854635,9.05081252 62.2337466,8.95022084 L62.2337707,8.9506912 Z M63.3382632,12.9522189 C63.3583794,12.9200593 63.3925845,12.9119647 63.4408676,12.9280445 C63.7667821,13.0407015 64.0584958,13.2117052 64.316012,13.4410555 C64.3522189,13.4732151 64.358257,13.509422 64.3341155,13.5496762 L63.7426383,14.4851701 C63.7184968,14.521377 63.6782535,14.5153608 63.6219294,14.4671214 C63.5696208,14.4228199 63.3362483,14.2759906 62.9218141,14.026535 L62.4570818,14.7628583 C62.4329403,14.7990652 62.3917016,14.7930489 62.3333549,14.7448096 C62.2750082,14.6964608 61.9863147,14.5154592 61.4672633,14.2016188 C61.4350709,14.1814917 61.4290437,14.1573174 61.4491599,14.1292051 L62.0527067,13.2299289 C62.0728229,13.1977694 62.107028,13.1896748 62.1553111,13.2057546 C62.4248949,13.2982954 62.6723498,13.4330813 62.8976747,13.6101231 L63.3382632,12.9522189 Z M54.9549831,10.4052452 C55.9045638,10.5943524 56.7434948,10.3630221 57.4717771,9.71116698 C57.20219,8.68513396 56.0956869,7.87034785 54.1522645,7.26679773 C54.0355799,7.23059085 53.9772354,7.06963977 53.9772354,6.78395545 C53.9772354,6.49828205 53.9973516,6.29911139 54.0375948,6.18644345 C54.3474163,5.33343776 55.3553404,4.42007268 57.0613693,3.44633727 C58.4253832,2.66575628 59.7209978,2.03002469 60.9482164,1.53913157 C61.1775591,1.44659072 61.2660789,1.51101928 61.213778,1.73226411 L61.0327129,2.51687052 C61.004546,2.63357481 60.9401611,2.71002493 60.8395782,2.74622088 C59.9302276,3.07617386 58.7452639,3.6404871 57.2846816,4.43917153 C55.8240959,5.23787784 54.9067033,5.83035807 54.5325046,6.21662314 C55.8683558,6.71154168 57.0754495,7.37544025 58.1537911,8.2083298 C58.8176897,8.72336448 59.2260891,9.05128288 59.3789926,9.19211781 C60.2521199,9.9726988 60.9562584,10.3911672 61.4914093,10.4474902 C61.7931767,10.4796498 61.8575549,10.7754196 61.6845451,11.334712 C61.636251,11.4916267 61.5718761,11.5680768 61.4914093,11.5640514 C60.9482109,11.5640514 60.08715,10.9926937 58.9082255,9.84997825 C58.5259749,9.47176401 58.1316568,9.13175842 57.7252712,8.82998336 C57.7494127,9.08347529 57.7413619,9.39128847 57.7011296,9.75341198 C57.5321343,10.8237027 56.8963972,11.461458 55.7939184,11.6666558 C55.4921445,11.7229898 55.2165248,11.7330533 54.9670583,11.6968464 C54.7175929,11.6606396 54.6129779,11.4232384 54.6532135,10.9846647 C54.6934458,10.5662073 54.7940419,10.3730638 54.9549875,10.4052562 L54.9549831,10.4052452 Z M53.8082412,9.65684571 C53.6392469,10.9283198 53.2328591,11.5640514 52.5890756,11.5640514 C52.4804331,11.5640514 52.383869,11.4936066 52.2993724,11.3528154 C51.9412678,10.7532907 52.0378351,10.4515157 52.5890756,10.4474902 C52.9632743,10.4431148 53.2529775,10.2684467 53.4581841,9.92240296 C53.4622314,9.9180275 53.3877721,8.93661317 53.2348718,6.97708798 C53.0980667,5.22278253 53.0296641,4.2269292 53.0296652,3.989528 C53.0296641,3.81652255 53.0558195,3.67368586 53.108128,3.56101792 L53.3555829,3.02385437 C53.3998407,2.92332832 53.4521492,2.89510664 53.5125053,2.93940811 C53.5648139,2.97966229 53.5949936,3.03796521 53.6030335,3.11443721 L53.8987715,6.38566881 C54.0033886,7.81406858 54.120071,8.80589649 54.2488297,9.36116347 C54.3856315,9.95263734 54.6230273,10.3006828 54.9610158,10.4052999 C55.1461008,10.4575866 55.2607748,10.6628173 55.305038,11.0209154 C55.3653865,11.5238738 55.2527295,11.7491987 54.9670506,11.6968902 C54.355454,11.5842332 53.9691846,10.904233 53.808239,9.65690041 L53.8082412,9.65684571 Z M54.122087,0.0543978317 C54.1220848,0.0544087703 54.1985371,0.16707671 54.3514352,0.392390713 C54.3796022,0.436692185 54.3936802,0.474868021 54.3936802,0.507060424 C54.3936802,0.5473146 54.3795912,0.585490436 54.3514352,0.621730134 C53.9490684,1.289676 53.677472,1.86706091 53.5366447,2.35391767 L53.4219706,2.43836393 C53.4058799,2.45039643 53.3877655,2.45652207 53.3676494,2.45641412 C53.3354569,2.45641412 53.3032755,2.43628559 53.2710831,2.39603142 C52.800316,1.8166338 52.4321521,1.19699295 52.1665905,0.537108854 C52.1424489,0.480774884 52.1303836,0.432535504 52.1303836,0.39225945 C52.1303836,0.319845686 52.1686032,0.271562552 52.2450577,0.247410046 C52.3456494,0.215250459 52.4220984,0.267537134 52.4744059,0.404324764 C52.5870673,0.706110764 52.8003214,1.12054283 53.1141662,1.64763189 C53.2831593,1.03605281 53.5446955,0.514990934 53.8987781,0.0844462619 C53.9470612,0.0281122918 53.9913189,3.55271368e-15 54.0315589,3.55271368e-15 C54.0677657,3.55271368e-15 54.0979454,0.018158134 54.122087,0.0543650157 L54.122087,0.0543978317 Z M51.7380739,10.3207443 C51.5811482,9.97471151 51.3839892,9.80572054 51.1465967,9.81377137 C51.0017429,9.83389846 50.8870688,9.89821763 50.8025745,10.0069039 C50.7663566,10.0512054 50.7764202,10.1095083 50.8327542,10.181933 C50.9615084,10.3468986 51.2451757,10.4253614 51.683757,10.4173106 C51.7360655,10.4173215 51.754169,10.385151 51.7380782,10.3207224 L51.7380739,10.3207443 Z M52.329551,11.6968355 C52.0720337,13.169493 51.2934577,14.1975387 49.993821,14.7809618 C49.6558325,14.933862 49.3440005,15.0193584 49.0583216,15.0374727 C48.7726416,15.0555215 48.2455438,14.8030906 47.4770271,14.280016 C47.3885116,14.2196348 47.3623541,14.1593082 47.3985642,14.0989597 C47.4347821,14.0385785 47.4911051,14.0285149 47.5675574,14.0687691 C48.2556019,14.4268672 49.1166628,14.3101848 50.1507423,13.7187109 C51.0359426,13.2157525 51.6374778,12.5196615 51.9553502,11.630438 C51.9553458,11.6023257 51.9452866,11.5821986 51.9251705,11.5700567 C51.317596,11.5623997 50.8729832,11.4765314 50.5913297,11.3135457 C50.3096719,11.1505929 50.2030454,10.8317207 50.271449,10.3569293 C50.2875398,10.2483086 50.3217449,10.1175263 50.3740534,9.96462609 C50.551092,9.45361682 50.8065933,9.10456497 51.1405597,8.91747056 C51.4745195,8.73036521 51.7581867,8.79776908 51.9915614,9.11966029 C52.2289528,9.4495914 52.3637452,9.89220138 52.3959387,10.4474574 C52.4562871,10.443082 52.5206676,10.4398004 52.5890745,10.4354249 C52.7097791,10.4310495 52.7822049,10.5259968 52.8063508,10.7190856 C52.8304924,10.9041783 52.8174098,11.0912727 52.7671249,11.2803907 C52.716829,11.4694979 52.657476,11.5640514 52.5890789,11.5640514 C52.5287195,11.5684269 52.4482461,11.5706146 52.3476588,11.5706146 C52.3436115,11.6108688 52.3375953,11.6530919 52.3295554,11.6973606 L52.329551,11.6968355 Z M52.1183085,5.10006198 C52.1183052,5.10006198 52.1947586,5.21272992 52.3476566,5.43804392 C52.3758236,5.48234539 52.3899017,5.52052123 52.3899017,5.55272457 C52.3899017,5.59297875 52.3758127,5.63115458 52.3476566,5.66739428 C51.9452888,6.33532921 51.6736923,6.91271412 51.5328673,7.39958182 L51.4181932,7.48402808 C51.4020915,7.49606058 51.3839881,7.50218622 51.3638719,7.50218622 C51.3316795,7.50218622 51.2994871,7.48205913 51.2673056,7.44180495 C50.7965363,6.86240734 50.4283725,6.24275554 50.1628131,5.58287145 C50.1386715,5.52653748 50.1266062,5.4782981 50.1266062,5.43802205 C50.1266062,5.36560828 50.1648258,5.31732515 50.2412803,5.29317264 C50.341872,5.26101305 50.4183188,5.31329973 50.4706285,5.4500983 C50.5832876,5.75187336 50.7965418,6.16631636 51.1103887,6.69340542 C51.2793786,6.08181541 51.5409159,5.56075353 51.8950006,5.1302198 C51.9432838,5.07388583 51.9875415,5.04577353 52.0277814,5.04577353 C52.0639883,5.04577353 52.094168,5.06393167 52.1183096,5.10013855 L52.1183085,5.10006198 Z M43.3547992,10.9182563 C43.1294754,10.7734069 43.0811911,10.5380293 43.2099476,10.2121127 C43.3910126,9.89424691 43.5439107,9.78359168 43.6686439,9.88015795 C44.2802383,10.3428841 44.8978687,10.5702108 45.521536,10.5621709 C45.549703,10.5621709 45.5637811,10.5440128 45.5637811,10.5078059 C45.5637789,10.4675517 45.4993962,10.3750218 45.3706452,10.2301724 C45.3424782,10.1980128 45.3364401,10.1577586 45.3525418,10.1094646 C45.3525407,10.1094646 45.4491081,9.82378022 45.642245,9.2524225 C45.6583357,9.20013583 45.68449,9.17399249 45.7207078,9.17399249 C45.7569147,9.17399249 45.783069,9.19411958 45.7991706,9.23437376 C45.94402,9.60052268 45.9923043,9.97070797 45.9440222,10.3448968 C45.8796374,10.8277391 45.7569202,11.151643 45.5758584,11.3166086 C45.451123,11.4292765 45.3404732,11.4936504 45.2439069,11.509752 C44.7087605,11.5982456 44.0790593,11.4011314 43.3548025,10.9182672 L43.3547992,10.9182563 Z M45.5999967,16.0846283 C45.5798805,16.1167879 45.5456754,16.1248824 45.4973923,16.1088027 C45.1714757,15.9961347 44.8797609,15.825131 44.6222479,15.5957916 C44.5860301,15.563632 44.5800029,15.5274251 44.6041445,15.487171 L45.1956205,14.551677 C45.2197621,14.5154701 45.2610007,14.5214864 45.3193485,14.5697258 C45.3776952,14.6179652 45.6663865,14.7990652 46.185439,15.1129165 C46.2176314,15.1330436 46.2236586,15.157218 46.2035424,15.1853303 L45.5999967,16.0846283 Z M44.7489949,14.7990761 C44.7288788,14.8312357 44.6946737,14.8393303 44.6463906,14.8232505 C44.3204739,14.7105826 44.0287591,14.5395789 43.7712462,14.3102285 C43.7350283,14.2780689 43.7290011,14.2418621 43.7531427,14.2016079 L44.3446199,13.266103 C44.3687614,13.2298961 44.4089937,13.2359124 44.4653288,13.2841518 C44.5136119,13.3244059 44.7168058,13.4531427 45.0749127,13.6704278 L45.5094664,12.9823876 C45.5336079,12.9461808 45.5748466,12.952197 45.6331943,13.0004364 C45.6915301,13.0486758 45.9802313,13.2297758 46.4992848,13.5436271 C46.5314663,13.5637542 46.5375044,13.5879286 46.5173883,13.6160409 L45.9138403,14.5153279 C45.8937242,14.5474875 45.8595191,14.5555821 45.8112359,14.5395023 C45.5738391,14.458994 45.3545501,14.3463698 45.1533689,14.2015204 L44.7489949,14.7990761 Z M43.9100618,10.6164812 C43.7330189,10.934358 43.568049,11.0530531 43.415152,10.9725775 C43.3829596,10.9564978 43.2582286,10.8659259 43.0409523,10.7009822 C42.5339717,11.2683145 42.0471105,11.5560115 41.5803667,11.5640514 C41.4073503,11.5684269 41.2967005,11.3870205 41.2484163,11.0208607 C41.2001331,10.666788 41.3107884,10.4736445 41.5803667,10.4414521 C42.3046235,10.3570059 42.8196505,10.1135337 43.1254488,9.71116698 C43.2099389,9.59849904 43.3165709,9.59448456 43.4453295,9.69913448 C43.4815364,9.72330886 43.5660374,9.79769158 43.6988193,9.92244671 C43.9724252,10.1558225 44.0428393,10.3871856 43.9100618,10.616525 L43.9100618,10.6164812 Z M43.3004779,12.1072531 C43.3205941,12.0750935 43.3547992,12.0669989 43.4030823,12.0830787 C43.7289957,12.1957357 44.0207105,12.3667394 44.2782267,12.5960897 C44.3144336,12.6282493 44.3204717,12.6644562 44.2963302,12.7047104 L43.704853,13.6402043 C43.6807115,13.6764112 43.6404682,13.670395 43.584143,13.6221556 C43.5318344,13.5778541 43.2984619,13.4310248 42.8840277,13.1815692 L42.4192965,13.9178925 C42.3951549,13.9540994 42.3539053,13.9480831 42.2955685,13.8998438 C42.2372218,13.851495 41.9485283,13.6704934 41.429478,13.3566421 C41.3972856,13.336515 41.3912584,13.3123406 41.4113746,13.2842283 L42.0149225,12.3849413 C42.0350387,12.3527817 42.0692438,12.3446871 42.1175269,12.3607669 C42.3871107,12.4533077 42.6345656,12.5881045 42.8598905,12.7651463 L43.3004779,12.1072531 Z M41.5864015,10.4474902 C41.7111282,10.4796498 41.7936132,10.5893315 41.8338553,10.7764259 C41.8740876,10.9635313 41.8690558,11.1425749 41.8187709,11.3135785 C41.7684641,11.4845932 41.6910142,11.5680768 41.5864059,11.5640514 C41.0432075,11.5318918 40.6750437,11.0812201 40.4819133,10.2121127 C40.4215539,9.93850463 40.3893615,9.79968241 40.385347,9.79565699 C40.3611945,9.73122843 40.337053,9.73527573 40.3129223,9.80768949 C40.0554039,10.5037805 39.7254651,10.9343142 39.3231039,11.0992798 C38.8120968,11.3044885 38.1180174,11.378926 37.2408636,11.322592 C36.5568423,11.2782905 36.3818132,10.7351435 36.7157774,9.69300884 C36.7519843,9.58035184 36.8123437,9.51597797 36.8968413,9.4998763 C36.9813313,9.48379651 37.0396802,9.53816153 37.0718704,9.66284009 C37.1402697,9.90023034 37.2529333,10.0370399 37.4098567,10.0732467 C38.1984908,10.2422486 38.9167117,10.19798 39.5645228,9.94047358 C39.8864107,9.81171491 40.0976522,9.58437726 40.1982482,9.25846063 C40.214339,9.20212666 40.1590114,8.7575149 40.032272,7.92461442 C39.9055227,7.09172488 39.8320917,6.58374561 39.8119777,6.40066568 C39.7918506,6.21758574 39.8038831,6.07776811 39.8481846,5.9811909 C39.9849842,5.69551751 40.07954,5.48629424 40.1318518,5.35351015 C40.1559934,5.29312889 40.1992448,5.26698555 40.2616147,5.27508014 C40.3239758,5.28273718 40.3591873,5.32331952 40.3672381,5.39578798 C40.568416,7.12596281 40.7877039,8.50405579 41.0251051,9.53008881 C41.1498329,10.077305 41.3369328,10.3831054 41.5864048,10.4474793 L41.5864015,10.4474902 Z M34.1325859,8.9506912 L34.482643,8.18418823 C34.5550677,8.02727351 34.6315168,8.0252608 34.7119912,8.17762505 C35.0379056,8.77714975 35.0982606,9.50140771 34.8930562,10.3503989 C34.6958961,11.1591578 34.1969631,11.5635264 33.3962572,11.5635264 C33.3077417,11.5635264 33.2212292,11.3543031 33.1367315,10.9358456 C33.0723576,10.6018781 33.1588604,10.4389253 33.3962572,10.4469652 C33.8831183,10.4670923 34.2492705,10.3363209 34.4947138,10.054662 C34.5067791,10.0385822 34.5087918,10.0103605 34.5007301,9.97021573 C34.4524469,9.73282547 34.341795,9.49342251 34.1687786,9.2519959 C34.0963539,9.15136045 34.0842776,9.05081252 34.1325717,8.95022084 L34.1325859,8.9506912 Z M35.2370785,12.9522189 C35.2571946,12.9200593 35.2913998,12.9119647 35.3396829,12.9280445 C35.6655973,13.0407015 35.957311,13.2117052 36.2148273,13.4410555 C36.2510342,13.4732151 36.2570723,13.509422 36.2329307,13.5496762 L35.6414536,14.4851701 C35.617312,14.521377 35.5770688,14.5153608 35.5207446,14.4671214 C35.4684361,14.4228199 35.2350636,14.2759906 34.8206293,14.026535 L34.3558971,14.7628583 C34.3317555,14.7990652 34.2905168,14.7930489 34.2321702,14.7448096 C34.1738235,14.6964608 33.8851299,14.5154592 33.3660786,14.2016188 C33.3338862,14.1814917 33.327859,14.1573174 33.3479751,14.1292051 L33.951522,13.2299289 C33.9716381,13.1977694 34.0058432,13.1896748 34.0541264,13.2057546 C34.3237101,13.2982954 34.571165,13.4330813 34.79649,13.6101231 L35.2370785,12.9522189 Z M31.495083,2.66173086 C31.5835985,2.51688146 31.6459695,2.57925355 31.6821829,2.84882527 C31.835081,4.12433574 31.93366,5.21675534 31.977922,6.126095 C32.0624121,7.84419358 32.1187482,8.8802792 32.1469152,9.23436282 C32.2072637,9.99885308 32.6196918,10.4032325 33.3841875,10.4474902 C33.5974384,10.4595227 33.6799233,10.610454 33.6316424,10.9001528 C33.5551923,11.3427519 33.4727051,11.5640514 33.3841875,11.5640514 C32.3018238,11.5640514 31.7224185,11.0631166 31.6459706,10.0612252 C31.5815858,9.21625938 31.5373281,8.36626181 31.5131898,7.51123247 C31.4890482,6.65621407 31.4397587,5.96414851 31.3653202,5.43502486 C31.2908828,4.90592309 31.1912975,4.30137755 31.0665642,3.62136637 C31.0424226,3.48859322 31.0544948,3.3819634 31.102782,3.30148786 L31.495083,2.66173086 Z M29.3826696,8.003121 C28.8877522,7.73756376 28.2600638,7.8180393 27.4996,8.24454762 C27.0046859,8.52620653 26.6626752,8.93460046 26.4735692,9.46974036 C26.4373514,9.57431371 26.4454022,9.68299999 26.4977108,9.79565699 C26.6707228,10.1940093 27.1978206,10.4173215 28.0790064,10.4655937 C28.960178,10.5139425 29.420886,10.6969568 29.4611303,11.0148226 C29.5415949,11.6626304 29.3565022,12.1676015 28.9058666,12.529736 C27.7188825,13.4833334 26.3709604,13.9883045 24.8620972,14.0446385 C23.0514512,14.1130049 22.0555989,13.4451138 21.874535,12.0408556 C21.790034,11.4010986 21.9469597,10.6466609 22.3453032,9.77755355 C22.5625784,9.31081294 22.8221041,8.89235546 23.1238792,8.52217017 C23.2043547,8.42558203 23.2687286,8.41759682 23.317015,8.49799579 C23.3652981,8.57850414 23.3632854,8.65290874 23.3109987,8.72130802 C22.4982199,9.86805982 22.2326593,10.7995283 22.5143161,11.5157355 C22.8804661,12.4492276 23.7073263,12.9039029 24.9948966,12.8797614 C26.564116,12.8515397 27.8315646,12.4512403 28.7972481,11.6786992 C28.8777127,11.6142707 28.8837509,11.553966 28.8153516,11.497632 C28.6825642,11.3809496 28.2138087,11.2984614 27.4090861,11.2501782 C26.6043504,11.2019388 26.1386129,10.9976926 26.0118724,10.6375818 C25.8851232,10.2774601 25.8961876,9.87007253 26.0450712,9.41539723 C26.3387921,8.52214829 26.9181974,7.76569793 27.7832892,7.14605708 C28.2218595,6.82819128 28.5960593,6.65920031 28.9058874,6.63907323 C29.6502549,6.59083384 29.9138038,6.97706611 29.6965352,7.79789034 C29.6361758,8.01516444 29.5315565,8.08356373 29.3826904,8.00308819 L29.3826696,8.003121 Z M15.8330208,8.9506912 L16.183079,8.18418823 C16.2555037,8.02727351 16.3319527,8.0252608 16.4124272,8.17762505 C16.7383405,8.77714975 16.7986955,9.50140771 16.5934911,10.3503989 C16.396331,11.1591578 15.897398,11.5635264 15.0966921,11.5635264 C15.0081766,11.5635264 14.9216641,11.3543031 14.8371675,10.9358456 C14.7727936,10.6018781 14.8592963,10.4389253 15.0966921,10.4469652 C15.5835543,10.4670923 15.9497054,10.3363209 16.1951498,10.054662 C16.2072151,10.0385822 16.2092278,10.0103605 16.201166,9.97021573 C16.1528829,9.73282547 16.042231,9.49342251 15.8692146,9.2519959 C15.7967899,9.15136045 15.7847136,9.05081252 15.8330077,8.95022084 L15.8330208,8.9506912 Z M17.0702942,6.5183982 C16.6236664,6.60689176 16.3078101,6.68035563 16.122724,6.73869137 C15.9376346,6.7969943 15.5895891,6.93886839 15.0785864,7.16419333 C14.9699439,7.20849481 14.8914866,7.19438397 14.8432023,7.1219702 C14.7426106,6.97309538 14.9035617,6.76788659 15.3260402,6.50634383 C15.020243,6.35345453 14.8492383,6.18043814 14.8130248,5.98729466 C14.748651,5.65333814 14.8874622,5.24895868 15.2294729,4.77416723 C15.5755067,4.3034012 15.9436706,4.08411438 16.3339654,4.11629584 C16.5834309,4.13642293 16.695087,4.2762515 16.6689349,4.53575968 C16.6427806,4.79530067 16.5693496,5.00955571 16.4486395,5.17854669 C16.3279284,5.34753766 16.2253262,5.36565204 16.1408296,5.2329117 C16.0563287,5.10013855 15.932605,5.02570114 15.7696478,5.00959947 C15.6066895,4.99351967 15.4789394,5.0397901 15.3863953,5.14842168 C15.2938544,5.25704233 15.3018943,5.36369402 15.4105368,5.46830019 C15.6841438,5.72581753 16.0844967,5.86262704 16.6115967,5.87871777 C16.6960868,5.87871777 16.822836,5.85859068 16.9918314,5.81833651 C17.1608223,5.77808233 17.2785144,5.7590491 17.3449064,5.76101806 C17.411293,5.76320579 17.4595783,5.78923974 17.489758,5.83944807 C17.5199377,5.88976579 17.5249585,5.93702069 17.5048424,5.98127841 C17.3479178,6.3112314 17.2030662,6.49027497 17.0702887,6.51844196 L17.0702942,6.5183982 Z M13.1955179,2.66173086 C13.2840334,2.51688146 13.3464033,2.57925355 13.3826167,2.84882527 C13.5355148,4.12433574 13.6340937,5.21675534 13.6783558,6.126095 C13.7628459,7.84419358 13.819182,8.8802792 13.847349,9.23436282 C13.9076974,9.99885308 14.3201256,10.4032325 15.0846224,10.4474902 C15.2978722,10.4595227 15.3803571,10.610454 15.3320762,10.9001528 C15.2556261,11.3427519 15.1731389,11.5640514 15.0846224,11.5640514 C14.0022576,11.5640514 13.4228523,11.0631166 13.3464044,10.0612252 C13.2820196,9.21625938 13.2377618,8.36626181 13.2136236,7.51123247 C13.189482,6.65621407 13.1401925,5.96414851 13.0657551,5.43502486 C12.9913177,4.90592309 12.8917313,4.30137755 12.7669991,3.62136637 C12.7428575,3.48859322 12.7549269,3.3819634 12.803206,3.30148786 L13.1955179,2.66173086 Z M10.3407366,8.11780165 C10.3648781,8.01716621 10.4373028,8.02722976 10.558014,8.14799229 C10.879903,8.47794527 11.1213208,8.91953796 11.2822708,9.4727813 C11.4432131,10.0260356 11.4995438,10.5802962 11.4512651,11.1355632 C11.3546988,11.8517703 11.0670018,12.5166753 10.5881915,13.1302889 C10.1093735,13.7438916 9.48369671,14.1512792 8.7111578,14.3524735 C8.50192688,14.4088075 8.30476783,14.4047602 8.11968065,14.340441 C7.15400483,14.0145244 6.55448122,13.7791359 6.32110873,13.6342865 C6.28891632,13.6141594 6.27282559,13.5880161 6.27282559,13.5558565 C6.27282559,13.5236969 6.28691455,13.4954752 6.3150706,13.4714103 C6.34323758,13.4472359 6.3774427,13.4412196 6.417675,13.4533615 C6.98098735,13.626367 7.46784849,13.6867263 7.8782606,13.6344178 C8.28867272,13.5821311 8.75943875,13.3849513 9.29056308,13.0429439 C10.079196,12.5319456 10.6505537,11.9384481 11.0046384,11.2624842 C11.0368199,11.2021029 11.0448707,11.1377509 11.02878,11.0693407 C10.9080667,10.6347925 10.5861755,10.0936145 10.0631042,9.44579569 C10.0389626,9.40958881 10.0309118,9.37939818 10.0389626,9.35522379 L10.3407366,8.11780165 Z M9.07932163,4.27319962 C9.09943778,4.24104004 9.13364289,4.23294545 9.18192602,4.24902524 C9.50783937,4.36169318 9.79955417,4.53269686 10.0570704,4.76203628 C10.0932773,4.79419587 10.0993154,4.83040275 10.0751739,4.87065693 L9.48369671,5.80615087 C9.45955514,5.84235775 9.41830555,5.8363415 9.35996981,5.78810212 C9.30162313,5.73986274 9.0129274,5.5587627 8.49387823,5.24491138 C8.46168583,5.2247843 8.4556477,5.20060991 8.47577479,5.17249762 L9.07932163,4.27319962 Z M5.74170236,3.18681815 C5.8624102,2.89711935 5.93886032,2.88906851 5.97105053,3.16264377 C5.97104944,3.16264377 6.06560409,4.20476752 6.25471777,6.28901503 C6.57258466,9.06533903 6.55447794,10.7955029 6.20039651,11.4795286 C6.15211338,11.5720532 6.10886202,11.5952046 6.07063367,11.5488795 C6.03240315,11.5026091 6.01530606,11.4352162 6.01933148,11.3466898 C6.03944763,10.3729653 6.01233075,9.59439705 5.93784959,9.01096308 C5.86341217,8.42754004 5.77388492,7.64292269 5.66927109,6.65712197 L5.40371057,4.23689429 C5.3876089,4.10010666 5.40972682,3.96128445 5.47009715,3.82044952 L5.74170236,3.18681815 Z M1.12456252,7.58667623 C1.25734114,7.18432042 1.37603845,6.92277766 1.48065556,6.80205889 C1.54905484,6.72155053 1.64159898,6.71356533 1.75828796,6.7778845 C2.85674021,7.38546004 3.49851211,8.19623167 3.68360475,9.21018843 C3.78821092,9.78154615 3.76406935,10.2845046 3.61118005,10.7190528 C3.5669114,10.8478115 3.48040758,10.9463905 3.35165437,11.0147897 C2.56703922,11.4171565 1.70195508,11.624378 0.756399786,11.6364542 C0.100543299,11.6441113 -0.128804872,11.2260367 0.0683552718,10.3810709 C0.0924968392,10.2844827 0.142792683,10.2301833 0.219241709,10.2181071 C0.267524843,10.2137316 0.329891471,10.2442504 0.40634159,10.308679 C0.563262872,10.4414631 0.871071684,10.4776699 1.32977021,10.4172996 C2.32763187,10.2885519 2.98147456,10.1316262 3.29130046,9.94653358 C3.3194565,9.93045379 3.32750734,9.88221441 3.31544202,9.80168418 C3.1625396,8.97683453 2.4926018,8.33305211 1.30562755,7.87033691 C1.14467976,7.80590835 1.08432475,7.71139855 1.12456361,7.58666529 L1.12456252,7.58667623 Z" id="ckb-tagline" fill="#000000" fill-rule="nonzero"></path>
    </g>
</svg>