<svg xmlns="http://www.w3.org/2000/svg" width="148" height="18"><path fill="#666" stroke="#666" stroke-width=".762" d="M13.588 3.57c0 4.212-.734 7.2-2.202 8.963-1.468 1.757-3.42 3.084-5.857 3.981l-.98-1.654a12.2 12.2 0 0 0 3.692-1.856c1.167-.852 2.02-1.83 2.558-2.933.545-1.109.87-2.709.972-4.799H2.808v4.29H1V3.57h5.395V.8h1.789v2.77h5.404Zm13.876 5.338v7.452h-1.79v-6.106a43.817 43.817 0 0 1-3.769 2.202l-1.077-1.52c3.642-1.73 6.334-3.83 8.078-6.298l1.49.961c-.929 1.295-1.907 2.398-2.932 3.309Zm26.184.99-6.654.827 1.125 5.607-1.876.278-1.057-5.673-6.8.846-.307-1.712 6.732-.808-.616-3.125-4.702.567-.337-1.692 4.693-.577-.673-3.404 1.827-.299.712 3.453 4.414-.53.317 1.713-4.395.548.606 3.116 6.664-.847.327 1.712ZM73.91 3.06l-1.174.847c-.416-.692-1.122-1.532-2.115-2.52L71.765.58c.86.795 1.574 1.622 2.144 2.48Zm-1.866 1.337-1.221.847a19.26 19.26 0 0 0-2.106-2.54l1.182-.826c.86.859 1.574 1.699 2.145 2.52Zm-8.232-.096c-1.558 4.071-3.218 7.21-4.981 9.415l-1.5-1.02c1.775-2.352 3.378-5.353 4.808-9l1.673.605Zm9.415 8.55-1.597.98c-1.307-2.974-3.067-6.077-5.28-9.309l1.616-.807a58.93 58.93 0 0 1 5.26 9.135Zm19.039-3.443H77.793V7.667h14.473v1.74Zm11.356-5.713-1.106 1.452c-.923-.807-2.115-1.602-3.577-2.384l1.038-1.472c1.392.737 2.607 1.539 3.645 2.404Zm-1.673 3.991-1.039 1.52c-.756-.68-2.026-1.475-3.808-2.385l.904-1.51c1.584.699 2.898 1.49 3.943 2.375Zm9.357-.904c-2.347 4.25-6.331 7.283-11.954 9.098l-1.01-1.654c5.347-1.52 9.181-4.334 11.502-8.444l1.462 1Zm17.289-3.289h-9.79V1.84h9.79v1.654Zm2.279 3.847h-6.001c0 1.577-.096 2.885-.288 3.924-.186 1.032-.632 2-1.337 2.904-.699.904-1.773 1.686-3.221 2.346l-1.183-1.336c1.34-.616 2.311-1.27 2.914-1.962.602-.693.971-1.417 1.106-2.173.141-.763.205-1.998.192-3.703h-6.578V5.724h14.396V7.34Zm13.193 1.568v7.452h-1.789v-6.106a43.668 43.668 0 0 1-3.77 2.202l-1.077-1.52c3.642-1.73 6.335-3.83 8.078-6.298l1.491.961c-.93 1.295-1.907 2.398-2.933 3.309Z"/></svg>