<svg xmlns="http://www.w3.org/2000/svg" width="60" height="27"><path fill="#000" fill-rule="nonzero" d="M57.18 12.348c1.15 1.379 1.803 2.545 1.961 3.498v.472c0 2.112-.102 3.404-.307 3.876-.898 1.922-1.765 3.258-2.6 4.006-1.772 1.442-3.15 2.375-4.136 2.8.048-.59.197-1.378.45-2.363 2.142-1.08 3.706-2.848 4.69-5.305.071-.497.005-.851-.2-1.064l-.355.036a2.149 2.149 0 0 1-.803.141c-.457 0-.938-.114-1.442-.342.04-.906.386-1.89 1.04-2.954l1.702-2.8ZM30.392 22.522l.02.02 1.433 1.445-1.512 1.584-1.371-1.454 1.43-1.595Zm7.87-2.174.02.02.105.107 1.328 1.338-1.513 1.583-1.37-1.453 1.43-1.595Zm-12.479 0 .02.02.106.107 1.328 1.338-1.513 1.583-1.37-1.453 1.43-1.595Zm-3.19-.012 1.453 1.465-1.512 1.584-1.37-1.454 1.429-1.595Zm12.478 0 .045.046.036.035.1.102 1.272 1.282-1.512 1.584-1.37-1.454 1.429-1.595Zm-3.06-.437 1.453 1.465-1.512 1.583-1.371-1.453 1.43-1.595Zm-3.19-.012.004.005.04.04.017.017.12.12c.22.224.645.651 1.272 1.283l-1.513 1.584-1.37-1.454 1.43-1.595ZM50.62 2.86c.174 0 .26.094.26.283 0 .237-.157.666-.472 1.288l-.603 1.205c-1.016.591-1.867 1.044-2.552 1.36-.898.456-2.844 1.323-5.838 2.599.363 1.245.918 2.343 1.667 3.297 1.158 1.512 1.926 2.402 2.304 2.67-.007.084-.018.19-.034.317l-.038.285a49.68 49.68 0 0 1-.188 1.206c-1.221.693-2.41 1.205-3.569 1.536h-2.682c-.095 0-.343-.098-.745-.295-.582-.307-.949-.619-1.098-.934l-.201.225c-.032.15-.248.366-.65.65-.355.236-.548.354-.58.354H32.59c-.095 0-.343-.098-.745-.295-.583-.307-.95-.619-1.099-.934l-.2.225c-.032.15-.249.366-.65.65-.355.236-.548.354-.58.354h-2.918c-.095 0-.343-.098-.745-.295-.583-.307-.949-.619-1.099-.934l-.2.225c-.032.15-.249.366-.65.65-.355.236-.548.354-.58.354h-2.599c-.662 0-1.229-.335-1.701-1.004-.197-.268-.485-.847-.863-1.737-.646 1.244-1.162 1.902-1.548 1.973-.37.079-1.422.398-3.155.957-.922.268-1.639.697-2.15 1.288-.127-.142-.19-.342-.19-.602 0-.19.04-.457.119-.804.11-.417.173-.693.189-.827.953-.804 1.898-1.264 2.836-1.383 1.764-.275 2.902-.63 3.414-1.063.04-1.26-.48-3.246-1.56-5.955l1.005-2.021c.181-.016.43.48.745 1.489.299.992.705 2.714 1.217 5.164.393 1.252.937 2.107 1.63 2.564h2.044c.19 0 .603-.938 1.241-2.813.804-.118 1.221-.09 1.253.083a14 14 0 0 0 .555 1.725c.244.607.485.942.72 1.005h2.423c.19 0 .603-.938 1.241-2.813.804-.118 1.221-.09 1.253.083a14 14 0 0 0 .555 1.725c.244.607.484.942.72 1.005h2.518c.189 0 .602-.938 1.24-2.813.804-.118 1.221-.09 1.253.083a14 14 0 0 0 .555 1.725c.244.607.485.942.721 1.005h1.394a4.574 4.574 0 0 0 2.446-.957c-.134-.363-.567-1.052-1.3-2.068-.67-.93-1.106-1.694-1.311-2.293.016-.661.248-1.41.697-2.245.52-1.103.835-1.831.945-2.186 1.032-.244 2.592-.855 4.68-1.831 2.268-1.032 3.69-1.867 4.265-2.505ZM16.26 0c.378.418.568.957.568 1.619 0 .173-.012.43-.036.768-.024.33-.035.571-.035.72 0 .434.05.812.153 1.135a7.65 7.65 0 0 0 .863-.815c.181-.174.327-.26.437-.26.063 0 .512.236 1.347.709-.197.906-.8 1.48-1.808 1.725-.315.118-.902.244-1.76.378-1.23-.252-1.844-.532-1.844-.839 0-.023.004-.043.012-.059.102.032.595.047 1.477.047.11-.086.166-.425.166-1.016 0-.638-.004-1.268-.012-1.89 0-.63-.052-1.025-.154-1.182.575-.433.772-.78.59-1.04h.036ZM5.695 16.945c.331 0 .745-.252 1.241-.757-.26-.401-.39-.646-.39-.732 0-.977.213-1.694.638-2.15.229-.016.347-.009.355.023.205.638.626 1.41 1.264 2.316-.567 2.174-1.627 3.261-3.178 3.261H3.994c-1.3 0-2.15-.185-2.552-.555-.757-.733-1.135-1.796-1.135-3.19V8.78C.307 5.81.205 4.073 0 3.569l1.784-1.312c.315.796.508 2.005.58 3.628.117 1.63.141 2.812.07 3.544-.047.733-.067 1.867-.059 3.404.04 1.788.13 2.851.272 3.19.173.441.343.69.508.744.41.119.69.178.839.178h1.701Zm3.215 3.25 1.453 1.464-1.513 1.584-1.37-1.454 1.43-1.595m-3.19-.012 1.453 1.466L5.66 23.23l-1.37-1.453 1.43-1.596"/></svg>