<?xml version="1.0" encoding="UTF-8"?>
<svg width="119px" height="12px" viewBox="0 0 119 12" version="1.1" xmlns="http://www.w3.org/2000/svg" xmlns:xlink="http://www.w3.org/1999/xlink">
    <title>Combined Shape</title>
    <g id="Page-1" stroke="none" stroke-width="1" fill="none" fill-rule="evenodd">
        <path d="M9.73463457,5.89611306 C9.73463457,6.83697867 9.59822072,7.58445071 9.32542236,8.1385057 C9.00265433,8.80234969 8.510832,9.13426581 7.84995366,9.13426581 C7.24285229,9.13426581 6.77792622,8.85200495 6.45517546,8.28748324 C6.15546358,7.7752364 6.00561153,7.10094919 6.00561843,6.2646216 L6.00561843,5.26886149 C6.00561153,4.18686546 5.6079274,3.64587331 4.81256345,3.64586157 C4.15935668,3.64587331 3.83275545,4.15028479 3.83276063,5.15909599 L3.83276063,9.02450031 L3.12960749,9.02450031 L3.12960749,5.15909599 C3.12960317,4.6729866 3.01913569,4.2966427 2.79820333,4.03005256 C2.57726405,3.76348592 2.30157462,3.63019085 1.97113415,3.63019085 C1.53694444,3.63019085 1.198816,3.87585929 0.956748824,4.36719617 C0.733890794,4.80626992 0.622462039,5.33159135 0.622463334,5.94314871 C0.622462039,7.1715144 0.970195657,8.0287402 1.665666,8.51486134 L1.30832583,9.17346609 C0.436107429,8.52008883 2.66453526e-15,7.44854777 2.66453526e-15,5.95883117 C2.66453526e-15,5.10160537 0.172905618,4.37243541 0.518719445,3.77132128 C0.887584677,3.13362648 1.379407,2.81477321 1.99418771,2.81476146 C2.68581019,2.81477321 3.1814752,3.09703406 3.48118363,3.66154403 C3.76551438,3.09703406 4.19393746,2.81477321 4.76645546,2.81476146 C5.38122754,2.81477321 5.86344399,3.0473788 6.21310569,3.51257824 C6.56275444,3.97778943 6.73758141,4.58934679 6.73758918,5.34727381 L6.73758918,6.46847013 C6.73758141,7.00685441 6.82787691,7.44070067 7.00847568,7.77000891 C7.20827065,8.13589783 7.49260571,8.31884816 7.86148088,8.31884816 C8.30334388,8.31884816 8.6337878,8.06272475 8.85281177,7.55046617 C9.03339328,7.13230237 9.12368878,6.57562776 9.12369828,5.8804306 C9.12368878,4.68866906 8.74137369,3.85756896 7.97675215,3.38713028 L8.32256512,2.77556117 C9.26393497,3.39758526 9.73463457,4.43777313 9.73463457,5.89611306 L9.73463457,5.89611306 Z M11.7403499,9.00881784 L9.95941308,9.00881784 L9.95941308,8.1934002 L11.0660153,8.1934002 L11.0660153,2.98725682 L11.7403499,2.98725682 L11.7403499,9.00881784 Z M19.4807968,6.05292595 C19.4807968,7.43286531 19.1042371,8.46520608 18.3511411,9.14994827 L17.9707464,8.62462684 C18.5624641,8.06533262 18.8583264,7.23423251 18.8583333,6.13132653 C18.8583264,5.46749429 18.6873412,4.88468224 18.345377,4.38287864 C18.0034007,3.88108678 17.5884253,3.63019085 17.1004509,3.63019085 C16.9890171,3.63019085 16.8314797,3.66672453 16.6278394,3.73990936 C16.9352237,4.0744451 17.1753713,4.54749164 17.3482829,5.159049 C17.4904453,5.67130758 17.5615291,6.15741698 17.5615342,6.61738893 C17.5615291,7.24986799 17.4193615,7.81699757 17.1350316,8.31880118 C16.8199524,8.86241294 16.4337955,9.13421882 15.9765583,9.13421882 C15.4732044,9.13421882 15.079363,8.88332289 14.7950314,8.38151928 C14.5299046,7.92154733 14.3973438,7.33349605 14.3973464,6.61738893 C14.3973438,5.43085488 14.7239442,4.48215392 15.3771492,3.77127429 C15.1811857,3.67717951 14.9794616,3.63014386 14.771977,3.63014386 C14.2993629,3.63014386 13.8959148,3.87058481 13.5616316,4.35146672 C13.2273441,4.83236037 13.0602017,5.4256274 13.0602025,6.13127954 C13.0602017,7.2446405 13.3637476,8.08096809 13.9708438,8.64026232 L13.578922,9.14994827 C12.8258173,8.47561407 12.4492662,7.4432733 12.4492662,6.05287896 C12.4492662,5.24268881 12.6529108,4.52658169 13.0602025,3.90455761 C13.5328123,3.19891722 14.1783285,2.8460794 14.9967555,2.8460794 C15.4155692,2.8460794 15.7613822,3.00028442 16.0341944,3.30867097 C16.3262096,3.00028442 16.7200511,2.8460794 17.2157213,2.8460794 C17.9188684,2.8460794 18.4817745,3.19368973 18.9044413,3.88887515 C19.2886708,4.5213542 19.4807968,5.24268881 19.4807968,6.05287896 L19.4807968,6.05292595 Z M16.8756724,6.61743592 C16.8756724,6.12609904 16.7911331,5.65827998 16.6220762,5.21397874 C16.4530073,4.76968925 16.2378346,4.42469854 15.9765583,4.1790301 C15.6845344,4.44560849 15.4539927,4.80366205 15.2849324,5.25317903 C15.1158651,5.70270775 15.0313363,6.15746397 15.0313363,6.61743592 C15.0313363,7.79352674 15.3464068,8.38156627 15.9765583,8.38156627 C16.2685736,8.38156627 16.4971948,8.18817271 16.6624211,7.8013621 C16.8045834,7.47206559 16.8756724,7.07741962 16.8756724,6.61743592 L16.8756724,6.61743592 Z M31.1346935,6.4371052 C31.1346935,8.16203527 30.5929092,9.45833482 29.5093727,10.3260273 C28.5871956,11.0630444 27.3787733,11.4315529 25.8841006,11.4315529 C24.254932,11.4315529 22.9408443,11.015997 21.9418323,10.1848969 C20.792964,9.21789387 20.2185316,7.79875422 20.2185316,5.92746624 C20.2185316,4.81411703 20.4740482,3.76870166 20.985084,2.79124364 L21.4461673,3.26168231 C21.019663,4.09800991 20.8064126,4.98661238 20.8064134,5.92746624 C20.8064126,7.55308578 21.3308943,8.77882012 22.3798622,9.60469274 C23.2674455,10.2998899 24.4239967,10.6474885 25.849519,10.6474885 C27.1482308,10.6474885 28.2068019,10.3417098 29.0252349,9.7301407 C30.0165546,9.00359035 30.5122196,7.90591185 30.51223,6.4371052 C30.5122196,5.70009988 30.3469977,5.04540694 30.016565,4.47304987 C29.6861115,3.90069279 29.2576885,3.61450839 28.731294,3.61450839 C28.558378,3.61450839 28.3758657,3.65104207 28.1837569,3.7242269 C28.475767,4.00648775 28.7139941,4.43380259 28.8984364,5.00615966 C29.0828606,5.57852848 29.1750775,6.11559707 29.175087,6.61738893 C29.1750775,7.26032296 29.0348313,7.82745255 28.7543476,8.31880118 C28.4392649,8.86241294 28.0531071,9.13421882 27.5958742,9.13421882 C27.0925169,9.13421882 26.6986746,8.8780954 26.4143473,8.36583682 C26.1492171,7.90586487 26.0166554,7.32304107 26.0166623,6.61738893 C26.0166554,5.39427421 26.3509412,4.42465155 27.0195196,3.70854443 C26.9080832,3.65626955 26.7620738,3.63019085 26.5814898,3.63019085 L26.4374009,3.63019085 C26.0992664,3.63019085 25.8226158,3.76348592 25.6074501,4.03005256 C25.3922714,4.2966427 25.2846855,4.659912 25.2846916,5.1198957 L25.2846916,8.99313538 L24.6449377,8.99313538 L24.6449377,5.1198957 C24.6449325,4.72786935 24.5450311,4.38419432 24.3452327,4.08885887 C24.1454248,3.79353516 23.9033559,3.64587331 23.6190251,3.64586157 C23.17715,3.64587331 22.8217312,3.88108678 22.5527686,4.35151371 C22.3030126,4.78014423 22.1781355,5.30545391 22.1781381,5.92746624 C22.1781355,7.21332256 22.5431602,8.08101508 23.2732122,8.53054381 L22.9101088,9.14994827 C22.4682337,8.86245993 22.1253032,8.43253722 21.8813156,7.8601684 C21.6373227,7.28781133 21.515328,6.65925582 21.5153298,5.97451363 C21.515328,5.10683286 21.7084065,4.36851185 22.0945669,3.75955062 C22.4807212,3.15061288 22.9927163,2.84613814 23.6305523,2.84612639 C24.2261144,2.84613814 24.6699074,3.14930894 24.9619322,3.75563881 C25.2462621,3.14930894 25.7745865,2.84613814 26.546909,2.84612639 C27.0348817,2.84613814 27.4037482,2.97942146 27.6535103,3.24599985 C27.9224668,2.97942146 28.3163091,2.84613814 28.8350372,2.84612639 C29.5189691,2.84613814 30.0818752,3.21987416 30.5237572,3.96733446 C30.9310368,4.66253162 31.1346935,5.48578462 31.1346935,6.4371052 L31.1346935,6.4371052 Z M28.4949883,6.61743592 C28.4949883,5.61907969 28.1875901,4.82195238 27.5728206,4.22606574 C26.9734038,4.7905992 26.6737066,5.58771476 26.6737066,6.61743592 C26.6737066,7.75170683 26.9810883,8.31884816 27.5958742,8.31884816 C27.8955705,8.31884816 28.1241909,8.12544286 28.281737,7.73864399 C28.4238959,7.41979071 28.4949883,7.04606644 28.4949883,6.61743592 Z M41.5724799,5.89611306 C41.5724799,6.83697867 41.4360652,7.58445071 41.1632677,8.1385057 C40.8404997,8.80234969 40.3486773,9.13426581 39.687799,9.13426581 C39.0806976,9.13426581 38.6157715,8.85200495 38.2930208,8.28748324 C37.9933089,7.7752364 37.8434569,7.10094919 37.8434638,6.2646216 L37.8434638,5.26886149 C37.8434569,4.18686546 37.4457727,3.64587331 36.6504088,3.64586157 C35.997202,3.64587331 35.6706008,4.15028479 35.6706051,5.15909599 L35.6706051,9.02450031 L34.9674528,9.02450031 L34.9674528,5.15909599 C34.9674485,4.6729866 34.856981,4.2966427 34.6360487,4.03005256 C34.4151094,3.76348592 34.1394199,3.63019085 33.8089795,3.63019085 C33.3747898,3.63019085 33.0366613,3.87585929 32.7945941,4.36719617 C32.5717361,4.80626992 32.4603075,5.33159135 32.4603084,5.94314871 C32.4603075,7.1715144 32.808041,8.0287402 33.5035113,8.51486134 L33.1461712,9.17346609 C32.2739525,8.52008883 31.8378449,7.44854777 31.8378449,5.95883117 C31.8378449,5.10160537 32.0107505,4.37243541 32.3565643,3.77132128 C32.72543,3.13362648 33.2172523,2.81477321 33.832033,2.81476146 C34.5236555,2.81477321 35.0193205,3.09703406 35.319029,3.66154403 C35.6033597,3.09703406 36.0317828,2.81477321 36.6043008,2.81476146 C37.2190729,2.81477321 37.7012893,3.0473788 38.050951,3.51257824 C38.4005998,3.97778943 38.5754267,4.58934679 38.5754345,5.34727381 L38.5754345,6.46847013 C38.5754267,7.00685441 38.6657222,7.44070067 38.846321,7.77000891 C39.046116,8.13589783 39.330451,8.31884816 39.6993262,8.31884816 C40.1411892,8.31884816 40.4716323,8.06272475 40.6906571,7.55046617 C40.8712386,7.13230237 40.9615341,6.57562776 40.9615436,5.8804306 C40.9615341,4.68866906 40.579219,3.85756896 39.8145975,3.38713028 L40.1604104,2.77556117 C41.1017803,3.39758526 41.5724799,4.43777313 41.5724799,5.89611306 L41.5724799,5.89611306 Z M47.2495771,6.58608274 C47.2495771,7.26036995 47.1285366,7.83795451 46.8864737,8.31884816 C46.6021335,8.86245993 46.2275029,9.13426581 45.7625811,9.13426581 C45.2976516,9.13426581 44.9326269,8.85723244 44.667507,8.3031657 C44.4292774,7.82227205 44.3101643,7.24468749 44.3101669,6.57040027 C44.3101643,5.55112235 44.6598191,4.61810385 45.359133,3.77132128 C45.2745937,3.68768147 45.0940062,3.64587331 44.8173591,3.64586157 C44.2448437,3.64587331 43.7808787,3.91114777 43.4254625,4.44168494 C43.0700419,4.97223385 42.8923325,5.64259751 42.8923342,6.45278767 C42.8923325,7.32048019 43.1612977,8.03396769 43.6992306,8.59326191 L43.2612008,9.11858334 C42.6156828,8.42338618 42.2929252,7.52434047 42.2929252,6.42142274 C42.2929252,5.36556415 42.5205844,4.50311086 42.9759055,3.83403939 C43.4312239,3.16497966 44.0373564,2.83045567 44.7943055,2.83044392 C45.1900649,2.83045567 45.5358778,2.92453871 45.8317436,3.11270478 C46.0200156,2.86704809 46.114153,2.58478723 46.1141581,2.26592221 C46.114153,2.02026552 46.0555592,1.79549528 45.9383692,1.591635 C45.8211731,1.38778646 45.676124,1.28586807 45.5032218,1.28585632 C45.1881444,1.28586807 44.8922821,1.49494409 44.615635,1.91309614 L44.2410044,1.42698675 C44.5176515,0.799746925 44.9499173,0.486121141 45.5378026,0.486121141 C45.933562,0.486121141 46.2371088,0.659920432 46.4484439,1.00751901 C46.6597687,1.3551176 46.7654341,1.79549528 46.7654392,2.32865207 C46.7654341,2.6631878 46.6271084,3.07612411 46.350463,3.56746099 C46.9498669,4.28356811 47.2495771,5.28977144 47.2495771,6.58608274 L47.2495771,6.58608274 Z M46.5982959,6.57034154 C46.5982959,5.55106361 46.3543014,4.74872056 45.8663252,4.1632889 C45.2477009,4.86894104 44.9383935,5.66084086 44.9383935,6.53897661 C44.9383935,6.98850534 44.9960253,7.37792382 45.1113,7.70722032 C45.2611486,8.1358391 45.4782426,8.35014261 45.7625811,8.35014261 C46.0469119,8.35014261 46.2678477,8.14106658 46.4253895,7.72290279 C46.5406556,7.39359454 46.5982959,7.00941529 46.5982959,6.57034154 L46.5982959,6.57034154 Z M54.3733236,2.97157435 L54.3733236,11.306105 L50.5578546,11.306105 L50.5578546,10.8435017 L52.4482987,8.99313538 L50.9151939,8.99313538 L50.9151939,8.42861366 C51.6145009,7.90591185 51.9641557,7.10355706 51.96416,6.02156102 C51.9641557,5.33681884 51.7989338,4.76968925 51.468495,4.32016053 C51.1380477,3.8706318 50.7249936,3.64587331 50.2293321,3.64586157 C49.7259799,3.64587331 49.3148472,3.87585929 48.9959323,4.33583124 C48.6770147,4.79581494 48.5175568,5.37341125 48.5175576,6.06859667 C48.5175568,7.23423251 48.9075564,8.02090484 49.6875582,8.42861366 L49.4051445,9.10290088 C48.4291826,8.53837916 47.941203,7.52172086 47.941203,6.05292595 C47.941203,5.1329703 48.1669409,4.36589224 48.6184201,3.75171526 C49.0698959,3.13753829 49.6299204,2.83044392 50.2984945,2.83044392 C50.959378,2.83044392 51.501151,3.12970293 51.9238152,3.72819744 C52.3464708,4.32669195 52.5578008,5.08592291 52.557806,6.00587856 C52.5578008,7.04606644 52.3445495,7.79614635 51.9180521,8.25611831 L53.7220425,8.27185951 L53.7220425,2.97163309 L54.3733236,2.97157435 Z M53.7335697,10.537723 L53.7335697,8.99313538 L53.3589391,8.99313538 L51.7509087,10.537723 L53.7335697,10.537723 Z M57.4222419,2.83044392 C58.0831245,2.83044392 58.6248975,3.12970293 59.0475626,3.72819744 C59.4702173,4.32669195 59.6815473,5.08592291 59.6815525,6.00587856 C59.6815473,7.04606644 59.468296,7.79614635 59.0417986,8.25611831 L60.8457899,8.25611831 L60.8457899,2.97157435 L61.497071,2.97157435 L61.497071,8.99313538 L58.0389413,8.99313538 L58.0389413,8.35020134 C58.7382475,7.82749954 59.0879023,7.05128218 59.0879074,6.02156102 C59.0879023,5.33681884 58.9226812,4.76968925 58.5922424,4.32016053 C58.261795,3.8706318 57.848741,3.64587331 57.3530786,3.64586157 C56.8497265,3.64587331 56.4385938,3.87585929 56.1196796,4.33583124 C55.8007612,4.79581494 55.6413033,5.37341125 55.641305,6.06859667 C55.6413033,7.24991498 56.0313029,8.03658731 56.8113056,8.42861366 L56.528891,9.10290088 C55.5529291,8.54883414 55.0649495,7.53217583 55.0649495,6.05292595 C55.0649495,5.1329703 55.2906883,4.36589224 55.7421666,3.75171526 C56.1936433,3.13753829 56.7536678,2.83044392 57.4222419,2.83044392 Z M61.4797789,1.77635684e-15 C61.8409617,1.77635684e-15 62.1416261,0.145065728 62.3817745,0.435150196 C62.6219212,0.725269905 62.7420006,1.12643556 62.7420006,1.63868239 L62.7420006,8.97745291 L62.1195379,8.97745291 L62.1195379,1.74844789 C62.1195371,1.152573 61.9062858,0.849402187 61.4797832,0.838947211 C61.2991922,0.828374764 61.1454983,0.916008607 61.0186998,1.10160205 C60.8919022,1.287172 60.8285029,1.5027912 60.8285029,1.74844789 C60.8285029,2.04117547 60.8573188,2.26070647 60.9149557,2.40705264 L60.2636746,2.40705264 C60.2329331,2.16139595 60.2175623,1.93662571 60.2175623,1.73276543 C60.2175623,1.23098532 60.329952,0.816733324 60.5547296,0.490044693 C60.779509,0.163356063 61.0878579,1.77635684e-15 61.4797789,1.77635684e-15 Z M79.8770318,6.05292595 C79.8770318,7.44332028 79.4985395,8.47566106 78.7416155,9.14994827 L78.3785112,8.64030931 C78.9663741,8.10715252 79.2603185,7.27082493 79.2603271,6.13132653 C79.2603185,5.45703931 79.0893316,4.87160765 78.7473752,4.37504328 C78.4053928,3.87847891 77.990414,3.63019085 77.502449,3.63019085 C77.314158,3.63019085 77.133567,3.67201075 76.9606752,3.75563881 C77.237311,4.05880962 77.4716954,4.4743538 77.6638283,5.0022831 C77.855931,5.53022414 77.9519905,6.03724349 77.9520061,6.52335288 C77.9519905,7.21855005 77.8213502,7.81704456 77.5600842,8.31884816 C77.2642073,8.86245993 76.8684445,9.13426581 76.3727933,9.13426581 C75.8847998,9.13426581 75.4947994,8.87814239 75.2027927,8.36588381 C74.9414991,7.90591185 74.8108588,7.33354304 74.8108709,6.64880085 C74.8108588,5.43090187 75.1528291,4.47697342 75.8367835,3.78699199 C75.6408096,3.68244223 75.4525341,3.63019085 75.2719552,3.63019085 C74.9491845,3.63019085 74.6706126,3.73732499 74.4362404,3.95165199 C74.1749485,4.20777541 74.0443082,4.54491902 74.0443194,4.96308281 L74.0443194,9.02450031 L73.3123487,9.02450031 L73.3123487,4.96308281 C73.3123383,4.54491902 73.1624862,4.20777541 72.8627916,3.95165199 C72.6130278,3.73734848 72.3229296,3.63019085 71.992496,3.63019085 C71.519876,3.63019085 71.1183491,3.89154175 70.7879138,4.41424356 C70.4805166,4.89513722 70.3114528,5.46749429 70.2807216,6.13132653 C70.4228814,5.61907969 70.7533244,5.36295628 71.2720525,5.36295628 C71.6639648,5.36295628 71.9819196,5.53413595 72.2259193,5.87650704 C72.4699001,6.21887814 72.5918948,6.65925582 72.5919051,7.1976401 C72.5918948,7.75170683 72.4622155,8.21299447 72.2028649,8.581503 C71.9434961,8.95001154 71.6101715,9.13426581 71.2028892,9.13426581 C70.7917479,9.13426581 70.451699,8.92257016 70.1827416,8.49917888 C69.9483494,8.12283499 69.8004187,7.63933346 69.7389477,7.04867431 C69.0357886,8.52792419 67.6583016,9.26754913 65.6064834,9.26754913 C64.9532784,9.26754913 64.5075649,9.22314485 64.2693396,9.13426581 C63.7659892,8.95654296 63.5143144,8.53577129 63.5143153,7.87192731 C63.5143144,6.88402606 64.1713578,6.39006956 65.485449,6.39006956 L67.272149,6.39006956 C67.6871192,6.39006956 68.0406167,6.28810418 68.3326423,6.08427913 C68.6938183,5.81771249 68.8744093,5.428294 68.8744153,4.91603542 C68.8744093,4.51879332 68.7879565,4.20254792 68.615056,3.96733446 C68.4421435,3.73212099 68.2096805,3.61450839 67.9176661,3.61450839 C67.2875137,3.61450839 66.9724397,4.01698972 66.972444,4.82195238 L66.972444,6.11564406 L66.326927,6.11564406 L66.326927,4.88467049 C66.3269235,4.03789967 65.9330812,3.61450839 65.1453992,3.61450839 C64.626678,3.61450839 64.3077622,3.74780346 64.1886499,4.0143701 C64.3077622,3.93073029 64.4057422,3.88893388 64.4825909,3.88892214 C64.7361853,3.88893388 64.935988,4.00653474 65.082,4.24174821 C65.2280076,4.47697342 65.3010127,4.76968925 65.3010153,5.1198957 C65.3010127,5.48578462 65.2097561,5.78895543 65.0272463,6.02939638 C64.8447323,6.26984908 64.6209149,6.39006956 64.3557932,6.39006956 C63.7333289,6.39006956 63.4220984,5.90394842 63.4220984,4.93171788 C63.4220984,4.25743067 63.595004,3.73212099 63.9408179,3.35576535 C64.2558902,3.01601387 64.6651015,2.84612639 65.1684536,2.84612639 C65.8523916,2.84612639 66.3442139,3.1231715 66.6439223,3.67722649 C66.8859869,3.1231715 67.3470703,2.84612639 68.0271742,2.84612639 C68.4882524,2.84612639 68.8494344,3.04345525 69.1107211,3.43808948 C69.3719957,3.83273545 69.502636,4.35152545 69.5026429,4.99444774 C69.502636,5.75236301 69.254803,6.31427686 68.7591449,6.68016577 C68.3633752,6.96765412 67.861947,7.11140417 67.2548586,7.11139242 L65.9465324,7.11139242 C64.7361853,7.11140417 64.131013,7.35445299 64.1310147,7.84057413 C64.131013,8.19078058 64.3346584,8.41032333 64.741951,8.49917888 C64.853377,8.52008883 65.1646083,8.53054381 65.6756459,8.53054381 C66.7476621,8.53054381 67.5622429,8.37373091 68.119391,8.06010513 C68.9070696,7.62103138 69.4469212,6.82391582 69.7389477,5.66873495 C69.8465267,4.82195238 70.0991626,4.13982981 70.4968545,3.62234374 C70.8945317,3.10486942 71.4046047,2.84612639 72.0270768,2.84612639 C72.7494322,2.84612639 73.3046529,3.13362648 73.6927424,3.70859142 C74.053914,3.13362648 74.620662,2.84612639 75.3929896,2.84612639 C75.8002675,2.84612639 76.1268687,2.98464895 76.3727933,3.26168231 C76.6379028,2.98464895 77.0509568,2.84612639 77.6119563,2.84612639 C78.2651432,2.84612639 78.8059568,3.15844824 79.2343954,3.78308019 C79.6627995,4.40771214 79.8770318,5.16432348 79.8770318,6.05292595 L79.8770318,6.05292595 Z M77.2776705,6.52335288 C77.2776705,5.67658206 76.9760304,4.88990973 76.3727933,4.16334763 C75.7426323,4.76968925 75.4275712,5.55634984 75.4275712,6.52335288 C75.4275712,6.99379156 75.4986395,7.39888076 75.6408225,7.73864399 C75.8060307,8.16726276 76.0500209,8.38156627 76.3727933,8.38156627 C76.6686418,8.38156627 76.8991834,8.16203527 77.0644192,7.72296152 C77.2065721,7.36230009 77.2776705,6.96242663 77.2776705,6.52335288 Z M71.9290968,7.22900502 C71.9290968,6.90493601 71.8628039,6.63313013 71.7302543,6.41358738 C71.597684,6.19405638 71.4161319,6.08427913 71.1855988,6.08427913 C70.9512067,6.08427913 70.7629303,6.19141327 70.6207714,6.40574028 C70.4785961,6.62005554 70.4075201,6.88925355 70.4075201,7.21332256 C70.4075201,7.53217583 70.478597,7.80398171 70.6207714,8.0287402 C70.7629303,8.25351044 70.947364,8.36588381 71.1740716,8.36588381 C71.4046047,8.36588381 71.5880781,8.2561653 71.7244911,8.03658731 C71.860886,7.81704456 71.9290968,7.5478583 71.9290968,7.22900502 Z M64.8168766,5.07284831 C64.8168766,4.88990973 64.77269,4.73440077 64.684315,4.60633319 C64.5959391,4.47827735 64.4864318,4.41424356 64.3557932,4.41424356 C64.2213085,4.41424356 64.110841,4.47568123 64.0243891,4.59849783 C63.9379345,4.72133792 63.894709,4.87422726 63.894709,5.05716585 C63.894709,5.4962396 64.048402,5.7157706 64.3557932,5.7157706 C64.6631801,5.7157706 64.8168766,5.50146709 64.8168766,5.07284831 L64.8168766,5.07284831 Z M83.9749136,5.89611306 C83.9749136,6.82652369 83.8442707,7.57399574 83.5829935,8.1385057 C83.2679186,8.80234969 82.8087557,9.13426581 82.2055048,9.13426581 C81.717526,9.13426581 81.3352084,8.94348012 81.0585604,8.56189699 C80.7588563,8.13328996 80.6089999,7.52172086 80.6089999,6.72721317 L81.2487521,6.72721317 C81.2487521,7.14537696 81.3371254,7.51518943 81.5138806,7.83665058 C81.6906272,8.15811172 81.9211715,8.31884816 82.2055048,8.31884816 C82.9432327,8.31884816 83.3121053,7.51126588 83.3121053,5.89611306 C83.3121053,4.38549825 82.9624461,3.63019085 82.2631366,3.63019085 C81.9403763,3.63019085 81.6887015,3.7778527 81.5081123,4.0731764 C81.327523,4.36851185 81.237224,4.73047722 81.2372327,5.15909599 L80.5974719,5.15909599 C80.6052436,4.49526375 80.7473282,3.95427161 81.0239762,3.53609607 C81.3121522,3.07612411 81.7136834,2.84612639 82.228561,2.84612639 C82.8164411,2.84612639 83.2640759,3.15452468 83.5714654,3.77132128 C83.840428,4.32016053 83.9749136,5.02842054 83.9749136,5.89611306 L83.9749136,5.89611306 Z M91.5021091,5.91179552 C91.5021091,6.60699269 91.3906711,7.23162464 91.1678208,7.78569138 C90.9257484,8.39724874 90.5722553,8.85200495 90.1073327,9.14994827 L89.8018602,8.49917888 C90.5088552,8.02351271 90.8623483,7.14537696 90.862357,5.86474813 C90.8623483,5.23228082 90.7288299,4.70173191 90.461793,4.27311314 C90.1947388,3.84449436 89.8325931,3.63019085 89.3753645,3.63019085 C89.0987079,3.63019085 88.8796917,3.76870166 88.7183159,4.04573503 C88.5569315,4.3227684 88.4762436,4.65469626 88.4762436,5.04148339 L88.4762436,8.99313538 L87.8076755,8.99313538 L87.8076755,5.04148339 C87.8076755,4.65469626 87.7106497,4.32538801 87.5166153,4.05357039 C87.3225723,3.78177625 87.0795414,3.64587331 86.7875313,3.64586157 C86.3494989,3.64587331 85.9921544,3.88108678 85.7155065,4.35151371 C85.4734341,4.7905992 85.3524023,5.31590888 85.3524023,5.92746624 C85.3524023,7.20286758 85.7212662,8.07056011 86.4590027,8.53054381 L86.0958985,9.14994827 C85.6386613,8.85200495 85.2832424,8.40247622 85.029642,7.8013621 C84.802949,7.25775033 84.6895939,6.64880085 84.6895939,5.97451363 C84.6895939,5.10683286 84.8778686,4.37766289 85.2544266,3.78699199 C85.6501893,3.14930894 86.166984,2.83044392 86.8048191,2.83044392 C87.4157554,2.83044392 87.8595475,3.11794402 88.1361955,3.69290896 C88.4128434,3.11794402 88.8451075,2.83044392 89.4329963,2.83044392 C90.055452,2.83044392 90.5626442,3.13885397 90.954573,3.75563881 C91.3195942,4.34629797 91.5021091,5.06501295 91.5021091,5.91179552 L91.5021091,5.91179552 Z M95.8535914,7.56614863 C95.8535914,8.07839546 95.6960496,8.48349641 95.3809747,8.78143974 C95.0966414,9.04279064 94.7585104,9.17346609 94.3665903,9.17346609 C93.6788088,9.17346609 93.1428007,8.8729149 92.758566,8.27180077 C92.3896934,7.70205157 92.2052614,6.94674417 92.2052614,6.00587856 C92.2052614,5.07546793 92.3896934,4.32016053 92.758566,3.73995635 C93.150486,3.1231715 93.6864942,2.81476146 94.3665903,2.81476146 C94.7585104,2.81476146 95.0966414,2.94805653 95.3809747,3.21463492 C95.6960496,3.52303322 95.8535914,3.93858915 95.8535914,4.46129096 C95.8535914,4.83763485 95.7623253,5.13818604 95.579819,5.36295628 C95.397304,5.58771476 95.1696439,5.70009988 94.8968387,5.70009988 C94.6201821,5.70009988 94.3877208,5.58767952 94.1994461,5.36295628 C94.0111714,5.13818604 93.9170298,4.84548195 93.9170384,4.48480878 C93.9170298,4.19209295 94.0073288,3.91245171 94.1879267,3.64586157 L94.1648705,3.63023784 C93.7460516,3.64081029 93.4194486,3.90727121 93.1850616,4.42997302 C92.9891016,4.87950174 92.8911259,5.40482317 92.8911259,6.00592555 C92.8911259,6.61749465 92.9891016,7.14280433 93.1850616,7.58187808 C93.4194486,8.10457989 93.7460516,8.37115829 94.1648705,8.38161326 L94.1879267,8.36587206 C94.0073288,8.09929367 93.9170298,7.8222603 93.9170384,7.53477196 C93.9170298,7.16888304 94.0111714,6.87616721 94.1994461,6.65663621 C94.3877208,6.43709346 94.6201821,6.32732796 94.8968387,6.32732796 C95.1696439,6.32732796 95.397304,6.43974832 95.579819,6.66447156 C95.7623253,6.8892418 95.8535914,7.18979299 95.8535914,7.56613688 L95.8535914,7.56614863 Z M95.2484148,4.44560849 C95.2484148,4.12675522 95.131217,3.96733446 94.8968387,3.96733446 C94.658609,3.96733446 94.5394942,4.12675522 94.5395028,4.44560849 C94.5394942,4.75923428 94.658609,4.91604717 94.8968387,4.91603542 C95.131217,4.91604717 95.2484148,4.75923428 95.2484148,4.44560849 Z M95.2484148,7.56614863 C95.2484148,7.23162464 95.131217,7.06435677 94.8968387,7.06435677 C94.6662944,7.06435677 94.5510222,7.23162464 94.5510222,7.56614863 C94.5510222,7.89545688 94.6662944,8.06010513 94.8968387,8.06010513 C95.131217,8.06010513 95.2484148,7.89545688 95.2484148,7.56614863 Z M103.328915,7.14275735 C103.328915,7.75432645 103.213634,8.24175153 102.983098,8.60502083 C102.752554,8.96830187 102.420192,9.14994827 101.98601,9.14994827 C101.805413,9.14994827 101.644028,9.11329712 101.501866,9.04011229 L101.501866,8.22469464 C101.628657,8.3292444 101.7593,8.38150754 101.893794,8.38150754 C102.420192,8.38150754 102.683386,7.97641833 102.683394,7.16621643 C102.683386,6.4762585 102.372162,6.13126779 101.749698,6.13126779 L101.398122,6.13126779 L101.398122,6.40568154 C101.398122,8.23514962 100.869799,9.14994827 99.8131535,9.14994827 C99.1676244,9.14994827 98.7430457,8.85194621 98.5394089,8.25605957 C98.3972379,8.85194621 98.0667923,9.14994827 97.548072,9.14994827 C97.1369384,9.14994827 96.8218635,8.94864887 96.602856,8.54616753 C96.4068873,8.18026687 96.3089116,7.73074989 96.3089116,7.19758136 C96.3089116,6.63829888 96.4481984,6.18746622 96.726772,5.84508338 C97.005337,5.50272403 97.3463522,5.33153261 97.7498004,5.33153261 L98.1993522,5.33153261 L98.1993522,5.05710711 C98.1993522,4.4246398 98.3501671,3.89540657 98.6517969,3.46939567 C98.953418,3.04339651 99.352065,2.83038519 99.8477291,2.83038519 C100.304966,2.83038519 100.677673,3.04601613 100.965858,3.47723103 C101.254034,3.90846942 101.398122,4.43509478 101.398122,5.05710711 L101.398122,5.33153261 L101.841922,5.33153261 C102.260733,5.33153261 102.608466,5.4804984 102.885123,5.77844172 C103.180976,6.11297746 103.328915,6.56773367 103.328915,7.14269861 L103.328915,7.14275735 Z M100.746841,5.33159135 L100.746841,5.08853078 C100.746841,4.69650442 100.656542,4.35543726 100.475962,4.06534105 C100.295364,3.77524483 100.062903,3.63019085 99.7785693,3.63019085 C99.4942273,3.63019085 99.2636917,3.7778527 99.0869451,4.0731764 C98.9101899,4.36851185 98.8218166,4.71741437 98.8218166,5.1198957 L98.8218166,5.33159135 L100.746841,5.33159135 Z M100.746841,6.35870463 L100.746841,6.13132653 L98.8218166,6.13132653 L98.8218166,6.3743871 C98.8218166,7.72296152 99.1445768,8.39724874 99.7900974,8.39724874 C100.427924,8.39724874 100.746841,7.71773403 100.746841,6.35870463 Z M98.2339364,7.35445299 L98.199309,6.39006956 L98.199309,6.13132653 L97.8880768,6.13132653 C97.2195088,6.13132653 96.8852205,6.48154473 96.8852205,7.18195763 C96.8852205,7.49035593 96.9409179,7.75693432 97.0523646,7.98170456 C97.1791648,8.24828295 97.3597541,8.38156627 97.5941411,8.38156627 C97.7824158,8.38156627 97.9399489,8.27701651 98.0667491,8.06794049 C98.1935493,7.85886446 98.249264,7.62103138 98.2338933,7.35445299 L98.2339364,7.35445299 Z M107.421037,5.89611306 C107.421037,6.82652369 107.290394,7.57399574 107.029117,8.1385057 C106.714033,8.80234969 106.25487,9.13426581 105.651628,9.13426581 C105.163641,9.13426581 104.781332,8.94348012 104.504675,8.56189699 C104.204971,8.13328996 104.055123,7.52172086 104.055123,6.72721317 L104.694876,6.72721317 C104.694876,7.14537696 104.783249,7.51518943 104.959995,7.83665058 C105.136751,8.15811172 105.367286,8.31884816 105.651628,8.31884816 C106.389356,8.31884816 106.75822,7.51126588 106.758229,5.89611306 C106.75822,4.38549825 106.40857,3.63019085 105.70926,3.63019085 C105.3865,3.63019085 105.134825,3.7778527 104.954236,4.0731764 C104.773646,4.36851185 104.683347,4.73047722 104.683347,5.15909599 L104.043595,5.15909599 C104.051367,4.49526375 104.193443,3.95427161 104.4701,3.53609607 C104.758276,3.07612411 105.159798,2.84612639 105.674676,2.84612639 C106.262556,2.84612639 106.710191,3.15452468 107.017589,3.77132128 C107.286551,4.32016053 107.421037,5.02842054 107.421037,5.89611306 L107.421037,5.89611306 Z M115.605273,6.49198795 C115.605273,7.1976401 115.451565,7.80658958 115.144184,8.31884816 C114.806053,8.86245993 114.369938,9.13426581 113.835855,9.13426581 C113.355562,9.13426581 112.979004,8.88859737 112.706207,8.39724874 C112.452607,7.94772001 112.325806,7.3910454 112.325806,6.72721317 C112.325806,6.0738359 112.491025,5.51714955 112.821471,5.05716585 C113.151916,4.5971939 113.549596,4.36720792 114.014527,4.36719617 C114.195117,4.36720792 114.364178,4.39327488 114.52172,4.44554976 C114.183589,3.90193799 113.7225,3.63013211 113.138471,3.63013211 C112.754228,3.63013211 112.430509,3.82222174 112.167315,4.20641274 C111.904103,4.59060374 111.772502,5.04666388 111.772511,5.57458143 L111.772511,6.84475529 C111.772502,7.50859927 111.63034,8.04698355 111.346006,8.45991986 C111.038617,8.90943683 110.617872,9.13426581 110.08379,9.13426581 C109.476696,9.13426581 108.992551,8.82058129 108.631373,8.19334146 C108.300927,7.60268231 108.135709,6.88396732 108.135709,6.03718475 C108.135709,4.51611497 108.575658,3.43411894 109.455566,2.7911849 L109.789845,3.44978965 C109.121277,3.96727572 108.786989,4.78792085 108.786989,5.91173679 C108.786989,6.50761168 108.896493,7.0381606 109.115509,7.50337179 C109.357581,8.04698355 109.688027,8.31878943 110.106846,8.31878943 C110.506443,8.31878943 110.781174,8.11492914 110.93103,7.70722032 C111.034774,7.43018695 111.086646,7.00156818 111.086646,6.421364 L111.086646,5.36289754 C111.086646,4.6572454 111.281639,4.05875089 111.671651,3.56740226 C112.061645,3.07606538 112.512155,2.83039694 113.023199,2.83038519 C113.8493,2.83039694 114.494821,3.18322301 114.959752,3.8888634 C115.39009,4.55270739 115.605273,5.42038816 115.605273,6.49192922 L115.605273,6.49198795 Z M114.936696,6.75856635 C114.967437,6.15223648 114.927111,5.69225278 114.815664,5.37862699 C114.696541,5.27407723 114.444866,5.22182585 114.06064,5.22182585 C113.760927,5.22182585 113.505409,5.36295628 113.294087,5.64520538 C113.082748,5.92747799 112.977087,6.26722947 112.977087,6.66448331 C112.977087,7.7673893 113.278708,8.31884816 113.881967,8.31884816 C114.197034,8.31884816 114.448708,8.15941565 114.636992,7.84057413 C114.809896,7.5478583 114.909797,7.18718512 114.936696,6.75856635 Z M119.000002,7.22900502 C119.000002,7.75170683 118.861674,8.19993162 118.585026,8.57366765 C118.308378,8.94739192 117.977932,9.13426581 117.593697,9.13426581 C117.209463,9.13426581 116.879017,8.94739192 116.602369,8.57366765 C116.325713,8.19993162 116.187393,7.75170683 116.187393,7.22900502 C116.187393,6.70107573 116.325713,6.25024307 116.602369,5.87650704 C116.879017,5.50278277 117.209463,5.31590888 117.593697,5.31590888 C117.977932,5.31590888 118.308378,5.50278277 118.585026,5.87650704 C118.861674,6.25024307 119.000002,6.70107573 119.000002,7.22900502 Z M118.406354,7.22900502 C118.406354,6.91537924 118.3257,6.65142046 118.16429,6.4371052 C118.002905,6.22280169 117.812714,6.11564406 117.593697,6.11564406 C117.366996,6.11564406 117.174879,6.2227782 117.017345,6.4371052 C116.859804,6.65142046 116.781033,6.91537924 116.781033,7.22900502 C116.781033,7.53740332 116.859786,7.79875422 117.017345,8.01305774 C117.174879,8.227373 117.366996,8.33453063 117.593697,8.33453063 C117.812714,8.33453063 118.002905,8.22739649 118.16429,8.01305774 C118.325666,7.79875422 118.406354,7.53740332 118.406354,7.22900502 Z" id="Combined-Shape" fill="#000000" fill-rule="nonzero"></path>
    </g>
</svg>