<svg xmlns="http://www.w3.org/2000/svg" viewBox="0 0 682.3 534.3"><style>.st0{fill:#f0bc00}.st1{fill:#e9e7c4}.st2{fill:#ee8019}.st4{fill:none}.st5{fill:#dc0c18}.st6{fill:#f7b821}.st8{fill:#008b3f}</style><path d="M91.55-.05s-91.6 0-91.6 91.3v351.8s0 91.3 91.6 91.3h499.2s91.6 0 91.6-91.3V91.25s0-91.3-91.6-91.3z" class="st0"/><path d="M625.7 221.4c-3.1-2-5.1 3.2-2.7 5.2 12.3 10.1 20.5 25.7 15.5 41.8-1.7 5.5-4.6 10.5-8.6 14.6-3.4-9.6-11.9-17-23.3-13.9-14.9 4.1-14.8 27.1.7 30.2 6.1 1.2 12-.2 17.3-3.1-3.9 13.9-21.4 25.9-34.9 21.3-3.9-1.3-4 5.2-.7 6.4 16.7 6.2 37.1-9 41.6-25 .7-2.5 1-5.1.9-7.6 5.8-5.2 10.1-11.7 12.6-19 6.2-18.7-1.9-40.5-18.4-50.9zm-21.6 69.2c-6.1-5.1-.3-14.1 6.2-15 7.7-1 13.5 4.6 14.9 11.5-5.6 4-15.3 8.4-21.1 3.5zm14.1-235c-3.3-2.4-7.1-4-11.1-4.8-3.4-5.6-7.8-10.4-13.2-14.1-16.6-11.4-40.9-8.8-54.7 5.8-2.3 2.4.5 7.8 3.5 5.3 12.3-9.9 29.1-15.1 44-7.7 5 2.4 9.4 6 12.8 10.4-2.4.3-4.7.9-6.8 2-6.8 3.4-10.9 10.4-10.8 18 .5 14.6 21.4 22.7 28.5 7.9 2.9-6.2 2.7-12.9.6-19.4 13.1 5.7 22.6 24.8 15.4 37.2-1.8 3.1 2.5 7.9 4.7 4.4 9.1-14.5.2-35.7-12.9-45zm-14.9 21.3c-4.9 5.2-14.4 1.5-15.1-5.4-.9-8.7 7.7-14.3 15.4-14.2 2.7 6.2 4.3 14.6-.3 19.6zm-482 179.3c-14.9 5.8-32.4 5.5-44.4-6.2-4-4-7.1-8.8-8.8-14.2 8.8 2 18.1-.7 22.4-10.7 6.2-14.4-12.1-31.4-24.2-18.6-4.7 5-6.5 11.7-6.3 18.5-10.7-9.2-13.7-30.7-3-40.4 2.7-2.4-.7-8.1-3.7-5.5-12.9 10.9-10.8 33.3-1.7 46 2.5 3.4 5.7 6.2 9.4 8.2 1.5 6.6 4.5 12.8 8.7 18.2 12.6 15.6 36.2 20.7 53.9 10.9 3-1.8 1.2-7.5-2.3-6.2zM73 210c8.6-4.7 15.5 6.3 10.7 13.5-3.9 5.8-10.9 7.2-17.1 5.2-.7-6.6.4-15.3 6.4-18.7zm386-33.5c.1-1.2.1-2.3 0-3.5-.3-1.7-.9-3.4-1.3-5-.9-3.9-1.6-7.9-.6-11.9.9-3.6 1.8-7.2 3-10.7.9-2.8 1.3-5.7 1.2-8.6 0-5.4-2.4-9.3-7.3-11.4-6-2.5-12.2-3.6-18.6-1.3-2.7.9-5.4 1.7-8.2 2.3-5.9 1.3-11.6.8-16.7-2.9-1.6-1.1-3.2-2-4.9-2.9-4.8-2.5-10.4-3-15.6-1.3-5.5 1.6-11.1 3.1-16.5 4.8-5 1.7-10.3 2.5-15.5 2.7-.6 0-1.2.1-1.9.2l.5 5.2c.5-.2.9-.4 1.4-.6 1.3-.4 2.7-.6 4.1-.7 1.8 0 2.8 1 3.4 3-.7 1-1.9 1.5-3.1 1.5-2.1.3-4.1 1-5.9 2.2-1.2.7-2.3 1.3-3.5 1.9-2.7 1.5-6 1.3-8.5-.7-.4-.3-.9-.6-1.4-1-1.8-1.5-4.3-1.8-6.5-.9l-4.4 1.7c-.6.3-1.2.5-1.8.6-.4 0-.9-.3-1.1-.7-.1-.4 0-.8.2-1.1.4-.5 1-1 1.6-1.4 2.5-1.4 5.1-2.7 8-4.2.1-2 .2-4.5.4-7.2-3.9-.6-7.5-1.4-11.1-.6-3.4.7-6.7 1.8-10 2.8s-6.6 1.6-10 .5c-3-1-5.9-2.2-8.8-3.4-3.9-1.6-7.7-3.3-11.9-3.8-5.2-.6-10.2-.6-14.8 2.4-2.8 1.8-5.6 3.5-8.4 5.3-2.3 1.7-4.9 2.8-7.7 3.4-3.9.6-7.9.4-11.7-.7-1.6-.5-3.2-.8-4.8-1.1-2.2-.6-4.6.4-5.8 2.4-1.3 2-2.8 4.2-3.1 6.5-1.1 5.5-1.4 11.1-1 16.7.7 7.1.3 14.1-2.5 20.9-1.2 3-2.2 6.1-3.1 9.2-.7 1.9-.8 4-.1 6 .5 1.6 2 2.8 3.6 2.8 1.6.3 3.2-.6 3.8-2.1.7-1.5 1.4-3 1.9-4.6 2.1-6.7 4.1-13.4 6.1-20.1.6-2 1.4-4 2.4-5.9 4.8-8.6 11.8-11.7 21.3-10.7 5.7.6 10.7 2.9 15.5 5.9 1.8 1.1 3.7 2 5.7 2.7 5.3 1.6 10.4.6 15.3-2 2-1 3.9-2 5.8-3.2 3.2-1.8 6.7-2.9 10.3-3.2 4.5-.5 8.6.2 12.2 3.2 1.6 1.4 3.5 2.4 5.2 3.7 3.2 2.3 6.9 3.6 10.8 3.7 5.6.3 11.2.5 16.5-1.8 2-.9 4-1.8 6-2.8 2.3-1.2 4.5-2.6 6.7-3.9 3.1-1.8 6.5-3 10-3.5 6.1-.9 11.4.4 15.6 5.2 1.3 1.4 2.8 2.8 4.3 4 5.1 4.3 10.7 4.2 16.3 1.4 3.4-1.7 6.5-3.8 9.8-5.7 2.1-1.2 4.2-2.5 6.4-3.6 2.3-1.4 5.2-1.3 7.4.2 1 .6 2 1.3 2.9 2.1 4.1 3.7 5.9 9.5 4.5 14.9-.3 1.5-.7 3.1-1 4.6-.3 1.2.3 2.4 1.4 3 2.5 1.4 5.1 1.8 7.6 1.1zm51.6 101.7c-1.3-3.1-2.6-6.3-4.1-9.3-3-5.7-5.5-11.7-7.3-17.9-1.1-4-1.3-8.3-.4-12.4 1.3-6.1 2.5-12.2 3.7-18.3.2-1.2.3-2.5.2-3.8-.2-4.7-4.2-8.3-8.8-8.1-.4 0-.9.1-1.3.2l-1.3 3.2c-.4 1.1-.9 2.2-1.4 3.6 2-.4 3.6-1.2 5.2-.1 0 2.1-1.3 3.3-3.1 4-2.9 1.1-6.2.9-8.9-.6-2.4-1.5-5.3-2.1-8.1-1.6-.4.1-.8-.2-1.2-.3 0-.2 0-.3-.1-.5.8-.5 1.7-.9 2.7-1.1 1.2-.1 2.2-1 2.3-2.3.1-.8.4-1.6.8-2.7-2.7.7-5.1 1.2-7.4 1.8-3 .8-6.1 1-9.1.5-5.3-1-10.1-4-13.1-8.6-.7-1.3-2.2-1.9-3.6-1.5-.7.1-1.4.2-2.1.4-2.8 1-5.6 2.1-8.3 3.4-7.6 3.9-15.5 4.4-23.7 2.9-6.8-1.2-13.7-1.3-20.5-.4-8.2 1.1-16.5 1.7-24.7 1.8-8.7.1-17.3-1.3-25.5-4.1-8.4-2.7-17.3-3.8-26.1-3.3-3.6.1-7.2.8-10.7 1.9-7.6 2.3-15 5.1-23.1 5.7-5 .3-9.9.8-14.8-.7-3.4-1.1-7-1.3-10.5-.6-3.6.8-7.2 1.8-10.7 3-9.3 3.7-19.3 5-29.2 3.9h-2.5c1.1 1.8 2 3.3 2.9 4.6 5.3-.1 14 3.1 15.9 5.9-1.3 1.5-3.5 2.1-5.4 1.4-1.3-.4-2.6-.8-3.8-1.3-1.1-.4-2.2-.9-3.3-1.2-2.2-.6-3.2-.3-4.3 1.7s-3.1 3.3-5.3 3.4c-.6.1-1.3 0-1.9.1-2.3.3-4.5.6-6.8 1-1.7.3-3.3 1.3-4.1 2.9-.6.8-1.2 1.5-1.9 2.2-.3-.6-.4-1.3-.5-1.9.2-2.3 1.6-4.4 3.6-5.5.8-.4 1.5-.8 2.4-1.3-1.9-3.9-3.8-7.8-5.8-11.9-2.2.7-4.2 1.3-6.1 2-1.4.4-2.6 1.1-3.8 1.9-3.9 3.2-7.5 6.8-10.6 10.8-.6.6-1 1.3-1.2 2-.7 4.3-1.9 8.7.3 12.9.6 1.3 1.1 2.6 1.7 3.9 2.9 6.1.7 11.8-1.3 17.5-.2.5-.6 1-.9 1.4-2 2.8-4.5 5.3-7.2 7.4-2.5 1.8-4.5 4.2-6 6.9-1.6 3.1-1.1 5.5 1.4 7.9 1.6 1.5 3.7 2.5 5.9 2.8 3.9.5 7.1-1 9.9-3.5 3.4-3.1 6.4-6.6 8.9-10.4 1.6-2.5 2.7-5.4 3-8.4.4-3.4.8-6.9 1.3-10.3 1-7.3 5-12.6 11.2-16.4 2.7-1.7 6.1-1.9 9.1-.5 2.4 1 4.6 2.5 6.4 4.3 1.8 1.7 3.3 1.8 5.3.4.8-.6 1.5-1.3 2.2-2.1 1.1-1.2 2.1-2.6 3.2-3.8 6.2-6.9 15.2-9.9 24.3-5.1 3.1 1.6 6.4 3 9.8 4 3.1.9 6.2 1.6 9.4 2.1 4.6.8 9.1-.4 13.5-1.6 3.6-1.1 7.5-1.3 11.2-.7 4.6.6 8.7 3.2 11.1 7.2 3.1 4.9 3.8 10.9 1.8 16.4-.7 1.9-1.5 3.8-2.1 5.8-1 3.1-.7 4.1 1.8 6.2.4.4.9.7 1.2 1.1 2 1.7 3.2 4.2 3.2 6.9 0 1.7-.2 3.5-.3 5.2-.1 1.1-.4 2.2-.5 3.3-.1 1.8.8 3 2.8 3.5s2.9.1 3.9-1.7c1.1-2 1.5-4.4 1.1-6.6-.5-2.9-1.1-5.7-1.9-8.5-1.6-5.6-.9-10.7 2.7-15.4 4-5.3 5.7-11.9 4.8-18.5-.6-3.5 1-7.1 4.1-9 4.6-3.4 10.5-4.4 16-2.7 4.8 1.5 9.9 2.2 14.9 2.2 2.4 0 4.9-.4 7.2-1.1 4.7-1.7 9.1-4 13.2-6.8 3.8-2.4 8-4.1 12.4-5.2 5.3-1.4 10.8-1.6 16.2-.7 4 .8 7.9 2.2 11.5 4.1 7.6 3.6 15.4 4.9 23.6 2.4 5.4-1.5 10.6-3.5 15.7-5.8 2.8-1.4 5.8-2.5 8.8-3.4 10.2-2.5 17.1 2.8 19.3 11.2 1.2 4.7.3 9.6-2.3 13.6-1.5 2.5-2.4 5.3-2.9 8.2-.9 4.7.2 8.8 3.9 11.9 1.3 1.1 2.6 2.1 4 3 6.2 3.7 10.4 10 11.3 17.2.3 2.2.6 4.4.9 6.5.2 1.6.5 3.1 1.8 4.2s1.8 1.1 2.8 0c.9-.9 1.6-2 2-3.1 1.6-5.2 2.1-10.2.1-15.2z" class="st1"/><path d="m179 153-9.7 6.8 35.3 68.4 7.5.6 4.1-6.1zm176.6-63.8-6.2-8-8 10.2.4 42.5 7.5 3.4 5.8-2z" class="st2"/><path d="m195.302 84.624 7.324-9.252 25.716 20.36-7.325 9.25zm36.775-26.027 11.324-3.316 10.51 35.893-11.325 3.316zm33.141 33.993 9.852-29.498 11.193 3.739-9.853 29.498zM401.88 63.83l11.38-3.12 7.06 25.75-11.38 3.12zm31.473 29.423 7.138-38.85 11.507 2.115-7.138 38.849zm18.167 6.869 24.628-17.65 6.873 9.591-24.627 17.65zm112.859 283.384 11.119-26.134 10.858 4.62-11.119 26.134zm30.281 12.206 16.646-21.13 9.27 7.302-16.646 21.13zm20.036 21.27 22.791-5.304 2.675 11.493-22.792 5.304zm.546 40.844 5.937-10.198 23.334 13.587-5.937 10.197zm-26.843 19.36 9.86-6.482 14.282 21.725-9.86 6.482zM82.386 366.68l9.859-6.483 15.606 23.728-9.86 6.484zm-30.048 25.537 7.818-8.84 20.15 17.822-7.817 8.839zM40.47 436.44l.581-11.786 23.372 1.151-.58 11.786zm2.412 38.033 20.533-17.53 7.662 8.973-20.533 17.531zM79.91 499.65l10.176-23.926 10.859 4.619-10.177 23.926z" style="fill:#010101"/><path d="M538.8 374.1c2.3-3.8 2.2-5.9-.5-9.5-3-3.7-4.7-8.3-4.9-13 0-2.4.3-4.9.8-7.3.7-3.3-.1-6.7-2.3-9.3-.9-1.2-1.8-2.4-2.8-3.5-1.6-2-3.8-3.4-6.3-3.9-3.7-.8-7.4-1.4-11.1-1.9-2.4-.3-4.9-.4-6.8-2.2-.9-.9-2.2-1.2-3.4-.8-3.4 1.1-7 1.9-10.5 2.5-11.3 1.4-22.7-.6-32.7-5.9-3-1.6-6.1-3-9.3-4.1-4.8-1.7-10-1.1-14.3 1.5-2.1 1.3-4.2 2.8-6.2 4.3-2.6 2.1-5.7 3.5-9 4-6 .7-12 .7-17.7-1.6-5.5-2.2-11.6-2.2-17.1 0-4 1.4-7.8 3.3-11.7 5.1-1.7.8-3.3 1.8-5 2.6-3.8 2-7.9 3.2-12.2 3.5-3.9.3-7.9.2-11.8.4-7.1.3-13.3-2.1-18.9-6.3-2.2-1.7-4.5-3.3-6.8-4.7-4-2.4-8.5-3.9-13.2-4.1-5.2-.3-10.4.9-15 3.4-3.8 2-7.5 4.1-11.3 5.8-9.4 4.2-19 4.7-28.6.5-3.6-1.5-7.2-3.1-10.9-4.4-5-1.8-10.6-1.6-15.5.4-1.7.7-3.3 1.5-5 2.1-6.4 2.2-12.4 2-17.9-2.9-3.1-2.8-6.5-5.2-9.8-7.8-2.5-2-5.6-3-8.8-2.7-1-.1-1.9-.2-2.8-.6l-.4-.6c-2.6 1.4-5.2 2.6-7.6 4.2-2.8 1.7-5.4 3.6-8.1 5.4-3.5 2.3-7.2 3.5-11.4 2.5-1.4-.3-2.8-.4-4.2-.6-2.4-.4-5 .3-6.9 1.9-5.6 4.3-9 9.8-9.2 17-.2 6.5 1.4 12.6 3.5 18.7 1.1 3 2.3 6 3.2 9.1 1.5 4.8 1.8 9.8.7 14.7-1.4 6.4-3.3 12.6-5.8 18.7-1.3 3-2.1 6.1-2.3 9.4-.1.7-.1 1.4 0 2.1.4 3.1 2.9 4.6 5.8 3.7 2.3-.8 4.3-2.4 5.8-4.4 6.8-8.3 11.2-17.6 11.3-28.6.1-9.6 3-18.4 7.6-26.8 2.5-4.4 5.9-8.2 10.2-11 6.5-4.3 13.1-4.6 19.7-.4 3.7 2.2 7.6 3.9 11.7 5 4.7 1.5 9.4 1.2 13.7-1.4 3-1.8 6-3.7 9-5.7 2.6-1.9 5.6-3.2 8.8-3.9 4.3-.7 8.4-.4 11.7 2.8 2.6 2.4 4.4 5.6 5.1 9.1.8 4.3.6 8.7-.6 12.9-1.3 4.6-1 5.3 3.2 7.4.9.4 1.7.8 2.5 1.3 1.2.8 2.3 1.6 3.4 2.6 2.6 2.3 3.6 6 2.5 9.3-.3 1.1-.6 2.1-.9 3.2-.3.6 0 1.4.6 1.8.1 0 .2.1.3.1 1.3.4 2.6.6 3.9.6 2-.2 4-.6 6-1.2 2.2-.7 2.7-1.8 2-4-.4-1.3-1-2.5-1.3-3.8-1.4-4.8-.1-8.7 3.9-11.7 1.8-1.3 3.9-2.1 6.2-2.1 2.1 0 4-1.5 4.3-3.6.3-1.3.4-2.7.4-4 .1-2.7-.1-5.4.1-8 .2-3.8 3-6.9 6.6-7.6 4.7-1.1 9.1-.5 13 2.5 1.4 1 2.7 2.2 4 3.4 4.2 4.2 9.4 5 14.9 3.9 4-.7 7.8-2.3 11.2-4.7 3.6-2.4 7.8-3.9 12.1-4.4 2.7-.4 5.4.5 7.3 2.4 2.4 2.2 4.9 4.2 7.6 6 3.4 2.5 7.8 3 11.6 1.2 2.7-1.2 5.4-2.6 8-4.1 2.7-1.8 5.6-3.3 8.6-4.4 5.1-1.7 9.9-1.3 14.4 1.9 1.2.9 2.5 1.6 3.9 2.2 2 .8 3.8.9 5.6-.9 2.2-2.1 4.9-3.5 7.8-4.2 2-.5 4.1-.4 6 .4 7 2.9 11.2 11.3 8.9 18.5-1.2 4.3-1.9 8.8-2.1 13.2-.3 2.8.3 5.5 1.7 8 2.4 4 2.6 9 .3 13.1-1.1 2.2-2 4.5-2.9 6.7-1.5 3.8-1 7.1 2 9.9.2.2.4.5.7.7 1.8 1.9 4.8 2.1 6.8.3 1-.9 1.9-1.9 2.8-2.9 1.5-1.5 2.2-3.7 1.9-5.9s-.8-4.3-1.4-6.4c-1.3-4.1-1-8.5.8-12.5 1.2-2.7 2.6-5.4 3.9-8.1.4-.8.8-1.5 1.1-2.3.7-1.2.3-2.7-.8-3.6-1.8-1.7-3.5-3.4-5.1-5.3-2.2-2.7-3.2-6.3-2.7-9.8.5-5 4.6-9.1 10.1-10.1 2.3-.6 4.8 0 6.6 1.6 1.1.9 2.1 1.9 3.2 2.8 2.2 1.6 4.3 1.2 5.8-1.1 1.1-1.8 2.6-3.2 4.4-4.2 4.5-2.4 9-3 12.7 1 2 2.1 4.6 2.6 7.4 2.1 2.4-.4 4.7-1.2 6.9-2.4 3.6-1.9 7.5-3.1 11.5-3.5 1.6-.1 3.3-.1 4.9.2 3 .3 5.5 2.6 5.9 5.6.7 3.4 1.1 6.8 1.6 10.3.2 2.3.6 4.5 1 6.8 1 3.3 4.5 5.1 7.8 4.1.4-.1.7-.3 1-.4.7-.3 1.2-.7 1.6-1.3z" class="st1"/><path d="m499.07 152.34 7.833 3.618-17.788 62.113-9.591-2.948z" class="st2"/><path d="M534.1 344.3c-.5 2.4-.8 4.8-.8 7.3.1 3 .8 5.9 2.1 8.6-1.3-2.7-2-5.6-2-8.6 0-2.5.2-4.9.7-7.3s.2-5-.9-7.2c1.1 2.2 1.5 4.7.9 7.2zm-395.8 27.1c-.9-3.1-2.2-6.1-3.2-9.1-1.9-5.3-3.4-10.6-3.5-16.3.2 5.6 1.7 11 3.5 16.3 1 3 2.2 6 3.2 9.1 1 3 1.4 6.1 1.4 9.2 0-3.2-.4-6.3-1.4-9.2zm85.1-23.2c-1.5 1-3.1 2-4.6 2.9 1.5-.9 3-1.9 4.6-2.9zm315.8 25.2c1.4-2.5 1.6-4.3.6-6.3 1 2 .8 3.8-.6 6.3zm-8.9-40.3c.2.2.3.4.5.6-.2-.2-.4-.4-.5-.6zm-391.8 55.3c-1.4 5.6-3.1 11.1-5.3 16.5-.3.6-.5 1.3-.7 1.9h.1c.2-.7.5-1.3.7-1.9 2.1-5.5 3.8-11 5.2-16.5zm117.9-12c-.8-.5-1.6-.9-2.5-1.3-4.2-2.1-4.6-2.8-3.2-7.4 1.3-4.2 1.5-8.6.6-12.9-.7-3.5-2.5-6.7-5.1-9.1-3.3-3.2-7.4-3.5-11.7-2.8l-2.4.6c.8-.2 1.5-.4 2.3-.6 4.3-.7 8.4-.4 11.7 2.8 2.6 2.4 4.4 5.6 5.1 9.1.8 4.3.6 8.7-.6 12.9-1.3 4.6-1 5.3 3.2 7.4.9.4 1.7.8 2.6 1.3 1.1.8 2.3 1.6 3.3 2.6 1.6 1.4 2.5 3.3 2.8 5.3h.1c-.3-2-1.2-3.9-2.8-5.3-1.1-1-2.2-1.9-3.4-2.6zM203 353.8c-4.1-1.1-8-2.8-11.7-5-3.6-2.3-7.2-3.3-10.8-3 3.6-.3 7.2.7 10.8 3 3.6 2.2 7.5 3.9 11.7 5 3.5 1.1 7 1.3 10.3.2-3.3 1-6.8.9-10.3-.2zm76.5 17.9c1-.3 2.1-.5 3.2-.6.5 0 1.1-.1 1.6-.3-.5.2-1 .3-1.5.3-1.2.1-2.3.3-3.3.6zM206.7 227c1.3-.1 2.4-.2 3.5-.4 2.3-.4 3.1-2.3 1.9-4.4-2.5-4.2-4.9-8.4-7.3-12.7-4.7-8.2-8.9-16.7-12.8-25.3-3.5-7.7-7.2-15.4-10.8-23.1l-1.5-3-7.5 3.5c.3.6.5 1 .8 1.4 3.2 5.9 6.5 11.7 9.7 17.6 3.1 5.7 6.1 11.4 9.1 17.1 1.6 3.1 3.1 6.2 4.7 9.3 3.3 6.7 6.7 13.3 10.2 20zm140-92c1.5 1.2 3.6 1.2 5-.1.2-11.2.5-22.2.7-33.2 0-1.1.6-2.3.3-3.3-.9-3.4-2-6.8-4.6-9.9-1.5 3.3-3 6.2-4.1 9.3-.5 1.4-.3 3.1-.3 4.7-.1 1.1-.1 2.1-.1 3.1l.1 27.5c1.2.7 2.1 1.2 3 1.9zm143.8 70.9c2.7-9.9 5.4-19.7 8.2-29.5 1.4-5 3.2-9.9 4.8-14.8.1-.5.2-.9.2-1.4l-5.8-3c-4.5 19.4-8.4 39-15.6 57.9l5.4 1.2c1-3.7 1.9-7.1 2.8-10.4zm13.2-74.1c1.1 4.2 5.3 6.1 9.3 4.2 2.4-1 4.3-3 5.3-5.4 2.5-5.6 4.1-11.7 4.7-17.8-.3-2.2-.5-4.5-1-6.7-.6-2.6-2.3-3.8-5-3.6-1.8 0-3.6.8-4.9 2.1-1.4 1.4-2.6 3-3.6 4.6-2.8 5.1-4.6 10.7-5.3 16.5-.1 2.1 0 4.1.5 6.1zm-128 226.6c-.4.1-.7.3-1.1.4.4-.2.7-.3 1.1-.4z" class="st4"/><path d="M189.7 271.3c.4-3.4.8-6.9 1.3-10.3 1-7.3 5-12.6 11.2-16.4 2.7-1.7 6.1-1.9 9.1-.5 2.4 1 4.6 2.5 6.4 4.3 1.8 1.7 3.3 1.8 5.3.4.8-.6 1.5-1.3 2.2-2.1 1.1-1.2 2.1-2.6 3.2-3.8 6.2-6.9 15.2-9.9 24.3-5.1 3.1 1.6 6.4 3 9.8 4 3.1.9 6.2 1.6 9.4 2.1 4.6.8 9.1-.4 13.5-1.7 3.6-1.1 7.5-1.3 11.2-.7 4.6.6 8.7 3.2 11.1 7.2 3.1 4.9 3.8 10.9 1.8 16.4-.7 1.9-1.5 3.8-2.1 5.8-1 3.2-.7 4.1 1.8 6.2.4.4.8.7 1.2 1.1 2 1.7 3.2 4.2 3.2 6.9 0 1.7-.2 3.5-.3 5.2-.1 1.1-.4 2.2-.5 3.3-.2 1.8.9 3 2.8 3.5s2.9.1 3.9-1.7c1.1-2 1.5-4.4 1.1-6.6-.5-2.8-1.1-5.7-1.9-8.5-1.6-5.6-.9-10.7 2.7-15.4 4-5.3 5.7-11.9 4.8-18.5-.6-3.5 1-7.1 4.1-9 4.6-3.4 10.5-4.4 16-2.7 4.8 1.5 9.8 2.2 14.9 2.3 2.4 0 4.9-.4 7.2-1.1 4.7-1.7 9.1-4 13.2-6.8 3.8-2.4 8-4.2 12.4-5.3 5.3-1.4 10.8-1.6 16.2-.7 4 .8 7.9 2.2 11.5 4.1 7.6 3.6 15.4 4.9 23.6 2.5 5.4-1.5 10.6-3.5 15.7-5.8 2.8-1.4 5.8-2.5 8.8-3.4 10.3-2.5 17.1 2.8 19.3 11.2 1.2 4.7.3 9.6-2.3 13.6-1.5 2.5-2.4 5.3-2.9 8.2-.9 4.7.2 8.8 3.9 11.9 1.3 1.1 2.6 2.1 4 3 6.2 3.7 10.4 10 11.3 17.2.3 2.2.6 4.4.9 6.5.2 1.6.6 3.2 1.8 4.2 1.2 1.1 1.8 1.1 2.8 0 .9-.9 1.6-2 2-3.1 1.6-4.9 2.2-10 .2-15-1.3-3.1-2.6-6.3-4.1-9.3-3-5.7-5.5-11.7-7.3-17.9-1.1-4-1.3-8.3-.4-12.4 1.3-6.1 2.5-12.2 3.7-18.3.2-1.2.3-2.5.2-3.8 0-.4-.1-.9-.2-1.3-.9-4.6-5.4-7.5-10-6.6l-1.3 3.2c-.4 1.1-.8 2.2-1.4 3.6 2-.4 3.6-1.2 5.2-.1 0 2.2-1.3 3.4-3.1 4-2.9 1.1-6.2.9-8.9-.6-2.4-1.5-5.3-2.1-8.1-1.6-.4.1-.8-.2-1.2-.3-.1-.2-.1-.3-.1-.5.8-.5 1.7-.9 2.7-1.1 1.2-.1 2.2-1 2.3-2.3.1-.8.4-1.6.8-2.7-2.7.7-5.1 1.2-7.4 1.8-3 .8-6.1 1-9.1.5-5.4-1-10.1-4-13.1-8.5-.7-1.3-2.2-1.9-3.6-1.5-.7.1-1.4.2-2.1.4-2.8 1-5.6 2.1-8.3 3.4-7.6 3.9-15.5 4.4-23.7 2.9-6.8-1.2-13.7-1.3-20.5-.4-8.2 1.1-16.5 1.7-24.7 1.8-8.7.1-17.3-1.3-25.6-4.2-8.4-2.7-17.3-3.8-26.1-3.3-3.6.2-7.2.8-10.7 1.9-7.6 2.3-15.1 5.1-23.1 5.7-5 .3-9.9.8-14.8-.7-3.4-1.1-7-1.3-10.5-.6-3.6.8-7.2 1.8-10.7 3-9.3 3.7-19.3 5-29.2 3.9h-2.5c1.1 1.8 2 3.3 2.9 4.6 5.3-.1 14 3.2 15.9 5.9-1.3 1.5-3.5 2.1-5.4 1.4-1.3-.4-2.6-.8-3.8-1.3-1.1-.4-2.2-.9-3.3-1.2-2.3-.7-3.2-.3-4.3 1.7s-3.1 3.3-5.3 3.4c-.6.1-1.3 0-1.9.1-2.3.3-4.5.6-6.8 1-1.7.3-3.3 1.3-4.1 2.9-.6.8-1.2 1.5-1.9 2.2-.3-.6-.4-1.3-.5-1.9.2-2.3 1.6-4.4 3.6-5.5.8-.4 1.5-.8 2.4-1.3-1.9-3.9-3.8-7.8-5.8-11.9-2.2.7-4.2 1.3-6.1 2-1.4.4-2.6 1.1-3.8 1.9-3.9 3.2-7.5 6.8-10.5 10.8-.6.6-1 1.3-1.2 2-.7 4.3-1.9 8.7.3 12.9.6 1.3 1.1 2.6 1.7 3.9 2.9 6.1.7 11.8-1.3 17.5-.2.5-.6 1-.9 1.4-2 2.8-4.5 5.3-7.2 7.4-2.5 1.8-4.5 4.2-6 6.9-1.6 3.1-1.1 5.5 1.4 7.9 1.6 1.5 3.7 2.5 5.9 2.8 3.9.5 7.1-1 9.9-3.5 3.4-3.1 6.4-6.6 8.9-10.4 1.7-2.7 2.7-5.6 3-8.6zm52.9-110c4.8-8.6 11.8-11.7 21.3-10.7 5.7.6 10.7 2.9 15.5 5.9 1.8 1.1 3.7 2 5.7 2.7 5.3 1.6 10.4.5 15.3-2 2-1 3.9-2.1 5.8-3.2 3.2-1.8 6.7-2.9 10.3-3.2 4.5-.5 8.6.2 12.2 3.2 1.6 1.4 3.5 2.4 5.2 3.7 3.1 2.3 6.9 3.6 10.7 3.8 5.6.3 11.2.5 16.5-1.8 2-.9 4.1-1.8 6-2.8 2.3-1.2 4.5-2.6 6.7-3.9 3.1-1.8 6.5-3 10-3.5 6.1-.9 11.4.4 15.6 5.2 1.3 1.4 2.8 2.8 4.3 4 5.1 4.3 10.7 4.2 16.3 1.4 3.4-1.7 6.5-3.8 9.8-5.7 2.1-1.2 4.2-2.5 6.3-3.7 2.3-1.4 5.2-1.3 7.4.2 1 .6 2 1.3 2.8 2.1 4.1 3.7 5.9 9.5 4.5 14.9-.3 1.5-.7 3.1-1 4.6-.3 1.2.3 2.4 1.4 3 2.2 1.4 4.8 1.7 7.3 1 .1-1.2.1-2.3 0-3.5-.3-1.7-.9-3.3-1.3-5-.9-3.9-1.6-7.9-.6-11.9.9-3.6 1.9-7.2 3-10.7.9-2.8 1.3-5.7 1.2-8.6 0-5.4-2.4-9.3-7.3-11.4-6-2.5-12.2-3.6-18.6-1.3-2.7.9-5.4 1.7-8.2 2.3-5.9 1.3-11.6.8-16.7-2.9-1.6-1.1-3.2-2-4.9-2.9-4.8-2.5-10.4-3-15.6-1.3-5.5 1.6-11.1 3.1-16.5 4.8-5 1.7-10.3 2.5-15.5 2.6-.7 0-1.4.1-2.2.2v5.6c.7-.4 1.5-.7 2.3-.9 1.3-.4 2.7-.6 4.1-.7 1.8 0 2.8 1 3.4 3-.7 1-1.9 1.5-3.1 1.5-2.1.3-4.1 1-5.9 2.2-1.2.7-2.3 1.3-3.5 1.9-2.7 1.5-6 1.3-8.5-.7-.4-.4-.9-.7-1.3-1-1.8-1.5-4.3-1.8-6.5-.9l-4.4 1.7c-.6.3-1.2.5-1.8.6-.4 0-.9-.3-1.1-.7-.1-.4 0-.8.2-1.1.4-.5 1-1 1.6-1.4 2.5-1.4 5.1-2.7 8-4.2.1-2 .2-4.5.4-7.2-3.9-.6-7.5-1.4-11.1-.6-3.4.8-6.7 1.8-10 2.8-3.3.9-6.6 1.6-10 .5-3-1-5.9-2.2-8.8-3.4-3.9-1.6-7.7-3.3-11.9-3.8-5.2-.6-10.2-.6-14.8 2.4-2.8 1.8-5.6 3.5-8.4 5.3-2.3 1.7-4.9 2.8-7.7 3.4-3.9.6-7.9.4-11.7-.7-1.6-.5-3.2-.8-4.8-1.1-2.2-.6-4.6.4-5.8 2.4-1.3 2-2.8 4.2-3.2 6.5-1.1 5.5-1.4 11.1-1 16.7.7 7.1.3 14.1-2.5 20.9-1.2 3-2.2 6.1-3.1 9.2-.7 1.9-.8 4-.1 6 .5 1.6 2 2.8 3.6 2.8 1.6.3 3.2-.6 3.8-2.1.7-1.5 1.4-3 1.8-4.6 2.1-6.7 4-13.4 6.1-20.1 1.2-1.9 2-3.9 3-5.8zM515 349c1.7-.1 3.3-.1 5 .2-1.7-.3-3.4-.3-5-.2zm-42.9 7c-.5.9-1.2 1.5-1.9 1.8.7-.4 1.4-1 1.9-1.8 1.2-1.8 2.7-3.3 4.5-4.2.8-.4 1.7-.8 2.5-1.1-.9.3-1.7.7-2.6 1.1-1.9.9-3.4 2.4-4.4 4.2zm-88.1-1.9c-2.5 1.5-5.2 2.9-7.9 4.1h.1c2.6-1.2 5.3-2.6 7.8-4.1 2.8-1.8 5.6-3.3 8.6-4.4-3.1 1.2-6 2.6-8.6 4.4zm62.2 8.8c-.5 3.5.5 7 2.7 9.8 1.6 1.8 3.3 3.6 5.1 5.3 1.1.8 1.5 2.3.8 3.6-.4.8-.8 1.5-1.2 2.3-.5.9-.9 1.9-1.4 2.8h.1c.5-1 .9-1.9 1.4-2.9.4-.8.8-1.5 1.1-2.3.7-1.2.3-2.7-.8-3.6-1.8-1.7-3.5-3.4-5.1-5.3-2.1-2.8-3.1-6.3-2.7-9.7.5-4.1 3.3-7.5 7.2-9.2-3.9 1.6-6.8 5.1-7.2 9.2zm-31.7-8.8c.7-.2 1.4-.6 2-1.3 1.6-1.6 3.5-2.7 5.6-3.5-2.1.8-4 2-5.7 3.5-.6.7-1.2 1.1-1.9 1.3zm85.7-.1c1.2-.4 2.3-.9 3.3-1.6 3.5-1.9 7.4-3.1 11.5-3.5-4 .4-8 1.6-11.5 3.5-1.1.7-2.2 1.2-3.3 1.6zm-150.7-5.4c-4.3.5-8.5 2-12.1 4.4 3.6-2.4 7.8-3.9 12.1-4.4.4-.1.7-.1 1.1-.1-.4 0-.8 0-1.1.1zm189.3 25.5c-.4.6-.9 1.1-1.5 1.4-.3.2-.7.3-1 .4-2 .6-4 .2-5.6-1 1.9 1.4 4.5 1.7 6.7.6.5-.3 1-.8 1.4-1.4z" class="st4"/><path d="M311.3 353.8c-1.3-1.2-2.6-2.3-4-3.3-3.9-3-8.3-3.6-13-2.5-.3.1-.5.1-.7.2.2-.1.4-.1.7-.2 4.7-1.1 9.1-.5 13 2.5 1.3 1 2.7 2.1 4 3.3 4.2 4.2 9.3 5 14.8 3.9 4-.7 7.9-2.3 11.3-4.7-3.4 2.3-7.2 3.9-11.2 4.7-5.6 1-10.7.2-14.9-3.9z" class="st4"/><path d="M466.3 357c-1.2-.8-2.2-1.8-3.2-2.8-1.8-1.6-4.3-2.2-6.6-1.6-1.1.2-2.1.5-3 .9.9-.4 1.9-.7 2.9-.9 2.3-.6 4.8 0 6.6 1.6 1.1 1.1 2.1 2.1 3.3 2.8 1.3 1.1 2.7 1.3 3.8.7-1.1.6-2.4.3-3.8-.7zm23-4.2c-3.1-3.3-6.6-3.5-10.3-2.2 3.7-1.3 7.2-1.1 10.3 2.2 1.9 2.2 4.5 2.6 7.3 2.2 1.2-.2 2.5-.5 3.6-.9-1.1.4-2.3.7-3.5.9-2.8.3-5.4-.1-7.4-2.2zM376 358.2c-.1 0-.2.1-.3.1.1 0 .2 0 .3-.1z"/><path d="m539.2 401.6-.3-5.1c-.3-4.6-.5-9.3-.7-13.5 1.9-1.5 4-2.5 5.3-4.1 1.3-1.8 2.3-3.9 2.9-6.1 1.3-3.7.5-7.7-2-10.6-4.1-4.7-5.6-9.9-4.1-16s-.2-11.2-4.1-15.8c-1-1.2-2-2.4-3.1-3.5-2.1-2.3-4.8-3.9-7.7-4.8-4.6-1.3-9.3-2.1-14-2.3-1.5-.1-3-.1-4.2-1.1-.2-4.8-.4-9.5-.6-13.8 1.9-.6 3.7-1.4 5.5-2.3 2-1.3 3.6-3.1 4.5-5.4 2.3-5.2 3-10.9 2.1-16.4-.9-5.2-3.2-9.8-5.5-14.5-1.8-3.8-3.6-7.5-5.2-11.4-2.6-5.9-3.1-12.5-1.3-18.7 1.3-5.1 2.4-10.3 3.2-15.5 1.7-9-4.2-17.6-13.2-19.3-.1 0-.2-.2-.5-.4l12.6-40.5c6.8-1.7 12.6-6.2 16-12.3 1.6-2.7 3.3-5.4 4.8-8.2 1.6-3 3-6.1 4.2-9.2 2.4-7.1 4.1-14.4 4.9-21.9.8-6.3-.1-12.7-2.7-18.5-3.9-8.4-13.9-12-22.3-8.1-1.4.6-2.6 1.5-3.8 2.4-1.2 1-2.4 2.1-3.3 3.4-2.6 3.5-5.1 7.2-7.3 11-3.1 5.4-5.5 11.2-7.3 17.1-2.8 9.9-3.5 19.8-.5 29.8.5 1.6 1.2 3.2 1.9 4.8.8 1.7 2.5 3.3 2.7 5.1s-1.1 3.7-1.7 5.6c-3 10.4-6 20.7-9 31.1-.8 2.8-1.6 5.6-2.5 8.4-.3.8-.6 1.6-1.6 1.8-4 .8-8 1.8-12 2.6-2.9.6-5.9.2-8.5-1.1-3.1-1.5-4.9-4.3-6.9-7-.2-.3-.2-.9-.2-1.4l-1.2-10.8v-1.8c1.6.2 3.2.4 4.9.5 5.3 0 8.6-3.2 8.7-8.5 0-1.4-.1-2.8-.4-4.2-.3-1.6-.9-3.2-1.3-4.8-.7-3.1-1.3-6.2-.6-9.3.7-3.2 1.5-6.6 2.5-9.9 1.2-3.8 1.6-7.7 1.2-11.7-.3-3.9-1.3-7.6-4.1-10.6-2-2.2-4.4-3.9-7.1-5-7.5-2.9-15.1-3.9-22.8-1.1-2.4.8-4.8 1.5-7.3 2-4.3.9-8.5.5-12.1-2.3-1.4-1-2.9-1.9-4.4-2.7-5.2-3.2-11.4-4.3-17.3-2.9-6.5 1.4-13 3.3-19.4 5.1-4.4 1.4-9 2.2-13.7 2.4h-3.2c0-7-.9-13.7-.2-20.6H376c.4-2.7.7-5.1 1.2-7.5 1.4-6.3 2.8-12.6 4.3-18.9 2.3-9.4 4.7-18.8 7-28.2.7-2.2.9-4.5.6-6.8-6-.5-11.9-2.4-18.1-2.7-2.5 8-7.6 14.3-11.2 21.7-3.2-6.4-4.6-13-6.1-19.8h-13.8c-2 6.2-4.5 12.3-7.3 18.2-1.9-6-3.7-11.7-7.1-16.6-1.1.1-2.1.2-3.1.3-5.7.8-11.4 1.7-17.1 2.5-2 .3-2.2.4-1.9 2.4.5 3.5 1.2 7 2 10.4 2.5 9.3 5.1 18.7 8 27.9 1.6 5.2 3.8 10.2 5.7 15.2 7.2.2 14.3.2 21.3.8-.5 6.5-.9 12.8-1.3 19.1-1.2-.1-2.3-.1-3.3-.2-4.9-.6-9.8-.1-14.4 1.7l-6 2.1c-1.7.7-3.6.7-5.3.2-2.5-.7-4.9-1.6-7.3-2.7-5.1-2.4-10.1-4.8-15.8-5.3-6-.6-11.8-.2-17.1 3.1-2.7 1.7-5.5 3.2-8 5.1-3.2 2.5-7.3 3.6-11.3 3-1.1-.2-2.2-.4-3.2-.7-1.4-.3-2.7-.8-4.1-1.1-5.4-1.3-10 0-13.5 4.4-2.4 2.9-3.9 6.3-4.5 10-.8 5.8-1.5 11.6-1.1 17.4.1 1.7.2 3.3.2 5 .1 4.6-.7 9.1-2.4 13.4-1.3 3.1-2.2 6.4-3.2 9.6-.8 2.3-1.1 4.8-.8 7.2.7 5.2 3.6 10.5 11.2 10.3 1.9-.2 3.8-.5 5.6-1v8.8c-2.6.5-5.2.9-7.9 1-5 0-10.1-.3-15.1-.4-1.4.1-2.8-.7-3.3-2-4-8-8.2-16-12.2-24-4.2-8.3-8.2-16.7-13.2-24.6-.3-.5-.6-1-1-1.8 8.2-3.5 15.9-8 23-13.5l-10.4-21.3L179 127c.1-.5.1-.8.1-1.1.8-5.1 1.2-10.3 1.1-15.5-.2-6.7-2.7-13.1-7.1-18.1-2.2-2.7-5.3-4.6-8.7-5.3-7.8-1.4-14.9.2-21 5.4-6.3 5.4-9.2 12.8-11.7 20.4l13.3 7.3c.5-.6.8-1 1.2-1.5 1.8-2.1 3.5-4.2 5.5-6.1s4.1-1.3 5 1.2c.5 1.3.8 2.7.8 4.1-.1 3.4-.4 6.8-.9 10.1-1.1 7.3-3.5 14.4-7.1 20.9-1.1 2-2.1 4-3.1 6.1l10.7 14.7 13.1-6.6c3.6 8.1 6.9 16 10.6 23.8s7.8 15.3 11.8 23c-.9.3-1.6.6-2.4.8-4.6 1.5-9.1 3.6-13.1 6.3-5 3.1-8.5 8.2-9.6 14-.3 1.2-.5 2.5-.7 3.7-.4 5-.8 10 1.3 14.9 1.5 3.4 1.7 7.2 1.7 10.9.1 1.8-.6 3.6-1.9 5-1.8 1.8-3.5 3.7-5.3 5.3-3.2 2.8-6.2 5.7-7.8 9.7-3.2 8 .1 15 7.4 18.1 5.1 2.3 11 2.2 16-.3.8-.4 1.6-.7 2.7-1.2-.5 4.9-.9 9.4-1.4 13.9-3.6.8-7.1 2.1-10.3 3.9-2.5 1.4-5 2.7-7.5 4-2.8 1.7-6.2 2.2-9.3 1.2-.8-.2-1.5-.3-2.3-.6-5.3-1.6-10-.3-14.2 3.1-6.7 5.4-10.5 12.2-11 20.9-.4 7.6 1.4 14.8 3.9 22 1 2.8 2 5.5 2.9 8.2 1.3 4 1.4 8.3.2 12.4-1.7 5.6-3.4 11.1-5.4 16.6-.9 2.3-1.5 4.7-2 7.1-23.6 8.9-37.3 19.4-37.3 30.6 0 32.6 115.2 59 257.3 59s257.3-26.4 257.3-59c-.1-14.9-23.6-28.3-62.6-38.7zm-35.9-275.8c.7-5.8 2.5-11.4 5.3-16.5 1-1.7 2.2-3.2 3.6-4.6 1.3-1.3 3.1-2 4.9-2.1 2.7-.2 4.4.9 5 3.6.5 2.2.7 4.5 1 6.7-.6 6.1-2.2 12.2-4.7 17.8-1 2.4-2.9 4.4-5.3 5.4-4 1.8-8.2 0-9.3-4.2-.6-2.1-.7-4.1-.5-6.1zm-5.4 31.4 5.8 3c0 .5-.1 1-.2 1.4-1.6 4.9-3.3 9.8-4.8 14.8-2.8 9.8-5.5 19.7-8.2 29.5-.9 3.3-1.8 6.6-2.8 10.3l-5.4-1.2c7.1-18.9 11.1-38.4 15.6-57.8zm-154.2-54.7c.1-1.6-.2-3.3.3-4.7 1.1-3.1 2.6-6 4.1-9.3 2.6 3.1 3.7 6.5 4.6 9.9.3 1-.3 2.2-.3 3.3-.3 11-.5 22-.7 33.2-1.4 1.3-3.5 1.4-5 .1-.9-.6-1.8-1.2-3-1.9l-.1-27.5c0-1.1 0-2.1.1-3.1zm-109.6 84.8c-.5 1.6-1.1 3.1-1.8 4.6-.6 1.5-2.2 2.4-3.8 2.1-1.7-.1-3.2-1.2-3.6-2.8-.6-2-.6-4.1.1-6 .9-3.1 1.9-6.2 3.1-9.2 2.9-6.7 3.2-13.8 2.5-20.9-.4-5.6-.1-11.2 1-16.7.4-2.3 1.8-4.5 3.2-6.5 1.2-2 3.5-2.9 5.8-2.4 1.6.3 3.2.7 4.8 1.1 3.8 1.1 7.8 1.4 11.7.7 2.8-.6 5.4-1.7 7.7-3.4 2.8-1.8 5.6-3.5 8.4-5.3 4.6-3 9.7-3 14.8-2.4 4.2.5 8 2.2 11.9 3.8 2.9 1.2 5.8 2.4 8.8 3.4 3.4 1.1 6.7.4 10-.5 3.3-1 6.6-2 10-2.8 3.6-.8 7.2 0 11.1.6-.1 2.8-.3 5.2-.4 7.2-2.9 1.5-5.5 2.8-8 4.2-.6.4-1.2.8-1.6 1.4-.2.3-.3.7-.2 1.1.3.4.7.6 1.1.7.6-.1 1.2-.3 1.8-.6l4.4-1.7c2.2-.9 4.6-.5 6.5.9.4.3.9.6 1.3 1 2.4 1.9 5.8 2.2 8.5.7 1.2-.6 2.4-1.2 3.5-1.9 1.8-1.2 3.8-1.9 5.9-2.2 1.2 0 2.3-.5 3.1-1.5-.6-2-1.5-3-3.4-3-1.4.1-2.8.3-4.1.7-.8.2-1.5.5-2.3.9V127c.8-.1 1.5-.2 2.2-.2 5.3-.1 10.5-1 15.5-2.6 5.5-1.7 11-3.2 16.5-4.8 5.2-1.7 10.8-1.2 15.6 1.3 1.7.8 3.3 1.8 4.9 2.9 5.1 3.7 10.7 4.2 16.7 2.9 2.8-.6 5.5-1.4 8.2-2.3 6.4-2.3 12.6-1.2 18.6 1.3 4.9 2.1 7.2 6.1 7.3 11.4 0 2.9-.4 5.8-1.2 8.6-1.1 3.5-2.1 7.1-3 10.7-1 4-.3 8 .6 11.9.4 1.7 1 3.3 1.3 5 .1 1.2.1 2.3 0 3.5-2.5.7-5.1.4-7.3-1-1.1-.6-1.6-1.8-1.4-3 .3-1.5.7-3.1 1-4.6 1.3-5.4-.4-11.1-4.5-14.9-.9-.8-1.8-1.5-2.8-2.1a6.84 6.84 0 0 0-7.4-.2c-2.1 1.2-4.2 2.4-6.3 3.7-3.3 1.9-6.4 4-9.8 5.7-5.7 2.8-11.2 2.9-16.3-1.4-1.5-1.2-3-2.6-4.3-4-4.2-4.8-9.5-6.1-15.6-5.2-3.5.5-6.9 1.7-10 3.5-2.2 1.3-4.5 2.7-6.7 3.9-1.9 1-4 1.9-6 2.8-5.3 2.3-10.9 2.1-16.5 1.8-3.9-.2-7.6-1.5-10.7-3.8-1.7-1.2-3.6-2.3-5.2-3.7-3.6-3-7.7-3.7-12.2-3.2-3.6.4-7.1 1.5-10.3 3.2-1.9 1.1-3.9 2.2-5.8 3.2-4.9 2.5-10 3.6-15.3 2-2-.6-3.9-1.5-5.7-2.7-4.8-3-9.9-5.4-15.5-5.9-9.5-1-16.5 2.1-21.3 10.7-1 1.9-1.8 3.9-2.4 5.9-2.6 6.6-4.6 13.3-6.7 20zm-42.5 10.5c-3-5.7-6-11.4-9.1-17.1-3.2-5.9-6.5-11.7-9.7-17.6-.2-.4-.4-.8-.8-1.4l7.5-3.5c.5 1 1.1 2 1.5 3 3.6 7.7 7.3 15.4 10.8 23.1 3.9 8.6 8.1 17.1 12.8 25.3 2.4 4.2 4.9 8.5 7.3 12.7 1.2 2.1.5 4-1.9 4.4-1.1.2-2.2.2-3.5.4-3.5-6.7-6.9-13.3-10.4-19.9-1.4-3.2-2.9-6.4-4.5-9.4zm-13.8 92.3c-2.8 2.5-6 4.1-9.9 3.5-2.2-.3-4.3-1.2-5.9-2.8-2.5-2.3-3-4.8-1.4-7.9 1.5-2.7 3.5-5.1 6-6.9 2.8-2.1 5.2-4.6 7.2-7.4.4-.4.7-.9.9-1.4 2-5.7 4.2-11.4 1.3-17.5-.6-1.3-1.1-2.6-1.7-3.9-2.2-4.3-1-8.6-.3-12.9.3-.7.7-1.4 1.2-2 3.1-4 6.6-7.6 10.5-10.8 1.1-.8 2.4-1.5 3.8-1.9 1.9-.7 3.8-1.3 6.1-2 2 4.1 3.9 7.9 5.8 11.9-.9.5-1.7.9-2.4 1.3-2 1.1-3.4 3.2-3.6 5.5.1.7.2 1.3.5 1.9.7-.7 1.3-1.4 1.9-2.2.9-1.5 2.4-2.6 4.1-2.9 2.2-.4 4.5-.7 6.8-1 .6-.1 1.3 0 1.9-.1 2.2-.1 4.3-1.4 5.3-3.4 1.1-2 2-2.4 4.3-1.7 1.1.3 2.2.8 3.3 1.2 1.2.5 2.5 1 3.8 1.3 1.9.7 4 .1 5.4-1.4-1.9-2.7-10.6-5.9-15.9-5.9-.9-1.4-1.8-2.9-2.9-4.6h2.5c9.9 1.1 19.9-.2 29.2-3.9 3.5-1.2 7-2.2 10.7-3 3.5-.7 7.1-.5 10.5.6 4.9 1.5 9.8 1.1 14.8.7 8-.5 15.5-3.3 23.1-5.7 3.5-1.1 7-1.8 10.7-1.9 8.8-.5 17.7.7 26.1 3.3 8.2 2.8 16.9 4.3 25.6 4.2 8.3-.1 16.5-.7 24.7-1.8 6.8-.9 13.7-.8 20.5.4 8.2 1.4 16.1 1 23.7-2.9 2.7-1.3 5.5-2.4 8.3-3.4.7-.2 1.4-.4 2.1-.4 1.4-.3 2.9.3 3.6 1.5 3 4.5 7.8 7.6 13.1 8.5 3 .5 6.2.3 9.1-.5 2.4-.5 4.7-1.1 7.4-1.8-.3 1.1-.6 1.9-.8 2.7-.1 1.2-1.1 2.2-2.3 2.3-.9.3-1.8.6-2.7 1.1 0 .2 0 .3.1.5.4.1.8.4 1.2.3 2.8-.5 5.7.1 8.1 1.6 2.7 1.6 6 1.8 8.9.6 1.8-.6 3.1-1.8 3.1-4-1.7-1.1-3.2-.3-5.2.1.5-1.4 1-2.5 1.4-3.6l1.3-3.2c4.6-.9 9 2 10 6.6.1.4.1.9.2 1.3.1 1.3 0 2.5-.2 3.8-1.2 6.1-2.4 12.2-3.7 18.3-.9 4.1-.7 8.3.4 12.4 1.8 6.2 4.2 12.2 7.3 17.9 1.5 3 2.8 6.2 4.1 9.3 2 5 1.4 10.1-.2 15-.4 1.2-1.1 2.2-2 3.1-1 1.1-1.6 1.1-2.8 0s-1.6-2.7-1.8-4.2c-.3-2.2-.6-4.4-.9-6.5-1-7.1-5.1-13.5-11.3-17.2-1.4-.9-2.7-1.9-4-3-3.8-3.1-4.9-7.2-3.9-11.9.4-2.9 1.4-5.7 2.9-8.2 2.7-4 3.5-9 2.3-13.6-2.1-8.3-9-13.7-19.3-11.2-3 .8-6 1.9-8.8 3.4-5.1 2.3-10.4 4.2-15.7 5.8-8.2 2.5-16.1 1.2-23.6-2.5-3.6-1.9-7.5-3.3-11.5-4.1-5.4-.9-10.9-.7-16.2.7-4.4 1.1-8.6 2.9-12.4 5.3-4.1 2.8-8.5 5.1-13.2 6.8-2.3.8-4.7 1.1-7.2 1.1-5 0-10.1-.8-14.9-2.3-5.4-1.7-11.4-.7-16 2.7-3 1.9-4.6 5.5-4.1 9 1 6.6-.8 13.2-4.8 18.5-3.5 4.8-4.2 9.8-2.7 15.4.8 2.8 1.3 5.7 1.9 8.5.4 2.3 0 4.6-1.1 6.6-.9 1.8-2 2.2-3.9 1.7s-2.9-1.7-2.8-3.5c.1-1.1.4-2.2.5-3.3.2-1.7.3-3.4.3-5.2 0-2.6-1.1-5.2-3.2-6.9-.4-.4-.8-.7-1.2-1.1-2.5-2.1-2.8-3-1.8-6.2.6-1.9 1.4-3.8 2.1-5.8 2-5.4 1.3-11.5-1.8-16.4-2.4-4-6.5-6.7-11.1-7.2-3.7-.6-7.6-.4-11.2.7-4.4 1.3-8.8 2.5-13.5 1.7-3.2-.5-6.3-1.2-9.4-2.1-3.4-1-6.7-2.4-9.8-4-9.1-4.8-18.1-1.8-24.3 5.1-1.1 1.2-2.1 2.6-3.2 3.8-.7.8-1.4 1.5-2.2 2.1-2 1.4-3.5 1.4-5.3-.4s-4-3.3-6.4-4.3c-2.9-1.4-6.3-1.2-9.1.5-6.2 3.7-10.2 9.1-11.2 16.4-.5 3.4-.9 6.9-1.3 10.3-.3 3-1.4 5.8-3 8.4-2.5 4-5.5 7.5-8.9 10.6zm359.5 85.4c-2.2 1.2-4.8.8-6.7-.6-.1 0-.1-.1-.2-.1-.9-.7-1.6-1.8-2-3-.5-2.2-.8-4.5-1-6.8-.5-3.4-.9-6.9-1.6-10.3-.2-1.9-1.3-3.5-2.8-4.5-.9-.6-1.9-1-3.1-1.1-1.6-.3-3.3-.4-5-.2-4 .4-7.9 1.6-11.5 3.5-1.1.6-2.2 1.1-3.3 1.6-1.2.4-2.4.7-3.6.9-2.8.4-5.4 0-7.4-2.2-3-3.3-6.5-3.5-10.2-2.2-.8.3-1.6.7-2.5 1.1-1.8 1-3.3 2.4-4.4 4.2-.6.9-1.2 1.5-2 1.8-1.2.6-2.5.4-3.9-.7-1.1-.8-2.2-1.8-3.2-2.8-1.8-1.6-4.3-2.2-6.6-1.6-1 .2-2 .5-2.9.9-4 1.7-6.8 5.1-7.1 9.2-.5 3.5.5 7 2.7 9.8 1.6 1.8 3.3 3.6 5.1 5.3 1.1.8 1.5 2.3.8 3.6-.4.8-.8 1.5-1.1 2.3-.5 1-.9 1.9-1.4 2.9h-.1c-.9 1.7-1.7 3.5-2.5 5.3-1.8 3.9-2.1 8.3-.8 12.5.6 2.1 1.1 4.3 1.4 6.4.4 2.1-.3 4.3-1.9 5.9-.9 1-1.8 2-2.8 2.9-2 1.8-5 1.7-6.8-.3-.2-.2-.4-.5-.7-.7-3-2.8-3.5-6.2-2-9.9.9-2.3 1.8-4.6 2.9-6.7 2.2-4.1 2.1-9.1-.3-13.1-1.4-2.4-1.9-5.2-1.7-8 .2-4.5.9-8.9 2.1-13.2 2.3-7.2-1.9-15.6-8.9-18.5-1.9-.8-4-.9-6-.4-.7.2-1.5.4-2.2.6-2.1.8-4 2-5.6 3.5-.7.7-1.3 1.1-2 1.3-1.2.4-2.4.2-3.7-.3-1.4-.6-2.7-1.3-3.9-2.2-4.5-3.1-9.3-3.5-14.4-1.9-3 1.1-5.8 2.6-8.5 4.3-2.6 1.5-5.2 2.9-8 4.1h-.1c-.1 0-.2.1-.3.1-.4.1-.7.3-1.1.4-3.5 1.1-7.3.4-10.2-1.7-2.7-1.8-5.2-3.8-7.6-6-1.7-1.7-3.9-2.6-6.3-2.5-.3 0-.7 0-1 .1-4.3.5-8.5 2-12.1 4.4-3.4 2.3-7.2 3.9-11.3 4.7-5.5 1-10.7.3-14.9-3.9-1.3-1.2-2.6-2.3-4-3.3-3.9-3-8.3-3.6-13-2.5-.2 0-.5.1-.7.2-3.3 1-5.7 3.9-5.9 7.4-.2 2.6 0 5.3-.1 8 0 1.3-.1 2.7-.4 4-.3 1.6-1.4 2.9-2.8 3.4-.5.2-1 .3-1.6.3-1.1 0-2.2.2-3.2.6s-2 .9-2.9 1.5c-.2.2-.5.4-.7.6-3.4 2.9-4.5 6.7-3.1 11.1.3 1.3.9 2.5 1.3 3.8.7 2.2.3 3.3-2 4-2 .6-4 1-6 1.2-1.3 0-2.6-.2-3.9-.6-.1 0-.2-.1-.3-.1-.6-.3-.9-1.1-.6-1.8.3-1 .6-2.1.9-3.2.4-1.3.5-2.7.3-4h-.1c-.3-2-1.2-3.9-2.8-5.3-1-1-2.2-1.8-3.4-2.6-.8-.5-1.6-.9-2.5-1.3-4.2-2.1-4.6-2.8-3.2-7.4 1.3-4.2 1.5-8.6.6-12.9-.7-3.5-2.5-6.7-5.1-9.1-3.3-3.2-7.4-3.5-11.7-2.8-.8.2-1.6.3-2.3.6-2.3.7-4.5 1.8-6.4 3.3-.8.5-1.5 1-2.3 1.5-1.5 1-3.1 2-4.6 2.9-.7.4-1.4.9-2.1 1.3-1.1.7-2.2 1.2-3.3 1.5-3.4 1.1-6.9 1-10.4-.1-4.1-1.1-8-2.8-11.7-5-3.6-2.3-7.2-3.3-10.8-3-3 .3-5.9 1.4-8.9 3.3-4.2 2.8-7.7 6.6-10.2 11-4.6 8.3-7.5 17.2-7.6 26.8-.1 11-4.5 20.3-11.3 28.6-1.4 2-3.4 3.5-5.8 4.4-3 .9-5.4-.6-5.8-3.7-.1-.7-.1-1.4 0-2.1.2-2.5.7-5 1.6-7.4h-.1c.2-.7.5-1.3.7-1.9 2.2-5.3 3.9-10.9 5.3-16.5.2-.8.4-1.5.5-2.3.4-1.8.6-3.7.7-5.5.1-3.1-.4-6.2-1.4-9.1-.9-3.1-2.2-6.1-3.2-9.1-1.9-5.3-3.4-10.7-3.5-16.3v-2.4c.2-7.2 3.7-12.7 9.2-17 1.9-1.6 4.4-2.3 6.9-1.9 1.4.2 2.8.3 4.2.6 4.2 1 7.9-.3 11.4-2.5 2.7-1.8 5.3-3.7 8.1-5.4 2.5-1.5 5.1-2.8 7.6-4.2l.3.6c.9.3 1.9.5 2.8.6 3.2-.3 6.3.7 8.8 2.7 3.3 2.6 6.7 5 9.8 7.8 5.4 4.9 11.4 5 17.9 2.9 1.7-.6 3.3-1.4 5-2.1 4.9-2 10.4-2.2 15.5-.4 3.7 1.3 7.3 2.8 11 4.4 9.6 4.1 19.2 3.7 28.6-.5 3.9-1.7 7.6-3.8 11.3-5.8 4.6-2.5 9.8-3.7 15-3.4 4.7.3 9.2 1.7 13.2 4.1 2.3 1.5 4.6 3.1 6.8 4.7 5.6 4.2 11.8 6.6 18.9 6.3 3.9-.2 7.9-.1 11.8-.4 4.3-.3 8.4-1.5 12.2-3.5 1.7-.9 3.3-1.9 5-2.6 3.9-1.8 7.7-3.7 11.7-5.1 5.5-2.2 11.6-2.2 17.1 0 5.7 2.3 11.7 2.4 17.7 1.6 3.3-.5 6.4-1.9 9-4 2-1.6 4.1-3 6.2-4.3 4.3-2.6 9.6-3.2 14.3-1.5 3.2 1.1 6.3 2.5 9.3 4.1 10.1 5.3 21.5 7.3 32.7 5.9 3.6-.6 7.1-1.4 10.5-2.5 1.2-.5 2.5-.2 3.4.8 1.9 1.8 4.4 1.9 6.8 2.2 3.7.5 7.4 1.2 11.1 1.9 2.5.6 4.7 1.9 6.3 3.9.4.5.9 1 1.3 1.6.2.2.3.4.5.6.4.4.7.9 1.1 1.3.5.6 1 1.3 1.4 2.1 1.1 2.2 1.5 4.8.9 7.2-.5 2.4-.8 4.8-.8 7.3.1 3 .8 5.9 2 8.6.8 1.6 1.7 3.1 2.8 4.5.7.9 1.2 1.7 1.5 2.4 1 2.1.8 3.9-.6 6.3-.1.2-.3.5-.4.7 0 .4-.5.9-1.1 1.2z"/><path d="M528.9 372.9c-.2-.3-.3-.7-.4-1-.5-2.2-.8-4.5-1-6.8-.5-3.4-.9-6.9-1.6-10.3-.2-1.9-1.3-3.5-2.8-4.5 1.5 1 2.5 2.6 2.8 4.5.7 3.4 1.1 6.8 1.6 10.3.2 2.3.6 4.5 1 6.8.4 1.2 1.1 2.2 2 3-.7-.6-1.2-1.3-1.6-2zm1.8 2c-.1 0-.1-.1-.2-.1 0 0 .1.1.2.1zm-243.1-19.4c-.2 2.7 0 5.4-.1 8 0 1.3-.1 2.7-.4 4-.3 1.6-1.4 2.8-2.8 3.4 1.5-.5 2.6-1.8 2.8-3.4.3-1.3.4-2.7.4-4 .1-2.7 0-5.4.1-8 .3-3.5 2.7-6.5 6-7.5-3.4 1-5.8 4-6 7.5zm-64.2-7.3c.8-.5 1.5-1 2.3-1.5 1.9-1.4 4.1-2.5 6.4-3.3-2.3.7-4.5 1.8-6.4 3.3-.9.5-1.6 1-2.3 1.5zm-10.1 5.7c1.1-.4 2.2-.9 3.3-1.5.7-.4 1.4-.9 2.1-1.3-.7.4-1.4.9-2.1 1.3-1.1.7-2.2 1.2-3.3 1.5zm151.1 3.1c-2.7-1.8-5.2-3.8-7.6-6-1.7-1.7-4-2.6-6.3-2.5 2.3-.1 4.6.8 6.3 2.5 2.4 2.2 4.9 4.2 7.6 6 2.9 2.2 6.7 2.8 10.2 1.7-3.5 1.1-7.2.5-10.2-1.7zm-88.5 16.8c.2-.2.5-.4.7-.6.9-.7 1.9-1.2 2.9-1.5-1.1.4-2.1.9-3 1.5-.2.3-.4.4-.6.6zm263.9-6.7c-.4-.8-.9-1.6-1.5-2.4-1.1-1.4-2.1-2.9-2.8-4.5.8 1.6 1.7 3.1 2.8 4.5.6.8 1.1 1.6 1.5 2.4zm-400.1 13.4c0 1.9-.3 3.7-.7 5.5-.2.8-.4 1.5-.5 2.3.2-.7.4-1.5.5-2.2.4-1.8.6-3.7.7-5.6zm393.5-43.4c-.4-.7-.8-1.4-1.4-2.1-.4-.4-.7-.9-1.1-1.3.4.5.7.9 1.1 1.4.6.6 1 1.3 1.4 2zm-392.4-10.5c1.9-1.6 4.4-2.3 6.9-1.8 1.4.2 2.8.3 4.2.6 4.2 1 7.9-.3 11.4-2.5 2.7-1.8 5.3-3.7 8.1-5.4 2.5-1.5 5.1-2.8 7.6-4.2l.3.6c.9.3 1.9.5 2.8.6 3.2-.3 6.3.7 8.8 2.7 3.3 2.6 6.7 5 9.8 7.8 5.4 4.9 11.4 5 17.9 2.9 1.7-.6 3.3-1.4 5-2.1 4.9-2 10.4-2.2 15.5-.4 3.7 1.3 7.3 2.8 10.9 4.4 9.6 4.1 19.2 3.7 28.6-.5 3.9-1.7 7.6-3.9 11.3-5.8 4.6-2.5 9.8-3.7 15-3.4 4.7.3 9.2 1.7 13.2 4.1 2.3 1.5 4.6 3.1 6.8 4.7 5.6 4.2 11.8 6.6 18.9 6.3 3.9-.2 7.9-.1 11.8-.4 4.3-.3 8.4-1.5 12.2-3.5 1.7-.9 3.3-1.9 5-2.6 3.9-1.8 7.7-3.7 11.7-5.1 5.5-2.2 11.6-2.2 17.1 0 5.7 2.3 11.7 2.4 17.7 1.6 3.3-.5 6.4-1.9 9-4 2-1.6 4.1-3 6.2-4.3 4.3-2.6 9.6-3.2 14.3-1.5 3.2 1.1 6.3 2.5 9.3 4.1 10.1 5.3 21.5 7.3 32.7 5.9 3.6-.6 7.1-1.4 10.5-2.5 1.2-.5 2.5-.2 3.4.8 1.9 1.8 4.4 1.9 6.8 2.2 3.7.5 7.5 1.2 11.2 1.9 2.5.6 4.7 1.9 6.3 3.9.4.5.9 1 1.3 1.5-.4-.5-.8-1-1.3-1.6-1.6-2-3.8-3.4-6.3-3.9-3.7-.8-7.4-1.4-11.1-1.9-2.4-.3-4.9-.4-6.8-2.2-.9-.9-2.2-1.2-3.4-.8-3.4 1.1-7 1.9-10.5 2.5-11.3 1.4-22.7-.6-32.7-5.9-3-1.6-6.1-3-9.3-4.1-4.8-1.7-10-1.1-14.3 1.5-2.1 1.3-4.2 2.8-6.2 4.3-2.6 2.1-5.7 3.5-9 4-6 .7-12 .7-17.7-1.6-5.5-2.2-11.6-2.2-17.1 0-4 1.4-7.8 3.3-11.7 5.1-1.7.8-3.3 1.8-5 2.6-3.8 2-7.9 3.2-12.2 3.5-3.9.3-7.9.2-11.8.4-7.1.3-13.3-2.1-18.9-6.3-2.2-1.7-4.5-3.3-6.8-4.7-4-2.4-8.5-3.9-13.2-4.1-5.2-.3-10.4.9-15 3.4-3.8 2-7.5 4.1-11.3 5.8-9.4 4.2-19 4.7-28.6.5-3.6-1.5-7.2-3.1-11-4.4-5-1.8-10.6-1.6-15.5.4-1.7.7-3.3 1.5-5 2.1-6.4 2.2-12.5 2-17.9-2.9-3.1-2.8-6.5-5.2-9.8-7.8-2.5-2-5.6-3-8.8-2.7-1-.1-1.9-.2-2.8-.6l-.3-.6c-2.5 1.4-5.2 2.6-7.6 4.2-2.8 1.7-5.4 3.6-8.1 5.4-3.5 2.3-7.2 3.5-11.4 2.5-1.4-.3-2.8-.4-4.2-.6-2.5-.4-5 .3-6.9 1.9-5.6 4.3-9 9.8-9.2 17v2.4-2.4c.2-7.2 3.6-12.7 9.2-17zM411 353.8c-1.4-.6-2.7-1.3-3.9-2.2-4.5-3.2-9.3-3.5-14.4-1.9h-.1c5.1-1.7 9.9-1.3 14.4 1.9 1.2.9 2.5 1.6 4 2.2 1.2.6 2.4.8 3.6.4-1.2.3-2.4.1-3.6-.4z"/><path d="M529.8 386.8c-1.4-2.8-3-4-8-8s-3-15-7-18-7.5 0-14.5 3-16.5-4-16.5-4-10.8 6.3-15 5.5c-5.5-1 0-3.5-8-2.5s1 7 6 12-5 13-7 19 2 10 6 17-11 16-19 20-19-6-22-14 8-17 4-19-4-10.8-3-20 4-18 0-14-19-1-27-4-12.7 4.8-24 9-19-6-26-9-18 10-27 11-11-8-18-10-4 7-3 12-12 5-17 8 3 7 3 15-14 10-25 9-9-14-9-14 1-8-10-12-1-18-7-25-18 9-27 13-23-15-32-13-15 35-16 46-17 25-17 25l-1 30s97.7 27.4 188.4 27.4 201.6-27.4 201.6-27.4-1.5-65-3-68z" class="st5"/><path d="m379.7 460.6 5.5-4.2-7-9.1 6.2-7.2-5.3-4.6-5.3 6.1-4.6-5.9-5.5 4.3 5.4 7-8 9.2 5.3 4.6 7.1-8.1z" class="st1"/><path d="m410.3 409.6 5.6-4.2-7-9.1 6.2-7.2-5.3-4.6-5.3 6.1-4.6-5.9-5.6 4.3 5.5 7-8 9.2 5.3 4.6 7.1-8.1zm85.4-7.3 5.5-4.3-7-9 6.2-7.2-5.3-4.6-5.3 6.1-4.6-5.9-5.5 4.2 5.4 7.1-8 9.2 5.3 4.6 7.1-8.2z" class="st6"/><path d="m510 446 5.5-4.2-7-9.1 6.2-7.2-5.2-4.6-5.4 6.1-4.6-5.9-5.5 4.3 5.5 7-8 9.2 5.2 4.6 7.1-8.1z" class="st1"/><path d="m199.2 406 5.6-4.3-7-9.1 6.2-7.1-5.3-4.6-5.3 6.1-4.6-6-5.6 4.3 5.5 7.1-8 9.1 5.3 4.6 7.1-8.1z" class="st6"/><path d="m239 441.6 5.5-4.2-7-9.1 6.3-7.2-5.3-4.6-5.4 6.1-4.6-5.9-5.5 4.3 5.5 7-8 9.2 5.3 4.6 7-8.1z" class="st1"/><path d="m311.6 469.4 5.5-4.3-7-9.1 6.2-7.1-5.3-4.7-5.3 6.2-4.6-6-5.5 4.3 5.4 7-8 9.2 5.3 4.6 7.1-8.1z" class="st6"/><path d="m347.7 412.3 5.5-4.3-7-9 6.2-7.2-5.3-4.6-5.3 6.1-4.6-5.9-5.5 4.2 5.4 7.1-8 9.2 5.3 4.6 7.1-8.2z" class="st1"/><path fill="#e679a6" d="m187.3 305.8 1.5-16s12.5-12 11.5-17 .5-21 6.5-21 9 10.5 15 8.5 13-14 20.5-14.5c4.5-.3 15.2 1 19.5 3.5 8.5 4.8 27.7-2.6 33 1 4.5 3 4.3 1.6 7 10s-3.8 9.8-2.5 15.5c1.5 6.6 9 5 7 17.5-.7 4.4 4 12 12 11 6.4-.8 14.5-11.5 12.5-16.5s-4-10.5-1-17.5 7-9 6-14 2.5-17.5 8.5-14.5 18 3.5 28.5-.5c9.2-3.5 32-13.5 39-7.5s26 8.5 32 5.5 27-11.5 32-5.5-2.6 16.7-.5 24c4 14 14.4 19.9 18 26 4.5 7.5 4.9 25.2 4 27-3 6-24.5 10.5-43.5-4-7.3-5.6-28.5 7.5-38 8.5-6.3.7-23.5-7.5-29.5-3.5s-28 13-38 13-24.5-6-28.5-9-22.5-10.5-34.5-1.5-27.5 7.5-34.5 3.5-34 1-39 1-24.5-13-24.5-13z"/><path d="m440.847 274.878 14.023-20.697 5.795 3.926-14.023 20.697z" class="st6"/><path d="m405.489 276.719 8.662-4.997 9.994 17.324-8.662 4.997z" class="st8"/><path d="m380.114 269.859 4.832-19.615 9.71 2.392-4.832 19.615z" class="st5"/><path d="m347.957 288.548 5.046-4.852 16.637 17.3-5.046 4.851z" class="st6"/><path d="m463.087 301.402 4.061-9.138 18.002 8-4.06 9.138z" class="st5"/><path d="m265.47 305.644 13.78-16.634 7.702 6.38-13.781 16.634z" class="st8"/><path d="m256.934 263.922 20.632-3.327 1.592 9.872-20.632 3.327z" class="st5"/><path d="m232.17 296.418 17.325-12.044 3.995 5.748-17.325 12.044z" class="st6"/><path d="M208.1 275.5h10v20h-10z" class="st8"/><path d="M241.3 205.3s2-21.5 3-25 6.2-18.2 10-20.5c11.5-7 18.5 2 25.5 5.5 10 5 18 4 28.5-1.5 3.6-1.9 15.7-4.1 21 0 6.5 5 23 10.5 34 4s21-11 26.5-9.5 15.5 14.5 24.5 12.5 20.5-14 25.5-11.5 2.4 12.1 4 20c.9 5.5.9 11 0 16.5 0 0-15.9 7.1-22 7.5-7 .5-38.5-3-49.5-.5-9.4 2.1-31-5-40.5-7-5.4-1.1-33.5.5-42.5 5s-22-2-27.5-1-20.5 5.5-20.5 5.5z" class="st0"/><circle cx="418.1" cy="184.5" r="4.3" class="st8"/><path d="M371.4 193.8c-5.2 0-9.3-4.2-9.4-9.3s4.2-9.3 9.3-9.4 9.3 4.2 9.4 9.3c.1 5.3-4.1 9.4-9.3 9.4zm0-10c-.4 0-.7.3-.7.7s.3.7.7.7.7-.3.7-.7-.3-.7-.7-.7z" class="st5"/><circle cx="322.8" cy="179.2" r="4.3" class="st8"/><path d="M267.2 191.4c-5.6 0-10.2-4.6-10.2-10.2s4.6-10.2 10.2-10.2 10.2 4.6 10.2 10.2-4.5 10.2-10.2 10.2zm0-10.4c-.1 0-.2.1-.2.2 0 .2.4.2.4 0 0-.1-.1-.2-.2-.2z" class="st5"/></svg>