<svg xmlns="http://www.w3.org/2000/svg" width="118" height="13"><path fill="#000" fill-rule="nonzero" d="M4.771.871C4.017.767 4.056.52 2.782.52c-1.183 0-2.47.871-2.47 2.249 0 1.222.858 1.846 1.872 2.275.819.364 2.145.611 2.145 2.093 0 1.053-.598 1.599-1.625 1.599C1.482 8.736.702 8.19.416 6.89A.506.506 0 0 0 0 6.929C.052 7.93.104 8.268.26 8.905c.819 0 1.17.299 2.327.299 1.573 0 2.834-1.196 2.834-2.522 0-1.235-.845-1.859-1.794-2.262-.624-.26-2.392-.728-2.392-2.002 0-.793.598-1.456 1.417-1.456 1.274 0 1.677.806 1.937 1.664.143 0 .299.013.416-.078A10.17 10.17 0 0 0 4.771.871m2.21 6.617c0 1.079-.143 1.144-.936 1.183-.078.078-.078.351 0 .429.546-.013.884-.026 1.456-.026.559 0 .884.013 1.443.026.078-.078.078-.351 0-.429-.793-.039-.936-.104-.936-1.183V1.495C8.008.65 8.06.13 8.06.13c0-.091-.052-.13-.17-.13-.324.13-1.3.312-1.82.351-.025.104 0 .312.079.39.676.039.832-.026.832 1.066v5.681m2.526-1.079c0 1.326.897 2.795 2.73 2.795 1.937 0 2.756-1.612 2.756-2.912 0-1.352-.715-2.925-2.73-2.925-1.755 0-2.756 1.391-2.756 3.042m2.613-2.613c1.118 0 1.755 1.001 1.755 2.912 0 1.716-.793 2.067-1.404 2.067-1.352 0-1.846-1.664-1.846-2.665 0-1.131.403-2.314 1.495-2.314m5.466.559a1.635 1.635 0 0 1 1.105-.416c.793 0 1.443.962 1.443 2.223 0 1.482-.598 2.6-1.833 2.6-.403 0-.676-.286-.936-.611v-3.25c0-.273.052-.39.221-.546m-.09-.403c-.092.078-.13.052-.13-.065V1.495c0-.845.051-1.365.051-1.365 0-.091-.052-.13-.169-.13-.325.13-1.3.312-1.82.351-.026.104 0 .312.078.39.676.039.832-.026.832 1.066v6.344c0 .507-.013.741-.052.923.065.104.13.156.286.156a2.33 2.33 0 0 0 .3-.312c.142-.156.22-.156.363-.026.286.247.676.312 1.144.312 1.326 0 2.873-1.209 2.873-3.276 0-1.586-1.17-2.561-2.3-2.561-.56 0-1.054.221-1.457.585m4.637 2.457c0 1.326.897 2.795 2.73 2.795 1.937 0 2.756-1.612 2.756-2.912 0-1.352-.715-2.925-2.73-2.925-1.755 0-2.756 1.391-2.756 3.042m2.613-2.613c1.118 0 1.755 1.001 1.755 2.912 0 1.716-.793 2.067-1.404 2.067-1.352 0-1.846-1.664-1.846-2.665 0-1.131.403-2.314 1.495-2.314m7.766 3.666c0 .247-.026.351-.208.507-.481.416-.897.624-1.222.624-.702 0-1.43-.767-1.43-2.392 0-.936.182-1.456.377-1.729.403-.611.949-.65 1.209-.65.468 0 .793.169 1.053.468.182.208.221.299.221.702v2.47m-.143.962c.052-.052.156-.078.156.013 0 .312.143.767.143.767.104.039.143.026.247 0 .286-.234.78-.429 1.573-.52.078-.078.078-.273 0-.351-.832-.065-.949-.312-.949-.949V1.495c0-.845.052-1.365.052-1.365 0-.091-.052-.13-.169-.13-.325.13-1.3.312-1.82.351-.026.104 0 .312.078.39.676.039.832-.026.832 1.066v1.664c0 .091-.026.117-.117.117-.052 0-.585-.221-1.014-.221-.858 0-1.43.286-1.95.78-.559.559-.897 1.326-.897 2.288 0 1.599.806 2.769 2.21 2.769.507 0 .988-.26 1.625-.78m4.426-4.004c-.039.052-.13.182-.13 0 0-.39.065-.988.065-.988 0-.065-.052-.104-.156-.104-.364.143-.897.26-1.794.377-.026.078 0 .286.026.364.702.065.845.13.845.884v2.535c0 1.066-.13 1.118-.91 1.183-.078.078-.078.351 0 .429.533-.013.871-.026 1.43-.026.507 0 .741.013 1.287.026.078-.078.078-.351 0-.429-.663-.065-.78-.117-.78-1.183V5.356c0-.273.117-.429.221-.546.494-.481 1.001-.767 1.508-.767.26 0 .533.169.69.468.13.26.155.611.155 1.001v1.976c0 1.066-.13 1.118-.806 1.183-.065.078-.065.351 0 .429.546-.013.806-.026 1.326-.026.533 0 .82.013 1.378.026.065-.078.065-.351 0-.429-.728-.065-.87-.117-.87-1.183V5.551c0-.715-.053-1.339-.352-1.742-.22-.286-.624-.442-1.079-.442-.637 0-1.26.169-2.054 1.053M44.331.351l-.988 1.547c-.104.169-.143.221-.143.364 0 .091.091.169.182.169s.195-.052.39-.247L45.267.767l-.039-.143a1.057 1.057 0 0 0-.715-.299.678.678 0 0 0-.182.026m.637 5.694v1.729c0 .169-.078.26-.182.338-.338.273-.78.559-1.144.559-.65 0-.936-.52-.936-.923 0-.585.273-1.17 1.235-1.43l1.027-.273m0 2.405c.078.273.3.754 1.001.754.637 0 1.105-.52 1.105-.585 0-.091-.117-.221-.169-.221-.078 0-.13.208-.403.208-.507 0-.52-.507-.52-1.105V5.564c0-1.846-1.014-2.197-1.963-2.197-1.066 0-2.145.741-2.145 1.443 0 .312.156.455.455.455.377 0 .572-.26.572-.429a.584.584 0 0 0-.039-.234.899.899 0 0 1-.026-.26c0-.403.585-.546 1.08-.546.441 0 1.052.221 1.052 1.69 0 .091-.039.143-.078.156l-1.118.273c-1.248.312-2.145 1.001-2.145 1.885 0 1.027.728 1.404 1.638 1.404.598 0 .845-.104 1.417-.546l.26-.208h.026m6.595-3.042c.247-1.469 1.157-1.586 1.469-1.586.494 0 1.079.273 1.079 1.365 0 .117-.052.182-.195.182l-2.353.039m3.406 2.457c-.481.494-.858.702-1.612.702-.468 0-1.014-.273-1.417-.936-.26-.429-.416-1.027-.416-1.781l3.458.026c.156 0 .247-.078.247-.221 0-1.092-.39-2.262-2.197-2.262-1.131 0-2.6 1.079-2.6 3.055 0 .728.182 1.43.61 1.924.443.52 1.054.832 1.99.832.988 0 1.69-.455 2.21-1.131-.04-.13-.117-.195-.273-.208m2.988-3.445c-.039.052-.13.182-.13 0 0-.39.065-.988.065-.988 0-.065-.052-.104-.156-.104-.364.143-.897.26-1.794.377-.026.078 0 .286.026.364.702.065.845.13.845.884v2.535c0 1.066-.13 1.118-.91 1.183-.078.078-.078.351 0 .429.533-.013.871-.026 1.43-.026.507 0 .741.013 1.287.026.078-.078.078-.351 0-.429-.663-.065-.78-.117-.78-1.183V5.356c0-.273.117-.429.221-.546.494-.481 1.001-.767 1.508-.767.26 0 .533.169.689.468.13.26.156.611.156 1.001v1.976c0 1.066-.13 1.118-.806 1.183-.065.078-.065.351 0 .429.546-.013.806-.026 1.326-.026.533 0 .819.013 1.378.026.065-.078.065-.351 0-.429-.728-.065-.871-.117-.871-1.183V5.551c0-.715-.052-1.339-.351-1.742-.221-.286-.624-.442-1.079-.442-.637 0-1.261.169-2.054 1.053m9.539 3.471c-.052-.117-.156-.169-.273-.182-.442.572-1.001.858-1.56.858-.949 0-1.742-.962-1.742-2.483 0-1.43.624-2.288 1.482-2.288.767 0 .871.455.923.91.039.351.221.468.494.468s.637-.169.637-.572c0-.715-.741-1.235-1.989-1.235-1.287 0-2.665 1.157-2.665 3.003 0 1.677.936 2.834 2.574 2.834.78 0 1.469-.247 2.119-1.313m2.84 3.263c.195-.351.364-.728.533-1.118 1.04-2.496 1.612-3.848 2.3-5.304.183-.377.573-.793 1.054-.832.078-.078.078-.351 0-.429-.325.013-.56.026-.923.026-.455 0-.702-.013-1.183-.026-.078.078-.078.351 0 .429.403.039.819.117.624.585l-1.3 2.977c-.091.221-.195.247-.312-.013l-1.144-2.704c-.234-.546-.377-.78.416-.845.078-.078.078-.351 0-.429-.481.013-1.001.026-1.47.026-.441 0-.792-.013-1.052-.026-.078.078-.078.351 0 .429.572.052.676.156 1.027.975l1.469 3.419c.117.273.312.858.182 1.222-.143.442-.312.793-.507 1.196-.143.26-.325.377-.65.377-.182 0-.234-.039-.377-.039-.377 0-.572.39-.572.559 0 .273.26.481.61.481.274 0 .794-.104 1.262-.936h.013m4.968-3.666c0 1.079-.143 1.131-.871 1.183-.078.078-.078.351 0 .429.546-.013.845-.026 1.39-.026.456 0 .625.013 1.184.026.078-.078.078-.351 0-.429-.533-.052-.676-.104-.676-1.183v-1.17c.299.013.48.104.74.468l.95 1.339c.26.377.299.533.299.702v.208c0 .039.013.065.052.065.26-.013.507-.026.897-.026.403 0 .676.013 1.066.026.078-.078.078-.351 0-.429-.442-.052-.832-.104-1.118-.546l-1.521-2.249a.31.31 0 0 1-.065-.182c0-.052.013-.091.052-.13l.988-1.092c.377-.39.78-.546 1.43-.572.078-.078.078-.351 0-.429-.481.013-.663.026-1.131.026-.494 0-.715-.013-1.196-.026-.078.078-.078.351 0 .429.78.039.364.533.234.663-.69.754-1.34 1.326-1.677 1.43V1.495c0-.845.052-1.365.052-1.365 0-.091-.052-.13-.17-.13-.324.13-1.3.312-1.82.351-.025.104 0 .312.079.39.676.039.832-.026.832 1.066v5.681m6.188 0c0 1.079-.143 1.144-.936 1.183-.078.078-.078.351 0 .429.546-.013.884-.026 1.456-.026.56 0 .884.013 1.443.026.078-.078.078-.351 0-.429-.793-.039-.936-.104-.936-1.183V1.495c0-.845.052-1.365.052-1.365 0-.091-.052-.13-.169-.13-.325.13-1.3.312-1.82.351-.026.104 0 .312.078.39.676.039.832-.026.832 1.066v5.681m2.526-1.079c0 1.326.897 2.795 2.73 2.795 1.937 0 2.756-1.612 2.756-2.912 0-1.352-.715-2.925-2.73-2.925-1.755 0-2.756 1.391-2.756 3.042m2.613-2.613c1.118 0 1.755 1.001 1.755 2.912 0 1.716-.793 2.067-1.404 2.067-1.352 0-1.846-1.664-1.846-2.665 0-1.131.403-2.314 1.495-2.314m5.48.923c.403-.416.923-.754 1.313-.754.832 0 1.547.936 1.547 2.405 0 1.066-.377 2.392-1.833 2.392-.234 0-.69-.065-.923-.273-.273-.234-.312-.299-.312-.78V5.291c0-.273.039-.39.208-.572m-.104-.429c-.052.052-.13.065-.13-.039 0-.468.052-.832.052-.832 0-.052-.065-.091-.17-.091-.363.143-.857.26-1.754.377-.026.078 0 .286.026.364.702.065.845.143.845.884v5.551c0 1.079-.143 1.144-.936 1.183-.078.078-.078.351 0 .429.546-.013.884-.026 1.456-.026.61 0 1.014.013 1.573.026.078-.078.078-.351 0-.429-.923-.052-1.066-.104-1.066-1.183V9.1c0-.169.039-.143.182-.091.312.13.715.195 1.13.195.729 0 1.379-.221 1.912-.728.61-.598.962-1.404.962-2.457 0-1.378-.975-2.652-2.301-2.652-.481 0-1.196.325-1.781.923M99.976.351l-.988 1.547c-.104.169-.143.221-.143.364 0 .091.09.169.182.169.09 0 .195-.052.39-.247l1.495-1.417-.04-.143a1.057 1.057 0 0 0-.714-.299.678.678 0 0 0-.182.026m-1.898 5.057c.247-1.469 1.157-1.586 1.469-1.586.494 0 1.079.273 1.079 1.365 0 .117-.052.182-.195.182l-2.353.039m3.406 2.457c-.481.494-.858.702-1.612.702-.468 0-1.014-.273-1.417-.936-.26-.429-.416-1.027-.416-1.781l3.458.026c.156 0 .247-.078.247-.221 0-1.092-.39-2.262-2.197-2.262-1.131 0-2.6 1.079-2.6 3.055 0 .728.182 1.43.61 1.924.443.52 1.054.832 1.99.832.988 0 1.69-.455 2.21-1.131-.04-.13-.117-.195-.273-.208m5.157-.403c0 .247-.026.351-.208.507-.48.416-.897.624-1.222.624-.702 0-1.43-.767-1.43-2.392 0-.936.182-1.456.377-1.729.403-.611.95-.65 1.21-.65.467 0 .792.169 1.052.468.182.208.221.299.221.702v2.47m-.143.962c.052-.052.156-.078.156.013 0 .312.143.767.143.767.104.039.143.026.247 0 .286-.234.78-.429 1.573-.52.078-.078.078-.273 0-.351-.832-.065-.949-.312-.949-.949V1.495c0-.845.052-1.365.052-1.365 0-.091-.052-.13-.169-.13-.325.13-1.3.312-1.82.351-.026.104 0 .312.078.39.676.039.832-.026.832 1.066v1.664c0 .091-.026.117-.117.117-.052 0-.585-.221-1.014-.221-.858 0-1.43.286-1.95.78-.559.559-.897 1.326-.897 2.288 0 1.599.806 2.769 2.21 2.769.507 0 .988-.26 1.625-.78m3.205-7.137c0 .338.312.676.624.676.364 0 .676-.338.676-.624 0-.312-.273-.676-.624-.676-.312 0-.676.312-.676.624m1.183 6.201V4.901c0-.65.052-1.482.052-1.482 0-.052-.065-.091-.17-.091-.376.143-.883.26-1.78.377-.026.078 0 .286.026.364.702.078.845.143.845.884v2.535c0 1.079-.143 1.118-.936 1.183-.078.078-.078.351 0 .429.546-.013.884-.026 1.456-.026.559 0 .884.013 1.443.026.078-.078.078-.351 0-.429-.793-.052-.936-.104-.936-1.183m4.785-1.443v1.729c0 .169-.078.26-.182.338-.338.273-.78.559-1.144.559-.65 0-.936-.52-.936-.923 0-.585.273-1.17 1.235-1.43l1.027-.273m0 2.405c.078.273.299.754 1 .754.638 0 1.106-.52 1.106-.585 0-.091-.117-.221-.17-.221-.077 0-.13.208-.402.208-.507 0-.52-.507-.52-1.105V5.564c0-1.846-1.014-2.197-1.963-2.197-1.066 0-2.145.741-2.145 1.443 0 .312.156.455.455.455.377 0 .572-.26.572-.429a.584.584 0 0 0-.04-.234.899.899 0 0 1-.025-.26c0-.403.585-.546 1.079-.546.442 0 1.053.221 1.053 1.69 0 .091-.04.143-.078.156l-1.118.273c-1.248.312-2.145 1.001-2.145 1.885 0 1.027.728 1.404 1.638 1.404.598 0 .845-.104 1.417-.546l.26-.208h.026"/></svg>