<svg width="120" height="13" viewBox="0 0 120 13" fill="none" xmlns="http://www.w3.org/2000/svg">
<path fill-rule="evenodd" clip-rule="evenodd" d="M24.2157 8.61497C24.939 8.56331 25.081 8.51164 25.081 7.43962V1.79533C25.081 0.778275 24.9448 0.771393 24.3745 0.742584C24.3364 0.740662 24.2964 0.738647 24.2544 0.736221C24.1769 0.658722 24.1511 0.452057 24.1769 0.348724C24.6935 0.309982 25.6623 0.129166 25.9851 0C26.1014 0 26.1531 0.0387573 26.1531 0.129166C26.1531 0.129166 26.1014 0.645813 26.1014 1.48535V5.95428C26.4372 5.85095 27.083 5.28265 27.7676 4.53352C27.8967 4.40436 28.31 3.91356 27.5351 3.8748C27.4576 3.79732 27.4576 3.52608 27.5351 3.44858C27.6668 3.45213 27.7789 3.45569 27.8825 3.45898C28.1546 3.46764 28.3678 3.47441 28.7233 3.47441C29.0457 3.47441 29.2315 3.4682 29.4743 3.46008H29.4744C29.5819 3.4565 29.7005 3.45255 29.847 3.44858C29.9245 3.52608 29.9245 3.79732 29.847 3.8748C29.2012 3.90063 28.8008 4.05562 28.4263 4.4431L27.4447 5.52806C27.4059 5.5668 27.393 5.60555 27.393 5.65721C27.393 5.72179 27.4188 5.78638 27.4576 5.83804L28.9687 8.07249C29.2529 8.51164 29.6404 8.56331 30.0795 8.61497C30.157 8.69247 30.157 8.96371 30.0795 9.0412C30.0056 9.03874 29.9359 9.03627 29.8687 9.03389C29.5838 9.02382 29.3444 9.01537 29.0204 9.01537C28.6453 9.01537 28.4034 9.02748 28.154 9.03996L28.1292 9.0412C28.0905 9.0412 28.0775 9.01537 28.0775 8.97662V8.76997C28.0775 8.60207 28.0388 8.44707 27.7805 8.07249L26.8376 6.74216C26.5793 6.38051 26.3985 6.2901 26.1014 6.27719V7.43962C26.1014 8.51164 26.2435 8.56331 26.773 8.61497C26.8505 8.69247 26.8505 8.96371 26.773 9.0412L26.7071 9.03964L26.5991 9.03687C26.5291 9.03499 26.4657 9.03314 26.407 9.03136L26.3003 9.02808L26.2969 9.02798C26.0621 9.02072 25.8888 9.01537 25.5977 9.01537C25.1924 9.01537 24.9242 9.02258 24.5882 9.03162L24.5836 9.03175C24.4712 9.03476 24.351 9.03798 24.2157 9.0412C24.1382 8.96371 24.1382 8.69247 24.2157 8.61497ZM3.45504 4.35271H2.27968V1.7695C2.27968 1.4595 2.43467 1.20119 2.74465 1.20119H4.10083C5.06954 1.20119 5.27619 1.71783 5.56034 2.60904C5.71534 2.63487 5.85741 2.60904 5.98658 2.54445C5.92199 2.01489 5.72824 0.774963 5.70241 0.671631C5.70241 0.645813 5.6895 0.632889 5.65076 0.632889C5.43119 0.671631 5.32785 0.684555 5.01787 0.684555H1.72429C1.72429 0.684555 0.703922 0.671631 0.0581245 0.658722C-0.0193748 0.736221 -0.0193748 1.00746 0.0581245 1.08495C0.962238 1.1237 1.18181 1.18828 1.18181 2.2603V7.43962C1.18181 8.51164 0.962238 8.57622 0.0581245 8.61497C-0.0193748 8.69247 -0.0193748 8.9637 0.0581245 9.0412C0.691013 9.02829 1.7372 9.01537 1.7372 9.01537H4.51415C5.13411 9.01537 6.16739 9.0412 6.16739 9.0412C6.34821 8.3954 6.54195 7.54294 6.64528 6.88423C6.50321 6.81964 6.36113 6.7809 6.19323 6.81964C5.93491 7.74959 5.48284 8.51164 4.50122 8.51164H2.74465C2.4605 8.51164 2.27968 8.30499 2.27968 7.95627V4.84349H3.45504C4.55289 4.84349 4.59165 5.14056 4.63039 5.72179C4.70789 5.79929 4.97911 5.79929 5.05661 5.72179C5.05327 5.60471 5.04993 5.5015 5.0468 5.40518C5.03788 5.12962 5.03078 4.91058 5.03078 4.58517C5.03078 4.14604 5.0437 3.86189 5.05661 3.47441C4.97911 3.39691 4.70789 3.39691 4.63039 3.47441C4.59165 4.18478 4.55289 4.35271 3.45504 4.35271ZM9.79158 4.39145L9.78649 4.39825C9.74549 4.45331 9.66243 4.56476 9.66243 4.39145C9.66243 4.00397 9.72701 3.40984 9.72701 3.40984C9.72701 3.34526 9.67534 3.3065 9.57201 3.3065C9.21036 3.44858 8.68081 3.56482 7.78962 3.68106C7.76378 3.75856 7.78962 3.96521 7.81543 4.04271C8.5129 4.1073 8.65497 4.17188 8.65497 4.92101V7.43962C8.65497 8.49873 8.52582 8.5504 7.75086 8.61497C7.67336 8.69247 7.67336 8.96371 7.75086 9.04121L7.90395 9.03735L8.03734 9.03389L8.05745 9.03334L8.06905 9.03302C8.43464 9.02335 8.7354 9.01538 9.17162 9.01538C9.52396 9.01538 9.7436 9.0217 10.0294 9.02992C10.1522 9.03345 10.2873 9.03732 10.4503 9.04121C10.5278 8.96371 10.5278 8.69247 10.4503 8.61497C9.79158 8.5504 9.67534 8.49873 9.67534 7.43962V5.3214C9.67534 5.05016 9.79158 4.89517 9.89492 4.77892C10.3857 4.30103 10.8895 4.01688 11.3932 4.01688C11.6515 4.01688 11.9227 4.18478 12.0777 4.48186C12.2069 4.74017 12.2327 5.08891 12.2327 5.47639V7.43962C12.2327 8.49873 12.1035 8.5504 11.4319 8.61497C11.3673 8.69247 11.3673 8.96371 11.4319 9.04121C11.5852 9.03757 11.7158 9.03392 11.8359 9.03056C12.141 9.02202 12.3787 9.01538 12.7493 9.01538C13.1352 9.01538 13.3908 9.02223 13.7159 9.03094L13.9412 9.03688L14.1184 9.04121C14.183 8.96371 14.183 8.69247 14.1184 8.61497C13.3951 8.5504 13.2531 8.49873 13.2531 7.43962V5.51515C13.2531 4.80476 13.2014 4.1848 12.9043 3.78439C12.6848 3.50024 12.2844 3.34525 11.8323 3.34525C11.1994 3.34525 10.5795 3.51315 9.79158 4.39145ZM15.4349 9.01537C15.4349 8.4729 15.3962 7.86584 15.3445 7.23296C15.422 7.15546 15.6674 7.14255 15.7449 7.22003L15.7616 7.29039L15.7616 7.29057C15.8395 7.62044 15.9601 8.13185 16.2486 8.40833C16.3778 8.5504 16.6619 8.71831 17.1657 8.71831C17.6436 8.71831 18.2635 8.44707 18.2635 7.81418C18.2635 7.25879 18.0052 7.00047 16.9461 6.54842C15.9516 6.1351 15.5253 5.7347 15.5253 4.79182C15.5253 3.96521 16.3907 3.34525 17.3465 3.34525C17.8376 3.34525 18.301 3.44191 18.6712 3.51912C18.8073 3.54752 18.9309 3.57327 19.0385 3.59064C19.033 3.77321 19.0179 3.96526 19.0026 4.16171C18.9821 4.4239 18.961 4.69394 18.961 4.95975C18.8835 5.03725 18.6252 5.05016 18.5477 4.97266C18.3798 3.8748 17.6306 3.77147 17.3465 3.77147C16.9074 3.77147 16.4424 4.06854 16.4424 4.5981C16.4424 5.3042 16.9528 5.49988 17.7201 5.79395L17.734 5.79929C18.5994 6.1351 19.2452 6.63882 19.2452 7.51712C19.2452 8.79581 17.9148 9.14453 17.1915 9.14453C16.7136 9.14453 16.3649 9.09286 16.0161 9.00246C15.9257 8.97662 15.8482 8.97662 15.7578 8.97662C15.6932 8.97662 15.5641 8.98953 15.4349 9.01537ZM21.2288 1.27869C21.2288 1.6145 21.5388 1.95032 21.8488 1.95032C22.2104 1.95032 22.5204 1.6145 22.5204 1.33035C22.5204 1.02037 22.2492 0.658722 21.9004 0.658722C21.5905 0.658722 21.2288 0.968704 21.2288 1.27869ZM22.4042 7.43962V4.86932C22.4042 4.22353 22.4558 3.39691 22.4558 3.39691C22.4558 3.34525 22.3912 3.30649 22.2879 3.30649C21.9133 3.44858 21.4096 3.56482 20.5184 3.68106C20.4926 3.75856 20.5184 3.96521 20.5443 4.04271C21.2417 4.12019 21.3838 4.18478 21.3838 4.92099V7.43962C21.3838 8.51164 21.2417 8.5504 20.4538 8.61497C20.3763 8.69247 20.3763 8.9637 20.4538 9.0412L20.6153 9.03723L20.7882 9.03278C21.1563 9.02321 21.4578 9.01537 21.9004 9.01537C22.3217 9.01537 22.6092 9.0228 22.9659 9.03203L22.9813 9.03244L23.0061 9.03308C23.1079 9.03569 23.2157 9.03845 23.3341 9.0412C23.4116 8.9637 23.4116 8.69247 23.3341 8.61497C22.5462 8.56331 22.4042 8.51164 22.4042 7.43962ZM31.8257 7.43962C31.8257 8.51164 31.6836 8.57623 30.8957 8.61497C30.8182 8.69247 30.8182 8.96371 30.8957 9.0412C31.0157 9.03835 31.1256 9.03549 31.2301 9.03278H31.2304C31.5983 9.02321 31.8998 9.01537 32.3423 9.01537C32.7636 9.01537 33.0511 9.0228 33.4078 9.03203L33.4231 9.03244C33.5322 9.03523 33.6479 9.03822 33.776 9.0412C33.8535 8.96371 33.8535 8.69247 33.776 8.61497C32.9881 8.57623 32.846 8.51164 32.846 7.43962V1.48535C32.846 0.645813 32.8977 0.129166 32.8977 0.129166C32.8977 0.0387573 32.846 0 32.7298 0C32.4069 0.129166 31.4382 0.309982 30.9215 0.348724C30.8957 0.452057 30.9215 0.658722 30.999 0.736221C31.0402 0.738602 31.0795 0.74057 31.1169 0.742447L31.1191 0.742584C31.6895 0.771393 31.8257 0.778275 31.8257 1.79533V7.43962ZM37.6436 9.14453C35.8224 9.14453 34.9312 7.68503 34.9312 6.3676C34.9312 4.72726 35.9258 3.34525 37.6694 3.34525C39.6714 3.34525 40.3818 4.90808 40.3818 6.25134C40.3818 7.54295 39.5681 9.14453 37.6436 9.14453ZM39.271 6.66466C39.271 4.76601 38.6381 3.77147 37.5273 3.77147C36.4424 3.77147 36.042 4.94682 36.042 6.07051C36.042 7.06505 36.5328 8.71831 37.8761 8.71831C38.4831 8.71831 39.271 8.36957 39.271 6.66466ZM43.5678 4.68852C43.9682 4.27521 44.4849 3.93939 44.8723 3.93939C45.6989 3.93939 46.4093 4.86934 46.4093 6.32886C46.4093 7.38797 46.0348 8.7054 44.5882 8.7054C44.3557 8.7054 43.9036 8.64081 43.6711 8.43414C43.3999 8.20166 43.3611 8.13708 43.3611 7.65919V5.25682C43.3611 4.98558 43.3999 4.86934 43.5678 4.68852ZM43.4645 4.2623C43.4128 4.31395 43.3353 4.32687 43.3353 4.22354C43.3353 3.75856 43.387 3.39691 43.387 3.39691C43.387 3.34526 43.3224 3.3065 43.2191 3.3065C42.8574 3.44858 42.3666 3.56482 41.4754 3.68106C41.4496 3.75856 41.4754 3.96521 41.5013 4.04271C42.1987 4.1073 42.3408 4.18478 42.3408 4.92101V10.4361C42.3408 11.5082 42.1987 11.5728 41.4109 11.6115C41.3333 11.689 41.3333 11.9602 41.4109 12.0377C41.5304 12.0349 41.6399 12.032 41.7441 12.0293L41.7453 12.0293C42.1132 12.0197 42.4148 12.0119 42.8574 12.0119C43.4645 12.0119 43.8649 12.0248 44.4203 12.0377C44.4978 11.9602 44.4978 11.689 44.4203 11.6115C43.5032 11.5598 43.3611 11.5082 43.3611 10.4361V9.04121C43.3611 8.88408 43.3951 8.89661 43.5159 8.94122L43.542 8.95079C43.852 9.07996 44.2524 9.14455 44.6657 9.14455C45.389 9.14455 46.0348 8.92496 46.5643 8.42123C47.1714 7.8271 47.5201 7.02632 47.5201 5.98012C47.5201 4.61102 46.5514 3.34525 45.234 3.34525C44.7561 3.34525 44.0457 3.66815 43.4645 4.2623ZM51.5772 3.7973C51.2672 3.7973 50.3631 3.91354 50.1177 5.37306L52.4555 5.3343C52.5976 5.3343 52.6492 5.26973 52.6492 5.15349C52.6492 4.06854 52.068 3.7973 51.5772 3.7973ZM51.9001 8.51164C52.6492 8.51164 53.0238 8.30499 53.5017 7.81418C53.6567 7.8271 53.7342 7.89168 53.7729 8.02083C53.2563 8.69246 52.5588 9.14453 51.5772 9.14453C50.6473 9.14453 50.0402 8.83455 49.601 8.31792C49.1748 7.8271 48.994 7.12962 48.994 6.40633C48.994 4.4431 50.4535 3.37108 51.5772 3.37108C53.3725 3.37108 53.76 4.53351 53.76 5.61845C53.76 5.76053 53.6696 5.83804 53.5146 5.83804L50.0789 5.81221C50.0789 6.56133 50.2339 7.15547 50.4923 7.5817C50.8926 8.24042 51.4351 8.51164 51.9001 8.51164ZM59.2221 7.41379C59.2221 7.65919 59.1962 7.76253 59.0154 7.91751C58.5375 8.33083 58.1242 8.53748 57.8013 8.53748C57.1039 8.53748 56.3806 7.77544 56.3806 6.16093C56.3806 5.23099 56.5614 4.71434 56.7551 4.4431C57.1555 3.83606 57.698 3.79732 57.9563 3.79732C58.4213 3.79732 58.7442 3.96523 59.0025 4.26228C59.1833 4.46895 59.2221 4.55936 59.2221 4.95975V7.41379ZM59.08 8.36958C59.1317 8.31792 59.235 8.29208 59.235 8.38249C59.235 8.69247 59.3771 9.14453 59.3771 9.14453C59.4756 9.18147 59.5154 9.17146 59.6084 9.14806L59.6225 9.14453C59.9066 8.91205 60.3974 8.71831 61.1853 8.6279C61.2628 8.5504 61.2628 8.35666 61.1853 8.27916C60.3587 8.21458 60.2424 7.96918 60.2424 7.33629V1.48535C60.2424 0.645813 60.2941 0.129166 60.2941 0.129166C60.2941 0.0387573 60.2424 0 60.1262 0C59.8033 0.129166 58.8346 0.309982 58.318 0.348724C58.2921 0.452057 58.318 0.658722 58.3955 0.736221C58.4375 0.738647 58.4775 0.740662 58.5155 0.742584C59.0859 0.771393 59.2221 0.778275 59.2221 1.79533V3.44858C59.2221 3.53899 59.1962 3.56483 59.1058 3.56483C59.0925 3.56483 59.0473 3.55019 58.9802 3.52846C58.7875 3.46605 58.4145 3.34525 58.0984 3.34525C57.2459 3.34525 56.6776 3.62939 56.161 4.12021C55.6056 4.6756 55.2698 5.43764 55.2698 6.39342C55.2698 7.98209 56.0706 9.14453 57.4655 9.14453C57.9692 9.14453 58.4471 8.88622 59.08 8.36958ZM63.4796 1.95032C63.1696 1.95032 62.8596 1.6145 62.8596 1.27869C62.8596 0.968704 63.2213 0.658722 63.5313 0.658722C63.88 0.658722 64.1512 1.02037 64.1512 1.33035C64.1512 1.6145 63.8412 1.95032 63.4796 1.95032ZM64.0349 4.86932V7.43962C64.0349 8.51164 64.177 8.56331 64.9649 8.61497C65.0424 8.69247 65.0424 8.9637 64.9649 9.0412C64.8371 9.03824 64.7216 9.03526 64.6127 9.03244L64.5967 9.03203C64.24 9.0228 63.9525 9.01537 63.5313 9.01537C63.0886 9.01537 62.787 9.02321 62.419 9.03278C62.3145 9.03549 62.2046 9.03835 62.0847 9.0412C62.0071 8.9637 62.0071 8.69247 62.0847 8.61497C62.8725 8.5504 63.0146 8.51164 63.0146 7.43962V4.92099C63.0146 4.18478 62.8725 4.12019 62.1751 4.04271C62.1492 3.96521 62.1234 3.75856 62.1492 3.68106C63.0404 3.56482 63.5442 3.44858 63.9187 3.30649C64.022 3.30649 64.0866 3.34525 64.0866 3.39691C64.0866 3.39691 64.0349 4.22353 64.0349 4.86932ZM68.2876 11.0819C68.4814 10.7332 68.6493 10.3586 68.8172 9.97116C69.8504 7.49129 70.4187 6.14803 71.1033 4.70143C71.2841 4.32687 71.6716 3.91356 72.1495 3.8748C72.227 3.79732 72.227 3.52608 72.1495 3.44858C71.8266 3.46149 71.5941 3.47441 71.2325 3.47441C70.9036 3.47441 70.6841 3.46758 70.405 3.45888L70.397 3.45865C70.2947 3.45544 70.1841 3.45201 70.0571 3.44858C69.9796 3.52608 69.9796 3.79732 70.0571 3.8748C70.4575 3.91356 70.8708 3.99104 70.6771 4.45602L69.3855 7.41379C69.295 7.63336 69.1917 7.65919 69.0755 7.40086L67.9389 4.71434L67.9058 4.63765C67.6948 4.14973 67.6025 3.93626 68.3522 3.8748C68.4297 3.79732 68.4297 3.52608 68.3522 3.44858C67.8743 3.46149 67.3577 3.47441 66.8927 3.47441C66.4535 3.47441 66.1048 3.46149 65.8465 3.44858C65.769 3.52608 65.769 3.79732 65.8465 3.8748C66.4148 3.92647 66.5181 4.02979 66.8669 4.84349L68.3264 8.24042C68.4426 8.51164 68.6364 9.09286 68.5072 9.45451C68.3651 9.89366 68.1972 10.2424 68.0035 10.6428C67.8614 10.9011 67.6805 11.0173 67.3576 11.0173C67.2618 11.0173 67.2022 11.0065 67.1463 10.9962C67.0967 10.9872 67.0498 10.9786 66.9831 10.9786C66.6085 10.9786 66.4148 11.3661 66.4148 11.534C66.4148 11.8052 66.6731 12.0119 67.0219 12.0119C67.2931 12.0119 67.8097 11.9086 68.2747 11.0819H68.2876ZM76.4931 7.72377V6.00594L75.4728 6.27718C74.517 6.53551 74.2458 7.11671 74.2458 7.69794C74.2458 8.09833 74.5299 8.61497 75.1757 8.61497C75.5374 8.61497 75.9765 8.33081 76.3123 8.05959C76.4157 7.98209 76.4931 7.89168 76.4931 7.72377ZM77.4877 9.14453C76.7902 9.14453 76.5707 8.66664 76.4931 8.39542H76.4673L76.209 8.60205C75.6407 9.0412 75.3953 9.14453 74.8012 9.14453C73.897 9.14453 73.1737 8.76996 73.1737 7.7496C73.1737 6.87131 74.0649 6.18677 75.3049 5.87679L76.4157 5.60555C76.4544 5.59262 76.4931 5.54097 76.4931 5.45056C76.4931 3.99104 75.8861 3.77147 75.447 3.77147C74.9562 3.77147 74.3749 3.91356 74.3749 4.31395C74.3749 4.45602 74.3879 4.53352 74.4008 4.57227C74.4266 4.62393 74.4395 4.71434 74.4395 4.80475C74.4395 4.97266 74.2458 5.23097 73.8712 5.23097C73.5741 5.23097 73.4191 5.0889 73.4191 4.77892C73.4191 4.08145 74.4912 3.34525 75.5503 3.34525C76.4931 3.34525 77.5006 3.69398 77.5006 5.52806V7.45253C77.5006 8.04668 77.5135 8.55038 78.0172 8.55038C78.194 8.55038 78.2775 8.46263 78.3357 8.40149C78.3668 8.36882 78.3907 8.34375 78.4176 8.34375C78.4693 8.34375 78.5855 8.4729 78.5855 8.56331C78.5855 8.62788 78.1205 9.14453 77.4877 9.14453ZM82.8035 0.942871C82.8035 0.994537 82.881 1.02037 83.0102 1.03328C83.2297 1.07204 83.6301 1.17537 84.1597 1.92448L86.0196 4.57227C86.1358 4.71434 86.2004 4.83058 86.2004 4.95975C86.2004 5.03725 86.1487 5.15347 86.0713 5.25681L84.3018 7.6721C84.0176 8.05959 83.5656 8.62788 82.8164 8.66664C82.7389 8.67955 82.6744 8.69247 82.6744 8.75705V9.01537L82.6873 9.0412L82.8531 9.03557C83.1672 9.02478 83.4415 9.01537 83.7722 9.01537C84.135 9.01537 84.4106 9.02206 84.7632 9.03064L84.7693 9.03078L84.7786 9.03101L84.7948 9.03142L85.0255 9.03688L85.2188 9.0412L85.2575 9.01537V8.75705C85.2575 8.74706 85.2567 8.73705 85.2543 8.72749C85.2474 8.70001 85.228 8.67622 85.1801 8.66664L84.9346 8.64081C84.418 8.58914 84.5213 8.33081 84.7409 8.02083L86.4458 5.68304C86.5233 5.57971 86.6008 5.50223 86.6396 5.50223C86.6912 5.50223 86.7429 5.54095 86.8204 5.64429L88.5253 8.07249C88.8353 8.51164 88.874 8.58914 88.3574 8.64081L88.0991 8.66664C88.0958 8.66747 88.0926 8.66835 88.0895 8.66928L88.0847 8.67079C88.0804 8.67224 88.0762 8.67381 88.0723 8.67554C88.0647 8.67886 88.058 8.68268 88.0521 8.68709C88.0317 8.70235 88.0216 8.72461 88.0216 8.75705V9.01537L88.0603 9.0412C88.6674 9.02829 89.3778 9.01537 89.6748 9.01537C89.9719 9.01537 90.5143 9.02829 91.031 9.0412L91.0568 9.01537V8.75705C91.0568 8.71831 91.031 8.67955 90.9664 8.66664C90.3852 8.62788 89.946 8.20166 89.5973 7.69794L87.6082 4.98558C87.4791 4.81767 87.4016 4.68851 87.4016 4.55934C87.4016 4.4431 87.4533 4.33978 87.5695 4.17188L89.2615 1.88574C89.6102 1.42076 89.8944 1.05911 90.6823 1.03328C90.7856 1.03328 90.7985 0.981613 90.7985 0.942871V0.684555L90.7598 0.658722C90.2431 0.671631 89.804 0.684555 89.5069 0.684555C89.3631 0.684555 89.1798 0.681519 88.9704 0.676926C88.8047 0.673294 88.6226 0.668686 88.4306 0.663818L88.2282 0.658722L88.2024 0.684555V0.942871C88.2024 1.00745 88.2412 1.03328 88.2928 1.03328L88.6803 1.05911C89.0548 1.08495 88.9903 1.30452 88.7578 1.62741L87.0916 3.88773C87.0141 3.99104 86.9625 4.04271 86.9237 4.04271C86.885 4.04271 86.8333 3.99104 86.7687 3.90063L85.2317 1.62741C84.9734 1.27869 84.8701 1.08495 85.2963 1.05911L85.7096 1.03328C85.7354 1.03328 85.7742 1.00745 85.7742 0.942871V0.697464C85.7613 0.697464 85.7484 0.658722 85.7484 0.658722C85.1413 0.671631 84.4826 0.684555 84.1726 0.684555C83.8751 0.684555 83.3991 0.672653 82.9044 0.660278L82.8423 0.658722L82.8035 0.697464V0.942871ZM94.4736 9.14453C92.6524 9.14453 91.7612 7.68503 91.7612 6.3676C91.7612 4.72726 92.7557 3.34525 94.4994 3.34525C96.5014 3.34525 97.2118 4.90808 97.2118 6.25134C97.2118 7.54295 96.398 9.14453 94.4736 9.14453ZM96.101 6.66466C96.101 4.76601 95.4681 3.77147 94.3573 3.77147C93.2724 3.77147 92.872 4.94682 92.872 6.07051C92.872 7.06505 93.3628 8.71831 94.7061 8.71831C95.3131 8.71831 96.101 8.36957 96.101 6.66466ZM98.7575 7.23296C98.8091 7.86584 98.8479 8.4729 98.8479 9.01537C98.9771 8.98953 99.1062 8.97662 99.1708 8.97662C99.2612 8.97662 99.3387 8.97662 99.4291 9.00246C99.7778 9.09286 100.127 9.14453 100.604 9.14453C101.328 9.14453 102.658 8.79581 102.658 7.51712C102.658 6.63882 102.012 6.1351 101.147 5.79929L101.133 5.79395C100.366 5.49988 99.8554 5.30421 99.8554 4.5981C99.8554 4.06854 100.32 3.77147 100.759 3.77147C101.044 3.77147 101.793 3.8748 101.961 4.97266C102.038 5.05016 102.296 5.03725 102.374 4.95975C102.374 4.69394 102.395 4.4239 102.416 4.16171C102.431 3.96526 102.446 3.77321 102.451 3.59064C102.344 3.57327 102.22 3.54752 102.084 3.51912C101.714 3.44191 101.251 3.34525 100.759 3.34525C99.8037 3.34525 98.9383 3.96521 98.9383 4.79182C98.9383 5.7347 99.3645 6.1351 100.359 6.54842C101.418 7.00047 101.676 7.25879 101.676 7.81418C101.676 8.44707 101.057 8.71831 100.579 8.71831C100.075 8.71831 99.7907 8.5504 99.6616 8.40833C99.3731 8.13182 99.2524 7.62035 99.1746 7.29047L99.1579 7.22003C99.0804 7.14255 98.835 7.15546 98.7575 7.23296ZM106.54 3.7973C106.23 3.7973 105.326 3.91354 105.081 5.37306L107.419 5.3343C107.561 5.3343 107.612 5.26973 107.612 5.15349C107.612 4.06854 107.031 3.7973 106.54 3.7973ZM106.863 8.51164C107.612 8.51164 107.987 8.30499 108.465 7.81418C108.62 7.8271 108.697 7.89168 108.736 8.02083C108.22 8.69246 107.522 9.14453 106.54 9.14453C105.611 9.14453 105.003 8.83455 104.564 8.31792C104.138 7.8271 103.957 7.12962 103.957 6.40633C103.957 4.4431 105.417 3.37108 106.54 3.37108C108.336 3.37108 108.723 4.53351 108.723 5.61845C108.723 5.76053 108.633 5.83804 108.478 5.83804L105.042 5.81221C105.042 6.56133 105.197 7.15547 105.456 7.5817C105.856 8.24042 106.398 8.51164 106.863 8.51164ZM110.945 4.92101V7.43962C110.945 8.51166 110.79 8.56332 109.989 8.61497C109.912 8.69247 109.912 8.96371 109.989 9.04121C110.532 9.02829 110.945 9.01538 111.462 9.01538C111.931 9.01538 112.359 9.02553 112.837 9.03683H112.838L113.025 9.04121C113.102 8.96371 113.102 8.69247 113.025 8.61497C112.121 8.5504 111.966 8.51166 111.966 7.43962V5.6443C111.966 5.30849 112.121 5.01141 112.276 4.77892C112.418 4.57227 112.715 4.14604 112.87 4.14604C112.96 4.14604 113.063 4.15897 113.141 4.23647C113.169 4.26469 113.197 4.29849 113.227 4.33406C113.333 4.46118 113.459 4.61102 113.671 4.61102C113.98 4.61102 114.278 4.28813 114.278 3.96523C114.278 3.71982 114.045 3.34525 113.503 3.34525C112.896 3.34525 112.366 3.91356 112.069 4.41728C111.991 4.55936 111.953 4.49477 111.953 4.43019C111.953 4.01688 112.017 3.39691 112.017 3.39691C112.017 3.34526 111.953 3.3065 111.849 3.3065C111.488 3.44858 110.971 3.56482 110.08 3.68106C110.054 3.75856 110.054 3.96521 110.106 4.04271C110.803 4.1073 110.945 4.21062 110.945 4.92101ZM117.804 3.7973C117.494 3.7973 116.59 3.91354 116.345 5.37306L118.683 5.3343C118.825 5.3343 118.876 5.26973 118.876 5.15349C118.876 4.06854 118.295 3.7973 117.804 3.7973ZM118.127 8.51164C118.876 8.51164 119.251 8.30499 119.729 7.81418C119.884 7.8271 119.961 7.89168 120 8.02083C119.483 8.69246 118.786 9.14453 117.804 9.14453C116.874 9.14453 116.267 8.83455 115.828 8.31792C115.402 7.8271 115.221 7.12962 115.221 6.40633C115.221 4.4431 116.681 3.37108 117.804 3.37108C119.6 3.37108 119.987 4.53351 119.987 5.61845C119.987 5.76053 119.897 5.83804 119.742 5.83804L116.306 5.81221C116.306 6.56133 116.461 7.15547 116.719 7.5817C117.12 8.24042 117.662 8.51164 118.127 8.51164Z" fill="black"/>
</svg>
