<svg xmlns="http://www.w3.org/2000/svg" width="120" height="9" fill="none"><path fill="#000" d="M119.584 2.704a1.62 1.62 0 0 0-.143.18 5.856 5.856 0 0 0-.542.934c-.06.133-.131.295-.212.485-.079.19-.169.396-.27.616a19.01 19.01 0 0 1-.322.681 10.186 10.186 0 0 1-.795 1.338 3.985 3.985 0 0 1-.469.571 2.27 2.27 0 0 1-.526.404 1.145 1.145 0 0 1-.571.155 1.11 1.11 0 0 1-.38-.057.7.7 0 0 1-.24-.143.427.427 0 0 1-.123-.18.405.405 0 0 1 .008-.355.486.486 0 0 1 .119-.154.621.621 0 0 1 .183-.106.78.78 0 0 1 .229-.05l.485.486a.51.51 0 0 0 .257-.106c.084-.06.173-.15.265-.273.095-.123.199-.276.31-.461.112-.185.238-.407.379-.665-.005-.033-.019-.105-.04-.216a33.075 33.075 0 0 0-.082-.412c-.03-.163-.065-.343-.106-.538a32.358 32.358 0 0 0-.122-.596 24.97 24.97 0 0 0-.139-.587 9.87 9.87 0 0 0-.139-.535 6.022 6.022 0 0 0-.118-.387c-.035-.1-.063-.152-.082-.155l-.758-.057v-.208l.114-.037c.054-.02.114-.038.179-.057a7.59 7.59 0 0 1 .208-.065 2.96 2.96 0 0 1 .208-.062 2.463 2.463 0 0 1 .294-.065.43.43 0 0 1 .237.065.57.57 0 0 1 .179.18c.055.079.103.174.147.285.046.11.09.233.13.372.071.247.145.554.221.921.076.365.155.771.236 1.22l1.273-3.043h.241l.693.229v.191l-.416.257Zm-3.981 3.235-.241.102c-.087.035-.178.07-.273.102-.092.032-.185.06-.277.081a1.15 1.15 0 0 1-.571-.008.643.643 0 0 1-.229-.11.418.418 0 0 1-.13-.184.474.474 0 0 1-.008-.252l.46-2.232c.028-.138.037-.26.029-.363a.675.675 0 0 0-.065-.257.354.354 0 0 0-.127-.15.26.26 0 0 0-.155-.053.879.879 0 0 0-.375.085c-.12.057-.23.125-.33.204a1.814 1.814 0 0 0-.261.237 1.053 1.053 0 0 0-.151.191l-.588 2.823h-.775l.559-2.725a1.21 1.21 0 0 0 .025-.277.815.815 0 0 0-.041-.265.455.455 0 0 0-.118-.196.304.304 0 0 0-.217-.077.694.694 0 0 0-.314.085 2.267 2.267 0 0 0-.318.204 3.108 3.108 0 0 0-.461.445l-.587 2.806h-.767l.718-3.549-.693-.077v-.24l1.252-.262h.342l-.159.771c.104-.098.214-.193.331-.285.117-.096.238-.179.363-.25.125-.07.251-.127.379-.17a1.15 1.15 0 0 1 .375-.066.642.642 0 0 1 .563.273c.057.077.098.16.123.25a1.7 1.7 0 0 1 .057.248 3.17 3.17 0 0 1 .718-.534c.133-.074.267-.13.403-.172.139-.043.272-.065.4-.065a.8.8 0 0 1 .363.078.61.61 0 0 1 .253.212.725.725 0 0 1 .122.334c.019.13.013.276-.02.437l-.469 2.255a.393.393 0 0 0 .077.33.423.423 0 0 0 .127.099c.049.021.1.032.155.032a.7.7 0 0 0 .236-.049l.29-.102v.286Zm-6.477-.025-.18.078a4.315 4.315 0 0 1-.306.118 4.32 4.32 0 0 1-.371.102c-.128.03-.249.045-.363.045a.679.679 0 0 1-.342-.073.469.469 0 0 1-.188-.192.638.638 0 0 1-.069-.265 1.123 1.123 0 0 1 .02-.29l.534-2.83-.718-.078v-.24l1.261-.262h.342l-.632 3.34a.407.407 0 0 0 0 .164.473.473 0 0 0 .061.139c.03.038.067.069.111.093a.356.356 0 0 0 .155.033.721.721 0 0 0 .171-.024c.068-.02.134-.04.2-.062.068-.024.13-.047.187-.069.057-.022.1-.037.127-.045v.318ZM109.089.8a.442.442 0 0 1-.037.18.417.417 0 0 1-.098.147.449.449 0 0 1-.155.106.586.586 0 0 1-.216.037c-.171 0-.3-.045-.387-.135a.471.471 0 0 1-.098-.498.511.511 0 0 1 .269-.257.532.532 0 0 1 .224-.045.514.514 0 0 1 .368.147.42.42 0 0 1 .097.151c.022.055.033.11.033.167Zm-3.128 2.024a.54.54 0 0 0-.029-.172.347.347 0 0 0-.102-.15.509.509 0 0 0-.192-.107.938.938 0 0 0-.301-.04.842.842 0 0 0-.441.122 1.494 1.494 0 0 0-.375.314 2.36 2.36 0 0 0-.306.449 3.73 3.73 0 0 0-.229.522 3.883 3.883 0 0 0-.138.526 2.476 2.476 0 0 0-.049.465c0 .171.017.329.053.473.035.141.084.264.147.367.065.1.14.18.224.237a.496.496 0 0 0 .277.085 1.7 1.7 0 0 0 .486-.069c.157-.049.296-.12.416-.212a1.03 1.03 0 0 0 .285-.343 1.04 1.04 0 0 0 .106-.481.536.536 0 0 0-.228-.457c-.152-.111-.379-.167-.681-.167a94.908 94.908 0 0 1-.331.012c-.076.006-.157.01-.244.012l.159-.334c.174 0 .349-.016.526-.049a1.64 1.64 0 0 0 .481-.171c.144-.082.261-.19.351-.323a.905.905 0 0 0 .135-.51Zm.75-.05a.994.994 0 0 1-.094.445 1.1 1.1 0 0 1-.249.335 1.45 1.45 0 0 1-.354.232 2.739 2.739 0 0 1-.404.155c.122.016.239.045.351.086.111.04.21.095.297.163s.157.15.208.249a.678.678 0 0 1 .078.33 1.21 1.21 0 0 1-.335.857 1.63 1.63 0 0 1-.35.285 2.54 2.54 0 0 1-.877.31 2.785 2.785 0 0 1-.441.037c-.285 0-.531-.044-.738-.13a1.534 1.534 0 0 1-.514-.351 1.446 1.446 0 0 1-.298-.502 1.758 1.758 0 0 1-.098-.58c0-.19.029-.388.086-.595a2.9 2.9 0 0 1 .253-.603c.111-.199.245-.387.4-.563a2.698 2.698 0 0 1 1.178-.787c.234-.08.482-.119.743-.119.228 0 .416.022.563.065a.957.957 0 0 1 .354.168.55.55 0 0 1 .188.236c.035.09.053.182.053.278Zm-4.348-.158c0 .054-.008.11-.024.167a.374.374 0 0 1-.098.159.682.682 0 0 1-.196.134 1.09 1.09 0 0 1-.322.082l-.478-.644a.822.822 0 0 0-.399.122 1.171 1.171 0 0 0-.31.285c-.087.117-.162.25-.225.4a3.431 3.431 0 0 0-.228.893 3.57 3.57 0 0 0-.025.388c0 .136.013.27.037.404.027.13.07.249.127.355a.782.782 0 0 0 .228.252.605.605 0 0 0 .351.098c.111 0 .224-.019.338-.057a1.78 1.78 0 0 0 .343-.167 2.83 2.83 0 0 0 .351-.253 6.35 6.35 0 0 0 .355-.322v.526a6.688 6.688 0 0 1-.298.27 2.774 2.774 0 0 1-.371.264c-.136.082-.286.15-.449.204a1.6 1.6 0 0 1-.518.082c-.198 0-.378-.034-.538-.102a1.133 1.133 0 0 1-.404-.302 1.436 1.436 0 0 1-.253-.49 2.233 2.233 0 0 1-.09-.66c0-.25.029-.49.086-.718a3.03 3.03 0 0 1 .245-.64 2.684 2.684 0 0 1 .828-.955c.165-.117.341-.206.526-.269.185-.063.371-.094.559-.094.149 0 .278.02.387.057a.837.837 0 0 1 .265.143.56.56 0 0 1 .151.192.447.447 0 0 1 .049.196Zm-6.93.999c0-.199-.019-.374-.057-.526a1.309 1.309 0 0 0-.155-.384.702.702 0 0 0-.237-.236.557.557 0 0 0-.293-.082.776.776 0 0 0-.51.2c-.155.13-.29.303-.404.518a3.381 3.381 0 0 0-.367 1.53c0 .206.019.387.057.542.038.155.091.286.16.392.067.103.146.18.236.232.09.052.187.078.293.078.13 0 .253-.033.367-.098a1.18 1.18 0 0 0 .315-.27 1.97 1.97 0 0 0 .252-.395 3.29 3.29 0 0 0 .302-.991c.027-.177.041-.347.041-.51Zm.844.037c0 .225-.026.447-.077.664a2.772 2.772 0 0 1-.216.612 2.652 2.652 0 0 1-.339.535c-.13.16-.279.3-.444.42a2.023 2.023 0 0 1-.535.273 1.829 1.829 0 0 1-.612.102c-.228 0-.435-.037-.62-.11a1.284 1.284 0 0 1-.469-.314 1.471 1.471 0 0 1-.297-.498 1.993 1.993 0 0 1-.102-.657 3.12 3.12 0 0 1 .281-1.289c.093-.195.204-.376.335-.542a2.21 2.21 0 0 1 .44-.432 2.05 2.05 0 0 1 .538-.286 1.877 1.877 0 0 1 1.192-.008c.182.063.34.16.477.294.138.133.247.302.326.505.082.204.122.448.122.73Zm-4.099-.804c0 .141-.04.27-.122.388a1.354 1.354 0 0 1-.347.33 3.843 3.843 0 0 1-.559.306c-.22.1-.47.208-.75.322a1.617 1.617 0 0 0-.612.445c-.076.092-.137.19-.184.293a.68.68 0 0 0-.028.514.73.73 0 0 0 .106.204c.046.06.102.109.167.147.065.038.14.057.224.057.223 0 .43-.056.62-.167a2.77 2.77 0 0 0 .608-.518l.392.175a2.876 2.876 0 0 1-.787.67 1.93 1.93 0 0 1-.975.244c-.158 0-.309-.022-.453-.065a1.107 1.107 0 0 1-.375-.188.952.952 0 0 1-.347-.775c0-.13.038-.26.114-.387a1.58 1.58 0 0 1 .302-.363c.125-.117.268-.223.428-.319.163-.097.33-.182.498-.252.204-.08.386-.16.546-.245.16-.084.297-.171.408-.261.114-.09.202-.181.261-.274a.513.513 0 0 0 .07-.428.313.313 0 0 0-.074-.13.307.307 0 0 0-.138-.094.564.564 0 0 0-.22-.037.86.86 0 0 0-.225.029.787.787 0 0 0-.208.081 1.497 1.497 0 0 0-.212.147c-.07.06-.148.132-.233.216l-.273-.249c.18-.233.383-.398.612-.493.228-.095.483-.143.763-.143.155 0 .293.023.416.07.125.046.23.107.318.183a.747.747 0 0 1 .27.567Zm-4.642.767c0-.199-.019-.374-.057-.526a1.314 1.314 0 0 0-.155-.384.703.703 0 0 0-.236-.236.556.556 0 0 0-.294-.082.776.776 0 0 0-.51.2c-.155.13-.29.303-.404.518a3.386 3.386 0 0 0-.367 1.53c0 .206.02.387.057.542.038.155.091.286.16.392.067.103.146.18.236.232.09.052.188.078.294.078.13 0 .253-.033.367-.098.117-.068.221-.158.314-.27.095-.114.18-.246.253-.395a3.291 3.291 0 0 0 .302-.991c.027-.177.04-.347.04-.51Zm.845.037c0 .225-.026.447-.078.664a2.772 2.772 0 0 1-.216.612 2.651 2.651 0 0 1-.338.535c-.131.16-.28.3-.445.42a2.026 2.026 0 0 1-.535.273 1.828 1.828 0 0 1-.611.102c-.229 0-.435-.037-.62-.11a1.284 1.284 0 0 1-.47-.314 1.471 1.471 0 0 1-.297-.498 1.993 1.993 0 0 1-.102-.657 3.114 3.114 0 0 1 .282-1.289 2.8 2.8 0 0 1 .334-.542 2.21 2.21 0 0 1 .44-.432c.166-.123.346-.218.539-.286a1.876 1.876 0 0 1 1.19-.008c.183.063.342.16.478.294.139.133.248.302.326.505.082.204.123.448.123.73ZM84.4 5.914l-.184.078c-.09.038-.193.077-.31.118a4.32 4.32 0 0 1-.371.102 1.64 1.64 0 0 1-.367.045.672.672 0 0 1-.339-.073.47.47 0 0 1-.187-.192.648.648 0 0 1-.07-.265 1.471 1.471 0 0 1 .02-.29l.217-1.13h-1.7l-.352 1.848h-.779l.67-3.549-.71-.077v-.24l1.26-.262h.334l-.35 1.88h1.704l.343-1.778h.767l-.608 3.239a.369.369 0 0 0 .057.302c.03.038.068.069.115.093a.36.36 0 0 0 .154.033.72.72 0 0 0 .172-.024 4.284 4.284 0 0 0 .387-.13c.057-.023.1-.038.127-.046v.318Zm-5.703-1.22a1.23 1.23 0 0 0-.036-.317.514.514 0 0 0-.123-.225.526.526 0 0 0-.232-.134 1.2 1.2 0 0 0-.355-.045.458.458 0 0 0-.106.016 1.743 1.743 0 0 0-.257.09.617.617 0 0 0-.094.045l-.183.962a1.12 1.12 0 0 0-.025.217c0 .122.023.224.07.305a.573.573 0 0 0 .17.188.732.732 0 0 0 .409.118.522.522 0 0 0 .297-.093.893.893 0 0 0 .241-.262c.07-.111.125-.24.163-.387.041-.15.062-.309.062-.477Zm.8.017c0 .275-.052.51-.155.706-.1.195-.234.356-.4.481a1.648 1.648 0 0 1-.559.273 2.333 2.333 0 0 1-.624.086c-.133 0-.273-.02-.42-.057a1.38 1.38 0 0 1-.404-.176 1.064 1.064 0 0 1-.301-.301.788.788 0 0 1-.119-.437 1.395 1.395 0 0 1 .017-.216l.477-2.464-.71-.077v-.24l1.26-.262h.335l-.335 1.73a1.74 1.74 0 0 1 .25-.094.905.905 0 0 1 .252-.05c.212 0 .407.025.583.074.177.047.328.116.453.208.128.09.226.204.294.343.07.136.106.294.106.473ZM75.655 2.48a.204.204 0 0 0-.119.049.145.145 0 0 0-.049.077l-.566 2.872a.268.268 0 0 0 .012.155c.019.043.047.08.085.11a.54.54 0 0 0 .139.065c.054.014.11.02.167.02.063 0 .13-.005.2-.016a2.92 2.92 0 0 0 .416-.11v.261a5.928 5.928 0 0 1-.4.147 3.728 3.728 0 0 1-.375.102c-.133.03-.257.045-.371.045-.079 0-.163-.01-.253-.033a.77.77 0 0 1-.236-.102.53.53 0 0 1-.164-.175.371.371 0 0 1-.028-.253l.616-3.157h-1.31c-.16.8-.327 1.46-.501 1.982-.174.52-.347.89-.518 1.11a1.57 1.57 0 0 1-.339.334c-.12.082-.238.144-.355.188a1.445 1.445 0 0 1-.33.086c-.103.013-.195.02-.273.02a.383.383 0 0 1-.27-.09c-.065-.06-.097-.17-.097-.33a.41.41 0 0 1 .04-.176.424.424 0 0 1 .11-.15.523.523 0 0 1 .368-.151l.558.301c.03 0 .06-.01.09-.032a.534.534 0 0 0 .09-.086.87.87 0 0 0 .081-.114l.074-.11c.068-.098.138-.244.212-.437.073-.195.147-.416.22-.66.074-.248.143-.512.208-.792.068-.28.128-.554.18-.824a.082.082 0 0 0-.017-.077c-.016-.027-.047-.044-.094-.049l-.4-.025V2.13H76.1v.326l-.444.025Zm-4.446 3.434-.18.078a4.33 4.33 0 0 1-.306.118c-.117.038-.24.072-.37.102-.129.03-.25.045-.364.045a.682.682 0 0 1-.343-.073.47.47 0 0 1-.187-.192.65.65 0 0 1-.07-.265 1.155 1.155 0 0 1 .02-.29l.535-2.83-.718-.078v-.24l1.26-.262h.343l-.632 3.34a.41.41 0 0 0 0 .164.458.458 0 0 0 .061.139c.03.038.067.069.11.093a.36.36 0 0 0 .156.033.72.72 0 0 0 .17-.024 4.243 4.243 0 0 0 .388-.13c.057-.023.1-.038.127-.046v.318ZM71.172.8a.45.45 0 0 1-.037.18.435.435 0 0 1-.098.147.461.461 0 0 1-.155.106.59.59 0 0 1-.216.037c-.171 0-.3-.045-.387-.135a.47.47 0 0 1-.098-.498.493.493 0 0 1 .269-.257.534.534 0 0 1 .224-.045.498.498 0 0 1 .367.147.448.448 0 0 1 .13.318Zm-3.129 2.024a.54.54 0 0 0-.028-.172.348.348 0 0 0-.102-.15.513.513 0 0 0-.192-.107.942.942 0 0 0-.302-.04.841.841 0 0 0-.44.122 1.5 1.5 0 0 0-.375.314 2.36 2.36 0 0 0-.306.449 3.704 3.704 0 0 0-.367 1.048 2.501 2.501 0 0 0-.05.465c0 .171.018.329.054.473.035.141.084.264.147.367.065.1.14.18.224.237.087.057.18.085.277.085.169 0 .33-.023.486-.069.157-.049.296-.12.416-.212.12-.093.215-.207.285-.343.07-.138.106-.299.106-.481a.536.536 0 0 0-.228-.457c-.152-.111-.38-.167-.681-.167-.03 0-.076.001-.139.004l-.192.008c-.076.006-.157.01-.244.012l.159-.334c.174 0 .35-.016.526-.049.18-.035.34-.093.481-.171.144-.082.261-.19.35-.323a.907.907 0 0 0 .135-.51Zm.751-.05a1 1 0 0 1-.094.445 1.12 1.12 0 0 1-.249.335c-.103.092-.221.17-.354.232a2.712 2.712 0 0 1-.404.155c.122.016.239.045.35.086.112.04.211.095.298.163s.157.15.208.249a.682.682 0 0 1 .078.33 1.212 1.212 0 0 1-.335.857c-.1.109-.217.204-.35.285a2.566 2.566 0 0 1-.877.31 2.73 2.73 0 0 1-.44.037 1.92 1.92 0 0 1-.74-.13 1.536 1.536 0 0 1-.513-.351 1.446 1.446 0 0 1-.298-.502 1.75 1.75 0 0 1-.098-.58c0-.19.029-.388.086-.595.06-.206.144-.408.253-.603.111-.199.245-.387.4-.563.157-.18.334-.336.53-.47.198-.133.414-.239.648-.318.234-.078.482-.118.743-.118.228 0 .416.022.563.065a.95.95 0 0 1 .354.168.55.55 0 0 1 .188.236c.035.09.053.182.053.278Zm-6.538 3.174a5.594 5.594 0 0 1-.404.155 4.587 4.587 0 0 1-.388.106 1.73 1.73 0 0 1-.395.049.797.797 0 0 1-.302-.049.438.438 0 0 1-.18-.122.462.462 0 0 1-.09-.184 1.186 1.186 0 0 1-.008-.371l.033-.237.045-.281.045-.273a18.425 18.425 0 0 0 .065-.355h-.285c-.112 0-.204.007-.278.02a.666.666 0 0 0-.183.053.647.647 0 0 0-.135.09 1.529 1.529 0 0 0-.355.445l-.171.346a4.5 4.5 0 0 1-.192.351c-.07.114-.167.224-.29.33a.676.676 0 0 1-.212.127 1.934 1.934 0 0 1-.608.11.77.77 0 0 1-.158-.016.752.752 0 0 1-.135-.033.692.692 0 0 1-.13-.053l.048-.249c.082.008.162.011.241.008.068-.002.137-.01.208-.024.07-.014.13-.04.18-.078a1.072 1.072 0 0 0 .245-.318c.03-.057.054-.113.073-.167a4.799 4.799 0 0 1 .143-.33c.03-.058.062-.115.097-.172.036-.057.076-.114.123-.171.046-.06.1-.12.163-.18.054-.046.134-.093.24-.142.11-.052.22-.09.335-.114a2.436 2.436 0 0 1-.404-.14 1.312 1.312 0 0 1-.33-.215.796.796 0 0 1-.2-.294.676.676 0 0 1-.025-.38 1.096 1.096 0 0 1 .587-.816c.161-.086.354-.149.58-.187.226-.038.485-.057.78-.057h1.243l-.612 3.357a.26.26 0 0 0 .013.155.26.26 0 0 0 .077.098.358.358 0 0 0 .118.053.687.687 0 0 0 .302-.008c.066-.014.13-.029.192-.045.062-.02.12-.038.171-.057l.123-.045v.31ZM60.77 2.431c-.204 0-.38.016-.526.049a1.11 1.11 0 0 0-.367.139.715.715 0 0 0-.233.236 1.017 1.017 0 0 0-.122.335c-.03.16-.034.297-.013.412a.51.51 0 0 0 .143.277.66.66 0 0 0 .298.155c.128.033.284.049.47.049h.089c.035 0 .07-.002.102-.004.038 0 .079-.002.122-.004l.31-1.644h-.273Zm-3.194.049a.204.204 0 0 0-.118.049.145.145 0 0 0-.05.077l-.566 2.872a.268.268 0 0 0 .012.155c.02.043.048.08.086.11a.524.524 0 0 0 .306.085c.062 0 .129-.005.2-.016a2.92 2.92 0 0 0 .416-.11v.261a5.928 5.928 0 0 1-.4.147c-.114.038-.24.072-.375.102-.134.03-.257.045-.371.045-.08 0-.164-.01-.253-.033a.77.77 0 0 1-.237-.102.53.53 0 0 1-.163-.175.371.371 0 0 1-.029-.253l.616-3.157h-1.31c-.16.8-.327 1.46-.5 1.982-.175.52-.348.89-.519 1.11a1.57 1.57 0 0 1-.338.334c-.12.082-.238.144-.355.188a1.445 1.445 0 0 1-.33.086c-.104.013-.195.02-.274.02a.383.383 0 0 1-.27-.09c-.064-.06-.097-.17-.097-.33 0-.06.014-.118.04-.176a.424.424 0 0 1 .111-.15.523.523 0 0 1 .367-.151l.559.301c.03 0 .06-.01.09-.032a.534.534 0 0 0 .09-.086.87.87 0 0 0 .08-.114l.074-.11c.068-.098.139-.244.212-.437a9.79 9.79 0 0 0 .22-.66 18.94 18.94 0 0 0 .389-1.616.082.082 0 0 0-.017-.077c-.017-.027-.048-.044-.094-.049l-.4-.025V2.13h3.643v.326l-.445.025ZM52.06 3.724a4.801 4.801 0 0 0-.045-.669 2.45 2.45 0 0 0-.053-.273 3.11 3.11 0 0 0-.07-.261.512.512 0 0 0-.171-.094.647.647 0 0 0-.24-.04.973.973 0 0 0-.45.101 1.17 1.17 0 0 0-.354.27 1.722 1.722 0 0 0-.27.39c-.076.15-.138.308-.187.474a3.538 3.538 0 0 0-.143 1.003c0 .218.022.406.065.563.044.155.101.284.172.388.073.1.155.175.244.224.09.046.181.07.274.07.133 0 .255-.03.367-.09.114-.06.216-.142.306-.245a1.68 1.68 0 0 0 .24-.367 2.94 2.94 0 0 0 .172-.449 3.557 3.557 0 0 0 .143-.995Zm.815-.024c0 .165-.016.344-.049.534a2.955 2.955 0 0 1-.424 1.117 1.918 1.918 0 0 1-.959.787c-.209.08-.447.119-.713.119-.22 0-.422-.037-.604-.11a1.373 1.373 0 0 1-.473-.314 1.45 1.45 0 0 1-.31-.502 1.93 1.93 0 0 1-.11-.673 3.014 3.014 0 0 1 .277-1.293 2.88 2.88 0 0 1 .33-.538c.128-.163.271-.304.429-.42a1.901 1.901 0 0 1 1.122-.38c.068 0 .134.012.2.037a.946.946 0 0 1 .191.09 5.46 5.46 0 0 0-.383-.832 5.635 5.635 0 0 0-.494-.747l-.653-.167.037-.249L51.381 0c.101.128.207.275.319.44a7.292 7.292 0 0 1 .656 1.15c.1.218.19.443.265.674.076.23.138.467.184.71.046.241.07.484.07.726ZM46.5 5.955c-.052.03-.124.063-.216.098a3.086 3.086 0 0 1-.62.171 1.53 1.53 0 0 1-.298.033c-.158 0-.275-.027-.35-.082a.429.429 0 0 1-.16-.18.53.53 0 0 1-.036-.211l.004-.155c-.22.21-.452.367-.694.473-.24.103-.499.155-.779.155a.968.968 0 0 1-.473-.102.727.727 0 0 1-.277-.257.822.822 0 0 1-.115-.339 1.128 1.128 0 0 1 .013-.346l.542-2.607-.701-.077v-.24l1.26-.262h.343l-.665 3.186a.37.37 0 0 0 .008.204.553.553 0 0 0 .102.167.634.634 0 0 0 .155.114c.057.027.113.04.167.04.1 0 .201-.013.302-.04a2.05 2.05 0 0 0 .596-.285c.092-.066.178-.135.256-.208l.633-3.076h.779l-.67 3.214a.43.43 0 0 0 0 .22.358.358 0 0 0 .086.143.366.366 0 0 0 .135.082c.052.016.1.024.147.024a.993.993 0 0 0 .526-.15v.293Zm-4.507-3.108a.67.67 0 0 1-.122.388 1.357 1.357 0 0 1-.347.33 3.854 3.854 0 0 1-.559.306c-.22.1-.47.208-.75.322a1.624 1.624 0 0 0-.612.445 1.29 1.29 0 0 0-.184.293.683.683 0 0 0-.029.514.73.73 0 0 0 .107.204c.046.06.102.109.167.147.065.038.14.057.224.057.223 0 .43-.056.62-.167.193-.114.396-.287.608-.518l.392.175a2.875 2.875 0 0 1-.788.67 1.93 1.93 0 0 1-.975.244c-.157 0-.308-.022-.452-.065a1.106 1.106 0 0 1-.376-.188.951.951 0 0 1-.346-.775c0-.13.038-.26.114-.387a1.58 1.58 0 0 1 .302-.363 2.47 2.47 0 0 1 .428-.319 3.88 3.88 0 0 1 .498-.252c.204-.08.386-.16.546-.245.16-.084.297-.171.408-.261.114-.09.201-.181.261-.274a.513.513 0 0 0 .07-.428.312.312 0 0 0-.074-.13.306.306 0 0 0-.139-.094.564.564 0 0 0-.22-.037.86.86 0 0 0-.224.029.788.788 0 0 0-.208.081 1.497 1.497 0 0 0-.212.147c-.071.06-.149.132-.233.216l-.273-.249c.18-.233.383-.398.612-.493.228-.095.482-.143.762-.143.155 0 .294.023.416.07a1 1 0 0 1 .319.183.746.746 0 0 1 .269.567ZM38.44 5.955c-.051.03-.124.063-.216.098a3.105 3.105 0 0 1-.62.171 1.53 1.53 0 0 1-.298.033c-.157 0-.274-.027-.35-.082a.429.429 0 0 1-.16-.18.528.528 0 0 1-.036-.211l.004-.155c-.22.21-.452.367-.694.473a1.949 1.949 0 0 1-.779.155.969.969 0 0 1-.473-.102.727.727 0 0 1-.277-.257.82.82 0 0 1-.114-.339 1.128 1.128 0 0 1 .012-.346l.542-2.607-.701-.077v-.24l1.26-.262h.343l-.665 3.186a.37.37 0 0 0 .008.204.553.553 0 0 0 .102.167.634.634 0 0 0 .155.114c.057.027.113.04.167.04.1 0 .201-.013.302-.04a2.05 2.05 0 0 0 .596-.285c.092-.066.178-.135.257-.208l.632-3.076h.779l-.67 3.214a.427.427 0 0 0 0 .22.359.359 0 0 0 .087.143c.04.038.085.066.134.082.052.016.1.024.147.024a.993.993 0 0 0 .526-.15v.293Zm-4.389-.04-.183.077c-.09.038-.193.077-.31.118a4.32 4.32 0 0 1-.371.102 1.64 1.64 0 0 1-.367.045.673.673 0 0 1-.34-.073.47.47 0 0 1-.187-.192.648.648 0 0 1-.069-.265 1.471 1.471 0 0 1 .02-.29l.217-1.13H30.76l-.351 1.848h-.78l.67-3.549-.71-.077v-.24l1.26-.262h.335l-.35 1.88h1.704l.343-1.778h.767l-.608 3.239a.369.369 0 0 0 .057.302c.03.038.068.069.114.093a.36.36 0 0 0 .155.033.72.72 0 0 0 .171-.024 4.28 4.28 0 0 0 .388-.13c.057-.023.1-.038.126-.046v.318Zm-4.637-3.492a.355.355 0 0 1-.106.245 1.607 1.607 0 0 1-.245.204l-.628-.282c-.08.07-.147.15-.204.237a2.548 2.548 0 0 0-.151.269l-.139.281a2.052 2.052 0 0 1-.367.547 1.226 1.226 0 0 1-.232.192.99.99 0 0 1 .187.126.551.551 0 0 1 .139.16l.526 1.035c.024.054.058.1.102.139.043.035.09.053.139.053a.391.391 0 0 0 .191-.065 1.908 1.908 0 0 0 .429-.335c.062-.062.11-.113.143-.15l.122.215-.102.13a5.714 5.714 0 0 1-.167.197 2.851 2.851 0 0 1-.457.424c-.084.062-.17.113-.257.15a.594.594 0 0 1-.253.062.32.32 0 0 1-.228-.094.745.745 0 0 1-.155-.216l-.71-1.387a.311.311 0 0 0-.057-.081.203.203 0 0 0-.086-.05.458.458 0 0 0-.126-.028 1.712 1.712 0 0 0-.184-.008l-.35 1.762h-.768l.686-3.524-.653-.118v-.217l1.293-.269h.253l-.384 1.983c.136 0 .255-.018.355-.053a.92.92 0 0 0 .27-.147c.081-.066.153-.143.216-.233a4.31 4.31 0 0 0 .187-.306c.052-.098.1-.193.143-.285.044-.093.09-.181.139-.265a1.67 1.67 0 0 1 .404-.493.825.825 0 0 1 .285-.16c.106-.033.21-.049.314-.049a.5.5 0 0 1 .355.118c.087.076.13.172.13.286ZM22.8 5.914l-.18.078a4.311 4.311 0 0 1-.306.118c-.117.038-.24.072-.37.102-.129.03-.25.045-.364.045a.682.682 0 0 1-.342-.073.47.47 0 0 1-.188-.192.65.65 0 0 1-.07-.265 1.15 1.15 0 0 1 .021-.29l.534-2.83-.718-.078v-.24l1.26-.262h.344l-.633 3.34a.41.41 0 0 0 0 .164.458.458 0 0 0 .061.139c.03.038.067.069.11.093a.36.36 0 0 0 .156.033.72.72 0 0 0 .17-.024 4.284 4.284 0 0 0 .388-.13c.058-.023.1-.038.127-.046v.318ZM22.764.8a.45.45 0 0 1-.037.18.434.434 0 0 1-.098.147.46.46 0 0 1-.155.106.59.59 0 0 1-.216.037c-.171 0-.3-.045-.387-.135a.47.47 0 0 1-.098-.498.49.49 0 0 1 .27-.257.533.533 0 0 1 .224-.045.498.498 0 0 1 .367.147.448.448 0 0 1 .13.318ZM20.59 5.914l-.183.078c-.09.038-.194.077-.31.118a4.344 4.344 0 0 1-.372.102 1.64 1.64 0 0 1-.367.045.673.673 0 0 1-.338-.073.47.47 0 0 1-.188-.192.65.65 0 0 1-.07-.265 1.471 1.471 0 0 1 .021-.29L19 4.307h-1.7l-.351 1.848h-.78l.67-3.549-.71-.077v-.24l1.26-.262h.335l-.351 1.88h1.705l.342-1.778h.767l-.608 3.239a.37.37 0 0 0 .058.302c.03.038.068.069.114.093a.36.36 0 0 0 .155.033.718.718 0 0 0 .171-.024 4.284 4.284 0 0 0 .388-.13c.057-.023.099-.038.126-.046v.318Zm-5.702-1.22c0-.122-.012-.228-.037-.317a.514.514 0 0 0-.122-.225.527.527 0 0 0-.233-.134 1.2 1.2 0 0 0-.355-.045.46.46 0 0 0-.106.016 1.772 1.772 0 0 0-.257.09.613.613 0 0 0-.093.045l-.184.962a1.12 1.12 0 0 0-.024.216c0 .123.023.225.069.306a.571.571 0 0 0 .171.188.734.734 0 0 0 .408.118.521.521 0 0 0 .298-.093.893.893 0 0 0 .24-.262c.071-.111.126-.24.164-.387.04-.15.06-.309.06-.477Zm.8.017c0 .275-.052.51-.156.706-.1.195-.234.356-.4.481a1.648 1.648 0 0 1-.558.273 2.333 2.333 0 0 1-.624.086c-.134 0-.274-.02-.42-.057a1.377 1.377 0 0 1-.404-.176 1.064 1.064 0 0 1-.302-.301.789.789 0 0 1-.118-.437 1.341 1.341 0 0 1 .016-.216l.477-2.464-.71-.077v-.24l1.26-.262h.335l-.334 1.73a1.761 1.761 0 0 1 .249-.094.91.91 0 0 1 .252-.05c.213 0 .407.025.584.074.177.046.327.116.453.208.127.09.225.204.293.343.07.136.106.294.106.473ZM11.844 2.48a.204.204 0 0 0-.118.049.144.144 0 0 0-.05.077l-.566 2.872a.268.268 0 0 0 .012.155c.02.043.048.08.086.11.04.027.087.049.138.065.055.014.11.02.168.02.062 0 .129-.005.2-.016a2.91 2.91 0 0 0 .415-.11v.261a5.92 5.92 0 0 1-.4.147 3.657 3.657 0 0 1-.375.102 1.7 1.7 0 0 1-.37.045c-.08 0-.164-.01-.253-.033a.77.77 0 0 1-.237-.102.53.53 0 0 1-.163-.175.372.372 0 0 1-.029-.253l.616-3.157H9.61c-.16.8-.327 1.46-.5 1.982-.175.52-.348.89-.519 1.11a1.57 1.57 0 0 1-.338.334c-.12.082-.238.144-.355.188a1.446 1.446 0 0 1-.33.086c-.104.013-.195.02-.274.02a.383.383 0 0 1-.27-.09c-.064-.06-.097-.17-.097-.33a.41.41 0 0 1 .04-.176.424.424 0 0 1 .11-.15.523.523 0 0 1 .368-.151l.559.301c.03 0 .06-.01.09-.032a.532.532 0 0 0 .09-.086.868.868 0 0 0 .08-.114l.074-.11c.068-.098.139-.244.212-.437a9.79 9.79 0 0 0 .22-.66c.074-.248.143-.512.209-.792.068-.28.127-.554.179-.824a.082.082 0 0 0-.016-.077c-.017-.027-.048-.044-.094-.049l-.4-.025V2.13h3.643v.326l-.445.025ZM7.399 5.914l-.18.078a4.33 4.33 0 0 1-.305.118 4.344 4.344 0 0 1-.372.102 1.58 1.58 0 0 1-.363.045.682.682 0 0 1-.342-.073.47.47 0 0 1-.188-.192.648.648 0 0 1-.07-.265 1.147 1.147 0 0 1 .021-.29l.535-2.83-.718-.078v-.24l1.26-.262h.343l-.633 3.34a.412.412 0 0 0 0 .164.458.458 0 0 0 .062.139c.03.038.066.069.11.093a.36.36 0 0 0 .155.033.719.719 0 0 0 .171-.024 4.28 4.28 0 0 0 .388-.131c.057-.022.099-.037.126-.045v.318ZM7.362.8a.45.45 0 0 1-.036.18.435.435 0 0 1-.098.147.46.46 0 0 1-.155.106.59.59 0 0 1-.216.037c-.172 0-.3-.045-.388-.135a.47.47 0 0 1-.098-.498.492.492 0 0 1 .27-.257.533.533 0 0 1 .224-.045.498.498 0 0 1 .465.298c.021.055.032.11.032.167Zm-2.439.82c0 .215-.037.405-.11.571a1.394 1.394 0 0 1-.302.437 1.873 1.873 0 0 1-.444.318c-.169.09-.348.166-.539.228.182.025.348.063.498.115.15.048.279.116.387.203a.882.882 0 0 1 .253.327c.06.128.09.283.09.465 0 .342-.063.633-.188.873a1.57 1.57 0 0 1-.522.579c-.22.147-.481.254-.783.322a4.588 4.588 0 0 1-.975.098H0v-.35l.526-.042c.052-.005.089-.02.11-.044a.221.221 0 0 0 .05-.115l.868-4.495a.144.144 0 0 0-.02-.114c-.022-.03-.071-.047-.147-.053L.922.902V.55h2.345c.302 0 .558.025.767.077.212.05.383.121.514.216a.79.79 0 0 1 .285.339c.06.13.09.276.09.436Zm-1.08 2.75a.942.942 0 0 0-.09-.433.734.734 0 0 0-.257-.29 1.11 1.11 0 0 0-.4-.159 2.627 2.627 0 0 0-.53-.049 4.424 4.424 0 0 0-.629.045l-.44 2.272c.033.003.07.006.114.008l.139.009.143.008h.122c.598 0 1.052-.124 1.362-.372.31-.25.465-.596.465-1.04Zm.15-2.693c0-.263-.1-.456-.302-.579C3.493.972 3.216.91 2.86.91a3.418 3.418 0 0 0-.428.024l-.408 2.121.102.008.11.004c.038 0 .072.002.102.004h.078c.26 0 .49-.036.685-.11.198-.076.363-.177.493-.302a1.22 1.22 0 0 0 .298-.444 1.45 1.45 0 0 0 .102-.539Z"/></svg>