<svg xmlns="http://www.w3.org/2000/svg" width="120" height="17"><path fill="#000" fill-rule="nonzero" d="M25.463.448c.15.15.15.672 0 .821-1.642.2-1.941 1.17-2.464 2.315l-5.874 12.694c-.174.374-.323.573-.597.573-.249 0-.448-.2-.573-.573l-3.36-7.218-3.659 7.218c-.149.374-.323.573-.597.573-.249 0-.423-.2-.572-.573L2.34 3.534C1.594 1.767 1.544 1.394.125 1.27-.025 1.12-.049.597.1.448c1.17.025 1.593.05 2.589.05.97 0 1.593-.025 2.763-.05.15.15.15.672 0 .821-1.568.175-1.643.573-1.02 1.992L8.985 13.64h.125l2.762-5.65-2.09-4.456C8.96 1.767 8.763 1.42 7.692 1.27c-.15-.149-.174-.672-.025-.821.796.025 1.22.05 2.215.05.97 0 1.37-.025 2.265-.05.15.15.15.672 0 .821-1.045.15-.946.573-.274 1.992l1.22 2.514.124.124 1.32-2.489c.746-1.444.87-1.991-.2-2.14-.149-.15-.149-.673 0-.822.921.025 1.394.05 1.967.05.572 0 1.195-.025 1.817-.05.15.15.15.672 0 .821-1.294.2-1.842 1.17-2.464 2.315L13.84 7.07l3.186 6.57h.124L21.88 3.41c.572-1.344.547-2.016-1.071-2.14-.15-.15-.15-.673 0-.822 1.17.025 1.892.05 2.464.05h.174c.527-.005 1.12-.028 2.016-.05Zm2.75 4.605.026.05v.547c0 .075-.05.125-.15.125l-.522.05c-.772.074-1.046.273-1.046.77v8.29c0 .547.25.87 1.046.945l.522.05c.075 0 .15.05.15.15v.522l-.025.05s-1.892-.05-2.663-.05c-.697 0-2.639.05-2.639.05l-.05-.05v-.523c0-.1.075-.15.175-.15l.498-.049c.821-.075 1.07-.473 1.07-.946V6.596c0-.548-.299-.697-1.07-.772l-.498-.05c-.1 0-.174-.024-.174-.099v-.573l.024-.05s1.967.05 2.738.05h.11c.75-.004 2.479-.05 2.479-.05Zm17.216 0 .024.05v.547c0 .075-.05.125-.149.125l-.523.05c-.771.074-1.045.273-1.045.77v8.29c0 .547.249.87 1.045.945l.523.05c.075 0 .15.05.15.15v.522l-.025.05s-1.892-.05-2.664-.05c-.697 0-2.638.05-2.638.05l-.023-.025c-.043-.001-1.33-.025-2.015-.025-.622 0-1.518.025-1.518.025l-.025-.025v-.299c0-.323-.025-.597-.374-.995l-2.762-3.435c-.374-.498-.772-.622-1.32-.622v3.683c0 .548.324.822 1.046.946l.274.05c.074.025.149.05.149.15v.522l-.025.05s-1.568-.05-2.315-.05c-.697 0-2.738.05-2.738.05l-.05-.05v-.523c0-.1.075-.15.175-.15l.498-.049c.746-.075 1.07-.473 1.07-.946V6.596c0-.548-.274-.697-1.07-.772l-.498-.05c-.1 0-.174-.024-.174-.099v-.573l.024-.05s.713.018 1.455.032l.343.007c.395.006.77.011 1.015.011h.124c.742-.005 2.141-.05 2.141-.05l.025.05v.548c0 .075-.05.1-.15.125l-.273.05c-.772.149-1.046.273-1.046.77v3.76c.822 0 1.295-.424 2.39-1.594.995-1.095 1.767-2.016 1.767-2.489 0-.199-.224-.423-.722-.497-.1-.025-.15-.05-.15-.125v-.572l.026-.025s2.016.05 2.738.05c.647 0 1.742-.05 1.742-.05l.075.025v.572c0 .075-.075.125-.2.125-.97.074-1.642.124-2.538 1.144l-2.14 2.465c-.424.448-.573.721-.573.92 0 .15.1.274.224.424l3.758 4.53c.299.348.896.497 1.394.597l.124.025a.454.454 0 0 1 .108.05c.03-.033.08-.05.138-.05l.498-.05c.822-.075 1.07-.473 1.07-.946V6.596c0-.548-.298-.697-1.07-.772l-.498-.05c-.1 0-.174-.024-.174-.099v-.573l.025-.05s1.966.05 2.738.05h.11c.749-.004 2.479-.05 2.479-.05Zm3.876 1.543c0-.498.274-.697 1.045-.772l.523-.05c.1 0 .15-.05.15-.124v-.548l-.025-.05s-1.917.05-2.589.05c-.772 0-2.738-.05-2.738-.05l-.025.05v.573c0 .075.075.1.174.1l.498.05c.772.074 1.07.223 1.07.77v8.29c0 .472-.248.87-1.07.945l-.498.05c-.1 0-.174.05-.174.15v.522l.05.05s1.941-.05 2.638-.05c.772 0 2.664.05 2.664.05l.024-.05v-.523c0-.1-.074-.15-.149-.15l-.523-.049c-.796-.075-1.045-.398-1.045-.946V6.596m7.212-1.543c3.609 0 4.256 1.543 4.256 2.738 0 .97-.797 2.09-1.792 2.538 1.742.399 2.539 1.494 2.539 3.112 0 1.543-1.668 3.16-4.456 3.16-1.394 0-2.563-.049-3.31-.049-.622 0-2.539.05-2.539.05v-.573c0-.074.025-.15.15-.15l.572-.049c.772-.075.996-.448.996-1.07V6.546c0-.597-.2-.647-.996-.722l-.573-.05c-.124 0-.149-.05-.149-.099v-.622c.254.007.584.015.922.021l.337.007c.67.013 1.28.021 1.28.021h.012c.173-.004 2.085-.05 2.75-.05Zm9.573 0 .025.05v.522c0 .075-.05.125-.15.125l-.522.05c-.772.074-1.046.298-1.046.796v8.288c0 .548.25.871 1.046.946l.522.05c.075 0 .15.05.15.15v.522l-.025.05s-1.892-.05-2.664-.05c-.696 0-2.638.05-2.638.05l-.05-.05v-.523c0-.1.075-.15.175-.15l.497-.049c.822-.075 1.07-.473 1.07-.946V6.596c0-.548-.298-.722-1.07-.797l-.497-.05c-.1 0-.175-.024-.175-.099v-.548l.025-.05s1.967.05 2.738.05h.11c.749-.004 2.479-.05 2.479-.05Zm-9.548 5.7h-1.693v4.081c.003.566.066 1.046 1.593 1.046 2.539 0 2.937-1.518 2.937-2.614 0-1.617-.572-2.513-2.837-2.513Zm-.05-4.978c-1.593 0-1.643.174-1.643.771v3.485h1.693c1.617 0 2.34-.722 2.34-2.215 0-1.817-1.295-2.041-2.39-2.041ZM64.596 0c.697 0 1.02.274 1.22.448.05.05.1.1.15.124l.074.274-2.862 2.713c-.374.374-.548.498-.722.498-.175 0-.349-.15-.349-.299s0-.323.15-.572L64.247.05c.075-.025.225-.05.35-.05Zm5.37 6.596c0-.498.274-.722 1.046-.797l.522-.05c.1 0 .15-.05.15-.124v-.523l-.025-.05s-1.917.05-2.589.05c-.772 0-2.738-.05-2.738-.05l-.025.05v.548c0 .075.075.1.174.1l.498.05c.772.074 1.07.248 1.07.796v8.288c0 .473-.248.871-1.07.946l-.498.05c-.1 0-.174.05-.174.15v.522l.05.05s1.941-.05 2.638-.05c.772 0 2.664.05 2.664.05l.025-.05v-.523c0-.1-.075-.15-.15-.15l-.522-.049c-.797-.075-1.046-.398-1.046-.946V6.596M69.816.05l-1.99 3.136c-.15.249-.15.423-.15.572 0 .15.174.3.349.3.174 0 .348-.125.721-.499L71.61.846l-.075-.274a.66.66 0 0 1-.15-.124C71.187.274 70.863 0 70.166 0c-.124 0-.274.025-.348.05m8.008 5.003c4.157 0 6.198 2.588 6.198 5.899 0 4.355-3.087 5.65-5.85 5.65-1.99 0-2.862-.05-3.634-.05-.746 0-2.638.05-2.638.05l-.025-.05v-.523c0-.074.05-.15.15-.15l.572-.049c.747-.075.996-.299.996-1.07V6.546c0-.647-.175-.647-.996-.722l-.548-.05c-.1 0-.174-.05-.174-.124v-.548l.025-.05s2.19.05 2.638.05c.473 0 2.639-.05 3.286-.05Zm10.59 0 .024.05v.547c0 .075-.05.125-.15.125l-.522.05c-.771.074-1.045.273-1.045.77v8.29c0 .547.249.87 1.045.945l.523.05c.075 0 .15.05.15.15v.522l-.026.05s-1.891-.05-2.663-.05c-.697 0-2.638.05-2.638.05l-.05-.05v-.523c0-.1.075-.15.174-.15l.498-.049c.821-.075 1.07-.473 1.07-.946V6.596c0-.548-.298-.697-1.07-.772l-.498-.05c-.1 0-.174-.024-.174-.099v-.573l.025-.05s1.966.05 2.738.05h.11c.749-.004 2.478-.05 2.478-.05Zm-11.312.722c-.97 0-1.593.149-1.593.771v8.214c0 .697.174 1.12 2.066 1.12 2.738 0 4.281-1.02 4.281-4.505 0-2.589-.572-5.6-4.754-5.6Zm16.88-.722.586.018.339.01c.394.012.765.021.886.021.104 0 1.573-.017 2.232-.037l.216-.008.066-.004.025.025v.572c0 .05-.05.125-.125.125l-.547.05c-.598.05-.498.273-.25.671l2.515 4.107h.05l2.314-4.107c.324-.597.324-.622-.274-.672l-.572-.05c-.075 0-.1-.074-.1-.124v-.572l.05-.025c.274 0 1.668.05 1.917.05.174 0 1.319-.025 1.692-.05l.025.05v.547c0 .05 0 .1-.174.125l-.423.05c-.797.099-.921.248-1.295.92l-2.737 4.829v3.46c0 .547.273.721 1.045.796l.523.05c.1 0 .174.075.174.15v.522l-.05.05s-1.892-.05-2.663-.05c-.697 0-2.639.05-2.639.05l-.05-.05v-.523c0-.074.075-.15.175-.15l.498-.049c.771-.075 1.07-.299 1.07-.796v-3.36L95.346 6.52c-.324-.522-.722-.672-1.444-.746-.008 0-.018 0-.028-.002l-.015.002-.523.05c-.771.074-1.045.273-1.045.77v8.29c0 .547.249.87 1.045.945l.523.05c.075 0 .15.05.15.15v.522l-.026.05s-1.891-.05-2.663-.05c-.697 0-2.638.05-2.638.05l-.05-.05v-.523c0-.1.075-.15.174-.15l.498-.049c.821-.075 1.07-.473 1.07-.946V6.596c0-.548-.298-.697-1.07-.772l-.498-.05c-.1 0-.174-.024-.174-.099v-.573l.025-.05s1.783.046 2.62.05h.227c.58-.003 1.746-.031 2.244-.043a.84.84 0 0 1 .145-.004l.09-.002ZM111.861.174c.348 0 .473.25.672.747l5.102 13.49c.349.971.847 1.344 1.842 1.444l.274.025c.125 0 .249.075.249.2v.472l-.075.05s-1.916-.05-2.887-.05c-.29 0-.755.006-1.245.013l-.555.009c-.795.013-1.51.028-1.51.028l-.025-.05v-.473c0-.124.05-.2.174-.2l.697-.049c.946-.075 1.294-.373 1.045-1.07l-1.518-4.207h-5.177c-.598 0-.747.1-.871.424l-1.444 3.609c-.249.622.075 1.17.996 1.244l.721.05c.1 0 .2.075.2.2v.472l-.05.05s-2.713-.05-3.31-.05c-.648 0-2.24.05-2.24.05l-.05-.05v-.473c0-.124.074-.2.199-.2 1.095-.074 1.717-.273 2.414-1.866l5.526-12.943c.273-.647.473-.896.846-.896Zm-.573 2.688h-.05l-2.488 6.322c-.1.25.074.324.622.324h4.33l-2.414-6.646Z"/></svg>