<svg width="120" height="14" viewBox="0 0 120 14" fill="none" xmlns="http://www.w3.org/2000/svg">
<path d="M3.82287 6.09017C3.48534 6.09017 3.38261 6.06082 3.44131 5.8994L4.9235 2.17192H4.95285L6.37634 6.09017H3.82287ZM2.23795 9.0839L3.04509 6.956C3.11846 6.76523 3.20651 6.70653 3.55871 6.70653H6.61114L7.50632 9.18662C7.71177 9.80298 7.11009 9.74428 6.42036 9.7883C6.33231 9.87635 6.33231 10.1845 6.42036 10.2726C6.96334 10.2579 7.77047 10.2432 8.3428 10.2432C8.94448 10.2432 9.47279 10.2579 10.0158 10.2726C10.1038 10.1845 10.1038 9.87635 10.0158 9.7883C9.44344 9.74428 8.95916 9.74427 8.695 8.98117L5.68661 1.02726C5.56921 0.748431 5.49583 0.587005 5.29038 0.587005C5.07025 0.587005 4.95285 0.719081 4.79142 1.11531L1.53355 8.74637C1.13732 9.65622 0.697067 9.74428 0.0660379 9.7883C-0.0220126 9.87635 -0.0220126 10.1845 0.0660379 10.2726C0.609017 10.2579 0.799794 10.2432 1.37212 10.2432C1.9738 10.2432 2.70756 10.2579 3.25054 10.2726C3.33859 10.1845 3.33859 9.87635 3.25054 9.7883C2.69288 9.75895 2.00315 9.70025 2.23795 9.0839ZM11.0623 3.75683C11.0183 3.75683 10.9742 3.81553 10.9742 3.84488C10.9596 4.50526 10.8715 5.06291 10.7541 5.782C10.8715 5.8407 11.0623 5.87005 11.2384 5.82602C11.5319 4.75474 11.9868 4.44656 12.4271 4.44656H14.4522L10.8422 9.77363C10.7248 9.94973 10.7101 9.99375 10.7101 10.0671C10.7101 10.1699 10.8275 10.2432 11.0476 10.2432H15.6262C15.6996 9.7883 15.8464 9.09857 16.0958 8.24741C15.9931 8.20339 15.8317 8.14469 15.6556 8.14469L15.4648 8.57027C15.1126 9.34805 14.8631 9.74428 14.012 9.74428H12.0602L15.5822 4.56396C15.8317 4.18241 15.9051 4.00631 15.9051 3.94761C15.9051 3.88891 15.8317 3.84488 15.729 3.84488C15.6556 3.84488 15.186 3.94761 14.7604 3.94761H11.7814C11.2971 3.94761 11.3118 3.81553 11.0623 3.75683ZM20.6866 6.82393V8.77572C20.6866 8.9665 20.5986 9.06922 20.4812 9.15727C20.0996 9.46545 19.6007 9.7883 19.1898 9.7883C18.456 9.7883 18.1332 9.2013 18.1332 8.74637C18.1332 8.08599 18.4413 7.42561 19.5273 7.13211L20.6866 6.82393ZM20.6866 9.53882C20.7747 9.847 21.0242 10.39 21.8166 10.39C22.5357 10.39 23.064 9.80298 23.064 9.7296C23.064 9.62688 22.9319 9.48012 22.8732 9.48012C22.7852 9.48012 22.7265 9.71493 22.4183 9.71493C21.846 9.71493 21.8313 9.1426 21.8313 8.46754V6.28095C21.8313 4.19709 20.6866 3.80086 19.6154 3.80086C18.412 3.80086 17.194 4.63734 17.194 5.42979C17.194 5.78199 17.3701 5.94342 17.7076 5.94342C18.1332 5.94342 18.3533 5.64992 18.3533 5.45914C18.3533 5.35642 18.3386 5.25369 18.3093 5.19499C18.2946 5.15097 18.2799 5.06291 18.2799 4.90149C18.2799 4.44656 18.9403 4.28513 19.498 4.28513C19.9969 4.28513 20.6866 4.53461 20.6866 6.1929C20.6866 6.29562 20.6426 6.35433 20.5986 6.369L19.3365 6.67718C17.9277 7.02938 16.9151 7.80716 16.9151 8.80507C16.9151 9.9644 17.7369 10.39 18.7642 10.39C19.4392 10.39 19.7181 10.2726 20.3638 9.77363L20.6573 9.53882H20.6866ZM23.7248 3.94761C23.5194 3.94761 23.4607 4.12371 23.4607 4.24111V4.43189C23.4607 4.50526 23.4754 4.51994 23.5341 4.51994H24.3999V8.93715C24.3999 9.97908 24.8548 10.39 25.5299 10.39C26.2049 10.39 26.9387 10.0671 27.511 9.42142C27.4817 9.27467 27.3936 9.18662 27.2469 9.17195C26.8653 9.46545 26.4251 9.58285 26.0435 9.58285C25.6473 9.58285 25.5592 9.1426 25.5592 8.23274V4.51994H27.0854C27.2322 4.51994 27.4376 4.46124 27.4376 4.32916V4.03566C27.4376 3.97696 27.3936 3.94761 27.3202 3.94761H25.5592V3.37528C25.5592 2.4214 25.6179 1.83439 25.6179 1.83439C25.6179 1.73166 25.5592 1.68764 25.4272 1.68764L24.576 2.08387C24.4879 2.12789 24.3559 2.15724 24.3705 2.25997C24.3999 2.59749 24.3999 2.72957 24.3999 3.94761H23.7248ZM35.4122 4.94551H34.0768V2.01049C34.0768 1.65829 34.2529 1.36479 34.6051 1.36479H36.146C37.2466 1.36479 37.4814 1.95179 37.8042 2.96437C37.9803 2.99372 38.1418 2.96437 38.2885 2.891C38.2151 2.28932 37.995 0.880507 37.9657 0.763106C37.9657 0.733756 37.951 0.719081 37.907 0.719081C37.6575 0.763106 37.5401 0.777781 37.1879 0.777781H33.4457C33.4457 0.777781 32.2864 0.763106 31.5526 0.748431C31.4646 0.836482 31.4646 1.14466 31.5526 1.23271C32.5799 1.27674 32.8294 1.35011 32.8294 2.56815V8.45287C32.8294 9.6709 32.5799 9.74428 31.5526 9.7883C31.4646 9.87635 31.4646 10.1845 31.5526 10.2726C32.2717 10.2579 33.4604 10.2432 33.4604 10.2432H36.6156C37.32 10.2432 38.494 10.2726 38.494 10.2726C38.6994 9.53883 38.9195 8.57027 39.0369 7.82184C38.8755 7.74846 38.7141 7.70444 38.5233 7.74846C38.2298 8.80507 37.7162 9.6709 36.6009 9.6709H34.6051C34.2822 9.6709 34.0768 9.4361 34.0768 9.03987V5.50317H35.4122C36.6596 5.50317 36.7036 5.8407 36.7476 6.50108C36.8357 6.58913 37.1439 6.58913 37.2319 6.50108C37.2172 5.98745 37.2026 5.70862 37.2026 5.20967C37.2026 4.71071 37.2172 4.38786 37.2319 3.94761C37.1439 3.85956 36.8357 3.85956 36.7476 3.94761C36.7036 4.75474 36.6596 4.94551 35.4122 4.94551ZM42.1602 4.98954C42.1162 5.04824 42.0135 5.19499 42.0135 4.98954C42.0135 4.54929 42.0869 3.87423 42.0869 3.87423C42.0869 3.80086 42.0282 3.75683 41.9107 3.75683C41.4998 3.91826 40.8982 4.05033 39.8856 4.18241C39.8562 4.27046 39.8856 4.50526 39.9149 4.59331C40.7074 4.66669 40.8688 4.74006 40.8688 5.59122V8.45287C40.8688 9.65623 40.7221 9.71493 39.8416 9.7883C39.7535 9.87635 39.7535 10.1845 39.8416 10.2726C40.4432 10.2579 40.8248 10.2432 41.4558 10.2432C42.0281 10.2432 42.2923 10.2579 42.9087 10.2726C42.9967 10.1845 42.9967 9.87635 42.9087 9.7883C42.1602 9.71493 42.0281 9.65623 42.0281 8.45287V6.04615C42.0281 5.73797 42.1602 5.56187 42.2776 5.42979C42.8353 4.88681 43.4076 4.56396 43.9799 4.56396C44.2734 4.56396 44.5816 4.75474 44.7577 5.09226C44.9045 5.38577 44.9338 5.782 44.9338 6.22225V8.45287C44.9338 9.65623 44.7871 9.71493 44.024 9.7883C43.9506 9.87635 43.9506 10.1845 44.024 10.2726C44.6403 10.2579 44.9338 10.2432 45.5208 10.2432C46.1225 10.2432 46.4454 10.2579 47.0764 10.2726C47.1498 10.1845 47.1498 9.87635 47.0764 9.7883C46.2546 9.71493 46.0932 9.65623 46.0932 8.45287V6.26627C46.0932 5.45914 46.0345 4.75474 45.6969 4.29981C45.4474 3.97696 44.9925 3.80086 44.4789 3.80086C43.7598 3.80086 43.0554 3.99163 42.1602 4.98954ZM47.9445 3.94761C47.7391 3.94761 47.6804 4.12371 47.6804 4.24111V4.43189C47.6804 4.50526 47.695 4.51994 47.7537 4.51994H48.6196V8.93715C48.6196 9.97908 49.0745 10.39 49.7496 10.39C50.4246 10.39 51.1584 10.0671 51.7307 9.42142C51.7013 9.27467 51.6133 9.18662 51.4665 9.17195C51.085 9.46545 50.6447 9.58285 50.2632 9.58285C49.867 9.58285 49.7789 9.1426 49.7789 8.23274V4.51994H51.3051C51.4519 4.51994 51.6573 4.46124 51.6573 4.32916V4.03566C51.6573 3.97696 51.6133 3.94761 51.5399 3.94761H49.7789V3.37528C49.7789 2.4214 49.8376 1.83439 49.8376 1.83439C49.8376 1.73166 49.7789 1.68764 49.6468 1.68764L48.7957 2.08387C48.7076 2.12789 48.5755 2.15724 48.5902 2.25997C48.6196 2.59749 48.6196 2.72957 48.6196 3.94761H47.9445ZM52.6612 8.21806C52.7199 8.93714 52.7639 9.62688 52.7639 10.2432C52.9107 10.2139 53.0574 10.1992 53.1308 10.1992C53.2335 10.1992 53.3216 10.1992 53.4243 10.2286C53.8205 10.3313 54.2167 10.39 54.7597 10.39C55.5815 10.39 57.0931 9.99375 57.0931 8.54092C57.0931 7.54301 56.3593 6.97068 55.3761 6.58913C54.4956 6.2516 53.9086 6.03147 53.9086 5.22434C53.9086 4.62266 54.4369 4.28513 54.9358 4.28513C55.2587 4.28513 56.1098 4.40254 56.3006 5.64992C56.3887 5.73797 56.6822 5.72329 56.7702 5.63524C56.7702 5.10694 56.8436 4.56396 56.8583 4.07968C56.4033 4.00631 55.6989 3.80086 54.9358 3.80086C53.8499 3.80086 52.8666 4.50526 52.8666 5.44447C52.8666 6.51575 53.3509 6.97068 54.4809 7.44028C55.6843 7.95391 55.9778 8.24741 55.9778 8.87844C55.9778 9.59752 55.2734 9.9057 54.7304 9.9057C54.158 9.9057 53.8352 9.71493 53.6884 9.5535C53.3362 9.21597 53.2042 8.57027 53.1161 8.20339C53.0281 8.11534 52.7492 8.13001 52.6612 8.21806ZM58.8954 1.45284C58.8954 1.83439 59.2476 2.21594 59.5998 2.21594C60.0107 2.21594 60.3629 1.83439 60.3629 1.51154C60.3629 1.15933 60.0547 0.748431 59.6585 0.748431C59.3063 0.748431 58.8954 1.10063 58.8954 1.45284ZM60.2308 8.45287V5.53252C60.2308 4.79876 60.2895 3.85956 60.2895 3.85956C60.2895 3.80085 60.2161 3.75683 60.0987 3.75683C59.6731 3.91826 59.1008 4.05033 58.0882 4.18241C58.0589 4.27046 58.0882 4.50526 58.1176 4.59331C58.91 4.68136 59.0715 4.75474 59.0715 5.59122V8.45287C59.0715 9.6709 58.91 9.71493 58.0149 9.7883C57.9268 9.87635 57.9268 10.1845 58.0149 10.2726C58.6312 10.2579 59.0128 10.2432 59.6585 10.2432C60.2895 10.2432 60.6564 10.2579 61.2874 10.2726C61.3755 10.1845 61.3755 9.87635 61.2874 9.7883C60.3922 9.7296 60.2308 9.6709 60.2308 8.45287ZM62.8207 8.45287C62.8207 9.6709 62.6593 9.7296 61.8375 9.7883C61.7494 9.87635 61.7494 10.1845 61.8375 10.2726C62.4538 10.2579 62.7914 10.2432 63.4077 10.2432C63.9214 10.2432 64.1121 10.2579 64.7432 10.2726C64.8312 10.1845 64.8312 9.87635 64.7432 9.7883C64.1415 9.7296 63.9801 9.6709 63.9801 8.45287V7.13211C64.3176 7.14678 64.523 7.24951 64.8165 7.66041L65.8878 9.17195C66.1813 9.59752 66.2253 9.77363 66.2253 9.9644V10.1992C66.2253 10.2432 66.24 10.2726 66.284 10.2726C66.5775 10.2579 66.8564 10.2432 67.2966 10.2432C67.7516 10.2432 68.0597 10.2579 68.5 10.2726C68.588 10.1845 68.588 9.87635 68.5 9.7883C68.001 9.7296 67.5608 9.6709 67.2379 9.17195L65.5209 6.63315C65.4769 6.57445 65.4476 6.50108 65.4476 6.4277C65.4476 6.369 65.4622 6.32498 65.5063 6.28095L66.6216 5.04824C67.0472 4.60799 67.5021 4.43189 68.2358 4.40253C68.3239 4.31448 68.3239 4.00631 68.2358 3.91826C67.6929 3.93293 67.4874 3.94761 66.9591 3.94761C66.4015 3.94761 66.152 3.93293 65.609 3.91826C65.5209 4.00631 65.5209 4.31448 65.609 4.40253C66.4895 4.44656 66.0199 5.00421 65.8731 5.15097C65.0954 6.00212 64.3616 6.64783 63.9801 6.76523V1.68764C63.9801 0.733756 64.0388 0.146751 64.0388 0.146751C64.0388 0.0440257 63.9801 0 63.848 0C63.4811 0.146751 62.3805 0.352203 61.7935 0.396228C61.7641 0.513629 61.7935 0.748431 61.8815 0.836482C62.6446 0.880507 62.8207 0.807132 62.8207 2.03984V8.45287ZM70.0324 8.45287C70.0324 9.6709 69.871 9.74428 68.9758 9.7883C68.8877 9.87635 68.8877 10.1845 68.9758 10.2726C69.5921 10.2579 69.9737 10.2432 70.6194 10.2432C71.2504 10.2432 71.6173 10.2579 72.2483 10.2726C72.3364 10.1845 72.3364 9.87635 72.2483 9.7883C71.3532 9.74428 71.1917 9.6709 71.1917 8.45287V1.68764C71.1917 0.733756 71.2504 0.146751 71.2504 0.146751C71.2504 0.0440257 71.1917 0 71.0597 0C70.6928 0.146751 69.5921 0.352203 69.0051 0.396228C68.9758 0.513629 69.0051 0.748431 69.0932 0.836482C69.8563 0.880507 70.0324 0.807132 70.0324 2.03984V8.45287ZM73.1094 7.23483C73.1094 8.73169 74.1219 10.39 76.1911 10.39C78.3777 10.39 79.3022 8.57027 79.3022 7.10276C79.3022 5.57655 78.4951 3.80086 76.2205 3.80086C74.2393 3.80086 73.1094 5.37109 73.1094 7.23483ZM76.0591 4.28513C77.3211 4.28513 78.0402 5.41512 78.0402 7.57236C78.0402 9.50947 77.145 9.9057 76.4553 9.9057C74.9291 9.9057 74.3714 8.02729 74.3714 6.8973C74.3714 5.62057 74.8263 4.28513 76.0591 4.28513ZM82.4707 5.32707C82.9256 4.85746 83.5126 4.47591 83.9529 4.47591C84.8921 4.47591 85.6992 5.53252 85.6992 7.19081C85.6992 8.39416 85.2736 9.89103 83.63 9.89103C83.3659 9.89103 82.8523 9.81765 82.5881 9.58285C82.2799 9.3187 82.2359 9.24532 82.2359 8.70234V5.97277C82.2359 5.6646 82.2799 5.53252 82.4707 5.32707ZM82.3533 4.84279C82.2946 4.90149 82.2065 4.91616 82.2065 4.79876C82.2065 4.27046 82.2652 3.85956 82.2652 3.85956C82.2652 3.80085 82.1919 3.75683 82.0745 3.75683C81.6636 3.91826 81.1059 4.05033 80.0933 4.18241C80.064 4.27046 80.0933 4.50526 80.1227 4.59331C80.9151 4.66669 81.0766 4.75474 81.0766 5.59122V11.8575C81.0766 13.0755 80.9151 13.1489 80.02 13.1929C79.9319 13.281 79.9319 13.5892 80.02 13.6772C80.6363 13.6625 81.0179 13.6479 81.6636 13.6479C82.3533 13.6479 82.8082 13.6625 83.4393 13.6772C83.5273 13.5892 83.5273 13.281 83.4393 13.1929C82.3973 13.1342 82.2359 13.0755 82.2359 11.8575V10.2726C82.2359 10.0818 82.2799 10.1112 82.4413 10.1699C82.7936 10.3166 83.2485 10.39 83.7181 10.39C84.5399 10.39 85.2736 10.1405 85.8753 9.56818C86.5651 8.89312 86.9613 7.98326 86.9613 6.79458C86.9613 5.23902 85.8606 3.80086 84.3638 3.80086C83.8208 3.80086 83.0137 4.16773 82.3533 4.84279ZM89.4611 6.10485C89.7399 4.44656 90.7672 4.31448 91.1194 4.31448C91.677 4.31448 92.3374 4.62266 92.3374 5.85537C92.3374 5.98745 92.2787 6.06082 92.1173 6.06082L89.4611 6.10485ZM93.306 8.87844C92.763 9.4361 92.3374 9.6709 91.4863 9.6709C90.958 9.6709 90.3416 9.36272 89.8867 8.61429C89.5932 8.13001 89.4171 7.45496 89.4171 6.6038L93.3206 6.63315C93.4968 6.63315 93.5995 6.5451 93.5995 6.38368C93.5995 5.15097 93.1592 3.83021 91.1194 3.83021C89.8427 3.83021 88.1844 5.04824 88.1844 7.27886C88.1844 8.10066 88.3898 8.89312 88.8741 9.45077C89.373 10.0378 90.0628 10.39 91.1194 10.39C92.2347 10.39 93.0271 9.87635 93.6142 9.11325C93.5701 8.9665 93.4821 8.89312 93.306 8.87844ZM99.354 8.42352C99.354 8.70234 99.3246 8.81974 99.1192 8.99585C98.5762 9.46545 98.1066 9.70025 97.7397 9.70025C96.9472 9.70025 96.1254 8.83442 96.1254 7.00003C96.1254 5.94342 96.3309 5.35642 96.551 5.04824C97.0059 4.35851 97.6223 4.31448 97.9158 4.31448C98.4441 4.31448 98.811 4.50526 99.1045 4.84279C99.3099 5.07759 99.354 5.18032 99.354 5.63524V8.42352ZM99.1925 9.50947C99.2512 9.45077 99.3686 9.42142 99.3686 9.52415C99.3686 9.87635 99.5301 10.39 99.5301 10.39C99.6475 10.434 99.6915 10.4193 99.8089 10.39C100.132 10.1258 100.689 9.9057 101.585 9.80298C101.673 9.71493 101.673 9.4948 101.585 9.40675C100.645 9.33337 100.513 9.05454 100.513 8.33546V1.68764C100.513 0.733756 100.572 0.146751 100.572 0.146751C100.572 0.0440257 100.513 0 100.381 0C100.014 0.146751 98.9137 0.352203 98.3267 0.396228C98.2973 0.513629 98.3267 0.748431 98.4147 0.836482C99.1779 0.880507 99.354 0.807132 99.354 2.03984V3.91826C99.354 4.02098 99.3246 4.05033 99.2219 4.05033C99.1632 4.05033 98.5615 3.80086 98.0772 3.80086C97.1087 3.80086 96.463 4.12371 95.876 4.68136C95.2449 5.31239 94.8634 6.17822 94.8634 7.26418C94.8634 9.06922 95.7732 10.39 97.3581 10.39C97.9305 10.39 98.4735 10.0965 99.1925 9.50947ZM103.035 1.45284C103.035 1.83439 103.388 2.21594 103.74 2.21594C104.151 2.21594 104.503 1.83439 104.503 1.51154C104.503 1.15933 104.195 0.748431 103.798 0.748431C103.446 0.748431 103.035 1.10063 103.035 1.45284ZM104.371 8.45287V5.53252C104.371 4.79876 104.429 3.85956 104.429 3.85956C104.429 3.80085 104.356 3.75683 104.239 3.75683C103.813 3.91826 103.241 4.05033 102.228 4.18241C102.199 4.27046 102.228 4.50526 102.258 4.59331C103.05 4.68136 103.211 4.75474 103.211 5.59122V8.45287C103.211 9.6709 103.05 9.71493 102.155 9.7883C102.067 9.87635 102.067 10.1845 102.155 10.2726C102.771 10.2579 103.153 10.2432 103.798 10.2432C104.429 10.2432 104.796 10.2579 105.427 10.2726C105.515 10.1845 105.515 9.87635 105.427 9.7883C104.532 9.7296 104.371 9.6709 104.371 8.45287ZM108.751 12.5912C108.971 12.195 109.162 11.7694 109.353 11.3292C110.527 8.51157 111.172 6.98535 111.95 5.34174C112.156 4.91616 112.596 4.44656 113.139 4.40253C113.227 4.31448 113.227 4.00631 113.139 3.91826C112.772 3.93293 112.508 3.94761 112.097 3.94761C111.583 3.94761 111.305 3.93293 110.762 3.91826C110.674 4.00631 110.674 4.31448 110.762 4.40253C111.216 4.44656 111.686 4.53461 111.466 5.06291L109.998 8.42352C109.896 8.67299 109.778 8.70234 109.646 8.40884L108.355 5.35642C108.091 4.74006 107.929 4.47591 108.824 4.40253C108.913 4.31448 108.913 4.00631 108.824 3.91826C108.281 3.93293 107.694 3.94761 107.166 3.94761C106.667 3.94761 106.271 3.93293 105.977 3.91826C105.889 4.00631 105.889 4.31448 105.977 4.40253C106.623 4.46124 106.741 4.57864 107.137 5.50317L108.795 9.36272C108.927 9.6709 109.147 10.3313 109.001 10.7422C108.839 11.2411 108.648 11.6374 108.428 12.0923C108.267 12.3858 108.061 12.5179 107.694 12.5179C107.489 12.5179 107.43 12.4738 107.269 12.4738C106.843 12.4738 106.623 12.9141 106.623 13.1049C106.623 13.4131 106.917 13.6479 107.313 13.6479C107.621 13.6479 108.208 13.5305 108.736 12.5912H108.751ZM117.623 6.82393V8.77572C117.623 8.9665 117.535 9.06922 117.417 9.15727C117.036 9.46545 116.537 9.7883 116.126 9.7883C115.392 9.7883 115.069 9.2013 115.069 8.74637C115.069 8.08599 115.377 7.42561 116.463 7.13211L117.623 6.82393ZM117.623 9.53882C117.711 9.847 117.96 10.39 118.753 10.39C119.472 10.39 120 9.80298 120 9.7296C120 9.62688 119.868 9.48012 119.809 9.48012C119.721 9.48012 119.662 9.71493 119.354 9.71493C118.782 9.71493 118.767 9.1426 118.767 8.46754V6.28095C118.767 4.19709 117.623 3.80086 116.551 3.80086C115.348 3.80086 114.13 4.63734 114.13 5.42979C114.13 5.78199 114.306 5.94342 114.644 5.94342C115.069 5.94342 115.289 5.64992 115.289 5.45914C115.289 5.35642 115.275 5.25369 115.245 5.19499C115.231 5.15097 115.216 5.06291 115.216 4.90149C115.216 4.44656 115.876 4.28513 116.434 4.28513C116.933 4.28513 117.623 4.53461 117.623 6.1929C117.623 6.29562 117.579 6.35433 117.535 6.369L116.273 6.67718C114.864 7.02938 113.851 7.80716 113.851 8.80507C113.851 9.9644 114.673 10.39 115.7 10.39C116.375 10.39 116.654 10.2726 117.3 9.77363L117.593 9.53882H117.623Z" fill="black"/>
</svg>
