<svg xmlns="http://www.w3.org/2000/svg" viewBox="0 0 132.73 40"><path fill="#4c4c4c" d="M6.922 39.449q-3.255 0-4.77-1.863c-.973-1.2-1.46-2.62-1.457-4.246 0-1.55.391-3.11 1.164-4.657.778-1.59 1.86-2.91 3.258-3.957 1.4-1.09 2.99-1.63 4.774-1.629q2.447 0 3.953 1.512c1.05 1.01 1.57 2.6 1.574 4.774 0 1.05-.137 2.11-.41 3.199 1.01-.66 1.9-1.43 2.68-2.328.773-.891 1.47-1.75 2.093-2.559.23-.312.484-.582.754-.816q.408-.405.992-.407.813 0 1.106.93c.504 1.52 1.28 2.56 2.324 3.145 1.05.543 2.11.812 3.203.812q3.134.002 4.594-2.21c.969-1.51 1.46-3.39 1.457-5.645 0-2.02-.41-4.09-1.223-6.223a21.3 21.3 0 0 0-3.199-5.82c-1.36-1.75-2.87-3-4.539-3.781.04 2.45-.465 4.5-1.512 6.168q-1.576 2.505-3.957 3.84-2.324 1.278-4.714 1.28-3.195 0-4.77-2.039c-1.05-1.36-1.57-2.95-1.57-4.77q0-3.029 1.629-5.644c1.12-1.75 2.64-3.16 4.539-4.246 1.94-1.09 4.09-1.63 6.457-1.629 2.64 0 5 .562 7.097 1.688 2.09 1.09 3.86 2.58 5.293 4.48 1.48 1.9 2.58 4.09 3.317 6.575.777 2.44 1.16 5.02 1.164 7.738 0 2.79-.484 5.43-1.453 7.91-.97 2.45-2.43 4.44-4.363 5.996-1.9 1.51-4.32 2.27-7.274 2.266q-1.979 0-3.664-.871c-1.09-.621-1.92-1.57-2.504-2.852q-1.513 1.454-3.488 2.793-1.922 1.338-4.133 2.211c-1.43.582-2.91.875-4.422.875zm9.832-24.961q1.345-.001 2.617-.64c.855-.427 1.57-1.05 2.156-1.864q.869-1.278.871-2.965c0-1.01-.328-1.84-.988-2.504q-.99-1.05-3.027-1.047-1.634 0-2.852.817a5.5 5.5 0 0 0-1.8 2.094 5.7 5.7 0 0 0-.583 2.5q0 1.859 1.047 2.734c.734.582 1.59.875 2.559.875M9.832 34.211q1.514-.001 2.676-.406 0-2.445-1.453-3.84-1.402-1.46-3.434-1.457c-.895 0-1.57.234-2.039.7a2.05 2.05 0 0 0-.695 1.57c0 .737.387 1.5 1.164 2.269.773.777 2.04 1.16 3.781 1.164M44.984 33.945c-1.11 0-2-.266-2.668-.79q-.97-.817-.969-2.058 0-.877.516-1.91c.363-.688.887-1.31 1.574-1.879-.262.082-.504.16-.726.242a15 15 0 0 1-.547.211 13 13 0 0 1-.364.121.8.8 0 0 1-.3.063.5.5 0 0 1-.305-.121.38.38 0 0 1-.152-.305q.001-.421.394-.937a9 9 0 0 1 1-1.032q.667-.608 1.152-.968.517-.364 1.18-.758.696-.425 1.852-1.121c.805-.828 1.36-1.64 1.664-2.426.305-.789.457-1.45.457-1.969q0-.82-.336-1.09-.03 1.635-.785 2.88a5.36 5.36 0 0 1-1.91 1.937q-1.156.668-2.458.668c-.949 0-1.77-.266-2.453-.79q-1.001-.782-1-2.667-.002-1.755.942-3.09a6.47 6.47 0 0 1 2.422-2.09 6.56 6.56 0 0 1 3.12-.789q1.576 0 2.606.606c.707.406 1.23.94 1.578 1.605.344.668.516 1.39.516 2.152a5.8 5.8 0 0 1-.336 1.88 5.7 5.7 0 0 1-.937 1.757 11.5 11.5 0 0 1 1.816-.547 7.5 7.5 0 0 1 1.7-.21q1.269-.001 1.816.484.546.457.546 1.03-.001.547-.394 1.09-.394.547-.91.942-.515.363-.938.363-.21 0-.304-.12-.088-.123-.516-.427a2.7 2.7 0 0 0-1.059-.484 4.4 4.4 0 0 0-1.183-.152c-1.01 0-2.01.19-3 .578-.988.363-1.83.758-2.516 1.18 1.41-.566 2.72-.848 3.91-.848q1.636 0 2.668.789 1.06.755 1.059 2.394c0 .848-.211 1.68-.637 2.485-.422.785-1 1.49-1.726 2.12a8.7 8.7 0 0 1-2.395 1.454 6.9 6.9 0 0 1-2.664.547m-1-13.484q.697 0 1.363-.336a3.07 3.07 0 0 0 1.121-.969q.452-.667.454-1.547 0-.785-.516-1.3-.515-.546-1.574-.547-.848-.002-1.485.426a2.86 2.86 0 0 0-.941 1.09 3.05 3.05 0 0 0-.3 1.304q0 .968.542 1.422a2.1 2.1 0 0 0 1.336.457m2.484 10.637c.887 0 1.69-.203 2.395-.61q1.09-.601 1.09-1.726-.001-.816-.758-1.363-.754-.546-2.574-.547c-.488 0-.941.031-1.368.094-.828.766-1.24 1.57-1.242 2.394q.002.726.578 1.242.575.516 1.88.516m13.574 2.848q-1.665-.002-2.668-.79-.968-.818-.968-2.058c0-.586.172-1.22.515-1.91.363-.688.891-1.31 1.578-1.88-.266.083-.508.16-.73.243q-.301.123-.543.211a13 13 0 0 1-.363.121.8.8 0 0 1-.305.063.5.5 0 0 1-.305-.121.39.39 0 0 1-.148-.305q-.002-.422.394-.938a9 9 0 0 1 1-1.03q.725-.64 1.27-1.032c.545-.392.852-.574 1.457-.938.199-.508.3-.98.3-1.425 0-.426-.077-.79-.242-1.09a1.65 1.65 0 0 0-.664-.727.9.9 0 0 0-.394-.152 3 3 0 0 0-.457-.09 32 32 0 0 1-1.211-.152q-.603-.122-.879-.274-.546-.364-.547-.968.001-.4.242-.88.335-.636.489-.85.18-.242.39-.243c.063 0 .121.012.184.031.082.02.16.051.242.09.566.184 1.28.375 2.152.578.867.203 1.78.301 2.727.3.445 0 .89-.026 1.332-.089a5.1 5.1 0 0 1-.332-1.789c0-.848.19-1.66.574-2.422.406-.77.95-1.38 1.637-1.848.688-.484 1.48-.73 2.363-.73q1.636.002 2.488.941.88.936.88 2.211c0 1.36-.407 2.46-1.215 3.336-.81.848-1.88 1.49-3.211 1.938-1.33.445-2.8.719-4.395.82q.211.3.211.754 0 .669-.39 1.426a18.5 18.5 0 0 1 3-1.274q1.516-.485 2.785-.484c1.269 0 1.46.16 1.82.484q.544.457.543 1.031.001.545-.395 1.09c-.262.363-.562.68-.906.942q-.515.363-.941.363-.212 0-.301-.121-.094-.122-.516-.426a2.7 2.7 0 0 0-1.062-.484 4.4 4.4 0 0 0-1.18-.153q-1.515-.001-3 .578-1.488.546-2.515 1.18c1.41-.566 2.71-.848 3.91-.847q1.636 0 2.664.789 1.06.755 1.062 2.394c0 .848-.215 1.68-.636 2.484q-.638 1.176-1.727 2.122a8.8 8.8 0 0 1-2.395 1.453 6.9 6.9 0 0 1-2.668.547zm7.211-16.88q.788-.001 1.457-.484.666-.485.664-1.457.002-.815-.511-1.332-.486-.516-1.336-.515-1.059-.001-1.606.574-.546.55-.547 1.457 0 .667.457 1.21.485.547 1.422.548m-5.726 14.032q1.336 0 2.394-.61 1.09-.603 1.09-1.726.002-.816-.758-1.364-.755-.546-2.574-.546-.726 0-1.363.093c-.828.766-1.24 1.57-1.243 2.395q0 .726.575 1.242c.387.344 1.01.516 1.879.516M78.5 34.035q-1.695 0-2.489-.937a3.54 3.54 0 0 1-.757-2.246q0-1.206.609-2.422a5.6 5.6 0 0 1 1.695-2.063 3.95 3.95 0 0 1 2.485-.847c.668 0 1.22.172 1.668.515q.698.485 1.03 1.305a4.6 4.6 0 0 1 .333 1.726q0 .543-.152 1.153.909-1.335.91-2.942c0-.809-.164-1.57-.485-2.273a4.46 4.46 0 0 0-1.363-1.727c-.586-.465-1.29-.695-2.094-.695-.746 0-1.55.332-2.422 1-.87.664-1.72 1.9-2.547 3.695q-.757 1.695-1.546 3.211-.785 1.516-1.88 2.457c-.726.625-1.63.938-2.726.938-.828 0-1.61-.23-2.332-.696q-1.058-.726-1.547-2.03a1.1 1.1 0 0 1-.058-.333c0-.184.07-.434.21-.758q.245-.517.579-1.062c.242-.363.46-.664.664-.906q.335-.368.515-.368.333 1.458 1.153 2.305c.566.547 1.16.816 1.789.817.746 0 1.4-.371 1.968-1.122a7 7 0 0 0 1.032-1.726q.45-.995.937-2.121c.324-.746.695-1.49 1.121-2.242.426-.746.961-1.45 1.606-2.122a8.5 8.5 0 0 1 2.062-1.484 4.9 4.9 0 0 1 2.332-.574q1.755-.002 2.91.848a5.03 5.03 0 0 1 1.727 2.152c.383.887.574 1.86.574 2.906q.001 1.694-.574 3.273a8.7 8.7 0 0 1-1.574 2.758 8.3 8.3 0 0 1-2.395 1.942q-1.364.696-2.972.695zm1.511-2.726q.819-.001 1.395-.184.002-1.299-.758-2.027a2.37 2.37 0 0 0-1.785-.758q-.698 0-1.063.363a1.07 1.07 0 0 0-.363.817q0 .574.606 1.183.608.604 1.968.606m12 3.726c-1.55 0-2.75-.504-3.574-1.515-.809-1.03-1.21-2.38-1.21-4.032 0-1.68.28-3.16.847-4.453.566-1.31 1.3-2.43 2.21-3.332.91-.91 1.87-1.6 2.88-2.062q1.545-.696 2.91-.696 1.455 0 2.426.817c.664.547 1 1.36 1 2.426 0 .688-.184 1.38-.547 2.09-.363.688-.86 1.32-1.485 1.91a7.5 7.5 0 0 1-2.062 1.422 5.2 5.2 0 0 1-2.3.546c-.79 0-1.36-.16-1.731-.484q-.544-.485-.543-1.152-.001-.758.484-1.211.516-.486 1.09-.668c.406-.141.676-.18.82-.121q.18.058.395.305.21.239.543.484c.242.14.527.21.847.21q.848 0 1.305-.573c.305-.406.453-.828.453-1.274q0-.727-.515-1.332-.512-.609-1.575-.61-1.336.002-2.425.911c-.727.586-1.3 1.34-1.727 2.273a6.57 6.57 0 0 0-.242 5.059c.285.707.699 1.29 1.242 1.73.547.423 1.24.638 2.094.637q1.177 0 2.058-.457a6.5 6.5 0 0 0 1.516-1.058q.668-.609 1.09-1.032.181-.18.304-.21a.45.45 0 0 1 .211-.063q.334.001.516.242a.76.76 0 0 1 .184.516q0 .334-.61 1.09c-.383.508-.918 1.04-1.605 1.605-.688.566-1.48 1.05-2.395 1.457a7 7 0 0 1-2.879.606zm12.215-.152c-.707 0-1.27-.23-1.699-.695-.422-.445-.637-1.05-.637-1.82q0-.787.336-1.786c.223-.668.574-1.38 1.059-2.121q-.575-.638-.816-1.61a9.8 9.8 0 0 1-.215-2.09c0-.542.031-1.11.094-1.695q.119-.878.3-1.726c.141-.73.406-1.39.79-2q.42-.64 1.09-1.031.697-.394 1.273-.395.516-.001.515.484 0 .212-.152.606-.484 1.185-.758 2.516c-.18.867-.273 1.7-.273 2.484q0 .486.03.941.064.423.184.817a7.35 7.35 0 0 1 2.274-2.121c.887-.523 1.71-.79 2.453-.79.645 0 1.13.196 1.453.579q.516.576.516 1.422.002.847-.547 1.699-.545.82-1.453 1.484-.906.64-2.059 1.031-1.126.394-2.305.395h-.242a1 1 0 0 1-.21-.031c-.243.668-.364 1.17-.364 1.515 0 .605.371.906 1.121.907q.816 0 1.664-.332a9.5 9.5 0 0 0 1.606-.88q.76-.516 1.304-.968c.363-.324.617-.574.758-.758q.516-.546.938-.547.428 0 .457.364c.102.809.465 1.41 1.09 1.789.648.363 1.36.547 2.12.546.567 0 1.12-.093 1.669-.273.566-.184 1.03-.453 1.394-.82q.544-.543.543-1.332 0-.907-.816-1.637c-.527-.504-1.23-.758-2.121-.758q-.878 0-1.336.063-.423.03-.664.09-.213.03-.426.03a1 1 0 0 1-.332-.062q-.152-.088-.153-.3c0-.212.063-.363.184-.668q.21-.484.695-.97.517-.484 1.485-.788c.668-.363 1.14-.738 1.426-1.121q.421-.574.421-1.09.002-.426-.242-.758a1.7 1.7 0 0 0-.574-.516 4.2 4.2 0 0 0-.789-.332q-.394-.123-.395-.457c0-.223.145-.586.426-1.09s.676-1.07 1.18-1.695a19 19 0 0 1 1.789-1.91 17.5 17.5 0 0 1 2.21-1.7 9 9 0 0 1 2.49-1.089c.343-.586.733-1.16 1.179-1.727q.698-.848 1.332-1.425.427-.421.789-.633.395-.246.789-.246c.394 0 .496.082.695.246q.335.24.336.726 0 .635-.699 1.059-.576.363-1.059.727a5.2 5.2 0 0 0-.91.878q1.396 0 2.516.364 1.147.334 1.848 1.031.696.696.695 1.79c0 .687-.18 1.36-.543 2.03a6.9 6.9 0 0 1-1.457 1.817q-.874.82-1.938 1.304a5.4 5.4 0 0 1-2.12.453q-1.546 0-2.426-.878c-.562-.605-.848-1.38-.848-2.301q0-1.186.7-2.516c-.689.344-1.37.797-2.032 1.363a15 15 0 0 0-1.79 1.786c.689.12 1.21.395 1.579.82.363.422.543.93.543 1.516q.001.786-.484 1.664t-1.575 1.636c.785.145 1.39.426 1.817.852.445.402.746.879.91 1.422.18.547.273 1.07.273 1.578q-.002.936-.578 2.09c-.383.766-.918 1.5-1.605 2.21a8.9 8.9 0 0 1-2.364 1.727 6.4 6.4 0 0 1-2.91.668q-.786 0-1.664-.273a5.5 5.5 0 0 1-1.61-.727 2.96 2.96 0 0 1-1-1.242q-1.695 1.666-3.331 2.426-1.606.785-2.817.785zm22.422-17.152c.527 0 1-.148 1.426-.453s.637-.746.637-1.332q0-.697-.426-1.153a2.5 2.5 0 0 0-1.031-.668 3.2 3.2 0 0 0-1.121-.21q-.756-.001-1.301.332c-.545.333-.547.707-.547 1.457q.001 1.03.758 1.543.789.485 1.605.484m-19.242 9.789c.547 0 1.07-.152 1.578-.453q.758-.487.758-1.063a.74.74 0 0 0-.215-.543c-.14-.164-.332-.242-.574-.242-.383 0-.84.191-1.363.574-.508.383-.91.867-1.215 1.453q.428.274 1.031.274"/></svg>