<svg xmlns="http://www.w3.org/2000/svg" viewBox="0 0 62.414 40"><path d="M20.121 0c.02 0-.211.484-.523 1.07-3.91 7.36-12 24.9-16.387 35.688-.625 1.5-1.19 2.87-1.274 3.051-.156.305-.156.293-.105-.371.309-3.9.34-15.3.066-20.25-.367-6.41-.832-11-1.613-15.801-.176-1.12-.305-2.04-.281-2.062.062-.075 4.41-1.22 4.582-1.22.148 0 .16.626.105 6.227-.074 7.94-.312 12.2-1.285 23.172l-.051.633.23-.476c.13-.262.927-1.89 1.77-3.625 3.92-8.05 9.77-18.5 13.449-24.113C19.499.863 20.094.003 20.12 0zm.824 8.727c.105 0 2.65.629 2.684.675.007.008-.172.516-.403 1.114-.863 2.28-3.76 11.5-3.636 11.64.117.118 3.52-2.28 5.402-3.827.602-.473 1.12-.871 1.16-.86.07 0 .82.852 1.313 1.512l.191.242-2.715 1.473c-2.66 1.45-4.61 2.44-5.449 2.777l-.418.168-.406 1.441c-.207.797-.38 1.46-.356 1.47.02.011 1.03 1.05 2.239 2.284 3.2 3.23 4.16 4.31 2.367 2.649-1.96-1.84-4.66-4.14-4.836-4.145-.055 0-1.12 3.99-1.8 6.766-.126.504-.243.902-.263.883-.043-.031.418-3.75.852-6.88.105-.714.156-1.36.125-1.429-.031-.074-.63-.44-1.344-.812-.945-.48-1.25-.691-1.148-.754.082-.055.777-.418 1.523-.836.746-.418 1.42-.801 1.485-.883.062-.086.207-.777.347-1.547.652-3.81 1.67-8.45 2.555-11.578.242-.848.477-1.54.531-1.543zm-3.57 15.578c-.426.12-.844.27-1.25.441-.024.02.199.207.492.43s.578.359.621.308c.043-.054.105-.34.148-.644.043-.305.032-.547-.011-.535zM15.379 11.57l.957.008c.52.012 1.08.043 1.238.086l.297.062-1.273 2.133c-.695 1.18-1.28 2.12-1.305 2.106-.02-.024-.008-1.01.024-2.22zm17.762.094.293.063-1.207 2.039c-.664 1.12-1.25 2.09-1.305 2.144-.094.098-.05-3.9.043-4.215.051-.137 1.62-.168 2.176-.031zm15.418.274c.043.043-2.3 3.35-2.387 3.394-.074.024-.44-3.33-.367-3.449.031-.058 2.69-.008 2.754.055zm4.418-.024c.148.023-2.11 3.36-2.262 3.34-.074 0-.453-3.25-.39-3.383.035-.047 2.26-.008 2.652.043zm-13.274 1.559c1.05.18 1.03.168.82.492-.105.16-.664 1.02-1.23 1.914-.566.895-1.27 1.95-1.555 2.324-.473.645-.508.715-.41 1.055.281.957.43 2.24.43 3.723 0 2.63-.461 4.65-1.473 6.531-.23.43-.398.777-.367.777.148 0 1.19-.578 1.668-.914a32.16 32.16 0 0 0 1.613-1.336c1.83-1.61 1.82-1.59-.36 1.25-1.5 1.95-3.09 3.37-4.206 3.735-.914.305-2.14-.281-2.766-1.324-.328-.54-1.27-3.04-1.273-3.34 0-.043.398.293.882.758.484.46 1.15.965 1.454 1.113.684.336.578.441 1.554-1.566.79-1.62 1.18-2.69 1.485-4.047.23-1.06.355-3.08.23-3.89l-.086-.579-.797 1.05c-.988 1.29-2.47 2.73-4.195 4.048-.719.547-1.37 1.05-1.453 1.093-.086.051.398-.516 1.082-1.261 1.92-2.09 2.79-3.31 4.281-5.992.836-1.48.84-1.52 1.2-3.207.187-.941.366-1.71.378-1.727.18-.156 1.05-.504 1.535-.621.758-.195.801-.195 1.559-.059zm20.602 3.89 1.262-.012.465 1.125c.457 1.07.457 1.12.261 1.262-2.46 1.78-6.73 5.48-9.242 8.016l-1.055 1.062h.496c1.15 0 4.02-.715 7.332-1.832.957-.324 1.74-.566 1.766-.547.05.043-2.07 1.25-3.863 2.2-2.45 1.29-7.24 3.44-7.684 3.437-.19 0-.789-1.7-.664-1.914.73-1.26 6.66-7.49 9.402-9.899l.579-.504-1.106.063c-1.33.086-2.65.301-3.934.64-.566.149-1.06.243-1.082.212-.043-.043.672-2.59.747-2.66.074-.075 2.83-.466 3.847-.54a56.02 56.02 0 0 1 2.473-.11z"/><path d="m13.695 17.48.8.367c.442.2.927.41 1.095.473a.674.674 0 0 1 .28.148c0 .008-.23.797-.515 1.746a66.068 66.068 0 0 1-3.082 8.16c-.344.767-.609 1.42-.578 1.45.148.16 1.62-.82 3-1.98l.988-.844-.398.64c-.695 1.07-1.66 2.24-2.957 3.524-.672.672-1.26 1.22-1.3 1.222-.036 0-.356-.566-.716-1.261l-.652-1.262.59-1.598c.328-.883.625-1.71.683-1.851.23-.547 2.2-6.79 2.473-7.829zm15.567-.011.535.254c.293.125.777.344 1.063.473.285.125.535.25.558.261.04.043-.988 3.4-1.433 4.625-.617 1.71-1.43 3.7-2.145 5.293-.348.766-.609 1.43-.566 1.461.113.117 1.73-.957 2.847-1.879l1.106-.941-.336.558c-.566.945-1.79 2.4-3.027 3.63-.664.651-1.23 1.18-1.266 1.183s-.355-.566-.723-1.262l-.648-1.242.379-1.02c.207-.558.547-1.47.746-2.03.578-1.59 2.29-6.99 2.617-8.235zm18.926.41c.066 0 .652.312 1.316.703l1.2.715-.063 1.473c-.148 3.89-1.19 6.53-3.45 8.75-.968.949-2.5 2.12-3.378 2.597l-.566.313-1.168-.926c-1.36-1.06-1.28-.852-1.02-2.871.484-3.66 1.64-6.23 3.766-8.316 1.03-1.02 1.18-1.12 2.343-1.864.508-.312.97-.574 1.02-.574zm-.398 1.367c-.22 0-1.91 1.65-2.418 2.356-1.58 2.23-2.35 5.25-2.063 8.054.063.602.156 1.14.2 1.18.136.137 1.47-.863 2.179-1.61a9.81 9.81 0 0 0 1.809-2.69c.988-2.14 1.26-5.22.586-6.88-.082-.223-.22-.41-.29-.41z"/></svg>