<svg xmlns="http://www.w3.org/2000/svg" width="146" height="44" fill="none"><path fill="#fff" d="M0 0h146v44H0z"/><path fill="#555" d="M0 28.628v-.968h.3c.356 0 .672-.038.95-.115.293-.077.524-.23.694-.46.17-.247.255-.608.255-1.084V14.71c0-.46-.093-.799-.278-1.014a1.115 1.115 0 0 0-.694-.438 3.47 3.47 0 0 0-.926-.115H0v-.968h6.202c2.006 0 3.495.338 4.467 1.014.987.66 1.481 1.698 1.481 3.111 0 .676-.123 1.252-.37 1.728a3.264 3.264 0 0 1-1.018 1.175c-.433.292-.926.53-1.482.715v.092c.71.123 1.327.36 1.852.714.54.338.956.799 1.25 1.383.308.568.462 1.26.462 2.074 0 1.49-.493 2.604-1.48 3.34-.973.738-2.462 1.107-4.467 1.107H0Zm6.78-1.152c1.312 0 2.238-.254 2.778-.76.54-.508.81-1.376.81-2.605 0-.798-.108-1.459-.324-1.981a2.152 2.152 0 0 0-1.088-1.152c-.509-.262-1.218-.392-2.129-.392H4.536v6.89h2.245Zm-.647-8.042c.91 0 1.62-.108 2.13-.323.508-.215.87-.553 1.087-1.014.216-.46.324-1.06.324-1.797 0-1.137-.27-1.913-.81-2.327-.54-.43-1.466-.646-2.777-.646H4.536v6.107h1.597ZM18.521 28.812c-.663 0-1.188-.13-1.573-.391-.37-.262-.633-.653-.787-1.176-.155-.537-.24-1.19-.255-1.958l-.07-9.01h2.361l-.185 9.079c0 .276.016.545.046.806.047.246.108.461.186.646.092.184.216.33.37.437a.908.908 0 0 0 .532.162c.262 0 .47-.031.625-.093.154-.076.332-.169.532-.276l.394.968c-.2.169-.494.345-.88.53-.37.184-.802.276-1.296.276ZM23.5 25.909l.093-1.89 4.12-5.092c.37-.461.701-.86.994-1.198.309-.354.602-.646.88-.876.293-.23.586-.4.88-.507.308-.123.64-.184.994-.184.648 0 1.073.192 1.273.576.2.384.301.875.301 1.474-.617.016-1.15.047-1.597.093-.432.046-.802.13-1.11.253a3.076 3.076 0 0 0-.857.461c-.247.2-.51.46-.787.784L23.5 25.908Zm-1.388 2.719-.116-12.351h2.36l-.3 12.351h-1.944Zm8.933.138c-.417 0-.803-.046-1.157-.138-.34-.108-.672-.33-.996-.668-.323-.354-.67-.891-1.041-1.613l-2.152-4.31 1.342-1.382 2.94 5.116c.261.445.477.783.647 1.014.185.23.363.384.532.46.17.077.355.116.556.116.17 0 .34-.031.51-.093.184-.061.37-.153.555-.276l.393.968c-.324.26-.663.46-1.018.599-.34.138-.71.207-1.111.207ZM37.416 28.812c-.664 0-1.188-.13-1.574-.391-.37-.262-.633-.653-.787-1.176-.154-.537-.24-1.19-.255-1.958l-.07-9.01h2.362l-.186 9.079c0 .276.016.545.047.806.046.246.108.461.185.646.092.184.216.33.37.437a.908.908 0 0 0 .532.162c.263 0 .47-.031.625-.093.154-.076.332-.169.532-.276l.394.968c-.2.169-.494.345-.88.53-.37.184-.802.276-1.295.276ZM46.681 34.158l.324-14.171c.016-.707.108-1.306.278-1.797.185-.508.424-.915.717-1.222.294-.322.64-.553 1.042-.691a3.85 3.85 0 0 1 1.342-.23c.926 0 1.728.238 2.407.714.694.46 1.234 1.129 1.62 2.005.386.875.578 1.92.578 3.133 0 1.214-.23 2.328-.694 3.342a5.986 5.986 0 0 1-2.106 2.488c-.94.63-2.121.999-3.54 1.106l-.024-1.014c.74-.107 1.373-.33 1.898-.668.54-.353.972-.79 1.296-1.313a5.933 5.933 0 0 0 .717-1.729 8.49 8.49 0 0 0 .232-1.981c0-.707-.047-1.36-.139-1.959-.093-.599-.24-1.114-.44-1.544-.2-.445-.455-.783-.764-1.014a1.602 1.602 0 0 0-1.064-.368 1.79 1.79 0 0 0-.88.23c-.277.154-.493.469-.648.945-.154.476-.215 1.198-.185 2.166l.394 13.572h-2.36Zm.301-5.346c-1.327-.061-2.46-.345-3.402-.852a5.339 5.339 0 0 1-2.13-2.166c-.493-.937-.74-2.059-.74-3.365 0-.921.155-1.812.463-2.673.324-.86.81-1.62 1.458-2.28.664-.661 1.504-1.138 2.523-1.43l.231.37c-.509.291-.949.698-1.319 1.22-.37.523-.656 1.183-.856 1.982-.185.784-.278 1.744-.278 2.88 0 1.076.139 2.005.417 2.789.277.768.71 1.367 1.296 1.797.601.43 1.388.684 2.36.76l-.023.968ZM63.085 28.858c-1.265 0-2.314-.36-3.148-1.083-.817-.722-1.427-1.75-1.828-3.087-.386-1.337-.578-2.934-.578-4.793 0-1.86.192-3.457.578-4.793.401-1.352 1.01-2.39 1.828-3.111.834-.737 1.89-1.106 3.171-1.106 1.203 0 2.214.369 3.032 1.106.817.722 1.435 1.759 1.851 3.11.417 1.353.625 2.958.625 4.817 0 1.843-.208 3.433-.625 4.77-.416 1.336-1.034 2.365-1.851 3.087-.818.722-1.836 1.083-3.055 1.083Zm0-1.175c.725 0 1.327-.292 1.805-.875.494-.6.872-1.452 1.134-2.558.262-1.106.401-2.427.417-3.964l-6.735.461c.015 1.383.147 2.596.393 3.641.263 1.03.64 1.836 1.135 2.42.493.583 1.11.875 1.85.875Zm3.333-8.48c-.031-1.474-.178-2.742-.44-3.802-.247-1.075-.61-1.897-1.088-2.465-.478-.584-1.072-.876-1.782-.876s-1.311.284-1.805.853c-.494.568-.872 1.367-1.134 2.396-.262 1.014-.417 2.197-.463 3.549l6.712.345ZM75.741 28.858c-1.08 0-1.967-.153-2.661-.46-.695-.308-1.212-.715-1.55-1.222a3.134 3.134 0 0 1-.487-1.682c0-.614.123-1.121.37-1.52.263-.4.594-.723.996-.968a5.576 5.576 0 0 1 1.272-.577v-.115c-.694-.215-1.242-.576-1.643-1.083a2.648 2.648 0 0 1-.602-1.682c0-.707.186-1.313.556-1.82.386-.523.941-.93 1.666-1.222.725-.292 1.597-.438 2.615-.438.864 0 1.59.116 2.176.346.602.23 1.049.523 1.342.876.309.353.463.722.463 1.106 0 .323-.07.591-.208.806-.14.215-.363.377-.672.484-.293.108-.686.162-1.18.162.031-.6-.023-1.091-.162-1.475-.139-.384-.37-.668-.694-.853-.309-.2-.725-.3-1.25-.3-.586 0-1.064.116-1.435.346-.355.215-.617.5-.787.853a2.79 2.79 0 0 0-.23 1.129c0 .369.053.707.161 1.014.124.292.3.545.532.76.232.2.51.346.834.438a13.9 13.9 0 0 1 1.62-.415c.555-.107.971-.153 1.25-.138.169.154.277.323.323.507.047.169.07.315.07.438 0 .353-.14.622-.417.806-.262.185-.594.27-.995.254-.185 0-.432-.054-.74-.162a16.983 16.983 0 0 1-.857-.322c-.416.123-.787.3-1.11.53-.31.23-.556.507-.741.83-.186.307-.278.66-.278 1.06 0 .506.116.929.347 1.267.231.322.57.568 1.018.737.463.17 1.019.254 1.667.254a5.68 5.68 0 0 0 1.504-.185c.463-.138.872-.33 1.227-.576.354-.245.632-.545.833-.898.108.076.2.2.277.368.078.154.116.33.116.53 0 .277-.085.553-.254.83-.17.261-.432.5-.787.714-.355.2-.826.361-1.412.484-.57.123-1.265.184-2.083.184Zm.579-14.194-.81-.323.925-3.594c.078-.292.201-.492.37-.6a.883.883 0 0 1 .625-.138c.247.03.494.115.741.254.262.123.501.284.717.484v.276l-2.568 3.64ZM85.951 33.582l-.579-.115.556-5.369 1.736-.392c.216 1.106.385 2.059.509 2.858.139.814.17 1.467.092 1.958-.077.507-.293.845-.648 1.014-.355.184-.91.2-1.666.046Zm-.07-4.954a1218.79 1218.79 0 0 1-1.04-4.378 174.886 174.886 0 0 0-.765-3.134 22.114 22.114 0 0 0-.601-2.028c-.17-.522-.34-.899-.51-1.129-.17-.23-.354-.346-.555-.346-.154 0-.308.031-.463.093a6.227 6.227 0 0 0-.532.276l-.394-.968c.34-.276.687-.476 1.042-.599a3.032 3.032 0 0 1 1.11-.207c.464 0 .85.1 1.158.3.308.184.578.514.81.99.247.476.486 1.137.717 1.982.232.83.486 1.897.764 3.203.293 1.29.656 2.85 1.088 4.678a11.127 11.127 0 0 0 1.435-1.752c.416-.645.763-1.298 1.041-1.958.293-.66.51-1.306.648-1.936.154-.63.232-1.206.232-1.728 0-.538-.093-.96-.278-1.267a1.854 1.854 0 0 0-.74-.761 4.4 4.4 0 0 0-1.181-.438c0-.445.116-.79.347-1.037.247-.26.579-.391.995-.391.74 0 1.258.268 1.55.806.31.538.464 1.306.464 2.304 0 .707-.1 1.483-.301 2.328a14.36 14.36 0 0 1-.88 2.558c-.385.86-.856 1.682-1.411 2.465a10.878 10.878 0 0 1-1.852 2.074h-1.897ZM94.556 34.158l.07-8.434-.116-9.447h2.36l-.162 8.664c0 .353.077.722.232 1.106.154.384.409.707.763.968.37.246.849.369 1.435.369.571 0 1.065-.139 1.481-.415a3.03 3.03 0 0 0 .995-1.083c.232-.446.348-.883.348-1.314l-.07-8.295h2.361l-.208 9.125c0 .507.015.906.046 1.198.046.277.123.476.231.6.124.107.293.16.509.16.139 0 .278-.03.417-.092.154-.076.309-.169.463-.276l.393.968a5.154 5.154 0 0 1-.949.576c-.339.153-.74.23-1.203.23-.463 0-.825-.084-1.088-.253a1.494 1.494 0 0 1-.578-.692 4.824 4.824 0 0 1-.278-1.037h-.046a5.582 5.582 0 0 1-.648 1.107 2.352 2.352 0 0 1-.88.714c-.355.169-.802.253-1.342.253a2.95 2.95 0 0 1-1.018-.16 2.479 2.479 0 0 1-.764-.439c-.2-.184-.363-.4-.486-.645h-.046l.138 6.544h-2.36ZM111.893 28.858c-.617 0-1.18-.115-1.689-.345a3.662 3.662 0 0 1-1.342-1.06c-.371-.492-.664-1.13-.88-1.913-.2-.783-.301-1.728-.301-2.834 0-1.49.201-2.727.602-3.71.401-.983.957-1.72 1.666-2.212.726-.492 1.559-.737 2.5-.737.679 0 1.28.13 1.805.391.525.246.98.66 1.365 1.245.402.568.718 1.344.949 2.327h.139l1.25-3.733h2.523l-3.333 6.59c.308.999.563 1.798.764 2.397.216.599.401 1.052.555 1.36.154.291.301.49.44.598a.782.782 0 0 0 .44.139c.169 0 .331-.039.486-.116.154-.092.3-.176.439-.253l.394.968c-.247.2-.548.384-.903.553-.339.169-.764.253-1.273.253-.37 0-.686-.061-.949-.184a1.7 1.7 0 0 1-.648-.6 5.486 5.486 0 0 1-.463-1.105c-.138-.446-.277-.991-.416-1.636h-.093c-.2.66-.486 1.267-.856 1.82a4.37 4.37 0 0 1-1.342 1.314c-.525.322-1.134.483-1.829.483Zm.186-1.474c.447 0 .84-.093 1.18-.277.339-.2.64-.484.902-.852.278-.384.54-.845.787-1.383s.494-1.152.741-1.843a74.954 74.954 0 0 0-.648-2.35 9.932 9.932 0 0 0-.625-1.752c-.231-.476-.501-.837-.81-1.083-.309-.246-.694-.369-1.157-.369-.37 0-.71.108-1.018.323-.294.215-.556.53-.787.945-.232.414-.409.937-.533 1.566-.123.63-.185 1.36-.185 2.19 0 .814.047 1.528.139 2.143.093.614.232 1.129.417 1.543.185.4.409.7.671.9.278.199.586.299.926.299Z"/><path fill="#555" d="m121.188 19.019-.717-.23c.139-.415.285-.776.44-1.083.154-.323.339-.584.555-.784.216-.215.478-.376.787-.484.324-.107.717-.161 1.18-.161h7.661l-.232 1.912h-8.146c-.17 0-.347.031-.532.093-.17.046-.34.13-.51.253a2.445 2.445 0 0 0-.486.484Zm6.295 9.793c-.663 0-1.203-.13-1.62-.391-.401-.262-.686-.653-.856-1.176-.154-.537-.201-1.19-.139-1.958l.625-8.088h1.435l.046 8.157c0 .368.039.714.116 1.037.077.307.193.553.347.737a.87.87 0 0 0 .671.277c.263 0 .471-.031.625-.093.154-.076.332-.169.532-.276l.394.968c-.201.169-.494.345-.88.53-.37.184-.802.276-1.296.276ZM137.229 28.858a4.052 4.052 0 0 1-1.69-.345 3.67 3.67 0 0 1-1.342-1.06c-.37-.492-.663-1.13-.879-1.913-.201-.783-.301-1.728-.301-2.834 0-1.49.2-2.727.601-3.71.402-.983.957-1.72 1.667-2.212.725-.492 1.558-.737 2.499-.737.679 0 1.281.13 1.805.391.525.246.98.66 1.366 1.245.401.568.717 1.344.949 2.327h.139l1.249-3.733h2.523l-3.333 6.59c.309.999.563 1.798.764 2.397.216.599.401 1.052.555 1.36.155.291.301.49.44.598a.784.784 0 0 0 .44.139c.17 0 .332-.039.486-.116.154-.092.301-.176.44-.253l.393.968c-.247.2-.548.384-.903.553-.339.169-.763.253-1.272.253-.371 0-.687-.061-.949-.184a1.7 1.7 0 0 1-.648-.6 5.43 5.43 0 0 1-.463-1.105c-.139-.446-.278-.991-.417-1.636h-.092a6.796 6.796 0 0 1-.857 1.82 4.36 4.36 0 0 1-1.342 1.314c-.524.322-1.134.483-1.828.483Zm.185-1.474c.447 0 .841-.093 1.18-.277.34-.2.641-.484.903-.852.278-.384.54-.845.787-1.383s.493-1.152.74-1.843a69.84 69.84 0 0 0-.648-2.35c-.185-.692-.393-1.276-.625-1.752-.231-.476-.501-.837-.81-1.083-.308-.246-.694-.369-1.157-.369-.37 0-.71.108-1.018.323-.293.215-.556.53-.787.945-.231.414-.409.937-.532 1.566-.124.63-.185 1.36-.185 2.19 0 .814.046 1.528.138 2.143.093.614.232 1.129.417 1.543.185.4.409.7.671.9.278.199.586.299.926.299Z"/></svg>