<svg xmlns="http://www.w3.org/2000/svg" width="118" height="22"><path fill="#010101" fill-rule="nonzero" d="M24.94 12.556v-3.73h8.13v.795h-3.302v2.873h1.687c1.151 0 1.99.237 2.515.712.525.476.787 1.12.787 1.933 0 .743-.196 1.335-.589 1.772-.393.437-.845.74-1.357.91-.511.168-.964.252-1.356.252a5.209 5.209 0 0 1-1.469-.191 2.663 2.663 0 0 1-1.163-.707 5.532 5.532 0 0 1-.915.625c-.372.21-.874.314-1.504.314-1.11 0-1.956-.271-2.535-.815-.58-.545-.869-1.279-.869-2.201 0-.765.22-1.361.66-1.789.44-.426.868-.677 1.28-.753Zm.946.733c-.603 0-1.101.171-1.494.512-.393.34-.589.814-.589 1.42 0 .538.166 1 .498 1.39.332.39.847.584 1.545.584.785 0 1.381-.193 1.788-.579.407-.385.61-1.012.61-1.88V13.29h-2.358Zm-.163-3.668v2.873h2.52V9.62h-2.52Zm4.045 3.668v1.323c0 .468-.053.875-.158 1.219-.105.344-.211.596-.32.754.129.186.354.352.676.496.322.145.642.218.96.218.576 0 1.104-.163 1.585-.486.482-.324.722-.875.722-1.654 0-.702-.205-1.19-.615-1.461-.41-.273-.913-.409-1.509-.409h-1.341Zm-.854-8.245a.99.99 0 0 1 .732.31c.203.206.305.461.305.765 0 .282-.102.526-.305.733a.99.99 0 0 1-.732.31 1.01 1.01 0 0 1-.731-.31.993.993 0 0 1-.315-.733c0-.29.101-.542.304-.755a.985.985 0 0 1 .742-.32ZM46.687 4c1.212 0 2.052.355 2.52 1.064.467.71.7 1.671.7 2.883v10.126h-.68V8.216c0-.765-.178-1.41-.534-1.938-.355-.526-1.018-.79-1.986-.79-.657 0-1.18.17-1.565.511-.386.342-.58.76-.58 1.256 0 .53.15.94.448 1.23.141.137.3.251.478.342l.803-.002v.796h-3.303v2.873h1.687c1.151 0 1.99.237 2.515.712.525.476.787 1.12.787 1.933 0 .743-.196 1.335-.589 1.772-.393.437-.845.74-1.357.91-.511.168-.963.252-1.356.252a5.209 5.209 0 0 1-1.469-.191 2.663 2.663 0 0 1-1.163-.707 5.532 5.532 0 0 1-.915.625c-.372.21-.874.314-1.503.314-1.111 0-1.957-.271-2.536-.815-.579-.545-.869-1.279-.869-2.201 0-.765.22-1.361.66-1.789.441-.426.868-.677 1.281-.753v-3.73h6.235a2.13 2.13 0 0 1-.108-.104c-.406-.42-.61-1.002-.61-1.746 0-.758.267-1.443.798-2.056.532-.613 1.269-.92 2.21-.92Zm-2.358 9.289h-1.341v1.323c0 .468-.053.875-.157 1.219-.106.344-.212.596-.32.754.128.186.353.352.675.496.322.145.642.218.96.218.576 0 1.105-.163 1.585-.486.482-.324.722-.875.722-1.654 0-.702-.205-1.19-.615-1.461-.41-.273-.913-.409-1.509-.409Zm-2.865 0h-2.358c-.603 0-1.1.171-1.494.512-.393.34-.589.814-.589 1.42 0 .538.166 1 .498 1.39.332.39.847.584 1.545.584.785 0 1.381-.193 1.788-.579.407-.385.61-1.012.61-1.88V13.29Zm0-3.668h-2.52v2.873h2.52V9.62Zm10.831 8.452V8.825h1.524v8.453h6.342V8.825h1.524v9.248h-9.39Zm3.882-13.03a.99.99 0 0 1 .732.31c.203.207.304.462.304.766 0 .282-.101.526-.304.733a.99.99 0 0 1-.732.31 1.01 1.01 0 0 1-.732-.31.993.993 0 0 1-.315-.733c0-.29.102-.542.305-.755a.985.985 0 0 1 .742-.32ZM71.53 4.02c.94 0 1.64.212 2.093.636.454.424.682.911.682 1.463 0 .612-.174 1.088-.519 1.426-.347.337-.84.505-1.484.505-.446 0-.826-.15-1.138-.454a1.486 1.486 0 0 1-.468-1.106c0-.268.039-.48.112-.635.076-.155.17-.278.284-.367a1.6 1.6 0 0 0-.99.543c-.275.306-.411.69-.411 1.152 0 .55.222.987.665 1.307.408.295.792.474 1.153.539v-.204h1.526v9.248h-9.39V8.825h1.524v8.453h6.34l-.001-7.721-.185-.023c-.727-.113-1.32-.358-1.785-.735-.522-.423-.783-1.072-.783-1.947 0-.634.258-1.264.773-1.891s1.182-.94 2.002-.94Zm.772 1.551a.838.838 0 0 0-.635.263.918.918 0 0 0-.25.656c0 .276.085.496.255.662a.87.87 0 0 0 .63.247.82.82 0 0 0 .615-.273.927.927 0 0 0 .26-.656.874.874 0 0 0-.265-.63.833.833 0 0 0-.61-.269Zm9.305 16.428-1.5.001 1.642-3.927h-6.682V8.825h1.553v8.453h3.973c-.473-.269-.939-.74-1.396-1.41-.457-.672-.687-1.484-.687-2.434 0-1.289.293-2.26.88-2.914.585-.654 1.298-.981 2.139-.981.954 0 1.764.282 2.43.847.661.564.994 1.387.994 2.468 0 .442-.056.9-.168 1.375a9.065 9.065 0 0 1-.555 1.58l-.636 1.47L86 17.278v.795l-2.738.002L81.608 22Zm1.708-7.677c.081-.192.15-.42.205-.681.055-.262.08-.517.08-.765 0-.682-.181-1.255-.547-1.72-.366-.466-.952-.698-1.757-.698-.536 0-1.002.26-1.398.782-.396.52-.594 1.293-.594 2.314 0 .705.172 1.333.515 1.885s.74.988 1.184 1.305c.445.318.808.493 1.091.528l1.221-2.95ZM17.51 0c1.691 0 2.862.477 3.513 1.43.652.954.978 2.246.978 3.875v13.612h-.95V5.667c0-1.028-.247-1.897-.743-2.605S18.888 2 17.537 2c-.915 0-1.643.23-2.18.687-.54.459-.808 1.021-.808 1.687 0 .714.207 1.264.623 1.653.335.314.74.537 1.217.67l.001-.211h2.125v12.43H9.152v-.624c.85-.713 1.459-1.442 1.827-2.188.368-.745.552-1.771.552-3.076 0-1.482-.415-2.764-1.246-3.847-.832-1.084-2.14-1.626-3.924-1.626-1.436 0-2.678.49-3.726 1.473-1.048.981-1.572 2.134-1.572 3.458v.68c.056-.397.317-.84.782-1.326.464-.486 1.157-.73 2.077-.73 1.156 0 2.119.328 2.887.98.768.653 1.153 1.586 1.153 2.799 0 1.176-.31 2.155-.929 2.937C6.415 18.61 5.511 19 4.321 19a4.02 4.02 0 0 1-1.998-.542c-.642-.36-1.19-1.008-1.643-1.945C.227 15.58 0 14.31 0 12.71c0-1.714.64-3.202 1.92-4.466C3.2 6.979 4.774 6.347 6.644 6.347c1.936 0 3.598.542 4.986 1.625 1.389 1.083 2.083 2.75 2.083 5a6.9 6.9 0 0 1-.694 3.063c-.463.949-.902 1.553-1.318 1.812h4.69l-.002-10.429c-.975-.209-1.716-.566-2.223-1.07C13.6 5.781 13.316 5 13.316 4c0-1.019.371-1.94 1.112-2.764C15.17.412 16.197 0 17.51 0ZM3.67 12.5c-.132 0-.27.014-.41.042-.549.12-.952.41-1.212.868s-.39.979-.39 1.562c0 .213.038.565.114 1.055.075.492.342.924.8 1.3.458.375.91.562 1.353.562.085 0 .274-.028.567-.083.292-.056.585-.306.878-.75.293-.445.44-.982.44-1.611 0-.269-.03-.542-.086-.82a2.915 2.915 0 0 0-.665-1.493c-.36-.422-.822-.633-1.389-.633Zm90.451 5.442v-2.14A3.652 3.652 0 0 1 93 17.35c-.523.434-1.172.651-1.946.651-.934 0-1.63-.31-2.087-.933a4.879 4.879 0 0 1-.882-2.162L88 13.806V5h1.08v8.835c.018.694.134 1.387.349 2.075.214.69.812 1.034 1.793 1.034.606 0 1.127-.289 1.561-.867a7.28 7.28 0 0 0 1.044-1.996c.093-.337.191-.674.293-1.013V5h2.102v11.83h7.31V5h2.101v12.942H94.12Zm20.953 0h-2.101V6.112h-3.473v11.83h-1.079V5H118v1.113h-2.927v11.829Z"/></svg>