<svg xmlns="http://www.w3.org/2000/svg" width="118" height="11"><path fill="#000" fill-rule="nonzero" d="m7.506 6.511 1.005-4.973C8.709.508 8.933.446 9.813.409 9.9.335 9.95.074 9.888 0c-.608.012-.98.025-1.613.025-.62 0-.98-.013-1.6-.025-.086.074-.136.335-.074.41.657.036.93.074.918.57a2.873 2.873 0 0 1-.447.595L2.818 5.817c-.111.099-.198.136-.248.136l.893-4.415C3.662.508 3.885.446 4.765.409 4.852.335 4.902.074 4.84 0c-.608.012-.98.025-1.612.025-.62 0-.98-.013-1.6-.025-.087.074-.137.335-.075.41.856.036 1.054.098.856 1.128L1.404 6.51C1.206 7.541.983 7.603.102 7.64c-.087.074-.136.335-.074.41.607-.013.98-.026 1.612-.026.62 0 .98.013 1.6.025.087-.074.136-.335.074-.41-.67-.024-.955-.074-.93-.582.137-.298.285-.397.471-.583l4.23-4.217a.62.62 0 0 1 .26-.161l-.893 4.415C6.254 7.541 6.03 7.603 5.15 7.64c-.087.074-.137.335-.075.41.608-.013.98-.026 1.613-.026.62 0 .98.013 1.6.025.086-.074.136-.335.074-.41-.856-.036-1.054-.098-.856-1.128M11.5 4.167c.41-.657 1.091-1.017 1.513-1.017.757 0 1.141.794.844 2.295-.224 1.066-.695 2.282-2.022 2.282-.198 0-.608-.025-.943-.534l.608-3.026m.298-1.463-.025-.025s-.285.025-.459.025c-.434 0-1.277-.025-1.277-.025l-.025.025-.05.235c-.012.062.013.1.075.1l.235.024c.397.05.496.199.422.546L9.415 9.996c-.062.348-.272.509-.644.546l-.236.025c-.062.012-.112.037-.124.099l-.037.236.012.024s.856-.024 1.29-.024c.484 0 1.327.024 1.327.024l.037-.024.037-.236c.013-.062-.024-.087-.086-.1l-.236-.024c-.385-.037-.484-.198-.422-.546l.422-2.12c.298.173.62.272 1.067.272.644 0 1.203-.21 1.785-.694.67-.57 1.141-1.34 1.34-2.344.26-1.315-.285-2.53-1.488-2.53-.397 0-1.092.124-1.836.992h-.037l.21-.868m5.368 1.823c.52-1.402 1.414-1.513 1.712-1.513.47 0 .98.26.769 1.302-.025.112-.087.174-.224.174l-2.257.037m2.79 2.344c-.558.471-.954.67-1.674.67-.446 0-.918-.26-1.178-.893-.161-.41-.198-.98-.05-1.7l3.287.025c.149 0 .248-.074.285-.21.199-1.042.05-2.159-1.674-2.159-1.079 0-2.679 1.03-3.063 2.915-.137.695-.1 1.364.223 1.836.322.496.843.793 1.736.793.943 0 1.7-.434 2.32-1.079-.013-.124-.075-.186-.211-.198m.92 1.153.025.025s.844-.025 1.278-.025c.484 0 1.203.025 1.203.025l.025-.025.05-.235c.012-.062-.038-.087-.088-.1-.26-.037-.62-.111-.533-.52l.347-1.737c.918.062 1.104.509 1.203 1.19.075.547.286 1.402.906 1.415l.893.012.037-.025.05-.223c.012-.087-.075-.112-.124-.112l-.087-.012c-.434-.062-.732-1.141-.831-1.612-.137-.608-.533-.88-1.203-.88l.012-.05c.484-.137.856-.559 1.141-1.055.211-.384.496-.657.62-.657a.41.41 0 0 1 .26.087.478.478 0 0 0 .323.111c.26 0 .521-.223.57-.47.05-.298-.024-.559-.533-.559-.595 0-1.128.67-1.475 1.253-.41.682-.844 1.153-1.675 1.153l.286-1.414c.086-.446.36-.508.719-.545.05 0 .111-.062.124-.124l.05-.211-.025-.025s-.695.025-1.179.025c-.434 0-1.277-.025-1.277-.025l-.025.025-.05.235c-.012.062.025.087.075.1l.236.024c.384.038.483.199.409.546l-.707 3.535c-.062.347-.174.471-.62.52l-.248.025c-.062.013-.1.038-.112.1l-.05.235m5.675-.57c-.074.384.187.72.732.72.596 0 .992-.31 1.402-.993.347-.595.67-1.86.83-2.704.2-.967.298-1.29.77-1.29h.558c.446 0 .459.174.372.596l-.658 3.324c-.074.36-.198.508-.644.558l-.249.024c-.062.013-.099.038-.111.1l-.05.235.025.025s.843-.025 1.29-.025c.484 0 1.327.025 1.327.025l.025-.025.05-.235c.012-.062-.038-.1-.087-.1l-.224-.024c-.397-.038-.496-.199-.421-.558l.694-3.46c.087-.472.137-.546.62-.584l.348-.024c.074 0 .111-.025.124-.087l.05-.248-.038-.025s-.843.025-1.377.025H29.75c-.496 0-1.277-.025-1.277-.025l-.037.025-.038.198c-.024.112.025.124.224.137.694.05.694.223.434 1.525-.26 1.302-.496 1.984-.757 2.493-.248.446-.471.608-.67.608-.148 0-.186-.1-.173-.26.012-.224 0-.472-.335-.472-.298 0-.509.248-.57.52m8.296-2.926c.52-1.402 1.414-1.513 1.712-1.513.47 0 .98.26.769 1.302-.025.112-.087.174-.224.174l-2.257.037m2.79 2.344c-.558.471-.954.67-1.674.67-.446 0-.918-.26-1.178-.893-.161-.41-.198-.98-.05-1.7l3.287.025c.149 0 .248-.074.285-.21.199-1.042.05-2.159-1.674-2.159-1.079 0-2.679 1.03-3.063 2.915-.137.695-.1 1.364.223 1.836.322.496.843.793 1.736.793.943 0 1.7-.434 2.32-1.079-.013-.124-.075-.186-.211-.198m4.257.136c-.124.658.657 1.141 1.786 1.141 1.228 0 2.641-.868 3.038-2.865.298-1.5-.16-2.703-1.81-2.703-.583 0-1.129.198-1.75.235-.136.472-.272.893-.52 1.489l.298.05c.372-.795.88-1.39 1.798-1.39 1.104 0 1.253 1.067 1.03 2.208l-.038.025c-.285-.199-.595-.348-.955-.348-.533 0-.93.348-1.364.348-.161 0-.298-.075-.385-.075-.074 0-.124.124-.136.174-.037.173.496.397 1.03.397.558 0 .83-.273 1.302-.273.16 0 .31.05.446.111-.297 1.476-.992 2.208-2.034 2.208-.496 0-.781-.298-.856-.632-.111-.385-.235-.46-.446-.46-.223 0-.385.162-.434.36m9.657.062c-.087.472-.174.57-.62.596l-.335.024c-.037.013-.062.025-.075.062l-.05.273.013.025c.372-.012.893-.025 1.34-.025.459 0 .905.013 1.277.025l.025-.025.05-.26c.012-.05-.013-.062-.062-.075l-.236-.024c-.422-.038-.496-.1-.397-.596l.695-3.423c.099-.508.186-.533.62-.583l.248-.024c.05 0 .087-.025.099-.075l.05-.26-.013-.025c-.372.012-.83.025-1.29.025-.446 0-.955-.013-1.327-.025l-.025.025-.062.273c0 .05.013.062.05.062l.322.024c.385.038.484.112.397.583l-.273 1.327h-2.542l.273-1.327c.1-.508.186-.533.62-.583l.248-.024c.05 0 .087-.025.1-.075l.049-.26-.013-.025c-.372.012-.843.025-1.302.025-.446 0-.942-.013-1.314-.025l-.025.025-.062.273c0 .05.012.062.05.062l.322.024c.384.038.484.112.397.583l-.695 3.423c-.087.472-.173.57-.62.596l-.335.024c-.037.013-.062.025-.074.062l-.05.273.013.025c.372-.012.88-.025 1.327-.025.459 0 .917.013 1.29.025l.024-.025.05-.26c.012-.05-.013-.062-.062-.075l-.236-.024c-.421-.038-.496-.1-.397-.596l.335-1.674h2.543l-.335 1.674m7.499-3.41-.645 3.274c-.087.422-.161.608-.62.608h-1.489c-.434 0-.47-.15-.372-.608l.658-3.287c.099-.508.173-.533.607-.583l.26-.024c.05 0 .088-.025.1-.075l.05-.26-.025-.025s-.794.025-1.29.025c-.52 0-1.327-.025-1.327-.025l-.012.025-.062.273c0 .05.012.062.062.062l.322.024c.41.038.471.112.385.583l-.695 3.473c-.1.484-.174.496-.608.546l-.223.024c-.037.013-.062.025-.074.075l-.05.26.025.025s.781-.025 1.153-.025h3.014c.98 0 1.153.992 1.166 1.6l.31-.012.26-1.65c.025-.21-.099-.235-.31-.273-.21-.037-.397-.235-.322-.607l.682-3.423c.112-.509.198-.558.632-.596l.31-.024c.05 0 .087-.025.087-.062l.062-.273-.024-.025s-.819.025-1.34.025c-.496 0-1.265-.025-1.265-.025l-.012.025-.062.273c0 .05.012.062.05.062l.26.024c.409.05.471.112.372.596m4.176-.955c-.533 0-1.352-.025-1.352-.025l-.037.025-.062.273c0 .05.012.062.062.062l.372.024c.447.038.471.137.36.658l-.67 3.348c-.087.434-.149.57-.608.596l-.397.024c-.037.013-.062.025-.074.062l-.05.273.013.025c.496-.012.843-.025 1.376-.025.397 0 .509.013 1.005.025l.012-.025.05-.26c.012-.05-.012-.062-.062-.075-.41-.037-.422-.173-.36-.47v-.026l3.175-3.075-.583 2.927c-.086.434-.173.595-.632.62l-.397.024c-.037.013-.062.025-.074.062l-.05.273.025.025c.496-.012.83-.025 1.364-.025.558 0 .93.013 1.426.025l.013-.025.05-.26c.012-.05-.013-.062-.063-.075l-.36-.024c-.433-.025-.47-.162-.371-.62l.67-3.337c.099-.52.148-.607.62-.645l.372-.024c.05 0 .086-.025.099-.075l.05-.26-.013-.025s-.868.025-1.426.025c-.348 0-.906-.025-.906-.025l-.024.025-.062.273c0 .05.012.062.05.062.42.037.384.248.334.545L62.917 6.66l.595-2.952c.1-.508.15-.607.633-.645l.372-.024c.05 0 .087-.025.1-.075l.049-.26-.025-.025s-.868.025-1.414.025m4.69 5.32.025.025s.843-.025 1.278-.025c.483 0 1.203.025 1.203.025l.024-.025.05-.235c.012-.062-.037-.087-.087-.1-.26-.037-.62-.111-.533-.52l.347-1.737c.918.062 1.104.509 1.203 1.19.075.547.285 1.402.905 1.415l.893.012.038-.025.05-.223c.012-.087-.075-.112-.125-.112l-.087-.012c-.434-.062-.731-1.141-.83-1.612-.137-.608-.534-.88-1.204-.88l.013-.05c.484-.137.856-.559 1.14-1.055.212-.384.497-.657.621-.657a.41.41 0 0 1 .26.087.478.478 0 0 0 .323.111c.26 0 .52-.223.57-.47.05-.298-.024-.559-.533-.559-.595 0-1.129.67-1.476 1.253-.409.682-.843 1.153-1.674 1.153l.285-1.414c.087-.446.36-.508.72-.545.05 0 .111-.062.124-.124l.05-.211-.026-.025s-.694.025-1.178.025c-.434 0-1.277-.025-1.277-.025l-.025.025-.05.235c-.012.062.025.087.075.1l.235.024c.385.038.484.199.41.546l-.707 3.535c-.062.347-.174.471-.62.52l-.248.025c-.063.013-.1.038-.112.1l-.05.235m5.675-.57c-.074.384.186.72.732.72.595 0 .992-.31 1.401-.993.348-.595.67-1.86.831-2.704.199-.967.298-1.29.77-1.29h.557c.447 0 .46.174.372.596l-.657 3.324c-.074.36-.198.508-.645.558l-.248.024c-.062.013-.1.038-.112.1l-.05.235.026.025s.843-.025 1.29-.025c.483 0 1.327.025 1.327.025l.024-.025.05-.235c.012-.062-.037-.1-.087-.1l-.223-.024c-.397-.038-.496-.199-.422-.558l.695-3.46c.087-.472.136-.546.62-.584l.347-.024c.075 0 .112-.025.124-.087l.05-.248-.037-.025s-.844.025-1.377.025h-2.158c-.496 0-1.278-.025-1.278-.025l-.037.025-.037.198c-.025.112.025.124.223.137.695.05.695.223.434 1.525-.26 1.302-.496 1.984-.756 2.493-.248.446-.471.608-.67.608-.149 0-.186-.1-.174-.26.013-.224 0-.472-.334-.472-.298 0-.509.248-.57.52m7.08-1.971c-.248 1.265.323 2.666 2.071 2.666 1.848 0 2.94-1.538 3.188-2.778.26-1.29-.124-2.79-2.047-2.79-1.674 0-2.902 1.327-3.212 2.902m2.99-2.493c1.066 0 1.487.955 1.115 2.778-.322 1.637-1.14 1.972-1.723 1.972-1.29 0-1.452-1.587-1.253-2.542.21-1.08.818-2.208 1.86-2.208m4.427.682-.682 3.41c-.087.435-.186.559-.62.584l-.385.024c-.05.013-.074.025-.087.062l-.05.273.025.025s.844-.025 1.39-.025c.52 0 1.351.025 1.351.025l.013-.025.05-.26c.012-.05-.013-.062-.05-.075l-.323-.024c-.421-.025-.471-.112-.384-.583l.682-3.41c.087-.435.347-.485.608-.485h1.5c.248 0 .509.025.41.484l-.683 3.41c-.086.435-.186.559-.62.584l-.347.024c-.037.013-.062.025-.074.062l-.05.273.012.025s.831-.025 1.365-.025c.533 0 1.389.025 1.389.025l.012-.025.05-.26c.012-.05-.013-.062-.062-.075l-.36-.024c-.434-.025-.484-.112-.397-.583l.682-3.423c.112-.509.15-.558.633-.596l.372-.024c.05 0 .087-.025.1-.075l.049-.26-.013-.025s-.868.025-1.426.025h-3.435c-.534 0-1.365-.025-1.365-.025l-.024.025-.062.273c0 .05.012.062.05.062l.371.024c.422.038.496.087.385.608m7.05.856c.52-1.402 1.414-1.513 1.711-1.513.472 0 .98.26.77 1.302-.026.112-.088.174-.224.174l-2.257.037m2.79 2.344c-.558.471-.955.67-1.674.67-.446 0-.918-.26-1.178-.893-.161-.41-.199-.98-.05-1.7l3.287.025c.149 0 .248-.074.285-.21.199-1.042.05-2.159-1.674-2.159-1.08 0-2.68 1.03-3.064 2.915-.136.695-.099 1.364.224 1.836.322.496.843.793 1.736.793.943 0 1.7-.434 2.32-1.079-.013-.124-.075-.186-.212-.198m.5 2.74.322.013c.199-.459.744-1.6 1.786-1.6h2.01c1.029 0 1.165 1.092 1.165 1.588h.31l.26-1.662c.038-.174-.037-.21-.26-.26-.198-.038-.459-.15-.372-.608l.695-3.436c.074-.421.223-.52.682-.583l.21-.024c.038 0 .1-.038.112-.087l.05-.248-.013-.025s-.905.025-1.314.025h-2.357c-.21 0-1.178-.025-1.178-.025l-.037.025-.062.273c0 .05.025.062.074.062l.335.024c.422.038.447.286.422.434-.298 1.476-.757 2.605-1.19 3.66-.137.334-.51.495-.844.532-.174.025-.335.05-.397.273l-.41 1.65m2.022-2.22c.05-.211.521-1.067 1.265-3.895.013-.05.124-.322.41-.322h.88c.46 0 .46.186.372.608l-.62 3.15c-.087.41-.161.608-.62.608h-1.476c-.124 0-.235-.013-.21-.15m7.129-4.687c-.533 0-1.352-.025-1.352-.025l-.037.025-.062.273c0 .05.012.062.062.062l.372.024c.446.038.471.137.36.658l-.67 3.348c-.087.434-.149.57-.608.596l-.397.024c-.037.013-.062.025-.074.062l-.05.273.013.025c.496-.012.843-.025 1.376-.025.397 0 .509.013 1.005.025l.012-.025.05-.26c.012-.05-.012-.062-.062-.075-.41-.037-.422-.173-.36-.47v-.026l3.175-3.075-.583 2.927c-.086.434-.173.595-.632.62l-.397.024c-.037.013-.062.025-.074.062l-.05.273.025.025c.496-.012.83-.025 1.364-.025.558 0 .93.013 1.426.025l.013-.025.05-.26c.012-.05-.013-.062-.063-.075l-.36-.024c-.434-.025-.47-.162-.372-.62l.67-3.337c.1-.52.149-.607.62-.645l.372-.024c.05 0 .087-.025.1-.075l.05-.26-.013-.025s-.868.025-1.426.025c-.348 0-.906-.025-.906-.025l-.025.025-.062.273c0 .05.013.062.05.062.422.037.384.248.335.545L107.27 6.66l.595-2.952c.1-.508.149-.607.633-.645l.372-.024c.05 0 .087-.025.099-.075l.05-.26-.025-.025s-.868.025-1.414.025m4.467 5.32.037.025.781-.012c.397-.013.906-.509 1.253-1.117.459-.806.905-1.327 1.402-1.327h.31l-.298 1.476c-.087.484-.136.583-.546.608l-.198.012c-.05 0-.075.038-.087.087l-.05.273s.707-.025 1.154-.025c.434 0 1.128.025 1.128.025l.05-.248c0-.025-.012-.112-.112-.112l-.26-.012c-.198-.012-.21-.285-.149-.608l.732-3.634c.05-.26.161-.36.384-.372l.31-.024c.025 0 .05-.013.05-.038l.062-.297-.025-.025s-.657.025-1.079.025c-.397 0-.074-.025-1.017-.025-2.12 0-2.455 1.14-2.53 1.5-.174.881.645 1.315 1.327 1.315l-.012.037c-.36.062-.831.36-1.141.869-.285.458-.844 1.24-1.178 1.277l-.112.012c-.05 0-.124.013-.137.1l-.05.235m2.258-3.98c.124-.584.397-1.005 1.464-1.005.483 0 .57.05.483.446l-.335 1.687h-.83c-.707 0-.906-.509-.782-1.129"/></svg>