<?xml version="1.0" encoding="UTF-8"?>
<svg width="120px" height="13px" viewBox="0 0 120 13" version="1.1" xmlns="http://www.w3.org/2000/svg" xmlns:xlink="http://www.w3.org/1999/xlink">
    <title>om-tagline</title>
    <g id="Page-1" stroke="none" stroke-width="1" fill="none" fill-rule="evenodd">
        <path d="M79.1279649,0.722112853 C79.0443138,0.805766113 79.044316,1.08421165 79.1279649,1.16786491 C80.1038552,1.20968057 80.3280666,1.27940991 80.3280666,2.43654386 L80.3280666,8.02558893 C80.3280688,9.18270093 80.1038574,9.25244124 79.1279649,9.29426787 C79.0443138,9.37792113 79.044316,9.69066627 79.1279649,9.77430855 C79.8110874,9.76037366 80.1999665,9.74001993 80.9109731,9.74001993 C81.510449,9.74000896 81.727513,9.77430855 82.9682903,9.77430855 C85.7426127,9.77430855 86.4657296,8.36733401 86.4657296,7.16837343 C86.4657296,5.83000904 85.5527317,5.04811877 84.3398351,4.69959278 C85.0369058,4.35106679 85.6428027,3.61477765 85.6428027,2.8480073 C85.6428016,1.91393042 85.2527792,0.722112853 82.6596927,0.722112853 C82.1717498,0.722112853 81.5104512,0.722112853 80.9109731,0.722112853 C80.2139102,0.722112853 79.8250311,0.73605872 79.1279649,0.722112853 Z M82.008209,1.20215353 C82.1787721,1.18189856 82.4250467,1.20215353 82.72827,1.20215353 C83.5089862,1.20215353 84.5112782,1.59743275 84.5112782,3.0194504 C84.5112782,4.20445414 83.7139564,4.63101554 82.5568269,4.63101554 L81.4938797,4.63101554 L81.4938797,1.78506008 C81.4938797,1.44001232 81.4965185,1.26292943 82.008209,1.20215353 Z M81.4938797,5.11105622 L82.4882496,5.11105622 C84.3982146,5.11105622 85.162762,6.18797126 85.162762,7.44268239 C85.162762,8.46040155 84.7787744,9.29426787 82.6596927,9.29426787 C81.683798,9.29426787 81.4938797,8.82853515 81.4938797,8.36847513 L81.4938797,5.11105622 Z M110.364898,3.60235694 C109.22171,3.60235694 108.06756,4.39250939 108.06756,5.14534484 C108.06756,5.47993594 108.226945,5.65967414 108.547601,5.65967414 C108.951888,5.65967414 109.164796,5.36086391 109.164796,5.17963346 C109.164796,5.08204531 109.158388,4.99538562 109.130507,4.93961312 C109.116562,4.89777552 109.096219,4.81866482 109.096219,4.66530416 C109.096219,4.23311394 109.732264,4.08239762 110.262032,4.08239762 C110.736027,4.08239762 111.393556,4.32432715 111.393556,5.89969448 C111.393556,5.99727167 111.332517,6.02291407 111.29069,6.03684897 L110.090589,6.34544655 C108.752213,6.68003764 107.793251,7.42046336 107.793251,8.36847513 C107.793251,9.46983658 108.600367,9.87717441 109.576259,9.87717441 C110.21755,9.87717441 110.471538,9.76827376 111.084959,9.29426787 L111.359268,9.05424753 L111.393556,9.05424753 C111.477199,9.34702297 111.703668,9.87717441 112.456504,9.87717441 C113.139621,9.87717441 113.656605,9.32968665 113.656605,9.25997925 C113.656605,9.1623911 113.506646,9.01995891 113.450874,9.01995891 C113.367231,9.01995891 113.332175,9.22569063 113.03941,9.22569063 C112.495697,9.22569063 112.490792,8.70117898 112.490792,8.05987755 L112.490792,5.96827172 C112.490792,3.98859493 111.382606,3.60235694 110.364898,3.60235694 Z M111.393556,6.48260103 L111.393556,8.33418651 C111.393556,8.51541695 111.299348,8.62770807 111.187825,8.71136133 C110.825342,9.00411483 110.343776,9.29426787 109.953434,9.29426787 C109.25636,9.29426787 108.959064,8.73207714 108.959064,8.29989789 C108.959064,7.67254232 109.264666,7.07001721 110.296321,6.79119861 L111.393556,6.48260103 Z M116.742581,3.60235694 C115.599393,3.60235694 114.445244,4.39250939 114.445244,5.14534484 C114.445244,5.47993594 114.604628,5.65967414 114.925284,5.65967414 C115.329572,5.65967414 115.542479,5.36086391 115.542479,5.17963346 C115.542479,5.08204531 115.536072,4.99538562 115.508191,4.93961312 C115.494245,4.89777552 115.473902,4.81866482 115.473902,4.66530416 C115.473902,4.23311394 116.109948,4.08239762 116.639715,4.08239762 C117.11371,4.08239762 117.77124,4.32432715 117.77124,5.89969448 C117.77124,5.99727167 117.7102,6.02291407 117.668374,6.03684897 L116.468272,6.34544655 C115.129897,6.68003764 114.170935,7.42046336 114.170935,8.36847513 C114.170935,9.46983658 114.943762,9.87717441 115.919654,9.87717441 C116.560945,9.87717441 116.849221,9.76827376 117.462642,9.29426787 L117.736951,9.05424753 L117.77124,9.05424753 C117.854882,9.34702297 118.081351,9.87717441 118.834187,9.87717441 C119.517304,9.87717441 120,9.32968665 120,9.25997925 C120,9.1623911 119.884329,9.01995891 119.828557,9.01995891 C119.744915,9.01995891 119.709858,9.22569063 119.417093,9.22569063 C118.87338,9.22569063 118.834187,8.70117898 118.834187,8.05987755 L118.834187,5.96827172 C118.834187,3.98859493 117.760289,3.60235694 116.742581,3.60235694 Z M117.77124,6.48260103 L117.77124,8.33418651 C117.77124,8.51541695 117.677031,8.62770807 117.565508,8.71136133 C117.203025,9.00411483 116.72147,9.29426787 116.331118,9.29426787 C115.634055,9.29426787 115.336748,8.73207714 115.336748,8.29989789 C115.336748,7.67254232 115.64235,7.07001721 116.674004,6.79119861 L117.77124,6.48260103 Z M72.0645091,3.60235694 C70.9213232,3.60235694 69.7671716,4.39250939 69.7671716,5.14534484 C69.7671705,5.47993594 69.9265626,5.65967414 70.2472123,5.65967414 C70.6515129,5.65967414 70.8644074,5.36086391 70.8644074,5.17963346 C70.8644085,5.08204531 70.8580007,4.99538562 70.8301188,4.93961312 C70.8161784,4.89777552 70.7958302,4.81866482 70.7958302,4.66530416 C70.7958324,4.23311394 71.4318737,4.08239762 71.9616433,4.08239762 C72.4356502,4.08239762 73.0588791,4.32432715 73.0588791,5.89969448 C73.0588813,5.99727167 73.0321263,6.02291407 72.9903019,6.03684897 L71.7902002,6.34544655 C70.4518336,6.68003764 69.4928626,7.42046336 69.4928626,8.36847513 C69.4928626,9.46983658 70.2656886,9.87717441 71.2415822,9.87717441 C71.8828837,9.87717441 72.1711517,9.76827376 72.7845702,9.29426787 L73.0588791,9.05424753 C73.1425291,9.34702297 73.4032839,9.87717441 74.156115,9.87717441 C74.8392397,9.87717441 75.321928,9.32968665 75.321928,9.25997925 C75.321928,9.1623911 75.2062509,9.01995891 75.1504849,9.01995891 C75.0668328,9.01995891 74.9975017,9.22569063 74.7047329,9.22569063 C74.1610185,9.22569063 74.156115,8.70117898 74.156115,8.05987755 L74.156115,5.96827172 C74.1561171,3.98859493 73.0822261,3.60235694 72.0645091,3.60235694 Z M73.0588791,6.48260103 L73.0588791,8.33418651 C73.0588791,8.51541695 72.9989667,8.62770807 72.887436,8.71136133 C72.524962,9.00411483 72.0434038,9.29426787 71.6530457,9.29426787 C70.9559805,9.29426787 70.6586757,8.73207714 70.6586757,8.29989789 C70.6586757,7.67254232 70.9299848,7.07001721 71.9616433,6.79119861 L73.0588791,6.48260103 Z M63.9381062,0.00205183103 C63.5895747,0.14147759 62.5413085,0.337400022 61.9836548,0.379226652 C61.9557752,0.490760675 62.0028729,0.707036832 62.0865207,0.790690093 C62.8114677,0.832516723 62.9780248,0.751145713 62.9780248,1.92221456 L62.9780248,3.7052228 C62.978027,3.80282193 62.9384596,3.84237728 62.8408703,3.84237728 C62.7851033,3.84238825 62.2036989,3.60235694 61.7436345,3.60235694 C60.8235046,3.60234597 60.2096823,3.92979406 59.6520287,4.45957244 C59.0525528,5.05903627 58.6919473,5.86241041 58.6919473,6.89406447 C58.6919473,8.60884659 59.5521999,9.87717441 61.0578621,9.87717441 C61.6015732,9.87716344 62.1234569,9.57760708 62.8065817,9.01995891 C62.8623476,8.96419739 62.9780248,8.95665938 62.9780248,9.05424753 C62.9780215,9.38883863 63.1151793,9.87717441 63.1151793,9.87717441 C63.2267078,9.91899007 63.2779575,9.90505518 63.3894882,9.87717441 C63.6961986,9.6262256 64.2192092,9.42614465 65.0696306,9.32855649 C65.1532751,9.24490323 65.1532784,9.03502396 65.0696306,8.95138167 C64.1773826,8.88168525 64.0752606,8.60585113 64.0752606,7.92272307 L64.0752606,1.61361697 C64.0752574,0.707442809 64.1095493,0.139206311 64.1095493,0.139206311 C64.1095504,0.0416291279 64.0635784,0.00205183103 63.9381062,0.00205183103 Z M61.60648,4.08239762 C62.1083645,4.08239762 62.4591793,4.27608169 62.7380045,4.59672692 C62.9331797,4.819784 62.9780248,4.91889731 62.9780248,5.35107656 L62.9780248,7.99130031 C62.9780248,8.25618401 62.933183,8.37262268 62.7380045,8.53991823 C62.2221774,8.98604335 61.7835706,9.22569063 61.4350369,9.22569063 C60.6822058,9.22569063 59.892049,8.39671798 59.892049,6.65404413 C59.892049,5.65028181 60.0943925,5.09523408 60.3035124,4.80245864 C60.7356928,4.14721134 61.3276548,4.08239762 61.60648,4.08239762 Z M55.1259308,3.63664556 C53.9130353,3.63664556 52.3485526,4.80927248 52.3485526,6.92835309 C52.3485526,7.70905833 52.5399731,8.45589191 53.0000364,8.98567029 C53.4740433,9.54330749 54.1221542,9.87717441 55.1259308,9.87717441 C56.1854711,9.87717441 56.9684817,9.36773878 57.5261342,8.64278409 C57.4843076,8.50338028 57.3848322,8.45098727 57.2175366,8.43705237 C56.7017096,8.96680881 56.3117026,9.19140201 55.5031056,9.19140201 C55.001219,9.19139104 54.3922992,8.90804086 53.9601177,8.19703203 C53.6812936,7.73697201 53.5143657,7.08546629 53.5143657,6.27686931 L57.2175366,6.31115793 C57.3848333,6.31114695 57.4918456,6.22448727 57.4918456,6.07113759 C57.4918445,4.90006874 57.0637744,3.63664556 55.1259308,3.63664556 Z M55.1259308,4.08239762 C55.6557015,4.08239762 56.2917439,4.38572847 56.2917439,5.55680828 C56.2917439,5.6822772 56.2393673,5.76254 56.0860122,5.76254 L53.5486543,5.79682862 C53.8135391,4.22145032 54.7913386,4.08239762 55.1259308,4.08239762 Z M46.5537758,3.56806832 C46.1634166,3.721418 45.6298527,3.85405187 44.6679017,3.97953176 C44.6400176,4.06317405 44.6743084,4.27306429 44.7021903,4.35670658 C45.4550236,4.42641397 45.5936944,4.52213683 45.5936944,5.31678794 L45.5936944,11.2487192 C45.5936955,12.4058422 45.4497459,12.4755825 44.5993244,12.5173982 C44.5156756,12.6010404 44.5156767,12.9137856 44.5993244,12.9974388 C45.18486,12.983493 45.528895,12.9631502 46.1423123,12.9631502 C46.7975553,12.9631392 47.2572664,12.983493 47.8567434,12.9974388 C47.9403911,12.9137856 47.9403911,12.6010514 47.8567434,12.5173982 C46.8669093,12.4616257 46.6909303,12.4058422 46.6909303,11.2487192 L46.6909303,9.77430855 C46.6909303,9.59307811 46.7433079,9.61568117 46.896662,9.67144269 C47.231252,9.81085748 47.6506419,9.87717441 48.0967637,9.87717441 C48.877481,9.87716344 49.5824869,9.63224943 50.1540809,9.08853615 C50.8093216,8.44723472 51.1827395,7.57756559 51.1827395,6.44831241 C51.1827395,4.97053323 50.1359743,3.60235694 48.7139589,3.60235694 C48.1981318,3.60234597 47.4554458,3.95542549 46.8280847,4.59672692 C46.7723199,4.65248845 46.6566416,4.67397233 46.6566416,4.5624383 C46.6566427,4.06055165 46.7252189,3.67093418 46.7252189,3.67093418 C46.7252167,3.61516168 46.6653065,3.56806832 46.5537758,3.56806832 Z M48.336784,4.25384072 C49.2290277,4.25384072 49.9826378,5.25011989 49.9826378,6.82548723 C49.9826378,7.96867531 49.5896156,9.39713373 48.0281865,9.39713373 C47.7772431,9.39713373 47.2847609,9.31159323 47.0338165,9.08853615 C46.7410509,8.83758734 46.6909303,8.78143081 46.6909303,8.26560927 L46.6909303,5.65967414 C46.6909303,5.36690968 46.7497136,5.27195489 46.9309506,5.0767676 C47.3631332,4.63064248 47.9185452,4.25384072 48.336784,4.25384072 Z M40.9990193,3.60235694 C39.1169406,3.60235694 38.0159094,5.08922123 38.0159094,6.85977585 C38.0159094,8.2817935 38.9990042,9.87717441 40.9647307,9.87717441 C43.0419913,9.87717441 43.913552,8.1510359 43.913552,6.75690999 C43.913552,5.30701157 43.1599255,3.60235694 40.9990193,3.60235694 Z M40.8275762,4.08239762 C42.0265291,4.08239762 42.7134503,5.15328883 42.7134503,7.20266205 C42.7134503,9.04291309 41.859994,9.39713373 41.2047511,9.39713373 C39.7548548,9.39713373 39.2160111,7.62465895 39.2160111,6.55117827 C39.2160111,5.33828279 39.6565041,4.08239762 40.8275762,4.08239762 Z M66.4605175,1.38019102 C66.4605175,1.74267385 66.7951097,2.10514572 67.1297019,2.10514572 C67.5200589,2.10514572 67.8546511,1.74267385 67.8546511,1.43596352 C67.8546511,1.10137242 67.5618833,0.711008826 67.1854667,0.711008826 C66.8508756,0.711008826 66.4605175,1.04559992 66.4605175,1.38019102 M67.7291789,8.03021926 L67.7291789,5.25589135 C67.7291789,4.55881742 67.7849448,3.66657815 67.7849448,3.66657815 C67.7849448,3.61080566 67.7152374,3.56899 67.6037067,3.56899 C67.1994093,3.72233968 66.6556949,3.8478086 65.6937428,3.97328849 C65.6658609,4.05693078 65.6937428,4.27999882 65.7216257,4.36364111 C66.4744579,4.44729437 66.6278131,4.51700177 66.6278131,5.31165288 L66.6278131,8.03021926 C66.6278131,9.18734224 66.4744579,9.22916887 65.6240365,9.29887626 C65.5403887,9.38252952 65.5403887,9.67529399 65.6240365,9.75893628 C66.2095731,9.74500138 66.5720482,9.73105552 67.1854667,9.73105552 C67.7849448,9.73105552 68.1334785,9.74500138 68.7329555,9.75893628 C68.8166033,9.67529399 68.8166033,9.38252952 68.7329555,9.29887626 C67.8825352,9.24311474 67.7291789,9.18734224 67.7291789,8.03021926 M88.2983197,1.38019102 C88.2983197,1.74267385 88.632913,2.10514572 88.9675041,2.10514572 C89.3578611,2.10514572 89.6924533,1.74267385 89.6924533,1.43596352 C89.6924533,1.10137242 89.3996855,0.711008826 89.0232689,0.711008826 C88.6886778,0.711008826 88.2983197,1.04559992 88.2983197,1.38019102 M89.5669811,8.03021926 L89.5669811,5.25589135 C89.5669811,4.55881742 89.622747,3.66657815 89.622747,3.66657815 C89.622747,3.61080566 89.5530396,3.56899 89.4415089,3.56899 C89.0372115,3.72233968 88.4934971,3.8478086 87.5315461,3.97328849 C87.5036631,4.05693078 87.5315461,4.27999882 87.5594279,4.36364111 C88.3122601,4.44729437 88.4656152,4.51700177 88.4656152,5.31165288 L88.4656152,8.03021926 C88.4656152,9.18734224 88.3122601,9.22916887 87.4618387,9.29887626 C87.3781909,9.38252952 87.3781909,9.67529399 87.4618387,9.75893628 C88.0473753,9.74500138 88.4098515,9.73105552 89.0232689,9.73105552 C89.622747,9.73105552 89.9712807,9.74500138 90.5707577,9.75893628 C90.6544054,9.67529399 90.6544054,9.38252952 90.5707577,9.29887626 C89.7203374,9.24311474 89.5669811,9.18734224 89.5669811,8.03021926 M92.1528818,8.03021926 C92.1528818,9.18734224 91.9995266,9.25704963 91.1491052,9.29887626 C91.0654574,9.38252952 91.0654574,9.67529399 91.1491052,9.75893628 C91.7346418,9.74500138 92.0971181,9.73105552 92.7105354,9.73105552 C93.3100124,9.73105552 93.6585494,9.74500138 94.2580242,9.75893628 C94.3416775,9.67529399 94.3416775,9.38252952 94.2580242,9.29887626 C93.4076006,9.25704963 93.2542509,9.18734224 93.2542509,8.03021926 L93.2542509,1.60325907 C93.2542509,0.697073931 93.3100124,0.139414786 93.3100124,0.139414786 C93.3100124,0.0418266303 93.2542509,2.66453526e-15 93.128782,2.66453526e-15 C92.7802439,0.139414786 91.7346418,0.334591098 91.1769882,0.376417728 C91.1491052,0.487951752 91.1769882,0.711008826 91.2606359,0.794662087 C91.9855862,0.836488717 92.1528818,0.766781324 92.1528818,1.93785017 L92.1528818,8.03021926 M95.828827,8.03021926 C95.828827,9.18734224 95.6754664,9.25704963 94.8250428,9.29887626 C94.7414005,9.38252952 94.7414005,9.67529399 94.8250428,9.75893628 C95.4105827,9.74500138 95.7730545,9.73105552 96.3864752,9.73105552 C96.98595,9.73105552 97.334487,9.74500138 97.9339618,9.75893628 C98.017615,9.67529399 98.017615,9.38252952 97.9339618,9.29887626 C97.0835382,9.25704963 96.9301885,9.18734224 96.9301885,8.03021926 L96.9301885,1.60325907 C96.9301885,0.697073931 96.98595,0.139414786 96.98595,0.139414786 C96.98595,0.0418266303 96.9301885,2.66453526e-15 96.8047196,2.66453526e-15 C96.4561826,0.139414786 95.4105827,0.334591098 94.8529235,0.376417728 C94.8250428,0.487951752 94.8529235,0.711008826 94.9365768,0.794662087 C95.6615205,0.836488717 95.828827,0.766781324 95.828827,1.93785017 L95.828827,8.03021926 M99.4350572,1.38019102 C99.4350572,1.74267385 99.7696483,2.10514572 100.104239,2.10514572 C100.494592,2.10514572 100.829183,1.74267385 100.829183,1.43596352 C100.829183,1.10137242 100.536419,0.711008826 100.160001,0.711008826 C99.8254098,0.711008826 99.4350572,1.04559992 99.4350572,1.38019102 M100.703714,8.03021926 L100.703714,5.25589135 C100.703714,4.55881742 100.759487,3.66657815 100.759487,3.66657815 C100.759487,3.61080566 100.689779,3.56899 100.578245,3.56899 C100.173947,3.72233968 99.6302335,3.8478086 98.6682759,3.97328849 C98.6403951,4.05693078 98.6682759,4.27999882 98.6961676,4.36364111 C99.4489921,4.44729437 99.6023528,4.51700177 99.6023528,5.31165288 L99.6023528,8.03021926 C99.6023528,9.18734224 99.4489921,9.22916887 98.5985685,9.29887626 C98.5149262,9.38252952 98.5149262,9.67529399 98.5985685,9.75893628 C99.1841084,9.74500138 99.5465912,9.73105552 100.160001,9.73105552 C100.759487,9.73105552 101.108013,9.74500138 101.707488,9.75893628 C101.791141,9.67529399 101.791141,9.38252952 101.707488,9.29887626 C100.857075,9.24311474 100.703714,9.18734224 100.703714,8.03021926 M102.634377,7.80715122 C102.690139,8.49027928 102.731966,9.14552658 102.731966,9.73105552 C102.87138,9.70317475 103.010795,9.68923986 103.080503,9.68923986 C103.178091,9.68923986 103.261744,9.68923986 103.359332,9.71712062 C103.735739,9.81470878 104.112157,9.8704703 104.627989,9.8704703 C105.408694,9.8704703 106.844658,9.49405257 106.844658,8.11386155 C106.844658,7.16584979 106.147584,6.62213651 105.213529,6.25966465 C104.377051,5.93901942 103.819392,5.72989724 103.819392,4.96311591 C103.819392,4.39152187 104.321279,4.07087664 104.795285,4.07087664 C105.101984,4.07087664 105.910592,4.18241067 106.091833,5.36741441 C106.175476,5.45106767 106.454305,5.4371218 106.537959,5.35347951 C106.537959,4.85159286 106.607666,4.33576035 106.621601,3.87570033 C106.189422,3.80599294 105.520228,3.61080566 104.795285,3.61080566 C103.763631,3.61080566 102.829554,4.27999882 102.829554,5.17223809 C102.829554,6.18995725 103.289625,6.62213651 104.363105,7.06826163 C105.506283,7.55621338 105.785123,7.83503198 105.785123,8.43451776 C105.785123,9.11763485 105.11593,9.41041029 104.600108,9.41041029 C104.056395,9.41041029 103.749685,9.22916887 103.61027,9.07581919 C103.275679,8.75516299 103.15021,8.14174232 103.066557,7.79321632 C102.982914,7.70956306 102.718031,7.72350893 102.634377,7.80715122 M3.72930822,4.69823221 L2.46064684,4.69823221 L2.46064684,1.9099694 C2.46064684,1.57537831 2.62794348,1.29654873 2.96253458,1.29654873 L4.42637557,1.29654873 C5.47197549,1.29654873 5.69503806,1.85419691 6.00174729,2.81615454 C6.16904284,2.8440353 6.32239801,2.81615454 6.4618117,2.74644715 C6.39210431,2.17485311 6.18298432,0.836477745 6.15510136,0.724954694 C6.15510136,0.697073931 6.14115988,0.683128063 6.09933655,0.683128063 C5.8623336,0.724954694 5.75080287,0.738889589 5.41621068,0.738889589 L1.86116874,0.738889589 C1.86116874,0.738889589 0.759802904,0.724954694 0.0627366538,0.711008826 C-0.0209122179,0.794662087 -0.0209122179,1.08742655 0.0627366538,1.17107981 C1.03862918,1.21289547 1.27563322,1.28260287 1.27563322,2.43973681 L1.27563322,8.03021926 C1.27563322,9.18734224 1.03862918,9.25704963 0.0627366538,9.29887626 C-0.0209122179,9.38252952 -0.0209122179,9.67529399 0.0627366538,9.75893628 C0.745861425,9.74500138 1.87511022,9.73105552 1.87511022,9.73105552 L4.8724985,9.73105552 C5.54168179,9.73105552 6.6569902,9.75893628 6.6569902,9.75893628 C6.85216871,9.06187332 7.0612887,8.14174232 7.17281943,7.43073349 C7.01946536,7.3610261 6.86611019,7.31921044 6.68487316,7.3610261 C6.40604578,8.36481036 5.91809842,9.18734224 4.85855702,9.18734224 L2.96253458,9.18734224 C2.65582534,9.18734224 2.46064684,8.96428517 2.46064684,8.58786744 L2.46064684,5.22801059 L3.72930822,5.22801059 C4.91432074,5.22801059 4.95614627,5.54865582 4.99797071,6.17601139 C5.08161848,6.25966465 5.37438734,6.25966465 5.45803511,6.17601139 C5.44409363,5.68807061 5.43015216,5.4231869 5.43015216,4.94918102 C5.43015216,4.47517514 5.44409363,4.1684648 5.45803511,3.75022044 C5.37438734,3.66657815 5.08161848,3.66657815 4.99797071,3.75022044 C4.95614627,4.51700177 4.91432074,4.69823221 3.72930822,4.69823221 M10.1399284,4.74005884 C10.098105,4.79582037 10.0005147,4.93523515 10.0005147,4.74005884 C10.0005147,4.32181448 10.0702221,3.68051305 10.0702221,3.68051305 C10.0702221,3.61080566 10.0144562,3.56899 9.90292544,3.56899 C9.51256953,3.72233968 8.9409722,3.8478086 7.97902114,3.97328849 C7.95113819,4.05693078 7.97902114,4.27999882 8.0069041,4.36364111 C8.75973517,4.4333485 8.91309034,4.5030559 8.91309034,5.31165288 L8.91309034,8.03021926 C8.91309034,9.17340734 8.77367665,9.22916887 7.93719671,9.29887626 C7.85354893,9.38252952 7.85354893,9.67529399 7.93719671,9.75893628 C8.50879184,9.74500138 8.87126809,9.73105552 9.47074399,9.73105552 C10.0144562,9.73105552 10.2654017,9.74500138 10.8509372,9.75893628 C10.934585,9.67529399 10.934585,9.38252952 10.8509372,9.29887626 C10.1399295,9.22916887 10.0144562,9.17340734 10.0144562,8.03021926 L10.0144562,5.74383213 C10.0144562,5.45106767 10.1399284,5.28377212 10.2514591,5.1583032 C10.7812298,4.64247068 11.3249431,4.33576035 11.8686553,4.33576035 C12.1474816,4.33576035 12.4402493,4.51700177 12.607546,4.837647 C12.7469596,5.11647657 12.7748415,5.4928943 12.7748415,5.91112768 L12.7748415,8.03021926 C12.7748415,9.17340734 12.6354289,9.22916887 11.9104786,9.29887626 C11.8407723,9.38252952 11.8407723,9.67529399 11.9104786,9.75893628 C12.4960152,9.74500138 12.7748426,9.73105552 13.3324952,9.73105552 C13.9040903,9.73105552 14.2108006,9.74500138 14.8102776,9.75893628 C14.8799839,9.67529399 14.8799839,9.38252952 14.8102776,9.29887626 C14.0295636,9.22916887 13.8762073,9.17340734 13.8762073,8.03021926 L13.8762073,5.95295431 C13.8762073,5.18618396 13.8204425,4.51700177 13.4997918,4.08481154 C13.26279,3.7781012 12.8306074,3.61080566 12.3426601,3.61080566 C11.6595353,3.61080566 10.9903498,3.79204707 10.1399284,4.74005884 M20.5841707,8.46239852 C20.5284059,8.3369296 20.4168752,8.2811571 20.291403,8.26722221 C19.8173982,8.8806319 19.217919,9.18734224 18.618442,9.18734224 C17.600725,9.18734224 16.7503025,8.15568818 16.7503025,6.52454835 C16.7503025,4.99100765 17.419488,4.07087664 18.3396146,4.07087664 C19.1621531,4.07087664 19.2736849,4.55881742 19.3294497,5.04676917 C19.3712742,5.4231869 19.5664538,5.54865582 19.8592215,5.54865582 C20.1519893,5.54865582 20.5423463,5.36741441 20.5423463,4.93523515 C20.5423463,4.1684648 19.7476897,3.61080566 18.409322,3.61080566 C17.029131,3.61080566 15.5513474,4.85159286 15.5513474,6.83125869 C15.5513474,8.62969407 16.5551251,9.8704703 18.3117328,9.8704703 C19.1482116,9.8704703 19.8871045,9.6055866 20.5841707,8.46239852 M23.8440486,11.9616702 C24.0531685,11.5852524 24.2344056,11.1809539 24.4156437,10.7627205 C25.5309499,8.08598079 26.1443706,6.63608238 26.8832602,5.07464994 C27.0784387,4.67035145 27.4966808,4.22422633 28.012509,4.1823997 C28.0961567,4.09875741 28.0961567,3.80599294 28.012509,3.72233968 C27.6639764,3.73628555 27.4130309,3.75022044 27.0226739,3.75022044 C26.5347276,3.75022044 26.2698417,3.73628555 25.7540114,3.72233968 C25.6703636,3.80599294 25.6703636,4.09875741 25.7540114,4.1823997 C26.1861928,4.22422633 26.6323157,4.30787959 26.4231958,4.80976623 L25.0290622,8.00232753 C24.9314729,8.23933047 24.8199422,8.26722221 24.69447,7.98839263 L23.4676319,5.08859581 C23.2166886,4.5030559 23.0633345,4.25210709 23.9137548,4.1823997 C23.9974026,4.09875741 23.9974026,3.80599294 23.9137548,3.72233968 C23.3979267,3.73628555 22.840272,3.75022044 22.3383831,3.75022044 C21.8643783,3.75022044 21.4879617,3.73628555 21.2091354,3.72233968 C21.1254866,3.80599294 21.1254866,4.09875741 21.2091354,4.1823997 C21.8225539,4.23817219 21.9340857,4.34970622 22.3105013,5.22801059 L23.8858719,8.89457777 C24.0113441,9.18734224 24.2204641,9.81470878 24.0810515,10.2050614 C23.9276963,10.6790673 23.7464593,11.055485 23.5373382,11.4876643 C23.3839841,11.7664938 23.1888056,11.8919628 22.840272,11.8919628 C22.6450935,11.8919628 22.5893275,11.8501471 22.4359724,11.8501471 C22.031675,11.8501471 21.8225539,12.2683805 21.8225539,12.4496219 C21.8225539,12.7423864 22.1013813,12.9654544 22.4777968,12.9654544 C22.7705646,12.9654544 23.3282193,12.8539204 23.8301071,11.9616702 L23.8440486,11.9616702 M35.1077494,8.03021926 C35.1077494,9.18734224 34.9543943,9.25704963 34.1039739,9.29887626 C34.0203251,9.38252952 34.0203251,9.67529399 34.1039739,9.75893628 C34.6895095,9.74500138 35.0519857,9.73105552 35.6654031,9.73105552 C36.2648812,9.73105552 36.613416,9.74500138 37.2128919,9.75893628 C37.2965407,9.67529399 37.2965407,9.38252952 37.2128919,9.29887626 C36.3624715,9.25704963 36.2091164,9.18734224 36.2091164,8.03021926 L36.2091164,1.60325907 C36.2091164,0.697073931 36.2648812,0.139414786 36.2648812,0.139414786 C36.2648812,0.0418266303 36.2091164,2.66453526e-15 36.0836442,2.66453526e-15 C35.7351116,0.139414786 34.6895095,0.334591098 34.1318558,0.376417728 C34.1039739,0.487951752 34.1318558,0.711008826 34.2155047,0.794662087 C34.9404539,0.836488717 35.1077494,0.766781324 35.1077494,1.93785017 L35.1077494,8.03021926 M33.4551169,8.46251921 C33.3993521,8.3370503 33.2878214,8.2812778 33.1623492,8.2673429 C32.6883444,8.8807526 32.0888652,9.18746294 31.4893882,9.18746294 C30.4716712,9.18746294 29.6212487,8.15580888 29.6212487,6.52466905 C29.6212487,4.99112835 30.2904342,4.07099734 31.2105608,4.07099734 C32.0330993,4.07099734 32.1446311,4.55893812 32.2003959,5.04688987 C32.2422204,5.4233076 32.4374,5.54877652 32.7301677,5.54877652 C33.0229355,5.54877652 33.4132925,5.3675351 33.4132925,4.93535585 C33.4132925,4.1685855 32.6186359,3.61092635 31.2802682,3.61092635 C29.9000772,3.61092635 28.4222936,4.85171356 28.4222936,6.83137938 C28.4222936,8.62981476 29.4260713,9.870591 31.182679,9.870591 C32.0191578,9.870591 32.7580507,9.60570729 33.4551169,8.46251921" id="om-tagline" fill="#000000" fill-rule="nonzero"></path>
    </g>
</svg>