<svg xmlns="http://www.w3.org/2000/svg" width="146" height="44" fill="none"><path fill="#fff" d="M0 0h146v44H0z"/><path fill="#555" d="M48.75 2.208c-.035.142-.249.462-.498.64.142.355.214.213.142.497-.07.285-.213.32-.497.676.035.142-.071.355-.143.533-.035.07-.213.142-.32.284-.106.071-.142.355-.248.498-.25.355-.534.781-.818 1.172 0 .036.035.178.035.249-.142.284-.675.96-.818 1.173-.142.284-.355.71-.533 1.03-.036.071-.213.178-.285.285-.284.426-.71 1.208-1.067 1.919-.177.355-.355.853-.497 1.243 0 0-.036 0-.071.072-.036.248-.32.817-.64 1.03l.07.071c0 .071-.07.32-.142.427l.036.07c-.036.143-.071.356-.142.534-.071 0-.143.142-.214.213-.142.213-.178.604-.249.888-.07.32-.355.747-.498 1.067l-.32.07.25-.923c0-.143.888-2.24 1.244-3.34 0-.32.249-.854.427-1.351.07-.213.178-.569.249-.853 0-.071-.071-.071-.107-.142.249-.071.213-.391.356-.64.106-.142.32-.284.39-.533.285-.391.32-1.102.534-1.6.071-.212.605-1.03.782-1.42.32-.676.818-1.422 1.174-2.168.071-.178.142-.57.32-.889-.071-.533.285-1.315 1.067-1.883.107-.036.32.035.462.035.036 0 .142-.142.285-.142.142 0 .284.355.284.533 0 .213.036.498 0 .675Zm-7.468 15.068c-.07.036-.177.213-.284.284-.071.107 0 .285.035.462 0 .107-.142.356-.213.498-.106.284-.249.71-.391 1.102 0 0-.036.07-.107.142a3.169 3.169 0 0 0-.106.782c0 .177-.143.497-.285.746-.107.248-.284.64-.32.853-.071.32-.071.71-.213 1.101-.143.285-.32.604-.427.96-.071.355 0 .746-.178 1.066-.07.142-.249.107-.284.284-.036.142.07.213.035.356-.07.248-.035.568-.07.746-.036.142-.25.533-.428.924 0 .32.143.568-.284.995-.036.249-.036.568-.178.853-.107.213-.178.533-.249.782-.07 0-.213-.143-.178-.285.143-.497.214-1.101.356-1.634.071-.178.32-.427.32-.64 0-.107-.035-.817.036-1.102.035-.142.284-.604.426-.782.072-.39.178-.817.178-1.172.036-.036.142-.178.178-.25.32-.959.569-2.202.924-3.197a6.86 6.86 0 0 0 .32-1.102.78.78 0 0 1 .107-.178c.214-.71.427-1.563.605-2.203.035-.142.178-.284.213-.391l.356-.178.106.178ZM35.38 41.121c-.035.143-.142.818-.284 1.102-.071.142-.427.427-.676.569-.142.07-.355.07-.498.106-.248.107-.604.356-.924.427.035-.107-.071-.213-.214-.391 0 0 .036-.213 0-.32-.07-.178-.284-.462-.32-.64 0-.213.072-.604.072-.852-.036-.285-.285-.711-.356-.996a4.764 4.764 0 0 0-.249-.96c-.036-.07.071-.248.071-.39-.853-.32-.533-.888-.533-1.706-.036-1.563.426-4.797.462-4.975.071-.249.071-.355.391-.497 0-.178-.178-.462-.178-.747 0-.426 0-1.492.285-2.132.107.142.178.249.107.426.07.25.177.498.248.747.072 0 .036.106.072-.071.07-.214-.143-2.062-.285-2.062l-.178.072c.036-.143.214-.356.25-.534.035-.142-.179-.675-.25-.959-.07.178-.178.533-.32.888-.213.534-.747 2.488-1.244 3.377-.143.284-.498 1.812-.712 2.31-.355.817-.782 2.167-1.28 3.056-.32.604-1.031.177-1.493.64-.143.532-.32 1.172-.356 1.634-.035.249.142.604.213.96.036.284-.07.888-.142 1.066-.107.497-.107.675-.675 1.208.07.07.106.07.177.07-.07.179-.213.392-.355.605.284 1.102-.96 1.848-1.6 1.848-.143 0-.463-.142-.605-.249.036-.96.498-2.203.64-3.234 0-.142-.107-.284-.107-.462.036-.568.356-2.38.463-3.447.035-.355.035-.995.035-1.421 0-.213-.106-.462-.07-.782 0-.355.141-.853.141-1.208-.035-.675-.213-1.884-.248-2.879-.036-.39.106-.995.07-1.421-.07-.675-.177-1.35-.213-1.99 0-.178.107-.391.107-.605 0-.213 0-.568.035-.888 0-.071-.035-.213-.07-.213 0-1.848.142-4.194.106-6.22-.035-1.03-.142-2.345-.142-3.73 0-.605.107-1.67.142-2.204.036-.924-.035-1.777.285-3.092.035-.142.284-.888.462-1.279.07-.178.355-.355.462-.497.534-.747 1.245-1.28 1.742-1.28.427 0 .96.71.96.818-.035.284.107.568.036.923-.284 1.102-.569 1.777-.64 3.057 0 .035-.142.177-.178.32a68.574 68.574 0 0 0-.07 2.7c0 .071-.036.214-.179.356.072.355.036.781.072 1.172a.53.53 0 0 0-.107.25c-.107.888-.036 2.31-.25 3.624 0 .142.108.32.108.462-.072.888-.143 2.061-.107 2.985.035.32-.142 1.03-.142 1.422.035.924.106 1.812.106 2.7 0 .25-.142.711-.106 1.067.035.568.106 1.243.07 1.812-.035.817.072 1.564-.035 2.38.071 0 .107.072.142.143a3.669 3.669 0 0 0 1.067-1.03c.107-.143.107-.463.356-.711.604-.604.64-1.173 1.031-1.955.285-.604.462-1.563.711-2.203.107-.213.463-.533.605-.782.107-.178.142-.497.213-.746.036-.142.214-.285.25-.427.106-.213.213-.746.177-1.066 0-.07.036-.213.071-.284.214-.391.462-.817.676-1.28.106-.32.178-.746.284-1.101.071-.036.142-.142.178-.213.142-1.35.996-2.488 1.636-3.59.107-.142.462-.39.604-.568.32-.427.676-.782 1.138-1.173.143.036.463 0 .64-.07.178.106.107.319.072.461-.072.391.213 1.066.177 1.208-.035.143-.39.605-.462.889-.285 1.101-.782 2.274-1.067 3.163-.035.07-.142.142-.178.284-.035.142-.213 1.67-.39 2.452-.107.569-.356 1.492-.427 2.061-.143.995-.356 2.274-.534 3.376-.071.32-.178.746-.32 1.066-.035.391.036.853 0 1.209-.071.71-.249 1.314-.213 1.918 0 .391-.214 1.102-.285 1.67v1.031c.036.427.178.924.25 1.35 0 .107-.072.285-.072.392.036.177.213.462.178.71-.107.747 0 .853.106 1.28.32-.107.285-.356.392-.675.035-.178.249-1.99.284-2.133.178-.782.391-.675.534-1.208l-.072-.071c0-.071.072-.213.107-.284-.035-.036-.142-.25-.107-.391.036-.178.676-.995.747-1.173.036-.142-.213-.746-.178-.924.072-.142.498-1.102.64-1.777.178.036.463 0 .676-.106.071.07.178.142.142.32-.035.142-.213.284-.248.426-.072.213-.036.497-.143.782-.035.106-.178.248-.249.39-.035.107 0 .25-.035.391h-.071c-.036.178.07.178.035.25 0 0-.035 0-.106.07v.071l-.036.036c.071.142.178.32.249.39-.036.25-.213.463-.178.712-.284.781-.605 1.776-.711 2.594-.036.142.142.249.106.39-.07.392-.213.782-.248 1.173-.036.143.106.25.106.391.036.142-.106.462-.249.711 0 .142.036.213 0 .355Zm-2.738-10.376.071-.32c-.106-.071-.178-.249-.284-.249l-.071.284a.555.555 0 0 0 .284.285ZM51.06 17.276c-.497.462-1.03.817-1.635.924-.533.071-.96-.675-.782-1.066.32-.675 1.173-1.28 1.955-1.28l.107.392c.214.284.854.604.356 1.03ZM49.675 27.44c.32-.071-.107.817-.391 1.066-.854.746-2.027 1.741-3.023 1.208-.889-.462.391-3.767-3.058-.746-1.102.96 1.28-2.097 1.956-3.27.142-.248.426-.39.533-.746.249-.71.462-.995.782-1.67.356-.747 1.316-1.35 2.134-1.528l.178.32c-.32 1.35-1.031 2.665-1.031 4.086v1.457c-.036.533.177.853.533.818.605-.036.747-.782 1.387-.995Z"/><path fill="#555" d="M61.623 18.626c.035.782-1.28.889-1.885 1.315-1.636 1.137-3.592 2.026-4.8 3.199-1.032.96-.107 2.594.533 3.625.853 1.314 2.489 1.705 4.09 1.385.07-.035.142-.106.248-.106.107 0 .036.462-.142.568-.925.534-2.027.711-3.094.818-1.742.177-2.56-1.28-3.734-2.204-.355-.284-.284.391-.32.747-.07.924-.426 1.492-.71 2.523-.214.746-1.779 1.599-1.992.888-.427-1.279 1.066-2.558.64-3.767-.214-.568-.96 1.386-1.316.889-.747-.96 1.102-1.564 1.636-2.488.853-1.492 1.351-2.95 2.027-4.406.32-.64.675-1.244.889-1.92.533-1.599.995-3.162 1.813-4.69.32-.604 1.28-.995 1.956-.818l.071.071c-.889 2.026-1.671 4.123-2.525 6.148-.284.64-1.209 1.92-.533 2.026.96.178 2.454-1.173 3.556-1.955.676-.497 1.21-.817 1.885-1.279.462-.32 1.707-1.102 1.707-.569Z"/><path fill="#555" d="M66.862 17.276c-.498.462-1.032.817-1.636.924-.534.071-.96-.675-.783-1.066.32-.675 1.174-1.28 1.956-1.28l.107.392c.213.284.853.604.356 1.03ZM65.475 27.44c.32-.071-.107.817-.391 1.066-.854.746-2.027 1.741-3.023 1.208-.89-.462.391-3.767-3.058-.746-1.103.96 1.28-2.097 1.956-3.27.142-.248.426-.39.533-.746.249-.71.462-.995.782-1.67.356-.747 1.316-1.35 2.134-1.528l.178.32c-.32 1.35-1.032 2.665-1.032 4.086v1.457c-.035.533.178.853.534.818.604-.036.747-.782 1.387-.995Z"/><path fill="#555" d="M80.205 14.504c-.889 1.066-.711 2.417-2.205 3.412-.498.32-.675.96-.782 1.528l-.356.32c-.355.71-.782 1.421-1.102 2.132-.249.533-.64.995-.96 1.528-.747 1.28-1.565 2.736-2.667 3.731-.391.356-.854.569-1.352.711-.213.036-.462.071-.64 0-.533-.249-.64-.853-.675-1.35-.036-.924.249-1.6.427-2.488.07-.213.106-.497-.178-.533-.391-.036-.605.39-.783.71-.284.57-.853 1.067-1.28 1.493-1.067 1.173-2.098 3.98-3.414 3.199-1.35-.782 1.387-1.493 2.24-2.559 1.139-1.422 1.957-2.772 2.988-4.122.996-1.315 1.316-2.879 2.311-4.123.463-.568 1.138-1.137 1.814-1.208.32-.035.142.533.07.782-.141.462-.284.924-.532 1.386-.64 1.137-.747 2.452-1.174 3.66-.249.711-.356 1.6-.32 2.275.036.355-.178.888.142.888 1.138 0 1.387-1.35 1.92-2.168.463-.746.996-1.492 1.423-2.274a54.367 54.367 0 0 1 1.885-3.056c.569-.818 1.315-1.6 1.813-2.524.285-.568 1.85-1.883 1.387-1.35ZM83.565 17.276c-.498.462-1.031.817-1.635.924-.534.071-.96-.675-.783-1.066.32-.675 1.174-1.28 1.956-1.28l.107.392c.213.284.853.604.355 1.03ZM82.178 27.44c.32-.071-.106.817-.39 1.066-.854.746-2.028 1.741-3.023 1.208-.89-.462.39-3.767-3.059-.746-1.102.96 1.28-2.097 1.956-3.27.142-.248.427-.39.534-.746.249-.71.462-.995.782-1.67.356-.747 1.316-1.35 2.134-1.528l.177.32c-.32 1.35-1.03 2.665-1.03 4.086v1.457c-.036.533.177.853.533.818.604-.036.746-.782 1.386-.995Z"/><path fill="#555" d="M99.824 10.773c.249.07-.498.64-.747.782-1.671 1.243-4.125.284-5.903 1.208-.747.39-.64 1.457-.89 2.239-.284.852-.64 1.705-.924 2.594-.427 1.457-.782 2.843-1.316 4.229-.746 2.061-1.422 4.335-1.778 6.36-.035.32-.035.818.427.712 1.21-.285 2.098-1.6 2.88-2.63.57-.71 1.032-3.056 1.6-2.31 1.139 1.493-1.422 2.665-2.31 3.98-.605.889-1.53 1.706-2.49 2.132-.427.178-.924.747-1.387.498-.96-.498-.32-1.884-.106-2.879.32-1.457.782-2.878 1.244-4.264.25-.782.783-1.777.178-2.239-.462-.32-.605.853-.925 1.208-.355.391-.426.96-.782 1.35-.96 1.031-1.885 2.169-3.022 3.022-.925.675-.783.675-2.383 1.67h-.178c.462-1.244 2.49-1.635 4.659-4.94 1.209-1.848 1.991-3.767 3.058-5.721.427-.747.64-1.529.96-2.31.213-.462.462-.818.604-1.28.143-.355.178-.71.427-1.03.178-.178 0-.498-.178-.498-1.244.107-2.631.213-3.734-.213-.142-.071-.248-.284-.106-.498.462-.497.818-1.492 1.529-1.492.996 0 1.991.96 3.023.64 1.102-.356.604-1.955 1.813-2.701.463-.285 1.423-.889 1.387-.249-.071.817-.853 1.493-.711 2.31.07.533.996.355 1.529.39.498 0 .853-.035 1.422 0 .96.072 2.205-.355 3.13-.07Z"/><path fill="#555" d="M97.773 29.323c-.355.178-.604.284-.782.142-1.422-1.172-.498-3.411-.462-5.117 0-.178-.036-.213-.036-.32.036-.32.25-.782-.035-.924-.64-.249-.747.604-1.103.995-1.316 1.564-1.742 3.554-2.702 5.295-.214.391-.64.747-1.138.747-.391.035.462-.818.39-1.28-.106-.497.25-.782.25-1.244 0-1.03.391-1.741.604-2.736.32-1.706.356-3.66 2.418-4.655.25-.107.427-.462.676-.391.462.106-.142.533-.213.853-.178.604-.57.924-.463 1.528.143.746.996-.356 1.565-.604.605-.285 1.21-1.138 1.85-.853.39.177.213.675.177 1.066-.107 1.563-.533 3.02-.889 4.584-.178.746-.213 1.955.462 1.92 1.28-.072 1.921-1.458 2.667-2.382.534-.64.534-.39.854-1.173.178-.39 1.209-1.67 1.138-1.243-.391 2.096-3.236 4.69-5.228 5.792Z"/><path fill="#555" d="M99.29 28.364c.142-1.102 1.743-2.417 2.063-2.986.284-.462.391-.852.604-1.314.107-.285-.071-.711.178-.924.391-.32.782-.675 1.138-1.03.285-.32.498-.463.747-.392l.142.924c-.071.746-.32 1.386-.356 2.239-.035.213.107.39.107.604.036.249 0 .498 0 .71 0 .498.107 1.28.925 1.316.498 0 .675-.462.818-.746.106-.214.177-.498.32-.676.533-.64.711-1.421.96-2.167.249-.676.604-1.102 1.316-1.529.462-.284.64-.71.96-.71.035 0 .035.035.035.07.036.072.036.143.036.178 0 .072.035.107.035.178-.213 1.35-.533 3.056-.355 4.442.106.675.035 1.315.64 1.564.533.213.96-.284 1.28-.746.071-.107.142-.25.213-.356.178-.248.285-.71.498-.96.285-.035.249.072.071.356-.391.782-.924 1.457-1.493 2.132-.569.675-1.103.96-1.814.995-.178.036-.178.142-.249.107-.142-.036-.32-.107-.462-.142-.32-.142-.391-.604-.498-.889-.142-.39-.355-1.066-.96-.96-.676.143-1.031.854-1.494 1.21-.462.355-.924.568-1.422.532-.711-.035-.925-.71-1.209-1.457-.071-.213-.071-.462-.071-.675 0-.284 0-.96-.605-.888-.853.142-1.138.96-1.707 1.599-.142.142-.426.568-.39.39Z"/><path fill="#555" d="M116.769 29.323c-.356.178-.604.284-.782.142-1.423-1.172-.498-3.411-.463-5.117 0-.178-.035-.213-.035-.32.035-.32.249-.782-.036-.924-.64-.249-.746.604-1.102.995-1.316 1.564-1.742 3.554-2.703 5.295-.213.391-.64.747-1.138.747-.391.035.463-.818.392-1.28-.107-.497.249-.782.249-1.244 0-1.03.391-1.741.604-2.736.32-1.706.356-3.66 2.418-4.655.249-.107.427-.462.676-.391.462.106-.142.533-.214.853-.177.604-.569.924-.462 1.528.142.746.996-.356 1.565-.604.604-.285 1.209-1.138 1.849-.853.391.177.213.675.178 1.066-.107 1.563-.534 3.02-.889 4.584-.178.746-.214 1.955.462 1.92 1.28-.072 1.92-1.458 2.667-2.382.534-.64.534-.39.854-1.173.177-.39 1.209-1.67 1.137-1.243-.391 2.096-3.236 4.69-5.227 5.792Z"/></svg>