<svg xmlns="http://www.w3.org/2000/svg" viewBox="0 0 143 15"><path d="M7.277.84q.023.11.157 1 .141.878.195 1.336l-.461.078a8 8 0 0 0-.219-.613 3 3 0 0 0-.234-.47 1.2 1.2 0 0 0-.328-.378 1.4 1.4 0 0 0-.438-.203 2 2 0 0 0-.617-.09H3.648c-.19 0-.336.047-.43.133q-.14.127-.14.418V5.43H5.11q.407.001.578-.157c.121-.109.191-.285.215-.52l.047-.41q.001-.042.031-.085a.12.12 0 0 1 .086-.04h.352l.066.063a20 20 0 0 0-.066 1.453q0 .543.066 1.399l-.066.047h-.352q-.117-.001-.117-.125l-.047-.41q-.03-.343-.207-.481-.18-.131-.586-.133H3.08v4.047q0 .309.14.418.138.11.43.11h2.175c1.06 0 1.77-.704 2.156-2.106l.5.078-.593 2.691a79 79 0 0 0-2.047-.035H2.418q-.53.001-2.027.032l-.032-.032v-.32q.001-.11.125-.11l.477-.03q.459-.043.64-.196.18-.157.18-.496V2.05q.001-.376-.18-.535-.182-.154-.64-.196L.484 1.29Q.36 1.29.36 1.179V.86L.391.824c1 .024 1.68.035 2.027.035h4.047q.381 0 .75-.066.063 0 .062.047M12.945 4.172l-.047 1.43h.047q.709-.842 1.313-1.133.61-.3 1.296-.301.521.002.871.191.361.188.547.559.188.361.258.793.077.422.078 1.004v3.363q-.002.345.149.504.148.146.52.188l.308.03q.136.037.137.126v.308l-.032.032a70 70 0 0 0-1.71-.032q-.305.001-1.583.032l-.03-.032v-.308q-.002-.101.132-.125l.219-.031q.398-.061.539-.204c.098-.102.148-.262.148-.488v-3.48q0-.896-.222-1.27c-.137-.258-.414-.387-.82-.387-.368 0-.72.094-1.044.278q-.493.272-1.078.965v3.894q0 .347.14.488.148.142.548.204l.222.03q.13.025.13.126v.308l-.032.032q-1.283-.034-1.633-.032-.381.001-1.664.032l-.027-.032v-.308q0-.101.12-.125l.306-.031c.266-.028.445-.086.539-.188.097-.098.148-.27.148-.504V6.074q.001-.575-.086-.77-.076-.205-.266-.23l-.687-.07-.027-.387c1.02-.156 1.75-.32 2.207-.496.043 0 .062.02.062.047M20.699 8.98l.43-.015q.145 1.085.578 1.52a1.65 1.65 0 0 0 1.187.46q.481 0 .934-.328c.3-.223.453-.512.453-.875 0-.359-.121-.656-.36-.91q-.356-.386-1.288-.8-.498-.224-.774-.372a3 3 0 0 1-.523-.394A1.26 1.26 0 0 1 21 6.723a2.7 2.7 0 0 1-.094-.754c0-.527.215-.961.633-1.297.426-.332.96-.504 1.601-.504s1.25.133 1.762.402c.082.441.137.988.176 1.645l-.43.015a2.9 2.9 0 0 0-.328-.793q-.204-.339-.437-.496a1.7 1.7 0 0 0-.415-.218.9.9 0 0 0-.328-.07c-.836 0-1.25.358-1.254 1.081q.002.487.23.77.242.275.9.508.544.207.921.402.374.198.719.473.35.276.523.64c.113.25.172.523.172.836 0 .31-.062.578-.187.824a1.8 1.8 0 0 1-.45.582q-.268.216-.613.368-.344.14-.636.199a3 3 0 0 1-.54.055q-.779-.001-1.445-.176a1.2 1.2 0 0 0-.297-.028q-.123.001-.375.043c0-.574-.035-1.33-.109-2.254M28.805 2.61a.74.74 0 0 1-.227-.544q0-.314.227-.543a.72.72 0 0 1 .54-.234.72.72 0 0 1 .534.227.74.74 0 0 1 .235.55.73.73 0 0 1-.235.543.72.72 0 0 1-.535.227.74.74 0 0 1-.539-.227m1.277 1.563q-.053 1.09-.054 1.902v4.004q0 .345.148.504.157.147.531.187l.297.032c.102.015.148.058.149.125v.308l-.028.032a71 71 0 0 0-1.71-.032c-.259 0-.81.012-1.665.032l-.031-.032v-.308q.001-.102.125-.125l.305-.032q.406-.054.547-.195.14-.149.14-.496V6.074q0-.575-.09-.77-.074-.205-.265-.23l-.688-.07-.031-.387q1.605-.239 2.25-.496c.047 0 .07.02.07.047M34.238 2.176c0-.496-.035-.832-.11-.996q-.11-.263-.367-.262L33.25.887c-.067 0-.094-.028-.094-.078l-.031-.387q.493-.039 1.168-.172.69-.137.984-.25.211 0 .211.164-.047.645-.047 1.688v5.57c.418-.105 1.11-.695 2.094-1.774a2 2 0 0 0 .172-.207q.083-.116.148-.273c.065-.157.016-.195-.07-.27-.082-.078-.238-.125-.461-.132q-.124.001-.125-.133v-.309c.031-.008.043-.02.043-.027q1.19.028 1.43.027.207 0 1.39-.027l.063.027v.309c0 .066-.059.113-.18.133l-.11.015a3.2 3.2 0 0 0-.812.262 2.4 2.4 0 0 0-.726.492l-1.211 1.356q-.064.059-.063.164.002.118.078.219l1.868 2.78c.137.208.312.368.53.489q.328.183.673.242l.11.016q.146.024.148.125v.308l-.032.032q-.969-.034-1.36-.032-.438.001-1.077.032l-.043-.032v-.308c0-.22-.125-.508-.367-.871l-1.164-1.653q-.233-.345-.438-.46a1 1 0 0 0-.508-.118v2.254q.001.41.172.551.174.136.547.172.124.001.125.125v.308l-.031.032a74 74 0 0 0-1.438-.032l-1.644.032-.032-.032v-.308q0-.101.11-.125l.305-.031c.266-.028.445-.086.539-.188.097-.098.145-.27.144-.504zM43.359 10.082V2.176c0-.496-.04-.832-.117-.996q-.107-.263-.367-.262l-.508-.031q-.101-.002-.102-.078l-.031-.387q.502-.04 1.18-.164.679-.135.984-.258.204 0 .203.164-.047.645-.047 1.688v8.226c0 .234.047.406.14.504q.142.146.528.188l.383.03q.134.002.133.126v.308l-.031.032c-1.07-.024-1.66-.032-1.778-.032q-.147.001-1.742.032l-.015-.032v-.308q-.001-.124.109-.125l.383-.031c.266-.028.449-.086.547-.188.097-.098.148-.27.148-.504M47.922 7.934q-.001-1.68.871-2.727c.582-.691 1.39-1.04 2.438-1.035q.684 0 1.246.219c.375.14.688.332.93.574a3.1 3.1 0 0 1 .624.832q.257.47.368.976c.07.332.109.672.109 1.02q0 .628-.211 1.25a4.4 4.4 0 0 1-.594 1.148 2.9 2.9 0 0 1-1.039.871 3.2 3.2 0 0 1-1.469.328 3.2 3.2 0 0 1-1.414-.304 2.9 2.9 0 0 1-1.035-.809 3.8 3.8 0 0 1-.617-1.11 3.7 3.7 0 0 1-.211-1.234m3.129-3.23q-.608 0-1.024.441a2.5 2.5 0 0 0-.586 1.051 5.4 5.4 0 0 0-.093 2.192c.05.285.137.574.25.875.113.297.254.562.414.8.16.234.367.43.617.578q.38.222.836.223.3 0 .566-.105.275-.107.532-.368c.18-.18.32-.445.421-.804q.156-.534.157-1.285.002-1.755-.547-2.672c-.363-.621-.88-.93-1.543-.93M58.914 6.23v3.93q.585.691 1.328.692.488-.001.871-.184.393-.188.625-.477.235-.292.383-.695a3.4 3.4 0 0 0 .21-.793q.055-.394.056-.816c0-.887-.176-1.61-.528-2.153q-.527-.826-1.28-.828c-.29 0-.603.121-.93.36a2.2 2.2 0 0 0-.735.96m-1.191-.156c0-.379-.032-.633-.086-.77q-.089-.205-.266-.23L56.684 5l-.032-.387q1.494-.222 2.203-.492.064.001.063.043l-.047 1.293h.047c.562-.863 1.26-1.29 2.098-1.293q.749 0 1.375.465.623.463.964 1.219.344.758.344 1.601c0 1.27-.375 2.28-1.12 3.04-.59.602-1.34.898-2.235.898q-.773.001-1.43-.356v2.79q0 .34.148.488.158.157.524.191l.305.028c.102.02.148.058.148.129v.304l-.031.031q-1.185-.03-1.711-.03c-.324 0-.883.01-1.66.03l-.04-.03v-.305c0-.07.044-.11.133-.13l.305-.027c.254-.023.434-.086.527-.191q.157-.148.157-.488V6.067M67.629 6.617h2.934c.152 0 .227-.078.226-.222q-.001-.48-.125-.825a1.13 1.13 0 0 0-.328-.52 1.2 1.2 0 0 0-.422-.25 1.3 1.3 0 0 0-.45-.077q-.157 0-.312.023c-.102.008-.234.05-.406.121-.176.07-.324.168-.46.293q-.199.189-.395.567-.183.376-.266.886M71.844 9.7q.252.028.316.262a3.54 3.54 0 0 1-1.168 1.043 3.1 3.1 0 0 1-1.53.387q-1.561 0-2.364-.946c-.531-.629-.801-1.43-.801-2.418q0-.88.285-1.625c.188-.5.43-.906.735-1.226.3-.32.637-.566 1.003-.739q.564-.27 1.141-.27.61 0 1.078.165c.468.165.56.254.746.434q.293.258.469.632.182.38.242.754.07.38.07.813c0 .184-.093.273-.289.273H67.57q-.002.692.149 1.274.152.573.39.953.24.376.543.64c.211.176.41.301.61.38s.39.116.578.116c.434 0 .801-.07 1.11-.21q.457-.223.886-.692M79.52 9.719v-4.04q-.303-.479-.664-.706-.359-.236-.899-.239c-.636 0-1.14.27-1.488.805q-.445.643-.445 2.137 0 1.41.516 2.191.523.769 1.226.77c.418 0 1-.31 1.758-.918m1.2-7.867v7.511q0 .596.07.754c.05.105.155.168.328.184l.773.078.047.379c-1.04.18-1.71.406-2.043.672h-.375l.039-1.13-.04-.015c-.905.738-1.63 1.11-2.171 1.106q-1.262 0-1.973-.95-.71-.95-.71-2.476c0-1.17.354-2.11 1.066-2.828.34-.324.695-.562 1.07-.723q.567-.241 1.328-.242.263.001.695.101.438.102.696.25V2.176c0-.496-.035-.832-.11-.996q-.11-.263-.367-.262l-.515-.031q-.094-.002-.094-.078l-.031-.387q.5-.04 1.18-.164c.448-.09.78-.176.98-.258q.204 0 .203.164-.042.645-.043 1.688M85.047 2.61a.74.74 0 0 1-.227-.544c0-.21.079-.39.227-.543a.73.73 0 0 1 .54-.234q.31-.001.538.227a.74.74 0 0 1 .23.55.73.73 0 0 1-.23.543.73.73 0 0 1-.539.227.75.75 0 0 1-.539-.227m1.281 1.563q-.057 1.09-.054 1.902v4.004q0 .345.148.504.155.147.531.187l.297.032q.147.023.149.125v.308l-.032.032a70 70 0 0 0-1.71-.032q-.382.001-1.665.032l-.031-.032v-.308q.001-.102.125-.125l.309-.032q.403-.054.543-.195.14-.149.14-.496V6.074q.001-.575-.086-.77-.076-.205-.265-.23l-.688-.07-.027-.387q1.606-.239 2.246-.496c.047 0 .07.02.07.047M93.73 7.488l-1.262.336c-1.03.285-1.55.875-1.547 1.77q0 .428.313.793.31.352.867.351c.371 0 .832-.23 1.402-.699a.48.48 0 0 0 .227-.414zm0 2.977h-.027l-.32.25q-.534.415-.868.543-.33.134-.875.133c-.602 0-1.09-.141-1.441-.414q-.54-.42-.54-1.32 0-.806.708-1.415c.48-.414 1.11-.723 1.898-.922l1.375-.336q.094-.034.094-.191-.002-.527-.086-.918-.089-.403-.211-.629c-.122-.226-.188-.273-.313-.36a1.1 1.1 0 0 0-.343-.19 1.2 1.2 0 0 0-.344-.044c-.344 0-.648.059-.922.188q-.405.188-.406.539.001.223.031.316a.7.7 0 0 1 .047.293q0 .188-.195.36-.186.17-.508.172-.556 0-.555-.567.002-.421.383-.84.386-.414 1-.675c.614-.261.828-.266 1.25-.266q.383 0 .695.062.32.065.64.243.323.176.532.464.217.29.352.793c.093.332.137.715.136 1.157v2.765c.008.09.016.2.024.32.015.122.039.22.062.293q.043.1.102.215.072.104.18.157a.8.8 0 0 0 .265.043.56.56 0 0 0 .285-.063.8.8 0 0 0 .164-.125q.056-.063.086-.062.047 0 .11.078c.047.05.07.105.07.156q0 .029-.062.11-.064.077-.188.179a3 3 0 0 1-.273.207 1.7 1.7 0 0 1-.375.156q-.212.07-.43.07-.944 0-1.203-.925M105.95 2.035V5.32h1.191q2.28.002 2.278-1.847.001-1.113-.625-1.614a2.2 2.2 0 0 0-1.446-.515q-.689 0-.992.07-.286.076-.351.195-.053.122-.051.426zm0 3.84v3.777q0 1.078 1.332 1.086 1.679.002 2.285-.578.604-.575.606-1.59c0-.789-.262-1.44-.785-1.937-.52-.504-1.29-.758-2.332-.758zm-.691-5.05q.357 0 1.043-.016.689-.019.964-.02 3.451 0 3.446 2.484c0 .418-.145.828-.438 1.215a3.04 3.04 0 0 1-1.082.903v.03c.746.216 1.34.563 1.797 1.036.445.473.672 1.07.672 1.805 0 .379-.062.734-.195 1.07a2.9 2.9 0 0 1-.621.953c-.285.297-.707.54-1.262.719q-.82.258-1.961.258c-.535 0-1.02-.004-1.441-.016q-.644-.017-.903-.016-.517-.002-2.082.032-.081-.061-.082-.25 0-.198.082-.278.898-.03 1.14-.265c.173-.16.25-.56.25-1.203V2.793c0-.645-.077-1.04-.25-1.195-.16-.16-.542-.246-1.14-.27-.054-.039-.082-.129-.082-.258s.028-.227.082-.277q1.607.033 2.063.031zM115.12 2.61a.74.74 0 0 1-.227-.544q0-.314.227-.543a.72.72 0 0 1 .54-.234.72.72 0 0 1 .534.227.74.74 0 0 1 .235.55.73.73 0 0 1-.235.543.73.73 0 0 1-.535.227.74.74 0 0 1-.539-.227m1.277 1.563a40 40 0 0 0-.054 1.902v4.004q0 .345.148.504.157.147.531.187l.297.032c.102.015.148.058.149.125v.308l-.028.032a71 71 0 0 0-1.71-.032c-.259 0-.81.012-1.665.032l-.031-.032v-.308q.001-.102.125-.125l.305-.032c.27-.035.449-.102.547-.195q.138-.149.136-.496V6.074q.001-.575-.086-.77-.074-.205-.265-.23l-.688-.07-.031-.387q1.605-.239 2.25-.496c.047 0 .07.02.07.047M122.05 10.098q.288.358.547.559.264.194.61.195 1.09-.001 1.66-.887.578-.889.578-2.336c0-.773-.172-1.43-.516-1.953q-.515-.796-1.246-.797-.163.001-.367.032-.205.023-.598.187-.386.164-.668.457v4.54m-1.195-7.919q0-.749-.117-1c-.07-.176-.195-.258-.368-.258l-.507-.035c-.067 0-.102-.023-.102-.078l-.027-.383q.491-.04 1.175-.176.697-.134.985-.25.204 0 .203.165-.047.647-.047 1.691v3.207c.543-.594 1.19-.891 1.953-.89q.523 0 1.024.23.5.218.898.62c.266.263.477.595.64 1.005.16.402.239.844.239 1.312a4.5 4.5 0 0 1-.316 1.703q-.316.784-.82 1.29a3.9 3.9 0 0 1-1.126.785 3 3 0 0 1-1.242.273q-.983.001-1.664-.59a3.7 3.7 0 0 1-.524.63q-.218 0-.335-.087.08-.44.078-1.25zM133.39 7.488l-1.262.336c-1.03.285-1.55.875-1.547 1.77q0 .428.313.793.31.352.867.351c.371 0 .832-.23 1.402-.699a.48.48 0 0 0 .227-.414zm0 2.977h-.031l-.32.25q-.53.415-.864.543-.33.134-.875.133c-.605 0-1.09-.141-1.445-.414q-.54-.42-.54-1.32.001-.806.712-1.415.719-.622 1.894-.922l1.375-.336q.094-.034.094-.191.001-.527-.086-.918a2.2 2.2 0 0 0-.21-.629 1 1 0 0 0-.313-.36 1 1 0 0 0-.344-.19 1.2 1.2 0 0 0-.34-.044c-.344 0-.652.059-.922.188q-.406.188-.406.539.001.223.031.316a.7.7 0 0 1 .047.293q0 .188-.195.36-.189.17-.512.172-.551 0-.55-.567c0-.28.124-.562.382-.84q.381-.414.996-.675a3.2 3.2 0 0 1 1.25-.266q.383 0 .695.062.323.065.641.243.322.176.531.464.217.29.352.793c.094.332.14.715.14 1.157v2.765c.004.09.012.2.024.32q.02.183.062.293c.028.067.059.137.102.215q.069.104.18.157a.8.8 0 0 0 .265.043c.117 0 .207-.02.281-.063a.6.6 0 0 0 .165-.125c.035-.043.066-.062.085-.062q.047 0 .11.078c.043.05.07.105.07.156q0 .029-.062.11-.064.077-.188.179-.116.104-.273.207-.156.093-.38.156-.206.07-.425.07c-.633 0-1.03-.308-1.203-.925M137.99 8.98l.43-.015c.097.723.293 1.23.578 1.52a1.65 1.65 0 0 0 1.183.46q.486 0 .938-.328c.305-.223.453-.512.453-.875 0-.359-.121-.656-.36-.91q-.356-.386-1.288-.8-.499-.224-.77-.372a2.7 2.7 0 0 1-.523-.394 1.26 1.26 0 0 1-.336-.543 2.6 2.6 0 0 1-.094-.754q0-.792.633-1.297c.426-.332.96-.504 1.597-.504.641 0 1.25.133 1.766.402q.118.66.172 1.645l-.43.015a2.7 2.7 0 0 0-.328-.793 1.5 1.5 0 0 0-.437-.496 1.7 1.7 0 0 0-.41-.218.9.9 0 0 0-.329-.07q-1.26-.002-1.258 1.081 0 .487.235.77.24.275.898.508.546.207.922.402.37.198.719.473.347.276.52.64c.116.25.175.523.175.836 0 .31-.066.578-.191.824-.117.238-.27.434-.45.582-.18.145-.378.266-.609.368q-.346.14-.64.199a3 3 0 0 1-.54.055q-.779-.001-1.445-.176a1.2 1.2 0 0 0-.297-.028q-.123.001-.375.043c0-.574-.035-1.33-.109-2.254"/></svg>