<svg xmlns="http://www.w3.org/2000/svg" viewBox="0 0 123 11"><path d="m120.742 5.16-.87.232q-1.042.273-1.042 1.208 0 .295.207.54.207.244.583.244t.966-.478q.156-.118.156-.284zm0 2.036h-.021l-.22.172q-.366.285-.594.373-.228.09-.604.089-.623 0-1.005-.285t-.381-.902q0-.547.5-.97.498-.421 1.315-.625l.946-.231q.064-.02.064-.13 0-1.428-.891-1.428a1.6 1.6 0 0 0-.64.116q-.273.115-.273.346 0 .15.021.215a.5.5 0 0 1 .032.199q0 .129-.131.247a.5.5 0 0 1-.352.118q-.382 0-.382-.387 0-.29.264-.575.262-.284.687-.464.424-.18.865-.18.263 0 .483.04t.446.164q.226.123.381.322.156.2.253.54.096.342.097.792v1.639q0 .155.003.247.003.09.016.217a.8.8 0 0 0 .04.196.7.7 0 0 0 .075.14q.049.069.126.102a.5.5 0 0 0 .18.032.3.3 0 0 0 .172-.043.5.5 0 0 0 .108-.086q.037-.042.059-.043.031 0 .088.065.057.064.057.118 0 .038-.116.15a1.4 1.4 0 0 1-.346.229 1.05 1.05 0 0 1-.838.05.7.7 0 0 1-.255-.169 1 1 0 0 1-.148-.201 1 1 0 0 1-.08-.199Zm-4.109-.671q0 1.374-.158 2.178-.159.803-.524 1.109-.425.345-.999.344a.7.7 0 0 1-.39-.135.41.41 0 0 1-.195-.354q0-.14.112-.234a.35.35 0 0 1 .22-.094.6.6 0 0 1 .382.127 1 1 0 0 1 .102.115q.118.177.253.177.102 0 .174-.091a.7.7 0 0 0 .113-.277q.04-.185.062-.378.021-.195.027-.497a27 27 0 0 0 0-1.101 31 31 0 0 1-.005-.53V3.85q0-.241-.092-.346-.09-.105-.381-.137l-.21-.022q-.085-.01-.085-.086v-.258l.021-.021q.747.021 1.144.021l.408-.021.022.021v3.524Zm-1.069-5.393q0-.193.188-.36a.58.58 0 0 1 .387-.166q.215 0 .37.18a.58.58 0 0 1 .157.39q0 .182-.175.356a.55.55 0 0 1-.395.175.5.5 0 0 1-.365-.18.57.57 0 0 1-.167-.395m-6.031 1.87 1.332-.022.032.021v.28q0 .064-.075.064l-.355.022q-.338.021-.41.104-.073.084-.073.422v2.621l2.422-2.728a2 2 0 0 0-.008-.178.4.4 0 0 0-.045-.126.2.2 0 0 0-.124-.097 1 1 0 0 0-.231-.04q-.054 0-.054-.054v-.29l.022-.021q.525.021.86.021l1.331-.021.011.021v.28q0 .064-.07.064l-.349.022q-.322.015-.397.099-.076.083-.076.427v2.96q0 .306.086.397.081.086.387.107l.35.027q.069 0 .069.065v.274l-.01.021a68 68 0 0 0-1.333-.021q-.354 0-1.3.021l-.021-.021v-.285q0-.054.054-.054l.365-.027q.316-.015.4-.11.083-.093.083-.395V4.258l-2.422 2.729v.021q0 .21.078.282.078.073.362.094.07 0 .07.065v.274l-.016.021-.36-.01q-.177-.007-.298-.009-.12-.003-.287-.003-.35 0-1.295.022l-.01-.022v-.284q0-.054.053-.054l.376-.027q.323-.021.392-.102.07-.08.07-.381v-2.97q0-.35-.067-.433t-.395-.105l-.354-.021q-.075 0-.075-.054v-.29l.032-.021q.773.021 1.273.021Zm-7.305 6.128.07-1.461q.01-.241.327-.285.614-.064.693-.43.204-.87.317-1.616t.113-1.633q0-.3-.473-.338l-.322-.022q-.086 0-.086-.054v-.29l.043-.021q.914.021 1.112.021h2.234l1.241-.021.01.021v.22q0 .032-.023.057a.07.07 0 0 1-.051.024l-.21.022q-.316.032-.427.134t-.11.381v3.046q0 .144.043.244a.3.3 0 0 0 .124.148.75.75 0 0 0 .306.107q.295.043.295.274l.065 1.472h-.296a4 4 0 0 0-.088-.32 2 2 0 0 0-.167-.365 1.7 1.7 0 0 0-.26-.357 1.2 1.2 0 0 0-.38-.258 1.2 1.2 0 0 0-.512-.107h-1.901q-.28 0-.513.112a1.2 1.2 0 0 0-.374.266 1.8 1.8 0 0 0-.252.368 2.5 2.5 0 0 0-.247.672zm1.488-1.966q0 .086.054.107a.5.5 0 0 0 .166.022h1.418q.306 0 .384-.113t.078-.424V3.963q0-.317-.078-.43t-.384-.113h-.849a.3.3 0 0 0-.204.067.33.33 0 0 0-.102.124.3.3 0 0 0-.021.094q-.075 1.107-.191 1.923c-.116.816-.141.93-.193 1.157a4 4 0 0 0-.078.379m-5.328-2.546 1.992-.032q.162 0 .162-.15a1.8 1.8 0 0 0-.081-.567.8.8 0 0 0-.22-.36.9.9 0 0 0-.29-.175 1 1 0 0 0-.323-.053 1 1 0 0 0-.212.019q-.104.018-.274.096a1.1 1.1 0 0 0-.306.212q-.137.135-.263.398t-.185.612m2.884 2.084q.183.016.23.172-.74.956-1.874.956-1.08 0-1.68-.704-.516-.59-.516-1.627 0-.483.137-.908a2.46 2.46 0 0 1 .875-1.246q.288-.22.59-.325.305-.105.594-.105 1.86 0 1.859 1.913 0 .188-.204.188l-2.928-.022q0 .93.35 1.51.241.396.56.593.32.195.643.196.462 0 .754-.132.293-.13.61-.459m-9.55-2.798q0-.345-.078-.43t-.394-.107l-.35-.022q-.053 0-.053-.054v-.29l.021-.021 1.273.02h3.212l1.332-.021.01.021v.28q.001.064-.064.064l-.354.022q-.328.021-.4.104-.073.084-.073.422v2.949q0 .311.08.403.087.09.393.112l.354.027q.065 0 .065.065v.274l-.01.021a50 50 0 0 0-1.3-.021l-1.274.021-.01-.021v-.285q0-.054.053-.054l.317-.027q.306-.02.39-.118.083-.097.083-.397V3.86a.7.7 0 0 0-.038-.24.24.24 0 0 0-.115-.13.5.5 0 0 0-.145-.05 1 1 0 0 0-.175-.01h-1.407a.6.6 0 0 0-.35.083q-.123.083-.123.347v2.98q0 .318.084.409.083.091.378.107l.322.027q.054 0 .054.065v.274l-.01.021a48 48 0 0 0-1.268-.021l-1.295.021-.026-.021v-.285q0-.054.07-.054l.349-.027q.306-.02.392-.118.08-.096.08-.397zM85.4 5.467q0-1.09.607-1.805.656-.768 1.724-.768.49 0 .887.148.397.147.655.392.258.244.435.572t.255.668q.078.342.078.696 0 .532-.177 1.015a2.2 2.2 0 0 1-.537.833q-.63.612-1.617.612-.45 0-.838-.137a2 2 0 0 1-.653-.37 2.4 2.4 0 0 1-.73-1.179 2.6 2.6 0 0 1-.089-.677m2.165-2.186q-1.22 0-1.22 1.933 0 .35.081.712.08.362.247.717.166.354.478.58a1.19 1.19 0 0 0 1.128.145 1.3 1.3 0 0 0 .392-.26q.194-.18.31-.538.114-.357.115-.85 0-1.177-.406-1.808-.405-.631-1.125-.631M79.19 7.218q0-.194.116-.328a.4.4 0 0 1 .314-.134q.21 0 .293.113a.7.7 0 0 1 .115.306.36.36 0 0 0 .062.174q.046.057.148.057.317 0 .515-.543.243-.698.242-2.207 0-.248-.003-.39a6 6 0 0 0-.013-.295 2 2 0 0 0-.027-.228 1 1 0 0 0-.054-.159.3.3 0 0 0-.083-.115.6.6 0 0 0-.123-.065.6.6 0 0 0-.162-.043 3 3 0 0 0-.217-.016.7.7 0 0 1-.204-.032q-.048-.021-.048-.091v-.22l.042-.022q.726.021 1.187.021h2.025l1.29-.021.032.021v.269q0 .075-.086.075l-.333.022q-.333.027-.403.094t-.07.378v3.024q0 .241.11.357.111.116.384.137l.22.027a.1.1 0 0 1 .07.025.07.07 0 0 1 .032.061v.253l-.021.021q-.795-.021-1.246-.021l-1.209.021-.021-.021V7.47q0-.07.086-.086l.22-.026q.295-.032.4-.14t.105-.355v-2.9q0-.301-.089-.416-.088-.116-.384-.116h-.515q-.312 0-.392.226-.081.225-.081.918 0 1.719-.285 2.401-.194.457-.453.669-.26.212-.67.212-.365 0-.59-.188a.57.57 0 0 1-.226-.451m-5.188.505V7.47q0-.07.086-.086l.22-.027q.3-.031.398-.129.096-.096.096-.333V3.85q0-.236-.11-.35-.11-.112-.384-.133l-.22-.022q-.086-.016-.086-.086v-.258l.021-.021q.79.021 1.198.021l1.101-.021.022.021v.231q0 .037-.035.076-.035.037-.067.037-.295.027-.433.118-.137.091-.137.366v1.208q.543 0 .844-.258.306-.258.51-.762.118-.29.263-.521t.381-.411a.8.8 0 0 1 .5-.18q.59 0 .59.494a.4.4 0 0 1-.13.293.43.43 0 0 1-.31.126.53.53 0 0 1-.317-.097.46.46 0 0 0-.252-.08q-.097 0-.236.169a1.5 1.5 0 0 0-.237.416q-.29.768-.87.935v.043q.956 0 1.29.778.617 1.375 1.073 1.434l.103.011q.117 0 .118.097v.199l-.033.021-.832-.01q-.656-.012-1.112-1.252a3 3 0 0 0-.183-.414 1.4 1.4 0 0 0-.241-.317 1 1 0 0 0-.376-.228 2 2 0 0 0-.543-.1v1.494q0 .13.057.22.056.09.158.14.102.048.188.07.086.02.204.037.087.021.086.086v.252l-.021.022a36 36 0 0 0-1.123-.022l-1.198.022zM68.583 3l1.333-.021.032.021v.28q0 .064-.075.064l-.355.022q-.338.021-.41.104-.074.084-.073.422v2.621l2.422-2.728q0-.119-.008-.178a.4.4 0 0 0-.046-.126.2.2 0 0 0-.123-.097 1 1 0 0 0-.231-.04q-.054 0-.054-.054V3l.022-.021q.525.021.859.021l1.332-.021.01.021v.28q0 .064-.07.064l-.348.022q-.323.015-.398.099-.075.083-.075.427v2.96q0 .306.086.397.081.086.387.107l.349.027q.07 0 .07.065v.274l-.011.021a68 68 0 0 0-1.332-.021q-.355 0-1.3.021l-.021-.021v-.285q0-.054.053-.054l.366-.027q.315-.015.4-.11.083-.093.083-.395V4.258l-2.422 2.729v.021q0 .21.078.282.077.073.362.094.07 0 .07.065v.274l-.016.021-.36-.01q-.177-.007-.298-.009-.12-.003-.288-.003-.349 0-1.294.022l-.01-.022v-.284q0-.054.053-.054l.376-.027q.323-.021.392-.102.07-.08.07-.381v-2.97q0-.35-.067-.433-.068-.083-.395-.105l-.355-.021q-.075 0-.075-.054v-.29l.033-.021q.773.021 1.272.021Zm-3.695.892q0-.316-.083-.408t-.39-.118l-.241-.022q-.054 0-.054-.054V3l.01-.021Q64.856 3 65.318 3l1.251-.021.022.021v.29q0 .054-.075.054l-.285.022q-.3.027-.387.112-.086.087-.086.414v2.949a.55.55 0 0 0 .124.373q.123.142.295.17a.53.53 0 0 1 .245.088q.078.061.083.196l.075 1.46-.295.011a2.7 2.7 0 0 0-.395-.902 1.16 1.16 0 0 0-.991-.515h-2.825l-1.08.021-.021-.021v-.274q0-.065.053-.065l.2-.027q.315-.032.394-.105.078-.072.078-.378V3.882q0-.312-.084-.4-.083-.09-.389-.116l-.295-.021q-.07 0-.07-.054v-.29l.016-.021q.757.021 1.24.021l1.198-.021.022.021v.28q0 .064-.065.064l-.241.021q-.306.027-.384.108t-.078.408v2.874q0 .322.083.43.084.106.379.107h1.386q.3 0 .386-.116.087-.115.086-.421zM58.497 6.83V5.39h-2.374v1.44q0 .323.085.41.087.09.387.116l.231.027q.065 0 .065.065v.274l-.022.021a41 41 0 0 0-1.198-.021q-.532 0-1.24.021l-.011-.021v-.285q0-.054.054-.054l.295-.027q.317-.02.4-.115t.083-.411V3.882q.001-.306-.094-.397-.093-.091-.389-.118l-.295-.022q-.054 0-.054-.054v-.29l.021-.021q.71.021 1.23.021.5 0 1.209-.021l.01.021v.28q.001.064-.064.064l-.23.022q-.167.015-.242.032a.3.3 0 0 0-.137.07.24.24 0 0 0-.078.147 2 2 0 0 0-.016.266v1.134h2.374V3.882q0-.306-.092-.397-.09-.091-.381-.118l-.306-.022q-.054 0-.054-.054v-.29l.022-.021q.708.021 1.24.021a42 42 0 0 0 1.214-.021l.01.021v.28q0 .064-.069.064l-.242.022q-.165.015-.241.032a.3.3 0 0 0-.137.07.24.24 0 0 0-.078.147 2 2 0 0 0-.016.266v2.949q0 .323.086.41.086.09.386.116l.242.027q.07 0 .07.065v.274l-.027.021a41 41 0 0 0-1.198-.021q-.542 0-1.251.021l-.01-.021v-.285q0-.054.053-.054l.306-.027q.317-.021.395-.113.078-.09.078-.413Zm-7.998-2.213 1.993-.032q.16 0 .16-.15a1.8 1.8 0 0 0-.08-.567.8.8 0 0 0-.22-.36.9.9 0 0 0-.29-.175 1 1 0 0 0-.322-.053q-.108 0-.212.019a1.2 1.2 0 0 0-.274.096 1.1 1.1 0 0 0-.306.212q-.138.135-.264.398a2.3 2.3 0 0 0-.185.612m2.884 2.084q.183.016.231.172-.741.956-1.874.956-1.08 0-1.681-.704-.516-.59-.516-1.627 0-.483.137-.908a2.46 2.46 0 0 1 .875-1.246 2.1 2.1 0 0 1 .591-.325q.304-.105.594-.105 1.858 0 1.858 1.913 0 .188-.204.188l-2.927-.022q0 .93.349 1.51.242.396.561.593.32.195.642.196.462 0 .755-.132.292-.13.61-.459Zm-8.803-1.54-.87.23q-1.042.275-1.042 1.209 0 .295.207.54.207.244.583.244.375 0 .966-.478.156-.118.156-.284zm0 2.035h-.021l-.22.172q-.366.285-.594.373-.228.09-.604.089-.623 0-1.005-.285t-.381-.902q0-.547.5-.97.498-.421 1.315-.625l.946-.231q.064-.02.064-.13 0-1.428-.892-1.428-.364 0-.639.116-.273.115-.274.346 0 .15.022.215.032.065.032.199 0 .129-.132.247a.5.5 0 0 1-.351.118q-.382 0-.382-.387 0-.29.264-.575.263-.284.687-.464t.865-.18q.263 0 .483.04t.446.164q.225.123.381.322.156.2.253.54.096.342.096.792v1.639q0 .155.003.247.003.09.016.217.015.127.04.196a.7.7 0 0 0 .076.14q.048.069.126.102a.5.5 0 0 0 .18.032.3.3 0 0 0 .172-.043.5.5 0 0 0 .107-.086q.038-.042.06-.043.03 0 .088.065.056.064.056.118 0 .038-.115.15a1.4 1.4 0 0 1-.347.229 1.05 1.05 0 0 1-.838.05.7.7 0 0 1-.255-.169 1 1 0 0 1-.147-.201 1 1 0 0 1-.08-.199Zm-5.247-.365v-1.44h-2.375v1.44q.001.323.086.41.087.09.387.116l.231.027q.065 0 .065.065v.274l-.022.021a41 41 0 0 0-1.198-.021q-.532 0-1.24.021l-.011-.021v-.285q0-.054.054-.054l.295-.027q.317-.02.4-.115t.083-.411V3.882q.001-.306-.094-.397-.093-.091-.389-.118l-.295-.022q-.054 0-.054-.054v-.29l.021-.021q.71.021 1.23.021.5 0 1.209-.021l.01.021v.28q.001.064-.064.064l-.23.022q-.167.015-.243.032a.3.3 0 0 0-.137.07.24.24 0 0 0-.077.147 1.6 1.6 0 0 0-.016.266v1.134h2.374V3.882q0-.306-.092-.397-.09-.091-.381-.118l-.306-.022q-.054 0-.054-.054v-.29l.021-.021q.71.021 1.241.021a42 42 0 0 0 1.214-.021l.01.021v.28q0 .064-.069.064l-.242.022q-.166.015-.241.032a.3.3 0 0 0-.137.07.24.24 0 0 0-.078.147 2 2 0 0 0-.016.266v2.949q0 .323.086.41.086.09.386.116l.242.027q.07 0 .07.065v.274l-.027.021a41 41 0 0 0-1.198-.021q-.542 0-1.251.021l-.011-.021v-.285q0-.054.054-.054l.306-.027q.317-.021.395-.113.078-.09.078-.413M29.267 9.13l.07-1.461q.01-.242.328-.285.612-.064.692-.43.204-.87.317-1.616t.113-1.633q0-.3-.473-.338l-.322-.022q-.086 0-.086-.054v-.29l.043-.021q.914.021 1.112.021h2.234l1.241-.021.01.021v.22q0 .032-.023.057a.07.07 0 0 1-.051.024l-.21.022q-.316.032-.427.134t-.11.381v3.046q0 .144.043.244a.3.3 0 0 0 .124.148.75.75 0 0 0 .306.107q.295.043.295.274l.065 1.472h-.296a4 4 0 0 0-.088-.32 2 2 0 0 0-.167-.365 1.7 1.7 0 0 0-.26-.357 1.2 1.2 0 0 0-.38-.258 1.2 1.2 0 0 0-.512-.107h-1.901q-.28 0-.513.112a1.2 1.2 0 0 0-.374.266 1.8 1.8 0 0 0-.252.368 2.5 2.5 0 0 0-.247.672zm1.488-1.966q0 .086.054.107a.5.5 0 0 0 .166.022h1.418q.306 0 .384-.113t.078-.424V3.963q0-.317-.078-.43t-.384-.113h-.849a.3.3 0 0 0-.204.067.33.33 0 0 0-.102.124.3.3 0 0 0-.021.094q-.076 1.107-.19 1.923-.116.816-.194 1.157a4 4 0 0 0-.078.379M23.89 5.467q0-1.09.607-1.805.654-.768 1.724-.768.488 0 .886.148.397.147.655.392.258.244.435.572t.255.668q.078.342.078.696 0 .532-.177 1.015a2.2 2.2 0 0 1-.537.833q-.63.612-1.617.612-.45 0-.838-.137a2 2 0 0 1-.652-.37 2.4 2.4 0 0 1-.73-1.179 2.6 2.6 0 0 1-.09-.677Zm2.164-2.186q-1.22 0-1.22 1.933a3.4 3.4 0 0 0 .328 1.429q.167.354.479.58a1.19 1.19 0 0 0 1.128.145 1.3 1.3 0 0 0 .392-.26q.193-.18.308-.538.116-.357.116-.85 0-1.177-.406-1.808-.405-.631-1.125-.631m-5.457-.29-.166-.13q-.704-.574-.989-.95a1.3 1.3 0 0 1-.284-.79q0-.499.333-.789t.843-.29c.347 0 .953-.151 1.53.12.411.208.891.219.988.319.057.057.065.397.065.443-.061.304-.525.22-.507.201 0 0-.345-.079-.428-.152 0 0-.404-.202-.424-.237-.269-.384-.812-.329-1.138-.329q-.704 0-.704.564 0 .242.263.53.264.286.924.797l.784.585q.608.435.989 1.07.387.675.386 1.304 0 .521-.136.954-.137.432-.368.727a2.3 2.3 0 0 1-.54.5 2.3 2.3 0 0 1-.647.298 2.6 2.6 0 0 1-.699.094q-.999 0-1.608-.645-.61-.644-.61-1.584 0-.37.134-.725.134-.354.35-.631a3.5 3.5 0 0 1 .504-.524 4.7 4.7 0 0 1 1.155-.73m.322.252q-1.584.785-1.584 2.16 0 .349.089.7.089.352.257.664.17.31.46.507.29.195.655.196.194 0 .362-.04a1.1 1.1 0 0 0 .366-.175q.195-.134.333-.354a2.1 2.1 0 0 0 .23-.607 3.8 3.8 0 0 0 .095-.902q0-.446-.258-.989a2.5 2.5 0 0 0-.655-.87zm-7.965 2.224q0-1.09.607-1.805.656-.768 1.724-.768.489 0 .886.148.398.147.656.392.258.244.435.572t.255.668q.078.342.078.696 0 .532-.178 1.015a2.2 2.2 0 0 1-.537.833q-.629.612-1.616.612a2.5 2.5 0 0 1-.838-.137 2 2 0 0 1-.653-.37 2.4 2.4 0 0 1-.73-1.179 2.6 2.6 0 0 1-.089-.677M15.12 3.28q-1.22 0-1.22 1.933 0 .35.081.712.08.362.247.717.166.354.478.58a1.19 1.19 0 0 0 1.128.145 1.3 1.3 0 0 0 .392-.26q.194-.18.309-.538.115-.357.115-.85 0-1.177-.405-1.808-.406-.631-1.125-.631M6.746 7.218q0-.194.116-.328a.4.4 0 0 1 .314-.134q.21 0 .293.113a.7.7 0 0 1 .115.306q.015.119.062.174.046.057.147.057.318 0 .516-.543.242-.698.242-2.207 0-.248-.003-.39a6 6 0 0 0-.013-.295 2 2 0 0 0-.027-.228 1 1 0 0 0-.054-.159.3.3 0 0 0-.083-.115.6.6 0 0 0-.124-.065.6.6 0 0 0-.16-.043 3 3 0 0 0-.218-.016.7.7 0 0 1-.204-.032q-.05-.021-.049-.091v-.22l.043-.022q.726.021 1.187.021h2.025l1.29-.021.031.021v.269q0 .075-.086.075l-.333.022q-.333.027-.402.094-.07.067-.07.378v3.024q0 .241.11.357t.384.137l.22.027q.037 0 .07.025a.07.07 0 0 1 .032.061v.253l-.021.021a50 50 0 0 0-1.246-.021l-1.209.021-.021-.021V7.47q0-.07.086-.086l.22-.026q.295-.032.4-.14t.105-.355v-2.9q0-.301-.089-.416-.088-.116-.384-.116h-.516q-.31 0-.392.226-.08.225-.08.918 0 1.719-.285 2.401-.193.457-.454.669-.26.212-.668.212-.365 0-.591-.188a.57.57 0 0 1-.226-.451m-3.228.612a3.9 3.9 0 0 1-1.27-.201 3.1 3.1 0 0 1-.991-.546 3.56 3.56 0 0 1-1.12-1.772A4 4 0 0 1 0 4.258q0-.854.306-1.592.305-.739.86-1.25Q2.186.483 3.529.482q.59 0 1.063.113.473.112.811.24.339.125.537.147.199 1.246.242 1.702-.204.108-.365.054a3.6 3.6 0 0 0-.287-.693 2.6 2.6 0 0 0-.446-.58 1.9 1.9 0 0 0-.701-.424A2.9 2.9 0 0 0 3.41.89q-.446 0-.903.244a2.9 2.9 0 0 0-.854.733Q1 2.674 1 4.048q0 .49.097.962.096.473.298.905t.491.758a2.15 2.15 0 0 0 1.622.712 3.2 3.2 0 0 0 1.37-.283q.601-.282 1.182-.92.16 0 .252.166a3.9 3.9 0 0 1-1.273 1.106q-.714.375-1.52.376Z"/></svg>