<svg xmlns="http://www.w3.org/2000/svg" width="120" height="18" fill="none"><path fill="#000" fill-rule="evenodd" d="M109.143 9.535c-.559 0-.737-.076-.636-.33l2.543-6.459h.051l2.466 6.789h-4.424Zm-2.822 5.187 1.474-3.687c.128-.33.28-.432.89-.432h5.289l1.551 4.297c.254.712-.102 1.017-1.068 1.093l-.712.05c-.127 0-.178.077-.178.204v.483l.026.051s2.491-.05 3.381-.05c.992 0 2.95.05 2.95.05l.076-.05v-.484c0-.127-.127-.203-.254-.203l-.28-.026c-1.017-.101-1.526-.483-1.881-1.474L112.372.763c-.203-.509-.33-.763-.686-.763-.382 0-.585.254-.865.915l-5.644 13.222c-.712 1.627-1.348 1.83-2.467 1.907-.127 0-.203.076-.203.203v.483l.051.051s1.627-.05 2.288-.05c.61 0 3.382.05 3.382.05l.051-.05v-.484a.2.2 0 0 0-.204-.203l-.737-.051c-.941-.076-1.271-.636-1.017-1.271ZM14.646 1.09c1.093.152.966.711.204 2.186L13.502 5.82l-.127-.127-1.246-2.568c-.686-1.45-.788-1.882.28-2.034.152-.153.152-.687 0-.84l-.656.02h-.006A43.71 43.71 0 0 1 8.335.268h-.024l-.32-.011L7.833.25c-.153.153-.127.687.025.84 1.094.152 1.297.508 2.136 2.313l2.136 4.552-2.822 5.771H9.18L4.527 3.124c-.636-1.45-.56-1.856 1.042-2.034.153-.153.153-.687 0-.84l-.906.022h-.006c-.677.016-1.203.03-1.91.03C2.07.301 1.652.29 1.095.274h-.004L.904.27.718.265.102.25c-.152.153-.127.687.026.84 1.345.117 1.485.454 2.108 1.945l.085.202.07.166 5.543 13.019c.152.38.33.584.585.584.28 0 .457-.203.61-.584l3.737-7.374 3.433 7.374c.127.38.33.584.585.584.28 0 .432-.203.61-.584l6-12.968.092-.202.033-.074c.467-1.046.848-1.901 2.393-2.088.152-.153.152-.687 0-.84l-.293.008-.551.015h-.003c-.56.016-.988.028-1.39.028-.386 0-.838-.01-1.442-.025h-.002L21.257.25c-.152.153-.152.687 0 .84 1.653.127 1.678.813 1.093 2.186l-4.83 10.45h-.128l-3.254-6.712 1.856-3.56c.635-1.17 1.195-2.161 2.517-2.364.152-.153.152-.687 0-.84h-.001c-.636.026-1.27.051-1.855.051-.384 0-.724-.01-1.178-.025h-.015L15.307.27a130.7 130.7 0 0 0-.66-.02c-.153.153-.153.687 0 .84Zm15.325 5.47c0-.509.28-.737 1.068-.814l.534-.05c.101 0 .152-.051.152-.128v-.534l-.025-.05s-1.958.05-2.644.05c-.789 0-2.797-.05-2.797-.05l-.026.05v.56c0 .076.077.101.178.101l.509.051c.788.077 1.093.255 1.093.814v8.467c0 .483-.254.89-1.093.966l-.509.05c-.101 0-.178.052-.178.153v.534l.051.051s1.983-.05 2.695-.05c.788 0 2.72.05 2.72.05l.026-.05v-.535c0-.101-.076-.152-.152-.152l-.534-.051c-.814-.076-1.068-.407-1.068-.966V6.56Zm7.884 5.34c-.381-.51-.788-.636-1.348-.636v3.763c0 .56.33.839 1.068.966l.28.05c.076.026.153.052.153.153v.534l-.026.051s-1.602-.05-2.365-.05c-.711 0-2.796.05-2.796.05l-.051-.05v-.535c0-.101.076-.152.178-.152l.508-.051c.763-.076 1.093-.483 1.093-.966V6.56c0-.56-.28-.712-1.093-.788l-.508-.051c-.102 0-.178-.026-.178-.102v-.585l.025-.05s2.085.05 2.873.05c.712 0 2.314-.05 2.314-.05l.026.05v.56c0 .076-.051.101-.153.127l-.28.05c-.788.153-1.068.28-1.068.789v3.84c.84 0 1.323-.433 2.441-1.628 1.017-1.119 1.806-2.06 1.806-2.543 0-.203-.23-.432-.738-.508-.102-.026-.152-.051-.152-.127v-.585l.025-.025s2.06.05 2.797.05c.66 0 1.78-.05 1.78-.05l.076.025v.585c0 .076-.076.127-.203.127h-.006c-.989.076-1.674.13-2.588 1.17L39.56 9.407c-.433.457-.585.737-.585.94 0 .153.101.28.229.433l3.839 4.627c.305.356.915.509 1.424.61l.127.026c.076.025.178.076.178.152v.534l-.077.026s-1.347-.026-2.059-.026c-.636 0-1.551.026-1.551.026l-.025-.026v-.305c0-.33-.026-.61-.382-1.017L37.855 11.9ZM49.25 6.56c0-.509.28-.737 1.068-.814l.534-.05c.102 0 .153-.051.153-.128v-.534l-.026-.05s-1.957.05-2.644.05c-.788 0-2.797-.05-2.797-.05l-.025.05v.56c0 .076.076.101.178.101l.508.051c.788.077 1.093.255 1.093.814v8.467c0 .483-.254.89-1.093.966l-.508.05c-.102 0-.178.052-.178.153v.534l.05.051s1.984-.05 2.696-.05c.788 0 2.72.05 2.72.05l.026-.05v-.535c0-.101-.077-.152-.153-.152l-.534-.051c-.814-.076-1.068-.407-1.068-.966V6.56Zm8.011-.84c-1.22 0-1.525.23-1.525.89v4.425c.508.203 1.144.229 1.652.229 1.526 0 2.263-.916 2.263-2.873 0-2.187-.991-2.67-2.39-2.67Zm-4.526 10.248c.789-.102 1.043-.331 1.043-.814V6.61c0-.788-.33-.814-1.526-.89-.152 0-.178-.076-.178-.127v-.585l.051-.025c.092 0 .25.002.446.007l.153.004.328.008h.004c.574.014 1.26.031 1.688.031.33 0 .727-.01 1.151-.022h.002a55.563 55.563 0 0 1 1.517-.028c3.61 0 4.272 1.78 4.272 3.101 0 1.526-.738 3.916-4.348 3.916-.636 0-1.145-.05-1.602-.254v3.407c0 .56.305.686 1.119.814l.508.076c.102.025.178.05.178.152v.534l-.025.051s-2.034-.05-2.823-.05c-.712 0-2.619.05-2.619.05l-.025-.05v-.535c0-.101.05-.127.153-.152l.533-.076Zm16.816.762c.762 0 2.262.051 2.262.051l.051-.05.509-2.925-.636-.076c-.305 1.322-1.017 2.136-2.314 2.136H67.01c-.458 0-.737-.483-.737-.966v-3.89h1.906c.662 0 .89.28.992.788l.127.56c0 .075.051.126.178.126h.432l.051-.05c-.017-.196-.04-.385-.062-.574a9.636 9.636 0 0 1-.09-1.181c0-.443.053-.938.102-1.39.019-.172.036-.338.05-.492 0-.05 0-.076-.05-.076h-.433c-.101 0-.152.051-.152.127l-.153.534c-.102.509-.28.814-.992.814h-1.906V6.509c0-.432.254-.61.737-.61h2.034c1.627 0 2.11 1.347 2.39 2.288l.636-.102c-.178-.966-.356-1.957-.382-3.05l-.05-.051s-1.806.05-2.569.05h-3.737c-.763 0-2.746-.05-2.746-.05l-.026.05v.585c0 .026 0 .076.153.102l.585.05c.712.052 1.017.153 1.017.738v8.39c0 .51-.23 1.018-1.017 1.094l-.585.05c-.127 0-.153.077-.153.128v.56l.026.05s1.754-.05 2.517-.05h4.45Zm3.963 0v-.534c0-.076.051-.152.153-.152l.585-.051c.763-.076 1.017-.305 1.017-1.093V6.51c0-.646-.17-.662-.959-.733l-.058-.005-.56-.051c-.101 0-.177-.051-.177-.127v-.56l.025-.05s2.237.05 2.695.05c.223 0 .813-.01 1.449-.022h.005a150.4 150.4 0 0 1 1.902-.028c4.246 0 6.331 2.644 6.331 6.025 0 4.45-3.152 5.772-5.975 5.772-1.253 0-2.072-.02-2.7-.034-.392-.01-.71-.017-1.012-.017-.763 0-2.695.051-2.695.051l-.025-.05Zm3.713-10.22v8.39c0 .712.178 1.144 2.11 1.144 2.797 0 4.373-1.043 4.373-4.602 0-2.645-.585-5.721-4.856-5.721-.992 0-1.627.152-1.627.788Zm13.713.05c0-.509.28-.737 1.067-.814l.534-.05c.102 0 .153-.051.153-.128v-.534l-.025-.05s-1.958.05-2.645.05c-.788 0-2.797-.05-2.797-.05l-.025.05v.56c0 .076.076.101.178.101l.508.051c.789.077 1.094.255 1.094.814v8.467c0 .483-.255.89-1.094.966l-.508.05c-.102 0-.178.052-.178.153v.534l.05.051s1.984-.05 2.696-.05c.788 0 2.72.05 2.72.05l.026-.05v-.535c0-.101-.076-.152-.153-.152l-.534-.051c-.813-.076-1.067-.407-1.067-.966V6.56Zm6.078 9.433c.788-.076 1.094-.305 1.094-.814v-3.432l-3.204-5.263c-.33-.534-.737-.687-1.475-.763-.076 0-.203-.026-.203-.127v-.56l.05-.05c.109 0 .52.01.951.023h.004c.48.013.984.027 1.13.027.128 0 2.263-.025 2.569-.05l.025.025v.585c0 .05-.05.127-.127.127l-.56.05c-.61.052-.508.28-.254.687l2.568 4.195h.051l2.365-4.195c.33-.61.33-.635-.28-.686l-.585-.051c-.076 0-.101-.076-.101-.127v-.585l.05-.025c.144 0 .587.013 1.019.026.412.012.815.024.939.024.178 0 1.348-.025 1.729-.05l.026.05v.56c0 .05 0 .101-.178.127l-.433.05c-.813.102-.94.255-1.322.941l-2.797 4.933v3.534c0 .56.28.738 1.068.814l.534.05c.102 0 .178.077.178.153v.534l-.051.051s-1.932-.05-2.72-.05c-.712 0-2.695.05-2.695.05l-.051-.05v-.535c0-.076.076-.152.178-.152l.508-.051ZM51.201 2.916a1.274 1.274 0 0 1-1.295-1.269A1.28 1.28 0 0 1 51.202.351c.702 0 1.296.567 1.296 1.296 0 .702-.594 1.269-1.296 1.269ZM29.439 1.647c0 .702.567 1.269 1.296 1.269.702 0 1.296-.567 1.296-1.269 0-.729-.594-1.296-1.296-1.296a1.28 1.28 0 0 0-1.296 1.296Zm65.949 1.269a1.274 1.274 0 0 1-1.296-1.269A1.28 1.28 0 0 1 95.387.351c.702 0 1.296.567 1.296 1.296 0 .702-.594 1.269-1.296 1.269Z" clip-rule="evenodd"/></svg>