<svg xmlns="http://www.w3.org/2000/svg" width="120" height="23"><path fill="#000" fill-rule="nonzero" d="m0 5.786 1.786 1.776v15.022L0 20.818V5.786m4.94 0 1.785 1.776v15.022L4.94 20.818V5.786m9.583 2.551h-1.51l-1.43-1.408h2.96c-.68-1-1.02-2.218-1.02-3.653 0-1.027.398-1.84 1.194-2.44.646-.482 1.517-.724 2.612-.724 1.102 0 2.048.123 2.837.368.918.279 1.833.768 2.745 1.47 1.578 1.217 2.793 2.921 3.643 5.112h-.52c-.109-.19-.29-.548-.541-1.072-.252-.578-.731-1.207-1.439-1.888-.898-.864-1.776-1.48-2.633-1.847a7.906 7.906 0 0 0-3.133-.663c-.973 0-1.775.218-2.408.653-.796.544-1.194 1.259-1.194 2.143 0 1.123.33 1.97.99 2.541h2.082l1.428 1.408h-2.97v13.226l-1.693-1.694V8.337m3.224 0L16.36 6.93H30.39l1.378 1.408h-3.44v13.226l-1.816-1.816v-3.664c-.51.34-1.095.64-1.755.898-.755.293-1.388.425-1.898.398-1.034-.054-1.929-.554-2.684-1.5-.599-.755-.898-1.646-.898-2.674.116-.53.313-.956.592-1.275 1.082-1.02 2.28-1.507 3.592-1.46 1.306.041 2.323.667 3.051 1.878v-4.01h-8.766m8.552 4.47c-.218-.463-.891-.695-2.02-.695-1.211 0-2.286.477-3.225 1.429-.456.463-.684.935-.684 1.418 0 .64.52.96 1.561.96 1.307 0 2.494-.551 3.562-1.653.537-.552.806-1.038.806-1.46m5.572-4.47h-1.51L28.93 6.93h2.96c-.68-1-1.021-2.218-1.021-3.653 0-1.027.398-1.84 1.194-2.44.646-.482 1.517-.724 2.612-.724 1.103 0 2.048.123 2.837.368.919.279 1.834.768 2.746 1.47 1.578 1.217 2.792 2.921 3.643 5.112h-.52c-.11-.19-.29-.548-.542-1.072-.251-.578-.731-1.207-1.439-1.888-.898-.864-1.775-1.48-2.632-1.847a7.906 7.906 0 0 0-3.133-.663c-.973 0-1.776.218-2.409.653-.796.544-1.194 1.259-1.194 2.143 0 1.123.33 1.97.99 2.541h2.082l1.429 1.408h-2.97v13.226L31.87 19.87V8.337m3.225 0L33.697 6.93H52.77l1.398 1.408h-9.44v3.93c.204-.184.354-.31.45-.378.23-.17.459-.286.683-.347.463-.13.895-.194 1.296-.194 1.041 0 1.902.364 2.582 1.092.68.721 1.02 1.609 1.02 2.663 0 .844-.299 1.64-.898 2.388-.449.579-1.153 1.062-2.112 1.45l-.745-1.45c.966-.449 1.612-.802 1.939-1.061.721-.565 1.082-1.184 1.082-1.857 0-.606-.283-1.153-.847-1.643-.36-.306-.922-.422-1.684-.347-.36.034-.803.272-1.327.714a8.27 8.27 0 0 0-1.439 1.602v6.664l-1.694-1.714v-2.97c-.292.327-.724.609-1.296.847-.571.231-1.085.347-1.54.347-.987 0-1.83-.337-2.532-1.01-.693-.674-1.04-1.504-1.04-2.49 0-1.007.33-1.837.99-2.49.66-.66 1.493-.99 2.5-.99 1.279 0 2.252.544 2.918 1.633v.622c-.598-.53-1.286-.796-2.061-.796-.993 0-1.762.194-2.306.582-.749.53-1.157 1.238-1.225 2.122-.04.558.112 1.007.46 1.347.285.273.68.409 1.183.409.721 0 1.548-.368 2.48-1.102.98-.776 1.47-1.518 1.47-2.225V8.337h-7.94m17.716 0L51.413 6.93h13.052l1.418 1.408h-3.46v13.226l-1.755-1.765v-4.215c-.557.333-1.387.5-2.49.5-1.081-.109-1.993-.599-2.735-1.47-.734-.85-1.102-1.823-1.102-2.918V8.337h-1.53m3.071 4.235c0 .586.16 1.116.48 1.592.367.545.827.817 1.378.817.591 0 1.109-.163 1.55-.49.15-.095.423-.333.817-.714.157-.177.344-.48.561-.909v-4.53h-4.786v4.234m10.073-4.235h-1.52L63.035 6.93h3.194a11.543 11.543 0 0 0-1.408-2.786c-.803-1.177-1.568-1.765-2.296-1.765-.715 0-1.283.292-1.705.877-.38.524-.571 1.157-.571 1.899 0 .462.146 1.006.439 1.632h-1.653a5.328 5.328 0 0 1-.347-1.898c0-1.218.251-2.18.755-2.888.585-.81 1.463-1.214 2.633-1.214 1.252 0 2.347.745 3.286 2.235.483.768 1.064 2.071 1.745 3.908h2.633l1.398 1.408h-3.49v13.206l-1.694-1.694V8.337m5.265 0h-1.51L68.281 6.93h2.96c-.68-1-1.02-2.218-1.02-3.653 0-1.055.458-1.885 1.377-2.49C72.394.262 73.35 0 74.466 0c2.115 0 4.081.7 5.898 2.102 2.095 1.62 3.568 3.273 4.419 4.96h-.52c-1.09-1.606-2.334-2.868-3.736-3.786-1.496-.98-3.228-1.52-5.194-1.623-1.136-.061-2.068.143-2.796.612-.769.504-1.153 1.212-1.153 2.123 0 1.123.33 1.97.99 2.541h2.132l1.429 1.408h-3.02v13.226L71.22 19.88V8.337m12.216 0h-8.99L73.046 6.93h14.501l1.419 1.408h-4.01v4.45l-4.777-.02c-1.286-.007-1.928.299-1.928.918 0 .367.102.68.306.939.217.279.507.418.867.418.286 0 .711-.044 1.276-.133.564-.095.99-.142 1.275-.142.98 0 1.82.415 2.521 1.245.673.789 1.01 1.683 1.01 2.683 0 .796-.398 1.487-1.194 2.072-.728.538-1.507.806-2.337.806-1.544 0-3.007-.7-4.388-2.102-.932-.946-1.901-2.316-2.908-4.113l.622-.357c.653 1.238 1.446 2.303 2.378 3.194 1.177 1.13 2.327 1.694 3.45 1.694.74 0 1.411-.241 2.01-.724.646-.51.97-1.126.97-1.847 0-.3-.103-.555-.307-.766a.998.998 0 0 0-.745-.316c-.306 0-.745.12-1.316.357-.565.232-.997.347-1.296.347-.776 0-1.46-.401-2.052-1.204-.183-.238-.591-.97-1.224-2.194-.252-.483-.378-.874-.378-1.174 0-.578.31-.962.929-1.153.347-.109.895-.163 1.643-.163h4.072V8.337m4.112 0L86.15 6.93h14.256l1.419 1.408h-3.48v13.226l-1.663-1.684v-3.704c-.824.946-1.878 1.418-3.164 1.418-1.585 0-2.796-.605-3.633-1.816-.544-.79-.816-1.687-.816-2.694.612 0 1.16-.157 1.643-.47.537-.347.854-.806.949-1.377.04-.136.061-.371.061-.704 0-.994-.374-1.725-1.122-2.195h-3.052m4.633 5.011c-.387.408-.734.694-1.04.857-.218.116-.531.228-.94.337.32 1 1 1.653 2.042 1.96.38.074.625.112.734.112 1.293 0 2.358-.796 3.194-2.388.313-.599.47-1.283.47-2.052V8.337h-4.184c.517.68.775 1.5.775 2.46s-.35 1.81-1.05 2.551m9.745-5.01h-1.52l-1.409-1.409h6.695l1.398 1.408h-3.49v13.226l-1.674-1.694V8.337m11.348-2.55 1.786 1.775v15.022l-1.786-1.766V5.786m4.94 0L120 7.562v15.022l-1.786-1.766V5.786"/></svg>