<svg xmlns="http://www.w3.org/2000/svg" width="120" height="14"><path fill="#000" fill-rule="nonzero" d="M.055 9.52c.013-.074.05-.11.109-.11l.411-.026c.301-.023.5-.067.599-.134.098-.066.17-.218.215-.455L2.757 1.74c.023-.114.035-.197.035-.247 0-.123-.044-.206-.13-.249-.087-.044-.252-.075-.493-.093l-.39-.028c-.054 0-.082-.032-.082-.095l.055-.28.041-.029c.839.019 1.404.028 1.695.028.187 0 .467-.005.84-.013.372-.01.637-.014.791-.014 1.679 0 2.518.547 2.518 1.643 0 .169-.018.34-.054.513-.07.366-.258.717-.565 1.058-.308.34-.658.6-1.05.783v.028c.506.16.903.4 1.19.722.288.32.432.73.432 1.228 0 .17-.016.34-.048.513a3.3 3.3 0 0 1-.235.736c-.107.236-.264.47-.472.702-.207.232-.45.433-.73.602-.28.169-.63.305-1.051.41a5.818 5.818 0 0 1-1.405.157c-.455 0-.856-.004-1.205-.012-.348-.01-.584-.015-.707-.015-.3 0-.87.01-1.71.028L0 9.788l.055-.268Zm3.121-4.386-.693 3.557c-.013.072-.02.138-.02.199 0 .159.073.274.22.343.146.068.413.102.802.102.493 0 .916-.046 1.268-.14.352-.094.631-.23.836-.41.205-.18.361-.374.466-.58.106-.204.188-.448.247-.731.036-.192.055-.363.055-.513 0-.548-.186-.989-.558-1.325-.372-.335-.936-.503-1.693-.503h-.93v.001Zm.65-3.335L3.27 4.655h.99c1.29 0 2.04-.536 2.254-1.609.036-.191.055-.355.055-.493 0-.244-.043-.46-.13-.645a1.002 1.002 0 0 0-.351-.425 1.65 1.65 0 0 0-.466-.216 1.935 1.935 0 0 0-.509-.067c-.237 0-.43.006-.578.018a2.86 2.86 0 0 0-.355.053.36.36 0 0 0-.206.119.51.51 0 0 0-.095.163c-.017.051-.034.133-.052.246Zm6.867 4.004.037.002c.31-.663.655-1.189 1.037-1.582.38-.392.744-.588 1.091-.588.237 0 .419.068.544.201a.651.651 0 0 1 .188.456c0 .2-.061.382-.182.544a.548.548 0 0 1-.455.243c-.141 0-.298-.098-.472-.295-.095-.113-.193-.17-.294-.17-.26 0-.861.85-1.804 2.553l-.38 1.676-.062.274-.063.28c-.016.07-.039.14-.068.214a.546.546 0 0 1-.1.168.48.48 0 0 1-.146.102.48.48 0 0 1-.209.044c-.356 0-.534-.126-.534-.377 0-.064.01-.135.027-.216.019-.08.04-.175.067-.284.027-.11.048-.202.062-.275l.801-3.482c.064-.26.096-.5.096-.718a.284.284 0 0 0-.064-.184.244.244 0 0 0-.188-.084l-.561-.04c-.1-.161-.106-.295-.014-.404.119-.014.275-.035.47-.062l.462-.065c.114-.015.242-.03.383-.04.141-.012.265-.017.369-.017a.28.28 0 0 1 .22.093c.054.063.082.15.082.26 0 .147-.076.57-.225 1.272l-.115.501Zm4.089 1.192c-.01.074-.013.232-.013.48 0 .597.091 1.016.277 1.255.184.24.448.359.79.359.337 0 .64-.071.907-.215.266-.143.598-.419.995-.824.15 0 .258.075.322.226-.415.533-.857.94-1.324 1.224-.468.283-.937.425-1.406.425a2.02 2.02 0 0 1-.843-.162 1.186 1.186 0 0 1-.533-.46 2.207 2.207 0 0 1-.267-.669 3.856 3.856 0 0 1-.083-.837c0-.365.043-.737.127-1.116.085-.378.222-.752.411-1.118.19-.368.415-.692.678-.975a3.098 3.098 0 0 1 2.262-.952c.925 0 1.388.326 1.388.979 0 .106-.003.192-.01.263-.007.07-.034.176-.083.315-.047.14-.116.26-.205.363a2.995 2.995 0 0 1-.403.369c-.18.144-.397.273-.65.387-.254.115-.58.232-.982.355-.402.123-.854.232-1.355.328Zm2.702-2.394c0-.197-.056-.335-.168-.414-.111-.08-.297-.12-.557-.12-.165 0-.325.034-.48.103-.154.067-.319.184-.492.348-.173.164-.34.411-.496.741a6.63 6.63 0 0 0-.414 1.202c.302-.036.59-.095.865-.175.276-.08.552-.188.828-.329.276-.138.497-.326.664-.56.167-.235.25-.5.25-.796Zm4.1.704-.642 2.746c-.105.456-.156.722-.156.799 0 .159.047.238.143.238.072 0 .197-.067.376-.2.178-.134.353-.302.525-.502.16 0 .266.08.321.24-.675.866-1.325 1.3-1.95 1.3-.383 0-.575-.154-.575-.46 0-.11.08-.54.24-1.294l.654-2.88c.087-.384.13-.62.13-.71a.294.294 0 0 0-.065-.189.243.243 0 0 0-.187-.087l-.561-.04c-.1-.161-.106-.296-.014-.404a59.693 59.693 0 0 1 .959-.123c.113-.014.246-.028.397-.042.15-.013.28-.019.383-.019.192 0 .288.099.288.297 0 .073-.012.173-.035.301-.024.128-.062.302-.114.521l-.118.508Zm-.438-3.032a.644.644 0 0 1-.2-.472c0-.182.067-.341.2-.475a.642.642 0 0 1 .471-.203c.183 0 .34.07.472.203.133.134.2.293.2.475 0 .183-.067.34-.2.472a.646.646 0 0 1-.472.199.642.642 0 0 1-.471-.199Zm3.3 3.531c-.065-.69-.107-1.068-.126-1.136-.04-.113-.102-.174-.184-.177-.083 0-.198.1-.346.3-.149.2-.295.442-.441.72a.444.444 0 0 1-.376-.193c.11-.318.244-.595.404-.824.16-.23.326-.406.5-.524.173-.12.339-.204.499-.257.16-.053.315-.079.466-.079.169 0 .29.104.366.31.023.078.04.185.052.322l.046.537.04.456.227 2.578.014.717.428-.533 1.259-1.752c.28-.378.421-.756.421-1.136 0-.118-.05-.273-.153-.465a1.154 1.154 0 0 1-.154-.54c0-.142.052-.26.157-.354a.532.532 0 0 1 .363-.14c.182 0 .337.077.465.232a.907.907 0 0 1 .191.596c0 .533-.294 1.216-.882 2.046L25.5 9.588c-.1.132-.183.227-.247.284a.307.307 0 0 1-.205.086c-.154 0-.239-.115-.253-.343l-.35-3.81Zm10.76-1.33-.865 3.554c-.033.479-.05.752-.05.822 0 .16.046.24.136.24.073 0 .2-.068.38-.202s.357-.303.53-.503c.16 0 .266.08.321.24-.675.867-1.325 1.3-1.95 1.3-.2 0-.337-.04-.413-.12a.475.475 0 0 1-.114-.339c0-.278.081-.71.243-1.294l.159-.54-.041-.027c-.28.41-.515.74-.71.988a6.24 6.24 0 0 1-.64.705 2.375 2.375 0 0 1-.697.48c-.23.098-.48.147-.75.147a.891.891 0 0 1-.67-.277c-.179-.185-.267-.464-.267-.837 0-.284.046-.599.137-.945l.616-2.354c.123-.465.185-.73.185-.794 0-.16-.048-.24-.143-.24-.078 0-.216.07-.414.205a3.065 3.065 0 0 0-.552.493c-.16 0-.266-.08-.321-.24.32-.41.667-.73 1.043-.958.377-.228.734-.34 1.07-.34.192 0 .325.04.399.118.072.08.108.196.108.346 0 .078-.014.185-.044.322-.03.136-.073.31-.13.52l-.12.445-.601 2.285a3.644 3.644 0 0 0-.124.897c0 .347.14.521.418.521.325 0 .666-.215 1.023-.646.357-.43.827-1.136 1.408-2.116l.386-1.55.08-.316.078-.317c.02-.08.05-.164.091-.253a.434.434 0 0 1 .165-.196.495.495 0 0 1 .253-.06h.589l-.09.374-.112.462Zm1.316 3.05c0-.347.044-.698.13-1.052a4.19 4.19 0 0 1 .414-1.043c.189-.34.415-.645.677-.909.263-.265.587-.48.972-.64a3.186 3.186 0 0 1 1.256-.245c.333 0 .621.048.865.144.245.097.435.219.575.365.14.148.25.327.332.54.082.214.136.415.161.605.025.19.038.4.038.63 0 .805-.205 1.551-.616 2.242-.41.688-.928 1.19-1.553 1.503-.347.174-.778.26-1.293.26-.339 0-.632-.061-.883-.185a1.591 1.591 0 0 1-.575-.439 2.038 2.038 0 0 1-.318-.614 3.057 3.057 0 0 1-.15-.62 4.455 4.455 0 0 1-.032-.542Zm1.163-.108c0 .345.04.656.12.932.08.276.181.488.304.638.124.152.248.266.373.343a.678.678 0 0 0 .353.115c.565 0 1.017-.293 1.355-.88.205-.36.354-.784.449-1.272.093-.487.14-.914.14-1.278 0-.51-.085-.935-.254-1.273-.109-.218-.222-.377-.339-.477-.116-.1-.273-.15-.469-.15-.374 0-.701.11-.981.331-.281.221-.493.507-.637.857a5.457 5.457 0 0 0-.414 2.114Zm9.848-.42a4.9 4.9 0 0 0-.014.478c0 .598.093 1.017.277 1.256.185.24.449.359.79.359.338 0 .64-.071.908-.215.266-.143.598-.419.995-.824.15 0 .258.075.322.226-.415.533-.857.94-1.324 1.224-.468.283-.937.425-1.406.425a2.02 2.02 0 0 1-.843-.162 1.19 1.19 0 0 1-.534-.46 2.192 2.192 0 0 1-.266-.669 3.85 3.85 0 0 1-.083-.837c0-.365.042-.737.127-1.116.084-.378.222-.752.41-1.118.19-.368.416-.692.678-.975a2.99 2.99 0 0 1 .983-.688 3.093 3.093 0 0 1 1.28-.264c.925 0 1.388.326 1.388.979 0 .106-.003.192-.01.263-.007.07-.034.176-.082.315-.048.14-.117.26-.205.363a3.04 3.04 0 0 1-.405.369c-.18.144-.397.273-.65.387-.253.115-.58.232-.981.355-.401.123-.854.232-1.355.328ZM50.235 4.6c0-.197-.055-.335-.167-.414-.112-.08-.297-.12-.558-.12-.164 0-.324.034-.48.103-.154.067-.319.184-.491.348-.174.164-.34.411-.497.741a6.585 6.585 0 0 0-.414 1.202c.302-.036.59-.095.866-.175a4.72 4.72 0 0 0 .828-.329c.276-.138.497-.326.664-.56.166-.235.25-.5.25-.796Zm6.718 3.448c-.107.466-.161.732-.161.801 0 .159.047.238.143.238.073 0 .2-.067.38-.2.18-.135.357-.303.53-.504.16 0 .267.081.322.24-.675.866-1.339 1.301-1.99 1.301-.382 0-.573-.153-.573-.459 0-.205.079-.637.236-1.294l.536-2.237c.117-.52.176-.836.176-.95 0-.201-.04-.336-.12-.406-.079-.068-.2-.102-.364-.102-.432 0-1.158.643-2.177 1.93l-.507 2.286-.057.259c-.024.11-.044.199-.059.26a4.715 4.715 0 0 1-.066.253.946.946 0 0 1-.099.246.477.477 0 0 1-.15.15.403.403 0 0 1-.225.062c-.402 0-.603-.125-.603-.376 0-.04.01-.102.028-.182a42.7 42.7 0 0 0 .072-.313c.03-.129.05-.22.064-.274l.806-3.487c.084-.388.125-.627.125-.719 0-.07-.022-.13-.064-.184a.244.244 0 0 0-.189-.084l-.561-.04c-.1-.16-.106-.295-.014-.404.988-.123 1.578-.184 1.772-.184.192 0 .288.1.288.297 0 .054-.012.134-.038.236a3.8 3.8 0 0 1-.085.297 4.185 4.185 0 0 0-.102.39c-.037.165-.066.296-.086.392l-.028.124.01.029c.61-.716 1.102-1.196 1.476-1.44.374-.245.754-.367 1.14-.367.617 0 .925.375.925 1.123 0 .174-.058.527-.174 1.06l-.537 2.232Zm4.096 1.875a1.615 1.615 0 0 1-1.326-.67c-.285-.402-.427-.92-.427-1.554 0-.566.09-1.102.27-1.611.179-.51.415-.941.705-1.298.292-.355.63-.637 1.01-.845a2.44 2.44 0 0 1 1.176-.311c.313 0 .583.045.807.134.223.089.389.207.498.355.106.149.181.295.225.438.043.143.065.294.065.449 0 .223-.07.384-.205.48a.87.87 0 0 1-.52.15.327.327 0 0 1-.275-.138.51.51 0 0 1-.102-.314c0-.114.023-.214.07-.295a.518.518 0 0 0 .066-.266c0-.208-.062-.352-.188-.435a.711.711 0 0 0-.401-.128c-.567 0-1.052.303-1.458.91-.405.607-.607 1.412-.607 2.416 0 .388.029.677.086.87.057.192.145.364.264.52.196.251.433.376.707.376.242 0 .504-.062.786-.185.28-.124.548-.324.798-.602.059 0 .12.028.181.083a.416.416 0 0 1 .127.184c-.438.475-.818.807-1.138.999-.32.193-.718.288-1.194.288Zm5.986-4.619-.64 2.746c-.106.456-.157.722-.157.799 0 .159.048.238.143.238.072 0 .198-.067.376-.2.178-.134.353-.302.525-.502.16 0 .266.08.321.24-.675.866-1.326 1.3-1.95 1.3-.384 0-.575-.154-.575-.46 0-.11.08-.54.24-1.294l.655-2.88c.086-.384.13-.62.13-.71a.297.297 0 0 0-.066-.189.24.24 0 0 0-.188-.087l-.561-.04c-.1-.161-.105-.296-.013-.404a62.973 62.973 0 0 1 .958-.123c.114-.014.247-.028.398-.042.15-.013.278-.019.385-.019.19 0 .286.099.286.297 0 .073-.01.173-.034.301-.024.127-.062.302-.113.521l-.12.508Zm-.438-3.032a.646.646 0 0 1-.199-.472c0-.182.066-.341.2-.475a.645.645 0 0 1 .472-.203c.182 0 .34.07.472.203a.657.657 0 0 1 .199.475c0 .183-.067.34-.199.472a.65.65 0 0 1-.472.199.645.645 0 0 1-.473-.199Zm2.095 6.508 1.547-6.884c.064-.287.096-.52.096-.697 0-.146-.024-.248-.071-.309-.048-.06-.124-.089-.223-.089l-.438-.028c-.046 0-.07-.022-.07-.067l.042-.337c.287-.017.64-.067 1.057-.146.418-.08.72-.154.907-.223.115 0 .171.048.171.143l-.355 1.472-1.017 4.365c.22 0 .495-.143.828-.433l.56-.481c.507-.454.963-.805 1.37-1.056.406-.251.72-.376.944-.376.457 0 .685.164.685.492a.636.636 0 0 1-.23.497c-.152.134-.29.2-.414.2a.917.917 0 0 1-.437-.098.734.734 0 0 0-.349-.1c-.137 0-.307.066-.51.2a8.064 8.064 0 0 0-.837.672l-.725.653v.054c.113.032.207.065.28.103.072.035.14.09.2.163.063.073.11.137.14.193.034.054.084.152.152.293.05.1.154.339.312.714.158.375.308.708.455.994a.705.705 0 0 0 .044.092l.048.092.041.08c.02.04.036.064.048.079l.05.062a.359.359 0 0 0 .117.095.187.187 0 0 0 .076.027.453.453 0 0 0 .083.007c.078 0 .183-.062.315-.185a3.09 3.09 0 0 0 .41-.485c.073 0 .13.013.17.04a1.2 1.2 0 0 1 .146.137c-.466.812-.938 1.219-1.416 1.219a.955.955 0 0 1-.723-.329c-.203-.22-.423-.588-.66-1.11-.086-.19-.2-.499-.342-.923-.142-.424-.258-.716-.348-.876-.083-.151-.176-.226-.281-.226a.885.885 0 0 0-.314.052l-.492 2.275a4.49 4.49 0 0 1-.06.293l-.074.322c-.012.064-.04.145-.082.244a.432.432 0 0 1-.169.212.477.477 0 0 1-.257.064c-.21 0-.36-.031-.446-.095-.087-.063-.13-.157-.13-.28 0-.04.01-.101.03-.179.018-.077.046-.18.08-.311.032-.133.052-.223.066-.277Zm9.568-7.166-1.434 6.39c-.108.563-.161.857-.161.885 0 .132.056.199.17.199.096 0 .26-.082.497-.246a3.22 3.22 0 0 0 .64-.596c.14 0 .244.08.307.24-.548.958-1.257 1.438-2.126 1.438-.214 0-.365-.064-.458-.192a.733.733 0 0 1-.138-.438c0-.2.065-.593.199-1.178l1.389-6.22a3.49 3.49 0 0 0 .096-.697c0-.146-.025-.248-.072-.309-.047-.059-.12-.089-.219-.089l-.422-.028c-.052 0-.077-.022-.077-.067l.048-.337a8.274 8.274 0 0 0 1.044-.146c.411-.08.71-.154.896-.223.115 0 .172.048.172.143-.097.375-.213.866-.35 1.471Zm9.312 1.294c.22 0 .377.032.468.097.091.062.138.159.138.288 0 .05-.013.124-.035.222a44.278 44.278 0 0 1-.142.62c.54-.334 1.07-.501 1.586-.501.332 0 .62.053.857.156.239.107.423.258.55.456.129.199.222.418.278.66.056.242.084.518.084.827 0 .302-.052.636-.156 1.003-.106.368-.264.74-.475 1.114a5.845 5.845 0 0 1-.734 1.025 3.32 3.32 0 0 1-1 .757c-.39.194-.794.292-1.213.292-.373 0-.703-.153-.989-.457l-.587 2.584a.367.367 0 0 0-.015.243c.023.07.046.123.07.163a.258.258 0 0 0 .119.097 1.004 1.004 0 0 0 .284.079l.268.042c.054.013.081.049.081.106v.272l-.027.026a61.617 61.617 0 0 0-1.515-.028c-.153 0-.352.007-.594.017-.243.013-.45.022-.618.032l-.252.02-.028-.026v-.26c0-.053.047-.088.143-.106l.26-.041c.23-.036.398-.103.51-.198.111-.098.19-.245.236-.444L86.548 5.6c-.466.386-.8.716-1.006.987-.238 0-.384-.099-.438-.295.182-.229.398-.452.65-.67.25-.217.57-.467.955-.75l.182-.828.036-.159.023-.104.058-.267c.015-.066.038-.143.071-.23a.798.798 0 0 1 .106-.201.495.495 0 0 1 .387-.175Zm-5.052.726c.333 0 .623.048.866.144.244.097.435.219.575.365.14.148.25.327.332.54.082.214.135.415.161.605.024.19.037.4.037.63 0 .805-.205 1.551-.616 2.242-.411.688-.929 1.19-1.554 1.503-.347.174-.778.26-1.294.26-.338 0-.631-.061-.882-.185a1.606 1.606 0 0 1-.575-.439 2.037 2.037 0 0 1-.318-.614 3.1 3.1 0 0 1-.15-.62 4.466 4.466 0 0 1 .1-1.594 4.28 4.28 0 0 1 1.09-1.952c.263-.264.587-.48.973-.64a3.178 3.178 0 0 1 1.255-.245Zm6.62.644c-.162 0-.329.027-.498.083-.17.055-.306.112-.408.17a7.15 7.15 0 0 0-.376.231l-.93 4.092c.291.393.636.59 1.037.59.267 0 .526-.09.773-.272a2.55 2.55 0 0 0 .634-.687c.176-.275.328-.575.46-.9.132-.323.228-.627.293-.913.063-.284.096-.522.096-.713 0-1.12-.361-1.68-1.08-1.68Zm-6.872-.165c-.375 0-.7.11-.981.331-.281.221-.493.507-.638.857-.144.35-.248.702-.315 1.055-.066.356-.1.707-.1 1.059 0 .345.04.656.122.932.08.276.18.488.303.638.123.152.248.266.373.343a.684.684 0 0 0 .353.115c.566 0 1.018-.293 1.355-.88.205-.36.355-.784.448-1.272.094-.487.141-.914.141-1.278 0-.51-.084-.935-.253-1.273-.11-.218-.222-.377-.34-.477-.115-.1-.271-.15-.468-.15Zm11.16 2.881a5.478 5.478 0 0 0-.012.48c0 .597.092 1.016.277 1.255.186.24.449.359.79.359.339 0 .64-.071.908-.215.266-.143.598-.419.996-.824.15 0 .257.075.322.226-.416.533-.857.94-1.325 1.224-.467.283-.936.425-1.406.425-.329 0-.609-.055-.842-.162a1.176 1.176 0 0 1-.533-.46 2.229 2.229 0 0 1-.268-.669 3.854 3.854 0 0 1-.083-.837c0-.365.043-.737.128-1.116.084-.378.222-.752.41-1.118.19-.368.416-.692.678-.975a3.094 3.094 0 0 1 2.262-.952c.926 0 1.389.326 1.389.979 0 .106-.004.192-.011.263a1.57 1.57 0 0 1-.084.315c-.047.14-.116.26-.205.363a2.893 2.893 0 0 1-.404.369 3.01 3.01 0 0 1-.65.387 8.42 8.42 0 0 1-.981.355 12.9 12.9 0 0 1-1.355.328Zm2.705-2.394c0-.197-.057-.335-.168-.414-.112-.08-.298-.12-.558-.12a1.16 1.16 0 0 0-.479.103c-.154.067-.32.184-.493.348-.172.164-.339.411-.495.741a6.628 6.628 0 0 0-.414 1.202c.3-.036.59-.095.865-.175.276-.08.552-.188.828-.329.277-.138.498-.326.665-.56.166-.235.249-.5.249-.796Zm5.645 3.558-.048-.028c-.43.625-.82 1.081-1.17 1.366-.35.285-.703.428-1.06.428-.289 0-.534-.067-.732-.199a1.163 1.163 0 0 1-.437-.528 2.994 2.994 0 0 1-.193-.637 3.689 3.689 0 0 1-.056-.65c0-.528.109-1.059.325-1.59.217-.53.49-.991.82-1.379.33-.388.699-.702 1.106-.944.408-.243.796-.364 1.164-.364.255 0 .48.073.675.22.193.146.335.33.427.554h.013l.52-2.512c.07-.342.103-.575.103-.698 0-.145-.023-.247-.071-.308-.048-.06-.122-.09-.224-.09l-.437-.027c-.046 0-.068-.022-.068-.067l.04-.337a8.57 8.57 0 0 0 1.059-.147A6.34 6.34 0 0 0 104.44 0c.108 0 .164.048.164.143l-.349 1.472-1.485 6.488c-.095.464-.143.727-.143.786 0 .073.018.124.058.154.038.03.077.045.113.045.164 0 .427-.25.787-.747a.3.3 0 0 1 .153.038.283.283 0 0 1 .09.072c.015.022.041.062.079.116-.412.903-1.008 1.355-1.794 1.355-.215 0-.364-.063-.448-.188a.77.77 0 0 1-.128-.441c0-.137.046-.392.138-.767l.103-.367Zm-.001-1.089c.43-.793.644-1.363.644-1.71 0-.274-.084-.546-.256-.813-.17-.27-.38-.405-.626-.405-.31 0-.614.116-.909.345-.295.23-.546.52-.752.87a5.234 5.234 0 0 0-.498 1.149c-.125.418-.188.81-.188 1.18 0 1.064.183 1.595.55 1.595.264 0 .58-.204.946-.613.365-.408.727-.941 1.089-1.598Zm11.213-3.395c.193 0 .288.095.288.284 0 .077-.005.18-.012.312-.01.13-.038.307-.087.527-.04.166-.07.303-.095.412l-.291 1.315-.363 1.633c-.105.472-.232.952-.384 1.433a8.353 8.353 0 0 1-.48 1.225 6.113 6.113 0 0 1-.557.908c-.205.27-.429.471-.674.606-.243.135-.509.201-.797.201-.328 0-.602-.059-.822-.176-.218-.115-.328-.28-.328-.495a.414.414 0 0 1 .412-.43c.155-.001.285.031.39.095a.62.62 0 0 1 .223.205.953.953 0 0 0 .161.205.299.299 0 0 0 .219.096c.168 0 .35-.108.543-.328.195-.22.36-.596.497-1.13l.358-1.693.33-1.56.429-2.029c.085-.412.13-.65.13-.719a.303.303 0 0 0-.067-.192.24.24 0 0 0-.187-.088l-.561-.042c-.101-.16-.106-.294-.014-.404.1-.012.258-.032.469-.056l.49-.058a10.19 10.19 0 0 1 .78-.057Zm-4.553-.039c.926 0 1.388.326 1.388.979 0 .106-.003.192-.01.263-.006.07-.034.176-.082.315-.048.14-.117.26-.206.363a2.96 2.96 0 0 1-.404.369 3 3 0 0 1-.65.387 8.461 8.461 0 0 1-.982.355 12.91 12.91 0 0 1-1.354.328 4.9 4.9 0 0 0-.013.48c0 .597.092 1.016.277 1.255.184.24.447.359.79.359.337 0 .64-.071.906-.215.267-.143.6-.419.996-.824.152 0 .259.075.321.226-.414.533-.855.94-1.324 1.224-.468.283-.937.425-1.405.425-.33 0-.61-.055-.842-.162a1.188 1.188 0 0 1-.534-.46 2.2 2.2 0 0 1-.267-.669 3.858 3.858 0 0 1-.082-.837c0-.365.042-.737.127-1.116.085-.378.222-.752.41-1.118.189-.368.415-.692.678-.975a3.098 3.098 0 0 1 2.261-.952Zm-.321.43c-.165 0-.325.035-.48.104a1.771 1.771 0 0 0-.492.348c-.174.164-.34.411-.496.741a6.542 6.542 0 0 0-.414 1.202c.301-.036.59-.095.866-.175.274-.08.55-.188.827-.329.276-.138.497-.326.663-.56.168-.235.25-.5.25-.796 0-.197-.055-.335-.168-.414-.111-.08-.297-.12-.556-.12Zm4.926-2.943c.182 0 .34.07.473.203a.656.656 0 0 1 .198.475c0 .183-.066.34-.198.472a.65.65 0 0 1-.473.199.643.643 0 0 1-.472-.199.646.646 0 0 1-.199-.472c0-.182.067-.341.199-.475a.641.641 0 0 1 .472-.203Zm5.81 2.595c.082.022.174.035.276.037.103.002.232 0 .387-.004.156-.004.261-.007.316-.007l-.965 4.36c-.095.463-.143.727-.143.785 0 .074.018.125.057.154.039.03.077.045.114.045.163 0 .426-.249.786-.747a.3.3 0 0 1 .154.038.297.297 0 0 1 .089.072l.077.116c-.41.904-1.01 1.355-1.798 1.355-.379 0-.57-.21-.57-.63 0-.204.047-.46.139-.766l.184-.588-.027-.027c-.91 1.341-1.704 2.011-2.381 2.011-.895 0-1.342-.63-1.342-1.888 0-.529.114-1.067.341-1.613a5.337 5.337 0 0 1 .857-1.42c.344-.4.725-.73 1.144-.984.42-.255.812-.384 1.182-.384.247.001.621.029 1.123.085Zm-.707 2.997c.107-.266.2-.596.283-.994.081-.396.135-.727.163-.99l.048-.398a1.587 1.587 0 0 0-.868-.268c-.308 0-.615.126-.924.376a3.476 3.476 0 0 0-.793.938 5.896 5.896 0 0 0-.534 1.218c-.137.437-.206.841-.206 1.211 0 .9.206 1.349.619 1.349.228 0 .568-.251 1.02-.75a8.668 8.668 0 0 0 1.192-1.692Zm-64.92 5.361c.528-.077 1.118-.373 1.118-.961 0-.27-.142-.49-.309-.63l.848-.18c.18.128.36.424.36.757 0 1.014-.988 1.477-1.888 1.554l-.128-.54Z"/></svg>