<svg xmlns="http://www.w3.org/2000/svg" width="120" height="21"><path fill="#000" fill-rule="nonzero" d="M6.89 0c4.959 0 5.732 2.353 5.732 4.165 0 1.47-1.197 2.859-2.531 3.545v.054c2.319.678 4.104 2.164 4.104 4.763 0 2.324-1.414 5.033-6.717 5.033-2.373 0-2.746-.055-3.893-.055-1.358 0-2.16.027-3.465.055-.16-.163-.16-.731 0-.893 1.866-.081 2.319-.217 2.319-2.462V3.355C2.439 1.11 1.986.975.12.894-.04.732-.04.163.12 0c1.333.026 2.106.054 3.439.054C4.704.055 5.958 0 6.889 0ZM4.704 7.602h1.974c2.21 0 3.784-.812 3.784-3.11 0-2.76-1.946-3.572-3.438-3.572-2.32 0-2.32.271-2.32 1.165v5.517Zm0 7.25c0 .893.347 1.814 2.212 1.814 4.052 0 4.798-1.65 4.798-3.626 0-2.434-1.52-4.518-5.17-4.518h-1.84v6.33ZM21.65 16.91c.12.112.12.518 0 .633-1-.02-1.58-.038-2.58-.038-1.02 0-1.62.02-2.6.038-.119-.114-.119-.52 0-.633 1.401-.06 1.74-.154 1.74-1.75V7.458c0-1.596-.339-1.691-1.74-1.749-.119-.115-.119-.52 0-.635 1.002.021 1.582.04 2.58.04 1.02 0 1.62-.021 2.6-.04.12.115.12.519 0 .635-1.4.059-1.74.152-1.74 1.75v7.703c0 1.595.34 1.692 1.74 1.749Zm2.22.23c0-.096.06-.153.14-.153l.541-.038c.84-.061 1.08-.27 1.08-.806V6.48c0-.577-.3-.75-1.08-.808l-.52-.037c-.08 0-.16-.059-.16-.154v-.364l.041-.038c1 .02 1.6.038 2.6.038.999 0 1.58-.02 2.56-.038l.04.038v.364c0 .098-.06.154-.16.154l-.519.037c-.8.061-1.099.27-1.099.808v3.994c.72 0 1.619-.02 2.099-.287 1.18-.614 1.46-1.845 1.64-2.92.2-1.19.762-2.267 2.34-2.267 1.06 0 1.42.557 1.42.999 0 .558-.461.769-.881.769-.26 0-.54-.096-.74-.288-.22-.213-.38-.31-.64-.31-.598 0-.736.636-.84 1.192-.22 1.19-.64 2.842-2.16 3.381v.097c1.379 0 2.16.825 2.698 2.17 1.042 2.593 2.06 3.9 2.76 3.957l.32.02c.1 0 .16.059.16.153v.365l-.021.038-1.581-.02c-1.56-.02-2.28-1.576-3.14-3.688-.782-1.92-1.16-2.555-3.44-2.555v4.861c0 .575.3.746 1.1.806l.519.038c.08 0 .16.059.16.153v.365l-.04.038c-.96-.038-1.54-.038-2.54-.038s-1.64 0-2.619.038l-.04-.038.002-.363Zm19.06-.23c.119.112.119.518 0 .633-1.001-.02-1.582-.038-2.581-.038-1.019 0-1.619.02-2.599.038-.121-.114-.121-.52 0-.633 1.399-.06 1.738-.154 1.738-1.75V7.458c0-1.596-.34-1.691-1.738-1.749-.121-.115-.121-.52 0-.635 1 .021 1.58.04 2.579.04 1.02 0 1.62-.021 2.6-.04.12.115.12.519 0 .635-1.4.059-1.74.152-1.74 1.75v7.703c0 1.595.34 1.692 1.74 1.749ZM58.385 5.077c.12.114.12.518 0 .633-1.4.06-1.741.153-1.741 1.75v7.704c0 1.593.34 1.69 1.741 1.749.12.113.12.518 0 .633-.98-.02-1.581-.038-2.6-.038-.999 0-1.58.02-2.579.038-.12-.114-.12-.519 0-.633 1.4-.059 1.74-.155 1.74-1.75V7.307c0-1.19-.44-1.42-.92-1.42h-3.94c-.48 0-.92.228-.92 1.42v7.858c0 1.593.34 1.69 1.741 1.749.12.113.12.518 0 .633-1-.02-1.58-.038-2.58-.038-1.019 0-1.62.02-2.598.038-.121-.114-.121-.519 0-.633 1.398-.059 1.74-.155 1.74-1.75V7.46c0-1.594-.34-1.69-1.74-1.749-.121-.114-.121-.518 0-.633 1 .02 2.12.038 2.579.038h7.5c.538 0 1.578-.02 2.577-.038Zm2.594 10.045c0-.383.181-.749.68-.749.58 0 .88.52 1.139 1.231.28.768 1.081 1.42 2.6 1.42 2.96 0 4.399-2.266 4.6-5.3a4.628 4.628 0 0 0-2-.424c-1.16 0-1.74.614-3.08.614-1.178 0-2.44-.557-2.44-1.037 0-.155.101-.23.181-.23.16 0 .48.308 1.24.308 1.18 0 2.04-.73 3.3-.73.261 0 1.58.23 2.8.884l.02-.02c0-4.09-2.298-5.512-3.878-5.512-2.76 0-3.9 1.554-4.42 3.207l-.601-.076c.2-1 .36-1.941.44-2.979 1.14-.06 1.94-.863 4.479-.863 3.318 0 5.719 2.38 5.719 6.397 0 3.553-1.98 6.435-6.277 6.435-1.942-.001-4.502-1.154-4.502-2.576Zm15.08-3.4c.438-2.19.68-4.169.68-5.378 0-.404-.182-.603-.7-.652l-.6-.059c-.1 0-.16-.04-.16-.115v-.403l.04-.038s1.4.038 2 .038h5.219c.598 0 2.18-.038 2.18-.038l.04.038v.364c0 .115-.08.148-.16.154l-.581.037c-.643.043-.74.288-.74.98v9.356c0 .711.45.922.801.98.434.072.589.136.6.365l.14 2.843c-.54 0-.54.02-.54.02-.24-1.075-.96-2.708-2.56-2.708h-5.8c-1.66 0-2.179 1.71-2.4 2.708l-.54-.02.14-2.843c.014-.23.224-.337.422-.365.39-.059.71-.105 1-.385.52-.5.878-1.883 1.519-4.88Zm2.319-5.84c-.54 0-.74.27-.78.75-.161 1.94-.48 3.937-.72 5.244-.439 2.247-.939 4.149-.939 4.552 0 .229.26.327.54.327h4.38c.48 0 .72-.06.72-.769V6.63c0-.596-.12-.748-.74-.748H78.38Zm10.526 1.576c0-1.595-.34-1.69-1.74-1.749-.12-.114-.12-.518 0-.633.999.02 1.58.038 2.578.038 1.02 0 1.62-.02 2.6-.038.12.114.12.518 0 .633-1.399.06-1.74.153-1.74 1.75v2.881h1.76c4.38 0 4.899 1.94 4.899 3.65 0 2.557-1.73 3.554-5.56 3.554-.72 0-1.36-.038-1.94-.038-1.018 0-1.62.02-2.598.038-.122-.114-.122-.519 0-.633 1.398-.059 1.74-.155 1.74-1.75V7.459Zm6.498 6.531c0-1.152-.739-2.882-3.299-2.882h-1.5v4.515c0 .634.181 1.288 1.139 1.288 3.043 0 3.66-1.73 3.66-2.92Zm7.34 2.92c.12.113.12.52 0 .634-1-.02-1.58-.038-2.579-.038-1.019 0-1.62.02-2.6.038-.12-.114-.12-.52 0-.633 1.4-.06 1.741-.154 1.741-1.75V7.458c0-1.596-.34-1.691-1.741-1.749-.12-.115-.12-.52 0-.635 1 .021 1.581.04 2.58.04 1.02 0 1.62-.021 2.6-.04.12.115.12.519 0 .635-1.4.059-1.74.152-1.74 1.75v7.703c0 1.595.34 1.692 1.74 1.749Zm2.409.08c0-.135.079-.215.185-.215l.24-.027c.852-.107 2.174-1.58 3.546-5.196.666-1.758 1.465-2.436 2.185-2.867v-.081c-1.812-.27-3.97-1.624-3.97-4.383 0-1.867.906-4.193 5.863-4.193.933 0 2.506.026 3.387.026.825 0 3.412-.026 3.412-.026v.568c0 .107-.054.187-.187.187l-.8.055c-1.12.081-1.414.272-1.414 1.19v13.5c0 .813.349 1.111 1.44 1.192l.72.056c.107 0 .214.08.214.216v.514l-.054.055s-2.32-.055-3.358-.055c-.96 0-3.438.055-3.438.055l-.054-.055v-.514c0-.136.08-.216.214-.216l.693-.056c1.12-.086 1.464-.433 1.464-1.191v-6.79c-2.823 0-3.357.784-4.476 3.653-1.147 2.936-2.133 5.111-4.026 5.14l-1.759.026-.026-.054v-.513h-.001Zm8.208-9.279h2.08V1.95c0-.895-.106-.975-2.427-.975-1.493 0-3.519.432-3.519 2.948.002 2.867 1.654 3.787 3.866 3.787Z"/></svg>