<svg xmlns="http://www.w3.org/2000/svg" width="146" height="23" fill="none"><path fill="#1F1A17" d="M35.462 21.666v.408h-6.566v-.409h.544c.632 0 1.09-.181 1.376-.544.181-.235.274-.806.274-1.706v-9.71c0-.76-.05-1.263-.147-1.505-.077-.186-.231-.345-.463-.477a2.171 2.171 0 0 0-1.04-.265h-.544v-.412h6.566v.412h-.556c-.624 0-1.079.182-1.364.541-.19.238-.286.806-.286 1.706v9.71c0 .76.05 1.263.147 1.505.077.186.235.345.474.477.324.178.667.269 1.03.269h.555Zm7.475-7.925 5.648 5.508c.925.907 1.716 1.528 2.37 1.857.656.329 1.312.514 1.967.56v.408h-7.286v-.409c.435 0 .751-.071.944-.219.193-.144.29-.303.29-.48a1.06 1.06 0 0 0-.108-.477c-.074-.14-.309-.4-.706-.787l-5.29-5.129v4.842c0 .76.05 1.263.15 1.505.074.186.232.345.475.477.324.178.663.269 1.026.269h.52v.408H36.41v-.409h.54c.632 0 1.09-.181 1.38-.544.181-.235.27-.806.27-1.706v-9.71c0-.76-.05-1.267-.147-1.517-.077-.177-.23-.333-.462-.465a2.172 2.172 0 0 0-1.041-.265h-.54v-.412h6.527v.412h-.52a2.21 2.21 0 0 0-1.026.254.95.95 0 0 0-.486.533c-.092.235-.139.722-.139 1.46v4.6c.155-.14.667-.61 1.55-1.407 2.236-2.009 3.59-3.352 4.056-4.021.2-.295.305-.556.305-.776 0-.17-.081-.321-.24-.45-.157-.128-.423-.193-.801-.193h-.351v-.412h5.625v.412a3.335 3.335 0 0 0-.902.133c-.27.08-.602.238-.995.469-.39.234-.871.609-1.446 1.127-.166.147-.929.904-2.294 2.27l-2.336 2.284Zm16.932 7.925v.408h-6.565v-.409h.543c.633 0 1.091-.181 1.377-.544.181-.235.274-.806.274-1.706v-9.71c0-.76-.05-1.263-.147-1.505-.077-.186-.231-.345-.463-.477a2.172 2.172 0 0 0-1.04-.265h-.544v-.412h6.565v.412h-.555c-.624 0-1.08.182-1.364.541-.19.238-.286.806-.286 1.706v9.71c0 .76.05 1.263.147 1.505.077.186.235.345.474.477.324.178.667.269 1.03.269h.554Zm13.868-14.62-10.062 14.12h6.28c.963 0 1.704-.208 2.216-.62.517-.416.976-1.252 1.373-2.515l.374.064-.72 3.979H60.724v-.409l9.827-13.719h-4.9c-.813 0-1.403.087-1.77.257a1.876 1.876 0 0 0-.836.757c-.193.329-.366.942-.524 1.842h-.428l.316-3.756h11.327Zm1.222 15.028v-.409h.574c.648 0 1.107-.204 1.377-.612.165-.242.25-.79.25-1.638v-9.71c0-.938-.108-1.524-.316-1.759-.293-.325-.732-.488-1.31-.488h-.575v-.412h6.234c2.286 0 4.029.257 5.224.764 1.191.51 2.151 1.362 2.88 2.55.724 1.191 1.09 2.564 1.09 4.123 0 2.091-.647 3.839-1.942 5.242-1.454 1.566-3.67 2.349-6.643 2.349h-6.843Zm4.368-1.086c.956.208 1.758.31 2.406.31 1.746 0 3.196-.6 4.348-1.807 1.153-1.203 1.731-2.837 1.731-4.899 0-2.073-.578-3.71-1.73-4.906-1.153-1.199-2.63-1.796-4.438-1.796-.679 0-1.45.105-2.317.321v12.777Zm27.573 1.086h-4.091l-5.185-7.024c-.382.01-.694.019-.937.019-.096 0-.2 0-.316-.004-.112-.004-.227-.008-.35-.015v4.365c0 .945.107 1.532.315 1.762.29.326.717.488 1.288.488h.601v.409h-6.561v-.409h.574c.648 0 1.11-.208 1.388-.62.158-.23.24-.775.24-1.63v-9.71c0-.946-.109-1.532-.317-1.759-.293-.325-.733-.488-1.31-.488h-.575v-.412h5.578c1.627 0 2.826.117 3.597.352a4.12 4.12 0 0 1 1.967 1.282c.535.628.805 1.37.805 2.235 0 .923-.304 1.725-.921 2.406-.613.677-1.562 1.158-2.85 1.437l3.162 4.313c.721.99 1.346 1.649 1.862 1.974.521.321 1.199.53 2.036.62v.409ZM96.02 14.35c.147 0 .27 0 .374.004.104.004.193.008.258.008 1.462 0 2.564-.31 3.305-.93.744-.62 1.114-1.411 1.114-2.372 0-.938-.301-1.702-.899-2.288-.597-.587-1.391-.882-2.378-.882-.436 0-1.026.072-1.774.212v6.249-.001Zm19.134-7.644c1.989 0 3.712.737 5.17 2.22 1.457 1.483 2.186 3.329 2.186 5.545 0 2.285-.737 4.18-2.205 5.685-1.469 1.51-3.247 2.262-5.332 2.262-2.105 0-3.879-.737-5.313-2.205-1.434-1.471-2.151-3.374-2.151-5.708 0-2.387.829-4.33 2.483-5.84 1.442-1.309 3.161-1.96 5.162-1.96Zm-.212.805c-1.373 0-2.471.5-3.3 1.498-1.03 1.24-1.546 3.056-1.546 5.45 0 2.456.536 4.343 1.603 5.663.822 1.006 1.905 1.51 3.254 1.51 1.438 0 2.626-.553 3.563-1.654.936-1.1 1.407-2.837 1.407-5.208 0-2.568-.517-4.486-1.55-5.75-.829-1.006-1.97-1.509-3.431-1.509Zm10.764-.053v-.412h6.562v.412h-.556c-.624 0-1.079.182-1.364.541-.182.238-.274.806-.274 1.706v7.35c0 1.13-.124 2.046-.378 2.746-.251.703-.686 1.316-1.303 1.834-.617.522-1.365.783-2.236.783-.71 0-1.265-.174-1.673-.514-.405-.344-.609-.738-.609-1.18 0-.364.092-.636.281-.821.251-.23.54-.344.871-.344.239 0 .459.075.648.23.193.155.436.571.729 1.245.173.397.397.598.667.598.204 0 .393-.122.57-.367.178-.243.266-.678.266-1.298V9.705c0-.76-.05-1.263-.146-1.505-.077-.186-.236-.345-.474-.477a2.107 2.107 0 0 0-1.03-.265h-.551Zm11.531.409v5.938h3.366c.875 0 1.457-.128 1.75-.385.393-.34.609-.938.655-1.797h.417v5.231h-.417c-.104-.73-.212-1.199-.316-1.407-.135-.257-.358-.461-.667-.609-.308-.148-.782-.223-1.422-.223h-3.366v4.955c0 .666.031 1.07.089 1.214a.714.714 0 0 0 .316.344c.15.084.439.125.859.125h2.599c.864 0 1.496-.057 1.885-.178.393-.117.767-.348 1.13-.696.466-.457.944-1.15 1.434-2.072H146l-1.318 3.767h-11.805v-.409h.543a2.18 2.18 0 0 0 1.026-.257.938.938 0 0 0 .493-.53c.085-.238.127-.722.127-1.452V9.664c0-.954-.096-1.54-.292-1.763-.27-.295-.722-.443-1.354-.443h-.543v-.412h11.805l.169 3.29h-.443c-.158-.79-.332-1.33-.525-1.626-.192-.295-.474-.522-.852-.677-.3-.11-.832-.166-1.592-.166h-4.202ZM31.13 0v.601c-.578 0-1.05.1-1.416.304-.36.21-.709.59-1.035 1.147-.219.38-.568 1.28-1.04 2.703l-6.224 17.663h-.657L15.663 8.407l-5.055 14.01h-.595L3.379 4.22c-.495-1.357-.81-2.162-.939-2.41a2.152 2.152 0 0 0-.9-.91C1.165.7.648.6 0 .6V0h8.27v.601h-.393c-.585 0-1.029.127-1.338.386-.304.26-.461.574-.461.938 0 .375.242 1.247.725 2.604L11.2 16.824l3.705-10.453-.658-1.842-.523-1.473a7.77 7.77 0 0 0-.776-1.423 2.126 2.126 0 0 0-.528-.519 3.13 3.13 0 0 0-.821-.419c-.214-.06-.54-.094-.99-.094V0h8.698v.601h-.596c-.613 0-1.063.127-1.35.386-.286.26-.427.607-.427 1.048 0 .552.248 1.512.743 2.88l4.278 11.91 4.25-12.07c.484-1.34.726-2.262.726-2.78 0-.248-.079-.48-.236-.695a1.261 1.261 0 0 0-.602-.453c-.416-.154-.961-.226-1.63-.226V0h6.668Z"/></svg>