<svg xmlns="http://www.w3.org/2000/svg" xml:space="preserve" fill-rule="evenodd" stroke-linejoin="round" stroke-miterlimit="2" clip-rule="evenodd" viewBox="0 0 123 14"><g fill-rule="nonzero"><path d="m4.81 9.623-.125.607H0q.063-.389.218-.887.669-.685 1.479-1.463c.81-.778 1.14-1.18 1.806-1.977q.498-.67.498-1.276 0-.607-.389-.934c-.389-.327-.597-.327-1.012-.327-.934 0-1.46.467-1.588 1.401l-.56-.156c.062-.602.301-1.06.716-1.385q.56-.436 1.448-.436.87 0 1.44.537c.57.537.568.807.568 1.346q0 1.184-1.868 2.973Q1.403 8.983.841 9.623zM11.861 7.677c0 .799-.27 1.44-.809 1.938-.54.493-1.24.739-2.086.739-.716 0-1.28-.192-1.681-.576l.265-.483q.218.14.467.265.437.202 1.074.202c.56 0 1.06-.182 1.487-.545s.646-.872.646-1.525q0-.84-.56-1.261-.467-.374-1.214-.374-.654 0-1.043.514l-.327.031.233-3.767h3.315l-.109.591H8.904l-.14 2.195q.405-.156.872-.156c.602 0 1.12.187 1.541.56q.685.622.685 1.65zM23.38 8.907q0 1.45-2.008 1.448c-1.35 0-2.02-.483-2.024-1.449v-2.96a.95.95 0 0 1-.467.112.99.99 0 0 1-.724-.304 1 1 0 0 1-.304-.724q0-.42.304-.724.303-.303.724-.304c.421-.001.521.101.724.304a1 1 0 0 1 .304.724v3.829q0 .981 1.463.981 1.45 0 1.448-.981V1.528h.56v7.378zm-3.969-3.876q0-.212-.156-.363c-.156-.151-.228-.151-.374-.151q-.218 0-.374.151c-.156.151-.156.222-.156.363s.052.262.156.363.228.151.374.151q.218 0 .374-.151c.156-.151.156-.222.156-.363"/><path d="M22.197 3.147q-1.784-.638-3.362-.638-.56 0-1.23.093.015-.803.669-1.296.591-.447 1.416-.448c.83 0 1.46.27 1.899.809V.157h.514v2.568q.063.202.093.42zm-.607-.591c-.457-.841-1.08-1.26-1.883-1.261-.726 0-1.21.275-1.463.825q.327-.047.732-.047 1.496 0 2.615.483zM28.859 9.265q0 .436-.304.747a1 1 0 0 1-.739.311q-.482 0-.794-.342a1.04 1.04 0 0 1-.265-.716V4.004h.56v4.343a1 1 0 0 1 .498-.125q.436 0 .739.304.303.303.304.739zm-.514.008q0-.221-.156-.379c-.156-.158-.228-.158-.374-.158q-.218 0-.374.158c-.156.158-.156.232-.156.379s.052.274.156.379.228.158.374.158q.218 0 .374-.158c.156-.158.156-.232.156-.379m3.207-.008q0 .436-.304.747a1 1 0 0 1-.739.311q-.482 0-.794-.342a1.04 1.04 0 0 1-.265-.716V4.004h.56v4.343a1 1 0 0 1 .498-.125q.436 0 .739.304.303.303.304.739zm-.514.008q0-.221-.156-.379c-.156-.158-.228-.158-.374-.158q-.218 0-.374.158c-.156.158-.156.232-.156.379s.052.274.156.379.228.158.374.158q.218 0 .374-.158c.156-.158.156-.232.156-.379M39.257 10.23h-.56V6.868q0-.716-.374-.716-.233 0-.56.545l-2.008 3.533h-.514V5.946a.95.95 0 0 1-.467.112.99.99 0 0 1-.724-.304 1 1 0 0 1-.304-.724q0-.42.304-.724.304-.303.724-.304c.42-.001.521.101.724.304a1 1 0 0 1 .304.724v3.378q0 .14-.078.965.187-.39.342-.686l1.261-2.324q.218-.39.514-.546a.96.96 0 0 1-.374-.791q0-.418.304-.721.303-.302.724-.302c.421 0 .521.101.724.304a1 1 0 0 1 .304.724.96.96 0 0 1-.514.887q.249.264.249.95zm-3.954-5.199q0-.212-.156-.363c-.156-.151-.228-.151-.374-.151q-.218 0-.374.151c-.156.151-.156.222-.156.363s.052.262.156.363.228.151.374.151q.218 0 .374-.151c.156-.151.156-.222.156-.363m3.72 0q0-.212-.156-.363c-.156-.151-.228-.151-.374-.151q-.218 0-.374.151c-.156.151-.156.222-.156.363s.052.262.156.363.228.151.374.151q.218 0 .374-.151c.156-.151.156-.222.156-.363M38.681.517h.576v2.241h-.576zM45.514 10.23h-.56l-2.895-3.238.311-.358 2.584 2.802V5.949a1.06 1.06 0 0 1-.483.109.99.99 0 0 1-.724-.304.97.97 0 0 1-.304-.708 1.013 1.013 0 0 1 1.028-1.043q.498 0 .794.327.249.296.249.716zM45 5.015q0-.218-.156-.374c-.156-.156-.228-.156-.374-.156q-.218 0-.374.156c-.156.156-.156.228-.156.374q0 .218.156.374c.156.156.228.156.374.156q.218 0 .374-.156C45 5.233 45 5.161 45 5.015M53.126 10.23h-.56V7.693q0-.545-.576-.872a2.3 2.3 0 0 0-1.121-.265q-.623 0-1.058.335a1.04 1.04 0 0 0-.436.864v.654q.218-.11.514-.109a.98.98 0 0 1 .732.304q.296.303.296.724c0 .421-.099.521-.296.724a.98.98 0 0 1-.732.304q-.483 0-.778-.31c-.295-.31-.296-.45-.296-.73V7.764q0-.776.623-1.273.576-.466 1.385-.466h.093q.7-.574 1.183-1.118a2.2 2.2 0 0 0-1.261-.388q-.654 0-1.183.28-.576.312-.716.841h-.545q.11-.715.841-1.185.685-.45 1.572-.449c.887.001 1.13.15 1.603.451q.327-.374.42-.872h.56q-.11.622-.591 1.23.327.42.327.965v4.452zm-.56-3.596v-.887q0-.217-.14-.498a7 7 0 0 1-.934.841q.654.155 1.074.545zm-2.164 2.701q0-.215-.156-.368c-.156-.153-.228-.153-.374-.153q-.218 0-.366.153c-.148.153-.148.225-.148.368s.049.263.148.36.221.146.366.146.27-.049.374-.146.156-.217.156-.36M59.726 10.23h-.56V5.589a.97.97 0 0 0-.35-.768q-.35-.303-.957-.303-.545 0-.872.366c-.327.366-.337.506-.358.786h-.576q.015-.653.521-1.16t1.3-.506q.902 0 1.378.436c.476.436.475.675.475 1.152zM66.232 9.327q0 .42-.28.724-.28.303-.747.304a.99.99 0 0 1-.724-.306q-.303-.306-.304-.729c-.001-.423.101-.525.304-.729a.98.98 0 0 1 .724-.306q.264 0 .467.112V6.775q.001-.638-3.004-1.121.093-1.65 1.51-1.65.327 0 .926.163.6.163.864.163.155 0 .296-.358l.483.125q-.234.747-.794.747-.327 0-.942-.163c-.615-.163-.719-.163-.926-.163q-.28 0-.521.236t-.257.48q.998.17 1.961.514.965.342.965.981v2.599zm-.498-.008q0-.215-.156-.368c-.156-.153-.228-.153-.374-.153q-.218 0-.374.153c-.156.153-.156.225-.156.368s.052.266.156.368.228.153.374.153q.218 0 .374-.153c.156-.153.156-.225.156-.368M73.019 10.23h-.56V5.589a.97.97 0 0 0-.35-.768q-.35-.303-.957-.303-.545 0-.872.366c-.327.366-.337.506-.358.786h-.576q.015-.653.521-1.16t1.3-.506q.902 0 1.378.436c.476.436.475.675.475 1.152v4.639zM81.549 9.343a.96.96 0 0 1-.304.716q-.303.296-.724.296c-.421 0-.519-.099-.716-.296s-.296-.436-.296-.716v-.109q-.964.388-1.494.996h-.685V5.946a.95.95 0 0 1-.467.112.99.99 0 0 1-.724-.304 1 1 0 0 1-.304-.724q0-.42.304-.724.303-.303.724-.304c.421-.001.521.101.724.304a1 1 0 0 1 .304.724v4.592q.312-.342 1.105-.7.886-.404 1.152-.623.53-.42.529-1.074V4.127h.56v3.175q0 .747-.342 1.09.654.264.654.95zm-4.156-4.312q0-.212-.156-.363c-.156-.151-.228-.151-.374-.151q-.218 0-.374.151c-.156.151-.156.222-.156.363s.052.262.156.363.228.151.374.151q.218 0 .374-.151c.156-.151.156-.222.156-.363m3.658 4.281q0-.218-.156-.374c-.156-.156-.228-.156-.374-.156q-.218 0-.374.156c-.156.156-.156.228-.156.374q0 .218.156.374c.156.156.228.156.374.156q.218 0 .374-.156c.156-.156.156-.228.156-.374M81.237 13.841h-.545V12.58a.8.8 0 0 1-.28.047q-.342 0-.584-.241c-.242-.241-.241-.355-.241-.584q0-.342.241-.584c.241-.242.355-.241.584-.241q.342 0 .584.241c.242.241.241.355.241.584zm-.42-2.055q0-.171-.117-.288c-.117-.117-.174-.117-.288-.117s-.21.039-.288.117-.117.174-.117.288.039.21.117.288.174.117.288.117.21-.039.288-.117.117-.174.117-.288M88.927 10.23h-.56V6.178q0-.76-.475-1.211c-.475-.451-.724-.45-1.222-.45q-.53 0-1.027.291c-.497.291-.56.445-.685.752q.916.078 1.261.685-.373.078-.654.412c-.281.334-.28.47-.28.739v2.833h-.56V7.412c0-.612.27-1.03.809-1.245q-.513-.249-1.183-.171.124-.873.786-1.432c.662-.559.962-.56 1.564-.56.675 0 1.21.187 1.619.56q.607.56.607 1.541zM95.433 9.327q0 .42-.28.724-.28.303-.747.304a.99.99 0 0 1-.724-.306q-.303-.306-.304-.729c-.001-.423.101-.525.304-.729a.98.98 0 0 1 .724-.306q.264 0 .467.112V6.775q.001-.638-3.004-1.121.094-1.65 1.51-1.65.327 0 .926.163.6.163.864.163.155 0 .296-.358l.483.125q-.234.747-.794.747-.327 0-.942-.163c-.615-.163-.719-.163-.926-.163q-.28 0-.521.236t-.257.48q.998.17 1.961.514.965.342.965.981v2.599zm-.498-.008q0-.215-.156-.368c-.156-.153-.228-.153-.374-.153q-.218 0-.374.153c-.156.153-.156.225-.156.368s.052.266.156.368.228.153.374.153q.218 0 .374-.153c.156-.153.156-.225.156-.368M103.53 10.23h-.607c-.809-.623-1.57-1.03-2.273-1.23a1.025 1.025 0 0 1-.272 1.043q-.32.312-.771.311c-.451-.001-.555-.105-.763-.314s-.311-.465-.311-.768.104-.562.311-.776q.312-.322.763-.322.171 0 .327.048V5.945a.95.95 0 0 1-.467.112.99.99 0 0 1-.724-.304 1 1 0 0 1-.304-.724q0-.42.304-.724.303-.303.724-.304c.421-.001.521.101.724.304a1 1 0 0 1 .304.724v3.362c1.03.363 1.85.783 2.475 1.261V4.126h.56v6.102zm-3.347-.965q0-.234-.171-.405c-.171-.171-.249-.171-.405-.171s-.291.057-.405.171-.171.249-.171.405.057.291.171.405.249.171.405.171.291-.057.405-.171.171-.249.171-.405m-.187-4.234q0-.212-.156-.363c-.156-.151-.228-.151-.374-.151q-.218 0-.374.151c-.156.151-.156.222-.156.363s.052.262.156.363.228.151.374.151q.218 0 .374-.151c.156-.151.156-.222.156-.363M109.01 9.265q0 .436-.304.747a1 1 0 0 1-.739.311q-.482 0-.794-.342a1.04 1.04 0 0 1-.265-.716V4.004h.56v4.343a1 1 0 0 1 .498-.125q.436 0 .739.304.303.303.304.739zm-.514.008q0-.221-.156-.379c-.156-.158-.228-.158-.374-.158q-.218 0-.374.158c-.156.158-.156.232-.156.379s.052.274.156.379.228.158.374.158q.218 0 .374-.158c.156-.158.156-.232.156-.379M115.98 10.23h-.56V7.693q0-.545-.576-.872a2.3 2.3 0 0 0-1.121-.265q-.623 0-1.058.335a1.04 1.04 0 0 0-.436.864v.654q.218-.11.514-.109a.98.98 0 0 1 .732.304q.296.303.296.724c0 .421-.099.521-.296.724a.98.98 0 0 1-.732.304q-.483 0-.778-.31c-.295-.31-.296-.45-.296-.73V7.764q0-.776.623-1.273.576-.466 1.385-.466h.093q.7-.574 1.183-1.118a2.2 2.2 0 0 0-1.261-.388q-.654 0-1.183.28-.576.312-.716.841h-.545q.11-.715.841-1.185.685-.45 1.572-.449c.887.001 1.13.15 1.603.451q.327-.374.42-.872h.56q-.11.622-.591 1.23.327.42.327.965v4.452zm-.56-3.596v-.887q0-.217-.14-.498a7 7 0 0 1-.934.841q.654.155 1.074.545zm-2.164 2.701q0-.215-.156-.368c-.156-.153-.228-.153-.374-.153q-.218 0-.366.153c-.148.153-.148.225-.148.368s.049.263.148.36.221.146.366.146.27-.049.374-.146.156-.217.156-.36M122.49 9.327q0 .42-.28.724-.28.303-.747.304a.99.99 0 0 1-.724-.306q-.303-.306-.304-.729c-.001-.423.101-.525.304-.729a.98.98 0 0 1 .724-.306q.264 0 .467.112V6.775q.001-.638-3.004-1.121.094-1.65 1.51-1.65.327 0 .926.163.6.163.864.163.156 0 .296-.358l.483.125q-.234.747-.794.747-.327 0-.942-.163c-.615-.163-.719-.163-.926-.163q-.28 0-.521.236t-.257.48q.998.17 1.961.514.965.342.965.981v2.599zm-.498-.008q0-.215-.156-.368c-.156-.153-.228-.153-.374-.153q-.218 0-.374.153c-.156.153-.156.225-.156.368s.052.266.156.368.228.153.374.153q.218 0 .374-.153c.156-.153.156-.225.156-.368M122.77 3.147q-1.784-.638-3.362-.638-.56 0-1.23.093.015-.803.669-1.296.591-.447 1.416-.448c.83 0 1.46.27 1.899.809V.157h.514v2.568q.063.202.093.42zm-.607-.591c-.457-.841-1.08-1.26-1.883-1.261-.726 0-1.21.275-1.463.825q.327-.047.732-.047 1.496 0 2.615.483z"/></g></svg>