<svg xmlns="http://www.w3.org/2000/svg" width="122" height="12"><path fill="#000" fill-rule="nonzero" d="M115.601 3.393a.081.081 0 0 1 .036.005c.01.004.015.015.016.034-.008.024-.054.2-.14.53-.085.329-.164.668-.237 1.017l-.234 1.118c-.295 1.61-.667 2.934-1.113 3.975-.447 1.04-1.068 1.579-1.864 1.615-.292 0-.533-.05-.721-.15a.512.512 0 0 1-.293-.461c.01-.215.059-.354.148-.42.089-.064.161-.093.216-.087.072 0 .142.01.21.032a.463.463 0 0 1 .18.11c.102.13.181.265.237.407.057.142.142.219.257.23.125.009.278-.098.462-.32.183-.224.35-.61.5-1.161.112-.45.213-.911.304-1.381.09-.47.202-1.015.333-1.635l.43-1.885c.025-.116.045-.215.058-.298.012-.082.02-.152.02-.21-.002-.108-.02-.183-.055-.227a.19.19 0 0 0-.14-.071l-.547-.052.04-.312c.468-.07.853-.138 1.153-.202.3-.064.548-.13.744-.201zm-49.215 0-.949 4.095c-.052.21-.09.394-.117.55a2.321 2.321 0 0 0-.039.334c.006.07.03.118.075.145.044.026.076.038.094.037.07-.001.16-.07.272-.206.11-.137.25-.332.417-.587l.3.208a5.71 5.71 0 0 1-.39.585c-.04.105-.072.21-.095.317a1.474 1.474 0 0 0-.036.307 2.801 2.801 0 0 0 .052.546c.02.083.036.167.047.25.012.084.018.173.018.27.02.175-.052.367-.218.575-.165.208-.543.432-1.134.673l-.143-.364c.196-.087.367-.19.512-.306a.593.593 0 0 0 .23-.461c-.001-.039-.003-.085-.007-.14a3.248 3.248 0 0 1-.007-.198c0-.149.02-.3.057-.455a3.44 3.44 0 0 1 .164-.494c-.195.13-.403.195-.624.195-.216-.009-.365-.076-.445-.2a.66.66 0 0 1-.114-.385c0-.08.01-.19.033-.332a4.32 4.32 0 0 1 .11-.487l.195-.728-.039-.026c-.44.681-.841 1.21-1.206 1.586-.364.376-.824.567-1.38.572a.818.818 0 0 1-.621-.242c-.162-.165-.245-.43-.25-.798a3.365 3.365 0 0 1 .13-.871l.584-2.223a5.29 5.29 0 0 0 .116-.502c.02-.123.029-.215.027-.278-.001-.07-.018-.118-.05-.145a.175.175 0 0 0-.119-.037c-.07 0-.17.061-.299.182a6.95 6.95 0 0 0-.494.533l-.286-.221c.236-.325.515-.608.836-.852.32-.243.631-.37.932-.383.216 0 .36.042.432.123.073.082.107.201.101.358a2.772 2.772 0 0 1-.06.486 9.833 9.833 0 0 1-.148.632l-.559 2.145c-.089.353-.132.635-.13.845.002.211.04.36.114.447a.35.35 0 0 0 .29.125c.318-.007.658-.237 1.02-.692.361-.455.78-1.096 1.254-1.921l.572-2.47a8.757 8.757 0 0 0 .975-.117zm-9.61 0a.081.081 0 0 1 .036.005c.01.004.016.015.017.034a80.434 80.434 0 0 0-.39 1.547l-.195.897h2.313l.52-2.327c.087-.002.233-.014.44-.037.206-.023.384-.046.535-.067l-.949 4.069c-.052.21-.09.394-.117.55a2.32 2.32 0 0 0-.039.334c.006.07.03.118.075.144.045.027.076.039.094.038.089-.001.191-.07.308-.206.116-.137.26-.332.433-.587l.247.208c-.232.412-.478.731-.737.957-.26.226-.538.34-.836.343-.221-.01-.37-.076-.443-.2a.684.684 0 0 1-.103-.385c.001-.08.013-.19.035-.332.022-.141.05-.303.082-.487l.338-1.508h-2.313l-.585 2.6-.95.312-.064-.156.975-4.173c.026-.116.045-.215.058-.298.013-.082.02-.151.02-.21-.001-.108-.02-.183-.054-.227a.19.19 0 0 0-.141-.071l-.546-.052.039-.312c.469-.07.853-.138 1.153-.202.3-.064.548-.13.745-.201zM24.91.065c-.242.679-.561 1.167-.957 1.466a2.604 2.604 0 0 1-1.396.51c-.54.047-.952.168-1.235.362-.283.195-.552.495-.806.899a4.22 4.22 0 0 0-.343.658 5.613 5.613 0 0 0-.255.746c.183-.294.447-.58.791-.861.345-.28.8-.431 1.367-.452.649.016 1.11.209 1.383.578.273.37.406.823.398 1.359-.03 1.07-.366 1.989-1.01 2.758-.642.768-1.41 1.17-2.305 1.207a1.712 1.712 0 0 1-1.246-.476c-.342-.324-.52-.85-.535-1.578.003-.67.166-1.466.488-2.388a8.097 8.097 0 0 1 1.386-2.487c.602-.734 1.325-1.155 2.169-1.261.503-.035.904-.134 1.2-.296a1.41 1.41 0 0 0 .646-.744zM102.84 0c.283.146.577.267.883.361.306.094.62.247.938.457.32.21.64.56.961 1.054.265.404.46.834.585 1.289.125.454.19.926.195 1.415a6.233 6.233 0 0 1-.425 2.255c-.274.684-.617 1.215-1.03 1.593a3.81 3.81 0 0 1-.8.606c-.296.169-.68.257-1.15.265-.568-.02-.98-.225-1.236-.616-.255-.391-.38-.853-.377-1.386.021-.822.223-1.534.606-2.137.384-.603.823-1.039 1.318-1.308.303-.161.575-.278.818-.35.242-.071.433-.106.573-.105.158-.002.31.015.459.049.148.034.28.096.4.185.012-.058.02-.114.022-.167a2.81 2.81 0 0 0 .003-.158c-.016-.692-.217-1.16-.604-1.407-.387-.247-.861-.45-1.424-.608-.3-.11-.506-.267-.619-.468a1.19 1.19 0 0 1-.16-.624c0-.06.005-.106.016-.141.01-.035.022-.053.035-.054zM30.934 0c.283.146.577.267.883.361.306.094.619.247.938.457.32.21.64.56.961 1.054.265.404.46.834.585 1.289.125.454.19.926.195 1.415a6.232 6.232 0 0 1-.426 2.255c-.273.684-.617 1.215-1.03 1.593a3.81 3.81 0 0 1-.8.606c-.295.169-.679.257-1.15.265-.568-.02-.98-.225-1.235-.616-.256-.391-.381-.853-.377-1.386.02-.822.223-1.534.606-2.137s.823-1.039 1.318-1.308c.303-.161.575-.278.817-.35.243-.071.434-.106.574-.105v-.001l.156.005c.051.004.102.01.153.017l.15.028c.147.034.28.096.399.185.012-.058.02-.114.023-.167.002-.054.004-.106.003-.158-.016-.692-.218-1.16-.604-1.407-.387-.247-.862-.45-1.424-.608-.3-.11-.506-.267-.62-.468a1.193 1.193 0 0 1-.16-.624c0-.06.006-.106.016-.141.01-.035.023-.053.036-.054zm44.579 3.393a.081.081 0 0 1 .036.005c.01.004.015.015.016.034a80.434 80.434 0 0 0-.39 1.547l-.221.988c.423-.013.776-.13 1.06-.353.283-.222.532-.512.747-.87.191-.321.423-.616.695-.885.273-.268.57-.41.89-.427.206.002.351.04.436.114.085.073.126.17.124.289-.011.216-.087.385-.226.505-.14.12-.277.182-.411.184-.183-.01-.295-.046-.338-.11-.043-.065-.13-.102-.26-.111-.068.003-.16.068-.273.193-.114.126-.231.29-.351.496-.16.289-.35.546-.567.773a1.399 1.399 0 0 1-.772.423c.352-.002.636.07.851.216.216.146.357.377.423.694.044.282.131.615.263 1 .132.384.317.61.556.677l.09.013a.287.287 0 0 1 .09.027c.026.014.04.04.04.077l-.064.247-.026.026-.897-.026c-.29-.034-.51-.214-.662-.54a3.647 3.647 0 0 1-.3-.93c-.05-.347-.152-.632-.309-.854-.156-.221-.46-.357-.913-.406l-.572 2.574-.95.312-.064-.156.975-4.173c.026-.116.045-.215.058-.298.013-.082.02-.151.02-.21-.001-.107-.019-.183-.054-.227a.19.19 0 0 0-.141-.071l-.546-.052.039-.312c.469-.07.854-.138 1.154-.202.3-.064.548-.13.744-.201zm16.946 0a.081.081 0 0 1 .036.005c.01.004.015.015.016.034l-.39 1.547-.026.117.013.013c.588-.684 1.08-1.14 1.475-1.365.396-.226.758-.33 1.086-.312.258-.006.466.07.625.227.16.157.24.428.246.813a2.13 2.13 0 0 1-.052.411c-.034.159-.077.351-.13.577l-.494 2.119c-.051.228-.086.399-.104.51a1.588 1.588 0 0 0-.026.257c0 .066.013.122.037.166.025.043.06.066.106.068.095 0 .213-.062.356-.189.142-.126.322-.319.54-.578l.3.247c-.375.454-.708.77-1 .95-.291.18-.556.266-.794.259a.639.639 0 0 1-.405-.135c-.114-.09-.174-.222-.18-.398-.001-.124.01-.266.036-.424.024-.159.069-.368.133-.63l.507-2.118c.051-.219.088-.399.11-.54.022-.14.033-.255.033-.344-.003-.202-.047-.354-.132-.457a.417.417 0 0 0-.336-.154c-.23-.009-.509.12-.839.385-.33.266-.74.722-1.228 1.37l-.741 3.159-.95.312-.064-.156.962-4.173c.026-.116.045-.215.058-.298.013-.082.02-.151.02-.21-.001-.107-.019-.183-.054-.227a.19.19 0 0 0-.141-.071l-.546-.052.039-.312c.469-.07.853-.138 1.154-.202.3-.064.548-.13.744-.201zm-55.265 0a.081.081 0 0 1 .036.005c.01.004.016.015.016.034a79.655 79.655 0 0 0-.39 1.547l-.195.897h2.314l.52-2.327c.087-.002.233-.014.44-.037.206-.023.384-.046.535-.067l-.949 4.069c-.052.21-.09.394-.117.55a2.32 2.32 0 0 0-.039.334c.006.07.03.118.075.144.045.027.076.039.094.038.089-.001.191-.07.308-.206.116-.137.26-.332.433-.587l.247.208c-.232.412-.478.731-.737.957-.26.226-.538.34-.836.343-.221-.01-.37-.076-.443-.2a.684.684 0 0 1-.103-.385c.001-.08.013-.19.035-.332.022-.141.05-.303.082-.487l.338-1.508h-2.314l-.585 2.6-.949.312-.065-.156.975-4.173c.026-.116.046-.215.059-.298.013-.082.02-.151.02-.21-.001-.108-.02-.183-.054-.227a.19.19 0 0 0-.142-.071l-.546-.052.04-.312c.469-.07.853-.138 1.153-.202.3-.064.548-.13.744-.201zm-23.898.143.026.026-.065.26c-.006.032-.017.055-.034.07-.017.014-.045.021-.083.021h-.338c-.22-.005-.369.035-.448.12-.08.086-.139.25-.176.49l-.585 3.056c-.045.228-.075.399-.093.51a1.68 1.68 0 0 0-.024.257c0 .067.01.122.031.166.02.044.054.066.1.068.094 0 .213-.062.355-.189.142-.126.323-.319.541-.578l.3.247c-.381.454-.716.771-1.005.95-.29.18-.553.266-.79.259a.639.639 0 0 1-.405-.135c-.114-.09-.174-.222-.18-.398 0-.124.013-.263.04-.42.017-.093.04-.206.067-.34l.062-.293.65-2.99c.037-.154.054-.275.052-.364.002-.096-.028-.164-.09-.203-.06-.04-.165-.058-.313-.057h-.689c-.217-.01-.384.107-.499.348-.115.24-.239.662-.372 1.264-.126.545-.26 1.057-.404 1.536-.144.478-.282.85-.415 1.116-.144.306-.32.539-.526.697a1.101 1.101 0 0 1-.683.239.728.728 0 0 1-.474-.176.55.55 0 0 1-.2-.455.134.134 0 0 1 .011-.045.658.658 0 0 1 .168-.332.433.433 0 0 1 .313-.136.295.295 0 0 1 .23.1.36.36 0 0 1 .08.264.048.048 0 0 1-.01.026.5.5 0 0 0 .02.213c.021.055.057.084.11.086.058.001.122-.034.193-.106.07-.072.144-.188.222-.35.117-.215.244-.53.38-.946.137-.416.283-.963.44-1.64.084-.368.148-.669.193-.904.044-.234.066-.418.066-.552.002-.17-.04-.281-.127-.333-.086-.052-.225-.075-.419-.07a.68.68 0 0 1-.205-.015c-.034-.012-.043-.046-.029-.102l.052-.234.04-.026.438.013c.271.008.541.012.81.013h2.352a36.9 36.9 0 0 0 .865-.013l.474-.013zm99.237-.143-.95 4.095c-.051.21-.09.394-.116.55a2.32 2.32 0 0 0-.04.334c.006.07.031.118.075.145.045.026.076.038.095.037.07-.001.16-.07.271-.206.11-.137.25-.332.418-.587l.299.208c-.233.412-.48.731-.738.957-.259.226-.537.34-.835.343-.217-.009-.365-.076-.446-.2a.663.663 0 0 1-.113-.385c0-.08.01-.19.032-.332.022-.141.06-.303.11-.487l.196-.728-.04-.026c-.439.681-.84 1.21-1.205 1.586-.365.376-.825.567-1.381.572a.818.818 0 0 1-.621-.242c-.161-.165-.245-.43-.25-.798a3.366 3.366 0 0 1 .13-.871l.585-2.223c.057-.212.095-.38.115-.502.02-.123.029-.215.028-.278-.002-.07-.018-.118-.05-.145a.175.175 0 0 0-.12-.037c-.07 0-.17.061-.298.182a6.95 6.95 0 0 0-.494.533l-.286-.221c.236-.325.514-.608.835-.852.32-.243.632-.37.933-.383.215 0 .36.042.432.123.073.082.106.201.1.358a2.769 2.769 0 0 1-.06.486 9.865 9.865 0 0 1-.147.632l-.56 2.145c-.088.353-.131.635-.13.845.003.211.04.36.115.447a.35.35 0 0 0 .289.125c.319-.007.659-.237 1.02-.692.362-.455.78-1.096 1.255-1.921l.572-2.47a8.756 8.756 0 0 0 .975-.117zm-12.705.039c.515.01.86.104 1.039.284.178.18.26.389.248.626.02.17-.03.386-.149.645-.12.26-.427.529-.923.807-.497.278-1.3.531-2.412.758a2.716 2.716 0 0 0-.012.323v.119c.008.586.114 1.01.32 1.269.204.26.457.387.758.382.303 0 .585-.092.849-.276.263-.185.565-.466.906-.842.076 0 .135.016.177.05a.402.402 0 0 1 .11.158c-.358.502-.736.883-1.133 1.142a2.47 2.47 0 0 1-1.377.392c-.65-.013-1.098-.205-1.342-.574s-.36-.836-.348-1.402c0-.568.12-1.146.359-1.735.24-.589.603-1.086 1.09-1.492.486-.406 1.1-.617 1.84-.634zm19.352 0c.249 0 .443.009.583.024l.457.054c.132.03.277.042.435.037l.475-.011-.897 4.043a12.53 12.53 0 0 0-.085.445 2.856 2.856 0 0 0-.045.348c.004.076.025.126.063.15.039.023.07.034.093.032.065-.001.159-.067.281-.197a5.92 5.92 0 0 0 .447-.557l.299.208a3.71 3.71 0 0 1-.696.835c-.29.266-.613.407-.968.426-.216-.01-.36-.076-.432-.2a.7.7 0 0 1-.101-.385c0-.079.01-.178.03-.3.022-.12.055-.259.1-.415l.208-.676-.026-.026c-.391.59-.775 1.068-1.152 1.435-.377.367-.738.556-1.084.567-.53-.028-.877-.23-1.04-.605a2.595 2.595 0 0 1-.221-1.15 4.149 4.149 0 0 1 .54-1.965 4.96 4.96 0 0 1 1.268-1.512c.5-.39.99-.592 1.468-.605zM4.94.585C5.676.607 6.216.7 6.56.863c.342.163.674.266.994.307-.038.349-.066.688-.083 1.017-.017.33-.028.662-.034.998l-.377.052a2.58 2.58 0 0 0-.567-1.505c-.343-.423-.938-.645-1.786-.666-.344-.003-.753.124-1.227.38-.473.258-.92.66-1.342 1.21-.422.55-.726 1.264-.915 2.141a7.01 7.01 0 0 0-.076.55 5.614 5.614 0 0 0-.028.542c-.005.784.168 1.449.52 1.994.352.545.915.83 1.69.853.571.004 1.11-.105 1.615-.328.506-.223 1.025-.586 1.557-1.09.07.002.125.02.163.055a.314.314 0 0 1 .084.14c-.537.58-1.104 1.017-1.701 1.312-.598.295-1.2.443-1.809.444C2.113 9.24 1.29 8.913.77 8.286.25 7.658-.006 6.898 0 6.006a4.575 4.575 0 0 1 .091-.962c.29-1.306.9-2.37 1.835-3.19C2.86 1.034 3.865.611 4.94.585zM16.58 3.432c.775.03 1.28.263 1.516.702.234.439.34.907.316 1.404-.03 1.054-.356 1.933-.981 2.636-.625.703-1.368 1.068-2.23 1.095-.542-.015-.944-.157-1.205-.427a1.913 1.913 0 0 1-.51-.923 3.586 3.586 0 0 1-.104-.886c-.001-.536.114-1.078.346-1.627a3.47 3.47 0 0 1 1.058-1.387c.473-.376 1.07-.571 1.794-.587zm36.366 0c.515.01.86.104 1.039.284.178.18.26.389.248.626.02.17-.03.386-.149.645-.12.26-.427.529-.923.807-.497.278-1.3.531-2.412.758-.006.06-.01.138-.01.236l-.003.206c.009.586.116 1.01.32 1.269.206.26.459.387.76.382.302 0 .584-.092.848-.276.263-.185.565-.466.906-.842.077 0 .136.016.178.05a.402.402 0 0 1 .108.158c-.357.502-.734.883-1.132 1.142a2.47 2.47 0 0 1-1.377.392c-.65-.013-1.097-.205-1.342-.574-.244-.369-.36-.836-.348-1.402 0-.568.12-1.146.36-1.735.239-.589.602-1.086 1.089-1.492.486-.406 1.1-.617 1.84-.634zm-8.65 0c.25 0 .444.009.584.024l.456.054c.132.03.278.042.436.037l.474-.011-.897 4.043c-.028.134-.056.282-.084.445a2.904 2.904 0 0 0-.046.348c.004.076.025.126.064.15.038.023.069.034.092.032.065-.001.16-.067.281-.197a5.92 5.92 0 0 0 .447-.557l.3.208a3.71 3.71 0 0 1-.696.835c-.29.266-.613.407-.969.426-.215-.01-.36-.076-.432-.2a.696.696 0 0 1-.1-.385c-.001-.079.01-.178.03-.3.02-.12.054-.259.1-.415l.207-.676-.026-.026c-.391.59-.775 1.068-1.152 1.435-.377.367-.738.556-1.084.567-.53-.028-.877-.23-1.04-.605a2.595 2.595 0 0 1-.22-1.15 4.149 4.149 0 0 1 .54-1.965 4.96 4.96 0 0 1 1.268-1.512c.5-.39.989-.592 1.467-.605zm40.425.104.026.026-.065.26c-.006.032-.017.055-.034.07-.017.014-.045.021-.083.021h-.338c-.22-.005-.369.035-.449.12-.08.086-.138.25-.175.49l-.585 3.056c-.045.228-.076.399-.093.51a1.68 1.68 0 0 0-.024.257c0 .067.01.122.03.166.022.044.055.066.1.068.095 0 .214-.062.356-.189.142-.126.322-.319.541-.578l.299.247c-.38.454-.715.771-1.004.95-.29.18-.553.266-.79.259a.639.639 0 0 1-.405-.135c-.114-.09-.174-.222-.18-.398 0-.124.013-.263.04-.42.028-.155.07-.367.129-.633l.65-2.99c.037-.154.054-.275.052-.364.002-.096-.028-.164-.09-.203-.06-.04-.165-.058-.313-.057h-.689c-.217-.01-.384.107-.499.348-.115.24-.239.662-.372 1.264-.126.545-.26 1.057-.405 1.536-.143.478-.282.85-.414 1.116-.145.306-.32.539-.526.697a1.101 1.101 0 0 1-.683.239.728.728 0 0 1-.474-.176.55.55 0 0 1-.2-.455.134.134 0 0 1 .011-.045.658.658 0 0 1 .167-.332.433.433 0 0 1 .314-.136.295.295 0 0 1 .23.1.36.36 0 0 1 .08.264.048.048 0 0 1-.011.026.5.5 0 0 0 .021.213c.021.055.057.084.109.086.059.001.123-.034.193-.106s.145-.188.223-.35c.117-.215.244-.53.38-.946.137-.416.283-.963.439-1.64.085-.368.15-.669.193-.904.044-.234.067-.418.067-.552.002-.17-.04-.281-.127-.333-.086-.052-.226-.075-.419-.07a.68.68 0 0 1-.205-.015c-.034-.012-.044-.046-.029-.102l.052-.234.039-.026.439.013c.271.008.54.012.809.013h2.353a36.9 36.9 0 0 0 .864-.013l.475-.013zm3.282-.104c.776.03 1.282.263 1.516.702.235.439.34.907.317 1.404-.03 1.054-.357 1.933-.981 2.636-.625.703-1.368 1.068-2.23 1.095-.542-.015-.944-.157-1.205-.427a1.913 1.913 0 0 1-.51-.923 3.586 3.586 0 0 1-.105-.886c0-.536.115-1.078.347-1.627a3.47 3.47 0 0 1 1.057-1.387c.473-.376 1.071-.571 1.794-.587zm-60.718 0c.776.03 1.28.263 1.516.702.235.439.34.907.317 1.404-.03 1.054-.357 1.933-.982 2.636-.624.703-1.368 1.068-2.23 1.095-.542-.015-.943-.157-1.205-.427a1.913 1.913 0 0 1-.51-.923 3.586 3.586 0 0 1-.104-.886c-.001-.536.114-1.078.346-1.627a3.47 3.47 0 0 1 1.058-1.387c.473-.376 1.07-.571 1.794-.587zm45.381-.04-.949 4.096c-.052.21-.09.394-.117.55a2.32 2.32 0 0 0-.039.334c.006.07.03.118.075.145.045.026.076.038.094.037.07-.001.161-.07.272-.206.11-.137.25-.332.417-.587l.3.208c-.233.412-.48.731-.738.957-.26.226-.538.34-.835.343-.217-.009-.366-.076-.446-.2a.66.66 0 0 1-.113-.385c-.001-.08.01-.19.032-.332a4.32 4.32 0 0 1 .11-.487l.196-.728-.04-.026c-.439.681-.84 1.21-1.205 1.586-.365.376-.825.567-1.381.572a.818.818 0 0 1-.621-.242c-.162-.165-.245-.43-.25-.798a3.365 3.365 0 0 1 .13-.871l.585-2.223a5.29 5.29 0 0 0 .115-.502 1.68 1.68 0 0 0 .028-.278c-.002-.07-.019-.118-.05-.145a.175.175 0 0 0-.12-.037c-.07 0-.17.061-.298.182-.13.12-.294.298-.494.533l-.286-.221c.236-.325.514-.608.835-.852.32-.243.631-.37.933-.383.215 0 .36.042.432.123.072.082.106.201.1.358a2.772 2.772 0 0 1-.06.486 9.833 9.833 0 0 1-.147.632l-.56 2.145c-.088.353-.132.635-.13.845.003.211.04.36.114.447a.35.35 0 0 0 .29.125c.319-.007.659-.237 1.02-.692.361-.455.78-1.096 1.255-1.921l.571-2.47a8.757 8.757 0 0 0 .975-.117zm-50.811.43c-.444.014-.823.197-1.139.547-.315.351-.557.785-.725 1.302a5.017 5.017 0 0 0-.255 1.544c0 .507.094.91.283 1.207.188.298.471.45.848.457.405-.014.755-.197 1.05-.55.294-.353.522-.792.682-1.318.16-.526.242-1.056.244-1.59.001-.482-.08-.867-.24-1.155a.822.822 0 0 0-.748-.444zm5.196.039c-.49.016-.871.195-1.144.535-.273.341-.464.747-.572 1.218-.109.47-.16.909-.156 1.315.018.806.143 1.329.375 1.566.232.238.457.344.678.319a1.36 1.36 0 0 0 1.122-.638c.267-.402.453-.85.559-1.346.105-.495.156-.896.152-1.201a3.61 3.61 0 0 0-.127-1.196c-.106-.36-.402-.55-.887-.572zm60.718 0c-.49.016-.87.195-1.144.535-.273.341-.463.747-.572 1.218-.108.47-.16.909-.156 1.315.02.806.144 1.329.376 1.566.231.238.457.344.677.319a1.36 1.36 0 0 0 1.123-.638c.267-.402.453-.85.559-1.346.105-.495.156-.896.151-1.201a3.61 3.61 0 0 0-.126-1.196c-.106-.36-.402-.55-.888-.572zm-71.423 0c-.49.016-.871.195-1.144.535-.273.341-.464.747-.572 1.218-.109.47-.16.909-.156 1.315.018.806.143 1.329.375 1.566.231.238.457.344.678.319a1.36 1.36 0 0 0 1.122-.638c.267-.402.453-.85.559-1.346.105-.495.156-.896.152-1.201a3.61 3.61 0 0 0-.127-1.196c-.106-.36-.402-.55-.887-.572zm16.15.026c-.462.006-.895.29-1.298.851-.403.562-.62 1.366-.653 2.412.001.453.083.83.245 1.13.163.302.397.457.704.469.528-.038.938-.34 1.23-.906a6.362 6.362 0 0 0 .608-1.815c.114-.645.169-1.103.164-1.374-.019-.3-.14-.504-.364-.613a1.36 1.36 0 0 0-.637-.154zm71.905 0c-.461.006-.893.29-1.296.851-.403.562-.621 1.366-.654 2.412.002.453.083.83.246 1.13.162.302.396.457.703.469.528-.038.938-.34 1.23-.906a6.362 6.362 0 0 0 .609-1.815c.114-.645.168-1.103.163-1.374-.019-.3-.14-.504-.364-.613a1.36 1.36 0 0 0-.637-.154zm14.819-.052c-.405.017-.778.215-1.121.594-.343.378-.62.833-.83 1.365-.21.531-.318 1.035-.324 1.512-.004.37.036.67.12.897.084.227.235.345.452.35.228-.02.542-.251.944-.691.402-.44.772-.964 1.11-1.57.161-.456.278-.928.35-1.417.071-.489.106-.753.105-.793a1.66 1.66 0 0 0-.393-.182 1.402 1.402 0 0 0-.413-.065zm-74.885 0c-.404.017-.778.215-1.121.594-.343.378-.62.833-.83 1.365-.21.531-.318 1.035-.324 1.512-.004.37.037.67.12.897.084.227.235.345.452.35.228-.02.543-.251.944-.691.402-.44.772-.964 1.11-1.57.161-.456.278-.928.35-1.417.071-.489.106-.753.105-.793a1.659 1.659 0 0 0-.393-.182 1.402 1.402 0 0 0-.413-.065zm55.195 0c-.321-.024-.65.125-.986.447-.336.322-.623.962-.86 1.919a4.128 4.128 0 0 0 1.099-.246c.386-.139.717-.342.992-.61.275-.267.419-.606.431-1.016.001-.186-.053-.315-.162-.388-.11-.074-.28-.109-.514-.106zm-46.883 0c-.321-.024-.65.125-.986.447-.336.322-.623.962-.86 1.919a4.128 4.128 0 0 0 1.1-.246c.385-.139.716-.342.991-.61.275-.267.419-.606.431-1.016.002-.186-.053-.315-.162-.388-.11-.074-.28-.109-.514-.106zm62.942-2.73c.153.001.28.047.379.138.099.09.15.218.154.382a.716.716 0 0 1-.214.504.697.697 0 0 1-.488.211.551.551 0 0 1-.4-.153.515.515 0 0 1-.146-.367.724.724 0 0 1 .715-.715z"/></svg>