<svg xmlns="http://www.w3.org/2000/svg" width="146" height="17"><path fill="#666" d="M26.057.702h-4.015l-3.615 8.41-3.814-8.41h-3.101l-3.905 8.41L4.016.702H0l6.693 15.415H8.32l4.71-9.927 4.684 9.927h1.63L26.056.702Zm5.818 0h-3.837v15.215h3.837V.702Zm16.465 0h-4.172l-4.841 6.893V.702h-3.815v15.215h3.815v-7.14l6.045 7.14h4.752L43.387 7.84 48.34.7Zm7.33 0h-3.838v15.215h3.837V.702Zm20.212 7.63C75.882 4.36 72.536.5 67.16.5c-5.8 0-8.745 4.283-8.745 7.83 0 3.972 3.413 7.786 8.678 7.786 5.912 0 8.79-4.26 8.79-7.786Zm-3.926.089c0 3.011-2.365 4.618-4.797 4.618-1.807 0-4.796-1.004-4.796-4.64 0-3.012 2.052-4.663 4.774-4.663 2.967 0 4.819 1.851 4.819 4.685ZM78.633.702v15.215h3.838V9.804h2.253c1.249 0 2.431 0 3.591-.714a4.539 4.539 0 0 0 2.187-3.882c0-1.74-1.026-3.19-2.32-3.882-1.16-.624-2.343-.624-3.324-.624h-6.225Zm5.176 2.81c1.093 0 2.766 0 2.766 1.719 0 1.784-1.628 1.784-2.855 1.784h-1.25V3.513h1.339ZM97.243.702h-3.837v15.215h3.837V.702Zm13.832.981C108.644.635 107.127.501 105.922.501c-3.815 0-5.756 2.008-5.756 4.328 0 3.212 2.767 4.283 4.953 5.042 2.008.691 2.878 1.004 2.878 2.008 0 1.36-1.785 1.383-2.276 1.383-2.231 0-3.971-1.071-5.287-1.896v3.279c.379.268 2.811 1.472 5.376 1.472 2.276 0 5.957-.981 5.957-4.506 0-2.945-2.275-4.105-4.194-4.797-2.186-.78-3.681-1.316-3.681-2.23 0-.157.067-1.25 2.298-1.25 1.941 0 3.837.96 4.885 1.473V1.683Zm17.254-.981h-14.858v2.855h5.51v12.36h3.86V3.557h5.488V.702ZM146 8.332C146 4.36 142.653.5 137.277.5c-5.8 0-8.745 4.283-8.745 7.83 0 3.972 3.413 7.786 8.678 7.786 5.912 0 8.79-4.26 8.79-7.786Zm-3.927.089c0 3.011-2.364 4.618-4.796 4.618-1.807 0-4.797-1.004-4.797-4.64 0-3.012 2.053-4.663 4.775-4.663 2.967 0 4.818 1.851 4.818 4.685Z"/></svg>