<?xml version="1.0" encoding="UTF-8"?>
<svg width="117px" height="11px" viewBox="0 0 117 11" version="1.1" xmlns="http://www.w3.org/2000/svg" xmlns:xlink="http://www.w3.org/1999/xlink">
    <title>kk-tagline</title>
    <g id="Page-1" stroke="none" stroke-width="1" fill="none" fill-rule="evenodd">
        <path d="M1.84281733,7.70652881 C1.84281733,7.88151062 1.98191549,8.00152433 2.28158336,8.02717611 L2.60925756,8.05007949 C2.65780189,8.05007949 2.69421014,8.08580876 2.68207405,8.14535754 L2.64566581,8.37164292 L2.60925756,8.39546244 C2.1844947,8.38355268 1.56555454,8.37164292 1.09224735,8.37164292 C0.64321233,8.37164292 0.449035023,8.38446881 0.0121360817,8.39546244 L0,8.37164292 L0.0485443268,8.14535754 C0.0606804085,8.08764103 0.0970886535,8.05007949 0.157769062,8.05007949 C0.667484493,8.01526635 1.00262706,7.89250424 1.4563298,7.15684773 L5.27919554,0.962858034 C5.47710702,0.643126869 5.58259758,0.534106787 5.75250272,0.534106787 C5.92240787,0.534106787 5.95881611,0.665114113 5.99522436,0.891399493 L7.11174387,7.34740383 C7.18456036,7.81188435 7.37873767,7.98961457 7.83990877,8.03908587 L7.96126959,8.05007949 C8.02195,8.05007949 8.07049432,8.08580876 8.05835824,8.14535754 L8.00981392,8.37164292 L7.98554175,8.39546244 C7.56077889,8.38355268 7.09960779,8.37164292 6.6263006,8.37164292 C6.17726558,8.37164292 5.50978109,8.38446881 5.07288215,8.39546244 L5.06074607,8.37164292 L5.10929039,8.14535754 C5.12142647,8.08764103 5.15783472,8.05007949 5.20637905,8.05007949 L5.54618933,8.02717611 C5.94201231,7.99694365 6.13992379,7.88151062 6.13992379,7.62590892 C6.13992379,7.59017965 6.13618961,7.55445038 6.12872125,7.51505657 L5.82531921,5.50230766 L3.39810287,5.50230766 C3.11897299,5.50230766 3.03402042,5.54994669 2.94906785,5.70477353 L1.92963699,7.43352054 C1.8736243,7.53337927 1.84281733,7.62590892 1.84281733,7.70652881 Z M5.7291641,5.00209787 L5.23158475,1.82127666 L5.20731259,1.82127666 L3.44758075,4.84727103 C3.42890985,4.87567122 3.42144149,4.89949074 3.42144149,4.91872957 C3.42144149,4.98011063 3.51012824,5.00209787 3.70243846,5.00209787 L5.7291641,5.00209787 Z M12.5010977,6.91956872 L12.4768255,6.89666535 C11.7729328,7.77890349 11.1297205,8.49257276 10.2680587,8.49257276 C9.89184012,8.49257276 9.4428051,8.19574498 9.4428051,7.39779127 C9.4428051,7.17058975 9.49134943,6.86093607 9.55202984,6.58701167 L10.0010649,4.74008322 C10.0785491,4.42126819 10.1345618,4.22796368 10.1345618,4.12077587 C10.1345618,3.97785878 10.0981535,3.91831 10.0132009,3.91831 C9.89184012,3.91831 9.50348551,4.09512408 9.18794739,4.45333292 C9.01804224,4.45333292 8.94522575,4.35805487 8.90881751,4.24995092 C9.46707726,3.54727527 10.1588339,3.14234354 10.7413658,3.14234354 C11.1054483,3.14234354 11.1782648,3.30999627 11.1782648,3.53719778 C11.1782648,3.76256703 11.0326318,4.24995092 10.9355431,4.63106314 L10.4865081,6.50089496 C10.4015556,6.86001994 10.3651473,7.14402183 10.3651473,7.27686143 C10.3651473,7.70469654 10.5835968,7.90716241 10.8141823,7.90716241 C11.2025369,7.90716241 11.651572,7.41886238 12.6831389,6.00160131 L13.0957657,4.11985973 C13.1928543,3.67919873 13.1928543,3.14325967 13.6540254,3.14325967 C14.0423801,3.14325967 14.1637409,3.26235724 14.1637409,3.46665538 C14.1637409,3.60774019 14.0545161,3.96594903 14.0059718,4.18032465 L13.4598481,6.5512824 C13.3776962,6.9085751 13.3748956,7.20631902 13.3748956,7.3492361 C13.3748956,7.67079954 13.5083925,7.87143314 13.7268419,7.87143314 C14.333646,7.87143314 14.928314,6.93239462 15.8263841,5.42993298 L16.1783304,4.11985973 C16.2996913,3.66728897 16.2754191,3.14325967 16.7365902,3.14325967 C17.1249448,3.14325967 17.2463056,3.26235724 17.2463056,3.46665538 C17.2463056,3.60774019 17.1324132,3.9677813 17.0885366,4.18032465 L16.408916,6.89666535 C16.3360995,7.20631902 16.2754191,7.40878489 16.2754191,7.5159727 C16.2754191,7.65888978 16.3118273,7.71843857 16.3967799,7.71843857 C16.5181407,7.71843857 16.8700871,7.54162448 17.1856252,7.18249951 C17.3555304,7.18249951 17.4283469,7.27777756 17.4647551,7.38496538 C16.9064953,8.0894733 16.3603717,8.4934889 15.7778397,8.4934889 C15.4137573,8.4934889 15.3288047,8.32583617 15.3288047,8.09955079 C15.3288047,7.87326541 15.4258934,7.38496538 15.5351181,7.00385316 L15.668615,6.53937264 L15.6322068,6.51646926 C14.770545,7.75600011 14.2972378,8.4934889 13.2171265,8.4934889 C12.7559554,8.4934889 12.404009,8.21864835 12.404009,7.54162448 C12.404009,7.44726257 12.4282812,7.13394435 12.5010977,6.91956872 Z M20.0982848,5.6571345 L20.122557,5.6571345 C20.8507219,4.97827836 21.5424785,4.62098565 22.0157857,4.62098565 C22.5861816,4.62098565 22.9381279,5.15692471 22.9381279,5.80005158 C22.9381279,7.3125907 21.4089816,8.51547614 19.9638544,8.51547614 C19.3691864,8.51547614 18.8594709,8.17009319 18.8594709,7.51505657 C18.8594709,7.33641021 18.8958792,7.11012483 18.9444235,6.90765897 L19.466275,4.54952711 C19.5390915,4.21605392 19.5754998,4.05023346 19.5754998,3.94212951 C19.5754998,3.82303195 19.5026833,3.71584413 19.3570503,3.70393438 L18.871607,3.66820511 C18.7987905,3.56101729 18.7782526,3.43000997 18.8594709,3.33473191 C19.4298668,3.26327337 19.9759905,3.17990508 20.3643451,3.17990508 C20.5249148,3.17990508 20.6136015,3.26968632 20.6136015,3.43000997 C20.6136015,3.63522424 20.4819717,4.09695635 20.3680793,4.55777233 L20.0982848,5.6571345 Z M21.9915136,6.06206623 C21.9915136,5.52521104 21.7366559,5.25128663 21.4453899,5.25128663 C21.2148043,5.25128663 20.8992662,5.39328758 20.425959,5.81012907 C20.2924621,5.92922664 19.7706106,6.40470077 19.7706106,7.29884867 C19.7706106,7.79905846 20.0618766,8.10963124 20.4623673,8.10963124 C21.1419879,8.11146054 21.9915136,7.26495167 21.9915136,6.06206623 Z M25.171167,7.18158337 C25.3410721,7.18158337 25.4138886,7.27686143 25.4502969,7.38404924 C24.8920371,8.08855716 24.3459134,8.49257276 23.7633815,8.49257276 C23.399299,8.49257276 23.2658021,8.32492003 23.2658021,8.09863465 C23.2658021,7.87234927 23.387163,7.38404924 23.4721155,7.00293702 L24.0546475,4.53853349 C24.1153279,4.30033835 24.1881444,3.95495541 24.1881444,3.62239835 C24.1881444,3.50238465 24.1760083,3.38237094 24.1517361,3.26327337 L24.1881444,3.24128613 C24.2366887,3.25319589 24.4794103,3.26327337 24.6129072,3.26327337 C24.8313567,3.26327337 25.0740783,3.21563435 25.2682556,3.14417581 L25.0133979,4.28751246 L24.3879229,6.91956872 C24.3151064,7.22739013 24.2665621,7.43535281 24.2665621,7.56269559 C24.2665621,7.66896727 24.3011033,7.71752243 24.3832552,7.71752243 C24.5158186,7.71752243 24.8556288,7.54070835 25.171167,7.18158337 Z M27.5731776,4.0850466 C27.5974498,4.00076216 27.6095858,3.93021976 27.6095858,3.88258073 C27.6095858,3.67828259 27.488225,3.58392067 27.1726869,3.58392067 L27.0755983,3.58392067 C27.0149178,3.58392067 26.9906457,3.54910754 27.0027818,3.48864262 L27.0634622,3.26235724 L27.0877343,3.24037 C27.0877343,3.24037 27.7673549,3.26235724 28.2042539,3.26235724 C28.677561,3.26235724 29.3814538,3.24037 29.3814538,3.24037 L29.4057259,3.26235724 L29.3450455,3.48864262 C29.3329094,3.5481914 29.272229,3.58392067 29.2236847,3.58392067 L29.1265961,3.58392067 C28.7261054,3.58392067 28.5683363,3.73966365 28.4833837,4.0850466 L28.1557095,5.46657839 L28.3862951,5.46657839 C29.0780517,5.46657839 29.563495,5.29984179 30.3523403,4.26369295 C30.9227362,3.53719778 31.3717712,3.21380208 31.796534,3.21380208 C32.1727526,3.21380208 32.3183855,3.35671916 32.3183855,3.55918502 C32.3183855,3.5949143 32.3062495,3.64255332 32.2941134,3.67828259 C32.2455691,3.91831 32.0028474,4.14367924 31.7115815,4.14367924 C31.4688598,4.14367924 31.2504104,4.04840119 31.1411856,4.04840119 C30.9834166,4.04840119 30.7892393,4.29758995 30.5829259,4.56052073 C30.1058845,5.16608606 29.5513589,5.61041161 29.0901878,5.66812812 C29.5756311,5.66812812 30.1338908,5.91823301 30.2431156,6.5018111 C30.3159321,6.95438186 30.5465176,8.040002 31.0076887,8.040002 C31.1290495,8.040002 31.347499,8.06198925 31.347499,8.24246787 C31.347499,8.25437762 31.347499,8.27819714 31.3353629,8.2901069 L31.0198248,9.89792407 L30.7406949,9.89792407 C30.752831,9.80264601 30.7649671,9.70736796 30.7649671,9.60109628 C30.7649671,9.13569963 30.6436063,8.63548984 30.2552517,8.51639228 C29.709128,8.34782341 29.5149507,7.5159727 29.4421342,7.02767267 C29.3086373,6.32408088 29.2236847,5.87151012 28.070757,5.87151012 L27.6824023,7.5159727 C27.6581302,7.599341 27.6459941,7.65888978 27.6459941,7.71843857 C27.6459941,7.93281419 27.7673549,8.04091814 28.070757,8.04091814 L28.1809152,8.04091814 C28.2294596,8.04091814 28.2658678,8.07664741 28.2537317,8.13619619 L28.2051874,8.36248157 L28.1809152,8.38538495 C28.1809152,8.38538495 27.4770225,8.36248157 27.0037153,8.36248157 C26.5668164,8.36248157 25.8871958,8.38538495 25.8871958,8.38538495 L25.8629236,8.36248157 L25.911468,8.13619619 C25.9357401,8.07847968 25.9721484,8.04091814 26.0328288,8.04091814 L26.1299174,8.04091814 C26.5304081,8.04091814 26.6881772,7.86318792 26.7731298,7.51688884 L27.5731776,4.0850466 Z M36.0086879,7.50497908 C36.0086879,7.87234927 36.2878178,8.09863465 36.7489889,8.09863465 C37.804828,8.09863465 38.5208568,6.82429067 38.7393063,5.89532964 C38.4601764,6.03824672 38.0354136,6.22880283 37.6834672,6.22880283 C37.1858878,6.22880283 36.9431662,5.90632326 36.5426755,5.90632326 C36.4091786,5.90632326 36.2756817,5.96495591 36.1907291,5.96495591 C36.1179127,5.96495591 36.1300487,5.85776809 36.1421848,5.81012907 C36.1907291,5.63239885 36.7489889,5.41710709 37.2344322,5.41710709 C37.7441476,5.41710709 37.8776445,5.64247634 38.3145434,5.64247634 C38.4844486,5.64247634 38.6543537,5.61957296 38.7999867,5.56002417 C38.8242589,5.36855193 38.848531,5.16516993 38.848531,4.96453633 C38.848531,4.22521527 38.6179455,3.53444938 37.8169641,3.53444938 C36.906758,3.53444938 36.6761724,3.91556159 36.3484982,4.64205676 L36.020824,4.5935016 C36.2028652,4.07130457 36.2150013,3.93846497 36.3970425,3.28342835 C37.1858878,3.28342835 37.21016,3.14051126 38.0232775,3.14051126 C39.1519331,3.14051126 39.7708732,3.96136835 39.7708732,4.98743971 C39.7708732,6.01992401 39.2490217,7.24021602 38.399496,7.92914965 C37.9037838,8.33041684 37.2792423,8.48890822 36.6276281,8.48890822 C35.7902385,8.48890822 35.2441148,8.07206673 35.2441148,7.53612767 C35.2441148,7.07073102 35.5960611,6.99927248 35.6810137,6.99927248 C35.7902385,6.99927248 36.0086879,7.03500175 36.0086879,7.36847494 L36.0086879,7.50497908 Z M41.4568551,4.54952711 C41.5418076,4.21605392 41.5660798,4.05023346 41.5660798,3.94212951 C41.5660798,3.82303195 41.4932633,3.71584413 41.3476303,3.70393438 L40.8621871,3.66820511 C40.7893706,3.56101729 40.7688326,3.43000997 40.850051,3.33473191 C41.4204468,3.26327337 41.9665705,3.17990508 42.3549251,3.17990508 C42.5145613,3.17990508 42.6041816,3.26968632 42.6041816,3.43000997 C42.6041816,3.63522424 42.4641498,4.09695635 42.3586593,4.55777233 L42.164482,5.38137782 L44.2938975,5.38137782 L44.5758281,4.11802746 C44.6766509,3.66728897 44.6729167,3.14234354 45.1340878,3.14234354 C45.5224424,3.14234354 45.6438032,3.2614411 45.6438032,3.46573924 C45.6438032,3.60682405 45.5299108,3.96686516 45.4860342,4.17849238 L44.8064136,6.89574921 C44.7335971,7.20540289 44.6729167,7.40786875 44.6729167,7.51505657 C44.6729167,7.65797365 44.709325,7.71752243 44.7942775,7.71752243 C44.9156383,7.71752243 45.2675847,7.54070835 45.5831228,7.18158337 C45.753028,7.18158337 45.8258445,7.27686143 45.8622527,7.38404924 C45.303993,8.08855716 44.7578693,8.49257276 44.1753374,8.49257276 C43.8112549,8.49257276 43.7263023,8.32492003 43.7263023,8.09863465 C43.7263023,7.87234927 43.8504638,7.37213948 43.9326157,7.00293702 L44.1893405,5.84860674 L42.0533902,5.84860674 L41.6613014,7.51505657 C41.5530102,7.96762733 41.5651462,8.49074049 41.1039751,8.49074049 C40.7184212,8.49074049 40.5830572,8.36522998 40.5830572,8.16642865 C40.5830572,8.04916335 40.6792123,7.75233557 40.7370921,7.51414043 L41.4568551,4.54952711 Z M51.8574771,4.18032465 L51.1778565,6.89666535 C51.10504,7.20631902 51.0443596,7.46924981 51.0443596,7.57460535 C51.0443596,7.71752243 51.0807678,7.77890349 51.1657204,7.77890349 C51.2870812,7.77890349 51.6390276,7.54070835 51.9545657,7.18341564 C52.1244709,7.18341564 52.1972874,7.2786937 52.2336956,7.38588151 C52.0563221,7.60850235 51.8817492,7.80089073 51.7062428,7.96029824 C51.6576985,8.11054441 51.6278251,8.26537125 51.6278251,8.4101206 C51.6278251,8.62358009 51.6520972,8.77932306 51.6763694,8.91033039 C51.7127776,9.06607336 51.7370498,9.20807431 51.7370498,9.38763679 C51.7370498,9.70920023 51.615689,10.0903124 50.4748973,10.5309735 L50.3414004,10.1975003 C50.6933468,10.0298475 51.0331571,9.85211731 51.0331571,9.49482461 C51.0331571,9.42336607 51.021021,9.32625574 51.021021,9.18517093 C51.021021,8.90391744 51.0901033,8.6318253 51.2366698,8.30293279 C51.010752,8.4284433 50.7820335,8.4934889 50.5477138,8.4934889 C50.1836313,8.4934889 50.0986788,8.32583617 50.0986788,8.09955079 C50.0986788,7.87326541 50.1957674,7.38496538 50.3049922,7.00385316 L50.4384891,6.53937264 L50.4020808,6.5173854 C49.540419,7.75600011 48.9336149,8.4934889 47.9870006,8.4934889 C47.5622377,8.4934889 47.1738831,8.21864835 47.1738831,7.54070835 C47.1738831,7.3153391 47.213092,7.05240832 47.2952439,6.74275464 L47.8292315,4.74099936 C47.9113834,4.43134568 47.9870006,4.16933103 47.9870006,4.06214322 C47.9870006,3.92105841 47.9505923,3.85967735 47.8656397,3.85967735 C47.7442789,3.85967735 47.3437882,4.09787249 47.0282501,4.45516519 C46.858345,4.45516519 46.7855285,4.35988714 46.7491202,4.25086706 C47.30738,3.5481914 47.9991366,3.14325967 48.5816686,3.14325967 C48.945751,3.14325967 49.0185675,3.31182854 49.0185675,3.53719778 C49.0185675,3.76256703 48.8607984,4.25086706 48.7637098,4.63197928 L48.2409247,6.57418578 C48.1559722,6.89666535 48.1317,7.1458541 48.1317,7.33641021 C48.1317,7.65888978 48.277333,7.77615508 48.4957824,7.77615508 C49.1025865,7.77615508 49.6972545,6.93147848 50.5953246,5.42901685 L50.9472709,4.1189436 C51.0686318,3.66637284 51.0443596,3.14234354 51.5055307,3.14234354 C51.8938853,3.14234354 52.0152461,3.2614411 52.0152461,3.46573924 C52.0161797,3.60957246 51.9013537,3.96686516 51.8574771,4.18032465 Z M57.5007551,6.89666535 C57.4279386,7.20631902 57.3672582,7.46924981 57.3672582,7.57460535 C57.3672582,7.71752243 57.4036664,7.77890349 57.488619,7.77890349 C57.6099798,7.77890349 57.9619262,7.54070835 58.2774643,7.18341564 C58.4473694,7.18341564 58.5201859,7.2786937 58.5565942,7.38588151 C57.9983344,8.0894733 57.4522107,8.49532117 56.8696788,8.49532117 C56.5055964,8.49532117 56.4206438,8.3267523 56.4206438,8.10046692 C56.4206438,7.87418154 56.5177324,7.38588151 56.6269572,7.00476929 L56.7604541,6.54028878 L56.7240458,6.51830153 C55.862384,7.75691624 55.2555799,8.49532117 54.3089656,8.49532117 C53.8842027,8.49532117 53.4958481,8.21956449 53.4958481,7.54162448 C53.4958481,7.31625524 53.535057,7.05332445 53.6172089,6.74367078 L54.1511965,4.74191549 C54.2333484,4.43226181 54.3089656,4.17024716 54.3089656,4.06305935 C54.3089656,3.92197454 54.2725573,3.86059349 54.1876048,3.86059349 C54.0662439,3.86059349 53.6657532,4.09878862 53.3502151,4.45608133 C53.18031,4.45608133 53.1074935,4.36080327 53.0710852,4.25178319 C53.629345,3.54910754 54.3211017,3.14417581 54.9036336,3.14417581 C55.267716,3.14417581 55.3405325,3.31274467 55.3405325,3.53811392 C55.3405325,3.76348316 55.1827635,4.25178319 55.0856748,4.63289541 L54.5638233,6.57418578 C54.4788707,6.89666535 54.4545986,7.1458541 54.4545986,7.33641021 C54.4545986,7.65888978 54.6002315,7.77615508 54.818681,7.77615508 C55.4254851,7.77615508 56.0201531,6.93147848 56.9182231,5.42901685 L57.2701695,4.1189436 C57.3915303,3.66637284 57.3672582,3.14234354 57.8284293,3.14234354 C58.2167839,3.14234354 58.3381447,3.2614411 58.3381447,3.46573924 C58.3381447,3.60682405 58.2233187,3.96686516 58.1803756,4.17940852 L57.5007551,6.89666535 Z M70.5012992,3.24128613 C70.5255713,3.34847394 70.5097011,3.5637657 70.4527549,3.58666908 L70.1008085,3.62239835 C69.6797798,3.6654567 69.6060298,3.69385689 69.5182766,4.14459538 L68.984289,6.89666535 C68.9254757,7.20631902 68.8498585,7.46924981 68.8498585,7.57460535 C68.8498585,7.71752243 68.8862668,7.77890349 68.9721529,7.77890349 C69.0935137,7.77890349 69.4454601,7.54070835 69.7609982,7.18341564 C69.9318369,7.18341564 70.0046534,7.2786937 70.0410616,7.38588151 C69.4818683,8.0894733 68.9357446,8.49532117 68.3532127,8.49532117 C67.9872632,8.49532117 67.9041777,8.3267523 67.9041777,8.10046692 C67.9041777,7.87418154 68.0395417,7.39779127 68.1123582,7.00476929 L68.641678,4.30033835 C68.6659502,4.15742127 68.6911559,4.0511496 68.6911559,3.9677813 C68.6911559,3.78913495 68.5940673,3.72958616 68.3158709,3.72958616 L67.6726586,3.72958616 C67.2478957,3.72958616 67.1274685,4.08687887 66.8595411,5.20456374 C66.628022,6.18024766 66.3376896,7.17058975 66.0968351,7.63415413 C65.8298413,8.19299657 65.4293506,8.49257276 64.9681795,8.49257276 C64.6283692,8.49257276 64.3361697,8.24246787 64.3361697,7.95571757 C64.3361697,7.93281419 64.3361697,7.89708492 64.3492393,7.87234927 C64.3977836,7.63415413 64.5658217,7.44359802 64.7973408,7.44359802 C64.9784485,7.44359802 65.0895403,7.58651511 65.0895403,7.7532517 C65.0895403,7.76516146 65.0895403,7.78898097 65.0764707,7.80089073 C65.063401,7.95571757 65.0998093,8.07573127 65.198765,8.07573127 C65.3061227,8.07573127 65.4414867,7.95571757 65.5871196,7.65888978 C65.803702,7.25487419 66.0604268,6.5384565 66.3507592,5.28793204 C66.5075948,4.60999203 66.5934809,4.20414416 66.5934809,3.95495541 C66.5934809,3.63247584 66.3507592,3.63247584 65.9754743,3.58666908 C65.9026578,3.53811392 65.8895881,3.29991878 65.9512021,3.24128613 C66.4002371,3.25319589 66.6560284,3.26327337 67.1162659,3.26327337 L69.3138303,3.26327337 C69.7992735,3.26327337 70.5012992,3.24128613 70.5012992,3.24128613 Z M64.1513278,3.14051126 C64.5396824,3.14051126 64.6741129,3.2953381 64.6741129,3.50971373 C64.6741129,3.9027357 64.3090969,4.1400147 64.0785113,4.1400147 C63.7041599,4.14459538 63.7993815,3.94212951 63.519318,3.94212951 C63.3988908,3.94212951 63.1561691,4.20414416 62.9377197,4.57334663 C62.6343176,5.08546617 62.245963,5.58475982 61.6867697,5.66721199 C62.3430517,5.66721199 62.7556784,5.91731688 62.8751722,6.50089496 C62.9610583,6.95346572 63.1897767,7.97404027 63.6397453,8.03908587 L63.7246979,8.05007949 C63.7881789,8.06107311 63.8460587,8.07481514 63.8460587,8.14535754 L63.7872454,8.37164292 L63.7629732,8.39546244 L62.9265171,8.37164292 C62.3775928,8.35515249 62.1255357,7.51414043 62.0275135,7.0258404 C61.9033521,6.4028685 61.7651875,5.95304615 60.9081934,5.87151012 L60.5217059,7.51414043 L60.4987509,7.61956186 L60.4987509,7.61956186 L60.4589344,7.83143302 C60.3939815,8.18028994 60.3181931,8.48982436 59.9634461,8.48982436 C59.5788257,8.48982436 59.4425281,8.36431384 59.4425281,8.16551252 C59.4425281,8.04824722 59.5386832,7.75141943 59.596563,7.5132243 L60.3153925,4.54769484 C60.4012786,4.21422165 60.4246172,4.04840119 60.4246172,3.94029724 C60.4246172,3.82119968 60.3518007,3.71401186 60.2080348,3.70210211 L59.721658,3.66637284 C59.6488415,3.55918502 59.6283035,3.4281777 59.7085884,3.33289964 C60.2789842,3.2614411 60.8260414,3.17807281 61.2143961,3.17807281 C61.3730987,3.17807281 61.462719,3.26785405 61.462719,3.4281777 C61.462719,3.63339197 61.3236208,4.09512408 61.2181302,4.55594006 L61.0043485,5.46291385 C61.7913267,5.44550728 62.2655674,4.98560744 62.6707259,4.34339671 C63.0236058,3.78363813 63.5557263,3.14051126 64.1513278,3.14051126 Z M74.0917123,3.14417581 C75.5853839,3.14417581 75.8019662,4.21605392 75.8019662,5.07264028 C75.8019662,6.48073999 74.9795133,7.74225808 73.9208736,8.26445511 C73.5642595,8.44035306 73.1964429,8.49074049 72.8043541,8.49074049 C71.2649388,8.49074049 71.1071636,7.07256329 71.1071636,6.44317845 C71.1043691,5.01400763 72.0640531,3.14417581 74.0917123,3.14417581 Z M73.1077561,8.07573127 C73.6053355,8.07573127 73.9936901,7.82654251 74.284956,7.32633273 C74.6891809,6.63556683 74.795605,5.62873431 74.795605,5.15875698 C74.795605,4.79596747 74.7330575,4.37729371 74.5780891,4.07496911 C74.4053833,3.74057978 74.2382788,3.53811392 73.8741963,3.53811392 C72.4916166,3.53811392 72.1135219,5.27602228 72.1135219,6.3479004 C72.1107303,7.59842486 72.7558097,8.07573127 73.1077561,8.07573127 Z M80.7049432,7.57460535 C80.7049432,7.71752243 80.7413515,7.77890349 80.8272376,7.77890349 C80.949532,7.77890349 81.3014783,7.54070835 81.6170165,7.18341564 C81.7869216,7.18341564 81.8597381,7.2786937 81.8961463,7.38588151 C81.3378866,8.0894733 80.7553547,8.49440503 80.1728227,8.49440503 C79.8078067,8.49440503 79.6752434,8.3267523 79.6752434,8.10046692 C79.6752434,7.87418154 79.7844681,7.38588151 79.8815568,7.00476929 L80.3427279,5.0992082 C80.4398165,4.69610874 80.500497,4.45699746 80.500497,4.28934473 C80.500497,3.92197454 80.3305918,3.86059349 80.0766676,3.86059349 C79.6388352,3.86059349 78.9713507,4.56418527 78.2077111,5.5398692 L77.7446729,7.5159727 C77.6373152,7.96854346 77.6485178,8.49257276 77.1873466,8.49257276 C76.8008591,8.49257276 76.6664287,8.36706225 76.6664287,8.16826092 C76.6664287,8.05191176 76.7625838,7.75416784 76.81953,7.51505657 L77.5010177,4.55044325 C77.5738342,4.21697006 77.6102424,4.0511496 77.6102424,3.94304565 C77.6102424,3.82394808 77.5374259,3.71676027 77.3917929,3.70485051 L76.9063497,3.66912124 C76.8335332,3.56193343 76.8111281,3.43000997 76.8932801,3.33564805 C77.4627423,3.26418951 78.0350053,3.18082121 78.4233599,3.18082121 C78.582996,3.18082121 78.6735499,3.26968632 78.6735499,3.43184224 C78.6735499,3.63614038 78.5204485,4.09787249 78.4037555,4.55868846 L78.3748156,4.66770855 L78.3888187,4.68053444 C79.5034712,3.39519683 80.0271898,3.14325967 80.658266,3.14325967 C81.1325067,3.14325967 81.4592474,3.38145481 81.4592474,4.09604022 C81.4592474,4.31041584 81.398567,4.58434025 81.3014783,5.00118174 L80.8403072,6.89483307 C80.7656237,7.20540289 80.7049432,7.46924981 80.7049432,7.57460535 Z M83.8845967,6.40744918 C83.8845967,7.49123705 84.2608152,7.77615508 84.8069389,7.77615508 C85.3894708,7.77615508 85.7638222,7.58651511 86.457446,6.89574921 C86.603079,6.89574921 86.6758954,6.95346572 86.7365759,7.08538918 C86.020547,7.98961457 85.1831574,8.49074049 84.3700399,8.49074049 C83.1937735,8.49074049 82.8782354,7.69370292 82.8782354,6.67954132 C82.8782354,5.1670022 83.8117802,3.14234354 85.8870501,3.14234354 C86.8719398,3.14234354 87.0885222,3.55918502 87.0885222,3.97602651 C87.0885222,4.42859727 87.0661171,5.39328758 83.8976663,6.00068518 C83.8845967,6.0977955 83.8845967,6.3479004 83.8845967,6.40744918 Z M85.6069867,3.51337827 C85.0982048,3.51337827 84.4092488,3.86517416 83.9807518,5.54628215 C84.903094,5.43084912 86.238063,5.03782714 86.238063,3.96503289 C86.238063,3.61964994 86.0438856,3.51337827 85.6069867,3.51337827 Z M91.7123693,3.32282216 C91.7366415,3.21563435 91.7366415,3.12035629 91.7366415,3.02507824 C91.7366415,1.70401136 90.8619101,1.52444888 89.8434128,1.17906593 C89.2758176,0.985761412 89.1161814,0.557926301 89.1161814,0.176814082 C89.1161814,0.071458541 89.13952,-8.8817842e-16 89.1647257,-8.8817842e-16 L89.1787289,-8.8817842e-16 C89.9666407,0.439744868 90.8768468,0.321563435 91.7749168,1.71408885 C92.2715626,2.45340991 92.4918792,3.29808651 92.5021482,4.19223441 C92.5021482,5.66721199 91.8925435,7.04599537 91.142907,7.71752243 C90.6798689,8.13161552 90.2214984,8.51547614 89.3234283,8.51547614 C88.2535861,8.51547614 87.8185542,7.62224438 87.8185542,6.68137359 C87.8185542,5.19265398 88.7296939,4.00076216 89.6146943,3.52528802 C90.1738876,3.22846024 90.6593309,3.10844654 90.9141886,3.10844654 C91.2035875,3.10844654 91.4929863,3.1570017 91.7123693,3.32282216 Z M90.630391,3.56101729 C89.8182071,3.56101729 88.8221148,4.6457213 88.8109123,6.5512824 C88.8109123,7.362062 89.1273839,8.01709862 89.6968462,8.01709862 C91.1905178,8.01709862 91.5658028,4.90681982 91.5658028,4.26460908 C91.5658028,3.70393438 90.9720684,3.56101729 90.630391,3.56101729 Z M97.8046824,6.89666535 C97.7318659,7.20631902 97.6702519,7.46924981 97.6702519,7.57460535 C97.6702519,7.71752243 97.7066602,7.77890349 97.7916127,7.77890349 C97.9129735,7.77890349 98.2649199,7.54070835 98.5813916,7.18341564 C98.7522303,7.18341564 98.8250468,7.2786937 98.861455,7.38588151 C98.3013282,8.0894733 97.7552045,8.49532117 97.1726726,8.49532117 C96.8076566,8.49532117 96.7245711,8.3267523 96.7245711,8.10046692 C96.7245711,7.87418154 96.8216597,7.38588151 96.9308845,7.00476929 L97.0653149,6.54028878 L97.0298402,6.51830153 C96.1672449,7.75691624 95.5623079,8.49532117 94.6138264,8.49532117 C94.1890636,8.49532117 93.8007089,8.21956449 93.8007089,7.54162448 C93.8007089,7.31625524 93.8399178,7.05332445 93.9230033,6.74367078 L94.4560574,4.74191549 C94.5391428,4.43226181 94.6138264,4.17024716 94.6138264,4.06305935 C94.6138264,3.92197454 94.5774182,3.86059349 94.4924656,3.86059349 C94.3711048,3.86059349 93.9696805,4.09878862 93.6560095,4.45608133 C93.4842373,4.45608133 93.4114208,4.36080327 93.3750125,4.25178319 C93.9351394,3.54910754 94.6259625,3.14417581 95.209428,3.14417581 C95.5725769,3.14417581 95.6453934,3.31274467 95.6453934,3.53811392 C95.6453934,3.76348316 95.4885578,4.25178319 95.3914692,4.63289541 L94.8658835,6.57418578 C94.7818645,6.89666535 94.7575923,7.1458541 94.7575923,7.33641021 C94.7575923,7.65888978 94.9022917,7.77615508 95.1216748,7.77615508 C95.7284788,7.77615508 96.3231468,6.93147848 97.2221504,5.42901685 L97.5740968,4.1189436 C97.6963912,3.66637284 97.6711855,3.14234354 98.1323566,3.14234354 C98.5207112,3.14234354 98.6430055,3.2614411 98.6430055,3.46573924 C98.6430055,3.60682405 98.5281795,3.96686516 98.4843029,4.17940852 L97.8046824,6.89666535 Z M102.526552,6.05015647 L102.160602,6.05015647 C101.674225,6.05015647 101.29894,6.65755407 100.874177,7.37213948 C100.595048,7.86043951 100.110538,8.35973317 99.7221833,8.37255906 L99.0052209,8.39637857 C98.955743,8.32492003 98.945474,8.13436392 99.0052209,8.05007949 L99.16299,8.03908587 C99.5289395,8.01526635 100.097468,7.20540289 100.388734,6.75283213 C100.691203,6.2645321 101.006741,6.01351107 101.358687,5.94205253 C100.87231,5.89349737 100.157215,5.51238515 100.157215,4.83444514 C100.157215,3.90456797 101.052485,3.25044748 102.171805,3.25044748 L103.603862,3.26235724 L104.624227,3.24037 L104.636363,3.26235724 L104.636363,3.54910754 C104.636363,3.57201092 104.613024,3.58483681 104.576616,3.58483681 L104.273214,3.58483681 C103.981014,3.58483681 103.957676,3.69202462 103.897929,3.94212951 L103.180967,6.89758148 C103.10815,7.20723516 103.046536,7.46833367 103.046536,7.57460535 C103.046536,7.71752243 103.082944,7.77798735 103.167897,7.77798735 C103.289258,7.77798735 103.642138,7.53979221 103.957676,7.18341564 C104.127581,7.18341564 104.200397,7.2786937 104.236806,7.38588151 C103.677612,8.09038943 103.131489,8.49440503 102.548957,8.49440503 C102.184874,8.49440503 102.101789,8.3267523 102.101789,8.10046692 C102.101789,7.87418154 102.222216,7.39687513 102.308102,7.00476929 L102.526552,6.05015647 Z M103.059606,3.63247584 C102.900903,3.59674657 102.730998,3.57384319 102.573229,3.57384319 C101.565934,3.57384319 100.983402,4.13268562 100.983402,4.66862468 C100.983402,5.1825765 101.23826,5.63514726 101.808656,5.63514726 L102.585365,5.63514726 L103.059606,3.63247584 Z M105.498025,7.92090443 C105.211426,7.52879859 105.121806,6.9919434 105.121806,6.59983756 C105.121806,4.62281792 106.468911,3.14509194 107.864561,3.14509194 C109.016555,3.14509194 109.248074,3.84868373 109.248074,4.31224811 C109.248074,4.71534757 108.943738,4.84818717 108.615131,4.84818717 C108.408817,4.84818717 108.286523,4.65763106 108.286523,4.46707495 C108.286523,4.39561641 108.315463,4.26827362 108.34627,4.21697006 C108.382678,4.15925354 108.40695,4.06214322 108.40695,3.99160081 C108.40695,3.5976627 108.06714,3.5142944 107.897235,3.5142944 C106.961823,3.5142944 106.113231,4.562353 106.113231,6.33690677 C106.113231,7.05607286 106.235525,7.28693892 106.416633,7.5159727 C106.591205,7.7376774 106.820858,7.83753614 107.02157,7.83753614 C107.373516,7.83753614 107.91964,7.69553519 108.394814,7.17058975 C108.502172,7.17058975 108.624466,7.27777756 108.660874,7.395959 C107.970051,8.13528006 107.519149,8.49165938 106.646285,8.49165938 C106.158041,8.49257276 105.748215,8.26445511 105.498025,7.92090443 Z M111.542727,5.6571345 L111.566065,5.6571345 C112.293297,4.97827836 112.985987,4.62098565 113.458361,4.62098565 C114.027823,4.62098565 114.380703,5.15692471 114.380703,5.80005158 C114.380703,7.3125907 112.850623,8.51547614 111.406429,8.51547614 C110.811761,8.51547614 110.301112,8.17009319 110.301112,7.51505657 C110.301112,7.33641021 110.337521,7.11012483 110.386998,6.90765897 L110.90885,4.54952711 C110.981666,4.21605392 111.018075,4.05023346 111.018075,3.94212951 C111.018075,3.82303195 110.945258,3.71584413 110.799625,3.70393438 L110.314182,3.66820511 C110.241365,3.56101729 110.21896,3.43000997 110.301112,3.33473191 C110.870575,3.26327337 111.416698,3.17990508 111.805053,3.17990508 C111.965623,3.17990508 112.055243,3.26968632 112.055243,3.43000997 C112.055243,3.63522424 111.92268,4.09695635 111.808787,4.55777233 L111.542727,5.6571345 Z M113.435022,6.06206623 C113.435022,5.52521104 113.180164,5.25128663 112.888898,5.25128663 C112.658313,5.25128663 112.342775,5.39328758 111.868534,5.81012907 C111.734104,5.92922664 111.214119,6.40470077 111.214119,7.29884867 C111.214119,7.79905846 111.506319,8.10963124 111.904942,8.10963124 C112.585496,8.11146054 113.435022,7.26495167 113.435022,6.06206623 Z M116.614675,7.18158337 C116.784581,7.18158337 116.857397,7.27686143 116.893805,7.38404924 C116.335546,8.08855716 115.788488,8.49257276 115.20689,8.49257276 C114.84094,8.49257276 114.709311,8.32492003 114.709311,8.09863465 C114.709311,7.87234927 114.830671,7.38404924 114.915624,7.00293702 L115.498156,4.53853349 C115.558836,4.30033835 115.632586,3.95495541 115.632586,3.62239835 C115.632586,3.50238465 115.619517,3.38237094 115.596178,3.26327337 L115.632586,3.24128613 C115.682064,3.25319589 115.924786,3.26327337 116.057349,3.26327337 C116.274865,3.26327337 116.517587,3.21563435 116.711764,3.14417581 L116.458773,4.28751246 L115.831431,6.91956872 C115.758615,7.22739013 115.711004,7.43535281 115.711004,7.56269559 C115.711004,7.66896727 115.743678,7.71752243 115.827697,7.71752243 C115.959327,7.71752243 116.299137,7.54070835 116.614675,7.18158337 Z" id="kk-tagline" fill="#000000" fill-rule="nonzero"></path>
    </g>
</svg>