<?xml version="1.0" encoding="UTF-8"?>
<svg width="120px" height="10px" viewBox="0 0 120 10" version="1.1" xmlns="http://www.w3.org/2000/svg" xmlns:xlink="http://www.w3.org/1999/xlink">
    <title>wikipedia-tagline-pwn</title>
    <g id="Page-1" stroke="none" stroke-width="1" fill="none" fill-rule="evenodd">
        <path d="M118.345194,4.74987282 L118.345194,6.09823001 C118.345194,6.23102422 118.283878,6.30253267 118.202187,6.36381842 C117.936599,6.5783337 117.589299,6.81327419 117.303276,6.81327419 C116.792534,6.81327419 116.567816,6.40467896 116.567816,6.0880174 C116.567816,5.62834903 116.782321,5.15846805 117.538226,4.9643881 L118.345194,4.74987282 Z M118.345194,6.63961945 C118.40651,6.956281 118.508626,7.23208202 119.02959,7.23208202 C119.41775,7.23208202 119.785485,7.05842728 120,6.85413472 C119.979595,6.73155312 119.938684,6.64983205 119.826345,6.5783337 C119.744624,6.64985226 119.570969,6.74176573 119.448398,6.74176573 C119.152162,6.74176573 119.141949,6.34339321 119.141949,5.87351223 L119.141949,4.37192552 C119.141949,2.92142205 118.345194,2.64562103 117.599512,2.64562103 C116.761896,2.64562103 115.914068,3.19722307 115.914068,3.77947304 C115.914068,4.02462614 116.036639,4.14719764 116.27158,4.14719764 C116.567816,4.14719764 116.751684,3.93269247 116.751684,3.79989826 C116.751684,3.7283797 116.741481,3.65689144 116.721076,3.61603091 C116.710874,3.58542339 116.700671,3.52410734 116.700671,3.41173835 C116.700671,3.09507679 117.129702,2.9827078 117.517862,2.9827078 C117.865171,2.9827078 118.345265,3.15636254 118.345265,4.31063977 C118.345265,4.38215833 118.314657,4.42299866 118.283949,4.43322137 L117.405472,4.64772654 C116.42485,4.89288974 115.720018,5.43426908 115.720018,6.12887793 C115.720018,6.96649361 116.292056,7.23208202 117.00709,7.23208202 C117.354399,7.23208202 117.671051,7.15036096 118.120506,6.80306158 L118.324799,6.63961945 L118.345194,6.63961945 Z M112.169051,8.76430656 C112.32227,8.48850554 112.455065,8.1922793 112.587859,7.88583035 C113.405049,5.91436266 113.854495,4.87245442 114.395884,3.71817719 C114.589964,3.28915675 114.743184,3.12571461 115.223288,3.06442887 C115.284604,3.00311281 115.284604,2.78862784 115.223288,2.72734209 C115.018985,2.7375446 114.784044,2.74774711 114.498031,2.74774711 C114.191592,2.74774711 113.87493,2.7375446 113.568481,2.72734209 C113.507165,2.78865815 113.507165,3.00314312 113.568481,3.06442887 C113.885143,3.09503639 114.22223,3.15635244 114.058798,3.52409724 L113.037315,5.86328952 C112.965796,6.03694426 112.884085,6.05737958 112.792151,5.85308701 L111.89325,3.7283999 C111.709383,3.29937946 111.65831,3.11551211 112.230337,3.06443897 C112.291653,3.00312291 112.291653,2.78863795 112.230337,2.72734209 C111.852389,2.7375547 111.443794,2.74775721 111.07606,2.74775721 C110.72876,2.74775721 110.452959,2.7375547 110.248667,2.72734209 C110.187351,2.78866825 110.187351,3.00315322 110.248667,3.06443897 C110.647039,3.11555251 110.779833,3.20744578 111.045422,3.83055629 L112.209912,6.51704795 C112.291633,6.73156322 112.455065,7.19123159 112.352918,7.47724522 C112.230337,7.8245547 112.107765,8.10035573 111.954536,8.41700718 C111.842177,8.62130984 111.69917,8.71324352 111.443794,8.71324352 C111.300787,8.71324352 111.259927,8.682636 111.147568,8.682636 C110.851342,8.682636 110.698112,8.98908495 110.698112,9.12187915 C110.698112,9.33638433 110.902415,9.49982646 111.178216,9.49982646 C111.392721,9.49982646 111.801316,9.41810539 112.169051,8.76435707 L112.169051,8.76430656 Z M108.231389,1.01125021 C108.231389,1.27683863 108.476542,1.54241694 108.721705,1.54241694 C109.007719,1.54241694 109.252872,1.27683863 109.252872,1.05211075 C109.252872,0.806957648 109.038356,0.520933916 108.762565,0.520933916 C108.517402,0.520933916 108.231389,0.766097115 108.231389,1.01125021 L108.231389,1.01125021 Z M109.160938,5.88372484 L109.160938,3.8509714 C109.160938,3.34022989 109.201748,2.68648156 109.201748,2.68648156 C109.201748,2.64567154 109.150634,2.614963 109.068954,2.614963 C108.772728,2.72733199 108.374345,2.81926567 107.669523,2.91119934 C107.649118,2.97251539 107.669523,3.13592722 107.689929,3.19721297 C108.241531,3.25852902 108.3539,3.30957186 108.3539,3.89182183 L108.3539,5.88371474 C108.3539,6.73154302 108.241531,6.76219094 107.61843,6.81326408 C107.557114,6.87458014 107.557114,7.08906511 107.61843,7.15035086 C107.955517,7.14014835 108.3539,7.12994584 108.762495,7.12994584 C109.17108,7.12994584 109.55925,7.14014835 109.896337,7.15035086 C109.957653,7.0890348 109.957653,6.87454983 109.896337,6.81326408 C109.273236,6.77245406 109.160867,6.73154302 109.160867,5.88371474 L109.160938,5.88372484 Z M105.668903,5.86331982 C105.668903,6.05740988 105.648498,6.13912085 105.505471,6.26170245 C105.127524,6.58857661 104.800649,6.75201874 104.545274,6.75201874 C103.993672,6.75201874 103.421644,6.14934356 103.421644,4.87248473 C103.421644,4.13701533 103.564651,3.7284201 103.717871,3.51391493 C104.034532,3.03381125 104.463553,3.00317342 104.667855,3.00317342 C105.03559,3.00317342 105.290956,3.13596763 105.495258,3.37090812 C105.638265,3.53434015 105.668903,3.60584861 105.668903,3.92251016 L105.668903,5.86331982 Z M105.556544,6.61922453 C105.597354,6.57841451 105.699551,6.55790848 105.709763,6.62942704 C105.730168,6.88479275 105.822132,7.23210223 105.822132,7.23210223 C105.903853,7.26270975 105.954917,7.26270975 106.016212,7.23210223 C106.24094,7.04823488 106.598452,6.89501546 107.221563,6.823507 C107.282879,6.76219094 107.282879,6.60899172 107.221563,6.54770598 C106.567814,6.49659243 106.475881,6.30255288 106.475881,5.80202397 L106.475881,1.17470245 C106.475881,0.510741511 106.516691,0.102146282 106.516691,0.102146282 C106.516691,0.0306277222 106.475881,-8.8817842e-16 106.383897,-8.8817842e-16 C106.128521,0.102146282 105.362414,0.245153097 104.953818,0.275801022 C104.933413,0.357522088 104.953818,0.520954119 105.015134,0.58224997 C105.546311,0.612857489 105.668883,0.561844957 105.668883,1.41986564 L105.668883,2.7273623 C105.668883,2.79888086 105.648478,2.81928587 105.576959,2.81928587 C105.536048,2.81928587 105.117291,2.64563113 104.780204,2.64563113 C104.10603,2.64563113 103.656575,2.87035901 103.247979,3.25851892 C102.808746,3.69776208 102.543158,4.30043726 102.543158,5.05633187 C102.543158,6.31275538 103.176481,7.23209213 104.279675,7.23209213 C104.678058,7.23209213 105.056005,7.02778946 105.556534,6.61920433 L105.556544,6.61922453 Z M100.29095,1.01128052 C100.29095,1.27686893 100.536113,1.54244724 100.781266,1.54244724 C101.06728,1.54244724 101.312433,1.27686893 101.312433,1.05214105 C101.312433,0.806987953 101.097927,0.520964221 100.822126,0.520964221 C100.576973,0.520964221 100.29095,0.766127419 100.29095,1.01128052 L100.29095,1.01128052 Z M101.220499,5.88375514 L101.220499,3.8510017 C101.220499,3.34026019 101.26141,2.68651187 101.26141,2.68651187 C101.26141,2.64570184 101.210296,2.61499331 101.128616,2.61499331 C100.83239,2.7273623 100.434007,2.81929597 99.7291855,2.91122965 C99.7087805,2.9725457 99.7291855,3.13595753 99.7495905,3.19724328 C100.301193,3.25855933 100.413551,3.30960217 100.413551,3.89185214 L100.413551,5.88374504 C100.413551,6.73157332 100.301193,6.76222125 99.678082,6.81329439 C99.616766,6.87461044 99.616766,7.08909541 99.678082,7.15038116 C100.015169,7.14017865 100.413551,7.12997615 100.822147,7.12997615 C101.230742,7.12997615 101.618902,7.14017865 101.955989,7.15038116 C102.017305,7.08906511 102.017305,6.87458014 101.955989,6.81329439 C101.332888,6.77248436 101.220519,6.73157332 101.220519,5.88374504 L101.220499,5.88375514 Z M95.8522937,3.74885542 C96.1178821,3.42198126 96.5775505,3.11553231 96.8839893,3.11553231 C97.5377376,3.11553231 98.0995523,3.8510017 98.0995523,5.00527893 C98.0995523,5.84289461 97.803326,6.88480285 96.6592614,6.88480285 C96.4753941,6.88480285 96.1178821,6.8336893 95.9340147,6.67029768 C95.7194995,6.48643033 95.6888515,6.43535719 95.6888515,6.05740988 L95.6888515,4.19831118 C95.6888515,3.98379591 95.7296616,3.90207485 95.8522937,3.74885542 Z M95.6582137,3.37090812 C95.6378087,3.06445917 95.6174037,2.80909347 95.5764926,2.69672447 C95.5458851,2.65591445 95.5356826,2.61500341 95.453911,2.61500341 C95.1678974,2.7273724 94.9023191,2.81930607 94.1974875,2.91123975 C94.1770825,2.9725558 94.1974875,3.13596763 94.2178925,3.19725338 C94.7694946,3.24836692 94.8818535,3.29939966 94.8818535,3.89186224 L94.8818535,8.25359535 C94.8818535,9.10142363 94.7694946,9.15249677 94.1463841,9.1831447 C94.085068,9.24446075 94.085068,9.45894572 94.1463841,9.52023147 C94.5039062,9.51002896 94.8818535,9.49982646 95.2904487,9.49982646 C95.6990439,9.49982646 96.1893501,9.51002896 96.526447,9.52023147 C96.5877631,9.45891542 96.5877631,9.24443045 96.526447,9.1831447 C95.8011902,9.14233467 95.6888212,9.10142363 95.6888212,8.25359535 L95.6888212,7.15039126 C95.6888212,7.01759705 95.7194288,7.03803237 95.8318381,7.0788727 C96.0769912,7.18101898 96.3936528,7.23209213 96.720527,7.23209213 C97.2925542,7.23209213 97.8032957,7.05843739 98.2221036,6.66006486 C98.7021972,6.19017379 98.9779982,5.55686078 98.9779982,4.72945771 C98.9779982,3.64668894 98.211891,2.64563113 97.1699726,2.64563113 C96.689879,2.64563113 96.1689249,2.96229269 95.7705423,3.41174845 C95.7092262,3.48326701 95.6581834,3.4730645 95.6581834,3.37093842 L95.6582137,3.37090812 Z M90.6015505,4.74990313 L90.6015505,6.09826031 C90.6015505,6.23105452 90.5402648,6.30256298 90.4585427,6.36384873 C90.1929573,6.578364 89.8456529,6.81330449 89.5596372,6.81330449 C89.0488957,6.81330449 88.8241698,6.40470926 88.8241698,6.08804771 C88.8241698,5.62837934 89.0386811,5.15849836 89.7945787,4.9644184 L90.6015505,4.74990313 Z M90.6015505,6.63964975 C90.6628363,6.95631131 90.7649876,7.23211233 91.2859437,7.23211233 C91.6741077,7.23211233 92.0418414,7.05845759 92.2563526,6.85416502 C92.2359274,6.73158342 92.1950669,6.64986236 92.0827009,6.578364 C92.0009798,6.64988256 91.8273301,6.74179603 91.7047516,6.74179603 C91.4085223,6.74179603 91.3983067,6.34342351 91.3983067,5.87354253 L91.3983067,4.37195582 C91.3983067,2.92145236 90.6015505,2.64565133 89.8558675,2.64565133 C89.0182518,2.64565133 88.1704205,3.19725338 88.1704205,3.77950335 C88.1704205,4.02465644 88.2929991,4.14722794 88.5279396,4.14722794 C88.8241698,4.14722794 89.0080372,3.93272277 89.0080372,3.79992856 C89.0080372,3.72841 88.9978246,3.65692175 88.9773893,3.61606121 C88.9671767,3.5854537 88.9569641,3.52413764 88.9569641,3.41176865 C88.9569641,3.0951071 89.3859865,2.9827381 89.7741505,2.9827381 C90.1214539,2.9827381 90.6015515,3.15639284 90.6015515,4.31067007 C90.6015515,4.38218863 90.5709036,4.42302896 90.5402658,4.43325167 L89.6617896,4.64775685 C88.6811661,4.89292004 87.9763426,5.43429938 87.9763426,6.12890824 C87.9763426,6.96652391 88.5483739,7.23211233 89.263412,7.23211233 C89.6107154,7.23211233 89.927376,7.15039126 90.3768277,6.80309188 L90.5811243,6.63964975 L90.6015505,6.63964975 Z M84.0591125,1.01128052 C84.0591125,1.27686893 84.3042686,1.54244724 84.5494237,1.54244724 C84.8354394,1.54244724 85.0805955,1.27686893 85.0805955,1.05214105 C85.0805955,0.806987953 84.8660832,0.520964221 84.5902832,0.520964221 C84.3451271,0.520964221 84.0591125,0.766127419 84.0591125,1.01128052 L84.0591125,1.01128052 Z M84.2021203,3.89186224 L84.2021203,6.35363612 C84.2021203,7.70199331 84.1612598,8.95841682 83.6505193,8.95841682 C83.5381563,8.95841682 83.4053631,8.91760679 83.3338597,8.84605793 C83.2317114,8.74390155 83.1091328,8.58046951 82.884407,8.58046951 C82.7720441,8.58046951 82.5575318,8.78476208 82.5575318,8.96862943 C82.5575318,9.26486577 82.9252665,9.40787258 83.1193475,9.40787258 C83.3338597,9.40787258 83.8650305,9.37726506 84.2429788,9.0605631 C84.7230764,8.67240319 85.0090911,7.9369338 85.0090911,6.00632664 L85.0090911,3.8510017 C85.0090911,3.34026019 85.0499516,2.68651187 85.0499516,2.68651187 C85.0499516,2.64570184 84.9988785,2.61499331 84.9171584,2.61499331 C84.6311438,2.7273623 84.2225506,2.81929597 83.5177271,2.91122965 C83.4973019,2.9725457 83.5177271,3.13595753 83.5381523,3.19724328 C84.0897523,3.24835682 84.2021162,3.30960217 84.2021162,3.89185214 L84.2021203,3.89186224 Z M80.2550463,2.74779761 C80.1120395,2.74779761 80.07118,2.87037921 80.07118,2.95210028 L80.07118,3.08489449 C80.07118,3.13600803 80.0813926,3.14621054 80.1222531,3.14621054 L80.7249283,3.14621054 L80.7249283,6.22087222 C80.7249283,6.946129 81.0415879,7.23214263 81.5114698,7.23214263 C81.9813518,7.23214263 82.4920933,7.00741475 82.8904719,6.55795899 C82.8700467,6.45581271 82.8087509,6.39452696 82.7066046,6.38431435 C82.4410192,6.58860691 82.1345743,6.67032798 81.8689889,6.67032798 C81.5931889,6.67032798 81.5318991,6.36387903 81.5318991,5.73056602 L81.5318991,3.14621054 L82.5942416,3.14621054 C82.6963899,3.14621054 82.8393978,3.10540052 82.8393978,3.01341633 L82.8393978,2.80912377 C82.8393978,2.76831374 82.8087498,2.74780772 82.7576767,2.74780772 L81.5318971,2.74780772 L81.5318971,2.3494352 C81.5318971,1.68546416 81.5727576,1.27687903 81.5727576,1.27687903 C81.5727576,1.21556298 81.5421097,1.19515797 81.4910365,1.19515797 C81.4399634,1.19515797 81.3582433,1.23606901 81.2663097,1.28708154 C81.1437321,1.34839759 81.0415838,1.38922782 80.9190052,1.43008835 C80.7964277,1.46069587 80.6942794,1.50160691 80.6942794,1.56288256 C80.6942794,1.68545406 80.7249273,1.61399611 80.7249273,2.74779761 L80.2550463,2.74779761 Z M77.9619815,1.01128052 C77.9619815,1.27686893 78.2071366,1.54244724 78.4522927,1.54244724 C78.7383084,1.54244724 78.9834645,1.27686893 78.9834645,1.05214105 C78.9834645,0.806987953 78.7689523,0.520964221 78.4931523,0.520964221 C78.2479961,0.520964221 77.9619815,0.766127419 77.9619815,1.01128052 L77.9619815,1.01128052 Z M78.8915308,5.88375514 L78.8915308,3.8510017 C78.8915308,3.34026019 78.9323914,2.68651187 78.9323914,2.68651187 C78.9323914,2.64570184 78.8813182,2.61499331 78.7995982,2.61499331 C78.5033679,2.7273623 78.1049893,2.81929597 77.4001668,2.91122965 C77.3797315,2.9725457 77.4001668,3.13595753 77.4205921,3.19724328 C77.9721931,3.25855933 78.084556,3.30960217 78.084556,3.89185214 L78.084556,5.88374504 C78.084556,6.73157332 77.9721931,6.76222125 77.3490887,6.81329439 C77.2878029,6.87461044 77.2878029,7.08909541 77.3490887,7.15038116 C77.6861774,7.14017865 78.084556,7.12997615 78.4931492,7.12997615 C78.9017424,7.12997615 79.2899064,7.14017865 79.6269952,7.15038116 C79.6882809,7.08906511 79.6882809,6.87458014 79.6269952,6.81329439 C79.0038907,6.77248436 78.8915278,6.73157332 78.8915278,5.88374504 L78.8915308,5.88375514 Z M73.5233134,3.74885542 C73.7888988,3.42198126 74.2485661,3.11553231 74.5550111,3.11553231 C75.2087604,3.11553231 75.7705761,3.8510017 75.7705761,5.00527893 C75.7705761,5.84289461 75.4743458,6.88480285 74.3302852,6.88480285 C74.1464178,6.88480285 73.7888988,6.8336893 73.6050314,6.67029768 C73.3905202,6.48643033 73.3598763,6.43535719 73.3598763,6.05740988 L73.3598763,4.19831118 C73.3598763,3.98379591 73.4007369,3.90207485 73.5233134,3.74885542 L73.5233134,3.74885542 Z M73.3292314,3.37090812 C73.3088062,3.06445917 73.2883709,2.80909347 73.2475104,2.69672447 C73.2168624,2.65591445 73.2066498,2.61500341 73.1249328,2.61500341 C72.8389172,2.7273724 72.5733318,2.81930607 71.8685083,2.91123975 C71.8480831,2.9725558 71.8685083,3.13596763 71.8889335,3.19725338 C72.4405345,3.24836692 72.5528975,3.29939966 72.5528975,3.89186224 L72.5528975,8.25359535 C72.5528975,9.10142363 72.4405345,9.15249677 71.8174291,9.1831447 C71.7561433,9.24446075 71.7561433,9.45894572 71.8174291,9.52023147 C72.1749481,9.51002896 72.5528975,9.49982646 72.9614907,9.49982646 C73.3700839,9.49982646 73.8603951,9.51002896 74.1974849,9.52023147 C74.2587707,9.45891542 74.2587707,9.24443045 74.1974849,9.1831447 C73.4722322,9.14233467 73.3598692,9.10142363 73.3598692,8.25359535 L73.3598692,7.15039126 C73.3598692,7.01759705 73.3905172,7.03803237 73.5028761,7.0788727 C73.7480322,7.18101898 74.0646917,7.23209213 74.3915669,7.23209213 C74.9635972,7.23209213 75.4743387,7.05843739 75.8931465,6.66006486 C76.3732442,6.19017379 76.6490442,5.55686078 76.6490442,4.72945771 C76.6490442,3.64668894 75.8829319,2.64563113 74.8410196,2.64563113 C74.360922,2.64563113 73.8399659,2.96229269 73.4415873,3.41174845 C73.3803015,3.48326701 73.3292244,3.4730645 73.3292244,3.37093842 L73.3292314,3.37090812 Z M70.0601686,4.74990313 L70.0601686,6.09826031 C70.0601686,6.23105452 69.9988828,6.30256298 69.9171607,6.36384873 C69.6515754,6.578364 69.3042709,6.81330449 69.0182553,6.81330449 C68.5075138,6.81330449 68.2827879,6.40470926 68.2827879,6.08804771 C68.2827879,5.62837934 68.4972991,5.15849836 69.2531968,4.9644184 L70.0601686,4.74990313 Z M70.0601686,6.63964975 C70.1214543,6.95631131 70.2236056,7.23211233 70.7445618,7.23211233 C71.1327257,7.23211233 71.5004594,7.05845759 71.7149707,6.85416502 C71.6945454,6.73158342 71.6536849,6.64986236 71.5413189,6.578364 C71.4595979,6.64988256 71.2859482,6.74179603 71.1633696,6.74179603 C70.8671404,6.74179603 70.8569247,6.34342351 70.8569247,5.87354253 L70.8569247,4.37195582 C70.8569247,2.92145236 70.0601686,2.64565133 69.3144856,2.64565133 C68.4768699,2.64565133 67.6290386,3.19725338 67.6290386,3.77950335 C67.6290386,4.02465644 67.7516171,4.14722794 67.9865576,4.14722794 C68.2827879,4.14722794 68.4666553,3.93272277 68.4666553,3.79992856 C68.4666553,3.72841 68.4564426,3.65692175 68.4360073,3.61606121 C68.4257947,3.5854537 68.4155821,3.52413764 68.4155821,3.41176865 C68.4155821,3.0951071 68.8446046,2.9827381 69.2327685,2.9827381 C69.5800719,2.9827381 70.0601696,3.15639284 70.0601696,4.31067007 C70.0601696,4.38218863 70.0295217,4.42302896 69.9988838,4.43325167 L69.1204076,4.64775685 C68.1397841,4.89292004 67.4349606,5.43429938 67.4349606,6.12890824 C67.4349606,6.96652391 68.0069919,7.23211233 68.72203,7.23211233 C69.0693335,7.23211233 69.385994,7.15039126 69.8354457,6.80309188 L70.0397423,6.63964975 L70.0601686,6.63964975 Z M63.5673682,5.72031301 C63.6082288,6.22084191 63.6388767,6.7009355 63.6388767,7.12996605 C63.741025,7.10956103 63.8431733,7.09935853 63.8942475,7.09935853 C63.9657559,7.09935853 64.0270406,7.09935853 64.0985441,7.11976354 C64.3743451,7.1912821 64.6501451,7.23213253 65.0280934,7.23213253 C65.6001237,7.23213253 66.6522516,6.95633151 66.6522516,5.94506109 C66.6522516,5.25045223 66.1517247,4.841857 65.4571169,4.5864913 C64.8340124,4.36176342 64.4356339,4.19833139 64.4356339,3.63650663 C64.4356339,3.2176988 64.8033675,2.98275831 65.150672,2.98275831 C65.3753978,2.98275831 65.9678584,3.06447937 66.1006506,3.93274297 C66.1619363,3.99405903 66.366236,3.98385652 66.4275258,3.92254047 C66.4581737,3.55480577 66.4785989,3.17685847 66.4888115,2.83976159 C66.172152,2.78864805 65.6818397,2.64568164 65.1506689,2.64568164 C64.3947713,2.64568164 63.7103781,3.13599793 63.7103781,3.78974626 C63.7103781,4.53542826 64.0474669,4.85208982 64.8340094,5.17896398 C65.6818397,5.52626336 65.8759217,5.74077863 65.8759217,6.18001168 C65.8759217,6.68054059 65.3856094,6.89505586 65.0076611,6.89505586 C64.6092825,6.89505586 64.3845567,6.76226165 64.2824084,6.64989266 C64.0576815,6.41495217 63.9453186,5.96550651 63.8840298,5.71013071 C63.822744,5.64881465 63.628659,5.65901716 63.5673682,5.72033321 L63.5673682,5.72031301 Z M59.6139081,4.74990313 L59.6139081,6.09826031 C59.6139081,6.23105452 59.5526224,6.30256298 59.4709003,6.36384873 C59.2053149,6.578364 58.8580105,6.81330449 58.5719958,6.81330449 C58.0612543,6.81330449 57.8365275,6.40470926 57.8365275,6.08804771 C57.8365275,5.62837934 58.0510387,5.15849836 58.8069363,4.9644184 L59.6139081,4.74990313 Z M59.6139081,6.63964975 C59.6751939,6.95631131 59.7773452,7.23211233 60.2983013,7.23211233 C60.6864653,7.23211233 61.054199,7.05845759 61.2687102,6.85416502 C61.248285,6.73158342 61.2074245,6.64986236 61.0950585,6.578364 C61.0133374,6.64988256 60.8396877,6.74179603 60.7171102,6.74179603 C60.4208799,6.74179603 60.4106653,6.34342351 60.4106653,5.87354253 L60.4106653,4.37195582 C60.4106653,2.92145236 59.6139081,2.64565133 58.8682251,2.64565133 C58.0306094,2.64565133 57.1827781,3.19725338 57.1827781,3.77950335 C57.1827781,4.02465644 57.3053567,4.14722794 57.5402972,4.14722794 C57.8365275,4.14722794 58.0203948,3.93272277 58.0203948,3.79992856 C58.0203948,3.72841 58.0101822,3.65692175 57.9897469,3.61606121 C57.9795343,3.5854537 57.9693217,3.52413764 57.9693217,3.41176865 C57.9693217,3.0951071 58.3983441,2.9827381 58.7865081,2.9827381 C59.1338125,2.9827381 59.6139091,3.15639284 59.6139091,4.31067007 C59.6139091,4.38218863 59.5832612,4.42302896 59.5526234,4.43325167 L58.6741482,4.64775685 C57.6935237,4.89292004 56.9887012,5.43429938 56.9887012,6.12890824 C56.9887012,6.96652391 57.5607315,7.23211233 58.2757696,7.23211233 C58.623074,7.23211233 58.9397336,7.15039126 59.3891863,6.80309188 L59.5934829,6.63964975 L59.6139081,6.63964975 Z M52.9844851,4.28002215 C52.9844851,5.23000682 52.5043885,5.42408677 52.1264392,5.42408677 C51.2683932,5.42408677 51.1764606,4.69882999 51.1764606,4.04508166 C51.1764606,3.33004758 51.4318313,2.96231289 51.993647,2.96231289 C52.6371807,2.96231289 52.9844851,3.43219387 52.9844851,4.28002215 Z M51.0743123,7.23211233 C51.1866752,7.26271985 51.3501123,7.28322588 51.4829055,7.28322588 C51.799565,7.28322588 52.0855797,7.25261836 52.2285875,7.25261836 C52.739329,7.25261836 53.1683525,7.26282086 53.4645817,7.4262731 C53.8629603,7.65100098 53.9855389,7.79400779 53.9855389,8.05959621 C53.9855389,8.7950656 52.9027661,9.18322551 51.9834313,9.18322551 C51.6156977,9.18322551 50.7576517,8.88699927 50.7576517,8.19239041 C50.7576517,7.84508093 50.7780769,7.58971523 51.0743123,7.23219314 L51.0743123,7.23211233 Z M54.2613389,3.17682816 C54.4554209,3.17682816 54.6392872,2.99296081 54.6392872,2.78865815 C54.6392872,2.57415298 54.4452062,2.41071084 54.1694052,2.41071084 C53.9038198,2.41071084 53.4135076,2.58436558 53.1479222,2.93166496 C53.0253446,2.8499439 52.6882548,2.64565133 52.0855797,2.64565133 C51.1764606,2.64565133 50.3388439,3.25853913 50.3388439,4.19831118 C50.3388439,4.74990313 50.584,5.06656468 50.8700157,5.34236571 C50.584,5.5875188 50.4205629,6.02676196 50.4205629,6.37406134 C50.4205629,6.74179603 50.6248595,7.02780966 50.8904449,7.16060387 C50.3388439,7.48747803 50.0528292,7.95735901 50.0528292,8.39660217 C50.0528292,9.28529098 50.8904449,9.561092 51.6769864,9.561092 C53.0559885,9.561092 54.5473545,8.89713107 54.5473545,7.79392698 C54.5473545,7.46705282 54.3941321,7.21167701 54.0979018,6.96652391 C53.6995232,6.63964975 52.9844851,6.62943714 52.6065368,6.62943714 C52.4226695,6.62943714 52.1672987,6.64984216 51.9221426,6.68055069 C51.7689201,6.6907532 51.6667718,6.7009557 51.6156977,6.7009557 C51.3194674,6.7009557 50.9619483,6.55794889 50.9619483,6.11871583 C50.9619483,5.91441317 51.0232341,5.699908 51.1458157,5.52625326 C51.3909718,5.66926007 51.6769864,5.74076853 52.075365,5.74076853 C52.9742705,5.74076853 53.8016715,5.17895388 53.8016715,4.17789607 C53.8016715,3.69780248 53.6586637,3.42200146 53.3624334,3.11555251 C53.4339419,3.01340623 53.6382345,2.87039942 53.7710266,2.87039942 C53.8425351,2.87039942 53.9140345,2.90100694 53.9753232,2.99298102 C54.0161838,3.07470208 54.148976,3.17684836 54.2613389,3.17684836 L54.2613389,3.17682816 Z M46.05915,3.4730544 C45.9876416,3.54457296 45.9365715,3.57520068 45.9365715,3.4730544 C45.9263589,3.19725338 45.8957109,2.80909347 45.8548504,2.69672447 C45.8242025,2.65591445 45.8139899,2.61500341 45.7322718,2.61500341 C45.4462572,2.7273724 45.1806718,2.81930607 44.4758483,2.91123975 C44.4554231,2.9725558 44.4758483,3.13596763 44.4962735,3.19725338 C45.0478746,3.24836692 45.1602375,3.29939966 45.1602375,3.89186224 L45.1602375,5.88375514 C45.1602375,6.72137082 45.0580892,6.76223135 44.4451994,6.81330449 C44.3839136,6.87462054 44.3839136,7.08910551 44.4451994,7.15039126 C44.7516443,7.14018876 45.1602375,7.12998625 45.5688307,7.12998625 C45.9774239,7.12998625 46.2838688,7.14018876 46.5903137,7.15039126 C46.6515995,7.08907521 46.6515995,6.87459024 46.5903137,6.81330449 C46.0693576,6.76219094 45.9672093,6.72138092 45.9672093,5.88375514 L45.9672093,4.20852379 C45.9672093,3.99400852 46.059143,3.87143702 46.140861,3.77950335 C46.529025,3.40154594 46.9886923,3.17682816 47.3870709,3.17682816 C47.5913675,3.17682816 47.8058787,3.30961227 47.9284563,3.54455276 C48.0306046,3.74885542 48.0510349,4.02465644 48.0510349,4.33109529 L48.0510349,5.88375514 C48.0510349,6.72137082 47.9488866,6.76223135 47.4177148,6.81330449 C47.3666416,6.87462054 47.3666416,7.08910551 47.4177148,7.15039126 C47.7241597,7.14018876 48.0510349,7.12998625 48.4596281,7.12998625 C48.8682213,7.12998625 49.235955,7.14018876 49.5423999,7.15039126 C49.593473,7.08907521 49.593473,6.87459024 49.5423999,6.81330449 C48.9703696,6.76219094 48.8580066,6.72138092 48.8580066,5.88375514 L48.8580066,4.36174322 C48.8580066,3.79992856 48.8171461,3.30961227 48.5822056,2.99296081 C48.4085539,2.76823293 48.0918944,2.64565133 47.7343753,2.64565133 C47.2338484,2.64565133 46.6618181,2.77844554 46.059143,3.4730544 L46.05915,3.4730544 Z M40.9696125,7.23211233 C41.3679911,7.23211233 41.8480877,7.02780966 42.3486146,6.61922453 C42.3996878,6.57841451 42.4916224,6.55790848 42.5018371,6.62942704 C42.5222623,6.89501546 42.6142,7.23210223 42.6142,7.23210223 C42.6959211,7.26270975 42.7367776,7.26270975 42.808282,7.23210223 C43.0330078,7.04823488 43.3905269,6.89501546 44.0136313,6.823507 C44.0749171,6.76219094 44.0749171,6.60899172 44.0136313,6.54770598 C43.359882,6.49659243 43.2679493,6.30255288 43.2679493,5.80202397 L43.2679493,3.84077899 C43.2679493,3.53433005 43.3088099,2.78864805 43.3088099,2.78864805 C43.3088099,2.75804053 43.2781619,2.72730169 43.2270888,2.72730169 C43.1760157,2.7375345 43.0227922,2.74773701 42.8695697,2.74773701 C42.5426956,2.74773701 42.1749609,2.7375345 41.8276575,2.72730169 C41.7663717,2.78864805 41.7663717,3.00313302 41.8276575,3.06441876 C42.3281833,3.09502628 42.4609765,3.21763819 42.4609765,3.89182183 L42.4609765,5.86327942 C42.4609765,6.05736948 42.4405513,6.13908044 42.2975395,6.26166204 C41.9195901,6.5885362 41.5314272,6.75197834 41.2760564,6.75197834 C40.9696115,6.75197834 40.45887,6.60896142 40.45887,5.69984739 L40.45887,3.84074869 C40.45887,3.53429974 40.4997305,2.78861774 40.4997305,2.78861774 C40.4997305,2.75801022 40.4690826,2.72730169 40.4180095,2.72730169 C40.3669363,2.7375042 40.2137129,2.7477067 40.0604904,2.7477067 C39.7336163,2.7477067 39.3658816,2.7375042 39.0185781,2.72730169 C38.9572924,2.78861774 38.9572924,3.00310271 39.0185781,3.06438846 C39.5088894,3.10519849 39.6518972,3.21760788 39.6518972,3.88157892 L39.6518972,5.8428239 C39.6518972,6.54764537 39.9583421,7.23204162 40.9696105,7.23204162 L40.9696125,7.23211233 Z M36.7601443,3.4730544 C36.739719,3.06445917 36.7192837,2.80909347 36.6784232,2.69672447 C36.6477753,2.65591445 36.6375627,2.61500341 36.5558456,2.61500341 C36.26983,2.7273724 36.0042446,2.81930607 35.2994211,2.91123975 C35.2789959,2.9725558 35.2994211,3.13596763 35.3198463,3.19725338 C35.8714474,3.24836692 35.9838103,3.29939966 35.9838103,3.89186224 L35.9838103,5.88375514 C35.9838103,6.73158342 35.8612327,6.77244396 35.2279137,6.81330449 C35.1666279,6.87462054 35.1666279,7.08910551 35.2279137,7.15039126 C35.5854327,7.14018876 35.9838103,7.12998625 36.3924035,7.12998625 C36.8009967,7.12998625 37.2708797,7.14018876 37.6283988,7.15039126 C37.6896845,7.08907521 37.6896845,6.87459024 37.6283988,6.81330449 C36.9133606,6.76219094 36.7907821,6.73158342 36.7907821,5.88375514 L36.7907821,4.4638895 C36.7907821,4.19831118 36.9133606,3.96336059 37.0359382,3.77950335 C37.1483011,3.61606121 37.3832426,3.27897444 37.5058202,3.27897444 C37.5977539,3.27897444 37.6896875,3.30958196 37.761191,3.41176865 C37.842912,3.51391493 37.9552729,3.64670914 38.1391403,3.64670914 C38.3842954,3.64670914 38.6192369,3.39133333 38.6192369,3.13596763 C38.6192369,2.94187757 38.4353695,2.64565133 38.0063471,2.64565133 C37.5262505,2.64565133 37.1074416,3.0951071 36.8725011,3.49347962 C36.8112154,3.60584861 36.7601382,3.52408713 36.7601382,3.4730746 L36.7601443,3.4730544 Z M33.2867818,4.74990313 L33.2867818,6.09826031 C33.2867818,6.23105452 33.225496,6.30256298 33.1437749,6.36384873 C32.8781886,6.578364 32.5308851,6.81330449 32.2448695,6.81330449 C31.734128,6.81330449 31.5094021,6.40470926 31.5094021,6.08804771 C31.5094021,5.62837934 31.7239133,5.15849836 32.479811,4.9644184 L33.2867818,4.74990313 Z M33.2867818,6.63964975 C33.3480675,6.95631131 33.4502199,7.23211233 33.971176,7.23211233 C34.3593389,7.23211233 34.7270736,7.05845759 34.9415849,6.85416502 C34.9211596,6.73158342 34.8802991,6.64986236 34.7679321,6.578364 C34.6862111,6.64988256 34.5125614,6.74179603 34.3899838,6.74179603 C34.0937536,6.74179603 34.0835389,6.34342351 34.0835389,5.87354253 L34.0835389,4.37195582 C34.0835389,2.92145236 33.2867818,2.64565133 32.5410998,2.64565133 C31.7034831,2.64565133 30.8556528,3.19725338 30.8556528,3.77950335 C30.8556528,4.02465644 30.9782303,4.14722794 31.2131718,4.14722794 C31.5094021,4.14722794 31.6932684,3.93272277 31.6932684,3.79992856 C31.6932684,3.72841 31.6830558,3.65692175 31.6626205,3.61606121 C31.6524079,3.5854537 31.6421852,3.52413764 31.6421852,3.41176865 C31.6421852,3.0951071 32.0712087,2.9827381 32.4593716,2.9827381 C32.8066761,2.9827381 33.2867727,3.15639284 33.2867727,4.31067007 C33.2867727,4.38218863 33.2561247,4.42302896 33.2254869,4.43325167 L32.3470117,4.64775685 C31.3663882,4.89292004 30.6615647,5.43429938 30.6615647,6.12890824 C30.6615647,6.96652391 31.233595,7.23211233 31.9486331,7.23211233 C32.2959376,7.23211233 32.6125971,7.15039126 33.0620498,6.80309188 L33.2663464,6.63964975 L33.2867818,6.63964975 Z M28.5461427,3.06445917 C29.0977437,3.1052692 29.1488179,3.23811391 28.9343067,3.74885542 L28.1171202,5.75096093 C27.9434675,6.15955616 27.8923934,6.14934356 27.7391709,5.72035342 L26.9934889,3.74889583 C26.8198362,3.25857953 26.768762,3.13600803 27.3203631,3.06449958 C27.3816488,3.00318352 27.3816488,2.78869855 27.3203631,2.72741281 C26.9832743,2.73761531 26.6257552,2.74781782 26.2886654,2.74781782 C25.9515756,2.74781782 25.6451307,2.73761531 25.3386858,2.72741281 C25.2774001,2.78872886 25.2774001,3.00321383 25.3386858,3.06449958 C25.8800722,3.13601814 25.9515756,3.29944007 26.1558722,3.81018158 L27.4633709,7.03807278 C27.5246567,7.1912922 27.5859485,7.25257795 27.7187417,7.25257795 C27.82089,7.25257795 27.8821787,7.1912619 27.9638978,7.01763746 L29.3224696,3.82039418 C29.5165516,3.38116113 29.6289145,3.11557272 30.2009458,3.06449958 C30.2622316,3.00318352 30.2622316,2.78869855 30.2009458,2.72741281 C29.9966492,2.73761531 29.7514931,2.74781782 29.4859077,2.74781782 C29.1488179,2.74781782 28.8015135,2.73761531 28.5461427,2.72741281 C28.484857,2.78872886 28.484857,3.00321383 28.5461427,3.06449958 L28.5461427,3.06445917 Z M22.0163144,7.23211233 C22.4146929,7.23211233 22.8947896,7.02780966 23.3953164,6.61922453 C23.4463896,6.57841451 23.5383243,6.55790848 23.5485389,6.62942704 C23.5689641,6.89501546 23.6609018,7.23210223 23.6609018,7.23210223 C23.7426229,7.26270975 23.7834804,7.26270975 23.8549838,7.23210223 C24.0797097,7.04823488 24.4372287,6.89501546 25.0603332,6.823507 C25.1216189,6.76219094 25.1216189,6.60899172 25.0603332,6.54770598 C24.4065848,6.49659243 24.3146512,6.30255288 24.3146512,5.80202397 L24.3146512,3.84077899 C24.3146512,3.53433005 24.3555117,2.78864805 24.3555117,2.78864805 C24.3555117,2.75804053 24.3248638,2.72730169 24.2737906,2.72730169 C24.2227175,2.7375345 24.069494,2.74773701 23.9162716,2.74773701 C23.5893974,2.74773701 23.2216637,2.7375345 22.8743593,2.72730169 C22.8130735,2.78864805 22.8130735,3.00313302 22.8743593,3.06441876 C23.3748862,3.09502628 23.5076784,3.21763819 23.5076784,3.89182183 L23.5076784,5.86327942 C23.5076784,6.05736948 23.4872531,6.13908044 23.3442413,6.26166204 C22.966293,6.5885362 22.578129,6.75197834 22.3227583,6.75197834 C22.0163133,6.75197834 21.5055718,6.60896142 21.5055718,5.69984739 L21.5055718,3.84074869 C21.5055718,3.53429974 21.5464324,2.78861774 21.5464324,2.78861774 C21.5464324,2.75801022 21.5157844,2.72730169 21.4647113,2.72730169 C21.4136382,2.7375042 21.2604147,2.7477067 21.1071922,2.7477067 C20.7803181,2.7477067 20.4125844,2.7375042 20.06528,2.72730169 C20.0039942,2.78861774 20.0039942,3.00310271 20.06528,3.06438846 C20.5555912,3.10519849 20.698599,3.21760788 20.698599,3.88157892 L20.698599,5.8428239 C20.698599,6.54764537 21.0050439,7.23204162 22.0163123,7.23204162 L22.0163144,7.23211233 Z M17.8068461,3.4730544 C17.7864209,3.06445917 17.7659855,2.80909347 17.725125,2.69672447 C17.6944771,2.65591445 17.6842645,2.61500341 17.6025474,2.61500341 C17.3165318,2.7273724 17.0509464,2.81930607 16.3461229,2.91123975 C16.3256977,2.9725558 16.3461229,3.13596763 16.3665481,3.19725338 C16.9181482,3.24836692 17.0305121,3.29939966 17.0305121,3.89186224 L17.0305121,5.88375514 C17.0305121,6.73158342 16.9079335,6.77244396 16.2746145,6.81330449 C16.2133287,6.87462054 16.2133287,7.08910551 16.2746145,7.15039126 C16.6321335,7.14018876 17.0305121,7.12998625 17.4391053,7.12998625 C17.8476985,7.12998625 18.3175805,7.14018876 18.6750996,7.15039126 C18.7363853,7.08907521 18.7363853,6.87459024 18.6750996,6.81330449 C17.9600615,6.76219094 17.8374829,6.73158342 17.8374829,5.88375514 L17.8374829,4.4638895 C17.8374829,4.19831118 17.9600615,3.96336059 18.082639,3.77950335 C18.1950019,3.61606121 18.4299434,3.27897444 18.552521,3.27897444 C18.6444547,3.27897444 18.7363884,3.30958196 18.8078918,3.41176865 C18.8896128,3.51391493 19.0019737,3.64670914 19.1858411,3.64670914 C19.4309972,3.64670914 19.6659377,3.39133333 19.6659377,3.13596763 C19.6659377,2.94187757 19.4820714,2.64565133 19.0530479,2.64565133 C18.5729513,2.64565133 18.1541434,3.0951071 17.9192019,3.49347962 C17.8579162,3.60584861 17.806839,3.52408713 17.806839,3.4730746 L17.8068461,3.4730544 Z M14.3334856,4.74990313 L14.3334856,6.09826031 C14.3334856,6.23105452 14.2721998,6.30256298 14.1904778,6.36384873 C13.9248924,6.578364 13.577588,6.81330449 13.2915723,6.81330449 C12.7808308,6.81330449 12.5561049,6.40470926 12.5561049,6.08804771 C12.5561049,5.62837934 12.7706162,5.15849836 13.5265138,4.9644184 L14.3334856,4.74990313 Z M14.3334856,6.63964975 C14.3947713,6.95631131 14.4969227,7.23211233 15.0178788,7.23211233 C15.4060428,7.23211233 15.7737765,7.05845759 15.9882877,6.85416502 C15.9678625,6.73158342 15.9270019,6.64986236 15.814636,6.578364 C15.7329149,6.64988256 15.5592652,6.74179603 15.4366867,6.74179603 C15.1404564,6.74179603 15.1302417,6.34342351 15.1302417,5.87354253 L15.1302417,4.37195582 C15.1302417,2.92145236 14.3334856,2.64565133 13.5878026,2.64565133 C12.7501869,2.64565133 11.9023556,3.19725338 11.9023556,3.77950335 C11.9023556,4.02465644 12.0249332,4.14722794 12.2598747,4.14722794 C12.5561049,4.14722794 12.7399713,3.93272277 12.7399713,3.79992856 C12.7399713,3.72841 12.7297587,3.65692175 12.7093233,3.61606121 C12.6991107,3.5854537 12.6888981,3.52413764 12.6888981,3.41176865 C12.6888981,3.0951071 13.1179216,2.9827381 13.5060846,2.9827381 C13.853389,2.9827381 14.3334866,3.15639284 14.3334866,4.31067007 C14.3334866,4.38218863 14.3028387,4.42302896 14.2722009,4.43325167 L13.3937257,4.64775685 C12.4131022,4.89292004 11.7082787,5.43429938 11.7082787,6.12890824 C11.7082787,6.96652391 12.280309,7.23211233 12.9953471,7.23211233 C13.3426515,7.23211233 13.659311,7.15039126 14.1087638,6.80309188 L14.3130604,6.63964975 L14.3334856,6.63964975 Z M9.59284554,3.06445917 C10.1444466,3.1052692 10.1955207,3.23811391 9.98100949,3.74885542 L9.16382307,5.75096093 C8.99017136,6.15955616 8.93909721,6.14934356 8.78587476,5.72035342 L8.04019175,3.74889583 C7.86654004,3.25857953 7.81546589,3.13600803 8.36706591,3.06449958 C8.42835166,3.00318352 8.42835166,2.78869855 8.36706591,2.72741281 C8.02997712,2.73761531 7.67245806,2.74781782 7.33536826,2.74781782 C6.99827947,2.74781782 6.69183456,2.73761531 6.38538965,2.72741281 C6.32410391,2.78872886 6.32410391,3.00321383 6.38538965,3.06449958 C6.92677505,3.13601814 6.99827947,3.29944007 7.20257607,3.81018158 L8.51007374,7.03807278 C8.57135948,7.1912922 8.6326523,7.25257795 8.76544449,7.25257795 C8.86759279,7.25257795 8.92888157,7.1912619 9.01060062,7.01763746 L10.3691734,3.82039418 C10.5632544,3.38116113 10.6756184,3.11557272 11.2476486,3.06449958 C11.3089344,3.00318352 11.3089344,2.78869855 11.2476486,2.72741281 C11.043352,2.73761531 10.7981959,2.74781782 10.5326105,2.74781782 C10.1955207,2.74781782 9.84821629,2.73761531 9.59284554,2.72741281 C9.53155979,2.78872886 9.53155979,3.00321383 9.59284554,3.06449958 L9.59284554,3.06445917 Z M4.41919393,1.01128052 C4.41919393,1.27686893 4.66435006,1.54244724 4.90950619,1.54244724 C5.19552083,1.54244724 5.44067696,1.27686893 5.44067696,1.05214105 C5.44067696,0.806987953 5.22616572,0.520964221 4.95036571,0.520964221 C4.70520958,0.520964221 4.41919393,0.766127419 4.41919393,1.01128052 L4.41919393,1.01128052 Z M5.34874328,5.88375514 L5.34874328,3.8510017 C5.34874328,3.34026019 5.38960382,2.68651187 5.38960382,2.68651187 C5.38960382,2.64570184 5.33853067,2.61499331 5.25681163,2.61499331 C4.96058135,2.7273623 4.56220277,2.81929597 3.85737928,2.91122965 C3.83695406,2.9725457 3.85737928,3.13595753 3.8778045,3.19724328 C4.42940452,3.25855933 4.54176846,3.30960217 4.54176846,3.89185214 L4.54176846,5.88374504 C4.54176846,6.73157332 4.42940452,6.76222125 3.80630008,6.81329439 C3.74501433,6.87461044 3.74501433,7.08909541 3.80630008,7.15038116 C4.14338988,7.14017865 4.54176846,7.12997615 4.95036167,7.12997615 C5.35895488,7.12997615 5.74711782,7.14017865 6.08420762,7.15038116 C6.14549337,7.08906511 6.14549337,6.87458014 6.08420762,6.81329439 C5.46110318,6.77248436 5.34873924,6.73157332 5.34873924,5.88374504 L5.34874328,5.88375514 Z M0,5.72031301 C0.0408629575,6.22084191 0.0715068421,6.7009355 0.0715068421,7.12996605 C0.173655144,7.10956103 0.275803447,7.09935853 0.326877598,7.09935853 C0.398381005,7.09935853 0.459670391,7.09935853 0.531174202,7.11976354 C0.806974619,7.1912821 1.08277503,7.23213253 1.46072365,7.23213253 C2.03275495,7.23213253 3.08488186,6.95633151 3.08488186,5.94506109 C3.08488186,5.25045223 2.58435498,4.841857 1.88974652,4.5864913 C1.26664188,4.36176342 0.8682636,4.19833139 0.8682636,3.63650663 C0.8682636,3.2176988 1.23599739,2.98275831 1.58330162,2.98275831 C1.80802788,2.98275831 2.40048864,3.06447937 2.53328083,3.93274297 C2.59456658,3.99405903 2.79886722,3.98385652 2.860156,3.92254047 C2.89080392,3.55480577 2.91122914,3.17685847 2.92144175,2.83976159 C2.60478221,2.78864805 2.11446996,2.64568164 1.58329858,2.64568164 C0.827401249,2.64568164 0.143007623,3.13599793 0.143007623,3.78974626 C0.143007623,4.53542826 0.480097021,4.85208982 1.26663885,5.17896398 C2.11446996,5.52626336 2.30855193,5.74077863 2.30855193,6.18001168 C2.30855193,6.68054059 1.81823968,6.89505586 1.44029096,6.89505586 C1.04191268,6.89505586 0.817186418,6.76226165 0.715038116,6.64989266 C0.490311851,6.41495217 0.377948718,5.96550651 0.316659737,5.71013071 C0.255370958,5.64881465 0.0612889814,5.65901716 0,5.72033321 L0,5.72031301 Z" id="wikipedia-tagline-pwn" fill="#000000" fill-rule="nonzero"></path>
    </g>
</svg>