<?xml version="1.0" encoding="UTF-8"?>
<svg width="120px" height="19px" viewBox="0 0 120 19" version="1.1" xmlns="http://www.w3.org/2000/svg" xmlns:xlink="http://www.w3.org/1999/xlink">
    <title>wikipedia-wordmark-ky</title>
    <g id="Page-1" stroke="none" stroke-width="1" fill="none" fill-rule="evenodd">
        <path d="M14.7493655,-1.77635684e-15 C14.9009359,0.150634725 14.9009359,0.682066551 14.7493655,0.834572515 C13.0830273,1.03573069 12.6900672,1.97509258 12.2166438,3.18297724 L8.6369639,12.2753267 C7.55164539,15.027919 6.16225056,16.8954153 3.88963101,16.8954153 C2.82957421,16.8954153 1.61607584,16.3143957 1.61607584,15.5078917 C1.61607584,14.7996279 2.09698421,14.295329 2.85483594,14.295329 C3.20756446,14.295329 3.76332239,14.4712254 4.01593963,14.7753017 C4.19183608,15.0026573 4.57263318,15.3310597 4.9253617,15.3310597 C5.73373687,15.3310597 6.36527997,14.8024347 7.1474578,12.9068698 L2.64057909,3.13432503 C1.81255591,1.34074262 1.56648801,0.958074278 0.126569734,0.834572515 C-0.025000611,0.683002171 -0.0493267157,0.152505964 0.102243629,-1.77635684e-15 C0.641925917,0.0110573203 1.02502727,0.0225012602 1.37719906,0.0316957771 L1.79300069,0.0414807675 C2.07102658,0.0470593367 2.36142428,0.0505234482 2.72852732,0.0505234482 C3.71467018,0.0505234482 4.5978949,0.0252617241 5.78519594,-1.77635684e-15 C5.93676628,0.150634725 5.93676628,0.682066551 5.78519594,0.834572515 C4.0673987,1.01046896 4.10388785,1.40904283 4.75882144,2.85363921 L8.25897366,10.5556582 L8.31043273,10.5556582 L11.0620894,3.00520955 C11.5673239,1.590553 11.6431091,0.958074278 9.77467711,0.834572515 C9.62310676,0.683002171 9.62310676,0.152505964 9.77467711,-1.77635684e-15 C10.9619781,0.0243261047 11.9462498,0.0505234482 12.5272694,0.0505234482 C13.1082891,0.0505234482 13.7388966,0.0252617241 14.7493655,-1.77635684e-15 Z M26.7945298,4.73704108 C26.9077398,4.84370169 26.9077398,5.22169194 26.7945298,5.32928817 C25.4687571,5.38355409 25.1459684,5.47150232 25.1459684,6.96100842 L25.1459684,14.1521792 C25.146904,15.6407497 25.4687571,15.7315048 26.7954654,15.7838995 C26.9086754,15.8896245 26.9086754,16.2685503 26.7954654,16.3752109 C25.847683,16.3574342 25.2984744,16.3396574 24.3516275,16.3396574 C23.3851327,16.3396574 22.8172117,16.3583698 21.8890772,16.3752109 C21.7749317,16.2685503 21.7749317,15.8896245 21.8890772,15.7838995 C23.21485,15.7286979 23.5376387,15.6407497 23.5376387,14.1521792 L23.5376387,7.76844798 C23.3954245,7.81335771 23.2990557,7.89569222 23.2064294,8.00141721 L18.032454,14.0997845 C17.8107122,14.3664361 17.6217171,14.5105215 17.4907304,14.9371639 C17.6254596,15.6781745 18.0474239,15.7436678 19.0859615,15.7857707 C19.2001071,15.8924313 19.2001071,16.2713572 19.0859615,16.3770822 C18.138179,16.3583698 17.5889704,16.3415286 16.6421236,16.3415286 C15.6756287,16.3415286 15.1077078,16.3611767 14.1795733,16.3770822 C14.0663633,16.2713572 14.0663633,15.8924313 14.1795733,15.7857707 C15.505346,15.7315048 15.8281347,15.6426209 15.8281347,14.1540505 L15.8281347,6.96194404 C15.8281347,5.47430918 15.5062816,5.38355409 14.1795733,5.33022379 C14.0663633,5.22356318 14.0663633,4.84557293 14.1795733,4.73984794 C15.1273558,4.75762471 15.6765644,4.77446586 16.6234112,4.77446586 C17.5899061,4.77446586 18.157827,4.75575347 19.0859615,4.73984794 C19.2001071,4.84557293 19.2001071,5.22356318 19.0859615,5.33022379 C17.7601888,5.38542533 17.4374001,5.47430918 17.4374001,6.96194404 L17.4374001,13.3466109 C17.5244127,13.3400616 17.6338802,13.2792463 17.7723518,13.1482596 L22.9781382,7.01527435 C23.1923951,6.76078587 23.3682915,6.43612593 23.477759,6.14421268 C23.3383517,5.43501316 22.9117093,5.37045542 21.8881416,5.32928817 C21.7739961,5.22169194 21.7739961,4.84370169 21.8881416,4.73704108 C22.8359241,4.75575347 23.3851327,4.77353024 24.3319795,4.77353024 C25.2984744,4.77353024 25.8663954,4.75388223 26.7945298,4.73704108 Z M28.0641654,16.0000276 C28.0641654,15.9092725 28.1212382,15.8559422 28.1970233,15.8559422 L28.7078715,15.8213243 C29.5040836,15.7642515 29.7314392,15.568707 29.7314392,15.0681506 L29.7314392,6.04690826 C29.7314392,5.5089271 29.4470109,5.34800056 28.7078715,5.29373463 L28.2157357,5.25818109 C28.1399505,5.25818109 28.0641654,5.20297955 28.0641654,5.11503132 L28.0641654,4.77446586 L28.1025258,4.73984794 C29.0503082,4.75762471 29.6182292,4.77446586 30.5650761,4.77446586 C31.5128585,4.77446586 32.0620671,4.75575347 32.9902016,4.73984794 L33.028562,4.77446586 L33.028562,5.11503132 C33.028562,5.20578641 32.9714892,5.25818109 32.8769916,5.25818109 L32.3848558,5.29373463 C31.6270041,5.3498718 31.3435114,5.54541625 31.3435114,6.04690826 L31.3435114,9.77628723 C32.025578,9.77628723 32.8779272,9.75757484 33.3326383,9.50776446 C34.4497679,8.93422976 34.7154838,7.78528912 34.8857665,6.78230512 C35.0756972,5.67078925 35.6061934,4.66593401 37.1022489,4.66593401 C38.1061685,4.66593401 38.4476696,5.1861384 38.4476696,5.59781094 C38.4476696,6.11895095 38.011671,6.31636665 37.6140327,6.31636665 C37.3679648,6.31636665 37.1022489,6.22654718 36.9123181,6.04690826 C36.703675,5.84949256 36.5521047,5.75873748 36.3060368,5.75873748 C35.7381158,5.75873748 35.6071291,6.35192019 35.5107603,6.87025334 C35.3021171,7.9817692 34.9044789,9.52366999 33.4645606,10.0260976 L33.4645606,10.1168527 C34.7716209,10.1168527 35.5107603,10.8868675 36.0216085,12.1434043 C37.0086869,14.5629161 37.9733106,15.7838995 38.6357291,15.8353585 L38.9388698,15.8550066 C39.034303,15.8550066 39.0904401,15.9092725 39.0904401,15.9972207 L39.0904401,16.3377862 L39.0717277,16.3733397 L37.5747367,16.3546273 C36.096458,16.3359149 35.4143915,14.8847692 34.6004026,12.9115479 C33.859392,11.1179655 33.5019854,10.526654 31.3425758,10.526654 L31.3425758,15.0644081 C31.3425758,15.6005181 31.6270041,15.760509 32.3839202,15.8175818 L32.876056,15.8521997 C32.9518412,15.8521997 33.0276263,15.9074012 33.0276263,15.9962851 L33.0276263,16.3359149 L32.989266,16.3714685 C32.0798439,16.3359149 31.5306353,16.3359149 30.5837884,16.3359149 C29.636006,16.3359149 29.0297246,16.3359149 28.1015901,16.3714685 L28.0632297,16.3359149 L28.0641654,16.0000276 L28.0641654,16.0000276 Z M52.8824059,15.7838995 C52.9965515,15.8896245 52.9965515,16.2685503 52.8824059,16.3752109 C51.935559,16.3574342 51.3854148,16.3396574 50.438568,16.3396574 C49.4720731,16.3396574 48.9041521,16.3583698 47.9760177,16.3752109 C47.8618721,16.2685503 47.8618721,15.8896245 47.9760177,15.7838995 C49.3017904,15.7286979 49.6245791,15.6407497 49.6245791,14.1521792 L49.6245791,7.76844798 C49.4823649,7.81335771 49.3859961,7.89569222 49.2933698,8.00141721 L44.1193945,14.0997845 C43.8976527,14.3664361 43.7086576,14.5105215 43.5776708,14.9371639 C43.7124,15.6781745 44.1343644,15.7436678 45.1729019,15.7857707 C45.2870475,15.8924313 45.2870475,16.2713572 45.1729019,16.3770822 C44.2251195,16.3583698 43.6759109,16.3415286 42.729064,16.3415286 C41.7625692,16.3415286 41.1946482,16.3611767 40.2665137,16.3770822 C40.1533038,16.2713572 40.1533038,15.8924313 40.2665137,15.7857707 C41.5922864,15.7315048 41.9150751,15.6426209 41.9150751,14.1540505 L41.9150751,6.96194404 C41.9150751,5.47430918 41.5932221,5.38355409 40.2665137,5.33022379 C40.1533038,5.22356318 40.1533038,4.84557293 40.2665137,4.73984794 C41.2142962,4.75762471 41.7635048,4.77446586 42.7103516,4.77446586 C43.6768465,4.77446586 44.2447675,4.75575347 45.1729019,4.73984794 C45.2870475,4.84557293 45.2870475,5.22356318 45.1729019,5.33022379 C43.8471292,5.38542533 43.5243405,5.47430918 43.5243405,6.96194404 L43.5243405,13.3466109 C43.6113531,13.3400616 43.7208206,13.2792463 43.8592923,13.1482596 L49.0650787,7.01527435 C49.2793355,6.76078587 49.455232,6.43612593 49.5646994,6.14421268 C49.4243565,5.43501316 48.9986497,5.37045542 47.9750821,5.32928817 C47.8609365,5.22169194 47.8609365,4.84370169 47.9750821,4.73704108 C48.9228645,4.75575347 49.4720731,4.77353024 50.41892,4.77353024 C51.3844792,4.77353024 51.9533358,4.75388223 52.8814703,4.73704108 C52.9956158,4.84370169 52.9956158,5.22169194 52.8814703,5.32928817 C51.5556976,5.38355409 51.2338445,5.47150232 51.2338445,6.96100842 L51.2338445,14.1521792 C51.2347801,15.6407497 51.5566332,15.7315048 52.8824059,15.7838995 Z M66.3160294,4.73891232 C66.4292393,4.84463731 66.4292393,5.22262756 66.3160294,5.32928817 C64.9893211,5.38448971 64.667468,5.47337356 64.667468,6.96100842 L64.667468,14.1531148 C64.667468,15.6416853 64.9893211,15.7315048 66.3160294,15.7848351 C66.4292393,15.8914957 66.4292393,16.2704216 66.3160294,16.3761466 C65.3878949,16.3574342 64.8190383,16.340593 63.8525435,16.340593 C62.904761,16.340593 62.3555524,16.360241 61.4096412,16.3761466 C61.2964313,16.2704216 61.2964313,15.8914957 61.4096412,15.7848351 C62.7363495,15.7305692 63.0582026,15.6416853 63.0582026,14.1531148 L63.0582026,6.81879427 C63.0582026,5.70727841 62.641852,5.49208595 62.1862053,5.49208595 L58.4540195,5.49208595 C57.9993084,5.49208595 57.5820222,5.70634279 57.5820222,6.81879427 L57.5820222,14.1531148 C57.5820222,15.6416853 57.9038753,15.7315048 59.2305836,15.7848351 C59.3447292,15.8914957 59.3447292,16.2704216 59.2305836,16.3761466 C58.2837367,16.3574342 57.7335925,16.340593 56.7867457,16.340593 C55.8202508,16.340593 55.2523299,16.360241 54.3241954,16.3761466 C54.2100498,16.2704216 54.2100498,15.8914957 54.3241954,15.7848351 C55.6499681,15.7305692 55.9718212,15.6416853 55.9718212,14.1531148 L55.9718212,6.96100842 C55.9718212,5.47337356 55.6499681,5.38261848 54.3241954,5.32928817 C54.2100498,5.22262756 54.2100498,4.84463731 54.3241954,4.73891232 C55.2710422,4.75668909 56.3320347,4.77353024 56.7680333,4.77353024 L63.8721915,4.77353024 C64.3821041,4.77446586 65.3682469,4.75575347 66.3160294,4.73891232 Z M74.5569652,8.6469946 C74.6701751,8.53939837 75.068749,8.53939837 75.1819589,8.6469946 C75.1623109,9.18497576 75.1435985,9.57793592 75.1435985,10.1879598 C75.1435985,10.797048 75.1632466,11.1385491 75.1819589,11.7672853 C75.068749,11.8730103 74.6701751,11.8730103 74.5569652,11.7672853 C74.4989568,10.9598458 74.441884,10.546302 72.831683,10.546302 L71.1073364,10.546302 L71.1073364,14.8679281 C71.1073364,15.3535145 71.3721167,15.6388785 71.789403,15.6388785 L74.3660988,15.6388785 C75.8041458,15.6388785 76.4675,14.5806929 76.8473615,13.2895381 C77.0953006,13.2315297 77.3133,13.2698901 77.5088444,13.3793576 C77.3591453,14.2943934 77.0737814,15.4770163 76.8090011,16.3733397 C76.8090011,16.3733397 75.292362,16.3377862 74.38294,16.3377862 L70.309253,16.3377862 C70.309253,16.3377862 68.7757728,16.3574342 67.8476384,16.3733397 C67.7325572,16.2666791 67.7325572,15.8886888 67.8476384,15.7820282 C69.1724755,15.7277623 69.4961998,15.6388785 69.4961998,14.150308 L69.4961998,6.95820156 C69.4961998,5.46963108 69.1724755,5.37981162 67.8476384,5.32648131 C67.7325572,5.2198207 67.7325572,4.84183046 67.8476384,4.73610546 C68.7954208,4.75388223 70.2905407,4.77072338 70.2905407,4.77072338 L75.1211437,4.77072338 C75.5758547,4.77072338 75.7264894,4.75201099 76.0492781,4.6996163 C76.1072865,4.6996163 76.1250633,4.71832869 76.1250633,4.75388223 C76.1624881,4.897032 76.4469164,6.61857172 76.5414139,7.35303296 C76.3561613,7.43817432 76.150325,7.4755991 75.9164202,7.44378804 C75.5000695,6.20689918 75.1950576,5.48927909 73.7747873,5.48927909 L71.7865961,5.48927909 C71.3318851,5.48927909 71.1045295,5.84762132 71.1045295,6.27800625 L71.1045295,9.86423546 L72.8288761,9.86423546 C74.441884,9.8661067 74.500828,9.63313746 74.5569652,8.6469946 Z M82.1916196,10.9411334 C82.6079702,8.89680499 82.8353257,7.05082789 82.8353257,5.92153526 C82.8353257,5.54541625 82.6641074,5.35829237 82.1719716,5.31244702 L81.6049862,5.25818109 C81.5086174,5.25818109 81.4534159,5.22169194 81.4534159,5.15058486 L81.4534159,4.77446586 L81.489905,4.73984794 C81.489905,4.73984794 82.8166133,4.77446586 83.3845343,4.77446586 L88.3292829,4.77446586 C88.8972039,4.77446586 90.394195,4.73984794 90.394195,4.73984794 L90.4316197,4.77446586 L90.4316197,5.11503132 C90.4316197,5.22169194 90.3558346,5.25256738 90.2800494,5.25818109 L89.7308408,5.29373463 C89.1208169,5.33303065 89.0300619,5.56132178 89.0300619,6.20877042 L89.0300619,14.9409064 C89.0300619,15.6042605 89.4557687,15.8016762 89.7879136,15.8559422 C90.1986505,15.9233068 90.3455427,15.9831864 90.3558346,16.1974433 L90.4896281,18.8508599 C89.9769087,18.8508599 89.9769087,18.8695723 89.9769087,18.8695723 C89.7514244,17.8656527 89.0674866,16.3415286 87.5517832,16.3415286 L82.0596972,16.3415286 C80.486921,16.3415286 79.9938496,17.9376954 79.7852064,18.8695723 L79.2734226,18.8508599 L79.4072162,16.1974433 C79.4184436,15.9831864 79.6177306,15.8830751 79.8057901,15.8559422 C80.1753597,15.8016762 80.4785004,15.7586378 80.7526369,15.4975999 C81.2475796,15.0297902 81.5862738,13.7395711 82.1916196,10.9411334 Z M84.3903252,5.49115033 C83.8785414,5.49115033 83.6895463,5.74283195 83.6511859,6.19005803 C83.4977443,8.00141721 83.1974104,9.8661067 82.9691193,11.0852188 C82.5537043,13.1819419 82.0793452,14.9577475 82.0793452,15.3338665 C82.0793452,15.5481234 82.3263488,15.6388785 82.5911291,15.6388785 L86.7406012,15.6388785 C87.1953122,15.6388785 87.4226677,15.5846125 87.4226677,14.9212584 L87.4226677,6.18818679 C87.4226677,5.63149324 87.3094578,5.48927909 86.7209531,5.48927909 L84.3903252,5.49115033 L84.3903252,5.49115033 Z M104.926236,15.7838995 C105.039446,15.8896245 105.039446,16.2685503 104.926236,16.3752109 C103.979389,16.3574342 103.429245,16.3396574 102.483333,16.3396574 C101.517774,16.3396574 100.947982,16.3583698 100.020783,16.3752109 C99.9066375,16.2685503 99.9066375,15.8896245 100.020783,15.7838995 C101.346556,15.7286979 101.668409,15.6407497 101.668409,14.1521792 L101.668409,7.76844798 C101.528066,7.81335771 101.429826,7.89569222 101.3372,8.00141721 L96.1632242,14.0997845 C95.9414824,14.3664361 95.7534229,14.5105215 95.6215006,14.9371639 C95.7571654,15.6781745 96.1791298,15.7436678 97.2167317,15.7857707 C97.3299417,15.8924313 97.3299417,16.2713572 97.2167317,16.3770822 C96.2680136,16.3583698 95.7197406,16.3415286 94.7728938,16.3415286 C93.8073346,16.3415286 93.238478,16.3611767 92.3103435,16.3770822 C92.1961979,16.2713572 92.1961979,15.8924313 92.3103435,15.7857707 C93.6361162,15.7315048 93.9589049,15.6426209 93.9589049,14.1540505 L93.9589049,6.96194404 C93.9589049,5.47430918 93.6361162,5.38355409 92.3103435,5.33022379 C92.1961979,5.22356318 92.1961979,4.84557293 92.3103435,4.73984794 C93.2571904,4.75762471 93.8073346,4.77446586 94.7532458,4.77446586 C95.7197406,4.77446586 96.2885972,4.75575347 97.2167317,4.73984794 C97.3299417,4.84557293 97.3299417,5.22356318 97.2167317,5.33022379 C95.8900234,5.38542533 95.5681703,5.47430918 95.5681703,6.96194404 L95.5681703,13.3466109 C95.6551829,13.3400616 95.765586,13.2792463 95.9021864,13.1482596 L101.107973,7.01527435 C101.32223,6.76078587 101.498126,6.43612593 101.606658,6.14421268 C101.468186,5.43501316 101.041544,5.37045542 100.018912,5.32928817 C99.9047663,5.22169194 99.9047663,4.84370169 100.018912,4.73704108 C100.965759,4.75575347 101.515903,4.77353024 102.461814,4.77353024 C103.428309,4.77353024 103.997166,4.75388223 104.9253,4.73704108 C105.03851,4.84370169 105.03851,5.22169194 104.9253,5.32928817 C103.598592,5.38355409 103.276739,5.47150232 103.276739,6.96100842 L103.276739,14.1521792 C103.280481,15.6407497 103.599527,15.7315048 104.926236,15.7838995 Z M105.932962,15.8596846 C105.932962,15.7324404 106.007812,15.6575909 106.108859,15.6575909 L106.336214,15.6323291 C107.142718,15.5322179 108.396448,14.1577929 109.695088,10.7820781 C110.326631,9.14100165 111.082611,8.50852293 111.766549,8.10620658 L111.766549,8.03042141 C110.048752,7.77780417 108.004424,6.51565358 108.004424,3.93895772 C108.004424,2.19777 108.863322,0.0243261047 113.560132,0.0243261047 C114.443356,0.0243261047 115.933798,0.0486522094 116.767435,0.0486522094 C117.551484,0.0486522094 120,0.0243261047 120,0.0243261047 L120,0.553886692 C120,0.653997969 119.949477,0.729783141 119.824104,0.729783141 L119.065316,0.781242209 C118.004324,0.857027381 117.726445,1.03479507 117.726445,1.89275807 L117.726445,14.4955515 C117.726445,15.2534033 118.054847,15.5303466 119.089642,15.6070674 L119.771709,15.6594621 C119.870885,15.6594621 119.972867,15.7343116 119.972867,15.8615559 L119.972867,16.3415286 L119.923279,16.3929877 C119.923279,16.3929877 117.724574,16.3415286 116.741238,16.3415286 C115.831816,16.3415286 113.483411,16.3929877 113.483411,16.3929877 L113.432887,16.3415286 L113.432887,15.8615559 C113.432887,15.7343116 113.508673,15.6594621 113.634981,15.6594621 L114.291786,15.6070674 C115.352778,15.5266041 115.680245,15.2028798 115.680245,14.4955515 L115.680245,8.15673003 C113.003438,8.15673003 112.498204,8.88932003 111.437211,11.5679984 C110.351893,14.3084277 109.417209,16.3387218 107.624562,16.3667904 L105.957288,16.3901809 L105.933898,16.3396574 L105.933898,15.8596846 L105.932962,15.8596846 Z M113.710766,7.19678451 L115.680245,7.19678451 L115.680245,1.8169729 C115.680245,0.982400382 115.579198,0.907550829 113.381428,0.907550829 C111.966772,0.907550829 110.047816,1.31267403 110.047816,3.65920752 C110.048752,6.33788589 111.614979,7.19678451 113.710766,7.19678451 Z" id="wikipedia-wordmark-ky" fill="#000000" fill-rule="nonzero"></path>
    </g>
</svg>