<svg xmlns="http://www.w3.org/2000/svg" width="120" height="19"><path fill="#000" fill-rule="nonzero" d="M13.177 2.532 8.93 14.457h-.109L4.52 2.341c-.3-.816-.082-1.034 1.197-1.198l.463-.054c.136-.027.218-.082.218-.218V.354L6.344.299S4.193.354 3.24.354C2.178.354.054.299.054.299L0 .354V.87c0 .136.109.218.218.218 1.416.136 1.66.545 2.069 1.688l5.282 14.838c.136.409.354.626.626.626.3 0 .49-.217.653-.626l5.527-14.729c.381-.98.844-1.715 2.342-1.797.136 0 .218-.082.218-.218V.354L16.88.299s-1.552.055-2.505.055c-1.061 0-2.995-.055-2.995-.055l-.054.055V.87c0 .136.109.218.218.218l.435.027c1.008.055 1.58.381 1.198 1.416m5.753-.871c0 .708.571 1.28 1.306 1.28.708 0 1.307-.572 1.307-1.28 0-.735-.599-1.307-1.307-1.307A1.29 1.29 0 0 0 18.93 1.66m2.45 5.363c0-.544.3-.762 1.143-.844l.572-.054c.11 0 .164-.055.164-.136v-.6l-.028-.054s-2.096.055-2.831.055c-.844 0-2.995-.055-2.995-.055l-.027.055v.626c0 .082.081.109.19.109l.545.054c.844.082 1.17.245 1.17.844v9.067c0 .517-.272.952-1.17 1.034l-.545.055c-.109 0-.19.054-.19.163v.572l.054.054s2.124-.054 2.886-.054c.844 0 2.913.054 2.913.054l.028-.054v-.572c0-.109-.082-.163-.164-.163l-.572-.055c-.87-.082-1.143-.435-1.143-1.034V7.024m7.2 5.037c.6 0 1.035.136 1.444.68l3.022 3.758c.381.436.408.735.408 1.089v.327l.027.027s.98-.027 1.661-.027c.763 0 2.206.027 2.206.027l.081-.027v-.572c0-.082-.109-.136-.19-.163l-.137-.028c-.544-.109-1.197-.272-1.524-.653l-4.111-4.955c-.136-.164-.245-.3-.245-.463 0-.218.163-.517.626-1.007l2.341-2.696c.98-1.116 1.716-1.17 2.777-1.252.136 0 .218-.055.218-.136v-.626l-.082-.028s-1.197.055-1.905.055c-.79 0-2.995-.055-2.995-.055l-.027.028v.626c0 .081.054.109.163.136.544.082.79.327.79.544 0 .518-.845 1.525-1.934 2.723-1.197 1.28-1.715 1.742-2.613 1.742v-4.11c0-.545.3-.681 1.143-.845l.3-.054c.109-.027.163-.055.163-.136v-.6l-.027-.054s-1.715.055-2.478.055c-.844 0-3.076-.055-3.076-.055l-.027.055v.626c0 .082.081.109.19.109l.545.054c.87.082 1.17.245 1.17.844v9.067c0 .517-.354.952-1.17 1.034l-.545.055c-.109 0-.19.054-.19.163v.572l.054.054s2.233-.054 2.995-.054c.817 0 2.532.054 2.532.054l.027-.054v-.572c0-.109-.082-.136-.163-.163l-.3-.055c-.79-.136-1.143-.435-1.143-1.034v-4.03m11.397-10.4c0 .708.572 1.28 1.307 1.28.708 0 1.307-.572 1.307-1.28 0-.735-.6-1.307-1.307-1.307a1.29 1.29 0 0 0-1.307 1.307m2.45 5.363c0-.544.3-.762 1.144-.844l.572-.054c.109 0 .163-.055.163-.136v-.6l-.027-.054s-2.097.055-2.832.055c-.844 0-2.994-.055-2.994-.055l-.028.055v.626c0 .082.082.109.19.109l.545.054c.844.082 1.171.245 1.171.844v9.067c0 .517-.272.952-1.17 1.034l-.545.055c-.109 0-.19.054-.19.163v.572l.054.054s2.123-.054 2.886-.054c.844 0 2.913.054 2.913.054l.027-.054v-.572c0-.109-.082-.163-.163-.163l-.572-.055c-.871-.082-1.143-.435-1.143-1.034V7.024m7.146.055c0-.708.327-.953 1.633-.953 1.498 0 2.56.517 2.56 2.859 0 2.096-.79 3.076-2.423 3.076-.545 0-1.226-.027-1.77-.245V7.08m-2.097 9.148c0 .517-.272.762-1.116.87l-.572.083c-.108.027-.163.054-.163.163v.572l.027.054s2.042-.054 2.805-.054c.844 0 3.022.054 3.022.054l.027-.054v-.572c0-.109-.082-.136-.19-.163l-.545-.082c-.871-.136-1.198-.272-1.198-.871v-3.649c.49.218 1.034.273 1.715.273 3.866 0 4.656-2.56 4.656-4.193 0-1.416-.708-3.322-4.574-3.322-1.008 0-2.097.055-2.859.055-.79 0-2.396-.055-2.804-.055l-.055.028v.626c0 .054.028.136.19.136 1.28.082 1.634.109 1.634.953v9.148m17.091 1.688c.817 0 2.423.054 2.423.054l.055-.054.544-3.131-.68-.082c-.327 1.416-1.09 2.287-2.478 2.287h-2.587c-.49 0-.79-.517-.79-1.035V11.79H63.1c.708 0 .953.3 1.062.844l.136.599c0 .082.054.136.19.136h.463l.055-.054c-.055-.627-.164-1.198-.164-1.88 0-.653.11-1.415.164-2.014 0-.054 0-.081-.055-.081h-.463c-.109 0-.163.054-.163.136l-.163.571c-.11.545-.3.872-1.062.872h-2.042V6.97c0-.463.272-.654.79-.654h2.178c1.742 0 2.26 1.443 2.559 2.45l.68-.108c-.19-1.035-.38-2.097-.408-3.267l-.054-.055s-1.933.055-2.75.055H60.05c-.817 0-2.94-.055-2.94-.055l-.028.055v.626c0 .027 0 .082.163.109l.626.054c.763.055 1.09.164 1.09.79v8.984c0 .545-.246 1.09-1.09 1.171l-.626.055c-.136 0-.163.081-.163.136v.599l.027.054s1.879-.054 2.696-.054h4.764m4.446-.572v.572l.028.054s2.069-.054 2.886-.054c.844 0 1.796.054 3.975.054 3.022 0 6.398-1.416 6.398-6.18 0-3.621-2.233-6.453-6.78-6.453-.708 0-3.076.055-3.593.055-.49 0-2.886-.055-2.886-.055l-.028.055v.599c0 .081.082.136.19.136l.6.054c.898.082 1.089.082 1.089.79v8.984c0 .844-.272 1.09-1.09 1.171l-.625.055c-.11 0-.164.081-.164.163m3.975-1.389V6.97c0-.68.681-.844 1.743-.844 4.574 0 5.2 3.294 5.2 6.126 0 3.811-1.688 4.928-4.683 4.928-2.07 0-2.26-.463-2.26-1.226M85.425 1.661c0 .708.572 1.28 1.307 1.28.708 0 1.307-.572 1.307-1.28 0-.735-.599-1.307-1.307-1.307a1.29 1.29 0 0 0-1.307 1.307m2.45 5.363c0-.544.3-.762 1.144-.844l.572-.054c.109 0 .163-.055.163-.136v-.6l-.027-.054s-2.096.055-2.831.055c-.844 0-2.995-.055-2.995-.055l-.028.055v.626c0 .082.082.109.191.109l.545.054c.844.082 1.17.245 1.17.844v9.067c0 .517-.272.952-1.17 1.034l-.545.055c-.109 0-.19.054-.19.163v.572l.054.054s2.124-.054 2.886-.054c.844 0 2.913.054 2.913.054l.027-.054v-.572c0-.109-.081-.163-.163-.163l-.572-.055c-.871-.082-1.143-.435-1.143-1.034V7.024m15.014-1.688.028.055v.599c0 .054 0 .109-.191.136l-.463.054c-.871.11-1.007.273-1.416 1.008l-2.995 5.281v3.785c0 .599.3.79 1.144.871l.572.055c.109 0 .19.081.19.163v.572l-.054.054s-.723-.019-1.488-.034l-.354-.007c-.41-.008-.803-.013-1.071-.013-.763 0-2.886.054-2.886.054l-.055-.054v-.572c0-.082.082-.163.19-.163l.545-.055c.844-.082 1.171-.327 1.171-.871v-3.676l-3.43-5.635c-.354-.572-.79-.735-1.58-.817-.081 0-.217-.027-.217-.136v-.6l.054-.054c.245 0 1.933.055 2.233.055h.042c.342-.003 2.399-.029 2.708-.055l.027.028v.626c0 .054-.055.136-.136.136l-.6.054c-.653.055-.544.3-.272.735l2.75 4.493h.055l2.532-4.493c.354-.653.354-.68-.3-.735l-.626-.054c-.082 0-.109-.082-.109-.136v-.626l.055-.028c.299 0 1.824.055 2.096.055.19 0 1.443-.027 1.851-.055ZM111.097 0c.381 0 .517.272.735.817l5.582 14.756c.38 1.062.925 1.47 2.014 1.58l.3.027c.136 0 .272.081.272.217v.518l-.082.054s-.776-.02-1.624-.036l-.547-.01c-.362-.005-.71-.008-.987-.008-.953 0-3.62.054-3.62.054l-.028-.054v-.518c0-.136.054-.217.19-.217l.763-.055c1.034-.082 1.415-.408 1.143-1.17l-1.66-4.602h-5.664c-.653 0-.816.11-.952.463l-1.58 3.948c-.272.68.082 1.28 1.09 1.361l.789.055c.109 0 .218.081.218.217v.518l-.055.054s-.802-.015-1.664-.029l-.4-.006c-.664-.01-1.295-.02-1.557-.02-.708 0-2.45.055-2.45.055l-.054-.054v-.518c0-.136.081-.217.217-.217 1.198-.082 1.879-.3 2.641-2.042L110.171.98c.3-.708.518-.98.926-.98Zm-.626 2.94h-.055l-2.722 6.916c-.109.272.082.354.68.354h4.738l-2.641-7.27Z"/></svg>