<?xml version="1.0" encoding="UTF-8"?>
<svg width="120px" height="27px" viewBox="0 0 120 27" version="1.1" xmlns="http://www.w3.org/2000/svg" xmlns:xlink="http://www.w3.org/1999/xlink">
    <title>shn-wordmark</title>
    <g id="Page-1" stroke="none" stroke-width="1" fill="none" fill-rule="evenodd">
        <path d="M3.9499746,18.2925873 C2.09709741,17.9634302 0.61309817,16.6005638 0.168898705,14.8201564 C-0.0333242886,14.0096276 -0.0557321081,12.9894772 0.11127027,12.1967743 C0.377141031,10.9348014 1.09478701,9.88531798 2.1771838,9.17556603 C2.88451425,8.7117638 3.59220146,8.4713286 4.50445038,8.38489178 C6.71045125,8.17587649 8.59569736,9.16221694 9.51332555,11.0054758 C10.1096079,12.2032449 10.1922953,13.9474989 9.71483387,15.2561995 C9.12933923,16.8610168 7.75840271,18.0093884 6.07827793,18.3023805 C5.52326585,18.3991469 4.52402982,18.3946 3.9499711,18.2930537 L3.9499746,18.2925873 Z M6.01420462,16.8068976 C7.59972574,16.3960487 8.66896114,14.8663711 8.56972434,13.1509138 C8.51358821,12.1804873 8.20953438,11.4999518 7.53086308,10.8257119 C6.84231229,10.1416672 6.07177709,9.82954326 5.06671294,9.8275528 C3.30826104,9.82406372 1.90481337,10.9009215 1.55030697,12.52564 C1.41922822,13.1263724 1.46410332,14.0377598 1.65208651,14.5926506 C2.0617194,15.8017868 3.00973689,16.6154868 4.29185357,16.8583819 C4.77668323,16.9502517 5.55028581,16.9271676 6.01420229,16.8068509 L6.01420462,16.8068976 Z M4.31946345,7.39908762 C3.27777498,7.22570099 2.23961091,6.43725353 1.72505416,5.42873843 C1.36814376,4.72919941 1.24837618,3.60638345 1.44397243,2.7936045 C1.75095023,1.5180143 2.85176293,0.419937871 4.13829005,0.105971908 C4.6137124,-0.0100311124 5.56403246,-0.0104974562 6.00920192,0.105179123 C7.47067325,0.484771318 8.51059195,1.70476167 8.69331011,3.25404905 C8.99121053,5.77998858 6.8400342,7.81863382 4.31946345,7.39908762 L4.31946345,7.39908762 Z M5.75158078,5.78019843 C6.02489089,5.67270619 6.53399841,5.34115906 6.56399365,5.25116637 C6.59005061,5.1729372 6.04239743,4.91283394 5.6248262,4.80503857 C5.45592697,4.76143543 5.19929331,4.72576013 5.0545297,4.72576013 C4.62361638,4.72576013 3.95840493,4.96528596 3.63859684,5.23560214 L3.51027768,5.34402708 L3.63859684,5.45245201 C3.80969488,5.59707688 4.21115161,5.79767467 4.45038481,5.85808951 C4.73796271,5.93072255 5.48217163,5.88618672 5.75158078,5.78009351 L5.75158078,5.78019843 Z M3.65302202,3.89936394 C4.04541885,3.71574107 4.71006486,3.54071058 5.01489398,3.54071058 C5.54730704,3.54071058 6.31974025,3.77411565 6.87943909,4.1041355 C7.02285263,4.18866031 7.153036,4.23553952 7.16969263,4.20859651 C7.18630613,4.18166516 7.1993521,3.95668925 7.19870105,3.70853605 C7.19657735,2.94867547 7.00530994,2.47870584 6.50573332,2.00621796 C6.16966616,1.68838135 5.87064301,1.54779035 5.38387685,1.47875981 C4.69648376,1.38129396 4.02683272,1.56106949 3.54665483,1.97210492 C3.03739108,2.40800812 2.80928833,2.96010089 2.8102286,3.75451755 C2.81056612,4.03564125 2.82474646,4.28815476 2.84173304,4.31564573 C2.85903439,4.34362636 2.97377246,4.29605929 3.10233878,4.20757056 C3.22867598,4.12059744 3.47648174,3.98194177 3.65301619,3.89934062 L3.65302202,3.89936394 Z M12.0569803,22.374926 C11.9848253,22.1869078 12.1687746,21.9116717 12.8304477,21.2176122 C13.7450388,20.2582614 14.3956782,19.3276024 14.5118304,18.8125956 C14.5654599,18.5747953 14.4838031,18.3352811 14.3380917,18.3029751 C14.2771639,18.2894512 14.071708,18.2437495 13.8815283,18.2014288 C12.9847527,18.0017986 12.4842247,17.5060985 12.3373217,16.6721242 C12.2719753,16.3011594 12.3497615,15.7925648 12.5246217,15.4475054 C12.6757241,15.1493252 13.0978165,14.7495636 13.4174929,14.6018725 C13.6159327,14.510236 13.7551176,14.4896003 14.1757866,14.4896003 C14.6471622,14.4896003 14.7202709,14.503474 15.034498,14.6523309 C15.4366146,14.8428324 15.9054604,15.290196 16.1241931,15.6920794 C16.406506,16.210782 16.4331902,17.4417547 16.1809821,18.3120455 C15.9187792,19.2168574 15.5079466,19.869797 14.6957622,20.6725029 C14.0970409,21.2642466 13.5213955,21.7022833 12.7253303,22.1719265 C12.2338715,22.4618641 12.1053204,22.5009087 12.0569757,22.374926 L12.0569803,22.374926 Z M14.663553,16.8612616 C14.9175145,16.6314357 14.8994344,16.0686637 14.631317,15.8577597 C14.4785871,15.7376179 14.0853112,15.7132164 13.871552,15.810659 C13.5395211,15.9619409 13.4948243,16.5788555 13.7960626,16.8525526 C13.9437082,16.9867081 13.9851697,16.9979703 14.2583073,16.9782206 C14.453612,16.9641137 14.5950809,16.9233087 14.6635542,16.8613082 L14.663553,16.8612616 Z M22.5227063,18.3256278 C21.4282896,18.1792191 20.3955899,17.644008 19.6466744,16.8350881 C18.8419095,15.9658465 18.4951479,15.1189545 18.6329164,14.3592105 C18.7068902,13.9512413 18.8253089,13.7179062 19.0791002,13.4800009 C19.5491222,13.0393993 19.9894919,12.891545 20.8224075,12.8946695 C21.964494,12.8993329 22.8644209,13.2533928 23.8772952,14.0978015 C24.4853772,14.6047522 24.9938901,15.3999383 25.1275443,16.0528896 C25.1603749,16.2132652 25.1962367,16.3750749 25.2072424,16.4124757 C25.2343486,16.5045786 25.7747875,16.0768014 26.1545207,15.6626881 C26.6843001,15.0849464 26.9520841,14.4049938 27.0127449,13.4834752 C27.053585,12.8631447 26.9430265,12.2728816 26.6851081,11.7341613 C26.4055594,11.1502639 25.777223,10.5418601 25.1245457,10.2231141 C24.6458379,9.9893243 24.0460324,9.82666359 23.6626791,9.82666359 C23.4912663,9.82666359 23.4823918,9.83599046 23.4308934,10.0763441 C23.2746076,10.8050879 22.9265344,11.3126448 22.4340544,11.5299377 C22.2019947,11.6323001 22.0560734,11.6529242 21.4406966,11.6701556 C20.0201516,11.7099114 19.4795519,11.4484324 19.1474941,10.5609336 C19.0482329,10.2956306 19.0449918,10.2402872 19.1014543,9.77447971 L19.162184,9.27340496 L20.0051797,8.93670474 C20.4688268,8.75151961 20.8481742,8.60644006 20.8481742,8.61430961 C20.8481742,8.62247063 20.7903242,8.73214303 20.7196079,8.8586621 C20.550732,9.16080625 20.4690903,9.58897981 20.5396097,9.80265854 C20.6516138,10.1420169 21.1219798,10.4308586 21.4595171,10.3675408 C21.7172467,10.3191576 22.0212865,10.1539903 22.05037,10.0464981 C22.0639173,9.99648268 22.1147488,9.73520191 22.1633418,9.46599329 C22.3243015,8.57411077 22.5699143,8.32642392 23.3293879,8.29011906 C24.1996822,8.24849787 25.1034844,8.46574413 26.0214344,8.93717108 C26.946418,9.41222385 27.8391283,10.533874 28.2056267,11.6815344 C28.3903361,12.2599289 28.4409613,12.6140355 28.4376607,13.3045391 C28.4251044,15.9316985 27.0111896,17.7447499 24.580544,18.2504998 C24.087495,18.3530954 23.0194756,18.3920818 22.5227145,18.3255811 L22.5227063,18.3256278 Z M23.6637307,16.6407393 C23.6066269,16.2077274 23.2595575,15.5929231 22.8163584,15.1396952 C22.2394818,14.5497586 21.7096662,14.3108274 20.9769807,14.3101612 C20.4984805,14.3097548 20.2402216,14.3847778 20.1669881,14.5455032 C20.1169378,14.6553272 20.1390192,14.7313645 20.3310152,15.1100124 C20.8470888,16.1278077 22.1033898,16.8670909 23.3412155,16.8813843 L23.6960075,16.8860478 L23.6637307,16.6407393 Z M22.6908501,7.4066657 C21.3004426,7.15355761 20.1634194,6.10424908 19.785822,4.72576013 C19.6419375,4.20048213 19.6541067,3.16657461 19.8100836,2.66480034 C20.0150323,2.00546016 20.2586165,1.60243419 20.7442961,1.11906884 C21.4132978,0.453258136 22.0002311,0.159624762 22.9091398,0.0360203378 C24.5228001,-0.183406079 26.0049678,0.612491226 26.7038959,2.07374455 C26.9338768,2.55456832 27.0290961,3.03434282 27.0301885,3.717758 C27.0316971,4.65669461 26.7860505,5.36377674 26.2107606,6.07666485 C25.5029662,6.95374095 24.61678,7.39742044 23.5016681,7.43300247 C23.1899476,7.44349521 22.8250802,7.43067075 22.6908524,7.40665405 L22.6908501,7.4066657 Z M24.1749857,5.73551104 C24.4594904,5.60526122 24.9135473,5.30057549 24.9170036,5.23761908 C24.9197869,5.18702078 24.5231382,4.98360161 24.2157792,4.8778465 C23.455015,4.61611104 22.7341233,4.71691125 22.0415853,5.18185602 L21.8180854,5.3319138 L21.9900613,5.46090449 C22.4450869,5.80222152 22.8184033,5.9134212 23.4305448,5.88999908 C23.7776433,5.87670828 23.9402737,5.84301494 24.1749857,5.73551104 L24.1749857,5.73551104 Z M21.448178,4.20537874 C21.9717421,3.84515147 22.8530818,3.54071058 23.3723183,3.54071058 C23.8074602,3.54071058 24.3724858,3.69687746 24.9280692,3.97071454 C25.5627398,4.28353796 25.5353969,4.29709691 25.5355566,3.66951474 C25.5359204,2.2441116 24.4237615,1.28249902 23.0032014,1.47994899 C21.7888071,1.64873047 21.0100165,2.69363204 21.1312227,3.99154845 C21.1504128,4.19699621 21.1773441,4.36510149 21.1910663,4.36510149 C21.2048001,4.36510149 21.3204942,4.29316796 21.4481733,4.20537874 L21.448178,4.20537874 Z M30.4144956,22.4157427 C30.3558528,22.3571 30.3764769,22.1945442 30.464371,22.0224517 C30.5107023,21.9317478 30.7736852,21.625698 31.0487884,21.3423242 C32.1565112,20.2012625 32.8515861,19.1670752 32.8527998,18.6581659 C32.8534503,18.3856929 32.7607319,18.3077901 32.3404034,18.2276489 C31.7841415,18.1215557 31.4655016,17.9757417 31.1915083,17.701753 C30.1921802,16.7024249 30.6272428,14.9239179 31.9662511,14.5346607 C32.409266,14.4058682 32.9670249,14.455732 33.3850088,14.6615179 C33.7731398,14.8525906 34.316098,15.3935261 34.4990016,15.7713462 C34.7280055,16.2444053 34.7411249,17.4525506 34.5262827,18.2832954 C34.1676585,19.6700037 32.9812449,21.0093081 31.1160935,22.1329635 C30.6063984,22.4400276 30.4869339,22.4881776 30.4144944,22.4157427 L30.4144956,22.4157427 Z M32.9058639,16.9107057 C33.1081813,16.8061281 33.1624532,16.6876418 33.1624532,16.3507317 C33.1624532,15.9856895 33.0275446,15.8101227 32.7147993,15.7681751 C32.1893511,15.6976406 31.9245809,15.9002669 31.9278908,16.3702366 C31.9308054,16.7834988 32.1272469,16.9833504 32.5338404,16.9866964 C32.6556856,16.9876991 32.823096,16.9534694 32.9058639,16.9106824 L32.9058639,16.9107057 Z M41.3143958,18.3811577 C40.5297514,18.3131881 39.288673,17.8435682 38.6843964,17.3860849 C38.0734895,16.9235768 37.2978991,15.8654194 37.0586076,15.1679673 C36.8645153,14.6022689 36.8068811,14.2024024 36.8064171,13.4183036 C36.8058423,12.4441581 37.0263611,11.5197248 37.419939,10.8463709 C37.6083314,10.5240574 37.6106887,10.5222503 37.8388847,10.5253982 C38.0261789,10.5277299 38.1816101,10.5943005 38.6842809,10.8860685 L39.3001905,11.2435793 L39.7419032,11.2435793 C40.2839544,11.2435793 40.609291,11.1025103 40.8469002,10.7644343 C41.1465459,10.3380912 41.0689882,9.62297627 40.6822365,9.24617048 C40.3040247,8.87768893 39.6133602,8.69822818 39.2146176,8.8648295 C39.0753883,8.92300589 39.0219442,8.92825226 39.0229142,8.88371642 C39.0236533,8.84978991 39.1123123,8.53211651 39.2199456,8.17788176 L39.4156328,7.53383766 L39.8167654,7.51868149 C40.0855111,7.50818875 40.305313,7.53162253 40.4827638,7.58851647 C40.8846554,7.71746053 41.4166557,8.05006859 41.7295654,8.36802179 C42.8888798,9.54600623 42.5011394,11.6113613 40.9835634,12.341714 C40.6293147,12.5121976 40.5592442,12.5271439 40.030366,12.5450632 C39.5372168,12.561735 39.403425,12.5473949 39.0473319,12.4387368 C38.8206247,12.3696014 38.5960802,12.2965952 38.5483441,12.2764725 C38.4768186,12.2462767 38.4428221,12.3004892 38.3551273,12.584411 C38.2264887,13.0009026 38.2149304,13.6516271 38.3267736,14.180461 C38.5927097,15.4378171 39.6007771,16.4429629 40.9323379,16.7784506 C42.1437708,17.0836726 42.9577273,16.9001197 44.0451734,16.0765099 C44.4395743,15.7777934 44.5601487,15.6480682 44.8517884,15.2087024 C45.1880795,14.7020548 45.1938295,14.6876681 45.1502963,14.4620393 C45.0728249,14.060529 45.0930992,12.594006 45.1821825,12.1559576 C45.349129,11.3349593 45.7486783,10.5916423 46.3841266,9.91986239 C47.2641313,8.98955315 48.2639444,8.50976699 49.5848527,8.3839008 C50.9087375,8.25776646 52.1753949,8.57906568 53.1310546,9.28343135 C53.6226054,9.64573385 53.8814647,9.9284198 54.2742871,10.5318803 L54.6307323,11.0794729 L54.4425544,11.2903302 C54.3390611,11.4063333 54.0873567,11.6798905 53.8832217,11.8983026 L53.5120668,12.2954061 L53.4032571,11.9969693 C53.0422394,11.0068515 51.9992685,10.1231533 50.9331774,9.90409997 C50.104629,9.73386117 49.194446,9.84149332 48.4505029,10.1977567 C48.0933104,10.3687999 47.931081,10.4893148 47.5707745,10.8512909 C46.8352967,11.590166 46.5793113,12.1830755 46.5743062,13.1592963 C46.572674,13.4761536 46.5870491,13.7510866 46.6062158,13.770265 C46.6253942,13.7895016 46.8108148,13.6993807 47.0182667,13.5700402 C48.4392792,12.6843601 49.9952376,12.426472 51.6075315,12.8093869 C52.6573962,13.0587292 53.8753463,13.698518 54.7904154,14.481346 C54.9603802,14.626752 54.9610529,14.6291303 54.8983507,14.8635847 C54.6206499,15.9018758 53.8715281,16.9578531 52.9909124,17.5523365 C52.2078932,18.0809488 51.4152475,18.3284258 50.3810578,18.3671907 C48.6316542,18.432712 47.3635558,17.9522146 46.3190075,16.8278597 L45.9271971,16.4061101 L45.8113922,16.5556199 C45.5715936,16.8652255 45.2256889,17.2087227 44.9239901,17.4368581 C44.5190801,17.7430478 43.6857809,18.1436721 43.190469,18.2702961 C42.7206975,18.3903796 41.9476896,18.436058 41.3144052,18.3811693 L41.3143958,18.3811577 Z M51.2175993,16.7578732 C51.7363322,16.5933588 52.2031808,16.3153479 52.5773075,15.9481954 C52.8632823,15.6675381 53.1768729,15.255057 53.1338585,15.2161289 C52.9675463,15.0656048 51.9393958,14.4482705 51.6862469,14.3469224 C50.8887197,14.0276518 49.9321063,13.9716555 49.2233605,14.2027639 C48.8667229,14.3191166 47.3165122,15.0741739 47.1260399,15.2243716 L47.0124036,15.3140262 L47.255125,15.6069484 C47.8629132,16.3404372 48.6572926,16.773076 49.6355571,16.9033958 C50.0378276,16.9570253 50.8154139,16.8854415 51.2176028,16.7579082 L51.2175993,16.7578732 Z M48.7862203,7.3743714 C47.1949212,7.0187143 46.0418559,5.64947061 45.9411151,3.9958971 C45.8673395,2.78496548 46.2340699,1.83111753 47.083711,1.02405129 C47.5289994,0.601065803 48.0122703,0.318065068 48.5786565,0.148630707 C49.1120058,-0.0109288242 50.0937609,-0.0294659902 50.614513,0.110157343 C51.5336254,0.356620042 52.3496163,0.984855092 52.8283974,1.81462061 C53.1148491,2.31106691 53.2540458,2.83510909 53.2800328,3.51492177 C53.310042,4.30003487 53.2216698,4.74380763 52.9092685,5.37665949 C52.4794417,6.24739331 51.6270189,6.99941932 50.7500489,7.28156898 C50.2118811,7.45471077 49.3318076,7.49629698 48.7862203,7.3743714 Z M50.1958844,5.81375187 C50.5574046,5.70124643 50.8980944,5.51186421 51.0698441,5.32797319 L51.1902681,5.19904079 L50.8592025,5.04103185 C50.174098,4.71406656 49.5271322,4.64798564 48.9625298,4.84730098 C48.6546951,4.95595909 48.089828,5.27751479 48.089828,5.34406205 C48.089828,5.35910164 48.202007,5.4449089 48.339112,5.53466842 C48.8985124,5.90087655 49.5845997,6.00400848 50.1958844,5.81375187 Z M47.6424294,4.24073926 C47.8796503,4.06088211 48.4788077,3.77118934 48.8369282,3.66319578 C49.0403404,3.60187157 49.313485,3.56969385 49.6355536,3.5692275 C50.2225371,3.56832979 50.686956,3.69510535 51.3177094,4.02841293 L51.7375225,4.25025267 L51.7685461,4.09513506 C51.8147607,3.86406171 51.8061567,3.48645148 51.7476539,3.1779534 C51.5282647,2.02111765 50.4861006,1.30842774 49.2659016,1.48078841 C48.1479111,1.63871573 47.3667876,2.54979996 47.3690537,3.69321666 C47.3696544,3.99307572 47.4177683,4.36508983 47.4559618,4.36508983 C47.4683199,4.36508983 47.5522268,4.30912858 47.6424364,4.2407276 L47.6424294,4.24073926 Z M58.0763298,12.5921756 C57.2763718,12.2551023 56.8603803,11.5784957 56.9113866,10.6973974 C56.9545934,9.95094421 57.415411,9.29952021 58.0751336,9.05229971 C58.5003482,8.89295003 59.2291725,8.92082573 59.6312483,9.11187513 C59.9870488,9.28088978 60.3655112,9.6605869 60.5474751,10.0310854 C60.671863,10.2843567 60.6873561,10.3737082 60.686259,10.8314246 C60.6851503,11.2937812 60.6702751,11.3749133 60.5413438,11.6218191 C60.3392036,12.0089311 60.0451634,12.3084987 59.6699991,12.5095628 C59.3804229,12.664762 59.298393,12.6838938 58.8583848,12.6988634 C58.4348689,12.71332 58.3294764,12.6988867 58.0763298,12.5921872 L58.0763298,12.5921756 Z M59.0878913,11.4024509 C59.3503472,11.2927436 59.4423977,11.11734 59.4144264,10.7800452 C59.3868421,10.4473905 59.2848154,10.3120575 59.004776,10.2366497 C58.7439709,10.166465 58.434237,10.2495908 58.2943816,10.4273844 C58.1743879,10.5799254 58.1498057,10.9733097 58.2469428,11.1865104 C58.3625378,11.4402248 58.755802,11.5412115 59.0878913,11.4024509 Z M58.3113787,18.2038887 C57.7681535,18.0720533 57.3155412,17.6900012 57.0620029,17.1492755 C56.9436157,16.896797 56.926228,16.7935951 56.926228,16.3433868 C56.926228,15.8646733 56.9384579,15.8022065 57.0941806,15.4859088 C57.2896474,15.088852 57.568971,14.8163674 57.9762897,14.6253763 C58.228647,14.5070532 58.3320657,14.4896003 58.7810988,14.4896003 C59.2313515,14.4896003 59.3332231,14.506855 59.588748,14.626682 C59.9981407,14.8185942 60.3215234,15.135195 60.5200436,15.5384424 C60.6734334,15.8500301 60.6874552,15.9197834 60.6874552,16.3691523 C60.6874097,16.9574334 60.5924959,17.2072887 60.2163115,17.6094636 C59.9140415,17.9326165 59.6093068,18.1164609 59.2266519,18.2065352 C58.8755579,18.2891947 58.6602214,18.2884952 58.3113787,18.2042035 L58.3113787,18.2038887 Z M59.1432078,16.9269695 C59.3168812,16.8478076 59.4251511,16.6359593 59.4251511,16.3752148 C59.4251511,15.9464466 59.2178217,15.7519463 58.7607686,15.7519463 C58.377842,15.7519463 58.2279498,15.8987397 58.2031485,16.2980582 C58.1817666,16.6423249 58.2527791,16.8239658 58.4472072,16.922341 C58.6095858,17.0045341 58.9678136,17.0068658 59.1432078,16.9270044 L59.1432078,16.9269695 Z M67.5402118,18.3494813 C66.7354189,18.235227 66.2705896,18.0945194 65.6511043,17.7777088 C63.9070998,16.8858379 62.9427428,14.9763583 63.134431,12.7945688 C63.2526923,11.4485141 63.7055635,10.4722583 64.5998418,9.63556755 C65.5851027,8.71374577 66.8537653,8.28349698 68.3903612,8.35007921 C70.0427991,8.42166299 71.3590697,9.11512787 72.2933487,10.4063056 C72.3907446,10.5409157 72.4856537,10.6508913 72.5042491,10.6506931 C72.5228446,10.6504949 72.5960256,10.5639531 72.6668702,10.4582913 C72.8772006,10.1447101 73.5450912,9.46978233 73.8857507,9.22657238 C74.3207014,8.91604571 74.9855701,8.61362175 75.5328012,8.47739107 C75.9065116,8.38435548 76.140987,8.36313684 76.8145681,8.36162122 C77.3056246,8.36046702 77.7639532,8.38680379 77.9480995,8.42667618 C79.9761529,8.86606531 81.3522309,10.2053814 81.7695864,12.1460711 C81.9075169,12.7874454 81.8957767,14.0206333 81.7459544,14.6280461 C81.515773,15.56127 81.1318671,16.2526247 80.4744552,16.9178291 C79.6305688,17.7717163 78.7011445,18.2038538 77.4200946,18.3379859 C76.6582916,18.4177307 75.996059,18.3426493 75.2507914,18.0938199 C74.9513334,17.9936726 74.6993772,17.9046825 74.6908886,17.8961951 C74.6756508,17.8809223 75.1847024,16.6217125 75.222475,16.5811872 C75.233201,16.5695286 75.4914668,16.6207098 75.796409,16.6945087 C76.5541477,16.8778984 76.8442999,16.9040137 77.3555689,16.8347849 C78.2307027,16.7163103 78.8541437,16.4150872 79.4421659,15.8266196 C80.09972,15.1685852 80.3961223,14.4012981 80.3947361,13.3607685 C80.3942721,13.0309934 80.3606697,12.6480669 80.3152245,12.4552337 C80.032324,11.2549114 79.0227305,10.2464313 77.7832446,9.92604145 C77.2840213,9.79700412 76.3926587,9.7849025 75.8946164,9.90039254 C74.9046128,10.1299853 74.0857888,10.7749387 73.6659232,11.6558155 C73.4278372,12.155328 73.3511493,12.5015533 73.2607905,13.4849208 C73.1668106,14.507741 73.0418328,15.0553452 72.7700138,15.6353953 C72.4975932,16.2167162 72.1914898,16.634467 71.7000043,17.0956693 C71.0660239,17.6905724 70.3505044,18.0532364 69.4157672,18.2534378 C69.0454635,18.3327162 67.8524802,18.3938655 67.5402094,18.3495046 L67.5402118,18.3494813 Z M69.1409858,16.7557746 C69.5971575,16.640238 70.2332598,16.3074201 70.5648547,16.0108254 C71.2441182,15.403261 71.6291235,14.5531746 71.6750584,13.5595009 C71.7283615,12.4065474 71.4223817,11.5595505 70.6881968,10.8277055 C70.050376,10.191904 69.4629193,9.9115265 68.6046788,9.83326235 C67.1290178,9.69871051 65.8887298,10.2435516 65.1473399,11.3520275 C64.4704862,12.3640052 64.3878606,13.8448683 64.9449654,14.9790864 C65.3379183,15.7790992 66.1503825,16.4545399 67.0249706,16.7083125 C67.6732177,16.8964123 68.5115593,16.9152059 69.1409858,16.755763 L69.1409858,16.7557746 Z M85.4060922,12.6407453 C84.9685801,12.4980441 84.5299803,12.1178573 84.3136364,11.6937876 C83.9530524,10.9869853 84.1051796,10.0255709 84.6664057,9.46434943 C85.0165704,9.11418353 85.3207933,8.98898188 85.8879816,8.9616075 C86.6453682,8.92511609 87.1724918,9.15885926 87.5775988,9.71102198 C87.9607492,10.2332571 88.044641,10.9912756 87.7836505,11.5728413 C87.6166586,11.9449487 87.1594516,12.4057663 86.7948932,12.5694064 C86.4862576,12.7079454 85.7310534,12.7467452 85.4060922,12.640757 L85.4060922,12.6407453 Z M86.4428689,11.3531701 C86.689222,11.1917568 86.7332962,10.6311066 86.5178104,10.3998118 C86.2813309,10.1459808 85.6849064,10.1575229 85.5134189,10.4192816 C85.2992937,10.7460837 85.4023941,11.2621398 85.7094827,11.4006555 C85.9131572,11.4925252 86.2649867,11.469791 86.4428643,11.353205 L86.4428689,11.3531701 Z M85.6164611,18.2235335 C84.8731534,18.0761572 84.2895987,17.4686977 84.1462108,16.6930397 C83.9960598,15.8807971 84.4380383,14.9947322 85.1734986,14.6335723 C85.437933,14.5037188 85.5197157,14.4896003 86.0076804,14.4896003 C86.4962618,14.4896003 86.5772296,14.5035906 86.8432775,14.6342601 C87.4214996,14.9182052 87.8093239,15.4354038 87.9092392,16.0558276 C88.0091067,16.6759599 87.8253673,17.2373096 87.3756206,17.6860955 C86.90092,18.1597726 86.2688469,18.3528739 85.6164611,18.2235335 Z M86.4699122,16.8610634 C86.6349431,16.7117052 86.7057528,16.410109 86.6328865,16.166899 C86.5455287,15.8753409 86.3654524,15.7519463 86.0273065,15.7519463 C85.7958985,15.7519463 85.7248301,15.775963 85.5842775,15.9015261 C85.4295353,16.0397853 85.4168694,16.0752508 85.4168694,16.3702366 C85.4168694,16.6676123 85.4287146,16.6999533 85.590628,16.8446248 C85.7503169,16.9873027 85.788683,16.9981219 86.0644379,16.978174 C86.2600144,16.9640671 86.4011953,16.923262 86.4699122,16.8610634 L86.4699122,16.8610634 Z M76.1255941,7.39908762 C75.745426,7.33578145 75.1588716,7.09919358 74.8128806,6.86954257 C74.3987382,6.59464456 73.797881,5.9361438 73.5789198,5.51719219 C72.9776102,4.3666754 73.0061645,2.91618296 73.6516927,1.82075304 C73.8975515,1.4035269 74.4219015,0.859012217 74.8426439,0.583985961 C75.5202099,0.141075937 76.5057984,-0.0769397891 77.3443428,0.0305990912 C78.2100157,0.141588916 78.8309991,0.436796199 79.4173833,1.01600686 C80.2628634,1.85115865 80.6517813,2.97651619 80.5010672,4.15172588 C80.2218123,6.32922499 78.2939867,7.7600144 76.1255999,7.39908762 L76.1255941,7.39908762 Z M77.5577114,5.78019843 C77.8310216,5.67270619 78.3401291,5.34115906 78.3701243,5.25116637 C78.3961813,5.1729372 77.8485293,4.91283394 77.4309569,4.80503857 C77.2620576,4.76143543 77.0054251,4.72576013 76.8606615,4.72576013 C76.4297482,4.72576013 75.7645356,4.96528596 75.4447287,5.23560214 L75.3164095,5.34402708 L75.4447287,5.45245201 C75.6158267,5.59707688 76.0172823,5.79767467 76.2565155,5.85808951 C76.5440934,5.93072255 77.2883035,5.88618672 77.5577114,5.78009351 L77.5577114,5.78019843 Z M75.4591539,3.89936394 C75.8515495,3.71574107 76.5161967,3.54071058 76.8210246,3.54071058 C77.3550956,3.54071058 78.228076,3.80832197 78.7322764,4.12661327 C78.8564649,4.20495903 78.956927,4.23911871 78.9754036,4.20927271 C79.0418692,4.10166388 79.0069284,3.28031586 78.9235112,2.98959714 C78.8052511,2.57744249 78.6472421,2.3234017 78.311864,2.00620631 C77.9757968,1.68836969 77.6767737,1.54777869 77.1900075,1.47874815 C76.1637888,1.33320225 75.2729509,1.77853726 74.8406735,2.65318838 C74.6568665,3.02509756 74.645715,3.07625547 74.6282003,3.62799848 C74.6038105,4.39635818 74.611272,4.41207397 74.9047387,4.21015876 C75.0331313,4.12178661 75.2826171,3.98196508 75.4591515,3.89936394 L75.4591539,3.89936394 Z M94.4834102,18.3087578 C93.3634214,18.1236076 92.5029845,17.6962735 91.751124,16.9517789 C91.1410962,16.3477238 90.6987434,15.5612933 90.479999,14.6919235 C90.3130095,14.0282463 90.3122377,12.6867967 90.4784834,12.0266754 C90.7742328,10.8522002 91.4467134,9.91434788 92.4871253,9.22540652 C92.9853553,8.89547994 93.6142059,8.5512949 93.6466693,8.59074759 C93.708763,8.6661787 94.3595084,9.83841545 94.3455135,9.84958438 C94.3363032,9.85657954 94.1931321,9.92408281 94.0272478,9.99894264 C92.9424051,10.4883122 92.150228,11.3940568 91.9022194,12.4286288 C91.7870208,12.9091844 91.7855938,13.8132735 91.8993047,14.2577458 C92.1879692,15.3858081 93.003439,16.281911 94.0797313,16.6537736 C95.0583678,16.9918845 96.1564325,16.9311899 97.0842737,16.4876969 C97.383277,16.3447742 97.5683758,16.2042065 97.910495,15.8602663 C98.6257847,15.1411758 98.9028862,14.4419283 98.9028862,13.35607 C98.9028862,12.6839404 98.8076355,12.2370664 98.5591675,11.7436864 C98.2165797,11.0634073 97.6691154,10.5333726 96.9187111,10.1554826 L96.5716639,9.9807086 L96.7035249,9.68470853 C96.7760531,9.52190791 96.9080971,9.22060318 96.9969648,9.01515542 C97.0858382,8.80970766 97.1776287,8.64160238 97.2009575,8.64160238 C97.2819498,8.64160238 97.7832228,8.91338755 98.1931459,9.17955327 C99.3691717,9.94314461 100.10765,11.0319874 100.326879,12.3255902 C100.355675,12.4956191 100.405341,12.7854401 100.437169,12.9696343 C100.468997,13.1538401 100.504672,13.46685 100.516214,13.6652094 C100.545594,14.1678114 100.62394,14.4828266 100.823756,14.9017899 C101.253481,15.8028477 102.107776,16.4978632 103.113656,16.7647634 C103.617517,16.8984525 104.56472,16.8851501 105.095011,16.7368994 C105.676134,16.5744835 106.172965,16.2964027 106.591636,15.8992293 C107.013981,15.4985817 107.287829,15.0630049 107.477899,14.4895653 C107.599569,14.1224594 107.614515,13.9984703 107.614515,13.3560351 C107.614515,12.7130169 107.599592,12.5895058 107.47713,12.2184593 C107.099776,11.0752175 106.110265,10.1728073 104.935218,9.90029927 C104.514809,9.80283342 103.804521,9.80038511 103.358393,9.89446997 C103.167111,9.93504188 103.010524,9.96523765 103.010407,9.96162348 C103.010303,9.9581259 102.952931,9.6652037 102.882804,9.31098061 C102.812736,8.95674586 102.754851,8.62826495 102.754187,8.58102432 C102.751855,8.39492983 103.954427,8.27595387 104.783505,8.38030995 C106.08584,8.54424145 107.022783,9.01526035 107.872834,9.93339802 C108.707427,10.8348406 109.091216,11.9118383 109.089786,13.3484337 C109.088616,14.8256709 108.657539,15.9437652 107.725073,16.8906413 C107.085436,17.5401649 106.402487,17.9474929 105.581407,18.1691811 C104.007567,18.5941136 102.324789,18.3347331 101.138037,17.4842736 C100.779967,17.2276679 100.182044,16.6228084 99.9174521,16.2495468 L99.7409177,16.0004959 L99.6368064,16.1262921 C99.5795627,16.1954276 99.3992276,16.417757 99.2360889,16.6202318 C98.6311594,17.371057 97.7105745,17.956062 96.7477063,18.201522 C96.1120751,18.3635648 95.1049031,18.4110736 94.4833437,18.3083148 L94.4834102,18.3087578 Z M114.152037,8.12636243 L114.152037,24.5110604 L116.985868,24.5110604 L116.985868,26.1083112 L112.657837,26.1083112 L112.657837,9.67209393 L111.421256,9.67209393 L111.421256,8.12636243 L114.152037,8.12636243 Z M118.093633,14.4896003 C118.543888,14.4896003 118.645761,14.506855 118.901282,14.626682 C119.310686,14.8185942 119.63406,15.135195 119.832583,15.5384424 C119.985975,15.8500301 120,15.9197834 120,16.3691523 C119.999953,16.9574334 119.905099,17.2072887 119.528853,17.6094636 C119.22658,17.9326165 118.921848,18.1164609 118.53919,18.2065352 C118.188103,18.2891947 117.972757,18.2884952 117.62392,18.2042035 C117.080699,18.0720533 116.628078,17.6900012 116.374538,17.1492755 C116.256157,16.896797 116.238762,16.7935951 116.238762,16.3433868 C116.238762,15.8646733 116.251004,15.8022065 116.406716,15.4859088 C116.602184,15.088852 116.881512,14.8163674 117.288829,14.6253763 C117.541191,14.5070532 117.644602,14.4896003 118.093633,14.4896003 Z M118.073312,15.7519463 C117.690386,15.7519463 117.540491,15.8987397 117.515693,16.2980582 C117.494358,16.6423249 117.565359,16.8239658 117.759743,16.922341 C117.922124,17.0045341 118.280357,17.0068658 118.455749,16.9270044 C118.629416,16.8478076 118.737689,16.6359593 118.737689,16.3752148 C118.737689,15.9464466 118.530364,15.7519463 118.073312,15.7519463 Z M118.825723,9.06210458 C119.206446,9.2045493 119.664547,9.63286276 119.85843,10.0276694 C119.984611,10.2846015 119.999895,10.3721226 119.998799,10.8312381 C119.997692,11.2935946 119.982827,11.3747268 119.853883,11.6216325 C119.651746,12.0087445 119.357705,12.3083121 118.982543,12.5093762 C118.692967,12.6645755 118.610937,12.6837072 118.17093,12.6986769 C117.747408,12.7131335 117.642014,12.6987002 117.388871,12.5920007 C116.592437,12.2565946 116.172646,11.5774231 116.223641,10.7069458 C116.26806,9.94920708 116.71912,9.30260974 117.374403,9.05744115 C117.7735,8.90811786 118.419503,8.91025138 118.825723,9.06210458 Z M117.606922,10.4273844 C117.486931,10.5799254 117.462344,10.9733097 117.559471,11.1865104 C117.675125,11.4402248 118.068334,11.5412115 118.400417,11.4024509 C118.662887,11.2927436 118.754932,11.11734 118.726963,10.7800452 C118.699332,10.4473905 118.597354,10.3120575 118.317315,10.2366497 C118.056512,10.166465 117.746778,10.2495908 117.606922,10.4273844 Z" id="shn-wordmark" fill="#000000" fill-rule="nonzero"></path>
    </g>
</svg>