<svg xmlns="http://www.w3.org/2000/svg" width="146" height="20" fill="none"><g fill="#000" clip-path="url(#a)"><path d="M16.797 1.062c1.248.174 1.103.813.232 2.498l-1.54 2.904-.145-.145-1.423-2.933c-.784-1.656-.9-2.15.32-2.324.174-.174.174-.784 0-.958l-.75.023c-.598.02-1.069.035-1.893.035-.9 0-1.4-.018-2.011-.039l-.574-.02c-.174.175-.145.785.03.96 1.248.173 1.48.58 2.439 2.642l2.44 5.198-3.224 6.593h-.146L5.238 3.386c-.726-1.656-.64-2.12 1.19-2.324.175-.174.175-.784 0-.958-.391.008-.73.016-1.042.024-.773.02-1.374.034-2.181.034-.775 0-1.252-.013-1.89-.03A124.13 124.13 0 0 0 .186.104C.01.278.038.888.212 1.062c1.537.135 1.697.52 2.409 2.222l.176.421 6.331 14.87c.175.435.378.667.668.667.32 0 .523-.232.697-.668l4.27-8.422 3.92 8.423c.145.435.378.667.668.667.32 0 .494-.232.697-.668l6.854-14.811c.049-.106.096-.212.142-.315.533-1.196.97-2.172 2.733-2.386.175-.174.175-.784 0-.958L28.81.13a57.6 57.6 0 0 1-1.588.032c-.441 0-.958-.013-1.65-.03L24.347.104c-.174.174-.174.784 0 .958 1.888.145 1.917.93 1.25 2.498l-5.519 11.936h-.145l-3.717-7.667 2.12-4.066c.726-1.336 1.365-2.469 2.875-2.7.174-.175.174-.785 0-.96h-.002a54.59 54.59 0 0 1-2.118.059c-.44 0-.831-.013-1.354-.03l-.94-.028c-.175.174-.175.784 0 .958Zm16.867 8.016c0-2.41.32-2.498 2.091-2.643.174-.174.174-.784 0-.958l-.751.018c-.828.022-1.506.04-2.502.04-.948 0-1.594-.017-2.397-.038l-.826-.02c-.175.174-.175.784 0 .958 1.771.116 2.09.232 2.09 2.643v6.273c0 2.41-.319 2.497-2.09 2.643-.175.174-.175.784 0 .958l.749-.019h.001c.828-.021 1.507-.04 2.502-.04.948 0 1.595.018 2.398.038l.826.021c.174-.174.174-.784 0-.958-1.772-.116-2.091-.233-2.091-2.643V9.078Zm6.498 6.272V9.079c0-2.41-.32-2.498-2.091-2.643-.175-.174-.175-.784 0-.958l.748.018h.001c.828.022 1.507.04 2.503.04.721 0 1.168-.013 1.76-.03.292-.01.618-.019 1.028-.028.175.174.175.784 0 .958-1.394.145-1.655.232-1.655 2.643v2.585c.958 0 1.8-.436 3.05-1.86 2.236-2.526 2.526-3.281 1.074-3.368-.174-.174-.174-.784 0-.958l.479.01c1.052.026 1.983.048 2.716.048.582 0 1.008-.018 1.533-.039l.5-.02c.174.175.174.785 0 .959-1.162.058-2.237.232-3.108 1.22l-2.498 2.875c-.493.523-.668.842-.668 1.074 0 .175.117.32.262.494l4.298 5.053c.378.465 1.075.756 1.859.843.174.174.174.755 0 .929 0 0-1.423-.03-2.236-.03-.756 0-1.482.03-1.801.059v-.407c0-.377-.03-.697-.436-1.161l-3.223-4.008c-.436-.58-1.162-.726-1.801-.726v2.7c0 2.411.261 2.498 1.655 2.644.175.174.175.784 0 .958-.41-.01-.736-.02-1.026-.028-.594-.017-1.04-.03-1.762-.03-.995 0-1.673.018-2.5.04h-.002l-.75.018c-.175-.174-.175-.784 0-.958 1.771-.146 2.09-.233 2.09-2.643Zm20.494-8.915c-1.771.145-2.09.232-2.09 2.643v6.273c0 2.41.319 2.527 2.09 2.643.175.174.175.784 0 .958l-.826-.02c-.803-.021-1.45-.038-2.397-.038-.996 0-1.674.018-2.502.04l-.751.018c-.174-.174-.174-.784 0-.958 1.771-.146 2.09-.233 2.09-2.643V9.078c0-2.41-.319-2.527-2.09-2.643-.174-.174-.174-.784 0-.958l.825.02c.803.02 1.45.038 2.398.038.996 0 1.674-.018 2.502-.04l.751-.018c.175.174.175.784 0 .958Zm4.407 2.643v6.273c0 2.41-.32 2.497-2.091 2.643-.174.174-.174.784 0 .958l.751-.019c.828-.021 1.506-.04 2.502-.04.721 0 1.168.014 1.761.031.29.009.616.018 1.027.028.174-.174.174-.784 0-.958-1.394-.146-1.656-.233-1.656-2.643V12.65c.64 0 1.365.145 1.8.726l3.225 4.008c.406.464.435.784.435 1.161v.407c.32-.029 1.046-.058 1.8-.058.814 0 2.237.029 2.237.029.174-.174.174-.755 0-.93-.784-.086-1.481-.377-1.859-.842l-4.298-5.053c-.145-.174-.261-.32-.261-.494 0-.232.174-.551.668-1.074L73.6 7.655c.871-.988 1.946-1.162 3.108-1.22.174-.174.174-.784 0-.958-.18.006-.344.013-.5.02-.524.02-.951.038-1.533.038-.733 0-1.664-.022-2.716-.047l-.479-.011c-.174.174-.174.784 0 .958 1.452.087 1.162.842-1.074 3.369-1.25 1.423-2.091 1.858-3.05 1.858V9.079c0-2.41.262-2.498 1.656-2.643.174-.174.174-.784 0-.958l-1.028.027c-.593.018-1.04.03-1.76.03-.996 0-1.675-.017-2.503-.039l-.75-.018c-.174.174-.174.784 0 .958 1.771.145 2.09.232 2.09 2.643Zm57.692 3.282c1.93 0 1.952.483 1.995 1.426l.009.2c.145.145.668.145.813 0-.007-.216-.015-.408-.022-.587-.02-.517-.036-.929-.036-1.533 0-.674.02-1.148.044-1.704v-.01l.014-.348c-.145-.145-.668-.145-.813 0l-.005.11-.002.065c-.047 1.158-.058 1.423-1.997 1.451H121.1V7.306c0-.494.377-.813.929-.813h2.236c1.801 0 2.179.958 2.701 2.614.291.029.552-.03.784-.145-.116-.988-.464-3.253-.522-3.456 0-.059-.029-.088-.087-.088l-.241.037a5.07 5.07 0 0 1-.95.08h-6.012s-1.975-.03-3.223-.058c-.175.174-.175.784 0 .958 1.771.116 2.091.232 2.091 2.643v6.273c0 2.41-.32 2.497-2.091 2.643-.175.174-.175.784 0 .958 1.219-.029 3.252-.058 3.252-.058h4.473c1.161 0 3.078.058 3.078.058.349-1.19.668-2.788.871-4.008-.261-.145-.493-.203-.813-.116-.464 1.713-1.307 3.166-3.136 3.166h-2.411c-.523 0-.929-.726-.929-1.278v-4.357h1.655ZM83.466 9.078c0-2.41.32-2.498 2.092-2.643.174-.174.174-.784 0-.958l-.752.018c-.828.022-1.506.04-2.501.04-.948 0-1.595-.017-2.398-.038l-.826-.02c-.174.174-.174.784 0 .958 1.772.116 2.091.232 2.091 2.643v6.273c0 2.41-.32 2.497-2.09 2.643-.175.174-.175.784 0 .958l.75-.019c.827-.021 1.506-.04 2.502-.04.948 0 1.594.018 2.397.038l.827.021c.174-.174.174-.784 0-.958-1.772-.116-2.092-.233-2.092-2.643V9.078Zm15.124 5.808c-.204 1.22-.872 4.008-.872 4.008h-6.505s-1.917.029-3.34.058c-.174-.174-.174-.784 0-.958 2.033-.087 2.091-.233 2.091-2.643V9.078c0-2.41-.32-2.527-2.09-2.643-.175-.174-.175-.784 0-.958l.825.02c.803.02 1.45.038 2.398.038.995 0 1.673-.018 2.501-.04l.752-.018c.174.174.174.784 0 .958-1.772.145-2.092.232-2.092 2.643v7.812c0 .552.407 1.017 1.075 1.017h1.307c1.83 0 2.672-1.424 3.136-3.137.32-.087.552-.03.814.116Z"/><path fill-rule="evenodd" d="M101.148 5.497c.803.02 1.449.038 2.397.038.255 0 .934-.013 1.668-.026.857-.016 1.788-.032 2.195-.032 4.85 0 7.231 3.02 7.231 6.883 0 5.082-3.601 6.592-6.824 6.592-1.441 0-2.391-.022-3.112-.04-.442-.01-.798-.018-1.129-.018-.995 0-1.673.018-2.501.04h-.003l-.748.018c-.175-.174-.175-.784 0-.958 1.771-.146 2.091-.233 2.091-2.643V9.078c0-2.41-.32-2.527-2.091-2.643-.175-.174-.175-.784 0-.958l.826.02Zm3.559 1.838v9.352c0 .813.203 1.307 2.41 1.307 3.195 0 4.996-1.075 4.996-5.14 0-3.021-.668-6.42-5.547-6.42-1.133 0-1.859.175-1.859.901Z" clip-rule="evenodd"/><path d="M133.641 15.35V9.834c0-1.423.349-1.133 1.046-.32l6.825 9.09c.435.465.9.64 1.336.64.348 0 .639-.204.639-.785v-9.38c0-2.41.319-2.498 2.091-2.643.174-.174.174-.784 0-.958a89.38 89.38 0 0 1-2.788.058c-.872 0-1.888-.03-2.759-.058-.175.174-.175.784 0 .958 1.771.116 2.091.232 2.091 2.643v5.43c0 .785-.087 1.279-.988.059l-6.65-9.032-4.124-.058-.058.087v.697c0 .116.174.174.261.174 1.104.087 1.423.436 1.713.958v7.958c0 2.41-.319 2.527-2.091 2.643-.174.174-.174.784 0 .958a87.622 87.622 0 0 1 2.759-.058c.872 0 1.917.029 2.788.058.175-.174.175-.784 0-.958-1.771-.146-2.091-.233-2.091-2.643Z"/></g><defs><clipPath id="a"><path fill="#fff" d="M0 0h146v20H0z"/></clipPath></defs></svg>