<?xml version="1.0" encoding="UTF-8"?>
<svg id="Layer_2" data-name="Layer 2" xmlns="http://www.w3.org/2000/svg" viewBox="0 0 486 148.2">
  <defs>
    <style>
      .cls-1 {
        fill: #8c8c8c;
      }

      .cls-1, .cls-2 {
        stroke-width: 0px;
      }

      .cls-2 {
        fill: #595959;
      }
    </style>
  </defs>
  <g id="svg2047">
    <g>
      <path class="cls-2" d="m66.7,51.9l6.8-7.7V8.3l-7.7-8.3H14.1l-7.8,8.7v35.4l6.8,7.7h53.6v.1Zm-22-22.7v5.6h-7.8v-5.6h7.8Zm5.2-9h-19.6l-4.6,5v9.6h-3.8v-17.7h37.4v17.6l-4.4-.3v-9l-5-5.2Z"/>
      <path class="cls-2" d="m194.7,51.9l6.8-7.7V8.3l-7.7-8.3h-51.7l-7.8,8.7v35.4l6.8,7.7h53.6v.1Zm-22.1-22.7v5.6h-7.7v-5.6h7.7Zm5.2-9h-19.6l-4.6,5v9.6h-3.8v-17.7h37.4v17.6l-4.4-.3v-9l-5-5.2Z"/>
      <path class="cls-2" d="m144.2,55.9l-3.1,3.3v4.1l-12.5-7.8-2.5,2.5v14l27,11.8,3.1-2.4v-7.7h35.3v31h-9.6v-11.3l-6.5-6.7h-41.8l-7.5,7.8v20.4l7.3,7.8h67.1l7.3-7.7v-50.3l-7.5-8.6h-56.1v-.2Zm21.4,45.8v3h-23.3v-3h23.3Z"/>
      <path class="cls-2" d="m219.2,88.8l-4.9,4.9v19.5l5.1,4.9h8.9l-8.6,22.7,2.6,7.4,23.4-35.1v-19.3l-4.4-4.9h-22.1v-.1Zm15.2,12.4v4.6h-9v-4.6h9Z"/>
      <path class="cls-2" d="m91.9,88.8l-4.9,4.9v19.5l5.1,4.9h8.9l-8.6,22.7,2.6,7.4,23.4-35.1v-19.3l-4.4-4.9h-22.1v-.1Zm15.1,12.4v4.6h-9v-4.6h9Z"/>
      <path class="cls-1" d="m270.7,55.9l-3.1,3.3v4.1l-12.5-7.8-2.5,2.5v14l27,11.8,3.1-2.4v-7.7h35.3v31h-9.6v-11.3l-6.5-6.7h-41.8l-7.5,7.8v20.4l7.3,7.8h67.1l7.3-7.7v-50.3l-7.5-8.6h-56.1v-.2Zm21.4,45.8v3h-23.2v-3h23.2Z"/>
      <polygon class="cls-1" points="339.7 68.8 344.5 72.1 344.1 122.5 360.3 122.5 360.3 56.9 339.7 56.9 339.7 68.8"/>
      <path class="cls-1" d="m374.4,55.9l-8,9v49.9l7.1,7.8h67.3l7.1-7.8v-50.3l-7.2-8.6h-66.3Zm57.9,17.8v31h-49.7v-31h49.7Z"/>
      <path class="cls-2" d="m8,55.9L0,64.9v49.9l7.1,7.8h67.3l7.1-7.8v-50.3l-7.2-8.6H8Zm57.9,17.8v31H16.2v-31h49.7Z"/>
      <polygon class="cls-1" points="383.4 1.5 375.6 10.2 375.6 46.9 385.6 54.9 397.9 44.1 391.1 38.8 391.1 18.6 428.5 18.6 434.2 24.5 443.1 10.1 435.1 1.5 383.4 1.5"/>
      <path class="cls-1" d="m481.4,88.8h-21.9l-4.9,4.9v19.5l5.1,4.9h8.9l-8.6,22.7,2.6,7.4,23.4-35.1v-19.3l-4.6-5Zm-6.7,12.4v4.6h-9v-4.6h9Z"/>
    </g>
  </g>
</svg>