<svg xmlns="http://www.w3.org/2000/svg" width="146" height="32" fill="none"><g clip-path="url(#a)"><path fill="#fff" d="M0 0h146v32H0z"/><g fill="#9D9D9D" filter="url(#b)"><path d="M72.055 23.2h-2.484v-6.862h-7.007v6.861h-2.495V8h2.495v6.217h7.007V8h2.484v15.2ZM86.656 17.419c0 .956-.124 1.805-.374 2.547-.25.742-.613 1.369-1.091 1.882a4.81 4.81 0 0 1-1.726 1.164c-.672.264-1.431.395-2.277.395a5.8 5.8 0 0 1-2.173-.395 4.958 4.958 0 0 1-1.715-1.164c-.478-.513-.85-1.14-1.113-1.882s-.395-1.59-.395-2.547c0-1.268.219-2.343.655-3.223.444-.887 1.075-1.563 1.892-2.027.818-.465 1.792-.697 2.922-.697 1.06 0 1.996.232 2.807.697.81.464 1.445 1.14 1.902 2.027.458.887.686 1.962.686 3.223Zm-8.348 0c0 .839.1 1.556.302 2.152.208.596.526 1.054.956 1.372.43.312.984.468 1.664.468.679 0 1.233-.156 1.663-.468.43-.318.745-.776.946-1.372.201-.596.302-1.313.302-2.152 0-.839-.1-1.549-.302-2.131-.2-.59-.516-1.036-.946-1.341-.43-.312-.988-.468-1.674-.468-1.012 0-1.75.34-2.214 1.019-.465.679-.697 1.653-.697 2.921ZM99.781 14.643c0 .666-.204 1.21-.613 1.633-.402.415-.957.69-1.664.82v.084c.756.097 1.387.364 1.892.8.507.437.759 1.043.759 1.82 0 .658-.166 1.244-.499 1.757-.325.506-.845.908-1.559 1.206-.707.29-1.632.436-2.776.436h-5.219V11.691H95.3c.86 0 1.626.093 2.298.28.68.188 1.213.496 1.601.926.388.43.582 1.012.582 1.746Zm-2.173 5.074c0-.569-.218-.978-.655-1.227-.43-.25-1.06-.374-1.892-.374h-2.505V21.4h2.557c.776 0 1.386-.128 1.83-.385.444-.263.665-.696.665-1.3Zm-.312-4.855c0-.451-.17-.784-.509-.998-.34-.222-.873-.333-1.601-.333h-2.63v2.786h2.297c.804 0 1.41-.114 1.82-.343.416-.236.623-.607.623-1.112ZM105.899 11.69v5.875c0 .187-.007.426-.021.717-.007.284-.021.582-.042.894a51.956 51.956 0 0 1-.114 1.414l5.791-8.9h2.973V23.2h-2.339v-5.812c0-.305.007-.659.021-1.06.021-.403.041-.79.062-1.165.028-.374.045-.658.052-.852l-5.77 8.888h-2.963V11.691h2.35ZM121.092 11.69v4.627h5.386v-4.626h2.453v11.508h-2.453V18.23h-5.386v4.97h-2.453V11.69h2.453ZM135.413 11.69v5.875c0 .187-.007.426-.021.717-.007.284-.021.582-.042.894-.021.305-.041.586-.062.842-.021.257-.038.447-.052.572l5.791-8.9H144V23.2h-2.339v-5.812c0-.305.007-.659.021-1.06.02-.403.041-.79.062-1.165.028-.374.045-.658.052-.852l-5.77 8.888h-2.963V11.691h2.35Z"/></g><g fill="#595959" filter="url(#c)"><path d="M14.422 8 9.587 18.885c-.422.97-.866 1.791-1.33 2.464a4.66 4.66 0 0 1-1.695 1.538c-.672.347-1.542.52-2.61.52a8.216 8.216 0 0 1-2.235-.312V20.83c.312.132.648.232 1.009.302.367.062.731.093 1.091.093.506 0 .926-.08 1.258-.239.34-.16.624-.395.853-.707.235-.319.447-.707.634-1.164L1 8h2.672l3.587 7.537a23.904 23.904 0 0 1 .447 1.02c.083.186.152.36.208.519h.093c.049-.139.108-.302.177-.489l.229-.592.218-.53L11.812 8h2.61ZM19.157 11.69v5.875c0 .187-.007.426-.021.717-.007.284-.021.582-.042.894-.02.305-.042.586-.062.842-.021.257-.038.447-.052.572l5.79-8.9h2.974V23.2h-2.34v-5.812c0-.305.008-.659.021-1.06l.063-1.165c.028-.374.045-.658.052-.852l-5.77 8.888h-2.963V11.691h2.35ZM39.028 11.69h2.693l-4.761 5.531 5.166 5.978H39.31l-4.959-5.842v5.842h-2.454V11.691h2.454v5.582l4.678-5.582ZM46.986 11.69v5.875c0 .187-.007.426-.02.717-.008.284-.022.582-.042.894-.021.305-.042.586-.063.842-.02.257-.038.447-.052.572l5.791-8.9h2.974V23.2h-2.34v-5.812c0-.305.007-.659.021-1.06.02-.403.042-.79.063-1.165.027-.374.044-.658.052-.852l-5.77 8.888h-2.963V11.691h2.35Z"/></g></g><defs><filter id="b" width="87.931" height="19.407" x="59.069" y="7" color-interpolation-filters="sRGB" filterUnits="userSpaceOnUse"><feFlood flood-opacity="0" result="BackgroundImageFix"/><feColorMatrix in="SourceAlpha" result="hardAlpha" values="0 0 0 0 0 0 0 0 0 0 0 0 0 0 0 0 0 0 127 0"/><feOffset dx="1" dy="1"/><feGaussianBlur stdDeviation="1"/><feComposite in2="hardAlpha" operator="out"/><feColorMatrix values="0 0 0 0 0 0 0 0 0 0 0 0 0 0 0 0 0 0 0.25 0"/><feBlend in2="BackgroundImageFix" result="effect1_dropShadow_215_10"/><feBlend in="SourceGraphic" in2="effect1_dropShadow_215_10" result="shape"/></filter><filter id="c" width="58.574" height="19.407" x="0" y="7" color-interpolation-filters="sRGB" filterUnits="userSpaceOnUse"><feFlood flood-opacity="0" result="BackgroundImageFix"/><feColorMatrix in="SourceAlpha" result="hardAlpha" values="0 0 0 0 0 0 0 0 0 0 0 0 0 0 0 0 0 0 127 0"/><feOffset dx="1" dy="1"/><feGaussianBlur stdDeviation="1"/><feComposite in2="hardAlpha" operator="out"/><feColorMatrix values="0 0 0 0 0 0 0 0 0 0 0 0 0 0 0 0 0 0 0.25 0"/><feBlend in2="BackgroundImageFix" result="effect1_dropShadow_215_10"/><feBlend in="SourceGraphic" in2="effect1_dropShadow_215_10" result="shape"/></filter><clipPath id="a"><path fill="#fff" d="M0 0h146v32H0z"/></clipPath></defs></svg>