<?xml version="1.0" encoding="UTF-8"?>
<svg width="110px" height="25px" viewBox="0 0 110 25" version="1.1" xmlns="http://www.w3.org/2000/svg" xmlns:xlink="http://www.w3.org/1999/xlink">
    <title>gu-wordmark</title>
    <g id="Page-1" stroke="none" stroke-width="1" fill="none" fill-rule="evenodd">
        <path d="M18.4193628,8.72067177 L18.4193628,24.6678192 L16.4361571,24.6678192 L16.4361571,18.718202 L16.3274883,18.718202 C15.6754754,19.5603853 14.3171153,20.6742406 11.8449,20.6742406 C8.42183255,20.6742406 5.86811558,18.310694 5.86811558,14.7246234 C5.86811558,10.9212151 8.93800939,8.77500617 12.1709064,8.77500617 C12.6327488,8.77500617 13.0945913,8.80217338 13.5564337,8.88367498 L13.5564337,10.8668807 C13.0945913,10.7582119 12.659916,10.7038775 12.1709064,10.7038775 C9.94319585,10.7038775 7.93282292,12.1709064 7.93282292,14.7246234 C7.93282292,17.2511731 9.61718943,18.7997036 12.116572,18.7997036 C14.7517906,18.7997036 16.4361571,16.6534947 16.4361571,13.8281057 L16.4361571,8.72067177 L18.4193628,8.72067177 Z M7.03630526,1.77635684e-15 C12.3610768,1.77635684e-15 16.0558163,2.87972339 17.3326747,4.12941467 L16.0829835,5.48777476 C14.5072857,4.07508027 11.4373919,1.82020252 7.06347246,1.82020252 C3.39590022,1.82020252 2.01037293,4.02074586 2.01037293,6.79180044 L2.01037293,24.6678192 L0,24.6678192 L0,6.71029884 C0,2.74388738 2.47221536,1.77635684e-15 7.03630526,1.77635684e-15 Z M36.1595456,8.58483576 C38.2242529,8.58483576 39.8814522,9.155347 40.7779699,9.75302544 L39.7999506,11.3830575 C39.0121018,10.8668807 37.4635713,10.4050383 36.2682144,10.4050383 C33.7688318,10.4050383 32.6278093,11.2743887 32.6278093,12.4154112 C32.6278093,13.8281057 34.4751791,14.9147938 36.4583848,15.6754754 C36.6164485,15.6260805 36.7665292,15.5798788 36.9150617,15.5354189 L37.1375036,15.4698538 C38.1405061,15.1790566 39.2195604,14.9345517 42.3536676,14.2899481 L42.3536676,16.0558163 L38.6860953,16.7621635 L38.6860953,16.8708323 C40.3161274,17.6043468 41.7559891,18.7997036 41.7559891,20.6199061 C41.7559891,22.5216103 40.2346258,24.776488 35.8878735,24.776488 C33.4428254,24.776488 31.2966164,23.8528032 30.3457644,23.1736231 L31.3237837,21.543591 C32.2746357,22.1956039 34.0405038,22.9562855 35.942208,22.9562855 C38.5230921,22.9562855 39.6912818,21.8967646 39.6912818,20.5927389 C39.6912818,19.2072117 38.1155841,18.310694 35.7248703,17.3326747 C35.5584712,17.3836132 35.3992884,17.4315803 35.2407954,17.4780617 L35.0027574,17.5468552 C33.9664308,17.8417414 32.8213756,18.105242 29.7752531,18.7453692 L29.7752531,16.9251667 L33.4971598,16.2188195 L33.4971598,16.1101507 C31.9757965,15.349469 30.6174364,14.0726105 30.6174364,12.3610768 C30.6174364,10.2420351 32.6821437,8.58483576 36.1595456,8.58483576 Z M30.5902692,1.77635684e-15 C35.1815263,1.77635684e-15 38.5230921,2.90689059 39.718449,4.15658187 L38.4415905,5.48777476 C36.9745616,4.10224747 34.2578414,1.84736972 30.6174364,1.84736972 C27.194369,1.84736972 25.8088417,3.99357866 25.8088417,6.73746604 L25.8088417,24.6678192 L23.7984688,24.6678192 L23.7984688,6.62879723 C23.7984688,2.71672018 26.2978513,1.77635684e-15 30.5902692,1.77635684e-15 Z M45.4778958,8.66633737 C46.8905903,8.66633737 48.0044455,9.59002223 48.0044455,11.6275624 L48.0044455,15.2408002 C48.0044455,17.6858484 49.1726352,18.6095332 51.0200049,18.6095332 C52.9760435,18.6095332 54.6332428,17.3870091 54.6332428,14.3171153 L54.6332428,8.72067177 L56.5892813,8.72067177 L56.5892813,24.6678192 L54.6332428,24.6678192 L54.6332428,18.6367004 L54.524574,18.6367004 C53.8725611,19.7233885 52.4326994,20.4569029 50.7755001,20.4569029 C47.8414423,20.4569029 46.0212398,18.44653 46.0212398,15.8384786 L46.0212398,11.7905656 C46.0212398,10.9212151 45.7224006,10.4593727 44.9073845,10.4593727 C44.6900469,10.4593727 44.4455421,10.4865399 44.1738701,10.5680415 L44.1738701,8.85650778 C44.6085453,8.72067177 45.0432205,8.66633737 45.4778958,8.66633737 Z M59.2788343,1.77635684e-15 C62.2400593,1.77635684e-15 63.9787602,2.20054334 63.9787602,4.86292912 L63.9787602,24.6678192 L61.9683873,24.6678192 L61.9683873,4.89009632 C61.9683873,3.1242282 61.0990368,1.90170412 59.2788343,1.90170412 C56.8881205,1.90170412 56.0459373,4.02074586 56.5349469,5.92244999 L54.5517412,5.46060756 C54.0898987,2.77105458 55.8829341,1.77635684e-15 59.2788343,1.77635684e-15 Z M81.2842677,8.58483576 C82.941467,8.58483576 84.4084959,8.99234379 85.359348,9.39985182 L84.7073351,11.1657199 C83.9194863,10.8125463 82.6969622,10.4593727 81.2299333,10.4593727 C78.757718,10.4593727 77.6981971,11.4917264 77.6981971,12.6870832 C77.6981971,16.1373179 86.2558656,15.4038034 86.2558656,20.3754013 C86.2558656,22.8204495 84.2454927,24.8851568 80.4692517,24.8851568 C77.7525315,24.8851568 75.7421586,23.8799704 74.8999753,23.1464559 L75.9594962,21.5164238 C76.8288466,22.2227711 78.3773771,23.0377871 80.5507533,23.0377871 C82.8599654,23.0377871 84.1911583,21.9782662 84.1911583,20.4025685 C84.1911583,16.9795011 75.6334898,17.6858484 75.6334898,12.659916 C75.6334898,10.4593727 77.6166955,8.58483576 81.2842677,8.58483576 Z M76.1224994,1.77635684e-15 C80.7137565,1.77635684e-15 84.0553223,2.90689059 85.2506792,4.15658187 L83.9738207,5.48777476 C82.5067918,4.10224747 79.7900716,1.84736972 76.1496666,1.84736972 C72.7265992,1.84736972 71.3410719,3.99357866 71.3410719,6.73746604 L71.3410719,24.6678192 L69.3306989,24.6678192 L69.3306989,6.62879723 C69.3306989,2.71672018 71.8300815,1.77635684e-15 76.1224994,1.77635684e-15 Z M100.627315,20.3754013 L100.627315,24.6678192 L102.610521,24.6678192 L102.610521,8.72067177 L100.627315,8.72067177 L100.627315,17.0610027 C100.355643,18.5280316 98.6984441,20.6470734 95.6557175,20.6470734 C92.4499877,20.6470734 91.3632996,18.1476908 91.3089652,17.1153371 C94.7048654,16.4089899 96.8239071,14.8332922 96.8239071,12.4154112 C96.8239071,10.0518647 94.8950358,8.66633737 92.4499877,8.66633737 C91.55347,8.66633737 90.6026179,8.85650778 89.8147691,9.1825142 L90.4939491,10.9755495 C91.0644604,10.7310447 91.825142,10.5137071 92.5043221,10.5137071 C93.7540133,10.5137071 94.8135342,11.1113855 94.8135342,12.4154112 C94.8135342,13.9911089 93.1291677,15.1321314 88.8910842,15.8656458 C89.1899234,19.7233885 91.825142,22.4944431 95.5470487,22.4944431 C98.1007656,22.4944431 99.7307977,21.3262534 100.518647,20.3754013 L100.627315,20.3754013 Z M110,24.6678192 L110,8.72067177 L107.989627,8.72067177 L107.989627,24.6678192 L110,24.6678192 Z" id="gu-wordmark" fill="#000000" fill-rule="nonzero"></path>
    </g>
</svg>