<svg xmlns="http://www.w3.org/2000/svg" width="120" height="22"><path fill="#000" fill-rule="nonzero" d="M7.49 0c5.39 0 6.23 2.558 6.23 4.527 0 1.599-1.3 3.108-2.752 3.854v.06c2.522.736 4.463 2.351 4.463 5.176 0 2.527-1.538 5.472-7.304 5.472-2.577 0-2.983-.06-4.23-.06-1.477 0-2.347.029-3.767.06-.173-.177-.173-.796 0-.972 2.03-.088 2.522-.235 2.522-2.676V3.647C2.652 1.207 2.16 1.06.13.97-.043.795-.043.177.13.001c1.45.028 2.29.06 3.739.06C5.114.058 6.475 0 7.489 0ZM5.114 8.264h2.145c2.404 0 4.115-.883 4.115-3.382 0-3-2.115-3.881-3.737-3.881-2.522 0-2.522.294-2.522 1.265l-.001 5.998Zm0 7.88c0 .971.378 1.972 2.405 1.972 4.405 0 5.216-1.793 5.216-3.94 0-2.647-1.652-4.912-5.622-4.912h-2v6.88Zm18.42 2.237c.132.123.132.564 0 .688-1.087-.02-1.718-.04-2.803-.04-1.11 0-1.761.021-2.826.04-.13-.123-.13-.564 0-.688 1.521-.064 1.893-.167 1.893-1.901V8.106c0-1.735-.37-1.839-1.893-1.9-.13-.127-.13-.566 0-.691 1.088.022 1.719.043 2.804.043 1.11 0 1.76-.023 2.826-.043.13.124.13.563 0 .69-1.521.063-1.893.165-1.893 1.901v8.374c.001 1.734.372 1.84 1.893 1.901Zm2.414.25c0-.104.067-.166.152-.166l.588-.04c.913-.067 1.174-.294 1.174-.877V7.044c0-.627-.327-.815-1.174-.879l-.565-.04c-.087 0-.174-.064-.174-.167v-.396l.044-.04c1.087.02 1.74.04 2.826.04s1.717-.021 2.782-.04l.044.04v.396c0 .106-.065.168-.174.168l-.563.04c-.87.066-1.196.292-1.196.878v4.342c.783 0 1.76-.021 2.282-.312 1.283-.668 1.588-2.006 1.782-3.174.218-1.293.827-2.465 2.544-2.465 1.15 0 1.543.606 1.543 1.086 0 .606-.5.836-.956.836-.284 0-.587-.104-.804-.313-.24-.231-.415-.337-.695-.337-.652 0-.803.692-.915 1.295-.239 1.295-.695 3.09-2.348 3.676v.105c1.5 0 2.348.898 2.935 2.36 1.132 2.818 2.238 4.24 3 4.3l.347.023c.108 0 .173.063.173.165v.398l-.023.04-1.717-.021c-1.697-.022-2.478-1.714-3.413-4.009-.852-2.088-1.26-2.777-3.738-2.777v5.284c0 .625.327.81 1.195.876l.565.04c.086 0 .173.065.173.167v.397l-.044.041c-1.043-.04-1.675-.04-2.76-.04-1.087 0-1.782 0-2.847.04l-.044-.04.001-.396Zm20.716-.25c.13.123.13.564 0 .688-1.087-.02-1.719-.04-2.804-.04-1.109 0-1.76.021-2.825.04-.131-.123-.131-.564 0-.688 1.52-.064 1.892-.167 1.892-1.901V8.106c0-1.735-.37-1.839-1.892-1.9-.131-.127-.131-.566 0-.691 1.087.022 1.718.043 2.804.043 1.109 0 1.76-.023 2.825-.043.13.124.13.563 0 .69-1.521.063-1.892.165-1.892 1.901v8.374c.003 1.734.371 1.84 1.892 1.901ZM63.467 5.52c.132.124.132.563 0 .688-1.52.065-1.891.167-1.891 1.901v8.375c0 1.733.371 1.838 1.891 1.901.132.124.132.564 0 .689-1.064-.022-1.717-.041-2.824-.041-1.089 0-1.719.022-2.804.04-.131-.123-.131-.563 0-.688 1.52-.063 1.891-.167 1.891-1.9V7.941c0-1.294-.476-1.544-1.001-1.544h-4.282c-.521 0-1 .248-1 1.544v8.541c0 1.733.37 1.838 1.891 1.901.131.124.131.564 0 .689-1.086-.022-1.717-.041-2.804-.041-1.108 0-1.76.022-2.825.04-.131-.123-.131-.563 0-.688 1.521-.063 1.891-.167 1.891-1.9V8.107c0-1.732-.369-1.837-1.891-1.9-.131-.125-.131-.564 0-.689 1.086.022 2.304.04 2.804.04h8.151c.586 0 1.719-.02 2.803-.04Zm10.545 4.55c.132-.125.587-.125.719 0-.023.628-.044 1.085-.044 1.796 0 .71.022 1.107.044 1.839-.132.123-.587.123-.72 0-.065-.94-.13-1.422-1.978-1.422h-1.977v5.033c0 .564.302.898.782.898h2.957c1.652 0 2.41-1.232 2.846-2.736.286-.067.534-.022.76.104a32.25 32.25 0 0 1-.803 3.487s-1.738-.04-2.783-.04h-4.674s-1.763.022-2.827.04c-.13-.123-.13-.563 0-.689 1.523-.062 1.892-.166 1.892-1.9V8.104c0-1.734-.37-1.838-1.892-1.901-.13-.125-.13-.564 0-.688 1.087.021 2.803.04 2.803.04h5.543c.52 0 .695-.02 1.064-.082.066 0 .088.021.088.063.044.167.37 2.171.478 3.027a1.26 1.26 0 0 1-.717.105c-.478-1.44-.828-2.275-2.458-2.275h-2.281c-.522 0-.783.416-.783.917v4.177h1.978c1.853.002 1.917-.27 1.983-1.418Zm9.413 2.673c.477-2.381.74-4.532.74-5.846 0-.439-.197-.655-.762-.71l-.652-.063c-.11 0-.173-.042-.173-.125V5.56l.043-.04s1.522.04 2.172.04h5.674c.651 0 2.37-.04 2.37-.04l.043.04v.396c0 .125-.086.161-.174.167l-.631.04c-.698.047-.804.314-.804 1.066V17.4c0 .773.49 1.003.872 1.065.47.078.638.148.651.397l.152 3.09c-.588 0-.588.022-.588.022-.26-1.169-1.043-2.943-2.782-2.943h-6.303c-1.806 0-2.37 1.858-2.61 2.943l-.587-.021.152-3.09c.016-.25.243-.367.458-.398.425-.063.773-.114 1.087-.418.567-.544.957-2.047 1.652-5.304Zm2.521-6.348c-.586 0-.804.293-.847.815-.176 2.11-.522 4.28-.782 5.7-.478 2.443-1.021 4.51-1.021 4.948 0 .25.283.356.587.356h4.76c.522 0 .783-.065.783-.836V7.207c0-.648-.131-.813-.805-.813h-2.675Zm15.37 11.987c.13.123.13.564 0 .688-1.086-.02-1.718-.04-2.803-.04-1.109 0-1.762.021-2.827.04-.13-.123-.13-.564 0-.688 1.523-.064 1.892-.167 1.892-1.901V8.106c0-1.735-.37-1.839-1.892-1.9-.13-.127-.13-.566 0-.691 1.088.022 1.718.043 2.803.043 1.11 0 1.762-.023 2.827-.043.13.124.13.563 0 .69-1.521.063-1.892.165-1.892 1.901v8.374c0 1.734.37 1.84 1.892 1.901Zm2.543.087c0-.147.088-.234.202-.234l.261-.03c.928-.116 2.365-1.718 3.854-5.648.726-1.91 1.594-2.647 2.378-3.116v-.088c-1.972-.293-4.318-1.765-4.318-4.765 0-2.029.986-4.558 6.375-4.558 1.013 0 2.723.029 3.68.029.9 0 3.709-.029 3.709-.029v.617c0 .117-.059.204-.202.204l-.87.06c-1.218.088-1.537.296-1.537 1.294v14.675c0 .883.378 1.207 1.566 1.295l.782.061a.23.23 0 0 1 .232.234v.56l-.058.06s-2.523-.06-3.651-.06c-1.044 0-3.737.06-3.737.06l-.06-.06v-.56c0-.147.088-.234.234-.234l.752-.061c1.219-.093 1.594-.47 1.594-1.295V9.498c-3.072 0-3.652.853-4.868 3.972-1.246 3.191-2.319 5.555-4.376 5.588l-1.913.027-.027-.059v-.559h-.002v.001Zm8.926-10.087h2.26V2.12c0-.972-.115-1.06-2.637-1.06-1.624 0-3.825.47-3.825 3.205 0 3.117 1.797 4.117 4.202 4.117Z"/></svg>