<svg xmlns="http://www.w3.org/2000/svg" width="120" height="18" fill="none"><path fill="#000" fill-rule="evenodd" d="M107.905 17.15c.156-.156.156-.702 0-.858-.977-.068-2.198-.18-1.79-1.248l1.428-3.767c.129-.339.286-.441.91-.441h5.403l1.584 4.391c.339.938-.443.981-1.473 1.038-.146.008-.296.016-.449.027-.155.157-.155.703 0 .859.961-.027 2.39-.053 3.404-.053 1.009 0 1.904.024 2.815.049l.147.004c.155-.157.155-.703 0-.859l-.16-.014c-.938-.08-1.725-.148-2.18-1.413L112.219.78c-.19-.503-.337-.781-.702-.781-.38 0-.578.231-.874.928l-5.778 13.52c-.684 1.605-1.466 1.766-2.598 1.844-.155.157-.155.703 0 .859.283-.008.512-.016.72-.023.499-.017.877-.03 1.592-.03 1.066 0 2.365.027 3.326.053Zm3.016-14.343 2.519 6.937h-4.521c-.577 0-.764-.064-.655-.345l2.603-6.592h.054ZM6.717.287c4.833 0 5.586 2.26 5.586 4 0 1.412-1.167 2.745-2.469 3.404v.052c2.26.65 4.002 2.078 4.002 4.573 0 2.234-1.377 4.834-6.548 4.834a84.94 84.94 0 0 1-2.612-.034c-.391-.01-.723-.02-1.181-.02-1.045 0-1.751.017-2.627.037l-.751.017c-.156-.156-.156-.702 0-.859 1.82-.078 2.261-.208 2.261-2.364V3.507c0-2.156-.442-2.285-2.261-2.363-.156-.155-.156-.702 0-.858.343.006.648.013.935.02.8.017 1.461.032 2.417.032.587 0 1.203-.014 1.787-.028.527-.012 1.029-.023 1.46-.023Zm-2.13 7.301h1.922c2.156 0 3.69-.78 3.69-2.988 0-2.65-1.898-3.43-3.353-3.43-2.26 0-2.26.261-2.26 1.118v5.3Zm-.002 6.962c0 .858.338 1.742 2.157 1.742 3.95 0 4.677-1.584 4.677-3.482 0-2.338-1.482-4.34-5.041-4.34H4.585v6.08Zm15.738 1.976c.117.109.117.498 0 .608l-.642-.013h-.003a80 80 0 0 0-1.87-.023c-.738 0-1.25.01-1.857.023l-.676.013c-.117-.11-.117-.5 0-.608 1.364-.057 1.696-.147 1.696-1.679V7.45c0-1.533-.331-1.625-1.696-1.68-.117-.11-.117-.499 0-.609.218.005.416.01.603.013.646.014 1.156.025 1.911.025.725 0 1.232-.01 1.824-.023.22-.005.451-.01.71-.014.117.11.117.498 0 .609-1.364.056-1.695.146-1.695 1.679v7.398c0 1.53.33 1.624 1.695 1.679Zm6.649.608c.116-.11.116-.5 0-.608-1.365-.055-1.698-.148-1.696-1.68v-3.448c.656.018 1.17.225 1.56.7l3.177 3.652c.388.448.39.937.39 1.274 0 .052.02.11.098.11l.195-.01c.314-.013.626-.027 1.11-.027.512 0 .811.008 1.23.019h.001l.738.017c.118-.11.118-.498 0-.608a3.469 3.469 0 0 0-.153-.016c-.38-.035-.992-.092-1.562-.76l-4.27-4.796c-.174-.184-.233-.314-.233-.46 0-.129.084-.253.72-.904l2.73-2.787c.834-.84 1.635-.93 2.371-1.014h.001l.161-.018c.117-.11.117-.5 0-.61-.364.007-.609.015-.82.021-.319.01-.562.017-1.032.017-.577 0-1.005-.01-1.56-.023-.194-.005-.404-.01-.642-.014-.117.11-.117.498 0 .609.08.007.162.012.243.017.617.039 1.133.07.303.942l-3.275 3.246c-.392.387-.8.658-1.482.714v-3.24c0-1.533.333-1.623 1.697-1.68.116-.11.116-.499 0-.609l-.71.015c-.592.012-1.099.023-1.824.023-.755 0-1.264-.011-1.909-.025l-.605-.013c-.118.11-.118.5 0 .61 1.365.054 1.696.146 1.696 1.679v7.398c0 1.532-.332 1.622-1.696 1.679-.118.109-.118.498 0 .608l.676-.013a80.456 80.456 0 0 1 1.857-.023c.739 0 1.242.01 1.867.023h.014c.195.005.403.009.634.013Zm13.525-.608c.118.109.118.498 0 .608l-.645-.013a80 80 0 0 0-1.87-.023c-.738 0-1.25.01-1.857.023l-.676.013c-.117-.11-.117-.5 0-.608 1.364-.057 1.696-.147 1.696-1.679V7.45c0-1.533-.33-1.625-1.696-1.68-.117-.11-.117-.499 0-.609.218.005.416.01.602.013h.002c.645.014 1.155.025 1.91.025.726 0 1.233-.01 1.824-.023.22-.005.452-.01.71-.014.118.11.118.498 0 .609-1.364.056-1.695.146-1.695 1.679v7.398c0 1.53.331 1.624 1.695 1.679ZM53.282 5.77c.11-.11.11-.499 0-.608l-.067.002c-.889.017-1.802.034-2.281.034h-6.825c-.419 0-1.438-.017-2.348-.036-.109.11-.109.498 0 .608 1.274.055 1.583.147 1.583 1.679v7.4c0 1.53-.309 1.622-1.583 1.678-.109.11-.109.498 0 .608.255-.004.482-.01.698-.014.538-.012 1.006-.022 1.668-.022.722 0 1.205.01 1.828.025h.006l.514.011c.109-.11.109-.498 0-.608-1.275-.055-1.584-.147-1.584-1.679V7.302c0-1.144.4-1.365.838-1.365h3.586c.437 0 .837.222.837 1.365v7.546c0 1.532-.309 1.623-1.584 1.679-.108.11-.108.498 0 .608l.736-.015c.525-.011.975-.021 1.612-.021.756 0 1.258.011 1.9.026l.466.01c.11-.11.11-.498 0-.608-1.274-.055-1.583-.147-1.583-1.679v-7.4c0-1.53.31-1.621 1.583-1.678Zm4.49 10.756c.117.109.117.499 0 .608-.721-.018-1.695-.036-2.494-.036-.517 0-.8.009-1.153.02l-.582.016c-.117-.11-.117-.5 0-.608.848-.057 1.434-.171 1.95-1.31l4.332-9.6c.222-.495.37-.659.658-.659.272 0 .383.198.525.554l3.996 10c.34.896.927.946 1.63 1.004h.002l.122.01c.115.11.115.5 0 .61l-.052-.002a82.072 82.072 0 0 0-2.172-.035c-.76 0-1.832.019-2.552.036-.116-.11-.116-.5 0-.608.113-.008.225-.013.332-.019.775-.04 1.365-.07 1.11-.738l-1.19-3.117h-4.052c-.468 0-.584.074-.681.313l-1.073 2.675c-.305.758.61.837 1.345.886Zm4.152-4.65-1.89-4.925h-.04l-1.953 4.68c-.082.198.058.246.49.246h3.393Zm10.058 5.258c.116-.11.116-.5 0-.608-1.365-.055-1.695-.148-1.696-1.679V7.45c0-1.533.33-1.623 1.696-1.68.116-.11.116-.499 0-.609l-.707.015h-.002c-.593.012-1.1.023-1.826.023-.754 0-1.263-.01-1.908-.025l-.607-.013c-.115.11-.115.5 0 .61 1.366.054 1.697.146 1.697 1.679v7.398c0 1.532-.331 1.622-1.697 1.679-.115.109-.115.498 0 .608l.675-.013c.608-.013 1.121-.023 1.86-.023.738 0 1.241.01 1.866.023l.649.013Zm12.247-.405c.059.166.078.22.078.258 0 .074-.078.11-.41.11h-10.29c-.254 0-.41-.019-.41-.128 0-.033.007-.046.028-.088.015-.03.037-.075.07-.152l4.97-11.772h1.21l4.754 11.772Zm-9.726-.258h7.855l-3.86-9.648h-.039l-3.956 9.648Zm18.245-7.289c-.116-.11-.526-.11-.643 0-.06 1.016-.117 1.255-1.777 1.254h-1.774v-3.69c0-.443.236-.812.702-.812h2.047c1.461 0 1.773.739 2.202 2.011a1.15 1.15 0 0 0 .645-.093c-.098-.756-.391-2.527-.43-2.674 0-.037-.018-.056-.078-.056a4.72 4.72 0 0 1-.954.073h-4.97s-1.539-.017-2.514-.035c-.117.108-.117.497 0 .607 1.364.055 1.695.147 1.695 1.679v7.4c0 1.53-.33 1.622-1.695 1.677-.117.11-.117.5 0 .61.955-.017 2.534-.037 2.534-.037h4.19c.937 0 2.496.036 2.496.036.272-.922.565-2.139.72-3.08a.922.922 0 0 0-.682-.092c-.388 1.328-1.07 2.417-2.552 2.417h-2.651c-.43 0-.702-.295-.702-.793v-4.447h1.774c1.658 0 1.714.426 1.774 1.256.117.11.527.11.643 0-.005-.176-.01-.33-.016-.475-.013-.383-.023-.694-.023-1.15 0-.536.014-.91.03-1.353l.009-.233Zm8.381 7.344c.118.109.118.498 0 .608a263.55 263.55 0 0 1-.645-.013 79.934 79.934 0 0 0-1.868-.023c-.738 0-1.252.01-1.86.023l-.674.013c-.117-.11-.117-.5 0-.608 1.365-.057 1.697-.147 1.697-1.679V7.45c0-1.533-.332-1.625-1.697-1.68-.117-.11-.117-.499 0-.609.22.005.419.01.607.013.644.014 1.153.025 1.907.025.724 0 1.232-.01 1.824-.023.219-.005.451-.01.709-.014.118.11.118.498 0 .609-1.363.056-1.696.146-1.696 1.679v7.398c0 1.53.333 1.624 1.696 1.679Z" clip-rule="evenodd"/></svg>