<?xml version="1.0" encoding="UTF-8"?>
<svg width="120px" height="10px" viewBox="0 0 120 10" version="1.1" xmlns="http://www.w3.org/2000/svg" xmlns:xlink="http://www.w3.org/1999/xlink">
    <title>sn-tagline</title>
    <g id="Page-1" stroke="none" stroke-width="1" fill="none" fill-rule="evenodd">
        <path d="M1.77208801,6.17469773 L1.77208801,1.34538124 C1.77208801,0.993976092 2.12349407,0.853413517 2.61546137,0.853413517 C4.78413356,0.853413517 5.49698701,2.61044267 5.49698701,4.15662577 C5.49698701,6.1847358 4.28212638,6.68674584 2.86646535,6.68674584 C1.88253074,6.68674584 1.77208801,6.49598282 1.77208801,6.17469773 M1.34036118,0.532128428 C0.838353734,0.532128428 0.547188118,0.522088269 0.0451806686,0.51204811 C-0.0150602229,0.572289064 -0.0150602229,0.783132474 0.0451806686,0.843373358 C0.747991103,0.873493835 0.918674504,0.923695467 0.918674504,1.75702776 L0.918674504,5.78313153 C0.918674504,6.61646403 0.747991103,6.66666552 0.0451806686,6.696786 C-0.0150602229,6.75702695 -0.0150602229,6.96787029 0.0451806686,7.02811125 C0.537147973,7.01807109 0.838353748,7.00803093 1.35040133,7.00803093 C1.72188687,7.00803093 2.14357494,7.02811125 3.17771028,7.02811125 C4.59337131,7.02811125 6.46084228,6.38553898 6.46084228,3.91566195 C6.46084228,2.04819446 4.924696,0.51204811 2.99698742,0.51204811 C2.35441786,0.51204811 1.73192703,0.532128428 1.34036118,0.532128428 M8.86383916,7.10843252 C9.25540536,7.10843252 9.66705258,6.90762934 10.1590197,6.50602298 C10.1991803,6.46586234 10.2795016,6.44578202 10.2795016,6.51606314 C10.2795016,6.75702695 10.3899433,7.10843252 10.3899433,7.10843252 C10.4602244,7.138553 10.5003851,7.138553 10.5807064,7.10843252 C10.8015899,6.92770966 11.1831166,6.77710727 11.7955656,6.70682616 C11.8558065,6.64658521 11.8558065,6.49598282 11.7955656,6.43574187 C11.1529961,6.38554107 11.062634,6.19477735 11.062634,5.70281026 L11.062634,3.77509972 C11.062634,3.47389565 11.1027946,2.7510035 11.1027946,2.7510035 C11.1027946,2.71084287 11.0726741,2.68072239 11.0224733,2.68072239 C10.9722726,2.69076255 10.8216702,2.70080271 10.6710678,2.70080271 C10.3497834,2.70080271 10.0184574,2.69076255 9.64697156,2.68072239 C9.58673061,2.74096334 9.58673061,2.95180668 9.64697156,3.01204764 C10.1389394,3.04216811 10.2694614,3.16265072 10.2694614,3.82530052 L10.2694614,5.76305121 C10.2694614,5.95381423 10.2493811,6.0341355 10.1088189,6.15461741 C9.73733369,6.4759025 9.4160479,6.63654505 9.16504393,6.63654505 C8.86383986,6.63654505 8.36183121,6.49598212 8.36183121,5.60240867 L8.36183121,3.77509972 C8.36183121,3.47389565 8.40199184,2.7510035 8.40199184,2.7510035 C8.40199184,2.71084287 8.37187137,2.68072239 8.32167057,2.68072239 C8.27146978,2.69076255 8.12086739,2.70080271 7.97026501,2.70080271 C7.64898061,2.70080271 7.31765446,2.69076255 6.94616892,2.68072239 C6.88592804,2.74096334 6.88592804,2.95180668 6.94616892,3.01204764 C7.42809642,3.05220827 7.56865864,3.16265072 7.56865864,3.81526036 L7.56865864,5.74297089 C7.56865864,6.43574117 7.86986481,7.10843252 8.86383916,7.10843252 M12.754976,3.82530052 L12.754976,5.78313153 C12.754976,6.61646403 12.6344934,6.65662536 12.0120042,6.696786 C11.9517633,6.75702695 11.9517633,6.96787029 12.0120042,7.02811125 C12.4336909,7.01807109 12.7549767,7.00803093 13.1565824,7.00803093 C13.5682289,7.00803093 13.9397155,7.01807109 14.3714416,7.02811125 C14.4316826,6.96787029 14.4316826,6.75702695 14.3714416,6.696786 C13.6686312,6.64658521 13.5481486,6.61646403 13.5481486,5.78313153 L13.5481486,4.38754942 C13.5481486,4.12650599 13.6686305,3.89558163 13.7891124,3.71485877 C13.8995541,3.55421623 14.1304778,3.22289098 14.2509597,3.22289098 C14.3212408,3.22289098 14.4015621,3.23293114 14.461803,3.29317209 C14.5622046,3.39357368 14.6626069,3.5843367 14.8734496,3.5843367 C15.1144134,3.5843367 15.345337,3.33333273 15.345337,3.08232875 C15.345337,2.89156573 15.1646142,2.60040112 14.7429275,2.60040112 C14.2710407,2.60040112 13.8593935,3.04216881 13.6284698,3.43373432 C13.5682289,3.54417607 13.5381084,3.49397527 13.5381084,3.44377448 C13.5381084,3.12249008 13.5883092,2.64056175 13.5883092,2.64056175 C13.5883092,2.60040112 13.5381084,2.57028064 13.4577871,2.57028064 C13.1766634,2.68072239 12.7750556,2.77108382 12.0822853,2.86144525 C12.062205,2.92168621 12.062205,3.08232875 12.1023657,3.14256971 C12.6445336,3.1927705 12.754976,3.27309247 12.754976,3.82530052 M18.209397,4.66867388 L18.209397,6.00401503 C18.209397,6.13453709 18.149156,6.20481821 18.0688347,6.26505916 C17.8077913,6.4759025 17.4664252,6.696786 17.1853008,6.696786 C16.6832935,6.696786 16.4624093,6.29517964 16.4624093,5.98393471 C16.4624093,5.53212825 16.6732533,5.0803204 17.4162244,4.87951722 L18.209397,4.66867388 M18.209397,6.5261033 C18.2696379,6.73694664 18.4403213,7.10843252 18.9824892,7.10843252 C19.474457,7.10843252 19.8359027,6.70682616 19.8359027,6.65662536 C19.8359027,6.58634425 19.7455413,6.48594266 19.7053807,6.48594266 C19.6451397,6.48594266 19.6049791,6.64658521 19.3941357,6.64658521 C19.0025702,6.64658521 18.9925294,6.25501831 18.9925294,5.79317169 L18.9925294,4.29718799 C18.9925294,2.87148681 18.2093963,2.60040112 17.4764654,2.60040112 C16.653173,2.60040112 15.8198391,3.17269088 15.8198391,3.71485877 C15.8198391,3.95582259 15.9403217,4.06626434 16.1712447,4.06626434 C16.4624093,4.06626434 16.6130117,3.86546116 16.6130117,3.73493909 C16.6130117,3.66465797 16.6029715,3.59437686 16.5828912,3.55421623 C16.5728511,3.52409575 16.5628109,3.46385479 16.5628109,3.35341304 C16.5628109,3.04216881 17.0146187,2.93172637 17.3961441,2.93172637 C17.7375095,2.93172637 18.209397,3.10241046 18.209397,4.23694704 C18.209397,4.30722815 18.1792765,4.34738879 18.149156,4.35742895 L17.2857023,4.56827229 C16.3218485,4.8092361 15.6290761,5.34136523 15.6290761,6.02409535 C15.6290761,6.81726721 16.1913257,7.10843252 16.8941361,7.10843252 C17.3559835,7.10843252 17.5467472,7.02811125 17.9885135,6.68674584 L18.1893167,6.5261033 L18.209397,6.5261033 M22.4639492,3.82530052 L22.4639492,5.78313153 C22.4639492,6.61646403 22.3434666,6.65662536 21.7209775,6.696786 C21.6607365,6.75702695 21.6607365,6.96787029 21.7209775,7.02811125 C22.1426641,7.01807109 22.4639499,7.00803093 22.8655556,7.00803093 C23.2772021,7.00803093 23.6486887,7.01807109 24.0804148,7.02811125 C24.1406558,6.96787029 24.1406558,6.75702695 24.0804148,6.696786 C23.3776044,6.64658521 23.2571218,6.61646403 23.2571218,5.78313153 L23.2571218,4.38754942 C23.2571218,4.12650599 23.3776037,3.89558163 23.4980856,3.71485877 C23.6085274,3.55421623 23.839451,3.22289098 23.9599329,3.22289098 C24.030214,3.22289098 24.1105353,3.23293114 24.1707763,3.29317209 C24.2711778,3.39357368 24.3715801,3.5843367 24.5824228,3.5843367 C24.8233866,3.5843367 25.0543103,3.33333273 25.0543103,3.08232875 C25.0543103,2.89156573 24.8735874,2.60040112 24.4519007,2.60040112 C23.9800139,2.60040112 23.5683667,3.04216881 23.3374431,3.43373432 C23.2772021,3.54417607 23.2470816,3.49397527 23.2470816,3.44377448 C23.2470816,3.12249008 23.2972824,2.64056175 23.2972824,2.64056175 C23.2972824,2.60040112 23.2470816,2.57028064 23.1667604,2.57028064 C22.8856366,2.68072239 22.4840288,2.77108382 21.7912586,2.86144525 C21.7711782,2.92168621 21.7711782,3.08232875 21.8113389,3.14256971 C22.3535068,3.1927705 22.4639492,3.27309247 22.4639492,3.82530052 M26.1431446,4.17670608 C26.3339076,3.04216951 27.0367194,2.95180668 27.2776826,2.95180668 C27.6592086,2.95180668 28.1110157,3.16265072 28.1110157,4.00602338 C28.1110157,4.09638481 28.0708551,4.14658561 27.9604134,4.14658561 L26.1431446,4.17670608 M28.7736662,6.07429614 C28.4021811,6.45582218 28.1110151,6.61646473 27.5286865,6.61646473 C27.1672415,6.61646473 26.7455541,6.40562069 26.4343092,5.89357328 C26.2335067,5.56224873 26.1130241,5.10040002 26.1130241,4.51807149 L28.7837064,4.53815181 C28.9041883,4.53815181 28.9744694,4.47791086 28.9744694,4.36746911 C28.9744694,3.52409645 28.6732633,2.62048144 27.2776826,2.62048144 C26.4041894,2.62048144 25.2696507,3.45381603 25.2696507,4.97991881 C25.2696507,5.54216702 25.4102137,6.084337 25.7415382,6.46586234 C26.0829036,6.8674687 26.5547918,7.10843252 27.2776826,7.10843252 C28.0407339,7.10843252 28.5829039,6.75702626 28.9845096,6.23493869 C28.9543891,6.13453709 28.8941482,6.0843363 28.7736662,6.07429614 M31.9105361,0.803212722 C32.5229851,0.803212722 33.2458773,1.02409741 33.2458773,2.20883492 C33.2458773,3.4638534 32.5330253,3.74497925 31.5591306,3.74497925 L31.0772029,3.74497925 L31.0772029,1.44578283 C31.0772029,1.15461864 31.1976855,0.803212722 31.9105361,0.803212722 M31.0772029,5.78313153 L31.0772029,4.08634465 C31.9205756,4.08634465 32.1012992,4.23694704 32.2519015,4.4678707 L33.3261986,6.21485837 C33.607323,6.68674514 34.0490907,7.10843252 34.6514996,7.10843252 C34.8021019,7.10843252 34.9727846,7.0883522 35.0731862,7.03815141 C35.1033067,6.97791045 35.1033067,6.87750886 35.0631461,6.79718759 C34.6113396,6.79718759 34.3603349,6.46586234 34.0992908,6.02409535 L32.8342308,3.91566195 C33.2659576,3.77509972 34.1695719,3.25301076 34.1695719,2.19879476 C34.1695719,1.6967875 33.9988892,1.28514008 33.6374435,0.943774948 C33.1555166,0.49196828 32.5330253,0.461847315 31.900496,0.461847315 C31.6494927,0.461847315 31.0270021,0.532128428 30.6454761,0.532128428 C30.1434688,0.532128428 29.8523028,0.522088269 29.3502956,0.51204811 C29.2900546,0.572289064 29.2900546,0.783132474 29.3502956,0.843373358 C30.053106,0.873493835 30.2237894,0.923695467 30.2237894,1.75702776 L30.2237894,5.78313153 C30.2237894,6.61646403 30.053106,6.66666552 29.3502956,6.696786 C29.2900546,6.75702695 29.2900546,6.96787029 29.3502956,7.02811125 C29.8422634,7.01807109 30.1434688,7.00803093 30.6555163,7.00803093 C31.1575235,7.00803093 31.4486895,7.01807109 31.9506968,7.02811125 C32.0109377,6.96787029 32.0109377,6.75702695 31.9506968,6.696786 C31.2478863,6.66666552 31.0772029,6.61646403 31.0772029,5.78313153 M37.0516728,7.10843252 C37.443239,7.10843252 37.8548862,6.90762934 38.3468533,6.50602298 C38.3870139,6.46586234 38.4673352,6.44578202 38.4673352,6.51606314 C38.4673352,6.75702695 38.5777769,7.10843252 38.5777769,7.10843252 C38.6480581,7.138553 38.6882187,7.138553 38.76854,7.10843252 C38.9894235,6.92770966 39.3709502,6.77710727 39.9833992,6.70682616 C40.0436402,6.64658521 40.0436402,6.49598282 39.9833992,6.43574187 C39.3408297,6.38554107 39.2504676,6.19477735 39.2504676,5.70281026 L39.2504676,3.77509972 C39.2504676,3.47389565 39.2906282,2.7510035 39.2906282,2.7510035 C39.2906282,2.71084287 39.2605078,2.68072239 39.210307,2.68072239 C39.1601062,2.69076255 39.0095038,2.70080271 38.8589014,2.70080271 C38.537617,2.70080271 38.2062911,2.69076255 37.8348052,2.68072239 C37.7745642,2.74096334 37.7745642,2.95180668 37.8348052,3.01204764 C38.326773,3.04216811 38.457295,3.16265072 38.457295,3.82530052 L38.457295,5.76305121 C38.457295,5.95381423 38.4372147,6.0341355 38.2966525,6.15461741 C37.9251673,6.4759025 37.6038815,6.63654505 37.3528775,6.63654505 C37.0516735,6.63654505 36.5496648,6.49598212 36.5496648,5.60240867 L36.5496648,3.77509972 C36.5496648,3.47389565 36.5898255,2.7510035 36.5898255,2.7510035 C36.5898255,2.71084287 36.559705,2.68072239 36.5095042,2.68072239 C36.4593034,2.69076255 36.308701,2.70080271 36.1580986,2.70080271 C35.8368142,2.70080271 35.5054883,2.69076255 35.1340024,2.68072239 C35.0737614,2.74096334 35.0737614,2.95180668 35.1340024,3.01204764 C35.61593,3.05220827 35.7564923,3.16265072 35.7564923,3.81526036 L35.7564923,5.74297089 C35.7564923,6.43574117 36.0576984,7.10843252 37.0516728,7.10843252 M40.5512434,2.57028064 C40.5211229,2.57028064 40.4910025,2.61044128 40.4910025,2.63052159 C40.4809623,3.08232805 40.4207213,3.46385549 40.3404001,3.95582259 C40.4207213,3.99598322 40.5512434,4.01606354 40.6717253,3.98594306 C40.8725285,3.25301215 41.1837741,3.04216811 41.4849782,3.04216811 L42.8705201,3.04216811 L40.400641,6.68674584 C40.3203198,6.80722775 40.3102796,6.83734823 40.3102796,6.88754902 C40.3102796,6.95783013 40.3906009,7.00803093 40.5412033,7.00803093 L43.6737329,7.00803093 C43.7239337,6.6967867 43.8243353,6.22489783 43.995018,5.6425693 C43.9247368,5.61244883 43.8142951,5.57228819 43.6938132,5.57228819 L43.5632911,5.8634528 C43.322328,6.39558053 43.1516439,6.66666552 42.5693154,6.66666552 L41.2339742,6.66666552 L43.6436124,3.12248939 C43.8142951,2.86144595 43.8644959,2.74096334 43.8644959,2.70080271 C43.8644959,2.66064207 43.8142951,2.63052159 43.744014,2.63052159 C43.6938132,2.63052159 43.3725281,2.70080271 43.0813635,2.70080271 L41.0432112,2.70080271 C40.7118867,2.70080271 40.7219261,2.61044128 40.5512434,2.57028064 M44.8885398,0.993975744 C44.8885398,1.25501967 45.1295043,1.51606394 45.3704675,1.51606394 C45.6515919,1.51606394 45.8925557,1.25501967 45.8925557,1.03413638 C45.8925557,0.793172842 45.6817124,0.51204811 45.4106281,0.51204811 C45.169665,0.51204811 44.8885398,0.753012206 44.8885398,0.993975744 M45.8021943,5.78313153 L45.8021943,3.78513988 C45.8021943,3.28313263 45.8423549,2.64056175 45.8423549,2.64056175 C45.8423549,2.60040112 45.7921541,2.57028064 45.7118329,2.57028064 C45.4206689,2.68072239 45.0291013,2.77108382 44.3363311,2.86144525 C44.3162508,2.92168621 44.3363311,3.08232875 44.3564114,3.14256971 C44.8985793,3.20281066 45.0090217,3.25301215 45.0090217,3.82530052 L45.0090217,5.78313153 C45.0090217,6.61646403 44.8985793,6.64658521 44.2861303,6.696786 C44.2258893,6.75702695 44.2258893,6.96787029 44.2861303,7.02811125 C44.707817,7.01807109 44.9688618,7.00803093 45.4106281,7.00803093 C45.8423549,7.00803093 46.0933596,7.01807109 46.5250857,7.02811125 C46.5853267,6.96787029 46.5853267,6.75702695 46.5250857,6.696786 C45.9126367,6.65662536 45.8021943,6.61646403 45.8021943,5.78313153 M49.7645535,3.01204764 C50.3067214,3.05220827 50.3569229,3.18273104 50.1460796,3.68473829 L49.3428668,5.65260946 C49.1721841,6.05421582 49.1219833,6.04417566 48.9713809,5.62248898 L48.2384493,3.68473829 C48.0677666,3.20281136 47.9272051,3.07228859 48.5597344,3.01204764 C48.6199754,2.95180668 48.6199754,2.74096334 48.5597344,2.68072239 C48.1882492,2.69076255 47.9071241,2.70080271 47.4954776,2.70080271 C47.1440727,2.70080271 46.9834295,2.69076255 46.6119436,2.68072239 C46.5517026,2.74096334 46.5517026,2.95180668 46.6119436,3.01204764 C47.1842319,3.08232875 47.2143538,3.24297199 47.4151563,3.74497925 L48.7002967,6.9176695 C48.7605376,7.06827188 48.8207786,7.12851284 48.9513006,7.12851284 C49.0517022,7.12851284 49.1119432,7.06827188 49.1922644,6.89758918 L50.5276056,3.75501941 C50.7183686,3.32329326 50.8288111,3.06224843 51.3910593,3.01204764 C51.4513002,2.95180668 51.4513002,2.74096334 51.3910593,2.68072239 C51.1701765,2.69076255 50.9894529,2.70080271 50.7284088,2.70080271 C50.3569236,2.70080271 50.1360394,2.69076255 49.7645535,2.68072239 C49.7043126,2.74096334 49.7043126,2.95180668 49.7645535,3.01204764 M51.6063998,4.94979833 C51.6063998,5.97389385 52.2991721,7.10843252 53.7148332,7.10843252 C55.2108155,7.10843252 55.8433469,5.8634521 55.8433469,4.8594369 C55.8433469,3.81526175 55.2911367,2.60040112 53.7349135,2.60040112 C52.3794934,2.60040112 51.6063998,3.67469953 51.6063998,4.94979833 M53.6244717,2.93172637 C54.4879247,2.93172637 54.9798932,3.70482001 54.9798932,5.18072199 C54.9798932,6.50602158 54.3674435,6.77710727 53.895556,6.77710727 C52.8513809,6.77710727 52.4698534,5.49196622 52.4698534,4.71887467 C52.4698534,3.84538153 52.7810991,2.93172637 53.6244717,2.93172637 M60.5886119,0.803212722 C61.2010609,0.803212722 61.923953,1.02409741 61.923953,2.20883492 C61.923953,3.4638534 61.2111011,3.74497925 60.2372063,3.74497925 L59.7552787,3.74497925 L59.7552787,1.44578283 C59.7552787,1.15461864 59.8757613,0.803212722 60.5886119,0.803212722 M59.7552787,5.78313153 L59.7552787,4.08634465 C60.5986514,4.08634465 60.7793749,4.23694704 60.9299773,4.4678707 L62.0042743,6.21485837 C62.2853988,6.68674514 62.7271665,7.10843252 63.3295753,7.10843252 C63.4801777,7.10843252 63.6508604,7.0883522 63.751262,7.03815141 C63.7813825,6.97791045 63.7813825,6.87750886 63.7412218,6.79718759 C63.2894154,6.79718759 63.0384107,6.46586234 62.7773666,6.02409535 L61.5123065,3.91566195 C61.9440334,3.77509972 62.8476477,3.25301076 62.8476477,2.19879476 C62.8476477,1.6967875 62.676965,1.28514008 62.3155192,0.943774948 C61.8335923,0.49196828 61.2111011,0.461847315 60.5785717,0.461847315 C60.3275685,0.461847315 59.7050779,0.532128428 59.3235519,0.532128428 C58.8215446,0.532128428 58.5303786,0.522088269 58.0283713,0.51204811 C57.9681304,0.572289064 57.9681304,0.783132474 58.0283713,0.843373358 C58.7311818,0.873493835 58.9018652,0.923695467 58.9018652,1.75702776 L58.9018652,5.78313153 C58.9018652,6.61646403 58.7311818,6.66666552 58.0283713,6.696786 C57.9681304,6.75702695 57.9681304,6.96787029 58.0283713,7.02811125 C58.5203391,7.01807109 58.8215446,7.00803093 59.333592,7.00803093 C59.8355993,7.00803093 60.1267653,7.01807109 60.6287725,7.02811125 C60.6890135,6.96787029 60.6890135,6.75702695 60.6287725,6.696786 C59.9259621,6.66666552 59.7552787,6.61646403 59.7552787,5.78313153 M66.4928006,4.66867388 L66.4928006,6.00401503 C66.4928006,6.13453709 66.4325597,6.20481821 66.3522384,6.26505916 C66.091195,6.4759025 65.7498289,6.696786 65.4687044,6.696786 C64.9666971,6.696786 64.7458129,6.29517964 64.7458129,5.98393471 C64.7458129,5.53212825 64.956657,5.0803204 65.6996281,4.87951722 L66.4928006,4.66867388 M66.4928006,6.5261033 C66.5530416,6.73694664 66.723725,7.10843252 67.2658929,7.10843252 C67.7578607,7.10843252 68.1193064,6.70682616 68.1193064,6.65662536 C68.1193064,6.58634425 68.028945,6.48594266 67.9887843,6.48594266 C67.9285434,6.48594266 67.8883827,6.64658521 67.6775394,6.64658521 C67.2859739,6.64658521 67.275933,6.25501831 67.275933,5.79317169 L67.275933,4.29718799 C67.275933,2.87148681 66.4927999,2.60040112 65.759869,2.60040112 C64.9365767,2.60040112 64.1032428,3.17269088 64.1032428,3.71485877 C64.1032428,3.95582259 64.2237254,4.06626434 64.4546483,4.06626434 C64.7458129,4.06626434 64.8964153,3.86546116 64.8964153,3.73493909 C64.8964153,3.66465797 64.8863752,3.59437686 64.8662949,3.55421623 C64.8562547,3.52409575 64.8462145,3.46385479 64.8462145,3.35341304 C64.8462145,3.04216881 65.2980224,2.93172637 65.6795477,2.93172637 C66.0209131,2.93172637 66.4928006,3.10241046 66.4928006,4.23694704 C66.4928006,4.30722815 66.4626801,4.34738879 66.4325597,4.35742895 L65.569106,4.56827229 C64.6052521,4.8092361 63.9124798,5.34136523 63.9124798,6.02409535 C63.9124798,6.81726721 64.4747294,7.10843252 65.1775398,7.10843252 C65.6393871,7.10843252 65.8301508,7.02811125 66.2719171,6.68674584 L66.4727203,6.5261033 L66.4928006,6.5261033 M68.7939842,5.78313153 C68.7939842,6.61646403 68.6835417,6.65662536 68.1212935,6.696786 C68.0610525,6.75702695 68.0610525,6.96787029 68.1212935,7.02811125 C68.5429802,7.01807109 68.7739045,7.00803093 69.1955905,7.00803093 C69.5469961,7.00803093 69.6775188,7.01807109 70.109245,7.02811125 C70.1694845,6.96787029 70.1694845,6.75702695 70.109245,6.696786 C69.6975992,6.65662536 69.5871567,6.61646403 69.5871567,5.78313153 L69.5871567,4.87951722 C69.8180804,4.88955738 69.9586433,4.95983919 70.1594458,5.24096294 L70.892376,6.27509932 C71.0931792,6.56626393 71.1232997,6.68674584 71.1232997,6.81726791 L71.1232997,6.97791045 C71.1232997,7.00803093 71.1333398,7.02811125 71.1634603,7.02811125 C71.3642635,7.01807109 71.5550265,7.00803093 71.8562313,7.00803093 C72.1674762,7.00803093 72.3783195,7.01807109 72.6795243,7.02811125 C72.7397653,6.96787029 72.7397653,6.75702695 72.6795243,6.696786 C72.3381589,6.65662536 72.0369541,6.61646473 71.8160706,6.27509932 L70.641372,4.53815181 C70.6112515,4.49799117 70.5911712,4.44779038 70.5911712,4.39758958 C70.5911712,4.35742895 70.6012114,4.32730847 70.6313319,4.29718799 L71.3943839,3.45381463 C71.6855486,3.15261056 71.9967935,3.03212796 72.4988014,3.01204764 C72.5590424,2.95180668 72.5590424,2.74096334 72.4988014,2.68072239 C72.1273156,2.69076255 71.9867533,2.70080271 71.6253076,2.70080271 C71.2437816,2.70080271 71.0730989,2.69076255 70.701613,2.68072239 C70.641372,2.74096334 70.641372,2.95180668 70.701613,3.01204764 C71.3040225,3.04216811 70.9827374,3.42369416 70.8823358,3.52409575 C70.3502074,4.10642427 69.8482008,4.54819197 69.5871567,4.62851324 L69.5871567,1.15461829 C69.5871567,0.502008649 69.6273174,0.10040159 69.6273174,0.10040159 C69.6273174,0.0301205468 69.5871567,-3.55271368e-15 69.4967953,-3.55271368e-15 C69.245792,0.100401521 68.4927794,0.240963886 68.091173,0.271084294 C68.0710927,0.351405496 68.091173,0.51204818 68.151414,0.572289064 C68.6735015,0.602409542 68.7939842,0.552209653 68.7939842,1.39558203 L68.7939842,5.78313153 M75.447889,4.66867388 L75.447889,6.00401503 C75.447889,6.13453709 75.387648,6.20481821 75.3073268,6.26505916 C75.0462826,6.4759025 74.7049172,6.696786 74.4237928,6.696786 C73.9217848,6.696786 73.7009013,6.29517964 73.7009013,5.98393471 C73.7009013,5.53212825 73.9117447,5.0803204 74.6547164,4.87951722 L75.447889,4.66867388 M75.447889,6.5261033 C75.5081299,6.73694664 75.6788126,7.10843252 76.2209812,7.10843252 C76.712949,7.10843252 77.0743947,6.70682616 77.0743947,6.65662536 C77.0743947,6.58634425 76.9840333,6.48594266 76.9438727,6.48594266 C76.8836317,6.48594266 76.8434711,6.64658521 76.6326277,6.64658521 C76.2410615,6.64658521 76.2310214,6.25501831 76.2310214,5.79317169 L76.2310214,4.29718799 C76.2310214,2.87148681 75.447889,2.60040112 74.7149574,2.60040112 C73.8916643,2.60040112 73.0583311,3.17269088 73.0583311,3.71485877 C73.0583311,3.95582259 73.178813,4.06626434 73.4097367,4.06626434 C73.7009013,4.06626434 73.8515037,3.86546116 73.8515037,3.73493909 C73.8515037,3.66465797 73.8414635,3.59437686 73.8213832,3.55421623 C73.8113431,3.52409575 73.8013029,3.46385479 73.8013029,3.35341304 C73.8013029,3.04216881 74.2531101,2.93172637 74.6346361,2.93172637 C74.9760015,2.93172637 75.447889,3.10241046 75.447889,4.23694704 C75.447889,4.30722815 75.4177685,4.34738879 75.387648,4.35742895 L74.5241944,4.56827229 C73.5603391,4.8092361 72.8675681,5.34136523 72.8675681,6.02409535 C72.8675681,6.81726721 73.429817,7.10843252 74.1326281,7.10843252 C74.5944755,7.10843252 74.7852385,7.02811125 75.2270055,6.68674584 L75.4278087,6.5261033 L75.447889,6.5261033 M77.3675465,5.62248898 C77.4077071,6.11445608 77.4378276,6.58634495 77.4378276,7.00803093 C77.5382292,6.98795061 77.6386308,6.97791045 77.6888316,6.97791045 C77.7591127,6.97791045 77.8193536,6.97791045 77.8896347,6.99799077 C78.160719,7.06827188 78.4318033,7.10843252 78.8032892,7.10843252 C79.3655381,7.10843252 80.3996745,6.83734753 80.3996745,5.84337248 C80.3996745,5.16064237 79.8976665,4.76907547 79.2249759,4.50803133 C78.6225663,4.27710768 78.22096,4.12650459 78.22096,3.57429654 C78.22096,3.16265072 78.5824057,2.93172637 78.9237711,2.93172637 C79.1446546,2.93172637 79.7269838,3.01204834 79.8575059,3.86546116 C79.9177469,3.92570211 80.11855,3.91566195 80.178791,3.855421 C80.178791,3.49397597 80.2289918,3.12248939 80.239032,2.79116414 C79.927787,2.74096334 79.4458594,2.60040112 78.9237711,2.60040112 C78.1807994,2.60040112 77.5081087,3.08232945 77.5081087,3.72489893 C77.5081087,4.45782984 77.8394339,4.76907616 78.6125262,5.09036056 C79.4358192,5.44176612 79.6366224,5.64257 79.6366224,6.07429614 C79.6366224,6.56626324 79.1546948,6.77710727 78.7832089,6.77710727 C78.3916427,6.77710727 78.1707592,6.64658521 78.0703576,6.53614346 C77.8293938,6.3052198 77.7390324,5.8634528 77.6787914,5.61244883 C77.6185504,5.55220787 77.4277874,5.56224803 77.3675465,5.62248898 M82.6986617,7.10843252 C83.0902279,7.10843252 83.5018745,6.90762934 83.9938423,6.50602298 C84.0340029,6.46586234 84.1143242,6.44578202 84.1143242,6.51606314 C84.1143242,6.75702695 84.2247659,7.10843252 84.2247659,7.10843252 C84.295047,7.138553 84.3352077,7.138553 84.4155289,7.10843252 C84.6364124,6.92770966 85.0179385,6.77710727 85.6303882,6.70682616 C85.6906291,6.64658521 85.6906291,6.49598282 85.6303882,6.43574187 C84.987818,6.38554107 84.8974566,6.19477735 84.8974566,5.70281026 L84.8974566,3.77509972 C84.8974566,3.47389565 84.9376172,2.7510035 84.9376172,2.7510035 C84.9376172,2.71084287 84.9074967,2.68072239 84.8572959,2.68072239 C84.8070951,2.69076255 84.6564928,2.70080271 84.5058904,2.70080271 C84.1846053,2.70080271 83.85328,2.69076255 83.4817941,2.68072239 C83.4215532,2.74096334 83.4215532,2.95180668 83.4817941,3.01204764 C83.9737619,3.04216811 84.104284,3.16265072 84.104284,3.82530052 L84.104284,5.76305121 C84.104284,5.95381423 84.0842037,6.0341355 83.9436415,6.15461741 C83.5721556,6.4759025 83.2508705,6.63654505 82.9998665,6.63654505 C82.6986617,6.63654505 82.1966538,6.49598212 82.1966538,5.60240867 L82.1966538,3.77509972 C82.1966538,3.47389565 82.2368144,2.7510035 82.2368144,2.7510035 C82.2368144,2.71084287 82.206694,2.68072239 82.1564932,2.68072239 C82.1062924,2.69076255 81.95569,2.70080271 81.8050876,2.70080271 C81.4838025,2.70080271 81.1524773,2.69076255 80.7809914,2.68072239 C80.7207504,2.74096334 80.7207504,2.95180668 80.7809914,3.01204764 C81.262919,3.05220827 81.4034812,3.16265072 81.4034812,3.81526036 L81.4034812,5.74297089 C81.4034812,6.43574117 81.704686,7.10843252 82.6986617,7.10843252 M87.4331754,3.413654 C87.4030549,3.45381463 87.3327738,3.55421623 87.3327738,3.413654 C87.3327738,3.11244993 87.3829746,2.65060191 87.3829746,2.65060191 C87.3829746,2.60040112 87.342814,2.57028064 87.2624927,2.57028064 C86.9813683,2.68072239 86.5697218,2.77108382 85.8769508,2.86144525 C85.8568705,2.92168621 85.8769508,3.08232875 85.8970311,3.14256971 C86.4391997,3.1927705 86.5496414,3.24297199 86.5496414,3.82530052 L86.5496414,5.78313153 C86.5496414,6.60642387 86.4492398,6.64658521 85.8468303,6.696786 C85.7865893,6.75702695 85.7865893,6.96787029 85.8468303,7.02811125 C86.2584768,7.01807109 86.519521,7.00803093 86.9512478,7.00803093 C87.342814,7.00803093 87.5235369,7.01807109 87.9452235,7.02811125 C88.0054645,6.96787029 88.0054645,6.75702695 87.9452235,6.696786 C87.4331754,6.64658521 87.342814,6.60642387 87.342814,5.78313153 L87.342814,4.13654545 C87.342814,3.92570211 87.4331754,3.8052202 87.5134967,3.71485877 C87.8950227,3.34337358 88.2865889,3.12248939 88.6781551,3.12248939 C88.8789583,3.12248939 89.0898017,3.25301145 89.2102836,3.48393511 C89.3106852,3.68473829 89.3307655,3.95582328 89.3307655,4.25702736 L89.3307655,5.78313153 C89.3307655,6.60642387 89.2303639,6.64658521 88.7082756,6.696786 C88.6580748,6.75702695 88.6580748,6.96787029 88.7082756,7.02811125 C89.1299623,7.01807109 89.3307655,7.00803093 89.7323718,7.00803093 C90.1440184,7.00803093 90.3649019,7.01807109 90.7966287,7.02811125 C90.8468295,6.96787029 90.8468295,6.75702695 90.7966287,6.696786 C90.2343798,6.64658521 90.123938,6.60642387 90.123938,5.78313153 L90.123938,4.28714783 C90.123938,3.73493978 90.0837774,3.25301145 89.8528538,2.94176652 C89.682171,2.72088303 89.3709261,2.60040112 89.0195206,2.60040112 C88.5275528,2.60040112 88.0456251,2.73092388 87.4331754,3.413654 M93.9524808,4.20682656 C93.9524808,5.14056065 93.4805933,5.33132437 93.1091074,5.33132437 C92.2657341,5.33132437 92.1753726,4.61847238 92.1753726,3.9759029 C92.1753726,3.27309247 92.4263766,2.91164605 92.9785853,2.91164605 C93.6111154,2.91164605 93.9524808,3.37349406 93.9524808,4.20682656 M92.074971,7.10843252 C92.1854128,7.138553 92.3460553,7.15863332 92.4765774,7.15863332 C92.7878223,7.15863332 93.0689468,7.12851284 93.209509,7.12851284 C93.711517,7.12851284 94.1332036,7.138553 94.4243682,7.29919554 C94.8159344,7.52007904 94.9364164,7.66064196 94.9364164,7.9216854 C94.9364164,8.64457615 93.8721595,9.02610289 92.9685452,9.02610289 C92.6070995,9.02610289 91.7637261,8.73493759 91.7637261,8.05220747 C91.7637261,7.71084276 91.7838064,7.45983809 92.074971,7.10843252 M95.2075006,3.12248939 C95.3982637,3.12248939 95.5789865,2.94176652 95.5789865,2.74096334 C95.5789865,2.53012 95.3882235,2.36947746 95.1171392,2.36947746 C94.8560951,2.36947746 94.3741674,2.54016086 94.1131233,2.88152557 C93.9926414,2.8012043 93.6613162,2.60040112 93.0689468,2.60040112 C92.1753726,2.60040112 91.3520796,3.20281136 91.3520796,4.12650529 C91.3520796,4.66867318 91.5930434,4.9799195 91.8741679,5.2510031 C91.5930434,5.49196692 91.4324009,5.92369445 91.4324009,6.26505916 C91.4324009,6.62650489 91.633204,6.90762934 91.8942482,7.03815141 C91.3520796,7.3594365 91.0709551,7.82128451 91.0709551,8.25301065 C91.0709551,9.12650379 91.8942482,9.39758878 92.6673404,9.39758878 C94.0227619,9.39758878 95.4886251,8.74497774 95.4886251,7.66064127 C95.4886251,7.33935688 95.3380227,7.0883522 95.0468581,6.84738839 C94.6552919,6.52610399 93.9524808,6.51606314 93.5809949,6.51606314 C93.400272,6.51606314 93.149268,6.53614346 92.9083042,6.56626393 C92.7577018,6.57630409 92.6573003,6.58634425 92.6070995,6.58634425 C92.3159348,6.58634425 91.9645293,6.44578202 91.9645293,6.01405519 C91.9645293,5.81325201 92.0247702,5.60240867 92.1452521,5.43172596 C92.386216,5.57228819 92.6673404,5.6425693 93.0589066,5.6425693 C93.9424406,5.6425693 94.7556935,5.09035986 94.7556935,4.10642497 C94.7556935,3.63453819 94.6151313,3.3634532 94.3239667,3.06224843 C94.3942478,2.96184684 94.5950509,2.82128462 94.725573,2.82128462 C94.7958541,2.82128462 94.8661352,2.85140509 94.9263762,2.94176652 C94.9665368,3.0220878 95.0970589,3.12248939 95.2075006,3.12248939 M97.7392941,7.10843252 C98.1308603,7.10843252 98.5425068,6.90762934 99.0344746,6.50602298 C99.0746352,6.46586234 99.1549565,6.44578202 99.1549565,6.51606314 C99.1549565,6.75702695 99.2653983,7.10843252 99.2653983,7.10843252 C99.3356794,7.138553 99.37584,7.138553 99.4561613,7.10843252 C99.6770448,6.92770966 100.058571,6.77710727 100.671021,6.70682616 C100.731261,6.64658521 100.731261,6.49598282 100.671021,6.43574187 C100.02845,6.38554107 99.9380889,6.19477735 99.9380889,5.70281026 L99.9380889,3.77509972 C99.9380889,3.47389565 99.9782495,2.7510035 99.9782495,2.7510035 C99.9782495,2.71084287 99.9481291,2.68072239 99.8979283,2.68072239 C99.8477275,2.69076255 99.6971251,2.70080271 99.5465227,2.70080271 C99.2252376,2.70080271 98.8939124,2.69076255 98.5224265,2.68072239 C98.4621855,2.74096334 98.4621855,2.95180668 98.5224265,3.01204764 C99.0143943,3.04216811 99.1449163,3.16265072 99.1449163,3.82530052 L99.1449163,5.76305121 C99.1449163,5.95381423 99.124836,6.0341355 98.9842738,6.15461741 C98.6127879,6.4759025 98.2915028,6.63654505 98.0404989,6.63654505 C97.7392941,6.63654505 97.2372861,6.49598212 97.2372861,5.60240867 L97.2372861,3.77509972 C97.2372861,3.47389565 97.2774468,2.7510035 97.2774468,2.7510035 C97.2774468,2.71084287 97.2473263,2.68072239 97.1971255,2.68072239 C97.1469247,2.69076255 96.9963223,2.70080271 96.8457199,2.70080271 C96.5244348,2.70080271 96.1931096,2.69076255 95.8216237,2.68072239 C95.7613828,2.74096334 95.7613828,2.95180668 95.8216237,3.01204764 C96.3035513,3.05220827 96.4441136,3.16265072 96.4441136,3.81526036 L96.4441136,5.74297089 C96.4441136,6.43574117 96.7453183,7.10843252 97.7392941,7.10843252 M102.473801,3.413654 C102.44368,3.45381463 102.373399,3.55421623 102.373399,3.413654 C102.373399,3.11244993 102.4236,2.65060191 102.4236,2.65060191 C102.4236,2.60040112 102.383439,2.57028064 102.303118,2.57028064 C102.021994,2.68072239 101.610347,2.77108382 100.917576,2.86144525 C100.897496,2.92168621 100.917576,3.08232875 100.937656,3.14256971 C101.479825,3.1927705 101.590267,3.24297199 101.590267,3.82530052 L101.590267,5.78313153 C101.590267,6.60642387 101.489865,6.64658521 100.887456,6.696786 C100.827215,6.75702695 100.827215,6.96787029 100.887456,7.02811125 C101.299102,7.01807109 101.560146,7.00803093 101.991873,7.00803093 C102.383439,7.00803093 102.564162,7.01807109 102.985849,7.02811125 C103.04609,6.96787029 103.04609,6.75702695 102.985849,6.696786 C102.473801,6.64658521 102.383439,6.60642387 102.383439,5.78313153 L102.383439,4.13654545 C102.383439,3.92570211 102.473801,3.8052202 102.554122,3.71485877 C102.935648,3.34337358 103.327214,3.12248939 103.718781,3.12248939 C103.919584,3.12248939 104.130427,3.25301145 104.250909,3.48393511 C104.351311,3.68473829 104.371391,3.95582328 104.371391,4.25702736 L104.371391,5.78313153 C104.371391,6.60642387 104.270989,6.64658521 103.748901,6.696786 C103.6987,6.75702695 103.6987,6.96787029 103.748901,7.02811125 C104.170588,7.01807109 104.371391,7.00803093 104.772997,7.00803093 C105.184644,7.00803093 105.405527,7.01807109 105.837254,7.02811125 C105.887455,6.96787029 105.887455,6.75702695 105.837254,6.696786 C105.275005,6.64658521 105.164563,6.60642387 105.164563,5.78313153 L105.164563,4.28714783 C105.164563,3.73493978 105.124403,3.25301145 104.893479,2.94176652 C104.722796,2.72088303 104.411551,2.60040112 104.060146,2.60040112 C103.568178,2.60040112 103.08625,2.73092388 102.473801,3.413654 M107.96901,7.10843252 C108.360576,7.10843252 108.772223,6.90762934 109.26419,6.50602298 C109.304351,6.46586234 109.384672,6.44578202 109.384672,6.51606314 C109.384672,6.75702695 109.495114,7.10843252 109.495114,7.10843252 C109.565395,7.138553 109.605556,7.138553 109.685877,7.10843252 C109.906761,6.92770966 110.288287,6.77710727 110.900736,6.70682616 C110.960977,6.64658521 110.960977,6.49598282 110.900736,6.43574187 C110.258166,6.38554107 110.167805,6.19477735 110.167805,5.70281026 L110.167805,3.77509972 C110.167805,3.47389565 110.207965,2.7510035 110.207965,2.7510035 C110.207965,2.71084287 110.177845,2.68072239 110.127644,2.68072239 C110.077443,2.69076255 109.926841,2.70080271 109.776239,2.70080271 C109.454953,2.70080271 109.123628,2.69076255 108.752142,2.68072239 C108.691901,2.74096334 108.691901,2.95180668 108.752142,3.01204764 C109.24411,3.04216811 109.374632,3.16265072 109.374632,3.82530052 L109.374632,5.76305121 C109.374632,5.95381423 109.354552,6.0341355 109.21399,6.15461741 C108.842504,6.4759025 108.521219,6.63654505 108.270215,6.63654505 C107.96901,6.63654505 107.467002,6.49598212 107.467002,5.60240867 L107.467002,3.77509972 C107.467002,3.47389565 107.507163,2.7510035 107.507163,2.7510035 C107.507163,2.71084287 107.477042,2.68072239 107.426841,2.68072239 C107.376641,2.69076255 107.226038,2.70080271 107.075436,2.70080271 C106.754151,2.70080271 106.422825,2.69076255 106.05134,2.68072239 C105.991099,2.74096334 105.991099,2.95180668 106.05134,3.01204764 C106.533267,3.05220827 106.673829,3.16265072 106.673829,3.81526036 L106.673829,5.74297089 C106.673829,6.43574117 106.975034,7.10843252 107.96901,7.10843252 M111.719588,5.78313153 C111.719588,6.61646403 111.609146,6.65662536 111.046897,6.696786 C110.986656,6.75702695 110.986656,6.96787029 111.046897,7.02811125 C111.468584,7.01807109 111.699508,7.00803093 112.121194,7.00803093 C112.4726,7.00803093 112.603122,7.01807109 113.034849,7.02811125 C113.09509,6.96787029 113.09509,6.75702695 113.034849,6.696786 C112.623202,6.65662536 112.512761,6.61646403 112.512761,5.78313153 L112.512761,4.87951722 C112.743684,4.88955738 112.884246,4.95983919 113.08505,5.24096294 L113.817981,6.27509932 C114.018784,6.56626393 114.048905,6.68674584 114.048905,6.81726791 L114.048905,6.97791045 C114.048905,7.00803093 114.058945,7.02811125 114.089066,7.02811125 C114.289869,7.01807109 114.480632,7.00803093 114.781837,7.00803093 C115.093081,7.00803093 115.303925,7.01807109 115.60513,7.02811125 C115.665371,6.96787029 115.665371,6.75702695 115.60513,6.696786 C115.263764,6.65662536 114.962559,6.61646473 114.741676,6.27509932 L113.566977,4.53815181 C113.536857,4.49799117 113.516776,4.44779038 113.516776,4.39758958 C113.516776,4.35742895 113.526817,4.32730847 113.556937,4.29718799 L114.319989,3.45381463 C114.611154,3.15261056 114.922399,3.03212796 115.424407,3.01204764 C115.484648,2.95180668 115.484648,2.74096334 115.424407,2.68072239 C115.052921,2.69076255 114.912359,2.70080271 114.550913,2.70080271 C114.169387,2.70080271 113.998704,2.69076255 113.627218,2.68072239 C113.566977,2.74096334 113.566977,2.95180668 113.627218,3.01204764 C114.229628,3.04216811 113.908343,3.42369416 113.807941,3.52409575 C113.275813,4.10642427 112.773805,4.54819197 112.512761,4.62851324 L112.512761,1.15461829 C112.512761,0.502008649 112.552921,0.10040159 112.552921,0.10040159 C112.552921,0.0301205468 112.512761,-3.55271368e-15 112.422399,-3.55271368e-15 C112.171395,0.100401521 111.418383,0.240963886 111.016777,0.271084294 C110.996697,0.351405496 111.016777,0.51204818 111.077018,0.572289064 C111.599106,0.602409542 111.719588,0.552209653 111.719588,1.39558203 L111.719588,5.78313153 M118.373494,4.66867388 L118.373494,6.00401503 C118.373494,6.13453709 118.313253,6.20481821 118.232932,6.26505916 C117.971888,6.4759025 117.630522,6.696786 117.349398,6.696786 C116.84739,6.696786 116.626507,6.29517964 116.626507,5.98393471 C116.626507,5.53212825 116.83735,5.0803204 117.580322,4.87951722 L118.373494,4.66867388 M118.373494,6.5261033 C118.433735,6.73694664 118.604418,7.10843252 119.146586,7.10843252 C119.638554,7.10843252 120,6.70682616 120,6.65662536 C120,6.58634425 119.909639,6.48594266 119.869478,6.48594266 C119.809237,6.48594266 119.769076,6.64658521 119.558233,6.64658521 C119.166667,6.64658521 119.156627,6.25501831 119.156627,5.79317169 L119.156627,4.29718799 C119.156627,2.87148681 118.373494,2.60040112 117.640563,2.60040112 C116.81727,2.60040112 115.983936,3.17269088 115.983936,3.71485877 C115.983936,3.95582259 116.104418,4.06626434 116.335342,4.06626434 C116.626507,4.06626434 116.777109,3.86546116 116.777109,3.73493909 C116.777109,3.66465797 116.767069,3.59437686 116.746988,3.55421623 C116.736948,3.52409575 116.726908,3.46385479 116.726908,3.35341304 C116.726908,3.04216881 117.178715,2.93172637 117.560241,2.93172637 C117.901607,2.93172637 118.373494,3.10241046 118.373494,4.23694704 C118.373494,4.30722815 118.343374,4.34738879 118.313253,4.35742895 L117.4498,4.56827229 C116.485944,4.8092361 115.793173,5.34136523 115.793173,6.02409535 C115.793173,6.81726721 116.355422,7.10843252 117.058233,7.10843252 C117.520081,7.10843252 117.710844,7.02811125 118.152611,6.68674584 L118.353414,6.5261033 L118.373494,6.5261033" id="sn-tagline" fill="#000000" fill-rule="nonzero"></path>
    </g>
</svg>