<svg xmlns="http://www.w3.org/2000/svg" width="120" height="21"><path fill="#000" fill-rule="nonzero" d="M.07 0c.268.005 1.72.026 2.699.026h.161C4.142.024 5.877.004 6.157 0h.04l.052.026v.501c0 .132-.053.211-.185.211L5.063.791c-.844.053-.897.396-.58 1.081l4.14 9.123h.052l3.401-9.123c.343-.923.185-1.002-.87-1.081l-.765-.053c-.105 0-.158-.079-.158-.184V.026L10.31 0h.041c.27.005 1.8.026 2.806.026h.153C14.146.023 15.267 0 15.267 0l.052.026v.501c0 .159-.184.211-.29.211-1.213.08-1.476.317-1.872 1.371l-4.14 10.68c-1.133 2.873-2.583 4.824-4.956 4.824-1.108 0-2.32-.606-2.32-1.45 0-.738.395-1.213 1.238-1.213.37 0 .95.185 1.213.501.185.238.58.528.95.528.843 0 1.503-.554 2.32-2.532L2.32 2.294C2.083 1.767 1.53.817.264.738.105.738 0 .66 0 .554V.026L.026 0ZM27.438 5.67l.027.053v.553c0 .106-.053.159-.159.159l-.79.052c-.976.053-1.055.264-1.055 1.371v7.093c0 .976.132 1.266 1.054 1.319l.791.052c.106 0 .159.053.159.159v.553l-.027.053s-1.845-.053-3.032-.053h-.155c-1.158.005-2.798.053-2.798.053v-.633c0-.079.053-.132.132-.132l.817-.052c1.002-.053 1.081-.396 1.081-1.319V8.728l-5.431 6.539v.052c0 .633.079.923.975 1.002.106 0 .158.053.158.159v.553l-.026.053s-1.292-.053-2.136-.053h-.151c-1.135.005-2.776.053-2.776.053l-.026-.053v-.58c0-.079.053-.132.132-.132l.817-.052c1.002-.053 1.055-.343 1.055-1.266v-7.12c0-1.107-.053-1.318-1.055-1.397l-.79-.052c-.106 0-.159-.027-.159-.132v-.58l.08-.053s1.74.053 2.873.053h.155c1.162-.005 2.851-.053 2.851-.053l.053.053v.553c0 .106-.053.159-.158.159l-.791.052c-1.002.08-1.081.29-1.081 1.371v6.276l5.431-6.54c0-.632-.026-1.08-.923-1.16-.079 0-.131-.026-.131-.131v-.58l.052-.053s1.187.053 1.925.053h.158c1.186-.005 2.874-.053 2.874-.053Zm4.84 9.545v-3.692c1.977.132 2.557 1.082 3.058 2.532.396 1.16 1.213 2.98 2.532 3.006l1.898.026.08-.053v-.474c0-.185-.185-.238-.29-.238l-.212-.026c-.949-.132-2.03-2.426-2.452-3.428-.527-1.292-1.556-1.82-2.98-1.82 1.134-.184 1.74-1.265 2.136-2.399.29-.817.686-1.397.95-1.397.237 0 .421.08.527.185.158.158.527.263.79.263.475 0 1.003-.5 1.003-1.028 0-.633-.29-1.187-1.371-1.187-1.266 0-2.11 1.424-2.584 2.663-.554 1.45-1.319 2.453-3.085 2.453V7.594c0-.95.553-1.081 1.318-1.16.106 0 .211-.132.211-.264v-.448l-.053-.053s-1.476.053-2.505.053c-.922 0-2.715-.053-2.715-.053l-.053.053v.5c0 .133.079.185.21.212l.502.052c.844.08 1.107.422 1.107 1.16v7.515c0 .738-.184 1.002-1.107 1.108l-.501.052c-.132.027-.211.08-.211.211v.501l.053.053s1.793-.053 2.715-.053c1.029 0 2.558.053 2.558.053l.053-.053v-.5c0-.133-.106-.185-.211-.212-.58-.079-1.371-.237-1.371-1.107m10.94-9.492c-1.133 0-2.874-.053-2.874-.053l-.079.053v.58c0 .105.053.132.158.132l.791.052c1.002.08 1.055.29 1.055 1.398v7.119c0 .923-.053 1.213-1.055 1.266l-.817.052c-.079 0-.132.053-.132.132v.58l.027.053s1.793-.053 2.926-.053c.844 0 2.136.053 2.136.053l.027-.053v-.553c0-.106-.053-.159-.159-.159-.896-.079-.975-.369-.975-1.002v-.052l5.431-6.54v6.223c0 .923-.079 1.266-1.08 1.319l-.818.052c-.08 0-.132.053-.132.132v.633s1.793-.053 2.953-.053c1.187 0 3.032.053 3.032.053l.027-.053v-.553c0-.106-.053-.159-.158-.159l-.791-.052c-.923-.053-1.055-.343-1.055-1.319V7.857c0-1.107.079-1.318 1.055-1.37l.79-.053c.106 0 .159-.053.159-.159v-.553l-.027-.053s-1.845.053-3.032.053c-.738 0-1.925-.053-1.925-.053l-.052.053v.58c0 .105.052.132.132.132.896.079.922.527.922 1.16l-5.431 6.539V7.857c0-1.08.079-1.292 1.08-1.37l.792-.053c.105 0 .158-.053.158-.159v-.553l-.053-.053s-1.845.053-3.006.053m13.41 2.056v7.251c0 .923-.133 1.187-1.082 1.24l-.79.052c-.106 0-.159.053-.159.132v.58l.053.053s1.793-.053 2.953-.053c1.134 0 2.874.053 2.874.053l.026-.053v-.553c0-.106-.052-.159-.132-.159l-.712-.052c-.896-.053-1.054-.238-1.054-1.24V7.78c0-.924.527-1.029 1.08-1.029h3.191c.528 0 1.081.053 1.081 1.028v7.251c0 .923-.131 1.16-1.08 1.24l-.713.052c-.079 0-.131.053-.131.132v.58l.026.053s1.767-.053 2.9-.053c1.16 0 2.953.053 2.953.053l.027-.053v-.553c0-.106-.053-.159-.158-.159l-.791-.052c-.923-.053-1.081-.238-1.081-1.24V7.752c0-1.081.079-1.187 1.08-1.266l.792-.052c.105 0 .158-.053.158-.159v-.553l-.027-.053s-1.845.053-3.032.053h-7.304c-1.133 0-2.9-.053-2.9-.053l-.053.053v.58c0 .105.053.132.132.132l.791.052c.95.053 1.081.185 1.081 1.292M71.02 9.466c.475-2.98 2.426-3.111 3.032-3.111.95 0 2.189.527 2.189 2.742 0 .237-.106.369-.37.369h-4.85m6.96 5.062c-.923 1.002-1.846 1.477-3.296 1.477-1.476 0-3.744-1.582-3.744-5.51h6.935c.29 0 .474-.159.474-.45 0-2.214-.817-4.587-4.298-4.587-2.505 0-5.22 2.32-5.22 6.328 0 3.032 1.608 5.51 5.22 5.51 1.899 0 3.454-.975 4.456-2.346-.079-.263-.237-.395-.527-.422m4.433 1.16c0-.448.659-2.267 1.028-8.279 0-.105.132-.685.738-.685h2.136c.975 0 1.055.395 1.055 1.292v6.697c0 .87-.08 1.292-1.055 1.292h-3.402c-.263 0-.5-.026-.5-.316m.448 1.344h4.535c2.188 0 2.953 2.32 3.164 3.375h.66l-.159-3.533c0-.37-.185-.475-.66-.554-.447-.079-1.054-.316-1.054-1.292V7.726c0-.897.264-1.134 1.213-1.24l.448-.052c.08 0 .185-.08.185-.185v-.527l-.027-.053s-1.924.053-2.794.053H82.86c-.448 0-2.505-.053-2.505-.053l-.08.053v.58c0 .105.08.132.185.132l.712.052c.923.08 1.081.607 1.081.923 0 3.138-.474 5.537-.975 7.779-.158.711-.633 1.054-1.319 1.133-.369.053-.712.106-.738.58l-.158 3.507.685.027c.211-.976.897-3.402 3.112-3.402M95.042 5.722c-1.133 0-2.874-.053-2.874-.053l-.079.053v.58c0 .105.053.132.158.132l.791.052c1.002.08 1.055.29 1.055 1.398v7.119c0 .923-.053 1.213-1.055 1.266l-.817.052c-.08 0-.132.053-.132.132v.58l.027.053s1.793-.053 2.926-.053c.844 0 2.136.053 2.136.053l.026-.053v-.553c0-.106-.052-.159-.158-.159-.896-.079-.975-.369-.975-1.002v-.052l5.431-6.54v6.223c0 .923-.079 1.266-1.08 1.319l-.818.052c-.08 0-.132.053-.132.132v.633s1.793-.053 2.953-.053c1.187 0 3.032.053 3.032.053l.027-.053v-.553c0-.106-.053-.159-.158-.159l-.791-.052c-.923-.053-1.055-.343-1.055-1.319V7.857c0-1.107.079-1.318 1.055-1.37l.79-.053c.106 0 .159-.053.159-.159v-.553l-.027-.053s-1.845.053-3.032.053c-.738 0-1.925-.053-1.925-.053l-.052.053v.58c0 .105.052.132.131.132.897.079.923.527.923 1.16l-5.431 6.539V7.857c0-1.08.079-1.292 1.08-1.37l.792-.053c.105 0 .158-.053.158-.159v-.553l-.053-.053s-1.846.053-3.006.053m20.45 2.795v6.591c0 .739-.344 1.081-1.451 1.16l-.686.053c-.131 0-.21.08-.21.211v.501l.052.053s2.452-.053 3.402-.053c1.028 0 3.322.053 3.322.053l.053-.053v-.5a.208.208 0 0 0-.211-.212l-.712-.052c-1.081-.08-1.424-.37-1.424-1.16V1.95c0-.896.29-1.08 1.397-1.16l.791-.053c.132 0 .185-.079.185-.184V0s-2.558.026-3.375.026c-.87 0-2.426-.026-3.349-.026-4.904 0-5.8 2.373-5.8 4.192 0 2.69 2.135 3.903 3.928 4.166-.685.475-1.054 1.372-1.476 2.453-1.398 3.506-2.742 5.378-3.586 5.484l-.238.026c-.105 0-.184.08-.184.211v.501l.026.053 1.74-.026c1.873-.027 2.637-1.872 3.666-4.773.949-2.69 1.344-3.77 4.14-3.77m0-6.645v5.616h-2.057c-2.189 0-3.824-.896-3.824-3.691 0-2.452 2.004-2.874 3.48-2.874 2.295 0 2.4.079 2.4.95"/></svg>