<svg xmlns="http://www.w3.org/2000/svg" width="122" height="18" fill="none"><path fill="#000" d="M3.939 1.788v4.698h1.72c2.219 0 3.328-.887 3.328-2.66 0-.559-.094-1.045-.283-1.46-.189-.415-.44-.732-.753-.951a3.341 3.341 0 0 0-.967-.476 3.616 3.616 0 0 0-1.03-.147c-.34 0-.623.006-.85.017a2.68 2.68 0 0 0-.91.193.33.33 0 0 0-.176.192.955.955 0 0 0-.068.25 3.692 3.692 0 0 0-.011.344Zm0 5.49v5.886c0 .4.126.677.379.831.253.155.768.232 1.545.232.853 0 1.566-.077 2.14-.232.573-.154 1.007-.38 1.3-.679.295-.298.499-.618.612-.962.113-.343.17-.745.17-1.205 0-1.102-.357-2.022-1.07-2.762-.713-.74-1.718-1.11-3.016-1.11h-2.06ZM0 14.533c0-.12.053-.181.158-.181l.702-.045c.506-.038.832-.112.98-.221.146-.11.22-.36.22-.753V1.663c0-.384-.074-.633-.22-.746C1.691.804 1.365.728.86.69L.158.645C.053.645 0 .592 0 .487V.023L.045 0c1.192.015 2.173.023 2.943.023.385 0 .887-.004 1.505-.012C5.113.003 5.546 0 5.795 0c3.32 0 4.98 1.18 4.98 3.543 0 .618-.205 1.213-.617 1.782a4.12 4.12 0 0 1-1.533 1.308c1.079.31 1.935.801 2.57 1.477.633.675.95 1.541.95 2.597 0 .423-.053.829-.159 1.217a3.589 3.589 0 0 1-.577 1.16c-.28.385-.632.717-1.058.996-.427.28-.985.506-1.675.68-.69.173-1.481.26-2.372.26-.747 0-1.394-.008-1.94-.023a51.27 51.27 0 0 0-1.376-.022l-2.943.045L0 14.975v-.442ZM17.25 5.705v7.719c0 .264.071.468.215.611.143.143.396.234.758.272l.487.045c.09 0 .135.045.135.136v.487l-.022.045c-1.177-.03-2.004-.045-2.479-.045l-2.456.045-.045-.045v-.487c0-.09.052-.136.158-.136l.464-.045c.664-.068.996-.363.996-.883v-7.72c0-.248-.075-.426-.226-.531-.151-.106-.408-.178-.77-.215l-.464-.046c-.106 0-.158-.03-.158-.09v-.51l.022-.045c1.215.03 2.064.045 2.547.045l2.41-.045.023.045V4.8c0 .076-.045.113-.135.113l-.487.046c-.355.03-.606.103-.753.22-.147.117-.22.293-.22.527ZM23.724 13.379c0 .21.037.386.113.526a.63.63 0 0 0 .317.294c.136.057.258.092.368.108.11.015.235.022.379.022.12 0 .18.06.18.181v.442l-.044.045a66.021 66.021 0 0 0-2.219-.045l-2.41.045-.046-.045v-.442c0-.12.06-.18.181-.18h.442c.384 0 .647-.074.786-.221.14-.148.21-.39.21-.73V5.93c0-.347-.072-.604-.215-.77-.144-.166-.404-.249-.781-.249h-.442c-.12 0-.18-.06-.18-.18v-.42l.044-.045c1.05.03 1.853.045 2.411.045l2.173-.045.046.045v.42c0 .12-.06.18-.181.18-.182 0-.329.01-.442.029-.113.018-.23.06-.35.124a.552.552 0 0 0-.261.311 1.63 1.63 0 0 0-.08.555v2.784c.348 0 .669-.05.963-.153.294-.101.537-.222.73-.362a2.64 2.64 0 0 0 .554-.566c.178-.237.314-.449.408-.634a19.4 19.4 0 0 0 .334-.696l.3-.65c.071-.155.18-.355.328-.6.147-.246.287-.434.419-.566.132-.132.296-.25.492-.351.196-.102.4-.153.611-.153.423 0 .745.098.968.294a.952.952 0 0 1 .334.747c0 .234-.087.44-.26.617a.84.84 0 0 1-.623.266c-.211 0-.434-.068-.668-.203-.128-.06-.305-.091-.532-.091-.203 0-.468.385-.792 1.154-.12.28-.234.521-.34.725a6.52 6.52 0 0 1-.424.69 2.445 2.445 0 0 1-.617.628c-.234.163-.49.27-.77.323.581 0 1.098.21 1.551.628.453.419.815.941 1.087 1.568a12.518 12.518 0 0 0 .866 1.81c.2.355.41.642.633.861.223.219.432.328.629.328h.192c.166 0 .249.06.249.181v.442l-.045.045-1.687-.023c-.188 0-.368-.04-.537-.118a1.472 1.472 0 0 1-.476-.368 8.28 8.28 0 0 1-.385-.464 3.591 3.591 0 0 1-.345-.583 14.683 14.683 0 0 1-.486-1.081c-.317-.815-.574-1.37-.77-1.664-.445-.671-1.075-1.06-1.89-1.166v3.849ZM34.997 5.705v7.719c0 .264.071.468.215.611.143.143.396.234.758.272l.487.045c.09 0 .136.045.136.136v.487l-.023.045c-1.177-.03-2.003-.045-2.479-.045l-2.456.045-.045-.045v-.487c0-.09.053-.136.158-.136l.464-.045c.664-.068.996-.363.996-.883v-7.72c0-.248-.075-.426-.226-.531-.15-.106-.407-.178-.77-.215l-.464-.046c-.105 0-.158-.03-.158-.09v-.51l.023-.045c1.214.03 2.063.045 2.546.045l2.411-.045.023.045V4.8c0 .076-.046.113-.136.113l-.487.046c-.355.03-.605.103-.753.22-.147.117-.22.293-.22.527ZM40.566 13.797c0 .181.147.272.441.272h3.498c.4 0 .654-.083.764-.249.109-.166.164-.46.164-.883V6.304c0-.43-.053-.722-.159-.877-.105-.154-.362-.232-.77-.232H42.14a.61.61 0 0 0-.413.142.706.706 0 0 0-.21.26.58.58 0 0 0-.045.198 78.563 78.563 0 0 1-.373 4.233 58.634 58.634 0 0 1-.38 2.796c-.101.588-.152.913-.152.973Zm.396 1.178c-.445 0-.843.077-1.194.232-.351.154-.623.337-.815.548a2.926 2.926 0 0 0-.493.764 3.866 3.866 0 0 0-.271.765 5.97 5.97 0 0 0-.102.656h-.589l.148-3.124c0-.143.04-.257.118-.34a.36.36 0 0 1 .266-.124h.374c.611 0 1.007-.332 1.188-.996.551-2.46.827-4.98.827-7.56 0-.091-.012-.18-.034-.267a1.116 1.116 0 0 0-.125-.283.62.62 0 0 0-.294-.243 1.225 1.225 0 0 0-.498-.09h-.623c-.09 0-.136-.038-.136-.114v-.532c.302 0 .73.011 1.285.034.555.023.877.034.968.034.113 0 .453-.008 1.018-.023a53.012 53.012 0 0 1 1.336-.022c.34 0 .849.008 1.528.022.68.016 1.17.023 1.471.023.265 0 .691-.011 1.28-.034.588-.023.988-.034 1.2-.034v.487c0 .037-.022.073-.063.107a.203.203 0 0 1-.13.051h-.362c-.415 0-.698.083-.85.25-.15.165-.226.452-.226.86v7.187c0 .437.053.735.159.894.105.158.332.241.679.249h.396c.098 0 .204.043.317.13.113.087.17.198.17.334l.136 3.124h-.578a7.475 7.475 0 0 0-.186-.832 4.082 4.082 0 0 0-.334-.787 2.481 2.481 0 0 0-.544-.696c-.21-.185-.492-.34-.843-.464a3.557 3.557 0 0 0-1.194-.187h-4.38ZM58.766 9.553v3.758c0 .347.077.603.232.77.155.165.41.248.764.248h.215c.12 0 .181.06.181.181v.442l-.045.045a69.028 69.028 0 0 0-2.252-.045l-2.128.045-.046-.045v-.442c0-.12.06-.18.181-.18h.181c.37 0 .629-.084.776-.25.147-.166.22-.422.22-.77V9.554a2.881 2.881 0 0 0-1.601.6c-.17.143-.336.341-.498.594-.162.253-.283.47-.362.65a43.923 43.923 0 0 0-.402.963c-.113.272-.206.487-.277.645-.072.159-.185.38-.34.662a3.71 3.71 0 0 1-.447.668 2.33 2.33 0 0 1-.526.436 1.29 1.29 0 0 1-.64.204l-1.698.022-.045-.045v-.442c0-.12.087-.18.26-.18h.181c.597 0 1.317-1 2.162-3a4.23 4.23 0 0 1 1.059-1.54 2.246 2.246 0 0 1 1.556-.61 1.78 1.78 0 0 1-.77-.323 2.584 2.584 0 0 1-.616-.645 6.994 6.994 0 0 1-.43-.708 8.783 8.783 0 0 1-.334-.736c-.348-.77-.612-1.154-.793-1.154-.241 0-.411.03-.51.09-.27.136-.501.204-.69.204a.805.805 0 0 1-.61-.266.875.875 0 0 1-.25-.617c0-.309.108-.56.323-.752.215-.193.53-.289.945-.289.211 0 .417.053.617.159.2.105.364.22.492.345.128.124.27.315.424.571.155.257.267.453.334.589.068.136.174.355.317.656.136.295.248.529.334.702.087.174.22.387.402.64a2.7 2.7 0 0 0 .549.588c.185.14.426.262.724.368.298.106.625.159.98.159h.18V5.886c0-.34-.073-.587-.22-.742-.147-.154-.406-.232-.776-.232h-.18c-.121 0-.182-.06-.182-.18v-.42l.046-.045c.875.03 1.584.045 2.128.045l2.252-.045.045.045v.42c0 .12-.06.18-.181.18h-.215c-.362 0-.619.08-.77.238-.15.158-.226.404-.226.736V8.76h.181c.355 0 .681-.053.98-.159.297-.106.542-.228.735-.368a2.6 2.6 0 0 0 .56-.583c.181-.249.319-.464.413-.645.095-.18.206-.415.334-.702l.3-.65c.072-.155.181-.355.328-.6.147-.245.287-.434.42-.566.131-.132.295-.25.491-.351.197-.102.4-.153.612-.153.43 0 .754.096.973.289a.955.955 0 0 1 .328.752c0 .234-.083.44-.249.617a.805.805 0 0 1-.611.266c-.219 0-.449-.068-.69-.203-.129-.06-.31-.091-.544-.091-.211 0-.464.385-.758 1.154l-.272.578a6.71 6.71 0 0 1-.322.577 3.723 3.723 0 0 1-.425.583 2.583 2.583 0 0 1-.515.419 1.736 1.736 0 0 1-.65.254c.588 0 1.109.202 1.562.606.452.404.814.918 1.086 1.545.12.294.245.58.373.86.129.28.291.596.487.95.196.355.406.642.628.861.223.219.436.328.64.328h.192c.166 0 .25.06.25.181v.442l-.046.045-1.686-.022a1.292 1.292 0 0 1-.64-.204 2.253 2.253 0 0 1-.526-.442 3.934 3.934 0 0 1-.442-.656 8.11 8.11 0 0 1-.34-.668 16.056 16.056 0 0 1-.26-.645c-.324-.8-.58-1.336-.77-1.607-.49-.732-1.199-1.132-2.127-1.2ZM75.178 4.312c.015.778.12 1.706.317 2.785l-.578.068a4.464 4.464 0 0 0-.231-.69 4.004 4.004 0 0 0-.368-.64c-.159-.23-.37-.41-.634-.538a2.075 2.075 0 0 0-.917-.192h-1.856c-.234 0-.404.034-.51.102-.105.067-.158.196-.158.384v3.43h1.732c.302 0 .515-.06.64-.181.124-.12.212-.31.265-.566l.136-.487c0-.075.049-.113.147-.113h.385c.038 0 .057.023.057.068-.099.883-.148 1.456-.148 1.72 0 .144.05.676.148 1.596l-.057.046h-.385c-.113 0-.17-.038-.17-.114l-.113-.509c-.045-.249-.136-.432-.271-.549-.136-.117-.348-.175-.634-.175h-1.732v3.87c0 .212.055.357.164.436.11.08.277.12.504.12h1.992c.649 0 1.14-.18 1.471-.538.332-.359.608-.881.827-1.568l.577.068c-.28 1.109-.442 2.052-.487 2.83h-6.123l-2.287.045-.022-.046v-.509c0-.075.045-.113.136-.113l.531-.045c.355-.038.599-.11.73-.215.133-.106.199-.276.199-.51v-7.9c0-.257-.07-.436-.21-.538-.14-.102-.379-.164-.719-.187l-.531-.045c-.091-.015-.136-.045-.136-.09v-.51l.022-.045 2.31.045h5.987ZM80.713 5.105v4.674c.347.144.852.215 1.516.215 1.404 0 2.106-.875 2.106-2.626 0-.928-.193-1.57-.578-1.924-.385-.354-.935-.532-1.652-.532-.483 0-.947.064-1.392.193Zm-1.755 8.432V5.75c0-.34-.088-.555-.266-.645-.177-.09-.56-.155-1.149-.193-.105 0-.158-.037-.158-.113v-.51l.045-.022c.083 0 .438.008 1.064.023.627.015 1.068.022 1.325.022.196 0 .575-.008 1.137-.022.562-.015.994-.023 1.296-.023.626 0 1.179.06 1.658.181.48.121.856.274 1.132.459.275.185.5.409.673.673.174.264.289.515.346.753.056.237.084.492.084.764 0 .31-.03.611-.09.905-.06.295-.181.608-.362.94a3.07 3.07 0 0 1-.69.86c-.28.241-.663.441-1.15.6-.486.158-1.043.238-1.669.238-.634 0-1.124-.076-1.471-.227v3.124c0 .241.071.41.215.504.143.094.415.175.815.243l.464.068c.105.023.158.068.158.136v.487l-.022.045c-1.238-.03-2.094-.045-2.57-.045l-2.388.045-.023-.045v-.487c0-.068.046-.113.136-.136l.487-.068c.355-.053.605-.136.752-.249.148-.113.221-.28.221-.498ZM95.732 4.312c.015.778.121 1.706.317 2.785l-.577.068a4.474 4.474 0 0 0-.232-.69 4.004 4.004 0 0 0-.368-.64c-.158-.23-.37-.41-.634-.538a2.075 2.075 0 0 0-.916-.192h-1.857c-.234 0-.404.034-.51.102-.105.067-.158.196-.158.384v3.43h1.732c.302 0 .515-.06.64-.181.124-.12.213-.31.266-.566l.135-.487c0-.075.05-.113.148-.113h.385c.037 0 .056.023.056.068-.098.883-.147 1.456-.147 1.72 0 .144.049.676.147 1.596l-.056.046h-.385c-.114 0-.17-.038-.17-.114l-.113-.509c-.046-.249-.136-.432-.272-.549-.136-.117-.347-.175-.634-.175h-1.732v3.87c0 .212.055.357.165.436.109.08.277.12.503.12h1.992c.65 0 1.14-.18 1.472-.538.332-.359.607-.881.826-1.568l.577.068c-.279 1.109-.441 2.052-.486 2.83h-6.124l-2.286.045-.023-.046v-.509c0-.075.046-.113.136-.113l.532-.045c.355-.038.598-.11.73-.215.132-.106.198-.276.198-.51v-7.9c0-.257-.07-.436-.21-.538-.139-.102-.379-.164-.718-.187l-.532-.045c-.09-.015-.136-.045-.136-.09v-.51l.023-.045 2.309.045h5.987ZM99.377 14.443c-.219 0-.343-.178-.374-.532a.746.746 0 0 0-.249-.487.734.734 0 0 0-.52-.215c-.234 0-.411.077-.532.232-.121.154-.181.356-.181.605 0 .302.166.58.498.832.332.253.69.38 1.075.38.966 0 1.607-.559 1.924-1.676.264-.958.396-2.55.396-4.776 0-.634.009-1.136.029-1.506a9.37 9.37 0 0 1 .118-1.092c.061-.358.157-.617.289-.775a.64.64 0 0 1 .515-.238h1.313c.4 0 .655.078.764.232.109.155.164.447.164.877v7.007c0 .354-.072.613-.215.775-.143.162-.404.243-.781.243h-.441c-.121 0-.181.06-.181.181v.442l.045.045a90.201 90.201 0 0 1 2.411-.045l2.478.045.046-.045v-.442c0-.12-.061-.18-.181-.18h-.442c-.37 0-.628-.084-.775-.25-.147-.166-.221-.422-.221-.77V6c0-.46.053-.757.159-.889.105-.132.369-.198.792-.198h.645c.128 0 .193-.053.193-.158v-.442l-.068-.045c-1.057.03-1.917.045-2.581.045l-2.524-.022c-.8.015-1.464.022-1.992.022l-2.388-.045-.068.045v.397c0 .098.028.156.085.175.056.019.19.028.401.028.22 0 .402.027.55.08a.79.79 0 0 1 .379.305c.105.151.186.313.243.487.057.173.1.436.13.786.03.351.049.695.057 1.03.008.336.011.795.011 1.376 0 2.188-.132 3.738-.396 4.651-.159.544-.359.816-.6.816ZM112.54 11.171l-1.018 2.434a1.572 1.572 0 0 0-.102.306c0 .135.077.233.232.294.155.06.394.102.719.124l.305.023a.14.14 0 0 1 .091.04c.03.026.045.058.045.096v.486l-.045.046a149.45 149.45 0 0 0-2.366-.046l-1.505.046-.046-.046v-.486c0-.038.016-.07.046-.096.03-.027.06-.04.09-.04.242-.03.434-.066.578-.108.143-.041.3-.135.469-.283.17-.147.315-.349.436-.605l4.086-8.772c.076-.174.189-.317.34-.43.151-.113.283-.17.396-.17.46 0 .769.193.928.577l3.384 8.648c.189.445.377.737.566.877.189.14.479.228.872.266.128.015.192.06.192.136v.486l-.068.046a55.838 55.838 0 0 0-1.924-.046l-2.603.046-.046-.046v-.486c0-.09.053-.136.159-.136l.419-.045c.324-.046.56-.097.707-.153.147-.057.221-.153.221-.289 0-.053-.015-.14-.046-.26l-1.041-2.683h-3.961c-.295 0-.464.083-.51.25Zm4.188-.928-1.822-4.561h-.023l-1.765 4.244c0 .06.006.108.017.142.011.034.052.072.124.113a.66.66 0 0 0 .323.062h3.146Z"/></svg>