<svg xmlns="http://www.w3.org/2000/svg" viewBox="0 0 140 33.995"><g fill="#474747"><path d="M7.406 25.965 0 8.531h4.21l3.985 10.121L12.31 8.281h2.543l4.078 10.32 4-10.07h4.218l-7.484 17.434h-1.543L13.527 14.86 8.95 25.965zM29.355 25.352V8.532h4.059v17.184H30.16zm2.031-23.887c.664 0 1.23.23 1.684.687.457.457.684 1 .683 1.645 0 .645-.227 1.2-.683 1.652-.453.453-1.02.68-1.684.68q-1.014 0-1.691-.68c-.453-.453-.68-1-.68-1.652 0-.645.227-1.19.684-1.648a2.3 2.3 0 0 1 1.687-.684M41.5.363v25.352h-4.059V0H41.5zm7.746 24.988-8.39-8.21 7.581-8.61H53l-7.227 8.523 8.512 8.66h-4.238zM55.551 25.352V8.532h4.059v17.184h-3.254zm2.031-23.887c.664 0 1.22.23 1.68.687s.688 1 .687 1.645-.227 1.2-.683 1.652c-.453.453-1.02.68-1.684.68q-1.014 0-1.691-.68c-.677-.68-.68-1-.68-1.652 0-.645.227-1.19.684-1.648.453-.453 1.02-.684 1.687-.684"/></g><g fill="#666"><path d="M79.664 24.516q-1.489.757-2.54 1.027c-.698.18-1.48.27-2.327.27-2.55 0-4.64-.805-6.25-2.418-1.61-1.62-2.42-3.68-2.418-6.2q0-3.779 2.183-6.214c1.46-1.62 3.34-2.44 5.66-2.438q1.273.001 2.344.266c.72.18 1.62.523 2.711 1.027v3.922c-1.12-.617-1.99-1.05-2.613-1.289a5.3 5.3 0 0 0-1.96-.367c-1.27 0-2.3.469-3.114 1.402-.812.934-1.22 2.16-1.219 3.692q0 2.264 1.356 3.664 1.35 1.39 3.511 1.39c.738 0 1.42-.117 2.047-.36.63-.237 1.5-.667 2.629-1.292zM90.594 25.812q-3.812 0-6.234-2.418c-1.61-1.62-2.42-3.68-2.422-6.2q0-3.78 2.097-6.21c1.4-1.63 3.21-2.44 5.418-2.441q3.616-.002 5.575 2.28c1.31 1.52 1.96 3.64 1.96 6.372v.918H85.967c.117.949.46 1.79 1.027 2.504 1.08.996 2.32 1.5 3.738 1.496q1.558.002 2.887-.547 1.33-.544 3.37-1.863v3.824c-1.11.844-2.16 1.43-3.14 1.773-.98.344-2.07.512-3.254.512zm2.625-10.484a4.7 4.7 0 0 0-.855-2.074c-.621-.848-1.53-1.27-2.735-1.274q-1.605 0-2.64 1.38c-.473.62-.793 1.27-.954 1.968zM109.99 13.621c-1.22-.605-2.16-1.03-2.809-1.273a5.9 5.9 0 0 0-2.039-.368c-.62 0-1.11.113-1.46.332q-.53.33-.532.817c0 .273.168.55.5.84.406.352 1.15.816 2.223 1.386 1.72.918 2.95 1.79 3.687 2.606.777.87 1.17 1.84 1.168 2.922 0 1.49-.547 2.69-1.644 3.586-1.09.895-2.54 1.34-4.32 1.343q-1.282.002-2.508-.367c-.816-.242-1.82-.684-3.031-1.328v-3.879q2.132 1.157 3.293 1.649 1.171.485 2.246.484.948-.001 1.496-.394.544-.398.543-1.012c0-.398-.121-.707-.364-.914-.32-.27-1.29-.828-2.91-1.684-1.53-.809-2.63-1.59-3.281-2.355-.68-.793-1.02-1.7-1.023-2.711 0-1.43.516-2.58 1.539-3.453 1.03-.871 2.38-1.3 4.05-1.305.845 0 1.65.109 2.422.336q1.156.335 2.754 1.215zM124.16 24.664q-1.56 1.15-3.988 1.148-2.715 0-4.258-1.5c-1.02-1-1.54-2.38-1.535-4.136V12.5h-2.688v-.918l6.055-5.797.539-.05v3.167h4.824V12.5h-4.824v7.242q.001 1.237.547 1.813.55.574 1.68.574a7.36 7.36 0 0 0 3.648-.961z"/><path d="m140 9.254-11.188 24.742h-4.277l5.511-12.488-6.27-12.605h4.18l4.212 9.058 3.773-9.058H140z"/></g></svg>