<svg xmlns="http://www.w3.org/2000/svg" width="119" height="19"><path fill="#000" fill-rule="nonzero" d="M25.866.487c.152.161.152.729 0 .891-1.669.216-1.959 1.247-2.485 2.51l-5.985 13.767c-.177.405-.329.621-.606.621-.253 0-.448-.219-.582-.621l-3.4-7.836-3.73 7.836c-.15.405-.329.621-.607.621-.252 0-.43-.216-.58-.621l-5.5-13.82C1.618 1.918 1.567 1.514.126 1.379-.025 1.217-.05.65.102.488 1.29.514 1.72.542 2.732.542c.985 0 1.617-.027 2.806-.054.152.161.152.729 0 .891-1.593.188-1.66.615-1.026 2.159l4.63 11.256h.115l2.824-6.133-2.13-4.826C9.102 1.918 8.9 1.541 7.812 1.379c-.15-.162-.177-.729-.025-.891.81.026 1.24.054 2.25.054.986 0 1.391-.027 2.301-.054.152.161.152.729 0 .891-1.062.162-.96.62-.268 2.159l1.244 2.727.111.121 1.34-2.686c.781-1.565.885-2.159-.202-2.321-.152-.164-.152-.731 0-.892.936.026 1.416.054 1.997.054.582 0 1.214-.027 1.846-.054.151.161.151.729 0 .891-1.315.216-1.864 1.244-2.486 2.51l-1.848 3.755 3.234 7.15h.116l4.802-11.094c.6-1.461.556-2.187-1.087-2.321-.152-.162-.152-.729 0-.891 1.188.026 1.921.054 2.503.054.582 0 1.214-.027 2.225-.054Zm5.145 4.993c.152.162.152.729 0 .891-1.542.135-1.82.216-1.82 2.456v5.831c0 2.24.277 2.349 1.82 2.456.151.162.151.729 0 .891-1.088-.026-1.72-.054-2.807-.054-1.113 0-1.77.027-2.832.054-.15-.162-.15-.729 0-.891 1.542-.135 1.82-.216 1.82-2.456V8.827c0-2.24-.278-2.348-1.82-2.456-.15-.162-.15-.729 0-.891 1.087.027 1.72.054 2.807.054 1.112 0 1.77-.026 2.832-.054Zm2.418.891c-.15-.162-.15-.729 0-.891 1.062.027 1.72.054 2.832.054.936 0 1.34-.026 2.427-.054.151.162.151.729 0 .891-1.214.135-1.44.216-1.44 2.456v2.402c.833 0 1.574-.426 2.654-1.728 1.947-2.348 2.2-3.05.936-3.131-.152-.162-.152-.729 0-.891 1.087.027 2.048.054 2.781.054.657 0 1.087-.026 1.77-.054.151.162.151.729 0 .891-1.01.054-1.939.191-2.706 1.134l-2.174 2.672c-.43.486-.582.783-.582.999 0 .162.101.297.228.459l3.742 4.697c.331.41.936.701 1.618.782.151.162.151.702 0 .864 0 0-1.239-.027-1.947-.027-.658 0-1.29.027-1.568.054v-.378c0-.351-.025-.647-.379-1.079l-2.806-3.726c-.379-.54-1.012-.675-1.568-.675v2.511c0 2.24.228 2.321 1.441 2.456.151.162.151.729 0 .891-1.087-.026-1.492-.054-2.427-.054-1.113 0-1.77.027-2.832.054-.15-.162-.15-.729 0-.891 1.542-.135 1.821-.216 1.821-2.456V8.826c0-2.24-.279-2.321-1.82-2.455Zm17.84 8.287c0 2.24.277 2.349 1.82 2.456.151.162.151.729 0 .891-1.088-.026-1.72-.054-2.807-.054-1.113 0-1.77.027-2.832.054-.15-.162-.15-.729 0-.891 1.542-.135 1.821-.216 1.821-2.456V8.827c0-2.24-.278-2.348-1.82-2.456-.152-.162-.152-.729 0-.891 1.086.027 1.718.054 2.806.054 1.112 0 1.77-.026 2.832-.054.152.162.152.729 0 .891-1.542.135-1.82.216-1.82 2.456v5.831Zm9.951 2.456c.152.162.152.729 0 .891-1.087-.026-1.719-.054-2.806-.054-1.112 0-1.77.027-2.832.054-.152-.162-.152-.729 0-.891 1.542-.135 1.82-.216 1.82-2.456V8.827c0-2.24-.278-2.348-1.82-2.456-.152-.162-.152-.729 0-.891 1.087.027 1.72.054 2.806.054.683 0 1.745-.054 2.68-.054 3.591 0 4.35 1.89 4.35 3.293 0 1.62-1.037 4.211-4.425 4.211-.633 0-1.138-.107-1.593-.324v1.998c0 2.24.278 2.348 1.82 2.456Zm-1.82-5.318c.505.216 1.138.297 1.643.297 1.517 0 2.175-1.05 2.175-2.996 0-1.893-.809-2.727-2.3-2.727-1.215 0-1.518.351-1.518 1.215v4.211Zm11.772.081v4.049c0 .513.354 1.188.81 1.188h2.098c1.594 0 2.326-1.35 2.73-2.942.28-.081.48-.026.71.108-.179 1.134-.456 2.618-.76 3.725 0 0-1.669-.054-2.68-.054h-3.895s-1.77.027-2.83.054c-.153-.162-.153-.729 0-.891 1.541-.135 1.82-.216 1.82-2.456V8.827c0-2.24-.279-2.348-1.82-2.456-.153-.162-.153-.729 0-.891 1.086.027 2.806.054 2.806.054h5.232c.506 0 .684-.054 1.037-.107.051 0 .076.026.076.081.051.188.354 2.294.455 3.212-.202.107-.43.162-.683.135-.455-1.538-.784-2.43-2.352-2.43H71.98c-.48 0-.81.297-.81.756v3.833h1.44c1.771-.026 1.695-.297 1.745-1.512.126-.135.581-.135.708 0-.025.675-.05 1.161-.05 1.917s.024 1.188.05 1.971c-.127.135-.582.135-.708 0-.05-.999.051-1.512-1.745-1.512h-1.438v-.001ZM73.322 0c.162 0 .81.027 1.391.621l.076.297-2.908 2.942c-.379.404-.582.513-.759.513a.369.369 0 0 1-.354-.352c0-.302.084-.41.29-.756l1.91-3.212A1.31 1.31 0 0 1 73.322 0Zm12.581 5.48c4.222 0 6.296 2.808 6.296 6.397 0 4.724-3.136 6.127-5.942 6.127-2.022 0-2.933-.054-3.69-.054-1.113 0-1.77.027-2.832.054-.152-.162-.152-.729 0-.891 1.542-.135 1.82-.216 1.82-2.456V8.826c0-2.24-.278-2.348-1.82-2.456-.152-.162-.152-.729 0-.891 1.087.027 1.72.054 2.807.054.478.001 2.703-.053 3.361-.053Zm-.253 11.634c2.781 0 4.35-.999 4.35-4.777 0-2.808-.582-5.966-4.83-5.966-.986 0-1.618.162-1.618.837v8.691c0 .756.176 1.215 2.098 1.215Zm12.403-2.456c0 2.24.278 2.349 1.82 2.456.151.162.151.729 0 .891-1.087-.026-1.72-.054-2.806-.054-1.113 0-1.77.027-2.832.054-.152-.162-.152-.729 0-.891 1.542-.135 1.82-.216 1.82-2.456V8.827c0-2.24-.278-2.348-1.82-2.456-.152-.162-.152-.729 0-.891 1.087.027 1.72.054 2.807.054 1.111 0 1.77-.026 2.831-.054.151.162.151.729 0 .891-1.542.135-1.82.216-1.82 2.456v5.831Zm9.017 2.456c.152.162.152.729 0 .891-.936-.026-2.199-.054-3.236-.054-.985 0-1.314.027-2.25.054-.15-.162-.15-.729 0-.891 1.1-.081 1.861-.248 2.53-1.916l5.62-14.045c.287-.724.478-.964.852-.964.354 0 .498.289.682.811l5.184 14.63c.468 1.39 1.295 1.39 2.275 1.484.152.162.152.729 0 .891-.936-.026-1.846-.054-2.883-.054-.985 0-2.376.027-3.312.054-.15-.162-.15-.729 0-.891 1.204-.092 2.247.006 1.871-1.106l-1.542-4.562h-5.26c-.606 0-.758.107-.885.459l-1.39 3.913c-.395 1.109.794 1.225 1.744 1.296Zm5.385-6.802-2.452-7.207h-.05l-2.534 6.848c-.106.292.076.359.637.359h4.4Z"/></svg>