<svg xmlns="http://www.w3.org/2000/svg" width="146" height="40" fill="none"><path fill="#555" fill-rule="evenodd" d="M50.972 0h.432c-.08 3.952-5.705 2.359-7.776 4.32.024-4.804 4.887-2.1 7.344-4.32Zm40.171 39.74h-6.48v-.434c-6.945-2.11-.847-11.323 3.024-12.957-.916 3.116-3.996 4.066-3.455 8.639 3.352 3.147 12.015 1.42 15.55-.432-1.328-1.12-4.089-.806-4.752-2.591 1.016-8.63 16.208-3.085 20.301-8.64-.301-4.017-4.163-4.474-5.616-7.342 3.281-6.654 11.667-8.204 18.142-11.663-2.652 6.13-11.559 6.008-15.981 10.367 6.362 2.254 8.237 15.823 17.277 9.934-1.345-3.038.036-4.498 1.727-6.48 2.422 6.327-2.053 12.025-9.503 11.23-2.443-1.444-2.943-4.83-5.182-6.477-.509 8.13-11.768 5.51-18.575 7.34.457 1.993 4.096.803 4.32 3.025-.553 5.205-6.439 5.079-10.797 6.48ZM47.516 4.751c1.028 7.654-3.808 13.182-3.888 21.166 3.705 1.602 6.49-1.221 7.776-3.455 1.934-.032-.263 1.6.431 3.022 1.105 1.058 4.88 1.257 6.48.433-.883-5.022 3.052-8.674 7.342-9.934 3.228 3.012.824 7.92-1.728 9.934 4.36 1.045 10.156.181 12.095-2.591-.242-3.645-3.022-4.753-5.184-6.48 1.373-7.266 10.868-6.41 16.847-9.07-2.232 4.969-9.581 4.818-14.686 6.912 1.285 1.735 3.587 2.459 4.751 4.32 1.954 9.543-10.213 12.854-16.413 8.638-2.064 1.732-9.528 3.108-11.232 0-2.027 1.14-4.132 2.202-7.775 1.726-3.071-6.988 3.323-14.486 3.024-22.892.86-.437 1.845-.746 2.16-1.729Zm13.39 20.303c3.255-.109 4.966-3.186 3.455-5.616-2.875.188-5.535 3.077-3.455 5.616Z" clip-rule="evenodd"/><path fill="#555" fill-rule="evenodd" d="M87.256 4.751c-2.274 4.062-9.445 3.227-12.96 6.049.463-4.15 8.864-4.094 12.96-6.049ZM66.523 7.777c1.003.29 1.154 1.435 2.158 1.727-1.2 1.518-3.324 3.688-4.32.863-.136-1.72 1.999-1.17 2.162-2.59Zm-10.367 4.75c.88.126.847 1.168 1.728 1.295-.442 1.429-1.196 2.548-3.023 2.59-.185-.82-.93-1.084-.864-2.158.86-.435 1.843-.746 2.16-1.727Zm-3.026 1.728c.002 1.586-1.511 1.655-2.159 2.591-1.015-.136-.967-1.337-1.728-1.728.745-1.278 3.144-3.236 3.888-.863ZM7.777 13.39c9.04 3.672 3.59 19.942-7.775 15.55-.052-1.925 1.065-2.678 1.296-4.32 1.442 3.014 5.867 1.018 8.64.433 1.333-4.134-.96-7.43-3.889-8.64a16.26 16.26 0 0 0 1.728-3.023ZM25.92 39.739h-2.16v-.433c-1.318.022-2.2-.39-2.592-1.294 5.308-1.603 9.4-4.425 12.095-8.64-2.216-.087-4.991.384-6.047-.863.347-4.98 2.866-7.789 6.91-9.07 5.974 7.698-3.247 16.584-8.207 20.3Zm3.887-13.822c1.139 1.013 2.945.072 4.32 0 .751-4.923-4.627-3.618-4.32 0ZM146 22.03v3.888c-1.841 6.223-5.846 10.279-10.367 13.822h-2.159v-.433c-1.317.022-2.199-.39-2.591-1.294 5.309-1.603 9.399-4.425 12.095-8.64-2.216-.087-4.991.384-6.048-.862-.262-5.222 6.247-12.322 9.07-6.482Zm-6.479 3.887c1.138 1.013 2.944.072 4.319 0 .752-4.923-4.626-3.618-4.319 0ZM21.168 20.733c3.76 8.076-3.977 19.247-12.094 16.847 4.312-2.977 14.066-6.139 9.935-13.392.547-1.323 1.47-2.271 2.16-3.455Zm102.37 12.095c1.478-.182 1.298 1.294 2.161 1.728-.765.819-1.829 1.34-2.592 2.16-1.015-.14-.968-1.338-1.729-1.728.301-1.139 1.967-.913 2.16-2.16Zm6.479 2.16c-1.555 1.056-2.527 2.294-3.888.432.216-2.262 3.903-3.771 3.888-.432Z" clip-rule="evenodd"/></svg>