<?xml version="1.0" encoding="UTF-8"?>
<svg width="110px" height="15px" viewBox="0 0 110 15" version="1.1" xmlns="http://www.w3.org/2000/svg" xmlns:xlink="http://www.w3.org/1999/xlink">
    <title>wikipedia-tagline-ht</title>
    <g id="Page-1" stroke="none" stroke-width="1" fill="none" fill-rule="evenodd">
        <path d="M4.18255464,6.65042213 C3.83000214,6.65042213 3.71782635,6.60234679 3.7819268,6.44209566 L5.38443816,2.37171681 L5.41648839,2.37171681 L6.9709244,6.65042213 L4.18255464,6.65042213 M2.40376704,9.9195453 L3.33322362,7.59590383 C3.41334919,7.38757736 3.50949987,7.3234769 3.8941026,7.3234769 L7.22732622,7.3234769 L8.20485815,10.0317211 C8.36510928,10.4804243 8.14075769,10.6727256 7.53180338,10.720801 L7.0831002,10.7528512 C7.00297463,10.7528512 6.9709244,10.8009265 6.9709244,10.8810521 L6.9709244,11.1855293 L6.98694952,11.2175795 C7.57987872,11.2015544 8.49331143,11.1855293 9.11828962,11.1855293 C9.77531928,11.1855293 10.4002999,11.2015544 10.9932279,11.2175795 L11.0252781,11.1855293 L11.0252781,10.8810521 C11.0252781,10.8009265 10.9451526,10.7528512 10.865027,10.7528512 L10.6887508,10.7368261 C10.0477474,10.6727256 9.72724394,10.4323489 9.50289235,9.80736951 L6.21774407,1.12175795 C6.10556827,0.817280792 6.00941759,0.641004543 5.785066,0.641004543 C5.5446893,0.641004543 5.4325135,0.785230565 5.24021214,1.21790863 L1.68263693,9.55096769 C1.26598397,10.5445247 0.833304673,10.7047759 0.128200909,10.7528512 C0.0480753407,10.7528512 0,10.8009265 0,10.8810521 L0,11.1855293 L0.0320502271,11.2175795 C0.624979429,11.2015544 0.881382479,11.1855293 1.50636068,11.1855293 C2.16339033,11.1855293 3.01272258,11.2015544 3.60565055,11.2175795 L3.63770078,11.1855293 L3.63770078,10.8810521 C3.63770078,10.8009265 3.57360033,10.7528512 3.50949987,10.7528512 L3.04477158,10.720801 C2.45184361,10.6727256 2.22749079,10.3522234 2.40376704,9.9195453 M14.7567419,4.15050442 C14.7567419,4.11845419 14.7246916,4.10242907 14.6926414,4.10242907 C14.2439382,4.27870532 13.6029324,4.42293135 12.4811757,4.5992076 L12.513226,4.98381032 L13.2023058,5.04791078 C13.4266574,5.079961 13.5548583,5.24021214 13.5548583,6.04146782 L13.5548583,10.0317211 C13.5548583,10.4964494 13.394606,10.6727256 12.8657785,10.720801 L12.5613013,10.7528512 C12.4811757,10.7688763 12.4331004,10.8009265 12.4331004,10.8810521 L12.4331004,11.1855293 L12.4651506,11.2175795 C13.1061539,11.2015544 13.506783,11.1855293 14.1317624,11.1855293 C14.7887909,11.1855293 15.1253195,11.2015544 15.766324,11.2175795 L15.7983742,11.1855293 L15.7983742,10.8810521 C15.7983742,10.8009265 15.7502989,10.7688763 15.6701733,10.7528512 L15.4458217,10.720801 C14.916993,10.6406754 14.7567419,10.4964494 14.7567419,10.0317211 L14.7567419,6.15364361 C15.5740214,5.1921368 16.182977,4.91970987 16.888082,4.91970987 C17.7374117,4.91970987 17.9297143,5.44853861 17.9297143,6.57029656 L17.9297143,10.0317211 C17.9297143,10.4964494 17.7534369,10.6406754 17.2406345,10.720801 L17.0162829,10.7528512 C16.9361573,10.7688763 16.888082,10.8009265 16.888082,10.8810521 L16.888082,11.1855293 L16.9201322,11.2175795 C17.5611355,11.2015544 17.881639,11.1855293 18.5066184,11.1855293 C19.1636469,11.1855293 19.580301,11.2015544 20.2213056,11.2175795 L20.2533558,11.1855293 L20.2533558,10.8810521 C20.2533558,10.8009265 20.1892554,10.7688763 20.1091298,10.7528512 L19.8046526,10.720801 C19.3078741,10.6727256 19.1315979,10.4964494 19.1315979,10.0317211 L19.1315979,6.68247236 C19.1315979,5.25623725 18.8110944,4.15050442 17.3688354,4.15050442 C16.5515546,4.15050442 15.7823479,4.37485601 14.7567419,5.57673952 L14.7086665,5.57673952 L14.7567419,4.15050442 M22.1599585,8.94201337 C22.2240589,9.72724394 22.2721343,10.5124745 22.2721343,11.1855293 C22.4323854,11.153479 22.5605863,11.1374539 22.6407119,11.1374539 C22.7528877,11.1374539 22.8330145,11.1374539 22.9451891,11.1695042 C23.361842,11.28168 23.8265715,11.3457804 24.3874493,11.3457804 C25.1406296,11.3457804 26.8232665,10.9131023 26.8232665,9.3266161 C26.8232665,8.04460701 25.7816329,7.46770292 24.4836,6.98694952 C23.6022199,6.66644725 23.3458169,6.34594497 23.3458169,5.70494043 C23.3458169,4.82355919 24.0028478,4.63125782 24.6118009,4.63125782 C24.9483283,4.63125782 25.7816354,4.88765964 26.1181615,6.20171895 L26.5508396,6.18569384 C26.5187894,5.60878975 26.470714,5.06393589 26.3745634,4.55113225 C25.8777861,4.29473044 25.4130565,4.15050442 24.6118009,4.15050442 C23.3458181,4.15050442 22.368285,4.87163453 22.368285,5.94531714 C22.368285,7.14720065 22.9291652,7.48372804 24.0989972,7.99653167 C25.36498,8.55741065 25.7495839,9.00611383 25.7495839,9.69519371 C25.7495839,10.4804243 24.916278,10.8970772 24.3553991,10.8970772 C23.7624711,10.8970772 23.3297918,10.6086252 23.1695406,10.4323489 C22.8009643,10.0637713 22.6407119,9.3266161 22.5926366,8.92598826 L22.1599585,8.94201337 M29.6881217,2.05121454 C29.6881217,2.46786749 30.0406742,2.82041999 30.4573272,2.82041999 C30.8739789,2.82041999 31.2265326,2.46786749 31.2265326,2.05121454 C31.2265326,1.63456158 30.8739789,1.28200909 30.4573272,1.28200909 C30.0406742,1.28200909 29.6881217,1.63456158 29.6881217,2.05121454 M31.1944824,4.15050442 C31.1944824,4.11845419 31.1624322,4.10242907 31.1303819,4.10242907 C30.6816787,4.27870532 30.0086227,4.42293135 28.8708409,4.5992076 L28.9028911,4.98381032 L29.591971,5.04791078 C29.8163214,5.079961 29.9445235,5.24021214 29.9445235,6.04146782 L29.9445235,10.0317211 C29.9445235,10.4964494 29.8002963,10.6567005 29.2554436,10.720801 L28.9509665,10.7528512 C28.8708409,10.7688763 28.8227656,10.8009265 28.8227656,10.8810521 L28.8227656,11.1855293 L28.8548158,11.2175795 C29.4958191,11.2015544 29.9445235,11.1855293 30.5214276,11.1855293 C31.1303807,11.1855293 31.5951102,11.2015544 32.2361148,11.2175795 L32.268165,11.1855293 L32.268165,10.8810521 C32.268165,10.8009265 32.2040645,10.7688763 32.123939,10.7528512 L31.8194618,10.720801 C31.3226833,10.6727256 31.146407,10.4964494 31.146407,10.0317211 L31.146407,6.04146782 C31.146407,5.24021214 31.1944824,4.15050442 31.1944824,4.15050442 M34.9943031,2.16339033 L34.9943031,10.0317211 C34.9943031,10.4964494 34.8340519,10.6727256 34.3052232,10.720801 L34.000746,10.7528512 C33.9206205,10.7688763 33.8885702,10.8009265 33.8885702,10.8810521 L33.8885702,11.1855293 L33.9206205,11.2175795 C34.7218761,11.2015544 34.946229,11.1855293 35.5712072,11.1855293 C36.2282368,11.1855293 36.3884892,11.2015544 37.0134674,11.2175795 L37.0455176,11.1855293 L37.0455176,10.8810521 C37.0455176,10.8009265 36.9814172,10.7528512 36.9173167,10.7528512 C36.500665,10.7047759 36.1961866,10.6406754 36.1961866,10.0317211 L36.1961866,7.7882052 C36.5968144,7.7882052 36.8211673,7.90038099 37.1416683,8.36510928 L38.3115016,10.015696 C38.6320039,10.4804243 38.6800792,10.6727256 38.6800792,10.8810521 L38.6800792,11.1855293 L38.7281545,11.2175795 C39.0486568,11.2015544 39.321085,11.1855293 39.8018371,11.1855293 C40.2986157,11.1855293 40.6832196,11.2015544 41.1639718,11.2175795 L41.196022,11.1855293 L41.196022,10.8810521 C41.196022,10.8009265 41.1639718,10.7688763 41.051796,10.7528512 L40.9396202,10.7368261 C40.5389936,10.6727256 40.0261887,10.448374 39.7377367,10.015696 L37.8627984,7.24335133 C37.8147231,7.17925088 37.7826728,7.09912531 37.7826728,7.01899974 C37.7826728,6.95489929 37.7986979,6.90682395 37.8467733,6.85874861 L39.0646819,5.51263907 C39.4653098,5.09598612 40.170416,4.82355919 40.6030928,4.75945873 L40.7152686,4.74343362 C40.7953942,4.7274085 40.8915449,4.69535828 40.8915449,4.61523271 L40.8915449,4.31075555 L40.8274444,4.27870532 C40.2345164,4.29473044 40.0101636,4.31075555 39.4332595,4.31075555 C38.8243064,4.31075555 38.5999536,4.29473044 38.0070244,4.27870532 C38.0070244,4.29473044 37.9589491,4.31075555 37.9589491,4.31075555 L37.9589491,4.61523271 C37.9589491,4.67933316 38.0070244,4.74343362 38.08715,4.74343362 C39.0486568,4.79150896 38.4717527,5.44853861 38.2954765,5.62481486 C37.4301216,6.57029656 36.6128395,7.29142668 36.1961866,7.38757736 L36.1961866,1.84288806 C36.1961866,0.801255679 36.2442619,0.160251136 36.2442619,0.160251136 C36.2442619,0.0480753407 36.1801615,0 36.0359355,0 C35.6353088,0.160251136 34.5135497,0.368577612 33.8725451,0.416652953 L33.9045953,0.801255679 C33.9045953,0.849331019 33.9526707,0.881381246 34.000746,0.881381246 L34.5135497,0.913431474 C34.8340519,0.913431474 34.9943031,1.12175795 34.9943031,2.16339033 M43.7609068,10.0317211 C43.7609068,10.4964494 43.6006544,10.6727256 43.0718269,10.720801 L42.6872242,10.7528512 C42.6070986,10.7528512 42.5750484,10.8009265 42.5750484,10.8810521 L42.5750484,11.1855293 L42.5910735,11.2175795 C43.3923279,11.2015544 43.7128314,11.1855293 44.3378109,11.1855293 C44.9948393,11.1855293 45.3153428,11.2015544 46.1165985,11.2175795 L46.1486487,11.1855293 L46.1486487,10.8810521 C46.1486487,10.8009265 46.0845483,10.7528512 46.0204478,10.7528512 L45.6358451,10.720801 C45.1070163,10.6727256 44.9627903,10.4964494 44.9627903,10.0317211 L44.9627903,1.84288806 C44.9627903,0.801255679 45.0108656,0.160251136 45.0108656,0.160251136 C45.0108656,0.0480753407 44.9467652,0 44.8025392,0 C44.4019113,0.160251136 43.2961773,0.368577612 42.6391488,0.416652953 L42.6711991,0.801255679 C42.6711991,0.849331019 42.7192744,0.881381246 42.7673497,0.881381246 L43.2801534,0.913431474 C43.6006544,0.913431474 43.7609068,1.12175795 43.7609068,2.16339033 L43.7609068,10.0317211 M47.9643582,7.90038099 C47.9643582,9.53494258 49.1021437,11.3457804 51.2495065,11.3457804 C53.5250701,11.3457804 54.566705,9.35866633 54.566705,7.75615497 C54.566705,6.08954316 53.653271,4.15050442 51.2815567,4.15050442 C49.150219,4.15050442 47.9643582,5.70494043 47.9643582,7.90038099 M51.1052804,4.67933316 C52.4193385,4.67933316 53.2045703,5.91326691 53.2045703,8.2689586 C53.2045703,10.3842736 52.2430623,10.8169517 51.5219334,10.8169517 C49.9354484,10.8169517 49.3264928,8.76573712 49.3264928,7.53180338 C49.3264928,6.1376185 49.8232726,4.67933316 51.1052804,4.67933316 M58.6196707,6.20171895 C58.9722232,5.35238793 59.7414299,4.88765964 60.2862825,4.88765964 C61.2638132,4.88765964 62.0971203,6.04146782 62.0971203,7.85230565 C62.0971203,9.16636496 61.664441,10.8009265 59.9497551,10.8009265 C59.6933533,10.8009265 59.1805497,10.7688763 58.6196707,10.1118467 L58.6196707,6.20171895 M57.4177872,6.04146782 L57.4177872,13.7655726 C57.4177872,14.2142757 57.2415109,14.390552 56.7287073,14.4386273 L56.4242301,14.4706776 C56.3441046,14.4867027 56.2960292,14.5187529 56.2960292,14.5988785 L56.2960292,14.9033556 L56.3280794,14.9354058 C56.9210086,14.9193807 57.4177884,14.9033556 57.9946912,14.9033556 C58.6036456,14.9033556 59.1164504,14.9193807 59.7093784,14.9354058 L59.7414286,14.9033556 L59.7414286,14.5988785 C59.7414286,14.5187529 59.6773282,14.4867027 59.5972026,14.4706776 L59.2927254,14.4386273 C58.7959482,14.390552 58.6196707,14.2142757 58.6196707,13.7655726 L58.6196707,10.9932279 C59.0363236,11.2175795 59.4690029,11.3457804 60.0459058,11.3457804 C60.8952368,11.3457804 61.6644435,11.0733535 62.2894217,10.448374 C63.0105518,9.71121882 63.4111796,8.71766178 63.4111796,7.41962758 C63.4111796,5.72096555 62.2733953,4.15050442 60.7189606,4.15050442 C60.2061582,4.15050442 59.3568259,4.31075555 58.6196707,5.4325135 L58.5715953,5.4325135 L58.6196707,4.15050442 C58.6196707,4.11845419 58.5876205,4.10242907 58.5555702,4.10242907 C58.0908432,4.27870532 57.4818864,4.42293135 56.3441046,4.5992076 L56.3761548,4.98381032 L57.0652347,5.04791078 C57.2895863,5.079961 57.4177872,5.24021214 57.4177872,6.04146782 M66.9781394,6.58632168 C67.2665902,4.77548384 68.4524499,4.69535828 68.8210275,4.69535828 C69.3979303,4.69535828 70.1511119,5.01586055 70.1511119,6.36197009 C70.1511119,6.50619611 70.0870114,6.58632168 69.9267603,6.58632168 L66.9781394,6.58632168 M71.2087694,9.66314348 C70.6478904,10.2720978 70.0870102,10.5605498 69.2056302,10.5605498 C68.3082238,10.5605498 66.9300641,9.59904303 66.9300641,7.21130111 L71.1446689,7.21130111 C71.3209452,7.21130111 71.433121,7.11515043 71.433121,6.93887418 C71.433121,5.59276464 70.93634,4.15050442 68.8210275,4.15050442 C67.2986429,4.15050442 65.648055,5.56071441 65.648055,7.99653167 C65.648055,9.83941973 66.6255881,11.3457804 68.8210275,11.3457804 C69.9748344,11.3457804 70.9203173,10.7528512 71.5292717,9.9195453 C71.4811963,9.75929417 71.3850456,9.6791686 71.2087694,9.66314348 M78.5343641,9.6791686 C77.813234,10.2560727 77.1882533,10.5926001 76.7716016,10.5926001 C75.9062454,10.5926001 75.0248642,9.64711837 75.0248642,7.64397917 C75.0248642,6.490171 75.2331907,5.84916645 75.4735674,5.51263907 C75.9703447,4.75945873 76.6434007,4.71138339 76.9639029,4.71138339 C77.717082,4.71138339 78.1497613,5.04791078 78.5343641,5.65686509 L78.5343641,9.6791686 M79.7362476,1.84288806 C79.7362476,0.801255679 79.7843229,0.160251136 79.7843229,0.160251136 C79.7843229,0.0480753407 79.7202225,0 79.5759965,0 C79.1753686,0.160251136 78.0696345,0.368577612 77.4126061,0.416652953 L77.4446563,0.801255679 C77.4446563,0.849331019 77.4927317,0.881381246 77.540807,0.881381246 L78.0536107,0.913431474 C78.3741117,0.913431474 78.5343641,1.12175795 78.5343641,2.16339033 L78.5343641,4.50305691 C78.1657865,4.29473044 77.4606802,4.15050442 77.1401792,4.15050442 C76.0825229,4.15050442 75.3774155,4.50305691 74.7364122,5.11201123 C74.0473323,5.80109111 73.6627295,6.74657281 73.6627295,7.93243122 C73.6627295,9.90352019 74.6242376,11.3457804 76.3549486,11.3457804 C76.9959519,11.3457804 77.7972088,10.8329768 78.5343641,10.2400476 L78.5664143,10.2560727 L78.5343641,11.3778306 L78.9029417,11.3778306 C79.2554929,11.0893786 79.9605992,10.8810521 80.9541562,10.7047759 L80.9060809,10.3361983 L80.1368754,10.2560727 C79.800348,10.2240225 79.7362476,10.1278718 79.7362476,9.3266161 L79.7362476,1.84288806 M83.4772241,2.05121454 C83.4772241,2.46786749 83.8297778,2.82041999 84.2464295,2.82041999 C84.6630825,2.82041999 85.015635,2.46786749 85.015635,2.05121454 C85.015635,1.63456158 84.6630825,1.28200909 84.2464295,1.28200909 C83.8297778,1.28200909 83.4772241,1.63456158 83.4772241,2.05121454 M84.9835847,4.15050442 C84.9835847,4.11845419 84.9515345,4.10242907 84.9194843,4.10242907 C84.4707823,4.27870532 83.7977251,4.42293135 82.6599433,4.5992076 L82.6919935,4.98381032 L83.3810734,5.04791078 C83.605425,5.079961 83.7336259,5.24021214 83.7336259,6.04146782 L83.7336259,10.0317211 C83.7336259,10.4964494 83.5893999,10.6567005 83.044546,10.720801 L82.7400688,10.7528512 C82.6599433,10.7688763 82.6118679,10.8009265 82.6118679,10.8810521 L82.6118679,11.1855293 L82.6439182,11.2175795 C83.2849227,11.2015544 83.7336271,11.1855293 84.31053,11.1855293 C84.9194843,11.1855293 85.3842138,11.2015544 86.0252171,11.2175795 L86.0572673,11.1855293 L86.0572673,10.8810521 C86.0572673,10.8009265 85.9931669,10.7688763 85.9130413,10.7528512 L85.6085642,10.720801 C85.1117869,10.6727256 84.9355094,10.4964494 84.9355094,10.0317211 L84.9355094,6.04146782 C84.9355094,5.24021214 84.9835847,4.15050442 84.9835847,4.15050442 M93.888018,10.0317211 C93.888018,10.4964494 93.7277668,10.6727256 93.1989381,10.720801 L92.8143354,10.7528512 C92.7342098,10.7528512 92.7021596,10.8009265 92.7021596,10.8810521 L92.7021596,11.1855293 L92.7181847,11.2175795 C93.5194404,11.2015544 93.8399439,11.1855293 94.4649221,11.1855293 C95.1219517,11.1855293 95.442454,11.2015544 96.2437097,11.2175795 L96.2757599,11.1855293 L96.2757599,10.8810521 C96.2757599,10.8009265 96.2116595,10.7528512 96.147559,10.7528512 L95.7629563,10.720801 C95.2341275,10.6727256 95.0899015,10.4964494 95.0899015,10.0317211 L95.0899015,1.84288806 C95.0899015,0.801255679 95.1379768,0.160251136 95.1379768,0.160251136 C95.1379768,0.0480753407 95.0738764,0 94.9296504,0 C94.5290238,0.160251136 93.4232897,0.368577612 92.76626,0.416652953 L92.7983103,0.801255679 C92.7983103,0.849331019 92.8463856,0.881381246 92.8944609,0.881381246 L93.4072646,0.913431474 C93.7277668,0.913431474 93.888018,1.12175795 93.888018,2.16339033 L93.888018,10.0317211 M98.8927349,2.05121454 C98.8927349,2.46786749 99.2452874,2.82041999 99.6619404,2.82041999 C100.078593,2.82041999 100.431146,2.46786749 100.431146,2.05121454 C100.431146,1.63456158 100.078593,1.28200909 99.6619404,1.28200909 C99.2452874,1.28200909 98.8927349,1.63456158 98.8927349,2.05121454 M100.399096,4.15050442 C100.399096,4.11845419 100.367045,4.10242907 100.334995,4.10242907 C99.886292,4.27870532 99.2132372,4.42293135 98.0754541,4.5992076 L98.1075044,4.98381032 L98.7965842,5.04791078 C99.0209358,5.079961 99.1491367,5.24021214 99.1491367,6.04146782 L99.1491367,10.0317211 C99.1491367,10.4964494 99.0049107,10.6567005 98.4600568,10.720801 L98.1555797,10.7528512 C98.0754541,10.7688763 98.0273788,10.8009265 98.0273788,10.8810521 L98.0273788,11.1855293 L98.059429,11.2175795 C98.7004336,11.2015544 99.1491367,11.1855293 99.7260408,11.1855293 C100.334995,11.1855293 100.799723,11.2015544 101.440728,11.2175795 L101.472778,11.1855293 L101.472778,10.8810521 C101.472778,10.8009265 101.408678,10.7688763 101.328552,10.7528512 L101.024075,10.720801 C100.527297,10.6727256 100.35102,10.4964494 100.35102,10.0317211 L100.35102,6.04146782 C100.35102,5.24021214 100.399096,4.15050442 100.399096,4.15050442 M105.240541,10.0477462 L105.240541,5.52866418 C105.865521,4.88765964 106.698827,4.85560941 106.875103,4.85560941 C107.852635,4.85560941 108.637865,6.04146782 108.637865,7.59590383 C108.637865,9.42276678 107.916735,10.8009265 106.394349,10.8009265 C105.897571,10.8009265 105.561044,10.448374 105.240541,10.0477462 M104.038658,2.16339033 L104.038658,10.0477462 C104.038658,10.6727256 104.022633,10.9451526 103.958532,11.2977051 C104.054683,11.3618055 104.134808,11.3778306 104.29506,11.3778306 C104.455311,11.2336046 104.679662,10.9611777 104.823888,10.7528512 C105.288617,11.153479 105.80142,11.3457804 106.4905,11.3457804 C108.125062,11.3457804 110,9.85544485 110,7.30745179 C110,5.35238793 108.58979,4.15050442 107.195605,4.15050442 C106.4264,4.15050442 105.785395,4.43895646 105.240541,5.03188566 L105.240541,1.84288806 C105.240541,0.801255679 105.288617,0.160251136 105.288617,0.160251136 C105.288617,0.0480753407 105.224516,0 105.08029,0 C104.679662,0.160251136 103.557904,0.368577612 102.9169,0.416652953 L102.94895,0.801255679 C102.94895,0.849331019 102.997025,0.881381246 103.045101,0.881381246 L103.557904,0.913431474 C103.878407,0.913431474 104.038658,1.12175795 104.038658,2.16339033" id="wikipedia-tagline-ht" fill="#000000" fill-rule="nonzero"></path>
    </g>
</svg>