<svg viewBox="0 0 117 10" xmlns="http://www.w3.org/2000/svg"><path d="M97.2 1.81c.254.01.456.126.604.348.149.223.225.494.228.814a.898.898 0 0 1-.205.558c-.139.183-.362.304-.668.364l-.03.706-.008.367v2.54c-.013.319.042.553.165.7.123.148.389.236.799.264.04.045.06.104.06.178s-.02.134-.06.178a4.69 4.69 0 0 0-.992.21 1.94 1.94 0 0 0-.606.319.456.456 0 0 1-.126.026.321.321 0 0 1-.125-.026l-.073-.274a2.45 2.45 0 0 1-.073-.505c-.002-.044-.02-.066-.055-.063a.188.188 0 0 0-.103.046 4.473 4.473 0 0 1-.902.598 1.865 1.865 0 0 1-.803.199c-.643-.018-1.09-.203-1.34-.556a1.952 1.952 0 0 1-.358-1.04l-.004-.2v-2.54c.006-.415-.051-.692-.172-.83-.12-.137-.336-.213-.647-.226-.04-.048-.059-.121-.059-.218 0-.098.02-.17.06-.218l.698.018c.222.005.438.008.65.008l.146-.002.134-.006c.086-.005.146-.011.182-.018a.12.12 0 0 1 .078.025.071.071 0 0 1 .028.055l-.026.531c-.012.242-.02.457-.024.647l-.003.181v2.4c.02.571.146.945.38 1.12.234.176.46.256.677.24.166 0 .353-.053.561-.16.21-.106.435-.264.68-.476a.569.569 0 0 0 .176-.224.649.649 0 0 0 .034-.178l.002-.113v-2.55c.006-.424-.05-.706-.167-.847-.118-.14-.335-.216-.652-.223-.04-.047-.06-.12-.06-.218 0-.097.02-.17.06-.218l.7.019c.221.005.437.007.648.008l.131-.003.195-.009.111-.011a.937.937 0 0 0 .365-.138c.111-.072.17-.146.177-.223a.239.239 0 0 0-.084-.188.371.371 0 0 0-.185-.08l-.087-.01c-.223-.012-.385-.075-.485-.19a.545.545 0 0 1-.15-.377.479.479 0 0 1 .16-.377c.106-.091.256-.137.449-.14zM49.7 3.42c.505-.024.958.113 1.36.413.368.274.576.807.626 1.6l.01.222v1.97c-.01.313.013.576.07.789.058.214.21.324.458.334.134-.009.227-.044.28-.106.053-.062.096-.097.129-.106.03.004.065.03.106.078.04.048.062.097.066.147-.007.053-.113.16-.32.322-.205.16-.473.252-.803.272-.346-.015-.594-.108-.743-.28a1.263 1.263 0 0 1-.247-.393l-.027-.094h-.026l-.264.211c-.276.22-.513.368-.71.446-.197.078-.44.114-.73.11-.474.005-.867-.103-1.18-.323-.312-.22-.474-.589-.485-1.1.011-.453.216-.845.614-1.18.34-.284.773-.505 1.3-.665l.269-.074 1.14-.277c.02-.007.038-.023.054-.05a.222.222 0 0 0 .025-.109c-.017-.725-.14-1.2-.367-1.42-.195-.189-.396-.29-.601-.3l-.103.001a2.01 2.01 0 0 0-.736.124c-.226.085-.346.23-.36.431l.004.124a.901.901 0 0 0 .004.047l.012.07a.214.214 0 0 0 .006.023.374.374 0 0 1 .03.104c.007.042.01.087.01.134 0 .093-.05.187-.147.282-.098.095-.242.146-.434.154-.152 0-.267-.037-.345-.112-.078-.076-.117-.192-.117-.35.023-.373.25-.707.684-1a2.753 2.753 0 0 1 1.5-.466zm66.5-1.61c.255.01.459.126.611.348.152.223.23.494.234.814-.002.316-.08.573-.231.772a1.018 1.018 0 0 1-.641.379c.303.304.523.656.659 1.06.136.401.202.806.2 1.21.006.701-.214 1.36-.662 1.97-.448.615-1.16.943-2.14.984-.931-.034-1.63-.339-2.09-.915a3.016 3.016 0 0 1-.689-1.93c.005-.863.249-1.59.732-2.17.482-.587 1.17-.893 2.07-.916.278 0 .532.029.763.084.231.056.439.133.626.234l.122.01.128.002c.093.006.228-.026.405-.096.177-.07.275-.214.296-.433a.253.253 0 0 0-.116-.206.574.574 0 0 0-.254-.097c-.223-.026-.385-.097-.485-.213a.558.558 0 0 1-.149-.381.479.479 0 0 1 .16-.377c.105-.09.255-.137.448-.139zM43.8 3.42c1.01.038 1.73.362 2.15.971.425.609.632 1.28.619 2 .006.701-.214 1.36-.662 1.97-.448.615-1.16.943-2.14.984-.931-.034-1.63-.339-2.09-.915a3.016 3.016 0 0 1-.689-1.93c.005-.863.249-1.59.732-2.17.482-.587 1.17-.893 2.07-.916zm-33.7 0c.505-.024.958.113 1.36.413.368.274.576.807.626 1.6l.01.222v1.97c-.01.313.013.576.07.789.058.214.21.324.458.334.134-.009.227-.044.28-.106.053-.062.096-.097.129-.106.03.004.065.03.106.078.04.048.062.097.066.147-.007.053-.113.16-.32.322-.205.16-.473.252-.803.272-.346-.015-.594-.108-.743-.28a1.263 1.263 0 0 1-.247-.393l-.027-.094h-.026l-.264.211c-.276.22-.513.368-.71.446-.197.078-.44.114-.73.11-.474.005-.867-.103-1.18-.323-.312-.22-.474-.589-.485-1.1.011-.453.216-.845.614-1.18.34-.284.773-.505 1.3-.665l.269-.074 1.14-.277c.02-.007.038-.023.054-.05a.222.222 0 0 0 .025-.109c-.017-.725-.14-1.2-.367-1.42-.195-.189-.396-.29-.601-.3L10 3.857a2.01 2.01 0 0 0-.736.124c-.226.085-.346.23-.36.431l.004.124a.901.901 0 0 0 .004.047l.012.07a.214.214 0 0 0 .006.023.374.374 0 0 1 .03.104c.007.042.01.086.01.134 0 .093-.05.187-.147.282-.098.095-.242.146-.434.154-.152 0-.267-.037-.345-.112-.078-.076-.117-.192-.117-.35.023-.373.251-.707.684-1a2.753 2.753 0 0 1 1.5-.466zm58.3 0c.505-.024.958.113 1.36.413.368.274.576.807.626 1.6l.01.222v1.97c-.01.313.013.576.07.789.058.214.21.324.458.334.134-.009.227-.044.28-.106.053-.062.096-.097.129-.106.03.004.065.03.106.078.04.048.062.097.066.147-.007.053-.113.16-.32.322-.205.16-.473.252-.803.272-.346-.015-.594-.108-.743-.28a1.263 1.263 0 0 1-.247-.393l-.027-.094h-.026l-.264.211c-.276.22-.513.368-.71.446-.197.078-.44.114-.73.11-.474.005-.867-.103-1.18-.323-.312-.22-.474-.589-.485-1.1.011-.453.216-.845.614-1.18.34-.284.773-.505 1.3-.665l.269-.074 1.14-.277c.02-.007.038-.023.054-.05a.222.222 0 0 0 .025-.109c-.017-.725-.14-1.2-.367-1.42-.195-.189-.396-.29-.601-.3l-.103.001a2.01 2.01 0 0 0-.736.124c-.226.085-.346.23-.36.431l.004.124.004.047a.464.464 0 0 0 .018.093.374.374 0 0 1 .03.104c.007.042.01.087.01.134 0 .093-.05.187-.147.282-.098.095-.242.146-.434.154-.152 0-.267-.037-.345-.112-.078-.076-.117-.192-.117-.35.023-.373.25-.707.684-1a2.753 2.753 0 0 1 1.5-.466zm-10.9-1.9c.117-.002.174.042.172.132l-.026.372-.014.275c-.005.153-.009.331-.011.532l-.002.724h1.59c.051 0 .084.015.098.045l.008.034v.264c-.005.06-.042.103-.11.13a.543.543 0 0 1-.137.037l-.07.004h-1.37v3.34c-.005.41.023.714.083.915.06.201.178.301.352.301a1.783 1.783 0 0 0 1.084-.37c.132.014.211.089.238.226a2.692 2.692 0 0 1-.857.654 2.17 2.17 0 0 1-.926.218c-.308.004-.554-.097-.736-.302-.16-.18-.252-.46-.275-.837l-.005-.168v-3.98h-.78c-.025 0-.043-.004-.052-.015a.066.066 0 0 1-.012-.036l-.001-.2a.312.312 0 0 1 .05-.172.188.188 0 0 1 .124-.084l.063-.009h.608l-.003-1.06a5.227 5.227 0 0 0-.023-.462c-.001-.044.019-.078.06-.1l.124-.067.766-.348zm-41.4 1.9c.639.007 1.13.125 1.49.355.352.23.53.53.535.9-.01.203-.083.351-.22.444a.74.74 0 0 1-.428.137.501.501 0 0 1-.34-.104c-.087-.072-.141-.196-.162-.372a1.284 1.284 0 0 0-.197-.636c-.118-.183-.365-.28-.741-.289-.444.006-.804.212-1.08.618s-.418.975-.426 1.71c.013.781.188 1.4.523 1.84.335.446.751.674 1.25.682.287 0 .566-.073.837-.218a2.38 2.38 0 0 0 .748-.654c.06.006.115.024.163.053.049.029.087.073.114.132-.329.53-.672.887-1.03 1.07a2.25 2.25 0 0 1-1.13.26c-.837-.013-1.48-.28-1.93-.8-.451-.52-.679-1.21-.684-2.08.031-.948.319-1.69.864-2.23.545-.538 1.16-.812 1.84-.822zm46.4 0c1.01.038 1.73.362 2.15.971.425.609.632 1.28.619 2 .006.701-.214 1.36-.662 1.97-.448.615-1.16.943-2.14.984-.931-.034-1.63-.339-2.09-.915a3.016 3.016 0 0 1-.689-1.93c.005-.863.249-1.59.732-2.17.482-.587 1.17-.893 2.07-.916zm20.4-1.9c.117-.002.174.042.172.132l-.026.372-.014.275c-.005.153-.009.331-.011.532l-.002.209v.515h1.59c.051 0 .084.015.098.045l.008.034v.264c-.005.06-.042.103-.11.13a.543.543 0 0 1-.137.037l-.07.004h-1.37v3.34c-.005.41.023.714.083.915.06.201.178.301.352.301a1.783 1.783 0 0 0 1.085-.37c.131.014.21.089.237.226a2.692 2.692 0 0 1-.856.654 2.17 2.17 0 0 1-.927.218c-.307.004-.553-.097-.735-.302-.16-.18-.253-.46-.276-.837l-.005-.168v-3.98h-.78c-.025 0-.043-.004-.052-.015a.066.066 0 0 1-.012-.036l-.001-.2a.312.312 0 0 1 .05-.172.188.188 0 0 1 .124-.084l.063-.009h.608l-.003-1.06a5.227 5.227 0 0 0-.023-.462c-.001-.044.019-.078.06-.1l.124-.067.766-.348zM35.8 0c.117-.002.174.042.172.132l-.025.372a12.84 12.84 0 0 0-.018.437l-.01.579-.01 2.97c.002.084.018.113.048.088a.59.59 0 0 0 .081-.088c.402-.438.783-.728 1.14-.872.36-.144.701-.21 1.02-.198.234 0 .447.04.638.116.191.076.344.188.458.334.15.205.247.459.294.764.035.228.055.474.062.737v2.4c.005.424.06.696.166.816.12.135.36.208.72.22.033.048.05.121.05.218s-.017.17-.05.218l-.71-.018c-.2-.005-.43-.008-.69-.008l-.463.003-.884.023a.388.388 0 0 1-.05-.218c0-.097.017-.17.05-.218.335-.011.557-.085.667-.22.098-.12.15-.392.153-.816v-2.17a4.274 4.274 0 0 0-.03-.559 1.442 1.442 0 0 0-.13-.458.922.922 0 0 0-.305-.351.716.716 0 0 0-.394-.124c-.264.002-.534.07-.813.205a3.066 3.066 0 0 0-.8.574.875.875 0 0 0-.151.217.682.682 0 0 0-.067.241l-.006.099v2.33c.002.429.05.704.143.824.105.135.32.205.647.21.04.048.06.12.06.218 0 .097-.02.17-.06.218l-.962-.024a29.332 29.332 0 0 0-.343-.003l-.51.004-.94.023-.006-.007-.371-.006-.523-.012-.194-.002c-.195 0-.363.004-.505.009l-.406.018c-.025-.002-.041-.012-.049-.031l-.004-.035v-.211a.704.704 0 0 0-.053-.277 1.873 1.873 0 0 0-.179-.33l-.072-.106-.964-1.36c-.124-.182-.243-.308-.355-.376a.7.7 0 0 0-.287-.095l-.11-.005v1.36c.005.429.052.704.14.824.098.135.28.205.547.21.04.048.059.12.059.218 0 .097-.02.17-.06.218l-.64-.018a18.41 18.41 0 0 0-.561-.009l-.492.004-.921.023c-.04-.048-.06-.121-.06-.218 0-.098.02-.17.06-.218.36-.005.6-.075.72-.21.106-.12.16-.395.166-.824v-6.11c-.006-.427-.062-.685-.166-.775-.118-.1-.345-.147-.68-.14a.365.365 0 0 1-.08-.188.548.548 0 0 1 0-.208c.289-.024.622-.072 1-.144s.662-.143.85-.213c.117-.002.174.042.172.132l-.027.372-.013.275c-.005.153-.01.33-.011.532l-.002 4.77c.181-.058.422-.216.723-.477.301-.26.628-.584.981-.97a.824.824 0 0 0 .233-.374c.054-.163-.102-.263-.471-.3-.04-.048-.06-.121-.06-.218 0-.098.02-.17.06-.218l.882.024.495.002.987-.026c.04.048.06.12.06.218 0 .097-.02.17-.06.218-.325.01-.601.06-.827.148-.181.07-.351.177-.509.32l-.117.113-1 1.11a.17.17 0 0 0-.053.132.316.316 0 0 0 .031.128l.035.057 1.55 2.29c.151.215.322.357.513.425s.4.112.624.13l.006.007c.377-.012.627-.082.752-.217.11-.12.169-.395.174-.824V1.84c.007-.528-.048-.842-.166-.943-.118-.1-.345-.147-.68-.14a.365.365 0 0 1-.08-.188.548.548 0 0 1 0-.208c.289-.024.622-.072 1-.144s.662-.143.85-.213zm67.3 3.38c.106.002.159.037.159.106l-.032.353a9.236 9.236 0 0 0-.031.651c.002.084.018.113.047.087a.664.664 0 0 0 .082-.087c.287-.31.585-.565.895-.763.31-.198.654-.3 1.03-.307.348.007.638.1.871.282.233.181.383.411.45.688.015.053.038.073.068.061a.195.195 0 0 0 .077-.056c.346-.359.698-.612 1.05-.76.357-.148.705-.22 1.05-.215.566.014.943.217 1.13.61.16.335.246.748.258 1.24v2.34c-.01.52.04.85.15.987.11.138.342.21.695.215.033.048.05.121.05.218 0 .098-.017.17-.05.218l-.999-.024-.603-.001-1.11.025a.388.388 0 0 1-.05-.218c0-.097.017-.17.05-.218.335-.005.557-.077.667-.215.098-.122.15-.396.153-.82v-2.49c-.003-.437-.077-.744-.222-.92-.145-.178-.344-.263-.598-.257a1.773 1.773 0 0 0-.788.173c-.27.123-.562.356-.877.7l.008.122.006.267v2.24c-.009.521.039.85.142.988.103.138.316.21.637.215.033.048.05.121.05.218 0 .098-.017.17-.05.218l-.944-.024-.593-.001-1.11.025a.388.388 0 0 1-.05-.218c0-.097.017-.17.05-.218.346-.005.572-.077.677-.215.093-.122.141-.396.143-.82l-.001-2.47c-.005-.438-.088-.749-.248-.934a.764.764 0 0 0-.624-.269c-.202 0-.412.067-.631.198-.175.105-.363.25-.564.435l-.153.146a.867.867 0 0 0-.153.216.678.678 0 0 0-.067.24l-.006.099v2.17c-.01.52.039.847.143.983.105.135.32.208.647.22.04.047.06.12.06.218 0 .097-.02.17-.06.218l-.962-.025h-.73l-1.04.025c-.04-.048-.06-.121-.06-.218 0-.098.02-.17.06-.218.355-.006.596-.078.722-.215.112-.122.17-.396.177-.821v-2.89c-.008-.284-.06-.471-.16-.561-.114-.106-.348-.168-.698-.187a.978.978 0 0 1-.033-.185.55.55 0 0 1 .007-.185l.503-.072c.232-.036.435-.073.609-.11.29-.062.527-.129.711-.201zM86.7 0c.117-.002.174.042.172.132l-.025.372-.018.437-.01.579-.01 2.97c.002.084.018.113.048.088a.59.59 0 0 0 .081-.088c.402-.438.783-.728 1.14-.872.36-.144.701-.21 1.02-.198.234 0 .447.04.638.116.191.076.344.188.458.334.15.205.247.459.294.764.035.228.055.474.062.737l.001 2.24c-.01.52.046.847.165.983.119.135.359.208.72.22.033.048.05.121.05.218s-.017.17-.05.218l-.71-.018c-.2-.005-.43-.008-.69-.008l-.463.003-.884.023a.388.388 0 0 1-.05-.218c0-.097.017-.17.05-.218.335-.011.557-.085.667-.22.098-.12.149-.392.153-.816v-2.17a4.274 4.274 0 0 0-.03-.559 1.442 1.442 0 0 0-.13-.458.922.922 0 0 0-.305-.351.716.716 0 0 0-.394-.124c-.264.002-.534.07-.813.205a3.066 3.066 0 0 0-.8.574.875.875 0 0 0-.151.217.682.682 0 0 0-.067.241l-.006.099v2.17c-.01.527.039.857.143.992.105.135.32.205.647.21.04.048.06.12.06.218 0 .097-.02.17-.06.218l-.962-.024a29.332 29.332 0 0 0-.343-.003l-.51.004-.941.023c-.04-.048-.06-.121-.06-.218 0-.098.02-.17.06-.218.374-.005.623-.075.748-.21.11-.12.169-.395.174-.824V1.68c-.006-.427-.061-.685-.166-.775-.118-.1-.345-.147-.68-.14a.365.365 0 0 1-.079-.188.548.548 0 0 1 0-.208c.288-.024.621-.072 1-.144.377-.072.661-.143.85-.213zM20.2 0c.117-.002.174.042.172.132l-.025.372-.018.437-.01.579-.01 2.97c.002.084.018.113.048.088a.59.59 0 0 0 .081-.088c.402-.438.783-.728 1.14-.872.36-.144.701-.21 1.02-.198.234 0 .447.04.638.116.191.076.344.188.458.334.15.205.247.459.294.764.035.228.055.474.062.737l.001 2.24c-.01.52.046.847.165.983.119.135.359.208.72.22.033.048.05.121.05.218s-.017.17-.05.218l-.71-.018c-.2-.005-.43-.008-.69-.008l-.463.003-.884.023a.388.388 0 0 1-.05-.218c0-.097.017-.17.05-.218.335-.011.557-.085.667-.22.098-.12.149-.392.153-.816v-2.17a4.274 4.274 0 0 0-.03-.559 1.442 1.442 0 0 0-.13-.458.922.922 0 0 0-.305-.351.716.716 0 0 0-.394-.124c-.264.002-.534.07-.813.205a3.066 3.066 0 0 0-.8.574.875.875 0 0 0-.151.217.682.682 0 0 0-.067.241l-.006.099v2.17c-.01.527.039.857.143.992.105.135.32.205.647.21.04.048.06.12.06.218 0 .097-.02.17-.06.218l-.962-.024a29.332 29.332 0 0 0-.343-.003l-.51.004-.941.023c-.04-.048-.06-.121-.06-.218 0-.098.02-.17.06-.218.374-.005.623-.075.748-.21.11-.12.169-.395.174-.824V1.68c-.006-.427-.061-.685-.166-.775-.118-.1-.345-.147-.68-.14a.365.365 0 0 1-.079-.188.548.548 0 0 1 0-.208c.288-.024.621-.072 1-.144.377-.072.661-.143.85-.213zM3.4.674c1.19.03 1.97.258 2.34.685.368.427.534.877.499 1.35-.01.365-.137.701-.379 1.01a2.631 2.631 0 0 1-.677.61l-.199.112v.026c.588.162 1.07.432 1.45.811.378.378.573.883.586 1.51.026.6-.201 1.15-.679 1.65-.478.504-1.36.771-2.65.803l-.985-.008-.207-.005a24.174 24.174 0 0 0-.736-.013l-.462.002-1.26.024c-.04-.048-.06-.12-.06-.218 0-.097.02-.17.06-.218.452.001.76-.067.921-.205.144-.122.22-.399.228-.829v-5.63c-.008-.43-.084-.707-.228-.829C.8 1.174.493 1.106.041 1.107c-.04-.048-.06-.12-.06-.218 0-.097.02-.17.06-.218l1.25.024c.142.002.293.003.452.003l.433-.004.974-.02.244-.003zm70 2.71c.106.002.159.037.159.106l-.033.353c-.02.219-.03.435-.033.651.003.084.02.114.051.09a.38.38 0 0 0 .081-.09c.4-.438.767-.728 1.1-.872.336-.144.664-.21.984-.198.234 0 .446.04.637.116.191.076.344.188.46.334.147.208.244.463.291.766.035.227.056.473.063.735l.001.269v2.13c.004.424.06.696.166.816.119.135.359.208.72.22.033.048.05.121.05.218s-.017.17-.05.218l-.71-.018c-.2-.005-.43-.008-.69-.008l-.463.003-.884.023a.388.388 0 0 1-.05-.218c0-.097.017-.17.05-.218.335-.011.557-.085.667-.22.098-.12.149-.392.153-.816l-.001-2.17a4.259 4.259 0 0 0-.03-.558 1.456 1.456 0 0 0-.129-.459.948.948 0 0 0-.31-.352.712.712 0 0 0-.39-.124c-.258.002-.515.07-.77.206-.257.136-.51.327-.762.573a.938.938 0 0 0-.152.218.666.666 0 0 0-.066.239l-.006.098v2.17c-.01.52.038.847.144.983.105.135.32.208.649.22.04.048.059.121.059.218s-.02.17-.06.218l-.963-.024a29.51 29.51 0 0 0-.344-.002l-.511.003-.942.023c-.04-.048-.06-.12-.06-.218 0-.097.02-.17.06-.218.385-.011.639-.084.76-.22.108-.12.163-.392.166-.816l-.002-2.89c-.007-.284-.061-.47-.162-.562-.117-.106-.349-.168-.697-.187a.946.946 0 0 1-.033-.185.539.539 0 0 1 .007-.185l.504-.071c.233-.037.436-.073.61-.11a4.5 4.5 0 0 0 .709-.201zm40.7.476c-.549.026-.941.274-1.18.745-.235.47-.35 1.01-.343 1.61-.002.354.058.738.181 1.15.123.416.322.775.598 1.08.276.303.641.461 1.1.476.331.021.646-.111.946-.396.3-.286.46-.854.481-1.7-.003-.973-.159-1.71-.466-2.21-.307-.499-.746-.749-1.32-.751zm-51.7 0c-.549.026-.941.274-1.18.745-.235.47-.35 1.01-.343 1.61-.002.354.058.738.181 1.15.123.416.322.775.598 1.08.276.303.641.461 1.1.476.331.021.646-.111.946-.396.3-.286.46-.854.481-1.7-.003-.973-.159-1.71-.466-2.21-.307-.499-.746-.749-1.32-.751zm-18.8 0c-.549.026-.941.274-1.18.745-.235.47-.35 1.01-.343 1.61-.002.354.058.738.181 1.15.123.416.322.775.598 1.08.276.303.641.461 1.1.476.331.021.646-.111.946-.396.3-.286.46-.854.481-1.7-.003-.973-.159-1.71-.466-2.21-.276-.449-.66-.697-1.15-.743l-.167-.008zm25.7 2.29-1.04.277c-.479.137-.81.337-.993.601a1.393 1.393 0 0 0-.262.852.986.986 0 0 0 .228.623c.154.197.395.302.723.315.189-.006.386-.066.591-.18a3.95 3.95 0 0 0 .391-.248l.181-.14a.495.495 0 0 0 .132-.137.331.331 0 0 0 .046-.127l.007-.08v-1.76zm-18.8 0-1.04.277c-.479.137-.81.337-.993.601a1.393 1.393 0 0 0-.262.852.986.986 0 0 0 .228.623c.154.197.395.302.723.315.189-.006.386-.066.591-.18a3.95 3.95 0 0 0 .391-.248l.181-.14a.495.495 0 0 0 .132-.137.331.331 0 0 0 .046-.127l.007-.08v-1.76zm-39.5 0-1.04.277c-.479.137-.81.337-.993.601a1.393 1.393 0 0 0-.262.852.986.986 0 0 0 .228.623c.154.197.395.302.723.315.189-.006.386-.066.591-.18a3.95 3.95 0 0 0 .391-.248l.181-.14a.495.495 0 0 0 .132-.137.331.331 0 0 0 .046-.127l.007-.08v-1.76zM3.15 4.84h-.912v3.09a.848.848 0 0 0 .201.606c.146.176.445.27.895.279.978-.014 1.62-.188 1.94-.523.317-.335.462-.751.436-1.25.006-.612-.195-1.13-.603-1.55-.371-.382-.945-.598-1.72-.647l-.239-.01zm.238-3.71-.335.004c-.354.012-.577.051-.67.116-.1.07-.15.185-.15.346l.006.102v2.69h.978c.558.007 1.01-.106 1.35-.339.342-.233.517-.626.527-1.18-.025-.662-.216-1.12-.575-1.38-.358-.256-.735-.378-1.13-.367zm111-.581c.357.018.604.118.741.299s.203.337.197.467a.644.644 0 0 1-.125.363 2.238 2.238 0 0 1-.179.218l-.105.106a1.248 1.248 0 0 0-.266.34 1.04 1.04 0 0 0-.102.316l-.015.123h-.37c.01-.223.05-.411.116-.566a2.5 2.5 0 0 1 .14-.28l.075-.118c.053-.08.095-.159.126-.238a.676.676 0 0 0 .046-.238c.002-.151-.028-.262-.087-.332-.06-.07-.158-.105-.296-.104-.123.002-.207.018-.253.048-.046.03-.067.062-.065.097a.21.21 0 0 0 .008.063l.05.13c.013.038.02.084.021.137a.268.268 0 0 1-.1.193.308.308 0 0 1-.19.084c-.126-.005-.216-.044-.273-.119a.379.379 0 0 1-.084-.238c.007-.159.102-.32.287-.485.185-.165.42-.254.703-.268zm-46.2-.211c.034 0 .069.003.104.008l.094.018.925 1.66a.639.639 0 0 1 .08.317c-.002.035-.022.068-.06.098a.232.232 0 0 1-.139.048c-.037.001-.085-.018-.142-.058a1.782 1.782 0 0 1-.168-.14L67.302.78l.026-.144c.054-.047.154-.108.301-.182.146-.074.332-.114.558-.122zm-57.3.002.051-.002a.99.99 0 0 1 .281.043c.104.025.214.08.33.166l.116.095.04.145-1.52 1.44a1.343 1.343 0 0 1-.238.2.299.299 0 0 1-.16.05.193.193 0 0 1-.126-.05.165.165 0 0 1-.058-.121.39.39 0 0 1 .035-.177l.029-.054 1.09-1.71.036-.01.098-.014z" fill="#000" fill-rule="nonzero"/></svg>