<svg xmlns="http://www.w3.org/2000/svg" width="146" height="44" fill="none"><path fill="#fff" d="M0 0h146v44H0z"/><path fill="#555" d="M47.078 2.358c-.036.141-.285.775-.393 1.092-.035.07-.142.21-.25.387-.07.14-.035.387-.107.528-.143.352-.321.95-.571 1.478-.178.423-.428.986-.571 1.443-.107.388-.429.986-.572 1.338-.035.14-.035.387-.107.528-.107.282-.285.669-.428 1.02-.286.74-.465 1.514-.822 2.254-.107.14-.285.352-.392.563-.143.317-.429.985-.715 1.197-.035.07 0 .21-.07.387-.108.105-.25.211-.394.352 0 .211 0 .387-.035.598-.108.106-.358.317-.393.493-.179.563-.322 1.373-.5 1.866-.143.387-.536.915-.5 1.302-.036.035-.143.106-.179.176-.071.211-.071.493-.142.81-.107.316-.322.739-.429 1.09-.036.036-.107.036-.178.106-.072.67-.572 1.338-.822 2.042-.143.352-.178.88-.321 1.267-.036.176-.214.387-.286.599-.357 1.161-.75 2.358-1.107 3.555-.178.528-.25 1.232-.464 1.9-.25.74-.464 1.55-.714 2.465-.072.176-.286.528-.322.668-.035.141.036.704 0 1.021 0 .176-.142.493-.214.74-.035.351 0 .809-.071 1.161-.036.246-.179.528-.25.845-.036.07.036.176.036.352s-.215.528-.25.739c-.072.282-.072.598-.108.88-.035.176.072.387 0 .598-.107.423-.285 1.056-.285 1.479 0 .14.071.281.036.457-.072.247-.5.986-.608 1.092a.875.875 0 0 1-.5.316c-.32.07-.82.106-1.25.212-.142.035-.606.246-.749.246a.326.326 0 0 1-.25-.106c-.071-.07-.25.036-.393.036-.214 0-.464-.458-.428-.74.035-.14.392-.844.535-1.232.357-1.161 1.179-3.484 1.214-3.696.036-.035-.285-1.795-.357-2.252-.035-.212.072-.704.036-1.056-.071-.704-.071-1.268-.107-1.76-.107-.845-.357-1.69-.464-2.535-.25-1.69-.536-3.097-.5-4.646.035-.317-.107-1.021-.179-1.549 0-.035.072-.246.072-.352-.072-.422-.179-.986.035-1.514-.035-.035-.178-.035-.214-.21-.036-.494-.107-1.092-.071-1.69.035-.282.071-.81.214-1.197-.036-.07-.071-.141-.071-.211.142-1.303.285-2.64.285-3.696 0-.493.286-1.83.357-2.605.107-1.408.036-4.119.072-4.295.035-.176.214-.598.357-.915.964-.563 1.25-1.549 2.142-1.549.607 0 .465.564.822 1.408 0 .247-.179.564-.143.74.035.246.178.563.214.81.036.14-.214.562-.214.774.035 1.09-.25 1.724-.393 2.499-.179 1.126-.393 2.253-.5 3.309-.036.316.107.88.036 1.372a21.676 21.676 0 0 0-.25 5.456c.035.564-.036 1.55.035 2.148.072.598.286 1.619.393 2.428.036.423.357 3.59.536 3.59.5 0 1.357-1.97 1.428-2.217.036-.14.072-.81.179-1.267.035-.317.214-.74.285-1.126 0-.07-.071-.036-.035-.212.035-.176.392-1.02.607-1.654.107-.387.285-.88.357-1.302 0-.141-.036-.352.036-.528.035-.176.357-.564.464-.88.321-.845.642-2.077 1-3.133.071-.176.321-.387.464-.669.285-.563.357-1.232.535-1.9.036-.071.215-.177.322-.318.071-.14.071-.281.143-.422.071-.176.321-.422.392-.669.179-.598.429-1.267.608-1.865 0 0 .32 0 .357.07-.072.211-.286.598-.357.845-.108.352-.072.81-.215 1.197-.107.246-.357.598-.464.88-.071.176-.071.492-.143.739-.143.598-.857 2.253-1.143 3.097-.07.141-.035.282-.035.423-.143 1.02-.357.774-.429 1.197-.214.739-.607 2.041-.642 2.217-.036.176 0 .282-.036.423 0 .633-.286 1.126-.143 1.69.393-.74.857-2.148 1.214-2.993.393-.95.643-2.006 1.036-3.027.071-.211.285-.422.357-.669.178-.598.25-1.197.464-1.795.143-.317.5-1.02.607-1.478.071-.07.178-.07.25-.141.036-.07.107-.176.143-.317.035-.176.035-.387-.036-.493 0-.14.179-.352.214-.493.036-.246.036-.704.143-1.056 0-.07-.071-.21-.036-.352.25-1.267.715-3.696.786-3.872.036-.176.357-1.232.536-1.9.071-.352.142-.775.285-1.127.179-.528.536-1.091.715-1.69.214-.774.928-1.9 1.32-2.78C45.9.845 46.544 0 46.9 0c.142 0 .25.07.321.211.072.247.072.528.107.845 0 .211-.143.563-.214.845-.036.14.036.246-.036.457ZM50.222 16.614c-.5.458-1.035.81-1.642.916-.536.07-.964-.67-.786-1.056.322-.67 1.179-1.268 1.964-1.268l.107.388c.215.281.857.598.357 1.02ZM48.83 26.682c.321-.07-.107.81-.393 1.056-.857.739-2.035 1.724-3.035 1.196-.893-.457.393-3.73-3.071-.739-1.107.95 1.285-2.077 1.964-3.238.143-.247.428-.387.536-.74.25-.703.464-.985.785-1.654.357-.739 1.321-1.337 2.143-1.513l.178.316c-.321 1.338-1.035 2.64-1.035 4.048v1.444c-.036.528.178.844.535.81.607-.036.75-.775 1.393-.986Z"/><path fill="#555" d="M60.828 17.952c.036.774-1.285.88-1.892 1.302-1.643 1.127-3.607 2.007-4.82 3.168-1.036.95-.108 2.57.535 3.59.857 1.303 2.5 1.69 4.106 1.374.072-.036.143-.106.25-.106.107 0 .036.458-.143.563-.928.528-2.035.704-3.106.81-1.75.176-2.571-1.267-3.75-2.183-.357-.281-.285.388-.32.74-.072.915-.43 1.478-.715 2.499-.214.739-1.785 1.584-2 .88-.428-1.267 1.072-2.535.643-3.731-.214-.564-.964 1.372-1.321.88-.75-.95 1.107-1.55 1.642-2.464.857-1.479 1.357-2.922 2.036-4.365.321-.634.678-1.232.892-1.901.536-1.584 1-3.133 1.822-4.646.321-.599 1.285-.986 1.964-.81l.071.07c-.893 2.007-1.678 4.084-2.535 6.09-.286.634-1.214 1.9-.536 2.006.964.176 2.464-1.161 3.57-1.936.68-.492 1.215-.81 1.893-1.267.465-.317 1.714-1.091 1.714-.563Z"/><path fill="#555" d="M66.089 16.614c-.5.458-1.036.81-1.643.916-.535.07-.964-.67-.785-1.056.321-.67 1.178-1.268 1.964-1.268l.107.388c.214.281.857.598.357 1.02Zm-1.393 10.068c.322-.07-.107.81-.392 1.056-.858.739-2.036 1.724-3.036 1.196-.892-.457.393-3.73-3.07-.739-1.108.95 1.285-2.077 1.963-3.238.143-.247.429-.387.536-.74.25-.703.464-.985.786-1.654.357-.739 1.32-1.337 2.142-1.513l.179.316c-.322 1.338-1.036 2.64-1.036 4.048v1.444c-.036.528.179.844.536.81.607-.036.75-.775 1.392-.986Z"/><path fill="#555" d="M75.631 18.902c.536-.176.143 1.55-.357 2.112-.678.704-1.535 1.514-1.964 2.43-.214.457-.893.774-.857 1.337.072.633.357 1.373-.107 1.9-.786.916-1.821 1.901-2.964 1.831-.428-.035-1.178 0-1.142-.669.07-1.091 1.928-1.302 1.856-2.358-.035-.775-.285-1.514-.607-2.218-.142-.317-.464-.176-.607 0a11.49 11.49 0 0 0-.607.775c-.857 1.232-2.178 2.393-3.464 2.71-.392.106.786-1.056 1.143-1.267 1.857-1.021 3.035-2.781 3.785-4.541.643-1.549 1.107-3.309 2.821-4.154.714-.352 2.107-1.69 2.214-.528.036.564-.607 1.092-1.214 1.338-1 .422-1.678 1.478-1.821 2.429-.036.317.107.81.036 1.232-.072.633-.036.915 0 1.408.035.211.321.493.5.317.785-.599 1.392-1.162 1.892-1.972.464-.704.678-1.83 1.464-2.112ZM81.258 16.614c-.5.458-1.036.81-1.643.916-.535.07-.964-.67-.785-1.056.321-.67 1.178-1.268 1.964-1.268l.107.388c.214.281.857.598.357 1.02Zm-1.393 10.068c.322-.07-.107.81-.392 1.056-.858.739-2.036 1.724-3.036 1.196-.892-.457.393-3.73-3.07-.739-1.108.95 1.285-2.077 1.963-3.238.143-.247.429-.387.536-.74.25-.703.464-.985.786-1.654.357-.739 1.32-1.337 2.142-1.513l.179.316c-.322 1.338-1.036 2.64-1.036 4.048v1.444c-.036.528.179.844.536.81.607-.036.75-.775 1.392-.986Z"/><path fill="#555" d="M97.584 10.173c.25.07-.5.633-.75.774-1.678 1.232-4.142.282-5.928 1.197-.75.387-.642 1.443-.892 2.218-.286.844-.643 1.69-.929 2.57-.428 1.442-.785 2.815-1.32 4.188-.75 2.042-1.43 4.294-1.786 6.3-.036.318-.036.81.428.705 1.214-.282 2.107-1.584 2.892-2.605.572-.704 1.036-3.027 1.607-2.288 1.143 1.478-1.428 2.64-2.32 3.942-.608.88-1.536 1.69-2.5 2.112-.429.176-.929.74-1.393.493-.964-.493-.321-1.865-.107-2.851.321-1.443.786-2.851 1.25-4.224.25-.774.785-1.76.178-2.218-.464-.316-.607.845-.928 1.197-.357.387-.429.95-.786 1.338-.964 1.02-1.892 2.147-3.035 2.992-.928.669-.785.669-2.392 1.654h-.179c.464-1.232 2.5-1.619 4.678-4.893 1.214-1.83 2-3.73 3.07-5.667.43-.739.644-1.513.965-2.288.214-.457.464-.81.607-1.267.143-.352.179-.704.428-1.02.18-.177 0-.494-.178-.494-1.25.106-2.642.212-3.75-.21-.142-.071-.25-.282-.106-.494.464-.492.82-1.478 1.535-1.478 1 0 2 .95 3.035.634 1.107-.352.607-1.936 1.821-2.676.464-.281 1.429-.88 1.393-.246-.071.81-.857 1.478-.714 2.288.071.528 1 .352 1.535.387.5 0 .857-.035 1.428 0 .965.07 2.214-.352 3.143-.07Z"/><path fill="#555" d="M97.012 27.174c-.929.704-2.071 1.62-3.214 1.197-.536-.176-.821-.915-.928-1.513-.036-.176-.286 0-.429.105-.928.845-1.607 1.936-2.857 2.323-.392.141-.928.07-1-.316-.07-.493.108-1.092.322-1.584.25-.528.464-1.021.678-1.55.357-.809.643-1.618 1.143-2.322.643-.986 1.464-1.76 2.535-2.218.465-.176.536.352.465.669-.179.845-.608 2.006-1.465 2.217-.5.106-.928.141-1.142.528-.286.528-.464 1.092-.643 1.725-.107.493-.428 1.267 0 1.338 1.143.176 1.571-1.443 2.142-2.253.429-.598.715-1.232 1.072-1.83v-.247c.571-.457.964-1.267 1.714-1.197.464.07-.179.67-.215 1.056-.035 1.162-.678 2.183-.25 3.204.18.422.858.387 1.322.281.25-.105.464-.281.75-.281.25 0 .178.528 0 .668Z"/><path fill="#555" d="M114.95 10.173c.25.07-.5.633-.75.774-1.678 1.232-4.142.282-5.928 1.197-.75.387-.642 1.443-.892 2.218-.286.844-.643 1.69-.929 2.57-.428 1.442-.785 2.815-1.321 4.188-.75 2.042-1.428 4.294-1.785 6.3-.036.318-.036.81.428.705 1.214-.282 2.107-1.584 2.892-2.605.572-.704 1.036-3.027 1.607-2.288 1.143 1.478-1.428 2.64-2.321 3.942-.607.88-1.535 1.69-2.499 2.112-.429.176-.929.74-1.393.493-.964-.493-.321-1.865-.107-2.851.321-1.443.785-2.851 1.25-4.224.25-.774.785-1.76.178-2.218-.464-.316-.607.845-.928 1.197-.357.387-.429.95-.786 1.338-.964 1.02-1.892 2.147-3.035 2.992-.928.669-.785.669-2.392 1.654h-.179c.464-1.232 2.5-1.619 4.678-4.893 1.214-1.83 1.999-3.73 3.071-5.667.428-.739.642-1.513.964-2.288.214-.457.464-.81.607-1.267.143-.352.178-.704.428-1.02.179-.177 0-.494-.178-.494-1.25.106-2.643.212-3.749-.21-.143-.071-.25-.282-.108-.494.465-.492.822-1.478 1.536-1.478 1 0 1.999.95 3.035.634 1.107-.352.607-1.936 1.821-2.676.464-.281 1.428-.88 1.393-.246-.072.81-.857 1.478-.714 2.288.071.528.999.352 1.535.387.5 0 .857-.035 1.428 0 .964.07 2.214-.352 3.143-.07Z"/></svg>