<?xml version="1.0" encoding="UTF-8"?>
<svg width="120px" height="10px" viewBox="0 0 120 10" version="1.1" xmlns="http://www.w3.org/2000/svg" xmlns:xlink="http://www.w3.org/1999/xlink">
    <title>hyw-tagline</title>
    <g id="Page-1" stroke="none" stroke-width="1" fill="none" fill-rule="evenodd">
        <path d="M4.19229771,4.13356842 L4.09742889,4.61242942 C4.0914054,4.64254765 4.08839365,4.66513556 4.08839365,4.68019314 C4.08839365,4.72838046 4.10044048,4.78710887 4.12453415,4.85637835 C4.15163953,4.92263631 4.20133271,5.00395262 4.27361371,5.10032727 C4.3458947,5.19670193 4.44678692,5.31265221 4.57629035,5.44817811 C4.70880549,5.58069403 4.88047288,5.73730285 5.09129252,5.91800456 C5.16959685,5.77344258 5.22983101,5.61231649 5.271995,5.43462629 C5.31717051,5.25392458 5.33975826,5.05816375 5.33975826,4.8473438 C5.33975826,4.74795763 5.33072318,4.6410419 5.312653,4.5265966 C5.29759389,4.4091398 5.27500606,4.29469451 5.24488952,4.18326073 C5.21477251,4.0718285 5.17712618,3.96792505 5.13195052,3.8715504 C5.08677486,3.77517574 5.0370817,3.69687094 4.98287103,3.63663601 L4.98287103,0.88995828 L4.1200166,0.88995828 L4.1200166,0.406575381 L6.75827286,0.406575381 L6.75827286,0.88995828 L5.89541845,0.88995828 L5.89541845,4.85637835 C5.89541845,5.14550232 5.8622897,5.40601535 5.7960322,5.63791745 C5.73278622,5.869818 5.64243498,6.07913142 5.52497848,6.26585771 C5.63339997,6.34416173 5.73128046,6.41041969 5.81861995,6.46463159 C5.90595945,6.51583044 5.98426386,6.55648821 6.05353318,6.5866049 C6.12581417,6.6167216 6.18906,6.63780375 6.24327067,6.64985135 C6.30049316,6.66189433 6.3501864,6.66791582 6.39235039,6.66791582 L6.75827286,6.66791582 L6.75827286,7.1512964 L5.57918922,7.1512964 C5.50088474,7.1512964 5.40300417,7.13021425 5.28554752,7.08804995 C5.16809102,7.04287414 5.03858761,6.97661618 4.89703729,6.88927607 C4.68621772,7.02179199 4.45281033,7.11967241 4.19681514,7.18291731 C3.94081997,7.24917527 3.66826039,7.28230426 3.37913642,7.28230426 C3.02375487,7.28230426 2.69246698,7.23261117 2.38527276,7.133225 C2.08109024,7.03383882 1.81605994,6.88475957 1.59018184,6.68598722 C1.36430373,6.48420182 1.18661296,6.23121834 1.05710952,5.92703679 C0.927606068,5.6228537 0.862854342,5.26596601 0.862854342,4.85637372 L0.862854342,0.889953654 L0,0.889953654 L0,0.406575381 L2.63825624,0.406575381 L2.63825624,0.889953654 L1.77540188,0.889953654 L1.77540188,4.99190116 C1.77540188,5.57918365 1.90791703,6.02341068 2.17294734,6.32458226 C2.44098936,6.62274077 2.84305239,6.77182003 3.37913642,6.77182003 C3.79776383,6.77182003 4.15013367,6.69803328 4.43624594,6.55045978 C4.26156688,6.39083868 4.11549903,6.24778245 3.99804241,6.1212911 C3.8805858,5.99479974 3.78722286,5.87734294 3.71795356,5.76892068 C3.64868429,5.66049996 3.59899111,5.55810227 3.56887403,5.46172761 C3.53875695,5.36234144 3.52369841,5.26295527 3.52369841,5.1635691 C3.52369841,5.09731113 3.52821599,5.03105317 3.53725115,4.96479521 C3.54929798,4.89552573 3.56435652,4.82173898 3.58242677,4.74343496 L3.74054145,4.04321371 L4.19229766,4.13356379 L4.19229771,4.13356842 Z M13.7062833,8.5924013 L13.7062833,9.07578189 L10.8105261,9.07578189 L10.8105261,8.5924013 L11.2080715,8.5924013 L11.2080715,6.40138515 C11.0454394,6.70255518 10.8391374,6.92542119 10.5891656,7.06998318 C10.3391938,7.21153365 10.027482,7.28230888 9.6540302,7.28230888 C9.35587107,7.28230888 9.08331151,7.22056896 8.83635153,7.09708913 C8.59240321,6.97360929 8.38158365,6.80043637 8.20389284,6.57757036 C8.02620202,6.35169129 7.88766345,6.0836487 7.78827713,5.77344258 C7.69190247,5.463238 7.64371514,5.12140942 7.64371514,4.74795686 C7.64371514,4.37450583 7.69190247,4.03267726 7.78827713,3.72247114 C7.88766345,3.41226502 8.02620202,3.14572895 8.20389284,2.92286294 C8.38158365,2.69999539 8.59390905,2.5268217 8.84086903,2.40334186 C9.08782917,2.27986202 9.35888289,2.2181221 9.6540302,2.2181221 C10.027482,2.2181221 10.3391938,2.2904031 10.5891656,2.43496508 C10.8391374,2.57651555 11.0454394,2.7978758 11.2080715,3.09904584 L11.2080715,2.34913227 L12.8343939,2.34913227 L12.8343939,2.83251054 L12.039303,2.83251054 L12.039303,8.5924013 L13.7062833,8.5924013 L13.7062833,8.5924013 Z M11.2080715,4.51304479 C11.2080715,3.93479684 11.0981442,3.49508708 10.8782896,3.19391551 C10.6584349,2.88973242 10.3361821,2.73764087 9.91153118,2.73764087 C9.48386872,2.73764087 9.15258083,2.90629652 8.91766753,3.24360782 C8.68576605,3.58091912 8.56981531,4.0823688 8.56981531,4.74795686 C8.56981531,5.41354491 8.68576605,5.91650035 8.91766753,6.25682316 C9.14956916,6.59413446 9.48085705,6.76279011 9.91153118,6.76279011 C10.3361821,6.76279011 10.6584349,6.61220432 10.8782896,6.31103275 C11.0981442,6.00986272 11.2080715,5.56864797 11.2080715,4.98738851 L11.2080715,4.51304479 L11.2080715,4.51304479 Z M17.5281409,6.21616539 C17.2058881,6.92692772 16.711968,7.28230888 16.0463806,7.28230888 C15.5434253,7.28230888 15.1684677,7.12720582 14.9215077,6.8169997 C14.6745475,6.50378206 14.5510675,6.03244985 14.5510675,5.40300307 L14.5510675,2.82799327 L13.8011523,2.82799327 L13.8011523,2.34913227 L15.3822989,2.34913227 L15.3822989,5.30813571 C15.3822989,5.55509538 15.3988633,5.76591456 15.4319921,5.94059324 C15.4681326,6.11226041 15.5238492,6.25230512 15.5991419,6.36072738 C15.6744345,6.4691481 15.7708092,6.54745212 15.8882658,6.59563945 C16.0057225,6.64382678 16.1487786,6.66792044 16.3174343,6.66792044 C16.6908861,6.66792044 16.9739866,6.52938226 17.166736,6.25230589 C17.3594853,5.97221646 17.4558599,5.56262417 17.4558599,5.02352901 L17.4558599,2.82799327 L16.73305,2.82799327 L16.73305,2.34913227 L18.2870914,2.34913227 L18.2870914,5.33975662 C18.2870914,5.58069326 18.3036558,5.78548941 18.3367846,5.95414506 C18.3729251,6.12280071 18.4271358,6.25983391 18.4994168,6.36524465 C18.5747095,6.47065385 18.6710841,6.54745212 18.7885408,6.59563945 C18.9090091,6.64382678 19.0535711,6.66792044 19.2222268,6.66792044 C19.5956786,6.66792044 19.8787791,6.52938226 20.0715284,6.25230589 C20.2642777,5.97221646 20.3606524,5.56262417 20.3606524,5.02352901 L20.3606524,2.82799327 L19.6378425,2.82799327 L19.6378425,2.34913227 L21.1918838,2.34913227 L21.1918838,6.67695499 L21.9869747,6.67695499 L21.9869747,7.15130103 L20.3606524,7.15130103 L20.3606524,6.29748093 C20.2070552,6.6167216 20.0112942,6.86066976 19.7733692,7.02932541 C19.5354442,7.19798106 19.2658963,7.28230888 18.9647255,7.28230888 C18.5882621,7.28230888 18.2750444,7.19045227 18.0250726,7.00673904 C17.7781127,6.82302427 17.6124688,6.55949972 17.5281409,6.21616539 L17.5281409,6.21616539 Z M29.9469197,6.66792044 L30.6697296,6.66792044 L30.6697296,7.15130103 L28.3928783,7.15130103 L28.3928783,6.66792044 L29.1156882,6.66792044 L29.1156882,4.16067437 C29.1156882,3.91973772 29.0976176,3.71494158 29.0614763,3.54628593 C29.0283481,3.37763028 28.9741378,3.24059708 28.8988453,3.13518633 C28.8265643,3.02977713 28.7301896,2.95297886 28.6097213,2.90479154 C28.4922645,2.85660421 28.3492083,2.83251054 28.1805526,2.83251054 C27.8161361,2.83251054 27.5375532,2.9650257 27.3448039,3.230056 C27.1520546,3.49508631 27.0511619,3.88510221 27.0421258,4.40010371 L27.0421258,6.67243771 L27.8372167,6.67243771 L27.8372167,7.15130103 L26.2108944,7.15130103 L26.2108944,6.29748093 C26.0572979,6.6167216 25.861537,6.86066976 25.6236119,7.02932541 C25.3856871,7.19798106 25.1161393,7.28230888 24.8149685,7.28230888 C24.6282426,7.28230888 24.4445285,7.25369794 24.263826,7.19647607 C24.0831235,7.13925265 23.9219971,7.04137224 23.7804468,6.90283483 C23.6388965,6.76429587 23.5244516,6.57907534 23.4371121,6.34717325 C23.3497726,6.11527269 23.3061029,5.82614872 23.3061029,5.47980133 L23.3061029,2.83251054 L22.5832929,2.83251054 L22.5832929,2.34913227 L24.1373343,2.34913227 L24.1373343,5.33975662 C24.1373343,5.58069326 24.1538986,5.78548941 24.1870273,5.95414506 C24.2231678,6.12280071 24.2773785,6.25983391 24.3496595,6.36524465 C24.4249523,6.47065385 24.521327,6.54745212 24.6387835,6.59563945 C24.7592518,6.64382678 24.9038138,6.66792044 25.0724694,6.66792044 C25.4459208,6.66792044 25.7290211,6.52938226 25.9217704,6.25230589 C26.1145197,5.97221646 26.2108944,5.56262417 26.2108944,5.02352901 L26.2108944,2.82799327 L25.4158042,2.82799327 L25.4158042,2.34913227 L27.0421258,2.34913227 L27.0421258,3.20295005 C27.1957239,2.88370939 27.3914855,2.63976123 27.6294106,2.47110558 C27.8673342,2.30244993 28.1368818,2.2181221 28.4380534,2.2181221 C28.6247796,2.2181221 28.8084936,2.24673304 28.9891953,2.30395492 C29.1698986,2.36117833 29.3310255,2.45905952 29.4725759,2.59759847 C29.6141249,2.73613589 29.7285694,2.92135564 29.8159095,3.15325774 C29.9032496,3.38515984 29.9469197,3.67428381 29.9469197,4.02062965 L29.9469197,6.66792044 L29.9469197,6.66792044 Z M39.7500287,2.34913227 C38.97602,2.65331382 38.3179615,2.9288852 37.7758533,3.17584642 C37.2367581,3.42280609 36.7970491,3.6456721 36.4567263,3.84444444 C36.119415,4.04321679 35.8739603,4.219402 35.7203622,4.37300007 C35.5667657,4.5265966 35.4899674,4.66212327 35.4899674,4.77958008 C35.4899674,4.87595474 35.5381548,4.96178832 35.6345294,5.03708083 C35.7339156,5.11237334 35.8724546,5.1786313 36.0501463,5.23585471 L39.8900735,6.46463159 L39.8900735,7.76568947 L39.4066929,7.76568947 L39.4066929,7.24165111 L35.3634769,5.94962779 C35.0412231,5.8472301 34.7942627,5.72525602 34.6225955,5.58370555 C34.4509284,5.44215508 34.3650948,5.28102899 34.3650948,5.10032727 C34.3650948,4.93167162 34.4449053,4.7464511 34.6045264,4.5446657 C34.7671575,4.33987032 35.0186345,4.11851007 35.3589573,3.88058494 C35.6992816,3.64265981 36.1344741,3.38817058 36.6645347,3.11711724 C37.1945953,2.84305239 37.8285594,2.55242266 38.5664269,2.24522805 L37.4867293,0.406580007 L38.6070847,0.406580007 L39.7500287,2.34913227 L39.7500287,2.34913227 Z M44.5070225,6.21616539 C44.1847687,6.92692772 43.6908486,7.28230888 43.0252621,7.28230888 C42.5223067,7.28230888 42.1473483,7.12720582 41.9003871,6.8169997 C41.6534275,6.50378206 41.5299476,6.03244985 41.5299476,5.40300307 L41.5299476,2.82799327 L40.7800317,2.82799327 L40.7800317,2.34913227 L42.361179,2.34913227 L42.361179,5.30813571 C42.361179,5.55509538 42.3777439,5.76591456 42.4108737,5.94059324 C42.4470134,6.11226041 42.5027295,6.25230512 42.578022,6.36072738 C42.6533145,6.4691481 42.7496892,6.54745212 42.867146,6.59563945 C42.9846028,6.64382678 43.127659,6.66792044 43.2963147,6.66792044 C43.6697672,6.66792044 43.9528682,6.52938226 44.1456175,6.25230589 C44.3383668,5.97221646 44.4347415,5.56262417 44.4347415,5.02352901 L44.4347415,2.82799327 L43.7119315,2.82799327 L43.7119315,2.34913227 L45.2659729,2.34913227 L45.2659729,5.33975662 C45.2659729,5.58069326 45.282537,5.78548941 45.3156652,5.95414506 C45.3518049,6.12280071 45.4060153,6.25983391 45.4782963,6.36524465 C45.5535903,6.47065385 45.649965,6.54745212 45.7674203,6.59563945 C45.8878886,6.64382678 46.0324506,6.66792044 46.2011062,6.66792044 C46.5745588,6.66792044 46.8576597,6.52938226 47.050409,6.25230589 C47.2431584,5.97221646 47.339533,5.56262417 47.339533,5.02352901 L47.339533,2.82799327 L46.6167231,2.82799327 L46.6167231,2.34913227 L48.1707644,2.34913227 L48.1707644,6.67695499 L48.9658553,6.67695499 L48.9658553,7.15130103 L47.339533,7.15130103 L47.339533,6.29748093 C47.1859365,6.6167216 46.9901756,6.86066976 46.7522505,7.02932541 C46.5143254,7.19798106 46.244777,7.28230888 45.9436055,7.28230888 C45.5671429,7.28230888 45.2539253,7.19045227 45.0039526,7.00673904 C44.7569929,6.82302427 44.5913495,6.55949972 44.5070225,6.21616539 L44.5070225,6.21616539 Z M50.5786259,1.20167093 C50.5786259,1.3432214 50.5906727,1.47874807 50.6147664,1.60825094 C50.63886,1.73775535 50.6840351,1.85521215 50.7502915,1.96062136 C50.8165495,2.06301904 50.9069011,2.14885263 51.0213464,2.2181221 C51.1388032,2.28739158 51.2878824,2.33106164 51.4685842,2.34913227 L51.4685842,2.78281823 C51.4234083,2.81293492 51.3797391,2.85660421 51.3375763,2.91382608 C51.2984235,2.9710495 51.2637888,3.0358017 51.2336721,3.1080827 C51.2065669,3.18036369 51.183979,3.25866771 51.1659084,3.34299477 C51.1478377,3.42732336 51.1388024,3.51315695 51.1388024,3.60049552 L51.1388024,5.14098504 C51.1388024,5.43613205 51.1553665,5.68309172 51.1884947,5.88186407 C51.2216245,6.07762644 51.2758356,6.23423526 51.3511281,6.35169052 C51.4294321,6.46914733 51.5303241,6.55347515 51.6538039,6.60467399 C51.7802968,6.65286132 51.9353999,6.67695499 52.1191131,6.67695499 C52.5076232,6.67695499 52.8012652,6.53691105 53.0000391,6.25682316 C53.201823,5.97673374 53.3027149,5.56563569 53.3027149,5.02352901 L53.3027149,2.82799327 L52.579905,2.82799327 L52.579905,2.34913227 L54.1339463,2.34913227 L54.1339463,6.66792044 L54.9290373,6.66792044 L54.9290373,7.15130103 L53.3027149,7.15130103 L53.3027149,6.29748093 C53.1491184,6.62575769 52.9503453,6.87271736 52.7063956,7.03835995 C52.4624474,7.20099257 52.1763357,7.28230888 51.8480605,7.28230888 C51.3179999,7.28230888 50.9279832,7.13021811 50.6780105,6.82603656 C50.4280393,6.52185347 50.3030537,6.04750897 50.3030537,5.40300307 L50.3030537,3.64567287 C50.3030537,3.54929821 50.3135948,3.45141703 50.3346769,3.35202931 C50.3587706,3.24963162 50.3918996,3.15175121 50.4340639,3.05838807 C50.4792382,2.96502493 50.5319428,2.8806971 50.5921777,2.80540459 C50.6554241,2.72710057 50.7277051,2.66234914 50.8090207,2.61115029 C50.6102483,2.56296296 50.4446042,2.49218773 50.3120883,2.39882459 C50.1825854,2.30244993 50.078682,2.19402844 50.0003779,2.07356012 C49.9250839,1.95008028 49.8723785,1.81907088 49.8422618,1.68053193 C49.8121451,1.53898146 49.7970868,1.39743099 49.7970868,1.25588052 C49.7970868,1.06614426 49.8377445,0.894477095 49.9190601,0.740879021 C50.0003772,0.584270974 50.1087986,0.45175582 50.2443245,0.34333356 C50.379852,0.231901326 50.534955,0.147573501 50.7096337,0.0903500847 C50.8873255,0.0301166949 51.072546,2.66453526e-15 51.2652953,2.66453526e-15 C51.4821383,2.66453526e-15 51.6884402,0.025599422 51.884201,0.0767982659 C52.0799618,0.124985594 52.2727112,0.198772345 52.462449,0.298158518 L52.462449,1.28750374 L52.0332803,1.28750374 C52.0121981,0.995368254 51.9369056,0.783043319 51.8074028,0.650528936 C51.6809099,0.515001496 51.4941836,0.447237776 51.2472239,0.447237776 C51.1749429,0.447237776 51.0996504,0.462296124 51.0213464,0.492412819 C50.9430424,0.522531056 50.8707614,0.569212627 50.8045034,0.632457532 C50.7382454,0.692692463 50.6840343,0.770997258 50.64187,0.867371915 C50.5997072,0.960735057 50.5786259,1.07216806 50.5786259,1.20167093 L50.5786259,1.20167093 Z M55.5750489,9.07578189 L55.5750489,8.59692089 L56.3249648,8.59692089 L56.3249648,2.83251054 L55.5298739,2.83251054 L55.5298739,2.34913227 L57.1561962,2.34913227 L57.1561962,3.20295005 C57.3097928,2.87467484 57.5085651,2.62922093 57.7525133,2.46658831 C57.9964614,2.30094417 58.2825739,2.2181221 58.6108506,2.2181221 C59.1409112,2.2181221 59.5309271,2.37021365 59.7808983,2.67439674 C60.0308711,2.97857829 60.1558574,3.45292201 60.1558574,4.09742792 L60.1558574,6.67243771 L60.8967365,6.67243771 L60.8967365,7.15130103 L58.6018161,7.15130103 L58.6018161,6.67243771 L59.3201064,6.67243771 L59.3201064,4.35944594 C59.3201064,4.06128742 59.3020366,3.81432775 59.2658968,3.61856692 C59.2327686,3.41979457 59.1770517,3.26168 59.0987462,3.14422319 C59.0234537,3.02676639 58.9225617,2.94394432 58.7960704,2.89575699 C58.6725906,2.84756966 58.520499,2.823476 58.3397958,2.823476 C57.9512856,2.823476 57.6561386,2.96351994 57.4543547,3.24360782 C57.2555824,3.52369725 57.1561962,3.93479607 57.1561962,4.47690429 L57.1561962,8.59692089 L57.8790062,8.59692089 L57.8790062,9.07578189 L55.5750489,9.07578189 L55.5750489,9.07578189 Z M65.1432459,6.21616539 C64.8209922,6.92692772 64.3270721,7.28230888 63.6614856,7.28230888 C63.1585302,7.28230888 62.7835718,7.12720582 62.5366106,6.8169997 C62.2896509,6.50378206 62.1661711,6.03244985 62.1661711,5.40300307 L62.1661711,2.82799327 L61.4162552,2.82799327 L61.4162552,2.34913227 L62.9974025,2.34913227 L62.9974025,5.30813571 C62.9974025,5.55509538 63.0139674,5.76591456 63.0470972,5.94059324 C63.0832369,6.11226041 63.138953,6.25230512 63.2142455,6.36072738 C63.289538,6.4691481 63.3859127,6.54745212 63.5033695,6.59563945 C63.6208263,6.64382678 63.7638825,6.66792044 63.9325382,6.66792044 C64.3059907,6.66792044 64.5890917,6.52938226 64.781841,6.25230589 C64.9745903,5.97221646 65.070965,5.56262417 65.070965,5.02352901 L65.070965,2.82799327 L64.348155,2.82799327 L64.348155,2.34913227 L65.9021964,2.34913227 L65.9021964,5.33975662 C65.9021964,5.58069326 65.9187605,5.78548941 65.9518887,5.95414506 C65.9880284,6.12280071 66.0422388,6.25983391 66.1145198,6.36524465 C66.1898138,6.47065385 66.2861885,6.54745212 66.4036437,6.59563945 C66.5241121,6.64382678 66.668674,6.66792044 66.8373297,6.66792044 C67.2107823,6.66792044 67.4938832,6.52938226 67.6866325,6.25230589 C67.8793818,5.97221646 67.9757565,5.56262417 67.9757565,5.02352901 L67.9757565,2.82799327 L67.2529466,2.82799327 L67.2529466,2.34913227 L68.8069879,2.34913227 L68.8069879,6.67695499 L69.6020788,6.67695499 L69.6020788,7.15130103 L67.9757565,7.15130103 L67.9757565,6.29748093 C67.82216,6.6167216 67.6263991,6.86066976 67.388474,7.02932541 C67.1505489,7.19798106 66.8810005,7.28230888 66.5798289,7.28230888 C66.2033664,7.28230888 65.8901488,7.19045227 65.640176,7.00673904 C65.3932164,6.82302427 65.227573,6.55949972 65.1432459,6.21616539 L65.1432459,6.21616539 Z M76.4642559,6.66792044 L76.4642559,7.15130103 L74.7972758,7.15130103 L74.7972758,8.5924013 L75.5923667,8.5924013 L75.5923667,9.07578189 L73.179988,9.07578189 L73.179988,8.5924013 L73.9660444,8.5924013 L73.9660444,6.40138515 C73.8034117,6.70255518 73.5971098,6.92542119 73.3471386,7.06998318 C73.0971659,7.21153365 72.785454,7.28230888 72.412003,7.28230888 C72.113843,7.28230888 71.8412831,7.22056896 71.5943234,7.09708913 C71.3503753,6.97360929 71.1395561,6.80043637 70.9618659,6.57757036 C70.7841741,6.35169129 70.6456352,6.0836487 70.546249,5.77344258 C70.4498744,5.463238 70.401687,5.12140942 70.401687,4.74795686 C70.401687,4.37450583 70.4498744,4.03267726 70.546249,3.72247114 C70.6456352,3.41226502 70.7841741,3.14572895 70.9618659,2.92286294 C71.1395561,2.69999539 71.351881,2.5268217 71.5988407,2.40334186 C71.8458004,2.27986202 72.1168545,2.2181221 72.412003,2.2181221 C72.785454,2.2181221 73.0971659,2.2904031 73.3471386,2.43496508 C73.5971098,2.57651555 73.8034117,2.7978758 73.9660444,3.09904584 L73.9660444,2.34913227 L75.5923667,2.34913227 L75.5923667,2.83251054 L74.7972758,2.83251054 L74.7972758,6.66792044 L76.4642559,6.66792044 L76.4642559,6.66792044 Z M73.9660444,4.51304479 C73.9660444,3.93479684 73.8561171,3.49508708 73.6362626,3.19391551 C73.4164066,2.88973242 73.0941536,2.73764087 72.6695038,2.73764087 C72.2418408,2.73764087 71.9105526,2.90629652 71.6756389,3.24360782 C71.4437384,3.58091912 71.3277881,4.0823688 71.3277881,4.74795686 C71.3277881,5.41354491 71.4437384,5.91650035 71.6756389,6.25682316 C71.907541,6.59413446 72.2388293,6.76279011 72.6695038,6.76279011 C73.0941536,6.76279011 73.4164066,6.61220432 73.6362626,6.31103275 C73.8561171,6.00986272 73.9660444,5.56864797 73.9660444,4.98738851 L73.9660444,4.51304479 L73.9660444,4.51304479 Z M78.248692,3.20295005 C78.4022901,2.87467484 78.6010632,2.62922093 78.8450114,2.46658831 C79.0889595,2.30094417 79.3750712,2.2181221 79.7033464,2.2181221 C80.2334071,2.2181221 80.6234237,2.37021365 80.8733965,2.67439674 C81.1233676,2.97857829 81.2483532,3.45292201 81.2483532,4.09742792 L81.2483532,6.67243771 L81.9892346,6.67243771 L81.9892346,7.15130103 L79.6943119,7.15130103 L79.6943119,6.67243771 L80.4126045,6.67243771 L80.4126045,4.35944594 C80.4126045,4.06128742 80.3945347,3.81432775 80.358395,3.61856692 C80.3252652,3.41979457 80.2695483,3.26168 80.1912443,3.14422319 C80.1159518,3.02676639 80.0150599,2.94394432 79.8885685,2.89575699 C79.7650871,2.84756966 79.6129956,2.823476 79.4322939,2.823476 C79.0437837,2.823476 78.748636,2.96351994 78.5468506,3.24360782 C78.3480782,3.52369725 78.248692,3.93479607 78.248692,4.47690429 L78.248692,8.59692089 L78.971502,8.59692089 L78.971502,9.07578189 L76.6675447,9.07578189 L76.6675447,8.59692089 L77.4174606,8.59692089 L77.4174606,0.605351581 L76.6314042,0.605351581 L76.6314042,0.121973308 L78.248692,0.121973308 L78.248692,3.20295005 L78.248692,3.20295005 Z M89.8678628,6.66792044 L90.5906727,6.66792044 L90.5906727,7.15130103 L88.3138215,7.15130103 L88.3138215,6.66792044 L89.0366314,6.66792044 L89.0366314,4.16067437 C89.0366314,3.91973772 89.0185608,3.71494158 88.9824195,3.54628593 C88.9492913,3.37763028 88.8950809,3.24059708 88.8197884,3.13518633 C88.7475074,3.02977713 88.6511328,2.95297886 88.5306644,2.90479154 C88.4132076,2.85660421 88.2701514,2.83251054 88.1014958,2.83251054 C87.7370793,2.83251054 87.4584964,2.9650257 87.2657471,3.230056 C87.0729977,3.49508631 86.972105,3.88510221 86.963069,4.40010371 L86.963069,6.67243771 L87.7581599,6.67243771 L87.7581599,7.15130103 L86.1318375,7.15130103 L86.1318375,6.29748093 C85.978241,6.6167216 85.7824802,6.86066976 85.544555,7.02932541 C85.3066299,7.19798106 85.0370823,7.28230888 84.7359123,7.28230888 C84.549186,7.28230888 84.3654713,7.25369794 84.184768,7.19647607 C84.0040663,7.13925265 83.8429402,7.04137224 83.7013897,6.90283483 C83.5598393,6.76429587 83.4453947,6.57907534 83.3580562,6.34717325 C83.2707161,6.11527269 83.227046,5.82614872 83.227046,5.47980133 L83.227046,2.83251054 L82.5042361,2.83251054 L82.5042361,2.34913227 L84.0582774,2.34913227 L84.0582774,5.33975662 C84.0582774,5.58069326 84.0748415,5.78548941 84.1079697,5.95414506 C84.144111,6.12280071 84.1983221,6.25983391 84.2706031,6.36524465 C84.3458956,6.47065385 84.4422703,6.54745212 84.5597271,6.59563945 C84.6801954,6.64382678 84.8247574,6.66792044 84.9934131,6.66792044 C85.3668641,6.66792044 85.6499643,6.52938226 85.8427136,6.25230589 C86.0354629,5.97221646 86.1318375,5.56262417 86.1318375,5.02352901 L86.1318375,2.82799327 L85.3367466,2.82799327 L85.3367466,2.34913227 L86.963069,2.34913227 L86.963069,3.20295005 C87.116667,2.88370939 87.3124286,2.63976123 87.5503538,2.47110558 C87.7882773,2.30244993 88.0578249,2.2181221 88.3589965,2.2181221 C88.5457228,2.2181221 88.7294368,2.24673304 88.9101385,2.30395492 C89.0908417,2.36117833 89.2519686,2.45905952 89.3935191,2.59759847 C89.535068,2.73613589 89.6495125,2.92135564 89.7368526,3.15325774 C89.8241927,3.38515984 89.8678628,3.67428381 89.8678628,4.02062965 L89.8678628,6.66792044 L89.8678628,6.66792044 Z M94.8326626,6.21616539 C94.5104105,6.92692772 94.0164903,7.28230888 93.3509023,7.28230888 C92.8479468,7.28230888 92.4729893,7.12720582 92.2260296,6.8169997 C91.9790699,6.50378206 91.8555901,6.03244985 91.8555901,5.40300307 L91.8555901,2.82799327 L91.1056742,2.82799327 L91.1056742,2.34913227 L92.6868215,2.34913227 L92.6868215,5.30813571 C92.6868215,5.55509538 92.7033856,5.76591456 92.7365138,5.94059324 C92.7726551,6.11226041 92.828372,6.25230512 92.9036645,6.36072738 C92.978957,6.4691481 93.0753317,6.54745212 93.1927885,6.59563945 C93.3102453,6.64382678 93.4533015,6.66792044 93.6219572,6.66792044 C93.9954082,6.66792044 94.2785084,6.52938226 94.4712577,6.25230589 C94.664007,5.97221646 94.7603816,5.56262417 94.7603816,5.02352901 L94.7603816,2.82799327 L94.0375717,2.82799327 L94.0375717,2.34913227 L95.5916131,2.34913227 L95.5916131,5.33975662 C95.5916131,5.58069326 95.6081772,5.78548941 95.6413054,5.95414506 C95.6774466,6.12280071 95.7316578,6.25983391 95.8039388,6.36524465 C95.8792313,6.47065385 95.9756059,6.54745212 96.0930627,6.59563945 C96.2135311,6.64382678 96.3580931,6.66792044 96.5267487,6.66792044 C96.9001997,6.66792044 97.1832999,6.52938226 97.3760492,6.25230589 C97.5687985,5.97221646 97.6651732,5.56262417 97.6651732,5.02352901 L97.6651732,2.82799327 L96.9423633,2.82799327 L96.9423633,2.34913227 L98.4964046,2.34913227 L98.4964046,6.67695499 L99.2914955,6.67695499 L99.2914955,7.15130103 L97.6651732,7.15130103 L97.6651732,6.29748093 C97.5115767,6.6167216 97.3158158,6.86066976 97.0778907,7.02932541 C96.8399656,7.19798106 96.570418,7.28230888 96.269248,7.28230888 C95.8927839,7.28230888 95.5795662,7.19045227 95.329595,7.00673904 C95.0826354,6.82302427 94.9169912,6.55949972 94.8326626,6.21616539 L94.8326626,6.21616539 Z M100.009788,9.07578189 L100.009788,8.59692089 L100.759704,8.59692089 L100.759704,2.83251054 L99.9646131,2.83251054 L99.9646131,2.34913227 L101.590935,2.34913227 L101.590935,3.20295005 C101.744532,2.87467484 101.943305,2.62922093 102.187255,2.46658831 C102.431203,2.30094417 102.717315,2.2181221 103.04559,2.2181221 C103.57565,2.2181221 103.965667,2.37021365 104.21564,2.67439674 C104.465611,2.97857829 104.590597,3.45292201 104.590597,4.09742792 L104.590597,6.67243771 L105.331478,6.67243771 L105.331478,7.15130103 L103.036555,7.15130103 L103.036555,6.67243771 L103.754848,6.67243771 L103.754848,4.35944594 C103.754848,4.06128742 103.736777,3.81432775 103.700636,3.61856692 C103.667508,3.41979457 103.611792,3.26168 103.533488,3.14422319 C103.458195,3.02676639 103.357303,2.94394432 103.23081,2.89575699 C103.10733,2.84756966 102.955239,2.823476 102.774537,2.823476 C102.386027,2.823476 102.090879,2.96351994 101.889094,3.24360782 C101.690322,3.52369725 101.590935,3.93479607 101.590935,4.47690429 L101.590935,8.59692089 L102.313745,8.59692089 L102.313745,9.07578189 L100.009788,9.07578189 L100.009788,9.07578189 Z M109.577985,6.21616539 C109.255733,6.92692772 108.761813,7.28230888 108.096225,7.28230888 C107.593269,7.28230888 107.218312,7.12720582 106.971352,6.8169997 C106.724393,6.50378206 106.600913,6.03244985 106.600913,5.40300307 L106.600913,2.82799327 L105.850997,2.82799327 L105.850997,2.34913227 L107.432144,2.34913227 L107.432144,5.30813571 C107.432144,5.55509538 107.448708,5.76591456 107.481836,5.94059324 C107.517978,6.11226041 107.573695,6.25230512 107.648987,6.36072738 C107.72428,6.4691481 107.820654,6.54745212 107.938111,6.59563945 C108.055568,6.64382678 108.198624,6.66792044 108.36728,6.66792044 C108.740731,6.66792044 109.023831,6.52938226 109.21658,6.25230589 C109.40933,5.97221646 109.505704,5.56262417 109.505704,5.02352901 L109.505704,2.82799327 L108.782894,2.82799327 L108.782894,2.34913227 L110.336936,2.34913227 L110.336936,5.33975662 C110.336936,5.58069326 110.3535,5.78548941 110.386628,5.95414506 C110.422769,6.12280071 110.47698,6.25983391 110.549261,6.36524465 C110.624554,6.47065385 110.720928,6.54745212 110.838385,6.59563945 C110.958854,6.64382678 111.103416,6.66792044 111.272071,6.66792044 C111.645522,6.66792044 111.928622,6.52938226 112.121372,6.25230589 C112.314121,5.97221646 112.410496,5.56262417 112.410496,5.02352901 L112.410496,2.82799327 L111.687686,2.82799327 L111.687686,2.34913227 L113.241727,2.34913227 L113.241727,6.67695499 L114.036818,6.67695499 L114.036818,7.15130103 L112.410496,7.15130103 L112.410496,6.29748093 C112.256899,6.6167216 112.061138,6.86066976 111.823213,7.02932541 C111.585288,7.19798106 111.315741,7.28230888 111.014571,7.28230888 C110.638106,7.28230888 110.324889,7.19045227 110.074918,7.00673904 C109.827958,6.82302427 109.662314,6.55949972 109.577985,6.21616539 L109.577985,6.21616539 Z M115.649589,1.20167093 C115.649589,1.3432214 115.661635,1.47874807 115.685729,1.60825094 C115.709823,1.73775535 115.754999,1.85521215 115.821257,1.96062136 C115.887515,2.06301904 115.977865,2.14885263 116.092309,2.2181221 C116.209766,2.28739158 116.358846,2.33106164 116.539549,2.34913227 L116.539549,2.78281823 C116.494373,2.81293492 116.450703,2.85660421 116.408539,2.91382608 C116.369386,2.9710495 116.334752,3.0358017 116.304635,3.1080827 C116.27753,3.18036369 116.254942,3.25866771 116.236871,3.34299477 C116.218802,3.42732336 116.209767,3.51315695 116.209767,3.60049552 L116.209767,5.14098504 C116.209767,5.43613205 116.226332,5.68309172 116.25946,5.88186407 C116.292588,6.07762644 116.346798,6.23423526 116.422091,6.35169052 C116.500396,6.46914733 116.601289,6.55347515 116.724769,6.60467399 C116.85126,6.65286132 117.006363,6.67695499 117.190078,6.67695499 C117.578588,6.67695499 117.87223,6.53691105 118.071002,6.25682316 C118.272786,5.97673374 118.373678,5.56563569 118.373678,5.02352901 L118.373678,2.82799327 L117.650868,2.82799327 L117.650868,2.34913227 L119.204909,2.34913227 L119.204909,6.66792044 L120,6.66792044 L120,7.15130103 L118.373678,7.15130103 L118.373678,6.29748093 C118.220081,6.62575769 118.021309,6.87271736 117.777361,7.03835995 C117.533412,7.20099257 117.2473,7.28230888 116.919023,7.28230888 C116.388963,7.28230888 115.998947,7.13021811 115.748976,6.82603656 C115.499003,6.52185347 115.374016,6.04750897 115.374016,5.40300307 L115.374016,3.64567287 C115.374016,3.54929821 115.384558,3.45141703 115.40564,3.35202931 C115.429733,3.24963162 115.462862,3.15175121 115.505027,3.05838807 C115.550202,2.96502493 115.602907,2.8806971 115.66314,2.80540459 C115.726387,2.72710057 115.798668,2.66234914 115.879983,2.61115029 C115.681211,2.56296296 115.515568,2.49218773 115.383053,2.39882459 C115.253549,2.30244993 115.149645,2.19402844 115.071341,2.07356012 C114.996048,1.95008028 114.943344,1.81907088 114.913227,1.68053193 C114.883109,1.53898146 114.86805,1.39743099 114.86805,1.25588052 C114.86805,1.06614426 114.908708,0.894477095 114.990025,0.740879021 C115.071341,0.584270974 115.179762,0.45175582 115.31529,0.34333356 C115.450815,0.231901326 115.605919,0.147573501 115.780599,0.0903500847 C115.958289,0.0301166949 116.143509,2.66453526e-15 116.336258,2.66453526e-15 C116.553101,2.66453526e-15 116.759403,0.025599422 116.955164,0.0767982659 C117.150925,0.124985594 117.343674,0.198772345 117.533412,0.298158518 L117.533412,1.28750374 L117.104243,1.28750374 C117.083161,0.995368254 117.007868,0.783043319 116.878365,0.650528936 C116.751874,0.515001496 116.565149,0.447237776 116.318189,0.447237776 C116.245908,0.447237776 116.170615,0.462296124 116.092309,0.492412819 C116.014005,0.522531056 115.941724,0.569212627 115.875466,0.632457532 C115.80921,0.692692463 115.754999,0.770997258 115.712835,0.867371915 C115.670671,0.960735057 115.649589,1.07216806 115.649589,1.20167093 L115.649589,1.20167093 Z" id="hyw-tagline" fill="#000000" fill-rule="nonzero"></path>
    </g>
</svg>