<svg xmlns="http://www.w3.org/2000/svg" width="120" height="13"><path fill="#000" fill-rule="nonzero" d="M2.316 7.56V2.296c0-1.09.223-1.155 1.142-1.195.079-.078.079-.354 0-.433-.643.013-1.037.027-1.706.027C1.096.696.715.682.059.669c-.079.08-.079.355 0 .433.919.04 1.142.105 1.142 1.195v5.262C1.2 8.65.978 8.714.059 8.754c-.079.078-.079.354 0 .433.643-.013 1.037-.027 1.706-.027.656 0 1.037.014 1.693.027.079-.079.079-.355 0-.433-.919-.04-1.142-.105-1.142-1.195m13.359.08c.065 1.062.026 1.075-.827 1.115-.079.078-.079.354 0 .433.617-.013 1.01-.027 1.404-.027.394 0 .985.014 1.43.027.08-.079.08-.355 0-.433-.892-.04-.931-.092-1.01-1.182l-.393-5.525c-.053-.708.013-.892.905-.945.079-.078.079-.354 0-.433l-1.72.027-2.781 6.653c-.053.132-.092.184-.119.184-.039 0-.052-.052-.104-.17L9.77.696 7.865.669c-.079.08-.079.355 0 .433.906.053.984.08.893 1.063L8.22 7.572c-.065.788-.223 1.116-.97 1.182-.08.078-.08.354 0 .433a37.53 37.53 0 0 1 1.128-.027c.315 0 .84.014 1.234.027.078-.079.078-.355 0-.433-.867-.066-.945-.46-.867-1.208l.5-5.262h.025l2.717 6.81c.026.106.118.145.197.145.079 0 .131-.04.184-.144l2.953-6.943h.026l.328 5.486m3.961-2.178c.25-1.483 1.168-1.602 1.483-1.602.499 0 1.09.276 1.09 1.378 0 .119-.053.184-.197.184l-2.376.04m3.439 2.48c-.486.499-.866.709-1.628.709-.472 0-1.023-.276-1.43-.945-.263-.433-.42-1.037-.42-1.798l3.49.026c.158 0 .25-.079.25-.223 0-1.103-.394-2.284-2.218-2.284-1.142 0-2.625 1.09-2.625 3.084 0 .735.184 1.444.617 1.943.446.525 1.063.84 2.008.84.998 0 1.706-.46 2.231-1.142-.04-.131-.118-.197-.275-.21m1.434-.59c.052.642.092 1.26.092 1.81.13-.026.262-.039.328-.039.092 0 .17 0 .262.026.354.092.709.145 1.194.145.735 0 2.087-.355 2.087-1.654 0-.892-.656-1.404-1.535-1.745-.788-.302-1.313-.5-1.313-1.22 0-.539.473-.84.919-.84.289 0 1.05.104 1.22 1.22.08.078.342.065.42-.013 0-.473.066-.958.08-1.392-.408-.065-1.038-.249-1.72-.249-.971 0-1.85.63-1.85 1.47 0 .958.432 1.365 1.443 1.785 1.076.46 1.339.722 1.339 1.286 0 .643-.63.919-1.116.919-.512 0-.8-.171-.932-.315-.315-.302-.433-.88-.511-1.208-.08-.078-.329-.065-.407.013m4.958-3.819c-.184 0-.236.158-.236.263v.17c0 .066.013.08.065.08h.775v3.95c0 .931.407 1.299 1.01 1.299.604 0 1.26-.289 1.772-.866-.026-.132-.105-.21-.236-.224a1.777 1.777 0 0 1-1.076.368c-.355 0-.433-.394-.433-1.207v-3.32h1.364c.132 0 .315-.053.315-.171v-.263c0-.052-.039-.079-.105-.079h-1.574v-.512c0-.853.052-1.378.052-1.378 0-.091-.052-.13-.17-.13l-.762.354c-.079.039-.197.065-.184.157.027.302.027.42.027 1.51h-.604m4.77-2.232c0 .341.314.683.63.683.367 0 .682-.342.682-.63 0-.315-.276-.683-.63-.683-.315 0-.683.315-.683.63m1.195 6.26V4.948c0-.656.052-1.496.052-1.496 0-.053-.065-.092-.17-.092-.381.144-.893.262-1.798.38-.027.08 0 .289.026.368.708.079.853.144.853.892v2.56c0 1.089-.145 1.128-.945 1.194-.079.078-.079.354 0 .433.551-.013.892-.027 1.47-.027.564 0 .892.014 1.457.027.078-.079.078-.355 0-.433-.801-.053-.945-.105-.945-1.195m8.05-3.136h-1.193V1.798c0-.315.157-.577.472-.577h1.378c.984 0 1.194.524 1.483 1.43.158.026.302 0 .433-.066a46.07 46.07 0 0 0-.289-1.903c0-.026-.013-.039-.052-.039-.223.04-.328.053-.643.053h-3.347S40.687.682 40.03.669c-.078.08-.078.355 0 .433.919.04 1.142.105 1.142 1.195v5.262c0 1.09-.223 1.155-1.142 1.195-.078.078-.078.354 0 .433.643-.013 1.706-.027 1.706-.027h2.822c.63 0 1.68.027 1.68.027.184-.656.38-1.523.486-2.192a.687.687 0 0 0-.46-.066c-.262.945-.722 1.72-1.719 1.72H42.76c-.289 0-.472-.21-.472-.565V4.921h1.194c1.115 0 1.155.302 1.194.893.079.079.355.079.433 0-.013-.46-.026-.709-.026-1.155 0-.446.013-.735.026-1.129-.078-.078-.354-.078-.433 0-.04.722-.079.893-1.194.893m6.035.04c-.04.052-.132.183-.132 0 0-.395.066-.998.066-.998 0-.066-.052-.105-.157-.105-.368.144-.906.262-1.812.38-.026.08 0 .289.027.368.708.065.853.131.853.892v2.56c0 1.076-.131 1.128-.919 1.194-.079.078-.079.354 0 .433.538-.013.88-.027 1.444-.027.512 0 .748.014 1.299.027.079-.079.079-.355 0-.433-.67-.066-.787-.118-.787-1.195V5.407a.77.77 0 0 1 .223-.551c.498-.486 1.01-.774 1.522-.774.263 0 .538.17.696.472.13.262.157.617.157 1.01V7.56c0 1.077-.131 1.129-.814 1.195-.065.078-.065.354 0 .433.552-.013.814-.027 1.339-.027.538 0 .827.014 1.391.027.066-.079.066-.355 0-.433-.735-.066-.88-.118-.88-1.195V5.604c0-.722-.052-1.352-.353-1.759-.224-.288-.63-.446-1.09-.446-.643 0-1.273.17-2.073 1.063m9.832 3.504c-.053-.118-.158-.17-.276-.184-.446.578-1.01.867-1.575.867-.958 0-1.759-.972-1.759-2.507 0-1.444.63-2.31 1.497-2.31.774 0 .879.46.931.919.04.354.223.472.5.472.275 0 .642-.17.642-.577 0-.722-.748-1.247-2.008-1.247-1.3 0-2.69 1.168-2.69 3.032 0 1.693.945 2.86 2.598 2.86.788 0 1.483-.249 2.14-1.325m2.53-2.546a.78.78 0 0 1 .223-.564c.499-.486 1.076-.774 1.601-.774.263 0 .538.183.696.472.131.262.157.617.157 1.01V7.56c0 1.077-.13 1.129-.813 1.195-.066.078-.066.354 0 .433.551-.013.813-.027 1.338-.027.538 0 .827.014 1.392.027.065-.079.065-.355 0-.433-.735-.066-.88-.118-.88-1.195V5.604c0-.722-.052-1.352-.354-1.759-.223-.288-.63-.446-1.09-.446-.656 0-1.351.17-2.152 1.063-.052.053-.13.184-.13 0l.012-2.953c0-.853.053-1.378.053-1.378 0-.092-.053-.131-.17-.131-.329.131-1.313.315-1.838.354-.027.105 0 .315.078.394.683.04.84-.026.84 1.076V7.56c0 1.09-.157 1.142-.918 1.195-.079.078-.079.354 0 .433.538-.013.879-.027 1.443-.027.512 0 .735.014 1.286.027.08-.079.08-.355 0-.433-.656-.053-.774-.105-.774-1.195V5.42m5.962-4.12c0 .34.315.682.63.682.367 0 .682-.342.682-.63 0-.315-.276-.683-.63-.683-.315 0-.682.315-.682.63m1.194 6.26V4.948c0-.656.052-1.496.052-1.496 0-.053-.065-.092-.17-.092-.38.144-.893.262-1.798.38-.026.08 0 .289.026.368.709.079.853.144.853.892v2.56c0 1.089-.144 1.128-.945 1.194-.078.078-.078.354 0 .433.551-.013.893-.027 1.47-.027.564 0 .893.014 1.457.027.079-.079.079-.355 0-.433-.8-.053-.945-.105-.945-1.195m2.316 0c0 1.09-.144 1.142-.88 1.195-.078.078-.078.354 0 .433.552-.013.854-.027 1.405-.027.46 0 .63.014 1.194.027.08-.079.08-.355 0-.433-.538-.053-.682-.105-.682-1.195V6.38c.302.012.486.104.748.472l.958 1.351c.263.381.302.539.302.71v.21c0 .038.013.065.052.065.263-.013.512-.027.906-.027.407 0 .682.014 1.076.027.079-.079.079-.355 0-.433-.446-.053-.84-.105-1.129-.552l-1.535-2.27a.314.314 0 0 1-.066-.184c0-.052.013-.092.053-.131l.997-1.102c.38-.394.788-.552 1.444-.578.079-.079.079-.354 0-.433-.486.013-.67.026-1.142.026-.499 0-.722-.013-1.207-.026-.08.079-.08.354 0 .433.787.04.367.538.236.67-.696.76-1.352 1.338-1.693 1.443V1.51c0-.854.052-1.379.052-1.379 0-.092-.052-.131-.17-.131-.328.131-1.313.315-1.838.354-.026.105 0 .315.08.394.682.04.84-.026.84 1.076V7.56m6.449 0c0 1.09-.145 1.155-.945 1.195-.08.078-.08.354 0 .433.55-.013.892-.027 1.47-.027.564 0 .892.014 1.456.027.079-.079.079-.355 0-.433-.8-.04-.945-.105-.945-1.195V1.51c0-.853.053-1.378.053-1.378 0-.092-.053-.131-.17-.131-.329.131-1.313.315-1.838.354-.026.105 0 .315.079.394.682.04.84-.026.84 1.076V7.56m2.751-1.089c0 1.339.906 2.822 2.756 2.822 1.956 0 2.783-1.628 2.783-2.94 0-1.365-.722-2.953-2.757-2.953-1.771 0-2.782 1.404-2.782 3.071m2.638-2.638c1.129 0 1.772 1.01 1.772 2.94 0 1.732-.8 2.087-1.418 2.087-1.364 0-1.863-1.68-1.863-2.69 0-1.143.407-2.337 1.51-2.337m5.733.932c.407-.42.932-.761 1.326-.761.84 0 1.561.945 1.561 2.428 0 1.076-.38 2.415-1.85 2.415-.236 0-.696-.066-.932-.276-.276-.236-.315-.302-.315-.788v-2.44c0-.276.04-.394.21-.578m-.105-.433c-.052.052-.131.066-.131-.04 0-.472.052-.84.052-.84 0-.052-.065-.091-.17-.091-.368.144-.866.262-1.772.38-.026.08 0 .289.026.368.709.065.853.144.853.892v5.604c0 1.09-.144 1.155-.945 1.194-.078.08-.078.355 0 .433.552-.013.893-.026 1.47-.026.617 0 1.024.013 1.588.026.079-.078.079-.354 0-.433-.932-.052-1.076-.105-1.076-1.194V9.187c0-.17.04-.145.184-.092.315.131.722.197 1.142.197.735 0 1.39-.223 1.929-.735.617-.604.971-1.418.971-2.48 0-1.392-.984-2.678-2.323-2.678-.486 0-1.207.328-1.798.932m5.808-3.032c0 .341.315.683.63.683.367 0 .682-.342.682-.63 0-.315-.275-.683-.63-.683-.315 0-.682.315-.682.63m1.194 6.26V4.948c0-.656.053-1.496.053-1.496 0-.053-.066-.092-.171-.092-.38.144-.892.262-1.798.38-.026.08 0 .289.026.368.709.079.853.144.853.892v2.56c0 1.089-.144 1.128-.945 1.194-.078.078-.078.354 0 .433.552-.013.893-.027 1.47-.027.565 0 .893.014 1.457.027.079-.079.079-.355 0-.433-.8-.053-.945-.105-.945-1.195m5.715-.026c0 .25-.026.354-.21.512-.485.42-.905.63-1.233.63-.709 0-1.444-.774-1.444-2.415 0-.945.184-1.47.38-1.745a1.376 1.376 0 0 1 1.221-.657c.473 0 .8.171 1.063.473.184.21.223.302.223.709v2.493m-.144.971c.052-.052.157-.078.157.013 0 .315.145.775.145.775.105.04.144.026.25 0 .288-.237.787-.433 1.587-.525.079-.079.079-.276 0-.355-.84-.065-.958-.315-.958-.958V1.51c0-.853.053-1.378.053-1.378 0-.092-.053-.131-.171-.131-.328.131-1.312.315-1.837.354-.027.105 0 .315.078.394.683.04.84-.026.84 1.076v1.68c0 .092-.026.118-.118.118-.052 0-.59-.223-1.023-.223-.867 0-1.444.289-1.969.788-.564.564-.906 1.338-.906 2.31 0 1.614.814 2.795 2.231 2.795.512 0 .998-.263 1.641-.788m3.437-7.205c0 .341.315.683.63.683.367 0 .682-.342.682-.63 0-.315-.276-.683-.63-.683-.315 0-.682.315-.682.63m1.194 6.26V4.948c0-.656.052-1.496.052-1.496 0-.053-.065-.092-.17-.092-.38.144-.893.262-1.798.38-.026.08 0 .289.026.368.709.079.853.144.853.892v2.56c0 1.089-.144 1.128-.945 1.194-.079.078-.079.354 0 .433.551-.013.893-.027 1.47-.027.564 0 .892.014 1.457.027.079-.079.079-.355 0-.433-.8-.053-.945-.105-.945-1.195m3.917 3.701c.197-.354.368-.735.538-1.128 1.05-2.52 1.628-3.885 2.323-5.355.184-.38.578-.8 1.063-.84.079-.079.079-.354 0-.433-.328.013-.564.026-.932.026-.459 0-.708-.013-1.194-.026-.079.079-.079.354 0 .433.407.04.827.118.63.59l-1.312 3.006c-.092.223-.197.25-.315-.013l-1.155-2.73c-.236-.551-.38-.787.42-.853.078-.079.078-.354 0-.433-.486.013-1.01.026-1.483.026-.446 0-.8-.013-1.063-.026-.079.079-.079.354 0 .433.577.053.682.158 1.036.984l1.483 3.452c.119.276.315.866.184 1.234-.144.446-.315.8-.512 1.207-.144.263-.328.38-.656.38-.184 0-.236-.039-.38-.039-.381 0-.578.394-.578.565 0 .275.263.485.617.485.276 0 .8-.105 1.273-.945h.013m7.934-5.157v1.745c0 .17-.079.263-.184.341-.341.276-.787.565-1.155.565-.656 0-.945-.525-.945-.932 0-.59.276-1.181 1.247-1.444l1.037-.275m0 2.428c.079.275.302.76 1.01.76.644 0 1.116-.524 1.116-.59 0-.092-.118-.223-.17-.223-.08 0-.132.21-.407.21-.512 0-.525-.512-.525-1.116V5.617c0-1.864-1.024-2.218-1.982-2.218-1.076 0-2.166.748-2.166 1.457 0 .315.158.46.46.46.38 0 .577-.263.577-.434a.59.59 0 0 0-.04-.236.907.907 0 0 1-.025-.263c0-.406.59-.55 1.089-.55.446 0 1.063.222 1.063 1.705 0 .092-.04.145-.079.158l-1.128.275c-1.26.315-2.166 1.01-2.166 1.903 0 1.037.735 1.418 1.654 1.418.603 0 .853-.105 1.43-.551l.263-.21h.026"/></svg>