<svg xmlns="http://www.w3.org/2000/svg" width="104" height="13"><path fill="#000" fill-rule="nonzero" d="M20.02 3.8c.348 0 .593.208.593.48 0 .26-.232.494-.478.494-.144-.002-.312-.132-.364-.237-.078-.116-.168-.155-.258-.155-.168 0-.427.182-.517.312.375.391.556.741.556 1.353 0 1.273-1.047 1.99-2.184 1.99-.504 0-.866-.093-1.176-.274a1.33 1.33 0 0 0-.232.754c0 .56.452.741.827.741l.388-.026c.31-.039.633-.064.866-.064l.298.004c.497.015 1.177.085 1.59.426.374.312.567.637.567 1.053 0 1.404-1.887 2.249-3.631 2.249-.996 0-2.055-.351-2.055-1.481 0-.56.362-1.157 1.06-1.573a1.103 1.103 0 0 1-.594-1.002c0-.442.207-1 .569-1.313-.362-.35-.672-.754-.672-1.456 0-1.195 1.06-1.976 2.21-1.976.763 0 1.189.26 1.344.364.336-.442.957-.663 1.292-.663zm62.598.257c.104 0 .168.04.168.091l-.018.158a7.05 7.05 0 0 0-.033.674c0 .093.088.081.13.04.581-.599 1.291-.924 1.768-.924 1.319 0 2.29 1.273 2.29 2.652 0 1.053-.35 1.858-.957 2.457-.53.508-1.177.729-1.9.729-.34 0-.674-.05-.959-.142l-.25-.091c-.07-.02-.097.003-.097.13v1.403c0 1.079.143 1.132 1.06 1.184.077.078.077.35 0 .429l-.91-.02c-.1-.003-.203-.004-.31-.005l-.344-.001c-.568 0-.904.014-1.447.026-.078-.078-.078-.351 0-.43l.218-.013c.563-.046.698-.182.711-1.016l.001-5.706c0-.74-.143-.819-.84-.884-.025-.078-.05-.286-.025-.364l.448-.064c.618-.096 1.001-.196 1.296-.313zM16.101 9.933c-.375.456-.401.78-.401 1.222 0 .885 1.086 1.262 1.55 1.262 1.164 0 2.534-.494 2.534-1.431 0-.338-.155-.52-.659-.806-.375-.208-.918-.221-1.564-.221l-.196.007c-.195.012-.461.032-.747.032-.168 0-.375-.026-.517-.065zM98.975.729c.115 0 .168.039.168.13l-.02.272c-.014.205-.028.519-.032.917v6.065c0 .638.116.885.942.95.078.077.078.272 0 .351-.787.092-1.279.287-1.563.52-.104.027-.143.04-.246 0l-.05-.18a2.635 2.635 0 0 1-.093-.587c0-.092-.092-.068-.154-.018-.57.472-1.014.73-1.464.777l-.15.008c-1.397 0-2.198-1.17-2.198-2.77 0-.963.336-1.729.891-2.288.518-.494 1.086-.78 1.94-.78.425 0 .956.221 1.007.221.09 0 .117-.025.117-.117V2.536c0-1.092-.156-1.026-.828-1.065-.078-.078-.104-.286-.078-.39.518-.04 1.486-.222 1.811-.352zm-72.072 3.47c.065 0 .104.038.104.08l-.036.774c-.007.17-.013.339-.015.47v2.588c0 .638.116.885.943.95.077.077.077.272 0 .351-.789.092-1.28.287-1.564.52-.1.032-.147.039-.246 0l-.05-.182a2.697 2.697 0 0 1-.092-.585c0-.092-.093-.068-.155-.018-.633.525-1.163.785-1.667.785-1.28.002-1.668-.87-1.668-1.767V5.67c0-.846-.18-.988-.8-1.04-.079-.078-.079-.352 0-.43l.683.018c.218.005.428.008.634.008l.225-.005a1.91 1.91 0 0 0 .227-.02c.065 0 .104.038.104.08l-.037.774c-.006.17-.012.339-.014.47v2.458c0 1.157.645 1.34 1.033 1.34.323 0 .736-.209 1.215-.625.182-.158.207-.26.207-.507V5.681c0-.858-.168-1.014-.8-1.053-.079-.078-.079-.352 0-.43l.683.018c.218.005.428.008.634.008l.225-.005a1.91 1.91 0 0 0 .227-.02zm50.423-.103c2.004 0 2.715 1.573 2.715 2.925 0 1.3-.814 2.913-2.74 2.913-1.822 0-2.715-1.47-2.715-2.796 0-1.652.996-3.042 2.74-3.042zm13.386.025c1.797 0 2.184 1.171 2.184 2.263 0 .143-.09.221-.244.221l-3.44-.026c0 .755.157 1.353.415 1.781.4.663.943.937 1.408.937.75 0 1.125-.208 1.604-.702.153.012.23.077.27.207-.518.677-1.215 1.132-2.197 1.132-.93 0-1.537-.312-1.977-.833-.428-.494-.607-1.196-.607-1.924 0-1.977 1.459-3.056 2.584-3.056zm-33.468-.025c.672 0 1.293.182 1.693.247-.014.43-.078.91-.078 1.378-.078.078-.336.091-.414.013-.168-1.104-.916-1.209-1.201-1.209-.439 0-.904.3-.904.832 0 .572.332.812.861 1.036l.432.171c.875.334 1.512.843 1.512 1.731 0 1.288-1.332 1.639-2.055 1.639-.479 0-.828-.052-1.178-.143-.09-.026-.168-.026-.258-.026l-.137.01c-.056.006-.12.016-.185.029 0-.547-.04-1.158-.092-1.795.078-.078.324-.09.402-.013l.067.282c.08.311.204.69.437.913.129.144.412.314.916.314.479 0 1.1-.274 1.1-.91 0-.527-.22-.795-1.138-1.197l-.18-.078c-.996-.416-1.422-.818-1.422-1.768 0-.832.865-1.456 1.822-1.456zM3.968 1.25c2.262 0 4.162 1.703 4.162 4.277 0 2.6-1.616 4.408-4.085 4.408C1.822 9.934 0 8.334 0 5.774c0-2.549 1.654-4.525 3.968-4.525zm98.926 2.807c.104 0 .168.04.168.091l-.039.808a21.17 21.17 0 0 0-.013.54v2.722c0 1.08.142 1.131.931 1.182.079.079.079.353 0 .43l-.585-.015a34.51 34.51 0 0 0-.54-.01h-.31c-.569 0-.905.013-1.448.026-.076-.078-.076-.352 0-.43l.218-.02c.565-.06.7-.178.713-1.01l.001-2.689c0-.74-.137-.817-.84-.884-.027-.078-.053-.286-.027-.364l.45-.064c.624-.096 1.02-.196 1.321-.313zm-72.082.001c.103 0 .168.04.168.091l-.049.586c-.01.154-.016.316-.016.454 0 .056.028.112.086.036l.03-.049c.298-.507.828-1.079 1.436-1.079.542 0 .775.376.775.624 0 .325-.297.65-.607.65-.271 0-.401-.247-.53-.378-.078-.078-.181-.09-.271-.09-.155 0-.453.428-.595.637-.155.233-.31.532-.31.87v1.808c0 1.08.155 1.118 1.06 1.183.078.079.078.353 0 .43l-.792-.018a40.95 40.95 0 0 0-.771-.007c-.517 0-.931.013-1.474.026-.078-.078-.078-.352 0-.43l.221-.017c.575-.053.72-.18.734-1.012l.002-2.69c-.002-.715-.144-.82-.842-.884-.051-.078-.051-.286-.026-.364.892-.117 1.409-.234 1.77-.377zM65.802.728c.093 0 .144.025.161.082l.006.048s-.043.45-.05 1.19v4.666c.294-.085.808-.52 1.377-1.114l.342-.366c.16-.182.409-.571-.285-.606-.078-.078-.078-.352 0-.43l.768.023c.123.002.257.003.42.003l.393-.004c.226-.004.413-.013.733-.022.076.078.076.352 0 .43-.646.025-1.04.173-1.422.571l-.982 1.093a.168.168 0 0 0-.053.13c0 .064.027.13.064.182l1.514 2.25c.293.438.672.493 1.11.545.077.079.077.353 0 .43l-.525-.018a18.165 18.165 0 0 0-.535-.007l-.346.003c-.207.005-.374.014-.547.023-.037 0-.051-.026-.051-.065v-.208c0-.17-.04-.326-.297-.703l-.943-1.339c-.252-.366-.43-.463-.737-.468v1.17l.006.323c.03.768.194.814.667.86.076.079.076.353 0 .43l-1.02-.025h-.157c-.543 0-.842.013-1.385.026-.076-.078-.076-.352 0-.43l.21-.018c.512-.053.643-.184.656-1.004l.002-5.844c0-1.092-.156-1.026-.828-1.065-.076-.078-.104-.286-.076-.39.516-.04 1.486-.222 1.81-.352zm-16.24 3.33c.104 0 .155.038.155.103l-.04.451a7.83 7.83 0 0 0-.024.537c0 .182.09.052.129 0 .788-.884 1.409-1.053 2.042-1.053.453 0 .853.156 1.074.441.267.363.335.905.346 1.53l.002 2.15.005.305c.031.773.214.82.862.878.064.079.064.353 0 .43l-.904-.022c-.142-.002-.29-.003-.467-.003l-.451.003c-.27.005-.505.014-.867.023-.065-.078-.065-.352 0-.43l.194-.022c.473-.06.592-.19.605-1.001V6.24c0-.39-.024-.74-.153-1-.155-.3-.426-.469-.685-.469-.504 0-1.008.286-1.5.768a.759.759 0 0 0-.22.546v2.132c0 1.066.117 1.118.776 1.183.078.079.078.353 0 .43l-.9-.023a24.516 24.516 0 0 0-.38-.002l-.588.005c-.267.005-.515.013-.833.02-.078-.077-.078-.351 0-.43l.213-.02c.586-.064.692-.202.692-1.163V5.682c0-.754-.142-.819-.84-.884-.026-.078-.052-.286-.026-.364.892-.117 1.42-.234 1.783-.377zm12.41-.002c.104 0 .168.04.168.091l-.039.808a21.17 21.17 0 0 0-.013.54v2.722c0 1.08.142 1.131.931 1.182.078.079.078.353 0 .43l-.585-.015a34.51 34.51 0 0 0-.541-.01h-.31c-.568 0-.904.013-1.447.026-.076-.078-.076-.352 0-.43l.218-.02c.565-.06.7-.178.713-1.01l.001-2.689c0-.74-.137-.817-.84-.884-.027-.078-.053-.286-.027-.364l.45-.064c.624-.096 1.02-.196 1.321-.313zM72.722.728c.115 0 .168.039.168.13l-.021.272c-.013.205-.028.519-.031.917l-.001 6.17c0 1.078.143 1.143.932 1.182.076.079.076.353 0 .43l-.586-.015c-.266-.006-.516-.01-.85-.01l-.599.005c-.271.005-.522.013-.848.02-.078-.077-.078-.351 0-.43l.218-.013c.598-.049.712-.198.712-1.17l-.001-5.68c0-1.093-.154-1.027-.826-1.066-.078-.078-.104-.286-.078-.39.518-.04 1.486-.222 1.81-.352zm-30.138.52c.155 0 .232.102.31.29l2.688 7.146c.24.67.662.67 1.163.715.078.079.078.353 0 .43l-.717-.018a38.22 38.22 0 0 0-.756-.007l-.676.005c-.36.005-.73.013-1.017.02-.078-.077-.078-.351 0-.43l.436-.026c.401-.03.665-.104.521-.506l-.789-2.197H41.06c-.31 0-.388.052-.453.221l-.71 1.885c-.202.534.405.59.891.623.078.079.078.353 0 .43l-.636-.015a62.064 62.064 0 0 0-.689-.01h-.329c-.504 0-.672.013-1.15.026-.078-.078-.078-.352 0-.43.563-.04.951-.12 1.292-.924l2.873-6.764c.147-.349.246-.465.436-.465zM9.596 4.057c.224.043.217.168.632.168h2.624c.375 0 .788-.09.853-.09.09 0 .155.038.155.09s-.064.208-.284.546l-3.102 4.59h1.719c.75 0 .969-.352 1.279-1.04l.168-.378a.83.83 0 0 1 .388.092c-.22.754-.35 1.364-.414 1.769H9.582c-.195 0-.298-.065-.298-.156 0-.054.01-.09.073-.192L12.58 4.67h-1.784c-.388 0-.788.272-1.047 1.222a.732.732 0 0 1-.427-.039c.104-.637.182-1.13.195-1.716 0-.03.046-.078.078-.078zm67.588.467c-1.086 0-1.487 1.183-1.487 2.314 0 1.001.492 2.666 1.836 2.666.607 0 1.395-.353 1.395-2.068 0-1.91-.633-2.912-1.744-2.912zm7.088.168c-.377 0-.904.338-1.305.754-.166.172-.207.3-.207.573v2.418c0 .47.051.545.311.78.232.208.684.273.918.273 1.448 0 1.823-1.326 1.823-2.393 0-1.469-.711-2.405-1.54-2.405zM3.8 1.69C2.624 1.691 1.24 2.821 1.24 5.552c0 2.496 1.512 3.939 3.063 3.939 1.474 0 2.585-1.392 2.585-3.719 0-2.704-1.33-4.082-3.089-4.082zm93.003 2.861c-.258 0-.8.04-1.2.65-.194.272-.376.792-.376 1.728 0 1.625.723 2.392 1.422 2.392.322 0 .736-.208 1.215-.624.182-.158.207-.26.207-.507V5.721c0-.403-.039-.494-.22-.702-.259-.299-.583-.468-1.048-.468zm-79.538-.053c-.711 0-1.034.47-1.034 1.38l.004.239c.027.76.215 1.515 1.198 1.515.478 0 1.086-.247 1.086-1.456 0-1.079-.44-1.678-1.254-1.678zm73.448.053-.099.004c-.371.029-1.139.247-1.362 1.582l2.34-.039c.143-.003.193-.065.193-.182 0-1.093-.582-1.365-1.072-1.365zM42.286 2.652h-.026l-1.295 3.3c-.054.14.04.172.326.172h2.25l-1.255-3.472zm-18.769-.949a.62.62 0 0 1 .607.624.608.608 0 1 1-1.214 0 .62.62 0 0 1 .607-.624zm2.184 0a.62.62 0 0 1 .607.624.608.608 0 1 1-1.214 0 .62.62 0 0 1 .607-.624zm35.882-.31c.35 0 .621.363.621.675 0 .274-.31.624-.672.624-.31 0-.62-.338-.62-.676 0-.313.363-.624.671-.624zm40.922 0c.35 0 .621.363.621.675 0 .274-.31.624-.672.624-.31 0-.62-.338-.62-.676 0-.313.363-.624.671-.624zM1.396 0a.63.63 0 0 1 .62.624.63.63 0 0 1-.62.624.63.63 0 0 1-.621-.624C.775.286 1.06 0 1.396 0zm5.286 0a.63.63 0 0 1 .62.624.63.63 0 0 1-.62.624.63.63 0 0 1-.62-.624.63.63 0 0 1 .62-.624z"/></svg>