<svg width="104.99" height="22.4" viewBox="0 0 27.779 5.927" xmlns="http://www.w3.org/2000/svg"><path d="M14.643.739h2.242c-.021.396-.057.791-.113 1.184h-.503l-.784-.318v4.277h.095c.318 0 .617-.161.617-.242v-.318h2.455v.528h.101c.254 0 .603-.145.617-.193V2.182c.122-.024.204-.07.249-.127l-.691-.524-.354.392h-1.642c.31-.33.602-.771.84-1.184h2.398c.072 0 .13-.026.154-.085l-.768-.586-.437.537h-4.513zM7.218 4.864c1.03-.317 1.873-.843 2.329-1.552h1.467c.39.64 1.035 1.22 1.727 1.498.04-.306.187-.568.455-.785l.004-.058c-.648-.041-1.508-.254-2.018-.655h1.81c.074 0 .13-.026.148-.086l-.665-.57-.38.53h-.427V.95h1.165c.073 0 .13-.026.148-.085l-.64-.539-.36.498h-.313V.245c.16-.024.214-.067.23-.156l-.943-.078v.813H9.376V.246c.153-.03.207-.073.224-.157L8.67.011v.813H7.456l.036.126H8.67v2.235H7.21l.04.127h1.406a3.757 3.757 0 0 1-1.483 1.479zm14.472-.17c.402-.314.76-.732 1.077-1.185v2.418h.107c.341 0 .567-.146.567-.185V2.6c.183.31.365.684.412.978a.332.332 0 0 0 .244.098c.161 0 .287-.136.287-.32 0-.255-.24-.603-.943-.834V2.12h.91c.068 0 .132-.027.16-.078l-.6-.532-.33.483h-.14V.826c.2-.042.401-.086.6-.14.092.032.169.046.231.046.063 0 .109-.01.146-.034l-.775-.683c-.425.324-1.242.75-1.92.988l.012.04c.328-.02.698-.06 1.032-.104v1.054h-.998l.036.127h.879c-.201.9-.554 1.853-1.055 2.518zm2.325-.441.064.124 2.042-.39v1.908h.114c.262 0 .56-.148.56-.216V3.856l.849-.163c.073-.014.12-.048.135-.092l-.599-.467-.29.574-.095.024V.36c.16-.023.21-.07.225-.156l-.899-.09v3.74zm-5.363-.637v1.573h-2.455V3.616zm-2.455-.127V2.05h2.455v1.44zM7.6 5.757h5.074c.073 0 .141-.028.155-.085l-.78-.599-.439.55h-1.118v-.961h1.189c.073 0 .129-.026.148-.086l-.646-.514-.362.473h-.329v-.643c.154-.018.202-.06.218-.142l-.936-.072v.857H8.519l.036.127h1.219v.961H7.559zm3.355-3.24v.668H9.376v-.669zm-1.579-.784h1.58v.657h-1.58zm1.58-.783v.65h-1.58V.95zm14.227.767a.463.463 0 0 0 .263.093c.188 0 .329-.155.329-.351 0-.28-.301-.645-1.116-.782l-.038.051c.248.26.504.651.562.99zm-.102 1.54c.09.06.177.086.256.086.193 0 .335-.158.335-.353 0-.277-.302-.63-1.118-.74l-.04.053c.252.246.496.616.567.954zM1.75 3.034l.069.052c.277-.334.453-.534.626-.773V5.92h.101c.318 0 .54-.167.54-.206v-.297h2.696c.073 0 .124-.017.142-.068l-.652-.568-.367.51h-.418V4.064h1.145c.078 0 .124-.018.142-.07l-.589-.528-.335.471h-.363V2.76h1.145c.078 0 .124-.018.142-.07l-.589-.534-.335.471h-.363V1.463h1.214c.078 0 .124-.018.142-.069L5.216.82l-.36.51H3.198l-.13-.038c.147-.305.267-.626.374-.927.135-.005.192-.036.222-.097L2.749 0c-.115.947-.508 2.122-.998 3.033zM.078 4.868l.328.823a.226.226 0 0 0 .13-.155c.727-.444 1.36-.868 1.706-1.134l-.024-.073a36.08 36.08 0 0 1-2.14.54zm3.788-.804v1.228h-.778V4.064zm0-1.304v1.177h-.778V2.76zm-.778-.133V1.463h.778v1.164zM3.836 0l-.051.04c.157.262.275.656.258 1.01.54.555 1.262-.59-.207-1.05zM.544 1.812c.39-.416.879-1.005 1.127-1.407.109-.008.175-.043.2-.096L.934.04C.849.496.639 1.22.424 1.8L0 1.756l.284.866a.245.245 0 0 0 .15-.147c.352-.178.547-.291.846-.478-.176.43-.37.913-.6 1.36-.217.008-.42.01-.654.013l.292.85a.219.219 0 0 0 .134-.14 37.045 37.045 0 0 0 1.735-.724l-.012-.09c-.434.037-.881.062-1.326.083.506-.513.996-1.302 1.271-1.797.102 0 .18-.028.217-.094l-.764-.292a9.01 9.01 0 0 1-.245.712c-.209-.008-.553-.045-.784-.067z" style="stroke-width:.264583"/></svg>