<?xml version="1.0" encoding="UTF-8"?>
<svg width="118px" height="11px" viewBox="0 0 118 11" version="1.1" xmlns="http://www.w3.org/2000/svg" xmlns:xlink="http://www.w3.org/1999/xlink">
    <title>ba-tagline</title>
    <g id="Page-1" stroke="none" stroke-width="1" fill="none" fill-rule="evenodd">
        <path d="M7.50631049,6.51122177 L8.51089899,1.53788857 C8.70933622,0.508495415 8.93257907,0.446483779 9.81314334,0.409276797 C9.89995963,0.334862834 9.94956894,0.0744139631 9.88755731,3.55271368e-15 C9.27984423,0.0124023272 8.90777346,0.0248046544 8.27525477,0.0248046544 C7.65513937,0.0248046544 7.29547093,0.0124023272 6.67535457,3.55271368e-15 C6.58853923,0.0744139631 6.53892897,0.334862834 6.6009406,0.409276797 C7.25826394,0.446483779 7.53111514,0.48369076 7.51871281,0.979783848 C7.40709282,1.17822108 7.24586162,1.40146297 7.07222904,1.57509555 L2.81823081,5.81669145 C2.70661082,5.91591007 2.61979358,5.95311705 2.57018427,5.95311705 L3.46315183,1.53788857 C3.66158906,0.508495415 3.8848319,0.446483779 4.76539618,0.409276797 C4.85221247,0.334862834 4.90182178,0.0744139631 4.83981014,3.55271368e-15 C4.23209706,0.0124023272 3.8600263,0.0248046544 3.22750761,0.0248046544 C2.6073922,0.0248046544 2.24772376,0.0124023272 1.6276074,3.55271368e-15 C1.54079207,0.0744139631 1.4911818,0.334862834 1.55319344,0.409276797 C2.40895401,0.446483779 2.60739125,0.508495415 2.40895401,1.53788857 L1.40436551,6.51122177 C1.20592923,7.54061493 0.982686388,7.60262656 0.102121158,7.63983355 C0.0153058218,7.71424751 -0.034304441,7.97469638 0.0277071949,8.04911034 C0.635421227,8.03670802 1.007492,8.02430569 1.64000973,8.02430569 C2.26012609,8.02430569 2.61979453,8.03670802 3.23990994,8.04911034 C3.32672623,7.97469638 3.37633553,7.71424751 3.3143239,7.63983355 C2.64459918,7.61502889 2.35934471,7.56541958 2.38414936,7.05692417 C2.52057496,6.75926832 2.66940384,6.6600497 2.85543779,6.47401479 L7.08463136,2.25722355 C7.15904533,2.18280958 7.23346024,2.13320028 7.34508023,2.09599329 L6.45211268,6.51122177 C6.2536764,7.54061493 6.03043355,7.60262656 5.14986832,7.63983355 C5.06305299,7.71424751 5.01344272,7.97469638 5.07545436,8.04911034 C5.68316839,8.03670802 6.05523916,8.02430569 6.68775689,8.02430569 C7.30787325,8.02430569 7.66754169,8.03670802 8.2876571,8.04911034 C8.37447339,7.97469638 8.4240827,7.71424751 8.36207106,7.63983355 C7.50631144,7.60262656 7.30787421,7.54061493 7.50631049,6.51122177 M11.4990852,4.16718193 C11.908361,3.50985859 12.59049,3.1501911 13.0121691,3.1501911 C13.7687101,3.1501911 14.1531832,3.94394004 13.8555273,5.44462163 C13.6322854,6.51122177 13.1609961,7.72664984 11.833948,7.72664984 C11.6355108,7.72664984 11.226234,7.70184518 10.8913711,7.19334977 L11.4990852,4.16718193 M11.796741,2.70370733 L11.7719364,2.67890267 C11.7719364,2.67890267 11.4866828,2.70370733 11.3130503,2.70370733 C10.8789688,2.70370733 10.0356106,2.67890267 10.0356106,2.67890267 L10.0108059,2.70370733 L9.9611966,2.93935154 C9.94879427,3.00136318 9.97359893,3.03857016 10.0356106,3.03857016 L10.2712548,3.06337481 C10.6681293,3.11298412 10.7673479,3.26181205 10.6929339,3.60907721 L9.41549421,9.99627571 C9.35348257,10.3435409 9.14264301,10.5047711 8.77057319,10.5419781 L8.53492898,10.5667828 C8.47291734,10.5791851 8.42330803,10.6039897 8.4109057,10.6660014 L8.37369872,10.9016456 L8.38610105,10.9264502 C8.38610105,10.9264502 9.24186162,10.9016456 9.67594308,10.9016456 C10.1596329,10.9016456 11.0029921,10.9264502 11.0029921,10.9264502 L11.0401991,10.9016456 L11.077406,10.6660014 C11.0898084,10.6039897 11.0526014,10.5791851 10.9905898,10.5667828 L10.7549455,10.5419781 C10.3704734,10.5047711 10.2712548,10.3435409 10.3332664,9.99627571 L10.7549455,7.87547776 C11.0526014,8.04911034 11.3750619,8.14832896 11.8215457,8.14832896 C12.4664657,8.14832896 13.0245724,7.9374894 13.6074808,7.45379864 C14.2772055,6.88329159 14.7484949,6.1143473 14.9469321,5.1097588 C15.207381,3.79511212 14.6616777,2.57968405 13.4586529,2.57968405 C13.0617784,2.57968405 12.3672471,2.70370733 11.6231084,3.57187023 L11.5859015,3.57187023 L11.796741,2.70370733 M17.1640418,4.52684942 C17.6849395,3.12538645 18.5779071,3.01376551 18.8755629,3.01376551 C19.3468514,3.01376551 19.8553468,3.27421438 19.6445072,4.31600986 C19.6197026,4.4276308 19.5576909,4.48964244 19.4212653,4.48964244 L17.1640418,4.52684942 M19.9545654,6.87088926 C19.3964616,7.34217769 18.9995853,7.54061493 18.2802512,7.54061493 C17.8337684,7.54061493 17.362479,7.28016606 17.1020301,6.64764737 C16.9407999,6.23837057 16.9035929,5.66786352 17.0524208,4.94852855 L20.3390375,4.9733332 C20.4878655,4.9733332 20.5870841,4.89891924 20.6242911,4.76249364 C20.8227283,3.72069816 20.6738985,2.60448871 18.9499769,2.60448871 C17.8709754,2.60448871 16.2710742,3.63388187 15.8866021,5.5190356 C15.7501765,6.21356592 15.7873835,6.88329159 16.109844,7.35458002 C16.4323045,7.85067311 16.9532032,8.14832896 17.8461698,8.14832896 C18.7887457,8.14832896 19.5452896,7.71424751 20.165405,7.0693265 C20.1530026,6.94530322 20.090991,6.88329159 19.9545654,6.87088926 M20.8756319,8.02430569 L20.9004365,8.04911034 C20.9004365,8.04911034 21.7437957,8.02430569 22.1778762,8.02430569 C22.661567,8.02430569 23.3809019,8.04911034 23.3809019,8.04911034 L23.4057066,8.02430569 L23.4553159,7.78866147 C23.4677182,7.72664984 23.4181089,7.70184518 23.3684996,7.68944285 C23.1080508,7.65223587 22.7483833,7.57782191 22.8351996,7.16854511 L23.1824647,5.43221931 C24.100236,5.49423094 24.2862718,5.94071472 24.3854905,6.62284272 C24.4599044,7.16854511 24.6707449,8.02430569 25.2908603,8.03670802 L26.1838279,8.04911034 L26.2210349,8.02430569 L26.2706442,7.8010638 C26.2830465,7.71424751 26.1962302,7.68944285 26.1466209,7.68944285 L26.0598046,7.67704053 C25.6257241,7.61502889 25.3280673,6.53602643 25.2288487,6.06473799 C25.0924231,5.45702396 24.6955477,5.18417276 24.025823,5.18417276 L24.0382253,5.13456345 C24.5219161,4.99813786 24.8939859,4.57645873 25.1792394,4.08036564 C25.390079,3.6958935 25.6753325,3.4230423 25.7993558,3.4230423 C25.9109767,3.4230423 25.997793,3.46024928 26.0598046,3.50985859 C26.1342186,3.57187023 26.2334372,3.62147954 26.3822651,3.62147954 C26.642714,3.62147954 26.9031629,3.39823765 26.9527722,3.1501911 C27.0023815,2.85253525 26.9279675,2.59208638 26.4194721,2.59208638 C25.8241614,2.59208638 25.2908603,3.26181205 24.9435952,3.84472143 C24.5343193,4.52684942 24.100236,4.99813786 23.269281,4.99813786 L23.5545345,3.58427256 C23.6413508,3.13778878 23.914203,3.07577714 24.2738695,3.03857016 C24.3234788,3.03857016 24.3854905,2.97655852 24.3978928,2.91454689 L24.4475021,2.70370733 L24.4226974,2.67890267 C24.4226974,2.67890267 23.7281671,2.70370733 23.2444764,2.70370733 C22.8103959,2.70370733 21.9670367,2.67890267 21.9670367,2.67890267 L21.942232,2.70370733 L21.8926227,2.93935154 C21.8802204,3.00136318 21.9174273,3.02616783 21.9670367,3.03857016 L22.2026809,3.06337481 C22.587153,3.1005818 22.6863716,3.26181205 22.6119577,3.60907721 L21.905025,7.14374046 C21.8430134,7.49100562 21.7313924,7.61502889 21.2849087,7.6646382 L21.0368621,7.68944285 C20.9748505,7.70184518 20.9376435,7.72664984 20.9252412,7.78866147 L20.8756319,8.02430569 M26.5504722,7.45379864 C26.4760582,7.83827078 26.7365071,8.17313361 27.2822095,8.17313361 C27.8775203,8.17313361 28.2743957,7.86307544 28.6836722,7.18094744 C29.0309369,6.58563574 29.3533979,5.32059836 29.5146281,4.47724011 C29.7130651,3.50985859 29.8122844,3.18739809 30.2835724,3.18739809 L30.8416771,3.18739809 C31.2881604,3.18739809 31.3005631,3.36103067 31.2137469,3.78270979 L30.5564236,7.10653348 C30.4820097,7.46620097 30.3579859,7.61502889 29.9115025,7.6646382 L29.663456,7.68944285 C29.6014444,7.70184518 29.5642374,7.72664984 29.5518351,7.78866147 L29.5022258,8.02430569 L29.5270304,8.04911034 C29.5270304,8.04911034 30.370389,8.02430569 30.8168724,8.02430569 C31.3005627,8.02430569 32.1439214,8.04911034 32.1439214,8.04911034 L32.1687261,8.02430569 L32.2183354,7.78866147 C32.2307377,7.72664984 32.1811283,7.68944285 32.1315191,7.68944285 L31.9082772,7.6646382 C31.5114031,7.62743122 31.4121842,7.46620097 31.4865981,7.10653348 L32.1811284,3.64628419 C32.2679446,3.17499576 32.3175545,3.1005818 32.8012448,3.06337481 L33.1485099,3.03857016 C33.2229238,3.03857016 33.2601309,3.01376551 33.2725332,2.95175387 L33.3221425,2.70370733 L33.2849355,2.67890267 C33.2849355,2.67890267 32.4415767,2.70370733 31.9082772,2.70370733 L29.7502723,2.70370733 C29.2541797,2.70370733 28.4728326,2.67890267 28.4728326,2.67890267 L28.4356256,2.70370733 L28.3984186,2.90214456 C28.373614,3.01376551 28.4232235,3.02616783 28.6216605,3.03857016 C29.3161901,3.08817947 29.3161906,3.26181205 29.055742,4.5640564 C28.7952933,5.86630076 28.5596486,6.54842875 28.2992,7.05692417 C28.0511537,7.50340795 27.8279114,7.6646382 27.6294743,7.6646382 C27.4806465,7.6646382 27.4434394,7.56541958 27.4558418,7.40418933 C27.4682441,7.18094744 27.4558414,6.9329009 27.1209792,6.9329009 C26.8233234,6.9329009 26.6124838,7.18094744 26.5504722,7.45379864 M34.8470474,4.52684942 C35.3679446,3.12538645 36.260913,3.01376551 36.5585685,3.01376551 C37.0298565,3.01376551 37.5383522,3.27421438 37.3275128,4.31600986 C37.3027082,4.4276308 37.2406964,4.48964244 37.1042709,4.48964244 L34.8470474,4.52684942 M37.637571,6.87088926 C37.0794668,7.34217769 36.6825911,7.54061493 35.9632568,7.54061493 C35.5167735,7.54061493 35.0454843,7.28016606 34.7850357,6.64764737 C34.6238057,6.23837057 34.5865987,5.66786352 34.7354264,4.94852855 L38.0220431,4.9733332 C38.1708709,4.9733332 38.2700897,4.89891924 38.3072967,4.76249364 C38.5057337,3.72069816 38.3569043,2.60448871 36.6329825,2.60448871 C35.5539811,2.60448871 33.9540794,3.63388187 33.5696077,5.5190356 C33.4331822,6.21356592 33.4703894,6.88329159 33.7928496,7.35458002 C34.1153098,7.85067311 34.6362087,8.14832896 35.5291754,8.14832896 C36.4717513,8.14832896 37.2282948,7.71424751 37.8484106,7.0693265 C37.8360082,6.94530322 37.7739965,6.88329159 37.637571,6.87088926 M41.8948636,7.00731486 C41.7708405,7.6646382 42.5521881,8.14832896 43.6807987,8.14832896 C44.9086278,8.14832896 46.3224948,7.28016606 46.7193685,5.28339138 C47.0170243,3.78270979 46.5581373,2.57968405 44.9086291,2.57968405 C44.3257203,2.57968405 43.7800167,2.77812129 43.1599009,2.81532827 C43.0234755,3.2866167 42.8870496,3.70829583 42.6390032,4.30360753 L42.9366591,4.35321684 C43.3087285,3.5594679 43.8172252,2.9641562 44.7349965,2.9641562 C45.8388026,2.9641562 45.9876314,4.03075634 45.7643897,5.17177044 L45.7271827,5.19657509 C45.4419294,4.99813786 45.1318706,4.84930993 44.7722035,4.84930993 C44.238904,4.84930993 43.8420286,5.19657509 43.4079475,5.19657509 C43.2467174,5.19657509 43.1102915,5.12216113 43.0234753,5.12216113 C42.9490615,5.12216113 42.8994521,5.2461844 42.8870497,5.29579371 C42.8498429,5.46942629 43.3831434,5.69266818 43.9164429,5.69266818 C44.4745471,5.69266818 44.7473993,5.41981698 45.2186873,5.41981698 C45.3799174,5.41981698 45.5287456,5.46942629 45.665171,5.53143792 C45.3675155,7.00731486 44.6729838,7.73905216 43.6311894,7.73905216 C43.1350968,7.73905216 42.8498427,7.44139631 42.7754288,7.10653348 C42.663808,6.72206133 42.5397844,6.64764737 42.328945,6.64764737 C42.1057034,6.64764737 41.9444729,6.80887762 41.8948636,7.00731486 M51.5518198,7.0693265 C51.4650035,7.54061493 51.3781863,7.63983355 50.9317035,7.6646382 L50.5968406,7.68944285 C50.5596336,7.70184518 50.534829,7.71424751 50.5224267,7.75145449 L50.4728173,8.02430569 L50.4852197,8.04911034 C50.8572885,8.03670802 51.3781872,8.02430569 51.824671,8.02430569 C52.2835562,8.02430569 52.7300409,8.03670802 53.1021107,8.04911034 L53.1269154,8.02430569 L53.1765247,7.76385682 C53.188927,7.71424751 53.1641214,7.70184518 53.114513,7.68944285 L52.8788688,7.6646382 C52.4571897,7.62743122 52.3827757,7.56541958 52.4819944,7.0693265 L53.1765247,3.64628419 C53.2757423,3.13778878 53.3625596,3.11298412 53.796641,3.06337481 L54.0446876,3.03857016 C54.0942959,3.03857016 54.1315039,3.01376551 54.1439062,2.9641562 L54.1935155,2.70370733 L54.1811132,2.67890267 C53.8090434,2.691305 53.3501563,2.70370733 52.8912712,2.70370733 C52.4447874,2.70370733 51.936291,2.691305 51.5642221,2.67890267 L51.5394175,2.70370733 L51.4774059,2.97655852 C51.4774059,3.02616783 51.4898082,3.03857016 51.5270152,3.03857016 L51.8494757,3.06337481 C52.2339469,3.1005818 52.3331655,3.17499576 52.2463501,3.64628419 L51.9734989,4.9733332 L49.4310219,4.9733332 L49.7038731,3.64628419 C49.8030907,3.13778878 49.889908,3.11298412 50.3239894,3.06337481 L50.572036,3.03857016 C50.6216443,3.03857016 50.6588523,3.01376551 50.6712546,2.9641562 L50.7208639,2.70370733 L50.7084616,2.67890267 C50.3363918,2.691305 49.8651024,2.70370733 49.4062172,2.70370733 C48.9597334,2.70370733 48.4636394,2.691305 48.0915705,2.67890267 L48.0667659,2.70370733 L48.0047542,2.97655852 C48.0047542,3.02616783 48.0171566,3.03857016 48.0543635,3.03857016 L48.3768241,3.06337481 C48.7612952,3.1005818 48.8605139,3.17499576 48.7736985,3.64628419 L48.0791682,7.0693265 C47.9923519,7.54061493 47.9055347,7.63983355 47.4590518,7.6646382 L47.124189,7.68944285 C47.086982,7.70184518 47.0621774,7.71424751 47.049775,7.75145449 L47.0001657,8.02430569 L47.0125681,8.04911034 C47.3846369,8.03670802 47.8931333,8.02430569 48.3396171,8.02430569 C48.7985022,8.02430569 49.2573893,8.03670802 49.6294591,8.04911034 L49.6542638,8.02430569 L49.7038731,7.76385682 C49.7162754,7.71424751 49.6914698,7.70184518 49.6418614,7.68944285 L49.4062172,7.6646382 C48.9845381,7.62743122 48.9101241,7.56541958 49.0093427,7.0693265 L49.3442056,5.39501233 L51.8866826,5.39501233 L51.5518198,7.0693265 M59.0507706,3.65868652 L58.4058495,6.9329009 C58.3190333,7.35458002 58.2446183,7.54061493 57.7857332,7.54061493 L56.2974539,7.54061493 C55.8633725,7.54061493 55.8261655,7.391787 55.9253841,6.9329009 L56.5827074,3.64628419 C56.6819261,3.13778878 56.75634,3.11298412 57.1904215,3.06337481 L57.4508703,3.03857016 C57.5004797,3.03857016 57.5376866,3.01376551 57.550089,2.9641562 L57.5996983,2.70370733 L57.5748936,2.67890267 C57.5748936,2.67890267 56.7811437,2.70370733 56.2850516,2.70370733 C55.7641539,2.70370733 54.9580026,2.67890267 54.9580026,2.67890267 L54.9456003,2.70370733 L54.8835886,2.97655852 C54.8835886,3.02616783 54.8959909,3.03857016 54.9456003,3.03857016 L55.2680608,3.06337481 C55.6773366,3.1005818 55.7393492,3.17499576 55.6525329,3.64628419 L54.9580026,7.1189358 C54.858784,7.60262656 54.784369,7.61502889 54.3502886,7.6646382 L54.1270467,7.68944285 C54.0898397,7.70184518 54.065035,7.71424751 54.0526327,7.76385682 L54.0030234,8.02430569 L54.027828,8.04911034 C54.027828,8.04911034 54.8091747,8.02430569 55.1812445,8.02430569 L58.19501,8.02430569 C59.1747929,8.02430569 59.3484264,9.01649186 59.3608287,9.6242059 L59.6708869,9.61180357 L59.9313358,7.96229405 C59.9561404,7.75145449 59.8321162,7.72664984 59.6212776,7.68944285 C59.410438,7.65223587 59.2244031,7.45379864 59.2988171,7.08172882 L59.9809451,3.65868652 C60.092566,3.1501911 60.1793823,3.1005818 60.6134638,3.06337481 L60.923522,3.03857016 C60.9731313,3.03857016 61.0103383,3.01376551 61.0103383,2.97655852 L61.0723499,2.70370733 L61.0475452,2.67890267 C61.0475452,2.67890267 60.2289907,2.70370733 59.7080939,2.70370733 C59.2120008,2.70370733 58.4430565,2.67890267 58.4430565,2.67890267 L58.4306542,2.70370733 L58.3686426,2.97655852 C58.3686426,3.02616783 58.3810449,3.03857016 58.4182519,3.03857016 L58.6787007,3.06337481 C59.0879766,3.11298412 59.1499892,3.17499576 59.0507706,3.65868652 M63.2270606,2.70370733 C62.6937605,2.70370733 61.8752069,2.67890267 61.8752069,2.67890267 L61.8379999,2.70370733 L61.7759883,2.97655852 C61.7759883,3.02616783 61.7883906,3.03857016 61.8379999,3.03857016 L62.2100697,3.06337481 C62.6565526,3.1005818 62.6813572,3.19980041 62.5697372,3.72069816 L61.9000116,7.0693265 C61.8131953,7.50340795 61.7511827,7.63983355 61.2922975,7.6646382 L60.8954231,7.68944285 C60.8582161,7.70184518 60.8334114,7.71424751 60.8210091,7.75145449 L60.7713998,8.02430569 L60.7838021,8.04911034 C61.2798942,8.03670802 61.6271604,8.02430569 62.1604604,8.02430569 C62.5573339,8.02430569 62.6689558,8.03670802 63.1650489,8.04911034 L63.1774513,8.02430569 L63.2270606,7.76385682 C63.2394629,7.71424751 63.2146573,7.70184518 63.1650489,7.68944285 C62.7557721,7.65223587 62.7433698,7.51581027 62.8053814,7.21815442 L62.8053814,7.19334977 L65.9803772,4.11757263 L65.3974678,7.04452184 C65.3106515,7.47860329 65.2238343,7.63983355 64.7649491,7.6646382 L64.3680747,7.68944285 C64.3308677,7.70184518 64.306063,7.71424751 64.2936607,7.75145449 L64.2440514,8.02430569 L64.2688561,8.04911034 C64.7649482,8.03670802 65.099812,8.02430569 65.633112,8.02430569 C66.1912158,8.02430569 66.5632866,8.03670802 67.0593797,8.04911034 L67.071782,8.02430569 L67.1213913,7.76385682 C67.1337936,7.71424751 67.108988,7.70184518 67.0593797,7.68944285 L66.6997122,7.6646382 C66.2656307,7.63983355 66.2284237,7.50340795 66.3276424,7.04452184 L66.997368,3.70829583 C67.0965857,3.18739809 67.146196,3.1005818 67.6174844,3.06337481 L67.9895542,3.03857016 C68.0391626,3.03857016 68.0763705,3.01376551 68.0887728,2.9641562 L68.1383821,2.70370733 L68.1259798,2.67890267 C68.1259798,2.67890267 67.2578159,2.70370733 66.6997122,2.70370733 C66.352447,2.70370733 65.7943423,2.67890267 65.7943423,2.67890267 L65.7695376,2.70370733 L65.707526,2.97655852 C65.707526,3.02616783 65.7199283,3.03857016 65.7571353,3.03857016 C66.1788135,3.07577714 66.1416065,3.2866167 66.0919981,3.58427256 L62.9170024,6.6600497 L63.5123141,3.70829583 C63.6115318,3.19980041 63.661142,3.1005818 64.1448328,3.06337481 L64.5169026,3.03857016 C64.5665109,3.03857016 64.6037189,3.01376551 64.6161212,2.9641562 L64.6657305,2.70370733 L64.6409259,2.67890267 C64.6409259,2.67890267 63.772762,2.70370733 63.2270606,2.70370733 M67.9172715,8.02430569 L67.9420762,8.04911034 C67.9420762,8.04911034 68.7854344,8.02430569 69.2195159,8.02430569 C69.7032057,8.02430569 70.4225416,8.04911034 70.4225416,8.04911034 L70.4473463,8.02430569 L70.4969556,7.78866147 C70.5093579,7.72664984 70.4597486,7.70184518 70.4101393,7.68944285 C70.1496904,7.65223587 69.7900229,7.57782191 69.8768392,7.16854511 L70.2241044,5.43221931 C71.1418756,5.49423094 71.3279115,5.94071472 71.4271301,6.62284272 C71.5015441,7.16854511 71.7123846,8.02430569 72.3325,8.03670802 L73.2254676,8.04911034 L73.2626746,8.02430569 L73.3122839,7.8010638 C73.3246862,7.71424751 73.2378699,7.68944285 73.1882606,7.68944285 L73.1014443,7.67704053 C72.6673628,7.61502889 72.369707,6.53602643 72.2704884,6.06473799 C72.1340628,5.45702396 71.7371874,5.18417276 71.0674626,5.18417276 L71.079865,5.13456345 C71.5635548,4.99813786 71.9356255,4.57645873 72.2208791,4.08036564 C72.4317186,3.6958935 72.7169722,3.4230423 72.8409954,3.4230423 C72.9526164,3.4230423 73.0394327,3.46024928 73.1014443,3.50985859 C73.1758583,3.57187023 73.2750769,3.62147954 73.4239048,3.62147954 C73.6843537,3.62147954 73.9448025,3.39823765 73.9944119,3.1501911 C74.0440212,2.85253525 73.9696062,2.59208638 73.4611118,2.59208638 C72.865801,2.59208638 72.3325,3.26181205 71.9852349,3.84472143 C71.5759581,4.52684942 71.1418756,4.99813786 70.3109207,4.99813786 L70.5961742,3.58427256 C70.6829905,3.13778878 70.9558417,3.07577714 71.3155092,3.03857016 C71.3651185,3.03857016 71.4271301,2.97655852 71.4395325,2.91454689 L71.4891418,2.70370733 L71.4643371,2.67890267 C71.4643371,2.67890267 70.7698058,2.70370733 70.286116,2.70370733 C69.8520346,2.70370733 69.0086763,2.67890267 69.0086763,2.67890267 L68.9838717,2.70370733 L68.9342624,2.93935154 C68.92186,3.00136318 68.959067,3.02616783 69.0086763,3.03857016 L69.2443205,3.06337481 C69.6287927,3.1005818 69.7280113,3.26181205 69.6535973,3.60907721 L68.9466647,7.14374046 C68.8846531,7.49100562 68.7730312,7.61502889 68.3265483,7.6646382 L68.0785018,7.68944285 C68.0164902,7.70184518 67.9792832,7.72664984 67.9668808,7.78866147 L67.9172715,8.02430569 M73.5921109,7.45379864 C73.5176979,7.83827078 73.7781468,8.17313361 74.3238482,8.17313361 C74.9191599,8.17313361 75.3160353,7.86307544 75.7253112,7.18094744 C76.0725763,6.58563574 76.3950378,5.32059836 76.5562671,4.47724011 C76.7547043,3.50985859 76.8539239,3.18739809 77.3252114,3.18739809 L77.8833161,3.18739809 C78.3297999,3.18739809 78.3422022,3.36103067 78.2553859,3.78270979 L77.5980626,7.10653348 C77.5236496,7.46620097 77.3996253,7.61502889 76.9531416,7.6646382 L76.705095,7.68944285 C76.6430834,7.70184518 76.6058764,7.72664984 76.5934741,7.78866147 L76.5438648,8.02430569 L76.5686694,8.04911034 C76.5686694,8.04911034 77.4120286,8.02430569 77.8585114,8.02430569 C78.3422022,8.02430569 79.1855605,8.04911034 79.1855605,8.04911034 L79.2103651,8.02430569 L79.2599744,7.78866147 C79.2723767,7.72664984 79.2227674,7.68944285 79.1731581,7.68944285 L78.9499162,7.6646382 C78.5530427,7.62743122 78.4538241,7.46620097 78.5282371,7.10653348 L79.2227674,3.64628419 C79.3095837,3.17499576 79.359194,3.1005818 79.8428838,3.06337481 L80.190149,3.03857016 C80.2645629,3.03857016 80.3017699,3.01376551 80.3141722,2.95175387 L80.3637815,2.70370733 L80.3265746,2.67890267 C80.3265746,2.67890267 79.4832163,2.70370733 78.9499162,2.70370733 L76.7919113,2.70370733 C76.2958192,2.70370733 75.5144716,2.67890267 75.5144716,2.67890267 L75.4772646,2.70370733 L75.4400576,2.90214456 C75.415253,3.01376551 75.4648633,3.02616783 75.6632995,3.03857016 C76.3578299,3.08817947 76.3578299,3.26181205 76.097381,4.5640564 C75.8369331,5.86630076 75.6012879,6.54842875 75.340839,7.05692417 C75.0927934,7.50340795 74.8695506,7.6646382 74.6711134,7.6646382 C74.5222864,7.6646382 74.4850784,7.56541958 74.4974808,7.40418933 C74.5098831,7.18094744 74.4974808,6.9329009 74.1626179,6.9329009 C73.864963,6.9329009 73.6541225,7.18094744 73.5921109,7.45379864 M80.6732587,5.48182862 C80.4252122,6.74686599 80.9957211,8.14832896 82.7444474,8.14832896 C84.5923922,8.14832896 85.6837989,6.61044039 85.9318454,5.37020767 C86.1922943,4.08036564 85.8078203,2.57968405 83.8854615,2.57968405 C82.2111492,2.57968405 80.9833169,3.90673306 80.6732587,5.48182862 M83.6622196,2.98896085 C84.7288187,2.98896085 85.1504988,3.94394004 84.778429,5.76708214 C84.4559685,7.40418933 83.637414,7.73905216 83.0545055,7.73905216 C81.7646645,7.73905216 81.6034333,6.15155428 81.8018705,5.19657509 C82.01271,4.11757263 82.620425,2.98896085 83.6622196,2.98896085 M88.0886874,3.67108885 L87.4065594,7.08172882 C87.3197431,7.51581027 87.2205245,7.63983355 86.7864431,7.6646382 L86.4019709,7.68944285 C86.3523616,7.70184518 86.327557,7.71424751 86.3151546,7.75145449 L86.2655453,8.02430569 L86.29035,8.04911034 C86.29035,8.04911034 87.1337092,8.02430569 87.6794106,8.02430569 C88.2003084,8.02430569 89.0312643,8.04911034 89.0312643,8.04911034 L89.0436666,8.02430569 L89.0932759,7.76385682 C89.1056782,7.71424751 89.0808736,7.70184518 89.0436666,7.68944285 L88.7212061,7.6646382 C88.2995279,7.63983355 88.2499177,7.55301726 88.336734,7.08172882 L89.018862,3.67108885 C89.1056782,3.2370074 89.3661281,3.18739809 89.626576,3.18739809 L91.1272576,3.18739809 C91.3753041,3.18739809 91.635753,3.21220274 91.5365344,3.67108885 L90.8544064,7.08172882 C90.7675901,7.51581027 90.6683715,7.63983355 90.23429,7.6646382 L89.8870249,7.68944285 C89.8498179,7.70184518 89.8250132,7.71424751 89.8126109,7.75145449 L89.7630016,8.02430569 L89.7754039,8.04911034 C89.7754039,8.04911034 90.6063608,8.02430569 91.1396599,8.02430569 C91.67296,8.02430569 92.5287205,8.04911034 92.5287205,8.04911034 L92.5411229,8.02430569 L92.5907322,7.76385682 C92.6031345,7.71424751 92.5783299,7.70184518 92.5287205,7.68944285 L92.1690531,7.6646382 C91.7349726,7.63983355 91.6853623,7.55301726 91.7721786,7.08172882 L92.4543066,3.65868652 C92.5659275,3.1501911 92.6031355,3.1005818 93.0868253,3.06337481 L93.4588951,3.03857016 C93.5085044,3.03857016 93.5457114,3.01376551 93.5581137,2.9641562 L93.607723,2.70370733 L93.5953207,2.67890267 C93.5953207,2.67890267 92.7271578,2.70370733 92.1690531,2.70370733 L88.7336084,2.70370733 C88.2003093,2.70370733 87.3693524,2.67890267 87.3693524,2.67890267 L87.3445478,2.70370733 L87.2825361,2.97655852 C87.2825361,3.02616783 87.2949385,3.03857016 87.3321455,3.03857016 L87.7042153,3.06337481 C88.1258944,3.1005818 88.2003084,3.1501911 88.0886874,3.67108885 M95.1388294,4.52684942 C95.6597262,3.12538645 96.5526947,3.01376551 96.8503506,3.01376551 C97.321638,3.01376551 97.8301344,3.27421438 97.6192949,4.31600986 C97.5944902,4.4276308 97.5324786,4.48964244 97.396053,4.48964244 L95.1388294,4.52684942 M97.929353,6.87088926 C97.3712493,7.34217769 96.9743729,7.54061493 96.2550389,7.54061493 C95.8085551,7.54061493 95.3372667,7.28016606 95.0768178,6.64764737 C94.9155875,6.23837057 94.8783805,5.66786352 95.0272085,4.94852855 L98.3138252,4.9733332 C98.4626531,4.9733332 98.5618717,4.89891924 98.5990787,4.76249364 C98.7975159,3.72069816 98.6486861,2.60448871 96.9247645,2.60448871 C95.845763,2.60448871 94.2458619,3.63388187 93.8613897,5.5190356 C93.7249641,6.21356592 93.7621711,6.88329159 94.0846316,7.35458002 C94.4070921,7.85067311 94.9279908,8.14832896 95.8209574,8.14832896 C96.7635333,8.14832896 97.5200772,7.71424751 98.1401926,7.0693265 C98.1277903,6.94530322 98.0657786,6.88329159 97.929353,6.87088926 M98.4287404,9.61180357 L98.7512009,9.6242059 C98.9496381,9.16531979 99.4953415,8.02430569 100.537136,8.02430569 L102.546313,8.02430569 C103.575705,8.02430569 103.712132,9.11571048 103.712132,9.61180357 L104.02219,9.61180357 L104.282639,7.94989173 C104.319846,7.77625914 104.245432,7.73905216 104.02219,7.68944285 C103.823753,7.65223587 103.563304,7.54061493 103.65012,7.08172882 L104.34465,3.64628419 C104.419064,3.22460507 104.567893,3.12538645 105.026778,3.06337481 L105.237618,3.03857016 C105.274825,3.03857016 105.336837,3.00136318 105.349239,2.95175387 L105.398848,2.70370733 L105.386446,2.67890267 C105.386446,2.67890267 104.481076,2.70370733 104.071799,2.70370733 L101.715357,2.70370733 C101.504518,2.70370733 100.537136,2.67890267 100.537136,2.67890267 L100.499929,2.70370733 L100.437917,2.97655852 C100.437917,3.02616783 100.462722,3.03857016 100.512331,3.03857016 L100.847194,3.06337481 C101.268873,3.1005818 101.293678,3.34862834 101.268873,3.49745627 C100.971217,4.9733332 100.512331,6.10194497 100.07825,7.15614279 C99.9418243,7.49100562 99.5697545,7.65223587 99.2348916,7.68944285 C99.0612591,7.71424751 98.9000288,7.73905216 98.8380172,7.96229405 L98.4287404,9.61180357 M100.45032,7.391787 C100.499929,7.18094744 100.971218,6.32518686 101.715357,3.49745627 C101.727759,3.44784696 101.83938,3.17499576 102.124634,3.17499576 L103.005199,3.17499576 C103.464085,3.17499576 103.464085,3.36103067 103.377269,3.78270979 L102.757153,6.9329009 C102.670336,7.34217769 102.595922,7.54061493 102.137036,7.54061493 L100.661159,7.54061493 C100.537136,7.54061493 100.425515,7.5282126 100.45032,7.391787 M107.579914,2.70370733 C107.046614,2.70370733 106.22806,2.67890267 106.22806,2.67890267 L106.190853,2.70370733 L106.128842,2.97655852 C106.128842,3.02616783 106.141244,3.03857016 106.190853,3.03857016 L106.562923,3.06337481 C107.009406,3.1005818 107.034211,3.19980041 106.922591,3.72069816 L106.252865,7.0693265 C106.166049,7.50340795 106.104036,7.63983355 105.645151,7.6646382 L105.248276,7.68944285 C105.211069,7.70184518 105.186265,7.71424751 105.173862,7.75145449 L105.124253,8.02430569 L105.136655,8.04911034 C105.632748,8.03670802 105.980014,8.02430569 106.513314,8.02430569 C106.910188,8.02430569 107.021809,8.03670802 107.517902,8.04911034 L107.530305,8.02430569 L107.579914,7.76385682 C107.592316,7.71424751 107.567512,7.70184518 107.517902,7.68944285 C107.108625,7.65223587 107.096223,7.51581027 107.158235,7.21815442 L107.158235,7.19334977 L110.333231,4.11757263 L109.750321,7.04452184 C109.663505,7.47860329 109.576688,7.63983355 109.117802,7.6646382 L108.720928,7.68944285 C108.683721,7.70184518 108.658916,7.71424751 108.646514,7.75145449 L108.596905,8.02430569 L108.621709,8.04911034 C109.117801,8.03670802 109.452665,8.02430569 109.985965,8.02430569 C110.544069,8.02430569 110.91614,8.03670802 111.412233,8.04911034 L111.424635,8.02430569 L111.474245,7.76385682 C111.486647,7.71424751 111.461842,7.70184518 111.412233,7.68944285 L111.052565,7.6646382 C110.618484,7.63983355 110.581277,7.50340795 110.680496,7.04452184 L111.350221,3.70829583 C111.44944,3.18739809 111.499049,3.1005818 111.970338,3.06337481 L112.342408,3.03857016 C112.392017,3.03857016 112.429224,3.01376551 112.441626,2.9641562 L112.491235,2.70370733 L112.478833,2.67890267 C112.478833,2.67890267 111.610669,2.70370733 111.052565,2.70370733 C110.7053,2.70370733 110.147196,2.67890267 110.147196,2.67890267 L110.122391,2.70370733 L110.060379,2.97655852 C110.060379,3.02616783 110.072782,3.03857016 110.109989,3.03857016 C110.531667,3.07577714 110.494461,3.2866167 110.444851,3.58427256 L107.269856,6.6600497 L107.865167,3.70829583 C107.964386,3.19980041 108.013995,3.1005818 108.497686,3.06337481 L108.869756,3.03857016 C108.919365,3.03857016 108.956572,3.01376551 108.968975,2.9641562 L109.018584,2.70370733 L108.993779,2.67890267 C108.993779,2.67890267 108.125615,2.70370733 107.579914,2.70370733 M112.046883,8.02430569 L112.08409,8.04911034 L112.865437,8.03670802 C113.262311,8.02430569 113.770807,7.5282126 114.118072,6.92049857 C114.576958,6.1143473 115.023442,5.59344956 115.519535,5.59344956 L115.829593,5.59344956 L115.531937,7.0693265 C115.445121,7.55301726 115.395511,7.65223587 114.986234,7.67704053 L114.787797,7.68944285 C114.738188,7.68944285 114.713383,7.72664984 114.700981,7.77625914 L114.651372,8.04911034 C114.651372,8.04911034 115.358305,8.02430569 115.804788,8.02430569 C116.23887,8.02430569 116.9334,8.04911034 116.9334,8.04911034 L116.983009,7.8010638 C116.983009,7.77625914 116.970607,7.68944285 116.871388,7.68944285 L116.610939,7.67704053 C116.412503,7.6646382 116.4001,7.391787 116.462111,7.0693265 L117.193849,3.43544463 C117.243458,3.17499576 117.35508,3.07577714 117.578321,3.06337481 L117.888379,3.03857016 C117.913184,3.03857016 117.937988,3.02616783 117.937988,3.00136318 L118,2.70370733 L117.975195,2.67890267 C117.975195,2.67890267 117.317872,2.70370733 116.896193,2.70370733 C116.499319,2.70370733 116.821778,2.67890267 115.879202,2.67890267 C113.758407,2.67890267 113.423541,3.81991677 113.349127,4.17958426 C113.175495,5.06014949 113.994049,5.49423094 114.676176,5.49423094 L114.663774,5.53143792 C114.304107,5.59344956 113.832818,5.89110541 113.52276,6.39960083 C113.237507,6.85848693 112.679402,7.63983355 112.344539,7.67704053 L112.232918,7.68944285 C112.183309,7.68944285 112.108895,7.70184518 112.096492,7.78866147 L112.046883,8.02430569 M114.304106,4.04315866 C114.42813,3.46024928 114.700982,3.03857016 115.767581,3.03857016 C116.251272,3.03857016 116.338088,3.08817947 116.251272,3.48505394 L115.916409,5.17177044 L115.085453,5.17177044 C114.378521,5.17177044 114.180083,4.66327502 114.304106,4.04315866" id="ba-tagline" fill="#000000" fill-rule="nonzero"></path>
    </g>
</svg>