<svg xmlns="http://www.w3.org/2000/svg" xml:space="preserve" viewBox="0 0 115 12"><path d="M1.683 7.488c0 .979-.129 1.041-.848 1.073-.07.071-.07.319 0 .39a46 46 0 0 1 1.32-.024c.472 0 .92.011 1.309.023.071-.07.071-.318 0-.39-.719-.034-.849-.093-.849-1.072V2.052c0-.766.047-1.239.047-1.237 0-.083-.047-.119-.153-.119-.294.119-1.18.284-1.65.32-.024.093 0 .282.07.353.684.047.754.082.754.967zm3.055-5.624c0 .307.282.614.565.614.33 0 .613-.308.613-.567 0-.283-.247-.613-.565-.613-.283 0-.614.283-.614.566m1.072 5.624V5.141c0-.588.047-1.348.047-1.343 0-.047-.058-.083-.153-.083-.342.13-.802.236-1.616.342-.022.071 0 .26.024.33.638.071.767.13.767.803v2.298c0 .979-.13 1.011-.85 1.073-.07.071-.07.319 0 .39.39-.013.85-.024 1.321-.024s.92.011 1.309.023c.071-.07.071-.318 0-.39-.719-.046-.849-.093-.849-1.072m5.13 0c0 .979-.13 1.041-.849 1.073-.07.071-.07.319 0 .39a46 46 0 0 1 1.32-.024c.473 0 .92.011 1.31.023.07-.07.07-.318 0-.39-.72-.034-.85-.093-.85-1.072V2.052c0-.766.047-1.239.047-1.237 0-.083-.046-.119-.152-.119-.296.119-1.18.284-1.651.32-.024.093 0 .282.07.353.684.047.755.082.755.967zm3.054-5.624c0 .307.283.614.565.614.33 0 .614-.308.614-.567 0-.283-.248-.613-.566-.613-.283 0-.613.283-.613.566m1.073 5.624V5.141c0-.588.047-1.348.047-1.343 0-.047-.059-.083-.153-.083-.342.13-.802.236-1.616.342-.023.071 0 .26.024.33.636.071.766.13.766.803v2.298c0 .979-.129 1.011-.849 1.073-.07.071-.07.319 0 .39.39-.013.85-.024 1.321-.024s.92.011 1.309.023c.071-.07.071-.318 0-.39-.72-.046-.849-.093-.849-1.072m3.125-2.464c.306-.377.837-.731 1.19-.731.755 0 1.407.848 1.403 2.18 0 .968-.342 2.172-1.662 2.171-.212 0-.625-.06-.837-.248-.248-.212-.283-.271-.283-.708V5.543c0-.248.047-.342.188-.519m-.224-.436c-.024-.354-.048-.65-.095-.778-.035-.048-.047-.095-.141-.095-.33.13-.638.236-1.45.342-.024.071 0 .26.023.33.637.06.767.119.767.803v5.033c0 .979-.13 1.041-.85 1.074-.07.07-.07.317 0 .389a46 46 0 0 1 1.32-.024c.472 0 1.041.012 1.428.024.07-.07.07-.319 0-.389-.838-.048-.967-.094-.967-1.074V8.95c0-.153.035-.129.165-.082.283.118.648.177 1.025.177.66 0 1.25-.2 1.734-.66.554-.543.873-1.27.873-2.23 0-1.249-.885-2.408-2.087-2.404-.555 0-1.16.365-1.616.884-.07.082-.13.071-.13-.047m6.84 4.457c.46 0 1.01-.236 1.592-.708.06-.047.165-.07.176.012.024.307.13.696.13.696.094.035.142.035.224 0 .26-.213.672-.39 1.392-.472.07-.07.07-.248 0-.318-.756-.06-.862-.283-.862-.861V5.13c0-.354.048-1.21.048-1.215 0-.036-.036-.071-.094-.071a3 3 0 0 1-.413.023c-.377 0-.803-.011-1.203-.023-.07.071-.07.318 0 .39.578.034.731.176.731.954v2.275c0 .224-.023.319-.188.46-.436.377-.884.566-1.18.566-.354 0-.942-.164-.942-1.214V5.13c0-.354.046-1.21.046-1.215 0-.036-.035-.071-.094-.071a3 3 0 0 1-.412.023c-.377 0-.802-.011-1.203-.023-.07.071-.07.318 0 .39.565.046.73.176.73.942V7.44c0 .814.355 1.607 1.521 1.605M32.021 7.3c.047.578.082 1.13.082 1.627a2 2 0 0 1 .295-.036.8.8 0 0 1 .235.024c.319.083.638.13 1.074.13.66 0 1.874-.319 1.874-1.486 0-.803-.577-1.269-1.378-1.568-.72-.26-1.18-.448-1.18-1.096 0-.484.424-.755.825-.755.26 0 .944.094 1.096 1.097.072.07.308.06.378-.012.036-.425.06-.862.07-1.25-.364-.06-.931-.224-1.544-.224-.873 0-1.666.565-1.663 1.32 0 .86.39 1.23 1.298 1.604.979.4 1.2.648 1.203 1.155 0 .578-.566.826-1.003.826-.46 0-.72-.154-.837-.284-.26-.27-.389-.79-.46-1.084-.07-.07-.295-.06-.366.012m4.517-.79c0 1.2.802 2.538 2.475 2.535.756 0 1.319-.26 1.722-.66.53-.507.778-1.25.778-1.982 0-1.229-.672-2.656-2.476-2.652-.778 0-1.428.318-1.851.825s-.648 1.19-.648 1.934m2.322-2.347c1.012 0 1.636.92 1.64 2.617 0 1.487-.767 1.854-1.321 1.852-1.23 0-1.626-1.487-1.627-2.394 0-1.021.248-2.072 1.308-2.075m5.306.542c-.083.084-.141.12-.141 0-.012-.317-.048-.766-.095-.895-.035-.048-.047-.095-.141-.095-.33.13-.637.236-1.45.342-.024.071 0 .26.023.33.636.06.766.119.766.803v2.298c0 .967-.118 1.011-.825 1.073-.07.071-.07.319 0 .39a40 40 0 0 1 1.297-.024c.472 0 .825.011 1.18.023.07-.07.07-.318 0-.39-.602-.058-.72-.105-.72-1.072V5.555a.7.7 0 0 1 .2-.496c.449-.436.979-.695 1.438-.695.237 0 .484.153.626.425.119.235.141.554.141.907v1.792c0 .967-.119 1.011-.731 1.073-.059.071-.059.319 0 .39a34 34 0 0 1 1.203-.024c.471 0 .895.011 1.25.023.059-.07.059-.318 0-.39-.66-.058-.79-.105-.79-1.072V5.731c0-.648-.047-1.21-.318-1.58-.201-.259-.567-.4-.98-.4-.577 0-1.239.153-1.933.954m7.676 1.474v1.557c0 .154-.07.236-.165.307-.307.247-.708.518-1.038.518-.59 0-.849-.471-.849-.837 0-.53.248-1.07 1.12-1.297zm0 2.181c.07.366.188.685.79.685.448 0 .872-.2 1.12-.437-.024-.141-.071-.236-.2-.318-.095.082-.296.188-.436.188-.342 0-.354-.46-.354-1V5.742c0-1.675-.92-1.992-1.78-1.992-.967 0-1.944.636-1.946 1.308q.002.425.412.424c.342 0 .555-.247.555-.4a.5.5 0 0 0-.036-.212.8.8 0 0 1-.024-.236c0-.366.496-.496.944-.496.4 0 .955.201.955 1.534 0 .082-.036.129-.07.14l-1.015.248c-1.13.284-1.943.909-1.945 1.71 0 .967.66 1.27 1.485 1.274.4 0 .766-.095 1.285-.496l.236-.189zm5.388-4.492c-.165 0-.212.142-.212.236v.153c0 .06.012.072.06.072h.694v3.549c0 .836.366 1.17.908 1.167s1.13-.26 1.592-.779c-.023-.118-.095-.188-.213-.2a1.6 1.6 0 0 1-.966.33c-.318 0-.389-.354-.389-1.084V4.328h1.226c.118 0 .283-.047.283-.153v-.236c0-.047-.036-.07-.094-.07h-1.415v-.46c0-.767.047-1.24.047-1.239 0-.07-.035-.094-.095-.094s-.152.048-.258.106a3 3 0 0 1-.402.166c-.142.035-.259.082-.259.152 0 .142.035.06.035 1.368zm6.674 2.311v1.557c0 .154-.071.236-.166.307-.307.247-.708.518-1.038.518-.589 0-.848-.471-.848-.837 0-.53.248-1.07 1.12-1.297zm0 2.181c.07.366.188.685.789.685.448 0 .872-.2 1.12-.437-.023-.141-.07-.236-.2-.318-.094.082-.294.188-.436.188-.342 0-.354-.46-.354-1V5.742c0-1.675-.92-1.992-1.78-1.992-.967 0-1.944.636-1.946 1.308 0 .284.142.424.413.424.342 0 .555-.247.555-.4a.5.5 0 0 0-.036-.212.8.8 0 0 1-.024-.236c0-.366.496-.496.943-.496.402 0 .956.201.956 1.534 0 .082-.036.129-.071.14l-1.015.248c-1.13.284-1.943.909-1.945 1.71 0 .967.66 1.27 1.486 1.274.4 0 .767-.095 1.285-.496l.236-.189zm4.326-4.126c.072-.071.072-.318 0-.39-.354.013-.766.024-1.19.024-.448 0-.767-.011-1.073-.023-.071.071-.071.318 0 .39.554.059.684.176.932.79L68.44 8.83c.072.166.166.237.284.237.106 0 .2-.07.283-.26l1.19-2.9 1.215 2.924c.071.165.165.236.283.236.106 0 .2-.07.27-.248L73.5 5.083c.2-.472.401-.813 1.002-.849.071-.071.071-.318 0-.39-.236.013-.496.024-.849.024-.354 0-.848-.011-1.202-.023-.07.071-.07.318 0 .39.884.046.754.388.59.8l-.979 2.453c-.119.295-.166.295-.272.048l-1.014-2.583c-.212-.554-.188-.672.436-.719.072-.071.072-.318 0-.39-.354.013-.824.024-1.18.024-.293 0-.682-.011-1.036-.023-.07.071-.07.318 0 .39.555.059.684.4.896.918l.082.189-.825 2.088c-.153.388-.188.412-.342.023l-.943-2.429c-.212-.566-.2-.755.365-.79M78.1 6.18v1.557c0 .154-.072.236-.166.307-.306.247-.707.518-1.037.518-.59 0-.85-.471-.85-.837 0-.53.248-1.07 1.12-1.297zm0 2.181c.07.366.188.685.79.685.447 0 .872-.2 1.12-.437-.024-.141-.071-.236-.201-.318-.094.082-.295.188-.436.188-.342 0-.354-.46-.354-1V5.742c0-1.675-.92-1.992-1.78-1.992-.968 0-1.943.636-1.946 1.308 0 .284.142.424.412.424.342 0 .556-.247.556-.4a.5.5 0 0 0-.036-.212.8.8 0 0 1-.024-.236c0-.366.496-.496.943-.496.401 0 .956.201.956 1.534 0 .082-.036.129-.072.14l-1.013.248c-1.13.284-1.943.909-1.946 1.71 0 .967.66 1.27 1.486 1.274.4 0 .766-.095 1.285-.496l.236-.189zm6.048-6.496c0 .307.283.614.565.614.331 0 .615-.308.615-.567 0-.283-.248-.613-.567-.613-.283 0-.613.283-.613.566m.165 3.325V8.03c0 1.557-.047 3.004-.637 3.007a.56.56 0 0 1-.366-.129c-.118-.119-.258-.307-.518-.307-.129 0-.377.236-.377.448 0 .342.424.507.648.507.248 0 .861-.035 1.297-.4.554-.449.885-1.3.885-3.526V5.14c0-.588.046-1.348.046-1.343 0-.047-.06-.083-.153-.083-.33.13-.802.236-1.615.342-.023.071 0 .26.023.33.637.06.767.13.767.803m5.33.99v1.556c0 .154-.071.236-.166.307-.307.247-.707.518-1.037.518-.59 0-.849-.471-.849-.837 0-.53.248-1.07 1.12-1.297zm0 2.18c.07.366.188.685.79.685.448 0 .872-.2 1.12-.437-.024-.141-.072-.236-.201-.318-.095.082-.295.188-.437.188-.342 0-.353-.46-.353-1V5.742c0-1.675-.92-1.992-1.78-1.992-.968 0-1.943.636-1.946 1.308 0 .284.142.424.413.424.342 0 .554-.247.554-.4a.5.5 0 0 0-.035-.212.8.8 0 0 1-.024-.236c0-.366.496-.496.944-.496.4 0 .954.201.954 1.534 0 .082-.035.129-.07.14l-1.014.248c-1.13.284-1.943.909-1.946 1.71 0 .967.66 1.27 1.486 1.274.4 0 .766-.095 1.285-.496l.236-.189zm4.103-3.655c-.084.084-.142.12-.142 0-.012-.317-.048-.766-.094-.895-.036-.048-.048-.095-.142-.095-.33.13-.636.236-1.45.342-.023.071 0 .26.023.33.637.06.767.119.767.803v2.298c0 .967-.118 1.011-.825 1.073-.071.071-.071.319 0 .39a40 40 0 0 1 1.297-.024c.472 0 .824.011 1.18.023.069-.07.069-.318 0-.39-.602-.058-.72-.105-.72-1.072V5.555a.7.7 0 0 1 .2-.496c.448-.436.978-.695 1.437-.695.237 0 .484.153.626.425.119.235.142.554.142.907v1.792c0 .967-.12 1.011-.732 1.073-.058.071-.058.319 0 .39a34 34 0 0 1 1.204-.024c.47 0 .895.011 1.249.023.06-.07.06-.318 0-.39-.66-.058-.79-.105-.79-1.072V5.731c0-.648-.047-1.21-.318-1.58-.2-.259-.567-.4-.98-.4-.577 0-1.238.153-1.932.954m10.623 1.474v1.557c0 .154-.07.236-.165.307-.307.247-.708.518-1.038.518-.59 0-.849-.471-.849-.837 0-.53.248-1.07 1.12-1.297zm0 2.181c.07.366.189.685.79.685.448 0 .872-.2 1.12-.437-.024-.141-.07-.236-.2-.318-.095.082-.296.188-.437.188-.342 0-.354-.46-.354-1V5.742c0-1.675-.92-1.992-1.78-1.992-.967 0-1.943.636-1.945 1.308 0 .284.14.424.412.424.342 0 .554-.247.554-.4a.5.5 0 0 0-.035-.212.8.8 0 0 1-.024-.236c0-.366.496-.496.944-.496.4 0 .954.201.954 1.534 0 .082-.035.129-.07.14l-1.014.248c-1.13.284-1.943.909-1.945 1.71 0 .967.66 1.27 1.485 1.274.401 0 .766-.095 1.286-.496l.235-.189zm3.054-.872c0 .979-.13 1.041-.85 1.073-.07.071-.07.319 0 .39.413-.013.849-.024 1.32-.024s.92.011 1.31.023c.07-.07.07-.318 0-.39-.72-.034-.85-.093-.85-1.072V2.052c0-.766.048-1.239.048-1.237 0-.083-.047-.119-.153-.119-.295.119-1.18.284-1.65.32-.025.093 0 .282.07.353.684.047.755.082.755.967zm3.454-1.887c.224-1.328 1.05-1.437 1.332-1.437.448 0 .979.248.979 1.237 0 .106-.047.166-.177.166zm3.09 2.23c-.437.447-.78.636-1.463.636-.425 0-.92-.248-1.285-.85-.236-.388-.377-.931-.377-1.615l3.136.024c.142 0 .224-.07.224-.2 0-.99-.354-2.053-1.993-2.053-1.03 0-2.36.98-2.358 2.772 0 .66.165 1.299.555 1.745.4.472.955.755 1.804.755.896 0 1.527-.413 2.003-1.027-.035-.118-.105-.176-.247-.188"/></svg>