<svg xmlns="http://www.w3.org/2000/svg" width="147" height="21" fill="none"><path fill="#666" d="M9.282 9.728c-2.054 0-3.678-.422-4.874-1.265-1.197-.844-1.795-1.964-1.795-3.36 0-1.355.595-2.444 1.784-3.267C5.593 1.013 7.207.602 9.24.602c2.075 0 3.703.408 4.885 1.223 1.19.816 1.784 1.909 1.784 3.278 0 1.39-.588 2.51-1.763 3.36-1.176.843-2.797 1.265-4.864 1.265ZM9.24 2.676c-1.306 0-2.295.218-2.966.653-.67.429-1.006 1.02-1.006 1.774 0 .746.336 1.337 1.006 1.773.678.429 1.667.643 2.966.643 1.286 0 2.268-.214 2.946-.643.684-.429 1.026-1.02 1.026-1.773 0-.754-.342-1.345-1.026-1.774-.678-.435-1.66-.653-2.946-.653Zm1.338 10.837v6.772H7.965v-6.772H0v-2.209h18.564v2.21h-7.986Zm24.827 6.772V.28h2.572v20.005h-2.572Zm-1.618-4.863c-1.217.2-2.358.318-3.422.352-1.058.035-3.71.052-7.955.052V7.374h7.114v-3.36h-7.072V1.826h9.644V9.54h-7.124v4.118c4.57.041 7.398-.073 8.483-.343l.332 2.106Zm8.691 2.105v-2.168h7.965v-3.972h-5.071V2.022h12.756v9.365h-5.071v3.972h7.985v2.168H42.478ZM55.515 4.169h-7.54v5.072h7.54V4.169Zm11.076 4.584V1.006h12.891v2.188H69.195v3.37h10.412v2.189H66.59Zm7.706 4.46v7.051h-2.614v-7.052H63.72v-2.188h18.563v2.188h-7.985Zm25.251 7.072V.28h2.572v20.005h-2.572Zm-8.204-8.7c-1.57 0-2.886-.464-3.951-1.39-1.058-.934-1.587-2.144-1.587-3.63 0-1.5.543-2.717 1.629-3.65 1.085-.934 2.426-1.4 4.023-1.4 1.584 0 2.89.466 3.92 1.4 1.038.933 1.556 2.15 1.556 3.65 0 1.48-.536 2.686-1.607 3.62-1.072.933-2.4 1.4-3.983 1.4Zm.031-7.882c-.878 0-1.583.27-2.115.809-.533.539-.799 1.223-.799 2.053 0 .816.273 1.493.82 2.033.546.532 1.244.798 2.094.798.865 0 1.563-.27 2.095-.809.54-.546.81-1.22.81-2.022 0-.809-.274-1.487-.82-2.033-.54-.553-1.234-.83-2.085-.83Zm-6.7 13.274-.269-2.188c6.333 0 11.076-.1 14.229-.3l.145 2.146c-4.39.228-9.092.342-14.104.342Zm21.667-12.849V2.043h4.822V0h2.614v2.043h4.822v2.085h-12.258Zm16.002 4.075v4.117h-2.614V.28h2.614v5.735h3.028v2.188h-3.028Zm-9.842 3.869c-1.597 0-2.862-.336-3.796-1.006-.933-.671-1.4-1.542-1.4-2.614 0-1.065.467-1.932 1.4-2.603.94-.67 2.213-1.006 3.817-1.006 1.611 0 2.883.335 3.816 1.006.94.67 1.411 1.538 1.411 2.603 0 1.086-.478 1.96-1.432 2.624-.947.664-2.219.996-3.816.996Zm.021-5.144c-.878 0-1.535.141-1.971.425-.428.276-.643.643-.643 1.1 0 1.036.871 1.555 2.614 1.555 1.756 0 2.634-.519 2.634-1.556 0-1.016-.878-1.524-2.634-1.524Zm7.228 13.357V15.36h-10.754v-2.188h13.347v7.114h-2.593Zm23.855-13.782c0 1.887-.135 4.082-.405 6.585l-2.53-.218c.214-1.873.321-4.003.321-6.388V4.169h-11.263V2.022h13.877v4.48Zm-16.168 11.024v-2.168h4.179V8.587h2.593v6.772h2.343V8.587h2.583v6.772h6.865v2.168h-18.563Z"/></svg>