<?xml version="1.0" encoding="UTF-8"?>
<svg id="Layer_2" data-name="Layer 2" xmlns="http://www.w3.org/2000/svg" viewBox="0 0 123.15 17.96">
  <defs>
    <style>
      .cls-1 {
        stroke-width: 0px;
      }
    </style>
  </defs>
  <g id="svg3857">
    <g id="text2251">
      <path id="path20527" class="cls-1" d="m15.24,1.41c-.09-.07-.13-.21-.14-.43,0-.22.05-.37.14-.45,1.31.03,2,.05,2.08.05.4,0,1.05-.02,1.94-.05.09.09.13.24.13.45s-.04.35-.13.43c-.62.09-1.11.34-1.46.72-.35.39-.73.96-1.14,1.73l-1.94,3.68,3.38,7h.12l5.02-10.86c.35-.71.45-1.24.3-1.61-.15-.37-.62-.59-1.43-.66-.09-.07-.13-.21-.13-.43s.04-.37.13-.45c1.66.03,2.54.05,2.62.05.14,0,.91-.02,2.32-.05.07.09.1.24.1.45s-.03.35-.1.43c-.17.02-.34.05-.49.09-.15.04-.28.08-.4.12-.11.03-.22.09-.34.18-.11.09-.21.15-.28.21-.07.04-.15.13-.25.26-.09.12-.15.21-.19.26-.03.04-.09.15-.18.31-.08.16-.13.27-.15.32-.02.04-.07.16-.15.36-.09.19-.14.31-.15.35l-6.26,13.48c-.2.4-.41.61-.63.62-.27,0-.47-.21-.61-.62l-3.56-7.67-3.9,7.67c-.15.4-.37.61-.63.62-.25,0-.45-.21-.61-.62L2.51,3.81c-.04-.09-.1-.22-.17-.39-.35-.83-.65-1.36-.88-1.59-.22-.23-.67-.37-1.33-.43C.04,1.32,0,1.18,0,.97c0-.21.03-.35.1-.44,1.66.03,2.58.05,2.75.05.3,0,1.28-.02,2.94-.05.07.09.1.24.1.45,0,.21-.03.35-.1.43-.81.09-1.28.27-1.42.56-.13.28-.02.8.34,1.55l4.84,11.03h.13l2.96-6-2.23-4.73c-.46-.98-.82-1.61-1.06-1.89-.24-.28-.63-.45-1.18-.52-.09-.09-.13-.23-.13-.44s.03-.35.1-.44c1.13.03,1.91.05,2.35.05.34,0,1.14-.02,2.4-.05.09.09.13.24.13.45,0,.21-.03.35-.13.43-.53.08-.81.26-.83.56-.02.28.17.8.56,1.55l1.3,2.67.12.12,1.39-2.62c.3-.54.49-.96.57-1.25.08-.29.06-.52-.05-.68-.11-.17-.35-.28-.72-.34Z"/>
      <path id="path20529" class="cls-1" d="m31.91,8.7v5.71c0,1.06.1,1.71.31,1.96.22.24.75.39,1.6.45.09.09.13.24.13.45s-.04.34-.13.41c-1.52-.03-2.5-.05-2.94-.05-.49,0-1.48.02-2.96.05-.07-.07-.1-.21-.1-.41s.03-.37.1-.45c.84-.07,1.37-.22,1.58-.46.22-.24.32-.89.32-1.95v-5.71c0-1.06-.11-1.71-.32-1.95-.21-.25-.73-.4-1.58-.46-.07-.09-.1-.23-.1-.44s.03-.36.1-.43c1.52.03,2.49.05,2.93.05.49,0,1.48-.02,2.97-.05.09.07.13.21.13.43s-.04.35-.13.44c-.84.07-1.37.22-1.59.46-.22.24-.32.89-.32,1.95ZM29.82.05l1.86,3.33c.1.22.15.43.15.63,0,.07-.04.14-.12.21-.08.06-.17.09-.28.09-.14,0-.39-.18-.76-.53l-3.02-2.88.06-.3c.54-.4,1.11-.61,1.72-.61.12,0,.25.02.39.05h0Z"/>
      <path id="path20531" class="cls-1" d="m37.82,8.7c0-1.06-.11-1.7-.32-1.94-.21-.24-.73-.4-1.58-.48-.07-.09-.1-.23-.1-.44s.03-.36.1-.43c1.48.03,2.47.05,2.96.05.17,0,1.02-.02,2.54-.05.07.07.1.21.1.43,0,.21-.03.35-.1.44-.67.07-1.09.22-1.27.46-.16.24-.25.89-.25,1.95v2.35c.84,0,1.77-.56,2.78-1.69,1.31-1.48,1.9-2.39,1.77-2.74-.08-.19-.34-.3-.79-.34-.09-.09-.13-.23-.13-.44,0-.22.04-.36.13-.43,1.52.03,2.48.05,2.91.05.28,0,.9-.02,1.86-.05.09.07.13.21.13.43,0,.21-.04.35-.13.44-1.31.07-2.26.44-2.84,1.11l-2.27,2.62c-.4.42-.61.75-.61.98,0,.1.08.25.25.45l3.91,4.6c.37.42.93.68,1.69.77.07.09.1.23.1.43,0,.19-.03.33-.1.41-.86-.02-1.54-.03-2.04-.03-.71,0-1.25.02-1.64.05v-.37c0-.4-.13-.75-.4-1.05l-2.93-3.65c-.34-.44-.88-.66-1.64-.66v2.45c0,1.06.08,1.71.25,1.95.17.23.59.39,1.27.46.07.09.1.24.1.45s-.03.34-.1.41c-1.52-.03-2.36-.05-2.54-.05-.49,0-1.48.02-2.96.05-.07-.07-.1-.21-.1-.41s.03-.37.1-.45c.84-.07,1.37-.22,1.58-.46.22-.24.32-.89.32-1.95v-5.71Z"/>
      <path id="path20533" class="cls-1" d="m54.56,8.7v5.71c0,1.06.1,1.71.31,1.96.22.24.75.39,1.6.45.09.09.13.24.13.45s-.04.34-.13.41c-1.52-.03-2.5-.05-2.94-.05-.49,0-1.48.02-2.96.05-.07-.07-.1-.21-.1-.41,0-.22.03-.37.1-.45.84-.07,1.37-.22,1.58-.46.22-.24.32-.89.32-1.95v-5.71c0-1.06-.11-1.71-.32-1.95-.21-.25-.73-.4-1.58-.46-.07-.09-.1-.23-.1-.44,0-.22.03-.36.1-.43,1.52.03,2.49.05,2.93.05.49,0,1.48-.02,2.97-.05.09.07.13.21.13.43s-.04.35-.13.44c-.84.07-1.37.22-1.59.46-.22.24-.32.89-.32,1.95ZM52.46.05l1.86,3.33c.1.22.15.43.15.63,0,.07-.04.14-.12.21-.08.06-.17.09-.28.09-.14,0-.39-.18-.76-.53l-3.02-2.88.06-.3c.54-.4,1.11-.61,1.72-.61.12,0,.25.02.39.05h0Z"/>
      <path id="path20535" class="cls-1" d="m62.51,7.49v4.12c.49.2,1.06.3,1.72.3,1.52,0,2.27-.98,2.27-2.94,0-1.78-.8-2.67-2.4-2.67-.62,0-1.04.09-1.27.27-.22.18-.32.49-.32.93Zm0,6.92c0,1.06.1,1.71.31,1.96.22.24.75.39,1.6.45.09.09.13.24.13.45s-.04.34-.13.41c-1.52-.03-2.5-.05-2.94-.05-.49,0-1.48.02-2.96.05-.07-.07-.1-.21-.1-.41s.03-.37.1-.45c.84-.07,1.37-.22,1.58-.46.22-.24.32-.89.32-1.95v-5.71c0-1.06-.11-1.71-.32-1.95-.21-.25-.73-.4-1.58-.46-.07-.09-.1-.23-.1-.44s.03-.36.1-.43c1.52.03,2.49.05,2.93.05.22,0,.65,0,1.29-.03.65-.02,1.16-.03,1.51-.03,1.7,0,2.88.32,3.54.97.67.64,1.01,1.39,1.01,2.26,0,1.01-.37,1.95-1.12,2.81s-1.92,1.3-3.5,1.3c-.64,0-1.19-.1-1.67-.31v1.95Z"/>
      <path id="path20537" class="cls-1" d="m76.19,11.69h-1.51v3.96c0,.27.08.53.25.79.17.26.37.39.61.39h2.2c1.38,0,2.33-.96,2.85-2.89.25-.07.49-.03.74.1-.25,1.45-.51,2.66-.79,3.65-1.16-.03-2.1-.05-2.8-.05h-4.08c-1.23.02-2.22.03-2.96.05-.09-.07-.13-.21-.13-.41s.04-.37.13-.45c.84-.07,1.37-.22,1.58-.46.22-.24.32-.89.32-1.95v-5.71c0-1.06-.11-1.71-.32-1.95-.21-.25-.73-.4-1.58-.46-.09-.09-.13-.23-.13-.44s.04-.36.13-.43l2.93.05h5.48c.23,0,.59-.03,1.08-.1.05,0,.08.03.08.08.12.42.28,1.47.48,3.15-.23.1-.47.15-.71.13-.28-.88-.58-1.49-.88-1.85-.3-.35-.83-.53-1.59-.53h-2.03c-.25,0-.46.06-.62.19-.15.13-.23.31-.23.54v3.76h1.51c.39,0,.68-.02.89-.06.22-.05.39-.09.52-.12.14-.03.23-.12.28-.3.05-.18.08-.31.09-.39,0-.08.02-.28.04-.62.07-.07.19-.1.36-.1.18,0,.31.03.37.1-.03.88-.05,1.5-.05,1.87,0,.27.02.91.05,1.94-.07.07-.19.1-.37.1s-.29-.03-.36-.1c-.03-.6-.11-.98-.23-1.12-.22-.24-.75-.36-1.59-.36h0Z"/>
      <path id="path20539" class="cls-1" d="m86.94,15.62c0,.42.13.73.39.92.27.19.87.28,1.81.28,1.55,0,2.69-.34,3.43-1.02.74-.68,1.11-1.9,1.11-3.67,0-.79-.06-1.49-.17-2.09-.11-.61-.34-1.22-.67-1.83-.34-.61-.86-1.08-1.56-1.42-.71-.34-1.59-.5-2.65-.5-1.13,0-1.69.28-1.69.83v8.51Zm-1.06-10.15c.15,0,.72,0,1.69-.03.97-.02,1.58-.03,1.82-.03,2.13,0,3.77.58,4.89,1.74,1.13,1.16,1.69,2.67,1.69,4.52,0,1.11-.18,2.07-.54,2.89-.36.81-.86,1.43-1.48,1.86-.62.43-1.27.75-1.96.96-.69.2-1.43.3-2.22.3s-1.61,0-2.41-.03c-.8-.02-1.28-.03-1.45-.03-.49,0-1.48.02-2.96.05-.09-.07-.13-.21-.13-.41,0-.22.04-.37.13-.45.84-.07,1.37-.22,1.58-.46.22-.24.32-.89.32-1.95v-5.71c0-1.06-.11-1.71-.32-1.95-.21-.25-.73-.4-1.58-.46-.09-.09-.13-.23-.13-.44,0-.22.04-.36.13-.43,1.52.03,2.49.05,2.93.05h0Z"/>
      <path id="path20541" class="cls-1" d="m101.96,8.7v5.71c0,1.06.1,1.71.31,1.96.22.24.75.39,1.6.45.09.09.13.24.13.45,0,.21-.04.34-.13.41-1.52-.03-2.5-.05-2.94-.05-.49,0-1.48.02-2.96.05-.07-.07-.1-.21-.1-.41s.03-.37.1-.45c.84-.07,1.37-.22,1.58-.46.22-.24.32-.89.32-1.95v-5.71c0-1.06-.11-1.71-.32-1.95-.21-.25-.73-.4-1.58-.46-.07-.09-.1-.23-.1-.44s.03-.36.1-.43c1.52.03,2.49.05,2.93.05.49,0,1.48-.02,2.97-.05.09.07.13.21.13.43s-.04.35-.13.44c-.84.07-1.37.22-1.59.46-.22.24-.32.89-.32,1.95Z"/>
      <path id="path20543" class="cls-1" d="m111.88,10.15h4.6l-2.57-7.05h-.05l-2.65,6.7c-.02.05-.03.09-.03.13,0,.15.23.22.7.22h0Zm-2.87,5.4c-.05.15-.08.28-.08.39,0,.17.05.32.15.44.11.11.28.2.49.26.22.06.41.1.58.13.17.02.4.04.68.06.08.08.12.22.12.44s-.04.35-.12.43c-1.31-.03-2.44-.05-3.38-.05-.27,0-1.05.02-2.36.05-.08-.08-.12-.22-.12-.43,0-.22.04-.36.12-.44.46-.03.81-.09,1.07-.15.26-.08.53-.25.81-.52.28-.28.54-.68.76-1.21l5.88-13.75c.15-.36.29-.61.41-.75.13-.14.29-.21.48-.21.28,0,.53.27.72.8l5.42,14.33c.12.32.25.58.4.79.15.2.36.34.62.43.27.09.46.14.58.15.13.02.39.05.77.09.08.08.12.22.12.44s-.04.35-.12.43c-1.31-.03-2.32-.05-3.02-.05-1.01,0-2.16.02-3.46.05-.08-.08-.12-.22-.12-.43s.04-.36.12-.44c.1,0,.25-.02.44-.03.2-.02.34-.03.44-.04.1,0,.23-.02.37-.04.15-.02.25-.04.32-.06.08-.03.15-.06.23-.1.09-.05.15-.11.18-.18.03-.07.05-.15.05-.25,0-.11-.03-.24-.08-.39l-1.61-4.48h-5.5c-.32,0-.54.03-.66.1-.11.06-.2.18-.27.35l-1.46,3.84Z"/>
    </g>
  </g>
</svg>