<svg xmlns="http://www.w3.org/2000/svg" width="120" height="14"><path fill="#000" fill-rule="nonzero" stroke="#000" stroke-width=".007" d="M4.336 10.056a.557.557 0 0 1-.121-.164C4.18 9.825 3.5 8.073 2.7 6 1.07 1.765 1.106 1.855.95 1.602c-.163-.266-.372-.385-.732-.42-.137-.013-.165-.025-.19-.078C-.004 1.033-.01.81.02.766.047.723 3.239.722 3.266.765c.029.046.024.3-.007.358-.018.033-.055.05-.105.05-.14 0-.475.082-.603.147a.41.41 0 0 0-.164.14c-.054.104-.05.354.007.54.027.084.575 1.5 1.218 3.146.9 2.303 1.18 2.993 1.214 2.993.033 0 .314-.687 1.21-2.964.642-1.63 1.186-3.024 1.208-3.098a1.37 1.37 0 0 0 .042-.316c.002-.206-.042-.317-.16-.4-.107-.077-.363-.156-.568-.176-.116-.011-.192-.032-.213-.058C6.31 1.084 6.3.89 6.328.79l.016-.057 1.412.001c1.033.001 1.418.01 1.432.031.029.045.024.3-.007.358-.015.028-.048.05-.073.05-.099 0-.366.084-.542.17-.217.106-.372.26-.524.522-.139.24-.03-.02-1.744 4.212a491.793 491.793 0 0 1-1.55 3.809.589.589 0 0 1-.1.14c-.076.068-.239.084-.312.03Zm6.756-.027c-.398-.072-.795-.273-.972-.492-.205-.253-.309-.582-.309-.98 0-.712.465-1.29 1.394-1.734.391-.187.56-.242 1.436-.459.595-.147.748-.194.787-.24.043-.053.047-.088.03-.346-.042-.674-.155-1.059-.383-1.305-.313-.34-.707-.42-1.346-.272-.344.08-.505.188-.592.396-.052.124-.051.243.002.463.057.234.035.34-.1.486-.12.13-.283.193-.5.193-.312 0-.477-.19-.454-.521.047-.65.883-1.316 1.872-1.49.254-.044.83-.045 1.03 0 .411.09.841.324 1.066.578.218.248.363.615.452 1.146.033.197.046.576.06 1.852.014 1.106.03 1.64.051 1.721.072.27.24.402.51.402.175 0 .247-.029.375-.15l.086-.081.077.085c.111.124.1.188-.06.334-.447.404-.947.538-1.448.39-.279-.084-.548-.349-.652-.642-.025-.07-.053-.128-.062-.128-.01 0-.12.082-.247.183-.477.383-.792.554-1.126.614a3.425 3.425 0 0 1-.977-.004Zm1.358-.622c.323-.139.852-.503.959-.661.045-.067.05-.146.056-1.11.004-.57.002-1.036-.005-1.036-.05 0-1.29.348-1.437.403-.704.265-1.081.802-1.052 1.5.008.202.024.278.082.404.195.422.489.596.983.58.2-.007.28-.022.414-.08Zm4.536.648c-.105-.057-.12-.107-.094-.3.013-.099.02-1.965.016-4.331-.007-3.895-.01-4.167-.053-4.294-.08-.236-.223-.314-.627-.34-.219-.014-.231-.018-.267-.088A.538.538 0 0 1 15.923.5V.372l.189-.019c.351-.034.97-.145 1.4-.251.418-.103.53-.112.557-.043.007.019.003.192-.01.385-.035.51-.018 3.918.019 3.93.016.006.11-.053.208-.13.504-.394.951-.555 1.524-.548.629.008 1.194.26 1.684.75.24.24.334.37.478.659.214.43.3.834.3 1.404-.002 1.48-.7 2.662-1.926 3.263a2.803 2.803 0 0 1-1.587.274c-.335-.045-.535-.116-.778-.277-.12-.078-.245-.143-.28-.143-.045 0-.134.07-.303.235-.14.137-.26.234-.29.234a.338.338 0 0 1-.121-.04Zm2.693-.549c.842-.28 1.34-1.173 1.4-2.517.03-.656-.073-1.239-.302-1.708-.358-.731-.849-1.048-1.51-.974-.486.054-1.012.35-1.164.655l-.067.135v3.864l.141.158c.186.208.394.366.567.43.208.078.631.058.935-.043Zm5.023.535c-.547-.08-1-.363-1.186-.741-.172-.35-.206-.875-.08-1.235.17-.483.648-.932 1.334-1.253.37-.174.65-.261 1.47-.46.466-.114.716-.187.737-.215.066-.085.023-.72-.074-1.098-.102-.402-.29-.655-.605-.812-.193-.097-.367-.118-.692-.082-.346.037-.642.133-.78.25-.144.123-.175.227-.15.493.038.42.032.517-.04.612-.135.18-.391.268-.664.228-.347-.052-.45-.443-.233-.89.097-.202.427-.534.693-.7.677-.42 1.572-.565 2.257-.366.665.192 1.075.583 1.257 1.198.134.45.141.55.16 2.27.019 1.717.027 1.826.15 1.992.178.24.52.271.763.068.125-.104.175-.095.242.043.051.107.037.134-.17.321-.466.422-1.194.524-1.632.23-.135-.091-.319-.326-.396-.507a1.804 1.804 0 0 0-.068-.149 1.659 1.659 0 0 0-.238.171c-.671.528-1.002.662-1.625.657a4.038 4.038 0 0 1-.43-.025Zm1.162-.587c.338-.098 1.006-.546 1.107-.742.032-.062.039-.247.039-1.095 0-.96-.003-1.02-.046-1.007-.025.008-.31.084-.632.169-.85.225-1.126.347-1.398.618-.483.482-.565 1.307-.177 1.769.24.284.704.406 1.107.288Zm10.072.599-.26-.038a2.483 2.483 0 0 1-1.903-1.408c-.448-.942-.41-2.296.093-3.293.124-.246.322-.507.565-.741.667-.644 1.331-.908 2.118-.84.728.06 1.15.221 1.503.57.171.17.22.239.345.497.166.342.234.568.28.924.042.337.025.548-.05.623l-.058.057-1.969-.01-1.968-.01v.174c0 1.388.702 2.547 1.695 2.797.132.034.243.04.496.029.613-.027.993-.185 1.452-.603.091-.083.185-.146.217-.146.066 0 .21.133.21.194 0 .023-.127.169-.281.324-.517.522-1.005.78-1.66.876a3.848 3.848 0 0 1-.825.024Zm1.413-4.186c.135-.034.158-.116.125-.44-.065-.63-.255-.961-.663-1.152-.415-.194-.841-.151-1.32.133-.269.16-.43.362-.59.737-.086.205-.217.646-.217.733 0 .046.051.047 1.285.03.706-.01 1.327-.028 1.38-.041Zm2.292 4.01a.438.438 0 0 1 0-.295c.027-.077.033-.08.244-.094.33-.023.578-.13.66-.286.119-.229.122-.273.132-2.182.007-1.213 0-1.87-.018-1.99-.062-.401-.187-.504-.697-.575-.24-.033-.242-.036-.243-.27v-.131l.332-.046c.484-.066 1.08-.188 1.364-.277.429-.135.436-.129.394.333-.033.362-.04.848-.012.875.01.009.176-.139.371-.33.694-.677 1.208-.915 1.972-.914.967.002 1.407.422 1.553 1.483.022.155.039.833.05 1.983.02 1.928.02 1.921.187 2.112.1.113.316.196.558.215.122.009.194.028.215.055.037.045.044.312.011.364-.016.026-.334.035-1.5.04l-1.48.005-.017-.065a.751.751 0 0 1 0-.316c.017-.063.032-.07.195-.083.448-.037.619-.185.684-.593.043-.27.034-3.303-.01-3.547-.055-.3-.133-.478-.282-.641-.176-.193-.345-.277-.585-.293-.469-.03-.998.211-1.567.717-.142.126-.21.21-.274.342l-.085.174V7.25c0 1.45.004 1.621.045 1.771a.98.98 0 0 0 .102.245c.077.108.292.2.509.22.116.01.19.029.21.056.037.045.045.312.011.364-.017.027-.327.035-1.512.04l-1.491.005-.026-.075Zm9.365.159c-.377-.11-.593-.339-.72-.764-.044-.143-.048-.338-.056-2.535l-.009-2.38h-.911v-.185c0-.17.006-.191.076-.261l.077-.076h.768l-.014-.863-.013-.863.058-.037c.119-.078.927-.429.987-.429.123 0 .128.034.098.6-.016.289-.028.765-.028 1.058v.533l.906.007.907.007.008.175a.658.658 0 0 1-.02.227c-.049.09-.193.106-1.012.106h-.79l.001 2.002c0 2.408.018 2.64.219 2.84.11.11.232.132.51.092a2.07 2.07 0 0 0 .893-.349c.066-.045.179.004.236.103l.049.082-.145.145c-.329.33-.753.583-1.18.709-.28.081-.714.108-.895.055Zm4.562.004a5.588 5.588 0 0 1-.521-.091 1.571 1.571 0 0 0-.556-.053l-.254.015v-.358c-.001-.321-.015-.595-.069-1.353l-.017-.24.108-.032a.313.313 0 0 1 .21-.002c.088.027.103.043.12.128.04.216.205.708.294.877.2.38.474.583.894.659.735.133 1.396-.17 1.554-.715.062-.212.04-.549-.046-.736-.147-.32-.552-.6-1.335-.924-.573-.236-.92-.448-1.169-.714-.303-.322-.417-.636-.421-1.154-.002-.248.008-.329.057-.468.178-.512.597-.884 1.215-1.078.525-.166 1.025-.15 2.106.062.234.046.435.093.448.104.014.013.006.258-.02.603-.023.32-.043.649-.043.73 0 .179-.03.204-.242.204-.163 0-.188-.02-.225-.184-.119-.527-.359-.877-.714-1.043-.271-.128-.483-.168-.708-.136-.62.087-.973.532-.879 1.106.087.522.35.742 1.335 1.117.401.153.602.253.873.432.58.384.853.846.856 1.447.004.688-.315 1.217-.902 1.497-.627.299-1.165.381-1.949.3Zm8.644.036c-.038-.025-.138-.456-.158-.68-.016-.178-.042-.24-.1-.24-.017 0-.163.098-.322.217-.704.526-1.189.718-1.728.688-.548-.032-.952-.187-1.214-.468a2.058 2.058 0 0 1-.433-.794c-.055-.197-.057-.26-.073-2.056-.015-1.72-.02-1.863-.065-2.008-.09-.283-.3-.43-.673-.473-.106-.012-.158-.031-.176-.064-.03-.056-.032-.31-.004-.356.015-.024.261-.03 1.037-.022l1.016.009-.013.583c-.007.321-.013 1.311-.013 2.2 0 1.814.006 1.882.184 2.25.106.217.23.336.481.46.16.077.186.082.457.082.234-.001.313-.012.43-.059.365-.145.952-.56 1.09-.77l.071-.106.008-1.685c.004-1.094-.003-1.748-.02-1.867-.038-.249-.136-.442-.264-.523a1.157 1.157 0 0 0-.498-.142c-.118 0-.152-.049-.152-.222 0-.237-.082-.22 1.059-.21.553.004 1.015.018 1.026.03.012.014.01.2-.005.415a70.187 70.187 0 0 0-.029 2.283c-.003 1.758 0 1.902.044 2.044.095.307.322.456.794.52.21.03.216.032.244.116.037.114.008.24-.063.266-.031.011-.127.029-.213.039-.513.06-1.082.253-1.422.483-.113.076-.24.101-.303.06Zm-3.04-7.712a.662.662 0 1 1 .373-1.268c.127.036.318.209.388.353a.66.66 0 0 1-.762.915Zm2.429 0a.667.667 0 0 1-.467-.416.751.751 0 0 1 .034-.5c.261-.552 1.053-.48 1.218.111.132.47-.32.933-.785.806Zm3.07 7.552c-.04-.048-.037-.325.003-.374.021-.025.102-.044.235-.054.413-.03.59-.15.674-.453.047-.171.05-.332.05-3.961 0-3.531-.004-3.793-.046-3.93-.078-.25-.214-.327-.63-.354l-.23-.015-.037-.087a.629.629 0 0 1-.036-.201V.372l.19-.018C65.182.32 65.922.187 66.298.09c.363-.093.475-.1.503-.028.007.02.003.182-.01.36-.035.49-.032 6.126.004 6.126.05 0 .317-.153.479-.274.488-.366 1.418-1.297 1.536-1.538.09-.183.09-.281 0-.351a.917.917 0 0 0-.393-.133c-.073 0-.112-.084-.111-.243 0-.201-.097-.187 1.328-.188l1.279-.001.027.076c.033.096.033.136 0 .255l-.026.094-.215.016c-.417.033-.78.153-1.07.352-.206.142-1.4 1.442-1.432 1.559a.31.31 0 0 0 .004.14c.027.096 1.722 2.608 1.865 2.764.057.063.157.149.222.19.15.095.469.197.691.22.2.02.228.05.228.245 0 .228.089.211-1.124.21-.592 0-1.087-.008-1.1-.016-.014-.008-.025-.1-.025-.204 0-.246-.05-.402-.202-.645-.268-.426-1.254-1.793-1.393-1.931-.159-.158-.318-.232-.499-.232h-.101l.01 1.011c.008.68.022 1.051.043 1.134.068.259.242.403.517.43.092.009.163.03.183.055.037.046.044.312.01.365-.032.052-2.812.06-2.855.008Zm6.942-.008c-.034-.065-.028-.318.01-.365.023-.03.096-.045.274-.054.204-.01.269-.026.41-.095.147-.073.175-.099.232-.219.037-.075.079-.212.094-.305.02-.118.026-1.311.02-3.887-.006-3.473-.01-3.727-.053-3.853-.08-.236-.223-.314-.628-.34L71.74.775l-.037-.087a.629.629 0 0 1-.036-.201V.372l.19-.018A12.848 12.848 0 0 0 73.26.103c.434-.113.476-.117.531-.062.035.034.041.066.027.126-.033.14-.044 8.51-.012 8.703.016.093.058.23.094.305.058.12.086.146.233.219.14.069.206.084.41.095.178.009.25.023.274.054.036.046.044.312.01.365-.016.026-.345.034-1.606.039-1.463.005-1.587.002-1.609-.039Zm6.598.123c-.7-.1-1.224-.345-1.639-.767a3.341 3.341 0 0 1-.853-1.627c-.062-.293-.061-.974.003-1.337.123-.698.456-1.368.901-1.813.727-.728 1.88-.972 3.054-.649.255.07.59.228.791.371.528.378.967 1.133 1.133 1.947.064.318.062 1.103-.004 1.41-.182.842-.684 1.645-1.26 2.018-.582.376-1.41.55-2.126.447Zm1.043-.444c.202-.048.312-.103.525-.264.393-.295.579-.745.656-1.59a6.767 6.767 0 0 0-.13-1.879c-.138-.572-.318-.928-.627-1.24-.331-.333-.661-.472-1.123-.473-.816-.002-1.328.492-1.578 1.523-.38 1.569.243 3.414 1.294 3.833.3.12.699.157.983.09Zm3.084 3.582c-.033-.095-.033-.135 0-.253l.026-.094.228-.015c.245-.016.444-.071.564-.157.104-.073.194-.284.226-.53.018-.137.025-1.379.02-3.689-.007-2.832-.015-3.502-.044-3.587-.076-.227-.312-.358-.715-.395l-.17-.016-.015-.094a1.425 1.425 0 0 1-.016-.188v-.093l.32-.046c.506-.074 1.061-.19 1.34-.28.255-.083.364-.096.41-.05.013.013.01.21-.008.481a3.922 3.922 0 0 0-.014.512c.023.074.121.066.198-.016.096-.104.436-.38.61-.498.373-.25.858-.44 1.197-.468.219-.018.566.036.848.131.768.26 1.417 1.029 1.662 1.968.158.608.11 1.535-.11 2.15-.439 1.223-1.363 1.974-2.592 2.108a3.652 3.652 0 0 1-1.483-.171c-.247-.09-.285-.086-.305.024-.01.05-.012.563-.005 1.141.013 1.13.03 1.29.157 1.475.114.166.368.26.782.286l.254.017.026.094c.033.118.033.158 0 .254l-.027.076h-1.669l-1.669-.001-.026-.076Zm4.105-3.642c.66-.174 1.02-.55 1.282-1.34.127-.382.172-.68.17-1.153 0-.848-.147-1.458-.468-1.95-.29-.442-.615-.673-1.057-.75-.226-.04-.423-.002-.706.13-.423.201-.97.665-1.086.922l-.062.137v1.63c0 1.245.008 1.656.033 1.74.098.322.491.598.978.685.208.038.68.011.916-.051Zm6.134.514a2.826 2.826 0 0 1-1.32-.521c-.47-.357-.812-.932-.962-1.617-.052-.236-.06-.344-.058-.807 0-.453.01-.577.06-.81.16-.747.423-1.262.867-1.696.658-.642 1.366-.925 2.144-.858.666.058 1.13.221 1.452.512.352.316.615.913.681 1.547.035.332.018.496-.058.565-.052.046-.13.048-2.021.038l-1.967-.01v.224c0 .294.065.746.146 1.029.153.527.356.878.714 1.235.356.355.741.52 1.216.52.623 0 1.032-.155 1.513-.57.187-.162.233-.19.289-.176.065.017.192.132.192.175 0 .045-.333.404-.52.56-.656.551-1.435.768-2.368.66Zm1.444-4.16c.21-.022.228-.057.21-.396-.025-.474-.155-.83-.376-1.023-.29-.255-.714-.366-1.065-.28-.466.115-.844.394-1.034.761-.107.206-.237.57-.294.818l-.037.166 1.23-.017a46.785 46.785 0 0 0 1.366-.03Zm4.927 4.159c-.606-.076-1.099-.306-1.501-.7-.512-.503-.752-1.055-.833-1.922-.064-.671.1-1.534.397-2.107.43-.828 1.339-1.482 2.192-1.579.221-.025.61-.003.908.051.558.101 1.015.358 1.247.7.307.453.472.984.472 1.518 0 .3-.008.327-.109.38-.067.034-.309.037-2.02.02l-1.945-.018.017.245c.044.654.145 1.098.342 1.51.295.616.8 1.073 1.341 1.215.202.053.744.04 1.008-.025a2.17 2.17 0 0 0 .961-.562c.157-.159.22-.166.345-.04l.09.09-.058.083c-.108.151-.43.458-.648.618-.612.448-1.37.628-2.206.523Zm1.468-4.16c.2-.021.227-.071.205-.397-.04-.609-.231-.98-.611-1.186a1.541 1.541 0 0 0-.594-.149c-.278 0-.763.204-.992.42-.167.16-.29.351-.4.628-.07.174-.211.647-.211.709 0 .023 2.359 0 2.603-.025Zm7.157 4.192c-.044-.027-.15-.46-.175-.71-.027-.274-.035-.273-.48.064-.793.6-1.329.747-2.08.566-.862-.207-1.483-.915-1.719-1.956-.166-.737-.137-1.56.079-2.201.354-1.057 1.209-1.859 2.214-2.078.491-.107.929-.086 1.482.073.192.055.37.095.397.088.026-.007.06-.043.074-.08.043-.111.011-2.402-.036-2.607-.072-.312-.218-.413-.637-.443l-.257-.019-.031-.09a.762.762 0 0 1-.033-.197l-.001-.106.372-.046c.418-.052 1.172-.199 1.428-.278.093-.028.2-.052.238-.052.126 0 .134.036.103.5-.044.673-.038 7.874.007 8.043.095.356.294.5.786.568.234.032.274.061.274.202 0 .156-.034.177-.378.235-.618.104-.998.24-1.367.488-.09.061-.197.076-.26.036Zm-1.503-.69c.205-.055.369-.136.646-.32.325-.217.579-.452.624-.579.049-.138.05-3.306 0-3.466-.069-.229-.385-.561-.672-.707-.28-.143-.811-.188-1.133-.098-.317.09-.443.164-.679.403-.407.413-.563.843-.627 1.728-.066.919.1 1.85.422 2.345.134.208.359.444.522.55.258.165.607.221.897.144Zm4.001.526c-.035-.065-.028-.318.01-.365.022-.028.094-.046.231-.055.424-.03.652-.164.743-.436.045-.133.049-.282.056-2.083.007-1.675.002-1.96-.032-2.077-.077-.267-.215-.362-.627-.43l-.26-.045-.022-.127c-.038-.229-.038-.229.34-.282.48-.068 1.077-.191 1.352-.28.262-.083.356-.093.399-.042.02.024.02.178.002.528a82.927 82.927 0 0 0-.018 2.595c.008 1.93.012 2.11.054 2.237.097.286.306.415.722.441.158.01.232.027.255.056.036.046.044.312.01.365-.017.026-.346.035-1.606.039-1.463.006-1.587.002-1.61-.038h.001Zm1.314-7.862c-.326-.162-.505-.564-.379-.85a.767.767 0 0 1 .378-.386c.285-.143.568-.093.762.134.285.332.27.692-.04.97-.225.203-.484.25-.721.132Zm3.97 7.983c-.398-.072-.795-.273-.973-.492-.294-.362-.395-.968-.24-1.437.18-.55.693-1.014 1.505-1.362.312-.134.448-.174 1.303-.386.556-.137.701-.182.74-.229.044-.052.047-.087.03-.345-.042-.674-.155-1.059-.382-1.305a1.035 1.035 0 0 0-.895-.34c-.612.05-.915.18-1.035.445-.06.13-.061.256-.006.482.059.245.036.342-.117.495-.134.134-.267.184-.49.184-.57 0-.612-.722-.071-1.262.364-.364.88-.629 1.436-.737.284-.055.87-.062 1.09-.013.412.091.843.326 1.064.579.22.252.364.614.454 1.146.035.202.044.52.051 1.735.009 1.539.024 1.79.119 1.99.075.16.239.25.45.25.175 0 .247-.029.375-.15l.087-.081.076.085c.112.124.1.188-.06.334-.446.404-.946.538-1.447.389-.279-.083-.548-.348-.653-.642a.392.392 0 0 0-.06-.127c-.008 0-.149.105-.313.233-.62.484-.934.604-1.564.599a3.403 3.403 0 0 1-.474-.038Zm1.357-.622c.323-.139.852-.503.959-.661.045-.067.05-.146.056-1.11.005-.57.003-1.036-.005-1.036-.05 0-1.29.348-1.437.403-.704.265-1.081.802-1.052 1.5.009.202.024.278.082.404.195.422.49.596.983.58.2-.007.28-.022.414-.08Zm.966-7.03a.66.66 0 0 1-.524-.66c0-.566.699-.863 1.096-.466a.659.659 0 0 1-.572 1.125Zm-2.384.006c-.23-.055-.394-.173-.486-.355-.22-.43.1-.96.576-.958.37.001.652.289.653.666a.621.621 0 0 1-.393.595.758.758 0 0 1-.35.052Z"/></svg>