<svg xmlns="http://www.w3.org/2000/svg" width="120" height="12"><path fill="#000" fill-rule="nonzero" d="M1.841 7.854c-.69-.09-1.265-.47-1.583-1.047-.257-.468-.33-1.142-.184-1.715.105-.412.356-.787.708-1.056.137-.105.427-.285.46-.285.017 0 .418.474.405.48l-.146.073C.801 4.65.47 5.46.714 6.228c.128.402.446.737.845.891.409.158.94.142 1.3-.038.534-.268.836-.763.837-1.372a.886.886 0 0 0-.058-.39c-.152-.445-.483-.844-.859-1.032l-.093-.047.078-.085c.042-.047.14-.153.218-.236l.142-.15.15.075c.519.259.832.63.971 1.15.067.25.089.473.077.803-.023.628-.204 1.073-.596 1.47-.415.42-.895.604-1.555.597a5.83 5.83 0 0 1-.33-.01Zm5.213-.013a2.064 2.064 0 0 1-1.16-.605c-.378-.393-.552-.821-.578-1.42-.022-.513.086-.94.33-1.309.122-.181.389-.442.593-.577.159-.105.322-.192.334-.177.2.239.377.46.377.471 0 .008-.027.026-.06.039-.25.102-.516.327-.681.576-.194.29-.272.58-.256.942.016.37.115.648.32.907.183.23.459.404.777.49.2.054.646.058.837.008.42-.11.787-.412.973-.8.102-.212.13-.334.142-.607.01-.222.006-.252-.039-.41-.127-.445-.484-.887-.88-1.088-.055-.028-.074-.047-.064-.064.008-.013.105-.12.216-.238l.202-.213.135.068c.418.21.688.472.866.842.284.59.27 1.481-.03 2.08-.28.553-.738.906-1.384 1.066-.165.041-.776.052-.97.018Zm.478-4.636a1.553 1.553 0 0 1-1.172-.699A1.677 1.677 0 0 1 6.313.78c.043-.072.144-.2.225-.284A1.531 1.531 0 0 1 7.714 0c.227 0 .41.03.592.1.432.162.757.522.907 1.002.073.233.074.227-.042.267-.14.05-.512.143-.528.133-.007-.004-.018-.047-.023-.095a.91.91 0 0 0-.553-.714c-.435-.163-.927-.028-1.165.32a.856.856 0 0 0-.166.517c-.016.335.056.539.264.745.206.206.445.289.764.266l.169-.012v.676h-.099a.874.874 0 0 0-.123.006c-.013.003-.094 0-.179-.007Zm3.679 4.615a.827.827 0 0 1-.517-.445.602.602 0 0 1-.063-.296c-.01-.253.04-.421.181-.596.25-.31.786-.368 1.123-.12a.79.79 0 0 1 .329.71.572.572 0 0 1-.075.306.9.9 0 0 1-.34.365c-.171.1-.432.13-.638.076Zm.326-.53c.135-.026.215-.195.168-.352-.044-.147-.216-.217-.379-.154-.07.026-.089.045-.12.114a.36.36 0 0 0 .015.308c.052.08.176.113.316.085Zm7.206.612a2.11 2.11 0 0 1-1.44-.873c-.047-.065-.092-.115-.098-.11a1.725 1.725 0 0 0-.102.127c-.321.425-.753.703-1.267.814-.193.042-.713.047-.883.01a2.471 2.471 0 0 1-.873-.4 4.513 4.513 0 0 1-.606-.578l-.058-.074.263-.196.262-.196.059.07c.032.038.12.13.196.206.44.438.878.611 1.385.547.66-.084 1.137-.486 1.268-1.066.048-.216.044-.747-.008-.94-.147-.55-.62-.935-1.252-1.02a1.469 1.469 0 0 0-1.074.267c-.15.106-.394.367-.533.569l-.114.168-.05-.026a13.39 13.39 0 0 1-.28-.16l-.23-.135.14-.233c.336-.562.718-.875 1.25-1.024.287-.08.724-.101 1.061-.051a1.98 1.98 0 0 1 1.139.553c.189.181.311.341.413.54.154.3.214.576.237 1.095.01.228.027.4.046.47.15.554.644.941 1.286 1.01.71.077 1.332-.256 1.609-.862.102-.223.126-.35.127-.667 0-.31-.023-.438-.12-.653a1.577 1.577 0 0 0-.758-.743 1.854 1.854 0 0 0-.56-.127c-.198-.013-.416.027-.741.137l-.213.071-.103-.309c-.057-.17-.1-.312-.097-.315.028-.023.495-.16.624-.183a3.27 3.27 0 0 1 .908.009c1.05.18 1.707.983 1.707 2.088 0 .642-.19 1.153-.581 1.56a2.037 2.037 0 0 1-1.085.599c-.192.041-.66.059-.854.032Zm.103-4.645a2.003 2.003 0 0 1-.318-.054c-.357-.106-.696-.37-.832-.647a.455.455 0 0 1-.06-.27c0-.125.008-.164.055-.265.031-.065.094-.165.141-.223a.654.654 0 0 0 .085-.119c0-.008-.05-.08-.11-.16-.15-.198-.189-.302-.19-.508 0-.148.005-.176.058-.288.14-.296.522-.573.92-.668.424-.102 1.078-.043 1.418.127.14.071.314.193.393.276l.057.061-.148.231a6.33 6.33 0 0 1-.16.243c-.007.005-.05-.017-.095-.051a2.464 2.464 0 0 0-.577-.281 2.169 2.169 0 0 0-.71-.007c-.286.072-.492.252-.492.43 0 .05.097.168.17.208.042.022.058.016.206-.069.207-.118.291-.138.514-.124.277.017.46.084.6.219.084.08.204.262.204.31 0 .056-.113.262-.179.326-.291.283-.763.329-1.192.117l-.16-.08-.07.052c-.083.06-.117.136-.086.19a.564.564 0 0 0 .267.244c.226.114.327.132.664.122.252-.007.309-.014.419-.054.16-.058.273-.122.378-.214a.437.437 0 0 1 .098-.073c.009 0 .091.121.183.269.194.31.196.277-.03.421-.299.192-.522.266-.933.31-.196.022-.213.022-.488-.001Zm.427-1.444a.719.719 0 0 0 .158-.073c.07-.047.07-.048.043-.101-.05-.096-.104-.117-.299-.118-.18 0-.22.012-.33.098-.036.03-.041.042-.025.07.03.046.111.09.227.121.126.034.123.034.226.004Zm4.717 6.062a2.039 2.039 0 0 1-1.684-1.48c0-.04.085-.092.43-.264a6.052 6.052 0 0 1 1.884-.585c.327-.047 1.036-.12 1.175-.12.043 0 .083-.007.09-.018.016-.027-.057-.259-.123-.39a1.504 1.504 0 0 0-.712-.674c-.213-.098-.354-.126-.632-.127a1.525 1.525 0 0 0-.64.11c-.36.147-.684.475-.808.817a.612.612 0 0 1-.047.107c-.007.008-.133-.068-.28-.171-.3-.213-.286-.179-.171-.4a2.175 2.175 0 0 1 1-.922A2.526 2.526 0 0 1 25 3.644c.768.195 1.35.809 1.504 1.588.028.142.036.158.072.158.035 0 .043-.015.063-.132.07-.388.265-.754.564-1.052.436-.435.916-.626 1.577-.626.42 0 .716.066 1.036.231.348.18.603.43.833.817l.074.125-.06.068c-.033.038-.142.157-.243.266-.139.15-.185.19-.19.164a1.57 1.57 0 0 0-.169-.363 1.692 1.692 0 0 0-.56-.506c-.252-.13-.394-.163-.721-.163-.325 0-.472.033-.729.16a1.475 1.475 0 0 0-.78.977l-.011.047.232.013c.801.043 1.596.168 2.134.335.435.135 1.239.487 1.239.542 0 .035-.126.389-.168.472a2.066 2.066 0 0 1-1.544 1.112c-.746.113-1.472-.104-1.96-.585-.319-.314-.51-.713-.575-1.196-.024-.18-.06-.214-.078-.073-.068.513-.242.9-.551 1.227a2.08 2.08 0 0 1-1.207.627 3.201 3.201 0 0 1-.792-.002Zm.723-.635c.489-.094.914-.435 1.095-.879.05-.124.11-.35.097-.364-.027-.027-1.119.136-1.56.233-.51.113-1.22.342-1.22.394 0 .008.045.07.1.136.212.254.524.428.877.487.145.024.468.02.61-.007Zm4.476-.02c.244-.065.435-.173.626-.354.135-.127.276-.309.255-.327-.027-.025-.371-.159-.587-.228-.557-.179-1.314-.31-2.01-.349l-.232-.012.01.061c.113.64.533 1.084 1.155 1.22.196.044.6.038.783-.01V7.22Zm-.573-4.015a1.556 1.556 0 0 1-1.282-.913c-.112-.243-.139-.38-.137-.708.001-.25.007-.3.05-.442.085-.278.2-.47.406-.673C27.99.138 28.33 0 28.811 0c.432 0 .77.127 1.057.399.154.145.267.3.35.48.06.13.137.373.137.433 0 .022-.045.043-.16.078-.25.075-.449.121-.46.107a.662.662 0 0 1-.032-.131.89.89 0 0 0-.266-.488.947.947 0 0 0-.874-.232.902.902 0 0 0-.737.812c-.037.328.047.594.256.811.194.202.454.295.766.272l.16-.011v.675h-.087a1 1 0 0 0-.123.007c-.02.004-.102 0-.182-.007Zm8.5 4.697c-.3-.04-.591-.145-.842-.301a2.737 2.737 0 0 1-.587-.557l-.106-.142-.097.132c-.276.37-.677.658-1.082.775-.256.074-.34.085-.673.083-.295 0-.347-.005-.507-.049a2.609 2.609 0 0 1-.727-.343c-.164-.112-.58-.504-.666-.628l-.04-.057.259-.194.258-.193.18.19c.295.315.614.523.924.606.152.04.52.04.703 0 .481-.108.865-.402 1.027-.79.087-.209.11-.352.11-.714 0-.373-.028-.52-.14-.748-.085-.173-.336-.432-.526-.543a1.723 1.723 0 0 0-1.201-.176c-.376.096-.74.382-1.033.81a4.68 4.68 0 0 1-.105.15c-.007.009-.123-.05-.257-.128-.134-.079-.259-.151-.276-.16-.028-.016-.016-.043.103-.245.157-.264.33-.486.479-.614.397-.34.846-.497 1.425-.497.39 0 .714.067 1.013.209.217.102.363.203.54.371.33.315.52.672.604 1.134.015.084.036.317.045.517.014.289.025.39.057.492.116.372.378.665.75.836.338.157.782.192 1.17.093.163-.041.421-.176.56-.29.331-.275.513-.652.537-1.113.028-.569-.204-1.046-.657-1.346a1.511 1.511 0 0 0-.79-.258c-.19-.013-.427.03-.744.136l-.205.069-.101-.29c-.056-.16-.102-.3-.102-.311 0-.03.444-.174.634-.205.205-.033.62-.032.841.001.585.089 1.049.36 1.385.811.3.402.438 1.044.355 1.657a2.032 2.032 0 0 1-.59 1.22 2.032 2.032 0 0 1-1.08.575c-.18.035-.647.05-.825.025Zm5.345-.045-.164-.027a2.035 2.035 0 0 1-1.591-1.366 2.675 2.675 0 0 1 .014-1.553c.13-.385.386-.745.693-.973.105-.078.336-.205.372-.205.018 0 .466.49.455.498-.004.002-.07.036-.149.073-.19.092-.413.264-.535.41-.395.477-.436 1.277-.094 1.81l.056.087.093-.088c.301-.284.645-.45 1.035-.497.453-.055.95.095 1.323.4l.1.08.032-.043c.08-.107.172-.417.191-.647.051-.615-.381-1.355-.9-1.544l-.11-.039.21-.268.21-.267.148.074c.387.193.67.464.845.806.077.15.166.453.198.67.045.304.028.793-.035 1.046-.182.723-.714 1.29-1.396 1.488-.206.06-.42.085-.699.083a6.27 6.27 0 0 1-.302-.007Zm.664-.671a2.34 2.34 0 0 0 .526-.255l.053-.043-.09-.066a1.405 1.405 0 0 0-.77-.266c-.27 0-.593.131-.806.327l-.114.105.128.065c.135.067.327.132.475.159.126.023.47.008.598-.026Zm-.346-3.98a1.554 1.554 0 0 1-1.282-.914 1.414 1.414 0 0 1-.142-.59c-.031-.591.203-1.082.679-1.421.25-.179.503-.261.845-.276.362-.015.64.046.902.2.176.102.432.364.535.547.083.148.174.39.194.515l.012.074-.161.048c-.252.076-.451.122-.463.108a.7.7 0 0 1-.033-.131.897.897 0 0 0-.265-.488.852.852 0 0 0-.439-.231.98.98 0 0 0-.91.253c-.189.192-.268.397-.268.693 0 .291.07.47.256.669.197.208.456.302.772.28l.16-.012v.675h-.087a1 1 0 0 0-.123.007c-.02.004-.102 0-.182-.007Zm3.01 6.45c-.031-.01-.03-.1.004-.179.014-.035.132-.173.262-.307.533-.55.843-1.046.768-1.229-.027-.063-.037-.068-.243-.111a1.538 1.538 0 0 1-.279-.089c-.33-.154-.499-.552-.398-.939a.798.798 0 0 1 .577-.573.91.91 0 0 1 .682.12c.134.09.305.281.373.42.05.101.059.142.075.363.052.679-.156 1.21-.679 1.737-.249.251-.594.51-.938.704-.15.084-.174.094-.204.083Zm1.08-2.399c.091-.06.126-.236.073-.364-.034-.082-.12-.126-.249-.127-.173 0-.257.083-.258.258-.001.13.04.217.12.253a.452.452 0 0 0 .315-.02Zm7.392 3.906a1.638 1.638 0 0 1-1.395-1.21 2.047 2.047 0 0 1-.001-.815c.07-.286.198-.52.402-.731.248-.258.524-.408.87-.474l.124-.024-.11-.013c-.599-.072-1.02-.258-1.354-.599a1.8 1.8 0 0 1-.436-.708c-.08-.227-.112-.417-.13-.78a4.876 4.876 0 0 0-.038-.428 1.484 1.484 0 0 0-.443-.786c-.31-.289-.652-.405-1.126-.383a1.34 1.34 0 0 0-.624.151 1.512 1.512 0 0 0-.795.964c-.031.116-.04.2-.04.41 0 .32.04.508.16.755.237.484.671.763 1.248.803.156.01.182.017.175.042a6.916 6.916 0 0 0-.047.293 7.718 7.718 0 0 1-.046.285c-.008.027-.414-.05-.645-.124-.647-.205-1.139-.665-1.355-1.267-.203-.566-.172-1.279.077-1.79.102-.206.195-.338.372-.522.416-.43.941-.643 1.594-.643.678 0 1.182.198 1.616.632.213.212.356.442.46.738.078.22.11.409.13.78.02.35.047.487.139.688.207.454.612.756 1.114.832.222.034.332.034.554 0 .34-.051.626-.2.864-.451a1.39 1.39 0 0 0 .381-.743c.041-.204.028-.57-.028-.763a1.515 1.515 0 0 0-.921-.985c-.36-.126-.717-.118-1.133.026l-.131.045.01-.13.025-.357c.01-.146.023-.23.038-.24.109-.067.86-.086 1.128-.028.326.07.613.2.856.385.134.103.377.358.468.492.232.343.352.761.351 1.235 0 .898-.414 1.6-1.155 1.96-.18.088-.438.167-.62.19-.231.03-.232.03-.048.068.328.067.577.204.822.452.406.412.556.97.417 1.564a1.605 1.605 0 0 1-1.216 1.176 2.08 2.08 0 0 1-.558.028Zm.49-.648a.973.973 0 0 0 .694-.674c.039-.145.039-.44 0-.59a.98.98 0 0 0-.703-.704 1.399 1.399 0 0 0-.59.001.947.947 0 0 0-.657.64.874.874 0 0 0-.05.336c-.001.307.065.497.244.698.256.287.643.394 1.061.293Zm4.756-2.632a2.121 2.121 0 0 1-.775-.226c-.567-.284-.958-.81-1.087-1.46a3.514 3.514 0 0 1 0-.944c.19-1.04 1.012-1.684 2.146-1.684.629 0 1.138.206 1.554.628.08.081.183.199.227.26a.686.686 0 0 0 .091.113c.006 0 .051-.059.101-.13.132-.186.427-.46.62-.575.32-.19.614-.273 1.03-.29.428-.018.786.046 1.104.194.639.3 1.057.865 1.16 1.57.15 1.019-.281 1.91-1.128 2.328a2.233 2.233 0 0 1-1.565.154c-.215-.057-.385-.125-.378-.153a7.34 7.34 0 0 1 .115-.29l.11-.27.24.064a1.4 1.4 0 0 0 .477.065 1.467 1.467 0 0 0 1.436-.972 1.704 1.704 0 0 0-.014-1.1 1.554 1.554 0 0 0-.998-.905 2.091 2.091 0 0 0-.823-.02 1.4 1.4 0 0 0-.975.73c-.099.192-.146.371-.165.639-.043.584-.116.902-.277 1.205-.21.395-.587.739-.995.909a2.62 2.62 0 0 1-1.231.16Zm.71-.688c.718-.186 1.169-.867 1.083-1.638-.045-.406-.168-.668-.435-.932-.314-.31-.665-.434-1.163-.413-.27.011-.432.05-.651.16a1.443 1.443 0 0 0-.749.9c-.045.15-.05.19-.05.455s.005.306.05.455c.09.3.239.527.46.71.207.17.486.294.762.337.17.026.524.01.692-.034Zm6.358 2.463c-.023-.023-.013-.135.017-.192.016-.031.14-.172.275-.313.438-.455.751-.925.755-1.128.002-.124-.032-.152-.238-.194a1.099 1.099 0 0 1-.456-.193.868.868 0 0 1-.23-.38.832.832 0 0 1-.022-.292.592.592 0 0 1 .074-.306c.155-.314.417-.464.78-.446a.622.622 0 0 1 .318.076c.18.085.387.288.477.467.055.109.062.144.08.37.031.407-.02.712-.176 1.044-.242.515-.704.968-1.413 1.384-.168.1-.222.122-.241.103Zm1.091-2.4c.099-.065.128-.284.053-.398-.085-.13-.388-.125-.457.008-.076.148-.032.354.087.408a.45.45 0 0 0 .317-.019Zm-.322-1.821a.827.827 0 0 1-.586-.664.816.816 0 0 1 .434-.87.59.59 0 0 1 .314-.075c.289-.014.491.063.668.254.12.13.184.259.213.43.084.495-.319.956-.83.95-.071-.001-.167-.012-.213-.025Zm.353-.545c.1-.042.13-.091.137-.227.005-.104 0-.13-.036-.184-.082-.12-.306-.141-.42-.04-.044.04-.057.068-.064.144-.013.129.006.21.06.265.069.068.216.087.323.042Zm-4.121-1.688a1.502 1.502 0 0 1-.826-.326 1.596 1.596 0 0 1-.595-1.075A1.586 1.586 0 0 1 62.64.436 1.527 1.527 0 0 1 63.756 0c.688 0 1.208.346 1.458.968.06.152.114.357.095.368-.063.035-.604.181-.619.167a.918.918 0 0 1-.032-.136c-.106-.561-.669-.873-1.25-.693-.383.118-.632.478-.633.914 0 .291.082.502.271.689.205.202.447.286.762.264l.169-.012v.676h-.1a.817.817 0 0 0-.122.007c-.013.004-.094 0-.179-.007Zm11.532.054a1.476 1.476 0 0 1-.774-.272 1.446 1.446 0 0 1-.394-.43c-.046-.094-.052-.127-.052-.271 0-.148.006-.176.058-.282.032-.065.096-.16.141-.212a.528.528 0 0 0 .083-.11c0-.008-.053-.084-.117-.168-.152-.199-.2-.34-.189-.543.014-.232.121-.418.348-.602.358-.29.811-.405 1.377-.35.423.04.714.146.966.35.171.138.17.128.006.383a81.04 81.04 0 0 1-.154.238c-.006.01-.038-.002-.073-.03-.092-.07-.35-.208-.479-.257-.31-.117-.792-.104-1.05.028-.156.08-.27.226-.27.346 0 .07.052.147.137.2l.063.039.086-.048c.24-.134.319-.162.459-.17.186-.01.433.034.576.104.13.065.249.185.327.334l.051.098-.057.122a.804.804 0 0 1-.583.431 1.268 1.268 0 0 1-.801-.144l-.093-.055-.074.054c-.085.062-.121.133-.095.19.067.141.284.283.531.346.173.045.657.03.807-.024.156-.057.304-.14.408-.231l.091-.08.175.276.174.277-.058.052c-.071.063-.332.22-.462.277a2.515 2.515 0 0 1-.61.134 1.752 1.752 0 0 1-.48 0Zm.398-1.438a.761.761 0 0 0 .16-.075l.088-.054-.027-.053c-.045-.086-.123-.116-.31-.117-.154 0-.173.004-.256.055-.126.078-.128.12-.007.182.08.04.182.07.263.08.01 0 .05-.008.089-.018Zm-4.253 6.064a4.49 4.49 0 0 1-.414-.107c-.672-.225-1.165-.73-1.356-1.387a2.634 2.634 0 0 1 .009-1.369 2.059 2.059 0 0 1 1.004-1.205c.302-.16.574-.226.979-.241.71-.027 1.249.168 1.697.614.385.384.597.906.597 1.472 0 .807.427 1.382 1.16 1.562.189.047.606.042.798-.01a1.51 1.51 0 0 0 1.062-1.007c.113-.365.078-.851-.083-1.171a1.564 1.564 0 0 0-.69-.68 1.391 1.391 0 0 0-.593-.144c-.223-.01-.417.02-.667.106a.828.828 0 0 1-.118.035c-.017 0-.01-.257.018-.577l.01-.13.085-.02c.38-.086.877-.072 1.258.036.632.177 1.188.723 1.384 1.36.096.309.122.783.065 1.142-.141.877-.756 1.51-1.649 1.698-.216.046-.814.046-1.041 0-.894-.18-1.476-.76-1.626-1.624a5.438 5.438 0 0 1-.046-.483c-.024-.425-.07-.606-.214-.845a1.5 1.5 0 0 0-.843-.649 2.094 2.094 0 0 0-.782-.028c-.48.098-.876.4-1.078.821-.115.24-.134.34-.133.692 0 .367.022.474.155.747.17.35.447.597.805.72.148.051.382.09.539.09h.08l-.01.06-.051.318a1.59 1.59 0 0 1-.05.258 46.192 46.192 0 0 1-.261-.054Zm8.981-.01a2.032 2.032 0 0 1-1.72-1.65 2.68 2.68 0 0 1 .03-1.089c.19-.77.83-1.362 1.649-1.523.235-.046.72-.043.952.007.603.13 1.086.479 1.384.999a2.4 2.4 0 0 1 .245.738c.133.916-.214 1.758-.913 2.214a1.726 1.726 0 0 1-.498.232c-.315.1-.76.128-1.129.071Zm.732-.634c.343-.066.623-.232.855-.508.264-.314.38-.716.34-1.168a1.492 1.492 0 0 0-1.098-1.305 2.27 2.27 0 0 0-.765-.018 1.713 1.713 0 0 0-.523.219c-.46.301-.693.783-.663 1.367.013.265.047.4.157.63.162.336.464.601.829.727.231.08.616.105.868.056Zm-.277-4.036a1.502 1.502 0 0 1-.825-.326 1.584 1.584 0 0 1-.597-1.1c-.055-.52.117-.992.488-1.342A1.527 1.527 0 0 1 80.869 0c.689 0 1.209.346 1.458.968.061.152.114.357.095.368-.062.035-.604.181-.618.167a.918.918 0 0 1-.032-.136c-.107-.561-.67-.873-1.25-.693-.383.118-.633.479-.634.914 0 .291.083.502.272.689.205.202.446.286.762.264l.168-.012v.676h-.099a.817.817 0 0 0-.122.007c-.014.004-.094 0-.18-.007Zm3.683 4.617a.671.671 0 0 1-.294-.155c-.206-.163-.304-.401-.288-.7a.591.591 0 0 1 .074-.306.766.766 0 0 1 .732-.45c.345 0 .617.169.763.473.054.113.056.13.056.346 0 .222-.001.23-.061.35a.989.989 0 0 1-.348.365c-.17.1-.432.13-.634.076Zm.408-.564c.099-.064.128-.283.053-.397-.085-.13-.388-.125-.457.008-.077.148-.033.354.087.408a.45.45 0 0 0 .317-.019Zm-.411-1.823a.804.804 0 0 1-.557-.561.935.935 0 0 1 .042-.582c.14-.3.406-.467.74-.467.347 0 .618.168.765.474.054.113.056.128.056.346 0 .222-.001.23-.061.35a.988.988 0 0 1-.348.365c-.171.1-.432.13-.637.075Zm.411-.562c.068-.045.104-.146.093-.258-.018-.167-.1-.236-.277-.233-.175.002-.255.088-.255.272 0 .185.098.273.287.258a.412.412 0 0 0 .152-.04Zm3.577 3.01a2.08 2.08 0 0 1-1.558-.932c-.247-.38-.351-.8-.33-1.332.016-.434.108-.772.296-1.087a2.5 2.5 0 0 1 .57-.597c.362-.243.798-.365 1.3-.364.467 0 .826.096 1.176.311.176.108.47.384.607.567l.095.129.037-.052c.468-.65 1.055-.956 1.83-.955.255 0 .411.018.636.074.53.132 1.001.487 1.268.956.337.591.369 1.472.076 2.09a1.864 1.864 0 0 1-.401.572c-.313.32-.63.492-1.091.589a2.85 2.85 0 0 1-.96.002 2.082 2.082 0 0 1-.932-.45 2.608 2.608 0 0 1-.41-.465c-.018-.03-.04-.054-.051-.054-.01 0-.048.043-.083.096a2.926 2.926 0 0 1-.537.54c-.434.3-.957.423-1.538.362Zm.716-.688c.665-.172 1.086-.74 1.086-1.467 0-.602-.286-1.097-.783-1.356-.242-.125-.382-.155-.728-.155-.338 0-.457.022-.69.129-.543.249-.858.756-.858 1.382 0 .428.127.764.397 1.05.24.254.49.378.932.46.107.02.505-.007.644-.043Zm3.708.008c.549-.13.951-.519 1.095-1.056a2.03 2.03 0 0 0 0-.82c-.112-.42-.4-.769-.794-.963-.251-.123-.366-.147-.72-.147-.258 0-.32.006-.443.041-.726.21-1.145.876-1.05 1.67.045.373.177.66.414.896.218.218.522.362.87.414.106.016.512-.007.628-.034Zm3.32-1.22V4.061h-.529v-.583h1.202V7.903H96.1v-1.92Zm3.532 1.903a2.086 2.086 0 0 1-1.851-1.688 3.376 3.376 0 0 1 0-.94c.134-.677.54-1.203 1.146-1.488.545-.255 1.31-.267 1.825-.028.425.196.82.576 1.126 1.084l.082.136-.274.15a5.098 5.098 0 0 1-.277.147 5.09 5.09 0 0 0-.327-.466c-.224-.27-.568-.492-.861-.556a1.9 1.9 0 0 0-.628-.004c-.3.058-.51.165-.73.373a1.392 1.392 0 0 0-.441.813c-.094.536.053 1.051.394 1.388.158.155.217.197.407.287.378.18.831.2 1.202.054.302-.119.618-.398.859-.758l.13-.194.273.15.274.149-.083.18a1.917 1.917 0 0 1-.982.993c-.393.188-.83.263-1.264.217Zm.169-4.682c-.641-.057-1.184-.525-1.363-1.174a2.433 2.433 0 0 1-.026-.714c.08-.497.417-.941.883-1.162.233-.11.345-.136.638-.147a1.46 1.46 0 0 1 .434.028c.56.116.98.521 1.15 1.107a.73.73 0 0 1 .038.182.483.483 0 0 1-.16.068 4.374 4.374 0 0 1-.46.116 4.501 4.501 0 0 1-.033-.144.888.888 0 0 0-.598-.691 1.242 1.242 0 0 0-.653 0c-.416.144-.663.536-.63.998.039.55.461.91 1.026.872l.168-.012v.675h-.099a.817.817 0 0 0-.123.007c-.013.003-.1 0-.192-.008Zm3.02 6.444c-.07-.07.014-.213.304-.512.456-.472.75-.92.75-1.142 0-.09-.048-.122-.24-.16-.228-.046-.354-.105-.48-.223a.806.806 0 0 1-.23-.718.78.78 0 0 1 .433-.603.594.594 0 0 1 .308-.075c.306-.016.506.069.733.312.158.17.22.3.244.51.029.25.01.586-.047.803-.16.618-.674 1.205-1.466 1.673-.262.154-.28.162-.309.135Zm1.041-2.37c.1-.042.13-.09.137-.226.006-.104 0-.13-.036-.185-.081-.12-.305-.14-.419-.04-.045.041-.058.069-.065.144-.012.13.006.211.061.266.068.067.216.087.322.042Zm3.291 3.923a8.58 8.58 0 0 0-.638-.017l-.556-.001-.097-.049a.498.498 0 0 1-.235-.276c-.015-.044-.027-.216-.035-.5l-.01-.432h.643v.599l.36-.01c.197-.005.37-.012.382-.016.018-.006.023-.269.023-1.237v-1.23l-.223-.11c-.308-.154-.493-.281-.652-.448-.348-.365-.5-.766-.522-1.372-.016-.452.052-.808.215-1.133a2.08 2.08 0 0 1 1.273-1.055 2.65 2.65 0 0 1 1.405.014c.307.097.54.24.794.487s.414.5.522.821c.17.511.146 1.2-.06 1.683-.134.315-.4.63-.696.826-.152.1-.328.196-.36.196-.022 0-.39-.436-.392-.466-.001-.013.063-.068.144-.123.403-.279.67-.601.787-.95.043-.13.048-.173.05-.418 0-.232-.005-.295-.04-.415a1.512 1.512 0 0 0-.97-1.018c-.17-.059-.18-.06-.492-.06-.374 0-.497.026-.773.168-.136.07-.197.116-.348.267-.295.296-.404.55-.422.986-.008.202-.003.26.029.389.068.27.178.463.39.687.115.121.301.28.329.28.007 0 .012-.308.012-.683V5.9h.638l-.005 2.563-.005 2.563-.04.057c-.075.104-.244.15-.424.116Zm4.289-5.218V4.061h-.528v-.583h1.202V7.903h-.674v-1.92Zm3.528 1.9a2.061 2.061 0 0 1-1.271-.597 2.023 2.023 0 0 1-.577-1.1 3.427 3.427 0 0 1 .001-.924c.18-.921.866-1.556 1.808-1.675.258-.032.629-.013.849.044.555.144 1.025.53 1.424 1.167l.102.162-.278.153c-.152.083-.28.145-.282.137a4.038 4.038 0 0 0-.321-.457c-.226-.27-.569-.492-.862-.556a1.664 1.664 0 0 0-1.11.173 1.876 1.876 0 0 0-.474.458c-.322.486-.323 1.235 0 1.719.082.125.24.291.359.381.104.08.381.202.527.235.433.096.832.029 1.172-.198.195-.13.436-.38.593-.619l.125-.19.235.128.274.148.04.021-.083.182c-.221.484-.549.804-1.05 1.024-.393.173-.76.23-1.2.184Zm.174-4.679a1.654 1.654 0 0 1-.633-.202 2.278 2.278 0 0 1-.553-.547c-.146-.248-.204-.457-.216-.78-.01-.274.015-.453.096-.668.134-.356.448-.69.81-.858.255-.12.348-.138.7-.138.268 0 .33.006.452.04.521.15.9.54 1.06 1.09.025.086.045.165.045.174 0 .01-.03.03-.065.045a5.578 5.578 0 0 1-.562.148 2.164 2.164 0 0 1-.033-.144c-.09-.43-.401-.701-.844-.735-.502-.04-.916.265-1.018.749a.946.946 0 0 0 0 .435c.101.48.518.774 1.033.73l.142-.013v.676h-.1a.817.817 0 0 0-.122.007c-.013.004-.1 0-.192-.008Zm3.787 2.232a.723.723 0 0 1-.336-.189.86.86 0 0 1-.232-.381 1.124 1.124 0 0 1-.021-.228c.002-.474.337-.814.8-.812.303 0 .512.102.687.333.115.152.16.31.15.528a.714.714 0 0 1-.237.53.828.828 0 0 1-.81.219Zm.32-.53c.18-.035.244-.315.105-.455a.295.295 0 0 0-.304-.057c-.104.034-.145.093-.155.225-.018.222.12.334.355.288Zm-1.086 4.743c-.072-.072.01-.213.301-.512.458-.471.752-.919.752-1.143 0-.09-.049-.122-.24-.16-.228-.046-.355-.105-.48-.223-.334-.316-.32-.892.029-1.207a.742.742 0 0 1 .484-.19c.307-.015.506.071.736.32.158.17.215.29.239.502.029.251.01.587-.047.804-.169.652-.743 1.28-1.615 1.764-.137.076-.13.074-.159.045Zm1.04-2.37c.1-.043.13-.092.137-.227.006-.105 0-.13-.037-.186-.034-.05-.063-.068-.143-.089-.135-.034-.242-.003-.305.09-.037.054-.042.08-.036.185.006.105.014.13.059.177.028.03.069.058.09.062a.447.447 0 0 0 .235-.012Z"/></svg>