<?xml version="1.0" encoding="UTF-8" standalone="no"?>
<svg xmlns="http://www.w3.org/2000/svg" width="73" height="27" viewBox="0 0 73 27">
	<path style="-inkscape-font-specification:Sans" d="M68.972 15.12c.264.335.496.595.696.78.208.183.412.307.612.371.2.056.408.06.624.011a4.62 4.62 0 00.756-.252 4.158 4.158 0 00-.528-.744c-.2-.232-.42-.404-.66-.516a1.215 1.215 0 00-.732-.107c-.248.04-.504.192-.768.455m-1.188 1.26a7.088 7.088 0 01.672-2.22c.184-.375.4-.715.648-1.02a2.35 2.35 0 01.828-.683 1.69 1.69 0 011.02-.12c.376.056.776.26 1.2.612.336.336.588.74.756 1.211.168.472.268.968.3 1.488.04.52.02 1.044-.06 1.572a7.258 7.258 0 01-.372 1.464 18.89 18.89 0 01-.408.96c-.16.352-.34.708-.54 1.068-.192.36-.404.712-.636 1.056a7.598 7.598 0 01-.732.948c-.256.28-.528.512-.816.696-.28.192-.568.312-.864.36-.36.015-.728.044-1.104.084-.368.048-.74.084-1.116.108a8.468 8.468 0 01-1.104 0 3.95 3.95 0 01-1.092-.204c-.248-.08-.356-.152-.324-.216.024-.056.144-.096.36-.12.76-.104 1.464-.268 2.112-.492a10.68 10.68 0 001.776-.756 9.716 9.716 0 001.428-.9c.424-.32.788-.632 1.092-.936.304-.296.548-.576.732-.84.192-.256.324-.468.396-.636.08-.16.132-.352.156-.576.032-.232.04-.456.024-.672a2.098 2.098 0 00-.096-.588c-.048-.168-.108-.272-.18-.312a7.652 7.652 0 00-.18.48 2.472 2.472 0 01-.3.624c-.128.208-.3.392-.516.552-.216.152-.496.232-.84.24-.28 0-.556-.064-.828-.192a2.821 2.821 0 01-.708-.516 2.596 2.596 0 01-.504-.708 2.007 2.007 0 01-.18-.816m-10.787 6.828c-.16-.12-.2-.256-.12-.408.2-.272.396-.544.588-.816l.588-.804c.064-.072.116-.104.156-.096.048.007.1.032.156.072.136.104.276.216.42.336.152.12.3.232.444.336.144.112.28.208.408.288.136.088.251.148.347.18.088.032.14.04.156.024.017-.015.06-.068.132-.156.08-.088.196-.228.348-.42l.672-.804c.064-.064.116-.088.156-.072a.791.791 0 01.12.072l.888.72c.216.168.372.292.468.372.104.08.164.128.18.144a.3.3 0 01.048.036.178.178 0 01.084.12c.016.048.004.096-.036.144-.2.256-.4.508-.6.756l-.576.768c-.072.088-.132.128-.18.12a.364.364 0 01-.144-.06 5.687 5.687 0 01-.78-.588c-.24-.208-.488-.44-.744-.696-.207.256-.407.512-.6.768-.191.256-.387.508-.587.756-.08.096-.184.12-.312.072-.12-.048-.22-.1-.3-.156a4.468 4.468 0 01-.372-.228 3.652 3.652 0 01-.312-.216 2.872 2.872 0 01-.312-.252c-.112-.088-.24-.192-.384-.312m3.42-7.104a3.018 3.018 0 00-.133-.947c-.088-.32-.2-.636-.335-.948a16.69 16.69 0 00-.432-.936 8.782 8.782 0 01-.36-.9.412.412 0 010-.408c.136-.312.276-.62.42-.924.144-.312.284-.628.42-.948.024-.056.06-.08.108-.072.048.007.08.032.095.072.096.2.224.484.384.852.168.36.328.76.48 1.2.16.432.296.88.408 1.344.112.464.164.896.156 1.296 0 .312-.028.6-.084.863a5.106 5.106 0 01-.24.78 11.9 11.9 0 01-.372.84c-.144.296-.304.636-.48 1.02a2.73 2.73 0 01-.611.204c-.24.056-.492.1-.756.132s-.524.056-.78.072a9.16 9.16 0 01-.648 0v-2.4h.648a24.195 24.195 0 001.5-.095c.24-.024.443-.056.611-.096m-14.639.192l1.8-.024c.6-.016 1.172-.04 1.716-.073.544-.031 1.044-.08 1.5-.144a6.16 6.16 0 001.164-.264 5.154 5.154 0 00-.552-1.02 11.351 11.351 0 00-.792-1.055 16.46 16.46 0 00-.96-1.044 29.781 29.781 0 00-1.02-.996 34.9 34.9 0 00-.996-.936c-.32-.296-.612-.568-.876-.816-.032.216-.06.392-.084.528-.024.136-.072.212-.144.228-.088.024-.208-.048-.36-.216a4.5 4.5 0 01-.432-.612 5.536 5.536 0 01-.396-.744c-.12-.256-.192-.456-.216-.6-.016-.128.004-.3.06-.516a5.456 5.456 0 01.504-1.284c.096-.184.188-.308.276-.372l.372-.216c.136-.088.336-.2.6-.336.264-.136.616-.304 1.056-.504a34.2 34.2 0 011.728-.744 108.19 108.19 0 012.628-1.044c1.04-.4 2.292-.868 3.756-1.404.096-.048.168-.056.216-.024.048.024.028.092-.06.204-.048.048-.148.156-.3.324s-.316.344-.492.528c-.168.184-.324.348-.468.492-.144.144-.232.216-.264.216-.632.296-1.22.564-1.764.804-.544.232-1.108.476-1.692.732a219.792 219.792 0 00-4.296 1.908l1.656 1.596c.464.44.86.82 1.188 1.14.328.312.604.584.828.816.232.224.44.432.624.624.192.192.372.388.54.588.176.192.372.416.588.672.224.248.48.548.768.9l1.08 1.26c.408.471.904.823 1.488 1.055.584.224 1.18.336 1.788.336h.72c.136 0 .208.004.216.012 0 .104-.004.264-.012.48 0 .208-.004.432-.012.672 0 .24-.004.472-.012.696v.504a4.034 4.034 0 01-.744.072c-.32 0-.652-.004-.996-.012a5.226 5.226 0 01-1.008-.12 3.67 3.67 0 01-.912-.336 2.088 2.088 0 01-.72-.66 34.96 34.96 0 01-.636-.876l-.636-.9c-.088.336-.22.676-.396 1.02a6.578 6.578 0 01-.708 1.056c-.104.12-.284.224-.54.312a6 6 0 01-.876.228c-.336.056-.7.104-1.092.144-.384.04-.76.072-1.128.096a64.47 64.47 0 01-1.031.036c-.312.008-.568.012-.768.012h-.505l.024-1.2c0-.384.004-.784.012-1.2m-7.655 6.48c-.16-.12-.2-.257-.12-.409.2-.272.396-.544.588-.816l.588-.804c.064-.072.116-.103.156-.096.048.008.1.032.156.072.136.104.276.216.42.336.152.12.3.232.444.336.144.112.28.208.408.288.136.088.252.148.348.18.088.032.14.04.156.024.016-.015.06-.068.131-.156a8.76 8.76 0 00.348-.42l.672-.804c.064-.064.116-.087.156-.072a.791.791 0 01.12.072l.888.72c.216.169.372.292.468.372.104.08.164.128.18.144a.3.3 0 01.048.036.178.178 0 01.084.12c.016.048.004.096-.036.144-.2.256-.4.508-.6.756l-.576.768c-.072.088-.132.128-.18.12a.364.364 0 01-.144-.06 5.688 5.688 0 01-.78-.587c-.24-.208-.488-.44-.743-.696-.208.256-.408.512-.6.768s-.388.508-.588.756c-.08.096-.184.12-.312.072-.12-.048-.22-.1-.3-.156a4.473 4.473 0 01-.372-.228 3.695 3.695 0 01-.312-.216 3.997 3.997 0 01-.324-.252 61.381 61.381 0 00-.372-.312m4.043-6.708a4.72 4.72 0 01-.815 1.128c-.32.328-.676.608-1.068.84-.384.224-.8.396-1.248.516-.44.12-.888.176-1.344.168v-2.46c.16.015.296.024.408.024.112-.008.212-.011.3-.011.392 0 .796-.064 1.212-.192a6.989 6.989 0 001.212-.492 7.93 7.93 0 001.091-.696c.344-.264.636-.528.876-.792.072-.08.128-.108.168-.084.04.024.06.072.06.144-.032.376.04.688.216.936.176.24.4.436.672.588.28.152.584.268.912.348.328.072.624.132.888.18.136.024.28.04.432.048.152.007.308.011.468.011 0 .104-.004.264-.012.48 0 .208-.004.432-.012.672 0 .24-.004.472-.012.696v.504c-.735.096-1.243.104-1.523.024a5.08 5.08 0 01-1.02-.228 3.388 3.388 0 01-.888-.48 2.667 2.667 0 01-.66-.768 2.622 2.622 0 01-.312-1.104m-11.928 6.3c-.16-.12-.2-.256-.12-.408.2-.272.396-.544.588-.816.192-.272.388-.54.588-.804.064-.072.116-.108.156-.108.048.008.1.032.156.072l.42.348c.152.12.3.232.444.336.144.112.28.208.408.288.136.088.252.148.348.18.088.032.14.04.156.024a2.24 2.24 0 00.132-.168c.08-.088.196-.228.348-.42.16-.184.384-.448.672-.792.064-.072.116-.1.156-.084a.458.458 0 01.12.084c.288.232.524.424.708.576l.456.36c.12.096.208.164.264.204a1.5 1.5 0 00.12.096c.016 0 .04.02.072.06.04.04.06.08.06.12a.163.163 0 01-.048.12c-.2.256-.4.508-.6.756-.192.256-.388.512-.588.768-.064.08-.12.116-.168.108a.496.496 0 01-.144-.048 5.688 5.688 0 01-.78-.588 14.33 14.33 0 01-.744-.696c-.208.248-.408.5-.6.756a49.2 49.2 0 01-.588.768c-.08.096-.184.116-.312.06a2.12 2.12 0 01-.3-.144 4.473 4.473 0 01-.372-.228 3.651 3.651 0 01-.312-.216 3.997 3.997 0 01-.324-.252 69.305 69.305 0 00-.372-.312m2.028 2.472c.04-.056.112-.152.216-.288.112-.128.228-.264.348-.408.12-.144.232-.284.336-.42.112-.128.188-.216.228-.264.064-.08.12-.12.168-.12a.246.246 0 01.144.072c.288.248.58.484.876.708.296.224.536.436.72.636.048.04.068.076.06.107a.31.31 0 01-.072.132c-.176.264-.36.508-.552.732-.192.232-.38.476-.564.732-.088.696-.196.72-.324.072a3.35 3.35 0 01-.396-.264c-.152-.12-.308-.248-.468-.384a7.434 7.434 0 01-.444-.408 2.492 2.492 0 01-.3-.324c-.04-.064-.056-.116-.048-.156a.505.505 0 01.072-.155m1.836-8.772a4.72 4.72 0 01-.816 1.128c-.32.328-.676.608-1.068.84-.384.224-.8.396-1.248.516-.44.12-.888.176-1.344.168v-2.46c.16.015.296.024.408.024.112-.008.212-.011.3-.011.392 0 .796-.064 1.212-.192a6.989 6.989 0 001.212-.492 7.93 7.93 0 001.092-.696c.344-.264.636-.528.876-.792.072-.08.128-.108.168-.084.04.024.06.072.06.144-.032.376.04.688.216.936.176.24.4.436.672.588.28.152.584.268.912.348.328.072.624.132.888.18.136.024.28.04.432.048.152.007.308.011.468.011 0 .104-.004.264-.012.48 0 .208-.004.432-.012.672 0 .24-.004.472-.012.696v.504c-.736.096-1.244.104-1.524.024a5.08 5.08 0 01-1.02-.228 3.388 3.388 0 01-.888-.48 2.667 2.667 0 01-.66-.768 2.622 2.622 0 01-.311-1.104m-12.108 6.708c-.16-.12-.2-.256-.12-.408.2-.272.396-.544.588-.816l.588-.804c.064-.072.116-.104.156-.096.048.007.1.032.156.072.136.104.276.216.42.336.152.12.3.232.444.336.144.112.28.208.408.288.136.088.252.148.348.18.088.032.14.04.156.024.016-.015.06-.068.132-.156a8.76 8.76 0 00.348-.42l.672-.804c.064-.064.116-.088.156-.072a.79.79 0 01.12.072l.888.72c.216.168.372.292.468.372.104.08.164.128.18.144a.3.3 0 01.048.036.178.178 0 01.084.12c.016.048.004.096-.036.144-.2.256-.4.508-.6.756l-.576.768c-.072.088-.132.128-.18.12a.364.364 0 01-.144-.06 5.688 5.688 0 01-.78-.588c-.24-.208-.488-.44-.744-.696a25.1 25.1 0 00-.6.768c-.192.256-.388.508-.588.756-.08.096-.184.12-.312.072-.12-.048-.22-.1-.3-.156a4.473 4.473 0 01-.372-.228 3.695 3.695 0 01-.312-.216 3.997 3.997 0 01-.324-.252 61.347 61.347 0 00-.372-.312m4.044-6.708a4.72 4.72 0 01-.816 1.128c-.32.328-.676.608-1.068.84-.384.224-.8.396-1.248.516-.44.12-.888.176-1.344.168v-2.46c.16.016.296.025.408.025.112-.008.212-.012.3-.012.392 0 .796-.064 1.212-.192a6.989 6.989 0 001.212-.492 7.93 7.93 0 001.092-.696c.344-.264.636-.528.876-.792.072-.08.128-.108.168-.084.04.024.06.072.06.144-.032.376.04.688.216.936.176.24.4.436.672.588.28.152.584.268.912.348.328.072.624.132.888.18.136.024.28.04.432.048.152.008.308.012.468.012 0 .104-.004.264-.012.48 0 .208-.004.432-.012.672 0 .24-.004.472-.012.696v.503c-.736.097-1.244.104-1.524.025a5.08 5.08 0 01-1.02-.228 3.388 3.388 0 01-.888-.48 2.667 2.667 0 01-.66-.768 2.622 2.622 0 01-.312-1.104M16.74 4.15c-.16 0-.32.036-.48.108-.151.064-.3.148-.443.252-.144.096-.28.204-.408.324-.128.112-.24.216-.336.312.112-.007.256-.007.432 0 .176 0 .372-.004.588-.011a5.44 5.44 0 00.684-.096c.248-.048.496-.132.744-.252a.72.72 0 00-.324-.48c-.16-.112-.312-.164-.456-.156m-2.1.924c.112-.144.22-.3.324-.468.104-.176.188-.352.252-.528 0-.432-.008-.856-.024-1.272-.016-.416-.016-.84 0-1.272a1.358 1.358 0 00-.216-.288.448.448 0 01-.108-.312l.24-.432c.088-.144.176-.284.264-.42a.498.498 0 01.096-.072c.04-.024.072-.011.096.036a1.3 1.3 0 00.276.516c.144.16.292.312.444.456a3.57 3.57 0 01-.24.552c-.08.16-.16.292-.24.396.008.384.008.696 0 .936a7.05 7.05 0 01-.036.552c-.016.128-.032.22-.048.276a.99.99 0 00-.012.12c.192-.168.404-.332.636-.492.24-.16.496-.24.768-.24.384 0 .692.12.924.36.232.24.34.552.324.936-.08.112-.2.284-.36.516-.16.232-.348.444-.564.636-.2.12-.428.22-.684.3-.248.08-.508.144-.78.192a8.957 8.957 0 01-.792.108 13.05 13.05 0 01-.732.024c-.096 0-.172-.004-.228-.012a.986.986 0 01-.228-.072 10.297 10.297 0 01-.42-.228 65.949 65.949 0 00-.804-.444c-.104-.048-.148-.088-.132-.12.024-.032.088-.052.192-.06a3.85 3.85 0 01.528-.01h.54c.176 0 .328-.008.456-.025.136-.024.232-.072.288-.144m3.264 10.007a3.586 3.586 0 00-.132.324 25.95 25.95 0 00-.24.792c-.104.312-.26.588-.468.828-.2.24-.436.448-.708.624a4.917 4.917 0 01-.864.456c-.312.12-.628.22-.948.3a8.426 8.426 0 01-1.8.204c-.32 0-.616-.052-.888-.156a2.075 2.075 0 01-.684-.432 1.949 1.949 0 01-.42-.672 2.004 2.004 0 01-.108-.852l.024-.408a8.47 8.47 0 00.036-.468 9.86 9.86 0 00.036-.468c.016-.16.032-.3.048-.42.056-.223.128-.335.216-.335.112 0 .16.127.144.383a2.41 2.41 0 00.012.432.94.94 0 00.276.504c.072.056.148.12.228.192.104.089.224.16.36.216.144.048.292.089.444.12.16.024.32.04.48.048.16.008.312.012.456.012.144 0 .348-.015.612-.048a10.544 10.544 0 001.764-.384 5.9 5.9 0 00.84-.348c.248-.136.448-.288.6-.456a.73.73 0 00.204-.564l-.06-.456a3.703 3.703 0 00-.18-.744 15.336 15.336 0 00-.492-1.284 38.83 38.83 0 00-.936-2.088l.444-2.112c.016-.048.036-.08.06-.096.032-.015.06 0 .084.048.112.256.236.512.372.768.136.248.276.512.42.792.28.488.552 1.016.816 1.584.264.568.468 1.164.612 1.788.08.384.168.768.264 1.152a5.1 5.1 0 00.42 1.056c.176.32.404.596.684.828.28.232.644.388 1.092.468a2.9 2.9 0 00.276.048c.08.007.168.011.264.011h.815v1.512c0 .176-.004.328-.011.456a5.29 5.29 0 01-.036.372c-.136.024-.26.044-.372.06a2.248 2.248 0 01-.324.024c-.312 0-.612-.015-.9-.048a3.576 3.576 0 01-.792-.18 2.657 2.657 0 01-.684-.36 2.292 2.292 0 01-.552-.588 4.41 4.41 0 01-.564-1.236 9.928 9.928 0 01-.24-1.2M4.297 23.207c-.16-.12-.2-.256-.12-.408.2-.272.396-.544.588-.816l.588-.804c.064-.072.116-.104.156-.096.048.007.1.032.156.072.136.104.276.216.42.336.152.12.3.232.444.336.143.112.28.208.407.288.136.088.252.148.348.18.088.032.14.04.156.024.017-.015.06-.068.132-.156a8.77 8.77 0 00.348-.42l.672-.804c.064-.064.116-.088.156-.072a.79.79 0 01.12.072l.888.72c.216.168.372.292.468.372.104.08.164.128.18.144a.3.3 0 01.048.036.178.178 0 01.084.12c.016.048.004.096-.036.144-.2.256-.4.508-.6.756l-.576.768c-.072.088-.132.128-.18.12a.364.364 0 01-.144-.06 5.687 5.687 0 01-.78-.588c-.24-.208-.488-.44-.744-.696a25.08 25.08 0 00-.6.768c-.192.256-.387.508-.587.756-.08.096-.184.12-.312.072-.12-.048-.22-.1-.3-.156a4.468 4.468 0 01-.372-.228 3.652 3.652 0 01-.312-.216 2.872 2.872 0 01-.312-.252c-.112-.088-.24-.192-.384-.312m3.42-7.104a3.016 3.016 0 00-.133-.948c-.088-.32-.2-.636-.336-.948a16.69 16.69 0 00-.432-.936 8.782 8.782 0 01-.36-.9.412.412 0 010-.408c.137-.311.276-.62.42-.923.144-.312.284-.628.42-.948.024-.056.06-.08.108-.072.048.007.08.032.096.072.096.2.224.484.384.852.168.36.328.76.48 1.2.16.431.296.88.408 1.343.112.464.164.896.156 1.296 0 .312-.028.6-.084.864a5.106 5.106 0 01-.24.78 11.9 11.9 0 01-.372.84c-.144.296-.304.636-.48 1.02a2.73 2.73 0 01-.612.204c-.24.056-.491.1-.755.132s-.524.056-.78.072a9.16 9.16 0 01-.648 0v-2.4h.648a24.195 24.195 0 001.5-.096c.24-.024.443-.056.611-.096m-5.651-3.107c.12 1.111.48 1.94 1.08 2.483.608.536 1.492.8 2.652.792 0 .104-.004.264-.012.48 0 .208-.004.432-.012.672 0 .24-.004.472-.012.696v.504a4.562 4.562 0 01-1.68 0 3.67 3.67 0 01-1.464-.648 3.69 3.69 0 01-1.068-1.284c-.28-.536-.444-1.176-.492-1.92-.168-1.567-.336-3.107-.504-4.62a290.82 290.82 0 00-.552-4.642L.877 3.3c.04-.112.072-.156.096-.132.024.024.04.072.048.144.128.808.236 1.616.324 2.424.096.808.18 1.616.252 2.424.08.8.156 1.604.228 2.412.072.808.152 1.616.24 2.424" font-family="Sans" font-size="13" font-weight="400"/>
</svg>
