<?xml version="1.0" encoding="UTF-8"?>
<svg xmlns="http://www.w3.org/2000/svg" width="112" height="13" viewBox="0 0 112 13">
	<title>
		ca-tagline
	</title>
	<g id="Page-1" fill="none" fill-rule="evenodd" stroke="none" stroke-width="1">
		<path id="ca-tagline" fill="#000" fill-rule="nonzero" d="M51.618899,3.32810849 C51.671437,3.32860849 51.712607,3.33730849 51.742397,3.35410849 C51.772187,3.37090849 51.787353,3.39260849 51.787897,3.41910849 C51.785727,3.42452849 51.777057,3.50469849 51.761897,3.65959849 C51.746727,3.81451849 51.738097,4.01168849 51.735897,4.25109849 C51.738797,4.29569849 51.755427,4.31879849 51.785787,4.32079849 C51.816147,4.32269849 51.842847,4.31239849 51.865897,4.29009849 C52.165969,3.99003849 52.475798,3.76145849 52.79538,3.60437849 C53.114955,3.44732849 53.398785,3.36812849 53.646869,3.36712849 C54.322855,3.39150849 54.872098,3.66124849 55.294597,4.17636849 C55.717086,4.69148849 55.934829,5.30572849 55.947839,6.01908849 C55.945937,6.54477849 55.86198,7.01114849 55.695967,7.41819849 C55.529943,7.82525849 55.293238,8.17787849 54.985852,8.47605849 C54.718538,8.72820849 54.424417,8.91290849 54.103488,9.03017849 C53.782551,9.14744849 53.43968,9.20504849 53.074876,9.20404849 C52.867932,9.20364849 52.667897,9.18614849 52.474771,9.15154849 C52.28164,9.11690849 52.10468,9.06723849 51.943891,9.00253849 C51.878298,8.97243849 51.831388,8.96043849 51.803168,8.96743849 C51.774948,8.97441849 51.761192,9.01862849 51.761898,9.10002849 L51.761898,9.10002849 L51.761898,10.5040185 C51.748625,11.0221085 51.810916,11.3476485 51.94877,11.4806285 C52.08662,11.6135985 52.379658,11.6819985 52.827884,11.6869985 C52.866884,11.7341185 52.886381,11.8055985 52.886384,11.9014985 C52.886384,11.9973685 52.866884,12.0688985 52.827884,12.1159985 C52.555968,12.1091985 52.300305,12.1030985 52.060894,12.0980985 C51.821479,12.0930985 51.552816,12.0903585 51.254905,12.0900985 C50.978115,12.0900985 50.732202,12.0930985 50.517164,12.0980985 C50.302124,12.1032985 50.062711,12.1089985 49.798923,12.1159985 C49.759923,12.0688685 49.740423,11.9973985 49.740423,11.9014985 C49.740423,11.8056185 49.759923,11.7340985 49.798923,11.6869985 C50.184855,11.6880785 50.439976,11.6209185 50.564288,11.4854985 C50.688601,11.3500885 50.745471,11.0229185 50.734911,10.5040185 L50.734911,10.5040185 L50.7348445,4.80777033 C50.7271503,4.53245482 50.6740896,4.34906421 50.575663,4.25759849 C50.460831,4.15089849 50.232251,4.08809849 49.889922,4.06909849 C49.875842,4.02468849 49.865022,3.96399849 49.857422,3.88709849 C49.849842,3.81018849 49.852002,3.74949849 49.863922,3.70509849 C50.306728,3.64714849 50.665847,3.58755849 50.941282,3.52635849 C51.216715,3.46514849 51.442587,3.39910849 51.618899,3.32810849 Z M99.810854,3.47110849 C99.843654,3.47190849 99.869154,3.48000849 99.887254,3.49560849 C99.905854,3.51120849 99.914574,3.52950849 99.914854,3.55040849 C99.912654,3.58176849 99.904054,3.75596849 99.888854,4.07299849 C99.873654,4.39003849 99.864854,4.66172849 99.862854,4.88808849 L99.862854,4.88808849 L99.8621723,7.53409687 C99.8702915,7.77242488 99.9246873,7.95207349 100.025354,8.07304849 C100.146134,8.21820849 100.408294,8.30483849 100.811844,8.33303849 C100.850844,8.37691849 100.870344,8.43543849 100.870344,8.50853849 C100.870344,8.58166849 100.850844,8.64013849 100.811844,8.68403849 C100.417234,8.73088849 100.091694,8.79970849 99.835224,8.89040849 C99.578744,8.98113849 99.379954,9.08567849 99.238864,9.20402849 C99.190974,9.21982849 99.149574,9.22882849 99.114874,9.22982849 C99.080164,9.23112849 99.039164,9.22252849 98.991864,9.20402849 C98.985864,9.19100849 98.962064,9.10103849 98.920364,8.93411849 C98.878664,8.76720849 98.854864,8.60151849 98.848864,8.43703849 C98.846264,8.39333849 98.828064,8.37243849 98.794264,8.37543849 C98.760464,8.37803849 98.726664,8.39293849 98.692864,8.42013849 C98.375994,8.68200849 98.080244,8.87813849 97.805624,9.00854849 C97.531004,9.13892849 97.267754,9.20410849 97.015884,9.20402849 C96.382914,9.18642849 95.942544,9.00388849 95.694744,8.65641849 C95.446934,8.30893849 95.328274,7.90215849 95.338874,7.43605849 L95.338874,7.43605849 L95.338874,4.94008849 C95.344284,4.53032849 95.287954,4.25786849 95.169874,4.12271849 C95.051794,3.98759849 94.839464,3.91339849 94.532884,3.90009849 C94.493884,3.85297849 94.474384,3.78149849 94.474384,3.68559849 C94.474384,3.58973849 94.493884,3.51820849 94.532884,3.47110849 C94.772564,3.47790849 95.001684,3.48400849 95.220244,3.48900849 C95.438804,3.49400849 95.651674,3.49673849 95.858864,3.49700849 C95.959064,3.49700849 96.051114,3.49400849 96.135114,3.48900849 C96.219054,3.48380849 96.278654,3.47810849 96.313854,3.47110849 C96.346654,3.47190849 96.372154,3.48000849 96.390254,3.49560849 C96.408854,3.51120849 96.417584,3.52950849 96.417854,3.55040849 C96.415654,3.58176849 96.407054,3.75596849 96.391854,4.07299849 C96.376654,4.39003849 96.367854,4.66172849 96.365854,4.88808849 L96.365854,4.88808849 L96.365854,7.25405849 C96.384814,7.81602849 96.509394,8.18381849 96.739604,8.35741849 C96.969804,8.53103849 97.191884,8.60953849 97.405844,8.59303849 C97.568884,8.59303849 97.753044,8.54103849 97.958334,8.43703849 C98.163624,8.33304849 98.386784,8.17704849 98.627824,7.96904849 C98.716664,7.89397849 98.774264,7.82049849 98.800564,7.74869849 C98.826864,7.67687849 98.838864,7.58132849 98.835864,7.46205849 L98.835864,7.46205849 L98.8353437,4.80330041 C98.8274645,4.46898943 98.772929,4.24104099 98.671744,4.11946849 C98.556094,3.98049849 98.342134,3.90709849 98.029874,3.90009849 C97.990874,3.85297849 97.971374,3.78149849 97.971374,3.68559849 C97.971374,3.58973849 97.990874,3.51820849 98.029874,3.47110849 C98.269554,3.47790849 98.498674,3.48400849 98.717244,3.48900849 C98.935794,3.49400849 99.148664,3.49673849 99.355854,3.49700849 C99.456064,3.49700849 99.548104,3.49400849 99.632104,3.48900849 C99.716054,3.48380849 99.775654,3.47810849 99.810854,3.47110849 Z M68.158219,7.16184424e-05 C68.273046,-0.00201150878 68.329416,0.0413484912 68.327216,0.130148491 C68.325046,0.134218491 68.316376,0.256088491 68.301216,0.495768491 C68.286046,0.735458491 68.277416,1.06857849 68.275216,1.49512849 L68.275216,1.49512849 L68.275216,7.38405849 C68.262752,7.69821849 68.316918,7.92787849 68.437714,8.07304849 C68.558498,8.21820849 68.820661,8.30483849 69.224204,8.33303849 C69.263194,8.37691849 69.282704,8.43543849 69.282704,8.50853849 C69.282704,8.58166849 69.263194,8.64013849 69.224204,8.68403849 C68.829599,8.73088849 68.504062,8.79970849 68.247592,8.89040849 C67.99111,8.98113849 67.792321,9.08567849 67.651224,9.20402849 C67.601926,9.21782849 67.560766,9.22642849 67.527726,9.22842849 C67.494677,9.23082849 67.453517,9.22272849 67.404227,9.20402849 C67.398267,9.19156849 67.374427,9.10273849 67.332727,8.93753849 C67.291017,8.77232849 67.267227,8.60549849 67.261227,8.43703849 C67.258617,8.39333849 67.240417,8.37243849 67.206627,8.37543849 C67.172818,8.37803849 67.139018,8.39293849 67.105228,8.42013849 C66.790533,8.68200849 66.503454,8.87813849 66.244002,9.00854849 C65.984544,9.13892849 65.729964,9.20410849 65.480262,9.20402849 C64.773936,9.18859849 64.23011,8.92696849 63.848783,8.41916849 C63.467454,7.91135849 63.274591,7.24999849 63.270291,6.43506849 C63.272727,5.95380849 63.352351,5.52209849 63.509162,5.13995849 C63.665972,4.75781849 63.885344,4.42686849 64.167279,4.14709849 C64.422399,3.89847849 64.705145,3.70672849 65.015518,3.57185849 C65.325886,3.43700849 65.693131,3.36910849 66.117254,3.36710849 C66.343935,3.37631849 66.560057,3.41310849 66.76562,3.47760849 C66.971176,3.54210849 67.093051,3.57910849 67.131241,3.58810849 C67.175921,3.58890849 67.206791,3.58080849 67.223861,3.56370849 C67.240931,3.54670849 67.249039,3.51580849 67.248231,3.47110849 L67.248231,3.47110849 L67.2484705,1.64168385 C67.2430108,1.22128528 67.188765,0.967179602 67.085733,0.879268491 C66.969814,0.780438491 66.74665,0.734138491 66.416242,0.741138491 C66.377242,0.697278491 66.351242,0.635488491 66.338242,0.555888491 C66.325242,0.476278491 66.325242,0.408048491 66.338242,0.351148491 C66.621255,0.327588491 66.948959,0.280468491 67.321354,0.209768491 C67.69374,0.139098491 67.972695,0.0692484912 68.158219,7.16184424e-05 Z M46.183101,3.36710849 C47.178396,3.40448849 47.885262,3.72297849 48.303699,4.32259849 C48.722125,4.92221849 48.925246,5.57870849 48.913066,6.29206849 C48.919289,6.98214849 48.702084,7.62996849 48.261449,8.23554849 C47.820804,8.84111849 47.119356,9.16392849 46.157101,9.20402849 C45.241424,9.17044849 44.557308,8.87036849 44.104753,8.30378849 C43.652195,7.73721849 43.426323,7.10564849 43.4271348,6.40906849 C43.432282,5.56001849 43.672237,4.84665849 44.147002,4.26896849 C44.621765,3.69129849 45.300464,3.39070849 46.183101,3.36710849 Z M109.430184,3.39308849 C110.312274,3.41908849 110.904304,3.65958849 111.206284,4.11457849 C111.508254,4.56957849 111.648554,5.08306849 111.627154,5.65505849 C111.626654,5.72677849 111.604954,5.78157849 111.562154,5.81917849 C111.519354,5.85687849 111.458654,5.87580849 111.380154,5.87607849 L111.380154,5.87607849 L107.922204,5.85007849 C107.923284,6.22733849 107.960104,6.56479849 108.032704,6.86243849 C108.105284,7.16007849 108.207114,7.41628849 108.338194,7.63104849 C108.544294,7.96010849 108.772334,8.19897849 109.022314,8.34766849 C109.272284,8.49633849 109.516574,8.56903849 109.755174,8.56703849 C110.122144,8.56866849 110.424934,8.51341849 110.663544,8.40128849 C110.902134,8.28916849 111.136674,8.11041849 111.367154,7.86504849 C111.444354,7.87124849 111.504454,7.89124849 111.547554,7.92514849 C111.590554,7.95900849 111.621454,8.00832849 111.640154,8.07302849 C111.382314,8.41589849 111.072494,8.68889849 110.710664,8.89201849 C110.348834,9.09513849 109.922004,9.19900849 109.430184,9.20400849 C108.965434,9.20184849 108.572194,9.12817849 108.250444,8.98301849 C107.928704,8.83784849 107.658954,8.63418849 107.441204,8.37201849 C107.228064,8.12123849 107.072634,7.82981849 106.974834,7.49778849 C106.877014,7.16574849 106.829214,6.81583849 106.830199,6.44804849 C106.867864,5.45626849 107.159814,4.70011849 107.706074,4.17957849 C108.252344,3.65904849 108.827044,3.39708849 109.430184,3.39308849 Z M59.779792,3.39308849 C60.661881,3.41908849 61.253915,3.65958849 61.555894,4.11457849 C61.857864,4.56957849 61.998154,5.08306849 61.976764,5.65505849 C61.976214,5.72677849 61.954554,5.78157849 61.911764,5.81917849 C61.868968,5.85687849 61.808306,5.87580849 61.729766,5.87607849 L61.729766,5.87607849 L58.271811,5.85007849 C58.272892,6.22733849 58.309729,6.56479849 58.382309,6.86243849 C58.45489,7.16007849 58.556722,7.41628849 58.687805,7.63104849 C58.893905,7.96010849 59.121943,8.19897849 59.371921,8.34766849 C59.621894,8.49633849 59.866183,8.56903849 60.104787,8.56703849 C60.471758,8.56866849 60.774545,8.51341849 61.01315,8.40128849 C61.251747,8.28916849 61.486286,8.11041849 61.716766,7.86504849 C61.793952,7.87124849 61.854074,7.89124849 61.897144,7.92514849 C61.940194,7.95900849 61.971074,8.00832849 61.989764,8.07302849 C61.731929,8.41589849 61.4221,8.68889849 61.060276,8.89201849 C60.698443,9.09513849 60.271616,9.19900849 59.779792,9.20400849 C59.315045,9.20184849 58.921801,9.12817849 58.600057,8.98301849 C58.27831,8.83784849 58.008564,8.63418849 57.790818,8.37201849 C57.577674,8.12123849 57.422219,7.82981849 57.324449,7.49778849 C57.226676,7.16574849 57.178426,6.81583849 57.1797964,6.44804849 C57.21747,5.45626849 57.509424,4.70011849 58.055689,4.17957849 C58.601951,3.65904849 59.176652,3.39708849 59.779792,3.39308849 Z M13.727057,3.39308849 C14.609146,3.41908849 15.201179,3.65958849 15.503159,4.11457849 C15.805129,4.56957849 15.945419,5.08306849 15.924029,5.65505849 C15.923479,5.72677849 15.901819,5.78157849 15.859029,5.81917849 C15.816233,5.85687849 15.755572,5.87580849 15.677032,5.87607849 L15.677032,5.87607849 L12.219076,5.85007849 C12.220158,6.22733849 12.256985,6.56479849 12.329575,6.86243849 C12.402156,7.16007849 12.503988,7.41628849 12.635071,7.63104849 C12.84117,7.96010849 13.069209,8.19897849 13.319187,8.34766849 C13.56916,8.49633849 13.813448,8.56903849 14.052053,8.56703849 C14.419023,8.56866849 14.721811,8.51341849 14.960416,8.40128849 C15.199013,8.28916849 15.433551,8.11041849 15.664032,7.86504849 C15.741217,7.87124849 15.801338,7.89124849 15.844408,7.92514849 C15.887458,7.95900849 15.918338,8.00832849 15.937028,8.07302849 C15.679193,8.41589849 15.369364,8.68889849 15.00754,8.89201849 C14.645708,9.09513849 14.21888,9.19900849 13.727057,9.20400849 C13.26231,9.20184849 12.869065,9.12817849 12.547322,8.98301849 C12.225575,8.83784849 11.955828,8.63418849 11.738083,8.37201849 C11.524939,8.12123849 11.369484,7.82981849 11.271714,7.49778849 C11.17394,7.16574849 11.12569,6.81583849 11.1270604,6.44804849 C11.164735,5.45626849 11.456689,4.70011849 12.002954,4.17957849 C12.549216,3.65904849 13.123916,3.39708849 13.727057,3.39308849 Z M36.602603,3.36710849 C37.231466,3.37387849 37.718959,3.49033849 38.065084,3.71647849 C38.4112,3.94262849 38.586677,4.23782849 38.591577,4.60208849 C38.582093,4.80223849 38.510052,4.94790849 38.375455,5.03920849 C38.240847,5.13048849 38.100558,5.17508849 37.954586,5.17408849 C37.817081,5.17652849 37.705667,5.14240849 37.620327,5.07170849 C37.534982,5.00102849 37.481742,4.87915849 37.460592,4.70608849 C37.447317,4.46911849 37.38286,4.26057849 37.267219,4.08046849 C37.151571,3.90037849 36.908366,3.80509849 36.537604,3.79609849 C36.100482,3.80206849 35.746237,4.00464849 35.474867,4.40383849 C35.203494,4.80304849 35.063723,5.36312849 35.055623,6.08406849 C35.068892,6.85295849 35.240598,7.45690849 35.570741,7.89591849 C35.90088,8.33493849 36.309833,8.55903849 36.7976,8.56703849 C37.079531,8.56703849 37.354152,8.49553849 37.621465,8.35253849 C37.888769,8.20954849 38.134141,7.99504849 38.35758,7.70904849 C38.416887,7.71504849 38.470513,7.73234849 38.518453,7.76104849 C38.566387,7.78975849 38.603757,7.83304849 38.630577,7.89104849 C38.306659,8.41212849 37.969747,8.76420849 37.61984,8.94728849 C37.269924,9.13032849 36.900512,9.21592849 36.511604,9.20402849 C35.687738,9.19075849 35.053996,8.92805849 34.610379,8.41591849 C34.166759,7.90377849 33.942537,7.22182849 33.937637,6.37006849 C33.96824,5.43733849 34.251528,4.70609849 34.787501,4.17634849 C35.323471,3.64660849 35.928505,3.37710849 36.602603,3.36710849 Z M27.06354,3.36710849 C27.692403,3.37387849 28.179896,3.49033849 28.526021,3.71647849 C28.872137,3.94262849 29.047615,4.23782849 29.052515,4.60208849 C29.043031,4.80223849 28.97099,4.94790849 28.836392,5.03920849 C28.701785,5.13048849 28.561495,5.17508849 28.415523,5.17408849 C28.278018,5.17652849 28.166595,5.14240849 28.081265,5.07170849 C27.995919,5.00102849 27.942679,4.87915849 27.921529,4.70608849 C27.908255,4.46911849 27.843797,4.26057849 27.728157,4.08046849 C27.612509,3.90037849 27.369304,3.80509849 26.998541,3.79609849 C26.561419,3.80206849 26.207174,4.00464849 25.935805,4.40383849 C25.664432,4.80304849 25.52466,5.36312849 25.51656,6.08406849 C25.529829,6.85295849 25.701535,7.45690849 26.031678,7.89591849 C26.361818,8.33493849 26.77077,8.55903849 27.258538,8.56703849 C27.540468,8.56703849 27.815089,8.49553849 28.082402,8.35253849 C28.349707,8.20954849 28.595079,7.99504849 28.818518,7.70904849 C28.877825,7.71504849 28.931451,7.73234849 28.979391,7.76104849 C29.027324,7.78975849 29.064694,7.83304849 29.091514,7.89104849 C28.767597,8.41212849 28.430685,8.76420849 28.080777,8.94728849 C27.730861,9.13032849 27.36145,9.21592849 26.972542,9.20402849 C26.148675,9.19075849 25.514934,8.92805849 25.071316,8.41591849 C24.627696,7.90377849 24.403475,7.22182849 24.398575,6.37006849 C24.429178,5.43733849 24.712466,4.70609849 25.248439,4.17634849 C25.784409,3.64660849 26.389442,3.37710849 27.06354,3.36710849 Z M76.22872,3.36708849 C76.725689,3.34325849 77.171474,3.47867849 77.566077,3.77332849 C77.960672,4.06799849 78.169215,4.66490849 78.191695,5.56405849 L78.191695,5.56405849 L78.191695,7.50103849 C78.181665,7.80869849 78.204955,8.06760849 78.261565,8.27776849 C78.318163,8.48793849 78.468203,8.59701849 78.711684,8.60601849 C78.843193,8.59731849 78.93506,8.56271849 78.98728,8.50201849 C79.039489,8.44131849 79.081959,8.40701849 79.114679,8.39801849 C79.144467,8.40151849 79.179127,8.42701849 79.218677,8.47441849 C79.258217,8.52183849 79.279877,8.57003849 79.283677,8.61903849 C79.277442,8.67184849 79.172901,8.77747849 78.970056,8.93590849 C78.767199,9.09434849 78.503411,9.18372849 78.178691,9.20402849 C77.838145,9.18967849 77.59429,9.09813849 77.447125,8.92940849 C77.299952,8.76067849 77.210144,8.60089849 77.177704,8.45003849 L77.177704,8.45003849 L77.151786,8.45006849 L76.891789,8.65806849 C76.619873,8.87418849 76.386959,9.02040849 76.193048,9.09680849 C75.999131,9.17315849 75.759718,9.20905849 75.474808,9.20405849 C75.008437,9.20974849 74.621693,9.10412849 74.314573,8.88718849 C74.007451,8.67025849 73.848199,8.30788849 73.836829,7.80007849 C73.848203,7.35429849 74.0497,6.96863849 74.441321,6.64309849 C74.832939,6.31755849 75.346432,6.07489849 75.981801,5.91510849 L75.981801,5.91510849 L77.099787,5.64210849 C77.120087,5.63560849 77.137967,5.61930849 77.153407,5.59330849 C77.168877,5.56735849 77.176961,5.53155849 77.177777,5.48605849 C77.161523,4.77296849 77.041275,4.30768849 76.817031,4.09019849 C76.592781,3.87277849 76.362034,3.77467849 76.12479,3.79607849 C75.863708,3.79364849 75.622128,3.83425849 75.40005,3.91795849 C75.177967,4.00164849 75.059884,4.14301849 75.045804,4.34207849 C75.046004,4.41306849 75.048804,4.46936849 75.053904,4.51106849 C75.059054,4.55276849 75.064984,4.58306849 75.071784,4.60206849 C75.084784,4.62884849 75.094534,4.66304849 75.101034,4.70444849 C75.107434,4.74586849 75.110733,4.78976849 75.110734,4.83606849 C75.110462,4.92787849 75.062251,5.02053849 74.966111,5.11393849 C74.869965,5.20735849 74.727509,5.25805849 74.538742,5.26505849 C74.388972,5.26560849 74.275761,5.22876849 74.199121,5.15456849 C74.122478,5.08035849 74.084018,4.96552849 74.083748,4.81006849 C74.106496,4.44282849 74.330743,4.11457849 74.756489,3.82532849 C75.182231,3.53608849 75.672975,3.38328849 76.22872,3.36708849 Z M85.205132,7.16184424e-05 C85.31996,-0.00201150878 85.37633,0.0413484912 85.37413,0.130148491 C85.37196,0.134218491 85.36329,0.256088491 85.34813,0.495768491 C85.33296,0.735458491 85.32433,1.06857849 85.32213,1.49512849 L85.32213,1.49512849 L85.32213,7.48805849 C85.311565,8.00696849 85.368439,8.33412849 85.492753,8.46953849 C85.617061,8.60493849 85.872182,8.67203849 86.258118,8.67103849 C86.297118,8.71815849 86.316618,8.78963849 86.316618,8.88553849 C86.316618,8.98140849 86.297118,9.05292849 86.258118,9.10002849 C85.988368,9.09322849 85.747872,9.08712849 85.536627,9.08212849 L85.3156287,9.07789442 C85.1617969,9.07558627 84.994966,9.07431516 84.815136,9.07412849 C84.538347,9.07412849 84.292434,9.07712849 84.077396,9.08212849 C83.862356,9.08732849 83.622943,9.09302849 83.359155,9.10002849 C83.320155,9.05290849 83.300655,8.98143849 83.300655,8.88553849 C83.300655,8.78965849 83.320155,8.71813849 83.359155,8.67103849 C83.745087,8.67211849 84.000208,8.60495849 84.12452,8.46953849 C84.248833,8.33412849 84.305703,8.00696849 84.295143,7.48805849 L84.295143,7.48805849 L84.2953854,1.64168385 C84.2899278,1.22128528 84.2356817,0.967179602 84.132647,0.879268491 C84.016731,0.780438491 83.793567,0.734138491 83.463156,0.741138491 C83.424156,0.697278491 83.398156,0.635488491 83.385156,0.555888491 C83.372156,0.476278491 83.372156,0.408048491 83.385156,0.351148491 C83.668172,0.327588491 83.995876,0.280468491 84.368268,0.209768491 C84.740657,0.139098491 85.019612,0.0692484912 85.205132,7.16184424e-05 Z M92.651604,3.32810849 C92.704094,3.32860849 92.745294,3.33730849 92.775094,3.35410849 C92.804894,3.37090849 92.820054,3.39260849 92.820594,3.41910849 C92.818394,3.44031849 92.809794,3.60589849 92.794594,3.91585849 C92.779394,4.22582849 92.770594,4.55293849 92.768594,4.89718849 L92.768594,4.89718849 L92.768094,7.48805849 C92.757534,8.00614849 92.814404,8.33168849 92.938724,8.46466849 C93.063024,8.59763849 93.318154,8.66603849 93.704084,8.67103849 C93.743084,8.71815849 93.762584,8.78963849 93.762584,8.88553849 C93.762584,8.98140849 93.743084,9.05292849 93.704084,9.10002849 C93.434334,9.09322849 93.193844,9.08712849 92.982594,9.08212849 L92.7615944,9.07789442 C92.6077618,9.07558627 92.4409307,9.07431516 92.261104,9.07412849 C91.984314,9.07412849 91.738404,9.07712849 91.523364,9.08212849 C91.308324,9.08732849 91.068914,9.09302849 90.805124,9.10002849 C90.766124,9.05290849 90.746624,8.98143849 90.746624,8.88553849 C90.746624,8.78965849 90.766124,8.71813849 90.805124,8.67103849 C91.191054,8.66074849 91.446174,8.59032849 91.570484,8.45978849 C91.694814,8.32924849 91.751714,8.00533849 91.741114,7.48805849 L91.741114,7.48805849 L91.7412456,4.80780951 C91.7339979,4.53258216 91.681684,4.34933849 91.584304,4.25807849 C91.470684,4.15159849 91.241294,4.08859849 90.896124,4.06909849 C90.882024,4.02468849 90.871624,3.96399849 90.863624,3.88709849 C90.856524,3.81018849 90.858724,3.74949849 90.870624,3.70509849 C91.314104,3.64714849 91.676744,3.58755849 91.958544,3.52635849 C92.240344,3.46514849 92.471364,3.39910849 92.651604,3.32810849 Z M41.361382,7.16184424e-05 C41.47621,-0.00201150878 41.53258,0.0413484912 41.53038,0.130148491 C41.52821,0.134218491 41.51954,0.256088491 41.50438,0.495768491 C41.48921,0.735458491 41.48058,1.06857849 41.47838,1.49512849 L41.47838,1.49512849 L41.47838,7.48805849 C41.467815,8.00696849 41.524689,8.33412849 41.649003,8.46953849 C41.773311,8.60493849 42.028432,8.67203849 42.414368,8.67103849 C42.453368,8.71815849 42.472868,8.78963849 42.472868,8.88553849 C42.472868,8.98140849 42.453368,9.05292849 42.414368,9.10002849 C42.144618,9.09322849 41.904122,9.08712849 41.692877,9.08212849 L41.4718787,9.07789442 C41.3180469,9.07558627 41.151216,9.07431516 40.971386,9.07412849 C40.694597,9.07412849 40.448684,9.07712849 40.233646,9.08212849 C40.018606,9.08732849 39.779193,9.09302849 39.515405,9.10002849 C39.476405,9.05290849 39.456905,8.98143849 39.456905,8.88553849 C39.456905,8.78965849 39.476405,8.71813849 39.515405,8.67103849 C39.901337,8.67211849 40.156458,8.60495849 40.28077,8.46953849 C40.405083,8.33412849 40.461953,8.00696849 40.451393,7.48805849 L40.451393,7.48805849 L40.4516354,1.64168385 C40.4461778,1.22128528 40.3919317,0.967179602 40.288897,0.879268491 C40.172981,0.780438491 39.949817,0.734138491 39.619406,0.741138491 C39.580406,0.697278491 39.554406,0.635488491 39.541406,0.555888491 C39.528406,0.476278491 39.528406,0.408048491 39.541406,0.351148491 C39.824422,0.327588491 40.152126,0.280468491 40.524518,0.209768491 C40.896907,0.139098491 41.175862,0.0692484912 41.361382,7.16184424e-05 Z M18.881521,3.32810849 C18.985519,3.33027849 19.037516,3.36490849 19.037519,3.43210849 C19.034809,3.44889849 19.023979,3.56481849 19.005019,3.77984849 C18.986059,3.99489849 18.975219,4.20830849 18.972519,4.42008849 C18.975489,4.50278849 18.992279,4.53218849 19.022889,4.50778849 C19.053499,4.48348849 19.080039,4.45418849 19.102519,4.42008849 C19.495224,3.98947849 19.857052,3.70347849 20.18801,3.56210849 C20.51896,3.42070849 20.841789,3.35570849 21.156497,3.36710849 C21.386698,3.36765849 21.595779,3.40555849 21.783739,3.48085849 C21.97169,3.55614849 22.122271,3.66556849 22.235484,3.80909849 C22.380913,4.01330849 22.476785,4.26463849 22.523105,4.56308849 C22.569405,4.86154849 22.590575,5.19087849 22.586475,5.55107849 L22.586475,5.55107849 L22.586475,7.48805849 C22.577261,7.99964849 22.631427,8.32193849 22.748973,8.45491849 C22.866507,8.58793849 23.10267,8.65993849 23.457464,8.67103849 C23.489954,8.71815849 23.506214,8.78963849 23.506214,8.88553849 C23.506214,8.98140849 23.489954,9.05292849 23.457464,9.10002849 C23.188794,9.09322849 22.955881,9.08712849 22.758723,9.08212849 C22.561553,9.07712849 22.335139,9.07440849 22.079482,9.07412849 C21.830855,9.07412849 21.613108,9.07712849 21.42624,9.08212849 C21.239363,9.08732849 21.015116,9.09302849 20.753499,9.10002849 C20.720999,9.05290849 20.704745,8.98143849 20.704749,8.88553849 C20.704749,8.78965849 20.720999,8.71813849 20.753499,8.67103849 C21.082823,8.65993849 21.301653,8.58789849 21.40999,8.45491849 C21.518318,8.32193849 21.568188,7.99964849 21.559488,7.48805849 L21.559488,7.48805849 L21.559488,5.51207849 C21.561108,5.31599849 21.551358,5.13291849 21.530238,4.96283849 C21.509108,4.79275849 21.466859,4.64217849 21.403489,4.51108849 C21.322777,4.36078849 21.220945,4.24536849 21.097993,4.16496849 C20.975032,4.08449849 20.8472,4.04391849 20.714498,4.04309849 C20.460727,4.04499849 20.207772,4.11270849 19.955633,4.24621849 C19.703487,4.37974849 19.453783,4.56769849 19.206518,4.81008849 C19.151809,4.86696849 19.101979,4.93848849 19.057019,5.02458849 C19.012059,5.11070849 18.988219,5.22120849 18.985519,5.35607849 L18.985519,5.35607849 L18.985519,7.48805849 C18.97658,7.99964849 19.023704,8.32193849 19.126892,8.45491849 C19.230076,8.58793849 19.442948,8.65993849 19.765509,8.67103849 C19.804509,8.71815849 19.824006,8.78963849 19.824009,8.88553849 C19.824009,8.98140849 19.804509,9.05292849 19.765509,9.10002849 C19.504697,9.09322849 19.285325,9.08712849 19.107393,9.08212849 C18.929455,9.07712849 18.719833,9.07440849 18.478526,9.07412849 C18.207694,9.07412849 17.966114,9.07712849 17.753785,9.08212849 C17.541454,9.08732849 17.306374,9.09302849 17.048544,9.10002849 C17.009544,9.05290849 16.990044,8.98143849 16.990044,8.88553849 C16.990044,8.78965849 17.009544,8.71813849 17.048544,8.67103849 C17.427705,8.65993849 17.676868,8.58789849 17.796035,8.45491849 C17.915203,8.32193849 17.969363,7.99964849 17.958533,7.48805849 L17.958533,7.48805849 L17.9584661,4.80558088 C17.9507713,4.52638461 17.8977107,4.34210135 17.799285,4.25271849 C17.684452,4.14849849 17.455872,4.08719849 17.113544,4.06909849 C17.099464,4.02468849 17.088644,3.96399849 17.081044,3.88709849 C17.073464,3.81018849 17.075624,3.74949849 17.087544,3.70509849 C17.531975,3.64714849 17.897594,3.58755849 18.184405,3.52635849 C18.471212,3.46514849 18.703584,3.39910849 18.881521,3.32810849 Z M3.425457,0.663638491 C3.464457,0.710778491 3.483953,0.782238491 3.483957,0.878138491 C3.483947,0.974018491 3.464447,1.04553849 3.425457,1.09263849 C2.980209,1.09155849 2.677963,1.15872849 2.518718,1.29412849 C2.359471,1.42955849 2.284671,1.75671849 2.294471,2.27561849 L2.294471,7.91754849 C2.296364,8.12093849 2.351072,8.27964849 2.458594,8.39366849 C2.566111,8.50763849 2.715067,8.56553849 2.905463,8.56753849 L2.905463,8.56753849 L4.374444,8.56753849 C4.857058,8.55507849 5.214553,8.38824849 5.44693,8.06704849 C5.679297,7.74583849 5.854794,7.34501849 5.973424,6.86455849 C6.133315,6.84395849 6.276313,6.86565849 6.402418,6.92955849 C6.362329,7.27513849 6.3125,7.64021849 6.25292,8.02479849 C6.193331,8.40937849 6.130503,8.76795849 6.064423,9.10052849 C6.051842,9.09952849 5.944104,9.09752849 5.741208,9.09352849 C5.538301,9.08902849 5.315683,9.08502849 5.073354,9.08102849 C4.831014,9.07702849 4.644411,9.07435849 4.513543,9.07402849 L1.72896483,9.07476716 C1.66468361,9.07540974 1.469149,9.07825349 1.142361,9.08262849 C0.768885,9.08782849 0.407599,9.09352849 0.0585,9.10052849 C0.0195,9.05340849 7.45181694e-13,8.98193849 7.45181694e-13,8.88603849 C7.45181694e-13,8.79015849 0.0195,8.71863849 0.0585,8.67153849 C0.503743,8.67261849 0.805989,8.60545849 0.965238,8.47003849 C1.124485,8.33462849 1.199185,8.00746849 1.189485,7.48855849 L1.18960511,2.10975329 C1.18157993,1.68638331 1.10679089,1.41451071 0.965238,1.29412849 C0.805989,1.15873849 0.503744,1.09163849 0.0585,1.09263849 C0.0195,1.04551849 7.45181694e-13,0.974038491 7.45181694e-13,0.878138491 C7.45181694e-13,0.782268491 0.0195,0.710738491 0.0585,0.663638491 C0.37212,0.670438491 0.651616,0.676538491 0.896989,0.681538491 C1.142359,0.686538491 1.421856,0.689278491 1.735478,0.689538491 C2.056139,0.689538491 2.341051,0.686538491 2.590217,0.681538491 C2.839378,0.676338491 3.11779,0.670638491 3.425457,0.663638491 Z M31.913318,3.32810849 C31.965856,3.32860849 32.007026,3.33730849 32.036816,3.35410849 C32.066606,3.37090849 32.081772,3.39260849 32.082316,3.41910849 C32.080146,3.44031849 32.071476,3.60589849 32.056316,3.91585849 C32.041146,4.22582849 32.032516,4.55293849 32.030316,4.89718849 L32.030316,4.89718849 L32.030317,7.48805849 C32.019753,8.00614849 32.076627,8.33168849 32.20094,8.46466849 C32.325248,8.59763849 32.58037,8.66603849 32.966305,8.67103849 C33.005305,8.71815849 33.024805,8.78963849 33.024805,8.88553849 C33.024805,8.98140849 33.005305,9.05292849 32.966305,9.10002849 C32.696555,9.09322849 32.456059,9.08712849 32.244814,9.08212849 L32.0238157,9.07789442 C31.869984,9.07558627 31.7031533,9.07431516 31.523324,9.07412849 C31.246534,9.07412849 31.000621,9.07712849 30.785583,9.08212849 C30.570543,9.08732849 30.33113,9.09302849 30.067343,9.10002849 C30.028343,9.05290849 30.008843,8.98143849 30.008843,8.88553849 C30.008843,8.78965849 30.028343,8.71813849 30.067343,8.67103849 C30.453274,8.66074849 30.708395,8.59032849 30.832707,8.45978849 C30.95702,8.32924849 31.01389,8.00533849 31.00333,7.48805849 L31.00333,7.48805849 L31.0034624,4.80780951 C30.9962158,4.53258216 30.9439017,4.34933849 30.84652,4.25807849 C30.732906,4.15159849 30.503513,4.08859849 30.158341,4.06909849 C30.144261,4.02468849 30.133441,3.96399849 30.125841,3.88709849 C30.118261,3.81018849 30.120421,3.74949849 30.132341,3.70509849 C30.575824,3.64714849 30.938464,3.58755849 31.220264,3.52635849 C31.502061,3.46514849 31.733078,3.39910849 31.913318,3.32810849 Z M88.882864,7.16184424e-05 C88.997664,-0.00201150878 89.053864,0.0413484912 89.051864,0.130148491 C89.049664,0.134218491 89.041064,0.256088491 89.025864,0.495768491 C89.010664,0.735458491 89.001864,1.06857849 88.999864,1.49512849 L88.999864,1.49512849 L88.999864,7.48805849 C88.989304,8.00696849 89.046174,8.33412849 89.170484,8.46953849 C89.294794,8.60493849 89.549914,8.67203849 89.935854,8.67103849 C89.974854,8.71815849 89.994354,8.78963849 89.994354,8.88553849 C89.994354,8.98140849 89.974854,9.05292849 89.935854,9.10002849 C89.666104,9.09322849 89.425604,9.08712849 89.214364,9.08212849 L88.9933644,9.07789442 C88.8395318,9.07558627 88.6727007,9.07431516 88.492874,9.07412849 C88.216084,9.07412849 87.970168,9.07712849 87.75513,9.08212849 C87.54009,9.08732849 87.300677,9.09302849 87.03689,9.10002849 C86.99789,9.05290849 86.97839,8.98143849 86.97839,8.88553849 C86.97839,8.78965849 86.99789,8.71813849 87.03689,8.67103849 C87.422821,8.67211849 87.677942,8.60495849 87.802254,8.46953849 C87.926568,8.33412849 87.983438,8.00696849 87.972878,7.48805849 L87.972878,7.48805849 L87.972879,1.80712849 C87.98046,1.28740849 87.926294,0.978168491 87.81038,0.879268491 C87.694464,0.780438491 87.471301,0.734138491 87.140889,0.741138491 C87.101889,0.697278491 87.075889,0.635488491 87.062889,0.555888491 C87.049889,0.476278491 87.049889,0.408048491 87.062889,0.351148491 C87.345906,0.327588491 87.673609,0.280468491 88.046001,0.209768491 C88.418394,0.139098491 88.697344,0.0692484912 88.882864,7.16184424e-05 Z M71.825428,3.32810849 C71.877966,3.32860849 71.919136,3.33730849 71.948926,3.35410849 C71.978716,3.37090849 71.993882,3.39260849 71.994426,3.41910849 C71.992256,3.44031849 71.983586,3.60589849 71.968426,3.91585849 C71.953256,4.22582849 71.944626,4.55293849 71.942426,4.89718849 L71.942426,4.89718849 L71.942427,7.48805849 C71.931862,8.00614849 71.988736,8.33168849 72.113049,8.46466849 C72.237358,8.59763849 72.492479,8.66603849 72.878415,8.67103849 C72.917415,8.71815849 72.936915,8.78963849 72.936915,8.88553849 C72.936915,8.98140849 72.917415,9.05292849 72.878415,9.10002849 C72.608665,9.09322849 72.368168,9.08712849 72.156924,9.08212849 L71.9359252,9.07789442 C71.7820934,9.07558627 71.615263,9.07431516 71.435433,9.07412849 C71.158643,9.07412849 70.91273,9.07712849 70.697692,9.08212849 C70.482653,9.08732849 70.243239,9.09302849 69.979452,9.10002849 C69.940452,9.05290849 69.920952,8.98143849 69.920952,8.88553849 C69.920952,8.78965849 69.940452,8.71813849 69.979452,8.67103849 C70.365383,8.66074849 70.620505,8.59032849 70.744817,8.45978849 C70.86913,8.32924849 70.926,8.00533849 70.91544,7.48805849 L70.91544,7.48805849 L70.915572,4.80780951 C70.9083248,4.53258216 70.8560107,4.34933849 70.758629,4.25807849 C70.645015,4.15159849 70.415623,4.08859849 70.070451,4.06909849 C70.056371,4.02468849 70.045551,3.96399849 70.037951,3.88709849 C70.030371,3.81018849 70.032531,3.74949849 70.044451,3.70509849 C70.487934,3.64714849 70.850575,3.58755849 71.132374,3.52635849 C71.414171,3.46514849 71.645189,3.39910849 71.825428,3.32810849 Z M103.484974,3.32800849 C103.537474,3.32850849 103.578674,3.33720849 103.608474,3.35400849 C103.638274,3.37080849 103.653424,3.39250849 103.653974,3.41900849 C103.651274,3.43634849 103.640474,3.55767849 103.621474,3.78299849 C103.602474,4.00833849 103.591974,4.23366849 103.588974,4.45898849 C103.588974,4.49578849 103.598774,4.51968849 103.618274,4.53048849 C103.637674,4.54128849 103.666974,4.51318849 103.705974,4.44598849 C103.858714,4.17922849 104.060214,3.93602849 104.310464,3.71637849 C104.560704,3.49673849 104.840204,3.38030849 105.148954,3.36700849 C105.420324,3.37748849 105.618564,3.45045849 105.743694,3.58588849 C105.868844,3.72133849 105.930944,3.85637849 105.928944,3.99099849 C105.922984,4.16026849 105.860144,4.30922849 105.740444,4.43786849 C105.620734,4.56648849 105.479904,4.63398849 105.317954,4.64098849 C105.184424,4.63340849 105.077734,4.58683849 104.997834,4.50123849 C104.917934,4.41566849 104.846954,4.33659849 104.784954,4.26399849 C104.745134,4.22609849 104.701234,4.20119849 104.653334,4.18929849 C104.605364,4.17709849 104.558264,4.17209849 104.511964,4.17309849 C104.427734,4.18663849 104.326444,4.26680849 104.208094,4.41358849 C104.089734,4.56038849 103.991664,4.69254849 103.913964,4.81008849 C103.832714,4.92762849 103.761174,5.05979849 103.699474,5.20657849 C103.637674,5.35337849 103.604974,5.51153849 103.601974,5.68107849 L103.601974,5.68107849 L103.601974,7.48805849 C103.589514,8.00533849 103.653424,8.32924849 103.793724,8.45978849 C103.934004,8.59033849 104.225424,8.66073849 104.667964,8.67103849 C104.706964,8.71815849 104.726464,8.78963849 104.726464,8.88553849 C104.726464,8.98140849 104.706964,9.05292849 104.667964,9.10002849 C104.391164,9.09322849 104.125754,9.08712849 103.871724,9.08212849 C103.617674,9.07712849 103.358764,9.07440849 103.094984,9.07412849 C102.839854,9.07412849 102.596114,9.07712849 102.363734,9.08212849 C102.131364,9.08732849 101.881124,9.09302849 101.612994,9.10002849 C101.573994,9.05290849 101.554494,8.98143849 101.554494,8.88553849 C101.554494,8.78965849 101.573994,8.71813849 101.612994,8.67103849 C102.005704,8.66643849 102.266784,8.59764849 102.396234,8.46466849 C102.525684,8.33168849 102.585284,8.00614849 102.574984,7.48805849 L102.574984,7.48805849 L102.574919,4.81204604 C102.567225,4.54448767 102.51416,4.36288849 102.415734,4.26724849 C102.300904,4.15569849 102.072324,4.08959849 101.729994,4.06899849 C101.704594,4.02458849 101.690794,3.96389849 101.687794,3.88699849 C101.684994,3.81008849 101.690494,3.74939849 101.703994,3.70499849 C102.147884,3.64704849 102.511344,3.58745849 102.794354,3.52625849 C103.077374,3.46504849 103.307574,3.39900849 103.484974,3.32800849 Z M46.040103,3.79609849 C45.500066,3.82183849 45.114404,4.06611849 44.883118,4.52896849 C44.651827,4.99181849 44.539122,5.51884849 44.545122,6.11006849 C44.542873,6.45809849 44.602255,6.83669849 44.723268,7.24586849 C44.844277,7.65504849 45.040397,8.00860849 45.311631,8.30655849 C45.582859,8.60451849 45.942681,8.76063849 46.391098,8.77503849 C46.716903,8.79615849 47.027273,8.66616849 47.322211,8.38503849 C47.61714,8.10391849 47.77476,7.54492849 47.79508,6.70806849 C47.791825,5.75068849 47.639078,5.02648849 47.336836,4.53546849 C47.034586,4.04445849 46.602342,3.79809849 46.040103,3.79609849 Z M53.282878,3.96509849 C53.087282,3.97051849 52.871376,4.04418849 52.635162,4.18609849 C52.398941,4.32801849 52.177186,4.50567849 51.969895,4.71908849 C51.88843,4.80089849 51.83297,4.88351849 51.8035,4.96701849 C51.77403,5.05049849 51.7602,5.15849849 51.7619,5.29103849 L51.7619,5.29103849 L51.7619,7.70900849 C51.75857,7.93214849 51.7779,8.09138849 51.81991,8.18658849 C51.861913,8.28184849 51.946574,8.38220849 52.073894,8.48769849 C52.200098,8.59069849 52.353929,8.66253849 52.535388,8.70333849 C52.716841,8.74413849 52.870672,8.76403849 52.996882,8.76203849 C53.710244,8.72899849 54.197737,8.46357849 54.459363,7.96579849 C54.72098,7.46801849 54.844479,6.93610849 54.829859,6.37006849 C54.817395,5.62718849 54.663564,5.04273849 54.368364,4.61671849 C54.073156,4.19070849 53.711327,3.97309849 53.282878,3.96509849 Z M77.177704,6.04506849 L76.150717,6.31806849 C75.679525,6.45256849 75.353771,6.64961849 75.173455,6.90923849 C74.993133,7.16885849 74.907233,7.44845849 74.915733,7.74804849 C74.914106,7.96281849 74.988855,8.16702849 75.13998,8.36066849 C75.291101,8.55430849 75.528348,8.65773849 75.851721,8.67103849 C76.037507,8.66480849 76.231421,8.60576849 76.433463,8.49391849 C76.635499,8.38206849 76.822913,8.25477849 76.995706,8.11204849 C77.048784,8.07436849 77.092114,8.02946849 77.125704,7.97716849 C77.159284,7.92489849 77.176604,7.85714849 77.177704,7.77404849 L77.177704,7.77404849 L77.177704,6.04506849 Z M65.974245,3.82207849 C65.835306,3.81099849 65.651684,3.84297849 65.423377,3.91797849 C65.195065,3.99299849 64.975693,4.17770849 64.76526,4.47208849 C64.664239,4.60507849 64.577029,4.81035849 64.503639,5.08795849 C64.430245,5.36556849 64.391765,5.73659849 64.388265,6.20106849 C64.403971,7.01166849 64.554552,7.61344849 64.840009,8.00641849 C65.125461,8.39939849 65.45154,8.59503849 65.818247,8.59305367 C65.981283,8.59305367 66.165447,8.54103849 66.370739,8.43703849 C66.576025,8.33304849 66.799188,8.17704849 67.040231,7.96904849 C67.129086,7.89397849 67.186666,7.82049849 67.212966,7.74869849 C67.239226,7.67687849 67.251026,7.58132849 67.248226,7.46205849 L67.248226,7.46205849 L67.248229,4.99206849 C67.250389,4.79950849 67.236309,4.65814849 67.205979,4.56794849 C67.175642,4.47776849 67.116061,4.38517849 67.027231,4.29007849 C66.898854,4.13976849 66.749356,4.02435849 66.578737,3.94395849 C66.40811,3.86347849 66.206613,3.82289849 65.974245,3.82207849 Z M109.430184,3.82209849 C109.247914,3.79637849 108.994954,3.87708849 108.671314,4.06421849 C108.347674,4.25136849 108.110964,4.69931849 107.961204,5.40807849 L107.961204,5.40807849 L110.314144,5.36907849 C110.384864,5.36767849 110.435164,5.35167849 110.465264,5.32097849 C110.495364,5.29032849 110.509974,5.24567849 110.509164,5.18707849 C110.495084,4.65246849 110.377004,4.28847849 110.154924,4.09509849 C109.932834,3.90169849 109.691254,3.81069849 109.430184,3.82209849 Z M59.779791,3.82209849 C59.59752,3.79637849 59.344565,3.87708849 59.020926,4.06421849 C58.697282,4.25136849 58.460577,4.69931849 58.31081,5.40807849 L58.31081,5.40807849 L60.663784,5.36907849 C60.734467,5.36767849 60.784837,5.35167849 60.814907,5.32097849 C60.844957,5.29032849 60.859586,5.24567849 60.858777,5.18707849 C60.84469,4.65246849 60.726608,4.28847849 60.504532,4.09509849 C60.282448,3.90169849 60.040868,3.81069849 59.779791,3.82209849 Z M13.727057,3.82209849 C13.544786,3.79637849 13.291831,3.87708849 12.968192,4.06421849 C12.644548,4.25136849 12.407843,4.69931849 12.258076,5.40807849 L12.258076,5.40807849 L14.611051,5.36907849 C14.681733,5.36767849 14.732103,5.35167849 14.762173,5.32097849 C14.792223,5.29032849 14.806851,5.24567849 14.806043,5.18707849 C14.791956,4.65246849 14.673874,4.28847849 14.451798,4.09509849 C14.229713,3.90169849 13.988133,3.81069849 13.727057,3.82209849 Z M8.594551,0.000128491216 C8.857796,0.00501849122 9.065793,0.122008491 9.218543,0.351128491 C9.37129,0.580258491 9.44924,0.892248491 9.45254,1.28711849 C9.437371,1.74617849 9.279207,2.12154849 8.978046,2.41322849 C8.676882,2.70491849 8.32372,2.88848849 7.91856,2.96408849 C7.87388,2.91941849 7.843,2.87231849 7.82594,2.82271849 C7.80887,2.77315849 7.800756,2.71629849 7.80157,2.65209849 C8.14498,2.55189849 8.420143,2.39156849 8.627059,2.17109849 C8.833971,1.95065849 8.940155,1.76431849 8.945555,1.61210849 C8.94149,1.46613849 8.894362,1.36483849 8.804182,1.30823849 C8.713993,1.25163849 8.60512,1.21813849 8.477561,1.20913849 C8.351353,1.19383849 8.226771,1.14477849 8.103816,1.06207849 C7.980858,0.979338491 7.914768,0.837698491 7.905568,0.637138491 C7.909088,0.451358491 7.973545,0.299698491 8.098941,0.182148491 C8.224334,0.0646484912 8.38954,0.00414849122 8.594559,0.000128491216 Z M59.233802,0.325248491 C59.267116,0.325248491 59.301236,0.328248491 59.336176,0.333248491 C59.371106,0.338448491 59.401986,0.344148491 59.428796,0.351148491 L59.428796,0.351148491 L60.338797,1.98925849 C60.370477,2.05344849 60.391597,2.11027849 60.402167,2.15987849 C60.412687,2.20944849 60.417596,2.25654849 60.416787,2.30124849 C60.415157,2.33564849 60.395657,2.36764849 60.358287,2.39714849 C60.320909,2.42664849 60.275409,2.44224849 60.221789,2.44424849 C60.184952,2.44554849 60.13837,2.42664849 60.08204,2.38734849 C60.025705,2.34807849 59.946622,2.28041849 59.844793,2.18421849 L59.844793,2.18421849 L58.362813,0.767238491 L58.388813,0.624238491 C58.441894,0.577668491 58.540476,0.518098491 58.684559,0.445498491 C58.828638,0.372948491 59.011719,0.333248491 59.233802,0.325248491 Z M31.523323,0.663138491 C31.702881,0.671818491 31.850754,0.745478491 31.966942,0.884138491 C32.083125,1.02280849 32.143215,1.17447849 32.147315,1.33912849 C32.141896,1.48514849 32.07473,1.62342849 31.945817,1.75398849 C31.8169,1.88452849 31.658736,1.95412849 31.471323,1.96312849 C31.308824,1.95608849 31.165826,1.88567849 31.042329,1.75187849 C30.918832,1.61809849 30.853832,1.46317849 30.847332,1.28713849 C30.855997,1.12463849 30.929663,0.981648491 31.068329,0.858138491 C31.206992,0.734638491 31.358657,0.670138491 31.523323,0.663138491 Z M71.435432,0.663138491 C71.61499,0.671818491 71.762863,0.745478491 71.879052,0.884138491 C71.995234,1.02280849 72.055324,1.17447849 72.059424,1.33912849 C72.054005,1.48514849 71.986839,1.62342849 71.857927,1.75398849 C71.729009,1.88452849 71.570845,1.95412849 71.383433,1.96312849 C71.220933,1.95608849 71.077935,1.88567849 70.954438,1.75187849 C70.830941,1.61809849 70.765941,1.46317849 70.759441,1.28713849 C70.768106,1.12463849 70.841772,0.981648491 70.980438,0.858138491 C71.119101,0.734638491 71.270766,0.670138491 71.435432,0.663138491 Z M92.261604,0.663138491 C92.441164,0.671818491 92.589034,0.745478491 92.705224,0.884138491 C92.821394,1.02280849 92.881594,1.17447849 92.885594,1.33912849 C92.880174,1.48514849 92.813014,1.62342849 92.684094,1.75398849 C92.555184,1.88452849 92.397014,1.95412849 92.209604,1.96312849 C92.047104,1.95608849 91.904104,1.88567849 91.780614,1.75187849 C91.657114,1.61809849 91.592614,1.46317849 91.585614,1.28713849 C91.594274,1.12463849 91.667944,0.981648491 91.806614,0.858138491 C91.945274,0.734638491 92.096934,0.670138491 92.261604,0.663138491 Z"/>
	</g>
</svg>
