<svg xmlns="http://www.w3.org/2000/svg" width="120" height="10"><path fill="#000" fill-rule="nonzero" d="M6.02 8.86 3.605 3.983 1.18 8.86h4.84ZM3.605 2.535l3.592 7.032H0l3.606-7.032Zm4.831 7.032c0-.406.059-.798.177-1.179.118-.38.322-.753.612-1.12.179-.236.39-.439.635-.607.244-.168.493-.306.746-.415.253-.109.498-.188.736-.237.238-.05.436-.074.594-.074V2.693h.83v3.958c-.594 0-1.106.064-1.538.193a2.513 2.513 0 0 0-1.143.731 2.212 2.212 0 0 0-.37.445c-.1.161-.182.33-.245.504a3.123 3.123 0 0 0-.139.531c-.03.18-.049.35-.055.512h-.84Zm10.814-.707v.707h-5.23V2.693h.84V8.86h4.39Zm7.264 0-2.413-4.877-2.428 4.877h4.84Zm-2.413-6.325 3.591 7.032h-7.197l3.606-7.032Zm6.323 3.004c.212 0 .407-.079.584-.237a.795.795 0 0 0 .266-.622.857.857 0 0 0-.074-.356.861.861 0 0 0-.776-.524.767.767 0 0 0-.306.064.878.878 0 0 0-.268.18.837.837 0 0 0-.187.28.912.912 0 0 0-.069.356c0 .257.085.464.253.622a.82.82 0 0 0 .577.237Zm-.01.588a1.474 1.474 0 0 1-1.052-.42 1.429 1.429 0 0 1-.43-1.027c0-.211.038-.406.114-.584.075-.177.18-.332.316-.464.135-.132.291-.236.47-.314a1.527 1.527 0 0 1 1.171 0c.187.078.348.182.483.314s.242.287.321.464c.08.178.12.373.12.584 0 .046-.004.11-.011.19-.007.08-.015.164-.025.25-.01.085-.026.163-.048.234a.505.505 0 0 1-.064.146h1.811v.627h-3.176Zm7.946 1.275a1.46 1.46 0 0 0-.827-1.317 1.2 1.2 0 0 0-.528-.12c-.18 0-.35.04-.514.12-.163.081-.305.187-.425.32-.12.13-.216.284-.288.459a1.392 1.392 0 0 0-.109.538c0 .182.031.36.094.536a1.347 1.347 0 0 0 .693.788c.167.083.35.124.549.124a1.306 1.306 0 0 0 .974-.432c.116-.13.208-.284.277-.46.07-.176.104-.361.104-.556Zm2.696 1.448v.717h-4.051a2.02 2.02 0 0 1-.84-.178 2.28 2.28 0 0 1-.69-.477c-.198-.2-.353-.43-.466-.692a2.068 2.068 0 0 1-.17-.828c0-.296.057-.574.17-.835a2.149 2.149 0 0 1 1.995-1.31c.29 0 .569.06.835.176a2.26 2.26 0 0 1 1.174 1.169c.118.263.177.54.177.83a2.51 2.51 0 0 1-.124.763c-.042.13-.098.253-.167.369-.07.115-.151.214-.245.296h2.402Zm3.789-2.238h-.749V5.327a7.869 7.869 0 0 1-.665-.106 2.183 2.183 0 0 1-.577-.198c-.167-.087-.3-.21-.4-.368-.099-.158-.148-.37-.148-.633 0-.326.084-.576.252-.75.169-.175.38-.306.633-.394.253-.087.527-.14.824-.158.297-.018.573-.027.83-.027v.628h-.106c-.186 0-.377.007-.575.022a2.805 2.805 0 0 0-.543.091.979.979 0 0 0-.405.213.485.485 0 0 0-.157.375v.01c0 .155.06.28.177.373.118.094.267.17.448.228.18.057.373.096.579.116.206.02.4.03.582.03v1.833Zm1.876-1.255c0 .224.064.403.193.538a.628.628 0 0 0 .926 0c.13-.135.196-.314.196-.538 0-.231-.065-.414-.197-.549a.628.628 0 0 0-.925 0c-.129.135-.193.318-.193.549Zm-.632-2.664h.744v1.512c.124-.05.225-.08.3-.094a1.303 1.303 0 0 1 1.15.356 1.236 1.236 0 0 1 .376.9 1.216 1.216 0 0 1-.79 1.148 1.36 1.36 0 0 1-.515.097 1.25 1.25 0 0 1-1.166-.756 1.216 1.216 0 0 1-.099-.49V2.693Zm7.425 5.87 4.067-2.436-4.067-2.44v4.877Zm-.809 1.167V2.525l6.13 3.602-6.13 3.603Zm10.43-3.746v.628h-1.234a1.42 1.42 0 0 1-.726-.149 1.864 1.864 0 0 1-.574-.45 2.052 2.052 0 0 1-.377-.656 2.249 2.249 0 0 1-.134-.761c0-.228.046-.46.14-.697.092-.237.22-.448.386-.633.165-.184.36-.33.587-.44a1.38 1.38 0 0 1 .718-.133h1.255v.628h-.9c-.284 0-.52.035-.706.106-.188.07-.336.167-.446.289-.11.122-.185.262-.227.42a1.91 1.91 0 0 0 0 .978c.042.162.116.307.222.435.107.129.25.233.43.314.18.08.413.121.696.121h.89Zm5.013 1.922a1.768 1.768 0 0 1-.55 1.29 1.98 1.98 0 0 1-.601.39c-.228.096-.47.144-.726.144-.253 0-.491-.048-.716-.144a1.932 1.932 0 0 1-.591-.39 1.783 1.783 0 0 1-.544-1.29V2.683h.84V6.38c.303-.197.64-.296 1.011-.296.256 0 .498.048.726.143.228.096.428.226.602.39a1.768 1.768 0 0 1 .549 1.29Zm-.744 0c0-.148-.03-.294-.088-.44a1.315 1.315 0 0 0-.246-.39 1.207 1.207 0 0 0-.361-.274.974.974 0 0 0-.438-.101.97.97 0 0 0-.44.1 1.126 1.126 0 0 0-.351.275c-.1.115-.18.246-.238.39a1.157 1.157 0 0 0 0 .885c.059.142.138.27.238.386.099.115.216.206.351.274a.969.969 0 0 0 .44.101.974.974 0 0 0 .438-.101c.136-.068.257-.16.361-.274.105-.116.187-.244.246-.386.059-.142.088-.29.088-.445Zm4.168-1.779c-.222 0-.416.042-.582.126a1.281 1.281 0 0 0-.417.334 1.423 1.423 0 0 0-.253.464 1.685 1.685 0 0 0-.083.524c0 .195.036.377.108.549.073.171.167.323.284.454.116.132.251.237.404.314.154.078.31.116.468.116v.722a1.92 1.92 0 0 1-.764-.163 2.172 2.172 0 0 1-.672-.452 2.391 2.391 0 0 1-.48-.682 1.967 1.967 0 0 1-.188-.858c0-.293.057-.569.17-.827a2.246 2.246 0 0 1 1.155-1.164c.263-.119.547-.178.85-.178h4.042v.721h-4.042ZM82.094 8.86v.707h-5.23V2.693h.84V8.86h4.39ZM76.621.657c0-.188.066-.344.197-.47A.653.653 0 0 1 77.284 0c.165 0 .318.064.46.193a.605.605 0 0 1 .015.909.674.674 0 0 1-.93.01.582.582 0 0 1-.208-.455Zm6.717 2.036h.84v5.01c0 .42.093.743.278.972.186.229.476.343.87.343a.912.912 0 0 0 .529-.165c.16-.11.297-.243.41-.398.113-.155.2-.312.263-.472.062-.16.093-.29.093-.388h.83c0 .283-.063.553-.187.808a2.477 2.477 0 0 1-1.166 1.149 1.789 1.789 0 0 1-.772.178c-.634 0-1.124-.186-1.47-.559-.345-.372-.518-.871-.518-1.497v-4.98Zm7.901 3.919h-.748V5.327a7.868 7.868 0 0 1-.666-.106 2.183 2.183 0 0 1-.576-.198c-.167-.087-.3-.21-.4-.368-.1-.158-.149-.37-.149-.633 0-.326.084-.576.253-.75.169-.175.38-.306.632-.394.253-.087.528-.14.825-.158.296-.018.573-.027.83-.027v.628h-.107c-.185 0-.377.007-.574.022a2.805 2.805 0 0 0-.544.091.979.979 0 0 0-.404.213.485.485 0 0 0-.157.375v.01c0 .155.059.28.177.373.118.094.267.17.447.228.18.057.374.096.58.116.205.02.4.03.581.03v1.833Zm6.712-.193h-4.203L97.8 9.567h-1.255l-4.061-3.148v-.717h4.638V2.683h.83V6.42Zm1.25-.292 6.13-3.602V9.73l-6.13-3.603Zm5.326-2.238-3.97 2.238 3.97 2.234V3.889Zm2.802 2.095h2.383v.628h-3.126V2.693h.743v3.291Zm4.467-2.58v6.163h-.84V2.693h5.23v.712h-4.39Zm6.267 1.953c0 .224.064.403.192.538a.628.628 0 0 0 .926 0c.131-.135.197-.314.197-.538 0-.231-.066-.414-.197-.549a.628.628 0 0 0-.926 0c-.128.135-.192.318-.192.549Zm-.633-2.664h.744v1.512c.125-.05.225-.08.301-.094a1.303 1.303 0 0 1 1.15.356 1.236 1.236 0 0 1 .375.9 1.216 1.216 0 0 1-.79 1.148 1.36 1.36 0 0 1-.515.097 1.25 1.25 0 0 1-1.166-.756 1.216 1.216 0 0 1-.099-.49V2.693Z"/></svg>