<svg viewBox="0 0 131 12" xmlns="http://www.w3.org/2000/svg"><path d="m75.5 3.54-.995 4.28c-.108.434-.162.787-.162.922 0 .15.151.191.177.191.149 0 .368-.299.722-.828l.313.217a5.83 5.83 0 0 1-.41.611 1.925 1.925 0 0 0-.136.652c0 .244.028.42.054.57.041.176.069.34.069.544 0 .366-.136.801-1.42 1.3l-.15-.38c.395-.191.777-.395.777-.801 0-.081-.014-.191-.014-.354 0-.312.082-.623.232-.99a1.165 1.165 0 0 1-.654.203c-.464 0-.587-.353-.587-.611 0-.163.042-.475.151-.854l.203-.761-.04-.026c-.967 1.41-1.5 2.25-2.71 2.25-.519 0-.914-.312-.914-1.09 0-.258.041-.557.135-.91l.614-2.32c.124-.447.15-.678.15-.813 0-.15-.082-.19-.177-.19-.15 0-.409.258-.83.747l-.3-.232c.476-.65 1.24-1.29 1.85-1.29.463 0 .558.175.558.5 0 .26-.094.708-.217 1.17l-.587 2.24a3.668 3.668 0 0 0-.136.883c0 .447.177.597.421.597.681 0 1.38-1.02 2.38-2.73l.6-2.58c.15 0 .736-.067 1.02-.122zm-15 .001c1.27 0 1.92.977 1.92 2.15 0 1.86-1.54 4.02-3.53 4.02-.94 0-1.51-.475-1.51-1.09 0-.529.395-.611.49-.611.123 0 .368.04.368.42v.151c0 .422.313.706.831.706 1.19 0 1.99-1.51 2.23-2.57-.313.163-.79.38-1.19.38-.559 0-.831-.368-1.28-.368-.15 0-.3.068-.395.068-.082 0-.068-.122-.054-.176.054-.205.68-.45 1.23-.45.572 0 .722.26 1.21.26.19 0 .38-.028.545-.096a5.45 5.45 0 0 0 .054-.678c0-.842-.259-1.7-1.16-1.7-1.02 0-1.46.774-1.83 1.6l-.327-.055c.204-.598.354-1.06.559-1.81.886 0 .913-.163 1.83-.163zm-48.9 0c1.24 0 1.49.584 1.49.977 0 .693-.763 1.1-2.34 1.64 1.38.068 1.7 1.08 1.7 1.66 0 1.02-1.09 1.89-2.55 1.89-1.42 0-2.11-.72-2.11-2.15 0-1.04.381-1.98 1.13-2.8.763-.813 1.65-1.22 2.68-1.22zm91.7 0c.03 0 .056 0 .056.04l-.41 1.62-.027.123.015.014c1.25-1.47 1.98-1.75 2.68-1.75.531 0 .913.271.913 1.09 0 .243-.083.557-.192 1.03l-.517 2.21c-.11.49-.137.666-.137.802s.056.244.15.244c.204 0 .477-.259.94-.802l.314.258c-.79.964-1.38 1.26-1.88 1.26-.313 0-.612-.189-.612-.555 0-.273.04-.544.176-1.1l.532-2.21c.109-.463.15-.733.15-.923 0-.42-.205-.638-.492-.638-.488 0-1.13.463-2.17 1.83l-.776 3.3-.995.327-.068-.163 1.01-4.36c.055-.245.082-.407.082-.529 0-.23-.082-.299-.204-.312l-.572-.055.04-.326c.996-.149 1.57-.271 1.99-.421zm-18.1 0c.028 0 .055 0 .055.04 0 0-.246.924-.41 1.62l-.232 1.03c.9-.014 1.43-.542 1.89-1.28.395-.637.994-1.37 1.66-1.37.436 0 .586.177.586.42 0 .449-.41.72-.668.72-.423 0-.313-.231-.628-.23-.135 0-.41.299-.653.719-.341.583-.777 1.15-1.4 1.25.736 0 1.2.285 1.34.95.094.516.354 1.68.858 1.75l.095.013c.07.014.136.027.136.11l-.067.257-.028.026-.94-.026c-.613-.014-.9-.977-1.01-1.53-.137-.72-.3-1.22-1.28-1.32l-.6 2.69-.994.327-.068-.163 1.02-4.36c.056-.245.082-.407.082-.529 0-.23-.082-.299-.204-.312l-.57-.055.039-.326c.995-.149 1.57-.271 1.99-.421zm-19.9 0c.027 0 .055 0 .055.04 0 0-.245.924-.41 1.62l-.203.937h2.42l.545-2.43c.15 0 .736-.068 1.02-.11l-.995 4.25c-.108.435-.163.788-.163.924 0 .15.15.19.178.19.19 0 .408-.298.776-.827l.26.216c-.492.856-1.02 1.36-1.65 1.36-.476 0-.571-.353-.571-.612 0-.162.054-.474.123-.854l.354-1.57h-2.43l-.613 2.71-.995.327-.069-.163 1.02-4.36c.055-.245.082-.407.082-.53 0-.23-.082-.298-.204-.311l-.572-.056.041-.326c.995-.149 1.57-.27 1.99-.42zm-10.6.147.014.027-.068.326c-.014.028-.028.04-.069.04h-.34c-.328 0-.355.124-.423.409l-.79 3.35c-.109.434-.163.787-.163.923 0 .15.15.19.177.19.191 0 .41-.298.777-.827l.26.216c-.49.856-1.02 1.36-1.65 1.36-.478 0-.587-.353-.587-.612 0-.162.055-.474.136-.854l.3-1.34h-.409c-.545 0-1.02.692-1.5 1.51-.313.557-.858 1.14-1.29 1.14l-.858.011-.04-.028.054-.257c.027-.096.109-.109.177-.109h.095c.41 0 1.05-.95 1.38-1.47.341-.557.695-.843 1.09-.924-.545 0-1.43-.298-1.43-1.11 0-.081.014-.19.028-.299.245-1 1.29-1.66 2.32-1.66l1.61.014 1.21-.027zM25.5.068c-.504 1.44-1.35 1.96-2.47 2.06-1.17.109-1.57.461-2.14 1.32-.259.394-.49.95-.627 1.46.395-.569 1.06-1.37 2.26-1.37 1.38 0 1.87.937 1.87 2.02 0 2.16-1.66 4.14-3.47 4.14-.995 0-1.87-.612-1.87-2.15 0-1.98 1.59-6.19 4.24-6.41 1.06-.08 1.65-.38 1.93-1.09h.272zm105 3.62.015.027-.067.326c-.014.028-.029.04-.07.04h-.34c-.327 0-.354.124-.422.409l-.79 3.35c-.109.434-.162.787-.162.923 0 .15.15.19.176.19.191 0 .41-.298.777-.827l.26.216c-.49.856-1.02 1.36-1.65 1.36-.479 0-.588-.353-.588-.612 0-.162.055-.474.136-.854l.3-1.34v-.003h-.41c-.547 0-1.02.692-1.5 1.51-.314.557-.86 1.14-1.3 1.14l-.858.014-.04-.028.055-.257c.026-.096.109-.109.176-.109h.096c.41 0 1.05-.95 1.38-1.47.341-.557.695-.843 1.09-.924-.545 0-1.43-.298-1.43-1.11 0-.081.012-.19.027-.299.245-1 1.29-1.66 2.32-1.66l1.61.014 1.21-.027zm-92.3-.147c.027 0 .054 0 .054.04 0 0-.244.924-.408 1.62l-.204.937h2.43l.544-2.43c.15 0 .737-.068 1.02-.11l-.994 4.25c-.11.435-.163.788-.163.924 0 .15.15.19.177.19.19 0 .409-.298.777-.827l.259.216c-.49.856-1.02 1.36-1.65 1.36-.477 0-.572-.353-.572-.612 0-.162.054-.474.123-.854l.354-1.57h-2.43l-.613 2.71-.995.327-.069-.163 1.02-4.36c.055-.245.082-.407.082-.53 0-.23-.082-.298-.204-.311l-.572-.056.041-.326c.995-.149 1.57-.27 1.99-.42zM31.53.001c.886.501 1.91.365 2.92 1.95.559.843.804 1.81.817 2.82 0 1.68-.681 3.26-1.53 4.02-.518.475-1.04.909-2.04.909-1.2 0-1.69-1.02-1.69-2.09 0-1.7 1.02-3.05 2.02-3.6.627-.339 1.17-.475 1.46-.475.327 0 .654.055.899.244.027-.122.027-.231.027-.339 0-1.51-.98-1.71-2.13-2.1-.64-.218-.817-.706-.817-1.14 0-.122.027-.204.055-.204h.013zm82.4 0c.886.501 1.91.365 2.92 1.95.558.843.803 1.81.817 2.82 0 1.68-.681 3.26-1.53 4.02-.517.475-1.03.909-2.04.909-1.2 0-1.69-1.02-1.69-2.09 0-1.7 1.02-3.05 2.02-3.6.627-.339 1.17-.475 1.46-.475.327 0 .653.055.897.244.027-.122.027-.231.027-.339 0-1.51-.98-1.71-2.13-2.1-.64-.218-.816-.706-.816-1.14 0-.122.027-.204.055-.204h.013zm-68.2 3.58c.545 0 .722.04 1.09.081.274.068.628.027.954.027l-.94 4.22c-.054.259-.136.707-.136.828 0 .164.123.19.163.19.136 0 .395-.284.763-.786l.313.217c-.354.57-1.01 1.32-1.74 1.32-.463 0-.559-.353-.559-.611 0-.163.04-.42.136-.747l.218-.706-.027-.028c-.817 1.21-1.62 2.09-2.34 2.09-1.14 0-1.32-1.07-1.32-1.83 0-2.13 1.98-4.26 3.43-4.26zm78.4-.042-.995 4.28c-.108.434-.163.787-.163.922 0 .15.15.191.177.191.15 0 .367-.299.721-.828l.314.217c-.49.855-1.02 1.36-1.65 1.36-.463 0-.586-.353-.586-.61 0-.164.04-.476.15-.855l.204-.76-.04-.027c-.969 1.41-1.5 2.25-2.71 2.25-.518 0-.913-.312-.913-1.09 0-.258.041-.557.136-.909l.613-2.32c.124-.448.151-.679.151-.814 0-.149-.082-.19-.178-.19-.15 0-.409.258-.83.747l-.3-.232c.477-.65 1.24-1.29 1.85-1.29.462 0 .56.176.56.5 0 .26-.097.707-.22 1.17l-.586 2.24a3.668 3.668 0 0 0-.136.882c0 .447.177.597.422.597.681 0 1.37-1.02 2.38-2.73l.598-2.58c.151 0 .737-.067 1.02-.122zm-42.5 0-.995 4.28c-.109.434-.163.787-.163.922 0 .15.151.191.177.191.149 0 .368-.299.722-.828l.313.217c-.49.855-1.02 1.36-1.65 1.36-.465 0-.587-.353-.587-.61 0-.164.042-.476.151-.855l.203-.76-.04-.027c-.968 1.41-1.5 2.25-2.71 2.25-.519 0-.914-.312-.914-1.09 0-.258.041-.557.136-.909l.613-2.32c.124-.448.15-.679.15-.814 0-.149-.08-.19-.176-.19-.15 0-.41.258-.83.747l-.302-.232c.478-.65 1.24-1.29 1.85-1.29.464 0 .56.176.56.5 0 .26-.096.707-.219 1.17l-.586 2.24a3.628 3.628 0 0 0-.137.882c0 .447.178.597.422.597.68 0 1.38-1.02 2.38-2.73l.6-2.58c.15 0 .736-.067 1.02-.122zm29 .042c1.1 0 1.35.475 1.35.95 0 .516-.095 1.62-3.65 2.31-.014.11-.014.394-.015.463 0 1.23.518 1.72 1.13 1.72.653 0 1.1-.379 1.84-1.17.163 0 .232.067.301.216-.764 1.05-1.53 1.6-2.63 1.6-1.39 0-1.77-.91-1.77-2.06 0-1.72 1.12-4.03 3.45-4.03zm-12.6.001c1.68 0 1.92 1.22 1.92 2.2 0 2.14-1.62 3.9-3.37 3.9-1.73 0-1.91-1.62-1.91-2.33 0-1.63 1.08-3.76 3.35-3.76zM4.63.612c1.61 0 2 .571 2.74.612-.082.733-.109 1.4-.123 2.1l-.395.054c-.109-1.17-.654-2.27-2.47-2.27-1.04 0-3.11 1.14-3.65 3.9a6.57 6.57 0 0 0-.109 1.14c0 1.59.681 2.97 2.32 2.97 1.21 0 2.19-.422 3.32-1.48.15 0 .218.082.259.204-1.12 1.21-2.41 1.83-3.68 1.83-2.37 0-3.39-1.6-3.39-3.41 0-.339.027-.665.095-1.01.518-2.67 2.92-4.66 5.08-4.66zm11.5 2.97c1.68 0 1.92 1.22 1.92 2.2 0 2.14-1.62 3.9-3.37 3.9-1.73 0-1.91-1.62-1.91-2.33 0-1.63 1.08-3.76 3.35-3.76zm11.4 0c1.68 0 1.92 1.22 1.92 2.2 0 2.14-1.62 3.9-3.37 3.9-1.73 0-1.91-1.62-1.91-2.33 0-1.63 1.08-3.76 3.35-3.76zm66.9.108.026.027-.067.273c-.013.068-.04.094-.123.094h-.354c-.477 0-.559.122-.655.638l-.614 3.19c-.096.49-.123.666-.123.802s.041.244.135.244c.204 0 .477-.259.941-.802l.313.258c-.805.964-1.38 1.26-1.88 1.26-.313 0-.612-.189-.612-.555 0-.273.054-.53.176-1.1l.681-3.12c.041-.163.056-.285.056-.38 0-.205-.11-.272-.423-.272h-.721c-.477 0-.613.407-.913 1.68-.26 1.11-.586 2.24-.858 2.77-.3.64-.75.978-1.27.978-.38 0-.708-.284-.708-.61 0-.028 0-.069.014-.096.054-.273.244-.489.503-.489.205 0 .328.163.328.353 0 .014 0 .04-.014.054-.014.176.028.312.137.312.122 0 .272-.136.436-.474.244-.463.529-1.28.857-2.7.177-.773.272-1.24.272-1.52 0-.365-.163-.42-.572-.42-.218 0-.271 0-.244-.122l.054-.244.04-.027s.79.027 1.31.027h2.47c.545 0 1.4-.027 1.4-.027zM9.73 6.43c-.368 0-.763.108-1.24.298-.204.463-.204 1.05-.204 1.49 0 1.03.64 1.21 1.05 1.21.858 0 1.42-.815 1.42-1.71 0-.584-.395-1.29-1.02-1.29zm12-2.44c-1.39 0-2.22 1.98-2.22 3.54 0 1.05.395 1.74 1.19 1.74 1.27 0 2.07-1.98 2.07-3.61 0-.992-.327-1.67-1.04-1.67zm-5.88.042c-1.55 0-1.96 1.98-1.96 3.2 0 1.74.681 1.97 1.1 1.97 1.53 0 1.92-2.44 1.92-3.33 0-.87 0-1.85-1.06-1.85zm81.9 0c-1.55 0-1.96 1.98-1.96 3.2 0 1.74.681 1.97 1.1 1.97 1.53 0 1.92-2.44 1.92-3.33 0-.87 0-1.85-1.06-1.85zm-70.5 0c-1.55 0-1.96 1.98-1.96 3.2 0 1.74.681 1.97 1.1 1.97 1.53 0 1.92-2.44 1.92-3.33 0-.87 0-1.85-1.06-1.85zm5.81.026c-.913 0-2.03 1.24-2.04 3.41 0 .923.354 1.67.995 1.67 1.68 0 2.1-3.54 2.1-4.27 0-.639-.668-.802-1.05-.802zm82.4 0c-.913 0-2.03 1.24-2.04 3.41 0 .923.354 1.67.994 1.67 1.68 0 2.1-3.54 2.1-4.27 0-.639-.668-.802-1.05-.802zm-69.8-.055c-1.25 0-2.38 2.19-2.38 3.63 0 .759.136 1.3.599 1.3.436 0 1.49-1.14 2.15-2.36.341-.87.477-2.31.477-2.31a1.62 1.62 0 0 0-.845-.26zm64.6 0c-.654 0-1.46.422-1.93 2.47 1.05-.082 2.64-.666 2.64-1.96 0-.393-.219-.516-.708-.516zm-58.5.07c-1.17 0-1.72.76-1.83 1.25a1.02 1.02 0 0 0-.04.285c0 .434.231.813.871.813h1.01l.531-2.28a2.497 2.497 0 0 0-.545-.068zm76.3 0c-1.17 0-1.72.76-1.83 1.25-.026.094-.04.189-.04.285 0 .434.232.813.871.813h1.01l.53-2.28a2.482 2.482 0 0 0-.545-.068zm-117-.231c-.94 0-1.68.624-2.32 2.43 2.14-.517 2.96-.965 2.96-1.81 0-.191-.095-.625-.64-.624z" fill="#000" fill-rule="nonzero"/></svg>