<svg xmlns="http://www.w3.org/2000/svg" width="120" height="11"><path fill="#000" fill-rule="nonzero" d="M4.115.751C3.465.661 3.5.45 2.4.45c-1.02 0-2.13.75-2.13 1.94 0 1.054.74 1.592 1.614 1.962.706.314 1.85.527 1.85 1.805 0 .909-.516 1.38-1.402 1.38-1.054 0-1.726-.471-1.973-1.593A.436.436 0 0 0 0 5.977c.045.863.09 1.155.224 1.704.707 0 1.01.258 2.008.258 1.356 0 2.444-1.031 2.444-2.175 0-1.065-.729-1.604-1.547-1.951-.539-.225-2.064-.628-2.064-1.727 0-.684.516-1.256 1.223-1.256 1.099 0 1.446.695 1.67 1.435.124 0 .258.011.36-.067A8.773 8.773 0 0 0 4.114.75m4.027 4.463v1.492c0 .146-.067.224-.157.291-.292.236-.673.483-.987.483-.56 0-.807-.449-.807-.797 0-.504.235-1.009 1.065-1.233l.886-.236m0 2.075c.067.235.258.65.863.65.55 0 .954-.448.954-.504 0-.079-.101-.191-.146-.191-.068 0-.112.18-.348.18-.437 0-.448-.438-.448-.954V4.8c0-1.593-.875-1.896-1.694-1.896-.92 0-1.85.64-1.85 1.245 0 .27.135.393.393.393.325 0 .493-.225.493-.37a.504.504 0 0 0-.034-.202.775.775 0 0 1-.022-.225c0-.347.504-.47.93-.47.382 0 .909.19.909 1.457 0 .079-.034.124-.067.135l-.965.235c-1.076.27-1.85.864-1.85 1.626 0 .886.628 1.211 1.413 1.211.516 0 .729-.09 1.222-.47l.224-.18h.023m3.9 2.332c.167-.302.313-.628.459-.964.897-2.153 1.39-3.32 1.985-4.575.157-.325.493-.684.908-.718.067-.067.067-.303 0-.37-.28.011-.482.022-.796.022-.393 0-.606-.01-1.02-.022-.068.067-.068.303 0 .37.347.034.706.101.538.505l-1.122 2.568c-.078.19-.168.213-.269-.012l-.987-2.332c-.201-.471-.325-.673.36-.729.067-.067.067-.303 0-.37-.416.011-.864.022-1.268.022-.381 0-.684-.01-.908-.022-.067.067-.067.303 0 .37.493.045.583.135.886.841l1.267 2.95c.1.235.269.74.157 1.053a7.7 7.7 0 0 1-.438 1.032c-.123.224-.28.325-.56.325-.157 0-.202-.033-.325-.033-.326 0-.494.336-.494.482 0 .235.224.415.527.415.236 0 .684-.09 1.088-.808h.011m7.894-8.186c0-.37 0-.482.975-.482.628 0 1.447.337 1.447 1.48 0 .954-.662 1.29-1.592 1.29h-.83V1.435m0 2.67h.773c1.537 0 2.176.863 2.176 1.872 0 .818-.314 1.503-2.019 1.503-.785 0-.93-.382-.93-.752V4.104m-.482-3.51c-.561 0-.886-.01-1.447-.022-.067.067-.067.303 0 .37.785.034.976.09.976 1.02V6.46c0 .93-.191.987-.976 1.02-.067.068-.067.303 0 .37.55-.01.886-.022 1.458-.022.482 0 .639.023 1.637.023 2.231 0 2.826-1.122 2.826-2.086 0-1.077-.752-1.693-1.727-1.974v-.022c.56-.28 1.065-.852 1.065-1.47 0-.75-.325-1.726-2.41-1.726-.393 0-.92.022-1.402.022m5.12 4.934c0 1.144.773 2.411 2.354 2.411 1.671 0 2.378-1.39 2.378-2.512 0-1.166-.617-2.523-2.355-2.523-1.514 0-2.377 1.2-2.377 2.624m2.253-2.254c.965 0 1.514.864 1.514 2.512 0 1.48-.684 1.783-1.21 1.783-1.167 0-1.593-1.435-1.593-2.299 0-.975.348-1.996 1.29-1.996m3.73 3.185c0 .93-.124.987-.808 1.02-.068.068-.068.303 0 .37.47-.01.762-.022 1.256-.022.482 0 .762.011 1.244.023.068-.068.068-.303 0-.37-.684-.034-.807-.09-.807-1.02V1.29c0-.73.045-1.178.045-1.178 0-.078-.045-.112-.146-.112-.28.112-1.121.27-1.57.303-.022.09 0 .269.067.336.584.034.718-.022.718.92v4.9m2.079-.93c0 1.143.774 2.41 2.355 2.41 1.67 0 2.377-1.39 2.377-2.512 0-1.166-.617-2.523-2.355-2.523-1.514 0-2.377 1.2-2.377 2.624m2.254-2.254c.964 0 1.514.864 1.514 2.512 0 1.48-.684 1.783-1.211 1.783-1.167 0-1.593-1.435-1.593-2.299 0-.975.348-1.996 1.29-1.996M38.09 6.28c.045.55.079 1.076.079 1.547.112-.022.224-.033.28-.033.079 0 .146 0 .224.022a3.85 3.85 0 0 0 1.02.123c.629 0 1.784-.302 1.784-1.413 0-.762-.56-1.2-1.312-1.491-.673-.258-1.121-.426-1.121-1.043 0-.46.403-.718.784-.718.247 0 .898.09 1.043 1.043.068.068.292.056.36-.01 0-.405.055-.82.066-1.19-.347-.056-.885-.213-1.469-.213-.83 0-1.58.539-1.58 1.256 0 .819.37 1.166 1.233 1.525.92.393 1.144.617 1.144 1.1 0 .549-.539.784-.954.784-.437 0-.684-.146-.796-.269-.269-.258-.37-.751-.437-1.032-.067-.067-.28-.056-.348.012m8.346 3.341c.168-.302.314-.628.46-.964.896-2.153 1.39-3.32 1.984-4.575.157-.325.494-.684.908-.718.068-.067.068-.303 0-.37-.28.011-.482.022-.796.022-.392 0-.605-.01-1.02-.022-.067.067-.067.303 0 .37.347.034.706.101.538.505L47.39 6.437c-.079.19-.168.213-.27-.012l-.986-2.332c-.202-.471-.325-.673.359-.729.067-.067.067-.303 0-.37-.415.011-.864.022-1.267.022-.382 0-.685-.01-.909-.022-.067.067-.067.303 0 .37.494.045.583.135.886.841l1.267 2.95c.101.235.27.74.157 1.053a7.7 7.7 0 0 1-.437 1.032c-.123.224-.28.325-.56.325-.158 0-.203-.033-.326-.033-.325 0-.493.336-.493.482 0 .235.224.415.527.415.235 0 .684-.09 1.087-.808h.012m6.506-4.407v1.492c0 .146-.067.224-.157.291-.291.236-.673.483-.987.483-.56 0-.807-.449-.807-.797 0-.504.235-1.009 1.065-1.233l.886-.236m0 2.075c.067.235.258.65.864.65.549 0 .953-.448.953-.504 0-.079-.101-.191-.146-.191-.067 0-.112.18-.348.18-.437 0-.448-.438-.448-.954V4.8c0-1.593-.875-1.896-1.694-1.896-.92 0-1.85.64-1.85 1.245 0 .27.135.393.393.393.325 0 .493-.225.493-.37a.504.504 0 0 0-.034-.202.775.775 0 0 1-.022-.225c0-.347.505-.47.93-.47.382 0 .91.19.91 1.457 0 .079-.035.124-.068.135l-.965.235c-1.076.27-1.85.864-1.85 1.626 0 .886.628 1.211 1.413 1.211.516 0 .729-.09 1.222-.47l.225-.18h.022m7.16-3.51h-1.021V1.536c0-.269.134-.493.403-.493h1.178c.84 0 1.02.448 1.267 1.222.134.023.258 0 .37-.056a39.365 39.365 0 0 0-.247-1.626c0-.022-.01-.034-.045-.034-.19.034-.28.045-.549.045h-2.86s-.885-.01-1.446-.022c-.067.067-.067.303 0 .37.785.034.975.09.975 1.02V6.46c0 .93-.19.987-.975 1.02-.067.068-.067.303 0 .37.55-.01 1.458-.022 1.458-.022h2.41c.539 0 1.436.023 1.436.023.157-.561.325-1.301.415-1.873a.587.587 0 0 0-.393-.056c-.224.807-.616 1.469-1.469 1.469h-1.525c-.246 0-.403-.18-.403-.482V4.205h1.02c.953 0 .987.258 1.02.763.068.067.303.067.37 0-.01-.393-.022-.606-.022-.987s.011-.628.023-.965c-.068-.067-.303-.067-.37 0-.034.617-.068.763-1.02.763m4.883.034c-.034.045-.112.157-.112 0 0-.337.056-.853.056-.853 0-.056-.045-.09-.135-.09-.314.124-.773.225-1.547.326-.023.067 0 .247.022.314.606.056.73.112.73.762V6.46c0 .92-.113.964-.786 1.02-.067.068-.067.303 0 .37.46-.01.751-.022 1.234-.022.437 0 .639.011 1.11.023.067-.068.067-.303 0-.37-.572-.057-.673-.101-.673-1.02V4.62c0-.235.1-.37.19-.47.427-.416.864-.663 1.301-.663.225 0 .46.146.595.404.112.224.134.527.134.864v1.704c0 .92-.112.964-.695 1.02-.056.068-.056.303 0 .37.471-.01.695-.022 1.144-.022.46 0 .706.011 1.188.023.057-.068.057-.303 0-.37-.627-.057-.75-.101-.75-1.02V4.787c0-.617-.046-1.155-.304-1.502-.19-.247-.538-.382-.93-.382-.55 0-1.088.146-1.772.909m4.203 2.467c.045.55.079 1.076.079 1.547.112-.022.224-.033.28-.033.079 0 .146 0 .224.022a3.85 3.85 0 0 0 1.02.123c.629 0 1.784-.302 1.784-1.413 0-.762-.56-1.2-1.312-1.491-.673-.258-1.121-.426-1.121-1.043 0-.46.403-.718.784-.718.247 0 .898.09 1.043 1.043.068.068.292.056.36-.01 0-.405.055-.82.066-1.19-.347-.056-.885-.213-1.469-.213-.83 0-1.58.539-1.58 1.256 0 .819.37 1.166 1.233 1.525.92.393 1.144.617 1.144 1.1 0 .549-.539.784-.954.784-.437 0-.684-.146-.796-.269-.269-.258-.37-.751-.437-1.032-.067-.067-.28-.056-.348.012m6.768-1.066v1.492c0 .146-.067.224-.157.291-.292.236-.673.483-.987.483-.56 0-.807-.449-.807-.797 0-.504.235-1.009 1.065-1.233l.886-.236m0 2.075c.067.235.258.65.863.65.55 0 .954-.448.954-.504 0-.079-.101-.191-.146-.191-.068 0-.112.18-.348.18-.437 0-.448-.438-.448-.954V4.8c0-1.593-.875-1.896-1.694-1.896-.92 0-1.85.64-1.85 1.245 0 .27.135.393.393.393.325 0 .493-.225.493-.37a.504.504 0 0 0-.034-.202.775.775 0 0 1-.022-.225c0-.347.504-.47.93-.47.382 0 .909.19.909 1.457 0 .079-.034.124-.067.135l-.965.235c-1.076.27-1.85.864-1.85 1.626 0 .886.628 1.211 1.413 1.211.516 0 .729-.09 1.222-.47l.224-.18h.023m3.9 2.332c.167-.302.313-.628.459-.964.897-2.153 1.39-3.32 1.985-4.575.157-.325.493-.684.908-.718.067-.067.067-.303 0-.37-.28.011-.482.022-.796.022-.393 0-.606-.01-1.02-.022-.068.067-.068.303 0 .37.347.034.706.101.538.505l-1.122 2.568c-.078.19-.168.213-.269-.012l-.987-2.332c-.201-.471-.325-.673.36-.729.067-.067.067-.303 0-.37-.416.011-.864.022-1.268.022-.381 0-.684-.01-.908-.022-.067.067-.067.303 0 .37.493.045.583.135.886.841l1.267 2.95c.1.235.269.74.157 1.053-.124.382-.27.684-.438 1.032-.123.224-.28.325-.56.325-.157 0-.202-.033-.325-.033-.326 0-.494.336-.494.482 0 .235.224.415.527.415.236 0 .684-.09 1.088-.808h.011m4.185-3.162c0 .93-.123.976-.75 1.02-.068.068-.068.303 0 .37.47-.01.728-.022 1.199-.022.392 0 .538.011 1.02.023.068-.068.068-.303 0-.37-.46-.045-.583-.09-.583-1.02V5.45c.258.011.415.09.64.404l.818 1.155c.224.325.258.46.258.605v.18c0 .033.011.056.045.056.224-.012.437-.023.774-.023.347 0 .583.011.92.023.066-.068.066-.303 0-.37-.382-.045-.719-.09-.965-.471l-1.312-1.94a.268.268 0 0 1-.056-.157c0-.045.01-.079.045-.113l.852-.941c.325-.337.673-.471 1.233-.494.068-.067.068-.303 0-.37-.415.011-.572.022-.975.022-.426 0-.617-.01-1.032-.022-.067.067-.067.303 0 .37.673.034.314.46.202.572-.594.65-1.155 1.144-1.447 1.234V1.29c0-.73.045-1.178.045-1.178 0-.078-.045-.112-.146-.112-.28.112-1.121.27-1.57.303-.022.09 0 .269.068.336.583.034.717-.022.717.92v4.9m5.238 0c0 .93-.123.987-.807 1.02-.067.068-.067.303 0 .37.471-.01.763-.022 1.256-.022.482 0 .763.011 1.245.023.067-.068.067-.303 0-.37-.684-.034-.808-.09-.808-1.02V1.29c0-.73.045-1.178.045-1.178 0-.078-.045-.112-.146-.112-.28.112-1.12.27-1.57.303-.022.09 0 .269.068.336.583.034.717-.022.717.92v4.9m2.08-.93c0 1.143.773 2.41 2.354 2.41 1.67 0 2.377-1.39 2.377-2.512 0-1.166-.616-2.523-2.355-2.523-1.513 0-2.377 1.2-2.377 2.624m2.254-2.254c.964 0 1.514.864 1.514 2.512 0 1.48-.684 1.783-1.211 1.783-1.166 0-1.592-1.435-1.592-2.299 0-.975.347-1.996 1.29-1.996m4.626.797c.347-.36.796-.65 1.132-.65.718 0 1.335.807 1.335 2.074 0 .92-.325 2.063-1.581 2.063-.202 0-.595-.056-.796-.235-.236-.202-.27-.258-.27-.673V4.564c0-.236.034-.336.18-.493m-.09-.37c-.045.044-.112.056-.112-.034 0-.404.045-.718.045-.718 0-.045-.056-.078-.146-.078-.314.123-.74.224-1.514.325-.022.067 0 .247.023.314.605.056.729.123.729.762v4.789c0 .93-.124.986-.808 1.02-.067.067-.067.303 0 .37.471-.011.763-.022 1.256-.022.527 0 .875.01 1.357.022.067-.067.067-.303 0-.37-.796-.045-.92-.09-.92-1.02V7.85c0-.146.034-.124.157-.079.27.112.617.168.976.168.628 0 1.189-.19 1.648-.628.527-.516.83-1.21.83-2.12 0-1.188-.84-2.287-1.985-2.287-.414 0-1.031.28-1.536.797m5.159.964c.213-1.267.998-1.368 1.267-1.368.426 0 .93.235.93 1.177 0 .101-.044.157-.167.157l-2.03.034m2.938 2.12c-.415.425-.74.605-1.39.605-.404 0-.875-.236-1.223-.808-.224-.37-.359-.885-.359-1.536l2.983.023c.135 0 .213-.068.213-.191 0-.942-.336-1.951-1.895-1.951-.976 0-2.243.93-2.243 2.635 0 .628.157 1.233.527 1.66.382.448.909.717 1.716.717.852 0 1.458-.392 1.906-.975-.033-.112-.1-.169-.235-.18m4.349-.347c0 .213-.023.302-.18.437-.415.359-.773.538-1.054.538-.605 0-1.233-.661-1.233-2.063 0-.807.157-1.256.325-1.491.348-.528.819-.561 1.043-.561.403 0 .684.146.908.404.157.179.19.257.19.605v2.13m-.123.83c.045-.044.135-.067.135.012 0 .269.123.661.123.661.09.034.124.023.213 0 .247-.202.673-.37 1.357-.448.067-.068.067-.236 0-.303-.717-.056-.818-.27-.818-.819V1.29c0-.728.044-1.177.044-1.177 0-.078-.044-.112-.145-.112-.28.112-1.122.27-1.57.303-.023.09 0 .269.067.336.583.034.718-.022.718.92v1.435c0 .079-.023.101-.101.101-.045 0-.505-.19-.875-.19-.74 0-1.233.246-1.682.672-.482.482-.774 1.144-.774 1.974 0 1.379.696 2.388 1.907 2.388.437 0 .852-.224 1.401-.673m2.664-6.156c0 .292.27.583.538.583.314 0 .584-.291.584-.538 0-.27-.236-.583-.539-.583-.269 0-.583.269-.583.538m1.02 5.35V4.227c0-.561.046-1.279.046-1.279 0-.045-.057-.078-.146-.078-.325.123-.763.224-1.537.325-.022.067 0 .247.023.314.605.067.729.123.729.762V6.46c0 .93-.124.964-.808 1.02-.067.068-.067.303 0 .37.471-.01.763-.022 1.256-.022.483 0 .763.011 1.245.023.067-.068.067-.303 0-.37-.684-.045-.807-.09-.807-1.02m4.027-1.246v1.492c0 .146-.067.224-.157.291-.291.236-.672.483-.986.483-.561 0-.808-.449-.808-.797 0-.504.236-1.009 1.066-1.233l.885-.236m0 2.075c.068.235.258.65.864.65.55 0 .953-.448.953-.504 0-.079-.1-.191-.146-.191-.067 0-.112.18-.347.18-.438 0-.449-.438-.449-.954V4.8c0-1.593-.875-1.896-1.693-1.896-.92 0-1.85.64-1.85 1.245 0 .27.134.393.392.393.325 0 .493-.225.493-.37a.504.504 0 0 0-.033-.202.775.775 0 0 1-.023-.225c0-.347.505-.47.931-.47.381 0 .908.19.908 1.457 0 .079-.033.124-.067.135l-.964.235c-1.077.27-1.85.864-1.85 1.626 0 .886.627 1.211 1.412 1.211.516 0 .73-.09 1.223-.47l.224-.18h.022"/></svg>