<?xml version="1.0" encoding="UTF-8"?>
<svg width="121px" height="12px" viewBox="0 0 121 12" version="1.1" xmlns="http://www.w3.org/2000/svg" xmlns:xlink="http://www.w3.org/1999/xlink">
    <title>tum-tagline</title>
    <g id="Page-1" stroke="none" stroke-width="1" fill="none" fill-rule="evenodd">
        <path d="M4.97603667,1.90018754 C4.87601584,1.8001667 4.87601584,1.60012503 4.97603667,1.50010419 C5.47614086,1.50010419 5.97624505,1.50010419 6.17628673,1.50010419 C6.47634924,1.50010419 6.97645343,1.50010419 7.37653678,1.50010419 C7.47655762,1.60012503 7.47655762,1.8001667 7.37653678,1.90018754 C6.57637008,2.00020838 6.47634924,2.00020838 6.47634924,3.00041675 L6.47634924,8.30152115 C6.47634924,8.50156283 6.3763284,8.60158366 6.27630756,8.60158366 C6.07626589,8.60158366 5.97624505,8.50156283 5.87622421,8.30152115 L2.07543238,3.50052094 C1.87539071,3.30047927 1.77536987,3.10043759 1.67534903,3.10043759 C1.57532819,3.10043759 1.57532819,3.30047927 1.57532819,3.60054178 L1.57532819,6.90122942 C1.57532819,7.9014378 1.77536987,7.9014378 2.47551573,8.00145864 C2.57553657,8.10147947 2.57553657,8.30152115 2.47551573,8.40154199 C1.97541154,8.40154199 1.57532819,8.40154199 1.27526568,8.40154199 C0.975203167,8.40154199 0.575119817,8.40154199 0.0750156283,8.40154199 C-0.0250052094,8.30152115 -0.0250052094,8.10147947 0.0750156283,8.00145864 C0.87518233,7.9014378 0.975203167,7.9014378 0.975203167,6.90122942 L0.975203167,2.40029173 C0.87518233,2.10022921 0.575119817,1.70014586 0.0750156283,1.70014586 C-0.0250052094,1.60012503 -0.0250052094,1.40008335 0.0750156283,1.30006251 L1.57532819,1.30006251 L5.27609919,6.00104188 C5.5761617,6.40112523 5.77620338,6.60116691 5.77620338,6.60116691 C5.87622421,6.60116691 5.87622421,6.50114607 5.87622421,6.3011044 L5.87622421,2.80037508 C5.87622421,2.00020838 5.67618254,2.00020838 4.97603667,1.90018754 Z M9.1764488,1.05788243 L9.17691186,6.00104188 C9.37695353,6.00104188 9.67701605,5.80100021 9.87705772,5.70097937 C10.1771202,5.5009377 10.4771827,5.10085434 10.7772453,4.80079183 C10.8772661,4.70077099 11.1773286,4.30068764 10.5772036,4.20066681 C10.4771827,4.10064597 10.4771827,3.90060429 10.5772036,3.80058345 L12.5776203,3.80058345 C12.6776412,3.90060429 12.6776412,4.10064597 12.5776203,4.20066681 C12.177537,4.20066681 11.7774536,4.30068764 11.4773911,4.70077099 L10.5772036,5.70097937 L10.5772036,5.80100021 C10.5772036,5.90102105 10.5772036,5.90102105 10.6772244,6.00104188 L12.0775161,7.80141696 C12.3775787,8.20150031 12.6776412,8.20150031 12.9777037,8.30152115 L13.0076542,8.34418293 C13.0171979,8.28965327 13.0405546,8.23867022 13.0777245,8.20150031 C13.6778496,8.20150031 13.8778912,8.10147947 13.8778912,7.20129194 L13.8778912,2.50031257 C13.8778912,1.60012503 13.7778704,1.60012503 13.1777454,1.60012503 C13.0777245,1.50010419 13.0777245,1.40008335 13.0777245,1.30006251 C13.4778079,1.30006251 14.2779746,1.10002084 14.5780371,1 C14.6780579,1 14.6780579,1 14.6780579,1.10002084 L14.6780579,4.60075016 C14.6780579,4.80079183 14.7780788,4.60075016 14.7780788,4.60075016 C15.4782246,3.90060429 16.0783497,3.70056262 16.5784538,3.70056262 C16.9785372,3.70056262 17.2785997,3.80058345 17.4786414,4.10064597 C17.7486976,4.37070223 17.7757033,4.88380913 17.7784038,5.3483059 L17.7787039,7.1012711 C17.7787039,8.00145864 17.8787247,8.00145864 18.4788498,8.10147947 C18.5788706,8.20150031 18.5788706,8.40154199 18.4788498,8.50156283 L16.2783913,8.50156283 C16.1783705,8.40154199 16.1783705,8.20150031 16.2783913,8.10147947 C16.8785164,8.00145864 16.9785372,8.00145864 16.9785372,7.1012711 L16.9785372,5.5009377 C16.9785372,5.20087518 16.9785372,4.90081267 16.8785164,4.70077099 C16.7784955,4.50072932 16.478433,4.30068764 16.2783913,4.30068764 C15.878308,4.30068764 15.278183,4.50072932 14.8780996,4.90081267 C14.7780788,5.00083351 14.6780579,5.10085434 14.6780579,5.40091686 L14.6780579,7.20129194 L14.7780788,7.20129194 C14.7780788,8.10147947 14.8780996,8.10147947 15.3782038,8.20150031 C15.4782246,8.30152115 15.4782246,8.50156283 15.3782038,8.60158366 L13.0777245,8.60158366 L13.047774,8.55892188 C13.0382304,8.61345155 13.0148736,8.6644346 12.9777037,8.7016045 L11.3773703,8.7016045 L11.3773703,8.60158366 C11.3773703,8.50156283 11.2773494,8.30152115 10.8772661,7.80141696 L10.0770994,6.70118775 C9.97707856,6.50114607 9.87705772,6.40112523 9.77703688,6.3011044 C9.67701605,6.3011044 9.47697437,6.20108356 9.27693269,6.20108356 L9.27693269,7.1012711 C9.27693269,8.00145864 9.37695353,8.00145864 9.87705772,8.10147947 C9.97707856,8.20150031 9.97707856,8.40154199 9.87705772,8.50156283 L7.67659929,8.50156283 C7.57657845,8.40154199 7.57657845,8.20150031 7.67659929,8.10147947 C8.27672432,8.10147947 8.37674516,8.00145864 8.37674516,7.1012711 L8.37674516,2.50031257 C8.37674516,1.60012503 8.27672432,1.60012503 7.67659929,1.60012503 C7.57657845,1.50010419 7.57657845,1.40008335 7.57657845,1.30006251 C7.9766618,1.30006251 8.77682851,1.10002084 9.07689102,1 C9.16024172,1 9.1741335,1 9.1764488,1.05788243 Z M19.7791207,4.60075016 C20.179204,4.10064597 20.779329,3.80058345 21.4794749,3.80058345 C23.1798291,3.80058345 23.7799542,5.10085434 23.7799542,6.20108356 C23.7799542,6.90122942 23.5799125,7.50135445 23.0798083,8.00145864 C22.6797249,8.40154199 22.1796208,8.60158366 21.4794749,8.60158366 C19.9791623,8.60158366 19.1789956,7.40133361 19.1789956,6.3011044 C19.1789956,5.70097937 19.3790373,5.00083351 19.7791207,4.60075016 Z M20.0791832,6.10106272 C20.0791832,6.90122942 20.4792665,8.30152115 21.5794957,8.30152115 C22.0795999,8.30152115 22.7797458,8.00145864 22.7797458,6.60116691 C22.7797458,5.00083351 22.1796208,4.20066681 21.2794332,4.20066681 C20.3792457,4.20066681 20.0791832,5.20087518 20.0791832,6.10106272 Z M34.6822255,3.90060429 C34.7822463,4.00062513 34.7822463,4.20066681 34.6822255,4.30068764 C34.0821004,4.30068764 34.0821004,4.50072932 34.2821421,5.00083351 L35.1823297,7.40133361 C35.2823505,7.60137529 35.2823505,7.60137529 35.3823713,7.40133361 L36.2825589,5.20087518 C36.4826005,4.80079183 36.5826214,4.50072932 35.7824547,4.50072932 C35.6824338,4.40070848 35.6824338,4.20066681 35.7824547,4.10064597 L37.6828506,4.10064597 C37.7828714,4.20066681 37.7828714,4.40070848 37.6828506,4.50072932 C37.0827256,4.50072932 36.9827047,4.80079183 36.7826631,5.30089602 L35.3823713,8.7016045 C35.2823505,8.90164618 35.1823297,8.90164618 35.1823297,8.90164618 C35.0823088,8.90164618 34.982288,8.80162534 34.8822671,8.7016045 L33.7820379,6.00104188 L32.6818087,8.7016045 C32.5817879,8.90164618 32.481767,8.90164618 32.3817462,8.90164618 C32.2817254,8.90164618 32.1817045,8.80162534 32.0816837,8.7016045 L30.681392,5.20087518 C30.4813503,4.60075016 30.3813294,4.50072932 29.7812044,4.50072932 C29.6811836,4.40070848 29.6811836,4.20066681 29.7812044,4.10064597 L31.881642,4.10064597 C31.9816628,4.20066681 31.9816628,4.40070848 31.881642,4.50072932 C31.3815378,4.30068764 31.3815378,4.50072932 31.5815795,5.00083351 L32.481767,7.20129194 C32.5817879,7.60137529 32.6818087,7.50135445 32.7818295,7.20129194 L33.5819962,5.30089602 L33.4819754,5.10085434 C33.2819337,4.60075016 33.1819129,4.30068764 32.6818087,4.30068764 C32.5817879,4.20066681 32.5817879,4.00062513 32.6818087,3.90060429 L34.6822255,3.90060429 Z M25.8803917,1.10002084 L25.8803917,6.00104188 C26.0804334,6.00104188 26.3804959,5.80100021 26.5805376,5.70097937 C26.8806001,5.5009377 27.1806626,5.10085434 27.4807252,4.80079183 C27.580746,4.70077099 27.8808085,4.30068764 27.2806835,4.20066681 C27.1806626,4.10064597 27.1806626,3.90060429 27.2806835,3.80058345 L29.2811002,3.80058345 C29.3811211,3.90060429 29.3811211,4.10064597 29.2811002,4.20066681 C28.8810169,4.20066681 28.4809335,4.30068764 28.180871,4.70077099 L27.2806835,5.70097937 L27.2806835,5.80100021 C27.2806835,5.90102105 27.2806835,5.90102105 27.3807043,6.00104188 L28.780996,7.80141696 C29.0810586,8.20150031 29.3811211,8.20150031 29.6811836,8.30152115 C29.7812044,8.40154199 29.7812044,8.60158366 29.6811836,8.7016045 L28.0808502,8.7016045 L28.0808502,8.60158366 C28.0808502,8.50156283 27.9808293,8.30152115 27.580746,7.80141696 L26.7805793,6.70118775 C26.6805584,6.50114607 26.5805376,6.40112523 26.4805168,6.3011044 C26.3804959,6.3011044 26.1804543,6.20108356 25.9804126,6.20108356 L25.9804126,7.1012711 C25.9804126,8.00145864 26.0804334,8.00145864 26.5805376,8.10147947 C26.6805584,8.20150031 26.6805584,8.40154199 26.5805376,8.50156283 L24.3800792,8.50156283 C24.2800583,8.40154199 24.2800583,8.20150031 24.3800792,8.10147947 C24.9802042,8.10147947 25.080225,8.00145864 25.080225,7.1012711 L25.080225,2.50031257 C25.080225,1.60012503 24.9802042,1.60012503 24.3800792,1.60012503 C24.2800583,1.50010419 24.2800583,1.40008335 24.2800583,1.30006251 C24.6801417,1.30006251 25.4803084,1.10002084 25.7803709,1 C25.8803917,1 25.8803917,1 25.8803917,1.10002084 Z M42.0837675,7.70139612 C41.6836841,8.30152115 41.0835591,8.60158366 40.2833924,8.60158366 C39.4832257,8.60158366 38.9831215,8.30152115 38.5830381,7.9014378 C38.1829548,7.50135445 38.0829339,6.90122942 38.0829339,6.3011044 C38.0829339,4.70077099 39.283184,3.80058345 40.2833924,3.80058345 C41.7837049,3.80058345 42.0837675,4.80079183 42.0837675,5.70097937 C42.0837675,5.80100021 41.9837466,5.90102105 41.8837258,5.90102105 L38.9831215,5.90102105 C38.9831215,6.50114607 39.0831423,7.00125026 39.283184,7.40133361 C39.5832465,7.9014378 40.0833507,8.20150031 40.483434,8.20150031 C41.0835591,8.20150031 41.3836216,8.00145864 41.7837049,7.60137529 C41.9837466,7.60137529 41.9837466,7.60137529 42.0837675,7.70139612 Z M40.9835382,5.5009377 C41.0835591,5.5009377 41.1835799,5.40091686 41.1835799,5.30089602 C41.1835799,4.40070848 40.6834757,4.20066681 40.2833924,4.20066681 C39.9833299,4.20066681 39.283184,4.30068764 39.0831423,5.5009377 L40.9835382,5.5009377 Z M52.9860388,3.90060429 C53.7862055,3.90060429 54.5863722,4.20066681 54.5863722,5.70097937 L54.5863722,7.30131277 C54.5863722,7.80141696 54.5863722,8.20150031 54.8864347,8.20150031 C54.9864555,8.20150031 55.1864972,8.10147947 55.286518,8.00145864 C55.3865389,8.10147947 55.4865597,8.20150031 55.4865597,8.30152115 C55.286518,8.50156283 54.8864347,8.7016045 54.4863513,8.7016045 C54.086268,8.7016045 53.9862471,8.40154199 53.8862263,8.00145864 L53.6861846,8.20150031 C53.1860804,8.60158366 52.8860179,8.7016045 52.4859346,8.7016045 C51.6857679,8.7016045 51.0856428,8.40154199 51.0856428,7.50135445 C51.0856428,6.80120859 51.7857887,6.20108356 52.8860179,5.90102105 L53.7862055,5.70097937 L53.8862263,5.60095853 C53.8862263,4.40070848 53.3861221,4.20066681 52.9860388,4.20066681 C52.5859554,4.20066681 52.0858512,4.30068764 52.0858512,4.70077099 L52.0858512,5.10085434 C52.0858512,5.20087518 51.8858095,5.5009377 51.585747,5.5009377 C51.3857054,5.5009377 51.1856637,5.40091686 51.1856637,5.10085434 C51.1856637,4.50072932 52.0858512,3.90060429 52.9860388,3.90060429 Z M51.3857054,1.40008335 C51.4857262,1.50010419 51.4857262,1.70014586 51.3857054,1.8001667 C50.8856012,1.8001667 50.6855595,1.90018754 50.385497,2.50031257 L49.0852261,4.80079183 C48.9137618,5.05798827 48.8892669,5.24170001 48.8857676,5.47790083 L48.8851844,7.1012711 C48.7851636,8.10147947 48.9852053,8.20150031 49.8853928,8.20150031 C49.9854136,8.30152115 49.9854136,8.50156283 49.8853928,8.60158366 L46.8847677,8.60158366 C46.7847468,8.50156283 46.7847468,8.30152115 46.8847677,8.20150031 C47.7375769,8.20150031 47.872231,8.11173092 47.8840428,7.3368793 L47.884976,5.80100021 C47.884976,5.40091686 47.884976,5.30089602 47.6849344,5.00083351 L46.2846426,2.6003334 C45.8845593,2.00020838 45.6845176,1.90018754 45.2844343,1.90018754 C45.1844134,1.8001667 45.1844134,1.60012503 45.2844343,1.50010419 L47.5849135,1.50010419 C47.6849344,1.60012503 47.6849344,1.8001667 47.5849135,1.90018754 C46.9847885,1.90018754 46.9847885,2.00020838 47.1848302,2.50031257 L48.4851011,4.70077099 C48.5851219,4.90081267 48.5851219,4.90081267 48.6851427,4.70077099 L49.8853928,2.40029173 C50.0854345,2.00020838 49.9854136,1.90018754 49.4853094,1.8001667 C49.3852886,1.70014586 49.3852886,1.50010419 49.4853094,1.40008335 L51.3857054,1.40008335 Z M53.9862471,6.10106272 L53.0860596,6.3011044 C52.2858929,6.50114607 52.0858512,7.00125026 52.0858512,7.50135445 C52.0858512,7.80141696 52.2858929,8.30152115 52.8860179,8.30152115 C53.1860804,8.30152115 53.5861638,8.10147947 53.7862055,7.80141696 C53.8862263,7.70139612 53.9862471,7.70139612 53.9862471,7.50135445 L53.9862471,6.10106272 Z M59.1873307,3.90060429 C59.4873932,3.90060429 59.7874557,3.90060429 60.1875391,3.90060429 C60.4876016,3.90060429 60.6876433,3.90060429 60.9877058,3.90060429 C61.0877266,4.00062513 61.0877266,4.20066681 60.9877058,4.30068764 C60.3875807,4.40070848 60.2875599,4.60075016 60.0875182,5.10085434 L58.6872265,8.50156283 C58.5872057,8.7016045 58.4871848,8.7016045 58.387164,8.7016045 C58.2871432,8.7016045 58.1871223,8.60158366 58.0871015,8.50156283 L56.6868098,5.10085434 C56.4867681,4.60075016 56.3867472,4.40070848 55.7866222,4.30068764 C55.6866014,4.20066681 55.6866014,4.00062513 55.7866222,3.90060429 C56.0866847,3.90060429 56.3867472,3.90060429 56.7868306,3.90060429 C57.1869139,3.90060429 57.4869765,3.90060429 57.8870598,3.90060429 C57.9870806,4.00062513 57.9870806,4.20066681 57.8870598,4.30068764 C57.2869348,4.40070848 57.3869556,4.50072932 57.5869973,5.00083351 L58.387164,7.1012711 C58.5872057,7.60137529 58.5872057,7.60137529 58.7872473,7.1012711 L59.6874349,5.00083351 C59.8874766,4.50072932 59.8874766,4.30068764 59.2873515,4.30068764 C59.0873099,4.20066681 59.0873099,4.00062513 59.1873307,3.90060429 Z M63.7882892,8.20150031 C63.8883101,8.30152115 63.8883101,8.50156283 63.7882892,8.60158366 C63.3882059,8.60158366 62.9881225,8.60158366 62.5880392,8.60158366 C62.1879558,8.60158366 61.6878516,8.60158366 61.3877891,8.60158366 C61.2877683,8.50156283 61.2877683,8.30152115 61.3877891,8.20150031 C62.087935,8.10147947 62.1879558,8.10147947 62.1879558,7.20129194 L62.1879558,5.10085434 C62.1879558,4.50072932 62.087935,4.40070848 61.48781,4.40070848 C61.48781,4.30068764 61.48781,4.20066681 61.48781,4.10064597 C62.1879558,4.00062513 62.68806,3.90060429 62.9881225,3.80058345 C63.0881434,3.80058345 63.0881434,3.80058345 63.0881434,3.90060429 C63.0881434,3.90060429 63.0881434,4.60075016 63.0881434,5.10085434 L63.0881434,7.20129194 C62.9881225,8.10147947 63.0881434,8.20150031 63.7882892,8.20150031 Z M62.5880392,1.60012503 C62.8881017,1.60012503 63.0881434,1.90018754 63.0881434,2.20025005 C63.0881434,2.40029173 62.7880809,2.70035424 62.4880183,2.70035424 C62.1879558,2.70035424 61.9879141,2.40029173 61.9879141,2.10022921 C61.9879141,1.8001667 62.2879767,1.60012503 62.5880392,1.60012503 Z M71.7899562,3.80058345 C71.8733069,3.80058345 71.8871987,3.80058345 71.889514,3.85846588 L71.8899771,7.40133361 C71.8899771,9.40175036 71.5899146,10.2019171 71.0898104,10.6020004 C70.689727,10.9020629 70.089602,11.0020838 69.8895603,11.0020838 C69.6895186,11.0020838 69.2894353,10.8020421 69.2894353,10.5019796 C69.2894353,10.3019379 69.489477,10.1018962 69.5894978,10.1018962 C69.7895395,10.1018962 69.9895812,10.3019379 70.089602,10.4019587 C70.1896228,10.5019796 70.2896437,10.5019796 70.3896645,10.5019796 C70.868025,10.5019796 70.9803358,9.31231774 70.9891977,7.89586419 L70.9897895,5.10085434 C70.9897895,4.50072932 70.8897687,4.50072932 70.2896437,4.40070848 L70.2896437,4.10064597 C70.9897895,4.00062513 71.4898937,3.90060429 71.7899562,3.80058345 Z M67.6891019,3.80058345 C68.0891852,3.80058345 68.3892478,3.90060429 68.5892894,4.20066681 C68.7893311,4.50072932 68.8893519,5.10085434 68.8893519,5.60095853 L68.8893519,7.20129194 C68.8893519,8.10147947 68.9893728,8.10147947 69.5894978,8.20150031 C69.6895186,8.30152115 69.6895186,8.50156283 69.5894978,8.60158366 L67.3890394,8.60158366 C67.2890185,8.50156283 67.2890185,8.30152115 67.3890394,8.20150031 C67.9891644,8.10147947 68.0891852,8.10147947 68.0891852,7.20129194 L68.0891852,5.60095853 C68.0891852,5.30089602 68.0891852,5.00083351 67.9891644,4.80079183 C67.8891436,4.60075016 67.5890811,4.40070848 67.3890394,4.40070848 C66.988956,4.40070848 66.4888518,4.60075016 66.0887685,5.00083351 C65.9887477,5.10085434 65.8887268,5.20087518 65.8887268,5.5009377 L65.8887268,7.30131277 C65.8887268,8.20150031 65.9887477,8.20150031 66.5888727,8.30152115 C66.6888935,8.40154199 66.6888935,8.60158366 66.5888727,8.7016045 L64.2883934,8.7016045 C64.1883726,8.60158366 64.1883726,8.40154199 64.2883934,8.30152115 C64.8885184,8.20150031 65.0885601,8.20150031 65.0885601,7.30131277 L65.0885601,5.20087518 C65.0885601,4.60075016 64.9885393,4.50072932 64.3884143,4.50072932 L64.3884143,4.20066681 C65.0885601,4.10064597 65.3886226,4.00062513 65.6886851,3.90060429 C65.788706,3.90060429 65.788706,3.90060429 65.788706,4.00062513 C65.8887268,4.10064597 65.8887268,4.50072932 65.8887268,4.80079183 C65.8887268,4.90081267 65.9887477,4.90081267 65.9887477,4.80079183 C66.5888727,4.00062513 67.1889977,3.80058345 67.6891019,3.80058345 Z M71.3898729,1.60012503 C71.6899354,1.60012503 71.8899771,1.90018754 71.8899771,2.20025005 C71.8899771,2.40029173 71.5899146,2.70035424 71.2898521,2.70035424 C70.9897895,2.70035424 70.7897479,2.40029173 70.7897479,2.10022921 C70.8897687,1.8001667 71.1898312,1.60012503 71.3898729,1.60012503 Z M77.0910606,7.70139612 C76.6909773,8.30152115 76.0908523,8.60158366 75.2906856,8.60158366 C74.4905189,8.60158366 73.9904147,8.30152115 73.5903313,7.9014378 C73.190248,7.50135445 73.0902271,6.90122942 73.0902271,6.3011044 C73.0902271,4.70077099 74.2904772,3.80058345 75.2906856,3.80058345 C76.7909981,3.80058345 77.0910606,4.80079183 77.0910606,5.70097937 C77.0910606,5.80100021 76.9910398,5.90102105 76.891019,5.90102105 L73.9904147,5.90102105 C73.9904147,6.50114607 74.0904355,7.00125026 74.2904772,7.40133361 C74.5905397,7.9014378 75.0906439,8.20150031 75.4907272,8.20150031 C76.0908523,8.20150031 76.3909148,8.00145864 76.7909981,7.60137529 C76.9910398,7.60137529 77.0910606,7.60137529 77.0910606,7.70139612 Z M75.9908314,5.5009377 C76.0908523,5.5009377 76.1908731,5.40091686 76.1908731,5.30089602 C76.1908731,4.40070848 75.6907689,4.20066681 75.2906856,4.20066681 C74.990623,4.20066681 74.2904772,4.30068764 74.0904355,5.5009377 L75.9908314,5.5009377 Z M78.5913732,2.50031257 C78.5913732,1.70014586 78.4913524,1.70014586 77.8912273,1.60012503 C77.7912065,1.50010419 77.7912065,1.40008335 77.7912065,1.30006251 C78.1912899,1.30006251 78.9914566,1.10002084 79.2915191,1 C79.3915399,1 79.3915399,1 79.3915399,1.10002084 C79.3915399,1.10002084 79.3915399,1.50010419 79.3915399,2.20025005 L79.3915399,7.20129194 C79.3915399,8.10147947 79.4915607,8.10147947 80.1917066,8.20150031 C80.2917274,8.30152115 80.2917274,8.50156283 80.1917066,8.60158366 C79.7916233,8.60158366 79.3915399,8.60158366 78.9914566,8.60158366 C78.5913732,8.60158366 78.1912899,8.60158366 77.7912065,8.60158366 C77.6911857,8.50156283 77.6911857,8.30152115 77.7912065,8.20150031 C78.4913524,8.20150031 78.5913732,8.10147947 78.5913732,7.20129194 L78.5913732,2.50031257 L78.5913732,2.50031257 Z M81.3919567,7.20129194 L81.3919567,5.10085434 C81.3919567,4.40070848 81.191915,4.30068764 80.6918108,4.20066681 C80.59179,4.10064597 80.59179,3.90060429 80.6918108,3.80058345 C81.0918941,3.80058345 81.4919775,3.80058345 81.79204,3.80058345 C81.9920817,3.80058345 82.0921025,3.80058345 82.1921234,3.80058345 C82.2921442,3.80058345 82.2921442,3.80058345 82.2921442,3.90060429 C82.2921442,3.90060429 82.2921442,4.70077099 82.2921442,5.00083351 L82.2921442,7.00125026 C82.2921442,8.00145864 82.7922484,8.10147947 83.1923317,8.10147947 C83.4923942,8.10147947 83.8924776,7.9014378 84.292561,7.60137529 C84.4926026,7.50135445 84.4926026,7.40133361 84.4926026,7.20129194 L84.4926026,5.10085434 C84.4926026,4.40070848 84.3925818,4.30068764 83.7924568,4.20066681 C83.6924359,4.10064597 83.6924359,3.90060429 83.7924568,3.80058345 C84.1925401,3.80058345 84.5926235,3.80058345 84.892686,3.80058345 C85.0927277,3.80058345 85.1927485,3.80058345 85.2927693,3.80058345 C85.3927902,3.80058345 85.3927902,3.80058345 85.3927902,3.90060429 C85.3927902,3.90060429 85.3927902,4.70077099 85.3927902,5.00083351 L85.3927902,7.1012711 C85.3927902,7.60137529 85.492811,7.80141696 86.1929569,7.9014378 C86.2929777,8.00145864 86.2929777,8.10147947 86.1929569,8.20150031 C85.492811,8.30152115 85.1927485,8.40154199 84.892686,8.60158366 C84.7926651,8.60158366 84.7926651,8.60158366 84.6926443,8.60158366 C84.6926443,8.60158366 84.5926235,8.20150031 84.5926235,8.00145864 C84.5926235,7.9014378 84.4926026,7.9014378 84.3925818,8.00145864 C83.8924776,8.40154199 83.3923734,8.60158366 82.8922692,8.60158366 C81.6920192,8.7016045 81.3919567,7.9014378 81.3919567,7.20129194 Z M96.595124,3.90060429 C97.3952907,3.90060429 98.1954574,4.20066681 98.1954574,5.70097937 L98.1954574,7.30131277 C98.1954574,7.80141696 98.1954574,8.20150031 98.4955199,8.20150031 C98.5955407,8.20150031 98.7955824,8.10147947 98.8956033,8.00145864 C98.9956241,8.10147947 99.0956449,8.20150031 99.0956449,8.30152115 C98.8956033,8.50156283 98.4955199,8.7016045 98.0954365,8.7016045 C97.6953532,8.7016045 97.5953324,8.40154199 97.4953115,8.00145864 L97.2952698,8.20150031 C96.7951657,8.60158366 96.4951031,8.7016045 96.0950198,8.7016045 C95.2948531,8.7016045 94.6947281,8.40154199 94.6947281,7.50135445 C94.6947281,6.80120859 95.3948739,6.20108356 96.4951031,5.90102105 L97.3952907,5.70097937 L97.4953115,5.60095853 C97.4953115,4.40070848 96.9952073,4.20066681 96.595124,4.20066681 C96.1950406,4.20066681 95.6949364,4.30068764 95.6949364,4.70077099 L95.6949364,5.10085434 C95.6949364,5.20087518 95.4948948,5.5009377 95.1948323,5.5009377 C94.9947906,5.5009377 94.7947489,5.40091686 94.7947489,5.10085434 C94.7947489,4.50072932 95.6949364,3.90060429 96.595124,3.90060429 Z M94.9947906,1.40008335 C95.0948114,1.50010419 95.0948114,1.70014586 94.9947906,1.8001667 C94.4946864,1.8001667 94.2946447,1.90018754 93.9945822,2.50031257 L92.6943113,4.80079183 C92.522847,5.05798827 92.4983521,5.24170001 92.4948529,5.47790083 L92.4942696,7.1012711 C92.4942696,8.10147947 92.6943113,8.20150031 93.494478,8.20150031 C93.5944989,8.30152115 93.5944989,8.50156283 93.494478,8.60158366 L90.4938529,8.60158366 C90.393832,8.50156283 90.393832,8.30152115 90.4938529,8.20150031 C91.3940404,8.20150031 91.4940613,8.10147947 91.4940613,7.20129194 L91.4940613,5.80100021 C91.4940613,5.40091686 91.4940613,5.30089602 91.2940196,5.00083351 L89.8937279,2.6003334 C89.4936445,2.00020838 89.2936028,1.90018754 88.8935195,1.90018754 C88.7934986,1.8001667 88.7934986,1.60012503 88.8935195,1.50010419 L91.1939987,1.50010419 C91.2940196,1.60012503 91.2940196,1.8001667 91.1939987,1.90018754 C90.5938737,1.90018754 90.5938737,2.00020838 90.7939154,2.50031257 L92.0941863,4.70077099 C92.1942071,4.90081267 92.1942071,4.90081267 92.294228,4.70077099 L93.494478,2.40029173 C93.6945197,2.00020838 93.5944989,1.90018754 93.0943947,1.8001667 C92.9943738,1.70014586 92.9943738,1.50010419 93.0943947,1.40008335 L94.9947906,1.40008335 Z M97.5953324,6.10106272 L96.6951448,6.3011044 C95.8949781,6.50114607 95.6949364,7.00125026 95.6949364,7.50135445 C95.6949364,7.80141696 95.8949781,8.30152115 96.4951031,8.30152115 C96.7951657,8.30152115 97.195249,8.10147947 97.3952907,7.80141696 C97.4953115,7.70139612 97.5953324,7.70139612 97.5953324,7.50135445 L97.5953324,6.10106272 Z M100.295895,7.20129194 L100.295895,5.10085434 C100.295895,4.40070848 100.095853,4.30068764 99.5957491,4.20066681 C99.4957283,4.10064597 99.4957283,3.90060429 99.5957491,3.80058345 C99.9958325,3.80058345 100.395916,3.80058345 100.695978,3.80058345 C100.89602,3.80058345 100.996041,3.80058345 101.096062,3.80058345 C101.196083,3.80058345 101.196083,3.80058345 101.196083,3.90060429 C101.196083,3.90060429 101.196083,4.70077099 101.196083,5.00083351 L101.196083,7.00125026 C101.196083,8.00145864 101.696187,8.10147947 102.09627,8.10147947 C102.396333,8.10147947 102.796416,7.9014378 103.196499,7.60137529 C103.396541,7.50135445 103.396541,7.40133361 103.396541,7.20129194 L103.396541,5.10085434 C103.396541,4.40070848 103.29652,4.30068764 102.696395,4.20066681 C102.596374,4.10064597 102.596374,3.90060429 102.696395,3.80058345 C103.096478,3.80058345 103.496562,3.80058345 103.796624,3.80058345 C103.996666,3.80058345 104.096687,3.80058345 104.196708,3.80058345 C104.296728,3.80058345 104.296728,3.80058345 104.296728,3.90060429 C104.296728,3.90060429 104.296728,4.70077099 104.296728,5.00083351 L104.296728,7.1012711 C104.296728,7.60137529 104.396749,7.80141696 105.096895,7.9014378 C105.196916,8.00145864 105.196916,8.10147947 105.096895,8.20150031 C104.396749,8.30152115 104.096687,8.40154199 103.796624,8.60158366 C103.696603,8.60158366 103.696603,8.60158366 103.596583,8.60158366 C103.596583,8.60158366 103.496562,8.20150031 103.496562,8.00145864 C103.496562,7.9014378 103.396541,7.9014378 103.29652,8.00145864 C102.796416,8.40154199 102.296312,8.60158366 101.796208,8.60158366 C100.595957,8.7016045 100.295895,7.9014378 100.295895,7.20129194 Z M106.097104,2.50031257 C106.097104,1.70014586 105.997083,1.70014586 105.396958,1.60012503 C105.296937,1.50010419 105.296937,1.40008335 105.296937,1.30006251 C105.69702,1.30006251 106.497187,1.10002084 106.797249,1 C106.89727,1 106.89727,1 106.89727,1.10002084 C106.89727,1.10002084 106.89727,1.50010419 106.89727,2.20025005 L106.89727,7.20129194 C106.89727,8.10147947 106.997291,8.10147947 107.697437,8.20150031 C107.797458,8.30152115 107.797458,8.50156283 107.697437,8.60158366 C107.297354,8.60158366 106.89727,8.60158366 106.497187,8.60158366 C106.097104,8.60158366 105.69702,8.60158366 105.296937,8.60158366 C105.196916,8.50156283 105.196916,8.30152115 105.296937,8.20150031 C105.997083,8.20150031 106.097104,8.10147947 106.097104,7.20129194 L106.097104,2.50031257 L106.097104,2.50031257 Z M112.298395,7.70139612 C111.898312,8.30152115 111.298187,8.60158366 110.49802,8.60158366 C109.697854,8.60158366 109.19775,8.30152115 108.797666,7.9014378 C108.397583,7.50135445 108.297562,6.90122942 108.297562,6.3011044 C108.297562,4.70077099 109.497812,3.80058345 110.49802,3.80058345 C111.998333,3.80058345 112.298395,4.80079183 112.298395,5.70097937 C112.298395,5.80100021 112.198375,5.90102105 112.098354,5.90102105 L109.19775,5.90102105 C109.19775,6.50114607 109.29777,7.00125026 109.497812,7.40133361 C109.797875,7.9014378 110.297979,8.20150031 110.698062,8.20150031 C111.298187,8.20150031 111.59825,8.00145864 111.998333,7.60137529 C112.198375,7.60137529 112.298395,7.60137529 112.298395,7.70139612 Z M111.198166,5.5009377 C111.298187,5.5009377 111.398208,5.40091686 111.398208,5.30089602 C111.398208,4.40070848 110.898104,4.20066681 110.49802,4.20066681 C110.197958,4.20066681 109.497812,4.30068764 109.29777,5.5009377 L111.198166,5.5009377 Z M113.698687,2.50031257 C113.698687,1.70014586 113.598666,1.70014586 112.998541,1.60012503 C112.898521,1.50010419 112.898521,1.40008335 112.898521,1.30006251 C113.298604,1.30006251 114.098771,1.10002084 114.398833,1 C114.498854,1 114.498854,1 114.498854,1.10002084 C114.498854,1.10002084 114.498854,1.50010419 114.498854,2.20025005 L114.498854,7.20129194 C114.498854,8.10147947 114.598875,8.10147947 115.299021,8.20150031 C115.399041,8.30152115 115.399041,8.50156283 115.299021,8.60158366 C114.898937,8.60158366 114.498854,8.60158366 114.098771,8.60158366 C113.698687,8.60158366 113.298604,8.60158366 112.898521,8.60158366 C112.7985,8.50156283 112.7985,8.30152115 112.898521,8.20150031 C113.598666,8.20150031 113.698687,8.10147947 113.698687,7.20129194 L113.698687,2.50031257 L113.698687,2.50031257 Z M120,7.70139612 C119.599917,8.30152115 118.999792,8.60158366 118.199625,8.60158366 C117.399458,8.60158366 116.899354,8.30152115 116.499271,7.9014378 C116.099187,7.50135445 115.999166,6.90122942 115.999166,6.3011044 C115.999166,4.70077099 117.199417,3.80058345 118.199625,3.80058345 C119.699937,3.80058345 120,4.80079183 120,5.70097937 C120,5.80100021 119.899979,5.90102105 119.799958,5.90102105 L116.899354,5.90102105 C116.899354,6.50114607 116.999375,7.00125026 117.199417,7.40133361 C117.499479,7.9014378 117.999583,8.20150031 118.399667,8.20150031 C118.999792,8.20150031 119.299854,8.00145864 119.699937,7.60137529 C119.899979,7.60137529 119.899979,7.60137529 120,7.70139612 Z M118.899771,5.5009377 C118.999792,5.5009377 119.099812,5.40091686 119.099812,5.30089602 C119.099812,4.40070848 118.599708,4.20066681 118.199625,4.20066681 C117.899562,4.20066681 117.199417,4.30068764 116.999375,5.5009377 L118.899771,5.5009377 Z" id="tum-tagline" stroke="#000000" stroke-width="0.1" fill="#000000" fill-rule="nonzero"></path>
    </g>
</svg>