<svg xmlns="http://www.w3.org/2000/svg" width="120" height="11"><path fill="#000" fill-rule="nonzero" d="m69.133 3.244-.911 3.918c-.099.398-.149.721-.149.844 0 .138.138.175.162.175.137 0 .337-.273.662-.758l.287.199c-.126.211-.25.398-.375.56-.075.198-.125.41-.125.596 0 .224.026.385.05.522.037.162.062.312.062.499 0 .335-.125.733-1.299 1.193l-.137-.348c.362-.175.711-.361.711-.733 0-.075-.012-.175-.012-.325 0-.286.075-.57.212-.906a1.07 1.07 0 0 1-.6.185c-.424 0-.537-.323-.537-.56 0-.148.039-.434.139-.782l.186-.697-.038-.024c-.885 1.292-1.372 2.063-2.482 2.063-.474 0-.836-.286-.836-.994 0-.237.037-.51.123-.834l.563-2.126c.113-.41.137-.621.137-.746 0-.136-.075-.174-.162-.174-.138 0-.374.236-.761.684l-.275-.212c.437-.596 1.136-1.18 1.7-1.181.425 0 .511.16.511.459 0 .237-.086.647-.199 1.07l-.537 2.051c-.088.337-.125.61-.125.809 0 .409.162.547.386.547.624 0 1.26-.933 2.184-2.5l.549-2.362c.137 0 .675-.061.936-.112Zm-13.695.001c1.16 0 1.76.895 1.76 1.966 0 1.703-1.411 3.68-3.233 3.68-.861 0-1.385-.435-1.385-.995 0-.485.362-.56.449-.56.112 0 .337.038.337.385v.139c0 .386.287.647.761.647 1.086 0 1.822-1.38 2.047-2.35-.287.149-.724.348-1.086.348-.512 0-.761-.337-1.173-.337-.137 0-.275.062-.362.062-.075 0-.062-.112-.05-.161.05-.188.624-.412 1.123-.412.525 0 .662.238 1.111.238.175 0 .35-.026.5-.088.024-.198.05-.41.05-.621 0-.771-.238-1.554-1.062-1.554-.936 0-1.335.708-1.672 1.467l-.3-.05c.188-.549.325-.97.512-1.655.811 0 .836-.149 1.673-.149Zm-44.824 0c1.136 0 1.36.535 1.36.895 0 .636-.699 1.008-2.146 1.506 1.26.062 1.56.994 1.56 1.517 0 .932-.999 1.728-2.334 1.728-1.298 0-1.935-.66-1.935-1.965 0-.957.35-1.816 1.036-2.562.7-.745 1.51-1.119 2.459-1.119Zm84.026 0c.027 0 .051 0 .051.038l-.375 1.48-.024.111.013.013c1.149-1.343 1.81-1.604 2.458-1.604.487 0 .836.248.836.994 0 .223-.076.51-.176.944l-.473 2.027c-.1.448-.126.61-.126.734 0 .125.051.224.138.224.187 0 .437-.237.86-.734l.289.236c-.724.883-1.262 1.156-1.723 1.156-.287 0-.561-.173-.561-.509 0-.25.036-.498.161-1.008l.488-2.026c.1-.424.137-.672.137-.846 0-.384-.188-.584-.45-.584-.447 0-1.035.424-1.983 1.68l-.71 3.02-.912.3-.062-.15.922-3.99c.051-.225.075-.373.075-.485 0-.212-.075-.274-.187-.286l-.524-.05.037-.3c.911-.136 1.436-.248 1.821-.385Zm-16.554 0c.026 0 .05 0 .05.038 0 0-.226.845-.375 1.48l-.213.946c.825-.013 1.312-.497 1.736-1.17.362-.584.91-1.256 1.523-1.256.4 0 .536.162.536.385 0 .41-.374.659-.611.659-.388 0-.287-.211-.575-.21-.124 0-.375.273-.598.659-.312.533-.712 1.055-1.287 1.142.675 0 1.099.262 1.223.87.087.473.325 1.543.787 1.605l.087.012c.063.013.125.025.125.1l-.062.236-.026.024-.86-.024c-.562-.013-.824-.895-.924-1.405-.125-.66-.275-1.12-1.173-1.207l-.55 2.462-.91.3-.062-.15.936-3.99c.05-.225.075-.373.075-.485 0-.212-.075-.274-.187-.286l-.524-.05.037-.3c.911-.136 1.435-.248 1.822-.385Zm-18.275 0c.025 0 .05 0 .05.038 0 0-.224.845-.374 1.48l-.187.856h2.22l.498-2.225c.138 0 .674-.062.936-.1l-.91 3.892c-.1.398-.15.72-.15.845 0 .138.138.175.163.175.174 0 .373-.273.71-.758l.238.198c-.45.784-.936 1.244-1.51 1.244-.437 0-.524-.323-.524-.56 0-.149.05-.435.112-.783l.325-1.442h-2.222l-.561 2.486-.911.3-.063-.15.937-3.99c.05-.225.075-.373.075-.485 0-.212-.075-.274-.187-.286l-.524-.05.037-.3c.911-.136 1.435-.248 1.822-.385ZM50.1 3.38l.012.025-.062.298c-.012.026-.025.038-.062.038h-.312c-.3 0-.325.112-.387.374l-.724 3.07c-.1.399-.15.722-.15.846 0 .138.137.175.162.175.175 0 .375-.273.712-.758l.237.198c-.45.784-.936 1.244-1.51 1.244-.437 0-.537-.323-.537-.56 0-.149.05-.435.125-.783l.274-1.23h-.374c-.5 0-.936.633-1.373 1.38-.287.51-.786 1.044-1.185 1.044l-.787.01-.037-.025.05-.236c.025-.088.1-.1.162-.1h.087c.375 0 .961-.87 1.261-1.342.312-.51.636-.772.998-.846-.499 0-1.31-.273-1.31-1.02 0-.074.012-.173.025-.273.225-.92 1.186-1.517 2.122-1.517l1.472.013 1.11-.025ZM23.348.061c-.461 1.32-1.235 1.792-2.259 1.891-1.073.1-1.435.423-1.959 1.206-.237.36-.45.87-.574 1.342.362-.521.973-1.256 2.072-1.256 1.26 0 1.71.858 1.71 1.854 0 1.977-1.524 3.792-3.183 3.792-.911 0-1.71-.56-1.71-1.965 0-1.816 1.46-5.67 3.882-5.87.973-.073 1.51-.347 1.772-.994h.25Zm96.639 3.32.013.024-.061.298c-.013.026-.026.038-.064.038h-.31c-.3 0-.325.112-.388.374l-.724 3.07c-.1.399-.148.722-.148.846 0 .138.137.175.16.175.176 0 .375-.273.712-.758l.237.198c-.449.784-.935 1.244-1.509 1.244-.438 0-.537-.323-.537-.56 0-.149.05-.435.124-.783l.275-1.23v-.004h-.376c-.5 0-.937.635-1.373 1.38-.287.51-.787 1.045-1.187 1.045l-.785.013-.037-.025.05-.236c.024-.088.1-.1.162-.1h.088c.374 0 .96-.87 1.26-1.342.313-.51.637-.772.999-.846-.5 0-1.31-.273-1.31-1.02 0-.074.011-.173.025-.273.224-.92 1.184-1.517 2.121-1.517l1.473.013 1.11-.025ZM35.43 3.244c.025 0 .05 0 .05.038 0 0-.225.845-.374 1.48l-.188.856h2.222l.499-2.225c.137 0 .674-.062.936-.1l-.911 3.892c-.1.398-.15.72-.15.845 0 .138.138.175.162.175.175 0 .375-.273.712-.758l.237.198c-.45.784-.936 1.244-1.51 1.244-.437 0-.524-.323-.524-.56 0-.149.05-.435.112-.783l.324-1.442h-2.221l-.562 2.486-.91.3-.063-.15.936-3.99c.05-.225.075-.373.075-.485 0-.212-.075-.274-.187-.286l-.524-.05.037-.3c.911-.136 1.435-.248 1.822-.385ZM29.323 0c.812.46 1.748.335 2.671 1.79.512.771.737 1.653.749 2.587 0 1.541-.624 2.983-1.398 3.68-.474.435-.948.833-1.872.833-1.098 0-1.547-.932-1.547-1.915 0-1.554.936-2.797 1.847-3.295.574-.31 1.073-.435 1.335-.435.3 0 .6.05.824.224.025-.112.025-.211.025-.31 0-1.381-.899-1.567-1.947-1.928-.587-.2-.749-.647-.749-1.044 0-.112.025-.187.05-.187h.012ZM104.8 0c.811.46 1.747.335 2.671 1.79.51.771.735 1.653.749 2.587 0 1.541-.624 2.983-1.399 3.68-.473.435-.947.833-1.871.833-1.098 0-1.548-.932-1.548-1.915 0-1.554.937-2.797 1.848-3.295.575-.31 1.074-.435 1.336-.435.3 0 .598.05.822.224.025-.112.025-.211.025-.31 0-1.381-.899-1.567-1.947-1.928-.587-.2-.748-.647-.748-1.044 0-.112.025-.187.05-.187h.012ZM42.342 3.283c.5 0 .662.037.999.074.25.062.575.024.873.024l-.861 3.867c-.05.237-.125.647-.125.758 0 .15.113.175.15.175.125 0 .362-.26.699-.72l.287.198c-.325.522-.924 1.206-1.598 1.206-.424 0-.511-.323-.511-.56 0-.148.037-.384.125-.683l.2-.647-.026-.025c-.749 1.107-1.485 1.915-2.146 1.915-1.049 0-1.21-.981-1.21-1.678 0-1.952 1.809-3.904 3.144-3.904Zm71.859-.039-.911 3.918c-.1.398-.15.721-.15.844 0 .138.137.175.162.175.137 0 .336-.273.66-.758l.289.199c-.45.783-.936 1.243-1.51 1.243-.425 0-.537-.323-.537-.56 0-.148.037-.434.137-.782l.187-.697-.037-.024c-.887 1.292-1.373 2.063-2.485 2.063-.473 0-.835-.286-.835-.994 0-.237.038-.51.125-.834l.562-2.126c.113-.41.138-.621.138-.746 0-.136-.075-.174-.163-.174-.138 0-.375.236-.762.684l-.273-.212c.436-.596 1.135-1.18 1.697-1.18.423 0 .512.161.512.458 0 .237-.089.647-.201 1.07l-.537 2.051c-.087.337-.124.61-.124.809 0 .409.162.547.386.547.624 0 1.26-.933 2.184-2.5l.549-2.362c.138 0 .675-.061.937-.112Zm-38.946 0-.911 3.918c-.1.398-.15.721-.15.844 0 .138.138.175.162.175.137 0 .337-.273.662-.758l.287.199c-.45.783-.935 1.243-1.51 1.243-.425 0-.537-.323-.537-.56 0-.148.039-.434.138-.782l.187-.697-.038-.024c-.886 1.292-1.374 2.063-2.483 2.063-.475 0-.836-.286-.836-.994 0-.237.037-.51.124-.834l.562-2.126c.113-.41.137-.621.137-.746 0-.136-.074-.174-.161-.174-.138 0-.375.236-.761.684l-.276-.212c.438-.596 1.137-1.18 1.698-1.18.426 0 .512.161.512.458 0 .237-.087.647-.2 1.07l-.536 2.051c-.089.337-.126.61-.126.809 0 .409.163.547.387.547.623 0 1.26-.933 2.183-2.5l.549-2.362c.138 0 .675-.061.937-.112Zm26.558.039c1.01 0 1.235.435 1.235.87 0 .472-.087 1.48-3.344 2.114-.013.1-.013.36-.014.423 0 1.13.474 1.578 1.037 1.578.598 0 1.01-.347 1.684-1.068.15 0 .212.061.275.198-.7.958-1.398 1.467-2.41 1.467-1.272 0-1.62-.834-1.62-1.89 0-1.579 1.022-3.692 3.157-3.692Zm-11.545 0c1.535 0 1.76 1.119 1.76 2.014 0 1.964-1.486 3.568-3.083 3.568-1.585 0-1.748-1.48-1.748-2.137 0-1.493.986-3.445 3.07-3.445ZM4.742.56c1.473 0 1.835.523 2.509.56-.075.671-.1 1.28-.112 1.927l-.362.05c-.1-1.068-.6-2.076-2.26-2.076-.948 0-2.845 1.044-3.344 3.568-.062.347-.1.708-.1 1.044 0 1.456.624 2.724 2.122 2.724 1.11 0 2.01-.386 3.045-1.356.137 0 .2.075.237.187-1.023 1.106-2.209 1.678-3.37 1.678C.937 8.865 0 7.398 0 5.745c0-.311.025-.61.087-.922C.562 2.373 2.758.56 4.742.56Zm10.513 2.724c1.535 0 1.76 1.119 1.76 2.014 0 1.964-1.486 3.568-3.083 3.568-1.585 0-1.748-1.48-1.748-2.137 0-1.493.986-3.445 3.07-3.445Zm10.468 0c1.535 0 1.76 1.119 1.76 2.014 0 1.964-1.485 3.568-3.082 3.568-1.585 0-1.748-1.48-1.748-2.137 0-1.493.986-3.445 3.07-3.445Zm61.298.099.024.025-.062.25c-.012.062-.037.086-.112.086h-.324c-.437 0-.512.111-.6.584l-.563 2.92c-.088.45-.112.611-.112.735 0 .125.037.224.124.224.187 0 .436-.237.862-.734l.287.236c-.738.883-1.262 1.156-1.724 1.156-.287 0-.56-.173-.56-.509 0-.25.049-.485.161-1.008l.624-2.858c.038-.15.051-.262.051-.35 0-.186-.1-.248-.388-.248h-.66c-.437 0-.562.373-.836 1.542-.238 1.018-.537 2.051-.787 2.535-.273.585-.686.896-1.16.896-.349 0-.65-.26-.65-.56 0-.024 0-.061.014-.086.049-.25.224-.448.46-.448.19 0 .301.15.301.323 0 .013 0 .038-.013.05-.013.162.026.286.126.286.111 0 .25-.124.4-.434.223-.424.484-1.17.784-2.475.163-.708.25-1.132.25-1.393 0-.335-.15-.385-.524-.385-.2 0-.249 0-.224-.111l.05-.224.036-.025s.725.025 1.199.025h2.26c.499 0 1.286-.025 1.286-.025ZM9.403 5.895c-.337 0-.699.098-1.135.272-.188.424-.188.958-.188 1.369 0 .944.587 1.106.961 1.106.787 0 1.298-.747 1.298-1.567 0-.535-.362-1.181-.936-1.18Zm11.012-2.24c-1.273 0-2.035 1.816-2.035 3.246 0 .957.362 1.591 1.086 1.591 1.16 0 1.897-1.815 1.897-3.307 0-.909-.3-1.53-.948-1.53Zm-5.385.039c-1.423 0-1.797 1.814-1.797 2.933 0 1.592.624 1.803 1.01 1.804 1.398 0 1.76-2.238 1.76-3.046 0-.796 0-1.691-.973-1.691Zm75.014 0c-1.423 0-1.798 1.814-1.798 2.933 0 1.592.624 1.803 1.01 1.804 1.4 0 1.761-2.238 1.761-3.046 0-.796 0-1.691-.973-1.691Zm-64.545 0c-1.423 0-1.797 1.814-1.797 2.933 0 1.592.624 1.803 1.01 1.804 1.398 0 1.76-2.238 1.76-3.046 0-.796 0-1.691-.973-1.691Zm5.322.024c-.836 0-1.86 1.132-1.872 3.12 0 .846.325 1.53.911 1.53 1.535 0 1.922-3.245 1.922-3.916 0-.585-.612-.734-.961-.734Zm75.478 0c-.836 0-1.86 1.132-1.872 3.12 0 .846.324 1.53.91 1.53 1.536 0 1.922-3.245 1.922-3.916 0-.585-.612-.734-.96-.734ZM42.38 3.667c-1.148 0-2.184 2.003-2.184 3.32 0 .696.125 1.194.55 1.194.399 0 1.36-1.044 1.971-2.164.312-.796.437-2.113.437-2.113a1.483 1.483 0 0 0-.774-.237Zm59.147 0c-.6 0-1.336.386-1.773 2.264.961-.075 2.422-.61 2.422-1.792 0-.36-.201-.472-.65-.472Zm-53.599.064c-1.073 0-1.572.696-1.672 1.144a.933.933 0 0 0-.037.261c0 .398.212.745.798.745h.924l.487-2.088a2.286 2.286 0 0 0-.5-.062Zm69.888 0c-1.072 0-1.573.696-1.672 1.144a.97.97 0 0 0-.038.261c0 .398.213.745.799.745h.924l.486-2.088a2.271 2.271 0 0 0-.499-.062ZM10.514 3.52c-.861 0-1.535.572-2.122 2.225 1.96-.473 2.709-.883 2.709-1.653 0-.175-.088-.573-.587-.572Z"/></svg>