<svg xmlns="http://www.w3.org/2000/svg" width="147" height="18"><path fill="#666" d="M71.393.852V3.85l4.157 5.065-4.157 4.725v2.998h10.698V13.57H75.96l3.634-3.93V8.12L76.06 3.975h9.953v12.662h4.202V3.976h3.742l.414-3.124H71.393ZM9.515 8.279c1.431-.363 2.885-1.34 2.885-3.362 0-3.02-2.703-4.065-7.018-4.065H.68v15.785h5.315c4.043 0 7.064-.976 7.064-4.633 0-2.521-1.795-3.362-3.544-3.725ZM5.768 3.782c1.658 0 2.362.431 2.362 1.567 0 1.204-.681 1.726-2.158 1.726h-1.09V3.782h.886Zm.25 9.857H4.882V9.778h1.363c1.544 0 2.476.545 2.476 1.976 0 1.567-1.113 1.885-2.703 1.885ZM18.37.852h-4.2v15.785h4.202V.852Zm6.081 0H20.25v15.785h4.201V.852Zm9.2 0h-4.384l-4.68 7.382 4.657 8.403h4.815l-5.156-8.744L33.65.852Zm4.911 0H34.36v15.785h4.202V.852Zm11.895 0H40.44v15.785h9.948v-2.975h-5.746v-3.589h4.702V7.19h-4.702V3.827h5.383l.432-2.975Zm13.859 0h-12.56v15.785h4.201V4.054h4.157v12.583h4.202V.852Zm6.062 0h-4.202v15.785h4.202V.852Zm32.979 15.785h4.202V.852h-4.202v5.973h-4.18V.852h-4.201v15.785h4.201v-6.564h4.18v6.564ZM124.364.852h-5.247l-1.907 10.47-2.113-10.47h-5.224l-1.158 15.785h4.134l.181-5.882c.068-2.158.023-3.975-.181-6.45l2.294 10.697h3.974l2.158-10.698c-.181 2.18-.136 4.338-.068 6.45l.205 5.883h4.133L124.364.852Zm6.582 0h-4.202v15.785h4.202V.852Zm8.489-.409c-4.588 0-7.223 3.157-7.223 8.29 0 5.247 2.635 8.313 7.223 8.313s7.245-3.18 7.245-8.313c0-5.247-2.657-8.29-7.245-8.29Zm0 3.02c1.953 0 2.862 1.454 2.862 5.27s-.886 5.292-2.862 5.292c-1.908 0-2.862-1.476-2.862-5.292s.931-5.27 2.862-5.27Z"/></svg>