<svg xmlns="http://www.w3.org/2000/svg" viewBox="0 0 117 13"><path d="m115.11 1.78-.881 1.408c-.093.154-.128.2-.128.33 0 .084.081.155.162.155.082 0 .174-.048.348-.225l1.334-1.29-.035-.13a.934.934 0 0 0-.638-.272.587.587 0 0 0-.162.024zm-1.693 4.601c.22-1.34 1.03-1.44 1.31-1.443.441 0 .963.248.963 1.242 0 .106-.046.166-.174.166l-2.1.035zm3.038 2.236c-.429.449-.765.639-1.438.638-.418 0-.905-.248-1.264-.851-.232-.39-.371-.934-.371-1.62l3.085.023c.139 0 .22-.071.22-.201 0-.994-.348-2.06-1.96-2.058-1.01 0-2.32.982-2.32 2.78 0 .662.163 1.3.546 1.75.394.473.939.757 1.774.757.881 0 1.51-.414 1.972-1.029-.035-.118-.104-.177-.244-.19zm-9.354-6.837a.776.776 0 0 0-.174-.024c-.394 0-.66.201-.753.272l-.024.13 1.323 1.29c.186.177.267.237.336.236.093 0 .174-.07.174-.13a.593.593 0 0 0-.07-.284l-.812-1.49zm.951 6.494V5.92c0-.591.047-1.35.047-1.348 0-.048-.058-.083-.151-.083-.336.13-.789.237-1.589.343-.023.07 0 .26.023.33.626.072.754.13.754.805v2.306c0 .982-.128 1.02-.835 1.077-.07.07-.07.319 0 .39.383-.012.835-.024 1.3-.024.463 0 .904.012 1.286.024.07-.07.07-.319 0-.39-.707-.048-.835-.095-.835-1.077zm-5.789-2.85c.302-.273.649-.379.986-.38.707 0 1.29.876 1.287 2.023 0 1.35-.533 2.37-1.635 2.366-.36 0-.603-.26-.835-.556V5.92c0-.248.046-.355.197-.497zm-.081-.368c-.081.071-.116.048-.116-.059V2.821c0-.77.046-1.24.046-1.242 0-.083-.046-.118-.15-.118-.29.118-1.16.284-1.624.32-.024.094 0 .283.07.354.602.035.741-.024.741.97v5.772c0 .46-.011.674-.046.84.058.094.116.142.255.142.07-.06.186-.177.267-.284.128-.142.197-.142.325-.024.255.225.603.284 1.02.284 1.18 0 2.56-1.1 2.563-2.98 0-1.44-1.04-2.33-2.053-2.33-.499 0-.939.2-1.298.531zm-8.03 3.23c0-.663.382-1.05 1.031-1.053.104 0 .5.07.592.07.267 0 .348-.13.348-.271 0-.142-.116-.248-.337-.249-.058 0-.58.06-.591.06-.5 0-.916-.26-.916-1.077 0-.78.522-.852.881-.852.452 0 .65.248.777.51.116.2.232.39.487.39.151 0 .371-.095.371-.438 0-.426-.673-.852-1.565-.852-1.37 0-1.77.852-1.775 1.325 0 .58.302.91.835 1.135v.024c-.835.296-1.06.923-1.055 1.372 0 .686.383 1.45 1.913 1.455.731 0 1.36-.343 1.74-.71a.29.29 0 0 0-.174-.248c-.452.319-.893.509-1.438.508-.638 0-1.12-.473-1.125-1.1zm-8.607-2.804c-.023-.343-.046-.769-.093-.899-.035-.047-.046-.094-.139-.094-.325.13-.626.237-1.427.343-.023.07 0 .26.024.33.626.06.754.119.753.805v2.307c0 .97-.15 1.03-.788 1.076-.07.07-.07.319 0 .39a31.257 31.257 0 0 1 2.412 0c.07-.07.07-.319 0-.39-.58-.06-.707-.106-.707-1.076v-1.94a.7.7 0 0 1 .197-.497c.452-.449.893-.698 1.252-.698.441 0 .765.284.766 1.076v2.058c0 .97-.093 1.03-.72 1.077-.057.07-.057.319 0 .39a27.362 27.362 0 0 1 2.32 0c.058-.07.058-.319 0-.39-.58-.048-.684-.106-.684-1.077v-1.88c0-.166 0-.331-.012-.473.557-.627 1.08-.781 1.531-.78.441 0 .696.26.696 1.052v2.082c0 .97-.116 1.03-.719 1.076-.058.07-.058.319 0 .39a30.168 30.168 0 0 1 2.377 0c.058-.07.058-.319 0-.39-.638-.048-.742-.106-.742-1.076v-1.87c0-1.05-.174-1.88-1.194-1.88-.603 0-1.31.225-1.914.875-.035.036-.104.095-.128 0-.116-.485-.557-.875-1.16-.875-.672 0-1.29.414-1.762.958-.058.071-.14.142-.14 0zM77.053 1.78a.776.776 0 0 0-.174-.024c-.394 0-.661.201-.754.272l-.024.13 1.323 1.29c.186.177.267.237.336.236.093 0 .174-.07.174-.13a.594.594 0 0 0-.07-.284l-.811-1.49zm-.024 8.055c.452 0 .997-.237 1.566-.71.058-.047.162-.07.174.012.023.308.128.698.128.698.092.035.139.035.22 0 .255-.213.66-.39 1.368-.473.07-.071.07-.248 0-.32-.742-.059-.847-.284-.846-.863V5.908c0-.355.046-1.22.046-1.218 0-.036-.035-.071-.093-.071a2.843 2.843 0 0 1-.406.023c-.37 0-.789-.011-1.182-.023-.07.07-.07.319 0 .39.568.035.719.177.719.958V8.25c0 .225-.024.319-.186.461-.429.378-.87.568-1.16.568-.348 0-.928-.166-.928-1.218V5.908c0-.355.047-1.22.047-1.218 0-.036-.035-.071-.093-.071a2.843 2.843 0 0 1-.406.023c-.37 0-.789-.012-1.183-.023-.07.07-.07.319 0 .39.557.047.72.177.72.946v2.271c0 .816.347 1.61 1.495 1.609zm-6.657-4.353c-.081.083-.139.118-.14 0-.01-.319-.046-.769-.092-.899-.035-.047-.046-.094-.14-.094-.324.13-.625.237-1.426.343-.023.07 0 .26.024.33.626.06.754.119.753.805v2.307c0 .97-.116 1.02-.811 1.076-.07.07-.07.319 0 .39a31.257 31.257 0 0 1 2.436 0c.069-.07.069-.319 0-.39-.592-.06-.708-.106-.708-1.076v-1.94a.7.7 0 0 1 .197-.497c.44-.438.963-.698 1.415-.698.232 0 .476.154.614.426.116.237.14.556.14.91v1.799c0 .97-.116 1.02-.72 1.076-.057.07-.057.319 0 .39.349-.012.72-.024 1.183-.024.464 0 .881.012 1.23.024.058-.07.058-.319 0-.39-.65-.06-.777-.106-.777-1.076V6.51c0-.65-.047-1.22-.313-1.585-.197-.26-.557-.402-.963-.402-.568 0-1.22.154-1.902.958zm-9.174 0c-.081.083-.139.118-.14 0-.01-.319-.045-.769-.092-.899-.035-.047-.046-.094-.139-.094-.325.13-.626.237-1.427.343-.023.07 0 .26.024.33.626.06.754.119.754.805v2.307c0 .97-.116 1.02-.812 1.076-.07.07-.07.319 0 .39a31.257 31.257 0 0 1 2.436 0c.069-.07.069-.319 0-.39-.592-.06-.708-.106-.708-1.076v-1.94a.7.7 0 0 1 .197-.497c.441-.438.963-.698 1.415-.698.232 0 .476.154.615.426.116.237.139.556.139.91v1.799c0 .97-.116 1.02-.72 1.076-.057.07-.057.319 0 .39.349-.012.72-.024 1.184-.024.464 0 .88.012 1.229.024.058-.07.058-.319 0-.39-.649-.06-.777-.106-.777-1.076V6.51c0-.65-.046-1.22-.313-1.585-.197-.26-.557-.402-.963-.402-.568 0-1.22.154-1.902.958zM55.42 9.835c.452 0 .997-.237 1.565-.71.058-.047.162-.07.174.012.023.308.128.698.128.698.093.035.139.035.22 0 .255-.213.661-.39 1.369-.473.07-.071.07-.248 0-.32-.742-.059-.847-.284-.847-.863V5.908c0-.355.046-1.22.046-1.218 0-.036-.034-.071-.092-.071a2.843 2.843 0 0 1-.406.023c-.371 0-.79-.011-1.183-.023-.07.07-.07.319 0 .39.568.035.719.177.719.958V8.25c0 .225-.023.319-.186.461-.429.378-.87.568-1.16.568-.347 0-.927-.166-.927-1.218V5.908c0-.355.046-1.22.046-1.218 0-.036-.035-.071-.093-.071a2.843 2.843 0 0 1-.406.023c-.37 0-.789-.012-1.182-.023-.07.07-.07.319 0 .39.557.047.719.177.719.946v2.271c0 .816.348 1.61 1.496 1.609zm-6.81-3.49c0-.26.104-.401.198-.508.44-.438 1.02-.698 1.484-.698.232 0 .476.166.615.426.116.237.139.556.139.91v1.799c0 .97-.116 1.02-.72 1.076-.057.07-.057.319 0 .39a31.759 31.759 0 0 1 2.413 0c.058-.07.058-.319 0-.39-.649-.06-.777-.106-.777-1.076V6.51c0-.65-.046-1.22-.313-1.585-.197-.26-.557-.402-.963-.402-.58 0-1.26.154-1.971.958-.047.047-.116.166-.116 0l.011-2.661c0-.77.047-1.24.047-1.242 0-.083-.047-.118-.151-.118-.29.118-1.16.284-1.624.32-.023.094 0 .283.07.354.603.035.742-.024.742.97v5.169c0 .982-.139 1.03-.812 1.076-.07.07-.07.319 0 .39a29.892 29.892 0 0 1 2.412 0c.07-.07.07-.319 0-.39-.58-.048-.683-.095-.684-1.076V6.346zM41.718 1.78l-.881 1.408c-.093.154-.128.2-.128.33 0 .084.082.155.163.155.08 0 .174-.048.348-.225l1.333-1.29-.034-.13a.934.934 0 0 0-.638-.271.588.588 0 0 0-.163.023zm-1.693 4.601c.22-1.34 1.03-1.44 1.31-1.443.442 0 .964.248.963 1.242 0 .106-.046.166-.174.166l-2.099.035zm3.039 2.236c-.43.449-.765.639-1.439.638-.418 0-.905-.248-1.264-.851-.232-.39-.37-.934-.37-1.62l3.084.023c.14 0 .22-.07.22-.201 0-.994-.347-2.06-1.96-2.058-1.01 0-2.32.982-2.319 2.78 0 .662.162 1.3.545 1.75.394.473.939.757 1.775.757.88 0 1.51-.414 1.971-1.029-.035-.118-.104-.177-.243-.19zM31.548 5.482c-.082.083-.14.118-.14 0-.011-.319-.046-.769-.092-.899-.035-.047-.047-.094-.14-.094-.325.13-.626.237-1.426.343-.023.07 0 .26.023.331.626.06.754.118.754.804v2.307c0 .97-.116 1.02-.812 1.076-.07.071-.07.319 0 .39a31.257 31.257 0 0 1 2.436 0c.07-.07.07-.319 0-.39-.591-.06-.707-.106-.708-1.076v-1.94a.7.7 0 0 1 .197-.497c.441-.438.963-.698 1.415-.698.232 0 .476.154.615.426.116.237.14.556.14.91v1.799c0 .97-.117 1.02-.72 1.076-.058.07-.058.319 0 .39.348-.012.72-.023 1.183-.023.464 0 .881.011 1.23.023.057-.07.057-.319 0-.39-.65-.06-.778-.106-.778-1.076V6.51c0-.65-.046-1.22-.313-1.585-.197-.26-.557-.402-.962-.402-.568 0-1.22.154-1.902.958zm-4.216-2.85c0 .308.278.615.556.615.325 0 .603-.308.603-.568 0-.284-.244-.615-.556-.615-.278 0-.603.284-.603.568zm1.055 5.642V5.92c0-.591.046-1.35.046-1.348 0-.048-.058-.083-.15-.083-.336.13-.79.237-1.59.343-.023.07 0 .26.024.33.626.072.754.13.754.805v2.307c0 .982-.128 1.02-.835 1.076-.07.07-.07.319 0 .39.383-.012.835-.023 1.299-.023.464 0 .905.011 1.287.023.07-.07.07-.319 0-.39-.707-.047-.835-.095-.835-1.076zm-5.69 3.335c.173-.319.324-.662.475-1.017.928-2.28 1.44-3.49 2.053-4.826.22-.497.394-.686.939-.757.07-.07.07-.319 0-.39-.232.012-.5.024-.824.024-.348 0-.707-.012-1.055-.024-.07.07-.07.319 0 .39.36.036.742.106.557.532l-1.16 2.71c-.081.2-.174.224-.278-.013l-1.021-2.46c-.209-.497-.267-.71.383-.769.07-.07.07-.319 0-.39-.43.012-.893.024-1.31.024-.395 0-.708-.012-.94-.024-.07.071-.07.319 0 .39.452.06.603.166.904.887l1.323 3.111c.092.248.278.781.162 1.112a9.997 9.997 0 0 1-.452 1.088c-.128.237-.29.343-.58.343-.162 0-.21-.035-.337-.035-.336 0-.51.355-.51.508 0 .248.232.438.545.438.244 0 .707-.095 1.125-.852zm-4.221-1.774c.128 1.66.858 2.11 1.496 2.105.986 0 1.35-.532 1.345-.898 0-.26-.15-.426-.394-.426-.313 0-.476.213-.534.461-.07.248-.128.485-.475.485-.336 0-.58-.355-.58-2.176V2.82c0-.769.035-1.24.035-1.242 0-.083-.047-.118-.15-.118-.303.118-1.1.272-1.567.307l.024.284c0 .036.023.06.07.06l.37.023c.232 0 .348.154.348.923v1.727c-.267-.154-.777-.26-1.009-.26-.765 0-1.28.26-1.74.71-.498.508-.776 1.21-.777 2.08 0 1.45.696 2.52 1.949 2.52.464 0 1.04-.378 1.577-.816v.84l.012-.024zm-.012-1.644v.414c-.522.426-.974.674-1.276.674-.626 0-1.26-.698-1.264-2.176 0-.852.151-1.32.325-1.573a1.21 1.21 0 0 1 1.079-.592c.545 0 .858.248 1.136.698v2.555zm-7.6-6.41a.776.776 0 0 0-.173-.024c-.394 0-.661.2-.754.272l-.023.13 1.322 1.289c.186.177.267.237.336.236.093 0 .174-.07.174-.13a.594.594 0 0 0-.07-.284l-.811-1.49zm-.022 8.054c.452 0 .997-.237 1.565-.71.058-.047.162-.07.174.012.023.308.128.698.128.698.093.035.139.035.22 0 .255-.213.661-.39 1.369-.473.07-.071.07-.248 0-.32-.742-.059-.847-.283-.847-.863V5.91c0-.356.046-1.22.046-1.22 0-.035-.034-.07-.092-.07a2.843 2.843 0 0 1-.406.023c-.371 0-.79-.011-1.183-.023-.07.07-.07.319 0 .39.568.036.719.177.719.958V8.25c0 .225-.023.319-.186.461-.429.378-.87.568-1.16.568-.347 0-.927-.166-.927-1.218V5.908c0-.355.046-1.22.046-1.218 0-.036-.035-.071-.093-.071a2.843 2.843 0 0 1-.406.023c-.37 0-.789-.011-1.182-.023-.07.07-.07.319 0 .39.557.047.719.177.719.946v2.271c0 .816.348 1.61 1.496 1.609zm-4.2-6.174v3.868c0 .225 0 .355-.082.354-.046 0-.22-.213-.557-.65L2.025 2.088.46 2.064c-.07.07-.07.319 0 .39.499.036.847.45.916.757v4.933c0 1.05-.197 1.12-1.01 1.206-.069.07-.069.319 0 .39.5-.012 1.02-.023 1.3-.023.267 0 .8.011 1.287.023.07-.07.07-.319 0-.39-.812-.083-1.01-.13-1.009-1.206v-3.62c0-.402 0-.58.093-.58.07 0 .197.13.394.391L6.48 9.551c.128.177.278.284.464.284.162 0 .267-.142.267-.367V3.661c0-1.05.197-1.12 1.009-1.207.07-.07.07-.319 0-.39-.476.012-1.03.024-1.3.024-.254 0-.776-.012-1.287-.024-.07.071-.07.32 0 .39.812.083 1.01.13 1.01 1.207z"/></svg>