<svg xmlns="http://www.w3.org/2000/svg" width="112" height="18"><path fill="#000" fill-rule="nonzero" d="m96.542 3.866.38.912a8 8 0 0 0-2.155 1.321c-.691.577-1.175 1.146-1.452 1.707h5.458c1.05 0 1.851.216 2.402.649.55.432.826 1.046.826 1.841v.515h1.219a.086.086 0 0 1 .034-.006h1.856a1.693 1.693 0 0 1-.609-.696 2.239 2.239 0 0 1-.228-1.017c0-.487.107-.914.322-1.28.215-.37.506-.655.873-.854a2.488 2.488 0 0 1 1.212-.304c1.554 0 2.331.858 2.331 2.572v1.579h1.57V8.46c0-1.088-.246-1.889-.738-2.403s-1.265-.772-2.32-.772c-.777 0-1.517.117-2.22.351l-.275-.924c.75-.249 1.582-.374 2.495-.374 1.305 0 2.31.353 3.017 1.058.707.702 1.06 1.69 1.06 2.964v3.38h-8.191a.093.093 0 0 1-.032.005h-9.524c-.738 0-1.53-.076-2.378-.228-.847-.156-1.49-.331-1.927-.526l.117-.538c.555.133 1.041.226 1.459.28.418.051 1.056.077 1.915.077h7.943v-.333c0-.6-.184-1.04-.55-1.316-.364-.28-.917-.42-1.659-.42H92.32v-.983c.39-.818.986-1.592 1.786-2.32.805-.73 1.617-1.254 2.437-1.573Zm10.091 3.84c-.406 0-.724.125-.955.374-.226.246-.34.597-.34 1.053 0 .51.155.917.463 1.221.309.3.711.45 1.207.45h.984V9.408c0-.588-.115-1.019-.346-1.291-.226-.273-.564-.41-1.013-.41Zm-1.205 6.139 2.811-1.047v.649l-2.811 1.052v-.655ZM94.276 3.578a2.06 2.06 0 0 1-1.224-.398l.345-.503c.297.199.582.298.855.298.235 0 .434-.027.598-.081-.254-.324-.38-.663-.38-1.018 0-.304.099-.545.298-.724.2-.18.459-.27.779-.27s.572.092.756.275c.183.18.275.404.275.673 0 .284-.108.565-.322.841-.211.273-.496.493-.856.661-.359.164-.734.246-1.124.246Zm1.101-.889c.21-.113.36-.242.445-.386a.825.825 0 0 0 .135-.427.4.4 0 0 0-.123-.304.433.433 0 0 0-.31-.116.467.467 0 0 0-.317.116c-.086.078-.129.2-.129.363 0 .245.1.497.299.754Zm-25.904 9.057h-1.196c-.012.947-.258 1.662-.738 2.145-.48.488-1.23.731-2.25.731h-.86c-.742 0-1.33-.273-1.763-.818-.434-.546-.65-1.296-.65-2.25 0-.492.043-.989.129-1.492.085-.506.207-.95.363-1.332h.995c-.273.69-.41 1.63-.41 2.823 0 .682.137 1.208.41 1.578.274.37.658.556 1.154.556h.586c.695 0 1.205-.158 1.529-.474.324-.315.486-.793.486-1.432V2.65h1.02v8.16h3.14V5.942h1.066v4.87h3.256V2.65h1.066v8.16h6.502V8.608c0-.596-.18-1.035-.54-1.315-.358-.281-.915-.421-1.669-.421h-2.038v-.977a7.053 7.053 0 0 1 1.066-1.584 9.001 9.001 0 0 1 1.517-1.391 7.148 7.148 0 0 1 1.64-.918l.38.912c-.733.289-1.452.727-2.155 1.315-.702.585-1.187 1.156-1.452 1.713h1.042c1.047 0 1.845.215 2.396.643.555.429.832 1.045.832 1.848v3.314H69.473Zm1.476.959c.203 0 .365.06.486.181.121.125.182.304.182.538 0 .23-.06.407-.182.532-.117.124-.28.187-.486.187a.716.716 0 0 1-.48-.17c-.13-.113-.194-.296-.194-.55 0-.253.065-.436.194-.549a.716.716 0 0 1 .48-.17Zm2.073 0c.215 0 .381.064.498.193.117.132.176.308.176.526 0 .218-.059.391-.176.52-.117.133-.283.199-.498.199-.207 0-.37-.063-.492-.187-.12-.125-.181-.302-.181-.532 0-.23.058-.407.176-.532.12-.125.287-.187.497-.187ZM80.572 0c.32 0 .572.092.756.275.183.179.275.403.275.672 0 .285-.107.565-.322.842-.21.273-.496.493-.855.66-.36.164-.734.246-1.125.246a2.06 2.06 0 0 1-1.224-.398l.346-.502c.296.198.581.298.855.298.234 0 .433-.027.597-.082-.254-.323-.38-.663-.38-1.017 0-.304.099-.546.298-.725.2-.18.459-.269.78-.269Zm-.023.573a.467.467 0 0 0-.317.117c-.086.078-.128.199-.128.362 0 .246.1.497.298.754.211-.113.36-.241.445-.385a.825.825 0 0 0 .135-.427.4.4 0 0 0-.123-.304.433.433 0 0 0-.31-.117Zm-27.541 14.3c.21 0 .375.065.492.193.12.13.181.303.181.52 0 .219-.058.392-.175.521-.118.133-.284.199-.498.199-.207 0-.371-.063-.492-.187-.121-.125-.182-.302-.182-.532 0-.226.06-.402.182-.526.12-.125.285-.187.492-.187Zm0-2.168c.215 0 .38.064.498.193.117.132.175.308.175.526 0 .218-.058.391-.175.52-.118.133-.283.199-.498.199-.207 0-.371-.063-.492-.187-.121-.125-.182-.302-.182-.532 0-.23.059-.407.176-.532.12-.125.287-.187.498-.187Zm-4.334-10.06v8.162h1.581l.028.003h5.003c-.293-.292-.544-1.022-.755-2.191-.118-.69-.287-1.174-.51-1.45-.223-.277-.556-.415-1.002-.415-.554 0-1.134.16-1.74.48l-.415-.825c.344-.222.69-.376 1.037-.462a4.759 4.759 0 0 1 1.13-.129c.488 0 .896.088 1.224.263.328.176.588.437.78.784.195.343.343.836.444 1.479.118.713.248 1.264.393 1.654.148.386.318.665.51.836v.912h-6.238l-.024-.005h-2.512V2.647h1.066ZM41.54 14.62c-.75 0-1.34-.259-1.77-.777-.429-.519-.644-1.222-.644-2.11 0-.955.164-1.838.492-2.649h.996c-.273.69-.41 1.55-.41 2.578 0 .647.135 1.146.404 1.497.27.35.656.526 1.16.526h.586c.695 0 1.204-.158 1.528-.474.324-.315.487-.793.487-1.432v-5.84h1.019v5.758c0 .967-.24 1.696-.72 2.187-.481.49-1.237.736-2.267.736h-.861Zm-.545-8.687h.181v-2.18h.48v1.52c.098-.234.22-.421.364-.561a.79.79 0 0 1 .574-.217c.59 0 .884.347.884 1.04v.913h-2.483v-.515Zm2.003 0v-.298c0-.21-.035-.366-.105-.467-.07-.106-.19-.158-.358-.158a.727.727 0 0 0-.498.193c-.14.124-.267.327-.38.608v.122h1.341Zm-2.777-3.55 2.811-1.041v.649l-2.811 1.052v-.66Zm-10.045 12.07c.168 0 .313.053.434.158.125.106.187.271.187.497 0 .234-.062.402-.187.503a.639.639 0 0 1-.434.158.641.641 0 0 1-.445-.158c-.117-.101-.176-.269-.176-.503 0-.226.059-.391.176-.497a.641.641 0 0 1 .445-.157ZM8.441 2.65v8.16h1.394l10.361-.005v-.334c0-.596-.18-1.034-.539-1.315-.36-.28-.916-.42-1.67-.42h-6.454v-.983c.387-.803.98-1.572 1.78-2.309.801-.736 1.616-1.265 2.443-1.584l.387.912c-.738.296-1.455.733-2.15 1.31-.695.576-1.183 1.149-1.464 1.718h5.459c1.05 0 1.85.216 2.401.649.551.432.826 1.046.826 1.841v.515h1.465c.013 0 .025.002.034.005h1.798V5.942h1.067v4.87h6.817c-.293-.293-.545-1.023-.755-2.192-.118-.69-.287-1.174-.51-1.45-.223-.277-.556-.415-1.002-.415-.554 0-1.134.16-1.74.48l-.415-.825c.344-.222.69-.376 1.037-.462a4.759 4.759 0 0 1 1.13-.129c.488 0 .896.088 1.224.263.328.176.588.437.78.784.195.343.343.836.444 1.479.118.713.248 1.264.393 1.654.148.386.318.665.51.836v.912H22.567l-.028-.006-12.507.001a.078.078 0 0 1-.028.005H5.793l-.032-.006h-.83v.286c0 .815-.241 1.45-.726 1.906-.48.456-1.161.684-2.044.684-.816 0-1.536-.205-2.161-.614l.48-.8c.258.136.524.249.797.338.273.094.576.14.908.14.543 0 .968-.145 1.277-.438.308-.288.462-.674.462-1.157v-.345H2.747c-.851 0-1.511-.234-1.98-.702C.303 10.571.07 9.895.07 9.01c0-.94.3-1.686.897-2.239.597-.557 1.396-.836 2.395-.836h1.57v4.87h.984c.014 0 .025.001.034.005h1.425V2.65H8.44Zm20.704 10.224c.211 0 .375.065.492.193.121.129.182.302.182.52 0 .219-.059.392-.176.52-.117.133-.283.2-.498.2a.716.716 0 0 1-.48-.17c-.129-.113-.193-.296-.193-.55 0-.249.064-.43.193-.543a.716.716 0 0 1 .48-.17Zm2.074 0c.21 0 .375.065.492.193.12.129.181.302.181.52 0 .219-.058.392-.175.52-.117.133-.283.2-.498.2-.207 0-.371-.063-.492-.188-.121-.124-.182-.302-.182-.532 0-.226.06-.4.182-.526.12-.124.285-.187.492-.187Zm-7.175-.17c.203 0 .365.061.486.182.121.125.182.304.182.538 0 .23-.06.407-.182.532-.117.124-.28.187-.486.187a.716.716 0 0 1-.48-.17c-.13-.113-.194-.296-.194-.55 0-.253.065-.436.194-.549a.716.716 0 0 1 .48-.17Zm2.073 0c.215 0 .381.065.498.194.117.132.176.308.176.526 0 .218-.059.391-.176.52-.117.133-.283.199-.498.199-.207 0-.37-.063-.492-.187-.12-.125-.181-.302-.181-.532 0-.23.058-.407.175-.532.122-.125.287-.187.498-.187ZM3.913 6.865h-.516c-.71 0-1.265.188-1.663.562-.395.374-.592.898-.592 1.572 0 .624.135 1.082.404 1.374.274.288.686.433 1.236.433h1.13v-3.94Zm24.922 10.481 2.812-1.046v.649L28.835 18v-.655Z"/></svg>