<svg xmlns="http://www.w3.org/2000/svg" xml:space="preserve" viewBox="0 0 118.37 11.887"><g stroke-width="1.209" aria-label="Sərbəstə Ensiklopedijə"><path d="M4.795.858q.185.935.236 1.644-.096.075-.427.075-.089-.287-.178-.498-.09-.212-.248-.436-.16-.224-.357-.367-.191-.144-.484-.237T2.675.946q-.567 0-1 .442-.427.436-.427.984 0 .298.14.566.147.261.338.442.19.174.496.35.306.167.516.254.217.088.523.206.312.112.394.15.389.161.682.348.3.181.56.448.261.261.401.623.141.361.14.797 0 .604-.33 1.158-.325.548-.892.897-.688.417-1.611.417-.624 0-1.3-.143-.675-.15-1.044-.15Q.14 8.257.089 7.89q-.051-.368-.09-1.09.211-.106.427-.037.408 1.81 2.287 1.812.784 0 1.203-.399.427-.404.427-1.17 0-.268-.064-.492-.057-.23-.152-.393-.096-.168-.249-.317-.152-.15-.3-.243-.14-.094-.343-.193-.204-.1-.35-.156l-.363-.13q-.21-.082-.325-.131-.414-.174-.726-.368-.313-.193-.592-.454-.274-.268-.42-.623Q.311 3.15.311 2.72q0-.983.726-1.594Q1.77.51 2.796.51q.56 0 .878.062.325.062.586.156.261.093.535.13M10.012 7.029l-2.363.037q-.197 0-.197.18 0 .38.095.66.096.275.261.418.166.137.344.2.178.061.382.061.122 0 .249-.018.133-.025.33-.119.205-.093.364-.249.159-.155.312-.46.152-.306.223-.71m-3.42-2.41q-.217-.019-.274-.206.879-1.107 2.216-1.108 1.284 0 2 .816.612.685.611 1.886 0 .561-.165 1.053-.16.491-.427.84t-.611.604q-.338.256-.7.38-.364.119-.708.119-2.204 0-2.203-2.217 0-.218.248-.218l3.47.025q0-1.068-.42-1.744-.286-.46-.668-.691-.376-.23-.752-.23-.548 0-.891.155-.344.155-.726.536M14.138 4.34q0 .068.019.093.025.018.083-.069.26-.436.643-.747.382-.312.802-.312.377 0 .58.2.204.192.204.41 0 .244-.191.443-.185.2-.42.199-.122 0-.217-.05-.09-.056-.204-.187l-.115-.137q-.089-.087-.274-.087-.152 0-.598.623-.313.455-.312.853v1.775q0 .274.012.448t.064.311q.058.13.115.2.057.062.197.112.147.043.28.062.134.012.402.031.057.056.057.212 0 .15-.057.205-1.123-.025-1.58-.025-.394 0-1.49.025-.057-.056-.057-.205 0-.155.057-.212.344-.019.497-.05.159-.03.28-.155.127-.125.16-.337.031-.211.031-.622V4.862q0-.287-.032-.436-.025-.155-.134-.249-.108-.093-.248-.124-.133-.032-.433-.056-.02-.063-.032-.181-.013-.119.007-.18 1.041-.131 1.643-.368.108 0 .152.1.109.224.109.971M18.908 4.27q-.127.106-.172.224-.045.112-.044.311v3.189q.235.286.445.442.217.155.49.155.899 0 1.37-.703.471-.71.471-1.85 0-.921-.427-1.55-.42-.63-1.025-.63-.637 0-1.108.412zm-.09-.399q.65-.572 1.46-.573.426 0 .84.181.414.174.739.492.33.311.528.797.205.48.204 1.04 0 .729-.261 1.351-.26.623-.681 1.021-.421.399-.93.623-.503.218-1.013.218-.757 0-1.146-.311-.108-.088-.185-.081-.07 0-.172.112t-.306.311q-.185 0-.286-.156.05-.243.05-.902V1.767q0-.218-.012-.368-.013-.155-.025-.268-.013-.118-.064-.186l-.09-.112q-.031-.044-.133-.063-.102-.025-.172-.03-.064-.007-.216-.013Q16.87.72 16.826.72q-.058-.056-.083-.175-.02-.124 0-.205.394-.031.987-.143.599-.112.84-.206.172 0 .172.131-.05.51-.05 1.339v2.347q0 .174.127.063zM27.105 7.029l-2.363.037q-.197 0-.197.18 0 .38.095.66.096.275.261.418.166.137.344.2.178.061.382.061.122 0 .249-.018.133-.025.33-.119.205-.093.364-.249.158-.155.312-.46.152-.306.223-.71m-3.42-2.41q-.217-.019-.274-.206.879-1.107 2.216-1.108 1.284 0 2 .816.612.685.611 1.886 0 .561-.165 1.053-.16.491-.427.84t-.611.604q-.338.256-.701.38-.363.119-.707.119-2.205 0-2.203-2.217 0-.218.248-.218l3.47.025q0-1.068-.42-1.744-.286-.46-.668-.691-.376-.23-.752-.23-.548 0-.891.155-.344.155-.726.536M29.519 7.137q.057-.056.203-.062t.204.05l.096.405q.038.13.153.386.12.255.26.386.275.305.924.305.42 0 .764-.23t.344-.66q0-.418-.267-.673-.261-.25-1.064-.58-.79-.322-1.114-.69-.319-.368-.319-1.046 0-.599.548-1.01.554-.417 1.293-.416.3 0 .618.043.318.044.655.118.338.069.434.081-.007.169-.045.636-.032.46-.032.716-.057.056-.21.062t-.21-.05q-.051-.305-.172-.535-.114-.23-.249-.349-.127-.119-.292-.187-.166-.075-.28-.093-.109-.019-.217-.019-.363 0-.643.224-.275.218-.274.592 0 .149.032.274.038.124.082.218.045.087.153.18.114.087.191.143.077.05.249.131.178.075.273.112l.325.125q.726.268 1.127.672t.402 1.022q0 .36-.147.653-.146.287-.376.461-.222.174-.509.293-.286.112-.548.156-.255.043-.496.043-.638 0-1.185-.137-.09-.025-.261-.025-.134 0-.325.038 0-.592-.095-1.763M34.55 3.43h.598q0-.486-.006-.804-.006-.317-.013-.41-.006-.1-.012-.163-.007-.062-.007-.1 0-.055.064-.093.07-.037.216-.075.147-.043.217-.074.076-.032.197-.094l.198-.1q.083-.037.127-.037.102 0 .102.112-.05.517-.05 1.345v.492h1.566q.102 0 .102.081v.255q0 .075-.102.119-.096.043-.21.043H36.18v3.226q0 .629.09.903.095.274.343.274.593 0 1.07-.361.191.018.23.218-.377.411-.841.629-.458.211-.917.211-1.007 0-1.007-1.258V3.927h-.77q-.064 0-.064-.074v-.168q0-.094.058-.175.057-.08.178-.08zM42.16 7.029l-2.363.037q-.197 0-.197.18 0 .38.095.66.096.275.261.418.166.137.344.2.178.061.382.061.122 0 .249-.018.133-.025.33-.119.205-.093.364-.249.159-.155.312-.46t.223-.71m-3.42-2.41q-.216-.019-.274-.206.879-1.107 2.216-1.108 1.285 0 2 .816.612.685.611 1.886 0 .561-.165 1.053-.159.491-.427.84-.267.35-.611.604-.338.256-.7.38-.364.119-.708.119-2.204 0-2.203-2.217 0-.218.248-.218l3.471.025q0-1.068-.42-1.744-.286-.46-.669-.691-.376-.23-.751-.23-.549 0-.892.155-.344.155-.726.536M50.77 4.3q.286 0 .471-.013t.319-.056q.133-.05.204-.1t.108-.168q.044-.118.057-.224t.026-.311q.057-.056.216-.056t.217.056q-.026.76-.026 1.102 0 .224.026 1.12-.058.057-.217.057t-.216-.056q-.013-.212-.032-.312-.02-.105-.083-.236-.064-.13-.185-.187t-.344-.094q-.216-.043-.54-.043h-1.185v3.076q0 .255.12.405.128.143.344.143h1.777q.688 0 1.083-.442.401-.448.624-1.227.236-.062.459.062-.16 1.019-.484 2.13-1.042-.025-1.669-.025h-2.802q-1.062.013-1.7.025-.058-.056-.058-.206 0-.155.057-.211.261-.013.402-.025.146-.013.293-.056.152-.05.216-.119.07-.068.128-.199.063-.13.082-.311t.02-.455V2.232q0-.323-.039-.523-.032-.2-.095-.324-.064-.13-.223-.193-.153-.062-.312-.081-.159-.025-.472-.037-.057-.056-.057-.212 0-.155.057-.212l1.688.025h3.325q.337 0 .636-.05.051 0 .051.038.026.087.134.79.114.705.16 1.06-.205.099-.434.061-.083-.26-.14-.41t-.153-.33q-.089-.187-.184-.287-.096-.1-.242-.193-.14-.093-.325-.13t-.427-.038h-1.375q-.223 0-.344.162-.122.155-.121.398V4.3zM56.77 4.34q.547-.6 1.063-.817.522-.217 1.076-.218.74 0 1.083.436.204.274.274.691.076.412.076 1.016v1.899q0 .23.013.392.012.155.032.286.019.125.07.2.05.074.102.13.057.05.165.081.108.032.21.05.102.013.28.025.045.056.045.212 0 .15-.045.205-1.122-.024-1.381-.024-.236 0-1.332.024-.044-.056-.044-.205 0-.155.044-.212.287-.025.414-.056.134-.037.236-.156.108-.124.134-.336.025-.211.025-.616V5.41q0-.678-.153-.984-.114-.217-.305-.336-.191-.125-.389-.124-.382 0-.802.199-.414.2-.79.554-.222.243-.223.535v2.093q0 .404.02.616.025.212.127.336.102.12.229.156.127.031.408.056.057.056.057.212 0 .15-.057.205-1.093-.025-1.287-.025-.37 0-1.44.025-.057-.056-.057-.205 0-.155.058-.212.222-.019.337-.031.122-.019.242-.062.128-.05.172-.119.051-.068.096-.199.05-.137.057-.305.013-.174.013-.448V4.862q0-.287-.032-.436-.025-.155-.134-.249-.108-.093-.248-.124-.14-.032-.44-.056-.019-.063-.031-.181-.013-.119.006-.18 1.042-.131 1.643-.368.114 0 .16.1.101.211.101.971 0 .168.108.019.007-.013.013-.019M62.074 7.137q.058-.056.204-.062.147-.006.204.05l.095.405q.039.13.153.386.122.255.261.386.275.305.924.305.42 0 .764-.23t.344-.66q0-.418-.267-.673-.261-.25-1.064-.58-.79-.322-1.115-.69-.318-.368-.318-1.046 0-.599.548-1.01.554-.417 1.293-.416.299 0 .617.043.319.044.656.118.338.069.433.081-.006.169-.044.636-.032.46-.032.716-.057.056-.21.062t-.21-.05q-.051-.305-.172-.535-.115-.23-.249-.349-.127-.119-.293-.187-.166-.075-.28-.093-.108-.019-.216-.019-.364 0-.644.224-.274.218-.274.592 0 .149.032.274.039.124.083.218.045.087.153.18.114.087.191.143.076.05.248.131.178.075.274.112l.325.125q.726.268 1.127.672.402.405.401 1.022 0 .36-.146.653-.147.287-.376.461-.222.174-.51.293-.285.112-.547.156-.255.043-.497.043-.637 0-1.184-.137-.09-.025-.261-.025-.134 0-.325.038 0-.592-.096-1.763M67.717 1.264q0-.225.223-.417T68.4.654q.255 0 .44.211.184.206.184.449 0 .211-.21.417-.204.2-.465.2-.236 0-.433-.206-.197-.212-.198-.461m1.191 6.084q0 .274.007.448.012.174.057.311.051.138.102.206.05.062.172.112.127.044.248.062.122.013.35.025.058.056.058.212 0 .15-.057.205-1.123-.025-1.446-.025-.37 0-1.465.025-.057-.056-.057-.205 0-.155.057-.212.236-.019.35-.031.115-.019.242-.062.134-.05.179-.112.05-.069.102-.2.05-.137.057-.311.013-.174.013-.448V4.863q0-.287-.032-.436-.026-.15-.134-.243-.102-.1-.248-.13-.14-.032-.433-.057-.02-.062-.032-.18-.013-.119.006-.18 1.234-.156 1.783-.368.172 0 .172.087-.05.816-.05 1.451zM71.207 7.345V1.772q0-.218-.012-.367-.013-.156-.026-.268-.013-.119-.063-.187l-.09-.112q-.031-.044-.133-.062Q70.78.75 70.71.744q-.064-.005-.217-.012-.076-.006-.12-.006-.058-.056-.077-.174-.02-.125 0-.206.388-.025.98-.137.6-.118.841-.212.172 0 .172.131-.05.51-.05 1.34v4.445q.42-.056.884-.392.472-.342 1.045-1.046.064-.081.102-.162.044-.081.063-.193.026-.119-.095-.193-.114-.081-.37-.1-.057-.056-.057-.212 0-.155.058-.211.967.025 1.28.025.165 0 1.133-.025.058.056.057.211 0 .156-.057.212-.452.044-.777.162-.324.119-.592.399l-1.146 1.158q-.058.056-.058.13 0 .063.096.181l1.72 2.111q.241.293.483.399.242.1.637.143.058.056.058.211 0 .15-.058.206-.776-.025-1.07-.025-.286 0-.809.025-.031 0-.05-.062-.07-.268-.548-.897l-.95-1.245q-.21-.287-.42-.418-.171-.056-.56-.068v1.108q0 .324.02.523.025.2.057.33.038.125.133.187.096.062.185.087.096.019.28.038.058.056.058.211 0 .15-.058.206-1.122-.025-1.184-.025-.3 0-1.395.025-.057-.056-.057-.206 0-.155.057-.211.21-.013.318-.025.115-.019.23-.063.114-.05.165-.112.051-.068.096-.199.044-.137.05-.311.013-.181.013-.455zM78.002 7.345V1.772q0-.255-.012-.423-.007-.169-.051-.287t-.083-.174q-.032-.063-.14-.094-.102-.037-.179-.043-.076-.013-.254-.019-.077-.006-.121-.006-.058-.056-.077-.174-.019-.125 0-.206.395-.031.987-.143.6-.112.841-.206.172 0 .172.131-.057.51-.057 1.34v5.877q0 .412.025.63.032.21.153.336.121.124.274.155.153.025.49.044.058.056.058.212 0 .149-.058.205-1.122-.025-1.452-.025-.363 0-1.458.025-.058-.056-.058-.205 0-.156.058-.212.338-.019.49-.044.153-.03.274-.155t.147-.337q.031-.217.031-.629zM80.735 6.287q0-1.266.72-2.092.776-.891 2.044-.89.58 0 1.05.174.472.168.778.454.305.28.516.66.21.38.299.779.095.392.095.803 0 .616-.21 1.177-.21.56-.637.965-.745.71-1.917.71-.535 0-.993-.156-.458-.162-.777-.43-.313-.273-.535-.628t-.331-.741q-.102-.386-.102-.785M83.3 3.753q-1.446 0-1.445 2.241 0 .405.095.829.096.417.293.828t.567.672.847.262q.255 0 .49-.094t.465-.298q.23-.212.363-.623.141-.417.14-.99 0-1.365-.483-2.092-.478-.735-1.332-.735M89.052 4.675q-.122.138-.166.256-.038.111-.038.305v2.322q0 .337.051.461.057.125.261.305.159.138.427.206.274.062.497.062.521 0 .898-.212.376-.217.573-.573.197-.36.28-.747.09-.385.09-.816 0-1.048-.46-1.706-.452-.653-1.095-.654-.28 0-.669.237-.388.236-.65.554m-.204-.473q0 .069.038.081t.064-.025q.388-.442.86-.697.477-.261.93-.262.643 0 1.178.368.54.367.834.965t.293 1.27q0 1.493-.962 2.41-.764.71-1.923.71-.637 0-1.134-.193-.102-.05-.14-.038t-.038.131v1.376q0 .28.013.449.013.174.063.31.051.138.109.2.057.069.197.112.147.05.28.063.141.018.408.03.057.057.057.206 0 .155-.057.212-1.123-.025-1.58-.025-.369 0-1.464.025-.058-.056-.058-.212 0-.15.058-.205.338-.019.49-.05.153-.025.274-.15.121-.124.146-.342.032-.212.032-.623V4.856q0-.287-.032-.436-.025-.155-.133-.25-.108-.093-.249-.124-.133-.03-.433-.056-.019-.062-.032-.18-.012-.119.007-.18 1.041-.131 1.643-.368.108 0 .153.1.108.224.108.84M95.241 5.298l2.363-.037q.19 0 .19-.175 0-.38-.095-.653-.095-.28-.26-.418-.167-.143-.345-.205t-.382-.062q-.127 0-.255.025-.121.018-.324.112-.198.087-.363.243-.16.155-.312.46-.147.306-.217.71m3.42 2.416q.216.019.274.2-.88 1.107-2.223 1.108-1.284 0-1.993-.816-.612-.685-.612-1.887 0-.56.16-1.052.165-.491.433-.84t.605-.605q.343-.255.7-.373.363-.125.707-.125 2.205 0 2.204 2.217 0 .218-.242.218l-3.471-.025q0 1.078.414 1.75.286.46.662.691.382.225.764.224.548 0 .892-.15.35-.154.726-.535M104.009 7.315V4.893q0-.287-.045-.41-.038-.125-.178-.281-.408-.455-1.057-.455-.79 0-1.217.636-.376.51-.375 1.693 0 1.118.426 1.738.427.61 1.007.61.503 0 1.229-.61.133-.112.172-.206.038-.1.038-.293m-.147.94q-.521.405-.878.58-.383.187-.752.187-1.031 0-1.624-.754-.592-.753-.592-1.961 0-1.365.898-2.242.413-.386.872-.573.466-.193 1.083-.193.191 0 .433.056.242.05.408.106t.178.056q.121 0 .121-.118V1.767q0-.255-.013-.423-.006-.168-.05-.287t-.084-.174q-.031-.062-.14-.093-.102-.038-.178-.044-.076-.013-.255-.019-.076-.006-.12-.006-.058-.056-.077-.174-.02-.125 0-.206.394-.03.987-.143.599-.111.84-.205.173 0 .173.13-.058.51-.058 1.34V7.24q0 .492.179.691.178.193.777.237.057.056.057.174 0 .119-.057.175-1.103.118-1.58.504-.147.037-.248 0-.14-.442-.14-.747 0-.044-.026-.056t-.064 0-.07.037zM107.275 1.264q0-.225.223-.417t.459-.193q.255 0 .44.211.184.206.184.449 0 .211-.21.417-.204.2-.465.2-.236 0-.433-.206-.197-.212-.198-.461m1.191 6.084q0 .274.006.448.013.174.058.311.05.138.102.206.05.062.172.112.127.044.248.062.121.013.35.025.058.056.058.212 0 .15-.058.205-1.122-.025-1.445-.025-.37 0-1.465.025-.058-.056-.058-.205 0-.155.058-.212.235-.019.35-.031.114-.019.242-.062.134-.05.178-.112.051-.069.102-.2.051-.137.058-.311.012-.174.012-.448V4.863q0-.287-.031-.436-.026-.15-.134-.243-.102-.1-.249-.13-.14-.032-.433-.057-.019-.062-.031-.18-.013-.119.006-.18 1.233-.156 1.783-.368.172 0 .172.087-.051.816-.051 1.451z"/><path d="M110.936 1.264q0-.225.217-.417.222-.193.458-.193.255 0 .44.211.191.212.19.449 0 .211-.21.417-.21.2-.47.2-.236 0-.434-.206-.19-.212-.19-.461m.179 3.6q0-.288-.032-.437-.026-.15-.134-.243-.102-.1-.248-.13-.14-.032-.433-.057-.02-.062-.032-.18-.013-.119.006-.18 1.254-.156 1.79-.368.165 0 .165.087-.051.822-.051 1.457v2.69q0 1.167-.121 1.95t-.325 1.195-.528.666q-.535.436-1.44.436-.23 0-.47-.15-.243-.149-.243-.398 0-.162.147-.324.146-.162.267-.162.07 0 .14.02.064.018.108.036.045.02.102.063.058.043.077.068.025.025.076.081l.07.063q.147.143.408.143.159 0 .274-.119.121-.118.197-.36.077-.237.121-.511.051-.274.07-.685.026-.405.032-.747.006-.35.006-.835zM117.237 7.029l-2.363.037q-.197 0-.197.18 0 .38.095.66.096.275.261.418.166.137.344.2.178.061.382.061.122 0 .249-.018.133-.025.33-.119.205-.093.364-.249.159-.155.312-.46t.223-.71m-3.42-2.41q-.217-.019-.274-.206.879-1.107 2.216-1.108 1.285 0 2 .816.612.685.611 1.886 0 .561-.165 1.053-.159.491-.427.84-.267.35-.611.604-.338.256-.7.38-.364.119-.708.119-2.204 0-2.203-2.217 0-.218.248-.218l3.471.025q0-1.068-.42-1.744-.287-.46-.669-.691-.376-.23-.752-.23-.548 0-.891.155-.344.155-.726.536"/></g></svg>