<svg xmlns="http://www.w3.org/2000/svg" width="120" height="15"><defs><clipPath id="a"><path fill="#fff" d="M0 0h120v14.71H0z"/></clipPath></defs><g clip-path="url(#a)"><path fill="none" d="M0 0h120v14.71H0z"/><path fill="#0B2645" d="M0 3.027h2.706l1.892 8.285 1.877-8.285h2.72l1.878 8.285 1.892-8.285h2.684l-2.582 11.4H9.812L7.824 5.76 5.86 14.427H2.603L0 3.027Zm17.504 0h2.823v11.4h-2.823v-11.4Zm5.602 0h2.823V7.19L30 3.027h3.278l-5.272 5.399 5.815 6h-3.535L25.93 9.938v4.49h-2.823v-11.4Zm11.645 0h2.823v11.4h-2.823v-11.4Z"/><path fill="#0A4E98" d="M39.535 3.092h2.823v4.162l4.07-4.162h3.278l-5.272 5.399 5.815 6.001h-3.535l-4.356-4.49v4.49h-2.823v-11.4Zm16.646 1.924c-.86 0-1.528.331-2.002.993-.474.662-.711 1.593-.711 2.795 0 1.196.237 2.125.711 2.787.474.661 1.142.992 2.002.992.865 0 1.535-.33 2.01-.992.473-.662.71-1.591.71-2.787 0-1.202-.237-2.133-.71-2.795-.475-.662-1.145-.993-2.01-.993Zm0-2.13c1.76 0 3.139.524 4.136 1.573.997 1.049 1.496 2.497 1.496 4.345 0 1.842-.499 3.288-1.496 4.336-.998 1.05-2.376 1.573-4.136 1.573-1.755 0-3.132-.524-4.132-1.572-1-1.05-1.5-2.495-1.5-4.337 0-1.848.5-3.296 1.5-4.345s2.377-1.573 4.132-1.573ZM53.886 0h1.723v1.878h-1.723V0Zm2.896 0h1.724v1.878h-1.724V0Zm7.157 3.092h3.154l3.981 7.819V3.092h2.677v11.4h-3.153l-3.982-7.819v7.819h-2.677v-11.4Zm11.058 0h3.088l2.493 4.062 2.493-4.062h3.095L81.993 9.69v4.803H79.17V9.689l-4.173-6.597Zm11.103 0h2.837l2.904 8.415 2.897-8.415h2.838l-4.055 11.4h-3.366L86.1 3.092Zm12.92 0h7.619v2.222h-4.796v2.123h4.51v2.222h-4.51v2.611h4.958v2.222h-7.78v-11.4Zm10.266 0h2.824v4.162l4.069-4.162h3.278l-5.272 5.399L120 14.492h-3.535l-4.355-4.49v4.49h-2.824v-11.4Z"/></g></svg>