<svg xmlns="http://www.w3.org/2000/svg" width="92" height="18"><path fill="#000" fill-rule="nonzero" d="M4.303 5.026c.016 0 .028.014.036.043.008.019.012.038.012.057 0 .24-.06.437-.177.59-.11.154-.24.28-.39.375a1.599 1.599 0 0 1-.436.187 1.75 1.75 0 0 1-.306.044h-.118a.153.153 0 0 0-.106.043c-.024.019-.035.038-.035.057 0 .02.007.063.023.13s.032.149.047.245c.016.086.032.182.047.288.016.096.024.177.024.245 0 .086-.012.182-.035.288a2.328 2.328 0 0 1-.083.288 1.94 1.94 0 0 1-.118.302c.354.077.668.23.943.46.283.222.539.5.767.836.228.336.44.71.637 1.123a28.962 28.962 0 0 1 .6 1.354.302.302 0 0 1 .024.115c0 .058-.027.086-.082.086a.158.158 0 0 1-.142-.072 1.326 1.326 0 0 0-.07-.1c-.22-.375-.46-.72-.72-1.037a4.91 4.91 0 0 0-.825-.807 3.603 3.603 0 0 0-.908-.532 2.438 2.438 0 0 0-.967-.202 4 4 0 0 0-.813.072c-.22.038-.405.082-.554.13a1.7 1.7 0 0 0-.33.144.494.494 0 0 1-.154.057c-.047 0-.074-.01-.082-.029A.24.24 0 0 1 0 9.72c0-.115.047-.264.141-.446.103-.183.236-.356.401-.519.173-.173.374-.321.602-.446a1.59 1.59 0 0 1 .754-.187h.189c.047 0 .094.004.141.014.055-.106.099-.206.13-.302.032-.106.047-.245.047-.418a.718.718 0 0 0-.141-.418 1.268 1.268 0 0 0-.33-.345 1.573 1.573 0 0 0-.437-.245 1.25 1.25 0 0 0-.424-.086h-.46c-.267 0-.4-.034-.4-.101 0-.02.003-.043.011-.072l.047-.087.566-1.036h3.466m4.882 0c.015 0 .027.014.035.043.008.019.012.038.012.057 0 .154-.028.293-.083.418-.047.115-.11.22-.188.317a1.083 1.083 0 0 1-.271.216c-.103.057-.2.1-.295.13a3.254 3.254 0 0 1-.566.1c-.142.01-.299.043-.472.101-.094.029-.204.125-.33.288a4.518 4.518 0 0 0-.354.547 8.07 8.07 0 0 0-.33.663c-.102.23-.177.432-.224.604.024-.01.071-.033.142-.072.07-.048.153-.09.247-.13.102-.047.213-.086.33-.114.118-.039.236-.058.354-.058.535 0 .967.11 1.297.331.33.211.605.495.825.85.228.345.429.734.602 1.166.173.432.365.864.577 1.296.016.02.048.082.095.187.047.106.07.192.07.26 0 .067-.023.1-.07.1a.223.223 0 0 1-.118-.028 24.784 24.784 0 0 0-.755-1.109 6.374 6.374 0 0 0-.707-.879 3.094 3.094 0 0 0-.837-.619 2.032 2.032 0 0 0-.99-.245c-.394 0-.704.02-.932.058-.22.029-.393.067-.519.115a1.023 1.023 0 0 0-.271.115.333.333 0 0 1-.153.044c-.024 0-.036-.015-.036-.044.095-.288.181-.528.26-.72.086-.192.153-.312.2-.36.118-.422.228-.825.33-1.21.11-.383.275-.758.495-1.122h-.353c-.267 0-.401-.034-.401-.101 0-.02.004-.043.012-.072l.047-.087.566-1.036h2.759m2.853 0c.047 0 .07.033.07.1 0 .116-.027.264-.082.447a4.248 4.248 0 0 1-.448.993c-.078.125-.145.188-.2.188a1.287 1.287 0 0 0-.236-.576c-.126-.173-.267-.27-.425-.288l.342-.864h.979m4.138 0c.016 0 .028.014.036.043.008.019.012.038.012.057 0 .24-.063.437-.19.59-.125.145-.27.26-.435.346a2.14 2.14 0 0 1-.484.188 13.09 13.09 0 0 1-.33.057 1.325 1.325 0 0 0-.637.23 1.916 1.916 0 0 0-.436.433c-.11.163-.196.326-.26.49a7.635 7.635 0 0 0-.129.417c.063-.039.142-.072.236-.101a.963.963 0 0 1 .248-.043c.345 0 .64.019.884.057.244.03.452.077.625.144.18.068.334.154.46.26.125.096.24.206.341.33.22.289.405.654.555 1.095.157.432.283.922.377 1.469.102.538.18 1.114.236 1.728.063.605.114 1.224.153 1.858l.177 3.139a.219.219 0 0 1-.036.115c-.023.048-.047.072-.07.072-.04 0-.083-.02-.13-.058a.231.231 0 0 1-.07-.13l-.319-3.052a25.236 25.236 0 0 0-.448-2.822c-.189-.855-.42-1.512-.696-1.973a1.84 1.84 0 0 0-.754-.72C14.785 9.082 14.4 9 13.936 9c-.094 0-.208.014-.342.043a3.74 3.74 0 0 0-.412.115l-.425.116a3.925 3.925 0 0 1-.353.086c-.04 0-.06-.024-.06-.072 0-.058.016-.134.048-.23.039-.106.082-.216.13-.332a3.75 3.75 0 0 1 .188-.345c.07-.125.142-.23.212-.317.032-.115.063-.245.095-.389l.118-.432.13-.432a3.92 3.92 0 0 1 .14-.374c0-.058-.03-.096-.094-.115H13.1c-.267 0-.4-.034-.4-.101 0-.02.003-.043.011-.072l.047-.087.566-1.036h2.853m6.638 0c.079 0 .118.048.118.144 0 .067-.011.11-.035.13a.2.2 0 0 0-.035.086c-.04.144-.083.292-.13.446-.047.154-.09.317-.13.49-.04.192-.074.393-.106.604a6.108 6.108 0 0 0-.035.677v3.802c.023.086.035.182.035.288a.358.358 0 0 1-.047.173.147.147 0 0 1-.13.072c-.063 0-.133-.053-.212-.159a12.779 12.779 0 0 0-.424-.561c-.19-.25-.425-.5-.708-.75a4.12 4.12 0 0 0-.943-.662 2.293 2.293 0 0 0-1.132-.288 2.437 2.437 0 0 0-1.014.202l-.236.086c.102-.403.181-.69.236-.864.063-.172.15-.312.26-.417 0-.423.023-.802.07-1.138.047-.345.142-.643.283-.893a.2.2 0 0 0 .036-.1c-.024-.048-.06-.072-.107-.072h-.141c-.26 0-.39-.034-.39-.101 0-.02.005-.043.013-.072l.047-.087.566-1.036h4.291m-.907 3.312-.083-.605a8.015 8.015 0 0 0-.118-.663 3.108 3.108 0 0 0-.141-.532c-.048-.144-.099-.216-.154-.216h-1.839a2.864 2.864 0 0 0-.33.33 2.84 2.84 0 0 0-.354.476c-.102.182-.192.38-.271.59-.07.202-.106.408-.106.62.063-.03.118-.053.165-.072a.487.487 0 0 1 .224-.044c.472 0 .857.082 1.155.245.307.163.559.36.755.59.204.231.37.471.495.72.134.25.256.461.366.634l.436.677v-.36c0-.355-.024-.744-.07-1.166a46.57 46.57 0 0 0-.13-1.224m5.246-3.312c.016 0 .028.014.036.043.008.019.011.038.011.057 0 .154-.027.293-.082.418-.047.115-.11.22-.189.317a1.083 1.083 0 0 1-.27.216c-.103.057-.201.1-.296.13a3.254 3.254 0 0 1-.566.1c-.141.01-.298.043-.471.101-.095.029-.205.125-.33.288a4.518 4.518 0 0 0-.354.547 8.07 8.07 0 0 0-.33.663c-.102.23-.177.432-.224.604.023-.01.07-.033.141-.072.071-.048.154-.09.248-.13.102-.047.212-.086.33-.114.118-.039.236-.058.354-.058.534 0 .967.11 1.297.331.33.211.605.495.825.85.228.345.428.734.601 1.166.173.432.366.864.578 1.296.016.02.047.082.094.187.048.106.071.192.071.26 0 .067-.023.1-.07.1a.223.223 0 0 1-.119-.028 24.784 24.784 0 0 0-.755-1.109 6.374 6.374 0 0 0-.707-.879 3.094 3.094 0 0 0-.837-.619 2.032 2.032 0 0 0-.99-.245c-.393 0-.704.02-.932.058-.22.029-.393.067-.518.115a1.023 1.023 0 0 0-.271.115.333.333 0 0 1-.154.044c-.023 0-.035-.015-.035-.044.094-.288.18-.528.26-.72.086-.192.153-.312.2-.36.118-.422.228-.825.33-1.21.11-.383.275-.758.495-1.122h-.354c-.267 0-.4-.034-.4-.101 0-.02.003-.043.011-.072l.047-.087.566-1.036h2.76m1.91 0c.046 0 .07.033.07.1 0 .116-.027.264-.082.447a4.248 4.248 0 0 1-.448.993c-.08.125-.146.188-.2.188a1.287 1.287 0 0 0-.237-.576c-.125-.173-.267-.27-.424-.288l.342-.864h.978m6.426 0c.087 0 .13.033.13.1 0 .048-.024.178-.07.39-.048.21-.08.48-.095.806-.024.345-.044.772-.06 1.281l-.046 1.613-.048 1.771c-.007.595-.02 1.162-.035 1.7a442.18 442.18 0 0 1-.023 1.44v3.513a.518.518 0 0 1-.048.245c-.023.067-.055.1-.094.1-.031 0-.075-.033-.13-.1a.34.34 0 0 1-.082-.245v-2.275c0-.269-.012-.629-.036-1.08-.015-.461-.039-.97-.07-1.527a81.85 81.85 0 0 0-.095-1.756c-.031-.615-.066-1.21-.106-1.786a65.782 65.782 0 0 0-.106-1.627c-.031-.509-.059-.931-.082-1.267h-1.274c-.086 0-.137.048-.153.144a3.525 3.525 0 0 0-.012.288l.13 4.046a.282.282 0 0 1 .059.144.422.422 0 0 1 .023.13c0 .115-.047.172-.141.172a.282.282 0 0 1-.189-.086 3.26 3.26 0 0 1-.165-.187 3.355 3.355 0 0 0-.554-.533 4.102 4.102 0 0 0-.672-.446 3.466 3.466 0 0 0-.684-.288 1.973 1.973 0 0 0-.625-.116c-.157 0-.306.034-.448.101a3.683 3.683 0 0 1-.424.144c.031-.259.078-.499.141-.72.071-.22.146-.398.224-.533.016-.192.055-.398.118-.619a7.09 7.09 0 0 1 .212-.633 5.85 5.85 0 0 1 .248-.576c.086-.183.161-.327.224-.432h-.26c-.267 0-.4-.034-.4-.101 0-.02.004-.043.012-.072l.047-.087.566-1.036h5.093m-3.926 1.296c-.126 0-.271.067-.436.201a2.486 2.486 0 0 0-.484.504c-.15.202-.283.427-.4.677-.119.25-.193.49-.225.72a.511.511 0 0 1 .272-.086c.125-.02.216-.03.27-.03.205 0 .39.044.555.13.165.077.314.183.448.317.134.125.255.274.365.447.11.163.217.326.319.49l.483.762v-.417a5.72 5.72 0 0 0-.047-.677c-.024-.26-.059-.528-.106-.806a14.474 14.474 0 0 0-.165-.85 8.568 8.568 0 0 0-.354-1.18c-.047-.135-.114-.202-.2-.202h-.295m3.961-1.584c-.243-.308-.495-.61-.754-.908-.26-.307-.503-.614-.731-.921a2.833 2.833 0 0 0-.46-.49 3.875 3.875 0 0 0-.578-.432 3.454 3.454 0 0 0-.625-.302 1.87 1.87 0 0 0-.613-.115.423.423 0 0 0-.283.13.357.357 0 0 0-.141.287c0 .096.035.192.106.288.07.096.157.183.26.26.102.067.212.124.33.172a.856.856 0 0 0 .318.072c.063 0 .13-.029.2-.086.071-.058.126-.087.165-.087.032 0 .048.02.048.058 0 .134-.063.346-.19.634a2.505 2.505 0 0 1-.294.49c-.126.143-.267.215-.424.215a.738.738 0 0 1-.342-.1 1.729 1.729 0 0 1-.378-.26 1.492 1.492 0 0 1-.294-.36.793.793 0 0 1-.118-.403c0-.173.04-.398.118-.677.078-.288.184-.566.318-.835.134-.278.29-.514.472-.706.173-.201.361-.302.566-.302.102 0 .224.005.365.014.134.01.271.03.413.058.133.029.263.077.389.144.118.058.22.144.306.26a4 4 0 0 1 .484.849c.11.278.24.585.389.921.078.192.185.39.318.59.126.202.252.4.378.591.117.183.22.346.306.49.087.144.13.25.13.317 0 .096-.051.144-.154.144m2.17.288c.047 0 .07.033.07.1 0 .116-.027.264-.082.447a4.248 4.248 0 0 1-.448.993c-.079.125-.145.188-.2.188a1.287 1.287 0 0 0-.236-.576c-.126-.173-.267-.27-.425-.288l.342-.864h.979m4.575 0c.015 0 .027.014.035.043.008.019.012.038.012.057 0 .24-.06.437-.177.59-.11.154-.24.28-.39.375a1.599 1.599 0 0 1-.435.187 1.75 1.75 0 0 1-.307.044h-.118a.153.153 0 0 0-.106.043c-.024.019-.035.038-.035.057 0 .02.007.063.023.13s.032.149.047.245c.016.086.032.182.048.288.015.096.023.177.023.245 0 .086-.012.182-.035.288a2.328 2.328 0 0 1-.083.288 1.94 1.94 0 0 1-.118.302c.354.077.668.23.944.46.283.222.538.5.766.836.228.336.44.71.637 1.123a28.96 28.96 0 0 1 .6 1.354.302.302 0 0 1 .024.115c0 .058-.027.086-.082.086a.158.158 0 0 1-.142-.072 1.327 1.327 0 0 0-.07-.1c-.22-.375-.46-.72-.72-1.037a4.91 4.91 0 0 0-.825-.807 3.603 3.603 0 0 0-.908-.532 2.438 2.438 0 0 0-.966-.202 4 4 0 0 0-.814.072c-.22.038-.405.082-.554.13a1.7 1.7 0 0 0-.33.144.494.494 0 0 1-.154.057c-.047 0-.074-.01-.082-.029a.24.24 0 0 1-.012-.086c0-.115.047-.264.142-.446.102-.183.235-.356.4-.519.173-.173.374-.321.602-.446a1.59 1.59 0 0 1 .754-.187h.189c.047 0 .094.004.141.014.055-.106.099-.206.13-.302.032-.106.047-.245.047-.418a.718.718 0 0 0-.141-.418 1.268 1.268 0 0 0-.33-.345 1.573 1.573 0 0 0-.437-.245 1.25 1.25 0 0 0-.424-.086h-.46c-.267 0-.4-.034-.4-.101 0-.02.003-.043.011-.072l.047-.087.566-1.036h3.467m.471-.288c-.243-.308-.495-.61-.754-.908-.26-.307-.503-.614-.731-.921a2.833 2.833 0 0 0-.46-.49 3.876 3.876 0 0 0-.578-.432 3.454 3.454 0 0 0-.625-.302 1.87 1.87 0 0 0-.613-.115.423.423 0 0 0-.283.13.357.357 0 0 0-.141.287c0 .096.035.192.106.288.07.096.157.183.26.26.101.067.211.124.33.172a.856.856 0 0 0 .318.072c.062 0 .13-.029.2-.086.07-.058.126-.087.165-.087.032 0 .047.02.047.058 0 .134-.063.346-.188.634a2.505 2.505 0 0 1-.295.49c-.126.143-.267.215-.425.215a.738.738 0 0 1-.342-.1 1.729 1.729 0 0 1-.377-.26 1.492 1.492 0 0 1-.295-.36.793.793 0 0 1-.117-.403c0-.173.039-.398.117-.677.079-.288.185-.566.319-.835.133-.278.29-.514.471-.706.173-.201.362-.302.566-.302.102 0 .224.005.366.014.133.01.271.03.412.058.134.029.264.077.39.144.117.058.22.144.306.26a4 4 0 0 1 .484.849c.11.278.24.585.389.921.078.192.184.39.318.59.126.202.251.4.377.591.118.183.22.346.307.49.086.144.13.25.13.317 0 .096-.052.144-.154.144m6.827.288c.086 0 .13.033.13.1 0 .048-.024.178-.071.39-.047.21-.079.48-.095.806-.023.345-.043.772-.058 1.281-.016.5-.032 1.037-.048 1.613l-.047 1.771c-.008.595-.02 1.162-.035 1.7l-.024 1.44v3.513a.518.518 0 0 1-.047.245c-.024.067-.055.1-.094.1-.032 0-.075-.033-.13-.1a.34.34 0 0 1-.082-.245v-2.275c0-.269-.012-.629-.036-1.08-.016-.461-.04-.97-.07-1.527a81.843 81.843 0 0 0-.095-1.756c-.031-.615-.067-1.21-.106-1.786a65.782 65.782 0 0 0-.106-1.627c-.032-.509-.06-.931-.083-1.267h-1.273c-.086 0-.138.048-.153.144a3.525 3.525 0 0 0-.012.288l.13 4.046a.282.282 0 0 1 .059.144.422.422 0 0 1 .023.13c0 .115-.047.172-.141.172a.282.282 0 0 1-.189-.086 3.26 3.26 0 0 1-.165-.187 3.355 3.355 0 0 0-.554-.533 4.102 4.102 0 0 0-.672-.446 3.466 3.466 0 0 0-.684-.288 1.973 1.973 0 0 0-.625-.116c-.157 0-.307.034-.448.101a3.683 3.683 0 0 1-.424.144c.031-.259.078-.499.141-.72.07-.22.145-.398.224-.533.016-.192.055-.398.118-.619a7.09 7.09 0 0 1 .212-.633 5.85 5.85 0 0 1 .248-.576c.086-.183.16-.327.224-.432h-.26c-.267 0-.4-.034-.4-.101 0-.02.003-.043.011-.072l.047-.087.566-1.036h5.094M45.64 6.322c-.126 0-.272.067-.437.201a2.486 2.486 0 0 0-.483.504c-.15.202-.283.427-.4.677-.119.25-.193.49-.225.72a.511.511 0 0 1 .271-.086c.126-.02.216-.03.271-.03.205 0 .39.044.555.13.165.077.314.183.448.317.133.125.255.274.365.447.11.163.216.326.318.49l.484.762v-.417a5.72 5.72 0 0 0-.047-.677c-.024-.26-.06-.528-.106-.806a14.474 14.474 0 0 0-.165-.85 8.568 8.568 0 0 0-.354-1.18c-.047-.135-.114-.202-.2-.202h-.295m6.13-1.296c.048 0 .071.033.071.1 0 .116-.027.264-.082.447a4.248 4.248 0 0 1-.448.993c-.079.125-.146.188-.2.188a1.287 1.287 0 0 0-.236-.576c-.126-.173-.268-.27-.425-.288l.342-.864h.979m4.08 0c.015 0 .027.014.035.043.007.019.011.038.011.057 0 .164-.027.308-.082.432-.055.116-.126.221-.212.317a1.014 1.014 0 0 1-.283.216c-.103.058-.2.106-.295.144a.402.402 0 0 0-.13.087c-.04.038-.059.1-.059.187v1.195c.26.173.48.38.66.62.19.23.358.48.507.748.158.269.307.547.448.835.15.279.315.547.496.807l.365.532v-.518c0-.355-.023-.74-.07-1.152-.04-.422-.08-.83-.119-1.224a15.7 15.7 0 0 0-.094-.62 8.015 8.015 0 0 0-.118-.662 4.234 4.234 0 0 0-.13-.532c-.039-.144-.074-.216-.106-.216a.199.199 0 0 0-.117.043c-.032.029-.055.043-.071.043a.287.287 0 0 1-.083-.014c-.023-.02-.035-.048-.035-.087 0-.038.012-.072.035-.1l.06-.073.79-.964a.424.424 0 0 1 .129-.116.317.317 0 0 1 .106-.028h.53c.08 0 .118.048.118.144 0 .019-.015.072-.047.158a5.175 5.175 0 0 1-.094.302 9.74 9.74 0 0 1-.106.36l-.083.332c-.039.192-.074.398-.106.619a6.108 6.108 0 0 0-.035.677v3.974c.047.096.07.211.07.346 0 .048-.027.09-.082.13a.242.242 0 0 1-.118.042.199.199 0 0 1-.118-.043l-.106-.13-2.476-2.62c0 .153-.027.34-.082.561-.055.221-.142.432-.26.634a1.852 1.852 0 0 1-.448.518.945.945 0 0 1-.625.216c-.228 0-.428-.048-.601-.144a1.328 1.328 0 0 1-.436-.388 1.853 1.853 0 0 1-.271-.562 2.848 2.848 0 0 1-.083-.691c0-.298.047-.576.142-.835.102-.26.227-.48.377-.663.157-.192.33-.34.519-.446a1.13 1.13 0 0 1 .554-.159c.118 0 .228.01.33.03.11.018.204.038.283.057.086.029.169.057.247.086a1.34 1.34 0 0 0-.07-.417 1.827 1.827 0 0 0-.177-.39A1.271 1.271 0 0 0 54 6.438c-.079-.077-.153-.115-.224-.115h-.79c-.267 0-.4-.034-.4-.101 0-.02.003-.043.011-.072l.047-.087.566-1.036h2.641m-1.368 4.132a1.356 1.356 0 0 0-.365-.345c-.15-.106-.39-.159-.72-.159-.33 0-.553.048-.671.144a.436.436 0 0 0-.177.375c0 .115.016.254.047.417.031.154.086.303.165.447.087.144.197.269.33.374a.847.847 0 0 0 .507.144.648.648 0 0 0 .413-.13c.118-.086.212-.191.283-.316.07-.135.118-.274.141-.418.032-.153.047-.288.047-.403v-.13m7.912-4.132c0-.058-.008-.135-.024-.23a2.294 2.294 0 0 0-.2-.649 1.438 1.438 0 0 0-.354-.518c-.055-.048-.082-.096-.082-.144 0-.029.023-.091.07-.187.055-.096.118-.202.189-.317.07-.115.141-.221.212-.317a2.37 2.37 0 0 1 .189-.23h2.122c.016 0 .028.014.035.043.008.019.012.038.012.057a.874.874 0 0 1-.07.36 1.588 1.588 0 0 1-.166.288.953.953 0 0 1-.2.188c-.063.048-.11.086-.141.115a1.238 1.238 0 0 1-.46.201 2.808 2.808 0 0 1-.484.044h-.283v1.296h.26c.015 0 .027.014.035.043.008.019.012.038.012.057 0 .192-.079.38-.236.562a1.624 1.624 0 0 1-.542.418 1.83 1.83 0 0 1-.413.115c-.165.019-.338.033-.519.043l-.507.029c-.157 0-.283.01-.377.029-.055.01-.126.09-.212.244a8.757 8.757 0 0 0-.248.533c-.078.202-.15.403-.212.605-.063.192-.102.34-.118.446a4.4 4.4 0 0 0 .33-.36 1.826 1.826 0 0 1 .872-.562c.197-.066.44-.1.732-.1.102 0 .196.005.283.014a2.349 2.349 0 0 0 .648-.014c.126-.02.271-.067.436-.144a.755.755 0 0 1-.094.331 2.393 2.393 0 0 1-.224.36 4.53 4.53 0 0 1-.236.317.75.75 0 0 1-.177.158 1.822 1.822 0 0 1-.306.202.74.74 0 0 1-.319.072c-.157 0-.334-.02-.53-.058a3.528 3.528 0 0 0-.672-.057 1.62 1.62 0 0 0-.448.072.952.952 0 0 0-.39.173 1.636 1.636 0 0 0-.058.201 8.383 8.383 0 0 0-.071.317l-.07.346a3.44 3.44 0 0 0-.048.273c.126-.105.271-.187.436-.245.173-.067.346-.115.52-.144.18-.028.353-.043.518-.043.165-.01.314-.014.448-.014.424 0 .806.134 1.144.403.338.26.66.634.966 1.123.055.087.095.154.118.202.032.048.06.096.083.144.023.038.047.081.07.13l.142.215c.024.048.067.125.13.23.063.097.094.174.094.231 0 .02-.004.058-.012.115-.008.048-.02.072-.035.072-.047 0-.09-.024-.13-.072a4.198 4.198 0 0 0-.837-.777 3.014 3.014 0 0 0-.86-.447 3.798 3.798 0 0 0-.932-.201 8.68 8.68 0 0 0-1.026-.058c-.29 0-.562.034-.813.101-.055.02-.118.043-.189.072-.07.02-.141.043-.212.072a2.05 2.05 0 0 1-.271.1c-.04 0-.06-.018-.06-.057 0-.067.012-.149.036-.245.031-.105.063-.201.094-.288a5.56 5.56 0 0 1 .106-.244l.06-.144c.03-.058.066-.23.106-.519.039-.288.086-.614.141-.979.063-.365.138-.74.224-1.123.087-.394.189-.72.307-.98h-.213c-.267 0-.4-.033-.4-.1 0-.02.003-.043.011-.072l.047-.087.566-1.036h2.677m-1.58-1.455a1.453 1.453 0 0 1-.012-.216c0-.24.051-.465.153-.677.095-.21.213-.398.354-.561a3.17 3.17 0 0 1 .802-.706c.29-.182.578-.273.86-.273.228 0 .437-.034.625-.101.181-.077.362-.187.543-.331.07-.058.137-.125.2-.202l.189-.23c.063-.077.118-.14.165-.188C64.74.03 64.78 0 64.812 0c.016 0 .031.02.047.058a.16.16 0 0 1 .024.072c0 .086-.02.201-.06.345a3.86 3.86 0 0 1-.164.447 3.155 3.155 0 0 1-.483.835c-.213.25-.421.427-.626.533a1.44 1.44 0 0 1-.59.144c-.204 0-.436.028-.695.086a2.047 2.047 0 0 0-.672.26 1.238 1.238 0 0 0-.365.345.873.873 0 0 0-.154.518c0 .077.004.183.012.317.008.125.028.25.059.374.024.077.035.14.035.188 0 .115-.066.172-.2.172-.04 0-.083-.024-.13-.072a3.412 3.412 0 0 1-.307-.374 2.802 2.802 0 0 0-.117-.158c-.134-.173-.283-.36-.448-.562a5.532 5.532 0 0 0-.543-.576 3.566 3.566 0 0 0-.6-.432 1.22 1.22 0 0 0-.602-.173.178.178 0 0 0-.142.072c-.039.048-.078.072-.118.072a.076.076 0 0 1-.07-.043.272.272 0 0 1-.024-.1c0-.04.024-.126.07-.26.048-.144.11-.293.19-.446.07-.154.153-.288.247-.404.087-.124.173-.187.26-.187.188 0 .365.067.53.202.165.134.322.307.472.518.141.202.279.427.412.677.126.24.244.47.354.691.024.039.051.096.083.173l.353.72-.035-.46m6.838 1.454c.016 0 .028.014.036.043.008.019.011.038.011.057 0 .24-.062.437-.188.59-.126.145-.271.26-.436.346a2.14 2.14 0 0 1-.484.188c-.157.028-.267.048-.33.057a1.325 1.325 0 0 0-.637.23 1.916 1.916 0 0 0-.436.433c-.11.163-.196.326-.26.49a7.635 7.635 0 0 0-.129.417c.063-.039.142-.072.236-.101a.963.963 0 0 1 .247-.043c.346 0 .641.019.885.057.243.03.452.077.625.144.18.068.334.154.46.26.125.096.24.206.341.33.22.289.405.654.555 1.095.157.432.282.922.377 1.469.102.538.18 1.114.236 1.728.062.605.114 1.224.153 1.858l.177 3.139a.219.219 0 0 1-.036.115c-.023.048-.047.072-.07.072-.04 0-.083-.02-.13-.058a.231.231 0 0 1-.07-.13l-.32-3.052a25.236 25.236 0 0 0-.447-2.822c-.189-.855-.42-1.512-.696-1.973a1.84 1.84 0 0 0-.754-.72C66.262 9.082 65.877 9 65.413 9c-.094 0-.208.014-.342.043a3.74 3.74 0 0 0-.412.115l-.425.116a3.925 3.925 0 0 1-.354.086c-.039 0-.059-.024-.059-.072 0-.058.016-.134.048-.23.039-.106.082-.216.13-.332a3.75 3.75 0 0 1 .188-.345c.07-.125.141-.23.212-.317.032-.115.063-.245.094-.389.04-.144.08-.288.118-.432.048-.153.09-.297.13-.432a3.92 3.92 0 0 1 .142-.374c0-.058-.032-.096-.095-.115h-.212c-.267 0-.4-.034-.4-.101 0-.02.003-.043.01-.072l.048-.087.566-1.036h2.853m2.016 0c.048 0 .071.033.071.1 0 .116-.027.264-.082.447a4.248 4.248 0 0 1-.448.993c-.079.125-.146.188-.2.188a1.287 1.287 0 0 0-.237-.576c-.125-.173-.267-.27-.424-.288l.342-.864h.978m5.165 0c.015 0 .027.014.035.043.008.019.012.038.012.057 0 .24-.06.437-.177.59-.11.154-.24.28-.39.375a1.599 1.599 0 0 1-.435.187 1.75 1.75 0 0 1-.307.044h-.354c-.062.048-.114.163-.153.345a3.572 3.572 0 0 0-.047.605v.605c.196-.029.37-.048.519-.058.15-.019.35-.029.601-.029.456 0 .83.183 1.12.548.299.364.448.936.448 1.713 0 .288-.04.562-.118.821-.07.26-.173.49-.306.691a1.606 1.606 0 0 1-.484.461c-.18.115-.38.173-.601.173a1.22 1.22 0 0 1-.542-.115 1.763 1.763 0 0 1-.401-.317 1.99 1.99 0 0 1-.271-.389c-.071-.134-.13-.26-.177-.374 0 .105-.04.23-.118.374-.07.134-.165.264-.283.389a2.012 2.012 0 0 1-.401.302.827.827 0 0 1-.436.13c-.511 0-.904-.178-1.18-.533-.274-.365-.412-.869-.412-1.512 0-.25.031-.514.094-.792.071-.278.17-.533.295-.763.126-.23.28-.423.46-.576a.922.922 0 0 1 .613-.23 7.592 7.592 0 0 1 1.226.086v-.288c0-.163-.031-.322-.094-.475a1.403 1.403 0 0 0-.248-.404 1.086 1.086 0 0 0-.33-.273.702.702 0 0 0-.365-.115h-.602c-.267 0-.4-.034-.4-.101 0-.02.003-.043.011-.072l.047-.087.566-1.036h3.585m-1.816 5.385c.079.221.224.432.436.634.212.192.5.288.86.288.355 0 .602-.115.744-.346.149-.23.224-.533.224-.907a.989.989 0 0 0-.342-.749c-.228-.22-.554-.331-.979-.331-.133 0-.287.005-.46.014-.165 0-.326.024-.483.072v1.325m-.354-1.325a3.234 3.234 0 0 0-.554-.057A8.17 8.17 0 0 0 71.45 9a1.3 1.3 0 0 0-.554.1.811.811 0 0 0-.33.231.798.798 0 0 0-.142.317 1.253 1.253 0 0 0 .059.778 1.618 1.618 0 0 0 .648.792c.15.086.315.13.496.13.165 0 .31-.034.436-.102.126-.067.232-.153.318-.259.087-.105.154-.22.2-.345a1.45 1.45 0 0 0 .083-.39V9.087m-1.05-7.876a.483.483 0 0 1 .166-.188.36.36 0 0 1 .189-.057c.377 0 .73.115 1.06.345.323.221.606.47.85.75.228.268.412.522.554.762.133.24.224.399.271.476l.578.892.165.274c.04.077.059.134.059.173 0 .086-.036.13-.106.13-.04 0-.079-.02-.118-.058l-.13-.159a5.647 5.647 0 0 0-.908-.979 6.16 6.16 0 0 0-1.002-.72 4.477 4.477 0 0 0-.979-.446 2.882 2.882 0 0 0-.825-.144c-.031 0-.07.038-.118.115-.047.067-.09.1-.13.1-.039 0-.066-.018-.082-.057a.354.354 0 0 1-.035-.158c0-.029.015-.072.047-.13l.106-.201.389-.72m8.843 3.816c.015 0 .027.014.035.043.008.019.012.038.012.057 0 .24-.063.437-.189.59-.118.145-.255.26-.412.346-.15.087-.3.144-.448.173a1.795 1.795 0 0 1-.283.043c-.032 0-.063.02-.095.058a.243.243 0 0 0-.047.158v1.397c.087.048.177.125.271.23.102.097.2.226.295.39.157.268.29.595.4.979.119.384.217.806.296 1.267.086.451.157.936.212 1.454.055.509.094 1.027.118 1.555l.2 4.032a.2.2 0 0 1-.047.13c-.031.038-.063.058-.094.058-.063 0-.106-.02-.13-.058a.367.367 0 0 1-.035-.115c-.04-.202-.079-.475-.118-.821-.032-.336-.067-.696-.106-1.08l-.095-1.123a40.17 40.17 0 0 0-.07-.965c-.063-.845-.2-1.627-.413-2.347-.212-.73-.44-1.32-.684-1.771v.216c0 .144-.035.307-.106.49-.063.182-.15.354-.26.518-.11.163-.235.302-.377.417a.686.686 0 0 1-.436.173c-.244 0-.472-.038-.684-.115a1.736 1.736 0 0 1-.542-.36 1.97 1.97 0 0 1-.366-.59 2.367 2.367 0 0 1-.13-.807c0-.26.052-.514.154-.763a2.35 2.35 0 0 1 .4-.677 2.05 2.05 0 0 1 .578-.475 1.247 1.247 0 0 1 1.038-.13c.134.029.236.053.307.072v-.158a1.203 1.203 0 0 0-.319-.807 1.086 1.086 0 0 0-.33-.273.757.757 0 0 0-.4-.115h-.307c-.268 0-.401-.034-.401-.101 0-.02.004-.043.012-.072l.047-.087.566-1.036h2.983m-2.806 5.716c.338 0 .57-.105.695-.316.126-.212.189-.476.189-.792v-.216a1.075 1.075 0 0 0-.33-.404.865.865 0 0 0-.554-.187c-.134 0-.26.01-.378.029a.761.761 0 0 0-.294.115.625.625 0 0 0-.213.26 1.08 1.08 0 0 0-.07.431 1.168 1.168 0 0 0 .294.792.979.979 0 0 0 .307.216.932.932 0 0 0 .354.072m4.68-5.716c.048 0 .071.033.071.1 0 .116-.027.264-.082.447a4.248 4.248 0 0 1-.448.993c-.08.125-.146.188-.2.188a1.287 1.287 0 0 0-.237-.576c-.125-.173-.267-.27-.424-.288l.342-.864h.978m4.08 0c.016 0 .027.014.035.043.008.019.012.038.012.057 0 .164-.028.308-.083.432-.055.116-.125.221-.212.317a1.014 1.014 0 0 1-.283.216c-.102.058-.2.106-.294.144a.402.402 0 0 0-.13.087c-.04.038-.06.1-.06.187v1.195c.26.173.48.38.661.62.189.23.358.48.507.748.157.269.307.547.448.835.15.279.315.547.495.807l.366.532v-.518c0-.355-.024-.74-.07-1.152-.04-.422-.08-.83-.119-1.224a15.693 15.693 0 0 0-.094-.62 8.018 8.018 0 0 0-.118-.662 4.235 4.235 0 0 0-.13-.532c-.039-.144-.074-.216-.106-.216a.199.199 0 0 0-.118.043c-.031.029-.055.043-.07.043a.287.287 0 0 1-.083-.014c-.024-.02-.035-.048-.035-.087 0-.038.011-.072.035-.1l.059-.073.79-.964a.424.424 0 0 1 .13-.116.317.317 0 0 1 .106-.028h.53c.079 0 .118.048.118.144 0 .019-.016.072-.047.158a5.178 5.178 0 0 1-.094.302 9.742 9.742 0 0 1-.106.36 58.04 58.04 0 0 0-.083.332c-.04.192-.075.398-.106.619a6.108 6.108 0 0 0-.035.677v3.974c.047.096.07.211.07.346 0 .048-.027.09-.082.13a.242.242 0 0 1-.118.042.199.199 0 0 1-.118-.043 646.62 646.62 0 0 1-.106-.13l-2.476-2.62c0 .153-.028.34-.083.561-.055.221-.141.432-.259.634a1.852 1.852 0 0 1-.448.518.945.945 0 0 1-.625.216c-.228 0-.428-.048-.601-.144a1.328 1.328 0 0 1-.437-.388 1.853 1.853 0 0 1-.27-.562 2.848 2.848 0 0 1-.083-.691c0-.298.047-.576.141-.835.102-.26.228-.48.378-.663.157-.192.33-.34.518-.446a1.13 1.13 0 0 1 .554-.159c.118 0 .228.01.33.03.11.018.205.038.284.057.086.029.169.057.247.086a1.34 1.34 0 0 0-.07-.417 1.826 1.826 0 0 0-.177-.39 1.271 1.271 0 0 0-.236-.287c-.079-.077-.154-.115-.224-.115h-.79c-.267 0-.401-.034-.401-.101 0-.02.004-.043.012-.072l.047-.087.566-1.036h2.64m-1.367 4.132a1.356 1.356 0 0 0-.365-.345c-.15-.106-.39-.159-.72-.159-.33 0-.554.048-.672.144a.436.436 0 0 0-.176.375c0 .115.015.254.047.417.031.154.086.303.165.447.086.144.196.269.33.374a.847.847 0 0 0 .507.144.648.648 0 0 0 .413-.13c.117-.086.212-.191.283-.316.07-.135.117-.274.141-.418.031-.153.047-.288.047-.403v-.13m1.167-5.587a1.453 1.453 0 0 1-.011-.216c0-.24.05-.465.153-.677.094-.21.212-.398.354-.561a3.17 3.17 0 0 1 .801-.706c.291-.182.578-.273.861-.273.228 0 .436-.034.625-.101.18-.077.362-.187.542-.331.071-.058.138-.125.2-.202l.19-.23a2.84 2.84 0 0 1 .164-.188c.048-.057.087-.086.118-.086.016 0 .032.02.048.058a.16.16 0 0 1 .023.072c0 .086-.02.201-.059.345-.04.135-.094.283-.165.447a3.155 3.155 0 0 1-.483.835c-.213.25-.42.427-.625.533a1.44 1.44 0 0 1-.59.144c-.204 0-.436.028-.695.086a2.047 2.047 0 0 0-.672.26 1.238 1.238 0 0 0-.366.345.872.872 0 0 0-.153.518c0 .077.004.183.012.317.007.125.027.25.059.374a.67.67 0 0 1 .035.188c0 .115-.067.172-.2.172-.04 0-.083-.024-.13-.072a3.407 3.407 0 0 1-.307-.374 2.801 2.801 0 0 0-.118-.158 25.96 25.96 0 0 0-.448-.562 5.531 5.531 0 0 0-.542-.576 3.566 3.566 0 0 0-.601-.432 1.22 1.22 0 0 0-.602-.173.178.178 0 0 0-.141.072c-.04.048-.079.072-.118.072a.076.076 0 0 1-.07-.043.272.272 0 0 1-.024-.1c0-.04.023-.126.07-.26.048-.144.11-.293.189-.446.07-.154.153-.288.248-.404.086-.124.173-.187.259-.187.189 0 .365.067.53.202.166.134.323.307.472.518.142.202.28.427.413.677.126.24.243.47.354.691.023.039.05.096.082.173l.354.72-.036-.46M90.94 8.87c-.039.538-.07 1.1-.094 1.685l-.047 1.771c-.008.586-.012 1.172-.012 1.757v3.096c0 .058-.008.12-.023.187-.016.068-.056.101-.118.101-.055 0-.103-.033-.142-.1a.445.445 0 0 1-.047-.188v-1.771c0-1.507-.051-2.986-.153-4.435-.095-1.46-.185-2.923-.271-4.392 0-.039-.024-.087-.071-.144-.047-.067-.118-.101-.212-.101h-.154c-.055 0-.09.014-.106.043-.016.02-.04.029-.07.029-.048 0-.08-.01-.095-.029a.385.385 0 0 1-.012-.1c0-.02.016-.049.047-.087l.107-.13.707-.864c.094-.115.165-.172.212-.172h.578c.086 0 .13.038.13.115a.421.421 0 0 1-.024.13 5.2 5.2 0 0 0-.13 1.31v2.29"/></svg>