<svg xmlns="http://www.w3.org/2000/svg" width="120" height="32"><path fill="#000" fill-rule="nonzero" d="M4.23 25.377c-.692 0-1.038.346-1.038 1.038 0 .691.346 1.037 1.038 1.037.691 0 1.037-.346 1.037-1.037 0-.692-.346-1.038-1.037-1.038M.989 17.891C1.43 14.163 4.143 12.3 9.124 12.3c5.401 0 8.102 1.604 8.102 4.813v9.464c0 3.165-2.582 4.748-7.746 4.748-2.766 0-4.943-.422-6.53-1.264-1.578-.854-2.367-2.053-2.367-3.598 0-2.269 1.237-3.403 3.711-3.403 2.388 0 3.582 1.161 3.582 3.484 0 .66-.373 1.383-1.118 2.172.27.086 1.177.13 2.722.13 3.09 0 4.635-1.167 4.635-3.501V18.02c0-2.204-1.664-3.306-4.991-3.306-3.187 0-4.91 1.151-5.17 3.452L.99 17.891m2.09-12.462c0 2.02 1.583 3.03 4.748 3.03v2.042C2.61 10.501 0 8.778 0 5.331 0 1.897 2.971.179 8.913.179c5.575 0 8.362 1.718 8.362 5.154 0 3.446-2.426 5.169-7.276 5.169V8.459c2.776 0 4.175-1.01 4.197-3.03 0-2.129-1.761-3.193-5.283-3.193-3.89 0-5.834 1.064-5.834 3.193m22.477 21.569c-.68 0-1.021.346-1.021 1.037 0 .692.34 1.037 1.02 1.037.703 0 1.054-.345 1.054-1.037 0-.691-.351-1.037-1.053-1.037m0-12.56c-.68 0-1.021.347-1.021 1.038 0 .691.34 1.037 1.02 1.037.703 0 1.054-.346 1.054-1.037s-.351-1.037-1.053-1.037m4.035 13.466c0 2.215-1.345 3.323-4.035 3.323-2.485 0-3.728-1.086-3.728-3.258 0-2.247 1.594-3.37 4.781-3.37v-5.964c-.465.086-.816.13-1.053.13-2.485 0-3.728-1.167-3.728-3.5 0-1.978 1.243-2.966 3.728-2.966 1.815 0 2.96.437 3.435 1.312.821-.875 2.253-1.312 4.295-1.312 4.386 0 6.579 1.74 6.579 5.218v13.37h-2.982v-13.37c0-1.837-1.22-2.755-3.662-2.755-1.48 0-2.69.767-3.63 2.301v10.841M25.345 5.251c0 2.02 1.583 3.03 4.748 3.03v2.042c-5.218 0-7.827-1.723-7.827-5.17C22.266 1.718 25.237 0 31.179 0c5.575 0 8.362 1.718 8.362 5.153 0 3.447-2.426 5.17-7.276 5.17V8.28c2.776 0 4.175-1.01 4.197-3.03 0-2.129-1.761-3.193-5.283-3.193-3.89 0-5.834 1.064-5.834 3.193m22.38 9.787c-.39 0-.66.087-.81.26-.152.173-.228.432-.228.778 0 .4.087.675.26.826.173.14.432.21.778.21.4 0 .67-.091.81-.275.151-.183.227-.437.227-.761 0-.4-.087-.67-.26-.81-.172-.152-.432-.227-.777-.228m1.571 13.694c1.772 0 2.658-.902 2.658-2.706v-4.992h2.982v5.008c0 1.826.875 2.739 2.625 2.739 1.675 0 2.512-.919 2.512-2.755V12.818h2.982v13.208c0 3.424-1.853 5.137-5.559 5.137-1.599 0-2.95-.4-4.051-1.2-1.113.8-2.641 1.2-4.586 1.2-3.479 0-5.218-1.713-5.218-5.137 0-2.593.826-4.786 2.48-6.58-1.48-.4-2.22-1.453-2.22-3.16 0-2.679 1.241-4.019 3.726-4.019 2.55 0 3.825 1.189 3.825 3.566 0 1.48-1.253 3.684-3.76 6.611-.713.832-1.07 2.026-1.07 3.582 0 1.804.892 2.706 2.674 2.706M48.113 5.51c0 2.02 1.583 3.03 4.749 3.03v2.042c-5.218 0-7.828-1.723-7.828-5.17 0-3.435 2.971-5.153 8.913-5.153 5.575 0 8.362 1.718 8.362 5.154 0 1.285-.335 2.328-1.004 3.127h3.435v2.042h-9.707V8.54c2.787 0 4.186-1.01 4.197-3.03.011-2.128-1.75-3.193-5.283-3.193-3.889 0-5.834 1.065-5.834 3.193m27.258 22.752c-.011 1.21-.378 2.026-1.102 2.447-.724.432-1.923.648-3.598.648-2.614 0-3.922-1.76-3.922-5.283v-10.08c0-2.463 1.254-3.694 3.76-3.694 2.204 0 3.879.4 5.024 1.199l-1.135 1.912c-.864-.486-2.03-.729-3.5-.729-.778 0-1.167.427-1.167 1.28v11.911c.12-.55.39-1.075.81-1.572.433-.508 1.086-.762 1.961-.762 1.923 0 2.88.908 2.869 2.723m-2.917 1.15c.389 0 .653-.086.794-.259.151-.173.232-.432.243-.778 0-.389-.092-.659-.276-.81-.172-.151-.426-.227-.761-.227-.4 0-.675.087-.827.26-.14.172-.21.432-.21.777-.011.39.07.66.243.81.183.152.448.228.794.228m11.587-2.334c-.692 0-1.038.346-1.038 1.037 0 .692.346 1.037 1.038 1.037.69 0 1.037-.345 1.037-1.037 0-.691-.346-1.037-1.037-1.037m9.836 3.808V17.94c0-2.139-1.766-3.208-5.299-3.208-3.576 0-5.364 1.07-5.364 3.208v7c3.036 0 4.554 1.06 4.554 3.177 0 2.16-1.243 3.241-3.727 3.241-2.54 0-3.809-1.08-3.809-3.24v-10.6c0-2.203.773-3.624 2.318-4.261 1.555-.637 3.565-.956 6.028-.956 2.312 0 4.267.319 5.866.956 1.61.637 2.415 2.058 2.415 4.262v13.37h-2.982m13.45-14.861c.39 0 .66-.086.81-.26.152-.172.228-.431.228-.777 0-.39-.092-.654-.276-.794-.173-.151-.427-.232-.762-.243-.4-.011-.675.075-.826.259-.14.173-.21.432-.21.778 0 .389.086.659.259.81.172.151.432.227.777.227m-6.012 9.982c0-1.544.892-2.781 2.674-3.71-1.793-1.178-2.684-3.03-2.674-5.559.011-3.252 1.983-4.872 5.915-4.862 2.377.011 3.565 1.005 3.565 2.982 0 2.14-1.193 3.22-3.581 3.241-1.394.011-2.382-.718-2.966-2.187.022 2.041.519 3.446 1.491 4.213.703.562 1.832.778 3.387.648v2.61l-2.285.372c-1.588.26-2.382.994-2.382 2.204 0 1.815 2.134 2.755 6.401 2.82 4.106.064 6.158-2.312 6.158-7.13v-9.319H120v9.318c0 6.353-3.047 9.524-9.14 9.513-6.363-.011-9.545-1.729-9.545-5.154"/></svg>