<?xml version="1.0" encoding="UTF-8"?>
<svg xmlns="http://www.w3.org/2000/svg" width="137" height="18" viewBox="0 0 137 18">
	<title>jvws-wordmark</title>
	<g id="Page-1" fill="none" fill-rule="evenodd" stroke="none" stroke-width="1">
		<path id="jvws-wordmark1" fill="#000" fill-rule="nonzero" d="M132.889 8.213q0-1.226-.533-1.8-.534-.573-1.707-.573-1.773 0-1.773.853v4.414h.933q1.587 0 2.333-.667.747-.667.747-2.227zm-4.013 6.12q0 1.64.253 2.014.267.36 1.307.48.106.133.106.466 0 .32-.106.427-2.347-.053-2.627-.053-.76 0-3.053.053-.107-.107-.107-.427 0-.333.107-.466 1.306-.107 1.626-.48.334-.374.334-2.014V8.44q0-1.64-.334-2.013-.32-.387-1.626-.48-.107-.134-.107-.454 0-.333.107-.44 2.346.054 3.026.054.574 0 1.52-.027.947-.027 1.24-.027 2.68 0 3.667.734 1 .733 1 2.426 0 1.36-.933 2.214-.92.853-2.334.986v.027q.627.053 1.174.6.546.547.813 1.227l.933 2.053q.414.907.787 1.24.387.32 1.12.32.267.333.16.813-.467.24-1.573.24-.934 0-1.547-.573-.613-.573-1.187-1.853l-.746-1.64q-.24-.52-.48-.854-.227-.346-.84-.666-.614-.334-1.454-.334h-.226zm-10.64-2.813h-1.56v4.093q0 .414.254.814.266.4.626.4h2.267q2.133 0 2.947-2.987.386-.107.76.107-.387 2.24-.814 3.773-1.8-.053-2.893-.053h-4.213q-1.907.026-3.054.053-.133-.107-.133-.427 0-.333.133-.466 1.307-.107 1.627-.48.333-.374.333-2.014V8.44q0-1.64-.333-2.013-.32-.387-1.627-.48-.133-.134-.133-.454 0-.333.133-.44l3.027.054h5.653q.36 0 1.12-.107.08 0 .08.08.187.653.494 3.253-.36.16-.734.134-.44-1.36-.906-1.907-.467-.547-1.64-.547h-2.094q-.386 0-.64.2-.24.2-.24.56v3.88h1.56q.6 0 .92-.066.334-.08.534-.12.213-.04.293-.307.08-.28.093-.4.014-.12.04-.64.107-.107.373-.107.28 0 .387.107-.053 1.36-.053 1.933 0 .414.053 2-.107.107-.387.107-.266 0-.373-.107-.053-.933-.24-1.16-.347-.373-1.64-.373zm-14.813-4.453v3.36h2.133q1.334 0 1.947-.56t.613-1.787q0-2.133-2.613-2.133-1.333 0-1.707.226-.373.214-.373.894zm0 4.266v4.094q0 .813.36 1.106.373.294 1.667.294 3.226 0 3.213-2.76 0-2.734-3.107-2.734zm-1.067 6.334q-.76 0-3.053.053-.133-.107-.133-.427 0-.333.133-.466 1.307-.107 1.627-.48.333-.374.333-2.014V8.44q0-1.64-.333-2.013-.32-.387-1.627-.48-.133-.134-.133-.454 0-.333.133-.44 2.347.054 3.027.054.68 0 1.773-.027t1.427-.027q2.706 0 3.68.827.986.813.986 2.173 0 .787-.573 1.6-.573.8-1.4 1.187 2.813.653 2.813 3.413 0 1.454-1.2 2.467-1.2 1-3.706 1-.84 0-2.147-.027-1.293-.026-1.627-.026zM93.996 7.24l-4.347 10.533q-.08.214-.293.227-.24 0-.333-.227l-3.88-10.346h-.054l-.786 6.933q-.214 1.507-.014 1.947.2.426 1.32.52.134.133.134.466 0 .32-.134.427-1.093-.053-2.093-.053-.44 0-1.813.053-.107-.107-.107-.427 0-.333.107-.466.6-.054.853-.174.253-.133.453-.653.214-.52.347-1.64l.893-7.893V6.32q0-.067-.04-.107-.04-.04-.106-.08-.054-.04-.134-.066-.08-.027-.16-.04-.08-.014-.226-.014-.134 0-.254-.013-.12-.027-.306-.04-.174-.013-.334-.013-.106-.134-.106-.454 0-.333.106-.44l3.8.054 3.494 9.773 3.96-9.773 3.546-.054q.107.107.107.44 0 .32-.107.454-1.093.08-1.346.253-.24.16-.187.96l.547 7.147q.133 1.706.333 2.053.213.333 1.253.467.107.133.107.466 0 .32-.107.427-1.853-.053-2.346-.053-.6 0-2.734.053-.106-.107-.106-.427 0-.333.106-.466.427-.04.627-.067.213-.04.413-.16.2-.133.254-.227.066-.106.106-.453.054-.347.04-.64l-.04-.973-.36-7.067Zm-16.439 1.2q0-1.64-.333-2.013-.32-.387-1.627-.48-.133-.134-.147-.454 0-.333.147-.44 1.64.054 2.587.054.986 0 2.626-.054.107.107.107.44 0 .32-.107.454-1.306.106-1.64.48-.333.373-.333 2.013v3.107q0 3.226-1.173 4.813-1.174 1.573-4.174 1.573-.96 0-1.786-.24-.814-.24-1.56-.8-.747-.56-1.187-1.626-.44-1.067-.44-2.547V8.44q0-1.64-.333-2.013-.32-.387-1.627-.48-.107-.134-.107-.454 0-.333.107-.44 2.347.054 3.027.054.76 0 3.053-.054.133.107.133.44.014.32-.133.454-1.307.106-1.64.48-.32.373-.32 2.013v3.707q0 1.093.107 1.866.106.76.413 1.52.32.747 1.013 1.134.707.373 1.747.373.88 0 1.52-.187.64-.2 1.013-.626.387-.44.614-.854.24-.413.333-1.12.093-.706.107-1.133.013-.427.013-1.213zM64.41 5.427q.107.733.107 2.906-.333.187-.733.054-.307-1.28-1.12-1.96-.8-.694-1.84-.694-1.027 0-1.6.52-.574.52-.574 1.414 0 1.28 2.64 2.493 3.8 1.64 3.8 3.987 0 1.773-1.08 2.813Q62.93 18 61.104 18q-1.254 0-2.307-.24-1.053-.227-1.107-.227-.186 0-.48.067-.28.067-.426.093-.214-.933-.294-3.853.574-.16.867-.053.653 3.306 3.253 3.306 2.347 0 2.347-2.346 0-1.067-.68-1.667-.68-.6-2.267-1.333-3.253-1.507-3.253-3.587 0-1.587 1.227-2.453 1.24-.88 2.813-.88 1.28 0 2.373.306 1.107.294 1.24.294zM52.945 8.44v5.893q0 1.64.32 2.027.333.373 1.653.467.134.133.134.466 0 .32-.134.427-2.346-.053-3.04-.053-.76 0-3.053.053-.107-.107-.107-.427 0-.333.107-.466 1.307-.107 1.627-.48.333-.374.333-2.014V8.44q0-1.64-.333-2.013-.32-.387-1.627-.48-.107-.134-.107-.454 0-.333.107-.44 2.347.054 3.027.054.76 0 3.066-.054.134.107.134.44 0 .32-.134.454-1.306.106-1.64.48-.333.373-.333 2.013zm-16.733 0q0-1.64-.333-2-.32-.373-1.627-.493-.107-.134-.107-.454 0-.333.107-.44 2.293.054 3.053.054.267 0 2.627-.054.107.107.107.44 0 .32-.107.454-1.04.106-1.307.48-.253.373-.253 2.013v2.427q1.307 0 2.867-1.747 2.026-2.293 1.826-2.827-.12-.293-.813-.346-.133-.134-.133-.454 0-.333.133-.44 2.347.054 3 .054.44 0 1.92-.054.133.107.133.44 0 .32-.133.454-2.027.106-2.933 1.146L41.892 9.8q-.627.653-.627 1.013 0 .16.254.467l4.04 4.747q.573.653 1.746.8.107.133.107.44 0 .293-.107.426-1.333-.026-2.106-.026-1.094 0-1.694.053v-.387q0-.626-.413-1.08l-3.027-3.773q-.52-.68-1.693-.68v2.533q0 1.64.253 2.014.267.36 1.307.48.107.133.107.466 0 .32-.107.427-2.347-.053-2.627-.053-.76 0-3.053.053-.107-.107-.107-.427 0-.333.107-.466 1.307-.107 1.627-.48.333-.374.333-2.014zm-5.533 0v5.893q0 1.64.32 2.027.333.373 1.653.467.133.133.133.466 0 .32-.133.427-2.347-.053-3.04-.053-.76 0-3.053.053-.107-.107-.107-.427 0-.333.107-.466 1.306-.107 1.626-.48.334-.374.334-2.014V8.44q0-1.64-.334-2.013-.32-.387-1.626-.48-.107-.134-.107-.454 0-.333.107-.44 2.346.054 3.026.054.76 0 3.067-.054.133.107.133.44 0 .32-.133.454-1.307.106-1.64.48-.333.373-.333 2.013zM15.733.907Q15.6.8 15.587.467q0-.334.146-.467 2.027.053 2.147.053.627 0 2-.053.133.133.133.467 0 .32-.133.44-.96.146-1.52.746-.547.6-1.16 1.787l-2 3.8 3.493 7.227h.12L24 3.253q.547-1.093.307-1.666-.227-.574-1.48-.68-.134-.107-.134-.44 0-.334.134-.467 2.573.053 2.706.053.214 0 2.4-.053.107.133.107.467 0 .32-.107.44-.266.026-.506.093-.227.067-.414.12-.173.053-.346.187-.174.133-.294.213-.106.067-.253.267-.133.186-.2.266-.053.067-.187.32-.12.254-.16.334-.026.066-.16.373-.133.293-.16.36l-6.466 13.92q-.307.627-.654.64-.413 0-.626-.64l-3.68-7.92L9.8 17.36q-.24.627-.653.64-.387 0-.627-.64L2.587 3.387q-.067-.147-.174-.4-.546-1.28-.906-1.64Q1.16.987.133.907 0 .773 0 .453T.107 0q2.573.053 2.84.053.466 0 3.04-.053.106.133.106.467 0 .32-.106.44-1.254.133-1.467.573-.2.44.347 1.6l5 11.387H10l3.053-6.2-2.306-4.88q-.72-1.52-1.094-1.947Q9.28 1.013 8.44.907 8.307.773 8.307.453T8.413 0q1.747.053 2.427.053.52 0 2.48-.053.133.133.133.467.014.32-.133.44-.827.12-.853.573-.027.44.573 1.6l1.347 2.76.12.12 1.44-2.707q.466-.84.586-1.293.12-.453-.053-.707-.173-.266-.747-.346Z"/>
	</g>
	<defs id="defs7">
		<path id="jvws-wordmark2" fill="#000" fill-rule="nonzero" d="M16.044 137.729c-.159-.159-.159-.716 0-.875.981.027 1.484.053 2.094.053.61 0 1.272-.026 1.934-.053.16.16.16.716 0 .875-1.378.212-1.953 1.222-2.604 2.465l-1.938 3.686 3.39 7.02h.122l5.032-10.892c.628-1.434.583-2.147-1.14-2.279-.159-.159-.159-.716 0-.875 1.246.027 2.014.053 2.624.053.61 0 1.272-.026 2.332-.053.159.16.159.716 0 .875-1.749.212-2.054 1.224-2.605 2.465l-6.272 13.515c-.186.397-.345.609-.636.609-.265 0-.47-.215-.61-.61l-3.564-7.692-3.909 7.693c-.159.397-.344.609-.636.609-.265 0-.45-.212-.61-.61l-5.763-13.567c-.808-1.882-.861-2.28-2.372-2.412-.159-.159-.185-.716-.027-.875 1.246.027 1.696.053 2.756.053 1.034 0 1.696-.026 2.942-.053.159.16.159.716 0 .875-1.67.185-1.741.604-1.076 2.12l4.852 11.05h.122l2.96-6.02-2.234-4.738c-.888-1.882-1.1-2.253-2.239-2.412-.159-.159-.185-.716-.026-.875.848.027 1.298.053 2.358.053 1.034 0 1.458-.026 2.412-.053.159.16.159.716 0 .875-1.113.159-1.007.61-.281 2.12l1.303 2.677.117.119 1.404-2.637c.82-1.537.928-2.12-.212-2.279zm13.597 7.314v5.724c0 2.2.291 2.305 1.908 2.412.159.158.159.715 0 .874-1.14-.026-1.802-.053-2.941-.053-1.166 0-1.855.026-2.968.053-.16-.159-.16-.716 0-.875 1.616-.132 1.908-.212 1.908-2.411v-5.724c0-2.2-.292-2.305-1.908-2.412-.16-.158-.16-.715 0-.874 1.139.026 1.802.053 2.941.053 1.166 0 1.855-.026 2.968-.053.159.159.159.716 0 .875-1.616.132-1.908.212-1.908 2.411zm4.936 0c0-2.2-.291-2.279-1.908-2.412-.159-.158-.159-.715 0-.874 1.113.026 1.802.053 2.968.053.98 0 1.405-.026 2.544-.053.159.159.159.716 0 .875-1.272.132-1.51.212-1.51 2.411v2.358c.874 0 1.65-.418 2.782-1.696 2.04-2.305 2.305-2.994.98-3.074-.159-.159-.159-.715 0-.874 1.14.026 2.147.053 2.915.053.69 0 1.14-.027 1.855-.053.16.159.16.715 0 .874-1.06.053-2.032.189-2.835 1.113l-2.279 2.624c-.45.477-.61.768-.61.98 0 .16.106.292.239.451l3.922 4.611c.347.403.98.689 1.696.768.159.16.159.69 0 .848 0 0-1.299-.026-2.04-.026-.69 0-1.352.026-1.644.053v-.371c0-.344-.026-.636-.397-1.06l-2.942-3.657c-.397-.53-1.06-.663-1.643-.663v2.465c0 2.2.239 2.279 1.511 2.411.159.16.159.716 0 .875-1.14-.026-1.563-.053-2.544-.053-1.166 0-1.855.026-2.968.053-.159-.159-.159-.716 0-.875 1.617-.132 1.908-.212 1.908-2.411zm15.774 0v5.724c0 2.2.292 2.305 1.909 2.412.159.158.159.715 0 .874-1.14-.026-1.802-.053-2.942-.053-1.166 0-1.855.026-2.968.053-.159-.159-.159-.716 0-.875 1.616-.132 1.908-.212 1.908-2.411v-5.724c0-2.2-.292-2.305-1.908-2.412-.159-.158-.159-.715 0-.874 1.14.026 1.802.053 2.941.053 1.166 0 1.855-.026 2.968-.053.16.159.16.716 0 .875-1.616.132-1.908.212-1.908 2.411zm10.687-2.915c.159 1.087.106 2.014.106 2.809a.851.851 0 0 1-.715.053c-.398-1.696-1.564-2.57-2.862-2.57-1.378 0-2.12.742-2.12 1.881 0 1.272 1.934 2.12 2.57 2.412 1.299.556 3.684 1.801 3.684 3.868 0 2.282-1.511 3.737-3.87 3.737-2.04 0-2.808-.45-3.312-.45-.318 0-.503.105-.874.158-.186-.848-.231-1.868-.292-3.736.262-.074.517-.17.848-.053.477 2.358 1.67 3.206 3.154 3.206 1.563 0 2.279-.742 2.279-2.279 0-1.51-1.14-2.117-2.862-2.915-1.087-.503-3.154-1.537-3.154-3.471 0-2.173 2.067-3.233 3.922-3.233 2.147 0 2.836.583 3.498.583zm7.63.292c-1.987 0-3.974 1.802-3.974 5.379 0 3.26 1.828 5.592 4.399 5.592 2.358 0 3.975-1.988 3.975-5.247 0-3.551-2.041-5.724-4.4-5.724zm6.705 5.353c0 3.445-2.332 6.492-6.678 6.492-3.577 0-6.307-2.544-6.307-6.148 0-3.895 2.836-6.572 6.519-6.572 3.445 0 6.466 2.465 6.466 6.228zm10.787-2.73c0-2.2-.291-2.305-1.907-2.411-.16-.16-.16-.716 0-.875a78.21 78.21 0 0 0 2.517.053c.795 0 1.749-.026 2.544-.053.159.159.159.716 0 .875-1.617.132-1.908.212-1.908 2.411v3.021c0 3.869-1.087 6.201-5.194 6.201-2.253 0-4.823-1.086-4.823-5.061v-4.161c0-2.2-.292-2.305-1.908-2.412-.159-.158-.159-.715 0-.874 1.14.026 1.802.053 2.941.053 1.166 0 1.855-.026 2.968-.053.16.159.16.716 0 .875-1.616.132-1.908.212-1.908 2.411v3.604c0 2.465.345 4.744 3.18 4.744 3.498 0 3.498-2.703 3.498-4.982zm12.2-.212c0-1.59-.662-2.305-2.173-2.305-1.378 0-1.722.317-1.722.821v4.293h.9c2.015 0 2.995-.742 2.995-2.809zm-3.896 5.936c0 2.2.239 2.279 1.511 2.412.159.158.159.715 0 .874-1.14-.026-1.563-.053-2.544-.053-1.166 0-1.855.026-2.968.053-.159-.159-.159-.716 0-.875 1.617-.132 1.908-.212 1.908-2.411v-5.724c0-2.2-.291-2.305-1.908-2.412-.159-.158-.159-.715 0-.874 1.14.026 1.802.053 2.942.053 1.033 0 2.013-.053 2.676-.053 3.578 0 4.532.98 4.532 3.074 0 1.829-1.405 2.942-3.18 3.1v.027c.874.08 1.616.954 1.934 1.776l.901 1.987c.514 1.134.901 1.51 1.855 1.51.233.273.225.523.159.796-.344.185-1.14.238-1.537.238-1.272 0-1.95-.803-2.65-2.358l-.716-1.59c-.35-.78-.9-1.802-2.703-1.802h-.212zm14.162 3.498c-1.961 0-3.448-.538-4.505-1.51-1.301-1.198-1.828-3.008-1.828-4.691 0-3.869 2.702-6.519 6.2-6.519 2.12 0 3.313.424 4.32.424.26 1.195.31 2.303.318 3.392-.265.17-.53.159-.795.08-.318-1.856-1.563-3.022-3.683-3.022-1.988 0-4.055.928-4.055 5.38 0 2.623 1.537 5.459 4.16 5.459 1.776 0 2.704-.53 3.923-1.961.262.09.408.355.53.53-1.246 1.67-2.518 2.438-4.585 2.438zm11.216-6.228h-1.51v3.975c0 .504.371 1.166.848 1.166h2.2c1.669 0 2.438-1.325 2.862-2.888.291-.08.503-.026.741.106-.185 1.113-.476 2.57-.794 3.657 0 0-1.75-.053-2.81-.053h-4.08s-1.856.026-2.969.053c-.158-.159-.158-.716 0-.875 1.617-.132 1.909-.212 1.909-2.411v-5.724c0-2.2-.292-2.305-1.909-2.412-.158-.158-.158-.715 0-.874 1.14.026 2.942.053 2.942.053h5.486c.53 0 .715-.053 1.086-.106.053 0 .08.026.08.08.052.185.37 2.252.476 3.153-.211.106-.45.159-.715.133-.477-1.511-.822-2.385-2.465-2.385h-2.04c-.503 0-.848.291-.848.742v3.763h1.51c1.856-.027 1.776-.292 1.829-1.484.133-.133.61-.133.742 0-.026.662-.053 1.139-.053 1.881s.027 1.166.053 1.935c-.132.132-.61.132-.742 0-.053-.981.053-1.484-1.829-1.484z"/>
	</defs>
</svg>
