<svg xmlns="http://www.w3.org/2000/svg" width="120" height="13"><path fill="#000" fill-rule="nonzero" d="M4.7.897c.022.165.043.362.065.592.026.225.05.422.072.591.021.165.05.343.084.533l-.41.078a5.765 5.765 0 0 0-.175-.513 2.474 2.474 0 0 0-.227-.455 1.374 1.374 0 0 0-.339-.39c-.12-.1-.28-.182-.474-.247a2.091 2.091 0 0 0-.663-.098c-.43 0-.78.145-1.053.436-.273.286-.41.637-.41 1.053 0 .776.603 1.38 1.807 1.814.256.09.481.182.676.273.2.086.408.206.625.357.22.148.403.306.546.475a2.291 2.291 0 0 1 .5 1.45c0 .689-.27 1.29-.812 1.807a2.72 2.72 0 0 1-1.944.773c-.403 0-.83-.032-1.28-.097A7.83 7.83 0 0 0 .253 9.23C.232 8.763.147 8.052 0 7.1l.41-.039c.264 1.261 1.018 1.892 2.262 1.892.511 0 .903-.139 1.176-.416.274-.278.41-.685.41-1.222 0-.282-.037-.527-.11-.735a1.342 1.342 0 0 0-.332-.533 2.072 2.072 0 0 0-.455-.351 4.315 4.315 0 0 0-.579-.273c-.286-.109-.53-.21-.734-.306a6.4 6.4 0 0 1-.67-.37 2.955 2.955 0 0 1-.585-.488 2.325 2.325 0 0 1-.377-.617c-.1-.247-.15-.514-.15-.8 0-.45.128-.856.384-1.216s.57-.63.943-.812c.377-.187.765-.28 1.163-.28.364 0 .65.022.858.065.208.044.397.098.566.163.17.065.342.11.52.136M7.03 8.341V1.8c0-.412-.033-.687-.098-.826-.06-.143-.162-.214-.305-.214L6.203.735C6.147.735 6.12.713 6.12.67L6.093.35c.277-.022.604-.067.982-.136.377-.074.65-.146.819-.215.112 0 .169.045.169.137-.026.355-.04.82-.04 1.397v6.807c0 .195.04.333.118.416.078.082.225.134.442.156l.318.026c.074 0 .11.034.11.104v.253l-.025.026c-.893-.017-1.387-.026-1.482-.026-.083 0-.566.008-1.45.026l-.013-.026v-.253c0-.07.03-.104.09-.104l.32-.026c.22-.022.372-.074.454-.156.083-.083.124-.221.124-.416m2.57-1.775c0-.932.242-1.684.728-2.256.485-.572 1.161-.858 2.028-.858.381 0 .728.06 1.04.182.312.117.57.275.774.475.208.195.38.424.52.689.143.26.244.528.305.806.06.277.091.559.091.845 0 .347-.058.691-.175 1.033a3.42 3.42 0 0 1-.494.95c-.213.294-.501.535-.865.721a2.695 2.695 0 0 1-1.222.273c-.43 0-.821-.084-1.177-.253a2.404 2.404 0 0 1-.864-.67 3.064 3.064 0 0 1-.69-1.937m2.607-2.672c-.338 0-.622.121-.851.364-.23.238-.393.529-.488.871a4.398 4.398 0 0 0-.078 1.814c.043.234.113.474.208.722.095.247.21.468.345.663.134.195.305.355.513.48.213.122.444.183.696.183.169 0 .327-.028.474-.085.152-.06.3-.162.442-.305.148-.148.265-.369.351-.663.087-.295.13-.65.13-1.067 0-.966-.151-1.703-.455-2.21-.303-.511-.732-.767-1.287-.767m5.294 4.46c.16.199.312.353.455.461a.834.834 0 0 0 .507.163c.606 0 1.068-.245 1.384-.735.321-.49.481-1.133.481-1.93 0-.642-.143-1.182-.429-1.62-.286-.437-.632-.656-1.04-.656-.09 0-.193.008-.305.026a2.022 2.022 0 0 0-.494.156 1.675 1.675 0 0 0-.56.377v3.758M16.505 1.8c0-.412-.033-.687-.098-.826-.06-.143-.162-.214-.305-.214l-.423-.026c-.056 0-.084-.022-.084-.065L15.568.35a9.1 9.1 0 0 0 .981-.143c.386-.074.66-.143.82-.208.112 0 .169.045.169.137-.026.355-.04.82-.04 1.397v2.653c.451-.49.993-.735 1.626-.735.29 0 .574.063.851.188.278.122.527.293.748.514.221.217.399.494.533.832.134.334.202.696.202 1.086 0 .507-.09.977-.267 1.41-.173.434-.4.79-.683 1.067a3.25 3.25 0 0 1-.936.65 2.532 2.532 0 0 1-1.033.227c-.546 0-1.008-.162-1.385-.487a3.206 3.206 0 0 1-.436.52.468.468 0 0 1-.28-.072c.044-.242.066-.587.066-1.033V1.8m5.891 4.765c0-.932.243-1.684.728-2.256.486-.572 1.162-.858 2.029-.858.381 0 .728.06 1.04.182.312.117.57.275.773.475.208.195.382.424.52.689.143.26.245.528.306.806.06.277.091.559.091.845 0 .347-.059.691-.176 1.033a3.42 3.42 0 0 1-.494.95c-.212.294-.5.535-.864.721a2.695 2.695 0 0 1-1.222.273c-.43 0-.822-.084-1.177-.253a2.404 2.404 0 0 1-.865-.67 3.064 3.064 0 0 1-.69-1.937m2.608-2.672c-.338 0-.622.121-.851.364-.23.238-.393.529-.488.871a4.398 4.398 0 0 0-.078 1.814c.043.234.113.474.208.722.095.247.21.468.345.663.134.195.305.355.513.48.212.122.444.183.696.183.169 0 .327-.028.474-.085.152-.06.3-.162.442-.305.148-.148.265-.369.351-.663.087-.295.13-.65.13-1.067 0-.966-.151-1.703-.455-2.21-.303-.511-.732-.767-1.287-.767m7.9 4.148V4.7c-.169-.264-.353-.46-.552-.585-.2-.13-.449-.195-.748-.195-.533 0-.947.221-1.242.663-.247.356-.37.945-.37 1.768 0 .78.143 1.385.429 1.814.29.425.63.637 1.02.637.347 0 .835-.253 1.463-.76m1.001-6.508V7.75c0 .33.02.537.059.624.039.087.13.137.273.15l.643.065.04.312c-.863.151-1.43.338-1.704.559h-.312l.033-.936-.033-.013c-.754.61-1.356.916-1.807.916-.702 0-1.25-.262-1.645-.786-.394-.525-.591-1.207-.591-2.048 0-.967.297-1.747.89-2.34.282-.27.579-.468.89-.598a2.81 2.81 0 0 1 1.106-.202c.147 0 .34.028.579.084.242.057.435.126.578.209V1.8c0-.412-.03-.687-.09-.826-.061-.143-.163-.214-.306-.214l-.43-.026C32.026.735 32 .713 32 .67L31.973.35c.277-.022.604-.067.981-.136.377-.074.65-.146.82-.215.112 0 .168.045.168.137-.026.355-.039.82-.039 1.397m3.252 1.918-.039 1.183h.04c.394-.464.758-.776 1.092-.936a2.432 2.432 0 0 1 1.079-.247c.29 0 .533.052.728.156.2.104.35.258.455.462.104.199.175.418.214.656.044.234.065.512.065.832v2.783c0 .19.042.329.124.416.082.082.227.134.435.156l.254.026c.078.017.117.052.117.104v.253l-.026.026a72.683 72.683 0 0 0-1.424-.026c-.169 0-.609.008-1.32.026l-.025-.026v-.253c0-.057.036-.091.11-.104l.182-.026c.221-.035.37-.091.449-.17.082-.082.123-.216.123-.402V5.46c0-.494-.06-.845-.182-1.053-.117-.213-.344-.319-.682-.319-.308 0-.598.076-.872.228-.273.151-.572.418-.897.8V8.34c0 .19.04.325.117.403.083.078.234.134.455.169l.189.026c.07.013.104.047.104.104v.253l-.026.026a75.626 75.626 0 0 0-1.359-.026c-.212 0-.674.008-1.384.026l-.026-.026v-.253c0-.057.034-.091.104-.104l.253-.026c.221-.022.37-.074.449-.156.082-.083.123-.221.123-.416V5.025c0-.316-.024-.529-.071-.637-.044-.113-.117-.175-.221-.188l-.572-.059-.026-.318c.85-.13 1.462-.267 1.84-.41.034 0 .051.013.051.039m8.531 2.743-1.053.28c-.858.234-1.287.721-1.287 1.463a.98.98 0 0 0 .26.656c.173.195.414.293.721.293.304 0 .694-.193 1.17-.579a.4.4 0 0 0 .19-.344V6.195m0 2.464h-.027l-.266.208c-.295.23-.536.38-.722.449-.182.073-.425.11-.728.11-.503 0-.904-.115-1.203-.344-.299-.23-.448-.594-.448-1.092 0-.442.197-.833.591-1.17.399-.343.925-.596 1.58-.761l1.144-.28c.052-.017.078-.07.078-.156 0-.29-.024-.544-.071-.76a1.953 1.953 0 0 0-.176-.52.879.879 0 0 0-.26-.3.855.855 0 0 0-.572-.194 1.81 1.81 0 0 0-.767.156c-.226.104-.338.253-.338.448 0 .121.008.208.026.26a.59.59 0 0 1 .039.24c0 .105-.054.204-.163.3a.601.601 0 0 1-.422.143c-.308 0-.462-.156-.462-.468 0-.234.106-.466.319-.696.212-.23.49-.416.832-.559a2.61 2.61 0 0 1 1.04-.221c.212 0 .405.017.579.052.177.035.355.102.533.202.177.095.325.223.442.383.121.16.218.38.292.657.078.273.117.591.117.955V7.99c.004.073.011.162.02.266.013.1.03.18.052.24.021.057.05.115.084.176.04.06.09.104.15.13a.59.59 0 0 0 .22.04.467.467 0 0 0 .371-.157c.03-.035.054-.052.072-.052.026 0 .056.022.09.065a.196.196 0 0 1 .06.13c0 .017-.018.048-.053.091a2.073 2.073 0 0 1-.384.319c-.086.052-.19.095-.311.13a1.123 1.123 0 0 1-.358.058c-.524 0-.858-.255-1-.767m6.815-3.185h2.444c.126 0 .189-.06.189-.182 0-.265-.035-.492-.104-.683a.92.92 0 0 0-.273-.429.99.99 0 0 0-.351-.208 1.077 1.077 0 0 0-.377-.065c-.087 0-.174.006-.26.02a1.265 1.265 0 0 0-.338.104 1.22 1.22 0 0 0-.384.24c-.108.104-.216.26-.325.468a2.481 2.481 0 0 0-.22.735m3.51 2.555c.138.013.227.084.266.214-.264.364-.59.652-.975.865-.386.212-.81.318-1.274.318-.867 0-1.524-.26-1.97-.78-.442-.52-.663-1.187-.663-2.002 0-.485.078-.934.234-1.346.156-.411.36-.75.611-1.014s.531-.468.839-.611c.312-.147.628-.221.949-.221.338 0 .637.045.897.137.26.09.468.21.624.357.16.143.29.319.39.527.1.208.167.416.202.624.039.208.058.43.058.67 0 .151-.08.227-.24.227h-3.504c0 .381.04.732.123 1.053.087.316.195.579.325.787a2.5 2.5 0 0 0 .455.533c.174.143.343.247.507.312.165.065.325.097.481.097.36 0 .668-.058.923-.175.256-.122.503-.312.742-.572m2.732-4.577-.04 1.183h.04c.394-.464.758-.776 1.092-.936a2.432 2.432 0 0 1 1.079-.247c.29 0 .533.052.728.156.2.104.351.258.455.462.104.199.175.418.214.656.044.234.065.512.066.832v2.783c0 .19.04.329.123.416.082.082.228.134.436.156l.253.026c.078.017.117.052.117.104v.253l-.026.026a72.683 72.683 0 0 0-1.424-.026c-.169 0-.608.008-1.32.026l-.025-.026v-.253c0-.057.037-.091.11-.104l.182-.026c.221-.035.37-.091.449-.17.082-.082.123-.216.123-.402V5.46c0-.494-.06-.845-.182-1.053-.117-.213-.344-.319-.682-.319-.308 0-.598.076-.871.228-.273.151-.572.418-.897.8V8.34c0 .19.039.325.117.403.082.078.234.134.455.169l.188.026c.07.013.104.047.104.104v.253l-.026.026a75.627 75.627 0 0 0-1.359-.026c-.212 0-.673.008-1.384.026l-.026-.026v-.253c0-.057.034-.091.104-.104l.253-.026c.221-.022.37-.074.449-.156.082-.083.123-.221.123-.416V5.025c0-.316-.023-.529-.071-.637-.043-.113-.117-.175-.221-.188l-.572-.059-.026-.318c.85-.13 1.462-.267 1.84-.41.034 0 .052.013.052.039m9.928 4.635a3.234 3.234 0 0 1-.69.832 1.952 1.952 0 0 1-.708.403c-.225.07-.483.104-.773.104-.824 0-1.465-.264-1.925-.793-.455-.529-.682-1.23-.682-2.106 0-.46.076-.884.227-1.274.152-.39.356-.715.611-.975.256-.26.549-.462.878-.605.334-.147.68-.221 1.04-.221.611 0 1.094.134 1.45.403.355.264.533.583.533.956a.513.513 0 0 1-.195.422.69.69 0 0 1-.43.15c-.285 0-.446-.156-.48-.468a2.343 2.343 0 0 0-.065-.345 1.343 1.343 0 0 0-.137-.312.564.564 0 0 0-.28-.26 1.073 1.073 0 0 0-.467-.091c-.451 0-.824.21-1.119.63-.29.417-.435.982-.435 1.697 0 .772.165 1.4.494 1.886.334.48.758.721 1.274.721.29 0 .579-.082.865-.247.286-.169.53-.4.734-.695.14.017.232.08.28.188m1.47-5.929a.613.613 0 0 1-.188-.448c0-.174.063-.323.189-.449a.603.603 0 0 1 .448-.195c.174 0 .323.063.449.189a.61.61 0 0 1 .195.455.603.603 0 0 1-.195.448.613.613 0 0 1-.449.189.613.613 0 0 1-.448-.189m1.066 1.294c-.03.602-.046 1.127-.046 1.573v3.316c0 .19.042.329.124.416.087.082.234.134.442.156l.247.026c.082.013.123.047.123.104v.253l-.026.026a72.682 72.682 0 0 0-1.423-.026c-.213 0-.674.008-1.385.026l-.026-.026v-.253c0-.057.035-.091.104-.104l.254-.026c.225-.03.377-.085.455-.163.078-.082.117-.219.117-.41V5.026c0-.316-.024-.529-.072-.637-.043-.113-.117-.175-.22-.188l-.573-.059-.026-.318c.893-.135 1.517-.271 1.872-.41.04 0 .059.013.059.039m2.231-1.651c0-.412-.03-.687-.09-.826-.061-.143-.163-.214-.306-.214l-.43-.026c-.051 0-.077-.022-.077-.065L72.512.35c.273-.022.598-.07.975-.143.381-.074.654-.143.819-.208.117 0 .175.045.175.137-.026.355-.039.82-.039 1.397v4.61c.347-.087.928-.577 1.743-1.47.052-.052.1-.108.143-.169a1.03 1.03 0 0 0 .123-.227c.035-.087.015-.16-.058-.221-.07-.066-.198-.102-.384-.111-.07 0-.104-.037-.104-.11v-.254c.026-.008.039-.017.039-.026.659.017 1.055.026 1.19.026.112 0 .498-.008 1.157-.026l.052.026v.253c0 .057-.05.094-.15.111l-.09.013c-.2.03-.425.102-.677.215-.247.112-.448.249-.604.41L75.814 5.7a.185.185 0 0 0-.052.137c0 .065.022.125.065.182l1.554 2.301c.112.17.26.303.442.403.182.1.368.167.559.202l.09.013c.083.013.124.047.124.104v.253l-.026.026a40.832 40.832 0 0 0-1.13-.026c-.243 0-.543.008-.898.026l-.039-.026v-.253c0-.182-.102-.423-.305-.722l-.969-1.365c-.13-.19-.251-.319-.364-.384a.813.813 0 0 0-.423-.097V8.34c0 .225.048.377.143.455.096.073.247.121.455.143.07 0 .104.034.104.104v.253l-.026.026a90.845 90.845 0 0 0-1.196-.026c-.03 0-.487.008-1.371.026l-.026-.026v-.253c0-.057.03-.091.09-.104l.254-.026c.221-.022.37-.074.449-.156.082-.083.123-.221.123-.416V1.8m6.366 6.54V1.8c0-.412-.032-.687-.097-.826-.061-.143-.163-.214-.306-.214l-.422-.026c-.057 0-.085-.022-.085-.065L78.871.35c.277-.022.605-.067.982-.136.377-.074.65-.146.819-.215.112 0 .169.045.169.137-.026.355-.04.82-.04 1.397v6.807c0 .195.04.333.118.416.078.082.225.134.442.156l.318.026c.074 0 .11.034.11.104v.253l-.025.026c-.893-.017-1.387-.026-1.482-.026-.083 0-.566.008-1.45.026l-.013-.026v-.253c0-.07.03-.104.091-.104l.319-.026c.22-.022.372-.074.455-.156.082-.083.123-.221.123-.416m2.57-1.775c0-.932.242-1.684.728-2.256.485-.572 1.161-.858 2.028-.858.381 0 .728.06 1.04.182.312.117.57.275.774.475.208.195.381.424.52.689.143.26.245.528.305.806.06.277.091.559.091.845 0 .347-.058.691-.175 1.033a3.42 3.42 0 0 1-.494.95c-.213.294-.5.535-.865.721a2.695 2.695 0 0 1-1.222.273c-.43 0-.821-.084-1.177-.253a2.404 2.404 0 0 1-.864-.67 3.064 3.064 0 0 1-.69-1.937m2.607-2.672c-.338 0-.622.121-.851.364-.23.238-.392.529-.488.871a4.398 4.398 0 0 0-.078 1.814c.044.234.113.474.208.722.096.247.21.468.345.663.134.195.305.355.513.48.213.122.445.183.696.183.169 0 .327-.028.475-.085.151-.06.299-.162.442-.305.147-.148.264-.369.35-.663.087-.295.13-.65.13-1.067 0-.966-.151-1.703-.454-2.21-.304-.511-.733-.767-1.288-.767m5.32 1.261v3.25c.325.382.693.573 1.105.573.273 0 .516-.05.728-.15a1.48 1.48 0 0 0 .52-.396c.13-.16.236-.351.319-.572.086-.221.145-.44.175-.657.03-.217.046-.442.046-.676 0-.733-.148-1.326-.442-1.781-.29-.455-.646-.683-1.067-.683-.242 0-.5.1-.773.3-.269.194-.473.458-.611.792m-.995-.13c0-.312-.024-.524-.071-.637-.048-.113-.122-.175-.221-.188l-.573-.059-.026-.318c.828-.126 1.44-.263 1.834-.41.034 0 .052.013.052.039l-.04 1.066h.04c.468-.71 1.05-1.066 1.748-1.066.416 0 .798.128 1.145.384.346.255.615.591.806 1.007.19.416.286.858.286 1.326 0 1.045-.312 1.883-.936 2.516-.49.494-1.11.741-1.86.741a2.48 2.48 0 0 1-1.19-.292v2.308c0 .186.042.32.124.403.087.086.232.138.436.156l.253.026c.083.013.124.047.124.104v.253l-.026.026a61.502 61.502 0 0 0-1.424-.026c-.273 0-.734.008-1.385.026l-.032-.026v-.253c0-.057.037-.091.11-.104l.254-.026c.212-.018.36-.07.442-.156.087-.083.13-.217.13-.403V5.025m7.023.449h2.444c.126 0 .188-.06.188-.182 0-.265-.034-.492-.104-.683a.92.92 0 0 0-.273-.429.99.99 0 0 0-.35-.208 1.077 1.077 0 0 0-.378-.065c-.086 0-.173.006-.26.02a1.265 1.265 0 0 0-.338.104 1.22 1.22 0 0 0-.383.24c-.109.104-.217.26-.325.468a2.481 2.481 0 0 0-.221.735m3.51 2.555c.139.013.228.084.267.214-.265.364-.59.652-.976.865-.385.212-.81.318-1.274.318-.867 0-1.523-.26-1.97-.78-.442-.52-.663-1.187-.663-2.002 0-.485.078-.934.234-1.346.156-.411.36-.75.612-1.014.25-.264.53-.468.838-.611.312-.147.629-.221.95-.221.337 0 .636.045.896.137.26.09.468.21.624.357.16.143.29.319.39.527.1.208.167.416.202.624.04.208.059.43.059.67 0 .151-.08.227-.241.227h-3.504c0 .381.041.732.124 1.053.086.316.195.579.325.787a2.5 2.5 0 0 0 .455.533c.173.143.342.247.507.312.164.065.325.097.48.097.36 0 .668-.058.924-.175.256-.122.503-.312.741-.572m5.163.013V4.7c-.169-.264-.353-.46-.552-.585-.2-.13-.449-.195-.748-.195-.533 0-.947.221-1.242.663-.247.356-.37.945-.37 1.768 0 .78.143 1.385.429 1.814.29.425.63.637 1.02.637.347 0 .835-.253 1.463-.76m1.001-6.508V7.75c0 .33.02.537.059.624.039.087.13.137.273.15l.643.065.04.312c-.863.151-1.43.338-1.704.559h-.312l.033-.936-.033-.013c-.754.61-1.356.916-1.807.916-.702 0-1.25-.262-1.645-.786-.394-.525-.591-1.207-.591-2.048 0-.967.297-1.747.89-2.34.282-.27.579-.468.891-.598a2.81 2.81 0 0 1 1.105-.202c.147 0 .34.028.579.084.242.057.435.126.578.209V1.8c0-.412-.03-.687-.09-.826-.061-.143-.163-.214-.306-.214l-.43-.026c-.051 0-.077-.022-.077-.065l-.026-.319c.277-.022.604-.067.981-.136.377-.074.65-.146.82-.215.112 0 .168.045.168.137a19.98 19.98 0 0 0-.039 1.397m7.018 1.879c.034 0 .052.013.052.039-.026.78-.039 1.304-.039 1.573v2.809c0 2.136-.323 3.467-.969 3.991a1.694 1.694 0 0 1-.487.286 1.59 1.59 0 0 1-.397.117 3.609 3.609 0 0 1-.331.013.8.8 0 0 1-.455-.162.49.49 0 0 1-.234-.43c0-.108.045-.201.136-.279.091-.078.178-.117.26-.117.109 0 .204.017.286.052.083.035.141.067.176.097.034.035.076.083.123.144.1.143.202.214.306.214a.268.268 0 0 0 .195-.084.603.603 0 0 0 .143-.26c.043-.122.08-.243.11-.365.03-.12.055-.286.072-.494a20.915 20.915 0 0 0 .065-1.124c.004-.252.006-.444.006-.579V5.025c0-.32-.024-.535-.071-.643-.044-.113-.12-.174-.228-.182l-.572-.059-.026-.318c.88-.135 1.506-.271 1.879-.41Zm-3.636 0c.026 0 .044.006.052.017l.007.022c-.03.602-.046 1.127-.046 1.573v3.316c0 .19.042.329.124.416.087.082.234.134.442.156l.247.026c.082.013.124.047.124.104v.253l-.026.026a87.681 87.681 0 0 0-1.336-.025h-.088a70.1 70.1 0 0 0-1.385.025l-.026-.026v-.253c0-.057.035-.091.104-.104l.254-.026c.225-.03.377-.085.455-.163.078-.082.117-.219.117-.41V5.026c0-.316-.024-.529-.072-.637-.043-.113-.117-.175-.22-.188l-.573-.059-.026-.318c.893-.135 1.517-.271 1.872-.41Zm-.559-2.347c.174 0 .323.063.449.189a.61.61 0 0 1 .195.455.603.603 0 0 1-.195.448.613.613 0 0 1-.449.189.613.613 0 0 1-.448-.189.613.613 0 0 1-.189-.448c0-.174.063-.323.189-.449a.603.603 0 0 1 .448-.195Zm3.636 0c.173 0 .323.065.448.195a.613.613 0 0 1 .189.449.613.613 0 0 1-.189.448.613.613 0 0 1-.448.189.613.613 0 0 1-.449-.189.613.613 0 0 1-.188-.448c0-.174.063-.323.188-.449a.603.603 0 0 1 .449-.195Zm5.43 5.13-1.053.279c-.859.234-1.288.721-1.288 1.463 0 .238.087.457.26.656.174.195.414.293.722.293.303 0 .693-.193 1.17-.579a.4.4 0 0 0 .189-.344V6.195m0 2.464h-.026l-.267.208c-.295.23-.535.38-.721.449-.182.073-.425.11-.729.11-.502 0-.903-.115-1.202-.344-.3-.23-.449-.594-.449-1.092 0-.442.197-.833.592-1.17.399-.343.925-.596 1.58-.761l1.144-.28c.052-.017.078-.07.078-.156 0-.29-.024-.544-.072-.76a1.954 1.954 0 0 0-.175-.52.879.879 0 0 0-.26-.3.855.855 0 0 0-.572-.194 1.81 1.81 0 0 0-.767.156c-.226.104-.339.253-.339.448 0 .121.009.208.027.26a.59.59 0 0 1 .039.24c0 .105-.055.204-.163.3a.601.601 0 0 1-.423.143c-.307 0-.461-.156-.461-.468 0-.234.106-.466.318-.696.213-.23.49-.416.833-.559a2.61 2.61 0 0 1 1.04-.221c.212 0 .405.017.578.052.178.035.356.102.533.202.178.095.325.223.442.383.122.16.22.38.293.657.078.273.117.591.117.955V7.99c.004.073.01.162.02.266.012.1.03.18.051.24.022.057.05.115.085.176.039.06.089.104.15.13a.59.59 0 0 0 .22.04.467.467 0 0 0 .371-.157c.03-.035.054-.052.071-.052.026 0 .057.022.092.065a.196.196 0 0 1 .058.13c0 .017-.017.048-.052.091a2.075 2.075 0 0 1-.384.319c-.086.052-.19.095-.312.13a1.123 1.123 0 0 1-.357.058c-.525 0-.858-.255-1.001-.767"/></svg>