<?xml version="1.0" encoding="UTF-8"?>
<svg width="120px" height="14px" viewBox="0 0 120 14" version="1.1" xmlns="http://www.w3.org/2000/svg" xmlns:xlink="http://www.w3.org/1999/xlink">
    <title>ltg-tagline</title>
    <g id="Page-1" stroke="none" stroke-width="1" fill="none" fill-rule="evenodd">
        <path d="M0.054629421,9.51959901 C0.0681459788,9.44638432 0.104753323,9.41090336 0.163888263,9.41090336 L0.575016896,9.38387024 C0.876323496,9.36077945 1.07512953,9.31685064 1.17368777,9.24983104 C1.27168281,9.18393782 1.34377112,9.03243974 1.38882631,8.7947736 L2.75737779,1.73969362 C2.78046857,1.62592926 2.79173237,1.54314035 2.79173237,1.49301645 C2.79173237,1.36967786 2.74836675,1.28688894 2.66219869,1.24408651 C2.57546745,1.20015769 2.4104528,1.16861906 2.16940752,1.15116017 L1.77968011,1.12300068 C1.72505069,1.12300068 1.69745438,1.09146204 1.69745438,1.02782158 L1.7520838,0.747353007 L1.79319667,0.719193512 C2.63178644,0.737778779 3.19666592,0.747353007 3.48839829,0.747353007 C3.67481415,0.747353007 3.95471953,0.742284298 4.32755125,0.73383645 C4.70038297,0.724262221 4.96508223,0.720319892 5.11939626,0.720319892 C6.79770219,0.720319892 7.63741834,1.26717729 7.63741834,2.36314485 C7.63741834,2.53153863 7.61939626,2.70274837 7.58278892,2.87564767 C7.51351656,3.24172111 7.32541113,3.59315161 7.01790944,3.9338815 C6.71040775,4.27348502 6.36010363,4.53424195 5.96756026,4.71727867 L5.96756026,4.74543816 C6.47443118,4.90425772 6.87091687,5.14473981 7.15814373,5.46688443 C7.44649696,5.78790268 7.59011039,6.19790493 7.59011039,6.69463843 C7.59011039,6.86415859 7.57377788,7.03536833 7.54223924,7.20826763 C7.49211534,7.46451904 7.41383194,7.70894346 7.30682586,7.94435684 C7.19981978,8.17977022 7.04268979,8.41405722 6.83543591,8.64609146 C6.62818202,8.8781257 6.38488398,9.0791845 6.1049786,9.24814147 C5.82507321,9.41653526 5.47476909,9.5533904 5.05350304,9.65814373 C4.63223699,9.76289705 4.16478937,9.81527371 3.6494706,9.81527371 C3.19441316,9.81527371 2.79285875,9.81133138 2.4442442,9.80288353 C2.09562965,9.79218292 1.86021626,9.78824059 1.73744087,9.78824059 C1.43669745,9.78824059 0.866749268,9.7989412 0.0275963055,9.81640009 L0,9.78824059 L0.054629421,9.51959901 Z M3.17639108,5.1340392 L2.4831043,8.69114665 C2.47015093,8.76323496 2.46282947,8.82912818 2.46282947,8.88995269 C2.46282947,9.04877225 2.53604415,9.16366299 2.68247353,9.23293535 C2.82890291,9.30108132 3.09585492,9.33543591 3.48501915,9.33543591 C3.97781032,9.33543591 4.40076594,9.28925434 4.75332282,9.19520162 C5.10531651,9.10114891 5.38409552,8.96542014 5.58909664,8.78519937 C5.79409777,8.6049786 5.95010137,8.41067808 6.05541789,8.20567695 C6.16129759,8.00067583 6.24296013,7.75737779 6.30209507,7.47353007 C6.33813922,7.28204551 6.35672449,7.11083577 6.35672449,6.96102726 C6.35672449,6.41304348 6.17087182,5.97206578 5.79916648,5.6364046 C5.42746114,5.30074341 4.86258166,5.13347601 4.10565443,5.13347601 L3.17639108,5.13347601 L3.17639108,5.1340392 Z M3.82687542,1.79939175 L3.2698806,4.65476459 L4.25996846,4.65476459 C5.54911016,4.65476459 6.3004055,4.11917098 6.51441766,3.04629421 C6.55046182,2.85480964 6.56904708,2.69092138 6.56904708,2.55293985 C6.56904708,2.30851543 6.52568146,2.0928137 6.4395134,1.90752422 C6.35334535,1.72223474 6.23563866,1.58143726 6.08751971,1.48287903 C5.93883758,1.38432079 5.78396035,1.31223248 5.62232485,1.2666141 C5.46068934,1.22268529 5.29060599,1.1995945 5.11320117,1.1995945 C4.87609822,1.1995945 4.68348727,1.20578959 4.53536833,1.21817977 C4.38724938,1.23282271 4.26841631,1.24971841 4.17999549,1.27055643 C4.09101149,1.29026808 4.0234287,1.33138094 3.97443118,1.38995269 C3.92656004,1.44852444 3.89445821,1.50315386 3.87868889,1.55327777 C3.86235639,1.60396486 3.8448975,1.68562739 3.82687542,1.79939175 L3.82687542,1.79939175 Z M10.6927236,5.80310881 L10.7298941,5.80536157 C11.0402118,5.14248705 11.3854472,4.61646767 11.7667267,4.22336112 C12.1474431,3.83138094 12.5112638,3.63482766 12.8581888,3.63482766 C13.0952917,3.63482766 13.2766389,3.70297364 13.401667,3.83644965 C13.5278216,3.97161523 13.5897725,4.12423969 13.5897725,4.29207029 C13.5897725,4.4920027 13.528948,4.67391304 13.4084253,4.83554855 C13.2879027,4.99774724 13.1358414,5.07940978 12.9533679,5.07940978 C12.8120072,5.07940978 12.6548772,4.98085154 12.4814147,4.78429827 C12.3856724,4.67109709 12.2882406,4.61365172 12.1874296,4.61365172 C11.9277991,4.61365172 11.325749,5.46463167 10.3829691,7.16715476 L10.0028159,8.84320793 C9.98760982,8.91022753 9.96733499,9.00202748 9.94086506,9.11691822 C9.91439513,9.23293535 9.89355711,9.32586168 9.87778779,9.39626042 C9.86201847,9.46665916 9.83949088,9.53762109 9.80964181,9.61083577 C9.77979275,9.68405046 9.74712773,9.74036945 9.71052039,9.77922956 C9.67391304,9.81808966 9.62547871,9.85131786 9.56352782,9.88060374 C9.50214012,9.90988961 9.43230457,9.92453255 9.35514756,9.92453255 C8.99921153,9.92453255 8.82068033,9.7989412 8.82068033,9.54832169 C8.82068033,9.48355485 8.83025456,9.41259293 8.84827664,9.33205677 C8.86686191,9.25152061 8.88882631,9.1574679 8.91529624,9.04764587 C8.94176616,8.93782383 8.96260419,8.84602388 8.97724713,8.77280919 L9.77810318,5.29060599 C9.84174364,5.03153863 9.87440865,4.79105654 9.87440865,4.57310205 C9.87440865,4.5032665 9.85244424,4.44131561 9.80964181,4.38893895 C9.76627619,4.33656229 9.70376211,4.30840279 9.62153638,4.30502365 L9.06059923,4.26503717 C8.96035143,4.10396486 8.95528272,3.96992566 9.04708268,3.86123001 C9.16591575,3.84658707 9.32191935,3.82574904 9.51678306,3.79871593 C9.7099572,3.77168281 9.86427123,3.75084478 9.97859878,3.73394909 C10.0929263,3.71930615 10.2207704,3.70466321 10.3621311,3.6939626 C10.5034918,3.68157243 10.6268304,3.67706691 10.7310205,3.67706691 C10.8222573,3.67706691 10.895472,3.70860554 10.9501014,3.76999324 C11.0047308,3.83250732 11.0328903,3.91980176 11.0328903,4.03018698 C11.0328903,4.17661636 10.9574228,4.60013517 10.8081775,5.30186979 L10.6927236,5.80310881 L10.6927236,5.80310881 Z M14.7820455,6.99538184 C14.7719081,7.06859653 14.7685289,7.22741608 14.7685289,7.47409326 C14.7685289,8.07220095 14.8603289,8.49065105 15.0456184,8.73000676 C15.2303447,8.96936247 15.4939175,9.08875873 15.8357738,9.08875873 C16.1731246,9.08875873 16.4755576,9.0177968 16.7425096,8.87362018 C17.0094616,8.73056995 17.3411804,8.45517008 17.7382293,8.04967335 C17.8880378,8.04967335 17.9961703,8.1251408 18.0598108,8.2755125 C17.6447398,8.80885335 17.2026357,9.21660284 16.7357513,9.49988736 C16.2677405,9.78317189 15.7991665,9.92453255 15.3300293,9.92453255 C15.0016896,9.92453255 14.721221,9.86990313 14.4874972,9.76346024 C14.2548998,9.65701735 14.0769317,9.5032665 13.9535932,9.3022077 C13.8308178,9.1017121 13.7418337,8.87756251 13.6866411,8.63426447 C13.6320117,8.39040324 13.6044154,8.11049786 13.6044154,7.79680108 C13.6044154,7.43185402 13.6466547,7.05958549 13.7311331,6.68112187 C13.8156116,6.30265826 13.95303,5.92926335 14.1422618,5.56318991 C14.3314936,5.19486371 14.5573327,4.87102951 14.8197792,4.58774499 C15.0822257,4.30446046 15.4088759,4.07636855 15.8014192,3.89952692 C16.1939626,3.72381167 16.6208606,3.63595404 17.0815499,3.63595404 C18.0074341,3.63595404 18.4703762,3.962041 18.4703762,4.6147781 C18.4703762,4.72065781 18.4669971,4.80738905 18.4602388,4.87835098 C18.4534805,4.94818653 18.4258842,5.05406623 18.3774499,5.19317414 C18.3301419,5.33228205 18.2608696,5.45336788 18.1724487,5.55586844 C18.0834647,5.65949538 17.9494255,5.78170759 17.7686416,5.92475783 C17.5884208,6.06893444 17.3715927,6.19790493 17.1187204,6.31166929 C16.865285,6.42656004 16.5380716,6.54370354 16.1365172,6.66704213 C15.7349628,6.79038072 15.2827213,6.89907637 14.7820455,6.99538184 Z M17.4842307,4.60069836 C17.4842307,4.40414508 17.4284749,4.26616355 17.3164001,4.18675377 C17.2048885,4.10621762 17.0190358,4.06623113 16.7588421,4.06623113 C16.5943906,4.06623113 16.4344447,4.10058572 16.2795675,4.16985808 C16.1246902,4.23687768 15.9602388,4.35402118 15.7867763,4.51790944 C15.613877,4.68236089 15.447736,4.92903807 15.290606,5.25906736 C15.1340392,5.5913494 14.9954945,5.99121424 14.8772246,6.46147781 C15.1785312,6.42487047 15.4663212,6.36629872 15.7422843,6.28576256 C16.0182474,6.20635278 16.2942104,6.09765713 16.5701735,5.95742284 C16.8461365,5.81944132 17.0674702,5.63133589 17.2341744,5.39704888 C17.4008786,5.16219869 17.4842307,4.89749944 17.4842307,4.60069836 Z M21.5831268,5.30524893 L20.9422167,8.05136292 C20.8369002,8.50698355 20.7856499,8.77280919 20.7856499,8.84996621 C20.7856499,9.00878576 20.8329579,9.08819554 20.9287002,9.08819554 C21.0007885,9.08819554 21.1263798,9.02117594 21.304911,8.88769993 C21.482879,8.75366073 21.6580311,8.58639333 21.829804,8.38589772 C21.9891868,8.38589772 22.0961928,8.46643388 22.1513854,8.62525344 C21.4761207,9.4920027 20.8261996,9.92509574 20.2010588,9.92509574 C19.8175265,9.92509574 19.6260419,9.77247128 19.6260419,9.46609597 C19.6260419,9.35627394 19.7060149,8.92543366 19.8653976,8.17244875 L20.5203875,5.29173237 C20.6071187,4.90820005 20.6504843,4.67278666 20.6504843,4.58267628 C20.6504843,4.51058797 20.6285199,4.4475107 20.5851543,4.39344447 C20.5417887,4.33937824 20.4792746,4.30952917 20.3976121,4.30558684 L19.8366749,4.26560036 C19.7364271,4.10452805 19.7307952,3.97048885 19.8231584,3.8617932 C19.922843,3.84715026 20.079973,3.82631223 20.2922956,3.79927912 C20.504055,3.772246 20.6679432,3.75197116 20.7817076,3.73845461 C20.895472,3.72493805 21.0283848,3.71142149 21.1793197,3.69677855 C21.3296914,3.68438838 21.4580987,3.67819329 21.5622888,3.67819329 C21.7543366,3.67819329 21.8500788,3.77675152 21.8500788,3.97499437 C21.8500788,4.04820906 21.8382519,4.14845686 21.8145979,4.27630097 C21.7909439,4.40414508 21.752647,4.57760757 21.7013967,4.79725163 C21.6507096,5.01464294 21.6107231,5.18528948 21.5831268,5.30524893 L21.5831268,5.30524893 Z M21.1455283,2.27303447 C21.0131786,2.14124803 20.9467222,1.98355485 20.9467222,1.80051813 C20.9467222,1.61860779 21.0131786,1.45978824 21.1455283,1.32574904 C21.2778779,1.19170984 21.4350079,1.12300068 21.6174814,1.12300068 C21.7999549,1.12300068 21.9570849,1.19227303 22.0888714,1.32574904 C22.2217842,1.45978824 22.2882406,1.61860779 22.2882406,1.80051813 C22.2882406,1.98355485 22.2217842,2.14124803 22.0888714,2.27303447 C21.9565217,2.40482091 21.7993918,2.4718405 21.6174814,2.4718405 C21.4350079,2.4718405 21.2773147,2.40594729 21.1455283,2.27303447 Z M24.4452579,5.80423519 C24.3810543,5.11489074 24.3393782,4.73642712 24.3202298,4.66771795 C24.2796801,4.55451678 24.2177292,4.49425546 24.1355035,4.49087632 C24.0532778,4.49087632 23.938387,4.59112413 23.7902681,4.79105654 C23.6410228,4.99155215 23.4945934,5.23259743 23.3487272,5.51025006 C23.1932868,5.51025006 23.0676954,5.4466096 22.9730795,5.31763911 C23.0823384,5 23.2169408,4.72347376 23.3768867,4.49369227 C23.5368326,4.26391079 23.7029736,4.08819554 23.8764361,3.96992566 C24.0498986,3.8505294 24.2160396,3.76605091 24.3759856,3.71254787 C24.5353683,3.66017121 24.6908087,3.63426447 24.8417436,3.63426447 C25.0107006,3.63426447 25.1329128,3.73789142 25.2083803,3.94401892 C25.2309079,4.02230232 25.2478036,4.1293084 25.2596305,4.26616355 C25.2714575,4.4030187 25.2866637,4.58323947 25.3058121,4.80344672 C25.3249606,5.02421717 25.3384771,5.17571525 25.3452354,5.25850417 L25.5733273,7.83678756 L25.5868439,8.55429151 L26.0154314,8.02095066 L27.2735977,6.26943005 C27.5546294,5.89096643 27.6954269,5.51250282 27.6954269,5.13291282 C27.6954269,5.01464294 27.6441766,4.85976571 27.5416761,4.66771795 C27.4391755,4.47623339 27.3879252,4.29544943 27.3879252,4.12705564 C27.3879252,3.98569498 27.4403019,3.86855148 27.5450552,3.77449876 C27.6503717,3.68157243 27.7708943,3.63426447 27.9077495,3.63426447 C28.090223,3.63426447 28.2451002,3.71142149 28.3729444,3.86629872 C28.5007885,4.02230232 28.5644289,4.21998198 28.5644289,4.46215364 C28.5644289,4.99549448 28.2704438,5.67808065 27.6819103,6.50822257 L25.4995494,9.58774499 C25.3993016,9.71953143 25.3170759,9.81471052 25.2534355,9.87215589 C25.189795,9.92847488 25.1210858,9.95776076 25.0484343,9.95776076 C24.8935571,9.95776076 24.8090786,9.84287002 24.7949989,9.6147781 L24.4452579,5.80423519 Z M35.2055643,4.47398063 L34.3410678,8.02827213 C34.3078396,8.50698355 34.2903807,8.78013066 34.2903807,8.84996621 C34.2903807,9.00991214 34.3365623,9.0904483 34.4272359,9.0904483 C34.4998874,9.0904483 34.6266051,9.02230232 34.8068259,8.88769993 C34.9870466,8.75366073 35.1638883,8.58526695 35.3367876,8.38477134 C35.4967335,8.38477134 35.6031764,8.4653075 35.658369,8.62412706 C34.9831043,9.4920027 34.33262,9.92509574 33.7074792,9.92509574 C33.5086731,9.92509574 33.3712548,9.88510926 33.2952241,9.80569948 C33.2191935,9.72516333 33.1808966,9.61252534 33.1808966,9.46609597 C33.1808966,9.18788015 33.2619959,8.75591349 33.4241946,8.17244875 L33.5830142,7.63291282 L33.5419013,7.60475332 C33.2625591,8.01588196 33.0265826,8.34422167 32.8317189,8.59315161 C32.6379815,8.84208155 32.4245326,9.07749493 32.1913719,9.29770219 C31.9582113,9.51959901 31.7261771,9.67954494 31.4952692,9.77753999 C31.2649245,9.87609822 31.014305,9.92509574 30.7451002,9.92509574 C30.4758955,9.92509574 30.2528723,9.83329579 30.0743411,9.64800631 C29.8963731,9.46271683 29.8079522,9.18393782 29.8079522,8.81054292 C29.8079522,8.52725839 29.8535706,8.21243523 29.9448074,7.86551025 L30.5609371,5.51193963 C30.6842757,5.04674476 30.7456634,4.78204551 30.7456634,4.71840505 C30.7456634,4.55845911 30.6983555,4.47792296 30.6026132,4.47792296 C30.524893,4.47792296 30.3869115,4.54719531 30.1886686,4.68292408 C29.9898626,4.82090561 29.8056995,4.98535706 29.6373057,5.17627844 C29.477923,5.17627844 29.3709169,5.09686866 29.3157243,4.93579635 C29.6350529,4.5257941 29.9831043,4.20590223 30.3593152,3.97781032 C30.735526,3.74971841 31.0925884,3.63708042 31.4299392,3.63708042 C31.6214237,3.63708042 31.7537734,3.67706691 31.8275513,3.75647668 C31.8996396,3.83588646 31.9362469,3.95190358 31.9362469,4.1017121 C31.9362469,4.17999549 31.921604,4.28700158 31.8917549,4.42385672 C31.8619058,4.55958549 31.8185402,4.73361117 31.7622212,4.94480739 C31.705339,5.15375084 31.6647894,5.30243298 31.6422618,5.38916423 L31.0407749,7.67402568 C30.957986,7.99842307 30.9174364,8.29747691 30.9174364,8.5711872 C30.9174364,8.91811219 31.0565443,9.09213787 31.3347601,9.09213787 C31.6597207,9.09213787 32.0010137,8.87699932 32.3580761,8.44615904 C32.7151385,8.01531877 33.1848389,7.30964181 33.7660509,6.32969137 L34.1523992,4.77979275 C34.1721108,4.69925659 34.199144,4.59450327 34.2312458,4.46384321 C34.2639108,4.33205677 34.2898175,4.22730345 34.3100924,4.14676729 C34.329804,4.06623113 34.3602163,3.98287903 34.4013291,3.89389502 C34.442442,3.80491102 34.4976346,3.74014418 34.5657806,3.69846812 C34.6344897,3.65848164 34.718405,3.63764361 34.819216,3.63764361 C35.0337914,3.63764361 35.1852895,3.63764361 35.2742735,3.63764361 C35.3632575,3.63764361 35.4077495,3.63764361 35.4077495,3.63764361 C35.4077495,3.63764361 35.3779004,3.76323496 35.3182023,4.0121649 C35.2573778,4.25996846 35.2202073,4.41484569 35.2055643,4.47398063 L35.2055643,4.47398063 Z M36.5223023,7.52421717 C36.5223023,7.17729218 36.5656679,6.82586168 36.651836,6.47217842 C36.7385672,6.11680559 36.8765488,5.76931741 37.0657806,5.42858752 C37.2550124,5.08898401 37.4808515,4.78429827 37.743298,4.5201622 C38.0057445,4.25546294 38.3295787,4.0403244 38.7153638,3.87925208 C39.1011489,3.71592701 39.519599,3.63482766 39.9707141,3.63482766 C40.3035594,3.63482766 40.5924758,3.68269881 40.836337,3.77900428 C41.0807614,3.87643613 41.2711196,3.99752196 41.4113539,4.14395134 C41.5504618,4.2915071 41.660847,4.47116468 41.7430728,4.68348727 C41.8252985,4.89806263 41.8788015,5.09855823 41.9041451,5.28891642 C41.9294886,5.47927461 41.9418788,5.68821807 41.9418788,5.91856274 C41.9418788,6.72392431 41.7368777,7.47015093 41.3263122,8.16062176 C40.9157468,8.84883983 40.3976121,9.35064204 39.7730345,9.66433882 C39.4261095,9.83780131 38.9952692,9.92340617 38.4799504,9.92340617 C38.1414733,9.92340617 37.8480514,9.86258166 37.5968687,9.73924307 C37.345686,9.61703086 37.1542014,9.47060149 37.0218518,9.29995494 C36.8895021,9.13043478 36.7836224,8.92543366 36.7036495,8.68607795 C36.6236765,8.44897499 36.5735526,8.24172111 36.553841,8.06600586 C36.5324397,7.89141699 36.5223023,7.71063303 36.5223023,7.52421717 Z M37.6852895,7.41552151 C37.6852895,7.76075693 37.725276,8.07220095 37.8046857,8.348164 C37.8846587,8.62412706 37.9860329,8.83644965 38.1093715,8.98625817 C38.2327101,9.13775625 38.3566118,9.2520838 38.4822032,9.32924082 C38.6077945,9.40639784 38.724938,9.44413156 38.8347601,9.44413156 C39.4002027,9.44413156 39.8524442,9.15127281 40.189795,8.56386574 C40.3947961,8.20398738 40.5440415,7.77990538 40.6386574,7.29218292 C40.7315837,6.80502365 40.7788916,6.3781257 40.7788916,6.01430502 C40.7788916,5.50405497 40.6944132,5.07940978 40.5254562,4.74149583 C40.4161973,4.52297815 40.3029962,4.36415859 40.1864159,4.26391079 C40.0698355,4.16366299 39.9132688,4.11353909 39.7172787,4.11353909 C39.3427574,4.11353909 39.015544,4.22336112 38.7356387,4.44525794 C38.4546069,4.66602838 38.2428475,4.95212886 38.0986709,5.30243298 C37.9556206,5.6527371 37.8503041,6.00416761 37.7838477,6.35728768 C37.7185177,6.71266051 37.6852895,7.06409101 37.6852895,7.41552151 L37.6852895,7.41552151 Z M47.532665,6.99538184 C47.5230908,7.06859653 47.5191485,7.22741608 47.5191485,7.47409326 C47.5191485,8.07220095 47.6115116,8.49065105 47.7962379,8.73000676 C47.9809642,8.96936247 48.2445371,9.08875873 48.5863933,9.08875873 C48.9243073,9.08875873 49.2261771,9.0177968 49.4936923,8.87362018 C49.7600811,8.73056995 50.0923631,8.45517008 50.489412,8.04967335 C50.6397837,8.04967335 50.747353,8.1251408 50.8109935,8.2755125 C50.3959225,8.80885335 49.9543816,9.21660284 49.486934,9.49988736 C49.0189232,9.78317189 48.549786,9.92453255 48.0806488,9.92453255 C47.7523091,9.92453255 47.4718405,9.86990313 47.2381167,9.76346024 C47.0060825,9.65701735 46.8275513,9.5032665 46.7042127,9.3022077 C46.5814373,9.1017121 46.4924533,8.87756251 46.4378238,8.63426447 C46.3831944,8.39096643 46.3550349,8.11049786 46.3550349,7.79680108 C46.3550349,7.43185402 46.3972742,7.05958549 46.4823158,6.68112187 C46.5662311,6.30265826 46.7036495,5.92926335 46.8928813,5.56318991 C47.0821131,5.19486371 47.3079522,4.87102951 47.5703987,4.58774499 C47.8328452,4.30446046 48.1600586,4.07636855 48.5526019,3.89952692 C48.9445821,3.72381167 49.3714801,3.63595404 49.8321694,3.63595404 C50.7580536,3.63595404 51.2209957,3.962041 51.2209957,4.6147781 C51.2209957,4.72065781 51.2176166,4.80738905 51.2108583,4.87835098 C51.2041,4.94818653 51.1765037,5.05406623 51.1286326,5.19317414 C51.0807614,5.33228205 51.0120523,5.45336788 50.9236314,5.55586844 C50.8340843,5.65949538 50.7000451,5.78170759 50.5192611,5.92475783 C50.3396035,6.06893444 50.1222122,6.19790493 49.8693399,6.31166929 C49.6159045,6.42656004 49.2892543,6.54370354 48.8876999,6.66704213 C48.4867087,6.79038072 48.0344672,6.89907637 47.532665,6.99538184 Z M50.2354134,4.60069836 C50.2354134,4.40414508 50.1802208,4.26616355 50.0675828,4.18675377 C49.9560712,4.10621762 49.7707817,4.06623113 49.5100248,4.06623113 C49.3455733,4.06623113 49.1861906,4.10058572 49.0307502,4.16985808 C48.8758729,4.23687768 48.7114215,4.35402118 48.5385222,4.51790944 C48.3650597,4.68236089 48.1994819,4.92903807 48.0423519,5.25906736 C47.8852219,5.5913494 47.7466772,5.99121424 47.6284073,6.46147781 C47.9297139,6.42487047 48.2180671,6.36629872 48.4940302,6.28576256 C48.7694301,6.20635278 49.0453931,6.09765713 49.3219194,5.95742284 C49.5978824,5.81944132 49.819216,5.63133589 49.9859203,5.39704888 C50.1520613,5.16219869 50.2354134,4.89749944 50.2354134,4.60069836 Z M56.9531426,8.04911016 C56.8461365,8.5154314 56.7915071,8.78125704 56.7915071,8.84996621 C56.7915071,9.00878576 56.8393782,9.08819554 56.9351205,9.08819554 C57.007772,9.08819554 57.1344897,9.02117594 57.3147105,8.88769993 C57.4949313,8.75253435 57.6717729,8.58470376 57.8452354,8.38364497 C58.0046182,8.38364497 58.1116242,8.4653075 58.1668169,8.62412706 C57.4915522,9.48974994 56.8281144,9.92509574 56.1765037,9.92509574 C55.794661,9.92509574 55.6037396,9.77247128 55.6037396,9.46609597 C55.6037396,9.26109484 55.6825862,8.82912818 55.8402793,8.17244875 L56.3758729,5.93489525 C56.4930164,5.41507096 56.5521514,5.09855823 56.5521514,4.98423068 C56.5521514,4.78373508 56.5121649,4.6485695 56.4327551,4.57929714 C56.3533453,4.51115116 56.2316963,4.47679658 56.0678081,4.47679658 C55.6358414,4.47679658 54.9104528,5.11995945 53.8910791,6.40684839 L53.3842082,8.69283622 C53.3706916,8.75478711 53.3515431,8.84039198 53.3267628,8.95190358 C53.3025456,9.06285199 53.282834,9.15070962 53.268191,9.21209732 C53.2541113,9.27573778 53.2321469,9.35965308 53.2022978,9.46496959 C53.1724487,9.57084929 53.1403469,9.65194864 53.1031764,9.71052039 C53.0676954,9.76909214 53.0170083,9.81921604 52.9533679,9.86089209 C52.8897274,9.90256815 52.81426,9.92340617 52.7275287,9.92340617 C52.3259743,9.92340617 52.1254787,9.79781482 52.1254787,9.54719531 C52.1254787,9.50664564 52.1350529,9.44469475 52.153075,9.36528497 C52.1716603,9.2858752 52.1958774,9.18112187 52.2251633,9.0515882 C52.2550124,8.9231809 52.2758504,8.83194413 52.2888038,8.77844109 L53.0947285,5.29116918 C53.1786438,4.90313134 53.2203199,4.66377563 53.2203199,4.57197567 C53.2203199,4.50270331 53.1983555,4.44131561 53.1555531,4.38781257 C53.1121874,4.33543591 53.0496733,4.30727641 52.9674476,4.30389727 L52.4059473,4.26391079 C52.3056995,4.10396486 52.3000676,3.96879928 52.3924307,3.86010363 C53.3802658,3.73676504 53.9704888,3.67594053 54.163663,3.67594053 C54.3562739,3.67594053 54.4520162,3.77506195 54.4520162,3.97274161 C54.4520162,4.02737103 54.439626,4.10678081 54.4137193,4.20928137 C54.3883758,4.31403469 54.3596531,4.41202974 54.3286776,4.50608245 C54.2977022,4.60013517 54.2633476,4.72966884 54.2267403,4.89524668 C54.1901329,5.06082451 54.160847,5.19204776 54.1405722,5.28835323 L54.1129759,5.41169182 L54.1231133,5.4409777 C54.733048,4.72460014 55.225276,4.24476233 55.5986709,4.00033791 C55.972629,3.75591349 56.3527822,3.63426447 56.7396936,3.63426447 C57.3558234,3.63426447 57.6638883,4.00878576 57.6638883,4.75726515 C57.6638883,4.93072764 57.6058797,5.2844109 57.4898626,5.81775175 L56.9531426,8.04911016 Z M61.0492228,9.92396936 C60.7732597,9.92396936 60.5198243,9.86427123 60.2883532,9.7431854 C60.0568822,9.62209957 59.8687768,9.4587745 59.7234738,9.25377337 C59.4379365,8.85221897 59.2960126,8.33352106 59.2960126,7.69993242 C59.2960126,7.13448975 59.386123,6.59776977 59.5657806,6.08864609 C59.744875,5.57952241 59.9808515,5.14755576 60.2714575,4.79105654 C60.5626267,4.43568371 60.9005407,4.15408876 61.281257,3.94627168 C61.6642262,3.7390178 62.05508,3.63482766 62.4566344,3.63482766 C62.7703312,3.63482766 63.0400991,3.67988286 63.2636855,3.76886686 C63.4872719,3.85785087 63.6528497,3.97612075 63.7615454,4.12423969 C63.8679883,4.27292183 63.9434557,4.41935121 63.9873845,4.56240144 C64.030187,4.70545168 64.0521514,4.85638657 64.0521514,5.01070061 C64.0521514,5.234287 63.982879,5.39535932 63.8471503,5.49166479 C63.7091687,5.59078621 63.5357062,5.64034692 63.3261996,5.64034692 C63.2124352,5.64034692 63.1211985,5.59416535 63.0524893,5.50349178 C62.9843433,5.41225501 62.9499887,5.30806488 62.9499887,5.18866862 C62.9499887,5.07490426 62.9730795,4.97521964 63.0192611,4.89355711 C63.0643163,4.81640009 63.0862807,4.72741608 63.0862807,4.62773147 C63.0862807,4.42047759 63.0243298,4.27630097 62.8981753,4.19294886 C62.7725839,4.10903357 62.6391079,4.06510475 62.4966209,4.06510475 C61.9300518,4.06510475 61.4445821,4.36810092 61.0390854,4.97465645 C60.6341518,5.58233836 60.4319667,6.38713674 60.4319667,7.39130435 C60.4319667,7.77934219 60.4606893,8.06769543 60.5175715,8.26030638 C60.5750169,8.45291732 60.6628745,8.62525344 60.7817076,8.78125704 C60.9782609,9.03243974 61.2148006,9.1574679 61.4885109,9.1574679 C61.7312458,9.1574679 61.9925659,9.09495382 62.274724,8.97161523 C62.5551926,8.84827664 62.8227078,8.64834422 63.0733273,8.37012841 C63.1318991,8.37012841 63.1927236,8.3982879 63.2541113,8.45291732 C63.315499,8.50754674 63.3588646,8.56780806 63.380829,8.63708042 C62.9426673,9.11184952 62.5630773,9.44413156 62.2431854,9.63561613 C61.9232935,9.82879027 61.5251183,9.92396936 61.0492228,9.92396936 Z M67.0353683,5.30524893 L66.3944582,8.05136292 C66.2885785,8.50698355 66.2378914,8.77280919 66.2378914,8.84996621 C66.2378914,9.00878576 66.2857626,9.08819554 66.3809417,9.08819554 C66.45303,9.08819554 66.5786213,9.02117594 66.7571525,8.88769993 C66.9351205,8.75366073 67.1097094,8.58639333 67.2820455,8.38589772 C67.4419914,8.38589772 67.5484343,8.46643388 67.6030638,8.62525344 C66.9277991,9.4920027 66.2773147,9.92509574 65.6527371,9.92509574 C65.2692048,9.92509574 65.0777202,9.77247128 65.0777202,9.46609597 C65.0777202,9.35627394 65.1582564,8.92543366 65.3170759,8.17244875 L65.972629,5.29173237 C66.0593602,4.90820005 66.103289,4.67278666 66.103289,4.58267628 C66.103289,4.51058797 66.0801982,4.4475107 66.0373958,4.39344447 C65.9945934,4.33881505 65.9315161,4.30952917 65.8492904,4.30558684 L65.28779,4.26560036 C65.1875422,4.10452805 65.1830367,3.97048885 65.2753999,3.8617932 C65.3756477,3.84715026 65.5327777,3.82631223 65.7439739,3.79927912 C65.9562965,3.772246 66.1196215,3.75197116 66.2333859,3.73845461 C66.3471503,3.72493805 66.4800631,3.71142149 66.630998,3.69677855 C66.7813697,3.68438838 66.9092138,3.67819329 67.0156567,3.67819329 C67.2060149,3.67819329 67.3023203,3.77675152 67.3023203,3.97499437 C67.3023203,4.04820906 67.2916197,4.14845686 67.2679658,4.27630097 C67.2437486,4.4030187 67.2060149,4.57760757 67.1547646,4.79725163 C67.1035143,5.01464294 67.0635278,5.18528948 67.0353683,5.30524893 L67.0353683,5.30524893 Z M66.5972066,2.27303447 C66.4654201,2.14124803 66.3984005,1.98355485 66.3984005,1.80051813 C66.3984005,1.61860779 66.4642938,1.45978824 66.5972066,1.32574904 C66.7301194,1.19170984 66.8878126,1.12300068 67.0697229,1.12300068 C67.2516333,1.12300068 67.4093264,1.19227303 67.5422392,1.32574904 C67.6740257,1.45978824 67.7410453,1.61860779 67.7410453,1.80051813 C67.7410453,1.98355485 67.6740257,2.14124803 67.5422392,2.27303447 C67.4093264,2.40482091 67.2516333,2.4718405 67.0697229,2.4718405 C66.8872494,2.4718405 66.7301194,2.40594729 66.5972066,2.27303447 Z M68.6917098,8.78125704 L70.2393557,1.89682361 C70.3029962,1.61015995 70.3345348,1.37699932 70.3345348,1.1995945 C70.3345348,1.05429151 70.311444,0.951790944 70.2635729,0.890966434 C70.2157017,0.831268304 70.1402343,0.801982428 70.0411129,0.801982428 L69.6029511,0.773822933 C69.5567695,0.773822933 69.5336788,0.751858527 69.5336788,0.706803334 L69.5753548,0.370015769 C69.8620185,0.353120072 70.2151385,0.30299617 70.6324623,0.223586393 C71.049786,0.144176616 71.3527822,0.0698355485 71.539198,0.00112637982 C71.6540888,0.00112637982 71.7104077,0.048997522 71.7104077,0.144176616 L71.3550349,1.61635503 L70.3384771,5.98107682 C70.5581212,5.98107682 70.8329579,5.83802658 71.1663663,5.54798378 L71.7267403,5.0670196 C72.233048,4.61308853 72.6886686,4.26165803 73.0964181,4.01103852 C73.5019148,3.75985582 73.8156116,3.63482766 74.0397612,3.63482766 C74.4965082,3.63482766 74.7246001,3.79871593 74.7246001,4.12705564 C74.7246001,4.32360892 74.6480063,4.48974994 74.4953818,4.62378914 C74.3427574,4.75782834 74.2047759,4.82428475 74.0814373,4.82428475 C73.9130435,4.82428475 73.7666141,4.79105654 73.6444019,4.72572651 C73.5210633,4.65870692 73.4039198,4.62660509 73.2952241,4.62660509 C73.158369,4.62660509 72.9877225,4.69249831 72.7849741,4.82541113 C72.5822257,4.95832395 72.3040099,5.18191034 71.9475107,5.49785988 L71.2226853,6.15059698 L71.2226853,6.2052264 C71.3358865,6.23676504 71.4299392,6.26999324 71.5031539,6.30772697 C71.5752422,6.34320793 71.6433882,6.39783735 71.7036495,6.47105204 C71.7656004,6.54426673 71.8123451,6.60790719 71.8438838,6.66366299 C71.877112,6.71829241 71.9266727,6.81628745 71.9953818,6.95652174 C72.0455057,7.05676954 72.1491327,7.29556206 72.3068259,7.67064654 C72.464519,8.04629421 72.6154539,8.37857626 72.7618833,8.66523992 C72.7658256,8.67875648 72.7804686,8.70916873 72.8058121,8.75703987 C72.8311557,8.80491102 72.8474882,8.83644965 72.8536833,8.84883983 C72.8621311,8.86348277 72.8745213,8.8893895 72.8953593,8.92824961 C72.915071,8.96823609 72.9308403,8.99301645 72.9432305,9.00765938 C72.9539311,9.02004956 72.97139,9.04201397 72.9933544,9.06961027 C73.0164451,9.09551701 73.0361568,9.11691822 73.0519261,9.12705564 C73.0688218,9.13944582 73.0874071,9.15239919 73.1104979,9.16478937 C73.1335886,9.1794323 73.158369,9.18788015 73.1859653,9.19182248 C73.2129984,9.19689119 73.2411579,9.19914395 73.2687542,9.19914395 C73.3470376,9.19914395 73.4517909,9.13719306 73.5835774,9.01385447 C73.7164902,8.89051588 73.8533453,8.72944357 73.994706,8.52894796 C74.0667943,8.52894796 74.1231133,8.54246452 74.1630998,8.56949763 C74.2008335,8.59765713 74.249831,8.64271232 74.3095292,8.70635278 C73.8443343,9.51790944 73.3723812,9.92453255 72.8936697,9.92453255 C72.6154539,9.92453255 72.3738455,9.81471052 72.1710971,9.59619284 C71.9683487,9.37654877 71.7475783,9.00765938 71.5104753,8.48670872 C71.4248705,8.29635053 71.3105429,7.98715927 71.1686191,7.56251408 C71.0272584,7.13899527 70.9112413,6.8472629 70.8205677,6.68731696 C70.7377788,6.53581888 70.6448524,6.46147781 70.5395359,6.46147781 C70.4212661,6.46147781 70.3170759,6.47837351 70.2258392,6.51272809 L69.7341744,8.78801532 C69.7279793,8.83419689 69.7071412,8.93219194 69.6733499,9.08087407 C69.6389953,9.23124578 69.6147781,9.33825186 69.6001352,9.4030187 C69.587745,9.46665916 69.5595855,9.54832169 69.5184726,9.64744312 C69.4767966,9.74600135 69.4199144,9.8158369 69.3489525,9.85863933 C69.2779905,9.90256815 69.1929489,9.92340617 69.0915747,9.92340617 C68.8815048,9.92340617 68.7316963,9.89186754 68.6460915,9.82822708 C68.5593602,9.76458662 68.5165578,9.6705339 68.5165578,9.54719531 C68.5165578,9.50720883 68.526132,9.44694751 68.5458437,9.3692273 C68.5644289,9.29207029 68.5920252,9.18844334 68.6252534,9.05778328 C68.6584816,8.92543366 68.6781933,8.83532327 68.6917098,8.78125704 L68.6917098,8.78125704 Z M78.2603064,1.61522866 L76.8258617,8.00518135 C76.7182924,8.56780806 76.6647894,8.86235639 76.6647894,8.88995269 C76.6647894,9.02173913 76.7211084,9.08875873 76.8354359,9.08875873 C76.930615,9.08875873 77.0956296,9.00709619 77.3321694,8.84320793 C77.5664564,8.67931967 77.7799054,8.48051363 77.9719531,8.24735301 C78.1121874,8.24735301 78.2163776,8.32788916 78.2794548,8.48670872 C77.7314711,9.44469475 77.022415,9.92453255 76.1528497,9.92453255 C75.9394008,9.92453255 75.7879027,9.86089209 75.6949763,9.73304798 C75.6031764,9.60464068 75.5569948,9.45933769 75.5569948,9.29488624 C75.5569948,9.09439063 75.6217617,8.70184726 75.7558009,8.11725614 L77.1446272,1.89682361 C77.2071412,1.60903357 77.2409326,1.37587294 77.2409326,1.1995945 C77.2409326,1.05429151 77.2155891,0.951790944 77.1688443,0.890966434 C77.1215364,0.832394683 77.0483217,0.801982428 76.9503267,0.801982428 L76.5279342,0.773822933 C76.4755576,0.773822933 76.4507772,0.751858527 76.4507772,0.706803334 L76.4986483,0.370015769 C76.7841856,0.353120072 77.132237,0.30299617 77.5433656,0.223586393 C77.9544943,0.144176616 78.2535481,0.0698355485 78.4394008,0.00112637982 C78.5542915,0.00112637982 78.6106105,0.048997522 78.6106105,0.144176616 C78.5137418,0.518697905 78.3982879,1.0097995 78.2603064,1.61522866 L78.2603064,1.61522866 Z M87.5720883,2.90943906 C87.7928588,2.90943906 87.9494255,2.9409777 88.0395359,3.00574454 C88.1313359,3.06825862 88.1775175,3.16456409 88.1775175,3.29353458 C88.1775175,3.34365848 88.1651273,3.41799955 88.1431629,3.51599459 C88.1211985,3.61455283 88.0958549,3.72606443 88.066569,3.85278216 C88.0350304,3.97949989 88.0141924,4.0735526 88.0006758,4.13550349 C88.5413381,3.80209507 89.0701735,3.63482766 89.5871818,3.63482766 C89.9194638,3.63482766 90.2061275,3.68833071 90.4443568,3.79139446 C90.6825862,3.89783735 90.8667493,4.04877225 90.9945934,4.24701509 C91.1230007,4.44582113 91.2164902,4.66546519 91.2716828,4.90707367 C91.3280018,5.14868214 91.3561613,5.42464519 91.3561613,5.73439964 C91.3561613,6.03570624 91.3037846,6.37024105 91.1995945,6.73744087 C91.0937148,7.10464068 90.9360216,7.47690921 90.7248254,7.85086731 C90.5136292,8.2253886 90.2680784,8.5661185 89.990989,8.87643613 C89.7127731,9.18675377 89.3793647,9.43906285 88.9902005,9.63336337 C88.6010363,9.82653751 88.1966659,9.92509574 87.7782158,9.92509574 C87.4048209,9.92509574 87.0753548,9.77247128 86.7892543,9.46834873 L86.2018473,12.052264 C86.1686191,12.144064 86.1641135,12.2246001 86.1872043,12.2949989 C86.2102951,12.3642712 86.2333859,12.4183375 86.2564767,12.4583239 C86.2795675,12.4960577 86.3189908,12.5292859 86.3758729,12.5546294 C86.4344447,12.579973 86.4823158,12.5974319 86.5200496,12.6070061 C86.5589097,12.6165803 86.6056544,12.6255913 86.6602838,12.6340392 L86.9277991,12.6757153 C86.9824285,12.6892318 87.0094616,12.7247128 87.0094616,12.7821581 L87.0094616,13.0541789 L86.9824285,13.0795224 C86.3465871,13.0626267 85.8408425,13.0524893 85.4674476,13.0524893 C85.3136968,13.0524893 85.1148907,13.0586844 84.8727191,13.069385 C84.6299842,13.0817752 84.4232935,13.0913494 84.2548998,13.1009236 L84.0031539,13.1217617 L83.9749944,13.0947285 L83.9749944,12.835098 C83.9749944,12.781595 84.0223023,12.7472404 84.1180446,12.7292183 L84.3782383,12.6875422 C84.6074566,12.6520613 84.7764136,12.5850417 84.887362,12.4898626 C84.9994368,12.3924307 85.0777202,12.2454382 85.1239018,12.0455057 L86.5482091,5.60148682 C86.0818878,5.98727191 85.747353,6.316738 85.5423519,6.58763235 C85.3041226,6.58763235 85.1576932,6.48907412 85.1041901,6.29252084 C85.2861005,6.06442893 85.5023654,5.84084253 85.7535481,5.62345123 C86.0047308,5.40605992 86.3234963,5.1560036 86.7092814,4.87271908 L86.8911917,4.04482992 C86.9009537,4.00315386 86.9124678,3.95021401 86.9265684,3.8863441 L86.9497635,3.78238342 C86.975107,3.67030863 86.9936923,3.58188781 87.0083352,3.51486821 C87.0229781,3.44897499 87.0460689,3.37181798 87.0792971,3.28564992 C87.1125253,3.20004506 87.1474431,3.13189908 87.1851768,3.08402793 C87.2229106,3.03615679 87.2741608,2.99504393 87.3400541,2.96068934 C87.4059473,2.92633476 87.4831043,2.90943906 87.5720883,2.90943906 Z M82.5202748,3.63482766 C82.8525569,3.63482766 83.1425997,3.68269881 83.3858977,3.77900428 C83.6303221,3.87643613 83.8206803,3.99752196 83.9609146,4.14395134 C84.1011489,4.2915071 84.2109709,4.47116468 84.2931967,4.68348727 C84.3748592,4.89806263 84.4283622,5.09855823 84.454269,5.28891642 C84.4784861,5.47927461 84.4908763,5.68821807 84.4908763,5.91856274 C84.4908763,6.72392431 84.2858752,7.47015093 83.8747466,8.16062176 C83.4636179,8.84883983 82.9460464,9.35064204 82.3209056,9.66433882 C81.9739806,9.83780131 81.5431403,9.92340617 81.0272584,9.92340617 C80.6893444,9.92340617 80.3959225,9.86258166 80.1447398,9.73924307 C79.8946835,9.61703086 79.7026357,9.47060149 79.5697229,9.29995494 C79.4368101,9.13043478 79.33262,8.92543366 79.2520838,8.68607795 C79.1715476,8.44897499 79.1225501,8.24172111 79.1017121,8.06600586 C79.0825636,7.89141699 79.071863,7.71063303 79.071863,7.52421717 C79.071863,7.17729218 79.1157918,6.82586168 79.2013967,6.47217842 C79.2892543,6.11680559 79.4272359,5.76931741 79.6153413,5.42858752 C79.8045731,5.08785763 80.0304123,4.78429827 80.2928588,4.5201622 C80.5553052,4.25602613 80.8785763,4.0403244 81.2654877,3.87925208 C81.6501464,3.71592701 82.0685965,3.63482766 82.5202748,3.63482766 Z M89.1405722,4.27911692 C88.9783735,4.27911692 88.8111061,4.30615003 88.6415859,4.36190583 C88.4720658,4.41709845 88.336337,4.47398063 88.2338364,4.531426 C88.1313359,4.58887137 88.0068709,4.66659157 87.8576256,4.76346024 L86.9272359,8.85503492 C87.2189682,9.24814147 87.5642036,9.44582113 87.9646317,9.44582113 C88.2321469,9.44582113 88.490651,9.35458437 88.7384546,9.17267403 C88.9851318,8.99076369 89.196328,8.76041901 89.3720433,8.48558234 C89.5477585,8.21074566 89.700383,7.91056544 89.8321694,7.58616806 C89.9639558,7.26289705 90.0602613,6.9587745 90.1250282,6.67323722 C90.1881054,6.38882631 90.2207704,6.15116017 90.2207704,5.96023879 C90.2207704,4.83949088 89.8597657,4.27911692 89.1405722,4.27911692 Z M82.2679658,4.11353909 C81.8934445,4.11353909 81.5673575,4.22336112 81.2868889,4.44525794 C81.0058572,4.66602838 80.7935346,4.95212886 80.6487948,5.30243298 C80.5046182,5.6527371 80.4009912,6.00416761 80.3339716,6.35728768 C80.2680784,6.71266051 80.2348502,7.06409101 80.2348502,7.41552151 C80.2348502,7.76075693 80.2748367,8.07220095 80.355936,8.348164 C80.4353458,8.62412706 80.5355936,8.83644965 80.6589322,8.98625817 C80.7822708,9.13775625 80.9067358,9.2520838 81.0323271,9.32924082 C81.1590448,9.40639784 81.2761883,9.44413156 81.384884,9.44413156 C81.951453,9.44413156 82.4031313,9.15127281 82.7399189,8.56386574 C82.94492,8.20398738 83.0952917,7.77990538 83.1876549,7.29218292 C83.2817076,6.80502365 83.3290155,6.3781257 83.3290155,6.01430502 C83.3290155,5.50405497 83.2445371,5.07940978 83.0761433,4.74149583 C82.9663212,4.52297815 82.8536833,4.36415859 82.7365398,4.26391079 C82.6205226,4.16366299 82.464519,4.11353909 82.2679658,4.11353909 Z M93.4287002,6.99538184 C93.4202523,7.06859653 93.41631,7.22741608 93.41631,7.47409326 C93.41631,8.07220095 93.5081099,8.49065105 93.6933994,8.73000676 C93.8786889,8.96936247 94.1416986,9.08875873 94.4829917,9.08875873 C94.822032,9.08875873 95.1239018,9.0177968 95.3908538,8.87362018 C95.6566794,8.73056995 95.9889615,8.45517008 96.3865736,8.04967335 C96.5369453,8.04967335 96.6439513,8.1251408 96.7087182,8.2755125 C96.2925208,8.80885335 95.8515431,9.21660284 95.3840955,9.49988736 C94.9166479,9.78317189 94.4480739,9.92453255 93.9778103,9.92453255 C93.6494706,9.92453255 93.369002,9.86990313 93.1358414,9.76346024 C92.9026808,9.65701735 92.7247128,9.5032665 92.6025006,9.3022077 C92.4802884,9.10114891 92.390178,8.87756251 92.3349854,8.63426447 C92.2803559,8.39040324 92.2521964,8.11049786 92.2521964,7.79680108 C92.2521964,7.43185402 92.2949989,7.05958549 92.3800405,6.68112187 C92.4639558,6.30265826 92.6019374,5.92926335 92.7900428,5.56318991 C92.9792746,5.19486371 93.2062401,4.87102951 93.4675603,4.58774499 C93.7311331,4.30446046 94.0572201,4.07636855 94.4492003,3.89952692 C94.8411804,3.72381167 95.2680784,3.63595404 95.7293309,3.63595404 C96.6557783,3.63595404 97.1187204,3.962041 97.1187204,4.6147781 C97.1187204,4.72065781 97.1147781,4.80738905 97.1080198,4.87835098 C97.1006984,4.94818653 97.0725389,5.05406623 97.0241045,5.19317414 C96.9767966,5.33228205 96.9080874,5.45336788 96.8191034,5.55586844 C96.7312458,5.65949538 96.5966434,5.78170759 96.4152962,5.92475783 C96.2356387,6.06893444 96.0176842,6.19790493 95.7648119,6.31166929 C95.5119396,6.42656004 95.1852895,6.54370354 94.7837351,6.66704213 C94.3821807,6.79038072 93.9316287,6.89907637 93.4287002,6.99538184 Z M96.1325749,4.60069836 C96.1325749,4.40414508 96.0762559,4.26616355 95.9653075,4.18675377 C95.8532327,4.107344 95.66738,4.06623113 95.4071863,4.06623113 C95.243298,4.06623113 95.0827889,4.10058572 94.9284749,4.16985808 C94.7735977,4.23687768 94.608583,4.35402118 94.4351205,4.51790944 C94.2627844,4.68236089 94.0960802,4.92903807 93.9395134,5.25906736 C93.7823834,5.5913494 93.6444019,5.99121424 93.5255688,6.46147781 C93.8268754,6.42487047 94.1152287,6.36629872 94.3911917,6.28576256 C94.6671548,6.20635278 94.9431178,6.09765713 95.2190809,5.95742284 C95.4961703,5.81944132 95.7169408,5.63133589 95.8842082,5.39704888 C96.049786,5.16219869 96.1325749,4.89749944 96.1325749,4.60069836 Z M101.777991,8.15893219 L101.730119,8.1307727 C101.300405,8.75591349 100.910115,9.21209732 100.559811,9.49650822 C100.210633,9.78204551 99.8569498,9.92509574 99.5004506,9.92509574 C99.2109709,9.92509574 98.9659833,9.85807614 98.7677405,9.7262897 C98.5689344,9.59450327 98.4225051,9.41653526 98.3307051,9.19801757 C98.2389052,8.97949989 98.1735751,8.76605091 98.137531,8.56104979 C98.1009236,8.35604866 98.0823384,8.13978374 98.0823384,7.91169182 C98.0823384,7.38341969 98.191034,6.85233161 98.4072989,6.32124352 C98.6235639,5.79015544 98.896711,5.33002929 99.2261771,4.94199144 C99.5567695,4.55395359 99.9256589,4.24025681 100.333408,3.99752196 C100.741158,3.75478711 101.129196,3.63370128 101.496959,3.63370128 C101.752084,3.63370128 101.977923,3.70691597 102.17166,3.85334535 C102.364834,3.99977472 102.507321,4.18393782 102.599121,4.40752422 L102.611512,4.40752422 L103.132462,1.89569723 C103.201735,1.55384096 103.234963,1.32068033 103.234963,1.19846812 C103.234963,1.05316513 103.211872,0.950664564 103.164001,0.889840054 C103.11613,0.830141924 103.041789,0.800856049 102.940415,0.800856049 L102.503379,0.772696553 C102.457198,0.772696553 102.435233,0.750732147 102.435233,0.705676954 L102.475783,0.36888939 C102.763573,0.351993692 103.115567,0.30186979 103.534017,0.222460014 C103.950214,0.143050237 104.252647,0.0687091687 104.439626,2.84217094e-13 C104.548322,2.84217094e-13 104.603514,0.0478711421 104.603514,0.143050237 L104.255463,1.61522866 L102.769768,8.1026132 C102.674589,8.56668169 102.626718,8.83025456 102.626718,8.88882631 C102.626718,8.962041 102.645303,9.01329128 102.685289,9.04257716 C102.723023,9.07298941 102.761883,9.08763235 102.798491,9.08763235 C102.961816,9.08763235 103.225389,8.83870241 103.584704,8.34084253 C103.643276,8.34084253 103.695652,8.35323271 103.738455,8.37857626 C103.781257,8.4039198 103.811669,8.42757378 103.827439,8.45066456 C103.843208,8.47262897 103.869115,8.51261545 103.906848,8.56668169 C103.494593,9.4700383 102.898738,9.9217166 102.112525,9.9217166 C101.89795,9.9217166 101.748705,9.85920252 101.664789,9.73361117 C101.580311,9.60801982 101.536945,9.46159045 101.536945,9.29263348 C101.536945,9.15577833 101.583127,8.9006533 101.674927,8.52613201 L101.777991,8.15893219 L101.777991,8.15893219 Z M101.776864,7.0702861 C102.206578,6.27675152 102.421153,5.70680333 102.421153,5.35987835 C102.421153,5.08616806 102.336675,4.81414733 102.164902,4.54663212 C101.994255,4.27686416 101.785312,4.14169858 101.538635,4.14169858 C101.228317,4.14169858 100.924758,4.2577157 100.63021,4.48693399 C100.335098,4.71784186 100.084478,5.00788466 99.878351,5.3570624 C99.6722235,5.70511376 99.5072088,6.08920928 99.3804911,6.50596981 C99.2548998,6.92441991 99.1923857,7.31640009 99.1923857,7.68641586 C99.1923857,8.74971841 99.3754224,9.28080649 99.7414958,9.28080649 C100.006195,9.28080649 100.321581,9.07693174 100.687655,8.66805587 C101.053165,8.26030638 101.415296,7.72696553 101.776864,7.0702861 Z M112.989975,3.67481415 C113.182586,3.67481415 113.278328,3.76999324 113.278328,3.95922505 C113.278328,4.03638207 113.27326,4.13888263 113.265938,4.27066907 C113.256364,4.40132913 113.228205,4.57817076 113.179207,4.79781482 C113.139502,4.96381505 113.108351,5.10098699 113.084327,5.21004344 L112.792859,6.52455508 C112.65713,7.13955846 112.535481,7.68303672 112.430164,8.15780581 C112.325411,8.63032214 112.19813,9.10959676 112.045506,9.59056094 C111.894008,10.0737779 111.734062,10.4815274 111.566794,10.8160622 C111.398401,11.150597 111.211421,11.4519036 111.008673,11.7239243 C110.803672,11.9936923 110.580086,12.1953143 110.335098,12.3304798 C110.092363,12.464519 109.825974,12.5309754 109.538184,12.5309754 C109.209845,12.5309754 108.936134,12.4724037 108.71649,12.3552602 C108.497973,12.2403695 108.38815,12.0747916 108.38815,11.8596531 C108.38815,11.7239243 108.430953,11.6169182 108.515995,11.542014 C108.59991,11.4665465 108.694526,11.4288128 108.800405,11.4288128 C108.955283,11.4288128 109.084816,11.4614778 109.18957,11.5251183 C109.295449,11.5876323 109.369227,11.6569047 109.413156,11.7301194 C109.455959,11.8033341 109.509462,11.8726064 109.574228,11.9351205 C109.636743,11.998761 109.709957,12.031426 109.792746,12.031426 C109.96114,12.031426 110.14305,11.9227303 110.336224,11.7030863 C110.530525,11.4834422 110.696103,11.1072314 110.832958,10.5738905 C110.91462,10.1892318 111.033453,9.62435233 111.190583,8.87981527 C111.348277,8.13527822 111.458099,7.61432755 111.521176,7.31977923 L111.949763,5.29116918 C112.035368,4.87891417 112.079297,4.64068484 112.079297,4.57197567 C112.079297,4.49876098 112.056206,4.43512052 112.013404,4.3804911 C111.970601,4.32529849 111.907524,4.29601262 111.826425,4.2915071 L111.264925,4.24983104 C111.16355,4.08988511 111.159045,3.95584591 111.251408,3.84602388 C111.351656,3.8336337 111.508786,3.81448524 111.719982,3.78970489 C111.932305,3.76379815 112.096193,3.74577608 112.209394,3.73225952 C112.323158,3.71874296 112.456071,3.70635278 112.607006,3.69452579 C112.757378,3.68213562 112.885222,3.67481415 112.989975,3.67481415 Z M108.436585,3.63595404 C109.363032,3.63595404 109.825411,3.962041 109.825411,4.6147781 C109.825411,4.72065781 109.822032,4.80738905 109.814711,4.87835098 C109.808515,4.94818653 109.781482,5.05406623 109.733048,5.19317414 C109.684614,5.33228205 109.615904,5.45336788 109.52692,5.55586844 C109.437936,5.65949538 109.30446,5.78170759 109.123113,5.92475783 C108.943456,6.06893444 108.726628,6.19790493 108.473755,6.31166929 C108.220883,6.42656004 107.892543,6.54370354 107.490989,6.66704213 C107.089435,6.79038072 106.639446,6.89907637 106.13708,6.99538184 C106.127506,7.06859653 106.123564,7.22741608 106.123564,7.47409326 C106.123564,8.07220095 106.21649,8.49065105 106.400653,8.73000676 C106.584816,8.96936247 106.848389,9.08875873 107.191372,9.08875873 C107.528159,9.08875873 107.831156,9.0177968 108.096981,8.87362018 C108.364497,8.73056995 108.697342,8.45517008 109.093264,8.04967335 C109.244762,8.04967335 109.351768,8.1251408 109.414282,8.2755125 C109.000338,8.80885335 108.558797,9.21660284 108.090223,9.49988736 C107.621649,9.78317189 107.153075,9.92453255 106.685064,9.92453255 C106.355598,9.92453255 106.074566,9.86990313 105.842532,9.76346024 C105.610498,9.65701735 105.43253,9.5032665 105.309191,9.3022077 C105.185853,9.10114891 105.096869,8.87756251 105.041676,8.63426447 C104.987047,8.39040324 104.960014,8.11049786 104.960014,7.79680108 C104.960014,7.43185402 105.00169,7.05958549 105.086731,6.68112187 C105.171773,6.30265826 105.308628,5.92926335 105.49786,5.56318991 C105.685965,5.19486371 105.911804,4.87102951 106.175377,4.58774499 C106.436697,4.30446046 106.765037,4.07636855 107.156454,3.89952692 C107.548434,3.72381167 107.976459,3.63595404 108.436585,3.63595404 Z M108.115567,4.06623113 C107.950552,4.06623113 107.791169,4.10058572 107.635729,4.16985808 C107.480852,4.23687768 107.316963,4.35402118 107.143501,4.51790944 C106.970038,4.68236089 106.80446,4.92903807 106.647894,5.25906736 C106.4902,5.5913494 106.352219,5.99121424 106.233949,6.46147781 C106.535256,6.42487047 106.823609,6.36629872 107.099572,6.28576256 C107.374409,6.20635278 107.650372,6.09765713 107.927461,5.95742284 C108.203424,5.81944132 108.424195,5.63133589 108.590336,5.39704888 C108.757603,5.16219869 108.840392,4.89749944 108.840392,4.60069836 C108.840392,4.40414508 108.785199,4.26616355 108.671998,4.18675377 C108.56105,4.107344 108.375197,4.06623113 108.115567,4.06623113 Z M113.042352,1.12300068 C113.224262,1.12300068 113.381955,1.19227303 113.514868,1.32574904 C113.646655,1.45978824 113.712548,1.61860779 113.712548,1.80051813 C113.712548,1.98355485 113.646655,2.14124803 113.514868,2.27303447 C113.381955,2.40482091 113.224262,2.4718405 113.042352,2.4718405 C112.859878,2.4718405 112.701622,2.40594729 112.569836,2.27303447 C112.438049,2.14124803 112.37103,1.98355485 112.37103,1.80051813 C112.37103,1.61860779 112.438049,1.45978824 112.569836,1.32574904 C112.701622,1.19170984 112.859315,1.12300068 113.042352,1.12300068 Z M118.852219,3.71817977 C118.933882,3.74014418 119.025681,3.75253435 119.128182,3.75478711 C119.230683,3.75703987 119.360216,3.75591349 119.515093,3.75140797 C119.671097,3.74746565 119.776414,3.74408651 119.831043,3.74408651 L118.865736,8.10317639 C118.770556,8.56724487 118.722685,8.83081775 118.722685,8.8893895 C118.722685,8.96260419 118.741271,9.01385447 118.780131,9.04314035 C118.818991,9.0735526 118.856724,9.08819554 118.893895,9.08819554 C119.05722,9.08819554 119.319667,8.8392656 119.680108,8.34140572 C119.73868,8.34140572 119.791057,8.3537959 119.833859,8.37913945 C119.876661,8.40448299 119.905947,8.42813697 119.922843,8.45122775 C119.937486,8.47319216 119.964519,8.51317864 120,8.56724487 C119.589998,9.47060149 118.989637,9.92227979 118.201735,9.92227979 C117.823271,9.92227979 117.632913,9.71220996 117.632913,9.29263348 C117.632913,9.08763235 117.679094,8.83138094 117.770894,8.52613201 L117.955057,7.93759856 L117.928024,7.91056544 C117.017346,9.2520838 116.223812,9.92227979 115.546857,9.92227979 C114.651949,9.92227979 114.205339,9.29263348 114.205339,8.03390403 C114.205339,7.50506871 114.31854,6.96722235 114.546069,6.42149133 C114.774161,5.87801307 115.058572,5.40324397 115.402681,5.00168957 C115.74679,4.60126155 116.127506,4.27179545 116.546519,4.01667042 C116.966096,3.76154539 117.359203,3.63313809 117.729218,3.63313809 C117.975895,3.63426447 118.350417,3.66186078 118.852219,3.71817977 Z M118.145416,6.71491327 C118.251859,6.44908763 118.344222,6.11905835 118.427574,5.72144627 C118.509236,5.32496058 118.563303,4.99380491 118.590899,4.73023203 L118.63877,4.33261996 C118.360554,4.15465195 118.072201,4.06510475 117.770894,4.06510475 C117.463393,4.06510475 117.155891,4.1906961 116.8467,4.44131561 C116.539198,4.69249831 116.273936,5.00619509 116.054292,5.37902681 C115.835774,5.75242172 115.656679,6.16017121 115.519824,6.59720658 C115.382969,7.03424195 115.313697,7.43804911 115.313697,7.80806488 C115.313697,8.70747916 115.519824,9.15690471 115.932642,9.15690471 C116.160734,9.15690471 116.501464,8.90572201 116.953143,8.40729894 C117.404821,7.90887587 117.803559,7.34455959 118.145416,6.71491327 Z M53.2257648,12.0761049 C53.7525668,11.9990119 54.3425422,11.7034888 54.3425422,11.1145842 C54.3425422,10.8447588 54.201205,10.625258 54.0341703,10.4849916 L54.882193,10.305108 C55.0620766,10.4325255 55.2419602,10.7291193 55.2419602,11.0621181 C55.2419602,12.0761049 54.2536711,12.5386627 53.3542531,12.6157557 L53.2257648,12.0761049 Z" id="ltg-tagline" fill="#000000" fill-rule="nonzero"></path>
    </g>
</svg>