<svg xmlns="http://www.w3.org/2000/svg" width="110" height="15" viewBox="0 0 29.104 3.969"><g stroke-width=".291" aria-label="Ne wey Amachti Tupal"><path d="M1.849 1.464q0-.109-.011-.164-.009-.057-.047-.089-.036-.033-.076-.042t-.134-.018q-.015-.012-.017-.05 0-.037.017-.052.27.006.341.006.092 0 .344-.006.012.015.012.052 0 .036-.012.05-.172.018-.22.068-.047.048-.047.245v1.512q0 .094-.07.094-.069 0-.124-.073L.73 1.64q-.076-.103-.103-.101-.024 0-.026.15v.943q0 .108.01.165.01.055.046.089.037.031.076.04.04.01.136.02.012.015.012.052.001.036-.012.048Q.61 3.04.527 3.04q-.08 0-.344.006-.015-.012-.016-.048 0-.037.016-.052.173-.018.22-.068t.048-.246V1.348q-.015-.068-.083-.13-.068-.061-.16-.067-.016-.012-.016-.05 0-.037.015-.052l.417.006 1.055 1.339q.132.17.147.17.021 0 .023-.093zM2.67 2.17l.557-.009q.046 0 .045-.042 0-.176-.075-.25-.075-.073-.18-.073-.041 0-.08.01-.04.01-.096.045-.058.034-.104.116-.047.083-.068.203m.806.583q.053.003.065.048-.206.268-.525.268-.304 0-.47-.197-.144-.167-.144-.455 0-.326.195-.525.196-.198.42-.198.52 0 .52.535 0 .052-.058.052l-.819-.006q0 .259.098.423.135.22.337.22.129 0 .21-.035.083-.038.171-.13M5.058 1.816q-.107.006-.125.05-.017.046.031.155l.247.635q.021.052.032.064.012.012.022-.001t.032-.07l.216-.545-.02-.048q-.025-.065-.04-.096-.015-.032-.044-.07-.027-.037-.063-.053-.036-.017-.088-.022-.012-.012-.012-.048t.012-.054q.185.006.27.006.123 0 .308-.006.012.015.012.053 0 .037-.012.05-.12.008-.14.045-.018.034.028.142l.266.674q.018.048.031.046.014-.001.036-.058l.259-.64q.02-.052.025-.079t-.001-.06-.053-.05-.128-.02q-.015-.013-.015-.049t.015-.054q.185.006.315.006.099 0 .22-.006.016.015.016.053.001.037-.016.05-.108.005-.162.06-.054.052-.098.16l-.4.977q-.025.065-.072.065t-.073-.062l-.317-.763-.311.757q-.03.068-.074.068-.047 0-.074-.062l-.403-.995q-.049-.121-.093-.157-.043-.038-.15-.048-.015-.013-.017-.049 0-.037.017-.054.16.006.28.006.126 0 .31-.006.016.015.016.053 0 .037-.015.05M7.088 2.17l.558-.009q.046 0 .045-.042 0-.176-.075-.25t-.18-.073q-.041 0-.08.01-.04.01-.096.045-.057.034-.104.116-.047.083-.068.203m.807.583q.053.003.065.048-.206.268-.524.268-.305 0-.47-.197-.145-.167-.145-.455 0-.326.195-.525.196-.198.42-.198.52 0 .52.535 0 .052-.058.052l-.819-.006q0 .259.098.423.135.22.337.22.13 0 .21-.035.083-.038.171-.13M8.689 3.533q-.126.22-.3.22-.06 0-.103-.032-.04-.032-.04-.082 0-.04.037-.087.04-.045.098-.045.015 0 .04.005.027.004.049.004.105 0 .154-.089.074-.15.12-.282.038-.105-.043-.29l-.349-.81q-.058-.137-.103-.178t-.139-.052q-.012-.012-.012-.048 0-.038.012-.055.124.006.25.006.12 0 .347-.006.012.016.012.053 0 .038-.012.05-.12.009-.137.057-.015.046.036.143l.274.64q.037.087.074.003l.305-.705q.034-.074-.01-.1-.046-.03-.14-.038-.014-.012-.014-.048 0-.038.015-.055.185.006.28.006t.219-.006q.015.016.015.053 0 .038-.015.05-.105.012-.153.054-.047.04-.097.143-.225.486-.544 1.256-.064.153-.126.265M11.224 2.167h.545l-.289-.837h-.02l-.314.797q-.009.024.01.033.017.007.068.007m-.333.629q-.003.03-.01.054-.005.022.017.039l.038.024q.013.009.051.017.038.007.059.009t.058.006q.012.015.012.052 0 .036-.012.048-.228-.006-.394-.006-.114 0-.275.006-.015-.012-.015-.048t.015-.052q.118-.01.185-.049.068-.039.123-.17l.7-1.651q.067 0 .17-.062l.634 1.762q.024.07.07.108.048.036.089.045t.117.017q.015.015.015.052 0 .036-.015.048-.215-.006-.352-.006-.176 0-.402.006-.012-.012-.012-.048t.012-.052q.027-.003.042-.003l.04-.005.04-.006.03-.006q.02-.003.03-.008.011-.004.023-.012.014-.007.019-.015t.009-.018q.004-.012.003-.025-.002-.014-.008-.029l-.179-.521h-.65q-.055 0-.076.012-.02.01-.031.04zM13.076 1.937q.003.04.038 0 .22-.25.467-.25.117 0 .202.065.084.064.106.161.008.03.033.002.215-.227.508-.227.188 0 .253.126t.065.364v.485q0 .185.031.229.033.042.166.052.012.015.012.053 0 .036-.012.048-.173-.006-.318-.006-.159 0-.314.006-.012-.012-.012-.048 0-.038.012-.053.126-.009.158-.054.033-.045.033-.227v-.54q0-.148-.046-.211-.045-.065-.137-.065-.221 0-.408.205.003.037.003.123v.488q0 .185.03.229.032.042.152.052.012.015.012.052 0 .034-.012.05-.153-.007-.302-.007-.16 0-.314.006-.012-.015-.012-.051 0-.038.012-.05.13-.009.16-.052.03-.044.03-.229v-.535q0-.28-.202-.28-.147 0-.332.181-.053.056-.053.13v.504q0 .128.018.184t.051.072.122.025q.014.014.014.052 0 .036-.014.05-.185-.007-.311-.007-.147 0-.332.006-.012-.012-.012-.048 0-.038.012-.053.135-.009.173-.054t.037-.227v-.6q0-.129-.036-.162-.036-.034-.165-.046-.018-.053-.006-.087.228-.03.379-.09.024 0 .037.025.015.035.024.234zM15.886 2.324l-.244.064q-.294.074-.291.338 0 .083.055.152.057.068.165.068.106 0 .271-.137.044-.035.044-.08zm0 .57h-.006l-.062.047q-.167.13-.335.13-.39 0-.388-.333 0-.153.14-.27t.368-.176l.265-.065q.018-.006.018-.036 0-.4-.25-.4-.102 0-.174.034-.073.031-.072.096 0 .043.006.06.009.018.01.055 0 .035-.042.071t-.104.035q-.108 0-.106-.112 0-.129.157-.234.16-.107.35-.107.466 0 .465.52v.453q0 .064.002.102.001.036.01.08.01.043.029.061t.05.018q.056 0 .115-.05.044.025.053.085-.118.114-.294.113-.105 0-.148-.046t-.057-.132M17.614 2.76q-.108.179-.228.245-.12.065-.274.065-.286 0-.448-.182-.16-.183-.16-.489 0-.312.193-.51.194-.2.438-.2.218 0 .344.08.126.082.126.211 0 .065-.048.1-.048.037-.102.037-.106 0-.117-.111-.006-.068-.022-.106-.013-.039-.063-.073-.048-.036-.135-.036-.153 0-.252.145-.098.146-.098.396 0 .264.12.427.12.16.292.16.212 0 .37-.202.049.006.064.043M18.22 2.16v.505q0 .13.015.186.016.054.05.07.032.017.118.025.014.013.014.05.001.037-.014.05-.173-.006-.304-.006-.135 0-.338.006-.013-.013-.013-.05t.013-.05q.077-.006.11-.014.035-.007.063-.036.029-.03.035-.081t.007-.15V1.319q0-.099-.004-.147-.005-.05-.04-.072-.032-.024-.052-.026l-.1-.007q-.035-.035-.019-.092.273-.02.432-.084.04 0 .039.032-.012.123-.012.323l-.003.693q0 .037.025.006l.005-.006q.225-.25.524-.25.176 0 .256.105.082.109.083.412v.459q0 .181.034.225.036.042.171.056.012.015.012.052 0 .036-.012.048-.203-.006-.326-.006-.141 0-.314.006-.012-.015-.012-.05 0-.038.012-.05.126-.012.158-.056.033-.044.033-.225v-.468q0-.164-.036-.237-.056-.111-.164-.112-.209 0-.394.182-.052.057-.052.13M19.493 1.718h.141l-.001-.194-.003-.1-.003-.038-.002-.025q0-.022.068-.042.054-.015.105-.043t.068-.029q.024 0 .024.027-.012.124-.012.325v.119h.37q.023 0 .023.02v.06q0 .041-.073.04h-.32v.778q0 .15.02.218.023.067.082.067.141 0 .252-.088.047.003.054.053-.181.203-.414.203-.238 0-.238-.304v-.927h-.182q-.015 0-.015-.018v-.04q0-.062.056-.062M20.61 1.196q0-.055.052-.1.053-.047.108-.047.06 0 .103.051.045.051.045.108 0 .053-.05.101-.048.048-.11.048-.055 0-.102-.05-.046-.052-.046-.11m.28 1.469q0 .185.037.228.037.042.185.053.015.015.015.053 0 .036-.015.048-.203-.006-.342-.006-.14 0-.345.006-.012-.012-.012-.048 0-.038.012-.053.147-.012.185-.054.037-.042.037-.227v-.6q0-.13-.036-.162-.035-.035-.164-.047-.018-.052-.006-.087.286-.037.421-.089.04 0 .04.021-.011.197-.011.35zM23.015 2.665q0 .185.051.23.053.043.247.05.015.016.015.054.001.036-.015.048-.307-.006-.427-.006-.13 0-.431.006-.012-.012-.012-.048 0-.038.012-.053.194-.006.246-.051.053-.045.053-.23V1.48q0-.15-.033-.226-.032-.079-.113-.079h-.15q-.16 0-.262.074t-.144.253q-.068 0-.105-.016.061-.264.076-.446 0-.009.014-.009.312.024.717.024h.264q.41 0 .69-.024.01 0 .01.01.002.202.038.436-.034.015-.103.015-.038-.172-.143-.244t-.286-.073h-.067q-.08 0-.112.079-.03.078-.03.235zM24.32 3.07q-.212 0-.306-.118-.091-.118-.091-.3v-.59q0-.145-.04-.192-.037-.046-.151-.055-.012-.012-.012-.048 0-.038.012-.055.209.006.314.006.077 0 .108-.006.024 0 .024.02-.012.225-.012.317v.56q0 .181.075.249.076.067.172.067.138 0 .308-.147.05-.044.048-.12v-.594q0-.147-.038-.195-.036-.048-.153-.054-.015-.012-.015-.048 0-.038.015-.055.21.006.314.006.077 0 .108-.006.025 0 .025.02-.013.225-.013.317v.59q0 .12.043.168.042.045.183.057.015.015.015.043t-.015.04q-.247.028-.364.123-.027.012-.058 0-.027-.106-.033-.18-.003-.016-.02-.014-.015 0-.027.01-.229.184-.416.184M25.825 2.022q-.05.062-.048.135v.56q0 .082.012.112.014.03.062.074.072.064.218.064.123 0 .212-.05.09-.052.135-.139t.066-.179.02-.198q0-.253-.106-.41-.105-.16-.26-.16-.064 0-.158.057-.091.057-.153.134m-.059-.114q.003.046.035.013.206-.231.422-.231.232 0 .388.188.157.187.156.44 0 .36-.226.582-.182.172-.454.171-.15 0-.268-.047-.024-.012-.033-.009t-.009.032v.332q0 .185.04.229.043.043.212.052.016.015.016.051 0 .038-.016.05-.202-.006-.372-.006-.13 0-.346.006-.012-.012-.012-.05 0-.036.012-.05.144-.007.183-.052t.04-.23V2.066q0-.13-.037-.163-.034-.034-.163-.046-.018-.053-.006-.088.228-.03.378-.088.024 0 .036.024.015.036.024.203M27.786 2.324l-.244.064q-.294.074-.291.338 0 .083.055.152.057.068.165.068.106 0 .271-.137.044-.035.044-.08zm0 .57h-.006l-.062.047q-.167.13-.335.13-.39 0-.388-.333 0-.153.14-.27t.368-.176l.265-.065q.018-.006.018-.036 0-.4-.25-.4-.102 0-.174.034-.072.031-.072.096 0 .043.006.06.009.018.01.055 0 .035-.042.071t-.104.035q-.108 0-.106-.112 0-.129.157-.234.16-.107.35-.107.466 0 .465.52v.453q0 .064.002.102.001.036.01.08.01.043.029.061t.05.018q.056 0 .115-.05.044.025.053.085-.117.114-.293.113-.106 0-.15-.046-.041-.046-.056-.132M28.582 2.665V1.32q0-.17-.032-.206-.03-.038-.166-.047-.035-.035-.018-.092.272-.02.43-.084.041 0 .041.032-.012.123-.013.323v1.419q0 .185.04.23.038.043.182.05.012.016.012.054 0 .036-.012.048-.203-.006-.342-.006-.13 0-.344.006-.015-.012-.015-.048 0-.038.015-.053.144-.006.183-.051t.039-.23"/></g></svg>