<?xml version="1.0" encoding="UTF-8"?>
<svg width="118px" height="13px" viewBox="0 0 118 13" version="1.1" xmlns="http://www.w3.org/2000/svg" xmlns:xlink="http://www.w3.org/1999/xlink">
    <title>nds-nl-tagline</title>
    <g id="Page-1" stroke="none" stroke-width="1" fill="none" fill-rule="evenodd">
        <path d="M113.873338,11.6660719 C114.077293,11.298951 114.254072,10.9046445 114.43079,10.496714 C115.518528,7.87258983 116.116759,6.48568428 116.83747,4.94919527 C117.095806,4.37815059 117.299771,4.16059252 117.938863,4.07901471 C118.020379,3.99729207 118.020379,3.71191456 117.938863,3.63025399 C117.666892,3.64399167 117.354184,3.65775003 116.973502,3.65775003 C116.565582,3.65775003 116.144058,3.64409511 115.73618,3.63025399 C115.654457,3.71216283 115.654457,3.99742655 115.73618,4.07901471 C116.157692,4.11997947 116.60636,4.20140211 116.388833,4.69086898 L115.029134,7.80450143 C114.933756,8.03567304 114.825189,8.06284841 114.702802,7.79084651 L113.506341,4.96272606 C113.261577,4.39166069 113.193602,4.14691691 113.955029,4.07893195 C114.036649,3.99731276 114.036649,3.7118318 113.955029,3.63025399 C113.451939,3.64390891 112.908049,3.65766728 112.41854,3.65766728 C111.956259,3.65766728 111.589149,3.64401236 111.31725,3.63025399 C111.235631,3.71197662 111.235631,3.99736448 111.31725,4.07893195 C111.847548,4.14720656 112.024286,4.26930432 112.377783,5.09868563 L113.927823,8.67461992 C114.036587,8.96013192 114.254176,9.57199654 114.118185,9.95269989 C113.955029,10.4149914 113.791832,10.7821019 113.587878,11.2035735 C113.438325,11.4754823 113.248005,11.59788 112.908059,11.59788 C112.717707,11.59788 112.663326,11.5569152 112.513763,11.5569152 C112.119446,11.5569152 111.915501,11.964825 111.915501,12.1415942 C111.915501,12.4270958 112.18741,12.6446435 112.554562,12.6446435 C112.840064,12.6446435 113.383954,12.5358593 113.8734,11.6656891 L113.873338,11.6660719 Z M108.912464,7.80462557 C108.912464,8.06297254 108.885154,8.17174641 108.694905,8.33490203 C108.191804,8.76999748 107.75673,8.98755555 107.416825,8.98755555 C106.682573,8.98755555 105.921198,8.18533926 105.921198,6.48570497 C105.921198,5.50676089 106.11156,4.96287088 106.315515,4.67735889 C106.737028,4.03830856 107.308083,3.99750931 107.580043,3.99750931 C108.069531,3.99750931 108.409456,4.17427848 108.681333,4.48699687 C108.871695,4.70456528 108.912495,4.79970491 108.912495,5.22123855 L108.912495,7.80460488 L108.912464,7.80462557 Z M108.76288,8.81079673 C108.8175,8.75617705 108.953252,8.7288672 108.966845,8.82445165 C108.994155,9.16437644 109.116418,9.62666795 109.116418,9.62666795 C109.225172,9.66763271 109.293167,9.66763271 109.374745,9.62666795 C109.67387,9.38194486 110.149755,9.1779693 110.979198,9.08281932 C111.060817,9.00099324 111.060817,8.79727629 110.979198,8.71567779 C110.109017,8.64750663 109.98663,8.38937689 109.98663,7.72314086 L109.98663,1.56373679 C109.98663,0.679942679 110.04125,0.136073362 110.04125,0.136073362 C110.04125,0.0409026967 109.98663,8.27571001e-05 109.864501,8.27571001e-05 C109.524566,0.136073362 108.504802,0.326373314 107.960984,0.367172564 C107.933571,0.475936083 107.960984,0.693535533 108.042604,0.775082311 C108.749629,0.816047075 108.912826,0.747669021 108.912826,1.89002734 L108.912826,3.63040916 C108.912826,3.72537293 108.885516,3.75278622 108.790449,3.75278622 C108.735829,3.75278622 108.178594,3.52162495 107.729916,3.52162495 C106.83254,3.52162495 106.234289,3.82075049 105.690368,4.3374341 C105.10572,4.92209232 104.752202,5.72433965 104.752202,6.73045909 C104.752202,8.40287664 105.595187,9.62654381 107.063608,9.62654381 C107.593843,9.62654381 108.096923,9.35461433 108.763232,8.81074501 L108.76288,8.81079673 Z M99.7200117,5.65630297 C99.9783277,4.11991741 100.930127,3.9974369 101.256397,3.9974369 C101.773102,3.9974369 102.384894,4.28296958 102.384894,5.42510032 C102.384894,5.54744635 102.330378,5.61546234 102.180949,5.61546234 L99.71996,5.6564271 L99.7200117,5.65630297 Z M103.282395,8.22611782 C102.779314,8.7427704 102.384987,8.96031812 101.596426,8.96031812 C101.106938,8.96031812 100.535893,8.67480613 100.114349,7.9813637 C99.8423991,7.53268573 99.6792539,6.90717654 99.6792539,6.11860482 L103.295946,6.14591466 C103.459091,6.14591466 103.554272,6.06429547 103.554272,5.91480512 C103.554272,4.77265369 103.146373,3.54898652 101.256418,3.54898652 C100.073509,3.54898652 98.5370197,4.67748302 98.5370197,6.74423815 C98.5370197,7.50564485 98.7273817,8.23986584 99.1760803,8.75658049 C99.6383408,9.30042912 100.27737,9.62676105 101.256387,9.62676105 C102.289754,9.62676105 103.023975,9.15088704 103.567793,8.44385175 C103.526828,8.30788184 103.445447,8.23990722 103.282301,8.22631437 L103.282395,8.22611782 Z M93.2433376,4.99000487 C93.5968553,4.55494045 94.2087199,4.14702036 94.6165883,4.14702036 C95.4867585,4.14702036 96.234593,5.12599547 96.234593,6.66242241 C96.234593,7.77736745 95.8402658,9.164273 94.3174213,9.164273 C94.0726776,9.164273 93.5968036,9.09610184 93.3520701,8.878761 C93.0665271,8.63400688 93.0257382,8.56602192 93.0257382,8.06294151 L93.0257382,5.58829732 C93.0257382,5.30275429 93.0802544,5.19395974 93.2432859,4.99000487 L93.2433376,4.99000487 Z M92.9849803,4.48694514 C92.9576705,4.07904574 92.9304641,3.73912095 92.8762168,3.58954784 C92.8353555,3.53492815 92.8217006,3.48079467 92.7130715,3.48079467 C92.3323682,3.63036778 91.9788505,3.75274484 91.040654,3.87509087 C91.0133958,3.95691695 91.040654,4.17422675 91.0678293,4.25580456 C91.8020503,4.32407917 91.9516234,4.39177448 91.9516234,5.18037723 L91.9516234,10.9862016 C91.9516234,12.1148015 91.8020607,12.1826624 90.9726483,12.2235237 C90.8910395,12.3054532 90.8910395,12.5906135 90.9726483,12.6722223 C91.4485327,12.6585674 91.9516234,12.6449125 92.4954824,12.6449125 C93.0393621,12.6449125 93.6919432,12.6585674 94.1406936,12.6722223 C94.2224162,12.5903963 94.2224162,12.3051325 94.1406936,12.2235237 C93.175332,12.168904 93.0257485,12.1147705 93.0257485,10.9862016 L93.0257485,9.5177803 C93.0257485,9.34102147 93.0666098,9.36819684 93.2161002,9.42281652 C93.5424425,9.55880713 93.9639451,9.62678174 94.3990095,9.62678174 C95.1604265,9.62678174 95.8402244,9.39564116 96.3978004,8.86535435 C97.0368507,8.23992791 97.4039612,7.39693306 97.4039612,6.2955395 C97.4039612,4.85422115 96.3842075,3.52183184 94.9972813,3.52183184 C94.3582516,3.52183184 93.6647885,3.9433241 93.1345224,4.54158552 C93.0529032,4.63665274 92.9849389,4.6234116 92.9849389,4.48696583 L92.9849803,4.48694514 Z M84.5699073,6.70318029 C84.5699073,8.09008584 85.494511,9.6264714 87.4252549,9.6264714 C88.2954458,9.6264714 88.948089,9.32733552 89.4103908,8.86504401 C90.0222451,8.28040648 90.3077778,7.42382911 90.3077778,6.5808446 C90.3077778,5.16673265 89.5327575,3.5215215 87.4524509,3.5215215 C86.555064,3.5215215 85.8072398,3.888632 85.3177315,4.47329022 C84.828244,5.05795879 84.5699073,5.84654085 84.5699073,6.70318029 L84.5699073,6.70318029 Z M87.248465,3.9974369 C88.4178228,3.9974369 89.1384303,5.05796914 89.1384303,7.01589868 C89.1384303,8.7290741 88.2546362,9.15061808 87.6155962,9.15061808 C86.2014843,9.15061808 85.7392859,7.43744266 85.7392859,6.39046189 C85.7392859,5.20755259 86.0248185,3.9974369 87.2485685,3.9974369 L87.248465,3.9974369 Z M81.7190494,7.83178024 C81.7190494,8.96027675 81.5694866,9.02834446 80.7400846,9.06910233 C80.6584758,9.15082497 80.6584758,9.43623352 80.7400846,9.51781133 C81.215969,9.50415641 81.7190494,9.49050149 82.2629187,9.49050149 C82.806788,9.49050149 83.3234509,9.50415641 83.7722013,9.51781133 C83.8537998,9.43619214 83.8537998,9.15070083 83.7722013,9.06910233 C82.9427993,9.02813757 82.7932365,8.96032847 82.7932365,7.83178024 L82.7932365,1.56365403 C82.7932365,0.679870267 82.8476183,0.135990605 82.8476183,0.135990605 C82.8476183,0.0407164933 82.7932365,-2.66453526e-15 82.6708595,-2.66453526e-15 C82.330945,0.135990605 81.3111603,0.326311246 80.7673427,0.367089807 C80.740126,0.475853326 80.7673427,0.693452776 80.8489516,0.774999553 C81.6375647,0.82961924 81.7191425,0.870066772 81.7191425,1.88994458 L81.7191425,7.83169748 L81.7190494,7.83178024 Z M74.6123868,7.83178024 C74.6123868,8.96027675 74.4628241,9.01468954 73.701407,9.06910233 C73.6197982,9.15082497 73.6197982,9.43623352 73.701407,9.51781133 C74.1500953,9.50415641 74.6123868,9.49050149 75.1562769,9.49050149 C75.6321612,9.49050149 76.0808599,9.50415641 76.3935989,9.51781133 C76.4752078,9.43619214 76.4752078,9.15070083 76.3935989,9.06910233 C75.8361264,9.01448265 75.6865637,8.96032847 75.6865637,7.83178024 L75.6865637,6.66242241 C75.9449106,6.66242241 76.1352623,6.68973226 76.2712219,6.73069702 C76.4207847,6.82597113 76.5431514,6.9482344 76.7063173,7.16577179 L77.6988853,8.49826454 C78.0931919,9.04212352 78.2427546,9.30044981 78.2699507,9.45002292 C78.2699507,9.49098768 78.2835332,9.51819408 78.3243324,9.51819408 C78.5962619,9.50453916 78.8953978,9.49088424 79.1673273,9.49088424 C79.5888299,9.49088424 80.0103222,9.50453916 80.2822723,9.51819408 C80.3638708,9.436368 80.3638708,9.15108358 80.2822723,9.06948508 C79.8199808,9.0148654 79.4664632,8.96071122 79.1129145,8.49843006 L77.3181199,6.2413336 C77.2637381,6.18671391 77.2229389,6.11896688 77.2229389,6.05097158 C77.2229389,5.99635189 77.2229389,5.96935239 77.2773206,5.91501201 L78.4738849,4.67768992 C78.8817843,4.24258412 79.3576686,4.13383094 79.9015483,4.07942849 C79.9831571,3.99760241 79.9831571,3.71232834 79.9015483,3.63074019 C79.5888196,3.64439511 79.2081162,3.65815348 78.718639,3.65815348 C78.2019657,3.65815348 77.6988853,3.64449855 77.3861462,3.63074019 C77.3045477,3.71256627 77.3045477,3.99784034 77.3861462,4.07942849 C78.1475736,4.13404818 77.8212417,4.62330816 77.698875,4.77288127 C77.3861462,5.16716713 76.9510508,5.62947932 76.6111363,5.8878263 C76.2984076,6.11896688 75.9312971,6.28213285 75.6865533,6.30928752 L75.6865533,1.5639954 C75.6865533,0.680180606 75.7409351,0.136331978 75.7409351,0.136331978 C75.7409351,0.0412647591 75.6865533,0.000362062313 75.5641763,0.000362062313 C75.2242618,0.136331978 74.2044771,0.326652619 73.6606595,0.367451869 C73.6334428,0.476215388 73.6606595,0.693804494 73.7422684,0.775361616 C74.4493036,0.81632638 74.6124593,0.747948326 74.6124593,1.89030665 L74.6124593,7.83216299 L74.6123868,7.83178024 Z M69.2325547,11.6661236 C69.4365095,11.2990027 69.6132684,10.9046962 69.7900272,10.4967658 C70.8777658,7.87264156 71.4759962,6.48573601 72.1966036,4.94924699 C72.4549506,4.37820231 72.6588952,4.16064424 73.2978938,4.07906643 C73.3795026,3.9973438 73.3795026,3.71196628 73.2978938,3.63030571 C73.0259539,3.64404339 72.7132355,3.65780176 72.3325218,3.65780176 C71.9246224,3.65780176 71.5031198,3.64414684 71.0951997,3.63030571 C71.0135909,3.71221455 71.0135909,3.99747828 71.0951997,4.07906643 C71.5167023,4.1200312 71.9653907,4.20145384 71.7478429,4.69092071 L70.3881438,7.80455315 C70.2929628,8.03572477 70.1841889,8.06290013 70.0618222,7.79089823 L68.865258,4.96277778 C68.6205142,4.39171241 68.5525396,4.14696863 69.3139463,4.07898367 C69.3955551,3.99736448 69.3955551,3.71188352 69.3139463,3.63030571 C68.8108659,3.64396063 68.2669655,3.657719 67.7775607,3.657719 C67.3152692,3.657719 66.9481587,3.64406408 66.6762706,3.63030571 C66.5946618,3.71202835 66.5946618,3.99741621 66.6762706,4.07898367 C67.2065471,4.14715484 67.3833059,4.26935604 67.7368028,5.09873735 L69.2868433,8.67467165 C69.3956172,8.96018364 69.6131649,9.57204826 69.477195,9.95275161 C69.314029,10.4150431 69.1508734,10.7821536 68.9469185,11.2036252 C68.7973558,11.475534 68.6069937,11.5979317 68.2670793,11.5979317 C68.0767173,11.5979317 68.0223355,11.556967 67.8727727,11.556967 C67.4784662,11.556967 67.2745217,11.9648767 67.2745217,12.1416459 C67.2745217,12.4271475 67.5464615,12.6446953 67.913572,12.6446953 C68.1991047,12.6446953 68.742974,12.535911 69.2324098,11.6657408 L69.2325547,11.6661236 Z M66.0544751,8.25332422 C66.0000934,8.13097819 65.8913092,8.07659643 65.7689424,8.06298289 C65.3066509,8.66124431 64.7219617,8.9603595 64.1372828,8.9603595 C63.1447148,8.9603595 62.3152818,7.95419868 62.3152818,6.3634417 C62.3152818,4.86781401 62.9679249,3.9704167 63.8653222,3.9704167 C64.6675282,3.9704167 64.7763021,4.44629072 64.8306942,4.92219577 C64.8714934,5.28930626 65.0618347,5.41169367 65.3473674,5.41169367 C65.6329001,5.41169367 66.0136035,5.23490382 66.0136035,4.81341156 C66.0136035,4.06559771 65.2385832,3.52178012 63.9332969,3.52178012 C62.5872526,3.52178012 61.1459343,4.73189582 61.1459343,6.66261896 C61.1459343,8.4166557 62.124899,9.6267714 63.8381262,9.6267714 C64.6539353,9.6267714 65.3745118,9.36842442 66.0543613,8.25352077 L66.0544751,8.25332422 Z M55.7886637,4.62297713 C55.6934724,4.71804435 55.6254978,4.7589367 55.6254978,4.62297713 C55.6119049,4.25585629 55.571116,3.73917268 55.5167239,3.58959956 C55.4759247,3.53497988 55.4623422,3.48084639 55.3535579,3.48084639 C54.9728546,3.6304195 54.619337,3.75279656 53.6811404,3.87514259 C53.6539237,3.95696867 53.6811404,4.17427848 53.7083571,4.25585629 C54.4425885,4.32413089 54.5921512,4.3918262 54.5921512,5.18042895 L54.5921512,7.83175955 C54.5921512,8.94670458 54.4561813,9.00111737 53.6403825,9.06908164 C53.5587737,9.15080428 53.5587737,9.43621283 53.6403825,9.51779064 C54.0482819,9.50413572 54.5921512,9.4904808 55.1360102,9.4904808 C55.6798795,9.4904808 56.0877789,9.50413572 56.4957094,9.51779064 C56.5773182,9.43617145 56.5773182,9.15068014 56.4957094,9.06908164 C55.8022773,9.00091048 55.6663074,8.94671493 55.6663074,7.83175955 L55.6663074,5.60186949 C55.6663074,5.31635749 55.7886844,5.15317083 55.8974583,5.03081446 C56.4141316,4.52773405 57.0259548,4.22859817 57.5562209,4.22859817 C57.8281608,4.22859817 58.1136934,4.40535699 58.2768491,4.71809607 C58.412819,4.98999452 58.4400047,5.35715674 58.4400047,5.76507683 L58.4400047,7.83172852 C58.4400047,8.94667355 58.3040348,9.00108634 57.5969995,9.06905061 C57.5290352,9.15077325 57.5290352,9.43618179 57.5969995,9.51779064 C58.0048989,9.50410468 58.4400047,9.49044976 58.983905,9.49044976 C59.5277744,9.49044976 60.0172619,9.50410468 60.4251199,9.51779064 C60.4930842,9.43614042 60.4930842,9.15064911 60.4251199,9.06905061 C59.6637029,9.00087945 59.5141401,8.94668389 59.5141401,7.83172852 L59.5141401,5.8058347 C59.5141401,5.0580312 59.4597584,4.40537768 59.1470296,3.98393714 C58.915889,3.68480126 58.4943864,3.52164564 58.0185331,3.52164564 C57.3522971,3.52164564 56.5908697,3.6984148 55.7886431,4.62293575 L55.7886637,4.62297713 Z M48.8914801,5.65632366 C49.1498168,4.11993809 50.1015958,3.99745759 50.4278657,3.99745759 C50.944539,3.99745759 51.5563622,4.28299027 51.5563622,5.42512101 C51.5563622,5.54746704 51.5019804,5.61548303 51.3524073,5.61548303 L48.8914181,5.65644779 L48.8914801,5.65632366 Z M52.4538629,8.22613851 C51.9507825,8.74279109 51.556476,8.96033881 50.7678939,8.96033881 C50.2784064,8.96033881 49.7073617,8.67482682 49.2858177,7.98138439 C49.0138882,7.53270642 48.8507223,6.90719723 48.8507223,6.11862551 L52.4674144,6.14593535 C52.6305804,6.14593535 52.7257511,6.06431616 52.7257511,5.91482581 C52.7257511,4.77267438 52.3178517,3.54900721 50.4278967,3.54900721 C49.2449874,3.54900721 47.7084984,4.67750371 47.7084984,6.74425884 C47.7084984,7.50566554 47.8988501,8.23988653 48.3475487,8.75660118 C48.8098402,9.30044981 49.4488389,9.62678174 50.4278553,9.62678174 C51.4612122,9.62678174 52.1954436,9.15090773 52.7392612,8.44387244 C52.6984619,8.30790253 52.6168841,8.23992791 52.4537285,8.22633506 L52.4538629,8.22613851 Z M39.411344,5.65632366 C39.6696806,4.11993809 40.6214597,3.99745759 40.9477295,3.99745759 C41.4644028,3.99745759 42.076226,4.28299027 42.076226,5.42512101 C42.076226,5.54746704 42.0218443,5.61548303 41.8722712,5.61548303 L39.4112819,5.65644779 L39.411344,5.65632366 Z M42.9737268,8.22613851 C42.4706464,8.74279109 42.0763398,8.96033881 41.2877578,8.96033881 C40.7982702,8.96033881 40.2272255,8.67482682 39.8056816,7.98138439 C39.5337417,7.53270642 39.3705861,6.90719723 39.3705861,6.11862551 L42.9872783,6.14593535 C43.1504339,6.14593535 43.2456149,6.06431616 43.2456149,5.91482581 C43.2456149,4.77267438 42.8377052,3.54900721 40.9477606,3.54900721 C39.7648513,3.54900721 38.2283623,4.67750371 38.2283623,6.74425884 C38.2283623,7.50566554 38.4187139,8.23988653 38.8674126,8.75660118 C39.3297041,9.30044981 39.9687027,9.62678174 40.9477192,9.62678174 C41.9810761,9.62678174 42.7153074,9.15090773 43.259125,8.44387244 C43.2183257,8.30790253 43.1367479,8.23992791 42.9735923,8.22633506 L42.9737268,8.22613851 Z M33.6210366,11.6661443 C33.8249914,11.2990234 34.0017503,10.9047169 34.1785091,10.4967864 C35.2662477,7.87266225 35.8644781,6.48575669 36.585189,4.94926768 C36.8435256,4.378223 37.0474805,4.16066493 37.6864791,4.07908712 C37.7680776,3.99736448 37.7680776,3.71198697 37.6864791,3.6303264 C37.4145496,3.64406408 37.1018209,3.65782245 36.7211072,3.65782245 C36.3132078,3.65782245 35.8917052,3.64416753 35.4837851,3.6303264 C35.4021763,3.71223524 35.4021763,3.99749896 35.4837851,4.07908712 C35.9052877,4.12005189 36.353976,4.20147453 36.1364283,4.6909414 L34.7767291,7.80457384 C34.6815585,8.03574546 34.5727846,8.06292082 34.4504075,7.79091892 L33.2538433,4.96279847 C33.0090995,4.3917331 32.9411146,4.14698932 33.702542,4.07900436 C33.7841508,3.99738517 33.7841508,3.71190421 33.702542,3.6303264 C33.1994616,3.64398132 32.6555612,3.65773969 32.1661564,3.65773969 C31.7038649,3.65773969 31.3367544,3.64408477 31.0648663,3.6303264 C30.9832574,3.71204904 30.9832574,3.9974369 31.0648663,4.07900436 C31.5951428,4.14727897 31.7719016,4.26937673 32.1253985,5.09875804 L33.675439,8.67469234 C33.7842129,8.96020433 34.0017606,9.57206895 33.8657907,9.9527723 C33.7026351,10.4150638 33.5394691,10.7821743 33.3355142,11.2036459 C33.1859515,11.4755547 32.9955894,11.5979524 32.655675,11.5979524 C32.4653233,11.5979524 32.4109312,11.5569877 32.2613684,11.5569877 C31.8670619,11.5569877 31.663107,11.9648974 31.663107,12.1416666 C31.663107,12.4271682 31.9350469,12.6447159 32.3021574,12.6447159 C32.58769,12.6447159 33.1315594,12.5359317 33.6209952,11.6657615 L33.6210366,11.6661443 Z M27.9821747,4.62299782 C27.9549889,4.07911815 27.9277929,3.73919337 27.8734008,3.58962025 C27.8326015,3.53500057 27.819019,3.48086708 27.7102348,3.48086708 C27.3295211,3.63044019 26.9760138,3.75281725 26.0378173,3.87516328 C26.0105902,3.95698936 26.0378173,4.17429916 26.0650237,4.25587698 C26.7992447,4.32415158 26.9488178,4.39184689 26.9488178,5.18044964 L26.9488178,7.83178024 C26.9488178,8.96027675 26.7856518,9.01468954 25.942657,9.06910233 C25.8610481,9.15082497 25.8610481,9.43623352 25.942657,9.51781133 C26.4185413,9.50415641 26.9488178,9.49050149 27.4926974,9.49050149 C28.0365668,9.49050149 28.6620553,9.50415641 29.1379086,9.51781133 C29.2195071,9.43619214 29.2195071,9.15070083 29.1379086,9.06910233 C28.1861399,9.00093117 28.0229636,8.96032847 28.0229636,7.83178024 L28.0229636,5.94181496 C28.0229636,5.58830767 28.1861295,5.27556859 28.3492852,5.03083515 C28.4988479,4.81327708 28.8115767,4.36458877 28.9747323,4.36458877 C29.0971093,4.36458877 29.2194761,4.40555354 29.3146467,4.54134759 C29.4234206,4.67731751 29.5729834,4.85407633 29.8177271,4.85407633 C30.1440487,4.85407633 30.4567775,4.51416189 30.4567775,4.1742371 C30.4567775,3.91589012 30.2120337,3.52159392 29.6409787,3.52159392 C29.0019283,3.52159392 28.4444144,4.11985534 28.131696,4.65009042 C28.0500872,4.79964285 27.9821333,4.69105519 27.9821333,4.62278058 L27.9821747,4.62299782 Z M23.2362619,4.07911815 C23.9704828,4.13373784 24.0384678,4.31026908 23.7529351,4.99007728 L22.6651965,7.6550628 C22.4340559,8.19894246 22.3660709,8.18533926 22.1621161,7.61409803 L21.1695481,4.98987039 C20.9384075,4.33725824 20.8704226,4.17409227 21.6046436,4.07891126 C21.6862524,3.99739552 21.6862524,3.71181111 21.6046436,3.6302333 C21.1559553,3.64388822 20.6800605,3.65764659 20.2313929,3.65764659 C19.7827046,3.65764659 19.3747949,3.64399167 18.9668644,3.6302333 C18.8852556,3.71205938 18.8852556,3.99735414 18.9668644,4.07891126 C19.6874926,4.17387503 19.7826632,4.39164 20.0546031,5.07148958 L21.7949849,9.36803132 C21.8765937,9.57199654 21.9581405,9.65357435 22.1349097,9.65357435 C22.2708796,9.65357435 22.3524574,9.57195516 22.4612313,9.34085596 L24.2695774,5.08507209 C24.527914,4.50043455 24.6774768,4.1469376 25.4389352,4.07892161 C25.5205337,3.99740586 25.5205337,3.71182146 25.4389352,3.6302333 C25.1669953,3.64389857 24.8406841,3.65765693 24.4871561,3.65765693 C24.0384678,3.65765693 23.5761763,3.64400201 23.2362825,3.6302333 C23.1546737,3.71206973 23.1546737,3.99736448 23.2362825,4.07892161 L23.2362619,4.07911815 Z M11.0223483,5.65636504 C11.280685,4.11997947 12.232464,3.99749896 12.5587339,3.99749896 C13.0754072,3.99749896 13.6872304,4.28303165 13.6872304,5.42516239 C13.6872304,5.54750842 13.6328383,5.61552441 13.4832755,5.61552441 L11.0222863,5.65648917 L11.0223483,5.65636504 Z M14.5847312,8.22617989 C14.0816507,8.74283246 13.6873442,8.96038019 12.8987621,8.96038019 C12.4092746,8.96038019 11.8382299,8.6748682 11.4166859,7.98142577 C11.1447461,7.5327478 10.9815905,6.90723861 10.9815905,6.11866689 L14.5982826,6.14597673 C14.7614486,6.14597673 14.8566193,6.06435754 14.8566193,5.91486718 C14.8566193,4.77271576 14.4487095,3.54904858 12.5587649,3.54904858 C11.3758556,3.54904858 9.83936663,4.67754509 9.83936663,6.74430022 C9.83936663,7.50570692 10.0297183,8.23992791 10.478417,8.75664256 C10.9407085,9.30049118 11.5797071,9.62682312 12.5587236,9.62682312 C13.5920804,9.62682312 14.3263118,9.1509491 14.8701294,8.44391382 C14.8293301,8.3079439 14.7477626,8.23996929 14.5845967,8.22637644 L14.5847312,8.22617989 Z M2.39978263,8.34852592 L2.39978263,1.82209411 C2.39978263,1.34624078 2.87566699,1.15586842 3.54193406,1.15586842 C6.4788801,1.15586842 7.44424167,3.53534194 7.44424167,5.62920002 C7.44424167,8.37580473 5.79903052,9.05555086 3.88185885,9.05555086 C2.54936609,9.05555086 2.39978263,8.78361103 2.39978263,8.34850523 L2.39978263,8.34852592 Z M1.81512441,0.720700551 C1.32563685,0.720700551 0.605008711,0.70704563 0.0611911171,0.693390708 C-0.020397039,0.775009898 -0.020397039,1.06048051 0.0611911171,1.14208936 C1.01295984,1.18305412 1.24410042,1.25085288 1.24410042,2.37930801 L1.24410042,7.8316561 C1.24410042,8.96015261 1.01295984,9.02822032 0.0611911171,9.0689782 C-0.020397039,9.15070083 -0.020397039,9.43610938 0.0611911171,9.51767685 C0.591467581,9.50402193 1.31206469,9.49036701 1.82877933,9.49036701 C2.33185974,9.49036701 2.90296649,9.51767685 4.30342352,9.51767685 C6.22059519,9.51767685 8.74954872,8.64749629 8.74954872,5.30265085 C8.74954872,2.77369731 6.66924212,0.693390708 4.05866939,0.693390708 C3.09329747,0.693390708 2.34549397,0.720700551 1.81522785,0.720700551 L1.81512441,0.720700551 Z" id="nds-nl-tagline" fill="#000000" fill-rule="nonzero"></path>
    </g>
</svg>