<svg xmlns="http://www.w3.org/2000/svg" width="95" height="29" fill="none"><path fill="#000" d="M14.405 24.526c0 1.05-.345 1.912-1.035 2.587-.69.675-1.545 1.012-2.566 1.012-.96 0-1.77-.33-2.43-.99a3.249 3.249 0 0 1-.99-2.384c0-.96.33-1.77.99-2.43.66-.66 1.47-.99 2.43-.99.33 0 .6.014.81.044V14.76c0-1.92-1.38-2.88-4.14-2.88-1.14 0-2.108.353-2.902 1.058-.795.705-1.192 1.643-1.192 2.813H.68c.09-1.98.742-3.518 1.957-4.613 1.215-1.095 2.827-1.643 4.838-1.643 1.98 0 3.569.39 4.77 1.17 1.44.93 2.16 2.355 2.16 4.275v9.586Zm-2.07.18c0-.42-.15-.78-.45-1.08-.3-.3-.661-.45-1.081-.45-.42 0-.78.15-1.08.45-.3.3-.45.66-.45 1.08 0 .42.15.78.45 1.08.3.3.66.45 1.08.45.42 0 .78-.15 1.08-.45.3-.3.45-.66.45-1.08ZM14.49 7.56c-3.72-1.2-7.125-1.799-10.215-1.8-1.41.001-2.835.09-4.275.27C.36 2.01 2.55 0 6.57 0c2.31 0 4.14.698 5.49 2.093 1.35 1.395 2.16 3.218 2.43 5.467Zm-2.88-2.655c-.18-.75-.72-1.454-1.62-2.115-.9-.66-1.92-.99-3.06-.99-1.08 0-2.01.218-2.79.653-.78.435-1.275 1.012-1.485 1.733.51-.12 1.305-.18 2.385-.18 2.22 0 4.41.3 6.57.9ZM30.481 27.854h-1.983v-8.481c0-.874-.267-1.568-.8-2.08-.534-.512-1.238-.768-2.112-.768-1.28 0-2.25.544-2.912 1.632 1.002.192 1.717.672 2.143 1.44-1.087.64-1.631 1.409-1.631 2.304v5.953H21.2v-6.08c0-.896.438-1.6 1.313-2.113-.534-.363-1.184-.49-1.953-.384.044-1.322.555-2.41 1.537-3.263.896-.79 2.037-1.185 3.424-1.185 1.535 0 2.746.41 3.631 1.232.886.822 1.328 1.937 1.328 3.344v8.448ZM30.533 13.453c-2.645-.853-5.066-1.28-7.264-1.28-1.002 0-2.015.065-3.04.192.256-2.858 1.814-4.288 4.672-4.288 1.643 0 2.944.496 3.904 1.488.96.993 1.536 2.289 1.728 3.888Zm-2.048-1.888c-.127-.533-.511-1.034-1.151-1.503a3.588 3.588 0 0 0-2.177-.705c-.767 0-1.428.155-1.983.464-.555.31-.907.72-1.057 1.233.363-.086.928-.128 1.697-.128 1.578 0 3.136.213 4.671.64ZM47.478 25.205c0 1.064-.325 1.884-.976 2.46-.65.576-1.509.863-2.575.863-1.067 0-1.926-.287-2.577-.863-.65-.576-.976-1.396-.976-2.46v-1.467c0-.695.357-1.613 1.072-2.753.715-1.14 1.073-2.037 1.073-2.689-.107-.825-.449-1.401-1.025-1.727l-1.183 1.238-1.409-1.303c-.213.13-.443.363-.688.7-.245.337-.378.636-.4.896.32-.065.544-.097.672-.097.64 0 1.184.228 1.632.684.448.456.672 1.01.672 1.662 0 .651-.218 1.206-.656 1.662-.437.457-.986.685-1.648.685-.746 0-1.354-.315-1.824-.946-.47-.63-.704-1.314-.704-2.053 0-1.151.304-2.2.912-3.145.608-.945 1.392-1.46 2.353-1.548l1.055 1.11.992-1.141c1.92.434 2.88 1.585 2.88 3.453 0 .674-.298 1.532-.896 2.575-.597 1.043-.896 1.868-.896 2.476v2.184c0 .37.166.652.497.847.33.195.688.293 1.072.293.405 0 .767-.103 1.087-.31.32-.206.48-.482.48-.83v-5.377c0-.804-.31-1.304-.928-1.499.086-.39.096-.771.033-1.14 1.088-.413 1.632-1.456 1.632-3.129h1.984c-.15 1.673-.715 2.9-1.696 3.683.64.52.96 1.205.96 2.052v4.954Zm-8-4.856a.982.982 0 0 0-.288-.717.95.95 0 0 0-.704-.293.95.95 0 0 0-.704.293.983.983 0 0 0-.288.717c0 .282.096.521.288.717a.949.949 0 0 0 .704.293.949.949 0 0 0 .704-.293.984.984 0 0 0 .288-.717ZM63.406 25.363c0 1.178-.522 2.051-1.566 2.617-.844.476-1.933.714-3.265.714-1.333 0-2.41-.238-3.232-.713-1-.567-1.5-1.44-1.5-2.618v-3.435c0-.815.222-1.5.667-2.056.444-.556 1.077-.834 1.899-.834.71 0 1.31.244 1.8.731.488.488.733 1.094.733 1.82a2.48 2.48 0 0 1-.733 1.801 2.422 2.422 0 0 1-1.8.748c-.2 0-.367-.022-.5-.067v1.054c0 1.178.9 1.767 2.7 1.767 1.82 0 2.731-.6 2.731-1.801v-6.529c0-.748-.344-1.314-1.033-1.7-.577-.317-1.288-.476-2.132-.476-2.11 0-3.254.556-3.432 1.667h-1.999c.289-2.29 2.044-3.446 5.264-3.469 1.488 0 2.71.284 3.665.85 1.155.726 1.733 1.813 1.733 3.264v6.665Zm-5.864-3.774c0-.318-.111-.59-.334-.816a1.08 1.08 0 0 0-.8-.34 1.08 1.08 0 0 0-.799.34 1.125 1.125 0 0 0-.333.816c0 .317.111.588.333.815.222.227.489.34.8.34.31 0 .578-.113.8-.34.222-.227.333-.498.333-.815ZM76.696 25.724c0 .682-.24 1.252-.72 1.711a2.432 2.432 0 0 1-1.744.688 2.402 2.402 0 0 1-1.744-.704 2.323 2.323 0 0 1-.72-1.728c0-.682.24-1.259.72-1.728a2.402 2.402 0 0 1 1.744-.704c.256 0 .416.01.48.032v-2.752c0-.341-.709-.677-2.127-1.008a62.268 62.268 0 0 0-3.856-.784c.042-1.173.351-2.117.927-2.832.576-.715 1.408-1.072 2.496-1.072.448 0 1.061.101 1.84.304.779.203 1.339.304 1.68.304.364 0 .566-.235.608-.704l1.569.416c-.385 1.302-1.089 1.952-2.113 1.952-.384 0-.933-.096-1.648-.288-.714-.192-1.253-.288-1.615-.288-.94 0-1.473.363-1.6 1.088 1.642.342 3.023.705 4.143 1.088 1.12.384 1.68 1.045 1.68 1.984v5.025Zm-1.376-.033c0-.298-.106-.554-.32-.768a1.048 1.048 0 0 0-.768-.32c-.298 0-.554.107-.768.32-.213.214-.32.47-.32.768 0 .3.107.555.32.768.214.214.47.32.768.32.3 0 .555-.106.769-.32.213-.213.32-.469.32-.768ZM78.204 6.523c-.085.896-.373 1.541-.864 1.936-.49.395-1.151.71-1.984.944.342.17.614.422.816.752.203.331.305.699.305 1.104 0 .576-.203 1.067-.608 1.472a2.005 2.005 0 0 1-1.472.608 2.005 2.005 0 0 1-1.473-.608c-.405-.405-.608-.906-.608-1.504 0-1.536.79-2.528 2.369-2.976.895-.234 1.466-.533 1.712-.896.245-.362.368-.64.368-.832h1.44Zm-2.88 4.736a.857.857 0 0 0-.272-.624.858.858 0 0 0-.623-.272.859.859 0 0 0-.625.272.858.858 0 0 0-.272.624c0 .235.09.443.272.624.181.182.39.272.625.272.234 0 .442-.09.623-.272a.858.858 0 0 0 .272-.624ZM93.458 24.769c0 1.045-.325 1.85-.976 2.416-.65.565-1.51.848-2.576.848-1.067 0-1.926-.283-2.576-.848-.651-.566-.977-1.371-.977-2.416v-1.44c0-.683.358-1.584 1.073-2.704s1.072-2 1.072-2.64c-.107-.81-.448-1.376-1.024-1.696l-1.184 1.215-1.408-1.279c-.214.128-.443.357-.688.688-.245.33-.379.624-.4.88a4.05 4.05 0 0 1 .672-.096c.64 0 1.184.224 1.632.672.448.448.671.991.671 1.631s-.218 1.185-.655 1.633c-.437.448-.987.672-1.648.672-.747 0-1.355-.31-1.824-.928-.47-.619-.704-1.29-.704-2.016 0-1.131.303-2.16.912-3.088.608-.929 1.392-1.435 2.352-1.52l1.056 1.088.992-1.12c1.92.427 2.88 1.557 2.88 3.392 0 .661-.299 1.504-.896 2.528s-.896 1.835-.896 2.432v2.144c0 .363.165.64.496.832a2.1 2.1 0 0 0 1.072.287 1.99 1.99 0 0 0 1.088-.303c.32-.203.48-.475.48-.816v-5.28c0-.79-.31-1.28-.928-1.472.085-.384.096-.757.032-1.12 1.088-.405 1.632-1.43 1.632-3.072h1.984c-.15 1.643-.715 2.848-1.696 3.616.64.512.96 1.184.96 2.016v4.864Zm-8-4.768a.956.956 0 0 0-.288-.704.959.959 0 0 0-.704-.288.959.959 0 0 0-.704.288.956.956 0 0 0-.288.703c0 .278.096.512.288.705a.958.958 0 0 0 .704.288.957.957 0 0 0 .704-.288.958.958 0 0 0 .288-.704Z"/></svg>