<svg xmlns="http://www.w3.org/2000/svg" width="120" height="18" fill="none"><path fill="#000" fill-rule="evenodd" d="M15.36.004c1.44-.01 4.674 0 4.674 0l.058.053v.5c0 .14-.078.208-.231.208-.753.035-.908.11-1.184.507-.15.216-.447.681-.755 1.204L15.28 7.419l-.074.156 3.23 6.61.196.053 5.088-12.076c.177-.487.15-.832-.077-1.035-.229-.197-.39-.315-.979-.34l-.477-.022a.275.275 0 0 1-.168-.062.174.174 0 0 1-.08-.146V.054l.073-.052h5.749l.058.052v.503c0 .136-.078.205-.23.205-.754.033-1.312.197-1.674.488-.362.294-.645.698-.848 1.225 0 0-4.68 10.71-6.28 14.27-.613 1.168-1.216 1.06-1.746-.033-.664-1.367-2.042-4.381-3.054-6.61-1.083 2.233-2.565 5.26-3.3 6.623-.715 1.243-1.304 1.08-1.772.033-.785-1.852-1.969-4.38-3.16-6.923l-.001-.001C4.475 7.106 3.189 4.36 2.376 2.406c-.291-.695-.51-1.142-.717-1.318C1.45.913 1.019.808.36.773.121.747 0 .688 0 .593V.067L.059.016c1.07-.006 6.249 0 6.249 0l.058.051v.5c0 .14-.087.206-.26.206L5.454.8c-.56.023-.84.19-.84.5 0 .145.06.38.19.695 1.252 3.051 5.576 12.169 5.576 12.169l.158.041 2.787-5.56-.558-1.234-1.916-3.766s-.37-.753-.497-1.003l-.086-.172-.086-.17C9.51.96 9.468.877 8.68.772 8.441.74 8.318.71 8.318.592V.064L8.39.013C9.927.01 13.349.01 13.349.01l.131.043V.58c0 .12-.086.182-.26.182l-.36.051c-.909.07-.76.442-.156 1.645l1.838 3.761 2.034-4.056c.34-.742.27-.928.13-1.1-.081-.095-.352-.25-.94-.274l-.231-.025a.276.276 0 0 1-.167-.06.172.172 0 0 1-.079-.147V.056l.072-.052Zm14.507 15.632c0 .578.262.919 1.102.998l.551.053c.08 0 .158.051.158.156v.552l-.026.053s-1.995-.053-2.809-.053c-.735 0-2.782.053-2.782.053l-.053-.053v-.552c0-.105.079-.156.184-.156l.525-.053c.866-.08 1.129-.5 1.129-.998V6.895c0-.576-.317-.736-1.13-.813l-.524-.054c-.105 0-.184-.025-.184-.105v-.605l.026-.053s2.074.053 2.888.053c.709 0 2.73-.053 2.73-.053l.026.053v.577c0 .08-.053.132-.158.132l-.55.053c-.814.078-1.103.289-1.103.815v8.741Zm8.849.998c-.761-.132-1.103-.42-1.103-.998v-3.89c.578 0 .998.13 1.392.655l2.913 3.624c.368.42.394.706.394 1.049v.315l.026.026s.945-.026 1.601-.026c.735 0 2.127.026 2.127.026l.078-.026v-.552c0-.078-.105-.13-.183-.156l-.132-.025c-.525-.104-1.155-.263-1.47-.63l-3.963-4.777c-.132-.157-.236-.287-.236-.445 0-.21.157-.498.603-.972l2.258-2.597c.943-1.074 1.65-1.128 2.67-1.207h.007c.131 0 .21-.053.21-.132v-.605l-.079-.025s-1.155.053-1.837.053c-.761 0-2.887-.053-2.887-.053l-.027.025v.605c0 .08.053.107.158.132.525.08.761.315.761.526 0 .501-.814 1.469-1.864 2.626-1.155 1.235-1.653 1.68-2.52 1.68V6.895c0-.526.29-.658 1.103-.815l.288-.053c.105-.027.158-.053.158-.132v-.577l-.026-.053s-1.653.053-2.389.053c-.814 0-2.966-.053-2.966-.053l-.026.053v.605c0 .08.078.105.183.105l.525.054c.84.077 1.13.237 1.13.813v8.741c0 .499-.342.919-1.13.998l-.525.053c-.105 0-.183.051-.183.156v.552l.052.053s2.153-.053 2.888-.053c.787 0 2.44.053 2.44.053l.027-.053v-.552c0-.105-.079-.13-.157-.156l-.29-.053Zm13.049-.998c0 .578.262.919 1.102.998l.552.053c.078 0 .157.051.157.156v.552l-.026.053s-1.995-.053-2.809-.053c-.735 0-2.782.053-2.782.053l-.053-.053v-.552c0-.105.079-.156.184-.156l.525-.053c.866-.08 1.129-.5 1.129-.998V6.895c0-.576-.315-.736-1.13-.813l-.524-.054c-.105 0-.184-.025-.184-.105v-.605l.026-.053s2.074.053 2.888.053c.709 0 2.73-.053 2.73-.053l.026.053v.577c0 .08-.053.132-.157.132l-.552.053c-.813.078-1.102.289-1.102.815v8.741Zm4.097-9.608c1.233.078 1.575.105 1.575.918l.003 8.82c0 .498-.263.734-1.076.84l-.552.078c-.105.025-.157.051-.157.156v.552l.026.053s1.969-.053 2.704-.053c.813 0 2.914.053 2.914.053l.025-.053v-.552c0-.102-.08-.13-.185-.156l-.526-.079c-.841-.13-1.156-.263-1.156-.84V12.25c.473.209.998.262 1.655.262 3.725 0 4.486-2.466 4.486-4.042 0-1.367-.682-3.204-4.408-3.204-.52 0-1.061.016-1.565.03-.439.012-.849.023-1.19.023-.444 0-1.153-.018-1.746-.033-.427-.01-.794-.02-.959-.02l-.052.027v.603c0 .054.026.132.184.132Zm5.302 5.723c-.525 0-1.181-.025-1.706-.236l-.001-4.568c0-.682.315-.918 1.576-.918 1.441 0 2.465.498 2.465 2.756 0 2.02-.758 2.966-2.334 2.966Zm8.955 5.644c-.787 0-2.597.053-2.597.053l-.028-.053v-.578c0-.051.028-.13.158-.13l.605-.053c.815-.08 1.051-.604 1.051-1.128V6.843c0-.605-.315-.71-1.05-.76l-.606-.055c-.158-.025-.158-.078-.158-.105v-.605l.028-.053s2.046.053 2.833.053h3.86c.786 0 2.651-.053 2.651-.053l.055.053c.024 1.129.208 2.154.393 3.15l-.654.106c-.287-.972-.786-2.363-2.466-2.363h-2.1c-.499 0-.761.184-.761.63v3.807H73.3c.736 0 .92-.315 1.025-.84l.157-.552c0-.078.053-.132.157-.132h.444c.055 0 .055.027.055.079-.014.146-.03.303-.049.465-.051.478-.109 1.008-.109 1.478 0 .437.047.828.094 1.22.023.195.046.39.064.592l-.055.053h-.444c-.13 0-.186-.053-.186-.132l-.13-.577c-.106-.526-.342-.814-1.028-.814H71.33v4.017c0 .496.285.995.76.995h2.495c1.338 0 2.075-.84 2.388-2.207l.654.079-.526 3.018-.052.052s-1.549-.052-2.336-.052l-4.593.005Zm10.476-.761-.604.053a.147.147 0 0 0-.155.153v.552l.026.053s1.996-.053 2.784-.053c.312 0 .64.008 1.043.017.65.016 1.494.036 2.789.036 2.911 0 6.167-1.363 6.167-5.957 0-3.492-2.153-6.222-6.537-6.222-.368 0-1.203.016-1.972.03-.656.012-1.264.023-1.493.023-.473 0-2.784-.053-2.784-.053l-.026.053v.577c0 .08.081.132.186.132l.576.054.06.006c.813.071.99.087.99.755v8.663c0 .813-.262 1.049-1.05 1.128Zm9.766-4.7c0 3.679-1.63 4.753-4.516 4.753-1.995 0-2.178-.448-2.178-1.181V6.843c0-.658.656-.815 1.68-.815 4.41 0 5.014 3.178 5.014 5.907Zm8.481 3.702c0 .578.263.919 1.103.998l.551.053c.078 0 .157.051.157.156v.552l-.026.053s-1.995-.053-2.808-.053c-.736 0-2.782.053-2.782.053l-.054-.053v-.552c0-.105.08-.156.184-.156l.526-.053c.865-.08 1.129-.5 1.129-.998V6.895c0-.576-.316-.736-1.129-.813l-.526-.054c-.105 0-.184-.025-.184-.105v-.605l.027-.053s2.073.053 2.885.053c.708 0 2.731-.053 2.731-.053l.024.053v.577c0 .08-.054.132-.157.132l-.552.053c-.814.078-1.102.289-1.102.815l.003 8.741Zm8.848 1.051-.761-.053c-.971-.08-1.313-.658-1.05-1.318l1.523-3.807c.131-.34.288-.444.918-.444h5.462l1.601 4.438c.264.733-.106 1.05-1.102 1.127l-.735.054c-.135 0-.187.078-.187.21v.498l.024.053s2.574-.053 3.492-.053c1.025 0 3.046.053 3.046.053l.079-.053v-.497c0-.133-.131-.211-.264-.211l-.287-.025c-1.05-.105-1.576-.498-1.945-1.523L112.123.91c-.209-.525-.341-.788-.707-.788-.395 0-.606.263-.894.946l-5.826 13.65c-.735 1.68-1.39 1.891-2.546 1.97-.132 0-.211.079-.211.209v.499l.054.053s1.68-.053 2.363-.053c.63 0 3.492.053 3.492.053l.052-.053v-.499a.207.207 0 0 0-.21-.209Zm3.124-13.73 2.546 7.007v.001h-4.568c-.578 0-.761-.077-.656-.341l2.625-6.667h.053Z" clip-rule="evenodd"/></svg>