<?xml version="1.0" encoding="UTF-8"?>
<svg width="121px" height="14px" viewBox="0 0 121 14" version="1.1" xmlns="http://www.w3.org/2000/svg" xmlns:xlink="http://www.w3.org/1999/xlink">
    <title>pdc-tagline</title>
    <g id="Page-1" stroke="none" stroke-width="1" fill="none" fill-rule="evenodd">
        <path d="M2.46025972,10.1251938 C2.27379773,10.1087578 1.94789218,10.0561018 1.73602566,10.0082346 C1.52415904,9.96034711 1.19562059,9.90461701 1.00594009,9.88437642 C0.816259689,9.86418656 0.650835938,9.83740202 0.63833192,9.82502431 C0.573780166,9.76100521 0.439819929,8.89465725 0.383452373,8.17669969 L0.3614089,7.89592873 L0.48189976,7.85615775 C0.701289082,7.78371774 0.767433705,7.82866301 0.851508143,8.10711062 C1.03708351,8.7217042 1.41607875,9.20436363 1.89887464,9.44092996 C2.33045819,9.65240607 2.54518903,9.69673246 3.14415627,9.69796008 C3.58352316,9.6988529 3.69790937,9.68751005 3.90333969,9.6228822 C4.48974051,9.43836311 4.80368271,9.03576307 4.89266825,8.3541777 C4.96652865,7.78843547 4.76137227,7.14065544 4.40182736,6.80434714 C4.20141813,6.6168858 3.5029717,6.26616052 2.85101369,6.02560695 C2.34269994,5.83804415 1.97147738,5.64638251 1.64521471,5.40303888 C0.98759917,4.912547 0.713817043,4.41141232 0.713817043,3.6981928 C0.713817043,2.82778657 1.2117948,2.10890577 2.09779997,1.70026906 C2.49761198,1.51586157 2.71206787,1.47057134 3.28210578,1.45012784 C3.86590424,1.42922778 4.18620269,1.47072353 4.76506224,1.64249968 C4.95474244,1.69880809 5.1654485,1.75386858 5.23329658,1.76492735 L5.35665663,1.78501575 L5.43028367,2.18980725 C5.50779651,2.6159858 5.56671641,3.04634436 5.58156965,3.29493329 C5.59219216,3.47270553 5.55192404,3.50733266 5.33410384,3.50772834 L5.17891077,3.50800227 L5.11526705,3.30994887 C4.98377424,2.90072371 4.62741203,2.35986878 4.37399681,2.1849069 C4.06698004,1.97293364 3.63824884,1.85469614 3.17309067,1.85371201 C2.52623288,1.85269744 2.0340416,2.15246108 1.77033188,2.70910265 C1.66935519,2.92224266 1.66119797,2.9665386 1.66122334,3.3015787 C1.66124769,3.62220181 1.67183773,3.68629194 1.75365131,3.86089873 C1.92263984,4.22154646 2.31918636,4.57209927 2.86825319,4.84620454 C3.01999775,4.92199261 3.40022052,5.08007212 3.71319381,5.197569 C4.63305302,5.54289679 5.04075429,5.77366995 5.42943448,6.16903613 C5.68317538,6.42714169 5.80348464,6.62034547 5.90951083,6.9399946 C5.98680046,7.1730201 6.00119715,7.27753053 6.00216592,7.6124996 C6.00305888,7.95281544 5.99004707,8.04864119 5.91043408,8.28770335 C5.69166831,8.94465505 5.14562084,9.52171984 4.43202997,9.85008409 C3.82658879,10.128694 3.31273958,10.2003833 2.46025363,10.1251735 L2.46025363,10.1251735 L2.46025972,10.1251938 Z M11.3342952,9.99794692 C11.3083122,9.93027538 11.3138517,9.73928335 11.3430205,9.69556571 C11.3569606,9.67466565 11.4564287,9.64879422 11.5640711,9.63793836 C11.8265961,9.61155965 12.0576706,9.50556795 12.1214178,9.38228805 C12.233508,9.16553619 12.247785,8.88508989 12.247785,6.90011202 L12.247785,4.92436669 L11.7563404,4.9152356 L11.2648959,4.90610451 L11.2545473,4.74614805 C11.2455177,4.60731485 11.2563735,4.57658365 11.3367982,4.51336605 C11.4192215,4.44853529 11.4743824,4.44052022 11.8385974,4.44052022 L12.2477941,4.44052022 L12.2480772,4.08702517 C12.2491932,2.74477479 12.6457971,1.82278804 13.4530487,1.28613341 C13.8533791,1.01999249 14.0874892,0.948688796 14.6209794,0.930416464 C14.9058391,0.920270805 15.1605813,0.930528066 15.2921056,0.956389351 C15.8240861,1.06105197 16.282815,1.46096341 16.282815,1.82007915 C16.282815,2.12175017 15.9316453,2.40147613 15.6364898,2.33491046 C15.4694771,2.29727007 15.3313023,2.15391191 15.1894701,1.87120312 C14.9780274,1.44975245 14.8124107,1.3345282 14.4086987,1.32803498 C14.1199421,1.32296215 14.0029089,1.37277734 13.7947291,1.58732759 C13.448333,1.94426201 13.3352535,2.43039126 13.2936462,3.74148432 L13.2715083,4.43919114 L14.0615508,4.44832223 L14.8515943,4.45745332 L14.8515943,4.64713656 C14.8515943,4.83307605 14.8492608,4.83762131 14.7308883,4.87798074 C14.6546843,4.90395363 14.3647102,4.91988231 13.9443238,4.92109979 L13.2784652,4.92312892 L13.2916647,6.98375283 C13.3017089,8.55381384 13.3156288,9.07975465 13.3500936,9.19301064 C13.4380159,9.48191842 13.6406267,9.59880656 14.1216273,9.63810069 C14.2575599,9.64915946 14.3801793,9.67533526 14.3941143,9.69623532 C14.4080545,9.71713538 14.419448,9.78845936 14.419448,9.85485255 C14.419448,9.92120516 14.4080443,9.99107831 14.3941143,10.0100507 C14.3778914,10.0321682 13.8260802,10.0445459 12.8603362,10.0445459 C11.6359926,10.0445459 11.3485762,10.0354148 11.3342709,9.9985861 L11.3342709,9.9985861 L11.3342952,9.99794692 Z M16.319383,9.99794692 C16.2953175,9.93524675 16.2971843,9.76831008 16.322731,9.70182558 C16.337077,9.66448955 16.3886372,9.64703902 16.4865459,9.64643028 C16.6628227,9.64541571 16.8994194,9.59255683 17.0521674,9.52003566 C17.3378509,9.38446937 17.3803074,9.03999381 17.3648607,6.98296147 C17.3540758,5.54677243 17.3509408,5.48566513 17.2802662,5.33284107 C17.1909133,5.13964743 17.0147218,5.04221867 16.6811599,5.00155487 L16.4569916,4.97426304 L16.4465619,4.81234847 C16.4363046,4.65316309 16.4380395,4.65012953 16.5500242,4.63201953 C17.4355678,4.48877297 17.7487511,4.42886286 18.0169891,4.3514109 C18.1921357,4.30088552 18.3598262,4.26882523 18.3896351,4.28028983 C18.4367313,4.2983491 18.4410533,4.36328132 18.4226389,4.77564148 C18.4109816,5.0366487 18.3952457,5.28136199 18.387677,5.31945894 C18.3702975,5.40691452 18.4200924,5.4907481 18.4708207,5.45939802 C18.4920048,5.44631012 18.5692944,5.34731892 18.6425877,5.23942998 C18.8470572,4.93843872 19.2718925,4.55388781 19.5389597,4.42805121 C19.7366814,4.33491406 19.8052873,4.32037533 20.0436839,4.32119713 C20.4413633,4.32221169 20.6754612,4.45823454 20.8017493,4.76048387 C20.9482546,5.11111784 20.569014,5.57847761 20.1741064,5.53396861 C20.0472085,5.51966323 19.9889927,5.48384905 19.803806,5.30599565 C19.6007701,5.11103667 19.5722009,5.09500653 19.4278059,5.09500653 C19.2850301,5.09500653 19.2562377,5.11052939 19.0943364,5.27502096 C18.8512798,5.52193586 18.5644053,5.96419527 18.4756257,6.22884479 C18.4044944,6.44087891 18.4022218,6.49661916 18.4123168,7.7807755 C18.422361,9.06239542 18.4256076,9.1188966 18.4974794,9.27440926 C18.551434,9.3911655 18.6091902,9.45493097 18.7054969,9.50405625 C18.8560189,9.58085889 19.1741441,9.64733324 19.3910776,9.64733324 C19.4916414,9.64733324 19.5426791,9.66407358 19.5571803,9.70191689 C19.5918074,9.79221325 19.5807791,9.98652291 19.5395877,10.0119784 C19.5183934,10.0250663 18.78916,10.0376469 17.9190622,10.0398789 C16.6306051,10.0429226 16.3337969,10.0358207 16.3194428,9.99807882 L16.3194428,9.99807882 L16.319383,9.99794692 Z M24.6135433,10.1310072 C23.9764883,10.040508 23.5387427,9.83194365 23.1283386,9.42348957 C22.6307691,8.92829011 22.3923593,8.29695619 22.3908106,7.47046038 C22.3887901,6.37770189 22.7459122,5.5544324 23.4763651,4.96801332 C23.8191585,4.69281232 24.2684692,4.4638248 24.6184802,4.38595687 C25.113004,4.27593734 25.9205051,4.37297042 26.3819763,4.59790983 C26.9454642,4.87256296 27.3489997,5.6068956 27.3667718,6.39000858 C27.3726563,6.64806341 27.3648441,6.6927246 27.3065573,6.73559001 C27.2504924,6.77678139 26.9342888,6.78479646 25.3614022,6.78479646 L23.4831921,6.78479646 L23.5048836,7.13938724 C23.5525986,7.91922316 23.8027652,8.54044186 24.2538544,8.99922855 C24.4568761,9.205713 24.5754707,9.29369616 24.7846935,9.39305259 C25.0281934,9.50869281 25.0876977,9.5223996 25.4033494,9.53560925 C26.0215559,9.56148068 26.4179447,9.43567451 26.8815313,9.06648412 C27.0282467,8.94963657 27.1690948,8.85404417 27.1945279,8.85404417 C27.2199631,8.85404417 27.276515,8.89209039 27.3202124,8.93855751 L27.3996529,9.02307085 L27.1796504,9.25282944 C26.7747909,9.67564978 26.2869775,9.96073265 25.7698339,10.0767483 C25.4617813,10.1458402 24.9029726,10.172016 24.6135433,10.1309261 L24.6135433,10.1309261 L24.6135433,10.1310072 Z M26.0963588,6.30543437 C26.2255252,6.27449011 26.2453671,6.19677436 26.2120467,5.85209589 C26.1618866,5.33319616 25.9834579,5.03183966 25.622035,4.85558927 C25.2349792,4.66683943 24.8835964,4.67886204 24.4334863,4.89627336 C24.1379717,5.03901264 23.9382331,5.24317373 23.7885146,5.55553828 C23.6917656,5.75737602 23.5281557,6.2504246 23.5281557,6.34013252 C23.5281557,6.36975784 25.9651247,6.33708882 26.0963588,6.30543437 L26.0963588,6.30543437 Z M29.1644142,9.98579242 C29.1202704,9.90330822 29.1259418,9.77321043 29.1764368,9.70972905 C29.20313,9.67614691 29.3005953,9.64773907 29.432358,9.63495554 C29.8626343,9.59335834 30.0645806,9.44449108 30.1321477,9.11901835 C30.1580191,8.99441951 30.1671806,8.36218263 30.1605251,7.16151492 C30.151394,5.52227066 30.1459458,5.37934877 30.0879025,5.27296139 C30.0104606,5.13101347 29.8154154,5.03915468 29.5118685,5.00165632 L29.2896836,4.97416159 L29.2689053,4.84631614 C29.2574813,4.77600672 29.2582828,4.70203472 29.2707315,4.68195647 C29.2831498,4.66186806 29.5399912,4.60677713 29.8414969,4.55959982 C30.1430035,4.5124225 30.5376768,4.43267763 30.7185475,4.38245661 C30.8994192,4.3322356 31.0922162,4.28962384 31.1469855,4.28779762 L31.2465651,4.28475392 L31.2504205,6.71611035 C31.2542758,9.11948505 31.2551889,9.14929299 31.3277,9.30617532 C31.4199646,9.50566941 31.5969201,9.59822825 31.9605131,9.63716729 C32.2001526,9.66283581 32.2207422,9.67145962 32.2516905,9.75961525 C32.2727326,9.81957609 32.2730166,9.88790711 32.2524717,9.94527066 L32.2199447,10.0360743 L30.7077211,10.0401326 C29.322793,10.0441908 29.1928808,10.0392702 29.1644121,9.98605621 L29.1644142,9.98579242 Z M30.4080467,2.77566832 C30.3074322,2.72494003 30.2141936,2.63837727 30.1386926,2.52562856 C30.0365543,2.37310887 30.0249081,2.33256682 30.0378651,2.17462934 C30.0566447,1.94567226 30.1746976,1.78685211 30.415172,1.66701159 C30.636113,1.5569109 30.7628465,1.55409041 30.9620149,1.6548368 C31.2187072,1.7846708 31.3878546,2.10819557 31.3266134,2.35219867 C31.29434,2.48080504 31.0697445,2.71592054 30.909431,2.7889287 C30.7256281,2.87263038 30.5934059,2.86918086 30.4080508,2.77563789 L30.4080467,2.77566832 Z M39.7555628,10.1276186 C39.0722659,10.027278 38.4441005,9.75536422 38.0415968,9.38576801 C37.5927214,8.97359047 37.3371716,8.52509147 37.188422,7.88842094 C37.1350152,7.6598291 37.1253972,7.33914511 37.1056943,5.12943075 C37.086032,2.92452543 37.0765864,2.60847801 37.0257364,2.45462924 C36.9276989,2.15800061 36.7224633,2.02829851 36.3059769,1.99974862 C36.0376537,1.98138498 36.0348088,1.9801675 36.006747,1.87404391 C35.9911632,1.81509763 35.9885355,1.72810875 36.0008625,1.68068794 L36.0233453,1.59444984 L37.7624756,1.59444984 L39.5016058,1.59444984 L39.5127661,1.71130754 C39.5189549,1.77563102 39.5146937,1.86481136 39.5035335,1.90961459 C39.4843988,1.98590994 39.4671309,1.99108423 39.2323401,1.99108423 C38.9583048,1.99108423 38.6356546,2.06159656 38.4986263,2.15134506 C38.3752774,2.23220596 38.2830513,2.43247112 38.2436192,2.70517628 C38.1973144,3.02541386 38.1988769,6.76641252 38.2455469,7.2676588 C38.3155418,8.01980722 38.4502011,8.42649596 38.7570728,8.81254843 C39.0403954,9.16896543 39.586382,9.49571652 40.0719339,9.59943559 C40.400774,9.66964355 41.008499,9.64488814 41.3984839,9.54535923 C42.2088481,9.33848924 42.6114167,8.94546671 42.8776631,8.10127687 C43.0729376,7.48211774 43.0770862,7.41481144 43.0720813,4.94784375 C43.0673129,2.59140287 43.0622401,2.50278054 42.9213838,2.28774329 C42.8214795,2.13527433 42.3881483,1.99484827 42.0097811,1.99233214 C41.8435628,1.99131758 41.8247537,1.98320105 41.7917631,1.89625275 C41.7695948,1.83801667 41.7670889,1.76147782 41.7852699,1.69794571 L41.8148952,1.59448028 L43.2965601,1.59340723 C44.2874319,1.59248158 44.7866176,1.60391574 44.8035628,1.62796095 C44.8440846,1.68548684 44.8338476,1.87001608 44.7868428,1.92909425 C44.7603829,1.96237201 44.6636806,1.99098277 44.5364784,2.00325902 C44.2968166,2.02639112 44.0522088,2.10535478 43.9558514,2.1907508 C43.9189618,2.22341982 43.8561095,2.32003693 43.8161893,2.40539236 C43.7453726,2.55678588 43.7431203,2.61629017 43.723874,4.83674878 C43.7067075,6.81736402 43.6961763,7.15545796 43.6427594,7.44055098 C43.4208992,8.62454937 42.9370578,9.39026254 42.174432,9.76428225 C41.779911,9.95775997 41.3214641,10.0783411 40.7916375,10.1279737 C40.3465526,10.1696723 40.0388997,10.1696723 39.755575,10.1280751 L39.755575,10.1280853 L39.7555628,10.1276186 Z M46.1211339,9.98579242 C46.0384468,9.83129433 46.1150465,9.64727237 46.2619983,9.64727237 C46.4537431,9.64727237 46.713338,9.57168721 46.8147195,9.48641295 C47.0284267,9.30659129 47.0325509,9.26225476 47.0474447,6.9840572 L47.060908,4.92437684 L46.5496104,4.91524575 L46.0383129,4.90611465 L46.0407478,4.73724016 C46.0447046,4.47133259 46.1051829,4.44053037 46.6237245,4.44053037 L47.046351,4.44053037 L47.0647248,3.82838189 C47.0855539,3.13436809 47.1692434,2.72270798 47.3784337,2.28536921 C47.6888563,1.6363717 48.3434502,1.09684585 48.9913854,0.955932796 C49.3019786,0.888362708 50.0919378,0.928438061 50.3416803,1.02441599 C50.701836,1.16281293 51.0283375,1.48081846 51.0770894,1.74068937 C51.1286395,2.01546425 50.82568,2.3368077 50.5150737,2.3368077 C50.3033886,2.3368077 50.1676194,2.22382564 50.0058154,1.91302353 C49.7673741,1.45502819 49.6063514,1.33816035 49.2003262,1.32840023 C48.9231183,1.32129826 48.755021,1.39668051 48.5581546,1.61455854 C48.2304783,1.9772557 48.0902663,2.65448857 48.0902663,3.87449391 L48.0902663,4.43924187 L48.8748534,4.44837296 L49.6594406,4.45750405 L49.6696775,4.61451827 C49.6777941,4.73950264 49.6648076,4.78521898 49.6057802,4.8386866 C49.5382101,4.89986493 49.4677708,4.90686543 48.8097,4.91701109 L48.0877481,4.92817132 L48.0975894,7.02077434 C48.1073292,9.08836831 48.1083743,9.11531518 48.1827216,9.27626591 C48.2277379,9.37366424 48.3027468,9.46638542 48.3694079,9.50692747 C48.4742957,9.57074366 48.7859145,9.63893264 49.0552503,9.65707308 C49.151766,9.66316047 49.1818397,9.68375616 49.2084792,9.76000078 C49.2293793,9.81986017 49.2296126,9.88846512 49.2091021,9.94584896 L49.1765752,10.0368555 L47.6643546,10.0409138 C46.2795533,10.0439575 46.1495143,10.0398992 46.1210446,9.98663451 L46.1211339,9.98579242 Z M51.1746886,9.98579242 C51.0920015,9.83129433 51.1686012,9.64727237 51.315553,9.64727237 C51.5072978,9.64727237 51.7668928,9.57168721 51.8682743,9.48641295 C52.0807386,9.30763629 52.0850322,9.26144311 52.100897,6.98406734 L52.1152429,4.92438698 L51.6035548,4.91525589 L51.0918656,4.9061248 L51.0940976,4.74130857 C51.0976486,4.48232033 51.1375819,4.46082168 51.653373,4.44054051 L52.0920013,4.42329289 L52.1140985,3.81975808 C52.1391481,3.13561601 52.226132,2.71582923 52.43203,2.28536921 C52.7365722,1.64866824 53.3301998,1.14486526 53.9795484,0.97200352 C54.1927695,0.915289287 54.8762004,0.906766933 55.1480442,0.957495228 C55.6693515,1.0547921 56.1427246,1.4816707 56.1440714,1.85570056 C56.1444219,1.95299742 55.9626188,2.1913291 55.8321578,2.26465178 C55.7615542,2.3043213 55.6422311,2.33678741 55.5670041,2.33678741 C55.3613019,2.33678741 55.2216256,2.22251685 55.0596755,1.9217488 C54.8154786,1.46823784 54.7178064,1.38363319 54.3839472,1.33644573 C54.079131,1.29332668 53.9076024,1.34253313 53.6955703,1.532957 C53.2985626,1.88990157 53.1438626,2.54182103 53.1438626,3.85788547 L53.1438626,4.44051007 L53.916139,4.44051007 C54.5885385,4.44051007 54.6911212,4.44761204 54.7093479,4.49509372 C54.749474,4.59967517 54.7298219,4.74385513 54.6644128,4.82470589 C54.599511,4.90495805 54.5877826,4.90627698 53.8699438,4.9172343 L53.1413455,4.92839452 L53.1511868,7.02099754 C53.1609266,9.08859152 53.1619716,9.11553839 53.236319,9.27648912 C53.2813353,9.37388744 53.3563452,9.46660862 53.4230062,9.50715067 C53.527893,9.57096687 53.8395129,9.63915584 54.1088487,9.65729628 C54.2053643,9.66338368 54.2354371,9.68397936 54.2620776,9.76022399 C54.2829776,9.82008338 54.283211,9.88868832 54.2627005,9.94607217 L54.2301735,10.0370787 L52.7179519,10.041137 C51.3331516,10.0441807 51.2031117,10.0401224 51.174643,9.98685772 L51.1746886,9.98579242 Z M58.0937754,13.1274261 C57.2850771,13.0773066 56.6123326,12.7309845 56.4031525,12.2571214 C56.2934069,12.0085121 56.2495776,11.681964 56.2951367,11.4523576 C56.3836272,11.0063443 56.7165275,10.5432964 57.1589716,10.250797 C57.2737383,10.1749075 57.3680665,10.1019602 57.36859,10.088639 C57.3691126,10.0753482 57.3027549,10.0185325 57.2211178,9.96231537 C56.9375588,9.76722449 56.7759152,9.44766668 56.7739804,9.07837484 C56.7717483,8.65826339 56.9416161,8.21804325 57.2212193,7.91912171 L57.3774817,7.75207343 L57.1570947,7.51402584 C56.8933248,7.22913573 56.7669545,6.99227518 56.6938865,6.64583137 C56.5644705,6.03223206 56.7707196,5.41017128 57.2528636,4.95989679 C57.7926796,4.45576915 58.574079,4.22596997 59.3824059,4.33361541 C59.6867503,4.37419805 60.1606845,4.5237755 60.3050877,4.62491757 C60.3771827,4.67544295 60.3901184,4.66955847 60.5699056,4.50525967 C61.0496553,4.06679473 61.7951177,3.87756804 62.1364674,4.10760057 C62.3922932,4.27999561 62.4285568,4.53846641 62.2288335,4.76594223 C62.0177682,5.00633347 61.7388265,4.99951559 61.5375458,4.74910044 C61.4786908,4.67584878 61.3866109,4.60063901 61.3329129,4.58192027 C61.164703,4.52327836 60.8605037,4.64543209 60.7087774,4.83245717 C60.6533313,4.90083891 60.6569026,4.90997 60.7974098,5.06019677 C61.1055771,5.38964661 61.232129,5.73108862 61.232129,6.23307553 C61.232129,7.02910392 60.8564494,7.61653757 60.1202601,7.97166607 C59.7319939,8.15896508 59.3875163,8.23354582 58.9143086,8.23274431 C58.506169,8.23205441 58.1703294,8.16994268 57.8965184,8.04462351 C57.715742,7.96183493 57.7025324,7.96031308 57.6587873,8.0175346 C57.5525095,8.15651998 57.4643864,8.46114339 57.4609429,8.70143317 C57.4558701,9.05606453 57.5603602,9.24822331 57.8346005,9.38853778 C58.0155939,9.48116764 58.0701025,9.49208437 58.3499117,9.49208437 C58.5220115,9.49208437 58.9125199,9.47138723 59.2177084,9.44612454 C60.1090188,9.37216268 60.886441,9.45971972 61.3666148,9.68794632 C61.6858033,9.83967464 62.0567955,10.213319 62.1579386,10.4849386 C62.2388401,10.7021875 62.2529933,10.9813149 62.1957109,11.2297821 C62.0410546,11.9006232 61.3475541,12.496285 60.324129,12.837311 C59.6277259,13.0693727 58.8302193,13.1731323 58.0937804,13.1274769 L58.0937804,13.1274769 L58.0937754,13.1274261 Z M59.8698744,12.5832536 C60.6725229,12.3837493 61.1959252,12.0838741 61.3901923,11.7122082 C61.530737,11.4433279 61.5540944,11.102312 61.44576,10.9009613 C61.3759782,10.7712693 61.0898392,10.545569 60.8363732,10.4203006 C60.4343728,10.2216181 60.1416685,10.1877113 59.0076912,10.2084491 C58.4437986,10.2187976 57.9504527,10.2114928 57.821895,10.1919116 C57.6040028,10.1581266 57.6009277,10.1587353 57.5219944,10.2560322 C57.3590633,10.4567641 57.234993,10.760657 57.1966262,11.0529737 C57.1347174,11.5246352 57.2418961,11.8992738 57.5176105,12.1749923 C57.6573254,12.3147081 58.1730251,12.5826651 58.4238045,12.6458523 C58.6451554,12.7016534 59.551528,12.6623897 59.8698754,12.5832536 L59.8698744,12.5832536 Z M59.4479692,7.79960584 C59.6536745,7.72949934 59.9031846,7.50876024 60.0054235,7.30638478 C60.154449,7.01140989 60.2220282,6.47110283 60.1655565,6.02610408 C60.0517729,5.12947133 59.6125014,4.68109408 58.8478728,4.68109408 C58.5067798,4.68109408 58.2780307,4.76296955 58.090128,4.95219624 C57.8387257,5.20541159 57.7744509,5.41612678 57.7572875,6.04334156 C57.7224169,7.31762617 58.0881354,7.84557582 59.0101688,7.85198788 C59.1780186,7.85300245 59.3518442,7.83240676 59.4479692,7.79963628 L59.4479692,7.79960584 Z M68.5564547,10.173477 C68.4985331,10.1608964 68.4117623,9.8599964 68.3674431,9.51794565 C68.3361031,9.27605286 68.2901331,9.28046622 67.8963913,9.56319529 C67.281403,10.0047952 66.752032,10.1925305 66.251435,10.1465605 C65.5522571,10.0823385 65.1252557,9.83149724 64.8868124,9.34483028 C64.6873123,8.93765455 64.6877384,8.94203747 64.6648112,7.0607178 C64.6421458,5.20116056 64.6424198,5.20395062 64.4636188,5.01652986 C64.3698424,4.91821842 64.1035483,4.81904461 63.9334421,4.81904461 C63.8274383,4.81904461 63.7660509,4.73869099 63.7660509,4.59995925 C63.7660509,4.40586265 63.7241595,4.4131168 64.7755978,4.42515969 L65.7466712,4.43631992 L65.7364343,6.46414291 C65.7274046,8.25655617 65.7328833,8.52104336 65.7835913,8.74237091 C65.8632144,9.08971768 66.0021197,9.28407807 66.2781688,9.4344063 C66.7764252,9.70573166 67.2402725,9.60261118 67.9762944,9.05688633 C68.3794251,8.75798507 68.3599028,8.86859305 68.3441811,6.97235925 C68.3302207,5.28895095 68.3239912,5.22337955 68.1592785,5.02763936 C68.0658674,4.91661541 67.8069999,4.81907505 67.6057922,4.81907505 C67.4780127,4.81907505 67.4422239,4.74927291 67.4622829,4.53931865 L67.4734431,4.42247109 L68.4360338,4.42957305 C68.9654586,4.43363132 69.409109,4.44905272 69.421925,4.46406829 C69.434739,4.47898241 69.4336534,4.70077666 69.4194901,4.95685309 C69.3773146,5.72085165 69.3822859,8.60968598 69.4260847,8.76770462 C69.5105372,9.07259181 69.698935,9.20822913 70.1341858,9.27748339 C70.4199555,9.32293595 70.4878614,9.38797976 70.4242593,9.55526139 C70.3973936,9.62597663 70.3570748,9.64099221 70.0963019,9.67743541 C69.6004115,9.74683172 68.9971993,9.94910572 68.8012065,10.1117812 C68.7395615,10.1629153 68.6326597,10.1898013 68.5564557,10.1733654 L68.5564547,10.173477 Z M74.1302981,10.1137089 C73.5487661,10.0170208 73.113285,9.8053113 72.7518875,9.4436287 C72.2166076,8.90792777 71.9787285,8.2570736 71.9817772,7.33661885 C71.983227,6.91289555 71.9970657,6.7849385 72.0724784,6.49845553 C72.2772158,5.72069946 72.6602905,5.18595222 73.32538,4.74949612 C73.6243462,4.55329936 73.9254663,4.42892373 74.2775836,4.3561895 C75.1327754,4.17954344 76.2599266,4.47452847 76.6178736,4.96866264 C76.7537047,5.15617471 76.8326318,5.43669203 76.8017353,5.62214453 C76.7395322,5.99549463 76.1621803,6.22483725 75.855472,5.99803105 C75.7380309,5.91118421 75.6930309,5.809545 75.6484387,5.53040748 C75.5503809,4.91659512 75.2531638,4.68782066 74.5984096,4.722184 C74.3613512,4.73466316 74.2686432,4.75738944 74.0833399,4.84860906 C73.8033248,4.98645813 73.5507151,5.25803712 73.3890867,5.59500489 C73.0020937,6.40181813 73.0117523,7.69358371 73.4106868,8.48385952 C73.6460163,8.95005254 73.9889873,9.28368239 74.3984438,9.44471429 C74.6853742,9.55756445 75.2274932,9.55856887 75.5508465,9.44674342 C75.849834,9.34343018 76.165221,9.13777767 76.4129891,8.88456232 C76.584956,8.70881921 76.6214408,8.68629585 76.6911648,8.71280646 C76.8760411,8.78311587 76.8713355,8.82776692 76.6478124,9.12439555 C76.2589466,9.64046463 75.83792,9.94351546 75.3201069,10.0800557 C75.0291111,10.1567569 74.4827035,10.1721783 74.130293,10.1136379 L74.130293,10.113648 L74.1302981,10.1137089 Z M78.2838659,9.98579242 C78.2387887,9.90158345 78.2457689,9.73023342 78.2958885,9.69065521 C78.3195989,9.67188574 78.4270688,9.64804344 78.5347112,9.63749195 C78.6423536,9.62694047 78.8020311,9.5866622 78.8895516,9.54790579 C79.0193379,9.49048136 79.0627369,9.44705794 79.1249298,9.31235402 L79.2011846,9.14719284 L79.2011846,5.57775727 C79.2011846,2.05465693 79.2002766,2.00674913 79.1312506,1.88760865 C79.0397063,1.72960016 78.8773382,1.6534367 78.5714354,1.62500856 L78.3222773,1.60187646 L78.2877212,1.47748054 C78.2342333,1.28492608 78.2411831,1.27261939 78.4165965,1.24944671 C78.862904,1.19050043 79.6584921,1.04966854 79.8943117,0.987901768 C80.3492369,0.868751149 80.2975022,0.481673971 80.2900045,3.94843547 L80.2835113,6.9576379 L80.3803719,6.91583779 C80.7068562,6.774874 81.2418348,6.34070068 81.844426,5.72765938 C82.1602259,5.40638695 82.2555788,5.28688123 82.2909578,5.16804513 C82.3345435,5.02163313 82.3330623,5.01446014 82.2435573,4.93746474 C82.1910839,4.89231656 82.0801026,4.84747274 81.9867057,4.83374567 C81.7979366,4.80594656 81.77157,4.7787562 81.77157,4.61215433 C81.77157,4.54580172 81.7829738,4.47592857 81.7969038,4.45696633 C81.8129542,4.43515317 82.2644766,4.42247109 83.029299,4.42247109 C83.7941214,4.42247109 84.2456397,4.43515317 84.2616942,4.45696633 C84.2925471,4.49896936 84.2959256,4.68954542 84.2671728,4.76453198 C84.2525428,4.80267966 84.2012768,4.81911563 84.0969916,4.81911563 C83.9143474,4.81911563 83.5063032,4.90251294 83.3315615,4.97549067 C83.2606332,5.00511599 83.1274004,5.07762702 83.0354878,5.13660373 C82.8216701,5.27381362 81.6325806,6.53104338 81.6325806,6.61990921 C81.6325806,6.65623067 81.6503051,6.71984395 81.6719762,6.76128897 C81.7341589,6.88018594 83.3226637,9.12786536 83.4346373,9.25539629 C83.5732788,9.41330333 83.9100101,9.56889715 84.2191301,9.61789054 C84.3613905,9.6404139 84.4891873,9.6757208 84.5031223,9.69621503 C84.5323215,9.73923262 84.5378813,9.93027538 84.511949,9.9980078 C84.4977553,10.0350395 84.2919648,10.0428516 83.4514629,10.038489 L82.4085926,10.0334161 L82.3888999,9.79748899 C82.3774658,9.66046173 82.3389934,9.5032243 82.2971324,9.42238369 C82.1273387,9.09452673 80.9162098,7.48218876 80.7645292,7.38208154 C80.6687745,7.31887409 80.4194794,7.2377494 80.3111217,7.23451293 C80.2955989,7.23405638 80.2879186,7.67985663 80.2940567,8.2251858 C80.3034922,9.05888503 80.3143379,9.23686017 80.3625196,9.34333887 C80.4348379,9.50320401 80.5561029,9.5829286 80.8013031,9.63185097 C80.9633598,9.66421562 80.999877,9.68531859 81.0271404,9.76255749 C81.0475129,9.82028629 81.0475129,9.88845497 81.0271404,9.94503731 L80.9946135,10.0353337 L79.6548234,10.0393919 C78.4312468,10.0434502 78.3123376,10.0388745 78.2839511,9.98582286 L78.2839511,9.98582286 L78.2838659,9.98579242 Z M86.5508643,10.1159206 C86.5206099,10.0794977 86.5087395,9.06087358 86.5035348,6.0550395 C86.4967372,2.1190007 86.4953168,2.04018922 86.4276148,1.90485627 C86.3401085,1.7298538 86.1906518,1.65511073 85.8682826,1.6251506 C85.6320075,1.60323598 85.6188962,1.5973515 85.5843777,1.49831972 C85.522134,1.31975612 85.5370684,1.27160483 85.6602672,1.25351512 C86.4946167,1.13103672 86.7881682,1.08057222 87.1171777,1.00308982 C87.3310137,0.952767351 87.5329975,0.921924548 87.5660298,0.934606621 C87.6166668,0.954086286 87.622673,0.985943655 87.6042992,1.13813868 C87.5728172,1.39887197 87.5341826,4.72304638 87.5613729,4.83140202 C87.5871429,4.9340558 87.6863431,4.95399202 87.7556846,4.87046281 C87.8446113,4.7633145 88.2991794,4.51018031 88.5580784,4.42363784 C89.2420186,4.19500542 89.9715767,4.31725046 90.6001834,4.76581034 C91.0677218,5.09944018 91.39762,5.58968857 91.5527441,6.1813631 C91.741429,6.90104542 91.5759371,7.96730344 91.1693082,8.65176003 C90.9052543,9.0962312 90.3501183,9.60608099 89.8597614,9.85448731 C89.3883829,10.0932755 88.7780799,10.2042893 88.301239,10.1379976 C87.9102202,10.0836169 87.8062861,10.0496289 87.5400214,9.88904342 C87.4139575,9.81305244 87.2841225,9.75080882 87.2515012,9.75080882 C87.2188829,9.75080882 87.0952174,9.84394597 86.9766979,9.95772953 C86.7553997,10.1702304 86.6334814,10.2155409 86.5508633,10.1159917 L86.5508633,10.1159917 L86.5508643,10.1159206 Z M88.8934553,9.71470042 C89.5594803,9.60918557 90.0582054,9.14441293 90.3080331,8.39641408 C90.44775,7.97808827 90.4938326,7.65253437 90.4897763,7.11245051 C90.4868341,6.71544073 90.4706416,6.56993169 90.3988814,6.29376686 C90.2349123,5.66273731 89.9086462,5.19156277 89.4944628,4.98766546 C88.9757671,4.73230937 88.2476212,4.85977943 87.792349,5.28563332 C87.6554556,5.41368168 87.6148233,5.4785936 87.5852467,5.61650354 C87.5620638,5.72460554 87.5484484,6.40181813 87.5484484,7.44685143 L87.5484484,9.10561593 L87.6689078,9.25261638 C87.8249287,9.44301996 88.0995829,9.64350833 88.2829028,9.70081101 C88.4627021,9.75701796 88.6058523,9.76026457 88.8934553,9.71471056 L88.8934553,9.71470042 Z M100.176086,10.2148814 C99.228837,10.05737 98.5470589,9.51429322 98.226101,8.66157088 C97.8844662,7.75394023 97.9633589,6.64202675 98.4277662,5.81926454 C98.7011613,5.33491078 99.3035091,4.81455008 99.8389158,4.60021289 C100.301477,4.41504447 100.714648,4.36991658 101.296928,4.44097677 C101.911603,4.51595319 102.437868,4.75813007 102.66366,5.06983515 C102.79949,5.25734722 102.878423,5.53786454 102.84752,5.72331704 C102.785327,6.09666714 102.207968,6.32600976 101.901264,6.09920356 C101.783828,6.01235672 101.738822,5.91071751 101.694232,5.63157999 C101.596225,5.01776763 101.298957,4.78899317 100.644197,4.82335651 C100.407144,4.83583567 100.314433,4.85856195 100.129132,4.94978157 C99.7362214,5.14319841 99.4042859,5.60410555 99.264428,6.15043913 C99.0624381,6.93948732 99.1433091,7.96466557 99.456465,8.58503203 C99.6918037,9.05122505 100.034778,9.3848549 100.444236,9.5458868 C100.733134,9.65951818 101.273096,9.65978197 101.601308,9.5464651 C101.893797,9.4455158 102.294642,9.18079526 102.498519,8.95402964 C102.63374,8.80363039 102.663285,8.78606826 102.735116,8.81338037 C102.920061,8.88368979 102.916317,8.92805675 102.700925,9.21841537 C102.322847,9.72812312 101.883865,10.0447488 101.365888,10.1813399 C101.074901,10.258041 100.528486,10.2734624 100.176076,10.214922 L100.176076,10.214922 L100.176086,10.2148814 Z M104.316368,10.0991194 C104.290395,10.0314479 104.295975,9.84044571 104.325499,9.79679909 C104.339398,9.77600049 104.451711,9.74972323 104.575001,9.73846155 C104.836464,9.7145178 105.011142,9.64887538 105.113928,9.53594405 C105.285197,9.34773194 105.281991,9.42150102 105.281991,5.66172275 C105.281991,2.21299008 105.280976,2.141311 105.213,2.00605922 C105.125545,1.83105675 104.976038,1.75631368 104.65367,1.72635355 C104.417388,1.70443893 104.40428,1.69855445 104.369764,1.59952267 C104.30747,1.42095907 104.322485,1.37280778 104.445654,1.35471807 C105.280002,1.23223967 105.573557,1.18177516 105.90256,1.10429277 C106.1164,1.0539703 106.317984,1.02292458 106.350542,1.03540374 C106.399139,1.05407175 106.40614,1.08734952 106.389805,1.22168819 C106.378848,1.31168018 106.359673,2.32030071 106.347194,3.46312802 C106.329236,5.10651171 106.333396,5.5409894 106.367282,5.5409894 C106.39082,5.5409894 106.527939,5.43091915 106.671987,5.29639786 C107.293084,4.71636039 107.8236,4.46147101 108.508584,4.41399947 C109.241841,4.36316972 109.75437,4.60346965 109.992914,5.10989021 C110.169479,5.48471143 110.196365,5.77772821 110.196649,7.33022708 C110.196923,8.79877062 110.222825,9.22496946 110.324627,9.43309751 C110.402545,9.59236406 110.616071,9.70186616 110.920623,9.73868476 L111.144792,9.76577366 L111.144792,9.95144937 L111.144792,10.1371149 L109.72304,10.1411732 L108.301278,10.1452315 L108.280479,10.0503695 C108.269015,9.99822086 108.269421,9.9110595 108.281352,9.85671935 C108.301237,9.76622007 108.318586,9.75627733 108.488425,9.73876592 C108.590379,9.72821444 108.745404,9.68793617 108.832921,9.64928121 C108.962714,9.59185678 109.006107,9.54843336 109.0683,9.41372945 C109.143581,9.25057711 109.144595,9.22843928 109.144595,7.59318227 C109.144595,6.11082034 109.138508,5.91729189 109.083924,5.74177199 C108.999715,5.46954367 108.837882,5.26763492 108.612222,5.15319188 C108.284467,4.98697555 107.903,5.03175849 107.351228,5.30121705 C106.94455,5.49981832 106.600906,5.76977401 106.455499,6.00484893 L106.3511,6.17363211 L106.340244,7.4638657 C106.322895,9.51209161 106.365507,9.66457072 106.97519,9.74073418 C107.154392,9.76315608 107.180974,9.77664981 107.210549,9.86076747 C107.231652,9.92062686 107.231956,9.98886656 107.21136,10.0460373 L107.178793,10.1365366 L105.756574,10.1405949 C104.600963,10.1436386 104.331038,10.1365366 104.316723,10.0989977 L104.316368,10.0991194 Z M112.439012,10.0991194 C112.41304,10.0314479 112.418518,9.84045586 112.448144,9.79674836 C112.462043,9.77594976 112.5872,9.74957105 112.726185,9.73820791 C113.078585,9.70939424 113.257777,9.61657161 113.359457,9.41014803 L113.439101,9.24840593 L113.439101,5.69620784 C113.439101,2.21299008 113.438086,2.14133129 113.37011,2.00605922 C113.282654,1.83105675 113.133148,1.75631368 112.81078,1.72635355 C112.574508,1.70443893 112.561389,1.69855445 112.526874,1.59952267 C112.464681,1.42095907 112.479595,1.37280778 112.602763,1.35471807 C113.437112,1.23223967 113.730656,1.18177516 114.05967,1.10429277 C114.27351,1.0539703 114.475033,1.02292458 114.507509,1.03540374 C114.556817,1.05427467 114.563108,1.0878568 114.545556,1.23892566 C114.53399,1.33845457 114.515423,3.03380432 114.504263,5.00648566 C114.483261,8.72231294 114.495132,9.17896905 114.617894,9.4305408 C114.703321,9.60526934 114.934469,9.71793688 115.254615,9.74084578 C115.476349,9.75667301 115.499258,9.76560119 115.530679,9.84816656 C115.550564,9.9004167 115.552999,9.97980649 115.536766,10.037373 L115.508358,10.1365975 L113.982735,10.1406558 C112.74111,10.1436995 112.453835,10.1365975 112.439499,10.0989571 L112.439499,10.0989571 L112.439012,10.0991194 Z M117.25814,10.0869698 C117.214006,10.0044856 117.219688,9.87438781 117.270213,9.81090643 C117.296896,9.77732429 117.394365,9.74891645 117.526127,9.73613292 C117.956404,9.69453572 118.158354,9.54566846 118.225924,9.22019573 C118.251795,9.09559689 118.260926,8.46336001 118.254332,7.2626923 C118.245201,5.62344804 118.239722,5.48052615 118.181689,5.37413877 C118.104176,5.23207925 117.909095,5.14029148 117.60507,5.1028337 L117.382302,5.07533897 L117.371852,4.9134244 C117.361605,4.75423901 117.363736,4.75120546 117.475307,4.73309546 C118.372255,4.58800239 118.671917,4.53079102 118.931149,4.45512469 C119.100175,4.40581679 119.261735,4.37000262 119.290163,4.37548127 C119.335514,4.38461236 119.34221,4.68554275 119.344949,6.81692248 C119.347993,9.22112913 119.349008,9.2500544 119.421448,9.40698745 C119.513672,9.60648154 119.690673,9.69904039 120.054263,9.73797943 C120.293903,9.76364795 120.314489,9.77227176 120.345443,9.86042739 C120.366445,9.92038823 120.366749,9.98871924 120.346225,10.0460828 L120.313657,10.1368864 L118.801436,10.1409447 C117.416503,10.145003 117.286588,10.1400823 117.258119,10.0868683 L117.25814,10.0869698 Z M118.502241,2.8768457 C118.412553,2.83149461 118.305659,2.73713998 118.244896,2.64970469 C118.15876,2.52574503 118.140974,2.46628132 118.140974,2.30214485 C118.140974,2.13975344 118.157918,2.08198406 118.234822,1.98105504 C118.343329,1.83878247 118.640536,1.67841004 118.795663,1.67841004 C119.150985,1.67841004 119.504673,2.11721993 119.420311,2.4533659 C119.388048,2.58197227 119.163444,2.81708777 119.003132,2.89009593 C118.819313,2.97379762 118.687003,2.9703481 118.50221,2.87680512 L118.502241,2.8768457 Z M93.3599792,10.0869698 C93.3187168,10.0098628 93.3206242,9.89730686 93.3645447,9.81515746 C93.3901118,9.7673714 93.437005,9.74839902 93.5297353,9.74839902 C93.7786378,9.74839902 94.0625955,9.65211672 94.178533,9.52844114 C94.3543126,9.34089863 94.3635401,9.22959061 94.3627071,7.30672446 C94.3619888,5.64815272 94.3584459,5.55056163 94.2947515,5.41012542 C94.2140732,5.23236333 94.0462184,5.14462367 93.7068024,5.10280327 L93.4840352,5.07530853 L93.4736055,4.91339396 C93.4633482,4.75420857 93.4650831,4.75117502 93.5770679,4.73306502 C94.4740091,4.58797195 94.7736723,4.53076058 95.032904,4.45509426 C95.2019337,4.40578635 95.3634019,4.36997218 95.3917285,4.37545083 C95.4367753,4.38458193 95.4436743,4.68979378 95.4465151,6.81689205 C95.4495588,9.22088563 95.4505734,9.25003411 95.5232163,9.40695702 C95.6154403,9.60645111 95.7924313,9.69900995 96.1560213,9.73794899 C96.3956618,9.76361751 96.4162575,9.77224132 96.4472017,9.86039695 C96.4682032,9.92035779 96.4685076,9.98868881 96.4479829,10.0460524 L96.4154154,10.136856 L94.9031887,10.1409143 C93.5182606,10.1449725 93.3883485,10.1400519 93.3598798,10.0868379 L93.3599792,10.0869698 Z M94.6017277,2.87419769 C94.5181275,2.83006407 94.4031741,2.72784656 94.3462701,2.64705667 C94.260377,2.525116 94.2428078,2.46652482 94.2428078,2.30214485 C94.2428078,2.05327184 94.3495695,1.89833748 94.610733,1.76818897 C94.831674,1.65808828 94.9584075,1.65526779 95.1575769,1.75601418 C95.4479051,1.90286245 95.6148113,2.28832647 95.4913995,2.5269828 C95.3729388,2.75605149 95.0830063,2.95211635 94.8603831,2.95369252 C94.8017209,2.9541049 94.6853259,2.91838203 94.6017277,2.87424841 L94.6017277,2.87424841 L94.6017277,2.87419769 Z" id="pdc-tagline" stroke="#000000" stroke-width="0.01019767" fill="#000000" fill-rule="nonzero"></path>
    </g>
</svg>