<svg xmlns="http://www.w3.org/2000/svg" width="98.449" height="9.069" viewBox="0 0 26.048 2.399"><g stroke-width=".825" aria-label="asamu ilelli"><path d="M.331 1.103q-.33 0-.33-.331V.328q0-.33.33-.33h.333q.33 0 .33.33v.444q0 .33-.33.33zM.577.71q.06 0 .06-.058V.421q0-.057-.06-.057H.405q-.06 0-.06.057v.231q0 .058.06.058zM2.3 2.394q-.511 0-.512-.512V.518q0-.51.512-.512h.682q.51 0 .511.512v1.364q0 .51-.511.512zm.682-.341q.17 0 .17-.17V.517q0-.17-.17-.17H2.3q-.171 0-.17.17v1.364q0 .17.17.17zM2.726.893q.17 0 .17.17v.171q0 .17-.17.17h-.17q-.171 0-.171-.17v-.17q0-.171.17-.17zM4.703 1.103q-.33 0-.33-.331V.328q0-.33.33-.33h.333q.33 0 .33.33v.444q0 .33-.33.33zM4.95.71q.06 0 .06-.058V.421q0-.057-.06-.057h-.173q-.06 0-.06.057v.231q0 .058.06.058zM6.671 2.394q-.51 0-.511-.512V.518q0-.51.511-.512h1.194v.341H6.671q-.17 0-.17.171v1.364q0 .17.17.17h1.194v.342zM9.075 1.103q-.331 0-.331-.331V.328q0-.33.33-.33h.333q.331 0 .331.33v.444q0 .33-.33.33zM9.32.71q.06 0 .06-.058V.421q0-.057-.06-.057h-.172q-.06 0-.06.057v.231q0 .058.06.058zm-.245 1.687q-.331 0-.331-.33v-.444q0-.33.33-.331h.333q.331 0 .331.33v.444q0 .33-.33.331zm.245-.392q.06 0 .06-.058v-.232q0-.056-.06-.056h-.172q-.06 0-.06.056v.232q0 .058.06.058zM13.39 1.193l-.624-.836V.004h1.695v.341H13.2l.628.836-.628.86h1.262v.342h-1.695V2.03zM16.564 2.394V.927l-.887.75v.717h-.34V.006h.34v1.245l.875-.74.002-.51.351.005v2.388zM18.062.957q-.286 0-.286-.286V.285q0-.285.286-.286h.29q.286 0 .286.286v.386q0 .285-.286.286zm.213-.34q.051 0 .051-.05V.365q0-.049-.05-.049h-.15q-.052 0-.052.05v.2q0 .052.051.052zm-.213 1.781q-.286 0-.286-.286v-.386q0-.285.286-.286h.29q.286 0 .286.286v.386q0 .285-.286.286zm.213-.34q.051 0 .051-.05v-.202q0-.049-.05-.049h-.15q-.052 0-.052.05v.2q0 .052.051.052zm-.51-1.038h.882v.341h-.882zM20.71 2.394V.927l-.888.75v.717h-.34V.006h.34v1.245l.875-.74.002-.51.351.005v2.388zM23.139 2.394V.927l-.887.75v.717h-.34V.006h.34v1.245l.875-.74.002-.51.351.005v2.388zM24.978 1.193l-.624-.836V.004h1.695v.341h-1.262l.627.836-.627.86h1.262v.342h-1.695V2.03z"/></g></svg>