<svg xmlns="http://www.w3.org/2000/svg" width="120" height="12"><path fill="#000" fill-rule="nonzero" d="M2.418 8.588c2.608 0 4.172-1.82 4.621-4.064C7.55 1.99 6.396.485 4.383.485c-1.54 0-2.135.51-2.827.546-.181.655-.4 1.25-.642 1.88l.351.049C1.787 1.916 2.672.934 4.346.934c.959 0 2.172.898 1.662 3.481l-.012.012c-.667-.412-1.431-.558-1.59-.558-.763 0-1.382.461-2.098.461-.46 0-.618-.194-.715-.194-.049 0-.11.049-.134.146-.06.303.631.655 1.347.655.813 0 1.25-.388 1.953-.388.46 0 .788.085 1.152.266-.497 1.917-1.662 3.348-3.457 3.348-.922 0-1.322-.412-1.395-.897-.073-.45-.182-.777-.534-.777-.303 0-.46.23-.509.473-.182.898 1.225 1.626 2.402 1.626m7.097-3.894c.4-.643 1.067-.994 1.48-.994.74 0 1.115.776.824 2.244-.218 1.043-.679 2.231-1.977 2.231-.194 0-.594-.024-.922-.521l.595-2.96m.29-1.431-.023-.024s-.28.024-.45.024c-.424 0-1.249-.024-1.249-.024l-.024.024-.048.23c-.013.061.012.097.072.097l.23.025c.389.048.486.194.413.533l-1.25 6.247c-.06.34-.266.497-.63.534l-.23.024c-.061.012-.11.037-.122.097l-.036.23.012.025s.837-.024 1.262-.024c.473 0 1.297.024 1.297.024l.037-.024.036-.23c.012-.061-.024-.086-.085-.098l-.23-.024c-.376-.037-.473-.194-.413-.534l.413-2.074c.291.17.606.267 1.043.267.63 0 1.177-.206 1.747-.68.655-.557 1.116-1.31 1.31-2.292.254-1.286-.28-2.474-1.456-2.474-.388 0-1.067.12-1.795.97H9.6l.206-.85m3.36 5.205.023.024s.825-.024 1.25-.024c.473 0 1.176.024 1.176.024l.025-.024.048-.23c.012-.062-.036-.086-.085-.098-.254-.036-.606-.11-.521-.51l.34-1.698c.897.061 1.079.498 1.176 1.165.073.534.279 1.37.885 1.383l.874.012.036-.024.049-.219c.012-.085-.073-.109-.122-.109l-.085-.012c-.424-.06-.715-1.116-.812-1.577-.134-.594-.522-.861-1.177-.861l.012-.049c.473-.133.837-.546 1.116-1.03.206-.377.485-.644.607-.644a.4.4 0 0 1 .254.085c.073.061.17.11.316.11.254 0 .51-.219.558-.461.048-.292-.025-.546-.522-.546-.582 0-1.104.655-1.443 1.225-.4.667-.825 1.128-1.638 1.128l.28-1.383c.084-.437.35-.497.703-.534.048 0 .109-.06.121-.12l.049-.207-.025-.024s-.679.024-1.152.024c-.425 0-1.25-.024-1.25-.024l-.024.024-.048.23c-.012.061.024.085.073.097l.23.025c.376.036.473.194.4.533l-.691 3.457c-.06.34-.17.461-.607.51l-.242.024c-.06.012-.097.036-.11.097l-.048.23m7.386-3.42c.51-1.37 1.383-1.48 1.674-1.48.461 0 .959.255.752 1.274-.024.109-.085.17-.218.17l-2.208.036m2.73 2.292c-.546.461-.934.655-1.638.655-.437 0-.898-.254-1.152-.873-.158-.4-.194-.958-.049-1.662l3.215.025c.145 0 .242-.073.279-.207.194-1.018.048-2.11-1.638-2.11-1.055 0-2.62 1.007-2.996 2.85-.133.68-.097 1.335.218 1.796.316.485.825.776 1.699.776.921 0 1.661-.425 2.268-1.055-.012-.122-.073-.182-.206-.195m5.34.195c-.085.46-.17.558-.607.582l-.327.024c-.037.012-.06.024-.073.06l-.048.268.012.024c.364-.012.873-.024 1.31-.024.449 0 .885.012 1.25.024l.023-.024.049-.255c.012-.049-.012-.06-.06-.073l-.231-.024c-.413-.037-.485-.097-.388-.582l.679-3.348c.097-.498.182-.522.606-.57l.243-.025c.048 0 .085-.024.097-.072l.048-.255-.012-.024a38.47 38.47 0 0 1-1.261.024c-.437 0-.934-.012-1.298-.024l-.024.024-.06.267c0 .048.011.06.048.06l.315.025c.376.036.473.109.388.57l-.267 1.298h-2.486l.267-1.298c.097-.498.181-.522.606-.57l.243-.025c.048 0 .085-.024.097-.072l.048-.255-.012-.024c-.364.012-.825.024-1.274.024-.436 0-.921-.012-1.285-.024l-.025.024-.06.267c0 .048.012.06.048.06l.316.025c.376.036.473.109.388.57l-.68 3.348c-.084.46-.17.558-.606.582l-.327.024c-.037.012-.061.024-.073.06l-.049.268.012.024c.364-.012.862-.024 1.298-.024.45 0 .898.012 1.262.024l.024-.024.049-.255c.012-.049-.013-.06-.061-.073l-.23-.024c-.413-.037-.486-.097-.389-.582l.328-1.638h2.486l-.327 1.638m6.048-1.893-.327 1.614a.487.487 0 0 1-.23.315c-.365.255-.838.522-1.177.522-.607 0-.777-.486-.704-.862.11-.546.473-1.091 1.42-1.334l1.018-.255m-.449 2.244c.013.255.134.704.789.704.594 0 1.128-.485 1.14-.546.012-.085-.073-.206-.121-.206-.073 0-.158.194-.413.194-.473 0-.388-.473-.279-1.031l.364-1.807c.34-1.723-.533-2.05-1.419-2.05-.995 0-2.147.691-2.268 1.346-.06.291.06.425.34.425.351 0 .582-.243.606-.4a.463.463 0 0 0 .012-.22c-.012-.035 0-.108.024-.242.073-.376.643-.51 1.104-.51.413 0 .946.207.667 1.578-.012.085-.06.133-.097.145l-1.091.255c-1.226.291-2.196.934-2.354 1.759-.194.958.413 1.31 1.262 1.31.558 0 .813-.097 1.42-.51l.29-.194h.024m3.907-2.268c.12-.63.679-2.11 1.916-2.11.946 0 1.298 1.152 1.007 2.607-.303 1.529-1.128 2.11-1.783 2.11-.995 0-1.48-.885-1.14-2.607M37.12 5.35c-.461 2.341.68 3.263 1.856 3.263 1.528 0 2.79-1.346 3.08-2.79.255-1.31-.096-2.717-1.807-2.717-1.152 0-1.904.595-2.292 1.177l-.073-.024a4.908 4.908 0 0 1 .691-1.359c.522-.667 1.031-.934 2.172-1.067C41.863 1.71 42.712 1.359 43.1 0h-.267c-.218.582-.91.74-1.94.898-1.02.157-1.954.74-2.657 1.698-.607.825-.922 1.795-1.116 2.753m8.448 2.123c-.122.643.643 1.116 1.746 1.116 1.201 0 2.584-.85 2.972-2.802.291-1.468-.157-2.644-1.77-2.644-.57 0-1.105.194-1.711.23-.133.461-.267.873-.51 1.456l.292.048c.364-.776.86-1.358 1.758-1.358 1.08 0 1.226 1.043 1.007 2.159l-.036.024c-.28-.194-.582-.34-.934-.34-.522 0-.91.34-1.334.34-.158 0-.292-.073-.376-.073-.073 0-.122.121-.134.17-.036.17.485.388 1.007.388.546 0 .813-.267 1.274-.267.157 0 .303.049.436.11-.29 1.443-.97 2.159-1.99 2.159-.484 0-.763-.292-.836-.62-.11-.375-.23-.448-.437-.448-.218 0-.376.158-.424.352m9.444.06c-.084.461-.17.559-.606.583l-.328.024c-.036.012-.06.024-.072.06l-.049.268.012.024c.364-.012.874-.024 1.31-.024.45 0 .886.012 1.25.024l.024-.024.048-.255c.013-.049-.012-.06-.06-.073l-.23-.024c-.413-.037-.486-.097-.389-.582l.68-3.348c.096-.498.181-.522.606-.57l.243-.025c.048 0 .084-.024.097-.072l.048-.255-.012-.024a38.47 38.47 0 0 1-1.262.024c-.436 0-.934-.012-1.297-.024L55 3.263l-.06.267c0 .048.012.06.048.06l.316.025c.376.036.473.109.388.57l-.267 1.298h-2.487l.267-1.298c.097-.498.182-.522.607-.57l.242-.025c.049 0 .085-.024.097-.072l.049-.255-.012-.024c-.364.012-.825.024-1.274.024-.437 0-.922-.012-1.286-.024l-.024.024-.06.267c0 .048.011.06.048.06l.315.025c.376.036.473.109.388.57l-.679 3.348c-.085.46-.17.558-.606.582l-.328.024c-.036.012-.06.024-.073.06l-.048.268.012.024c.364-.012.861-.024 1.298-.024.449 0 .897.012 1.261.024l.025-.024.048-.255c.012-.049-.012-.06-.06-.073l-.231-.024c-.412-.037-.485-.097-.388-.582l.327-1.638h2.487l-.328 1.638m7.335-3.336-.631 3.202c-.085.413-.158.594-.607.594h-1.455c-.425 0-.461-.145-.364-.594l.643-3.214c.097-.498.17-.522.594-.57l.255-.025c.048 0 .085-.024.097-.072l.048-.255-.024-.024s-.776.024-1.261.024c-.51 0-1.298-.024-1.298-.024l-.012.024-.061.267c0 .048.012.06.06.06l.316.025c.4.036.46.109.376.57l-.68 3.396c-.096.473-.17.485-.594.534l-.218.024c-.036.012-.06.024-.073.073l-.048.255.024.024s.764-.024 1.128-.024h2.948c.958 0 1.128.97 1.14 1.564l.303-.012.255-1.613c.024-.206-.097-.23-.303-.267-.207-.036-.389-.23-.316-.594l.667-3.348c.11-.497.194-.546.619-.582l.303-.025c.049 0 .085-.024.085-.06l.06-.267-.024-.024s-.8.024-1.31.024c-.485 0-1.237-.024-1.237-.024l-.012.024-.06.267c0 .048.012.06.048.06l.255.025c.4.048.46.109.364.582m4.084-.934c-.522 0-1.322-.024-1.322-.024l-.036.024-.061.267c0 .048.012.06.06.06l.364.025c.437.036.461.133.352.643l-.655 3.275c-.085.424-.145.558-.594.582l-.388.024c-.037.012-.061.024-.073.06l-.049.268.012.024c.486-.012.825-.024 1.347-.024.388 0 .497.012.982.024l.013-.024.048-.255c.012-.049-.012-.06-.06-.073-.4-.036-.413-.17-.352-.46v-.025l3.105-3.008-.57 2.862c-.085.425-.17.583-.619.607l-.388.024c-.036.012-.06.024-.073.06l-.048.268.024.024c.485-.012.813-.024 1.334-.024.546 0 .91.012 1.395.024l.012-.024.049-.255c.012-.049-.012-.06-.06-.073l-.353-.024c-.424-.024-.46-.158-.364-.607l.655-3.263c.098-.509.146-.594.607-.63l.364-.025c.048 0 .085-.024.097-.072l.048-.255-.012-.024s-.849.024-1.395.024c-.34 0-.885-.024-.885-.024l-.024.024-.061.267c0 .048.012.06.049.06.412.037.376.243.327.534l-3.105 3.008.582-2.887c.097-.497.146-.594.619-.63l.364-.025c.048 0 .084-.024.097-.072l.048-.255-.024-.024s-.85.024-1.383.024m4.587 5.204.024.024s.825-.024 1.25-.024c.473 0 1.176.024 1.176.024l.025-.024.048-.23c.012-.062-.036-.086-.085-.098-.254-.036-.606-.11-.521-.51l.34-1.698c.897.061 1.079.498 1.176 1.165.073.534.279 1.37.885 1.383l.874.012.036-.024.049-.219c.012-.085-.073-.109-.122-.109l-.085-.012c-.424-.06-.715-1.116-.812-1.577-.134-.594-.522-.861-1.177-.861l.012-.049c.473-.133.837-.546 1.116-1.03.206-.377.485-.644.607-.644a.4.4 0 0 1 .254.085c.073.061.17.11.316.11.254 0 .51-.219.558-.461.048-.292-.025-.546-.522-.546-.582 0-1.104.655-1.443 1.225-.4.667-.825 1.128-1.638 1.128l.28-1.383c.084-.437.35-.497.703-.534.048 0 .109-.06.121-.12l.049-.207-.025-.024s-.679.024-1.152.024c-.425 0-1.25-.024-1.25-.024l-.024.024-.048.23c-.012.061.024.085.073.097l.23.025c.376.036.473.194.4.533l-.691 3.457c-.06.34-.17.461-.607.51l-.242.024c-.06.012-.097.036-.11.097l-.048.23m5.55-.557c-.073.376.182.703.716.703.582 0 .97-.303 1.37-.97.34-.583.656-1.82.813-2.645.194-.946.291-1.261.752-1.261h.546c.437 0 .449.17.364.582l-.643 3.25c-.073.353-.194.498-.63.547l-.243.024c-.06.012-.097.036-.11.097l-.048.23.024.025s.825-.024 1.262-.024c.473 0 1.298.024 1.298.024l.024-.024.049-.23c.012-.062-.037-.098-.085-.098l-.219-.024c-.388-.037-.485-.194-.412-.546l.68-3.384c.084-.461.133-.534.606-.57l.34-.025c.072 0 .108-.024.12-.085l.05-.242-.037-.024s-.825.024-1.347.024h-2.11c-.485 0-1.25-.024-1.25-.024l-.036.024-.036.194c-.025.11.024.121.218.133.68.049.68.219.424 1.492-.254 1.274-.485 1.941-.74 2.438-.242.437-.46.595-.654.595-.146 0-.182-.097-.17-.255.012-.218 0-.46-.328-.46-.29 0-.497.242-.558.509m6.926-1.93c-.243 1.238.315 2.609 2.025 2.609 1.808 0 2.875-1.504 3.118-2.717.254-1.262-.122-2.73-2.002-2.73-1.637 0-2.838 1.298-3.141 2.839m2.923-2.438c1.043 0 1.456.934 1.092 2.717-.316 1.601-1.116 1.929-1.686 1.929-1.262 0-1.42-1.553-1.225-2.487.206-1.055.8-2.16 1.819-2.16m4.33.668-.668 3.336c-.085.424-.182.546-.606.57l-.376.024c-.049.012-.073.024-.085.06l-.049.268.024.024s.825-.024 1.359-.024c.51 0 1.322.024 1.322.024l.012-.024.049-.255c.012-.049-.012-.06-.049-.073l-.315-.024c-.413-.024-.461-.11-.376-.57l.667-3.336c.085-.425.34-.473.594-.473h1.468c.243 0 .497.024.4.473l-.667 3.336c-.085.424-.182.546-.606.57l-.34.024c-.036.012-.06.024-.073.06l-.048.268.012.024s.813-.024 1.334-.024c.522 0 1.359.024 1.359.024l.012-.024.048-.255c.012-.049-.012-.06-.06-.073l-.352-.024c-.425-.024-.473-.11-.388-.57l.667-3.348c.109-.497.145-.546.618-.582l.364-.025c.049 0 .085-.024.097-.072l.049-.255-.012-.024s-.85.024-1.395.024h-3.36c-.522 0-1.334-.024-1.334-.024l-.025.024-.06.267c0 .048.012.06.048.06l.364.025c.413.036.485.085.376.594m6.895.837c.51-1.37 1.383-1.48 1.674-1.48.461 0 .958.255.752 1.274-.024.109-.085.17-.218.17l-2.208.036m2.73 2.292c-.546.461-.934.655-1.638.655-.437 0-.898-.254-1.152-.873-.158-.4-.194-.958-.049-1.662l3.215.025c.145 0 .242-.073.279-.207.194-1.018.048-2.11-1.638-2.11-1.055 0-2.62 1.007-2.996 2.85-.133.68-.097 1.335.218 1.796.316.485.825.776 1.698.776.922 0 1.662-.425 2.269-1.055-.012-.122-.073-.182-.206-.195m.488 2.681.315.012c.194-.449.728-1.564 1.747-1.564h1.965c1.007 0 1.14 1.067 1.14 1.552h.303l.255-1.625c.037-.17-.036-.206-.255-.255-.194-.036-.448-.146-.363-.594l.679-3.36c.073-.413.218-.51.667-.57l.206-.025c.037 0 .097-.036.11-.085l.048-.242-.012-.024s-.886.024-1.286.024h-2.305c-.206 0-1.152-.024-1.152-.024l-.036.024-.061.267c0 .048.024.06.073.06l.327.025c.413.036.437.279.413.424-.291 1.444-.74 2.547-1.165 3.578-.133.328-.497.486-.825.522-.17.024-.327.049-.388.267l-.4 1.613m1.977-2.171c.049-.206.51-1.043 1.237-3.809.012-.048.122-.315.4-.315h.862c.449 0 .449.182.364.594l-.607 3.081c-.085.4-.157.594-.606.594h-1.444c-.121 0-.23-.012-.206-.145m6.973-4.585c-.522 0-1.322-.024-1.322-.024l-.037.024-.06.267c0 .048.012.06.06.06l.364.025c.437.036.461.133.352.643l-.655 3.275c-.085.424-.145.558-.594.582l-.388.024c-.037.012-.061.024-.073.06l-.049.268.012.024c.486-.012.825-.024 1.347-.024.388 0 .497.012.982.024l.012-.024.049-.255c.012-.049-.012-.06-.06-.073-.401-.036-.413-.17-.352-.46v-.025l3.105-3.008-.57 2.862c-.085.425-.17.583-.619.607l-.388.024c-.036.012-.06.024-.073.06l-.048.268.024.024c.485-.012.813-.024 1.334-.024.546 0 .91.012 1.395.024l.012-.024.049-.255c.012-.049-.012-.06-.061-.073l-.352-.024c-.424-.024-.46-.158-.364-.607l.655-3.263c.097-.509.146-.594.607-.63l.364-.025c.048 0 .085-.024.097-.072l.048-.255-.012-.024s-.849.024-1.395.024c-.34 0-.885-.024-.885-.024l-.024.024-.061.267c0 .048.012.06.048.06.413.037.376.243.328.534l-3.105 3.008.582-2.887c.097-.497.145-.594.619-.63l.363-.025c.049 0 .085-.024.097-.072l.049-.255-.024-.024s-.85.024-1.383.024m4.369 5.204.036.024.764-.012c.388-.012.886-.498 1.225-1.092.45-.788.886-1.298 1.371-1.298h.303l-.29 1.444c-.086.473-.134.57-.535.594l-.194.012c-.048 0-.072.036-.085.085l-.048.267s.691-.024 1.128-.024c.425 0 1.104.024 1.104.024l.048-.243c0-.024-.012-.109-.109-.109l-.255-.012c-.194-.012-.206-.28-.145-.594l.716-3.554c.048-.255.157-.352.376-.364l.303-.025c.024 0 .048-.012.048-.036l.061-.291-.024-.024s-.643.024-1.056.024c-.388 0-.072-.024-.994-.024-2.074 0-2.402 1.116-2.475 1.467-.17.862.631 1.286 1.298 1.286l-.012.036c-.352.061-.813.352-1.116.85-.279.448-.825 1.213-1.152 1.249l-.11.012c-.048 0-.12.012-.133.097l-.048.23m2.207-3.893c.122-.57.388-.983 1.432-.983.473 0 .558.049.473.437l-.328 1.65h-.812c-.692 0-.886-.498-.765-1.104"/></svg>