<svg xmlns="http://www.w3.org/2000/svg" width="106" height="15" fill="none"><path fill="#0B2645" d="M.557.357 3.78 13.936h4.042l2.44-10.32 2.458 10.32h4.042L19.966.356h-3.334l-2.347 9.873L11.957.357H8.585l-2.328 9.872L3.91.357H.557Zm21.692 0v13.579h3.501V.356h-3.5Zm6.93 0v13.579h3.502V8.59l5.402 5.346h4.377l-7.21-7.153L41.79.357h-4.06L32.68 5.31V.357h-3.502Zm14.443 0v13.579h3.502V.356h-3.502Z"/><path fill="#0A4E98" d="M59.068 6.749c1.173-.447 1.806-1.397 1.806-2.72 0-2.589-1.695-3.595-5.364-3.595h-5.253v13.58h5.812c3.595 0 5.364-1.267 5.364-3.894 0-1.713-.875-2.943-2.365-3.371Zm-3.26 4.88H53.76V8.071h2.05c1.415 0 2.123.578 2.123 1.77 0 1.192-.708 1.788-2.124 1.788Zm-.112-5.942H53.76V2.82h1.937c1.1 0 1.677.503 1.677 1.434 0 .95-.578 1.434-1.677 1.434Zm8.75-5.253v13.58h9.648v-2.646h-6.147v-3.11h5.588V5.613h-5.588V3.079h5.942V.434h-9.443Zm12.714 0v8.14c0 3.837 1.9 5.7 5.85 5.7 3.948 0 5.848-1.863 5.848-5.7V.434h-3.502v8.14c0 2.161-.615 3.13-2.347 3.13s-2.347-.969-2.347-3.13V.434H77.16Zm15.116 0v13.58h3.502V8.666l5.402 5.346h4.377L98.349 6.86l6.538-6.427h-4.061L95.778 5.39V.434h-3.502Z"/></svg>