<?xml version="1.0" encoding="UTF-8"?>
<svg width="121px" height="13px" viewBox="0 0 121 13" version="1.1" xmlns="http://www.w3.org/2000/svg" xmlns:xlink="http://www.w3.org/1999/xlink">
    <title>wikipedia-tagline-bar</title>
    <g id="Page-1" stroke="none" stroke-width="1" fill="none" fill-rule="evenodd">
        <path d="M4.78579128,0.680115002 C7.37009923,0.680115002 9.42946964,2.71229046 9.42946964,5.18153682 C9.42946964,8.44629307 6.9259213,9.29592622 5.02807015,9.29592622 C3.64169661,9.29592622 3.07637924,9.27039638 2.57836156,9.27039638 C1.89190476,9.27039638 1.48810664,9.28469309 0.828569718,9.29592622 C0.747810094,9.21627311 0.747810094,8.93646604 0.828569718,8.85681293 C1.77076533,8.81698638 1.99958426,8.75060879 1.99958426,7.6477196 L1.99958426,2.32423685 C1.99958426,1.22339005 1.77076533,1.15497007 0.828569718,1.11616471 C0.747810094,1.0365116 0.747810094,0.755683336 0.828569718,0.676030227 C1.50156658,0.691348133 1.89190476,0.702581263 2.56490163,0.702581263 C3.0888038,0.707687232 3.92435529,0.680115002 4.78579128,0.680115002 Z M4.60977671,8.8455798 C6.50762787,8.8455798 8.13628028,8.18384629 8.13628028,5.50219164 C8.13628028,3.45776186 7.18062473,1.1345462 4.27327828,1.1345462 C3.61374135,1.1345462 3.14264355,1.32142464 3.14264355,1.78606778 L3.14264355,8.17057077 C3.14264355,8.59436615 3.29070286,8.8455798 4.60977671,8.8455798 Z M15.5527057,8.24920268 C15.0143082,8.93952962 14.2874716,9.40417275 13.2645164,9.40417275 C12.2954009,9.40417275 11.6627838,9.08453913 11.205146,8.5545396 C10.760968,8.05006991 10.5725289,7.33421313 10.5725289,6.58976293 C10.5725289,4.57086299 12.0935018,3.46899499 13.2645164,3.46899499 C15.1354477,3.46899499 15.5392458,4.66379161 15.5392458,5.77995632 C15.5392458,5.92700822 15.4450262,6.00564013 15.283507,6.00564013 L11.7031637,5.98011029 C11.7031637,6.75009034 11.8646829,7.36076417 12.1338816,7.79885626 C12.5511397,8.47488649 13.1164571,8.75469356 13.6010148,8.75469356 C14.3816912,8.75469356 14.7720294,8.54330647 15.270047,8.03883678 C15.4315663,8.04904872 15.5123259,8.11542631 15.5527057,8.24920268 Z M14.1797921,5.48687373 C14.3278514,5.48483135 14.3816912,5.42253853 14.3816912,5.30101648 C14.3816912,4.18587296 13.775994,3.90708708 13.2645164,3.90708708 C12.9414779,3.90708708 11.9992823,4.02656675 11.7435435,5.52670029 L14.1797921,5.48687373 Z M25.9168574,3.4026174 C26.0245369,3.4026174 26.0918366,3.44244395 26.0918366,3.49656722 C26.0918366,3.49656722 26.0619256,3.77932441 26.041985,4.09370078 L26.0295221,4.33148762 C26.0264063,4.41011008 26.0245369,4.48678471 26.0245369,4.55758747 C26.0245369,4.62396506 26.0649167,4.69238504 26.1456763,4.54533314 C26.4552549,4.02656675 27.0071123,3.44244395 27.6397294,3.44244395 C28.2050468,3.44244395 28.4473256,3.82743398 28.4473256,4.08069001 C28.4473256,4.41155677 28.1377471,4.74344472 27.8147086,4.74344472 C27.5320499,4.74344472 27.3974505,4.49120988 27.2628511,4.3584547 C27.1820915,4.27880159 27.074412,4.26552607 26.9801925,4.26552607 C26.8186732,4.26552607 26.5090947,4.70361817 26.3610353,4.91602646 C26.1995161,5.15498578 26.0379969,5.4603227 26.0379969,5.80548617 L26.0379969,7.65078318 C26.0379969,8.75265118 26.1995161,8.79247773 27.1417117,8.85987651 C27.2224713,8.93952962 27.2224713,9.2193367 27.1417117,9.2989898 C26.5629344,9.28469309 26.0649167,9.27345996 25.5130593,9.27345996 C24.9736264,9.27345996 24.5429084,9.28775667 23.9786264,9.2989898 C23.8978668,9.2193367 23.8978668,8.93952962 23.9786264,8.85987651 C24.8131426,8.80575325 24.9746618,8.75367237 24.9746618,7.65078318 L24.9746618,5.06205716 C24.9746618,4.33190366 24.8266025,4.22569952 24.0997659,4.16034312 C24.0459261,4.08069001 24.0459261,3.86726053 24.072846,3.78760742 C25.0015817,3.67017015 25.5399792,3.55069048 25.9168574,3.4026174 Z M23.1306504,0 C23.642128,0 23.9920864,0.0398265542 24.3420448,0.278785879 C24.6247034,0.491194168 24.7727627,0.7291323 24.7727627,0.9558373 C24.7727627,1.22236886 24.4486889,1.50013354 24.2209053,1.50013354 C23.9382466,1.50013354 23.7901873,1.31325509 23.6825078,1.07531696 C23.4940687,0.610673831 23.2787097,0.451367614 22.8749116,0.451367614 C22.4307337,0.451367614 21.8115765,0.769980047 21.8115765,2.81338863 L21.8115765,3.56907197 L23.2652498,3.56907197 C23.3325495,3.56907197 23.3729293,3.59562301 23.3729293,3.64872508 L23.3729293,3.91423544 C23.3729293,4.0337151 23.1844901,4.08783837 23.0633507,4.08783837 L21.8115765,4.08783837 L21.8115765,7.64567721 C21.8115765,8.75367237 21.9596359,8.80575325 22.8749116,8.85885532 C22.9556712,8.93850843 22.9556712,9.21729431 22.8749116,9.29694742 C22.2961343,9.2836719 21.9057961,9.27039638 21.286639,9.27039638 C20.7347816,9.27039638 20.4386629,9.28469309 19.8733456,9.29694742 C19.792586,9.21729431 19.792586,8.93850843 19.8733456,8.85885532 C20.6001822,8.80473205 20.7482415,8.75265118 20.7482415,7.64976198 L20.7482415,4.09192314 L19.8195058,4.09192314 C19.7656661,4.09192314 19.7522061,4.07762643 19.7522061,4.01329123 L19.7522061,3.84070949 C19.7522061,3.73450535 19.8195058,3.57315675 20.0617847,3.57315675 L20.7482415,3.57315675 L20.7482415,3.04213602 C20.7482415,0.972176399 22.0000157,0 23.1306504,0 Z M34.0062797,8.24920268 C33.4678822,8.93952962 32.7410456,9.40417275 31.7180904,9.40417275 C30.7489749,9.40417275 30.1163578,9.08453913 29.65872,8.5545396 C29.214542,8.05006991 29.0261029,7.33421313 29.0261029,6.58976293 C29.0261029,4.57086299 30.5470758,3.46899499 31.7180904,3.46899499 C33.5890217,3.46899499 33.9928198,4.66379161 33.9928198,5.77995632 C33.9928198,5.92700822 33.8986002,6.00564013 33.737081,6.00564013 L30.1567377,5.98011029 C30.1567377,6.75009034 30.3182569,7.36076417 30.5874556,7.79885626 C31.0047137,8.47488649 31.5700311,8.75469356 32.0545888,8.75469356 C32.8352652,8.75469356 33.2256034,8.54330647 33.723621,8.03883678 C33.8851403,8.04904872 33.9658999,8.11542631 34.0062797,8.24920268 Z M32.6333661,5.48687373 C32.7814254,5.48483135 32.8352652,5.42253853 32.8352652,5.30101648 C32.8352652,4.18587296 32.229568,3.90708708 31.7180904,3.90708708 C31.3950519,3.90708708 30.4528563,4.02656675 30.1971175,5.52670029 L32.6333661,5.48687373 Z M37.9500413,8.85885532 C38.030801,8.93850843 38.030801,9.21729431 37.9500413,9.29694742 C37.371264,9.2836719 37.0347656,9.27039638 36.4559883,9.27039638 C35.8637511,9.27039638 35.5137927,9.28469309 34.9484753,9.29694742 C34.8677157,9.21729431 34.8677157,8.93850843 34.9484753,8.85885532 C35.7695315,8.79247773 35.9175908,8.75265118 35.9175908,7.64976198 L35.9175908,5.06103596 C35.9175908,4.30535263 35.7757438,4.22672071 35.0426949,4.15727954 C35.015775,4.07762643 34.9888551,3.86623934 35.015775,3.78658623 C35.9445107,3.66710657 36.4756605,3.5486481 36.8597864,3.4015962 C36.9674659,3.4015962 37.0347656,3.44142276 37.0347656,3.49350364 C37.0347656,3.49350364 36.9809259,4.34313679 36.9809259,5.00384911 L36.9809259,7.64976198 C36.9809259,8.75367237 37.1289852,8.80575325 37.9500413,8.85885532 Z M36.4559883,0.680115002 C36.8194066,0.680115002 37.1020653,1.0528507 37.1020653,1.37044194 C37.1020653,1.65127021 36.7790268,2.008688 36.4021486,2.008688 C36.0791101,2.008688 35.7560716,1.66352453 35.7560716,1.31836106 C35.7560716,0.999748629 36.1329498,0.680115002 36.4559883,0.680115002 Z M43.6705147,8.24920268 C43.1321172,8.93952962 42.4052806,9.40417275 41.3823253,9.40417275 C40.4132099,9.40417275 39.7805928,9.08453913 39.3229549,8.5545396 C38.878777,8.05006991 38.6903379,7.33421313 38.6903379,6.58976293 C38.6903379,4.57086299 40.2113108,3.46899499 41.3823253,3.46899499 C43.2532566,3.46899499 43.6570547,4.66379161 43.6570547,5.77995632 C43.6570547,5.92700822 43.5628352,6.00564013 43.4013159,6.00564013 L39.8209726,5.98011029 C39.8209726,6.75009034 39.9824919,7.36076417 40.2516906,7.79885626 C40.6689487,8.47488649 41.234266,8.75469356 41.7188238,8.75469356 C42.4995001,8.75469356 42.8898383,8.54330647 43.387856,8.03883678 C43.5493752,8.04904872 43.6301349,8.11542631 43.6705147,8.24920268 Z M42.2976011,5.48687373 C42.4456604,5.48483135 42.4995001,5.42253853 42.4995001,5.30101648 C42.4995001,4.18587296 41.893803,3.90708708 41.3823253,3.90708708 C41.0592868,3.90708708 40.1170912,4.02656675 39.8613524,5.52670029 L42.2976011,5.48687373 Z M52.4733137,3.57315675 C52.5540733,3.49350364 52.836732,3.49350364 52.9174916,3.57315675 C52.9040316,3.97346467 52.8905717,4.26552607 52.8905717,4.71587249 C52.8905717,5.16621891 52.9040316,5.41845376 52.9174916,5.88513928 C52.836732,5.96479238 52.5540733,5.96479238 52.4733137,5.88513928 C52.4329338,5.28774096 52.392554,4.98138285 51.2484594,4.98138285 L50.0236051,4.98138285 L50.0236051,8.1818039 C50.0236051,8.54024289 50.2120442,8.75367237 50.5081628,8.75367237 L52.3387143,8.75367237 C53.3616695,8.75367237 53.8327673,7.96939561 54.1019661,7.0145795 C54.2779806,6.97271056 54.4332876,7.00130399 54.5730639,7.0799359 C54.4653844,7.75698732 54.2634853,8.63317151 54.0750462,9.29694742 C54.0750462,9.29694742 52.9982512,9.27039638 52.3521742,9.27039638 L49.4582877,9.27039638 C49.4582877,9.27039638 48.3680328,9.28469309 47.7084959,9.29694742 C47.6277362,9.21729431 47.6277362,8.93850843 47.7084959,8.85885532 C48.6506915,8.81902877 48.8795104,8.75265118 48.8795104,7.64976198 L48.8795104,2.32627924 C48.8795104,1.22441124 48.6506915,1.15599126 47.7084959,1.1182071 C47.6277362,1.03855399 47.6277362,0.758746917 47.7084959,0.679093808 C48.3814927,0.69339052 49.4448278,0.704623651 49.4448278,0.704623651 L52.8771118,0.704623651 C53.2001503,0.704623651 53.3078298,0.691348133 53.5366487,0.651521579 C53.5770285,0.651521579 53.5904884,0.664797097 53.5904884,0.691348133 C53.6174083,0.797552277 53.8193074,2.0730232 53.8866071,2.61629825 C53.7551138,2.67961226 53.6091253,2.7061633 53.4424291,2.68063345 C53.1463105,1.7656439 52.9309515,1.23462318 51.9214562,1.23462318 L50.5081628,1.23462318 C50.1851243,1.23462318 50.0236051,1.50115473 50.0236051,1.81874597 L50.0236051,4.47384959 L51.2484594,4.47384959 C52.392554,4.47691317 52.4329338,4.30535263 52.4733137,3.57315675 Z M59.5667006,3.44244395 C60.0377984,3.44244395 60.4550565,3.60175017 60.6838754,3.89381157 C60.9934539,4.30535263 61.0472937,4.9415563 61.0472937,5.67273099 L61.0472937,7.65078318 C61.0472937,8.73937566 61.1963884,8.79247773 61.9501449,8.85987651 C62.0164092,8.93952962 62.0164092,9.2193367 61.9501449,9.2989898 C61.3703322,9.28469309 61.0742136,9.27345996 60.5233915,9.27345996 C59.984994,9.27345996 59.7157953,9.28775667 59.1504779,9.2989898 C59.0831782,9.2193367 59.0831782,8.93952962 59.1504779,8.85987651 C59.8503947,8.79452012 59.984994,8.74141805 59.984994,7.65078318 L59.984994,5.63290443 C59.984994,5.2325965 59.9580742,4.8761999 59.8234748,4.61068954 C59.6619555,4.30535263 59.3792969,4.1317497 59.1100981,4.1317497 C58.5851606,4.1317497 58.060223,4.4227899 57.5487454,4.91602646 C57.4410659,5.03550612 57.3199265,5.19276995 57.3199265,5.47359822 L57.3199265,7.65078318 C57.3199265,8.73937566 57.4410659,8.79247773 58.1275227,8.86089771 C58.2082823,8.93952962 58.2082823,9.2193367 58.1275227,9.2989898 C57.5622053,9.28469309 57.3199265,9.27345996 56.7949889,9.27345996 C56.2162116,9.27345996 55.8662532,9.28775667 55.3143958,9.2989898 C55.2336362,9.2193367 55.2336362,8.93952962 55.3143958,8.86089771 C56.121992,8.79452012 56.2565914,8.74141805 56.2565914,7.65078318 L56.2565914,5.06205716 C56.2565914,4.29207711 56.1085321,4.22774191 55.3816955,4.16034312 C55.3547756,4.08069001 55.3278557,3.86726053 55.3547756,3.78760742 C56.2835113,3.67017015 56.8353687,3.55069048 57.212247,3.4026174 C57.3199265,3.4026174 57.3737662,3.44244395 57.3737662,3.50882154 C57.3737662,3.50882154 57.3064665,4.12051657 57.3064665,4.51673972 C57.3064665,4.70361817 57.4006861,4.57086299 57.4410659,4.51673972 C58.2610867,3.61604688 58.9071637,3.44244395 59.5667006,3.44244395 Z M63.6585215,3.57315675 L66.3908888,3.57315675 C66.781227,3.57315675 67.211945,3.48124931 67.2792447,3.48124931 C67.3734642,3.48124931 67.4397285,3.52107587 67.4397285,3.57315675 C67.4397285,3.62830121 67.3734642,3.78658623 67.1436099,4.1317497 L63.913225,8.81902877 L65.7033966,8.81902877 C66.484073,8.81902877 66.7139273,8.45956858 67.0359304,7.75698732 L67.211945,7.3719973 C67.3724288,7.3719973 67.5277358,7.41590863 67.6147077,7.46492592 C67.3858888,8.23490597 67.2523248,8.85885532 67.1839897,9.27039638 L62.9855247,9.27039638 C62.7836256,9.27039638 62.6749107,9.20606118 62.6749107,9.11313255 C62.6749107,9.04675496 62.6883707,9.00692841 62.7960502,8.8455798 L66.105124,4.02656675 L64.248688,4.02656675 C63.8459253,4.02656675 63.4276318,4.30535263 63.1584331,5.27548664 C63.0041615,5.30918603 62.8343592,5.28569858 62.7142552,5.23566008 C62.8219347,4.5851597 62.9037297,4.08069001 62.9151188,3.48227051 C62.9151188,3.4506135 62.9637817,3.4026174 62.9958785,3.4026174 C63.2340158,3.44754992 63.2257328,3.57315675 63.6585215,3.57315675 Z M69.3769241,12.3503166 C69.0135058,12.3503166 68.7453424,12.1379083 68.7453424,11.8591224 C68.7453424,11.6865407 68.9462061,11.2882751 69.3365443,11.2882751 C69.4866744,11.2882751 69.5384434,11.3281017 69.7268825,11.3281017 C70.0644163,11.3281017 70.2528554,11.208622 70.3998793,10.9431117 C70.600743,10.5315706 70.7664038,10.1649621 70.9258523,9.72176399 C71.0594163,9.35004949 70.8544111,8.74039685 70.7363778,8.4738653 L69.2133341,4.98138285 C68.8447389,4.13583447 68.7380948,4.03779988 68.1520698,3.98469781 C68.0723456,3.90606589 68.0723456,3.62625882 68.1520698,3.54660571 C68.4223039,3.55988123 68.7836515,3.57213555 69.2433601,3.57213555 C69.7268825,3.57213555 70.26528,3.55783884 70.764333,3.54660571 C70.8450927,3.62625882 70.8450927,3.90606589 70.764333,3.98469781 C69.9391353,4.04903301 70.0809824,4.28901353 70.3232612,4.84760648 L71.5149834,7.60993543 C71.6299105,7.8734034 71.7427669,7.83766162 71.8380219,7.62423214 L73.1726264,4.58209612 C73.3848793,4.10111389 72.9520905,4.02452436 72.5275848,3.98469781 C72.4468252,3.90606589 72.4468252,3.62625882 72.5275848,3.54660571 C73.0245671,3.55988123 73.2823767,3.57213555 73.7534745,3.57213555 C74.1293173,3.57213555 74.3726316,3.55783884 74.70913,3.54660571 C74.7898897,3.62625882 74.7898897,3.90606589 74.70913,3.98469781 C74.2111124,4.02452436 73.8083496,4.44934094 73.6178397,4.83433096 C72.9054984,6.32118898 72.3174027,7.69163092 71.2354308,10.2527847 C71.0697701,10.6459443 70.8937555,11.0248072 70.6835734,11.3934581 C70.1979803,12.2441124 69.6616536,12.3503166 69.3769241,12.3503166 Z M76.0261331,1.84938179 C76.0261331,0.733217074 75.8656493,0.801637052 75.1646971,0.761810498 C75.0849729,0.68215739 75.0570176,0.468727907 75.0849729,0.362523762 C75.6244058,0.322697208 76.6328657,0.134797568 76.9683287,0.00306358109 C77.0894682,0.00306358109 77.1443433,0.0428901353 77.1443433,0.134797568 C77.1443433,0.134797568 77.0894682,0.666839484 77.0894682,1.52872696 L77.0894682,6.11592905 C77.4477096,6.01278849 78.1176003,5.42458092 78.8268355,4.66174923 C78.9686825,4.52184569 79.3994005,4.02452436 78.585592,3.98469781 C78.5048323,3.90606589 78.5048323,3.62625882 78.585592,3.54660571 C79.0815389,3.56090242 79.3113932,3.57213555 79.8218354,3.57213555 C80.3084639,3.57213555 80.4948323,3.55783884 80.9938854,3.54660571 C81.0736096,3.62625882 81.0736096,3.90606589 80.9938854,3.98469781 C80.3219239,4.01124884 79.9129489,4.16136431 79.5122569,4.5688206 L78.490337,5.68396412 C78.4499572,5.72379067 78.4364973,5.76361723 78.4364973,5.8167193 C78.4364973,5.88309689 78.4623818,5.95049567 78.5027616,6.00461894 L80.0775742,8.30026237 C80.385082,8.7485664 80.777491,8.80473205 81.2340935,8.85885532 C81.3148531,8.93850843 81.3148531,9.21729431 81.2340935,9.29694742 C80.8302954,9.2836719 80.548672,9.27039638 80.131414,9.27039638 C79.7276159,9.27039638 79.4708417,9.28469309 79.2037137,9.29694742 C79.1633339,9.29694742 79.1488386,9.27039638 79.1488386,9.23056983 L79.1488386,9.01918273 C79.1488386,8.8455798 79.1084588,8.68831597 78.8382246,8.30332595 L77.8566846,6.9349264 C77.5936981,6.56014831 77.4094005,6.46211371 77.0905035,6.45598655 L77.0905035,7.65078318 C77.0905035,8.75367237 77.2385629,8.80575325 77.7904203,8.86089771 C77.8711799,8.93952962 77.8711799,9.2193367 77.7904203,9.2989898 C77.2106076,9.28469309 77.0356284,9.27345996 76.5645306,9.27345996 C75.9992132,9.27345996 75.6885993,9.28775667 75.1232819,9.2989898 C75.0425223,9.2193367 75.0425223,8.93952962 75.1232819,8.86089771 C75.8780738,8.80575325 76.0240624,8.75469356 76.0240624,7.65078318 L76.0240624,1.84938179 L76.0261331,1.84938179 Z M82.6359977,1.84938179 C82.6359977,0.733217074 82.4755138,0.801637052 81.7745617,0.761810498 C81.6938021,0.68215739 81.6668822,0.468727907 81.6938021,0.362523762 C82.233235,0.322697208 83.2416949,0.134797568 83.5771579,0.00306358109 C83.6982974,0.00306358109 83.7531725,0.0428901353 83.7531725,0.134797568 C83.7531725,0.134797568 83.6982974,0.666839484 83.6982974,1.52872696 L83.6982974,7.64976198 C83.6982974,8.75060879 83.8473921,8.81902877 84.6684482,8.85885532 C84.7492079,8.93850843 84.7492079,9.21729431 84.6684482,9.29694742 C84.0886356,9.2836719 83.7531725,9.27039638 83.1754306,9.27039638 C82.5831933,9.27039638 82.233235,9.28469309 81.668953,9.29694742 C81.5881934,9.21729431 81.5881934,8.93850843 81.668953,8.85885532 C82.4900092,8.81902877 82.6380685,8.75265118 82.6380685,7.64976198 L82.6359977,1.84938179 L82.6359977,1.84938179 Z M88.3150559,3.44244395 C90.4023815,3.44244395 91.1416427,5.04878164 91.1416427,6.43045671 C91.1416427,7.75902971 90.294702,9.40417275 88.2871006,9.40417275 C86.3892494,9.40417275 85.4615492,7.90403921 85.4615492,6.54993637 C85.4646553,4.86292438 86.5000351,3.44244395 88.3150559,3.44244395 Z M86.6211745,6.24459946 C86.6211745,7.26579315 87.1316168,8.96505946 88.5324856,8.96505946 C89.1651027,8.96505946 89.9861588,8.60662048 89.9861588,6.85527329 C89.9861588,4.90479333 89.3255865,3.88155659 88.1680319,3.88155659 C87.0373972,3.88053605 86.6211745,5.08860819 86.6211745,6.24459946 Z M95.785321,3.44244395 C97.1582346,3.44244395 98.1687653,4.74344472 98.1687653,6.15064964 C98.1687653,7.2259666 97.805347,8.04904872 97.17273,8.65972255 C96.6208725,9.17746775 95.9468403,9.40417275 95.1941192,9.40417275 C94.7696135,9.40417275 94.3523554,9.33064681 94.0231046,9.19891282 C93.8843637,9.14274717 93.8336301,9.12640807 93.8336301,9.2989898 L93.8336301,10.7327458 C93.8336301,11.8335926 93.9827248,11.8877158 94.9363096,11.9408179 C95.0170692,12.020471 95.0170692,12.3012993 94.9363096,12.3809524 C94.3564969,12.3656345 93.9402743,12.3544013 93.309728,12.3544013 C92.7174907,12.3544013 92.3675324,12.3676769 91.8011796,12.3809524 C91.72042,12.3012993 91.72042,12.020471 91.8011796,11.9408179 C92.6222358,11.9009913 92.7713305,11.8346138 92.7713305,10.7327458 L92.7713305,5.06205716 C92.7713305,4.30637382 92.6222358,4.22774191 91.8964345,4.16034312 C91.8695147,4.08069001 91.8415594,3.86726053 91.8695147,3.78760742 C92.7982503,3.67017015 93.3107633,3.55069048 93.6866062,3.4026174 C93.7942857,3.4026174 93.8615854,3.44244395 93.8615854,3.49656722 C93.8615854,3.49656722 93.8077456,3.86726053 93.8077456,4.34620037 C93.8077456,4.44117139 93.9009298,4.42789587 93.942345,4.38602693 C94.5480422,3.7753531 95.2883387,3.44244395 95.785321,3.44244395 Z M93.8346655,5.40619943 L93.8346655,7.87544579 C93.8346655,8.35540683 93.8874699,8.43199636 94.1587394,8.67095568 C94.4010183,8.88438516 94.8721161,8.94974156 95.1143949,8.94974156 C96.6219079,8.94974156 97.0122461,7.59563872 97.0122461,6.50602504 C97.0122461,5.00487031 96.2719495,4.0510754 95.4105136,4.0510754 C95.0181046,4.0510754 94.4683179,4.39623887 94.0510599,4.82105544 C93.8781515,4.99772195 93.8346655,5.12843475 93.8346655,5.40619943 Z M102.596049,8.63419271 L102.326851,8.8455798 C101.734613,9.29694742 101.47991,9.40417275 100.860753,9.40417275 C99.9185572,9.40417275 99.1627299,9.01918273 99.1627299,7.971438 C99.1627299,7.06870277 100.091466,6.36510031 101.384655,6.04546669 L102.543245,5.767702 C102.583625,5.75442648 102.622969,5.70132441 102.622969,5.60941698 C102.622969,4.10826224 101.991388,3.88462082 101.531679,3.88462082 C101.020201,3.88462082 100.414504,4.03065152 100.414504,4.44219258 C100.414504,4.58924447 100.430035,4.66787639 100.441424,4.70770294 C100.467308,4.76080501 100.481804,4.85475483 100.481804,4.94564107 C100.481804,5.119244 100.279905,5.38475436 99.8895665,5.38475436 C99.579988,5.38475436 99.4184687,5.23668128 99.4184687,4.92011123 C99.4184687,4.20425445 100.535644,3.44652873 101.640394,3.44652873 C102.621934,3.44652873 103.672844,3.8070101 103.672844,5.69009128 L103.672844,7.66916466 C103.672844,8.28085969 103.686304,8.7965625 104.211242,8.7965625 C104.4939,8.7965625 104.550846,8.58415422 104.627464,8.58415422 C104.68234,8.58415422 104.803479,8.71793059 104.803479,8.80983802 C104.803479,8.87621561 104.317886,9.40825753 103.66042,9.40825753 C102.940831,9.40825753 102.702693,8.91808455 102.622969,8.63827748 L102.595014,8.63827748 L102.595014,8.63419271 L102.596049,8.63419271 Z M100.43107,0.999748629 C100.781029,0.999748629 101.062652,1.29181003 101.062652,1.6369735 C101.062652,1.98213697 100.781029,2.25888046 100.43107,2.25888046 C100.081112,2.25888046 99.7984531,1.98213697 99.7984531,1.6369735 C99.7984531,1.29181003 100.081112,0.999748629 100.43107,0.999748629 Z M101.56067,6.45598655 C100.56567,6.71741214 100.281975,7.31991642 100.281975,7.91833593 C100.281975,8.32885579 100.578094,8.85987651 101.252126,8.85987651 C101.627969,8.85987651 102.087678,8.56883631 102.437636,8.28902924 C102.545316,8.20937613 102.628146,8.11542631 102.628146,7.94284457 L102.628146,6.17720067 L101.56067,6.45598655 Z M102.704764,0.999748629 C103.055758,0.999748629 103.337381,1.29181003 103.337381,1.6369735 C103.337381,1.98213697 103.055758,2.25888046 102.704764,2.25888046 C102.354806,2.25888046 102.073183,1.98213697 102.073183,1.6369735 C102.073183,1.29181003 102.354806,0.999748629 102.704764,0.999748629 Z M107.643526,9.40315156 C106.190888,9.40315156 105.356372,8.20631255 105.356372,6.57342383 C105.356372,5.59103549 105.70633,4.80777992 106.284072,4.23693265 C106.823505,3.73246296 107.415742,3.44142276 108.303063,3.44142276 C108.747241,3.44142276 109.299098,3.66710657 109.352938,3.66710657 C109.448193,3.66710657 109.474077,3.64157672 109.474077,3.5486481 L109.474077,1.84938179 C109.474077,0.733217074 109.312558,0.801637052 108.612641,0.761810498 C108.531882,0.68215739 108.504962,0.468727907 108.531882,0.362523762 C109.071315,0.322697208 110.079774,0.134797568 110.416273,0.00306358109 C110.537412,0.00306358109 110.591252,0.0428901353 110.591252,0.134797568 C110.591252,0.134797568 110.537412,0.666839484 110.537412,1.52872696 L110.537412,7.54457903 C110.537412,8.19507942 110.658552,8.44731426 111.519988,8.51369185 C111.600747,8.59130257 111.600747,8.79043534 111.519988,8.87213084 C110.698932,8.96505946 110.187454,9.16419224 109.8903,9.40417275 C109.78262,9.4297026 109.741205,9.44399931 109.635596,9.40417275 C109.635596,9.40417275 109.485466,8.93952962 109.485466,8.619896 C109.485466,8.52696737 109.389176,8.55249721 109.326018,8.60151451 C108.667516,9.13866239 108.169499,9.40315156 107.643526,9.40315156 Z M109.475113,5.10188371 C109.475113,4.69238504 109.434733,4.59741402 109.245258,4.38602693 C108.97606,4.08069001 108.640597,3.90708708 108.155003,3.90708708 C107.884769,3.90708708 107.319452,3.94691364 106.903229,4.57086299 C106.702366,4.84760648 106.512891,5.38066959 106.512891,6.33650689 C106.512891,7.99594665 107.267683,8.7812446 107.993484,8.7812446 C108.331018,8.7812446 108.761736,8.56883631 109.259754,8.14401973 C109.450264,7.98164993 109.475113,7.87850937 109.475113,7.62525333 L109.475113,5.10188371 L109.475113,5.10188371 Z M115.047527,8.85885532 C115.128286,8.93850843 115.128286,9.21729431 115.047527,9.29694742 C114.468749,9.2836719 114.132251,9.27039638 113.555544,9.27039638 C112.963307,9.27039638 112.613349,9.28469309 112.046996,9.29694742 C111.967272,9.21729431 111.967272,8.93850843 112.046996,8.85885532 C112.868052,8.79247773 113.017147,8.75265118 113.017147,7.64976198 L113.017147,5.06103596 C113.017147,4.30535263 112.8753,4.22672071 112.142251,4.15727954 C112.115331,4.07762643 112.087376,3.86623934 112.115331,3.78658623 C113.044067,3.66710657 113.576252,3.5486481 113.959342,3.4015962 C114.067022,3.4015962 114.134322,3.44142276 114.134322,3.49350364 C114.134322,3.49350364 114.080482,4.34313679 114.080482,5.00384911 L114.080482,7.64976198 C114.078411,8.75367237 114.22647,8.80575325 115.047527,8.85885532 Z M113.552438,0.680115002 C113.916892,0.680115002 114.199551,1.0528507 114.199551,1.37044194 C114.199551,1.65127021 113.875477,2.008688 113.497563,2.008688 C113.174525,2.008688 112.852522,1.66352453 112.852522,1.31836106 C112.853557,0.999748629 113.230435,0.680115002 113.552438,0.680115002 Z M120.768,8.24920268 C120.228567,8.93952962 119.501731,9.40417275 118.479811,9.40417275 C117.50966,9.40417275 116.877043,9.08453913 116.42044,8.5545396 C115.975227,8.05006991 115.787823,7.33421313 115.787823,6.58976293 C115.787823,4.57086299 117.310867,3.46899499 118.481881,3.46899499 C120.352813,3.46899499 120.756611,4.66379161 120.756611,5.77995632 C120.756611,5.92700822 120.661356,6.00564013 120.499837,6.00564013 L116.918458,5.98011029 C116.918458,6.75009034 117.079977,7.36076417 117.349176,7.79885626 C117.766434,8.47488649 118.331751,8.75469356 118.817344,8.75469356 C119.598021,8.75469356 119.988359,8.54330647 120.485341,8.03883678 C120.646861,8.04904872 120.72762,8.11542631 120.768,8.24920268 Z M119.395086,5.48687373 C119.543146,5.48483135 119.596985,5.42253853 119.596985,5.30101648 C119.596985,4.18587296 118.990253,3.90708708 118.479811,3.90708708 C118.155737,3.90708708 117.212506,4.02656675 116.957802,5.52670029 L119.395086,5.48687373 Z" id="wikipedia-tagline-bar" fill="#000000" fill-rule="nonzero"></path>
    </g>
</svg>