<svg viewBox="0 0 115 13" xmlns="http://www.w3.org/2000/svg"><path d="M6.21 9.1c.182-.65.377-1.51.481-2.17a.598.598 0 0 0-.455-.065c-.26.936-.715 1.7-1.7 1.7h-1.51c-.546 0-.728-.208-.728-.819v-2.87h1.18c1.1 0 1.14.299 1.18.884.078.078.351.078.429 0a28.075 28.075 0 0 1-.026-1.14c0-.364.013-.806.026-1.12-.078-.078-.351-.078-.429 0-.039.715-.078.884-1.18.884h-1.18v-2.34c0-.572.156-.832.858-.832h.975c.975 0 1.18.52 1.47 1.42a.724.724 0 0 0 .429-.065 44.05 44.05 0 0 0-.286-1.88c0-.026-.013-.039-.052-.039A2.92 2.92 0 0 1 5.055.7h-3.32C1.339.7.575.687.055.674c-.078.078-.078.351 0 .429.91.039 1.13.104 1.13 1.18v5.21c0 1.08-.221 1.14-1.13 1.18-.078.078-.078.351 0 .429.481-.013 1.26-.026 1.69-.026h2.8c.624 0 1.66.026 1.66.026zm8.18 0c.065-.078.065-.351 0-.429-.728-.065-.871-.117-.871-1.18v-1.94c0-.715-.052-1.34-.351-1.74-.221-.286-.624-.442-1.08-.442-.637 0-1.36.169-2.13 1.05-.08.091-.152.122-.156 0-.013-.351-.043-.854-.104-.988-.027-.06-.052-.104-.156-.104-.364.143-.702.26-1.6.377-.026.078 0 .286.026.364.702.065.845.13.845.884v2.54c0 1.07-.13 1.12-.91 1.18-.078.078-.078.351 0 .429a35.933 35.933 0 0 1 2.73 0c.078-.078.078-.351 0-.429-.663-.065-.793-.117-.793-1.18v-2.13c0-.273.117-.429.221-.546.494-.481 1.08-.767 1.59-.767.26 0 .533.169.689.468.13.26.156.611.156 1v1.98c0 1.07-.13 1.12-.806 1.18-.065.078-.065.351 0 .429.39-.013.806-.026 1.33-.026s.988.013 1.38.026zm2.88.104c.598 0 1.25-.286 1.76-.858-.026-.134-.104-.208-.234-.221-.338.26-.728.364-1.07.364-.351 0-.429-.39-.429-1.2v-3.29h1.35c.13 0 .312-.052.312-.169v-.26c0-.052-.039-.078-.104-.078h-1.56v-.507c0-.845.052-1.36.052-1.36 0-.083-.039-.114-.1-.114-.058 0-.169.05-.29.117-.147.082-.28.138-.442.183-.156.044-.286.088-.286.178v.037c.007.11.039.159.039 1.47h-.598c-.182 0-.234.157-.234.26v.17c0 .065.013.078.065.078h.767v3.91c0 .923.403 1.29 1 1.29zm7.29-.091c.156-.442.325-1.12.416-1.77a.862.862 0 0 0-.39-.078l-.182.377c-.332.686-.597.972-1.27.988h-1.73c.962-1.22 2.31-3.26 3.12-4.59.199-.328.234-.429.234-.481s-.065-.091-.156-.091c-.058 0-.352.02-.681.025l-2.5.001c-.417 0-.578-.06-.767-.13-.031 0-.078.047-.078.078-.013.585-.078 1.04-.195 1.68a.743.743 0 0 0 .429.039c.26-.949.663-1.17 1.05-1.18l1.66-.039c-.884 1.48-2.18 3.35-3.2 4.72-.112.151-.117.195-.117.26 0 .091.104.156.299.156l4.06.039zm2.97-7.15c.364 0 .676-.35.676-.624 0-.312-.273-.676-.624-.676-.312 0-.676.312-.676.624 0 .338.312.676.624.676zm1.5 7.14c.078-.078.078-.351 0-.429-.793-.052-.936-.104-.936-1.18v-2.59c0-.646.052-1.48.052-1.48 0-.052-.065-.091-.169-.091-.37.143-.884.26-1.78.377-.026.078 0 .286.026.364.708.066.845.143.845.884v2.54c0 1.08-.143 1.12-.936 1.18-.078.078-.078.351 0 .429.429-.013.936-.026 1.46-.026s1.01.013 1.44.026zm7.27 0c.078-.078.078-.351 0-.429-.442-.052-.771-.109-1.12-.546l-1.72-2.16c-.047-.059-.091-.117-.091-.182 0-.052 0-.078.052-.13l1.14-1.18c.39-.416.845-.52 1.36-.572.078-.078.078-.351 0-.429-.299.013-.663.026-1.13.026-.494 0-.975-.013-1.27-.026-.078.078-.078.351 0 .429.728.052.42.511.299.663-.299.377-.706.819-1.04 1.07-.289.213-.638.367-.884.4v-4.53c0-.845.052-1.37.052-1.37 0-.091-.052-.13-.169-.13-.325.13-1.3.312-1.82.351-.026.104 0 .312.078.39.676.039.832-.026.832 1.07v5.68c0 1.08-.143 1.13-.871 1.18-.078.078-.078.351 0 .429.429-.013.871-.026 1.39-.026.455 0 .884.013 1.18.026.078-.078.078-.351 0-.429-.533-.052-.676-.104-.676-1.18v-1.13c.25.006.433.026.559.07.143.098.261.214.416.422l.949 1.27c.382.514.529.758.546.91.004.04.013.065.052.065.26-.013.546-.026.806-.026.403 0 .806.013 1.07.026zm3.82 0c.078-.078.078-.351 0-.429-.793-.039-.936-.104-.936-1.18v-5.99c0-.845.052-1.36.052-1.36 0-.091-.052-.13-.169-.13-.325.13-1.3.312-1.82.351-.026.104 0 .312.078.39.754.052.832.091.832 1.07v5.68c0 1.08-.143 1.14-.936 1.18-.078.078-.078.351 0 .429.455-.013.936-.026 1.46-.026s1.01.013 1.44.026zm4 .104c.837 0 1.47-.295 1.91-.728.582-.569.846-1.39.846-2.18 0-1.35-.741-2.92-2.73-2.92-.855 0-1.56.351-2.04.91-.472.554-.719 1.31-.719 2.13 0 1.33.884 2.8 2.73 2.8zm.182-.455c-1.35 0-1.79-1.64-1.79-2.64 0-1.13.273-2.29 1.44-2.29 1.12 0 1.81 1.01 1.81 2.89 0 1.64-.845 2.04-1.46 2.04zm6.74 3.37c.078-.078.078-.351 0-.429-.923-.052-1.07-.104-1.07-1.18v-1.4c0-.169.05-.152.182-.098.318.13.72.202 1.13.202.728 0 1.38-.22 1.91-.728.611-.598.962-1.4.962-2.46 0-1.38-.975-2.65-2.3-2.65-.604 0-1.27.396-1.78.975-.073.082-.136.073-.143-.052-.02-.39-.043-.724-.104-.858-.027-.06-.052-.104-.156-.104-.364.143-.702.26-1.6.377-.026.078 0 .286.026.364.702.065.845.13.845.884v5.55c0 1.08-.143 1.14-.936 1.18-.078.078-.078.351 0 .43.455-.014.936-.027 1.46-.027s1.14.013 1.57.026zm.169-3.35c-.234 0-.689-.065-.923-.274-.261-.234-.312-.309-.312-.779v-2.37c0-.273.057-.386.208-.572.338-.416.933-.806 1.31-.806.832 0 1.55.936 1.55 2.4 0 1.07-.377 2.39-1.83 2.39zm7.12.442c.988 0 1.69-.455 2.21-1.13-.039-.13-.117-.195-.273-.208-.481.494-.858.702-1.61.702-.468 0-1.01-.273-1.42-.936-.26-.429-.416-1.03-.416-1.78l3.46.026c.156 0 .247-.078.247-.221 0-1.09-.39-2.26-2.2-2.26-1.13 0-2.6 1.08-2.6 3.06 0 .728.182 1.43.611 1.92.442.52 1.05.832 1.99.832zm-1.47-3.8c.247-1.47 1.16-1.59 1.47-1.59.494 0 1.08.273 1.08 1.36 0 .117-.052.179-.195.182l-2.35.039zm9.72 3.8c.286-.234.741-.429 1.53-.52.078-.078.078-.273 0-.351-.832-.065-.949-.312-.949-.949v-5.89c0-.845.052-1.36.052-1.36 0-.091-.052-.13-.169-.13-.325.13-1.3.312-1.82.351-.026.104 0 .312.078.39.676.039.832-.026.832 1.07v1.66c0 .091-.026.117-.117.117-.052 0-.585-.221-1.01-.221-.858 0-1.43.286-1.95.78-.559.559-.897 1.33-.897 2.29 0 1.6.806 2.77 2.21 2.77.507 0 .988-.26 1.62-.784.062-.05.186-.074.195.017.033.318.143.767.143.767a.296.296 0 0 0 .247 0zm-1.87-.611c-.702 0-1.43-.767-1.43-2.39 0-.936.182-1.46.377-1.73.403-.611.949-.65 1.21-.65.468 0 .793.169 1.05.468.182.208.221.299.221.702v2.47c0 .247-.025.348-.208.507-.481.416-.897.624-1.22.624zm5.82-6.63c.364 0 .676-.35.676-.624 0-.312-.273-.676-.624-.676-.312 0-.676.312-.676.624 0 .338.312.676.624.676zm1.5 7.14c.078-.078.078-.351 0-.429-.793-.052-.936-.104-.936-1.18v-2.59c0-.646.052-1.48.052-1.48 0-.052-.065-.091-.169-.091-.37.143-.884.26-1.78.377-.026.078 0 .286.026.364.708.066.845.143.845.884v2.54c0 1.08-.143 1.12-.936 1.18-.078.078-.078.351 0 .429.429-.013.936-.026 1.46-.026s1.01.013 1.44.026zm5.41.104c.498 0 .966-.221 1.24-.481-.022-.16-.074-.269-.221-.351-.098.08-.316.208-.481.208-.35 0-.386-.437-.39-.978v-2.04c0-1.85-1.01-2.2-1.96-2.2-1.07 0-2.14.702-2.14 1.44 0 .312.156.468.455.468.377 0 .61-.273.61-.442a.584.584 0 0 0-.038-.234.899.899 0 0 1-.026-.26c0-.403.546-.546 1.04-.546.442 0 1.05.221 1.05 1.69 0 .091-.04.143-.078.156l-1.12.273c-1.25.312-2.14 1-2.14 1.88 0 1.07.728 1.4 1.64 1.4.452 0 .845-.104 1.42-.546l.26-.208h.026c.078.403.216.754.87.754zm-2.2-.533c-.65 0-.936-.52-.936-.923 0-.585.273-1.18 1.24-1.43l1.03-.273v1.72c0 .169-.078.26-.182.338-.338.273-.78.572-1.14.572zm12.4.533c.498 0 .966-.221 1.24-.481-.022-.16-.074-.269-.221-.351-.098.08-.316.208-.481.208-.35 0-.386-.437-.39-.978v-2.04c0-1.85-1.01-2.2-1.96-2.2-1.07 0-2.14.702-2.14 1.44 0 .312.156.468.455.468.377 0 .61-.273.61-.442a.584.584 0 0 0-.038-.234.899.899 0 0 1-.026-.26c0-.403.546-.546 1.04-.546.442 0 1.05.221 1.05 1.69 0 .091-.04.143-.078.156l-1.12.273c-1.25.312-2.14 1-2.14 1.88 0 1.07.728 1.4 1.64 1.4.452 0 .845-.104 1.42-.546l.26-.208h.026c.078.403.216.754.87.754zm-2.2-.533c-.65 0-.936-.52-.936-.923 0-.585.273-1.18 1.24-1.43l1.03-.273v1.72c0 .169-.078.26-.182.338-.338.273-.78.572-1.14.572zm6.44.533c.728 0 2.07-.351 2.07-1.64 0-.888-.637-1.4-1.52-1.73-.783-.29-1.3-.491-1.3-1.21 0-.533.468-.832.91-.832.286 0 1.04.104 1.21 1.21.078.078.338.065.416-.013.039-.468.065-.949.078-1.38-.403-.065-1.03-.247-1.7-.247-.962 0-1.83.624-1.83 1.46 0 .949.429 1.35 1.43 1.77 1.08.442 1.33.715 1.33 1.27 0 .637-.624.91-1.1.91-.507 0-.789-.173-.923-.312-.286-.299-.429-.871-.507-1.2-.078-.078-.325-.065-.403.013.052.637.091 1.25.091 1.79.13-.026.26-.039.325-.039.091 0 .169 0 .26.026.351.091.702.143 1.18.143zm9.63-.104c.078-.078.078-.351 0-.429-.442-.052-.771-.109-1.12-.546l-1.72-2.16c-.047-.059-.091-.117-.091-.182 0-.052 0-.078.052-.13l1.14-1.18c.39-.416.845-.52 1.36-.572.078-.078.078-.351 0-.429-.299.013-.663.026-1.13.026-.494 0-.975-.013-1.27-.026-.078.078-.078.351 0 .429.728.052.42.511.299.663-.299.377-.706.819-1.04 1.07-.289.213-.638.367-.884.4v-4.53c0-.845.052-1.37.052-1.37 0-.091-.052-.13-.169-.13-.325.13-1.3.312-1.82.351-.026.104 0 .312.078.39.676.039.832-.026.832 1.07v5.68c0 1.08-.143 1.13-.871 1.18-.078.078-.078.351 0 .429.429-.013.871-.026 1.39-.026.455 0 .884.013 1.18.026.078-.078.078-.351 0-.429-.533-.052-.676-.104-.676-1.18v-1.13c.25.006.433.026.559.07.143.098.261.214.416.422l.949 1.27c.382.514.529.758.546.91.004.04.013.065.052.065.26-.013.546-.026.806-.026.403 0 .806.013 1.07.026zm3.7.104c.988 0 1.69-.455 2.21-1.13-.039-.13-.117-.195-.273-.208-.481.494-.858.702-1.61.702-.468 0-1.01-.273-1.42-.936-.26-.429-.416-1.03-.416-1.78l3.46.026c.156 0 .247-.078.247-.221 0-1.09-.39-2.26-2.2-2.26-1.13 0-2.6 1.08-2.6 3.06 0 .728.182 1.43.611 1.92.442.52 1.05.832 1.99.832zm-1.47-3.8c.247-1.47 1.16-1.59 1.47-1.59.494 0 1.08.273 1.08 1.36 0 .117-.052.179-.195.182l-2.35.039zm9.38 3.8c.498 0 .966-.221 1.24-.481-.022-.16-.074-.269-.221-.351-.098.08-.316.208-.481.208-.35 0-.386-.437-.39-.978v-2.04c0-1.85-1.01-2.2-1.96-2.2-1.07 0-2.14.702-2.14 1.44 0 .312.156.468.455.468.377 0 .61-.273.61-.442a.584.584 0 0 0-.038-.234.899.899 0 0 1-.026-.26c0-.403.546-.546 1.04-.546.442 0 1.05.221 1.05 1.69 0 .091-.04.143-.078.156l-1.12.273c-1.25.312-2.14 1-2.14 1.88 0 1.07.728 1.4 1.64 1.4.452 0 .845-.104 1.42-.546l.26-.208h.026c.078.403.216.754.87.754zm-2.2-.533c-.65 0-.936-.52-.936-.923 0-.585.273-1.18 1.24-1.43l1.03-.273v1.72c0 .169-.078.26-.182.338-.338.273-.78.572-1.14.572z" fill="#000" fill-rule="nonzero"/></svg>