<svg xmlns="http://www.w3.org/2000/svg" width="120" height="10"><path fill="#000" fill-rule="nonzero" d="M4.845 9.128h-.6a.853.853 0 0 0-.08-.345 1.163 1.163 0 0 0-.248-.349c-.11-.109-.25-.208-.42-.298a2.288 2.288 0 0 0-.61-.206 5.87 5.87 0 0 0-.387-.071 2.6 2.6 0 0 0-.31-.021c-.104 0-.198.007-.282.02a.876.876 0 0 0-.244.089 1.396 1.396 0 0 0-.235.18c-.079.079-.165.18-.26.303l-.526-.55c.076-.076.151-.143.227-.202.078-.056.162-.105.252-.147.09-.04.19-.072.298-.097.112-.025.24-.045.383-.059-.137-.084-.278-.17-.42-.26a4.76 4.76 0 0 1-.416-.303 3.282 3.282 0 0 1-.374-.366 2.254 2.254 0 0 1-.311-.466 2.701 2.701 0 0 1-.206-.6A3.559 3.559 0 0 1 0 4.61c0-.26.042-.508.126-.744.084-.238.207-.445.37-.622.165-.18.367-.32.605-.424a2 2 0 0 1 .824-.16c.16 0 .292.014.399.042a.995.995 0 0 1 .517.294c.07.07.146.152.227.244.196-.185.402-.328.618-.429.215-.1.453-.15.714-.15.28 0 .534.047.76.142.227.095.42.235.58.42.163.182.288.406.375.673.09.266.134.57.134.912 0 .31-.043.59-.13.84-.087.25-.21.46-.37.635-.157.17-.347.302-.572.395a1.902 1.902 0 0 1-.74.138c-.282 0-.544-.052-.785-.155a2.005 2.005 0 0 1-.618-.425 1.992 1.992 0 0 1-.407-.617 1.953 1.953 0 0 1-.143-.74c0-.157.005-.3.016-.429.012-.131.031-.253.06-.365a1.653 1.653 0 0 1 .327-.635 1.628 1.628 0 0 0-.206-.13.991.991 0 0 0-.21-.08 1.238 1.238 0 0 0-.244-.038 3.649 3.649 0 0 0-.323-.013.915.915 0 0 0-.471.11.726.726 0 0 0-.29.31c-.07.138-.119.309-.147.513a5.792 5.792 0 0 0-.038.702c0 .283.04.542.118.778.078.235.19.45.336.643.148.19.33.362.542.517.213.154.455.292.727.416.177.08.353.155.53.222.176.07.344.143.504.219.16.075.308.157.445.244.138.09.257.193.358.31.1.118.179.254.235.408.059.157.09.34.092.546m.408-4.219v-.382c0-.2-.01-.38-.03-.542a1.22 1.22 0 0 0-.121-.425.662.662 0 0 0-.26-.273.868.868 0 0 0-.442-.097c-.199 0-.363.026-.492.076a.612.612 0 0 0-.307.265 1.435 1.435 0 0 0-.155.508c-.028.213-.042.48-.042.803 0 .272.015.501.046.69.031.184.084.334.16.449a.647.647 0 0 0 .302.244c.13.05.292.075.488.075.185 0 .332-.02.441-.063a.52.52 0 0 0 .26-.223c.062-.106.103-.249.123-.428.02-.18.029-.405.029-.677m6.921 2.202c0 .286-.039.554-.117.803-.076.252-.19.47-.345.656-.151.185-.34.33-.567.437-.224.109-.485.164-.782.164h-.45c-.126 0-.259-.02-.399-.06a2.236 2.236 0 0 1-.807-.437 2.002 2.002 0 0 1-.332-.356 1.807 1.807 0 0 1-.23-.437 1.488 1.488 0 0 1-.085-.505c0-.745.434-1.196 1.303-1.353l.105.256a.984.984 0 0 0-.197.206 1.13 1.13 0 0 0-.143.265 1.82 1.82 0 0 0-.084.349c-.02.129-.03.279-.03.45a1.295 1.295 0 0 0 .252.773.827.827 0 0 0 .672.328h.404a.8.8 0 0 0 .618-.27.932.932 0 0 0 .168-.272c.042-.101.074-.206.097-.316a2.18 2.18 0 0 0 .042-.323c.008-.104.012-.198.012-.282V3.774a.992.992 0 0 0-.046-.328.48.48 0 0 0-.122-.206.407.407 0 0 0-.176-.105.76.76 0 0 0-.215-.03.561.561 0 0 0-.319.08.613.613 0 0 0-.177.185.637.637 0 0 0-.075.206c-.009.065-.013.111-.013.139v.605c0 .048.002.105.004.172.006.065.014.132.026.202.01.067.026.133.046.198.02.064.045.119.076.164v.184h-.866v-.176a.574.574 0 0 0 .071-.168 1.17 1.17 0 0 0 .042-.202c.012-.07.019-.137.021-.202a4.44 4.44 0 0 0 .005-.176l-.005-.588a.939.939 0 0 0-.1-.454c-.065-.112-.176-.168-.333-.168a.45.45 0 0 0-.319.113.8.8 0 0 0-.189.349 3.691 3.691 0 0 1-.147.408c-.048.114-.102.21-.164.285a.587.587 0 0 1-.202.164.647.647 0 0 1-.264.05 1.02 1.02 0 0 1-.353-.062.836.836 0 0 1-.307-.198 1.082 1.082 0 0 1-.215-.357 1.55 1.55 0 0 1-.08-.53l.009-.559h.748l-.118.807c0 .177.027.306.08.387.053.081.135.122.244.122a.27.27 0 0 0 .21-.101c.059-.07.118-.193.177-.37.058-.176.12-.325.184-.445.068-.124.136-.223.206-.299a.677.677 0 0 1 .219-.164.675.675 0 0 1 .714.134c.138.121.238.298.303.53.045-.14.098-.255.16-.344a.77.77 0 0 1 .483-.336c.1-.023.214-.034.34-.034.194 0 .371.027.534.08.162.05.303.136.42.256.118.12.21.28.278.48.067.198.1.445.1.739v2.9m5.85 2.017h-.6a.853.853 0 0 0-.08-.345 1.163 1.163 0 0 0-.249-.349c-.109-.109-.249-.208-.42-.298a2.288 2.288 0 0 0-.61-.206 5.87 5.87 0 0 0-.386-.071 2.6 2.6 0 0 0-.31-.021c-.104 0-.198.007-.282.02a.876.876 0 0 0-.244.089 1.396 1.396 0 0 0-.235.18c-.079.079-.166.18-.261.303l-.525-.55c.075-.076.151-.143.227-.202.078-.056.162-.105.252-.147.09-.04.189-.072.298-.097.112-.025.24-.045.383-.059-.138-.084-.278-.17-.42-.26a4.76 4.76 0 0 1-.417-.303 3.282 3.282 0 0 1-.374-.365 2.254 2.254 0 0 1-.31-.467 2.701 2.701 0 0 1-.207-.6 3.559 3.559 0 0 1-.075-.77c0-.26.042-.508.126-.744.084-.238.207-.445.37-.622.165-.179.367-.32.605-.424a2 2 0 0 1 .823-.16c.16 0 .293.014.4.042a.995.995 0 0 1 .517.294c.07.07.145.152.227.244.196-.185.402-.328.617-.429.216-.1.454-.15.715-.15.28 0 .533.047.76.142.227.095.42.235.58.42.163.182.287.407.374.673.09.266.135.57.135.912 0 .31-.044.59-.13.84-.087.25-.21.461-.37.635-.157.17-.348.302-.572.395a1.902 1.902 0 0 1-.74.138c-.282 0-.544-.051-.785-.155a2.005 2.005 0 0 1-.618-.425 1.992 1.992 0 0 1-.408-.617 1.953 1.953 0 0 1-.143-.74c0-.157.006-.3.017-.429a2.32 2.32 0 0 1 .059-.365 1.653 1.653 0 0 1 .328-.635 1.628 1.628 0 0 0-.206-.13.991.991 0 0 0-.21-.08 1.238 1.238 0 0 0-.244-.038 3.649 3.649 0 0 0-.324-.012.915.915 0 0 0-.47.109.727.727 0 0 0-.29.31c-.07.138-.12.309-.147.513a5.791 5.791 0 0 0-.038.702c0 .283.04.542.118.778.078.235.19.45.336.643.148.19.329.363.542.517.213.154.455.292.727.416.176.08.353.155.53.222.176.07.344.143.504.219.16.076.308.157.445.244.137.09.257.193.357.31.101.118.18.254.236.408.059.157.09.34.092.547m.408-4.22v-.382c0-.199-.01-.38-.03-.542a1.22 1.22 0 0 0-.121-.425.662.662 0 0 0-.261-.273.868.868 0 0 0-.441-.096c-.2 0-.363.025-.492.075a.612.612 0 0 0-.307.265 1.435 1.435 0 0 0-.155.508c-.028.213-.042.48-.042.803 0 .272.015.502.046.69.03.184.084.334.16.449a.647.647 0 0 0 .302.244c.13.05.292.075.488.075.185 0 .332-.02.441-.063a.52.52 0 0 0 .26-.223c.062-.106.103-.249.122-.428.02-.18.03-.405.03-.677m5.816-.067c0 .499-.086.953-.256 1.362-.169.406-.422.75-.761 1.03h-.521V6.87c.092-.025.176-.06.252-.105a.59.59 0 0 0 .202-.219c.056-.098.1-.228.13-.39.034-.166.05-.379.05-.64v-.57c0-.348-.015-.634-.046-.858a1.39 1.39 0 0 0-.16-.538.61.61 0 0 0-.327-.277 1.5 1.5 0 0 0-.534-.08c-.19 0-.349.02-.475.063a.533.533 0 0 0-.298.248c-.073.126-.125.305-.156.538-.028.232-.042.54-.042.924v.467c0 .26.01.476.03.647.02.17.052.31.096.42.048.107.11.188.185.244a.792.792 0 0 0 .278.126v.361h-.572a2.958 2.958 0 0 1-.719-1.03 3.464 3.464 0 0 1-.247-1.34c0-.325.044-.622.134-.89.092-.272.221-.505.387-.698.168-.196.37-.348.605-.454.238-.11.503-.164.794-.164.297 0 .566.053.807.16.244.103.45.25.622.44.174.191.307.421.4.69.094.269.142.567.142.895m4.992.441c0 .261-.047.51-.142.748a1.887 1.887 0 0 1-1.043 1.047 2.17 2.17 0 0 1-.84.155c-.213 0-.41-.03-.588-.092a1.867 1.867 0 0 1-.87-.651A2.609 2.609 0 0 1 25.479 6a2.855 2.855 0 0 1-.172-.55 3.104 3.104 0 0 1-.055-.576c0-.294.05-.569.152-.824.103-.258.243-.48.42-.668a1.921 1.921 0 0 1 1.395-.605c.123 0 .247.03.37.088.126.056.242.127.349.214.106.084.199.178.277.282.081.104.139.202.172.294V1.11a.47.47 0 0 0-.059-.248.385.385 0 0 0-.16-.147.616.616 0 0 0-.226-.071 1.587 1.587 0 0 0-.26-.021c-.102 0-.18.02-.236.059a.328.328 0 0 0-.126.168c-.025.073-.04.165-.046.277a8.086 8.086 0 0 0-.009.395v.505h-.638V1.52c0-.15-.01-.283-.03-.395a.734.734 0 0 0-.092-.277.394.394 0 0 0-.177-.168.572.572 0 0 0-.273-.059.805.805 0 0 0-.206.03.654.654 0 0 0-.193.08.477.477 0 0 0-.147.142.343.343 0 0 0-.06.202c0 .129.006.235.018.32a.986.986 0 0 0 .046.205c.022.05.049.09.08.118.033.028.073.05.117.067l-.126.324a1.187 1.187 0 0 1-.61-.45.989.989 0 0 1-.134-.273 1.194 1.194 0 0 1 .05-.756.876.876 0 0 1 .572-.487c.127-.035.254-.051.383-.051.274 0 .507.082.697.248.191.165.32.395.387.689.03-.135.083-.26.156-.374.072-.115.156-.215.252-.299.098-.084.201-.148.31-.193a.845.845 0 0 1 .333-.071c.19 0 .363.022.517.067a.84.84 0 0 1 .399.248c.11.118.193.28.252.487.062.208.092.474.092.799v3.589m-.878-.387c0-.258-.03-.485-.088-.68a1.465 1.465 0 0 0-.244-.497.97.97 0 0 0-.365-.302 1.01 1.01 0 0 0-.459-.105.96.96 0 0 0-.491.113.801.801 0 0 0-.299.32 1.472 1.472 0 0 0-.15.491 5.453 5.453 0 0 0 .004 1.374c.033.222.09.414.172.576a.95.95 0 0 0 .327.374.95.95 0 0 0 .517.13c.182 0 .34-.018.475-.054a.605.605 0 0 0 .336-.24c.09-.126.156-.307.198-.542.045-.238.067-.557.067-.958m6.926 2.214c0 .286-.04.554-.118.803-.076.252-.19.47-.345.656-.15.185-.34.33-.567.437-.224.109-.485.164-.782.164h-.45c-.125 0-.258-.02-.398-.06a2.236 2.236 0 0 1-.807-.437 2.002 2.002 0 0 1-.332-.356 1.807 1.807 0 0 1-.231-.437 1.488 1.488 0 0 1-.084-.505c0-.745.434-1.196 1.302-1.353l.105.256a.984.984 0 0 0-.197.206 1.13 1.13 0 0 0-.143.265 1.82 1.82 0 0 0-.084.349c-.02.129-.03.279-.03.45a1.295 1.295 0 0 0 .253.773.827.827 0 0 0 .672.328h.403a.8.8 0 0 0 .618-.27.932.932 0 0 0 .168-.272c.042-.101.075-.206.097-.316a2.18 2.18 0 0 0 .042-.323c.008-.104.013-.198.013-.282V3.774a.992.992 0 0 0-.047-.328.48.48 0 0 0-.122-.206.407.407 0 0 0-.176-.105.76.76 0 0 0-.214-.03.561.561 0 0 0-.32.08.613.613 0 0 0-.176.185.637.637 0 0 0-.076.206c-.008.065-.012.111-.012.139v.605c0 .048 0 .105.004.172.005.065.014.132.025.202.011.067.026.133.046.198.02.064.045.119.076.164v.184h-.866v-.176a.574.574 0 0 0 .071-.168 1.17 1.17 0 0 0 .043-.202c.01-.07.018-.137.02-.202a4.44 4.44 0 0 0 .005-.176l-.004-.588a.939.939 0 0 0-.101-.454c-.065-.112-.175-.168-.332-.168a.45.45 0 0 0-.32.113.8.8 0 0 0-.189.349 3.692 3.692 0 0 1-.147.408c-.048.114-.102.21-.164.285a.587.587 0 0 1-.202.164.647.647 0 0 1-.264.05 1.02 1.02 0 0 1-.353-.062.836.836 0 0 1-.307-.198 1.082 1.082 0 0 1-.214-.357 1.55 1.55 0 0 1-.08-.53l.008-.559h.748l-.117.807c0 .177.026.306.08.387.053.081.134.122.243.122a.27.27 0 0 0 .21-.101c.06-.07.118-.193.177-.37.059-.176.12-.325.185-.445.067-.124.136-.223.206-.299a.677.677 0 0 1 .218-.164.675.675 0 0 1 .714.134c.138.121.239.298.303.53.045-.14.098-.255.16-.344a.77.77 0 0 1 .483-.336c.1-.023.214-.034.34-.034.194 0 .372.027.534.08.163.05.303.136.42.256.118.12.21.28.278.48.067.198.1.445.1.739v2.9m9.259-2.644a2.349 2.349 0 0 1-.652 1.643c-.123.124-.25.227-.382.311a1.873 1.873 0 0 1-.391.194 1.138 1.138 0 0 1-.349.063l-.004-.463a.501.501 0 0 0 .31-.109.898.898 0 0 0 .253-.336c.07-.149.125-.333.164-.555.04-.224.059-.486.059-.786 0-.269-.02-.484-.059-.647a.88.88 0 0 0-.164-.378.494.494 0 0 0-.26-.172 1.336 1.336 0 0 0-.35-.042c-.137 0-.257.014-.36.042a.554.554 0 0 0-.261.151.733.733 0 0 0-.156.298c-.033.124-.05.282-.05.475v.21c0 .126.017.24.05.34.034.099.087.21.16.333v.176h-1.055V5.04c.073-.12.126-.231.16-.332.036-.104.054-.217.054-.34v-.223c0-.163-.012-.307-.037-.433a.787.787 0 0 0-.13-.315.561.561 0 0 0-.249-.19 1 1 0 0 0-.395-.067.995.995 0 0 0-.386.067.586.586 0 0 0-.257.19.839.839 0 0 0-.142.315c-.028.126-.042.27-.042.433v.23c0 .124.02.236.063.337.042.098.102.207.18.328v.176h-1.08V5.04c.037-.062.069-.12.097-.173.028-.056.052-.11.071-.163a.829.829 0 0 0 .042-.164 1.22 1.22 0 0 0 .013-.181v-.214c0-.163-.017-.304-.05-.425a.675.675 0 0 0-.156-.298.638.638 0 0 0-.286-.172 1.382 1.382 0 0 0-.433-.06c-.19 0-.341.046-.453.135a.83.83 0 0 0-.257.336 1.554 1.554 0 0 0-.113.463 4.942 4.942 0 0 0-.025.491c0 .611.266 1.152.798 1.622.535.471 1.318.852 2.35 1.143.249.073.496.16.743.261.247.104.468.227.664.37.199.143.359.307.48.492.122.184.184.393.184.626h-.542a.522.522 0 0 0-.101-.307 1.233 1.233 0 0 0-.265-.26 2.574 2.574 0 0 0-.357-.22 5.912 5.912 0 0 0-.76-.303 12.292 12.292 0 0 1-.278-.083 20.69 20.69 0 0 0-.622-.185 6.387 6.387 0 0 0-.4-.1 2.12 2.12 0 0 0-.512-.05c-.151.005-.28.019-.386.041a1.24 1.24 0 0 0-.29.11c-.087.05-.174.112-.261.185a20.01 20.01 0 0 0-.298.264l-.446-.571c.112-.076.22-.142.324-.198.103-.056.209-.103.315-.143a2.27 2.27 0 0 1 .336-.084 2.2 2.2 0 0 1 .374-.038 2.107 2.107 0 0 1-.55-.23c-.171-.107-.33-.23-.48-.37a3.437 3.437 0 0 1-.403-.454 3.773 3.773 0 0 1-.302-.5 2.813 2.813 0 0 1-.194-.505 1.806 1.806 0 0 1-.067-.462c0-.4.052-.73.156-.988.103-.26.24-.466.407-.617.171-.152.364-.257.58-.316.219-.058.443-.088.672-.088.118 0 .239.017.362.05.126.034.244.089.353.165a1.165 1.165 0 0 1 .487.698c.026-.158.079-.296.16-.417a1.257 1.257 0 0 1 .983-.542 1 1 0 0 1 .337.063c.117.04.228.1.332.18a1.135 1.135 0 0 1 .437.715c.05-.16.117-.297.201-.412a1.15 1.15 0 0 1 .29-.281c.11-.076.229-.13.358-.164.128-.037.261-.055.399-.055.224 0 .44.028.647.084.21.056.396.154.559.294.162.138.291.323.386.555.099.233.148.525.148.878m4.816.374a3.5 3.5 0 0 1-.257 1.362c-.168.406-.421.75-.76 1.03h-.521V6.87c.092-.025.176-.06.252-.105a.59.59 0 0 0 .201-.219c.056-.098.1-.228.13-.39.034-.166.051-.379.051-.64v-.57c0-.348-.015-.634-.046-.858a1.39 1.39 0 0 0-.16-.538.61.61 0 0 0-.328-.277 1.5 1.5 0 0 0-.533-.08c-.19 0-.35.02-.475.063a.533.533 0 0 0-.299.248c-.072.126-.124.305-.155.538-.028.232-.042.54-.042.924v.467c0 .26.01.476.03.647.019.17.051.31.096.42.048.107.11.188.185.244a.792.792 0 0 0 .277.126v.361h-.571a2.958 2.958 0 0 1-.719-1.03 3.464 3.464 0 0 1-.248-1.34c0-.325.045-.622.135-.89.092-.272.221-.505.386-.698.168-.196.37-.348.605-.454.239-.11.503-.164.795-.164.297 0 .566.053.807.16.243.103.45.25.621.44.174.191.307.421.4.69.095.269.143.567.143.895m7.493 2.463c0 .291-.043.552-.127.781a1.53 1.53 0 0 1-.374.585 1.57 1.57 0 0 1-.609.37c-.24.086-.521.13-.84.13a2.082 2.082 0 0 1-1.48-.589 1.909 1.909 0 0 1-.412-.575 1.454 1.454 0 0 1-.084-1.068c.045-.131.103-.246.173-.344.07-.098.15-.181.24-.248a1.46 1.46 0 0 1 .554-.274c.09-.025.17-.042.244-.05l.092.286a.71.71 0 0 0-.138.147 1.171 1.171 0 0 0-.135.231c-.04.09-.073.195-.1.315-.026.118-.039.25-.039.395 0 .429.083.744.248.946.168.204.44.307.816.307.187 0 .346-.026.474-.076a.725.725 0 0 0 .32-.219.88.88 0 0 0 .18-.365c.037-.143.055-.31.055-.5V4.03c0-.176-.025-.32-.075-.429a.587.587 0 0 0-.206-.256.736.736 0 0 0-.316-.122 2.218 2.218 0 0 0-.403-.033c-.134 0-.26.016-.374.05a.847.847 0 0 0-.303.147.694.694 0 0 0-.201.252.85.85 0 0 0-.072.366.54.54 0 0 0 .105.336c.07.093.194.185.37.277l-.39.723a.858.858 0 0 1-.32-.193 1.465 1.465 0 0 1-.383-.664 1.288 1.288 0 0 1-.05-.336c0-.272.046-.502.139-.69.095-.19.221-.344.378-.462.16-.12.342-.207.546-.26a2.53 2.53 0 0 1 .639-.08c.291 0 .552.035.782.105.23.067.424.168.584.303.16.131.281.295.365.491.084.194.127.416.127.668v3.08m5.122-2.42c0 .378-.054.713-.164 1.005-.109.291-.259.536-.45.735-.187.199-.408.35-.663.454a2.144 2.144 0 0 1-.816.155c-.283 0-.54-.04-.773-.122a1.65 1.65 0 0 1-.6-.36 1.684 1.684 0 0 1-.387-.602 2.339 2.339 0 0 1-.14-.84V1.605c0-.269.029-.498.085-.689.059-.193.144-.35.256-.47.115-.124.257-.213.425-.27.17-.058.367-.088.588-.088.163 0 .301.019.416.055.118.033.223.071.315.113.093.04.178.077.257.114.08.033.164.05.248.05.095 0 .185-.01.269-.03a1.448 1.448 0 0 0 .483-.222L61.57 0l.1.122a5.918 5.918 0 0 1-.201.336c-.076.115-.16.221-.252.32a1.44 1.44 0 0 1-.303.239.695.695 0 0 1-.584.05 1.384 1.384 0 0 1-.214-.105 1.967 1.967 0 0 1-.202-.138 2.784 2.784 0 0 0-.193-.139 1.148 1.148 0 0 0-.19-.105.462.462 0 0 0-.193-.042.613.613 0 0 0-.248.046.367.367 0 0 0-.168.147.864.864 0 0 0-.097.278c-.02.112-.029.253-.029.424l-.004 2.021c.075-.109.17-.206.281-.29a2.006 2.006 0 0 1 .698-.353c.112-.03.207-.046.286-.046.26 0 .507.044.74.13.235.087.44.219.613.395.174.174.31.394.412.66.103.264.155.575.155.933m-.962.454v-.445c0-.558-.084-.963-.252-1.215a.815.815 0 0 0-.723-.382c-.163 0-.318.032-.467.096a.981.981 0 0 0-.39.303c-.112.14-.202.322-.27.546a3.001 3.001 0 0 0-.096.82c0 .353.022.637.067.853.048.213.118.377.21.491a.67.67 0 0 0 .345.232c.14.036.303.054.487.054.166 0 .316-.03.45-.088a.905.905 0 0 0 .34-.256c.096-.115.169-.257.219-.425.053-.17.08-.365.08-.584m6.816 1.874c0 .306-.068.579-.206.82-.134.244-.31.45-.53.618a2.641 2.641 0 0 1-1.563.521c-.36 0-.687-.07-.979-.21a2.177 2.177 0 0 1-.735-.576 2.637 2.637 0 0 1-.467-.857 3.276 3.276 0 0 1-.163-1.051v-.68c0-.245.015-.483.046-.715.033-.233.087-.457.16-.673.075-.218.173-.424.294-.617.123-.197.276-.377.458-.543a3.513 3.513 0 0 0-.328.106c-.095.036-.19.08-.282.134-.092.053-.189.118-.29.193a6.811 6.811 0 0 0-.344.278v-.811a2.228 2.228 0 0 0 .248.012c.095 0 .203-.006.323-.017.12-.011.24-.03.358-.059.117-.03.225-.073.323-.126.1-.056.18-.127.235-.214h.412v.445a.982.982 0 0 0-.357.362 1.834 1.834 0 0 0-.19.5 3.71 3.71 0 0 0-.075.575c-.008.202-.012.398-.012.589v1.374c0 .291.03.562.088.811.062.252.15.47.265.656.115.184.256.329.424.432.168.107.36.16.576.16.221 0 .415-.032.58-.097a1.1 1.1 0 0 0 .664-.685c.056-.16.084-.337.084-.533 0-.23-.027-.443-.08-.639a1.77 1.77 0 0 0-.214-.517 1.092 1.092 0 0 0-.328-.34.695.695 0 0 0-.4-.126h-.554v-.45h.878a.906.906 0 0 0 .294-.042.43.43 0 0 0 .206-.143.701.701 0 0 0 .118-.273c.025-.115.038-.256.038-.425a.689.689 0 0 0-.084-.34 1.3 1.3 0 0 0-.202-.282 2.441 2.441 0 0 0-.26-.247 3.763 3.763 0 0 1-.265-.248 1.674 1.674 0 0 1-.202-.274.676.676 0 0 1-.08-.327h.48a.62.62 0 0 0 .243.512c.073.056.155.107.248.152a23.688 23.688 0 0 1 .567.269.988.988 0 0 1 .248.18.842.842 0 0 1 .177.265 1.103 1.103 0 0 1 .004.74.812.812 0 0 1-.223.323c-.106.098-.25.185-.433.26-.179.074-.407.128-.685.165l.32.105c.115.036.227.082.336.138.112.054.218.12.32.198.1.078.188.175.264.29.078.112.14.246.185.403.045.157.067.34.067.55m4.778-2.369a3.5 3.5 0 0 1-.256 1.362c-.168.406-.422.75-.76 1.03h-.522V6.87c.093-.025.177-.06.252-.105a.59.59 0 0 0 .202-.219c.056-.098.1-.228.13-.39.034-.166.05-.379.05-.64v-.57c0-.348-.015-.634-.045-.858a1.39 1.39 0 0 0-.16-.538.61.61 0 0 0-.328-.277 1.5 1.5 0 0 0-.534-.08c-.19 0-.348.02-.474.063a.533.533 0 0 0-.299.248c-.073.126-.124.305-.155.538-.028.232-.042.54-.042.924v.467c0 .26.01.476.03.647.019.17.05.31.096.42.047.107.109.188.185.244a.792.792 0 0 0 .277.126v.361h-.572a2.958 2.958 0 0 1-.718-1.03 3.464 3.464 0 0 1-.248-1.34c0-.325.045-.622.134-.89.093-.272.222-.505.387-.698.168-.196.37-.348.605-.454.238-.11.503-.164.794-.164.297 0 .566.053.807.16.244.103.451.25.622.44.174.191.307.421.4.69.095.269.142.567.142.895m4.707 2.412c0 .359-.056.66-.168.904-.11.244-.258.44-.445.588-.188.152-.404.26-.648.324-.243.067-.498.1-.765.1-.137 0-.282-.015-.437-.046a2.415 2.415 0 0 1-.874-.348 1.51 1.51 0 0 1-.6-.727 1.38 1.38 0 0 1-.089-.505c0-.227.04-.416.118-.567a1.13 1.13 0 0 1 .307-.374c.123-.098.257-.17.403-.218.149-.05.291-.087.429-.11l.105.299c-.062.058-.118.12-.168.185-.05.064-.094.137-.13.218a1.318 1.318 0 0 0-.089.269c-.02.1-.03.216-.03.345 0 .224.02.404.06.542.042.14.106.248.193.323.09.076.202.126.336.152.137.028.301.042.492.042.24 0 .431-.033.571-.097a.636.636 0 0 0 .315-.29c.073-.132.118-.298.135-.5.02-.2.03-.437.03-.715v-.205c0-.146-.019-.292-.055-.438a1.76 1.76 0 0 0-.139-.399.971.971 0 0 0-.198-.286.34.34 0 0 0-.235-.109h-1.114v-.487c.11 0 .226-.014.35-.042a2.343 2.343 0 0 0 .726-.32 1.72 1.72 0 0 0 .294-.248c.087-.092.156-.189.206-.29a.723.723 0 0 0 .076-.319c0-.11-.007-.202-.021-.277a.345.345 0 0 0-.092-.19.39.39 0 0 0-.206-.109 1.55 1.55 0 0 0-.362-.033.825.825 0 0 0-.286.046.855.855 0 0 0-.273.176l-.298-.769c.056-.016.113-.03.172-.042.062-.014.12-.023.177-.03a2.176 2.176 0 0 1 .269-.02c.498 0 .878.11 1.139.328.26.218.39.52.39.903 0 .168-.039.316-.117.442-.076.126-.18.24-.311.34-.13.1-.28.195-.454.282-.171.086-.35.173-.538.26h.458c.177 0 .349.052.517.156.168.103.317.236.445.399.13.162.233.343.311.542.079.196.118.388.118.576v.37m9.187-2.787a2.349 2.349 0 0 1-.652 1.643c-.123.124-.25.227-.382.311a1.873 1.873 0 0 1-.391.194 1.138 1.138 0 0 1-.349.063l-.004-.463a.501.501 0 0 0 .31-.109.898.898 0 0 0 .253-.336c.07-.149.125-.333.164-.555.04-.224.059-.486.059-.786 0-.269-.02-.484-.059-.647a.88.88 0 0 0-.164-.378.494.494 0 0 0-.26-.172 1.336 1.336 0 0 0-.35-.042c-.137 0-.257.014-.36.042a.554.554 0 0 0-.261.151.733.733 0 0 0-.156.298c-.033.124-.05.282-.05.475v.21c0 .126.017.24.05.34.034.099.087.21.16.333v.176h-1.055V5.04c.073-.12.126-.231.16-.332a1.02 1.02 0 0 0 .054-.34v-.223c0-.163-.012-.307-.037-.433a.787.787 0 0 0-.13-.315.561.561 0 0 0-.249-.19 1 1 0 0 0-.395-.067.995.995 0 0 0-.386.067.586.586 0 0 0-.257.19.839.839 0 0 0-.142.315c-.028.126-.042.27-.042.433v.23c0 .124.02.236.063.337.042.098.102.207.18.328v.176h-1.08V5.04c.037-.062.069-.12.097-.173.028-.056.052-.11.071-.163a.829.829 0 0 0 .042-.164 1.22 1.22 0 0 0 .013-.181v-.214c0-.163-.017-.304-.05-.425a.675.675 0 0 0-.156-.298.638.638 0 0 0-.286-.172 1.382 1.382 0 0 0-.433-.06c-.19 0-.341.046-.453.135a.83.83 0 0 0-.257.336 1.554 1.554 0 0 0-.113.463 4.942 4.942 0 0 0-.025.491c0 .611.266 1.152.798 1.622.535.471 1.318.852 2.35 1.143.249.073.496.16.743.261.247.104.468.227.664.37.199.143.359.307.48.492.122.184.184.393.184.626h-.542a.522.522 0 0 0-.101-.307 1.233 1.233 0 0 0-.265-.26 2.574 2.574 0 0 0-.357-.22 5.912 5.912 0 0 0-.76-.303 12.292 12.292 0 0 1-.278-.083 20.69 20.69 0 0 0-.622-.185 6.387 6.387 0 0 0-.4-.1 2.12 2.12 0 0 0-.512-.05c-.151.005-.28.019-.386.041a1.24 1.24 0 0 0-.29.11c-.087.05-.174.112-.26.185a20.01 20.01 0 0 0-.3.264l-.445-.571c.112-.076.22-.142.324-.198.103-.056.209-.103.315-.143a2.27 2.27 0 0 1 .336-.084 2.2 2.2 0 0 1 .374-.038 2.107 2.107 0 0 1-.55-.23c-.171-.107-.33-.23-.48-.37a3.437 3.437 0 0 1-.403-.454 3.773 3.773 0 0 1-.302-.5 2.813 2.813 0 0 1-.194-.505 1.806 1.806 0 0 1-.067-.462c0-.4.052-.73.156-.988.103-.26.24-.466.407-.617.171-.152.364-.257.58-.316.219-.058.443-.088.672-.088.118 0 .239.017.362.05.126.034.244.089.353.165a1.165 1.165 0 0 1 .487.698c.026-.158.079-.296.16-.417a1.257 1.257 0 0 1 .983-.542 1 1 0 0 1 .337.063c.117.04.228.1.332.18a1.135 1.135 0 0 1 .437.715c.05-.16.117-.297.201-.412a1.15 1.15 0 0 1 .29-.281c.11-.076.229-.13.358-.164.128-.037.262-.055.399-.055.224 0 .44.028.647.084.21.056.396.154.559.294.162.138.291.323.387.555.098.233.147.525.147.878m7.102.395a2 2 0 0 1-.05.433 2.823 2.823 0 0 1-.37.895c-.087.14-.186.27-.295.387-.11.117-.227.218-.353.302-.126.084-.259.143-.399.177.151.022.276.047.374.075.098.026.185.06.26.106.076.047.149.106.22.176a6.1 6.1 0 0 1 .26.282l-.32.382a3.438 3.438 0 0 0-.298-.395 1.721 1.721 0 0 0-.286-.26 1.098 1.098 0 0 0-.294-.143 1.187 1.187 0 0 0-.32-.042v-.4c.292-.064.513-.27.665-.617.154-.348.23-.865.23-1.551 0-.205-.005-.397-.016-.576a1.457 1.457 0 0 0-.101-.47.656.656 0 0 0-.252-.316c-.115-.078-.275-.117-.48-.117-.307 0-.543.096-.705.29-.16.193-.24.473-.24.84v.286c0 .118.021.227.063.328.042.1.103.208.181.323v.177h-1.093v-.177a1.114 1.114 0 0 0 .206-.651V4.32c0-.367-.084-.647-.252-.84-.165-.194-.402-.29-.71-.29-.193 0-.347.04-.462.121a.737.737 0 0 0-.257.328c-.059.14-.096.306-.113.496-.014.19-.021.398-.021.622v.298c.003.093.004.19.004.29 0 .188.024.366.072.534.047.168.107.32.18.454.076.132.159.244.248.336.093.09.18.15.265.18v.388h-.286a2.935 2.935 0 0 1-.563-.374 2.481 2.481 0 0 1-.76-1.207 3.023 3.023 0 0 1-.11-.84c0-.311.042-.598.126-.862.084-.263.203-.49.357-.68.157-.194.346-.345.568-.454.224-.11.475-.164.752-.164.314 0 .577.088.79.265.216.173.38.44.492.798.215-.709.68-1.063 1.39-1.063.256 0 .487.056.694.168.21.112.39.268.538.466.151.197.268.43.349.698.081.269.122.56.122.874m4.912.374c0 .292-.042.56-.126.803a1.738 1.738 0 0 1-.374.63c-.162.174-.363.31-.6.408a2.139 2.139 0 0 1-.82.147c-.325 0-.615-.043-.87-.13a2.089 2.089 0 0 1-.647-.345 1.53 1.53 0 0 1-.404-.496 1.272 1.272 0 0 1-.138-.576c0-.179.028-.343.084-.491.056-.149.135-.282.24-.4.103-.12.226-.224.369-.31a2.38 2.38 0 0 1 .475-.219l.055.307a.389.389 0 0 0-.143.143.92.92 0 0 0-.08.201 1.472 1.472 0 0 0-.034.227 2.746 2.746 0 0 0 .042.76c.037.163.096.304.177.421a.87.87 0 0 0 .332.278c.14.064.314.096.521.096.227 0 .406-.033.538-.1a.684.684 0 0 0 .294-.29c.065-.124.105-.272.122-.446.017-.176.025-.37.025-.58 0-.31-.024-.577-.071-.798a1.485 1.485 0 0 0-.21-.547.841.841 0 0 0-.366-.306c-.146-.068-.32-.101-.525-.101h-.454v-.433h.798c.138 0 .251-.024.34-.072a.552.552 0 0 0 .22-.197.855.855 0 0 0 .117-.307c.022-.118.033-.246.033-.386a.714.714 0 0 0-.298-.61 1.213 1.213 0 0 0-.298-.16 9.688 9.688 0 0 0-.345-.13 7.497 7.497 0 0 1-.349-.134 1.183 1.183 0 0 1-.302-.185.9.9 0 0 1-.21-.286 1.018 1.018 0 0 1-.08-.429V.097h.512v.105c0 .1.033.182.097.244a.788.788 0 0 0 .252.155c.107.042.227.078.362.11.137.03.276.065.416.104.14.037.277.083.412.139.137.056.257.13.361.223.106.092.192.208.256.349.065.137.097.306.097.508 0 .168-.024.315-.071.441a1.104 1.104 0 0 1-.463.563 1.89 1.89 0 0 1-.651.257c-.11.022-.212.039-.307.05.227.031.441.087.643.168a1.54 1.54 0 0 1 .9.9c.092.224.14.498.147.823m4.748 2.068c0 .291-.042.552-.126.781a1.53 1.53 0 0 1-.374.585 1.57 1.57 0 0 1-.61.37c-.24.086-.52.13-.84.13a2.082 2.082 0 0 1-1.48-.589 1.909 1.909 0 0 1-.411-.575 1.455 1.455 0 0 1-.084-1.068c.045-.131.102-.246.172-.344.07-.098.15-.181.24-.248a1.46 1.46 0 0 1 .554-.274c.09-.025.171-.042.244-.05l.093.286a.71.71 0 0 0-.14.147 1.173 1.173 0 0 0-.134.231c-.039.09-.072.195-.1.315-.026.118-.038.25-.038.395 0 .429.082.744.248.946.168.204.44.307.815.307.188 0 .346-.026.475-.076a.725.725 0 0 0 .32-.219.88.88 0 0 0 .18-.365c.036-.143.055-.31.055-.5V4.03c0-.176-.026-.32-.076-.429a.587.587 0 0 0-.206-.256.736.736 0 0 0-.315-.122 2.218 2.218 0 0 0-.404-.033c-.134 0-.259.016-.374.05a.847.847 0 0 0-.302.147.694.694 0 0 0-.202.252.851.851 0 0 0-.071.366.54.54 0 0 0 .105.336c.07.093.193.185.37.277l-.391.723a.858.858 0 0 1-.32-.193 1.465 1.465 0 0 1-.382-.664 1.288 1.288 0 0 1-.05-.336c0-.272.046-.502.138-.69.095-.19.221-.344.378-.462.16-.12.342-.207.547-.26a2.53 2.53 0 0 1 .638-.08c.292 0 .552.035.782.105.23.067.425.168.584.303.16.131.282.295.366.491.084.194.126.416.126.668v3.08m5.85 1.825h-.601a.853.853 0 0 0-.08-.345 1.164 1.164 0 0 0-.248-.349c-.11-.109-.25-.208-.42-.298a2.288 2.288 0 0 0-.61-.206 5.869 5.869 0 0 0-.386-.071 2.6 2.6 0 0 0-.311-.021c-.104 0-.198.007-.282.02a.876.876 0 0 0-.244.089 1.396 1.396 0 0 0-.235.18c-.078.079-.165.18-.26.303l-.526-.55c.076-.076.152-.143.227-.202.079-.056.163-.105.252-.147.09-.04.19-.072.299-.097.112-.025.24-.045.382-.059a44.84 44.84 0 0 1-.42-.26 4.76 4.76 0 0 1-.416-.303 3.283 3.283 0 0 1-.374-.365 2.254 2.254 0 0 1-.311-.467 2.7 2.7 0 0 1-.206-.6 3.56 3.56 0 0 1-.076-.77c0-.26.042-.508.126-.744.084-.238.208-.445.37-.622.166-.179.367-.32.605-.424a2 2 0 0 1 .824-.16c.16 0 .293.014.4.042a.996.996 0 0 1 .516.294c.07.07.146.152.227.244.196-.185.402-.328.618-.429.216-.1.454-.15.714-.15.28 0 .534.047.76.142.228.095.421.235.58.42.163.182.288.407.375.673.09.266.134.57.134.912 0 .31-.043.59-.13.84-.087.25-.21.461-.37.635-.157.17-.347.302-.571.395a1.902 1.902 0 0 1-.74.138c-.283 0-.545-.051-.786-.155a2.005 2.005 0 0 1-.618-.425 1.992 1.992 0 0 1-.407-.617 1.952 1.952 0 0 1-.143-.74c0-.157.006-.3.017-.429a2.32 2.32 0 0 1 .059-.365 1.649 1.649 0 0 1 .327-.635 1.625 1.625 0 0 0-.206-.13.99.99 0 0 0-.21-.08 1.238 1.238 0 0 0-.243-.038 3.648 3.648 0 0 0-.324-.012.915.915 0 0 0-.47.109.726.726 0 0 0-.29.31 1.61 1.61 0 0 0-.148.513 5.792 5.792 0 0 0-.038.702c0 .283.04.542.118.778.079.235.19.45.336.643.149.19.33.363.542.517.213.154.456.292.727.416.177.08.353.155.53.222.176.07.345.143.504.219.16.076.308.157.446.244.137.09.256.193.357.31.1.118.18.254.235.408.059.157.09.34.093.547m.407-4.22v-.382c0-.199-.01-.38-.03-.542a1.221 1.221 0 0 0-.121-.425.663.663 0 0 0-.26-.273.868.868 0 0 0-.442-.096c-.199 0-.363.025-.491.075a.612.612 0 0 0-.307.265 1.434 1.434 0 0 0-.156.508c-.028.213-.042.48-.042.803 0 .272.016.502.046.69.031.184.084.334.16.449a.647.647 0 0 0 .303.244c.129.05.291.075.487.075.185 0 .332-.02.441-.063a.52.52 0 0 0 .261-.223c.062-.106.102-.249.122-.428.02-.18.03-.405.03-.677m5.816-.067a3.5 3.5 0 0 1-.257 1.362c-.168.406-.421.75-.76 1.03h-.522V6.87c.093-.025.177-.06.253-.105a.59.59 0 0 0 .201-.219c.056-.098.1-.228.13-.39.034-.166.051-.379.051-.64v-.57a6.49 6.49 0 0 0-.046-.858 1.39 1.39 0 0 0-.16-.538.61.61 0 0 0-.328-.277 1.5 1.5 0 0 0-.533-.08c-.191 0-.35.02-.475.063a.533.533 0 0 0-.299.248c-.073.126-.124.305-.155.538a8.07 8.07 0 0 0-.042.924v.467c0 .26.01.476.03.647.019.17.051.31.096.42.048.107.11.188.185.244a.792.792 0 0 0 .277.126v.361h-.571a2.958 2.958 0 0 1-.719-1.03 3.464 3.464 0 0 1-.248-1.34c0-.325.045-.622.135-.89.092-.272.22-.505.386-.698.168-.196.37-.348.605-.454.239-.11.503-.164.795-.164.297 0 .566.053.806.16.244.103.452.25.622.44.174.191.307.421.4.69.095.269.143.567.143.895m4.66.618c0 .303-.056.566-.168.79-.11.221-.255.405-.437.55a1.876 1.876 0 0 1-.63.328c-.236.07-.48.105-.732.105-.232 0-.455-.035-.668-.105a1.552 1.552 0 0 1-.95-.845 1.755 1.755 0 0 1-.143-.73c0-.169.014-.326.042-.471.031-.149.079-.283.143-.404.068-.123.152-.23.253-.323a1.27 1.27 0 0 1 .374-.227l.277.74a.944.944 0 0 0-.223.088.511.511 0 0 0-.16.138.567.567 0 0 0-.096.198 1.035 1.035 0 0 0-.034.281c0 .185.034.348.101.488s.155.258.265.353c.109.092.234.162.374.21.143.048.288.072.437.072.196 0 .358-.036.487-.106a.827.827 0 0 0 .315-.29c.079-.126.134-.274.164-.445.034-.174.05-.364.05-.571 0-.197-.02-.366-.062-.509a1.41 1.41 0 0 0-.408-.66 4.205 4.205 0 0 0-.269-.23l-.269-.228a1.638 1.638 0 0 1-.235-.265 1.244 1.244 0 0 1-.168-.34 1.5 1.5 0 0 1-.063-.462v-.273h.655v.264c0 .19.026.352.076.484.05.129.118.24.202.336.084.095.179.18.285.252l.324.219c.112.072.221.152.328.239a1.428 1.428 0 0 1 .487.74c.05.168.076.37.076.609"/></svg>