<svg xmlns="http://www.w3.org/2000/svg" width="146" height="20" fill="none"><path fill="#595959" d="M4.964 19.744 0 0h3.824l3.265 15.893L10.71 0h3.738l3.212 15.613L21.227 0h3.666l-5.322 19.744h-3.89l-3.326-15.11-3.58 15.11h-3.81Zm21.81 0L26.73 0h3.586l.014 19.744h-3.557Zm5.395 0V0h3.52v9.129L42.485 0h4.37l-6.976 8.688 7.547 11.056H43.16l-5.657-9.02-1.813 2.343v6.677h-3.521Zm16.53 0V0h3.521v19.744H48.7Z"/><path fill="#8C8C8C" d="M90.236 0h3.727l-.057 10.293c-.009 1.706.046 2.829.139 3.334.16.812.537 1.466 1.133 1.963.605.487 1.427.73 2.468.73 1.058 0 1.855-.23 2.393-.69.537-.469.86-1.042.969-1.719.109-.676.164-1.818.164-3.388L101.228 0h3.728l-.057 9.968c-.013 2.382-.101 4.083-.302 5.067-.201.983-.575 1.813-1.121 2.49-.537.677-1.259 1.218-2.166 1.624-.906.397-2.09.595-3.55.595-1.763 0-3.102-.216-4.017-.65-.907-.441-1.625-1.01-2.154-1.704-.528-.704-.877-1.44-1.045-2.206-.243-1.137-.365-2.834-.365-5.053L90.235 0Zm-18.71 19.744V0h3.53v19.744h-3.53ZM140.261 0c-1.964 0-3.606.404-4.746 1.416-2.534 2.248-2.708 5.544-.528 7.914 1.443 1.568 3.629 1.415 5.541 2.228.945.402 1.821 1.278 1.833 2.356.012 1.043-.32 1.807-.957 2.291-.638.485-1.543.733-2.716.726-1.655-.011-3.3-.406-4.717-1.294l-.742 2.831c.969.572 1.271.651 2.292.9 1.02.248 2.107.377 3.255.377 1.02 0 1.944-.113 2.773-.337.829-.224 1.798-.577 2.384-1.062.587-.484 1.173-.947 1.492-1.717.318-.77.574-1.541.574-2.634s-.316-2.335-1.033-3.365c-1.587-2.282-6.195-2.221-7.357-3.86-.273-.384-.423-1.025-.423-1.473 0-.72.273-1.25.916-1.688.603-.41 1.295-.575 2.188-.575 1.071 0 1.399-.02 2.1.204.701.223 1.434.375 2.071.847l.819-2.93c-.689-.522-1.023-.63-1.979-.842a14.042 14.042 0 0 0-3.04-.313Zm-33.469 0 4.949 19.744h3.748l3.812-15.465 3.159 15.465h3.902L131.649 0h-3.696l-3.412 15.877L121.31 0h-3.789l-3.615 15.941L110.675 0h-3.882ZM54.057 0v19.744h3.33V4.57l8.106 15.175h4.195V0h-3.052v14.432L58.12 0h-4.062Zm22.836 0v19.744h11.743v-3.026h-8.233v-5.79h7.59V7.981h-7.59V2.747h7.995V0H76.893Z"/></svg>