<svg xmlns="http://www.w3.org/2000/svg" width="120" height="19"><path fill="#000" fill-rule="nonzero" d="M12.578 1.25c-.073-.074-.114-.225-.123-.454 0-.228.04-.389.123-.48 1.538.036 2.559.055 3.062.055.522 0 1.346-.019 2.472-.055.091.091.137.252.137.48 0 .22-.046.371-.137.454a3.547 3.547 0 0 0-1.085.274 1.959 1.959 0 0 0-.769.632 4.74 4.74 0 0 0-.48.741c-.11.21-.252.531-.426.962L9.53 18.194c-.165.43-.39.65-.673.66-.266 0-.48-.22-.646-.66L2.664 3.804C2.26 2.769 1.922 2.1 1.648 1.799c-.266-.302-.77-.485-1.51-.55C.045 1.159 0 1.003 0 .784 0 .563.037.407.11.316 1.346.352 2.32.37 3.035.37 3.804.37 4.939.352 6.44.316c.073.091.11.252.11.48 0 .22-.037.371-.11.454-.943.1-1.501.293-1.675.576-.174.275-.092.829.247 1.662L9.488 14.94h.138L14.06 3.666c.357-.769.44-1.345.247-1.73-.183-.384-.76-.613-1.73-.686Zm11.219 7.758v6.07c0 1.125.114 1.821.343 2.086.229.257.792.417 1.689.481.092.092.137.252.137.48 0 .22-.045.367-.137.44-1.309-.037-2.353-.055-3.13-.055-.715 0-1.763.018-3.145.055-.074-.073-.11-.22-.11-.44 0-.228.036-.388.11-.48.897-.073 1.46-.238 1.689-.494.229-.257.343-.948.343-2.074v-6.07c0-1.125-.114-1.816-.343-2.073-.23-.265-.792-.43-1.69-.494-.073-.091-.11-.247-.11-.467 0-.229.037-.38.11-.453 1.465.037 2.504.055 3.118.055.677 0 1.73-.018 3.158-.055.092.073.137.224.137.453 0 .22-.045.376-.137.467-.897.073-1.46.238-1.689.494-.229.257-.343.948-.343 2.074Zm11.012 9.777c-2.023 0-3.616-.531-4.778-1.593-1.29-1.2-1.936-2.86-1.936-4.985 0-2.023.627-3.68 1.881-4.97 1.254-1.3 2.82-1.95 4.696-1.95.842 0 1.749.077 2.719.233.98.147 1.602.22 1.867.22.211.998.32 2.197.33 3.597-.247.147-.526.174-.838.083-.164-1.016-.58-1.804-1.25-2.362-.667-.558-1.555-.838-2.663-.838-2.865 0-4.298 1.904-4.298 5.713 0 1.501.407 2.842 1.222 4.023.815 1.18 1.877 1.771 3.186 1.771.915 0 1.675-.155 2.28-.466.603-.312 1.235-.852 1.894-1.62.11.036.22.118.33.246.11.12.187.225.233.316-.677.897-1.391 1.552-2.142 1.964-.75.412-1.661.618-2.733.618Zm11.562-9.777v6.07c0 1.125.115 1.821.344 2.086.229.257.792.417 1.689.481.091.092.137.252.137.48 0 .22-.046.367-.137.44-1.31-.037-2.353-.055-3.131-.055-.714 0-1.762.018-3.145.055-.073-.073-.11-.22-.11-.44 0-.228.037-.388.11-.48.898-.073 1.46-.238 1.69-.494.228-.257.343-.948.343-2.074v-6.07c0-1.125-.115-1.816-.344-2.073-.229-.265-.791-.43-1.689-.494-.073-.091-.11-.247-.11-.467 0-.229.037-.38.11-.453 1.465.037 2.504.055 3.117.055.678 0 1.73-.018 3.159-.055.091.073.137.224.137.453 0 .22-.046.376-.137.467-.897.073-1.46.238-1.69.494-.228.257-.343.948-.343 2.074Zm8.569-1.29v4.38c.522.21 1.13.315 1.826.315 1.611 0 2.417-1.043 2.417-3.13 0-1.895-.851-2.843-2.554-2.843-.66 0-1.108.096-1.346.288-.229.193-.343.522-.343.99Zm0 7.36c0 1.125.11 1.821.33 2.086.228.257.796.417 1.702.481.092.092.137.252.137.48 0 .22-.045.367-.137.44-1.236-.037-2.28-.055-3.13-.055-.861 0-1.91.018-3.145.055-.073-.073-.11-.22-.11-.44 0-.228.037-.388.11-.48.897-.073 1.455-.238 1.675-.494.229-.257.343-.948.343-2.074v-6.07c0-1.125-.114-1.816-.343-2.073-.22-.265-.778-.43-1.675-.494-.073-.091-.11-.247-.11-.467 0-.229.037-.38.11-.453 1.501.037 2.54.055 3.117.055.229 0 .687-.01 1.373-.027a65.793 65.793 0 0 1 1.607-.028c1.803 0 3.057.343 3.762 1.03.714.677 1.071 1.478 1.071 2.403 0 1.071-.398 2.069-1.194 2.994-.797.924-2.037 1.386-3.722 1.386-.677 0-1.268-.11-1.771-.33v2.074Zm14.624-2.898h-1.607v4.215c0 .467.097.792.289.975.201.184.595.275 1.18.275h1.21c1.07 0 1.871-.27 2.402-.81.531-.55.93-1.305 1.195-2.266a.992.992 0 0 1 .782.11c-.265 1.538-.544 2.833-.837 3.886-1.236-.037-2.23-.055-2.98-.055h-4.34c-.75 0-1.798.018-3.144.055-.073-.073-.11-.22-.11-.44 0-.228.037-.388.11-.48.897-.073 1.456-.238 1.676-.494.228-.257.343-.948.343-2.074v-6.07c0-1.125-.115-1.816-.343-2.073-.22-.265-.779-.43-1.676-.494-.073-.091-.11-.247-.11-.467 0-.229.037-.38.11-.453 1.346.037 2.385.055 3.117.055h5.823c.43 0 .814-.037 1.153-.11.055 0 .082.028.082.083.129.448.298 1.565.509 3.35-.248.11-.5.156-.756.137-.21-.64-.393-1.107-.549-1.4-.156-.302-.453-.563-.893-.783-.43-.229-1.011-.343-1.743-.343h-1.593c-.266 0-.485.068-.66.206-.164.137-.247.33-.247.576v3.996h1.607c.86 0 1.387-.091 1.58-.274.2-.193.32-.627.356-1.305.073-.073.202-.11.385-.11.192 0 .33.037.412.11-.037.934-.06 1.598-.07 1.991 0 .504.024 1.19.07 2.06-.074.073-.206.11-.399.11-.192 0-.325-.037-.398-.11a6.12 6.12 0 0 0-.068-.7 1.021 1.021 0 0 0-.234-.467c-.119-.165-.311-.275-.577-.33-.256-.055-.608-.082-1.057-.082Zm11.713 4.188c0 .449.137.774.412.975.284.201.925.302 1.922.302 1.648 0 2.866-.362 3.653-1.085.787-.723 1.18-2.023 1.18-3.9 0-.842-.059-1.583-.178-2.224a6.467 6.467 0 0 0-.714-1.95c-.357-.65-.91-1.153-1.661-1.51-.75-.357-1.69-.536-2.815-.536-1.2 0-1.799.293-1.799.879v9.049ZM80.151 5.575c.183 0 .668-.01 1.456-.027a99.512 99.512 0 0 1 2.279-.028c2.27 0 4.005.618 5.204 1.854 1.2 1.236 1.8 2.838 1.8 4.806 0 1.18-.193 2.206-.578 3.076-.384.86-.91 1.52-1.579 1.977a7.345 7.345 0 0 1-2.087 1.016c-.732.21-1.52.316-2.362.316-.879 0-1.757-.009-2.636-.027-.87-.019-1.36-.028-1.47-.028-.677 0-1.725.019-3.144.055-.092-.073-.137-.22-.137-.44 0-.228.045-.388.137-.48.897-.073 1.456-.238 1.675-.494.23-.256.343-.948.343-2.074V9.008c0-1.126-.114-1.817-.343-2.073-.22-.266-.778-.43-1.675-.495-.092-.091-.137-.247-.137-.467 0-.228.045-.38.137-.453 1.456.037 2.495.055 3.117.055Zm17.192 3.433v6.07c0 1.125.114 1.821.343 2.086.23.257.792.417 1.69.481.09.092.137.252.137.48 0 .22-.046.367-.138.44-1.309-.037-2.352-.055-3.13-.055-.715 0-1.763.018-3.145.055-.073-.073-.11-.22-.11-.44 0-.228.037-.388.11-.48.897-.073 1.46-.238 1.689-.494.229-.257.343-.948.343-2.074v-6.07c0-1.125-.114-1.816-.343-2.073-.229-.265-.792-.43-1.69-.494-.072-.091-.109-.247-.109-.467 0-.229.037-.38.11-.453 1.465.037 2.504.055 3.117.055.677 0 1.73-.018 3.158-.055.092.073.138.224.138.453 0 .22-.046.376-.138.467-.897.073-1.46.238-1.689.494-.229.257-.343.948-.343 2.074Zm10.656 1.538h4.97l-2.636-7.649h-.179l-2.87 7.278c-.054.147-.027.247.083.302.11.046.32.069.632.069Zm-3.049 5.74a3.467 3.467 0 0 1-.082.494c-.037.137.014.256.15.357.147.092.262.165.344.22.083.055.238.105.467.15.229.046.407.074.536.083.128.01.306.028.535.055.073.092.11.252.11.48 0 .22-.037.367-.11.44-1.391-.037-2.59-.055-3.598-.055-.695 0-1.533.018-2.512.055-.092-.073-.138-.22-.138-.44 0-.228.046-.388.138-.48.714-.055 1.277-.201 1.689-.44.411-.237.787-.76 1.126-1.565L109.99.563c.412 0 .929-.188 1.551-.563l5.795 16.093c.147.43.362.76.645.989.293.22.563.357.81.412.248.055.605.105 1.072.151.091.092.137.252.137.48 0 .22-.046.367-.137.44-1.31-.037-2.38-.055-3.213-.055-1.072 0-2.298.018-3.68.055-.074-.073-.11-.22-.11-.44 0-.228.036-.388.11-.48.164-.018.292-.027.384-.027.1-.01.224-.023.37-.042.156-.018.275-.036.358-.055.082-.018.178-.036.288-.055.12-.018.21-.04.275-.068.064-.028.132-.064.206-.11a.434.434 0 0 0 .164-.137c.028-.046.055-.101.083-.165a.498.498 0 0 0 .027-.234 1.003 1.003 0 0 0-.068-.26l-1.634-4.765h-5.933c-.338 0-.572.036-.7.11-.119.064-.215.187-.288.37l-1.552 4.079Z"/></svg>