<svg xmlns="http://www.w3.org/2000/svg" width="120" height="28"><path fill="#000" fill-rule="nonzero" d="m82.417 6.877 1.155 17.35a10.226 10.226 0 0 1-2.219 3.502l-1.485-16.597c.538-1.565 1.387-2.983 2.549-4.255Zm31.378-6.84 4.658 3.32c.722.5 1.186 1.203 1.394 2.108.122.501.171 1.339.147 2.513l-.147 10.435a14.174 14.174 0 0 1-2.586 3.08l-.275-12.397c-.024-1.48-.587-2.58-1.687-3.3l-3.796-2.513 2.292-3.246ZM3.723.238c.085.624.14.966.165 1.027.122.416.342.624.66.624h7.483c1.858 0 3.246.232 4.163.697 1.271.66 1.907 1.852 1.907 3.576v2.366l-.184 9.353c-.648 1.357-1.589 2.537-2.824 3.54l.165-12.141c.025-2.727-.788-4.09-2.439-4.09H0A19.644 19.644 0 0 1 3.723.238ZM5.08 7.19a67.961 67.961 0 0 0-.073 3.081l-.092 7.317a11.671 11.671 0 0 1-2.843 3.723l.001-.177c.006-.864.043-4.387.11-10.57A45.19 45.19 0 0 1 5.08 7.19ZM35.853 0c.061.685.14 1.137.239 1.357.146.355.415.532.807.532h6.015A9.895 9.895 0 0 1 44.93.037v1.852h3.393L46.82 5.19h-2.035v13.186c-.685.82-1.62 1.73-2.806 2.733V5.19H31.874c1.308-1.944 2.634-3.674 3.98-5.19Zm46.032.128.147 1.137c.073.416.287.624.641.624H94.65c.917 0 1.632.391 2.146 1.174.428.66.642 1.442.642 2.347 0 4.01-1.254 7.507-3.76 10.49-1.81 2.152-4.597 3.73-8.363 4.732.416-.893.978-2.183 1.688-3.87 1.736-.306 3.374-1.02 4.914-2.146 1.651-1.198 2.476-3.252 2.476-6.162 0-2.176-.623-3.264-1.87-3.264h-14.47c.954-1.993 2.231-3.68 3.833-5.062ZM55.33.238c1.797.514 3.54 1.302 5.226 2.366 1.639 1.027 2.812 2.042 3.521 3.044.282 1.614.422 3.277.422 4.989 0 1.394-.116 3.283-.348 5.667-.208.562-.88 1.803-2.018 3.722H49.094c.734-1.1 1.388-2.2 1.963-3.3h10.691c.208-1.162.312-2.305.312-3.43 0-1.968-.275-3.943-.825-5.924-1.516-1.406-3.772-2.622-6.767-3.65-.88.759-1.32 1.713-1.32 2.862 0 .733.299 1.375.898 1.925.281.257.85.63 1.705 1.12l-1.815 2.732c-1.296-.795-2.097-1.333-2.403-1.614-.819-.734-1.228-1.547-1.228-2.44 0-1.405.63-3.013 1.889-4.823C53.282 1.932 54.327.85 55.33.238ZM102.205 0l2.329 1.577c2.91 1.969 4.365 3.784 4.365 5.447 0 1.027-.477 2.286-1.43 3.778-.33.501-1.236 1.724-2.715 3.668l-2.237.678c2.151-3.227 3.227-5.508 3.227-6.84 0-1.15-1.228-2.39-3.686-3.723l-2.366-1.266c.098-.122.936-1.228 2.513-3.319ZM68.9 0l2.329 1.577c2.91 1.969 4.364 3.784 4.364 5.447 0 1.027-.476 2.286-1.43 3.778-.33.501-1.235 1.724-2.714 3.668l-2.238.678c2.152-3.227 3.228-5.508 3.228-6.84 0-1.15-1.229-2.39-3.686-3.723l-2.366-1.266c.098-.122.935-1.228 2.513-3.319ZM23.199 0l2.33 1.577c2.91 1.969 4.364 3.784 4.364 5.447 0 1.027-.477 2.286-1.43 3.778-.33.501-1.235 1.724-2.715 3.668l-2.237.678c2.152-3.227 3.228-5.508 3.228-6.84 0-1.15-1.23-2.39-3.687-3.723l-2.365-1.266c.098-.122.935-1.228 2.512-3.319Z"/></svg>