<?xml version="1.0" encoding="UTF-8"?>
<svg width="120px" height="12px" viewBox="0 0 120 12" version="1.1" xmlns="http://www.w3.org/2000/svg" xmlns:xlink="http://www.w3.org/1999/xlink">
    <title>os-tagline</title>
    <g id="Page-1" stroke="none" stroke-width="1" fill="none" fill-rule="evenodd">
        <path d="M3.22701093,8.71206051 C4.42061149,8.71206051 5.62652007,8.14602268 6.68476376,7.05086253 C6.64784825,6.940116 6.57401723,6.86628498 6.43866036,6.86628498 C5.36811149,7.82608826 4.457527,8.20754854 3.31314712,8.20754854 C1.40584763,8.20754854 0.901334704,6.27563681 1.25818369,4.47908196 C1.46737159,3.42083732 1.89805349,2.59639092 2.46409038,2.04265826 C3.23931515,1.29204287 4.01454277,0.947498107 4.65441067,0.947498107 C6.35252227,0.947498107 6.8324258,1.95652206 6.94317233,3.0147667 C7.07852921,3.06398738 7.18927574,3.02707187 7.36154812,2.95324085 C7.42307397,2.313372 7.44768431,1.72272383 7.47229465,1.04593947 C6.85703709,0.984413617 6.4017439,0.492206809 4.88820891,0.492206809 C3.84227039,0.492206809 2.88246522,0.873667085 2.03340942,1.53814628 C1.04899675,2.28876166 0.347601098,3.43314249 0.0891925233,4.71288019 C-0.304571977,6.6940126 0.581402172,8.71206051 3.22701093,8.71206051 M11.0221441,3.86382345 C11.2436372,4.15914753 11.2805527,4.54060781 11.0959751,5.51271626 C10.0131211,5.59885245 9.16406246,5.75881966 8.57341524,6.06644892 C8.08120938,6.32485749 7.6382223,6.84167464 7.53978094,7.33388145 C7.44133958,7.8506986 7.52747577,8.25676922 7.92124122,8.49056745 C8.14273428,8.65053466 8.58572136,8.71206051 9.02870654,8.71206051 C9.48399783,8.71206051 10.148478,8.52748296 10.8252614,7.94913996 C10.9975338,7.80147792 11.0713648,7.75225724 11.1451958,7.86300377 C11.3420785,8.15832785 11.7112346,8.71206051 12.8310041,8.71206051 C13.6431444,8.71206051 14.4552875,8.23215888 14.9474934,7.56767968 C14.9105779,7.50615383 14.8367469,7.38310213 14.7383055,7.37079696 C14.2830152,7.80147792 13.7908065,8.10910717 13.1263282,8.10910717 C12.2034414,8.10910717 11.6989285,7.01394702 11.9204215,5.9064817 C14.762913,5.86956619 15.427395,5.4142749 15.6242778,4.41755611 C15.710414,3.99918032 15.3289527,3.18703909 13.9261643,3.18703909 C13.2247705,3.18703909 12.5233749,3.49466834 12.0065577,4.048401 C11.7112336,3.2239546 10.7760407,3.18703909 10.4807166,3.18703909 C9.47169361,3.18703909 8.40114286,3.72846658 8.25348081,4.44216645 C8.20426013,4.68826985 8.25348081,4.99589911 8.63494109,4.99589911 C8.94257034,4.99589911 9.16406341,4.78671121 9.20097892,4.58982849 C9.21328409,4.5036923 9.22558926,4.41755611 9.21328409,4.36833543 C9.18867375,4.33141992 9.20097892,4.24528373 9.22558926,4.12223202 C9.28711511,3.76538209 9.79162804,3.5931097 10.2715287,3.5931097 C10.5299373,3.5931097 10.8744821,3.6792459 11.0221441,3.86382345 M11.0098389,5.94339722 C10.8867872,6.55865573 10.7883459,6.96472634 10.7022097,7.19852458 C10.4191908,7.69073139 9.66857539,8.19524336 9.27480994,8.19524336 C8.58572136,8.19524336 8.339617,7.80147792 8.43805837,7.2723556 C8.49958422,7.00164185 8.69646694,6.73092811 9.05331688,6.50943505 C9.47169266,6.22641613 10.1361728,6.01722824 11.0098389,5.94339722 M12.0188629,5.47580075 C12.3264922,4.42986128 12.9909723,3.5931097 13.8277229,3.5931097 C14.4183701,3.5931097 14.7629159,4.06070617 14.6767797,4.45447162 C14.5291176,5.205087 13.901552,5.45119041 12.0188629,5.47580075 M18.1406851,4.76210087 C18.5467557,4.10992685 19.223541,3.75307692 19.6419158,3.75307692 C20.3925303,3.75307692 20.7739915,4.54060781 20.4786674,6.02953341 C20.2571744,7.08777805 19.7895769,8.29368473 18.4729247,8.29368473 C18.276042,8.29368473 17.8699713,8.26907439 17.5377317,7.76456241 L18.1406851,4.76210087 M18.4360092,3.31009079 L18.4113988,3.28548045 C18.4113988,3.28548045 18.1283799,3.31009079 17.9561075,3.31009079 C17.5254275,3.31009079 16.688675,3.28548045 16.688675,3.28548045 L16.6640647,3.31009079 L16.614844,3.54388902 C16.6025388,3.60541487 16.6271491,3.64233038 16.688675,3.64233038 L16.9224732,3.66694072 C17.3162387,3.71616141 17.41468,3.86382345 17.340849,4.20836821 L16.0734165,10.5455309 C16.0118906,10.8900756 15.8027027,11.0500429 15.4335476,11.0869584 L15.1997494,11.1115687 C15.1382235,11.1238739 15.0890029,11.1484842 15.0766977,11.2100101 L15.0397822,11.4438083 L15.0520874,11.4684186 C15.0520874,11.4684186 15.901145,11.4438083 16.3318251,11.4438083 C16.8117267,11.4438083 17.6484783,11.4684186 17.6484783,11.4684186 L17.6853938,11.4438083 L17.7223093,11.2100101 C17.7346145,11.1484842 17.697699,11.1238739 17.6361731,11.1115687 L17.4023749,11.0869584 C17.0209146,11.0500429 16.9224732,10.8900756 16.9839991,10.5455309 L17.4023749,8.44134677 C17.697699,8.61361915 18.0176343,8.71206051 18.4606195,8.71206051 C19.1004874,8.71206051 19.654222,8.50287262 20.232564,8.02297098 C20.8970423,7.45693315 21.3646397,6.6940126 21.5615224,5.69729381 C21.819931,4.39294577 21.2785025,3.18703909 20.084902,3.18703909 C19.6911365,3.18703909 19.0020461,3.31009079 18.2637368,4.1714527 L18.2268213,4.1714527 L18.4360092,3.31009079 M24.2803886,3.31009079 C23.7512663,3.31009079 22.939125,3.28548045 22.939125,3.28548045 L22.9022095,3.31009079 L22.8406837,3.58080453 C22.8406837,3.63002521 22.8529888,3.64233038 22.9022095,3.64233038 L23.2713646,3.66694072 C23.7143498,3.70385624 23.7389611,3.8022976 23.6282145,4.31911475 L22.9637354,7.64151071 C22.8775992,8.07219166 22.8160724,8.20754854 22.360782,8.23215888 L21.9670166,8.25676922 C21.9301011,8.26907439 21.9054907,8.28137956 21.8931855,8.31829507 L21.8439649,8.58900881 L21.85627,8.61361915 C22.3484759,8.60131398 22.6930216,8.58900881 23.2221439,8.58900881 C23.6159084,8.58900881 23.7266559,8.60131398 24.2188627,8.61361915 L24.2311679,8.58900881 L24.2803886,8.33060024 C24.2926937,8.28137956 24.2680834,8.26907439 24.2188627,8.25676922 C23.8127921,8.21985371 23.8004869,8.08449683 23.8620128,7.78917275 L23.8620128,7.76456241 L27.0121364,4.71288019 L26.4337934,7.61690036 C26.3476572,8.04758132 26.26152,8.20754854 25.8062297,8.23215888 L25.4124642,8.25676922 C25.3755487,8.26907439 25.3509384,8.28137956 25.3386332,8.31829507 L25.2894125,8.58900881 L25.3140229,8.61361915 C25.8062287,8.60131398 26.1384693,8.58900881 26.6675916,8.58900881 C27.2213233,8.58900881 27.5904794,8.60131398 28.0826862,8.61361915 L28.0949913,8.58900881 L28.144212,8.33060024 C28.1565172,8.28137956 28.1319068,8.26907439 28.0826862,8.25676922 L27.7258362,8.23215888 C27.2951553,8.20754854 27.2582398,8.07219166 27.3566811,7.61690036 L28.0211603,4.30680958 C28.1196017,3.78999243 28.1688224,3.70385624 28.6364188,3.66694072 L29.0055739,3.64233038 C29.0547946,3.64233038 29.0917101,3.61772004 29.1040153,3.56849936 L29.153236,3.31009079 L29.1409308,3.28548045 C29.1409308,3.28548045 28.2795679,3.31009079 27.7258362,3.31009079 C27.3812915,3.31009079 26.8275588,3.28548045 26.8275588,3.28548045 L26.8029485,3.31009079 L26.7414226,3.58080453 C26.7414226,3.63002521 26.7537278,3.64233038 26.7906433,3.64233038 C27.2090181,3.6792459 27.1721036,3.88843379 27.1228829,4.18375787 L23.9727593,7.23544009 L24.5634075,4.30680958 C24.6618488,3.8022976 24.7110695,3.70385624 25.1909712,3.66694072 L25.5601263,3.64233038 C25.609347,3.64233038 25.6462625,3.61772004 25.6585676,3.56849936 L25.7077883,3.31009079 L25.683178,3.28548045 C25.683178,3.28548045 24.8218151,3.31009079 24.2803886,3.31009079 M30.6073607,5.69729381 C30.7304124,5.05742496 31.2964511,3.55619419 32.5515776,3.55619419 C33.5113799,3.55619419 33.8682308,4.72518536 33.5729067,6.20180579 C33.2652774,7.75225724 32.4285249,8.34290541 31.7640467,8.34290541 C30.7550236,8.34290541 30.2628159,7.44462798 30.6073607,5.69729381 M29.5860315,5.42658007 C29.118436,7.80147792 30.275122,8.73667085 31.4687226,8.73667085 C33.0191721,8.73667085 34.2989117,7.37079696 34.5942358,5.9064817 C34.8526444,4.57752332 34.4957926,3.15012358 32.7607654,3.15012358 C31.5917752,3.15012358 30.8288537,3.75307692 30.4350883,4.34372509 L30.3612573,4.31911475 C30.5212245,3.81460277 30.8165486,3.26087011 31.062652,2.94093568 C31.5917743,2.26415132 32.1085924,1.99343758 33.2652774,1.8580807 C34.3973521,1.735029 35.258715,1.37817906 35.6524804,0 L35.3817667,0 C35.1602736,0.59064817 34.458878,0.750615383 33.4129395,0.910582596 C32.3793061,1.07054981 31.4318061,1.66119798 30.7181072,2.63330643 C30.1028496,3.470058 29.7829143,4.45447162 29.5860315,5.42658007 M38.6360999,5.72190415 L38.3038603,7.35849179 C38.2669448,7.518459 38.1808086,7.60459519 38.0700621,7.67842622 C37.700907,7.93683479 37.2210044,8.20754854 36.8764606,8.20754854 C36.2612021,8.20754854 36.0889297,7.71534173 36.1627607,7.33388145 C36.2735072,6.78014879 36.6426633,6.22641613 37.6024656,5.98031273 L38.6360999,5.72190415 M38.1808086,7.99836064 C38.1931138,8.25676922 38.3161664,8.71206051 38.9806447,8.71206051 C39.5835971,8.71206051 40.1250255,8.21985371 40.1373307,8.15832785 C40.1496359,8.07219166 40.0634997,7.94913996 40.014279,7.94913996 C39.940448,7.94913996 39.8543118,8.14602268 39.5959032,8.14602268 C39.1160016,8.14602268 39.2021378,7.66612105 39.3128843,7.10008322 L39.6820394,5.26661285 C40.0265832,3.51927868 39.140611,3.18703909 38.2423345,3.18703909 C37.2333115,3.18703909 36.0643194,3.88843379 35.9412676,4.55291298 C35.8797418,4.84823707 36.0027935,4.98359394 36.2858124,4.98359394 C36.6426614,4.98359394 36.8764606,4.73749053 36.9010709,4.57752332 C36.9256813,4.49138713 36.9256813,4.40525094 36.9133761,4.35603026 C36.9010709,4.31911475 36.9133761,4.24528373 36.9379864,4.10992685 C37.0118175,3.72846658 37.5901605,3.5931097 38.0577569,3.5931097 C38.4761318,3.5931097 39.0175602,3.8022976 38.7345413,5.19278183 C38.7222361,5.27891802 38.6730154,5.3281387 38.6360999,5.34044387 L37.5286346,5.59885245 C36.2858134,5.89417653 35.3013988,6.54635056 35.1414316,7.38310213 C34.9445489,8.35521058 35.5598083,8.71206051 36.4211693,8.71206051 C36.9872062,8.71206051 37.2456157,8.61361915 37.8608742,8.19524336 L38.1561983,7.99836064 L38.1808086,7.99836064 M42.9432938,4.76210087 C43.3493644,4.10992685 44.0261497,3.75307692 44.4445246,3.75307692 C45.195139,3.75307692 45.5766002,4.54060781 45.2812761,6.02953341 C45.0597831,7.08777805 44.5921857,8.29368473 43.2755334,8.29368473 C43.0786507,8.29368473 42.6725801,8.26907439 42.3403405,7.76456241 L42.9432938,4.76210087 M43.2386179,3.31009079 L43.2140075,3.28548045 C43.2140075,3.28548045 42.9309886,3.31009079 42.7587162,3.31009079 C42.3280362,3.31009079 41.4912837,3.28548045 41.4912837,3.28548045 L41.4666734,3.31009079 L41.4174527,3.54388902 C41.4051475,3.60541487 41.4297579,3.64233038 41.4912837,3.64233038 L41.725082,3.66694072 C42.1188474,3.71616141 42.2172888,3.86382345 42.1434577,4.20836821 L40.8760252,10.5455309 C40.8144994,10.8900756 40.6053115,11.0500429 40.2361564,11.0869584 L40.0023581,11.1115687 C39.9408323,11.1238739 39.8916116,11.1484842 39.8793064,11.2100101 L39.8423909,11.4438083 L39.8546961,11.4684186 C39.8546961,11.4684186 40.7037538,11.4438083 41.1344338,11.4438083 C41.6143354,11.4438083 42.451087,11.4684186 42.451087,11.4684186 L42.4880025,11.4438083 L42.524918,11.2100101 C42.5372232,11.1484842 42.5003077,11.1238739 42.4387818,11.1115687 L42.2049836,11.0869584 C41.8235233,11.0500429 41.725082,10.8900756 41.7866078,10.5455309 L42.2049836,8.44134677 C42.5003077,8.61361915 42.820243,8.71206051 43.2632282,8.71206051 C43.9030961,8.71206051 44.4568307,8.50287262 45.0351727,8.02297098 C45.699651,7.45693315 46.1672484,6.6940126 46.3641311,5.69729381 C46.6225397,4.39294577 46.0811113,3.18703909 44.8875107,3.18703909 C44.4937452,3.18703909 43.8046548,3.31009079 43.0663455,4.1714527 L43.02943,4.1714527 L43.2386179,3.31009079 M49.9566644,7.57998485 C49.8336127,8.23215888 50.6088393,8.71206051 51.7286089,8.71206051 C52.9468188,8.71206051 54.3496101,7.8506986 54.7433756,5.86956619 C55.0386987,4.3806406 54.5834065,3.18703909 52.9468207,3.18703909 C52.3684777,3.18703909 51.8270493,3.38392181 51.2117917,3.42083732 C51.0764349,3.88843379 50.941077,4.30680958 50.6949746,4.89745775 L50.9902987,4.94667843 C51.3594528,4.15914753 51.8639667,3.56849936 52.7745484,3.56849936 C53.8697076,3.56849936 54.0173696,4.626744 53.7958775,5.75881966 L53.758962,5.78343 C53.4759431,5.58654728 53.1683129,5.43888524 52.8114639,5.43888524 C52.2823415,5.43888524 51.8885752,5.78343 51.4578951,5.78343 C51.2979279,5.78343 51.1625711,5.70959898 51.0764349,5.70959898 C51.0026038,5.70959898 50.9533832,5.83265068 50.941078,5.88187136 C50.9041625,6.05414375 51.4332848,6.27563681 51.9624071,6.27563681 C52.5161388,6.27563681 52.7868535,6.00492307 53.25445,6.00492307 C53.4144172,6.00492307 53.5620792,6.05414375 53.6974361,6.1156696 C53.402112,7.57998485 52.7130216,8.3059899 51.6793882,8.3059899 C51.1871814,8.3059899 50.9041625,8.01066581 50.8303315,7.67842622 C50.7195849,7.29696594 50.5965323,7.22313492 50.3873453,7.22313492 C50.1658523,7.22313492 50.0058851,7.38310213 49.9566644,7.57998485 M59.5379697,7.64151071 C59.4518335,8.10910717 59.3656964,8.20754854 58.9227112,8.23215888 L58.5904716,8.25676922 C58.5535561,8.26907439 58.5289457,8.28137956 58.5166406,8.31829507 L58.4674199,8.58900881 L58.479725,8.61361915 C58.8488792,8.60131398 59.3656973,8.58900881 59.8086834,8.58900881 C60.2639738,8.58900881 60.7069609,8.60131398 61.076116,8.61361915 L61.1007263,8.58900881 L61.149947,8.33060024 C61.1622522,8.28137956 61.1376418,8.26907439 61.0884211,8.25676922 L60.8546229,8.23215888 C60.4362471,8.19524336 60.3624161,8.13371751 60.4608575,7.64151071 L61.149947,4.24528373 C61.2483883,3.74077175 61.3345245,3.71616141 61.7652055,3.66694072 L62.0113089,3.64233038 C62.0605296,3.64233038 62.0974451,3.61772004 62.1097503,3.56849936 L62.1589709,3.31009079 L62.1466658,3.28548045 C61.7775107,3.29778562 61.3222184,3.31009079 60.8669281,3.31009079 C60.4239419,3.31009079 59.919429,3.29778562 59.5502749,3.28548045 L59.5256645,3.31009079 L59.4641387,3.58080453 C59.4641387,3.63002521 59.4764438,3.64233038 59.5133593,3.64233038 L59.8332938,3.66694072 C60.2147531,3.70385624 60.3131954,3.77768726 60.2270592,4.24528373 L59.9563455,5.56193694 L57.4337856,5.56193694 L57.7044993,4.24528373 C57.8029407,3.74077175 57.8890769,3.71616141 58.3197578,3.66694072 L58.5658612,3.64233038 C58.6150819,3.64233038 58.6519974,3.61772004 58.6643026,3.56849936 L58.7135233,3.31009079 L58.7012181,3.28548045 C58.332063,3.29778562 57.8644656,3.31009079 57.4091752,3.31009079 C56.9661891,3.31009079 56.4739814,3.29778562 56.1048272,3.28548045 L56.0802169,3.31009079 L56.018691,3.58080453 C56.018691,3.63002521 56.0309962,3.64233038 56.0679117,3.64233038 L56.3878461,3.66694072 C56.7693054,3.70385624 56.8677477,3.77768726 56.7816116,4.24528373 L56.092522,7.64151071 C56.0063858,8.10910717 55.9202487,8.20754854 55.4772635,8.23215888 L55.1450239,8.25676922 C55.1081084,8.26907439 55.0834981,8.28137956 55.0711929,8.31829507 L55.0219722,8.58900881 L55.0342774,8.61361915 C55.4034315,8.60131398 55.9079445,8.58900881 56.3509306,8.58900881 C56.806221,8.58900881 57.2615132,8.60131398 57.6306683,8.61361915 L57.6552786,8.58900881 L57.7044993,8.33060024 C57.7168045,8.28137956 57.6921942,8.26907439 57.6429735,8.25676922 L57.4091752,8.23215888 C56.9907995,8.19524336 56.9169684,8.13371751 57.0154098,7.64151071 L57.3476494,5.98031273 L59.8702093,5.98031273 L59.5379697,7.64151071 M66.9781754,4.2575889 L66.3383065,7.50615383 C66.2521703,7.92452962 66.1783384,8.10910717 65.723048,8.10910717 L64.2464276,8.10910717 C63.8157466,8.10910717 63.7788311,7.96144513 63.8772725,7.50615383 L64.5294465,4.24528373 C64.6278879,3.74077175 64.7017189,3.71616141 65.1323998,3.66694072 L65.3908084,3.64233038 C65.4400291,3.64233038 65.4769446,3.61772004 65.4892498,3.56849936 L65.5384705,3.31009079 L65.5138601,3.28548045 C65.5138601,3.28548045 64.7263283,3.31009079 64.2341224,3.31009079 C63.7173053,3.31009079 62.9174692,3.28548045 62.9174692,3.28548045 L62.905164,3.31009079 L62.8436382,3.58080453 C62.8436382,3.63002521 62.8559434,3.64233038 62.905164,3.64233038 L63.2250985,3.66694072 C63.6311691,3.70385624 63.6926949,3.77768726 63.6065587,4.24528373 L62.9174692,7.69073139 C62.8190278,8.17063302 62.7451959,8.18293819 62.3145159,8.23215888 L62.0930228,8.25676922 C62.0561073,8.26907439 62.031497,8.28137956 62.0191918,8.33060024 L61.9699711,8.58900881 L61.9945814,8.61361915 C61.9945814,8.61361915 62.7698072,8.58900881 63.1389623,8.58900881 L66.1291186,8.58900881 C67.1012261,8.58900881 67.2734995,9.57342243 67.2858046,10.1763758 L67.5934339,10.1640706 L67.8518425,8.52748296 C67.8764528,8.31829507 67.7534011,8.29368473 67.5442132,8.25676922 C67.3350253,8.21985371 67.1504478,8.02297098 67.2242788,7.65381588 L67.9010631,4.2575889 C68.0118097,3.75307692 68.0979459,3.70385624 68.5286268,3.66694072 L68.8362561,3.64233038 C68.8854768,3.64233038 68.9223923,3.61772004 68.9223923,3.58080453 L68.9839181,3.31009079 L68.9593078,3.28548045 C68.9593078,3.28548045 68.1471656,3.31009079 67.6303494,3.31009079 C67.1381426,3.31009079 66.375222,3.28548045 66.375222,3.28548045 L66.3629169,3.31009079 L66.301391,3.58080453 C66.301391,3.63002521 66.3136962,3.64233038 66.3506117,3.64233038 L66.6090203,3.66694072 C67.0150909,3.71616141 67.0766167,3.77768726 66.9781754,4.2575889 M71.1217491,3.31009079 C70.5926274,3.31009079 69.7804856,3.28548045 69.7804856,3.28548045 L69.74357,3.31009079 L69.6820444,3.58080453 C69.6820444,3.63002521 69.6943495,3.64233038 69.74357,3.64233038 L70.1127252,3.66694072 C70.5557109,3.70385624 70.5803215,3.8022976 70.4695751,4.31911475 L69.8050959,7.64151071 C69.7189598,8.07219166 69.6574331,8.20754854 69.2021427,8.23215888 L68.8083773,8.25676922 C68.7714618,8.26907439 68.7468514,8.28137956 68.7345463,8.31829507 L68.6853256,8.58900881 L68.6976308,8.61361915 C69.1898366,8.60131398 69.5343823,8.58900881 70.0635045,8.58900881 C70.4572695,8.58900881 70.5680169,8.60131398 71.0602233,8.61361915 L71.0725284,8.58900881 L71.1217491,8.33060024 C71.1340543,8.28137956 71.1094439,8.26907439 71.0602233,8.25676922 C70.6541531,8.21985371 70.6418476,8.08449683 70.7033733,7.78917275 L70.7033733,7.76456241 L73.8534969,4.71288019 L73.2751539,7.61690036 C73.1890178,8.04758132 73.102881,8.20754854 72.6475902,8.23215888 L72.2538248,8.25676922 C72.2169094,8.26907439 72.1922989,8.28137956 72.1799937,8.31829507 L72.1307731,8.58900881 L72.1553834,8.61361915 C72.6475897,8.60131398 72.9798304,8.58900881 73.5089521,8.58900881 C74.0626842,8.58900881 74.4318404,8.60131398 74.9240467,8.61361915 L74.9363519,8.58900881 L74.9855726,8.33060024 C74.9978777,8.28137956 74.9732674,8.26907439 74.9240467,8.25676922 L74.5671968,8.23215888 C74.1365163,8.20754854 74.0996004,8.07219166 74.1980417,7.61690036 L74.8625209,4.30680958 C74.9609621,3.78999243 75.0101834,3.70385624 75.4777794,3.66694072 L75.8469345,3.64233038 C75.8961552,3.64233038 75.9330707,3.61772004 75.9453758,3.56849936 L75.9945965,3.31009079 L75.9822913,3.28548045 C75.9822913,3.28548045 75.1209289,3.31009079 74.5671968,3.31009079 C74.2226524,3.31009079 73.6689193,3.28548045 73.6689193,3.28548045 L73.644309,3.31009079 L73.5827832,3.58080453 C73.5827832,3.63002521 73.5950884,3.64233038 73.6320038,3.64233038 C74.0503792,3.6792459 74.0134641,3.88843379 73.9642434,4.18375787 L70.8141199,7.23544009 L71.404768,4.30680958 C71.5032093,3.8022976 71.5524305,3.70385624 72.0323317,3.66694072 L72.4014868,3.64233038 C72.4507075,3.64233038 72.487623,3.61772004 72.4999282,3.56849936 L72.5491489,3.31009079 L72.5245385,3.28548045 C72.5245385,3.28548045 71.6631761,3.31009079 71.1217491,3.31009079 M75.7752184,8.58900881 L75.7998288,8.61361915 C75.7998288,8.61361915 76.6365808,8.58900881 77.0672613,8.58900881 C77.5471625,8.58900881 78.2608628,8.61361915 78.2608628,8.61361915 L78.2854732,8.58900881 L78.3346938,8.35521058 C78.346999,8.29368473 78.2977783,8.26907439 78.2485576,8.25676922 C77.9901494,8.21985371 77.6332992,8.14602268 77.7194353,7.73995207 L78.0639801,6.01722824 C78.9745618,6.07875409 79.1591403,6.52174022 79.2575816,7.19852458 C79.3314126,7.73995207 79.5406011,8.58900881 80.155859,8.60131398 L81.0418313,8.61361915 L81.0787468,8.58900881 L81.1279675,8.36751575 C81.1402726,8.28137956 81.0541365,8.25676922 81.0049158,8.25676922 L80.9187796,8.24446405 C80.4880991,8.18293819 80.1927744,7.11238839 80.0943332,6.64479192 C79.9589764,6.04183858 79.5652102,5.77112483 78.9007317,5.77112483 L78.9130368,5.72190415 C79.392938,5.58654728 79.7620939,5.16817149 80.0451125,4.67596468 C80.2543002,4.29450441 80.5373194,4.02379066 80.660371,4.02379066 C80.7711174,4.02379066 80.8572538,4.06070617 80.9187796,4.10992685 C80.9926105,4.1714527 81.0910522,4.22067338 81.238714,4.22067338 C81.4971223,4.22067338 81.7555312,3.99918032 81.8047518,3.75307692 C81.8539725,3.45775283 81.780141,3.19934426 81.2756295,3.19934426 C80.6849819,3.19934426 80.1558586,3.86382345 79.8113143,4.44216645 C79.405244,5.11895081 78.9745619,5.58654728 78.1501163,5.58654728 L78.4331352,4.18375787 C78.5192713,3.74077175 78.7899855,3.6792459 79.1468351,3.64233038 C79.1960557,3.64233038 79.2575816,3.58080453 79.2698868,3.51927868 L79.3191075,3.31009079 L79.2944971,3.28548045 C79.2944971,3.28548045 78.6054071,3.31009079 78.1255059,3.31009079 C77.6948255,3.31009079 76.8580734,3.28548045 76.8580734,3.28548045 L76.8334631,3.31009079 L76.7842424,3.54388902 C76.7719372,3.60541487 76.8088528,3.63002521 76.8580734,3.64233038 L77.0918716,3.66694072 C77.4733315,3.70385624 77.5717732,3.86382345 77.4979423,4.20836821 L76.7965476,7.71534173 C76.7350218,8.05988649 76.6242747,8.18293819 76.181289,8.23215888 L75.9351856,8.25676922 C75.8736599,8.26907439 75.8367443,8.29368473 75.8244391,8.35521058 L75.7752184,8.58900881 M81.4056029,8.02297098 C81.3317719,8.40443126 81.590181,8.73667085 82.1316079,8.73667085 C82.7222555,8.73667085 83.1160219,8.4290416 83.5220922,7.75225724 C83.8666365,7.16160907 84.1865715,5.9064817 84.3465386,5.06973013 C84.5434211,4.10992685 84.6418631,3.78999243 85.1094591,3.78999243 L85.6631918,3.78999243 C86.1061774,3.78999243 86.118483,3.96226481 86.0323469,4.3806406 L85.3801729,7.67842622 C85.3063419,8.03527615 85.1832897,8.18293819 84.740304,8.23215888 L84.4942006,8.25676922 C84.4326748,8.26907439 84.3957592,8.29368473 84.3834541,8.35521058 L84.3342334,8.58900881 L84.3588437,8.61361915 C84.3588437,8.61361915 85.1955958,8.58900881 85.6385814,8.58900881 C86.1184826,8.58900881 86.9552346,8.61361915 86.9552346,8.61361915 L86.979845,8.58900881 L87.0290657,8.35521058 C87.0413708,8.29368473 86.9921502,8.25676922 86.9429295,8.25676922 L86.7214364,8.23215888 C86.3276713,8.19524336 86.2292297,8.03527615 86.3030606,7.67842622 L86.9921502,4.24528373 C87.0782863,3.77768726 87.1275075,3.70385624 87.6074087,3.66694072 L87.9519534,3.64233038 C88.0257844,3.64233038 88.0627,3.61772004 88.0750051,3.55619419 L88.1242258,3.31009079 L88.0873103,3.28548045 C88.0873103,3.28548045 87.2505582,3.31009079 86.7214364,3.31009079 L84.5803368,3.31009079 C84.0881305,3.31009079 83.3129043,3.28548045 83.3129043,3.28548045 L83.2759887,3.31009079 L83.2390732,3.50697351 C83.2144629,3.61772004 83.2636838,3.63002521 83.4605663,3.64233038 C84.1496552,3.69155107 84.1496555,3.86382345 83.8912473,5.15586632 C83.632839,6.44790919 83.3990402,7.12469356 83.1406319,7.62920553 C82.8945288,8.07219166 82.6730352,8.23215888 82.4761527,8.23215888 C82.3284908,8.23215888 82.2915751,8.13371751 82.3038803,7.9737503 C82.3161855,7.75225724 82.30388,7.50615383 81.9716407,7.50615383 C81.6763169,7.50615383 81.4671286,7.75225724 81.4056029,8.02297098 M88.4312782,6.06644892 C88.1851751,7.32157628 88.7512143,8.71206051 90.4862414,8.71206051 C92.3197099,8.71206051 93.4025677,7.18621941 93.6486701,5.95570239 C93.9070787,4.67596468 93.5256165,3.18703909 91.618317,3.18703909 C89.957121,3.18703909 88.7389072,4.5036923 88.4312782,6.06644892 M91.396824,3.5931097 C92.4550677,3.5931097 92.8734444,4.54060781 92.5042893,6.34946783 C92.1843558,7.9737503 91.3722136,8.3059899 90.7938706,8.3059899 C89.5141348,8.3059899 89.3541667,6.73092811 89.5510484,5.78343 C89.7602363,4.71288019 90.3631906,3.5931097 91.396824,3.5931097 M95.7886168,4.26989407 L95.1118325,7.65381588 C95.0256963,8.08449683 94.927254,8.20754854 94.496574,8.23215888 L94.1151137,8.25676922 C94.065893,8.26907439 94.0412827,8.28137956 94.0289775,8.31829507 L93.9797568,8.58900881 L94.0043672,8.61361915 C94.0043672,8.61361915 94.8411187,8.58900881 95.3825462,8.58900881 C95.8993624,8.58900881 96.7238098,8.61361915 96.7238098,8.61361915 L96.736115,8.58900881 L96.7853356,8.33060024 C96.7976408,8.28137956 96.7730305,8.26907439 96.736115,8.25676922 L96.4161805,8.23215888 C95.9978047,8.20754854 95.9485841,8.12141234 96.0347203,7.65381588 L96.7115046,4.26989407 C96.7976399,3.83921311 97.0560494,3.78999243 97.314458,3.78999243 L98.8033836,3.78999243 C99.049486,3.78999243 99.3078946,3.81460277 99.2094542,4.26989407 L98.5326698,7.65381588 C98.4465336,8.08449683 98.3480913,8.20754854 97.9174113,8.23215888 L97.5728665,8.25676922 C97.535951,8.26907439 97.5113407,8.28137956 97.4990355,8.31829507 L97.4498148,8.58900881 L97.46212,8.61361915 C97.46212,8.61361915 98.2865664,8.58900881 98.8156887,8.58900881 C99.3448101,8.58900881 100.193868,8.61361915 100.193868,8.61361915 L100.206173,8.58900881 L100.255394,8.33060024 C100.267699,8.28137956 100.243088,8.26907439 100.193868,8.25676922 L99.8370178,8.23215888 C99.4063369,8.20754854 99.3571162,8.12141234 99.4432524,7.65381588 L100.120037,4.2575889 C100.230782,3.75307692 100.267699,3.70385624 100.7476,3.66694072 L101.116756,3.64233038 C101.165976,3.64233038 101.202892,3.61772004 101.215197,3.56849936 L101.264418,3.31009079 L101.252112,3.28548045 C101.252112,3.28548045 100.39075,3.31009079 99.8370178,3.31009079 L96.4284857,3.31009079 C95.8993634,3.31009079 95.074917,3.28548045 95.074917,3.28548045 L95.0503066,3.31009079 L94.9887808,3.58080453 C94.9887808,3.63002521 95.001086,3.64233038 95.0380015,3.64233038 L95.4071566,3.66694072 C95.8255314,3.70385624 95.8993624,3.75307692 95.7886168,4.26989407 M102.783529,5.11895081 C103.300346,3.72846658 104.186319,3.61772004 104.481642,3.61772004 C104.949239,3.61772004 105.453751,3.87612862 105.244563,4.90976292 C105.219952,5.02050945 105.158427,5.0820353 105.02307,5.0820353 L102.783529,5.11895081 M105.552192,7.44462798 C104.99846,7.91222445 104.604693,8.10910717 103.890994,8.10910717 C103.448009,8.10910717 102.980411,7.8506986 102.722003,7.22313492 C102.562036,6.8170643 102.52512,6.25102647 102.672782,5.5373266 L105.933652,5.56193694 C106.081314,5.56193694 106.179756,5.48810592 106.216671,5.35274904 C106.413554,4.31911475 106.26589,3.21164943 104.555473,3.21164943 C103.484924,3.21164943 101.897556,4.23297855 101.516096,6.10336443 C101.380739,6.79245396 101.417656,7.45693315 101.737589,7.92452962 C102.057524,8.41673643 102.574342,8.71206051 103.460313,8.71206051 C104.395505,8.71206051 105.146122,8.28137956 105.76138,7.64151071 C105.749075,7.518459 105.687549,7.45693315 105.552192,7.44462798 M106.047667,10.1640706 L106.367602,10.1763758 C106.564484,9.72108447 107.105913,8.58900881 108.139546,8.58900881 L110.132984,8.58900881 C111.154312,8.58900881 111.28967,9.67186379 111.28967,10.1640706 L111.597299,10.1640706 L111.855708,8.51517779 C111.892623,8.34290541 111.818792,8.3059899 111.597299,8.25676922 C111.400417,8.21985371 111.142008,8.10910717 111.228144,7.65381588 L111.917233,4.24528373 C111.991064,3.82690794 112.138727,3.72846658 112.594018,3.66694072 L112.803206,3.64233038 C112.840121,3.64233038 112.901647,3.60541487 112.913952,3.55619419 L112.963173,3.31009079 L112.950868,3.28548045 C112.950868,3.28548045 112.05259,3.31009079 111.64652,3.31009079 L109.308537,3.31009079 C109.09935,3.31009079 108.139546,3.28548045 108.139546,3.28548045 L108.102631,3.31009079 L108.041105,3.58080453 C108.041105,3.63002521 108.065715,3.64233038 108.114936,3.64233038 L108.447175,3.66694072 C108.865551,3.70385624 108.890162,3.94995964 108.865551,4.09762168 C108.570228,5.56193694 108.114936,6.68170743 107.684255,7.7276469 C107.548898,8.05988649 107.179743,8.21985371 106.847503,8.25676922 C106.675232,8.28137956 106.515264,8.3059899 106.453738,8.52748296 L106.047667,10.1640706 M108.05341,7.96144513 C108.102631,7.75225724 108.570228,6.90320049 109.308537,4.09762168 C109.320843,4.048401 109.43159,3.77768726 109.714608,3.77768726 L110.588275,3.77768726 C111.043566,3.77768726 111.043566,3.96226481 110.95743,4.3806406 L110.342172,7.50615383 C110.256035,7.91222445 110.182204,8.10910717 109.726913,8.10910717 L108.262598,8.10910717 C108.139546,8.10910717 108.0288,8.096802 108.05341,7.96144513 M115.127153,3.31009079 C114.598031,3.31009079 113.785889,3.28548045 113.785889,3.28548045 L113.748974,3.31009079 L113.687448,3.58080453 C113.687448,3.63002521 113.699753,3.64233038 113.748974,3.64233038 L114.118129,3.66694072 C114.561115,3.70385624 114.585725,3.8022976 114.474979,4.31911475 L113.810499,7.64151071 C113.724363,8.07219166 113.662837,8.20754854 113.207546,8.23215888 L112.813781,8.25676922 C112.776865,8.26907439 112.752255,8.28137956 112.73995,8.31829507 L112.690729,8.58900881 L112.703034,8.61361915 C113.195241,8.60131398 113.539787,8.58900881 114.068908,8.58900881 C114.462673,8.58900881 114.573421,8.60131398 115.065627,8.61361915 L115.077932,8.58900881 L115.127153,8.33060024 C115.139458,8.28137956 115.114847,8.26907439 115.065627,8.25676922 C114.659557,8.21985371 114.647251,8.08449683 114.708777,7.78917275 L114.708777,7.76456241 L117.8589,4.71288019 L117.280557,7.61690036 C117.194421,8.04758132 117.108285,8.20754854 116.652994,8.23215888 L116.259228,8.25676922 C116.222313,8.26907439 116.197702,8.28137956 116.185397,8.31829507 L116.136177,8.58900881 L116.160787,8.61361915 C116.652994,8.60131398 116.985234,8.58900881 117.514356,8.58900881 C118.068088,8.58900881 118.437244,8.60131398 118.92945,8.61361915 L118.941755,8.58900881 L118.990976,8.33060024 C119.003281,8.28137956 118.978671,8.26907439 118.92945,8.25676922 L118.5726,8.23215888 C118.14192,8.20754854 118.105004,8.07219166 118.203445,7.61690036 L118.867924,4.30680958 C118.966366,3.78999243 119.015587,3.70385624 119.483183,3.66694072 L119.852338,3.64233038 C119.901559,3.64233038 119.938474,3.61772004 119.950779,3.56849936 L120,3.31009079 L119.987695,3.28548045 C119.987695,3.28548045 119.126333,3.31009079 118.5726,3.31009079 C118.228056,3.31009079 117.674323,3.28548045 117.674323,3.28548045 L117.649712,3.31009079 L117.588187,3.58080453 C117.588187,3.63002521 117.600492,3.64233038 117.637407,3.64233038 C118.055783,3.6792459 118.018868,3.88843379 117.969647,4.18375787 L114.819523,7.23544009 L115.410172,4.30680958 C115.508613,3.8022976 115.557834,3.70385624 116.037735,3.66694072 L116.40689,3.64233038 C116.456111,3.64233038 116.493026,3.61772004 116.505332,3.56849936 L116.554552,3.31009079 L116.529942,3.28548045 C116.529942,3.28548045 115.66858,3.31009079 115.127153,3.31009079" id="os-tagline" fill="#000000" fill-rule="nonzero"></path>
    </g>
</svg>