<svg xmlns="http://www.w3.org/2000/svg" viewBox="0 0 140 26.301"><path d="M136.01 26.043v-10.18a5.604 5.604 0 0 0-1.055-3.703 3.683 3.683 0 0 0-2.996-1.246 4.39 4.39 0 0 0-3.48 1.453 6.173 6.173 0 0 0-1.274 4.195v9.477h-3.988V-.001h3.988v9.477c.66-.777 1.5-1.38 2.442-1.773a8.16 8.16 0 0 1 3.238-.613 6.75 6.75 0 0 1 5.168 2.07c1.3 1.38 1.95 3.43 1.945 6.14v10.743zm-22.75-3.512a4.632 4.632 0 0 0 2.41-.648 5.096 5.096 0 0 0 1.832-1.95l3.063 1.965a7.317 7.317 0 0 1-2.887 3.247 8.292 8.292 0 0 1-4.387 1.144 9.246 9.246 0 0 1-4.754-1.23c-1.39-.81-2.54-2-3.285-3.422-1.57-3.12-1.57-6.8 0-9.914a8.71 8.71 0 0 1 3.27-3.407 9.222 9.222 0 0 1 4.77-1.226 8.501 8.501 0 0 1 4.417 1.125c1.27.75 2.27 1.88 2.856 3.226l-3.063 1.965a5.137 5.137 0 0 0-1.832-1.949 4.7 4.7 0 0 0-2.41-.648 4.795 4.795 0 0 0-3.7 1.597 6.96 6.96 0 0 0-.019 8.528 4.81 4.81 0 0 0 3.72 1.597zm-24.406-4.457a5.16 5.16 0 0 0 1.832 3.281 5.613 5.613 0 0 0 3.687 1.211 5.92 5.92 0 0 0 4.625-2.035l2.137 2.703a7.15 7.15 0 0 1-2.902 2.281c-2.89 1.17-6.15 1-8.902-.453a8.429 8.429 0 0 1-3.301-3.422 10.37 10.37 0 0 1-1.164-4.968 10.54 10.54 0 0 1 1.132-4.93 8.398 8.398 0 0 1 7.672-4.648 8.135 8.135 0 0 1 7.516 4.617c.758 1.58 1.14 3.32 1.098 5.07 0 .305-.02.738-.063 1.297H88.854zm8.07-6.21a4.486 4.486 0 0 0-3.254-1.266 4.55 4.55 0 0 0-3.238 1.25 5.422 5.422 0 0 0-1.613 3.316h9.668a5.326 5.326 0 0 0-1.563-3.3zM80.365 26.288a5.682 5.682 0 0 1-4.34-1.613c-1.02-1.08-1.53-2.64-1.53-4.703v-9.016h-2.81v-3.51h2.81V3.165h3.988v4.28h4.562v3.512h-4.562v8.915c-.051.746.164 1.48.605 2.085a2.17 2.17 0 0 0 1.758.72 3.292 3.292 0 0 0 2.23-.77l1.118 3.12a4.49 4.49 0 0 1-1.707.946c-.688.215-1.4.32-2.122.316zM67.381 4.812a2.549 2.549 0 0 1-1.82-.687 2.351 2.351 0 0 1 0-3.414 2.557 2.557 0 0 1 1.82-.684 2.6 2.6 0 0 1 1.817.653 2.1 2.1 0 0 1 .734 1.644c.016.664-.242 1.3-.719 1.77-.484.48-1.15.738-1.832.714zm-8.648 21.23-5.902-8.035-2.965 3.086v4.95h-3.989V-.002h3.989v15.723L58.127 7.3h4.786l-7.114 7.864 7.782 10.879zM39.307 4.808a2.569 2.569 0 0 1-1.82-.683 2.351 2.351 0 0 1 0-3.414 2.559 2.559 0 0 1 1.82-.688 2.63 2.63 0 0 1 1.816.653c.48.414.75 1.02.735 1.644.015.664-.242 1.3-.72 1.77a2.473 2.473 0 0 1-1.831.718zM22.97 26.042l-5.52-18.18-5.62 18.18H7.4L-.002 1.472h4.309l5.547 18.672L15.63 1.472h3.828l5.645 18.777 5.71-18.777h3.954l-7.399 24.57zm18.309 0h-3.985V7.3h3.989v18.742zm28.078 0H65.37V7.3h3.988z"/></svg>