<svg xmlns="http://www.w3.org/2000/svg" width="120" height="12"><path fill="#000" fill-rule="nonzero" d="M3.227 8.712c1.194 0 2.4-.566 3.458-1.661-.037-.11-.111-.185-.246-.185-1.07.96-1.981 1.342-3.126 1.342-1.907 0-2.412-1.932-2.055-3.729.21-1.058.64-1.883 1.206-2.436.775-.751 1.55-1.096 2.19-1.096 1.699 0 2.178 1.01 2.29 2.068.135.049.245.012.418-.062.061-.64.086-1.23.11-1.907C6.857.984 6.402.492 4.888.492c-1.046 0-2.006.382-2.855 1.046C1.05 2.288.348 3.433.09 4.713c-.394 1.981.492 4 3.138 4m7.795-4.85c.222.296.259.678.074 1.65-1.083.086-1.932.246-2.523.553-.492.259-.935.776-1.033 1.268-.099.517-.013.923.381 1.157.222.16.665.221 1.108.221.455 0 1.12-.185 1.796-.763.173-.148.246-.197.32-.086.197.295.566.85 1.686.85.812 0 1.624-.48 2.116-1.145-.036-.062-.11-.185-.209-.197-.455.43-.947.738-1.612.738-.923 0-1.427-1.095-1.206-2.203 2.843-.036 3.507-.492 3.704-1.488.086-.419-.295-1.231-1.698-1.231-.701 0-1.403.308-1.92.861-.295-.824-1.23-.861-1.525-.861-1.01 0-2.08.541-2.228 1.255-.049.246 0 .554.382.554.308 0 .53-.21.566-.406.012-.086.025-.172.012-.222-.024-.037-.012-.123.013-.246.061-.357.566-.529 1.046-.529.258 0 .602.086.75.27m-.012 2.08c-.123.616-.222 1.022-.308 1.256-.283.492-1.033.996-1.427.996-.69 0-.935-.394-.837-.923.062-.27.258-.541.615-.763.419-.283 1.083-.492 1.957-.566m1.009-.467c.307-1.046.972-1.883 1.809-1.883.59 0 .935.468.849.861-.148.751-.775.997-2.658 1.022m6.122-.714c.406-.652 1.083-1.009 1.5-1.009.752 0 1.133.788.838 2.277-.222 1.058-.69 2.264-2.006 2.264-.197 0-.603-.025-.935-.53l.603-3.002m.295-1.452-.025-.025s-.283.025-.455.025c-.43 0-1.267-.025-1.267-.025l-.025.025-.05.234c-.011.061.013.098.075.098l.233.025c.394.05.493.197.419.541l-1.268 6.338c-.061.344-.27.504-.64.541l-.233.025c-.062.012-.111.036-.123.098l-.037.234.012.024s.85-.024 1.28-.024c.48 0 1.316.024 1.316.024l.037-.024.037-.234c.013-.062-.024-.086-.086-.098l-.234-.025c-.381-.037-.48-.197-.418-.541l.418-2.105c.296.173.616.271 1.059.271.64 0 1.193-.21 1.772-.689.664-.566 1.132-1.329 1.329-2.326.258-1.304-.283-2.51-1.477-2.51-.394 0-1.083.123-1.821.984h-.037l.209-.86m5.844 0c-.529 0-1.34-.026-1.34-.026l-.038.025-.061.27c0 .05.012.062.061.062l.37.025c.442.037.467.135.356.652l-.664 3.323c-.086.43-.148.566-.603.59l-.394.025c-.037.012-.062.024-.074.061l-.049.271.012.025c.492-.013.837-.025 1.366-.025.394 0 .505.012.997.025l.012-.025.05-.258c.012-.05-.013-.062-.062-.074-.406-.037-.419-.173-.357-.468v-.024l3.15-3.052-.578 2.904c-.086.43-.172.59-.628.615l-.394.025c-.036.012-.061.024-.073.061l-.05.271.025.025c.492-.013.824-.025 1.354-.025.553 0 .922.012 1.415.025l.012-.025.05-.258c.012-.05-.013-.062-.062-.074l-.357-.025c-.43-.024-.468-.16-.37-.615l.665-3.31c.099-.517.148-.603.615-.64l.37-.025c.049 0 .086-.024.098-.074l.05-.258-.013-.025s-.861.025-1.415.025c-.345 0-.898-.025-.898-.025l-.025.025-.062.27c0 .05.013.062.05.062.418.037.381.246.332.542l-3.15 3.051.59-2.928c.099-.505.148-.603.628-.64l.37-.025c.048 0 .085-.024.098-.074l.049-.258-.025-.025s-.861.025-1.403.025m6.327 2.387c.123-.64.69-2.14 1.945-2.14.96 0 1.316 1.168 1.02 2.645-.307 1.55-1.143 2.14-1.808 2.14-1.009 0-1.501-.897-1.157-2.645m-1.021-.27c-.468 2.374.69 3.31 1.883 3.31 1.55 0 2.83-1.366 3.125-2.83.259-1.33-.098-2.757-1.833-2.757-1.17 0-1.932.603-2.326 1.194l-.074-.025c.16-.504.456-1.058.702-1.378.529-.677 1.046-.948 2.202-1.083 1.132-.123 1.994-.48 2.387-1.858h-.27c-.222.59-.923.75-1.97.91-1.033.16-1.98.751-2.694 1.723-.615.837-.935 1.821-1.132 2.794m9.05.295-.332 1.636a.494.494 0 0 1-.234.32c-.37.259-.849.53-1.194.53-.615 0-.787-.493-.713-.874.11-.554.48-1.108 1.44-1.354l1.033-.258m-.455 2.276c.012.259.135.714.8.714.603 0 1.144-.492 1.156-.554.013-.086-.074-.209-.123-.209-.074 0-.16.197-.418.197-.48 0-.394-.48-.283-1.046l.369-1.833c.345-1.748-.541-2.08-1.44-2.08-1.009 0-2.178.701-2.3 1.366-.062.295.06.43.344.43.357 0 .59-.246.615-.405a.47.47 0 0 0 .012-.222c-.012-.037 0-.11.025-.246.074-.382.652-.517 1.12-.517.418 0 .96.21.677 1.6-.013.086-.062.135-.099.147L37.53 5.6c-1.243.295-2.228.947-2.388 1.784-.196.972.419 1.33 1.28 1.33.566 0 .825-.1 1.44-.518l.295-.197h.025m4.762-3.236c.406-.652 1.083-1.009 1.502-1.009.75 0 1.132.788.836 2.277-.221 1.058-.689 2.264-2.005 2.264-.197 0-.603-.025-.936-.53l.603-3.002m.296-1.452-.025-.025s-.283.025-.455.025c-.431 0-1.268-.025-1.268-.025l-.024.025-.05.234c-.012.061.013.098.074.098l.234.025c.394.05.492.197.418.541l-1.267 6.338c-.062.344-.27.504-.64.541l-.234.025c-.061.012-.11.036-.123.098l-.037.234.013.024s.849-.024 1.28-.024c.48 0 1.316.024 1.316.024l.037-.024.037-.234c.012-.062-.025-.086-.086-.098l-.234-.025c-.381-.037-.48-.197-.418-.541l.418-2.105c.295.173.615.271 1.058.271.64 0 1.194-.21 1.772-.689.665-.566 1.132-1.329 1.33-2.326.258-1.304-.284-2.51-1.477-2.51-.394 0-1.083.123-1.822.984h-.037l.21-.86m6.718 4.269c-.123.652.652 1.132 1.772 1.132 1.218 0 2.62-.861 3.014-2.842.296-1.49-.16-2.683-1.796-2.683-.579 0-1.12.197-1.735.234-.136.467-.27.886-.517 1.476l.295.05c.37-.788.874-1.379 1.785-1.379 1.095 0 1.242 1.059 1.02 2.19l-.036.025c-.283-.196-.59-.344-.948-.344-.529 0-.922.344-1.353.344-.16 0-.295-.073-.382-.073-.073 0-.123.123-.135.172-.037.172.492.394 1.021.394.554 0 .825-.271 1.292-.271.16 0 .308.05.443.11-.295 1.465-.984 2.191-2.018 2.191-.492 0-.775-.295-.849-.628-.11-.381-.233-.455-.443-.455-.221 0-.381.16-.43.357m9.581.062c-.086.467-.172.566-.615.59l-.333.025c-.036.012-.061.024-.073.061l-.05.271.013.025c.369-.013.886-.025 1.329-.025.455 0 .898.012 1.267.025l.025-.025.049-.258c.012-.05-.012-.062-.062-.074l-.233-.025c-.419-.037-.493-.098-.394-.59l.689-3.397c.098-.504.185-.529.615-.578l.246-.025c.05 0 .086-.024.099-.074l.049-.258-.012-.025c-.37.013-.825.025-1.28.025-.443 0-.948-.012-1.317-.025l-.024.025-.062.27c0 .05.012.062.05.062l.32.025c.38.037.48.11.393.578l-.27 1.317h-2.523l.27-1.317c.099-.504.185-.529.616-.578l.246-.025c.05 0 .086-.024.098-.074l.05-.258-.013-.025c-.369.013-.837.025-1.292.025-.443 0-.935-.012-1.304-.025l-.025.025-.061.27c0 .05.012.062.049.062l.32.025c.381.037.48.11.394.578l-.69 3.397c-.086.467-.172.566-.615.59l-.332.025c-.037.012-.062.024-.074.061l-.049.271.012.025c.37-.013.874-.025 1.317-.025.455 0 .91.012 1.28.025l.024-.025.05-.258c.012-.05-.013-.062-.062-.074l-.234-.025c-.418-.037-.492-.098-.394-.59l.333-1.662h2.522l-.332 1.662m7.44-3.384-.64 3.248c-.086.419-.16.603-.615.603h-1.477c-.43 0-.467-.148-.369-.603l.652-3.26c.099-.505.173-.53.603-.58l.259-.024c.049 0 .086-.024.098-.074l.05-.258-.025-.025s-.788.025-1.28.025c-.517 0-1.317-.025-1.317-.025l-.012.025-.061.27c0 .05.012.062.061.062l.32.025c.406.037.468.11.382.578l-.69 3.446c-.098.48-.172.492-.602.541l-.222.025c-.037.012-.062.024-.074.074l-.049.258.025.025s.775-.025 1.144-.025h2.99c.972 0 1.144.984 1.157 1.587l.307-.012.259-1.637c.024-.209-.099-.233-.308-.27-.209-.037-.394-.234-.32-.603l.677-3.396c.11-.505.197-.554.628-.591l.307-.025c.05 0 .086-.024.086-.061l.062-.27-.025-.026s-.812.025-1.329.025c-.492 0-1.255-.025-1.255-.025l-.012.025-.062.27c0 .05.013.062.05.062l.258.025c.406.05.468.11.37.59m4.143-.947c-.53 0-1.342-.025-1.342-.025l-.036.025-.062.27c0 .05.012.062.062.062l.369.025c.443.037.467.135.357.652l-.665 3.323c-.086.43-.148.566-.603.59l-.394.025c-.037.012-.061.024-.073.061l-.05.271.013.025c.492-.013.836-.025 1.366-.025.393 0 .504.012.996.025l.013-.025.049-.258c.012-.05-.013-.062-.062-.074-.406-.037-.418-.173-.357-.468v-.024l3.15-3.052-.578 2.904c-.086.43-.172.59-.627.615l-.394.025c-.037.012-.062.024-.074.061l-.05.271.025.025c.493-.013.825-.025 1.354-.025.554 0 .923.012 1.415.025l.012-.025.05-.258c.012-.05-.013-.062-.062-.074l-.357-.025c-.43-.024-.467-.16-.369-.615l.665-3.31c.098-.517.147-.603.615-.64l.369-.025c.05 0 .086-.024.098-.074l.05-.258-.013-.025s-.861.025-1.415.025c-.344 0-.898-.025-.898-.025l-.025.025-.061.27c0 .05.012.062.049.062.418.037.381.246.332.542l-3.15 3.051.59-2.928c.1-.505.148-.603.628-.64l.37-.025c.049 0 .086-.024.098-.074l.05-.258-.025-.025s-.862.025-1.403.025m4.653 5.279.025.025s.837-.025 1.267-.025c.48 0 1.194.025 1.194.025l.024-.025.05-.234c.012-.061-.037-.086-.086-.098-.259-.037-.616-.111-.53-.517l.345-1.723c.91.062 1.095.505 1.194 1.182.073.541.283 1.39.898 1.402l.886.013.037-.025.049-.221c.012-.087-.074-.111-.123-.111l-.086-.013c-.43-.061-.726-1.132-.825-1.6-.135-.602-.529-.873-1.193-.873l.012-.05c.48-.134.85-.553 1.132-1.045.21-.381.492-.652.615-.652.111 0 .197.037.259.086.074.061.172.11.32.11a.617.617 0 0 0 .566-.467c.049-.295-.025-.554-.53-.554-.59 0-1.12.665-1.464 1.243-.406.677-.836 1.145-1.66 1.145l.282-1.403c.086-.443.357-.505.714-.542.05 0 .11-.061.123-.123l.05-.209-.026-.025s-.689.025-1.168.025c-.431 0-1.268-.025-1.268-.025l-.025.025-.049.234c-.012.061.025.086.074.098l.234.025c.381.037.48.197.406.541l-.701 3.507c-.062.345-.173.468-.616.517l-.246.025c-.061.012-.098.037-.11.098l-.05.234m5.63-.566c-.073.381.185.714.727.714.59 0 .984-.308 1.39-.985.345-.59.665-1.846.825-2.682.196-.96.295-1.28.762-1.28h.554c.443 0 .455.172.37.59l-.653 3.298c-.074.357-.197.505-.64.554l-.246.025c-.061.012-.098.037-.11.098l-.05.234.025.025s.837-.025 1.28-.025c.48 0 1.316.025 1.316.025l.025-.025.05-.234c.011-.061-.038-.098-.087-.098l-.222-.025c-.393-.037-.492-.197-.418-.554l.69-3.433c.085-.467.135-.541.614-.578l.345-.025c.074 0 .11-.024.123-.086l.05-.246-.038-.025s-.836.025-1.366.025h-2.14c-.493 0-1.268-.025-1.268-.025l-.037.025-.037.197c-.025.11.025.123.222.135.689.05.689.222.43 1.514-.258 1.292-.492 1.969-.75 2.473-.246.443-.468.603-.665.603-.148 0-.184-.098-.172-.258.012-.222 0-.468-.332-.468-.296 0-.505.246-.566.517m7.025-1.957c-.246 1.256.32 2.646 2.055 2.646 1.834 0 2.917-1.526 3.163-2.756.258-1.28-.123-2.769-2.03-2.769-1.662 0-2.88 1.317-3.188 2.88m2.966-2.474c1.058 0 1.476.948 1.107 2.756-.32 1.625-1.132 1.957-1.71 1.957-1.28 0-1.44-1.575-1.243-2.523.21-1.07.812-2.19 1.846-2.19m4.392.677-.677 3.384c-.086.43-.185.554-.615.578l-.382.025c-.05.012-.074.024-.086.061l-.05.271.025.025s.837-.025 1.379-.025c.516 0 1.34.025 1.34.025l.013-.025.05-.258c.012-.05-.013-.062-.05-.074l-.32-.025c-.418-.024-.467-.11-.381-.578l.677-3.384c.086-.43.344-.48.602-.48h1.49c.245 0 .504.025.405.48l-.676 3.384c-.086.43-.185.554-.616.578l-.344.025c-.037.012-.062.024-.074.061l-.05.271.013.025s.825-.025 1.354-.025c.529 0 1.378.025 1.378.025l.012-.025.05-.258c.012-.05-.013-.062-.062-.074l-.357-.025c-.43-.024-.48-.11-.394-.578l.677-3.396c.11-.505.148-.554.628-.591l.369-.025c.049 0 .086-.024.098-.074l.05-.258-.013-.025s-.861.025-1.415.025h-3.409c-.529 0-1.353-.025-1.353-.025l-.025.025-.061.27c0 .05.012.062.049.062l.37.025c.418.037.491.086.38.603m6.996.849c.516-1.39 1.402-1.501 1.698-1.501.467 0 .972.258.763 1.292-.025.11-.087.172-.222.172l-2.24.037m2.77 2.326c-.555.467-.948.664-1.662.664-.443 0-.91-.258-1.169-.886-.16-.406-.197-.972-.05-1.686l3.262.025c.147 0 .246-.074.283-.21.197-1.033.049-2.14-1.662-2.14-1.07 0-2.657 1.021-3.039 2.891-.135.69-.098 1.354.222 1.822.32.492.836.787 1.722.787.936 0 1.686-.43 2.301-1.07-.012-.124-.073-.185-.209-.197m.496 2.72.32.011c.196-.455.738-1.587 1.772-1.587h1.993c1.021 0 1.157 1.083 1.157 1.575h.307l.259-1.649c.037-.172-.037-.209-.259-.258-.197-.037-.455-.148-.369-.603l.69-3.409c.073-.418.22-.517.676-.578l.21-.025c.036 0 .098-.037.11-.086l.05-.246-.013-.025s-.898.025-1.304.025h-2.338c-.21 0-1.17-.025-1.17-.025l-.036.025-.062.27c0 .05.025.062.074.062l.332.025c.419.037.443.283.419.43-.296 1.465-.751 2.585-1.182 3.63-.135.333-.504.493-.836.53-.173.024-.333.049-.394.27l-.406 1.637m2.005-2.203c.05-.209.517-1.058 1.256-3.863.012-.05.123-.32.406-.32h.873c.456 0 .456.184.37.603l-.616 3.125c-.086.406-.16.603-.615.603h-1.464c-.123 0-.234-.012-.21-.148m7.074-4.65c-.529 0-1.341-.026-1.341-.026l-.037.025-.062.27c0 .05.013.062.062.062l.37.025c.442.037.467.135.356.652l-.665 3.323c-.086.43-.147.566-.602.59l-.394.025c-.037.012-.062.024-.074.061l-.05.271.013.025c.492-.013.837-.025 1.366-.025.394 0 .504.012.997.025l.012-.025.05-.258c.011-.05-.013-.062-.062-.074-.406-.037-.419-.173-.357-.468v-.024l3.15-3.052-.578 2.904c-.087.43-.173.59-.628.615l-.394.025c-.037.012-.061.024-.074.061l-.049.271.025.025c.492-.013.824-.025 1.353-.025.554 0 .923.012 1.415.025l.013-.025.049-.258c.012-.05-.012-.062-.062-.074l-.356-.025c-.431-.024-.468-.16-.37-.615l.665-3.31c.098-.517.148-.603.615-.64l.37-.025c.049 0 .085-.024.098-.074L120 3.31l-.012-.025s-.862.025-1.415.025c-.345 0-.899-.025-.899-.025l-.024.025-.062.27c0 .05.012.062.05.062.418.037.38.246.332.542l-3.15 3.051.59-2.928c.099-.505.148-.603.628-.64l.369-.025c.05 0 .086-.024.098-.074l.05-.258-.025-.025s-.861.025-1.403.025"/></svg>