<svg xmlns="http://www.w3.org/2000/svg" width="80" height="16"><path fill="#000" fill-rule="nonzero" d="M.423 10.432c.026.846.37 1.506 1.61 1.506.767 0 1.4-.238 2.14-.634.132-.08.185-.158.185-.238 0-.528-.343-1.215-.925-1.875a6.815 6.815 0 0 0-2.007-1.479c-.237-.106-.317-.238-.317-.37 0-.237.264-.766.502-1.109h.08c.792.502 1.69 1.215 2.35 2.034.607.74.977 1.505.977 2.324 0 .607-.158 1.188-.422 1.717-.872.528-1.796.924-2.72.924-1.11 0-1.876-.607-1.876-2.06 0-.158 0-.396.053-.713h.37v-.027ZM11.964 8.03l.687 1.32c.264.502.502 1.03.502 1.876v1.083c0 .871-.476 1.796-1.241 2.72-.608.634-1.136.898-1.612.898-.713 0-1.558-.264-2.509-.766l.106-.343c.317.105.66.185 1.083.185 1.373 0 2.8-1.189 3.433-2.641a.985.985 0 0 0 .106-.423c0-.159-.08-.343-.132-.528a13.052 13.052 0 0 0-1.189-2.166c.238-.423.45-.819.687-1.215h.08ZM7.606 3.222l.08.027c.211 2.139.264 4.622.264 6.893 0 .607-.027 1.188-.08 1.611-.026.528-.29.95-.871 1.585l-.106-.08C7 12.652 7 11.939 7 11.305v-.95c0-1.797-.185-4.411-.343-6.102.264-.343.66-.766.95-1.03Zm3.434 1.426c.396.29.792.634 1.188 1.057-.21.343-.475.687-.818.95-.37-.37-.766-.686-1.162-1.003.264-.343.528-.687.792-1.004Zm6.814-3.46c-.106.265-.185.555-.29.74-.37.317-.82.475-1.374.475-.607 0-1.32-.158-1.822-.158-.159 0-.344.343-.555.766h-.08l-.342-.608c0-.449.184-1.082.898-1.082.686 0 1.373.29 2.139.29.264 0 .528-.026.792-.132.185-.08.37-.185.555-.317l.08.027Zm-2.615 12.07c.106-.607.106-1.32.106-1.954v-.95c0-1.797-.185-4.411-.343-6.102.264-.343.66-.766.95-1.03l.08.027c.211 2.139.264 4.622.264 6.893 0 .607-.027 1.188-.08 1.611-.026.528-.29.95-.871 1.585l-.106-.08Zm11.753-7.58c.027 1.532.027 3.038.053 4.57 0 .686.08 1.135.37 1.373.215.167.538.248.91.262a.763.763 0 0 1 .41-.104h.212v.053c.713 0 1.294-.502 1.637-1.743.106-.396.37-.792.713-1.188.37-.344.766-.581 1.242-.581 1.188 0 1.901 1.637 2.06 3.354-.211.898-.581 1.268-1.03 1.268-.977 0-1.928-.45-2.905-1.163h-.08c-.264.872-.818 1.268-1.69 1.268h-.158l-.054-.003v.109h-.21c-.951 0-1.664-.264-2.034-1.374-.528.212-1.136.397-1.902.397-1.03 0-1.796-.37-1.796-1.136 0-.29.106-.634.317-1.136.423-.871 1.453-1.77 3.117-2.694l-.053-.74c.238-.29.502-.58.766-.792h.105Zm5.31 3.83c-.556 0-1.031.317-1.321.95.29.423.792.74 1.4 1.005.37.158.765.29 1.161.29.159 0 .265-.026.317-.106-.29-1.479-.924-2.139-1.558-2.139Zm-6.023-1.241c-1.743.898-2.667 1.637-2.667 2.14 0 .369.58.554 1.267.554.423 0 .872-.08 1.453-.264l-.053-2.43Zm10.829-5.283.08.027c.142 1.925.156 4.172.158 6.373v1.286c0 .634.343.925.74 1.057.197.066.414.095.557.103l.084-.017a1.01 1.01 0 0 1 .124-.007h.159v.026c.845 0 1.505-.026 1.928-.185.343-.132.554-.264.554-.422 0-.45-.475-1.426-.977-2.43.238-.423.475-.792.74-1.11h.052c.45.793.978 2.008.978 2.985 0 .74-.29 1.294-.687 1.823-.45.449-1.136.58-2.641.58h-.106v.027h-.132c-.766 0-1.268-.158-1.664-.555-.607-.607-.607-1.294-.607-2.746 0-1.876-.106-3.804-.264-5.89.343-.37.633-.687.924-.925Zm3.249 1.559c.396.29.792.634 1.188 1.056-.211.344-.475.687-.819.951-.37-.37-.766-.687-1.162-1.004.264-.343.528-.686.793-1.003Zm4.806-1.611.08.026c.158 2.14.158 4.675.158 7.105v.554c0 .634.343.925.74 1.057.237.08.501.105.634.105.158.053.528-.026.792-.158.554-.317.766-.872 1.136-1.558.237-.502.449-.925.898-1.506h.105a23.872 23.872 0 0 0 1.875 2.219c.713.766 1.374 1.056 2.034 1.056h.502c.898 0 1.585-.237 2.06-.924l.502-.766.766-.264.026.053c-.37.634-.634 1.109-.634 1.4 0 .316.238.501.528.501.291 0 .608-.105.846-.29.237-.185.501-.528.634-.872l.237-.58.74-.344.026.026c-.29.74-.396 1.11-.396 1.48 0 .263.158.58.555.58.317 0 .528-.105.686-.211.29-.185.45-.528.581-.95.027-.16.106-.344.185-.767l.74-.502.026.027c-.132.422-.238.977-.238 1.347 0 .743.646 1.038 1.528 1.055a.83.83 0 0 1 .216-.025h.158v.026c.845 0 1.506-.026 1.928-.185.343-.132.555-.264.555-.422 0-.45-.476-1.426-.977-2.43.237-.423.475-.792.739-1.11h.053c.449.793.977 2.008.977 2.985 0 .74-.29 1.294-.687 1.823-.449.449-1.135.58-2.64.58h-.028v.027h-.316c-1.215 0-1.77-.37-2.007-.924h-.053c-.555.634-1.11.924-1.664.924-.423 0-.924-.132-1.057-.819h-.026c-.449.476-.977.819-1.69.819-.529 0-.872-.264-.951-.845h-.027c-.607.687-1.426.845-2.086.845h-.158l-.054-.003-.105.003c-.845 0-1.4-.317-1.98-1.03h-.027v.158c0 1.347-.66 2.034-1.215 2.034-.95 0-1.849-.95-2.06-2.113h-.053c-.37.555-.898.925-1.664.925-.581 0-1.056-.159-1.479-.581-.607-.608-.634-1.295-.634-2.747 0-1.875-.106-3.803-.264-5.89.343-.37.634-.687.924-.924Zm4.253 6.972h-.053c-.317.581-.476.925-.476 1.32 0 .767.634 1.744 1.532 1.744.238 0 .529-.29.529-.713 0-.264-.053-.476-.344-.845-.37-.502-.792-.978-1.188-1.506Zm15.846-5.361c.397.29.793.634 1.189 1.056-.211.344-.475.687-.819.951-.37-.37-.766-.687-1.162-1.004.264-.343.528-.686.792-1.003ZM44.872 0c.397 0 .608.238.608.475 0 .238-.158.45-.317.634h-.026c-.106-.211-.211-.343-.317-.37-.08-.026-.185-.026-.317-.026-.343 0-.687.185-.687.343 0 .476.82.634 1.4.634.23 0 .446-.011.667-.02l.337-.006h.026a3.913 3.913 0 0 1-.37.66c-.977.159-1.822.423-2.535.74l-.026-.027.237-.422c.08-.106.29-.264.45-.317V2.27c-.45-.132-.767-.422-.767-.845 0-.264.185-.607.45-.871C44 .238 44.476 0 44.872 0Zm27.363 4.279c-1.03.079-2.35.105-3.54.105l-.025-.026.264-.608c1.373 0 2.8-.052 3.803-.105v.053l-.502.58Zm-.924 7.791c-1.136 0-2.14-.528-2.14-1.849 0-.634.238-1.188.634-1.69.45-.502.951-.819 1.4-.819.581 0 1.11.396 1.48 1.11.369.686.633 1.61.633 2.693 0 .925-.238 1.77-.74 2.589-.871 1.32-1.716 1.875-2.509 1.875-.898 0-1.822-.29-2.826-.95l.159-.318c.475.238.95.343 1.426.343.977 0 1.98-.501 2.879-1.505.449-.475.845-1.056.924-1.637a5.812 5.812 0 0 1-1.32.158Zm-.45-3.117c-.448 0-1.109.502-1.109.872 0 .607.872 1.03 1.664 1.03.37 0 .766-.026 1.11-.132-.238-.977-.82-1.77-1.664-1.77Zm4.543 1.48c.027.845.37 1.505 1.612 1.505.765 0 1.4-.238 2.139-.634.132-.08.185-.158.185-.238 0-.528-.344-1.215-.925-1.875a6.815 6.815 0 0 0-2.007-1.479c-.238-.106-.317-.238-.317-.37 0-.237.264-.766.502-1.109h.08c.792.502 1.69 1.215 2.35 2.034.607.74.977 1.505.977 2.324 0 .607-.158 1.188-.423 1.717-.871.528-1.796.924-2.72.924-1.11 0-1.875-.607-1.875-2.06 0-.158 0-.396.053-.713h.37v-.027Z"/></svg>