<svg xmlns="http://www.w3.org/2000/svg" width="118" height="13"><path fill="#000" fill-rule="nonzero" d="M2.209 1.612v3.295c.16.042.468.063.92.063.648 0 1.137-.156 1.467-.47.334-.317.501-.818.501-1.504 0-.321-.036-.6-.108-.838a1.563 1.563 0 0 0-.273-.571 1.34 1.34 0 0 0-.419-.35 1.588 1.588 0 0 0-.488-.177 2.954 2.954 0 0 0-.534-.044c-.435 0-.723.046-.863.14-.135.092-.203.245-.203.456M1.155 8.157V1.612c0-.186-.059-.321-.177-.406a.74.74 0 0 0-.394-.14l-.508-.025C.026 1.041 0 1.016 0 .965V.692L.025.667a64.6 64.6 0 0 0 1.663.025c.19 0 .493-.02.908-.057.415-.038.67-.057.768-.057.385 0 .734.036 1.048.108.313.072.569.169.768.292.203.122.376.258.52.406.148.144.258.302.33.476a2.278 2.278 0 0 1 .21.901c0 .237-.03.472-.09.705a2.538 2.538 0 0 1-.863 1.333c-.22.178-.51.324-.869.438-.36.114-.766.171-1.219.171-.39 0-.72-.042-.99-.127v2.876c0 .19.053.326.159.406.105.08.287.127.546.14l.476.025c.072 0 .108.034.108.102v.247l-.026.026a96.892 96.892 0 0 0-1.784-.026c-.465 0-1.02.008-1.663.026L0 9.077V8.83c0-.068.034-.102.102-.102l.336-.025C.7 8.68.884 8.63.99 8.55c.11-.084.165-.216.165-.393m7.365-.013V4.907c0-.305-.023-.512-.07-.622-.046-.11-.118-.172-.215-.184l-.559-.057-.032-.312c.838-.126 1.437-.26 1.797-.4.034 0 .05.013.05.039l-.038 1.168h.039c.524-.779 1.032-1.168 1.523-1.168.487 0 .73.199.73.596 0 .17-.05.303-.152.4a.572.572 0 0 1-.413.146.701.701 0 0 1-.527-.235.373.373 0 0 0-.26-.114c-.076 0-.182.06-.318.178a2.77 2.77 0 0 0-.425.495.723.723 0 0 0-.158.457v2.85c0 .19.042.328.126.413.085.084.229.133.432.146l.381.025c.076 0 .114.034.114.102v.247l-.025.026a61.219 61.219 0 0 0-1.536-.026c-.258 0-.71.008-1.352.026l-.013-.026V8.83c0-.055.032-.09.095-.102l.248-.025c.211-.022.357-.072.438-.153.08-.084.12-.22.12-.406m4.477-1.733c0-.91.237-1.644.711-2.202.474-.56 1.134-.838 1.98-.838.373 0 .712.059 1.016.177.305.115.557.27.756.464.203.19.372.414.507.673.14.254.24.516.299.787.059.27.089.546.089.825 0 .338-.058.675-.172 1.01-.11.33-.27.638-.482.926a2.32 2.32 0 0 1-.844.705 2.631 2.631 0 0 1-1.194.266 2.64 2.64 0 0 1-1.149-.247 2.347 2.347 0 0 1-.844-.654 2.992 2.992 0 0 1-.673-1.892m2.546-2.609a1.1 1.1 0 0 0-.832.356 1.96 1.96 0 0 0-.476.85 4.294 4.294 0 0 0-.076 1.771c.042.229.11.464.203.705.093.241.205.457.336.647.132.19.299.347.502.47.207.119.434.178.679.178.165 0 .32-.028.463-.083.148-.059.292-.158.432-.298.144-.144.258-.36.343-.647.084-.288.127-.635.127-1.041 0-.944-.148-1.664-.445-2.159-.296-.499-.715-.749-1.256-.749m4.54 3.453.349-.012c.08.584.237.992.47 1.225.089.093.218.18.387.26.17.076.362.114.578.114.262 0 .516-.089.761-.266a.83.83 0 0 0 .368-.705c0-.288-.097-.533-.292-.736-.194-.208-.543-.423-1.047-.648a8.688 8.688 0 0 1-.628-.298 2.266 2.266 0 0 1-.426-.317 1.02 1.02 0 0 1-.273-.438 2.097 2.097 0 0 1-.076-.61c0-.427.172-.776.514-1.047.347-.271.781-.406 1.302-.406.537 0 1.015.108 1.434.323.064.356.11.798.14 1.327l-.35.013a2.166 2.166 0 0 0-.266-.641 1.24 1.24 0 0 0-.355-.4 1.377 1.377 0 0 0-.337-.178.738.738 0 0 0-.266-.057c-.682 0-1.022.292-1.022.876 0 .262.063.47.19.622.131.148.375.286.73.413.296.11.546.217.75.323.202.106.397.233.583.381.19.148.332.322.425.52.094.2.14.424.14.673 0 .246-.05.468-.152.667a1.38 1.38 0 0 1-.368.47A2.055 2.055 0 0 1 22.85 9c-.186.076-.36.13-.52.159-.157.03-.303.044-.438.044-.423 0-.815-.046-1.174-.14a.913.913 0 0 0-.242-.025c-.067 0-.169.013-.304.038 0-.465-.03-1.073-.09-1.822m7.023-3.25v3.288c0 .428.03.735.089.92.06.187.171.28.336.28.31 0 .623-.123.94-.368.131.021.21.095.235.222-.508.571-1.05.857-1.625.857-.635 0-.952-.427-.952-1.282V4.005h-.845c-.033 0-.05-.016-.05-.05v-.4c0-.038.012-.057.038-.057.414 0 .698-.119.85-.356.153-.241.229-.624.229-1.149v-.247l.755-.26v2.012h1.428c.072 0 .108.027.108.082v.26c0 .051-.034.091-.101.121a.533.533 0 0 1-.216.044h-1.219m6.286 2.044-1.028.273c-.838.229-1.257.705-1.257 1.429 0 .232.085.446.254.64.17.191.404.286.704.286.297 0 .678-.188 1.143-.565a.39.39 0 0 0 .184-.336V6.049m0 2.406h-.025l-.26.203c-.288.225-.523.37-.705.438-.178.072-.415.108-.711.108-.49 0-.882-.112-1.174-.336-.292-.225-.438-.58-.438-1.067 0-.431.192-.812.577-1.142.39-.335.904-.582 1.543-.743l1.117-.273c.05-.017.076-.068.076-.152a3.49 3.49 0 0 0-.07-.743 1.907 1.907 0 0 0-.171-.508.858.858 0 0 0-.254-.292.835.835 0 0 0-.559-.19c-.279 0-.529.05-.749.152-.22.102-.33.248-.33.438 0 .119.009.203.026.254a.577.577 0 0 1 .038.235c0 .102-.053.199-.159.292a.587.587 0 0 1-.413.14c-.3 0-.45-.153-.45-.457 0-.229.103-.455.31-.68.208-.224.479-.406.813-.546a2.548 2.548 0 0 1 1.016-.215c.207 0 .396.017.565.05.173.034.347.1.52.197.174.093.318.218.432.375.119.156.214.37.286.64.076.267.114.578.114.934V7.8c.004.072.01.159.019.26.013.098.03.176.05.235.022.055.05.113.083.172.038.059.087.101.146.127a.577.577 0 0 0 .216.038.456.456 0 0 0 .362-.152c.03-.034.053-.051.07-.051.025 0 .055.02.089.063a.191.191 0 0 1 .057.127c0 .017-.017.047-.051.09a2.024 2.024 0 0 1-.375.311c-.084.05-.186.092-.304.126-.114.038-.23.057-.35.057-.511 0-.837-.25-.977-.749m8.256-3.11h2.386c.123 0 .184-.06.184-.178 0-.258-.033-.48-.101-.666a.898.898 0 0 0-.267-.42.966.966 0 0 0-.343-.203 1.052 1.052 0 0 0-.368-.063c-.084 0-.169.006-.254.02-.08.007-.19.041-.33.1a1.19 1.19 0 0 0-.374.235 1.77 1.77 0 0 0-.318.458 2.423 2.423 0 0 0-.215.717m3.427 2.494c.136.013.222.083.26.21a2.885 2.885 0 0 1-.952.844 2.537 2.537 0 0 1-1.244.311c-.846 0-1.487-.254-1.923-.762-.432-.507-.648-1.16-.648-1.955 0-.474.077-.912.229-1.314.152-.402.351-.732.597-.99.245-.258.518-.457.819-.597a2.15 2.15 0 0 1 .926-.215c.33 0 .622.044.876.133.254.089.457.205.61.35.156.139.283.31.38.513.098.203.163.407.197.61.038.203.057.42.057.653 0 .149-.078.223-.234.223h-3.422c0 .372.04.715.12 1.028.085.309.191.565.318.768.131.203.28.377.444.52.17.14.335.242.496.305.16.064.317.095.47.095.35 0 .651-.057.9-.171.25-.118.492-.305.724-.559m3.468-4.468-.038 1.155h.038c.385-.453.74-.758 1.066-.914.33-.161.682-.241 1.054-.241.284 0 .52.05.71.152.196.102.344.252.445.45.102.195.172.409.21.642.042.228.063.5.063.812v2.717c0 .186.04.322.12.406.081.08.223.132.426.153l.248.025c.076.017.114.05.114.102v.247l-.025.026a70.97 70.97 0 0 0-1.39-.026c-.166 0-.595.008-1.29.026l-.025-.026V8.83c0-.055.036-.09.108-.102l.178-.025c.216-.034.362-.09.438-.165.08-.08.12-.212.12-.394V5.332c0-.482-.059-.825-.177-1.028-.114-.208-.336-.311-.667-.311-.3 0-.584.074-.85.222-.267.148-.559.408-.876.78v3.15c0 .185.038.316.114.393.08.076.229.13.444.165l.185.025c.067.013.101.047.101.102v.247l-.025.026a73.844 73.844 0 0 0-1.327-.026c-.207 0-.658.008-1.352.026l-.025-.026V8.83c0-.055.033-.09.101-.102l.248-.025c.216-.022.362-.072.438-.153.08-.08.12-.216.12-.406V4.907c0-.31-.023-.517-.07-.622-.042-.11-.114-.172-.215-.184l-.559-.057-.025-.312c.83-.126 1.428-.26 1.796-.4.034 0 .05.013.05.039m10.495 4.526a3.158 3.158 0 0 1-.673.812c-.237.199-.467.33-.691.394a2.57 2.57 0 0 1-.756.101c-.804 0-1.43-.258-1.879-.774-.444-.517-.666-1.202-.666-2.057 0-.448.074-.863.222-1.244.148-.38.347-.698.597-.952a2.7 2.7 0 0 1 .857-.59 2.488 2.488 0 0 1 1.015-.216c.597 0 1.069.13 1.416.393.347.258.52.57.52.933a.5.5 0 0 1-.19.413.673.673 0 0 1-.42.146c-.278 0-.435-.152-.469-.457a2.288 2.288 0 0 0-.063-.337 1.311 1.311 0 0 0-.134-.304.551.551 0 0 0-.273-.254 1.048 1.048 0 0 0-.457-.09c-.44.001-.804.206-1.091.617-.284.406-.426.958-.426 1.656 0 .754.161 1.367.483 1.841.326.47.74.705 1.244.705.283 0 .565-.08.844-.241.28-.165.518-.392.717-.68.136.017.227.079.273.184m2.236-5.789a.598.598 0 0 1-.184-.438c0-.169.062-.315.184-.438a.589.589 0 0 1 .438-.19c.17 0 .316.061.438.184.127.123.19.271.19.444 0 .17-.063.316-.19.438a.598.598 0 0 1-.438.185.598.598 0 0 1-.438-.185m1.041 1.264c-.03.588-.044 1.1-.044 1.536v3.237c0 .186.04.322.12.406.085.08.23.132.432.153l.242.025c.08.013.12.047.12.102v.247l-.025.026a70.97 70.97 0 0 0-1.39-.026c-.208 0-.658.008-1.352.026l-.026-.026V8.83c0-.055.034-.09.102-.102l.247-.025c.22-.03.368-.083.445-.159.076-.08.114-.214.114-.4V4.907c0-.31-.023-.517-.07-.622-.042-.11-.114-.172-.216-.184l-.558-.057-.026-.312c.872-.13 1.481-.264 1.828-.4.038 0 .057.013.057.039m2.98-1.613c0-.402-.03-.67-.09-.806-.059-.14-.158-.21-.298-.21l-.419-.025c-.05 0-.076-.02-.076-.063l-.025-.311a8.65 8.65 0 0 0 .952-.14c.372-.072.639-.14.8-.203.114 0 .17.044.17.133-.024.347-.037.802-.037 1.365v4.5c.338-.084.905-.562 1.701-1.434.05-.05.097-.106.14-.165.046-.064.086-.138.12-.222.034-.085.015-.157-.057-.216-.068-.064-.192-.1-.374-.108-.068 0-.102-.036-.102-.108v-.247c.025-.008.038-.017.038-.026.643.017 1.03.026 1.162.026.11 0 .486-.008 1.13-.026l.05.026v.247c0 .055-.048.091-.146.108l-.088.013c-.195.03-.415.1-.66.21a1.93 1.93 0 0 0-.59.4l-.985 1.09a.18.18 0 0 0-.05.134c0 .064.02.123.063.178l1.517 2.247c.11.165.254.296.432.394.177.097.36.162.546.196l.088.013c.08.013.121.047.121.102v.247l-.025.026a39.87 39.87 0 0 0-1.105-.026c-.237 0-.529.008-.876.026l-.038-.026V8.83c0-.178-.1-.413-.298-.705l-.946-1.333c-.127-.186-.246-.311-.356-.374a.794.794 0 0 0-.412-.096v1.822c0 .22.046.368.14.444.093.072.24.119.444.14.068 0 .101.034.101.102v.247l-.025.026a88.704 88.704 0 0 0-1.168-.026c-.03 0-.476.008-1.34.026l-.025-.026V8.83c0-.055.03-.09.09-.102l.247-.025c.216-.022.362-.072.438-.153.08-.08.12-.216.12-.406V1.758m7.016 6.386V1.758c0-.402-.032-.67-.095-.806-.06-.14-.159-.21-.298-.21l-.413-.025c-.055 0-.082-.02-.082-.063l-.026-.311c.271-.021.59-.066.959-.134.368-.071.634-.141.8-.209.11 0 .164.044.164.133-.025.347-.038.802-.038 1.365v6.646c0 .19.038.326.115.406.076.08.22.131.431.153l.311.025c.072 0 .108.034.108.102v.247l-.025.026c-.872-.017-1.354-.026-1.447-.026-.08 0-.553.008-1.416.026l-.013-.026V8.83c0-.068.03-.102.09-.102l.31-.025c.216-.022.364-.072.445-.153.08-.08.12-.216.12-.406m3.31-1.733c0-.91.236-1.644.71-2.202.474-.56 1.134-.838 1.98-.838.373 0 .711.059 1.016.177.305.115.557.27.755.464.204.19.373.414.508.673.14.254.24.516.299.787.059.27.089.546.089.825 0 .338-.058.675-.172 1.01-.11.33-.27.638-.482.926a2.32 2.32 0 0 1-.845.705 2.631 2.631 0 0 1-1.193.266 2.64 2.64 0 0 1-1.149-.247 2.347 2.347 0 0 1-.844-.654 2.992 2.992 0 0 1-.673-1.892m2.546-2.609a1.1 1.1 0 0 0-.832.356 1.96 1.96 0 0 0-.476.85 4.294 4.294 0 0 0-.076 1.771c.042.229.11.464.203.705.093.241.205.457.336.647.131.19.299.347.502.47.207.119.433.178.679.178.165 0 .32-.028.463-.083.148-.059.292-.158.432-.298.144-.144.258-.36.343-.647.084-.288.127-.635.127-1.041 0-.944-.148-1.664-.445-2.159-.296-.499-.715-.749-1.256-.749m5.993 1.232v3.174c.318.372.678.558 1.08.558.266 0 .503-.049.71-.146.212-.101.381-.23.508-.387s.23-.343.311-.559a2.83 2.83 0 0 0 .172-.64 4.76 4.76 0 0 0 .044-.66c0-.716-.144-1.296-.431-1.74-.284-.445-.631-.667-1.042-.667-.236 0-.488.098-.755.292-.262.19-.461.449-.597.775m-.97-.127c0-.305-.024-.512-.07-.622-.047-.11-.12-.172-.216-.184l-.559-.057-.025-.312c.808-.122 1.405-.256 1.79-.4.034 0 .05.013.05.039l-.038 1.04h.038c.457-.693 1.027-1.04 1.708-1.04.406 0 .779.125 1.117.374.339.25.601.578.787.984.186.406.28.838.28 1.295 0 1.02-.305 1.839-.915 2.457-.478.482-1.083.723-1.815.723-.419 0-.806-.095-1.162-.285v2.253c0 .182.04.313.121.393.085.085.226.136.425.153l.248.025c.08.013.12.047.12.102v.247l-.025.026a60.053 60.053 0 0 0-1.39-.026c-.267 0-.717.008-1.352.026l-.032-.026v-.247c0-.055.036-.09.108-.102l.248-.025c.207-.017.35-.068.431-.152.085-.08.127-.212.127-.394V4.907m7.657.438h2.387c.123 0 .184-.06.184-.178 0-.258-.034-.48-.101-.666a.898.898 0 0 0-.267-.42.966.966 0 0 0-.343-.203 1.052 1.052 0 0 0-.368-.063c-.085 0-.17.006-.254.02-.08.007-.19.041-.33.1a1.19 1.19 0 0 0-.375.235 1.77 1.77 0 0 0-.317.458 2.423 2.423 0 0 0-.216.717m3.428 2.494c.135.013.222.083.26.21a2.885 2.885 0 0 1-.952.844 2.537 2.537 0 0 1-1.244.311c-.846 0-1.487-.254-1.923-.762-.432-.507-.648-1.16-.648-1.955 0-.474.076-.912.229-1.314.152-.402.35-.732.596-.99s.519-.457.82-.597a2.15 2.15 0 0 1 .926-.215c.33 0 .622.044.876.133.254.089.457.205.61.35.156.139.283.31.38.513.097.203.163.407.197.61.038.203.057.42.057.653 0 .149-.078.223-.235.223h-3.421c0 .372.04.715.12 1.028.085.309.19.565.318.768.131.203.28.377.444.52.17.14.334.242.495.305.161.064.318.095.47.095.351 0 .652-.057.901-.171.25-.118.491-.305.724-.559m5.842.013V4.59c-.165-.258-.345-.448-.54-.57-.195-.128-.438-.191-.73-.191-.52 0-.925.215-1.212.647-.242.347-.362.923-.362 1.727 0 .761.14 1.352.419 1.77.283.415.616.623.996.623.339 0 .815-.248 1.429-.743m.977-6.354v6.068c0 .322.02.525.057.61.038.084.127.133.267.146l.628.063.038.305c-.842.148-1.396.33-1.663.546h-.304l.031-.914-.031-.013c-.737.597-1.325.895-1.765.895-.686 0-1.22-.256-1.606-.768-.385-.512-.578-1.178-.578-2 0-.943.29-1.705.87-2.285.275-.262.565-.457.87-.584a2.744 2.744 0 0 1 1.079-.196c.144 0 .332.027.565.082.237.055.425.123.565.203V1.758c0-.402-.03-.67-.09-.806-.058-.14-.158-.21-.298-.21l-.419-.025c-.05 0-.076-.02-.076-.063l-.025-.311c.27-.021.59-.066.958-.134.368-.071.635-.141.8-.209.11 0 .165.044.165.133a19.51 19.51 0 0 0-.038 1.365m3.119.61a.598.598 0 0 1-.184-.439c0-.169.06-.315.184-.438a.588.588 0 0 1 .438-.19c.169 0 .315.061.438.184.127.123.19.271.19.444 0 .17-.063.316-.19.438a.598.598 0 0 1-.438.185.598.598 0 0 1-.438-.185m1.04 1.264c-.029.588-.044 1.1-.044 1.536v3.237c0 .186.04.322.12.406.085.08.23.132.432.153l.242.025c.08.013.12.047.12.102v.247l-.025.026a70.972 70.972 0 0 0-1.39-.026c-.208 0-.658.008-1.352.026l-.026-.026V8.83c0-.055.034-.09.102-.102l.247-.025c.22-.03.369-.083.445-.159.076-.08.114-.214.114-.4V4.907c0-.31-.023-.517-.07-.622-.042-.11-.114-.172-.216-.184l-.558-.057-.026-.312c.872-.13 1.482-.264 1.829-.4.038 0 .057.013.057.039m3.309-1.264a.598.598 0 0 1-.185-.438c0-.169.062-.315.185-.438a.588.588 0 0 1 .438-.19c.169 0 .315.064.437.19a.598.598 0 0 1 .185.438c0 .17-.062.316-.185.438a.598.598 0 0 1-.437.185.598.598 0 0 1-.438-.185m1.034 1.264a56.894 56.894 0 0 0-.038 1.536v2.742c0 2.086-.315 3.385-.946 3.897a1.654 1.654 0 0 1-.476.28c-.17.067-.298.106-.387.114a3.524 3.524 0 0 1-.324.013.781.781 0 0 1-.444-.159.478.478 0 0 1-.229-.419c0-.106.045-.197.134-.273.089-.076.173-.114.254-.114.105 0 .199.017.279.05.08.035.137.066.171.096.034.034.074.08.12.14.098.14.198.209.3.209a.262.262 0 0 0 .19-.083.589.589 0 0 0 .14-.253c.042-.119.078-.237.107-.356.03-.118.053-.28.07-.482a20.423 20.423 0 0 0 .064-1.098c.004-.246.006-.434.006-.565V4.907c0-.313-.024-.523-.07-.629-.043-.11-.117-.169-.222-.177l-.559-.057-.025-.311c.859-.132 1.47-.265 1.834-.4.034 0 .05.012.05.038m5.506 2.678-1.028.273c-.838.229-1.257.705-1.257 1.429 0 .232.085.446.254.64.17.191.404.286.705.286.296 0 .677-.188 1.142-.565a.39.39 0 0 0 .184-.336V6.049m0 2.406h-.025l-.26.203c-.288.225-.523.37-.705.438-.178.072-.415.108-.71.108-.492 0-.883-.112-1.175-.336-.292-.225-.438-.58-.438-1.067 0-.431.192-.812.578-1.142.389-.335.903-.582 1.542-.743l1.117-.273c.051-.017.076-.068.076-.152 0-.284-.023-.531-.07-.743a1.905 1.905 0 0 0-.17-.508.858.858 0 0 0-.255-.292.835.835 0 0 0-.558-.19c-.28 0-.53.05-.75.152-.22.102-.33.248-.33.438 0 .119.009.203.026.254a.576.576 0 0 1 .038.235c0 .102-.053.199-.159.292a.587.587 0 0 1-.412.14c-.3 0-.45-.153-.45-.457 0-.229.103-.455.31-.68.208-.224.478-.406.813-.546a2.548 2.548 0 0 1 1.015-.215c.208 0 .396.017.565.05.174.034.347.1.52.197.174.093.318.218.432.375.119.156.214.37.286.64.076.267.114.578.114.934V7.8c.004.072.01.159.02.26.012.098.029.176.05.235.021.055.049.113.083.172.038.059.086.101.146.127a.577.577 0 0 0 .215.038.456.456 0 0 0 .362-.152c.03-.034.053-.051.07-.051.025 0 .055.02.089.063a.191.191 0 0 1 .057.127c0 .017-.017.047-.05.09a2.026 2.026 0 0 1-.375.311c-.085.05-.186.092-.305.126-.114.038-.23.057-.35.057-.511 0-.837-.25-.977-.749"/></svg>