<svg xmlns="http://www.w3.org/2000/svg" width="120" height="18" fill="none"><path fill="#000" fill-rule="evenodd" d="M20.034.004s-3.233-.01-4.673 0l-.072.052v.5c0 .062.026.11.079.148.053.04.108.06.166.06l.232.025c.588.022.859.179.94.274.14.171.21.357-.13 1.099l-2.034 4.057-1.838-3.761C12.1 1.255 11.95.884 12.86.813l.36-.051c.174 0 .26-.062.26-.182V.054l-.131-.043s-3.422 0-4.96.002l-.071.051v.528c0 .118.123.148.361.18.79.105.831.19 1.503 1.528l.172.342c.127.25.497 1.003.497 1.003l1.916 3.766.558 1.234-2.787 5.56-.159-.041S6.056 5.046 4.804 1.994c-.13-.316-.19-.55-.19-.694 0-.31.28-.478.84-.5l.652-.027c.173 0 .26-.066.26-.205v-.5L6.308.016S1.128.01.058.016L0 .068v.526c0 .095.12.153.361.18.658.035 1.09.141 1.298.316.207.176.426.623.717 1.318.813 1.954 2.1 4.701 3.377 7.429l.003.005c1.19 2.542 2.373 5.067 3.158 6.917.468 1.049 1.057 1.211 1.771-.032.714-1.322 2.13-4.211 3.203-6.422l-.232 1.21c-.02.065.19.297.255.317l.157-.1c.064.021.205-.04.225-.105l.027-.267-.211-.987c.998 2.196 2.294 5.027 2.93 6.34.53 1.092 1.133 1.2 1.746.032 1.602-3.561 6.281-14.27 6.281-14.27.203-.528.486-.93.848-1.225.361-.291.92-.455 1.673-.488.153 0 .231-.069.231-.205V.054L27.76.002h-5.748l-.073.052v.503c0 .04.013.077.038.107a.324.324 0 0 0 .113.081c.031.014.063.02.097.02l.477.023c.59.024.75.143.978.34.228.202.255.547.078 1.034l-5.088 12.076-.196-.054-3.23-6.608.074-.155 2.643-4.943c.308-.524.605-.988.755-1.204.276-.397.43-.472 1.183-.507.154 0 .232-.069.232-.207V.059l-.058-.055Zm9.832 15.632c0 .577.263.919 1.103.997l.551.054c.079 0 .158.051.158.156v.552l-.027.053s-1.994-.053-2.808-.053c-.735 0-2.783.053-2.783.053l-.052-.053v-.552c0-.105.079-.156.184-.156l.525-.054c.866-.078 1.128-.498 1.128-.997V6.895c0-.575-.316-.736-1.128-.813l-.525-.054c-.105 0-.184-.025-.184-.105v-.605l.026-.053s2.074.053 2.888.053c.708 0 2.73-.053 2.73-.053l.026.053v.577c0 .08-.053.132-.158.132l-.551.053c-.814.078-1.103.289-1.103.815v8.74Zm8.85.997c-.762-.13-1.103-.42-1.103-.997v-3.892c.578 0 .998.13 1.391.655l2.914 3.624c.367.419.394.706.394 1.047v.317l.026.026s.945-.026 1.601-.026c.735 0 2.126.026 2.126.026l.079-.026v-.552c0-.079-.105-.131-.184-.156l-.131-.024c-.525-.104-1.155-.264-1.47-.63l-3.964-4.777c-.13-.156-.236-.287-.236-.444 0-.211.158-.498.604-.972l2.257-2.597c.943-1.074 1.651-1.128 2.672-1.207h.006c.131 0 .21-.053.21-.132v-.605l-.079-.025s-1.155.053-1.837.053c-.762 0-2.888-.053-2.888-.053l-.026.025v.605c0 .08.052.107.157.132.525.081.762.315.762.526 0 .502-.814 1.47-1.864 2.627-1.155 1.236-1.654 1.68-2.52 1.68V6.894c0-.526.289-.658 1.102-.815l.29-.053c.104-.027.157-.053.157-.132v-.577l-.026-.053s-1.653.053-2.39.053c-.813 0-2.965-.053-2.965-.053l-.027.053v.605c0 .08.08.105.184.105l.525.054c.84.077 1.129.238 1.129.813v8.74c0 .5-.341.92-1.129.998l-.525.054c-.105 0-.184.051-.184.156v.552l.053.053s2.152-.053 2.887-.053c.788 0 2.441.053 2.441.053l.027-.053v-.552c0-.105-.08-.13-.158-.156l-.288-.054Zm13.048-.997c0 .577.263.919 1.103.997l.551.054c.079 0 .157.051.157.156v.552l-.026.053s-1.995-.053-2.808-.053c-.735 0-2.783.053-2.783.053l-.052-.053v-.552c0-.105.078-.156.183-.156l.525-.054c.867-.078 1.13-.498 1.13-.997V6.895c0-.575-.316-.736-1.13-.813l-.525-.054c-.105 0-.183-.025-.183-.105v-.605l.026-.053s2.074.053 2.887.053c.71 0 2.73-.053 2.73-.053l.026.053v.577c0 .08-.052.132-.157.132l-.551.053c-.814.078-1.103.289-1.103.815v8.74Zm4.097-9.608c1.234.078 1.575.105 1.575.918l.004 8.82c0 .498-.262.734-1.076.84l-.551.078c-.105.024-.158.05-.158.155v.552l.026.054s1.97-.055 2.704-.055c.814 0 2.916.055 2.916.055l.023-.055v-.55c0-.103-.08-.132-.186-.156l-.526-.079c-.84-.13-1.156-.265-1.156-.84V12.25c.474.209.999.262 1.655.262 3.725 0 4.487-2.466 4.487-4.042 0-1.367-.683-3.204-4.408-3.204-.52 0-1.061.015-1.566.03h-.001c-.438.012-.848.023-1.19.023-.442 0-1.151-.018-1.745-.033h-.009l-.474-.012c-.21-.004-.377-.008-.475-.008l-.052.027v.603c0 .054.026.132.183.132Zm5.303 5.723c-.526 0-1.182-.025-1.707-.236h.001V6.947c0-.682.315-.918 1.576-.918 1.441 0 2.465.498 2.465 2.756 0 2.019-.76 2.966-2.335 2.966Zm8.954 5.644c-.787 0-2.597.053-2.597.053l-.027-.053v-.578c0-.051.027-.13.157-.13l.607-.054c.815-.078 1.05-.603 1.05-1.127V6.843c0-.605-.315-.71-1.05-.76l-.607-.055c-.157-.025-.157-.078-.157-.105v-.605l.027-.053s2.046.053 2.834.053h3.858c.788 0 2.653-.053 2.653-.053l.055.053c.023 1.129.207 2.154.394 3.15l-.653.106c-.288-.972-.787-2.363-2.467-2.363h-2.1c-.498 0-.761.184-.761.63v3.807h1.968c.736 0 .918-.316 1.024-.84l.157-.552c0-.078.053-.132.157-.132h.444c.055 0 .055.027.055.079l-.022.217-.012.114-.012.11v.002c-.053.483-.111 1.023-.111 1.5 0 .437.046.827.093 1.218v.001c.023.196.047.391.064.592l-.055.054h-.444c-.13 0-.186-.054-.186-.132l-.132-.577c-.105-.526-.34-.814-1.027-.814h-1.967v4.017c0 .495.286.994.761.994h2.494c1.339 0 2.076-.84 2.389-2.208l.654.079-.526 3.018-.053.052s-1.548-.053-2.335-.053l-4.594.008Zm10.476-.762-.604.054c-.104 0-.157.079-.153.152v.552l.024.054s1.997-.055 2.785-.055c.18 0 .366.003.568.007l.475.011c.65.016 1.495.037 2.789.037 2.91 0 6.166-1.363 6.166-5.957 0-3.492-2.153-6.222-6.537-6.222-.368 0-1.203.016-1.972.03-.656.012-1.264.023-1.493.023-.473 0-2.784-.053-2.784-.053l-.025.053v.577c0 .08.08.132.186.132l.575.054.06.005c.814.072.991.088.991.756v8.663c0 .812-.263 1.049-1.051 1.127Zm9.767-4.698c0 3.679-1.63 4.752-4.516 4.752-1.995 0-2.179-.448-2.179-1.181V6.843c0-.658.656-.815 1.68-.815 4.41 0 5.015 3.178 5.015 5.907Zm8.48 3.7c0 .578.263.92 1.103.998l.551.054c.079 0 .157.051.157.156v.552l-.026.053s-1.995-.053-2.808-.053c-.736 0-2.782.053-2.782.053l-.053-.053v-.552c0-.105.078-.156.183-.156l.526-.054c.866-.078 1.129-.498 1.129-.997V6.895c0-.575-.316-.736-1.129-.813l-.526-.054c-.105 0-.183-.025-.183-.105v-.605l.026-.053s2.073.053 2.885.053c.707 0 2.731-.053 2.731-.053l.023.053v.577c0 .08-.055.132-.157.132l-.551.053c-.816.078-1.103.289-1.103.815l.004 8.74Zm8.848 1.052-.761-.054c-.971-.078-1.313-.657-1.048-1.318l1.523-3.807c.131-.338.288-.443.918-.443h5.462l1.601 4.438c.264.732-.106 1.049-1.102 1.126l-.735.055c-.136 0-.188.076-.188.21v.497l.023.054s2.574-.055 3.492-.055c1.026 0 3.047.055 3.047.055l.079-.055v-.495c0-.134-.132-.211-.264-.211l-.287-.025c-1.05-.105-1.577-.498-1.946-1.523L112.122.91c-.209-.525-.341-.788-.705-.788-.397 0-.608.263-.896.946l-5.826 13.65c-.735 1.68-1.389 1.891-2.545 1.97-.133 0-.211.079-.211.209v.498l.053.054s1.68-.053 2.364-.053c.63 0 3.491.053 3.491.053l.052-.053v-.5a.207.207 0 0 0-.21-.208Zm3.124-13.73 2.546 7.007v.001h-4.568c-.578 0-.761-.076-.656-.341l2.625-6.667h.053Z" clip-rule="evenodd"/></svg>