<svg xmlns="http://www.w3.org/2000/svg" width="118" height="22" viewBox="0 0 118 22">
  <path fill="#54595D" fill-rule="evenodd" d="M13.8236 3.1469C14.8418857 3.13982857 16.8565694 3.14386939 17.6732472 3.14592587L18.0296 3.1469 18.0816 3.1939 18.0816 3.6449C18.0816 3.7699 18.0116 3.8319 17.8736 3.8319 17.1956 3.8629 17.0566 3.9299 16.8086 4.2879 16.6736 4.4819 16.4056 4.9009 16.1286 5.3709L16.1286 5.3709 13.7506 9.8199C13.7506 9.8199 13.7271583 9.86887919 13.6836436 9.95961933L16.5904 15.9083 16.7664 15.9563 21.3464 5.0893C21.5044 4.6513 21.4804 4.3403 21.2764 4.1573 21.0704 3.9803 20.9264 3.8743 20.3954 3.8523L19.9654 3.8313C19.9124 3.8313 19.8634 3.8123 19.8144 3.7763 19.7674 3.7423 19.7434 3.6973 19.7434 3.6443L19.7434 3.1923 19.8084 3.1453 24.9824 3.1453 25.0344 3.1923 25.0344 3.6443C25.0344 3.7663 24.9644 3.8283 24.8264 3.8283 24.1484 3.8583 23.6464 4.0063 23.3214 4.2683 22.9944 4.5323 22.7404 4.8963 22.5574 5.3703 22.5574 5.3703 18.3464 15.0083 16.9054 18.2133 16.3544 19.2633 15.8114 19.1673 15.3344 18.1823 14.7374371 16.9522126 13.4970106 14.2391014 12.585817 12.2335649 11.612483 14.2440022 10.2783025 16.968315 9.6166 18.1949 8.9726 19.3139 8.4436 19.1669 8.0216 18.2239 6.5576 14.7709 3.5526 8.7069 2.1376 5.3089 1.8766 4.6829 1.6786 4.2809 1.4926 4.1219 1.3056 3.9649.9166 3.8709.3256 3.8379.1086 3.8149-.0004 3.7619-.0004 3.6769L-.0004 3.6769-.0004 3.2039.0526 3.1569C.723781818 3.15341515 3.19132911 3.15478797 4.62517946 3.15593999L5.6766 3.1569 5.7296 3.2039 5.7296 3.6539C5.7296 3.7789 5.6506 3.8379 5.4946 3.8379L5.4946 3.8379 4.9076 3.8629C4.4046 3.8839 4.1536 4.0349 4.1536 4.3139 4.1536 4.4439 4.2056 4.6549 4.3226 4.9389 5.4496 7.6849 9.3416 15.8899 9.3416 15.8899L9.3416 15.8899 9.4836 15.9269 11.9916265 10.9234247C11.6849606 10.2460752 11.4894 9.8123 11.4894 9.8123L9.7654 6.4233C9.7654 6.4233 9.4324 5.7453 9.3184 5.5203 8.5604 4.0193 8.5774 3.9393 7.8104 3.8383 7.5964 3.8093 7.4854 3.7823 7.4854 3.6753L7.4854 3.2003 7.5504 3.1543 7.85918503 3.15391409C9.34357836 3.1523 12.0134 3.1523 12.0134 3.1523L12.1314 3.1923 12.1314 3.6653C12.1314 3.7733 12.0544 3.8283 11.8964 3.8283L11.5734 3.8753C10.7554 3.9383 10.8894 4.2733 11.4324 5.3553L13.0866 8.7399 14.9166 5.0899C15.2007429 4.46961429 15.1675796 4.28131327 15.059709 4.13347617L15.0336 4.0999C14.9616 4.0139 14.7176 3.8739 14.1886 3.8529L14.1886 3.8529 13.9806 3.8309C13.9276 3.8309 13.8786 3.8119 13.8306 3.7769 13.7826 3.7429 13.7596 3.6999 13.7596 3.6439L13.7596 3.6439 13.7596 3.1929zM26.8782 17.2148C26.8782 17.7348 27.1142 18.0408 27.8702 18.1118L28.3662 18.1598C28.4372 18.1598 28.5082 18.2068 28.5082 18.3008L28.5082 18.7968 28.4842 18.8458C28.4842 18.8458 26.6892 18.7968 25.9572 18.7968 25.2952 18.7968 23.4532 18.8458 23.4532 18.8458L23.4052 18.7968 23.4052 18.3008C23.4052 18.2068 23.4762 18.1598 23.5712 18.1598L24.0432 18.1118C24.8232 18.0408 25.0592 17.6628 25.0592 17.2148L25.0592 9.3478C25.0592 8.8298 24.7742 8.6858 24.0432 8.6168L23.5712 8.5678C23.4762 8.5678 23.4052 8.5458 23.4052 8.4728L23.4052 7.9288 23.4292 7.8818C23.4292 7.8818 25.2952 7.9288 26.0272 7.9288 26.6662 7.9288 28.4842 7.8818 28.4842 7.8818L28.5082 7.9288 28.5082 8.4488C28.5082 8.5198 28.4612 8.5668 28.3662 8.5668L27.8702 8.6148C27.1382 8.6848 26.8782 8.8748 26.8782 9.3478L26.8782 17.2148zM33.8494 17.2148C33.8494 17.7348 34.1564 17.9938 34.8414 18.1118L35.1014 18.1598C35.1724 18.1828 35.2434 18.2068 35.2434 18.3008L35.2434 18.7968 35.2194 18.8458C35.2194 18.8458 33.7314 18.7968 33.0224 18.7968 32.3614 18.7968 30.4244 18.8458 30.4244 18.8458L30.3774 18.7968 30.3774 18.3008C30.3774 18.2068 30.4484 18.1598 30.5424 18.1598L31.0154 18.1118C31.7234 18.0408 32.0304 17.6628 32.0304 17.2148L32.0304 9.3478C32.0304 8.8298 31.7704 8.6858 31.0154 8.6168L30.5424 8.5678C30.4484 8.5678 30.3774 8.5458 30.3774 8.4728L30.3774 7.9288 30.4004 7.8818C30.4004 7.8818 32.3374 7.9288 33.0704 7.9288 33.7324 7.9288 35.2194 7.8818 35.2194 7.8818L35.2434 7.9288 35.2434 8.4488C35.2434 8.5198 35.1964 8.5428 35.1014 8.5668L34.8414 8.6148C34.1094 8.7558 33.8494 8.8748 33.8494 9.3478L33.8494 12.9158C34.6294 12.9158 35.0784 12.5168 36.1174 11.4038 37.0624 10.3628 37.7944 9.4928 37.7944 9.0408 37.7944 8.8508 37.5814 8.6398 37.1094 8.5678 37.0154 8.5458 36.9684 8.5208 36.9684 8.4498L36.9684 7.9038 36.9914 7.8828C36.9914 7.8828 38.9054 7.9298 39.5904 7.9298 40.2044 7.9298 41.2434 7.8828 41.2434 7.8828L41.3144 7.9038 41.3144 8.4498C41.3144 8.5208 41.2434 8.5678 41.1254 8.5678 40.2044 8.6388 39.5664 8.6858 38.7164 9.6538L36.6844 11.9908C36.2834 12.4178 36.1414 12.6758 36.1414 12.8658 36.1414 13.0078 36.2354 13.1248 36.3534 13.2668L39.9204 17.5668C40.2044 17.8958 40.7714 18.0388 41.2434 18.1318L41.3614 18.1548C41.4324 18.1778 41.5274 18.2248 41.5274 18.2958L41.5274 18.7918 41.4564 18.8158C41.4564 18.8158 40.2044 18.7918 39.5424 18.7918 38.9524 18.7918 38.1014 18.8158 38.1014 18.8158L38.0784 18.7918 38.0784 18.5088C38.0784 18.1998 38.0544 17.9428 37.7244 17.5648L35.1014 14.3038C34.7474 13.8298 34.3694 13.7138 33.8494 13.7138L33.8494 17.2148zM46.5853 17.2148C46.5853 17.7348 46.8213 18.0408 47.5773 18.1118L48.0733 18.1598C48.1443 18.1598 48.2153 18.2068 48.2153 18.3008L48.2153 18.7968 48.1913 18.8458C48.1913 18.8458 46.3963 18.7968 45.6643 18.7968 45.0023 18.7968 43.1603 18.8458 43.1603 18.8458L43.1123 18.7968 43.1123 18.3008C43.1123 18.2068 43.1833 18.1598 43.2773 18.1598L43.7503 18.1118C44.5303 18.0408 44.7663 17.6628 44.7663 17.2148L44.7663 9.3478C44.7663 8.8298 44.4823 8.6858 43.7503 8.6168L43.2773 8.5678C43.1833 8.5678 43.1123 8.5458 43.1123 8.4728L43.1123 7.9288 43.1363 7.8818C43.1363 7.8818 45.0023 7.9288 45.7343 7.9288 46.3723 7.9288 48.1913 7.8818 48.1913 7.8818L48.2153 7.9288 48.2153 8.4488C48.2153 8.5198 48.1683 8.5668 48.0733 8.5668L47.5773 8.6148C46.8453 8.6848 46.5853 8.8748 46.5853 9.3478L46.5853 17.2148zM53.5086 13.5058C53.9806 13.6948 54.5716 13.7188 55.0436 13.7188 56.4626 13.7188 57.1446 12.8658 57.1446 11.0488 57.1446 9.0178 56.2226 8.5688 54.9256 8.5688 53.7906 8.5688 53.5076 8.7808 53.5076 9.3958L53.5086 13.5058zM51.6896 9.3948C51.6896 8.6618 51.3826 8.6388 50.2726 8.5678 50.1306 8.5678 50.1066 8.4978 50.1066 8.4498L50.1066 7.9058 50.1546 7.8828C50.5086 7.8828 51.9026 7.9298 52.5876 7.9298 53.2486 7.9298 54.1936 7.8828 55.0676 7.8828 58.4206 7.8828 59.0346 9.5348 59.0346 10.7658 59.0346 12.1838 58.3496 14.4028 54.9966 14.4028 54.4056 14.4028 53.9336 14.3558 53.5076 14.1668L53.5076 17.3308C53.5076 17.8498 53.7906 17.9698 54.5476 18.0868L55.0216 18.1568C55.1156 18.1808 55.1876 18.2058 55.1876 18.2988L55.1876 18.7948 55.1656 18.8428C55.1656 18.8428 53.2746 18.7948 52.5426 18.7948 51.8816 18.7948 50.1096 18.8428 50.1096 18.8428L50.0856 18.7948 50.0856 18.2988C50.0856 18.2038 50.1336 18.1808 50.2276 18.1568L50.7236 18.0868C51.4556 17.9918 51.6926 17.7788 51.6926 17.3308L51.6896 9.3948zM63.1033 18.7968C62.3943 18.7968 60.7653 18.8458 60.7653 18.8458L60.7413 18.7968 60.7413 18.2768C60.7413 18.2318 60.7653 18.1598 60.8823 18.1598L61.4273 18.1118C62.1613 18.0408 62.3733 17.5688 62.3733 17.0978L62.3733 9.3018C62.3733 8.7568 62.0893 8.6628 61.4273 8.6168L60.8823 8.5678C60.7413 8.5458 60.7413 8.4978 60.7413 8.4728L60.7413 7.9288 60.7653 7.8818C60.7653 7.8818 62.6073 7.9288 63.3153 7.9288L66.7883 7.9288C67.4973 7.9288 69.1743 7.8818 69.1743 7.8818L69.2233 7.9288C69.2463 8.9448 69.4113 9.8678 69.5783 10.7648L68.9893 10.8588C68.7303 9.9838 68.2823 8.7328 66.7703 8.7328L64.8793 8.7328C64.4313 8.7328 64.1953 8.8988 64.1953 9.2988L64.1953 12.7258 65.9653 12.7258C66.6273 12.7258 66.7923 12.4418 66.8873 11.9688L67.0293 11.4728C67.0293 11.4018 67.0773 11.3548 67.1703 11.3548L67.5703 11.3548C67.6193 11.3548 67.6193 11.3788 67.6193 11.4248 67.5703 11.9438 67.4773 12.6078 67.4773 13.1738 67.4773 13.7638 67.5723 14.2608 67.6193 14.8038L67.5703 14.8528 67.1703 14.8528C67.0533 14.8528 67.0033 14.8038 67.0033 14.7338L66.8853 14.2148C66.7913 13.7408 66.5783 13.4818 65.9603 13.4818L64.1913 13.4818 64.1913 17.0968C64.1913 17.5428 64.4483 17.9918 64.8763 17.9918L67.1213 17.9918C68.3253 17.9918 68.9893 17.2358 69.2703 16.0058L69.8593 16.0768 69.3853 18.7928 69.3383 18.8398C69.3383 18.8398 67.9443 18.7928 67.2363 18.7928L63.1033 18.7968zM77.2557 18.1601C79.8537 18.1601 81.3197 17.1931 81.3197 13.8841 81.3197 11.4281 80.7757 8.5681 76.8067 8.5681 75.8857 8.5681 75.2947 8.7091 75.2947 9.3021L75.2947 17.0981C75.2947 17.7571 75.4597 18.1601 77.2557 18.1601M71.9867 18.1601L72.5297 18.1121C73.2397 18.0411 73.4767 17.8291 73.4767 17.0981L73.4767 9.3021C73.4767 8.6861 73.3087 8.6861 72.5297 8.6171L72.0127 8.5681C71.9177 8.5681 71.8457 8.5201 71.8457 8.4501L71.8457 7.9301 71.8677 7.8831C71.8677 7.8831 73.9467 7.9301 74.3737 7.9301 74.8207 7.9301 76.8777 7.8831 77.4917 7.8831 81.4377 7.8831 83.3747 10.3391 83.3747 13.4811 83.3747 17.6161 80.4447 18.8431 77.8237 18.8431 75.9347 18.8431 75.1097 18.7951 74.3767 18.7951 73.6667 18.7951 71.8707 18.8431 71.8707 18.8431L71.8477 18.7951 71.8477 18.2991C71.8457 18.2311 71.8937 18.1601 71.9867 18.1601M89.1981 16.9961L89.1981 14.5501C89.1981 13.8741 89.1451 14.0431 89.5001 13.4191L91.7681 9.5201C92.2641 8.6761 92.5121 8.7771 93.3091 8.6931 93.4161 8.5911 93.4161 8.2541 93.3091 8.1531 92.7781 8.1691 92.2461 8.1691 91.8391 8.1691 91.4311 8.1691 90.9351 8.1691 90.2261 8.1531 90.1201 8.2541 90.1201 8.5911 90.2261 8.6931 91.0061 8.7441 91.4491 8.6251 91.0591 9.3341L88.9501 13.1141C88.7911 13.4011 88.7191 13.3501 88.5601 13.0811L86.3271 9.3341C85.8851 8.6251 86.1501 8.7431 87.1421 8.6931 87.2491 8.5911 87.2491 8.2371 87.1421 8.1361 86.4331 8.1531 85.8311 8.1691 85.1221 8.1691 84.4311 8.1691 83.8461 8.1531 83.3141 8.1361 83.2081 8.2371 83.2261 8.5911 83.3331 8.6931 84.0771 8.7431 84.2711 8.6761 84.9801 9.8241L87.3201 13.5541C87.6211 14.0591 87.6921 14.0591 87.6921 14.6841L87.6921 16.9971C87.6921 18.3971 87.3901 18.4821 85.9721 18.5321 85.8661 18.6341 85.8661 18.9881 85.9721 19.0901 86.8421 19.0721 87.4791 19.0561 88.4541 19.0561 89.4111 19.0561 90.0311 19.0721 90.9171 19.0901 91.0231 18.9881 91.0231 18.6341 90.9171 18.5321 89.5001 18.4821 89.1981 18.3971 89.1981 16.9971L89.1981 16.9961zM98.6385 10.2441C98.6385 8.8431 98.9625 8.7591 100.1075 8.7081 100.2215 8.6071 100.2215 8.2521 100.1075 8.1511 99.1725 8.1681 98.7145 8.1851 97.8195 8.1851 96.7885 8.1851 96.1205 8.1681 95.1675 8.1511 95.0535 8.2521 95.0535 8.6071 95.1675 8.7081 96.6935 8.7591 97.0175 8.8431 97.0175 10.2441L97.0175 17.7041C97.0175 20.7421 96.0265 21.2151 95.3965 21.2151 95.1295 21.2151 94.8635 21.0801 94.7295 20.9111 94.5385 20.6911 94.4625 20.3371 93.8705 20.3371 93.6045 20.3371 93.0325 20.6911 93.0325 21.0631 93.0325 21.6711 94.0425 21.9741 94.4625 21.9741 95.3205 21.9741 95.9115 21.8401 96.6935 21.2491 97.5135 20.6241 98.6385 19.7471 98.6385 17.3331L98.6385 10.2441zM117.8807 11.2505C117.8807 6.5705 114.1407 3.4745 109.6887 3.4745 105.1347 3.4745 101.8777 7.0665 101.8777 11.6995 101.8777 16.3555 105.4657 19.2625 109.8417 19.2625 114.6997 19.2625 117.8807 15.9775 117.8807 11.2505zM109.3587 4.2775C112.8187 4.2775 115.4387 6.7835 115.4387 11.6995 115.4387 15.9295 113.2497 18.4585 110.3507 18.4585 107.2967 18.4585 104.3197 15.8355 104.3197 11.2975 104.3197 6.3345 107.0427 4.2775 109.3577 4.2775L109.3587 4.2775zM113.4027.0005L112.6907.0005C112.5127.9215 111.1897 1.4415 109.9437 1.4415 108.5947 1.4415 107.3997.9215 107.1947.0005L106.4837.0005C106.6097 1.6545 108.0857 2.6705 109.9437 2.6705 111.6217 2.6705 113.2507 1.6785 113.4027.0005L113.4027.0005z"/>
</svg>
