<svg viewBox="0 0 112 13" xmlns="http://www.w3.org/2000/svg"><path d="M51.6 3.33c.052 0 .094.01.123.026s.045.038.045.065c-.002.005-.01.086-.026.24a6.925 6.925 0 0 0-.026.592c.003.045.02.068.05.07a.102.102 0 0 0 .08-.031c.3-.3.61-.529.93-.686.32-.157.602-.236.85-.237.676.024 1.23.294 1.65.809.422.515.64 1.13.653 1.84a3.722 3.722 0 0 1-.252 1.4c-.166.407-.403.76-.71 1.06a2.554 2.554 0 0 1-.882.554 2.96 2.96 0 0 1-1.03.174c-.207 0-.407-.018-.6-.052a2.7 2.7 0 0 1-.53-.15c-.066-.03-.114-.042-.142-.035-.028.007-.042.052-.04.133v1.4c-.014.518.048.844.186.977s.431.201.88.206c.038.047.058.12.058.214 0 .096-.02.167-.059.214l-.767-.017a40.546 40.546 0 0 0-1.544 0l-.718.017c-.039-.047-.058-.119-.058-.214s.02-.167.058-.214c.386.001.641-.066.765-.202.124-.135.181-.463.171-.98v-5.7c-.008-.276-.06-.46-.159-.55-.115-.108-.343-.17-.686-.189a.927.927 0 0 1-.032-.182.53.53 0 0 1 .006-.182c.443-.058.802-.118 1.08-.179.275-.06.501-.127.678-.198zm48.2.143c.033 0 .058.009.076.025a.07.07 0 0 1 .028.054l-.026.523c-.015.317-.024.59-.026.815v2.65c.007.238.062.418.162.54.121.144.383.231.786.26a.254.254 0 0 1 .059.175c0 .073-.02.132-.059.176-.395.047-.72.116-.977.206a1.92 1.92 0 0 0-.596.314.451.451 0 0 1-.124.026.314.314 0 0 1-.123-.026 4.342 4.342 0 0 1-.071-.27 2.414 2.414 0 0 1-.072-.497c-.002-.043-.02-.064-.054-.061a.183.183 0 0 0-.101.044 4.367 4.367 0 0 1-.887.588c-.275.13-.538.196-.79.195-.633-.017-1.07-.2-1.32-.548-.248-.347-.366-.754-.356-1.22v-2.5c.005-.41-.051-.682-.17-.817-.117-.135-.33-.209-.636-.223-.04-.047-.059-.119-.059-.214 0-.096.02-.167.059-.214l.687.018c.218.005.43.008.639.008.1 0 .192-.003.276-.008.084-.005.144-.01.179-.018.033.001.058.01.076.025a.07.07 0 0 1 .028.055l-.026.523c-.015.317-.024.589-.026.815v2.37c.019.562.144.93.374 1.1.23.174.452.252.666.236.163 0 .347-.052.552-.156a3.43 3.43 0 0 0 .669-.468.569.569 0 0 0 .173-.22.793.793 0 0 0 .035-.287v-2.66c-.008-.334-.063-.562-.165-.684-.116-.14-.33-.212-.642-.22-.039-.046-.058-.118-.058-.213 0-.096.02-.167.058-.214l.687.018c.22.005.431.007.64.008.1 0 .191-.003.275-.008.084-.006.144-.011.18-.018zM68.1.003c.115-.002.171.041.169.13a9.25 9.25 0 0 0-.026.366c-.015.24-.024.573-.026.999v5.89c-.012.314.042.544.162.689.121.145.383.232.786.26a.254.254 0 0 1 .059.176c0 .073-.02.132-.059.176-.395.047-.72.116-.977.206a1.92 1.92 0 0 0-.596.314.625.625 0 0 1-.123.024.297.297 0 0 1-.123-.024 4.082 4.082 0 0 1-.071-.266 2.384 2.384 0 0 1-.072-.5c-.003-.044-.02-.065-.055-.062a.183.183 0 0 0-.1.045 4.66 4.66 0 0 1-.862.588c-.259.13-.514.196-.764.195-.706-.015-1.25-.277-1.63-.785-.38-.508-.574-1.17-.578-1.98.003-.48.083-.913.24-1.3.156-.382.375-.713.657-.993.255-.249.538-.44.848-.575.31-.135.678-.203 1.1-.205.227.01.443.046.648.11.206.065.327.102.366.11.045 0 .076-.007.093-.024s.025-.048.024-.093v-1.83c-.005-.42-.06-.675-.162-.762-.116-.099-.34-.145-.67-.138a.362.362 0 0 1-.077-.185.54.54 0 0 1 0-.205c.283-.024.61-.07.983-.14a5.56 5.56 0 0 0 .837-.21zm-22 3.37c.995.037 1.7.356 2.12.955.418.6.622 1.26.609 1.97.006.69-.211 1.34-.652 1.94-.441.606-1.14.928-2.1.968-.916-.034-1.6-.334-2.05-.9a2.96 2.96 0 0 1-.678-1.89c.005-.849.245-1.56.72-2.14.475-.578 1.15-.878 2.04-.902zm63.2.026c.882.026 1.47.266 1.78.721.302.455.442.968.421 1.54 0 .072-.022.127-.065.164a.27.27 0 0 1-.182.057l-3.46-.026c.001.377.038.715.11 1.01.073.298.174.554.305.769.206.329.434.568.684.717.25.149.494.22.733.219.367.002.67-.054.908-.166a2.37 2.37 0 0 0 .704-.536.328.328 0 0 1 .18.06.28.28 0 0 1 .093.148c-.258.343-.568.616-.93.819s-.788.307-1.28.312c-.464-.002-.857-.076-1.18-.221a2.225 2.225 0 0 1-.808-.611 2.354 2.354 0 0 1-.466-.874 3.662 3.662 0 0 1-.145-1.05c.037-.992.33-1.75.876-2.27.546-.521 1.12-.782 1.72-.786zm-49.7 0c.882.026 1.47.266 1.78.721.302.455.442.968.421 1.54 0 .072-.022.127-.065.164a.267.267 0 0 1-.182.057l-3.46-.026c.001.377.038.715.11 1.01.073.298.174.554.305.769.206.329.434.568.684.717.25.149.494.22.733.219.367.002.67-.054.908-.166a2.37 2.37 0 0 0 .704-.536.328.328 0 0 1 .18.06.28.28 0 0 1 .093.148 2.985 2.985 0 0 1-.93.819c-.361.203-.788.307-1.28.312-.464-.002-.857-.076-1.18-.221a2.225 2.225 0 0 1-.808-.611 2.354 2.354 0 0 1-.466-.874 3.662 3.662 0 0 1-.145-1.05c.037-.992.33-1.75.876-2.27.546-.521 1.12-.782 1.72-.786zm-46.1 0c.882.026 1.47.266 1.78.721.302.455.442.968.421 1.54 0 .072-.022.127-.065.164a.267.267 0 0 1-.182.057l-3.46-.026c.001.377.038.715.11 1.01.073.298.174.554.305.769.206.329.434.568.684.717.25.149.494.22.733.219.367.002.67-.054.908-.166a2.37 2.37 0 0 0 .704-.536.328.328 0 0 1 .18.06.28.28 0 0 1 .093.148 2.985 2.985 0 0 1-.93.819c-.361.203-.788.307-1.28.312-.464-.002-.857-.076-1.18-.221a2.225 2.225 0 0 1-.808-.611 2.354 2.354 0 0 1-.466-.874 3.662 3.662 0 0 1-.145-1.05c.037-.992.33-1.75.876-2.27.546-.521 1.12-.782 1.72-.786zm22.9-.026c.629.007 1.12.123 1.46.349.346.226.522.521.526.886-.01.2-.081.346-.216.437a.73.73 0 0 1-.421.135.492.492 0 0 1-.334-.102c-.085-.07-.139-.193-.16-.366a1.272 1.272 0 0 0-.193-.626c-.116-.18-.359-.275-.73-.284-.437.006-.791.209-1.06.608-.271.399-.411.959-.419 1.68.013.769.185 1.37.515 1.81.33.439.739.663 1.23.671.282 0 .557-.072.824-.214a2.35 2.35 0 0 0 .736-.643c.06.006.113.023.161.052a.285.285 0 0 1 .112.13c-.324.521-.661.873-1.01 1.06a2.21 2.21 0 0 1-1.11.257c-.824-.013-1.46-.276-1.9-.788-.444-.512-.668-1.19-.673-2.05.03-.933.314-1.66.85-2.19s1.14-.799 1.82-.809zm-9.54 0c.629.007 1.12.123 1.46.349.346.226.522.521.526.886-.01.2-.081.346-.216.437a.73.73 0 0 1-.421.135.492.492 0 0 1-.334-.102c-.085-.07-.139-.193-.16-.366a1.272 1.272 0 0 0-.193-.626c-.116-.18-.359-.275-.73-.284-.437.006-.791.209-1.06.608-.271.399-.411.959-.419 1.68.013.769.185 1.37.515 1.81.33.439.739.663 1.23.671.282 0 .557-.072.824-.214a2.35 2.35 0 0 0 .736-.643c.06.006.113.023.161.052a.285.285 0 0 1 .112.13c-.324.521-.661.873-1.01 1.06a2.21 2.21 0 0 1-1.11.257c-.824-.013-1.46-.276-1.9-.788-.444-.512-.668-1.19-.673-2.05.03-.933.314-1.66.85-2.19s1.14-.799 1.82-.809zm49.2 0c.497-.024.943.112 1.34.406.395.295.603.892.626 1.79v1.94c-.01.308.013.567.07.777.057.21.207.319.45.328.132-.009.223-.043.276-.104.052-.06.095-.095.127-.104.03.003.064.029.104.076.04.048.061.096.065.145-.006.053-.111.158-.314.317-.203.158-.467.248-.791.268-.341-.014-.584-.106-.732-.275-.147-.169-.237-.329-.27-.479h-.025l-.26.208c-.272.216-.505.362-.699.44a1.876 1.876 0 0 1-.718.106c-.466.006-.853-.1-1.16-.317-.307-.217-.466-.579-.478-1.09.011-.446.213-.83.604-1.16.392-.326.905-.568 1.54-.728l1.12-.273c.02-.006.038-.022.054-.048a.217.217 0 0 0 .024-.107c-.016-.713-.137-1.18-.361-1.4-.224-.217-.455-.316-.692-.294a1.985 1.985 0 0 0-.725.122c-.222.083-.34.225-.354.424 0 .07.003.127.008.169a.464.464 0 0 0 .018.09.365.365 0 0 1 .03.103c.006.041.009.085.009.132 0 .091-.049.184-.145.278-.096.093-.24.144-.427.15-.15.001-.263-.036-.34-.11-.077-.074-.115-.188-.115-.343.023-.367.247-.695.673-.985a2.7 2.7 0 0 1 1.47-.458zm8.98-3.37c.115-.002.171.041.169.13a9.25 9.25 0 0 0-.026.366c-.015.24-.024.573-.026.999v5.99c-.01.519.046.846.171.981.124.135.379.202.765.202.039.047.059.119.059.214 0 .096-.02.167-.059.214l-.721-.018-.221-.004a36.051 36.051 0 0 0-1.238.004l-.718.018c-.039-.047-.058-.119-.058-.214 0-.096.019-.167.058-.214.386.001.641-.066.765-.202.124-.135.181-.463.171-.981v-5.85c-.005-.42-.06-.675-.163-.762-.116-.099-.339-.145-.669-.138a.362.362 0 0 1-.078-.185.54.54 0 0 1 0-.205c.283-.024.611-.07.983-.141a5.56 5.56 0 0 0 .837-.21zm7.45 3.33c.053 0 .094.01.123.026s.045.038.046.065a31.773 31.773 0 0 0-.052 1.478l-.001 2.59c-.01.518.046.844.171.977.124.133.379.201.765.206.039.047.059.119.059.214 0 .096-.02.167-.059.214l-.721-.018-.221-.004a36.051 36.051 0 0 0-1.238.004l-.718.018c-.039-.047-.058-.119-.058-.214 0-.096.019-.167.058-.214.386-.01.641-.08.765-.211s.181-.454.171-.972v-2.68c-.007-.275-.06-.458-.157-.55-.114-.106-.343-.169-.688-.189a.958.958 0 0 1-.032-.182.54.54 0 0 1 .007-.182c.443-.058.806-.118 1.09-.179.282-.061.513-.127.693-.198zM41.19.003c.115-.002.171.041.169.13a9.25 9.25 0 0 0-.026.366c-.015.24-.024.573-.026.999v5.99c-.01.519.046.846.171.981.124.135.379.202.765.202.039.047.059.119.059.214 0 .096-.02.167-.059.214l-.721-.018-.221-.004a36.051 36.051 0 0 0-1.238.004l-.718.018c-.039-.047-.058-.119-.058-.214 0-.096.019-.167.058-.214.386.001.641-.066.765-.202.124-.135.181-.463.171-.981v-5.85c-.005-.42-.06-.675-.163-.762-.116-.099-.339-.145-.669-.138a.362.362 0 0 1-.078-.185.54.54 0 0 1 0-.205c.283-.024.611-.07.983-.141a5.56 5.56 0 0 0 .837-.21zm-22.5 3.33c.104.002.156.037.156.104-.003.017-.013.133-.032.348a8.49 8.49 0 0 0-.033.64c.003.083.02.112.05.088a.372.372 0 0 0 .08-.088c.393-.431.755-.717 1.09-.858.331-.141.654-.206.968-.195.23 0 .439.038.627.114.188.075.339.185.452.328.145.204.241.456.288.754.046.298.068.628.063.988v1.94c-.009.512.045.834.162.967.118.133.354.205.708.216a.38.38 0 0 1 .05.214.378.378 0 0 1-.05.214l-.699-.018a28.332 28.332 0 0 0-1.332 0l-.673.018a.38.38 0 0 1-.048-.214c0-.096.016-.167.048-.214.33-.011.548-.083.656-.216.108-.133.158-.455.15-.967v-1.98a4.19 4.19 0 0 0-.03-.549 1.435 1.435 0 0 0-.127-.452.93.93 0 0 0-.305-.346.7.7 0 0 0-.383-.122c-.254.002-.507.07-.759.203a3.262 3.262 0 0 0-.749.564.747.747 0 0 0-.22.545v2.13c-.01.512.038.834.14.967.104.133.317.205.64.216.039.047.058.119.058.214 0 .096-.02.167-.058.214l-.658-.018a30.96 30.96 0 0 0-1.354 0l-.705.018c-.04-.047-.059-.119-.059-.214 0-.096.02-.167.059-.214.379-.011.628-.083.747-.216s.173-.455.162-.967v-2.68c-.008-.279-.061-.463-.16-.553-.114-.104-.342-.166-.685-.184a.927.927 0 0 1-.033-.182.53.53 0 0 1 .007-.182c.444-.058.81-.118 1.1-.179a4.42 4.42 0 0 0 .697-.198zM3.19.673c.039.047.059.119.059.214 0 .096-.02.167-.059.214-.445-.001-.747.066-.907.201-.159.135-.234.463-.224.981v5.64c.002.203.057.362.164.476a.594.594 0 0 0 .447.174h1.47c.483-.013.84-.179 1.07-.5.232-.321.408-.722.526-1.2.16-.02.303.001.429.065-.04.346-.09.711-.149 1.1-.06.385-.122.743-.188 1.08l-.323-.007a120.78 120.78 0 0 0-1.228-.02l-2.78.001L.91 9.1c-.373.005-.735.011-1.08.018-.039-.047-.058-.119-.058-.214 0-.096.019-.167.058-.214.445.001.747-.066.907-.202.159-.135.234-.463.224-.981v-5.38c-.008-.423-.083-.695-.224-.816-.159-.135-.46-.202-.907-.201-.039-.047-.058-.119-.058-.214 0-.096.02-.167.058-.214L.668.7a43.282 43.282 0 0 0 1.693 0l.835-.018zm28.5 2.66c.053 0 .094.01.123.026s.045.038.046.065c-.003.021-.011.187-.026.497-.016.31-.024.637-.026.981v2.59c-.011.518.046.844.17.977.125.133.38.201.766.206.039.047.058.119.058.214 0 .096-.02.167-.058.214l-.721-.018-.221-.004a36.051 36.051 0 0 0-1.238.004l-.718.018c-.04-.047-.059-.119-.059-.214 0-.096.02-.167.059-.214.386-.01.64-.08.765-.211.124-.131.18-.454.17-.972v-2.68c-.007-.275-.059-.458-.156-.55-.114-.106-.343-.169-.688-.189a.927.927 0 0 1-.033-.182.53.53 0 0 1 .007-.182c.443-.058.806-.118 1.09-.179.282-.061.513-.127.693-.198zm57-3.33c.115-.002.171.041.169.13-.002.004-.01.126-.026.366-.015.24-.024.573-.026.999v5.99c-.01.519.046.846.171.981.124.135.379.202.765.202.039.047.059.119.059.214 0 .096-.02.167-.059.214l-.721-.018-.221-.004a36.051 36.051 0 0 0-1.238.004l-.718.018c-.039-.047-.058-.119-.058-.214 0-.096.019-.167.058-.214.386.001.641-.066.765-.202.124-.135.181-.463.171-.981v-5.68c.008-.52-.047-.829-.162-.928-.116-.099-.339-.145-.669-.138a.362.362 0 0 1-.078-.185.54.54 0 0 1 0-.205c.283-.024.611-.07.983-.141a5.56 5.56 0 0 0 .837-.21zm-17.1 3.33c.052 0 .094.01.123.026s.045.038.046.065c-.003.021-.011.187-.026.497-.016.31-.024.637-.026.981v2.59c-.011.518.046.844.17.977.125.133.38.201.766.206.039.047.058.119.058.214 0 .096-.02.167-.058.214l-.721-.018-.221-.004a36.051 36.051 0 0 0-1.238.004l-.718.018c-.04-.047-.059-.119-.059-.214 0-.096.02-.167.059-.214.386-.01.64-.08.765-.211.124-.131.18-.454.17-.972v-2.68c-.007-.275-.059-.458-.156-.55-.114-.106-.343-.169-.688-.189a.927.927 0 0 1-.033-.182.53.53 0 0 1 .007-.182c.443-.058.806-.118 1.09-.179.282-.061.513-.127.693-.198zm31.7 0c.052 0 .094.01.124.026s.045.038.045.065l-.032.364c-.019.225-.03.45-.033.676 0 .037.01.06.03.071.02.011.049-.017.088-.084.153-.267.354-.51.604-.73.25-.22.53-.336.838-.35.27.011.47.084.595.22.124.135.186.27.184.405a.676.676 0 0 1-.187.447.596.596 0 0 1-.423.203.453.453 0 0 1-.32-.14 7.995 7.995 0 0 1-.212-.237.29.29 0 0 0-.132-.075.524.524 0 0 0-.141-.016c-.085.013-.186.094-.304.24a5.67 5.67 0 0 0-.294.396c-.082.118-.153.25-.214.396a1.27 1.27 0 0 0-.098.474v1.81c-.012.517.051.841.192.972.14.131.432.201.874.211.039.047.059.119.059.214 0 .096-.02.167-.059.214l-.796-.018a41.73 41.73 0 0 0-1.508 0l-.751.018c-.039-.047-.059-.119-.059-.214 0-.096.02-.167.059-.214.393-.005.654-.073.783-.206s.189-.459.179-.977v-2.68c-.008-.268-.06-.449-.16-.545-.114-.112-.342-.178-.685-.198a.4.4 0 0 1-.042-.182.575.575 0 0 1 .016-.182c.444-.058.807-.118 1.09-.179.283-.061.513-.127.69-.198zm-57.4.468c-.54.026-.926.27-1.16.733-.231.463-.344.99-.338 1.58-.002.348.057.727.178 1.14.121.409.317.763.588 1.06.271.298.631.454 1.08.468.326.021.636-.11.931-.39.295-.281.453-.84.473-1.68-.003-.957-.156-1.68-.458-2.17-.302-.491-.734-.737-1.3-.74zm7.24.169c-.196.005-.412.079-.648.22-.236.143-.458.32-.665.534a.667.667 0 0 0-.166.248.952.952 0 0 0-.042.324v2.42c-.003.223.016.382.058.478a.88.88 0 0 0 .254.3 1.1 1.1 0 0 0 .461.217c.181.04.335.06.461.059.713-.033 1.2-.298 1.46-.796.262-.498.385-1.03.37-1.6-.012-.743-.166-1.33-.46-1.75-.296-.426-.658-.644-1.09-.652zm23.9 2.08L76 6.323c-.471.134-.797.332-.977.59-.18.26-.266.54-.258.84a.97.97 0 0 0 .224.613c.151.194.388.297.712.31.186-.006.38-.065.582-.177.202-.112.389-.24.562-.382a.487.487 0 0 0 .13-.135.38.38 0 0 0 .052-.203v-1.73zm-11.2-2.22c-.139-.011-.323.02-.551.096-.228.075-.448.26-.658.554-.101.133-.188.338-.262.616-.073.278-.112.649-.115 1.11.016.81.166 1.41.452 1.81.285.393.612.589.978.587.163 0 .347-.052.552-.156a3.43 3.43 0 0 0 .669-.468.568.568 0 0 0 .173-.22.798.798 0 0 0 .035-.287v-2.47a1.389 1.389 0 0 0-.042-.424.782.782 0 0 0-.179-.278 1.332 1.332 0 0 0-.448-.346 1.42 1.42 0 0 0-.604-.122zm43.5 0c-.182-.026-.435.055-.759.242s-.56.635-.71 1.34l2.35-.04c.07 0 .121-.017.151-.047s.045-.076.044-.134c-.014-.535-.132-.9-.354-1.09a1.015 1.015 0 0 0-.725-.273zm-49.7 0c-.182-.026-.435.055-.759.242s-.56.635-.71 1.34l2.35-.04c.07 0 .121-.017.151-.047s.045-.076.044-.134c-.014-.535-.132-.9-.354-1.09a1.015 1.015 0 0 0-.725-.273zm-46.1 0c-.182-.026-.435.055-.759.242s-.56.635-.71 1.34l2.35-.04c.07 0 .121-.017.151-.047s.045-.076.044-.134c-.014-.535-.132-.9-.354-1.09a1.015 1.015 0 0 0-.725-.273zM8.4.01a.732.732 0 0 1 .624.35c.153.23.231.542.234.937-.015.459-.173.834-.474 1.13a2.027 2.027 0 0 1-1.06.55.374.374 0 0 1-.093-.14.502.502 0 0 1-.024-.171c.343-.1.619-.261.825-.481.207-.22.313-.407.318-.56-.004-.145-.051-.246-.141-.303a.698.698 0 0 0-.327-.1.855.855 0 0 1-.374-.146C7.785.993 7.719.852 7.71.65a.614.614 0 0 1 .193-.455.72.72 0 0 1 .496-.182zM59 .335a.715.715 0 0 1 .195.026l.91 1.64a.628.628 0 0 1 .078.312c-.002.034-.022.066-.059.096a.227.227 0 0 1-.136.047c-.037.001-.083-.018-.14-.057a2.365 2.365 0 0 1-.237-.203l-1.48-1.42.026-.143c.053-.047.152-.106.296-.18.144-.072.327-.111.55-.12zM31.3.673c.18.009.327.082.444.22.116.14.176.29.18.456a.624.624 0 0 1-.201.415.688.688 0 0 1-.474.209.608.608 0 0 1-.429-.211.71.71 0 0 1-.195-.465.608.608 0 0 1 .221-.43.715.715 0 0 1 .455-.194zm39.9 0c.18.009.327.082.444.22.116.14.176.29.18.456a.624.624 0 0 1-.201.415.688.688 0 0 1-.474.209.608.608 0 0 1-.429-.211.71.71 0 0 1-.195-.465.608.608 0 0 1 .221-.43.715.715 0 0 1 .455-.194zm20.8 0c.18.009.327.082.444.22.116.14.176.29.18.456a.621.621 0 0 1-.202.415.688.688 0 0 1-.474.209.607.607 0 0 1-.429-.211.706.706 0 0 1-.195-.465.608.608 0 0 1 .221-.43A.715.715 0 0 1 92 .674z" fill="#000" fill-rule="nonzero"/></svg>