<svg xmlns="http://www.w3.org/2000/svg" width="121" height="10" fill="none"><path fill="#000" d="M4.72 2.084 3.426 4.465h1.67l-.376-2.38Zm.149 5.17v-.385l.401-.045c.129-.018.184-.076.167-.175L5.172 4.9H3.191l-.893 1.75c-.031.06-.032.102-.002.126.03.023.086.04.169.049l.401.045v.384H.983V6.87l.491-.054L4.702.956h.7l.945 5.693a.24.24 0 0 0 .047.128c.022.025.065.04.128.047l.401.045v.384H4.87Zm4.24-3.84L8.56 6.29a.376.376 0 0 0 .117.378c.05.044.108.077.175.101a.624.624 0 0 0 .212.036c.082 0 .168-.008.256-.025.088-.016.173-.036.254-.06a3.817 3.817 0 0 0 .4-.139v.367a5.804 5.804 0 0 1-1.009.36c-.15.038-.289.056-.414.056-.16 0-.292-.02-.397-.06a.634.634 0 0 1-.252-.166.62.62 0 0 1-.134-.25 1.17 1.17 0 0 1-.041-.316c0-.06.002-.12.006-.183.005-.063.014-.127.028-.193l.534-2.783-.551.053v-.3l.658-.304.427-.917h.534l-.176 1.047h1.209v.42H9.11Zm4.946-.14c0 .078-.007.151-.022.22a2.06 2.06 0 0 1-.049.193 1.43 1.43 0 0 1-.06.16c-.02.048-.039.087-.053.117-.193.376-.401.735-.623 1.079a19.725 19.725 0 0 1-1.26 1.738c-.19.235-.353.43-.487.584h-.504c.06-.134.105-.258.137-.373.031-.115.044-.223.038-.325l-.008-.136a43.548 43.548 0 0 0-.107-1.283 78.647 78.647 0 0 0-.053-.539 15.752 15.752 0 0 0-.124-.922 1.737 1.737 0 0 0-.067-.275.51.51 0 0 0-.085-.139.152.152 0 0 0-.115-.045l-.624-.035v-.264l.935-.305c.24.006.413.062.521.168.109.106.174.268.197.486l.273 2.82c.148-.204.285-.397.41-.58.126-.184.24-.362.344-.535.104-.173.199-.345.284-.517.085-.172.162-.348.23-.53l-.166-1.11a.65.65 0 0 1 .214-.146.719.719 0 0 1 .29-.056c.188 0 .324.05.408.15.084.1.126.234.126.4Zm2.267 3.715-.188.085a3.872 3.872 0 0 1-.706.242c-.136.033-.263.05-.383.05a.687.687 0 0 1-.358-.081.506.506 0 0 1-.197-.21.739.739 0 0 1-.072-.291 1.318 1.318 0 0 1 .021-.318L15 3.36l-.752-.085V3.01l1.32-.287h.358l-.662 3.666a.445.445 0 0 0 .066.329.327.327 0 0 0 .276.14c.051 0 .112-.01.181-.028.07-.02.14-.042.21-.068.07-.025.134-.05.194-.073.06-.024.104-.04.132-.05v.35Zm-.038-5.612a.524.524 0 0 1-.139.358.48.48 0 0 1-.164.114.565.565 0 0 1-.227.043c-.179 0-.314-.05-.405-.15a.522.522 0 0 1-.1-.544.517.517 0 0 1 .106-.163.556.556 0 0 1 .408-.168.515.515 0 0 1 .487.324.528.528 0 0 1 .034.186Zm3.638 1.965a.514.514 0 0 1-.055.257.356.356 0 0 1-.158.146.756.756 0 0 1-.246.065c-.095.01-.203.015-.322.015l-.21-.438a1.27 1.27 0 0 0-.347.248 3.06 3.06 0 0 0-.353.403c-.11.15-.208.306-.29.465-.083.16-.137.307-.162.441l-.457 2.31h-.812l.752-3.894-.735-.085V3.01l1.32-.287h.35l-.183.927c.179-.29.382-.516.61-.68.228-.165.474-.247.739-.247.105 0 .194.02.265.06a.54.54 0 0 1 .173.155.63.63 0 0 1 .094.202.807.807 0 0 1 .027.2Zm2.973 1.123c0-.218-.02-.41-.06-.577a1.481 1.481 0 0 0-.162-.42.762.762 0 0 0-.246-.26.573.573 0 0 0-.31-.09.788.788 0 0 0-.531.217 1.9 1.9 0 0 0-.425.569c-.12.234-.214.498-.282.792a3.93 3.93 0 0 0-.103.888c0 .227.02.425.06.595.04.17.096.313.167.428.071.115.154.2.247.257a.585.585 0 0 0 .308.085.735.735 0 0 0 .387-.11c.12-.073.23-.171.328-.295.099-.124.186-.268.263-.432a3.915 3.915 0 0 0 .318-1.088c.027-.193.04-.38.04-.559Zm.884.04a3.343 3.343 0 0 1-.306 1.401 3.011 3.011 0 0 1-.354.584 2.48 2.48 0 0 1-.466.461c-.172.13-.36.232-.561.305-.202.073-.416.11-.64.11-.24 0-.456-.04-.65-.121a1.33 1.33 0 0 1-.491-.347 1.575 1.575 0 0 1-.31-.546 2.221 2.221 0 0 1-.109-.719 3.493 3.493 0 0 1 .297-1.414 3.15 3.15 0 0 1 .348-.597c.137-.184.291-.342.464-.475.172-.133.36-.236.563-.31a1.866 1.866 0 0 1 1.247-.01c.19.069.356.176.5.322.144.147.258.332.342.555.084.224.126.491.126.802Zm3.34-1.203a.436.436 0 0 1-.07.257.493.493 0 0 1-.166.15.691.691 0 0 1-.207.074 1.524 1.524 0 0 1-.19.024l-.393-.56a.332.332 0 0 0-.218-.07.432.432 0 0 0-.243.064.545.545 0 0 0-.16.161.652.652 0 0 0-.088.206.887.887 0 0 0-.025.2c0 .083.022.167.068.252.046.085.105.17.18.255.073.085.157.169.25.25.092.083.185.163.279.24.097.081.19.164.28.249.09.085.17.173.24.264.072.09.129.187.172.288a.81.81 0 0 1 .064.318 1.386 1.386 0 0 1-.43 1.003 1.54 1.54 0 0 1-.525.32 2.028 2.028 0 0 1-.72.118 1.8 1.8 0 0 1-.546-.073 1.19 1.19 0 0 1-.38-.193.77.77 0 0 1-.222-.27.71.71 0 0 1-.073-.31c0-.146.042-.264.126-.355.084-.091.216-.137.395-.137a.52.52 0 0 1 .154.023.929.929 0 0 1 .133.051.649.649 0 0 1 .17.119l-.166.447c.063.093.14.171.233.235a.62.62 0 0 0 .36.096.637.637 0 0 0 .257-.053.687.687 0 0 0 .371-.392.855.855 0 0 0 .056-.315.65.65 0 0 0-.054-.262 1.005 1.005 0 0 0-.15-.24 2.01 2.01 0 0 0-.226-.23 7.682 7.682 0 0 0-.288-.24 3.113 3.113 0 0 1-.262-.241 2.137 2.137 0 0 1-.227-.276 1.397 1.397 0 0 1-.16-.306.946.946 0 0 1-.06-.331c0-.224.049-.422.146-.596.096-.173.22-.318.373-.436a1.64 1.64 0 0 1 .508-.266c.187-.06.37-.09.55-.09.164 0 .303.02.416.06.112.041.203.09.273.148.07.059.12.121.15.188.03.068.044.128.044.182Zm7.084 3.741a3.241 3.241 0 0 1-.84.293 1.21 1.21 0 0 1-.245.03.597.597 0 0 1-.21-.039.96.96 0 0 1-.362-.237.971.971 0 0 1-.128-.159 2.744 2.744 0 0 1-.135-.244 13.223 13.223 0 0 1-.326-.702 125.955 125.955 0 0 1-.423-.97l-.402.377-.358 1.861h-.803l1.161-6.122-.768-.08V.772L31.717.5h.35l-.81 4.26 1.413-1.53a4.54 4.54 0 0 1 .226-.23c.068-.065.135-.117.199-.157a.749.749 0 0 1 .408-.119c.096 0 .181.015.254.045a.53.53 0 0 1 .179.116.464.464 0 0 1 .135.336.518.518 0 0 1-.14.325c-.092.111-.24.205-.446.28l-.298-.332a27.48 27.48 0 0 0-.808.712l-.23.215a3.9 3.9 0 0 1 .121.29c.045.117.092.241.141.374.05.133.104.269.163.407.058.14.12.271.185.396.066.129.135.252.208.37.072.118.147.222.224.313.077.091.155.163.235.217a.42.42 0 0 0 .35.07c.045-.008.094-.018.145-.03a1.364 1.364 0 0 0 .282-.098v.313Zm4.719.027a9.653 9.653 0 0 1-.504.168c-.114.034-.23.064-.35.09-.12.025-.225.037-.316.037-.052 0-.122-.005-.212-.015a.868.868 0 0 1-.258-.072.49.49 0 0 1-.2-.163c-.052-.072-.065-.169-.04-.291l.535-2.815a.809.809 0 0 0 .002-.305.459.459 0 0 0-.09-.194.333.333 0 0 0-.143-.103.456.456 0 0 0-.154-.03.712.712 0 0 0-.263.066c-.103.043-.213.1-.328.172a3.135 3.135 0 0 0-.669.56l-.602 3.078h-.815l.76-3.893-.735-.085V3.01l1.32-.287h.35l-.162.855c.096-.101.207-.204.333-.306a2.594 2.594 0 0 1 .843-.473c.153-.05.301-.076.447-.076.318 0 .545.093.68.278.136.185.17.483.101.895l-.465 2.587a.324.324 0 0 0 .019.206c.027.05.062.09.106.116.045.027.09.044.14.051a.788.788 0 0 0 .11.012c.08 0 .167-.012.26-.036.095-.024.191-.052.291-.085l.009.322Zm4.168-3.603a1.756 1.756 0 0 0-.15.197 5.27 5.27 0 0 0-.203.322c-.07.12-.138.243-.205.37-.066.126-.12.238-.16.333a26.6 26.6 0 0 0-.22.533 28.32 28.32 0 0 1-.621 1.42 11.89 11.89 0 0 1-.83 1.472c-.156.235-.32.444-.494.628a2.475 2.475 0 0 1-.549.443 1.176 1.176 0 0 1-.6.167c-.16 0-.291-.02-.397-.062a.755.755 0 0 1-.252-.155.509.509 0 0 1-.13-.197.59.59 0 0 1-.036-.19.48.48 0 0 1 .044-.199.532.532 0 0 1 .127-.17.636.636 0 0 1 .192-.119.781.781 0 0 1 .239-.053l.508.532a.53.53 0 0 0 .27-.114c.087-.067.18-.168.279-.302a5.45 5.45 0 0 0 .322-.506c.117-.203.25-.446.397-.73a12.32 12.32 0 0 0-.042-.239l-.084-.452a83.229 83.229 0 0 0-.24-1.242c-.047-.214-.094-.43-.144-.646-.05-.217-.098-.411-.145-.584a7.813 7.813 0 0 0-.126-.425c-.037-.11-.066-.168-.086-.17l-.794-.063v-.228l.12-.04c.057-.022.12-.043.188-.066l.217-.071a5.486 5.486 0 0 1 .404-.117.445.445 0 0 1 .37.05.652.652 0 0 1 .19.199c.055.086.106.19.153.31.047.122.092.258.135.41.074.272.15.608.23 1.01.08.4.163.848.248 1.34l1.332-3.339h.252l.726.25v.211l-.435.282Zm3.015 4.592a.532.532 0 0 0-.094-.304c-.063-.093-.18-.18-.35-.264l-1.094-.52a1.11 1.11 0 0 0-.348.148.788.788 0 0 0-.335.465 1.1 1.1 0 0 0-.034.274c0 .104.021.219.064.344a1.092 1.092 0 0 0 .538.62c.137.073.297.11.483.11.21 0 .39-.032.538-.094.148-.063.269-.139.363-.228a.866.866 0 0 0 .205-.285.69.69 0 0 0 .064-.266Zm-.094-4.095c0-.113-.01-.222-.03-.324a1.002 1.002 0 0 0-.092-.273.529.529 0 0 0-.158-.188.38.38 0 0 0-.229-.07.555.555 0 0 0-.324.121c-.111.08-.213.191-.305.331a2.026 2.026 0 0 0-.314 1.096c0 .111.011.213.034.307a.766.766 0 0 0 .1.242c.044.067.097.12.158.157a.39.39 0 0 0 .207.056.608.608 0 0 0 .395-.146c.118-.097.219-.218.301-.365.083-.146.146-.304.19-.474.045-.17.067-.327.067-.47Zm.726-.568c.025.068.05.156.074.264.025.107.037.223.037.349 0 .292-.052.547-.154.765-.103.218-.24.4-.414.546a1.756 1.756 0 0 1-.605.329c-.229.073-.47.11-.723.11a.991.991 0 0 0-.052.147 1.673 1.673 0 0 0-.05.302.262.262 0 0 0 .008.101l1.17.56c.134.062.255.126.365.19.11.064.203.134.282.21a.82.82 0 0 1 .181.26.856.856 0 0 1 .064.347c0 .13-.029.258-.087.382-.059.124-.138.24-.24.35-.1.108-.222.209-.362.301a2.6 2.6 0 0 1-.457.238 2.9 2.9 0 0 1-1.066.205 2.26 2.26 0 0 1-.747-.111 1.569 1.569 0 0 1-.523-.296 1.156 1.156 0 0 1-.308-.425c-.067-.161-.1-.33-.1-.506 0-.155.03-.298.092-.43.06-.13.144-.248.25-.353.105-.104.228-.197.369-.277.14-.08.291-.15.45-.206a.781.781 0 0 1-.002-.253 2.04 2.04 0 0 1 .064-.296c.03-.1.07-.196.118-.288a.998.998 0 0 1 .162-.233 2.059 2.059 0 0 1-.325-.186c-.1-.07-.185-.15-.258-.241a1.057 1.057 0 0 1-.17-.314 1.192 1.192 0 0 1-.063-.396 1.896 1.896 0 0 1 .468-1.242 1.683 1.683 0 0 1 1.3-.575c.106 0 .205.01.297.03a1.988 1.988 0 0 1 .449.145.95.95 0 0 1 .121.067h1.188v.43h-.803Zm3.676 1.07a2.5 2.5 0 0 0-.06-.578 1.478 1.478 0 0 0-.162-.42.762.762 0 0 0-.245-.26.573.573 0 0 0-.31-.09.788.788 0 0 0-.531.217 1.9 1.9 0 0 0-.425.569 3.873 3.873 0 0 0-.385 1.68c0 .227.02.425.06.595.04.17.096.313.167.428.07.115.153.2.247.257a.584.584 0 0 0 .308.085.735.735 0 0 0 .386-.11 1.24 1.24 0 0 0 .33-.295c.097-.124.185-.268.262-.432a3.901 3.901 0 0 0 .318-1.088c.027-.193.04-.38.04-.559Zm.885.04a3.343 3.343 0 0 1-.306 1.4 3.012 3.012 0 0 1-.354.584 2.478 2.478 0 0 1-.466.461c-.172.13-.36.232-.561.305a1.87 1.87 0 0 1-.64.11c-.24 0-.456-.04-.65-.121a1.33 1.33 0 0 1-.491-.347 1.575 1.575 0 0 1-.31-.546 2.221 2.221 0 0 1-.109-.719 3.493 3.493 0 0 1 .297-1.414 3.15 3.15 0 0 1 .348-.597c.137-.184.291-.342.464-.475.172-.133.36-.236.563-.31a1.866 1.866 0 0 1 1.247-.01c.19.069.356.176.5.322.144.147.258.332.342.555.084.224.126.491.126.802Zm3.339-1.204a.436.436 0 0 1-.068.257.493.493 0 0 1-.167.15.69.69 0 0 1-.207.074 1.524 1.524 0 0 1-.19.024l-.393-.56a.332.332 0 0 0-.218-.07.432.432 0 0 0-.243.064.546.546 0 0 0-.16.161.654.654 0 0 0-.088.206.881.881 0 0 0-.025.2c0 .083.022.167.068.252.046.085.105.17.18.255.073.085.157.169.25.25.092.083.185.163.279.24.097.081.19.164.28.249.09.085.17.173.24.264.072.09.129.187.172.288a.811.811 0 0 1 .064.318 1.386 1.386 0 0 1-.43 1.003 1.55 1.55 0 0 1-.525.32 2.028 2.028 0 0 1-.72.118 1.8 1.8 0 0 1-.546-.073 1.19 1.19 0 0 1-.38-.193.768.768 0 0 1-.222-.27.71.71 0 0 1-.073-.31c0-.146.042-.264.126-.355.084-.091.216-.137.395-.137.054 0 .106.008.154.023a.924.924 0 0 1 .132.051.644.644 0 0 1 .171.119l-.166.447c.062.093.14.171.232.235a.62.62 0 0 0 .361.096.638.638 0 0 0 .256-.053.685.685 0 0 0 .372-.392.855.855 0 0 0 .055-.315.65.65 0 0 0-.053-.262 1.005 1.005 0 0 0-.15-.24 2.018 2.018 0 0 0-.226-.23 7.689 7.689 0 0 0-.288-.24 3.127 3.127 0 0 1-.263-.241 2.146 2.146 0 0 1-.226-.276 1.397 1.397 0 0 1-.16-.306.946.946 0 0 1-.06-.331c0-.224.049-.422.145-.596.097-.173.222-.318.374-.436a1.64 1.64 0 0 1 .508-.266c.187-.06.37-.09.549-.09.165 0 .304.02.416.06.113.041.204.09.274.148.07.059.12.121.15.188.03.068.044.128.044.182Zm5.983.358c.003-.015-.008-.05-.032-.103a1.78 1.78 0 0 0-.088-.168 1.066 1.066 0 0 0-.108-.154c-.039-.045-.071-.068-.097-.068-.222 0-.42.038-.595.115a1.487 1.487 0 0 0-.46.308c-.13.13-.242.28-.335.45-.092.17-.167.348-.224.533a3.513 3.513 0 0 0-.124.56 3.985 3.985 0 0 0-.038.536c0 .128.01.257.03.385.02.128.054.245.104.35a.68.68 0 0 0 .205.254.54.54 0 0 0 .336.099.723.723 0 0 0 .307-.072 2.056 2.056 0 0 0 .517-.354 4.17 4.17 0 0 0 .145-.143l.457-2.528Zm1.285 3.347-.188.083a4.582 4.582 0 0 1-.646.228 1.172 1.172 0 0 1-.302.047.774.774 0 0 1-.267-.04.433.433 0 0 1-.179-.12.562.562 0 0 1-.109-.198 1.172 1.172 0 0 1-.051-.268 3.318 3.318 0 0 1-.23.208 2.22 2.22 0 0 1-.293.204 1.79 1.79 0 0 1-.342.154c-.12.04-.247.06-.378.06-.17 0-.32-.025-.45-.076a1.082 1.082 0 0 1-.568-.499 1.868 1.868 0 0 1-.148-.349 2.048 2.048 0 0 1-.076-.367 3.068 3.068 0 0 1-.022-.351 3.606 3.606 0 0 1 .288-1.408 3.15 3.15 0 0 1 .357-.624c.142-.194.307-.362.493-.506a2.222 2.222 0 0 1 1.377-.461c.08 0 .16.01.237.03a1.247 1.247 0 0 1 .408.18c.057.04.106.08.146.121l.128-.219h.597a17.463 17.463 0 0 0-.098.277c-.017.051-.032.1-.044.144a.71.71 0 0 0-.024.103 22.147 22.147 0 0 0-.203.913l-.128.638a25.106 25.106 0 0 0-.203 1.159 2.576 2.576 0 0 0-.034.333c0 .161.033.272.098.331.066.06.158.09.278.09.028 0 .07-.007.126-.02a3.35 3.35 0 0 0 .173-.047 21.081 21.081 0 0 1 .277-.08v.33Zm1.798-3.593-.55 2.877a.375.375 0 0 0 .117.378c.05.044.108.077.175.101a.624.624 0 0 0 .211.036c.083 0 .168-.008.257-.025.088-.016.172-.036.254-.06a3.815 3.815 0 0 0 .399-.139v.367a5.822 5.822 0 0 1-1.008.36c-.15.038-.289.056-.414.056-.16 0-.292-.02-.397-.06a.634.634 0 0 1-.252-.166.62.62 0 0 1-.135-.25 1.173 1.173 0 0 1-.04-.316c0-.06.002-.12.006-.183s.014-.127.028-.193l.534-2.783-.551.053v-.3l.657-.304.427-.917h.534l-.175 1.047h1.209v.42h-1.286Zm4.945-.14c0 .078-.007.151-.021.22a2.06 2.06 0 0 1-.05.193 1.43 1.43 0 0 1-.059.16l-.053.117a12.87 12.87 0 0 1-.624 1.079 19.725 19.725 0 0 1-1.26 1.738c-.19.235-.353.43-.486.584h-.504a2.53 2.53 0 0 0 .136-.373 1.02 1.02 0 0 0 .039-.325l-.009-.136a43.548 43.548 0 0 0-.107-1.283 78.669 78.669 0 0 0-.053-.539 15.483 15.483 0 0 0-.124-.922 1.737 1.737 0 0 0-.066-.275.51.51 0 0 0-.085-.139.152.152 0 0 0-.116-.045l-.623-.035v-.264l.935-.305c.24.006.413.062.521.168.108.106.174.268.197.486l.273 2.82c.148-.204.285-.397.41-.58.125-.184.24-.362.344-.535.103-.173.198-.345.284-.517.085-.172.162-.348.23-.53l-.166-1.11a.65.65 0 0 1 .213-.146.719.719 0 0 1 .29-.056c.188 0 .324.05.408.15.084.1.126.234.126.4Zm2.268 3.715-.188.085a3.858 3.858 0 0 1-.707.242c-.135.033-.262.05-.382.05a.687.687 0 0 1-.359-.081.506.506 0 0 1-.196-.21.739.739 0 0 1-.073-.291 1.318 1.318 0 0 1 .022-.318l.56-3.106-.752-.085V3.01l1.32-.287h.358l-.662 3.666a.445.445 0 0 0 .066.329.327.327 0 0 0 .276.14c.05 0 .111-.01.181-.028.07-.02.14-.042.21-.068.07-.025.134-.05.194-.073.06-.024.103-.04.132-.05v.35Zm-.038-5.612a.524.524 0 0 1-.14.358.48.48 0 0 1-.164.114.565.565 0 0 1-.226.043c-.18 0-.315-.05-.406-.15a.522.522 0 0 1-.1-.544.517.517 0 0 1 .107-.163.556.556 0 0 1 .408-.168.515.515 0 0 1 .486.324.528.528 0 0 1 .035.186Zm3.638 1.965a.514.514 0 0 1-.056.257.356.356 0 0 1-.157.146.756.756 0 0 1-.246.065c-.095.01-.203.015-.323.015l-.209-.438a1.27 1.27 0 0 0-.348.248 3.06 3.06 0 0 0-.352.403c-.111.15-.208.306-.29.465-.083.16-.137.307-.163.441l-.457 2.31h-.811l.752-3.894-.735-.085V3.01l1.32-.287h.35l-.184.927c.18-.29.383-.516.61-.68.228-.165.475-.247.74-.247a.53.53 0 0 1 .264.06.51.51 0 0 1 .173.155.61.61 0 0 1 .094.202.807.807 0 0 1 .028.2Zm2.947.318c.003-.015-.008-.05-.032-.103a1.758 1.758 0 0 0-.088-.168 1.058 1.058 0 0 0-.109-.154c-.038-.045-.07-.068-.096-.068-.222 0-.42.038-.596.115a1.487 1.487 0 0 0-.459.308c-.13.13-.242.28-.335.45-.093.17-.167.348-.224.533a3.513 3.513 0 0 0-.124.56 3.985 3.985 0 0 0-.038.536c0 .128.01.257.03.385.02.128.054.245.104.35a.68.68 0 0 0 .205.254.54.54 0 0 0 .335.099.723.723 0 0 0 .308-.072 2.056 2.056 0 0 0 .517-.354c.065-.062.113-.11.145-.143l.457-2.528Zm1.285 3.347-.188.083a4.582 4.582 0 0 1-.647.228 1.172 1.172 0 0 1-.3.047.774.774 0 0 1-.268-.04.433.433 0 0 1-.18-.12.566.566 0 0 1-.108-.198 1.172 1.172 0 0 1-.051-.268 3.318 3.318 0 0 1-.23.208 2.22 2.22 0 0 1-.293.204 1.79 1.79 0 0 1-.342.154c-.121.04-.247.06-.378.06-.17 0-.321-.025-.45-.076a1.082 1.082 0 0 1-.569-.499 1.861 1.861 0 0 1-.147-.349 2.04 2.04 0 0 1-.077-.367 3.068 3.068 0 0 1-.021-.351 3.606 3.606 0 0 1 .288-1.408 3.15 3.15 0 0 1 .357-.624c.142-.194.306-.362.493-.506a2.222 2.222 0 0 1 1.377-.461c.08 0 .159.01.237.03a1.247 1.247 0 0 1 .408.18c.057.04.105.08.145.121l.128-.219h.598l-.047.128-.051.15c-.017.05-.032.098-.045.143a.71.71 0 0 0-.023.103 22.147 22.147 0 0 0-.203.913l-.128.638a25.566 25.566 0 0 0-.203 1.159 2.576 2.576 0 0 0-.034.333c0 .161.032.272.098.331.065.06.158.09.277.09a.604.604 0 0 0 .126-.02 3.35 3.35 0 0 0 .174-.047 22.416 22.416 0 0 1 .277-.08v.33Zm6.79.01-.25.109c-.092.04-.188.078-.286.114a2.835 2.835 0 0 1-.292.09 1.144 1.144 0 0 1-.596-.007.66.66 0 0 1-.24-.123.44.44 0 0 1-.136-.202.544.544 0 0 1-.01-.277l.482-2.448c.028-.152.038-.285.03-.398a.799.799 0 0 0-.066-.282.423.423 0 0 0-.133-.168.28.28 0 0 0-.164-.056.872.872 0 0 0-.39.094 1.874 1.874 0 0 0-.349.221 2.168 2.168 0 0 0-.273.26c-.077.088-.13.159-.158.212l-.615 3.097h-.812l.585-2.99c.02-.098.03-.2.028-.306a1.008 1.008 0 0 0-.043-.288.512.512 0 0 0-.125-.215.306.306 0 0 0-.227-.085.688.688 0 0 0-.327.094 2.19 2.19 0 0 0-.333.224 3.105 3.105 0 0 0-.484.487l-.615 3.08h-.803l.751-3.894-.725-.085V3.01l1.31-.287h.36l-.167.846c.108-.107.223-.212.346-.315a2.84 2.84 0 0 1 .38-.271 2.29 2.29 0 0 1 .397-.188c.134-.048.265-.072.393-.072a.7.7 0 0 1 .36.085.721.721 0 0 1 .231.213.907.907 0 0 1 .128.275c.027.099.047.19.058.273a3.4 3.4 0 0 1 .752-.588c.14-.08.28-.142.424-.188a1.34 1.34 0 0 1 .417-.07.84.84 0 0 1 .382.083c.11.055.198.134.265.235.067.102.11.224.128.367.018.143.01.303-.023.479l-.492 2.475a.443.443 0 0 0 .084.362.379.379 0 0 0 .292.144.71.71 0 0 0 .248-.054c.094-.036.195-.073.303-.112v.313Zm5.757-2.56c0-.135-.014-.271-.04-.41a1.515 1.515 0 0 0-.125-.378.834.834 0 0 0-.211-.278.457.457 0 0 0-.303-.107.741.741 0 0 0-.316.074 1.863 1.863 0 0 0-.513.345 2.658 2.658 0 0 1-.128.113l-.52 2.842c.025.015.061.038.108.07a1.537 1.537 0 0 0 .365.17.736.736 0 0 0 .222.033c.16 0 .306-.037.44-.112.134-.074.255-.175.363-.302.108-.127.204-.273.286-.44.083-.168.151-.343.205-.526.054-.184.096-.37.124-.558.028-.188.043-.367.043-.537Zm.867-.036a3.235 3.235 0 0 1-.331 1.432 3.168 3.168 0 0 1-.387.604c-.15.185-.319.344-.504.479-.185.134-.386.24-.602.315a2.032 2.032 0 0 1-.679.114c-.13 0-.249-.019-.354-.058a3.684 3.684 0 0 1-.265-.107l-.278 1.472c-.011.05-.005.092.02.123.024.032.074.052.151.06l.551.05v.345H87.28v-.345l.457-.05c.123-.008.193-.07.21-.183l.986-5.312-.734-.085V3.01l1.323-.287h.342l-.107.569.254-.175c.096-.065.198-.127.306-.186.108-.058.221-.107.34-.147.117-.04.238-.06.36-.06a.96.96 0 0 1 .553.15c.147.1.263.23.35.39.087.162.149.344.186.547.037.203.056.406.056.609Zm3.544-.761c.003-.015-.008-.05-.032-.103a1.78 1.78 0 0 0-.088-.168 1.066 1.066 0 0 0-.108-.154c-.039-.045-.07-.068-.096-.068-.223 0-.421.038-.596.115a1.487 1.487 0 0 0-.46.308c-.13.13-.242.28-.335.45a2.89 2.89 0 0 0-.224.533 3.502 3.502 0 0 0-.124.56 3.985 3.985 0 0 0-.038.536c0 .128.01.257.03.385.02.128.055.245.105.35a.68.68 0 0 0 .205.254.54.54 0 0 0 .335.099.723.723 0 0 0 .307-.072 2.047 2.047 0 0 0 .517-.354 4.17 4.17 0 0 0 .145-.143l.457-2.528Zm1.285 3.347-.187.083a4.586 4.586 0 0 1-.647.228 1.172 1.172 0 0 1-.301.047.774.774 0 0 1-.267-.04.433.433 0 0 1-.18-.12.566.566 0 0 1-.109-.198 1.172 1.172 0 0 1-.05-.268 3.296 3.296 0 0 1-.231.208 2.22 2.22 0 0 1-.293.204 1.79 1.79 0 0 1-.342.154c-.12.04-.247.06-.378.06a1.23 1.23 0 0 1-.45-.076 1.081 1.081 0 0 1-.568-.499 1.861 1.861 0 0 1-.147-.349 2.048 2.048 0 0 1-.077-.367 3.091 3.091 0 0 1-.022-.351 3.606 3.606 0 0 1 .289-1.408 3.15 3.15 0 0 1 .356-.624c.142-.194.307-.362.493-.506a2.222 2.222 0 0 1 1.377-.461c.08 0 .16.01.238.03a1.249 1.249 0 0 1 .407.18c.057.04.106.08.146.121l.128-.219h.598a17.463 17.463 0 0 0-.098.277c-.018.051-.033.1-.045.144a.725.725 0 0 0-.024.103 22.147 22.147 0 0 0-.203.913l-.128.638a25.125 25.125 0 0 0-.203 1.159 2.576 2.576 0 0 0-.034.333c0 .161.033.272.098.331.066.06.158.09.278.09.028 0 .07-.007.126-.02a3.35 3.35 0 0 0 .173-.047 23.931 23.931 0 0 1 .278-.08v.33Zm3.084-3.705a.433.433 0 0 1-.235.407.69.69 0 0 1-.207.074 1.524 1.524 0 0 1-.19.024l-.393-.56a.332.332 0 0 0-.218-.07.432.432 0 0 0-.243.064.544.544 0 0 0-.16.161.652.652 0 0 0-.088.206.881.881 0 0 0-.026.2c0 .083.023.167.069.252.045.085.105.17.179.255.074.085.157.169.25.25.092.083.186.163.28.24.096.081.19.164.28.249.089.085.17.173.24.264.072.09.129.187.171.288a.811.811 0 0 1 .064.318 1.386 1.386 0 0 1-.429 1.003 1.55 1.55 0 0 1-.525.32c-.21.079-.45.118-.72.118a1.8 1.8 0 0 1-.546-.073 1.19 1.19 0 0 1-.38-.193.768.768 0 0 1-.222-.27.71.71 0 0 1-.073-.31c0-.146.042-.264.126-.355.084-.091.216-.137.395-.137a.52.52 0 0 1 .154.023.923.923 0 0 1 .132.051.645.645 0 0 1 .171.119l-.167.447c.063.093.14.171.233.235a.621.621 0 0 0 .361.096.637.637 0 0 0 .256-.053.687.687 0 0 0 .372-.392.855.855 0 0 0 .055-.315.65.65 0 0 0-.053-.262 1.005 1.005 0 0 0-.15-.24 2.01 2.01 0 0 0-.226-.23 7.609 7.609 0 0 0-.288-.24 3.127 3.127 0 0 1-.263-.241 2.137 2.137 0 0 1-.226-.276 1.397 1.397 0 0 1-.16-.306.946.946 0 0 1-.06-.331c0-.224.048-.422.145-.596a1.42 1.42 0 0 1 .374-.436 1.64 1.64 0 0 1 .508-.266c.187-.06.37-.09.549-.09.165 0 .304.02.416.06.113.041.204.09.273.148.07.059.12.121.15.188.03.068.045.128.045.182Zm3.42.358c.003-.015-.007-.05-.032-.103a1.747 1.747 0 0 0-.087-.168 1.082 1.082 0 0 0-.109-.154c-.039-.045-.071-.068-.096-.068-.222 0-.421.038-.596.115a1.489 1.489 0 0 0-.459.308c-.131.13-.243.28-.335.45-.093.17-.167.348-.224.533a3.925 3.925 0 0 0-.163 1.096c0 .128.01.257.03.385.02.128.055.245.105.35.05.104.118.189.205.254a.54.54 0 0 0 .335.099.725.725 0 0 0 .308-.072 1.877 1.877 0 0 0 .516-.353 3.99 3.99 0 0 0 .145-.144l.457-2.528Zm1.286 3.347-.188.083a4.636 4.636 0 0 1-.647.228 1.172 1.172 0 0 1-.301.047.773.773 0 0 1-.267-.04.43.43 0 0 1-.179-.12.553.553 0 0 1-.109-.198 1.175 1.175 0 0 1-.052-.268 3.232 3.232 0 0 1-.23.208 2.188 2.188 0 0 1-.293.204c-.106.062-.22.114-.341.154-.121.04-.247.06-.378.06-.171 0-.321-.025-.451-.076a1.087 1.087 0 0 1-.568-.499 2.031 2.031 0 0 1-.224-.716 3.134 3.134 0 0 1-.021-.351 3.635 3.635 0 0 1 .288-1.408 3.11 3.11 0 0 1 .357-.624c.142-.194.306-.362.493-.506a2.224 2.224 0 0 1 1.377-.461c.08 0 .159.01.237.03a1.244 1.244 0 0 1 .408.18c.057.04.105.08.145.121l.128-.219h.598l-.047.128a17.533 17.533 0 0 0-.096.293.727.727 0 0 0-.024.103l-.085.365c-.037.162-.076.345-.117.548l-.129.638a25.03 25.03 0 0 0-.202 1.159 2.578 2.578 0 0 0-.035.333c0 .161.033.272.099.331.065.06.158.09.277.09a.579.579 0 0 0 .126-.02 3.27 3.27 0 0 0 .173-.047l.167-.05a4.24 4.24 0 0 1 .111-.03v.33Zm4.612.027a1.645 1.645 0 0 1-.224.108 3.4 3.4 0 0 1-.649.19c-.116.022-.22.033-.314.033-.165 0-.288-.029-.368-.087a.464.464 0 0 1-.164-.201.58.58 0 0 1-.041-.23c.003-.078.005-.135.005-.17a2.524 2.524 0 0 1-.724.516 1.95 1.95 0 0 1-.818.172.974.974 0 0 1-.495-.112.783.783 0 0 1-.291-.281.933.933 0 0 1-.119-.372 1.261 1.261 0 0 1 .013-.38l.568-2.86-.735-.085V3.01l1.32-.287h.358l-.696 3.496a.405.405 0 0 0 .011.221.567.567 0 0 0 .267.309.38.38 0 0 0 .175.047c.105 0 .211-.016.318-.047.107-.031.213-.074.318-.128a2.335 2.335 0 0 0 .572-.412l.662-3.374h.816l-.7 3.527a.48.48 0 0 0 0 .24.37.37 0 0 0 .232.248.476.476 0 0 0 .152.027 1.018 1.018 0 0 0 .551-.166v.322Zm2.332-.018a9.474 9.474 0 0 1-.509.195c-.116.04-.238.076-.365.107a1.44 1.44 0 0 1-.344.047c-.133 0-.247-.016-.341-.049a.604.604 0 0 1-.231-.139.527.527 0 0 1-.13-.212.862.862 0 0 1-.041-.271c0-.092.009-.2.026-.322l.961-5.24-.777-.082V.773L111.34.5h.338l-1.064 5.845a.446.446 0 0 0 .227.461c.054.03.112.045.175.045a.77.77 0 0 0 .168-.025 3.932 3.932 0 0 0 .41-.119c.062-.02.105-.034.131-.04v.35Zm2.323-.027-.188.085a3.944 3.944 0 0 1-.707.242c-.135.033-.263.05-.382.05a.687.687 0 0 1-.359-.081.502.502 0 0 1-.196-.21.739.739 0 0 1-.073-.291 1.298 1.298 0 0 1 .021-.318l.56-3.106-.752-.085V3.01l1.32-.287h.359l-.662 3.666a.43.43 0 0 0 .066.329.326.326 0 0 0 .275.14c.051 0 .112-.01.182-.028.069-.02.139-.042.209-.068.07-.025.135-.05.194-.073.06-.024.104-.04.133-.05v.35Zm-.039-5.612a.528.528 0 0 1-.139.358.472.472 0 0 1-.164.114.563.563 0 0 1-.226.043c-.18 0-.315-.05-.406-.15a.523.523 0 0 1-.1-.544.51.51 0 0 1 .106-.163.56.56 0 0 1 .628-.123.485.485 0 0 1 .267.28.523.523 0 0 1 .034.185Zm4.642 5.657a1.645 1.645 0 0 1-.224.108 3.662 3.662 0 0 1-.649.19c-.115.022-.22.033-.314.033-.165 0-.287-.029-.367-.087a.46.46 0 0 1-.165-.201.563.563 0 0 1-.04-.23 4.62 4.62 0 0 0 .004-.17 2.524 2.524 0 0 1-.724.516 1.946 1.946 0 0 1-.818.172.974.974 0 0 1-.495-.112.773.773 0 0 1-.29-.281.92.92 0 0 1-.12-.372 1.294 1.294 0 0 1 .013-.38l.568-2.86-.735-.085V3.01l1.32-.287h.359l-.696 3.496a.395.395 0 0 0 .01.221.567.567 0 0 0 .267.309.38.38 0 0 0 .175.047c.106 0 .212-.016.318-.047.107-.031.213-.074.319-.128a2.32 2.32 0 0 0 .572-.411l.662-3.375h.815l-.7 3.527a.48.48 0 0 0 0 .24c.02.063.051.116.092.158a.355.355 0 0 0 .141.09.466.466 0 0 0 .151.027 1.005 1.005 0 0 0 .551-.166v.322Zm2.332-.045-.188.085a3.905 3.905 0 0 1-.707.242c-.135.033-.262.05-.382.05a.69.69 0 0 1-.359-.081.508.508 0 0 1-.196-.21.739.739 0 0 1-.073-.291 1.35 1.35 0 0 1 .022-.318l.559-3.106-.752-.085V3.01l1.32-.287h.359l-.662 3.666a.43.43 0 0 0 .066.329.326.326 0 0 0 .275.14c.052 0 .112-.01.182-.028.07-.02.139-.042.209-.068.07-.025.135-.05.195-.073.059-.024.103-.04.132-.05v.35Zm-.039-5.612a.528.528 0 0 1-.138.358.476.476 0 0 1-.165.114.563.563 0 0 1-.226.043c-.179 0-.315-.05-.406-.15a.522.522 0 0 1 .007-.707.55.55 0 0 1 .407-.168.514.514 0 0 1 .487.324.523.523 0 0 1 .034.186Z"/></svg>