<svg xmlns="http://www.w3.org/2000/svg" width="120" height="21" fill="none"><path fill="#000" fill-rule="evenodd" d="M119.887 17.482c.151-.162.151-.728 0-.89-1.761-.08-2.19-.214-2.189-2.451V3.34c0-2.235.428-2.37 2.189-2.452.151-.162.151-.728 0-.889l-.727.017c-.848.021-1.531.038-2.543.038-.89 0-1.516-.015-2.25-.033-.305-.007-.628-.015-.996-.022-.152.162-.152.727 0 .89 1.358.063 1.926.161 2.111 1.226a4.79 4.79 0 0 1-.664 1.308l-6.916 9.211c-.184.196-.328.289-.446.297V3.344c0-2.235.427-2.37 2.19-2.45.149-.164.149-.73 0-.891l-.727.017c-.848.021-1.532.038-2.545.038-.889 0-1.513-.015-2.246-.033-.305-.007-.629-.015-.998-.022-.151.163-.151.73 0 .891 1.76.08 2.19.215 2.19 2.45v10.8c0 2.234-.429 2.37-2.19 2.45-.151.163-.151.73 0 .891l.681-.016c.868-.022 1.559-.04 2.589-.04.901 0 1.53.016 2.278.034.296.007.61.015.968.022.149-.163.149-.729 0-.89-1.376-.06-1.94-.162-2.119-1.272.138-.512.328-.755.55-1.037.055-.07.112-.143.171-.223l6.871-9.158c.124-.163.253-.285.442-.351v9.588c0 2.235-.428 2.37-2.19 2.45-.152.162-.152.728 0 .89l.766-.018c.83-.02 1.508-.037 2.506-.037.877 0 1.496.015 2.217.032l1.027.023ZM12.193 4.15c0-1.804-.749-4.148-5.537-4.148-.423 0-.915.012-1.432.024-.583.015-1.199.03-1.786.029C2.517.055 1.874.04 1.11.023.806.016.483.008.116 0c-.155.162-.155.727 0 .89 1.803.081 2.241.216 2.241 2.452v10.802c0 2.236-.438 2.37-2.24 2.451-.156.162-.156.728 0 .89l.787-.018c.85-.02 1.543-.037 2.561-.037.453 0 .78.01 1.167.02.558.016 1.238.034 2.59.034 5.126 0 6.49-2.694 6.49-5.01 0-2.586-1.725-4.069-3.965-4.742v-.055c1.29-.683 2.446-2.065 2.446-3.528ZM6.388 7.57h-1.89v-5.5c0-.89 0-1.16 2.224-1.16 1.429 0 3.294.81 3.294 3.56 0 2.29-1.509 3.1-3.628 3.1Zm.23 9.035c-1.787 0-2.121-.917-2.121-1.807h.001v-6.31h1.763c3.498 0 4.955 2.077 4.955 4.504 0 1.969-.716 3.613-4.598 3.613Zm22.627.878c.12-.114.12-.52 0-.634-1.398-.057-1.737-.154-1.738-1.752V7.38c0-1.596.34-1.692 1.738-1.751.12-.114.12-.52 0-.634l-.8.015h-.001c-.576.012-1.085.022-1.797.022-.776 0-1.299-.01-1.962-.024l-.616-.013c-.12.113-.12.52 0 .634 1.08.045 1.529.114 1.676.877-.115.312-.3.661-.527.933l-5.49 6.58c-.146.143-.26.207-.353.213V7.383c0-1.598.34-1.692 1.74-1.751.12-.115.12-.52 0-.636l-.73.015c-.607.013-1.126.024-1.87.024-.81 0-1.344-.012-2.05-.027l-.527-.012c-.12.115-.12.522 0 .636 1.399.057 1.74.153 1.74 1.751V15.1c0 1.597-.342 1.691-1.74 1.751-.12.113-.12.52 0 .634l.424-.008.342-.006c.59-.013 1.104-.023 1.832-.023.793 0 1.321.01 2.006.026l.268.005.304.006c.12-.113.12-.522 0-.634-1.096-.045-1.54-.116-1.683-.911.112-.368.262-.541.439-.744.043-.049.087-.1.132-.155l5.457-6.543c.097-.114.2-.2.349-.25v6.85c0 1.597-.34 1.693-1.738 1.751-.121.114-.121.52 0 .634.278-.004.525-.01.76-.014h.004c.591-.013 1.105-.024 1.833-.024.794 0 1.324.012 2.01.027l.196.004.372.008Zm2.465-.398c0-.096.062-.15.143-.15l.545-.039c.848-.06 1.089-.27 1.089-.805V6.47c0-.573-.303-.744-1.09-.803l-.523-.037c-.08 0-.162-.06-.162-.154v-.362l.041-.039.226.005.281.006a78.785 78.785 0 0 0 4.017.003c.21-.004.432-.01.68-.014l.04.04v.36c0 .097-.062.155-.162.155l-.523.037c-.806.06-1.109.27-1.109.803v3.977c.726 0 1.634-.02 2.117-.287 1.19-.611 1.473-1.835 1.654-2.905.201-1.187.768-2.259 2.36-2.259 1.067 0 1.432.556 1.432.996 0 .556-.466.767-.89.767-.261 0-.543-.098-.746-.29-.221-.21-.382-.305-.644-.305-.604 0-.744.632-.85 1.185-.221 1.187-.644 2.83-2.177 3.366v.096c1.39 0 2.178.822 2.72 2.16 1.052 2.582 2.076 3.885 2.783 3.939l.322.02c.102 0 .162.06.162.154v.361l-.02.04-1.595-.02c-1.573-.021-2.3-1.569-3.166-3.674-.79-1.912-1.17-2.544-3.469-2.544v4.84c0 .572.304.744 1.109.805l.523.037c.081 0 .162.059.162.152v.361l-.04.04c-.97-.04-1.554-.04-2.562-.04-1.007 0-1.654 0-2.64.04l-.042-.04.004-.358Zm27.257.398c.12-.114.12-.52 0-.634-1.398-.057-1.74-.154-1.74-1.752V7.38c0-1.596.342-1.692 1.74-1.751.12-.114.12-.52 0-.634l-.803.015c-.575.012-1.083.022-1.795.022-.775 0-1.298-.01-1.96-.024h-.005l-.25-.006-.363-.007c-.12.113-.12.52 0 .634 1.08.045 1.53.114 1.678.877a3.345 3.345 0 0 1-.529.933l-5.49 6.58c-.145.143-.261.207-.352.213V7.383c0-1.598.339-1.692 1.737-1.751.12-.115.12-.52 0-.636l-.73.015c-.606.013-1.125.024-1.868.024-.81 0-1.345-.012-2.053-.027l-.273-.006-.25-.006c-.122.115-.122.522 0 .636 1.398.057 1.737.153 1.737 1.751V15.1c0 1.597-.34 1.691-1.738 1.751-.12.113-.12.52 0 .634.28-.004.529-.01.766-.014.59-.013 1.103-.023 1.832-.023.793 0 1.322.01 2.006.026l.277.005.294.006c.12-.113.12-.522 0-.634-1.096-.045-1.54-.116-1.683-.911.11-.368.261-.54.438-.743.043-.05.087-.1.133-.156l5.457-6.543a.772.772 0 0 1 .35-.25v6.85c0 1.597-.341 1.693-1.739 1.751-.12.114-.12.52 0 .634.28-.004.53-.01.767-.015.59-.012 1.104-.023 1.832-.023.792 0 1.321.012 2.006.026l.27.006.3.006ZM74.45 4.997c.123.113.123.52 0 .634-1.415.06-1.76.155-1.76 1.751v7.719c0 1.597.345 1.692 1.76 1.751.123.114.123.52 0 .634l-.514-.01h-.006a88.032 88.032 0 0 0-2.109-.027c-.709 0-1.208.01-1.79.022l-.82.015c-.121-.113-.121-.52 0-.634 1.416-.059 1.762-.154 1.762-1.751V7.229c0-1.192-.445-1.423-.933-1.423h-3.984c-.484 0-.931.228-.931 1.423v7.872c0 1.597.343 1.692 1.76 1.751.12.114.12.52 0 .634l-.553-.01-.018-.001h-.007a85.266 85.266 0 0 0-2.03-.027c-.736 0-1.258.011-1.857.023l-.35.008-.424.008c-.121-.114-.121-.521 0-.635 1.417-.059 1.76-.154 1.76-1.751V7.382c0-1.596-.343-1.693-1.76-1.751-.121-.114-.121-.52 0-.634 1.013.02 2.144.037 2.608.037h7.587c.538.002 1.563-.017 2.558-.036h.05Zm10.073 4.224c-.124-.115-.55-.115-.672 0-.061 1.054-.124 1.304-1.857 1.302h-1.856V6.687c0-.46.245-.845.733-.845h2.142c1.53 0 1.855.769 2.303 2.092.253.033.474-.006.675-.097-.102-.786-.409-2.63-.449-2.78 0-.04-.019-.06-.082-.06-.346.056-.51.077-.997.077h-5.2s-1.61-.018-2.628-.039c-.125.114-.125.52 0 .634 1.424.057 1.773.151 1.773 1.745v7.693c0 1.592-.348 1.685-1.773 1.745-.125.112-.125.519 0 .633.998-.017 2.648-.038 2.648-.038h4.385c.978 0 2.61.038 2.61.038a29 29 0 0 0 .753-3.204.963.963 0 0 0-.714-.095c-.406 1.381-1.12 2.513-2.67 2.513h-2.772c-.45 0-.735-.305-.735-.823v-4.623h1.855c1.732 0 1.793.442 1.856 1.305.122.115.548.115.672 0-.005-.181-.01-.34-.016-.49-.014-.4-.025-.724-.025-1.197 0-.56.015-.951.032-1.414l.01-.236Zm7.626 2.445c.445-2.19.688-4.166.688-5.376 0-.403-.184-.603-.709-.651l-.606-.06c-.102 0-.162-.038-.162-.116V5.06l.04-.039s1.417.04 2.024.04h5.283c.607 0 2.207-.04 2.207-.04l.04.04v.363c0 .116-.078.147-.16.154l-.589.039c-.649.042-.75.286-.75.979v9.35c0 .711.457.925.813.983.438.07.594.137.607.363l.142 2.845c-.548 0-.548.019-.548.019-.242-1.074-.975-2.709-2.591-2.709h-5.872c-1.682 0-2.207 1.712-2.433 2.709l-.546-.019.144-2.845c.014-.228.225-.335.425-.363h.003c.394-.06.718-.107 1.01-.386.529-.498.894-1.88 1.54-4.878Zm2.35-5.837c-.548 0-.75.268-.79.75-.163 1.939-.485 3.935-.728 5.24a101.269 101.269 0 0 1-.592 2.749c-.209.921-.359 1.584-.359 1.804 0 .23.265.325.546.325h4.434c.485 0 .729-.057.729-.767V6.575c0-.596-.121-.749-.748-.749L94.5 5.83Z" clip-rule="evenodd"/></svg>