<svg xmlns="http://www.w3.org/2000/svg" width="99" height="32" fill="none"><path fill="#595959" d="M98.04 20.736c0 3.486-1.202 6.473-3.603 8.96-.756.78-1.237 1.17-1.445 1.17-1.304 0-2.822-.134-4.553-.402-.597-.098-.896-.189-.896-.274 0-.098.317-.238.95-.42 1.903-.55 3.664-1.525 5.285-2.927a11.301 11.301 0 0 0 1.866-2.066c.707-.987 1.06-1.816 1.06-2.487v-.768l-3.053.11c-2.158.073-3.237-.823-3.237-2.688 0-1.158.335-2.401 1.006-3.73.768-1.512 1.645-2.268 2.633-2.268 1.463 0 2.548 1.006 3.255 3.017.487 1.402.731 2.993.731 4.773Zm-1.683-1.938c0-.744-.256-1.457-.768-2.14-.561-.731-1.201-1.097-1.92-1.097-.488 0-.911.183-1.271.549-.36.365-.54.792-.54 1.28 0 1.072.768 1.609 2.304 1.609.573 0 1.305-.067 2.195-.201ZM83.74 17.024c0 3.096-1.542 4.645-4.627 4.645H76.39v-2.707h2.395c2.329 0 3.493-.42 3.493-1.261 0-.586-.53-1.555-1.591-2.908l.95-2.304c.098-.232.178-.347.239-.347.06 0 .188.14.383.42.988 1.451 1.482 2.938 1.482 4.462Zm2.157 9.801-1.81 1.81-1.81-1.828 1.81-1.81 1.81 1.828Zm-4.004 0-1.81 1.81-1.81-1.828 1.791-1.81 1.829 1.828Z"/><path fill="#595959" d="M77.669 21.669h-1.207c-1.207 0-2.444-.659-3.712-1.975-.622-.646-1.53-1.841-2.725-3.584.122 3.706-1.969 5.559-6.272 5.559h-3.456v-2.707h3.785c3.146 0 4.718-.871 4.718-2.615 0-.926-.548-2.06-1.645-3.4-.695-.854-1.707-1.896-3.036-3.128-1.097-1.024-1.646-1.59-1.646-1.7 0-1.548.262-2.682.787-3.401.122-.159 1.651-.78 4.59-1.865C70.957 1.707 73.755.756 76.242 0c0 .341-.202 1.207-.604 2.597-2.962.975-6.778 2.346-11.447 4.114 2.17 1.914 4.828 4.913 7.973 8.996 1.11 1.439 2.011 2.365 2.706 2.78.536.317 1.31.475 2.322.475h.476v2.707Z"/><path fill="#595959" d="M61.596 21.669H56.75a6.09 6.09 0 0 0-1.902.31c-.841.293-1.261.69-1.261 1.189 0 .183 1.124.497 3.373.942 2.25.445 3.374.935 3.374 1.472 0 1.84-.53 3.212-1.59 4.114C56.95 31.232 53.793 32 49.27 32c-5.461 0-8.192-2.017-8.192-6.053 0-.902.195-1.913.585-3.035.39-1.121.866-2.048 1.426-2.78.22-.28.421-.432.604-.457.183-.012.274.086.274.293 0 .183-.073.415-.22.695-.706 1.34-1.06 2.73-1.06 4.169 0 1.183.445 2.158 1.335 2.926 1.146 1 2.926 1.5 5.34 1.5 1.865 0 3.596-.098 5.193-.293 2.828-.354 4.242-.957 4.242-1.81 0-.354-.616-.635-1.847-.842-1.95-.329-3.084-.536-3.401-.622-1.231-.34-1.847-.865-1.847-1.572 0-.56.299-1.262.896-2.103.5-.707 1.024-1.28 1.573-1.719 1.097-.89 2.657-1.335 4.68-1.335h2.744v2.707Z"/><path fill="#8C8C8C" d="m41.885 15.067-.994 1.775c-1.692-.024-2.875.088-3.55.337-.922.343-2.286.964-4.09 1.863-1.805.9-3.186 1.52-4.144 1.864-1.432.509-2.852.763-4.26.763h-2.396v-2.627h2.485c2.035 0 3.887-.349 5.555-1.047l5.289-2.307c-.84-.19-2.183-.627-4.029-1.313-1.526-.568-2.514-.852-2.964-.852-.875 0-1.769.384-2.68 1.154-.177.153-.337.23-.479.23-.154 0-.23-.1-.23-.302 0-.082.023-.195.07-.337.746-2.189 2.018-3.283 3.816-3.283.639 0 1.509.248 2.61.745 1.833.829 3.206 1.396 4.117 1.704 1.55.52 3.395.852 5.537.994.378.024.568.071.568.142 0 .06-.077.225-.23.497ZM35.443 4.72l-1.846 1.846-1.846-1.864 1.846-1.846 1.846 1.864Z"/><path fill="#8C8C8C" d="M23.658 21.67H22.38c-2.094 0-3.496-.687-4.206-2.06-.781 1.373-2.343 2.06-4.686 2.06h-2.254v-2.628h2.805c2.212 0 3.419-.857 3.62-2.573.083-.686.255-1.03.515-1.03s.426.356.497 1.066c.154 1.692 1.301 2.537 3.443 2.537h1.544v2.627Zm-4.455 5.004-1.846 1.846-1.863-1.864 1.846-1.845 1.863 1.863Z"/><path fill="#8C8C8C" d="M12.441 21.67h-.497c-.828 0-1.455-.143-1.88-.427.023.237.034.474.035.71 0 2.13-.693 4.183-2.077 6.159-1.195 1.703-2.171 2.555-2.928 2.555-1.728 0-3.219-.088-4.473-.266-.414-.06-.621-.16-.621-.302s.213-.254.639-.337c1.775-.367 3.561-1.307 5.36-2.822 1.917-1.62 2.875-3.177 2.875-4.667 0-.994-.793-2.26-2.378-3.799l1.047-2.13c.083-.177.154-.271.213-.283.07.023.171.124.302.302.71.946 1.248 1.561 1.615 1.845.698.556 1.538.834 2.52.834h.248v2.627Z"/></svg>