<svg xmlns="http://www.w3.org/2000/svg" width="109" height="28"><path fill="#000" fill-rule="nonzero" d="M51.341 24.861c.452 0 .808.143 1.068.427.268.293.402.674.402 1.143 0 .468-.134.845-.402 1.13-.26.293-.616.439-1.068.439-.41 0-.758-.13-1.043-.39-.276-.259-.414-.652-.414-1.18 0-.543.138-.94.414-1.192a1.52 1.52 0 0 1 1.043-.377zm8.944-2.598c.528 0 .942.163 1.244.49.301.326.452.782.452 1.368 0 .586-.155 1.037-.465 1.356-.31.326-.72.49-1.23.49-.529 0-.947-.168-1.257-.503-.31-.326-.465-.774-.465-1.343 0-.578.15-1.034.452-1.369.31-.326.733-.49 1.269-.49zm4.372 0c.536 0 .954.163 1.256.49.301.334.452.79.452 1.368 0 .569-.16 1.017-.477 1.343-.31.335-.72.502-1.231.502-.528 0-.947-.167-1.257-.502-.31-.326-.464-.774-.464-1.343 0-.578.15-1.034.452-1.369.31-.326.733-.49 1.269-.49zm-27.185 0c.528 0 .942.163 1.244.49.301.326.452.782.452 1.368 0 .586-.155 1.037-.465 1.356-.31.326-.72.49-1.23.49-.529 0-.947-.168-1.257-.503-.31-.326-.465-.774-.465-1.343 0-.578.15-1.034.452-1.369.31-.326.733-.49 1.27-.49zm4.372 0c.536 0 .954.163 1.256.49.301.334.452.79.452 1.368 0 .569-.16 1.017-.477 1.343-.31.335-.72.502-1.231.502-.528 0-.947-.167-1.257-.502-.31-.326-.464-.774-.464-1.343 0-.578.15-1.034.452-1.369.31-.326.733-.49 1.269-.49zm-32.975 0c.528 0 .942.163 1.244.49.301.326.452.782.452 1.368 0 .586-.155 1.037-.465 1.356-.31.326-.72.49-1.23.49-.528 0-.947-.168-1.257-.503-.31-.326-.465-.774-.465-1.343 0-.578.151-1.034.453-1.369.31-.326.732-.49 1.268-.49zm4.372 0c.536 0 .955.163 1.256.49.302.334.452.79.452 1.368 0 .569-.159 1.017-.477 1.343-.31.335-.72.502-1.231.502-.528 0-.947-.167-1.256-.502-.31-.326-.465-.774-.465-1.343 0-.578.15-1.034.452-1.369.31-.326.733-.49 1.269-.49zm11.028-.004c.52 0 .93.163 1.231.49.31.326.465.782.465 1.368 0 .569-.159 1.016-.477 1.343-.31.335-.716.502-1.219.502-.536 0-.958-.167-1.268-.502-.31-.327-.465-.774-.465-1.343 0-.578.15-1.034.452-1.369.31-.326.737-.49 1.281-.49zM109 6.807v12.805c0 1.95-.595 3.453-1.784 4.507-1.18 1.063-2.851 1.594-5.012 1.594-1.164 0-2.173-.091-3.028-.275a7.916 7.916 0 0 1-2.45-.967l1.496-2.8c.695.36 1.352.611 1.972.754.62.15 1.265.226 1.934.226.972 0 1.722-.268 2.25-.804.527-.527.79-1.255.79-2.184v-.126h-2.55c-1.834 0-3.245-.519-4.233-1.556-.988-1.038-1.482-2.515-1.482-4.432 0-1.356.339-2.544 1.017-3.565.679-1.03 1.637-1.817 2.877-2.36 1.24-.545 2.671-.817 4.296-.817H109zm-59.845 14.25c.536 0 .955.164 1.257.49.301.335.452.787.452 1.356 0 .577-.16 1.03-.477 1.356-.31.335-.72.502-1.232.502-.527 0-.946-.167-1.256-.502-.31-.335-.465-.787-.465-1.356 0-.57.151-1.021.453-1.356.301-.326.724-.49 1.268-.49zm4.384 0c.52 0 .93.164 1.231.49.31.326.465.778.465 1.356 0 .577-.159 1.03-.477 1.356-.31.335-.716.502-1.219.502-.535 0-.958-.163-1.268-.49-.31-.326-.465-.782-.465-1.368 0-.57.15-1.021.452-1.356.302-.326.729-.49 1.281-.49zM81.113 2.021l1.407 3.453a15.569 15.569 0 0 0-4.183 1.983c-1.306.88-2.253 1.775-2.839 2.687h10.288c2.437 0 4.267.494 5.49 1.481 1.231.988 1.847 2.432 1.847 4.331v3.578l-24.56.001a.198.198 0 0 1-.037.003H34.03l-.037-.004H18.478v-3.088h8.593c-.352-1.582-.783-2.858-1.294-3.829a8.627 8.627 0 0 0-1.935-2.523c-.779-.712-1.733-1.302-2.864-1.77l1.445-3.603c2.261.903 4.082 2.301 5.464 4.193 1.382 1.891 2.395 4.402 3.04 7.532h3.38l.045.004h3.66V6.81h3.832v9.641h7.575V6.81h3.832v9.641h7.574V6.81h3.832v9.641h3.467v-.004h21.167c0-1.038-.356-1.833-1.068-2.385-.712-.553-1.72-.829-3.027-.829h-13.68v-2.774a15.63 15.63 0 0 1 3.844-5.085c1.658-1.464 3.576-2.582 5.753-3.352zM3.831 0v16.446h3.216l.046.004h4.2V6.81h3.832v12.73H6.796l-.036-.005H0V0h3.831zm101.337 9.895h-.829c-1.097 0-1.955.31-2.575.93-.611.619-.917 1.493-.917 2.623 0 1.03.21 1.787.628 2.273.419.485 1.06.728 1.922.728h1.771V9.895z"/></svg>