<svg xmlns="http://www.w3.org/2000/svg" width="121" height="8" fill="none"><path fill="#000" d="M5.193 2.338c0-.257-.033-.49-.099-.7a1.68 1.68 0 0 0-.276-.538 1.224 1.224 0 0 0-.42-.345 1.164 1.164 0 0 0-.525-.121 1.26 1.26 0 0 0-.552.124 1.813 1.813 0 0 0-.482.34c-.147.144-.28.312-.398.505a3.667 3.667 0 0 0-.3.617 4.004 4.004 0 0 0-.257 1.38c0 .261.034.496.103.704.068.208.162.384.28.529a1.174 1.174 0 0 0 .938.451c.194 0 .378-.042.551-.126.173-.085.334-.2.482-.344.147-.145.28-.314.398-.508a3.986 3.986 0 0 0 .491-1.292c.044-.232.066-.457.066-.676Zm.905 0a3.874 3.874 0 0 1-.35 1.594 3.4 3.4 0 0 1-.423.693 2.93 2.93 0 0 1-.58.557 2.679 2.679 0 0 1-1.599.506c-.318 0-.61-.05-.874-.153A1.974 1.974 0 0 1 1.59 5.1a1.975 1.975 0 0 1-.447-.68 2.353 2.353 0 0 1-.16-.884 3.553 3.553 0 0 1 .379-1.59c.124-.245.272-.47.447-.677.175-.206.372-.385.59-.536.22-.151.459-.27.72-.355.26-.086.534-.129.824-.129.33 0 .627.055.894.165.266.11.493.259.68.447.186.19.33.411.43.665.101.255.152.525.152.813Zm6.307 3.025a39.02 39.02 0 0 1-.227.093c-.084.034-.17.066-.26.096a2.74 2.74 0 0 1-.266.076 1.117 1.117 0 0 1-.542-.006.618.618 0 0 1-.217-.104.372.372 0 0 1-.125-.17.428.428 0 0 1-.01-.234l.44-2.066c.025-.129.034-.24.027-.336a.634.634 0 0 0-.06-.238.363.363 0 0 0-.12-.142.269.269 0 0 0-.15-.047.844.844 0 0 0-.356.079 1.73 1.73 0 0 0-.316.187 1.928 1.928 0 0 0-.249.22.991.991 0 0 0-.144.179l-.559 2.614h-.738l.532-2.524c.018-.083.027-.17.025-.259a.797.797 0 0 0-.038-.243.428.428 0 0 0-.115-.182.291.291 0 0 0-.206-.071.662.662 0 0 0-.297.079 2.007 2.007 0 0 0-.303.189 2.743 2.743 0 0 0-.44.412l-.56 2.599h-.73l.683-3.287-.66-.072v-.223l1.193-.241h.326l-.152.714c.099-.091.204-.18.315-.267a2.59 2.59 0 0 1 .346-.228c.119-.066.24-.119.36-.159.122-.04.242-.06.358-.06a.68.68 0 0 1 .328.071.641.641 0 0 1 .21.18c.053.072.092.15.117.232.024.083.042.16.052.23a3.017 3.017 0 0 1 .683-.496c.127-.067.256-.12.387-.159.13-.039.257-.058.379-.058.132 0 .248.023.347.07.1.046.18.112.241.198.06.086.1.189.117.31.016.12.01.255-.022.404l-.446 2.089a.346.346 0 0 0 .194.395.35.35 0 0 0 .147.032c.065 0 .14-.015.226-.046l.275-.094v.264Zm3.185-2.886a.488.488 0 0 0-.027-.158.329.329 0 0 0-.095-.14.514.514 0 0 0-.183-.098.939.939 0 0 0-.29-.038c-.15 0-.29.037-.418.111-.13.075-.25.172-.358.293a2.19 2.19 0 0 0-.291.416 3.424 3.424 0 0 0-.35.969c-.03.16-.046.304-.046.432 0 .159.017.304.05.436.034.133.081.246.142.34.06.095.132.169.214.221a.47.47 0 0 0 .262.08c.16 0 .315-.022.464-.066.149-.044.28-.11.394-.195a.95.95 0 0 0 .272-.32.934.934 0 0 0 .1-.443.492.492 0 0 0-.217-.423c-.145-.103-.36-.155-.648-.155a2.7 2.7 0 0 0-.132.004l-.183.007c-.072.005-.15.01-.233.012l.152-.31c.165 0 .333-.016.503-.047a1.55 1.55 0 0 0 .458-.159.947.947 0 0 0 .332-.298.814.814 0 0 0 .128-.47Zm.715-.045c0 .156-.03.293-.09.412-.06.118-.138.22-.236.308-.099.087-.21.159-.336.217a2.683 2.683 0 0 1-.387.143c.117.015.228.042.334.08.106.037.2.088.284.15a.74.74 0 0 1 .198.23.63.63 0 0 1 .073.307 1.097 1.097 0 0 1-.316.792c-.097.102-.21.19-.336.264-.127.074-.26.135-.402.183a2.756 2.756 0 0 1-.853.14c-.271 0-.506-.04-.702-.123a1.407 1.407 0 0 1-.488-.325 1.298 1.298 0 0 1-.285-.462 1.583 1.583 0 0 1-.094-.537c0-.176.028-.36.084-.551a2.56 2.56 0 0 1 .24-.561c.106-.183.232-.357.381-.522a2.604 2.604 0 0 1 1.12-.727c.224-.073.46-.11.708-.11.217 0 .397.02.538.06a.99.99 0 0 1 .338.154.53.53 0 0 1 .176.221c.034.083.05.169.05.257Zm3.18.778c0-.184-.017-.346-.054-.487a1.194 1.194 0 0 0-.147-.355.667.667 0 0 0-.224-.22.551.551 0 0 0-.281-.075.747.747 0 0 0-.484.183 1.621 1.621 0 0 0-.386.48 3.072 3.072 0 0 0-.35 1.419c0 .191.018.358.055.502.036.144.086.264.151.36.065.098.14.17.225.218a.562.562 0 0 0 .28.072.707.707 0 0 0 .352-.093c.11-.061.21-.145.299-.25.089-.104.169-.225.238-.364a2.972 2.972 0 0 0 .29-.918c.024-.163.037-.32.037-.472Zm.805.034a2.629 2.629 0 0 1-.6 1.676c-.126.15-.267.28-.424.389-.156.11-.327.195-.51.257a1.819 1.819 0 0 1-.583.092c-.218 0-.414-.034-.59-.102a1.213 1.213 0 0 1-.729-.754 1.75 1.75 0 0 1-.099-.606 2.748 2.748 0 0 1 .587-1.698c.124-.155.265-.288.421-.4.157-.112.328-.2.513-.263a1.815 1.815 0 0 1 1.134-.007c.172.057.324.148.454.272.131.123.235.28.311.468.076.189.115.414.115.676Zm3.13-.041a1.65 1.65 0 0 0-.037-.346 1.216 1.216 0 0 0-.113-.32.714.714 0 0 0-.192-.233.436.436 0 0 0-.276-.091.717.717 0 0 0-.287.062 1.756 1.756 0 0 0-.466.291c-.057.05-.096.081-.116.096l-.474 2.4c.023.012.056.031.099.058a1.465 1.465 0 0 0 .332.144.857.857 0 0 0 .602-.066 1.19 1.19 0 0 0 .33-.256c.098-.107.185-.23.26-.372.075-.14.137-.289.187-.444.049-.155.086-.311.112-.47.026-.159.039-.31.039-.453Zm.788-.03a2.615 2.615 0 0 1-.652 1.719c-.137.155-.29.29-.458.403a2.176 2.176 0 0 1-.548.267 1.978 1.978 0 0 1-.617.096.993.993 0 0 1-.323-.049 3.508 3.508 0 0 1-.24-.09l-.253 1.242c-.01.043-.005.078.017.104.022.026.068.043.138.051l.501.042v.29H19.77v-.29l.416-.042c.111-.008.175-.06.19-.155l.897-4.484-.668-.072v-.223l1.204-.241h.31l-.096.48.23-.148c.088-.055.18-.108.279-.157.098-.049.2-.09.308-.124.108-.034.217-.051.329-.051a.93.93 0 0 1 .503.126.95.95 0 0 1 .318.33c.079.137.135.29.169.462.034.17.05.342.05.513Zm2.867-.658a.424.424 0 0 0-.253-.372.439.439 0 0 0-.178-.036.506.506 0 0 0-.253.068 1.04 1.04 0 0 0-.23.181 1.658 1.658 0 0 0-.207.261 2.57 2.57 0 0 0-.17.31 3.564 3.564 0 0 0-.228.642 2.308 2.308 0 0 0 1.013-.346 1.44 1.44 0 0 0 .364-.323.615.615 0 0 0 .142-.385Zm.707.008a.78.78 0 0 1-.101.389 1.17 1.17 0 0 1-.274.32 1.944 1.944 0 0 1-.4.256 3.29 3.29 0 0 1-.478.189 4.371 4.371 0 0 1-1.008.183 2.953 2.953 0 0 0-.03.359c0 .14.017.27.052.389a.946.946 0 0 0 .151.308.665.665 0 0 0 .553.278c.18 0 .376-.064.59-.19.216-.125.47-.313.762-.562v.487a3.88 3.88 0 0 1-.276.232 2.636 2.636 0 0 1-.37.238c-.14.075-.29.136-.453.185a1.783 1.783 0 0 1-.779.051 1.23 1.23 0 0 1-.551-.241 1.01 1.01 0 0 1-.23-.26 1.397 1.397 0 0 1-.159-.373 1.93 1.93 0 0 1-.06-.512c0-.204.025-.407.076-.61a2.857 2.857 0 0 1 .546-1.1 2.39 2.39 0 0 1 .427-.415c.155-.117.322-.209.499-.276.177-.066.36-.1.55-.1.183 0 .337.03.46.089a.96.96 0 0 1 .297.213.766.766 0 0 1 .206.473Zm4.532 2.818-.175.072a4.262 4.262 0 0 1-.648.204 1.66 1.66 0 0 1-.35.041.655.655 0 0 1-.322-.068.441.441 0 0 1-.179-.177.567.567 0 0 1-.064-.246c-.004-.09.002-.18.017-.268l.206-1.047h-1.62l-.333 1.712h-.742l.637-3.287-.676-.072v-.223l1.2-.241h.319l-.334 1.741h1.623l.326-1.647h.73l-.578 3a.333.333 0 0 0-.004.15.31.31 0 0 0 .167.214.333.333 0 0 0 .148.032.675.675 0 0 0 .165-.024 3.701 3.701 0 0 0 .367-.119c.054-.02.094-.034.12-.042v.295Zm4.18.038a1.54 1.54 0 0 1-.205.09 3.187 3.187 0 0 1-.59.16c-.105.02-.2.03-.286.03-.15 0-.261-.025-.334-.075a.395.395 0 0 1-.186-.364l.004-.144c-.21.194-.43.34-.658.437a1.89 1.89 0 0 1-.744.145.944.944 0 0 1-.45-.094.685.685 0 0 1-.374-.552 1.017 1.017 0 0 1 .012-.321l.517-2.414-.668-.072v-.223l1.2-.241h.326l-.633 2.95a.316.316 0 0 0 .01.187.44.44 0 0 0 .097.155c.042.044.091.08.145.106.055.026.108.04.16.04.095 0 .192-.014.289-.04.097-.027.194-.063.29-.108a2.112 2.112 0 0 0 .52-.348l.602-2.848h.742l-.637 2.977a.377.377 0 0 0 0 .202.318.318 0 0 0 .211.21.458.458 0 0 0 .138.022.96.96 0 0 0 .501-.14v.273Zm6.303-3.272a.32.32 0 0 1-.101.225 1.33 1.33 0 0 1-.233.19l-.598-.26c-.076.065-.14.138-.193.217-.053.08-.101.163-.145.25-.044.086-.088.174-.13.262a2.046 2.046 0 0 1-.146.253c-.062.093-.13.177-.204.251a1.171 1.171 0 0 1-.223.18.944.944 0 0 1 .178.117c.063.05.106.1.132.147l.501.96c.024.05.056.092.098.126a.205.205 0 0 0 .132.051.39.39 0 0 0 .184-.06 1.77 1.77 0 0 0 .212-.142 2.292 2.292 0 0 0 .33-.308l.116.2-.097.12a3.384 3.384 0 0 1-.361.385c-.075.07-.153.133-.233.19-.08.059-.162.106-.245.142a.595.595 0 0 1-.24.055.306.306 0 0 1-.216-.085.696.696 0 0 1-.15-.202l-.675-1.284a.29.29 0 0 0-.055-.076.214.214 0 0 0-.08-.047.54.54 0 0 0-.12-.025 1.728 1.728 0 0 0-.176-.007l-.334 1.632h-.73l.652-3.264-.622-.11v-.2l1.232-.25h.24l-.365 1.837c.13 0 .242-.017.338-.05a.886.886 0 0 0 .258-.137.996.996 0 0 0 .204-.216 3.656 3.656 0 0 0 .315-.546c.041-.085.086-.168.132-.247.047-.08.1-.157.161-.232.061-.076.136-.15.224-.223a.789.789 0 0 1 .273-.148c.1-.03.2-.045.297-.045.145 0 .259.036.34.108a.34.34 0 0 1 .123.266Zm4.416 3.234-.175.072a4.285 4.285 0 0 1-.649.204c-.124.027-.24.041-.35.041a.655.655 0 0 1-.322-.068.441.441 0 0 1-.178-.177.568.568 0 0 1-.064-.246 1.23 1.23 0 0 1 .017-.268l.206-1.047h-1.62l-.334 1.712h-.742l.637-3.287-.675-.072v-.223l1.2-.241h.318l-.334 1.741h1.624l.326-1.647h.73l-.579 3a.333.333 0 0 0-.003.15.308.308 0 0 0 .314.246.674.674 0 0 0 .165-.024 4.956 4.956 0 0 0 .367-.119l.12-.042v.295Zm4.179.038a1.54 1.54 0 0 1-.204.09 3.187 3.187 0 0 1-.59.16c-.105.02-.2.03-.286.03-.15 0-.261-.025-.334-.075a.395.395 0 0 1-.187-.364 3.3 3.3 0 0 0 .004-.144c-.21.194-.429.34-.658.437a1.887 1.887 0 0 1-.744.145.944.944 0 0 1-.45-.094.686.686 0 0 1-.373-.552.977.977 0 0 1 .012-.321l.516-2.414-.668-.072v-.223l1.2-.241h.326l-.633 2.95a.316.316 0 0 0 .01.187.44.44 0 0 0 .097.155.52.52 0 0 0 .146.106c.054.026.107.04.16.04.095 0 .191-.014.289-.04.097-.027.193-.063.289-.108a2.12 2.12 0 0 0 .52-.348l.602-2.848h.742l-.637 2.977a.38.38 0 0 0 0 .202.32.32 0 0 0 .212.21.458.458 0 0 0 .138.022.96.96 0 0 0 .501-.14v.273ZM54.775 2.5a.6.6 0 0 1-.115.357 1.265 1.265 0 0 1-.332.306 3.573 3.573 0 0 1-.532.285c-.21.093-.448.193-.715.299a1.486 1.486 0 0 0-.58.411 1.122 1.122 0 0 0-.175.27.615.615 0 0 0-.03.478c.024.068.058.13.102.187a.532.532 0 0 0 .159.138.425.425 0 0 0 .213.053c.213 0 .41-.052.593-.157.182-.104.375-.263.577-.478l.372.163a2.732 2.732 0 0 1-.747.62 1.89 1.89 0 0 1-1.36.168 1.048 1.048 0 0 1-.357-.178.86.86 0 0 1-.332-.716c0-.12.036-.24.109-.359.072-.118.168-.23.287-.338a2.45 2.45 0 0 1 .41-.295 3.89 3.89 0 0 1 .472-.232 5.07 5.07 0 0 0 .52-.227 2.46 2.46 0 0 0 .39-.241 1.1 1.1 0 0 0 .247-.253.467.467 0 0 0 .066-.397.312.312 0 0 0-.2-.21.596.596 0 0 0-.212-.032.817.817 0 0 0-.412.102c-.064.035-.13.08-.2.136a3.273 3.273 0 0 0-.223.2l-.26-.23c.171-.217.365-.369.583-.457a1.92 1.92 0 0 1 .726-.132c.148 0 .28.021.398.064a.993.993 0 0 1 .301.168c.083.07.146.15.19.242a.654.654 0 0 1 .067.285Zm4.276 2.879a1.54 1.54 0 0 1-.204.09 3.187 3.187 0 0 1-.59.16c-.105.02-.2.03-.286.03-.15 0-.261-.025-.334-.075a.395.395 0 0 1-.187-.364 3.3 3.3 0 0 0 .004-.144c-.21.194-.429.34-.658.437a1.887 1.887 0 0 1-.744.145.944.944 0 0 1-.45-.094.686.686 0 0 1-.373-.552.977.977 0 0 1 .012-.321l.516-2.414-.668-.072v-.223l1.2-.241h.326l-.633 2.95a.316.316 0 0 0 .01.187.44.44 0 0 0 .097.155.52.52 0 0 0 .146.106c.054.026.107.04.16.04.095 0 .191-.014.288-.04a1.82 1.82 0 0 0 .29-.108 2.12 2.12 0 0 0 .52-.348l.602-2.848h.742L58.2 4.812a.38.38 0 0 0 0 .202.32.32 0 0 0 .212.21.458.458 0 0 0 .138.022.96.96 0 0 0 .501-.14v.273Zm5.635-2.849a.841.841 0 0 1-.095.404 1.086 1.086 0 0 1-.25.312c-.104.09-.222.164-.354.223-.132.06-.265.105-.4.138.114.005.224.022.33.05.106.03.2.073.282.131a.66.66 0 0 1 .196.22c.05.087.074.193.074.317a1.109 1.109 0 0 1-.317.808c-.097.098-.21.18-.34.247a2.27 2.27 0 0 1-.411.163 2.772 2.772 0 0 1-.447.089 3.893 3.893 0 0 1-.447.026c-.212 0-.418-.018-.62-.055a6.508 6.508 0 0 1-.607-.141l.183-.873h.384v.434a.12.12 0 0 0 .045.09c.03.026.068.05.116.071.048.021.1.04.158.057a2.298 2.298 0 0 0 .316.066.99.99 0 0 0 .103.007c.153 0 .298-.02.437-.062a1.1 1.1 0 0 0 .365-.185.905.905 0 0 0 .25-.304.913.913 0 0 0 .094-.423.44.44 0 0 0-.24-.406.834.834 0 0 0-.24-.085 1.372 1.372 0 0 0-.266-.027 2.83 2.83 0 0 0-.184.006.882.882 0 0 0-.162.024l.082-.4.16.007a1.31 1.31 0 0 0 .395-.043.915.915 0 0 0 .328-.162.812.812 0 0 0 .31-.667.478.478 0 0 0-.057-.244.446.446 0 0 0-.15-.155.638.638 0 0 0-.213-.083 1.24 1.24 0 0 0-.249-.024c-.046 0-.11.007-.192.022a1.667 1.667 0 0 0-.247.066 1.282 1.282 0 0 0-.227.104.318.318 0 0 0-.138.14l-.182.45h-.38l.174-.843c.236-.093.465-.163.69-.21.223-.046.462-.07.716-.07.124 0 .258.014.4.042.142.028.275.073.398.134a.918.918 0 0 1 .307.244.57.57 0 0 1 .122.37Zm3.2 0c.003-.012-.007-.041-.029-.087a1.47 1.47 0 0 0-.08-.141.898.898 0 0 0-.098-.13c-.035-.038-.064-.057-.088-.057a1.364 1.364 0 0 0-.96.357 1.66 1.66 0 0 0-.304.38 2.353 2.353 0 0 0-.204.449 2.78 2.78 0 0 0-.112.472c-.024.159-.035.31-.035.453 0 .109.009.217.027.325.018.109.05.207.095.295s.107.16.186.215a.52.52 0 0 0 .305.083.7.7 0 0 0 .28-.06 1.847 1.847 0 0 0 .47-.298c.06-.053.103-.094.132-.121l.415-2.135Zm1.17 2.826-.171.07a4.376 4.376 0 0 1-.589.192 1.14 1.14 0 0 1-.274.04.753.753 0 0 1-.242-.034.396.396 0 0 1-.163-.102.466.466 0 0 1-.1-.166.929.929 0 0 1-.046-.227c-.06.056-.13.114-.21.176-.08.062-.169.119-.266.172a1.69 1.69 0 0 1-.31.13 1.16 1.16 0 0 1-.344.051c-.156 0-.292-.021-.41-.064a.96.96 0 0 1-.517-.421 1.513 1.513 0 0 1-.204-.605 2.426 2.426 0 0 1-.019-.296 2.834 2.834 0 0 1 .262-1.188 2.58 2.58 0 0 1 .325-.527 2.124 2.124 0 0 1 1.701-.816c.072 0 .144.008.215.024a1.194 1.194 0 0 1 .371.153.805.805 0 0 1 .132.102l.117-.185h.544a11.532 11.532 0 0 0-.13.355 123.013 123.013 0 0 0-.322 1.396 20.22 20.22 0 0 0-.186.978c-.02.13-.03.224-.03.282 0 .136.03.23.089.28a.38.38 0 0 0 .252.075.574.574 0 0 0 .115-.017c.05-.011.103-.025.157-.04a21.824 21.824 0 0 1 .253-.068v.28Zm5.332-2.146c0-.184-.018-.346-.054-.487a1.194 1.194 0 0 0-.148-.355.666.666 0 0 0-.223-.22.551.551 0 0 0-.282-.075.748.748 0 0 0-.483.183 1.621 1.621 0 0 0-.387.48 3.077 3.077 0 0 0-.35 1.419c0 .191.019.358.055.502.036.144.087.264.151.36.065.098.14.17.226.218a.563.563 0 0 0 .28.072.7.7 0 0 0 .35-.093c.111-.061.21-.145.3-.25.09-.104.169-.225.239-.364a2.972 2.972 0 0 0 .29-.918c.024-.163.036-.32.036-.472Zm.804.034a2.629 2.629 0 0 1-.6 1.676 2.19 2.19 0 0 1-.423.389c-.157.11-.327.195-.511.257a1.818 1.818 0 0 1-.583.092c-.217 0-.414-.034-.59-.102a1.213 1.213 0 0 1-.728-.754 1.75 1.75 0 0 1-.1-.606 2.748 2.748 0 0 1 .587-1.698 2.1 2.1 0 0 1 .422-.4c.156-.112.327-.2.512-.263a1.815 1.815 0 0 1 1.134-.007 1.2 1.2 0 0 1 .455.272c.13.123.234.28.31.468a1.8 1.8 0 0 1 .115.676Zm6.393 2.12a39.02 39.02 0 0 1-.227.092 4.67 4.67 0 0 1-.26.096 2.75 2.75 0 0 1-.267.076 1.116 1.116 0 0 1-.541-.006.617.617 0 0 1-.218-.104.372.372 0 0 1-.124-.17.427.427 0 0 1-.01-.234l.439-2.066a1.21 1.21 0 0 0 .027-.336.63.63 0 0 0-.06-.238.362.362 0 0 0-.12-.142.268.268 0 0 0-.15-.047.844.844 0 0 0-.355.079 1.74 1.74 0 0 0-.317.187 1.927 1.927 0 0 0-.248.22 1.06 1.06 0 0 0-.144.179l-.56 2.614h-.737l.532-2.524c.018-.083.026-.17.025-.259a.794.794 0 0 0-.039-.243.427.427 0 0 0-.114-.182.291.291 0 0 0-.206-.071.662.662 0 0 0-.297.079 2.007 2.007 0 0 0-.303.189 2.747 2.747 0 0 0-.441.412l-.56 2.599h-.73l.684-3.287-.66-.072v-.223l1.192-.241h.326l-.151.714c.098-.091.203-.18.314-.267a2.58 2.58 0 0 1 .346-.228c.12-.066.24-.119.361-.159.122-.04.241-.06.358-.06.132 0 .241.024.328.071a.64.64 0 0 1 .21.18c.053.072.091.15.116.232.025.083.042.16.052.23a3.027 3.027 0 0 1 .684-.496c.127-.067.256-.12.386-.159.131-.039.257-.058.38-.058.131 0 .247.023.347.07.1.046.18.112.24.198.061.086.1.189.117.31.017.12.01.255-.021.404l-.447 2.089a.349.349 0 0 0 .342.427.69.69 0 0 0 .225-.046l.276-.094v.264Zm3.185-2.887a.488.488 0 0 0-.027-.158.328.328 0 0 0-.096-.14.514.514 0 0 0-.182-.098.938.938 0 0 0-.29-.038c-.15 0-.29.037-.419.111-.13.075-.249.172-.357.293a2.19 2.19 0 0 0-.292.416 3.28 3.28 0 0 0-.35.969c-.03.16-.046.304-.046.432 0 .159.017.304.05.436.034.133.082.246.142.34a.72.72 0 0 0 .214.221c.082.053.17.08.262.08.16 0 .316-.022.464-.066a1.23 1.23 0 0 0 .395-.195.95.95 0 0 0 .272-.32.935.935 0 0 0 .1-.443.492.492 0 0 0-.217-.423c-.145-.103-.361-.155-.649-.155a2.77 2.77 0 0 0-.132.004l-.182.007c-.073.005-.15.01-.233.012l.151-.31c.166 0 .334-.016.503-.047.17-.032.323-.085.459-.159a.946.946 0 0 0 .331-.298.813.813 0 0 0 .129-.47Zm.714-.045a.915.915 0 0 1-.326.72c-.098.087-.21.159-.336.217a2.686 2.686 0 0 1-.386.143c.116.015.227.042.334.08.106.037.2.088.283.15a.72.72 0 0 1 .198.23c.05.089.074.191.074.307a1.097 1.097 0 0 1-.316.792c-.097.102-.21.19-.336.264a2.213 2.213 0 0 1-.402.183 2.756 2.756 0 0 1-.853.14c-.272 0-.506-.04-.703-.123a1.408 1.408 0 0 1-.487-.325 1.3 1.3 0 0 1-.286-.462 1.583 1.583 0 0 1-.093-.537c0-.176.028-.36.084-.551.055-.192.135-.379.24-.561.105-.183.232-.357.38-.522a2.604 2.604 0 0 1 1.121-.727 2.26 2.26 0 0 1 .707-.11c.218 0 .397.02.538.06a.99.99 0 0 1 .338.154.529.529 0 0 1 .177.221c.034.083.05.169.05.257Zm3.181.778c0-.184-.018-.346-.054-.487a1.194 1.194 0 0 0-.148-.355.666.666 0 0 0-.223-.22.551.551 0 0 0-.282-.075.748.748 0 0 0-.483.183 1.62 1.62 0 0 0-.387.48 3.077 3.077 0 0 0-.35 1.419c0 .191.019.358.055.502.036.144.087.264.152.36.064.098.14.17.225.218a.563.563 0 0 0 .28.072.704.704 0 0 0 .351-.093c.11-.061.21-.145.3-.25.088-.104.168-.225.238-.364a2.972 2.972 0 0 0 .29-.918c.024-.163.036-.32.036-.472Zm.804.034a2.629 2.629 0 0 1-.6 1.676 2.19 2.19 0 0 1-.423.389c-.157.11-.327.195-.511.257a1.818 1.818 0 0 1-.582.092 1.62 1.62 0 0 1-.59-.102 1.214 1.214 0 0 1-.73-.754 1.752 1.752 0 0 1-.098-.606 2.743 2.743 0 0 1 .586-1.698c.125-.155.265-.288.422-.4.156-.112.327-.2.512-.263a1.815 1.815 0 0 1 1.135-.007c.172.057.323.148.454.272.13.123.234.28.31.468a1.8 1.8 0 0 1 .115.676Zm3.13-.041c0-.114-.012-.229-.036-.346a1.22 1.22 0 0 0-.113-.32.713.713 0 0 0-.192-.233.436.436 0 0 0-.276-.091.717.717 0 0 0-.287.062 1.75 1.75 0 0 0-.466.291c-.057.05-.096.081-.117.096l-.474 2.4c.023.012.056.031.1.058a1.47 1.47 0 0 0 .332.144.857.857 0 0 0 .602-.066 1.19 1.19 0 0 0 .33-.256c.098-.107.185-.23.26-.372a2.6 2.6 0 0 0 .186-.444 3.214 3.214 0 0 0 .152-.923Zm.789-.03a2.615 2.615 0 0 1-.653 1.719c-.137.155-.29.29-.458.403-.168.114-.35.203-.547.267a1.978 1.978 0 0 1-.618.096.993.993 0 0 1-.322-.049 3.508 3.508 0 0 1-.241-.09l-.253 1.242c-.01.043-.004.078.018.104.022.026.068.043.138.051l.5.042v.29H88.95v-.29l.415-.042c.112-.008.175-.06.19-.155l.898-4.484-.668-.072v-.223l1.204-.241h.31l-.097.48.232-.148a3.02 3.02 0 0 1 .277-.157 2.19 2.19 0 0 1 .309-.124 1.08 1.08 0 0 1 .328-.051c.202 0 .37.042.503.126a.95.95 0 0 1 .319.33c.079.137.135.29.169.462.033.17.05.342.05.513Zm2.866-.658c0-.05-.01-.1-.03-.15a.42.42 0 0 0-.221-.223.439.439 0 0 0-.18-.035.506.506 0 0 0-.252.068c-.08.045-.158.106-.231.181a1.658 1.658 0 0 0-.206.261 2.58 2.58 0 0 0-.171.31 3.564 3.564 0 0 0-.227.642 2.3 2.3 0 0 0 .522-.113c.18-.06.344-.138.491-.233.148-.094.269-.202.364-.323a.615.615 0 0 0 .141-.385Zm.707.008a.79.79 0 0 1-.1.389 1.17 1.17 0 0 1-.275.32 1.918 1.918 0 0 1-.4.256c-.151.074-.31.137-.477.189a4.366 4.366 0 0 1-1.008.183 3.025 3.025 0 0 0-.031.359c0 .14.017.27.052.389a.948.948 0 0 0 .152.308.664.664 0 0 0 .553.278c.179 0 .376-.064.59-.19.215-.125.47-.313.762-.562v.487c-.075.07-.167.148-.276.232a2.641 2.641 0 0 1-.371.238 2.45 2.45 0 0 1-.453.185 1.782 1.782 0 0 1-.778.051 1.17 1.17 0 0 1-.552-.242 1.01 1.01 0 0 1-.229-.258 1.394 1.394 0 0 1-.16-.374 1.93 1.93 0 0 1-.06-.512c0-.204.026-.407.076-.61a2.857 2.857 0 0 1 .546-1.1c.13-.16.272-.298.427-.415a1.99 1.99 0 0 1 .5-.276c.177-.066.36-.1.549-.1.184 0 .337.03.46.089a.96.96 0 0 1 .297.213.766.766 0 0 1 .206.473Zm4.533 2.818-.175.072a3.77 3.77 0 0 1-.649.204 1.61 1.61 0 0 1-.349.041.656.656 0 0 1-.323-.068.441.441 0 0 1-.178-.177.568.568 0 0 1-.064-.246 1.23 1.23 0 0 1 .017-.268l.206-1.047h-1.62l-.334 1.712h-.742l.638-3.287-.676-.072v-.223l1.2-.241h.318l-.334 1.741h1.624l.326-1.647h.73l-.579 3a.323.323 0 0 0 .055.277.301.301 0 0 0 .109.087.331.331 0 0 0 .147.032.668.668 0 0 0 .165-.024 3.456 3.456 0 0 0 .367-.119l.121-.042v.295Zm5.546-3.056a.57.57 0 0 1-.023.155.346.346 0 0 1-.092.147.635.635 0 0 1-.186.123 1.039 1.039 0 0 1-.309.077l-.454-.597a.798.798 0 0 0-.381.114 1.09 1.09 0 0 0-.293.264 1.64 1.64 0 0 0-.214.368 3.076 3.076 0 0 0-.243 1.188c0 .126.013.25.037.372.025.123.065.232.121.33a.698.698 0 0 0 .217.235c.09.06.2.09.332.09a1 1 0 0 0 .323-.054c.108-.036.218-.087.328-.153.11-.065.221-.143.332-.234.111-.09.224-.19.338-.299V4.9a6.246 6.246 0 0 1-.284.25 2.63 2.63 0 0 1-.353.245c-.13.075-.271.138-.425.189a1.59 1.59 0 0 1-.496.075c-.189 0-.359-.032-.51-.096a1.027 1.027 0 0 1-.385-.28 1.279 1.279 0 0 1-.243-.451 2.014 2.014 0 0 1-.085-.612 2.632 2.632 0 0 1 .664-1.759 2.41 2.41 0 0 1 .439-.385 2.01 2.01 0 0 1 .501-.247 1.69 1.69 0 0 1 .532-.087c.143 0 .266.017.369.053a.801.801 0 0 1 .253.132.528.528 0 0 1 .143.175.423.423 0 0 1 .047.184Zm3.425.192a.49.49 0 0 0-.027-.158.33.33 0 0 0-.095-.14.508.508 0 0 0-.183-.098.932.932 0 0 0-.289-.038c-.15 0-.29.037-.419.111-.13.075-.249.172-.358.293a2.25 2.25 0 0 0-.291.416 3.322 3.322 0 0 0-.349.969c-.032.16-.047.304-.047.432 0 .159.017.304.05.436.034.133.081.246.142.34a.724.724 0 0 0 .214.221c.081.053.169.08.262.08.16 0 .315-.022.464-.066a1.23 1.23 0 0 0 .394-.195.946.946 0 0 0 .272-.32.939.939 0 0 0 .101-.443.492.492 0 0 0-.217-.423c-.145-.103-.362-.155-.649-.155a3.48 3.48 0 0 0-.132.004l-.183.007a5.92 5.92 0 0 1-.233.012l.152-.31c.166 0 .333-.016.503-.047a1.56 1.56 0 0 0 .458-.159.942.942 0 0 0 .332-.298.81.81 0 0 0 .128-.47Zm.715-.045a.912.912 0 0 1-.326.72 1.393 1.393 0 0 1-.336.217 2.711 2.711 0 0 1-.387.143 1.6 1.6 0 0 1 .334.08c.107.037.201.088.284.15.083.064.149.14.198.23a.63.63 0 0 1 .074.307c0 .164-.029.311-.086.442a1.195 1.195 0 0 1-.231.35c-.097.102-.209.19-.336.264a2.184 2.184 0 0 1-.402.183 2.754 2.754 0 0 1-.852.14c-.272 0-.506-.04-.703-.123a1.416 1.416 0 0 1-.488-.325 1.299 1.299 0 0 1-.285-.462 1.585 1.585 0 0 1-.093-.537c0-.176.028-.36.083-.551.056-.192.136-.379.241-.561.105-.183.232-.357.381-.522a2.6 2.6 0 0 1 1.12-.727c.223-.073.458-.11.707-.11.217 0 .397.02.538.06a.99.99 0 0 1 .338.154.534.534 0 0 1 .177.221.69.69 0 0 1 .05.257Zm2.816.083a.418.418 0 0 0-.431-.408.51.51 0 0 0-.253.068 1.05 1.05 0 0 0-.231.181 1.683 1.683 0 0 0-.206.261c-.063.098-.12.202-.171.31a3.62 3.62 0 0 0-.227.642 2.28 2.28 0 0 0 .523-.113c.18-.06.343-.138.491-.233.148-.094.269-.202.363-.323a.613.613 0 0 0 .142-.385Zm.707.008a.78.78 0 0 1-.101.389 1.186 1.186 0 0 1-.274.32 2.01 2.01 0 0 1-.4.256 3.317 3.317 0 0 1-.478.189 4.347 4.347 0 0 1-1.008.183 3.335 3.335 0 0 0-.031.359c0 .14.018.27.053.389a.947.947 0 0 0 .151.308.664.664 0 0 0 .554.278c.178 0 .375-.064.59-.19a5.47 5.47 0 0 0 .761-.562v.487c-.075.07-.167.148-.276.232a2.47 2.47 0 0 1-.823.423 1.781 1.781 0 0 1-.779.051 1.23 1.23 0 0 1-.551-.241 1.004 1.004 0 0 1-.229-.26 1.424 1.424 0 0 1-.16-.373 1.936 1.936 0 0 1-.06-.512c0-.204.025-.407.076-.61a2.823 2.823 0 0 1 .546-1.1c.129-.16.272-.298.427-.415a1.99 1.99 0 0 1 .499-.276c.177-.066.36-.1.55-.1.183 0 .337.03.46.089a.96.96 0 0 1 .297.213.765.765 0 0 1 .206.473Zm6.28 2.84-.227.093a4.588 4.588 0 0 1-.261.096c-.089.03-.178.056-.266.076a1.11 1.11 0 0 1-.541-.006.616.616 0 0 1-.218-.104.37.37 0 0 1-.124-.17.425.425 0 0 1-.01-.234l.439-2.066a1.21 1.21 0 0 0 .027-.336.644.644 0 0 0-.06-.238.358.358 0 0 0-.12-.142.27.27 0 0 0-.15-.047.84.84 0 0 0-.355.079 1.713 1.713 0 0 0-.317.187 1.913 1.913 0 0 0-.248.22.991.991 0 0 0-.144.179l-.559 2.614h-.738l.532-2.524c.018-.083.026-.17.025-.259a.776.776 0 0 0-.039-.243.428.428 0 0 0-.114-.182.293.293 0 0 0-.206-.071.663.663 0 0 0-.297.079 1.997 1.997 0 0 0-.303.189 2.757 2.757 0 0 0-.441.412l-.559 2.599h-.731l.684-3.287-.66-.072v-.223l1.192-.241h.326l-.151.714c.098-.091.203-.18.314-.267a2.58 2.58 0 0 1 .346-.228c.119-.066.24-.119.361-.159.122-.04.241-.06.358-.06.132 0 .241.024.328.071a.649.649 0 0 1 .21.18c.053.072.091.15.116.232.025.083.042.16.052.23a3.003 3.003 0 0 1 .684-.496c.127-.067.256-.12.386-.159.131-.039.257-.058.379-.058a.81.81 0 0 1 .348.07.6.6 0 0 1 .241.198c.06.086.099.189.116.31.017.12.01.255-.021.404l-.447 2.089a.342.342 0 0 0 .076.306.342.342 0 0 0 .266.12c.065 0 .14-.014.225-.045l.276-.094v.264Z"/></svg>