<svg xmlns="http://www.w3.org/2000/svg" width="146" height="32" fill="none"><path fill="#fff" d="M0 0h146v32H0z"/><path fill="#484848" d="M50.178 32a4.723 4.723 0 0 1-1.768-.32 4.08 4.08 0 0 1-1.372-.886 4.01 4.01 0 0 1-.893-1.349 4.457 4.457 0 0 1-.32-1.703v-.024a4.25 4.25 0 0 1 1.23-3.021c.387-.39.844-.698 1.373-.923a4.398 4.398 0 0 1 1.739-.337c.37 0 .707.025 1.01.077.304.05.586.124.846.219.26.094.505.212.733.354.23.142.45.304.663.485l-1.147 1.384a4.616 4.616 0 0 0-.473-.355 2.893 2.893 0 0 0-1.04-.426 3.314 3.314 0 0 0-.652-.059c-.331 0-.64.07-.928.207a2.508 2.508 0 0 0-1.266 1.372 2.71 2.71 0 0 0-.183 1v.023c0 .379.06.728.183 1.047.122.32.296.597.52.834.225.236.49.42.793.55.304.13.64.195 1.011.195.678 0 1.25-.165 1.715-.497v-1.182H50.12V27.09h3.596v3.596a6.07 6.07 0 0 1-1.52.929c-.588.256-1.26.384-2.017.384ZM60.272 27.6c.45 0 .795-.106 1.035-.32.24-.212.36-.496.36-.85v-.024c0-.395-.125-.69-.378-.887-.252-.198-.603-.296-1.052-.296h-1.81V27.6h1.845Zm-3.666-4.021h3.784c1.05 0 1.853.28 2.413.84.474.473.71 1.104.71 1.892v.023c0 .67-.164 1.217-.49 1.639a2.843 2.843 0 0 1-1.284.928l2.022 2.957h-2.129l-1.774-2.65H58.427v2.65h-1.821v-8.28ZM66.303 23.579h6.245v1.62h-4.435v1.68h3.903v1.62h-3.903v1.739h4.494v1.62h-6.304v-8.28ZM75.377 23.579h6.245v1.62h-4.436v1.68h3.903v1.62h-3.903v1.739h4.495v1.62h-6.304v-8.28ZM88.33 32c-.608 0-1.171-.11-1.692-.331a4.16 4.16 0 0 1-1.348-.905 4.116 4.116 0 0 1-.887-1.354 4.361 4.361 0 0 1-.32-1.668v-.024c0-.59.107-1.145.32-1.661a4.27 4.27 0 0 1 .887-1.36c.378-.39.832-.698 1.36-.923a4.427 4.427 0 0 1 1.75-.337c.387 0 .74.031 1.06.094.319.063.608.15.869.26.26.111.5.245.721.403.22.158.426.331.615.52l-1.16 1.337a4.381 4.381 0 0 0-.987-.686 2.516 2.516 0 0 0-1.13-.249 2.283 2.283 0 0 0-1.727.757 2.59 2.59 0 0 0-.496.822 2.794 2.794 0 0 0-.178 1v.023c0 .355.06.69.178 1.006.118.315.282.591.49.828a2.28 2.28 0 0 0 1.733.769c.474 0 .874-.087 1.201-.26.327-.174.653-.41.976-.71l1.16 1.17a6.031 6.031 0 0 1-.663.616 3.897 3.897 0 0 1-1.644.763c-.324.067-.686.1-1.089.1ZM94.332 23.579h6.245v1.62h-4.435v1.68h3.903v1.62h-3.903v1.739h4.494v1.62h-6.304v-8.28Z"/><path fill="gray" d="m30.87 16.11.472-.589a2.636 2.636 0 0 0-1.822-.74c-.725.016-1.322.247-1.791.695-.47.448-.713 1.02-.729 1.716.016.704.256 1.283.72 1.736.464.453 1.055.687 1.773.703a2.545 2.545 0 0 0 1-.214c.323-.14.608-.331.856-.574l-.48-.534a2.109 2.109 0 0 1-.623.415 1.81 1.81 0 0 1-.712.153c-.49-.011-.896-.175-1.216-.491-.32-.316-.485-.716-.496-1.2.011-.484.177-.883.496-1.197.32-.314.725-.477 1.216-.488.247.002.486.056.72.163.232.107.438.256.616.446ZM34.317 14.782c-.733.014-1.335.245-1.808.692-.472.447-.717 1.022-.733 1.725.016.7.26 1.277.733 1.73.473.452 1.075.686 1.808.702.732-.016 1.334-.25 1.807-.702.473-.453.717-1.03.734-1.73-.017-.7-.261-1.274-.734-1.722-.473-.449-1.075-.68-1.807-.695Zm.007.726c.481.01.883.174 1.204.489.322.314.489.715.5 1.202-.011.488-.178.891-.5 1.21-.321.319-.723.484-1.204.496a1.736 1.736 0 0 1-1.215-.496c-.328-.319-.498-.722-.512-1.21.013-.487.183-.888.51-1.203.325-.314.731-.477 1.217-.488ZM37.724 14.802v4.794h.76v-3.582l1.514 3.082h.528l1.513-3.082.007 3.582h.747v-4.794h-.952l-1.575 3.185-1.583-3.185h-.959ZM44.065 14.802v4.794h.76v-3.582l1.514 3.082h.528l1.513-3.082.007 3.582h.747v-4.794h-.952l-1.576 3.185-1.582-3.185h-.959ZM51.118 17.61v-2.808h-.808v2.808c.006.633.193 1.126.56 1.48.366.355.876.535 1.53.54.652-.005 1.161-.185 1.526-.54.364-.354.55-.847.555-1.48v-2.808h-.808v2.808c-.004.41-.117.728-.34.953-.224.225-.533.339-.927.342-.398-.004-.711-.118-.94-.345-.227-.226-.343-.542-.348-.95ZM55.637 14.802v4.794h.808v-3.438l2.554 3.438h.795v-4.794H59v3.445l-2.569-3.445h-.794ZM61.068 14.802v4.794h.808v-4.794h-.808ZM62.573 14.802v.726h1.513v4.068h.809v-4.068h1.52v-.726h-3.842ZM70.827 14.802h-.822l-1.343 2.336-1.37-2.336h-.814l1.787 3.226v1.569h.802V18l1.76-3.199ZM74.234 17.61v-2.808h-.808v2.808c.006.633.193 1.126.56 1.48.366.355.876.535 1.53.54.652-.005 1.161-.185 1.526-.54.364-.354.55-.847.555-1.48v-2.808h-.808v2.808c-.004.41-.118.728-.34.953-.224.225-.533.339-.927.342-.398-.004-.711-.118-.94-.345-.227-.226-.343-.542-.348-.95ZM81.67 15.973l.336-.712a3.146 3.146 0 0 0-1.678-.493c-.528.004-.95.124-1.264.36-.314.235-.475.56-.483.975.014.416.149.72.405.91.256.19.553.33.89.418.337.089.633.188.89.3.256.11.39.294.404.55a.49.49 0 0 1-.238.43c-.156.1-.376.152-.66.153a2.14 2.14 0 0 1-.818-.18 2.826 2.826 0 0 1-.804-.519l-.35.699c.25.23.545.412.882.55a2.91 2.91 0 0 0 1.077.21c.537-.004.97-.128 1.3-.37.33-.244.499-.581.508-1.014-.011-.421-.145-.73-.4-.926a2.555 2.555 0 0 0-.888-.434 6.724 6.724 0 0 1-.89-.307c-.255-.111-.39-.293-.404-.545a.42.42 0 0 1 .213-.37c.14-.086.329-.13.568-.13.185-.001.4.034.643.105.244.07.498.184.761.34ZM83.007 14.802v4.794h3.506v-.726h-2.698V17.55h2.342v-.72h-2.342v-1.3h2.616v-.727h-3.424ZM91.46 19.596l-1.075-1.602a1.49 1.49 0 0 0 .735-.582c.17-.264.256-.588.258-.973-.004-.524-.173-.927-.506-1.209-.334-.282-.809-.425-1.426-.428h-1.945v4.794h.808v-1.445h1.137c.077.002.15 0 .22-.006l.876 1.451h.918Zm-3.15-2.17v-1.898h1.136c.373 0 .659.076.86.23.2.153.302.387.305.702-.003.325-.104.567-.305.726-.201.16-.487.24-.86.24H88.31ZM97.792 18.576a2.422 2.422 0 0 1-.547.241c-.19.058-.376.087-.556.088-.502-.011-.916-.176-1.244-.493-.328-.318-.498-.722-.51-1.213.012-.487.18-.889.507-1.206.325-.317.739-.481 1.24-.492a2.08 2.08 0 0 1 1.384.548l.458-.596a2.723 2.723 0 0 0-.841-.49 2.914 2.914 0 0 0-1.001-.181c-.742.015-1.352.246-1.829.695-.477.448-.723 1.022-.74 1.722.017.7.26 1.277.73 1.73.468.452 1.066.686 1.791.702.335-.003.667-.06.996-.173.329-.113.618-.263.867-.45V17.24h-.705v1.336ZM103.593 19.596l-1.075-1.602c.32-.125.565-.319.735-.582.17-.264.256-.588.258-.973-.004-.524-.173-.927-.506-1.209-.333-.282-.809-.425-1.425-.428h-1.946v4.794h.809v-1.445h1.137a2.26 2.26 0 0 0 .219-.006l.876 1.451h.918Zm-3.15-2.17v-1.898h1.137c.372 0 .658.076.859.23.201.153.303.387.305.702-.002.325-.104.567-.305.726-.201.16-.487.24-.859.24h-1.137ZM106.728 14.782c-.732.014-1.335.245-1.808.692-.472.447-.717 1.022-.733 1.725.016.7.261 1.277.733 1.73.473.452 1.076.686 1.808.702.732-.016 1.334-.25 1.807-.702.473-.453.717-1.03.734-1.73-.017-.7-.261-1.274-.734-1.722-.473-.449-1.075-.68-1.807-.695Zm.006.726c.482.01.884.174 1.205.489.322.314.488.715.501 1.202-.013.488-.179.891-.501 1.21-.321.319-.723.484-1.205.496a1.734 1.734 0 0 1-1.214-.496c-.328-.319-.498-.722-.511-1.21.012-.487.182-.888.508-1.203.326-.314.732-.477 1.217-.488ZM110.848 17.61v-2.808h-.808v2.808c.006.633.192 1.126.559 1.48.366.355.876.535 1.53.54.653-.005 1.161-.185 1.526-.54.365-.354.55-.847.556-1.48v-2.808h-.809v2.808c-.004.41-.117.728-.34.953-.223.225-.532.339-.927.342-.398-.004-.711-.118-.939-.345-.228-.226-.344-.542-.348-.95ZM117.277 14.802h-1.911v4.794h.808v-1.445h1.103c.606-.003 1.073-.154 1.4-.45.328-.297.493-.717.497-1.262-.004-.524-.169-.927-.497-1.209-.327-.282-.794-.425-1.4-.428Zm-.034 2.623h-1.069v-1.897h1.069c.371 0 .657.076.856.23.199.153.299.387.301.702-.002.325-.102.567-.301.726-.199.16-.485.24-.856.24Z"/><path fill="#000" d="m31.846 6.357 1.955-6.34h2.563l1.938 6.34 2.185-6.34h2.661l-3.844 11.022h-1.823l-2.415-7.671-2.399 7.671h-1.823L27 .016h2.661l2.185 6.341ZM44.479.016h2.464V11.04h-2.464V.016ZM49.653.016h2.464V4.55L56.274.016h3.039l-4.387 4.88a943.72 943.72 0 0 1 2.103 2.94c1.019 1.429 1.774 2.497 2.284 3.203h-2.875l-3.22-4.353-1.1 1.232v3.121h-2.465V.016ZM60.84.016h2.465V11.04H60.84V.016ZM75.888 4.107l-2.974 6.029h-1.478l-2.957-6.03v6.933h-2.464V.016h3.335l2.842 6.062L75.05.016h3.318V11.04h-2.464V4.107h-.016ZM89.013.016v2.185h-5.486v2.267h4.928v2.103h-4.928v2.283h5.65v2.169h-8.115V0h7.951v.016ZM99.79 1.462c1.051.97 1.577 2.3 1.577 4.008 0 1.709-.509 3.072-1.544 4.074-1.019 1.002-2.596 1.495-4.699 1.495h-3.761V.016h3.893c1.988 0 3.482.493 4.534 1.446Zm-1.807 6.555c.608-.575.903-1.397.903-2.481 0-1.084-.295-1.922-.903-2.497-.608-.591-1.528-.87-2.776-.87h-1.38V8.87h1.56c1.134 0 2.004-.28 2.596-.854ZM103.502.016h2.464V11.04h-2.464V.016ZM116.529 11.04l-1.018-2.383h-4.616l-1.019 2.382h-2.612L112.028.016h2.382l4.764 11.023h-2.645Zm-3.335-7.738-1.379 3.203h2.759l-1.38-3.203Z"/></svg>