<?xml version="1.0" encoding="UTF-8"?>
<svg width="100px" height="12px" viewBox="0 0 100 12" version="1.1" xmlns="http://www.w3.org/2000/svg" xmlns:xlink="http://www.w3.org/1999/xlink">
    <title>text2915</title>
    <g id="Page-1" stroke="none" stroke-width="1" fill="none" fill-rule="evenodd">
        <path d="M3.30351469,5.26279717 C3.01184187,5.26279717 2.92307154,5.2374343 2.97379729,5.09793848 L4.25462256,1.87685314 L4.27998544,1.87685314 L5.51008496,5.26279717 L3.30351469,5.26279717 M1.9339193,7.84981059 L2.63139841,6.01100204 C2.69480554,5.84614334 2.77089454,5.79541758 3.0752488,5.79541758 L5.71298797,5.79541758 L6.48655571,7.93858066 C6.66409567,8.47120019 6.14415626,8.42047532 5.54812927,8.45851963 C5.47204064,8.53460826 5.47204064,8.80091847 5.54812927,8.8770071 C6.01734196,8.86432566 6.71482204,8.85164422 7.20939769,8.85164422 C7.72933614,8.85164422 8.18586889,8.86432566 8.65508166,8.8770071 C8.73117021,8.80091847 8.73117021,8.53460826 8.65508166,8.45851963 C8.16050601,8.42047532 7.74201784,8.42047444 7.51375221,7.76104053 L4.91405736,0.887700948 C4.81260594,0.646753619 4.74919848,0.507257533 4.57165852,0.507257533 C4.38143712,0.507257533 4.27998526,0.621390831 4.14048962,0.963789578 L1.32521026,7.55813751 C0.98281177,8.34438581 0.602367705,8.42047532 0.0570664725,8.45851963 C-0.0190221575,8.53460826 -0.0190221575,8.80091847 0.0570664725,8.8770071 C0.526279163,8.86432566 0.69113883,8.85164422 1.18571444,8.85164422 C1.70565289,8.85164422 2.3397258,8.86432566 2.80893859,8.8770071 C2.88502713,8.80091847 2.88502713,8.53460826 2.80893859,8.45851963 C2.32704437,8.43315676 1.73101649,8.38243012 1.9339193,7.84981059 M11.5286159,10.0690623 C11.820289,10.0690623 11.9471034,10.2466024 11.9471034,10.5129126 C11.9471034,10.8426292 11.6807932,11.0201702 11.30035,11.0201702 C11.0467221,11.0201702 10.9072254,10.9694444 10.564827,10.84263 C10.476057,10.9314001 10.4380126,11.0201702 10.4380126,11.1723474 C10.7550482,11.3118433 10.9706335,11.3879319 11.3764386,11.3879319 C12.1500064,11.3879319 12.7333525,10.9948064 12.7333525,10.4495055 C12.7333525,9.9676108 12.3402279,9.66325628 11.8329704,9.66325628 C11.7188383,9.66325628 11.6047045,9.67593771 11.503253,9.70130059 L11.7695632,8.97845861 C12.4670423,8.95309573 13.0884337,8.67410321 13.6844604,7.69763333 C13.6337355,7.58350039 13.5322831,7.53277464 13.4181502,7.5200932 C12.9869822,8.0780756 12.4416795,8.35706813 11.8963776,8.35706813 C10.9706344,8.35706813 10.1970653,7.41863993 10.1970653,5.93491341 C10.1970653,4.53995607 10.8057748,3.70298026 11.6427488,3.70298026 C12.3909537,3.70298026 12.4924061,4.1468306 12.543131,4.59068094 C12.5811753,4.9330789 12.7587163,5.04721272 13.0250256,5.04721272 C13.2913358,5.04721272 13.6464161,4.88235314 13.6464161,4.48922944 C13.6464161,3.79175121 12.9235732,3.28449279 11.706156,3.28449279 C10.4506953,3.28449279 9.10646161,4.41314257 9.10646161,6.21390505 C9.10646161,7.76103876 9.90539363,8.85164422 11.3383943,8.97845861 L10.8818625,10.0690623 L10.9579512,10.1451509 C11.1608542,10.0817437 11.2876694,10.0690623 11.5286159,10.0690623 M16.3073385,7.30450875 L16.3073385,4.78090252 C16.3073385,4.1468306 16.3580643,3.33521855 16.3580643,3.33521855 C16.3580643,3.28449279 16.2946571,3.24644848 16.1932056,3.24644848 C15.8254447,3.3859443 15.3308669,3.50007724 14.4558485,3.61421019 C14.4304856,3.69029882 14.4558485,3.89320183 14.4812114,3.96929046 C15.1660091,4.04537909 15.3055049,4.10878717 15.3055049,4.83162827 L15.3055049,7.30450875 C15.3055049,8.35706725 15.1660091,8.39511244 14.3924413,8.45851963 C14.3163536,8.53460826 14.3163536,8.80091847 14.3924413,8.8770071 C14.9250617,8.86432566 15.25478,8.85164422 15.8127624,8.85164422 C16.3580643,8.85164422 16.6751011,8.86432566 17.2204021,8.8770071 C17.2964907,8.80091847 17.2964907,8.53460826 17.2204021,8.45851963 C16.4468352,8.40779388 16.3073385,8.35706725 16.3073385,7.30450875 M21.5382337,4.18487492 C21.7918625,4.46386568 21.8425882,4.65408813 21.8425882,4.95844265 L21.8425882,7.87517347 C21.8425882,8.10343848 21.8299068,8.16684655 21.6650481,8.25561662 C21.3606944,8.40779388 21.0182947,8.42047532 20.8280731,8.42047532 C20.0925506,8.42047532 18.9892646,7.88785315 18.9892646,5.97295772 C18.9892646,4.65408901 19.5218868,3.7156617 20.5364001,3.7156617 C20.9168432,3.7156617 21.2592429,3.8805204 21.5382337,4.18487492 M21.8425882,10.2592839 C21.8425882,11.3118424 21.7030924,11.362569 20.9295246,11.4006133 C20.8534369,11.476702 20.8534369,11.7430122 20.9295246,11.8191008 C21.4621451,11.8064194 21.7918633,11.7937379 22.3498457,11.7937379 C22.8951476,11.7937379 23.2121844,11.8064194 23.7574854,11.8191008 C23.833574,11.7430122 23.833574,11.476702 23.7574854,11.4006133 C22.9839185,11.362569 22.8444218,11.3118424 22.8444218,10.2592839 L22.8444218,3.56348444 C22.8444218,3.3859443 22.7936961,3.24644848 22.6542003,3.24644848 C22.5654311,3.24644848 22.4893416,3.34789998 22.3878901,3.48739581 C22.2230322,3.71566082 22.1723056,3.75370601 22.0201283,3.66493594 C21.6143232,3.39862574 21.1197462,3.28449279 20.5871258,3.28449279 C19.0399921,3.28449279 17.8986609,4.55263839 17.8986609,6.22658649 C17.8986609,7.40595849 18.6975941,8.97845861 20.5237186,8.97845861 C20.8661175,8.97845861 21.2719244,8.91505141 21.5001894,8.78823703 C21.7918625,8.61069689 21.8425882,8.58533402 21.8425882,8.85164422 L21.8425882,10.2592839 M30.4774588,4.27364498 L29.3234479,4.27364498 L29.3234479,1.73735732 C29.3234479,1.4330028 29.4756261,1.17937403 29.7799797,1.17937403 L31.1115307,1.17937403 C32.0626377,1.17937403 32.2655425,1.68663244 32.5445333,2.56165081 C32.6967105,2.58701368 32.8362072,2.56165081 32.9630207,2.49824362 C32.8996144,1.97830464 32.709392,0.760886212 32.6840291,0.659434793 C32.6840291,0.634072005 32.6713477,0.621390478 32.6333033,0.621390478 C32.4177198,0.659434793 32.3162674,0.672116232 32.0119129,0.672116232 L28.7781461,0.672116232 C28.7781461,0.672116232 27.7763125,0.659434793 27.1422405,0.646753355 C27.0661528,0.722841897 27.0661528,0.989152454 27.1422405,1.06524108 C28.0299404,1.1032854 28.2455257,1.16669347 28.2455257,2.21925197 L28.2455257,7.30450875 C28.2455257,8.35706725 28.0299404,8.42047532 27.1422405,8.45851963 C27.0661528,8.53460826 27.0661528,8.80091847 27.1422405,8.8770071 C27.763631,8.86432566 28.7908275,8.85164422 28.7908275,8.85164422 L31.5173368,8.85164422 C32.1260458,8.85164422 33.1405609,8.8770071 33.1405609,8.8770071 C33.318101,8.24293518 33.5083235,7.40595937 33.6097741,6.7592069 C33.4702792,6.69579971 33.3307825,6.65775539 33.1659238,6.69579971 C32.9122959,7.60886239 32.4684438,8.35706813 31.5046553,8.35706813 L29.7799797,8.35706813 C29.500989,8.35706813 29.3234479,8.15416423 29.3234479,7.81176628 L29.3234479,4.75553964 L30.4774588,4.75553964 C31.5553802,4.75553964 31.5934254,5.04721272 31.6314697,5.61787745 C31.7075583,5.69396608 31.9738694,5.69396608 32.0499572,5.61787745 C32.0372757,5.17402711 32.0245943,4.9330789 32.0245943,4.50191087 C32.0245943,4.07074197 32.0372757,3.79174945 32.0499572,3.41130718 C31.9738694,3.33521855 31.7075583,3.33521855 31.6314697,3.41130718 C31.5934254,4.1087854 31.5553802,4.27364498 30.4774588,4.27364498 M36.3087408,4.3116893 C36.2706965,4.36241505 36.1819265,4.48922944 36.1819265,4.3116893 C36.1819265,3.93124615 36.2453337,3.34789998 36.2453337,3.34789998 C36.2453337,3.28449279 36.1946079,3.24644848 36.0931564,3.24644848 C35.738077,3.3859443 35.2181363,3.50007724 34.3431179,3.61421019 C34.317755,3.69029882 34.3431179,3.89320183 34.3684808,3.96929046 C35.0532784,4.03269766 35.1927743,4.09610573 35.1927743,4.83162827 L35.1927743,7.30450875 C35.1927743,8.34438581 35.0659599,8.39511244 34.3050736,8.45851963 C34.2289858,8.53460826 34.2289858,8.80091847 34.3050736,8.8770071 C34.8250126,8.86432566 35.1547308,8.85164422 35.7000318,8.85164422 C36.1946079,8.85164422 36.4228747,8.86432566 36.9554942,8.8770071 C37.0315828,8.80091847 37.0315828,8.53460826 36.9554942,8.45851963 C36.3087417,8.39511244 36.1946079,8.34438581 36.1946079,7.30450875 L36.1946079,5.22475286 C36.1946079,4.95844265 36.3087417,4.80626539 36.4101923,4.69213245 C36.892087,4.22291923 37.386664,3.94392759 37.8812392,3.94392759 C38.134868,3.94392759 38.401179,4.10878629 38.5533554,4.40045937 C38.6801698,4.65408725 38.7055327,4.99648697 38.7055327,5.37693012 L38.7055327,7.30450875 C38.7055327,8.34438581 38.5787183,8.39511244 37.9192835,8.45851963 C37.8558772,8.53460826 37.8558772,8.80091847 37.9192835,8.8770071 C38.4519039,8.86432566 38.7055336,8.85164422 39.2127902,8.85164422 C39.7327292,8.85164422 40.0117217,8.86432566 40.5570227,8.8770071 C40.6204299,8.80091847 40.6204299,8.53460826 40.5570227,8.45851963 C39.846863,8.39511244 39.7073663,8.34438581 39.7073663,7.30450875 L39.7073663,5.41497443 C39.7073663,4.71749621 39.6566406,4.1087854 39.3649675,3.7156617 C39.1493839,3.43667005 38.7562584,3.28449279 38.3124081,3.28449279 C37.6910185,3.28449279 37.0823086,3.44935237 36.3087408,4.3116893 M41.3706162,7.10160573 C41.421342,7.72299533 41.4593863,8.31902381 41.4593863,8.85164422 C41.5862007,8.82628135 41.7130159,8.81359991 41.7764222,8.81359991 C41.8651923,8.81359991 41.9412818,8.81359991 42.030051,8.83896278 C42.3724498,8.92773285 42.7148496,8.97845861 43.1840619,8.97845861 C43.8942224,8.97845861 45.2004106,8.63605801 45.2004106,7.38059738 C45.2004106,6.51826045 44.5663378,6.02368259 43.7166823,5.69396608 C42.9557969,5.402293 42.4485385,5.21207054 42.4485385,4.51459231 C42.4485385,3.99465334 42.9050711,3.70298026 43.3362392,3.70298026 C43.6152308,3.70298026 44.3507551,3.80443265 44.5156129,4.88235402 C44.5917016,4.95844265 44.8453312,4.94576122 44.9214189,4.86967259 C44.9214189,4.41314081 44.9848261,3.94392671 44.9975076,3.52544012 C44.6043839,3.46203293 43.9956739,3.28449279 43.3362392,3.28449279 C42.3978145,3.28449279 41.5481564,3.89320271 41.5481564,4.70481389 C41.5481564,5.630558 41.9666456,6.02368347 42.9431146,6.4294895 C43.9829916,6.87333896 44.2366213,7.12696861 44.2366213,7.67227046 C44.2366213,8.29366006 43.6279122,8.55997114 43.158699,8.55997114 C42.6641238,8.55997114 42.3851313,8.39511244 42.2583169,8.25561662 C41.9539633,7.96394354 41.8398294,7.40595937 41.7637408,7.08892429 C41.6876531,7.01283566 41.4467048,7.0255171 41.3706162,7.10160573 M46.7578497,1.25546266 C46.7578497,1.58517918 47.0622051,1.91489745 47.3665588,1.91489745 C47.7216391,1.91489745 48.0259936,1.58517918 48.0259936,1.30618841 C48.0259936,1.00183389 47.7596834,0.646753355 47.4172845,0.646753355 C47.1129309,0.646753355 46.7578497,0.951108139 46.7578497,1.25546266 M47.9118606,7.30450875 L47.9118606,4.78090252 C47.9118606,4.1468306 47.9625864,3.33521855 47.9625864,3.33521855 C47.9625864,3.28449279 47.8991792,3.24644848 47.7977277,3.24644848 C47.4299668,3.3859443 46.935389,3.50007724 46.0603706,3.61421019 C46.0350078,3.69029882 46.0603706,3.89320183 46.0857335,3.96929046 C46.7705312,4.04537909 46.910027,4.10878717 46.910027,4.83162827 L46.910027,7.30450875 C46.910027,8.35706725 46.7705312,8.39511244 45.9969634,8.45851963 C45.9208757,8.53460826 45.9208757,8.80091847 45.9969634,8.8770071 C46.5295838,8.86432566 46.8593021,8.85164422 47.4172845,8.85164422 C47.9625864,8.85164422 48.2796232,8.86432566 48.8249242,8.8770071 C48.9010128,8.80091847 48.9010128,8.53460826 48.8249242,8.45851963 C48.0513573,8.40779388 47.9118606,8.35706725 47.9118606,7.30450875 M50.1499363,7.30450875 C50.1499363,8.35706725 50.0104405,8.40779388 49.30028,8.45851963 C49.2241922,8.53460826 49.2241922,8.80091847 49.30028,8.8770071 C49.8329004,8.86432566 50.1245743,8.85164422 50.6571939,8.85164422 C51.1010442,8.85164422 51.2659038,8.86432566 51.8112048,8.8770071 C51.8872934,8.80091847 51.8872934,8.53460826 51.8112048,8.45851963 C51.2912667,8.40779388 51.15177,8.35706725 51.15177,7.30450875 L51.15177,6.1631793 C51.4434431,6.17586073 51.6209841,6.2646308 51.874612,6.61971108 L52.800357,7.92589922 C53.0539857,8.29366006 53.09203,8.4458382 53.09203,8.61069689 L53.09203,8.81359991 C53.09203,8.85164422 53.1047115,8.8770071 53.1427558,8.8770071 C53.3963846,8.86432566 53.6373328,8.85164422 54.017775,8.85164422 C54.4108996,8.85164422 54.6772107,8.86432566 55.057653,8.8770071 C55.1337416,8.80091847 55.1337416,8.53460826 55.057653,8.45851963 C54.626485,8.40779388 54.2460409,8.35706725 53.9670493,7.92589922 L52.483321,5.73201039 C52.4452767,5.68128464 52.4199138,5.61787745 52.4199138,5.55447026 C52.4199138,5.5037445 52.4325952,5.46570019 52.4706396,5.42765587 L53.4344289,4.36241505 C53.8021906,3.9819719 54.1953161,3.82979464 54.8293871,3.80443176 C54.9054757,3.72834313 54.9054757,3.46203293 54.8293871,3.3859443 C54.3601748,3.39862574 54.1826337,3.41130718 53.726102,3.41130718 C53.2442082,3.41130718 53.0286228,3.39862574 52.5594096,3.3859443 C52.4833219,3.46203293 52.4833219,3.72834313 52.5594096,3.80443176 C53.3202959,3.84247608 52.9144899,4.32437074 52.7876755,4.45118512 C52.1155602,5.18670766 51.4814874,5.74469183 51.15177,5.84614334 L51.15177,1.45836567 C51.15177,0.634072797 51.2024957,0.126814383 51.2024957,0.126814383 C51.2024957,0.0380444031 51.15177,-8.8817842e-16 51.037637,-8.8817842e-16 C50.720602,0.126814295 49.7694932,0.304354608 49.2622357,0.342398835 C49.2368728,0.443850254 49.2622365,0.646753443 49.3383243,0.722841985 C49.9977591,0.7608863 50.1499363,0.697480165 50.1499363,1.76272019 L50.1499363,7.30450875 M56.3818725,7.30450875 C56.3818725,8.35706725 56.2423767,8.42047532 55.468809,8.45851963 C55.3927212,8.53460826 55.3927212,8.80091847 55.468809,8.8770071 C56.0014294,8.86432566 56.3311477,8.85164422 56.8891301,8.85164422 C57.4344319,8.85164422 57.7514688,8.86432566 58.2967697,8.8770071 C58.3728584,8.80091847 58.3728584,8.53460826 58.2967697,8.45851963 C57.5232029,8.42047532 57.3837062,8.35706725 57.3837062,7.30450875 L57.3837062,1.45836567 C57.3837062,0.634072797 57.4344319,0.126814383 57.4344319,0.126814383 C57.4344319,0.0380444031 57.3837062,-8.8817842e-16 57.2695732,-8.8817842e-16 C56.9525382,0.126814295 56.0014294,0.304354608 55.4941719,0.342398835 C55.468809,0.443850254 55.4941727,0.646753443 55.5702605,0.722841985 C56.2296953,0.7608863 56.3818725,0.697480165 56.3818725,1.76272019 L56.3818725,7.30450875 M59.0408135,6.25194936 C59.0408135,7.54545431 59.9158345,8.97845861 61.7039156,8.97845861 C63.5934481,8.97845861 64.3923805,7.40595849 64.3923805,6.13781642 C64.3923805,4.81894771 63.6948996,3.28449279 61.7292784,3.28449279 C60.017286,3.28449279 59.0408135,4.64140846 59.0408135,6.25194936 M61.5897826,3.70298026 C62.6803854,3.70298026 63.3017768,4.67945277 63.3017768,6.54362245 C63.3017768,8.21757054 62.528209,8.55997114 61.9321814,8.55997114 C60.6133136,8.55997114 60.1314172,6.93674615 60.1314172,5.96027628 C60.1314172,4.85699203 60.5245435,3.70298026 61.5897826,3.70298026 M67.1303823,4.60336238 C67.5235069,4.19755635 68.0307653,3.86783896 68.4112075,3.86783896 C69.2228196,3.86783896 69.9202987,4.7809034 69.9202987,6.21390505 C69.9202987,7.25378211 69.5525361,8.5472897 68.1322159,8.5472897 C67.9039509,8.5472897 67.4600997,8.48388251 67.2318338,8.2809795 C66.9655245,8.05271361 66.9274793,7.98930554 66.9274793,7.5200932 L66.9274793,5.16134567 C66.9274793,4.89503546 66.9655245,4.78090252 67.1303823,4.60336238 M67.0289308,4.18487492 C66.9782059,4.23560067 66.9021164,4.24828211 66.9021164,4.1468306 C66.9021164,3.69029882 66.9528421,3.33521855 66.9528421,3.33521855 C66.9528421,3.28449279 66.8894349,3.24644848 66.7879834,3.24644848 C66.432904,3.3859443 65.9510076,3.50007724 65.0759893,3.61421019 C65.0506264,3.69029882 65.0759893,3.89320183 65.1013521,3.96929046 C65.7861498,4.03269766 65.9256456,4.10878717 65.9256456,4.83162827 L65.9256456,10.2466024 C65.9256456,11.2991609 65.7861498,11.362569 65.0125821,11.4006133 C64.9364943,11.476702 64.9364943,11.7430122 65.0125821,11.8191008 C65.5452025,11.8064194 65.8749208,11.7937379 66.4329032,11.7937379 C67.0289308,11.7937379 67.4220562,11.8064194 67.9673572,11.8191008 C68.0434458,11.7430122 68.0434458,11.476702 67.9673572,11.4006133 C67.066976,11.3498876 66.9274793,11.2991609 66.9274793,10.2466024 L66.9274793,8.8770071 C66.9274793,8.7121484 66.9655245,8.73751128 67.1050194,8.78823703 C67.4093739,8.91505141 67.8024994,8.97845861 68.2083045,8.97845861 C68.9184651,8.97845861 69.5525379,8.76287327 70.072476,8.26829806 C70.6685036,7.6849519 71.0109024,6.89870184 71.0109024,5.87150621 C71.0109024,4.52727463 70.0597937,3.28449279 68.7662878,3.28449279 C68.2970755,3.28449279 67.5995955,3.60152875 67.0289308,4.18487492 M73.1711062,5.27547861 C73.4120535,3.84247696 74.2997551,3.72834313 74.6041087,3.72834313 C75.0860034,3.72834313 75.6566681,3.99465422 75.6566681,5.05989416 C75.6566681,5.17402711 75.6059423,5.2374343 75.4664465,5.2374343 L73.1711062,5.27547861 M76.493643,7.67227046 C76.0244307,8.15416423 75.6566681,8.35706813 74.9211447,8.35706813 C74.4646138,8.35706813 73.9319925,8.09075704 73.5388679,7.44400457 C73.28524,7.0255171 73.1330619,6.44217006 73.1330619,5.70664752 L76.5063245,5.73201039 C76.6585017,5.73201039 76.7472718,5.65592176 76.7472718,5.51642594 C76.7472718,4.451186 76.3668269,3.30985567 74.6041087,3.30985567 C73.5008253,3.30985567 72.067821,4.36241681 72.067821,6.28999368 C72.067821,7.00015335 72.2453621,7.6849519 72.6638486,8.16684655 C73.0950175,8.67410321 73.691046,8.97845861 74.6041087,8.97845861 C75.5678971,8.97845861 76.2526966,8.53460738 76.7599532,7.87517347 C76.7219089,7.74835909 76.6458203,7.6849519 76.493643,7.67227046 M81.7199808,7.27914587 C81.7199808,7.52009232 81.6946179,7.6215447 81.5170778,7.77372196 C81.0478654,8.17952711 80.6420585,8.382431 80.3250226,8.382431 C79.6402258,8.382431 78.9300644,7.63422438 78.9300644,6.04904635 C78.9300644,5.13598367 79.1076054,4.62872438 79.2978261,4.36241505 C79.6909507,3.76638745 80.2235719,3.72834313 80.4771998,3.72834313 C80.9337316,3.72834313 81.2507684,3.89320183 81.5043963,4.18487492 C81.6819365,4.38777793 81.7199808,4.476548 81.7199808,4.86967259 L81.7199808,7.27914587 M81.580485,8.21757231 C81.6312107,8.16684655 81.7326622,8.14148368 81.7326622,8.23025374 C81.7326622,8.53460738 81.872158,8.97845861 81.872158,8.97845861 C81.9736096,9.01650292 82.0116547,9.00382148 82.1131054,8.97845861 C82.392097,8.75019272 82.8739926,8.55997114 83.6475594,8.47120107 C83.723648,8.39511244 83.723648,8.20489087 83.6475594,8.12880224 C82.8359482,8.06539505 82.7218144,7.82444684 82.7218144,7.20305724 L82.7218144,1.45836567 C82.7218144,0.634072797 82.7725402,0.126814383 82.7725402,0.126814383 C82.7725402,0.0380444031 82.7218144,-8.8817842e-16 82.6076815,-8.8817842e-16 C82.2906464,0.126814295 81.3395376,0.304354608 80.8322801,0.342398835 C80.8069172,0.443850254 80.832281,0.646753443 80.9083687,0.722841985 C81.5678035,0.7608863 81.7199808,0.697480165 81.7199808,1.76272019 L81.7199808,3.3859443 C81.7199808,3.47471437 81.6946179,3.50007724 81.6058478,3.50007724 C81.555123,3.50007724 81.0351831,3.28449279 80.6166957,3.28449279 C79.7797216,3.28449279 79.2217374,3.56348444 78.7144799,4.04537909 C78.1691789,4.59068006 77.8394607,5.33888668 77.8394607,6.27731224 C77.8394607,7.83712739 78.6257116,8.97845861 79.9953052,8.97845861 C80.4898813,8.97845861 80.9590954,8.72482896 81.580485,8.21757231 M84.9012385,1.25546266 C84.9012385,1.58517918 85.2055939,1.91489745 85.5099475,1.91489745 C85.8650278,1.91489745 86.1693823,1.58517918 86.1693823,1.30618841 C86.1693823,1.00183389 85.9030721,0.646753355 85.5606733,0.646753355 C85.2563196,0.646753355 84.9012385,0.951108139 84.9012385,1.25546266 M86.0552494,7.30450875 L86.0552494,4.78090252 C86.0552494,4.1468306 86.1059751,3.33521855 86.1059751,3.33521855 C86.1059751,3.28449279 86.0425679,3.24644848 85.9411164,3.24644848 C85.5733556,3.3859443 85.0787777,3.50007724 84.2037594,3.61421019 C84.1783965,3.69029882 84.2037594,3.89320183 84.2291223,3.96929046 C84.9139199,4.04537909 85.0534157,4.10878717 85.0534157,4.83162827 L85.0534157,7.30450875 C85.0534157,8.35706725 84.9139199,8.39511244 84.1403522,8.45851963 C84.0642644,8.53460826 84.0642644,8.80091847 84.1403522,8.8770071 C84.6729726,8.86432566 85.0026909,8.85164422 85.5606733,8.85164422 C86.1059751,8.85164422 86.423012,8.86432566 86.9683129,8.8770071 C87.0444016,8.80091847 87.0444016,8.53460826 86.9683129,8.45851963 C86.1947461,8.40779388 86.0552494,8.35706725 86.0552494,7.30450875 M89.8404606,10.8806744 C90.0306865,10.5382755 90.1955452,10.1705129 90.3604039,9.79007066 C91.3749102,7.35523626 91.9329023,6.03636315 92.6050185,4.61604382 C92.7825587,4.24828211 93.1630018,3.84247608 93.632215,3.80443176 C93.7083037,3.72834313 93.7083037,3.46203293 93.632215,3.3859443 C93.3151791,3.39862574 93.0869132,3.41130718 92.7318329,3.41130718 C92.2879826,3.41130718 92.0470264,3.39862574 91.577822,3.3859443 C91.5017334,3.46203293 91.5017334,3.72834313 91.577822,3.80443176 C91.9709466,3.84247608 92.3767526,3.91856471 92.1865311,4.37509649 L90.9183872,7.27914587 C90.8296172,7.49472944 90.7281657,7.52009232 90.6140327,7.26646443 L89.4980617,4.62872526 C89.2697967,4.09610485 89.1303009,3.86783896 89.9038722,3.80443176 C89.9799608,3.72834313 89.9799608,3.46203293 89.9038722,3.3859443 C89.4346554,3.39862574 88.927397,3.41130718 88.4708652,3.41130718 C88.0396972,3.41130718 87.6972975,3.39862574 87.4436687,3.3859443 C87.367581,3.46203293 87.367581,3.72834313 87.4436687,3.80443176 C88.001652,3.85515752 88.1031044,3.95660991 88.4455023,4.75553964 L89.8785049,8.09075792 C89.9926422,8.35706725 90.1828638,8.92773285 90.0560494,9.28281313 C89.9165536,9.71398115 89.7516905,10.0563809 89.5614689,10.4495055 C89.421974,10.7031333 89.244433,10.8172672 88.927397,10.8172672 C88.7498577,10.8172672 88.6991311,10.7792228 88.5596353,10.7792228 C88.1918745,10.7792228 88.001652,11.159666 88.001652,11.3245247 C88.001652,11.590834 88.2552817,11.7937379 88.5976796,11.7937379 C88.8639898,11.7937379 89.3712482,11.6922855 89.8277791,10.8806744 L89.8404606,10.8806744 M97.5067907,5.89686909 L97.5067907,7.58350039 C97.5067907,7.74835909 97.4307021,7.83712916 97.3292506,7.91321779 C96.9995332,8.17952711 96.5683643,8.45851963 96.213284,8.45851963 C95.5792121,8.45851963 95.3002205,7.95126122 95.3002205,7.55813751 C95.3002205,6.98747279 95.5665307,6.41680718 96.5049571,6.1631793 L97.5067907,5.89686909 M97.5067907,8.24293518 C97.5828794,8.50924451 97.7984638,8.97845861 98.4832615,8.97845861 C99.1046432,8.97845861 99.5611837,8.47120107 99.5611837,8.40779388 C99.5611837,8.31902381 99.4470508,8.19220943 99.3963251,8.19220943 C99.3202364,8.19220943 99.2695107,8.39511244 99.0032005,8.39511244 C98.5086244,8.39511244 98.4959429,7.90053547 98.4959429,7.31719018 L98.4959429,5.42765587 C98.4959429,3.62689339 97.5067819,3.28449279 96.5810457,3.28449279 C95.5411678,3.28449279 94.4886084,4.00733566 94.4886084,4.69213245 C94.4886084,4.99648609 94.6407857,5.13598279 94.9324588,5.13598279 C95.3002205,5.13598279 95.490442,4.88235402 95.490442,4.71749533 C95.490442,4.62872526 95.4777606,4.53995519 95.4523977,4.48922944 C95.4397163,4.45118512 95.4270349,4.37509649 95.4270349,4.23560067 C95.4270349,3.84247608 95.9976996,3.70298026 96.4795942,3.70298026 C96.9107543,3.70298026 97.5067907,3.91856559 97.5067907,5.35156724 C97.5067907,5.44033731 97.4687464,5.49106306 97.4307021,5.5037445 L96.3400984,5.77005471 C95.1226803,6.07440835 94.2476611,6.74652634 94.2476611,7.60886327 C94.2476611,8.61069601 94.9578216,8.97845861 95.8455223,8.97845861 C96.4288597,8.97845861 96.6698158,8.87700622 97.2277991,8.4458382 L97.4814279,8.24293518 L97.5067907,8.24293518" id="text2915" fill="#000000" fill-rule="nonzero"></path>
    </g>
</svg>