<svg xmlns="http://www.w3.org/2000/svg" width="146" height="18"><defs><clipPath id="a"><path fill="#fff" d="M0 0h146v18H0z"/></clipPath></defs><g clip-path="url(#a)"><path fill="#fff" d="M0 0h146v18H0z"/><path fill="#676767" d="M15.444 15.31h-3.188L3.794 5.839v9.473H0V.002h3.479l8.193 9.023V.002h3.77v15.31l.002-.001Zm14.706 0H18.859V.002h11.133v2.85H22.72V5.95h6.936v2.873H22.72v3.682h7.43v2.812-.007ZM39.311 0c.988 0 2.402 0 4.153.606 1.212.426 4.893 2.29 4.893 7.026 0 1.527-.381 4.715-3.726 6.533-1.459.786-2.94 1.145-5.612 1.145h-5.95V0h6.246-.004Zm-2.379 2.926V12.4h1.549c2.132 0 2.739-.18 3.367-.45 1.549-.673 2.559-2.154 2.559-4.332 0-1.661-.607-3.479-2.582-4.287-.988-.404-1.93-.404-2.963-.404h-1.93Zm25.41 12.384H51.05V.002h11.133v2.85H54.91V5.95h6.936v2.873H54.91v3.682h7.43v2.812-.007ZM71.147 0c1.392 0 2.784 0 4.019.762.808.539 1.998 1.797 1.998 3.615 0 2.559-1.975 3.457-2.626 3.77 1.1.54 1.862 2.088 2.2 2.874.426.876 1.077 2.312 1.482 3.188l.515 1.1h-4.197c-.337-.674-1.661-3.704-1.975-4.31-1.033-1.93-1.797-1.93-2.874-1.93h-.561v6.24h-3.86V0h5.878ZM69.13 2.785v3.503h1.593c.989-.046 1.234-.046 1.639-.27.561-.291.83-.853.83-1.482 0-1.75-1.706-1.75-2.132-1.75h-1.93ZM92.187 15.31H80.514V.002h3.86V12.46h7.813v2.856-.006Zm17.893 0h-4.109l-1.257-3.03h-6.846l-1.145 3.03h-4.037L98.859.002h4.422l6.805 15.31-.006-.002Zm-8.956-11.626L98.879 9.61h4.714l-2.468-5.923-.001-.003Zm26.17 11.626h-3.188l-8.463-9.472v9.472h-3.794V.002h3.479l8.194 9.023V.002h3.771v15.31l.001-.002ZM136.954 0c.987 0 2.402 0 4.152.606 1.212.426 4.894 2.29 4.894 7.026 0 1.527-.382 4.715-3.727 6.533-1.458.786-2.94 1.145-5.611 1.145h-5.949V0h6.25-.009Zm-2.38 2.926V12.4h1.55c2.132 0 2.737-.18 3.366-.45 1.549-.673 2.559-2.154 2.559-4.332 0-1.661-.607-3.479-2.582-4.287-.987-.404-1.93-.404-2.963-.404h-1.93Z"/></g></svg>