<?xml version="1.0" encoding="UTF-8"?>
<svg width="120px" height="13px" viewBox="0 0 120 13" version="1.1" xmlns="http://www.w3.org/2000/svg" xmlns:xlink="http://www.w3.org/1999/xlink">
    <title>so-tagline</title>
    <g id="Page-1" stroke="none" stroke-width="1" fill="none" fill-rule="evenodd">
        <path d="M0.0146351281,9.08817935 C0.00202203525,9.03423458 0,8.94587871 0.0100860444,8.89189987 L0.0284683864,8.79377716 L0.234831707,8.77447061 C0.62801589,8.73767459 0.796055607,8.6330558 0.89245433,8.36501273 L0.950018436,8.2049387 L0.950018436,4.95234129 C0.950018436,1.87244666 0.947582149,1.69085151 0.904060559,1.53239016 C0.823566039,1.23929399 0.649554184,1.12194423 0.227742921,1.07627856 C0.0307377726,1.05492779 0.0294887964,1.05424638 0.00863721175,0.963732723 C-0.00289724282,0.913649258 -0.00287601376,0.831596415 0.00868270259,0.781467522 L0.0296994695,0.690386027 L1.39925966,0.68357195 C2.47836591,0.677893553 2.77304949,0.683799086 2.78876304,0.711623234 C2.8118926,0.752507695 2.81519827,0.916352175 2.7946263,1.00243668 C2.78227301,1.0541101 2.75571647,1.06399051 2.58637936,1.07989002 C2.06503111,1.12872424 1.91795115,1.28252931 1.85899199,1.84047729 C1.82850706,2.12897395 1.83106061,7.73105372 1.86182253,8.03725563 C1.89635513,8.38109395 1.97073063,8.55074175 2.12919139,8.64714958 C2.25570444,8.72414865 2.47584876,8.780308 2.65094198,8.780308 C2.73103618,8.780308 2.76426471,8.79382259 2.78363269,8.83459348 C2.81449569,8.89932721 2.81714427,9.08786136 2.78797959,9.13962563 C2.77129961,9.1691533 2.49783195,9.17744376 1.40241218,9.18164578 L0.0376209407,9.18732417 L0.0146874931,9.08920146 L0.0146351281,9.08817935 Z M3.24613095,9.17208335 C3.22117165,9.12665617 3.21070875,8.94981952 3.22873324,8.87788558 C3.24820331,8.80020511 3.26103173,8.79214178 3.39689163,8.7729488 C3.62234119,8.74114977 3.77205457,8.67471252 3.85344374,8.5706275 C3.992024,8.39331386 3.99502134,8.34638758 3.99502134,6.35426948 C3.99502134,4.53309385 3.99497888,4.5315834 3.93985612,4.39745965 C3.89318252,4.2838917 3.86403805,4.25260373 3.75051921,4.19421845 C3.67672296,4.15628676 3.54773015,4.11721938 3.46386527,4.10733897 L3.31138503,4.08939524 L3.294422,3.93689619 C3.28512166,3.85296948 3.28724456,3.77450538 3.29927436,3.76242175 C3.31128394,3.75038355 3.44465196,3.71892523 3.59565525,3.69257747 C3.94689608,3.63136434 4.34144316,3.52811972 4.58854131,3.43268857 C4.86616987,3.32548043 4.86886798,3.32990958 4.83348116,3.8358775 C4.79873627,4.33272592 4.79891823,4.53731858 4.83413117,4.56176976 C4.85008329,4.57312656 4.88916498,4.54041899 4.92514318,4.48636064 C5.06676525,4.27325039 5.52326783,3.79565174 5.69232694,3.68371917 C6.02621352,3.46265915 6.40473873,3.36812519 6.7481521,3.4200371 C7.13373547,3.47829746 7.39294226,3.67556499 7.54204808,4.02412774 C7.72123043,4.44297769 7.75129583,4.81303885 7.75153541,6.6025858 C7.75173557,8.05688017 7.76384826,8.27993898 7.85414353,8.49119807 C7.91694111,8.63810957 8.09127008,8.74279651 8.31713007,8.76921241 C8.44560226,8.78420338 8.47343355,8.79703656 8.48526319,8.84655219 C8.50314615,8.92139346 8.50351007,9.05712988 8.48602441,9.13021085 C8.47284217,9.18529131 8.45346308,9.18619985 7.36944574,9.18108929 L6.26628181,9.17541089 L6.26628181,8.98428739 L6.26628181,8.79316389 L6.34115973,8.78521414 C6.49516542,8.76806538 6.68058708,8.69129344 6.76201164,8.61094412 C6.91407437,8.46095493 6.91521871,8.44577089 6.91521871,6.5784299 C6.91521871,4.70140155 6.91653289,4.71728971 6.74000317,4.41481284 C6.58472171,4.14870042 6.40774517,4.05094113 6.12881557,4.07720939 C5.81444053,4.10685063 5.51265734,4.29128498 5.16213123,4.66809207 C5.02476306,4.81576448 4.93362671,4.94147284 4.88758089,5.04680711 L4.81865721,5.20448485 L4.81046886,6.42420462 C4.79807514,8.27303404 4.8310105,8.54889059 5.0807178,8.68780691 C5.14249435,8.722218 5.25480719,8.76014969 5.33030884,8.77218789 C5.46237278,8.79331153 5.46844732,8.79808138 5.49034055,8.8973057 C5.50404845,8.95942737 5.50404845,9.03539297 5.49034055,9.08823614 L5.46758502,9.17602416 L4.36075857,9.18056688 C3.75200423,9.18283824 3.25041013,9.1794312 3.24610568,9.17148144 L3.24610568,9.17148144 L3.24613095,9.17208335 Z M10.1599194,9.26438003 C10.118735,9.25756595 9.96537532,9.22201918 9.8191152,9.18465533 C9.61953073,9.13354975 9.51617554,9.12094371 9.40482914,9.13400402 L9.25647037,9.15137992 L9.24048793,9.04269539 C9.23169303,8.98295865 9.22438417,8.82055648 9.22423253,8.68190137 C9.22408191,8.54323491 9.21104019,8.19185567 9.19524981,7.90104223 C9.16276936,7.30282306 9.15929184,7.3160083 9.34660491,7.32843263 L9.45677462,7.33524671 L9.54003296,7.69839158 C9.72446292,8.50280472 9.94531487,8.78804198 10.4474003,8.87025382 C10.9320303,8.94963781 11.3969204,8.68494499 11.5074621,8.26676509 C11.5506279,8.1034771 11.556936,7.74857726 11.5193807,7.59665741 C11.4405603,7.27782675 11.1899533,7.04619356 10.5122571,6.66576365 C9.97646599,6.36500165 9.74132284,6.18152127 9.58404383,5.94150677 C9.39977359,5.66028982 9.32379176,5.3629235 9.32379176,4.92296127 C9.32379176,4.39991272 9.5043459,4.0182222 9.89281036,3.72002684 C10.2197217,3.46909846 10.5942144,3.37626801 11.0765264,3.42661269 C11.3017475,3.45012125 12.135169,3.62857057 12.1623503,3.65910899 C12.1659895,3.66365171 12.1519177,3.97403291 12.1311334,4.34990875 C12.1051228,4.82027313 12.0837522,5.04016339 12.0625939,5.05525657 C12.0134436,5.09034907 11.8245121,5.0813772 11.8031617,5.04299123 C11.7924461,5.02368468 11.7587828,4.8976129 11.7283545,4.76276232 C11.6628983,4.47267571 11.5451185,4.21116279 11.4278097,4.09545976 C11.0049704,3.67838147 10.3768116,3.74815762 10.1349631,4.23907779 C10.0643209,4.38248004 10.0601257,4.40849846 10.0608232,4.69950497 C10.0614348,4.9550215 10.0708312,5.03049876 10.1154324,5.13938771 C10.2267778,5.41108767 10.457937,5.5964192 11.0375115,5.87865827 C11.4702931,6.08941767 11.6756478,6.23460293 11.9079908,6.49404891 C12.195133,6.8146853 12.3261244,7.17044826 12.3261244,7.6296489 C12.3261244,8.08303487 12.1721945,8.52780102 11.9287932,8.77771865 C11.7604428,8.95056907 11.4126683,9.1476776 11.1355776,9.22727738 C10.9781884,9.27247742 10.8668359,9.28315281 10.5864779,9.27974577 C10.3930569,9.27747441 10.2011078,9.27066033 10.1599255,9.26384626 L10.1599194,9.26438003 Z M13.964493,9.24230242 C13.4826349,9.09116619 13.2152478,8.77117714 13.1210889,8.23296727 C13.0274991,7.69805088 13.1651745,7.20689221 13.5225718,6.80062559 C13.9070513,6.3635707 14.2831877,6.15731994 15.2073108,5.87682982 C15.5089646,5.78529406 15.7587032,5.69454191 15.7776689,5.66961374 C15.8036492,5.63542979 15.8082084,5.55117373 15.7974928,5.30282334 C15.7696322,4.65691699 15.6604461,4.26573219 15.4465734,4.04554665 C15.2534709,3.84675731 15.1435994,3.80634984 14.8467403,3.82496362 C14.4552634,3.8494943 14.2397065,3.94618605 14.1134189,4.15386776 C14.057536,4.24574423 14.0551502,4.26652717 14.071719,4.51771675 C14.0814237,4.66421941 14.090441,4.82997183 14.0918462,4.88606304 C14.0969007,5.08753258 13.8731778,5.30074505 13.6552291,5.30221007 C13.2316943,5.30448143 13.168464,4.74116169 13.5317155,4.2007259 C13.7337665,3.90012289 14.1753198,3.59297837 14.5708505,3.47791133 C14.8171581,3.40624995 15.2554371,3.39205396 15.4568978,3.44929221 C15.8011563,3.54707421 16.1195426,3.7768676 16.2765537,4.04101529 C16.3976069,4.24466533 16.4684563,4.44730463 16.5363752,4.78411309 C16.582887,5.0147696 16.5888008,5.17152743 16.6051674,6.60669696 C16.6247891,8.32726274 16.6329876,8.4260555 16.7694712,8.58609545 C16.9068808,8.74722566 17.1536949,8.75651552 17.2880112,8.60562914 C17.3683884,8.51534262 17.4061539,8.51886323 17.4664242,8.62221006 C17.5194059,8.71306442 17.4994303,8.75329019 17.2943728,8.96878537 C17.1030222,9.16988014 16.9255078,9.25698675 16.6654327,9.27740627 C16.2931407,9.30659323 16.0581027,9.14860886 15.8882621,8.75482335 C15.8376561,8.63748495 15.7937726,8.53720445 15.79075,8.53196897 C15.7877173,8.52629057 15.6636345,8.63770073 15.5149987,8.77858177 C15.3415967,8.94292595 15.1694483,9.07693613 15.0346185,9.15252695 L14.8244852,9.2703537 L14.4605595,9.27716778 C14.1997787,9.28171049 14.0591817,9.27262506 13.9644951,9.24241598 L13.9644951,9.24241598 L13.964493,9.24230242 Z M14.9685213,8.72669257 C15.2194366,8.62766132 15.6750456,8.2516492 15.7626498,8.07137144 C15.8018124,7.99073819 15.8063311,7.88338241 15.8063311,7.03282662 L15.8063311,6.08415947 L15.7512569,6.10380673 C15.7209701,6.11516352 15.4965608,6.19091334 15.2525752,6.27329553 C14.7369548,6.4474747 14.5020411,6.57130919 14.3197209,6.76502204 C14.0502594,7.05131548 13.8957079,7.5682995 13.955589,7.983061 C14.042618,8.58587967 14.4911758,8.91519265 14.9685213,8.72670393 L14.9685213,8.72670393 L14.9685213,8.72669257 Z M18.5407924,12.1884594 C18.1930322,12.0433764 18.1283725,11.6879201 18.3904563,11.3620141 C18.5012771,11.2242108 18.6346734,11.1818613 18.8398037,11.2193728 C19.0975255,11.2665035 19.315745,11.1913215 19.4362472,11.0137921 C19.5061818,10.9107859 19.6646234,10.5002719 19.8438937,9.95761014 C19.9544445,9.62295947 19.9597548,9.59344316 19.9599448,9.31249877 C19.9601025,9.0805703 19.9462369,8.96153973 19.8946301,8.75171159 C19.822704,8.45926277 18.5257643,4.6808344 18.4052308,4.4125869 C18.2647237,4.09988891 18.1199618,3.96987633 17.8761814,3.93744132 C17.760663,3.92210965 17.7513748,3.91472773 17.7259191,3.8193193 C17.7091381,3.75640265 17.7069039,3.68237906 17.7200559,3.62531117 L17.7413355,3.533094 L18.7702765,3.5274156 C19.9094146,3.5217372 19.8247248,3.50617839 19.8247248,3.71832332 C19.8247248,3.88743735 19.8055378,3.92861709 19.7267477,3.92861709 C19.617789,3.92861709 19.4019967,4.01095385 19.3459469,4.07393864 C19.2430234,4.18956217 19.2801874,4.330341 19.8627137,6.03160022 C20.1610679,6.9029276 20.4223248,7.63791665 20.443286,7.66491175 C20.4956207,7.73225754 20.5651529,7.72646558 20.6088605,7.65094289 C20.6893085,7.51194708 21.730245,4.47119932 21.741362,4.3427199 C21.7495503,4.24754996 21.7407686,4.18927825 21.7101654,4.13680985 C21.6576487,4.04675047 21.4975372,3.96439099 21.3192545,3.93568102 C21.1906034,3.91501165 21.1840426,3.90978752 21.1622363,3.8108812 C21.1483768,3.74807812 21.1485891,3.67202167 21.1627873,3.61639609 L21.1860988,3.52508745 L22.0466348,3.52735881 L22.9071698,3.52963017 L22.9288841,3.614579 C22.9413284,3.66329965 22.9410858,3.74477329 22.9282978,3.80550943 C22.9079887,3.90192862 22.8955545,3.9144211 22.7886793,3.94503902 C22.5350255,4.0177225 22.2599424,4.28775301 22.1043041,4.6168275 C21.9456037,4.95236401 21.3759169,6.54000986 20.7615065,8.35903905 C20.0511176,10.4622153 19.966631,10.7039787 19.8230194,11.0446258 C19.6442323,11.4686998 19.4952084,11.7240687 19.3144652,11.9161121 C19.078204,12.1671314 18.7590797,12.2794274 18.5407783,12.1883459 L18.5407783,12.1883459 L18.5407924,12.1884594 Z M23.2227842,9.14425921 C23.2023437,9.08690739 23.2038499,8.88901524 23.2252104,8.82881287 C23.2375637,8.79394751 23.2704384,8.77975152 23.3386888,8.77975152 C23.4903523,8.77975152 23.6899064,8.70014039 23.7826602,8.60271044 C23.8451242,8.53706817 23.8793333,8.46499795 23.9115924,8.33111269 C23.9523724,8.16182831 23.9554961,7.90435841 23.9554961,4.71399624 C23.9554961,1.02915922 23.9560116,1.04497923 23.8303568,0.87721666 C23.7636471,0.788179388 23.6532802,0.744467085 23.4231886,0.716075097 C23.2471865,0.694383619 23.2192026,0.658836851 23.2192026,0.457060677 L23.2192026,0.353600275 L23.6372674,0.277169046 C23.8672024,0.235148905 24.2059878,0.154515661 24.3901236,0.0980383204 C24.7789328,-0.0212307394 24.8078538,-0.0157794778 24.7973172,0.174923822 C24.7935768,0.242496751 24.7842057,1.59542037 24.7764824,3.18146491 L24.7624408,6.06518227 L24.8207096,6.04462647 C24.947534,5.99976713 25.1927023,5.78198923 25.4796302,5.45929726 C26.1197125,4.7394241 26.4122661,4.28042788 26.3417806,4.10663485 C26.3105335,4.02952221 26.2034096,3.96464084 26.067203,3.94017831 C25.9762213,3.92382452 25.9617583,3.9104235 25.9375723,3.81970543 C25.9203464,3.75508526 25.9183954,3.68274248 25.9323156,3.62260825 L25.954232,3.52755188 L26.9066555,3.52528052 C27.8389639,3.52300916 27.859362,3.52414484 27.8724957,3.57877102 C27.8943212,3.66996609 27.8884984,3.81678673 27.8607591,3.87502438 C27.8417945,3.91477316 27.8082425,3.92930985 27.7346514,3.92930985 C27.5874208,3.92930985 27.2933216,4.0102838 27.1503034,4.09011071 C26.9021812,4.22868632 26.769723,4.37314476 26.3021359,5.01513301 L25.8370011,5.6537483 L25.8474843,5.77993365 C25.8562792,5.88566541 25.9614408,6.09661787 26.4976059,7.0837732 C26.8494088,7.73149664 27.1900159,8.32946596 27.2545118,8.4125977 C27.3924572,8.59041103 27.5417743,8.67599584 27.8396524,8.74798656 C28.0399303,8.79636651 28.04722,8.80090923 28.0680396,8.89121846 C28.0798672,8.94255117 28.0803727,9.02803377 28.0691516,9.08129714 L28.0487616,9.1781706 L27.2376216,9.17735291 L26.4264805,9.17652386 L26.4135611,8.94021167 C26.4022895,8.7340972 26.3872068,8.67383805 26.2955356,8.46866619 C26.1576418,8.16006801 25.3739509,6.78799683 25.229931,6.60304007 C25.1174989,6.45864978 24.9620486,6.36879482 24.8246511,6.36879482 L24.7666958,6.36879482 L24.7669,7.13287998 C24.7672629,8.48708691 24.8263919,8.70703396 25.2072583,8.77091593 C25.2600884,8.78000137 25.3173553,8.8068034 25.3345144,8.83099338 C25.3695727,8.880509 25.3759616,9.08311422 25.3442191,9.139319 C25.3277717,9.16850596 25.1085816,9.17713713 24.2806585,9.18133914 C23.3739756,9.18588186 23.2358543,9.18121422 23.2228216,9.14465669 L23.2227842,9.14425921 Z M29.4090327,9.24132573 C28.8683822,9.07424457 28.5890088,8.67696117 28.5452992,8.01304294 C28.4991411,7.31201071 28.8908011,6.68946528 29.6461441,6.26322206 C29.8893078,6.1259979 30.1554656,6.02564926 30.7443434,5.84917603 C30.9953144,5.77399405 31.2084996,5.69483719 31.227348,5.66990902 C31.2534193,5.63538436 31.2577763,5.55161665 31.2465249,5.30097218 C31.210112,4.49017653 31.049408,4.08070729 30.690082,3.88320127 C30.5626065,3.81312984 30.5398995,3.8097228 30.3001072,3.82471377 C29.9049293,3.84947159 29.6899639,3.94544786 29.5629757,4.15383369 C29.5065974,4.24639157 29.5044846,4.26558455 29.5214072,4.53169697 C29.5479941,4.94989958 29.5445873,4.98724072 29.4697397,5.09746978 C29.3448006,5.28149528 29.0985163,5.35278188 28.9187597,5.25695325 C28.7983445,5.19278735 28.7489131,5.07493789 28.7497673,4.8541618 C28.7517892,4.3224026 29.2585419,3.73969681 29.9174777,3.51133438 C30.5545819,3.29053557 31.1958744,3.42740766 31.5958804,3.86956176 C31.7871077,4.08094578 31.8964767,4.33730271 31.9860158,4.78405631 C32.0321739,5.01438346 32.0381382,5.17474141 32.0542218,6.62065446 C32.073985,8.39695939 32.0777254,8.43740094 32.2376762,8.60207446 C32.2858257,8.65159009 32.3636464,8.70031074 32.4106142,8.71019115 C32.5310911,8.73563037 32.6955516,8.67941424 32.7440064,8.59633928 C32.7915191,8.51491106 32.8317128,8.5091191 32.8831609,8.57646489 C32.9728385,8.69376922 32.9633157,8.72467106 32.7728608,8.93451056 C32.5602073,9.1688126 32.3939817,9.25545358 32.1151108,9.27734949 C31.7428178,9.30653645 31.5077798,9.14855207 31.3379392,8.75476657 C31.2873332,8.63742816 31.2434497,8.53714767 31.240417,8.53191218 C31.2373843,8.52623379 31.1133014,8.63764394 30.9646657,8.77852498 C30.7912647,8.94286916 30.6191152,9.07687934 30.4842855,9.15247017 L30.2741532,9.27029692 L29.9102265,9.27711099 C29.6465889,9.28165371 29.5084706,9.27256827 29.4090256,9.24145066 L29.4090327,9.24132573 Z M30.3948798,8.73625499 C30.6430303,8.64165289 31.1289654,8.24760618 31.2119569,8.07375636 C31.2515643,7.99085176 31.2560021,7.88580141 31.2560021,7.03282662 C31.2560021,6.14228355 31.2533738,6.08507937 31.2123208,6.09922994 C31.1883017,6.10717969 30.9608576,6.18497374 30.7068994,6.27136488 C30.1383873,6.46475974 29.9750337,6.55057168 29.7747467,6.76105852 C29.3081007,7.25145628 29.2581072,8.16921023 29.6755564,8.58201836 C29.8608265,8.76522618 30.1540675,8.82810875 30.3948778,8.73625499 L30.3948778,8.73625499 L30.3948798,8.73625499 Z M33.2154543,9.13909186 C33.1826402,9.07015612 33.1879576,8.88164468 33.2241481,8.83051639 C33.2445178,8.8017837 33.315342,8.78066006 33.4282189,8.76964397 C33.636937,8.74942888 33.8086416,8.66061874 33.8829393,8.53454696 C33.9124174,8.48457706 33.9489414,8.36361584 33.9640949,8.26586791 C34.000336,8.03209964 34.0029239,1.36761442 33.9668244,1.15398175 C33.9531974,1.07323494 33.9279247,0.973726703 33.9106685,0.932842241 C33.8664817,0.828132592 33.6971406,0.741412107 33.4917353,0.718232888 C33.3671894,0.704150463 33.3105978,0.685184615 33.2955343,0.652363478 C33.2623159,0.579907127 33.2417742,0.41304174 33.2619722,0.379743617 C33.2720812,0.363162697 33.4391337,0.321710395 33.6332906,0.287640011 C33.8274475,0.253569626 34.1363162,0.181226843 34.3196655,0.126736941 C34.7775196,-0.0092152504 34.8058978,-0.0134626917 34.8337301,0.0496243038 C34.8473673,0.0805147859 34.8480547,0.259997572 34.8354487,0.494027044 C34.8238131,0.709942428 34.8173534,2.53952208 34.8210837,4.55978232 C34.8275535,8.04242297 34.8302829,8.24089431 34.873843,8.38543224 C34.9521883,8.64527571 35.0824518,8.73834464 35.4142893,8.77156327 C35.5035221,8.7806487 35.5847748,8.80177234 35.5948596,8.81880754 C35.6049687,8.83584273 35.6131974,8.91295537 35.6131974,8.99003393 C35.6131974,9.06714657 35.604908,9.14285096 35.5948596,9.15827349 C35.5830825,9.1763308 35.1578928,9.18632477 34.4072242,9.18632477 C33.3365377,9.18632477 33.2360282,9.18178206 33.215428,9.13908051 L33.215428,9.13908051 L33.2154543,9.13909186 Z M37.9601425,9.23187688 C37.3990019,9.09400539 36.9643127,8.74527229 36.6520646,8.18245225 C36.264236,7.48340745 36.1434639,6.69446227 36.2799283,5.75146217 C36.4064879,4.87689811 36.8359457,4.09214358 37.3889495,3.72491026 C38.0821328,3.26459665 39.1265852,3.33264657 39.7696761,3.88003272 C40.1177608,4.17630879 40.4048586,4.73136078 40.5749215,5.43683352 C40.6365464,5.69247497 40.6406305,5.74771442 40.6406305,6.32627498 C40.6406305,6.90525574 40.6365869,6.95993871 40.5747395,7.21652277 C40.4345954,7.79797931 40.1511713,8.37030499 39.8419388,8.69627908 C39.6370228,8.91228531 39.3625321,9.0815697 39.044631,9.18799422 C38.741106,9.28963754 38.2722976,9.30856931 37.9601425,9.23183145 L37.9601425,9.23187688 Z M39.0096283,8.80808672 C39.572073,8.4907438 39.7663249,7.94696911 39.7659988,6.69079403 C39.7655637,5.01454246 39.3555042,4.02192452 38.5895972,3.84308907 C38.2286234,3.75882165 37.8309263,3.89635244 37.5994174,4.1856895 C37.3218404,4.53252601 37.1464004,5.17763739 37.1195487,5.95022879 C37.0935279,6.69882328 37.2012907,7.33633696 37.4490277,7.89937278 C37.7577508,8.60101828 38.1479742,8.90769717 38.69764,8.88065664 C38.8424626,8.87384256 38.929522,8.85328676 39.0096283,8.80808672 L39.0096283,8.80808672 Z M41.9626973,9.24115538 C41.9169841,9.18982267 41.9050453,9.15643369 41.9201078,9.12198853 C41.9526691,9.04760153 41.9620908,1.6115243 41.9300147,1.30068883 C41.8843318,0.857887395 41.8178282,0.777912845 41.449961,0.723343446 C41.2670707,0.696200706 41.2552198,0.690181605 41.2307164,0.611138313 C41.2164727,0.565256861 41.204817,0.487008545 41.204817,0.437322567 C41.204817,0.347263184 41.2052466,0.34692248 41.3608111,0.327956633 C41.5878154,0.300246053 42.2036755,0.157729634 42.4749484,0.0701233186 C42.7646725,-0.0234566712 42.791594,-0.0118727404 42.7852849,0.20285018 C42.7674525,0.809848153 42.7488215,3.85729642 42.7624485,3.93887228 C42.7718499,3.99508841 42.7907236,4.04096986 42.8044315,4.04096986 C42.8181394,4.04096986 42.9182759,3.95965521 43.0269444,3.86030597 C43.2408524,3.66469653 43.5079796,3.50773427 43.7256806,3.44972376 C44.07864,3.3556895 44.52434,3.44063833 44.8737986,3.6687282 C45.1006947,3.81678673 45.4583417,4.22701688 45.5901509,4.49039231 C45.8213343,4.95232994 45.9370428,5.54466629 45.9131631,6.143953 C45.8823102,6.91811163 45.6841461,7.63712167 45.3606061,8.14879071 C45.2377121,8.34313954 44.8667667,8.75296084 44.6909315,8.88864047 C44.522119,9.01891426 44.1926238,9.18577965 43.9986357,9.23923608 C43.7916797,9.29624719 43.3669621,9.29761001 43.1566236,9.24150744 C42.9677294,9.19153754 42.8803881,9.14406614 42.7125319,9.00027776 C42.5295475,8.84356535 42.4922531,8.85258264 42.2929841,9.10169394 C42.1914596,9.22862884 42.1052414,9.31198771 42.0754883,9.31198771 C42.0483758,9.31198771 41.9976181,9.27984798 41.9626862,9.24066704 L41.9626862,9.24066704 L41.9626973,9.24115538 Z M43.8870538,8.82088583 C44.3492518,8.68563776 44.6983343,8.23854346 44.882455,7.54599475 C45.1095432,6.69183885 45.0852754,5.62236948 44.8225688,4.90665291 C44.5555447,4.17919341 44.1079664,3.85387802 43.5694792,3.99586067 C43.2485707,4.08046879 42.9293817,4.32442411 42.8235104,4.56596042 L42.7647665,4.6999706 L42.757488,6.46329471 L42.7502094,8.22660747 L42.8103584,8.32791008 C42.912542,8.50004502 43.133126,8.72835066 43.2639981,8.79742269 C43.4147083,8.87692025 43.6633824,8.88634639 43.8871033,8.82081769 L43.8870538,8.82088583 Z M48.3331503,9.24208664 C47.6898745,9.09813926 47.1634171,8.57050257 46.9149361,7.82068155 C46.6438238,7.00258347 46.6782017,5.85143603 46.9992862,4.99614445 C47.2329483,4.37372395 47.7529632,3.78825846 48.2740314,3.56096357 C48.6200428,3.41002041 49.0068353,3.39827748 49.4465467,3.5254168 C49.8268056,3.63535058 50.1578747,3.91947487 50.3266933,4.28082537 C50.5019038,4.65586081 50.6080127,5.1513237 50.6080127,5.59443176 C50.6080127,5.77485716 50.6010374,5.80520252 50.5459126,5.86334931 L50.4838126,5.92887801 L49.0323091,5.90968503 L47.5808047,5.89060562 L47.5978991,6.20658572 C47.6477267,7.12757636 47.8594603,7.76270511 48.2743428,8.23571562 C48.4230129,8.40521578 48.5186427,8.4874049 48.6487294,8.55747633 C48.8078705,8.64322013 48.8479125,8.6525327 49.0979928,8.66218598 C49.5893869,8.68103826 49.8737329,8.55997482 50.2254964,8.18214562 L50.4295147,7.96302761 L50.5045139,8.00663771 C50.6211231,8.0743242 50.6252183,8.14315774 50.5220431,8.30106261 C50.3966653,8.49294702 50.0434663,8.85987371 49.8761631,8.97205613 C49.689674,9.09710579 49.4688281,9.195308 49.2648633,9.24386965 C49.0577718,9.29315814 48.5569501,9.2922496 48.3331513,9.24273397 L48.3331513,9.24273397 L48.3331503,9.24208664 Z M49.6346088,5.40427359 C49.6957384,5.37224743 49.6969818,5.36531978 49.6957283,5.06380824 C49.6936054,4.56541529 49.5694093,4.21511495 49.3246979,4.01768843 C49.16567,3.88937936 49.03295,3.84475852 48.8103623,3.84475852 C48.6304056,3.84475852 48.6001755,3.85384395 48.3926928,3.97055773 C48.2475305,4.05221309 48.133211,4.13998976 48.0669986,4.22069114 C47.8935916,4.43202974 47.7551933,4.79177893 47.6523395,5.29855319 L47.6162097,5.47654823 L48.5942101,5.45678741 C49.252134,5.44349996 49.5926319,5.4263512 49.6346078,5.40431902 L49.6346088,5.40427359 Z M53.1057993,9.2539772 C52.4563468,9.1108248 51.9362572,8.61639538 51.6805835,7.8990775 C51.3647305,7.0129068 51.4013577,5.79702563 51.7704936,4.91443231 C51.9109865,4.57852103 52.0525985,4.35704082 52.2864679,4.10747525 C52.7803589,3.58041776 53.2388984,3.38015204 53.7902969,3.45068909 C54.4424131,3.53416153 54.8414062,3.79864993 55.0640282,4.29518036 C55.2395895,4.68675129 55.3162041,5.01529201 55.3418761,5.48664442 C55.3574744,5.77305143 55.3573228,5.77409626 55.2885811,5.85132246 L55.2196372,5.9287758 L53.7749129,5.90969639 L52.3301876,5.89061697 L52.3301876,6.08594249 C52.3301876,6.37204286 52.3957854,6.8864716 52.4685657,7.17119781 C52.6360356,7.82630316 52.9933399,8.35062367 53.428387,8.57966751 C53.5438538,8.64042636 53.609581,8.65360024 53.8421089,8.66257211 C54.3194787,8.68097012 54.6176853,8.55366045 54.9670599,8.18207747 C55.1484723,7.9891596 55.1791443,7.96669586 55.2242004,7.99378182 C55.252334,8.01070344 55.293205,8.05510851 55.3150204,8.09258593 C55.353263,8.15811464 55.3506852,8.1664051 55.2431448,8.3229358 C54.9195513,8.79393615 54.4607803,9.13567347 54.0070203,9.24371066 C53.8236417,9.28732075 53.2852485,9.29345342 53.1057942,9.25393177 L53.1057942,9.25393177 L53.1057993,9.2539772 Z M54.3768355,5.40413731 C54.4382077,5.37177044 54.4391681,5.36620561 54.4353266,5.0636606 C54.4281492,4.49778558 54.2750826,4.14491861 53.9487465,3.94184776 C53.8257656,3.86530296 53.7956062,3.85882959 53.5656652,3.85882959 C53.3307576,3.85882959 53.3059418,3.86450798 53.1438347,3.95593018 C52.7671665,4.16820004 52.5797786,4.47076776 52.4307951,5.10727069 C52.3893681,5.28427769 52.3554016,5.439809 52.3553107,5.45290338 C52.355061,5.49026724 54.3024186,5.44381795 54.3768376,5.40418273 L54.3768355,5.40413731 Z M59.5852513,9.29146598 C59.5601,9.24331317 59.4932588,8.85738657 59.4778869,8.67153262 C59.462885,8.49023275 59.4561827,8.47131233 59.4069515,8.47131233 C59.3760986,8.47131233 59.2778,8.54479079 59.1796641,8.64127812 C58.9567924,8.86033933 58.6005122,9.12625869 58.4226026,9.20632409 C58.3054485,9.25901962 58.2346526,9.26924073 57.9834239,9.26980857 C57.7323681,9.27034234 57.6538357,9.25958746 57.4979771,9.20200851 C56.7046755,8.91016159 56.223808,7.89203629 56.223808,6.50425867 C56.223808,5.56630098 56.476912,4.77239288 56.9646182,4.1805903 C57.5436074,3.4780249 58.3197074,3.24360929 59.0909813,3.53830676 C59.3554347,3.63938224 59.4322283,3.64335712 59.4527588,3.55738618 C59.476687,3.45710568 59.4692164,1.67362326 59.4435595,1.35338436 C59.4297404,1.18116992 59.4021629,1.02149338 59.375758,0.960825384 C59.3172972,0.826497214 59.169645,0.743785677 58.9425578,0.718164748 C58.7461789,0.696018998 58.7197558,0.665014948 58.7197558,0.457094747 L58.7197558,0.353634346 L59.1378207,0.277203116 C59.3677566,0.235182975 59.7065421,0.154549732 59.8906768,0.0980723908 C60.1329246,0.0237989523 60.2364133,0.00312958563 60.2650634,0.0235718164 C60.2989793,0.0477617895 60.3028713,0.10363722 60.2921759,0.413098524 C60.2853018,0.61181972 60.2797013,2.37687007 60.2797013,4.3354402 L60.2797013,7.89648815 L60.3457945,8.05485866 C60.4287293,8.25359121 60.5522511,8.34144738 60.8444307,8.40950865 C61.0315597,8.45311874 61.0548571,8.46561122 61.0764764,8.53472867 C61.0916501,8.58322218 61.0918321,8.63921118 61.0769485,8.68676208 C61.0551129,8.7564928 61.0331155,8.76648678 60.7771426,8.82302091 C60.6252073,8.85652345 60.4398968,8.90603908 60.3653404,8.93306825 C60.2068371,8.99042006 59.8780931,9.18107794 59.8038712,9.25862213 C59.7535078,9.31120409 59.6071092,9.33323627 59.5852928,9.29144327 L59.5852928,9.29144327 L59.5852513,9.29146598 Z M58.5554803,8.63798465 C58.8404622,8.51819318 59.3154027,8.10226192 59.4090896,7.89043498 C59.4533168,7.79038162 59.4560058,7.69488233 59.4560058,6.22812956 L59.4560058,4.67193067 L59.3875067,4.51525233 C59.1509513,3.97411241 58.5920044,3.71768734 58.0551135,3.9039842 C57.7792722,3.99972198 57.619847,4.14889348 57.4173774,4.50081784 C57.1169185,5.02307141 57.0149897,6.29838269 57.1951627,7.28113158 C57.3214039,7.96970541 57.6464015,8.50473537 58.0333324,8.6609708 C58.1598212,8.71207638 58.4049521,8.70128742 58.5554702,8.63803007 L58.5554702,8.63803007 L58.5554803,8.63798465 Z M61.3265324,9.13024492 C61.3070523,9.0488167 61.3101658,8.8549335 61.3314859,8.81901196 C61.341595,8.80209033 61.4125708,8.78108026 61.4892572,8.7724491 C61.8231964,8.73474454 61.9796929,8.61590704 62.0394254,8.35459855 C62.0675185,8.23170667 62.0736345,7.570639 62.0736345,4.65792774 L62.0736345,1.11090543 L62.0184491,0.976622685 C61.9521437,0.815288057 61.8391566,0.748635028 61.5822364,0.719300427 C61.4904258,0.709079312 61.4034736,0.684207931 61.3890096,0.664674244 C61.3745435,0.645140557 61.3598145,0.568255055 61.3562663,0.493868049 L61.3497965,0.358654049 L61.761621,0.280973572 C62.1243649,0.212492099 62.3985493,0.142193539 62.7499246,0.0274899106 C62.9430514,-0.0355403009 62.9439258,-0.033155374 62.9260287,0.515775306 C62.913635,0.895921301 62.8978345,4.28711703 62.9074785,4.49676347 C62.9116233,4.58761783 62.9713477,4.54582482 63.1215483,4.34661528 C63.6416552,3.65693984 64.2872258,3.32299329 64.9108364,3.42102514 C65.3982495,3.49768351 65.6791625,3.79677606 65.8061021,4.37433722 C65.8852966,4.73467696 65.9046454,5.17720583 65.9049285,6.63479367 C65.9052105,8.08472703 65.9173828,8.30724071 66.0072727,8.50517829 C66.0695143,8.64224345 66.247523,8.74306907 66.474315,8.7696894 C66.625844,8.78751957 66.6278901,8.78888238 66.6441283,8.88613062 C66.6531254,8.94030253 66.6505981,9.0279202 66.6383661,9.08092236 L66.6161666,9.17734155 L65.5181825,9.1770122 L64.4201975,9.17669421 L64.4030424,9.08345493 C64.393641,9.03212221 64.3939442,8.94612856 64.4038087,8.892286 C64.4209537,8.79859244 64.4276054,8.79336832 64.5580216,8.77250588 C64.7380389,8.74365962 64.9062347,8.64712687 64.9724805,8.53471731 C65.0698714,8.36945323 65.0812249,8.16476972 65.08031,6.59050217 C65.0793769,4.98573027 65.068351,4.80588407 64.9540598,4.53187868 C64.8763614,4.34559317 64.6966332,4.14687197 64.5666234,4.10350037 C64.1989007,3.98082428 63.6841426,4.20434871 63.226341,4.6854339 C63.1399691,4.77617469 63.0362156,4.91756679 62.9957651,4.99960827 L62.9222216,5.14875706 L62.9150442,6.60682188 C62.9077656,8.0946188 62.9183802,8.33035179 63.0018609,8.52167971 C63.0593816,8.65356617 63.2027677,8.74460224 63.3910886,8.76880357 C63.4929749,8.78186388 63.5425893,8.80219254 63.5595624,8.83785288 C63.5889798,8.89963384 63.5905265,9.08874719 63.5619886,9.13925086 C63.5453491,9.16866496 63.319485,9.17718255 62.4404878,9.181271 C61.3589684,9.18581372 61.3395853,9.18581372 61.3264041,9.13039256 L61.3265324,9.13024492 Z M67.0749973,9.12140934 C67.0466919,9.03782332 67.047076,8.941177 67.0761093,8.85550134 C67.096469,8.79531033 67.1195177,8.78520278 67.2740116,8.76805402 C67.3867844,8.75556154 67.4960251,8.72183186 67.5816763,8.67311121 C67.8634758,8.51267377 67.88435,8.32872777 67.8704036,6.12874625 C67.8634283,5.02129975 67.852096,4.55848765 67.8302806,4.48354416 C67.7652186,4.26005379 67.6175412,4.15214153 67.3151394,4.10710048 C67.2464988,4.09687936 67.1820928,4.07462005 67.172007,4.05781199 C67.1618979,4.04089036 67.1534973,3.96252848 67.153285,3.88372368 L67.1529029,3.74037822 L67.2933169,3.72186664 C67.5754652,3.68461635 68.0711415,3.5636097 68.3579107,3.46197775 C68.6129151,3.37157766 68.6565661,3.36317363 68.6870035,3.39803899 C68.7165524,3.43188224 68.71819,3.53594455 68.6973653,4.05605169 C68.6837585,4.39582427 68.6766013,5.46834863 68.6814435,6.43942273 C68.6889242,7.93999603 68.6961219,8.22728887 68.7293605,8.35338337 C68.798911,8.61724714 68.9536536,8.73615278 69.2705873,8.76924648 L69.4491449,8.78787163 L69.4735987,8.88985564 C69.4893082,8.95538435 69.4895104,9.02660281 69.4741477,9.08911061 L69.4502498,9.18632477 L68.2736333,9.18632477 L67.0970169,9.18632477 L67.0750397,9.12136391 L67.0750397,9.12136391 L67.0749973,9.12140934 Z M68.1443524,1.92653908 C67.849034,1.83057416 67.6577127,1.36019843 67.7921128,1.06043583 C67.9281274,0.75706177 68.2386388,0.595125232 68.4494696,0.717596908 C68.6133276,0.812766849 68.7760069,1.12075177 68.7746636,1.33319197 C68.774353,1.38054981 68.7536284,1.46980286 68.7285983,1.53149297 C68.6063078,1.83286823 68.3628348,1.99749633 68.1443544,1.92653908 L68.1443524,1.92653908 Z M70.6385291,12.1894361 C70.3093301,12.0517123 70.2518651,11.6395287 70.519884,11.338426 C70.6287011,11.2161815 70.7529244,11.1821906 70.9570246,11.2188276 C71.2420763,11.2699332 71.4686186,11.1747633 71.5827925,10.9559406 C71.6621488,10.8038163 71.8336553,10.3431733 71.9702279,9.91535151 C72.0678816,9.60943352 72.0776944,9.55468242 72.0782393,9.31249877 C72.0786962,9.10941656 72.0629746,8.98071 72.0120552,8.77081372 C71.941787,8.48111324 70.6781708,4.78497621 70.534065,4.44761126 C70.4148871,4.16860888 70.3229905,4.05569962 70.1590011,3.98676388 C70.0832538,3.95496485 69.9877281,3.92884423 69.9467216,3.92884423 C69.8896559,3.92884423 69.8664556,3.91203617 69.8478246,3.85695571 C69.8183364,3.7698491 69.8166886,3.61980312 69.8446908,3.57025343 C69.8753111,3.51608152 71.9138344,3.50563327 71.9322683,3.56003231 C71.9566514,3.63146655 71.9448339,3.83468504 71.9138193,3.87738659 C71.8966642,3.90100872 71.8097281,3.9347384 71.7206358,3.952455 C71.6315446,3.97005803 71.5304599,4.008444 71.4960041,4.03763096 C71.4391305,4.08578377 71.4336311,4.10849736 71.4363505,4.28343743 C71.439181,4.46357891 71.473006,4.57392153 71.9555364,5.9754863 C72.5882108,7.81315199 72.5502169,7.71472265 72.6269377,7.71472265 C72.6603482,7.71472265 72.6993591,7.69893671 72.713623,7.67963016 C72.768586,7.60524315 73.8450913,4.46979108 73.8568118,4.34997689 C73.8641914,4.27445421 73.8561426,4.19568348 73.8367149,4.15369741 C73.7950655,4.06375159 73.6163846,3.96631029 73.4481019,3.94185911 C73.2988778,3.92016763 73.2676428,3.88064599 73.2682382,3.71391688 C73.2689448,3.51637679 73.2227271,3.52615499 74.1643167,3.52439469 C75.1052138,3.52212333 75.0399516,3.50815447 75.0399516,3.71908422 C75.0399516,3.88052106 75.0204917,3.929378 74.9561676,3.92940071 C74.8570886,3.92944614 74.6040857,4.08772579 74.4814829,4.2263809 C74.4145507,4.30213072 74.321804,4.4277028 74.2753699,4.50556498 C74.1216059,4.7633983 73.5121196,6.46203411 72.5805987,9.22887868 C71.9661489,11.0539497 71.7849376,11.4898008 71.4897243,11.8526731 C71.2544073,12.1419306 70.8791807,12.2906024 70.6385493,12.1899358 L70.6385493,12.1899358 L70.6385291,12.1894361 Z M76.4178216,9.24230242 C75.9359634,9.09116619 75.6685764,8.77117714 75.5744174,8.23296727 C75.4808377,7.69805088 75.6185031,7.20689221 75.9759003,6.80062559 C76.3603798,6.3635707 76.7365152,6.15731994 77.6606393,5.87682982 C77.9622931,5.78529406 78.2120318,5.69454191 78.2309974,5.66961374 C78.2569878,5.63542979 78.2615369,5.55117373 78.2508314,5.30282334 C78.2229708,4.65691699 78.1137847,4.26573219 77.8999121,4.04554665 C77.7068095,3.84675731 77.596938,3.80634984 77.300079,3.82496362 C76.908602,3.8494943 76.6930442,3.94618605 76.5667576,4.15386776 C76.5108746,4.24574423 76.5084889,4.26652717 76.5250576,4.51771675 C76.5347624,4.66421941 76.5437796,4.82997183 76.5451848,4.88606304 C76.5502393,5.08753258 76.3265164,5.30074505 76.1085678,5.30221007 C75.6850329,5.30448143 75.6218027,4.74116169 75.9850541,4.2007259 C76.1871052,3.90012289 76.6286585,3.59297837 77.0241892,3.47791133 C77.2704968,3.40624995 77.7087757,3.39205396 77.9102365,3.44929221 C78.2544949,3.54707421 78.5728813,3.7768676 78.7298924,4.04101529 C78.8509445,4.24466533 78.921795,4.44730463 78.9897138,4.78411309 C79.0362257,5.0147696 79.0421395,5.17152743 79.0585061,6.60669696 C79.0781278,8.32726274 79.0863262,8.4260555 79.2228099,8.58609545 C79.3602195,8.74722566 79.6070336,8.75651552 79.7413498,8.60562914 C79.8217271,8.51534262 79.8594926,8.51886323 79.9197629,8.62221006 C79.9727445,8.71306442 79.952769,8.75329019 79.7477115,8.96878537 C79.5563608,9.16988014 79.3788465,9.25698675 79.1187713,9.27740627 C78.7464794,9.30659323 78.5114413,9.14860886 78.3416008,8.75482335 C78.2909948,8.63748495 78.2471113,8.53720445 78.2440887,8.53196897 C78.2410559,8.52629057 78.1169731,8.63770073 77.9683374,8.77858177 C77.7949354,8.94292595 77.6227869,9.07693613 77.4879571,9.15252695 L77.2778238,9.2703537 L76.9138982,9.27716778 C76.6531174,9.28171049 76.5125204,9.27262506 76.4178337,9.24241598 L76.4178337,9.24241598 L76.4178216,9.24230242 Z M77.4218499,8.72669257 C77.6727652,8.62766132 78.1283741,8.2516492 78.2159784,8.07137144 C78.2551409,7.99073819 78.2596597,7.88338241 78.2596597,7.03282662 L78.2596597,6.08415947 L78.2045854,6.10380673 C78.1742986,6.11516352 77.9498893,6.19091334 77.7059037,6.27329553 C77.1902833,6.4474747 76.9553696,6.57130919 76.7730494,6.76502204 C76.503588,7.05131548 76.3490364,7.5682995 76.4089175,7.983061 C76.4959465,8.58587967 76.9445044,8.91519265 77.4218499,8.72670393 L77.4218499,8.72670393 L77.4218499,8.72669257 Z M82.6818917,9.17463863 C82.6567504,9.14647378 82.6742088,8.89326268 82.702676,8.87268417 C82.7198311,8.86030526 82.8096472,8.83554745 82.9022574,8.81760372 C83.2393243,8.75252928 83.5295589,8.53236646 83.8156447,8.1247938 C83.9813577,7.88872011 85.4870124,5.3226523 85.5340853,5.19608083 C85.6154331,4.97734896 85.6131181,4.97222704 84.7055577,3.36249222 C84.2421061,2.54047605 83.8087281,1.7850902 83.7424954,1.68385573 C83.5079234,1.32533307 83.2579796,1.10820251 82.9894057,1.0296362 C82.9103022,1.00646834 82.8344943,0.979893442 82.8209319,0.970467303 C82.8073655,0.961381867 82.7962759,0.890969738 82.7962759,0.814799715 L82.7962759,0.676258175 L83.9943115,0.676258175 L85.1923481,0.676258175 L85.1923481,0.828814 C85.1923481,0.912740714 85.1818346,0.988683602 85.1689759,0.997610042 C85.1561171,1.00669548 85.0363701,1.02543419 84.9028605,1.03963018 C84.5960137,1.07222418 84.5429866,1.11538001 84.590573,1.29384068 C84.6217292,1.41064532 86.0059163,3.98423131 86.0875673,4.07715261 C86.1150943,4.10849736 86.1482521,4.12019486 86.17586,4.10827023 C86.2219169,4.08839584 87.6193611,1.75633479 87.7426453,1.49358399 C87.7854471,1.40238893 87.813055,1.30010963 87.813055,1.23278655 C87.813055,1.134096 87.8042601,1.11801478 87.7319398,1.0851255 C87.6873284,1.06479684 87.5628038,1.04026616 87.4552251,1.03061289 C87.3476463,1.02039177 87.2493699,1.00596864 87.2368327,0.997223911 C87.2242974,0.988138475 87.2140367,0.912729357 87.2140367,0.828825357 L87.2140367,0.676258175 L88.2635639,0.676258175 L89.3130911,0.676258175 L89.3056104,0.837490591 L89.2981297,0.998723008 L89.0934542,1.03370194 C88.7724456,1.08844169 88.6321681,1.1604097 88.4311663,1.37331553 C88.2840145,1.52918754 88.1210704,1.78553311 87.4323644,2.94466438 C86.9797346,3.70646683 86.5938197,4.37165702 86.5747752,4.4228648 C86.5222585,4.56407519 86.5316499,4.74393275 86.5989258,4.88510907 C86.6312546,4.95290913 87.0818666,5.7274539 87.6002862,6.60624269 C88.365893,7.90402907 88.576278,8.24122366 88.7208236,8.40219487 C88.9349672,8.64065349 89.0779075,8.73774273 89.3140646,8.8051226 C89.5129536,8.86190657 89.5416219,8.89597696 89.530417,9.06270606 L89.5227341,9.1766715 L88.2997382,9.1771712 L87.0767433,9.1776709 L87.0767433,9.01378099 L87.0767433,8.84989108 L87.3138547,8.81286793 C87.6100142,8.76664578 87.6741735,8.72587488 87.6553837,8.59577144 C87.6469932,8.53773822 87.329269,7.94718489 86.8309381,7.06335368 C85.9718639,5.53972608 85.9479822,5.504997 85.8428701,5.62670777 C85.7834995,5.69541638 84.3568714,8.13216436 84.2761858,8.30264121 C84.1966274,8.47072177 84.2042294,8.65377059 84.293806,8.72705599 C84.3281263,8.75510727 84.4460557,8.79462892 84.5558756,8.81484401 L84.7555491,8.85152646 L84.7555491,9.01515516 L84.7555491,9.17879522 L83.7239271,9.18220226 C83.156535,9.18447362 82.6876155,9.18106658 82.6818846,9.1742525 L82.6818846,9.1742525 L82.6818917,9.17463863 Z M91.7565809,9.22968502 C91.0943435,9.07100788 90.6496453,8.67097614 90.3212833,7.93855372 C90.126812,7.50478094 90.0371324,7.11192669 90.0172407,6.60667425 C89.9661798,5.30966013 90.4845378,4.11026902 91.2876765,3.66710417 C91.5435604,3.5259165 91.7167562,3.46925745 92.0225254,3.42669218 C92.4037952,3.37365595 92.9045755,3.47575354 93.2790864,3.68289012 C93.8647152,4.00681998 94.3098481,4.84815406 94.4295901,5.85744377 C94.4655784,6.16077241 94.446169,6.78546427 94.3919844,7.06477328 C94.2314422,7.89299026 93.8249461,8.62337981 93.3461601,8.94390263 C92.8922829,9.24776503 92.2865501,9.35666534 91.756591,9.22968502 L91.7565809,9.22968502 Z M92.8363362,8.78513464 C93.0427565,8.67097614 93.2578068,8.4203771 93.351892,8.18436019 C93.49536,7.82448607 93.5566816,7.38510304 93.5568337,6.71593797 C93.5569647,6.15678617 93.5243831,5.77050751 93.4420953,5.35531445 C93.2362644,4.31686048 92.7514635,3.7716094 92.0810488,3.82455478 C91.5035093,3.87020909 91.1592852,4.31489575 90.9693973,5.26076913 C90.9152127,5.53067472 90.892164,6.43123448 90.9316804,6.73480161 C91.0609471,7.72798739 91.4196272,8.47759263 91.8902461,8.73811751 C92.1110222,8.86033933 92.239272,8.89118439 92.4850206,8.8811677 C92.640852,8.87435362 92.7067632,8.85675059 92.8363372,8.78508921 L92.8363372,8.78508921 L92.8363362,8.78513464 Z M95.1637718,9.14898363 C95.1445646,9.0927675 95.1492148,8.85424074 95.1698373,8.8189211 C95.1799463,8.80188591 95.2555622,8.78133011 95.337931,8.77315322 C95.6848643,8.73862856 95.8390479,8.62425428 95.9159477,8.34426386 C95.9585069,8.18913004 95.9619439,8.04610257 95.9619439,6.3823889 C95.9619439,4.70726166 95.9589112,4.57895259 95.9160487,4.45417549 C95.8896641,4.37728999 95.8361871,4.2914099 95.7902817,4.25206997 C95.7081961,4.1817714 95.4666801,4.09715193 95.3478783,4.09715193 C95.2686231,4.09715193 95.250629,4.05592676 95.250629,3.87439975 L95.250629,3.7403555 L95.3941475,3.72161679 C95.6616235,3.68675143 96.2602931,3.53966958 96.5056302,3.44855401 C96.835833,3.3259347 96.8337101,3.32336806 96.7991169,3.80192069 C96.7848631,3.99960842 96.7731366,4.25507952 96.7731366,4.36963551 C96.7731366,4.55048111 96.779202,4.57670395 96.8154936,4.56874283 C96.8388455,4.56420012 96.8977815,4.48299903 96.9465274,4.38931683 C97.2287324,3.84729108 97.5847538,3.50014793 97.9336988,3.42674897 C98.4396984,3.3203358 98.8264009,3.83897791 98.6013628,4.3222436 C98.4851286,4.57184324 98.2910748,4.69791502 98.1042187,4.64523085 C98.0648944,4.63387405 97.9583953,4.53575134 97.8578302,4.41749304 C97.6908384,4.22116813 97.6745527,4.20928892 97.5724813,4.20928892 C97.4790735,4.20928892 97.451506,4.22427989 97.3711288,4.31922269 C97.2343732,4.48072767 96.9990744,4.89359259 96.9064348,5.13458378 C96.8619549,5.25025274 96.8138357,5.42689632 96.7995415,5.52714275 C96.765575,5.76503353 96.7651706,7.77095014 96.7991068,8.07483526 C96.8309504,8.36006116 96.8805859,8.50605276 96.9767131,8.59689576 C97.0660773,8.68139032 97.2485057,8.74497701 97.4690655,8.76858779 C97.574119,8.77994458 97.6455396,8.80231747 97.6653938,8.83036875 C97.7005734,8.88022508 97.7068411,9.08271673 97.674492,9.139319 C97.6433561,9.19451302 95.1819378,9.20393916 95.1631552,9.14840444 L95.1631552,9.14840444 L95.1637718,9.14898363 Z M100.30825,9.24329046 C100.079997,9.15186826 99.9243677,8.92695829 99.8437681,8.57197896 C99.7953456,8.35893684 99.7934249,8.26451645 99.7934249,6.18158941 L99.7934249,4.01299808 L99.4581574,4.01299808 C99.0773688,4.01299808 99.0742148,4.01072672 99.1055731,3.77599312 C99.1341818,3.56175855 99.1771454,3.53633068 99.5106437,3.53633068 L99.7999756,3.53633068 L99.7908774,2.73154277 L99.7817792,1.92675486 L100.131199,1.72275275 C100.323393,1.61054762 100.504528,1.51845537 100.533733,1.51808401 C100.630578,1.51696763 100.638675,1.56466617 100.616728,2.00816036 C100.605305,2.23948692 100.595196,2.67775699 100.594387,2.98208502 L100.593376,3.53541078 L101.26103,3.54336054 L101.928684,3.55131029 L101.928684,3.74676073 C101.928684,4.01909668 101.945263,4.0130435 101.197282,4.01355456 L100.590667,4.0139634 L100.599765,6.0398339 C100.607852,7.75409666 100.614929,8.09033729 100.647581,8.22584656 C100.725623,8.55056004 100.829413,8.63031881 101.114721,8.58485756 C101.333735,8.5499922 101.53072,8.46762137 101.698035,8.34103853 C101.849793,8.22622134 101.935204,8.23542034 101.977673,8.37102047 C102.001631,8.4474517 101.992634,8.46187483 101.776239,8.69480269 C101.526009,8.96414044 101.230208,9.16001108 100.951541,9.24090553 C100.764735,9.29507744 100.440658,9.29678096 100.309392,9.24431257 L100.309392,9.24431257 L100.30825,9.24329046 Z M103.424958,9.23289899 C102.847043,9.03782332 102.58175,8.62104031 102.58323,7.9105138 C102.584247,7.36931709 102.789472,6.94735538 103.234332,6.57100255 C103.604263,6.25805471 103.925833,6.10646422 104.741625,5.8604874 C105.005836,5.7807627 105.23605,5.7032185 105.253205,5.68805718 C105.273625,5.66999988 105.284442,5.58130331 105.284442,5.43184789 C105.284442,5.00420778 105.210342,4.53588763 105.106613,4.30741163 C105.030997,4.14098915 104.844283,3.94018966 104.70042,3.87066337 C104.589029,3.81683216 104.543113,3.81115376 104.323746,3.82398694 C103.960891,3.84522415 103.727564,3.94597027 103.601241,4.1358786 C103.548067,4.21583043 103.541698,4.33964221 103.56596,4.81699101 C103.573036,4.9587011 103.565293,5.00445763 103.522592,5.06933899 C103.300374,5.40664716 102.861347,5.36538792 102.792363,5.00074395 C102.689422,4.45658313 103.229257,3.75962798 103.94597,3.51134573 C104.342094,3.37412158 104.798974,3.37480299 105.128055,3.51361709 C105.308178,3.58936691 105.613331,3.82198814 105.707264,3.95523742 C105.805019,4.09388117 105.916178,4.34819388 105.968351,4.5525594 C106.06651,4.93686198 106.082887,5.21730668 106.083039,6.51306019 C106.083241,8.16029514 106.111748,8.45996689 106.283825,8.6226189 C106.420945,8.75224536 106.662926,8.74042294 106.781778,8.59831536 C106.859416,8.50553035 106.897082,8.50950523 106.94603,8.61580483 C106.999406,8.73180313 106.968472,8.79703656 106.772791,8.98071 C106.536501,9.20251956 106.354255,9.28410678 106.093956,9.28463174 C105.857404,9.28510618 105.697357,9.21864621 105.558054,9.06217229 C105.442376,8.93222785 105.309462,8.68539927 105.309462,8.60055265 C105.309462,8.50822191 105.251436,8.53366113 105.078965,8.70185526 C104.81898,8.95540706 104.665433,9.07576638 104.470146,9.1790905 C104.304306,9.26687852 104.286605,9.27005842 103.93671,9.2768725 C103.646661,9.2825509 103.545064,9.27346546 103.425049,9.23337598 L103.425049,9.23337598 L103.424958,9.23289899 Z M104.454163,8.72370574 C104.69022,8.63046645 105.175122,8.2348525 105.248393,8.07565295 C105.297927,7.96799053 105.302578,6.07412006 105.253448,6.09536863 C105.236262,6.10331838 105.011669,6.17963605 104.754292,6.26624296 C104.496915,6.35278174 104.209372,6.46722416 104.115307,6.5204421 C103.670073,6.77232446 103.437676,7.20717613 103.437676,7.78837147 C103.437676,8.08729366 103.490546,8.28548109 103.621893,8.47922801 C103.803099,8.74647611 104.143552,8.84644997 104.454406,8.72370574 L104.454163,8.72370574 Z M110.931129,9.23997427 C110.620406,9.15547972 110.347198,8.93042212 110.209068,8.64516214 C110.074395,8.36704559 110.027539,7.86684692 110.104914,7.53315022 C110.245127,6.92836682 110.818968,6.35406506 111.56424,6.07265504 C111.639755,6.04414948 111.931684,5.95059221 112.21299,5.86475755 C112.836356,5.67454259 112.798295,5.7213553 112.760467,5.19140183 C112.706181,4.43142783 112.555566,4.06870316 112.216791,3.88246308 C111.998879,3.76266025 111.439787,3.82840473 111.20743,4.00114158 C111.06195,4.10925827 111.003004,4.27941713 111.029106,4.51582017 C111.065094,4.84216903 111.057714,5.0007326 111.00262,5.08256966 C110.872324,5.27615759 110.613613,5.35581415 110.441041,5.25547686 C110.176092,5.1014333 110.226718,4.54135024 110.541525,4.14360122 C110.90621,3.68286741 111.452575,3.41884464 112.050881,3.41422242 C112.363585,3.41195106 112.52531,3.45476618 112.789722,3.6102407 C113.218337,3.86232748 113.413786,4.2103451 113.527725,4.92429001 C113.559872,5.12571412 113.571498,5.48792774 113.585044,6.71883395 C113.599904,8.05817484 113.607688,8.28016611 113.644485,8.40668081 C113.733445,8.71289407 114.036566,8.81559356 114.244873,8.61012643 C114.290971,8.56458568 114.341011,8.5273354 114.356073,8.5273354 C114.404394,8.5273354 114.465858,8.66301502 114.449885,8.73440384 C114.427241,8.83582001 114.168459,9.0860897 113.985191,9.18384899 C113.837498,9.26266515 113.800579,9.27038777 113.573368,9.27038777 C113.350281,9.27036506 113.310178,9.26243801 113.195683,9.19452438 C113.125222,9.15284494 113.032664,9.06908858 112.989963,9.00852279 C112.910607,8.89597696 112.787832,8.62557167 112.787397,8.5624506 C112.786942,8.49703547 112.740693,8.5270174 112.549864,8.71621025 C112.276839,8.98692217 112.036232,9.16214616 111.847708,9.2275613 C111.648923,9.29649704 111.163223,9.30308398 110.931048,9.2399402 L110.931048,9.2399402 L110.931129,9.23997427 Z M112.042227,8.67568921 C112.21022,8.5867655 112.555485,8.30904644 112.666351,8.17371887 C112.776106,8.03974276 112.786942,7.93227341 112.787098,6.97630385 C112.787226,6.13975098 112.784061,6.08506801 112.743524,6.09870753 C112.719464,6.10665728 112.503292,6.17797795 112.26306,6.25696446 C111.510187,6.50466751 111.250767,6.68719392 111.067743,7.09800326 C110.849538,7.5877764 110.86364,8.08231939 111.107067,8.47844439 C111.288323,8.77334629 111.695516,8.85923773 112.042166,8.67568921 L112.042227,8.67568921 Z M114.681666,9.13909186 C114.648812,9.07015612 114.65417,8.88165604 114.690764,8.83047096 C114.709062,8.80457747 114.778814,8.77970609 114.859232,8.77027995 C115.15279,8.73598243 115.296561,8.64377661 115.367547,8.44447622 C115.389281,8.38337666 115.418598,8.19718201 115.432649,8.03079361 C115.465099,7.64679766 115.465605,1.75641429 115.433256,1.35333893 C115.419406,1.18112449 115.39191,1.02144795 115.365424,0.960779957 C115.306993,0.826451787 115.15931,0.74374025 114.93222,0.71811932 C114.735841,0.69597357 114.709416,0.66496952 114.709416,0.45704932 L114.709416,0.353588919 L115.127487,0.277157689 C115.357417,0.235137548 115.696203,0.154504304 115.88034,0.0980269636 C116.262907,-0.0193341546 116.298107,-0.0139510339 116.288079,0.160943607 C116.285046,0.220793916 116.274937,1.23179851 116.266648,2.40771512 C116.255123,4.02823889 116.258561,4.54574532 116.280598,4.54574532 C116.296571,4.54574532 116.433842,4.40069634 116.585549,4.22341677 C116.901892,3.85374174 117.125191,3.67450881 117.429333,3.54616567 C117.859595,3.36460459 118.287897,3.36033443 118.619343,3.5343546 C118.939427,3.70236702 119.104124,3.99575846 119.205518,4.57857782 C119.220378,4.66420805 119.239585,5.47084712 119.250301,6.46650868 C119.270519,8.3391533 119.276281,8.41758333 119.404636,8.57444338 C119.486115,8.6739289 119.638985,8.74640797 119.81559,8.76920106 C119.896867,8.77942217 119.971624,8.80213576 119.981703,8.81905739 C119.991812,8.83597901 120,8.91297808 120,8.99005665 C120,9.06716928 119.991913,9.14287368 119.981703,9.1582962 C119.969976,9.17623994 119.572598,9.1863702 118.87765,9.1863702 C118.182702,9.1863702 117.785324,9.17612637 117.773587,9.1582962 C117.74973,9.12184089 117.74973,8.85854496 117.773587,8.82077226 C117.783697,8.80475918 117.867501,8.77750287 117.959948,8.76024054 C118.301534,8.69641536 118.384105,8.57030951 118.42999,8.04243432 C118.473358,7.5434054 118.447074,5.06965698 118.395821,4.82207886 C118.325765,4.48399843 118.172916,4.23730613 117.962627,4.12294321 C117.729118,3.99595153 117.287563,4.10647585 116.914195,4.38528517 C116.675509,4.56355278 116.402827,4.8674379 116.32991,5.03641565 L116.269458,5.17661528 L116.262382,6.55056032 C116.252273,8.36960087 116.275321,8.56285945 116.513431,8.69237234 C116.575298,8.72598845 116.686174,8.76130808 116.759829,8.77096136 C116.833524,8.78004679 116.901983,8.80219254 116.912072,8.81911417 C116.922181,8.83603579 116.930369,8.91292129 116.930369,8.99007936 C116.930369,9.067192 116.922282,9.14289639 116.912072,9.15831892 C116.900345,9.17626265 116.500056,9.1863702 115.799305,9.1863702 C114.79882,9.1863702 114.702956,9.18182748 114.682394,9.13912594 L114.682394,9.13912594 L114.681666,9.13909186 Z" id="so-tagline" fill="#000000" fill-rule="nonzero"></path>
    </g>
</svg>