<?xml version="1.0" encoding="UTF-8"?>
<svg width="120px" height="25px" viewBox="0 0 120 25" version="1.1" xmlns="http://www.w3.org/2000/svg" xmlns:xlink="http://www.w3.org/1999/xlink">
    <title>am-wordmark</title>
    <g id="Page-1" stroke="none" stroke-width="1" fill="none" fill-rule="evenodd">
        <path d="M30.196905,10.8021198 C30.0611591,10.9607678 29.8830296,11.1052814 29.6625237,11.2355907 C29.4419517,11.3659349 29.2044492,11.4792549 28.9500128,11.5755857 C28.6955139,11.6719164 28.4325619,11.7484031 28.1611603,11.8050457 C27.8896962,11.8617231 27.6295758,11.8900619 27.3807887,11.8900619 C27.0640886,11.8900619 26.7163175,11.8504085 26.3374685,11.7710671 C25.9585673,11.6917257 25.5994838,11.5557416 25.2602214,11.3630801 C24.9209034,11.1704535 24.6211963,10.9126199 24.3611002,10.5896142 C24.100952,10.2666434 23.9369597,9.86151118 23.8691267,9.37418277 L21.6467716,9.52719094 C21.4431718,12.1337261 20.7702476,14.0772954 19.6279886,15.3578641 C18.485688,16.6384677 16.8684032,17.2674549 14.7761275,17.244756 L10.5349895,17.2107774 C10.1730639,17.2107774 9.69523093,17.2815894 9.10148348,17.4232482 C8.50771519,17.5649069 7.88285156,17.720735 7.22689952,17.8907325 C6.57093011,18.06073 5.92344851,18.2165581 5.28445821,18.3582169 C4.645454,18.4998756 4.08845119,18.5706876 3.61344976,18.5706876 C2.95748382,18.5706876 2.40048101,18.4403783 1.94244131,18.1797247 C1.48439466,17.9190712 1.11117404,17.5677617 0.822779452,17.1257613 C0.534381384,16.6837957 0.325153117,16.1738381 0.195091175,15.5958536 C0.0650292337,15.017904 -1.42108547e-14,14.4115808 -1.42108547e-14,13.7769538 C-1.42108547e-14,11.9184006 0.24881143,10.2723181 0.746441239,8.83870638 C1.2440641,7.40512948 1.94809406,6.19537271 2.85852765,5.20940128 C3.7689543,4.22346466 4.86599472,3.46420295 6.14965241,2.93154651 C7.43329272,2.39892489 8.86114249,2.09858325 10.4332017,2.03059122 C10.772478,2.01927663 11.1343897,2.00792721 11.5189332,1.9965778 C11.8469005,1.98526321 12.2314301,1.97109385 12.672522,1.95406973 C13.113586,1.93711524 13.5829382,1.91727118 14.0805784,1.89457235 L14.3859417,2.62556498 C14.725218,2.47823151 15.0390587,2.34506741 15.3274741,2.22607265 C15.6158548,2.10711272 15.8985966,2.00792721 16.1757031,1.92858578 C16.4527713,1.84927915 16.7270323,1.78978178 16.9984826,1.75009365 C17.269898,1.71044034 17.5582926,1.69059627 17.8636768,1.69059627 C18.7458118,1.69059627 19.4413575,1.87761787 19.9503171,2.25155661 C20.4592316,2.62556498 20.8437577,3.10154399 21.1039059,3.67949363 C21.3640055,4.25747808 21.5308224,4.90345456 21.6043603,5.61738826 C21.6778496,6.33135677 21.7146046,7.02833597 21.714629,7.70829106 L21.714629,8.2692514 L23.8691267,8.13326734 C24.1518442,7.46462685 24.6381615,6.95466924 25.3280787,6.60332488 C26.0179438,6.25205014 26.9227177,6.07637796 28.0424073,6.07637796 C28.4269057,6.07637796 28.7548869,6.10471667 29.026351,6.16135929 C29.2977526,6.21803672 29.5126371,6.29170345 29.6710045,6.38235949 C29.5691855,6.58633557 29.4843629,6.76768246 29.4165369,6.92633052 C29.3486482,7.08497859 29.2977526,7.24080671 29.263857,7.39378006 C29.2298953,7.54678824 29.2044492,7.70829106 29.1875153,7.87825372 C29.1705188,8.04828601 29.1620379,8.24658739 29.1620692,8.47322748 C29.1620379,8.86989986 29.1903121,9.20986 29.2468918,9.49317752 C29.3034089,9.77652985 29.3797505,10.0116646 29.4759133,10.1986514 C29.5720136,10.3856382 29.6822822,10.5272969 29.8067227,10.6236277 C29.9310971,10.7199584 30.0611591,10.7794558 30.196905,10.8021198 L30.196905,10.8021198 Z M17.1342007,7.33428269 C17.1342007,6.17838341 16.9617067,5.27457336 16.6167811,4.62295699 C16.2718173,3.97134061 15.7035055,3.64548021 14.9118422,3.64548021 C14.7761101,3.64548021 14.6743224,3.65118973 14.6064824,3.66250432 C14.5386077,3.67385374 14.4792312,3.68802309 14.428353,3.70497758 C14.3774435,3.7220017 14.3322041,3.73617106 14.2926383,3.74748565 C14.2530377,3.75883507 14.1936613,3.77018448 14.1145088,3.78149908 L12.7912749,13.113988 C12.7573306,13.3746415 12.7318845,13.6041363 12.7149332,13.8024377 C12.6979541,14.0007739 12.6894872,14.1509273 12.6894872,14.2529328 C12.7007823,14.4455942 12.7431935,14.635401 12.816721,14.8223878 C12.8902207,15.0094093 12.9948331,15.179372 13.1305651,15.3323802 C13.2662659,15.4853535 13.435911,15.610023 13.6395005,15.7063537 C13.8430621,15.8026845 14.0805645,15.8508325 14.3520113,15.8508325 C14.6234302,15.8508325 14.9203092,15.7346925 15.2426516,15.5023777 C15.5649627,15.2700629 15.8674943,14.8394119 16.150257,14.2104247 C16.4329815,13.5814723 16.6676558,12.7145305 16.8542835,11.6095643 C17.0408765,10.5046329 17.1342007,9.07955065 17.1342007,7.33428269 L17.1342007,7.33428269 Z M9.51711538,3.6115016 C9.24567209,3.48686696 8.94030882,3.50103631 8.60102903,3.65400967 C8.2617284,3.80701784 7.91678197,4.07616601 7.56618973,4.46145416 C7.21558012,4.84677713 6.87628991,5.33974544 6.5483191,5.94035909 C6.22032745,6.54100755 5.92910474,7.22949211 5.67464403,8.00577794 C5.42016943,8.78206377 5.21659391,9.63487109 5.06392096,10.5641303 C4.91123064,11.4934243 4.83489938,12.4793609 4.83489938,13.521975 C4.83489938,14.1906154 4.88013182,14.7345865 4.97061407,15.1538881 C5.0610859,15.5731896 5.18549162,15.9018352 5.34383469,16.1398247 C5.50216387,16.3778142 5.68877418,16.5421369 5.90366562,16.632793 C6.11853969,16.7234838 6.35038939,16.7688118 6.59921124,16.7688118 C6.84801572,16.7688118 7.05724747,16.7036398 7.22689952,16.5732956 C7.39653767,16.4429863 7.53508048,16.2786635 7.64253141,16.0803273 C7.74996498,15.8820259 7.83478753,15.6638457 7.89699907,15.4258562 C7.95919324,15.1879015 8.00160452,14.9612266 8.0242329,14.7459011 L9.51711538,3.6115016 Z M51.3263391,14.4091896 C51.3263391,14.9357406 51.2628291,15.4998903 51.1358675,16.1016438 C51.0088669,16.7034126 50.8660091,17.3218883 50.7073005,17.9570734 C50.548553,18.5922713 50.4056985,19.2316415 50.2787336,19.8751864 C50.151733,20.5187416 50.0882424,21.1455745 50.0882587,21.7556904 C50.0882424,22.0147834 50.1226322,22.2049232 50.1914312,22.3261099 C50.2601978,22.4472992 50.4109874,22.5287869 50.6438067,22.5705758 L50.6438067,23.0093614 L47.3263854,23.3227779 C47.1570599,23.3394924 47.006267,23.3520296 46.8740066,23.3603869 C46.7417203,23.3687467 46.6173821,23.372924 46.5009952,23.372924 C46.141198,23.372924 45.9057521,23.3039734 45.7946542,23.1660697 C45.6835335,23.0281659 45.6279781,22.7628056 45.6279911,22.3699887 C45.6279781,22.1610444 45.6597217,21.8288235 45.7232285,21.3733233 C45.7867061,20.9178257 45.8687162,20.3996423 45.9692557,19.8187729 C46.0697724,19.2379088 46.1782339,18.6257029 46.29465,17.9821478 C46.4110369,17.3386029 46.5195017,16.7222171 46.6200412,16.1329854 C46.7205579,15.5437691 46.802568,15.0151384 46.8660715,14.5470934 C46.9295491,14.0790663 46.961296,13.7322183 46.961309,13.5065492 C46.961296,13.2307519 46.9295491,12.9653916 46.8660715,12.7104682 C46.802568,12.455568 46.688811,12.2319965 46.524807,12.0397564 C46.3607737,11.8475369 46.135909,11.6929186 45.8502097,11.575899 C45.5644875,11.4589 45.1994111,11.4003966 44.7549838,11.4003837 C44.2470431,11.4003966 43.7629207,11.4986014 43.3026198,11.6949958 C42.8422962,11.8914157 42.4190215,12.158866 42.0327925,12.497344 C41.6465439,12.8358451 41.3052793,13.2328419 41.0089922,13.6883292 C40.7126921,14.1438396 40.4798923,14.6306814 40.3105864,15.1488546 L42.1518385,15.1739289 L40.1359881,20.702609 C40.0195785,21.0202079 39.9375684,21.2625838 39.8899578,21.4297367 C39.8423309,21.5968947 39.8185224,21.7389784 39.8185289,21.8559852 C39.8185224,22.14015 39.8555582,22.3490969 39.9296398,22.4828181 C40.003705,22.6165446 40.19418,22.7168394 40.5010613,22.7837 L40.5010613,23.1096537 L37.2153836,23.4982906 C37.1307241,23.5066479 37.0540062,23.5129177 36.9852267,23.5170951 C36.9164406,23.521275 36.8503039,23.523365 36.7868166,23.523365 C36.3635387,23.523365 36.0540178,23.4188928 35.8582571,23.2099485 C35.6624867,23.0010042 35.5646064,22.6332617 35.5646096,22.1067184 C35.5646064,21.605252 35.6175157,21.0808013 35.7233376,20.5333635 C35.8291531,19.985931 35.9958162,19.4364084 36.2233302,18.8847882 C36.4508378,18.3331809 36.7418391,17.7857458 37.0963376,17.2424828 C37.4508262,16.6992327 37.8820393,16.1810493 38.3899735,15.6879325 L35.5646096,15.612712 C35.7762437,14.9608124 36.0857647,14.3757683 36.4931692,13.8575746 C36.9005672,13.3394014 37.3899818,12.8797239 37.9614065,12.4785395 L35.9773031,12.5913689 C35.8503155,12.599739 35.7392078,12.6060063 35.6439736,12.610176 C35.5487329,12.6143636 35.4587877,12.6164535 35.3741347,12.6164433 C35.2365659,12.6164535 35.1307472,12.6060063 35.0566787,12.5851016 C34.9826004,12.5642175 34.9296911,12.5266085 34.8979474,12.4722722 C34.8662005,12.4179564 34.8476842,12.340646 34.8423952,12.2403435 C34.8370997,12.1400615 34.8344569,12.0063351 34.8344569,11.8391694 L34.8344569,8.16591902 C34.8344569,7.80654917 34.7709631,7.55163607 34.6439819,7.40117973 C34.5169976,7.25075677 34.3000712,7.15464187 33.9931964,7.11283503 L33.9931964,6.81195572 L37.8026785,5.95946136 C37.908494,5.93440499 38.0037314,5.9176879 38.0883909,5.90931267 C38.1730406,5.90097339 38.2576936,5.8967755 38.3423564,5.8967755 C38.5328248,5.8967755 38.6862606,5.92604773 38.802667,5.98453314 C38.9190636,6.04305449 39.0090088,6.11827496 39.0725059,6.21019454 C39.1359899,6.3021475 39.1783181,6.40034979 39.1994903,6.50480655 C39.2206462,6.60929668 39.2312274,6.71167888 39.2312339,6.81195572 L39.2312339,11.7388746 C40.2153424,11.2708501 41.3105683,10.9302719 42.5169116,10.7171348 C43.7232387,10.5040234 44.9666081,10.3974613 46.2470297,10.3974485 C46.9242569,10.3974613 47.5723995,10.4434301 48.1914544,10.5353522 C48.81048,10.6273 49.3501546,10.8153525 49.8104847,11.0995044 C50.270779,11.3836795 50.6384983,11.7890335 50.9136457,12.3155614 C51.1887573,12.842115 51.3263391,13.5399885 51.3263391,14.4091896 L51.3263391,14.4091896 Z M75.2625874,12.1275115 C75.0509273,12.2194593 74.8234165,12.3030371 74.580055,12.3782473 C74.3683949,12.4451207 74.1223645,12.5015342 73.8419671,12.5474927 C73.5615242,12.5934692 73.2678768,12.6164535 72.9610247,12.6164433 C72.5588929,12.6164535 72.1488456,12.5746647 71.7308793,12.4910767 C71.3128741,12.4075092 70.9372198,12.2612482 70.6039065,12.0522911 C70.2705608,11.8433596 70.0060109,11.5633721 69.8102632,11.2123339 C69.6144831,10.8613187 69.5377652,10.4183557 69.5801096,9.88344491 C69.2732185,9.89181501 68.945178,9.90435218 68.5959913,9.92105386 C68.2891002,9.93778379 67.9346083,9.95449831 67.5325123,9.97120255 C67.130387,9.98792991 66.6965279,10.004647 66.230938,10.0213487 L64.8658732,18.0322939 C65.5642661,17.9737956 66.1965353,17.9111123 66.7626775,17.844244 C67.3287971,17.7773859 67.8340819,17.7439569 68.2785353,17.7439492 C68.6806313,17.7439569 69.0615779,17.8045502 69.4213815,17.9257318 C69.7811462,18.0469262 70.0959593,18.2245288 70.3658145,18.4585424 C70.6356339,18.6925636 70.8472713,18.9746384 71.0007266,19.3047668 C71.1541461,19.6349055 71.230864,20.0130953 71.2308835,20.4393386 C71.230864,20.924093 71.1276914,21.3461616 70.9213626,21.7055443 C70.7149979,22.0649321 70.4372239,22.3637214 70.0880405,22.6019174 C69.7388213,22.840116 69.336709,23.0156287 68.8817037,23.1284581 C68.4266658,23.2412901 67.9557708,23.285169 67.4690218,23.2600946 L64.7706358,23.1597998 C64.4320043,23.1514425 64.1277756,23.1660697 63.8579497,23.2036786 C63.588101,23.2412901 63.3209082,23.285169 63.0563713,23.3353151 C62.7918116,23.3854612 62.5219759,23.4335174 62.2468545,23.4794861 C61.9717168,23.5254549 61.664842,23.5484367 61.3262301,23.5484367 C61.1357486,23.5484367 60.950566,23.5338122 60.770682,23.5045605 C60.5907818,23.4753062 60.4320538,23.4147129 60.2944947,23.3227779 C60.1569226,23.2308429 60.045815,23.0929392 59.9611652,22.9090666 C59.8765025,22.7251966 59.8341776,22.4828207 59.8341841,22.1819388 C59.8341776,22.1234355 59.8421127,22.0315005 59.8579927,21.9061313 C59.8738596,21.7807673 59.8923759,21.6512208 59.9135481,21.5174944 C59.9347041,21.367056 59.9611587,21.2040779 59.9929121,21.0285626 L61.7706704,10.2219357 C61.3156391,10.2386631 60.8950105,10.2574701 60.5087782,10.2783492 C60.1225329,10.299259 59.7892034,10.3159735 59.5087897,10.3284979 C59.2283631,10.3410479 59.0140796,10.3535825 58.8659393,10.3661068 C58.717786,10.3786568 58.6595877,10.389104 58.6913379,10.3974485 C58.712497,10.8989302 58.6013861,11.3377133 58.3580084,11.7138002 C58.1146209,12.0899128 57.8103922,12.4033319 57.4453223,12.6540522 C57.0802394,12.9047982 56.6887116,13.0928481 56.2707291,13.2182045 C55.8527434,13.3435813 55.4797319,13.4062646 55.1516947,13.4062543 C54.9083104,13.4062646 54.659634,13.3853702 54.4056717,13.343571 C54.151703,13.3017925 53.9241955,13.2558237 53.7231393,13.2056673 C53.4797551,13.1471742 53.2522443,13.0761336 53.0406069,12.9925431 C53.2099161,12.8755466 53.3633552,12.7376428 53.5009207,12.5788343 C53.6173206,12.4367609 53.7257822,12.2675155 53.8263119,12.0710981 C53.9268383,11.8747012 53.9771048,11.6511298 53.9771048,11.4003837 C53.9771048,11.1413061 53.9427118,10.9093774 53.8739322,10.7045976 C53.8051494,10.4998461 53.7284283,10.3222408 53.6437753,10.1717896 C53.5485379,10.004647 53.4427192,9.85002615 53.3263193,9.70792963 L74.7229096,8.67992256 C74.6805587,8.78858747 74.6382338,8.91395406 74.5959252,9.05602233 C74.5641588,9.17304707 74.5377041,9.31930809 74.5165612,9.49480797 C74.495376,9.67033352 74.4847948,9.87092058 74.4848175,10.0965691 C74.4847948,10.4893988 74.5244768,10.8132625 74.6038636,11.0681628 C74.6832048,11.3230862 74.7705072,11.5299431 74.8657641,11.6887284 C74.9821445,11.8726113 75.1144179,12.0188723 75.2625874,12.1275115 L75.2625874,12.1275115 Z M66.7547424,20.4142643 C66.7547294,19.9128005 66.6727193,19.5387906 66.5087121,19.2922322 C66.3446821,19.0456815 66.0245799,18.9223998 65.5484056,18.9223998 C65.4002458,18.9223998 65.2494562,18.9328495 65.0960301,18.9537414 C64.9425814,18.9746384 64.8023697,19.0018027 64.6754016,19.0352292 L64.5484172,19.8501146 C64.537823,19.9086231 64.5219495,19.9942908 64.5008001,20.1071151 C64.4796247,20.2199496 64.4558129,20.3390489 64.4293712,20.4644129 C64.4029035,20.5897821 64.3817411,20.7151487 64.3658806,20.8405127 C64.3499942,20.9658819 64.3420591,21.074534 64.3420721,21.1664664 C64.3420591,21.3419817 64.3447052,21.4986899 64.3500072,21.6365937 C64.3552864,21.7744974 64.3870333,21.8915068 64.4452446,21.9876191 C64.5034332,22.0837366 64.5986707,22.158957 64.7309538,22.2132805 C64.8632174,22.2676065 65.0510462,22.2947683 65.2944402,22.2947683 C65.5378114,22.2947683 65.7494488,22.2446221 65.9293555,22.1443273 C66.1092329,22.0440376 66.2600258,21.9061339 66.381731,21.7306186 C66.5034101,21.5551059 66.5960014,21.3545188 66.659505,21.1288574 C66.7229825,20.9031986 66.7547294,20.6650026 66.7547424,20.4142643 L66.7547424,20.4142643 Z M99.7861274,23.6988777 C99.6379578,23.8409614 99.4263172,23.962148 99.1512121,24.0624428 C98.9183895,24.1543778 98.6168037,24.2379556 98.2464611,24.313176 C97.876073,24.3883965 97.4104701,24.4260054 96.8496526,24.4260054 C96.4686833,24.4260054 96.106253,24.3883965 95.7623618,24.313176 C95.4184316,24.2379556 95.1115568,24.1293035 94.8417374,23.9872224 C94.571879,23.8451387 94.3470143,23.6758933 94.1671401,23.4794861 C93.9872301,23.283079 93.8761192,23.0595075 93.8338106,22.8087744 L89.5798881,23.3979984 C89.5163845,23.4063556 89.413212,23.4188928 89.2703704,23.4356073 C89.1274996,23.4523244 88.9767067,23.4690389 88.8179917,23.4857534 C88.6592507,23.5024705 88.5005227,23.5170951 88.3418076,23.5296323 C88.1830666,23.5421694 88.0507933,23.5484367 87.9449876,23.5484367 C87.5428623,23.5484367 87.2359875,23.4690389 87.0243632,23.3102407 C86.8127128,23.1514425 86.7068941,22.9550354 86.7069039,22.7210167 C86.7068941,22.545504 86.7280566,22.3846159 86.7703977,22.2383548 C86.8127128,22.0920938 86.8603299,21.9729945 86.9132523,21.881057 L90.119566,16.0013489 C89.5481315,16.1267232 88.989934,16.2479125 88.4449802,16.3649141 C87.9000004,16.4819311 87.3973617,16.5864033 86.9370608,16.6783306 C86.4767372,16.7702733 86.0799172,16.8434038 85.7465975,16.8977221 C85.4132582,16.9520559 85.1725201,16.9792176 85.024383,16.9792125 C84.8339016,16.9792176 84.6540079,16.9666804 84.4847084,16.9416009 C84.3153895,16.9165343 84.1566614,16.8663882 84.0085212,16.7911626 C83.8603679,16.7159472 83.7148672,16.613565 83.5720191,16.4840134 C83.4291548,16.3544746 83.2836541,16.1852292 83.1355171,15.9762772 L82.1990192,16.2520847 C82.2201751,16.3273103 82.2466298,16.4150679 82.2783832,16.5153551 C82.2995391,16.6072977 82.3180587,16.7138599 82.3339387,16.8350388 C82.3498024,16.9562332 82.3577407,17.0962269 82.3577472,17.25502 C82.3577407,17.8233547 82.2466298,18.3185538 82.0244177,18.7406172 C81.8021894,19.1626909 81.4979607,19.5158063 81.1117284,19.7999685 C80.7254831,20.0841358 80.2625264,20.2972601 79.722855,20.4393386 C79.1831739,20.5814248 78.595879,20.6524654 77.9609702,20.6524628 C77.7916577,20.6524654 77.6435109,20.6399282 77.5165298,20.6148513 C77.3895454,20.5897821 77.2784345,20.5605304 77.1832003,20.5270962 C77.0667971,20.4936672 76.9715597,20.4476984 76.8974879,20.3891925 C77.1091253,20.1802507 77.2996002,19.950412 77.4689094,19.6996737 C77.6170562,19.4907319 77.7493296,19.2504459 77.8657327,18.9788132 C77.9821293,18.7071907 78.0403309,18.4251159 78.0403342,18.1325861 C78.0403309,17.8985752 78.008584,17.6979881 77.9450967,17.530825 C77.8816029,17.3636772 77.8075279,17.2257734 77.7228781,17.1171162 C77.6382186,17.0084719 77.5588546,16.9248916 77.4847829,16.8663805 C77.4107078,16.8078848 77.3683797,16.7744532 77.3578018,16.7660882 L82.6434563,15.1739289 C82.3154126,14.5471037 82.0402847,13.9223581 81.8180694,13.2996922 C81.5958443,12.6770469 81.4847334,12.0606611 81.4847399,11.4505299 C81.4847334,10.5980483 81.6857895,9.86674323 82.0879083,9.25660939 C82.490014,8.64650636 83.042916,8.14712738 83.7466206,7.75847503 C84.4503057,7.36985349 85.2809849,7.08359874 86.238655,6.8997108 C87.1963055,6.71585623 88.2306837,6.62390584 89.3417961,6.62390584 C90.601026,6.62390584 91.5930793,6.87047708 92.3179561,7.36357078 C93.0427971,7.85669529 93.4052274,8.56292863 93.4052437,9.48227079 C93.4052274,9.98375256 93.2756002,10.4601446 93.0163587,10.911452 C92.7570848,11.3627851 92.3549757,11.7848536 91.8100252,12.1776602 C91.2650421,12.5704873 90.5666362,12.92987 89.7148076,13.2558134 C88.8629529,13.5817773 87.8497371,13.870122 86.6751602,14.1208449 C86.7915504,14.3883055 86.9211776,14.6536632 87.0640452,14.9169259 C87.2068867,15.1802039 87.3629719,15.4288497 87.5322941,15.6628581 C88.4423243,15.4873531 89.17512,15.345272 89.730681,15.2366122 C90.2862161,15.1279679 90.7438838,15.0443901 91.1036809,14.985879 C91.4634521,14.9273808 91.7623886,14.8897718 92.0004968,14.8730471 C92.2385726,14.8563402 92.5004764,14.847983 92.786205,14.8479753 C93.3258634,14.847983 93.7279757,14.9524551 93.9925386,15.1613918 C94.257069,15.3703438 94.3893424,15.7004773 94.3893619,16.1517899 C94.3893424,16.2019437 94.3655338,16.2959687 94.317933,16.4338647 C94.2702964,16.5717762 94.1935785,16.7368417 94.0877761,16.9290638 C94.024266,17.0377236 93.9263857,17.2132363 93.7941286,17.4556071 C93.661839,17.6979881 93.5136922,17.9696157 93.3496882,18.2704899 C93.1856517,18.5713769 93.0136963,18.8889733 92.8338222,19.2232791 C92.6539122,19.5575951 92.4925381,19.8751915 92.3496998,20.1760682 C92.2068289,20.4769527 92.0877829,20.7423104 91.9925617,20.9721492 C91.897308,21.2019905 91.8496909,21.367056 91.8497072,21.4673482 C91.8496909,21.6345063 91.8920158,21.7703201 91.9766883,21.8747897 C92.0613283,21.9792644 92.2253453,22.0315005 92.4687458,22.0314979 C92.563967,22.0315005 92.6909481,22.0231432 92.8496956,22.0064261 C93.0084074,21.9897116 93.1671354,21.9688172 93.3258796,21.9437403 C93.5057538,21.9186685 93.6962288,21.8894168 93.8973011,21.8559852 C94.024266,21.663758 94.217387,21.4819754 94.476661,21.3106374 C94.7358992,21.1393072 95.0374818,20.9909562 95.381412,20.8655871 C95.7253032,20.740223 96.1088991,20.6420182 96.5321933,20.5709751 C96.9554485,20.4999345 97.3998889,20.4644155 97.8655145,20.4644129 C98.0877103,20.4644155 98.2887665,20.4769527 98.4686797,20.5020219 C98.6485506,20.5270988 98.7966974,20.5563505 98.9131201,20.5897795 C99.0506629,20.6232137 99.177644,20.6608227 99.2940699,20.702609 C99.1882252,20.8614097 99.09828,21.0243878 99.024231,21.1915407 C98.9607144,21.3336244 98.9025161,21.4966025 98.8496295,21.6804699 C98.7966974,21.864345 98.7702427,22.0523949 98.7702655,22.2446221 C98.7702427,22.4117802 98.8231521,22.581023 98.9289935,22.7523584 C99.0347894,22.9236937 99.1511893,23.080402 99.2781964,23.2224831 C99.4263172,23.3812813 99.5956297,23.5400795 99.7861274,23.6988777 L99.7861274,23.6988777 Z M89.056087,9.0685595 C89.056087,8.64232644 88.950252,8.29965827 88.7386277,8.04054986 C88.5269773,7.78147482 88.1989401,7.65191291 87.7545127,7.65191291 C87.5322811,7.65191291 87.3021242,7.68744988 87.0640452,7.75847503 C86.8259402,7.82953356 86.6090106,7.95698754 86.4132564,8.14084467 C86.2174828,8.32473005 86.0561086,8.5754658 85.9291373,8.89304679 C85.8021432,9.21065602 85.7386624,9.61183014 85.7386624,10.0965691 C85.7386624,10.4559672 85.7862697,10.9072875 85.8815169,11.4505299 C85.9767446,11.9937979 86.1248914,12.5704873 86.3259573,13.1805955 C86.7809659,13.0218076 87.1777892,12.8086833 87.5164207,12.5412228 C87.8550294,12.2737854 88.1380924,11.9603689 88.3656162,11.6009708 C88.593114,11.2415984 88.7650693,10.8487815 88.8814855,10.4225228 C88.9978724,9.99628717 89.056087,9.54496693 89.056087,9.0685595 L89.056087,9.0685595 Z M119.999991,3.96080541 C119.999991,4.8561208 119.830326,5.67205994 119.491056,6.40865765 C119.151745,7.14532498 118.631501,7.7771321 117.930316,8.30407902 C117.229097,8.83106075 116.335632,9.24468762 115.249915,9.54499445 C114.164173,9.84533608 112.874866,10.0068389 111.381997,10.0294681 C111.551632,10.9134341 111.797619,11.8115694 112.119958,12.7238393 C112.442272,13.636144 112.761769,14.4719272 113.078452,15.2311889 C113.451662,16.1151549 113.847501,16.9821316 114.265971,17.8320493 L107.70069,20.1949551 C107.723301,20.2629471 107.751575,20.3479284 107.785513,20.4499339 C107.808124,20.5405899 107.827917,20.65391 107.844889,20.789894 C107.861844,20.9259129 107.870328,21.084561 107.870335,21.265873 C107.870328,21.651196 107.762884,22.0393389 107.54801,22.4303366 C107.333119,22.8212994 107.030584,23.1754638 106.640405,23.4927599 C106.250215,23.8100908 105.780863,24.0707443 105.232348,24.2747204 C104.683823,24.4786965 104.081581,24.5807019 103.425622,24.5807019 C103.233355,24.5807019 103.066538,24.5637126 102.925167,24.5296992 C102.783793,24.4957206 102.662215,24.4560325 102.560431,24.4107045 C102.436022,24.3653765 102.328578,24.3030591 102.238102,24.2237177 C102.30596,24.0424056 102.368164,23.8383947 102.424713,23.6117546 C102.481261,23.4190931 102.529325,23.1924531 102.568912,22.9317995 C102.608495,22.671146 102.628285,22.3935032 102.628288,22.0988363 C102.628285,21.8042042 102.608495,21.5010426 102.568912,21.1893863 C102.529325,20.8777301 102.481261,20.5915926 102.424713,20.3309391 C102.368164,20.0249576 102.30596,19.7246508 102.238102,19.4299838 C102.543462,19.2713358 102.865791,19.129677 103.205084,19.0050076 C103.499132,18.8916875 103.818632,18.7896821 104.163579,18.699026 C104.508522,18.60837 104.85064,18.563042 105.189937,18.563042 C105.52922,18.563042 105.817618,18.5942006 106.055128,18.656518 C106.292627,18.7188701 106.490546,18.7896821 106.648886,18.8690235 C106.829836,18.9596795 106.982516,19.061685 107.106929,19.175005 L109.923045,18.2060577 C109.289694,17.0161102 108.72421,15.8091734 108.226591,14.5852473 C108.011699,14.0639402 107.805296,13.5114746 107.607383,12.9278154 C107.409457,12.3441911 107.231331,11.7492173 107.073002,11.1429289 C106.914659,10.5366406 106.787425,9.93031741 106.6913,9.32402906 C106.595162,8.7177407 106.547094,8.12558689 106.547101,7.54760244 C106.547094,6.39170316 106.784597,5.34908911 107.259612,4.41979511 C107.73461,3.49050111 108.390573,2.69722597 109.2275,2.03990008 C110.064409,1.38264381 111.06249,0.878326093 112.221742,0.52698173 C113.380977,0.175706996 114.639178,1.0658141e-14 115.996356,1.0658141e-14 C116.505277,1.0658141e-14 117.000076,0.0906908507 117.480754,0.272002924 C117.961401,0.453349811 118.388342,0.714003323 118.76158,1.05396346 C119.13478,1.39395841 119.434487,1.81044004 119.660701,2.30340835 C119.886874,2.79637666 119.999991,3.34884234 119.999991,3.96080541 L119.999991,3.96080541 Z M115.826711,3.05985012 C115.826711,2.87853804 115.809732,2.68873132 115.775819,2.49039513 C115.741874,2.29209375 115.67967,2.11360163 115.589208,1.95491875 C115.498716,1.79627068 115.374306,1.66310657 115.215988,1.55542642 C115.057638,1.44778108 114.854062,1.39395841 114.605265,1.39395841 C114.062385,1.39395841 113.578896,1.58094519 113.154793,1.95491875 C112.730667,2.32892712 112.371587,2.82753532 112.077543,3.45084779 C111.783482,4.07416027 111.560116,4.79662343 111.407443,5.61820246 C111.254753,6.43985112 111.178414,7.29265845 111.178414,8.17658962 C111.178414,8.26724565 111.178414,8.35508174 111.178414,8.44006308 C111.178414,8.52507922 111.189724,8.61291531 111.212352,8.70353653 C111.845683,8.48824585 112.442272,8.17376967 113.002114,7.76010799 C113.561931,7.34648112 114.051073,6.88181671 114.469546,6.36618439 C114.887993,5.85055207 115.218798,5.30658104 115.461975,4.73427129 C115.705116,4.16199636 115.826711,3.60385597 115.826711,3.05985012 L115.826711,3.05985012 Z" id="am-wordmark" fill="#000000" fill-rule="nonzero"></path>
    </g>
</svg>