<svg xmlns="http://www.w3.org/2000/svg" width="120" height="22" fill="none"><path fill="#000" d="M23.578 6.413a1.33 1.33 0 1 0 0-2.66 1.33 1.33 0 0 0 0 2.66Zm21.408 0a1.33 1.33 0 1 0 0-2.66 1.33 1.33 0 0 0 0 2.66ZM13.986 0c1.47.033 2.69.065 3.41.065.719 0 1.501-.033 2.752-.065.188.196.188.883 0 1.08-2.064.261-2.474 1.495-3.075 3.042l-6.466 16.686c-.182.468-.407.752-.751.752-.313 0-.532-.242-.72-.752L2.957 4.057c-.891-2.388-1.016-2.814-2.8-2.978C-.03.883-.06.196.126 0c1.47.033 2.002.065 3.254.065C4.6.065 5.695.032 7.165 0c.188.196.188.883 0 1.08-2.127.229-2.309.67-1.583 2.617l4.978 13.316h.143l4.94-13.12c.67-1.78.657-2.65-1.658-2.814-.188-.196-.188-.883 0-1.079Zm11.836 20.315c.132.118.132.531 0 .65-1.108-.02-1.75-.04-2.857-.04-1.13 0-1.794.02-2.88.04-.132-.119-.132-.532 0-.65 1.55-.06 1.927-.158 1.927-1.791V10.63c0-1.634-.376-1.732-1.926-1.791-.133-.118-.133-.532 0-.65 1.107.02 1.749.04 2.856.04 1.13 0 1.794-.02 2.88-.04.132.118.132.532 0 .65-1.55.06-1.927.157-1.927 1.79v7.894c0 1.633.376 1.732 1.927 1.79Zm7.107 0c.133.118.133.531 0 .65-1.107-.02-1.75-.04-2.857-.04-1.129 0-1.793.02-2.879.04-.133-.119-.133-.532 0-.65 1.55-.06 1.927-.158 1.927-1.791V10.63c0-1.634-.377-1.732-1.927-1.791-.133-.118-.133-.532 0-.65 1.108.02 1.75.04 2.857.04 1.13 0 1.794-.02 2.879-.04.133.118.133.532 0 .65-1.55.06-1.927.157-1.927 1.79v3.46c.776-.06 1.238-.35 1.683-.762l3.72-3.464c1.066-1.051.18-.957-.62-1.024-.132-.118-.132-.531 0-.65 1.041.02 1.617.04 2.503.04.886 0 1.063-.02 2.104-.04.133.119.133.532 0 .65-.886.099-1.86.138-2.88 1.102l-3.1 2.972c-.723.695-.819.827-.819.965 0 .157.067.295.266.492l4.85 5.117c.744.819 1.552.775 1.949.827.132.118.132.531 0 .65-1.041-.02-1.373-.04-2.237-.04-.664 0-1.04.02-1.484.04-.088 0-.11-.06-.11-.119 0-.358-.003-.881-.444-1.358l-3.61-3.897c-.442-.506-1.027-.726-1.77-.746v3.679c0 1.633.376 1.732 1.926 1.79Zm14.924 0c.133.118.133.531 0 .65-1.107-.02-1.75-.04-2.856-.04-1.13 0-1.794.02-2.88.04-.132-.119-.132-.532 0-.65 1.55-.06 1.927-.158 1.927-1.791V10.63c0-1.634-.376-1.732-1.926-1.791-.133-.118-.133-.532 0-.65 1.107.02 1.749.04 2.856.04 1.13 0 1.794-.02 2.88-.04.132.118.132.532 0 .65-1.55.06-1.927.157-1.927 1.79v7.894c0 1.633.376 1.732 1.926 1.79Zm14.527-9.9h-.044l-4.983 10.412c-.089.157-.177.216-.31.216a.365.365 0 0 1-.332-.216L52.127 10.61h-.044l-.842 7.893c-.117 1.108 0 1.713 1.462 1.81.132.119.132.532 0 .65-.665-.02-1.55-.039-2.082-.039-.532 0-1.24.02-1.905.04-.133-.119-.133-.532 0-.65 1.263-.099 1.529-.593 1.66-1.771l.887-8.11c.155-1.476.022-1.515-1.506-1.594-.133-.118-.133-.531 0-.65l3.211.04 4.54 9.999c.089.177.11.256.177.256.044 0 .11-.079.2-.276l4.694-9.979 2.901-.04c.133.12.133.532 0 .65-1.506.08-1.605.355-1.521 1.418l.66 8.286c.13 1.63.197 1.712 1.703 1.771.132.118.132.532 0 .65-.736-.02-1.75-.04-2.414-.04-.665 0-1.33.02-2.37.04-.133-.118-.133-.532 0-.65 1.44-.059 1.521-.078 1.41-1.673l-.568-8.227ZM90.287 8.8c-.133-.118-.133-.53 0-.65 1.107.02 1.506.04 2.458.04.974 0 1.395-.02 2.48-.04.133.12.133.532 0 .65-1.55.138-1.926.256-1.926 2.008v9.664c0 .374-.2.61-.51.61-.354 0-.642-.177-.886-.472l-7.728-8.68c-.377-.433-.62-.65-.753-.65-.177 0-.177.296-.177.965v6.023c0 1.791.376 1.87 1.926 2.007.133.118.133.532 0 .65-1.107-.02-1.505-.04-2.458-.04-.974 0-1.395.02-2.48.04-.133-.118-.133-.532 0-.65 1.55-.138 1.926-.256 1.926-2.007V10.06c-.133-.512-.797-1.2-1.749-1.26-.133-.118-.133-.53 0-.65l2.99.04 7.595 8.7c.642.728.886 1.082 1.063 1.082.155 0 .155-.216.155-.59v-6.574c0-1.791-.376-1.87-1.926-2.008Z"/><path fill="#000" d="M101.003 8.151c4.119 0 4.761 1.713 4.761 3.031 0 1.069-.995 2.079-2.104 2.579v.039c1.926.492 3.41 1.575 3.41 3.464 0 1.693-1.173 3.66-5.58 3.66-1.971 0-2.281-.039-3.233-.039-1.13 0-1.794.02-2.88.04-.132-.118-.132-.532 0-.65 1.55-.059 1.927-.157 1.927-1.79V10.59c0-1.633-.377-1.732-1.927-1.791-.132-.118-.132-.531 0-.65 1.108.02 1.75.04 2.857.04.953 0 1.994-.039 2.769-.039Zm-1.816 5.53h1.638c1.839 0 3.145-.59 3.145-2.262 0-2.008-1.617-2.599-2.857-2.599-1.926 0-1.926.197-1.926.847v4.015Zm0 5.276c0 .65.288 1.318 1.838 1.318 3.366 0 3.986-1.2 3.986-2.637 0-1.772-1.263-3.287-4.296-3.287h-1.528v4.606Zm-31.2-8.641c1.672-1.457 2.667-2.185 4.995-2.185 4.549 0 6.37 3.405 6.37 6.534 0 3.839-2.16 6.653-6.243 6.653-4.063 0-5.566-2.559-5.799-5.354h10.116c.02-.216.02-.452.02-.728 0-3.66-1.946-6.436-4.803-6.436-1.968 0-3.047.964-4.168 1.988l-.487-.472Zm5.27 10.333c2.243 0 3.597-1.85 3.978-3.818h-8.232c.656 2.559 2.18 3.818 4.254 3.818Zm35.379-10.49c1.672-1.457 2.667-2.185 4.995-2.185 4.549 0 6.369 3.405 6.369 6.534 0 3.838-2.159 6.653-6.242 6.653-4.063 0-5.566-2.559-5.798-5.354h10.114c.022-.217.022-.453.022-.728 0-3.66-1.947-6.436-4.804-6.436-1.968 0-3.047.964-4.169 1.988l-.487-.472Zm5.269 10.333c2.244 0 3.598-1.85 3.979-3.819h-8.232c.656 2.559 2.179 3.819 4.253 3.819Z"/></svg>