<svg xmlns="http://www.w3.org/2000/svg" width="120" height="13"><path fill="#000" fill-rule="nonzero" d="m62.517 3.768-1.056 4.55a8.41 8.41 0 0 0-.13.61l-.033.224c-.007.062-.011.112-.011.15.006.077.033.131.084.16.049.03.084.042.104.041.078 0 .179-.076.302-.229.075-.09.16-.205.257-.344l.21-.308.332.231c-.146.246-.29.463-.435.65-.044.116-.08.234-.105.353a1.61 1.61 0 0 0-.04.34 3.024 3.024 0 0 0 .058.607c.023.093.04.186.053.28l.015.143.005.156c.022.196-.058.408-.243.64-.163.205-.514.425-1.053.659l-.211.088-.159-.405c.219-.096.408-.21.57-.34a.654.654 0 0 0 .255-.512l-.014-.294v-.081c0-.165.022-.335.063-.506.041-.172.102-.355.183-.549a1.231 1.231 0 0 1-.696.217c-.24-.011-.405-.085-.496-.223a.731.731 0 0 1-.127-.428l.01-.158a3.944 3.944 0 0 1 .098-.555l.27-1.006-.044-.028c-.49.758-.937 1.343-1.344 1.762-.406.417-.92.63-1.539.636a.92.92 0 0 1-.692-.269c-.18-.183-.273-.48-.279-.888a3.37 3.37 0 0 1 .092-.75l.053-.218.652-2.47c.048-.176.083-.325.108-.446l.02-.111c.023-.137.033-.238.031-.308 0-.079-.02-.133-.055-.161a.194.194 0 0 0-.133-.042c-.078 0-.19.068-.333.203l-.192.19a9.01 9.01 0 0 0-.23.252l-.128.149-.32-.246c.265-.36.575-.675.932-.946.358-.27.705-.412 1.04-.427.24.001.401.047.481.138.082.09.119.222.113.397a2.65 2.65 0 0 1-.04.382l-.028.156a9.582 9.582 0 0 1-.101.459l-.686 2.628c-.099.393-.147.706-.145.94.003.235.045.399.126.496a.39.39 0 0 0 .323.139c.356-.007.736-.264 1.138-.77.352-.442.753-1.041 1.202-1.799l.195-.334.638-2.745.147-.009a10.17 10.17 0 0 0 .938-.121ZM105.48 0c.21.108.425.203.647.286l.337.115c.342.105.69.273 1.045.507.356.233.714.624 1.072 1.172.295.449.512.927.652 1.431.139.506.21 1.03.217 1.573-.012.912-.17 1.747-.475 2.507-.304.76-.687 1.349-1.149 1.769a4.208 4.208 0 0 1-.89.672c-.33.19-.757.287-1.281.296-.633-.021-1.091-.25-1.377-.684-.284-.436-.424-.948-.42-1.54.023-.915.249-1.705.676-2.375.425-.671.916-1.155 1.468-1.455.336-.178.64-.308.91-.388.27-.08.482-.117.639-.117.176-.002.345.017.51.054.164.04.314.107.445.207.014-.066.022-.127.026-.187.002-.059.004-.116.003-.174-.018-.768-.242-1.29-.673-1.563-.431-.274-.96-.5-1.587-.675-.333-.124-.564-.297-.69-.521a1.312 1.312 0 0 1-.178-.692.58.58 0 0 1 .018-.158.127.127 0 0 1 .025-.053l.014-.007h.016Zm-83.13 3.77.04.007c.012.004.018.015.018.036l-.246.951-.188.767-.318 1.33h.03c.438-.412.853-.725 1.243-.937.39-.212.73-.318 1.016-.32a.975.975 0 0 1 .805.423c.194.27.292.607.296 1.007a3.146 3.146 0 0 1-1.129 2.335c-.71.615-1.518.935-2.42.959-.367-.001-.674-.104-.926-.308-.252-.206-.382-.508-.394-.904.002-.11.01-.23.03-.358l.032-.19.04-.19.678-2.982.038-.208c.016-.091.023-.168.023-.232-.002-.122-.022-.206-.06-.254a.2.2 0 0 0-.096-.067l-.062-.012-.608-.059.043-.346c.522-.078.95-.154 1.285-.225.336-.07.612-.145.83-.223Zm29.127-.001a.077.077 0 0 1 .04.007c.012.004.019.015.019.036l-.247.951-.188.767-.217.997h2.578l.58-2.586.244-.016.463-.05.378-.048-1.133 4.848c-.022.102-.04.196-.055.282l-.032.223c-.008.062-.011.112-.011.15.006.078.034.131.083.161.05.028.085.042.105.041.1-.002.213-.078.342-.23.104-.12.228-.284.372-.49l.112-.16.275.23c-.26.458-.535.812-.822 1.064-.288.25-.599.377-.93.38-.247-.01-.412-.084-.494-.222a.747.747 0 0 1-.115-.427c0-.066.008-.152.022-.257l.042-.276.066-.377.377-1.676H50.75L50.1 9.98l-1.058.348-.072-.174 1.086-4.635.049-.234.017-.097c.014-.091.022-.168.022-.233-.001-.12-.021-.205-.06-.253a.206.206 0 0 0-.096-.067l-.062-.012-.609-.059.044-.346c.522-.078.951-.154 1.286-.225.334-.07.61-.145.829-.223Zm68.508.157.016.028-.074.347a.074.074 0 0 1-.023.032l-.02.01-.028.003h-.36c-.168-.002-.278.033-.33.103a.681.681 0 0 0-.097.224l-.94 4.002c-.02.102-.039.196-.053.282l-.033.223c-.007.062-.01.112-.01.15.005.078.032.131.083.161.049.028.083.042.104.041.098-.002.214-.078.342-.23.106-.12.23-.284.373-.49l.111-.16.276.23c-.26.458-.532.812-.822 1.064-.289.25-.598.377-.93.38-.248-.01-.415-.084-.502-.222a.746.746 0 0 1-.121-.427c0-.088.015-.211.04-.368l.064-.346.042-.196.317-1.435h-.441c-.289.014-.563.172-.823.478-.261.304-.517.681-.77 1.127a3.604 3.604 0 0 1-.638.829c-.21.202-.416.325-.617.368l-.12.016-.912.016-.043-.03.058-.274c.015-.05.042-.08.076-.095l.057-.017.055-.004h.101c.23-.032.485-.224.766-.575.21-.264.393-.515.55-.753l.148-.232c.181-.295.366-.522.558-.682a1.37 1.37 0 0 1 .6-.3c-.315.005-.643-.085-.977-.267-.334-.183-.516-.488-.543-.917l.01-.149.02-.169c.149-.54.455-.968.92-1.282.4-.269.834-.424 1.304-.468l.238-.012 1.71.014 1.288-.028Zm-46.63-.155a.085.085 0 0 1 .042.007c.011.004.018.015.018.036l-.247.951-.189.767-.246 1.098c.472-.014.866-.146 1.181-.392.253-.198.48-.444.684-.737l.148-.229c.213-.359.472-.685.776-.984.304-.3.635-.457.992-.476.23.002.392.046.485.127a.387.387 0 0 1 .139.321c-.013.24-.097.428-.252.561-.156.135-.309.202-.458.205-.203-.01-.33-.05-.38-.122-.047-.07-.144-.112-.29-.123-.076.005-.175.076-.303.215a2.782 2.782 0 0 0-.292.388l-.099.163c-.18.32-.39.606-.632.859a1.56 1.56 0 0 1-.86.468c.393-.002.71.08.95.242.24.16.398.418.47.77.05.313.148.683.294 1.11.13.374.303.613.523.717l.097.037.102.014a.315.315 0 0 1 .099.03.08.08 0 0 1 .039.048l.007.037-.072.274-.032.028-.998-.029c-.322-.036-.568-.236-.737-.599a4.074 4.074 0 0 1-.335-1.033c-.056-.386-.17-.702-.345-.95-.153-.214-.431-.356-.836-.426l-.181-.025-.637 2.86-1.058.348-.071-.174 1.086-4.633.048-.233.018-.098c.016-.091.022-.168.022-.232 0-.121-.02-.206-.06-.254a.2.2 0 0 0-.096-.067l-.062-.012-.609-.058.044-.347c.523-.078.952-.153 1.285-.225.335-.07.611-.145.829-.223ZM28.32 3.77a.077.077 0 0 1 .04.007c.01.004.017.015.017.036l-.246.951-.188.767-.217.997h2.578l.58-2.586.147-.008c.06-.004.13-.01.211-.02l.55-.063.178-.023-1.134 4.848c-.021.102-.04.196-.054.282l-.032.223c-.008.062-.011.112-.011.15.006.078.034.131.083.161.05.028.084.042.105.041.098-.002.213-.078.342-.23.104-.12.228-.284.372-.49l.112-.16.275.23c-.26.458-.534.812-.822 1.064-.29.25-.599.377-.93.38-.248-.01-.413-.084-.496-.222a.755.755 0 0 1-.113-.427c0-.066.008-.152.022-.257l.042-.276.066-.377.377-1.676h-2.579l-.652 2.888-1.057.348-.072-.174 1.112-4.758.039-.208c.015-.091.022-.168.022-.233-.001-.12-.021-.205-.06-.253a.2.2 0 0 0-.096-.067l-.061-.012-.609-.059.044-.346c.521-.078.95-.154 1.284-.225.336-.07.612-.145.83-.223Zm64.921-.001a.079.079 0 0 1 .04.006l.014.013.004.024-.434 1.719-.03.13.016.016c.656-.76 1.204-1.266 1.645-1.518.442-.252.845-.368 1.21-.348.288-.006.52.079.697.253.178.176.268.477.274.904-.001.085-.01.181-.027.288l-.032.168c-.037.177-.085.39-.144.641l-.55 2.355-.116.567a1.9 1.9 0 0 0-.03.285.396.396 0 0 0 .043.185.133.133 0 0 0 .117.075c.105 0 .237-.069.397-.209a5.45 5.45 0 0 0 .461-.479l.141-.164.334.275c-.418.504-.79.856-1.115 1.056-.324.199-.62.294-.886.288a.719.719 0 0 1-.45-.151c-.128-.098-.194-.246-.2-.441a2.779 2.779 0 0 1 .039-.473l.044-.238.104-.46.566-2.354.073-.332c.02-.1.037-.19.05-.268a2.42 2.42 0 0 0 .035-.383c-.002-.224-.051-.392-.146-.508a.474.474 0 0 0-.375-.171c-.257-.009-.566.133-.935.429-.328.262-.724.692-1.191 1.29l-.179.232-.824 3.509-1.058.348-.071-.174 1.097-4.76.038-.207c.016-.092.023-.168.023-.233 0-.12-.021-.205-.06-.253a.205.205 0 0 0-.096-.067l-.063-.012-.607-.059.044-.346c.521-.078.95-.154 1.284-.225.335-.07.611-.145.83-.223Zm-9.29.162.027.029-.071.289c-.007.034-.019.06-.038.076a.108.108 0 0 1-.053.021l-.04.003H83.4c-.244-.006-.411.038-.5.133-.07.077-.126.208-.167.394l-.734 3.821c-.022.121-.04.219-.05.293a2.025 2.025 0 0 0-.028.285c0 .074.01.136.035.185.024.049.06.073.111.075.105 0 .236-.068.396-.208.127-.112.28-.272.462-.48l.14-.164.334.276c-.425.503-.797.855-1.119 1.055-.322.2-.616.295-.88.288a.714.714 0 0 1-.45-.151c-.129-.098-.195-.246-.202-.441 0-.138.016-.293.046-.467l.073-.378.07-.325.722-3.322c.042-.171.062-.306.06-.405.002-.108-.03-.182-.1-.225a.51.51 0 0 0-.236-.061l-.114-.004h-.767c-.243-.009-.428.12-.556.387-.112.236-.232.623-.36 1.164l-.055.241c-.14.607-.29 1.175-.45 1.707-.16.531-.314.945-.462 1.24-.16.339-.356.598-.587.773-.23.177-.483.265-.76.267a.826.826 0 0 1-.529-.195.61.61 0 0 1-.225-.456l.001-.05.014-.051a.726.726 0 0 1 .187-.368.48.48 0 0 1 .349-.152.33.33 0 0 1 .255.112c.04.048.067.102.08.165l.01.11-.001.016a.04.04 0 0 1-.012.03.586.586 0 0 0 .023.236c.023.062.064.094.121.096.065.002.136-.037.216-.117.059-.06.12-.148.184-.264l.064-.124c.13-.241.272-.591.425-1.052l.132-.432c.09-.312.185-.671.282-1.078l.177-.768c.03-.14.057-.267.08-.384l.033-.165c.049-.261.072-.466.073-.613.001-.19-.044-.313-.141-.371a.762.762 0 0 0-.345-.077h-.122a.748.748 0 0 1-.228-.017c-.029-.01-.042-.034-.04-.072l.007-.042.06-.26.043-.028.94.025.451.005h2.622l.478-.005 1.014-.025Zm-64.825 0 .029.029-.073.289c-.007.034-.019.06-.038.076a.108.108 0 0 1-.053.021l-.04.003h-.376c-.244-.006-.41.038-.5.133-.07.077-.126.208-.167.394l-.732 3.821a9.75 9.75 0 0 0-.05.293 1.838 1.838 0 0 0-.027.285.43.43 0 0 0 .034.185.12.12 0 0 0 .11.075c.106 0 .238-.068.397-.208a5.45 5.45 0 0 0 .462-.48l.141-.164.333.276c-.423.503-.797.855-1.119 1.055-.323.2-.616.295-.88.288a.72.72 0 0 1-.451-.151c-.127-.098-.194-.246-.2-.441 0-.138.015-.293.045-.467l.073-.378.07-.325.724-3.322a1.67 1.67 0 0 0 .058-.405c.002-.108-.03-.182-.1-.225a.508.508 0 0 0-.234-.061l-.114-.004h-.768c-.243-.009-.428.12-.556.387-.112.236-.232.623-.36 1.164l-.054.241c-.14.607-.291 1.176-.452 1.707-.16.531-.314.945-.462 1.24-.16.339-.356.598-.586.773-.23.177-.484.265-.761.267a.826.826 0 0 1-.528-.195.61.61 0 0 1-.226-.456l.002-.05.013-.051a.724.724 0 0 1 .186-.368.484.484 0 0 1 .35-.152.33.33 0 0 1 .255.112.38.38 0 0 1 .081.165l.01.11v.016a.052.052 0 0 1-.013.03.549.549 0 0 0 .023.236c.024.062.064.094.122.096.066.002.137-.038.215-.117.06-.06.12-.148.184-.264l.064-.124c.13-.241.271-.591.424-1.052l.133-.432c.09-.312.184-.671.281-1.078l.177-.768c.03-.14.058-.267.08-.384l.033-.165c.05-.261.074-.466.074-.613 0-.19-.046-.313-.142-.371a.762.762 0 0 0-.345-.077h-.122a.748.748 0 0 1-.228-.017c-.029-.01-.042-.034-.04-.072l.008-.042.057-.26.044-.028.941.025.45.005h2.622l.477-.005 1.015-.025Zm50.723-.161L68.791 8.32a8.41 8.41 0 0 0-.13.61l-.033.223a1.345 1.345 0 0 0-.011.15c.006.077.034.131.083.16.05.03.084.043.106.041.078 0 .18-.076.302-.228.098-.122.218-.285.357-.49l.109-.163.333.231c-.26.458-.534.813-.821 1.064-.29.25-.598.378-.932.382-.24-.011-.406-.084-.495-.223a.73.73 0 0 1-.126-.428c0-.088.01-.211.035-.368.017-.104.04-.22.071-.345l.27-1.006-.044-.028c-.49.758-.939 1.344-1.343 1.762-.407.417-.92.63-1.54.636a.913.913 0 0 1-.69-.269c-.181-.183-.275-.48-.28-.888a3.39 3.39 0 0 1 .091-.75l.053-.217.653-2.47c.047-.177.083-.326.107-.447l.021-.111c.022-.137.032-.238.03-.308-.002-.079-.02-.133-.056-.161a.192.192 0 0 0-.133-.042c-.078 0-.19.069-.333.203a6.438 6.438 0 0 0-.421.443l-.13.148-.317-.245c.263-.363.571-.677.93-.947.36-.27.705-.412 1.04-.427.24.001.4.047.48.138.082.09.12.222.113.397a3.107 3.107 0 0 1-.068.539c-.03.145-.063.298-.102.458l-.686 2.628c-.098.394-.147.706-.144.94.002.235.044.4.126.496.083.096.19.142.322.139.357-.007.736-.264 1.138-.77.352-.442.752-1.041 1.202-1.798l.196-.335.638-2.745.147-.009a9.897 9.897 0 0 0 .939-.121Zm43.114.001a.072.072 0 0 1 .04.007c.01.004.017.015.018.036l-.247.951-.187.767-.656 2.835-.123.593-.037.208a1.317 1.317 0 0 0-.014.136c.007.085.035.141.085.167.05.026.084.038.105.036.098.003.216-.058.354-.182.11-.098.246-.249.406-.451l.124-.162.333.246c-.364.517-.697.873-.999 1.066-.302.196-.607.287-.912.277-.24-.01-.404-.083-.488-.222a.741.741 0 0 1-.12-.428 3.17 3.17 0 0 1 .057-.519c.023-.135.05-.275.082-.419l.787-3.316.038-.208c.016-.091.023-.168.023-.232-.002-.122-.022-.206-.06-.254a.206.206 0 0 0-.097-.067l-.06-.012-.61-.059.043-.346c.522-.078.95-.154 1.286-.225.334-.07.61-.145.83-.223Zm-101.428 0a.077.077 0 0 1 .04.007c.011.004.018.015.018.036l-.245.951-.189.767-.654 2.835-.124.593-.036.208a1.154 1.154 0 0 0-.013.136c.006.085.034.141.083.167.05.026.084.038.105.036.098.003.216-.058.354-.182.112-.098.247-.249.406-.451l.124-.162.333.246c-.365.517-.698.873-1 1.066-.302.196-.606.287-.912.277-.24-.01-.404-.083-.488-.222a.75.75 0 0 1-.12-.428 3.28 3.28 0 0 1 .056-.519l.06-.312.073-.325.71-2.975.048-.234.017-.097a1.5 1.5 0 0 0 .021-.232c0-.122-.02-.206-.059-.254a.206.206 0 0 0-.096-.067l-.062-.012-.608-.059.043-.346c.523-.078.952-.154 1.286-.225.334-.07.61-.145.829-.223Zm76.407.042c.866.032 1.428.294 1.69.78.262.487.379 1.008.353 1.56-.033 1.171-.397 2.148-1.094 2.93-.696.78-1.524 1.187-2.484 1.217-.605-.018-1.053-.176-1.345-.476-.29-.3-.48-.64-.567-1.025a3.984 3.984 0 0 1-.116-.985 4.591 4.591 0 0 1 .385-1.806c.26-.61.652-1.125 1.18-1.541.527-.42 1.192-.636 1.998-.654Zm-51.377 0 .304.005c.137.005.252.012.346.022l.51.06c.147.032.309.048.482.041l.529-.012-1 4.492-.062.318-.031.175a3.212 3.212 0 0 0-.05.388c.004.083.028.14.07.166.043.025.078.037.103.035.073 0 .178-.074.314-.218.108-.115.236-.271.384-.466l.114-.154.333.232a4.15 4.15 0 0 1-.775.928c-.324.295-.684.452-1.08.474-.239-.011-.4-.085-.48-.224a.767.767 0 0 1-.113-.427c0-.087.01-.198.034-.333.016-.09.037-.188.065-.295l.046-.167.231-.75-.029-.03c-.435.656-.863 1.188-1.283 1.595-.42.407-.821.617-1.207.63-.59-.03-.977-.255-1.159-.671a2.867 2.867 0 0 1-.246-1.278 4.603 4.603 0 0 1 .602-2.184c.385-.685.856-1.246 1.414-1.68.557-.433 1.102-.657 1.634-.672Zm10.309 0c.572.01.958.115 1.156.316.199.2.291.432.278.694.022.19-.034.43-.166.718-.133.288-.476.588-1.029.897-.554.31-1.45.59-2.688.842l-.014.258-.001.23c.009.65.128 1.122.356 1.41.229.289.51.43.846.424.337.001.652-.101.945-.305.293-.207.63-.518 1.01-.936.085 0 .151.018.198.056a.448.448 0 0 1 .121.174c-.397.558-.819.981-1.26 1.27-.443.289-.955.434-1.534.437-.724-.015-1.224-.228-1.496-.638-.271-.41-.402-.93-.387-1.558 0-.63.132-1.272.4-1.927a4.15 4.15 0 0 1 1.213-1.657c.543-.451 1.226-.686 2.052-.706Zm54.914 0c.574.01.96.115 1.158.316.198.2.29.432.276.694.022.19-.032.43-.165.718-.132.288-.477.587-1.03.897-.552.31-1.45.59-2.686.842l-.01.16-.003.328c.007.65.128 1.122.356 1.41.227.289.51.43.845.424.337.001.653-.101.946-.305.292-.207.63-.518 1.01-.936.085 0 .15.018.198.056a.447.447 0 0 1 .12.174c-.399.558-.819.981-1.262 1.27-.443.289-.953.434-1.534.437-.725-.015-1.223-.228-1.496-.638-.272-.41-.401-.93-.388-1.558 0-.63.133-1.272.4-1.927a4.163 4.163 0 0 1 1.215-1.657c.541-.451 1.225-.686 2.05-.706ZM5.304.81c1.033.018 1.732.194 2.096.53.363.337.534.722.51 1.16 0 .093-.006.184-.017.272a4.947 4.947 0 0 1-.04.262c-.085.397-.286.765-.6 1.103-.252.27-.53.493-.834.668l-.232.122v.027c.5.156.903.4 1.209.727.305.329.46.755.47 1.28 0 .087-.007.173-.018.262l-.04.273c-.103.655-.46 1.257-1.069 1.808-.61.552-1.595.845-2.958.878l-1.04-.008-.214-.006a26.453 26.453 0 0 0-.73-.016l-.847.01-.921.02L0 10.153l.058-.274a.178.178 0 0 1 .038-.087.087.087 0 0 1 .047-.026l.453-.033c.288-.013.49-.055.604-.13.092-.06.16-.172.206-.34l.03-.136 1.419-7.265.024-.183.005-.077c.002-.125-.046-.212-.145-.26-.08-.037-.2-.063-.363-.078l-.535-.036c-.035-.001-.06-.01-.07-.03l-.014-.03-.003-.041.058-.29.043-.027.92.02c.29.006.567.009.834.009l.434-.004.44-.01c.296-.01.57-.015.821-.015Zm17.959 5.559c-.136-.002-.303.048-.5.15a3.332 3.332 0 0 0-.554.389l-.163.14c-.102.072-.253.254-.451.552-.198.297-.309.714-.331 1.254.003.306.081.546.233.718.15.174.349.26.592.265.43-.014.836-.246 1.217-.697.38-.45.583-1.046.609-1.788-.006-.325-.07-.57-.195-.735-.126-.165-.278-.247-.457-.248ZM87.68 4.29c-.545.017-.97.216-1.274.594a3.295 3.295 0 0 0-.637 1.353 6.198 6.198 0 0 0-.174 1.46c.02.896.16 1.477.418 1.742.26.264.51.382.756.354a1.525 1.525 0 0 0 1.25-.71c.298-.446.507-.944.624-1.495a7.15 7.15 0 0 0 .166-1.156l.002-.179a4.047 4.047 0 0 0-.14-1.327c-.12-.4-.45-.613-.99-.636Zm19.538.026c-.515.006-.997.322-1.445.946-.45.625-.692 1.517-.729 2.68.002.504.094.922.274 1.257.18.334.441.507.783.52.589-.042 1.046-.378 1.371-1.006.324-.629.55-1.302.678-2.017l.074-.447c.076-.485.112-.845.107-1.079-.021-.332-.156-.559-.403-.683a1.527 1.527 0 0 0-.71-.171ZM4.258 5.356h-.955l-.726 3.67a1.02 1.02 0 0 0-.014.202.347.347 0 0 0 .212.355c.149.074.426.108.83.107 1.034-.014 1.756-.202 2.168-.564.412-.364.66-.817.744-1.357l.022-.138.019-.135c.012-.088.017-.175.019-.262.005-.538-.177-.984-.545-1.333-.33-.311-.832-.489-1.51-.534l-.263-.01Zm32.35-1.097c-.452.019-.867.24-1.25.66-.383.42-.69.925-.924 1.515-.234.593-.355 1.152-.361 1.682-.005.41.04.743.133.996.094.252.262.384.504.39.254-.022.604-.28 1.052-.769.448-.487.86-1.07 1.237-1.743.18-.507.31-1.033.39-1.576l.082-.575c.025-.18.037-.281.036-.306a1.89 1.89 0 0 0-.44-.202 1.577 1.577 0 0 0-.46-.072Zm10.077.004-.148-.003c-.358-.028-.724.139-1.099.496-.374.357-.693 1.07-.957 2.133.387-.028.794-.12 1.225-.273a3.007 3.007 0 0 0 1.105-.677c.308-.298.467-.675.482-1.13 0-.206-.06-.351-.183-.432-.098-.065-.24-.103-.425-.114Zm54.915 0-.147-.003c-.358-.028-.725.139-1.099.496s-.694 1.07-.957 2.133c.385-.028.794-.12 1.224-.273.43-.154.8-.38 1.106-.677.306-.298.467-.675.48-1.13.002-.206-.059-.351-.182-.432-.098-.065-.24-.103-.425-.114Zm15.866.071c-.62.023-1.084.18-1.395.47-.31.29-.491.576-.546.858a1.134 1.134 0 0 0-.043.304.873.873 0 0 0 .209.606c.118.138.304.221.558.25l.16.01h1.073l.564-2.425a3.094 3.094 0 0 0-.29-.053 2.153 2.153 0 0 0-.29-.02ZM5.303 1.3l-.356.004c-.378.014-.623.056-.735.128a.521.521 0 0 0-.225.356l-.018.132-.58 2.948h1.03c.589.008 1.091-.116 1.508-.37.417-.255.69-.685.823-1.291a2.11 2.11 0 0 0 .06-.505c-.02-.526-.187-.893-.499-1.102a1.7 1.7 0 0 0-1.008-.3Zm6.217-.072a.606.606 0 0 1 .422.152c.11.101.168.242.171.424a.798.798 0 0 1-.24.56.778.778 0 0 1-.542.235c-.19-.005-.339-.06-.446-.169a.564.564 0 0 1-.162-.408.804.804 0 0 1 .225-.549.774.774 0 0 1 .572-.245Zm101.428 0c.17 0 .31.05.42.152.111.101.168.242.172.424a.793.793 0 0 1-.24.56.775.775 0 0 1-.54.235c-.191-.005-.34-.061-.446-.169a.573.573 0 0 1-.163-.408.808.808 0 0 1 .224-.549.78.78 0 0 1 .573-.245Z"/></svg>