<svg xmlns="http://www.w3.org/2000/svg" viewBox="0 0 96 40"><path d="M6.727 20.836c-.72 0-1.36-.141-1.942-.422-.562-.28-1-.68-1.324-1.191-.32-.512-.48-1.12-.48-1.824 0-.562.117-1.07.347-1.516.23-.461.562-.828.996-1.094.438-.27.961-.406 1.574-.406.68 0 1.22.16 1.633.48.41.32.613.758.614 1.309 0 .203-.02.406-.055.613-.04.203-.105.375-.195.52l-1.305-.117c.027-.079.05-.172.078-.29.023-.129.04-.234.04-.324 0-.28-.079-.492-.231-.636-.156-.141-.367-.211-.633-.211-.398 0-.73.145-1 .425-.258.266-.383.664-.383 1.188 0 .578.195 1.05.594 1.422.398.37 1 .559 1.824.558.883 0 1.53-.227 1.937-.671.41-.45.648-1.04.711-1.79h1.461c.063.86.312 1.49.75 1.883.434.383.945.578 1.535.578.461 0 .844-.09 1.153-.27.32-.18.574-.43.765-.75a3.27 3.27 0 0 0 .403-1.151 7.51 7.51 0 0 0 .136-1.477c0-1.14-.18-2.21-.539-3.227a8.929 8.929 0 0 0-1.476-2.668c-.617-.77-1.32-1.37-2.114-1.804A4.9 4.9 0 0 0 9.125 7.3c-.422 0-.734.094-.942.285a.945.945 0 0 0-.304.71c0 .31.094.552.285.731.207.18.488.27.848.27.46 0 .863-.13 1.207-.383.359-.27.562-.738.613-1.402l1.48.133c-.117.703-.328 1.28-.632 1.726a2.802 2.802 0 0 1-1.133.961 3.36 3.36 0 0 1-1.461.309c-.551 0-1.03-.09-1.438-.27-.41-.18-.727-.44-.941-.785-.219-.359-.328-.797-.328-1.309 0-.434.117-.824.347-1.172.23-.355.551-.637.958-.843.426-.203.922-.305 1.5-.305 1.12 0 2.18.254 3.168.766.984.5 1.85 1.2 2.59 2.093.741.883 1.32 1.91 1.75 3.09.421 1.18.632 2.45.632 3.801 0 .707-.066 1.34-.191 1.902a5.514 5.514 0 0 1-.54 1.442c-.23.41-.511.746-.843 1.015a3.514 3.514 0 0 1-1.113.578c-.41.125-.852.191-1.325.192-.602 0-1.1-.082-1.48-.25a2.86 2.86 0 0 1-1-.73 9.564 9.564 0 0 1-.844-1.192l.598-.074c-.336.613-.691 1.08-1.078 1.402a3.069 3.069 0 0 1-1.246.652 5.745 5.745 0 0 1-1.536.192zM23.57 20.836c-.895 0-1.67-.148-2.324-.441-.641-.297-1.13-.703-1.477-1.23-.348-.536-.52-1.16-.52-1.86 0-.41.067-.797.192-1.153.141-.359.348-.68.617-.96.266-.298.602-.544.996-.75l.27.269-2.496.02v-1.329h9.656v1.329l-2.57-.04.285-.191c.37.141.69.344.96.613.282.27.5.59.653.961.156.355.23.754.23 1.188 0 .707-.163 1.33-.5 1.863-.331.54-.831.961-1.496 1.27-.651.293-1.48.44-2.476.441zm.078-1.496c1.02 0 1.75-.22 2.188-.656.449-.445.672-.984.671-1.61 0-.477-.109-.887-.324-1.23a2.106 2.106 0 0 0-.96-.824c-.423-.195-.95-.29-1.575-.29-.64 0-1.18.102-1.613.31-.422.19-.738.464-.942.823-.203.344-.309.75-.308 1.211 0 .676.238 1.23.71 1.649.474.41 1.19.617 2.153.617zm-.441-5.453-.48-.461a4.39 4.39 0 0 0 1.304-.617c.383-.266.684-.602.902-.996.22-.398.328-.848.328-1.344v-.192c0-.398-.09-.75-.27-1.058a2.014 2.014 0 0 0-.73-.73 2.011 2.011 0 0 0-1.02-.266c-.421 0-.741.09-.956.265a.823.823 0 0 0-.328.692c0 .258.066.457.191.597.13.141.277.234.442.29.18.05.34.074.48.074.602 0 1.07-.121 1.422-.364.344-.242.66-.57.941-.98l.594.863a6.637 6.637 0 0 1-.633.79c-.242.27-.55.5-.922.69-.37.18-.84.27-1.402.27a3.76 3.76 0 0 1-1.265-.21 2.192 2.192 0 0 1-.942-.712c-.242-.32-.363-.723-.363-1.21 0-.653.242-1.2.726-1.653.5-.46 1.18-.69 2.036-.691.719 0 1.33.16 1.824.48.512.32.902.75 1.172 1.29.27.534.402 1.12.402 1.765 0 .676-.133 1.27-.402 1.785-.254.5-.574.922-.961 1.266zM38.434 20.836c-.676 0-1.24-.129-1.687-.383a3.927 3.927 0 0 1-1.114-.98c-.297-.41-.57-.832-.824-1.266-.32-.566-.598-.988-.828-1.27s-.45-.472-.652-.574a1.373 1.373 0 0 0-.672-.156c-.434 0-.773.141-1.02.422-.227.27-.344.648-.344 1.133 0 .41.09.832.27 1.27.18.421.414.84.71 1.245l-1.5.598a5.727 5.727 0 0 1-.726-1.422 4.914 4.914 0 0 1-.289-1.652c0-.586.13-1.11.383-1.574a2.81 2.81 0 0 1 1.04-1.075c.433-.27.917-.402 1.456-.402.54 0 .992.082 1.363.25.371.164.7.414.98.746.294.336.587.758.884 1.27.293.5.562.922.804 1.265.258.348.531.61.829.79.293.163.652.25 1.074.25.64 0 1.11-.23 1.422-.692.305-.461.46-1.04.46-1.75 0-.574-.116-1.16-.347-1.766-.23-.602-.652-1.25-1.266-1.937l1.305-.922a7.501 7.501 0 0 1 1.383 2.074c.332.727.5 1.52.5 2.38 0 1.3-.316 2.32-.942 3.054-.629.715-1.51 1.07-2.652 1.074zm-2.723-6.277c-.309 0-.57-.11-.789-.328s-.328-.484-.328-.805c0-.32.11-.59.328-.809s.48-.324.79-.324c.315 0 .581.105.784.324.22.22.328.488.329.809 0 .32-.11.586-.329.805a1.029 1.029 0 0 1-.785.328zm-5.953-3.055v-1.477h7.602c.87 0 1.49-.05 1.863-.156.383-.113.664-.266.844-.46a1.36 1.36 0 0 0 .308-.595c.063-.23.094-.469.094-.71 0-.54-.164-.953-.496-1.247-.336-.309-.762-.46-1.289-.46-.496 0-.922.14-1.266.421-.332.281-.5.605-.5.977v.215c0 .062.008.125.02.191l-.555-.808c.125-.024.246-.043.364-.055.113-.027.219-.04.308-.04.316 0 .566.075.746.231.18.141.27.336.27.594 0 .293-.102.523-.309.691-.19.152-.445.23-.765.23-.461 0-.793-.151-1-.46a2.024 2.024 0 0 1-.29-1.055c0-.398.117-.78.348-1.152.242-.387.59-.699 1.035-.941.461-.242 1.03-.363 1.692-.364.68 0 1.25.141 1.726.422a2.67 2.67 0 0 1 1.114 1.133c.27.484.406 1.05.406 1.687 0 .473-.078.902-.23 1.29a2.531 2.531 0 0 1-.672.996c-.23.219-.516.398-.848.539a5.493 5.493 0 0 1-1.133.285c-.422.055-.895.078-1.418.078z"/><path d="M44.504 20.836c-.832 0-1.57-.223-2.21-.672a8.838 8.838 0 0 1-1.806-1.726l.98-1.06c.524.669 1.02 1.16 1.477 1.481a2.83 2.83 0 0 0 1.56.461c.573 0 .983-.156 1.226-.46.258-.32.383-.739.382-1.25 0-.485-.011-.896-.035-1.227-.027-.348-.05-.672-.078-.98s-.039-.649-.039-1.02c0-.957.207-1.78.613-2.457a4.188 4.188 0 0 1 1.711-1.574c.73-.371 1.56-.555 2.496-.555.945 0 1.77.164 2.457.496.703.32 1.29.77 1.747 1.348.46.562.809 1.22 1.039 1.976.23.754.344 1.56.343 2.418 0 1.01-.16 1.88-.48 2.594-.32.715-.781 1.27-1.383 1.649-.602.37-1.33.559-2.187.558-.715 0-1.32-.137-1.825-.402a2.931 2.931 0 0 1-1.113-1.114 3.385 3.385 0 0 1-.363-1.558c0-.562.094-1.03.285-1.399.195-.37.449-.648.77-.828a2.12 2.12 0 0 1 1.074-.285c.477 0 .832.121 1.078.363.254.23.383.54.383.922 0 .36-.102.645-.309.864a.948.948 0 0 1-.75.328c-.344 0-.613-.098-.805-.29-.18-.19-.27-.48-.27-.863l.157-.039c-.09.191-.156.371-.195.54a3.98 3.98 0 0 0-.035.554c0 .461.14.88.421 1.25.293.355.793.535 1.497.535.512 0 .953-.129 1.324-.383.37-.258.652-.633.847-1.132.203-.5.305-1.11.305-1.825 0-.844-.14-1.62-.422-2.343-.28-.727-.715-1.32-1.304-1.766-.578-.449-1.32-.672-2.247-.672-.68 0-1.27.13-1.765.383a2.71 2.71 0 0 0-1.133 1.113c-.258.488-.387 1.08-.387 1.79 0 .405.012.765.04 1.074.027.293.05.594.077.902.024.293.04.652.04 1.074 0 .77-.156 1.39-.461 1.863a2.768 2.768 0 0 1-1.192 1.016c-.488.219-1 .328-1.535.328zM64.434 12.348c0 .551-.129 1.05-.383 1.5a2.707 2.707 0 0 1-1.133 1.035c-.5.258-1.11.383-1.843.383-.72 0-1.32-.145-1.805-.441-.473-.305-.84-.613-1.094-.918l.48-1.27c.114.152.267.332.461.54.203.202.453.382.747.534.309.141.668.211 1.074.211.68 0 1.17-.14 1.48-.422a1.44 1.44 0 0 0 .461-1.093c0-.41-.109-.723-.328-.942-.215-.215-.55-.324-.996-.324-.387 0-.75.113-1.094.344-.336.23-.609.578-.828 1.039-.215.445-.324.996-.324 1.648v.211c0 .848.16 1.58.48 2.211.332.613.777 1.15 1.344 1.613a9.52 9.52 0 0 0 1.977 1.168l-.824 1.461a10.07 10.07 0 0 1-2.325-1.535 6.732 6.732 0 0 1-1.593-2.133c-.383-.805-.578-1.73-.579-2.765 0-.945.168-1.76.5-2.438.332-.69.79-1.22 1.364-1.594.578-.383 1.23-.574 1.976-.574.602 0 1.11.11 1.52.324.422.22.742.52.957.903.219.37.328.812.328 1.324zM74.211 20.836c-.68 0-1.24-.129-1.691-.383a3.927 3.927 0 0 1-1.114-.98c-.293-.41-.57-.832-.824-1.266-.32-.566-.594-.988-.824-1.27-.23-.28-.45-.472-.656-.574a1.373 1.373 0 0 0-.672-.156c-.434 0-.773.141-1.016.422-.23.27-.348.648-.348 1.133 0 .41.09.832.27 1.27.18.421.418.84.711 1.245l-1.496.598a5.599 5.599 0 0 1-.73-1.422 5.015 5.015 0 0 1-.29-1.652c0-.586.13-1.11.387-1.574a2.8 2.8 0 0 1 1.035-1.075c.434-.27.922-.402 1.457-.402.54 0 .992.082 1.364.25.37.164.699.414.98.746.297.336.59.758.883 1.27.297.5.562.922.808 1.265.254.348.531.61.825.79.293.163.652.25 1.074.25.64 0 1.11-.23 1.422-.692.309-.461.46-1.04.46-1.75 0-.574-.116-1.16-.343-1.766-.23-.602-.656-1.25-1.27-1.937l1.305-.922a7.501 7.501 0 0 1 1.383 2.074c.332.727.5 1.52.5 2.38 0 1.3-.312 2.32-.941 3.054-.625.715-1.51 1.07-2.649 1.074zm-2.727-6.277c-.309 0-.57-.11-.789-.328a1.102 1.102 0 0 1-.324-.805c0-.32.11-.59.324-.809a1.07 1.07 0 0 1 .79-.324c.32 0 .581.105.785.324.219.22.328.488.328.809 0 .32-.11.586-.328.805a1.023 1.023 0 0 1-.786.328zm-5.953-3.055v-1.477h10.156v1.477zm15.938 3.437c-.898 0-1.61-.293-2.152-.882-.535-.59-.805-1.42-.805-2.496v-.153c0-.898.16-1.65.48-2.265a3.408 3.408 0 0 1 1.364-1.403c.586-.332 1.27-.5 2.055-.5.496 0 .94.059 1.324.172.395.117.734.258 1.016.422l-.825 1.211a3.415 3.415 0 0 0-.843-.328 3.188 3.188 0 0 0-.848-.113c-.406 0-.793.09-1.148.27-.348.163-.621.452-.829.862-.203.41-.305.973-.304 1.688v.215c0 .602.125 1.09.383 1.457.27.359.66.539 1.171.539.32 0 .582-.07.786-.211.219-.156.328-.418.328-.79a.99.99 0 0 0-.098-.46.98.98 0 0 0-.25-.344 1.146 1.146 0 0 0-.535-.25 3.81 3.81 0 0 0-.867-.078h-5.489v-1.477h5.278c.602 0 1.12.059 1.558.172.445.102.816.293 1.114.578.242.203.426.465.554.786.13.309.191.652.192 1.035 0 .78-.25 1.37-.746 1.77-.488.382-1.11.573-1.864.573zM95.148 11.504h-5.242c-.754 0-1.31.02-1.672.059-.355.039-.672.145-.938.324-.18.117-.32.27-.425.46-.09.196-.133.419-.133.673 0 .32.058.57.172.75.129.18.297.332.5.46.219.13.492.22.824.27.336.04.8.059 1.402.059h2.207v1.476h-1.84c-.477 0-.852.008-1.132.02a3.73 3.73 0 0 0-.657.074 2.712 2.712 0 0 0-.441.117 1.595 1.595 0 0 0-.652.5c-.152.203-.23.465-.23.785 0 .41.104.73.308.961.203.22.473.371.804.461.348.09.72.133 1.114.133h.195v1.52h-.289c-.512 0-1-.055-1.46-.157a3.63 3.63 0 0 1-1.173-.515 2.415 2.415 0 0 1-.785-.907c-.191-.37-.289-.816-.29-1.343 0-.355.052-.676.157-.957.113-.297.281-.56.496-.79.23-.241.52-.452.867-.632l.094.152a3.648 3.648 0 0 1-1.265-1.015c-.332-.438-.5-.988-.5-1.653 0-.359.078-.699.23-1.015.152-.336.352-.61.594-.829.28-.242.59-.43.922-.554a4.78 4.78 0 0 1 1.21-.27c.474-.066 1.05-.097 1.747-.097h5.28zM7 33.648c-.387 0-.723-.082-.996-.246-.27-.176-.516-.461-.738-.867h.297c-.148.289-.312.516-.493.672-.172.16-.37.273-.593.336-.22.07-.473.105-.766.105-.36 0-.66-.066-.902-.2a1.433 1.433 0 0 1-.551-.538 1.452 1.452 0 0 1-.172-.68c0-.277.05-.512.156-.71.105-.2.262-.384.457-.548.2-.172.438-.348.711-.52.246-.16.441-.308.586-.449a.692.692 0 0 0 .223-.52.736.736 0 0 0-.078-.347.497.497 0 0 0-.25-.23 1.085 1.085 0 0 0-.45-.074c-.277 0-.477.058-.605.18a.604.604 0 0 0-.191.472.96.96 0 0 0 .046.297c.032.09.079.18.145.27l-.672.296a2.117 2.117 0 0 1-.23-.469 1.694 1.694 0 0 1-.067-.48c0-.227.055-.434.172-.625.113-.191.29-.348.52-.46.234-.122.53-.185.89-.185.398 0 .707.07.934.211.223.137.379.305.469.512.097.203.145.41.144.621 0 .23-.05.441-.152.625-.098.18-.238.348-.426.508a5.23 5.23 0 0 1-.652.492 4.763 4.763 0 0 0-.672.508.787.787 0 0 0-.219.574c0 .25.082.434.25.547.164.11.375.164.633.164.43 0 .746-.109.949-.336.207-.223.32-.52.348-.89h.726c.035.426.164.742.395.941.238.191.512.285.824.285.355 0 .602-.086.75-.258a.927.927 0 0 0 .23-.613 1.4 1.4 0 0 0-.113-.558 1.613 1.613 0 0 0-.3-.489l.683-.441c.168.21.293.434.383.672.09.234.137.5.137.797 0 .324-.067.613-.192.863a1.342 1.342 0 0 1-.578.574c-.254.141-.59.211-1 .211zM11.66 33.648c-.453 0-.852-.094-1.187-.285a1.94 1.94 0 0 1-.778-.836c-.188-.363-.28-.805-.281-1.324 0-.488.09-.914.27-1.285.187-.375.448-.66.788-.868.344-.21.758-.316 1.239-.316.523 0 .953.109 1.285.328.332.215.578.512.738.883.168.363.25.78.25 1.246 0 .477-.09.898-.27 1.27-.18.37-.44.66-.784.87-.34.212-.762.32-1.27.32zm.02-.719c.53 0 .918-.164 1.152-.488.242-.328.367-.738.367-1.238 0-.54-.129-.965-.387-1.278-.254-.312-.62-.469-1.093-.468-.36 0-.648.074-.875.226a1.272 1.272 0 0 0-.489.617 2.34 2.34 0 0 0-.152.871c0 .547.129.973.383 1.29.262.312.629.469 1.093.468zM16.422 33.648c-.5 0-.902-.184-1.21-.555-.31-.37-.462-.93-.462-1.672 0-.395.055-.762.164-1.093.113-.332.285-.625.508-.871.227-.258.496-.457.816-.598l.145.125H14.75v-.738h4.512c.34 0 .582-.016.723-.047a.878.878 0 0 0 .316-.125.456.456 0 0 0 .172-.215.935.935 0 0 0 .039-.258c0-.21-.05-.414-.156-.613a2.41 2.41 0 0 0-.47-.625l.626-.414c.3.336.504.637.613.902a2.1 2.1 0 0 1 .164.809c0 .12-.027.273-.078.449a.993.993 0 0 1-.316.473 1.18 1.18 0 0 1-.239.164 1.86 1.86 0 0 1-.308.132 3.07 3.07 0 0 1-.403.079l.008-.06c.277.149.512.345.711.595.2.25.352.539.461.867.11.324.164.68.164 1.062 0 .742-.156 1.3-.472 1.672-.305.371-.72.56-1.239.559a2.01 2.01 0 0 1-.718-.117 1.432 1.432 0 0 1-.54-.344 3.184 3.184 0 0 1-.46-.656l.308-.047c-.148.328-.312.574-.5.738a1.36 1.36 0 0 1-.586.336c-.21.059-.43.09-.66.09zm.105-.758c.32 0 .578-.109.778-.336.199-.223.312-.52.344-.89h.73c.031.43.16.742.383.941.23.191.48.285.742.285.305 0 .551-.109.727-.324.18-.219.27-.59.27-1.113 0-.336-.052-.652-.153-.953-.098-.301-.242-.566-.442-.797s-.449-.406-.75-.535c-.293-.137-.64-.203-1.035-.204h-.164c-.398 0-.746.063-1.047.184a2.036 2.036 0 0 0-.758.516 2.257 2.257 0 0 0-.46.789 2.982 2.982 0 0 0-.153.98c0 .523.086.898.258 1.121.172.227.418.336.73.336z"/><path d="M22.812 33.648c-.488 0-.914-.121-1.277-.363a4.344 4.344 0 0 1-.98-.93l.488-.52c.27.34.543.602.816.79.28.176.609.266.98.265.383 0 .684-.125.895-.375.21-.246.316-.582.316-.996 0-.449-.082-.844-.242-1.18a2.6 2.6 0 0 0-.66-.875 3.616 3.616 0 0 0-.98-.613l.414-.742c.434.215.82.48 1.16.797.34.32.605.695.797 1.125.199.43.297.91.297 1.441 0 .414-.075.79-.22 1.121a1.755 1.755 0 0 1-.671.778c-.301.188-.68.277-1.133.277zM30.109 33.648c-.355 0-.68-.07-.969-.21a1.6 1.6 0 0 1-.66-.595 1.679 1.679 0 0 1-.242-.91c0-.28.059-.535.172-.762.117-.23.28-.41.5-.546.219-.133.48-.2.789-.2.34 0 .609.078.816.239.203.16.305.379.305.652 0 .105-.008.207-.027.309s-.051.188-.098.257l-.652-.054c.011-.04.027-.086.039-.145a1.02 1.02 0 0 0 .02-.164c0-.14-.04-.246-.118-.316-.074-.07-.18-.105-.316-.106a.66.66 0 0 0-.496.211c-.137.133-.203.332-.204.594 0 .289.098.527.297.71.207.189.512.278.922.278.441 0 .766-.109.969-.336.207-.223.324-.52.355-.89h.73c.032.43.157.742.376.941.223.191.488.285.797.285.359 0 .605-.113.75-.344.14-.238.21-.52.21-.843 0-.38-.07-.727-.202-1.04a2.812 2.812 0 0 0-.52-.843 2.816 2.816 0 0 0-.719-.586 2.263 2.263 0 0 0-.789-.277l1.469-.06c.328.204.605.45.836.731s.406.59.527.93c.125.332.184.691.184 1.074 0 .461-.078.844-.238 1.145a1.576 1.576 0 0 1-.618.66 1.676 1.676 0 0 1-.824.21c-.328 0-.594-.038-.797-.12a1.413 1.413 0 0 1-.52-.367 4.845 4.845 0 0 1-.421-.594l.297-.04a2.312 2.312 0 0 1-.535.7c-.188.16-.395.27-.625.328a2.86 2.86 0 0 1-.77.094zm-1.871-4.664v-.738h4.898c.344 0 .586-.016.727-.047a.831.831 0 0 0 .308-.125.438.438 0 0 0 .172-.215.809.809 0 0 0 .04-.258c0-.21-.051-.414-.153-.613a2.506 2.506 0 0 0-.473-.625l.625-.414c.301.336.504.637.614.902a2.1 2.1 0 0 1 .164.809c0 .12-.024.27-.078.449a.891.891 0 0 1-.317.473 1.45 1.45 0 0 1-.574.304c-.219.067-.512.098-.883.098zm8.418 4.664c-.484 0-.91-.121-1.273-.363a4.344 4.344 0 0 1-.981-.93l.488-.52c.27.34.543.602.817.79.28.176.609.266.98.265.383 0 .68-.125.89-.375.212-.246.317-.582.317-.996 0-.449-.078-.844-.238-1.18a2.561 2.561 0 0 0-.664-.875 3.593 3.593 0 0 0-.977-.613l.41-.742c.438.215.824.48 1.165.797.34.32.605.695.796 1.125.2.43.297.91.297 1.441 0 .414-.074.79-.222 1.121a1.736 1.736 0 0 1-.672.778c-.301.188-.676.277-1.133.277z"/><path d="M40.156 33.648c-.488 0-.914-.121-1.277-.363a4.344 4.344 0 0 1-.98-.93l.488-.52c.27.34.543.602.816.79.28.176.609.266.98.265.383 0 .684-.125.895-.375.21-.246.316-.582.316-.996 0-.449-.082-.844-.242-1.18a2.6 2.6 0 0 0-.66-.875 3.616 3.616 0 0 0-.98-.613l.414-.742c.434.215.82.48 1.16.797.34.32.605.695.797 1.125.199.43.297.91.297 1.441 0 .414-.075.79-.22 1.121a1.755 1.755 0 0 1-.671.778c-.301.188-.68.277-1.133.277zM45.246 33.648c-.449 0-.836-.07-1.164-.219a1.748 1.748 0 0 1-.738-.613 1.7 1.7 0 0 1-.258-.934c0-.203.031-.395.094-.574.07-.18.176-.34.308-.48.137-.148.301-.273.5-.375l.133.133-1.246.011v-.664h1.996a.575.575 0 0 0 .172-.191.521.521 0 0 0 .078-.278.754.754 0 0 0-.047-.261.857.857 0 0 0-.117-.23l.433-.114.336.113c.051.086.09.172.114.262a.816.816 0 0 1 0 .508.65.65 0 0 1-.086.191h1.949v.664l-1.285-.02.144-.093c.184.07.344.172.477.305a1.459 1.459 0 0 1 .441 1.074c0 .355-.082.664-.246.933-.168.27-.418.48-.75.633-.328.148-.738.223-1.238.223zm.04-.746c.511 0 .874-.11 1.093-.328a1.1 1.1 0 0 0 .336-.805c0-.238-.055-.44-.164-.613-.11-.18-.27-.32-.48-.414-.212-.098-.474-.145-.786-.145-.32 0-.59.051-.808.153a.997.997 0 0 0-.47.414 1.17 1.17 0 0 0-.152.605c0 .34.117.613.352.824.238.207.598.31 1.078.309zm-2.411-3.918v-.738h2.86c.347 0 .59-.016.73-.047a.862.862 0 0 0 .308-.125.451.451 0 0 0 .16-.215.645.645 0 0 0 .051-.258c0-.21-.05-.414-.156-.613a2.41 2.41 0 0 0-.469-.625l.625-.414c.301.336.504.637.614.902a2.1 2.1 0 0 1 .164.809c0 .12-.028.27-.079.449a.891.891 0 0 1-.316.473 1.45 1.45 0 0 1-.574.304c-.22.067-.516.098-.887.098zM49.012 35.207c0 .242-.043.434-.125.574a1.15 1.15 0 0 1-.328.383c-.18.141-.395.234-.652.281-.262.051-.594.074-.997.074h-3.16v-.718h3.09l-.258.172a2.443 2.443 0 0 1-.113-.336 1.386 1.386 0 0 1-.059-.442c0-.184.043-.367.133-.547.09-.18.234-.328.434-.449.19-.117.438-.176.738-.176.422 0 .742.117.961.348.223.23.336.508.336.836zm-1.922.105c0 .121.023.238.067.356.039.12.097.234.175.344l-.336-.211h.43c.281 0 .496-.043.645-.133.152-.086.23-.238.23-.461a.524.524 0 0 0-.152-.367c-.105-.11-.246-.164-.434-.164a.592.592 0 0 0-.453.176.647.647 0 0 0-.172.46zM54.547 28.965a1.25 1.25 0 0 0-.723.203 1.633 1.633 0 0 0-.496.52 3.205 3.205 0 0 0-.336.738 3.26 3.26 0 0 0-.125.535 7.095 7.095 0 0 0-.078.672c-.012.25-.02.531-.02.848v1.054h-.874v-1.218c0-.508.039-.984.117-1.43.082-.45.227-.848.43-1.2.207-.354.496-.636.875-.847l.164.144h-1.614v-.738h3.254c.348 0 .59-.015.73-.047a.945.945 0 0 0 .317-.125.489.489 0 0 0 .164-.215.719.719 0 0 0 .047-.257c0-.211-.05-.414-.152-.614a2.435 2.435 0 0 0-.473-.625l.625-.414c.301.336.508.637.613.903a2.1 2.1 0 0 1 .164.808c0 .25-.058.465-.172.653-.117.188-.273.332-.468.441s-.418.176-.676.203l.059-.039c.367.27.637.582.816.941.18.352.297.734.355 1.153.059.406.086.832.086 1.273v1.25h-.87V32.48c0-.32-.012-.613-.032-.875a7.08 7.08 0 0 0-.086-.73 2.343 2.343 0 0 0-.144-.566c-.152-.414-.344-.742-.575-.977-.227-.246-.527-.367-.902-.367z"/><path d="M58.859 34.082c0 .52-.137.949-.41 1.285-.27.34-.645.594-1.125.762-.48.164-1.04.246-1.68.246a7.394 7.394 0 0 1-1.586-.2l.196-.663c.21.05.43.094.66.125.23.03.473.05.73.05.84 0 1.46-.151 1.852-.453.398-.293.598-.684.597-1.172 0-.223-.035-.422-.105-.593a2.287 2.287 0 0 0-.262-.508l.664-.356c.184.254.31.512.375.766.063.258.094.492.094.711zM61.348 33.648c-.453 0-.852-.094-1.187-.285a1.94 1.94 0 0 1-.778-.836c-.188-.363-.28-.805-.281-1.324 0-.488.09-.914.27-1.285.187-.375.448-.66.788-.868.345-.21.759-.316 1.239-.316.523 0 .953.109 1.285.328.332.215.578.512.738.883.168.363.25.78.25 1.246 0 .477-.09.898-.27 1.27-.18.37-.44.66-.784.87-.34.212-.762.32-1.27.32zm.02-.719c.53 0 .918-.164 1.152-.488.242-.328.367-.738.367-1.238 0-.54-.129-.965-.387-1.278-.254-.312-.62-.469-1.093-.468-.36 0-.648.074-.875.226a1.272 1.272 0 0 0-.489.617 2.34 2.34 0 0 0-.152.871c0 .547.129.973.383 1.29.262.312.629.469 1.093.468zM66.109 33.648c-.5 0-.902-.184-1.21-.555-.31-.37-.462-.93-.462-1.672 0-.395.055-.762.164-1.093.113-.332.285-.625.508-.871.227-.258.496-.457.816-.598l.145.125h-1.633v-.738h5.5v.738h-.422l.117-.067c.273.148.512.344.711.586.203.242.36.527.47.856.108.316.163.672.163 1.062 0 .742-.156 1.3-.472 1.672-.305.371-.72.56-1.239.559a2.01 2.01 0 0 1-.718-.117 1.432 1.432 0 0 1-.54-.344 3.184 3.184 0 0 1-.46-.656l.308-.047c-.148.328-.312.574-.5.738a1.36 1.36 0 0 1-.586.336c-.21.059-.43.09-.66.09zm.105-.758c.32 0 .57-.105.758-.316a1.6 1.6 0 0 0 .364-.805h.73c.066.391.203.676.414.856.211.176.45.266.711.265.305 0 .551-.109.727-.324.18-.219.27-.59.27-1.113 0-.336-.052-.652-.153-.953-.098-.301-.242-.566-.442-.797s-.449-.406-.75-.535c-.293-.137-.64-.203-1.035-.204h-.164c-.398 0-.746.063-1.047.184a2 2 0 0 0-.758.52 2.11 2.11 0 0 0-.46.777 3.027 3.027 0 0 0-.153.976c0 .531.086.91.258 1.133.172.227.418.336.73.336zm1.489-1.726c-.156 0-.285-.055-.395-.164s-.164-.242-.164-.403.055-.293.164-.402a.534.534 0 0 1 .395-.164c.16 0 .289.054.394.164.105.109.16.242.16.402a.557.557 0 0 1-.554.567zm-.442 3.753.075-1.527h.742l.074 1.527z"/><path d="M75.293 31.223c0 .512-.082.949-.242 1.313a1.728 1.728 0 0 1-.692.835c-.3.188-.668.277-1.101.278-.352 0-.652-.067-.903-.2a1.476 1.476 0 0 1-.558-.558c-.121-.234-.18-.496-.18-.777s.047-.516.14-.7a.974.974 0 0 1 .388-.414c.164-.093.344-.145.535-.144.238 0 .418.062.539.183.129.113.19.27.191.461 0 .18-.05.324-.152.434a.493.493 0 0 1-.375.16c-.172 0-.31-.047-.403-.14-.09-.098-.137-.243-.136-.434l.078-.02a1.654 1.654 0 0 0-.098.27 2.015 2.015 0 0 0-.015.277c0 .23.07.441.21.625.146.18.396.27.747.27.258 0 .477-.063.652-.184.188-.125.332-.32.434-.574.102-.258.152-.578.152-.961 0-.359-.043-.672-.133-.941s-.223-.496-.402-.68c-.13-.141-.273-.258-.434-.348s-.363-.156-.613-.199c-.25-.047-.57-.07-.961-.07h-2.977v-.739h3.16c.43 0 .798.032 1.102.098.31.063.57.164.79.297.222.129.417.289.585.48.22.234.383.535.5.891.113.352.172.758.172 1.211zM79.297 33.648c-.691 0-1.28-.129-1.766-.39a2.743 2.743 0 0 1-1.105-1.087c-.25-.469-.375-1-.375-1.593 0-.504.082-.941.242-1.305.168-.367.398-.648.691-.844a1.832 1.832 0 0 1 1.036-.3c.289 0 .535.05.742.156.203.102.359.25.469.441.109.191.164.422.164.692 0 .273-.067.52-.192.738s-.309.39-.558.52c-.242.124-.547.19-.91.19a1.801 1.801 0 0 1-.73-.144 4.225 4.225 0 0 1-.27-.152l.097-.684c.063.047.137.094.219.145.09.043.188.082.289.113.102.035.215.05.336.05.34 0 .586-.07.738-.21a.74.74 0 0 0 .23-.547c0-.207-.058-.363-.171-.473a.635.635 0 0 0-.453-.164c-.211 0-.41.059-.594.176-.188.113-.336.301-.453.567-.113.262-.172.613-.172 1.054 0 .414.098.797.289 1.14a2.1 2.1 0 0 0 .844.829c.379.203.844.305 1.394.305.535 0 .988-.078 1.364-.239.375-.16.66-.39.851-.691.2-.31.297-.676.297-1.106 0-.453-.125-.844-.383-1.168-.254-.336-.602-.617-1.035-.847l.441-.711c.555.3.988.676 1.297 1.125.312.449.47.98.469 1.601 0 .512-.117.984-.348 1.415-.223.422-.582.762-1.074 1.015-.484.258-1.12.383-1.91.383zM85.949 33.648c-.477 0-.875-.082-1.203-.246a2.282 2.282 0 0 1-.793-.664 2.94 2.94 0 0 1-.445-.902 3.838 3.838 0 0 1-.133-.981c0-.516.105-.98.316-1.39.211-.415.508-.743.895-.981.383-.234.832-.355 1.344-.355.48 0 .883.09 1.207.261.328.164.59.387.789.66.199.277.34.578.421.903.09.32.137.633.137.933 0 .543-.109 1.02-.32 1.438a2.415 2.415 0 0 1-.883.98c-.375.23-.82.344-1.332.344zm-.02-.758c.36 0 .668-.074.93-.23.262-.16.47-.391.613-.692.148-.305.223-.676.223-1.113 0-.391-.066-.73-.203-1.027a1.581 1.581 0 0 0-.594-.692c-.262-.164-.59-.246-.98-.246-.332 0-.633.07-.903.219a1.546 1.546 0 0 0-.62.664c-.157.293-.23.66-.231 1.102 0 .438.07.805.21 1.105s.34.527.606.68c.266.156.582.23.95.23zm3.985.758c-.488 0-.914-.121-1.277-.363a4.344 4.344 0 0 1-.98-.93l.5-.52c.261.34.534.602.816.79.28.176.598.266.949.265.398 0 .703-.125.914-.375.21-.246.316-.582.316-.996 0-.422-.086-.805-.25-1.144a2.482 2.482 0 0 0-.691-.883 2.829 2.829 0 0 0-1.04-.535l1.329-.04c.305.192.566.415.777.66.215.247.38.524.488.837.117.316.172.668.172 1.058 0 .254-.035.512-.105.778a2.01 2.01 0 0 1-.324.699 1.64 1.64 0 0 1-.625.508c-.262.129-.586.19-.97.191zm3.523 0c-.488 0-.914-.121-1.277-.363a4.587 4.587 0 0 1-.98-.93l.488-.52c.27.34.547.602.828.79.28.176.605.266.969.265.383 0 .684-.125.894-.375.211-.246.316-.582.317-.996 0-.449-.082-.844-.243-1.18a2.6 2.6 0 0 0-.66-.875 3.616 3.616 0 0 0-.98-.613l.414-.742c.434.215.82.48 1.16.797.34.32.605.695.797 1.125.199.43.297.91.297 1.441 0 .414-.074.79-.219 1.121a1.755 1.755 0 0 1-.672.778c-.297.188-.672.277-1.133.277zm-1.586-5.988c0 .12-.023.273-.074.449a.923.923 0 0 1-.32.473c-.16.14-.352.242-.574.308-.22.063-.512.094-.883.094h-1.25v-.738h1.078c.344 0 .586-.016.726-.051a.773.773 0 0 0 .31-.121.489.489 0 0 0 .163-.215.719.719 0 0 0 .047-.258c0-.21-.05-.414-.152-.613a2.435 2.435 0 0 0-.473-.625l.625-.414c.301.336.508.637.613.902a2.1 2.1 0 0 1 .164.809z"/></svg>