<?xml version="1.0" encoding="UTF-8"?>
<svg width="120px" height="17px" viewBox="0 0 120 17" version="1.1" xmlns="http://www.w3.org/2000/svg" xmlns:xlink="http://www.w3.org/1999/xlink">
    <title>wikipedia-wordmark-atj</title>
    <g id="Page-1" stroke="none" stroke-width="1" fill="none" fill-rule="evenodd">
        <path d="M16.9975399,0.000911754422 C17.0606911,0.00100541137 17.1227852,0.00110372998 17.1836112,0.00120543889 L17.5316611,0.001846205 C17.5865704,0.00195638965 17.6397894,0.00206742187 17.6911071,0.00217803031 L17.9745098,0.00282642458 C18.0173783,0.00293025242 18.0579234,0.00303111376 18.095934,0.00312773722 L18.3639024,0.00384859909 C18.3848071,0.00390835307 18.4025443,0.0039600551 18.4169029,0.00400243381 L18.4608228,0.00413465539 L18.5147801,0.0571616108 L18.5147801,0.518589152 C18.5147801,0.6479005 18.4422169,0.709300132 18.301742,0.709300132 C17.6077401,0.741860543 17.4644743,0.808841961 17.2105031,1.17630946 C17.072819,1.37353252 16.7993116,1.80239965 16.5155709,2.28429374 L14.0800521,6.83903011 C14.0800521,6.83903011 14.0562522,6.88877068 14.0120577,6.98095151 L16.988162,13.0701625 L17.1677094,13.1194683 L21.8564086,1.99218033 C22.0201409,1.54377696 21.9940926,1.22561522 21.7847757,1.03862543 C21.5745285,0.859078024 21.4266112,0.748372625 20.8833174,0.726045486 L20.4432867,0.70650924 C20.3883992,0.70650924 20.3381631,0.686972993 20.2888574,0.6479005 C20.2404819,0.613479493 20.2153639,0.567894918 20.2153639,0.513007367 L20.2153639,0.0497192311 L20.2823453,0.00227406046 L25.5785287,0.00227406046 L25.6334163,0.0497192311 L25.6334163,0.513007367 C25.6334163,0.638597525 25.5617834,0.701857752 25.4203782,0.701857752 C24.7263763,0.732557569 24.2119218,0.883265758 23.8788753,1.15212172 C23.5458288,1.42283829 23.2844152,1.79309668 23.0974254,2.28057255 C23.0974254,2.28057255 21.6301719,5.63800317 20.1145903,9.08752624 L19.8545676,9.67916591 C19.8112398,9.77771978 19.7679388,9.87619651 19.7246976,9.97451994 L19.4662332,10.5620116 C18.6088435,12.5101234 17.8018621,14.3359873 17.3100449,15.4303272 C16.7453543,16.505751 16.1899667,16.4071395 15.7015606,15.3996274 C15.3064415,14.5858744 14.6365136,13.1383147 13.9602219,11.6617726 L13.7349239,11.1693481 C13.4409066,10.5260615 13.1513491,9.89003961 12.8884966,9.31140237 C12.5697803,9.96871938 12.2134066,10.7010395 11.853868,11.4341387 L11.6119175,11.9265788 C11.410542,12.3356551 11.2106006,12.7397693 11.0181651,13.1259041 L10.7912339,13.5798028 C10.4203154,14.3191401 10.0891354,14.9657327 9.84626834,15.4154424 C9.18761774,16.5597083 8.64618462,16.4099304 8.2135963,15.4442816 C6.71488709,11.908221 3.63746308,5.69941572 2.18898993,2.22010321 C1.92106426,1.57819796 1.71918971,1.16793678 1.52847873,1.00420443 C1.33683745,0.844193264 0.93867014,0.745581733 0.333046492,0.713021322 C0.110705398,0.686972993 -8.2600593e-13,0.634876335 -8.2600593e-13,0.547428374 L-8.2600593e-13,0.0627433955 L0.0548875503,0.0143679275 C0.0847416416,0.0141987825 0.118073456,0.0140398887 0.15464481,0.0138907802 L0.411041904,0.0131098242 C0.459618669,0.0129979928 0.510958601,0.0128950147 0.564823515,0.012800424 L1.31715777,0.0120381066 C1.38741157,0.0120031593 1.45923762,0.0119747355 1.53239772,0.0119523692 L2.45910975,0.0119449138 C2.53913133,0.0119635524 2.61953422,0.0119863846 2.70008024,0.0120129446 L4.33088905,0.0129588518 C4.4017678,0.0130147675 4.47112237,0.0130711492 4.53871459,0.0131275309 L5.39064814,0.0139150103 C5.43466218,0.0139597429 5.47572294,0.0140021456 5.51359224,0.0140417526 L5.81249855,0.0143679275 L5.8673861,0.0627433955 L5.8673861,0.52324064 C5.8673861,0.651621689 5.78645022,0.712091024 5.62736935,0.712091024 L5.02639719,0.737209056 C4.5110124,0.7576756 4.25332,0.912104979 4.25332,1.1977063 C4.25332,1.33073884 4.30820755,1.54749815 4.42821592,1.83775095 C4.86831428,2.91188932 5.72125067,4.80071823 6.60760716,6.72551698 L6.98841418,7.55036263 C8.29951027,10.3834431 9.56531851,13.0524869 9.56531851,13.0524869 L9.71137521,13.0906291 L12.2785163,7.96618326 C11.9646648,7.27280986 11.7645417,6.82879684 11.7645417,6.82879684 L9.99790683,3.35878731 L9.9911401,3.34499866 L9.94288846,3.2467446 C9.86416688,3.08652025 9.71762242,2.78859249 9.61534353,2.58267803 L9.54113078,2.43407163 C8.76526269,0.899080814 8.78200805,0.817214638 7.99776729,0.711160727 C7.77821708,0.682321506 7.66472079,0.654412582 7.66472079,0.545567779 L7.66472079,0.0590222057 L7.73077191,0.0115770351 L8.22056924,0.011057283 C8.27998682,0.0110057121 8.34086907,0.0109561248 8.40301541,0.0109084446 L10.2419326,0.010028917 C10.3105871,0.0100093872 10.3787007,0.00999107798 10.4460728,0.00997391312 L12.3003931,0.00971644017 L12.4213317,0.0497192311 L12.4213317,0.534404209 C12.4213317,0.645109607 12.3422564,0.701857752 12.181315,0.701857752 L11.8501291,0.749302923 C11.0137917,0.814423745 11.1496151,1.15677321 11.705933,2.26475749 L13.4,5.73 L15.2736237,1.99218033 C15.5656042,1.35725231 15.531112,1.16430577 15.421161,1.01335721 L15.3945624,0.979086396 C15.3201386,0.891638435 15.0698886,0.746512031 14.5275252,0.726975784 L14.3144871,0.703718347 C14.2595995,0.703718347 14.2102937,0.685112398 14.160988,0.648830797 C14.1126125,0.614409791 14.0884248,0.569755513 14.0884248,0.513007367 L14.0884248,0.051579826 L14.1544759,0.00413465539 C14.3913695,0.00247340992 14.680978,0.0014054664 14.9969206,0.000771904676 Z M29.1648255,4.85191473 L29.1890132,4.9002902 L29.1890132,5.43242035 C29.1890132,5.50498355 29.1397074,5.55335902 29.0438868,5.55335902 L28.5359444,5.60266479 C27.7851943,5.67429769 27.5191292,5.86872986 27.5191292,6.35341484 L27.5200595,14.4079303 C27.5200595,14.9400604 27.7628672,15.254501 28.5368747,15.3270642 L29.0448171,15.3763699 C29.1173803,15.3763699 29.1899435,15.4238151 29.1899435,15.520566 L29.1899435,16.0285084 L29.1657558,16.0778142 C29.1657558,16.0778142 28.5036444,16.0600641 27.8121953,16.0458641 L27.4669554,16.0391585 C27.1821006,16.0339814 26.9104619,16.0300369 26.6978128,16.0288659 L26.5776682,16.0285084 C25.9004117,16.0285084 24.0137684,16.0778142 24.0137684,16.0778142 L23.9653929,16.0285084 L23.9653929,15.520566 C23.9653929,15.4238151 24.0379561,15.3763699 24.1347071,15.3763699 L24.6193921,15.3270642 C25.416657,15.254501 25.6585343,14.8674972 25.6585343,14.4079303 L25.6585343,6.35341484 C25.6585343,5.82500588 25.3673512,5.67522799 24.6193921,5.60452538 L24.1347071,5.55428932 C24.0379561,5.55428932 23.9653929,5.53196218 23.9653929,5.45753838 L23.9653929,4.9002902 L23.9886504,4.85191473 C23.9886504,4.85191473 25.9004117,4.9002902 26.6493011,4.9002902 C27.3023699,4.9002902 29.1648255,4.85191473 29.1648255,4.85191473 Z M34.6591623,14.4079303 C34.6591623,14.9400604 34.9736028,15.2061255 35.6750471,15.3270642 L35.9411122,15.3763699 C36.0136754,15.3996274 36.0853083,15.4238151 36.0853083,15.520566 L36.0853083,16.0285084 L36.0620508,16.0778142 C36.0620508,16.0778142 34.5372933,16.0285084 33.8125916,16.0285084 C33.1344047,16.0285084 31.1519408,16.0778142 31.1519408,16.0778142 L31.1035654,16.0285084 L31.1035654,15.520566 C31.1035654,15.4238151 31.1761286,15.3763699 31.2728795,15.3763699 L31.7575645,15.3270642 C32.4822662,15.254501 32.797637,14.8674972 32.797637,14.4079303 L32.797637,6.35341484 C32.797637,5.82500588 32.531572,5.67522799 31.7575645,5.60452538 L31.2728795,5.55428932 C31.1761286,5.55428932 31.1035654,5.53196218 31.1035654,5.45753838 L31.1035654,4.9002902 L31.1277531,4.85191473 C31.1277531,4.85191473 33.1111473,4.9002902 33.860967,4.9002902 C34.5391539,4.9002902 36.0620508,4.85191473 36.0620508,4.85191473 L36.0853083,4.9002902 L36.0853083,5.43242035 C36.0853083,5.50498355 36.0369328,5.52917129 35.9411122,5.55335902 L35.6750471,5.60266479 C34.924297,5.74686089 34.6591623,5.86872986 34.6591623,6.35341484 L34.6591623,10.0085536 C35.4564272,10.0085536 35.9169244,9.60108328 36.9811847,8.46053859 C37.9477638,7.3944177 38.6985138,6.50319273 38.6985138,6.0389743 C38.6985138,5.84454213 38.4808242,5.63057371 37.9970696,5.55428932 C37.9003186,5.53196218 37.8519432,5.50591385 37.8519432,5.43335065 L37.8519432,4.87517217 L37.8761309,4.85284503 C37.8761309,4.85284503 39.8344071,4.9012205 40.5358513,4.9012205 C41.1647324,4.9012205 42.2289927,4.85284503 42.2289927,4.85284503 L42.3015559,4.87517217 L42.3015559,5.43335065 C42.3015559,5.50591385 42.2289927,5.55428932 42.1080541,5.55428932 C41.1638021,5.62685252 40.5116636,5.67522799 39.6409052,6.66692508 L37.5607601,9.05965016 C37.1504989,9.49688996 37.0044422,9.76109444 37.0044422,9.95552661 C37.0044422,10.100653 37.1011931,10.2206614 37.2221318,10.3639272 L40.8744796,14.7660948 C41.1647324,15.1019322 41.745238,15.2498495 42.2289927,15.3456701 L42.3499314,15.367067 C42.4224946,15.3903244 42.5192455,15.4386999 42.5192455,15.5112631 L42.5192455,16.0192055 L42.4476126,16.0433932 C42.4476126,16.0433932 41.1647324,16.0192055 40.4884062,16.0192055 C39.8837128,16.0192055 39.0129544,16.0433932 39.0129544,16.0433932 L38.9887667,16.0192055 L38.9887667,15.7280224 C38.9887667,15.4135818 38.9655092,15.148447 38.6259506,14.7614433 L35.9411122,11.423536 C35.5773659,10.938851 35.1903621,10.819773 34.6591623,10.819773 L34.6591623,14.4079303 L34.6591623,14.4079303 Z M47.6982115,14.4079303 C47.6982115,14.9400604 47.9400888,15.254501 48.7140963,15.3270642 L49.2220387,15.3763699 C49.2946019,15.3763699 49.3671652,15.4238151 49.3671652,15.520566 L49.3671652,16.0285084 L49.3429774,16.0778142 C49.3429774,16.0778142 47.5047096,16.0285084 46.7558202,16.0285084 C46.0776333,16.0285084 44.1919204,16.0778142 44.1919204,16.0778142 L44.1426146,16.0285084 L44.1426146,15.520566 C44.1426146,15.4238151 44.2151778,15.3763699 44.312859,15.3763699 L44.7966137,15.3270642 C45.5948089,15.254501 45.8366863,14.8674972 45.8366863,14.4079303 L45.8366863,6.35341484 C45.8366863,5.82500588 45.5455032,5.67522799 44.7966137,5.60452538 L44.312859,5.55428932 C44.2161081,5.55428932 44.1426146,5.53196218 44.1426146,5.45753838 L44.1426146,4.9002902 L44.1668023,4.85191473 C44.1668023,4.85191473 46.0776333,4.9002902 46.8274531,4.9002902 C47.4795916,4.9002902 49.3420471,4.85191473 49.3420471,4.85191473 L49.3662349,4.9002902 L49.3662349,5.43242035 C49.3662349,5.50498355 49.3178594,5.55335902 49.2211084,5.55335902 L48.713166,5.60266479 C47.9633463,5.67429769 47.6972812,5.86872986 47.6972812,6.35341484 L47.6982115,14.4079303 L47.6982115,14.4079303 Z M52.9255529,6.40086001 C52.9255529,5.65104025 52.6111124,5.62685252 51.4733586,5.55428932 C51.3291625,5.55428932 51.3040445,5.48265641 51.3040445,5.43335065 L51.3040445,4.87703276 L51.3524199,4.85284503 C51.7161662,4.85284503 53.1423123,4.9012205 53.8446868,4.9012205 C54.5219434,4.9012205 55.4894528,4.85284503 56.3834686,4.85284503 C59.8162663,4.85284503 60.4451473,6.54505612 60.4451473,7.80467888 C60.4451473,9.25687322 59.743703,11.5295899 56.3109054,11.5295899 C55.7071424,11.5295899 55.2224574,11.4802842 54.7861479,11.2877126 L54.7861479,14.5270083 C54.7861479,15.0563476 55.0764007,15.1810075 55.8513385,15.3010158 L56.3360234,15.373579 C56.4327744,15.3949759 56.5071982,15.4228848 56.5071982,15.5159145 L56.5071982,16.023857 L56.4858013,16.0750233 C56.4858013,16.0750233 54.5498523,16.023857 53.7991023,16.023857 C53.1218457,16.023857 51.3077657,16.0750233 51.3077657,16.0750233 L51.2835779,16.023857 L51.2835779,15.5159145 C51.2835779,15.4191636 51.3328837,15.3949759 51.4287043,15.373579 L51.9366467,15.3010158 C52.6873968,15.2042649 52.9283438,14.9865753 52.9283438,14.5270083 L52.9255529,6.40086001 L52.9255529,6.40086001 L52.9255529,6.40086001 Z M54.7870782,10.610456 C55.2708328,10.8048882 55.8755262,10.8281456 56.3583506,10.8281456 C57.8105449,10.8281456 58.5101286,9.95552661 58.5101286,8.09493169 C58.5101286,6.01478656 57.566807,5.55521961 56.2383422,5.55521961 C55.0764007,5.55521961 54.7861479,5.77290922 54.7861479,6.40179031 L54.7870782,10.610456 L54.7870782,10.610456 Z M64.6110194,16.0285084 C63.8863177,16.0285084 62.217364,16.0778142 62.217364,16.0778142 L62.1931763,16.0285084 L62.1931763,15.4963783 C62.1931763,15.4489331 62.217364,15.3763699 62.3383027,15.3763699 L62.8964811,15.3270642 C63.6481615,15.254501 63.8649208,14.7707463 63.8649208,14.2879219 L63.8649208,6.30596967 C63.8649208,5.74779119 63.574668,5.65197055 62.8964811,5.60452538 L62.3383027,5.55428932 C62.1931763,5.53196218 62.1931763,5.48265641 62.1931763,5.45753838 L62.1931763,4.9002902 L62.217364,4.85191473 C62.217364,4.85191473 64.103077,4.9002902 64.8296393,4.9002902 L68.3852362,4.9002902 C69.1099379,4.9002902 70.8291276,4.85191473 70.8291276,4.85191473 L70.880294,4.9002902 C70.9007605,5.94036276 71.071005,6.88554499 71.24311,7.80374858 L70.6412075,7.90049952 C70.3760727,7.00462306 69.9174361,5.72360346 68.3694211,5.72360346 L66.4344024,5.72360346 C65.9748355,5.72360346 65.7329581,5.89291759 65.7329581,6.30317877 L65.7329581,9.81133051 L67.5451776,9.81133051 C68.2233644,9.81133051 68.3917483,9.5210777 68.4903598,9.03732302 L68.6336256,8.5293806 C68.6336256,8.4568174 68.6838617,8.40751164 68.778752,8.40751164 L69.1871526,8.40751164 C69.238319,8.40751164 69.238319,8.43262967 69.238319,8.48007484 C69.1871526,9.00941409 69.0931925,9.69039184 69.0931925,10.2708975 C69.0931925,10.8746605 69.1899435,11.3835332 69.238319,11.9398511 L69.1871526,11.9891569 L68.778752,11.9891569 C68.6587436,11.9891569 68.606647,11.9398511 68.606647,11.8672879 L68.4857083,11.336088 C68.3889574,10.8514031 68.1712678,10.585338 67.5386655,10.585338 L65.7273763,10.585338 L65.7273763,14.2869916 C65.7273763,14.7428374 65.9906505,15.2024043 66.4288206,15.2024043 L68.7266553,15.2024043 C69.9602298,15.2024043 70.6393469,14.4283968 70.9277391,13.1669135 L71.5305719,13.2394767 L71.0458869,16.0201358 L70.9965812,16.0685112 C70.9965812,16.0685112 69.5704351,16.0201358 68.8448031,16.0201358 L64.6110194,16.0285084 L64.6110194,16.0285084 L64.6110194,16.0285084 Z M81.1061237,15.3940456 C81.2484592,15.539172 81.2484592,16.0517659 81.1061237,16.1968923 C80.0790753,16.1736349 79.4836849,16.1475865 78.4566365,16.1475865 C77.407261,16.1475865 76.7867526,16.1717743 75.7838919,16.1968923 C75.6424867,16.0517659 75.6424867,15.539172 75.7838919,15.3940456 C77.2398074,15.2721766 77.5030816,15.1986831 77.5030816,13.1771467 L77.5030816,7.01392604 C77.5030816,6.4780747 77.2649255,5.77104863 76.5727841,5.77104863 L75.5457357,5.77104863 C74.4721725,5.77104863 74.1856409,6.2575942 73.7083983,8.01306551 C73.4934995,8.03353206 73.2776705,8.0167867 73.0637021,7.93864171 C73.2544131,6.79530613 73.2544131,5.67336739 73.2544131,4.60259501 C73.4525665,4.57840728 73.654441,4.56259222 73.8525944,4.60259501 C73.9000395,4.74772142 74.114008,4.94215359 74.4954299,4.94215359 L82.1554992,4.94215359 C82.5369212,4.94215359 82.7518199,4.74772142 82.7983348,4.60259501 C82.9964881,4.54398627 83.1965021,4.53189241 83.3946554,4.60259501 C83.3946554,5.67336739 83.4188432,6.7701881 83.587227,7.93864171 C83.405819,8.0530683 83.1844082,8.06423187 82.9425309,8.01306551 C82.464358,6.2575942 82.1554992,5.77104863 81.1293811,5.77104863 L80.3414192,5.77104863 C79.6734656,5.77104863 79.3878643,6.4780747 79.3878643,7.03718347 L79.3878643,13.1771467 C79.3887946,15.1986831 79.6511385,15.2982249 81.1061237,15.3940456 Z M86.7325627,14.8758699 C85.5622485,13.7734674 85.0850059,12.1100955 85.0850059,10.5639412 C85.0850059,7.00648366 87.5195944,4.5718952 90.6686513,4.5718952 C92.5794823,4.5718952 93.6521153,4.96168983 94.5600856,4.96168983 C94.7945205,6.06037114 94.8401051,7.07718626 94.8456869,8.08004693 C94.6075308,8.2363369 94.3693746,8.22610363 94.1293579,8.15354043 C93.8428262,6.44830518 92.7218178,5.3775328 90.8137777,5.3775328 C89.0238854,5.3775328 87.1632905,6.22968528 87.1632905,10.3211335 C87.1632905,12.7324645 88.5457125,15.3400883 90.9095983,15.3400883 C92.5069191,15.3400883 93.3413959,14.8535428 94.4400772,13.5371718 C94.6763728,13.6199683 94.8075447,13.8637063 94.9182501,14.0227871 C93.7972417,15.5577779 92.6501849,16.264804 90.78959,16.264804 C89.0238854,16.264804 87.6851873,15.7698858 86.7325627,14.8758699 Z M100.503756,14.4739814 C100.503756,15.0061115 100.745633,15.3205521 101.519641,15.3931153 L102.026653,15.442421 C102.099216,15.442421 102.171779,15.4907965 102.171779,15.5866172 L102.171779,16.0945596 L102.148522,16.1438653 C102.148522,16.1438653 100.309324,16.0945596 99.5613647,16.0945596 C98.8831779,16.0945596 96.9974649,16.1438653 96.9974649,16.1438653 L96.9481592,16.0945596 L96.9481592,15.5866172 C96.9481592,15.4898662 97.0207224,15.442421 97.1174733,15.442421 L97.6021583,15.3931153 C98.3994232,15.3205521 98.6413006,14.9335483 98.6413006,14.4739814 L98.6413006,6.42039626 C98.6413006,5.891057 98.3501175,5.7422094 97.6021583,5.6705765 L97.1174733,5.62034044 C97.0207224,5.62034044 96.9481592,5.5980133 96.9481592,5.5235895 L96.9481592,4.96541102 L96.9714166,4.91610526 C96.9714166,4.91610526 98.8831779,4.96541102 99.6311371,4.96541102 C100.280485,4.96541102 102.147592,4.91610526 102.147592,4.91610526 L102.168058,4.96541102 L102.168058,5.49754117 C102.168058,5.57010437 102.115962,5.61847984 102.022932,5.61847984 L101.514059,5.66778561 C100.762379,5.73941851 100.498174,5.93385068 100.498174,6.41946596 L100.503756,14.4739814 L100.503756,14.4739814 L100.503756,14.4739814 Z M107.955439,15.3931153 L108.656883,15.442421 C108.753634,15.442421 108.851315,15.5149842 108.851315,15.6349926 L108.851315,16.0945596 L108.801079,16.1438653 C108.801079,16.1438653 106.165546,16.0945596 105.584111,16.0945596 C104.955229,16.0945596 103.407214,16.1438653 103.407214,16.1438653 L103.357909,16.0945596 L103.357909,15.6349926 C103.357909,15.5149842 103.430472,15.442421 103.552341,15.442421 C104.617531,15.3698578 105.220364,15.1754257 105.89669,13.628341 L111.265437,1.049789 C111.530572,0.420907919 111.725004,0.177169983 112.090611,0.177169983 C112.426448,0.177169983 112.548317,0.420907919 112.740889,0.903732302 L117.699374,14.0134841 C118.038933,14.9586664 118.524548,15.3196218 119.491127,15.4163727 L119.756262,15.4396302 C119.878131,15.4396302 120,15.5103328 120,15.6340623 L120,16.0908384 L119.927437,16.1410744 C119.927437,16.1410744 118.064981,16.0908384 117.119799,16.0908384 C116.273228,16.0908384 113.9019,16.1410744 113.9019,16.1410744 L113.880503,16.0908384 L113.880503,15.6340623 C113.880503,15.5103328 113.929809,15.4396302 114.053539,15.4396302 L114.731725,15.3893941 C115.648068,15.3177612 115.990418,15.0247175 115.74761,14.3511821 L114.272159,10.2615945 L109.24018,10.2615945 C108.658744,10.2615945 108.513617,10.3583454 108.393609,10.6699951 L106.98886,14.1781468 C106.745122,14.7893522 107.059562,15.3205521 107.955439,15.3931153 Z M113.881434,9.24943084 L111.535223,2.79223615 L111.487778,2.79223615 L109.068075,8.93592059 C108.971324,9.18151912 109.137847,9.25036114 109.669977,9.25036114 L113.881434,9.25036114 L113.881434,9.24943084 Z" id="wikipedia-wordmark-atj" fill="#000000" fill-rule="nonzero"></path>
    </g>
</svg>