<svg xmlns="http://www.w3.org/2000/svg" width="120" height="20"><path fill="#000" fill-rule="nonzero" d="M20.194 6.475c0-1.517.274-1.608 1.681-1.663.11-.11.11-.493 0-.603-.859.018-1.747.037-2.467.037a86.3 86.3 0 0 1-2.175-.037c-.11.11-.11.494 0 .603 1.097.055 1.407.146 1.407 1.663v5.3c0 3.728 2.404 4.44 4.277 4.44 3.746 0 4.641-2.32 4.641-5.573V6.475c0-1.467.31-1.535 1.407-1.663.11-.11.11-.493 0-.603-.694.018-1.44.037-1.864.037-.393 0-1.279-.019-2.12-.037-.11.11-.11.494 0 .603 1.371.128 1.682.183 1.682 1.663v4.496c0 2.046-.274 4.495-3.363 4.495-.877 0-1.624-.33-2.174-.859-.896-.859-.932-2.248-.932-3.435V6.475Zm12.426 7.328V6.475c0-1.517.31-1.608 1.59-1.663.11-.11.11-.493 0-.603-.804.018-1.672.037-2.376.037-.612 0-1.498-.019-2.357-.037-.11.11-.11.494 0 .603 1.28.055 1.59.146 1.59 1.663v7.328c0 1.517-.31 1.608-1.59 1.663-.11.11-.11.493 0 .603.822-.018 1.712-.037 2.376-.037.65 0 1.535.019 2.357.037.11-.11.11-.493 0-.603-1.28-.055-1.59-.146-1.59-1.663Zm7.986-9.137c2.412 0 4.367 2.01 4.367 5.702 0 3.27-1.571 5.19-3.654 5.19-2.23 0-4.331-1.993-4.331-5.501 0-3.838 1.809-5.391 3.618-5.391Zm6.122 5.354c0-3.782-2.613-6.012-5.884-6.012-3.54 0-5.61 2.816-5.61 6.36 0 3.307 2.205 5.473 4.972 5.803a9.61 9.61 0 0 0-2.787 2.235c-.124.13-.234.27-.322.422l.713.366a7.79 7.79 0 0 1 .689-.846c.258-.172.506-.232.645-.232.777 0 1.445.35 2.156.756.852.486 1.78.98 3.07.98 1.152 0 1.92-.475 2.632-1.499l-.31-.219c-.403.493-1.06.676-1.59.676-.764 0-1.5-.32-2.276-.692-.851-.41-1.767-.806-2.823-.806-.11 0-.232.009-.364.027.907-.663 1.802-1.043 2.398-1.211 1.52-.256 2.745-1.051 3.561-2.215.728-1.036 1.13-2.358 1.13-3.893Zm3.8-3.545c0-1.517.275-1.608 1.682-1.663.11-.11.11-.493 0-.603-.859.018-1.747.037-2.467.037a86.3 86.3 0 0 1-2.175-.037c-.11.11-.11.494 0 .603 1.097.055 1.407.146 1.407 1.663v5.3c0 3.728 2.404 4.44 4.277 4.44 3.746 0 4.641-2.32 4.641-5.573V6.475c0-1.467.31-1.535 1.407-1.663.11-.11.11-.493 0-.603-.694.018-1.44.037-1.864.037-.392 0-1.279-.019-2.12-.037-.109.11-.109.494 0 .603 1.371.128 1.682.183 1.682 1.663v4.496c0 2.046-.274 4.495-3.363 4.495-.877 0-1.624-.33-2.174-.859-.896-.859-.932-2.248-.932-3.435V6.475Zm12.427 7.328V6.475c0-1.517.31-1.608 1.59-1.663.11-.11.11-.493 0-.603-.804.018-1.672.037-2.376.037-.612 0-1.498-.019-2.357-.037-.11.11-.11.494 0 .603 1.28.055 1.59.146 1.59 1.663v7.328c0 1.517-.31 1.608-1.59 1.663-.11.11-.11.493 0 .603.822-.018 1.712-.037 2.376-.037.65 0 1.535.019 2.357.037.11-.11.11-.493 0-.603-1.28-.055-1.59-.146-1.59-1.663Zm5.391-7.894c0-.53.274-1.17 1.59-1.17 1.26 0 2.522.42 2.522 2.741 0 1.974-.95 2.778-2.723 2.778-.457 0-1.188-.037-1.389-.092V5.91Zm-1.553.566v7.328c0 1.517-.31 1.608-1.59 1.663-.11.11-.11.493 0 .603.822-.018 1.723-.037 2.376-.037.646 0 1.717.019 2.631.037.11-.11.11-.493 0-.603-1.425-.073-1.864-.146-1.864-1.663v-3.107c.402.128.84.183 1.48.183 3.326 0 4.331-2.174 4.331-3.728 0-1.078-.712-3.033-4.093-3.033-.7 0-1.773.128-2.504.128-.67 0-1.626-.019-2.357-.037-.11.11-.11.494 0 .603 1.28.055 1.59.146 1.59 1.663Zm13.12 2.96h-1.662V6.147c0-.804.219-1.17 1.206-1.17h1.37c1.37 0 1.663.732 2.065 1.993.227.032.424-.006.603-.092a64.15 64.15 0 0 0-.402-2.65c0-.036-.018-.054-.073-.054-.31.054-.457.073-.895.073h-4.66c-.558 0-1.627-.019-2.358-.037-.11.11-.11.494 0 .603 1.28.055 1.59.146 1.59 1.663v7.328c0 1.517-.31 1.608-1.59 1.663-.11.11-.11.493 0 .603.677-.018 1.773-.037 2.376-.037h3.929c.877 0 2.34.037 2.34.037.255-.914.53-2.12.675-3.052a.842.842 0 0 0-.64-.091c-.365 1.316-1.004 2.394-2.393 2.394h-2.12c-.768 0-1.023-.293-1.023-1.151v-4.04h1.663c1.553 0 1.608.421 1.663 1.244.11.11.493.11.603 0a39.523 39.523 0 0 1-.037-1.609c0-.511.018-1.133.037-1.571-.11-.11-.494-.11-.603 0-.055 1.005-.11 1.243-1.663 1.243Zm8.535 5.062V5.726c0-.64.64-.896 1.535-.896 3.947 0 5.244 3.198 5.244 6.013 0 3.691-2.21 4.605-4.788 4.605-1.79 0-1.991-.366-1.991-.95Zm-.786-10.251c-.653 0-1.627-.019-2.358-.037-.11.11-.11.494 0 .603 1.28.055 1.59.146 1.59 1.663v7.328c0 1.517-.31 1.608-1.59 1.663-.11.11-.11.493 0 .603a105.08 105.08 0 0 1 2.376-.037c.676 0 1.444.037 3.326.037 2.577 0 5.976-1.17 5.976-5.665 0-3.399-2.796-6.195-6.305-6.195-1.297 0-2.303.037-3.015.037Zm13.596 9.557V6.475c0-1.517.31-1.608 1.59-1.663.11-.11.11-.493 0-.603-.804.018-1.673.037-2.376.037-.612 0-1.499-.019-2.357-.037-.11.11-.11.494 0 .603 1.279.055 1.59.146 1.59 1.663v7.328c0 1.517-.311 1.608-1.59 1.663-.11.11-.11.493 0 .603.822-.018 1.712-.037 2.375-.037.65 0 1.535.019 2.358.037.11-.11.11-.493 0-.603-1.28-.055-1.59-.146-1.59-1.663Zm-86.553-.743V3.29c0-2.023.414-2.145 2.12-2.218.146-.146.146-.658 0-.804-1 .024-2.242.049-3.168.049-.909 0-2.071-.025-3.143-.049-.146.146-.146.658 0 .804 1.705.073 2.12.195 2.12 2.217v3.899H4.3V3.289c0-2.022.414-2.144 2.12-2.217.145-.146.145-.658 0-.804-.927.024-1.926.049-3.168.049C2.035.317 1.036.292.11.268c-.147.146-.147.658 0 .804 1.705.073 2.12.195 2.12 2.217v9.77c0 2.023-.415 2.145-2.12 2.218-.147.146-.147.658 0 .804 1.072-.024 2.249-.049 3.167-.049.885 0 2.071.025 3.143.05.146-.147.146-.659 0-.805-1.705-.073-2.12-.195-2.12-2.217V8.21h8.334v4.849c0 2.022-.415 2.144-2.12 2.217-.146.146-.146.658 0 .804 1.096-.024 2.263-.049 3.167-.049.91 0 2.071.025 3.143.05.147-.147.147-.659 0-.805-1.705-.073-2.12-.195-2.12-2.217Zm94.903-3.923c-.536 0-.706-.073-.614-.324l2.49-6.303h.146l2.29 6.627h-4.312Zm-2.631 4.97 1.34-3.532c.122-.317.268-.415.853-.415h5.14l1.414 4.118c.287.84-.643.916-1.803 1-.146.145-.146.657 0 .803.901-.024 2.241-.049 3.192-.049a95.4 95.4 0 0 1 2.777.05c.147-.147.147-.659 0-.805-.945-.085-1.769-.166-2.193-1.34L112.678 0c-.365.22-1.023.487-1.34.487l-5.53 13.06c-.634 1.51-1.378 1.657-2.437 1.73-.147.146-.147.658 0 .804.633-.024 1.43-.049 2.168-.049 1 0 2.217.025 3.119.05.146-.147.146-.659 0-.805-.916-.063-2.061-.168-1.681-1.17Z"/></svg>