<svg width="120" height="13" viewBox="0 0 120 13" fill="none" xmlns="http://www.w3.org/2000/svg">
<path fill-rule="evenodd" clip-rule="evenodd" d="M47.4651 8.78027C48.2681 8.74078 48.4129 8.67496 48.4129 7.58237V1.82978C48.4129 0.793201 48.2741 0.786191 47.6928 0.756839L47.6928 0.756837C47.654 0.754879 47.6132 0.75282 47.5704 0.750351C47.4914 0.671368 47.4651 0.460732 47.4914 0.355421C48.018 0.31593 49.0053 0.131638 49.3344 0C49.4529 0 49.5055 0.0394964 49.5055 0.131643C49.5055 0.131643 49.4529 0.658202 49.4529 1.51385V7.58237C49.4529 8.67496 49.5977 8.74078 50.4006 8.78027C50.4796 8.85926 50.4796 9.1357 50.4006 9.21468C50.2642 9.21151 50.1415 9.20833 50.0259 9.20534C49.6621 9.19593 49.369 9.18835 48.9395 9.18835C48.4882 9.18835 48.1807 9.19635 47.8054 9.2061C47.699 9.20887 47.5872 9.21177 47.4651 9.21468C47.3861 9.1357 47.3861 8.85926 47.4651 8.78027ZM4.56126 9.18835H1.77053C1.77053 9.18835 0.704264 9.20152 0.0592372 9.21468C-0.0197457 9.1357 -0.0197457 8.85926 0.0592372 8.78028C0.980704 8.74078 1.20449 8.67497 1.20449 7.58237V2.30368C1.20449 1.21108 0.980704 1.14526 0.0592372 1.10577C-0.0197457 1.02679 -0.0197457 0.750348 0.0592372 0.671365C0.21826 0.674545 0.361146 0.677726 0.495693 0.680721L0.4957 0.680721C0.918035 0.690121 1.25821 0.697693 1.75737 0.697693C2.27818 0.697693 2.63263 0.689771 3.06654 0.680072L3.06656 0.680071L3.0666 0.68007L3.06668 0.680069L3.06681 0.680066C3.19216 0.677264 3.32413 0.674314 3.46867 0.671365C3.54765 0.750348 3.54765 1.02679 3.46867 1.10577C2.5472 1.14526 2.32341 1.21108 2.32341 2.30368V8.01678C2.32341 8.42485 2.56036 8.67496 2.94211 8.67496H4.42963C5.43008 8.67496 5.7855 7.89829 6.04878 6.9505C6.20674 6.93733 6.35154 6.96366 6.48318 7.01632C6.4042 7.70084 6.27256 8.55649 6.14092 9.21468C6.14092 9.21468 4.92985 9.18835 4.56126 9.18835ZM9.92209 3.87017C9.60616 3.87017 8.68469 3.98864 8.43458 5.47615L10.8172 5.43666C10.962 5.43666 11.0147 5.37085 11.0147 5.25238C11.0147 4.14662 10.4223 3.87017 9.92209 3.87017ZM10.2512 8.67496C11.0147 8.67496 11.3964 8.46434 11.8835 7.96412C12.0415 7.97728 12.1204 8.04309 12.1599 8.17473C11.6334 8.85925 10.9225 9.32 9.92209 9.32C8.97429 9.32 8.35559 9.00406 7.90802 8.47751C7.47362 7.97728 7.28932 7.26643 7.28932 6.52925C7.28932 4.52835 8.77684 3.43576 9.92209 3.43576C11.7519 3.43576 12.1468 4.6205 12.1468 5.72626C12.1468 5.87106 12.0546 5.95005 11.8967 5.95005L8.39508 5.92373C8.39508 6.68723 8.55305 7.29277 8.81633 7.72718C9.2244 8.39853 9.77729 8.67496 10.2512 8.67496ZM17.7145 5.47615C17.9646 3.98864 18.8861 3.87017 19.202 3.87017C19.7022 3.87017 20.2946 4.14662 20.2946 5.25238C20.2946 5.37085 20.2419 5.43666 20.0971 5.43666L17.7145 5.47615ZM21.1634 7.96412C20.6764 8.46434 20.2946 8.67496 19.5311 8.67496C19.0572 8.67496 18.5043 8.39853 18.0962 7.72718C17.833 7.29277 17.675 6.68723 17.675 5.92373L21.1766 5.95005C21.3345 5.95005 21.4267 5.87106 21.4267 5.72626C21.4267 4.6205 21.0318 3.43576 19.202 3.43576C18.0568 3.43576 16.5692 4.52835 16.5692 6.52925C16.5692 7.26643 16.7535 7.97728 17.1879 8.47751C17.6355 9.00406 18.2542 9.32 19.202 9.32C20.2025 9.32 20.9133 8.85925 21.4399 8.17473C21.4004 8.04309 21.3214 7.97728 21.1634 7.96412ZM24.4375 4.48263L24.4427 4.4757C25.2457 3.58056 25.8775 3.40943 26.5226 3.40943C26.9833 3.40943 27.3914 3.5674 27.6152 3.85701C27.9179 4.26508 27.9706 4.89695 27.9706 5.62096V7.58237C27.9706 8.6618 28.1154 8.71445 28.8526 8.78027C28.9184 8.85926 28.9184 9.1357 28.8526 9.21468C28.6989 9.21111 28.5656 9.20753 28.4422 9.20422L28.4419 9.20422L28.4418 9.20421L28.4418 9.20421C28.1106 9.19533 27.8502 9.18835 27.4572 9.18835C27.0796 9.18835 26.8374 9.19512 26.5267 9.20381H26.5267H26.5267L26.5263 9.20382C26.4039 9.20724 26.2707 9.21096 26.1145 9.21468C26.0487 9.1357 26.0487 8.85926 26.1145 8.78027C26.799 8.71445 26.9306 8.6618 26.9306 7.58237V5.58147C26.9306 5.18655 26.9043 4.83112 26.7727 4.56785C26.6147 4.26508 26.3383 4.09395 26.075 4.09395C25.5616 4.09395 25.0482 4.38355 24.548 4.87061C24.4427 4.98909 24.3242 5.14706 24.3242 5.4235V7.58237C24.3242 8.6618 24.4427 8.71445 25.114 8.78027C25.193 8.85926 25.193 9.1357 25.114 9.21468C24.9483 9.21073 24.811 9.20679 24.6861 9.2032L24.6853 9.20318L24.6847 9.20316H24.6847C24.3935 9.19479 24.1697 9.18835 23.8108 9.18835C23.3665 9.18835 23.06 9.19646 22.6877 9.20632L22.6867 9.20635C22.585 9.20904 22.4785 9.21186 22.3628 9.21468C22.2838 9.1357 22.2838 8.85926 22.3628 8.78027C23.1526 8.71445 23.2843 8.6618 23.2843 7.58237V5.01542C23.2843 4.25192 23.1395 4.1861 22.4286 4.12028C22.4023 4.04129 22.376 3.83067 22.4023 3.75169C23.3106 3.63322 23.8503 3.51474 24.2189 3.36994C24.3242 3.36994 24.3769 3.40944 24.3769 3.47526C24.3769 3.47526 24.311 4.08078 24.311 4.4757C24.311 4.65235 24.3957 4.53872 24.4375 4.48263ZM34.355 7.99045C34.3024 7.87197 34.1971 7.81931 34.0786 7.80615C33.631 8.38535 33.065 8.67496 32.4989 8.67496C31.538 8.67496 30.735 7.70083 30.735 6.16067C30.735 4.71265 31.3669 3.84384 32.2357 3.84384C33.0123 3.84384 33.1176 4.30458 33.1703 4.76531C33.2098 5.12074 33.3941 5.23921 33.6705 5.23921C33.947 5.23921 34.3155 5.06808 34.3155 4.66C34.3155 3.93599 33.5652 3.40943 32.3015 3.40943C30.9983 3.40943 29.6029 4.58102 29.6029 6.45028C29.6029 8.14842 30.5507 9.31999 32.2093 9.31999C32.9992 9.31999 33.6968 9.06988 34.355 7.99045ZM38.0235 10.1625C37.8524 10.5574 37.6813 10.9391 37.4838 11.2946H37.4706C36.9967 12.1371 36.4702 12.2424 36.1938 12.2424C35.8383 12.2424 35.5751 12.0317 35.5751 11.7553C35.5751 11.5842 35.7725 11.1893 36.1543 11.1893C36.2223 11.1893 36.27 11.198 36.3206 11.2072C36.3776 11.2176 36.4383 11.2287 36.536 11.2287C36.8651 11.2287 37.0494 11.1103 37.1942 10.847C37.3917 10.4389 37.5628 10.0835 37.7076 9.63592C37.8392 9.26734 37.6418 8.67496 37.5233 8.39853L36.0358 4.93643C35.6804 4.10711 35.5751 4.00181 34.9958 3.94916C34.9169 3.87017 34.9169 3.59373 34.9958 3.51475C35.2591 3.52791 35.6145 3.54108 36.0621 3.54108C36.536 3.54108 37.0626 3.52791 37.5496 3.51475C37.6286 3.59373 37.6286 3.87017 37.5496 3.94916C36.7855 4.01179 36.8796 4.22937 37.0947 4.72667L37.1284 4.80481L38.2868 7.54288C38.4053 7.80615 38.5106 7.77982 38.6027 7.55604L39.9191 4.54152C40.1166 4.06762 39.6953 3.98865 39.2873 3.94916C39.2083 3.87017 39.2083 3.59373 39.2873 3.51475C39.4199 3.51833 39.535 3.52192 39.6415 3.52524C39.9262 3.53411 40.1499 3.54108 40.4852 3.54108C40.7905 3.54108 41.0055 3.53204 41.2574 3.52146L41.4198 3.51475C41.4988 3.59373 41.4988 3.87017 41.4198 3.94916C40.9327 3.98865 40.5378 4.40989 40.3535 4.79164C39.6558 6.26599 39.0766 7.63503 38.0235 10.1625ZM46.7716 7.99045C46.719 7.87197 46.6137 7.81931 46.4952 7.80615C46.0476 8.38535 45.4816 8.67496 44.9155 8.67496C43.9546 8.67496 43.1516 7.70083 43.1516 6.16067C43.1516 4.71265 43.7835 3.84384 44.6523 3.84384C45.4289 3.84384 45.5342 4.30458 45.5869 4.76531C45.6264 5.12074 45.8107 5.23921 46.0871 5.23921C46.3636 5.23921 46.7322 5.06808 46.7322 4.66C46.7322 3.93599 45.9818 3.40943 44.7181 3.40943C43.4149 3.40943 42.0195 4.58102 42.0195 6.45028C42.0195 8.14842 42.9673 9.31999 44.6259 9.31999C45.4158 9.31999 46.1135 9.06988 46.7716 7.99045ZM51.2236 6.48978C51.2236 7.83249 52.1319 9.31999 53.988 9.31999C55.9494 9.31999 56.7787 7.68768 56.7787 6.3713C56.7787 5.00226 56.0547 3.40943 54.0143 3.40943C52.2372 3.40943 51.2236 4.81797 51.2236 6.48978ZM53.8695 3.84384C55.0016 3.84384 55.6466 4.85746 55.6466 6.79254C55.6466 8.53016 54.8436 8.88559 54.2249 8.88559C52.8559 8.88559 52.3557 7.20061 52.3557 6.187C52.3557 5.04174 52.7638 3.84384 53.8695 3.84384ZM61.001 4.01498C60.6061 4.01498 60.0796 4.35723 59.6715 4.77848C59.5004 4.96277 59.4609 5.08124 59.4609 5.35768V7.80615C59.4609 8.29321 59.5004 8.35903 59.7768 8.59597C60.0138 8.80659 60.4745 8.87242 60.7114 8.87242C62.1858 8.87242 62.5675 7.52972 62.5675 6.45028C62.5675 4.96277 61.8435 4.01498 61.001 4.01498ZM59.4346 4.30458C59.4346 4.40989 59.5135 4.39673 59.5662 4.34407C60.1586 3.73853 60.8826 3.40943 61.3696 3.40943C62.7123 3.40943 63.6996 4.6995 63.6996 6.09486C63.6996 7.16113 63.3442 7.97727 62.7255 8.58281C62.1858 9.0962 61.5276 9.32 60.7904 9.32C60.3692 9.32 59.9611 9.25417 59.6452 9.12253L59.6186 9.11276C59.4955 9.06731 59.4609 9.05454 59.4609 9.21468V10.6364C59.4609 11.729 59.6057 11.7816 60.5403 11.8343C60.6193 11.9133 60.6193 12.1897 60.5403 12.2687L60.2569 12.2619C59.8257 12.2513 59.4584 12.2424 58.9475 12.2424C58.4962 12.2424 58.1887 12.2504 57.8134 12.2601C57.7071 12.2629 57.5952 12.2658 57.4731 12.2687C57.3942 12.1897 57.3942 11.9133 57.4731 11.8343C58.2761 11.7948 58.4209 11.729 58.4209 10.6364V5.01542C58.4209 4.26508 58.2761 4.1861 57.5653 4.12028C57.539 4.04129 57.5126 3.83067 57.539 3.75169C58.4473 3.63322 58.9475 3.51474 59.3161 3.36994C59.4214 3.36994 59.4872 3.40944 59.4872 3.46209C59.4872 3.46209 59.4346 3.83068 59.4346 4.30458ZM65.9927 5.47615C66.2428 3.98864 67.1643 3.87017 67.4802 3.87017C67.9804 3.87017 68.5728 4.14662 68.5728 5.25238C68.5728 5.37085 68.5201 5.43666 68.3753 5.43666L65.9927 5.47615ZM69.4416 7.96412C68.9545 8.46434 68.5728 8.67496 67.8093 8.67496C67.3354 8.67496 66.7825 8.39853 66.3744 7.72718C66.1111 7.29277 65.9532 6.68723 65.9532 5.92373L69.4548 5.95005C69.6127 5.95005 69.7049 5.87106 69.7049 5.72626C69.7049 4.6205 69.31 3.43576 67.4802 3.43576C66.3349 3.43576 64.8474 4.52835 64.8474 6.52925C64.8474 7.26643 65.0317 7.97728 65.4661 8.47751C65.9137 9.00406 66.5324 9.32 67.4802 9.32C68.4806 9.32 69.1915 8.85925 69.718 8.17473C69.6785 8.04309 69.5996 7.97728 69.4416 7.96412ZM74.7067 8.06943C74.891 7.91147 74.9173 7.80615 74.9173 7.55604V5.05491C74.9173 4.64683 74.8778 4.55469 74.6935 4.34407C74.4302 4.0413 74.1011 3.87017 73.6272 3.87017C73.364 3.87017 72.8111 3.90965 72.403 4.52835C72.2055 4.80479 72.0213 5.33135 72.0213 6.27915C72.0213 7.92462 72.7584 8.70129 73.4693 8.70129C73.7984 8.70129 74.2196 8.49067 74.7067 8.06943ZM74.9305 8.54333C74.9305 8.45119 74.8251 8.47751 74.7725 8.53017C74.1275 9.05672 73.6404 9.31999 73.127 9.31999C71.7053 9.31999 70.8892 8.13524 70.8892 6.51609C70.8892 5.54197 71.2314 4.76531 71.7975 4.19926C72.324 3.69904 72.9032 3.40943 73.772 3.40943C74.0943 3.40943 74.4744 3.53257 74.6708 3.59616L74.6709 3.59619C74.7392 3.61831 74.7852 3.63323 74.7988 3.63323C74.891 3.63323 74.9173 3.6069 74.9173 3.51475V1.82978C74.9173 0.793202 74.7785 0.786191 74.1972 0.756839C74.1584 0.75488 74.1176 0.752821 74.0748 0.750351C73.9958 0.671368 73.9695 0.460732 73.9958 0.355421C74.5224 0.31593 75.5097 0.131638 75.8388 0C75.9572 0 76.0099 0.0394964 76.0099 0.131643C76.0099 0.131643 75.9572 0.658202 75.9572 1.51385V7.47705C75.9572 8.12208 76.0757 8.3722 76.9182 8.43802C76.9972 8.517 76.9972 8.71446 76.9182 8.79344C76.1152 8.88558 75.615 9.08305 75.3254 9.31999L75.3111 9.32359C75.2162 9.34744 75.1757 9.35764 75.0753 9.31999C75.0753 9.31999 74.9305 8.85926 74.9305 8.54333ZM78.2702 1.30322C78.2702 1.64548 78.5861 1.98775 78.9021 1.98775C79.2707 1.98775 79.5866 1.64548 79.5866 1.35588C79.5866 1.03995 79.3101 0.671365 78.9547 0.671365C78.6388 0.671365 78.2702 0.987289 78.2702 1.30322ZM79.4681 7.58237V4.96276C79.4681 4.30457 79.5208 3.46209 79.5208 3.46209C79.5208 3.40944 79.4549 3.36994 79.3496 3.36994C78.9679 3.51474 78.4545 3.63322 77.5462 3.75169C77.5199 3.83067 77.5462 4.04129 77.5725 4.12028C78.2834 4.19926 78.4282 4.26508 78.4282 5.01542V7.58237C78.4282 8.67497 78.2834 8.71446 77.4804 8.78028C77.4014 8.85926 77.4014 9.1357 77.4804 9.21468C77.6024 9.21177 77.7143 9.20887 77.8206 9.2061C78.196 9.19635 78.5034 9.18835 78.9547 9.18835C79.3843 9.18835 79.6774 9.19594 80.0411 9.20534C80.1567 9.20833 80.2794 9.21151 80.4159 9.21468C80.4949 9.1357 80.4949 8.85926 80.4159 8.78028C79.6129 8.72762 79.4681 8.67497 79.4681 7.58237ZM84.5669 7.87197V6.12117L83.5269 6.39763C82.5528 6.6609 82.2764 7.25327 82.2764 7.84564C82.2764 8.25372 82.566 8.78027 83.2242 8.78027C83.5928 8.78027 84.0403 8.49066 84.3826 8.21422C84.4879 8.13524 84.5669 8.0431 84.5669 7.87197ZM85.5805 9.31999C84.8697 9.31999 84.6459 8.83294 84.5669 8.5565H84.5406L84.2773 8.76711C83.6981 9.21468 83.448 9.31999 82.8424 9.31999C81.921 9.31999 81.1838 8.93824 81.1838 7.8983C81.1838 7.00316 82.0921 6.30548 83.3558 5.98955L84.4879 5.7131C84.5274 5.69993 84.5669 5.64729 84.5669 5.55514C84.5669 4.06763 83.9482 3.84384 83.5006 3.84384C83.0004 3.84384 82.408 3.98865 82.408 4.39673C82.408 4.54153 82.4212 4.62051 82.4343 4.66C82.4607 4.71265 82.4738 4.80479 82.4738 4.89694C82.4738 5.06807 82.2764 5.33135 81.8946 5.33135C81.5919 5.33135 81.4339 5.18654 81.4339 4.87061C81.4339 4.15976 82.5265 3.40943 83.6059 3.40943C84.5669 3.40943 85.5937 3.76486 85.5937 5.63413V7.59553C85.5937 8.20107 85.6068 8.71445 86.1202 8.71445C86.3004 8.71445 86.3855 8.62501 86.4448 8.5627C86.4765 8.52939 86.5008 8.50384 86.5283 8.50384C86.5809 8.50384 86.6994 8.63547 86.6994 8.72762C86.6994 8.79344 86.2255 9.31999 85.5805 9.31999ZM91.3689 7.58237C91.3689 8.67496 91.2241 8.74078 90.4211 8.78027C90.3422 8.85926 90.3422 9.1357 90.4211 9.21468L90.5371 9.21185L90.761 9.20611L90.7614 9.2061C91.1367 9.19635 91.4442 9.18835 91.8955 9.18835C92.3251 9.18835 92.6182 9.19593 92.9819 9.20534C93.0975 9.20833 93.2202 9.21151 93.3567 9.21468C93.4356 9.1357 93.4356 8.85926 93.3567 8.78027C92.5537 8.74078 92.4089 8.67496 92.4089 7.58237V1.51385C92.4089 0.658202 92.4615 0.131643 92.4615 0.131643C92.4615 0.0394964 92.4089 0 92.2904 0C91.9613 0.131638 90.974 0.31593 90.4475 0.355421C90.4211 0.460732 90.4475 0.671368 90.5265 0.750351C90.5693 0.752821 90.61 0.75488 90.6488 0.756839C91.2301 0.786191 91.3689 0.793201 91.3689 1.82978V7.58237ZM95.4565 1.98775C95.1406 1.98775 94.8247 1.64548 94.8247 1.30322C94.8247 0.987289 95.1933 0.671365 95.5092 0.671365C95.8646 0.671365 96.1411 1.03995 96.1411 1.35588C96.1411 1.64548 95.8251 1.98775 95.4565 1.98775ZM96.0226 4.96276V7.58237C96.0226 8.67497 96.1674 8.72762 96.9704 8.78028C97.0494 8.85926 97.0494 9.1357 96.9704 9.21468C96.8339 9.21151 96.7112 9.20833 96.5956 9.20534C96.2318 9.19594 95.9388 9.18835 95.5092 9.18835C95.0579 9.18835 94.7504 9.19635 94.3751 9.2061C94.2687 9.20887 94.1569 9.21177 94.0348 9.21468C93.9559 9.1357 93.9559 8.85926 94.0348 8.78028C94.8378 8.71446 94.9826 8.67497 94.9826 7.58237V5.01542C94.9826 4.26508 94.8378 4.19926 94.127 4.12028C94.1007 4.04129 94.0743 3.83067 94.1007 3.75169C95.009 3.63322 95.5224 3.51474 95.9041 3.36994C96.0094 3.36994 96.0752 3.40944 96.0752 3.46209C96.0752 3.46209 96.0226 4.30457 96.0226 4.96276ZM99.5549 4.40989C99.8971 4.10712 100.292 3.98865 100.674 3.98865C101.477 3.98865 102.135 4.96276 102.135 6.23965C102.135 7.74033 101.529 8.87242 100.279 8.87242C99.8708 8.87242 99.5944 8.58281 99.3311 8.25372V4.96276C99.3311 4.68632 99.3838 4.56786 99.5549 4.40989ZM99.4627 4.00181C99.3706 4.0808 99.3311 4.05447 99.3311 3.93599V1.51385C99.3311 0.658202 99.3838 0.131643 99.3838 0.131643C99.3838 0.0394964 99.3311 0 99.2126 0C98.8835 0.131638 97.8962 0.31593 97.3697 0.355421C97.3434 0.460732 97.3697 0.671368 97.4487 0.750351C97.4915 0.752821 97.5323 0.75488 97.5711 0.756839C98.1523 0.786191 98.2912 0.793201 98.2912 1.82978V8.25372C98.2912 8.76711 98.278 9.00406 98.2385 9.18835C98.3043 9.29366 98.3701 9.34632 98.5281 9.34632C98.6071 9.28051 98.7387 9.14886 98.8309 9.03038C98.9757 8.87241 99.0547 8.87241 99.1995 9.00405C99.4891 9.25416 99.884 9.31999 100.358 9.31999C101.701 9.31999 103.267 8.09576 103.267 6.00271C103.267 4.39673 102.082 3.40943 100.937 3.40943C100.371 3.40943 99.8708 3.63323 99.4627 4.00181ZM106.991 3.87017C106.675 3.87017 105.754 3.98864 105.503 5.47615L107.886 5.43666C108.031 5.43666 108.084 5.37085 108.084 5.25238C108.084 4.14662 107.491 3.87017 106.991 3.87017ZM107.32 8.67496C108.084 8.67496 108.465 8.46434 108.952 7.96412C109.11 7.97728 109.189 8.04309 109.229 8.17473C108.702 8.85925 107.991 9.32 106.991 9.32C106.043 9.32 105.424 9.00406 104.977 8.47751C104.543 7.97728 104.358 7.26643 104.358 6.52925C104.358 4.52835 105.846 3.43576 106.991 3.43576C108.821 3.43576 109.216 4.6205 109.216 5.72626C109.216 5.87106 109.124 5.95005 108.966 5.95005L105.464 5.92373C105.464 6.68723 105.622 7.29277 105.885 7.72718C106.293 8.39853 106.846 8.67496 107.32 8.67496ZM111.126 5.01542V7.58237C111.126 8.67496 110.968 8.72762 110.152 8.78027C110.073 8.85926 110.073 9.1357 110.152 9.21468L110.426 9.20797L110.426 9.20797C110.852 9.19739 111.216 9.18835 111.652 9.18835C112.13 9.18835 112.567 9.19867 113.053 9.21017L113.245 9.21468C113.324 9.1357 113.324 8.85926 113.245 8.78027C112.324 8.71445 112.166 8.67496 112.166 7.58237V5.75259C112.166 5.41033 112.324 5.10756 112.482 4.87061C112.627 4.65999 112.929 4.22559 113.087 4.22559C113.179 4.22559 113.285 4.23876 113.364 4.31774C113.393 4.34649 113.421 4.3809 113.452 4.41711L113.452 4.41722C113.56 4.54679 113.687 4.69949 113.903 4.69949C114.219 4.69949 114.522 4.3704 114.522 4.04131C114.522 3.79119 114.285 3.40943 113.732 3.40943C113.114 3.40943 112.574 3.98864 112.271 4.50203C112.192 4.64683 112.153 4.58101 112.153 4.51519C112.153 4.09395 112.219 3.46209 112.219 3.46209C112.219 3.40944 112.153 3.36994 112.047 3.36994C111.679 3.51474 111.152 3.63322 110.244 3.75169C110.218 3.83067 110.218 4.04129 110.27 4.12028C110.981 4.1861 111.126 4.29141 111.126 5.01542ZM117.762 3.87017C117.446 3.87017 116.525 3.98864 116.275 5.47615L118.657 5.43666C118.802 5.43666 118.855 5.37085 118.855 5.25238C118.855 4.14662 118.262 3.87017 117.762 3.87017ZM118.091 8.67496C118.855 8.67496 119.237 8.46434 119.724 7.96412C119.882 7.97728 119.961 8.04309 120 8.17473C119.473 8.85925 118.763 9.32 117.762 9.32C116.814 9.32 116.196 9.00406 115.748 8.47751C115.314 7.97728 115.129 7.26643 115.129 6.52925C115.129 4.52835 116.617 3.43576 117.762 3.43576C119.592 3.43576 119.987 4.6205 119.987 5.72626C119.987 5.87106 119.895 5.95005 119.737 5.95005L116.235 5.92373C116.235 6.68723 116.393 7.29277 116.656 7.72718C117.064 8.39853 117.617 8.67496 118.091 8.67496Z" fill="black"/>
</svg>
