<svg xmlns="http://www.w3.org/2000/svg" width="120" height="16"><path fill="#000" fill-rule="nonzero" d="M4.42 5.57H2.918V2.594c0-.728.198-1.058 1.09-1.058h1.24c1.24 0 1.504.66 1.867 1.801a.92.92 0 0 0 .546-.082A58.011 58.011 0 0 0 7.296.859c0-.033-.017-.05-.066-.05-.281.05-.413.067-.81.067H2.206C1.702.876.736.859.074.843c-.099.099-.099.446 0 .545 1.157.05 1.438.132 1.438 1.504v6.627c0 1.371-.28 1.454-1.438 1.504-.099.099-.099.446 0 .545a99.183 99.183 0 0 1 2.149-.033h3.553c.793 0 2.115.033 2.115.033.231-.826.48-1.917.611-2.76a.762.762 0 0 0-.578-.083c-.33 1.19-.909 2.165-2.165 2.165H3.842c-.694 0-.925-.264-.925-1.04V6.196H4.42c1.404 0 1.454.38 1.503 1.124.1.099.447.099.546 0-.017-.43-.033-.888-.033-1.454 0-.463.016-1.025.033-1.422-.1-.099-.446-.099-.546 0-.05.91-.099 1.124-1.503 1.124Zm7.602.049c-.1.115-.193.155-.198 0-.017-.447-.055-1.086-.132-1.256-.035-.076-.066-.132-.199-.132-.462.181-.892.33-2.032.479-.033.099 0 .363.033.462.892.083 1.074.166 1.074 1.124V9.52c0 1.355-.165 1.42-1.157 1.504-.099.099-.099.446 0 .545a45.678 45.678 0 0 1 3.47 0c.1-.1.1-.446 0-.545-.842-.083-1.007-.15-1.007-1.504v-2.71c0-.348.148-.546.28-.695.628-.611 1.372-.975 2.017-.975.33 0 .677.215.875.595.166.33.199.777.199 1.273v2.512c0 1.355-.165 1.42-1.025 1.504-.082.099-.082.446 0 .545a47.689 47.689 0 0 1 1.686-.033c.66 0 1.256.016 1.752.033.082-.1.082-.446 0-.545-.926-.083-1.108-.15-1.108-1.504V7.056c0-.909-.066-1.702-.446-2.214-.28-.364-.793-.562-1.372-.562-.81 0-1.73.215-2.71 1.339Zm12.494 4.412c-.067-.149-.199-.215-.347-.231-.562.727-1.273 1.09-1.984 1.09-1.206 0-2.214-1.223-2.214-3.156 0-1.818.793-2.909 1.884-2.909.975 0 1.107.579 1.173 1.157.05.446.281.595.628.595s.81-.215.81-.727c0-.909-.942-1.57-2.528-1.57-1.636 0-3.388 1.47-3.388 3.818 0 2.131 1.19 3.602 3.272 3.602.991 0 1.867-.314 2.694-1.669Zm1.983-8.395c0 .43.396.86.793.86.463 0 .86-.445.86-.794 0-.396-.348-.86-.794-.86-.397 0-.86.397-.86.794Zm1.503 7.883V6.225c0-.821.067-1.879.067-1.879 0-.066-.083-.115-.215-.115-.471.181-1.124.33-2.264.479-.033.099 0 .363.033.462.9.085 1.074.182 1.074 1.124V9.52c0 1.371-.182 1.42-1.19 1.504-.099.099-.099.446 0 .545a61.32 61.32 0 0 1 1.851-.033c.661 0 1.289.016 1.834.033.1-.1.1-.446 0-.545-1.008-.067-1.19-.133-1.19-1.504Zm2.909 0c0 1.371-.182 1.437-1.107 1.504-.1.099-.1.446 0 .545a55.67 55.67 0 0 1 1.768-.033c.578 0 1.124.016 1.504.033.099-.1.099-.446 0-.545-.678-.067-.86-.133-.86-1.504V8.083c.318.008.55.033.711.089.182.124.332.273.529.537l1.206 1.62c.486.652.673.963.694 1.156.005.05.017.083.066.083.33-.017.695-.033 1.025-.033.512 0 1.025.016 1.355.033.1-.1.1-.446 0-.545-.562-.067-.98-.14-1.421-.695L34.2 7.585c-.06-.074-.116-.149-.116-.231 0-.066 0-.1.066-.165l1.454-1.504c.496-.529 1.074-.661 1.735-.727.1-.1.1-.447 0-.546-.38.017-.842.033-1.437.033-.628 0-1.24-.016-1.62-.033-.099.1-.099.447 0 .546.926.066.534.65.38.842-.38.48-.897 1.042-1.322 1.356-.367.27-.811.466-1.124.509V1.9c0-1.074.067-1.735.067-1.735 0-.115-.067-.165-.215-.165-.413.165-1.653.397-2.314.446-.033.132 0 .397.1.496.859.05 1.057-.033 1.057 1.355v7.222Zm7.717-1.372c0 1.686 1.124 3.553 3.47 3.553 1.065 0 1.865-.375 2.428-.925.74-.724 1.076-1.764 1.076-2.777 0-1.718-.942-3.718-3.47-3.718-1.088 0-1.985.446-2.59 1.157-.6.704-.914 1.666-.914 2.71Zm3.256-3.288c1.421 0 2.297 1.288 2.297 3.668 0 2.082-1.074 2.595-1.85 2.595-1.72 0-2.281-2.083-2.281-3.355 0-1.438.347-2.908 1.834-2.908Zm7.288 1.206c.43-.529 1.186-1.025 1.669-1.025 1.057 0 1.966 1.19 1.966 3.058 0 1.355-.479 3.04-2.33 3.04-.297 0-.876-.082-1.173-.348-.332-.298-.397-.394-.397-.99V6.792c0-.347.073-.49.265-.727Zm-.314-.612c-.025-.495-.055-.92-.133-1.09-.034-.076-.066-.132-.198-.132-.463.181-.892.33-2.032.479-.034.099 0 .363.033.462.892.083 1.074.166 1.074 1.124v7.057c0 1.371-.182 1.454-1.19 1.503-.1.1-.1.447 0 .546.578-.017 1.19-.033 1.85-.033.662 0 1.455.016 2 .033.1-.1.1-.446 0-.546-1.173-.066-1.355-.132-1.355-1.503v-1.785c0-.215.063-.193.232-.124a3.94 3.94 0 0 0 1.437.256c.926 0 1.752-.28 2.43-.925.776-.76 1.222-1.785 1.222-3.124 0-1.751-1.239-3.37-2.925-3.37-.768 0-1.61.503-2.264 1.239-.092.104-.173.092-.181-.067Zm8.048 1.422c.314-1.868 1.47-2.016 1.867-2.016.628 0 1.372.347 1.372 1.735 0 .148-.067.228-.248.231l-2.991.05Zm4.33 3.123c-.612.628-1.091.892-2.05.892-.595 0-1.289-.347-1.801-1.19-.33-.545-.529-1.305-.529-2.264l4.396.034c.198 0 .314-.1.314-.281 0-1.389-.496-2.876-2.793-2.876-1.438 0-3.305 1.372-3.305 3.884 0 .925.231 1.817.777 2.445.561.661 1.338 1.058 2.528 1.058 1.256 0 2.148-.578 2.81-1.438-.05-.165-.15-.248-.348-.264Zm6.709-.512c0 .314-.032.443-.265.644-.611.529-1.14.793-1.553.793-.893 0-1.818-.975-1.818-3.04 0-1.19.231-1.851.48-2.198.512-.777 1.206-.826 1.536-.826.595 0 1.008.214 1.339.594.231.265.28.38.28.893v3.14Zm-.182 1.218c.08-.065.236-.095.248.021.041.405.182.975.182.975.132.05.214.041.314 0 .363-.297.941-.545 1.95-.661.099-.1.099-.347 0-.446-1.058-.083-1.207-.397-1.207-1.207V1.9c0-1.074.066-1.735.066-1.735 0-.115-.066-.165-.215-.165-.413.165-1.652.397-2.313.446-.033.132 0 .397.099.496.86.05 1.058-.033 1.058 1.355v2.115c0 .116-.033.149-.15.149-.065 0-.743-.28-1.288-.28-1.09 0-1.818.363-2.479.99-.71.711-1.14 1.686-1.14 2.91 0 2.032 1.024 3.52 2.81 3.52.644 0 1.255-.331 2.065-.997Zm4.33-9.068c0 .43.396.86.793.86.462 0 .86-.445.86-.794 0-.396-.348-.86-.794-.86-.397 0-.86.397-.86.794Zm1.503 7.883V6.225c0-.821.066-1.879.066-1.879 0-.066-.082-.115-.214-.115-.471.181-1.124.33-2.264.479-.033.099 0 .363.033.462.9.085 1.074.182 1.074 1.124V9.52c0 1.371-.182 1.42-1.19 1.504-.1.099-.1.446 0 .545a61.32 61.32 0 0 1 1.85-.033c.662 0 1.29.016 1.835.033.1-.1.1-.446 0-.545-1.008-.067-1.19-.133-1.19-1.504Zm6.33-1.835v2.182c0 .215-.1.33-.232.43-.43.346-.991.727-1.454.727-.826 0-1.19-.662-1.19-1.174 0-.743.347-1.504 1.57-1.818l1.306-.347Zm0 3.058c.099.512.274.958 1.107.958.633 0 1.228-.28 1.57-.611-.028-.204-.094-.342-.281-.447-.124.103-.402.265-.612.265-.479 0-.495-.645-.495-1.405v-2.43c0-2.346-1.29-2.792-2.496-2.792-1.355 0-2.726.892-2.726 1.834 0 .397.198.595.578.595.48 0 .777-.347.777-.562a.743.743 0 0 0-.05-.297 1.142 1.142 0 0 1-.033-.33c0-.513.694-.695 1.322-.695.562 0 1.339.281 1.339 2.149 0 .115-.05.182-.1.198l-1.42.347c-1.587.397-2.727 1.273-2.727 2.396 0 1.355.925 1.785 2.082 1.785.575 0 1.074-.132 1.801-.694l.33-.264h.034Zm8.89-3.867c.314-1.868 1.471-2.016 1.868-2.016.628 0 1.371.347 1.371 1.735 0 .148-.066.228-.248.231l-2.99.05Zm4.33 3.123c-.611.628-1.09.892-2.05.892-.594 0-1.288-.347-1.8-1.19-.33-.545-.53-1.305-.53-2.264l4.397.034c.198 0 .314-.1.314-.281 0-1.389-.496-2.876-2.793-2.876-1.438 0-3.305 1.372-3.305 3.884 0 .925.231 1.817.776 2.445.562.661 1.339 1.058 2.529 1.058 1.256 0 2.148-.578 2.81-1.438-.05-.165-.15-.248-.348-.264Zm6.71-.48c0 1.372-.182 1.455-1.19 1.505-.1.099-.1.446 0 .545.578-.017 1.19-.033 1.85-.033.661 0 1.29.016 1.835.033.099-.1.099-.446 0-.545-1.008-.05-1.19-.133-1.19-1.504V1.9c0-1.074.066-1.735.066-1.735 0-.115-.066-.165-.215-.165-.413.165-1.652.397-2.313.446-.033.132 0 .397.099.496.958.066 1.057.116 1.057 1.355v7.222Zm4.28-7.882c0 .43.396.86.793.86.462 0 .86-.445.86-.794 0-.396-.348-.86-.794-.86-.397 0-.86.397-.86.794Zm1.503 7.883V6.225c0-.821.066-1.879.066-1.879 0-.066-.082-.115-.214-.115-.471.181-1.124.33-2.264.479-.033.099 0 .363.033.462.9.085 1.074.182 1.074 1.124V9.52c0 1.371-.182 1.42-1.19 1.504-.1.099-.1.446 0 .545a61.32 61.32 0 0 1 1.85-.033c.662 0 1.29.016 1.835.033.1-.1.1-.446 0-.545-1.008-.067-1.19-.133-1.19-1.504Zm4.396-3.9c-.028-.661-.054-1.086-.132-1.256-.035-.076-.066-.132-.198-.132-.463.181-.893.33-2.033.479-.033.099 0 .363.033.462.892.083 1.074.166 1.074 1.124V9.52c0 1.371-.198 1.437-1.223 1.504-.099.099-.099.446 0 .545a65.778 65.778 0 0 1 1.884-.033c.661 0 1.421.016 2 .033.099-.1.099-.446 0-.545-1.157-.083-1.355-.133-1.355-1.504V7.222c0-.43.198-.81.396-1.108.182-.264.562-.81.76-.81.15 0 .298.04.427.21.125.166.31.386.598.386.397 0 .777-.414.777-.827 0-.315-.298-.793-.992-.793-.776 0-1.454.727-1.834 1.372-.1.182-.179.05-.182-.033Zm4.875-3.586a.776.776 0 1 0 1.554 0 .79.79 0 0 0-.777-.794.79.79 0 0 0-.777.794Zm2.793 0a.776.776 0 1 0 1.553 0 .79.79 0 0 0-.776-.794.79.79 0 0 0-.777.794Zm-2.38 4.842c.314-1.868 1.471-2.016 1.868-2.016.628 0 1.371.347 1.371 1.735 0 .148-.066.228-.248.231l-2.99.05Zm4.33 3.123c-.611.628-1.09.892-2.05.892-.594 0-1.288-.347-1.8-1.19-.331-.545-.53-1.305-.53-2.264l4.396.034c.199 0 .314-.1.314-.281 0-1.389-.495-2.876-2.792-2.876-1.438 0-3.305 1.372-3.305 3.884 0 .925.23 1.817.776 2.445.562.661 1.339 1.058 2.529 1.058 1.256 0 2.148-.578 2.809-1.438-.05-.165-.149-.248-.347-.264Z"/></svg>