<?xml version="1.0" encoding="UTF-8"?>
<svg width="112px" height="18px" viewBox="0 0 112 18" version="1.1" xmlns="http://www.w3.org/2000/svg" xmlns:xlink="http://www.w3.org/1999/xlink">
    <title>wikipedia-tagline-sd</title>
    <g id="Page-1" stroke="none" stroke-width="1" fill="none" fill-rule="evenodd">
        <path d="M96.5418528,3.86590113 L96.9225736,4.77784206 C96.1767673,5.07792934 95.4582754,5.51832276 94.7670978,6.09902233 C94.0759202,6.67580598 93.5917291,7.24479049 93.3145244,7.80597586 L98.7734649,7.80597586 C99.8238557,7.80597586 100.624356,8.02226973 101.174966,8.45485747 C101.72555,8.88744521 102.000842,9.50124374 102.000842,10.2962531 L102.000842,10.810673 L103.219751,10.810382 C103.228633,10.806562 103.239905,10.804652 103.253569,10.804652 L105.110355,10.804652 C104.856542,10.6448709 104.653488,10.4129885 104.501196,10.109005 C104.348911,9.80502793 104.272768,9.46596455 104.272768,9.09181482 C104.272768,8.60466576 104.380152,8.17793555 104.59492,7.81162419 C104.809681,7.44139038 105.100589,7.15689486 105.467643,6.95813762 C105.838601,6.75548408 106.242748,6.65415731 106.680086,6.65415731 C108.234187,6.65415731 109.011238,7.51154018 109.011238,9.22630593 L109.011238,10.8047011 L110.580929,10.8047011 L110.580929,8.46054502 C110.580929,7.37324102 110.334926,6.57237416 109.842921,6.05794444 C109.350915,5.54351471 108.577762,5.28629985 107.523461,5.28629985 C106.74641,5.28629985 106.006433,5.4032151 105.303531,5.63704561 L105.028245,4.71341577 C105.777982,4.46399351 106.609694,4.33928239 107.523382,4.33928239 C108.827593,4.33928239 109.833082,4.6919763 110.539849,5.39736411 C111.246616,6.09882947 111.6,7.08676466 111.6,8.36116968 L111.6,11.7400688 L103.408961,11.7412079 C103.400167,11.7444226 103.389603,11.746031 103.37727,11.746031 L93.8534032,11.746031 C93.1153917,11.746031 92.3227187,11.6700367 91.4753842,11.5180482 C90.6280498,11.3621568 89.985704,11.1867839 89.5483468,10.9919296 L89.6654841,10.4541122 C90.219972,10.5866192 90.7061282,10.6801534 91.1239527,10.7347147 C91.5417705,10.7853797 92.180219,10.8107122 93.039298,10.8107122 L100.981683,10.8107122 L100.981683,10.4775096 C100.981683,9.87734162 100.798156,9.43890943 100.431102,9.16221305 C100.067959,8.88161383 99.5154164,8.74131422 98.7734747,8.74131422 L92.3188377,8.74131422 L92.3188377,7.75923002 C92.7093216,6.94081018 93.3048007,6.16720437 94.105275,5.43841258 C94.9096401,4.7096208 95.7218327,4.18545031 96.5418528,3.86590113 Z M106.63316,7.70629652 C106.22706,7.70629652 105.908819,7.83100765 105.678435,8.0804299 C105.451955,8.32595585 105.338715,8.67668853 105.338715,9.13262795 C105.338715,9.64315483 105.492956,10.0504035 105.801438,10.354374 C106.109913,10.6544548 106.512096,10.8044951 107.007986,10.8044951 L107.99202,10.8046422 L107.99202,9.40746443 C107.99202,8.81898533 107.876828,8.38833266 107.646444,8.11550644 C107.419971,7.84269982 107.082209,7.70629652 106.63316,7.70629652 Z M105.427615,13.8445434 L108.239028,12.798131 L108.239028,13.4470126 L105.427615,14.4992106 L105.427615,13.8444845 L105.427615,13.8445434 Z M94.2758914,3.57752238 C93.8307461,3.57752238 93.4227011,3.44501865 93.0517564,3.18001118 L93.3973321,2.67727036 C93.6940957,2.8760276 93.9791475,2.97540622 94.2524875,2.97540622 C94.4867752,2.97540622 94.6859211,2.94814517 94.8499251,2.89362307 C94.5961113,2.57015144 94.4692043,2.23108806 94.4692043,1.87643292 C94.4692043,1.57244934 94.5687773,1.33082296 94.7679231,1.15155378 C94.967069,0.9722846 95.2267387,0.882650009 95.5469324,0.882650009 C95.867126,0.882650009 96.1189847,0.974232752 96.3025083,1.15739824 C96.4860385,1.33666742 96.5778036,1.56075716 96.5778036,1.82966747 C96.5778036,2.114163 96.4704195,2.39475895 96.2556514,2.67145533 C96.0447938,2.94426194 95.759742,3.16445538 95.400496,3.33203566 C95.0412566,3.49571309 94.6663884,3.5775518 94.2758914,3.5775518 L94.2758914,3.57752238 Z M95.3770135,2.68896908 C95.5878712,2.57595013 95.736253,2.4473427 95.8221589,2.30314679 C95.9119687,2.15505457 95.9568737,2.01280681 95.9568737,1.8764035 C95.9568737,1.75169564 95.9158727,1.65036887 95.8338706,1.57242319 C95.7518752,1.49447751 95.6483983,1.45550467 95.5234401,1.45550467 C95.4023923,1.45550467 95.2969635,1.49447751 95.2071536,1.57242319 C95.1212477,1.65036887 95.0782947,1.77118043 95.0782947,1.93485786 C95.0782947,2.18038381 95.1778677,2.43175422 95.3770135,2.68896908 L95.3770135,2.68896908 Z M69.472887,11.746031 L68.2770686,11.7459819 C68.2654355,12.6930419 68.0194327,13.4081705 67.539139,13.8914167 C67.0588452,14.3785658 66.3091088,14.6221403 65.2899297,14.6221403 L64.4289184,14.6221403 C63.6869768,14.6221403 63.0992924,14.3493369 62.6658654,13.8037303 C62.2324318,13.2581236 62.015715,12.5079217 62.015715,11.5531247 C62.015715,11.0620794 62.058668,10.5651699 62.1445739,10.0623964 C62.2304799,9.55575931 62.3515276,9.11147612 62.5077173,8.72954686 L63.5034139,8.72954686 C63.2300738,9.41937561 63.0934038,10.3605355 63.0934038,11.5530267 C63.0934038,12.2350105 63.2300738,12.7611422 63.5034139,13.1314218 C63.7767539,13.5016556 64.1613819,13.6867725 64.6572979,13.6867725 L65.2430237,13.6867725 C65.9380659,13.6867725 66.4476391,13.5289363 66.7717432,13.2132638 C67.0958408,12.8975913 67.2578895,12.4201961 67.2578895,11.7810781 L67.2578895,2.64999951 L68.2770686,2.64999951 L68.2770686,10.8106632 L71.4175118,10.8107122 L71.4175118,5.94118282 L72.4835575,5.94118282 L72.4835575,10.8107122 L75.7400572,10.8107122 L75.7400572,2.65004854 L76.806103,2.65004854 L76.806103,10.8107122 L83.3076067,10.8107122 L83.3076067,8.60688194 C83.3076067,8.01061024 83.127987,7.57217804 82.7687476,7.29158536 C82.4095082,7.01098614 81.8530683,6.87068653 81.099428,6.87068653 L79.0610698,6.87068653 L79.0610698,5.89443698 C79.3187876,5.3566229 79.6741362,4.82856265 80.1271156,4.31025623 C80.5800754,3.7880339 81.0857512,3.3242692 81.644143,2.91896212 C82.2064387,2.50975874 82.7531188,2.20383028 83.2841832,2.00117674 L83.664904,2.91311766 C82.9308226,3.20150949 82.2123307,3.63994169 81.5094282,4.22841425 C80.8065913,4.81299705 80.3224001,5.38394278 80.0568549,5.94125146 L81.0994182,5.94125146 C82.1458788,5.94125146 82.9444143,6.15559718 83.4950245,6.58428861 C84.0495058,7.01298005 84.3267465,7.62873981 84.3267465,8.4315679 L84.3267465,11.7461388 L69.472887,11.746031 Z M70.9489429,12.7047766 C71.1519927,12.7047766 71.3140415,12.7651856 71.4350892,12.8860037 C71.556137,13.0107116 71.6166609,13.1899807 71.6166609,13.4238113 C71.6166609,13.6537455 71.556137,13.8310698 71.4350892,13.9557841 C71.3179454,14.080492 71.1558966,14.1428459 70.9489429,14.1428459 C70.7615153,14.1428459 70.6014185,14.0863365 70.4686524,13.9733175 C70.3397968,13.8602986 70.275369,13.6771298 70.275369,13.4238113 C70.275369,13.1704927 70.3397968,12.9873239 70.4686524,12.874305 C70.6014185,12.761286 70.7615153,12.7047766 70.9489429,12.7047766 Z M73.0223872,12.7047766 C73.2371553,12.7047766 73.4031113,12.7690819 73.5202551,12.8976926 C73.637399,13.0301996 73.6959709,13.2055725 73.6959709,13.4238113 C73.6959709,13.6420565 73.637399,13.8154813 73.5202551,13.9440854 C73.4031113,14.0765924 73.2371553,14.1428459 73.0223872,14.1428459 C72.8154237,14.1428459 72.6514229,14.080492 72.5303751,13.9557841 C72.4093274,13.8310698 72.3488035,13.6537455 72.3488035,13.4238113 C72.3488035,13.1938771 72.4073754,13.016556 72.5245192,12.8918482 C72.645567,12.7671338 72.811523,12.7047766 73.0223872,12.7047766 Z M80.5721824,1.39888101e-14 C80.892376,1.39888101e-14 81.1442379,0.0915860112 81.3277681,0.274758034 C81.5112917,0.454027215 81.6030536,0.678113692 81.6030536,0.947017465 C81.6030536,1.23151299 81.4956728,1.51211221 81.2809112,1.78881512 C81.0700536,2.0616152 80.7850018,2.28180537 80.4257558,2.44938565 C80.0665164,2.61306961 79.6916482,2.6949116 79.3011512,2.6949116 C78.8559895,2.69497043 78.4479445,2.5624667 78.0770064,2.29745923 L78.4225821,1.79471842 C78.7193457,1.99347565 79.0043975,2.09285427 79.2777375,2.09285427 C79.5120252,2.09285427 79.7111711,2.06556053 79.8751751,2.01097306 C79.6213612,1.68750797 79.4944543,1.34844458 79.4944543,0.993782912 C79.4944543,0.689805871 79.5940272,0.44818276 79.7931731,0.268913579 C79.992319,0.0896378595 80.2519887,1.39888101e-14 80.5721824,1.39888101e-14 Z M80.5486901,0.572952725 C80.4276423,0.572952725 80.3222135,0.611922296 80.2324036,0.689861439 C80.1464977,0.76780712 80.1035447,0.888621944 80.1035447,1.05230591 C80.1035447,1.29782533 80.2031177,1.54919246 80.4022635,1.80640733 C80.6131212,1.69338838 80.7615029,1.56478095 80.8474089,1.42058503 C80.9372187,1.27249282 80.9821236,1.13024506 80.9821236,0.993841749 C80.9821236,0.86913389 80.9411226,0.76780712 80.8591206,0.689861439 C80.7771186,0.611922296 80.6736418,0.572952725 80.5486901,0.572952725 Z M53.0077362,14.8735695 C53.2185939,14.8735695 53.3825946,14.9378716 53.4997385,15.0664758 C53.6207863,15.1950865 53.6813102,15.3685112 53.6813102,15.58675 C53.6813102,15.8049952 53.6227382,15.9784232 53.5055944,16.1070339 C53.3884505,16.2395344 53.2224945,16.3057846 53.0077264,16.3057846 C52.8007825,16.3057846 52.6367818,16.2434307 52.515734,16.1187228 C52.3946862,15.9940085 52.3341623,15.8166842 52.3341623,15.58675 C52.3341623,15.3607186 52.3946862,15.1853457 52.515734,15.0606313 C52.6367818,14.9359235 52.8007825,14.8735695 53.0077362,14.8735695 Z M53.0077461,12.7047766 C53.2225076,12.7047766 53.3884636,12.7690819 53.505614,12.8976926 C53.6227579,13.0301996 53.6813298,13.2055725 53.6813298,13.4238113 C53.6813298,13.6420565 53.6227579,13.8154813 53.505614,13.9440854 C53.3884702,14.0765924 53.2225142,14.1428459 53.0077461,14.1428459 C52.8007825,14.1428459 52.6367818,14.080492 52.515734,13.9557841 C52.3946862,13.8310698 52.3341623,13.6537455 52.3341623,13.4238113 C52.3341623,13.1938771 52.3927343,13.016556 52.5098781,12.8918482 C52.6309259,12.7671338 52.7968819,12.7047766 53.0077461,12.7047766 Z M48.6736952,2.64585152 L48.6736952,10.8066034 L50.2551766,10.8066034 L50.283,10.81 L55.2862249,10.8107122 C54.9933652,10.5184241 54.7415033,9.78770376 54.5306391,8.61855124 C54.4134953,7.92872249 54.2436354,7.44547627 54.0210594,7.16881258 C53.7984835,6.89210966 53.4646196,6.7537582 53.0194677,6.7537582 C52.4649863,6.7537582 51.8851295,6.9135426 51.2798971,7.23311139 L50.8640312,6.4088569 C51.2076549,6.18671531 51.5532437,6.03277536 51.9007975,5.94703708 C52.2522291,5.86129879 52.6290296,5.81842965 53.0311991,5.81842965 C53.5193007,5.81842965 53.9273457,5.90611935 54.255334,6.08149877 C54.5833355,6.25687165 54.8430053,6.51798281 55.0343433,6.86483227 C55.2295853,7.20778542 55.377967,7.7007724 55.4794887,8.34379321 C55.5966325,9.05696056 55.7274434,9.60842478 55.8719212,9.99818587 C56.020303,10.3840049 56.1901629,10.6626527 56.381501,10.8341293 L56.381501,11.7460702 L50.1436102,11.7460702 L50.12,11.741 L47.6077477,11.7419222 L47.6077477,2.64585152 L48.6736952,2.64585152 Z M41.53954,14.6192279 C40.7898036,14.6192279 40.2001869,14.3600649 39.77069,13.8417388 C39.3411603,13.3234128 39.1263955,12.6199862 39.1263955,11.7314591 C39.1263955,10.7766686 39.2903995,9.89395321 39.6184076,9.0833129 L40.6141041,9.0833129 C40.3407641,9.77314166 40.2040941,10.6324858 40.2040941,11.6613452 C40.2040941,12.3082819 40.3388089,12.8071199 40.6082384,13.1578591 C40.877668,13.5086049 41.2642283,13.6839778 41.7679194,13.6839778 L42.3536452,13.6839778 C43.0486874,13.6839778 43.5582606,13.5261415 43.8823647,13.210469 C44.2064623,12.8947965 44.3685111,12.4174013 44.3685111,11.7782833 L44.3685111,5.93833904 L45.3876901,5.93833904 L45.3876901,11.6964021 C45.3876901,12.6628946 45.1475433,13.3916864 44.6672495,13.8827775 C44.1869558,14.3738229 43.4313897,14.6193455 42.4005512,14.6193455 L41.53954,14.6193455 L41.53954,14.6192279 Z M40.9948151,5.9323671 L41.1763868,5.9323671 L41.1763868,3.75187542 L41.6566773,3.75187542 L41.6566773,5.271826 C41.754295,5.0379955 41.8753427,4.85093044 42.0198206,4.71063083 C42.1682024,4.56643492 42.3595371,4.49433696 42.5938248,4.49433696 C43.1834481,4.49433696 43.4782597,4.84117987 43.4782597,5.53486571 L43.4782597,6.44680663 L40.9948151,6.44680663 L40.9948151,5.93237691 L40.9948151,5.9323671 Z M42.9979987,5.9323671 L42.9979987,5.63423125 C42.9979987,5.4237851 42.9628568,5.26789701 42.8925731,5.16656697 C42.8222894,5.06134717 42.7031936,5.00873726 42.5352857,5.00873726 C42.3478581,5.00873726 42.1819021,5.07303935 42.0374177,5.20164351 C41.8968438,5.3263579 41.7699369,5.52901144 41.6566969,5.80960413 L41.6566969,5.9323671 L42.9980478,5.9323671 L42.9979987,5.9323671 Z M40.2209838,2.38117419 L43.0324953,1.34064544 L43.0324953,1.98952705 L40.2209838,3.04172509 L40.2209838,2.38115457 L40.2209838,2.38117419 Z M30.1762779,14.4526119 C30.3441859,14.4526119 30.4886637,14.505225 30.6097115,14.6104514 C30.7346632,14.7156712 30.7971391,14.8813 30.7971391,15.1073379 C30.7971391,15.3411684 30.7346632,15.5087487 30.6097115,15.6100787 C30.4886637,15.7153051 30.3441859,15.7679183 30.1762779,15.7679183 C29.9966582,15.7679183 29.8482765,15.7153051 29.7311326,15.6100787 C29.6139887,15.5087487 29.5554168,15.3411684 29.5554168,15.1073379 C29.5554168,14.8813 29.6139887,14.7156712 29.7311326,14.6104514 C29.8482765,14.505225 29.9966582,14.4526119 30.1762779,14.4526119 Z M8.4406361,2.65004854 L8.4406361,10.8107122 L9.835,10.81 L20.1960261,10.8046422 L20.1960261,10.4714396 C20.1960261,9.87516793 20.0164064,9.43673573 19.657167,9.15614305 C19.2979276,8.87554383 18.7414877,8.73524422 17.9878474,8.73524422 L11.5332103,8.73524422 L11.5332103,7.75316003 C11.9197903,6.95036462 12.5133371,6.18068126 13.3138507,5.44410995 C14.1143643,4.70753863 14.9285219,4.17947838 15.7563237,3.8599292 L16.1429004,4.77187013 C15.4048888,5.0680611 14.688362,5.50456475 13.9933198,6.0813811 C13.2982776,6.65816475 12.8101891,7.23103903 12.5290543,7.80000392 L17.9879947,7.80000392 C19.0383855,7.80000392 19.838886,8.01629779 20.3894962,8.44888553 C20.9400737,8.88147327 21.2153624,9.49527181 21.2153624,10.2902811 L21.2153624,10.8047011 L22.6796278,10.8047011 C22.6933281,10.8047011 22.7046248,10.8066206 22.713518,10.8104598 L24.5124799,10.8107122 L24.5124799,5.94118282 L25.5785256,5.94118282 L25.5785256,10.8107122 L32.3962077,10.8107122 C32.1033481,10.5184241 31.8514862,9.78770376 31.640622,8.61855124 C31.5234782,7.92872249 31.3536182,7.44547627 31.1310423,7.16881258 C30.9084664,6.89210966 30.5746024,6.7537582 30.1294505,6.7537582 C29.5749692,6.7537582 28.9951123,6.9135426 28.38988,7.23311139 L27.974014,6.4088569 C28.3176378,6.18671531 28.6632266,6.03277536 29.0107804,5.94703708 C29.362212,5.86129879 29.7390125,5.81842965 30.1411819,5.81842965 C30.6292835,5.81842965 31.0373285,5.90611935 31.3653169,6.08149877 C31.6933184,6.25687165 31.9529882,6.51798281 32.1443262,6.86483227 C32.3395681,7.20778542 32.4879499,7.7007724 32.5894715,8.34379321 C32.7066154,9.05696056 32.8374262,9.60842478 32.9819041,9.99818587 C33.1302859,10.3840049 33.3001458,10.6626527 33.4914838,10.8341293 L33.4914838,11.7460702 L22.5678552,11.746031 L22.54,11.74 L10.0329749,11.7413559 C10.025055,11.7444726 10.0155734,11.746031 10.0045302,11.746031 L5.79320719,11.746031 L5.76059991,11.7395371 L4.93183237,11.7398629 L4.93183237,12.0263099 C4.9317243,12.8408857 4.68962546,13.476127 4.2054278,13.9321121 C3.72513405,14.3880842 3.04374903,14.6160703 2.16127273,14.6160703 C1.34518275,14.6160703 0.624758505,14.4114686 1.90070182e-13,14.0022652 L0.48029047,13.2013885 C0.738008266,13.3377919 1.00353391,13.4508108 1.27686739,13.5404454 C1.55020742,13.6339763 1.85283015,13.6807417 2.18473556,13.6807417 C2.72750515,13.6807417 3.15313744,13.5345977 3.46163242,13.2423095 C3.7701143,12.9539177 3.92435525,12.5680791 3.92435525,12.0847936 L3.92435525,11.7398923 L2.74708699,11.7398923 C1.89582241,11.7398923 1.23592206,11.5060618 0.767385933,11.0384008 C0.302714426,10.5707398 0.0703786723,9.89457427 0.0703786723,9.00990419 C0.0703786723,8.0706728 0.369097473,7.32436072 0.966535076,6.77096796 C1.56397268,6.21366583 2.36250811,5.93501476 3.36214137,5.93501476 L4.93183237,5.93501476 L4.93183237,10.8045442 L5.91583684,10.8045442 C5.92953711,10.8045442 5.94083383,10.8064637 5.94972699,10.8103029 L7.37459031,10.8107122 L7.37459031,2.65004854 L8.4406361,2.65004854 Z M29.1454068,12.8742854 C29.3562644,12.8742854 29.5202651,12.9385907 29.637409,13.0672014 C29.7584568,13.1958056 29.8189807,13.3692303 29.8189807,13.5874756 C29.8189807,13.8057209 29.7604087,13.9791456 29.6432649,14.1077498 C29.526121,14.2402568 29.360165,14.3065103 29.1453969,14.3065103 C28.9579792,14.3065103 28.7978824,14.2500008 28.6651163,14.1369819 C28.5362607,14.0239629 28.4718329,13.8407942 28.4718329,13.5874756 C28.4718329,13.3380534 28.5362607,13.1568327 28.6651163,13.0438138 C28.7978824,12.9307949 28.9579792,12.8742854 29.1454068,12.8742854 Z M31.2188412,12.8742854 C31.4296989,12.8742854 31.5936996,12.9385907 31.7108435,13.0672014 C31.8318913,13.1958056 31.8924151,13.3692303 31.8924151,13.5874756 C31.8924151,13.8057209 31.8338432,13.9791456 31.7166994,14.1077498 C31.5995555,14.2402568 31.4335995,14.3065103 31.2188314,14.3065103 C31.0118875,14.3065103 30.8478868,14.2441531 30.726839,14.1194387 C30.6057912,13.9947308 30.5452673,13.8174098 30.5452673,13.5874756 C30.5452673,13.3614377 30.6057912,13.1860648 30.726839,13.061357 C30.8478868,12.9366426 31.0118875,12.8742854 31.2188412,12.8742854 Z M24.043911,12.7047766 C24.2469608,12.7047766 24.4090096,12.7651856 24.5300573,12.8860037 C24.6511051,13.0107116 24.711629,13.1899807 24.711629,13.4238113 C24.711629,13.6537455 24.6511051,13.8310698 24.5300573,13.9557841 C24.4129135,14.080492 24.2508647,14.1428459 24.043911,14.1428459 C23.8564769,14.1428459 23.6963801,14.0863365 23.5636205,13.9733175 C23.4347649,13.8602986 23.3703371,13.6771298 23.3703371,13.4238113 C23.3703371,13.1704927 23.4347649,12.9873239 23.5636205,12.874305 C23.6963866,12.761286 23.8564834,12.7047766 24.043911,12.7047766 Z M26.1173553,12.7047766 C26.3321234,12.7047766 26.4980794,12.7690819 26.6152232,12.8976926 C26.7323671,13.0301996 26.790939,13.2055725 26.790939,13.4238113 C26.790939,13.6420565 26.7323671,13.8154813 26.6152232,13.9440854 C26.4980794,14.0765924 26.3321234,14.1428459 26.1173553,14.1428459 C25.9103918,14.1428459 25.746391,14.080492 25.6253432,13.9557841 C25.5042955,13.8310698 25.4437716,13.6537455 25.4437716,13.4238113 C25.4437716,13.1938771 25.5023435,13.016556 25.6194874,12.8918482 C25.7405351,12.7671338 25.9064911,12.7047766 26.1173553,12.7047766 Z M3.91254523,6.86453808 L3.39710963,6.86453808 C2.68641245,6.86453808 2.13193764,7.05160314 1.7336852,7.42573325 C1.33929739,7.79986337 1.14210348,8.32403385 1.14210348,8.9982447 C1.14210348,9.62179707 1.27681826,10.0797108 1.54624782,10.3719858 C1.81958786,10.6603777 2.23153022,10.8045736 2.78207491,10.8045736 L3.91247645,10.8045736 L3.91254523,6.86453808 Z M28.8354183,17.3453328 L31.6469299,16.2989203 L31.6469299,16.947802 L28.8354183,18 L28.8354183,17.3452641 L28.8354183,17.3453328 Z" id="wikipedia-tagline-sd" fill="#000000" fill-rule="nonzero"></path>
    </g>
</svg>