<?xml version="1.0" encoding="UTF-8"?>
<svg width="120px" height="18px" viewBox="0 0 120 18" version="1.1" xmlns="http://www.w3.org/2000/svg" xmlns:xlink="http://www.w3.org/1999/xlink">
    <title>kbp-wordmark</title>
    <g id="Page-1" stroke="none" stroke-width="1" fill="none" fill-rule="evenodd">
        <path d="M18.5383985,0.00112911908 L18.9135792,0.00178235964 C18.9732291,0.00189620068 19.0313016,0.00201169758 19.0875904,0.00212760845 L19.40227,0.00281810608 C19.4505996,0.00293070521 19.4967331,0.0030412345 19.5404646,0.00314845206 L19.8636238,0.00399046175 L19.9025275,0.00409928343 L20.0350003,0.00448722263 L20.092549,0.0579973525 L20.092549,0.558771398 C20.092549,0.697090036 20.0148078,0.765744542 19.8613448,0.765744542 C19.1081645,0.801081421 18.9536919,0.875793678 18.6780642,1.27257634 C18.5276301,1.48964573 18.2308003,1.9550829 17.9228646,2.47705907 L15.2796662,7.42018353 C15.2796662,7.42018353 15.2535083,7.47482856 15.2049596,7.57604976 L18.4357542,14.1887101 L18.6316215,14.2422203 L23.7201319,2.16609455 C23.8968163,1.67945525 23.8695564,1.33416347 23.6423908,1.13122883 C23.4142155,0.933342308 23.2536851,0.816225797 22.6640641,0.791994795 L22.1865114,0.767763793 C22.1279532,0.767763793 22.0724238,0.746561666 22.0189136,0.707186287 C21.9664131,0.669830159 21.9391533,0.620358529 21.9391533,0.560790649 L21.9391533,0.0579973525 L22.0118463,0.00650647282 L27.7606515,0.00650647282 L27.8192098,0.0579973525 L27.8192098,0.560790649 C27.8192098,0.697090036 27.7414687,0.765744542 27.5880057,0.765744542 C26.8348253,0.79906217 26.2765027,0.962621435 25.9150569,1.25440309 C25.5526015,1.54820399 25.2699064,1.95306365 25.0669718,2.47907832 C25.0669718,2.47907832 23.650027,5.72230763 22.1087312,9.23263778 L21.8767657,9.76081855 C21.7604783,10.0255385 21.6438549,10.2909239 21.5274409,10.5557192 L21.2594131,11.1651661 C20.2798274,13.3917725 19.3452661,15.506976 18.7860941,16.750129 C18.1732517,17.9172556 17.5705055,17.8102354 17.0404523,16.7168114 C16.3766807,15.349765 14.9982916,12.3345568 13.9858496,10.1057699 C13.6903847,10.7146673 13.3652944,11.3825273 13.0338061,12.0595512 L12.7010454,12.7377853 C11.9236422,14.318852 11.1535593,15.8594355 10.685872,16.7269076 C9.97105741,17.9697561 9.38244599,17.8072065 8.91397994,16.7592156 C7.28747392,12.9216307 3.94763411,6.18339279 2.37564784,2.40739494 C2.08487582,1.71176325 1.86578717,1.26550896 1.65881403,1.08882457 C1.45083126,0.914159431 1.01871172,0.809158421 0.361445783,0.773821543 C0.120145386,0.747571291 0,0.689013035 0,0.594108277 L0,0.0680936035 L0.0585582554,0.0166027237 C0.184464443,0.0158900472 0.367245014,0.0153450593 0.591775113,0.0149381678 L1.59992317,0.0140018551 L1.71544117,0.0139660787 L2.56914271,0.0139519184 C2.65310106,0.0139681016 2.73754182,0.0139887544 2.82222867,0.0140134145 L4.5557676,0.014961749 L4.66951007,0.0150494272 L5.73057418,0.0159909994 L5.8051441,0.0160654999 L6.30813758,0.0166027237 L6.36669583,0.0680936035 L6.36669583,0.568867649 C6.36669583,0.707186287 6.27885845,0.773821543 6.10621256,0.773821543 L5.45399475,0.801081421 C4.89466245,0.824302798 4.6149963,0.991900563 4.6149963,1.30185547 C4.6149963,1.44623185 4.67355455,1.68046488 4.80379619,1.99647753 C5.27866813,3.15340344 6.19556978,5.18334893 7.15084543,7.25756902 L7.4120233,7.82374048 C8.89398552,11.0312091 10.3799556,14.1644791 10.3799556,14.1644791 L10.5384667,14.2058738 L13.3246182,8.64751414 C12.9845231,7.89615879 12.7677189,7.4151354 12.7677189,7.4151354 L10.8514505,3.64923381 C10.8514505,3.64923381 10.4809181,2.89605349 10.3547149,2.64566646 C9.51268762,0.976756187 9.53086087,0.887909179 8.67974692,0.775840793 C8.4414754,0.744542415 8.31830114,0.714253663 8.31830114,0.596127527 L8.31830114,0.0680936035 L8.38998452,0.0166027237 L8.90249546,0.0160555069 L8.99666849,0.0159752324 L10.7999192,0.0150196316 L10.9094928,0.0149842854 L13.349263,0.0145834736 L13.4805142,0.0579973525 L13.4805142,0.584012026 C13.4805142,0.704157412 13.3946961,0.765744542 13.220031,0.765744542 L12.8606044,0.817235422 C11.9519418,0.887909179 12.1003567,1.25945121 12.7041125,2.4619147 L14.542,6.221 L16.5760248,2.1640753 C16.8935855,1.47147248 16.854071,1.26347176 16.7332912,1.09926993 L16.7062664,1.06459357 C16.6254964,0.967669561 16.3549169,0.813196922 15.7663054,0.78896592 L15.5351013,0.763725292 C15.476543,0.763725292 15.4220233,0.74353279 15.3685132,0.704157412 C15.3160127,0.666801283 15.2897624,0.618339279 15.2897624,0.556752148 L15.2897624,0.0559781024 L15.3614458,0.00448722263 C15.6096743,0.00274648972 15.9112353,0.00160600953 16.2403592,0.000910544295 L18.339703,0.000836030163 C18.4069626,0.000928758861 18.4732632,0.00102686913 18.5383985,0.00112911908 Z M111.416167,0.119584483 C111.782661,0.119584483 111.914922,0.383096632 112.123915,0.90810168 L117.505216,15.1357385 C117.87373,16.160508 118.398735,16.5532521 119.448745,16.6582531 L119.737497,16.6834938 C119.868749,16.6834938 120,16.7622445 120,16.8945054 L120,17.3922506 L119.921249,17.4447511 C119.921249,17.4447511 118.071921,17.3967166 117.015163,17.3925397 L116.87622,17.3922506 C116.582217,17.3922506 116.118765,17.3976266 115.624418,17.404938 L115.250029,17.4107307 C114.310399,17.4258509 113.383927,17.4447511 113.383927,17.4447511 L113.358686,17.3922506 L113.358686,16.8945054 C113.358686,16.7622445 113.411187,16.6834938 113.544457,16.6834938 L114.279464,16.6309932 C115.275964,16.5532521 115.645487,16.2362298 115.381975,15.5022324 L113.780709,11.0649301 L108.320657,11.0649301 C107.690651,11.0649301 107.533149,11.1699311 107.402908,11.5101748 L105.879383,15.317471 C105.616881,15.9757466 105.958134,16.5542617 106.929394,16.6330125 L107.690651,16.6865226 C107.795652,16.6865226 107.900653,16.7652734 107.900653,16.895515 L107.900653,17.3942698 L107.848152,17.4477799 C107.848152,17.4477799 107.074463,17.4333108 106.243137,17.4194204 L105.857963,17.4131054 C105.281886,17.4038588 104.730983,17.3959993 104.442854,17.3945198 L104.356869,17.3942698 C104.141022,17.3942698 103.8258,17.399606 103.495493,17.4069082 L103.163278,17.4147408 C102.556444,17.4298444 101.993336,17.4477799 101.993336,17.4477799 L101.939826,17.3942698 L101.939826,16.895515 C101.939826,16.7652734 102.018577,16.6865226 102.150838,16.6865226 C103.306859,16.6077719 103.961096,16.3967602 104.696103,14.7167441 L110.522649,1.06560319 C110.810392,0.383096632 111.021404,0.119584483 111.416167,0.119584483 Z M69.0774483,5.15361558 C69.134997,5.15361558 69.1616511,5.17229364 69.1586222,5.2098517 C69.1819602,5.31164546 69.2275422,5.56165868 69.2953823,5.95987708 L69.3589823,6.33750196 C69.4625395,6.95838101 69.544511,7.48901977 69.6049875,7.92937785 C69.4081712,8.02115277 69.1849936,8.052855 68.9354446,8.02317202 C68.7397287,7.37184268 68.4920273,6.86933208 68.1923504,6.51570079 C67.8926937,6.16205941 67.3761392,5.98285096 66.6427778,5.97881246 L64.5123679,5.97881246 C64.2688968,5.98508223 64.086296,6.06640753 63.9645655,6.22263692 C63.842835,6.37895717 63.7819546,6.57275471 63.7819546,6.80408001 L63.7819546,10.5552411 L65.628256,10.5552411 C66.4559568,10.5682652 66.971643,10.4846178 67.1753853,10.3060555 C67.3791378,10.1274629 67.4786868,9.78594714 67.4746483,9.28148796 C67.5481894,9.22525185 67.6597833,9.1971035 67.8094198,9.19708331 C67.9590563,9.19708331 68.0706906,9.22525185 68.1441913,9.28148796 C68.1335902,9.55502569 68.1244026,9.81447915 68.1163256,10.0598584 C68.1087534,10.3052478 68.1041193,10.58345 68.1037053,10.8944852 C68.1041092,11.2012194 68.1082486,11.4739696 68.1163256,11.7126955 C68.1243017,11.9514617 68.1336912,12.2288764 68.1441913,12.54499 C68.0706401,12.6012261 67.9590563,12.6293947 67.8094198,12.6293947 C67.6597934,12.6293947 67.54825,12.6012261 67.4746483,12.54499 C67.4788685,12.1226033 67.3791176,11.8045209 67.1753853,11.5908034 C66.971643,11.3770759 66.4559669,11.2699951 65.6283368,11.2696013 L63.7820354,11.2696013 L63.7820354,15.7896928 C63.7845696,16.0448453 63.8505082,16.2425299 63.9798613,16.3828274 C64.1091943,16.5229836 64.2867268,16.5941621 64.5124487,16.5961814 L67.2717541,16.5961814 C68.0317493,16.57821 68.6167564,16.3375154 69.0267854,15.8740874 C69.436784,15.4106695 69.7377331,14.832336 69.9296527,14.1391477 C70.1937403,14.0851428 70.4304469,14.1162796 70.6397826,14.2329418 C70.5552265,14.7233167 70.4453288,15.2476554 70.3100794,15.8060387 C70.1748099,16.3643916 70.034472,16.8840861 69.8890759,17.3651017 C69.8417244,17.3631835 69.5306186,17.3575296 68.9557683,17.3463227 C68.3808878,17.3346111 67.8262805,17.3295629 67.2920071,17.3275437 L62.9074645,17.3276667 C62.8163148,17.3284009 62.5084408,17.3323899 61.9838426,17.3387505 C61.4009861,17.3458179 60.83706,17.3555103 60.2922158,17.3645969 C60.2314364,17.2966088 60.2009457,17.1933544 60.2009457,17.0551166 C60.2009457,16.9168888 60.2313354,16.813695 60.2922158,16.7456463 C60.9871407,16.7472011 61.4588679,16.6503074 61.7074073,16.4549348 C61.9559467,16.2595724 62.0726392,15.7874919 62.0573938,15.0388347 L62.0573938,7.5177335 C62.0726089,6.76904602 61.9559467,6.2970059 61.7074073,6.10163335 C61.4588376,5.90622041 60.9871205,5.80889255 60.2922158,5.8109118 C60.2314364,5.74294384 60.2009457,5.63968948 60.2009457,5.50145162 C60.2009457,5.36322385 60.2313354,5.26003006 60.2922158,5.19198133 C60.8450865,5.200967 61.4081544,5.21076036 61.9813186,5.21782774 C62.5544928,5.22499607 62.8639227,5.22866101 62.9095578,5.22903457 L68.0832806,5.22903457 C68.3161708,5.22903457 68.4996096,5.22338067 68.6336272,5.21217384 C68.7676146,5.20086603 68.9155651,5.18138027 69.0774483,5.15361558 Z M71.6101636,5.1918097 C72.0996601,5.20079536 72.5358787,5.21058872 72.9188396,5.2176561 C73.2252164,5.22339077 73.5656717,5.22688326 73.9402158,5.22824214 L74.2275156,5.22886294 C74.6320724,5.22811582 75.1265666,5.22246191 75.7111597,5.21125508 C76.2957327,5.19954343 76.9170963,5.1944953 77.5752305,5.19247605 C79.5711584,5.23942362 81.2247224,5.86306904 82.5359225,7.06341231 C83.8470721,8.26375558 84.5267012,9.75951516 84.5749613,11.550691 C84.5459851,13.075023 84.1845696,14.2609892 83.4906239,15.1087108 C82.7966077,15.956392 81.9437773,16.5477699 80.9319311,16.882824 C79.9200848,17.2178782 78.9229286,17.3780552 77.9404119,17.3649301 C76.9191761,17.3630118 76.1363532,17.3573579 75.591923,17.3461511 C75.0475331,17.3344394 74.5994817,17.3293913 74.2478091,17.3273721 C73.747338,17.3273721 73.3026688,17.3315115 72.9137915,17.3385789 C72.5248738,17.3456463 72.0903413,17.3553387 71.6101636,17.3644253 C71.5493841,17.296427 71.5188935,17.1931828 71.5188935,17.0549449 C71.5188935,16.9167171 71.5492832,16.8135234 71.6101636,16.7454746 C72.3050885,16.7470295 72.7768055,16.6501357 73.0253551,16.4547531 C73.2738945,16.2592897 73.3905869,15.7873101 73.3753416,15.0386529 L73.3753416,7.51755177 C73.3905566,6.76886428 73.2738945,6.29683426 73.0253551,6.10145162 C72.7767854,5.90604878 72.3050784,5.80872092 71.6101636,5.81074017 C71.5493841,5.74276211 71.5188935,5.63951785 71.5188935,5.50127998 C71.5188935,5.36305221 71.5492832,5.25985843 71.6101636,5.1918097 Z M42.8459952,5.19102219 C42.9068453,5.2591214 42.9372834,5.36218393 42.9372956,5.50060353 C42.9372754,5.63900294 42.9068453,5.74211595 42.8459952,5.81006372 C42.4393686,5.83742456 42.0149828,5.90927958 41.5728579,6.02574993 C41.1307532,6.14221018 40.6759373,6.42041238 40.2084506,6.86039689 L37.3679713,9.69249624 C37.0464259,10.0122546 36.8383725,10.2317673 36.7438211,10.3510545 C36.6492697,10.4702912 36.607128,10.5571089 36.6172747,10.6115277 C36.6159925,10.6850486 36.6337518,10.7584079 36.6705324,10.8319086 C36.7072929,10.9054295 36.7706973,10.988138 36.8607458,11.0804178 L41.3041058,15.956907 C41.6540116,16.328035 41.991398,16.5507684 42.316255,16.6250768 C42.6410816,16.6993146 42.898849,16.738488 43.0895268,16.7445458 C43.1503668,16.812544 43.1808272,16.9156066 43.1808272,17.0540262 C43.1808272,17.1922539 43.1503769,17.2955487 43.0895268,17.3634964 C42.6364172,17.3545108 42.2745877,17.3447174 42.0040789,17.33765 C41.7335498,17.3304817 41.4122972,17.3268168 41.0403413,17.3264432 C40.7427543,17.3264432 40.4908326,17.3305827 40.2845662,17.33765 C40.0782796,17.3447174 39.8770815,17.3544098 39.6809618,17.3634964 C39.6412129,17.3621839 39.6142054,17.3505732 39.5997981,17.3282605 C39.5853604,17.3061497 39.5786484,17.2803033 39.5795046,17.2510242 C39.5878037,17.0761269 39.5706603,16.8744946 39.5280137,16.6461376 C39.4853571,16.4177907 39.3672612,16.1880303 39.1737161,15.9568767 L35.8665881,12.2432737 C35.6640271,12.003942 35.4279969,11.8276009 35.1584977,11.7141291 C34.8889884,11.6006372 34.5839705,11.5394539 34.2434543,11.5323865 L34.2432826,15.0378654 C34.2280575,15.7865731 34.3447197,16.2586031 34.5932692,16.4539656 C34.8418389,16.6493785 35.3135458,16.7467064 36.0084607,16.7446871 C36.069331,16.8126753 36.099757,16.9157378 36.0997611,17.0541574 C36.0997611,17.1923852 36.069331,17.2956799 36.0084607,17.3636277 C35.5189641,17.354642 35.0827455,17.3448487 34.6997846,17.3377813 C34.3168035,17.330613 33.8805849,17.326948 33.3911086,17.3265745 C32.8906374,17.3265745 32.4459682,17.3307139 32.0570909,17.3377813 C31.6681632,17.3448487 31.2336407,17.3545411 30.753463,17.3636277 C30.6925927,17.2956395 30.6621626,17.1923852 30.6621626,17.0541574 C30.6621626,16.9159296 30.6925927,16.8127359 30.753463,16.7446871 C31.448388,16.746242 31.920105,16.6493482 32.1686545,16.4539656 C32.4171939,16.2586031 32.5338561,15.7865327 32.518641,15.0378654 L32.518641,7.51676426 C32.5338561,6.76807678 32.4171939,6.29604676 32.1686545,6.10066411 C31.9200848,5.90526127 31.4483678,5.80793341 30.753463,5.80995266 C30.6925927,5.7419746 30.6621626,5.63872024 30.6621626,5.50049247 C30.6621626,5.3622647 30.6925927,5.25907092 30.753463,5.19102219 C31.2429595,5.20000785 31.6791782,5.20980122 32.0621391,5.21686859 C32.4451201,5.22403693 32.8813388,5.22770187 33.3708151,5.22807543 C33.8712762,5.22807543 34.3159554,5.22393597 34.7048327,5.21686859 C35.0937504,5.20980122 35.5282729,5.20010882 36.0084607,5.19102219 C36.069331,5.25901034 36.099757,5.36207287 36.0997611,5.50049247 C36.0997611,5.63889188 36.069331,5.74200489 36.0084607,5.80995266 C35.3135357,5.80840793 34.8418086,5.90530165 34.5932692,6.10066411 C34.3447298,6.29612753 34.2280676,6.76811716 34.2432826,7.51676426 L34.2432826,10.8121806 C34.592724,10.7819423 34.8875042,10.7032117 35.1276435,10.5758576 C35.3677728,10.4485641 35.5869826,10.2853784 35.7852729,10.0863409 L39.1938682,6.78537165 C39.6429293,6.31054497 39.7617823,6.03084853 39.5504476,5.94604003 C39.3390927,5.86125171 39.0308642,5.81612147 38.6257623,5.81006372 C38.564892,5.74208566 38.5344538,5.6388313 38.5344619,5.50060353 C38.5344619,5.36237576 38.564892,5.25918198 38.6257623,5.19102219 C39.0877869,5.20011891 39.487659,5.20991227 39.8253988,5.21697965 C40.1631588,5.22414799 40.5275224,5.22781293 40.9185199,5.22818649 C41.2942822,5.22818649 41.5977755,5.22404703 41.8289998,5.21697965 C42.0601938,5.20991227 42.3991957,5.20021987 42.8459952,5.19102219 Z M91.0916369,5.19123421 C91.1525173,5.25922236 91.182907,5.36228489 91.182907,5.50070449 C91.182907,5.6391039 91.1525173,5.74221691 91.0916369,5.81016468 C90.396712,5.80861995 89.9249849,5.90551367 89.6764454,6.10087613 C89.427906,6.29633955 89.3112136,6.76832918 89.3264589,7.51697629 L89.3264589,15.0380774 C89.3112338,15.7867851 89.4278959,16.2588151 89.6764454,16.4541776 C89.9250151,16.6495905 90.3967221,16.7469184 91.0916369,16.7448991 C91.1525173,16.8128873 91.182907,16.9159498 91.182907,17.0543694 C91.182907,17.1926073 91.1525173,17.2959929 91.0916369,17.3638397 C90.6021303,17.3548541 90.1659117,17.3450607 89.7829609,17.3379933 C89.3999798,17.330724 88.9637612,17.3270591 88.4742848,17.3266855 C87.9738137,17.3266855 87.5291445,17.3309259 87.1402672,17.3379933 C86.7513495,17.3450607 86.316817,17.3547531 85.8366393,17.3638397 C85.7758599,17.2958516 85.7453692,17.1926073 85.7453692,17.0543694 C85.7453692,16.9161417 85.7757589,16.8129479 85.8366393,16.7448991 C86.5315642,16.746454 87.0032813,16.6495603 87.2518308,16.4541776 C87.5003702,16.2588151 87.6170627,15.7867447 87.6018173,15.0380774 L87.6018173,7.51697629 C87.6170324,6.7682888 87.5003702,6.29625878 87.2518308,6.10087613 C87.0032611,5.90547329 86.5315541,5.80814543 85.8366393,5.81016468 C85.7758599,5.74218662 85.7453692,5.63894236 85.7453692,5.50070449 C85.7453692,5.36247672 85.7757589,5.25928294 85.8366393,5.19123421 C86.3261257,5.20021987 86.7623443,5.21001324 87.1453153,5.21708061 C87.5282863,5.22424895 87.9645049,5.22791389 88.4539914,5.22828745 C88.9544524,5.22828745 89.3991317,5.22414799 89.788009,5.21708061 C90.1769267,5.21001324 90.6114491,5.20032084 91.0916369,5.19123421 Z M48.9278051,5.19096161 C48.9886855,5.25894977 49.0190752,5.36201229 49.0190752,5.5004319 C49.0190752,5.6388313 48.9886855,5.74194431 48.9278051,5.80989208 C48.23287,5.80834736 47.761153,5.90524108 47.5126136,6.10060353 C47.2640641,6.29606695 47.1473716,6.76805658 47.1626169,7.51670369 L47.1626169,15.0378049 C47.1474019,15.7865125 47.2640641,16.2585426 47.5126136,16.453905 C47.7611833,16.6493179 48.2328902,16.7466458 48.9278051,16.7446266 C48.9886855,16.8126147 49.0190752,16.9156772 49.0190752,17.0540968 C49.0190752,17.1923347 48.9886855,17.2957203 48.9278051,17.3635671 C48.4382984,17.3545815 48.0020798,17.3447881 47.619129,17.3377207 C47.2361479,17.3304514 46.7999293,17.3267865 46.310453,17.3264129 C45.8099818,17.3264129 45.3653126,17.3306533 44.9764354,17.3377207 C44.5875177,17.3447881 44.1529851,17.3544805 43.6728074,17.3635671 C43.6119371,17.295579 43.581507,17.1923347 43.581507,17.0540968 C43.581507,16.9158691 43.6119371,16.8126753 43.6728074,16.7446266 C44.3677324,16.7461814 44.8394494,16.6492877 45.0879989,16.453905 C45.3365383,16.2585426 45.4532005,15.7864721 45.4379855,15.0378049 L45.4379855,7.51670369 C45.4532005,6.7680162 45.3365383,6.29598618 45.0879989,6.10060353 C44.8394292,5.90520069 44.3677122,5.80787283 43.6728074,5.80989208 C43.6119371,5.74191402 43.581507,5.63866976 43.581507,5.5004319 C43.581507,5.36220412 43.6119371,5.25901034 43.6728074,5.19096161 C44.162304,5.19994728 44.5985226,5.20974064 44.9814835,5.21680801 C45.3644646,5.22397635 45.8006832,5.22764129 46.2901595,5.22801485 C46.6905364,5.22801485 47.0552001,5.2253656 47.3841557,5.2206874 L47.9244173,5.21106577 C48.2332101,5.2049323 48.5676642,5.19777658 48.9278051,5.19096161 Z M95.9585347,5.19130488 C96.0194151,5.25929304 96.0498048,5.36235557 96.0498048,5.50077517 C96.0498048,5.63917458 96.0194151,5.74227749 95.9585347,5.81022526 C95.3918624,5.81456665 95.0329104,5.84061497 94.8816686,5.88806735 C94.7304267,5.93559041 94.778283,6.14723811 95.0252171,6.52296 L97.5857273,10.6867548 C97.6708589,10.8394808 97.7440668,10.922573 97.805351,10.9376164 C97.8666454,10.9520843 97.9409033,10.8808856 98.0280339,10.7242725 L100.442451,6.52302057 C100.656795,6.15138767 100.66678,5.94102219 100.472336,5.89165152 C100.277893,5.84238182 99.9500572,5.81633349 99.4888201,5.81027574 C99.4279397,5.74308519 99.3975399,5.64299096 99.39755,5.51019497 C99.39755,5.37739898 99.4279397,5.27724417 99.4888201,5.2101041 C99.8916706,5.21989747 100.242505,5.22494559 100.541354,5.22696484 C100.840193,5.22861053 101.104796,5.22937785 101.335172,5.22898409 L101.843242,5.2283858 L102.123921,5.22696484 C102.413452,5.22514752 102.711877,5.21919073 103.019186,5.2101041 C103.079966,5.27732494 103.110456,5.37739898 103.110456,5.51019497 C103.110456,5.6431525 103.080067,5.74313567 103.019186,5.81027574 C102.584512,5.82453165 102.24864,5.8688239 102.01157,5.94343519 C101.77447,6.01808687 101.523306,6.2800543 101.258077,6.72931727 L98.6671771,11.0619214 C98.4730666,11.366596 98.3627044,11.5661585 98.3359494,11.6604575 C98.3090934,11.7548271 98.3014202,11.9698268 98.3121222,12.3054262 L98.3120112,15.0380774 C98.2925557,15.7867851 98.4176785,16.2588151 98.6873595,16.4541776 C98.9570304,16.6495905 99.4879114,16.7469184 100.280043,16.7448991 C100.340923,16.8128873 100.371303,16.9159498 100.371313,17.0543694 C100.371313,17.1926073 100.340923,17.295902 100.280043,17.3638498 C99.7871845,17.3548641 99.3273003,17.3450708 98.9003904,17.3380034 C98.4735209,17.3308351 97.9932927,17.3271701 97.4598573,17.3267966 C96.9154473,17.3267966 96.4268089,17.330936 95.9939826,17.3380034 C95.5611261,17.3450708 95.1029279,17.3547632 94.6193781,17.3638498 C94.5585986,17.2958516 94.528108,17.1926073 94.528108,17.0543694 C94.528108,16.9161417 94.5584977,16.8129479 94.6193781,16.7448991 C95.4114693,16.746454 95.9423807,16.6495603 96.2120617,16.4541776 C96.4817426,16.2588151 96.6068957,15.7867447 96.58741,15.0380774 L96.5870473,12.3157487 C96.5821347,12.0741272 96.5556741,11.8980122 96.5075486,11.7875087 C96.4498486,11.6548541 96.3344585,11.462995 96.1613684,11.2119517 L93.4973716,7.0669359 C93.1110386,6.45685984 92.7977317,6.09401068 92.5574813,5.97866101 C92.3172208,5.86312961 91.9968163,5.80618676 91.5962678,5.81022526 C91.5344989,5.7422573 91.5008784,5.63900294 91.4948206,5.50077517 C91.4888638,5.3625474 91.5160228,5.25935362 91.5759945,5.19130488 C91.8790637,5.20029055 92.2011543,5.21008391 92.5422663,5.21715129 C92.8833681,5.22431962 93.251114,5.22798456 93.6454836,5.22835813 C94.046224,5.22835813 94.4317191,5.22421866 94.8020092,5.21715129 C95.1723194,5.21008391 95.5578145,5.20039151 95.9585347,5.19130488 Z M55.0525745,5.09730879 C56.8841354,5.15788629 58.1107693,5.53850486 58.732557,6.23909381 C59.3543347,6.93967266 59.642623,7.59693859 59.5973918,8.21079065 C59.6278825,9.06776043 59.2879922,9.90469924 58.5778724,10.7217283 C57.8677021,11.5387775 56.6047621,11.9770961 54.7888504,12.0369669 C54.4375917,12.0373707 54.1307162,12.0225292 53.8682338,11.9923414 C53.6057313,11.9623354 53.3647944,11.9147416 53.145423,11.8494189 L53.1459259,15.2348927 C53.1608067,15.8685203 53.3077322,16.2725314 53.58671,16.4469487 C53.893535,16.638727 54.4363196,16.7376298 55.2149324,16.7446972 C55.2758127,16.8126854 55.3061924,16.9157479 55.3062025,17.0541675 C55.3062025,17.1924054 55.2758127,17.295791 55.2149324,17.3636378 C54.7203675,17.3546521 54.2486404,17.3448588 53.7997409,17.3377914 C53.3508615,17.3305221 52.8486942,17.3268571 52.2932793,17.3264836 C51.7928182,17.3264836 51.3481389,17.330724 50.9592616,17.3377914 C50.5703338,17.3448588 50.1358114,17.3545512 49.6556337,17.3636378 C49.5947533,17.2956496 49.5643636,17.1924054 49.5643636,17.0541675 C49.5643636,16.9159397 49.5947533,16.812746 49.6556337,16.7446972 C50.3505587,16.746252 50.8222858,16.6493583 51.0708252,16.4539757 C51.3193646,16.2586132 51.4360571,15.7865428 51.4208117,15.0378755 L51.4207007,7.51724888 C51.4359157,6.7685614 51.3192536,6.29653138 51.0707141,6.10114873 C50.8221444,5.90574589 50.3504274,5.80841803 49.6555226,5.81043728 C49.5946423,5.74245922 49.5642525,5.63921496 49.5642525,5.50097709 C49.5642525,5.36274932 49.5946423,5.25955554 49.6555226,5.19150681 C50.1450192,5.20049247 50.5812378,5.21028584 50.9641987,5.21735321 C51.3471697,5.22452155 51.7833883,5.22818649 52.2728747,5.22856005 C52.7108501,5.22310807 53.2095847,5.20119921 53.7692401,5.16293442 C54.3289157,5.12466963 54.7566837,5.10336654 55.0525745,5.09730879 Z M29.985209,5.19096161 C30.0460793,5.25894977 30.0765094,5.36201229 30.0765094,5.5004319 C30.0765094,5.6388313 30.0460793,5.74194431 29.985209,5.80989208 C29.290284,5.80834736 28.8185569,5.90524108 28.5700175,6.10060353 C28.3214781,6.29606695 28.2048159,6.76805658 28.220031,7.51670369 L28.220031,15.0378049 C28.2048058,15.7865125 28.321468,16.2585426 28.5700175,16.453905 C28.8185872,16.6493179 29.2902941,16.7466458 29.985209,16.7446266 C30.0460793,16.8126147 30.0765094,16.9156772 30.0765094,17.0540968 C30.0765094,17.1923347 30.0460793,17.2957203 29.985209,17.3635671 C29.4957125,17.3545815 29.0594938,17.3447881 28.6765329,17.3377207 C28.2935519,17.3304514 27.8573332,17.3267865 27.3678569,17.3264129 C26.8673857,17.3264129 26.4227166,17.3306533 26.0338393,17.3377207 C25.6449115,17.3447881 25.210389,17.3544805 24.7302113,17.3635671 C24.6693411,17.295579 24.638911,17.1923347 24.638911,17.0540968 C24.638911,16.9158691 24.6693411,16.8126753 24.7302113,16.7446266 C25.4251363,16.7461814 25.8968533,16.6492877 26.1454028,16.453905 C26.3939422,16.2585426 26.5106044,15.7864721 26.4953894,15.0378049 L26.4953894,7.51670369 C26.5106044,6.7680162 26.3939422,6.29598618 26.1454028,6.10060353 C25.8968331,5.90520069 25.4251161,5.80787283 24.7302113,5.80989208 C24.6693411,5.74191402 24.638911,5.63866976 24.638911,5.5004319 C24.638911,5.36220412 24.6693411,5.25901034 24.7302113,5.19096161 C25.2197079,5.19994728 25.6559265,5.20974064 26.0388874,5.21680801 C26.4218584,5.22397635 26.8580871,5.22764129 27.3475634,5.22801485 C27.7479323,5.22801485 28.1126008,5.2253656 28.4415586,5.2206874 L28.9818212,5.21106577 C29.2906141,5.2049323 29.6250681,5.19777658 29.985209,5.19096161 Z M76.8042606,5.82871731 C76.298287,5.82607637 75.8899643,5.89716408 75.5792825,6.04214624 C75.2686007,6.1871284 75.1090395,6.42235086 75.0999529,6.74784389 L75.0999933,15.7693287 C75.067867,16.0717518 75.1879114,16.306106 75.4601265,16.4726638 C75.7324224,16.6392419 76.3495154,16.7238485 77.311577,16.7258677 C78.78462,16.7657277 80.0281753,16.4515627 81.0422427,15.7834029 C82.0562799,15.115233 82.584647,13.8539084 82.6273541,11.999429 C82.6366023,11.0140349 82.4580097,10.0528213 82.0915663,9.11593974 C81.7250724,8.17910861 81.1151175,7.40266653 80.2617217,6.78673465 C79.4082857,6.17081286 78.2557986,5.85150883 76.8042606,5.82871731 Z M55.1504675,5.73194674 L54.9106616,5.73499809 C54.1979572,5.75101075 53.7211617,5.8830899 53.4802248,6.13119517 C53.2737594,6.34389145 53.1621509,6.5712005 53.14573,6.81316048 L53.1455341,11.3055238 C53.2757252,11.3339952 53.4972067,11.3565098 53.8100088,11.3733706 C54.1228007,11.3901304 54.4152992,11.3988232 54.6875143,11.399217 C55.6744228,11.4070315 56.4243219,11.1850755 56.93706,10.7333793 C57.4497779,10.2816731 57.7075554,9.55334971 57.7105842,8.5483487 C57.6814162,7.38899621 57.3897557,6.62237778 56.8356128,6.24842274 C56.4045815,5.95762379 55.9206521,5.78941065 55.3837914,5.74392584 L55.1504675,5.73194674 Z M110.814431,2.95562137 L110.76193,2.95562137 L108.136905,9.62318548 C108.031904,9.88669763 108.214646,9.96443876 108.792152,9.96443876 L113.360705,9.96443876 L110.814431,2.95562137 Z" id="kbp-wordmark" fill="#000000" fill-rule="nonzero"></path>
    </g>
</svg>