<svg viewBox="0 0 90 12" xmlns="http://www.w3.org/2000/svg"><path d="m44.9 0 .644.508c.455.339.455.508 0 .508h-5.52c-.311.931-.804 1.85-1.48 2.77h4.62l.392-.546.164.127c.438.339.661.559.669.66.008.076-.059.144-.202.203a1.446 1.446 0 0 1-.24.102c-.008 2.34-.008 4.62 0 6.87.008.44-.055.694-.189.762h-.013a.49.49 0 0 1-.177.025c-.261 0-.392-.156-.392-.47l.013-.597v-.013h-5.86v.229c0 .448-.076.702-.227.762h-.013a.405.405 0 0 1-.151.025c-.261 0-.387-.156-.379-.47.025-2.68.021-5.41-.013-8.21l1.09.546h.871c.387-.956.631-1.84.732-2.67a.439.439 0 0 0 .013-.102h-4.48l-.316-.317h9.95l.492-.698zm35.7 8.76c.682.144 1 .317.959.521-.051.093-.193.194-.43.305-.857.939-2.03 1.72-3.52 2.34l-.252-.14c1.76-.932 2.84-1.94 3.24-3.02zM53.4.05c.277.213.416.382.416.51-.025.11-.127.187-.303.229-.354.102-.943.195-1.77.28 0 1.16-.004 2.01-.014 2.54h.871l.492-.711.658.508c.209.16.314.285.314.375 0 .122-.105.184-.314.184h-2.02v.978h.001c.943.584 1.65 1.28 2.11 2.08.102.169.146.296.139.381-.025.237-.139.355-.342.355-.361-.009-.627-.237-.795-.686l-.328-.952c-.15-.237-.412-.517-.783-.838v2.02c.002.898.007 2.17.014 3.83 0 .432-.059.682-.178.749a.29.29 0 0 1-.189.038c-.26-.034-.391-.19-.391-.47.008-1.52.012-3.16.012-4.93-.521 1.35-1.38 2.5-2.59 3.44l-.213-.165c1.63-1.68 2.54-3.62 2.73-5.84h-2.42l-.303-.355h2.8c-.008-.511-.012-1.33-.012-2.45a27.29 27.29 0 0 1-2.46.241l-.115-.241c2.69-.338 4.36-.706 4.99-1.1zM84.9 8.8c1.48.897 2.5 1.62 3.07 2.17.344.347.514.597.504.749-.008.127-.096.194-.264.203-.354-.076-.771-.372-1.25-.889l-.82-.889A6.84 6.84 0 0 0 85 9.186l-.312-.198.214-.189zM57.8.05c.74.178 1.11.359 1.11.546-.01.085-.123.194-.342.33v5.99l.656-.165.316-.787.744.33c.277.127.416.232.416.317 0 .152-.096.254-.289.305l-1.84.444v3.76c0 .533-.123.8-.365.8h-.012c-.262 0-.391-.156-.391-.47l.012-3.91-3.41.864-.252-.381 3.66-.927-.012-7.05zM68.4.038c.725.182 1.09.363 1.1.545 0 .096-.109.212-.328.351v.26h3.85l.492-.711.656.508c.229.185.342.324.342.418s-.113.141-.342.141h-5v1.16h2.21l.379-.546c.471.339.748.6.832.784-.059.15-.209.251-.453.301-.01.059-.014.13-.014.213l.039 1.27c0 .288-.102.457-.305.508h-.024c-.27 0-.404-.182-.404-.546h-2.26v1.18l3 .038.354-.559c.496.33.773.597.834.8-.01.093-.16.19-.455.292l-.014.965h.594l.492-.724.645.508c.219.178.328.313.328.406s-.109.148-.328.165h-1.73v1.59c0 .448-.084.682-.252.698-.346-.017-.518-.212-.518-.584 0-.067.004-.14.014-.216h-2.97v1.37c0 .804-.346 1.24-1.04 1.3-.094-.423-.662-.753-1.7-.99 0-.152.029-.245.088-.279l1.39.254c.068.009.127.013.178.013.209 0 .314-.098.314-.292v-1.37h-3.93l-.314-.381 4.24.013v-1.13l-5.44.013-.303-.368 5.74.013v-1.16l-3.93.013-.314-.368 4.24.013v-1.18l-2.36-.038.012.089c0 .279-.092.436-.277.47a.552.552 0 0 1-.113.013c-.236 0-.354-.174-.354-.521l.025-1.23c0-.517-.014-.969-.039-1.36l1.11.546h2.01v-1.16h-5.05l-.303-.355 5.34.007V.038zM17 .711c.345.034.61.085.795.152s.36.174.524.317.288.256.373.337c.084.08.122.162.113.247s-.063.146-.164.185c-.101.037-.185.266-.252.686-.067.418-.114.931-.139 1.54-.025.605-.038 1.26-.038 1.98s-.149 1.35-.448 1.93-.688 1.09-1.17 1.53c-.48.445-.949.792-1.41 1.04-.459.25-1.01.502-1.66.756-.202.06-.249.017-.139-.127.64-.339 1.17-.66 1.59-.965s.821-.673 1.2-1.1c.379-.432.68-.901.903-1.41s.36-1.1.41-1.79c.051-.686.082-1.53.095-2.53s.015-1.57.006-1.73-.042-.303-.101-.451c-.059-.147-.248-.269-.568-.361-.11-.145-.086-.221.075-.23zm-8.65 1.45c.197.115.391.252.581.413l.436.368c.102.085.116.169.044.254-.071.085-.187.138-.347.158-.16.021-.257.092-.29.21-.034.118-.131.377-.291.774s-.406.897-.738 1.5a9.678 9.678 0 0 1-1.18 1.68c-.455.521-.97.999-1.55 1.44-.577.436-1.16.791-1.74 1.07-.581.274-1.19.497-1.83.666-.21-.025-.244-.085-.101-.178.539-.22 1.07-.472 1.6-.756.526-.283 1.07-.649 1.62-1.1s1.04-.934 1.44-1.45a9.247 9.247 0 0 0 1.02-1.61c.273-.554.46-1.02.562-1.4.101-.376.16-.776.177-1.2-.825-.025-1.55.004-2.18.089s-1.33.203-2.08.355-1.2.283-1.31.394-.225.178-.322.203-.188.021-.271-.013-.236-.078-.455-.134c-.219-.055-.394-.162-.524-.323s-.296-.406-.499-.736c-.059-.194 0-.258.177-.191.438.33.821.508 1.15.533s.917-.017 1.77-.127c.85-.11 1.6-.207 2.27-.292.66-.085 1.2-.152 1.63-.203s.667-.116.726-.196c.059-.081.109-.161.151-.242.042-.08.162-.063.36.051zm35 5.31h-5.88v3.11h5.87c.008-.771.013-1.81.013-3.11zm28.9.279h-3v1.12h3V7.75zM81.29.02c.74.181 1.11.361 1.11.542 0 .095-.119.21-.354.348 0 .68-.01 1.2-.025 1.55h1.92c0-.339-.008-1.13-.025-2.39.75.178 1.12.359 1.12.546-.049.144-.164.258-.34.343l-.025 1.46v.038h1.77l.379-.546.164.114c.445.313.668.539.668.679v.013c-.066.132-.213.223-.441.273-.016.574-.025 1.09-.025 1.56 0 .945.014 2.08.039 3.42h.58l.492-.698.656.508c.211.16.316.285.316.376 0 .164-.105.246-.316.246h-11.4l-.303-.432h1.55a186.82 186.82 0 0 0-.025-6.06l1.1.546h1.43l-.012-2.42V.023zm.009 5.45h-1.75c0 .948.004 1.78.012 2.5h1.73c.008-.677.012-1.51.012-2.5zm2.64 0h-1.92l.037 2.5h1.87l.012-2.5zm2.54 0h-1.8l.025 2.48v.025h1.75c.018-1.44.026-2.27.026-2.5zm-73.9-3.92c.286.017.511.051.675.102s.33.118.499.203.303.156.404.216.147.129.139.21c-.008.08-.044.129-.107.146s-.13.083-.202.196c-.072.115-.12.531-.146 1.25-.025.72-.021 1.32.013 1.8.034.479.063.87.088 1.18s-.059.544-.252.718c-.194.173-.337.24-.429.203-.093-.039-.143-.152-.151-.344a3.77 3.77 0 0 1 .025-.609c.025-.215.038-.563.038-1.04v-1.9c0-.787-.013-1.24-.038-1.37s-.074-.267-.145-.419c-.072-.152-.217-.25-.436-.292-.109-.078-.101-.158.025-.243zm59.7 4.71h-3V7.4h3V6.26zm-28.9-2.17h-5.84c-.008.803-.013 1.83-.013 3.07h5.88l-.025-3.07zm-11.2 1.4c.396.275.53.457.404.547-.126.088-.444.099-.953.031s-1.29-.089-2.35-.063c-1.06.025-2.06.105-2.99.241-.935.136-1.45.263-1.53.381s-.188.18-.296.184a.539.539 0 0 1-.322-.095 7.317 7.317 0 0 0-.511-.286c-.236-.122-.463-.421-.682-.895.006-.144.082-.19.225-.14.177.237.427.379.751.425.324.047 1.03.032 2.13-.044s2.13-.14 3.1-.19 1.5-.087 1.59-.107c.088-.021.195-.064.322-.127.126-.064.246-.125.36-.185.113-.06.368.049.764.323zm22.4-1.64c.994.457 1.66.931 2 1.42.117.169.176.309.176.419 0 .127-.066.203-.201.229a.875.875 0 0 1-.152.013c-.227 0-.43-.14-.605-.419l-.367-.584c-.15-.237-.459-.504-.92-.8l.073-.28zm32-.952h-1.78v2.16h1.8l-.025-2.16zm-5.15 0h-1.74c-.008.702-.012 1.42-.012 2.16h1.77c0-.821-.006-1.54-.014-2.16zm2.64 0h-1.92v2.16h1.92v-2.16zm-12.4.177h-2.26v1.26h2.26c.016-.245.025-.474.025-.686s-.01-.402-.025-.571zm-3.03 0h-2.38v1.26h2.38v-1.26zm-13.4-2.25c.809.372 1.46.851 1.97 1.44l.025.013c.107.178.158.309.15.394-.033.229-.16.343-.379.343-.27 0-.445-.093-.529-.279l-.393-.838c-.117-.254-.441-.524-.971-.813l.126-.255z" fill="#000" fill-rule="nonzero"/></svg>