<?xml version="1.0" encoding="UTF-8"?>
<svg width="120px" height="12px" viewBox="0 0 120 12" version="1.1" xmlns="http://www.w3.org/2000/svg" xmlns:xlink="http://www.w3.org/1999/xlink">
    <title>hak-tagline</title>
    <g id="Page-1" stroke="none" stroke-width="1" fill="none" fill-rule="evenodd">
        <path d="M2.66632159,8.94423994 C1.52837266,8.80197681 0.658592144,7.93684382 0.238879077,6.52974258 C-0.23226083,4.95023636 0.00769351808,3.03986593 0.8335874,1.79503831 C1.03436681,1.49240877 1.5005154,1.03319694 1.7863542,0.856442723 C2.23826881,0.576982152 2.71699262,0.467646003 3.28875054,0.513277573 C3.71167406,0.547082474 3.98579447,0.618395677 4.36935395,0.794554528 C4.56000249,0.882144538 4.7943754,0.978211002 4.89018252,1.0080905 C5.01707199,1.04764728 5.06795795,1.07923215 5.07756359,1.12444999 C5.10651471,1.26065851 5.24415919,2.58726372 5.25111795,2.79715683 C5.25828257,3.01329629 5.255558,3.02296348 5.17591971,3.06843359 C5.04951461,3.14058435 5.00189813,3.08811107 4.92254845,2.78917484 C4.77871213,2.24733779 4.49344821,1.71132325 4.1899236,1.41255856 C3.91689201,1.14381465 3.52080554,0.982196953 3.03438531,0.941086158 C2.142719,0.865706275 1.23810592,1.87563525 0.951631489,3.26629822 C0.83828618,3.8165209 0.802989726,4.79977932 0.873724816,5.43653246 C1.02968488,6.8404853 1.57342309,7.93715664 2.29479262,8.30269357 C2.62113907,8.46807521 3.10322925,8.51294996 3.53449703,8.4181146 C4.10596837,8.2924411 4.70186703,7.83382464 5.12817911,7.1915719 L5.20880632,7.07010635 L5.30296559,7.16425552 L5.39712485,7.25840469 L5.28705306,7.43257561 C4.74518372,8.28997889 4.080538,8.80443902 3.34518858,8.93565249 C3.09125928,8.98096114 2.97230236,8.9824748 2.66632058,8.9437253 L2.66632058,8.9437253 L2.66632159,8.94423994 Z M5.89520222,8.75970555 C5.88521211,8.70581953 5.8880376,8.62110546 5.90155956,8.57142739 C5.92365888,8.48969017 5.94146952,8.47889278 6.08783868,8.45781265 C6.42463035,8.40937578 6.52124778,8.28350046 6.56887334,7.83127162 C6.60759256,7.46360548 6.60837966,1.65128171 6.56976538,1.25431127 C6.55404358,1.09268348 6.51958276,0.918674013 6.49318467,0.867623568 C6.43557506,0.756218761 6.28990924,0.689143784 6.10556254,0.689143784 C6.00364935,0.689143784 5.96706033,0.676328195 5.95481489,0.636367775 C5.93184774,0.561492443 5.92169618,0.362588445 5.93990037,0.344384254 C5.94827591,0.336311442 6.10200344,0.300791069 6.28142774,0.266077977 C6.46085306,0.231465795 6.75005852,0.156469371 6.92410734,0.0994551362 C7.27432712,-0.0152696142 7.31103924,-0.0212334041 7.32975606,0.0334598976 C7.33681977,0.0541464785 7.33268245,0.342416506 7.32057323,0.67398708 C7.30842365,1.00554756 7.29729326,1.97876542 7.29584015,2.83668334 C7.29301467,4.48127661 7.2965546,4.52192322 7.42272962,4.30832671 C7.52870244,4.12892864 7.87220362,3.73591387 8.02488976,3.61937274 C8.67274907,3.12485246 9.45167654,3.18688193 9.74607484,3.75642891 C9.82668187,3.91235527 9.91364119,4.26135303 9.9447195,4.55359892 C9.96183386,4.71458088 9.97611265,5.49451544 9.97644565,6.28677112 C9.97705414,7.75460008 9.99580022,8.07460635 10.0906739,8.2370616 C10.1592323,8.35444029 10.2996155,8.43515832 10.4801034,8.46098123 L10.6239044,8.4815669 L10.6239044,8.6620447 L10.6239044,8.8425326 L9.64428476,8.8425326 L8.66466415,8.8425326 L8.65507768,8.724831 C8.6395577,8.53524101 8.66845837,8.46585519 8.76324731,8.46508827 C8.88125467,8.46413972 9.08947368,8.36223056 9.14163919,8.27988787 C9.16615026,8.24123928 9.20111563,8.13766511 9.21934,8.04981273 C9.26252955,7.84166536 9.26418447,4.94127553 9.22125729,4.6678393 C9.18130697,4.41326317 9.0370993,4.11786889 8.90273844,4.01538454 C8.68917321,3.85249537 8.36074699,3.90126525 7.99394768,4.15036196 C7.75900059,4.30991099 7.48659868,4.60991687 7.38723952,4.81854861 L7.30828742,4.9843339 L7.29860005,6.21843477 C7.28881176,7.47198102 7.31576486,8.04583687 7.39325377,8.23130973 C7.44675633,8.35935462 7.56257495,8.43602615 7.74108097,8.46155642 C7.86629432,8.47951842 7.88210189,8.49071945 7.89625555,8.57158885 C7.90493382,8.62113573 7.90694194,8.70575898 7.9006956,8.75963491 L7.88941384,8.85761867 L6.90137531,8.85761867 L5.91333577,8.85761867 L5.8952224,8.75963491 L5.8952224,8.75963491 L5.89520222,8.75970555 Z M10.9284976,8.80998908 C10.9184066,8.78375244 10.9102026,8.71705083 10.9102026,8.66174197 C10.9102026,8.50372677 10.9361971,8.46582492 11.0445695,8.46582492 C11.1829698,8.46582492 11.3340222,8.40961796 11.4269594,8.32350124 C11.5919364,8.17066273 11.5884016,8.25437779 11.5884016,4.50212465 C11.5884016,1.33140662 11.5841633,1.02634514 11.5381685,0.925091899 C11.4719613,0.779206094 11.3675859,0.715168512 11.1592367,0.692605002 C10.9732341,0.672422972 10.9501035,0.64396631 10.9433475,0.426767301 C10.940623,0.337663638 10.9490994,0.328783545 11.0533759,0.312304917 C11.3302512,0.268509912 11.7606451,0.164229362 12.004558,0.0817454047 C12.1505538,0.032400341 12.2857008,-0.00281730161 12.3048848,0.00364094804 C12.3309802,0.0127228616 12.3374183,0.566739771 12.3304655,2.20596462 C12.3251173,3.47142837 12.3324837,4.39666345 12.3479634,4.39666345 C12.3627063,4.39666345 12.4591532,4.2827258 12.5622915,4.14346979 C13.0775589,3.44776494 13.6761044,3.15720425 14.2455808,3.32631957 C14.6444221,3.44475782 14.8515432,3.76430999 14.9510961,4.4148071 C14.9742247,4.56590996 14.9945985,5.27494504 15.0068893,6.35590467 C15.0278282,8.19801947 15.0265971,8.1849516 15.1940393,8.33357207 C15.2775021,8.40764012 15.4354679,8.46585519 15.5530766,8.46585519 C15.6404345,8.46585519 15.6714331,8.52206214 15.6722515,8.68191391 C15.673198,8.86703358 15.7268237,8.8576994 14.6620703,8.8576994 L13.6880703,8.8576994 L13.6687662,8.76980665 C13.6581505,8.72147069 13.6585844,8.63330549 13.6697259,8.5738896 C13.6874861,8.47923588 13.7008869,8.46586528 13.7780317,8.46586528 C13.8958827,8.46586528 14.045478,8.39926458 14.1249901,8.31150302 C14.2580502,8.16455766 14.2659848,8.07447517 14.2784966,6.56846181 C14.291171,5.04287187 14.2714329,4.67155279 14.1622704,4.37973073 C13.9308137,3.76111114 13.3707997,3.76660065 12.7437673,4.39365633 C12.3173674,4.82005217 12.3435526,4.69391448 12.3332708,6.37100082 C12.3244917,7.80533771 12.34205,8.13626245 12.4342365,8.27702202 C12.4996969,8.37692307 12.6098948,8.43906354 12.755263,8.45804474 C12.9062579,8.47772222 12.9286448,8.50264703 12.9292664,8.65180232 C12.9301857,8.87193782 12.9998328,8.85772967 11.9199661,8.85772967 C11.060368,8.85772967 10.9446604,8.85167506 10.9284996,8.81010008 L10.9284976,8.80998908 Z M17.6280032,8.94867999 C17.174403,8.86845642 16.9156704,8.60485892 16.7250148,8.02876287 C16.6562546,7.82098887 16.6548823,7.7908571 16.6354772,6.05444568 C16.6208755,4.74765923 16.6056583,4.25704417 16.5767072,4.15946405 C16.523911,3.981509 16.368032,3.82980068 16.2124256,3.80491624 C16.0547242,3.7796887 16.0042257,3.72590359 16.0042257,3.58310563 C16.0042257,3.37640128 15.9689576,3.38613911 16.6884298,3.39407065 C17.0478224,3.39810705 17.3515548,3.41162901 17.3633896,3.42424278 C17.3752263,3.43685655 17.3733797,3.79985055 17.3592523,4.23087816 C17.3244786,5.29204931 17.3250336,6.86617702 17.3603623,7.29212886 C17.410888,7.90174726 17.5490088,8.19569853 17.854376,8.34352181 C18.1492476,8.48626931 18.413835,8.38570226 18.8247441,7.9748264 C19.0426828,7.75689074 19.1101453,7.66895764 19.1375828,7.56705857 C19.1911055,7.36830593 19.1655248,4.27215042 19.1090757,4.11604241 C19.0608406,3.98265938 18.9027992,3.83246471 18.7843327,3.8074289 C18.7390442,3.79834699 18.6720701,3.78401774 18.6354952,3.7766513 C18.5565734,3.7607075 18.5149722,3.60137037 18.5568963,3.47559596 L18.583688,3.39527148 L19.2306149,3.39829878 C19.5864241,3.40031699 19.8843229,3.40132609 19.8926117,3.40132609 C19.9008863,3.40144718 19.9076877,4.36120362 19.9076877,5.53411258 L19.9076877,7.66666698 L19.9830373,7.81738638 C20.0691944,7.98970055 20.2176564,8.08975297 20.4351703,8.12208458 C20.5097731,8.1331847 20.5807745,8.15730222 20.5929544,8.17576878 C20.6215826,8.21905923 20.6215826,8.38054575 20.5929544,8.42281701 C20.5807745,8.44077902 20.4497831,8.48558312 20.3018619,8.52231442 C19.9779807,8.60284072 19.7621611,8.70114739 19.5617788,8.85953596 C19.4007968,8.98678366 19.3030361,9.00940772 19.2784463,8.92512756 C19.2541673,8.84187668 19.203137,8.52717829 19.1831266,8.3373562 C19.1722989,8.23462967 19.1504014,8.16410357 19.1293515,8.16419438 C19.1098254,8.1642852 18.9851449,8.26939322 18.8522916,8.39779129 C18.3729866,8.86101934 18.0233581,9.01823735 17.6280487,8.94831671 L17.6280487,8.94831671 L17.6280032,8.94867999 Z M17.1176582,10.8276573 C16.8198966,10.6427596 16.7730006,10.1333652 17.0273537,9.84673997 C17.1326626,9.72806963 17.1551827,9.71671724 17.285269,9.71671724 C17.4153553,9.71671724 17.4378754,9.72801917 17.5431842,9.84673997 C17.6249214,9.93887093 17.6682069,10.0231915 17.69162,10.1359787 C17.7875654,10.5981169 17.4340509,11.0241394 17.1176592,10.8276573 L17.1176592,10.8276573 L17.1176582,10.8276573 Z M18.7151931,10.8276573 C18.4174304,10.6427596 18.3705344,10.1333652 18.6248886,9.84673997 C18.7288775,9.7295631 18.753767,9.71671724 18.8769288,9.71671724 C18.9810772,9.71671724 19.0327876,9.73467924 19.0943034,9.79209712 C19.2657316,9.95214062 19.3417946,10.2071708 19.2889319,10.4446831 C19.2121291,10.7897655 18.9432157,10.9692746 18.7151941,10.8276774 L18.7151941,10.8276774 L18.7151931,10.8276573 Z M21.1837006,5.91824725 C21.117998,5.81794256 21.1434071,5.58525384 21.2389892,5.41199111 L21.308587,5.28582315 L22.3927101,5.28582315 L23.4768343,5.28582315 L23.518712,5.37321134 C23.5710238,5.48234567 23.5241612,5.72764816 23.4219694,5.87927575 L23.3547027,5.97907589 L22.2943288,5.9871487 L21.2339538,5.99522151 L21.1837107,5.9185298 L21.1837006,5.91824725 Z M24.9176869,11.7799968 C24.6075255,11.7137998 24.4825563,11.3944696 24.6397198,11.0698114 C24.7394393,10.8638134 24.8448823,10.8105631 25.1067239,10.8339843 C25.5025561,10.8694038 25.6249924,10.759109 25.8158751,10.1950213 C26.1251203,9.28120921 26.1634056,9.02864119 26.0685087,8.52837912 C26.0225845,8.28630576 24.8902939,4.68691132 24.740302,4.30620759 C24.5970137,3.94251732 24.4954294,3.83730839 24.2472984,3.79559214 C24.1615652,3.78116199 24.1378089,3.76047541 24.1148337,3.68041329 C24.0981028,3.62208722 24.097689,3.54635416 24.1138246,3.49224613 L24.1407878,3.40172973 L25.0510599,3.39466602 C25.9390278,3.38760231 25.9617296,3.38861141 25.97752,3.44754294 C26.0279045,3.63517527 25.9725754,3.7941794 25.8568618,3.7941794 C25.7456456,3.7941794 25.582037,3.87087111 25.5448244,3.94035784 C25.5009991,4.02229688 25.5043493,4.16957525 25.554209,4.35180889 C25.6096087,4.55441629 26.4339861,7.15201512 26.4932224,7.3106156 C26.5501962,7.46317157 26.6115234,7.49385834 26.6727324,7.40042564 C26.7369214,7.30244188 27.6827684,4.35004296 27.7025084,4.1860236 C27.7158588,4.07507289 27.706343,4.0346281 27.6503984,3.96383963 C27.5751598,3.86868136 27.4246947,3.7941693 27.3077691,3.7941693 C27.1920756,3.7941693 27.1367294,3.63517527 27.1871108,3.44753285 C27.2028225,3.38900496 27.2256484,3.38749131 27.9620998,3.39455502 C28.7165131,3.40161873 28.721046,3.40262783 28.7457831,3.46912762 C28.7817072,3.56620318 28.7412422,3.76518791 28.6817355,3.78408838 C28.5042961,3.84039625 28.4345954,3.8836867 28.3004263,4.02090432 C28.2175387,4.10566885 28.1068624,4.26227131 28.0544871,4.36893334 C27.890617,4.70264321 27.3396123,6.37932591 26.3563408,9.53631007 C26.0025205,10.6723263 25.8060141,11.1514073 25.5729167,11.446297 C25.3770269,11.6941122 25.122146,11.8241046 24.9177243,11.7804408 L24.9177243,11.7804408 L24.9176869,11.7799968 Z M30.6414005,8.93312973 C30.2902624,8.85482346 30.0682692,8.67233754 29.9097151,8.33161442 C29.7205843,7.9251786 29.7226782,7.94827694 29.701928,6.0393798 C29.6852274,4.50335575 29.67665,4.27202932 29.6312606,4.13372187 C29.5707145,3.94925812 29.4498726,3.84208144 29.2524167,3.79771125 C29.1035096,3.76420908 29.0699631,3.7275787 29.0698914,3.59786879 C29.0697673,3.37355561 29.027933,3.38600793 29.753817,3.39445411 C30.1122035,3.39849051 30.4113153,3.40797607 30.4185102,3.41514069 C30.4256748,3.4222044 30.4335962,4.36839852 30.4360383,5.51750277 C30.4400747,7.42239378 30.4452211,7.62274079 30.4939809,7.78763807 C30.5977962,8.13859348 30.8353458,8.37151429 31.1170768,8.39857839 C31.3408047,8.42007225 31.591403,8.28876797 31.8889204,7.99413051 C32.2563151,7.63028887 32.2325094,7.76973661 32.2332803,5.97710814 C32.2339554,4.41083124 32.2199299,4.16944406 32.1180631,3.99438514 C32.0619773,3.89801594 31.9114769,3.81179831 31.7473435,3.7820399 C31.6532952,3.76498609 31.6349396,3.74813409 31.6195539,3.66493367 C31.6096647,3.6114513 31.6120865,3.52890679 31.6249021,3.48144875 L31.6482527,3.39517057 L32.2952493,3.39819787 C32.6510968,3.40021608 32.9490269,3.40122518 32.9573167,3.40122518 C32.9655914,3.40134627 32.9723927,4.36110271 32.9723927,5.53401167 L32.9723927,7.66656607 L33.0477423,7.81728547 C33.1339095,7.98959964 33.2823614,8.08965206 33.4998753,8.12198367 C33.5744782,8.13308379 33.6454806,8.15720131 33.6576604,8.17566787 C33.6862785,8.21895832 33.6862785,8.38044484 33.6576604,8.4227161 C33.6454806,8.44067811 33.5155769,8.48517948 33.3689857,8.52160805 C33.0686539,8.59628156 32.7916354,8.72476036 32.6056085,8.87576231 C32.4713385,8.98474528 32.371829,9.0061685 32.3434399,8.93217109 C32.3338534,8.90714537 32.3108459,8.76809118 32.2923794,8.62321448 C32.2363641,8.1838315 32.2323076,8.16389165 32.1989366,8.16389165 C32.1812067,8.16389165 32.0521799,8.27228934 31.9122196,8.40477428 C31.3913012,8.89787173 31.0748903,9.02928702 30.6413702,8.93262518 L30.6413702,8.93262518 L30.6414005,8.93312973 Z M31.3821547,2.26406869 C31.3385009,2.2184573 31.044478,1.84893442 30.7287685,1.44286188 C30.134659,0.678699584 30.1244923,0.660061479 30.2337154,0.535326441 C30.3688674,0.380984366 30.7825829,0.251345095 30.8806373,0.332618131 C30.9388423,0.380853183 31.5848589,1.95163068 31.6142571,2.11638668 C31.6300495,2.20488489 31.6226326,2.24602595 31.5831465,2.28970996 C31.5134075,2.36680531 31.4759063,2.36196163 31.3821547,2.26407878 L31.3821547,2.26407878 L31.3821547,2.26406869 Z M36.3515699,8.80998908 C36.3414789,8.78375244 36.3332749,8.71705083 36.3332749,8.66174197 C36.3332749,8.49959954 36.3583813,8.46589555 36.4796753,8.46515891 C36.5400701,8.46479563 36.647716,8.43811499 36.7188879,8.40572283 C36.8210695,8.35930416 36.8622873,8.31672008 36.914812,8.20293379 L36.981332,8.05886437 L36.981332,4.53222615 C36.981332,0.678699584 36.9916652,0.90472823 36.809264,0.769750813 C36.759808,0.733120428 36.6624468,0.703957394 36.5622885,0.695581852 C36.4103137,0.682968083 36.39438,0.67449163 36.3651141,0.590534385 C36.3476062,0.54028113 36.3332749,0.461157481 36.3332749,0.414647992 C36.3332749,0.340176301 36.3467484,0.327966173 36.4463104,0.312456282 C36.6967159,0.273404054 37.2647644,0.134652597 37.4576703,0.0654181423 C37.5704525,0.0249531719 37.6781771,-0.00299893988 37.6970594,0.00325748946 C37.7224989,0.0113303015 37.7292094,0.769296717 37.7229833,2.92902622 C37.7178368,4.72676074 37.7254051,5.84335174 37.7428121,5.84335174 C37.8597034,5.84335174 38.2503236,5.43602791 38.6565787,4.89050764 C39.0149228,4.40931758 39.1047924,4.25280594 39.1261117,4.07279232 C39.1427719,3.9320933 39.13812,3.91671459 39.0642033,3.86827772 C39.0202367,3.83951833 38.9405298,3.80692435 38.8870656,3.79602605 C38.7900506,3.77614675 38.7898589,3.77574311 38.7898589,3.58789887 L38.7898589,3.39965098 L39.6259802,3.39359637 C40.551854,3.38653266 40.4928912,3.37260706 40.4928912,3.59692023 C40.4928912,3.75444098 40.4629915,3.78066753 40.2569633,3.80385668 C40.0469249,3.82746965 39.8061522,3.93987347 39.6426152,4.09062315 C39.5703535,4.15722385 39.322499,4.49065117 39.0918194,4.83155593 C38.752621,5.33283719 38.6729393,5.47043827 38.6752229,5.55097467 C38.6788557,5.67868655 39.8478685,8.024121 39.986743,8.18228757 C40.0974919,8.30842526 40.3236003,8.4249664 40.5125636,8.45330197 C40.6448205,8.47318127 40.6724639,8.51253623 40.6733327,8.68216619 C40.6742671,8.86451083 40.7024755,8.85798122 39.9169647,8.85798122 L39.196778,8.85798122 L39.1961423,8.65449663 C39.1957235,8.52049804 39.1718431,8.38413815 39.1262015,8.25511443 C39.0495905,8.03853097 38.2418965,6.48938861 38.1271607,6.33896185 C38.0486526,6.2360335 37.885829,6.14515382 37.7799248,6.14515382 L37.7135058,6.14515382 L37.7277846,7.08709962 C37.7371692,7.70495229 37.7547578,8.07052958 37.7789561,8.14961287 C37.8294919,8.31473215 37.9456183,8.42938626 38.0915667,8.45824656 C38.2314392,8.48589595 38.2816077,8.58018639 38.2489865,8.75407476 L38.2295007,8.85798122 L37.2996843,8.85798122 C36.4796198,8.85798122 36.3677085,8.85189706 36.3515719,8.81032208 L36.3515699,8.80998908 Z M42.6735767,8.94523895 C41.8081884,8.80066498 41.2497718,8.01308143 41.1254778,6.76181575 C41.0486952,5.98888436 41.1938747,5.07117717 41.4842911,4.49363811 C41.8198082,3.8264101 42.3870545,3.35551288 42.899457,3.31885222 C43.3116568,3.28938646 43.8106616,3.462629 44.0446843,3.71651894 C44.3226817,4.01810911 44.5136067,4.58078411 44.5527649,5.21388431 C44.5729671,5.54048001 44.5562968,5.64602194 44.4794537,5.67804073 C44.4503007,5.69014995 43.8533667,5.69741548 43.1529383,5.69408544 L41.879432,5.68803083 L41.879432,5.96530165 C41.879432,7.26436848 42.5004684,8.37518742 43.2268106,8.37529842 C43.670348,8.37535897 43.9887912,8.21124879 44.2937881,7.82539864 L44.410193,7.67813037 L44.486138,7.75411571 C44.5279047,7.79589252 44.5620829,7.84210937 44.5620829,7.8568927 C44.5620829,7.92682344 44.2906831,8.29208791 44.0960647,8.48401902 C43.6980024,8.87657968 43.2099495,9.0348068 42.6735767,8.94519859 L42.6735767,8.94523895 Z M43.701277,5.22203785 C43.7780292,5.19257208 43.7910466,5.0653042 43.7526302,4.71966675 C43.6945362,4.19693199 43.5456503,3.90633094 43.2616892,3.76146433 C42.8924841,3.57310544 42.3747464,3.82473499 42.1563073,4.29860906 C42.0550469,4.51829046 41.9548805,4.87063843 41.9209293,5.12657684 L41.900495,5.28065655 L42.7771418,5.26047452 C43.2592986,5.24937441 43.6751594,5.23211877 43.701278,5.22202776 L43.701278,5.22202776 L43.701277,5.22203785 Z M47.4765074,8.80998908 C47.4537017,8.750553 47.4535604,8.62186228 47.4761976,8.53751149 C47.4910011,8.48231363 47.5213851,8.47151625 47.6975783,8.45900339 C48.0991371,8.430244 48.2490714,8.26675946 48.3028606,7.79890973 C48.3413073,7.46452376 48.3398643,1.98232755 48.301246,1.68477379 C48.2605288,1.37097349 48.1717632,1.20400756 48.0007638,1.11954576 C47.926161,1.08271355 47.7837404,1.0433586 47.6842713,1.03205666 C47.5848041,1.02075472 47.4934532,0.996738106 47.4812733,0.978473368 C47.4690935,0.960309541 47.4589217,0.895626135 47.4586695,0.834797496 C47.4577714,0.619646963 47.4231592,0.629182973 48.1316494,0.64933473 C48.611791,0.6629576 48.9215195,0.654380237 49.3849847,0.615025278 C50.0441661,0.558919235 50.2401215,0.566083855 50.6509359,0.661645768 C51.2220671,0.794362798 51.5882287,1.08235028 51.835622,1.59341983 C52.0267761,1.98831152 52.0724107,2.15823412 52.0916008,2.54656666 C52.1116819,2.95295202 52.067342,3.29120284 51.9462579,3.65527657 C51.5937424,4.71521661 50.9904289,5.18698166 49.9298652,5.23202795 C49.5706372,5.24726538 49.3624949,5.22133148 49.1359627,5.133136 C49.0825509,5.11234851 49.0810272,5.16048266 49.0938529,6.46466563 C49.1077886,7.8819386 49.1195648,8.01224388 49.2519912,8.21434673 C49.3243942,8.32484334 49.5847182,8.43291812 49.8406324,8.45872084 C50.0466435,8.47950833 50.0623895,8.48626931 50.0887139,8.56541314 C50.1041734,8.61193272 50.1080483,8.69666698 50.0972913,8.7538023 L50.0778056,8.85767921 L48.7862838,8.85767921 C47.6363904,8.85767921 47.4927559,8.85263371 47.476466,8.81004962 L47.4765074,8.80998908 Z M50.2308822,4.80178743 C50.7310525,4.6839042 51.0500849,4.31130355 51.1842823,3.68829437 C51.2636381,3.31987141 51.2574422,2.45925919 51.1725767,2.06417577 C51.0644546,1.56078548 50.8724659,1.26823687 50.539527,1.09951509 C50.2196176,0.937413028 49.718746,0.933003254 49.434907,1.08942408 C49.2855256,1.17196858 49.1573788,1.37327424 49.1165375,1.58961551 C49.0983232,1.68608562 49.0858911,2.3671585 49.0858911,3.26819533 L49.0858911,4.78441071 L49.2139945,4.80095997 C49.2844499,4.81004188 49.3760088,4.82255474 49.4174546,4.82881117 C49.6113544,4.85807512 50.0537476,4.84314041 50.2308852,4.80136361 L50.2308852,4.80136361 L50.2308822,4.80178743 Z M53.5770689,8.93823579 C53.0828796,8.8226533 52.7983695,8.47433164 52.7252984,7.89544038 C52.6406751,7.22500343 52.8740299,6.66498237 53.4185653,6.23168427 C53.7051249,6.0036576 53.9830698,5.86965901 54.5937164,5.66514441 C55.0417989,5.51507083 55.0982793,5.48865256 55.1146489,5.42146658 C55.1463549,5.29134294 55.0889673,4.6096646 55.0248288,4.35455365 C54.9577135,4.08757566 54.8605864,3.9253525 54.6817969,3.78158581 C54.5717856,3.69308761 54.5522535,3.68834483 54.3050196,3.68945484 C54.0882746,3.69042358 54.0151541,3.70408681 53.8717437,3.77028387 C53.5892941,3.90074052 53.5123501,4.08816094 53.5745158,4.49425366 C53.6087547,4.71794119 53.6070089,4.73968733 53.5442832,4.86924587 C53.4623946,5.03841165 53.2674987,5.14368112 53.116416,5.1003503 C52.9582505,5.05494073 52.8988639,4.93791523 52.8988639,4.67148216 C52.8988639,4.4625376 52.9106502,4.41475664 53.0135159,4.20665973 C53.4100868,3.40438367 54.4474169,3.03981547 55.1195401,3.46650395 C55.4486979,3.67546869 55.6373746,3.98563623 55.7494868,4.50208429 C55.8100127,4.78091921 55.8166022,4.92326307 55.8373089,6.40104178 C55.8532729,7.53983301 55.8706194,8.03551376 55.8977238,8.12720072 C55.9791684,8.40273589 56.2547056,8.49579523 56.4370058,8.30933345 C56.5282892,8.21599157 56.5323155,8.21488155 56.5752638,8.27169397 C56.6538224,8.37556079 56.6279894,8.4552899 56.4553301,8.64178195 C56.2512272,8.86224035 56.0656565,8.95673262 55.8351999,8.95754999 C55.5250828,8.95855909 55.2964507,8.76476115 55.1842719,8.40554119 C55.1557951,8.31431842 55.128519,8.23421594 55.1236451,8.22743478 C55.1188014,8.22037107 54.9789682,8.34691239 54.8129639,8.50799527 C54.6127511,8.70226749 54.4570286,8.82564024 54.350411,8.87445048 C54.1514494,8.96557235 53.8131078,8.99345382 53.5770608,8.9382257 L53.5770689,8.93823579 Z M54.4377961,8.3914945 C54.6141316,8.30360176 55.0038113,7.95675339 55.0775665,7.82201815 C55.1227238,7.73947365 55.1306553,7.60780609 55.1392428,6.7976994 L55.149132,5.86806463 L55.0789893,5.88955849 C54.7625149,5.98673497 54.1772027,6.21994842 54.0581509,6.2963374 C53.6450551,6.56141828 53.4219316,7.06843124 53.4654047,7.64324573 C53.4921257,7.99658262 53.671992,8.32415716 53.8935887,8.42306929 C54.0409508,8.4888627 54.2689805,8.47564347 54.4378234,8.39148441 L54.4378234,8.39148441 L54.4377961,8.3914945 Z M56.8529444,8.83800173 C56.8416525,8.8266998 56.8324192,8.74465984 56.8324192,8.65577818 C56.8324192,8.47873132 56.8303001,8.48070916 57.0522217,8.45096085 C57.2536061,8.42401784 57.3869962,8.30184592 57.4399377,8.09596903 C57.4727335,7.96843878 57.4804733,7.28213876 57.4804733,4.50212465 C57.4804733,0.749932059 57.4874361,0.90284121 57.3094013,0.770709459 C57.2621754,0.735693637 57.1622441,0.705016951 57.0682644,0.696742319 C56.9718549,0.688669506 56.8927292,0.663542879 56.870095,0.634884396 C56.8321326,0.586750254 56.8162292,0.327380894 56.8512349,0.327380894 C56.9450309,0.327380894 57.6687333,0.157892204 57.8865812,0.0849038924 C58.0386608,0.0339442663 58.1770773,-0.00308975902 58.1941735,0.00266211957 C58.2152839,0.00972583013 58.2237704,0.948634237 58.2206119,2.92822903 C58.2180892,4.53159041 58.2249511,5.84343246 58.236031,5.84343246 C58.2954065,5.84343246 58.5619153,5.60745408 58.7465143,5.39144581 C58.997946,5.09721199 59.4675425,4.45843055 59.5472171,4.30225191 C59.5783883,4.24110036 59.612395,4.13800046 59.6227887,4.07303451 C59.6398224,3.96651375 59.6322743,3.94700782 59.5459154,3.87434242 C59.4932504,3.83004286 59.4177666,3.79381612 59.3781765,3.79381612 C59.2658564,3.79381612 59.2111076,3.6321076 59.260816,3.44717966 C59.2765277,3.38875268 59.3025221,3.3869363 60.1179115,3.3869363 C60.9333058,3.3869363 60.9592932,3.3889545 60.9750059,3.44717966 C61.0301231,3.65223918 60.9636334,3.79381612 60.8122026,3.79381612 C60.7654004,3.79381612 60.6377864,3.82136459 60.5286208,3.85516949 C60.2244746,3.94911684 60.0438363,4.13626481 59.5586099,4.86017405 C59.2779354,5.27891081 59.1533618,5.49080194 59.1533618,5.5494711 C59.1533618,5.68203677 60.3569626,8.06200268 60.49671,8.20576937 C60.620111,8.33271434 60.7447552,8.3963281 60.9753036,8.45005266 C61.0992203,8.47891296 61.1280826,8.49869135 61.1464573,8.56742126 C61.158617,8.61293173 61.1609783,8.69679816 61.1517047,8.75391331 L61.1348527,8.85774985 L60.4197186,8.85774985 L59.7045845,8.85774985 L59.6844025,8.61575722 C59.6733023,8.48266682 59.6364903,8.30294584 59.6025946,8.21637502 C59.5005522,7.95576447 58.6926908,6.43926654 58.5987899,6.33204951 C58.4998475,6.21908059 58.372954,6.14495199 58.2785162,6.14495199 L58.214519,6.14495199 L58.2243072,7.11703966 C58.2334901,8.0318709 58.237809,8.0972405 58.2978102,8.22694032 C58.3630991,8.36806316 58.5021482,8.46590564 58.6374233,8.46590564 C58.7110171,8.46590564 58.7401852,8.55127563 58.7259619,8.72498237 L58.7163754,8.84268397 L57.7949557,8.85075678 C57.2881749,8.85479318 56.8643008,8.84974768 56.853013,8.83814301 L56.8529444,8.83800173 Z M61.6562282,5.93586616 C61.6112122,5.85180801 61.6178621,5.66034109 61.6710317,5.50964187 C61.7608619,5.25503547 61.6814961,5.27075727 62.876906,5.27075727 C63.8080584,5.27075727 63.9434526,5.27681188 63.9781425,5.31838686 C64.031968,5.38327209 64.0227549,5.62113749 63.9607254,5.76808285 C63.8586366,6.00991403 63.942945,5.99414177 62.7517471,5.99414177 C61.7303396,5.99414177 61.6861743,5.99212357 61.6562302,5.93581571 L61.6562282,5.93586616 Z M64.5990517,8.83757791 C64.5739251,8.81245128 64.5726234,8.57767373 64.5972353,8.51350496 C64.6092033,8.48232373 64.6528368,8.46587537 64.7233589,8.46587537 C64.8690691,8.46587537 65.0662889,8.3657725 65.128715,8.26005903 C65.2376848,8.07558518 65.2443005,7.83636758 65.2355476,4.39668363 C65.227172,1.1050147 65.2257593,1.03334831 65.1667167,0.91526325 C65.0946972,0.771224101 64.9496842,0.68930524 64.7665868,0.689244694 C64.6560296,0.68920433 64.633563,0.678245488 64.6083405,0.611846609 C64.5921747,0.569363435 64.5789441,0.489018773 64.5789441,0.433387007 C64.5789441,0.3245655 64.5759181,0.326200245 64.8652961,0.28022558 C65.061643,0.249044344 65.4523137,0.14771037 65.6876916,0.0669116126 C65.8084448,0.0254375406 65.9222522,-0.00342276252 65.9405967,0.00263184653 C65.9647243,0.0107046586 65.972232,0.820084796 65.9677415,2.9285923 C65.9637051,4.80735767 65.9719797,5.84343246 65.9909408,5.84343246 C66.0930184,5.84343246 66.5067188,5.41288922 66.8743143,4.92410063 C67.4610341,4.14393398 67.5209162,3.87611844 67.1267713,3.79499677 C67.0188216,3.77279654 66.9657984,3.63646692 67.0085561,3.49107558 L67.0355192,3.39934825 L67.8716406,3.39329364 C68.7991502,3.38622993 68.7385516,3.37179978 68.7385516,3.60113828 C68.7385516,3.75259432 68.7065732,3.77682285 68.4652153,3.80822609 C68.2523705,3.83587547 67.98744,3.97731114 67.8286054,4.14797038 C67.7508743,4.23152399 67.5090482,4.56812998 67.2912034,4.89606779 C66.9211739,5.453112 66.8964439,5.49935912 66.915194,5.59930054 C66.9262336,5.65813115 67.2054318,6.24464113 67.535637,6.90262577 C68.0753418,7.9780757 68.1507782,8.11224584 68.2821622,8.23036117 C68.4223718,8.35642822 68.6727229,8.46598637 68.8205754,8.46598637 C68.8855313,8.46598637 68.9182564,8.5378344 68.9189931,8.6820451 C68.9199245,8.86432919 68.9477424,8.85785937 68.166498,8.85785937 L67.4501843,8.85785937 L67.4361174,8.62423367 C67.4268337,8.47084015 67.3958644,8.32634691 67.3458028,8.20343834 C67.249696,7.96749023 66.4994754,6.53391017 66.385112,6.36769097 C66.297754,6.24072582 66.1435068,6.14503272 66.0261816,6.14503272 L65.960368,6.14503272 L65.9732441,7.1020545 C65.9815188,7.71566895 65.9987845,8.09828997 66.0213985,8.16837206 C66.0701179,8.31934374 66.1893049,8.42887162 66.3365419,8.4579842 C66.4433916,8.47907442 66.4632992,8.49552277 66.4797102,8.57573625 C66.4901947,8.62699861 66.4925359,8.71143013 66.4849575,8.76337868 L66.4710924,8.85785937 L65.5451308,8.85785937 C65.0358514,8.85785937 64.6101256,8.84874867 64.5990739,8.83774946 L64.5990517,8.83757791 Z M69.1505173,8.83757791 C69.1253907,8.81245128 69.1240889,8.57767373 69.1487009,8.51350496 C69.1608,8.482021 69.204585,8.46587537 69.2779537,8.46587537 C69.4278517,8.46587537 69.6445734,8.3510598 69.7099591,8.23701115 C69.8185849,8.04753216 69.8267414,7.75414599 69.8175546,4.36654177 C69.8077663,0.764140208 69.8147291,0.902245841 69.6365359,0.770013179 C69.5863129,0.732777333 69.489753,0.70401794 69.3856279,0.695440578 C69.1980995,0.679900414 69.1605478,0.636004499 69.1605478,0.432428361 C69.1605478,0.33797646 69.1690242,0.328793636 69.2735803,0.31074081 C69.5972526,0.254836586 69.9605503,0.167206211 70.2239167,0.0815234024 C70.3966184,0.0253164484 70.5280771,-0.00283748364 70.5414003,0.0134090506 C70.553903,0.0286464834 70.5569101,0.997454568 70.5480603,2.16621612 C70.5391802,3.33497766 70.5369703,4.31496659 70.5430148,4.34397826 C70.5490694,4.37304038 70.5631363,4.39675427 70.5742162,4.39675427 C70.5852962,4.39675427 70.667548,4.29442129 70.7570049,4.16934315 C71.1940488,3.55823128 71.7224728,3.24661064 72.249904,3.28895254 C72.6060865,3.31751012 72.8896017,3.51872496 73.0146818,3.83163724 C73.172031,4.22526756 73.1753913,4.26699391 73.2009973,6.14499236 C73.2242772,7.85248293 73.2398073,8.11360813 73.3264589,8.25516489 C73.3870857,8.35415774 73.5429091,8.43647015 73.7065571,8.45585499 C73.8493601,8.4728079 73.856778,8.47825705 73.8730336,8.57840028 C73.8824183,8.63601998 73.8822165,8.72251007 73.8725927,8.77051303 L73.8551352,8.85787818 L72.8825077,8.85787818 C71.8192679,8.85787818 71.8727523,8.86688222 71.8736998,8.68201482 C71.8745979,8.50648162 71.9000475,8.47417019 72.0534289,8.4538267 C72.2147418,8.43243375 72.3343103,8.35332019 72.4013348,8.22373137 C72.4890257,8.05415187 72.5121977,7.56555501 72.4995607,6.15226798 C72.4858168,4.6144881 72.4696509,4.46687673 72.2852528,4.19515597 C72.1393397,3.98013662 72.0529889,3.92956045 71.8318362,3.92956045 C71.6753861,3.92956045 71.6056784,3.94853156 71.413607,4.04346783 C71.1414009,4.17800125 70.7938845,4.50559596 70.6525296,4.76091882 L70.562104,4.92425199 L70.562104,6.50671489 C70.562104,8.02953988 70.5644249,8.0936481 70.6223877,8.20779766 C70.7010169,8.36252319 70.8095791,8.43883145 70.9780839,8.45782274 C71.1227658,8.47417019 71.1485726,8.50787418 71.1494636,8.68201482 C71.1504112,8.86711431 71.2037735,8.85787818 70.1419121,8.85787818 C69.6076574,8.85787818 69.1614973,8.84871839 69.1504457,8.83771919 L69.1505173,8.83757791 Z M75.2896618,2.35975169 C75.2479254,2.31474577 75.2137875,2.26479524 75.2137875,2.24891198 C75.2137875,2.23296818 75.3274083,2.04167281 75.4662788,1.82378761 C75.7436132,1.38865295 75.968991,1.00241935 76.1414858,0.666671094 L76.2536918,0.448271254 L76.381545,0.448140071 L76.5093971,0.448008888 L76.6793268,0.787107359 C76.8526087,1.13289617 77.2075036,1.73961845 77.420863,2.05483149 C77.5340216,2.22200934 77.5372225,2.23318009 77.4918331,2.30244482 C77.3806574,2.47212524 77.3578497,2.4621755 76.9869191,2.08216805 C76.7973372,1.88795638 76.5836932,1.65105971 76.512155,1.55572989 C76.4406198,1.46036979 76.3735428,1.38281025 76.3631006,1.38329462 C76.3526564,1.38377899 76.2842999,1.46654549 76.2111884,1.56724373 C76.0562722,1.78058797 75.6501643,2.216207 75.4820571,2.34934786 L75.3655432,2.44168065 L75.2896588,2.35984251 L75.2896618,2.35975169 Z M76.1598605,8.94899281 C75.5323709,8.85353181 75.1076451,8.52493808 74.7788304,7.88053595 C74.5450882,7.42244423 74.4339659,6.97209232 74.4100694,6.38601625 C74.3722281,5.45798596 74.6101742,4.56346793 75.0507853,3.97732123 C75.8145621,2.9612771 77.3335525,3.0975159 77.920004,4.23467239 C78.2077301,4.79258443 78.3485673,5.40591632 78.3485673,6.10102581 C78.3485673,7.32726578 77.8658021,8.40231207 77.1537256,8.76177421 C76.8430273,8.91860876 76.4485836,8.99290891 76.1598605,8.94899281 L76.1598605,8.94899281 L76.1598605,8.94899281 Z M76.9157058,8.4831411 C77.3530181,8.22685959 77.524645,7.74104785 77.5556578,6.67169289 C77.6084741,4.85053713 77.1812226,3.76468336 76.3795288,3.68256268 C75.9366644,3.63715311 75.6045731,3.91048844 75.4019324,4.48705876 C75.2448355,4.93405037 75.1984804,5.27056554 75.2005571,5.94895421 C75.2021717,6.48554394 75.2114151,6.59447644 75.2844437,6.94016435 C75.5205836,8.05800663 75.9814746,8.61932944 76.6243499,8.57205303 C76.7240189,8.56498932 76.8335054,8.53128533 76.9157058,8.48315119 L76.9157058,8.4831411 Z M79.1936081,5.93586616 C79.122638,5.80326013 79.1830731,5.45807678 79.2998504,5.32904297 C79.3500935,5.27354239 79.4029957,5.2707169 80.4142859,5.2707169 C81.305928,5.2707169 81.4817912,5.27778061 81.5123145,5.31451191 C81.592639,5.41128474 81.5232633,5.80647917 81.4025303,5.93989248 C81.3570299,5.99014573 81.275663,5.99418214 80.289125,5.99418214 C79.2677175,5.99418214 79.2235532,5.99216394 79.1936081,5.93585607 L79.1936081,5.93586616 Z M83.9051737,8.94523895 C83.1530671,8.81958563 82.6540402,8.23574977 82.4133221,7.19985662 C82.3256412,6.82254348 82.3043028,6.02501019 82.369961,5.57926987 C82.5094955,4.63193547 82.8948138,3.92735052 83.4891433,3.53273129 C83.9348251,3.23682236 84.5380347,3.20726578 85.0287235,3.4573514 C85.4768705,3.68572117 85.7472088,4.20329942 85.6437012,4.63477104 C85.5463431,5.04061149 85.0651742,5.15877727 84.9368084,4.80837687 C84.9115506,4.73945523 84.8758991,4.56772634 84.8575738,4.4268154 C84.7999036,3.98332538 84.6671069,3.773402 84.3984588,3.70105951 C83.9295344,3.57479064 83.5053162,3.90821796 83.2822967,4.578332 C83.1211967,5.0623879 83.0618,6.02735131 83.1544254,6.65574909 C83.2723308,7.45564367 83.5752187,8.04147755 83.9895144,8.27095732 C84.1308138,8.3492636 84.1809985,8.36036372 84.3920743,8.36026281 C84.5964658,8.36017199 84.6580048,8.34734631 84.7959066,8.27640647 C85.0775579,8.13140868 85.2535119,7.95918532 85.4950192,7.59211456 L85.5429919,7.51925743 L85.6238714,7.60018737 L85.7047508,7.68111731 L85.6100568,7.87012202 C85.1807789,8.7269703 84.6397794,9.06819797 83.9051757,8.94547104 L83.9051737,8.94523895 Z M86.1165137,8.81040281 C86.0935768,8.750664 86.0933548,8.62208428 86.1160243,8.53760231 C86.1300104,8.48543176 86.1632603,8.47059797 86.2970107,8.45687419 C86.5242694,8.43346303 86.653827,8.34609502 86.7214771,8.17077373 C86.7732945,8.0364825 86.7762612,7.83958661 86.7762612,4.53230688 C86.7762612,1.66133236 86.7688948,1.01507348 86.7352715,0.91983448 C86.6867237,0.78244531 86.5206377,0.690909712 86.3180121,0.689850155 C86.197481,0.689214421 86.1897997,0.683795546 86.1599343,0.576154688 C86.0974609,0.351175507 86.1059171,0.337502182 86.3316662,0.298631592 C86.611483,0.25049745 87.0907225,0.127679705 87.290018,0.0531071039 C87.3809986,0.0191003831 87.472175,-0.00320076019 87.4926285,0.00366113007 C87.5218016,0.0137521451 87.527392,0.488150946 87.5185523,2.20638845 C87.5113876,3.59248019 87.5179075,4.39671391 87.5362115,4.39671391 C87.552115,4.39671391 87.6674119,4.26355287 87.7924244,4.10080498 C87.917437,3.938047 88.0926059,3.74302804 88.1816884,3.66741606 C88.8460314,3.10353014 89.711795,3.17599372 89.9915967,3.81889229 C90.0252906,3.89629038 90.0801958,4.08172287 90.1136213,4.23092862 C90.1691622,4.47885477 90.1762058,4.65400452 90.1955704,6.26552953 C90.2174679,8.08858241 90.2221703,8.15258972 90.3448478,8.29684078 C90.4122457,8.37605525 90.6153052,8.46445254 90.7318534,8.46523964 C90.8430957,8.46599646 90.8714071,8.52568482 90.8550939,8.72498237 L90.8455075,8.84268397 L89.8569028,8.85075678 L88.8682982,8.85882959 L88.8772792,8.67075325 L88.8862602,8.48267691 L89.0120619,8.46128396 C89.1869139,8.43161638 89.314645,8.35934453 89.3652171,8.26154241 C89.4590535,8.08008577 89.4740316,7.82083751 89.4734352,6.38831701 C89.4728448,4.97234577 89.4564823,4.66573028 89.3669911,4.39363615 C89.3137206,4.23169554 89.146235,4.02416372 89.0133253,3.95543382 C88.8794619,3.88620945 88.6356841,3.91890434 88.391413,4.03898742 C88.1465353,4.1592925 87.714208,4.57918973 87.6038738,4.80386618 L87.5298663,4.95457549 L87.5208853,6.31018228 C87.5117025,7.68774711 87.5319047,8.08417264 87.619747,8.25404478 C87.6824021,8.3752076 87.7881549,8.4402341 87.9527313,8.45878139 C88.1048039,8.47593611 88.1292766,8.51680472 88.1122188,8.72521446 L88.1026323,8.84291606 L87.1188573,8.85098887 C86.2414112,8.85805258 86.1330892,8.85401618 86.1166308,8.81082663 L86.1166308,8.81082663 L86.1165137,8.81040281 Z M91.1518969,8.83757791 C91.1267703,8.81245128 91.1254686,8.57767373 91.1500805,8.51350496 C91.1621797,8.482021 91.2059646,8.46587537 91.2793333,8.46587537 C91.4292313,8.46587537 91.645953,8.3510598 91.7113388,8.23701115 C91.8199645,8.04753216 91.8281201,7.75414599 91.8189342,4.36654177 C91.8091459,0.764140208 91.8161087,0.902245841 91.6379155,0.770013179 C91.5876925,0.732777333 91.4911326,0.70401794 91.3870075,0.695440578 C91.1994791,0.679900414 91.1619264,0.636004499 91.1619264,0.432428361 C91.1619264,0.33797646 91.1704028,0.328793636 91.2749599,0.31074081 C91.5986312,0.254836586 91.9619299,0.167206211 92.2252964,0.0815234024 C92.3988063,0.0251146281 92.5296222,-0.00293839379 92.5433339,0.0134090506 C92.5561394,0.0286464834 92.5587126,0.997454568 92.5490857,2.16621612 C92.5393984,3.33497766 92.536916,4.31496659 92.5435357,4.34397826 C92.5500949,4.37304038 92.5646158,4.39675427 92.5757058,4.39675427 C92.5867858,4.39675427 92.6690376,4.29442129 92.7584935,4.16934315 C92.9753433,3.86612833 93.3089119,3.55404351 93.5390981,3.43901603 C94.0169379,3.20024243 94.5279167,3.24088904 94.8230183,3.5411371 C94.9575618,3.6780419 95.0280879,3.82378643 95.1162531,4.14713283 C95.1765974,4.36836824 95.181542,4.48178116 95.2031367,6.14499236 C95.2254379,7.85618633 95.2405744,8.11245775 95.3279323,8.25516489 C95.3885793,8.35415774 95.5443745,8.43647015 95.7080205,8.45585499 C95.8508285,8.4728079 95.8582454,8.47825705 95.8745021,8.57840028 C95.883584,8.63601998 95.883584,8.72251007 95.8740581,8.77051303 L95.8566006,8.85787818 L94.8839781,8.85787818 C93.8207383,8.85787818 93.8742207,8.86688222 93.8751693,8.68201482 C93.8760674,8.50648162 93.9015068,8.47417019 94.0549003,8.4538267 C94.2165987,8.43233284 94.3357938,8.35332019 94.4033128,8.22275255 C94.4893892,8.05624071 94.5140819,7.52735042 94.5008929,6.13009802 C94.4865637,4.6166274 94.4698126,4.46499981 94.286701,4.19515597 C94.140795,3.98013662 94.0544361,3.92956045 93.8332915,3.92956045 C93.6768404,3.92956045 93.6071317,3.94853156 93.4150593,4.04346783 C93.1428542,4.17800125 92.7953368,4.50559596 92.6539819,4.76091882 L92.5635563,4.92425199 L92.5635563,6.50671489 C92.5635563,8.02953988 92.5658772,8.0936481 92.62384,8.20779766 C92.7024692,8.36252319 92.8110313,8.43883145 92.9795311,8.45782274 C93.1242161,8.47417019 93.1500188,8.50787418 93.1509169,8.68201482 C93.1518655,8.86711431 93.2052066,8.85787818 92.1433644,8.85787818 C91.6091097,8.85787818 91.1629496,8.84871839 91.1518979,8.83771919 L91.1518969,8.83757791 Z M96.2742677,8.80998908 C96.2490402,8.74419566 96.2520675,8.54837951 96.2793132,8.50785399 C96.2915234,8.48948835 96.3643805,8.46759084 96.4412841,8.4592153 C96.6305007,8.43842781 96.8011196,8.3494856 96.8650563,8.23824225 C96.8941184,8.18768627 96.9315561,8.05202266 96.9482063,7.93682363 C96.9915976,7.63669666 96.9892767,4.56500176 96.9451789,4.36098162 C96.8969439,4.13619417 96.7751252,4.02103551 96.5324766,3.97091343 L96.3463378,3.93246667 L96.3463378,3.77329099 C96.3463378,3.63223879 96.3544106,3.61260167 96.4141494,3.60086582 C96.7366986,3.53789789 97.273147,3.39542284 97.4395882,3.32857996 C97.5518306,3.28347312 97.6584724,3.25158552 97.6765757,3.25764012 C97.6999869,3.26571294 97.7106834,3.96250762 97.7136097,5.66379221 C97.7176462,8.21205607 97.7145684,8.15072288 97.8629467,8.31083702 C97.9442803,8.39862885 98.036169,8.43655088 98.2280497,8.4615766 C98.361019,8.47893314 98.3791929,8.4904369 98.4010501,8.57137693 C98.4144711,8.62112564 98.4172966,8.70589016 98.4071047,8.75976609 L98.3890417,8.85774985 L97.3406458,8.85774985 C96.4124541,8.85774985 96.290151,8.85270434 96.2739549,8.81012026 L96.2742677,8.80998908 Z M97.1451526,1.81100229 C96.9984898,1.71877042 96.875339,1.4619339 96.874673,1.24677328 C96.8737648,0.960178358 97.0651107,0.688437413 97.300867,0.641504102 C97.5106693,0.5997273 97.7630759,0.936262652 97.7630759,1.25773212 C97.7630759,1.670606 97.4160661,1.98130836 97.1451526,1.81100229 L97.1451526,1.81100229 Z M100.709693,8.9483268 C100.019568,8.82614479 99.5675815,8.43062746 99.2431453,7.66499187 C98.7999176,6.61899761 98.901958,5.14924126 99.4862883,4.16273354 C99.5414861,4.06949256 99.6748389,3.90268808 99.7826008,3.79199974 C100.58638,2.96639325 101.950322,3.19056515 102.49002,4.23698323 C102.661396,4.56925008 102.809704,5.03380005 102.872984,5.43653246 C102.948465,5.91725833 102.922027,6.64257022 102.812943,7.07909744 C102.607681,7.90061707 102.206069,8.51769273 101.715444,8.76535652 C101.408051,8.92052606 100.986197,8.99726823 100.709703,8.9483268 L100.709703,8.9483268 L100.709693,8.9483268 Z M101.484521,8.4831411 C101.970787,8.19817083 102.164141,7.50653266 102.125129,6.19168349 C102.08537,4.85010321 101.785355,4.02888632 101.236333,3.75849757 C101.016439,3.65020079 100.695737,3.65829379 100.480223,3.7776705 C100.19833,3.93379868 100.026844,4.21151351 99.8927443,4.72906149 C99.5216876,6.16109762 99.9273565,8.07830976 100.682982,8.46380671 C100.962281,8.60629185 101.262004,8.61350692 101.484521,8.48308055 L101.484521,8.48308055 L101.484521,8.4831411 Z M101.127491,2.24692405 C101.075825,2.19192802 100.785961,1.826714 100.483402,1.43538444 C100.112688,0.955899768 99.9333102,0.699769623 99.9333102,0.649899827 C99.9333102,0.503126012 100.412916,0.258620717 100.603354,0.308308875 C100.66057,0.323243578 100.728119,0.463559142 101.014946,1.16324995 C101.375003,2.04159208 101.422653,2.20970839 101.336072,2.2962893 C101.264628,2.36773369 101.234224,2.36056907 101.127491,2.24694424 L101.127491,2.24692405 Z M103.570465,8.83757791 C103.545339,8.81245128 103.544027,8.57767373 103.568447,8.51350496 C103.57874,8.48676377 103.621728,8.46577446 103.666431,8.46567355 C103.798643,8.46540109 103.965145,8.4075493 104.057508,8.32984849 C104.224746,8.18912928 104.228369,8.14276107 104.228369,6.14489145 C104.228369,4.50526296 104.223324,4.31009263 104.178015,4.21026222 C104.121202,4.085063 104.003138,4.0113885 103.776251,3.95958122 L103.625542,3.92517086 L103.61646,3.77151498 L103.607378,3.61785909 L103.782185,3.58274236 C104.130446,3.51271071 104.558729,3.3968154 104.73741,3.32421055 C104.837816,3.28344285 104.936748,3.25649984 104.957233,3.26437083 C104.985891,3.27537004 104.990231,3.40765315 104.975901,3.83770194 C104.963994,4.19604398 104.967829,4.39674418 104.986901,4.39674418 C105.003147,4.39674418 105.092342,4.29162608 105.185028,4.16313718 C105.389683,3.87947875 105.658054,3.60236938 105.840893,3.48592916 C106.19314,3.2615958 106.651474,3.22334076 106.97916,3.3908718 C107.268116,3.53865471 107.418775,3.80132383 107.517919,4.33021412 C107.557778,4.54302353 107.571099,4.91733965 107.588455,6.3107171 C107.602885,7.46777307 107.62115,8.06382915 107.64446,8.13603036 C107.704805,8.3227545 107.916696,8.46588546 108.132633,8.46588546 C108.220021,8.46588546 108.250991,8.52209242 108.251808,8.68194419 C108.252757,8.86705377 108.3063,8.85772967 107.243009,8.85772967 L106.270377,8.85772967 L106.252919,8.77044239 C106.242828,8.72240916 106.243837,8.63427423 106.253101,8.57452533 C106.268843,8.47734886 106.280448,8.46587537 106.36277,8.46587537 C106.495507,8.46587537 106.692777,8.36087836 106.753646,8.257839 C106.853345,8.08906678 106.870681,7.746386 106.857664,6.20275333 C106.844344,4.62237928 106.837381,4.54055124 106.691747,4.25818445 C106.617377,4.11406457 106.445375,3.95368807 106.335504,3.92610933 C106.205734,3.89351535 105.99461,3.93942947 105.800559,4.04234773 C105.576428,4.16124007 105.19637,4.53681756 105.070777,4.7635324 L104.981774,4.92417126 L104.972692,6.35592485 C104.96462,7.76059415 104.978747,8.07072131 105.062099,8.24625452 C105.107206,8.34131188 105.328259,8.46587537 105.451743,8.46587537 C105.541856,8.46587537 105.569152,8.51138585 105.569152,8.66179243 C105.569152,8.87036362 105.634239,8.85771958 104.561181,8.85771958 C104.026932,8.85771958 103.580768,8.84863766 103.569718,8.83763846 L103.569718,8.83763846 L103.570465,8.83757791 Z M108.814917,5.91880226 C108.750637,5.82071759 108.778388,5.57421427 108.872638,5.40620896 L108.940147,5.28582315 L110.015839,5.27775034 L111.091531,5.26967753 L111.141683,5.34616742 C111.178616,5.40247529 111.186992,5.45829878 111.173369,5.55764483 C111.154297,5.69670911 111.050854,5.93161785 110.991448,5.97074071 C110.972982,5.98295084 110.486786,5.99314276 109.911074,5.99334458 L108.864323,5.99379868 L108.814978,5.9184188 L108.814917,5.91880226 Z M113.011831,8.94510777 C112.914755,8.93098035 112.733127,8.89061629 112.60816,8.85560046 C112.451658,8.81170455 112.341384,8.79777895 112.253763,8.81089727 L112.126566,8.82996929 L112.107898,8.45949785 C112.097605,8.25574007 112.08045,7.86254367 112.069653,7.58572695 L112.050076,7.0824073 L112.129291,7.062528 C112.235832,7.03578681 112.2944,7.06255827 112.311514,7.14577887 C112.547967,8.29626559 112.754954,8.57493906 113.369154,8.56976237 C113.86209,8.56572597 114.167918,8.20813066 114.167918,7.63607102 C114.167918,7.0966659 113.990952,6.86679258 113.236416,6.42610786 C112.479903,5.98426267 112.233339,5.62627382 112.18801,4.90392869 C112.155921,4.39194086 112.284884,3.99364849 112.579673,3.69420771 C112.881556,3.38760231 113.217415,3.25982987 113.636909,3.29198994 C113.868477,3.30975013 114.594011,3.4688148 114.676283,3.51986524 C114.710694,3.54115728 114.712106,3.65386383 114.685365,4.20204813 C114.65156,4.88771243 114.646616,4.90758164 114.510992,4.90856046 C114.419063,4.90921638 114.393442,4.86345363 114.33442,4.59251996 C114.206113,4.00365878 113.90875,3.67451005 113.50507,3.67451005 C113.039682,3.67451005 112.738102,4.1596356 112.839951,4.74446038 C112.859426,4.85644037 112.901102,4.99845123 112.932485,5.06003669 C113.013011,5.21790053 113.241462,5.41296994 113.537694,5.57684803 C113.677222,5.65404429 113.871989,5.76254289 113.970507,5.81798292 C114.197031,5.94545263 114.549651,6.29328992 114.658624,6.49676514 C114.921989,6.98850031 114.924674,7.68788838 114.665688,8.21515401 C114.535181,8.48038625 114.36767,8.63535397 114.034606,8.79901005 C113.682873,8.97184896 113.436663,9.00703633 113.012527,8.9450775 L113.012527,8.9450775 L113.011831,8.94510777 Z M118.726746,8.98278762 C118.686685,8.95806463 118.598822,8.50686507 118.598822,8.3259029 C118.598822,8.11198347 118.53757,8.12236713 118.272176,8.38130257 C117.825235,8.81729497 117.568641,8.96111212 117.242428,8.95846827 C116.73811,8.95443187 116.38892,8.71305479 116.211429,8.24593161 C116.05404,7.8317358 116.057017,7.87050548 116.038469,5.99420232 C116.022626,4.388742 116.016168,4.22013123 115.967126,4.11073454 C115.873078,3.90104325 115.79243,3.84183926 115.518066,3.78122253 C115.454391,3.76719602 115.432292,3.74055574 115.417055,3.65956525 C115.406358,3.60255102 115.409991,3.51976433 115.424118,3.47556569 L115.450859,3.39524121 L116.097784,3.39826851 C116.453593,3.40028671 116.75149,3.40129582 116.759775,3.40129582 C116.767848,3.40141691 116.774811,4.33403861 116.774811,5.47379858 C116.774811,7.36680237 116.779856,7.56302216 116.828394,7.7419964 C116.933805,8.1271099 117.164041,8.3634112 117.467145,8.39757938 C117.580558,8.41039497 117.639671,8.39556118 117.807495,8.31331941 C118.064463,8.18716153 118.486963,7.77495366 118.538266,7.60033874 C118.561778,7.52031699 118.569145,6.9900846 118.562585,5.84301873 C118.553503,4.31841772 118.549164,4.19102875 118.496994,4.07178322 C118.433319,3.92617996 118.318716,3.83188952 118.171387,3.80393741 C117.98987,3.76952705 117.965349,3.74379496 117.965853,3.58883733 C117.966105,3.51063196 117.976247,3.43315315 117.988457,3.41657361 C118.002383,3.3976025 118.251782,3.38983242 118.662123,3.3955843 L119.31366,3.40466621 L119.299028,5.39995253 C119.28379,7.4708811 119.290955,7.63605084 119.407506,7.86032365 C119.471281,7.98317167 119.657561,8.09200326 119.864629,8.12735209 L120,8.15046051 L120,8.29948462 L120,8.44850873 L119.728723,8.51783401 C119.396265,8.60290127 119.126229,8.72621347 118.971453,8.8637641 C118.840996,8.97967959 118.774345,9.01189011 118.726312,8.98220234 L118.726312,8.98220234 L118.726746,8.98278762 Z M116.429082,2.34749111 L116.340382,2.25253466 L116.510275,1.99078382 C116.780976,1.57373226 117.106159,1.02061345 117.255688,0.722878048 L117.393743,0.447998797 L117.522797,0.447998797 C117.650035,0.447998797 117.653052,0.450017 117.736283,0.621311981 C117.868576,0.892921743 118.242741,1.54597187 118.473401,1.90785586 C118.674828,2.22385599 118.681528,2.24029426 118.636865,2.30845906 C118.535057,2.46383042 118.505329,2.45375959 118.211751,2.16433919 C118.060678,2.0154059 117.847183,1.78193008 117.737322,1.64550965 C117.627461,1.50908921 117.528821,1.39444519 117.518105,1.39075188 C117.507408,1.38671547 117.435056,1.4684527 117.357254,1.57160305 C117.171438,1.81814673 116.832259,2.18474322 116.657422,2.32800536 L116.517782,2.44242738 L116.429082,2.34747093 L116.429082,2.34749111 Z" id="hak-tagline" fill="#000000" fill-rule="nonzero"></path>
    </g>
</svg>