<svg xmlns="http://www.w3.org/2000/svg" width="120" height="14"><path fill="#000" fill-rule="nonzero" d="M2.015 10.459h3.187c.41 0 1.788.03 1.788.03.15-.75.3-1.723.39-2.502a.834.834 0 0 0-.495-.075c-.3 1.078-.854 1.963-2.442 1.963h-.944c-.585 0-.854-.285-.854-1.05V2.623c0-1.243.254-1.318 1.303-1.363.09-.09.09-.405 0-.495A94.32 94.32 0 0 1 2 .794C1.46.794.757.78.067.764c-.09.09-.09.405 0 .495 1.05.045 1.304.12 1.304 1.363v6.009c0 1.244-.255 1.318-1.304 1.363-.09.09-.09.405 0 .495.585-.015 1.443-.03 1.948-.03ZM9.627 0c-.464 0-.794.315-.794.734 0 .472.39.615.66.66.284.03.539.12.539.464 0 .315-.54 1.004-1.319 1.199 0 .15.03.254.135.36.9-.165 1.768-.885 1.768-1.934 0-.899-.39-1.483-.989-1.483Zm3.941 6.233c.285-1.693 1.334-1.828 1.693-1.828.57 0 1.244.315 1.244 1.574 0 .135-.06.206-.225.21l-2.712.044Zm3.926 2.832c-.554.57-.989.81-1.858.81-.54 0-1.169-.315-1.633-1.08-.3-.494-.48-1.183-.48-2.052l3.986.03c.18 0 .285-.09.285-.255 0-1.259-.45-2.607-2.533-2.607-1.303 0-2.997 1.244-2.997 3.521 0 .84.21 1.648.705 2.218.51.6 1.213.959 2.292.959 1.14 0 1.948-.525 2.548-1.304-.045-.15-.135-.225-.315-.24Zm3.671-3.97c-.091.104-.175.14-.18 0-.015-.405-.05-.985-.12-1.14-.031-.068-.06-.12-.18-.12-.419.166-.809.3-1.843.435-.03.09 0 .33.03.42.81.075.974.15.974 1.019V8.63c0 1.229-.15 1.288-1.048 1.363-.09.09-.09.405 0 .495a41.418 41.418 0 0 1 3.147 0c.09-.09.09-.405 0-.495-.765-.075-.915-.134-.915-1.363V6.173a.88.88 0 0 1 .255-.629c.57-.554 1.244-.884 1.828-.884.3 0 .614.195.794.54.15.3.18.704.18 1.153v2.278c0 1.229-.15 1.288-.93 1.363-.074.09-.074.405 0 .495.45-.015.93-.03 1.53-.03.599 0 1.138.015 1.588.03.075-.09.075-.405 0-.495-.84-.075-1.004-.134-1.004-1.363V6.398c0-.824-.06-1.543-.405-2.008-.255-.33-.72-.51-1.244-.51-.734 0-1.568.196-2.457 1.215Zm11.328 4c-.06-.135-.18-.194-.315-.21-.51.66-1.153.99-1.798.99-1.094 0-2.008-1.11-2.008-2.862 0-1.649.72-2.638 1.709-2.638.884 0 1.003.525 1.063 1.05.045.404.255.539.57.539.314 0 .734-.195.734-.66 0-.824-.854-1.423-2.293-1.423-1.483 0-3.071 1.333-3.071 3.461 0 1.933 1.079 3.267 2.967 3.267.899 0 1.693-.285 2.442-1.514Zm1.798-7.612c0 .39.36.78.72.78.419 0 .778-.403.778-.72 0-.36-.314-.779-.719-.779-.36 0-.779.36-.779.72Zm1.364 7.148V5.645c0-.745.06-1.704.06-1.704 0-.06-.075-.105-.195-.105-.427.165-1.02.3-2.053.434-.03.09 0 .33.03.42.817.076.974.165.974 1.019V8.63c0 1.244-.165 1.288-1.079 1.363-.09.09-.09.405 0 .495a55.6 55.6 0 0 1 1.678-.03c.6 0 1.169.015 1.663.03.09-.09.09-.405 0-.495-.914-.06-1.078-.12-1.078-1.363Zm7.312.464c-.06-.135-.18-.194-.315-.21-.51.66-1.154.99-1.798.99-1.094 0-2.008-1.11-2.008-2.862 0-1.649.72-2.638 1.708-2.638.884 0 1.004.525 1.064 1.05.045.404.255.539.57.539.314 0 .734-.195.734-.66 0-.824-.854-1.423-2.293-1.423-1.483 0-3.071 1.333-3.071 3.461 0 1.933 1.078 3.267 2.966 3.267.9 0 1.694-.285 2.443-1.514Zm1.873-.464c0 1.244-.165 1.318-1.079 1.363-.09.09-.09.405 0 .495.524-.015 1.079-.03 1.678-.03.6 0 1.169.015 1.663.03.09-.09.09-.405 0-.495-.914-.045-1.078-.12-1.078-1.363V1.723c0-.974.06-1.573.06-1.573 0-.105-.06-.15-.195-.15-.375.15-1.499.36-2.098.405-.03.12 0 .36.09.45.869.059.959.104.959 1.228V8.63Zm3.147-1.244c0 1.529 1.018 3.222 3.146 3.222.965 0 1.69-.34 2.201-.84.672-.656.976-1.598.976-2.517 0-1.558-.854-3.371-3.147-3.371-.986 0-1.8.404-2.348 1.049-.544.638-.828 1.51-.828 2.457Zm2.951-2.982c1.289 0 2.083 1.17 2.083 3.327 0 1.888-.974 2.352-1.678 2.352-1.558 0-2.068-1.888-2.068-3.041 0-1.304.315-2.638 1.663-2.638ZM57.546 5.5c.39-.48 1.076-.929 1.514-.929.959 0 1.783 1.079 1.783 2.772 0 1.229-.435 2.757-2.113 2.757-.27 0-.794-.075-1.064-.316-.301-.27-.36-.357-.36-.897V6.158c0-.314.067-.445.24-.659Zm-.284-.554c-.023-.45-.05-.835-.12-.99-.032-.068-.06-.12-.18-.12-.42.166-.81.3-1.843.435-.03.09 0 .33.03.42.809.075.974.15.974 1.019v6.398c0 1.244-.165 1.319-1.079 1.364-.09.09-.09.404 0 .494.524-.015 1.079-.03 1.678-.03.6 0 1.319.015 1.813.03.09-.09.09-.404 0-.494-1.064-.06-1.228-.12-1.228-1.364V10.49c0-.195.057-.175.21-.113.366.149.83.233 1.303.233.84 0 1.588-.255 2.203-.84.704-.689 1.108-1.618 1.108-2.831 0-1.589-1.123-3.057-2.652-3.057-.696 0-1.46.457-2.053 1.124-.083.094-.157.084-.164-.06Zm8.586-4.54a1.02 1.02 0 0 0-.225-.03c-.51 0-.854.254-.974.344l-.03.165 1.708 1.633c.24.225.345.3.435.3.12 0 .224-.09.224-.165a.742.742 0 0 0-.09-.36L65.848.406Zm-1.29 5.828c.286-1.693 1.334-1.828 1.694-1.828.57 0 1.244.315 1.244 1.574 0 .135-.06.206-.225.21l-2.712.044Zm3.927 2.832c-.555.57-.99.81-1.858.81-.54 0-1.169-.315-1.634-1.08-.3-.494-.479-1.183-.479-2.052l3.986.03c.18 0 .284-.09.284-.255 0-1.259-.45-2.607-2.532-2.607-1.304 0-2.997 1.244-2.997 3.521 0 .84.21 1.648.705 2.218.509.6 1.213.959 2.292.959 1.139 0 1.948-.525 2.547-1.304-.045-.15-.134-.225-.314-.24Zm6.083-.464c0 .285-.028.401-.24.584-.554.48-1.033.72-1.408.72-.81 0-1.648-.885-1.648-2.758 0-1.078.21-1.678.434-1.992.465-.705 1.094-.75 1.394-.75.54 0 .914.195 1.214.54.21.24.254.344.254.809V8.6Zm-.165 1.104c.072-.058.215-.085.225.02.038.367.165.884.165.884.12.045.195.037.285 0 .33-.27.854-.495 1.768-.6.09-.09.09-.314 0-.404-.96-.075-1.094-.36-1.094-1.094V1.723c0-.974.06-1.573.06-1.573 0-.105-.06-.15-.195-.15-.374.15-1.498.36-2.098.405-.03.12 0 .36.09.45.78.044.96-.03.96 1.228V4c0 .105-.03.135-.136.135-.06 0-.674-.255-1.168-.255-.99 0-1.649.33-2.248.899-.644.644-1.034 1.528-1.034 2.637 0 1.843.93 3.192 2.547 3.192.585 0 1.14-.3 1.873-.904Zm3.926-8.222c0 .39.36.78.72.78.42 0 .779-.403.779-.72 0-.36-.315-.779-.72-.779-.36 0-.779.36-.779.72Zm1.364 7.148V5.645c0-.745.06-1.704.06-1.704 0-.06-.075-.105-.195-.105-.427.165-1.019.3-2.053.434-.03.09 0 .33.03.42.817.076.974.165.974 1.019V8.63c0 1.244-.165 1.288-1.079 1.363-.09.09-.09.405 0 .495a55.6 55.6 0 0 1 1.678-.03c.6 0 1.17.015 1.664.03.09-.09.09-.405 0-.495-.914-.06-1.08-.12-1.08-1.363Zm5.739-1.663v1.977c0 .195-.09.3-.21.39-.39.315-.9.66-1.319.66-.749 0-1.079-.6-1.079-1.064 0-.675.315-1.364 1.424-1.649l1.184-.314Zm0 2.772c.09.464.248.869 1.004.869.574 0 1.113-.255 1.423-.555-.025-.184-.085-.31-.255-.404-.112.093-.364.24-.554.24-.435 0-.45-.585-.45-1.274V6.413c0-2.128-1.168-2.532-2.262-2.532-1.229 0-2.472.809-2.472 1.663 0 .36.18.54.524.54.434 0 .704-.315.704-.51a.674.674 0 0 0-.045-.27 1.036 1.036 0 0 1-.03-.3c0-.464.63-.629 1.199-.629.51 0 1.214.255 1.214 1.948 0 .105-.045.165-.09.18l-1.289.315c-1.438.36-2.472 1.154-2.472 2.172 0 1.23.839 1.619 1.888 1.619.521 0 .974-.12 1.633-.63l.3-.24h.03Zm7.627-1.11c0 1.245-.165 1.32-1.08 1.364-.09.09-.09.405 0 .495.525-.015 1.08-.03 1.679-.03.6 0 1.169.015 1.663.03.09-.09.09-.405 0-.495-.914-.045-1.079-.12-1.079-1.363V1.723c0-.974.06-1.573.06-1.573 0-.105-.06-.15-.194-.15-.375.15-1.499.36-2.098.405-.03.12 0 .36.09.45.869.059.959.104.959 1.228V8.63Zm3.88-7.147c0 .39.36.78.72.78.42 0 .779-.403.779-.72 0-.36-.315-.779-.72-.779-.359 0-.778.36-.778.72Zm1.364 7.148V5.645c0-.745.06-1.704.06-1.704 0-.06-.075-.105-.195-.105-.427.165-1.019.3-2.053.434-.03.09 0 .33.03.42.817.076.974.165.974 1.019V8.63c0 1.244-.165 1.288-1.079 1.363-.09.09-.09.405 0 .495a55.6 55.6 0 0 1 1.679-.03c.599 0 1.168.015 1.663.03.09-.09.09-.405 0-.495-.914-.06-1.079-.12-1.079-1.363Zm4.6 1.978c.585 0 1.289-.3 2.023-.9.075-.06.214-.09.225.016.037.382.165.884.165.884.12.045.187.037.284 0 .33-.27.854-.495 1.768-.6.09-.09.09-.314 0-.404-.959-.075-1.093-.36-1.093-1.094V5.634c0-.45.06-1.543.06-1.543 0-.045-.045-.09-.12-.09-.075.015-.3.03-.525.03-.48 0-1.019-.015-1.528-.03-.09.09-.09.404 0 .494.734.045.929.225.929 1.214V8.6c0 .285-.03.404-.24.584-.554.48-1.124.72-1.498.72-.45 0-1.199-.21-1.199-1.544V5.634c0-.45.06-1.543.06-1.543 0-.045-.045-.09-.12-.09-.075.015-.3.03-.524.03-.48 0-1.02-.015-1.529-.03-.09.09-.09.404 0 .494.72.06.93.225.93 1.199v2.877c0 1.034.449 2.038 1.932 2.038Zm7.342-5.514c-.025-.6-.05-.985-.12-1.14-.031-.068-.06-.12-.18-.12-.419.166-.808.3-1.842.435-.03.09 0 .33.03.42.809.075.974.15.974 1.019V8.63c0 1.244-.18 1.303-1.11 1.363-.09.09-.09.405 0 .495.525-.015 1.11-.03 1.709-.03.6 0 1.289.015 1.813.03.09-.09.09-.405 0-.495-1.049-.075-1.229-.12-1.229-1.363V6.548c0-.39.18-.734.36-1.004.165-.24.51-.734.69-.734.134 0 .269.036.386.19.114.15.281.35.542.35.36 0 .704-.375.704-.75 0-.286-.27-.72-.899-.72-.704 0-1.318.66-1.663 1.245-.09.164-.162.045-.165-.03Zm7.328 1.873v1.977c0 .195-.09.3-.21.39-.39.315-.9.66-1.319.66-.749 0-1.079-.6-1.079-1.064 0-.675.315-1.364 1.424-1.649l1.184-.314Zm0 2.772c.09.464.248.869 1.004.869.573 0 1.113-.255 1.423-.555-.025-.184-.085-.31-.255-.404-.112.093-.364.24-.554.24-.435 0-.45-.585-.45-1.274V6.413c0-2.128-1.168-2.532-2.262-2.532-1.229 0-2.473.809-2.473 1.663 0 .36.18.54.525.54.434 0 .704-.315.704-.51a.674.674 0 0 0-.045-.27 1.036 1.036 0 0 1-.03-.3c0-.464.63-.629 1.199-.629.51 0 1.214.255 1.214 1.948 0 .105-.045.165-.09.18l-1.289.315c-1.438.36-2.472 1.154-2.472 2.172 0 1.23.839 1.619 1.888 1.619.521 0 .974-.12 1.633-.63l.3-.24h.03Z"/></svg>