<svg xmlns="http://www.w3.org/2000/svg" width="120" height="16"><path fill="#000" fill-rule="nonzero" d="M4.428 5.579H2.922V2.268c0-.397.198-.729.596-.729h1.738c1.241 0 1.506.663 1.87 1.805.199.033.381 0 .547-.083a58.11 58.11 0 0 0-.365-2.4c0-.033-.016-.05-.066-.05-.281.05-.414.066-.81.066H2.21S.902.861.074.844c-.099.1-.099.447 0 .547 1.16.05 1.44.132 1.44 1.506v6.638c0 1.374-.28 1.457-1.44 1.506-.099.1-.099.447 0 .547.812-.017 2.152-.034 2.152-.034h3.56c.794 0 2.118.034 2.118.034.232-.828.48-1.92.613-2.765-.182-.083-.364-.132-.58-.083-.33 1.192-.91 2.169-2.168 2.169H3.518c-.365 0-.596-.265-.596-.712v-3.99h1.506c1.407 0 1.457.381 1.506 1.126.1.1.447.1.547 0-.017-.58-.033-.894-.033-1.456 0-.563.016-.927.033-1.424-.1-.1-.447-.1-.547 0-.05.91-.099 1.126-1.506 1.126m7.612.05c-.05.065-.166.231-.166 0 0-.497.083-1.259.083-1.259 0-.083-.066-.132-.198-.132-.464.182-1.143.33-2.285.48-.033.1 0 .364.033.463.894.083 1.076.166 1.076 1.126v3.228c0 1.357-.165 1.424-1.159 1.506-.099.1-.099.447 0 .547.68-.017 1.11-.034 1.821-.034.646 0 .944.017 1.64.034.098-.1.098-.447 0-.547-.845-.082-.994-.149-.994-1.506V6.82c0-.348.149-.546.281-.695.63-.613 1.275-.977 1.92-.977.332 0 .68.215.878.596.165.331.199.778.199 1.275v2.516c0 1.357-.166 1.424-1.027 1.506-.083.1-.083.447 0 .547.696-.017 1.027-.034 1.689-.034.678 0 1.043.017 1.754.034.083-.1.083-.447 0-.547-.927-.082-1.109-.149-1.109-1.506V7.068c0-.91-.066-1.705-.447-2.218-.281-.364-.794-.563-1.374-.563-.81 0-1.605.216-2.615 1.341m6.607 3.642c.067.811.116 1.59.116 2.284a2.46 2.46 0 0 1 .414-.05c.116 0 .215 0 .331.034.447.116.894.182 1.507.182.927 0 2.632-.447 2.632-2.086 0-1.125-.828-1.771-1.937-2.201-.993-.381-1.656-.63-1.656-1.54 0-.679.596-1.06 1.16-1.06.363 0 1.324.133 1.539 1.54.1.1.43.083.53-.016 0-.596.082-1.209.099-1.755-.513-.083-1.308-.315-2.169-.315-1.225 0-2.334.795-2.334 1.854 0 1.209.546 1.722 1.821 2.252 1.357.58 1.689.91 1.689 1.622 0 .811-.795 1.159-1.408 1.159-.645 0-1.01-.215-1.175-.398-.397-.38-.546-1.109-.645-1.523-.1-.099-.414-.082-.514.017m7.033-7.631c0 .43.397.86.794.86.464 0 .861-.43.861-.794 0-.397-.348-.86-.795-.86-.397 0-.86.397-.86.794m1.506 7.896V6.24c0-.828.066-1.887.066-1.887 0-.067-.083-.116-.215-.116-.48.182-1.126.33-2.268.48-.033.1 0 .364.033.463.894.1 1.076.182 1.076 1.126v3.228c0 1.374-.182 1.424-1.192 1.506-.099.1-.099.447 0 .547.696-.017 1.126-.034 1.854-.034.712 0 1.126.017 1.838.034.1-.1.1-.447 0-.547-1.01-.066-1.192-.132-1.192-1.506m2.921 0c0 1.374-.182 1.44-1.109 1.506-.099.1-.099.447 0 .547.696-.017 1.076-.034 1.772-.034.579 0 .794.017 1.506.034.1-.1.1-.447 0-.547-.679-.066-.86-.132-.86-1.506v-1.49c.38.017.612.133.943.596l1.208 1.705c.331.48.38.679.38.894v.265c0 .05.017.083.067.083.331-.017.646-.034 1.142-.034.513 0 .861.017 1.358.034.1-.1.1-.447 0-.547-.563-.066-1.06-.132-1.424-.695l-1.937-2.864a.396.396 0 0 1-.082-.232c0-.066.016-.115.066-.165l1.258-1.39c.48-.497.993-.696 1.82-.729.1-.1.1-.447 0-.546-.612.016-.843.033-1.44.033-.628 0-.91-.017-1.522-.033-.1.1-.1.447 0 .546.993.05.463.679.298.844-.878.96-1.705 1.689-2.136 1.821V1.904c0-1.076.066-1.738.066-1.738 0-.116-.066-.166-.215-.166-.414.166-1.655.397-2.317.447-.033.132 0 .397.099.497.86.05 1.06-.034 1.06 1.357v7.234m8.134 0c0 1.374-.182 1.457-1.192 1.506-.099.1-.099.447 0 .547.696-.017 1.126-.034 1.854-.034.712 0 1.126.017 1.838.034.1-.1.1-.447 0-.547-1.01-.05-1.192-.132-1.192-1.506V1.904c0-1.076.066-1.738.066-1.738 0-.116-.066-.166-.215-.166-.414.166-1.655.397-2.317.447-.034.132 0 .397.099.497.86.05 1.06-.034 1.06 1.357v7.234m3.47-1.374c0 1.688 1.142 3.559 3.476 3.559 2.467 0 3.51-2.053 3.51-3.708 0-1.722-.91-3.725-3.476-3.725-2.235 0-3.51 1.772-3.51 3.874m3.327-3.327c1.424 0 2.235 1.274 2.235 3.708 0 2.185-1.01 2.632-1.788 2.632-1.721 0-2.35-2.12-2.35-3.394 0-1.44.513-2.946 1.903-2.946m7.233 1.175c.513-.53 1.175-.96 1.672-.96 1.06 0 1.97 1.192 1.97 3.062 0 1.358-.48 3.046-2.334 3.046-.298 0-.878-.083-1.176-.347-.347-.298-.397-.381-.397-.994V6.737c0-.347.05-.496.265-.728m-.133-.546c-.066.066-.165.082-.165-.05 0-.596.066-1.06.066-1.06 0-.066-.083-.115-.215-.115-.464.182-1.093.33-2.235.48-.033.1 0 .364.033.463.894.083 1.076.182 1.076 1.126v7.068c0 1.374-.182 1.457-1.192 1.507-.099.1-.099.447 0 .546.696-.017 1.126-.033 1.854-.033.778 0 1.292.016 2.003.033.1-.1.1-.447 0-.546-1.175-.066-1.357-.133-1.357-1.507v-1.787c0-.216.05-.183.232-.116.397.165.91.248 1.44.248.927 0 1.755-.281 2.433-.927.778-.761 1.225-1.788 1.225-3.129 0-1.754-1.241-3.377-2.93-3.377-.612 0-1.523.414-2.268 1.176M62.543.447l-1.259 1.97c-.132.215-.182.281-.182.463 0 .116.116.216.232.216s.248-.067.497-.315L63.734.977l-.05-.182a1.346 1.346 0 0 0-.91-.381.863.863 0 0 0-.231.033m-2.417 6.44c.314-1.871 1.473-2.02 1.87-2.02.63 0 1.374.347 1.374 1.738 0 .149-.066.232-.248.232l-2.996.05m4.337 3.128c-.613.629-1.093.894-2.053.894-.596 0-1.291-.348-1.804-1.192-.331-.546-.53-1.308-.53-2.268l4.403.033c.199 0 .315-.1.315-.281 0-1.39-.497-2.88-2.798-2.88-1.44 0-3.31 1.373-3.31 3.89 0 .927.231 1.82.778 2.45.562.662 1.34 1.059 2.532 1.059 1.258 0 2.152-.58 2.814-1.44-.05-.166-.149-.248-.347-.265m6.822-.513c0 .314-.033.447-.265.645-.612.53-1.142.795-1.556.795-.894 0-1.82-.977-1.82-3.046 0-1.192.23-1.854.48-2.202.512-.778 1.208-.827 1.539-.827.596 0 1.01.215 1.34.596.232.265.282.38.282.894v3.145m-.182 1.225c.066-.066.198-.1.198.016 0 .398.183.977.183.977.132.05.182.033.314 0 .364-.298.993-.546 2.003-.662.1-.1.1-.348 0-.447-1.06-.083-1.208-.397-1.208-1.209V1.904c0-1.076.066-1.738.066-1.738 0-.116-.066-.166-.215-.166-.414.166-1.656.397-2.318.447-.033.132 0 .397.1.497.86.05 1.059-.034 1.059 1.357V4.42c0 .116-.033.149-.15.149-.065 0-.744-.282-1.29-.282-1.093 0-1.821.365-2.483.994-.712.711-1.142 1.688-1.142 2.913 0 2.036 1.026 3.526 2.814 3.526.645 0 1.258-.331 2.069-.993m4.335-9.088c0 .43.397.86.794.86.464 0 .86-.43.86-.794 0-.397-.347-.86-.794-.86-.397 0-.86.397-.86.794m1.506 7.896V6.24c0-.828.066-1.887.066-1.887 0-.067-.083-.116-.215-.116-.48.182-1.126.33-2.268.48-.033.1 0 .364.033.463.894.1 1.076.182 1.076 1.126v3.228c0 1.374-.182 1.424-1.192 1.506-.099.1-.099.447 0 .547.696-.017 1.126-.034 1.854-.034.712 0 1.126.017 1.838.034.1-.1.1-.447 0-.547-1.01-.066-1.192-.132-1.192-1.506m6.348-1.838V9.9c0 .215-.1.331-.232.43-.43.348-.993.712-1.456.712-.828 0-1.192-.662-1.192-1.175 0-.745.347-1.49 1.572-1.82l1.308-.349m0 3.063c.1.347.38.96 1.275.96.81 0 1.407-.662 1.407-.745 0-.116-.15-.281-.215-.281-.1 0-.166.265-.514.265-.645 0-.662-.646-.662-1.408V7.085c0-2.35-1.291-2.798-2.5-2.798-1.357 0-2.73.944-2.73 1.838 0 .397.198.58.579.58.48 0 .728-.332.728-.547a.744.744 0 0 0-.05-.298 1.144 1.144 0 0 1-.033-.331c0-.513.745-.695 1.374-.695.563 0 1.341.281 1.341 2.152 0 .116-.05.182-.1.198l-1.423.348c-1.59.397-2.731 1.275-2.731 2.4 0 1.308.927 1.788 2.085 1.788.762 0 1.076-.132 1.805-.695l.33-.265h.034m8.426-1.225c0 1.374-.182 1.457-1.192 1.506-.099.1-.099.447 0 .547.696-.017 1.126-.034 1.854-.034.712 0 1.126.017 1.838.034.1-.1.1-.447 0-.547-1.01-.05-1.192-.132-1.192-1.506V1.904c0-1.076.066-1.738.066-1.738 0-.116-.066-.166-.215-.166-.414.166-1.655.397-2.317.447-.034.132 0 .397.099.497.86.05 1.06-.034 1.06 1.357v7.234M96 1.639c0 .43.398.86.795.86.463 0 .86-.43.86-.794 0-.397-.347-.86-.794-.86-.397 0-.86.397-.86.794m1.506 7.896V6.24c0-.828.066-1.887.066-1.887 0-.067-.083-.116-.215-.116-.48.182-1.126.33-2.268.48-.033.1 0 .364.033.463.894.1 1.076.182 1.076 1.126v3.228c0 1.374-.182 1.424-1.192 1.506-.1.1-.1.447 0 .547.695-.017 1.126-.034 1.854-.034.712 0 1.126.017 1.838.034.099-.1.099-.447 0-.547-1.01-.066-1.192-.132-1.192-1.506m6.877-4.569c.894.066.977.282.63 1.11l-1.325 3.244c-.281.662-.364.645-.612-.05l-1.209-3.195c-.281-.794-.513-1.01.53-1.109.1-.1.1-.447 0-.546-.612.016-1.076.033-1.755.033-.579 0-.844-.017-1.456-.033-.1.1-.1.447 0 .546.943.116.993.38 1.324 1.209l2.119 5.23c.1.249.198.348.414.348.165 0 .264-.1.397-.38l2.202-5.182c.314-.712.496-1.142 1.423-1.225.1-.1.1-.447 0-.546-.364.016-.662.033-1.092.033-.613 0-.977-.017-1.59-.033-.099.1-.099.447 0 .546m4.52 1.34v3.229c0 1.374-.198 1.44-1.225 1.506-.099.1-.099.447 0 .547.696-.017 1.225-.034 1.888-.034.678 0 1.29.017 2.003.034.099-.1.099-.447 0-.547-1.16-.082-1.358-.132-1.358-1.506V7.234c0-.43.199-.811.397-1.11.183-.264.563-.81.762-.81.116 0 .248.016.348.116.165.165.33.48.678.48.398 0 .778-.414.778-.828 0-.315-.298-.795-.993-.795-.778 0-1.457.729-1.837 1.374-.1.182-.15.1-.15.017 0-.53.083-1.324.083-1.324 0-.067-.082-.116-.215-.116-.463.182-1.125.33-2.268.48-.033.1-.033.364.033.463.894.083 1.076.215 1.076 1.126m6.411.58c.315-1.871 1.474-2.02 1.87-2.02.63 0 1.375.347 1.375 1.738 0 .149-.066.232-.248.232l-2.997.05m4.337 3.128c-.612.629-1.092.894-2.052.894-.596 0-1.291-.348-1.805-1.192-.33-.546-.53-1.308-.53-2.268l4.404.033c.199 0 .314-.1.314-.281 0-1.39-.496-2.88-2.797-2.88-1.44 0-3.31 1.373-3.31 3.89 0 .927.23 1.82.777 2.45.563.662 1.341 1.059 2.533 1.059 1.258 0 2.152-.58 2.814-1.44-.05-.166-.149-.248-.348-.265"/></svg>