<svg width="120" height="14" viewBox="0 0 120 14" fill="none" xmlns="http://www.w3.org/2000/svg">
<path fill-rule="evenodd" clip-rule="evenodd" d="M8.75524 1.89165V8.77165C8.75524 9.178 8.61512 9.33214 8.15271 9.37418L7.88648 9.40221C7.81642 9.41622 7.7884 9.44425 7.7884 9.51431V9.78053L7.81642 9.80856C8.07448 9.8034 8.2641 9.79824 8.428 9.79378H8.42801H8.42802C8.70908 9.78613 8.9145 9.78053 9.25968 9.78053C9.64823 9.78053 9.83809 9.78694 10.0894 9.79543L10.0894 9.79543H10.0894H10.0895C10.2097 9.79949 10.344 9.80402 10.5208 9.80856L10.5488 9.78053V9.51431C10.5488 9.44425 10.4928 9.40221 10.4367 9.40221C10.0724 9.36017 9.80616 9.30411 9.80616 8.77165V6.80995C10.1565 6.80995 10.3526 6.90804 10.6329 7.31439L11.6558 8.75764C11.936 9.16399 11.978 9.33215 11.978 9.51431V9.78053L12.0201 9.80856L12.0899 9.80504C12.3416 9.79229 12.5738 9.78053 12.9589 9.78053C13.3314 9.78053 13.6318 9.79084 13.9749 9.80261L13.975 9.80261L14.1499 9.80856L14.178 9.78053V9.51431C14.178 9.44425 14.1499 9.41622 14.0519 9.40221L13.9538 9.38819C13.6035 9.33214 13.1551 9.13597 12.9029 8.75764L11.2634 6.33353C11.2214 6.27748 11.1934 6.20741 11.1934 6.13735C11.1934 6.0813 11.2074 6.03928 11.2494 5.99724L12.3143 4.8202C12.6646 4.45589 13.2812 4.21769 13.6595 4.16164L13.7576 4.14762C13.8277 4.13361 13.9117 4.10558 13.9117 4.03552V3.7693L13.8557 3.74127C13.6966 3.74557 13.5678 3.74987 13.4512 3.75377C13.1878 3.76257 12.9862 3.7693 12.6366 3.7693C12.2629 3.7693 12.0549 3.76239 11.7848 3.75343L11.7848 3.75343L11.7847 3.75343C11.67 3.74963 11.5441 3.74545 11.3895 3.74127C11.3895 3.75528 11.3475 3.7693 11.3475 3.7693V4.03552C11.3475 4.09157 11.3895 4.14762 11.4596 4.14762C12.3003 4.18966 11.7959 4.76416 11.6418 4.91829C10.8851 5.74501 10.1705 6.37557 9.80616 6.45965V1.61142C9.80616 0.700622 9.84819 0.140127 9.84819 0.140127C9.84819 0.0420419 9.79214 0 9.66603 0C9.31573 0.140122 8.33487 0.322295 7.77438 0.364331L7.80241 0.700621C7.80241 0.742657 7.84444 0.770685 7.88648 0.770685L8.33487 0.79871C8.61512 0.79871 8.75524 0.980861 8.75524 1.89165ZM6.06729 0.728646C6.06729 0.700621 6.05328 0.686607 6.01124 0.686607C5.77303 0.728644 5.68896 0.742658 5.35267 0.742658H1.80758C1.32633 0.742658 0.823357 0.731791 0.260371 0.719627L0.0280245 0.714633L0 0.742658V1.0229C0 1.06493 0.0140123 1.12099 0.112098 1.12099L0.532465 1.14901C1.06493 1.19105 1.24709 1.34517 1.24709 1.77955V8.77165C1.24709 9.16399 1.07894 9.33214 0.532465 9.37418L0.112098 9.40221C0.0280245 9.40221 0 9.45826 0 9.50029V9.78053L0.0280245 9.80856L0.260366 9.80357C0.823354 9.7914 1.32633 9.78053 1.80758 9.78053H4.80619C5.47878 9.78053 6.59976 9.80856 6.59976 9.80856L7.11821 7.46851L6.68383 7.39845C6.40358 8.40733 5.85711 9.23405 4.79218 9.23405H2.88652C2.57825 9.23405 2.38208 9.14998 2.38208 8.77165V5.25458H4.16163C4.63804 5.25458 4.8202 5.38069 4.86224 5.78705L4.90428 6.13735C4.90428 6.17939 4.9323 6.24945 5.00236 6.24945H5.31063L5.36668 6.20742C5.32464 5.64693 5.31063 5.2686 5.31063 4.98836C5.31063 4.70811 5.32464 4.28775 5.36668 3.72726L5.31063 3.67121H5.00236C4.94631 3.67121 4.90428 3.72726 4.90428 3.78331L4.86224 4.13361C4.8202 4.52595 4.65206 4.72213 4.16163 4.72213H2.38208V1.77955C2.38208 1.44326 2.55022 1.30314 2.88652 1.30314H4.3578C5.40872 1.30314 5.66094 1.86363 5.96921 2.83048L6.37556 2.76041C6.3055 2.18591 6.09531 0.840743 6.06729 0.728646ZM20.1544 3.58713C20.1824 3.58713 20.2105 3.60115 20.2105 3.62917L20.1684 4.80619H20.2105C20.869 4.10558 21.5136 3.62917 22.3823 3.62917C23.167 3.62917 23.6575 4.16163 23.7555 4.79218C24.5542 3.95145 25.2969 3.62917 26.0535 3.62917C27.2866 3.62917 27.5248 4.61003 27.5248 5.85711V8.77165C27.5248 9.178 27.665 9.33214 28.1274 9.37418L28.3936 9.40221C28.4496 9.40221 28.5057 9.44425 28.5057 9.51431V9.78053L28.4777 9.80856C28.3639 9.80572 28.2576 9.80287 28.1558 9.80014L28.1536 9.80009L28.1523 9.80005C27.7542 9.78938 27.4238 9.78053 26.9784 9.78053C26.5805 9.78053 26.3237 9.78796 25.9972 9.79741H25.9972C25.8752 9.80094 25.7435 9.80475 25.5911 9.80856L25.5631 9.78053V9.51431C25.5631 9.44425 25.6052 9.41622 25.6752 9.40221L25.8714 9.37418C26.2357 9.31813 26.4739 9.178 26.4739 8.77165V5.54885C26.4739 4.61003 26.0816 4.30176 25.5491 4.30176C25.0026 4.30176 24.5122 4.53996 23.8396 5.28261C23.8536 5.45075 23.8536 5.64693 23.8536 5.8431V8.77165C23.8536 9.178 24.0638 9.30412 24.4702 9.37418L24.6383 9.40221C24.7084 9.41622 24.7644 9.44425 24.7644 9.51431V9.78053L24.7364 9.80856C24.5927 9.80497 24.4666 9.80138 24.3487 9.79802H24.3486H24.3486C24.0066 9.78829 23.7344 9.78053 23.3072 9.78053C22.9093 9.78053 22.6525 9.78796 22.326 9.79741H22.326C22.204 9.80094 22.0723 9.80475 21.9199 9.80856L21.8919 9.78053V9.51431C21.8919 9.44425 21.934 9.41622 22.004 9.40221L22.2142 9.37418C22.6206 9.31813 22.8027 9.178 22.8027 8.77165V5.57688C22.8027 4.63806 22.4104 4.30176 21.8779 4.30176C21.3875 4.30176 20.869 4.61002 20.2105 5.29662V8.77165C20.2105 9.178 20.4206 9.31813 20.813 9.37418L21.0091 9.40221C21.0652 9.41622 21.1212 9.44425 21.1212 9.51431V9.78053L21.0932 9.80856C20.9496 9.80497 20.8234 9.80138 20.7055 9.79802H20.7054C20.3634 9.78829 20.0912 9.78053 19.664 9.78053C19.2425 9.78053 18.9378 9.78887 18.5633 9.79911H18.5632C18.4521 9.80215 18.3349 9.80535 18.2067 9.80856L18.1787 9.78053V9.51431C18.1787 9.44425 18.2207 9.41622 18.2908 9.40221L18.557 9.37418C19.0334 9.31813 19.1595 9.178 19.1595 8.77165V5.28261C19.1595 4.582 19.0474 4.44187 18.8513 4.41385L18.2487 4.3578L18.2207 4.02151C19.2156 3.86738 19.7481 3.74127 20.1544 3.58713ZM33.6236 4.84823V8.32326C33.3294 8.67356 32.6708 9.2901 32.0262 9.2901C31.6059 9.2901 30.9613 9.0659 30.9613 7.81882V5.12848C30.9613 4.70812 31.0034 3.7693 31.0034 3.7693C31.0034 3.74127 30.9753 3.74127 30.9473 3.74127C30.8772 3.75528 30.6671 3.7693 30.4569 3.7693C30.0784 3.7693 29.7199 3.75931 29.3055 3.74777L29.0697 3.74127L29.0276 3.7693V4.1196L29.0697 4.14762L29.2939 4.17565C29.7843 4.2317 29.9104 4.38583 29.9104 4.84823V8.01499C29.9104 8.98184 30.2747 9.92066 31.6619 9.92066C32.2364 9.92066 32.839 9.72449 33.6236 8.88375H33.6517L33.6236 9.94869H33.9459C34.2542 9.69647 34.8707 9.5143 35.7395 9.36017L35.6974 9.03789L35.0249 8.96783C34.7306 8.9398 34.6746 8.85573 34.6746 8.15512V5.12848C34.6746 4.70812 34.7166 3.7693 34.7166 3.7693C34.7166 3.74127 34.6886 3.74127 34.6605 3.74127C34.5905 3.75528 34.3803 3.7693 34.1701 3.7693C33.7916 3.7693 33.4331 3.75931 33.0187 3.74777L32.7829 3.74127L32.7409 3.7693V4.1196L32.7829 4.14762L33.0071 4.17565C33.4975 4.2317 33.6236 4.38583 33.6236 4.84823ZM37.2189 3.7693V3.0967C37.2189 0.882771 38.4239 0 39.3627 0C39.9372 0 40.2455 0.168146 40.5257 0.420366C40.7359 0.602525 40.8901 0.826728 40.8901 1.06494C40.8901 1.30314 40.764 1.5974 40.3996 1.5974C40.0213 1.5974 39.8251 1.40123 39.7551 1.0229C39.699 0.742653 39.6009 0.476417 39.2646 0.476417C38.522 0.476417 38.2698 1.45727 38.2698 3.13874V3.7693H40.0633C41.1563 3.7693 41.2824 3.25083 41.2824 2.14387V1.87764L42.0951 1.5974V3.7693H43.6365C43.7065 3.7693 43.7486 3.79732 43.7486 3.85337V4.13361C43.7486 4.25972 43.5524 4.31576 43.4123 4.31576H42.0951V7.88888C42.0951 8.75764 42.1792 9.178 42.5575 9.178C42.9499 9.178 43.3422 8.96782 43.5524 8.78566C43.6645 8.81369 43.7345 8.88376 43.7766 8.99585C43.4123 9.54233 42.8237 9.94869 42.1231 9.94869C41.4786 9.94869 41.0442 9.55634 41.0442 8.56147V4.31576H38.2698V8.77165C38.2698 9.178 38.4239 9.34616 38.8723 9.37418L39.3347 9.40221C39.3908 9.40221 39.4468 9.44425 39.4468 9.51431V9.78053L39.4188 9.80856C39.4188 9.80856 38.3819 9.78053 37.7233 9.78053C37.1488 9.78053 36.266 9.80856 36.266 9.80856L36.238 9.78053V9.51431C36.238 9.44425 36.28 9.41622 36.3501 9.40221L36.6163 9.37418C37.1488 9.31813 37.2189 9.178 37.2189 8.77165V4.31576H36.252C36.196 4.31576 36.182 4.30176 36.182 4.2317V4.04954C36.182 3.93744 36.252 3.7693 36.5042 3.7693H37.2189ZM49.1183 5.75902C49.3705 4.17564 50.4074 4.10559 50.7297 4.10559C51.2341 4.10559 51.8927 4.38584 51.8927 5.56286C51.8927 5.68897 51.8367 5.75902 51.6966 5.75902H49.1183ZM52.8175 8.44937C52.3271 8.98184 51.8367 9.23405 51.066 9.23405C50.2813 9.23405 49.0763 8.39333 49.0763 6.30551H52.7615C52.9156 6.30551 53.0137 6.22142 53.0137 6.06729C53.0137 4.89026 52.5793 3.62917 50.7297 3.62917C49.3985 3.62917 47.9553 4.86224 47.9553 6.9921C47.9553 8.6035 48.81 9.92066 50.7297 9.92066C51.7386 9.92066 52.5653 9.40221 53.0978 8.67358C53.0557 8.53345 52.9717 8.46338 52.8175 8.44937ZM55.7424 3.58713C55.7704 3.58713 55.7984 3.60115 55.7984 3.62917L55.7564 4.87625H55.7984C56.6952 3.82534 57.3678 3.62917 58.0824 3.62917C59.3435 3.62917 59.6237 4.59601 59.6237 5.8431V8.77165C59.6237 9.178 59.7779 9.33214 60.2123 9.37418L60.4785 9.40221C60.5485 9.41622 60.6046 9.44425 60.6046 9.51431V9.78053L60.5766 9.80856C60.4577 9.80559 60.3477 9.80262 60.2426 9.79978C59.8521 9.78924 59.5299 9.78053 59.0773 9.78053C58.6794 9.78053 58.4226 9.78796 58.0961 9.79741H58.0961C57.9741 9.80094 57.8425 9.80475 57.6901 9.80856L57.662 9.78053V9.51431C57.662 9.44425 57.7041 9.41622 57.7741 9.40221L57.9703 9.37418C58.4187 9.30412 58.5728 9.178 58.5728 8.77165V5.74501C58.5728 4.76416 58.4047 4.30176 57.662 4.30176C57.0455 4.30176 56.513 4.53996 55.7984 5.3807V8.77165C55.7984 9.178 55.9385 9.30412 56.4009 9.37418L56.5971 9.40221C56.6672 9.41622 56.7092 9.44425 56.7092 9.51431V9.78053L56.6812 9.80856C56.5375 9.80497 56.4113 9.80138 56.2934 9.79802H56.2934H56.2934H56.2933C55.9514 9.78829 55.6791 9.78053 55.2519 9.78053C54.8305 9.78053 54.5257 9.78887 54.1512 9.79911C54.0401 9.80215 53.9229 9.80535 53.7947 9.80856L53.7666 9.78053V9.51431C53.7666 9.44425 53.8087 9.41622 53.8787 9.40221L54.145 9.37418C54.6074 9.33214 54.7475 9.178 54.7475 8.77165V5.28261C54.7475 4.582 54.6354 4.44187 54.4392 4.41385L53.8367 4.3578L53.8087 4.02151C54.7895 3.86738 55.35 3.74127 55.7424 3.58713ZM66.3558 8.50542C66.2997 8.37931 66.1876 8.32326 66.0615 8.30925C65.6271 8.9398 64.9826 9.30412 64.38 9.30412C63.3011 9.30412 62.5164 8.19715 62.5164 6.55772C62.5164 5.01637 63.231 4.10559 64.1558 4.10559C64.9826 4.10559 65.0946 4.70812 65.1507 5.17052C65.1927 5.52083 65.3609 5.66094 65.6551 5.66094C65.9494 5.66094 66.3137 5.46477 66.3137 5.05842C66.3137 4.31577 65.5711 3.62917 64.2259 3.62917C62.7126 3.62917 61.3254 4.87626 61.3254 6.866C61.3254 8.67357 62.3062 9.92066 64.0718 9.92066C64.9125 9.92066 65.6551 9.65443 66.3558 8.50542ZM69.4813 3.78331V4.03552C69.4813 4.10558 69.3973 4.14762 69.3272 4.14762C68.7947 4.18966 68.5986 4.30175 68.8087 4.77817L70.3501 8.39332L71.9054 4.83422C72.2137 4.27373 71.7934 4.18966 71.359 4.14762C71.2889 4.14762 71.2188 4.1196 71.2188 4.04954V3.78331L71.2469 3.74127C71.3737 3.7447 71.4879 3.74813 71.5953 3.75135C71.927 3.7613 72.1936 3.7693 72.564 3.7693C72.8764 3.7693 73.0822 3.76041 73.3299 3.74972L73.33 3.74971L73.3311 3.74967L73.3317 3.74964C73.3946 3.74693 73.4601 3.7441 73.5309 3.74127L73.5729 3.7693V4.03552C73.5729 4.10558 73.5169 4.13361 73.4188 4.14762C72.9003 4.18966 72.6201 4.6941 72.4239 5.10046C71.6813 6.66983 71.0647 8.11309 69.9437 10.8174C69.5234 11.8263 68.9909 13.0314 67.996 13.0314C67.7298 13.0314 67.1833 12.8772 67.1833 12.3728C67.1833 11.9524 67.4916 11.8263 67.7158 11.8263C67.926 11.8263 68.0661 11.9104 68.1502 12.0225C68.2903 12.1626 68.3884 12.2607 68.5285 12.2607C68.7387 12.2607 69.2571 11.0276 69.6074 10.1729C69.6915 10.0047 69.7195 9.86461 69.7195 9.7385C69.7195 9.59837 69.5934 9.22005 69.4813 8.9398L67.7158 4.83422C67.4916 4.30175 67.3235 4.18966 66.8611 4.14762C66.777 4.13361 66.7209 4.10558 66.7209 4.04954V3.7693L66.7489 3.74127C67.0292 3.75528 67.4496 3.7693 67.926 3.7693C68.4171 3.7693 68.9082 3.75601 69.4123 3.74238L69.4533 3.74127L69.4813 3.78331ZM79.1638 8.50542C79.1077 8.37931 78.9956 8.32326 78.8695 8.30925C78.4352 8.9398 77.7906 9.30412 77.1881 9.30412C76.1091 9.30412 75.3244 8.19715 75.3244 6.55772C75.3244 5.01637 76.0391 4.10559 76.9639 4.10559C77.7906 4.10559 77.9027 4.70812 77.9587 5.17052C78.0008 5.52083 78.1689 5.66094 78.4632 5.66094C78.7574 5.66094 79.1218 5.46477 79.1218 5.05842C79.1218 4.31577 78.3791 3.62917 77.0339 3.62917C75.5206 3.62917 74.1334 4.87626 74.1334 6.866C74.1334 8.67357 75.1143 9.92066 76.8798 9.92066C77.7205 9.92066 78.4632 9.65443 79.1638 8.50542ZM80.1455 9.37418C80.6079 9.33214 80.748 9.178 80.748 8.77165V1.89165C80.748 0.980861 80.6079 0.79871 80.3277 0.79871L79.8793 0.770685C79.8372 0.770685 79.7952 0.742657 79.7952 0.700621L79.7672 0.364331C80.3417 0.322295 81.3085 0.140122 81.6588 0C81.7849 0 81.841 0.0420419 81.841 0.140127C81.841 0.140127 81.799 0.700622 81.799 1.61142V8.77165C81.799 9.178 81.9251 9.33214 82.3875 9.37418L82.7238 9.40221C82.7798 9.40221 82.8359 9.44425 82.8359 9.51431V9.78053L82.8078 9.80856C82.578 9.80396 82.3933 9.79936 82.2287 9.79526L82.2279 9.79524L82.2274 9.79523L82.227 9.79522C81.8908 9.78684 81.6378 9.78053 81.2525 9.78053C80.8905 9.78053 80.6453 9.78668 80.3174 9.79491C80.1503 9.7991 79.9617 9.80383 79.7252 9.80856L79.7111 9.78053V9.51431C79.7111 9.44425 79.7392 9.40221 79.8092 9.40221L80.1455 9.37418ZM83.5612 6.90804C83.5612 8.33728 84.5561 9.92066 86.4337 9.92066C88.4235 9.92066 89.3342 8.18314 89.3342 6.78192C89.3342 5.32465 88.5355 3.62917 86.4617 3.62917C84.5981 3.62917 83.5612 4.98836 83.5612 6.90804ZM86.3076 4.09157C87.4566 4.09157 88.1432 5.17052 88.1432 7.23031C88.1432 9.07993 87.3025 9.45826 86.6719 9.45826C85.2847 9.45826 84.7523 7.66468 84.7523 6.58574C84.7523 5.36668 85.1866 4.09157 86.3076 4.09157ZM93.4731 4.27374C92.9967 4.27374 92.3241 4.68009 92.0158 5.42274V8.84171C92.5063 9.41621 92.9547 9.44425 93.1789 9.44425C94.6782 9.44425 95.0565 8.015 95.0565 6.866C95.0565 5.28262 94.3279 4.27374 93.4731 4.27374ZM90.9649 12.0365V5.28261C90.9649 4.582 90.8528 4.44187 90.6567 4.41385L90.0541 4.3578L90.0261 4.02151C91.021 3.86738 91.5534 3.74127 91.9598 3.58713C91.9878 3.58713 92.0158 3.60115 92.0158 3.62917L91.9738 4.75014H92.0158C92.6604 3.76928 93.4031 3.62917 93.8514 3.62917C95.2106 3.62917 96.2055 5.00238 96.2055 6.48767C96.2055 7.62266 95.8552 8.4914 95.2246 9.13596C94.6782 9.68244 94.0056 9.92066 93.2629 9.92066C92.7585 9.92066 92.3802 9.80855 92.0158 9.61238V12.0365C92.0158 12.4288 92.17 12.583 92.6044 12.625L92.8706 12.653C92.9407 12.667 92.9967 12.6951 92.9967 12.7651V13.0314L92.9687 13.0594L92.8069 13.055C92.3548 13.0426 91.9457 13.0314 91.4694 13.0314C91.029 13.0314 90.6421 13.0421 90.206 13.0541L90.0121 13.0594L89.9841 13.0314V12.7651C89.9841 12.6951 90.0261 12.667 90.0962 12.653L90.3624 12.625C90.8108 12.583 90.9649 12.4288 90.9649 12.0365ZM98.4621 5.75902C98.7143 4.17564 99.7512 4.10559 100.074 4.10559C100.578 4.10559 101.237 4.38584 101.237 5.56286C101.237 5.68897 101.18 5.75902 101.04 5.75902H98.4621ZM102.161 8.44937C101.671 8.98184 101.18 9.23405 100.41 9.23405C99.6251 9.23405 98.4201 8.39333 98.4201 6.30551H102.105C102.259 6.30551 102.358 6.22142 102.358 6.06729C102.358 4.89026 101.923 3.62917 100.074 3.62917C98.7424 3.62917 97.2991 4.86224 97.2991 6.9921C97.2991 8.6035 98.1538 9.92066 100.074 9.92066C101.082 9.92066 101.909 9.40221 102.442 8.67358C102.4 8.53345 102.315 8.46338 102.161 8.44937ZM106.163 9.26208C106.527 9.26208 107.074 8.96782 107.704 8.46339V4.94632C107.368 4.41385 106.99 4.1196 106.331 4.1196C106.051 4.1196 105.463 4.16163 105.028 4.8202C104.818 5.11446 104.636 5.67495 104.636 6.68383C104.636 8.43536 105.406 9.26208 106.163 9.26208ZM108.797 0.140127C108.797 0.140127 108.755 0.700622 108.755 1.61142V8.15512C108.755 8.85573 108.811 8.9398 109.106 8.96783L109.778 9.03789L109.82 9.36017C108.952 9.5143 108.335 9.69647 108.027 9.94869H107.704L107.733 8.96783L107.704 8.95382C107.06 9.47227 106.359 9.92066 105.799 9.92066C104.285 9.92066 103.445 8.65955 103.445 6.93605C103.445 5.89914 103.781 5.07243 104.384 4.4699C104.944 3.93744 105.561 3.62917 106.485 3.62917C106.766 3.62917 107.382 3.75527 107.704 3.93743V1.89165C107.704 0.980861 107.564 0.79871 107.284 0.79871L106.836 0.770685C106.794 0.770685 106.752 0.742657 106.752 0.700621L106.724 0.364331C107.298 0.322295 108.265 0.140122 108.615 0C108.741 0 108.797 0.0420419 108.797 0.140127ZM111.164 1.79357C111.164 2.15788 111.472 2.46616 111.837 2.46616C112.201 2.46616 112.509 2.15788 112.509 1.79357C112.509 1.42925 112.201 1.12099 111.837 1.12099C111.472 1.12099 111.164 1.42925 111.164 1.79357ZM112.481 3.62917C112.481 3.60114 112.453 3.58713 112.425 3.58713C112.033 3.74127 111.444 3.86738 110.45 4.02151L110.478 4.3578L111.08 4.41385C111.276 4.44187 111.388 4.582 111.388 5.28261V8.77165C111.388 9.178 111.262 9.31813 110.786 9.37418L110.52 9.40221C110.45 9.41622 110.408 9.44425 110.408 9.51431V9.78053L110.436 9.80856C110.553 9.80563 110.662 9.80271 110.767 9.79991L110.767 9.79991C111.165 9.78931 111.494 9.78053 111.893 9.78053C112.324 9.78053 112.673 9.78973 113.087 9.80067L113.392 9.80856L113.42 9.78053V9.51431C113.42 9.44425 113.364 9.41622 113.294 9.40221L113.028 9.37418C112.593 9.33214 112.439 9.178 112.439 8.77165V5.28261C112.439 4.582 112.481 3.62917 112.481 3.62917ZM117.786 8.37931V6.51568L116.679 6.80995C115.642 7.09019 115.32 7.72073 115.32 8.35128C115.32 8.78566 115.656 9.34616 116.357 9.34616C116.749 9.34616 117.226 9.03788 117.59 8.74362C117.702 8.65955 117.786 8.56147 117.786 8.37931ZM118.837 9.92066C118.094 9.92066 117.87 9.40221 117.786 9.10795H117.758L117.478 9.33214C116.861 9.80856 116.595 9.92066 115.95 9.92066C114.97 9.92066 114.213 9.5143 114.213 8.40733C114.213 7.4545 115.152 6.71186 116.497 6.37557L117.702 6.0813C117.744 6.06729 117.786 6.01125 117.786 5.91316C117.786 4.32978 117.127 4.04954 116.651 4.04954C116.119 4.04954 115.488 4.24571 115.488 4.68009C115.488 4.83423 115.502 4.91829 115.516 4.96033C115.544 5.01638 115.558 5.11446 115.558 5.21254C115.558 5.3947 115.348 5.67495 114.942 5.67495C114.619 5.67495 114.451 5.52081 114.451 5.18452C114.451 4.42786 115.614 3.62917 116.763 3.62917C117.786 3.62917 118.823 4.00751 118.823 5.99724V8.08506C118.823 8.72962 118.837 9.30412 119.383 9.30412C119.608 9.30412 119.701 9.20448 119.763 9.13805C119.794 9.10484 119.818 9.07993 119.846 9.07993C119.902 9.07993 120 9.19202 120 9.2901C120 9.36017 119.524 9.92066 118.837 9.92066Z" fill="black"/>
</svg>
