<?xml version="1.0" encoding="UTF-8"?>
<svg width="120px" height="22px" viewBox="0 0 120 22" version="1.1" xmlns="http://www.w3.org/2000/svg" xmlns:xlink="http://www.w3.org/1999/xlink">
    <title>mwl-wordmark</title>
    <g id="Page-1" stroke="none" stroke-width="1" fill="none" fill-rule="evenodd">
        <path d="M105.981313,16.7827544 L106.79778,16.8362893 C106.910406,16.8362893 107.023021,16.9150765 107.023021,17.0453784 L107.023021,17.544364 L106.966658,17.5978989 C106.966658,17.5978989 103.897836,17.544364 103.222134,17.544364 C102.48904,17.544364 100.687156,17.5978989 100.687156,17.5978989 L100.629783,17.544364 L100.629783,17.0453784 C100.629783,16.9150765 100.714227,16.8362893 100.856094,16.8362893 C102.095972,16.7575021 102.797663,16.5463928 103.58598,14.8655992 L109.835168,1.20814111 C110.143782,0.525318706 110.370093,0.261684614 110.793493,0.261684614 C111.186571,0.261684614 111.328428,0.525318706 111.552578,1.05056671 L117.324215,15.2847875 C117.719464,16.3100312 118.28255,16.7029571 119.408722,16.8080067 L119.718457,16.833259 C119.859234,16.833259 120,16.9120462 120,17.0443683 L120,17.5423438 L119.915556,17.5948686 C119.915556,17.5948686 117.747676,17.5423438 116.649655,17.5423438 C115.664249,17.5423438 112.904051,17.5948686 112.904051,17.5948686 L112.876981,17.5423438 L112.876981,17.0443683 C112.876981,16.9120462 112.933344,16.833259 113.076231,16.833259 L113.864548,16.7807342 C114.933337,16.7029571 115.329656,16.3857881 115.047033,15.651451 L113.329623,11.2120953 L107.473522,11.2120953 C106.797811,11.2120953 106.628893,11.3171449 106.489197,11.657546 L104.855171,15.4666041 C104.573618,16.1251843 104.939615,16.7039672 105.981343,16.7827544 L105.981313,16.7827544 Z M112.879162,10.1100846 L110.148145,3.0990339 L110.091883,3.0990339 L107.276453,9.7696835 C107.163828,10.0333176 107.359786,10.1110947 107.979225,10.1110947 L112.879162,10.1110947 L112.879162,10.1100846 Z M17.7036329,17.5145259 C17.6545222,17.4351326 17.641684,17.2264475 17.6793402,17.1199838 L17.7244206,16.9925607 L18.0999517,16.9691265 C18.7461007,16.9288238 19.1031229,16.7935422 19.2627932,16.5285344 C19.4719389,16.1814161 19.471751,16.1859009 19.4721803,11.568163 C19.4724389,8.79828783 19.4576552,7.18811988 19.4305241,7.02878792 C19.3193836,6.3763693 19.0520435,6.20224959 17.9890739,6.08999803 C17.7092278,6.06050334 17.7058945,6.05878618 17.6698585,5.92786812 C17.6468082,5.84413146 17.649192,5.74655655 17.6763231,5.66196132 L17.719252,5.5283261 L20.3067761,5.5283261 L22.8942993,5.5283261 L22.9371373,5.64941597 C22.9790056,5.76773818 22.9536018,6.02571576 22.8968649,6.05842255 C22.8811883,6.06751338 22.6862617,6.09246266 22.4637091,6.11387661 C21.8904888,6.16912866 21.6432616,6.24584517 21.4599601,6.42519716 C21.1473346,6.73108342 21.1654384,6.44024754 21.1516072,11.3782252 C21.1430215,14.4215525 21.1529204,15.8610351 21.1834656,16.0315588 C21.2421822,16.3595257 21.3979647,16.6541191 21.5621764,16.7477143 C21.7672969,16.8646325 22.1081859,16.9436722 22.5174116,16.9691972 L22.8943084,16.9927324 L22.9384292,17.1301251 C22.966833,17.2185082 22.9694694,17.3146488 22.9458029,17.3997794 L22.9090658,17.532051 L20.3126549,17.5331133 C18.8846288,17.5338792 17.710547,17.5249803 17.7035834,17.5140713 L17.7035834,17.5140713 L17.7036329,17.5145259 Z M33.4245116,21.3850077 C32.9715044,21.3440989 32.4765026,21.2471099 32.1314955,21.1315452 C31.8084942,21.0233441 30.9698671,20.6393272 30.1564327,20.2271389 C29.5306623,19.9100507 29.0305434,19.7412238 28.5223397,19.6755072 C28.0992534,19.6208612 27.9679839,19.640457 27.5959962,19.8140313 C27.2836625,19.9597775 27.015382,20.2055128 26.8269947,20.518399 C26.7655811,20.620388 26.6970191,20.7029933 26.6746213,20.701963 C26.6522275,20.700953 26.482434,20.6280243 26.2973104,20.5398432 L25.9607224,20.3795921 L26.2210908,20.076423 C26.8469006,19.3477222 27.9850585,18.4411441 28.9225585,17.9246233 C29.4151896,17.6532014 29.4306713,17.6896052 28.7718537,17.5702122 C26.6871676,17.1924074 24.9708945,15.8039951 24.3095225,13.9603242 C23.7002075,12.2617832 23.8338215,10.2370532 24.6639719,8.58916842 C25.9071622,6.1213816 28.5324952,4.90423047 31.418845,5.45749843 C33.3026015,5.81857613 34.9364228,6.99302056 35.7381068,8.56231006 C36.271778,9.60695763 36.5000922,10.81222 36.3951022,12.0305428 C36.2821547,13.3411982 35.9139821,14.3870276 35.2339738,15.3288376 C34.9322895,15.7466623 34.1601729,16.4744439 33.749226,16.7283306 C33.1046467,17.1265494 32.339822,17.4197994 31.5139796,17.5853838 C31.09416,17.6695245 30.459722,17.890856 29.9731807,18.1228439 C29.633014,18.2850344 28.9471522,18.6736169 28.7718537,18.8034642 L28.6700425,18.8789181 L29.0976347,18.8799181 C29.9752211,18.8819383 30.5518869,19.0242199 31.8884067,19.5683971 C33.3107136,20.1475032 33.3727413,20.1708969 33.6923497,20.2489871 C34.7659556,20.511298 35.6438349,20.3780264 36.2474418,19.8611117 L36.4132626,19.7191028 L36.5640361,19.8146576 L36.7148085,19.9102123 L36.5814682,20.0834532 C36.3566985,20.375481 35.8692855,20.80575 35.5605073,20.9847283 C35.2010155,21.1931002 34.7677051,21.3320687 34.3112393,21.3853713 C33.934682,21.4293103 33.9158649,21.4293103 33.4245096,21.3850279 L33.4245096,21.3850279 L33.4245116,21.3850077 Z M31.6163747,16.949056 C32.1206956,16.7889665 32.5017478,16.5759784 32.8744739,16.2458297 C34.0073308,15.2423838 34.5296344,13.8259314 34.529275,11.7581108 C34.5290789,10.63507 34.4175687,9.88468251 34.122847,9.02308387 C33.609808,7.52325841 32.4666279,6.43609606 31.0032072,6.05631145 C30.6951513,5.97641315 30.5033802,5.95435274 29.9723413,5.93794884 C29.3908393,5.91996919 29.2855089,5.9266358 29.0031679,5.9988574 C27.7733027,6.31359207 26.7019685,7.36350221 26.2275898,8.71892488 C25.9624799,9.4764133 25.8226125,10.4072538 25.8222968,11.4162249 C25.8219428,12.5562656 25.9970271,13.4507124 26.3909419,14.3212402 C26.6674506,14.9322956 26.9897297,15.3663423 27.5480653,15.8796309 C28.0878293,16.3758387 28.5336568,16.6567858 29.0907479,16.8517639 C29.6714359,17.0549945 29.9377467,17.0949133 30.6247478,17.0816811 C31.1863289,17.0708731 31.2662999,17.0601661 31.6163747,16.9490459 L31.6163747,16.949056 Z M43.3252041,17.662262 C42.7031549,17.5770102 41.9837692,17.3528909 41.5221843,17.1004688 C41.155846,16.9001473 40.6117598,16.4396159 40.3334359,16.0942856 C39.9710835,15.6447036 39.7084474,15.0488198 39.5586456,14.3363815 C39.4957977,14.0374851 39.4847978,13.6077918 39.4614848,10.5425455 C39.4338184,6.90555666 39.432475,6.88016294 39.2493988,6.55388292 C39.1082869,6.30238004 38.8245146,6.17454276 38.2795374,6.1169574 C38.0691484,6.09473537 37.883259,6.05584681 37.8659319,6.03039249 C37.823599,5.96827181 37.8258111,5.65504218 37.8690632,5.59143667 C37.8972751,5.54992188 38.3696508,5.53941692 40.4354037,5.53446747 L42.9671728,5.52840691 L43.0100815,5.66204212 C43.037253,5.74658685 43.0396368,5.84421227 43.0165461,5.92794892 C42.9804757,6.0589478 42.9774253,6.06049324 42.6973297,6.08929097 C41.7690973,6.18474469 41.4842997,6.27936004 41.318687,6.54736783 C41.1138928,6.87876901 41.1113615,6.92579891 41.1118585,10.390668 C41.112308,13.5238229 41.1149898,13.6349229 41.2011608,14.1393832 C41.3764986,15.1653643 41.7140422,15.7556521 42.4304219,16.2890415 C42.7490161,16.5262616 43.3291141,16.8010674 43.6917191,16.8865515 C44.7625008,17.1389735 46.3428458,16.8237237 47.0563931,16.2154461 C47.3679723,15.9498121 47.5351729,15.7093293 47.7285025,15.2487474 C47.9339735,14.7592466 48.075752,14.2327663 48.1549827,13.665054 C48.2423253,13.0392311 48.2453455,7.51204639 48.158518,7.05821191 C48.0785793,6.6400337 47.9642894,6.46445945 47.6880725,6.33555147 C47.4429949,6.22117872 46.9384699,6.11719982 46.6286019,6.11719982 C46.3683001,6.11719982 46.3033128,6.05386703 46.3041148,5.80109143 C46.30444,5.69290044 46.3182056,5.58728519 46.33466,5.56639648 C46.3539527,5.54185124 47.1345723,5.52840691 48.5332774,5.52840691 L50.7019749,5.52840691 L50.74653,5.65434522 C50.7962468,5.79485916 50.7666006,6.0141704 50.6903184,6.07020022 C50.6629146,6.09030106 50.5213774,6.1169675 50.3757928,6.12939163 C49.6054974,6.19524965 49.2989516,6.42908602 49.1967808,7.02884853 C49.1707406,7.1817058 49.1544377,8.3175849 49.1539831,10.0107824 C49.153569,11.5687185 49.1351348,12.9419895 49.1111451,13.2016438 C49.0037582,14.3639873 48.6371694,15.4388468 48.093159,16.1864262 C47.8916364,16.4633632 47.4006245,16.8874404 47.0730294,17.0674893 C46.3360105,17.4725565 45.1945243,17.7095949 44.0347939,17.6984031 C43.7707396,17.6953728 43.4513858,17.6796153 43.3251192,17.6623428 L43.3251192,17.6623428 L43.3252041,17.662262 Z M51.8615699,17.4832635 C51.8296813,17.4057894 51.8366004,17.0827114 51.8711658,17.0344896 C51.8876202,17.0115605 52.0672469,16.9820658 52.2703351,16.9689346 C53.0035874,16.9215613 53.3722327,16.7407143 53.5350636,16.3484753 C53.6079215,16.1729819 53.6119922,15.9589029 53.6237295,11.6821519 C53.6327193,8.42096785 53.6232921,7.13778698 53.589255,6.97231366 C53.468648,6.38603589 53.1803878,6.18888607 52.3344961,6.11411904 C52.0841084,6.09199802 51.8907454,6.0568468 51.8725486,6.03007936 C51.8301449,5.96785767 51.8327914,5.65471895 51.8761849,5.59071951 C51.9050635,5.54819462 52.3629747,5.5392048 54.4899523,5.5392048 C56.9646229,5.5392048 57.0699069,5.54223508 57.098446,5.60970924 C57.1464658,5.72361735 57.1380214,5.94541342 57.0830017,6.01503908 C57.0451535,6.06291746 56.9276576,6.08897784 56.6248683,6.11654326 C56.1597854,6.15886613 55.9993868,6.19644156 55.7696868,6.31670315 C55.5468331,6.43337891 55.3998677,6.71707344 55.3417884,7.14271624 C55.3118089,7.36247192 55.3017888,8.83064109 55.3104453,11.7390807 C55.3222229,15.7009253 55.3284249,16.0290639 55.3954243,16.2389813 C55.4851912,16.5202112 55.6227607,16.6922804 55.8407579,16.796027 C56.0331825,16.8876424 56.5239934,16.9779244 56.8396715,16.9798739 C57.0321739,16.980884 57.0585989,16.9912879 57.0941905,17.0786609 C57.1160287,17.1322968 57.1336245,17.2305384 57.1332811,17.2970833 C57.1319679,17.5481619 57.3156148,17.5318388 54.4692303,17.5339088 C52.3072327,17.5348388 51.879495,17.5267581 51.861477,17.4832231 L51.861477,17.4832231 L51.8615699,17.4832635 Z M58.2816873,17.4448598 C58.2345968,17.3293254 58.2358493,17.199872 58.2852227,17.0786811 C58.3201314,16.9930253 58.3484746,16.9811062 58.5193782,16.9805002 C58.8348553,16.9794901 59.2614314,16.9096927 59.4628004,16.8266631 C59.7366202,16.7137146 59.8646525,16.5797359 59.9670698,16.2989808 L60.0576751,16.050589 L60.0697457,11.7391312 C60.0777254,8.87706493 60.0674224,7.32551264 60.0389884,7.123777 C60.0124128,6.93524328 59.9537366,6.74057829 59.8843856,6.61096324 C59.7070771,6.27954185 59.5183322,6.2056536 58.5521325,6.08941218 C58.3215577,6.06163464 58.3070265,6.05365491 58.2706652,5.93443372 C58.2472588,5.85756569 58.2467563,5.75424335 58.2694531,5.66852692 L58.3065841,5.52834631 L59.874417,5.54016439 C60.9992205,5.54824512 61.6954104,5.53511392 62.3381554,5.49279106 C63.392511,5.42309469 63.8476616,5.4188523 64.3860883,5.4735993 C65.5048261,5.58727509 66.336227,5.8456567 66.8908859,6.25203704 C67.3163317,6.56375153 67.8298838,7.3009573 68.0009632,7.84555866 C68.1009421,8.16380845 68.0893059,8.89893343 67.9772664,9.34285889 C67.8054891,10.0235096 67.1931176,10.9597238 66.6616666,11.3541951 C65.9269699,11.8995237 64.8753679,12.2042787 63.5394764,12.2590055 C62.9701671,12.2823386 62.3474493,12.2354703 61.9605263,12.1402994 L61.7476655,12.0878756 L61.7476655,13.940587 C61.7476655,15.0113656 61.7648169,15.8796511 61.7883016,15.9979026 C61.8106549,16.110447 61.8798664,16.2965364 61.9421043,16.4114445 C62.0321237,16.577645 62.0966747,16.641493 62.2577844,16.7236539 C62.5036863,16.8490669 62.9004263,16.9340056 63.4172976,16.9718841 L63.804165,17.0002677 L63.841296,17.1404483 C63.8640938,17.2265081 63.8634978,17.329184 63.8397809,17.4063551 L63.8011246,17.5320712 L61.0594624,17.5328388 L58.3178012,17.5335964 L58.2816399,17.4449103 L58.2816388,17.4449002 L58.2816873,17.4448598 Z M64.3743358,11.572567 C65.3916796,11.3048723 65.9467546,10.7455034 66.1692194,9.76382496 C66.3581107,8.93028669 66.2369865,7.76032708 65.8939268,7.10477717 C65.5441308,6.43634858 64.7032956,6.03565507 63.641323,6.03131167 C62.7450155,6.0272713 62.2675055,6.1662095 61.988113,6.51102471 C61.9064874,6.61173091 61.8190094,6.75863874 61.7937076,6.83741584 C61.761718,6.93701094 61.747708,7.68158028 61.747708,9.28218265 L61.747708,11.5837285 L61.8800563,11.6040313 C62.17307,11.6490814 62.334115,11.6540309 63.2137337,11.6456471 C63.9288942,11.6385765 64.1836284,11.622718 64.3743379,11.5725165 L64.3743358,11.572567 Z M71.8652703,17.6902148 C71.0694597,17.6902148 69.2410053,17.7441177 69.2410053,17.7441177 L69.2138416,17.6902148 L69.2138416,17.1070448 C69.2138416,17.0548397 69.2410053,16.9754708 69.3730037,16.9754708 L69.9837618,16.9215679 C70.8067361,16.8421991 71.045267,16.3116587 71.045267,15.7823916 L71.045267,7.03271953 C71.045267,6.42068814 70.7260939,6.31585336 69.9837618,6.26407262 L69.3730037,6.20889642 C69.2138416,6.18427934 69.2138416,6.12995201 69.2138416,6.10278834 L69.2138416,5.49203024 L69.2410053,5.43855177 C69.2410053,5.43855177 71.3079906,5.49203024 72.1038012,5.49203024 L76.0013631,5.49118138 C76.7967493,5.49118138 78.6803799,5.43770291 78.6803799,5.43770291 L78.7342828,5.49118138 C78.7597487,6.63120656 78.9456501,7.66724583 79.1319758,8.67399927 L78.4702859,8.78010735 C78.1795497,7.79797098 77.6757486,6.3939489 75.9788682,6.3939489 L73.85798,6.3939489 C73.3541788,6.3939489 73.0889086,6.57942582 73.0889086,7.02889964 L73.0889086,10.8742564 L75.0765251,10.8742564 C75.8201305,10.8742564 76.0047586,10.5559321 76.1117155,10.0262406 L76.2696043,9.46896099 C76.2696043,9.38959215 76.3239317,9.33526481 76.4291909,9.33526481 L76.8782403,9.33568924 C76.9325676,9.33568924 76.9325676,9.36327734 76.9325676,9.41505809 C76.8782403,9.99822808 76.7729811,10.7418335 76.7729811,11.3780575 C76.7729811,12.0401719 76.8790891,12.597876 76.9325676,13.2077852 L76.8782403,13.2616881 L76.4287665,13.2616881 C76.2971924,13.2616881 76.2420162,13.2077852 76.2420162,13.1279919 L76.1095934,12.5456708 C76.0034853,12.014706 75.7649543,11.7226966 75.0735541,11.7226966 L73.0867865,11.723121 L73.0867865,15.7811183 C73.0867865,16.2836462 73.3762493,16.7874473 73.8558578,16.7874473 L76.3748636,16.7874473 C77.7266805,16.7874473 78.4702859,15.9390071 78.7873368,14.5591777 L79.4494512,14.6385465 L78.918062,17.6868194 L78.8650079,17.7398734 C78.8650079,17.7398734 77.3005504,17.6868194 76.5051643,17.6868194 L71.8652703,17.6897904 L71.8652703,17.6897904 L71.8652703,17.6902148 Z M75.0050579,1.87620345 L72.1983932,3.43335165 C71.7834321,3.66397592 71.8145753,3.73510662 72.2741501,3.89376182 C72.4555385,3.95608452 72.6924778,3.90184256 73.2025512,3.75447009 L76.886274,2.67371173 L76.7625428,2.44098646 C76.2087011,2.13081742 75.6014114,1.89219321 75.415815,1.88250642 C75.2777758,1.87442569 75.0947046,1.87442569 75.005063,1.87846605 L75.0050579,1.87620345 Z M80.4058927,17.4370821 C80.3818727,17.3798098 80.3797717,17.2743562 80.4005392,17.1711753 L80.4350237,17.0002374 L80.8015307,16.9732679 C81.6196044,16.9130664 81.9617348,16.7315124 82.1110073,16.2785163 C82.1821986,16.0624879 82.1861177,15.8167021 82.1861177,11.5681933 C82.1861177,7.27977566 82.1827844,7.0744542 82.1086538,6.82360787 C81.9694166,6.35233921 81.684318,6.18676488 80.8904067,6.11606852 C80.6705116,6.09647272 80.4742254,6.0710184 80.4542114,6.05950335 C80.3901413,6.02253397 80.3644243,5.7843643 80.4104643,5.65430482 L80.4550498,5.52837661 L83.6621565,5.53039679 C86.9975864,5.53342707 87.1571567,5.53948762 87.9076977,5.70162764 C89.5267919,6.05147311 90.9088355,6.89925369 91.8997381,8.15045503 C92.7147603,9.17957747 93.1666554,10.5010307 93.1657377,11.8526251 C93.1650292,12.9238179 92.939617,13.9428799 92.539772,14.6826109 C92.0894445,15.515735 91.1990199,16.3486066 90.2703127,16.8053704 C89.6342879,17.1181858 88.5608042,17.4085167 87.6633604,17.5104451 C87.443731,17.5353944 86.0614237,17.5464044 83.8814294,17.5406468 L80.4456438,17.531556 L80.4058462,17.4366073 L80.4058927,17.4370821 Z M86.8896631,16.9427025 C87.7702726,16.871491 88.4492143,16.6984218 89.1223913,16.3737074 C89.9272955,15.9854481 90.3640826,15.5855324 90.7199604,14.9109826 C91.5698854,13.3000066 91.4751246,10.5972925 90.5056531,8.79868176 C90.0662579,7.98347667 89.3059534,7.20917021 88.5266954,6.78327489 C87.7128358,6.33846054 86.5184996,6.08787684 85.4032759,6.1279472 C84.5795991,6.15754291 84.1325969,6.33488481 83.9532469,6.70322507 C83.8813082,6.85096117 83.8779143,7.06868657 83.8770557,11.5838295 L83.8761607,16.309809 L83.9749175,16.4669995 C84.1617219,16.7643404 84.5689285,16.8962989 85.4439927,16.9430863 C86.2000811,16.98349 86.3860017,16.98349 86.889657,16.9427025 L86.889657,16.9427025 L86.8896631,16.9427025 Z M94.1992425,17.4832635 C94.1673236,17.4057894 94.1741922,17.0827114 94.2093434,17.0344896 C94.2258079,17.0115605 94.4054225,16.9820658 94.6085016,16.9689346 C95.0967903,16.9374197 95.4840092,16.8242591 95.6574421,16.6624625 C95.7380474,16.5873116 95.8236629,16.4469694 95.8708443,16.3127281 C95.9470052,16.0961542 95.9495305,15.9344688 95.9495305,11.5302037 C95.9495305,7.18362497 95.9465002,6.96240466 95.8737735,6.76893158 C95.7139769,6.34104637 95.4341713,6.18801739 94.680905,6.11654326 C94.431493,6.0929071 94.2277473,6.05523066 94.2102323,6.0294733 C94.1752831,5.97826162 94.1672024,5.65599167 94.1988183,5.57891153 C94.2158888,5.53739673 94.6866322,5.52931599 96.8128665,5.53406343 L99.4061168,5.54012398 L99.4422781,5.62941614 C99.4828838,5.72941528 99.4570255,5.99474633 99.4016724,6.04635194 C99.3818746,6.06483663 99.1834218,6.09614949 98.9606762,6.1159473 C98.1612488,6.18715881 97.8767664,6.35176345 97.7372524,6.8239513 C97.6632127,7.07470672 97.6597783,7.2791494 97.6597783,11.5115574 C97.6597783,16.2475065 97.6603036,16.2603649 97.8604433,16.537403 C98.0483003,16.797431 98.3852771,16.9231168 99.0239989,16.9713689 L99.4108744,17.0005606 L99.4480458,17.1407412 C99.4708739,17.2268011 99.4702678,17.3294769 99.4470357,17.406648 L99.4083491,17.5323641 L96.8149775,17.5344644 C94.6468851,17.5353944 94.2180706,17.5273136 94.2000506,17.4837786 L94.2000506,17.4837786 L94.1992425,17.4832635 Z M4.36362765,17.5574346 C0.463291967,17.5449094 0.128291622,17.5367277 0.0657863015,17.4521729 C-0.0138544265,17.3444162 -0.0227412186,17.0631661 0.0476460538,16.8780364 C0.0943284798,16.7552496 0.130785741,16.7453103 0.657749787,16.7116944 C1.89788122,16.6326042 2.41367476,16.3879194 2.66873923,15.7577935 L2.79091595,15.4559577 L2.80820873,9.00241738 C2.82049146,4.41816395 2.80793601,2.4467769 2.76485557,2.19637502 C2.60196809,1.2496458 2.11779145,0.928123316 0.748855063,0.857649176 C0.148725587,0.826740351 0.113813968,0.818558604 0.0574041515,0.694721287 C-0.0142790693,0.537389309 -0.0192204408,0.296381285 0.0457345551,0.125554474 L0.0934745478,1.77635684e-15 L4.69608035,0.00404036923 C9.62170356,0.00909083076 9.96654302,0.0247472615 11.169672,0.302300426 C12.5274472,0.615570454 13.2191029,0.992547004 13.8347673,1.75487377 C14.4723234,2.54431141 14.7292404,3.26922436 14.6754156,4.12682303 C14.620113,5.00796695 14.2990804,5.67096124 13.5749038,6.39959132 C13.1152502,6.86207219 12.6294231,7.2156146 12.0509321,7.50861207 C11.8645125,7.6030557 11.7120573,7.69702459 11.7121451,7.71747896 C11.7122542,7.73798383 12.0411544,7.86011409 12.4430823,7.98898167 C13.7050916,8.39361455 14.577677,8.90064048 15.3539259,9.68037114 C15.7472498,10.0754586 15.8630296,10.2344775 16.0683016,10.6615647 C16.3789474,11.3078824 16.5033715,11.8668978 16.5078097,12.6355073 C16.5115947,13.3345821 16.4413933,13.6595086 16.1511988,14.2864729 C15.7187551,15.2207476 14.9548617,16.0331952 14.0401322,16.5317262 C13.0793051,17.0553884 11.3917095,17.4385265 9.70542304,17.5158592 C9.33258181,17.5329297 8.92991356,17.5522225 8.81060449,17.5587881 C8.69129441,17.5648487 6.69015508,17.5648487 4.36362563,17.5567679 L4.36362563,17.5567578 L4.36362765,17.5574346 Z M9.2501401,16.6755836 C10.8917653,16.5468978 12.0120102,16.2057392 12.6568703,15.6381077 C12.9635707,15.3681403 13.3612855,14.7806403 13.5144246,14.3713307 C13.622958,14.0812524 13.6362235,13.9459101 13.6366953,13.1240081 C13.6371195,12.3082677 13.6225752,12.1552286 13.5102014,11.7953428 C13.0651709,10.3700925 11.9564542,9.31691972 10.4375491,8.87660029 C9.42383456,8.58274423 8.51730904,8.4872198 6.7421607,8.4872198 L5.41733171,8.4872198 L5.43279622,11.9444728 L5.44826073,15.4017259 L5.57810608,15.6457743 C5.78652348,16.0374881 5.94581099,16.2155371 6.22082377,16.3642024 C6.83430435,16.6958258 7.76782762,16.7917745 9.25014414,16.6755836 L9.25014414,16.6755836 L9.2501401,16.6755836 Z M9.46138373,7.46970332 C11.432997,7.03348485 12.2678515,6.05628115 12.1827997,4.28428632 C12.1127498,2.82493526 11.5611616,1.92292283 10.3931141,1.35763477 C9.49829957,0.924577892 9.20368595,0.867669292 7.8615561,0.868577673 C6.15881623,0.869598568 5.6903839,0.983355164 5.50796022,1.43927043 C5.43203158,1.62903647 5.42114279,2.03103301 5.42114279,4.64383878 L5.42114279,7.63141909 L7.19722243,7.60455064 C8.7032135,7.58182356 9.04752467,7.56121768 9.46138575,7.46970332 L9.46138373,7.46970332 Z" id="mwl-wordmark" fill="#000000" fill-rule="nonzero"></path>
    </g>
</svg>