<svg xmlns="http://www.w3.org/2000/svg" width="120" height="11"><path fill="#000" fill-rule="nonzero" d="M116.981 4.138c0-.548.044-1.25.044-1.25 0-.045-.055-.078-.143-.078-.318.121-.746.22-1.503.319-.022.065 0 .241.022.307.592.066.713.12.713.746V5.61c0 1.175.253 2.163 1.723 2.163 1.076 0 2.163-.933 2.163-2.843 0-1.317-.428-2.119-1.12-2.119-.186 0-.373.143-.373.33 0 .252.154.406.373.527.319.175.67.34.67 1.394 0 1.075-.604 2.283-1.614 2.283-.823 0-.955-.801-.955-1.91V4.138Zm-3.677.966v1.45c0 .142-.066.219-.154.285-.285.23-.659.483-.966.483-.549 0-.79-.44-.79-.78 0-.494.23-.999 1.042-1.207l.868-.23Zm0 2.031c.066.34.175.637.735.637.417 0 .812-.187 1.043-.406-.022-.132-.066-.22-.187-.297-.088.077-.274.176-.406.176-.318 0-.33-.428-.33-.933V4.698c0-1.559-.855-1.855-1.657-1.855-.9 0-1.81.593-1.81 1.219 0 .263.13.395.383.395.319 0 .516-.23.516-.373a.493.493 0 0 0-.033-.198.758.758 0 0 1-.022-.22c0-.34.461-.46.878-.46.374 0 .89.186.89 1.427 0 .076-.033.12-.066.131l-.944.23c-1.054.264-1.812.846-1.812 1.592 0 .9.615 1.186 1.384 1.186.373 0 .713-.088 1.196-.461l.22-.176h.022Zm-4.972.637c.12 1.537.812 1.954 1.416 1.954.933 0 1.273-.494 1.273-.834 0-.242-.142-.396-.373-.396-.296 0-.45.198-.505.429-.066.23-.12.45-.45.45-.318 0-.549-.33-.549-2.02V1.262c0-.713.033-1.152.033-1.152 0-.077-.044-.11-.142-.11-.286.11-1.043.252-1.482.285l.022.264c0 .033.022.055.065.055l.352.022c.22 0 .33.142.33.856v1.603c-.253-.143-.736-.242-.956-.242-.724 0-1.207.242-1.646.659-.472.472-.736 1.12-.736 1.932 0 1.35.659 2.338 1.844 2.338.44 0 .988-.351 1.493-.758v.78l.011-.022Zm-.011-1.526v.384c-.494.395-.922.626-1.208.626-.592 0-1.196-.648-1.196-2.02 0-.79.143-1.23.307-1.46.34-.516.802-.549 1.021-.549.516 0 .813.23 1.076.648v2.371Zm-5.566-1.142v1.45c0 .142-.066.219-.153.285-.286.23-.66.483-.966.483-.55 0-.79-.44-.79-.78 0-.494.23-.998 1.042-1.207l.867-.23Zm0 2.031c.066.34.176.637.736.637.417 0 .812-.187 1.043-.406-.022-.132-.066-.22-.187-.297-.088.077-.275.176-.406.176-.319 0-.33-.428-.33-.933V4.698c0-1.558-.856-1.855-1.657-1.855-.9 0-1.811.593-1.811 1.219 0 .263.131.395.384.395.318 0 .516-.23.516-.373a.493.493 0 0 0-.033-.198.758.758 0 0 1-.022-.22c0-.34.46-.46.878-.46.373 0 .89.186.89 1.427 0 .076-.034.12-.067.131l-.944.23c-1.054.264-1.811.846-1.811 1.592 0 .9.615 1.186 1.383 1.186.373 0 .714-.088 1.197-.461l.22-.176h.021Zm-7.279-2.601c0-.242.099-.374.187-.472.417-.406.966-.648 1.405-.648.22 0 .45.154.582.395.11.22.131.516.131.845v1.669c0 .9-.11.944-.68.999-.055.066-.055.296 0 .362a30.502 30.502 0 0 1 2.283 0c.055-.066.055-.296 0-.362-.615-.055-.735-.099-.735-.999V4.687c0-.603-.044-1.13-.297-1.47-.186-.242-.527-.374-.91-.374-.55 0-1.197.143-1.867.89-.044.043-.11.153-.11 0l.011-2.47c0-.714.044-1.153.044-1.153 0-.077-.044-.11-.143-.11-.274.11-1.097.264-1.536.297-.022.087 0 .263.065.329.571.033.703-.022.703.9v4.797c0 .911-.132.955-.768.999-.066.066-.066.296 0 .362a28.993 28.993 0 0 1 2.283 0c.066-.066.066-.296 0-.362-.549-.044-.648-.088-.648-.999v-1.79Zm-7.6 1.8c0-.615.361-.977.976-.977.099 0 .472.066.56.066.252 0 .33-.12.33-.253 0-.131-.11-.23-.319-.23-.055 0-.549.055-.56.055-.472 0-.867-.242-.867-1 0-.724.494-.79.834-.79.428 0 .615.231.736.472.11.187.22.363.46.363.143 0 .352-.088.352-.406 0-.396-.637-.79-1.482-.79-1.295 0-1.68.79-1.68 1.229 0 .538.286.845.79 1.053v.022c-.79.275-.998.857-.998 1.274 0 .636.362 1.35 1.811 1.35.692 0 1.285-.318 1.647-.659a.27.27 0 0 0-.165-.23c-.428.296-.845.472-1.361.472-.604 0-1.065-.44-1.065-1.021Zm-4.75 3.085c.164-.297.307-.615.45-.944.878-2.12 1.361-3.239 1.943-4.48.208-.46.373-.636.889-.702.066-.066.066-.296 0-.362-.22.011-.472.022-.78.022-.329 0-.67-.011-.998-.022-.066.066-.066.296 0 .362.34.033.702.099.526.494L84.06 6.301c-.077.187-.165.209-.264-.01l-.966-2.284c-.197-.461-.252-.659.363-.714.065-.066.065-.296 0-.362-.407.011-.846.022-1.24.022-.374 0-.67-.01-.89-.022-.066.066-.066.296 0 .362.428.055.57.154.856.824l1.252 2.887c.087.23.263.724.153 1.032-.131.373-.263.67-.428 1.01-.12.219-.274.318-.549.318-.153 0-.197-.033-.318-.033-.318 0-.483.33-.483.472 0 .23.22.406.516.406.23 0 .67-.088 1.065-.79Zm-5.263-3.085c0-.615.362-.977.977-.977.099 0 .472.066.56.066.252 0 .329-.12.329-.253 0-.131-.11-.23-.318-.23-.055 0-.55.055-.56.055-.472 0-.867-.242-.867-1 0-.724.494-.79.834-.79.428 0 .615.231.735.472.11.187.22.363.461.363.143 0 .352-.088.352-.406 0-.396-.637-.79-1.482-.79-1.296 0-1.68.79-1.68 1.229 0 .538.286.845.79 1.053v.022c-.79.275-.998.857-.998 1.274 0 .636.362 1.35 1.81 1.35.692 0 1.285-.318 1.647-.659a.27.27 0 0 0-.164-.23c-.428.296-.845.472-1.361.472-.604 0-1.065-.44-1.065-1.021ZM73.02 3.677a1.38 1.38 0 0 1 .933-.35c.67 0 1.218.812 1.218 1.876 0 1.252-.505 2.196-1.547 2.196-.34 0-.571-.242-.79-.516V4.139c0-.231.043-.33.186-.462Zm-.077-.34c-.077.066-.11.044-.11-.055v-2.02c0-.713.044-1.152.044-1.152 0-.077-.044-.11-.143-.11-.274.11-1.097.264-1.536.297-.022.087 0 .263.065.329.571.033.703-.022.703.9v5.357c0 .428-.01.626-.044.78.055.087.11.13.242.13.065-.054.175-.164.252-.263.12-.131.187-.131.307-.022.242.21.571.264.966.264 1.12 0 2.426-1.021 2.426-2.766 0-1.34-.988-2.163-1.943-2.163-.472 0-.889.187-1.229.494ZM69.123 4.6c0 1.02-.516 1.23-.922 1.23-.922 0-1.021-.78-1.021-1.483 0-.768.274-1.164.878-1.164.692 0 1.065.505 1.065 1.417ZM67.07 7.772c.121.033.297.055.44.055.34 0 .647-.033.8-.033.55 0 1.01.011 1.329.187.428.241.56.395.56.68 0 .79-1.164 1.208-2.152 1.208-.395 0-1.317-.319-1.317-1.065 0-.373.022-.648.34-1.032Zm3.425-4.358a.43.43 0 0 0 .406-.417c0-.23-.208-.406-.505-.406-.285 0-.812.186-1.097.56-.132-.088-.494-.308-1.142-.308-.977 0-1.877.659-1.877 1.669 0 .593.263.933.57 1.23-.307.263-.482.735-.482 1.108 0 .395.22.702.505.845-.593.351-.9.856-.9 1.328 0 .955.9 1.252 1.745 1.252 1.482 0 3.084-.714 3.084-1.9 0-.35-.164-.625-.483-.888-.428-.352-1.196-.363-1.602-.363-.198 0-.472.022-.736.055-.164.011-.274.022-.329.022-.318 0-.703-.154-.703-.626 0-.22.066-.45.198-.636.264.153.57.23.999.23.966 0 1.855-.603 1.855-1.68 0-.515-.154-.812-.472-1.14.077-.11.296-.264.44-.264.076 0 .153.033.219.131.044.088.186.198.307.198Zm-8.741.318c0-.439-.044-.713-.088-.834-.033-.044-.044-.088-.132-.088-.307.121-.626.22-1.383.319-.022.065 0 .241.022.307.593.055.713.11.713.746v2.141c0 .9-.11.944-.768.999-.066.066-.066.296 0 .362.45-.01.735-.022 1.207-.022.429 0 .626.011 1.087.022.066-.066.066-.296 0-.362-.56-.055-.658-.099-.658-.999v-1.8c0-.23.098-.363.186-.461.417-.406.911-.648 1.34-.648.219 0 .45.143.581.395.11.22.132.516.132.845v2.174c0 1.449-.044 2.8-.593 2.8a.515.515 0 0 1-.34-.122c-.11-.11-.242-.285-.483-.285-.12 0-.351.22-.351.417 0 .318.395.472.603.472.23 0 .802-.033 1.208-.373.516-.417.823-1.208.823-3.282V4.687c0-.603-.044-1.13-.296-1.47-.187-.242-.527-.374-.911-.374-.538 0-1.131.143-1.8.89-.034.043-.1.153-.1 0Zm-6.637-2.645c0 .285.264.57.527.57.308 0 .571-.285.571-.526 0-.264-.23-.571-.527-.571-.263 0-.57.263-.57.527Zm1 5.236V4.139c0-.55.043-1.252.043-1.252 0-.044-.055-.077-.142-.077-.319.121-.747.22-1.504.319-.022.066 0 .241.022.307.592.066.713.12.713.746v2.141c0 .911-.12.944-.79.999-.066.066-.066.296 0 .362.362-.01.79-.022 1.23-.022.438 0 .855.011 1.218.022.066-.066.066-.296 0-.362-.67-.044-.79-.088-.79-.999Zm-3.958-5.236c0 .285.263.57.527.57.307 0 .57-.285.57-.526 0-.264-.23-.571-.526-.571-.264 0-.571.263-.571.527Zm.999 5.236V4.139c0-.55.044-1.252.044-1.252 0-.044-.055-.077-.143-.077-.318.121-.747.22-1.504.319-.022.066 0 .241.022.307.593.066.713.12.713.746v2.141c0 .911-.12.944-.79.999-.066.066-.066.296 0 .362.362-.01.79-.022 1.23-.022.439 0 .856.011 1.218.022.066-.066.066-.296 0-.362-.67-.044-.79-.088-.79-.999Zm-3.753-.022c0 .209-.022.296-.176.428-.406.351-.757.527-1.032.527-.592 0-1.207-.648-1.207-2.02 0-.79.154-1.23.318-1.46.34-.516.802-.549 1.021-.549.395 0 .67.143.89.396.153.175.186.252.186.592v2.086Zm-.12.812c.043-.044.153-.066.164.011.022.275.12.648.12.648.088.033.143.033.21 0 .24-.198.625-.362 1.295-.44.065-.065.065-.23 0-.296-.703-.054-.802-.263-.802-.8V1.261c0-.713.044-1.152.044-1.152 0-.077-.044-.11-.143-.11-.274.11-1.097.264-1.536.296-.022.088 0 .264.065.33.571.033.703-.022.703.9V2.93c0 .077-.022.099-.099.099-.044 0-.494-.187-.856-.187-.725 0-1.208.242-1.647.659-.472.472-.757 1.12-.757 1.932 0 1.35.68 2.338 1.866 2.338.428 0 .834-.22 1.372-.659Zm-7.301-2.546c.208-1.24.977-1.34 1.24-1.34.417 0 .911.23.911 1.153 0 .099-.044.154-.165.154l-1.986.033ZM44.86 6.64c-.407.417-.725.593-1.362.593-.395 0-.856-.23-1.196-.79-.22-.363-.351-.868-.351-1.504l2.92.022c.131 0 .208-.066.208-.187 0-.922-.33-1.91-1.855-1.91-.955 0-2.195.911-2.195 2.58 0 .614.153 1.207.515 1.624.374.44.89.703 1.68.703.834 0 1.427-.384 1.866-.955-.033-.11-.099-.165-.23-.176ZM36.755 4.03c.285-.352.78-.68 1.108-.68.703 0 1.307.79 1.307 2.03 0 .9-.319 2.02-1.548 2.02-.198 0-.582-.055-.78-.23-.23-.198-.263-.253-.263-.66V4.513c0-.23.044-.319.176-.483Zm-.209-.406c-.022-.33-.044-.604-.088-.725-.033-.044-.044-.088-.131-.088-.308.121-.593.22-1.35.319-.023.065 0 .241.021.307.593.055.714.11.714.746V8.87c0 .91-.12.966-.79.999-.066.065-.066.296 0 .362.384-.011.79-.022 1.229-.022.44 0 .966.01 1.328.022.066-.066.066-.297 0-.362-.78-.044-.9-.088-.9-1V7.685c0-.143.033-.12.154-.077.263.11.604.165.955.165.614 0 1.163-.187 1.613-.615.516-.505.813-1.185.813-2.075 0-1.163-.824-2.239-1.943-2.239-.516 0-1.076.34-1.504.823-.066.077-.12.066-.12-.043Zm-6.794 1.789c0 1.12.747 2.36 2.306 2.36.702 0 1.23-.242 1.602-.615.494-.472.725-1.163.725-1.844 0-1.142-.626-2.47-2.306-2.47-.724 0-1.328.297-1.723.769-.395.472-.604 1.108-.604 1.8Zm2.163-2.185c.944 0 1.526.857 1.526 2.437 0 1.383-.714 1.724-1.23 1.724-1.141 0-1.515-1.383-1.515-2.229 0-.955.23-1.932 1.219-1.932ZM27.45 6.323c0 .911-.121.966-.79.999-.067.066-.067.296 0 .362.384-.01.79-.022 1.229-.022.439 0 .856.011 1.218.022.066-.066.066-.296 0-.362-.67-.033-.79-.088-.79-.999v-5.06c0-.714.044-1.153.044-1.153 0-.077-.044-.11-.143-.11-.274.11-1.098.264-1.537.297-.022.087 0 .263.066.329.637.044.703.077.703.9v4.797Zm-5.738 0c0 .911-.12.955-.735.999-.066.066-.066.296 0 .362.362-.01.735-.022 1.174-.022.384 0 .747.011 1 .022.065-.066.065-.296 0-.362-.45-.044-.572-.088-.572-.999v-.944c.209 0 .363.022.472.055.121.077.22.175.352.351l.801 1.076c.318.439.44.647.461.768 0 .033.011.055.044.055a14.03 14.03 0 0 1 1.58 0c.067-.066.067-.296 0-.362-.373-.044-.658-.088-.943-.461l-1.45-1.822c-.043-.044-.076-.1-.076-.154 0-.044 0-.066.044-.11l.966-.999c.329-.351.713-.439 1.152-.483.066-.066.066-.296 0-.362-.252.011-.56.022-.955.022-.417 0-.823-.011-1.075-.022-.066.066-.066.296 0 .362.614.044.35.44.252.56-.252.318-.604.692-.878.9-.253.187-.549.319-.747.34v-3.83c0-.714.044-1.153.044-1.153 0-.077-.044-.11-.142-.11-.275.11-1.098.263-1.537.296-.022.088 0 .264.066.33.57.033.702-.022.702.9v4.797Zm-2.915-5.236c0 .285.264.57.527.57.308 0 .571-.285.571-.526 0-.264-.23-.571-.527-.571-.263 0-.57.263-.57.527Zm1 5.236V4.139c0-.55.043-1.252.043-1.252 0-.044-.055-.077-.142-.077-.319.121-.747.22-1.504.319-.022.066 0 .241.022.307.592.066.713.12.713.746v2.141c0 .911-.12.944-.79.999-.066.066-.066.296 0 .362.362-.01.79-.022 1.23-.022.438 0 .855.011 1.218.022.066-.066.066-.296 0-.362-.67-.044-.79-.088-.79-.999Zm-5.727-.176c.044.538.077 1.054.077 1.515.11-.022.22-.033.274-.033.077 0 .143 0 .22.022.296.077.592.12.999.12.614 0 1.745-.295 1.745-1.382 0-.747-.538-1.186-1.284-1.46-.67-.242-1.098-.417-1.098-1.021 0-.45.395-.703.768-.703.242 0 .878.088 1.021 1.021.066.066.286.055.351-.01.033-.396.055-.802.066-1.164-.34-.055-.867-.209-1.438-.209-.812 0-1.548.527-1.548 1.23 0 .801.363 1.141 1.208 1.493.911.373 1.12.603 1.12 1.075 0 .538-.527.769-.933.769-.429 0-.67-.143-.78-.264-.241-.252-.362-.735-.428-1.01-.066-.065-.274-.054-.34.011ZM9.625 3.732c-.077.077-.132.11-.132 0-.01-.296-.044-.713-.088-.834-.033-.044-.043-.088-.131-.088-.308.121-.593.22-1.35.319-.022.065 0 .241.021.307.593.055.714.11.714.746v2.14c0 .901-.11.945-.768 1-.066.066-.066.296 0 .362a30.276 30.276 0 0 1 2.305 0c.066-.066.066-.296 0-.362-.56-.055-.67-.099-.67-1v-1.8c0-.23.099-.362.187-.46.417-.406.91-.648 1.339-.648.22 0 .45.143.582.395.11.22.132.516.132.845v1.669c0 .9-.11.944-.681.999-.055.066-.055.296 0 .362.33-.01.68-.022 1.12-.022.439 0 .834.011 1.163.022.055-.066.055-.296 0-.362-.614-.055-.735-.099-.735-.999V4.687c0-.603-.044-1.13-.297-1.47-.186-.242-.527-.374-.91-.374-.539 0-1.153.143-1.801.89Zm-6.765.824c-.242 0-.319-.033-.286-.143l1.13-2.843h.067l1.032 2.986H2.86ZM1.674 6.795l.604-1.592c.055-.142.12-.186.384-.186h2.316l.637 1.855c.12.384-.297.417-.812.45-.066.066-.066.296 0 .362.406-.01 1.01-.022 1.438-.022.45 0 .867.011 1.251.022.066-.066.066-.296 0-.362-.428-.033-.801-.066-.988-.604L4.243.44c-.165.099-.461.22-.604.22L1.147 6.543c-.285.68-.626.746-1.098.779-.065.066-.065.296 0 .362.286-.01.637-.022.977-.022.45 0 1 .011 1.405.022.066-.066.066-.296 0-.362-.417-.022-.933-.066-.757-.527Z"/></svg>