<svg viewBox="0 0 119 18" xmlns="http://www.w3.org/2000/svg"><path d="M15.215.004c1.28-.009 3.99-.001 4.532 0h.097l.057.052v.496c0 .137-.077.205-.229.205-.746.035-.899.11-1.172.502-.149.214-.443.675-.748 1.193l-2.618 4.896-.073.152 3.199 6.55.194.052 5.04-11.96c.175-.483.148-.825-.077-1.026-.226-.195-.385-.312-.969-.336l-.473-.023a.272.272 0 0 1-.166-.06.172.172 0 0 1-.079-.146V.053l.072-.05h5.694l.058.05v.498c0 .135-.077.203-.229.203-.746.033-1.3.195-1.657.484-.359.291-.639.691-.84 1.213 0 0-4.64 10.6-6.221 14.135-.607 1.16-1.2 1.05-1.729-.033-.657-1.35-2.02-4.34-3.025-6.547-1.07 2.21-2.54 5.21-3.269 6.56-.708 1.23-1.29 1.07-1.755.032-1.61-3.8-4.92-10.5-6.476-14.215-.288-.689-.505-1.13-.71-1.306C1.437.904 1.009.8.358.765.119.74 0 .681 0 .587v-.52L.058.014c.904-.005 4.77-.001 5.886 0h.304l.058.051v.496c0 .137-.087.203-.258.203l-.646.027c-.554.023-.831.19-.831.496 0 .143.058.376.187.688 1.24 3.02 5.52 12.1 5.523 12.053l.157.041 2.76-5.506c-.337-.746-.552-1.22-.552-1.224l-1.898-3.73s-.367-.746-.492-.994C9.422.966 9.44.876 8.596.764 8.362.734 8.24.704 8.24.586V.063l.07-.05h.329C10.268.01 13.218.01 13.222.01l.13.043v.521c0 .12-.085.18-.258.18l-.356.051c-.9.07-.753.438-.155 1.63l1.821 3.724 2.014-4.017c.313-.682.276-.89.158-1.052l-.029-.037c-.08-.095-.348-.249-.931-.272l-.229-.025a.273.273 0 0 1-.165-.059.17.17 0 0 1-.078-.146V.055zm95.143.115c.362 0 .493.261.7.781l5.33 14.092c.365 1.02.886 1.4 1.926 1.508l.285.025c.131 0 .261.077.261.21v.491l-.078.053s-1.83-.048-2.88-.052h-.137c-.91 0-3.46.052-3.459.052l-.024-.053v-.492c0-.132.052-.209.185-.209l.728-.053c.987-.077 1.35-.39 1.092-1.117l-1.586-4.396h-5.41c-.624 0-.78.104-.909.44l-1.509 3.771c-.26.654.078 1.23 1.04 1.305l.754.053c.104 0 .208.078.208.207v.494l-.052.053s-2.61-.048-3.373-.052h-.085c-.677 0-2.34.052-2.341.052l-.053-.053v-.494c0-.129.078-.207.209-.207 1.14-.078 1.79-.287 2.521-1.95l5.771-13.522c.285-.676.494-.937.886-.937zm-13.51 5.148h.117c.701 0 2.7-.052 2.705-.052l.024.052v.572c0 .078-.054.13-.156.13l-.546.053c-.807.077-1.09.286-1.092.807l.003 8.658c0 .572.26.91 1.092.988l.546.053c.078 0 .156.051.156.155v.546l-.026.053s-1.8-.048-2.664-.052h-.117c-.729 0-2.76.052-2.756.052l-.053-.053v-.546c0-.104.078-.155.182-.155l.521-.053c.857-.078 1.12-.494 1.118-.988V6.83c0-.57-.313-.729-1.118-.805l-.521-.054c-.104 0-.182-.024-.182-.104v-.599l.026-.052s1.87.048 2.74.052zm-46.628 0h.117c.702 0 2.7-.052 2.704-.052l.026.052v.572c0 .078-.052.13-.156.13l-.546.053c-.806.077-1.09.286-1.092.807v8.658c0 .572.26.91 1.092.988l.546.053c.078 0 .156.051.156.155v.546l-.026.053s-1.8-.048-2.665-.052h-.117c-.728 0-2.76.052-2.756.052l-.052-.053v-.546c0-.104.078-.155.182-.155l.52-.053c.858-.078 1.12-.494 1.118-.988V6.83c0-.57-.312-.729-1.118-.805l-.52-.054c-.104 0-.182-.024-.182-.104v-.599l.026-.052s1.87.048 2.743.052zm-21.69 0h.117c.702 0 2.7-.052 2.704-.052l.026.052v.572c0 .078-.052.13-.156.13l-.546.053c-.806.077-1.09.286-1.092.807v8.658c0 .572.26.91 1.092.988l.546.053c.078 0 .156.051.156.155v.546l-.026.053s-1.8-.048-2.665-.052h-.117c-.728 0-2.76.052-2.756.052l-.052-.053v-.546c0-.104.078-.155.182-.155l.52-.053c.858-.078 1.12-.494 1.118-.988V6.83c0-.57-.313-.729-1.118-.805l-.52-.054c-.104 0-.182-.024-.182-.104v-.599l.026-.052s1.87.048 2.743.052zm41.044 0h3.936c.78 0 2.63-.052 2.627-.052l.054.052c.024 1.12.206 2.13.39 3.121l-.648.104c-.285-.963-.78-2.34-2.443-2.34h-2.08c-.494 0-.754.182-.754.623v3.771h1.949c.729 0 .91-.312 1.015-.832l.155-.546c0-.078.053-.13.156-.13h.44c.054 0 .054.026.054.077-.054.571-.156 1.3-.156 1.925 0 .65.104 1.2.156 1.794l-.054.053h-.44c-.13 0-.184-.053-.184-.13l-.13-.572c-.104-.52-.338-.807-1.017-.807h-1.948v3.98c0 .491.283.985.754.985h2.47c1.33 0 2.06-.832 2.366-2.186l.648.078-.521 2.99-.052.051s-1.53-.052-2.314-.052l-4.55.005c-.78 0-2.57.053-2.572.053l-.027-.053v-.572c0-.05.027-.129.156-.129l.6-.053c.807-.078 1.04-.598 1.04-1.117v-8.58c0-.6-.311-.703-1.04-.754l-.6-.054c-.156-.024-.156-.077-.156-.104v-.599l.027-.052s1.85.048 2.693.052zm-33.288 0h.112c.73 0 2.37-.052 2.366-.052l.026.052v.572c0 .078-.052.104-.156.13l-.286.053c-.806.155-1.09.286-1.092.807v3.927c.858 0 1.35-.44 2.496-1.664 1.04-1.15 1.85-2.1 1.846-2.6 0-.21-.234-.442-.754-.522-.104-.024-.156-.052-.156-.13v-.6l.026-.024s2.11.052 2.86.052c.676 0 1.82-.052 1.82-.052l.078.024v.6c0 .078-.078.13-.208.13-1.01.078-1.72.13-2.652 1.196l-2.236 2.572c-.442.47-.598.754-.598.963 0 .156.104.285.234.441l3.926 4.732c.312.363.936.52 1.456.623l.13.025c.078.025.182.077.182.155v.546l-.078.026s-1.22-.023-1.97-.025h-.136c-.65 0-1.59.025-1.586.025l-.026-.026v-.312c0-.339-.026-.623-.39-1.039l-2.886-3.589c-.39-.52-.806-.649-1.378-.649v3.853c0 .572.338.858 1.092.988l.286.053c.078.025.156.051.156.155v.546l-.026.053s-1.47-.047-2.288-.052h-.13c-.728 0-2.86.052-2.86.052l-.052-.053v-.546c0-.104.078-.155.182-.155l.52-.053c.78-.078 1.12-.494 1.118-.988V6.83c0-.57-.286-.729-1.118-.805l-.52-.054c-.104 0-.182-.024-.182-.104v-.599l.026-.052s1.95.048 2.826.052zm24.323-.05c3.69 0 4.37 1.82 4.366 3.172 0 1.56-.754 4-4.444 4.004-.65 0-1.17-.053-1.639-.26v3.482c0 .571.312.703 1.145.832l.521.078c.104.025.183.053.183.155v.546l-.024.053s-1.9-.048-2.77-.052h-.117c-.728 0-2.68.052-2.678.052l-.026-.053v-.546c0-.104.052-.13.156-.155l.546-.078c.806-.104 1.07-.338 1.066-.832l-.003-8.735c0-.806-.338-.832-1.56-.91-.156 0-.182-.077-.182-.13v-.598l.052-.026c.39 0 1.92.052 2.678.052.728 0 1.77-.052 2.73-.052zm21.249.051c.492 0 2.76-.052 3.432-.052 4.34 0 6.48 2.7 6.475 6.162 0 4.55-3.22 5.9-6.109 5.901-1.97 0-2.89-.047-3.667-.052h-.128c-.781 0-2.76.052-2.758.052l-.025-.053v-.546a.145.145 0 0 1 .153-.152l.598-.053c.781-.078 1.04-.312 1.041-1.117v-8.58c0-.678-.184-.678-1.041-.754l-.57-.054c-.104 0-.184-.052-.184-.13v-.572l.025-.052s2.29.052 2.758.052zm2.678.702c-1.01 0-1.66.156-1.664.808v8.58c0 .726.181 1.17 2.158 1.17 2.86 0 4.47-1.06 4.473-4.707 0-2.7-.599-5.85-4.967-5.85zm-24.083.001c-1.25 0-1.56.234-1.561.91l.001 4.524c.52.21 1.17.234 1.69.234 1.56 0 2.31-.938 2.312-2.938 0-2.24-1.01-2.73-2.442-2.73zm49.308-3.043h-.052l-2.6 6.604c-.104.262.077.338.649.338h4.525l-2.522-6.942z" fill="#000" fill-rule="nonzero"/></svg>