<svg viewBox="0 0 77 40" xmlns="http://www.w3.org/2000/svg"><defs><clipPath id="a"><path d="M33 5h40.5v30H33z"/></clipPath></defs><path d="M1.2 35.7c-.164-.082-.188-.117-.152-.25.02-.086.137-.676.262-1.32.16-.836.215-1.25.195-1.48-.02-.195.04-.82.152-1.65.152-1.1.18-1.49.172-2.28-.008-.52.008-1.2.031-1.51.027-.359.02-.836-.027-1.3a26.496 26.496 0 0 1-.086-1.92c-.008-.648-.043-1.45-.082-1.79-.05-.449-.05-.703-.004-1 .04-.238.05-.648.027-.996-.02-.324-.007-1.49.028-2.58.043-1.38.043-2.4 0-3.31-.102-2.32-.055-4.21.152-6 .164-1.42.328-1.79 1.14-2.64.848-.879 1.18-.965 1.69-.434.246.254.262.285.28.664.016.273-.015.551-.097.871-.066.262-.188.844-.27 1.29s-.18.875-.223.945c-.047.086-.082.527-.102 1.31-.016.652-.055 1.22-.086 1.27-.031.047-.062.328-.066.621-.008.598-.113 2.28-.164 2.7-.02.152-.051 1.08-.067 2.07s-.047 2-.074 2.24c-.062.586-.02 7.35.05 7.42.106.109.86-.641.958-.957.023-.07.164-.297.312-.5.344-.477.68-1.25 1.06-2.45.246-.785.344-1 .562-1.3.145-.195.289-.461.324-.594.031-.129.137-.391.234-.578.133-.25.188-.449.21-.77.032-.359.083-.512.317-.961.152-.293.324-.719.379-.949.055-.227.148-.496.207-.598s.109-.234.109-.297c.004-.473 1.04-2.5 1.5-2.95.133-.133.359-.371.5-.539.457-.543.69-.715 1.02-.762l.297-.04.039.36.074.699c.031.309.016.383-.148.715-.102.203-.383.949-.62 1.65-.239.707-.474 1.37-.52 1.46-.048.098-.13.484-.18.855-.052.375-.185 1.13-.298 1.69-.113.555-.309 1.68-.438 2.52-.129.828-.297 1.74-.379 2.03a3.615 3.615 0 0 0-.145 1.02c0 .578-.188 2.36-.32 2.98-.098.484-.113 1.22-.027 1.57.031.133.086.559.12.949.036.39.087.934.11 1.21.027.277.055.539.055.578.003.039.035.074.066.074.137 0 .289-.543.41-1.45.105-.797.156-1.01.328-1.39.16-.348.203-.52.207-.789 0-.309-.02-.355.281-.809l.281-.46-.063-.384c-.062-.37-.058-.406.113-.852.102-.258.215-.594.254-.746.055-.23.094-.28.2-.28.074 0 .21-.016.308-.036.238-.05.285.109.137.453a2.392 2.392 0 0 0-.152.5 1.6 1.6 0 0 1-.145.414 1.52 1.52 0 0 0-.14.44c-.024.146-.067.298-.103.337-.043.055-.03.125.04.246.093.16.093.195.004.559a9.91 9.91 0 0 1-.216.734c-.226.664-.437 1.48-.366 1.76.062.246.003.43-.063.68-.07.266-.098.53-.059.707.059.242.008.348-.054.504a1.2 1.2 0 0 0-.094.387c0 .086-.055.355-.121.598-.141.516-.31.723-.695.863-.145.05-.457.18-.691.277-.465.199-.5.19-.57-.137a3.277 3.277 0 0 0-.18-.465c-.125-.277-.141-.371-.11-.684.032-.29.016-.422-.081-.668-.16-.418-.355-1.21-.355-1.45 0-.156-.047-.234-.207-.363l-.203-.168v-.81c0-.851.105-2.26.273-3.65.09-.745.113-.84.266-1.01.16-.187.16-.198.09-.483-.086-.336-.047-1.37.07-1.79.094-.336.074-.305.152-.152.04.066.082.184.082.273 0 .195.141.543.195.488.105-.11-.121-1.85-.25-1.74-.105.094-.172.219.004-.172.062-.137.047-.277-.008-.54-.039-.194-.094-.351-.117-.351s-.18.406-.348.902c-.164.496-.453 1.32-.64 1.82s-.493 1.39-.673 1.97c-.184.582-.547 1.56-.805 2.18-.53 1.25-.57 1.3-1.13 1.37-.465.059-.539.148-.703.832-.137.574-.137.598-.047 1.06.172.852.012 1.72-.398 2.15-.133.14-.168.215-.12.246.05.031.03.113-.075.297a1.08 1.08 0 0 0-.145.523c0 .367-.145.64-.477.91-.434.344-.801.422-1.15.25zm6.94-11.1c0-.074-.063-.152-.117-.211-.113-.125-.117-.059-.117.063 0 .137.125.27.188.28.055.008.047-.062.047-.132zm12.1.789c-.121-.102-.137-.164-.133-.52.004-.332.05-.531.273-1.12.145-.391.285-.836.309-.988.047-.328-.008-.691-.109-.691-.04 0-.242.176-.449.391-.496.512-1.32 1.16-1.72 1.35-.605.293-1.17.254-1.34-.086-.047-.094-.125-.43-.172-.746-.148-1.01-.367-1.12-1.19-.594-.281.176-.598.367-.707.422l-.195.102.133-.242c.074-.133.34-.473.594-.758.582-.66.832-1.04 1.08-1.64.109-.262.367-.828.57-1.26.488-1.02.832-1.36 1.64-1.64.266-.09.289-.09.355.004.109.152.098.215-.215 1.21-.48 1.53-.48 1.53-.508 2.72-.027.977-.016 1.12.078 1.3s.13.207.32.203c.191-.008.297-.082.891-.645.371-.352.777-.773.902-.941.137-.18.582-1.08 1.09-2.2.477-1.04 1.02-2.23 1.21-2.65.188-.414.422-.988.52-1.27.098-.281.441-1.19.766-2.01.742-1.89.871-2.04 1.77-2.13.301-.027.383-.02.41.055.047.129-1.8 4.71-2.31 5.72-.344.68-.398.895-.262 1.03.121.125.215.125.617.008.441-.133.844-.371 1.63-.97.887-.675 2.57-1.83 3.01-2.07.367-.198.688-.226.715-.062.012.047-.035.176-.102.281-.094.156-.273.273-.89.57-.88.422-1.86 1.04-3.46 2.18-1.34.949-1.39 1.02-1.36 1.73.023.531.151.91.577 1.67.473.84 1.09 1.33 1.91 1.5.328.07 1.5.047 1.75-.031.105-.035.133-.02.133.062 0 .067.067.008.184-.156.105-.145.355-.449.56-.676.487-.539.75-.945.995-1.54.105-.262.363-.828.57-1.26.488-1.02.832-1.36 1.64-1.64.266-.09.285-.09.355.004.11.152.098.215-.215 1.21-.48 1.53-.48 1.53-.512 2.72-.023.977-.012 1.12.082 1.3.094.188.13.207.328.203.18-.008.277-.058.496-.273.316-.305.59-.52.66-.52.11 0 .047.395-.098.605-.184.277-1.09.992-1.52 1.2-.605.293-1.17.254-1.34-.086-.047-.093-.125-.43-.172-.746-.148-1.01-.367-1.12-1.19-.594-1.19.754-1.77.996-2.9 1.19-.695.121-1.08.113-1.5-.027-.5-.172-.77-.363-1.54-1.1-.379-.355-.707-.656-.734-.664-.074-.027-.109.098-.184.648-.093.703-.602 2.25-.824 2.5-.19.219-.809.562-1.02.562a.522.522 0 0 1-.27-.113zm13.9-3.02c-22.8 11.7-11.4 5.87 0 0zm-22.3 1.86c-.05-.137.258-1.51.395-1.74.094-.156.133-.348.156-.742.023-.457.055-.586.223-.914.109-.207.199-.434.199-.504s.035-.258.082-.418c.141-.52.902-3.12 1.07-3.64.082-.277.27-.918.414-1.42.301-1.06.398-1.29.594-1.37.215-.086.289.031.133.203a.507.507 0 0 0-.129.367c0 .207-.406 1.38-.531 1.54-.027.035-.066.223-.09.414-.02.195-.145.617-.273.945-.129.324-.27.797-.312 1.04-.043.25-.168.66-.28.91-.114.254-.208.535-.208.629 0 .285-.12.688-.238.797-.09.082-.109.184-.109.531 0 .367-.031.5-.207.887-.109.25-.203.539-.203.641 0 .102-.05.293-.117.418-.062.129-.117.273-.117.324 0 .156-.316 1.19-.367 1.19-.023 0-.058-.04-.078-.09zm7.62-10c-.152-.102-.336-.453-.336-.648 0-.156.266-.57.449-.707.262-.195.734-.422.969-.469.199-.04.215-.027.25.129.023.094.145.281.273.414.301.316.273.453-.145.789-.617.5-1.16.684-1.46.492zm13.5 0c-.152-.102-.336-.453-.336-.648 0-.156.266-.57.449-.707.262-.195.73-.422.969-.469.199-.04.215-.027.25.129.023.094.145.281.273.414.297.316.273.453-.145.789-.617.5-1.16.684-1.46.492zm-17.9-1.08c0-.168.262-.969.629-1.93.477-1.25 1.13-3.3 1.09-3.42-.027-.074.199-.531.461-.934.055-.086.203-.465.328-.844.164-.484.395-.98.781-1.68.965-1.74 1.21-2.3 1.3-2.95.055-.395.16-.59.516-.961.254-.266.332-.312.516-.312.121 0 .289-.031.375-.07.25-.117.332.05.309.645-.02.449-.035.5-.199.68-.164.176-.176.215-.125.387.05.168.035.219-.148.473-.109.156-.223.363-.242.46a.98.98 0 0 1-.207.356 3.372 3.372 0 0 0-.324.473c-.09.164-.281.46-.418.66-.141.199-.254.422-.254.492s-.156.352-.352.625a8.47 8.47 0 0 0-.547.902c-.113.223-.246.44-.297.484-.305.254-1.32 2.31-1.58 3.19a1.148 1.148 0 0 1-.203.324c-.09.105-.18.27-.203.367-.02.097-.066.297-.094.44a1.026 1.026 0 0 1-.168.384c-.062.066-.156.285-.203.48-.12.473-.477 1.25-.594 1.29-.129.047-.145.043-.145-.024z" fill="#555"/><g clip-path="url(#a)"><path d="M54 22.3c.188-.91.859-2.55 1.91-3.62 1.17-1.2 2.14-1.85 2.45-1.54.309.312.371.199.375 1.68 0 .816-.621 3.45-.621 3.45s1.32-1.26 1.76-1.84c1.08-1.43 1.82-2.21 2.88-4.43 1.86-3.86 2.67-6.24 2.67-6.24s-1.83.023-2.72.066c-.891.04-.961.211-1.01.036-.047-.168.434-.598.699-.98.266-.387.312-.73.52-.73.828-.141 1.77.19 2.52.172.75-.02.82-.075.82-.075s.746-2.05 1.01-2.05c.176 0 1.02-.508 1.02-.508l-.602 2.65s.391-.117 2.28.024l3.58-.246c.324-.024-.645.816-1.17 1.03-.742.172-.641.02-1.54.098-.453.042-.727.265-1.11.347s-2.04.094-2.39.146l-2.91 8.1c-1.19 3.63-1.1 3.84-1.3 5.06-.102.62-.055.94.301.94.254 0 2.55-2.48 3.01-3 .949-1.56 1.92-3 3.5-3.86.297-.062.906-.312 1.28-.195.148.328.227 1 .109 1.49-.211.578-.988 1.62-3.05 3.09-.188.301-.05 1.1-.05 1.44 0 .348.358.504.921.31.281-.098.711-.211 1.07-.508.363-.301.434-.758.84-1.3.32-.133.402-.086.594.148-.344.438-.656.84-1.02 1.2-.363.358-.55.644-.887.901-.668.516-1.23.812-1.48.812-1.5-.253-2.02-1.39-1.76-2.87 0 0-1.06.883-2.2 2.43-.715.562-.953.832-1.41 1-.457.168-1.13.234-1.3.086-.172-1.82 2.18-7.38 1.47-7.77 0 0-2.09 2.75-2.88 3.5-.789.754-1.58 1.39-2.12 1.93-.473.906-1.89 2.26-2.23 2.26-1.37-.02-2.14-.773-1.85-2.33m15.3-4.32c-.434.082-1.09 1.64-.934 2.33.047.2 1.27-1.04 1.14-1.1.402-.332.113-1.46-.207-1.23zm-15.6 4.71c-.488.531-1.95 1.43-2.43 1.46-.785-.18-.289-2.7-1.01-2.05-.797.715-1.34 1.79-2.59 1.91-.12 0-.387-.133-.656-.559-.316-.5-.55-2.46-.55-2.46s-1.41 1.39-1.91 1.87c-.646.613-1.32.871-1.32 1.36 0 .316.464.66.64 1.07.27.613.66 1.25.594 2.17-.098 1.32-.78 3.41-1.5 4.63-.637 1.07-1.61 2.21-1.89 2.21-.117 0-.316-.203-.445-.457-.3-.594-.227-1.81.082-4.21.125-.957.477-2.88.34-3.44-.14-.559-.805-.137-.957-.324.188-.477.73-.64.922-1.09-.184-.898-.238-2.15-.238-2.15s-.84.406-1.73 1.04c-1.65 1.12-1.12-1.77-1.03-2.71 0 0-1.66 1.43-2.71 2.6-.887.988-1.25 1.26-1.25.961 0-.512 2.98-3.87 5.25-6.05 1.36-1.3 2.14-2.52 2.95-2.75.72-.203 1.36-.23 1.68-.078.43.207-.031 1.3-.77 4.39-.289 1.11-.242 3.41-.242 3.55.48-.097 2.2-2.14 2.9-2.94.703-.797.398-.555.77-1.35.324-1.12.898-2.89 1.84-2.57 0 0-.82 4.89.23 5.81.496.074 1.34-.527 1.95-3.23 1.48-3.01 2.01-2.35 2.01-2.35s-.457 5.88-.012 5.88c.184 0 .414-.015.63-.094.272-.093.397-.473.53-.402zm-11.6 9.81c.754-1.21 1.51-2.8 1.51-5.12-.344-1.41-1.36-2.07-1.81-.984-.332.81-.609 4.13-.73 5.09-.457 2.62.371 2.08 1.03 1.02zm15.6-12.9c-.277-.28-1.75-1.04-1.83.234-.168 2.55-.035 3.18.422 3.16 1.07.418 1.89-3.45 1.41-3.4zm-16.9 2c.082-.703 1.1-2.75 1.34-3.6.082-.3.195-.742-.129-.777-.723-.082-2.19 2.26-2.19 3.58 0 .434-.156 1.5.152 1.5.23 0 .512-.352.824-.71z" fill="#555"/></g></svg>