<svg viewBox="0 0 140 19" xmlns="http://www.w3.org/2000/svg"><path d="M16 1.59c-.09-.074-.137-.223-.148-.449 0-.227.05-.383.148-.477 1 .04 1.73.055 2.18.055.422 0 1.1-.016 2.03-.055.09.094.137.25.137.477 0 .219-.047.367-.137.449-.648.098-1.16.352-1.54.758-.367.41-.762 1.02-1.18 1.82l-2.03 3.87 3.54 7.36h.121l5.26-11.4c.367-.742.473-1.31.309-1.7-.152-.391-.652-.621-1.5-.691-.09-.074-.133-.223-.133-.449s.043-.383.133-.477c1.37.04 2.29.055 2.75.055.441 0 1.25-.016 2.43-.055.074.094.109.25.109.477 0 .219-.035.367-.109.449a2.836 2.836 0 0 0-.988.258c-.277.137-.527.34-.742.609a6.146 6.146 0 0 0-.516.75 11.3 11.3 0 0 0-.473.961l-6.56 14.2c-.207.426-.426.645-.66.652-.281 0-.492-.219-.637-.652l-3.73-8.07-4.08 8.07c-.164.426-.383.645-.664.652-.262 0-.473-.219-.633-.652l-6.02-14.2c-.449-1.06-.809-1.73-1.07-2.02-.262-.289-.738-.457-1.42-.5-.09-.09-.137-.246-.137-.461C.04.985.08.833.149.739c1.29.04 2.25.055 2.88.055.57 0 1.6-.016 3.09-.055.07.094.105.25.105.477 0 .219-.035.367-.105.449-.848.09-1.34.285-1.49.582-.137.301-.02.844.352 1.63l5.07 11.6h.137l3.1-6.32-2.34-4.97c-.488-1.03-.859-1.69-1.11-1.98-.254-.289-.664-.473-1.23-.543-.09-.09-.137-.246-.137-.461 0-.219.035-.371.109-.465 1.07.04 1.89.055 2.46.055.613 0 1.45-.016 2.52-.055.09.094.133.25.133.477.012.219-.035.367-.133.449-.559.082-.848.273-.867.582-.016.301.176.844.582 1.63l1.37 2.81.121.121 1.46-2.75c.316-.57.512-1.01.594-1.32.082-.305.063-.547-.055-.719-.117-.18-.367-.297-.758-.352zM31.4 9.26v6c0 1.11.109 1.8.336 2.06.227.254.781.414 1.66.477.09.09.137.25.137.477 0 .215-.047.359-.137.434a120.64 120.64 0 0 0-3.08-.055c-.703 0-1.74.02-3.1.055-.074-.074-.109-.219-.109-.434 0-.227.035-.387.109-.477.883-.07 1.44-.234 1.66-.488.223-.254.336-.938.336-2.05v-6c0-1.11-.113-1.8-.336-2.05-.227-.262-.781-.426-1.66-.488-.074-.09-.109-.246-.109-.461 0-.227.035-.375.109-.449 1.44.035 2.46.055 3.07.055.668 0 1.7-.02 3.11-.055.09.074.137.223.137.449 0 .215-.047.371-.137.461-.883.074-1.44.234-1.66.488-.227.254-.336.938-.336 2.05zM37.7 9.26c0-1.11-.113-1.79-.34-2.04-.215-.254-.766-.422-1.65-.504-.074-.09-.109-.246-.109-.461 0-.227.035-.375.109-.449 1.44.035 2.47.055 3.1.055.594 0 1.48-.02 2.66-.055.07.074.105.223.105.449 0 .215-.035.371-.105.461-.703.074-1.14.234-1.33.488-.168.254-.254.938-.254 2.05v2.47c.883 0 1.85-.594 2.91-1.78 1.37-1.55 1.99-2.52 1.85-2.88-.078-.199-.355-.316-.824-.352-.09-.09-.137-.246-.137-.461 0-.227.047-.375.137-.449 1.09.035 1.93.055 2.52.055.516 0 1.34-.02 2.48-.055.09.074.133.223.133.449 0 .215-.043.371-.133.461-1.37.074-2.36.461-2.98 1.17l-2.38 2.76c-.426.441-.637.785-.637 1.03 0 .109.086.266.258.477l4.1 4.83c.387.445.977.719 1.77.816.074.09.109.25.109.477 0 .215-.035.359-.109.434a58.467 58.467 0 0 0-2.14-.055c-.738 0-1.31.02-1.71.055v-.395c0-.426-.141-.793-.422-1.1l-3.07-3.84c-.352-.465-.922-.695-1.71-.695v2.58c0 1.11.086 1.8.254 2.05.184.242.625.406 1.33.488.07.09.105.25.105.477 0 .215-.035.359-.105.434-1.22-.035-2.11-.055-2.66-.055-.668 0-1.7.02-3.1.055-.074-.074-.109-.219-.109-.434 0-.227.035-.387.109-.477.883-.07 1.43-.234 1.65-.488.227-.254.34-.938.34-2.05zM55.3 9.26v6c0 1.11.113 1.8.34 2.06.223.254.777.414 1.66.477.09.09.133.25.133.477 0 .215-.043.359-.133.434-1.29-.035-2.32-.055-3.09-.055-.703 0-1.73.02-3.1.055-.07-.074-.105-.219-.105-.434 0-.227.035-.387.105-.477.887-.07 1.44-.234 1.66-.488.227-.254.34-.938.34-2.05v-6c0-1.11-.113-1.8-.34-2.05-.223-.262-.777-.426-1.66-.488-.07-.09-.105-.246-.105-.461 0-.227.035-.375.105-.449 1.45.035 2.47.055 3.07.055.668 0 1.71-.02 3.11-.055.09.074.133.223.133.449 0 .215-.043.371-.133.461-.887.074-1.44.234-1.66.488-.227.254-.34.938-.34 2.05zM63.8 7.98v4.33c.516.211 1.11.312 1.8.312 1.59 0 2.38-1.03 2.38-3.09 0-1.88-.836-2.81-2.52-2.81-.648 0-1.09.094-1.32.285-.227.191-.34.516-.34.977zm0 7.28c0 1.11.109 1.8.328 2.06.223.254.781.414 1.68.477.09.09.133.25.133.477 0 .215-.043.359-.133.434-1.22-.035-2.25-.055-3.08-.055-.848 0-1.88.02-3.1.055-.074-.074-.109-.219-.109-.434 0-.227.035-.387.109-.477.883-.07 1.43-.234 1.65-.488.227-.254.34-.938.34-2.05v-6c0-1.11-.113-1.8-.34-2.05-.215-.262-.766-.426-1.65-.488-.074-.09-.109-.246-.109-.461 0-.227.035-.375.109-.449 1.48.035 2.5.055 3.07.055.223 0 .676-.008 1.35-.028.684-.02 1.21-.027 1.58-.027 1.77 0 3.01.34 3.7 1.02.703.668 1.05 1.46 1.05 2.38 0 1.06-.391 2.05-1.18 2.96-.785.914-2 1.37-3.66 1.37-.668 0-1.25-.105-1.75-.324zM78.2 12.4h-1.58v4.17c0 .461.098.781.285.965.199.18.586.27 1.16.27h1.19c1.05 0 1.84-.266 2.37-.801.523-.543.918-1.29 1.18-2.24a.99.99 0 0 1 .773.109c-.262 1.52-.539 2.8-.824 3.84-1.22-.035-2.2-.055-2.94-.055h-4.27c-.738 0-1.77.02-3.09.055-.074-.074-.109-.219-.109-.434 0-.227.035-.387.109-.477.883-.07 1.43-.234 1.65-.488.227-.254.34-.938.34-2.05v-6c0-1.11-.113-1.8-.34-2.05-.215-.262-.766-.426-1.65-.488-.074-.09-.109-.246-.109-.461 0-.227.035-.375.109-.449 1.32.035 2.35.055 3.07.055h5.73c.426 0 .805-.036 1.14-.11.055 0 .082.028.082.083.125.445.293 1.55.5 3.31a1.514 1.514 0 0 1-.742.137c-.207-.633-.391-1.09-.543-1.39-.152-.297-.445-.555-.879-.773-.422-.227-.996-.34-1.72-.34h-1.57c-.262 0-.477.07-.648.207-.164.133-.246.324-.246.57v3.95h1.58c.848 0 1.37-.09 1.56-.27.195-.191.312-.621.352-1.29.07-.07.195-.105.375-.105.191 0 .328.035.406.105-.035.926-.059 1.58-.066 1.97 0 .496.023 1.18.066 2.04-.07.074-.203.109-.391.109-.191 0-.32-.035-.391-.11a6.178 6.178 0 0 0-.07-.69.977.977 0 0 0-.23-.461c-.117-.164-.305-.273-.566-.328-.254-.055-.598-.082-1.04-.082zM89.7 16.5c0 .441.137.766.406.965.281.199.91.297 1.89.297 1.62 0 2.82-.359 3.6-1.07.773-.715 1.16-2 1.16-3.86 0-.832-.059-1.57-.176-2.2a6.384 6.384 0 0 0-.703-1.93c-.352-.645-.898-1.14-1.64-1.49-.742-.355-1.66-.531-2.77-.531-1.18 0-1.77.289-1.77.871zM88.59 5.8c.18 0 .656-.008 1.43-.027.781-.02 1.53-.028 2.24-.028 2.24 0 3.95.613 5.12 1.83 1.18 1.22 1.77 2.81 1.77 4.75 0 1.17-.191 2.18-.57 3.04-.379.852-.895 1.5-1.55 1.96a7.11 7.11 0 0 1-2.05 1c-.723.207-1.5.312-2.32.312-.867 0-1.73-.007-2.6-.027-.855-.02-1.34-.027-1.45-.027-.664 0-1.7.02-3.09.055-.09-.075-.137-.22-.137-.434 0-.227.047-.387.137-.477.883-.07 1.43-.234 1.65-.488.227-.254.34-.938.34-2.05v-6c0-1.11-.113-1.8-.34-2.05-.215-.262-.766-.426-1.65-.488-.09-.09-.137-.246-.137-.461 0-.227.047-.375.137-.45 1.43.036 2.46.055 3.07.055zM106 9.26v6c0 1.11.113 1.8.34 2.06.227.254.781.414 1.66.477.09.09.133.25.133.477 0 .215-.043.359-.133.434-1.29-.035-2.32-.055-3.09-.055-.703 0-1.73.02-3.09.055-.074-.074-.109-.219-.109-.434 0-.227.035-.387.109-.477.883-.07 1.44-.234 1.66-.488.227-.254.34-.938.34-2.05v-6c0-1.11-.113-1.8-.34-2.05-.223-.262-.777-.426-1.66-.488-.074-.09-.109-.246-.109-.461 0-.227.035-.375.109-.449 1.44.035 2.46.055 3.07.055.668 0 1.71-.02 3.11-.055.09.074.133.223.133.449 0 .215-.043.371-.133.461-.883.074-1.44.234-1.66.488-.227.254-.34.938-.34 2.05zM117 .055c.109-.036.242-.055.395-.055.566 0 1.08.211 1.53.637l.082.301-3.19 3.04c-.352.352-.629.527-.824.527a.43.43 0 0 1-.273-.109.363.363 0 0 1-.121-.258c0-.18.109-.438.324-.773zm1.16 8.54c.406-.66.551-1.12.434-1.37-.109-.254-.59-.422-1.45-.504-.094-.09-.141-.246-.152-.461 0-.227.05-.375.152-.45.953.036 1.79.055 2.51.055.496 0 1.15-.02 1.96-.054.094.074.137.223.137.449.008.215-.035.37-.137.46-.586.063-1.04.255-1.35.57-.316.317-.672.817-1.07 1.49l-2.23 3.87c-.199.274-.289.669-.273 1.18l.027 1.43c0 1.11.11 1.8.324 2.06.227.255.773.415 1.64.478.09.09.137.25.137.477.008.215-.035.359-.137.434-1.32-.035-2.35-.055-3.07-.055-.703 0-1.73.02-3.09.055-.074-.074-.113-.22-.125-.434 0-.227.043-.387.125-.477.883-.07 1.43-.234 1.63-.488.22-.254.328-.938.328-2.05l.024-1.37c.011-.363-.121-.766-.391-1.21l-2.39-3.92c-.441-.746-.805-1.25-1.09-1.52-.29-.27-.73-.441-1.32-.516-.075-.09-.11-.246-.11-.461 0-.227.036-.375.11-.45 1.07.036 1.88.055 2.43.055.703 0 1.68-.02 2.93-.054.07.074.109.223.109.449.008.215-.028.37-.11.46-.765.048-1.18.22-1.23.517-.046.289.146.742.567 1.36l2.11 3.5h.054zM128 10.8h4.89l-2.6-7.57h-.176l-2.82 7.2c-.055.145-.027.242.082.297.105.047.312.07.621.07zm-3 5.68a2.81 2.81 0 0 1-.082.488c-.035.137.016.254.152.352.141.094.254.164.336.219.082.055.234.105.461.148.223.047.398.074.527.082.125.008.301.027.527.055.07.09.109.25.109.477 0 .215-.04.359-.109.434a141.56 141.56 0 0 0-3.54-.055c-.688 0-1.51.02-2.48.055-.09-.074-.133-.22-.133-.434 0-.227.043-.387.133-.477.703-.055 1.26-.2 1.66-.434s.777-.754 1.11-1.55l6.29-14.9c.406 0 .914-.188 1.53-.56l5.71 15.9c.145.427.355.755.637.978.285.219.555.355.797.41s.594.102 1.05.148c.09.09.137.25.137.477 0 .215-.047.359-.137.434-1.29-.035-2.34-.055-3.16-.055-1.05 0-2.27.02-3.62.055-.07-.074-.109-.22-.109-.434 0-.227.04-.387.109-.477.164-.02.289-.028.379-.028.098-.007.219-.023.363-.039.156-.02.273-.039.352-.054.082-.02.176-.04.285-.055a1.138 1.138 0 0 0 .473-.175.464.464 0 0 0 .164-.137c.027-.047.055-.102.082-.164a.499.499 0 0 0 .027-.23 1.166 1.166 0 0 0-.07-.258l-1.61-4.71h-5.84c-.336 0-.566.035-.691.105-.117.066-.211.188-.285.367z"/></svg>