<svg xmlns="http://www.w3.org/2000/svg" width="121" height="11" fill="none"><path fill="#0B2645" d="M5.033 4.46c.411 0 .723-.091.935-.274.212-.182.319-.452.319-.808 0-.352-.107-.62-.319-.805-.212-.185-.524-.278-.935-.278H3.591V4.46h1.442Zm.088 4.475c.524 0 .918-.112 1.182-.336.265-.224.397-.562.397-1.014 0-.443-.131-.776-.393-.997-.262-.222-.657-.332-1.186-.332h-1.53v2.679h1.53Zm2.425-3.68c.56.165.994.468 1.3.912.308.443.461.986.461 1.63 0 .987-.33 1.722-.988 2.207-.66.484-1.662.726-3.008.726H.983V.5h3.915c1.404 0 2.421.215 3.051.644.63.43.945 1.117.945 2.063 0 .497-.115.921-.345 1.27-.23.35-.565.61-1.003.778ZM20.612.5v10.23H18.14V3.714l-3.678 7.016H11.55V.5h2.472v7.016L17.7.5h2.912Zm2.56 0h2.609v4.22L29.858.5h2.953l-4.016 4.145 4.24 6.085h-2.872l-3.041-4.358-1.341 1.384v2.974h-2.608V.5Zm20.416 0v10.23h-2.472V3.714l-3.678 7.016h-2.913V.5h2.472v7.016L40.675.5h2.913Z"/><path fill="#0A4E98" d="M50.939 9.03c-.18.389-.404.706-.67.953-.543.498-1.581.747-3.117.747h-.474V8.736h.718c.632 0 1.023-.158 1.172-.473a4.88 4.88 0 0 0 .102-.205L45.032.5h2.723l2.242 4.66L52.178.5h2.737l-3.976 8.53Zm11.724 1.7V6.824h-3.535c-.858 0-1.519-.267-1.981-.801-.463-.535-.695-1.33-.695-2.385V.5h2.608v1.884c0 1.078.084 1.756.25 2.032.168.276.463.414.888.414h2.465V.5h2.608v10.23h-2.608ZM67.826.5h7.038v1.994h-4.43v1.905h4.165v1.994h-4.165v2.343h4.579v1.994h-7.187V.5Zm13.621 8.435c.547 0 .942-.103 1.186-.309.262-.223.393-.548.393-.973 0-.415-.131-.733-.393-.952-.24-.206-.635-.308-1.186-.308h-1.53v2.542h1.53Zm.19 1.795h-4.328V.5h7.647v1.994h-5.04v1.905h1.721c1.278 0 2.28.267 3.007.801.66.485.99 1.275.99 2.371 0 1.087-.33 1.873-.99 2.357-.727.535-1.73.802-3.007.802ZM87.874.5h2.608v3.899h3.847V.5h2.608v10.23H94.33V6.393h-3.847v4.337h-2.608V.5Zm20.687 0v10.23h-2.473V3.714l-3.678 7.016h-2.912V.5h2.472v7.016L105.648.5h2.913Zm2.56 0h2.608v4.22L117.806.5h2.954l-4.017 4.145 4.24 6.085h-2.872l-3.041-4.358-1.341 1.384v2.974h-2.608V.5Z"/></svg>