<?xml version="1.0" encoding="UTF-8"?>
<svg width="119px" height="11px" viewBox="0 0 119 11" version="1.1" xmlns="http://www.w3.org/2000/svg" xmlns:xlink="http://www.w3.org/1999/xlink">
    <title>ky-tagline</title>
    <g id="Page-1" stroke="none" stroke-width="1" fill="none" fill-rule="evenodd">
        <path d="M96.1210682,2.96875 C94.9503482,2.96875 93.2257282,4.07961 92.8085682,6.125 C92.6605482,6.87857 92.7086982,7.61365 93.0585682,8.125 C93.4084382,8.66325 93.9646982,8.96875 94.9335682,8.96875 C95.9562582,8.96875 96.7607382,8.51224 97.4335682,7.8125 C97.4201082,7.67793 97.3628382,7.60721 97.2148182,7.59375 C96.6092782,8.10509 96.1827982,8.3125 95.4023182,8.3125 C94.9178782,8.3125 94.4036482,8.03004 94.1210682,7.34375 C93.9461282,6.8997 93.8970882,6.28048 94.0585682,5.5 L97.6210682,5.53125 C97.7825482,5.53125 97.8931982,5.46052 97.9335682,5.3125 C98.1488782,4.18215 97.9915282,2.96875 96.1210682,2.96875 Z M96.0585682,3.40625 C96.5699182,3.40625 97.0998282,3.68215 96.8710682,4.8125 C96.8441482,4.9336 96.8003382,5 96.6523182,5 L94.1835682,5.0625 C94.7487382,3.54191 95.7356082,3.40625 96.0585682,3.40625 Z M6.58981823,0 C6.38797023,0 6.25607923,0.10543 6.02731823,0.46875 L1.65231823,7.46875 C1.12751433,8.30305 0.713155325,8.39713 0.121068225,8.4375 C0.0268728255,8.51824 -0.0399644745,8.79426 0.0273182255,8.875 C0.525209725,8.86155 0.690013725,8.84375 1.21481823,8.84375 C1.76653593,8.84375 2.46692623,8.86155 2.96481823,8.875 C3.05901323,8.79426 3.09460123,8.51824 3.02731823,8.4375 C2.52942723,8.41058 1.90965533,8.34643 2.24606823,7.78125 L3.37106823,5.84375 C3.46526423,5.66881 3.54811123,5.59375 3.87106823,5.59375 L6.68356823,5.59375 L7.02731823,7.875 C7.10805723,8.44018 6.57948223,8.39713 5.93356823,8.4375 C5.83937323,8.51824 5.80378623,8.79426 5.87106823,8.875 C6.36896023,8.86155 7.09626323,8.84375 7.62106823,8.84375 C8.17278523,8.84375 8.65442723,8.86155 9.15231823,8.875 C9.24651423,8.79426 9.31335123,8.51824 9.24606823,8.4375 C8.73472123,8.39713 8.29122023,8.38724 8.18356823,7.6875 L6.87106823,0.40625 C6.80378523,0.15057 6.77820923,0 6.58981823,0 Z M5.96481823,1.4375 L5.99606823,1.4375 L6.58981823,5.03125 L4.24606823,5.03125 C3.93656823,5.03125 3.85282823,5.02302 3.93356823,4.875 L5.96481823,1.4375 Z M17.8085682,3.06249556 L17.8085682,3.09375 L17.7460682,3.34375 C17.7326122,3.4245 17.7412862,3.4375 17.8085682,3.4375 L18.0898182,3.46875 C18.5473402,3.52258 18.6080572,3.67226 18.5273182,4.06249556 L17.7773182,7.84375 C17.6965782,8.23399 17.5742522,8.42838 17.0898182,8.46875 L16.8085682,8.5 C16.7412852,8.51346 16.6970252,8.52646 16.6835682,8.59375 L16.6210682,8.84375 L16.6523182,8.875 C16.6523182,8.875 17.5068512,8.84375 18.0585682,8.84375 C18.5833712,8.84375 18.8953072,8.875 19.4335682,8.875 C20.9272412,8.875 21.8923072,8.1616 22.1210682,7.03125 C22.3767432,5.76635 21.3191452,5.40625 20.0273182,5.40625 L19.2773182,5.40625 L19.5273182,4.06249556 C19.6080572,3.67226 19.7885462,3.52258 20.2460682,3.46875 L20.4960682,3.4375 C20.5498942,3.43751 20.6076112,3.42449 20.6210682,3.34375 L20.6835682,3.09375 L20.6523182,3.06249556 C20.6523182,3.06249556 19.7396232,3.06249556 19.2148182,3.06249556 C18.7303842,3.06249556 17.8085682,3.06249556 17.8085682,3.06249556 Z M19.1835682,5.84375 L20.0898182,5.84375 C21.0452322,5.84375 21.2378402,6.44305 21.0898182,7.15625 C20.8745122,8.25968 20.2001442,8.46875 19.5273182,8.46875 C18.9083192,8.46875 18.6831222,8.31472 18.7773182,7.84375 L19.1835682,5.84375 Z M14.7553892,4.09895 L14.4055192,5.82139 C13.8941722,6.252 13.3289952,6.41348 12.6696262,6.41348 C11.8353212,6.41348 11.8353212,5.95595 12.0506252,4.90634 L12.2255602,4.01821 C12.3062992,3.5876 12.4274082,3.49341 12.8714742,3.45304 L13.0733222,3.43958 C13.1271482,3.43958 13.1675182,3.41267 13.1809742,3.35884 L13.2348012,3.07626 L13.2213442,3.04934 C13.2213442,3.04934 12.4004942,3.07626 11.8756902,3.07626 C11.4047122,3.07626 10.6915152,3.04934 10.6915152,3.04934 L10.6780582,3.07626 L10.6107762,3.3723 C10.6107762,3.42613 10.6242322,3.43958 10.6646022,3.43958 L10.7722542,3.45304 C11.2163202,3.52032 11.2970592,3.57415 11.2028632,4.0855 L11.0413852,4.85252 C10.7587972,6.27891 11.1086682,6.88446 12.4274082,6.88446 C13.2348002,6.88446 13.7057802,6.69606 14.3113242,6.30582 L14.0152802,7.7995 C13.9076282,8.3243 13.8268872,8.40504 13.3289962,8.45887 L13.1002352,8.48578 C13.0464092,8.49924 13.0194962,8.5127 13.0060392,8.56652 L12.9522132,8.84911 L12.9791262,8.87602 C12.9791262,8.87602 13.7730632,8.84911 14.3247802,8.84911 C14.8226712,8.84911 15.6166082,8.87602 15.6166082,8.87602 L15.6435212,8.84911 L15.6973472,8.55307 C15.7108042,8.5127 15.6838912,8.49924 15.6435212,8.48578 L15.4282162,8.45887 C14.9437822,8.40504 14.9168682,8.31085 15.0245202,7.7995 L15.7646302,4.09895 C15.8722822,3.54724 16.0068482,3.47995 16.4240002,3.45304 L16.7738702,3.43958 C16.8142402,3.43958 16.8546092,3.41267 16.8546092,3.3723 L16.9218922,3.07626 L16.9084362,3.04934 C16.9084362,3.04934 15.9799342,3.07626 15.4013032,3.07626 C14.9034122,3.07626 14.1498452,3.04934 14.1498452,3.04934 L14.1229322,3.07626 L14.0556492,3.3723 C14.0556492,3.42613 14.0691062,3.43958 14.1229322,3.43958 L14.3247802,3.45304 C14.7823032,3.49341 14.8495852,3.57415 14.7553892,4.09895 M25.8843682,3.07626 L25.8574542,3.04934 C25.8574542,3.04934 25.5614112,3.07626 25.3595632,3.07626 C24.8885852,3.07626 23.9735392,3.04934 23.9735392,3.04934 L23.9466262,3.07626 L23.8928002,3.33193 C23.8793432,3.39921 23.9062562,3.43958 23.9735392,3.43958 L24.2292132,3.4665 C24.6598232,3.52032 24.7674752,3.6818 24.6867362,4.05858 L23.9331692,7.85333 C23.8524302,8.24357 23.6640392,8.4185 23.2334292,8.45887 L22.9642992,8.48578 C22.8970162,8.49924 22.8566462,8.52615 22.8431902,8.59344 L22.7893642,8.84911 L22.8162772,8.87602 C22.8162772,8.87602 23.7313222,8.84911 24.2023002,8.84911 C24.7271042,8.84911 25.6556062,8.87602 25.6556062,8.87602 L25.6825192,8.84911 L25.7363462,8.59344 C25.7498022,8.52615 25.6959762,8.49924 25.6286932,8.48578 L25.3864762,8.45887 C24.9424102,8.4185 24.8482142,8.24357 24.9289532,7.85333 L25.8843682,3.07626 M26.3856242,8.84911 L26.4125372,8.87602 C26.4125372,8.87602 27.3275822,8.84911 27.7985602,8.84911 C28.3233642,8.84911 29.1038442,8.87602 29.1038442,8.87602 L29.1307582,8.84911 L29.1845842,8.59344 C29.1980402,8.52615 29.1442142,8.49924 29.0903882,8.48578 C28.8078012,8.44541 28.4175612,8.36468 28.5117572,7.92061 L28.8885402,6.03669 C29.8843232,6.10398 30.0861722,6.58841 30.1938242,7.32852 C30.2745632,7.92061 30.5033252,8.84911 31.1761512,8.86257 L32.1450222,8.87602 L32.1853922,8.84911 L32.2392182,8.60689 C32.2526752,8.5127 32.1584792,8.48578 32.1046532,8.48578 L32.0104572,8.47233 C31.5394792,8.40504 31.2165212,7.23433 31.1088692,6.72298 C30.9608472,6.06361 30.5302372,5.76756 29.8035842,5.76756 L29.8170412,5.71374 C30.3418452,5.56572 30.7455422,5.10819 31.0550432,4.56993 C31.2838042,4.15278 31.5933042,3.85673 31.7278702,3.85673 C31.8489782,3.85673 31.9431742,3.8971 32.0104572,3.95093 C32.0911962,4.01821 32.1988482,4.07204 32.3603272,4.07204 C32.6429142,4.07204 32.9255012,3.82982 32.9793282,3.56069 C33.0331542,3.23773 32.9524142,2.95515 32.4006962,2.95515 C31.7547842,2.95515 31.1761512,3.6818 30.7993682,4.31426 C30.3553032,5.05437 29.8843232,5.56572 28.9827362,5.56572 L29.2922362,4.03167 C29.3864322,3.54724 29.6824762,3.47995 30.0727152,3.43958 C30.1265412,3.43958 30.1938242,3.3723 30.2072812,3.30502 L30.2611072,3.07626 L30.2341942,3.04934 C30.2341942,3.04934 29.4806272,3.07626 28.9558232,3.07626 C28.4848452,3.07626 27.5697992,3.04934 27.5697992,3.04934 L27.5428862,3.07626 L27.4890602,3.33193 C27.4756032,3.39921 27.5159732,3.42613 27.5697992,3.43958 L27.8254732,3.4665 C28.2426262,3.50686 28.3502782,3.6818 28.2695392,4.05858 L27.5025162,7.8937 C27.4352342,8.27048 27.3141242,8.40504 26.8296892,8.45887 L26.5605592,8.48578 C26.4932762,8.49924 26.4529062,8.52615 26.4394502,8.59344 L26.3856242,8.84911 M36.4183142,7.74567 C36.2837492,8.45887 37.1315122,8.98368 38.3560562,8.98368 C39.6882522,8.98368 41.2222992,8.04172 41.6529082,5.87522 C41.9758652,4.24698 41.4779712,2.94169 39.6882532,2.94169 C39.0557972,2.94169 38.4637072,3.15699 37.7908812,3.19736 C37.6428592,3.70871 37.4948372,4.16624 37.2257072,4.81215 L37.5486642,4.86598 C37.9523602,4.00476 38.5040792,3.35884 39.4998622,3.35884 C40.6974932,3.35884 40.8589722,4.51611 40.6167542,5.75411 L40.5763852,5.78102 C40.2668842,5.56572 39.9304712,5.40424 39.5402312,5.40424 C38.9616012,5.40424 38.5309902,5.78102 38.0600122,5.78102 C37.8850772,5.78102 37.7370552,5.70028 37.6428592,5.70028 C37.5621202,5.70028 37.5082942,5.83485 37.4948372,5.88867 C37.4544682,6.07706 38.0331002,6.31928 38.6117302,6.31928 C39.2172732,6.31928 39.5133192,6.02324 40.0246672,6.02324 C40.1996022,6.02324 40.3610802,6.07706 40.5091022,6.14435 C40.1861452,7.74567 39.4325782,8.53961 38.3022302,8.53961 C37.7639692,8.53961 37.4544682,8.21665 37.3737292,7.85333 C37.2526202,7.43617 37.1180542,7.35543 36.8892932,7.35543 C36.6470752,7.35543 36.4721402,7.53037 36.4183142,7.74567 M46.8961222,7.81296 C46.8019262,8.3243 46.7077302,8.43196 46.2232952,8.45887 L45.8599692,8.48578 C45.8195992,8.49924 45.7926862,8.5127 45.7792292,8.55307 L45.7254032,8.84911 L45.7388602,8.87602 C46.1425562,8.86257 46.7077312,8.84911 47.1921662,8.84911 C47.6900572,8.84911 48.1744932,8.86257 48.5781892,8.87602 L48.6051032,8.84911 L48.6589292,8.56652 C48.6723852,8.5127 48.6454722,8.49924 48.5916462,8.48578 L48.3359722,8.45887 C47.8784492,8.4185 47.7977102,8.35122 47.9053622,7.81296 L48.6589292,4.09895 C48.7665812,3.54724 48.8607782,3.52032 49.3317562,3.4665 L49.6008862,3.43958 C49.6547132,3.43958 49.6950822,3.41267 49.7085392,3.35884 L49.7623652,3.07626 L49.7489082,3.04934 C49.3452122,3.0628 48.8473192,3.07626 48.3494282,3.07626 C47.8649942,3.07626 47.3132752,3.0628 46.9095792,3.04934 L46.8826662,3.07626 L46.8153832,3.3723 C46.8153832,3.42613 46.8288392,3.43958 46.8692092,3.43958 L47.2190792,3.4665 C47.6362322,3.50686 47.7438842,3.58761 47.6496882,4.09895 L47.3536442,5.5388 L44.5950542,5.5388 L44.8910982,4.09895 C44.9987502,3.54724 45.0929472,3.52032 45.5639252,3.4665 L45.8330562,3.43958 C45.8868822,3.43958 45.9272512,3.41267 45.9407082,3.35884 L45.9945342,3.07626 L45.9810772,3.04934 C45.5773812,3.0628 45.0660322,3.07626 44.5681412,3.07626 C44.0837062,3.07626 43.5454442,3.0628 43.1417482,3.04934 L43.1148352,3.07626 L43.0475522,3.3723 C43.0475522,3.42613 43.0610092,3.43958 43.1013782,3.43958 L43.4512482,3.4665 C43.8684012,3.50686 43.9760532,3.58761 43.8818572,4.09895 L43.1282912,7.81296 C43.0340952,8.3243 42.9398992,8.43196 42.4554642,8.45887 L42.0921382,8.48578 C42.0517682,8.49924 42.0248552,8.5127 42.0113982,8.55307 L41.9575722,8.84911 L41.9710292,8.87602 C42.3747252,8.86257 42.9264442,8.84911 43.4108792,8.84911 C43.9087702,8.84911 44.4066622,8.86257 44.8103592,8.87602 L44.8372722,8.84911 L44.8910982,8.56652 C44.9045542,8.5127 44.8776412,8.49924 44.8238152,8.48578 L44.5681412,8.45887 C44.1106192,8.4185 44.0298792,8.35122 44.1375322,7.81296 L44.5008582,5.99632 L47.2594492,5.99632 L46.8961222,7.81296 M55.0324922,4.11241 L54.3327522,7.66494 C54.2385562,8.12246 54.1578162,8.32431 53.6599252,8.32431 L52.0451402,8.32431 C51.5741632,8.32431 51.5337922,8.16283 51.6414442,7.66494 L52.3546412,4.09895 C52.4622932,3.54724 52.5430332,3.52032 53.0140112,3.4665 L53.2965992,3.43958 C53.3504252,3.43958 53.3907942,3.41267 53.4042512,3.35884 L53.4580772,3.07626 L53.4311642,3.04934 C53.4311642,3.04934 52.5699452,3.07626 52.0316842,3.07626 C51.4665102,3.07626 50.5918342,3.04934 50.5918342,3.04934 L50.5783782,3.07626 L50.5110952,3.3723 C50.5110952,3.42613 50.5245522,3.43958 50.5783782,3.43958 L50.9282482,3.4665 C51.3723142,3.50686 51.4395962,3.58761 51.3454002,4.09895 L50.5918342,7.86678 C50.4841822,8.39159 50.4034422,8.40504 49.9324642,8.45887 L49.6902462,8.48578 C49.6498772,8.49924 49.6229642,8.5127 49.6095072,8.56652 L49.5556812,8.84911 L49.5825942,8.87602 C49.5825942,8.87602 50.4303562,8.84911 50.8340522,8.84911 L54.1039912,8.84911 C55.1670572,8.84911 55.3554492,9.92563 55.3689062,10.585 L55.7053192,10.57155 L55.9879062,8.78183 C56.0148192,8.55307 55.8802542,8.52615 55.6514932,8.48578 C55.4227322,8.44541 55.2208842,8.23011 55.3016232,7.82641 L56.0417332,4.11241 C56.1628412,3.56069 56.2570382,3.50686 56.7280162,3.4665 L57.0644292,3.43958 C57.1182562,3.43958 57.1586252,3.41267 57.1586252,3.3723 L57.2259082,3.07626 L57.1989952,3.04934 C57.1989952,3.04934 56.3108622,3.07626 55.7456892,3.07626 C55.2074282,3.07626 54.3731222,3.04934 54.3731222,3.04934 L54.3596652,3.07626 L54.2923822,3.3723 C54.2923822,3.42613 54.3058392,3.43958 54.3462092,3.43958 L54.6287962,3.4665 C55.0728622,3.52032 55.1401442,3.58761 55.0324922,4.11241 M59.5637712,3.07626 C58.9851412,3.07626 58.0970092,3.04934 58.0970092,3.04934 L58.0566392,3.07626 L57.9893562,3.3723 C57.9893562,3.42613 58.0028132,3.43958 58.0566392,3.43958 L58.4603352,3.4665 C58.9447702,3.50686 58.9716842,3.61452 58.8505752,4.17969 L58.1239222,7.81296 C58.0297262,8.28394 57.9624422,8.43196 57.4645512,8.45887 L57.0339422,8.48578 C56.9935722,8.49924 56.9666592,8.5127 56.9532032,8.55307 L56.8993772,8.84911 L56.9128332,8.87602 C57.4510942,8.86257 57.8278792,8.84911 58.4065092,8.84911 C58.8371182,8.84911 58.9582282,8.86257 59.4964892,8.87602 L59.5099452,8.84911 L59.5637712,8.56652 C59.5772282,8.5127 59.5503152,8.49924 59.4964892,8.48578 C59.0524232,8.44541 59.0389662,8.29739 59.1062492,7.97444 L59.1062492,7.94752 L62.5511232,4.6103 L61.9186662,7.78604 C61.8244702,8.25702 61.7302732,8.43196 61.2323822,8.45887 L60.8017732,8.48578 C60.7614032,8.49924 60.7344902,8.5127 60.7210342,8.55307 L60.6672072,8.84911 L60.6941212,8.87602 C61.2323812,8.86257 61.5957102,8.84911 62.1743402,8.84911 C62.7798832,8.84911 63.1835812,8.86257 63.7218422,8.87602 L63.7352982,8.84911 L63.7891242,8.56652 C63.8025812,8.5127 63.7756682,8.49924 63.7218422,8.48578 L63.3316022,8.45887 C62.8606242,8.43196 62.8202542,8.28394 62.9279062,7.78604 L63.6545592,4.16624 C63.7622112,3.60106 63.8160382,3.50686 64.3273862,3.4665 L64.7310822,3.43958 C64.7849082,3.43958 64.8252782,3.41267 64.8387342,3.35884 L64.8925612,3.07626 L64.8791042,3.04934 C64.8791042,3.04934 63.9371452,3.07626 63.3316022,3.07626 C62.9548192,3.07626 62.3492752,3.04934 62.3492752,3.04934 L62.3223622,3.07626 L62.2550792,3.3723 C62.2550792,3.42613 62.2685362,3.43958 62.3089052,3.43958 C62.7664282,3.47995 62.7260582,3.70871 62.6722322,4.03167 L59.2273582,7.36889 L59.8732722,4.16624 C59.9809242,3.61452 60.0347512,3.50686 60.5595552,3.4665 L60.9632512,3.43958 C61.0170772,3.43958 61.0574472,3.41267 61.0709042,3.35884 L61.1247302,3.07626 L61.0978172,3.04934 C61.0978172,3.04934 60.1558582,3.07626 59.5637712,3.07626 M64.6526562,8.84911 L64.6795692,8.87602 C64.6795692,8.87602 65.5946142,8.84911 66.0655922,8.84911 C66.5903962,8.84911 67.3708772,8.87602 67.3708772,8.87602 L67.3977902,8.84911 L67.4516162,8.59344 C67.4650722,8.52615 67.4112462,8.49924 67.3574202,8.48578 C67.0748332,8.44541 66.6845932,8.36468 66.7787892,7.92061 L67.1555722,6.03669 C68.1513552,6.10398 68.3532042,6.58841 68.4608562,7.32852 C68.5415952,7.92061 68.7703582,8.84911 69.4431842,8.86257 L70.4120542,8.87602 L70.4524242,8.84911 L70.5062502,8.60689 C70.5197072,8.5127 70.4255112,8.48578 70.3716852,8.48578 L70.2774892,8.47233 C69.8065112,8.40504 69.4835532,7.23433 69.3759012,6.72298 C69.2278792,6.06361 68.7972692,5.76756 68.0706172,5.76756 L68.0840732,5.71374 C68.6088772,5.56572 69.0125742,5.10819 69.3220752,4.56993 C69.5508362,4.15278 69.8603362,3.85673 69.9949022,3.85673 C70.1160112,3.85673 70.2102062,3.8971 70.2774892,3.95093 C70.3582282,4.01821 70.4658812,4.07204 70.6273592,4.07204 C70.9099462,4.07204 71.1925342,3.82982 71.2463602,3.56069 C71.3001862,3.23773 71.2194462,2.95515 70.6677292,2.95515 C70.0218162,2.95515 69.4431842,3.6818 69.0664002,4.31426 C68.6223352,5.05437 68.1513552,5.56572 67.2497682,5.56572 L67.5592682,4.03167 C67.6534642,3.54724 67.9495082,3.47995 68.3397472,3.43958 C68.3935742,3.43958 68.4608562,3.3723 68.4743132,3.30502 L68.5281392,3.07626 L68.5012262,3.04934 C68.5012262,3.04934 67.7476592,3.07626 67.2228552,3.07626 C66.7518772,3.07626 65.8368312,3.04934 65.8368312,3.04934 L65.8099182,3.07626 L65.7560922,3.33193 C65.7426352,3.39921 65.7830052,3.42613 65.8368312,3.43958 L66.0925052,3.4665 C66.5096582,3.50686 66.6173102,3.6818 66.5365712,4.05858 L65.7695482,7.8937 C65.7022662,8.27048 65.5811562,8.40504 65.0967222,8.45887 L64.8275912,8.48578 C64.7603082,8.49924 64.7199382,8.52615 64.7064822,8.59344 L64.6526562,8.84911 M70.8098632,8.23011 C70.7291242,8.64726 71.0117122,9.01059 71.6037992,9.01059 C72.2497122,9.01059 72.6803222,8.67417 73.1243882,7.93407 C73.5011712,7.28815 73.8510412,5.91558 74.0259762,5.00054 C74.2412812,3.95093 74.3489342,3.60106 74.8602812,3.60106 L75.4658262,3.60106 C75.9502602,3.60106 75.9637182,3.78945 75.8695222,4.24697 L75.1563252,7.85333 C75.0755862,8.24357 74.9410202,8.40504 74.4565852,8.45887 L74.1874552,8.48578 C74.1201722,8.49924 74.0798022,8.52615 74.0663462,8.59344 L74.0125202,8.84911 L74.0394332,8.87602 C74.0394332,8.87602 74.9544782,8.84911 75.4389132,8.84911 C75.9637172,8.84911 76.8787622,8.87602 76.8787622,8.87602 L76.9056752,8.84911 L76.9595022,8.59344 C76.9729582,8.52615 76.9191322,8.48578 76.8653062,8.48578 L76.6230882,8.45887 C76.1924792,8.4185 76.0848272,8.24357 76.1655662,7.85333 L76.9191322,4.09895 C77.0133282,3.58761 77.0671552,3.50686 77.5919592,3.4665 L77.9687422,3.43958 C78.0494812,3.43958 78.0898512,3.41267 78.1033072,3.34539 L78.1571332,3.07626 L78.1167642,3.04934 C78.1167642,3.04934 77.2017182,3.07626 76.6230882,3.07626 L74.2816502,3.07626 C73.7433902,3.07626 72.8956272,3.04934 72.8956272,3.04934 L72.8552572,3.07626 L72.8148882,3.29156 C72.7879752,3.41267 72.8418012,3.42613 73.0571052,3.43958 C73.8106712,3.49341 73.8106712,3.6818 73.5280842,5.09474 C73.2454972,6.50767 72.9898232,7.24778 72.7072352,7.7995 C72.4381042,8.28394 72.1958872,8.45887 71.9805822,8.45887 C71.8191042,8.45887 71.7787342,8.35122 71.7921912,8.17628 C71.8056472,7.93407 71.7921912,7.66494 71.4288642,7.66494 C71.1059072,7.66494 70.8771462,7.93407 70.8098632,8.23011 M81.9648182,2.9375 C80.1481852,2.9375 78.8324822,4.38477 78.4960682,6.09375 C78.2269362,7.46632 78.8486982,8.96875 80.7460682,8.96875 C82.7510942,8.96875 83.9144372,7.3144 84.1835682,5.96875 C84.4661532,4.56927 84.0505792,2.9375 81.9648182,2.9375 Z M81.7460682,3.375 C82.9033272,3.375 83.3372642,4.42814 82.9335682,6.40625 C82.5836952,8.18251 81.7222742,8.53125 81.0898182,8.53125 C79.6903382,8.53125 79.4995142,6.8174 79.7148182,5.78125 C79.9435822,4.61053 80.6157202,3.375 81.7460682,3.375 Z M86.5386652,4.12587 L85.7985552,7.82641 C85.7043592,8.29739 85.5967062,8.43196 85.1257282,8.45887 L84.7085762,8.48578 C84.6547492,8.49924 84.6278362,8.5127 84.6143802,8.55307 L84.5605542,8.84911 L84.5874672,8.87602 C84.5874672,8.87602 85.5025122,8.84911 86.0945992,8.84911 C86.6597732,8.84911 87.5613622,8.87602 87.5613622,8.87602 L87.5748182,8.84911 L87.6286442,8.56652 C87.6421012,8.5127 87.6151882,8.49924 87.5748182,8.48578 L87.2249482,8.45887 C86.7674262,8.43196 86.7136002,8.33776 86.8077962,7.82641 L87.5479052,4.12587 C87.6421012,3.65489 87.9246882,3.60106 88.2072762,3.60106 L89.8355172,3.60106 C90.1046482,3.60106 90.3872352,3.62797 90.2795832,4.12587 L89.5394732,7.82641 C89.4452772,8.29739 89.3376242,8.43196 88.8666462,8.45887 L88.4898632,8.48578 C88.4494932,8.49924 88.4225802,8.5127 88.4091242,8.55307 L88.3552982,8.84911 L88.3687542,8.87602 C88.3687542,8.87602 89.2703432,8.84911 89.8489732,8.84911 C90.4276042,8.84911 91.3561062,8.87602 91.3561062,8.87602 L91.3695622,8.84911 L91.4233882,8.56652 C91.4368452,8.5127 91.4099322,8.49924 91.3561062,8.48578 L90.9658662,8.45887 C90.4948882,8.43196 90.4410612,8.33776 90.5352572,7.82641 L91.2753662,4.11241 C91.3964752,3.56069 91.4368462,3.50686 91.9616502,3.4665 L92.3653482,3.43958 C92.4191682,3.43958 92.4595382,3.41267 92.4729982,3.35884 L92.5268282,3.07626 L92.5133682,3.04934 C92.5133682,3.04934 91.5714092,3.07626 90.9658662,3.07626 L87.2384052,3.07626 C86.6597752,3.07626 85.7581862,3.04934 85.7581862,3.04934 L85.7312722,3.07626 L85.6639902,3.3723 C85.6639902,3.42613 85.6774462,3.43958 85.7178162,3.43958 L86.1215122,3.4665 C86.5790342,3.50686 86.6597742,3.56069 86.5386652,4.12587 M99.9960682,3.06249556 L99.9335682,3.375 C99.9335682,3.42883 99.9734982,3.4375 100.027318,3.4375 L100.371068,3.46875 C100.828588,3.5091 100.866718,3.77603 100.839818,3.9375 C100.516858,5.53883 100.029538,6.76245 99.5585682,7.90625 C99.4105482,8.26958 98.9843882,8.45963 98.6210682,8.5 C98.4326782,8.52692 98.2820982,8.53903 98.2148182,8.78125 L97.7460682,10.5624956 L98.1210682,10.59375 C98.3363782,10.09585 98.9282182,8.84375 100.058568,8.84375 L102.214818,8.84375 C103.331708,8.84375 103.496068,10.02424 103.496068,10.5624956 L103.839818,10.5624956 L104.121068,8.78125 C104.161428,8.59286 104.082038,8.55383 103.839818,8.5 C103.624518,8.45963 103.339378,8.31039 103.433568,7.8125 L104.183568,4.09375 C104.264298,3.63623 104.404438,3.53603 104.902318,3.46875 L105.152318,3.4375 C105.192678,3.4375 105.263858,3.39757 105.277318,3.34375 L105.308568,3.06249556 C105.308568,3.06249556 104.315128,3.06249556 103.871068,3.06249556 L101.308568,3.06249556 C101.079808,3.06249556 100.058568,3.06249556 100.058568,3.06249556 L99.9960682,3.06249556 Z M101.777318,3.59375 L102.714818,3.59375 C103.212718,3.59375 103.215268,3.79248 103.121068,4.25 L102.464818,7.65625 C102.370628,8.1003 102.275198,8.3125 101.777318,8.3125 L100.183568,8.3125 C100.048998,8.3125 99.9379082,8.30427 99.9648182,8.15625 C100.018638,7.92749 100.501178,7.00559 101.308568,3.9375 C101.322018,3.88368 101.467818,3.59375 101.777318,3.59375 Z M107.686668,3.07626 C107.108038,3.07626 106.219908,3.04934 106.219908,3.04934 L106.179538,3.07626 L106.112248,3.3723 C106.112248,3.42613 106.125708,3.43958 106.179538,3.43958 L106.583228,3.4665 C107.067668,3.50686 107.094578,3.61452 106.973468,4.17969 L106.246818,7.81296 C106.152618,8.28394 106.085338,8.43196 105.587448,8.45887 L105.156838,8.48578 C105.116468,8.49924 105.089558,8.5127 105.076098,8.55307 L105.022268,8.84911 L105.035728,8.87602 C105.573988,8.86257 105.950778,8.84911 106.529408,8.84911 C106.960018,8.84911 107.081118,8.86257 107.619388,8.87602 L107.632838,8.84911 L107.686668,8.56652 C107.700128,8.5127 107.673208,8.49924 107.619388,8.48578 C107.175318,8.44541 107.161858,8.29739 107.229148,7.97444 L107.229148,7.94752 L110.674018,4.6103 L110.041558,7.78604 C109.947368,8.25702 109.853168,8.43196 109.355278,8.45887 L108.924668,8.48578 C108.884298,8.49924 108.857388,8.5127 108.843928,8.55307 L108.790098,8.84911 L108.817018,8.87602 C109.355278,8.86257 109.718608,8.84911 110.297238,8.84911 C110.902778,8.84911 111.306478,8.86257 111.844738,8.87602 L111.858198,8.84911 L111.912018,8.56652 C111.925478,8.5127 111.898568,8.49924 111.844738,8.48578 L111.454498,8.45887 C110.983518,8.43196 110.943148,8.28394 111.050798,7.78604 L111.777458,4.16624 C111.885108,3.60106 111.938938,3.50686 112.450278,3.4665 L112.853978,3.43958 C112.907808,3.43958 112.948178,3.41267 112.961628,3.35884 L113.015458,3.07626 L113.001998,3.04934 C113.001998,3.04934 112.060038,3.07626 111.454498,3.07626 C111.077718,3.07626 110.472168,3.04934 110.472168,3.04934 L110.445258,3.07626 L110.377978,3.3723 C110.377978,3.42613 110.391428,3.43958 110.431798,3.43958 C110.889328,3.47995 110.848958,3.70871 110.795128,4.03167 L107.350258,7.36889 L107.996168,4.16624 C108.103818,3.61452 108.157648,3.50686 108.682448,3.4665 L109.086148,3.43958 C109.139968,3.43958 109.180338,3.41267 109.193798,3.35884 L109.247628,3.07626 L109.220708,3.04934 C109.220708,3.04934 108.278758,3.07626 107.686668,3.07626 M116.683568,3.06249556 C114.382508,3.06249556 114.014308,4.29726 113.933568,4.6875 C113.745188,5.64292 114.630958,6.09375 115.371068,6.09375 L115.371068,6.15625 C114.980828,6.22353 114.457468,6.54204 114.121068,7.09375 C113.811568,7.59165 113.234388,8.42838 112.871068,8.46875 L112.746068,8.5 C112.692248,8.5 112.603258,8.49955 112.589818,8.59375 L112.527318,8.84375 L112.558568,8.875 L113.433568,8.875 C113.864178,8.86155 114.400538,8.31562 114.777318,7.65625 C115.275198,6.78158 115.770308,6.21875 116.308568,6.21875 L116.652318,6.21875 L116.308568,7.8125 C116.214368,8.3373 116.158878,8.44183 115.714818,8.46875 L115.496068,8.5 C115.442248,8.5 115.415768,8.53992 115.402318,8.59375 L115.371068,8.875 C115.371068,8.875 116.136648,8.84375 116.621068,8.84375 C117.092048,8.84375 117.839818,8.875 117.839818,8.875 L117.902318,8.59375 C117.902318,8.56684 117.884978,8.5 117.777318,8.5 L117.496068,8.46875 C117.280758,8.45528 117.241298,8.16237 117.308568,7.8125 L118.121068,3.875 C118.174888,3.59241 118.285098,3.4822 118.527318,3.46875 L118.871068,3.4375 C118.897978,3.4375 118.933568,3.43317 118.933568,3.40625 L118.996068,3.06249556 L118.964818,3.06249556 C118.964818,3.06249556 118.266088,3.06249556 117.808568,3.06249556 C117.377968,3.06249556 117.706268,3.06249556 116.683568,3.06249556 Z M116.558568,3.4375 C117.083378,3.4375 117.183998,3.50689 117.089818,3.9375 L116.746068,5.75 L115.839818,5.75 C115.072798,5.75 114.861508,5.20408 114.996068,4.53125 C115.130638,3.8988 115.401318,3.4375 116.558568,3.4375 Z" id="ky-tagline" fill="#000000" fill-rule="nonzero"></path>
    </g>
</svg>