<svg xmlns="http://www.w3.org/2000/svg" width="120" height="32" viewBox="0 0 120 32">
  <defs>
    <clipPath id="a">
      <path fill="#fff" d="M0 0h120v32H0z"/>
    </clipPath>
  </defs>
  <g clip-path="url(#a)">
    <path fill="#fff" d="M0 0h120v32H0z"/>
    <path d="M10.495 12.526s-.358-.729-.48-.971c-.814-1.613-.797-1.7-1.62-1.809-.23-.03-.35-.06-.35-.173v-.511l.07-.05c1.487-.002 4.796-.002 4.796-.002l.127.042v.509c0 .116-.083.176-.252.176l-.347.05c-.88.068-.736.427-.152 1.59l5.544 11.342.19.052 4.92-11.68c.172-.47.145-.804-.074-1-.221-.191-.376-.305-.947-.329l-.462-.022a.266.266 0 0 1-.162-.06.168.168 0 0 1-.077-.142v-.486l.07-.05h5.56l.057.05v.486c0 .132-.075.199-.223.199-.729.032-1.269.19-1.618.472-.35.284-.624.675-.82 1.185 0 0-4.527 10.358-6.075 13.803-.593 1.128-1.176 1.025-1.689-.033-1.083-2.23-4.132-8.996-4.132-8.996l-1.854-3.642Z"/>
    <path d="M19.378 9.004s-3.128-.01-4.52 0l-.07.05v.484c0 .06.025.107.076.143a.267.267 0 0 0 .161.058l.224.024c.57.023.83.173.909.266.136.166.203.345-.126 1.063l-5.84 11.648-.153-.04s-4.182-8.82-5.393-11.77c-.126-.305-.182-.532-.182-.672 0-.3.27-.462.811-.484l.63-.027c.168 0 .253-.064.253-.198v-.484l-.057-.05s-5.01-.006-6.044 0L0 9.065v.509c0 .091.116.148.35.173.635.035 1.053.136 1.254.305.2.171.412.603.694 1.275 1.52 3.652 4.75 10.17 6.323 13.881.454 1.014 1.023 1.171 1.714-.031 1.197-2.22 4.443-9.001 4.443-9.001l2.557-4.781c.297-.506.585-.956.73-1.165.267-.384.416-.456 1.144-.49.149 0 .224-.067.224-.2v-.485l-.055-.05Zm87.98 15.967.736.052a.2.2 0 0 1 .203.202v.483l-.051.052s-2.767-.052-3.377-.052c-.661 0-2.286.052-2.286.052l-.051-.052v-.483c0-.126.076-.202.204-.202 1.118-.076 1.751-.28 2.462-1.905l5.635-13.203c.278-.66.482-.915.865-.915.354 0 .481.255.684.763l5.204 13.76c.357.992.865 1.371 1.881 1.473l.278.024c.128 0 .255.076.255.204v.48l-.076.053s-1.955-.052-2.946-.052c-.889 0-3.378.052-3.378.052l-.023-.052v-.48c0-.13.051-.205.18-.205l.711-.051c.964-.076 1.322-.382 1.067-1.091l-1.549-4.293h-5.283c-.609 0-.762.102-.887.43l-1.474 3.682c-.254.639.076 1.198 1.016 1.274Zm6.22-6.45-2.463-6.778h-.051l-2.539 6.449c-.101.256.076.33.634.33l4.419-.001ZM99.034 17.4c0-.962-.115-1.558-.346-1.789-.222-.238-.735-.385-1.537-.44-.064-.08-.096-.215-.096-.406 0-.199.032-.33.096-.393a152.7 152.7 0 0 0 2.837.047c.453 0 1.362-.016 2.729-.047.064.063.096.194.096.393.008.19-.024.326-.096.405-.778.064-1.267.207-1.466.43-.191.222-.286.822-.286 1.8v5.9c0 2.686-.715 4.6-2.146 5.745-.699.588-1.561.878-2.586.87-.31 0-.632-.115-.966-.345-.334-.223-.5-.513-.5-.87 0-.23.103-.43.31-.596.198-.16.389-.239.572-.239.469 0 .858.207 1.168.62.199.278.41.413.632.405 1.056 0 1.585-1.692 1.585-5.078V17.4Zm-5.876 0v5.268c0 .977.095 1.581.286 1.812.198.222.691.361 1.478.417.08.08.119.219.119.417 0 .191-.04.318-.12.382a157.253 157.253 0 0 0-2.717-.048c-.453 0-1.363.016-2.73.048-.063-.064-.095-.191-.095-.382 0-.198.032-.337.095-.417.779-.063 1.264-.207 1.454-.43.2-.222.299-.822.299-1.799v-5.269c0-.977-.1-1.577-.299-1.8-.19-.23-.675-.373-1.454-.429-.063-.08-.095-.214-.095-.405 0-.199.032-.33.095-.393 1.399.031 2.3.047 2.706.047.453 0 1.367-.016 2.742-.047.08.063.119.194.119.393 0 .19-.04.326-.12.405-.778.064-1.267.207-1.465.43-.2.222-.298.822-.298 1.8Zm-13.875 6.388c0 .39.119.672.357.847.247.175.803.262 1.67.262 1.43 0 2.486-.314 3.17-.942.683-.627 1.025-1.756 1.025-3.385a10.7 10.7 0 0 0-.155-1.931 5.614 5.614 0 0 0-.62-1.693c-.31-.564-.79-1-1.442-1.31-.652-.31-1.466-.466-2.444-.466-1.04 0-1.561.255-1.561.763v7.855Zm-.978-9.369c.143 0 .664-.008 1.562-.024.898-.015 1.458-.023 1.68-.023 1.971 0 3.477.536 4.518 1.609s1.562 2.463 1.562 4.172c0 1.025-.167 1.915-.5 2.67-.335.747-.792 1.32-1.372 1.716a6.376 6.376 0 0 1-1.811.883 7.39 7.39 0 0 1-2.05.274c-.748 0-1.49-.008-2.23-.024a98.572 98.572 0 0 0-1.335-.024c-.453 0-1.363.016-2.73.048-.079-.064-.119-.191-.119-.382 0-.198.04-.337.12-.417.778-.063 1.263-.207 1.454-.43.198-.222.298-.822.298-1.799v-5.269c0-.977-.1-1.577-.298-1.8-.191-.23-.676-.373-1.455-.429-.079-.08-.119-.214-.119-.405 0-.199.04-.33.12-.393 1.398.031 2.3.047 2.705.047Zm-9.071 5.734h-1.395v3.66c0 .246.076.488.227.727.159.238.346.357.56.357h2.026c1.272 0 2.15-.89 2.635-2.67a.861.861 0 0 1 .68.095c-.231 1.335-.474 2.46-.728 3.374a91.462 91.462 0 0 0-2.587-.048h-3.766c-1.137.016-2.046.032-2.73.048-.08-.064-.12-.191-.12-.382 0-.198.04-.337.12-.417.779-.063 1.264-.206 1.454-.43.199-.222.298-.822.298-1.799v-5.269c0-.977-.099-1.577-.298-1.8-.19-.23-.675-.373-1.454-.429-.08-.08-.12-.214-.12-.405 0-.199.04-.33.12-.393l2.706.047h5.054a8.11 8.11 0 0 0 1.001-.095c.048 0 .072.024.072.072.111.389.258 1.358.44 2.908a1.356 1.356 0 0 1-.655.12c-.262-.811-.532-1.38-.81-1.705-.278-.326-.767-.49-1.466-.49h-1.872c-.23 0-.421.06-.572.18-.143.119-.215.286-.215.5v3.47h1.395c.358 0 .632-.02.823-.06.198-.048.357-.084.476-.108.127-.024.215-.115.263-.274a2.61 2.61 0 0 0 .083-.358c.008-.071.02-.262.036-.572.063-.063.175-.095.334-.095.166 0 .282.032.345.095-.032.81-.047 1.387-.047 1.729 0 .246.015.842.047 1.788-.063.063-.179.095-.345.095-.16 0-.27-.032-.334-.095-.032-.557-.104-.902-.215-1.037-.206-.223-.695-.334-1.466-.334Zm-12.79-3.874v3.802c.453.183.981.274 1.585.274 1.399 0 2.098-.905 2.098-2.717 0-1.645-.739-2.468-2.217-2.468-.572 0-.961.084-1.168.25-.199.168-.298.454-.298.859Zm0 6.389c0 .977.095 1.581.286 1.812.199.222.691.361 1.478.417.08.08.12.219.12.417 0 .191-.04.318-.12.382a157.242 157.242 0 0 0-2.718-.048c-.453 0-1.363.016-2.73.048-.063-.064-.095-.191-.095-.382 0-.198.032-.337.096-.417.778-.063 1.263-.207 1.454-.43.199-.222.298-.822.298-1.799v-5.269c0-.977-.1-1.577-.298-1.8-.19-.23-.676-.373-1.454-.429-.064-.08-.096-.214-.096-.405 0-.199.032-.33.096-.393 1.398.031 2.3.047 2.706.047.198 0 .596-.008 1.191-.024a56.958 56.958 0 0 1 1.395-.023c1.566 0 2.654.298 3.266.894.62.588.93 1.283.93 2.086 0 .93-.346 1.796-1.037 2.598-.691.803-1.768 1.204-3.23 1.204-.588 0-1.101-.095-1.538-.286v1.8ZM49.101 17.4v5.268c0 .977.096 1.581.286 1.812.199.222.692.361 1.478.417.08.08.12.219.12.417 0 .191-.04.318-.12.382a157.253 157.253 0 0 0-2.717-.048c-.453 0-1.363.016-2.73.048-.064-.064-.096-.191-.096-.382 0-.198.032-.337.096-.417.779-.063 1.263-.207 1.454-.43.199-.222.298-.822.298-1.799v-5.269c0-.977-.1-1.577-.298-1.8-.19-.23-.675-.373-1.454-.429-.064-.08-.096-.214-.096-.405 0-.199.032-.33.096-.393 1.398.031 2.3.047 2.706.047.453 0 1.367-.016 2.741-.047.08.063.12.194.12.393 0 .19-.04.326-.12.405-.778.064-1.267.207-1.466.43-.199.222-.298.822-.298 1.8Zm-15.448 0c0-.978-.1-1.574-.298-1.789-.19-.222-.676-.37-1.454-.44-.064-.08-.096-.215-.096-.406 0-.199.032-.33.096-.393 1.366.031 2.276.047 2.73.047.158 0 .94-.016 2.347-.047.064.063.096.194.096.393 0 .19-.032.326-.096.405-.62.064-1.009.207-1.168.43-.15.222-.226.822-.226 1.8v2.169c.779 0 1.633-.52 2.563-1.562 1.208-1.367 1.752-2.209 1.633-2.527-.072-.175-.314-.278-.727-.31-.08-.08-.12-.214-.12-.405 0-.199.04-.33.12-.393 1.398.031 2.292.047 2.682.047.262 0 .834-.016 1.716-.047.08.063.12.194.12.393 0 .19-.04.326-.12.405-1.208.064-2.082.406-2.622 1.025l-2.098 2.42c-.374.39-.56.692-.56.906 0 .095.075.235.226.417l3.612 4.244c.341.39.862.628 1.561.715.064.08.096.21.096.393 0 .175-.032.302-.096.382a99.604 99.604 0 0 0-1.883-.024c-.652 0-1.156.016-1.514.048v-.346c0-.373-.123-.695-.37-.966l-2.705-3.373c-.31-.405-.815-.608-1.514-.608v2.265c0 .977.075 1.577.226 1.8.16.215.549.358 1.168.43.064.079.096.218.096.416 0 .191-.032.318-.096.382a229.262 229.262 0 0 0-2.348-.048c-.453 0-1.363.016-2.73.048-.063-.064-.095-.191-.095-.382 0-.198.032-.337.096-.417.778-.063 1.263-.207 1.454-.43.199-.222.298-.822.298-1.799v-5.269Zm-5.46 0v5.268c0 .977.096 1.581.286 1.812.199.222.692.361 1.478.417.08.08.12.219.12.417 0 .191-.04.318-.12.382a157.259 157.259 0 0 0-2.717-.048c-.453 0-1.363.016-2.73.048-.064-.064-.095-.191-.095-.382 0-.198.031-.337.095-.417.779-.063 1.263-.207 1.454-.43.199-.222.298-.822.298-1.799v-5.269c0-.977-.1-1.577-.298-1.8-.19-.23-.675-.373-1.454-.429-.064-.08-.095-.214-.095-.405 0-.199.031-.33.095-.393 1.398.031 2.3.047 2.706.047.453 0 1.367-.016 2.741-.047.08.063.12.194.12.393 0 .19-.04.326-.12.405-.778.064-1.267.207-1.466.43-.198.222-.298.822-.298 1.8Z"/>
  </g>
</svg>
