<svg xmlns="http://www.w3.org/2000/svg" width="131" height="12"><path fill="#000" fill-rule="nonzero" d="m75.47 3.542-.994 4.276c-.108.435-.163.788-.163.922 0 .15.151.191.177.191.15 0 .368-.298.722-.828l.314.218c-.138.23-.273.434-.41.61a1.924 1.924 0 0 0-.136.652c0 .244.028.42.054.57.041.176.068.34.068.544 0 .366-.136.8-1.418 1.303l-.15-.38c.396-.191.777-.395.777-.8 0-.082-.013-.192-.013-.355 0-.312.081-.623.231-.99a1.168 1.168 0 0 1-.654.203c-.464 0-.587-.353-.587-.61 0-.164.042-.476.151-.855l.204-.761-.041-.026c-.967 1.41-1.499 2.252-2.71 2.252-.518 0-.913-.312-.913-1.086 0-.258.04-.557.135-.91l.614-2.32c.124-.448.15-.68.15-.815 0-.15-.082-.19-.177-.19-.151 0-.409.258-.831.747l-.3-.232c.477-.65 1.24-1.289 1.855-1.29.464 0 .559.176.559.502 0 .258-.095.706-.217 1.168l-.587 2.24a3.67 3.67 0 0 0-.137.882c0 .447.178.597.422.597.68 0 1.376-1.018 2.384-2.728l.6-2.58c.15 0 .736-.066 1.021-.121zm-14.95 0c1.266 0 1.92.978 1.92 2.146 0 1.86-1.54 4.018-3.528 4.018-.94 0-1.513-.475-1.513-1.086 0-.53.396-.61.49-.61.124 0 .369.04.369.42v.15c0 .422.313.706.83.706 1.186 0 1.99-1.505 2.235-2.565-.313.163-.79.38-1.185.38-.559 0-.831-.368-1.28-.368-.15 0-.3.068-.396.068-.082 0-.068-.122-.054-.176.054-.205.68-.45 1.226-.45.572 0 .722.26 1.212.26.191 0 .382-.028.545-.096.028-.216.055-.447.055-.678 0-.841-.26-1.696-1.158-1.696-1.022 0-1.458.773-1.826 1.601l-.327-.055c.204-.598.354-1.059.559-1.805.885 0 .913-.163 1.825-.163zm-48.933 0c1.24 0 1.485.584 1.485.978 0 .693-.763 1.1-2.344 1.643 1.376.068 1.703 1.085 1.703 1.656 0 1.018-1.09 1.887-2.547 1.887-1.417 0-2.112-.72-2.112-2.146 0-1.044.382-1.981 1.13-2.796.764-.813 1.65-1.221 2.685-1.221zm91.729 0c.03 0 .055 0 .055.041l-.41 1.616-.026.122.015.014c1.253-1.467 1.976-1.752 2.683-1.752.531 0 .913.272.913 1.086 0 .244-.083.557-.192 1.03l-.517 2.213c-.11.49-.137.666-.137.802s.056.244.15.244c.204 0 .477-.258.94-.801l.314.258c-.79.963-1.377 1.262-1.88 1.262-.314 0-.613-.19-.613-.556 0-.272.04-.544.176-1.1l.533-2.213c.109-.462.15-.733.15-.923 0-.42-.206-.638-.492-.638-.488 0-1.13.463-2.165 1.834l-.776 3.297-.994.327-.068-.163 1.007-4.356c.055-.245.081-.407.081-.53 0-.23-.081-.298-.204-.311l-.572-.056.04-.326c.995-.149 1.568-.271 1.989-.42zm-18.072 0c.028 0 .054 0 .054.041 0 0-.246.923-.41 1.616l-.23 1.033c.9-.014 1.43-.543 1.894-1.277.395-.638.993-1.37 1.662-1.37.436 0 .586.176.586.42 0 .447-.409.719-.668.719-.423 0-.313-.231-.627-.23-.136 0-.41.298-.653.72-.341.582-.777 1.152-1.405 1.247.737 0 1.2.285 1.335.95.095.516.355 1.683.859 1.751l.095.014c.07.013.136.027.136.108l-.067.258-.028.026-.94-.026c-.613-.014-.9-.977-1.008-1.534-.136-.72-.3-1.221-1.28-1.317l-.6 2.687-.995.327-.067-.163 1.022-4.356c.055-.245.082-.407.082-.53 0-.23-.082-.298-.205-.311l-.571-.056.04-.326c.994-.149 1.567-.271 1.989-.42zm-19.95 0c.027 0 .055 0 .055.041 0 0-.246.923-.41 1.616l-.204.935h2.423l.545-2.428c.15 0 .736-.068 1.022-.109l-.994 4.247c-.108.435-.164.788-.164.923 0 .15.151.191.178.191.19 0 .408-.298.776-.827l.26.216c-.492.856-1.022 1.358-1.65 1.358-.476 0-.57-.353-.57-.612 0-.162.054-.474.122-.854l.354-1.574h-2.425l-.613 2.713-.995.327-.068-.163 1.023-4.356c.054-.245.082-.407.082-.53 0-.23-.082-.298-.205-.311l-.572-.056.04-.326c.996-.149 1.568-.271 1.99-.42zm-10.602.148.014.027-.068.326c-.014.028-.027.04-.068.04h-.34c-.328 0-.355.124-.423.409l-.79 3.352c-.11.435-.164.788-.164.923 0 .15.15.191.177.191.191 0 .409-.298.777-.827l.259.216c-.49.856-1.022 1.358-1.649 1.358-.477 0-.586-.353-.586-.612 0-.162.055-.474.137-.854l.3-1.344h-.41c-.544 0-1.021.693-1.498 1.507-.313.556-.858 1.14-1.294 1.14l-.859.012-.04-.029.054-.256c.027-.096.109-.109.177-.109h.095c.41 0 1.05-.95 1.376-1.466.341-.556.695-.843 1.09-.924-.545 0-1.43-.298-1.43-1.112 0-.081.014-.19.027-.299.245-1.004 1.294-1.656 2.316-1.656l1.608.014 1.212-.027zM25.49.067c-.504 1.44-1.35 1.955-2.466 2.064-1.172.109-1.567.462-2.14 1.317-.258.393-.49.95-.626 1.465.395-.57 1.063-1.371 2.262-1.371 1.376 0 1.866.936 1.866 2.023 0 2.158-1.663 4.14-3.474 4.14-.995 0-1.867-.612-1.867-2.146 0-1.981 1.594-6.19 4.238-6.406 1.062-.08 1.648-.38 1.934-1.086h.273zM130.985 3.69l.015.027-.067.326c-.014.028-.028.04-.07.04h-.339c-.327 0-.354.124-.422.409l-.79 3.352c-.11.435-.163.788-.163.923 0 .15.15.191.176.191.191 0 .409-.298.777-.827l.259.216c-.49.856-1.021 1.358-1.648 1.358-.478 0-.587-.353-.587-.612 0-.162.055-.474.137-.854l.3-1.344v-.003h-.411c-.546 0-1.023.692-1.5 1.507-.312.556-.859 1.14-1.294 1.14l-.858.015-.04-.029.055-.256c.026-.096.109-.109.176-.109h.096c.41 0 1.048-.95 1.376-1.466.341-.556.695-.843 1.09-.924-.545 0-1.43-.298-1.43-1.112 0-.081.012-.19.027-.299.245-1.004 1.293-1.656 2.316-1.656l1.608.014 1.211-.027zm-92.307-.147c.027 0 .054 0 .054.04 0 0-.245.923-.408 1.616l-.205.935h2.425l.545-2.428c.15 0 .736-.068 1.022-.109l-.994 4.247c-.11.435-.164.788-.164.923 0 .15.15.191.177.191.19 0 .409-.298.777-.827l.259.216c-.49.856-1.022 1.358-1.649 1.358-.477 0-.572-.353-.572-.612 0-.162.054-.474.122-.854l.355-1.574h-2.425l-.613 2.713-.995.327-.068-.163 1.022-4.356c.054-.245.081-.407.081-.53 0-.23-.081-.298-.204-.311l-.572-.056.04-.326c.995-.149 1.567-.271 1.99-.42zM32.01 0c.886.501 1.908.365 2.916 1.954.559.842.804 1.805.817 2.824 0 1.683-.68 3.256-1.525 4.018-.518.475-1.036.909-2.044.909-1.199 0-1.69-1.018-1.69-2.09 0-1.697 1.022-3.054 2.017-3.597.627-.34 1.172-.475 1.458-.475.327 0 .654.055.899.244.027-.122.027-.23.027-.34 0-1.506-.98-1.71-2.125-2.103-.64-.218-.818-.706-.818-1.14 0-.123.028-.204.055-.204h.013zm82.395 0c.885.501 1.907.365 2.915 1.954.558.842.803 1.805.818 2.824 0 1.683-.681 3.256-1.527 4.018-.517.475-1.034.909-2.043.909-1.199 0-1.69-1.018-1.69-2.09 0-1.697 1.024-3.054 2.018-3.597.627-.34 1.172-.475 1.458-.475.327 0 .653.055.897.244.027-.122.027-.23.027-.34 0-1.506-.98-1.71-2.125-2.103-.64-.218-.816-.706-.816-1.14 0-.123.027-.204.054-.204h.014zM46.223 3.583c.545 0 .723.041 1.09.082.274.068.628.026.954.026l-.94 4.221c-.054.26-.136.707-.136.828 0 .164.122.191.163.191.136 0 .395-.285.763-.787l.314.217c-.355.57-1.009 1.317-1.744 1.317-.464 0-.559-.353-.559-.61 0-.164.041-.42.136-.747l.218-.706-.027-.027c-.817 1.208-1.621 2.09-2.343 2.09-1.145 0-1.322-1.071-1.322-1.833 0-2.13 1.976-4.262 3.433-4.262zm78.446-.041-.995 4.276c-.108.435-.163.788-.163.922 0 .15.15.191.177.191.15 0 .367-.298.721-.828l.314.218c-.49.855-1.021 1.357-1.648 1.357-.463 0-.586-.353-.586-.61 0-.164.041-.476.15-.855l.204-.761-.04-.026c-.969 1.41-1.5 2.252-2.713 2.252-.516 0-.912-.312-.912-1.086 0-.258.041-.557.137-.91l.613-2.32c.123-.448.15-.68.15-.815 0-.15-.081-.19-.177-.19-.15 0-.41.258-.832.747l-.298-.232c.477-.65 1.24-1.289 1.853-1.289.462 0 .558.177.558.5 0 .26-.096.707-.219 1.169l-.586 2.24a3.67 3.67 0 0 0-.136.882c0 .447.177.597.422.597.682 0 1.375-1.018 2.385-2.728l.598-2.58c.151 0 .737-.066 1.023-.121zm-42.516 0-.994 4.276c-.11.435-.164.788-.164.922 0 .15.151.191.177.191.15 0 .368-.298.723-.828l.313.218c-.49.855-1.02 1.357-1.648 1.357-.465 0-.586-.353-.586-.61 0-.164.041-.476.15-.855l.204-.761-.041-.026c-.967 1.41-1.5 2.252-2.711 2.252-.518 0-.913-.312-.913-1.086 0-.258.04-.557.136-.91l.613-2.32c.124-.448.15-.68.15-.815 0-.15-.08-.19-.176-.19-.15 0-.41.258-.831.747l-.3-.232c.477-.65 1.24-1.289 1.853-1.289.464 0 .559.177.559.5 0 .26-.096.707-.218 1.169l-.586 2.24a3.628 3.628 0 0 0-.137.882c0 .447.178.597.422.597.68 0 1.376-1.018 2.383-2.728l.6-2.58c.15 0 .736-.066 1.022-.121zm28.992.041c1.104 0 1.35.475 1.35.95 0 .516-.096 1.616-3.652 2.308-.014.11-.014.394-.015.463 0 1.234.518 1.722 1.132 1.722.653 0 1.104-.379 1.838-1.166.164 0 .232.067.301.216-.764 1.046-1.527 1.602-2.63 1.602-1.39 0-1.77-.91-1.77-2.063 0-1.724 1.116-4.032 3.446-4.032zm-12.603.001c1.676 0 1.921 1.221 1.921 2.198 0 2.145-1.621 3.896-3.365 3.896-1.73 0-1.907-1.615-1.907-2.334 0-1.63 1.076-3.76 3.351-3.76zM5.177.61c1.608 0 2.003.57 2.739.612a22.297 22.297 0 0 0-.123 2.104l-.395.054c-.11-1.166-.654-2.267-2.466-2.267-1.036 0-3.106 1.14-3.651 3.896a6.566 6.566 0 0 0-.11 1.14c0 1.589.682 2.973 2.317 2.973 1.212 0 2.193-.421 3.324-1.48.15 0 .218.081.259.203-1.117 1.209-2.412 1.833-3.679 1.833C1.022 9.678 0 8.076 0 6.27c0-.34.027-.665.095-1.006C.613 2.591 3.011.61 5.177.61zm11.476 2.974c1.676 0 1.92 1.221 1.92 2.198 0 2.145-1.62 3.896-3.364 3.896-1.73 0-1.908-1.615-1.908-2.334 0-1.63 1.077-3.76 3.352-3.76zm11.428 0c1.676 0 1.921 1.221 1.921 2.198 0 2.145-1.62 3.896-3.365 3.896-1.73 0-1.907-1.615-1.907-2.334 0-1.63 1.076-3.76 3.351-3.76zm66.917.108.026.027-.067.273c-.014.068-.041.094-.123.094h-.354c-.477 0-.559.122-.655.638l-.614 3.188c-.097.49-.123.666-.123.802s.041.244.135.244c.205 0 .477-.258.942-.801l.313.258c-.805.963-1.377 1.262-1.881 1.262-.314 0-.612-.19-.612-.556 0-.272.053-.53.176-1.1l.681-3.121a1.58 1.58 0 0 0 .056-.381c0-.204-.11-.272-.424-.272h-.72c-.478 0-.614.408-.914 1.684-.259 1.112-.586 2.24-.858 2.768-.299.639-.75.978-1.267.978-.38 0-.708-.284-.708-.611 0-.027 0-.068.014-.095.054-.272.244-.489.503-.489.206 0 .328.163.328.353 0 .014 0 .041-.014.055-.014.176.028.312.137.312.121 0 .272-.136.436-.474.244-.463.53-1.277.857-2.702.177-.773.273-1.236.273-1.52 0-.366-.164-.421-.573-.421-.218 0-.271 0-.244-.122l.055-.244.04-.027s.79.027 1.307.027h2.467c.545 0 1.405-.027 1.405-.027zM10.265 6.435c-.368 0-.763.107-1.24.297-.204.463-.204 1.047-.204 1.495 0 1.03.64 1.208 1.05 1.208.857 0 1.416-.816 1.416-1.712 0-.583-.395-1.29-1.022-1.288zm12.02-2.444c-1.389 0-2.22 1.981-2.22 3.542 0 1.045.395 1.738 1.185 1.738 1.268 0 2.071-1.982 2.071-3.61 0-.993-.327-1.67-1.035-1.67zm-5.877.041c-1.554 0-1.962 1.981-1.962 3.203 0 1.737.681 1.968 1.103 1.969 1.526 0 1.921-2.443 1.921-3.326 0-.868 0-1.846-1.062-1.846zm81.89 0c-1.553 0-1.963 1.981-1.963 3.203 0 1.737.681 1.968 1.104 1.969 1.527 0 1.922-2.443 1.922-3.326 0-.868 0-1.846-1.063-1.846zm-70.462 0c-1.553 0-1.962 1.981-1.962 3.203 0 1.737.681 1.968 1.104 1.969 1.526 0 1.92-2.443 1.92-3.326 0-.868 0-1.846-1.062-1.846zm5.81.026c-.913 0-2.03 1.237-2.043 3.407 0 .923.354 1.67.994 1.67 1.676 0 2.098-3.543 2.098-4.275 0-.639-.667-.802-1.049-.802zm82.397 0c-.913 0-2.03 1.237-2.044 3.407 0 .923.354 1.67.994 1.67 1.677 0 2.098-3.543 2.098-4.275 0-.639-.668-.802-1.048-.802zm-69.778-.055c-1.253 0-2.384 2.187-2.384 3.625 0 .76.136 1.303.6 1.303.436 0 1.485-1.14 2.152-2.362.34-.87.477-2.307.477-2.307a1.62 1.62 0 0 0-.845-.259zm64.568 0c-.654 0-1.458.422-1.934 2.472 1.049-.082 2.643-.667 2.643-1.956 0-.393-.22-.516-.709-.516zm-58.511.07c-1.172 0-1.717.76-1.826 1.249-.027.094-.04.189-.04.285 0 .434.23.813.871.813h1.008l.532-2.279a2.495 2.495 0 0 0-.545-.068zm76.294 0c-1.17 0-1.717.76-1.826 1.249-.026.094-.04.189-.04.285 0 .434.232.813.871.813h1.01l.53-2.279a2.48 2.48 0 0 0-.545-.068zm-117.138-.23c-.94 0-1.676.624-2.316 2.429 2.139-.517 2.956-.965 2.956-1.805 0-.191-.095-.626-.64-.625z"/></svg>