<svg xmlns="http://www.w3.org/2000/svg" viewBox="0 0 140 12"><path d="M.098 2.977q0-.644.527-1.235a1.73 1.73 0 0 1 1.352-.601c.473 0 .883.164 1.23.5q.532.487.531 1.46.002.466-.156.883c-.105.27-.219.5-.34.672q-.178.27-.547.7L1.641 6.612q-.773.96-.774 1.563h1.86q.28 0 .437-.27.156-.276.29-.972.197-.048.308.07c-.016.602-.098 1.28-.254 2.035a18 18 0 0 0-.813-.027H.867L0 9.039q0-.617.234-1.191.239-.574.957-1.48l.774-.942q.856-1.067.851-2.274 0-.843-.273-1.195-.276-.37-.633-.371c-.344 0-.605.086-.773.25-.172.164-.254.344-.254.543 0 .039.012.102.039.18s.043.12.043.125q.04.18.039.273-.001.195-.172.36-.17.155-.316.156a.38.38 0 0 1-.297-.145.53.53 0 0 1-.121-.351m8.101 3.597c0-.672-.113-1.17-.34-1.48q-.329-.48-.867-.48-.66.001-1.328.308l.352-3.715q.608.06 1.125.059c.418 0 .988-.043 1.71-.137l.079.05-.168.876q-.647.074-1.094.074-.356.002-1.223-.113l-.21 2.156a2.4 2.4 0 0 1 1.023-.207q.85 0 1.355.7.516.691.516 1.675c0 .82-.207 1.5-.621 2.023q-.62.797-1.598.797c-.316 0-.645-.102-.977-.297q-.497-.304-.496-.672a.5.5 0 0 1 .114-.336q.124-.146.277-.144c.188 0 .363.137.535.414a1 1 0 0 0 .063.11c.03.05.054.097.07.124q.026.037.074.102c.035.04.067.074.094.094q.041.03.102.082a.4.4 0 0 0 .132.054.6.6 0 0 0 .153.016c.32 0 .59-.207.808-.613q.34-.619.34-1.52zm8.309-.566-.828.27c-.664.206-.988.68-.989 1.421q0 .345.188.633.193.284.562.285c.37.001.551-.188.918-.562a.42.42 0 0 0 .149-.332zm0 2.39h-.024l-.207.2c-.23.227-.422.367-.566.437q-.22.105-.57.106-.595.002-.957-.336-.356-.33-.356-1.059-.001-.64.473-1.133.473-.492 1.246-.738l.898-.27q.061-.023.063-.152.001-1.681-.848-1.676-.345.001-.61.137-.257.133-.257.406.001.18.02.25a.7.7 0 0 1 .03.235c0 .097-.038.19-.124.289a.42.42 0 0 1-.332.14c-.242 0-.367-.152-.364-.457 0-.352.184-.68.543-.976q.543-.452 1.18-.453c1.05 0 1.57.727 1.574 2.18v1.921c0 .25.008.438.016.57q.013.194.113.364a.31.31 0 0 0 .29.164.3.3 0 0 0 .218-.098q.09-.104.102-.101.03-.001.082.074c.052.075.054.098.054.14q.001.036-.109.176c-.07.086-.184.18-.324.27a.87.87 0 0 1-.453.133c-.414.004-.684-.246-.801-.742m4.183-4.003c.512-.7 1.08-1.05 1.715-1.047q.593 0 .867.441.276.466.278 1.727V7.44q0 .76.117.942.124.175.582.234.04.051.04.207 0 .152-.04.215c-.598-.015-.969-.027-1.11-.027-.124 0-.476.012-1.062.027q-.04-.047-.039-.2-.001-.16.04-.222c.284-.03.46-.113.534-.234q.112-.18.114-.942V5.477q-.001-.687-.125-.993-.198-.469-.555-.468c-.422 0-.848.254-1.27.761a.9.9 0 0 0-.18.543v2.122q-.002.761.102.94.106.177.524.235c.035.043.05.113.05.223q.007.152-.05.2c-.586-.016-.926-.028-1.028-.028-.195 0-.578.012-1.152.027q-.04-.046-.039-.199c0-.109.012-.18.04-.223.323-.03.526-.109.612-.226.078-.117.121-.434.121-.95V4.923c0-.363-.043-.586-.12-.68q-.119-.144-.563-.195a.7.7 0 0 1-.02-.363q.813-.129 1.317-.375c.05 0 .094.031.125.101q.081.234.082.985.006.158.093 0zm6.215 0q.766-1.05 1.711-1.047.598 0 .867.441.281.466.282 1.727V7.44q0 .76.117.942.125.175.578.234.042.051.043.207a.4.4 0 0 1-.043.215c-.594-.015-.961-.027-1.102-.027-.125 0-.48.012-1.066.027q-.04-.047-.04-.2 0-.16.04-.222c.285-.03.465-.113.535-.234q.112-.18.113-.942V5.477q0-.687-.12-.993-.202-.469-.555-.468-.639 0-1.278.761a.9.9 0 0 0-.18.543v2.122q0 .761.106.94.106.177.523.235c.036.043.051.113.051.223q.007.152-.05.2c-.583-.016-.927-.028-1.028-.028-.195 0-.578.012-1.152.027q-.042-.046-.043-.199c0-.109.016-.18.043-.223.328-.03.527-.109.61-.226q.12-.176.12-.95V4.923c0-.363-.039-.586-.12-.68q-.12-.144-.56-.195a.66.66 0 0 1-.019-.363q.814-.129 1.313-.375c.054 0 .097.031.129.101q.08.234.078.985c.007.105.035.105.097 0zm5.235-3.118q0-.228.175-.421c.121-.13.242-.191.368-.192.133 0 .246.07.347.215a.76.76 0 0 1 .153.45.64.64 0 0 1-.168.421q-.165.206-.371.207c-.13 0-.242-.074-.348-.215a.78.78 0 0 1-.156-.465m.949 6.164c0 .516.043.832.125.958q.128.176.625.218c.035.043.055.113.055.223q-.001.152-.055.2c-.598-.016-.98-.028-1.156-.028-.191 0-.582.012-1.172.027q-.041-.047-.04-.2-.001-.16.04-.222c.336-.03.543-.109.629-.226s.129-.434.129-.95V4.922c0-.363-.043-.586-.125-.68q-.117-.144-.555-.195a.66.66 0 0 1-.02-.363c.645-.11 1.12-.23 1.426-.375.094 0 .137.03.137.09q.001.03-.004.093a4 4 0 0 0-.012.242c0 .117-.008.23-.015.344-.004.11-.004.238-.012.387v.398zm8.27-.027V4.961q0-.294-.036-.418a.9.9 0 0 0-.14-.281q-.324-.467-.848-.461-.627.001-.973.64-.3.534-.3 1.715c0 .758.112 1.34.343 1.762.23.414.496.617.801.617q.41.002.984-.617c.113-.125.168-.289.168-.504m-.118.95c-.508.52-.945.776-1.305.777-.55 0-.98-.25-1.296-.758q-.474-.76-.473-1.992c0-.918.238-1.68.719-2.27q.656-.773 1.562-.773c.105 0 .22.015.348.058q.186.055.32.114c.09.03.141.05.149.05.058 0 .09-.043.093-.12V1.796c0-.277-.004-.484-.02-.617q-.015-.206-.132-.3-.112-.105-.172-.11c-.043-.008-.156-.016-.348-.032q-.116-.146-.062-.386Q41.557.264 42.09 0q.136-.001.136.133-.041.514-.046 1.355V7.34q0 .505.144.7.141.185.621.238c.031.043.051.102.051.183a.26.26 0 0 1-.05.168c-.587.086-1.01.254-1.266.512q-.115.04-.196 0a3 3 0 0 1-.113-.758.06.06 0 0 0-.016-.043c-.007-.012-.02-.02-.03-.02s-.028.004-.04.012c-.016.012-.027.024-.043.031zm3.293-7.087q0-.228.18-.421c.117-.13.238-.191.363-.192q.2-.001.348.215a.76.76 0 0 1 .152.45.64.64 0 0 1-.168.421q-.165.206-.37.207-.19-.002-.349-.215a.78.78 0 0 1-.156-.465m.953 6.165c0 .516.04.832.121.957q.128.176.625.218c.036.043.051.113.051.223q.001.152-.05.2c-.599-.016-.98-.028-1.157-.028-.19 0-.582.012-1.172.027q-.04-.046-.039-.199c0-.109.012-.18.04-.223.331-.03.542-.109.628-.226.082-.117.13-.434.13-.95V4.923c0-.363-.044-.586-.126-.68-.078-.097-.266-.16-.555-.195a.7.7 0 0 1-.02-.363c.646-.11 1.12-.23 1.427-.375q.139 0 .136.09 0 .03-.003.093a4 4 0 0 0-.012.243 10 10 0 0 1-.016.343c-.004.11-.004.238-.008.387v.398zm5.957-2.07 1.89-.04q.158 0 .157-.176c0-.492-.09-.84-.254-1.043q-.257-.313-.613-.312a.9.9 0 0 0-.27.043q-.135.046-.328.191-.194.14-.351.485c-.157.345-.18.516-.23.851m2.739 2.445q.178.01.218.203-.7 1.12-1.777 1.12c-.69 0-1.22-.272-1.594-.827q-.492-.697-.492-1.907c0-.91.223-1.65.664-2.199q.66-.837 1.422-.836c1.18 0 1.76.75 1.762 2.246q-.001.219-.196.22l-2.773-.024c0 .723.109 1.31.328 1.77.31.616.688.93 1.145.929q.438 0 .71-.152.284-.157.583-.543m3.109-3.422c.512-.7 1.08-1.05 1.715-1.047q.593 0 .867.441c.188.31.277.887.277 1.727v1.926q0 .76.118.941.124.175.582.234c.027.036.043.102.043.207a.4.4 0 0 1-.043.215c-.598-.015-.965-.027-1.106-.027-.125 0-.48.012-1.066.027q-.041-.046-.04-.199c0-.109.012-.18.04-.223.289-.03.465-.113.539-.234q.107-.181.11-.941V5.477q0-.687-.122-.992-.198-.469-.555-.47-.64 0-1.273.763a.9.9 0 0 0-.18.543v2.12c0 .509.031.82.102.942q.11.176.523.234c.035.043.051.113.051.223q.007.152-.05.2c-.583-.016-.927-.028-1.028-.028-.191 0-.578.012-1.152.027q-.041-.045-.04-.199c0-.109.012-.18.04-.223.328-.03.53-.109.613-.226q.121-.176.121-.95V4.923c0-.363-.04-.586-.121-.68q-.118-.144-.559-.195a.66.66 0 0 1-.023-.363q.816-.129 1.316-.375c.055 0 .094.031.125.101q.082.234.082.985.007.158.094 0zm8.45 3.445c-.247.504-.5.844-.774 1.031q-.404.27-.926.27c-.648 0-1.15-.254-1.52-.762q-.546-.774-.546-2.05c0-.872.223-1.58.656-2.145.438-.56.934-.836 1.484-.836q.74 0 1.168.34c.281.227.426.52.426.882a.56.56 0 0 1-.16.422.5.5 0 0 1-.348.153q-.357 0-.398-.47a2 2 0 0 0-.07-.44.67.67 0 0 0-.215-.31c-.105-.097-.262-.147-.461-.148q-.516 0-.856.61-.328.61-.328 1.66c0 .738.133 1.34.406 1.79q.409.674.989.675c.477 0 .898-.285 1.254-.852a.25.25 0 0 1 .218.18m1.808-6.563q-.001-.228.18-.421c.116-.13.237-.191.367-.192q.198-.001.343.215a.76.76 0 0 1 .153.45.64.64 0 0 1-.168.421q-.159.206-.371.207-.186-.002-.344-.215a.8.8 0 0 1-.16-.465m.953 6.165c0 .516.039.832.121.957.086.117.293.19.629.218.031.043.05.113.05.223q-.002.152-.05.2c-.598-.016-.984-.028-1.156-.028-.195 0-.586.012-1.172.027q-.042-.046-.043-.199c0-.109.015-.18.043-.223.332-.03.539-.109.625-.226s.125-.434.125-.95V4.923c0-.363-.04-.586-.121-.68q-.116-.144-.555-.195a.7.7 0 0 1-.02-.363c.646-.11 1.12-.23 1.426-.375q.136 0 .137.09.001.03-.004.093a3 3 0 0 0-.008.243q-.01.174-.015.343c-.004.11-.012.238-.012.387v.398zm5.648.398c-.242.504-.504.844-.773 1.031q-.403.27-.93.27-.968 0-1.515-.762-.546-.775-.547-2.05c0-.872.219-1.58.66-2.145.438-.56.934-.836 1.48-.836q.74 0 1.168.34.429.34.43.882 0 .27-.168.422a.5.5 0 0 1-.344.153q-.357 0-.398-.47a2 2 0 0 0-.07-.44.67.67 0 0 0-.215-.31q-.165-.146-.457-.148-.522 0-.856.61t-.332 1.66c0 .738.137 1.34.406 1.79q.407.674.989.675.72 0 1.254-.852a.26.26 0 0 1 .218.18m1.868-.398V1.797q0-.417-.024-.617-.017-.206-.133-.3-.112-.105-.172-.11c-.043-.008-.156-.016-.347-.032q-.117-.146-.059-.386c.617-.059 1.11-.176 1.461-.352q.139-.001.137.133c-.024.344-.043.793-.043 1.355v5.954q-.001.774.133.96.13.182.617.215c.027.043.043.113.043.223q-.001.152-.043.2c-.598-.016-.984-.028-1.16-.028-.191 0-.582.012-1.168.027q-.05-.045-.051-.199c0-.109.02-.18.05-.223.329-.015.536-.09.626-.214.085-.125.133-.445.132-.961zm2.742-1.075q.002-1.28.578-2.117c.414-.605.957-.902 1.637-.902q.745.002 1.261.46c.344.306.586.665.723 1.09q.204.63.203 1.356 0 1.347-.68 2.168a1.87 1.87 0 0 1-1.53.719c-.696 0-1.24-.277-1.618-.836-.383-.56-.574-1.21-.574-1.938m2.054-2.566c-.77 0-1.16.758-1.156 2.27 0 .276.028.558.074.843q.081.422.239.84c.105.273.254.5.445.672q.298.268.684.266c.309 0 .574-.152.812-.465q.353-.467.356-1.563 0-1.384-.387-2.12c-.262-.497-.613-.743-1.067-.743m5.16.941a1 1 0 0 0-.163.567V7.66q0 .236.023.368a.7.7 0 0 0 .063.199c.03.05.09.12.164.207.085.094.199.16.34.207q.22.065.398.066.42.001.723-.215c.203-.145.352-.336.457-.582.105-.242.176-.492.222-.75s.07-.539.07-.832q0-1.06-.363-1.722-.351-.666-.879-.664-.218-.001-.535.238-.31.24-.52.562m-.163-.48q0 .058.03.082c.02.008.04 0 .052-.024.445-.652.922-.973 1.433-.972.52 0 .961.262 1.313.789q.531.785.53 1.848 0 1.513-.769 2.437-.62.726-1.539.719-.508.002-.906-.195-.084-.05-.113-.04-.03.017-.031.133v1.395q0 .775.14.957c.094.125.336.199.715.222q.051.064.05.211.001.158-.05.211c-.594-.02-1.02-.023-1.262-.023-.195 0-.582.004-1.172.023q-.04-.053-.039-.21-.001-.147.04-.212c.323-.019.534-.09.62-.214q.134-.194.133-.965V4.922c0-.363-.043-.586-.12-.68-.079-.097-.267-.16-.555-.195a.66.66 0 0 1-.02-.363c.539-.086.98-.211 1.312-.375.055 0 .094.031.122.101q.086.235.086.852m5.675 1.11 1.891-.04q.158 0 .152-.176c0-.492-.082-.84-.254-1.043q-.257-.314-.613-.312-.135.001-.27.043a1.3 1.3 0 0 0-.324.191q-.194.14-.351.485c-.157.345-.184.516-.23.851m2.739 2.445q.176.01.218.203-.699 1.12-1.78 1.12c-.689 0-1.22-.272-1.595-.827q-.487-.697-.488-1.906c0-.91.223-1.65.664-2.2.438-.559.914-.836 1.418-.836q1.771.001 1.766 2.246-.001.219-.196.22l-2.777-.024c0 .723.113 1.31.332 1.77.305.616.688.93 1.14.929q.44 0 .716-.152.277-.157.582-.543m4.84-.403V4.961c0-.195-.008-.336-.036-.418a.8.8 0 0 0-.14-.281q-.322-.467-.844-.461-.627.001-.973.64c-.203.356-.3.927-.3 1.715 0 .758.112 1.34.34 1.762q.347.619.804.617c.27 0 .598-.203.984-.617.113-.125.164-.289.164-.504m-.114.95c-.512.52-.945.776-1.305.777q-.826.002-1.296-.758-.476-.76-.477-1.992c0-.918.238-1.68.719-2.27q.656-.774 1.562-.773c.105 0 .223.015.348.058q.186.055.32.114.139.048.149.05c.058 0 .093-.042.093-.12V1.796q.002-.416-.015-.617-.017-.206-.133-.3c-.078-.071-.133-.106-.176-.11q-.06-.01-.344-.031-.116-.147-.062-.387c.617-.059 1.11-.176 1.46-.352q.137-.001.138.133c-.028.344-.043.793-.047 1.356V7.34q.001.505.144.7c.094.124.305.202.621.238q.053.063.051.183.001.111-.05.168c-.583.086-1 .254-1.262.512q-.117.04-.2 0a3 3 0 0 1-.113-.758q0-.03-.015-.043-.007-.019-.032-.02a.1.1 0 0 0-.039.012.3.3 0 0 1-.039.032zm3.29-7.086a.62.62 0 0 1 .179-.422c.117-.13.242-.191.367-.192q.201-.001.344.215a.74.74 0 0 1 .152.45.64.64 0 0 1-.168.421q-.159.206-.37.207-.188-.002-.345-.215a.8.8 0 0 1-.16-.464m.952 6.164c0 .516.043.832.125.957q.123.176.625.218c.036.043.051.113.051.223q.001.152-.05.2c-.599-.016-.985-.028-1.157-.028-.195 0-.586.012-1.172.027q-.042-.045-.043-.199c0-.109.016-.18.043-.223.332-.03.54-.109.625-.226q.13-.176.13-.95V4.923c0-.363-.04-.586-.122-.68q-.118-.144-.558-.195a.7.7 0 0 1-.02-.363c.645-.11 1.12-.23 1.426-.375q.14 0 .14.09 0 .029-.007.094a3 3 0 0 0-.008.242c-.004.117-.008.23-.02.343q-.001.164-.008.387v.399zm4.555-1.434-.824.27q-.995.31-.988 1.422 0 .345.187.632a.64.64 0 0 0 .559.285q.368 0 .918-.562a.4.4 0 0 0 .148-.332zm0 2.39h-.02l-.21.2c-.23.227-.418.367-.567.437q-.218.105-.57.106-.594.002-.953-.336-.358-.33-.36-1.059-.001-.64.473-1.132.472-.492 1.25-.739l.895-.27q.063-.023.062-.152.002-1.681-.848-1.675-.347 0-.605.136-.258.133-.258.407.001.18.02.25c.023.05.03.129.03.234 0 .098-.042.19-.128.289a.42.42 0 0 1-.332.14q-.364 0-.36-.456 0-.53.54-.977.546-.452 1.18-.453c1.05 0 1.58.727 1.577 2.18V7.45q0 .374.012.57.019.193.113.363c.07.113.168.164.293.164a.3.3 0 0 0 .22-.097.5.5 0 0 1 .1-.102q.03-.001.083.074.053.077.054.14.002.036-.113.177c-.07.085-.18.18-.324.27a.84.84 0 0 1-.45.132q-.624.004-.804-.742m6.43-.956V1.797a8 8 0 0 0-.02-.617q-.016-.206-.133-.3c-.078-.071-.133-.106-.175-.11q-.061-.01-.344-.031-.116-.147-.063-.387c.617-.059 1.11-.176 1.465-.352q.134-.001.133.133c-.027.344-.04.793-.043 1.356v5.953q0 .774.129.96.134.182.625.215c.027.043.04.113.039.223q0 .152-.039.2c-.598-.016-.984-.028-1.16-.028-.195 0-.582.012-1.168.027q-.052-.045-.051-.199c0-.109.016-.18.05-.223.325-.015.532-.09.622-.214.086-.125.133-.445.133-.961zm3.254-6.164a.62.62 0 0 1 .18-.422c.12-.13.241-.191.367-.192q.198-.001.343.215a.74.74 0 0 1 .157.45.66.66 0 0 1-.168.421c-.113.137-.234.207-.375.207q-.188-.002-.348-.215a.78.78 0 0 1-.156-.464m.953 6.164c0 .516.043.832.12.957.087.117.294.19.63.218.035.043.05.113.05.223q.001.152-.05.2c-.598-.016-.984-.028-1.156-.028-.195 0-.582.012-1.172.027q-.043-.045-.043-.199c0-.109.015-.18.043-.223.332-.03.543-.109.625-.226q.129-.176.129-.95V4.923c0-.363-.043-.586-.121-.68q-.12-.144-.555-.195a.66.66 0 0 1-.024-.363c.648-.11 1.12-.23 1.426-.375q.141 0 .14.09 0 .03-.007.093c0 .036-.008.117-.012.243 0 .117-.007.23-.011.343l-.012.387v.399zm3.312-3.114q-.178.198-.175.543v3.227q.399.609.75.61.717 0 1.093-.716c.254-.48.38-1.1.38-1.87q0-.928-.344-1.563-.334-.645-.82-.645c-.337 0-.634.141-.884.414m-.07-.402q.52-.58 1.164-.578.718.001 1.285.71c.375.474.562 1.08.563 1.829 0 .965-.238 1.75-.723 2.352-.48.602-1.01.902-1.582.902-.406 0-.715-.105-.918-.317q-.085-.087-.148-.082-.053.002-.137.114a2 2 0 0 1-.094.12.6.6 0 0 1-.074.095l-.074.101c-.102 0-.176-.05-.23-.16q.04-.246.038-.914v-6.3q.001-.418-.015-.618c-.008-.137-.055-.238-.13-.3q-.115-.105-.179-.11c-.039-.008-.156-.016-.34-.032q-.118-.146-.07-.386c.617-.059 1.11-.176 1.465-.352q.136-.001.137.133c-.028.344-.043.793-.043 1.356v2.375c0 .117.039.14.105.062m5.3 1.445 1.891-.039q.157 0 .153-.176c0-.492-.082-.84-.254-1.043q-.257-.313-.613-.312-.135.001-.27.043a1.3 1.3 0 0 0-.324.191q-.194.14-.352.485-.16.347-.23.851m2.74 2.446q.175.01.218.203c-.47.746-1.06 1.12-1.781 1.12-.688 0-1.22-.272-1.594-.827q-.487-.697-.488-1.906c0-.91.223-1.65.66-2.2.44-.559.918-.836 1.422-.836q1.771.001 1.765 2.246 0 .219-.195.22l-2.777-.024c0 .723.113 1.31.332 1.77.305.616.688.93 1.14.929q.44 0 .715-.152.277-.157.582-.543m3.058-3.422c0 .043.008.07.015.09q.016.022.067-.067.21-.439.515-.754.309-.316.641-.316.3-.001.465.203.159.193.16.414a.7.7 0 0 1-.152.45q-.148.198-.336.198a.3.3 0 0 1-.149-.043c-.043-.035-.078-.062-.105-.093l-.098-.13-.074-.112q-.071-.084-.219-.086-.129 0-.48.629c-.164.312-.25.602-.25.863v1.8q0 .775.14.95.14.17.715.226c.035.043.055.113.055.223q-.001.152-.055.2c-.598-.016-1.02-.028-1.262-.028-.207 0-.605.012-1.19.027q-.043-.045-.044-.199c0-.109.016-.18.043-.223q.505-.038.64-.218c.09-.125.134-.441.134-.957v-2.52c0-.363-.04-.586-.122-.68q-.117-.144-.554-.195a.66.66 0 0 1-.024-.363q.819-.129 1.317-.375c.054 0 .093.031.12.101q.089.234.087.985m5.625 1.613-.825.27q-.995.31-.988 1.421 0 .345.188.633a.64.64 0 0 0 .562.285q.363 0 .914-.562a.41.41 0 0 0 .149-.332zm0 2.39h-.02l-.21.2c-.23.227-.419.367-.563.437q-.224.105-.57.106-.599.002-.962-.336-.356-.33-.355-1.059.002-.64.473-1.133.475-.492 1.25-.738l.898-.27q.06-.023.059-.152 0-1.681-.844-1.675-.345 0-.61.136-.257.133-.257.406a1 1 0 0 0 .02.25.7.7 0 0 1 .03.235c0 .098-.042.19-.128.289a.41.41 0 0 1-.332.14q-.364 0-.36-.456 0-.53.54-.977.543-.452 1.183-.453c1.05 0 1.57.727 1.574 2.18v1.921q-.001.374.016.57.01.194.11.364a.31.31 0 0 0 .288.164.28.28 0 0 0 .219-.098.4.4 0 0 1 .105-.101q.03-.001.082.074.055.076.055.14-.001.036-.113.176c-.07.086-.18.18-.324.27a.85.85 0 0 1-.45.133q-.629.004-.804-.742"/></svg>