<?xml version="1.0" encoding="UTF-8"?>
<svg width="120px" height="23px" viewBox="0 0 120 23" version="1.1" xmlns="http://www.w3.org/2000/svg" xmlns:xlink="http://www.w3.org/1999/xlink">
    <title>ltg-wordmark</title>
    <g id="Page-1" stroke="none" stroke-width="1" fill="none" fill-rule="evenodd">
        <path d="M13.3805175,2.57527918 C13.5610604,2.08196478 13.5400818,1.72660041 13.3194889,1.5104575 C13.098896,1.29431459 12.7111102,1.16844314 12.1529529,1.13347884 L11.7079528,1.10614312 C11.5636456,1.10614312 11.4924456,1.03367167 11.4924456,0.890000212 L11.4924456,0.364264372 L11.5458456,0.310228645 C12.8496959,0.345828654 13.8611176,0.364264372 14.5807463,0.364264372 L17.1299612,0.310228645 L17.1839969,0.364264372 L17.1839969,0.890000212 C17.1839969,1.01587167 17.1070755,1.08834312 16.954504,1.10614312 C16.2526753,1.15127885 15.7383823,1.32228603 15.409718,1.61916467 C15.0810536,1.91604331 14.8096035,2.34832913 14.5934606,2.91411498 L8.982645,17.8712043 C8.8110021,18.3034901 8.58595919,18.5189973 8.30815198,18.5189973 C8.03860906,18.5189973 7.82691615,18.3041258 7.67370897,17.8712043 L2.30637198,2.81875781 C2.1798648,2.47801488 2.07942192,2.22436482 2.00250048,2.06289335 C1.92557903,1.9020576 1.81115043,1.74185756 1.65857897,1.58420038 C1.50537179,1.42590748 1.3165646,1.31402174 1.0921574,1.24727173 C0.867114492,1.18052171 0.574685851,1.13220741 0.215507194,1.10487169 C0.0718357314,1.08707169 0,1.01523596 0,0.890000212 L0,0.363628658 L0.0540357272,0.309592931 C1.4926575,0.345828654 2.5714649,0.363628658 3.29109364,0.363628658 L6.4334301,0.309592931 L6.48746583,0.363628658 L6.48746583,0.890000212 C6.48746583,1.01587167 6.4156301,1.0877074 6.27195864,1.10487169 L5.79962281,1.15890742 C5.1518298,1.23137886 4.75005827,1.35025746 4.59240109,1.51681465 C4.43474391,1.6821004 4.43283677,1.9726219 4.58540823,2.386472 L8.94195927,14.6729249 L9.06338073,14.6729249 L13.3805175,2.57527918 Z M21.2366765,5.69600136 L21.2366765,16.6410968 C21.2366765,16.9595898 21.3269479,17.1833612 21.5081265,17.3111398 C21.6886694,17.437647 21.9976267,17.5196542 22.4369053,17.5546185 L22.9995126,17.5965756 C23.1133055,17.6105613 23.1692484,17.6684113 23.1692484,17.7663114 L23.1692484,18.1807972 L23.1266555,18.2221186 C22.4400839,18.1947829 21.5202051,18.1807972 20.3663834,18.1807972 C19.2348117,18.1807972 18.3136615,18.1947829 17.606747,18.2221186 L17.5641542,18.1807972 L17.5641542,17.7663114 C17.5641542,17.6677756 17.6137399,17.6111971 17.7129114,17.5965756 L18.2964972,17.5546185 C18.7427687,17.5272827 19.0498188,17.4433684 19.2201903,17.3047827 C19.389926,17.1674684 19.4744761,16.9462397 19.4744761,16.6404611 L19.4744761,5.69536564 C19.4744761,5.37687271 19.3861118,5.15500837 19.2093831,5.02722977 C19.0326545,4.89945117 18.7281473,4.81871543 18.2964972,4.78375114 L17.7129114,4.74052256 C17.5991185,4.72653684 17.5431756,4.66995825 17.5431756,4.57142252 L17.5431756,4.1569367 L17.5857685,4.11497955 C19.029476,4.1435867 19.9493547,4.1569367 20.3460406,4.1569367 C20.7846835,4.1569367 21.7115552,4.14295099 23.1272912,4.11497955 L23.1698841,4.1569367 L23.1698841,4.57142252 C23.1698841,4.66995825 23.1133055,4.72653684 23.0001483,4.74052256 L22.4375411,4.78375114 C21.9988981,4.81935115 21.6893052,4.90390117 21.5087623,5.0374012 C21.3269479,5.17344409 21.2366765,5.39340128 21.2366765,5.69600136 L21.2366765,5.69600136 Z M27.6065351,11.4612956 L27.6065351,16.6410968 C27.6065351,16.9595898 27.6961709,17.1833612 27.8773495,17.3111398 C28.0578924,17.437647 28.3674853,17.5196542 28.8061283,17.5546185 L29.3693713,17.5965756 C29.4825284,17.6105613 29.539107,17.6684113 29.539107,17.7663114 L29.539107,18.1807972 L29.4971499,18.2221186 C28.8105783,18.1947829 27.8900638,18.1807972 26.7368778,18.1807972 C25.6046704,18.1807972 24.6841559,18.1947829 23.9766057,18.2221186 L23.9340128,18.1807972 L23.9340128,17.7663114 C23.9340128,17.6677756 23.9835986,17.6111971 24.08277,17.5965756 L24.6663559,17.5546185 C25.1126274,17.5272827 25.4203132,17.4433684 25.590049,17.3047827 C25.7597847,17.1674684 25.8443347,16.9462397 25.8443347,16.6404611 L25.8443347,5.69536564 C25.8443347,5.37687271 25.7559704,5.15500837 25.5792418,5.02722977 C25.4031489,4.89945117 25.098006,4.81807972 24.6663559,4.78247971 L24.08277,4.74052256 C23.9696128,4.72653684 23.9130343,4.66995825 23.9130343,4.57142252 L23.9130343,4.1569367 L23.9549914,4.11497955 C25.3986989,4.1435867 26.3192134,4.1569367 26.7152635,4.1569367 C27.1539065,4.1569367 28.0807781,4.14295099 29.4965142,4.11497955 L29.5384713,4.1569367 L29.5384713,4.57142252 C29.5384713,4.66995825 29.4818927,4.72653684 29.3687356,4.74052256 L28.8061283,4.78247971 C28.3674853,4.81807972 28.0572567,4.90262974 27.8773495,5.03612977 C27.6968066,5.17090123 27.6065351,5.38895128 27.6065351,5.69155136 L27.6065351,10.6113454 C27.9879638,10.5827382 28.310271,10.5000954 28.5728211,10.3615096 C28.8347354,10.224831 29.0928355,10.0252167 29.347757,9.76393804 L32.9993007,5.95664428 C33.2116293,5.71697993 33.3565722,5.51863703 33.4347651,5.36288699 C33.5123223,5.20840838 33.5123223,5.07808692 33.4347651,4.97192261 C33.3565722,4.86702973 33.1830222,4.80282257 32.9147507,4.78120828 L32.4583077,4.73988684 C32.3381577,4.72590113 32.2777648,4.66932254 32.2777648,4.56887966 L32.2777648,4.15630099 L32.3203577,4.11307241 C33.423958,4.14231527 34.2662796,4.15630099 34.8466869,4.15630099 L36.9381874,4.11307241 L37.0443517,4.15630099 L37.0443517,4.56887966 C37.0443517,4.68267254 36.9629802,4.73988684 36.8002373,4.73988684 C36.4321587,4.781844 36.13528,4.83206544 35.90833,4.88737259 C35.6813799,4.94331546 35.3991227,5.06600835 35.0590155,5.25799411 C34.719544,5.44870844 34.3940582,5.70871564 34.0825581,6.0411943 L31.046386,9.3087665 C30.705643,9.66858087 30.4869573,9.91778093 30.3877858,10.055731 C30.2886144,10.1930453 30.2390286,10.300481 30.2390286,10.3780382 C30.2390286,10.5490454 30.3242144,10.7295883 30.4939501,10.9203026 L35.260537,16.5845182 C35.7207942,17.1534827 36.2865801,17.4827827 36.9591659,17.5749613 L37.1072874,17.5953042 C37.2344303,17.6092899 37.2986375,17.6658685 37.2986375,17.7663114 L37.2986375,18.1801615 L37.235066,18.2221186 C36.15308,18.1935115 35.3279227,18.1801615 34.7615011,18.1801615 L33.4557437,18.2221186 L33.4131508,18.1801615 L33.4131508,18.0536543 C33.4131508,17.4363756 33.2682079,16.9494183 32.9776864,16.5876968 L29.4316713,12.2883601 C29.0006569,11.7365599 28.3922782,11.4612956 27.6065351,11.4612956 Z M41.4498527,5.69600136 L41.4498527,16.6410968 C41.4498527,16.9595898 41.5401242,17.1833612 41.7206671,17.3111398 C41.90121,17.437647 42.2108029,17.5196542 42.6494459,17.5546185 L43.2120531,17.5965756 C43.3252103,17.6105613 43.3817889,17.6684113 43.3817889,17.7663114 L43.3817889,18.1807972 L43.3398317,18.2221186 C42.6532602,18.1947829 41.7333814,18.1807972 40.5795597,18.1807972 C39.4473522,18.1807972 38.5268377,18.1947829 37.8192876,18.2221186 L37.7766947,18.1807972 L37.7766947,17.7663114 C37.7766947,17.6677756 37.8262804,17.6111971 37.9254519,17.5965756 L38.5090377,17.5546185 C38.9553093,17.5272827 39.2629951,17.4433684 39.4327308,17.3047827 C39.6024666,17.1674684 39.6870166,16.9462397 39.6870166,16.6404611 L39.6870166,5.69536564 C39.6870166,5.37687271 39.5986523,5.15500837 39.4219237,5.02722977 C39.2458308,4.89945117 38.9406878,4.81871543 38.5090377,4.78375114 L37.9254519,4.74052256 C37.8122947,4.72653684 37.7557161,4.66995825 37.7557161,4.57142252 L37.7557161,4.1569367 L37.7976733,4.11497955 C39.2413808,4.1435867 40.1618953,4.1569367 40.5579454,4.1569367 C40.9965883,4.1569367 41.92346,4.14295099 43.339196,4.11497955 L43.3811532,4.1569367 L43.3811532,4.57142252 C43.3811532,4.66995825 43.3245746,4.72653684 43.2114174,4.74052256 L42.6488102,4.78375114 C42.2101672,4.81935115 41.9005743,4.90390117 41.7200314,5.0374012 C41.5394885,5.17344409 41.4498527,5.39340128 41.4498527,5.69600136 L41.4498527,5.69600136 Z M46.0568753,16.6404611 L46.0568753,5.67820135 C46.0568753,5.36606556 45.9577038,5.13784408 45.7593609,4.99607976 C45.5616537,4.85431544 45.3416965,4.77612257 45.1007607,4.76213685 L44.2514463,4.72081541 C44.1668962,4.72081541 44.1243034,4.67949397 44.1243034,4.59685109 L44.1243034,4.15757242 L44.1668962,4.13722956 C45.3416965,4.15121527 46.2615753,4.15884385 46.9271683,4.15884385 C47.1464898,4.15884385 47.6277256,4.12515098 48.3702401,4.06285097 C49.1133903,3.99927952 49.5736475,3.96876523 49.7503761,3.96876523 C50.4057977,3.96876523 51.0001907,4.02852239 51.5329194,4.14740099 C52.0656481,4.26755102 52.5030196,4.4296582 52.8456697,4.63499396 C53.1883198,4.8390583 53.4826556,5.06346549 53.7312199,5.30694412 C53.9797843,5.55042275 54.16732,5.81487996 54.2931915,6.10095145 C54.419063,6.38575152 54.5093344,6.6489373 54.5633701,6.88923735 C54.6174059,7.1289017 54.6441059,7.36856604 54.6441059,7.60823038 C54.6441059,8.00682333 54.5957916,8.40033057 54.4985273,8.78748066 C54.401263,9.17463076 54.2283486,9.56940942 53.98042,9.97245237 C53.7318557,10.3742239 53.4197199,10.7270454 53.0414698,11.0277383 C52.6632197,11.3303384 52.1673624,11.578267 51.5519908,11.7696171 C50.9366193,11.9622386 50.2443262,12.0575957 49.4744761,12.0575957 C48.8235045,12.0575957 48.2710686,11.9870314 47.81844,11.8427242 L47.81844,16.6461825 C47.81844,16.963404 47.9068043,17.1865398 48.0835329,17.3143184 C48.2596258,17.4408256 48.5647687,17.5228327 48.9964188,17.557797 L49.5800047,17.5991185 C49.6931618,17.6131042 49.7497404,17.6696828 49.7497404,17.7701257 L49.7497404,18.1839758 L49.7077833,18.2259329 C48.448433,18.1973258 47.5349113,18.1839758 46.9691255,18.1839758 L44.1662605,18.2259329 L44.1236676,18.1839758 L44.1236676,17.7701257 C44.1236676,17.6715899 44.1802462,17.6137399 44.2934034,17.5991185 L44.8566464,17.557797 C45.2946536,17.522197 45.6048823,17.437647 45.7854252,17.3022398 C45.9666038,17.1649255 46.0568753,16.945604 46.0568753,16.6404611 L46.0568753,16.6404611 Z M47.8190757,5.70553707 L47.8190757,11.2057384 C48.0879829,11.2763027 48.6003687,11.3119027 49.3581403,11.3119027 C50.4401263,11.3119027 51.2595622,11.0487169 51.8151766,10.5191668 C52.370791,9.98961666 52.6485982,9.15047361 52.6485982,8.00110191 C52.6485982,7.34695175 52.5634125,6.79260876 52.3936768,6.33934437 C52.223941,5.88671569 51.9849124,5.54660846 51.6772266,5.32029412 C51.3689051,5.09525121 51.0510479,4.93695832 50.7217478,4.84668687 C50.391812,4.75450827 50.0192833,4.70937255 49.601619,4.70937255 C49.2195546,4.70937255 48.9080545,4.72971541 48.6677544,4.77294399 C48.4268187,4.81490115 48.2462758,4.88419402 48.1261257,4.97955119 C48.0059757,5.07490835 47.9246043,5.17725838 47.8820114,5.28723697 C47.8394185,5.39721557 47.8190757,5.53707275 47.8190757,5.70553707 Z M64.8155369,4.13659384 C64.9363226,4.77357971 65.0914369,5.8256871 65.2821513,7.28973745 L64.6559725,7.3978089 C64.5123011,6.95471594 64.387701,6.61206586 64.280901,6.36795152 C64.174101,6.12638003 64.027251,5.88671569 63.8416223,5.65086563 C63.6559937,5.41501558 63.4258651,5.24782268 63.149965,5.1518298 C62.8747007,5.05583692 62.537772,5.00625119 62.1379077,5.00625119 L59.8226357,5.00625119 C59.5511856,5.00625119 59.3528427,5.05837978 59.227607,5.16136551 C59.1023712,5.26562268 59.0400712,5.44616558 59.0400712,5.70362993 L59.0400712,10.3678668 L61.7997076,10.3678668 C62.1671505,10.3678668 62.4316077,10.2941239 62.5899006,10.1460024 C62.7501007,9.99851667 62.847365,9.7620309 62.882965,9.43781653 L62.9465364,8.87457354 C62.9465364,8.83134496 62.963065,8.79129495 62.998665,8.75569494 C63.034265,8.71818779 63.0730436,8.70038779 63.1194507,8.70038779 L63.6394652,8.70038779 C63.7011295,8.70038779 63.7316437,8.73408065 63.7316437,8.80273781 C63.6744294,9.56305228 63.6470937,10.1841453 63.6470937,10.6628383 L63.726558,12.6399102 L63.6629866,12.7352673 L63.1207222,12.7352673 C63.0679579,12.7352673 63.0202793,12.7187387 62.9821364,12.6863173 C62.9439936,12.6538959 62.9242864,12.6195673 62.9242864,12.5833316 L62.882965,11.9984743 C62.8537221,11.6799814 62.7609078,11.4600242 62.6007078,11.337967 C62.4417792,11.2152741 62.1741434,11.1529741 61.7990719,11.1529741 L59.0394355,11.1529741 L59.0394355,16.6194825 C59.0394355,16.896654 59.1030069,17.0829184 59.2314212,17.1833612 C59.3598356,17.281897 59.5549999,17.330847 59.8181857,17.330847 L62.7996864,17.330847 C64.2300439,17.330847 65.2134941,16.3829968 65.7481299,14.4853892 L66.427073,14.5915535 C66.1518086,15.7599966 65.8848085,16.9703969 65.6235299,18.2227543 C64.4550868,18.1941472 63.521858,18.1807972 62.825115,18.1807972 L58.167871,18.1807972 L55.3866203,18.2227543 L55.3446632,18.1807972 L55.3446632,17.7453328 C55.3446632,17.6531542 55.4012418,17.6035685 55.5143989,17.5959399 L56.1621919,17.5546185 C56.5798563,17.5260113 56.8697421,17.4408256 57.0331207,17.2990613 C57.1958636,17.1572969 57.2772351,16.9303469 57.2772351,16.6188468 L57.2772351,5.69727279 C57.2772351,5.36542985 57.1977708,5.13148694 57.0382064,5.00180119 C56.8792778,4.8702083 56.5874849,4.78947257 56.1621919,4.76213685 L55.5143989,4.7201797 C55.400606,4.71318684 55.3446632,4.66487254 55.3446632,4.57587252 L55.3446632,4.15757242 L55.387256,4.13722956 C56.8608421,4.15121527 57.7934352,4.15757242 58.1843996,4.15757242 L63.704308,4.15757242 C64.0965438,4.15757242 64.4372868,4.12896527 64.7290797,4.0730224 C64.7799369,4.0730224 64.808544,4.09463669 64.8155369,4.13659384 L64.8155369,4.13659384 Z M67.3844589,17.7891971 C67.3844589,17.6754042 67.4334089,17.6124685 67.5319447,17.597847 L68.1905448,17.5558899 C68.579602,17.5285542 68.8644021,17.4408256 69.0455807,17.2965184 C69.2261236,17.1509398 69.3170308,16.9087326 69.3170308,16.5673539 L69.3170308,5.73160136 C69.3170308,5.34826556 69.2445593,5.10097264 69.0989807,4.98654404 C68.9534021,4.87275116 68.6508021,4.79900829 68.1911805,4.76277256 L67.5758089,4.72081541 C67.4480303,4.70682969 67.3844589,4.65279396 67.3844589,4.55680108 L67.3844589,4.15566528 L67.4264161,4.11561527 C68.8561378,4.14231527 69.7690238,4.15566528 70.1657096,4.15566528 C70.632324,4.15566528 71.2286241,4.14867242 71.9539743,4.13595813 C72.6799602,4.12197241 73.272446,4.11561527 73.7320676,4.11561527 C74.7581107,4.11561527 75.734568,4.31141531 76.6620754,4.69920112 C77.5883113,5.08698693 78.3854972,5.61208705 79.051726,6.27323007 C79.7160476,6.93437308 80.2443262,7.71630184 80.6371978,8.6215592 C81.0300693,9.52618084 81.2265051,10.4765739 81.2265051,11.4740099 C81.2265051,12.2165243 81.1476765,12.9024602 80.9925621,13.5292746 C80.8374478,14.1573605 80.6251192,14.6996249 80.3555763,15.1573393 C80.0866691,15.614418 79.7643618,16.0212752 79.389926,16.3798182 C79.0135831,16.7383611 78.6207116,17.0301541 78.2062258,17.2571041 C77.7923757,17.4840542 77.3454684,17.6715899 76.8693183,17.8209828 C76.3918968,17.9691043 75.9290966,18.0746329 75.4840965,18.13439 C75.0390964,18.1941472 74.5851963,18.2246615 74.1255748,18.2246615 C73.3182175,18.2246615 72.5699816,18.2176686 71.8795957,18.2043186 C71.1898455,18.1903329 70.6183382,18.1827043 70.1663453,18.1827043 C68.9775593,18.1827043 68.0640376,18.19669 67.4270518,18.2246615 L67.3850946,18.1827043 L67.3850946,17.7898328 L67.3844589,17.7898328 L67.3844589,17.7891971 Z M71.0792312,16.6194825 C71.0792312,16.8750397 71.1300884,17.0568541 71.2324384,17.1668327 C71.3347884,17.2768113 71.5490242,17.3562756 71.8751457,17.4058613 C72.2012672,17.4567184 72.7250959,17.4802399 73.4472675,17.4802399 C74.0976034,17.4802399 74.6932678,17.433197 75.2298108,17.3365684 C75.7695323,17.2405755 76.2927253,17.0676612 76.8019326,16.8159183 C77.3117756,16.5641754 77.7402471,16.2361467 78.0873472,15.8311966 C78.4344472,15.4262465 78.710983,14.9017821 78.9207688,14.2533534 C79.1299188,13.6036532 79.234176,12.8516031 79.234176,11.9933886 C79.234176,11.2909241 79.167426,10.6119811 79.0326545,9.95655951 C78.8991545,9.30113793 78.6722044,8.66033778 78.3537115,8.03670191 C78.0345829,7.41306605 77.6385328,6.86825878 77.1649255,6.40482295 C76.6906825,5.94138713 76.0892967,5.56758704 75.3601322,5.28278697 C74.6309678,4.99989405 73.813439,4.85622258 72.9075459,4.85622258 C72.5973173,4.85622258 72.3487529,4.86385116 72.1650315,4.87783688 C71.9800386,4.89245831 71.7956814,4.92615117 71.6068742,4.97891547 C71.4199741,5.03167977 71.284567,5.11559408 71.2038312,5.22938696 C71.1224598,5.34317984 71.0817741,5.49193702 71.0817741,5.67565849 L71.0817741,16.6188468 L71.0792312,16.6188468 L71.0792312,16.6194825 Z M100.632324,4.11625098 L100.685088,4.15947956 L100.685088,4.57205823 C100.685088,4.67122968 100.625331,4.7290797 100.504545,4.74306542 L100.133288,4.76340828 C99.6940095,4.79201543 99.3907737,4.87656545 99.2204022,5.01769405 C99.049395,5.15945837 98.964845,5.38640843 98.964845,5.6979085 L98.964845,16.0695895 C98.964845,16.7415397 98.9089021,17.3505541 98.7951092,17.8953614 C98.6819521,18.439533 98.5141235,18.9150474 98.2909877,19.3180903 C98.0678519,19.7211333 97.8313662,20.0695048 97.5796232,20.3632048 C97.3278803,20.6569049 97.0290945,20.9378907 96.6826302,21.2080693 C96.0176729,21.7738552 95.1899727,22.0567481 94.1988939,22.0567481 C93.9013795,22.0567481 93.5956009,21.9486767 93.2809222,21.7325337 C92.9656078,21.5163908 92.8085864,21.2315908 92.8085864,20.8774978 C92.8085864,20.6575406 92.9026721,20.4725477 93.0895722,20.320612 C93.2771079,20.1680405 93.4601937,20.0917548 93.6356509,20.0917548 C93.8409866,20.0917548 94.022801,20.1260834 94.1817296,20.1921977 C94.3419296,20.2608548 94.4550868,20.3276048 94.5218368,20.3943549 C94.5885868,20.4611049 94.6693225,20.5596406 94.7608654,20.6874192 C94.9541226,20.941705 95.1594584,21.0688479 95.3787799,21.0688479 C95.5421585,21.0688479 95.6972728,21.039605 95.8466657,20.9785764 C95.9941514,20.9188193 96.1549872,20.7916764 96.3298086,20.596512 C96.502723,20.4019834 96.6508444,20.1476977 96.7748088,19.8323833 C96.8975016,19.5177046 96.9998517,19.0790617 97.0824945,18.5170901 C97.163866,17.9532114 97.2045517,17.2977898 97.2045517,16.5482825 L97.2045517,6.02657286 C97.2045517,5.52435846 97.0945731,5.19505838 96.8746159,5.03930834 C96.6565659,4.88419402 96.2490729,4.79201543 95.6540442,4.76340828 L95.2185798,4.74306542 C95.0908012,4.7290797 95.0272298,4.67250111 95.0272298,4.57205823 L95.0272298,4.15947956 L95.0691869,4.11625098 C96.4919158,4.14549384 97.4861732,4.15947956 98.0519591,4.15947956 L100.632324,4.11625098 Z M91.809879,4.0730224 C91.8613719,4.0730224 91.8887076,4.09463669 91.8963362,4.13659384 C92.0164862,4.77357971 92.1722362,5.8256871 92.364222,7.28973745 L91.7374076,7.3978089 C91.5937361,6.95471594 91.4704075,6.61206586 91.362336,6.36795152 C91.255536,6.12638003 91.108686,5.88671569 90.9230574,5.65086563 C90.7374287,5.41501558 90.5073001,5.24782268 90.2320358,5.1518298 C89.9567714,5.05583692 89.6192071,5.00625119 89.2180712,5.00625119 L86.903435,5.00625119 C86.6319849,5.00625119 86.433642,5.05837978 86.3077705,5.16136551 C86.1838062,5.26562268 86.1208705,5.44616558 86.1208705,5.70362993 L86.1208705,10.3678668 L88.8805069,10.3678668 C89.2492212,10.3678668 89.512407,10.2941239 89.6713356,10.1460024 C89.8302642,9.99851667 89.9268928,9.7620309 89.9644,9.43781653 L90.0273357,8.87457354 C90.0273357,8.83134496 90.0451357,8.79129495 90.0794643,8.75569494 C90.1150643,8.71818779 90.1551143,8.70038779 90.20025,8.70038779 L90.7209002,8.70038779 C90.7819288,8.70038779 90.8130788,8.73408065 90.8130788,8.80273781 C90.7558645,9.56305228 90.727893,10.1841453 90.727893,10.6628383 L90.8073573,12.6399102 L90.7425145,12.7352673 L90.2021572,12.7352673 C90.14685,12.7352673 90.1017143,12.7187387 90.0629357,12.6863173 C90.0247929,12.6538959 90.0057214,12.6195673 90.0057214,12.5833316 L89.9637643,11.9984743 C89.9351571,11.6799814 89.8410714,11.4600242 89.6815071,11.337967 C89.5225785,11.2152741 89.2549427,11.1529741 88.8798712,11.1529741 L86.1202348,11.1529741 L86.1202348,16.6194825 C86.1202348,16.896654 86.1838062,17.0829184 86.3128563,17.1833612 C86.4412706,17.281897 86.6370706,17.330847 86.9015278,17.330847 L89.8804857,17.330847 C91.3127503,17.330847 92.2955648,16.3829968 92.8302007,14.4853892 L93.5091437,14.5915535 C93.2338793,15.7599966 92.9656078,16.9703969 92.7043292,18.2227543 C91.5371575,18.1941472 90.6039287,18.1807972 89.9059143,18.1807972 L85.2499417,18.1807972 L82.4686911,18.2227543 L82.4273696,18.1807972 L82.4273696,17.7453328 C82.4273696,17.6531542 82.4845839,17.6035685 82.5964697,17.5959399 L83.2448984,17.5546185 C83.6625628,17.5260113 83.9524486,17.4408256 84.1151915,17.2990613 C84.2785701,17.1572969 84.3586701,16.9303469 84.3586701,16.6188468 L84.3586701,5.69727279 C84.3586701,5.36542985 84.2792058,5.13148694 84.1209129,5.00180119 C83.9607128,4.8702083 83.6689199,4.78947257 83.2442627,4.76213685 L82.595834,4.7201797 C82.4839482,4.71318684 82.4267339,4.66487254 82.4267339,4.57587252 L82.4267339,4.15757242 L82.4680553,4.13722956 C83.7451633,4.14935051 84.6149704,4.15574156 85.0803734,4.15723036 L90.7863788,4.15757242 C91.1773431,4.15757242 91.5193575,4.12896527 91.809879,4.0730224 Z M105.136996,15.9958467 C104.991418,16.364561 105.014939,16.678604 105.203111,16.9398826 C105.390647,17.2005255 105.738382,17.348647 106.241868,17.3848827 L107.051768,17.4389184 C107.19544,17.4567184 107.267911,17.5291899 107.267911,17.6550613 L107.267911,18.1807972 L107.212604,18.2348329 C105.208196,18.1985972 103.985718,18.1807972 103.543896,18.1807972 L101.049353,18.2348329 L100.995317,18.1807972 L100.995317,17.6550613 C100.995317,17.5291899 101.067153,17.4567184 101.21146,17.4389184 C101.885317,17.3937827 102.412324,17.2424827 102.788667,16.9869255 C103.166917,16.7307326 103.535632,16.1891039 103.89481,15.3620394 L110.030726,1.00570024 C110.194105,0.634443008 110.339048,0.373164375 110.468733,0.223771482 C110.599691,0.0743785891 110.763705,-1.77635684e-15 110.962048,-1.77635684e-15 C111.140684,-1.77635684e-15 111.282448,0.0629357293 111.386705,0.190714331 C111.489691,0.317221504 111.599669,0.534635842 111.716641,0.842957344 L117.382128,15.8070395 C117.580471,16.3473967 117.832214,16.7383611 118.137992,16.9799326 C118.443771,17.2234112 118.870971,17.3670827 119.420228,17.4122184 L119.729821,17.4395542 C119.909729,17.4573542 120,17.5298256 120,17.6556971 L120,18.1814329 L119.918629,18.2354686 C118.497807,18.1992329 117.427899,18.1814329 116.708906,18.1814329 L113.040198,18.2354686 L113.012863,18.1814329 L113.012863,17.6556971 C113.012863,17.5202899 113.075798,17.4490899 113.202306,17.4395542 L113.983599,17.3855184 C114.51442,17.3410184 114.873599,17.2253184 115.062406,17.0409612 C115.251849,16.8572397 115.278549,16.5775254 115.143777,16.1986396 L113.457863,11.5191456 L107.712276,11.5191456 C107.389333,11.5191456 107.164926,11.5528385 107.037147,11.6195885 C106.911275,11.6876099 106.813375,11.8109385 106.740268,11.9908457 L105.136996,15.9958467 L105.136996,15.9958467 Z M108.211311,10.4397025 L113.012863,10.4397025 L110.328876,3.01773643 L110.274841,3.01773643 L107.508847,10.0722595 C107.445911,10.2178381 107.469433,10.3157382 107.576868,10.3653239 C107.683668,10.4142739 107.895997,10.4397025 108.211311,10.4397025 L108.211311,10.4397025 Z" id="ltg-wordmark" fill="#000000" fill-rule="nonzero"></path>
    </g>
</svg>