<svg xmlns="http://www.w3.org/2000/svg" width="119" height="12"><path fill="#000" fill-rule="nonzero" d="M3.15 4.274H2.08V1.738c0-.157.035-.288.106-.394a.372.372 0 0 1 .318-.164H3.74c.425.002.725.123.9.363.173.239.317.578.43 1.019a.615.615 0 0 0 .39-.064A44.616 44.616 0 0 0 5.2.66c.002-.026-.014-.038-.047-.038-.094.018-.18.032-.258.04a3.372 3.372 0 0 1-.32.01H1.573A300.138 300.138 0 0 1 .053.647C.018.693 0 .763 0 .857c0 .093.018.162.053.208.403 0 .677.065.822.197.144.132.212.451.203.957v5.086c.009.506-.06.825-.203.957-.145.132-.419.198-.822.197-.035.046-.053.115-.053.209 0 .094.018.163.053.21a161.553 161.553 0 0 1 1.531-.026h2.532a51.438 51.438 0 0 1 1.508.025A22.248 22.248 0 0 0 6.06 6.76a.51.51 0 0 0-.412-.063c-.112.469-.287.86-.525 1.173-.238.313-.577.476-1.018.488H2.503a.378.378 0 0 1-.31-.144c-.074-.095-.113-.228-.114-.401V4.756H3.15c.48 0 .78.072.898.217.118.144.176.36.173.645.043.038.108.057.195.057.087 0 .151-.019.194-.057l-.016-.563a20.168 20.168 0 0 1 0-1.117l.016-.527c-.043-.038-.107-.057-.194-.057-.087 0-.152.02-.195.057.003.342-.055.572-.173.693-.119.12-.418.177-.898.17Zm5.417.038a.357.357 0 0 1-.073.085c-.027.024-.043-.004-.045-.085.002-.207.012-.415.03-.625.016-.21.026-.323.029-.339 0-.065-.047-.1-.142-.101-.16.069-.371.133-.631.193s-.591.118-.994.174a.967.967 0 0 0 .024.355c.31.018.517.078.62.18.105.101.153.33.145.683v2.473c.01.499-.04.813-.147.943-.108.13-.334.2-.677.21-.036.047-.053.116-.053.21 0 .094.017.163.053.21l.639-.018a26.484 26.484 0 0 1 1.822.017c.036-.046.053-.115.053-.209 0-.094-.017-.163-.053-.21-.292-.01-.485-.08-.578-.21-.094-.13-.137-.444-.128-.943v-2.08a.776.776 0 0 1 .2-.533c.224-.236.45-.42.679-.55a1.4 1.4 0 0 1 .687-.198c.12 0 .236.04.347.119a.884.884 0 0 1 .277.338c.058.128.096.274.115.44.02.166.028.345.027.536v1.928c.007.499-.038.813-.136.943s-.296.2-.595.21a.394.394 0 0 0-.044.21c0 .094.015.163.044.21l.61-.018a21.063 21.063 0 0 1 1.207 0l.633.017a.394.394 0 0 0 .044-.209.394.394 0 0 0-.044-.21c-.321-.01-.535-.08-.642-.21-.106-.13-.155-.444-.147-.943v-1.89a6.321 6.321 0 0 0-.057-.964 1.776 1.776 0 0 0-.26-.735.973.973 0 0 0-.41-.32 1.43 1.43 0 0 0-.568-.111 1.91 1.91 0 0 0-.878.19c-.3.138-.628.417-.983.837Zm4.7 2.79c.025.311.045.614.06.908.015.294.023.575.023.842a1.952 1.952 0 0 1 .295-.038c.04 0 .08 0 .118.003.037.003.077.01.117.022.157.045.32.08.492.103.171.024.365.036.58.037.367.012.761-.098 1.184-.328.422-.231.652-.654.689-1.27-.008-.43-.137-.778-.39-1.047a2.649 2.649 0 0 0-.988-.642 3.379 3.379 0 0 1-.854-.436c-.211-.158-.319-.405-.324-.741.01-.262.097-.462.262-.601a.858.858 0 0 1 .563-.21c.149-.02.345.043.587.185.242.141.411.473.508.994.042.037.105.054.188.05.084-.003.147-.025.189-.063a9.68 9.68 0 0 1 .03-.687c.02-.228.032-.447.04-.657a47.69 47.69 0 0 1-.678-.145 4.45 4.45 0 0 0-.864-.096c-.451.008-.837.143-1.158.405-.32.263-.488.6-.503 1.015-.003.452.1.804.308 1.057.207.254.537.476.987.668.477.208.8.402.967.58.167.179.246.4.235.662-.015.31-.127.535-.337.677-.21.143-.432.213-.664.211a1.38 1.38 0 0 1-.547-.1.776.776 0 0 1-.29-.204 1.503 1.503 0 0 1-.309-.574 6.125 6.125 0 0 1-.15-.593c-.042-.037-.103-.054-.183-.05a.28.28 0 0 0-.182.063Zm7.395-1.205v1.687a.393.393 0 0 1-.047.198.463.463 0 0 1-.118.131 3.33 3.33 0 0 1-.509.373c-.183.11-.359.167-.527.173-.293-.013-.508-.114-.645-.303a.99.99 0 0 1-.203-.598 1.41 1.41 0 0 1 .233-.818c.164-.253.459-.445.886-.577l.93-.266Zm0 2.346c.03.147.111.303.244.468.134.164.355.254.663.268.294-.02.533-.107.717-.262.184-.154.279-.257.284-.309a.26.26 0 0 0-.058-.141c-.036-.046-.068-.071-.095-.075-.03.009-.068.043-.115.102-.047.06-.13.093-.25.101-.22-.008-.356-.115-.408-.32a2.822 2.822 0 0 1-.063-.758v-1.89c-.02-.876-.21-1.459-.567-1.746a1.732 1.732 0 0 0-1.211-.396 2.33 2.33 0 0 0-1.334.447c-.386.282-.59.602-.61.96 0 .152.035.264.105.336.07.073.172.109.307.108.171-.007.3-.056.388-.147.087-.091.13-.182.13-.271a.891.891 0 0 0-.008-.129.38.38 0 0 0-.027-.1.485.485 0 0 1-.016-.088 1.571 1.571 0 0 1-.007-.165c.013-.194.12-.332.32-.414.202-.082.42-.121.657-.119.215-.02.424.075.628.287.203.212.312.666.326 1.362 0 .044-.008.079-.022.104-.014.026-.03.042-.048.048l-1.013.266c-.576.156-1.041.393-1.396.71-.355.318-.537.694-.548 1.13.01.494.155.848.433 1.06.279.211.629.314 1.051.309.259.004.475-.03.651-.105.176-.074.387-.217.633-.428l.236-.203h.023Zm3.393-2.967c.136-.692.35-1.129.643-1.311.293-.183.523-.262.688-.236.236-.012.455.077.656.266.202.188.309.544.321 1.065.001.057-.012.1-.04.13-.027.03-.072.046-.136.048l-2.132.038Zm3.086 2.396c-.21.24-.422.414-.638.524-.216.109-.49.163-.823.161a1.204 1.204 0 0 1-.664-.214c-.226-.145-.433-.378-.62-.699a2.747 2.747 0 0 1-.276-.75c-.066-.29-.1-.62-.1-.987l3.132.025a.232.232 0 0 0 .165-.055c.04-.037.059-.09.06-.16a2.625 2.625 0 0 0-.382-1.503c-.274-.444-.81-.679-1.61-.704-.546.004-1.066.26-1.561.767-.495.508-.76 1.246-.794 2.213-.001.359.043.7.131 1.024.089.324.23.608.423.853.197.256.441.454.733.596.291.142.648.214 1.069.216.445-.005.832-.107 1.16-.305.328-.198.608-.464.842-.799a.277.277 0 0 0-.084-.144.285.285 0 0 0-.163-.059Zm1.734-.367c.009.505-.04.823-.147.952-.106.13-.32.197-.642.202-.035.046-.053.115-.053.209 0 .094.018.163.053.21l.63-.018a24.086 24.086 0 0 1 1.131 0l.571.017c.036-.046.053-.115.053-.209 0-.094-.017-.163-.053-.21-.237-.004-.399-.07-.487-.2-.088-.13-.13-.448-.125-.953V6.163a.626.626 0 0 1 .354.096c.1.066.206.186.317.36l.86 1.307c.114.18.189.319.224.419.035.1.05.188.047.266v.203c-.002.04.014.061.047.063l.362-.017a14.99 14.99 0 0 1 .938 0l.478.017c.036-.046.053-.115.053-.209 0-.094-.017-.163-.053-.21-.2-.017-.386-.058-.556-.124-.17-.065-.322-.201-.457-.408l-1.378-2.194a.318.318 0 0 1-.058-.177.17.17 0 0 1 .047-.127l.895-1.065c.17-.192.356-.33.558-.416.202-.085.448-.132.737-.142.036-.046.053-.116.053-.21 0-.093-.017-.163-.053-.209l-.516.018a17.36 17.36 0 0 1-1.054 0l-.538-.018c-.035.046-.053.116-.053.21 0 .093.018.163.053.209.328.035.468.13.42.287a.799.799 0 0 1-.208.36c-.315.37-.606.68-.874.93-.269.25-.484.403-.645.458V1.459a19.2 19.2 0 0 1 .023-.975c.014-.234.022-.353.024-.357.002-.087-.05-.129-.153-.127-.168.068-.421.136-.758.205a8.157 8.157 0 0 1-.891.138.565.565 0 0 0 0 .2.366.366 0 0 0 .07.18c.3-.007.502.038.607.135.105.096.154.398.147.905v5.542Zm5.788 0c.01.506-.042.825-.154.957-.113.132-.344.198-.694.197-.035.046-.053.115-.053.209 0 .094.018.163.053.21l.651-.018a27.315 27.315 0 0 1 1.322 0l.654.017c.035-.046.053-.115.053-.209 0-.094-.018-.163-.053-.21-.35.002-.581-.064-.694-.196-.112-.132-.164-.451-.154-.957V1.459c.002-.417.01-.742.023-.975.014-.234.022-.353.024-.357.002-.087-.05-.129-.153-.127-.168.068-.421.136-.758.205a8.156 8.156 0 0 1-.891.138.565.565 0 0 0 0 .2.366.366 0 0 0 .07.18c.3-.007.502.038.607.135.105.096.154.398.147.905v5.542Zm2.47-1.053c0 .68.204 1.296.614 1.848.41.553 1.03.846 1.86.879.871-.04 1.507-.354 1.906-.945.4-.59.596-1.223.59-1.896a3.36 3.36 0 0 0-.552-1.921c-.379-.585-1.02-.896-1.921-.932-.8.023-1.415.316-1.845.88-.43.563-.647 1.259-.652 2.087ZM39.5 3.703c.51.002.901.242 1.175.721.274.48.412 1.186.415 2.12-.018.816-.16 1.362-.428 1.636-.267.274-.549.4-.844.38-.406-.014-.732-.166-.978-.457a2.677 2.677 0 0 1-.533-1.035 4.11 4.11 0 0 1-.161-1.108c-.006-.576.096-1.09.306-1.542.21-.451.559-.69 1.048-.715Zm5.146.9c.188-.208.389-.381.603-.52.214-.138.41-.21.587-.215.388.008.716.22.983.636.268.415.407.985.418 1.71a3.316 3.316 0 0 1-.335 1.557c-.237.485-.679.744-1.325.777a1.725 1.725 0 0 1-.418-.058.965.965 0 0 1-.419-.21.849.849 0 0 1-.23-.294c-.038-.093-.055-.248-.052-.466V5.162a.996.996 0 0 1 .037-.317.669.669 0 0 1 .151-.241Zm-.094-.418a.089.089 0 0 1-.073.03c-.027-.002-.042-.024-.045-.068a7.261 7.261 0 0 1 .047-.812c0-.025-.014-.047-.04-.063a.22.22 0 0 0-.113-.025 3.8 3.8 0 0 1-.614.193c-.25.06-.575.118-.976.174a.967.967 0 0 0 .024.355c.31.019.517.08.621.184.104.104.152.33.144.679v5.415c.01.506-.042.825-.154.957-.113.132-.344.198-.694.197-.035.046-.053.116-.053.21 0 .093.018.162.053.208l.651-.017a27.315 27.315 0 0 1 1.399 0l.695.017c.035-.046.053-.115.053-.209 0-.093-.018-.163-.053-.21-.406-.004-.672-.07-.797-.2s-.181-.448-.17-.953v-1.37c0-.08.013-.122.038-.13.026-.006.068.005.128.035.145.063.306.112.48.145.176.034.357.051.544.052.33.001.642-.056.932-.17.291-.114.558-.295.8-.54a3.02 3.02 0 0 0 .643-1.032c.15-.398.227-.852.228-1.365-.011-.696-.209-1.295-.592-1.798-.382-.502-.88-.766-1.492-.79-.225.002-.482.079-.772.232-.29.153-.57.376-.842.669Zm5.212-2.93a.715.715 0 0 0 .177.454c.112.13.241.2.389.206a.605.605 0 0 0 .43-.204.626.626 0 0 0 .182-.405.736.736 0 0 0-.163-.444.525.525 0 0 0-.402-.215.626.626 0 0 0-.413.19.607.607 0 0 0-.2.419Zm1.072 6.05V4.777a33.043 33.043 0 0 1 .047-1.442c0-.025-.014-.047-.041-.063a.22.22 0 0 0-.112-.025c-.163.069-.373.133-.628.193s-.584.118-.986.174a.967.967 0 0 0 .024.355c.313.02.52.081.624.185.102.104.15.33.142.678v2.473c.01.504-.042.82-.155.948-.113.127-.344.196-.693.206-.036.046-.053.115-.053.209 0 .094.017.163.053.21l.65-.018a27.315 27.315 0 0 1 1.322 0l.654.017c.035-.046.053-.115.053-.209 0-.094-.018-.163-.053-.21-.35-.004-.58-.07-.693-.2-.113-.13-.165-.448-.155-.953Zm5.13-.026a.835.835 0 0 1-.033.28.54.54 0 0 1-.156.215c-.219.203-.42.355-.607.456a1.069 1.069 0 0 1-.5.153c-.333.001-.628-.19-.887-.573-.258-.383-.395-.97-.409-1.76.003-.454.038-.816.105-1.087.066-.27.145-.47.237-.6.19-.288.389-.468.596-.541.207-.073.373-.104.499-.093.21 0 .393.04.548.118.154.079.29.191.406.338.08.093.134.183.162.271.027.088.04.226.038.414v2.41Zm-.13.935a.163.163 0 0 1 .092-.044c.03-.002.047.018.049.06.005.165.027.328.065.489.038.16.06.248.065.26a.254.254 0 0 0 .111.023.554.554 0 0 0 .112-.023c.128-.116.308-.218.54-.306.233-.089.528-.156.885-.202a.26.26 0 0 0 .053-.17.26.26 0 0 0-.053-.172c-.365-.027-.603-.112-.712-.254-.11-.141-.159-.365-.147-.672V1.46a19.2 19.2 0 0 1 .023-.975c.014-.234.022-.353.024-.357.002-.087-.05-.129-.153-.127-.168.068-.421.136-.759.205a8.157 8.157 0 0 1-.89.138.565.565 0 0 0 0 .2.366.366 0 0 0 .07.18c.3-.007.502.038.607.135.105.096.154.398.147.905v1.623c.001.044-.006.074-.022.09-.015.017-.043.025-.084.024a8.197 8.197 0 0 1-.331-.108 2.116 2.116 0 0 0-.587-.107 2.36 2.36 0 0 0-.999.2 2.555 2.555 0 0 0-.768.56 2.923 2.923 0 0 0-.596.97 3.575 3.575 0 0 0-.217 1.263c.004.794.179 1.44.524 1.935.346.495.838.75 1.478.766.227 0 .457-.064.692-.191.235-.127.496-.319.78-.574Zm3.084-6.958a.715.715 0 0 0 .177.453c.111.13.241.2.388.206a.605.605 0 0 0 .43-.204.626.626 0 0 0 .183-.405.736.736 0 0 0-.164-.444.525.525 0 0 0-.402-.215.626.626 0 0 0-.412.19.608.608 0 0 0-.2.419Zm1.072 6.049V4.777c.002-.336.01-.655.023-.957l.024-.485c0-.025-.014-.047-.041-.063a.22.22 0 0 0-.112-.025c-.164.069-.373.133-.628.193s-.584.118-.986.174a.97.97 0 0 0 .024.355c.312.02.52.081.623.185.103.104.15.33.142.678v2.473c.01.504-.042.82-.154.948-.113.127-.344.196-.694.206-.035.046-.053.115-.053.209 0 .094.018.163.053.21l.651-.018a27.315 27.315 0 0 1 1.322 0l.654.017c.035-.046.053-.115.053-.209 0-.094-.018-.163-.053-.21-.35-.004-.581-.07-.694-.2-.112-.13-.164-.448-.154-.953Zm4.516-1.408v1.687a.392.392 0 0 1-.047.198.463.463 0 0 1-.117.131 3.33 3.33 0 0 1-.51.373c-.183.11-.359.167-.527.173-.293-.013-.508-.114-.645-.303a.99.99 0 0 1-.203-.598 1.41 1.41 0 0 1 .234-.818c.163-.253.458-.445.885-.577l.93-.266Zm0 2.346c.03.147.111.303.245.468.133.164.354.254.662.268.295-.02.534-.107.717-.262.184-.154.279-.257.285-.309a.26.26 0 0 0-.06-.141c-.035-.046-.067-.071-.094-.075-.03.009-.068.043-.115.102-.047.06-.13.093-.25.101-.22-.008-.356-.115-.408-.32a2.822 2.822 0 0 1-.063-.758v-1.89c-.02-.876-.21-1.459-.567-1.746a1.732 1.732 0 0 0-1.211-.396 2.33 2.33 0 0 0-1.334.447c-.386.282-.59.602-.61.96 0 .152.035.264.105.336.07.073.172.109.308.108.17-.007.3-.056.387-.147.087-.091.13-.182.13-.271a.891.891 0 0 0-.008-.129.38.38 0 0 0-.027-.1.485.485 0 0 1-.016-.088 1.571 1.571 0 0 1-.007-.165c.013-.194.12-.332.32-.414.202-.082.42-.121.657-.119.215-.02.424.075.628.287.203.212.312.666.326 1.362 0 .044-.008.079-.022.104-.014.026-.03.042-.048.048l-1.013.266c-.576.156-1.041.393-1.396.71-.355.318-.537.694-.547 1.13.01.494.154.848.432 1.06.279.211.629.314 1.052.309.258.004.475-.03.65-.105.176-.074.387-.217.633-.428l.236-.203h.023Zm7.327 2.638c.18-.352.341-.716.483-1.09.462-1.198.85-2.188 1.163-2.972.314-.785.62-1.519.921-2.203.085-.192.21-.369.376-.53a.989.989 0 0 1 .579-.281c.035-.046.053-.116.053-.21 0-.093-.018-.163-.053-.209l-.405.018a16.985 16.985 0 0 1-.958 0 511.2 511.2 0 0 0-.546-.018c-.035.046-.053.116-.053.21 0 .093.018.163.053.209.198.011.362.054.492.127.13.073.154.221.074.443L72.845 7.28c-.041.105-.086.16-.134.165-.048.005-.097-.054-.147-.177l-1.045-2.638c-.122-.265-.174-.461-.157-.59.017-.129.198-.207.544-.234.035-.046.053-.116.053-.21 0-.093-.018-.163-.053-.209-.22.007-.443.013-.67.018a31.6 31.6 0 0 1-.661.007c-.4-.002-.719-.01-.954-.025-.036.046-.053.116-.053.21 0 .093.017.163.053.209.243.01.422.075.536.191.114.117.245.37.393.76l1.332 3.335c.059.139.114.325.165.558.051.234.05.445 0 .634-.07.21-.142.408-.216.595-.075.187-.156.378-.243.572a.684.684 0 0 1-.233.279.64.64 0 0 1-.356.089.87.87 0 0 1-.184-.02.734.734 0 0 0-.158-.019.483.483 0 0 0-.387.211c-.087.128-.13.24-.131.335a.434.434 0 0 0 .157.334.606.606 0 0 0 .396.135c.13.013.298-.038.505-.152.208-.114.42-.368.638-.761Zm7.12-4.984v1.687a.392.392 0 0 1-.047.198.463.463 0 0 1-.118.131 3.33 3.33 0 0 1-.51.373c-.182.11-.358.167-.526.173-.293-.013-.508-.114-.645-.303a.99.99 0 0 1-.203-.598 1.41 1.41 0 0 1 .233-.818c.164-.253.459-.445.886-.577l.93-.266Zm0 2.346c.03.147.11.303.244.468.134.164.355.254.663.268.294-.02.533-.107.717-.262.184-.154.279-.257.284-.309a.26.26 0 0 0-.059-.141c-.036-.046-.067-.071-.094-.075-.03.009-.068.043-.115.102-.048.06-.13.093-.25.101-.22-.008-.357-.115-.408-.32a2.821 2.821 0 0 1-.063-.758v-1.89c-.02-.876-.21-1.459-.567-1.746a1.732 1.732 0 0 0-1.212-.396 2.33 2.33 0 0 0-1.334.447c-.385.282-.588.602-.609.96 0 .152.035.264.104.336.07.073.173.109.308.108.171-.007.3-.056.387-.147.088-.091.131-.182.131-.271a.891.891 0 0 0-.008-.129.38.38 0 0 0-.027-.1.485.485 0 0 1-.016-.088 1.571 1.571 0 0 1-.007-.165c.012-.194.12-.332.32-.414.202-.082.42-.121.657-.119.215-.02.424.075.627.287.203.212.312.666.327 1.362 0 .044-.008.079-.022.104-.014.026-.03.042-.049.048l-1.012.266c-.576.156-1.041.393-1.396.71-.355.318-.538.694-.548 1.13.01.494.155.848.433 1.06.278.211.629.314 1.051.309.258.004.475-.03.651-.105.176-.074.387-.217.633-.428l.236-.203h.023Zm7.115-3.55c.23-.247.444-.433.639-.559.194-.126.382-.19.562-.19a.661.661 0 0 1 .556.258c.143.178.217.476.221.896v2.207c.01.5-.033.816-.126.948-.094.132-.295.2-.604.206a.394.394 0 0 0-.044.209c0 .094.015.163.044.21l.61-.018a21.062 21.062 0 0 1 1.16 0l.586.017a.394.394 0 0 0 .044-.209.394.394 0 0 0-.044-.21c-.287-.005-.476-.073-.569-.205-.092-.132-.134-.448-.126-.948V5.288c0-.089 0-.177-.002-.263a4.14 4.14 0 0 0-.01-.244c.28-.329.541-.552.782-.67.24-.119.474-.174.702-.167a.61.61 0 0 1 .533.246c.129.17.195.464.197.883v2.232c.008.5-.037.816-.135.948s-.297.2-.595.206a.394.394 0 0 0-.044.209c0 .094.015.163.044.21l.61-.018a21.061 21.061 0 0 1 1.19 0l.614.017a.394.394 0 0 0 .045-.209.394.394 0 0 0-.045-.21c-.314-.005-.521-.073-.62-.205-.098-.132-.142-.448-.133-.948V5.3c.013-.578-.064-1.055-.23-1.431-.166-.377-.502-.572-1.007-.585a2.192 2.192 0 0 0-.932.206c-.318.142-.632.385-.94.73a.175.175 0 0 1-.07.053c-.027.012-.047-.008-.06-.059a1.174 1.174 0 0 0-1.178-.93 1.646 1.646 0 0 0-.922.295 4.2 4.2 0 0 0-.798.732.634.634 0 0 1-.073.084c-.026.024-.04-.004-.042-.084.002-.207.012-.415.028-.625l.028-.339c0-.065-.047-.1-.14-.101-.165.069-.376.133-.635.193-.258.06-.589.118-.991.174a.968.968 0 0 0 .024.355c.312.019.52.079.623.18.103.102.15.33.142.683v2.473c.007.5-.046.816-.158.948s-.326.2-.643.206c-.035.046-.053.115-.053.209 0 .094.018.163.053.21l.627-.018a25.126 25.126 0 0 1 1.809.017c.035-.046.053-.115.053-.209 0-.094-.018-.163-.053-.21-.291-.01-.484-.08-.577-.21-.093-.13-.136-.444-.128-.943v-2.08a.785.785 0 0 1 .2-.533ZM96.46 5.896v1.687a.392.392 0 0 1-.047.198.463.463 0 0 1-.118.131 3.33 3.33 0 0 1-.509.373c-.183.11-.359.167-.527.173-.293-.013-.508-.114-.645-.303a.99.99 0 0 1-.203-.598 1.41 1.41 0 0 1 .233-.818c.164-.253.459-.445.886-.577l.93-.266Zm0 2.346c.03.147.111.303.244.468.134.164.355.254.663.268.294-.02.533-.107.717-.262.184-.154.279-.257.284-.309a.26.26 0 0 0-.058-.141c-.036-.046-.068-.071-.095-.075-.03.009-.068.043-.115.102-.047.06-.13.093-.25.101-.22-.008-.356-.115-.408-.32a2.821 2.821 0 0 1-.063-.758v-1.89c-.02-.876-.21-1.459-.567-1.746a1.732 1.732 0 0 0-1.211-.396 2.33 2.33 0 0 0-1.334.447c-.386.282-.59.602-.61.96 0 .152.035.264.105.336.07.073.172.109.307.108.171-.007.3-.056.388-.147.087-.091.13-.182.13-.271a.891.891 0 0 0-.008-.129.38.38 0 0 0-.027-.1.484.484 0 0 1-.016-.088 1.57 1.57 0 0 1-.007-.165c.013-.194.12-.332.32-.414.202-.082.42-.121.657-.119.215-.02.424.075.628.287.203.212.312.666.326 1.362 0 .044-.008.079-.022.104-.014.026-.03.042-.048.048l-1.013.266c-.576.156-1.041.393-1.396.71-.355.318-.537.694-.548 1.13.01.494.155.848.433 1.06.279.211.629.314 1.051.309.259.004.475-.03.651-.105.176-.074.387-.217.633-.428l.236-.203h.023Zm3.9-3.017a.789.789 0 0 1 .064-.326.844.844 0 0 1 .136-.208c.226-.238.464-.422.712-.551.248-.13.49-.195.724-.197.123.001.24.04.351.12a.86.86 0 0 1 .274.337c.057.126.095.273.115.44.019.166.028.345.026.536v1.928c.008.499-.037.813-.135.943-.099.13-.297.2-.595.21a.394.394 0 0 0-.044.21c0 .094.014.163.044.21l.61-.018a21.062 21.062 0 0 1 1.207 0l.633.017a.394.394 0 0 0 .044-.209.394.394 0 0 0-.044-.21c-.322-.01-.536-.08-.642-.21-.107-.13-.156-.444-.147-.943v-1.89a6.427 6.427 0 0 0-.057-.966 1.716 1.716 0 0 0-.261-.733.962.962 0 0 0-.409-.32c-.17-.074-.36-.11-.57-.111a2.102 2.102 0 0 0-.912.19c-.32.138-.66.417-1.019.837a.547.547 0 0 1-.072.084c-.027.025-.04-.004-.043-.084l.01-2.853a20.898 20.898 0 0 1 .046-1.332c.002-.087-.049-.129-.153-.127-.168.068-.42.136-.758.205a8.156 8.156 0 0 1-.89.138.565.565 0 0 0 0 .2.366.366 0 0 0 .07.18c.3-.007.502.038.607.135.105.096.154.398.147.905v5.542c.008.505-.043.823-.155.952-.112.13-.334.197-.667.202-.036.046-.053.115-.053.209 0 .094.017.163.053.21l.638-.018a26.253 26.253 0 0 1 1.819.017c.035-.046.053-.115.053-.209 0-.094-.018-.163-.053-.21-.291-.004-.484-.07-.577-.2-.093-.13-.136-.448-.128-.953V5.226Zm7.74.671v1.687a.392.392 0 0 1-.047.198.463.463 0 0 1-.117.131 3.33 3.33 0 0 1-.51.373c-.183.11-.359.167-.527.173-.293-.013-.508-.114-.645-.303a.99.99 0 0 1-.203-.598 1.41 1.41 0 0 1 .234-.818c.163-.253.458-.445.885-.577l.93-.266Zm0 2.346c.03.147.111.303.245.468.133.164.354.254.662.268.295-.02.534-.107.717-.262.184-.154.279-.257.285-.309a.26.26 0 0 0-.06-.141c-.035-.046-.067-.071-.094-.075-.03.009-.068.043-.115.102-.047.06-.13.093-.25.101-.22-.008-.356-.115-.407-.32a2.821 2.821 0 0 1-.064-.758v-1.89c-.02-.876-.21-1.459-.567-1.746a1.732 1.732 0 0 0-1.211-.396 2.33 2.33 0 0 0-1.334.447c-.386.282-.589.602-.61.96 0 .152.035.264.105.336.07.073.172.109.308.108.17-.007.3-.056.387-.147.087-.091.13-.182.13-.271a.892.892 0 0 0-.008-.129.38.38 0 0 0-.027-.1.484.484 0 0 1-.016-.088 1.57 1.57 0 0 1-.007-.165c.013-.194.12-.332.32-.414.202-.082.421-.121.657-.119.215-.02.425.075.628.287.203.212.312.666.327 1.362-.001.044-.009.079-.023.104-.014.026-.03.042-.048.048l-1.013.266c-.576.156-1.04.393-1.396.71-.355.318-.537.694-.547 1.13.01.494.154.848.432 1.06.279.211.63.314 1.052.309.258.004.475-.03.65-.105.176-.074.387-.217.633-.428l.236-.203h.024Zm3.051-.938c.01.506-.041.825-.154.957-.113.132-.344.198-.694.197-.035.046-.053.115-.053.209 0 .094.018.163.053.21l.651-.018a27.316 27.316 0 0 1 1.322 0l.654.017c.035-.046.053-.115.053-.209 0-.094-.018-.163-.053-.21-.35.002-.58-.064-.693-.196-.113-.132-.165-.451-.155-.957V1.459c.002-.417.01-.742.023-.975a9.61 9.61 0 0 1 .024-.357c.002-.087-.049-.129-.153-.127-.168.068-.42.136-.758.205a8.156 8.156 0 0 1-.891.138.565.565 0 0 0 0 .2.366.366 0 0 0 .07.18c.3-.007.502.038.607.135.105.096.154.398.147.905v5.542Zm5.438-1.408v1.687a.392.392 0 0 1-.047.198.463.463 0 0 1-.118.131 3.33 3.33 0 0 1-.51.373c-.182.11-.358.167-.526.173-.293-.013-.508-.114-.645-.303a.99.99 0 0 1-.203-.598 1.41 1.41 0 0 1 .233-.818c.164-.253.459-.445.886-.577l.93-.266Zm0 2.346c.03.147.11.303.244.468.134.164.354.254.663.268.294-.02.533-.107.717-.262.184-.154.278-.257.284-.309a.26.26 0 0 0-.059-.141c-.036-.046-.067-.071-.094-.075-.03.009-.068.043-.115.102-.048.06-.131.093-.25.101-.22-.008-.357-.115-.408-.32a2.821 2.821 0 0 1-.063-.758v-1.89c-.02-.876-.21-1.459-.567-1.746a1.732 1.732 0 0 0-1.212-.396 2.33 2.33 0 0 0-1.334.447c-.385.282-.588.602-.61.96.001.152.036.264.105.336.07.073.172.109.308.108.171-.007.3-.056.387-.147.087-.091.131-.182.131-.271a.891.891 0 0 0-.008-.129.38.38 0 0 0-.027-.1.484.484 0 0 1-.016-.088 1.57 1.57 0 0 1-.008-.165c.013-.194.12-.332.321-.414.202-.082.42-.121.657-.119.215-.02.424.075.627.287.203.212.312.666.327 1.362 0 .044-.008.079-.022.104-.014.026-.03.042-.049.048l-1.012.266c-.576.156-1.041.393-1.396.71-.355.318-.538.694-.548 1.13.01.494.155.848.433 1.06.278.211.629.314 1.051.309.258.004.475-.03.65-.105.177-.074.388-.217.634-.428l.236-.203h.023Z"/></svg>