<svg xmlns="http://www.w3.org/2000/svg" width="120" height="18" viewBox="0 0 120 18">
  <path fill="#fff" d="M0 0h120v18H0z"/>
  <path d="m117.381 10.745-1.067.26c-.423.106-.736.28-.939.52a1.19 1.19 0 0 0-.305.782c0 .224.087.435.261.634a.89.89 0 0 0 .698.299c.051 0 .11-.01.178-.032a1.168 1.168 0 0 0 .393-.197c.089-.063.152-.11.191-.14.038-.029.101-.08.19-.152.093-.076.148-.122.165-.14a.4.4 0 0 0 .171-.317l.064-1.517Zm-.064 2.158h-.025l-.248.197c-.279.216-.509.358-.691.425a1.989 1.989 0 0 1-.686.102c-1.033 0-1.549-.423-1.549-1.27 0-.414.186-.774.559-1.079.372-.304.867-.527 1.485-.666l1.168-.26c.042-.017.064-.108.064-.273 0-.635-.098-1.084-.292-1.346-.195-.262-.424-.394-.686-.394-.258 0-.489.053-.692.159-.203.102-.305.243-.305.425 0 .115.009.197.026.248.025.05.038.125.038.222 0 .093-.055.197-.165.311a.529.529 0 0 1-.406.171.49.49 0 0 1-.362-.14.524.524 0 0 1-.133-.367c0-.33.222-.63.666-.902a2.71 2.71 0 0 1 1.441-.412c1.231 0 1.82.702 1.765 2.107l-.064 1.841c-.017.39.009.673.076.85.072.174.22.26.445.26a.354.354 0 0 0 .26-.1.604.604 0 0 1 .114-.109c.034 0 .072.017.114.051.047.034.07.072.07.114 0 .026-.044.083-.133.172a1.369 1.369 0 0 1-.387.26 1.209 1.209 0 0 1-.534.127c-.473.004-.785-.237-.933-.724Zm-5.998-7.192c0-.156.072-.298.216-.425.148-.131.3-.197.457-.197.165 0 .311.072.438.216.127.144.19.296.19.457 0 .148-.07.29-.209.426a.661.661 0 0 1-.47.203c-.157 0-.301-.072-.432-.216a.688.688 0 0 1-.19-.464Zm.178 3.796c-.017-.364-.074-.592-.172-.685-.093-.098-.317-.163-.673-.197-.034-.106-.042-.184-.025-.235.825-.106 1.42-.23 1.784-.374.114 0 .169.03.165.088-.026.47-.043.92-.051 1.353a83.68 83.68 0 0 0-.032 1.796c0 .3.007.772.019 1.415.034 1.82-.285 3.003-.958 3.549-.356.296-.834.444-1.435.444a.86.86 0 0 1-.47-.152.454.454 0 0 1-.241-.407c0-.105.049-.194.146-.266a.458.458 0 0 1 .267-.102c.042 0 .087.007.133.02.042.012.078.025.108.037a.9.9 0 0 1 .102.07c.042.03.072.051.088.064a.615.615 0 0 1 .077.076c.033.038.055.063.063.076.097.097.233.144.406.14.407 0 .641-1.035.705-3.104a8.05 8.05 0 0 0 .006-.26 48.233 48.233 0 0 0 .026-1.65c0-.657-.013-1.222-.038-1.696Z"/>
  <path d="M107.733 5.711c0-.156.074-.298.222-.425.148-.131.3-.197.457-.197.165 0 .309.072.432.216.126.144.19.296.19.457 0 .148-.07.29-.21.426a.636.636 0 0 1-.463.203c-.156 0-.3-.072-.432-.216a.677.677 0 0 1-.196-.464Zm1.117 6.373c.008.53.065.853.171.972.106.114.362.184.768.21.034.033.051.082.051.145 0 .06-.017.11-.051.152-.165 0-.391-.01-.679-.031a9.984 9.984 0 0 0-.724-.032c-.198 0-.446.01-.742.032-.296.02-.523.031-.679.031-.098-.097-.098-.196 0-.298.406-.034.66-.108.761-.222.102-.118.161-.438.178-.958.017-.58.025-1.065.025-1.454 0-.229-.008-.603-.025-1.124-.008-.372-.061-.603-.159-.692-.093-.093-.321-.156-.685-.19-.034-.106-.043-.184-.026-.235.754-.097 1.329-.222 1.727-.374.114 0 .171.03.171.088l-.019.216a53.226 53.226 0 0 1-.063 1.13 30.213 30.213 0 0 0-.026 1.193c0 .216.009.697.026 1.441Zm-4.342.013.025-2.615c0-.296-.07-.52-.209-.673-.25-.296-.597-.444-1.041-.444-.538 0-.944.207-1.219.622-.241.347-.364.937-.368 1.77 0 .729.15 1.315.45 1.76.301.44.633.66.997.66.33 0 .719-.2 1.168-.597.123-.115.188-.275.197-.483Zm-.146.78c-.622.505-1.136.754-1.543.75-.651 0-1.166-.245-1.542-.736-.377-.495-.565-1.132-.565-1.911 0-.876.286-1.6.857-2.17.529-.505 1.149-.756 1.86-.756.122 0 .26.019.412.057.157.038.288.076.394.114.11.034.169.05.178.05.076 0 .116-.04.12-.12 0-.998-.008-1.714-.025-2.145-.017-.487-.066-.773-.146-.857-.076-.085-.292-.136-.648-.153-.076-.076-.101-.158-.076-.247.728-.06 1.282-.17 1.663-.33.106 0 .157.04.153.12-.017.242-.034.631-.051 1.168-.017.33-.026 1.382-.026 3.155s.009 2.825.026 3.155c.017.326.078.55.184.673.11.123.351.2.724.235.067.067.067.133 0 .197-.635.076-1.111.243-1.429.501a.368.368 0 0 1-.235 0 2.809 2.809 0 0 1-.126-.736c0-.094-.053-.098-.159-.013Zm-8.366-2.741 2.513-.07c.123 0 .182-.055.178-.165 0-.495-.114-.876-.343-1.143-.228-.27-.503-.406-.825-.406-.305 0-.61.142-.914.425-.3.284-.504.737-.61 1.359Zm3.434 2.209c.14.008.226.076.26.203-.546.72-1.27 1.079-2.171 1.079-.868 0-1.521-.262-1.961-.787-.39-.449-.584-1.064-.584-1.847 0-.885.264-1.596.793-2.133.53-.538 1.113-.806 1.752-.806.787 0 1.344.211 1.67.634.325.42.488.936.488 1.55 0 .147-.078.222-.235.222l-3.484.05c0 .737.13 1.316.393 1.74.182.296.41.52.686.672.279.153.543.229.793.229.33 0 .614-.068.85-.203a3.37 3.37 0 0 0 .75-.603ZM90.2 9.222c-.123.13-.188.357-.197.679l-.025 2.298c0 .398.104.687.311.87.199.173.472.26.819.26.432 0 .793-.134 1.085-.4a2.03 2.03 0 0 0 .59-.914c.106-.343.16-.707.16-1.092 0-.686-.16-1.261-.477-1.727-.313-.465-.675-.698-1.085-.698-.317-.004-.711.237-1.18.724Zm-.101-.286c.57-.588 1.117-.882 1.637-.882.614 0 1.132.254 1.555.761.428.508.642 1.099.642 1.771 0 .961-.31 1.742-.927 2.343-.495.47-1.1.702-1.816.698-.347 0-.685-.064-1.015-.19-.131-.051-.197-.022-.197.088 0 .745.009 1.335.025 1.771.017.504.079.81.184.92.106.115.383.185.832.21.085.098.085.189 0 .273-.148 0-.379-.01-.692-.032a11.654 11.654 0 0 0-.774-.031c-.19 0-.426.01-.705.032a9.16 9.16 0 0 1-.635.031c-.084-.084-.084-.175 0-.273.381-.017.618-.084.711-.203.098-.118.155-.427.172-.927.017-.33.025-1.307.025-2.932s-.008-2.599-.025-2.92c-.017-.347-.072-.565-.165-.654-.09-.093-.303-.157-.641-.19-.034-.098-.043-.172-.026-.223.686-.097 1.219-.213 1.6-.349.106 0 .156.026.152.076a7.382 7.382 0 0 0-.038.794c0 .025.006.044.02.057.012.013.027.017.043.013a.11.11 0 0 0 .058-.032Zm-7.821 2.031c0-.825.229-1.506.686-2.044.495-.58 1.142-.87 1.942-.87.597 0 1.098.149 1.505.445.406.292.69.641.85 1.047.161.402.241.836.241 1.302 0 .859-.268 1.553-.806 2.082-.486.47-1.091.702-1.815.698-.825 0-1.466-.267-1.924-.8a2.802 2.802 0 0 1-.679-1.86Zm2.444-2.615c-.512 0-.882.23-1.11.692-.23.457-.343 1.003-.343 1.638 0 .355.055.725.165 1.11.114.386.313.739.596 1.06.288.318.63.477 1.029.477.355 0 .687-.172.996-.514.31-.348.464-.872.464-1.575 0-.884-.166-1.587-.496-2.107-.33-.52-.763-.78-1.3-.78Zm-5.046 3.808c.025-.892.038-1.984.038-3.275 0-1.413-.013-2.372-.038-2.875-.017-.449-.072-.724-.165-.825-.09-.106-.296-.168-.622-.185-.051-.05-.066-.133-.045-.247.728-.06 1.285-.17 1.67-.33.114 0 .169.04.165.12-.026.242-.043.631-.051 1.168a179.717 179.717 0 0 0-.032 3.51c0 1.13.01 2.11.032 2.94.008.495.061.8.159.914.101.11.347.173.736.19.097.106.097.205 0 .298-.157 0-.379-.01-.667-.031a9.875 9.875 0 0 0-.71-.032c-.19 0-.43.01-.718.032a9.4 9.4 0 0 1-.647.031c-.098-.105-.098-.205 0-.298.39-.017.632-.08.73-.19.101-.115.156-.42.165-.914Zm-6.526 0c.026-.892.036-1.984.032-3.275 0-.63-.002-1.206-.006-1.726a28.8 28.8 0 0 0-.026-1.15c-.017-.448-.072-.723-.165-.824-.088-.106-.298-.168-.628-.185-.05-.05-.064-.133-.038-.247.728-.06 1.282-.17 1.663-.33.114 0 .171.04.171.12a16.68 16.68 0 0 0-.057 1.168 153.72 153.72 0 0 0-.025 3.51c0 .445.002.904.006 1.378a2.71 2.71 0 0 0 .527-.133c.212-.076.38-.161.508-.254.313-.233.643-.571.99-1.016a.494.494 0 0 0 .102-.247.456.456 0 0 0-.096-.337c-.076-.114-.218-.18-.425-.196a.237.237 0 0 1-.05-.153c0-.063.016-.112.05-.146.131 0 .324.01.578.032.258.021.474.032.647.032.157 0 .34-.01.552-.032a5.56 5.56 0 0 1 .527-.032c.098.106.098.205 0 .299-.478.05-.912.285-1.3.704l-1.093 1.117a.172.172 0 0 0-.05.127c0 .034.03.091.088.172l1.638 2.056c.313.398.669.622 1.067.673.033.034.05.083.05.146 0 .06-.017.11-.05.152a5.45 5.45 0 0 1-.483-.031 5.765 5.765 0 0 0-.546-.032c-.148 0-.288.01-.419.032a1.905 1.905 0 0 1-.266.031c-.017 0-.034-.02-.051-.063-.076-.28-.237-.582-.483-.908l-.901-1.212a1.42 1.42 0 0 0-.203-.229.698.698 0 0 0-.222-.146.862.862 0 0 0-.286-.082 4.428 4.428 0 0 0-.4-.025l.02 1.263c.008.495.063.8.164.914.102.11.347.173.737.19.097.106.097.205 0 .298-.157 0-.38-.01-.667-.031a9.875 9.875 0 0 0-.71-.032c-.191 0-.43.01-.718.032a9.649 9.649 0 0 1-.648.031.24.24 0 0 1-.063-.14.188.188 0 0 1 .063-.158c.39-.017.633-.08.73-.19.102-.115.157-.42.165-.914Zm-3.351-6.449c0-.156.074-.298.222-.425.148-.131.3-.197.457-.197.165 0 .309.072.432.216.127.144.19.296.19.457 0 .148-.07.29-.21.426a.638.638 0 0 1-.463.203c-.156 0-.3-.072-.431-.216a.678.678 0 0 1-.197-.464Zm1.117 6.373c.008.53.066.853.171.972.106.114.362.184.769.21.033.033.05.082.05.145 0 .06-.017.11-.05.152-.166 0-.392-.01-.68-.031a9.992 9.992 0 0 0-.723-.032c-.2 0-.447.01-.743.032-.296.02-.523.031-.68.031-.097-.097-.097-.196 0-.298.407-.034.66-.108.763-.222.101-.118.16-.438.177-.958.017-.58.026-1.065.026-1.454 0-.229-.009-.603-.026-1.124-.008-.372-.061-.603-.159-.692-.093-.093-.321-.156-.685-.19-.034-.106-.042-.184-.025-.235.753-.097 1.328-.222 1.726-.374.114 0 .172.03.172.088l-.02.216a94.408 94.408 0 0 1-.063 1.13 23.953 23.953 0 0 0-.025 1.194c0 .215.008.696.025 1.44Zm-2.672.286c-.52.842-1.215 1.261-2.082 1.257-.77 0-1.384-.248-1.841-.743-.453-.5-.68-1.153-.68-1.961 0-.834.271-1.52.813-2.057.542-.541 1.14-.812 1.797-.812.588 0 1.064.11 1.428.33.368.22.552.503.552.85 0 .182-.061.32-.184.413a.696.696 0 0 1-.42.133c-.278 0-.433-.146-.462-.438-.077-.66-.403-.99-.978-.99-.423 0-.79.218-1.098.654-.31.431-.463.98-.463 1.644 0 .753.175 1.358.526 1.815.352.457.779.686 1.283.686.266 0 .55-.085.85-.254.3-.17.555-.39.762-.66.097.012.163.057.197.133Zm-9.617-3.3c.605-.678 1.329-1.016 2.17-1.016.488 0 .839.141 1.055.425.093.131.158.288.196.47a3.067 3.067 0 0 1 .051.825 1.9 1.9 0 0 1-.006.171 26.243 26.243 0 0 0-.006 2.203c.016.495.07.798.158.908.093.106.318.175.673.21.085.105.085.204 0 .297-.165 0-.372-.01-.622-.031a7.84 7.84 0 0 0-.648-.032c-.173 0-.387.01-.64.032-.25.02-.454.031-.61.031-.085-.097-.085-.196 0-.298.33-.034.535-.104.616-.21.084-.11.135-.412.152-.907.025-.728.025-1.451 0-2.17-.017-.521-.061-.843-.133-.966-.148-.296-.368-.442-.66-.438-.25 0-.53.068-.838.203a2.611 2.611 0 0 0-.8.52.815.815 0 0 0-.21.521c-.025.52-.025 1.297 0 2.33.009.495.051.798.127.908.08.106.286.175.616.21.034.033.05.082.05.145 0 .06-.016.11-.05.152-.157 0-.351-.01-.584-.031a6.655 6.655 0 0 0-1.32 0 8.831 8.831 0 0 1-.622.031.236.236 0 0 1-.051-.152c0-.063.017-.112.05-.146.382-.034.62-.104.718-.21.097-.11.15-.412.159-.907.025-1.05.025-1.95 0-2.704-.009-.356-.062-.576-.159-.66-.093-.09-.309-.15-.648-.184-.033-.098-.042-.172-.025-.223.728-.097 1.274-.213 1.638-.349.106 0 .156.03.152.09-.042.38-.063.697-.063.951 0 .106.038.106.114 0Zm-6.443 1.066 2.514-.07c.123 0 .182-.055.178-.165 0-.495-.115-.876-.343-1.143-.229-.27-.504-.406-.825-.406-.305 0-.61.142-.914.425-.301.284-.504.737-.61 1.359Zm3.434 2.209c.14.008.227.076.26.203-.545.72-1.27 1.079-2.17 1.079-.868 0-1.522-.262-1.962-.787-.39-.449-.584-1.064-.584-1.847 0-.885.265-1.596.794-2.133.528-.538 1.112-.806 1.752-.806.787 0 1.343.211 1.669.634.326.42.489.936.489 1.55 0 .147-.079.222-.235.222l-3.485.05c0 .737.131 1.316.394 1.74.181.296.41.52.685.672.28.153.544.229.794.229.33 0 .613-.068.85-.203.241-.136.491-.337.75-.603Zm-10.258-1.6-1.066.26c-.423.106-.736.28-.94.52a1.19 1.19 0 0 0-.304.782c0 .224.087.435.26.634.178.2.41.299.698.299a1.061 1.061 0 0 0 .362-.102c.055-.025.125-.068.21-.127a6.435 6.435 0 0 0 .546-.431.403.403 0 0 0 .17-.318l.064-1.517Zm-.063 2.158h-.025l-.248.197c-.28.216-.51.358-.692.425-.182.068-.41.102-.685.102-1.033 0-1.55-.423-1.55-1.27 0-.414.187-.774.56-1.079.372-.304.867-.527 1.485-.666l1.168-.26c.042-.017.063-.108.063-.273 0-.635-.097-1.084-.292-1.346-.195-.262-.423-.394-.686-.394a1.47 1.47 0 0 0-.691.159c-.203.102-.305.243-.305.425a.86.86 0 0 0 .025.248.5.5 0 0 1 .038.222c0 .093-.055.197-.165.311a.529.529 0 0 1-.406.171.49.49 0 0 1-.362-.14.525.525 0 0 1-.133-.367c0-.33.222-.63.666-.902a2.71 2.71 0 0 1 1.441-.412c1.232 0 1.82.702 1.765 2.107l-.063 1.841c-.017.39.008.673.076.85.072.174.22.26.444.26a.353.353 0 0 0 .26-.1.574.574 0 0 1 .115-.109c.033 0 .072.017.114.051.046.034.07.072.07.114 0 .026-.045.083-.134.172a1.357 1.357 0 0 1-.387.26 1.204 1.204 0 0 1-.533.127c-.474.004-.785-.237-.933-.724ZM36.994 9.07c.605-.678 1.329-1.016 2.171-1.016.487 0 .838.141 1.054.425.093.131.158.288.197.47a3.067 3.067 0 0 1 .05.825 1.9 1.9 0 0 1-.006.171c0 .043-.002.11-.006.203a26.243 26.243 0 0 0 0 2c.017.495.07.798.158.908.093.106.318.175.673.21.085.105.085.204 0 .297-.165 0-.372-.01-.622-.031a7.84 7.84 0 0 0-.647-.032c-.174 0-.388.01-.642.032-.25.02-.452.031-.609.031-.084-.097-.084-.196 0-.298.33-.034.535-.104.616-.21.084-.11.135-.412.152-.907.026-.728.026-1.451 0-2.17-.017-.521-.061-.843-.133-.966-.148-.296-.368-.442-.66-.438-.25 0-.53.068-.838.203a2.611 2.611 0 0 0-.8.52.815.815 0 0 0-.21.521c-.025.52-.025 1.297 0 2.33.009.495.051.798.127.908.08.106.286.175.616.21.034.033.051.082.051.145 0 .06-.017.11-.05.152-.157 0-.352-.01-.585-.031a6.657 6.657 0 0 0-1.32 0 8.831 8.831 0 0 1-.622.031.236.236 0 0 1-.05-.152c0-.063.016-.112.05-.146.38-.034.62-.104.717-.21.097-.11.15-.412.159-.907.025-1.05.025-1.95 0-2.704-.009-.356-.062-.576-.159-.66-.093-.09-.309-.15-.647-.184-.034-.098-.043-.172-.026-.223.728-.097 1.274-.213 1.638-.349.106 0 .157.03.152.09-.042.38-.063.697-.063.951 0 .106.038.106.114 0Zm-4.329 3.027.025-2.615c0-.296-.07-.52-.209-.673-.25-.296-.597-.444-1.041-.444-.538 0-.944.207-1.219.622-.241.347-.364.937-.368 1.77 0 .729.15 1.315.45 1.76.301.44.633.66.997.66.33 0 .72-.2 1.168-.597.123-.115.189-.275.197-.483Zm-.146.78c-.622.505-1.136.754-1.542.75-.652 0-1.166-.245-1.543-.736-.377-.495-.565-1.132-.565-1.911 0-.876.286-1.6.857-2.17.529-.505 1.149-.756 1.86-.756.123 0 .26.019.413.057.156.038.287.076.393.114.11.034.17.05.178.05.076 0 .116-.04.12-.12 0-.998-.008-1.714-.025-2.145-.017-.487-.066-.773-.146-.857-.076-.085-.292-.136-.647-.153-.077-.076-.102-.158-.077-.247.728-.06 1.283-.17 1.663-.33.106 0 .157.04.153.12-.017.242-.034.631-.05 1.168-.018.33-.026 1.382-.026 3.155s.008 2.825.025 3.155c.017.326.078.55.184.673.11.123.351.2.724.235.067.067.067.133 0 .197-.635.076-1.111.243-1.428.501-.098.025-.176.025-.235 0a2.791 2.791 0 0 1-.127-.736c0-.094-.053-.098-.159-.013Zm-9.947-1.91c0-.825.229-1.506.686-2.044.495-.58 1.142-.87 1.942-.87.597 0 1.098.149 1.505.445.406.292.69.641.85 1.047.161.402.241.836.241 1.302 0 .859-.268 1.553-.806 2.082-.486.47-1.092.702-1.815.698-.825 0-1.466-.267-1.924-.8a2.802 2.802 0 0 1-.679-1.86Zm2.444-2.615c-.512 0-.882.23-1.11.692-.23.457-.343 1.003-.343 1.638 0 .355.055.725.165 1.11.114.386.313.739.596 1.06.288.318.63.477 1.028.477.356 0 .688-.172.997-.514.309-.348.463-.872.463-1.575 0-.884-.165-1.587-.495-2.107-.33-.52-.764-.78-1.3-.78Zm-6.989.521a.67.67 0 0 0-.235.52c0 1.803.009 2.92.026 3.352.313.389.607.584.882.584.571 0 1.02-.248 1.346-.743.326-.5.489-1.122.489-1.866 0-.669-.144-1.215-.432-1.638-.28-.406-.62-.611-1.022-.616a1.58 1.58 0 0 0-1.054.407Zm-.089-.26c.415-.373.879-.56 1.39-.56.572 0 1.08.23 1.524.686.448.453.673 1.04.673 1.759 0 .926-.286 1.68-.857 2.26-.571.58-1.2.869-1.885.869-.462 0-.843-.125-1.143-.375-.114-.105-.229-.093-.343.038-.025.026-.158.144-.4.356a.173.173 0 0 1-.165-.095.328.328 0 0 1-.031-.051.96.96 0 0 1 .05-.171 1.93 1.93 0 0 0 .076-.318 3.1 3.1 0 0 0 .045-.393c.017-.339.027-1.44.032-3.301.004-1.866-.002-2.969-.02-3.307-.016-.432-.071-.703-.164-.813-.09-.114-.299-.18-.629-.197a.241.241 0 0 1-.063-.247c.736-.06 1.295-.17 1.675-.33.106 0 .157.04.153.12-.009.242-.021.631-.038 1.168l-.026 2.85c0 .11.049.127.146.051Zm-7.82 2.354c0-.825.229-1.506.686-2.044.495-.58 1.142-.87 1.942-.87.597 0 1.098.149 1.505.445.406.292.69.641.85 1.047.16.402.241.836.241 1.302 0 .859-.268 1.553-.806 2.082-.486.47-1.092.702-1.815.698-.825 0-1.467-.267-1.924-.8a2.802 2.802 0 0 1-.679-1.86Zm2.444-2.615c-.512 0-.882.23-1.11.692-.23.457-.344 1.003-.344 1.638 0 .355.055.725.165 1.11a2.8 2.8 0 0 0 .597 1.06c.288.318.63.477 1.028.477.356 0 .688-.172.997-.514.309-.348.463-.872.463-1.575 0-.884-.165-1.587-.495-2.107-.33-.52-.764-.78-1.301-.78ZM7.516 12.16c.025-.892.038-1.984.038-3.275 0-1.413-.013-2.372-.038-2.875-.017-.449-.072-.724-.165-.825-.09-.106-.297-.168-.622-.185-.051-.05-.066-.133-.045-.247.728-.06 1.284-.17 1.67-.33.114 0 .169.04.165.12-.026.242-.043.631-.051 1.168a179.233 179.233 0 0 0-.032 3.51c0 1.13.01 2.11.032 2.94.008.495.061.8.158.914.102.11.347.173.737.19.097.106.097.205 0 .298-.157 0-.379-.01-.667-.031a9.876 9.876 0 0 0-.71-.032c-.191 0-.43.01-.718.032-.283.02-.5.031-.647.031-.098-.105-.098-.205 0-.298.389-.017.632-.08.73-.19.101-.115.156-.42.165-.914ZM5.129 5.299c.118.597.197 1.155.235 1.676-.064.05-.161.076-.292.076-.36-1.198-1.045-1.794-2.057-1.79-.372 0-.707.169-1.003.508-.296.338-.444.696-.444 1.072 0 .203.046.398.14.584.097.182.207.335.33.457.127.119.296.24.507.362.216.123.39.214.52.273.136.06.314.131.534.216l.394.152c.55.237.984.525 1.3.864.318.338.477.79.477 1.358 0 .41-.11.804-.33 1.18-.22.377-.516.682-.889.915-.457.283-.992.425-1.606.425-.41 0-.842-.049-1.295-.146-.448-.102-.795-.152-1.04-.152-.132-.546-.219-1.204-.26-1.975a1.74 1.74 0 0 1 .132-.063.554.554 0 0 1 .16.025c.092.424.253.785.482 1.086.228.296.505.518.831.666.326.149.692.223 1.098.223.512 0 .914-.155 1.206-.464.296-.313.445-.734.445-1.263a1.962 1.962 0 0 0-.368-1.136 1.594 1.594 0 0 0-.42-.362 3.408 3.408 0 0 0-.444-.254 8.242 8.242 0 0 0-.501-.203 20.2 20.2 0 0 1-.432-.178 6.343 6.343 0 0 1-.724-.368 3.85 3.85 0 0 1-.584-.45 1.792 1.792 0 0 1-.425-.623 2.101 2.101 0 0 1-.146-.793c0-.669.241-1.21.724-1.625.486-.42 1.07-.629 1.752-.629.495 0 .92.055 1.276.165.36.11.598.174.717.19Z"/>
</svg>
