<svg xmlns="http://www.w3.org/2000/svg" width="120" height="10"><path d="M3.442 4.784H1.914l-.306.523-.349.58a1.903 1.903 0 0 0-.15.337.77.77 0 0 0-.036.232c0 .08.031.155.093.224.062.068.165.108.308.118v.186H0l.036-.186a.74.74 0 0 0 .35-.191c.136-.135.33-.412.586-.831L4.468 0h.164l-.164 5.59c-.007.292-.01.468-.01.528 0 .228.033.395.1.499.066.104.177.164.333.181l-.037.186H2.718l.04-.186c.211-.027.333-.05.364-.07.068-.047.13-.146.186-.295.055-.15.09-.409.102-.778l.032-.871Zm0-.413.095-2.226-1.372 2.226h1.277Zm2.984 2.754h-.13c.006-.275.01-.483.01-.624 0-.383-.021-.936-.064-1.66-.042-.723-.09-1.205-.143-1.447-.042-.178-.096-.307-.164-.388a.224.224 0 0 0-.178-.08.681.681 0 0 0-.15.02v-.181l1.212-.449c.243.917.36 2.09.353 3.52.357-.47.602-.85.737-1.143.135-.292.202-.535.202-.73 0-.154-.042-.311-.126-.47a2.38 2.38 0 0 1-.156-.34.752.752 0 0 1-.031-.222.74.74 0 0 1 .124-.438c.082-.118.186-.177.313-.177.133 0 .236.06.309.177.102.164.153.359.153.584 0 .231-.03.459-.09.682-.059.223-.16.487-.305.79a5.46 5.46 0 0 1-.482.829c-.325.457-.79 1.039-1.394 1.747Zm4.727-4.809c.191 0 .372.062.54.184.169.123.296.293.382.511.086.218.13.46.13.725a4.33 4.33 0 0 1-.33 1.632c-.22.544-.509.973-.868 1.286-.359.314-.72.471-1.084.471a.868.868 0 0 1-.766-.408c-.18-.271-.271-.604-.271-.997 0-.466.067-.903.202-1.311A4.24 4.24 0 0 1 9.6 3.34c.207-.304.446-.55.715-.74.27-.19.548-.285.837-.285Zm-.15.267a.396.396 0 0 0-.32.156c-.17.212-.361.706-.574 1.483-.214.777-.32 1.478-.32 2.103a.67.67 0 0 0 .101.382c.068.101.148.151.24.151a.33.33 0 0 0 .252-.12c.106-.121.237-.392.393-.814.155-.421.282-.886.381-1.395.1-.508.15-.974.15-1.397 0-.174-.03-.31-.091-.405-.06-.096-.131-.144-.211-.144Zm3.341-.267-.746 3.58a2.652 2.652 0 0 0-.062.403.18.18 0 0 0 .033.104c.022.032.045.048.07.048.04 0 .082-.026.123-.076.11-.124.24-.35.393-.675l.124.101c-.367.883-.756 1.324-1.168 1.324a.45.45 0 0 1-.377-.183.746.746 0 0 1-.14-.466c0-.124.02-.282.062-.474l.505-2.407c.049-.231.073-.406.073-.523a.304.304 0 0 0-.069-.197.23.23 0 0 0-.19-.085c-.035 0-.08.001-.13.005l.047-.202 1.234-.277h.218Zm2.875.141h.997L16.24 6.355c.041.745.112 1.263.211 1.553.1.29.245.436.437.436.191 0 .325-.146.4-.438h.134c-.06.806-.28 1.208-.662 1.208-.257 0-.433-.204-.527-.614-.095-.41-.152-1.014-.171-1.813l-1.176 2.291H13.86L16 4.804c-.056-.752-.131-1.233-.226-1.443-.094-.21-.23-.314-.404-.314-.184 0-.314.139-.39.417h-.156c.107-.765.339-1.148.695-1.148.153 0 .28.07.383.21.101.139.166.32.194.543.028.223.055.688.082 1.393l1.04-2.005Zm2.958 1.088-.346 1.365c-.1.39-.149.686-.149.891 0 .319.097.478.291.478.182 0 .318-.15.408-.453h.167c-.21.866-.531 1.3-.96 1.3-.515 0-.772-.293-.772-.877 0-.329.077-.757.23-1.284l.403-1.42h-.364c-.247 0-.429.034-.545.1-.117.068-.215.202-.295.404l-.095-.06c.08-.363.177-.662.29-.897.112-.235.235-.4.369-.494a.8.8 0 0 1 .473-.14h2.172l-.214 1.087h-1.063Zm4.137-1.088h.95l-.713 2.14c-.126.383-.238.69-.335.922.012.537.137.806.375.806.228 0 .342-.168.342-.504h.171c0 .87-.178 1.304-.535 1.304-.325 0-.5-.416-.524-1.248-.41.832-.933 1.248-1.568 1.248-.299 0-.545-.15-.739-.448-.194-.299-.291-.681-.291-1.148 0-.514.117-1.042.351-1.586.234-.544.504-.951.808-1.221.304-.27.594-.406.868-.406.32 0 .51.328.571.982l.27-.84Zm-.422 1.315c0-.658-.123-.987-.37-.987-.27 0-.55.382-.841 1.145-.291.764-.437 1.448-.437 2.052 0 .517.103.776.31.776.108 0 .222-.104.34-.31.117-.206.285-.624.503-1.251l.495-1.425ZM23.947 0h1.12l-1.226 1.762h-.327L23.947 0Zm3.61 9.19h-.936c.178-.322.345-.846.503-1.571l1.12-5.172c.134-.624.266-1.087.397-1.387.13-.3.33-.552.595-.755C29.5.102 29.79 0 30.104 0c.322 0 .586.112.791.337.205.225.308.517.308.877 0 .362-.092.722-.275 1.08a1.803 1.803 0 0 1-.817.808c.359.36.538.822.538 1.39 0 .426-.076.86-.229 1.301-.153.442-.355.774-.606.997-.25.224-.51.335-.78.335-.294 0-.547-.17-.76-.508l-.204 1.002c-.146.708-.317 1.232-.514 1.57Zm.79-2.885c.125.221.268.332.428.332.265 0 .497-.306.697-.917.2-.61.3-1.279.3-2.004 0-.188-.012-.35-.036-.488a.766.766 0 0 1-.167.025.197.197 0 0 1-.153-.076.289.289 0 0 1-.066-.196c0-.178.067-.267.2-.267.08 0 .17.045.27.136a4.82 4.82 0 0 0 .391-1.025c.115-.418.173-.778.173-1.08 0-.315-.11-.473-.328-.473-.165 0-.295.097-.39.292-.097.195-.218.64-.367 1.334l-.953 4.407Zm4.628-3.989-.746 3.58a2.652 2.652 0 0 0-.062.403c0 .037.01.072.033.104.021.032.044.048.069.048.041 0 .082-.026.123-.076.11-.124.24-.35.393-.675l.124.101c-.366.883-.755 1.324-1.168 1.324a.45.45 0 0 1-.377-.183.747.747 0 0 1-.14-.466c0-.124.021-.282.062-.474l.506-2.407c.049-.231.073-.406.073-.523a.304.304 0 0 0-.07-.197.23.23 0 0 0-.189-.085c-.036 0-.08.001-.13.005l.047-.202 1.233-.277h.219Zm.462 6.874h-.935c.177-.322.344-.846.502-1.571l1.12-5.172c.134-.624.266-1.087.397-1.387.131-.3.33-.552.595-.755A1.4 1.4 0 0 1 35.984 0c.323 0 .586.112.791.337.205.225.308.517.308.877 0 .362-.092.722-.275 1.08a1.803 1.803 0 0 1-.817.808c.36.36.539.822.539 1.39 0 .426-.077.86-.23 1.301-.152.442-.354.774-.605.997-.251.224-.511.335-.78.335-.294 0-.548-.17-.761-.508l-.204 1.002c-.146.708-.317 1.232-.513 1.57Zm.79-2.885c.126.221.269.332.429.332.264 0 .497-.306.697-.917.2-.61.3-1.279.3-2.004 0-.188-.012-.35-.036-.488a.766.766 0 0 1-.168.025.197.197 0 0 1-.153-.076.289.289 0 0 1-.065-.196c0-.178.066-.267.2-.267.08 0 .17.045.27.136a4.82 4.82 0 0 0 .39-1.025 4.13 4.13 0 0 0 .173-1.08c0-.315-.109-.473-.327-.473-.165 0-.296.097-.392.292-.095.195-.217.64-.365 1.334l-.953 4.407Zm3.449.68h-1.132l2.599-4.558.01-.352a6.82 6.82 0 0 0 .004-.222c0-.41-.05-.672-.153-.788-.102-.116-.212-.174-.33-.174-.227 0-.392.173-.496.519h-.138c.044-.433.138-.776.284-1.03.145-.253.314-.38.506-.38.148 0 .279.084.392.252.114.168.172.438.172.81 0 .111-.006.282-.019.514l-.193 3.63c-.004.091-.007.18-.007.268 0 .497.136.745.408.745.165 0 .278-.126.338-.378h.135c0 .376-.058.674-.175.894-.116.22-.263.33-.44.33-.323 0-.484-.346-.484-1.037 0-.06.002-.133.007-.217l.073-1.41-1.361 2.583Zm4.483-4.669-.746 3.58a2.652 2.652 0 0 0-.062.403.18.18 0 0 0 .033.104c.022.032.045.048.07.048.04 0 .082-.026.123-.076.109-.124.24-.35.393-.675l.123.101c-.366.883-.755 1.324-1.168 1.324a.45.45 0 0 1-.376-.183.746.746 0 0 1-.14-.466c0-.124.02-.282.062-.474l.505-2.407c.049-.231.073-.406.073-.523a.304.304 0 0 0-.069-.197.23.23 0 0 0-.19-.085c-.036 0-.08.001-.13.005l.047-.202 1.234-.277h.218ZM41.893 0h1.121l-1.226 1.762h-.328L41.893 0Zm3.468 2.457h.95l-.713 2.14c-.127.383-.238.69-.335.922.012.537.137.806.375.806.228 0 .342-.168.342-.504h.17c0 .87-.178 1.304-.534 1.304-.325 0-.5-.416-.524-1.248-.41.832-.933 1.248-1.568 1.248-.299 0-.545-.15-.74-.448-.193-.299-.29-.681-.29-1.148 0-.514.117-1.042.35-1.586.235-.544.504-.951.809-1.221.304-.27.593-.406.868-.406.32 0 .51.328.57.982l.27-.84Zm-.422 1.315c0-.658-.124-.987-.371-.987-.27 0-.55.382-.84 1.145-.292.764-.437 1.448-.437 2.052 0 .517.103.776.309.776.11 0 .222-.104.34-.31.118-.206.286-.624.504-1.251l.495-1.425Zm4.818 2.92c-.022 1.679-.285 2.518-.79 2.518a.36.36 0 0 1-.333-.196.875.875 0 0 1-.11-.438c0-.517.333-1.209 1-2.075.044-.39.065-.818.065-1.284 0-.702-.04-1.192-.12-1.47-.08-.28-.206-.418-.378-.418-.126 0-.225.074-.297.224a1.25 1.25 0 0 0-.107.54l-.138.011c0-.443.019-.779.056-1.007a1.28 1.28 0 0 1 .219-.562c.107-.146.238-.219.39-.219.445 0 .666.573.666 1.717 0 .568-.03 1.266-.09 2.095.322-.486.529-.852.62-1.097.09-.246.136-.489.136-.73 0-.158-.033-.35-.102-.575a2.006 2.006 0 0 1-.101-.574c0-.262.047-.466.142-.614a.44.44 0 0 1 .389-.222c.165 0 .285.078.36.235.075.156.113.338.113.546 0 .873-.53 2.071-1.59 3.595Zm3.551-4.376-.746 3.58a2.66 2.66 0 0 0-.061.403c0 .037.01.072.032.104s.045.048.07.048c.04 0 .082-.026.123-.076.11-.124.24-.35.393-.675l.124.101c-.367.883-.756 1.324-1.168 1.324a.45.45 0 0 1-.377-.183.746.746 0 0 1-.14-.466c0-.124.02-.282.062-.474l.506-2.407c.048-.231.072-.406.072-.523a.304.304 0 0 0-.069-.197.23.23 0 0 0-.189-.085c-.036 0-.08.001-.13.005l.046-.202 1.234-.277h.218Zm3.202.141h.95l-.713 2.14c-.126.383-.238.69-.335.922.012.537.137.806.375.806.228 0 .342-.168.342-.504h.171c0 .87-.178 1.304-.535 1.304-.325 0-.5-.416-.524-1.248-.41.832-.933 1.248-1.568 1.248-.299 0-.545-.15-.739-.448-.194-.299-.291-.681-.291-1.148 0-.514.117-1.042.351-1.586.234-.544.504-.951.808-1.221.304-.27.594-.406.868-.406.32 0 .51.328.571.982l.27-.84Zm-.422 1.315c0-.658-.123-.987-.37-.987-.27 0-.55.382-.841 1.145-.291.764-.437 1.448-.437 2.052 0 .517.103.776.31.776.108 0 .222-.104.34-.31.117-.206.285-.624.503-1.251l.495-1.425Zm4.64.705a.91.91 0 0 1-.471-.368 1.035 1.035 0 0 1-.191-.6c0-.338.115-.622.347-.85.232-.228.553-.343.963-.343.376 0 .661.093.856.277.196.185.293.39.293.615 0 .13-.034.249-.102.355-.068.105-.156.158-.265.158-.206 0-.318-.166-.335-.498-.02-.417-.14-.625-.364-.625-.199 0-.357.145-.475.433a2.198 2.198 0 0 0-.176.831.65.65 0 0 0 .11.38c.075.106.168.16.28.16.048 0 .141-.026.28-.076a.53.53 0 0 1 .163-.04c.104 0 .157.063.157.19 0 .135-.053.202-.157.202a.57.57 0 0 1-.09-.01 1.131 1.131 0 0 0-.245-.04c-.264 0-.476.15-.636.453-.16.302-.24.665-.24 1.088 0 .453.136.68.41.68.141 0 .246-.045.315-.134.07-.089.122-.233.159-.43.087-.494.25-.74.487-.74.097 0 .18.044.25.135.069.09.103.208.103.353 0 .288-.128.543-.384.762-.256.22-.592.33-1.01.33-.417 0-.73-.116-.94-.35a1.237 1.237 0 0 1-.315-.858c0-.786.408-1.266 1.223-1.44ZM61.616 0h1.12L61.51 1.762h-.327L61.616 0Zm1.91 7.125h-.131c.007-.275.01-.483.01-.624 0-.383-.02-.936-.063-1.66-.042-.723-.09-1.205-.143-1.447-.042-.178-.096-.307-.164-.388a.224.224 0 0 0-.179-.08.68.68 0 0 0-.149.02v-.181l1.212-.449c.243.917.36 2.09.353 3.52.356-.47.602-.85.737-1.143.134-.292.202-.535.202-.73 0-.154-.042-.311-.126-.47a2.389 2.389 0 0 1-.156-.34.753.753 0 0 1-.031-.222.74.74 0 0 1 .124-.438c.082-.118.186-.177.313-.177.133 0 .236.06.309.177.102.164.153.359.153.584 0 .231-.03.459-.09.682-.059.223-.16.487-.305.79-.145.304-.305.58-.482.829-.325.457-.79 1.039-1.394 1.747Zm5.327-4.668h.95l-.713 2.14c-.127.383-.238.69-.335.922.012.537.137.806.375.806.228 0 .342-.168.342-.504h.17c0 .87-.177 1.304-.534 1.304-.325 0-.5-.416-.524-1.248-.41.832-.933 1.248-1.568 1.248-.299 0-.545-.15-.74-.448-.193-.299-.29-.681-.29-1.148a4 4 0 0 1 .35-1.586c.235-.544.504-.951.809-1.221.304-.27.594-.406.868-.406.32 0 .51.328.57.982l.27-.84Zm-.422 1.315c0-.658-.124-.987-.371-.987-.27 0-.55.382-.84 1.145-.292.764-.437 1.448-.437 2.052 0 .517.103.776.309.776.11 0 .223-.104.34-.31.118-.206.286-.624.504-1.251l.495-1.425Zm2.518 3.353h-.13c.006-.275.01-.483.01-.624 0-.383-.021-.936-.064-1.66-.042-.723-.09-1.205-.143-1.447-.042-.178-.096-.307-.164-.388a.224.224 0 0 0-.178-.08.68.68 0 0 0-.15.02v-.181l1.212-.449c.243.917.36 2.09.353 3.52.357-.47.602-.85.737-1.143.135-.292.202-.535.202-.73 0-.154-.042-.311-.126-.47a2.373 2.373 0 0 1-.156-.34.75.75 0 0 1-.031-.222.74.74 0 0 1 .124-.438c.082-.118.186-.177.313-.177.133 0 .236.06.309.177.102.164.153.359.153.584 0 .231-.03.459-.09.682-.059.223-.16.487-.305.79-.144.304-.305.58-.482.829-.325.457-.79 1.039-1.394 1.747Zm7.19-4.668h.95l-.713 2.14c-.126.383-.238.69-.335.922.012.537.137.806.375.806.228 0 .342-.168.342-.504h.171c0 .87-.178 1.304-.535 1.304-.325 0-.5-.416-.524-1.248-.41.832-.933 1.248-1.568 1.248-.299 0-.545-.15-.739-.448-.194-.299-.291-.681-.291-1.148 0-.514.117-1.042.351-1.586.234-.544.503-.951.808-1.221.304-.27.594-.406.868-.406.32 0 .51.328.571.982l.27-.84Zm-.422 1.315c0-.658-.123-.987-.37-.987-.27 0-.55.382-.841 1.145-.292.764-.437 1.448-.437 2.052 0 .517.103.776.31.776.108 0 .222-.104.34-.31.117-.206.285-.624.503-1.251l.495-1.425Zm2.518 3.353h-.13c.007-.275.01-.483.01-.624 0-.383-.021-.936-.063-1.66-.043-.723-.09-1.205-.144-1.447-.041-.178-.096-.307-.164-.388a.224.224 0 0 0-.178-.08.68.68 0 0 0-.15.02v-.181l1.212-.449c.243.917.36 2.09.353 3.52.357-.47.603-.85.737-1.143.135-.292.202-.535.202-.73 0-.154-.042-.311-.126-.47a2.373 2.373 0 0 1-.156-.34.75.75 0 0 1-.03-.222c0-.175.04-.32.123-.438.082-.118.187-.177.313-.177a.35.35 0 0 1 .31.177c.101.164.152.359.152.584 0 .231-.03.459-.09.682-.059.223-.16.487-.305.79-.144.304-.305.58-.482.829-.325.457-.79 1.039-1.394 1.747Zm4.727-4.809c.192 0 .372.062.54.184.169.123.296.293.383.511.086.218.129.46.129.725a4.33 4.33 0 0 1-.33 1.632c-.22.544-.508.973-.867 1.286-.36.314-.72.471-1.085.471a.868.868 0 0 1-.766-.408c-.18-.271-.27-.604-.27-.997a4.236 4.236 0 0 1 .715-2.38c.207-.303.445-.55.714-.74a1.44 1.44 0 0 1 .837-.284Zm-.15.267a.396.396 0 0 0-.32.156c-.17.212-.36.706-.574 1.483-.214.777-.32 1.478-.32 2.103a.67.67 0 0 0 .101.382c.068.101.148.151.24.151a.33.33 0 0 0 .252-.12c.106-.121.237-.392.393-.814.155-.421.282-.886.382-1.395.1-.508.149-.974.149-1.397 0-.174-.03-.31-.091-.405-.06-.096-.131-.144-.211-.144Zm3.341-.267-.746 3.58a2.652 2.652 0 0 0-.061.403c0 .037.01.072.032.104s.045.048.07.048c.04 0 .082-.026.123-.076.11-.124.24-.35.393-.675l.124.101c-.366.883-.756 1.324-1.168 1.324a.45.45 0 0 1-.377-.183.747.747 0 0 1-.14-.466c0-.124.02-.282.062-.474l.506-2.407c.048-.231.072-.406.072-.523a.304.304 0 0 0-.069-.197.23.23 0 0 0-.189-.085c-.036 0-.08.001-.13.005l.046-.202 1.234-.277h.218Zm2.875.141h.997l-1.976 3.898c.041.745.112 1.263.211 1.553.1.29.245.436.437.436.191 0 .325-.146.4-.438h.135c-.06.806-.282 1.208-.662 1.208-.258 0-.433-.204-.528-.614-.095-.41-.152-1.014-.171-1.813l-1.175 2.291h-1.027l2.14-4.174c-.056-.752-.131-1.233-.226-1.443-.094-.21-.229-.314-.404-.314-.184 0-.314.139-.389.417h-.156c.106-.765.338-1.148.695-1.148.153 0 .28.07.382.21.102.139.166.32.194.543.028.223.056.688.082 1.393l1.041-2.005Zm2.958 1.088-.345 1.365c-.1.39-.15.686-.15.891 0 .319.097.478.291.478.183 0 .318-.15.408-.453h.167c-.21.866-.53 1.3-.96 1.3-.515 0-.772-.293-.772-.877 0-.329.077-.757.23-1.284l.403-1.42h-.363c-.248 0-.43.034-.546.1-.117.068-.215.202-.295.404l-.094-.06a4.17 4.17 0 0 1 .289-.897c.113-.235.236-.4.37-.494a.8.8 0 0 1 .472-.14h2.172l-.214 1.087h-1.063Zm3.537-1.229c.192 0 .372.062.54.184.17.123.296.293.383.511.086.218.129.46.129.725a4.33 4.33 0 0 1-.33 1.632c-.219.544-.508.973-.867 1.286-.36.314-.72.471-1.085.471a.868.868 0 0 1-.766-.408c-.18-.271-.27-.604-.27-.997a4.236 4.236 0 0 1 .715-2.38c.207-.303.445-.55.714-.74a1.44 1.44 0 0 1 .837-.284Zm-.149.267a.396.396 0 0 0-.32.156c-.17.212-.362.706-.575 1.483-.214.777-.32 1.478-.32 2.103a.67.67 0 0 0 .101.382c.069.101.148.151.24.151a.33.33 0 0 0 .252-.12c.107-.121.238-.392.393-.814.155-.421.282-.886.382-1.395.1-.508.149-.974.149-1.397 0-.174-.03-.31-.09-.405-.062-.096-.132-.144-.212-.144ZM97.596 0h1.12L97.49 1.762h-.327L97.596 0Zm4.545 4.764.928-1.164.735-.926c.182-.238.359-.358.531-.358.119 0 .213.053.284.159.07.106.105.248.105.425 0 .383-.128.575-.385.575-.11 0-.216-.064-.321-.192-.06-.077-.116-.116-.167-.116-.087 0-.195.083-.324.247-.065.084-.172.213-.32.388l.226 1.38c.07.443.122.721.156.835.034.115.079.172.135.172.043 0 .087-.032.131-.096.043-.064.121-.222.233-.473l.134.116c-.116.318-.274.62-.473.903-.199.284-.383.426-.553.426-.145 0-.256-.073-.333-.22-.076-.145-.152-.458-.227-.938l-.182-1.143-.401.493-.363 1.727h-.928l.709-3.343a2.8 2.8 0 0 0 .08-.529c0-.205-.087-.307-.262-.307a.94.94 0 0 0-.127.01l.047-.207 1.237-.292h.219l-.524 2.448Zm4.916-2.448c.191 0 .372.062.54.184.169.123.296.293.382.511.086.218.129.46.129.725a4.32 4.32 0 0 1-.329 1.632c-.219.544-.509.973-.868 1.286-.359.314-.72.471-1.084.471a.868.868 0 0 1-.766-.408c-.181-.271-.271-.604-.271-.997 0-.466.067-.903.202-1.311.134-.408.305-.764.513-1.068a2.87 2.87 0 0 1 .715-.74c.269-.19.548-.285.837-.285Zm-.149.267a.398.398 0 0 0-.321.156c-.169.212-.361.706-.575 1.483-.213.777-.32 1.478-.32 2.103a.67.67 0 0 0 .102.382c.068.101.148.151.24.151a.33.33 0 0 0 .251-.12c.107-.121.238-.392.393-.814.156-.421.283-.886.382-1.395.1-.508.15-.974.15-1.397 0-.174-.031-.31-.091-.405-.061-.096-.131-.144-.211-.144ZM107.13 0h1.12l-1.226 1.762h-.327L107.13 0Zm5.407 2.457-.226 1.088h-1.244c.402.494.604.969.604 1.425 0 .547-.171 1.043-.513 1.488-.342.445-.768.667-1.277.667-.418 0-.74-.177-.967-.53-.226-.355-.34-.8-.34-1.338 0-.54.131-1.05.393-1.53s.558-.812.886-.995c.329-.183.775-.275 1.337-.275h1.347Zm-1.67 1.088c-.296 0-.543.076-.741.23-.198.152-.379.44-.544.863a3.599 3.599 0 0 0-.247 1.32c0 .278.042.493.125.644.084.15.195.226.333.226.277 0 .536-.326.777-.98.241-.652.362-1.256.362-1.81 0-.147-.022-.312-.065-.493Zm2.536-1.088h.935l-.688 3.324a1.97 1.97 0 0 0-.047.317c0 .084.039.126.116.126.165 0 .359-.173.581-.519.222-.345.425-.772.609-1.279l.412-1.969h.913l-.699 3.339a3.363 3.363 0 0 0-.083.488c0 .078.026.116.08.116.092 0 .24-.216.444-.65l.123.121c-.335.836-.707 1.254-1.117 1.254a.444.444 0 0 1-.344-.15c-.091-.101-.136-.242-.136-.424 0-.184.03-.414.091-.69l.105-.468c-.546 1.155-1.034 1.732-1.466 1.732-.168 0-.284-.074-.349-.221a13.63 13.63 0 0 0-.157 1.45 4.277 4.277 0 0 1-.044.509.482.482 0 0 1-.125.239.326.326 0 0 1-.249.108.365.365 0 0 1-.297-.149.537.537 0 0 1-.118-.344c0-.148.076-.423.229-.826.228-.598.428-1.311.6-2.14l.681-3.294Zm5.545-.14a.9.9 0 0 1 .541.183c.168.123.296.293.382.511.086.218.129.46.129.725a4.34 4.34 0 0 1-.329 1.632c-.22.544-.509.973-.868 1.286-.359.314-.721.471-1.085.471a.866.866 0 0 1-.765-.408c-.181-.271-.272-.604-.272-.997a4.266 4.266 0 0 1 .715-2.38c.208-.303.446-.55.715-.74.27-.189.549-.284.837-.284Zm-.149.266a.397.397 0 0 0-.32.156c-.17.212-.361.706-.575 1.483-.213.777-.32 1.478-.32 2.103a.67.67 0 0 0 .102.382c.068.101.148.151.24.151.094 0 .178-.04.251-.12.107-.121.238-.392.393-.814a9.05 9.05 0 0 0 .382-1.395c.099-.508.149-.974.149-1.397 0-.174-.03-.31-.091-.405-.06-.096-.131-.144-.211-.144Z"/></svg>