<svg xmlns="http://www.w3.org/2000/svg" width="120" height="18"><path fill="#000" fill-rule="nonzero" d="M24.176 6.53h-5.384v.832c1.255 0 2.32.46 3.196 1.38.89.904 1.335 2.006 1.335 3.304 0 .657-.175 1.19-.525 1.598-.336.394-.73.59-1.182.59-.336 0-.628-.123-.876-.371-.248-.263-.372-.555-.372-.876 0-.306.102-.576.307-.81.218-.233.467-.35.744-.35.248 0 .474.073.678.22.22.13.387.32.504.568a1.01 1.01 0 0 0 .13-.284 1.11 1.11 0 0 0 .045-.307c0-.919-.394-1.7-1.182-2.342-.773-.656-1.707-.984-2.802-.984v8.995l-.394-.372a4.695 4.695 0 0 0-.481-1.489c-.219-.452-.562-.926-1.029-1.422a6.624 6.624 0 0 0-1.97-1.488c-.744-.394-1.444-.62-2.1-.679l-1.051-1.641c.584-.438 1.123-.81 1.62-1.117a26.578 26.578 0 0 1 1.532-.919A14.387 14.387 0 0 1 16.56 7.8c.51-.204.948-.335 1.313-.394v-.875h-6.588l-.919-.832h12.935l.875.832Zm-6.303 8.23V8.763c-.292.059-.62.16-.985.307-.364.145-.751.32-1.16.525-.379.204-.758.423-1.138.656-.365.22-.722.453-1.072.7.788.322 1.54.789 2.254 1.401.73.599 1.415 1.401 2.057 2.408h.044Zm36.99-9.064.897.832-15.833-.001-1.792.004c.19.32.329.627.416.919.102.277.153.671.153 1.182 0 .365-.058.715-.175 1.05a2.398 2.398 0 0 1-.569.92v7.44l-.416-.371a3.01 3.01 0 0 0-.547-1.05c-.233-.307-.613-.672-1.138-1.095a5.216 5.216 0 0 0-1.422-.81 4.645 4.645 0 0 0-1.598-.306l-.92-1.16c.249-.219.577-.46.986-.722.423-.278.904-.562 1.444-.854a26.384 26.384 0 0 1 1.685-.875 4.05 4.05 0 0 1-.744-.482 6.964 6.964 0 0 1-.656-.657c-.409-.481-.694-.787-.854-.919a.993.993 0 0 0-.503-.262c.029.087.05.197.065.328.03.117.044.226.044.328 0 .467-.153.846-.46 1.138a1.548 1.548 0 0 1-1.072.416c-.38 0-.73-.138-1.05-.416-.322-.292-.482-.693-.482-1.203 0-.467.182-.854.547-1.16.38-.307.868-.46 1.467-.46a.388.388 0 0 0 .043-.175c.015-.073.022-.146.022-.219 0-.102-.065-.212-.197-.328a.539.539 0 0 0-.416-.197H29.71l-.92-.832h9.531l16.543-.003ZM39.76 6.987l.744.394c.321.876.65 1.685.985 2.43.35.729.708 1.393 1.073 1.991.773 1.27 1.575 2.203 2.407 2.802.846.583 1.765.875 2.758.875.758 0 1.364-.168 1.816-.503.453-.336.679-.737.679-1.204a1.27 1.27 0 0 0-.175-.679 1.194 1.194 0 0 0-.504-.503c-.117.146-.284.27-.503.372-.219.088-.43.131-.635.131-.35 0-.656-.124-.92-.372-.262-.248-.393-.569-.393-.963 0-.379.117-.7.35-.963.248-.277.576-.415.985-.415.175 0 .336.036.482.109.16.073.27.16.328.263.19-.278.335-.562.438-.854.102-.306.153-.547.153-.722a.976.976 0 0 0-.394-.81c-.248-.219-.562-.328-.941-.328-.715 0-1.438.204-2.167.613-.73.408-1.175.824-1.335 1.247.35.058.613.19.788.394.175.204.262.467.262.788 0 .35-.124.642-.372.875-.248.234-.547.35-.897.35-.38 0-.73-.167-1.05-.503-.322-.335-.482-.751-.482-1.247 0-.905.467-1.686 1.4-2.342.935-.671 1.992-1.007 3.174-1.007.876 0 1.532.24 1.97.722.444.473.67 1.122.678 1.946.264-.158.58-.341.942-.545a89.937 89.937 0 0 1 1.643-.898c.058 0 .131.03.219.088.087.059.16.131.218.219.073.116.19.291.35.525.176.219.343.395.504.527a25.48 25.48 0 0 0-.153 1.727c-.029.715-.044 1.314-.044 1.795 0 .89.035 1.627.108 2.21.073.584.176 1.03.307 1.337v.459a8.318 8.318 0 0 1-.437-.395l-.159-.159-.284-.284a3892 3892 0 0 0-.126-.126c-.131-.16-.234-.453-.307-.876a9.64 9.64 0 0 1-.11-1.597c0-.67.015-1.415.044-2.232.044-.832.11-1.443.197-1.837a.213.213 0 0 0-.086-.133.238.238 0 0 0-.133-.044l-1.729 1.05c-.538.315-.954.57-1.17.702l-.038.023-.002.012c-.098.271-.206.5-.323.687.321.218.584.54.788.963.205.423.307.81.307 1.16 0 .787-.278 1.459-.832 2.013-.554.54-1.313.81-2.276.81-1.05 0-2.057-.365-3.02-1.094-.949-.745-1.868-1.912-2.758-3.502a25.154 25.154 0 0 1-1.204-2.43 45.767 45.767 0 0 1-1.138-3.042Zm-2.719 4.621-.208.11-.194.104-.255.137a71.9 71.9 0 0 0-1.072.569 28 28 0 0 0-.678.394c-.205.13-.46.299-.766.503.554.175 1.065.46 1.532.853.466.38.999.898 1.597 1.554h.044v-4.224Zm-.11-5.077h-4.005c.073.102.132.24.176.416.058.175.08.372.065.59.219.103.445.241.679.416.233.175.423.343.569.504.175.19.452.365.831.525.394.146.737.219 1.029.219.482 0 .868-.095 1.16-.285.306-.204.46-.503.46-.897 0-.365-.088-.65-.263-.854a3.403 3.403 0 0 0-.7-.634Zm72.454-.832a2.35 2.35 0 0 1 1.51.525c.438.336.774.861 1.007 1.576.51-.744.978-1.276 1.4-1.597.424-.336.818-.504 1.183-.504.423 0 .89.24 1.4.722.511.482 1 1.138 1.467 1.97l-.001-4.005c-.792-.913-1.772-1.655-2.707-2.335-1.363-.92-3.733-1.642-4.925-.737a12.072 12.072 0 0 0-.134-.05l-.08-.03a7.708 7.708 0 0 1-.095-.035l-.085-.033c-.178-.07-.492-.197-1.171-.477.326-.179 1.104-.502 1.434-.578A5.46 5.46 0 0 1 110.717 0c.382 0 .751.032 1.113.095.37.056.72.14 1.05.255.305.119.62.27.937.46.326.192.644.406.954.637.318.222.624.469.922.731.306.254.592.509.859.763.274.247.524.485.747.716.167.175.311.336.437.48l.12.14c0 .423.109.766.327 1.028.234.263.526.394.876.394h.087l.854.832h-1.007a1.8 1.8 0 0 1-.547-.066c-.131-.044-.211-.102-.24-.175l-.044.044.175 11.709-1.117-1.138.044-7.55c-.408-.789-.81-1.372-1.204-1.752-.393-.38-.758-.569-1.094-.569-.204 0-.445.102-.722.307a2.68 2.68 0 0 0-.657.744c.759.481 1.299.94 1.62 1.379.32.437.481.846.481 1.225 0 .336-.13.642-.394.92a1.232 1.232 0 0 1-.963.415c-.306 0-.62-.131-.94-.394-.322-.262-.62-.685-.898-1.27-.219.585-.489 1.008-.81 1.27-.306.263-.627.394-.963.394-.394 0-.744-.138-1.05-.416-.292-.277-.438-.642-.438-1.094 0-.335.175-.722.525-1.16.365-.452.912-.883 1.642-1.291-.16-.38-.372-.642-.635-.788-.248-.16-.554-.24-.92-.24h-1.028l-.347-.505h-.384a1.67 1.67 0 0 1-.481-.065 1.312 1.312 0 0 1-.35-.175l-.044.044.175 11.709-1.138-1.138.043-8.01c-.291-.715-.598-1.284-.919-1.708-.32-.437-.605-.656-.853-.656h-5.02v.831c1.255 0 2.32.46 3.195 1.38.89.904 1.335 2.006 1.335 3.304 0 .657-.175 1.19-.525 1.598-.336.394-.73.59-1.182.59-.336 0-.627-.123-.875-.371-.248-.263-.372-.555-.372-.876 0-.306.102-.576.306-.81.219-.233.467-.35.744-.35.248 0 .474.073.679.22.218.13.386.32.503.568.058-.087.102-.182.131-.284a1.11 1.11 0 0 0 .044-.307c0-.919-.394-1.7-1.182-2.342-.773-.656-1.707-.984-2.801-.984v8.995l-.394-.372a4.695 4.695 0 0 0-.482-1.489c-.219-.452-.561-.926-1.028-1.422a6.624 6.624 0 0 0-1.97-1.488c-.744-.394-1.445-.62-2.101-.679l-1.05-1.641c.583-.438 1.123-.81 1.619-1.117a26.58 26.58 0 0 1 1.532-.919 14.387 14.387 0 0 1 1.641-.766c.511-.204.949-.335 1.314-.394v-.875h-4.932c-1.123 0-2.02.124-2.692.372a4.834 4.834 0 0 0-1.729 1.116 7.152 7.152 0 0 0-1.554 2.364 7.364 7.364 0 0 0-.525 2.801c0 1.153.226 2.072.679 2.758.466.686.977 1.028 1.532 1.028a.627.627 0 0 0 .284-.065.909.909 0 0 0 .285-.197 1.214 1.214 0 0 1-.35-.372 1.254 1.254 0 0 1-.11-.525c0-.278.11-.533.328-.766.234-.234.518-.35.854-.35.365 0 .664.123.897.371.234.248.35.577.35.985 0 .482-.182.876-.547 1.182-.365.307-.817.46-1.357.46-1.08 0-1.991-.49-2.735-1.467-.745-.977-1.117-2.21-1.117-3.698 0-1.27.27-2.444.81-3.524s1.24-1.89 2.101-2.43v-.043h-4.543a1.8 1.8 0 0 1-.547-.066c-.131-.044-.211-.102-.24-.175l-.066.044v11.73l-.416-.371c-.117-.409-.343-.81-.678-1.204a5.566 5.566 0 0 0-1.226-1.094 5.84 5.84 0 0 0-1.379-.7 5.81 5.81 0 0 0-1.51-.329l-.7-1.029c.394-.32.868-.649 1.422-.984a19.996 19.996 0 0 1 1.751-.92c.307-.16.606-.299.897-.416.292-.13.606-.262.942-.393V8.916c-.409-.598-.803-1.08-1.182-1.444-.365-.38-.679-.57-.941-.57-.22 0-.438.074-.657.22a2.226 2.226 0 0 0-.613.569c.671.35 1.175.715 1.51 1.094.336.38.504.766.504 1.16 0 .336-.132.627-.394.875a1.297 1.297 0 0 1-.92.373c-.306 0-.59-.095-.853-.285-.263-.19-.576-.54-.941-1.05-.234.496-.489.86-.766 1.094-.263.233-.576.35-.941.35a1.42 1.42 0 0 1-1.007-.416 1.371 1.371 0 0 1-.416-1.007c0-.32.168-.678.504-1.072.335-.409.846-.81 1.532-1.204a1.076 1.076 0 0 0-.635-.525c-.263-.088-.679-.131-1.248-.131h-.678l-.286-.417h-1.108v11.163l-.372-.372a4.71 4.71 0 0 0-.547-1.423c-.263-.452-.65-.948-1.16-1.488a6.889 6.889 0 0 0-1.926-1.467 6.357 6.357 0 0 0-2.386-.656l-1.247-1.445a31.213 31.213 0 0 1 3.83-2.429c1.24-.657 2.21-1.036 2.91-1.138V6.53h-8.59l.196 11.512-1.138-1.138.088-10.374h-1.795l-.963-.832h2.78a4.865 4.865 0 0 1-.788-.985c-.22-.38-.329-.707-.329-.985 0-.7.453-1.415 1.357-2.145.92-.744 2-1.116 3.24-1.116.992 0 2.071.292 3.239.876 1.182.569 2.29 1.415 3.326 2.539v.525c-1.05-1.022-2.086-1.744-3.107-2.167-1.022-.423-1.963-.635-2.824-.635-1.08 0-2.028.321-2.845.963-.817.628-1.226 1.284-1.226 1.97 0 .19.051.401.154.635a1.7 1.7 0 0 0 .415.525h12.043c.336 0 .7.146 1.094.438.394.292.766.7 1.116 1.225.438-.598.847-1.035 1.226-1.313.394-.292.78-.437 1.16-.437.35 0 .744.218 1.182.656.452.438.926 1.036 1.423 1.795v-3.73l-.065-.07c-.16-.17-.35-.368-.569-.59a13.872 13.872 0 0 0-.922-.827c-.33-.275-.683-.54-1.065-.795-1.362-.92-3.732-1.642-4.924-.737a12.14 12.14 0 0 0-.134-.05l-.081-.03a48.059 48.059 0 0 1-1.35-.545c.325-.179 1.104-.502 1.434-.578A5.461 5.461 0 0 1 76.21 0c.382 0 .752.032 1.113.095.37.056.72.14 1.05.255.305.119.62.27.937.46.326.192.644.406.954.637.318.222.624.469.922.731.306.254.593.509.859.763.274.247.524.485.747.716.167.175.312.336.437.48l.12.14c0 .437.08.787.24 1.05.16.248.409.372.744.372h19.673l.047.042c.411.06.741.185.99.374.38.263.81.905 1.291 1.926h.044v-4.29l.503.526c0 .437.08.787.241 1.05.175.248.423.372.744.372h1.52ZM80.604 15.96c.205 0 .378.077.522.23a.693.693 0 0 1 .214.506.762.762 0 0 1-.214.537.71.71 0 0 1-.522.215.762.762 0 0 1-.537-.215.762.762 0 0 1-.215-.537.71.71 0 0 1 .215-.521.762.762 0 0 1 .537-.215Zm-11.781-1.33c.292 0 .54.11.744.328a.988.988 0 0 1 .306.722c0 .292-.102.547-.306.766a1.013 1.013 0 0 1-.744.307c-.292 0-.547-.103-.766-.307a1.087 1.087 0 0 1-.307-.766c0-.292.103-.54.307-.744.219-.204.474-.306.766-.306Zm13.956-2.758c-.233.131-.525.277-.875.438-.35.16-.576.262-.678.306a29.48 29.48 0 0 0-.963.482c-.263.146-.504.291-.723.437.35.102.7.263 1.05.482a6.27 6.27 0 0 1 1.051.744c.234.219.438.43.613.635.19.19.358.386.504.59h.021v-4.114ZM72.325 8.676c-.57.102-1.335.408-2.298.919a26.376 26.376 0 0 0-2.561 1.532c.992.35 1.89.839 2.692 1.466.802.613 1.51 1.394 2.123 2.342h.044v-6.26Zm26.254.087c-.292.059-.62.16-.985.307-.365.145-.752.32-1.16.525-.38.204-.759.423-1.138.656-.365.22-.723.453-1.073.7.788.322 1.54.789 2.254 1.401.73.599 1.416 1.401 2.058 2.408h.044V8.763ZM0 11.455c0-.467.058-.904.175-1.313.131-.423.328-.832.591-1.226l.35.394a2.745 2.745 0 0 0-.35.832c-.088.321-.131.65-.131.985 0 .832.255 1.495.766 1.992.525.496 1.276.744 2.254.744.102 0 .489-.022 1.16-.066.671-.058 1.19-.088 1.554-.088.598 0 1.087.088 1.466.263.38.175.795.51 1.248 1.007v-7.66c0-.321-.073-.54-.22-.657a.848.848 0 0 0-.546-.175c-.38 0-1.014.38-1.904 1.138-.89.759-1.335 1.466-1.335 2.123v.175a.856.856 0 0 0 .065.175c.146-.102.277-.182.394-.24a.963.963 0 0 1 .394-.088 1 1 0 0 1 .788.35c.204.219.306.482.306.788 0 .438-.167.78-.503 1.029a1.711 1.711 0 0 1-1.072.372c-.555 0-1.022-.22-1.401-.657a2.437 2.437 0 0 1-.547-1.576c0-1.094.562-2.13 1.685-3.107 1.124-.978 2.072-1.46 2.845-1.445.205 0 .401.044.591.131.204.073.409.197.613.372.263.234.452.445.569.635.117.175.175.409.175.7v10.462l-.481-.438c-.073-.875-.263-1.488-.57-1.838-.291-.35-.758-.525-1.4-.525-.584 0-1.233.043-1.948.131-.7.088-1.13.131-1.291.131-1.328 0-2.379-.335-3.152-1.006C.38 13.607 0 12.666 0 11.455Z"/></svg>