<svg viewBox="0 0 120 18" xmlns="http://www.w3.org/2000/svg"><path d="M17.012 0c.086.086.129.236.129.451 0 .206-.043.348-.129.426a3.177 3.177 0 0 0-.903.245 3.389 3.389 0 0 0-.619.335c-.146.103-.297.288-.451.555a7.045 7.045 0 0 0-.323.58c-.051.13-.15.374-.296.736L8.95 16.793c-.155.404-.365.61-.632.619-.249 0-.451-.206-.606-.62L2.503 3.277c-.405-1.03-.723-1.67-.955-1.922C1.324 1.096.852.937.129.877.043.79 0 .645 0 .438 0 .232.034.085.103 0c1.57.032 2.47.05 2.712.051h.035C3.323.051 4.39.034 6.05 0c.069.086.103.236.103.451 0 .206-.034.348-.103.426-.886.094-1.41.275-1.573.541-.163.258-.086.778.232 1.561l4.204 10.757h.13l4.165-10.589c.335-.722.413-1.26.232-1.625-.172-.361-.714-.576-1.625-.645-.069-.069-.107-.211-.116-.426 0-.215.039-.365.116-.451 1.56.032 2.5.05 2.824.051h.052c.138 0 .911-.017 2.322-.051zm1.224 5.27c.702 0 2.7-.053 2.704-.053l.026.052v.572c0 .078-.052.13-.156.13l-.546.053c-.806.077-1.09.286-1.092.807v8.658c0 .572.26.91 1.092.988l.546.053c.078 0 .156.051.156.155v.546l-.026.053s-1.8-.048-2.665-.052h-.117c-.728 0-2.76.052-2.756.052l-.052-.053v-.546c0-.104.078-.155.182-.155l.52-.053c.858-.078 1.12-.494 1.118-.988V6.831c0-.57-.313-.729-1.118-.805l-.52-.054c-.104 0-.182-.024-.182-.104V5.27l.026-.052s2.05.052 2.86.052zm21.69 0c.702 0 2.7-.053 2.704-.053l.026.052v.572c0 .078-.052.13-.156.13l-.546.053c-.806.077-1.09.286-1.092.807v8.658c0 .572.26.91 1.092.988l.546.053c.078 0 .156.051.156.155v.546l-.026.053s-1.8-.048-2.665-.052h-.117c-.728 0-2.76.052-2.756.052l-.052-.053v-.546c0-.104.078-.155.182-.155l.52-.053c.858-.078 1.12-.494 1.118-.988V6.831c0-.57-.312-.729-1.118-.805l-.52-.054c-.104 0-.182-.024-.182-.104V5.27l.026-.052s2.05.052 2.86.052zm55.282-.042c.06.067.09.17.09.306 0 .137-.03.24-.09.307-.561.004-.917.03-1.067.077-.15.047-.102.257.143.629l2.536 4.124c.084.15.157.234.217.248.06.015.134-.056.22-.211l2.392-4.161c.212-.368.222-.577.03-.626-.193-.048-.517-.075-.974-.08-.06-.067-.09-.166-.09-.297 0-.132.03-.231.09-.298a67.216 67.216 0 0 0 1.828.019c.234 0 .494 0 .782-.002.287-.002.582-.008.886-.017.06.067.09.166.09.298 0 .132-.03.23-.09.297-.43.014-.763.058-.998.132-.235.074-.484.333-.746.778l-2.566 4.291c-.192.302-.302.5-.328.593-.027.094-.035.306-.024.64v2.706c-.02.742.105 1.21.372 1.402.267.194.793.29 1.577.288.06.068.09.17.09.307 0 .137-.03.239-.09.306-.488-.01-.944-.018-1.366-.025a86.618 86.618 0 0 0-1.427-.012h-.317a83.16 83.16 0 0 0-1.135.012l-1.361.025c-.06-.067-.09-.17-.09-.306s.03-.24.09-.307c.785.002 1.31-.094 1.577-.288.267-.194.391-.66.372-1.402v-2.545c.004-.318-.022-.543-.08-.675a3.821 3.821 0 0 0-.342-.57L92.77 7.086c-.383-.604-.693-.964-.93-1.078-.239-.114-.556-.17-.953-.167-.06-.067-.094-.17-.1-.307-.006-.137.02-.239.08-.306.3.01.62.018.957.025a52.937 52.937 0 0 0 2.239 0c.367-.007.749-.015 1.145-.025zm-35.909.041h3.822c.78 0 2.63-.052 2.627-.052l.054.052c.024 1.12.206 2.13.39 3.121l-.648.104c-.285-.963-.779-2.34-2.443-2.34h-2.08c-.494 0-.754.182-.754.623v3.771h1.949c.729 0 .91-.312 1.015-.832l.155-.546c0-.078.053-.13.156-.13h.44c.054 0 .054.026.054.077-.054.571-.156 1.3-.156 1.925 0 .65.104 1.2.156 1.794l-.054.053h-.44c-.129 0-.184-.053-.184-.13l-.13-.572c-.104-.52-.338-.807-1.017-.807h-1.948v3.98c0 .491.283.985.754.985h2.47c1.33 0 2.06-.832 2.366-2.186l.648.078-.521 2.99-.052.051s-1.53-.052-2.314-.052l-4.549.005c-.78 0-2.57.053-2.573.053l-.027-.053v-.572c0-.05.027-.129.156-.129l.6-.053c.807-.078 1.04-.598 1.041-1.117V6.78c0-.6-.312-.703-1.041-.754l-.6-.054c-.13-.02-.152-.06-.155-.088l-.001-.615.027-.052s2.03.052 2.807.052zM111.028.121c.362 0 .493.261.7.781l5.33 14.092c.365 1.02.886 1.4 1.926 1.508l.285.025c.131 0 .261.077.261.21v.491l-.078.053s-1.83-.048-2.88-.053h-.137c-.91 0-3.46.053-3.459.053l-.024-.053v-.492c0-.132.052-.209.185-.209l.728-.053c.987-.077 1.35-.39 1.092-1.117l-1.586-4.396h-5.41c-.624 0-.78.104-.909.44l-1.509 3.771c-.26.654.078 1.23 1.04 1.305l.754.053c.104 0 .208.078.208.207v.494l-.052.053s-2.61-.049-3.373-.053h-.085c-.677 0-2.34.053-2.341.053l-.053-.053v-.494c0-.129.078-.207.209-.207 1.14-.078 1.79-.287 2.521-1.95l5.771-13.522c.285-.676.494-.937.886-.937zM86.047 5.27c.701 0 2.7-.052 2.705-.052l.024.052v.572c0 .078-.054.13-.156.13l-.546.053c-.807.077-1.09.286-1.092.807l.003 8.658c0 .572.26.91 1.092.988l.546.053c.078 0 .156.051.156.155v.546l-.026.053s-1.8-.048-2.664-.052h-.117c-.729 0-2.76.052-2.756.052l-.053-.053v-.546c0-.104.078-.155.182-.155l.521-.053c.857-.078 1.12-.494 1.118-.988V6.831c0-.57-.313-.729-1.118-.805l-.521-.054c-.104 0-.182-.024-.182-.104V5.27l.026-.052s2.05.052 2.858.052zm-60.06 0c.729 0 2.37-.052 2.366-.052l.026.052v.572c0 .078-.052.104-.156.13l-.286.053c-.806.155-1.09.286-1.092.807v3.927c.858 0 1.35-.44 2.496-1.664 1.04-1.15 1.85-2.1 1.846-2.6 0-.21-.234-.442-.754-.522-.104-.024-.156-.052-.156-.13v-.6l.026-.024s2.11.052 2.86.052c.676 0 1.82-.052 1.82-.052l.078.024v.6c0 .078-.078.13-.208.13-1.01.078-1.72.13-2.652 1.196L29.965 9.74c-.442.47-.598.754-.598.963 0 .156.104.285.234.441l3.926 4.732c.312.363.936.52 1.456.623l.13.025c.078.025.182.077.182.155v.546l-.078.026s-1.22-.023-1.971-.026h-.135c-.65 0-1.59.026-1.586.026l-.026-.026v-.312c0-.339-.026-.623-.39-1.039l-2.886-3.589c-.39-.52-.806-.649-1.378-.649v3.853c0 .572.338.858 1.092.988l.286.053c.078.025.156.051.156.155v.546l-.026.053s-1.47-.047-2.288-.052h-.13c-.728 0-2.86.052-2.86.052l-.052-.053v-.546c0-.104.078-.155.182-.155l.52-.053c.78-.078 1.12-.494 1.118-.988V6.831c0-.57-.286-.729-1.118-.805l-.52-.054c-.104 0-.182-.024-.182-.104V5.27l.026-.052s2.13.052 2.938.052zm45.189.001c.492 0 2.76-.052 3.432-.052 4.34 0 6.48 2.7 6.475 6.162 0 4.55-3.22 5.9-6.109 5.901-1.97 0-2.89-.047-3.667-.052h-.128c-.781 0-2.76.052-2.758.052l-.025-.053v-.546a.145.145 0 0 1 .153-.152l.598-.053c.781-.078 1.04-.312 1.041-1.117V6.78c0-.678-.184-.678-1.041-.754l-.57-.054c-.104 0-.184-.052-.184-.13V5.27l.025-.052s2.29.052 2.758.052zm-23.708 0c.728 0 1.77-.052 2.73-.052 3.69 0 4.37 1.82 4.366 3.173 0 1.56-.754 4-4.444 4.004-.65 0-1.17-.053-1.639-.26v3.482c0 .571.312.703 1.145.832l.521.078c.104.025.183.053.183.155v.546l-.024.053s-1.9-.048-2.77-.052h-.117c-.728 0-2.68.052-2.678.052l-.026-.053v-.546c0-.104.052-.13.156-.155l.546-.078c.806-.104 1.07-.338 1.066-.832l-.003-8.735c0-.806-.338-.832-1.56-.91-.156 0-.182-.077-.182-.13v-.598l.052-.026c.39 0 1.92.052 2.678.052zm26.386.702c-1.01 0-1.66.156-1.664.808v8.58c0 .726.181 1.17 2.158 1.17 2.86 0 4.47-1.06 4.473-4.707 0-2.7-.599-5.85-4.967-5.85zm-23.812.001c-1.25 0-1.56.234-1.561.91l.001 4.524c.52.21 1.17.234 1.69.234 1.56 0 2.31-.938 2.312-2.938 0-2.24-1.01-2.73-2.442-2.73zm60.389-3.043h-.052l-2.6 6.604c-.104.262.077.338.649.338h4.525l-2.522-6.942z" fill="#000" fill-rule="nonzero"/></svg>