<?xml version="1.0" encoding="UTF-8"?>
<svg width="120px" height="12px" viewBox="0 0 120 12" version="1.1" xmlns="http://www.w3.org/2000/svg" xmlns:xlink="http://www.w3.org/1999/xlink">
    <title>ch-tagline</title>
    <g id="Page-1" stroke="none" stroke-width="1" fill="none" fill-rule="evenodd">
        <path d="M1.97385153,7.17461527 L1.97385153,2.17988811 C1.96546205,1.68270104 2.02976593,1.36923753 2.16676338,1.2394851 C2.30375624,1.10974514 2.56376749,1.04538584 2.94679789,1.04641968 C2.98034485,1.00127973 2.99712224,0.932772646 2.99712224,0.840898415 C2.99712224,0.749049095 2.98034485,0.680542008 2.94679789,0.63538961 C2.68212394,0.641879099 2.44261507,0.647583871 2.22827128,0.652516381 C2.0139228,0.657448892 1.76882254,0.660039705 1.49296985,0.660301278 C1.22317142,0.660039705 0.982730747,0.657448892 0.771647269,0.652516381 C0.56056189,0.647583871 0.320121328,0.641879099 0.0503250237,0.63538961 C0.0167747097,0.680542008 0,0.749049095 0,0.840898415 C0,0.932772646 0.0167749333,1.00127973 0.0503250237,1.04641968 C0.433352295,1.04538584 0.693363538,1.10974514 0.830359759,1.2394851 C0.967353855,1.36923753 1.03165773,1.68270104 1.0232716,2.17988811 L1.0232716,7.17461527 C1.03165773,7.67180234 0.967353855,7.98526586 0.830359535,8.11501828 C0.693363315,8.24475825 0.433352072,8.30911754 0.0503250237,8.30808371 C0.0167747097,8.35323611 0,8.42174319 0,8.51359251 C0,8.60545429 0.0167749333,8.67396137 0.0503250237,8.71911377 C0.314995511,8.71262428 0.554504157,8.70691951 0.768851409,8.701987 C0.983196872,8.69705449 1.22829724,8.69446368 1.50415318,8.69420211 C1.77394814,8.69446368 2.0143887,8.69705449 2.22547553,8.701987 C2.43655756,8.70691951 2.67699857,8.71262428 2.94679789,8.71911377 C2.98034485,8.67396137 2.99712224,8.60545429 2.99712224,8.51359251 C2.99712224,8.42174319 2.98034485,8.35323611 2.94679789,8.30808371 C2.56376749,8.30911754 2.30375613,8.24475825 2.16676315,8.11501828 C2.02976559,7.98526586 1.96546183,7.67180234 1.97385153,7.17461527 L1.97385153,7.17461527 Z M8.08979374,7.66038034 L8.08979374,1.66919892 C8.09468426,1.45305283 8.18275271,1.29684422 8.35400023,1.20056062 C8.52524103,1.10428948 8.75030548,1.05706941 9.02919135,1.05882561 C9.82927575,1.07395952 10.464514,1.28600764 10.9349073,1.69503232 C11.4052906,2.10408191 11.7414793,2.61969116 11.9434745,3.24184761 C12.1454575,3.86401652 12.2438986,4.50234064 12.2387967,5.15679507 C12.2152589,6.3883532 11.9240265,7.22599558 11.3651006,7.66972221 C10.8061647,8.1134613 10.1207229,8.32209652 9.30877283,8.29562787 C8.77849558,8.29407089 8.43833789,8.23801964 8.28829753,8.12747411 C8.1382527,8.01692859 8.07208477,7.86123066 8.08979374,7.66038034 L8.08979374,7.66038034 Z M7.60891262,0.660301278 C7.33911441,0.660039705 7.09867385,0.657448892 6.88758981,0.652516381 C6.67650466,0.647583871 6.4360641,0.641879099 6.16626813,0.63538961 C6.13271781,0.680542008 6.11594266,0.749049095 6.11594266,0.840898415 C6.11594266,0.932772646 6.13271781,1.00127973 6.16626813,1.04641968 C6.54929529,1.04538584 6.80930575,1.10974514 6.94630286,1.2394851 C7.08329662,1.36923753 7.14760027,1.68270104 7.13921381,2.17988811 L7.13921381,7.17461527 C7.14760027,7.67180234 7.08329662,7.98526586 6.94630174,8.11501828 C6.80930575,8.24475825 6.54929417,8.30911754 6.16626813,8.30808371 C6.13271781,8.35323611 6.11594266,8.42174319 6.11594266,8.51359251 C6.11594266,8.60545429 6.13271781,8.67396137 6.16626813,8.71911377 C6.43093873,8.71262428 6.67044659,8.70691951 6.88479395,8.701987 C7.09913908,8.69705449 7.34423978,8.69446368 7.62009606,8.69420211 C7.81393747,8.6952484 8.06090133,8.69939619 8.36098876,8.70665794 C8.66107171,8.71393215 9.09256006,8.71807994 9.65545493,8.71911377 C10.1970129,8.72819408 10.7466498,8.62147249 11.3043701,8.39896147 C11.8620781,8.17645045 12.3321907,7.78370555 12.7147068,7.22073922 C13.0972105,6.65778535 13.296439,5.87015314 13.3123922,4.85785506 C13.2858248,3.66834782 12.9111852,2.67500752 12.1884712,1.87783414 C11.4657449,1.08068568 10.5543081,0.666529195 9.4541564,0.63538961 C9.09139475,0.6364359 8.74890644,0.640583692 8.42669146,0.647845444 C8.10446977,0.655107195 7.83187794,0.659267443 7.60891262,0.660301278 L7.60891262,0.660301278 Z M14.8017862,1.23325719 C14.8073841,1.40193409 14.8633013,1.55037026 14.9695428,1.6785408 C15.0757833,1.80674869 15.1987989,1.87420949 15.3385918,1.8809481 C15.4998156,1.87247813 15.6358789,1.80567749 15.7467817,1.6805711 C15.8576812,1.55547716 15.9154615,1.42298445 15.92013,1.28308052 C15.9166268,1.12531493 15.8649034,0.979992713 15.7649548,0.847126332 C15.6650028,0.714272406 15.5377923,0.643697651 15.3833245,0.63538961 C15.2416683,0.641617527 15.1111967,0.703896697 14.9919097,0.822214664 C14.8726205,0.940557543 14.8092484,1.07757172 14.8017862,1.23325719 L14.8017862,1.23325719 Z M15.819473,7.17461527 L15.819473,4.69219246 C15.821335,4.36236198 15.828791,4.04894828 15.8418398,3.75195138 C15.8548853,3.45496693 15.8623402,3.29630452 15.8642067,3.27598905 C15.8637381,3.25056669 15.8506915,3.22980282 15.8250647,3.21370988 C15.7994345,3.1976294 15.764021,3.18932136 15.7188242,3.18879821 C15.5637704,3.25679461 15.3650339,3.32010761 15.1226139,3.37874968 C14.8801916,3.43739175 14.5682252,3.49448929 14.1867123,3.5500174 C14.1764604,3.59257898 14.1745972,3.6506979 14.1811205,3.72438662 C14.1876438,3.79808779 14.196963,3.85621917 14.2090791,3.89876829 C14.5060184,3.91748941 14.7033569,3.97783793 14.8010945,4.07985121 C14.8988311,4.18185203 14.9437975,4.40382745 14.9359937,4.74575255 L14.9359937,7.17461527 C14.945078,7.67024536 14.8961515,7.98059492 14.7892121,8.1056764 C14.6822705,8.23074543 14.4627989,8.29821869 14.1307962,8.30808371 C14.0972459,8.35323611 14.0804707,8.42174319 14.0804707,8.51359251 C14.0804707,8.60545429 14.0972459,8.67396137 14.1307962,8.71911377 C14.3577227,8.71262428 14.5636813,8.70691951 14.7486733,8.701987 C14.9336619,8.69705449 15.1452123,8.69446368 15.3833245,8.69420211 C15.6153763,8.69446368 15.8222677,8.69705449 16.0039974,8.701987 C16.1857238,8.70691951 16.3926141,8.71262428 16.6246704,8.71911377 C16.6582174,8.67396137 16.6749948,8.60545429 16.6749948,8.51359251 C16.6749948,8.42174319 16.6582174,8.35323611 16.6246704,8.30808371 C16.2926643,8.30366189 16.0731916,8.23775807 15.9662545,8.11034734 C15.8593117,7.98293662 15.8103853,7.67103008 15.819473,7.17461527 L15.819473,7.17461527 Z M18.777319,4.17279664 C18.9238645,4.03086241 19.0781009,3.92861247 19.2400281,3.86607173 C19.4019498,3.80354344 19.5645737,3.772927 19.7278989,3.77417126 C20.0780725,3.78745051 20.3702353,3.99141479 20.6043897,4.3861028 C20.8385362,4.78079081 20.9601538,5.28680907 20.9692476,5.90413266 C20.9699393,6.62916184 20.8399341,7.22184779 20.5792269,7.68217805 C20.318513,8.14252076 19.9229045,8.38021544 19.3924002,8.39527455 C19.2211538,8.39034203 19.0715776,8.33168751 18.9436704,8.21933589 C18.8157598,8.10697181 18.6969369,7.97048078 18.5872027,7.80985035 L18.5872027,4.69592921 C18.5861068,4.56858077 18.5997595,4.46644293 18.6281621,4.38952815 C18.6565613,4.31261338 18.7062806,4.24036954 18.777319,4.17279664 L18.777319,4.17279664 Z M18.699036,3.78666579 C18.6265293,3.85746475 18.5892516,3.83670087 18.5872027,3.72438662 L18.5872027,1.43255053 C18.5890648,1.0238497 18.5965208,0.704681414 18.6095696,0.475020747 C18.6226151,0.245372535 18.63007,0.128599092 18.6319365,0.124700416 C18.6337985,0.0396021578 18.5853374,-0.00192559275 18.4865529,6.85254369e-05 C18.3269563,0.0663199217 18.0869821,0.133270029 17.7666292,0.200992399 C17.4462729,0.268727224 17.1643619,0.313879622 16.9208917,0.336449594 C16.9097094,0.390943867 16.9097094,0.456336996 16.9208917,0.532628979 C16.9320752,0.608920962 16.954442,0.668086174 16.9879924,0.710112158 C17.272234,0.703635124 17.4642133,0.747753688 17.5639316,0.842455394 C17.6636487,0.937182012 17.7102456,1.23351876 17.7037223,1.73147809 L17.7037223,7.80985035 C17.7039549,8.04832974 17.7006927,8.23464411 17.6939379,8.3688059 C17.6871798,8.50295523 17.6755311,8.61142063 17.6589897,8.69420211 C17.6853155,8.74402544 17.7165363,8.78139294 17.7526499,8.80630461 C17.7887612,8.83121628 17.8395519,8.84367211 17.905022,8.84367211 C17.9405283,8.80654127 17.982465,8.76153834 18.0308345,8.70868824 C18.0792007,8.65582568 18.1256108,8.60118194 18.1700661,8.5447321 C18.2254923,8.47073199 18.2753973,8.43190715 18.3197821,8.42827005 C18.3641647,8.4246454 18.4160268,8.45183649 18.4753706,8.50985576 C18.6037431,8.6278997 18.7504306,8.70943559 18.9154322,8.75446343 C19.0804304,8.79947881 19.2617866,8.8209153 19.4594997,8.81876045 C20.061531,8.81176027 20.616035,8.53617494 21.1230149,7.99201692 C21.6299859,7.4478589 21.8993166,6.67716663 21.9310082,5.67992764 C21.9093358,4.91287248 21.7010465,4.31395861 21.3061414,3.8831985 C20.9112274,3.45245085 20.4597028,3.23343992 19.9515654,3.22616571 C19.711145,3.22772269 19.4857551,3.27754603 19.2753946,3.37563572 C19.0650308,3.47372541 18.8729105,3.61073959 18.699036,3.78666579 L18.699036,3.78666579 Z M25.6124797,5.79203015 L25.6124797,7.44864362 C25.6115448,7.52829868 25.5966328,7.59318111 25.5677459,7.64325357 C25.5388524,7.69333848 25.5015758,7.73641075 25.4559138,7.77248285 C25.3072658,7.90923545 25.1460397,8.03120297 24.9722357,8.13837297 C24.7984261,8.24554296 24.6316094,8.30210491 24.4717836,8.30808371 C24.1935967,8.2953663 23.9895023,8.19624277 23.8594982,8.01070067 C23.7294907,7.82515857 23.665187,7.62950233 23.6665861,7.42373195 C23.6592688,7.1366748 23.7331723,6.86877472 23.8882955,6.62001926 C24.0434154,6.37127626 24.32365,6.18247072 24.7289993,6.05360266 L25.6124797,5.79203015 Z M25.6124797,8.09633453 C25.640388,8.24087203 25.7176454,8.39396668 25.8442531,8.55563095 C25.9708541,8.71729522 26.1806341,8.8050092 26.4735932,8.81876045 C26.7529376,8.79930443 26.9798652,8.71367057 27.1543761,8.56185887 C27.3288769,8.41005962 27.4188096,8.30885597 27.4241732,8.25826037 C27.4209065,8.21128942 27.402267,8.16510319 27.3682571,8.11968922 C27.334236,8.07427525 27.3044131,8.04988672 27.2787907,8.04651119 C27.2506409,8.05481923 27.2141091,8.08802649 27.1691941,8.14615787 C27.1242691,8.20427679 27.0452414,8.2374965 26.9321086,8.24580454 C26.7226495,8.2374965 26.5935759,8.1326682 26.5448865,7.93129473 C26.4961883,7.72993372 26.476152,7.48185087 26.4847767,7.1870711 L26.4847767,5.33117675 C26.4654349,4.46965653 26.2860358,3.89773446 25.9465804,3.61539807 C25.6071172,3.33308659 25.2236237,3.20333417 24.7960988,3.22616571 C24.3180113,3.24173551 23.8958421,3.38809156 23.5295901,3.66522141 C23.163337,3.94237617 22.9704249,4.25687352 22.950855,4.60873838 C22.9510876,4.7576977 22.9841716,4.86772008 23.0501069,4.93881798 C23.1160411,5.00992833 23.2134287,5.04521571 23.3422709,5.04469257 C23.50466,5.03769239 23.6272103,4.98942603 23.7099219,4.8998935 C23.7926301,4.81037342 23.8341006,4.7216256 23.8343354,4.63365004 C23.8343343,4.58928236 23.8315384,4.54724392 23.8259478,4.50754718 C23.820355,4.46783798 23.8119674,4.43514142 23.8007862,4.40945749 C23.7949597,4.39129688 23.7898343,4.36222497 23.785409,4.32226665 C23.7809804,4.28230833 23.7786508,4.22833721 23.7784193,4.16034081 C23.7905332,3.96961708 23.8921147,3.83415988 24.0831636,3.75396922 C24.2742102,3.67379102 24.4820332,3.63486654 24.7066324,3.63719578 C24.9107246,3.61670593 25.1092283,3.71064783 25.3021426,3.91900902 C25.4950514,4.12739513 25.598497,4.57320188 25.6124797,5.25644174 C25.6117774,5.30003716 25.6047877,5.33429071 25.5915107,5.35920238 C25.5782271,5.38411404 25.5628498,5.39968384 25.5453802,5.40591175 L24.5836168,5.66747181 C24.0370308,5.82057892 23.5952917,6.05307952 23.2583962,6.36499851 C22.9214985,6.67690505 22.7481574,7.04641983 22.738373,7.47354283 C22.7481574,7.96010507 22.8851534,8.30729899 23.1493588,8.51514949 C23.413563,8.72301245 23.7462658,8.8242161 24.1474683,8.81876045 C24.3925657,8.82343138 24.5985255,8.78917784 24.7653443,8.71599981 C24.9321598,8.64282179 25.1325268,8.50269366 25.3664474,8.29562787 L25.5901128,8.09633453 L25.6124797,8.09633453 Z M27.9278361,3.35072405 C27.8509511,3.3548843 27.7978297,3.38394376 27.7684743,3.43791489 C27.7391178,3.49188602 27.7251385,3.54586961 27.7265375,3.59982828 L27.7265375,3.76175412 C27.7260712,3.79212144 27.7297986,3.81236217 27.737721,3.82247631 C27.7456422,3.8326029 27.7605531,3.83727384 27.7824536,3.83648912 L28.4422686,3.83648912 L28.4422686,7.58564534 C28.4459949,8.02392877 28.5252095,8.33999555 28.6799133,8.53383324 C28.8346138,8.72768339 29.0424368,8.82265912 29.3033822,8.81876045 C29.5640905,8.81876045 29.8254989,8.75025336 30.0876107,8.61323918 C30.3497158,8.47622501 30.5915543,8.27071621 30.8131262,7.99668786 C30.7907571,7.86818102 30.7236564,7.79760626 30.6118276,7.78493868 C30.4645776,7.90846318 30.3117391,7.99772169 30.1533123,8.05273911 C29.9948799,8.10775653 29.8420414,8.13473587 29.6947969,8.13370203 C29.5473153,8.13422518 29.4480634,8.03976013 29.3970412,7.85033181 C29.3460157,7.66090348 29.322252,7.37338547 29.3257479,6.98777776 L29.3257479,3.83648912 L30.4888109,3.83648912 C30.5489174,3.8367507 30.6076305,3.82378417 30.6649479,3.79756464 C30.7222585,3.77137002 30.753013,3.73036542 30.7572101,3.67456328 L30.7572101,3.42545906 C30.7553425,3.37563572 30.7255207,3.35072405 30.6677437,3.35072405 L29.3257479,3.35072405 L29.3257479,2.86494653 C29.32761,2.45625816 29.335066,2.13707741 29.3481148,1.90741675 C29.3611603,1.67778099 29.3686152,1.56100755 29.3704817,1.55710887 C29.3723437,1.47199816 29.3238825,1.43048286 29.2250992,1.43247696 L28.5764676,1.76012651 C28.5401673,1.78143844 28.5048467,1.80266318 28.4705057,1.82381319 C28.4361625,1.84496319 28.4192945,1.876464 28.4199018,1.9183156 C28.4311076,2.0376674 28.4377706,2.18261594 28.4398921,2.35317368 C28.4420103,2.52374387 28.4428032,2.85584131 28.4422686,3.34947847 L27.9278361,3.35072405 Z M34.843701,7.1497036 C34.8460965,7.26398588 34.8359855,7.35553626 34.8133659,7.42435474 C34.7907396,7.49317322 34.741207,7.56353623 34.6647682,7.63546867 C34.4574082,7.83476202 34.2654278,7.98423202 34.088829,8.0838787 C33.9122224,8.18352537 33.7537933,8.23336181 33.6135384,8.23336181 C33.2980738,8.23516725 33.0175596,8.0478066 32.7719959,7.67127919 C32.5264278,7.29476424 32.3968878,6.71817123 32.3833759,5.94150016 C32.3864044,5.49647812 32.4194884,5.14096371 32.4826278,4.87498183 C32.545765,4.6090124 32.6207869,4.41230987 32.7076923,4.28489915 C32.8887197,4.00283679 33.077438,3.82585184 33.273846,3.75396922 C33.4702506,3.68209906 33.6282145,3.65148262 33.7477386,3.66210745 C33.9476369,3.66289217 34.1209769,3.70181665 34.2677617,3.77888089 C34.4145388,3.85595759 34.5431461,3.96650312 34.6535848,4.11051747 C34.7300001,4.20160699 34.7812571,4.2903548 34.8073559,4.37676092 C34.8334458,4.46316704 34.8455608,4.59862424 34.843701,4.78312005 L34.843701,7.1497036 Z M34.7206843,8.06768611 C34.7497579,8.04165342 34.7788337,8.02739149 34.807914,8.02486295 C34.8369864,8.02234688 34.8526432,8.04202709 34.8548844,8.0838787 C34.8600064,8.24528139 34.880509,8.40512711 34.9163922,8.56341585 C34.9522676,8.72170459 34.9727713,8.80682776 34.9779011,8.81876045 C35.0202998,8.83667193 35.0557132,8.84445683 35.0841415,8.84211513 C35.112562,8.83978589 35.1479755,8.832001 35.1903831,8.81876045 C35.3117636,8.70536253 35.4827752,8.60519272 35.7034166,8.51826345 C35.924049,8.43133418 36.2040969,8.36543037 36.5435623,8.32053954 C36.5771059,8.2785011 36.5938867,8.22244985 36.5938867,8.15238578 C36.5938867,8.08232172 36.5771059,8.02627046 36.5435623,7.98423202 C36.1964083,7.95724023 35.9708786,7.87420964 35.8669721,7.73511534 C35.7630556,7.5960335 35.7164587,7.37597628 35.7271814,7.0749686 L35.7271814,1.43255053 C35.7290401,1.0238497 35.7364961,0.704681414 35.7495483,0.475020747 C35.7625904,0.245372535 35.7700453,0.128599092 35.771914,0.124700416 C35.7737738,0.0396021578 35.7253126,-0.00192559275 35.6265316,6.85254369e-05 C35.4669316,0.0663199217 35.2269574,0.133270029 34.9066067,0.200992399 C34.5862482,0.268727224 34.3043361,0.313879622 34.0608704,0.336449594 C34.0496836,0.390943867 34.0496836,0.456336996 34.0608704,0.532628979 C34.0720505,0.608920962 34.0944173,0.668086174 34.1279699,0.710112158 C34.4122093,0.703635124 34.6041886,0.747753688 34.7039102,0.842455394 C34.803624,0.937182012 34.8502209,1.23351876 34.843701,1.73147809 L34.843701,3.32581239 C34.8443966,3.36863554 34.8374069,3.39821815 34.822732,3.4145602 C34.8080504,3.43091471 34.7814897,3.43869961 34.7430511,3.43791489 C34.7101964,3.42909616 34.6053528,3.39379633 34.4285214,3.3320403 C34.2516822,3.27028428 34.0657598,3.2349969 33.8707542,3.22616571 C33.5058967,3.22772269 33.1899691,3.29311582 32.9229701,3.4223451 C32.6559678,3.55157438 32.4127313,3.73529793 32.1932608,3.9735033 C31.9507211,4.2415653 31.762004,4.55866592 31.627106,4.92480516 C31.4922069,5.29095686 31.4237095,5.7045902 31.4216126,6.16570517 C31.42534,6.94652404 31.5912262,7.58020214 31.91927,8.06675192 C32.2473115,8.55330171 32.715146,8.80397537 33.3227735,8.81876045 C33.5375828,8.81883518 33.7565892,8.75640654 33.9797916,8.63146207 C34.2029884,8.5065176 34.4499522,8.31858398 34.7206843,8.06768611 L34.7206843,8.06768611 Z M38.0294397,5.18170674 C38.1582796,4.50261467 38.3619088,4.07341154 38.6403272,3.89409736 C38.9187422,3.71479563 39.1363507,3.63746981 39.2931526,3.66210745 C39.5177473,3.65122105 39.7255703,3.73841189 39.9166214,3.92367996 C40.1076658,4.10896049 40.2092472,4.45772385 40.2213656,4.96995756 C40.2220612,5.02612092 40.2094799,5.0688818 40.1836215,5.09825265 C40.1577565,5.12763597 40.1144218,5.14299401 40.0536163,5.14433924 L38.0294397,5.18170674 Z M40.9594636,7.535822 C40.761189,7.77092587 40.5594231,7.94219358 40.3541678,8.04962515 C40.1489036,8.15705672 39.8884268,8.20999401 39.5727352,8.20843704 C39.3674721,8.21076628 39.1573196,8.14070221 38.9422767,7.99824484 C38.7272292,7.85578746 38.5310549,7.62691151 38.3537561,7.31162944 C38.240989,7.10584661 38.1533869,6.86036703 38.0909475,6.57517826 C38.0285059,6.29000194 37.996821,5.9666734 37.9958905,5.60519264 L40.9706459,5.63010431 C41.0382073,5.62985519 41.0903959,5.61168213 41.1272129,5.57561003 C41.1640198,5.5395504 41.1826582,5.48713625 41.183129,5.41836759 C41.2015302,4.87031089 41.0808441,4.3783179 40.8210696,3.94236371 C40.5612873,3.50642198 40.0519824,3.27598905 39.2931526,3.25107738 C38.7742914,3.25471449 38.2798973,3.50589883 37.8099681,4.00464288 C37.3400356,4.50339939 37.0888779,5.22789297 37.056469,6.178161 C37.0553276,6.530549 37.0967991,6.86582269 37.1809075,7.18395714 C37.2650148,7.5020916 37.3987486,7.78131403 37.5821078,8.02159953 C37.769427,8.27278387 38.00148,8.46792942 38.2782679,8.60701127 C38.5550524,8.74610557 38.8933469,8.81668032 39.2931526,8.81876045 C39.71625,8.81408951 40.0834347,8.71444284 40.3947067,8.51982043 C40.7059708,8.32521048 40.9725057,8.06363796 41.1943124,7.73511534 C41.1782318,7.67309775 41.1516711,7.62587768 41.1146304,7.59343023 C41.0775819,7.56099524 41.0258596,7.5418008 40.9594636,7.535822 L40.9594636,7.535822 Z M46.4982648,4.23507581 C46.4789241,4.26777238 46.456092,4.295798 46.4297662,4.31915269 C46.4034371,4.34250738 46.3889925,4.31448175 46.3864315,4.23507581 C46.3887599,4.03215782 46.3980791,3.82767039 46.4143901,3.62162599 C46.4306967,3.41559404 46.4400158,3.30453782 46.4423476,3.28844488 C46.4423465,3.22409805 46.3976127,3.19087834 46.3081486,3.18879821 C46.1550753,3.25679461 45.9551747,3.32010761 45.7084445,3.37874968 C45.4617122,3.43739175 45.1471825,3.49448929 44.7648543,3.5500174 C44.7546024,3.59257898 44.7527381,3.6506979 44.7592625,3.72438662 C44.7657858,3.79808779 44.775105,3.85621917 44.7872211,3.89876829 C45.0817135,3.91615664 45.278353,3.97481116 45.3771397,4.07470695 C45.4759241,4.17461519 45.5215894,4.39829706 45.5141345,4.74575255 L45.5141345,7.17461527 C45.5234526,7.66480216 45.4768557,7.97359474 45.3743438,8.10100547 C45.2718286,8.22841619 45.0574823,8.29743397 44.7313039,8.30808371 C44.6977536,8.35323611 44.6809796,8.42174319 44.6809796,8.51359251 C44.6809796,8.60545429 44.6977536,8.67396137 44.7313039,8.71911377 C44.9531051,8.71262428 45.1553363,8.70691951 45.3379976,8.701987 C45.5206567,8.69705449 45.7284797,8.69446368 45.9614665,8.69420211 C46.1690546,8.69446368 46.3493853,8.69705449 46.5024586,8.701987 C46.6555274,8.70691951 46.8442457,8.71262428 47.0686123,8.71911377 C47.1021593,8.67396137 47.1189344,8.60545429 47.1189378,8.51359251 C47.1189344,8.42174319 47.1021593,8.35323611 47.0686123,8.30808371 C46.7911244,8.29743397 46.6079989,8.22841619 46.5192326,8.10100547 C46.4304641,7.97359474 46.3899241,7.66480216 46.397615,7.17461527 L46.397615,5.1318834 C46.3999422,5.00265413 46.4204448,4.89677954 46.4591227,4.81425964 C46.4977962,4.73175219 46.5406657,4.66324511 46.5877312,4.60873838 C46.8004446,4.37649935 47.0152561,4.1964129 47.2321678,4.06847903 C47.4490751,3.94055762 47.6666824,3.87567518 47.8849932,3.87385663 C47.9991526,3.87464134 48.1091205,3.91356583 48.2149001,3.99063007 C48.320672,4.06770677 48.4082741,4.1782523 48.4777076,4.32226665 C48.5322224,4.44785882 48.5685674,4.59213475 48.586745,4.75509443 C48.6049136,4.91806656 48.6133012,5.09348207 48.6119066,5.28135341 L48.6119066,7.17461527 C48.6193581,7.66480216 48.5764887,7.97359474 48.4832993,8.10100547 C48.390101,8.22841619 48.2018491,8.29743397 47.9185424,8.30808371 C47.8905816,8.35323611 47.8766023,8.42174319 47.8766056,8.51359251 C47.8766023,8.60545429 47.8905816,8.67396137 47.9185424,8.71911377 C48.1436024,8.71262428 48.3365144,8.70691951 48.4972786,8.701987 C48.6580338,8.69705449 48.8453542,8.69446368 49.0592385,8.69420211 C49.279172,8.69446368 49.4739473,8.69705449 49.6435653,8.701987 C49.8131734,8.70691951 50.0135414,8.71262428 50.2446684,8.71911377 C50.2726203,8.67396137 50.2866052,8.60545429 50.2866052,8.51359251 C50.2866052,8.42174319 50.2726203,8.35323611 50.2446684,8.30808371 C49.9394523,8.29743397 49.7362883,8.22841619 49.6351789,8.10100547 C49.5340571,7.97359474 49.4874602,7.66480216 49.495387,7.17461527 L49.495387,5.31872091 C49.4988774,4.97359467 49.4807043,4.65805102 49.4408689,4.37208999 C49.4010234,4.08612895 49.3185467,3.84532031 49.1934387,3.64965161 C49.0960455,3.51212675 48.9665066,3.40729845 48.8048187,3.33515426 C48.6431229,3.26302253 48.4632586,3.22668886 48.2652245,3.22616571 C47.9944925,3.21526686 47.7167742,3.27754603 47.4320696,3.41300322 C47.1473582,3.54846042 46.8360907,3.82248877 46.4982648,4.23507581 L46.4982648,4.23507581 Z M53.7021301,5.79203015 L53.7021301,7.44864362 C53.7011951,7.52829868 53.6862842,7.59318111 53.6573974,7.64325357 C53.6285039,7.69333848 53.5912261,7.73641075 53.5455642,7.77248285 C53.3969161,7.90923545 53.2356901,8.03120297 53.0618861,8.13837297 C52.8880775,8.24554296 52.7212598,8.30210491 52.5614339,8.30808371 C52.2832481,8.2953663 52.0791526,8.19624277 51.9491485,8.01070067 C51.8191422,7.82515857 51.7548374,7.62950233 51.7562376,7.42373195 C51.7489202,7.1366748 51.8228226,6.86877472 51.9779459,6.62001926 C52.1330657,6.37127626 52.4133003,6.18247072 52.8186496,6.05360266 L53.7021301,5.79203015 Z M53.7021301,8.09633453 C53.7300383,8.24087203 53.8072969,8.39396668 53.9339046,8.55563095 C54.0605044,8.71729522 54.2702845,8.8050092 54.5632436,8.81876045 C54.8425891,8.79930443 55.0695167,8.71367057 55.2440264,8.56185887 C55.4185283,8.41005962 55.5084599,8.30885597 55.5138235,8.25826037 C55.5105568,8.21128942 55.4919185,8.16510319 55.4579074,8.11968922 C55.4238863,8.07427525 55.3940646,8.04988672 55.3684411,8.04651119 C55.3402912,8.05481923 55.3037594,8.08802649 55.2588445,8.14615787 C55.2139206,8.20427679 55.1348917,8.2374965 55.021759,8.24580454 C54.812301,8.2374965 54.6832273,8.1326682 54.6345369,7.93129473 C54.5858386,7.72993372 54.5658024,7.48185087 54.574427,7.1870711 L54.574427,5.33117675 C54.5550853,4.46965653 54.3756873,3.89773446 54.0362308,3.61539807 C53.6967676,3.33308659 53.3132752,3.20333417 52.8857503,3.22616571 C52.4076616,3.24173551 51.9854924,3.38809156 51.6192416,3.66522141 C51.2529873,3.94237617 51.0600764,4.25687352 51.0405065,4.60873838 C51.0407391,4.7576977 51.0738231,4.86772008 51.1397584,4.93881798 C51.2056926,5.00992833 51.3030802,5.04521571 51.4319212,5.04469257 C51.5943114,5.03769239 51.7168618,4.98942603 51.7995723,4.8998935 C51.8822805,4.81037342 51.923752,4.7216256 51.9239869,4.63365004 C51.9239847,4.58928236 51.9211888,4.54724392 51.9155993,4.50754718 C51.9100065,4.46783798 51.9016189,4.43514142 51.8904366,4.40945749 C51.88461,4.39129688 51.8794846,4.36222497 51.8750594,4.32226665 C51.8706318,4.28230833 51.8683012,4.22833721 51.8680697,4.16034081 C51.8801836,3.96961708 51.981765,3.83415988 52.172815,3.75396922 C52.3638606,3.67379102 52.5716835,3.63486654 52.7962839,3.63719578 C53.000376,3.61670593 53.1988787,3.71064783 53.3917941,3.91900902 C53.5847028,4.12739513 53.6881474,4.57320188 53.7021301,5.25644174 C53.7014277,5.30003716 53.6944392,5.33429071 53.6811622,5.35920238 C53.6678785,5.38411404 53.6525013,5.39968384 53.6350305,5.40591175 L52.6732672,5.66747181 C52.1266822,5.82057892 51.684942,6.05307952 51.3480465,6.36499851 C51.01115,6.67690505 50.8378089,7.04641983 50.8280234,7.47354283 C50.8378089,7.96010507 50.9748038,8.30729899 51.2390103,8.51514949 C51.5032145,8.72301245 51.8359173,8.8242161 52.2371187,8.81876045 C52.4822171,8.82343138 52.6881758,8.78917784 52.8549958,8.71599981 C53.0218102,8.64282179 53.2221783,8.50269366 53.4560978,8.29562787 L53.6797643,8.09633453 L53.7021301,8.09633453 Z M61.3855042,4.19770831 L60.3678248,4.19770831 L60.3678248,1.70656642 C60.3678226,1.55296108 60.4013729,1.42425494 60.4684746,1.32044802 C60.5355719,1.21665356 60.6362217,1.16268243 60.770423,1.15852218 L61.9446694,1.15852218 C62.3488948,1.16138702 62.6336028,1.28022814 62.7987933,1.51507043 C62.9639749,1.74991272 63.1005046,2.08361697 63.2083811,2.51619563 C63.3459307,2.53591322 63.4689474,2.5151618 63.5774301,2.45391646 C63.544108,2.16146594 63.498909,1.80907794 63.4418321,1.39674001 C63.3847462,0.984414534 63.3479348,0.734774709 63.3313978,0.647845444 C63.3332565,0.622933776 63.3183457,0.610477942 63.2866641,0.610477942 C63.197427,0.62890012 63.1158818,0.641879099 63.0420297,0.649402423 C62.9681687,0.656925747 62.8670537,0.66056285 62.7386835,0.660301278 L59.8869437,0.660301278 C59.8617787,0.660039705 59.6912346,0.657448892 59.375307,0.652516381 C59.0593793,0.647583871 58.7490423,0.641879099 58.4442981,0.63538961 C58.4107478,0.680542008 58.3939737,0.749049095 58.3939737,0.840898415 C58.3939737,0.932772646 58.4107489,1.00127973 58.4442981,1.04641968 C58.8273252,1.04538584 59.0873368,1.10974514 59.2243328,1.2394851 C59.3613277,1.36923753 59.4256313,1.68270104 59.4172449,2.17988811 L59.4172449,7.17461527 C59.4256313,7.67180234 59.3613277,7.98526586 59.2243328,8.11501828 C59.0873368,8.24475825 58.8273252,8.30911754 58.4442981,8.30808371 C58.4107478,8.35323611 58.3939737,8.42174319 58.3939737,8.51359251 C58.3939737,8.60545429 58.4107489,8.67396137 58.4442981,8.71911377 C58.7446159,8.71262428 59.0554182,8.70691951 59.3767049,8.701987 C59.6979905,8.69705449 59.8717979,8.69446368 59.898126,8.69420211 L62.302535,8.69420211 C62.597024,8.6952484 62.9026998,8.69939619 63.2195646,8.70665794 C63.5364193,8.71393215 63.7078961,8.71807994 63.733996,8.71911377 C63.8141377,8.39968391 63.891489,8.05455766 63.9660501,7.68373503 C64.0405989,7.31292485 64.1011751,6.96468464 64.1477788,6.63901441 C64.0323981,6.56158894 63.9019265,6.54082507 63.7563629,6.57673524 C63.6505821,7.03707795 63.4846971,7.42112868 63.2587066,7.72888743 C63.0327061,8.03664617 62.710254,8.19649189 62.2913515,8.20843704 L60.770423,8.20843704 C60.6460072,8.20714163 60.5481533,8.15990911 60.4768622,8.06675192 C60.4055655,7.97359474 60.3692205,7.84228534 60.3678248,7.67283617 L60.3678248,4.67101755 L61.3855042,4.67101755 C61.8416867,4.67129157 62.1259284,4.74238948 62.2382302,4.8843237 C62.3505253,5.02627039 62.4055098,5.23749642 62.4031848,5.51801426 C62.4437192,5.55538176 62.5052281,5.57406551 62.5877082,5.57405306 C62.6701815,5.57406551 62.7316893,5.55538176 62.7722327,5.51801426 C62.7664038,5.30808363 62.7612785,5.12383694 62.7568554,4.96528662 C62.7524245,4.80673631 62.750095,4.62561603 62.7498669,4.42191332 C62.750095,4.21535823 62.7524245,4.03060084 62.7568565,3.86762871 C62.7612785,3.70466903 62.7664038,3.53236748 62.7722327,3.35072405 C62.7316893,3.31335655 62.6701815,3.2946728 62.5877082,3.2946728 C62.5052281,3.2946728 62.4437192,3.31335655 62.4031848,3.35072405 C62.4055098,3.68573617 62.3505253,3.91253199 62.2382302,4.03111153 C62.1259284,4.14970353 61.8416867,4.20523163 61.3855042,4.19770831 L61.3855042,4.19770831 Z M66.5279767,4.23507581 C66.5086372,4.26777238 66.485804,4.295798 66.4594781,4.31915269 C66.433149,4.34250738 66.4187044,4.31448175 66.4161434,4.23507581 C66.4184718,4.03215782 66.427791,3.82767039 66.444102,3.62162599 C66.4604086,3.41559404 66.4697289,3.30453782 66.4720606,3.28844488 C66.4720584,3.22409805 66.4273246,3.19087834 66.3378605,3.18879821 C66.1847883,3.25679461 65.9848866,3.32010761 65.7381565,3.37874968 C65.4914241,3.43739175 65.1768944,3.49448929 64.7945662,3.5500174 C64.7843143,3.59257898 64.78245,3.6506979 64.7889745,3.72438662 C64.7954978,3.79808779 64.8048169,3.85621917 64.8169331,3.89876829 C65.1114254,3.91615664 65.3080649,3.97481116 65.4068516,4.07470695 C65.505636,4.17461519 65.5513013,4.39829706 65.5438465,4.74575255 L65.5438465,7.17461527 C65.5531656,7.66480216 65.5065676,7.97359474 65.4040557,8.10100547 C65.3015416,8.22841619 65.0871954,8.29743397 64.7610159,8.30808371 C64.7274656,8.35323611 64.7106915,8.42174319 64.7106915,8.51359251 C64.7106915,8.60545429 64.7274667,8.67396137 64.7610159,8.71911377 C64.9828181,8.71262428 65.1850482,8.70691951 65.3677095,8.701987 C65.5503698,8.69705449 65.7581916,8.69446368 65.9911784,8.69420211 C66.1987665,8.69446368 66.3790972,8.69705449 66.5321705,8.701987 C66.6852393,8.70691951 66.8739576,8.71262428 67.0983242,8.71911377 C67.1318723,8.67396137 67.1486463,8.60545429 67.1486497,8.51359251 C67.1486463,8.42174319 67.1318723,8.35323611 67.0983242,8.30808371 C66.8208374,8.29743397 66.6377108,8.22841619 66.5489456,8.10100547 C66.460176,7.97359474 66.419636,7.66480216 66.4273269,7.17461527 L66.4273269,5.1318834 C66.4296553,5.00265413 66.4501579,4.89677954 66.4888347,4.81425964 C66.5275081,4.73175219 66.5703776,4.66324511 66.6174431,4.60873838 C66.8301566,4.37649935 67.0449691,4.1964129 67.2618809,4.06847903 C67.478787,3.94055762 67.6963943,3.87567518 67.9147051,3.87385663 C68.0288645,3.87464134 68.1388335,3.91356583 68.2446121,3.99063007 C68.3503839,4.06770677 68.437986,4.1782523 68.5074195,4.32226665 C68.5619343,4.44785882 68.5982805,4.59213475 68.6164569,4.75509443 C68.6346255,4.91806656 68.6430131,5.09348207 68.6416196,5.28135341 L68.6416196,7.17461527 C68.6490712,7.66480216 68.6062017,7.97359474 68.5130112,8.10100547 C68.4198129,8.22841619 68.231561,8.29743397 67.9482554,8.30808371 C67.9202935,8.35323611 67.9063142,8.42174319 67.9063175,8.51359251 C67.9063142,8.60545429 67.9202935,8.67396137 67.9482554,8.71911377 C68.1733154,8.71262428 68.3662264,8.70691951 68.5269905,8.701987 C68.6877457,8.69705449 68.8750661,8.69446368 69.0889516,8.69420211 C69.3088839,8.69446368 69.5036592,8.69705449 69.6732784,8.701987 C69.8428864,8.70691951 70.0432533,8.71262428 70.2743803,8.71911377 C70.3023322,8.67396137 70.3163171,8.60545429 70.3163171,8.51359251 C70.3163171,8.42174319 70.3023322,8.35323611 70.2743803,8.30808371 C69.9691642,8.29743397 69.7660014,8.22841619 69.6648908,8.10100547 C69.5637702,7.97359474 69.5171732,7.66480216 69.5251001,7.17461527 L69.5251001,5.31872091 C69.5285893,4.97359467 69.5104162,4.65805102 69.4705808,4.37208999 C69.4307353,4.08612895 69.3482586,3.84532031 69.2231506,3.64965161 C69.1257585,3.51212675 68.9962185,3.40729845 68.8345317,3.33515426 C68.6728349,3.26302253 68.4929705,3.22668886 68.2949375,3.22616571 C68.0242044,3.21526686 67.7464861,3.27754603 67.4617815,3.41300322 C67.1770713,3.54846042 66.8658026,3.82248877 66.5279767,4.23507581 L66.5279767,4.23507581 Z M70.9919354,6.97532192 C71.0147676,7.28126212 71.0334059,7.57864516 71.0478515,7.86745858 C71.062296,8.156272 71.069752,8.43185733 71.0702184,8.69420211 C71.1272987,8.68174627 71.1808852,8.6724044 71.2309781,8.66617648 C71.2810698,8.65994856 71.3206771,8.6568346 71.349801,8.6568346 C71.3884756,8.65632391 71.4257533,8.65735775 71.4616343,8.65994856 C71.497513,8.66255183 71.5347907,8.66981358 71.5734664,8.68174627 C71.7221099,8.72560326 71.8777443,8.75933366 72.0403693,8.78294992 C72.2029911,8.80656618 72.386584,8.81849887 72.591147,8.81876045 C72.9392236,8.83044402 73.3138643,8.72301245 73.7150679,8.49646574 C74.1162648,8.26993149 74.3343385,7.85423048 74.3692901,7.24935027 C74.3621573,6.82803169 74.238861,6.48519731 73.9994024,6.22082224 C73.759937,5.95644716 73.4470848,5.74625496 73.0608446,5.59024564 C72.7206847,5.4606676 72.4504213,5.31814795 72.2500554,5.16271159 C72.0496874,5.00727524 71.9471733,4.76449858 71.9425154,4.43436916 C71.9513671,4.17772915 72.0343102,3.98103908 72.1913435,3.84427402 C72.3483746,3.70753387 72.5263747,3.63850364 72.725346,3.63719578 C72.8672314,3.61929675 73.0531538,3.68001894 73.2831132,3.81936235 C73.5130671,3.95871822 73.6738268,4.28412689 73.7653923,4.79557589 C73.8054625,4.8324327 73.8651072,4.84903633 73.9443251,4.84539922 C74.0235362,4.84177457 74.0831809,4.8210107 74.1232578,4.78312005 C74.1253514,4.55763209 74.1351369,4.33290393 74.1526144,4.10896049 C74.170084,3.88501705 74.1826654,3.66964323 74.1903573,3.46282656 C74.0139845,3.42572063 73.7991719,3.37848811 73.5459196,3.32114145 C73.2926617,3.26379479 73.0191382,3.23213206 72.725346,3.22616571 C72.2975828,3.23447376 71.9313308,3.36732768 71.6265866,3.62473995 C71.3218413,3.88216467 71.1624795,4.21432439 71.1485013,4.62119421 C71.1459381,5.06467172 71.2433257,5.41084426 71.4406653,5.65968691 C71.6380027,5.90854202 71.9506681,6.12704226 72.3786639,6.31517518 C72.8313057,6.52001137 73.1371682,6.71007494 73.2962527,6.88532852 C73.4553326,7.06059456 73.5297013,7.27742572 73.51936,7.535822 C73.5056111,7.83917138 73.3989032,8.06078558 73.1992386,8.20065214 C72.9995672,8.3405187 72.7894148,8.40953647 72.5687801,8.40773038 C72.3518683,8.4038317 72.1789936,8.37113514 72.0501548,8.30964069 C71.9213127,8.24813378 71.8295157,8.18118367 71.774766,8.10879036 C71.6433606,7.95517256 71.5455078,7.76730122 71.4812041,7.54516387 C71.4168994,7.32303899 71.3693709,7.12893973 71.3386176,6.96286609 C71.2990092,6.92602173 71.2412288,6.90941811 71.1652765,6.91304275 C71.0893231,6.91667986 71.0315427,6.93744373 70.9919354,6.97532192 L70.9919354,6.97532192 Z M78.0130029,5.79203015 L78.0130029,7.44864362 C78.0120669,7.52829868 77.997156,7.59318111 77.9682692,7.64325357 C77.9393757,7.69333848 77.9020979,7.73641075 77.8564359,7.77248285 C77.7077879,7.90923545 77.546563,8.03120297 77.372759,8.13837297 C77.1989493,8.24554296 77.0321316,8.30210491 76.8723068,8.30808371 C76.5941199,8.2953663 76.3900255,8.19624277 76.2600214,8.01070067 C76.1300139,7.82515857 76.0657103,7.62950233 76.0671093,7.42373195 C76.059792,7.1366748 76.1336955,6.86877472 76.2888176,6.62001926 C76.4439375,6.37127626 76.7241721,6.18247072 77.1295225,6.05360266 L78.0130029,5.79203015 Z M78.0130029,8.09633453 C78.0409101,8.24087203 78.1181686,8.39396668 78.2447763,8.55563095 C78.3713773,8.71729522 78.5811563,8.8050092 78.8741165,8.81876045 C79.1534609,8.79930443 79.3803885,8.71367057 79.5548993,8.56185887 C79.7294001,8.41005962 79.8193328,8.30885597 79.8246964,8.25826037 C79.8214297,8.21128942 79.8027903,8.16510319 79.7687792,8.11968922 C79.7347581,8.07427525 79.7049363,8.04988672 79.6793128,8.04651119 C79.6511641,8.05481923 79.6146312,8.08802649 79.5697174,8.14615787 C79.5247924,8.20427679 79.4457635,8.2374965 79.3326307,8.24580454 C79.1231728,8.2374965 78.9940991,8.1326682 78.9454098,7.93129473 C78.8967115,7.72993372 78.8766741,7.48185087 78.8852988,7.1870711 L78.8852988,5.33117675 C78.8659571,4.46965653 78.6865591,3.89773446 78.3471026,3.61539807 C78.0076405,3.33308659 77.624147,3.20333417 77.196622,3.22616571 C76.7185345,3.24173551 76.2963653,3.38809156 75.9301133,3.66522141 C75.5638602,3.94237617 75.3709482,4.25687352 75.3513783,4.60873838 C75.3516109,4.7576977 75.3846948,4.86772008 75.4506301,4.93881798 C75.5165643,5.00992833 75.613952,5.04521571 75.7427941,5.04469257 C75.9051832,5.03769239 76.0277336,4.98942603 76.110444,4.8998935 C76.1931523,4.81037342 76.2346238,4.7216256 76.2348587,4.63365004 C76.2348576,4.58928236 76.2320617,4.54724392 76.2264711,4.50754718 C76.2208783,4.46783798 76.2124907,4.43514142 76.2013084,4.40945749 C76.1954829,4.39129688 76.1903564,4.36222497 76.1859311,4.32226665 C76.1815036,4.28230833 76.1791741,4.22833721 76.1789426,4.16034081 C76.1910554,3.96961708 76.2926379,3.83415988 76.4836868,3.75396922 C76.6747335,3.67379102 76.8825553,3.63486654 77.1071557,3.63719578 C77.3112478,3.61670593 77.5097516,3.71064783 77.7026659,3.91900902 C77.8955746,4.12739513 77.9990203,4.57320188 78.0130029,5.25644174 C78.0123006,5.30003716 78.005311,5.33429071 77.992034,5.35920238 C77.9787503,5.38411404 77.9633731,5.39968384 77.9459023,5.40591175 L76.984139,5.66747181 C76.437554,5.82057892 75.9958138,6.05307952 75.6589183,6.36499851 C75.3220217,6.67690505 75.1486807,7.04641983 75.1388963,7.47354283 C75.1486807,7.96010507 75.2856767,8.30729899 75.549882,8.51514949 C75.8140863,8.72301245 76.1467891,8.8242161 76.5479905,8.81876045 C76.7930889,8.82343138 76.9990476,8.78917784 77.1658676,8.71599981 C77.3326831,8.64282179 77.53305,8.50269366 77.7669695,8.29562787 L77.9906361,8.09633453 L78.0130029,8.09633453 Z M80.8539669,1.23325719 C80.8595648,1.40193409 80.915482,1.55037026 81.0217235,1.6785408 C81.127964,1.80674869 81.2509795,1.87420949 81.3907725,1.8809481 C81.5519963,1.87247813 81.6880596,1.80567749 81.7989624,1.6805711 C81.9098619,1.55547716 81.9676422,1.42298445 81.9723107,1.28308052 C81.9688075,1.12531493 81.9170841,0.979992713 81.8171355,0.847126332 C81.7171835,0.714272406 81.589973,0.643697651 81.4355051,0.63538961 C81.293849,0.641617527 81.1633774,0.703896697 81.0440904,0.822214664 C80.9248011,0.940557543 80.8614291,1.07757172 80.8539669,1.23325719 L80.8539669,1.23325719 Z M81.8716536,7.17461527 L81.8716536,4.69219246 C81.8735157,4.36236198 81.8809717,4.04894828 81.8940205,3.75195138 C81.907066,3.45496693 81.9145209,3.29630452 81.9163874,3.27598905 C81.9159188,3.25056669 81.9028722,3.22980282 81.8772454,3.21370988 C81.8516152,3.1976294 81.8162017,3.18932136 81.7710049,3.18879821 C81.615951,3.25679461 81.4172146,3.32010761 81.1747946,3.37874968 C80.9323723,3.43739175 80.6204059,3.49448929 80.2388929,3.5500174 C80.2286411,3.59257898 80.2267779,3.6506979 80.2333012,3.72438662 C80.2398245,3.79808779 80.2491437,3.85621917 80.2612598,3.89876829 C80.5581991,3.91748941 80.7555376,3.97783793 80.8532752,4.07985121 C80.9510118,4.18185203 80.9959781,4.40382745 80.9881743,4.74575255 L80.9881743,7.17461527 C80.9972586,7.67024536 80.9483322,7.98059492 80.8413928,8.1056764 C80.7344512,8.23074543 80.5149796,8.29821869 80.1829769,8.30808371 C80.1494266,8.35323611 80.1326514,8.42174319 80.1326514,8.51359251 C80.1326514,8.60545429 80.1494266,8.67396137 80.1829769,8.71911377 C80.4099034,8.71262428 80.615862,8.70691951 80.800854,8.701987 C80.9858426,8.69705449 81.197393,8.69446368 81.4355051,8.69420211 C81.667557,8.69446368 81.8744484,8.69705449 82.0561781,8.701987 C82.2379045,8.70691951 82.4447948,8.71262428 82.6768511,8.71911377 C82.7103981,8.67396137 82.7271755,8.60545429 82.7271755,8.51359251 C82.7271755,8.42174319 82.7103981,8.35323611 82.6768511,8.30808371 C82.344845,8.30366189 82.1253723,8.23775807 82.0184351,8.11034734 C81.9114924,7.98293662 81.862566,7.67103008 81.8716536,7.17461527 L81.8716536,7.17461527 Z M83.8453694,7.17461527 C83.8532906,7.67103008 83.8066937,7.98293662 83.7055787,8.11034734 C83.6044625,8.23775807 83.4012997,8.30366189 83.0960891,8.30808371 C83.0625388,8.35323611 83.0457637,8.42174319 83.0457637,8.51359251 C83.0457637,8.60545429 83.0625388,8.67396137 83.0960891,8.71911377 C83.322084,8.71262428 83.5215194,8.70691951 83.6943952,8.701987 C83.8672699,8.69705449 84.0667042,8.69446368 84.2927013,8.69420211 C84.476292,8.69446368 84.6347222,8.69705449 84.7679919,8.701987 C84.9012571,8.70691951 85.082053,8.71262428 85.3103819,8.71911377 C85.3439288,8.67396137 85.360704,8.60545429 85.3607062,8.51359251 C85.360704,8.42174319 85.3439288,8.35323611 85.3103819,8.30808371 C85.0855478,8.30366189 84.9313125,8.23775807 84.8476727,8.11034734 C84.7640284,7.98293662 84.7244212,7.67103008 84.7288498,7.17461527 L84.7288498,6.05360266 C84.8582243,6.05251901 84.9704769,6.08396999 85.0656066,6.14795561 C85.1607329,6.21195368 85.2609634,6.32996025 85.366298,6.50200023 L86.1826789,7.78493868 C86.2912466,7.96087733 86.3620735,8.09789151 86.3951608,8.1959812 C86.4282414,8.29407089 86.4431523,8.38126173 86.4398946,8.45754126 L86.4398946,8.6568346 C86.438027,8.69628223 86.4529378,8.7170461 86.4846272,8.71911377 C86.5936613,8.71262428 86.7082893,8.70691951 86.8285135,8.701987 C86.9487298,8.69705449 87.0913164,8.69446368 87.2562744,8.69420211 C87.4251846,8.69446368 87.5794209,8.69705449 87.7189835,8.701987 C87.8585361,8.70691951 88.0099766,8.71262428 88.1733051,8.71911377 C88.2068487,8.67396137 88.2236295,8.60545429 88.2236295,8.51359251 C88.2236295,8.42174319 88.2068487,8.35323611 88.1733051,8.30808371 C87.9828109,8.29079501 87.8068608,8.25000215 87.6454524,8.18570514 C87.4840363,8.12139567 87.3393986,7.98780685 87.2115417,7.78493868 L85.9030963,5.63010431 C85.8676794,5.5782133 85.84904,5.52008193 85.8471791,5.45573509 C85.8453126,5.40799188 85.8602234,5.36646413 85.8919128,5.33117675 L86.7418429,4.28489915 C86.9034604,4.09633028 87.0801095,3.96030011 87.2717914,3.87682111 C87.4634643,3.79334212 87.6968683,3.74668256 87.9720055,3.73684245 C88.0055502,3.69170251 88.0223242,3.62319542 88.0223298,3.53133365 C88.0223253,3.43947187 88.0055502,3.37096478 87.9720055,3.32581239 C87.7755941,3.33230188 87.6120386,3.33800665 87.4813377,3.34293916 C87.350629,3.34787167 87.1898694,3.35046248 86.9990587,3.35072405 C86.796124,3.35046248 86.6232493,3.34787167 86.4804334,3.34293916 C86.3376097,3.33800665 86.1675309,3.33230188 85.9701958,3.32581239 C85.9366421,3.37096478 85.9198681,3.43947187 85.9198703,3.53133365 C85.9198681,3.62319542 85.9366432,3.69170251 85.9701958,3.73684245 C86.2819263,3.77149458 86.4147274,3.8656856 86.3686002,4.01944041 C86.3224663,4.17318277 86.2567636,4.29074093 86.1714954,4.37208999 C85.8726181,4.73626121 85.5958324,5.04111774 85.3411352,5.28664714 C85.0864335,5.53217654 84.8823392,5.68195795 84.7288498,5.7359789 L84.7288498,1.43255053 C84.7307119,1.0238497 84.7381679,0.704681414 84.7512167,0.475020747 C84.7642622,0.245372535 84.7717171,0.128599092 84.7735836,0.124700416 C84.7754456,0.0396021578 84.7269844,-0.00192559275 84.6282,6.85254369e-05 C84.4686034,0.0663199217 84.2286292,0.133270029 83.9082751,0.200992399 C83.58792,0.268727224 83.3060078,0.313879622 83.0625388,0.336449594 C83.0513554,0.390943867 83.0513554,0.456336996 83.0625388,0.532628979 C83.0737222,0.608920962 83.0960891,0.668086174 83.1296394,0.710112158 C83.4138811,0.703635124 83.6058604,0.747753688 83.7055787,0.842455394 C83.8052958,0.937182012 83.8518927,1.23351876 83.8453694,1.73147809 L83.8453694,7.17461527 Z M89.3411546,7.17461527 C89.3502401,7.67180234 89.3013136,7.98526586 89.1943731,8.11501828 C89.0874326,8.24475825 88.867961,8.30911754 88.5359572,8.30808371 C88.5024069,8.35323611 88.4856328,8.42174319 88.4856328,8.51359251 C88.4856328,8.60545429 88.5024069,8.67396137 88.5359572,8.71911377 C88.7628848,8.71262428 88.9688434,8.70691951 89.1538343,8.701987 C89.338824,8.69705449 89.5503744,8.69446368 89.7884866,8.69420211 C90.0205384,8.69446368 90.2274287,8.69705449 90.4091595,8.701987 C90.5908848,8.70691951 90.7977762,8.71262428 91.0298325,8.71911377 C91.0633795,8.67396137 91.0801569,8.60545429 91.0801569,8.51359251 C91.0801569,8.42174319 91.0633795,8.35323611 91.0298325,8.30808371 C90.6978253,8.30911754 90.4783537,8.24475825 90.3714154,8.11501828 C90.2644738,7.98526586 90.2155463,7.67180234 90.2246351,7.17461527 L90.2246351,1.43255053 C90.2264971,1.0238497 90.233952,0.704681414 90.2470019,0.475020747 C90.2600463,0.245372535 90.2675023,0.128599092 90.2693677,0.124700416 C90.2712297,0.0396021578 90.2227697,-0.00192559275 90.1239852,6.85254369e-05 C89.9643886,0.0663199217 89.7244133,0.133270029 89.4040604,0.200992399 C89.0837052,0.268727224 88.8017931,0.313879622 88.558324,0.336449594 C88.5471406,0.390943867 88.5471406,0.456336996 88.558324,0.532628979 C88.5695075,0.608920962 88.5918732,0.668086174 88.6254236,0.710112158 C88.9096652,0.703635124 89.1016445,0.747753688 89.2013628,0.842455394 C89.3010799,0.937182012 89.3476768,1.23351876 89.3411546,1.73147809 L89.3411546,7.17461527 Z M91.6860133,6.1407935 C91.6853151,6.80821446 91.8796251,7.41334378 92.268944,7.9562064 C92.6582608,8.49906901 93.2467814,8.78658703 94.0345069,8.81876045 C94.8622994,8.78035911 95.4657309,8.47104338 95.8448025,7.89081327 C96.223864,7.31058315 96.410718,6.68988403 96.4053645,6.028691 C96.4158445,5.34518956 96.2411055,4.7161824 95.8811487,4.14165706 C95.5211817,3.56714417 94.9130901,3.26197624 94.0568727,3.22616571 C93.2975721,3.24874814 92.7137116,3.53677685 92.3052891,4.09027674 C91.8968655,4.64377664 91.6904404,5.32727807 91.6860133,6.1407935 L91.6860133,6.1407935 Z M93.9338571,3.63719578 C94.4175307,3.63902679 94.7893756,3.87516449 95.0493905,4.34562134 C95.3093976,4.81607819 95.4408019,5.50996779 95.4436011,6.42727768 C95.4261236,7.22910954 95.2905267,7.76469795 95.0368092,8.03405536 C94.7830849,8.30341277 94.5160837,8.42797111 94.2358055,8.40773038 C93.8500484,8.39396668 93.5405065,8.24433475 93.3071786,7.95885949 C93.0738463,7.67338423 92.9051307,7.33461046 92.8010308,6.94256308 C92.6969275,6.55052816 92.6458438,6.18777691 92.6477785,5.85430932 C92.6426509,5.2878429 92.7395733,4.78287094 92.9385434,4.33939342 C93.1375113,3.89591591 93.4692814,3.66185833 93.9338571,3.63719578 L93.9338571,3.63719578 Z M98.8199806,4.52155999 C98.998305,4.31707257 99.1890732,4.14685114 99.3922852,4.0108708 C99.5954927,3.87490292 99.7812284,3.80431571 99.9494933,3.79912162 C100.318073,3.80718055 100.62934,4.01529262 100.883298,4.4234703 C101.137248,4.83164798 101.269583,5.39163737 101.280306,6.103426 C101.292881,6.64576547 101.186641,7.15540837 100.961581,7.63235471 C100.736513,8.10931351 100.317141,8.36361181 99.703461,8.39527455 C99.5948866,8.39685644 99.4625507,8.37811041 99.3064534,8.33906137 C99.1503516,8.30001233 99.0180158,8.23114402 98.909447,8.13245645 C98.7999186,8.03137735 98.7270876,7.93521832 98.6909528,7.84395442 C98.6548157,7.75269052 98.6381804,7.60015638 98.6410478,7.38636445 L98.6410478,5.06960423 C98.6395548,4.94261701 98.6514842,4.83912148 98.6768348,4.75914257 C98.702181,4.67917612 98.7498962,4.59998193 98.8199806,4.52155999 L98.8199806,4.52155999 Z M98.7305142,4.11051747 C98.7106848,4.13192905 98.6877129,4.14174425 98.6615974,4.13993815 C98.6354773,4.13815697 98.6211726,4.11589839 98.6186809,4.07314997 C98.620543,3.84376333 98.627999,3.6548457 98.6410478,3.50642198 C98.6540933,3.35798581 98.6615482,3.28118313 98.6634147,3.27598905 C98.6629472,3.25056669 98.6498995,3.22980282 98.6242727,3.21370988 C98.5986425,3.1976294 98.563229,3.18932136 98.5180311,3.18879821 C98.3663569,3.25679461 98.1720469,3.32010761 97.9351022,3.37874968 C97.6981554,3.43739175 97.3892174,3.49448929 97.0082871,3.5500174 C96.9980353,3.59257898 96.996171,3.6506979 97.0026954,3.72438662 C97.0092187,3.79808779 97.0185379,3.85621917 97.030654,3.89876829 C97.3251463,3.91694136 97.5217859,3.9771404 97.6205725,4.07937789 C97.7193569,4.18162783 97.7650223,4.40375272 97.7575674,4.74575255 L97.7575674,10.0643314 C97.7666528,10.5615185 97.7177264,10.874982 97.610787,11.0047344 C97.5038454,11.1344744 97.2843738,11.1988337 96.9523699,11.1977998 C96.9188207,11.2429398 96.9020456,11.3114469 96.9020456,11.4033086 C96.9020456,11.4951704 96.9188207,11.5636775 96.9523699,11.6088299 C97.1792975,11.6023404 97.3852562,11.5966356 97.570247,11.5917031 C97.7552368,11.5867706 97.9667872,11.5841798 98.2048993,11.5839182 C98.4611812,11.5841798 98.6923026,11.5867706 98.8982635,11.5917031 C99.10422,11.5966356 99.3241579,11.6023404 99.5580774,11.6088299 C99.5916244,11.5636775 99.6083995,11.4951704 99.6084029,11.4033086 C99.6083995,11.3114469 99.5916255,11.2429398 99.5580774,11.1977998 C99.1724848,11.193378 98.9203944,11.1274742 98.8018075,11.0000635 C98.6832161,10.8726527 98.6296295,10.5607337 98.6410478,10.0643314 L98.6410478,8.71911377 C98.6404406,8.64111534 98.652276,8.59876551 98.6765552,8.59206427 C98.70083,8.58537548 98.7411832,8.59658573 98.7976137,8.62569502 C98.9359349,8.6876877 99.0881673,8.73528145 99.2543118,8.76847624 C99.4204507,8.80165859 99.5925336,8.81842414 99.7705605,8.81876045 C100.084389,8.82005585 100.379348,8.76452774 100.655439,8.65216367 C100.931522,8.53981204 101.184544,8.3628271 101.414505,8.1212462 C101.678938,7.83554673 101.882567,7.49768224 102.025392,7.10766516 C102.168207,6.71764809 102.240432,6.27079504 102.242069,5.76711848 C102.23088,5.08361705 102.04356,4.49509135 101.680108,4.00152892 C101.316646,3.50797896 100.844153,3.2495204 100.262625,3.22616571 C100.049207,3.227212 99.8050391,3.30298084 99.53012,3.45348468 C99.2551941,3.60398853 98.9886593,3.82299946 98.7305142,4.11051747 L98.7305142,4.11051747 Z M103.679537,1.23325719 C103.685134,1.40193409 103.741051,1.55037026 103.847294,1.6785408 C103.953536,1.80674869 104.076554,1.87420949 104.216347,1.8809481 C104.377568,1.87247813 104.513637,1.80567749 104.624532,1.6805711 C104.735438,1.55547716 104.793211,1.42298445 104.79788,1.28308052 C104.794374,1.12531493 104.742651,0.979992713 104.642705,0.847126332 C104.542758,0.714272406 104.415547,0.643697651 104.261081,0.63538961 C104.11942,0.641617527 103.988954,0.703896697 103.869661,0.822214664 C103.750367,0.940557543 103.687002,1.07757172 103.679537,1.23325719 L103.679537,1.23325719 Z M104.697224,7.17461527 L104.697224,4.69219246 C104.699092,4.36236198 104.70654,4.04894828 104.719591,3.75195138 C104.732642,3.45496693 104.74009,3.29630452 104.741958,3.27598905 C104.741488,3.25056669 104.728448,3.22980282 104.702816,3.21370988 C104.677183,3.1976294 104.641776,3.18932136 104.596573,3.18879821 C104.441526,3.25679461 104.242785,3.32010761 104.000362,3.37874968 C103.757949,3.43739175 103.445976,3.49448929 103.064464,3.5500174 C103.054214,3.59257898 103.052349,3.6506979 103.058873,3.72438662 C103.065396,3.79808779 103.074716,3.85621917 103.086831,3.89876829 C103.383774,3.91748941 103.581106,3.97783793 103.678849,4.07985121 C103.776581,4.18185203 103.82155,4.40382745 103.813744,4.74575255 L103.813744,7.17461527 C103.822836,7.67024536 103.773908,7.98059492 103.666961,8.1056764 C103.560025,8.23074543 103.34055,8.29821869 103.008548,8.30808371 C102.974998,8.35323611 102.958224,8.42174319 102.958224,8.51359251 C102.958224,8.60545429 102.974998,8.67396137 103.008548,8.71911377 C103.235476,8.71262428 103.441436,8.70691951 103.626421,8.701987 C103.811417,8.69705449 104.022963,8.69446368 104.261081,8.69420211 C104.493126,8.69446368 104.70002,8.69705449 104.881751,8.701987 C105.063482,8.70691951 105.270364,8.71262428 105.50242,8.71911377 C105.535971,8.67396137 105.552746,8.60545429 105.552746,8.51359251 C105.552746,8.42174319 105.535971,8.35323611 105.50242,8.30808371 C105.170418,8.30366189 104.950943,8.23775807 104.844007,8.11034734 C104.737059,7.98293662 104.688132,7.67103008 104.697224,7.17461527 L104.697224,7.17461527 Z M109.56741,7.1497036 C109.569814,7.26398588 109.559704,7.35553626 109.53708,7.42435474 C109.514456,7.49317322 109.464925,7.56353623 109.388486,7.63546867 C109.181123,7.83476202 108.989137,7.98423202 108.812539,8.0838787 C108.635941,8.18352537 108.477506,8.23336181 108.337254,8.23336181 C108.021792,8.23516725 107.741277,8.0478066 107.495712,7.67127919 C107.250146,7.29476424 107.120597,6.71817123 107.107087,5.94150016 C107.110118,5.49647812 107.143198,5.14096371 107.20634,4.87498183 C107.269482,4.6090124 107.3445,4.41230987 107.431407,4.28489915 C107.612433,4.00283679 107.801154,3.82585184 107.997557,3.75396922 C108.193961,3.68209906 108.351927,3.65148262 108.471455,3.66210745 C108.671348,3.66289217 108.844691,3.70181665 108.991474,3.77888089 C109.138257,3.85595759 109.266855,3.96650312 109.377303,4.11051747 C109.453719,4.20160699 109.504973,4.2903548 109.531064,4.37676092 C109.557155,4.46316704 109.569278,4.59862424 109.56741,4.78312005 L109.56741,7.1497036 Z M109.444403,8.06768611 C109.473469,8.04165342 109.502546,8.02739149 109.531623,8.02486295 C109.5607,8.02234688 109.576357,8.04202709 109.578593,8.0838787 C109.583715,8.24528139 109.604226,8.40512711 109.640102,8.56341585 C109.675979,8.72170459 109.696489,8.80682776 109.701611,8.81876045 C109.744019,8.83667193 109.779426,8.84445683 109.807854,8.84211513 C109.836271,8.83978589 109.871689,8.832001 109.914096,8.81876045 C110.035482,8.70536253 110.206487,8.60519272 110.427125,8.51826345 C110.647764,8.43133418 110.927808,8.36543037 111.26727,8.32053954 C111.30082,8.2785011 111.317596,8.22244985 111.317596,8.15238578 C111.317596,8.08232172 111.30082,8.02627046 111.26727,7.98423202 C110.920125,7.95724023 110.694589,7.87420964 110.590683,7.73511534 C110.486767,7.5960335 110.440177,7.37597628 110.45089,7.0749686 L110.45089,1.43255053 C110.452758,1.0238497 110.460206,0.704681414 110.473257,0.475020747 C110.486308,0.245372535 110.493756,0.128599092 110.495624,0.124700416 C110.497492,0.0396021578 110.449023,-0.00192559275 110.350251,6.85254369e-05 C110.190641,0.0663199217 109.950666,0.133270029 109.630317,0.200992399 C109.309967,0.268727224 109.028055,0.313879622 108.78458,0.336449594 C108.773397,0.390943867 108.773397,0.456336996 108.78458,0.532628979 C108.795764,0.608920962 108.818131,0.668086174 108.851681,0.710112158 C109.135919,0.703635124 109.327905,0.747753688 109.427628,0.842455394 C109.52734,0.937182012 109.57393,1.23351876 109.56741,1.73147809 L109.56741,3.32581239 C109.568114,3.36863554 109.561125,3.39821815 109.546441,3.4145602 C109.531768,3.43091471 109.505208,3.43869961 109.46677,3.43791489 C109.433913,3.42909616 109.329068,3.39379633 109.152236,3.3320403 C108.975392,3.27028428 108.789479,3.2349969 108.594473,3.22616571 C108.229613,3.22772269 107.913681,3.29311582 107.646688,3.4223451 C107.379683,3.55157438 107.136444,3.73529793 106.916969,3.9735033 C106.674433,4.2415653 106.485713,4.55866592 106.350818,4.92480516 C106.215924,5.29095686 106.147425,5.7045902 106.145323,6.16570517 C106.149058,6.94652404 106.314942,7.58020214 106.642986,8.06675192 C106.971029,8.55330171 107.438855,8.80397537 108.046485,8.81876045 C108.261296,8.81883518 108.480301,8.75640654 108.7035,8.63146207 C108.9267,8.5065176 109.173663,8.31858398 109.444403,8.06768611 L109.444403,8.06768611 Z M112.372915,1.23325719 C112.378512,1.40193409 112.43443,1.55037026 112.540672,1.6785408 C112.646915,1.80674869 112.769922,1.87420949 112.909715,1.8809481 C113.070946,1.87247813 113.207004,1.80567749 113.31791,1.6805711 C113.428805,1.55547716 113.48659,1.42298445 113.491259,1.28308052 C113.487753,1.12531493 113.436029,0.979992713 113.336083,0.847126332 C113.236126,0.714272406 113.108925,0.643697651 112.954448,0.63538961 C112.812799,0.641617527 112.682322,0.703896697 112.563039,0.822214664 C112.443745,0.940557543 112.38038,1.07757172 112.372915,1.23325719 L112.372915,1.23325719 Z M113.390602,7.17461527 L113.390602,4.69219246 C113.392459,4.36236198 113.399918,4.04894828 113.412969,3.75195138 C113.426009,3.45496693 113.433468,3.29630452 113.435336,3.27598905 C113.434866,3.25056669 113.421815,3.22980282 113.396194,3.21370988 C113.370562,3.1976294 113.335144,3.18932136 113.289951,3.18879821 C113.134893,3.25679461 112.936163,3.32010761 112.69374,3.37874968 C112.451317,3.43739175 112.139355,3.49448929 111.757843,3.5500174 C111.747588,3.59257898 111.74572,3.6506979 111.752251,3.72438662 C111.758771,3.79808779 111.768087,3.85621917 111.78021,3.89876829 C112.077141,3.91748941 112.274484,3.97783793 112.372227,4.07985121 C112.469959,4.18185203 112.514928,4.40382745 112.507122,4.74575255 L112.507122,7.17461527 C112.516203,7.67024536 112.467275,7.98059492 112.360339,8.1056764 C112.253403,8.23074543 112.033928,8.29821869 111.701926,8.30808371 C111.668375,8.35323611 111.6516,8.42174319 111.6516,8.51359251 C111.6516,8.60545429 111.668375,8.67396137 111.701926,8.71911377 C111.928849,8.71262428 112.134814,8.70691951 112.319799,8.701987 C112.504785,8.69705449 112.716342,8.69446368 112.954448,8.69420211 C113.186505,8.69446368 113.393398,8.69705449 113.575129,8.701987 C113.756849,8.70691951 113.963742,8.71262428 114.195799,8.71911377 C114.229349,8.67396137 114.246124,8.60545429 114.246124,8.51359251 C114.246124,8.42174319 114.229349,8.35323611 114.195799,8.30808371 C113.863796,8.30366189 113.644321,8.23775807 113.537385,8.11034734 C113.430438,7.98293662 113.38151,7.67103008 113.390602,7.17461527 L113.390602,7.17461527 Z M117.679261,5.79203015 L117.679261,7.44864362 C117.678321,7.52829868 117.663414,7.59318111 117.634527,7.64325357 C117.605629,7.69333848 117.568355,7.73641075 117.522693,7.77248285 C117.374042,7.90923545 117.212822,8.03120297 117.03902,8.13837297 C116.865207,8.24554296 116.698384,8.30210491 116.538561,8.30808371 C116.260373,8.2953663 116.056287,8.19624277 115.926279,8.01070067 C115.796272,7.82515857 115.731967,7.62950233 115.733365,7.42373195 C115.726051,7.1366748 115.799951,6.86877472 115.955077,6.62001926 C116.110191,6.37127626 116.390425,6.18247072 116.79578,6.05360266 L117.679261,5.79203015 Z M117.679261,8.09633453 C117.707163,8.24087203 117.78443,8.39396668 117.911037,8.55563095 C118.037634,8.71729522 118.247413,8.8050092 118.540374,8.81876045 C118.819714,8.79930443 119.046649,8.71367057 119.221155,8.56185887 C119.395661,8.41005962 119.485587,8.30885597 119.490955,8.25826037 C119.48769,8.21128942 119.469047,8.16510319 119.435038,8.11968922 C119.401018,8.07427525 119.371192,8.04988672 119.345571,8.04651119 C119.317422,8.05481923 119.280886,8.08802649 119.235973,8.14615787 C119.191049,8.20427679 119.112016,8.2374965 118.998884,8.24580454 C118.789429,8.2374965 118.66035,8.1326682 118.611669,7.93129473 C118.562965,7.72993372 118.542935,7.48185087 118.551558,7.1870711 L118.551558,5.33117675 C118.53221,4.46965653 118.352817,3.89773446 118.013355,3.61539807 C117.673893,3.33308659 117.290401,3.20333417 116.862881,3.22616571 C116.384789,3.24173551 115.962625,3.38809156 115.596368,3.66522141 C115.230121,3.94237617 115.037207,4.25687352 115.017636,4.60873838 C115.017871,4.7576977 115.050951,4.86772008 115.116889,4.93881798 C115.182815,5.00992833 115.280212,5.04521571 115.409045,5.04469257 C115.57144,5.03769239 115.693988,4.98942603 115.776701,4.8998935 C115.859413,4.81037342 115.900882,4.7216256 115.901116,4.63365004 C115.901116,4.58928236 115.898321,4.54724392 115.892729,4.50754718 C115.887137,4.46783798 115.87875,4.43514142 115.867566,4.40945749 C115.86174,4.39129688 115.856618,4.36222497 115.852189,4.32226665 C115.84776,4.28230833 115.845434,4.22833721 115.845199,4.16034081 C115.857311,3.96961708 115.95889,3.83415988 116.149948,3.75396922 C116.340995,3.67379102 116.548816,3.63486654 116.773413,3.63719578 C116.9775,3.61670593 117.176006,3.71064783 117.36892,3.91900902 C117.561835,4.12739513 117.665281,4.57320188 117.679261,5.25644174 C117.678556,5.30003716 117.671567,5.33429071 117.658292,5.35920238 C117.645006,5.38411404 117.629629,5.39968384 117.61216,5.40591175 L116.650396,5.66747181 C116.103816,5.82057892 115.66207,6.05307952 115.325181,6.36499851 C114.98828,6.67690505 114.814936,7.04641983 114.805151,7.47354283 C114.814936,7.96010507 114.951933,8.30729899 115.216142,8.51514949 C115.48034,8.72301245 115.813047,8.8242161 116.214253,8.81876045 C116.459349,8.82343138 116.665303,8.78917784 116.832126,8.71599981 C116.998939,8.64282179 117.199301,8.50269366 117.433225,8.29562787 L117.656894,8.09633453 L117.679261,8.09633453 Z" id="ch-tagline" fill="#000000" fill-rule="nonzero"></path>
    </g>
</svg>