<?xml version="1.0" encoding="UTF-8"?>
<svg width="120px" height="12px" viewBox="0 0 120 12" version="1.1" xmlns="http://www.w3.org/2000/svg" xmlns:xlink="http://www.w3.org/1999/xlink">
    <title>wikipedia-tagline-mni</title>
    <g id="Page-1" stroke="none" stroke-width="1" fill="none" fill-rule="evenodd">
        <path d="M0,3.34039964 L0.00506281644,2.49010885 L7.00472012,2.49010885 L7.00472012,3.34039964 L0.0607345566,3.34039964 L0.0607345566,9.1911594 L0.860406218,9.18630065 L0.870528936,6.6607618 L2.12570977,6.6607618 L2.12570977,9.19136347 L2.95068745,9.19136347 L2.95068745,6.61520617 L4.31215371,6.61520617 C4.04559646,6.74680053 3.85833156,6.9846784 3.75035902,7.32883979 C3.64576065,7.67637638 3.66600543,8.02391298 3.81109338,8.37144958 C3.95618152,8.71898617 4.25479301,8.95854841 4.70692784,9.09013629 C5.15568903,9.22510586 5.59938869,9.19475487 6.03802683,8.99908334 C6.46991714,8.80676109 6.71960371,8.36643535 6.78708655,7.6781061 L5.94692528,7.6882123 C5.9030605,8.0627441 5.74447579,8.28206479 5.47117116,8.34617437 C5.19449132,8.41024507 4.96504953,8.38663155 4.7828458,8.2753338 C4.60064271,8.16398424 4.51460236,7.99021594 4.52472476,7.75402891 C4.53485039,7.51446667 4.63776161,7.29177401 4.83345841,7.08595092 C5.02241063,6.88350305 5.415498,6.73335151 6.01272052,6.63549631 L6.01272052,5.89150523 L2.9861156,5.89150523 L2.9861156,3.3406523 L2.12570948,3.3406523 L2.12570948,5.89150523 L0.870528645,5.88139903 L0.860405927,3.34067173 L0,3.34039964 Z M8.3003895,2.49010885 L8.3003895,3.34039964 L9.25695862,3.34525839 C8.79132657,4.13818031 8.51802096,4.98846138 8.43704181,5.8961016 C8.3526881,6.79699788 8.51295977,7.51737868 8.91785681,8.057244 C9.31600602,8.5937341 9.82212733,8.93114831 10.4362207,9.06948661 C11.0435663,9.2044497 11.6154835,9.15721294 12.1519723,8.92777634 C12.6850865,8.69833325 13.3734116,8.18208793 14.2169474,7.37904038 L13.8879683,6.49332931 C13.2974936,7.11079857 12.7711275,7.5595591 12.30887,7.83961091 C11.8466125,8.11966273 11.3843551,8.24450666 10.9220976,8.21414272 C10.4530916,8.18375934 10.0498815,7.99143386 9.71246731,7.63716628 C9.37167919,7.28287926 9.23333959,6.71433437 9.29744852,5.9315316 C9.35818288,5.14873531 9.65848142,4.28495664 10.1983441,3.34019557 L13.0984187,3.34019557 L11.4282189,6.74132958 L12.1519723,7.07536857 L14.009437,3.34019557 L14.8799655,3.34019557 L14.8799655,2.48990478 L8.3003895,2.49010885 Z M16.0642885,3.34039964 L16.0642885,2.49010885 L16.7222467,2.4852501 C16.735741,2.03648957 16.9196317,1.68051494 17.2739187,1.41732623 C17.6214553,1.15414399 18.0314136,1.07148048 18.5037935,1.16933568 C18.9727994,1.27055962 19.2528532,1.4392651 19.3439547,1.67545213 C19.4316823,1.91164563 19.4671107,2.1596459 19.4502399,2.41945292 C19.4367455,2.67588474 19.2950317,2.88845501 19.0250983,3.05716373 C18.7484185,3.22587245 18.2541066,3.32540878 17.5421625,3.35577272 L17.5421625,9.20147938 L16.7526138,9.19137319 L16.7526138,3.33555061 L16.0642885,3.34039964 Z M17.5624079,2.47999294 C17.8357132,2.49346787 18.0837125,2.46480125 18.3064058,2.39399308 C18.5257252,2.3265083 18.6100789,2.23203154 18.5594669,2.11056282 C18.5088517,1.9924693 18.3468928,1.95872691 18.0735901,2.00933564 C17.8002848,2.06330015 17.6298908,2.22019887 17.5624079,2.48003181 L17.5624079,2.47999294 Z M20.4321163,2.49010885 L20.4321163,3.34039964 L20.8673805,3.34039964 L20.8673805,9.1911594 L25.6401043,9.1911594 L25.6401043,3.43150118 L26.1158585,3.43150118 L26.1158585,2.49010885 L20.4321163,2.49010885 Z M23.6965989,8.32062706 L23.6965989,3.41631274 L24.764514,3.41631274 L24.764514,8.32062706 L23.6965989,8.32062706 Z M21.7024809,8.32062706 L21.7024809,3.39100837 L22.8159477,3.39100837 L22.8159477,8.32062706 L21.7024809,8.32062706 Z M27.5076918,3.34039964 L27.5076918,2.49010885 L30.347032,2.50021505 C30.6810723,1.76802749 31.3002275,1.25515738 32.2044977,0.961604728 L32.6498837,1.82707425 C32.0695314,1.92154776 31.6933146,2.14255282 31.5212332,2.49008942 C32.3613951,2.46307477 33.0024821,2.50019238 33.4444942,2.60144223 C33.8898814,2.70266616 34.2188605,3.00296276 34.4314315,3.50233203 C34.6440024,4.00170777 34.6237576,4.52470027 34.3706971,5.07130953 C34.1142627,5.61792527 33.6789985,5.94690468 33.0649044,6.05824778 C32.4440625,6.16959735 31.9244446,6.1021158 31.5060506,5.85580314 C31.0842833,5.60611527 30.7721754,5.30750304 30.5697269,4.95996644 C30.3672784,4.61580505 30.2576187,4.07594298 30.2407478,3.34038021 L28.646466,3.34038021 L29.2031989,4.72715462 L29.6334023,5.89123314 C29.8999597,6.66391027 30.072041,7.28306389 30.1496463,7.748694 C30.220503,8.21432411 30.1091564,8.59222789 29.8156063,8.88240534 C29.5153071,9.17595799 29.1036616,9.28561672 28.5806698,9.21138151 C28.0509294,9.13377757 27.7118283,8.64790268 27.5633663,7.75375682 L28.4743846,7.75375682 C28.4912542,8.1215382 28.6228456,8.30374129 28.8691589,8.30036608 C29.1087231,8.29712691 29.2268183,8.14866622 29.2234443,7.854984 C29.2133187,7.55468092 29.105346,7.07554996 28.8995261,6.41759113 C28.7038261,5.94521708 28.5266839,5.52007654 28.3680995,5.14216953 C28.2095145,4.76089378 28.0661133,4.42685478 27.9378961,4.14005255 L27.5076918,3.34039964 Z M31.2428667,3.36061204 C31.1855076,4.03544044 31.3373441,4.50782098 31.6983764,4.77775363 C32.0627832,5.04768629 32.3833266,5.16072023 32.6600064,5.11685544 C32.9434347,5.0696284 33.1593799,4.98189883 33.3078419,4.85366673 C33.4596784,4.71870364 33.5423449,4.50782098 33.5558412,4.22101874 C33.5727107,3.92746608 33.4529286,3.70646103 33.1964949,3.55800357 C32.9366859,3.40953964 32.2854765,3.34374246 31.2428667,3.36061204 L31.2428667,3.36061204 Z M36.1724893,3.34039964 L36.1724893,2.49010885 L42.2307614,2.49010885 L42.2257083,3.34039964 L40.3581208,3.34039964 L40.3581208,6.04308848 L41.4665259,6.03822973 L41.4665259,6.93406643 L40.3783653,6.93406643 L40.3783653,9.18123783 L39.4622861,9.19134403 L39.4622861,6.934047 L37.5137188,6.934047 L37.5137188,9.18628122 L36.617884,9.19113997 L36.617884,3.34038021 L36.1724893,3.34039964 Z M39.4622783,3.34039964 L37.513711,3.34039964 L37.513711,6.04308848 L39.4622783,6.04308848 L39.4622783,3.34039964 Z M43.5871667,3.34039964 L43.5821136,2.49010885 L49.7163036,2.49010885 L49.7163036,3.34039964 L49.331651,3.34039964 C48.582592,4.00510241 47.8942669,4.73728997 47.2666759,5.53696231 C47.9010147,6.21179072 48.2822931,6.78201998 48.4105109,7.24765009 C48.5387281,7.71328668 48.4712453,8.13843045 48.2080624,8.52308142 C47.9448789,8.90773238 47.4893695,9.12030264 46.8415344,9.16079222 C46.1970732,9.20128179 45.6707071,9.05619307 45.2624361,8.72552605 C44.8541652,8.39485903 44.7394443,7.90223371 44.9182734,7.24765009 C45.0971033,6.58969774 45.4547623,6.03971327 45.9912504,5.59769668 C45.1139735,4.46398858 44.4121521,3.71155624 43.8857864,3.34039964 L43.5871667,3.34039964 Z M45.1004697,3.34039964 C45.2489317,3.47536273 45.449693,3.67443539 45.7027535,3.93761763 C45.9558146,4.20079987 46.2611747,4.53146689 46.6188336,4.92961869 C47.2531718,4.13332156 47.7727894,3.60358188 48.1776865,3.34039964 L45.1004697,3.34039964 Z M46.6593226,6.2050403 C46.1970657,6.6268121 45.9237605,7.03508306 45.8394067,7.42985318 C45.755053,7.82800498 45.9136377,8.09456243 46.3151609,8.22952552 C46.7166833,8.36449509 47.0372267,8.31725833 47.2767909,8.08781525 C47.5129811,7.85837216 47.5821512,7.60193711 47.4843012,7.31851009 C47.3864506,7.03170785 47.1114577,6.66055126 46.6593226,6.2050403 L46.6593226,6.2050403 Z M61.3115322,3.34039964 L61.3115322,2.49010885 L54.8584858,2.49010885 L54.8584858,3.34039964 L59.4388838,3.34039964 L59.4388838,4.80308715 C58.804545,4.22948268 58.1347778,3.96461284 57.4295822,4.00847763 C56.7176381,4.05570467 56.1609045,4.24971775 55.7593814,4.59051688 C55.3511104,4.94142869 55.0794921,5.39525204 54.9445264,5.95198694 C54.8095608,6.51209056 54.8348684,7.00471264 55.0204493,7.42985318 C55.2094015,7.85836892 55.4759589,8.21434355 55.8201216,8.49777705 C56.1676582,8.78120407 56.6012355,8.97690153 57.1208534,9.08486941 C57.6438452,9.19284377 58.1702113,9.18947503 58.6999517,9.07476321 C59.2398144,8.9566697 59.8252279,8.58045352 60.4561922,7.94611469 L60.0614178,6.98448081 C59.5721671,7.63231401 58.9968757,8.01527736 58.3355436,8.13337088 C57.6809606,8.24809566 57.1461594,8.19073651 56.7311399,7.96129342 C56.3228683,7.73185034 56.0461885,7.44842332 55.9011004,7.11101235 C55.7560123,6.77359491 55.74589,6.4108731 55.8707332,6.02284693 C55.9989504,5.63819597 56.2368273,5.33958697 56.5843639,5.12701995 C56.9352751,4.91782165 57.309805,4.84190208 57.7079535,4.89926123 C58.1061021,4.95322573 58.6577742,5.23496515 59.3629698,5.74447948 L60.3246007,5.75458568 L60.3246007,3.34038992 L61.3115322,3.34039964 Z M64.2014869,0.0607343622 C63.7594748,0.161958299 63.4794211,0.565166442 63.3613256,1.27035879 C63.0610271,1.26025259 62.867014,1.14553105 62.7792864,0.926194166 C62.6949327,0.706876715 62.7978439,0.398145326 63.08802,1.77635684e-15 L62.2478588,1.77635684e-15 C62.0082952,0.560103626 61.9947976,1.03079655 62.207366,1.41207878 C62.4131884,1.79672974 62.7995276,2.0059248 63.3663836,2.03966395 C63.3832532,2.29272703 63.3309539,2.48674012 63.2094858,2.62170321 C63.0880165,2.75329757 62.8872549,2.78872756 62.6072012,2.7279932 L62.6223896,3.54284428 C63.1622523,3.58333385 63.5384691,3.4787347 63.7510401,3.22904683 C63.9669855,2.97936544 64.073271,2.63351645 64.0698964,2.19149986 C64.2588486,2.20497479 64.5085352,2.13580564 64.8189562,1.98399241 C65.1226293,1.83890368 65.328452,1.58753145 65.4364244,1.22987569 C65.5410229,0.875588675 65.4718528,0.566854048 65.2289141,0.303671811 C64.985976,0.0438583075 64.6435006,-0.0371208422 64.2014879,0.0607343622 L64.2014869,0.0607343622 Z M64.0344674,1.41713188 C64.0682066,1.04598176 64.2082334,0.8469091 64.454548,0.81991389 C64.6974861,0.799701495 64.788588,0.899237826 64.7278536,1.11852289 C64.6671193,1.33784034 64.4359905,1.43737667 64.0344674,1.41713188 Z M69.6271052,4.92961869 L69.6169795,3.89207172 C69.9442713,3.19362331 70.3272363,2.78366475 70.7658744,2.66219602 C71.2078872,2.54410251 71.606036,2.55760983 71.9603211,2.70271799 C72.3179801,2.84780023 72.6267141,3.16328204 72.8865231,3.64916342 C73.1429575,4.13166311 73.2408075,4.70695194 73.1800731,5.37502993 C73.1193388,6.03973918 72.9472574,6.58972689 72.6638291,7.02499306 C72.3736529,7.46362796 72.0919122,7.78923217 71.818607,8.00180567 C71.6802674,8.10978003 71.4744446,8.26330354 71.2011387,8.46237621 C70.9278334,8.66144887 70.5887322,8.90438632 70.1838352,9.19118855 L70.1838352,8.14351595 C70.6865823,7.82634977 71.1184722,7.49062317 71.4795051,7.13633615 C71.8405387,6.78204913 72.0851641,6.39233536 72.2133813,5.96719482 C72.3382246,5.54205428 72.3787145,5.12028572 72.334851,4.70188913 C72.2909862,4.29024944 72.1307142,3.95621044 71.854035,3.69977215 C71.5773558,3.44670907 71.2618737,3.3842871 70.9075886,3.51250625 C70.5533035,3.6441006 70.2665013,4.11816874 70.0471819,4.93471066 L69.6271052,4.92961869 Z M69.6068636,4.92961869 L69.6169892,3.89207172 C69.2896974,3.19699852 68.9134806,2.78535235 68.4883388,2.65713321 C68.0631969,2.53228927 67.6650481,2.54579659 67.2938921,2.69765517 C66.9227368,2.84948784 66.6072547,3.16665726 66.3474457,3.64916342 C66.0910107,4.13166311 65.9931606,4.70695194 66.0538956,5.37502993 C66.11463,6.04311439 66.2883983,6.5931021 66.5752005,7.02499306 C66.8552543,7.45350881 67.136995,7.77911301 67.4204227,8.00180567 C67.5587623,8.10978003 67.7628978,8.26330354 68.0328291,8.46237621 C68.306135,8.66144887 68.6452365,8.90438632 69.0501336,9.19118855 L69.0400079,8.14351595 C68.5440087,7.82634977 68.1154926,7.49062317 67.7544597,7.13633615 C67.3934268,6.78204913 67.1488014,6.39233536 67.0205836,5.96719482 C66.8957403,5.54205428 66.8552507,5.12028572 66.8991149,4.70188913 C66.9463549,4.28687422 67.1083138,3.95283523 67.3849917,3.69977215 C67.6549224,3.44670907 67.9704046,3.3842871 68.3314381,3.51250625 C68.6823486,3.6441006 68.9674636,4.11816874 69.186783,4.93471066 L69.6068636,4.92961869 Z M73.883583,3.34039964 L73.883583,2.49010885 L74.5415412,2.4852501 C74.5550356,2.03648957 74.7389263,1.68051494 75.0932133,1.41732623 C75.4407499,1.15414399 75.8507081,1.07148048 76.323088,1.16933568 C76.7920934,1.27055962 77.0721471,1.4392651 77.1632493,1.67545213 C77.2509769,1.91164563 77.2864053,2.1596459 77.2695344,2.41945292 C77.2560401,2.67588474 77.1143262,2.88845501 76.8443929,3.05716373 C76.5677131,3.22587245 76.0734011,3.32540878 75.3614571,3.35577272 L75.3614571,9.20147938 L74.5719084,9.19137319 L74.5719084,3.33555061 L73.883583,3.34039964 Z M75.3817025,2.47999294 C75.6550078,2.49346787 75.9030071,2.46480125 76.1257004,2.39399308 C76.3450198,2.3265083 76.4293735,2.23203154 76.3787615,2.11056282 C76.3281463,1.9924693 76.1661874,1.95872691 75.8928847,2.00933564 C75.6195794,2.06330015 75.4491853,2.22019887 75.3817025,2.48003181 L75.3817025,2.47999294 Z M78.2514147,2.49010885 L78.2514147,3.34039964 L78.6866789,3.34039964 L78.6866789,9.1911594 L83.4594028,9.1911594 L83.4594028,3.43150118 L83.9351569,3.43150118 L83.9351569,2.49010885 L78.2514147,2.49010885 Z M81.5158964,8.32062706 L81.5158964,3.41631274 L82.5838125,3.41631274 L82.5838125,8.32062706 L81.5158964,8.32062706 Z M79.5217793,8.32062706 L79.5217793,3.39100837 L80.6352462,3.39100837 L80.6352462,8.32062706 L79.5217793,8.32062706 Z M85.3624183,3.34039964 L85.3624183,2.49010885 L91.2283646,2.4852501 L91.2283646,3.36589836 L90.0136735,3.36589836 L90.0136735,5.10695331 C90.0170422,5.72779778 90.1756269,6.02641001 90.4894276,6.00279001 C90.7998485,5.98257762 90.9584329,5.61985581 90.9651807,4.91462459 L91.8559595,4.91462459 C91.7951927,5.78515693 91.6062392,6.34189182 91.289099,6.58482927 C90.9719295,6.83114193 90.6108963,6.91380869 90.2059993,6.83282954 C89.7977283,6.75860081 89.5092391,6.55952491 89.3405317,6.23560183 C89.1751988,5.91843565 89.0992805,4.95005783 89.1127769,3.33046836 L88.292861,3.33046836 L88.2878079,9.19135375 L87.3869123,9.19135375 L87.3869123,3.33046836 L86.5518119,3.34057456 L86.5467588,9.18120868 L85.6863531,9.19135375 L85.6863531,3.33042949 L85.3624183,3.34039964 Z M92.8934967,3.34039964 L92.8934967,2.49010885 L93.5514588,2.4852501 C93.5649337,2.03648957 93.7488244,1.68051494 94.1031309,1.41732623 C94.4506675,1.15414399 94.860626,1.07148048 95.3330066,1.16933568 C95.8020119,1.27055962 96.0820637,1.4392651 96.173162,1.67545213 C96.2608916,1.91164563 96.2963216,2.1596459 96.279452,2.41945292 C96.2659771,2.67588474 96.1242636,2.88845501 95.8543115,3.05716373 C95.5776284,3.22587245 95.0833155,3.32540878 94.3713727,3.35577272 L94.3713727,9.20147938 L93.581826,9.19137319 L93.581826,3.33555061 L92.8934967,3.34039964 Z M94.3916142,2.47999294 C94.6649221,2.49346787 94.9129224,2.46480125 95.135615,2.39399308 C95.3549325,2.3265083 95.4392869,2.23203154 95.3886781,2.11056282 C95.3380824,1.9924693 95.1761241,1.95872691 94.9028032,2.00933564 C94.6294954,2.06330015 94.459099,2.22019887 94.3916142,2.48003181 L94.3916142,2.47999294 Z M108.401059,2.49006998 L108.401059,3.34039964 C108.036653,3.81615538 107.748163,4.58039773 107.535589,5.63312667 C107.363512,6.68923083 107.346636,7.39780163 107.484961,7.75883907 C107.619924,8.11311961 107.80044,7.9359761 108.026508,7.22740854 L108.315001,8.34087833 C107.987709,9.06969068 107.648607,9.30925291 107.297695,9.05956504 C106.946784,8.81325238 106.712281,8.19409876 106.594187,7.20210418 C106.476094,6.21010312 106.757833,4.92792785 107.439406,3.35557837 L106.153858,3.35557837 L106.153858,9.1911594 L105.268147,9.1911594 L105.268147,3.37582964 L104.731664,3.34036077 L104.837944,2.49006998 L108.401059,2.49006998 Z M101.315361,2.49010885 L101.315361,3.34039964 C101.679767,3.81952412 101.971629,4.41168577 102.190946,5.1168846 C102.406895,5.82882737 102.526679,6.45473141 102.550299,6.99459673 C102.577314,7.54795641 102.511517,7.91067498 102.352908,8.08275243 C102.190949,8.26158031 102.020556,8.01358004 101.841728,7.33875163 L101.325486,8.22447242 C101.605538,8.94990956 101.93283,9.25695334 102.307362,9.14560377 C102.685262,9.0410111 102.960255,8.7407145 103.132338,8.24471397 C103.301041,7.74196302 103.35334,7.21222333 103.289237,6.65549492 C103.225102,6.0920096 103.12219,5.53696231 102.980503,4.99035305 C102.842158,4.44036858 102.646457,3.8988189 102.3934,3.36570401 L103.815595,3.36570401 L103.815595,9.1911594 L104.72662,9.1911594 L104.731479,3.34039964 L104.837759,2.49010885 L101.315361,2.49010885 Z M107.398932,11.3573549 L107.388826,10.7044654 C107.577773,10.6572383 107.673934,10.545892 107.677309,10.3704264 C107.680549,10.1983424 107.575949,10.1241105 107.363512,10.1477305 C107.144195,10.1747451 107.002481,10.3434506 106.938371,10.6538469 L106.077965,10.6386876 C106.084702,10.3383845 105.980106,10.1629286 105.764177,10.1123199 C105.551604,10.0583554 105.404827,10.1123426 105.323848,10.2742814 C105.246244,10.4328645 105.335658,10.5543333 105.59209,10.6386876 L105.59209,11.3371328 C105.004991,11.1650488 104.703007,10.8866814 104.686137,10.5020304 C104.676031,10.1173795 104.755323,9.84913767 104.924012,9.697305 C105.08597,9.54546585 105.283358,9.46111149 105.516177,9.44424192 C105.742245,9.42739825 105.95144,9.4830698 106.143762,9.61125655 C106.332715,9.7394757 106.455872,9.92167879 106.513231,10.1578658 C106.678564,9.80021006 106.904632,9.58089261 107.191435,9.49991346 C107.474862,9.42230952 107.743107,9.48979107 107.99617,9.7023581 C108.249226,9.90818118 108.342015,10.2101686 108.274537,10.6083204 C108.207052,11.0030905 107.915187,11.2527752 107.398942,11.3573743 L107.398932,11.3573549 Z M116.85328,2.49010885 L116.85328,3.34039964 L116.519241,3.34039964 L116.519241,9.1911594 L110.08138,9.1911594 L110.08138,3.34039964 L109.767582,3.34039964 L109.767582,2.49010885 L116.85328,2.49010885 Z M115.679086,4.42349253 L114.732631,5.25353205 L114.732631,8.37127466 L115.679086,8.39148706 L115.679086,4.42349253 Z M112.0097,7.55638472 L111.063255,8.38642424 L112.0097,8.37124551 L112.0097,7.55638472 Z M113.958273,5.84063413 L113.011827,6.74153364 L113.011827,8.37124551 L113.958273,8.37124551 L113.958273,5.84063413 Z M112.0097,3.34039964 L111.063255,3.34039964 L111.063255,7.20716699 L112.0097,6.32650902 L112.0097,3.34039964 Z M113.857045,3.34039964 L112.9106,3.34039964 L112.9106,5.66855667 L113.857045,4.8587587 L113.857045,3.34039964 Z M115.679086,3.34039964 L114.732631,3.34039964 L114.732631,4.19574353 L115.679086,3.34039964 Z M118.538878,0.323709292 C118.967393,0.198865357 119.323365,0.259599719 119.606792,0.505912379 C119.89362,0.75560025 120.023527,1.11157163 119.996512,1.57382653 C119.969517,2.03946312 119.78731,2.35494817 119.449893,2.52028168 C119.109107,2.69235914 118.80881,2.75815308 118.549003,2.7176635 L118.553862,3.4616643 L117.814924,3.45680555 L117.82503,2.60652448 C117.312167,2.44793491 116.92414,2.15775747 116.660952,1.73599214 C116.404526,1.3108516 116.298243,0.840158678 116.342101,0.323913359 L117.060788,0.323913359 C117.064163,0.718689953 117.123213,1.0206774 117.237938,1.22987569 C117.352656,1.43569878 117.566914,1.64489384 117.880711,1.85746086 C117.890831,0.959939797 118.110148,0.448757295 118.538664,0.323913359 Z M119.227032,1.30072597 C119.139302,1.1218981 119.000961,1.06622655 118.812007,1.13371133 C118.623041,1.20456485 118.543749,1.49473906 118.574133,2.00423395 C118.813734,1.99749001 119.004372,1.92494565 119.146085,1.78660087 C119.287773,1.64488736 119.314755,1.48292906 119.227032,1.30072597 Z" id="wikipedia-tagline-mni" fill="#000000" fill-rule="nonzero"></path>
    </g>
</svg>