<svg xmlns="http://www.w3.org/2000/svg" width="120" height="28"><path fill="#000" fill-rule="nonzero" d="M3.693 10.475H1.795L0 8.706h3.718C2.864 7.45 2.436 5.92 2.436 4.116c0-1.29.5-2.312 1.5-3.065.812-.606 1.907-.91 3.283-.91 1.384 0 2.573.154 3.564.462 1.154.35 2.304.966 3.45 1.846 1.982 1.53 3.508 3.671 4.577 6.424h-.654c-.137-.24-.364-.688-.68-1.347-.316-.726-.919-1.517-1.808-2.372-1.128-1.085-2.23-1.859-3.308-2.32C11.061 2.278 9.75 2 8.424 2c-1.222 0-2.231.274-3.026.82-1 .685-1.5 1.582-1.5 2.693 0 1.41.414 2.475 1.244 3.193h2.615l1.795 1.77h-3.73v16.617l-2.13-2.129V10.475m4.052 0L6.001 8.706h17.63l1.73 1.77h-4.32v16.617l-2.283-2.283v-4.603c-.64.428-1.376.804-2.205 1.129-.949.367-1.744.534-2.385.5-1.3-.069-2.423-.697-3.372-1.885-.752-.949-1.128-2.069-1.128-3.36.145-.666.393-1.2.743-1.602 1.36-1.282 2.864-1.894 4.514-1.834 1.64.052 2.919.838 3.833 2.36v-5.04H7.744m10.745 5.616c-.273-.58-1.12-.871-2.539-.871-1.521 0-2.872.598-4.051 1.795-.573.58-.86 1.175-.86 1.782 0 .803.655 1.205 1.962 1.205 1.642 0 3.133-.692 4.475-2.077.676-.692 1.013-1.304 1.013-1.834m7-5.616h-1.897l-1.795-1.769h3.719c-.855-1.256-1.283-2.787-1.283-4.59 0-1.29.5-2.312 1.5-3.065.813-.606 1.907-.91 3.283-.91 1.385 0 2.573.154 3.564.462 1.154.35 2.304.966 3.45 1.846 1.983 1.53 3.508 3.671 4.577 6.424h-.654c-.137-.24-.363-.688-.68-1.347-.316-.726-.918-1.517-1.807-2.372-1.129-1.085-2.231-1.859-3.309-2.32C32.858 2.278 31.547 2 30.221 2c-1.222 0-2.23.274-3.026.82-1 .685-1.5 1.582-1.5 2.693 0 1.41.415 2.475 1.244 3.193h2.615l1.796 1.77h-3.732v16.617l-2.128-2.129V10.475m4.052 0-1.757-1.769h23.964l1.757 1.77h-11.86v4.936c.256-.23.444-.389.564-.475.29-.213.577-.359.859-.435a6.071 6.071 0 0 1 1.628-.244c1.308 0 2.39.457 3.244 1.372.855.906 1.282 2.021 1.282 3.346 0 1.06-.376 2.06-1.128 3-.564.727-1.449 1.334-2.654 1.821l-.936-1.82c1.214-.564 2.026-1.009 2.436-1.334.906-.71 1.359-1.487 1.359-2.333 0-.761-.355-1.45-1.064-2.065-.453-.384-1.158-.53-2.116-.436-.453.043-1.008.342-1.667.898a10.39 10.39 0 0 0-1.808 2.013v8.373l-2.128-2.154v-3.732c-.368.41-.91.765-1.628 1.065-.718.29-1.364.436-1.936.436-1.24 0-2.3-.424-3.18-1.27-.872-.846-1.308-1.889-1.308-3.128 0-1.265.414-2.308 1.244-3.129.829-.829 1.876-1.244 3.141-1.244 1.607 0 2.83.684 3.667 2.052v.782c-.752-.667-1.616-1-2.59-1-1.248 0-2.214.244-2.898.73-.94.668-1.453 1.556-1.538 2.668-.052.7.14 1.265.577 1.692.359.342.854.513 1.487.513.906 0 1.945-.462 3.116-1.385 1.23-.974 1.846-1.906 1.846-2.795v-6.719h-9.975m22.258 0-1.756-1.769h16.399l1.782 1.77H63.88v16.617l-2.206-2.219V19.58c-.7.419-1.744.628-3.128.628-1.36-.136-2.505-.752-3.437-1.846-.923-1.069-1.384-2.29-1.384-3.667v-4.219H51.8m3.86 5.322c0 .735.2 1.401.602 2 .462.684 1.039 1.026 1.731 1.026.744 0 1.394-.206 1.95-.616.187-.12.53-.419 1.025-.897.197-.223.432-.603.705-1.142v-5.693H55.66v5.322m12.655-5.322h-1.91l-1.757-1.769h4.013c-.41-1.205-1-2.372-1.77-3.5-1.008-1.48-1.97-2.218-2.884-2.219-.898 0-1.611.368-2.141 1.103-.48.658-.718 1.453-.718 2.385 0 .581.183 1.265.55 2.052h-2.076a6.694 6.694 0 0 1-.436-2.385c0-1.53.316-2.74.949-3.629.735-1.017 1.837-1.526 3.308-1.526 1.572 0 2.949.936 4.128 2.808.607.966 1.338 2.603 2.193 4.911h3.308l1.757 1.77h-4.386v16.591l-2.128-2.128V10.475m6.616 0h-1.898l-1.795-1.769h3.719c-.855-1.256-1.282-2.787-1.282-4.59 0-1.325.577-2.368 1.73-3.129C76.405.33 77.607 0 79.008 0c2.659 0 5.13.88 7.411 2.641 2.633 2.035 4.484 4.112 5.552 6.232h-.654c-1.367-2.018-2.932-3.603-4.692-4.757-1.88-1.231-4.056-1.91-6.527-2.039-1.427-.077-2.598.18-3.513.77-.966.632-1.449 1.521-1.449 2.666 0 1.41.415 2.475 1.244 3.193h2.68l1.795 1.77H77.06v16.617l-2.129-2.116V10.475m15.348 0H78.983l-1.757-1.769h18.22l1.782 1.77H92.19v5.59l-6-.026c-1.616-.008-2.424.376-2.424 1.154 0 .462.129.855.385 1.18.274.35.637.525 1.09.525.359 0 .893-.055 1.603-.166.71-.12 1.243-.18 1.602-.18 1.231 0 2.287.522 3.167 1.565.847.991 1.27 2.115 1.27 3.372 0 1-.5 1.867-1.5 2.603-.915.675-1.894 1.012-2.937 1.012-1.94 0-3.778-.88-5.513-2.64-1.171-1.189-2.39-2.911-3.654-5.168l.782-.449c.82 1.556 1.816 2.894 2.987 4.013 1.48 1.42 2.924 2.129 4.334 2.129.932 0 1.774-.304 2.526-.91.812-.642 1.218-1.415 1.218-2.321 0-.376-.128-.697-.385-.962a1.254 1.254 0 0 0-.936-.397c-.384 0-.936.15-1.654.448-.709.291-1.252.436-1.628.436-.974 0-1.833-.504-2.577-1.513-.23-.299-.744-1.218-1.539-2.756-.316-.607-.474-1.099-.474-1.475 0-.726.389-1.21 1.167-1.449.436-.137 1.124-.205 2.064-.205h5.116v-3.41m5.167 0-1.757-1.77h17.913l1.782 1.77h-4.372v16.617l-2.09-2.116v-4.654c-1.035 1.188-2.36 1.782-3.975 1.782-1.992 0-3.513-.76-4.565-2.282-.684-.992-1.025-2.12-1.025-3.385.769 0 1.457-.197 2.064-.59.675-.436 1.073-1.013 1.192-1.731.052-.171.077-.466.077-.885 0-1.248-.47-2.167-1.41-2.757h-3.834m5.821 6.296c-.487.513-.923.872-1.308 1.077-.273.145-.666.286-1.18.423.403 1.257 1.257 2.077 2.565 2.462.479.094.787.141.923.141 1.624 0 2.962-1 4.014-3 .393-.753.59-1.612.59-2.577v-4.822h-5.258c.65.855.975 1.885.975 3.09 0 1.206-.44 2.274-1.32 3.206m12.244-6.296h-1.91l-1.77-1.769h8.411l1.757 1.77h-4.385v16.617l-2.103-2.129V10.475"/></svg>