<svg viewBox="0 0 120 21" xmlns="http://www.w3.org/2000/svg"><path d="M102.51 5.471c.105.112.105.502 0 .614-1.05.056-1.34.15-1.343 1.694v7.815c0 2.66-1.03 3.63-1.778 4.317-.715.651-1.26.8-2.04.8-.384 0-1.31-.335-1.308-1.004 0-.41.523-.8.767-.8.541 0 .61.39.785.632a.77.77 0 0 0 .61.335c.575 0 1.48-.521 1.482-3.87V7.778c0-1.54-.296-1.64-1.69-1.694-.106-.112-.106-.502 0-.614.871.019 1.48.038 2.423.038.82 0 1.24-.02 2.092-.038zM14.261.262c1.24-.009 3.92-.001 4.293 0h.044l.054.053v.496c0 .137-.072.205-.215.205-.699.035-.842.11-1.098.502-.14.215-.415.676-.7 1.193l-2.454 4.896-.068.152 2.997 6.548.182.053L22.019 2.4c.164-.483.139-.825-.073-1.026-.212-.196-.36-.312-.908-.336l-.443-.024a.25.25 0 0 1-.155-.06.176.176 0 0 1-.074-.145V.311l.067-.05h5.336l.054.05V.81c0 .135-.072.203-.215.203-.699.033-1.22.195-1.552.484-.336.291-.6.692-.787 1.213 0 0-4.34 10.6-5.83 14.135-.569 1.16-1.13 1.05-1.62-.033-.616-1.35-1.89-4.34-2.834-6.547-1 2.21-2.38 5.21-3.063 6.561-.663 1.23-1.21 1.07-1.645.032-1.51-3.8-4.61-10.5-6.068-14.215-.27-.689-.473-1.13-.665-1.306C1.35 1.163.95 1.06.34 1.024.116.998.005.94.004.846v-.52L.06.273c.873-.005 4.69-.001 5.603 0h.197l.054.051v.496c0 .137-.081.203-.242.203l-.605.027c-.519.023-.779.19-.779.496 0 .143.055.375.176.688 1.16 3.02 5.18 12.1 5.175 12.052l.147.041 2.587-5.506c-.316-.746-.518-1.22-.518-1.224l-1.779-3.73s-.344-.746-.46-.994c-.782-1.65-.766-1.74-1.555-1.852-.221-.03-.335-.06-.336-.178V.321l.067-.05c1.43-.003 4.6-.003 4.603-.003l.121.043v.521c0 .12-.08.18-.241.18l-.334.051c-.843.07-.706.438-.145 1.63L13.5 6.417l1.887-4.017c.293-.682.258-.89.148-1.052l-.027-.037c-.075-.096-.326-.249-.872-.273l-.215-.025a.246.246 0 0 1-.154-.059.174.174 0 0 1-.073-.146V.313zm75.951 5.21c.105.111.105.501 0 .613-.976.056-1.24-.074-.802.707l2.197 4.131c.157.298.227.354.384.038l2.074-4.169c.384-.782-.052-.65-.82-.707-.104-.112-.104-.484 0-.595.524.014.929.017 1.269.018h.573c.356 0 .774-.003 1.193-.018.105.112.105.484 0 .595-.785.093-1.03-.018-1.517.912l-2.232 4.299c-.349.688-.296.502-.296 1.246v2.699c0 1.54.296 1.64 1.69 1.693.106.112.106.502 0 .614-.871-.019-1.48-.037-2.423-.037-.959 0-1.59.018-2.44.037-.106-.112-.106-.502 0-.614 1.39-.056 1.69-.15 1.69-1.693v-2.55c0-.688-.07-.688-.366-1.246l-2.301-4.113c-.697-1.27-.89-1.19-1.622-1.247-.105-.112-.122-.502-.017-.614.523.019 1.1.038 1.778.038.697 0 1.29-.019 1.988-.038zm-24.91.053h3.581c.731 0 2.46-.052 2.462-.052l.05.052c.023 1.12.194 2.13.365 3.121l-.608.104c-.267-.963-.73-2.34-2.29-2.34h-1.948c-.463 0-.707.182-.707.623v3.771h1.826c.683 0 .853-.312.952-.832l.145-.546c0-.078.05-.13.146-.13h.413c.05 0 .05.026.05.077-.05.572-.146 1.3-.146 1.925 0 .65.097 1.2.146 1.794l-.05.053h-.413c-.121 0-.171-.053-.172-.13l-.121-.572c-.098-.52-.317-.807-.952-.807h-1.826v3.98c0 .492.266.986.707.986h2.314c1.24 0 1.93-.832 2.217-2.185l.608.078-.488 2.99-.049.051s-1.44-.052-2.168-.052l-4.263.003c-.731 0-2.41.053-2.411.053l-.026-.053v-.572c0-.05.026-.129.147-.129l.56-.053c.757-.078.976-.598.976-1.117v-8.58c0-.6-.293-.703-.975-.754l-.561-.054c-.146-.024-.146-.077-.147-.104v-.599l.026-.052s1.9.052 2.63.052zm-31.193 0c.683 0 2.22-.052 2.217-.052l.024.052v.572c0 .078-.048.104-.146.13l-.268.053c-.755.155-1.02.286-1.023.807v3.926c.804 0 1.27-.44 2.339-1.664.975-1.14 1.73-2.1 1.73-2.6 0-.209-.22-.442-.707-.52-.097-.026-.146-.053-.146-.13v-.6l.024-.025s1.97.052 2.68.052c.633 0 1.71-.052 1.705-.052l.074.025v.6c0 .077-.074.13-.195.13-.95.077-1.61.13-2.485 1.195l-2.096 2.573c-.414.47-.56.754-.56.963 0 .156.098.285.22.441l3.678 4.732c.292.363.877.52 1.364.623l.122.025c.073.026.171.078.17.156v.546l-.072.026s-1.14-.023-1.847-.025h-.127c-.609 0-1.49.025-1.486.025l-.024-.026v-.312c0-.339-.025-.623-.366-1.039l-2.704-3.589c-.365-.52-.755-.649-1.291-.649v3.851c0 .572.317.858 1.023.988l.268.053c.073.025.146.051.146.155v.546l-.024.053s-1.37-.047-2.137-.052h-.129c-.682 0-2.68.052-2.68.052l-.048-.053v-.546c0-.104.073-.155.17-.155l.487-.053c.731-.078 1.05-.494 1.048-.988V7.087c0-.57-.268-.729-1.048-.805l-.487-.054c-.097 0-.17-.024-.17-.104v-.599l.024-.052s2 .052 2.753.052zm13.061 0c.658 0 2.53-.052 2.534-.052l.024.052v.572c0 .078-.049.13-.146.13l-.512.053c-.755.077-1.02.286-1.023.807v8.658c0 .572.244.91 1.023.988l.512.053c.073 0 .146.051.146.155v.546l-.024.053s-1.67-.048-2.486-.052h-.121c-.682 0-2.58.052-2.583.052l-.048-.053v-.546c0-.104.073-.155.17-.155l.488-.053c.804-.078 1.05-.494 1.047-.988V7.087c0-.57-.292-.729-1.047-.805l-.488-.054c-.097 0-.17-.024-.17-.104v-.599l.024-.052s1.92.052 2.68.052zm-20.324 0c.658 0 2.53-.052 2.534-.052l.024.052v.572c0 .078-.049.13-.146.13l-.512.053c-.755.077-1.02.286-1.023.807v8.658c0 .572.244.91 1.023.988l.512.053c.073 0 .146.051.146.155v.546l-.024.053s-1.67-.048-2.486-.052h-.121c-.682 0-2.58.052-2.583.052l-.048-.053v-.546c0-.104.073-.155.17-.155l.488-.053c.804-.078 1.05-.494 1.047-.988V7.087c0-.57-.293-.729-1.047-.805l-.488-.054c-.097 0-.17-.024-.17-.104v-.599l.024-.052s1.92.052 2.68.052zm29.949-.05c3.46 0 4.09 1.82 4.091 3.172 0 1.56-.707 4-4.164 4.004-.61 0-1.1-.053-1.536-.26v3.482c0 .572.292.703 1.073.832l.488.078c.098.026.171.053.17.156v.546l-.023.052s-1.77-.047-2.588-.051h-.116c-.682 0-2.51.051-2.51.051l-.024-.052v-.546c0-.104.049-.13.146-.156l.512-.078c.755-.104 1-.338.999-.832l-.002-8.735c0-.806-.317-.832-1.462-.91-.146 0-.17-.077-.17-.13V5.5l.049-.026c.365 0 1.8.052 2.509.052.682 0 1.66-.052 2.558-.052zm19.911.051c.461 0 2.58-.052 3.216-.052 4.07 0 6.07 2.7 6.067 6.162 0 4.55-3.02 5.9-5.725 5.901-1.84 0-2.7-.046-3.43-.051h-.126c-.732 0-2.58.051-2.584.051l-.024-.052v-.546c-.002-.075.048-.153.144-.153l.56-.053c.733-.078.976-.312.976-1.117v-8.58c0-.678-.172-.678-.975-.754l-.534-.054c-.098 0-.172-.052-.173-.13v-.572l.024-.052s2.14.052 2.584.052zM111.145 0c4.29 0 7.89 3.43 7.893 8.607 0 5.23-3.06 8.87-7.746 8.868-4.22 0-7.67-3.22-7.672-8.371 0-5.13 3.14-9.1 7.525-9.104zm-31.93 6.228c-.95 0-1.56.156-1.56.808v8.58c0 .726.17 1.17 2.023 1.17 2.68 0 4.19-1.06 4.191-4.707 0-2.7-.56-5.85-4.654-5.85zM110.826.89c-2.23 0-4.85 2.28-4.854 7.77 0 5.02 2.87 7.93 5.81 7.927 2.79 0 4.9-2.8 4.903-7.482 0-5.44-2.52-8.21-5.859-8.215zM56.649 6.23c-1.17 0-1.46.234-1.463.91l.001 4.524c.487.21 1.1.234 1.584.234 1.46 0 2.17-.938 2.166-2.938 0-2.24-.95-2.73-2.288-2.73z" fill="#000" fill-rule="nonzero"/></svg>