<svg xmlns="http://www.w3.org/2000/svg" width="120" height="15"><path fill="#000" fill-rule="nonzero" d="M5.816 1.06c-.289-.045-.52-.1-.691-.166a4.226 4.226 0 0 0-.621-.178C4.262.664 3.892.636 3.392.633a3.274 3.274 0 0 0-2.048.74c-.608.484-.93 1.15-.964 1.998.018.726.246 1.305.682 1.737.437.431.97.775 1.603 1.032a9.802 9.802 0 0 1 1.676.755c.572.32.882.918.928 1.792-.003.642-.175 1.126-.515 1.454-.34.327-.827.491-1.461.492-.74.005-1.345-.173-1.813-.533-.468-.36-.79-.931-.966-1.714A.639.639 0 0 0 0 8.434c.029.585.066 1.041.11 1.369.046.327.114.673.206 1.036.467.015.89.076 1.269.182.379.106.903.167 1.573.182.98-.027 1.792-.337 2.437-.93.645-.592.98-1.306 1.003-2.14-.02-.743-.238-1.33-.657-1.758A4.296 4.296 0 0 0 4.43 5.38c-.28-.105-.647-.25-1.101-.433a4.372 4.372 0 0 1-1.234-.756c-.368-.32-.563-.735-.585-1.247.01-.497.172-.913.488-1.249.315-.335.73-.51 1.245-.524.75.02 1.293.227 1.63.621.335.395.573.863.713 1.405.093 0 .183-.001.272-.008a.46.46 0 0 0 .243-.088 14.65 14.65 0 0 0-.101-.99 19.06 19.06 0 0 0-.183-1.05Zm6.057 6.298v2.104a.462.462 0 0 1-.063.248.594.594 0 0 1-.159.164c-.21.174-.438.328-.684.465a1.575 1.575 0 0 1-.708.215c-.393-.016-.682-.142-.866-.378a1.179 1.179 0 0 1-.273-.745c-.01-.365.094-.705.314-1.021.219-.316.616-.556 1.189-.72l1.25-.332Zm0 2.927c.04.184.149.378.328.584.18.205.476.316.89.334.396-.025.717-.134.964-.326.246-.193.374-.322.381-.386a.313.313 0 0 0-.079-.176c-.048-.058-.09-.089-.126-.093-.04.01-.092.053-.155.126-.064.074-.176.116-.336.127-.296-.01-.479-.144-.548-.4a3.278 3.278 0 0 1-.085-.945V6.773c-.027-1.095-.281-1.821-.761-2.18a2.446 2.446 0 0 0-1.628-.494c-.676.02-1.274.205-1.792.557-.518.352-.791.752-.819 1.199 0 .19.047.329.14.42.094.09.232.134.414.134.23-.009.403-.07.52-.184.117-.114.176-.227.176-.339 0-.056-.004-.11-.012-.16a.447.447 0 0 0-.035-.124.565.565 0 0 1-.022-.111c-.006-.05-.01-.12-.01-.206.017-.242.16-.414.431-.516.27-.102.565-.151.882-.148.29-.026.57.093.843.358.273.264.42.83.439 1.699a.265.265 0 0 1-.03.13c-.018.032-.04.052-.065.06l-1.36.332c-.774.194-1.399.49-1.876.886-.476.396-.722.865-.735 1.408.013.618.207 1.06.581 1.323.374.264.845.393 1.412.386.347.006.638-.038.874-.13.236-.094.52-.272.85-.535l.317-.253h.032Zm7.738-5.538c.42.022.67.106.75.253.08.146.035.416-.138.807L18.946 8.91c-.12.312-.22.465-.296.458-.076-.007-.173-.175-.29-.506l-1.14-3.054c-.165-.37-.241-.632-.23-.782.013-.151.253-.244.722-.278.048-.057.071-.144.071-.26 0-.118-.023-.204-.07-.262-.286.009-.558.016-.816.022-.257.006-.545.01-.862.01-.264 0-.492-.004-.684-.01l-.708-.022c-.048.057-.072.145-.072.261 0 .117.024.204.072.261.43.045.716.151.856.318s.278.446.416.837l2.019 5a.65.65 0 0 0 .156.255.342.342 0 0 0 .24.078.285.285 0 0 0 .206-.084.841.841 0 0 0 .173-.28l2.11-4.953c.131-.348.283-.62.457-.816.173-.197.473-.315.898-.355.048-.057.071-.144.071-.26 0-.118-.023-.204-.07-.262-.171.009-.337.016-.5.022-.161.006-.343.01-.545.01-.283 0-.536-.004-.76-.01l-.76-.022c-.047.057-.07.145-.07.261 0 .117.023.204.07.261Zm4.67 1.836c.181-.863.47-1.408.863-1.636.394-.228.702-.326.924-.295.318-.014.612.097.882.333.27.235.414.678.431 1.329.001.071-.016.125-.053.163-.037.037-.098.057-.184.058l-2.864.048Zm4.145 2.99c-.28.299-.566.516-.857.653-.29.136-.659.204-1.105.202-.29.002-.588-.086-.892-.267-.305-.181-.582-.472-.833-.873a3.277 3.277 0 0 1-.372-.935 5.282 5.282 0 0 1-.134-1.232l4.208.031c.096 0 .17-.023.222-.069.052-.046.078-.112.08-.2a3.096 3.096 0 0 0-.513-1.875c-.368-.553-1.088-.846-2.162-.878-.734.005-1.434.324-2.098.957-.665.634-1.02 1.554-1.066 2.761-.002.448.057.874.176 1.278s.308.759.567 1.064c.265.32.594.567.985.744.392.177.87.266 1.436.269.599-.006 1.118-.133 1.559-.38.44-.247.817-.58 1.13-.997a.341.341 0 0 0-.112-.18.402.402 0 0 0-.22-.073Zm3.722-4.272a1.994 1.994 0 0 1 1.345-.506c.496.017.909.276 1.24.777.332.501.504 1.144.517 1.928 0 .921-.183 1.674-.552 2.26-.37.584-.929.886-1.68.905a1.04 1.04 0 0 1-.634-.224 2.871 2.871 0 0 1-.505-.52V5.966a1.015 1.015 0 0 1 .058-.39c.04-.097.11-.19.211-.275Zm-.11-.49c-.103.09-.156.063-.159-.08v-2.91c.003-.52.013-.926.032-1.217.018-.292.029-.44.032-.445.002-.108-.066-.161-.206-.159-.226.085-.565.17-1.019.256-.453.086-.852.143-1.196.172a.656.656 0 0 0 0 .249.439.439 0 0 0 .095.225c.402-.008.673.048.815.169.14.12.207.496.197 1.129V9.92c0 .303-.004.54-.014.71-.01.17-.026.309-.049.414.037.063.081.11.133.142a.41.41 0 0 0 .215.048l.178-.172c.069-.067.134-.136.197-.208.079-.094.15-.143.212-.148.063-.005.136.03.22.103.182.15.39.254.623.311.233.057.49.085.77.082.851-.009 1.636-.36 2.353-1.05.717-.692 1.098-1.67 1.143-2.937-.03-.975-.325-1.736-.884-2.283-.559-.547-1.197-.825-1.916-.835-.34.003-.66.066-.957.19-.298.125-.57.299-.815.523Zm8.578 6.392c.307 0 .627-.08.962-.238a5.324 5.324 0 0 0 1.08-.716.225.225 0 0 1 .123-.055c.041-.003.063.022.066.075.008.2.037.402.087.605.051.204.08.313.087.329a.384.384 0 0 0 .15.031.549.549 0 0 0 .151-.031c.172-.144.414-.271.726-.382.312-.11.708-.194 1.189-.251a.31.31 0 0 0 .07-.214.31.31 0 0 0-.07-.213c-.492-.035-.81-.14-.958-.317-.147-.176-.213-.456-.197-.838V5.95c.002-.276.013-.606.031-.992l.032-.636a.087.087 0 0 0-.034-.067.144.144 0 0 0-.093-.03 1.891 1.891 0 0 1-.217.022c-.102.006-.215.01-.336.01-.253 0-.512-.004-.778-.01l-.836-.022c-.048.057-.072.145-.072.261 0 .117.024.204.072.261.38.009.64.098.78.267.142.17.208.508.2 1.015v3.054a.973.973 0 0 1-.042.349.676.676 0 0 1-.21.268 4.168 4.168 0 0 1-.815.57c-.25.126-.474.19-.673.19-.26.02-.53-.076-.81-.288-.281-.21-.433-.658-.456-1.342V5.95c.003-.276.014-.606.032-.992.018-.386.029-.598.032-.636a.087.087 0 0 0-.034-.067.144.144 0 0 0-.093-.03 1.89 1.89 0 0 1-.218.022c-.102.006-.214.01-.336.01-.252 0-.511-.004-.777-.01l-.837-.022c-.047.057-.07.145-.07.261 0 .117.023.204.07.261.373.016.632.107.776.271.143.165.212.496.205.995v3.038c-.013.567.132 1.062.433 1.485.302.423.838.645 1.608.667Zm6.24-2.089c.012.63-.054 1.027-.197 1.189-.143.162-.43.246-.862.251-.048.058-.071.145-.071.261 0 .117.023.204.07.261l.847-.021c.245-.007.527-.01.847-.01.26 0 .484.003.672.01l.768.021c.047-.057.07-.144.07-.26 0-.117-.023-.204-.07-.262-.318-.006-.537-.09-.655-.251-.118-.162-.174-.558-.168-1.189V7.69a.892.892 0 0 1 .476.12c.135.081.277.231.426.45l1.155 1.63c.153.223.254.397.3.522a.844.844 0 0 1 .064.332v.253c-.003.05.018.077.063.08a17.09 17.09 0 0 1 1.092-.032c.239 0 .457.004.654.01l.643.021c.048-.057.071-.144.071-.26 0-.117-.023-.204-.07-.262a2.909 2.909 0 0 1-.748-.155c-.228-.082-.433-.252-.614-.51l-1.85-2.737a.378.378 0 0 1-.08-.221.203.203 0 0 1 .063-.158l1.203-1.33a2.09 2.09 0 0 1 .75-.518c.27-.106.601-.165.99-.178.048-.057.072-.144.072-.26 0-.117-.024-.204-.072-.262l-.694.022a25.83 25.83 0 0 1-1.416 0l-.722-.022c-.047.058-.071.145-.071.261 0 .117.024.204.071.261.441.044.63.164.564.36a.984.984 0 0 1-.279.447c-.423.463-.815.85-1.175 1.162-.36.312-.649.502-.866.57V1.82c.003-.519.013-.924.031-1.216.019-.292.03-.44.032-.445.003-.108-.066-.161-.206-.159-.225.085-.565.17-1.018.256-.453.086-.852.143-1.197.172a.656.656 0 0 0 0 .249.439.439 0 0 0 .095.225c.402-.008.674.048.815.169.141.12.207.496.198 1.129v6.914ZM58.51 1.567a.858.858 0 0 0 .237.566c.15.162.325.248.523.257a.84.84 0 0 0 .577-.255c.157-.159.239-.327.245-.505a.88.88 0 0 0-.22-.554.722.722 0 0 0-.54-.269.873.873 0 0 0-.553.238.738.738 0 0 0-.269.522Zm1.44 7.547V5.961a38.36 38.36 0 0 1 .063-1.799c0-.032-.019-.059-.055-.08a.314.314 0 0 0-.15-.03c-.22.086-.501.166-.844.24-.343.075-.784.147-1.324.218a.645.645 0 0 0-.008.221c.01.094.022.168.04.222.42.024.699.1.837.23s.202.412.191.846v3.085c.013.63-.056 1.024-.208 1.183-.151.159-.461.245-.931.257-.048.058-.071.145-.071.261 0 .117.023.204.07.261l.875-.021a38.802 38.802 0 0 1 1.776 0l.878.021c.048-.057.071-.144.071-.26 0-.117-.023-.204-.07-.262-.47-.006-.781-.09-.932-.251-.152-.162-.22-.558-.208-1.189Zm6.036-1.313c0 .848.274 1.617.825 2.306.55.69 1.383 1.055 2.498 1.096 1.171-.049 2.025-.442 2.561-1.179.537-.737.8-1.525.793-2.365a3.976 3.976 0 0 0-.741-2.397c-.51-.73-1.37-1.118-2.581-1.163-1.075.028-1.9.394-2.479 1.097-.577.703-.87 1.572-.876 2.605Zm3.18-3.18c.685.002 1.211.302 1.579.9.368.597.554 1.479.558 2.644-.025 1.019-.217 1.699-.576 2.041-.359.342-.737.5-1.133.475-.546-.018-.984-.208-1.314-.57a3.263 3.263 0 0 1-.716-1.291 4.788 4.788 0 0 1-.217-1.383c-.007-.72.13-1.36.411-1.924.282-.564.751-.861 1.409-.892Zm6.914 1.123c.252-.26.522-.476.81-.649.287-.172.55-.262.788-.269.521.01.962.275 1.32.794.36.518.547 1.23.563 2.134a3.892 3.892 0 0 1-.451 1.942c-.319.606-.912.929-1.78.969a2.46 2.46 0 0 1-.562-.071 1.337 1.337 0 0 1-.562-.263c-.155-.128-.258-.25-.309-.366-.051-.116-.075-.31-.07-.582V6.44a1.161 1.161 0 0 1 .05-.394.827.827 0 0 1 .203-.302Zm-.127-.522a.124.124 0 0 1-.097.037c-.037-.002-.058-.03-.061-.085a8.44 8.44 0 0 1 .063-1.012c0-.032-.019-.059-.055-.08a.314.314 0 0 0-.15-.03c-.215.086-.49.166-.825.24-.336.075-.773.147-1.312.218a.645.645 0 0 0-.008.221c.01.094.023.168.04.222.417.023.695.1.835.23s.204.411.193.846v6.756c.013.632-.056 1.03-.207 1.195-.151.165-.462.246-.932.245-.047.057-.07.144-.07.261 0 .117.023.204.07.261l.874-.022a49.49 49.49 0 0 1 1.879 0l.934.022c.047-.057.071-.144.071-.26 0-.118-.024-.205-.071-.262-.546-.006-.902-.09-1.07-.251-.168-.162-.244-.558-.228-1.189v-1.709c0-.099.016-.153.05-.161.035-.009.092.006.172.043.196.078.411.139.646.181.235.042.479.063.73.064a3.59 3.59 0 0 0 1.253-.212c.39-.142.748-.367 1.073-.674a3.74 3.74 0 0 0 .865-1.288c.202-.495.304-1.063.306-1.703-.015-.868-.28-1.615-.795-2.242-.514-.627-1.182-.956-2.005-.985-.302 0-.648.097-1.037.288-.389.192-.766.47-1.13.835Zm12.445.158a.454.454 0 0 1-.097.107c-.037.03-.057-.006-.061-.107.003-.258.016-.517.04-.78.023-.26.036-.402.04-.422 0-.082-.064-.124-.19-.127-.217.087-.5.167-.85.241-.348.075-.793.147-1.334.218a.645.645 0 0 0-.008.221c.01.094.022.168.04.222.416.022.694.097.834.223.14.127.204.412.194.853v3.085c.013.623-.053 1.015-.198 1.177-.145.162-.448.25-.91.263-.047.058-.071.145-.071.261 0 .117.024.204.071.261l.859-.021a37.615 37.615 0 0 1 2.448.021c.048-.057.071-.144.071-.26 0-.117-.023-.204-.07-.262-.393-.013-.653-.101-.778-.263-.126-.162-.183-.554-.172-1.177V6.52a.91.91 0 0 1 .087-.403c.055-.105.115-.192.182-.261.3-.295.605-.524.912-.686a1.99 1.99 0 0 1 .923-.248.85.85 0 0 1 .467.149c.15.098.274.238.372.421.077.16.128.343.154.55.026.207.038.43.036.668v2.405c.01.623-.05 1.015-.182 1.177-.132.162-.398.25-.8.263a.463.463 0 0 0-.059.261c0 .117.02.204.06.261l.819-.021a34.408 34.408 0 0 1 1.622 0l.85.021a.463.463 0 0 0 .06-.26.463.463 0 0 0-.06-.262c-.432-.013-.72-.101-.863-.263-.143-.162-.209-.554-.197-1.177V6.757c.005-.439-.021-.84-.077-1.203a2.118 2.118 0 0 0-.35-.917 1.298 1.298 0 0 0-.55-.4 2.05 2.05 0 0 0-.764-.138 2.731 2.731 0 0 0-1.179.237c-.402.172-.843.52-1.32 1.044ZM98.59 7.358v2.104a.461.461 0 0 1-.064.248.594.594 0 0 1-.158.164c-.21.174-.438.328-.684.465a1.575 1.575 0 0 1-.708.215c-.394-.016-.683-.142-.867-.378a1.179 1.179 0 0 1-.273-.745 1.665 1.665 0 0 1 .314-1.021c.22-.316.616-.556 1.19-.72l1.25-.332Zm0 2.927c.039.184.148.378.328.584.179.205.475.316.89.334.395-.025.716-.134.963-.326.247-.193.374-.322.382-.386a.315.315 0 0 0-.08-.176c-.047-.058-.09-.089-.126-.093-.04.01-.091.053-.155.126-.063.074-.175.116-.335.127-.297-.01-.48-.144-.548-.4a3.28 3.28 0 0 1-.085-.945V6.773c-.028-1.095-.281-1.821-.762-2.18a2.446 2.446 0 0 0-1.628-.494c-.676.02-1.273.205-1.791.557-.519.352-.792.752-.82 1.199.001.19.048.329.141.42.094.09.231.134.414.134.23-.009.403-.07.52-.184.117-.114.175-.227.176-.339a.964.964 0 0 0-.012-.16.468.468 0 0 0-.036-.124.551.551 0 0 1-.022-.111c-.006-.05-.01-.12-.01-.206.018-.242.161-.414.432-.516.27-.102.564-.151.882-.148.288-.026.57.093.842.358.273.264.42.83.44 1.699a.266.266 0 0 1-.03.13c-.02.032-.04.052-.066.06l-1.36.332c-.774.194-1.399.49-1.875.886-.477.396-.722.865-.736 1.408.014.618.208 1.06.581 1.323.374.264.845.393 1.413.386.346.006.638-.038.874-.13.236-.094.52-.272.85-.535l.317-.253h.032ZM109.46 0c.297-.003.558.016.784.06.225.043.439.134.64.273.167.127.293.26.378.397a.776.776 0 0 1 .129.41.651.651 0 0 1-.224.443c-.139.13-.28.198-.425.205a.563.563 0 0 1-.394-.146 1.051 1.051 0 0 1-.239-.36c-.107-.273-.233-.466-.38-.58-.146-.112-.336-.167-.57-.163-.28-.035-.553.13-.82.494-.267.365-.41 1.139-.43 2.322v.902h1.71c.081 0 .124.031.126.095v.316c-.006.071-.049.123-.128.156a.6.6 0 0 1-.236.05h-1.471v4.24c-.015.63.058 1.027.221 1.189.163.162.506.245 1.029.251.047.058.07.145.07.261 0 .117-.023.204-.07.261l-.916-.021a46.224 46.224 0 0 0-1.776 0l-.837.021c-.047-.057-.071-.144-.071-.26 0-.117.024-.204.071-.262.417-.005.695-.09.835-.251.14-.162.205-.558.194-1.189v-4.24h-1.092c-.031 0-.052-.005-.063-.018-.011-.013-.017-.039-.016-.077v-.206a.317.317 0 0 1 .075-.205c.053-.069.149-.106.289-.111h.807v-.633c.033-1.231.334-2.143.902-2.737.567-.594 1.2-.89 1.898-.887Zm3.284 4.051c.064 0 .114.011.15.032.037.02.055.046.056.079-.003.02-.016.169-.04.443a11.63 11.63 0 0 0-.04.823c0 .044.013.073.037.087.023.013.059-.021.106-.103.186-.325.432-.621.736-.888a1.62 1.62 0 0 1 1.02-.426c.331.013.572.102.725.267.152.165.227.33.225.493a.819.819 0 0 1-.23.544.726.726 0 0 1-.514.247.553.553 0 0 1-.39-.17 8.834 8.834 0 0 1-.258-.289.355.355 0 0 0-.16-.09.639.639 0 0 0-.173-.02c-.102.016-.225.114-.37.292-.144.179-.263.34-.357.483a2.663 2.663 0 0 0-.262.482 1.547 1.547 0 0 0-.118.578v2.2c-.015.629.062 1.023.233 1.182.17.159.526.245 1.064.257.048.058.071.145.071.261 0 .117-.023.204-.07.261l-.97-.021a41.317 41.317 0 0 0-1.835 0l-.914.021c-.048-.057-.071-.144-.071-.26 0-.117.023-.204.07-.262.479-.005.797-.09.954-.251.158-.162.23-.558.218-1.189V6.03c.01-.42-.054-.699-.194-.835s-.418-.216-.835-.241a.487.487 0 0 1-.051-.222.702.702 0 0 1 .02-.221c.54-.07.982-.143 1.327-.218.344-.074.624-.155.84-.241Zm4.606-2.484a.855.855 0 0 0 .238.566c.15.162.324.248.522.257a.84.84 0 0 0 .577-.255c.157-.159.239-.327.246-.505a.879.879 0 0 0-.22-.554.722.722 0 0 0-.54-.269.873.873 0 0 0-.554.238.738.738 0 0 0-.269.522Zm1.44 7.547V5.961c.003-.42.013-.817.032-1.195.018-.377.029-.578.031-.604 0-.032-.019-.059-.055-.08a.314.314 0 0 0-.15-.03c-.22.086-.5.166-.844.24-.343.075-.784.147-1.324.218a.659.659 0 0 0-.008.221c.01.094.022.168.04.222.42.024.698.1.837.23.138.13.202.412.19.846v3.085c.013.63-.056 1.024-.207 1.183-.151.159-.462.245-.932.257-.047.058-.07.145-.07.261 0 .117.023.204.07.261l.875-.021a38.802 38.802 0 0 1 1.776 0l.878.021c.047-.057.071-.144.071-.26 0-.117-.024-.204-.071-.262-.47-.006-.78-.09-.932-.251-.151-.162-.22-.558-.207-1.189Z"/></svg>