<svg xmlns="http://www.w3.org/2000/svg" width="89" height="17.999" viewBox="0 0 23.548 4.762"><g stroke-width=".457" aria-label="ವಿಕಿಪೀಡಿಯ"><path d="M1.008 4.762q-.332 0-.555-.16-.223-.159-.338-.42T0 3.62q0-.275.096-.491.102-.217.287-.345t.44-.127q.301 0 .46.166.165.16.166.408 0 .242-.154.383-.153.14-.42.178L.83 3.556q.108-.025.165-.083.064-.063.064-.178T.983 3.11q-.077-.077-.23-.077-.21 0-.338.14-.128.134-.128.358 0 .204.09.344.095.14.268.21.178.071.433.071.173 0 .313-.045.147-.05.255-.14.109-.096.185-.236.083-.14.134-.32h.217q.07.224.16.39.096.166.249.262.16.089.395.09.185 0 .313-.071.128-.077.204-.21.083-.141.121-.326.039-.192.039-.421 0-.435-.128-.836-.121-.408-.364-.747-.242-.337-.6-.568-.35-.236-.803-.319l.216-.006q.077.077.109.191.038.109.038.217 0 .314-.172.517-.166.198-.504.198-.314 0-.51-.198-.192-.204-.192-.517Q.753.73.976.5 1.2.264 1.66.264q.471 0 .906.255.44.249.785.69.345.439.549 1.001.204.562.204 1.18 0 .28-.057.53-.052.249-.166.44-.115.185-.307.294-.191.108-.465.108-.301 0-.517-.12-.21-.122-.351-.34-.134-.216-.21-.503l.057.006q-.083.28-.217.498-.134.217-.345.338-.204.121-.517.121zm.434-3.42q.198 0 .3-.09.102-.088.102-.229 0-.134-.102-.23Q1.64.698 1.436.698q-.224 0-.313.102-.09.102-.09.217 0 .14.09.236.096.089.32.09zM5.786 4.745q-.272 0-.474-.106-.196-.105-.306-.282-.11-.177-.11-.397 0-.24.115-.412.115-.177.296-.277l-.014.033q-.11.01-.215.015H4.68l.028-.36h2.178v.36H6.494q-.11-.005-.225-.015l-.01-.033q.192.1.302.277.115.172.115.412 0 .22-.11.397-.11.177-.31.282-.202.106-.47.106zm0-.498q.196 0 .32-.057.125-.063.183-.163.057-.105.057-.23 0-.148-.067-.258-.067-.11-.196-.168-.125-.062-.292-.062-.187 0-.311.062-.125.058-.192.173-.062.11-.062.253 0 .139.062.24.067.1.187.157.124.053.311.053zm.115-1.034-.364-.12q.35-.138.56-.334.21-.201.21-.45 0-.225-.119-.383-.12-.158-.354-.22L6 1.7q.044.057.067.139.024.076.024.167 0 .153-.052.278-.053.124-.168.196-.11.072-.292.072-.258 0-.397-.158t-.139-.412q0-.244.163-.42.167-.178.502-.178.254 0 .44.125.187.12.288.325.105.201.105.445 0 .23-.076.402-.077.168-.22.297-.144.124-.345.234zM5.575 2.19q.149 0 .22-.062.072-.062.072-.153 0-.096-.071-.158-.072-.067-.225-.067-.149 0-.225.062-.072.062-.072.163 0 .09.072.153.076.062.23.062zM8.179 4.745q-.254 0-.426-.12-.168-.124-.259-.32-.086-.201-.086-.431 0-.21.077-.378.076-.172.215-.273.144-.1.345-.1.225 0 .35.124.124.12.124.31 0 .187-.12.293-.12.105-.33.139l-.039-.182q.077-.02.12-.062.043-.044.043-.12 0-.081-.057-.13-.053-.052-.168-.052-.143 0-.234.096-.091.096-.091.253 0 .144.067.244.067.096.191.149.13.048.316.048.134 0 .24-.034.11-.033.19-.1.082-.067.144-.163.063-.1.1-.23h.178q.052.149.124.268.077.115.201.182.125.067.307.067.129 0 .225-.038.095-.043.157-.115.063-.077.096-.177.034-.105.034-.23 0-.272-.125-.464t-.296-.335q.028-.081.08-.134.058-.053.135-.053.124 0 .225.14.1.133.163.363.062.23.062.512 0 .172-.034.359-.033.182-.115.34-.081.158-.225.258-.138.096-.354.096t-.368-.091q-.153-.096-.254-.259-.1-.167-.158-.378h.043q-.062.211-.162.378-.1.163-.259.259-.153.09-.392.09zm.828-1.704q-.125 0-.197-.062-.067-.062-.067-.177.273-.11.446-.268.177-.158.177-.421 0-.173-.087-.302-.08-.13-.277-.206l.182.039q.038.048.052.129.02.077.02.148 0 .244-.125.393-.124.143-.378.143-.24 0-.388-.158-.148-.158-.148-.416 0-.24.158-.416.163-.182.469-.182.249 0 .411.129.168.124.25.33.085.201.085.436 0 .24-.086.435-.086.192-.22.311-.134.115-.277.115zm-.268-.948q.148 0 .225-.062.076-.062.076-.162 0-.092-.076-.158-.077-.072-.225-.072-.163 0-.23.072t-.067.153q0 .096.067.162.072.067.23.067zM11.96 4.745q-.197 0-.398-.1-.196-.101-.364-.288-.162-.191-.263-.455-.1-.266-.1-.598 0-.382.12-.675.124-.295.34-.459.215-.167.483-.167.31 0 .45.2.138.197.138.484 0 .293-.139.478-.134.182-.411.182-.264 0-.416-.177-.149-.182-.149-.454 0-.087.015-.154.019-.071.038-.11l.086.043q-.1.086-.172.201-.067.11-.106.25-.038.133-.038.296 0 .288.134.531.134.24.393.407.258.163.64.225 0 .158-.066.249t-.216.09zM11.81 2.95q.148 0 .235-.076.09-.077.09-.197 0-.124-.09-.196-.087-.077-.235-.076t-.24.076q-.09.072-.09.196 0 .12.086.197.091.076.244.076zM13.663 4.75q-.282 0-.464-.134-.177-.139-.263-.354-.082-.22-.082-.465 0-.272.11-.53.115-.26.326-.47.215-.21.531-.32l.177.057q-.067.048-.153.077-.081.024-.182.023-.186 0-.35-.071-.157-.072-.258-.201-.095-.134-.095-.32 0-.318.258-.503.259-.192.699-.192.463 0 .804.172t.56.445q.22.273.325.594.105.317.106.617l-.03.067-.028.072q-.048.163-.191.292-.144.13-.402.13-.23 0-.378-.125-.149-.125-.149-.33 0-.201.144-.321.143-.125.387-.124.153 0 .292.047.144.044.216.12l.105.029q.158.138.24.35.085.205.085.42 0 .469-.234.709t-.598.239q-.24 0-.397-.091-.154-.096-.25-.263t-.152-.383l.033-.005q-.029.22-.13.388-.095.167-.253.263-.153.09-.359.09zm.072-.527q.177 0 .282-.062.11-.067.177-.182t.11-.268h.178q.047.163.124.283.077.114.196.181.125.063.311.063.177 0 .307-.058.134-.062.205-.186.077-.125.077-.311 0-.149-.062-.297-.063-.149-.197-.244-.133-.1-.349-.1-.13 0-.21.042-.082.039-.082.144 0 .081.067.13.067.042.196.042.182 0 .288-.081.105-.086.105-.235 0-.258-.091-.507-.086-.254-.263-.46-.177-.21-.44-.33-.265-.124-.613-.124-.283 0-.445.11-.163.105-.163.287 0 .177.13.263.129.086.334.087.134 0 .268-.02.139-.024.307-.024.444 0 .708.144.267.144.397.378l-.134.081q-.105-.186-.364-.287-.253-.1-.607-.1-.393 0-.675.148-.283.144-.43.378-.15.235-.15.517 0 .192.058.325.062.13.177.201.115.072.273.072zM18.004 4.76q-.492 0-.81-.244-.311-.244-.462-.64-.146-.394-.146-.845 0-.555.182-.937.183-.39.5-.59.321-.208.73-.208.436 0 .754.213t.487.603q.17.384.17.919 0 .481-.121.815-.122.33-.329.53-.2.2-.45.292t-.505.091zm.006-.579q.34 0 .59-.14.25-.14.39-.396.14-.261.14-.602 0-.523-.287-.84-.285-.322-.84-.322-.334 0-.596.134-.255.127-.401.383-.14.25-.14.615t.146.626q.146.262.401.402.262.14.597.14zm2.428.578q-.243 0-.444-.085-.195-.085-.36-.231-.158-.152-.304-.353-.14-.201-.274-.432l.232-.17q.213.303.456.498t.633.195q.25 0 .426-.097.183-.104.28-.299.097-.194.097-.468 0-.427-.188-.743-.183-.321-.5-.499-.316-.182-.711-.182l.626-.25.177.22q.322.14.535.389.22.25.329.548.116.293.116.578 0 .353-.11.67-.103.316-.353.516-.243.195-.663.195zm-.773-2.866.036-.53h.725q.303 0 .45-.03.146-.037.231-.11.067-.054.104-.146.036-.09.036-.207 0-.176-.085-.352-.085-.183-.25-.353l.22-.165q.207.22.316.475.116.256.116.535 0 .165-.043.329-.037.164-.176.292-.08.073-.19.134t-.285.097q-.177.03-.469.03zm2.824 2.866q-.28 0-.5-.128-.212-.127-.389-.347-.17-.225-.335-.505l.183-.194q.17.23.402.413.23.183.62.183.285 0 .457-.122.176-.121.255-.316.08-.195.08-.414 0-.353-.134-.596-.128-.244-.378-.402-.243-.164-.59-.28-.012-.037-.024-.097-.013-.067-.013-.128 0-.122.05-.213.048-.097.157-.097.152 0 .353.14.207.14.402.389.2.25.329.584.134.335.133.724t-.115.712q-.116.317-.353.506-.231.188-.59.188z"/></g></svg>