<svg viewBox="0 0 141 31" xmlns="http://www.w3.org/2000/svg"><path d="m7.27 9.76 3-9.75h3.93l2.97 9.75L20.52.01h4.08l-5.89 16.9h-2.8l-3.7-11.8-3.68 11.8h-2.8L-.16.01h4.08zM26.67.01h3.78v16.9h-3.78zm7.94 0h3.78v6.97L44.76.01h4.66l-6.72 7.5c.578.809 1.66 2.32 3.22 4.52 1.56 2.2 2.72 3.84 3.5 4.93h-4.41l-4.96-6.7-1.69 1.89v4.8h-3.78V.05zm17.2 0h3.78v16.9h-3.78zm23.1 6.29-4.56 9.27h-2.24L63.57 6.3V17h-3.78V.1h5.11l4.36 9.32L73.64.1h5.09V17h-3.78V6.3zM95.01.01v3.36H86.6v3.51h7.55v3.23H86.6v3.51h8.69v3.34h-12.4V.06zm16.5 2.22c1.61 1.49 2.42 3.54 2.42 6.16s-.781 4.72-2.37 6.26c-1.56 1.54-3.98 2.3-7.21 2.3h-5.77V.05h5.97c3.05 0 5.34.758 6.95 2.22zm-2.75 10.1c.934-.883 1.39-2.15 1.39-3.82 0-1.66-.453-2.95-1.39-3.84-.934-.91-2.34-1.34-4.26-1.34h-2.11v10.3h2.39c1.71 0 3.05-.43 3.98-1.31zM117.2.03h3.78v16.9h-3.78zm20 16.9-1.56-3.66h-7.08L127 16.93h-4l7.3-16.9h3.65l7.3 16.9zm-5.11-11.9-2.12 4.93h4.23zM11 23.5h1.25v7.4H10.9l-4.18-5.4v5.4H5.47v-7.4h1.25l4.29 5.53zm14.9 1.75c-.5-.52-1.12-.781-1.85-.781s-1.35.262-1.86.781c-.5.523-.75 1.16-.75 1.91 0 .742.25 1.38.75 1.89.508.523 1.13.785 1.86.785s1.35-.262 1.85-.785c.508-.52.762-1.15.762-1.89 0-.746-.254-1.38-.762-1.91zm.918 4.64c-.746.73-1.67 1.09-2.77 1.09s-2.02-.363-2.77-1.09-1.12-1.64-1.12-2.73.375-2 1.12-2.73c.746-.734 1.67-1.1 2.77-1.1s2.02.367 2.77 1.1c.746.727 1.12 1.64 1.12 2.73s-.375 2-1.12 2.73zm14.9-3.98c0 1.22-.531 1.99-1.59 2.3l1.93 2.69h-1.58l-1.76-2.49h-1.64v2.49h-1.25v-7.4h2.75c1.12 0 1.93.191 2.41.574.488.379.73.992.73 1.83zm-3.09 1.38c.703 0 1.18-.109 1.44-.328.25-.219.379-.57.379-1.05 0-.488-.129-.82-.391-.996-.262-.184-.727-.277-1.39-.277h-1.58v2.65zm16.4.02h1.25v2.53c-.699.77-1.69 1.15-2.99 1.15-1.09 0-2-.36-2.75-1.08-.73-.72-1.1-1.63-1.1-2.73s.375-2.02 1.12-2.75c.754-.734 1.66-1.1 2.72-1.1s1.95.312 2.65.934l-.664.953a2.45 2.45 0 0 0-.875-.508c-.289-.102-.629-.148-1.02-.148-.746 0-1.37.242-1.88.73-.504.477-.758 1.11-.758 1.9 0 .785.246 1.42.738 1.9.492.472 1.09.706 1.79.706.703 0 1.29-.152 1.76-.453zm14.4-3.8v1.18h-3.94v1.96h3.54v1.11h-3.54v1.98h4.06v1.18h-5.31v-7.4z"/></svg>