<?xml version="1.0" encoding="UTF-8"?>
<svg width="97px" height="18px" viewBox="0 0 97 18" version="1.1" xmlns="http://www.w3.org/2000/svg" xmlns:xlink="http://www.w3.org/1999/xlink">
    <title>wikipedia-tagline-th</title>
    <g id="Page-1" stroke="none" stroke-width="1" fill="none" fill-rule="evenodd">
        <path d="M39.895288,14.2303665 C40.1955277,14.2303665 40.462276,14.3397864 40.6806283,14.5445026 C40.8512193,14.7264503 40.955642,14.9420314 40.985711,15.1825841 L40.9947644,15.3298429 L40.9947644,18 L40.2722513,18 L40.2722513,16.3350785 C40.1630767,16.3760218 40.0317618,16.3978957 39.895288,16.3979058 C39.5950552,16.3978957 39.3460705,16.3021169 39.1413613,16.0837696 C38.92301,15.8790635 38.7958115,15.6300766 38.7958115,15.3298429 C38.7958115,15.0296092 38.923011,14.7628498 39.1413613,14.5445026 C39.3460694,14.3397763 39.5950542,14.2303665 39.895288,14.2303665 Z M39.895288,14.7643979 C39.7451731,14.7643979 39.6138572,14.8259384 39.5183246,14.921466 C39.409149,15.0306446 39.3612565,15.1483074 39.3612565,15.2984293 C39.3612565,15.4485412 39.409151,15.5798651 39.5183246,15.6753927 C39.6138552,15.7845613 39.7451721,15.8324607 39.895288,15.8324607 C40.0454088,15.8324607 40.1630767,15.7845613 40.2722513,15.6753927 C40.3677839,15.5798651 40.4293194,15.4485412 40.4293194,15.2984293 C40.4293194,15.1483074 40.3677829,15.0306446 40.2722513,14.921466 C40.1630777,14.8259384 40.0454078,14.7643979 39.895288,14.7643979 Z M23.1832461,5.02617801 L23.8115183,5.18324607 C23.6068051,5.83830785 23.2661599,6.15706806 22.7748691,6.15706806 C22.5240979,6.15706806 22.1680739,6.1036478 21.7172892,5.9897228 L21.5183246,5.93717277 C20.9860865,5.78707099 20.5661333,5.71728754 20.2931937,5.71727749 C20.0475433,5.71728754 19.8204465,5.81305634 19.6020942,6.03141361 C19.3973871,6.23610974 19.3016042,6.47275225 19.2879581,6.69109948 C20.1613711,6.84122136 21.0177505,7.05056168 21.8638743,7.35078534 C22.6495524,7.62958313 23.0595588,8.01869336 23.1141266,8.52085254 L23.1204188,8.63874346 L23.1204188,12.0628272 C23.1204148,12.4312863 23.0205125,12.7636976 22.7748691,13.0366492 C22.5292147,13.2959397 22.1790428,13.4136126 21.7696335,13.4136126 C21.4011554,13.4136126 21.1001647,13.2959397 20.8272251,13.0366492 C20.5679266,12.7636976 20.4188462,12.4312963 20.4188482,12.0628272 C20.4188452,11.694338 20.5679276,11.3797194 20.8272251,11.1204188 C21.1001637,10.8474773 21.4011574,10.7120419 21.7696335,10.7120419 C21.955229,10.7120419 22.1324197,10.7514214 22.2867091,10.8160884 L22.3979058,10.8691099 L22.3979058,8.70157068 C22.3979017,8.14205654 21.0736808,7.64819435 18.4397906,7.22513089 C18.5216741,5.77853654 19.17696,5.05760168 20.4188482,5.05759162 C20.7054338,5.05761173 21.1253861,5.12737508 21.6439791,5.27748691 L22.0125915,5.36941916 C22.3511237,5.45045592 22.6008651,5.4973822 22.7748691,5.4973822 C22.8942766,5.4973822 23.0233439,5.37694225 23.1360306,5.13654723 L23.1832461,5.02617801 Z M60.9424084,5.02617801 L61.5706806,5.18324607 C61.3659714,5.83830785 61.0253222,6.15706806 60.5340314,6.15706806 C60.2832637,6.15706806 59.9272378,6.1036478 59.4764519,5.9897228 L59.2774869,5.93717277 C58.7452428,5.78707099 58.3567102,5.71728754 58.0837696,5.71727749 C57.8381202,5.71728754 57.6110204,5.81305634 57.3926702,6.03141361 C57.18796,6.23610974 57.0607635,6.47275225 57.0471204,6.69109948 C57.9205304,6.84122136 58.8083264,7.05056168 59.6544503,7.35078534 C60.4401311,7.62958313 60.8501351,8.01869336 60.9047026,8.52085254 L60.9109948,8.63874346 L60.9109948,12.0628272 C60.9109907,12.4312863 60.7796738,12.7636976 60.5340314,13.0366492 C60.288381,13.2959397 59.9696178,13.4136126 59.5602094,13.4136126 C59.1917303,13.4136126 58.859323,13.2959397 58.5863874,13.0366492 C58.3270939,12.7636976 58.2094191,12.4312963 58.2094241,12.0628272 C58.2094231,11.694338 58.3270899,11.3797194 58.5863874,11.1204188 C58.859327,10.8474773 59.1917323,10.7120419 59.5602094,10.7120419 C59.7458033,10.7120419 59.9028876,10.7514214 60.0491367,10.8160884 L60.1570681,10.8691099 L60.1570681,8.70157068 C60.15706,8.14205654 58.8642557,7.64819435 56.2303665,7.22513089 C56.312251,5.77853654 56.9675349,5.05760168 58.2094241,5.05759162 C58.4960117,5.05761173 58.8845474,5.12737508 59.4031414,5.27748691 C59.9353714,5.4139577 60.3334356,5.4973822 60.565445,5.4973822 C60.6848464,5.4973822 60.7898664,5.37694225 60.8965421,5.13654723 L60.9424084,5.02617801 Z M6.56544503,4.52356021 C6.46990945,5.0694534 6.20315812,5.59342241 5.78010471,6.12565445 C6.03086362,6.44808251 6.17950371,6.80261199 6.21275034,7.20618636 L6.21989529,7.38219895 L6.21989529,13.2565445 L5.4973822,13.2565445 L5.4973822,9.92670157 C5.49737617,9.44904377 5.21697977,9.05099058 4.71204188,8.76439791 C4.28897642,8.53239958 3.7951293,8.41884817 3.23560209,8.41884817 C2.68971393,8.41883812 2.23551933,8.55840503 1.85340314,8.85863874 C1.51373984,9.11338778 1.33114944,9.44217776 1.29476858,9.83797683 L1.28795812,9.9895288 L1.28795812,10.8691099 C1.4790142,10.7735824 1.68834647,10.7120419 1.94764398,10.7120419 C2.32976017,10.7120419 2.66216746,10.8474773 2.92146597,11.1204188 C3.18075745,11.3797194 3.2984253,11.6943481 3.29842932,12.0628272 C3.29842429,12.4312863 3.18075745,12.7636976 2.92146597,13.0366492 C2.66216746,13.2959397 2.32976017,13.4136126 1.94764398,13.4136126 C1.52458153,13.4136126 1.20170186,13.2781772 0.942408377,13.0052356 C0.720154232,12.7712857 0.578874399,12.4936511 0.543045165,12.1870562 L0.534031414,12.0314136 L0.534031414,9.9895288 C0.534030408,9.30717487 0.836312796,8.76132188 1.38219895,8.32460733 C1.83103531,7.96069417 2.36082426,7.74733304 2.9714253,7.70440515 L3.20418848,7.69633508 L3.29842932,7.69633508 C3.91254383,7.19139518 4.44604448,6.69755309 4.86910995,6.21989529 C4.36416302,5.87872838 3.80465793,5.71728754 3.20418848,5.71727749 C2.63100716,5.71728754 2.12892113,5.84860147 1.66492147,6.09424084 C1.21608332,6.3368645 0.917605789,6.6502647 0.770556351,7.04279351 L0.722513089,7.19371728 L0,7.19371728 C0.0955285445,6.56594764 0.458061738,6.03245906 1.09947644,5.62303665 C1.69994588,5.24093654 2.39488737,5.05760168 3.17277487,5.05759162 C3.95065634,5.05761173 4.64971426,5.25868901 5.27748691,5.65445026 C5.52312915,5.37372242 5.70293643,5.06423582 5.8008651,4.70652464 L5.84293194,4.52356021 L6.56544503,4.52356021 Z M36.8167539,5.05759162 C37.1852261,5.05759162 37.4684522,5.19303707 37.7277487,5.46596859 C37.9665699,5.69285654 38.1241664,5.96211283 38.1598359,6.27272729 L38.1675393,6.40837696 L38.1675393,12.4397906 C38.4101522,12.1729162 38.8132708,11.9086946 39.3886855,11.6328221 L39.6125654,11.5287958 C40.3904479,11.1739778 40.8884115,10.903097 41.1204188,10.7120419 C41.538014,10.3804197 41.7637228,9.96496325 41.8046937,9.4673434 L41.8115183,9.29842932 L41.8115183,5.21465969 L42.565445,5.21465969 L42.565445,9.39267016 C42.565436,10.0477319 42.3944695,10.5374626 42.0942408,10.8376963 C42.6674111,11.0697047 42.973822,11.4937734 42.973822,12.0942408 C42.973822,12.4627099 42.8383796,12.7773487 42.565445,13.0366492 C42.3061415,13.2959397 41.9915017,13.4136126 41.6230366,13.4136126 C41.2545595,13.4136126 40.9399177,13.2959397 40.6806283,13.0366492 C40.4583698,12.8143916 40.3170901,12.5514774 40.2812635,12.248856 L40.2722513,12.0942408 L40.2722513,11.9371728 C39.5201385,12.2404412 38.9328514,12.6265033 38.4857481,13.0823544 L38.3246073,13.2565445 L37.4136126,13.2565445 L37.4136126,7.63350785 C37.2361975,7.72903539 37.0487523,7.7591623 36.8167539,7.7591623 C36.4482828,7.7591623 36.1158725,7.64148942 35.8429319,7.38219895 C35.5836344,7.10925738 35.434555,6.77685613 35.434555,6.40837696 C35.434555,6.03990785 35.5836354,5.72526911 35.8429319,5.46596859 C36.1158715,5.19303707 36.4482808,5.05759162 36.8167539,5.05759162 Z M87.8010471,4.52356021 C87.7055095,5.0694534 87.4387602,5.59342241 87.0157068,6.12565445 C87.2664578,6.44808251 87.4151015,6.80261199 87.4483512,7.20618636 L87.4554974,7.38219895 L87.4554974,13.2565445 L86.7329843,13.2565445 L86.7329843,9.92670157 C86.7329742,9.44904377 86.4525738,9.05099058 85.947644,8.76439791 C85.5245705,8.53239958 85.0307284,8.41884817 84.4712042,8.41884817 C83.925311,8.41883812 83.4711254,8.55840503 83.0890052,8.85863874 C82.7493428,9.11338778 82.5667454,9.44217776 82.5303686,9.83797683 L82.5235602,9.9895288 L82.5235602,10.8691099 C82.7146153,10.7735824 82.9239455,10.7120419 83.1832461,10.7120419 C83.5653663,10.7120419 83.8977675,10.8474773 84.1570681,11.1204188 C84.4163585,11.3797194 84.5340214,11.6943481 84.5340314,12.0628272 C84.5340214,12.4312863 84.4163585,12.7636976 84.1570681,13.0366492 C83.8977675,13.2959397 83.5653663,13.4136126 83.1832461,13.4136126 C82.7601826,13.4136126 82.4373009,13.2781772 82.1780105,13.0052356 C81.9557529,12.7712857 81.8144726,12.4936511 81.7786458,12.1870562 L81.7696335,12.0314136 L81.7696335,9.9895288 C81.7696325,9.30717487 82.0719179,8.76132188 82.617801,8.32460733 C83.0666365,7.96069417 83.596423,7.74733304 84.2070263,7.70440515 L84.4397906,7.69633508 L84.5340314,7.69633508 C85.1481399,7.19139518 85.6816385,6.69755309 86.104712,6.21989529 C85.5997621,5.87872838 85.040258,5.71728754 84.4397906,5.71727749 C83.8666052,5.71728754 83.3645202,5.84860147 82.9005236,6.09424084 C82.4516792,6.3368645 82.1532041,6.6502647 82.0061574,7.04279351 L81.9581152,7.19371728 L81.2356021,7.19371728 C81.3311296,6.56594764 81.6936608,6.03245906 82.3350785,5.62303665 C82.935546,5.24093654 83.6304854,5.05760168 84.408377,5.05759162 C85.1862584,5.05761173 85.8853093,5.25868901 86.513089,5.65445026 C86.7587312,5.37372242 86.9385326,5.06423582 87.0364647,4.70652464 L87.078534,4.52356021 L87.8010471,4.52356021 Z M66.0628272,5.05759162 C66.4313014,5.05759162 66.7459381,5.19303707 67.0052356,5.46596859 C67.2391812,5.68822618 67.3721093,5.95114042 67.4053143,6.25376176 L67.4136126,6.40837696 L67.4136126,10.8376963 C68.6295627,11.2675884 69.6143866,11.7637677 70.3961202,12.3163487 L70.6492147,12.5026178 L70.6492147,5.21465969 L71.4031414,5.21465969 L71.4031414,13.2565445 L70.5863874,13.2565445 C69.5219083,12.4377198 68.5300966,11.8823372 67.6020942,11.6230366 C67.6430365,11.7458664 67.6649215,11.8771803 67.6649215,12 C67.6649185,12.3957713 67.5117205,12.732294 67.2251309,13.0052356 C66.9521873,13.2781772 66.6470732,13.4136126 66.2513089,13.4136126 C65.8555416,13.4136126 65.5190139,13.2781772 65.2460733,13.0052356 C64.9731327,12.732294 64.8376963,12.3957713 64.8376963,12 C64.8376943,11.6042387 64.9731327,11.2676959 65.2460733,10.9947644 C65.5190139,10.7081617 65.8555436,10.5549738 66.2513089,10.5549738 C66.3513848,10.5549738 66.4388725,10.5647 66.5265144,10.5833155 L66.6596859,10.617801 L66.6596859,7.63350785 C66.4822718,7.72903539 66.2948266,7.7591623 66.0628272,7.7591623 C65.6943571,7.7591623 65.3619458,7.64148942 65.0890052,7.38219895 C64.8297067,7.10925738 64.7120419,6.77685613 64.7120419,6.40837696 C64.7120419,6.03990785 64.8297077,5.72526911 65.0890052,5.46596859 C65.3619448,5.19303707 65.6943551,5.05759162 66.0628272,5.05759162 Z M95.8743455,5.02617801 L96.5340314,5.18324607 C96.3293252,5.83830785 95.9572574,6.15706806 95.4659686,6.15706806 C95.2151912,6.15706806 94.8832252,6.1036478 94.438453,5.9897228 L94.2408377,5.93717277 C93.7085956,5.78707099 93.2886484,5.71728754 93.0157068,5.71727749 C92.7700574,5.71728754 92.5429546,5.81305634 92.3246073,6.03141361 C92.1199012,6.23610974 92.0241123,6.47275225 92.0104712,6.69109948 C92.8838802,6.84122136 93.7402605,7.05056168 94.5863874,7.35078534 C95.3720674,7.62958313 95.7820678,8.01869336 95.8366388,8.52085254 L95.8429319,8.63874346 L95.8429319,12.0628272 C95.8429219,12.4312863 95.711608,12.7636976 95.4659686,13.0366492 C95.2203091,13.2959397 94.901559,13.4136126 94.4921466,13.4136126 C94.1236775,13.4136126 93.7912662,13.2959397 93.5183246,13.0366492 C93.2590241,12.7636976 93.1413613,12.4312963 93.1413613,12.0628272 C93.1413613,11.694338 93.2590241,11.3797194 93.5183246,11.1204188 C93.7912662,10.8474773 94.1236775,10.7120419 94.4921466,10.7120419 C94.6777453,10.7120419 94.8549353,10.7514214 95.0092234,10.8160884 L95.1204188,10.8691099 L95.1204188,8.70157068 C95.1204188,8.14205654 93.7961918,7.64819435 91.1623037,7.22513089 C91.2441902,5.77853654 91.8994731,5.05760168 93.1413613,5.05759162 C93.4279539,5.05761173 93.8164875,5.12737508 94.3350785,5.27748691 C94.8673106,5.4139577 95.2653738,5.4973822 95.4973822,5.4973822 C95.6167941,5.4973822 95.7218062,5.37694225 95.8284798,5.13654723 L95.8743455,5.02617801 Z M76.4293194,5.05759162 L76.4293194,10.7748691 C76.6203755,10.6656905 76.8119392,10.617801 77.0575916,10.617801 C77.4397048,10.6178111 77.7721111,10.7532364 78.0314136,11.026178 C78.3043502,11.2854785 78.4397906,11.5864662 78.4397906,11.9685864 C78.4397906,12.3507066 78.3043492,12.7008804 78.0314136,12.973822 C77.7721121,13.2467736 77.4397078,13.382199 77.0575916,13.382199 C76.6345272,13.382199 76.293883,13.2112285 76.0209424,12.9109948 C75.8220798,12.6887372 75.7102512,12.4258229 75.6823586,12.1232016 L75.6753927,11.9685864 L75.6753927,5.05759162 L76.4293194,5.05759162 Z M29.4644939,5.06253738 C30.2560225,5.06253738 30.8564949,5.25360251 31.2659123,5.63571267 C31.6889677,6.01784293 31.9005035,6.52278283 31.9005035,7.15054241 L31.9005035,13.2508046 L31.1635592,13.2508046 L31.1635592,7.13007581 C31.1635542,6.72066346 31.0066128,6.38631204 30.692734,6.12701152 C30.3924932,5.85408 29.9762563,5.71760921 29.4440223,5.71759916 C28.9663715,5.71760921 28.5842523,5.88137215 28.2976657,6.20889801 C28.011074,6.52278283 27.8541326,6.86395979 27.8268395,7.2324289 L27.0694246,7.2324289 C27.0830717,6.65925361 27.3082485,6.15431372 27.744957,5.71759916 C28.1953106,5.28089466 28.7684889,5.06253738 29.4644939,5.06253738 Z M49.5734088,5.06253738 C50.4604659,5.06253738 51.170115,5.30818681 51.7023581,5.79948565 C52.2345892,6.2907845 52.5007142,6.96631288 52.5007142,7.82608084 L52.5007142,13.2508046 L51.76377,13.2508046 L51.76377,7.90795728 C51.7637639,7.23925445 51.5522342,6.70702241 51.1291798,6.3112511 C50.7197604,5.91548984 50.1875244,5.71760921 49.5324666,5.71759916 C49.0684619,5.71760921 48.6181073,5.84725445 48.1814028,6.10654492 C47.7446933,6.36584545 47.4444575,6.70019686 47.2806936,7.10960921 C48.0858712,7.17784461 48.6385779,7.47807832 48.9388177,8.01031037 C48.6112838,8.07855581 48.3246951,8.26278534 48.0790497,8.56301906 C47.8333993,8.84961173 47.7105756,9.17032209 47.7105776,9.5251401 L47.7105776,13.2508046 L46.9736333,13.2508046 L46.9736333,9.54561675 C46.9736313,8.74043309 47.3284564,8.19456 48.0381085,7.90795728 C47.5877509,7.68961005 47.0691619,7.61454911 46.4823375,7.6827845 C46.5915131,6.91855414 46.9326911,6.2907845 47.5058704,5.79948565 C48.0926938,5.30818681 48.7818723,5.06253738 49.5734088,5.06253738 Z M12.2963183,5.06253738 C13.0878469,5.06253738 13.6883193,5.25360251 14.0977367,5.63571267 C14.5207931,6.01784293 14.7323279,6.52278283 14.7323279,7.15054241 L14.7323279,13.2508046 L13.9953836,13.2508046 L13.9953836,7.13007581 C13.9953796,6.72066346 13.8384382,6.38631204 13.5245584,6.12701152 C13.2243177,5.85408 12.8080818,5.71760921 12.2758477,5.71759916 C11.7981959,5.71760921 11.4160777,5.88137215 11.1294901,6.20889801 C10.8428994,6.52278283 10.685958,6.86395979 10.6586649,7.2324289 L9.90125001,7.2324289 C9.91489608,6.65925361 10.1400739,6.15431372 10.5767814,5.71759916 C11.027135,5.28089466 11.6003133,5.06253738 12.2963183,5.06253738 Z M59.5602094,11.3717277 C59.3691443,11.3717277 59.1940594,11.4237386 59.0575916,11.5602094 C58.9211138,11.6966903 58.8691099,11.8717621 58.8691099,12.0628272 C58.8691099,12.2538723 58.9211138,12.4289742 59.0575916,12.565445 C59.1940594,12.7019158 59.3691463,12.7539267 59.5602094,12.7539267 C59.7512605,12.7539267 59.9263494,12.7019158 60.0628272,12.565445 C60.1992859,12.4289742 60.2513089,12.2538823 60.2513089,12.0628272 C60.2513089,11.871752 60.19929,11.6966802 60.0628272,11.5602094 C59.9263454,11.4237487 59.7512625,11.3717277 59.5602094,11.3717277 Z M41.6230366,11.3717277 C41.4319715,11.3717277 41.2568836,11.4237386 41.1204188,11.5602094 C40.983941,11.6966903 40.9005236,11.8717621 40.9005236,12.0628272 C40.9005236,12.2538723 40.983942,12.4289742 41.1204188,12.565445 C41.2568826,12.7019158 41.4319705,12.7539267 41.6230366,12.7539267 C41.8140907,12.7539267 41.957762,12.7019158 42.0942408,12.565445 C42.2307046,12.4289742 42.3141361,12.2538823 42.3141361,12.0628272 C42.3141361,11.871752 42.2307046,11.6966802 42.0942408,11.5602094 C41.957762,11.4237487 41.8140897,11.3717277 41.6230366,11.3717277 Z M83.1832461,11.4031414 C82.9921809,11.4031414 82.8170991,11.4551523 82.6806283,11.591623 C82.5577985,11.7281039 82.4921466,11.9031858 82.4921466,12.0942408 C82.4921466,12.2852959 82.5577985,12.4289742 82.6806283,12.565445 C82.8170991,12.6882647 82.9921809,12.7539267 83.1832461,12.7539267 C83.3743012,12.7539267 83.5179795,12.6882647 83.6544503,12.565445 C83.790921,12.4289742 83.8743455,12.2852959 83.8743455,12.0942408 C83.8743455,11.9031858 83.790921,11.7281039 83.6544503,11.591623 C83.5179795,11.4551523 83.3743012,11.4031414 83.1832461,11.4031414 Z M21.7696335,11.3717277 C21.5785674,11.3717277 21.4348971,11.4237386 21.2984293,11.5602094 C21.1619545,11.6966903 21.078534,11.8717621 21.078534,12.0628272 C21.078534,12.2538723 21.1619545,12.4289742 21.2984293,12.565445 C21.4348971,12.7019158 21.5785694,12.7539267 21.7696335,12.7539267 C21.9606866,12.7539267 22.1357755,12.7019158 22.2722513,12.565445 C22.4087181,12.4289742 22.4921466,12.2538823 22.4921466,12.0628272 C22.4921466,11.871752 22.4087181,11.6966802 22.2722513,11.5602094 C22.1357755,11.4237487 21.9606886,11.3717277 21.7696335,11.3717277 Z M94.4921466,11.3717277 C94.3010815,11.3717277 94.1259996,11.4237386 93.9895288,11.5602094 C93.853058,11.6966903 93.8010471,11.8717621 93.8010471,12.0628272 C93.8010471,12.2538723 93.853058,12.4289742 93.9895288,12.565445 C94.1259996,12.7019158 94.3010815,12.7539267 94.4921466,12.7539267 C94.6832017,12.7539267 94.8582936,12.7019158 94.9947644,12.565445 C95.1312352,12.4289742 95.1832461,12.2538823 95.1832461,12.0628272 C95.1832461,11.871752 95.1312352,11.6966802 94.9947644,11.5602094 C94.8582936,11.4237487 94.6832017,11.3717277 94.4921466,11.3717277 Z M1.94764398,11.4031414 C1.75658387,11.4031414 1.58149495,11.4551523 1.44502618,11.591623 C1.32220147,11.7281039 1.2565445,11.9031858 1.2565445,12.0942408 C1.2565445,12.2852959 1.32220046,12.4289742 1.44502618,12.565445 C1.58149596,12.6882647 1.75658287,12.7539267 1.94764398,12.7539267 C2.13870207,12.7539267 2.28237437,12.6882647 2.41884817,12.565445 C2.55531795,12.4289742 2.63874346,12.2852959 2.63874346,12.0942408 C2.63874346,11.9031858 2.55531694,11.7281039 2.41884817,11.591623 C2.28237537,11.4551523 2.13870107,11.4031414 1.94764398,11.4031414 Z M66.2513089,11.2146597 C66.0465997,11.2146597 65.8673943,11.2844431 65.7172775,11.434555 C65.5671576,11.5846668 65.4659686,11.7638802 65.4659686,11.9685864 C65.4659686,12.1732926 65.5671616,12.3524959 65.7172775,12.5026178 C65.8673903,12.6527397 66.0466017,12.7539267 66.2513089,12.7539267 C66.4560131,12.7539267 66.6038048,12.6527296 66.7539267,12.5026178 C66.9040415,12.352506 67.0052356,12.1732926 67.0052356,11.9685864 C67.0052356,11.7638802 66.9040436,11.5846769 66.7539267,11.434555 C66.6038028,11.2844331 66.4560151,11.2146597 66.2513089,11.2146597 Z M77.0575916,11.2774869 C76.8665265,11.2774869 76.7228552,11.3609114 76.5863874,11.4973822 C76.4499136,11.633863 76.3664921,11.7775313 76.3664921,11.9685864 C76.3664921,12.1596415 76.4499146,12.3347334 76.5863874,12.4712042 C76.7228542,12.6076649 76.8665295,12.6910995 77.0575916,12.6910995 C77.2486467,12.6910995 77.4237316,12.6076649 77.5602094,12.4712042 C77.6966812,12.3347334 77.7801047,12.1596415 77.7801047,11.9685864 C77.7801047,11.7775313 77.6966772,11.633863 77.5602094,11.4973822 C77.4237356,11.3609114 77.2486497,11.2774869 77.0575916,11.2774869 Z M86.5445026,6.69109948 C86.1623824,7.10053194 85.7560662,7.46305005 85.3193717,7.79057592 C85.8106648,7.90755949 86.2275943,8.10416511 86.5687358,8.37280269 L86.7329843,8.51308901 L86.7329843,7.35078534 C86.7329843,7.15973026 86.6673223,6.93675895 86.5445026,6.69109948 Z M5.30890052,6.69109948 C4.92677428,7.10053194 4.52047213,7.46305005 4.08376963,7.79057592 C4.57506101,7.90755949 4.99199319,8.10416511 5.33313423,8.37280269 L5.4973822,8.51308901 L5.4973822,7.35078534 C5.4973822,7.15973026 5.4317182,6.93675895 5.30890052,6.69109948 Z M36.8167539,5.71727749 C36.6256948,5.71727749 36.4506059,5.80070199 36.3141361,5.93717277 C36.1776633,6.07365361 36.0942408,6.21732188 36.0942408,6.40837696 C36.0942408,6.59944209 36.1776633,6.77452398 36.3141361,6.91099476 C36.4506059,7.04746555 36.6256928,7.09947644 36.8167539,7.09947644 C37.007814,7.09947644 37.1514853,7.04746555 37.2879581,6.91099476 C37.4244269,6.77452398 37.5078534,6.59944209 37.5078534,6.40837696 C37.5078534,6.21732188 37.4244269,6.07365361 37.2879581,5.93717277 C37.1514853,5.80070199 37.007812,5.71727749 36.8167539,5.71727749 Z M66.0628272,5.71727749 C65.8717711,5.71727749 65.6966822,5.80070199 65.5602094,5.93717277 C65.4237406,6.07365361 65.3403141,6.21732188 65.3403141,6.40837696 C65.3403141,6.59944209 65.4237366,6.77452398 65.5602094,6.91099476 C65.6966862,7.04746555 65.8717691,7.09947644 66.0628272,7.09947644 C66.2538873,7.09947644 66.3975586,7.04746555 66.5340314,6.91099476 C66.6704992,6.77452398 66.7539267,6.59944209 66.7539267,6.40837696 C66.7539267,6.21732188 66.6704992,6.07365361 66.5340314,5.93717277 C66.3975586,5.80070199 66.2538853,5.71727749 66.0628272,5.71727749 Z M96.4397906,0 L96.4397906,3.39267016 C96.4943849,3.57008419 96.5381529,3.73564649 96.565445,3.92670157 C94.996031,3.36717738 93.5144947,3.1099577 92.1361257,3.10994764 C91.6448369,3.1099577 91.0894542,3.15372565 90.5026178,3.23560209 C90.516279,2.52595602 90.8090237,1.94456796 91.382199,1.5078534 C91.9007899,1.11209215 92.5437185,0.911004817 93.2670157,0.910994764 C94.2807987,0.911004099 95.0574363,1.20827719 95.6221284,1.82984888 L95.7486911,1.97905759 L95.7486911,0 L96.4397906,0 Z M93.3612565,1.5078534 C92.405961,1.5078534 91.7725621,1.85262911 91.4450262,2.57591623 C91.7316188,2.53499309 92.0640201,2.51309906 92.4188482,2.51308901 C93.7289717,2.51309906 94.8603443,2.74973152 95.8429319,3.17277487 C95.2424645,2.06738764 94.4120896,1.5078534 93.3612565,1.5078534 Z" id="wikipedia-tagline-th" fill="#000000" fill-rule="nonzero"></path>
    </g>
</svg>