<svg xmlns="http://www.w3.org/2000/svg" viewBox="0 0 140 17.949"><path d="m20.73 3.68-3.492 10.68h-2.656l-2.348-7.235-2.426 7.235h-2.64L3.66 3.68h2.562l2.406 7.508 2.524-7.508h2.285l2.441 7.566 2.489-7.566zm1.371 0h2.473v10.68H22.1zM31 10.164l-1.434 1.496v2.7h-2.457V3.68h2.457v4.988l4.73-4.989h2.743l-4.422 4.758L37.3 14.36h-2.883zm7.398-6.484h2.469v10.68h-2.47zm7.476 1.98v2.824h4.942v1.985h-4.942v3.89h-2.472V3.68h8.07v1.98zm12.02 8.883c-1.52 0-2.71-.422-3.566-1.266-.848-.848-1.27-2.05-1.27-3.617V3.68h2.47v5.886c0 1.91.792 2.87 2.382 2.871.773 0 1.36-.23 1.77-.695.406-.46.609-1.19.61-2.176V3.68h2.44v5.98c0 1.57-.426 2.77-1.273 3.617-.848.844-2.04 1.27-3.562 1.266zM74.968 3.68v10.68h-2.03l-5.321-6.484v6.484h-2.445V3.68h2.043l5.312 6.484V3.68zm7.641 10.863c-1.09 0-2.07-.238-2.953-.71a5.307 5.307 0 0 1-2.074-1.97c-.504-.84-.754-1.79-.754-2.844 0-1.06.254-2 .754-2.847a5.362 5.362 0 0 1 2.074-1.965c.883-.473 1.87-.711 2.969-.711.926 0 1.76.164 2.508.488.75.328 1.38.793 1.886 1.403L85.433 6.85c-.723-.832-1.62-1.25-2.687-1.25-.66 0-1.25.145-1.77.434-.52.293-.922.695-1.214 1.215a3.62 3.62 0 0 0-.434 1.77c0 .66.148 1.25.434 1.769.293.52.699.922 1.214 1.215a3.62 3.62 0 0 0 1.77.433c1.07 0 1.96-.422 2.687-1.27l1.586 1.465a5.003 5.003 0 0 1-1.894 1.422c-.754.324-1.59.488-2.516.489zm8.18-8.852H87.37V3.68h9.304V5.69h-3.418v8.668H90.79zm7.215-2.011h2.468v10.68h-2.468zm10.18 10.863c-1.11 0-2.11-.238-3-.719a5.302 5.302 0 0 1-2.09-1.977c-.504-.836-.754-1.78-.754-2.828s.25-1.99.754-2.828c.504-.844 1.2-1.5 2.09-1.976.89-.477 1.89-.72 3-.72s2.1.243 2.988.72a5.325 5.325 0 0 1 2.09 1.976c.508.836.762 1.78.761 2.828s-.254 1.99-.761 2.828c-.508.84-1.2 1.5-2.09 1.977-.887.48-1.88.719-2.988.719zm0-2.106c.629 0 1.2-.148 1.707-.433a3.17 3.17 0 0 0 1.199-1.215 3.62 3.62 0 0 0 .433-1.77c0-.664-.148-1.25-.433-1.77a3.164 3.164 0 0 0-1.2-1.214 3.394 3.394 0 0 0-1.706-.434c-.633 0-1.2.145-1.711.434-.508.293-.91.695-1.2 1.215-.289.52-.434 1.11-.433 1.77 0 .66.145 1.25.433 1.769.29.52.691.922 1.2 1.215a3.44 3.44 0 0 0 1.71.433zM125.68 3.68v10.68h-2.032l-5.32-6.484v6.484h-2.441V3.68h2.043l5.308 6.485V3.679zm6.039 10.863c-.844 0-1.66-.113-2.446-.343-.789-.23-1.43-.527-1.902-.891l.84-1.863c.457.336 1 .602 1.633.808.633.203 1.26.305 1.894.305.7 0 1.22-.102 1.551-.312.336-.207.508-.484.508-.833a.796.796 0 0 0-.3-.632 2.24 2.24 0 0 0-.759-.407 16.797 16.797 0 0 0-1.261-.336c-.812-.19-1.48-.383-2-.578a3.219 3.219 0 0 1-1.332-.93c-.371-.425-.56-.995-.559-1.71 0-.617.168-1.18.504-1.684.336-.504.84-.902 1.515-1.195.676-.297 1.5-.445 2.481-.445.684 0 1.35.082 2 .246.652.16 1.22.395 1.707.699l-.762 1.875c-.988-.56-1.97-.836-2.96-.836-.692 0-1.2.109-1.532.336-.332.223-.5.52-.5.883 0 .367.195.637.578.816.38.18.961.355 1.742.527.816.191 1.48.387 2 .582.52.191.965.496 1.336.915.371.418.56.98.559 1.69 0 .614-.172 1.17-.512 1.673-.34.504-.852.902-1.535 1.195-.684.297-1.51.445-2.488.445z"/></svg>