<svg xmlns="http://www.w3.org/2000/svg" width="146" height="22" fill="none"><path fill="#000" d="M.145 20.933c-.193-.193-.193-.87 0-1.064 2.258-.097 2.806-.258 2.806-2.935V3.999c0-2.677-.548-2.838-2.806-2.935C-.048.871-.048.194.145 0c1.613.032 2.548.065 4.161.065h7.515C12.466.065 15.08 0 15.08 0l.064.065c.394 1.935.562 3.754.614 5.515-.265.17-.694.21-1.13.161-.677-2.709-1.386-4.386-3.741-4.386H6.854c-.774 0-1.161.226-1.161 1v6.483h3.515c6.58 0 7.774 3.516 7.774 5.968 0 2.09-1.21 3.85-2.549 4.74-1.839 1.227-3.967 1.388-6.58 1.388-1.451 0-2.451-.065-3.516-.065-1.644 0-2.611.032-4.192.064Zm5.548-2.677c0 1.162.42 1.613 2.322 1.613 5.064 0 6.064-2.742 6.064-4.741 0-1.84-.903-5-5.258-5H5.694v8.128ZM26.787 6.967l.065.065v.677c0 .129-.065.184-.194.194l-.967.064c-1.226.08-1.323.355-1.323 1.677v7.677l6.645-8c0-.774-.032-1.322-1.129-1.418-.096-.01-.161-.033-.161-.162v-.71l.064-.064s1.452.065 2.355.065c1.451 0 3.71-.065 3.71-.065l.032.065v.677c0 .129-.065.184-.194.194l-.968.064c-1.19.08-1.29.323-1.29 1.677v8.677c0 1.193.167 1.538 1.29 1.612l.968.065c.129.01.194.065.194.194v.677l-.033.065c-1.29-.033-2.258-.065-3.71-.065-1.386 0-2.257.032-3.547.065l-.065-.065v-.71c0-.096.065-.154.162-.16l1-.066c1.22-.077 1.322-.483 1.322-1.612v-7.612l-6.645 7.999v.064c0 .775.097 1.13 1.194 1.226.13.013.194.065.194.194v.677l-.032.065c-1.29-.033-1.58-.065-2.613-.065-1.387 0-2.29.032-3.58.065l-.033-.065v-.71c0-.096.065-.154.162-.16l1-.066c1.216-.077 1.29-.419 1.29-1.548V9.676c0-1.354-.074-1.629-1.29-1.71l-.968-.064c-.129-.01-.193-.032-.193-.161v-.71l.096-.064s2.13.064 3.516.064c1.418 0 3.676-.064 3.676-.064ZM38.108 20.256c0-.161.097-.226.258-.258l.613-.065c1.13-.129 1.355-.451 1.355-1.355V9.386c0-.903-.323-1.323-1.355-1.42l-.613-.064c-.161-.032-.258-.097-.258-.258V7.03l.065-.065s2.193.065 3.322.065c1.258 0 3.064-.065 3.064-.065l.064.065v.548c0 .162-.128.323-.258.323-.935.096-1.613.258-1.613 1.419v3.677c2.161 0 3.093-1.226 3.774-3 .58-1.516 1.613-3.257 3.161-3.257 1.323 0 1.677.677 1.677 1.45 0 .646-.548 1.226-1.225 1.226-.387 0-.678-.129-.904-.29a1.24 1.24 0 0 0-.71-.226c-.322 0-.934.71-1.29 1.71-.457 1.287-1.225 2.387-2.418 2.742v.129c1.742 0 2.935.709 3.58 2.29.516 1.225 1.838 4.031 3 4.193l.258.032c.129 0 .355.065.355.29v.58l-.097.066-2.322-.033c-1.613-.032-2.607-2.261-3.097-3.677-.613-1.774-1.322-2.935-3.742-3.096v4.515c0 1.065.968 1.259 1.678 1.355.129.033.258.097.258.259v.613l-.065.064s-1.87-.064-3.129-.064c-1.129 0-3.322.064-3.322.064l-.064-.064v-.613ZM60.783 6.967l.064.065v.677c0 .129-.064.184-.193.194l-.967.064c-1.226.08-1.323.355-1.323 1.677v7.677l6.645-8c0-.774-.033-1.322-1.13-1.418-.096-.01-.16-.033-.16-.162v-.71l.064-.064s1.451.065 2.355.065c1.451 0 3.709-.065 3.709-.065l.032.065v.677c0 .129-.065.184-.193.194l-.968.064c-1.19.08-1.29.323-1.29 1.677v8.677c0 1.193.167 1.538 1.29 1.612l.968.065c.128.01.193.065.193.194v.677l-.032.065c-1.29-.033-2.258-.065-3.71-.065-1.386 0-2.257.032-3.547.065l-.065-.065v-.71c0-.096.065-.154.162-.16l1-.066c1.219-.077 1.322-.483 1.322-1.612v-7.612l-6.645 7.999v.064c0 .775.097 1.13 1.194 1.226.129.013.193.065.193.194v.677l-.032.065c-1.29-.033-1.58-.065-2.612-.065-1.387 0-2.29.032-3.58.065l-.033-.065v-.71c0-.096.065-.154.162-.16l1-.066c1.216-.077 1.29-.419 1.29-1.548V9.676c0-1.354-.074-1.629-1.29-1.71l-.968-.064c-.129-.01-.193-.032-.193-.161v-.71l.096-.064s2.129.064 3.516.064c1.418 0 3.676-.064 3.676-.064ZM79.426 8.225v10.193c0 1.29.297 1.467 1.29 1.515l1.29.065c.13.007.194.097.194.194v.742s-2.519-.065-4.129-.065c-1.51 0-3.87.065-3.87.065v-.742c0-.13.064-.187.193-.194l1.323-.065c1.154-.054 1.29-.258 1.29-1.515V8.225h-.548c-2.645 0-3.129.903-3.678 3.516l-.87-.13a31.16 31.16 0 0 0 .387-4.58H84.2c.032 1.872.161 3.097.355 4.58l-.839.13c-.548-2.613-1.064-3.516-3.677-3.516h-.613ZM93.78 6.967l.064.065v.677c0 .129-.065.184-.194.194l-.968.064c-1.225.08-1.322.355-1.322 1.677v7.677l6.645-8c0-.774-.033-1.322-1.13-1.418-.096-.01-.16-.033-.16-.162v-.71l.064-.064s1.451.065 2.354.065c1.452 0 3.71-.065 3.71-.065l.032.065v.677c0 .129-.065.184-.193.194l-.968.064c-1.19.08-1.29.323-1.29 1.677v8.677c0 1.193.167 1.538 1.29 1.612l.968.065c.128.01.193.065.193.194v.677l-.032.065c-1.29-.033-2.258-.065-3.71-.065-1.387 0-2.258.032-3.548.065l-.064-.065v-.71c0-.096.064-.154.161-.16l1-.066c1.22-.077 1.323-.483 1.323-1.612v-7.612l-6.645 7.999v.064c0 .775.097 1.13 1.194 1.226.128.013.193.065.193.194v.677l-.032.065c-1.29-.033-1.58-.065-2.613-.065-1.387 0-2.29.032-3.58.065l-.033-.065v-.71c0-.096.065-.154.162-.16l1-.066c1.216-.077 1.29-.419 1.29-1.548V9.676c0-1.354-.074-1.629-1.29-1.71l-.968-.064c-.129-.01-.194-.032-.194-.161v-.71l.097-.064s2.129.064 3.516.064c1.42 0 3.677-.064 3.677-.064ZM106.132 17.289c.549 0 .929.164 1.387 1.193.387.87 1.258 1.645 2.548 1.645 2.709 0 4.161-1.903 4.161-5.741-.387-.161-.807-.29-1.226-.29-1.225 0-1.806.71-3.257.71-1.387 0-2.871-.581-2.871-1.033 0-.129.065-.452.258-.452.226 0 .613.194 1.032.194 1.129 0 2-.903 3.387-.903.936 0 1.806.387 2.645.903l.097-.065c0-2.967-.968-5.741-3.839-5.741-2.386 0-3.386 1.548-3.934 3.612l-.807-.129c.322-1.548.484-2.645.58-3.87 1.581-.097 2.903-.613 4.419-.613 4.29 0 6.129 3.128 6.129 7.031 0 5.193-3.226 7.452-6.419 7.452-2.935 0-5.225-1.259-5.225-2.968 0-.516.355-.935.935-.935ZM119.034 20.256c0-.161.097-.226.258-.258l.614-.065c1.128-.129 1.354-.451 1.354-1.355V9.386c0-.903-.322-1.323-1.354-1.42l-.614-.064c-.161-.032-.258-.097-.258-.258V7.03l.065-.065s2.193.065 3.322.065c1.258 0 3.064-.065 3.064-.065l.065.065v.548c0 .162-.129.323-.258.323-.936.096-1.613.258-1.613 1.419v3.677c2.161 0 3.093-1.226 3.774-3 .581-1.516 1.613-3.257 3.161-3.257 1.323 0 1.677.677 1.677 1.45 0 .646-.548 1.226-1.225 1.226-.387 0-.677-.129-.904-.29a1.238 1.238 0 0 0-.709-.226c-.322 0-.935.71-1.29 1.71-.458 1.287-1.226 2.387-2.419 2.742v.129c1.742 0 2.935.709 3.58 2.29.516 1.225 1.839 4.031 3 4.193l.258.032c.129 0 .355.065.355.29v.58l-.097.066-2.322-.033c-1.613-.032-2.606-2.261-3.096-3.677-.613-1.774-1.323-2.935-3.742-3.096v4.515c0 1.065.968 1.259 1.677 1.355.129.033.259.097.259.259v.613l-.065.064s-1.871-.064-3.129-.064c-1.129 0-3.322.064-3.322.064l-.065-.064v-.613h-.001ZM135.291 17.289c.548 0 .928.164 1.386 1.193.388.87 1.258 1.645 2.549 1.645 2.709 0 4.161-1.903 4.161-5.741-.387-.161-.807-.29-1.226-.29-1.225 0-1.806.71-3.258.71-1.387 0-2.87-.581-2.87-1.033 0-.129.064-.452.258-.452.226 0 .613.194 1.032.194 1.129 0 2-.903 3.387-.903.935 0 1.806.387 2.645.903l.097-.065c0-2.967-.968-5.741-3.838-5.741-2.387 0-3.387 1.548-3.936 3.612l-.806-.129c.322-1.548.483-2.645.58-3.87 1.581-.097 2.903-.613 4.419-.613 4.29 0 6.129 3.128 6.129 7.031 0 5.193-3.226 7.452-6.419 7.452-2.935 0-5.226-1.259-5.226-2.968 0-.516.355-.935.936-.935Z"/></svg>