<?xml version="1.0" encoding="UTF-8"?>
<svg width="120px" height="13px" viewBox="0 0 120 13" version="1.1" xmlns="http://www.w3.org/2000/svg" xmlns:xlink="http://www.w3.org/1999/xlink">
    <title>wikipedia-tagline-fi</title>
    <g id="Page-1" stroke="none" stroke-width="1" fill="none" fill-rule="evenodd">
        <path d="M17.1123166,3.41188022 C17.1305097,3.41188022 17.1486982,3.41782516 17.1588024,3.42968501 L17.1668855,3.45190721 L17.1259562,4.51813498 L17.1668855,4.51813498 C17.7944219,3.58518188 18.5174534,3.45190721 18.9540006,3.45190721 C20.277282,3.45190721 21.2458726,4.75803344 21.2458726,6.17078346 C21.2458726,7.25033667 20.9048194,8.07666598 20.2909258,8.6897477 C19.7588845,9.20953108 19.1040626,9.4361041 18.3810321,9.4361041 C17.9600763,9.4361041 17.6293251,9.35776826 17.320051,9.21788601 L17.1668855,9.14289374 L17.1668855,11.4486104 C17.1668855,11.7878587 17.2909053,11.9398315 17.6311888,11.994732 L17.739854,12.0083802 L17.9990538,12.0350311 C18.050211,12.0450024 18.0936953,12.0624863 18.1122402,12.0987348 L18.1218323,12.1416549 L18.1218323,12.3948889 L18.0945427,12.4215398 L17.3698069,12.4031983 C17.1327755,12.3982076 16.8940388,12.3948889 16.634839,12.3948889 C16.2665027,12.3948889 15.9365342,12.402413 15.5816267,12.4117753 L15.2160615,12.4215398 L15.1887718,12.3948889 L15.1887718,12.1416549 C15.1887718,12.0917073 15.211794,12.0641723 15.2520805,12.0479262 L15.2979087,12.0350311 L15.5571085,12.0083802 C15.9539686,11.9720289 16.1140667,11.8475588 16.1398956,11.5448577 L16.1437187,11.4486104 L16.1437332,5.02454225 C16.1437332,4.40940967 16.0507409,4.24852366 15.8862162,4.20645017 L15.8436072,4.19821294 L15.256997,4.14491118 L15.2297074,3.82503981 L15.6780014,3.75371384 C16.3676848,3.63771603 16.7826332,3.53405542 17.1123166,3.41188022 Z M112.230831,3.41188022 C112.25811,3.41188022 112.28539,3.42525633 112.28539,3.45190721 L112.244993,4.93484509 L112.244993,4.93484509 L112.244471,7.83671685 C112.244471,9.99582327 111.889778,11.3286105 111.248601,11.8350684 C110.743841,12.248228 110.28001,12.248228 110.007176,12.248228 C109.761611,12.248228 109.29778,12.0616415 109.29778,11.6618073 C109.29778,11.4218987 109.556985,11.261963 109.707042,11.261963 C110.061735,11.261963 110.198162,11.4218987 110.3073,11.5551835 C110.389148,11.6750922 110.471007,11.768421 110.621063,11.768421 C111.173301,11.768421 111.21748,10.053757 111.221014,8.64819018 L111.221322,5.02454225 C111.221322,4.40940967 111.13995,4.23712627 110.96648,4.20382 L110.921187,4.19821294 L110.334579,4.14491118 L110.3073,3.82503981 L110.791525,3.74739874 C111.46473,3.63394044 111.90714,3.53183406 112.230831,3.41188022 Z M8.45809369,0.679729196 L8.48538334,0.706380077 L8.48538334,0.959603979 C8.48538334,1.02630211 8.44445509,1.06622777 8.37624653,1.06622777 C7.67952553,1.10335805 7.42979104,1.41628705 7.24475277,1.84496214 L7.20302608,1.94586897 L4.43368067,9.15622932 C4.35182833,9.35615146 4.25633323,9.46276512 4.10627024,9.46276512 C3.99258671,9.46276512 3.89784857,9.38872785 3.82995451,9.24835308 L3.79250256,9.15622932 L1.14593599,1.89255708 C0.94130481,1.33278724 0.818525042,1.13290564 0.109136811,1.06622777 C0.0682108956,1.06622777 0.0272843971,1.04375819 0.00937901759,1.00439367 L0,0.959603979 L0,0.706380077 L0.027284462,0.679729196 L0.954387284,0.701474475 C1.11609408,0.704513312 1.28235702,0.706380077 1.48698803,0.706380077 L2.12762084,0.700851286 L2.12762084,0.700851286 L3.17860808,0.679729196 L3.20588735,0.706380077 L3.20588735,0.959603979 C3.20588735,1.00962758 3.18286521,1.0371246 3.14257866,1.05334693 L3.09675054,1.06622777 L2.86483521,1.09287865 C2.26945264,1.1671298 2.13282534,1.26436927 2.23649365,1.59801139 L2.26458327,1.67929936 L4.42003398,7.61019449 L4.47460291,7.61019449 L6.6027731,1.77265851 C6.78012018,1.30237614 6.54576824,1.13087208 6.10724714,1.08743271 L5.78424754,1.06622777 C5.74332162,1.06622777 5.70239513,1.04375819 5.68448975,1.00439367 L5.67511073,0.959603979 L5.67511073,0.706380077 L5.70239,0.679729196 L7.18937918,0.706380077 L7.18937918,0.706380077 L7.48266419,0.703436364 L7.48266419,0.703436364 L8.45809369,0.679729196 Z M69.235169,3.45181601 C69.9172733,3.45181601 70.3128944,3.57176524 70.7357989,3.78501282 C70.7971897,4.10487659 70.8355601,4.43973718 70.8624168,4.78959459 L70.8858619,5.14445094 L70.5175252,5.15782705 C70.231042,4.0649484 69.5216522,3.85170082 69.235169,3.85170082 C68.7167694,3.85170082 68.1574437,4.01163651 68.1574437,4.74466746 C68.1574437,5.23969708 68.345649,5.50489589 68.9732796,5.75367821 L69.1260322,5.81089523 C70.231041,6.21072938 71.1177782,6.6905263 71.1177782,7.75675407 C71.1177782,9.07620574 69.6853569,9.43606357 69.0441799,9.43606357 C68.5667064,9.43606357 68.1710854,9.38278207 67.8163905,9.28945332 C67.7208964,9.26280244 67.6526889,9.26280244 67.5571907,9.26280244 C67.4889811,9.26280244 67.3798443,9.27617855 67.243423,9.30282943 C67.243423,8.85501356 67.2172283,8.34748676 67.1788111,7.82801776 L67.1479248,7.43678137 L67.5162645,7.42350659 C67.5571907,7.7567034 67.693612,8.36978513 68.0073807,8.67632093 C68.1438009,8.82293117 68.5121386,9.06282963 69.0168954,9.06282963 C69.4943678,9.06282963 70.2037576,8.71630738 70.2037576,8.06324933 C70.2037576,7.52596302 69.9159936,7.16439842 68.9920056,6.73693262 L68.4685961,6.50464162 C67.6970115,6.14818756 67.3252754,5.82652036 67.3252754,4.9445288 C67.3252754,4.05156216 68.1574447,3.45181601 69.235169,3.45181601 Z M116.848673,3.45190721 C117.807669,3.45190721 118.779303,3.78559313 118.849961,5.50027572 L118.854063,5.70431198 L118.854394,7.81174295 L118.859738,8.04617137 C118.880255,8.49995898 118.974113,8.84968339 119.399752,8.84968339 C119.727155,8.84968339 119.768095,8.63643581 119.849933,8.63643581 C119.904471,8.63643581 120,8.74301906 120,8.83634781 C120,8.90299528 119.536169,9.4361041 118.867703,9.4361041 C118.196322,9.4361041 117.96015,9.01090312 117.864313,8.72606859 L117.844522,8.66308669 L117.817243,8.66308669 L117.544398,8.87633427 C116.944151,9.32948031 116.684946,9.4361041 116.057419,9.4361041 C115.102468,9.4361041 114.365792,9.04959539 114.365792,7.99669307 C114.365792,7.13810057 115.186133,6.45893957 116.386035,6.11785037 L116.589458,6.06415967 L117.762674,5.78427475 C117.803541,5.77094931 117.844512,5.71766782 117.844512,5.62433907 C117.844512,4.11830083 117.203324,3.85174136 116.739494,3.85174136 C116.221105,3.85174136 115.607207,4.03832792 115.607207,4.45148751 C115.607207,4.59809775 115.620898,4.67802 115.634486,4.71804698 C115.661869,4.77135888 115.675457,4.8646167 115.675457,4.95794545 C115.675457,5.13120657 115.470821,5.39776605 115.075209,5.39776605 C114.761435,5.39776605 114.597728,5.25116594 114.597728,4.93129456 C114.597728,4.21158905 115.730026,3.45190721 116.848673,3.45190721 Z M75.0364773,3.45190721 C75.9954651,3.45190721 76.9671048,3.78559313 77.0377626,5.50027572 L77.041865,5.70431198 L77.041865,7.69015727 C77.041865,8.303239 77.0555078,8.84968339 77.5875491,8.84968339 C77.9149595,8.84968339 77.9558898,8.63643581 78.037738,8.63643581 C78.0923028,8.63643581 78.187801,8.74301906 78.187801,8.83634781 C78.187801,8.90299528 77.7239693,9.4361041 77.0555078,9.4361041 C76.4357674,9.4361041 76.1868649,9.07380268 76.0768548,8.79403392 L76.0323514,8.66308669 L76.0050721,8.66308669 L75.7322306,8.87633427 C75.1319786,9.32948031 74.8727778,9.4361041 74.2452424,9.4361041 C73.2902966,9.4361041 72.5536224,9.04959539 72.5536224,7.99669307 C72.5536224,7.13810057 73.3739632,6.45893957 74.5738618,6.11785037 L74.7772837,6.06415967 L75.9505042,5.78427475 C75.9914231,5.77094931 76.0323524,5.71766782 76.0323524,5.62433907 C76.0323524,4.11830083 75.3911732,3.85174136 74.9273426,3.85174136 C74.408944,3.85174136 73.7950493,4.03832792 73.7950493,4.45148751 L73.8007234,4.5971243 C73.8042152,4.63614297 73.8090163,4.6662063 73.8142539,4.68902902 L73.8223286,4.71804698 C73.8496183,4.77135888 73.8632579,4.8646167 73.8632579,4.95794545 C73.8632579,5.13120657 73.658626,5.39776605 73.2630049,5.39776605 C72.9492372,5.39776605 72.7855315,5.25116594 72.7855315,4.93129456 C72.7855315,4.21158905 73.9178268,3.45190721 75.0364773,3.45190721 Z M25.3127034,3.45190721 C26.2716912,3.45190721 27.2433318,3.78559313 27.3139897,5.50027572 L27.3180921,5.70431198 L27.3184236,7.81174295 C27.3222151,8.37366961 27.3672042,8.84968339 27.8637751,8.84968339 C28.1911856,8.84968339 28.2321066,8.63643581 28.3139651,8.63643581 C28.3685299,8.63643581 28.4640281,8.74301906 28.4640281,8.83634781 C28.4640281,8.90299528 28.0001954,9.4361041 27.3317338,9.4361041 C26.6603484,9.4361041 26.4241915,9.01090312 26.3283396,8.72606859 L26.3085681,8.66308669 L26.2812888,8.66308669 L26.0084462,8.87633427 C25.4081953,9.32948031 25.1489935,9.4361041 24.5214581,9.4361041 C23.5665123,9.4361041 22.8298381,9.04959539 22.8298381,7.99669307 C22.8298381,7.13810057 23.6501789,6.45893957 24.8500775,6.11785037 L25.0534994,6.06415967 L26.2267199,5.78427475 C26.2676388,5.77094931 26.3085681,5.71766782 26.3085681,5.62433907 C26.3085681,4.11830083 25.6673899,3.85174136 25.2035593,3.85174136 C24.6851597,3.85174136 24.071265,4.03832792 24.071265,4.45148751 C24.071265,4.5687757 24.080001,4.64338358 24.0904789,4.68902902 L24.0985547,4.71804698 C24.1258443,4.77135888 24.1394839,4.8646167 24.1394839,4.95794545 C24.1394839,5.13120657 23.934852,5.39776605 23.539232,5.39776605 C23.2254633,5.39776605 23.0617586,5.25116594 23.0617586,4.93129456 C23.0617586,4.21158905 24.1940529,3.45190721 25.3127034,3.45190721 Z M31.9862514,3.45190721 C32.9452383,3.45190721 33.9168789,3.78559313 33.9875368,5.50027572 L33.9916392,5.70431198 L33.9919706,7.81174295 L33.9973143,8.04617137 C34.0178322,8.49995898 34.11169,8.84968339 34.5373222,8.84968339 C34.8647326,8.84968339 34.9056536,8.63643581 34.9875122,8.63643581 C35.042077,8.63643581 35.1375752,8.74301906 35.1375752,8.83634781 C35.1375752,8.90299528 34.6737424,9.4361041 34.0052809,9.4361041 C33.3338955,9.4361041 33.0977385,9.01090312 33.0018867,8.72606859 L32.9821151,8.66308669 L32.9548358,8.66308669 L32.6819933,8.87633427 C32.0817424,9.32948031 31.8225416,9.4361041 31.1950052,9.4361041 C30.2400594,9.4361041 29.5033851,9.04959539 29.5033851,7.99669307 C29.5033851,7.13810057 30.3237259,6.45893957 31.5236254,6.11785037 L31.7270475,6.06415967 L32.9002669,5.78427475 C32.9411858,5.77094931 32.9821151,5.71766782 32.9821151,5.62433907 C32.9821151,4.11830083 32.340937,3.85174136 31.8771063,3.85174136 C31.3587067,3.85174136 30.7448121,4.03832792 30.7448121,4.45148751 C30.7448121,4.59809775 30.7584621,4.67802 30.7721017,4.71804698 C30.7993914,4.77135888 30.813031,4.8646167 30.813031,4.95794545 C30.813031,5.13120657 30.6083991,5.39776605 30.2127791,5.39776605 C29.8990103,5.39776605 29.7353056,5.25116594 29.7353056,4.93129456 C29.7353056,4.21158905 30.8675999,3.45190721 31.9862514,3.45190721 Z M41.8522631,1.51937381 L41.8522631,3.58519201 L43.352894,3.58519201 C43.4040496,3.58519201 43.4398613,3.60018313 43.4545699,3.63016537 L43.4620308,3.66514466 L43.4620308,3.93170413 C43.4620308,4.03452644 43.3217122,4.08837582 43.1957116,4.10166295 L43.1346204,4.10496526 L41.85226,4.10495512 L41.85226,7.47689956 C41.85226,8.30322886 41.9341134,8.70306301 42.30245,8.70306301 C42.6571438,8.70306301 42.9299864,8.59643922 43.2846802,8.32987974 C43.4211015,8.34321532 43.5029487,8.42317809 43.5302383,8.55645277 C42.998197,9.14288361 42.4525119,9.43609397 41.8249766,9.43609397 C41.2366612,9.43609397 40.8761581,9.10810086 40.8333934,8.28740059 L40.8291036,8.1166423 L40.8291036,4.10495512 L39.9423674,4.10495512 C39.9150812,4.10495512 39.8999237,4.09905522 39.8928505,4.08326211 L39.8877984,4.05165336 L39.8877984,3.63849377 C39.8877984,3.59846679 39.9014484,3.58519201 39.9287277,3.58519201 C40.7919685,3.58519201 41.0346219,3.10966307 41.0589191,2.20353333 L41.061022,1.78593329 L41.8522631,1.51937381 Z M11.3527819,3.45190721 C12.3117687,3.45190721 13.2834093,3.78559313 13.3540672,5.50027572 L13.3581696,5.70431198 L13.3585011,7.81174295 L13.3638448,8.04617137 C13.3843626,8.49995898 13.4782204,8.84968339 13.9038526,8.84968339 C14.231263,8.84968339 14.2721944,8.63643581 14.3540426,8.63643581 C14.4086074,8.63643581 14.5041056,8.74301906 14.5041056,8.83634781 C14.5041056,8.90299528 14.0402728,9.4361041 13.3718113,9.4361041 C12.7520709,9.4361041 12.5031685,9.07380268 12.3931584,8.79403392 L12.3486455,8.66308669 L12.3213663,8.66308669 L12.0485237,8.87633427 C11.4482728,9.32948031 11.189072,9.4361041 10.5615356,9.4361041 C9.60658979,9.4361041 8.86991554,9.04959539 8.86991554,7.99669307 C8.86991554,7.13810057 9.69025634,6.45893957 10.8901558,6.11785037 L11.0935779,6.06415967 L12.2667973,5.78427475 C12.3077163,5.77094931 12.3486455,5.71766782 12.3486455,5.62433907 C12.3486455,4.11830083 11.7074674,3.85174136 11.2436368,3.85174136 C10.7252372,3.85174136 10.1113425,4.03832792 10.1113425,4.45148751 L10.1170202,4.5971243 C10.120514,4.63614297 10.1253174,4.6662063 10.1305564,4.68902902 L10.1386321,4.71804698 C10.1659218,4.77135888 10.1795614,4.8646167 10.1795614,4.95794545 C10.1795614,5.13120657 9.97492951,5.39776605 9.57930948,5.39776605 C9.26554076,5.39776605 9.10183606,5.25116594 9.10183606,4.93129456 C9.10183606,4.21158905 10.2341303,3.45190721 11.3527819,3.45190721 Z M89.3694247,3.45190721 C90.3284126,3.45190721 91.3000522,3.78559313 91.3707101,5.50027572 L91.3748125,5.70431198 L91.3751439,7.81174295 C91.3789355,8.37366961 91.4239246,8.84968339 91.9204965,8.84968339 C92.2479059,8.84968339 92.2888373,8.63643581 92.3706855,8.63643581 C92.4252502,8.63643581 92.5207485,8.74301906 92.5207485,8.83634781 C92.5207485,8.90299528 92.0569167,9.4361041 91.3884542,9.4361041 C90.7170687,9.4361041 90.4809037,9.01090312 90.3850591,8.72606859 L90.3652894,8.66308669 L90.3380102,8.66308669 L90.0651676,8.87633427 C89.4649167,9.32948031 89.2057159,9.4361041 88.5781795,9.4361041 C87.6232337,9.4361041 86.8865605,9.04959539 86.8865605,7.99669307 C86.8865605,7.13810057 87.7069013,6.45893957 88.9067999,6.11785037 L89.1102218,6.06415967 L90.2834412,5.78427475 C90.3243602,5.77094931 90.3652894,5.71766782 90.3652894,5.62433907 C90.3652894,4.11830083 89.7241103,3.85174136 89.2602796,3.85174136 C88.74188,3.85174136 88.1279853,4.03832792 88.1279853,4.45148751 C88.1279853,4.5687757 88.1367214,4.64338358 88.1471992,4.68902902 L88.155275,4.71804698 C88.1825646,4.77135888 88.1962043,4.8646167 88.1962043,4.95794545 C88.1962043,5.13120657 87.9915724,5.39776605 87.5959523,5.39776605 C87.2821847,5.39776605 87.1184789,5.25116594 87.1184789,4.93129456 C87.1184789,4.21158905 88.2507742,3.45190721 89.3694247,3.45190721 Z M62.7498417,3.45190721 C64.7688701,3.45190721 65.5464716,5.06456924 65.5464716,6.45066837 C65.5464716,7.78344549 64.6597333,9.4361041 62.7225572,9.4361041 C60.894519,9.4361041 59.9259284,7.93005573 59.9259284,6.57061761 C59.9259284,4.744708 60.9354452,3.45190721 62.7498417,3.45190721 Z M51.5974193,3.45190721 C53.3981741,3.45190721 53.8210806,4.65140965 53.8210806,5.77094931 C53.8210806,5.89313296 53.7547646,5.96901957 53.6458172,5.99092112 L53.5755225,5.99752233 L49.9876516,5.99752233 C49.9876516,7.98336763 51.1608731,8.78303592 51.9248297,8.78303592 C52.6751436,8.78303592 53.152618,8.54313746 53.6300915,8.03667952 C53.7801544,8.05000496 53.8620037,8.11665243 53.902933,8.2499271 C53.3845344,8.9429716 52.5796485,9.4361041 51.5974193,9.4361041 C49.7284539,9.4361041 48.8962845,8.18328977 48.8962845,6.65058038 C48.8962845,4.62475877 50.3014213,3.45190721 51.5974193,3.45190721 Z M57.023568,1.51937381 L57.023568,3.58519201 L58.5241979,3.58519201 C58.5753535,3.58519201 58.6111651,3.60018313 58.6258737,3.63016537 L58.6333347,3.66514466 L58.6333347,3.93170413 C58.6333347,4.03452644 58.4930161,4.08837582 58.3670155,4.10166295 L58.3059242,4.10496526 L57.0235659,4.10495512 L57.0235659,7.47689956 L57.0291739,7.80500647 C57.0527989,8.40930731 57.1580378,8.70306301 57.4737549,8.70306301 C57.8284488,8.70306301 58.1012913,8.59643922 58.4559852,8.32987974 C58.5924064,8.34321532 58.6742536,8.42317809 58.7015432,8.55645277 C58.1695019,9.14288361 57.6238168,9.43609397 56.9962815,9.43609397 C56.4079671,9.43609397 56.0474632,9.10810086 56.0046983,8.28740059 L56.0004085,8.1166423 L56.0004085,4.10495512 L55.1136723,4.10495512 C55.0863861,4.10495512 55.0712286,4.09905522 55.0641555,4.08326211 L55.0591034,4.05165336 L55.0591034,3.63849377 C55.0591034,3.59846679 55.072743,3.58519201 55.1000326,3.58519201 C55.9632734,3.58519201 56.2059259,3.10966307 56.230223,2.20353333 L56.2323259,2.03916732 L56.2323259,1.78593329 L57.023568,1.51937381 Z M46.6645172,3.41188022 C46.6917964,3.41188022 46.7190861,3.42525633 46.7190861,3.45190721 L46.6925804,4.18307808 C46.6873422,4.36305509 46.6826856,4.55857685 46.6801633,4.74790723 L46.6781744,5.02454225 L46.6781744,8.34317478 C46.6781744,8.69453712 46.8021943,8.84761115 47.1424778,8.90261184 L47.251143,8.91627006 L47.5103427,8.94292094 C47.5614999,8.95289222 47.6049843,8.97037616 47.6235291,9.00662465 L47.6331213,9.04954473 L47.6331213,9.30277876 L47.6058316,9.32942964 L46.7267356,9.30830755 C46.5412031,9.30490273 46.3534878,9.30277876 46.1461279,9.30277876 L45.5917132,9.30833674 L45.5917132,9.30833674 L44.7273504,9.32942964 L44.7000608,9.30277876 L44.7000608,9.04954473 C44.7000608,8.99959713 44.7230829,8.97206211 44.7633695,8.95581602 L44.8091976,8.94292094 L45.0683974,8.91627006 C45.4900616,8.8678047 45.6298655,8.75324602 45.6517995,8.44243562 L45.6550076,8.34317478 L45.6550076,5.02454225 C45.6550076,4.40940967 45.5620153,4.24852366 45.3974907,4.20645017 L45.3548817,4.19821294 L44.7682714,4.14491118 L44.7409818,3.82503981 L45.2312973,3.74739874 C45.9116081,3.63394044 46.3519894,3.53183406 46.6645172,3.41188022 Z M106.576294,3.41188022 C106.59448,3.41188022 106.612666,3.41782516 106.622769,3.42968501 L106.630852,3.45190721 L106.589881,4.65140965 L106.630852,4.65140965 C106.985545,4.13162627 107.585793,3.45190721 108.22697,3.45190721 C108.786299,3.45190721 108.990935,3.71845655 108.990935,4.06498894 C108.990935,4.41151119 108.759019,4.62474863 108.404316,4.62474863 C108.131482,4.62474863 107.981415,4.51813498 107.844998,4.38485017 C107.763139,4.30492793 107.667683,4.26490094 107.572153,4.26490094 C107.422086,4.26490094 107.121962,4.5047994 106.794549,4.95794545 C106.718192,5.05391294 106.65924,5.18399356 106.638714,5.3208968 L106.630852,5.42442706 L106.630852,8.34322545 C106.630852,8.69458779 106.754866,8.85871645 107.105402,8.9056774 L107.21746,8.91632072 L107.613082,8.9429716 C107.664247,8.9429716 107.707727,8.96544119 107.726269,9.0048057 L107.73586,9.04959539 L107.73586,9.30282943 L107.708581,9.32948031 L106.908816,9.31113883 C106.634267,9.30614812 106.358013,9.30282943 106.098813,9.30282943 C105.730481,9.30282943 105.40051,9.31035349 105.045604,9.31971582 L104.680042,9.32948031 L104.666454,9.30282943 L104.666454,9.04959539 C104.666454,8.99964779 104.681799,8.97211277 104.718264,8.95586669 L104.761983,8.9429716 L105.021188,8.91632072 C105.430443,8.8799694 105.580398,8.75549924 105.604281,8.44278663 L105.607703,8.34317478 L105.607703,5.02454225 C105.607703,4.40940967 105.51471,4.24852366 105.350187,4.20645017 L105.307579,4.19821294 L104.720961,4.14491118 L104.693681,3.82503981 L105.175447,3.74739874 C105.841643,3.63394044 106.263763,3.53183406 106.576294,3.41188022 Z M95.1562159,-1.77635684e-15 C95.2790037,-1.77635684e-15 95.3335623,0.0399560544 95.3335623,0.133284804 L95.3130769,0.508128684 C95.3057607,0.680676308 95.2984445,0.908473663 95.294861,1.18241443 L95.2925915,1.53270938 L95.2925915,6.14413258 C95.6219491,6.06988143 96.2453781,5.54744098 96.9225825,4.84359535 L97.1365066,4.61954294 C97.3186532,4.42204898 97.6347223,3.98085333 96.9023592,3.9450397 C96.8512339,3.9450397 96.8154065,3.91505176 96.8006882,3.87757111 L96.7932214,3.83842605 L96.7932214,3.58519201 L96.8235701,3.57135052 C96.8296398,3.56740224 96.8341921,3.56296606 96.8341921,3.55854113 L97.6153283,3.58125499 C97.7391173,3.58371704 97.8755379,3.58519201 98.0483377,3.58519201 L98.462146,3.58123247 L98.462146,3.58123247 L99.235204,3.55854113 L99.2897626,3.58519201 L99.2897626,3.83842605 C99.2897626,3.89177645 99.2374063,3.91950309 99.1815198,3.93525642 L99.1397058,3.9450397 L99.0441765,3.95841581 C98.7218856,4.00506372 98.2220266,4.18436468 97.8736186,4.46060388 L97.7345327,4.58482298 L96.6977335,5.70436264 C96.6567628,5.74430856 96.643175,5.78433555 96.643175,5.83763731 C96.643175,5.88206221 96.6552991,5.9264916 96.6755213,5.96696821 L96.711425,6.02422388 L98.3075427,8.32994054 C98.5224124,8.64481614 98.8834978,8.82703869 99.1988908,8.90338241 L99.3307023,8.92969683 L99.4262316,8.9429716 C99.5026302,8.95360764 99.5353686,8.97279141 99.545408,9.01417854 L99.5490091,9.04959539 L99.5490091,9.30282943 L99.5217298,9.32948031 L98.9470602,9.31113883 C98.854124,9.30864348 98.7607612,9.30656613 98.6642004,9.30511262 L98.3621531,9.30282943 C98.089312,9.30282943 97.8952914,9.30877437 97.7154172,9.31667092 L97.4481314,9.32948031 L97.4071607,9.30282943 L97.4071607,9.04959539 C97.4071607,8.89558551 97.3748215,8.75210436 97.1760075,8.4506636 L97.0933868,8.32988988 L96.0975169,6.95712631 C95.8549883,6.61359004 95.6771381,6.50167811 95.4010775,6.48104998 L95.292633,6.47731926 L95.292633,8.34322545 C95.292633,8.76523995 95.4726365,8.87266119 95.7378997,8.91985076 L95.9065308,8.9429716 C95.9474653,8.9429716 95.9883881,8.96544119 96.0062911,9.0048057 L96.0156687,9.04959539 L96.0156687,9.30282943 L95.9883894,9.32948031 L95.1555453,9.30577314 L95.1555453,9.30577314 L94.4473028,9.30466318 L94.4473028,9.30466318 L93.3554663,9.32948031 L93.328187,9.30282943 L93.328187,9.04959539 C93.328187,8.99964779 93.3435374,8.97211277 93.3799881,8.95586669 L93.4236852,8.9429716 L93.682885,8.91632072 C94.0921477,8.8799694 94.2420983,8.75549924 94.2659797,8.44278663 L94.2694952,8.34322545 L94.2694776,1.79928913 C94.2694776,0.990737207 94.1506395,0.785904054 93.9129642,0.762186531 L93.4236676,0.733071491 C93.3929784,0.733071491 93.3622834,0.718080371 93.3488539,0.693698425 L93.3418194,0.666393622 L93.3145297,0.346522252 C93.8602128,0.30654593 94.8151627,0.133284804 95.1562159,-1.77635684e-15 Z M102.516588,3.41188022 C102.543867,3.41188022 102.571146,3.42525633 102.571146,3.45190721 L102.540827,4.32063585 C102.537186,4.46042901 102.534091,4.60590945 102.532197,4.74790723 L102.530207,8.34317478 C102.530207,8.69453712 102.654229,8.84761115 102.994511,8.90261184 L103.103175,8.91627006 L103.36238,8.94292094 C103.413544,8.95289222 103.457025,8.97037616 103.475567,9.00662465 L103.485158,9.04954473 L103.485158,9.30277876 L103.457878,9.32942964 L102.578785,9.30830755 C102.393253,9.30490273 102.205538,9.30277876 101.998178,9.30277876 L101.443761,9.30833674 L101.443761,9.30833674 L100.579396,9.32942964 L100.552117,9.30277876 L100.552117,9.04954473 C100.552117,8.99959713 100.575116,8.97206211 100.615409,8.95581602 L100.661255,8.94292094 L100.920449,8.91627006 C101.342113,8.8678047 101.481916,8.75324602 101.503849,8.44243562 L101.507057,8.34317478 L101.507057,5.02454225 C101.507057,4.40940967 101.414064,4.24852366 101.249542,4.20645017 L101.206934,4.19821294 L100.620325,4.14491118 L100.593046,3.82503981 L101.083363,3.74739874 C101.763675,3.63394044 102.204057,3.53183406 102.516588,3.41188022 Z M80.9460625,3.41188022 C80.9642556,3.41188022 80.9824441,3.41782516 80.9925483,3.42968501 L81.0006055,3.45185654 L80.9596762,4.63803354 L81.0006055,4.63803354 C81.873699,3.63844311 82.5285209,3.45185654 83.2242669,3.45185654 C84.3986721,3.45185654 84.699367,4.29324573 84.7232944,5.40449768 L84.7248978,8.34317478 C84.7248978,8.69453712 84.8489168,8.84761115 85.1892001,8.90261184 L85.2978652,8.91627006 L85.557065,8.94292094 C85.608223,8.95289222 85.6517075,8.97037616 85.6702524,9.00662465 L85.6798446,9.04954473 L85.6798446,9.30277876 L85.6525653,9.32942964 L84.7911489,9.30830755 C84.6075808,9.30490273 84.4165915,9.30277876 84.1928616,9.30277876 L83.7275145,9.3067383 L83.7275145,9.3067383 L82.8422937,9.32942964 L82.8150145,9.30277876 L82.8150145,9.04954473 C82.8150145,8.99959713 82.8380366,8.97206211 82.8783232,8.95581602 L82.9241513,8.94292094 L83.1151404,8.91627006 C83.5120016,8.85569066 83.6720989,8.75104347 83.6979276,8.44213527 L83.7017507,8.34317478 L83.7017507,5.46435272 C83.7017507,4.53140975 83.5380449,4.09158915 82.8150145,4.09158915 C82.2576386,4.09158915 81.7708369,4.28695058 81.1470843,4.95511855 L81.0006159,5.11783046 L81.0006159,8.34317478 C81.0006159,8.69453712 81.1133608,8.82558563 81.4720934,8.89660487 L81.5872261,8.91627006 L81.7782153,8.94292094 C81.8293709,8.95289222 81.8651826,8.97037616 81.8798912,9.00662465 L81.8873521,9.04954473 L81.8873521,9.30277876 L81.8600728,9.32942964 L80.9566621,9.30671578 C80.8111464,9.30425374 80.6550203,9.30277876 80.4685787,9.30277876 L79.8964839,9.30833674 L79.8964839,9.30833674 L79.0498012,9.32942964 L79.022522,9.30277876 L79.022522,9.04954473 C79.022522,8.99959713 79.0455441,8.97206211 79.0858307,8.95581602 L79.1316588,8.94292094 L79.3908586,8.91627006 C79.8001213,8.87991873 79.9500718,8.75544858 79.9739532,8.44273597 L79.9774688,8.34317478 L79.9774688,5.02454225 C79.9774688,4.40940967 79.8844765,4.24852366 79.7199518,4.20645017 L79.6773428,4.19821294 L79.0907326,4.14491118 L79.0634533,3.82503981 L79.5452209,3.74739874 C80.2114183,3.63394044 80.6335348,3.53183406 80.9460625,3.41188022 Z M62.5997787,3.89171768 C61.5084127,3.89171768 61.0855061,5.10455569 61.0855061,6.26408181 C61.0855061,7.29032312 61.6039067,8.9962835 62.9544736,8.9962835 C63.5683673,8.9962835 64.3868928,8.63643581 64.3868928,6.87716354 C64.3868928,4.91796912 63.7184292,3.89171768 62.5997787,3.89171768 Z M18.5856537,4.06498894 C18.1575023,4.06498894 17.5666128,4.39431316 17.242183,5.00056549 L17.1668751,5.15786759 L17.1668751,8.40986279 C17.6443485,8.95630718 18.0808958,8.98295806 18.2991694,8.98295806 C19.758872,8.98295806 20.1272097,7.62351993 20.1272097,6.53063115 C20.1272097,5.02459291 19.4178199,4.06498894 18.5856537,4.06498894 Z M117.844553,6.19743434 L116.766825,6.47731926 C115.757305,6.74387873 115.443542,7.34363502 115.443542,7.94338117 C115.443542,8.35655089 115.770955,8.88965971 116.453051,8.88965971 C116.835034,8.88965971 117.298864,8.59644935 117.653557,8.31656444 C117.740884,8.25259422 117.810725,8.18008923 117.835169,8.06493635 L117.844553,7.97004219 L117.844553,6.19743434 Z M32.9821234,6.19743434 L31.9043981,6.47731926 C30.8948844,6.74387873 30.5811157,7.34363502 30.5811157,7.94338117 C30.5811157,8.35655089 30.9085261,8.88965971 31.5906304,8.88965971 C31.9726087,8.88965971 32.4364404,8.59644935 32.7911343,8.31656444 C32.878447,8.25259422 32.9482924,8.18008923 32.9727381,8.06493635 L32.9821234,7.97004219 L32.9821234,6.19743434 Z M26.3085764,6.19743434 L25.230851,6.47731926 C24.2213373,6.74387873 23.9075686,7.34363502 23.9075686,7.94338117 C23.9075686,8.35655089 24.234979,8.88965971 24.9170833,8.88965971 C25.2990616,8.88965971 25.7628933,8.59644935 26.1175872,8.31656444 C26.2049,8.25259422 26.2747454,8.18008923 26.299191,8.06493635 L26.3085764,7.97004219 L26.3085764,6.19743434 Z M90.3652977,6.19743434 L89.2875713,6.47731926 C88.2780577,6.74387873 87.9642889,7.34363502 87.9642889,7.94338117 C87.9642889,8.35655089 88.2916994,8.88965971 88.9738037,8.88965971 C89.355782,8.88965971 89.8196137,8.59644935 90.1743075,8.31656444 C90.2616211,8.25259422 90.3314667,8.18008923 90.3559124,8.06493635 L90.3652977,7.97004219 L90.3652977,6.19743434 Z M12.3486538,6.19743434 L11.2709285,6.47731926 C10.2614148,6.74387873 9.94764608,7.34363502 9.94764608,7.94338117 C9.94764608,8.35655089 10.2750565,8.88965971 10.9571608,8.88965971 C11.3391391,8.88965971 11.8029708,8.59644935 12.1576647,8.31656444 C12.2449774,8.25259422 12.3148229,8.18008923 12.3392685,8.06493635 L12.3486538,7.97004219 L12.3486538,6.19743434 Z M76.0323503,6.19743434 L74.954625,6.47731926 C73.9451113,6.74387873 73.6313415,7.34363502 73.6313415,7.94338117 C73.6313415,8.35655089 73.958753,8.88965971 74.6408573,8.88965971 C75.0228346,8.88965971 75.4866673,8.59644935 75.8413612,8.31656444 C75.9286739,8.25259422 75.9985193,8.18008923 76.022965,8.06493635 L76.0323503,7.97004219 L76.0323503,6.19743434 Z M51.5974193,3.90505325 L51.500744,3.90746749 C51.1322833,3.92657118 50.333715,4.08632437 50.0648196,5.28934805 L50.0285777,5.47773896 L52.5387234,5.47773896 C52.6751436,5.47773896 52.7297125,5.41109149 52.7297125,5.29114226 C52.7297125,4.17161273 52.0885344,3.90505325 51.5974193,3.90505325 Z M46.0915497,1.06621764 C46.4462435,1.06621764 46.7463695,1.35942799 46.7463695,1.70596038 C46.7463695,2.05248263 46.4462435,2.34569298 46.0915497,2.34569298 C45.7368548,2.34569298 45.4367288,2.05248263 45.4367288,1.70596038 C45.4367288,1.35942799 45.7368548,1.06621764 46.0915497,1.06621764 Z M101.943609,1.06621764 C102.298302,1.06621764 102.598426,1.35942799 102.598426,1.70596038 C102.598426,2.05248263 102.298302,2.34569298 101.943609,2.34569298 C101.588916,2.34569298 101.288792,2.05248263 101.288792,1.70596038 C101.288792,1.35942799 101.588916,1.06621764 101.943609,1.06621764 Z M111.657852,1.06621764 C112.012545,1.06621764 112.312679,1.35942799 112.312679,1.70596038 C112.312679,2.05248263 112.012545,2.34569298 111.657852,2.34569298 C111.303159,2.34569298 111.003036,2.05248263 111.003036,1.70596038 C111.003036,1.35942799 111.303159,1.06621764 111.657852,1.06621764 Z" id="wikipedia-tagline-fi" fill="#000000" fill-rule="nonzero"></path>
    </g>
</svg>