<svg xmlns="http://www.w3.org/2000/svg" width="120" height="31"><defs><clipPath id="a"><path fill="#fff" d="M0 0h120v30.83H0z"/></clipPath></defs><g clip-path="url(#a)"><path fill="#fff" d="M0 0h120v30.83H0z"/><path fill="#0A4E98" d="M5.142 22.277c-1.918 0-3.24-.504-3.959-1.512-.756-.78-1.15-2.145-1.174-4.088-.024-.135 0-.571.074-1.315.11-.35.24-.713.393-1.1.314-.849.547-1.384.707-1.599.179-.363.357-.565.541-.614.178 0 .265.258.265.774 0 .074-.006.184-.031.344v.357c-.05.289-.13.615-.234.971 0 .228-.012.424-.037.578v.362c0 .923.271 1.605.812 2.054.62.516 1.506.774 2.643.774l14.876.086 1.186-.59c-.227-.793-.934-1.69-2.12-2.686-.781-.781-1.98-1.709-3.584-2.79-.363-.24-1.04-.683-2.035-1.335a15.9 15.9 0 0 1-1.481-.934c0-.363.037-.67.104-.928a23.1 23.1 0 0 1 .418-1.396c.387-1.07.824-1.991 1.316-2.772.227-.098.56-.246.99-.443.436-.196.774-.356 1.026-.48a44.476 44.476 0 0 0 1.986-.774 19.15 19.15 0 0 1 2.194-.72c.59-.14 1.45-.33 2.594-.577 1.61-.38 3.35-.571 5.225-.571l-1.174 4.032c-1.942 0-3.811.197-5.6.596-.393.093-1.334.35-2.81.775-.602.24-1.518.627-2.753 1.168.596.289 1.45.78 2.557 1.475.597.363 1.303.965 2.109 1.82.62.528 1.125 1.05 1.512 1.567.264.387.651.99 1.168 1.82.086.178.227.43.43.756.424.854.725 1.561.904 2.127.073.215.166.375.289.473.116.105.344.19.682.264.098.025.313.056.651.086.13.025.443.037.935.037h3.743v3.928h-4.788c-1.02 0-1.648-.104-1.875-.307-.467-.215-.83-.916-1.082-2.109-.332 1.12-.879 1.808-1.635 2.072-.314.227-.984.344-2.016.344H5.142Zm23.845-4.014h3.22c.468 0 .861-.246 1.175-.738.264-.436.393-.91.393-1.426v-.393c0-.086-.018-.209-.055-.362l2.612-3.295c0 1.561-.123 2.833-.374 3.817-.16 1.143-.523 1.936-1.1 2.397h4.013c.412 0 .793-.209 1.156-.615.153-.288.276-.78.356-1.475 0-.289-.024-.467-.067-.54a1.97 1.97 0 0 0-.056-.363l2.717-3.025c.086.96.13 1.377.13 1.242 0 .78-.13 1.715-.382 2.79-.153.376-.43 1.033-.83 1.986h4.199c.707 0 1.063-.528 1.063-1.586 0-.676-.153-1.364-.467-2.071l2.447-2.957a21.6 21.6 0 0 1 .27 2.416c0 .289-.043.7-.123 1.242a6.541 6.541 0 0 0-.073 1.007c0 .69.184 1.168.559 1.445.277.332.818.504 1.617.504h1.1v4.014H49.91c-.289 0-.584-.129-.891-.387-.307-.258-.461-.51-.461-.75-.24.473-.486.75-.738.83-.215.203-.411.307-.59.307h-5.963c-.313 0-.528-.117-.651-.344-.178-.08-.283-.283-.32-.59-.16.38-.387.615-.688.7-.215.154-.4.234-.553.234h-5.047c-.154 0-.363-.117-.627-.344-.11-.055-.21-.258-.308-.59-.135.264-.405.54-.83.824-.356.073-.602.11-.737.11h-2.52v-4.014ZM56.027 0c0 .553-.313 1.1-.934 1.641a446.743 446.743 0 0 0-5.225 2.09c0-.528.264-1.032.793-1.512A507.38 507.38 0 0 1 56.028 0Zm.72 6.522L55.29 7.924c-.098.098-.246.16-.449.196-.184 0-.313-.061-.4-.196l-1.585-1.402c-.24-.16-.357-.326-.357-.51 0-.105.043-.221.123-.338l1.752-1.568c0-.049.056-.129.178-.233.013 0 .062-.013.154-.037.086-.024.16-.05.203-.074.025.05.08.074.166.074.024 0 .049.012.067.037h.111l1.728 1.801c.122.092.196.197.215.307 0 .105-.148.29-.45.541Zm1.119 11.741c-.228-1.082-.541-2.022-.935-2.828-.313-.577-.842-1.278-1.586-2.108l2.717-3.78a31.754 31.754 0 0 1 1.353 3.67c.344 1.26.522 2.403.522 3.423v1.55c0 1.143-.018 1.899-.055 2.268a9.614 9.614 0 0 1-.449 1.82H47.274v-4.015h10.592Z"/><path fill="#0B2645" d="M85.177 22.277c.043.179.11.504.197.972.049.24.074.578.074 1.008 0 1.223-.314 2.163-.941 2.809-.744.59-1.648 1.106-2.717 1.549-1.248.54-2.705.984-4.358 1.334a25.652 25.652 0 0 1-5.17.54c-2.164 0-3.953-.399-5.366-1.204-1.488-.867-2.349-2.047-2.576-3.553v-1.205c0-1.45.21-2.864.633-4.23.332-1.093.965-2.366 1.887-3.816 0 0 .148-.148.43-.437.16-.117.302-.178.437-.178.178 0 .27.074.27.215 0 .16-.092.406-.27.738-.24.48-.553 1.407-.94 2.772-.179.916-.277 1.697-.302 2.342-.024.492.031.959.16 1.39.326 1.85 1.77 2.987 4.34 3.423.443.055 1.383.086 2.81.086a29.37 29.37 0 0 0 5.058-.43c2.262-.418 3.8-1.045 4.629-1.875-.264-.645-1.26-1.254-2.988-1.82-1.383-.442-2.704-.663-3.983-.663.264-1.144.523-1.924.775-2.342.424-.96.996-1.439 1.715-1.439h7.29v4.014h-1.094Zm4.61 0h-8.39V18.35h9.294l1.242-.59c-.338-.83-1.052-1.727-2.146-2.686-1.235-1.107-2.434-2.035-3.602-2.79-.369-.24-1.05-.683-2.035-1.335a16.42 16.42 0 0 1-1.549-.934c0-.123.05-.424.148-.922.055-.265.215-.732.467-1.402a11.617 11.617 0 0 1 1.26-2.772c.43-.203 1.094-.51 1.98-.922.43-.13 1.106-.387 2.016-.775a12.327 12.327 0 0 1 2.25-.72 77.111 77.111 0 0 1 2.545-.577c1.58-.38 3.331-.571 5.237-.571l-1.15 4.032c-1.985 0-3.854.197-5.618.596-.64.154-1.592.412-2.865.775-.602.24-1.506.627-2.723 1.168.59.289 1.457.78 2.595 1.475.553.412 1.253 1.014 2.108 1.82.959.891 1.832 2.016 2.612 3.387.074.19.228.442.468.756.227.48.534 1.186.916 2.127a.732.732 0 0 0 .325.485c.178.117.387.203.615.252.104.025.313.056.627.086.16.025.516.037 1.082.037h3.657v3.928h-4.825c-.953 0-1.58-.104-1.893-.307-.468-.289-.806-.99-1.009-2.109-.375 1.12-.928 1.808-1.678 2.072-.307.227-.965.344-1.96.344Zm15.017-4.014c-.227-1.082-.54-2.022-.934-2.828-.313-.577-.842-1.278-1.586-2.108l2.717-3.78a31.82 31.82 0 0 1 1.353 3.67c.344 1.26.522 2.403.522 3.423 0 1.5-.031 2.656-.08 3.461a8.248 8.248 0 0 1-.424 2.176H94.213v-4.014h10.592-.001Zm-5.6 10.247c-.048.043-.202.093-.467.142a.622.622 0 0 1-.38-.142l-1.605-1.53a.678.678 0 0 1-.27-.541.961.961 0 0 1 .11-.27l1.838-1.746c.025-.025.11-.08.27-.166a.51.51 0 0 1 .185.049c.08.024.135.05.166.061.03.012.117.086.258.215l1.101 1.082a.77.77 0 0 1 .098.154c.043.074.098.117.172.117l.363-.27 1.241-1.242a.547.547 0 0 1 .375-.166c.24 0 .43.092.56.27l1.585 1.641c.13.05.197.166.197.357 0 .184-.104.283-.307.307l-1.635 1.642-.129.036a.682.682 0 0 1-.338.068c-.136 0-.24-.03-.308-.104l-1.211-1.205c-.153-.16-.276-.24-.356-.24-.074 0-.172.037-.307.11l-1.205 1.371Zm7.02.683c1.304 0 2.761-.35 4.359-1.045 3.08-1.322 5.249-3.252 6.497-5.797.627-1.273.947-2.514.971-3.731a2.77 2.77 0 0 0-.178-1.131c-.215 1.223-.731 2.151-1.549 2.79-.817.634-1.715.953-2.698.953-.474 0-.892-.123-1.273-.369-.375-.245-.719-.602-1.014-1.07-.135-.208-.357-.7-.67-1.48a12.39 12.39 0 0 1-.123-1.832v-.382c0-.958.264-1.985.793-3.08.356-.73.928-1.604 1.709-2.612.491-.645 1.032-1.112 1.623-1.401a3.455 3.455 0 0 1 1.598-.381c.516 0 1.002.233 1.463.694a7.206 7.206 0 0 1 1.186 1.63c.228.442.51 1.302.848 2.575.154 1.432.234 2.416.234 2.957 0 3.657-.793 7.1-2.379 10.314-.695 1.445-1.432 2.478-2.213 3.098-.78.628-1.567.941-2.36.941-.627 0-1.697-.105-3.209-.307a27.54 27.54 0 0 1-3.725-.738c-.695-.184-1.045-.35-1.045-.504 0-.061.387-.092 1.155-.092Zm8.951-16.837c-.099-.074-.246-.11-.455-.11-.418 0-.941.374-1.568 1.118-.442.756-.664 1.445-.664 2.072 0 .356.209.67.621.928.412.258.947.387 1.592.387.474 0 .885-.08 1.248-.24.547-.092.984-.27 1.291-.534 0-.701-.191-1.396-.584-2.103-.387-.7-.885-1.205-1.481-1.518Z"/></g></svg>