<svg xmlns="http://www.w3.org/2000/svg" width="114" height="12"><path fill="#000" fill-rule="nonzero" d="M3.29 5.24c-.29 0-.38-.024-.329-.163l1.276-3.208h.025l1.225 3.372H3.29M1.926 7.817l.694-1.831c.064-.164.14-.215.442-.215H5.69l.77 2.134c.177.53-.34.48-.934.518-.076.076-.076.341 0 .417a70.116 70.116 0 0 1 1.654-.025c.518 0 .973.012 1.44.025.076-.076.076-.341 0-.417-.493-.038-.91-.038-1.137-.694L4.893.884c-.1-.24-.164-.379-.34-.379-.19 0-.29.114-.43.455L1.32 7.527c-.341.782-.72.858-1.263.896-.076.076-.076.341 0 .417.467-.013.631-.025 1.124-.025.518 0 1.149.012 1.616.025.076-.076.076-.341 0-.417-.48-.025-1.073-.076-.871-.606m7.91-.543c0 1.048-.14 1.099-.847 1.15-.076.075-.076.34 0 .416.53-.013.82-.025 1.351-.025.442 0 .606.012 1.15.025.075-.076.075-.341 0-.417-.518-.05-.657-.1-.657-1.15V6.138c.29.013.467.101.72.455l.921 1.3c.253.367.29.519.29.683v.202c0 .038.014.063.051.063.253-.013.493-.025.872-.025.391 0 .656.012 1.035.025.076-.076.076-.341 0-.417-.429-.05-.808-.1-1.086-.53L12.16 5.708a.302.302 0 0 1-.063-.177c0-.05.012-.088.05-.126l.96-1.06c.366-.38.758-.531 1.389-.556.076-.076.076-.341 0-.417-.467.012-.644.025-1.099.025-.48 0-.694-.013-1.161-.025-.076.076-.076.34 0 .417.757.037.353.517.227.644-.67.732-1.3 1.288-1.63 1.389v-4.37c0-.82.051-1.326.051-1.326 0-.088-.05-.126-.164-.126-.316.126-1.263.303-1.768.341-.025.101 0 .303.076.379.657.038.808-.025.808 1.035v5.519m6.143-6.024c0 .329.303.657.606.657.354 0 .657-.328.657-.606 0-.303-.265-.657-.606-.657-.304 0-.657.303-.657.606m1.149 6.024V4.76c0-.632.05-1.44.05-1.44 0-.05-.063-.088-.164-.088-.366.139-.858.252-1.73.366-.025.076 0 .278.026.354.681.075.82.139.82.858v2.463c0 1.048-.139 1.086-.909 1.15-.076.075-.076.34 0 .416.53-.013.859-.025 1.415-.025.543 0 .858.012 1.401.025.076-.076.076-.341 0-.417-.77-.05-.909-.1-.909-1.15m2.28-6.023c0 .329.302.657.605.657.354 0 .657-.328.657-.606 0-.303-.265-.657-.606-.657-.303 0-.657.303-.657.606m1.15 6.024V4.76c0-.632.05-1.44.05-1.44 0-.05-.063-.088-.164-.088-.366.139-.859.252-1.73.366-.026.076 0 .278.025.354.682.075.82.139.82.858v2.463c0 1.048-.138 1.086-.908 1.15-.076.075-.076.34 0 .416.53-.013.858-.025 1.414-.025.543 0 .859.012 1.402.025.075-.076.075-.341 0-.417-.77-.05-.91-.1-.91-1.15m2.343 0c0 1.05-.14 1.112-.91 1.15-.075.076-.075.341 0 .417.531-.013.86-.025 1.415-.025.543 0 .859.012 1.402.025.075-.076.075-.341 0-.417-.77-.038-.91-.1-.91-1.15v-5.82c0-.822.051-1.327.051-1.327 0-.088-.05-.126-.164-.126-.316.126-1.263.303-1.768.341-.025.101 0 .303.076.379.656.038.808-.025.808 1.035v5.519m-.164 3.51c0 .329.303.657.606.657.353 0 .656-.328.656-.606 0-.303-.265-.657-.606-.657-.303 0-.656.304-.656.607m5.994-4.913v1.68c0 .164-.076.252-.177.328-.328.265-.758.543-1.111.543-.632 0-.91-.505-.91-.896 0-.569.266-1.137 1.2-1.39l.998-.265m0 2.336c.076.266.29.733.972.733.62 0 1.074-.505 1.074-.568 0-.089-.114-.215-.164-.215-.076 0-.127.202-.392.202-.492 0-.505-.493-.505-1.073V5.405c0-1.793-.985-2.134-1.907-2.134-1.035 0-2.084.72-2.084 1.402 0 .303.152.441.442.441.367 0 .556-.252.556-.416a.568.568 0 0 0-.038-.228.873.873 0 0 1-.025-.252c0-.392.568-.53 1.048-.53.43 0 1.023.214 1.023 1.641 0 .089-.038.14-.076.152l-1.086.265c-1.212.303-2.084.972-2.084 1.831 0 .998.708 1.364 1.592 1.364.58 0 .82-.101 1.376-.53l.253-.203h.025M34.5 5.872v1.68c0 .164-.076.252-.177.328-.329.265-.758.543-1.112.543-.631 0-.909-.505-.909-.896 0-.569.265-1.137 1.2-1.39l.998-.265m0 2.336c.075.266.29.733.972.733.619 0 1.073-.505 1.073-.568 0-.089-.113-.215-.164-.215-.076 0-.126.202-.391.202-.493 0-.505-.493-.505-1.073V5.405c0-1.793-.985-2.134-1.907-2.134-1.036 0-2.084.72-2.084 1.402 0 .303.152.441.442.441.366 0 .556-.252.556-.416a.568.568 0 0 0-.038-.228.873.873 0 0 1-.026-.252c0-.392.569-.53 1.049-.53.429 0 1.023.214 1.023 1.641 0 .089-.038.14-.076.152l-1.086.265c-1.213.303-2.084.972-2.084 1.831 0 .998.707 1.364 1.591 1.364.581 0 .821-.101 1.377-.53l.252-.203h.026m6.137-4.04c.253.277.303.467.303.77v2.904c0 .228-.012.29-.176.38-.303.15-.644.163-.834.163-.732 0-1.831-.53-1.831-2.437 0-1.313.53-2.248 1.54-2.248.38 0 .72.164.998.467m.303 6.05c0 1.048-.138 1.098-.909 1.136-.076.076-.076.34 0 .417.53-.013.859-.026 1.415-.026.543 0 .858.013 1.401.026.076-.076.076-.341 0-.417-.77-.038-.909-.088-.909-1.137V3.55c0-.177-.05-.316-.19-.316-.088 0-.164.1-.265.24-.164.227-.214.265-.366.177-.404-.266-.896-.38-1.427-.38-1.54 0-2.677 1.264-2.677 2.93 0 1.175.796 2.74 2.614 2.74.341 0 .745-.062.972-.189.29-.176.341-.202.341.064v1.401m6.718-4.963c.24-1.427 1.123-1.54 1.427-1.54.48 0 1.048.265 1.048 1.326 0 .113-.05.177-.19.177l-2.285.037m3.308 2.387c-.467.48-.833.682-1.566.682-.454 0-.985-.265-1.376-.91-.253-.416-.404-.997-.404-1.73l3.359.026c.151 0 .24-.076.24-.215 0-1.06-.38-2.197-2.134-2.197-1.1 0-2.526 1.048-2.526 2.968 0 .707.177 1.389.593 1.869.43.505 1.023.808 1.933.808.96 0 1.641-.442 2.146-1.099-.038-.126-.113-.19-.265-.202m3.097-3.346c-.037.05-.126.176-.126 0 0-.38.063-.96.063-.96 0-.063-.05-.101-.151-.101-.354.139-.872.252-1.743.366-.025.076 0 .278.025.354.682.063.821.126.821.858v2.463c0 1.035-.126 1.086-.884 1.15-.076.075-.076.34 0 .416.518-.013.846-.025 1.39-.025.492 0 .72.012 1.25.025.075-.076.075-.341 0-.417-.645-.063-.758-.114-.758-1.15v-2.07c0-.265.113-.417.215-.53.48-.468.972-.746 1.464-.746.253 0 .518.165.67.455.126.253.151.594.151.972v1.92c0 1.035-.126 1.086-.783 1.15-.063.075-.063.34 0 .416.53-.013.783-.025 1.288-.025.518 0 .796.012 1.339.025.063-.076.063-.341 0-.417-.707-.063-.846-.114-.846-1.15v-1.88c0-.695-.05-1.301-.341-1.693-.215-.278-.606-.43-1.048-.43-.619 0-1.225.165-1.996 1.024m9.461 3.371c-.05-.113-.151-.164-.265-.176-.43.555-.972.833-1.515.833-.922 0-1.693-.934-1.693-2.412 0-1.389.606-2.223 1.44-2.223.745 0 .846.442.897.884.037.341.214.455.48.455.265 0 .618-.164.618-.556 0-.694-.72-1.2-1.932-1.2-1.25 0-2.589 1.125-2.589 2.918 0 1.629.91 2.753 2.5 2.753.758 0 1.428-.24 2.06-1.276m2.952 3.17c.19-.34.354-.707.518-1.086 1.01-2.425 1.566-3.738 2.235-5.152.177-.366.556-.77 1.023-.808.076-.076.076-.341 0-.417-.316.012-.543.025-.897.025-.442 0-.682-.013-1.149-.025-.076.076-.076.34 0 .417.392.037.796.113.606.568L67.55 7.249c-.088.214-.189.24-.303-.013L66.136 4.61c-.227-.53-.366-.757.404-.82.076-.076.076-.341 0-.417-.467.012-.972.025-1.427.025-.43 0-.77-.013-1.023-.025-.076.076-.076.34 0 .417.556.05.657.151.998.947l1.427 3.32c.114.266.303.834.177 1.188-.14.43-.303.77-.493 1.162-.139.252-.316.366-.631.366-.177 0-.228-.038-.366-.038-.367 0-.556.379-.556.543 0 .265.252.467.593.467.266 0 .77-.1 1.225-.909h.013m8.862-3.17c-.051-.113-.152-.164-.266-.176-.429.555-.972.833-1.515.833-.922 0-1.692-.934-1.692-2.412 0-1.389.606-2.223 1.44-2.223.744 0 .845.442.896.884.038.341.215.455.48.455s.619-.164.619-.556c0-.694-.72-1.2-1.932-1.2-1.25 0-2.59 1.125-2.59 2.918 0 1.629.91 2.753 2.501 2.753.758 0 1.427-.24 2.059-1.276m1.525-.391c0 1.048-.139 1.111-.909 1.15-.076.075-.076.34 0 .416.53-.013.859-.025 1.415-.025.543 0 .858.012 1.401.025.076-.076.076-.341 0-.417-.77-.038-.909-.1-.909-1.15v-5.82c0-.822.05-1.327.05-1.327 0-.088-.05-.126-.164-.126-.315.126-1.262.303-1.768.341-.025.101 0 .303.076.379.657.038.808-.025.808 1.035v5.519m2.648-1.048c0 1.288.872 2.715 2.652 2.715 1.882 0 2.677-1.566 2.677-2.829 0-1.313-.694-2.841-2.652-2.841-1.704 0-2.677 1.351-2.677 2.955m2.539-2.539c1.086 0 1.704.973 1.704 2.83 0 1.666-.77 2.007-1.364 2.007-1.313 0-1.793-1.616-1.793-2.589 0-1.098.392-2.248 1.453-2.248m5.517.897c.391-.404.897-.732 1.275-.732.809 0 1.503.909 1.503 2.336 0 1.035-.366 2.324-1.78 2.324-.228 0-.67-.064-.897-.266-.265-.227-.303-.29-.303-.757v-2.35c0-.264.038-.378.202-.555m-.101-.417c-.05.05-.126.064-.126-.038 0-.454.05-.808.05-.808 0-.05-.063-.088-.164-.088-.354.139-.833.252-1.705.366-.025.076 0 .278.025.354.682.063.821.139.821.858v5.393c0 1.048-.139 1.111-.909 1.149-.076.076-.076.34 0 .417.53-.013.859-.026 1.414-.026.594 0 .985.013 1.528.026.076-.076.076-.341 0-.417-.896-.05-1.035-.101-1.035-1.15V8.84c0-.164.038-.139.177-.089.303.127.694.19 1.098.19.708 0 1.339-.215 1.857-.707.593-.581.934-1.364.934-2.387 0-1.339-.947-2.576-2.235-2.576-.467 0-1.162.315-1.73.896m6.116 1.086c.24-1.427 1.124-1.54 1.427-1.54.48 0 1.049.265 1.049 1.326 0 .113-.051.177-.19.177l-2.286.037m3.309 2.387c-.467.48-.833.682-1.566.682-.455 0-.985-.265-1.376-.91-.253-.416-.404-.997-.404-1.73l3.359.026c.151 0 .24-.076.24-.215 0-1.06-.38-2.197-2.135-2.197-1.098 0-2.525 1.048-2.525 2.968 0 .707.177 1.389.593 1.869.43.505 1.023.808 1.932.808.96 0 1.642-.442 2.147-1.099-.038-.126-.113-.19-.265-.202m5.205-.391c0 .24-.026.34-.203.492-.467.404-.87.606-1.187.606-.682 0-1.389-.745-1.389-2.323 0-.91.177-1.415.366-1.68a1.324 1.324 0 0 1 1.175-.631c.455 0 .77.164 1.023.454.177.202.215.29.215.682v2.4m-.14.934c.051-.05.152-.076.152.013 0 .303.139.745.139.745.101.038.139.025.24 0 .278-.227.758-.417 1.528-.505.076-.076.076-.265 0-.341-.808-.063-.922-.303-.922-.922v-5.72c0-.822.05-1.327.05-1.327 0-.088-.05-.126-.164-.126-.315.126-1.262.303-1.767.341-.026.101 0 .303.075.379.657.038.809-.025.809 1.035v1.617c0 .088-.026.113-.114.113-.05 0-.568-.214-.985-.214-.834 0-1.39.278-1.894.757-.543.543-.872 1.289-.872 2.223 0 1.553.783 2.69 2.147 2.69.493 0 .96-.253 1.579-.758m3.306-6.933c0 .329.304.657.607.657.353 0 .656-.328.656-.606 0-.303-.265-.657-.606-.657-.303 0-.657.303-.657.606m1.15 6.024V4.76c0-.632.05-1.44.05-1.44 0-.05-.063-.088-.164-.088-.366.139-.859.252-1.73.366-.025.076 0 .278.025.354.682.075.821.139.821.858v2.463c0 1.048-.139 1.086-.91 1.15-.075.075-.075.34 0 .416.531-.013.86-.025 1.415-.025.543 0 .859.012 1.402.025.076-.076.076-.341 0-.417-.77-.05-.91-.1-.91-1.15m4.843-1.4v1.679c0 .164-.075.252-.176.328-.329.265-.758.543-1.112.543-.631 0-.909-.505-.909-.896 0-.569.265-1.137 1.2-1.39l.997-.265m0 2.336c.076.266.29.733.973.733.619 0 1.073-.505 1.073-.568 0-.089-.113-.215-.164-.215-.076 0-.126.202-.391.202-.493 0-.506-.493-.506-1.073V5.405c0-1.793-.985-2.134-1.906-2.134-1.036 0-2.084.72-2.084 1.402 0 .303.151.441.442.441.366 0 .556-.252.556-.416a.568.568 0 0 0-.038-.228.873.873 0 0 1-.026-.252c0-.392.569-.53 1.049-.53.429 0 1.022.214 1.022 1.641 0 .089-.037.14-.075.152l-1.086.265c-1.213.303-2.084.972-2.084 1.831 0 .998.707 1.364 1.591 1.364.581 0 .821-.101 1.377-.53l.252-.203h.025"/></svg>