<?xml version="1.0" standalone="no"?>
<!DOCTYPE svg PUBLIC "-//W3C//DTD SVG 20010904//EN"
 "http://www.w3.org/TR/2001/REC-SVG-20010904/DTD/svg10.dtd">
<svg version="1.0" xmlns="http://www.w3.org/2000/svg"
 width="1920.000000pt" height="357.000000pt" viewBox="0 0 1920.000000 357.000000"
 preserveAspectRatio="xMidYMid meet">
<metadata>
Created by potrace 1.15, written by Peter Selinger 2001-2017
</metadata>
<g transform="translate(0.000000,357.000000) scale(0.100000,-0.100000)"
fill="#000000" stroke="none">
<path d="M1385 2993 c-18 -17 -20 -114 -5 -144 8 -15 22 -19 60 -19 28 0 50
-4 50 -10 0 -5 12 -10 26 -10 46 0 115 -92 166 -220 6 -14 14 -33 19 -42 5
-10 9 -25 9 -33 0 -8 5 -15 10 -15 6 0 10 -10 10 -23 0 -13 4 -27 9 -33 5 -5
16 -29 24 -54 16 -48 82 -222 97 -255 4 -11 25 -65 45 -120 20 -55 45 -119 56
-142 10 -24 19 -46 19 -51 0 -5 9 -27 20 -50 11 -22 20 -48 20 -56 0 -8 5 -18
10 -21 6 -3 10 -13 10 -21 0 -8 9 -33 19 -57 11 -23 29 -70 40 -103 12 -34 46
-124 76 -200 30 -76 55 -144 55 -151 0 -7 5 -13 10 -13 6 0 10 -6 10 -12 0
-12 47 -143 70 -193 5 -11 18 -47 30 -80 11 -33 25 -69 29 -80 5 -11 21 -52
36 -91 38 -99 61 -124 116 -124 48 0 99 33 99 64 0 9 5 16 10 16 6 0 10 9 10
19 0 11 5 23 10 26 6 3 10 17 10 31 0 13 5 24 10 24 6 0 10 11 10 25 0 14 5
25 10 25 6 0 10 11 10 24 0 14 5 28 10 31 6 3 10 15 10 26 0 10 5 19 10 19 6
0 10 11 10 24 0 14 5 28 10 31 6 3 10 15 10 26 0 10 5 19 10 19 6 0 10 11 10
25 0 14 5 25 10 25 6 0 10 13 10 29 0 16 6 31 13 34 6 2 18 22 25 43 7 22 17
48 21 59 18 44 34 81 42 97 5 10 9 25 9 33 0 8 5 15 10 15 6 0 10 14 10 30 0
17 5 30 10 30 6 0 10 9 10 20 0 11 5 20 10 20 6 0 10 11 10 24 0 14 5 28 10
31 6 3 10 17 10 31 0 13 5 24 10 24 6 0 10 9 10 19 0 11 5 23 10 26 6 3 10 17
10 31 0 13 5 24 10 24 6 0 10 5 10 12 0 10 40 103 60 140 6 10 10 27 10 38 0
11 5 20 10 20 6 0 10 9 10 19 0 11 5 23 10 26 6 3 10 17 10 31 0 13 5 24 10
24 6 0 10 9 10 19 0 11 5 23 10 26 5 3 10 17 10 30 0 13 5 27 10 30 6 3 10 15
10 26 0 10 5 19 10 19 6 0 10 11 10 24 0 14 5 28 10 31 6 3 10 15 10 26 0 10
5 19 10 19 6 0 10 11 10 24 0 14 5 28 10 31 6 3 10 15 10 26 0 10 5 19 10 19
6 0 10 11 10 25 0 14 4 25 9 25 5 0 13 10 16 23 4 12 15 41 26 64 10 24 19 47
19 53 0 6 4 18 9 28 5 9 16 32 23 50 7 17 16 32 20 32 5 0 8 9 8 20 0 11 5 20
10 20 6 0 10 7 10 15 0 29 91 105 125 105 8 0 15 5 15 10 0 6 11 10 24 10 14
0 28 5 31 10 3 6 22 10 41 10 24 0 34 5 34 15 0 8 5 15 10 15 16 0 12 98 -5
124 l-16 23 -363 1 c-421 1 -399 6 -398 -93 0 -68 15 -85 76 -85 25 0 48 -4
51 -10 3 -5 18 -10 32 -10 15 0 38 -13 59 -34 29 -29 34 -41 34 -79 0 -25 -4
-49 -10 -52 -5 -3 -10 -17 -10 -31 0 -13 -4 -24 -10 -24 -5 0 -10 -11 -10 -25
0 -14 -4 -25 -10 -25 -5 0 -10 -9 -10 -20 0 -11 -4 -29 -10 -40 -5 -11 -14
-29 -20 -40 -5 -11 -10 -29 -10 -40 0 -11 -4 -20 -10 -20 -5 0 -10 -11 -10
-25 0 -14 -4 -25 -10 -25 -5 0 -10 -11 -10 -25 0 -14 -4 -25 -10 -25 -5 0 -10
-11 -10 -25 0 -14 -4 -25 -9 -25 -5 0 -12 -10 -16 -22 -6 -23 -11 -34 -38 -98
-8 -19 -47 -118 -87 -220 -39 -102 -75 -194 -80 -205 -4 -11 -54 -136 -110
-277 -93 -232 -120 -285 -120 -228 0 10 -4 21 -8 24 -4 3 -14 28 -22 56 -8 29
-20 54 -27 57 -7 3 -13 16 -13 29 0 13 -4 24 -10 24 -5 0 -10 11 -10 25 0 14
-4 25 -10 25 -5 0 -10 14 -10 30 0 17 -4 30 -10 30 -5 0 -10 11 -10 25 0 14
-4 25 -10 25 -5 0 -10 9 -10 20 0 11 -5 29 -10 40 -5 11 -14 29 -20 40 -5 11
-10 29 -10 40 0 11 -4 20 -10 20 -5 0 -10 9 -10 20 0 11 -4 28 -9 38 -5 9 -13
28 -18 42 -6 14 -16 39 -23 55 -22 52 -29 69 -35 93 -4 12 -11 22 -16 22 -5 0
-9 11 -9 25 0 14 -4 25 -10 25 -5 0 -10 9 -10 20 0 11 -4 29 -10 40 -5 11 -14
29 -20 40 -5 11 -10 29 -10 40 0 11 -4 20 -10 20 -5 0 -10 9 -10 20 0 11 -4
29 -10 40 -5 11 -14 29 -20 40 -5 11 -10 29 -10 40 0 11 -4 20 -10 20 -5 0
-10 11 -10 25 0 14 -4 25 -10 25 -5 0 -10 9 -10 20 0 11 -4 28 -9 38 -5 9 -14
31 -21 47 -7 17 -16 37 -19 45 -4 8 -14 37 -22 64 -8 27 -20 51 -26 53 -8 3
-13 25 -13 60 0 56 14 83 44 83 9 0 16 5 16 10 0 6 13 10 29 10 17 0 33 5 36
10 3 6 21 10 40 10 62 0 65 4 65 90 0 66 -3 79 -17 84 -10 3 -202 5 -426 4
-345 0 -410 -2 -422 -15z"/>
<path d="M16581 2965 c-26 -23 -59 -81 -93 -165 -6 -14 -14 -33 -19 -42 -5
-10 -9 -25 -9 -33 0 -8 -4 -15 -10 -15 -5 0 -10 -11 -10 -25 0 -14 -4 -25 -9
-25 -5 0 -13 -10 -17 -22 -7 -25 -40 -103 -55 -130 -5 -10 -9 -25 -9 -33 0 -8
-4 -15 -10 -15 -5 0 -10 -7 -10 -15 0 -8 -4 -23 -9 -33 -5 -9 -14 -30 -21 -47
-7 -16 -16 -38 -21 -47 -5 -10 -9 -25 -9 -33 0 -8 -4 -15 -10 -15 -5 0 -10
-11 -10 -24 0 -14 -4 -28 -10 -31 -5 -3 -10 -15 -10 -26 0 -10 -4 -19 -10 -19
-5 0 -10 -7 -10 -15 0 -8 -4 -24 -10 -35 -5 -11 -14 -29 -20 -40 -5 -11 -10
-25 -10 -32 0 -6 -6 -19 -13 -27 -8 -9 -22 -36 -31 -61 -10 -25 -24 -61 -33
-80 -8 -19 -20 -46 -25 -60 -6 -14 -14 -33 -19 -42 -5 -10 -9 -25 -9 -33 0 -8
-4 -15 -10 -15 -5 0 -10 -9 -10 -19 0 -11 -4 -23 -10 -26 -5 -3 -10 -17 -10
-31 0 -13 -4 -24 -10 -24 -5 0 -10 -9 -10 -19 0 -11 -4 -23 -10 -26 -5 -3 -10
-15 -10 -26 0 -10 -4 -19 -10 -19 -5 0 -10 -11 -10 -24 0 -14 -4 -28 -10 -31
-5 -3 -10 -15 -10 -26 0 -10 -4 -19 -10 -19 -5 0 -10 -6 -10 -12 0 -7 -12 -38
-26 -68 -30 -63 -62 -134 -76 -170 -6 -14 -14 -33 -19 -42 -5 -10 -9 -25 -9
-33 0 -8 -4 -15 -10 -15 -5 0 -10 -9 -10 -20 0 -11 -9 -35 -20 -55 -11 -20
-20 -42 -20 -50 0 -8 -4 -15 -10 -15 -5 0 -10 -6 -10 -13 0 -18 -24 -67 -32
-67 -5 0 -8 -4 -8 -10 0 -16 -72 -84 -105 -99 -16 -7 -38 -17 -47 -22 -10 -5
-40 -9 -67 -9 -34 0 -56 -6 -75 -21 -24 -19 -27 -27 -24 -73 l3 -51 428 -3
427 -2 0 61 c0 78 -12 88 -101 89 -65 0 -115 15 -153 44 -27 21 -24 82 6 147
14 30 32 72 39 94 8 22 17 42 20 45 3 3 12 26 20 52 7 27 17 48 21 48 4 0 8 9
8 20 0 11 4 28 9 38 5 9 14 31 21 47 7 17 16 38 21 47 5 10 9 27 9 38 0 11 5
20 10 20 6 0 10 7 10 16 0 27 27 44 69 44 22 0 43 5 46 10 4 6 135 10 361 10
344 0 354 -1 354 -19 0 -11 5 -23 10 -26 6 -3 10 -17 10 -31 0 -13 5 -24 10
-24 6 0 10 -13 10 -30 0 -16 5 -30 10 -30 6 0 10 -11 10 -24 0 -14 5 -28 10
-31 6 -3 10 -17 10 -30 0 -13 5 -27 10 -30 6 -3 10 -17 10 -31 0 -13 5 -24 10
-24 6 0 10 -13 10 -30 0 -16 5 -30 10 -30 6 0 10 -11 10 -24 0 -14 5 -28 10
-31 6 -3 10 -15 10 -26 0 -10 5 -28 10 -39 6 -11 15 -29 20 -40 6 -11 10 -29
10 -39 0 -11 5 -23 10 -26 17 -11 11 -41 -12 -61 -43 -36 -68 -44 -143 -44
-106 0 -125 -14 -125 -91 l0 -59 475 0 475 0 0 59 c0 51 -3 61 -25 75 -14 9
-45 16 -74 16 -27 0 -53 4 -56 10 -3 6 -17 10 -31 10 -30 0 -111 77 -126 120
-5 17 -14 30 -19 30 -5 0 -9 11 -9 24 0 14 -4 28 -10 31 -5 3 -10 17 -10 31 0
13 -4 24 -10 24 -5 0 -10 11 -10 25 0 14 -4 25 -10 25 -5 0 -10 11 -10 24 0
14 -4 28 -10 31 -5 3 -10 15 -10 26 0 19 -4 28 -28 76 -7 13 -12 32 -12 43 0
11 -4 20 -10 20 -5 0 -10 9 -10 20 0 11 -4 29 -10 40 -5 11 -14 29 -20 40 -5
11 -10 27 -10 35 0 15 -4 25 -28 72 -7 13 -12 28 -12 33 0 11 -40 104 -61 142
-5 10 -9 27 -9 37 0 11 -4 23 -10 26 -5 3 -10 17 -10 31 0 13 -4 24 -10 24 -5
0 -10 11 -10 25 0 14 -4 25 -10 25 -5 0 -10 11 -10 24 0 14 -4 28 -10 31 -5 3
-10 15 -10 26 0 19 -4 28 -28 76 -7 13 -12 32 -12 43 0 11 -4 20 -10 20 -5 0
-10 9 -10 20 0 11 -4 28 -9 38 -21 41 -71 173 -71 187 0 7 -7 18 -15 25 -8 7
-15 21 -15 31 0 11 -4 28 -10 39 -5 11 -14 29 -20 40 -5 11 -10 29 -10 40 0
11 -4 20 -10 20 -5 0 -10 9 -10 20 0 11 -4 29 -10 40 -5 11 -14 29 -20 40 -5
11 -10 27 -10 35 0 15 -4 25 -28 72 -7 13 -12 30 -12 38 0 8 -4 23 -9 33 -5 9
-14 31 -21 47 -7 17 -16 38 -21 47 -5 10 -9 24 -9 32 0 8 -16 30 -35 50 -44
46 -97 50 -144 11z m10 -525 c5 0 9 -11 9 -24 0 -14 5 -28 10 -31 6 -3 10 -15
10 -26 0 -10 4 -27 9 -37 14 -28 29 -65 36 -89 4 -13 11 -23 16 -23 5 0 9 -13
9 -30 0 -16 5 -30 10 -30 6 0 10 -13 10 -30 0 -16 5 -30 10 -30 6 0 10 -11 10
-24 0 -14 5 -28 10 -31 6 -3 10 -17 10 -31 0 -13 5 -24 10 -24 6 0 10 -13 10
-30 0 -16 5 -30 10 -30 6 0 10 -9 10 -20 0 -11 5 -29 10 -40 6 -11 15 -29 20
-40 6 -11 10 -29 10 -39 0 -11 5 -23 10 -26 6 -3 10 -17 10 -30 0 -13 5 -27
10 -30 6 -3 10 -15 10 -26 0 -18 -10 -19 -315 -19 -344 0 -328 -3 -304 57 6
15 16 39 21 53 6 14 14 33 19 42 5 10 9 27 9 38 0 11 4 20 8 20 5 0 15 23 22
50 7 28 17 50 22 50 4 0 8 9 8 20 0 11 5 30 12 43 24 48 28 57 28 76 0 11 5
23 10 26 6 3 10 15 10 26 0 10 5 19 10 19 6 0 10 13 10 29 0 16 6 31 15 35 8
3 15 12 15 21 0 9 8 33 19 54 10 22 24 60 32 85 7 25 17 46 21 46 4 0 8 8 8
18 0 10 6 24 13 31 10 10 13 6 15 -18 2 -17 7 -31 13 -31z"/>
<path d="M3487 2273 c-4 -3 -7 -31 -7 -62 0 -51 3 -57 27 -68 15 -7 57 -13 94
-13 50 0 68 -4 73 -15 3 -8 10 -15 16 -15 40 0 40 -3 40 -657 l0 -628 -24 -27
c-13 -16 -30 -28 -39 -28 -9 0 -19 -4 -22 -10 -3 -5 -34 -10 -69 -10 -81 0
-96 -15 -96 -93 l0 -57 405 0 405 0 0 61 c0 75 -13 88 -84 89 -80 0 -146 29
-146 64 0 9 -4 16 -10 16 -7 0 -10 213 -10 620 0 407 3 620 10 620 6 0 10 6
10 14 0 7 14 19 30 26 17 7 30 16 30 21 0 5 30 9 68 9 90 1 102 11 102 89 l0
61 -398 0 c-219 0 -402 -3 -405 -7z"/>
<path d="M4540 2215 c0 -51 3 -65 15 -65 8 0 15 -4 15 -10 0 -6 31 -10 74 -10
53 0 77 -4 86 -15 7 -8 18 -15 24 -15 33 0 36 -46 36 -657 0 -464 -3 -608 -12
-626 -27 -47 -85 -77 -150 -77 -78 0 -88 -10 -88 -85 l0 -65 388 2 387 3 3 52
c4 64 -21 93 -79 93 -21 0 -41 5 -44 10 -3 6 -15 10 -25 10 -10 0 -28 12 -39
26 -20 26 -21 39 -21 300 0 298 -2 289 56 259 39 -19 75 -52 104 -95 13 -19
31 -42 40 -50 9 -8 27 -31 40 -50 30 -43 46 -60 57 -60 4 0 14 -13 21 -29 7
-17 31 -48 53 -70 21 -23 39 -45 39 -50 0 -4 12 -21 28 -37 15 -16 38 -45 52
-64 25 -35 55 -72 78 -96 6 -7 12 -22 12 -33 0 -12 5 -21 10 -21 6 0 10 -22
10 -50 l0 -50 279 0 279 0 7 30 c15 66 -21 120 -79 120 -14 0 -38 5 -53 11
-94 38 -116 55 -195 153 -45 56 -85 103 -88 106 -3 3 -25 30 -50 60 -25 30
-55 66 -66 80 -12 14 -52 61 -88 105 -37 44 -86 102 -109 129 -57 67 -87 112
-87 131 0 22 38 76 101 143 30 31 61 67 69 78 8 12 40 49 70 82 30 33 82 91
115 130 68 78 146 141 187 149 15 3 33 12 39 19 8 10 35 14 85 14 43 0 74 4
74 10 0 6 7 10 15 10 13 0 15 11 13 63 l-3 62 -342 3 -343 2 0 -61 c0 -65 13
-89 49 -89 12 0 32 -10 45 -21 21 -19 23 -25 13 -48 -17 -40 -76 -126 -114
-166 -7 -8 -13 -16 -13 -20 0 -3 -19 -25 -42 -49 -24 -24 -79 -81 -123 -127
-95 -99 -121 -121 -174 -149 -75 -38 -71 -51 -71 244 0 145 3 271 6 280 3 8
21 20 40 26 19 6 34 16 34 21 0 5 18 9 40 9 62 0 90 23 90 75 0 81 33 75 -396
75 l-384 0 0 -65z"/>
<path d="M6460 2261 c-21 -40 -8 -111 21 -111 11 0 19 -4 19 -10 0 -6 30 -10
70 -10 39 0 70 -4 70 -9 0 -5 14 -14 30 -21 l30 -12 0 -642 0 -643 -22 -19
c-42 -35 -67 -44 -127 -44 -52 0 -62 -3 -80 -26 -21 -27 -26 -60 -15 -101 l6
-23 404 0 404 0 0 65 c0 76 -9 85 -94 85 -30 0 -58 4 -61 10 -3 6 -15 10 -25
10 -10 0 -26 10 -34 22 -14 20 -16 99 -16 661 l0 638 30 17 c16 9 30 20 30 25
0 4 32 7 70 7 40 0 70 4 70 10 0 6 7 10 15 10 13 0 15 11 13 63 l-3 62 -397 3
c-385 2 -398 2 -408 -17z"/>
<path d="M7520 2215 c0 -58 2 -65 20 -65 11 0 20 -4 20 -10 0 -6 31 -10 72
-10 67 0 73 -2 100 -32 l28 -32 0 -626 c0 -619 0 -628 -21 -654 -12 -15 -30
-26 -44 -26 -13 0 -27 -4 -30 -10 -3 -6 -30 -10 -58 -10 -74 -1 -87 -14 -87
-89 l0 -61 408 2 407 3 3 52 c4 66 -18 89 -91 96 -81 8 -120 18 -139 35 -16
14 -18 39 -18 254 0 229 1 238 19 238 11 0 23 -4 26 -10 4 -6 63 -10 145 -10
82 0 141 4 145 10 3 6 24 10 46 10 21 0 47 4 57 9 9 6 38 17 65 27 26 9 47 21
47 25 0 5 9 9 20 9 11 0 20 5 20 10 0 6 4 10 10 10 21 0 88 66 129 125 66 99
101 214 101 337 0 127 -38 222 -124 309 -52 53 -144 109 -178 109 -9 0 -20 5
-23 10 -3 6 -24 10 -45 10 -21 0 -42 5 -45 10 -4 6 -180 10 -496 10 l-489 0 0
-65z m890 -95 c0 -5 15 -16 33 -24 18 -7 49 -33 68 -57 18 -24 37 -45 41 -47
5 -2 8 -15 8 -28 0 -13 5 -24 10 -24 6 0 10 -60 10 -160 0 -100 -4 -160 -10
-160 -5 0 -10 -9 -10 -20 0 -11 -14 -42 -30 -69 -29 -46 -73 -83 -133 -109
-36 -16 -230 -16 -274 0 l-33 12 0 325 0 325 28 23 c25 21 37 22 160 23 80 0
132 -4 132 -10z"/>
<path d="M9140 2219 c0 -81 10 -89 103 -89 54 0 78 -4 87 -15 7 -8 19 -15 26
-15 8 0 14 -9 14 -20 0 -11 5 -20 10 -20 7 0 10 -208 10 -605 0 -397 -3 -605
-10 -605 -5 0 -10 -9 -10 -20 0 -22 -30 -56 -68 -77 -12 -7 -46 -13 -76 -13
-84 0 -86 -2 -86 -81 l0 -69 670 0 c651 0 670 1 680 19 5 11 10 40 10 65 0 25
5 48 10 51 6 3 10 30 10 59 0 28 4 56 9 62 9 9 19 78 24 159 l2 40 -58 3 c-64
3 -87 -10 -87 -52 0 -14 -5 -28 -10 -31 -6 -4 -17 -22 -25 -40 -21 -51 -83
-114 -139 -141 -48 -23 -58 -24 -267 -24 l-218 0 -20 29 c-20 28 -21 42 -21
320 l0 291 135 0 c83 0 135 -4 135 -10 0 -5 7 -10 16 -10 21 0 53 -40 54 -67
0 -12 5 -25 10 -28 6 -3 10 -21 10 -38 0 -52 10 -58 81 -55 l64 3 -4 235 c-2
152 1 245 8 263 18 48 0 67 -63 67 -62 0 -86 -19 -86 -68 0 -18 -4 -32 -10
-32 -5 0 -10 -12 -10 -27 -1 -34 -21 -63 -44 -63 -9 0 -16 -4 -16 -10 0 -6
-53 -10 -140 -10 l-140 0 0 263 c0 191 3 266 12 275 9 9 71 12 219 12 195 0
210 -1 251 -22 47 -25 108 -84 108 -105 0 -7 3 -13 8 -13 8 0 32 -49 32 -67 0
-7 5 -13 10 -13 6 0 10 -10 10 -23 0 -45 27 -67 80 -67 31 0 54 6 64 16 18 17
21 55 7 70 -5 5 -12 34 -15 64 -14 145 -27 249 -33 290 l-8 45 -657 3 -658 2
0 -61z"/>
<path d="M10780 2219 c0 -82 9 -89 109 -89 45 0 81 -4 81 -9 0 -5 9 -13 20
-16 20 -6 20 -15 20 -659 0 -610 -1 -654 -17 -667 -39 -31 -65 -39 -126 -39
-36 0 -68 -5 -75 -12 -7 -7 -12 -39 -12 -75 l0 -63 560 0 c367 0 560 3 560 10
0 6 20 10 44 10 25 0 48 4 51 10 3 5 19 10 35 10 16 0 32 5 35 10 3 6 17 10
31 10 13 0 24 5 24 10 0 6 6 10 13 10 18 0 67 24 67 33 0 4 8 7 18 7 10 0 24
9 32 20 8 11 19 20 25 20 15 0 135 120 135 134 0 6 9 18 20 26 11 8 20 22 20
32 0 10 5 18 10 18 6 0 10 7 10 15 0 15 4 25 28 72 7 13 12 31 12 41 0 10 5
23 11 29 23 23 33 120 33 298 -1 179 -10 265 -32 287 -7 7 -12 25 -12 40 0 15
-4 28 -10 28 -5 0 -10 9 -10 19 0 11 -4 23 -10 26 -5 3 -10 15 -10 26 0 10 -4
19 -10 19 -5 0 -10 9 -10 20 0 11 -3 20 -8 20 -4 0 -13 12 -19 28 -12 27 -107
131 -148 162 -20 15 -90 62 -130 87 -31 20 -86 43 -101 43 -7 0 -16 5 -19 10
-3 6 -16 10 -29 10 -12 0 -26 4 -31 9 -21 20 -121 24 -642 28 l-543 3 0 -61z
m964 -104 c3 -8 17 -15 31 -15 14 0 33 -4 43 -9 9 -5 40 -19 67 -32 28 -13 52
-27 53 -31 2 -5 8 -8 13 -8 15 0 127 -117 134 -140 3 -11 11 -20 16 -20 5 0 9
-7 9 -15 0 -15 4 -25 28 -72 7 -13 12 -32 12 -42 0 -11 5 -23 10 -26 6 -3 10
-23 10 -44 0 -20 5 -42 10 -47 15 -15 15 -463 1 -477 -6 -6 -11 -24 -11 -39 0
-16 -4 -36 -9 -46 -5 -9 -21 -43 -36 -75 -33 -71 -104 -144 -170 -176 -27 -13
-58 -27 -67 -32 -10 -5 -31 -9 -47 -9 -17 0 -33 -4 -36 -10 -9 -15 -347 -13
-382 2 -15 6 -38 21 -50 32 l-23 19 0 642 0 642 25 13 c14 7 25 17 25 22 0 4
76 8 169 8 141 0 170 -2 175 -15z"/>
<path d="M12800 2218 c0 -59 2 -64 27 -75 15 -7 55 -13 89 -13 42 0 65 -5 74
-15 7 -8 17 -15 22 -15 5 0 16 -6 24 -14 21 -21 21 -1270 0 -1291 -34 -34 -88
-55 -144 -55 -79 -1 -92 -13 -92 -89 l0 -61 410 0 410 0 0 59 c0 51 -3 61 -25
75 -14 9 -45 16 -73 16 -27 0 -65 7 -85 15 -69 29 -67 8 -67 690 l0 612 24 24
c45 45 55 49 114 49 32 0 70 6 85 13 26 11 27 15 25 72 l-3 60 -407 3 -408 2
0 -62z"/>
<path d="M13860 2215 l0 -65 60 0 c33 0 60 -4 60 -10 0 -5 6 -10 14 -10 16 0
76 -56 76 -71 0 -5 5 -9 10 -9 6 0 10 -5 10 -10 0 -6 9 -20 20 -32 11 -12 20
-28 20 -35 0 -7 5 -13 10 -13 6 0 10 -6 10 -13 0 -7 8 -22 18 -33 9 -11 22
-29 28 -40 31 -55 40 -70 57 -88 9 -11 17 -25 17 -31 0 -7 9 -20 20 -30 11
-10 20 -24 20 -32 0 -7 7 -16 15 -19 8 -4 15 -12 15 -18 0 -7 9 -22 20 -34 11
-12 20 -28 20 -37 0 -8 5 -15 10 -15 6 0 10 -7 10 -15 0 -8 5 -15 10 -15 6 0
10 -6 10 -13 0 -7 9 -23 20 -35 11 -12 20 -26 20 -32 0 -6 9 -20 20 -32 11
-12 20 -28 20 -35 0 -7 5 -13 10 -13 6 0 10 -9 10 -20 0 -11 5 -20 10 -20 15
0 13 -484 -2 -529 -16 -45 -38 -71 -58 -71 -9 0 -20 -4 -26 -10 -5 -5 -43 -10
-84 -12 l-75 -3 -20 -37 c-17 -32 -18 -39 -5 -62 l13 -26 407 0 408 0 5 28 c3
15 2 43 -2 62 l-7 35 -79 3 c-44 2 -84 7 -89 12 -6 6 -17 10 -26 10 -18 0 -50
34 -50 55 0 7 -4 17 -10 20 -6 4 -10 110 -10 286 0 179 4 279 10 279 6 0 10 7
10 15 0 9 9 25 20 37 11 12 20 28 20 35 0 7 4 13 8 13 4 0 21 25 37 55 17 30
33 55 38 55 4 0 7 9 7 20 0 11 4 20 9 20 5 0 11 8 14 18 6 18 38 74 48 82 3 3
8 12 12 20 4 8 20 38 37 65 17 28 33 58 37 68 3 9 8 17 12 17 4 0 15 17 26 38
11 20 23 39 26 42 4 3 17 24 30 47 35 60 70 103 85 103 8 0 14 5 14 10 0 6 30
10 70 10 65 0 70 2 76 23 3 13 4 41 2 63 l-3 39 -259 3 c-288 3 -285 3 -286
-66 0 -50 18 -62 94 -62 74 0 79 -6 47 -63 -11 -19 -25 -45 -33 -58 -7 -13
-15 -26 -18 -29 -3 -3 -12 -18 -20 -35 -8 -16 -17 -32 -20 -35 -3 -3 -16 -27
-30 -55 -14 -27 -27 -52 -31 -55 -3 -3 -12 -20 -20 -37 -8 -18 -17 -33 -20
-33 -4 0 -9 -8 -13 -17 -3 -10 -11 -27 -18 -38 -52 -80 -66 -104 -82 -137 -16
-36 -36 -51 -36 -28 0 6 -25 48 -55 95 -30 46 -55 89 -55 94 0 6 -4 11 -8 11
-5 0 -15 12 -22 28 -8 15 -22 38 -31 52 -30 45 -70 115 -76 133 -3 9 -9 17
-14 17 -5 0 -9 5 -9 11 0 5 -17 36 -38 67 -21 31 -41 65 -45 75 -3 9 -11 17
-17 17 -5 0 -10 4 -10 10 0 5 37 10 83 12 l82 3 0 60 0 60 -322 3 -323 2 0
-65z"/>
</g>
</svg>
