<svg xmlns="http://www.w3.org/2000/svg" viewBox="0 0 140 37.578"><path d="M1.176 1.05h4.816c.445 1.43.875 2.86 1.317 4.282.363 1.17.707 2.35 1.085 3.52.844-2.6 1.68-5.2 2.532-7.801 1.43 0 2.86.004 4.297 0 .793 2.63 1.59 5.27 2.39 7.902.492-1.48.95-2.97 1.434-4.453.363-1.15.734-2.3 1.101-3.45 1.48 0 2.96.005 4.442 0-1.47 4.61-2.95 9.21-4.422 13.825h-5.004c-.742-2.45-1.48-4.89-2.219-7.34-.78 2.45-1.56 4.89-2.336 7.34H5.601c-1.47-4.61-2.95-9.21-4.425-13.824zM87.453 6.094c-.5.12-.867.617-.852 1.129.016.3.148.598.375.8.281.254.695.371 1.067.258.582-.152.973-.82.789-1.402-.152-.574-.805-.953-1.379-.785M62.473 22.309a10 10 0 0 1 2.969.145c1.61.336 3.14 1.17 4.207 2.433a6.8 6.8 0 0 1 1.21 2.074c.392 1.07.497 2.23.384 3.36a6.82 6.82 0 0 1-1.848 4.043c-1.23 1.3-2.95 2.07-4.711 2.277-1.81.215-3.71-.035-5.328-.918a7.1 7.1 0 0 1-2.758-2.672c-.883-1.52-1.09-3.38-.762-5.09a6.88 6.88 0 0 1 2.512-4.054c1.18-.914 2.64-1.46 4.125-1.598m-2.488 2.812a2.28 2.28 0 0 0-.184 2.168c-.906-.054-1.79.512-2.164 1.332-.367.746-.262 1.69.25 2.348.402.56 1.07.883 1.75.934-.27.69-.188 1.51.238 2.125.367.559.992.934 1.656 1.011.785.098 1.59-.266 2.082-.882.422.508 1.07.832 1.735.836a2.3 2.3 0 0 0 1.91-.954c.43-.578.555-1.36.336-2.05.645-.075 1.26-.406 1.64-.938.509-.66.603-1.61.227-2.36a2.34 2.34 0 0 0-1.867-1.308c.223-.52.234-1.13.035-1.66a2.33 2.33 0 0 0-1.793-1.492c-.762-.141-1.57.168-2.086.73-.145-.145-.277-.297-.441-.422a2.298 2.298 0 0 0-3.324.582M117.51 22.574c3.75 0 7.49.004 11.234 0 .004 1.18 0 2.36 0 3.535-2.21.004-4.43 0-6.648 0v1.602c1.95 0 3.9-.004 5.851 0 0 1.12-.004 2.24 0 3.363-1.95.004-3.9 0-5.851.004v1.785h6.902v3.535H117.51zM34.453 27.703a1.17 1.17 0 0 0-.426.879c.008.363.191.719.492.926.375.277.934.273 1.309-.008.176-.137.328-.312.402-.524.13-.359.075-.793-.172-1.09a1.17 1.17 0 0 0-.89-.445 1.2 1.2 0 0 0-.715.262M27.078 1.05h4.672v13.825h-4.672zm1.793.906c.504.754.703 1.71.504 2.602-.09.465-.305.895-.563 1.289a1.98 1.98 0 0 0 1.579-1.621 1.99 1.99 0 0 0-1.52-2.27m0 3.992c.527.797.723 1.81.469 2.739-.094.414-.297.789-.52 1.144.793-.125 1.45-.816 1.567-1.61a2 2 0 0 0-.297-1.433 2.03 2.03 0 0 0-1.22-.84m.005 3.993c.426.656.645 1.46.555 2.238a3.5 3.5 0 0 1-.618 1.652 1.98 1.98 0 0 0 1.543-1.457 1.99 1.99 0 0 0-.351-1.707 2.03 2.03 0 0 0-1.13-.726M52.012 1.05h4.668c.004 4.61 0 9.22.004 13.825h-4.672zM115.36 1.05h4.668c.004 4.61 0 9.21.004 13.82q-2.341.013-4.676 0c.004-4.61 0-9.21.004-13.82m1.598 4.755c-.402.879-.594 1.88-.407 2.84.176.938.602 1.82 1.188 2.562.145-.164.258-.352.379-.535.445-.73.777-1.55.86-2.402.054-.477.003-.961-.098-1.43a6.2 6.2 0 0 0-1.137-2.324c-.32.387-.574.832-.785 1.289M106.95 22.77c1.04-.379 2.15-.531 3.254-.512 1.04.028 2.09.191 3.066.578a6.74 6.74 0 0 1 2.817 2.059c.027.05.137.121.066.176-.973.867-1.94 1.73-2.91 2.597-.473-.578-1.05-1.09-1.746-1.375a3.56 3.56 0 0 0-2.645.016c-.48.2-.895.543-1.203.957-.387.52-.578 1.16-.633 1.797-.039.617 0 1.25.207 1.832.277.797.895 1.48 1.684 1.793.824.32 1.77.324 2.594-.012.695-.277 1.27-.789 1.734-1.375.992.871 1.97 1.76 2.961 2.637a6.6 6.6 0 0 1-1.719 1.582c-1.03.652-2.22 1.02-3.425 1.14-1.78.185-3.64-.081-5.207-.968a6.8 6.8 0 0 1-2.133-1.832 6.86 6.86 0 0 1-1.356-3.285c-.133-1.08-.082-2.2.227-3.243a6.9 6.9 0 0 1 1.812-2.992 7.5 7.5 0 0 1 2.555-1.57M42.227 22.301h12.75v3.64c-1.34.005-2.69 0-4.04 0v10.185h-4.671V25.942h-4.04zM35.453 1.05h4.586v4.977c1.51-1.65 3.01-3.32 4.516-4.976 1.7.008 3.4-.004 5.093.004-1.83 2.03-3.68 4.05-5.515 6.078 1.13 1.52 2.27 3.04 3.406 4.55.793 1.07 1.6 2.12 2.383 3.192-1.8.004-3.61 0-5.406 0-1.14-1.52-2.3-3.04-3.438-4.566-.348.379-.688.77-1.04 1.148v3.418h-4.585V1.051m1.777 3.668c-.496.824-.855 1.75-.941 2.707-.07.746.05 1.5.297 2.207.258.734.637 1.43 1.117 2.04a6.86 6.86 0 0 0 1.324-2.782 5.1 5.1 0 0 0-.137-2.606 7.3 7.3 0 0 0-.925-1.898c-.082-.113-.152-.238-.262-.332-.188.195-.324.438-.473.664M128.27 1.05c1.54.009 3.07-.007 4.602.009 1.45 3.33 2.91 6.65 4.359 9.98.559 1.28 1.11 2.56 1.68 3.836h-4.84c-.316-.797-.617-1.6-.93-2.398h-5.234c-.301.805-.613 1.6-.918 2.398h-4.758c2-4.61 4.03-9.21 6.04-13.824m2.234 4.152c-.258.695-.5 1.4-.758 2.098-.5-.676-1.01-1.34-1.512-2.012.012.617-.086 1.23-.02 1.848.032.504.195 1 .504 1.402.477.645 1.32 1.01 2.118.875a2.3 2.3 0 0 0 1.636-1.132c.215-.387.281-.836.285-1.274V5.266c-.516.684-1.02 1.37-1.543 2.05-.227-.706-.492-1.4-.71-2.113M11.09 22.574c1.53.004 3.05 0 4.586.004v4.973c1.05-1.14 2.09-2.31 3.14-3.457.434-.488.883-.965 1.313-1.457.031-.055.09-.067.148-.063 1.67.004 3.34 0 5.012.004-1.81 2-3.63 3.99-5.445 5.992-.024.04-.098.086-.047.133q2.447 3.254 4.883 6.512c.293.395.598.78.879 1.183-1.8.004-3.61 0-5.41 0-1.14-1.52-2.29-3.04-3.434-4.562-.352.379-.691.77-1.04 1.148v3.414H11.09zm1.02 6.067c-.165.89-.07 1.82.226 2.672a7 7 0 0 0 1.125 2.047c.324-.398.586-.848.812-1.313.395-.797.625-1.68.625-2.57-.043-1.36-.609-2.68-1.437-3.742-.664.844-1.15 1.85-1.352 2.906M71.531 22.574c1.56 0 3.12.004 4.676 0 .047.012.145-.023.156.05q1.194 3.884 2.387 7.774c.266-.89.574-1.77.851-2.656.56-1.72 1.12-3.44 1.672-5.164 1.43-.004 2.87-.004 4.301 0 .801 2.63 1.6 5.27 2.395 7.906.852-2.63 1.69-5.27 2.53-7.91 1.48.004 2.96 0 4.442.004-1.46 4.61-2.95 9.21-4.418 13.82q-2.506-.001-5.008.004c-.738-2.44-1.47-4.89-2.214-7.325-.281.81-.523 1.63-.79 2.446-.52 1.62-1.03 3.25-1.554 4.875h-5c-1.48-4.61-2.95-9.21-4.426-13.824z"/><path d="M63.172 25.629c.215-.023.438-.04.656.004.04.035.031.098.051.144.074.375.164.75.238 1.125.266-.348.531-.695.809-1.035.203.086.402.191.601.29-.093.421-.199.843-.3 1.265.402-.164.773-.398 1.175-.559.152.156.285.336.415.512-.266.34-.543.676-.82 1.008H67.3c.062.219.117.438.137.664-.395.168-.777.37-1.172.539.39.188.785.367 1.176.555a5 5 0 0 1-.141.664c-.438.011-.871-.04-1.309-.02.273.34.555.672.825 1.012a3.7 3.7 0 0 1-.426.527c-.391-.195-.785-.375-1.168-.578.105.418.21.84.297 1.266-.18.133-.395.215-.606.297-.266-.352-.547-.691-.808-1.047-.055.438-.18.863-.266 1.297h-.672q-.14-.639-.277-1.278c-.266.344-.535.684-.797 1.028a4 4 0 0 1-.617-.297c.113-.418.203-.844.304-1.262-.395.184-.777.395-1.175.578-.145-.176-.297-.344-.414-.535.28-.332.547-.68.832-1.012-.438-.011-.875.035-1.313.024-.07-.22-.105-.445-.148-.664.398-.18.789-.375 1.187-.555-.398-.168-.785-.363-1.18-.547.02-.223.082-.438.137-.656.43 0 .863.004 1.297-.004-.27-.336-.551-.664-.812-1.004.129-.18.266-.359.421-.52.395.172.773.387 1.168.57-.097-.421-.203-.84-.3-1.26.195-.118.398-.212.609-.294q.404.511.8 1.027c.095-.426.18-.848.282-1.27M60.383 1.05c1.24 0 2.47.005 3.707 0 .059.009.145-.019.172.055 1.48 2.43 2.97 4.85 4.445 7.282 1.36-2.27 2.71-4.55 4.07-6.832.11-.16.188-.352.317-.496 1.27-.012 2.55-.004 3.828-.008v3.347c.035.348.016.7.02 1.051v6.313c.035.348.019.699.023 1.05v2.063h-4.273v-2.148c-.004-.418.02-.84-.02-1.258v-2.86c-1 1.68-1.99 3.36-2.988 5.028a181 181 0 0 0-2.059 0c-1-1.6-2-3.21-2.988-4.817-.004 2.02 0 4.04 0 6.055h-4.254V1.051zM98.023 14.871c.004-4.61 0-9.21.004-13.82h3.852q2.611 3.12 5.214 6.238c-.004-2.08 0-4.16 0-6.238h4.567v13.824c-1.28.004-2.56 0-3.844 0l-5.223-6.242c-.004 2.08 0 4.16-.004 6.242-1.52 0-3.04.004-4.566-.004M109.17 2.008c.48.746.695 1.68.504 2.555-.086.484-.312.93-.567 1.34a2 2 0 0 0 1.051-.582c.523-.527.691-1.36.43-2.059a1.98 1.98 0 0 0-1.418-1.254m0 3.996c.44.688.664 1.53.539 2.344-.066.559-.297 1.09-.613 1.55.512-.101.98-.401 1.27-.835a1.993 1.993 0 0 0-1.195-3.059m.003 4c.422.664.645 1.47.547 2.258-.059.586-.29 1.14-.621 1.629.66-.13 1.25-.61 1.48-1.246a2 2 0 0 0-.219-1.836 2 2 0 0 0-1.187-.805M36.91 8.063c.059.71.371 1.38.793 1.949.512-.676.859-1.52.797-2.38-.063-.702-.371-1.37-.797-1.925-.508.668-.855 1.5-.793 2.356M95.941 22.574h4.672v13.824H95.94zm1.441 5.188a3.35 3.35 0 0 0-.343 2.644c.312 1.14 1.28 2.05 2.43 2.32-.149-.266-.31-.52-.426-.797a5.72 5.72 0 0 1-.204-4.257c.176-.52.445-1.01.75-1.465a3.34 3.34 0 0 0-2.207 1.555"/><path fill="#000008" d="M85.48 1.117c1.53-.004 3.06 0 4.59 0 2.01 4.61 4.03 9.21 6.039 13.824q-2.413-.006-4.836 0c-.312-.8-.617-1.6-.93-2.402h-5.218c-.312.8-.613 1.61-.93 2.402-1.59-.004-3.17 0-4.754-.004 2.01-4.61 4.03-9.21 6.039-13.82m1.988 2.871-.222 1.028c-.211-.277-.43-.547-.637-.828-.172.062-.352.125-.496.246.062.344.16.68.234 1.02-.312-.165-.629-.317-.945-.473a5 5 0 0 0-.344.43c.22.272.445.542.664.82-.352-.004-.703 0-1.054-.004-.051.172-.086.348-.114.523.31.164.633.293.942.453a71 71 0 0 1-.942.438q.037.277.114.543c.355.007.707-.004 1.058-.024q-.327.417-.668.828c.094.137.191.273.309.39.035.056.097.009.14-.007l.844-.422c-.086.34-.164.68-.25 1.02.156.097.32.19.5.238.223-.262.426-.543.645-.812.082.34.148.68.222 1.019h.555c.07-.34.141-.68.223-1.02.215.274.43.544.64.82.172-.062.34-.14.496-.234-.066-.344-.164-.684-.238-1.027.32.145.621.332.95.457.132-.125.233-.277.343-.426-.234-.266-.449-.547-.676-.82.355.012.711.035 1.067.016q.063-.263.11-.532c-.31-.16-.634-.285-.938-.449.309-.152.629-.293.937-.445a3.4 3.4 0 0 0-.117-.527c-.348.004-.7 0-1.047 0 .215-.277.441-.543.66-.82a4 4 0 0 0-.351-.426q-.474.239-.942.472c.074-.289.137-.578.211-.867.004-.055.04-.113.016-.168-.145-.105-.316-.164-.477-.234q-.323.414-.644.824c-.086-.336-.137-.68-.235-1.012-.176-.043-.363-.015-.543-.008"/><path d="M117.04 7.613c-.074.773.234 1.55.707 2.16.332-.405.551-.91.668-1.421.176-.855-.152-1.73-.664-2.407a3.4 3.4 0 0 0-.711 1.668z"/><path fill="#00f" d="M129.7 7.563c.117-.086.121.109 0 .027z"/><path d="M32.91 22.512c1.53.004 3.05.004 4.582 0 1.52 3.45 3.02 6.9 4.531 10.352q.756 1.742 1.516 3.473c-1.61-.004-3.22.004-4.828-.004-.332-.785-.621-1.6-.934-2.395h-5.23q-.458 1.201-.922 2.399h-4.766c2.02-4.61 4.03-9.22 6.05-13.824m1.985 2.867c-.07.34-.137.68-.226 1.015-.215-.27-.43-.543-.637-.816a2.6 2.6 0 0 0-.5.242c.082.34.16.68.246 1.016-.316-.148-.625-.316-.945-.461a3 3 0 0 0-.352.434c.23.266.45.547.676.816-.352.008-.703-.004-1.055-.024-.054.18-.09.36-.125.543.312.152.633.297.95.45-.312.148-.625.289-.938.441.004.188.066.371.113.55.352-.015.703-.034 1.055-.023-.227.27-.445.551-.676.817.11.156.223.309.371.433.305-.156.613-.312.926-.46-.086.335-.164.675-.246 1.015.156.098.328.18.504.242q.309-.416.64-.816c.075.336.153.676.22 1.015.183.008.366.004.55.004q.11-.5.219-1a.8.8 0 0 1 .144.141c.164.223.344.434.508.66.168-.07.332-.156.496-.242q-.118-.511-.242-1.016c.32.141.633.31.953.457.113-.14.234-.277.336-.425-.219-.281-.445-.551-.668-.825.352-.007.703.004 1.051.024.05-.176.102-.355.117-.54-.305-.171-.633-.3-.945-.452.312-.152.645-.277.945-.457-.015-.184-.066-.36-.117-.536-.348.02-.699.032-1.05.024.218-.277.448-.543.667-.824a3 3 0 0 0-.332-.41c-.058-.008-.109.035-.16.054-.262.137-.527.27-.797.387.082-.34.168-.676.242-1.02-.164-.082-.328-.168-.496-.238-.207.285-.44.551-.644.84q-.11-.522-.227-1.04c-.184 0-.367-.003-.55.005M13.457 27.391c-.469.637-.809 1.4-.805 2.203.028.766.348 1.5.801 2.102.414-.512.684-1.13.785-1.782.02-.195.043-.39.016-.59-.063-.706-.375-1.37-.797-1.933"/></svg>