<svg xmlns="http://www.w3.org/2000/svg" width="146" height="18"><path fill="#fff" d="M0 0h146v18H0z"/><path fill="#666" d="M0 .314h4.986l6.297 11.899V.313h4.232v17.35h-4.986l-6.297-11.9v11.9H0V.313Zm17.486 0h4.882l3.942 6.182L30.253.314h4.893l-6.598 10.04v7.309h-4.464v-7.31L17.486.314ZM50 16.71A11.385 11.385 0 0 1 44.654 18c-2.883 0-5.167-.806-6.853-2.417-1.685-1.62-2.527-3.812-2.527-6.577 0-2.774.842-4.966 2.527-6.577C39.487.809 41.771 0 44.654 0A11.388 11.388 0 0 1 50 1.29v3.59c-.827-.565-1.643-.98-2.447-1.243a8.104 8.104 0 0 0-2.54-.395c-1.591 0-2.844.511-3.756 1.534-.912 1.023-1.368 2.433-1.368 4.23 0 1.79.456 3.195 1.368 4.218.912 1.023 2.165 1.534 3.757 1.534.889 0 1.735-.132 2.54-.395.803-.264 1.619-.678 2.446-1.244v3.591Z"/></svg>