<svg xmlns="http://www.w3.org/2000/svg" width="120" height="21" fill="none"><path fill="#000" d="M20.89 0h.227l.427.001h.199l.358.001h.157l.369.002h.195l.065.061v.57c0 .158-.088.236-.263.236-.858.04-1.034.126-1.348.578-.171.247-.51.777-.86 1.372l-3.011 5.63-.084.176 3.68 7.53.222.06L27.02 2.463c.2-.554.17-.948-.09-1.179-.259-.225-.442-.359-1.113-.386l-.544-.028A.32.32 0 0 1 25.082.8a.198.198 0 0 1-.091-.167V.061l.083-.06h6.548l.067.06v.572c0 .155-.089.234-.264.234-.858.038-1.494.224-1.905.556-.413.335-.735.796-.966 1.395 0 0-1.646 3.766-3.42 7.809l-.306.695c-1.326 3.018-2.676 6.079-3.429 7.752-.698 1.33-1.384 1.208-1.988-.038a278.242 278.242 0 0 1-2.184-4.689l-.4-.874c-.311-.682-.616-1.35-.895-1.966-.32.66-.67 1.38-1.028 2.112l-.28.572-.141.286-.28.57c-.793 1.606-1.551 3.116-2.03 4.006-.815 1.415-1.486 1.23-2.02.036C8.302 14.718 4.498 7.043 2.707 2.741c-.331-.792-.58-1.3-.816-1.502C1.653 1.04 1.16.921.412.881.137.85 0 .784 0 .676v-.6L.067.019.674.016 1.822.015h1.393l1.974.001h.257l1.082.001h.165l.493.001.066.059v.57c0 .158-.1.234-.296.234l-.743.03c-.638.027-.956.218-.956.571 0 .164.067.431.215.791 1.426 3.475 6.352 13.86 6.352 13.86l.18.048 3.176-6.333c-.389-.858-.636-1.407-.636-1.407l-2.183-4.29s-.422-.858-.566-1.143c-.96-1.9-.938-2.002-1.908-2.13-.271-.035-.412-.07-.412-.205V.072l.082-.059H10.358L12.05.012h3.155l.15.049V.66c0 .137-.098.207-.297.207l-.41.058c-1.035.08-.865.504-.178 1.874l2.094 4.284 2.317-4.619c.361-.789.316-1.026.179-1.213l-.031-.04c-.092-.11-.4-.286-1.07-.313l-.264-.029a.315.315 0 0 1-.19-.068.196.196 0 0 1-.09-.168v-.57l.082-.059L18.5 0h2.392ZM33.64 17.157c.013.432.039.763.078.992.046.223.144.4.295.531.15.125.318.203.501.236.184.026.475.05.875.069a.319.319 0 0 1 .089.236c0 .091-.03.167-.089.226a34.963 34.963 0 0 1-1.238-.06c-.538-.026-.99-.039-1.357-.039-.373 0-.835.014-1.385.04-.544.032-.954.052-1.23.059a.306.306 0 0 1-.088-.226.32.32 0 0 1 .089-.236c.4-.02.691-.043.875-.07.183-.032.35-.11.5-.235a.88.88 0 0 0 .286-.53c.046-.23.075-.561.088-.993.04-1.671.06-3.093.06-4.266 0-1.22-.02-2.664-.06-4.335a6.163 6.163 0 0 0-.088-.983.845.845 0 0 0-.285-.53.96.96 0 0 0-.501-.236 7.673 7.673 0 0 0-.875-.08.306.306 0 0 1-.089-.225.32.32 0 0 1 .089-.236c.288.007.701.026 1.238.059.538.026.99.04 1.357.04.373 0 .832-.014 1.376-.04.55-.033.963-.052 1.238-.059a.319.319 0 0 1 .089.236c0 .092-.03.167-.089.226-.268.013-.475.026-.619.04a2.202 2.202 0 0 0-.442.088.715.715 0 0 0-.325.177c-.065.072-.13.18-.196.324a1.914 1.914 0 0 0-.128.491c-.02.177-.033.413-.04.708-.039 1.514-.058 2.965-.058 4.354 0 1.173.02 2.589.059 4.247ZM41.222 17.157c.013.432.04.763.078.992.046.223.145.4.295.531.15.125.318.203.502.236.183.026.475.05.874.069a.319.319 0 0 1 .089.236c0 .091-.03.167-.089.226a36.039 36.039 0 0 1-1.248-.06c-.537-.026-.986-.039-1.347-.039-.373 0-.835.014-1.386.04-.543.032-.953.052-1.228.059a.306.306 0 0 1-.089-.226c0-.099.03-.177.089-.236a22.4 22.4 0 0 0 .472-.02c.124-.013.252-.03.383-.05.131-.025.23-.055.295-.087.072-.04.144-.089.216-.148a.568.568 0 0 0 .167-.216 2.12 2.12 0 0 0 .167-.747c.013-.157.023-.344.03-.56.052-2.228.079-3.65.079-4.266 0-.662-.027-2.107-.08-4.335a9.953 9.953 0 0 0-.029-.55 2.155 2.155 0 0 0-.059-.433 1.57 1.57 0 0 0-.108-.314.485.485 0 0 0-.167-.217.847.847 0 0 0-.216-.147.83.83 0 0 0-.295-.088 2.668 2.668 0 0 0-.383-.05 6.404 6.404 0 0 0-.472-.03.306.306 0 0 1-.089-.225c0-.098.03-.177.089-.236.288.007.698.026 1.228.059.538.026.987.04 1.347.04.374 0 .836-.014 1.386-.04.557-.033.973-.052 1.248-.059a.319.319 0 0 1 .089.236c0 .092-.03.167-.089.226-.4.02-.691.046-.874.079a.96.96 0 0 0-.502.235.886.886 0 0 0-.295.531c-.039.223-.065.55-.078.983-.04 1.534-.06 2.837-.06 3.912a2.689 2.689 0 0 0 1.829-.894l3.224-3.539c.196-.216.308-.406.334-.57.026-.17-.02-.305-.138-.403a1.245 1.245 0 0 0-.422-.226 1.883 1.883 0 0 0-.54-.108.306.306 0 0 1-.09-.226c0-.098.03-.177.09-.236.288.007.684.026 1.189.059.51.026.907.04 1.189.04.282 0 .629-.014 1.042-.04.413-.033.77-.052 1.071-.059a.319.319 0 0 1 .089.236c0 .092-.03.167-.089.226a4.384 4.384 0 0 0-2.742 1.386l-2.959 3.037c-.216.223-.38.406-.491.55a1.477 1.477 0 0 0-.187.285.573.573 0 0 0-.02.158c0 .144.086.311.256.501l4.413 5.23c.492.608 1.15.979 1.976 1.11a.319.319 0 0 1 .088.236c0 .091-.03.167-.088.226a24.716 24.716 0 0 1-1.14-.06c-.459-.026-.826-.039-1.101-.039-.223 0-.416.014-.58.04a2.924 2.924 0 0 1-.384.059c-.065 0-.098-.04-.098-.118-.052-.407-.295-.891-.727-1.455l-3.165-3.98a2.18 2.18 0 0 0-.806-.62 2.66 2.66 0 0 0-1.022-.246c0 1.14.02 2.517.059 4.129ZM55.98 17.157c.012.432.038.763.078.992.046.223.144.4.295.531.15.125.317.203.5.236.184.026.476.05.876.069a.319.319 0 0 1 .088.236c0 .091-.03.167-.088.226a34.966 34.966 0 0 1-1.239-.06c-.537-.026-.99-.039-1.356-.039-.374 0-.836.014-1.386.04-.544.032-.953.052-1.229.059a.306.306 0 0 1-.088-.226c0-.099.03-.177.088-.236.4-.02.692-.043.875-.07.184-.032.35-.11.501-.235a.88.88 0 0 0 .285-.53c.046-.23.076-.561.089-.993.04-1.671.059-3.093.059-4.266 0-1.22-.02-2.664-.06-4.335a6.163 6.163 0 0 0-.088-.983.845.845 0 0 0-.285-.53.96.96 0 0 0-.5-.236 7.677 7.677 0 0 0-.876-.08.306.306 0 0 1-.088-.225c0-.098.03-.177.088-.236.289.007.701.026 1.239.059.537.026.99.04 1.356.04.374 0 .832-.014 1.376-.04.55-.033.963-.052 1.239-.059a.319.319 0 0 1 .088.236c0 .092-.03.167-.088.226-.269.013-.475.026-.62.04a2.205 2.205 0 0 0-.442.088.714.714 0 0 0-.324.177c-.066.072-.131.18-.197.324a1.914 1.914 0 0 0-.128.491 8.45 8.45 0 0 0-.039.708c-.04 1.514-.059 2.965-.059 4.354 0 1.173.02 2.589.06 4.247ZM65.33 8.556c-.013-.629-.088-1.055-.226-1.278-.13-.222-.38-.334-.747-.334h-1.18c-1.388 0-2.276.78-2.663 2.34-.157 0-.318-.033-.481-.099a21.56 21.56 0 0 0 .5-2.978c0-.04.03-.059.09-.059 1.873.144 3.436.216 4.688.216h1.73c1.323 0 2.827-.072 4.511-.216.013 0 .026.01.04.03.013.013.02.022.02.029.019.937.104 1.91.255 2.92a1.15 1.15 0 0 1-.482.098c-.334-1.52-1.264-2.28-2.791-2.28h-.649c-.36 0-.603.107-.727.324-.125.21-.197.638-.217 1.287-.026.904-.039 2.356-.039 4.354 0 1.717.013 3.133.04 4.247.006.281.022.52.049.717.032.19.088.354.167.492.078.13.16.235.245.314a.997.997 0 0 0 .384.177c.17.046.33.075.481.088.151.014.364.027.64.04a.319.319 0 0 1 .088.236c0 .091-.03.167-.089.226a48.008 48.008 0 0 1-1.297-.06c-.59-.026-1.088-.039-1.494-.039-.413 0-.924.014-1.534.04-.602.032-1.032.052-1.287.059a.306.306 0 0 1-.089-.226c0-.099.03-.177.089-.236.275-.013.488-.026.639-.04.15-.013.311-.042.481-.088a.997.997 0 0 0 .384-.177c.085-.079.167-.183.245-.314.079-.138.135-.302.168-.492.032-.197.052-.436.058-.717.027-1.121.04-2.543.04-4.266 0-1.855-.013-3.3-.04-4.335ZM79.606 12.163c.374 0 .655-.016.845-.049.21-.026.384-.059.521-.098a.478.478 0 0 0 .295-.256 1.2 1.2 0 0 0 .128-.373c.026-.125.046-.315.059-.57a.294.294 0 0 1 .216-.089c.092 0 .167.03.226.089-.006.13-.023.39-.049.776-.02.38-.03.698-.03.954 0 .216.01.478.03.786.026.308.043.57.05.786a.306.306 0 0 1-.227.089.294.294 0 0 1-.216-.089 4.665 4.665 0 0 0-.05-.491 1.198 1.198 0 0 0-.137-.364.594.594 0 0 0-.295-.285 2.381 2.381 0 0 0-.52-.157 4.795 4.795 0 0 0-.846-.059l-2.359-.02c-.013 2.353 0 4.092.04 5.22.006.268.075.481.206.638.138.151.318.227.54.227h3.136c1.238 0 2.126-.967 2.664-2.9.15-.02.239-.026.265-.02.026.007.098.046.216.118a27.347 27.347 0 0 1-.727 3.42 44.503 44.503 0 0 0-2.575-.098H76.54c-.204 0-.617.014-1.239.04-.623.032-1.094.052-1.415.059a.306.306 0 0 1-.089-.226.32.32 0 0 1 .089-.236c.268-.013.475-.026.619-.04.144-.013.288-.042.432-.088a.714.714 0 0 0 .325-.177c.065-.072.127-.177.186-.314.06-.145.099-.308.118-.492.02-.19.036-.43.05-.717.026-1.101.039-2.523.039-4.266 0-1.79-.013-3.234-.04-4.335a12.05 12.05 0 0 0-.049-.708 1.694 1.694 0 0 0-.118-.491 1.115 1.115 0 0 0-.186-.324.714.714 0 0 0-.325-.177 2.028 2.028 0 0 0-.432-.089c-.144-.013-.35-.026-.62-.04a.306.306 0 0 1-.088-.225.32.32 0 0 1 .089-.236c.334.007.802.026 1.405.059.603.026 1.006.04 1.21.04h5.877c.144 0 .269-.007.373-.02.105-.014.223-.033.354-.06.138-.032.233-.052.285-.058.053 0 .079.02.079.059.02.085.085.507.197 1.268.118.753.2 1.323.245 1.71-.177.092-.337.124-.481.098-.256-.8-.466-1.333-.63-1.602-.38-.557-.923-.842-1.631-.855h-3.135c-.23 0-.41.085-.541.255a1.108 1.108 0 0 0-.206.63c-.02.49-.033 1.104-.04 1.837-.006.728-.01 1.334-.01 1.819l.01.737 2.36-.02ZM89.754 17.157c.013.432.039.763.078.992.046.223.144.4.295.531.15.125.318.203.501.236.184.026.475.05.875.069a.319.319 0 0 1 .089.236c0 .091-.03.167-.089.226a36.039 36.039 0 0 1-1.248-.06c-.537-.026-.986-.039-1.347-.039-.373 0-.835.014-1.386.04-.543.032-.953.052-1.228.059a.306.306 0 0 1-.089-.226.32.32 0 0 1 .089-.236 22.4 22.4 0 0 0 .472-.02c.124-.013.252-.03.383-.05.131-.025.23-.055.295-.087.072-.04.144-.089.216-.148a.57.57 0 0 0 .167-.216 2.12 2.12 0 0 0 .167-.747c.013-.157.023-.344.03-.56a245.2 245.2 0 0 0 .078-4.266c0-.662-.026-2.107-.078-4.335a9.965 9.965 0 0 0-.03-.55 2.162 2.162 0 0 0-.059-.433 1.577 1.577 0 0 0-.108-.314.486.486 0 0 0-.167-.217.847.847 0 0 0-.216-.147.83.83 0 0 0-.295-.088 2.671 2.671 0 0 0-.383-.05 6.404 6.404 0 0 0-.472-.03.306.306 0 0 1-.089-.225.32.32 0 0 1 .089-.236c.288.007.698.026 1.228.059.538.026.987.04 1.347.04.374 0 .835-.014 1.386-.04.557-.033.973-.052 1.248-.059a.319.319 0 0 1 .089.236c0 .092-.03.167-.089.226-.4.02-.691.046-.875.079a.96.96 0 0 0-.5.235.886.886 0 0 0-.296.531c-.039.223-.065.55-.078.983-.04 1.534-.06 2.837-.06 3.912a2.689 2.689 0 0 0 1.829-.894l3.224-3.539c.196-.216.308-.406.334-.57.026-.17-.02-.305-.138-.403a1.244 1.244 0 0 0-.422-.226 1.882 1.882 0 0 0-.54-.108.306.306 0 0 1-.09-.226.32.32 0 0 1 .09-.236c.288.007.684.026 1.189.059.51.026.907.04 1.189.04.282 0 .629-.014 1.042-.04.413-.033.77-.052 1.071-.059a.319.319 0 0 1 .089.236c0 .092-.03.167-.089.226a4.384 4.384 0 0 0-2.742 1.386L92.77 11.15c-.216.223-.38.406-.491.55a1.47 1.47 0 0 0-.187.285.573.573 0 0 0-.02.158c0 .144.086.311.256.501l4.413 5.23c.492.608 1.15.979 1.976 1.11a.319.319 0 0 1 .088.236c0 .091-.03.167-.088.226a24.713 24.713 0 0 1-1.14-.06c-.46-.026-.826-.039-1.101-.039-.223 0-.416.014-.58.04a2.923 2.923 0 0 1-.384.059c-.065 0-.098-.04-.098-.118-.052-.407-.295-.891-.727-1.455l-3.165-3.98a2.18 2.18 0 0 0-.806-.62 2.66 2.66 0 0 0-1.022-.246c0 1.14.02 2.517.059 4.129ZM107.322 11.06h5.196l-2.797-8.064h-.085l-3.053 7.524c-.066.161-.037.294.086.398.132.095.35.142.653.142Zm-3.294 6.076a.82.82 0 0 0-.1.469c.029.132.062.246.1.34.038.095.118.18.241.256.133.076.256.137.369.185.114.047.256.085.426.113.18.029.341.052.483.071.142.02.303.033.483.043a.46.46 0 0 1 .127.34.442.442 0 0 1-.127.327c-.284-.01-.767-.038-1.448-.085a31.508 31.508 0 0 0-1.69-.057c-.416 0-.928.02-1.533.057a30.88 30.88 0 0 1-1.349.085.442.442 0 0 1-.128-.326.46.46 0 0 1 .128-.341c.71-.047 1.282-.213 1.718-.497.445-.284.842-.833 1.192-1.647L109.664.582c.341 0 .847-.194 1.519-.582l6.077 16.923c.104.284.227.53.369.739.151.198.298.355.44.468.142.114.327.208.554.284.236.066.431.109.582.128.161.019.383.042.667.07a.461.461 0 0 1 .128.342.443.443 0 0 1-.128.326c-.255-.01-.795-.038-1.618-.085a43.575 43.575 0 0 0-1.903-.057c-.435 0-1.121.02-2.058.057-.928.047-1.51.076-1.747.085a.442.442 0 0 1-.127-.326.46.46 0 0 1 .127-.341c.928-.066 1.505-.142 1.732-.227.464-.17.606-.52.426-1.05l-1.845-5.353h-6.063c-.321 0-.553.052-.695.156-.133.104-.242.265-.327.483l-1.746 4.514Z"/></svg>