<svg xmlns="http://www.w3.org/2000/svg" width="120" height="22" fill="none"><path fill="#0B2645" d="M2.87 16.532a46.097 46.097 0 0 1-1.34 5.264L0 21.353c.549-1.49 1.004-3.192 1.365-5.109l1.505.288Zm-.823-9.09c.8-.015 1.812-.06 3.036-.133a80.455 80.455 0 0 0 1.953-3.361l1.576.73a63.915 63.915 0 0 1-5.812 8.16 122.22 122.22 0 0 0 3.553-.486 45.452 45.452 0 0 0-.87-1.924l1.364-.553a98.233 98.233 0 0 1 2.024 4.6l-1.459.575a58.93 58.93 0 0 0-.47-1.239c-2.244.295-4.275.605-6.095.93l-.353-1.593c1.16-1.047 2.392-2.536 3.694-4.468-1.788.074-2.996.192-3.623.354l-.377-1.46C1.835 5.379 3.278 2.93 4.518.233l1.6.642c-1.428 2.55-2.785 4.74-4.07 6.568Zm3.177 8.802a74.47 74.47 0 0 1 .823 4.203l-1.6.331a36.059 36.059 0 0 0-.612-4.29l1.389-.244Zm2.541-.619a75.563 75.563 0 0 1 1.6 3.915l-1.53.509a73.835 73.835 0 0 0-1.388-4.026l1.318-.398Zm-.33-6.812c2.103-2.536 3.75-5.396 4.942-8.58l1.812.552A63.524 63.524 0 0 1 12.4 4.324h10.825v1.504h-4.918v3.34h4.612v1.503h-4.612v3.34h4.565v1.504h-4.565v3.428h5.153v1.504H11.906v1.548h-1.74V8.04a48.36 48.36 0 0 1-1.554 2.233 9.161 9.161 0 0 0-1.177-1.46Zm4.471.354h4.66v-3.34h-4.66v3.34Zm0 4.844h4.66v-3.34h-4.66v3.34Zm0 4.931h4.66v-3.428h-4.66v3.428ZM15.624 1.14l1.459-.863c.894 1.062 1.64 2.064 2.236 3.008l-1.553.93a29.359 29.359 0 0 0-2.142-3.075Zm31.979 15.436a24.853 24.853 0 0 0-1.27 1.592 21.047 21.047 0 0 1-3.977-2.3v1.216h-5.624v2.3h9.2v1.438H25.768v-1.437h9.2v-2.3h-5.694v-1.206a26.333 26.333 0 0 1-3.906 2.555 14.674 14.674 0 0 0-1.224-1.394c2.416-1.105 4.506-2.506 6.271-4.202h-6.012v-1.437h4.682V3.99h-3.953V2.555h3.953V.166h1.765v2.388h10.095V.166h1.765v2.388h3.953v1.438H42.71V11.4h4.612v1.437h-6.188c1.764 1.652 3.921 2.897 6.47 3.738Zm-12.636-3.03h1.765v2.145h5.388a20.59 20.59 0 0 1-3.07-2.853h-6.483c-.98 1.047-2 1.998-3.06 2.853h5.46v-2.145ZM30.849 5.54h10.095V3.992H30.849V5.54Zm0 2.92h10.095V6.91H30.849v1.55Zm0 2.94h10.095V9.83H30.849v1.57Z"/><path fill="#0A4E98" d="m55.447 15.037-1.374-1.834h.988l1.735-1.585.049-.181-.169-.091h-2.313a38.973 38.973 0 0 1-3.566 2.31l-1.23-1.427c2.434-1.268 4.53-2.717 6.266-4.348h-6.097V6.137h4.434v-2.31h-3.663V2.061h3.663V0h1.952v2.06h3.638v1.065L61.206.657l1.614.838a45.093 45.093 0 0 1-3.06 4.642h1.88v1.744h-3.422l-.699.725-1.277 1.155h2.915l1.302 1.132-3.711 3.035.458.724c1.855-.452 3.3-.86 4.313-1.2l.578 1.767c-.867.294-2.265.679-4.12 1.132.313.838.482 1.517.482 2.083 0 1.133-1.085 2.582-3.325 2.582-.892 0-1.952-.227-3.157-.657l.072-2.015c1.325.68 2.313.996 2.964.996.482 0 1.47-.407 1.47-1.494a3.43 3.43 0 0 0-.217-1.11l-5.807 1.065-.554-1.79 5.542-.974Zm3.229-10.259.626-.951h-3.18v2.31h1.421l1.133-1.359Zm.915 14.63c2.458-1.133 4.458-2.672 5.928-4.575-.77-1.45-1.349-3.26-1.71-5.412a20.616 20.616 0 0 1-.988 2.037l-1.952-.497c1.88-3.443 2.82-7.066 2.82-10.826l1.951.023-.169 2.129h6.41V4.12h-1.493v1.291c0 2.808-.675 5.594-2 8.334l-.82 1.336c.964 1.427 2.458 3.058 4.483 4.869l-1.832.996c-1.59-1.63-2.843-3.102-3.71-4.416-1.374 1.586-3.23 3.058-5.495 4.349l-1.423-1.472ZM65.326 4.12a24.152 24.152 0 0 0-.072 1.812c0 1.336.12 2.582.337 3.691a15.364 15.364 0 0 0 1.037 3.556c1.204-2.174 1.855-4.756 1.903-7.768v-1.29h-3.205Zm14.554 6.863v9.987h-2.024v-9.33a22.66 22.66 0 0 1-2.362 3.918l-1.928-.702a21.293 21.293 0 0 0 3.928-6.885h-3.566V6.046h3.928V2.899l-3.447.203-.24-1.925c3.638-.18 6.506-.566 8.65-1.087l.338 1.902-3.278.657v3.397h3.398V7.97h-3.398v.294a59.34 59.34 0 0 1 3.976 4.688l-1.614 1.178-2.361-3.148Zm11.71 4.371-9.036 1.45-.506-1.88 9.543-1.517V.09h2.048v12.977l2.024-.34.313 1.902-2.337.408v5.866H91.59v-5.549Zm-3.71-3.465c-1.037-1.246-2.386-2.582-3.976-3.963l1.494-1.269c1.951 1.834 3.325 3.194 4.072 4.054l-1.59 1.178Zm1.3-5.119C88 5.343 86.578 3.894 84.915 2.445l1.518-1.291c2.097 1.97 3.542 3.465 4.362 4.439L89.18 6.77Zm18.795 4.372v-.951h-8.53V8.628h8.53v-.996h-8.024V6.046h8.024V5.05H98.12V3.487h9.855V2.4h-7.951V.838h7.951V0h2.024v.838h7.302c.41 0 .627.18.627.543v2.106h1.976V5.05h-1.976v1.993c0 .385-.217.589-.627.589h-7.302v.996h8.579v1.563h-8.579v.951H120v1.653H97.927v-1.653h10.048Zm-5.59 9.082v.656h-2.048v-6.703c0-.408.217-.612.627-.612h16.072c.458 0 .699.204.699.634v6.68h-2.048v-.655h-13.302Zm0-4.077h13.302v-.77c0-.136-.097-.227-.29-.227h-12.723c-.216 0-.313.091-.289.25v.747Zm13.301 1.562h-13.301v.952h13.301v-.952Zm-5.687-15.308v1.087h5.88v-.929c0-.113-.072-.158-.193-.158h-5.687Zm0 2.649v.996h5.688c.12 0 .192-.068.192-.18V5.05h-5.88Z"/></svg>