<?xml version="1.0" encoding="UTF-8"?>
<svg width="120px" height="12px" viewBox="0 0 120 12" version="1.1" xmlns="http://www.w3.org/2000/svg" xmlns:xlink="http://www.w3.org/1999/xlink">
    <title>udm-tagline</title>
    <g id="Page-1" stroke="none" stroke-width="1" fill="none" fill-rule="evenodd">
        <path d="M2.64823127,8.87536648 C5.50482091,8.87536648 7.21877992,6.8823922 7.71037864,4.42439677 C8.26841066,1.64752589 7.00619353,8.8817842e-16 4.8006405,8.8817842e-16 C3.11325961,8.8817842e-16 2.46221985,0.558032024 1.70489142,0.597891455 C1.50559445,1.31536028 1.26643741,1.96639856 1.00070815,2.65729535 L1.38601597,2.71044126 C1.95733392,1.56780518 2.92724912,0.491599641 4.76078107,0.491599641 C5.81041172,0.491599641 7.13906014,1.47480169 6.58102839,4.30481847 L6.56774191,4.31810495 C5.83698643,3.86636474 4.99993747,3.70692702 4.82721346,3.70692702 C3.99016625,3.70692702 3.31255437,4.21181314 2.52865298,4.21181314 C2.02376741,4.21181314 1.85104257,3.99922951 1.74475085,3.99922951 C1.69160503,3.99922951 1.62517256,4.05237542 1.5985996,4.15866723 C1.53216731,4.49082823 2.28949722,4.87613698 3.07339852,4.87613698 C3.96359154,4.87613698 4.44190637,4.45096972 5.21252128,4.45096972 C5.71740694,4.45096972 6.07614264,4.54397506 6.47473658,4.74327221 C5.92999158,6.84253277 4.65448732,8.4103398 2.6880907,8.4103398 C1.67831948,8.4103398 1.23986464,7.95859866 1.16014587,7.42714052 C1.0804271,6.93554088 0.960848347,6.576806 0.57554089,6.576806 C0.24337934,6.576806 0.0706546804,6.82924906 0.0175088656,7.0949786 C-0.181788101,8.07817696 1.35944431,8.87536648 2.64823127,8.87536648 M10.4220655,4.61040744 C10.8605192,3.90622417 11.5912764,3.52091634 12.0430157,3.52091634 C12.8534898,3.52091634 13.2653715,4.37125178 12.9464961,5.97891455 C12.7073404,7.1215497 12.2024525,8.42362627 10.7808004,8.42362627 C10.5682177,8.42362627 10.129763,8.3970524 9.77102815,7.85230777 L10.4220655,4.61040744 M10.740941,3.04260318 L10.714368,3.01603023 C10.714368,3.01603023 10.408779,3.04260318 10.2227684,3.04260318 C9.75774259,3.04260318 8.85426125,3.01603023 8.85426125,3.01603023 L8.8276883,3.04260318 L8.77454239,3.29504624 C8.76125591,3.36147862 8.78782887,3.40133805 8.85426125,3.40133805 L9.10670431,3.42791101 C9.53187157,3.48105691 9.63816338,3.64049464 9.55844452,4.01251599 L8.18993741,10.8550515 C8.12350503,11.227072 7.89763492,11.3997971 7.49904062,11.4396565 L7.24659756,11.4662295 C7.18016518,11.4795159 7.12701927,11.5060889 7.11373279,11.5725213 L7.07387336,11.8249643 L7.08715984,11.8515373 C7.08715984,11.8515373 8.00392766,11.8249643 8.46895342,11.8249643 C8.98712602,11.8249643 9.89060644,11.8515373 9.89060644,11.8515373 L9.93046587,11.8249643 L9.9703253,11.5725213 C9.98361178,11.5060889 9.94375235,11.4795159 9.87731996,11.4662295 L9.6248769,11.4396565 C9.21299705,11.3997971 9.10670431,11.227072 9.17313669,10.8550515 L9.6248769,8.583064 C9.94375235,8.76907375 10.2892017,8.87536648 10.7675139,8.87536648 C11.4584107,8.87536648 12.0563031,8.64949546 12.6807666,8.13132378 C13.3982363,7.52014585 13.9031233,6.69638245 14.1157061,5.62017967 C14.3947221,4.21181406 13.8101162,2.90973841 12.5213288,2.90973841 C12.0961625,2.90973841 11.352118,3.0426041 10.5549303,3.97265655 L10.5150708,3.97265655 L10.740941,3.04260318 M17.0513946,3.04260318 C16.480077,3.04260318 15.6031686,3.01603023 15.6031686,3.01603023 L15.5633092,3.04260318 L15.4968768,3.33490567 C15.4968768,3.38805158 15.5101633,3.40133805 15.5633092,3.40133805 L15.9619035,3.42791101 C16.4402167,3.46777044 16.4667896,3.57406225 16.3472113,4.13209428 L15.6297416,7.719443 C15.5367363,8.18446877 15.4703039,8.33062094 14.9787042,8.35719389 L14.553537,8.38376684 C14.5136776,8.39705332 14.4871046,8.4103398 14.4738181,8.45019923 L14.4206722,8.74250172 L14.4339587,8.76907467 C14.9654178,8.75578819 15.33744,8.74250172 15.9087576,8.74250172 C16.3339249,8.74250172 16.4535041,8.75578819 16.9849622,8.76907467 L16.9982487,8.74250172 L17.0513946,8.4634857 C17.0646811,8.4103398 17.0381081,8.39705332 16.9849622,8.38376684 C16.5465094,8.34390741 16.533222,8.19775525 16.5996544,7.87888073 L16.5996544,7.85230777 L20.0009925,4.55726153 L19.376528,7.69287005 C19.2835227,8.15789582 19.1905174,8.33062094 18.6989177,8.35719389 L18.2737505,8.38376684 C18.233891,8.39705332 18.2073181,8.4103398 18.1940316,8.45019923 L18.1408857,8.74250172 L18.1674587,8.76907467 C18.6989177,8.75578819 19.0576535,8.74250172 19.6289711,8.74250172 C20.2268626,8.74250172 20.6254578,8.75578819 21.1569159,8.76907467 L21.1702024,8.74250172 L21.2233483,8.4634857 C21.2366348,8.4103398 21.2100618,8.39705332 21.1569159,8.38376684 L20.7716081,8.35719389 C20.3065823,8.33062094 20.266722,8.18446877 20.3730138,7.69287005 L21.0904836,4.1188078 C21.1967754,3.56077578 21.2499222,3.46777044 21.7548074,3.42791101 L22.1534017,3.40133805 C22.2065476,3.40133805 22.246407,3.3747651 22.2596935,3.32161919 L22.3128394,3.04260318 L22.2995529,3.01603023 C22.2995529,3.01603023 21.3694996,3.04260318 20.7716081,3.04260318 C20.3995877,3.04260318 19.8016953,3.01603023 19.8016953,3.01603023 L19.7751224,3.04260318 L19.70869,3.33490567 C19.70869,3.38805158 19.7219764,3.40133805 19.7618359,3.40133805 C20.2135761,3.44119748 20.1737167,3.66706759 20.1205707,3.98594303 L16.7192327,7.28098927 L17.3569836,4.1188078 C17.4632754,3.57406225 17.5164222,3.46777044 18.0345939,3.42791101 L18.4331882,3.40133805 C18.4863341,3.40133805 18.5261935,3.3747651 18.53948,3.32161919 L18.5926259,3.04260318 L18.566053,3.01603023 C18.566053,3.01603023 17.6359996,3.04260318 17.0513946,3.04260318 M22.0759664,8.74250172 L22.1025394,8.76907467 C22.1025394,8.76907467 23.0060207,8.74250172 23.4710465,8.74250172 C23.9892191,8.74250172 24.7598348,8.76907467 24.7598348,8.76907467 L24.7864077,8.74250172 L24.8395536,8.49005866 C24.8528401,8.42362627 24.7996942,8.39705332 24.7465483,8.38376684 C24.4675332,8.34390741 24.0822244,8.26418763 24.1752298,7.82573482 L24.5472511,5.96562807 C25.5304495,6.03206045 25.7297476,6.51037362 25.8360394,7.24112984 C25.9157582,7.8257339 26.1416293,8.74250172 26.8059522,8.75578819 L27.7625785,8.76907467 L27.8024379,8.74250172 L27.8555838,8.50334513 C27.8688703,8.4103398 27.775865,8.38376684 27.7227191,8.38376684 L27.6297137,8.37048037 C27.164688,8.30404798 26.8458116,7.14812358 26.7395198,6.64323839 C26.5933686,5.99220102 26.1682013,5.69989854 25.4507315,5.69989854 L25.464018,5.64675263 C25.9821906,5.50060138 26.3807858,5.04886025 26.6863739,4.5174021 C26.912244,4.10552132 27.217833,3.81321883 27.3506977,3.81321883 C27.470276,3.81321883 27.5632814,3.85307826 27.6297137,3.90622417 C27.7094326,3.97265655 27.8157244,4.02580246 27.9751621,4.02580246 C28.2541781,4.02580246 28.5331942,3.78664496 28.5863401,3.52091634 C28.639486,3.2020409 28.5597671,2.92302489 28.0150216,2.92302489 C27.3772716,2.92302489 26.8059522,3.64049464 26.4339308,4.26495904 C25.995478,4.99571434 25.5304495,5.50060138 24.6402565,5.50060138 L24.9458454,3.98594303 C25.0388508,3.50762987 25.3311542,3.44119748 25.7164611,3.40133805 C25.769607,3.40133805 25.8360394,3.33490567 25.8493259,3.26847329 L25.9024718,3.04260318 L25.8758988,3.01603023 C25.8758988,3.01603023 25.1318561,3.04260318 24.6136835,3.04260318 C24.1486577,3.04260318 23.2451764,3.01603023 23.2451764,3.01603023 L23.2186035,3.04260318 L23.1654575,3.29504624 C23.1521711,3.36147862 23.1920305,3.38805158 23.2451764,3.40133805 L23.4976195,3.42791101 C23.9095002,3.46777044 24.0157921,3.64049464 23.9360732,4.01251599 L23.178744,7.79916187 C23.1123116,8.17118229 22.9927333,8.30404798 22.5144202,8.35719389 L22.2486906,8.38376684 C22.1822583,8.39705332 22.1423988,8.42362627 22.1291124,8.49005866 L22.0759664,8.74250172 M28.8645257,6.01877398 C28.5987971,7.37399276 29.2099759,8.87536648 31.0833673,8.87536648 C33.0630505,8.87536648 34.2322632,7.22784152 34.4979918,5.89919569 C34.7770078,4.51740303 34.3651252,2.90973841 32.3057232,2.90973841 C30.5120506,2.90973841 29.1966876,4.33139235 28.8645257,6.01877398 M32.0665666,3.34819215 C33.2092027,3.34819215 33.6609438,4.3712527 33.2623495,6.32436294 C32.916902,8.07817603 32.0399936,8.43691275 31.4155292,8.43691275 C30.0337375,8.43691275 29.8610124,6.7362428 30.0735951,5.71318501 C30.2994652,4.55726246 30.9505044,3.34819215 32.0665666,3.34819215 M38.4694028,7.65301062 C38.336538,8.35719297 39.1735879,8.87536648 40.3826554,8.87536648 C41.6980157,8.87536648 43.2126759,7.94531034 43.6378422,5.80619035 C43.9567177,4.19852758 43.4651162,2.90973841 41.6980166,2.90973841 C41.0735531,2.90973841 40.4889472,3.12232204 39.8246234,3.16218147 C39.6784722,3.66706667 39.5323209,4.1188078 39.2665914,4.75655868 L39.5854668,4.80970459 C39.9840611,3.959371 40.5288076,3.32161919 41.512006,3.32161919 C42.6945015,3.32161919 42.8539401,4.46425712 42.6147835,5.68661206 L42.5749241,5.71318501 C42.2693361,5.50060138 41.9371732,5.34116366 41.5518654,5.34116366 C40.9805478,5.34116366 40.5553796,5.71318501 40.0903529,5.71318501 C39.9176287,5.71318501 39.7714775,5.63346615 39.6784722,5.63346615 C39.5987533,5.63346615 39.5456074,5.76633092 39.5323209,5.81947683 C39.4924615,6.00548658 40.0637809,6.24464408 40.6350985,6.24464408 C41.2329899,6.24464408 41.5252934,5.95234159 42.0301785,5.95234159 C42.2029027,5.95234159 42.3623405,6.0054875 42.5084917,6.07191989 C42.1896172,7.65300878 41.4455726,8.43691275 40.3295095,8.43691275 C39.7980514,8.43691275 39.4924615,8.11803639 39.4127426,7.75930244 C39.2931643,7.34742166 39.1602996,7.26770279 38.9344295,7.26770279 C38.6952738,7.26770279 38.5225487,7.44042699 38.4694028,7.65301062 M48.8147934,7.719443 C48.721788,8.2243282 48.6287827,8.33062094 48.1504695,8.35719389 L47.7917346,8.38376684 C47.7518752,8.39705332 47.7253023,8.4103398 47.7120158,8.45019923 L47.6588699,8.74250172 L47.6721563,8.76907467 C48.0707507,8.75578819 48.6287836,8.74250172 49.1070958,8.74250172 C49.5986955,8.74250172 50.0770096,8.75578819 50.4756029,8.76907467 L50.5021759,8.74250172 L50.5553218,8.4634857 C50.5686083,8.4103398 50.5420353,8.39705332 50.4888894,8.38376684 L50.2364464,8.35719389 C49.7847071,8.31733446 49.7049873,8.25090115 49.8112791,7.719443 L50.5553218,4.05237542 C50.6616136,3.50762987 50.7546199,3.48105691 51.2196456,3.42791101 L51.4853752,3.40133805 C51.5385211,3.40133805 51.5783805,3.3747651 51.591667,3.32161919 L51.6448129,3.04260318 L51.6315264,3.01603023 C51.232933,3.0293167 50.7413325,3.04260318 50.2497328,3.04260318 C49.7714206,3.04260318 49.2266741,3.0293167 48.8280798,3.01603023 L48.8015069,3.04260318 L48.7350745,3.33490567 C48.7350745,3.38805158 48.748361,3.40133805 48.7882204,3.40133805 L49.1336688,3.42791101 C49.5455496,3.46777044 49.6518414,3.5474893 49.5588361,4.05237542 L49.2665336,5.47402843 L46.5428058,5.47402843 L46.8351083,4.05237542 C46.9414001,3.50762987 47.0344064,3.48105691 47.4994322,3.42791101 L47.7651617,3.40133805 C47.8183076,3.40133805 47.858167,3.3747651 47.8714535,3.32161919 L47.9245994,3.04260318 L47.9113129,3.01603023 C47.5127196,3.0293167 47.0078325,3.04260318 46.5162329,3.04260318 C46.0379206,3.04260318 45.5064606,3.0293167 45.1078663,3.01603023 L45.0812934,3.04260318 L45.014861,3.33490567 C45.014861,3.38805158 45.0281475,3.40133805 45.0680069,3.40133805 L45.4134553,3.42791101 C45.8253361,3.46777044 45.9316279,3.5474893 45.8386226,4.05237542 L45.0945799,7.719443 C45.0015745,8.2243282 44.9085692,8.33062094 44.430256,8.35719389 L44.0715211,8.38376684 C44.0316617,8.39705332 44.0050888,8.4103398 43.9918023,8.45019923 L43.9386564,8.74250172 L43.9519429,8.76907467 C44.3505372,8.75578819 44.8952836,8.74250172 45.3735959,8.74250172 C45.8651955,8.74250172 46.3567961,8.75578819 46.7553895,8.76907467 L46.7819624,8.74250172 L46.8351083,8.4634857 C46.8483948,8.4103398 46.8218218,8.39705332 46.7686759,8.38376684 L46.5162329,8.35719389 C46.0644936,8.31733446 45.9847738,8.25090115 46.0910656,7.719443 L46.4498005,5.92576864 L49.1735282,5.92576864 L48.8147934,7.719443 M56.848337,4.06566189 L56.1574402,7.57329176 C56.0644348,8.02503105 55.984716,8.22432912 55.4931163,8.22432912 L53.8987391,8.22432912 C53.4337134,8.22432912 53.393853,8.06489048 53.5001448,7.57329176 L54.2043281,4.05237542 C54.3106199,3.50762987 54.3903397,3.48105691 54.8553655,3.42791101 L55.1343815,3.40133805 C55.1875274,3.40133805 55.2273868,3.3747651 55.2406733,3.32161919 L55.2938192,3.04260318 L55.2672462,3.01603023 C55.2672462,3.01603023 54.4169117,3.04260318 53.8854527,3.04260318 C53.3274215,3.04260318 52.4637996,3.01603023 52.4637996,3.01603023 L52.4505132,3.04260318 L52.3840808,3.33490567 C52.3840808,3.38805158 52.3973673,3.40133805 52.4505132,3.40133805 L52.7959616,3.42791101 C53.2344153,3.46777044 53.3008477,3.5474893 53.2078423,4.05237542 L52.4637996,7.77258891 C52.3575078,8.29076058 52.277789,8.30404798 51.8127623,8.35719389 L51.5736057,8.38376684 C51.5337463,8.39705332 51.5071733,8.4103398 51.4938868,8.4634857 L51.4407409,8.74250172 L51.4673139,8.76907467 C51.4673139,8.76907467 52.3043628,8.74250172 52.7029562,8.74250172 L55.9315701,8.74250172 C56.9812008,8.74250172 57.1672124,9.80541986 57.1804989,10.4564572 L57.5126608,10.4431707 L57.7916768,8.67606933 C57.8182498,8.45019923 57.685385,8.42362627 57.4595149,8.38376684 C57.2336457,8.34390741 57.0343476,8.13132286 57.1140665,7.73272948 L57.8448227,4.06566189 C57.964401,3.52091634 58.0574073,3.46777044 58.522433,3.42791101 L58.854595,3.40133805 C58.9077409,3.40133805 58.9476003,3.3747651 58.9476003,3.33490567 L59.0140327,3.04260318 L58.9874597,3.01603023 C58.9874597,3.01603023 58.1105523,3.04260318 57.5525202,3.04260318 C57.0210621,3.04260318 56.1972996,3.01603023 56.1972996,3.01603023 L56.1840131,3.04260318 L56.1175807,3.33490567 C56.1175807,3.38805158 56.1308672,3.40133805 56.1707267,3.40133805 L56.4497427,3.42791101 C56.8881964,3.48105691 56.9546288,3.5474893 56.848337,4.06566189 M61.3223504,3.04260318 C60.7510328,3.04260318 59.8741245,3.01603023 59.8741245,3.01603023 L59.834265,3.04260318 L59.7678326,3.33490567 C59.7678326,3.38805158 59.7811191,3.40133805 59.834265,3.40133805 L60.2328593,3.42791101 C60.7111725,3.46777044 60.7377454,3.57406225 60.6181672,4.13209428 L59.9006974,7.719443 C59.8076921,8.18446877 59.7412597,8.33062094 59.24966,8.35719389 L58.8244928,8.38376684 C58.7846334,8.39705332 58.7580604,8.4103398 58.7447739,8.45019923 L58.691628,8.74250172 L58.7049145,8.76907467 C59.2363736,8.75578819 59.6083958,8.74250172 60.1797134,8.74250172 C60.6048807,8.74250172 60.7244599,8.75578819 61.255918,8.76907467 L61.2692045,8.74250172 L61.3223504,8.4634857 C61.3356369,8.4103398 61.3090639,8.39705332 61.255918,8.38376684 C60.8174652,8.34390741 60.8041778,8.19775525 60.8706102,7.87888073 L60.8706102,7.85230777 L64.2719483,4.55726153 L63.6474839,7.69287005 C63.5544785,8.15789582 63.4614732,8.33062094 62.9698735,8.35719389 L62.5447063,8.38376684 C62.5048469,8.39705332 62.4782739,8.4103398 62.4649874,8.45019923 L62.4118415,8.74250172 L62.4384145,8.76907467 C62.9698735,8.75578819 63.3286093,8.74250172 63.8999269,8.74250172 C64.4978184,8.74250172 64.8964136,8.75578819 65.4278717,8.76907467 L65.4411582,8.74250172 L65.4943041,8.4634857 C65.5075906,8.4103398 65.4810177,8.39705332 65.4278717,8.38376684 L65.0425639,8.35719389 C64.5775382,8.33062094 64.5376778,8.18446877 64.6439696,7.69287005 L65.3614394,4.1188078 C65.4677312,3.56077578 65.520878,3.46777044 66.0257632,3.42791101 L66.4243575,3.40133805 C66.4775034,3.40133805 66.5173628,3.3747651 66.5306493,3.32161919 L66.5837952,3.04260318 L66.5705087,3.01603023 C66.5705087,3.01603023 65.6404554,3.04260318 65.0425639,3.04260318 C64.6705435,3.04260318 64.0726511,3.01603023 64.0726511,3.01603023 L64.0460782,3.04260318 L63.9796458,3.33490567 C63.9796458,3.38805158 63.9929323,3.40133805 64.0327917,3.40133805 C64.4845319,3.44119748 64.4446725,3.66706759 64.3915266,3.98594303 L60.9901885,7.28098927 L61.6279394,4.1188078 C61.7342312,3.57406225 61.787378,3.46777044 62.3055497,3.42791101 L62.704144,3.40133805 C62.7572899,3.40133805 62.7971493,3.3747651 62.8104358,3.32161919 L62.8635817,3.04260318 L62.8370088,3.01603023 C62.8370088,3.01603023 61.9069554,3.04260318 61.3223504,3.04260318 M66.3469223,8.74250172 L66.3734952,8.76907467 C66.3734952,8.76907467 67.2769766,8.74250172 67.7420023,8.74250172 C68.2601749,8.74250172 69.0307906,8.76907467 69.0307906,8.76907467 L69.0573635,8.74250172 L69.1105094,8.49005866 C69.1237959,8.42362627 69.07065,8.39705332 69.0175041,8.38376684 C68.738489,8.34390741 68.3531802,8.26418763 68.4461856,7.82573482 L68.8182069,5.96562807 C69.8014053,6.03206045 70.0007034,6.51037362 70.1069952,7.24112984 C70.186714,7.8257339 70.4125851,8.74250172 71.076908,8.75578819 L72.0335343,8.76907467 L72.0733937,8.74250172 L72.1265397,8.50334513 C72.1398261,8.4103398 72.0468208,8.38376684 71.9936749,8.38376684 L71.9006695,8.37048037 C71.4356438,8.30404798 71.1167674,7.14812358 71.0104756,6.64323839 C70.8643244,5.99220102 70.4391571,5.69989854 69.7216874,5.69989854 L69.7349738,5.64675263 C70.2531464,5.50060138 70.6517417,5.04886025 70.9573297,4.5174021 C71.1831998,4.10552132 71.4887888,3.81321883 71.6216535,3.81321883 C71.7412318,3.81321883 71.8342372,3.85307826 71.9006695,3.90622417 C71.9803884,3.97265655 72.0866802,4.02580246 72.2461179,4.02580246 C72.525134,4.02580246 72.80415,3.78664496 72.8572959,3.52091634 C72.9104418,3.2020409 72.8307229,2.92302489 72.2859774,2.92302489 C71.6482274,2.92302489 71.076908,3.64049464 70.7048866,4.26495904 C70.2664338,4.99571434 69.8014053,5.50060138 68.9112123,5.50060138 L69.2168012,3.98594303 C69.3098066,3.50762987 69.60211,3.44119748 69.9874169,3.40133805 C70.0405628,3.40133805 70.1069952,3.33490567 70.1202817,3.26847329 L70.1734276,3.04260318 L70.1468546,3.01603023 C70.1468546,3.01603023 69.4028119,3.04260318 68.8846393,3.04260318 C68.4196136,3.04260318 67.5161322,3.01603023 67.5161322,3.01603023 L67.4895593,3.04260318 L67.4364134,3.29504624 C67.4231269,3.36147862 67.4629863,3.38805158 67.5161322,3.40133805 L67.7685753,3.42791101 C68.1804561,3.46777044 68.2867479,3.64049464 68.207029,4.01251599 L67.4496998,7.79916187 C67.3832674,8.17118229 67.2636892,8.30404798 66.785376,8.35719389 L66.5196465,8.38376684 C66.4532141,8.39705332 66.4133546,8.42362627 66.4000682,8.49005866 L66.3469223,8.74250172 M72.4263158,8.13132378 C72.3465969,8.54320364 72.6256139,8.90193944 73.2102179,8.90193944 C73.8479688,8.90193944 74.273137,8.5697766 74.7115898,7.8390213 C75.0836111,7.20127041 75.4290595,5.84604886 75.6017837,4.94256936 C75.8143674,3.90622509 75.9206601,3.56077578 76.4255453,3.56077578 L77.0234367,3.56077578 C77.5017499,3.56077578 77.5150364,3.74678645 77.4220311,4.19852666 L76.7178478,7.75930244 C76.6381289,8.14460934 76.5052642,8.30404798 76.026951,8.35719389 L75.7612215,8.38376684 C75.6947891,8.39705332 75.6549296,8.42362627 75.6416432,8.49005866 L75.5884973,8.74250172 L75.6150702,8.76907467 C75.6150702,8.76907467 76.5185516,8.74250172 76.9968638,8.74250172 C77.5150364,8.74250172 78.4185168,8.76907467 78.4185168,8.76907467 L78.4450898,8.74250172 L78.4982357,8.49005866 C78.5115221,8.42362627 78.4583762,8.38376684 78.4052303,8.38376684 L78.1660738,8.35719389 C77.7409074,8.31733446 77.6346147,8.14460934 77.7143335,7.75930244 L78.4583762,4.05237542 C78.5513816,3.5474893 78.6045284,3.46777044 79.1227001,3.42791101 L79.4947214,3.40133805 C79.5744403,3.40133805 79.6142997,3.3747651 79.6275862,3.30833272 L79.6807321,3.04260318 L79.6408727,3.01603023 C79.6408727,3.01603023 78.7373923,3.04260318 78.1660738,3.04260318 L75.8542268,3.04260318 C75.3227686,3.04260318 74.4857197,3.01603023 74.4857197,3.01603023 L74.4458603,3.04260318 L74.4060008,3.25518681 C74.3794279,3.37476418 74.4325747,3.38805158 74.6451574,3.40133805 C75.3891992,3.45448396 75.3892001,3.64049556 75.1101841,5.0355747 C74.831169,6.43065291 74.578725,7.16141098 74.299709,7.70615653 C74.0339804,8.18446877 73.7948229,8.35719389 73.5822393,8.35719389 C73.4228015,8.35719389 73.3829421,8.25090115 73.3962286,8.07817788 C73.4095151,7.8390213 73.3962286,7.57329176 73.0374937,7.57329176 C72.7186192,7.57329176 72.4927482,7.8390213 72.4263158,8.13132378 M80.0122712,6.01877398 C79.7465426,7.37399276 80.3577215,8.87536648 82.2311128,8.87536648 C84.210796,8.87536648 85.3800088,7.22784152 85.6457374,5.89919569 C85.9247534,4.51740303 85.5128708,2.90973841 83.4534687,2.90973841 C81.6597962,2.90973841 80.3444331,4.33139235 80.0122712,6.01877398 M83.2143121,3.34819215 C84.3569482,3.34819215 84.8086893,4.3712527 84.410095,6.32436294 C84.0646476,8.07817603 83.1877392,8.43691275 82.5632748,8.43691275 C81.181483,8.43691275 81.0087579,6.7362428 81.2213406,5.71318501 C81.4472107,4.55726246 82.0982499,3.34819215 83.2143121,3.34819215 M87.9563387,4.07894837 L87.2255825,7.73272948 C87.1325772,8.19775525 87.0262853,8.33062094 86.5612587,8.35719389 L86.1493779,8.38376684 C86.096232,8.39705332 86.069659,8.4103398 86.0563725,8.45019923 L86.0032266,8.74250172 L86.0297996,8.76907467 C86.0297996,8.76907467 86.9332809,8.74250172 87.517885,8.74250172 C88.075917,8.74250172 88.966111,8.76907467 88.966111,8.76907467 L88.9793974,8.74250172 L89.0325433,8.4634857 C89.0458298,8.4103398 89.0192569,8.39705332 88.9793974,8.38376684 L88.633949,8.35719389 C88.1822097,8.33062094 88.1290629,8.23761468 88.2220683,7.73272948 L88.9528245,4.07894837 C89.0458298,3.61392168 89.3248468,3.56077578 89.6038618,3.56077578 L91.2115265,3.56077578 C91.477256,3.56077578 91.756272,3.58734873 91.6499802,4.07894837 L90.919224,7.73272948 C90.8262186,8.19775525 90.7199268,8.33062094 90.2549001,8.35719389 L89.8828788,8.38376684 C89.8430193,8.39705332 89.8164455,8.4103398 89.803159,8.45019923 L89.7500131,8.74250172 L89.7632996,8.76907467 C89.7632996,8.76907467 90.6534944,8.74250172 91.2248129,8.74250172 C91.7961314,8.74250172 92.7128983,8.76907467 92.7128983,8.76907467 L92.7261848,8.74250172 L92.7793307,8.4634857 C92.7926172,8.4103398 92.7660442,8.39705332 92.7128983,8.38376684 L92.3275905,8.35719389 C91.8625638,8.33062094 91.8094179,8.23761468 91.9024232,7.73272948 L92.6331795,4.06566189 C92.7527578,3.52091634 92.7926172,3.46777044 93.3107898,3.42791101 L93.7093841,3.40133805 C93.76253,3.40133805 93.8023894,3.3747651 93.8156759,3.32161919 L93.8688218,3.04260318 L93.8555353,3.01603023 C93.8555353,3.01603023 92.925482,3.04260318 92.3275905,3.04260318 L88.6472355,3.04260318 C88.0759179,3.04260318 87.1857231,3.01603023 87.1857231,3.01603023 L87.1591501,3.04260318 L87.0927177,3.33490567 C87.0927177,3.38805158 87.1060042,3.40133805 87.1458636,3.40133805 L87.5444579,3.42791101 C87.9961982,3.46777044 88.075917,3.52091634 87.9563387,4.07894837 M95.5090743,4.99571527 C96.0671063,3.49434431 97.0237326,3.3747651 97.3426081,3.3747651 C97.8474942,3.3747651 98.3922397,3.65378204 98.1663696,4.76984516 C98.1397967,4.88942253 98.0733643,4.95585584 97.927213,4.95585584 L95.5090743,4.99571527 M98.4985315,7.50685938 C97.9006401,8.01174457 97.4754728,8.22432912 96.7048572,8.22432912 C96.226544,8.22432912 95.7216579,7.94531219 95.4426419,7.26770279 C95.2699177,6.82924906 95.2300583,6.21807021 95.389496,5.44745548 L98.9104123,5.47402843 C99.06985,5.47402843 99.1761419,5.39430865 99.2160013,5.24815833 C99.4285849,4.1320952 99.2691472,2.93631137 97.4223269,2.93631137 C96.2664127,2.93631137 94.5524479,4.03909078 94.1405672,6.05863341 C93.9944159,6.80267518 94.0342754,7.52014585 94.3797237,8.02503197 C94.7251721,8.55649012 95.2832134,8.87536648 96.2398305,8.87536648 C97.2496027,8.87536648 98.060087,8.41033887 98.7244017,7.719443 C98.7111152,7.58657824 98.6446828,7.52014585 98.4985315,7.50685938 M99.0335245,10.4431707 L99.3789728,10.4564572 C99.5915565,9.96485758 100.176161,8.74250172 101.292226,8.74250172 L103.444635,8.74250172 C104.547412,8.74250172 104.693564,9.91171167 104.693564,10.4431707 L105.025725,10.4431707 L105.304741,8.66278286 C105.344601,8.47677218 105.264882,8.43691275 105.025725,8.38376684 C104.813142,8.34390741 104.534126,8.2243282 104.627131,7.73272948 L105.371174,4.05237542 C105.450893,3.60063521 105.61033,3.49434339 106.10193,3.42791101 L106.3278,3.40133805 C106.36766,3.40133805 106.434092,3.36147862 106.447378,3.30833272 L106.500524,3.04260318 L106.487238,3.01603023 C106.487238,3.01603023 105.517325,3.04260318 105.078871,3.04260318 L102.554441,3.04260318 C102.328571,3.04260318 101.292226,3.01603023 101.292226,3.01603023 L101.252366,3.04260318 L101.185934,3.33490567 C101.185934,3.38805158 101.212507,3.40133805 101.265653,3.40133805 L101.624387,3.42791101 C102.076128,3.46777044 102.102701,3.73349997 102.076128,3.89293769 C101.757252,5.47402658 101.265653,6.68309874 100.800626,7.81244834 C100.654475,8.17118229 100.25588,8.34390741 99.8971454,8.38376684 C99.7111348,8.4103398 99.5384106,8.43691275 99.4719782,8.67606933 L99.0335245,10.4431707 M101.19922,8.0648914 C101.252366,7.8390213 101.757252,6.92225071 102.554441,3.89293769 C102.567727,3.83979179 102.687306,3.5474893 102.992895,3.5474893 L103.936234,3.5474893 C104.427834,3.5474893 104.427834,3.74678645 104.334829,4.19852666 L103.670505,7.57329176 C103.5775,8.01174457 103.497781,8.22432912 103.006181,8.22432912 L101.42509,8.22432912 C101.292226,8.22432912 101.172647,8.21104172 101.19922,8.0648914 M108.837071,3.04260318 C108.265753,3.04260318 107.388845,3.01603023 107.388845,3.01603023 L107.348986,3.04260318 L107.282554,3.33490567 C107.282554,3.38805158 107.29584,3.40133805 107.348986,3.40133805 L107.74758,3.42791101 C108.225893,3.46777044 108.252466,3.57406225 108.132888,4.13209428 L107.415418,7.719443 C107.322413,8.18446877 107.255981,8.33062094 106.764381,8.35719389 L106.339214,8.38376684 C106.299354,8.39705332 106.272781,8.4103398 106.259495,8.45019923 L106.206349,8.74250172 L106.219635,8.76907467 C106.751094,8.75578819 107.123116,8.74250172 107.694434,8.74250172 C108.119602,8.74250172 108.23918,8.75578819 108.770639,8.76907467 L108.783925,8.74250172 L108.837071,8.4634857 C108.850358,8.4103398 108.823785,8.39705332 108.770639,8.38376684 C108.332185,8.34390741 108.318899,8.19775525 108.385331,7.87888073 L108.385331,7.85230777 L111.786669,4.55726153 L111.162205,7.69287005 C111.069199,8.15789582 110.976194,8.33062094 110.484594,8.35719389 L110.059427,8.38376684 C110.019568,8.39705332 109.992995,8.4103398 109.979708,8.45019923 L109.926562,8.74250172 L109.953135,8.76907467 C110.484594,8.75578819 110.843329,8.74250172 111.414648,8.74250172 C112.012539,8.74250172 112.411134,8.75578819 112.942593,8.76907467 L112.955879,8.74250172 L113.009025,8.4634857 C113.022311,8.4103398 112.995739,8.39705332 112.942593,8.38376684 L112.557285,8.35719389 C112.092258,8.33062094 112.052399,8.18446877 112.15869,7.69287005 L112.87616,4.1188078 C112.982452,3.56077578 113.035598,3.46777044 113.540484,3.42791101 L113.939078,3.40133805 C113.992224,3.40133805 114.032084,3.3747651 114.04537,3.32161919 L114.098516,3.04260318 L114.08523,3.01603023 C114.08523,3.01603023 113.155176,3.04260318 112.557285,3.04260318 C112.185263,3.04260318 111.587372,3.01603023 111.587372,3.01603023 L111.560799,3.04260318 L111.494367,3.33490567 C111.494367,3.38805158 111.507653,3.40133805 111.547513,3.40133805 C111.999253,3.44119748 111.959393,3.66706759 111.906247,3.98594303 L108.504909,7.28098927 L109.14266,4.1188078 C109.248952,3.57406225 109.302098,3.46777044 109.820271,3.42791101 L110.218865,3.40133805 C110.272011,3.40133805 110.31187,3.3747651 110.325157,3.32161919 L110.378303,3.04260318 L110.35173,3.01603023 C110.35173,3.01603023 109.421676,3.04260318 108.837071,3.04260318 M113.622491,8.74250172 L113.662351,8.76907467 L114.499399,8.75578819 C114.924566,8.74250172 115.469311,8.21104172 115.841333,7.56000528 C116.332932,6.69638522 116.811246,6.13835227 117.342705,6.13835227 L117.674867,6.13835227 L117.355991,7.719443 C117.262986,8.23761468 117.20984,8.34390741 116.771386,8.37048037 L116.558803,8.38376684 C116.505657,8.38376684 116.479084,8.42362627 116.465797,8.47677218 L116.412651,8.76907467 C116.412651,8.76907467 117.16998,8.74250172 117.648294,8.74250172 C118.11332,8.74250172 118.857363,8.76907467 118.857363,8.76907467 L118.910509,8.50334513 C118.910509,8.47677218 118.897222,8.38376684 118.790931,8.38376684 L118.511915,8.37048037 C118.299331,8.35719389 118.286044,8.06489048 118.352477,7.719443 L119.136379,3.82650531 C119.189525,3.5474893 119.309103,3.44119748 119.54826,3.42791101 L119.880422,3.40133805 C119.906995,3.40133805 119.933568,3.38805158 119.933568,3.36147862 L120,3.04260318 L119.973427,3.01603023 C119.973427,3.01603023 119.269244,3.04260318 118.817504,3.04260318 C118.392336,3.04260318 118.737785,3.01603023 117.728012,3.01603023 C115.456025,3.01603023 115.09729,4.23838609 115.017571,4.62369392 C114.831561,5.56703285 115.708468,6.03206045 116.439224,6.03206045 L116.425938,6.07191989 C116.04063,6.13835227 115.535744,6.45722771 115.203582,7.00197326 C114.897993,7.49357198 114.300101,8.33062094 113.941367,8.37048037 L113.821788,8.38376684 C113.768642,8.38376684 113.688924,8.39705332 113.675637,8.49005866 L113.622491,8.74250172 M116.04063,4.47754267 C116.173495,3.85307826 116.465797,3.40133805 117.608434,3.40133805 C118.126607,3.40133805 118.219612,3.45448396 118.126607,3.87965122 L117.767872,5.68661206 L116.877678,5.68661206 C116.120349,5.68661206 115.907765,5.14186559 116.04063,4.47754267" id="udm-tagline" fill="#000000" fill-rule="nonzero"></path>
    </g>
</svg>