<svg xmlns="http://www.w3.org/2000/svg" width="120" height="14"><path fill="#000" fill-rule="nonzero" d="M2.177 4.817c0 .046.014.078.041.097.033.018.072-.005.118-.07.189-.322.422-.598.698-.829.281-.23.571-.345.87-.345.273 0 .482.074.63.221.147.143.22.295.22.456 0 .18-.068.343-.207.49a.603.603 0 0 1-.456.222c-.175 0-.345-.11-.511-.332a.44.44 0 0 0-.366-.18c-.116 0-.332.23-.65.692-.226.34-.339.656-.339.946v1.97c0 .567.063.915.187 1.044.129.124.454.207.974.248.046.047.07.127.07.242 0 .111-.024.185-.07.222a62.34 62.34 0 0 0-1.714-.028c-.414 0-.953.01-1.617.028C.018 9.874 0 9.8 0 9.689c0-.115.018-.195.055-.242.461-.027.751-.108.871-.241.12-.134.18-.484.18-1.05V5.397c0-.397-.056-.645-.166-.747-.106-.106-.357-.177-.753-.214-.056-.161-.065-.295-.028-.4.7-.093 1.278-.229 1.735-.409.073 0 .13.037.172.111.046.115.083.475.111 1.078Zm5.778 0c0 .046.014.078.041.097.033.018.072-.005.118-.07.189-.322.421-.598.698-.829.28-.23.571-.345.87-.345.272 0 .482.074.63.221.147.143.22.295.22.456 0 .18-.068.343-.207.49a.603.603 0 0 1-.456.222c-.175 0-.345-.11-.511-.332a.44.44 0 0 0-.367-.18c-.115 0-.331.23-.65.692-.225.34-.338.656-.338.946v1.97c0 .567.062.915.187 1.044.129.124.454.207.974.248.046.047.07.127.07.242 0 .111-.024.185-.07.222a62.34 62.34 0 0 0-1.714-.028c-.414 0-.953.01-1.617.028-.037-.037-.055-.111-.055-.222 0-.115.018-.195.055-.242.46-.027.751-.108.87-.241.12-.134.18-.484.18-1.05V5.397c0-.397-.055-.645-.165-.747-.106-.106-.357-.177-.754-.214-.055-.161-.064-.295-.027-.4.7-.093 1.278-.229 1.734-.409.074 0 .132.037.173.111.046.115.083.475.11 1.078Zm7.436 1.77-1.12.296c-.898.226-1.345.745-1.34 1.555 0 .254.085.487.256.698.175.208.428.311.76.311.322 0 .737-.21 1.244-.628.134-.106.2-.229.2-.367V6.586Zm0 2.619h-.027l-.284.22c-.511.397-1.025.595-1.54.595-1.19 0-1.784-.509-1.784-1.527 0-.47.214-.885.643-1.244.428-.36.993-.63 1.693-.809l1.216-.297c.056-.018.083-.074.083-.166 0-1.225-.382-1.838-1.147-1.838-.313 0-.58.05-.802.152-.22.097-.331.244-.331.442 0 .134.009.226.027.277.028.055.044.14.049.255 0 .106-.065.215-.194.325a.727.727 0 0 1-.477.16c-.331 0-.495-.171-.49-.512 0-.397.242-.756.725-1.078a2.833 2.833 0 0 1 1.61-.491c1.424 0 2.136.797 2.136 2.391v2.08c0 .198.002.355.007.47.005.11.02.233.048.367.028.133.072.228.132.283a.349.349 0 0 0 .235.083c.17 0 .345-.076.525-.228.133.073.214.202.242.387-.36.35-.809.523-1.348.518-.322 0-.55-.07-.684-.207-.13-.143-.217-.346-.263-.608Zm5.723-4.956c-.327.019-.518.097-.574.235-.05.139-.002.376.145.712l1.134 2.917c.064.16.113.26.145.297.037.037.071.034.104-.007.032-.042.08-.148.145-.318l.995-2.509-.09-.221a7.719 7.719 0 0 0-.187-.442 1.86 1.86 0 0 0-.2-.318.739.739 0 0 0-.29-.249 1.234 1.234 0 0 0-.408-.097c-.037-.037-.055-.11-.055-.22 0-.116.018-.2.055-.25.567.019.981.028 1.244.028.378 0 .85-.01 1.417-.028.037.046.055.127.055.242 0 .115-.018.191-.055.228-.369.028-.583.097-.643.208-.055.105-.014.324.124.656L25.4 8.21c.055.148.103.22.145.214.041-.004.097-.094.166-.27l1.188-2.943c.065-.157.104-.277.118-.36a.628.628 0 0 0-.007-.276c-.023-.101-.104-.177-.242-.228a2.117 2.117 0 0 0-.587-.097c-.046-.037-.07-.11-.07-.221 0-.115.024-.198.07-.249.566.019 1.048.028 1.444.028.304 0 .643-.01 1.016-.028.046.046.07.127.07.242.004.115-.02.191-.07.228-.332.019-.58.11-.746.277-.166.16-.316.407-.45.74L25.6 9.757c-.074.198-.182.297-.325.297-.142 0-.255-.094-.338-.283l-1.459-3.51-1.43 3.482c-.092.208-.205.311-.339.311-.143 0-.255-.094-.338-.283l-1.853-4.575c-.152-.373-.294-.615-.428-.726-.134-.115-.364-.189-.691-.22-.046-.038-.072-.111-.076-.222 0-.115.025-.198.076-.249.488.019.917.028 1.285.028.387 0 .864-.01 1.43-.028.047.046.07.127.07.242 0 .115-.023.191-.07.228ZM33.47 6.586l-1.12.297c-.898.226-1.345.745-1.34 1.555 0 .254.085.487.255.698.175.208.429.311.76.311.323 0 .738-.21 1.245-.628.133-.106.2-.229.2-.367V6.586Zm0 2.62h-.028l-.283.22c-.511.397-1.025.595-1.541.595-1.189 0-1.783-.509-1.783-1.527 0-.47.214-.885.643-1.244.428-.36.992-.63 1.693-.809l1.216-.297c.055-.018.083-.074.083-.166 0-1.225-.382-1.838-1.147-1.838-.313 0-.58.05-.802.152-.221.097-.332.244-.332.442 0 .134.01.226.028.277.028.055.044.14.048.255 0 .106-.064.215-.193.325a.727.727 0 0 1-.477.16c-.332 0-.495-.171-.49-.512 0-.397.241-.756.725-1.078a2.833 2.833 0 0 1 1.61-.491c1.424 0 2.136.797 2.136 2.391v2.08c0 .198.002.355.007.47.004.11.02.233.048.367.028.133.071.228.131.283a.349.349 0 0 0 .235.083c.17 0 .346-.076.526-.228.133.073.214.202.241.387-.359.35-.808.523-1.347.518-.323 0-.55-.07-.684-.207-.13-.143-.217-.346-.263-.608Zm5.211-3.373v2.322c0 .4.023.687.07.857.05.166.126.274.227.325.102.05.284.087.546.11.042.042.063.12.063.235.004.111-.017.187-.063.228-.53-.018-.995-.027-1.396-.027-.414 0-.933.01-1.555.027-.041-.041-.062-.117-.062-.228 0-.115.02-.193.062-.235.235-.018.403-.039.505-.062a.583.583 0 0 0 .29-.166.632.632 0 0 0 .159-.373 5.13 5.13 0 0 0 .035-.69V1.97c0-.304-.007-.53-.021-.678-.014-.152-.074-.262-.18-.331-.101-.074-.182-.113-.242-.118L36.657.81c-.106-.106-.133-.247-.083-.422.839-.065 1.5-.194 1.984-.387.124 0 .184.048.18.145-.037.378-.056.873-.056 1.486l-.014 3.186c0 .115.04.124.118.028a.214.214 0 0 1 .02-.028c.692-.765 1.496-1.147 2.413-1.147.539 0 .93.161 1.174.484.254.331.38.962.38 1.893v2.108c0 .558.053.903.16 1.037.11.129.373.214.787.255.037.046.056.127.056.242 0 .11-.019.185-.056.221a52.81 52.81 0 0 0-1.5-.027c-.432 0-.914.009-1.444.027-.037-.046-.055-.124-.055-.235 0-.115.018-.19.055-.228.387-.036.63-.122.726-.255.101-.134.152-.48.152-1.037v-2.15c0-.502-.055-.865-.166-1.091-.17-.341-.422-.512-.753-.512-.64 0-1.244.28-1.811.837a.854.854 0 0 0-.242.594Zm12.302-.636a.938.938 0 0 0-.22.622v2.578c0 .249.018.42.054.511.042.093.136.205.284.339.22.198.555.297 1.002.297.378 0 .702-.078.974-.235a1.53 1.53 0 0 0 .622-.636c.143-.267.244-.54.304-.822.065-.286.097-.59.097-.912 0-.774-.163-1.403-.49-1.887-.323-.488-.722-.733-1.196-.733-.198 0-.44.088-.726.263-.28.175-.516.38-.705.615Zm-.27-.525c.01.143.063.164.16.062.63-.71 1.278-1.064 1.942-1.064.71 0 1.304.288 1.783.864.479.576.718 1.25.718 2.025 0 1.105-.347 1.997-1.043 2.674-.558.53-1.253.793-2.087.788-.461 0-.871-.071-1.23-.214-.074-.037-.125-.05-.152-.042-.028.01-.042.058-.042.146v1.527c0 .567.062.917.187 1.05.129.134.454.215.974.242.046.046.07.125.07.235 0 .115-.024.191-.07.228a58.154 58.154 0 0 0-1.714-.027c-.396 0-.926.009-1.59.027-.036-.037-.055-.113-.055-.228 0-.11.019-.189.056-.235.442-.018.723-.097.843-.235.12-.138.18-.49.18-1.057v-6.04c0-.397-.056-.645-.166-.747-.106-.106-.357-.177-.754-.214-.055-.161-.064-.295-.027-.4.7-.093 1.28-.229 1.741-.409.074 0 .13.037.166.111.046.11.083.422.11.933Zm9.822 1.914-1.12.297c-.899.226-1.345.745-1.34 1.555 0 .254.084.487.255.698.175.208.428.311.76.311.323 0 .737-.21 1.244-.628.134-.106.2-.229.2-.367V6.586Zm0 2.62h-.028l-.283.22c-.512.397-1.026.595-1.542.595-1.188 0-1.783-.509-1.783-1.527 0-.47.215-.885.643-1.244.429-.36.993-.63 1.693-.809l1.217-.297c.055-.018.083-.074.083-.166 0-1.225-.383-1.838-1.148-1.838-.313 0-.58.05-.801.152-.222.097-.332.244-.332.442 0 .134.01.226.028.277.027.055.043.14.048.255 0 .106-.065.215-.194.325a.727.727 0 0 1-.476.16c-.332 0-.496-.171-.491-.512 0-.397.242-.756.725-1.078a2.833 2.833 0 0 1 1.61-.491c1.424 0 2.136.797 2.136 2.391v2.08c0 .198.003.355.007.47.005.11.02.233.049.367.027.133.071.228.13.283a.349.349 0 0 0 .236.083c.17 0 .345-.076.525-.228.134.073.214.202.242.387-.36.35-.809.523-1.348.518-.322 0-.55-.07-.684-.207-.129-.143-.216-.346-.263-.608Zm3.455-5.398h.65c0-.36-.002-.657-.007-.891a12.71 12.71 0 0 0-.014-.457 4.967 4.967 0 0 0-.014-.18 1.172 1.172 0 0 1-.007-.11c0-.069.104-.134.311-.193.166-.046.328-.113.484-.2.157-.084.26-.128.311-.132.074 0 .11.041.11.124-.036.378-.054.876-.054 1.493v.546h1.7c.073 0 .11.03.11.09v.283c0 .125-.113.184-.338.18H65.76v3.58c0 .46.032.795.096 1.002.07.203.194.304.373.304.434 0 .82-.134 1.162-.4.142.008.225.089.248.241-.557.622-1.193.933-1.907.933-.728 0-1.092-.465-1.092-1.396V4.361h-.836c-.046 0-.07-.028-.07-.083v-.187c0-.189.086-.283.256-.283Zm8.543 2.778-1.12.297c-.899.226-1.345.745-1.34 1.555 0 .254.084.487.255.698.175.208.428.311.76.311.323 0 .737-.21 1.244-.628.134-.106.2-.229.2-.367V6.586Zm0 2.62h-.028l-.283.22c-.512.397-1.026.595-1.542.595-1.188 0-1.783-.509-1.783-1.527 0-.47.215-.885.643-1.244.429-.36.993-.63 1.693-.809l1.217-.297c.055-.018.083-.074.083-.166 0-1.225-.383-1.838-1.148-1.838-.313 0-.58.05-.801.152-.222.097-.332.244-.332.442 0 .134.01.226.028.277.027.055.043.14.048.255 0 .106-.065.215-.194.325a.727.727 0 0 1-.476.16c-.332 0-.496-.171-.491-.512 0-.397.242-.756.725-1.078a2.833 2.833 0 0 1 1.61-.491c1.424 0 2.136.797 2.136 2.391v2.08c0 .198.003.355.007.47.005.11.02.233.049.367.027.133.071.228.13.283a.349.349 0 0 0 .236.083c.17 0 .345-.076.525-.228.134.073.214.202.242.387-.36.35-.809.523-1.348.518-.322 0-.55-.07-.684-.207-.129-.143-.216-.346-.263-.608Zm3.524-1.279c.046-.046.12-.07.221-.07.102 0 .176.02.222.056.152.64.336 1.076.553 1.306.216.226.55.34 1.002.34.304 0 .58-.086.829-.257.249-.17.373-.414.373-.732 0-.313-.097-.565-.29-.753-.194-.19-.578-.401-1.154-.636-.567-.235-.968-.489-1.203-.76-.235-.277-.352-.666-.352-1.169 0-.442.198-.815.594-1.12.396-.308.864-.462 1.403-.462.217 0 .438.016.664.048.225.032.463.076.711.132.254.05.413.08.477.09a40.32 40.32 0 0 1-.083 1.499c-.046.046-.122.07-.228.07-.106 0-.182-.02-.228-.056a2.045 2.045 0 0 0-.235-.705.973.973 0 0 0-.38-.401 1.619 1.619 0 0 0-.387-.166 1.23 1.23 0 0 0-.31-.041 1.08 1.08 0 0 0-.692.248.794.794 0 0 0-.304.657c0 .355.106.615.318.781.216.161.583.339 1.099.532 1.105.41 1.658 1.037 1.658 1.88a1.6 1.6 0 0 1-.235.87 1.59 1.59 0 0 1-.601.56 3.171 3.171 0 0 1-.726.27 3.012 3.012 0 0 1-.69.083c-.461 0-.89-.05-1.286-.152a1.096 1.096 0 0 0-.284-.028c-.092 0-.21.014-.352.042a29.288 29.288 0 0 0-.104-1.956Zm7.852-2.73a.938.938 0 0 0-.222.622v2.578c0 .249.019.42.056.511.041.093.136.205.283.339.221.198.555.297 1.002.297.378 0 .703-.078.975-.235a1.53 1.53 0 0 0 .622-.636c.142-.267.244-.54.304-.822.064-.286.096-.59.096-.912 0-.774-.163-1.403-.49-1.887-.323-.488-.721-.733-1.196-.733-.198 0-.44.088-.726.263-.28.175-.516.38-.705.615Zm-.27-.525c.01.143.062.164.159.062.631-.71 1.278-1.064 1.942-1.064.71 0 1.304.288 1.783.864.48.576.719 1.25.719 2.025 0 1.105-.348 1.997-1.044 2.674-.557.53-1.253.793-2.087.788-.46 0-.87-.071-1.23-.214-.074-.037-.125-.05-.152-.042-.028.01-.042.058-.042.146v1.527c0 .567.063.917.187 1.05.129.134.454.215.974.242.046.046.07.125.07.235 0 .115-.024.191-.07.228a58.154 58.154 0 0 0-1.714-.027c-.396 0-.926.009-1.59.027-.036-.037-.054-.113-.054-.228 0-.11.018-.189.055-.235.442-.018.723-.097.843-.235.12-.138.18-.49.18-1.057v-6.04c0-.397-.056-.645-.166-.747-.106-.106-.357-.177-.753-.214-.056-.161-.065-.295-.028-.4.7-.093 1.28-.229 1.742-.409.073 0 .129.037.165.111.046.11.083.422.111.933Zm6.946-3.269c0-.17.08-.325.242-.463.16-.143.327-.214.497-.214.18 0 .337.078.47.235a.743.743 0 0 1 .208.497c0 .162-.076.316-.229.463a.695.695 0 0 1-.504.221c-.17 0-.327-.078-.47-.235a.738.738 0 0 1-.214-.504Zm1.292 6.752c0 .567.055.917.166 1.05.115.13.399.21.85.242.046.047.07.127.07.242 0 .11-.024.185-.07.221a54.395 54.395 0 0 0-1.569-.027c-.433 0-.963.01-1.59.027-.036-.036-.055-.11-.055-.22 0-.116.019-.196.056-.243.451-.036.735-.12.85-.248.115-.13.173-.477.173-1.044V5.398c0-.397-.056-.645-.166-.747-.106-.106-.357-.177-.754-.214-.055-.161-.064-.295-.027-.4.875-.116 1.52-.252 1.935-.409.124 0 .186.033.186.097-.036.604-.055 1.14-.055 1.61v2.82Zm6.69-.028V5.44c0-.216-.016-.369-.048-.456a.884.884 0 0 0-.194-.311c-.29-.341-.672-.51-1.147-.505-.567 0-1.007.235-1.32.705-.272.387-.408 1.014-.408 1.88 0 .83.155 1.472.463 1.928.314.452.678.678 1.092.678.369 0 .814-.226 1.334-.678.152-.133.228-.318.228-.553Zm-.159 1.044c-.69.567-1.28.85-1.769.85-.746 0-1.334-.276-1.762-.83-.429-.557-.643-1.285-.643-2.183 0-1.01.325-1.838.974-2.488a2.969 2.969 0 0 1 2.122-.85 2 2 0 0 1 .47.062c.17.042.316.083.436.124.124.037.19.056.2.056.083 0 .127-.044.131-.132V1.97c0-.304-.009-.53-.027-.678-.014-.152-.074-.262-.18-.331-.101-.074-.18-.113-.235-.118a54.84 54.84 0 0 0-.47-.034c-.106-.106-.134-.247-.083-.422.839-.064 1.5-.193 1.983-.387.125 0 .187.048.187.145-.037.378-.058.873-.062 1.486v6.413c0 .37.064.625.193.768.13.138.41.225.844.262.046.046.069.113.069.2 0 .084-.023.146-.07.187-.755.083-1.313.27-1.672.56a.342.342 0 0 1-.27 0 5.392 5.392 0 0 1-.152-.83c-.009-.045-.039-.068-.09-.068a.184.184 0 0 0-.124.048Zm4.23-7.768c0-.17.08-.325.242-.463.161-.143.327-.214.498-.214.18 0 .336.078.47.235a.743.743 0 0 1 .207.497c0 .162-.076.316-.228.463a.695.695 0 0 1-.505.221c-.17 0-.327-.078-.47-.235a.738.738 0 0 1-.214-.504Zm1.292 6.752c0 .567.056.917.166 1.05.115.13.399.21.85.242.046.047.07.127.07.242 0 .11-.024.185-.07.221a54.396 54.396 0 0 0-1.568-.027c-.434 0-.963.01-1.59.027-.037-.036-.055-.11-.055-.22 0-.116.018-.196.055-.243.452-.036.735-.12.85-.248.115-.13.173-.477.173-1.044V5.398c0-.397-.055-.645-.166-.747-.106-.106-.357-.177-.753-.214-.056-.161-.065-.295-.028-.4.875-.116 1.52-.252 1.935-.409.124 0 .187.033.187.097-.037.604-.056 1.14-.056 1.61v2.82Zm4.693 3.995c-.387.677-.845 1.016-1.375 1.016a.748.748 0 0 1-.477-.152.452.452 0 0 1-.187-.374c0-.124.058-.258.173-.4a.57.57 0 0 1 .45-.208c.046 0 .108.007.186.021.083.014.157.02.221.02.323 0 .56-.135.712-.407.226-.46.41-.894.553-1.3.115-.322.048-.766-.2-1.333l-1.604-3.725c-.18-.42-.338-.691-.477-.816-.133-.124-.345-.205-.636-.242-.036-.036-.055-.11-.055-.22 0-.116.019-.199.055-.25.378.019.76.028 1.148.028.368 0 .9-.009 1.596-.028.037.047.055.127.055.242 0 .116-.018.192-.055.228-.368.028-.578.116-.629.263-.046.143.01.362.166.657l1.258 2.944c.115.267.228.272.339.014l1.403-3.242c.105-.226.09-.38-.049-.463-.138-.087-.35-.145-.636-.173-.046-.036-.069-.11-.069-.22 0-.116.023-.199.07-.25.566.019.995.028 1.285.028.295 0 .631-.01 1.009-.028.046.047.069.127.069.242 0 .116-.023.192-.07.228-.322.037-.557.12-.704.25-.143.124-.29.342-.442.656-.692 1.493-1.525 3.418-2.502 5.777-.198.47-.392.876-.58 1.217Zm9.082-5.564-1.12.297c-.898.226-1.345.745-1.34 1.555 0 .254.084.487.255.698.175.208.428.311.76.311.323 0 .737-.21 1.244-.628.134-.106.2-.229.2-.367V6.586Zm0 2.62h-.028l-.283.22c-.512.397-1.026.595-1.542.595-1.188 0-1.783-.509-1.783-1.527 0-.47.215-.885.643-1.244.429-.36.993-.63 1.693-.809l1.217-.297c.055-.018.082-.074.082-.166 0-1.225-.382-1.838-1.147-1.838-.313 0-.58.05-.801.152-.222.097-.332.244-.332.442 0 .134.01.226.028.277.027.055.043.14.048.255 0 .106-.065.215-.194.325a.727.727 0 0 1-.477.16c-.331 0-.495-.171-.49-.512 0-.397.242-.756.725-1.078a2.833 2.833 0 0 1 1.61-.491c1.424 0 2.136.797 2.136 2.391v2.08c0 .198.003.355.007.47.005.11.021.233.049.367.027.133.071.228.13.283a.349.349 0 0 0 .236.083c.17 0 .345-.076.525-.228.134.073.214.202.242.387-.36.35-.809.523-1.348.518-.322 0-.55-.07-.684-.207-.129-.143-.216-.346-.262-.608Z"/></svg>