<svg xmlns="http://www.w3.org/2000/svg" width="247pt" height="43pt" viewBox="0 0 247 43"><path style="stroke:none;fill-rule:nonzero;fill:#000;fill-opacity:1" d="M48.18 37.68c0 1.625.148 2.511.59 2.957.44.441 1.328.59 2.8.59.149.148.149.445.149.738 0 .297 0 .594-.149.738-2.652 0-4.422-.144-5.16-.144-.883 0-2.504 0-5.156.144-.149-.144-.149-.293-.149-.738 0-.442 0-.59.149-.738 1.473 0 2.36-.297 2.8-.59.442-.446.59-1.332.59-2.957V22.016c0-1.625-.148-2.512-.59-2.953-.44-.446-1.327-.59-2.8-.59-.149-.149-.149-.297-.149-.743 0-.293 0-.59.149-.738 2.652 0 4.273.149 5.156.149.887 0 2.656 0 5.16-.149.149.149.149.445.149.738 0 .297 0 .594-.149.743-1.472 0-2.36.293-2.8.59-.442.44-.59 1.328-.59 2.953zm-3.094-23.492c-.441-.446-.59-.887-.59-1.481 0-.59.149-1.035.59-1.477.441-.445.883-.59 1.473-.59.59 0 1.03.145 1.476.59.442.442.586.887.586 1.477 0 .594-.144 1.035-.586 1.48-.445.442-.887.59-1.476.59-.59 0-1.032-.148-1.473-.59zM61.004 37.68c0 1.625.148 2.511.59 2.957.441.441 1.328.59 2.8.59.149.148.149.445.149.738 0 .297 0 .594-.148.738-2.653 0-4.422-.144-5.16-.144-.883 0-2.505 0-5.157.144-.148-.144-.148-.293-.148-.738 0-.442 0-.59.148-.738 1.473 0 2.356-.297 2.8-.59.442-.446.587-1.332.587-2.957V22.016c0-1.625-.145-2.512-.586-2.953-.445-.446-1.328-.59-2.8-.59-.15-.149-.15-.297-.15-.743 0-.293 0-.59.15-.738 2.651 0 4.273.149 5.155.149.887 0 2.653 0 5.16-.149.149.149.149.445.149.738 0 .297 0 .594-.148.743-1.473 0-2.36.293-2.801.59-.442.44-.59 1.328-.59 2.953v6.945c1.18-.148 2.21-.59 3.094-1.477l6.488-6.945a3.32 3.32 0 0 0 .734-1.035c.149-.293 0-.442-.144-.59-.297-.148-.446-.148-.59-.297-.148 0-.59-.144-1.031-.144-.149-.149-.149-.297-.149-.743 0-.293 0-.59.149-.738 2.504 0 3.976.149 4.422.149 0 0 1.324 0 3.832-.149.144.149.144.445.144.738 0 .297 0 .594-.144.743-1.477.144-2.657.441-3.391.882-.59.297-1.031.743-1.621 1.332l-5.899 5.91c-.882.887-1.324 1.626-1.324 1.923 0 .293.149.59.442 1.035L74.71 39.75c.297.293.59.59.738.738.293.149.59.297.883.442.297.148.59.148.738.297.149.148.442.148.739.148h.441c.148.148.148.441.148.738s0 .59-.148.739c-2.508 0-3.832-.149-3.98-.149-.442 0-1.032 0-2.063.149-.148 0-.148-.149-.148-.293-.149-.743-.59-1.774-1.473-2.809l-6.191-7.832c-.739-.887-1.918-1.477-3.243-1.477v7.239zM87.684 37.68c0 1.625.148 2.511.59 2.957.44.441 1.324.59 2.8.59.145.148.145.445.145.738 0 .297 0 .594-.145.738-2.656 0-4.422-.144-5.16-.144-.883 0-2.504 0-5.16.144-.145-.144-.145-.293-.145-.738 0-.442 0-.59.145-.738 1.476 0 2.36-.297 2.8-.59.442-.446.59-1.332.59-2.957V22.016c0-1.625-.148-2.512-.59-2.953-.44-.446-1.324-.59-2.8-.59-.145-.149-.145-.297-.145-.743 0-.293 0-.59.145-.738 2.656 0 4.277.149 5.16.149s2.652 0 5.16-.149c.145.149.145.445.145.738 0 .297 0 .594-.145.743-1.476 0-2.36.293-2.8.59-.442.44-.59 1.328-.59 2.953zM84.44 14.188c-.445-.446-.59-.887-.59-1.481 0-.59.145-1.035.59-1.477.442-.445.883-.59 1.473-.59.59 0 1.031.145 1.473.59.445.442.59.887.59 1.477 0 .594-.145 1.035-.59 1.48-.442.442-.883.59-1.473.59-.59 0-1.031-.148-1.473-.59zM100.36 37.68c0 1.625.148 2.511.59 2.957.44.441 1.323.59 2.8.59.145.148.145.445.145.738 0 .297 0 .594-.145.738-2.652 0-4.422-.144-5.16-.144-.883 0-2.504 0-5.16.144-.145-.144-.145-.293-.145-.738 0-.442 0-.59.145-.738 1.476 0 2.36-.297 2.8-.59.446-.446.59-1.332.59-2.957V22.016c0-1.625-.144-2.512-.59-2.953-.44-.446-1.324-.59-2.8-.59 0-.149-.145-.446-.145-.743 0-.293 0-.59.145-.738 2.656 0 4.277.149 5.16.149s2.652 0 5.16-.149c.145.149.145.445.145.738 0 .297 0 .594-.145.743-1.477 0-2.36.293-2.8.59-.442.44-.59 1.328-.59 2.953v6.945c1.18-.148 2.21-.59 3.093-1.477l6.488-6.945c.442-.441.586-.738.735-1.035.148-.293 0-.442-.149-.59-.293-.148-.441-.148-.586-.297-.148 0-.59-.144-1.035-.144-.144-.149-.144-.297-.144-.743 0-.293 0-.59.144-.738 2.508 0 3.98.149 4.422.149 0 0 1.328 0 3.832-.149.149.149.149.445.149.738 0 .297 0 .594-.149.743-1.472.144-2.652.441-3.387.882-.59.297-1.035.743-1.62 1.332l-5.9 5.91c-.882.887-1.323 1.626-1.323 1.923 0 .293.144.59.441 1.035l8.695 10.195c.297.293.59.59.739.738.293.149.59.297.882.442.297.148.59.148.739.297.148.148.441.148.734.148h.445c.145.148.145.441.145.738s0 .59-.145.739c-2.507 0-3.832-.149-3.98-.149-.441 0-1.031 0-2.063.149-.148 0-.148-.149-.148-.293-.148-.743-.59-1.774-1.473-2.809l-6.34-7.832c-.738-.887-1.917-1.477-3.242-1.477zM124.09 39.453c0 .297 0 .445-.149.738 0 .149 0 .297.297.446.293.148.293.293.442.293.148 0 .293.148.59.148.293 0 .59.149.734.149.148 0 .445 0 .738.148.149.148.149.441.149.738s0 .59-.149.739c-1.914 0-3.683-.149-5.012-.149-.44 0-1.62 0-3.535.149-.148-.149-.148-.293-.148-.739 0-.441 0-.59.148-.738 1.032-.148 1.766-.297 2.356-.59.59-.297 1.18-1.035 1.62-2.219l8.993-21.129c.59 0 1.328-.296 2.211-.738l8.105 22.606c.149.445.297.886.59 1.183.297.297.59.442.887.59.441.149.734.297.883.297.148 0 .59 0 1.18.148.148.149.148.442.148.739s0 .59-.148.738c-1.915 0-3.54-.148-4.57-.148-1.473 0-3.243 0-5.157.148-.148-.148-.148-.297-.148-.738 0-.446 0-.59.148-.739h1.766c.296 0 .445 0 .445-.148.144 0 .293 0 .293-.148.148 0 .297-.149.297-.149s.144-.148.144-.293v-.297c0-.148 0-.297-.144-.445l-2.067-6.941h-8.398c-.445 0-.738 0-1.035.144-.145.149-.293.297-.442.594zm4.273-7.98h7.075l-3.684-10.785h-.293l-3.98 10.343v.149s0 .148.148.148c0 0 .144 0 .144.145 0 .148.149 0 .297 0h.293zM155.926 37.68c0 1.625.297 2.511.738 2.957.441.441 1.473.59 3.094.59.148.148.148.445.148.738 0 .297 0 .594-.148.738-2.653 0-4.422-.144-5.453-.144-1.18 0-2.946 0-5.602.144-.144-.144-.144-.293-.144-.738 0-.442 0-.59.144-.738 1.621 0 2.656-.297 3.098-.59.441-.446.734-1.332.734-2.957v-5.024c0-.738 0-1.183-.144-1.625-.149-.297-.297-.886-.739-1.476l-5.16-8.72c-.441-.737-.883-1.331-1.176-1.624a4.356 4.356 0 0 0-1.035-.738c-.293-.149-.883-.149-1.472-.297-.149-.149-.149-.446-.149-.738 0-.297 0-.594.149-.739 1.62 0 2.949.145 3.98.145.883 0 2.36 0 4.57-.145.145.145.145.442.145.738 0 .293 0 .59-.145.739-1.035 0-1.77.297-1.918.441-.148.149 0 .887.442 1.625l4.57 7.98c.149.298.293.446.442.446.148 0 .296-.148.44-.445l4.423-8.274c.148-.445.297-.738.297-1.035 0-.297 0-.441-.149-.59-.148-.148-.293-.297-.59-.297-.293 0-.59-.148-1.03-.148-.15-.149-.15-.293-.15-.738 0-.297 0-.59.15-.739 2.062 0 3.241.149 3.538.149.59 0 1.766 0 3.242-.149.149.149.149.442.149.739s0 .59-.149.738c-.886.148-1.62.297-2.21.594-.59.293-1.032 1.03-1.622 1.918l-4.718 8.422a6.619 6.619 0 0 1-.442 1.035c-.148.297-.148.593-.148.886v1.036zM188.355 22.46c0-.886 0-1.624-.148-2.07-.148-.44-.297-.886-.59-1.18-.293-.296-.59-.444-1.031-.593-.297-.144-.887-.144-1.77-.293-.148-.148-.148-.297-.148-.738 0-.297 0-.594.148-.742 2.653 0 4.13.148 4.422.148.442 0 1.918 0 4.422-.148.149.148.149.445.149.742 0 .293 0 .59-.149.738-1.472.149-2.36.442-2.8.887-.442.441-.59 1.477-.59 3.102v19.359c0 .887-.293 1.328-.883 1.328-.59 0-1.18-.297-1.621-1.035L173.91 24.527c-.738-.882-1.18-1.328-1.328-1.328-.148 0-.293.59-.293 1.922V37.09c0 .887 0 1.625.145 2.066.148.446.296.887.59 1.184.296.297.59.445 1.035.59.293.148.882.148 1.765.297.149.148.149.445.149.738 0 .297 0 .594-.149.738-2.652 0-4.125-.144-4.422-.144-.441 0-1.914 0-4.422.144-.144-.144-.144-.293-.144-.738 0-.442 0-.59.144-.738 1.477-.149 2.36-.442 2.801-.887.442-.442.59-1.477.59-3.102V20.984c-.148-.593-.441-1.183-1.031-1.629-.59-.59-1.328-.738-2.063-.882-.148-.149-.148-.297-.148-.743 0-.293 0-.59.148-.738l5.305.149 13.563 17.437c.144.293.44.442.59.738.144.297.44.442.44.59.15.149.294.297.294.446.148.148.148.293.297.293.144 0 .144.148.144.148.149 0 .297-.441.297-1.18V22.461zM200.145 39.453c0 .297 0 .445-.145.738 0 .149 0 .297.293.446.297.148.297.293.441.293.149 0 .297.148.59.148.297 0 .59.149.738.149.149 0 .442 0 .739.148.144.148.144.441.144.738s0 .59-.144.739c-1.918 0-3.688-.149-5.012-.149-.445 0-1.621 0-3.539.149-.148-.149-.148-.293-.148-.739 0-.441 0-.59.148-.738 1.031-.148 1.77-.297 2.36-.59.59-.297 1.18-1.035 1.62-2.219l8.993-21.129c.586 0 1.324-.296 2.21-.738l8.106 22.606c.149.445.293.886.59 1.183.293.297.59.442.883.59.441.149.738.297.886.297.145 0 .59 0 1.176.148.149.149.149.442.149.739s0 .59-.149.738c-1.914 0-3.535-.148-4.566-.148-1.477 0-3.242 0-5.16.148-.149-.148-.149-.297-.149-.738 0-.446 0-.59.149-.739h1.77c.292 0 .44 0 .44-.148.149 0 .297 0 .297-.148.145 0 .293-.149.293-.149s.149-.148.149-.293v-.297c0-.148 0-.297-.149-.445l-2.359-6.648h-8.402c-.442 0-.735 0-1.032.148-.144.148-.292.297-.44.59zm4.277-7.98h7.074l-3.687-10.785h-.293l-3.98 10.343v.149s0 .148.148.148c0 0 .148 0 .148.145 0 .148.145 0 .293 0h.297zM229.184 37.68c0 1.625.148 2.511.59 2.957.44.441 1.324.59 2.8.59.145.148.145.445.145.738 0 .297 0 .594-.145.738-2.656 0-4.422-.144-5.16-.144-.883 0-2.504 0-5.16.144-.145-.144-.145-.293-.145-.738 0-.442 0-.59.145-.738 1.476 0 2.36-.297 2.8-.59.442-.446.59-1.332.59-2.957V22.016c0-1.625-.148-2.512-.59-2.953-.44-.446-1.324-.59-2.8-.59-.145-.149-.145-.297-.145-.743 0-.293 0-.59.145-.738 2.656 0 4.277.149 5.16.149s2.652 0 5.16-.149c.145.149.145.445.145.738 0 .297 0 .594-.145.743-1.476 0-2.36.293-2.8.59-.442.44-.59 1.328-.59 2.953v6.945c1.18-.148 2.21-.59 3.093-1.477l6.485-6.945c.445-.441.59-.738.738-1.035.148-.293 0-.442-.148-.59-.293-.148-.442-.148-.59-.297-.145 0-.586-.144-1.032-.144-.144-.149-.144-.297-.144-.743 0-.293 0-.59.144-.738 2.508 0 3.98.149 4.422.149 0 0 1.328 0 3.832-.149.149.149.149.445.149.738 0 .297 0 .594-.149.743-1.472.144-2.652.441-3.386.882-.59.297-1.036.743-1.625 1.332l-5.895 5.91c-.883.887-1.324 1.626-1.324 1.923 0 .293.144.59.441 1.035l8.696 10.195.738.738c.293.149.59.297.883.442.297.148.59.148.738.297.145.148.441.148.734.148h.446c.144.148.144.441.144.738s0 .59-.144.739c-2.508 0-3.832-.149-3.98-.149-.442 0-1.032 0-2.063.149-.149 0-.149-.149-.149-.293-.148-.743-.59-1.774-1.476-2.809l-6.188-7.832c-.738-.887-1.918-1.477-3.242-1.477v7.239zM29.61 2.363c-.15-.148-.297-.59-.297-1.18 0-.593.148-1.035.296-1.183 4.125.148 6.485.148 7.075.148.296 0 2.21 0 5.75-.148.144.297.293.59.293 1.184 0 .59-.149.886-.293 1.18-.887.148-1.621.296-2.211.593-.59.293-1.18.59-1.477.887-.441.293-.734.738-1.18 1.328-.441.59-.586 1.183-.734 1.476-.148.297-.441.887-.738 1.774L22.535 41.523C22.09 42.56 21.648 43 20.915 43c-.59 0-1.18-.441-1.477-1.477L6.613 8.273C5.582 5.762 4.848 4.137 4.258 3.547c-.59-.59-1.77-1.035-3.54-1.184-.148-.293-.292-.59-.292-1.18C.426.59.57.298.719 0 4.848.148 7.059.148 7.5.148c1.18 0 3.832 0 7.957-.148.148.297.297.59.297 1.184 0 .59-.149.886-.297 1.18-2.355.296-3.535.738-3.977 1.331-.445.59-.296 1.918.59 3.84l10.317 26.45h.293L33 7.98c.883-1.773 1.031-3.105.59-3.992-.445-.886-1.77-1.476-3.98-1.625zm0 0"/></svg>