<svg xmlns="http://www.w3.org/2000/svg" width="90" height="30" fill="none"><path fill="#0B2645" d="M63.539 18.757c.38-.21.75-.375 1.111-.495.36-.13.726-.23 1.097-.3.37-.07.756-.116 1.156-.136.41-.03.851-.05 1.322-.06h.871c.11-.01.245-.025.405-.045-.01.01-.015.075-.015.195v2.568c0 .12-.005.185-.015.195-.17.04-.34.066-.51.076-.16.01-.326.015-.496.015l-1.397-.03c-.44-.02-.9-.06-1.381-.12-.11 0-.326-.026-.646-.076s-.661-.09-1.021-.12c-.35-.03-.681-.03-.992 0-.3.03-.49.12-.57.27.01.11.075.21.195.3.13.101.29.191.48.271.19.09.396.17.616.24.23.07.446.13.646.18.21.06.4.106.57.136.171.04.291.07.361.09.24.05.49.09.751.12.27.04.516.1.736.18.23.09.416.22.556.39.14.171.205.421.195.752a3.833 3.833 0 0 1-.646 1.922c-.38.6-.87 1.152-1.472 1.652-.59.5-1.251.946-1.982 1.337-.731.39-1.457.716-2.178.976-.72.26-1.407.456-2.057.586-.641.13-1.177.185-1.607.165-.791 0-1.492-.115-2.103-.345a4.837 4.837 0 0 1-1.562-.916 4.945 4.945 0 0 1-1.081-1.367 6.377 6.377 0 0 1-.616-1.682 8.577 8.577 0 0 1-.165-1.848c.02-.64.105-1.271.255-1.892.11-.38.22-.74.33-1.081.12-.33.24-.646.361-.946.13-.31.27-.611.42-.902.15-.3.316-.6.496-.9.09-.15.18-.286.27-.406.1-.13.18-.215.24-.255.07-.04.106-.015.106.075.01.08-.03.26-.12.54-.09.25-.16.45-.21.601-.05.14-.1.285-.15.436-.04.14-.09.31-.15.51-.05.19-.126.46-.226.811a8.685 8.685 0 0 0-.24 2.538c.06.811.275 1.517.645 2.118.37.61.912 1.096 1.622 1.457.711.36 1.623.54 2.734.54.76 0 1.527-.1 2.298-.3.78-.2 1.531-.45 2.252-.75a18.37 18.37 0 0 0 2.028-.992c.64-.36 1.201-.7 1.682-1.021-1.121-.18-2.037-.36-2.748-.541-.701-.18-1.252-.37-1.652-.57-.4-.19-.676-.401-.827-.631a1.42 1.42 0 0 1-.21-.751c0-.31.07-.601.21-.871.15-.28.336-.536.556-.766.22-.23.46-.44.721-.631.26-.19.51-.356.751-.496Zm4.941-.991c.01-.01.06-.015.15-.015h2.088c.55 0 1.036-.01 1.457-.03.43-.02.82-.05 1.171-.09.35-.05.681-.11.992-.18.31-.07.625-.15.946-.24a6.383 6.383 0 0 0-.691-1.277c-.29-.44-.62-.881-.991-1.322-.37-.44-.771-.876-1.202-1.307-.42-.44-.846-.86-1.276-1.261-.421-.4-.837-.786-1.247-1.157-.4-.37-.766-.71-1.096-1.02-.04.27-.075.49-.106.66-.03.17-.09.265-.18.285-.11.03-.255-.06-.435-.27a4.885 4.885 0 0 1-.556-.766c-.19-.3-.355-.61-.496-.931-.15-.32-.24-.57-.27-.751-.02-.16.005-.376.075-.646a6.82 6.82 0 0 1 .631-1.607c.12-.23.235-.385.345-.465.14-.08.296-.17.466-.27.17-.11.42-.251.75-.421.331-.17.772-.38 1.323-.631.55-.26 1.271-.57 2.162-.931.891-.37 1.988-.806 3.29-1.307 1.3-.5 2.868-1.086 4.7-1.757.12-.06.21-.07.27-.03.06.03.036.115-.075.255-.06.06-.185.195-.375.406-.19.21-.395.43-.616.66-.21.23-.405.436-.585.616-.18.18-.29.27-.33.27-.792.371-1.528.707-2.209 1.007-.68.29-1.386.596-2.117.916-.721.31-1.512.656-2.373 1.036-.851.37-1.852.821-3.004 1.352 1.792 1.612 3.114 2.869 3.965 3.77.851.9 1.282 1.351 1.292 1.351.57.661 1.04 1.307 1.411 1.938.37.63.601 1.276.691 1.937.09.651.02 1.327-.21 2.028-.22.7-.646 1.446-1.277 2.237-.21.21-.495.38-.856.511-.35.12-.75.215-1.201.285-.44.06-.911.106-1.412.136-.49.02-.976.03-1.457.03h-1.576l.03-1.502c0-.48.004-.981.014-1.502Zm15.965-1.457c.33.42.62.746.87.976.261.23.517.386.767.466.25.07.51.075.78.015.271-.06.587-.165.947-.315-.19-.34-.41-.651-.66-.932a2.482 2.482 0 0 0-.827-.645 1.521 1.521 0 0 0-.916-.136c-.31.05-.63.24-.961.571Zm-1.487 1.577a8.907 8.907 0 0 1 .841-2.778c.23-.47.5-.897.811-1.277.31-.39.656-.676 1.036-.856.39-.18.816-.23 1.277-.15.47.07.971.325 1.502.766.42.42.736.926.946 1.517a6.8 6.8 0 0 1 .376 1.862 8.61 8.61 0 0 1-.076 1.967 9.102 9.102 0 0 1-.465 1.833c-.14.36-.31.76-.51 1.201-.201.44-.426.886-.677 1.337-.24.45-.505.89-.796 1.321a9.51 9.51 0 0 1-.916 1.187c-.32.35-.66.64-1.021.87-.35.241-.711.391-1.081.451-.451.02-.912.056-1.382.106-.46.06-.926.105-1.397.135-.46.03-.921.03-1.382 0a4.988 4.988 0 0 1-1.366-.256c-.31-.1-.446-.19-.406-.27.03-.07.18-.12.45-.15.952-.13 1.833-.336 2.644-.616.821-.27 1.562-.585 2.223-.946a12.16 12.16 0 0 0 1.787-1.126c.53-.4.986-.791 1.367-1.172.38-.37.686-.72.916-1.051.24-.32.405-.586.495-.796.1-.2.166-.44.196-.721.04-.29.05-.57.03-.841-.01-.28-.05-.526-.12-.736-.06-.21-.136-.34-.226-.39-.06.14-.135.34-.225.6-.08.26-.205.52-.376.781-.16.26-.375.49-.645.691-.27.19-.621.29-1.052.3-.35 0-.696-.08-1.036-.24a3.531 3.531 0 0 1-.886-.646 3.25 3.25 0 0 1-.63-.886 2.495 2.495 0 0 1-.226-1.021Z"/><path fill="#0A4E98" d="M8.315 25.805c.05-.07.14-.19.27-.36.13-.161.27-.336.42-.526.151-.18.296-.35.436-.511.14-.16.24-.27.3-.33.08-.1.15-.15.211-.15.06.01.12.04.18.09.36.31.721.605 1.082.886.37.28.675.545.916.796.05.05.07.095.06.135a.39.39 0 0 1-.09.165c-.22.32-.45.626-.691.916-.24.29-.476.59-.706.901-.1.18-.235.215-.406.105-.13-.07-.295-.18-.495-.33-.19-.15-.386-.31-.586-.48-.19-.17-.37-.341-.54-.511a3.123 3.123 0 0 1-.376-.406c-.06-.08-.085-.145-.075-.195.01-.05.04-.115.09-.195Zm17.406-5.107c-.45.07-.89.1-1.321.09a7.498 7.498 0 0 1-1.562-.24c-.48-.14-.896-.36-1.247-.66-.35-.301-.62-.697-.81-1.187-.19-.5-.276-1.127-.256-1.877a24.095 24.095 0 0 1-3.86 2.132 24.256 24.256 0 0 1-4.175 1.352c-.73.17-1.547.31-2.448.42-.891.11-1.792.156-2.703.135a13.68 13.68 0 0 1-2.659-.285 7.221 7.221 0 0 1-2.297-.916A4.794 4.794 0 0 1 .79 17.995c-.4-.7-.596-1.567-.586-2.598a5.79 5.79 0 0 1 .03-.992 12 12 0 0 1 .195-1.231c.09-.43.2-.856.33-1.277.14-.43.29-.81.451-1.141.07-.19.175-.285.315-.285.05 0 .09.025.12.075.04.04.05.115.03.225-.18.52-.305.981-.375 1.382-.07.4-.125.806-.165 1.216-.06.571 0 1.087.18 1.547.18.46.446.871.796 1.232.35.35.766.65 1.247.9a9.04 9.04 0 0 0 1.547.617c.55.16 1.111.275 1.682.345.58.06 1.141.08 1.682.06a24.67 24.67 0 0 0 2.313-.165c.76-.1 1.511-.23 2.252-.39.751-.17 1.507-.376 2.268-.616a42.25 42.25 0 0 0 2.358-.857 16.5 16.5 0 0 0 1.021-.435c.32-.15.631-.305.932-.466.31-.17.615-.345.916-.525.31-.19.626-.39.946-.601.12-.08.21-.11.27-.09.06.01.09.09.09.24-.02.751.07 1.357.27 1.818.211.45.501.805.872 1.066.37.26.81.44 1.321.54.511.1 1.067.166 1.668.196 0 .13-.005.33-.015.6 0 .26-.005.536-.015.826 0 .29-.005.576-.015.857v.63Zm-.946-9.476c-.2-.15-.25-.32-.15-.511.25-.34.496-.676.736-1.006.24-.34.486-.681.736-1.022.08-.09.145-.13.195-.12.06.01.125.04.195.09l.526.436c.19.15.375.295.556.435.18.13.35.25.51.36.17.101.316.171.436.211.11.03.175.035.195.015.02-.02.075-.085.165-.195.1-.11.246-.285.436-.526l.84-1.006c.081-.08.146-.105.196-.075.06.02.11.045.15.075l1.112.901c.27.21.465.366.585.466.13.1.206.16.226.18.03.02.05.035.06.045.06.04.095.09.105.15.02.06.005.12-.045.18l-.751.962c-.24.31-.48.625-.72.946-.091.11-.166.16-.226.15a.465.465 0 0 1-.18-.075c-.35-.22-.676-.46-.977-.721-.3-.27-.61-.566-.93-.886-.261.32-.511.64-.752.961-.24.32-.485.636-.736.946-.1.12-.23.15-.39.09a1.863 1.863 0 0 1-.376-.195c-.18-.1-.335-.19-.465-.27l-.39-.27c-.13-.1-.261-.206-.391-.316-.14-.12-.3-.255-.48-.405Zm5.572 6.277c-.27.52-.61.992-1.021 1.412-.4.41-.846.761-1.337 1.051-.48.28-1 .496-1.562.646-.55.15-1.111.22-1.682.21V17.74c.2.02.37.03.511.03.14-.01.265-.015.375-.015.491 0 .997-.08 1.517-.24a8.75 8.75 0 0 0 1.517-.617c.49-.26.946-.55 1.367-.87.43-.331.796-.661 1.096-.992.09-.1.16-.135.21-.105.05.03.076.09.076.18-.04.47.05.861.27 1.172.22.3.5.545.841.736.35.19.73.335 1.141.435.41.09.781.165 1.112.226.17.03.35.05.54.06.19.01.386.015.586.015 0 .13-.005.33-.015.6 0 .26-.005.541-.015.841 0 .3-.005.591-.015.871v.631c-.93.12-1.567.13-1.907.03a6.345 6.345 0 0 1-1.277-.285c-.41-.15-.78-.35-1.111-.6a3.359 3.359 0 0 1-.826-.962c-.22-.39-.35-.851-.39-1.382Zm4.49.27c.01-.01.06-.014.151-.014h2.088c.55 0 1.036-.01 1.456-.03.43-.02.821-.05 1.172-.09.35-.05.68-.11.991-.18.31-.07.626-.151.946-.241-.16-.41-.39-.836-.69-1.277a14.36 14.36 0 0 0-.992-1.321c-.37-.44-.77-.876-1.201-1.307a29.67 29.67 0 0 0-1.277-1.261c-.42-.401-.836-.787-1.247-1.157-.4-.37-.765-.71-1.096-1.021-.04.27-.075.49-.105.66-.03.17-.09.266-.18.286-.11.03-.256-.06-.436-.27a4.878 4.878 0 0 1-.555-.766c-.19-.3-.356-.611-.496-.931-.15-.32-.24-.571-.27-.751-.02-.16.005-.376.075-.646a6.837 6.837 0 0 1 .63-1.607c.12-.23.236-.386.346-.466.14-.08.295-.17.465-.27.17-.11.421-.25.751-.42.33-.17.771-.381 1.322-.631a43.29 43.29 0 0 1 2.163-.932c.89-.37 1.987-.806 3.289-1.306 1.301-.5 2.868-1.087 4.7-1.757.12-.06.211-.07.271-.03.06.03.035.115-.075.255-.06.06-.185.195-.376.405-.19.21-.395.43-.615.661-.21.23-.406.436-.586.616-.18.18-.29.27-.33.27-.791.37-1.527.706-2.208 1.007-.681.29-1.387.595-2.118.916-.72.31-1.512.656-2.373 1.036-.85.37-1.852.821-3.003 1.352 1.792 1.612 3.113 2.868 3.965 3.77.85.9 1.281 1.351 1.291 1.351.57.66 1.041 1.307 1.412 1.937a5.2 5.2 0 0 1 .69 1.938c.09.65.02 1.326-.21 2.027-.22.701-.645 1.447-1.276 2.238-.21.21-.496.38-.856.51a7.06 7.06 0 0 1-1.202.286c-.44.06-.91.105-1.411.135-.491.02-.977.03-1.457.03h-1.577l.03-1.502c0-.48.005-.98.015-1.501Z"/></svg>