<?xml version="1.0" encoding="UTF-8"?>
<svg width="120px" height="16px" viewBox="0 0 120 16" version="1.1" xmlns="http://www.w3.org/2000/svg" xmlns:xlink="http://www.w3.org/1999/xlink">
    <title>sq-tagline</title>
    <g id="Page-1" stroke="none" stroke-width="1" fill="none" fill-rule="evenodd">
        <path d="M4.42057426,5.56909729 L2.91675274,5.56909729 L2.91675274,2.59450527 C2.91675274,1.86738277 3.11505887,1.53687255 4.00743648,1.53687255 L5.24684982,1.53687255 C6.48626317,1.53687255 6.75067135,2.197893 7.1142326,3.33815327 C7.31914884,3.36789899 7.49762466,3.33319582 7.65957447,3.25552572 C7.57694691,2.57797976 7.32906424,0.991530675 7.29601322,0.859326585 C7.29601322,0.826275563 7.27948771,0.809750052 7.22991118,0.809750052 C6.94897748,0.859326585 6.81677339,0.875852097 6.42016112,0.875852097 L2.20615575,0.875852097 C1.70212766,0.875852097 0.735385251,0.859326585 0.0743648007,0.842801074 C-0.0247882669,0.941954142 -0.0247882669,1.28898988 0.0743648007,1.38814295 C1.23115059,1.43771948 1.51208428,1.52034704 1.51208428,2.89196447 L1.51208428,9.51869448 C1.51208428,10.8903119 1.23115059,10.9729395 0.0743648007,11.022516 C-0.0247882669,11.1216691 -0.0247882669,11.4687048 0.0743648007,11.5678579 C0.685808717,11.5513324 1.67733939,11.5348069 2.22268126,11.5348069 L5.77566618,11.5348069 C6.56889073,11.5348069 7.89093163,11.5678579 7.89093163,11.5678579 C8.12228878,10.7415823 8.37017145,9.65089857 8.50237554,8.8080975 C8.33050982,8.71059708 8.14046695,8.67258836 7.92398265,8.72546994 C7.59347242,9.91530675 7.01507953,10.8903119 5.75914067,10.8903119 L3.84218137,10.8903119 C3.14810989,10.8903119 2.91675274,10.6259037 2.91675274,9.84920471 L2.91675274,6.19706672 L4.42057426,6.19706672 C5.82524272,6.19706672 5.87481925,6.57715348 5.92439579,7.32080149 C6.02354885,7.41995455 6.37058459,7.41995455 6.46973766,7.32080149 C6.45321215,6.89113819 6.43668663,6.43338133 6.43668663,5.8665565 C6.43668663,5.40384218 6.45321215,4.8419748 6.46973766,4.44536253 C6.37058459,4.34620946 6.02354885,4.34620946 5.92439579,4.44536253 C5.87481925,5.35426565 5.82524272,5.56909729 4.42057426,5.56909729 Z M12.0223094,5.61867383 C11.9215037,5.73435241 11.828961,5.77401353 11.8240033,5.61867383 C11.8074778,5.17248502 11.7694691,4.53294754 11.6917992,4.36273497 C11.6570955,4.28671752 11.6256972,4.23053088 11.4934931,4.23053088 C11.0307788,4.41231151 10.6011155,4.56104111 9.4608552,4.70977071 C9.42780417,4.80892378 9.4608552,5.07333196 9.49390622,5.17248502 C10.3862838,5.25511258 10.5680644,5.33774014 10.5680644,6.29621979 L10.5680644,9.51869448 C10.5680644,10.8737864 10.4028093,10.9398885 9.41127866,11.022516 C9.31212559,11.1216691 9.31212559,11.4687048 9.41127866,11.5678579 C9.907044,11.5513324 10.5680644,11.5348069 11.2290849,11.5348069 C11.8901054,11.5348069 12.3858707,11.5513324 12.881636,11.5678579 C12.9807891,11.4687048 12.9807891,11.1216691 12.881636,11.022516 C12.038835,10.9398885 11.8735798,10.8737864 11.8735798,9.51869448 L11.8735798,6.80851064 C11.8735798,6.4614749 12.0223094,6.26316877 12.1545135,6.11443917 C12.782483,5.50299525 13.526131,5.139434 14.1706259,5.139434 C14.5011361,5.139434 14.8481719,5.35426565 15.046478,5.73435241 C15.2117331,6.06486263 15.2447841,6.51105144 15.2447841,7.00681677 L15.2447841,9.51869448 C15.2447841,10.8737864 15.079529,10.9398885 14.2202024,11.022516 C14.1375749,11.1216691 14.1375749,11.4687048 14.2202024,11.5678579 C14.7159678,11.5513324 15.2447841,11.5348069 15.9058046,11.5348069 C16.566825,11.5348069 17.1617434,11.5513324 17.6575088,11.5678579 C17.7401363,11.4687048 17.7401363,11.1216691 17.6575088,11.022516 C16.7320801,10.9398885 16.5502995,10.8737864 16.5502995,9.51869448 L16.5502995,7.05639331 C16.5502995,6.14749019 16.4841975,5.35426565 16.1041107,4.8419748 C15.823177,4.47841355 15.3108862,4.28010742 14.7324933,4.28010742 C13.9227432,4.28010742 13.0022723,4.49493906 12.0223094,5.61867383 Z M24.515596,10.0309853 C24.4494939,9.88225573 24.3172898,9.81615369 24.1685602,9.79962818 C23.6066928,10.5267507 22.8960958,10.8903119 22.1854989,10.8903119 C20.9791365,10.8903119 19.9710804,9.66742409 19.9710804,7.73393927 C19.9710804,5.91613303 20.7643049,4.82544929 21.8549886,4.82544929 C22.8299938,4.82544929 22.9621979,5.40384218 23.0282999,5.98223508 C23.0778765,6.42842388 23.3092336,6.57715348 23.6562694,6.57715348 C24.0033051,6.57715348 24.4660194,6.36232183 24.4660194,5.85003099 C24.4660194,4.94112787 23.5240653,4.28010742 21.9376162,4.28010742 C20.3015906,4.28010742 18.5498864,5.75087792 18.5498864,8.09750052 C18.5498864,10.2292915 19.7397232,11.700062 21.8219376,11.700062 C22.8134683,11.700062 23.6893204,11.3860773 24.515596,10.0309853 Z M26.4986573,1.63602561 C26.4986573,2.06568891 26.8952696,2.4953522 27.2918818,2.4953522 C27.7545962,2.4953522 28.1512084,2.05081554 28.1512084,1.70212766 C28.1512084,1.30551539 27.8041727,0.842801074 27.3579839,0.842801074 C26.9613716,0.842801074 26.4986573,1.23941334 26.4986573,1.63602561 Z M28.0024788,9.51869448 L28.0024788,6.22516029 C28.0024788,5.40384218 28.0685809,4.34620946 28.0685809,4.34620946 C28.0685809,4.28010742 27.9859533,4.23053088 27.8537492,4.23053088 C27.3827722,4.41231151 26.7300145,4.56104111 25.5897542,4.70977071 C25.5567032,4.80892378 25.5897542,5.07333196 25.6228052,5.17248502 C26.5234456,5.25676523 26.6969634,5.35426565 26.6969634,6.29621979 L26.6969634,9.51869448 C26.6969634,10.8903119 26.5151828,10.9398885 25.5071266,11.022516 C25.4079736,11.1216691 25.4079736,11.4687048 25.5071266,11.5678579 C26.0524685,11.5513324 26.6969634,11.5348069 27.3579839,11.5348069 C28.0190043,11.5348069 28.6469738,11.5513324 29.1923156,11.5678579 C29.2914687,11.4687048 29.2914687,11.1216691 29.1923156,11.022516 C28.1842595,10.956414 28.0024788,10.8903119 28.0024788,9.51869448 Z M30.9109688,9.51869448 C30.9109688,10.8903119 30.7291882,10.956414 29.8037596,11.022516 C29.7046065,11.1216691 29.7046065,11.4687048 29.8037596,11.5678579 C30.3491014,11.5513324 30.9109688,11.5348069 31.5719893,11.5348069 C32.1503822,11.5348069 32.695724,11.5513324 33.0758108,11.5678579 C33.1749639,11.4687048 33.1749639,11.1216691 33.0758108,11.022516 C32.3982648,10.956414 32.2164842,10.8903119 32.2164842,9.51869448 L32.2164842,8.08262766 C32.533774,8.09089041 32.7667838,8.11567868 32.9270812,8.17186532 C33.1088618,8.29580665 33.2592441,8.44453625 33.4558975,8.70894443 L34.6622599,10.3284445 C35.1481098,10.9812022 35.3348484,11.2918819 35.3563313,11.4852303 C35.3612888,11.5348069 35.3728568,11.5678579 35.4224334,11.5678579 C35.7529436,11.5513324 36.1165049,11.5348069 36.4470151,11.5348069 C36.9593059,11.5348069 37.4715968,11.5513324 37.802107,11.5678579 C37.9012601,11.4687048 37.9012601,11.1216691 37.802107,11.022516 C37.2402396,10.956414 36.8221444,10.8837018 36.380913,10.3284445 L34.1995455,7.58520967 C34.1400536,7.51084487 34.083867,7.43648007 34.083867,7.35385251 C34.083867,7.28775046 34.083867,7.25469944 34.149969,7.1885974 L35.604214,5.68477587 C36.0999793,5.15595951 36.6783722,5.02375542 37.3393927,4.95765338 C37.4385458,4.85850031 37.4385458,4.51146457 37.3393927,4.41231151 C36.9593059,4.42883702 36.4965916,4.44536253 35.9016732,4.44536253 C35.2737038,4.44536253 34.6622599,4.42883702 34.2821731,4.41231151 C34.18302,4.51146457 34.18302,4.85850031 34.2821731,4.95765338 C35.2076017,5.02375542 34.8159469,5.60710577 34.6622599,5.80045445 C34.2821731,6.27969428 33.7649248,6.84156166 33.340219,7.15554637 C32.9733527,7.42656466 32.5288163,7.62156574 32.2164842,7.66453217 L32.2164842,1.90043405 C32.2164842,0.826275815 32.2825862,0.165255365 32.2825862,0.165255365 C32.2825862,0.0495767859 32.2164842,2.52159225e-07 32.0677546,2.52159225e-07 C31.6546168,0.165255365 30.4152035,0.396612522 29.754183,0.446189056 C29.721132,0.578393146 29.754183,0.842801326 29.8533361,0.941954394 C30.7126627,0.991530928 30.9109688,0.908903371 30.9109688,2.29704632 L30.9109688,9.51869448 Z M38.6283826,8.14707705 C38.6283826,9.8326792 39.7521173,11.700062 42.0987399,11.700062 C43.1629828,11.700062 43.9628174,11.3249329 44.5263374,10.7746333 C45.2666806,10.0508159 45.6021483,9.01136134 45.6021483,7.99834745 C45.6021483,6.27969428 44.6601942,4.28010742 42.131791,4.28010742 C41.0444123,4.28010742 40.1470769,4.72629622 39.5422434,5.4368932 C38.9423673,6.14088008 38.6283826,7.10266454 38.6283826,8.14707705 Z M41.8839083,4.85850031 C43.3051023,4.85850031 44.1809543,6.14749019 44.1809543,8.52716381 C44.1809543,10.6093782 43.1067961,11.1216691 42.3300971,11.1216691 C40.6114439,11.1216691 40.0495765,9.03945466 40.0495765,7.76699029 C40.0495765,6.32927081 40.3966123,4.85850031 41.8839083,4.85850031 Z M49.1716587,6.06486263 C49.601322,5.53604627 50.3581905,5.04028093 50.8407354,5.04028093 C51.8983681,5.04028093 52.8072712,6.23011774 52.8072712,8.09750052 C52.8072712,9.45259244 52.3280314,11.1381946 50.4771741,11.1381946 C50.1797149,11.1381946 49.601322,11.055567 49.3038628,10.7895062 C48.9717,10.492047 48.9072506,10.3961992 48.9072506,9.79962818 L48.9072506,6.79198513 C48.9072506,6.44494939 48.9799627,6.30117724 49.1716587,6.06486263 Z M48.857674,5.45341872 C48.8328858,4.95765338 48.8031398,4.53294754 48.7254699,4.36273497 C48.6907663,4.28671752 48.6593679,4.23053088 48.5271638,4.23053088 C48.0644495,4.41231151 47.6347862,4.56104111 46.4945259,4.70977071 C46.4614749,4.80892378 46.4945259,5.07333196 46.5275769,5.17248502 C47.4199546,5.25511258 47.6017352,5.33774014 47.6017352,6.29621979 L47.6017352,13.3526131 C47.6017352,14.7242305 47.4199546,14.8068581 46.4118984,14.8564346 C46.3127453,14.9555877 46.3127453,15.3026234 46.4118984,15.4017765 C46.9902913,15.385251 47.6017352,15.3687255 48.2627556,15.3687255 C48.9237761,15.3687255 49.7170006,15.385251 50.2623425,15.4017765 C50.3614956,15.3026234 50.3614956,14.9555877 50.2623425,14.8564346 C49.0890312,14.7903326 48.9072506,14.7242305 48.9072506,13.3526131 L48.9072506,11.5678579 C48.9072506,11.3530262 48.9700476,11.3745094 49.1386077,11.4439165 C49.5434828,11.607519 50.0541209,11.700062 50.5763272,11.700062 C51.5017558,11.700062 52.3280314,11.4191283 53.0055774,10.7746333 C53.7822764,10.0144598 54.2284652,8.98987812 54.2284652,7.65131171 C54.2284652,5.89960752 52.9890518,4.28010742 51.3034497,4.28010742 C50.5350134,4.28010742 49.6922124,4.78413551 49.0394547,5.51952076 C48.9469117,5.62363128 48.8659368,5.61206372 48.857674,5.45341872 Z M56.905598,6.87461268 C57.2195827,5.00722991 58.3763685,4.85850031 58.7729808,4.85850031 C59.4009502,4.85850031 60.1445982,5.20553605 60.1445982,6.59367899 C60.1445982,6.74240859 60.0784962,6.82173085 59.8967156,6.82503615 L56.905598,6.87461268 Z M61.235282,9.99793431 C60.623838,10.6259037 60.1445982,10.8903119 59.1861186,10.8903119 C58.5912002,10.8903119 57.8971287,10.5432762 57.3848378,9.70047511 C57.0543276,9.15513324 56.8560215,8.39495972 56.8560215,7.43648007 L61.2518075,7.46953109 C61.4501136,7.46953109 61.5657922,7.37037802 61.5657922,7.1885974 C61.5657922,5.80045445 61.0700269,4.31315844 58.7729808,4.31315844 C57.3352613,4.31315844 55.4678785,5.68477587 55.4678785,8.19665358 C55.4678785,9.12208221 55.6992357,10.0144598 56.2445776,10.6424293 C56.8064449,11.3034497 57.583144,11.700062 58.7729808,11.700062 C60.0289196,11.700062 60.9212973,11.1216691 61.5823177,10.2623425 C61.5327412,10.0970874 61.4335881,10.0144598 61.235282,9.99793431 Z M67.9446395,9.48564346 C67.9446395,9.79962818 67.9132412,9.92852721 67.6802314,10.1301384 C67.0687874,10.6589548 66.5399711,10.9233629 66.1268333,10.9233629 C65.2344557,10.9233629 64.3090271,9.94835778 64.3090271,7.88266887 C64.3090271,6.69283206 64.5403842,6.03181161 64.7882669,5.68477587 C65.3005577,4.90807684 65.9946292,4.85850031 66.3251394,4.85850031 C66.9200578,4.85850031 67.3331956,5.07333196 67.6637058,5.45341872 C67.895063,5.7178269 67.9446395,5.83350547 67.9446395,6.34579632 L67.9446395,9.48564346 Z M67.7628589,10.7035738 C67.8421812,10.6391242 67.9991735,10.6093782 68.0107416,10.7250568 C68.0520554,11.1299318 68.1925222,11.700062 68.1925222,11.700062 C68.3247263,11.7496385 68.4073539,11.7413757 68.5065069,11.700062 C68.8700682,11.4026028 69.4484611,11.1547201 70.4565172,11.0390415 C70.5556703,10.9398885 70.5556703,10.6920058 70.4565172,10.5928527 C69.3988845,10.5102252 69.2501549,10.1962404 69.2501549,9.38649039 L69.2501549,1.90043379 C69.2501549,0.826275563 69.316257,0.165255113 69.316257,0.165255113 C69.316257,0.0495765338 69.2501549,0 69.1014253,0 C68.6882875,0.165255113 67.4488742,0.39661227 66.7878537,0.446188804 C66.7548027,0.578392894 66.7878537,0.842801074 66.8870068,0.941954142 C67.7463334,0.991530675 67.9446395,0.908903119 67.9446395,2.29704606 L67.9446395,4.41231151 C67.9446395,4.52799008 67.9115885,4.56104111 67.7959099,4.56104111 C67.7298079,4.56104111 67.0522619,4.28010742 66.5069201,4.28010742 C65.4162363,4.28010742 64.6891138,4.64366866 64.0280934,5.27163809 C63.3174964,5.98223508 62.8878331,6.95724024 62.8878331,8.18012807 C62.8878331,10.212766 63.9124148,11.700062 65.69717,11.700062 C66.3416649,11.700062 66.9531089,11.3695517 67.7628589,10.7035738 Z M72.0925429,1.63602561 C72.0925429,2.06568891 72.4891551,2.4953522 72.8857674,2.4953522 C73.3484817,2.4953522 73.745094,2.05081554 73.745094,1.70212766 C73.745094,1.30551539 73.3980583,0.842801074 72.9518694,0.842801074 C72.5552572,0.842801074 72.0925429,1.23941334 72.0925429,1.63602561 Z M73.5963644,9.51869448 L73.5963644,6.22516029 C73.5963644,5.40384218 73.6624664,4.34620946 73.6624664,4.34620946 C73.6624664,4.28010742 73.5798389,4.23053088 73.4476348,4.23053088 C72.9766577,4.41231151 72.3239,4.56104111 71.1836397,4.70977071 C71.1505887,4.80892378 71.1836397,5.07333196 71.2166908,5.17248502 C72.1173311,5.25676523 72.290849,5.35426565 72.290849,6.29621979 L72.290849,9.51869448 C72.290849,10.8903119 72.1090684,10.9398885 71.1010122,11.022516 C71.0018591,11.1216691 71.0018591,11.4687048 71.1010122,11.5678579 C71.6463541,11.5513324 72.290849,11.5348069 72.9518694,11.5348069 C73.6128899,11.5348069 74.2408593,11.5513324 74.7862012,11.5678579 C74.8853543,11.4687048 74.8853543,11.1216691 74.7862012,11.022516 C73.778145,10.956414 73.5963644,10.8903119 73.5963644,9.51869448 Z M79.9256352,7.68436273 L79.9256352,9.86573022 C79.9256352,10.0805619 79.8264821,10.1962404 79.694278,10.2953935 C79.2646147,10.6424293 78.7027474,11.022516 78.2400331,11.022516 C77.4137575,11.022516 77.0501962,10.3614956 77.0501962,9.84920471 C77.0501962,9.1055567 77.397232,8.34538319 78.6201198,8.03139847 L79.9256352,7.68436273 Z M79.9256352,10.7415823 C80.0247883,11.2538732 80.1999588,11.700062 81.0328445,11.700062 C81.6657713,11.700062 82.2606897,11.4191283 82.602768,11.0886181 C82.5746745,10.8853545 82.5085724,10.74654 82.3218343,10.6424293 C82.197893,10.7448876 81.9202646,10.9068374 81.7103904,10.9068374 C81.2311506,10.9068374 81.2146251,10.2623425 81.2146251,9.50216897 L81.2146251,7.07291882 C81.2146251,4.72629622 79.9256352,4.28010742 78.7192729,4.28010742 C77.364181,4.28010742 75.9925635,5.17248502 75.9925635,6.11443917 C75.9925635,6.51105144 76.1908697,6.70935757 76.5709564,6.70935757 C77.0501962,6.70935757 77.3476554,6.36232183 77.3476554,6.14749019 C77.3476554,6.03181161 77.3311299,5.91613303 77.2980789,5.85003099 C77.2815534,5.80045445 77.2650279,5.70130138 77.2650279,5.51952076 C77.2650279,5.00722991 77.9590994,4.82544929 78.5870688,4.82544929 C79.1489362,4.82544929 79.9256352,5.10638298 79.9256352,6.97376575 C79.9256352,7.08944433 79.8760587,7.15554637 79.8264821,7.17207189 L78.4052882,7.51910762 C76.8188391,7.91571989 75.6785788,8.79157199 75.6785788,9.91530675 C75.6785788,11.2703987 76.6040074,11.700062 77.7607932,11.700062 C78.3358811,11.700062 78.8349515,11.5678579 79.562074,11.0059905 L79.8925842,10.7415823 L79.9256352,10.7415823 Z M88.8163603,6.87461268 C89.130345,5.00722991 90.2871308,4.85850031 90.683743,4.85850031 C91.3117125,4.85850031 92.0553605,5.20553605 92.0553605,6.59367899 C92.0553605,6.74240859 91.9892584,6.82173085 91.8074778,6.82503615 L88.8163603,6.87461268 Z M93.1460442,9.99793431 C92.5346003,10.6259037 92.0553605,10.8903119 91.0968808,10.8903119 C90.5019624,10.8903119 89.8078909,10.5432762 89.2956001,9.70047511 C88.9650899,9.15513324 88.7667837,8.39495972 88.7667837,7.43648007 L93.1625697,7.46953109 C93.3608759,7.46953109 93.4765544,7.37037802 93.4765544,7.1885974 C93.4765544,5.80045445 92.9807891,4.31315844 90.683743,4.31315844 C89.2460235,4.31315844 87.3786408,5.68477587 87.3786408,8.19665358 C87.3786408,9.12208221 87.6099979,10.0144598 88.1553398,10.6424293 C88.7172072,11.3034497 89.4939062,11.700062 90.683743,11.700062 C91.9396819,11.700062 92.8320595,11.1216691 93.4930799,10.2623425 C93.4435034,10.0970874 93.3443503,10.0144598 93.1460442,9.99793431 Z M99.8554018,9.51869448 C99.8554018,10.8903119 99.6736212,10.9729395 98.665565,11.022516 C98.5664119,11.1216691 98.5664119,11.4687048 98.665565,11.5678579 C99.2439579,11.5513324 99.8554018,11.5348069 100.516422,11.5348069 C101.177443,11.5348069 101.805412,11.5513324 102.350754,11.5678579 C102.449907,11.4687048 102.449907,11.1216691 102.350754,11.022516 C101.342698,10.9729395 101.160917,10.8903119 101.160917,9.51869448 L101.160917,1.90043379 C101.160917,0.826275563 101.227019,0.165255113 101.227019,0.165255113 C101.227019,0.0495765338 101.160917,0 101.012188,0 C100.59905,0.165255113 99.3596364,0.39661227 98.698616,0.446188804 C98.665565,0.578392894 98.698616,0.842801074 98.7977691,0.941954142 C99.7562487,1.00805619 99.8554018,1.05763272 99.8554018,2.29704606 L99.8554018,9.51869448 Z M104.135509,1.63602561 C104.135509,2.06568891 104.532121,2.4953522 104.928734,2.4953522 C105.391448,2.4953522 105.78806,2.05081554 105.78806,1.70212766 C105.78806,1.30551539 105.441025,0.842801074 104.994836,0.842801074 C104.598224,0.842801074 104.135509,1.23941334 104.135509,1.63602561 Z M105.639331,9.51869448 L105.639331,6.22516029 C105.639331,5.40384218 105.705433,4.34620946 105.705433,4.34620946 C105.705433,4.28010742 105.622805,4.23053088 105.490601,4.23053088 C105.019624,4.41231151 104.366866,4.56104111 103.226606,4.70977071 C103.193555,4.80892378 103.226606,5.07333196 103.259657,5.17248502 C104.160297,5.25676523 104.333815,5.35426565 104.333815,6.29621979 L104.333815,9.51869448 C104.333815,10.8903119 104.152035,10.9398885 103.143979,11.022516 C103.044825,11.1216691 103.044825,11.4687048 103.143979,11.5678579 C103.68932,11.5513324 104.333815,11.5348069 104.994836,11.5348069 C105.655856,11.5348069 106.283826,11.5513324 106.829168,11.5678579 C106.928321,11.4687048 106.928321,11.1216691 106.829168,11.022516 C105.821111,10.956414 105.639331,10.8903119 105.639331,9.51869448 Z M110.035117,5.61867383 C110.007023,4.95765338 109.980582,4.53294754 109.902913,4.36273497 C109.868209,4.28671752 109.836811,4.23053088 109.704606,4.23053088 C109.241892,4.41231151 108.812229,4.56104111 107.671969,4.70977071 C107.638918,4.80892378 107.671969,5.07333196 107.70502,5.17248502 C108.597397,5.25511258 108.779178,5.33774014 108.779178,6.29621979 L108.779178,9.51869448 C108.779178,10.8903119 108.580872,10.956414 107.55629,11.022516 C107.457137,11.1216691 107.457137,11.4687048 107.55629,11.5678579 C108.134683,11.5513324 108.779178,11.5348069 109.440198,11.5348069 C110.101219,11.5348069 110.861392,11.5513324 111.439785,11.5678579 C111.538938,11.4687048 111.538938,11.1216691 111.439785,11.022516 C110.282999,10.9398885 110.084693,10.8903119 110.084693,9.51869448 L110.084693,7.22164842 C110.084693,6.79198513 110.282999,6.41189837 110.481306,6.11443917 C110.663086,5.85003099 111.043173,5.30468911 111.241479,5.30468911 C111.390209,5.30468911 111.538938,5.34435024 111.667837,5.51456331 C111.793431,5.67981842 111.978517,5.89960752 112.266061,5.89960752 C112.662673,5.89960752 113.04276,5.48646974 113.04276,5.07333196 C113.04276,4.75769459 112.745301,4.28010742 112.051229,4.28010742 C111.27453,4.28010742 110.596984,5.00722991 110.216897,5.65172485 C110.117744,5.83350547 110.038422,5.70130138 110.035117,5.61867383 Z M114.910143,2.03263788 C114.910143,2.46230118 115.257178,2.80933691 115.686842,2.80933691 C116.116505,2.80933691 116.463541,2.46230118 116.463541,2.03263788 C116.463541,1.60297459 116.116505,1.23941334 115.686842,1.23941334 C115.257178,1.23941334 114.910143,1.60297459 114.910143,2.03263788 Z M117.702954,2.03263788 C117.702954,2.46230118 118.04999,2.80933691 118.479653,2.80933691 C118.909316,2.80933691 119.256352,2.46230118 119.256352,2.03263788 C119.256352,1.60297459 118.909316,1.23941334 118.479653,1.23941334 C118.04999,1.23941334 117.702954,1.60297459 117.702954,2.03263788 Z M115.32328,6.87461268 C115.637265,5.00722991 116.794051,4.85850031 117.190663,4.85850031 C117.818633,4.85850031 118.562281,5.20553605 118.562281,6.59367899 C118.562281,6.74240859 118.496178,6.82173085 118.314398,6.82503615 L115.32328,6.87461268 Z M119.652964,9.99793431 C119.04152,10.6259037 118.562281,10.8903119 117.603801,10.8903119 C117.008882,10.8903119 116.314811,10.5432762 115.80252,9.70047511 C115.47201,9.15513324 115.273704,8.39495972 115.273704,7.43648007 L119.66949,7.46953109 C119.867796,7.46953109 119.983474,7.37037802 119.983474,7.1885974 C119.983474,5.80045445 119.487709,4.31315844 117.190663,4.31315844 C115.752944,4.31315844 113.885561,5.68477587 113.885561,8.19665358 C113.885561,9.12208221 114.116918,10.0144598 114.66226,10.6424293 C115.224127,11.3034497 116.000826,11.700062 117.190663,11.700062 C118.446602,11.700062 119.33898,11.1216691 120,10.2623425 C119.950423,10.0970874 119.85127,10.0144598 119.652964,9.99793431 Z" id="sq-tagline" fill="#000000" fill-rule="nonzero"></path>
    </g>
</svg>