<svg xmlns="http://www.w3.org/2000/svg" width="44" height="32" fill="none"><path fill="#484848" d="M7.434 0c-1.55 0-2.75.437-3.599 1.31C3 2.181 2.581 3.264 2.581 4.561c0 .327.049.637.146.928h-1.31C.472 5.49 0 5.683 0 6.07c0 .45.684.674 2.054.674h.763c-.157.824-.358 1.89-.6 3.2l-.326 1.69a31.084 31.084 0 0 1-.4 1.89c-.17.751-.31 1.363-.419 1.836-.097.46-.145.764-.145.909 0 .145.102.32.308.526.219.194.389.291.51.291.157 0 .387-.551.69-1.654.146-.558.26-1.023.346-1.399.097-.375.218-.897.364-1.564l.253-1.09c.546-2.327.855-3.872.928-4.635h8.663c-.134.496-.327 1.375-.582 2.636a135.527 135.527 0 0 1-.49 2.453c-.146-.982-.443-1.835-.892-2.563-.448-.739-.975-1.109-1.58-1.109-.752 0-1.443.303-2.073.909a5.736 5.736 0 0 0-1.4 2.145c-.315.836-.473 1.636-.473 2.4 0 .763.14 1.368.42 1.817.278.436.726.655 1.344.655.618 0 1.26-.152 1.927-.454a6.583 6.583 0 0 0 1.818-1.2c-.013.266-.043.636-.091 1.108-.049.473-.067.794-.055.964a.747.747 0 0 0 .163.418.49.49 0 0 0 .346.163c.364 0 .975-1.83 1.836-5.49.545-2.29.878-3.907 1-4.852h2.108c.028 0 .037-.013.064-.014.053.001.069.014.124.014h.764c-.158.824-.358 1.89-.6 3.2l-.327 1.69a31.028 31.028 0 0 1-.4 1.89l-.418 1.836c-.097.46-.146.764-.146.909 0 .145.103.32.309.526.218.194.388.291.51.291.157 0 .387-.551.69-1.654.145-.558.26-1.023.345-1.399.097-.375.219-.897.364-1.564l.254-1.09c.545-2.327.855-3.872.927-4.635h1.964c.007 0 .009-.003.015-.003s.007.003.013.003h6.107c-.17.824-.4 2.096-.69 3.817-.68-1.066-1.424-1.6-2.236-1.6-.594 0-1.224.31-1.89.927a7.895 7.895 0 0 0-1.6 2.054c-.412.764-.618 1.37-.618 1.818 0 .436.206.824.618 1.163.412.328.818.491 1.218.491.896 0 2.181-.581 3.853-1.745-.387 1.733-.582 2.678-.582 2.836 0 .158.055.297.164.418a.523.523 0 0 0 .382.163c.218 0 .424-.248.618-.745.109-.255.224-.563.345-.927.121-.375.364-1.363.728-2.963.92-.702 1.654-1.224 2.2-1.563.544-.352.987-.527 1.326-.527.388 0 .581.236.581.709 0 .472-.121.957-.364 1.454-.23.497-.484.896-.763 1.2-.279.29-.539.575-.78.854-.231.267-.347.46-.347.581 0 .122.06.224.182.31a.656.656 0 0 0 .382.127c.242 0 .588-.224 1.036-.673.46-.46.884-1.042 1.272-1.745.4-.715.6-1.35.6-1.908 0-.57-.188-1.06-.564-1.472-.363-.412-.847-.619-1.453-.619-.606 0-1.576.479-2.909 1.436.46-1.975.715-3.265.764-3.871h5.489c.654 0 .982-.206.982-.618 0-.424-.328-.636-.982-.636h-5.56c-.45-1.585-1.232-2.898-2.357-3.927C24.78.521 23.435 0 21.884 0c-1.552 0-2.751.437-3.6 1.31-.836.872-1.254 1.955-1.254 3.252 0 .327.049.637.146.928h-3.349c-.451-1.585-1.232-2.898-2.357-3.927C10.33.521 8.985 0 7.434 0Zm-.163 1.31c1.381 0 2.514.441 3.398 1.326.449.436.837.89 1.164 1.363.276.4.58.926.891 1.49H6.191c-.031 0-.04.015-.07.016-.044-.001-.058-.015-.104-.015H4.09a2.525 2.525 0 0 1-.11-.764c0-1.006.285-1.824.855-2.454.581-.642 1.394-.963 2.436-.963Zm14.45 0c1.38 0 2.513.441 3.398 1.326.448.436.836.89 1.163 1.363.277.4.58.926.891 1.49h-6.406c-.053 0-.07.024-.12.026-.074-.002-.1-.025-.18-.025h-1.928a2.525 2.525 0 0 1-.109-.764c0-1.006.284-1.824.854-2.454.582-.642 1.394-.963 2.436-.963ZM9.243 9.523c.363 0 .71.322 1.037.964.327.63.557 1.412.69 2.345a6.408 6.408 0 0 1-1.69 1.381c-.643.364-1.237.546-1.782.546-.436 0-.654-.382-.654-1.146 0-.533.115-1.12.345-1.763a5.58 5.58 0 0 1 .928-1.635c.387-.46.762-.692 1.126-.692Zm14.794.746c.23 0 .48.103.746.309.267.206.461.394.582.563l.545.727v.055c-.92.715-1.708 1.267-2.362 1.655-.643.375-1.23.562-1.764.562-.4 0-.6-.163-.6-.49 0-.46.352-1.139 1.055-2.036.714-.896 1.314-1.345 1.799-1.345Z"/><path fill="#666" d="M9.514 20.415c-.666 0-.998.212-.998.636 0 .411.332.617.998.617h1.162a.593.593 0 0 0-.036.146c0 .169.097.356.29.562.194.206.358.309.49.309.134 0 .34-.103.618-.309.279-.218.557-.327.835-.327.57 0 .854.364.854 1.09 0 .496-.127.98-.381 1.453-.242.46-.54.86-.89 1.198a14.4 14.4 0 0 1-1.053.926c-.351.278-.654.52-.908.726-.242.206-.363.363-.363.472 0 .303.133.588.4.854.278.266.562.4.852.4 1.041 0 2.107-.218 3.197-.654a9.248 9.248 0 0 0 2.887-1.834 57.88 57.88 0 0 1-.4 1.96c-.157.764-.278 1.363-.363 1.799-.085.424-.127.714-.127.871 0 .158.079.315.236.472.17.146.327.218.472.218.206 0 .43-.442.672-1.326.121-.46.224-.871.309-1.234.084-.364.206-.902.363-1.616.17-.715.405-1.72.708-3.015.303-1.307.496-2.354.581-3.141h3.686c-.157.823-.357 1.889-.599 3.196-.12.63-.23 1.193-.327 1.689a30.95 30.95 0 0 1-.4 1.888c-.169.75-.308 1.362-.417 1.835-.097.46-.145.762-.145.907 0 .146.103.32.309.526.217.194.387.291.508.291.085 0 .188-.145.309-.435.048-.146.096-.303.145-.473a11.41 11.41 0 0 0 .381-1.362c.061-.23.127-.508.2-.835.084-.327.151-.605.2-.835.06-.242.133-.545.218-.908.654-2.748 1.029-4.576 1.126-5.484h8.937a587.43 587.43 0 0 1-.726 3.85c-.715-.448-1.725-.902-3.033-1.363-1.295-.46-2.24-.69-2.833-.69-.363 0-.544.146-.544.436 0 .17.218.346.654.527.23.085.466.164.708.236.254.073.593.176 1.017.309.424.133.823.272 1.198.417.388.133 1.187.473 2.397 1.017-.484.255-1.737 1.011-3.759 2.27l-.726.436c-.17.097-.381.224-.636.382-.242.157-.435.284-.58.38a8.032 8.032 0 0 0-.419.328 1.456 1.456 0 0 0-.308.29.487.487 0 0 0-.09.29c0 .098.047.2.144.309a.632.632 0 0 0 .436.146c.182 0 1.078-.49 2.688-1.471 1.61-.981 2.693-1.652 3.25-2.015a729.914 729.914 0 0 0-.672 3.486c0 .206.079.387.236.544.17.146.327.218.472.218.134 0 .285-.236.455-.708.084-.23.162-.472.235-.726a27.345 27.345 0 0 0 .49-2.016c.073-.302.158-.684.255-1.144l.617-2.705c.315-1.332.508-2.343.581-3.033h3.476c-.157.823-.357 1.889-.6 3.196-.12.63-.23 1.193-.326 1.689a30.945 30.945 0 0 1-.4 1.888c-.169.75-.308 1.362-.417 1.835-.097.46-.145.762-.145.907 0 .146.103.32.309.526.217.194.387.291.508.291.084 0 .187-.145.308-.435.049-.146.097-.303.146-.473a11.41 11.41 0 0 0 .38-1.362c.061-.23.128-.508.2-.835.085-.327.152-.605.2-.835.061-.242.134-.545.218-.908.654-2.748 1.03-4.576 1.126-5.484h2.125c.654 0 .98-.206.98-.617 0-.424-.326-.636-.98-.636H9.514Zm5.302 1.253h3.596l-.236 1.271c-.327 1.308-1.15 2.458-2.47 3.45-1.307.993-2.632 1.532-3.976 1.617a8.856 8.856 0 0 0 2.397-2.252c.653-.908.98-1.81.98-2.706 0-.508-.097-.968-.29-1.38Z"/></svg>