<svg xmlns="http://www.w3.org/2000/svg" width="120" height="18" viewBox="0 0 120 18">
  <path fill="#fff" d="M0 0h120v18H0z"/>
  <path d="M59.739 5.711c0-.156.074-.298.222-.425.148-.131.3-.197.457-.197a.55.55 0 0 1 .431.216c.127.144.19.296.19.457 0 .148-.069.29-.209.426a.638.638 0 0 1-.463.203c-.157 0-.3-.072-.432-.216a.678.678 0 0 1-.197-.464Zm1.117 6.373c.008.53.065.853.171.972.106.114.362.184.768.21.034.033.05.082.05.145 0 .06-.016.11-.05.152-.165 0-.391-.01-.679-.031a9.992 9.992 0 0 0-.724-.032c-.199 0-.446.01-.742.032-.297.02-.523.031-.68.031-.097-.097-.097-.196 0-.298.407-.034.66-.108.762-.222.102-.118.161-.438.178-.958.017-.58.025-1.065.025-1.454 0-.229-.008-.603-.025-1.124-.009-.372-.061-.603-.159-.692-.093-.093-.321-.156-.685-.19-.034-.106-.043-.184-.026-.235.754-.097 1.33-.222 1.727-.374.114 0 .171.03.171.088l-.019.216a94.408 94.408 0 0 1-.063 1.13 23.459 23.459 0 0 0-.026 1.194c0 .215.009.696.026 1.44Zm-4.146.076c.025-.892.038-1.984.038-3.275 0-1.413-.013-2.372-.038-2.875-.017-.449-.072-.724-.166-.825-.088-.106-.296-.168-.622-.185-.05-.05-.065-.133-.044-.247.728-.06 1.284-.17 1.67-.33.114 0 .169.04.164.12-.025.242-.042.631-.05 1.168a179.717 179.717 0 0 0-.032 3.51c0 1.13.01 2.11.032 2.94.008.495.061.8.158.914.102.11.347.173.737.19.097.106.097.205 0 .298-.157 0-.38-.01-.667-.031a9.875 9.875 0 0 0-.71-.032c-.191 0-.43.01-.718.032a9.4 9.4 0 0 1-.648.031c-.097-.105-.097-.205 0-.298.39-.017.633-.08.73-.19.102-.115.157-.42.166-.914Zm-3.068 0c.026-.892.038-1.984.038-3.275 0-1.413-.012-2.372-.038-2.875-.017-.449-.072-.724-.165-.825-.089-.106-.296-.168-.622-.185-.05-.05-.065-.133-.044-.247.728-.06 1.284-.17 1.67-.33.113 0 .169.04.164.12-.025.242-.042.631-.05 1.168a178.891 178.891 0 0 0-.032 3.51c0 1.13.01 2.11.031 2.94.009.495.062.8.16.914.1.11.346.173.736.19.097.106.097.205 0 .298-.157 0-.38-.01-.667-.031a9.875 9.875 0 0 0-.71-.032c-.191 0-.43.01-.718.032-.284.02-.5.031-.648.031-.097-.105-.097-.205 0-.298.39-.017.633-.08.73-.19.102-.115.157-.42.165-.914Zm-5.155-2.024 2.514-.07c.122 0 .181-.055.177-.165 0-.495-.114-.876-.343-1.143-.228-.27-.503-.406-.825-.406-.304 0-.61.142-.914.425-.3.284-.503.737-.61 1.359Zm3.434 2.209c.14.008.226.076.26.203-.546.72-1.27 1.079-2.17 1.079-.868 0-1.522-.262-1.962-.787-.39-.449-.584-1.064-.584-1.847 0-.885.264-1.596.793-2.133.53-.538 1.113-.806 1.752-.806.787 0 1.344.211 1.67.634.325.42.489.936.489 1.55 0 .147-.079.222-.235.222l-3.485.05c0 .737.13 1.316.393 1.74.182.296.41.52.686.672.28.153.544.229.793.229.33 0 .614-.068.85-.203a3.38 3.38 0 0 0 .75-.603Zm-6.774-.185c.025-.892.038-1.984.038-3.275 0-1.413-.013-2.372-.038-2.875-.017-.449-.072-.724-.165-.825-.09-.106-.297-.168-.622-.185-.051-.05-.066-.133-.045-.247.728-.06 1.285-.17 1.67-.33.114 0 .169.04.165.12-.026.242-.043.631-.051 1.168a178.891 178.891 0 0 0-.032 3.51c0 1.13.01 2.11.032 2.94.008.495.061.8.159.914.101.11.347.173.736.19.097.106.097.205 0 .298-.157 0-.379-.01-.667-.031a9.875 9.875 0 0 0-.71-.032c-.191 0-.43.01-.718.032-.283.02-.5.031-.647.031-.098-.105-.098-.205 0-.298.389-.017.632-.08.73-.19.101-.115.156-.42.165-.914Zm-2.432-.075c.008.279.025.492.05.64.03.145.093.259.19.343.098.08.206.132.325.153.118.02.306.036.564.044a.206.206 0 0 1 .058.152.17.17 0 0 1-.058.146 22.875 22.875 0 0 1-.8-.038 18.516 18.516 0 0 0-.875-.025c-.241 0-.54.008-.895.025-.352.021-.616.034-.794.038a.198.198 0 0 1-.057-.146.21.21 0 0 1 .057-.152 6.84 6.84 0 0 0 .565-.044.693.693 0 0 0 .324-.153.603.603 0 0 0 .19-.349c.03-.148.047-.36.051-.634.026-1.08.038-1.998.038-2.755 0-.783-.013-1.716-.038-2.8a5.638 5.638 0 0 0-.025-.457.968.968 0 0 0-.21-.52.428.428 0 0 0-.21-.12 1.425 1.425 0 0 0-.285-.058 10.27 10.27 0 0 0-.4-.025.198.198 0 0 1-.057-.146.21.21 0 0 1 .057-.153c.186.005.453.017.8.038.347.017.639.026.876.026.241 0 .537-.009.889-.026.355-.02.622-.034.8-.038a.206.206 0 0 1 .057.153.17.17 0 0 1-.058.146c-.258.012-.446.03-.565.05a.617.617 0 0 0-.507.496 3.87 3.87 0 0 0-.057.634 96.9 96.9 0 0 0-.039 2.812c0 .758.013 1.672.039 2.742Zm-9.327 1.542c-1.025 0-1.513-.563-1.467-1.689.034-.85.034-1.699 0-2.545-.017-.39-.074-.643-.171-.762-.093-.118-.292-.19-.597-.215-.097-.098-.097-.197 0-.299.605.017 1 .026 1.187.026.199 0 .34-.009.425-.026.068 0 .104.026.108.076l-.057 1.15a29.07 29.07 0 0 0 0 2.43c.026.572.095.948.21 1.13.114.182.357.273.73.273.156 0 .368-.072.634-.216a3.803 3.803 0 0 0 .82-.584.487.487 0 0 1 .063-.05c.008-.005.017-.02.025-.045a.396.396 0 0 0 .026-.076 35.291 35.291 0 0 0 .006-2.787c-.017-.406-.074-.67-.172-.793-.097-.123-.296-.193-.596-.21-.098-.097-.098-.196 0-.298.605.017.998.026 1.18.026.208 0 .356-.009.445-.026.059 0 .089.026.089.076a65.08 65.08 0 0 0-.051 1.15 35.29 35.29 0 0 0 0 2.678c.017.33.078.556.184.68.11.118.351.194.724.228.059.067.059.133 0 .197-.589.067-1.048.234-1.378.501a.373.373 0 0 1-.235 0c-.097-.305-.144-.55-.14-.736-.008-.043-.033-.062-.076-.057a.218.218 0 0 0-.108.044c-.626.5-1.229.749-1.808.749ZM23.363 9.431a.748.748 0 0 0-.21.52 31.66 31.66 0 0 0 0 2.197c.018.495.064.798.14.908.08.106.282.175.604.21.097.105.097.204 0 .297-.157 0-.354-.01-.59-.031a6.865 6.865 0 0 0-.61-.032c-.19 0-.421.01-.692.032a8.379 8.379 0 0 1-.622.031.237.237 0 0 1-.051-.152c0-.063.017-.112.05-.146.356-.025.58-.095.674-.21.097-.118.154-.42.171-.907.034-.901.034-1.803 0-2.704-.017-.356-.07-.576-.159-.66-.084-.09-.3-.15-.647-.184-.034-.098-.042-.172-.026-.223.745-.105 1.295-.222 1.65-.349.107 0 .16.03.16.09-.043.38-.064.697-.064.951 0 .106.036.112.108.02l.02-.02c.642-.677 1.298-1.015 1.967-1.015.313 0 .58.086.8.26.22.173.36.39.419.647.017.077.061.08.133.013.588-.613 1.301-.92 2.14-.92.503 0 .845.173 1.027.52.182.347.26.832.235 1.454a29.503 29.503 0 0 0 0 2.12c.017.495.066.8.146.914.085.11.3.178.648.203.084.106.084.205 0 .298-.165 0-.37-.01-.616-.031a7.397 7.397 0 0 0-.635-.032c-.173 0-.383.01-.628.032a7.284 7.284 0 0 1-.603.031c-.085-.105-.085-.205 0-.298.33-.025.535-.093.616-.203.084-.114.135-.419.152-.914a26.9 26.9 0 0 0 0-2.342c-.026-.737-.29-1.105-.794-1.105-.66 0-1.237.273-1.732.819.016.165.02.33.012.495a29.858 29.858 0 0 0 0 2.133c.017.495.064.8.14.914.08.11.281.178.603.203.085.106.085.205 0 .298-.165 0-.36-.01-.584-.031a6.56 6.56 0 0 0-.61-.032c-.173 0-.385.01-.634.032a7.28 7.28 0 0 1-.603.031c-.085-.097-.085-.196 0-.298.338-.025.546-.09.622-.197.08-.11.129-.416.146-.92.034-.77.034-1.543 0-2.317-.034-.753-.316-1.13-.845-1.13-.448 0-.924.243-1.428.73Zm-4.215 1.314-1.067.26c-.423.106-.736.28-.94.52a1.19 1.19 0 0 0-.304.782c0 .224.087.435.26.634.178.2.41.299.698.299a1.061 1.061 0 0 0 .362-.102c.055-.025.125-.068.21-.127a6.435 6.435 0 0 0 .546-.431.403.403 0 0 0 .171-.318l.064-1.517Zm-.064 2.158h-.025l-.248.197c-.28.216-.51.358-.692.425-.182.068-.41.102-.685.102-1.033 0-1.55-.423-1.55-1.27 0-.414.187-.774.56-1.079.372-.304.867-.527 1.485-.666l1.168-.26c.042-.017.063-.108.063-.273 0-.635-.097-1.084-.292-1.346-.194-.262-.423-.394-.685-.394-.259 0-.49.053-.692.159-.203.102-.305.243-.305.425a.86.86 0 0 0 .025.248c.026.05.039.125.039.222 0 .093-.055.197-.166.311a.529.529 0 0 1-.406.171.49.49 0 0 1-.362-.14.525.525 0 0 1-.133-.367c0-.33.222-.63.667-.902a2.71 2.71 0 0 1 1.44-.412c1.232 0 1.82.702 1.765 2.107l-.063 1.841c-.017.39.008.673.076.85.072.174.22.26.444.26a.353.353 0 0 0 .26-.1.577.577 0 0 1 .115-.109c.034 0 .072.017.114.051.046.034.07.072.07.114 0 .026-.045.083-.134.172a1.357 1.357 0 0 1-.387.26 1.204 1.204 0 0 1-.533.127c-.474.004-.785-.237-.933-.724Zm-7.79-1.041c.085-.084.167-.089.248-.012.14.554.321.94.546 1.155.224.224.541.336.952.336.25 0 .493-.095.73-.285.241-.19.362-.428.362-.711a.893.893 0 0 0-.273-.667c-.182-.182-.525-.376-1.029-.584-.503-.216-.857-.436-1.06-.66-.203-.228-.304-.559-.304-.99 0-.39.175-.717.526-.984a1.95 1.95 0 0 1 1.225-.406c.191 0 .386.015.585.044.203.03.408.07.615.12.208.047.345.075.413.083 0 .106-.01.299-.032.578a9.27 9.27 0 0 0-.032.666c-.097.098-.188.102-.273.013-.122-.817-.548-1.223-1.276-1.219-.215 0-.423.093-.622.28-.198.186-.298.4-.298.64 0 .305.102.54.305.705.203.165.53.335.984.508.478.182.84.396 1.085.641.246.242.368.557.368.946 0 .288-.07.54-.21.756-.139.215-.314.38-.526.495a2.746 2.746 0 0 1-1.238.317 4.45 4.45 0 0 1-1.13-.14.944.944 0 0 0-.247-.025 1.84 1.84 0 0 0-.318.038c0-.487-.025-1.033-.076-1.638ZM5.218 9.888h2.324L6.29 6.283h-.038L4.888 9.647c-.03.068-.017.125.038.171.06.047.157.07.292.07Zm-1.472 2.717a.679.679 0 0 0-.045.184c0 .055.009.104.026.146a.629.629 0 0 0 .076.108.39.39 0 0 0 .127.083l.158.057c.051.017.11.031.178.044.072.008.136.017.19.025.056.005.117.009.185.013a.206.206 0 0 1 .057.152.17.17 0 0 1-.057.146 22.918 22.918 0 0 1-.648-.038 14.122 14.122 0 0 0-.755-.025c-.186 0-.415.008-.686.025a13.48 13.48 0 0 1-.603.038.198.198 0 0 1-.057-.146.21.21 0 0 1 .057-.152c.318-.021.574-.095.768-.222.2-.127.377-.372.533-.736l3.016-7.103c.16 0 .387-.087.679-.26l2.717 7.566c.055.16.12.292.196.393a.79.79 0 0 0 .292.223c.119.046.22.078.305.095.089.017.214.031.375.044a.206.206 0 0 1 .057.152.2.2 0 0 1-.057.146 17.502 17.502 0 0 1-.483-.025l-.577-.025a11.334 11.334 0 0 0-.515-.013c-.194 0-.501.01-.92.032-.415.02-.675.031-.78.031a.198.198 0 0 1-.058-.146.21.21 0 0 1 .057-.152c.03 0 .072-.002.127-.006a4.206 4.206 0 0 0 .387-.032c.077-.013.134-.023.172-.032l.133-.044a.223.223 0 0 0 .102-.07.46.46 0 0 0 .057-.089.23.23 0 0 0 .025-.133.657.657 0 0 0-.038-.165L7.694 10.3h-2.71c-.144 0-.248.023-.312.07a.498.498 0 0 0-.146.215l-.78 2.019Z"/>
</svg>
