<?xml version="1.0" encoding="UTF-8"?>
<svg width="113px" height="10px" viewBox="0 0 113 10" version="1.1" xmlns="http://www.w3.org/2000/svg" xmlns:xlink="http://www.w3.org/1999/xlink">
    <title>srn-tagline</title>
    <g id="Page-1" stroke="none" stroke-width="1" fill="none" fill-rule="evenodd">
        <path d="M3.66772256,5.84301302 C3.34389322,5.84301302 3.24533617,5.81485392 3.30165427,5.65997888 L4.72368877,2.08377332 L4.75184787,2.08377332 L6.11756416,5.84301302 L3.66772256,5.84301302 M2.14713121,8.71524111 L2.92150644,6.67370644 C2.99190409,6.49067328 3.07638178,6.4343541 3.41429067,6.4343541 L6.34283696,6.4343541 L7.20168947,8.81379796 C7.39880297,9.40513904 6.82154095,9.34882084 6.15980281,9.39105949 C6.07532561,9.47553678 6.07532561,9.7712083 6.15980281,9.85568462 C6.68074565,9.84160507 7.45512195,9.82752552 8.00422379,9.82752552 C8.58148473,9.82752552 9.08834959,9.84160507 9.60929243,9.85568462 C9.69376963,9.7712083 9.69376963,9.47553678 9.60929243,9.39105949 C9.06019059,9.34882084 8.59556458,9.34882084 8.34213298,8.61668427 L5.45582534,0.985568462 C5.34318904,0.718058 5.272791,0.563181978 5.0756775,0.563181978 C4.86448446,0.563181978 4.75184767,0.689898901 4.59697282,1.07004576 L1.47131283,8.39141147 C1.09116538,9.26434354 0.668777939,9.34882084 0.0633578992,9.39105949 C-0.0211192997,9.47553678 -0.0211192997,9.7712083 0.0633578992,9.85568462 C0.58430074,9.84160507 0.767335959,9.82752552 1.31643779,9.82752552 C1.89369874,9.82752552 2.59767732,9.84160507 3.11862013,9.85568462 C3.20309733,9.7712083 3.20309733,9.47553678 3.11862013,9.39105949 C2.58359778,9.36290039 1.92185865,9.30658219 2.14713121,8.71524111 M15.7382959,8.10982049 L15.7382959,4.33650123 L17.047694,4.33650123 C17.17441,4.33650123 17.3715236,4.28018303 17.3715236,4.15346709 L17.3715236,3.8718761 C17.3715236,3.81555888 17.329285,3.7873988 17.2588873,3.7873988 L15.7382959,3.7873988 L15.7382959,2.98486448 C15.7382959,0.816616802 16.3859562,0.478704681 16.8505803,0.478704681 C17.2729668,0.478704681 17.4982406,0.647660253 17.6953533,1.14044351 C17.8079897,1.3938754 17.9628657,1.59098909 18.2585353,1.59098909 C18.4978876,1.59098909 18.8357968,1.29531855 18.8357968,1.01372756 C18.8357968,0.774376198 18.6809217,0.52094333 18.3852512,0.295670539 C18.0191839,0.0422396261 17.6531146,1.77635684e-15 17.1180918,1.77635684e-15 C15.9354116,1.77635684e-15 14.6260115,1.02781004 14.6260115,3.22421683 L14.6260115,3.7873988 L13.9079545,3.7873988 C13.6545236,3.7873988 13.5841248,3.95635437 13.5841248,4.06898979 L13.5841248,4.25202394 C13.5841248,4.32242168 13.5982044,4.33650123 13.6545226,4.33650123 L14.6260115,4.33650123 L14.6260115,8.10982049 C14.6260115,9.27842211 14.4711365,9.33474227 13.7108408,9.39105949 C13.6263635,9.47553678 13.6263635,9.7712083 13.7108408,9.85568462 C14.3021819,9.84160507 14.6119329,9.82752552 15.1891935,9.82752552 C15.8368528,9.82752552 16.2451607,9.84160507 16.8505803,9.85568462 C16.9350576,9.7712083 16.9350576,9.47553678 16.8505803,9.39105949 C15.8931719,9.33474227 15.7382959,9.27842211 15.7382959,8.10982049 M19.0546898,5.36430834 L19.0546898,8.10982049 C19.0546898,9.27842211 18.8857342,9.33474227 18.0128031,9.39105949 C17.9283258,9.47553678 17.9283258,9.7712083 18.0128031,9.85568462 C18.6041442,9.84160507 19.0546908,9.82752552 19.6178718,9.82752552 C20.1951333,9.82752552 20.7160776,9.84160507 21.3214972,9.85568462 C21.4059745,9.7712083 21.4059745,9.47553678 21.3214972,9.39105949 C20.3359298,9.32066272 20.1669742,9.27842211 20.1669742,8.10982049 L20.1669742,6.15276311 C20.1669742,5.7866958 20.3359298,5.46286519 20.5048834,5.2094333 C20.6597584,4.98416148 20.983589,4.51953537 21.1525427,4.51953537 C21.2510995,4.51953537 21.3637359,4.5336159 21.4482132,4.61809222 C21.5890087,4.75888772 21.7298052,5.02639916 22.0254747,5.02639916 C22.3633839,5.02639916 22.6872135,4.67441042 22.6872135,4.32242168 C22.6872135,4.05491122 22.4337817,3.64660331 21.8424406,3.64660331 C21.1807027,3.64660331 20.6034402,4.26610446 20.2796106,4.81520591 C20.1951333,4.97008096 20.1528946,4.89968321 20.1528946,4.82928546 C20.1528946,4.37874086 20.2232924,3.70292151 20.2232924,3.70292151 C20.2232924,3.64660429 20.1528946,3.60436466 20.0402582,3.60436466 C19.6460318,3.7592397 19.0828479,3.88595663 18.11136,4.01267159 C18.0832009,4.09714889 18.0832009,4.32242266 18.1395191,4.40689898 C18.8998147,4.47729673 19.0546898,4.5899341 19.0546898,5.36430834 M24.1387271,1.3938754 C24.1387271,1.75994368 24.4766373,2.12601197 24.8145455,2.12601197 C25.2087729,2.12601197 25.546682,1.75994368 25.546682,1.45019359 C25.546682,1.11228538 25.2510115,0.718057022 24.8708637,0.718057022 C24.5329555,0.718057022 24.1387271,1.05596719 24.1387271,1.3938754 M25.4199661,8.10982049 L25.4199661,5.30799014 C25.4199661,4.60401365 25.4762843,3.70292151 25.4762843,3.70292151 C25.4762843,3.64660429 25.4058865,3.60436466 25.2932502,3.60436466 C24.8849442,3.7592397 24.3358398,3.88595663 23.3643519,4.01267159 C23.3361928,4.09714889 23.3643519,4.32242266 23.392511,4.40689898 C24.1528066,4.49137628 24.3076817,4.561775 24.3076817,5.36430834 L24.3076817,8.10982049 C24.3076817,9.27842211 24.1528066,9.32066272 23.2939541,9.39105949 C23.2094768,9.47553678 23.2094768,9.7712083 23.2939541,9.85568462 C23.8852952,9.84160507 24.2513645,9.82752552 24.8708637,9.82752552 C25.4762843,9.82752552 25.828274,9.84160507 26.4336937,9.85568462 C26.518171,9.7712083 26.518171,9.47553678 26.4336937,9.39105949 C25.5748421,9.33474227 25.4199661,9.27842211 25.4199661,8.10982049 M32.6636743,4.71664907 C33.0297426,4.39282041 33.45213,4.26610348 33.860436,4.26610348 C34.7192885,4.26610348 35.423266,5.3079921 35.423266,6.67370644 C35.423266,8.2787741 34.7756057,9.48961633 33.4380495,9.48961633 C33.0015845,9.48961633 32.7059129,9.17986624 32.424322,8.82787751 L32.424322,5.30799014 C32.424322,5.01232058 32.4806411,4.88560366 32.6636743,4.71664907 M32.5651175,4.28018303 C32.4665606,4.36466033 32.424322,4.33650123 32.424322,4.20978529 L32.424322,1.61914819 C32.424322,0.70397845 32.4806402,0.140795495 32.4806402,0.140795495 C32.4806402,0.0422396261 32.424322,1.77635684e-15 32.297606,1.77635684e-15 C31.9456183,0.140795495 30.8896511,0.337909187 30.3264691,0.380147835 C30.29831,0.492784231 30.3264691,0.718058 30.4109464,0.802534319 C31.143083,0.844772967 31.3120376,0.774377175 31.3120376,1.95705737 L31.3120376,8.82787751 C31.3120376,9.37697994 31.297958,9.6304128 31.2557194,9.82752552 C31.3261171,9.94016191 31.3965158,9.99648011 31.5654694,9.99648011 C31.6499467,9.92608334 31.7907422,9.78528687 31.8892991,9.65857093 C32.0441741,9.48961731 32.1286524,9.48961731 32.2835265,9.63041183 C32.5932766,9.89792327 33.015664,9.96832101 33.5225268,9.96832101 C34.9586399,9.96832101 36.6341072,8.65892096 36.6341072,6.42027455 C36.6341072,4.70257147 35.3669468,3.64660331 34.142027,3.64660331 C33.5366073,3.64660331 33.0015835,3.88595663 32.5651175,4.28018303 M40.1988732,9.96832101 C40.7479756,9.96832101 41.3252381,9.68673002 42.0151351,9.12354805 C42.0714532,9.06723083 42.1840896,9.03907173 42.1840896,9.1376276 C42.1840896,9.47553678 42.3389647,9.96832101 42.3389647,9.96832101 C42.4375215,10.0105597 42.4938407,10.0105597 42.6064761,9.96832101 C42.9162262,9.7148901 43.4512501,9.50369588 44.3101016,9.40513904 C44.3945789,9.32066272 44.3945789,9.1094685 44.3101016,9.0249912 C43.4090114,8.95459443 43.2822945,8.68708201 43.2822945,7.99718409 L43.2822945,5.29391059 C43.2822945,4.87152509 43.3386127,3.85779655 43.3386127,3.85779655 C43.3386127,3.80147933 43.2963741,3.7592397 43.2259763,3.7592397 C43.1555786,3.77331925 42.9443853,3.7873988 42.7331921,3.7873988 C42.2826475,3.7873988 41.8180214,3.77331925 41.297078,3.7592397 C41.2126007,3.843717 41.2126007,4.13938852 41.297078,4.22386484 C41.986976,4.26610348 42.1700101,4.43505906 42.1700101,5.36430834 L42.1700101,8.08166139 C42.1700101,8.34917283 42.141851,8.4618102 41.9447373,8.63076382 C41.423795,9.0813094 40.9732484,9.30658219 40.6212597,9.30658219 C40.1988741,9.30658219 39.4948957,9.10946752 39.4948957,7.8563886 L39.4948957,5.29391059 C39.4948957,4.87152509 39.5512139,3.85779655 39.5512139,3.85779655 C39.5512139,3.80147933 39.5089752,3.7592397 39.4385775,3.7592397 C39.3681798,3.77331925 39.1569865,3.7873988 38.9457933,3.7873988 C38.4952487,3.7873988 38.0306226,3.77331925 37.5096792,3.7592397 C37.4252019,3.843717 37.4252019,4.13938852 37.5096792,4.22386484 C38.1854976,4.28018303 38.3826113,4.43505906 38.3826113,5.35022879 L38.3826113,8.05350229 C38.3826113,9.02499022 38.8049997,9.96832101 40.1988732,9.96832101 M45.7517155,8.10982049 C45.7517155,9.27842211 45.5968404,9.33474227 44.8083857,9.39105949 C44.7239084,9.47553678 44.7239084,9.7712083 44.8083857,9.85568462 C45.3997267,9.84160507 45.7235574,9.82752552 46.3148975,9.82752552 C46.8076817,9.82752552 46.9907168,9.84160507 47.5961365,9.85568462 C47.6806138,9.7712083 47.6806138,9.47553678 47.5961365,9.39105949 C47.0188759,9.33474227 46.8639999,9.27842211 46.8639999,8.10982049 L46.8639999,6.84266103 C47.1878295,6.85674058 47.3849442,6.95529841 47.6665342,7.34952482 L48.6943413,8.79971841 C48.9759323,9.20802534 49.018171,9.37698091 49.018171,9.56001408 L49.018171,9.78528687 C49.018171,9.82752552 49.0322505,9.85568462 49.0744892,9.85568462 C49.3560801,9.84160507 49.6235926,9.82752552 50.0459781,9.82752552 C50.4824441,9.82752552 50.7781156,9.84160507 51.2005011,9.85568462 C51.2849784,9.7712083 51.2849784,9.47553678 51.2005011,9.39105949 C50.7217974,9.33474227 50.29941,9.27842309 49.9896599,8.79971841 L48.3423526,6.36395635 C48.3001139,6.30763913 48.2719548,6.23724041 48.2719548,6.16684266 C48.2719548,6.11052544 48.2860344,6.06828581 48.328273,6.02604717 L49.3983188,4.84336501 C49.8066257,4.42097951 50.2430927,4.25202394 50.9470692,4.22386484 C51.0315465,4.13938852 51.0315465,3.843717 50.9470692,3.7592397 C50.4261269,3.77331925 50.2290122,3.7873988 49.7221484,3.7873988 C49.1871265,3.7873988 48.9477732,3.77331925 48.4268299,3.7592397 C48.3423526,3.843717 48.3423526,4.13938852 48.4268299,4.22386484 C49.2716028,4.26610348 48.8210573,4.80112734 48.6802618,4.94192186 C47.9340466,5.75853573 47.2300682,6.37803688 46.8639999,6.4906723 L46.8639999,1.61914819 C46.8639999,0.70397845 46.9203181,0.140795495 46.9203181,0.140795495 C46.9203181,0.0422396261 46.8639999,1.77635684e-15 46.7372839,1.77635684e-15 C46.3852962,0.140795495 45.329329,0.337909187 44.766147,0.380147835 C44.7379879,0.492784231 44.766147,0.718058 44.8506243,0.802534319 C45.5827609,0.844772967 45.7517155,0.774377175 45.7517155,1.95705737 L45.7517155,8.10982049 M54.3884191,9.96832101 C54.9375215,9.96832101 55.514784,9.68673002 56.204681,9.12354805 C56.2609992,9.06723083 56.3736356,9.03907173 56.3736356,9.1376276 C56.3736356,9.47553678 56.5285106,9.96832101 56.5285106,9.96832101 C56.6270675,10.0105597 56.6833866,10.0105597 56.7960221,9.96832101 C57.1057722,9.7148901 57.640796,9.50369588 58.4996475,9.40513904 C58.5841248,9.32066272 58.5841248,9.1094685 58.4996475,9.0249912 C57.5985574,8.95459443 57.4718404,8.68708201 57.4718404,7.99718409 L57.4718404,5.29391059 C57.4718404,4.87152509 57.5281586,3.85779655 57.5281586,3.85779655 C57.5281586,3.80147933 57.48592,3.7592397 57.4155222,3.7592397 C57.3451245,3.77331925 57.1339312,3.7873988 56.922738,3.7873988 C56.4721934,3.7873988 56.0075673,3.77331925 55.486624,3.7592397 C55.4021467,3.843717 55.4021467,4.13938852 55.486624,4.22386484 C56.1765219,4.26610348 56.359556,4.43505906 56.359556,5.36430834 L56.359556,8.08166139 C56.359556,8.34917283 56.3313969,8.4618102 56.1342832,8.63076382 C55.6133409,9.0813094 55.1627943,9.30658219 54.8108056,9.30658219 C54.3884201,9.30658219 53.6844416,9.10946752 53.6844416,7.8563886 L53.6844416,5.29391059 C53.6844416,4.87152509 53.7407598,3.85779655 53.7407598,3.85779655 C53.7407598,3.80147933 53.6985212,3.7592397 53.6281234,3.7592397 C53.5577257,3.77331925 53.3465324,3.7873988 53.1353392,3.7873988 C52.6847946,3.7873988 52.2201685,3.77331925 51.6992252,3.7592397 C51.6147479,3.843717 51.6147479,4.13938852 51.6992252,4.22386484 C52.3750435,4.28018303 52.5721572,4.43505906 52.5721572,5.35022879 L52.5721572,8.05350229 C52.5721572,9.02499022 52.9945457,9.96832101 54.3884191,9.96832101 M64.7142287,8.10982049 L64.7142287,4.33650123 L66.0236268,4.33650123 C66.1503427,4.33650123 66.3474564,4.28018303 66.3474564,4.15346709 L66.3474564,3.8718761 C66.3474564,3.81555888 66.3052178,3.7873988 66.23482,3.7873988 L64.7142287,3.7873988 L64.7142287,2.98486448 C64.7142287,0.816616802 65.3618889,0.478704681 65.8265131,0.478704681 C66.2488996,0.478704681 66.4741733,0.647660253 66.6712861,1.14044351 C66.7839225,1.3938754 66.9387985,1.59098909 67.234468,1.59098909 C67.4738204,1.59098909 67.8117296,1.29531855 67.8117296,1.01372756 C67.8117296,0.774376198 67.6568545,0.52094333 67.361184,0.295670539 C66.9951167,0.0422396261 66.6290474,1.77635684e-15 66.0940245,1.77635684e-15 C64.9113443,1.77635684e-15 63.6019443,1.02781004 63.6019443,3.22421683 L63.6019443,3.7873988 L62.8838873,3.7873988 C62.6304563,3.7873988 62.5600576,3.95635437 62.5600576,4.06898979 L62.5600576,4.25202394 C62.5600576,4.32242168 62.5741372,4.33650123 62.6304554,4.33650123 L63.6019443,4.33650123 L63.6019443,8.10982049 C63.6019443,9.27842211 63.4470692,9.33474227 62.6867736,9.39105949 C62.6022963,9.47553678 62.6022963,9.7712083 62.6867736,9.85568462 C63.2781146,9.84160507 63.5878657,9.82752552 64.1651263,9.82752552 C64.8127855,9.82752552 65.2210934,9.84160507 65.8265131,9.85568462 C65.9109904,9.7712083 65.9109904,9.47553678 65.8265131,9.39105949 C64.8691047,9.33474227 64.7142287,9.27842211 64.7142287,8.10982049 M69.6779298,9.96832101 C70.2270323,9.96832101 70.8042948,9.68673002 71.4941917,9.12354805 C71.5505099,9.06723083 71.6631463,9.03907173 71.6631463,9.1376276 C71.6631463,9.47553678 71.8180214,9.96832101 71.8180214,9.96832101 C71.9165782,10.0105597 71.9728974,10.0105597 72.0855328,9.96832101 C72.3952829,9.7148901 72.9303067,9.50369588 73.7891583,9.40513904 C73.8736356,9.32066272 73.8736356,9.1094685 73.7891583,9.0249912 C72.8880681,8.95459443 72.7613512,8.68708201 72.7613512,7.99718409 L72.7613512,5.29391059 C72.7613512,4.87152509 72.8176694,3.85779655 72.8176694,3.85779655 C72.8176694,3.80147933 72.7754307,3.7592397 72.705033,3.7592397 C72.6346352,3.77331925 72.423442,3.7873988 72.2122487,3.7873988 C71.7617041,3.7873988 71.297078,3.77331925 70.7761347,3.7592397 C70.6916574,3.843717 70.6916574,4.13938852 70.7761347,4.22386484 C71.4660326,4.26610348 71.6490668,4.43505906 71.6490668,5.36430834 L71.6490668,8.08166139 C71.6490668,8.34917283 71.6209077,8.4618102 71.423794,8.63076382 C70.9028516,9.0813094 70.4523051,9.30658219 70.1003163,9.30658219 C69.6779308,9.30658219 68.9739524,9.10946752 68.9739524,7.8563886 L68.9739524,5.29391059 C68.9739524,4.87152509 69.0302706,3.85779655 69.0302706,3.85779655 C69.0302706,3.80147933 68.9880319,3.7592397 68.9176342,3.7592397 C68.8472364,3.77331925 68.6360432,3.7873988 68.4248499,3.7873988 C67.9743053,3.7873988 67.5096792,3.77331925 66.9887359,3.7592397 C66.9042586,3.843717 66.9042586,4.13938852 66.9887359,4.22386484 C67.6645543,4.28018303 67.861668,4.43505906 67.861668,5.35022879 L67.861668,8.05350229 C67.861668,9.02499022 68.2840564,9.96832101 69.6779298,9.96832101 M78.2156366,7.88454769 C78.2719548,8.57444562 78.3141935,9.23618542 78.3141935,9.82752552 C78.454989,9.79936642 78.5957845,9.78528687 78.6661822,9.78528687 C78.7647391,9.78528687 78.8492164,9.78528687 78.9477732,9.81344597 C79.327921,9.91200282 79.7080699,9.96832101 80.2290122,9.96832101 C81.017467,9.96832101 82.4676606,9.5881722 82.4676606,8.19429778 C82.4676606,7.2368894 81.7636821,6.68778599 80.8203533,6.32171771 C79.9755813,5.99788905 79.4123983,5.78669483 79.4123983,5.01231961 C79.4123983,4.43505906 79.9192631,4.11122844 80.3979668,4.11122844 C80.7077169,4.11122844 81.5243317,4.22386679 81.7073649,5.42062654 C81.7918422,5.50510384 82.0734332,5.49102429 82.1579105,5.40654699 C82.1579105,4.89968419 82.2283082,4.37873988 82.2423878,3.91411475 C81.8059227,3.84371798 81.1301034,3.64660331 80.3979668,3.64660331 C79.3560811,3.64660331 78.4127503,4.32242266 78.4127503,5.22351285 C78.4127503,6.25131898 78.8773774,6.68778697 79.9615008,7.13833157 C81.1160228,7.6311158 81.3976148,7.91270777 81.3976148,8.51812742 C81.3976148,9.20802534 80.7217964,9.50369588 80.2008531,9.50369588 C79.6517517,9.50369588 79.3420006,9.32066174 79.2012051,9.16578669 C78.8632969,8.84195804 78.73658,8.22245688 78.6521027,7.87046815 C78.5676254,7.78599183 78.3001139,7.80007138 78.2156366,7.88454769 M87.0549538,6.5469905 L87.0549538,8.41957057 C87.0549538,8.60260472 86.9704765,8.70116254 86.8578401,8.78563886 C86.4917728,9.0813094 86.0130671,9.39105949 85.6188397,9.39105949 C84.9148632,9.39105949 84.6051122,8.82787751 84.6051122,8.39141147 C84.6051122,7.75783273 84.9007837,7.12425202 85.9426694,6.84266103 L87.0549538,6.5469905 M87.0549538,9.15170715 C87.1394311,9.44737768 87.3787844,9.96832101 88.1390791,9.96832101 C88.828977,9.96832101 89.3358408,9.40513904 89.3358408,9.33474129 C89.3358408,9.23618542 89.2091248,9.09538895 89.1528066,9.09538895 C89.0683293,9.09538895 89.0120112,9.32066174 88.7163406,9.32066174 C88.1672392,9.32066174 88.1531586,8.77155931 88.1531586,8.12390004 L88.1531586,6.02604717 C88.1531586,4.0267531 87.0549528,3.64660331 86.0271467,3.64660331 C84.8726256,3.64660331 83.704021,4.44913861 83.704021,5.2094333 C83.704021,5.54734249 83.8729766,5.70221753 84.1968052,5.70221753 C84.6051122,5.70221753 84.8163054,5.42062654 84.8163054,5.2375924 C84.8163054,5.13903653 84.8022259,5.0404787 84.7740668,4.98416051 C84.7599872,4.94192186 84.7459077,4.85744456 84.7459077,4.70256952 C84.7459077,4.26610446 85.3794884,4.11122844 85.9145103,4.11122844 C86.393215,4.11122844 87.0549538,4.35058274 87.0549538,5.94156987 C87.0549538,6.04012672 87.0127151,6.09644491 86.9704765,6.11052446 L85.7596352,6.406195 C84.4080004,6.74410419 83.4365096,7.49032129 83.4365096,8.44772967 C83.4365096,9.5600131 84.2249653,9.96832101 85.2105328,9.96832101 C85.8581921,9.96832101 86.1257045,9.85568462 86.7452037,9.37697994 L87.0267947,9.15170715 L87.0549538,9.15170715 M91.8142815,4.71664907 C92.1803498,4.39282041 92.6027372,4.26610348 93.0110432,4.26610348 C93.8698957,4.26610348 94.5738732,5.3079921 94.5738732,6.67370644 C94.5738732,8.2787741 93.9262129,9.48961633 92.5886567,9.48961633 C92.1521916,9.48961633 91.8565201,9.17986624 91.5749291,8.82787751 L91.5749291,5.30799014 C91.5749291,5.01232058 91.6312483,4.88560366 91.8142815,4.71664907 M91.7157246,4.28018303 C91.6171678,4.36466033 91.5749291,4.33650123 91.5749291,4.20978529 L91.5749291,1.61914819 C91.5749291,0.70397845 91.6312473,0.140795495 91.6312473,0.140795495 C91.6312473,0.0422396261 91.5749291,1.77635684e-15 91.4482132,1.77635684e-15 C91.0962254,0.140795495 90.0402582,0.337909187 89.4770763,0.380147835 C89.4489172,0.492784231 89.4770763,0.718058 89.5615536,0.802534319 C90.2936901,0.844772967 90.4626447,0.774377175 90.4626447,1.95705737 L90.4626447,8.82787751 C90.4626447,9.37697994 90.4485652,9.6304128 90.4063265,9.82752552 C90.4767243,9.94016191 90.547123,9.99648011 90.7160766,9.99648011 C90.8005539,9.92608334 90.9413494,9.78528687 91.0399063,9.65857093 C91.1947813,9.48961731 91.2792596,9.48961731 91.4341336,9.63041183 C91.7438837,9.89792327 92.1662712,9.96832101 92.673134,9.96832101 C94.1092471,9.96832101 95.7847144,8.65892096 95.7847144,6.42027455 C95.7847144,4.70257147 94.517554,3.64660331 93.2926342,3.64660331 C92.6872145,3.64660331 92.1521907,3.88595663 91.7157246,4.28018303 M97.5613776,1.3938754 C97.5613776,1.75994368 97.8992877,2.12601197 98.2371959,2.12601197 C98.6314233,2.12601197 98.9693325,1.75994368 98.9693325,1.45019359 C98.9693325,1.11228538 98.673662,0.718057022 98.2935141,0.718057022 C97.9556059,0.718057022 97.5613776,1.05596719 97.5613776,1.3938754 M98.8426166,8.10982049 L98.8426166,5.30799014 C98.8426166,4.60401365 98.8989348,3.70292151 98.8989348,3.70292151 C98.8989348,3.64660429 98.828537,3.60436466 98.7159006,3.60436466 C98.3075947,3.7592397 97.7584903,3.88595663 96.7870024,4.01267159 C96.7588433,4.09714889 96.7870024,4.32242266 96.8151615,4.40689898 C97.5754571,4.49137628 97.7303322,4.561775 97.7303322,5.36430834 L97.7303322,8.10982049 C97.7303322,9.27842211 97.5754571,9.32066272 96.7166046,9.39105949 C96.6321273,9.47553678 96.6321273,9.7712083 96.7166046,9.85568462 C97.3079457,9.84160507 97.6740149,9.82752552 98.2935141,9.82752552 C98.8989348,9.82752552 99.2509245,9.84160507 99.8563412,9.85568462 C99.9408185,9.7712083 99.9408185,9.47553678 99.8563412,9.39105949 C98.9974926,9.33474227 98.8426166,9.27842211 98.8426166,8.10982049 M100.792416,7.88454769 C100.848734,8.57444562 100.890973,9.23618542 100.890973,9.82752552 C101.031768,9.79936642 101.172564,9.78528687 101.242962,9.78528687 C101.341519,9.78528687 101.425996,9.78528687 101.524553,9.81344597 C101.904701,9.91200282 102.284848,9.96832101 102.805792,9.96832101 C103.594246,9.96832101 105.04444,9.5881722 105.04444,8.19429778 C105.04444,7.2368894 104.340463,6.68778599 103.397133,6.32171771 C102.55236,5.99788905 101.989178,5.78669483 101.989178,5.01231961 C101.989178,4.43505906 102.496042,4.11122844 102.974746,4.11122844 C103.284496,4.11122844 104.10111,4.22386679 104.284144,5.42062654 C104.368622,5.50510384 104.650213,5.49102429 104.73469,5.40654699 C104.73469,4.89968419 104.805088,4.37873988 104.819167,3.91411475 C104.382701,3.84371798 103.706883,3.64660331 102.974746,3.64660331 C101.93286,3.64660331 100.98953,4.32242266 100.98953,5.22351285 C100.98953,6.25131898 101.454155,6.68778697 102.53828,7.13833157 C103.692803,7.6311158 103.974394,7.91270777 103.974394,8.51812742 C103.974394,9.20802534 103.298576,9.50369588 102.777633,9.50369588 C102.22853,9.50369588 101.91878,9.32066174 101.777985,9.16578669 C101.440075,8.84195804 101.313359,8.22245688 101.228882,7.87046815 C101.144405,7.78599183 100.876893,7.80007138 100.792416,7.88454769 M106.083687,6.94121788 C106.083687,8.37733095 107.055176,9.96832101 109.040392,9.96832101 C111.138245,9.96832101 112.025257,8.2224559 112.025257,6.81450194 C112.025257,5.35023075 111.250881,3.64660331 109.068551,3.64660331 C107.167812,3.64660331 106.083687,5.15311706 106.083687,6.94121788 M108.913676,4.11122844 C110.124518,4.11122844 110.814415,5.19535668 110.814415,7.26504752 C110.814415,9.12354707 109.955563,9.50369588 109.293824,9.50369588 C107.829551,9.50369588 107.294528,7.70151257 107.294528,6.61738824 C107.294528,5.3924694 107.730994,4.11122844 108.913676,4.11122844" id="srn-tagline" fill="#000000" fill-rule="nonzero"></path>
    </g>
</svg>