<svg xmlns="http://www.w3.org/2000/svg" width="120" height="12"><path fill="#000" fill-rule="nonzero" d="M5.91 9.05c-.278-.048-.558-.203-.8-.443a3.144 3.144 0 0 1-.334-.39 46.018 46.018 0 0 1-.786-1.394c-.368-.669-.704-1.254-.746-1.3-.188-.205-.532-.31-1.024-.312h-.244l.01 1.37c.01 1.198.018 1.391.062 1.524.1.3.25.4.692.454.138.016.261.045.273.064.028.043.028.259 0 .299-.015.02-.502.03-1.517.03L0 8.948v-.352l.205-.025c.33-.04.514-.1.618-.206.111-.11.152-.234.19-.575.037-.338.036-5.625-.002-5.983C.953 1.26.795 1.11.215 1.052L0 1.03V.68L1.13.66C1.75.652 2.441.627 2.665.606c.47-.044 1.001-.01 1.383.088.655.167 1.173.682 1.398 1.389.074.236.102.792.054 1.09-.072.444-.238.817-.49 1.097-.194.216-.582.518-.802.624l-.2.098c-.014.01 1.578 2.948 1.675 3.092.259.385.482.559.774.604.105.016.126.031.142.103.027.125-.008.195-.112.228-.15.047-.403.06-.578.03ZM3.27 4.727c.469-.116.848-.39 1.008-.728.166-.352.205-.57.205-1.164 0-.462-.01-.577-.063-.769-.133-.486-.322-.725-.721-.917A1.54 1.54 0 0 0 2.866 1c-.45.036-.65.139-.791.407l-.08.152-.009 1.624-.008 1.625.55-.017c.353-.01.62-.034.742-.064Zm4.897 4.324a1.651 1.651 0 0 1-.625-.236c-.323-.214-.488-.583-.488-1.089 0-.513.21-.917.667-1.282.389-.31.773-.477 1.62-.705.412-.111.587-.172.626-.216.047-.054.052-.094.035-.326-.048-.674-.161-1.041-.383-1.245-.212-.196-.286-.223-.6-.22-.422.002-.71.107-.863.315-.066.09-.077.274-.035.62.018.15.013.19-.039.272-.126.201-.41.291-.609.194-.346-.17-.252-.75.191-1.18.42-.408.944-.618 1.546-.62.42 0 .705.093 1.04.34.211.155.355.363.455.657.154.45.169.633.18 2.17.01 1.428.025 1.66.12 1.823.067.113.188.172.356.172.125 0 .165-.015.253-.092.101-.088.106-.09.162-.039.1.09.074.187-.094.344-.206.194-.362.28-.596.329-.333.07-.642-.018-.835-.238-.095-.107-.234-.371-.235-.443 0-.063-.039-.042-.234.128-.439.383-.669.514-.998.567a1.84 1.84 0 0 1-.617 0Zm.97-.554c.311-.117.798-.52.849-.702.017-.06.03-.486.03-.98 0-.82-.003-.874-.052-.86-1.107.318-1.318.403-1.574.637a1.104 1.104 0 0 0-.265.36c-.458.955.143 1.872 1.013 1.545Zm2.945.372c-.02-.093.006-.286.04-.286.01 0 .105-.014.21-.031.35-.057.468-.17.53-.505.046-.25.023-6.927-.025-7.066-.054-.158-.175-.23-.45-.27-.15-.021-.243-.05-.258-.077-.037-.07-.058-.219-.036-.255.011-.018.192-.06.401-.095.44-.07.8-.152 1.066-.24.28-.092.271-.12.239.738-.015.395-.028 1.711-.028 2.925-.001 1.862.005 2.207.04 2.207.151 0 .747-.54 1.287-1.167.508-.59.54-.793.14-.895-.142-.036-.164-.052-.185-.133a.434.434 0 0 1 0-.184l.024-.09h2.08l.01.179c.01.205.033.187-.317.233-.302.04-.61.177-.81.361-.123.114-.918 1.067-1.045 1.254a.336.336 0 0 0-.052.16c0 .127 1.373 2.384 1.584 2.601.174.18.368.273.655.314.184.027.246.116.204.295l-.025.108H15.596l-.016-.228a1.038 1.038 0 0 0-.102-.41c-.09-.192-.963-1.58-1.142-1.815a.681.681 0 0 0-.443-.277l-.123-.02v.642c.002 1.13.055 1.496.236 1.625.062.044.308.116.396.116.026 0 .041.234.019.294l-.027.072-1.147.002-1.147.002-.018-.084Zm5.715.048a.728.728 0 0 1-.003-.176c.01-.16-.033-.136.384-.218.222-.043.355-.156.422-.36.044-.134.05-.348.06-1.804.014-1.848.004-1.994-.145-2.163-.095-.108-.305-.188-.494-.188-.12 0-.144-.039-.145-.24 0-.107.002-.109.14-.128a9.357 9.357 0 0 0 1.092-.235 2.01 2.01 0 0 1 .35-.082l.101-.004.002 2.375c.001 1.837.01 2.4.039 2.483.082.237.22.328.566.377.118.017.225.047.238.067.029.045.03.26.001.301-.032.045-2.59.04-2.608-.005Zm1.055-7.079c-.199-.12-.354-.431-.32-.64a.746.746 0 0 1 .307-.45c.117-.075.159-.086.289-.076.194.015.33.115.431.32.139.278.086.552-.145.755-.186.163-.39.196-.562.091Zm2.26 4.12c-.046-.111-.021-.295.062-.456.093-.18.052-.174 1.452-.174.995 0 1.29.008 1.33.037.084.062.093.255.02.42a.929.929 0 0 1-.126.21l-.062.066h-2.632l-.043-.102Zm3.475 5.934c-.038-.072-.032-.24.01-.294.025-.03.103-.05.233-.06.367-.027.522-.164.58-.514.023-.14.03-1.14.024-3.409-.008-3.144-.01-3.214-.067-3.329-.072-.144-.25-.24-.5-.271l-.174-.022-.009-.166-.009-.166.126-.02a9.315 9.315 0 0 0 1.146-.252c.412-.134.39-.157.377.391-.014.589-.01.592.342.253.301-.29.52-.44.842-.58 1.07-.462 2.29.519 2.51 2.02a5.312 5.312 0 0 1-.044 1.321c-.219 1.023-.814 1.811-1.6 2.12-.511.2-1.122.207-1.68.02a2.443 2.443 0 0 0-.298-.087c-.064 0-.075.147-.075.95 0 .863.032 1.255.116 1.445.077.174.283.273.619.296.263.018.274.03.256.271l-.009.127-1.345.002c-1.232.002-1.347-.002-1.37-.047Zm3.347-3.316a1.18 1.18 0 0 0 .58-.355c.354-.375.564-1.078.563-1.89 0-.974-.21-1.657-.644-2.09-.223-.224-.415-.323-.66-.342-.32-.025-.678.162-1.089.57-.372.367-.349.236-.349 2.002v1.51l.068.138c.227.462.88.657 1.53.457Zm4.146.476a1.485 1.485 0 0 1-.621-.235c-.31-.207-.466-.515-.496-.982-.032-.507.098-.831.487-1.219.426-.423.803-.607 1.813-.881.303-.082.576-.171.606-.198.05-.044.053-.077.035-.368-.038-.601-.13-.935-.314-1.145-.24-.271-.483-.348-.897-.281-.275.044-.504.141-.59.25-.104.133-.124.261-.087.559.032.25.03.275-.024.368-.12.206-.398.308-.605.222-.158-.066-.213-.17-.211-.404.005-.58.666-1.19 1.478-1.36.247-.052.638-.058.858-.013.393.081.84.402.998.717.235.469.262.707.286 2.492.023 1.67.024 1.682.198 1.835.083.073.123.086.257.086.135 0 .175-.013.26-.088a.44.44 0 0 1 .126-.088c.015 0 .05.04.08.09.052.088.051.09-.023.188-.091.119-.288.282-.423.351-.28.143-.683.145-.93.006-.142-.08-.321-.311-.383-.496-.025-.076-.055-.139-.066-.139-.01 0-.105.077-.21.17-.595.521-.975.655-1.602.563Zm.938-.547c.149-.048.436-.232.67-.428.23-.194.229-.186.229-1.223 0-.857-.004-.913-.052-.9l-.462.136c-.225.066-.51.16-.63.207-.509.201-.794.56-.882 1.108-.09.562.19 1.053.652 1.148.147.03.274.017.475-.048Zm2.967.407a.577.577 0 0 1 .008-.291c.013-.02.112-.049.22-.064.38-.054.519-.18.576-.524.024-.14.03-1.172.024-3.57-.01-3.68-.003-3.534-.177-3.658a.848.848 0 0 0-.32-.094c-.149-.021-.242-.05-.257-.077-.037-.07-.058-.219-.036-.255.012-.018.192-.06.402-.095.435-.07.838-.16 1.065-.24.12-.04.172-.046.216-.021.053.028.057.05.041.212-.01.099-.026 1.087-.036 2.196-.014 1.502-.01 2.017.015 2.017.018 0 .174-.146.345-.324.528-.545.938-.757 1.521-.784.66-.03 1.077.23 1.246.775.116.377.125.521.146 2.24.023 1.994.02 1.974.309 2.118.085.043.139.057.372.095.09.014.11.031.127.106a.55.55 0 0 1 .002.184l-.018.094h-1.195c-.793 0-1.202-.01-1.216-.03a.407.407 0 0 1-.022-.153c0-.143.057-.215.17-.215a.659.659 0 0 0 .385-.135c.179-.15.187-.227.2-1.768.012-1.42-.007-1.823-.097-2.102a.884.884 0 0 0-.351-.478c-.143-.096-.152-.098-.395-.086-.4.02-.766.197-1.16.56a1.3 1.3 0 0 0-.298.366l-.082.167-.01 1.216c-.013 1.783.025 2.066.294 2.197a.628.628 0 0 0 .19.063c.175 0 .243.035.261.134a.428.428 0 0 1-.009.18l-.027.082h-1.207c-.997.002-1.209-.005-1.222-.038Zm7.61.153c-.603-.103-.967-.344-1.114-.737-.322-.86.063-1.675 1.026-2.175.345-.18.548-.25 1.217-.43.29-.078.547-.155.569-.173.032-.024.037-.106.025-.398-.026-.603-.135-.966-.358-1.189-.19-.189-.31-.234-.617-.231-.44.004-.777.136-.875.344-.057.12-.063.336-.014.548.033.14.03.162-.033.282a.453.453 0 0 1-.427.257c-.117.003-.178-.012-.24-.058-.127-.095-.16-.18-.149-.393.013-.255.121-.482.335-.707.447-.468 1.032-.696 1.708-.665.353.017.538.074.814.253.333.217.483.427.607.855.117.406.136.692.137 2.067.002 1.601.026 1.79.243 1.923.104.063.31.076.411.024a.423.423 0 0 0 .114-.095c.04-.05.06-.056.103-.03a.245.245 0 0 1 .08.11c.025.071.013.094-.132.242-.322.329-.75.45-1.137.321-.219-.073-.46-.343-.52-.583-.01-.044-.031-.086-.046-.095-.015-.01-.115.064-.224.162-.267.243-.545.429-.743.498-.16.056-.608.099-.76.073Zm.936-.603c.207-.094.518-.314.677-.48l.103-.106.008-.97c.007-.782.002-.967-.029-.955-.02.008-.268.083-.55.167-.283.084-.605.2-.716.259-.49.257-.75.737-.716 1.316.027.467.275.781.676.859.177.034.331.009.547-.09Zm2.93.415a.327.327 0 0 1-.004-.176c.024-.102.026-.103.255-.141.463-.076.561-.193.598-.713.012-.168.015-1.763.007-3.546-.013-2.942-.019-3.25-.063-3.348-.068-.15-.164-.202-.437-.242-.264-.037-.29-.06-.291-.243V.345l.139-.017c.3-.038 1.033-.192 1.265-.266.156-.049.255-.067.273-.049.017.018.03 1.543.033 4.057.006 4.43-.006 4.17.186 4.338.104.091.222.13.486.162.161.02.168.023.186.118a.428.428 0 0 1-.01.18l-.027.082h-1.284l-1.284.001-.028-.074Zm4.303.16c-.68-.123-1.058-.593-1.058-1.319 0-.547.296-1.03.862-1.407.39-.26.634-.355 1.523-.599.289-.078.537-.16.552-.183.037-.053.006-.606-.051-.905-.06-.312-.137-.487-.286-.64-.233-.242-.462-.305-.862-.241-.549.088-.743.291-.682.712.05.348.04.417-.082.546-.16.166-.361.217-.552.137-.078-.032-.118-.077-.164-.182-.056-.124-.059-.157-.03-.314.048-.256.162-.464.37-.674.404-.411.963-.635 1.58-.634.31 0 .517.048.773.178.464.235.695.588.822 1.258.038.199.051.561.068 1.775.021 1.63.025 1.674.173 1.84.071.079.106.093.258.104.163.012.183.006.28-.079.128-.113.156-.113.213-.003.057.111.036.154-.167.336-.192.173-.33.244-.574.295-.298.063-.629-.02-.788-.195a1.383 1.383 0 0 1-.243-.414c-.02-.06-.043-.11-.05-.11a4.88 4.88 0 0 0-.31.25c-.55.462-.951.581-1.575.468Zm1.007-.532c.27-.095.77-.47.848-.637.041-.086.048-.232.048-1.014 0-.857-.003-.913-.051-.9l-.493.147c-.816.242-1.053.376-1.274.722-.223.351-.284.894-.137 1.215.108.236.181.329.326.414.225.132.462.149.733.053Zm3.023.407a.584.584 0 0 1 .008-.29c.012-.02.094-.044.183-.054.372-.044.539-.15.62-.389.03-.085.04-.861.047-3.467.01-3.399.004-3.62-.097-3.814-.051-.1-.227-.172-.472-.195-.184-.018-.187-.019-.216-.123-.063-.227-.066-.225.3-.28.402-.061.942-.18 1.159-.254.116-.04.175-.047.215-.025.051.027.054.053.034.344-.012.173-.022 1.957-.022 3.966 0 3.453.003 3.66.054 3.825.086.278.2.354.635.418l.162.024v.352h-1.297c-1.069.001-1.3-.005-1.313-.038Zm5.697-6.565c-.043-.022-.408-.392-.813-.822-.516-.55-.735-.802-.735-.848 0-.164.593-.414.836-.353.063.016.137.145.482.834.503 1.006.54 1.124.374 1.2-.049.022-.087.02-.144-.01Zm-1.397 6.69c-.549-.099-.894-.416-1.016-.93-.164-.698.126-1.335.82-1.796.39-.26.633-.355 1.523-.599.288-.078.536-.16.551-.183.038-.054.008-.598-.05-.898-.06-.32-.137-.493-.287-.648-.233-.24-.462-.304-.862-.24-.548.088-.742.291-.681.712.05.348.04.417-.083.546-.184.193-.487.23-.639.079-.276-.276-.056-.897.455-1.283.394-.298.764-.431 1.273-.456.376-.018.564.016.854.154.378.18.608.443.75.856.138.4.153.587.174 2.194.022 1.63.026 1.674.174 1.84.07.079.106.093.257.104.164.012.183.006.28-.079a.425.425 0 0 1 .136-.09c.057 0 .126.17.094.23-.046.085-.323.324-.451.39-.19.097-.472.143-.661.108-.323-.06-.474-.185-.63-.524a4.952 4.952 0 0 0-.096-.2 3.157 3.157 0 0 0-.308.243c-.552.464-.952.583-1.577.47Zm.965-.514c.236-.06.807-.48.89-.656.04-.084.047-.237.047-1.013 0-.857-.003-.913-.05-.899l-.55.165c-.618.186-.833.288-1.043.497-.266.266-.382.569-.383 1 0 .221.012.291.074.426.106.232.18.324.326.41.206.121.407.141.689.07Zm3.091.345a.554.554 0 0 1 0-.183c.017-.088.032-.102.128-.116.35-.054.432-.082.538-.188.182-.183.187-.233.187-2.173 0-1.853-.001-1.866-.157-2.032-.083-.09-.306-.168-.476-.168-.125 0-.145-.03-.145-.22v-.127l.213-.034c.435-.07.808-.152 1.098-.24.164-.05.32-.082.348-.072.044.017.048.051.032.283-.045.644-.05.779-.024.816.02.03.123-.057.42-.355.348-.351.42-.409.641-.516.356-.173.567-.22.925-.204.314.014.527.085.739.247.182.138.354.52.422.935.02.124.041.868.054 1.877.015 1.227.03 1.703.058 1.789.072.224.223.316.621.38.088.014.11.032.124.102a.62.62 0 0 1 0 .184l-.016.1h-1.192c-.792 0-1.2-.011-1.214-.031a.483.483 0 0 1-.022-.17c0-.16.027-.181.269-.213a.489.489 0 0 0 .383-.251c.028-.057.064-.229.08-.38.039-.369.038-2.553 0-2.932-.05-.488-.201-.789-.468-.932-.116-.062-.162-.069-.37-.059-.297.015-.568.135-.896.4-.281.226-.396.357-.485.551l-.07.154.008 1.52.009 1.519.073.146c.086.172.197.244.41.27.084.01.17.036.194.06.043.043.057.263.019.316-.014.02-.43.03-1.23.031h-1.21l-.018-.084Zm7.482.181c-.599-.087-.958-.399-1.086-.942-.165-.698.126-1.335.819-1.796.39-.26.634-.355 1.524-.599.288-.078.535-.16.549-.183.034-.054.033-.31-.004-.613-.06-.505-.143-.738-.33-.933-.234-.24-.463-.304-.863-.24-.549.088-.743.291-.682.712.05.348.04.417-.082.546-.184.193-.487.23-.64.079-.275-.276-.055-.897.455-1.283.394-.298.765-.431 1.274-.456.376-.018.563.016.854.154.377.18.608.443.75.856.138.4.153.587.174 2.194.021 1.63.025 1.674.173 1.84.071.079.106.093.258.104.163.012.183.006.28-.079a.425.425 0 0 1 .135-.09c.058 0 .127.17.094.23-.045.085-.322.324-.45.39-.19.097-.473.143-.662.108-.322-.06-.473-.185-.63-.524a4.952 4.952 0 0 0-.095-.2 3.157 3.157 0 0 0-.309.243c-.534.449-.909.569-1.506.482Zm.894-.526c.237-.06.808-.48.891-.656.04-.084.047-.237.047-1.013 0-.857-.003-.913-.051-.899l-.55.165c-.61.183-.83.288-1.042.498-.266.263-.38.563-.38.995 0 .237.011.305.073.438.106.227.178.317.323.402.207.121.407.141.69.07Zm5.995.378c-.03-.057-.034-.156-.009-.25.014-.051.046-.07.154-.084.262-.036.368-.077.476-.185.184-.184.188-.23.188-2.204 0-1.738 0-1.745-.065-1.885-.053-.115-.09-.152-.2-.2a1.183 1.183 0 0 0-.297-.077c-.179-.019-.215-.063-.215-.258 0-.095.004-.1.139-.118.343-.046 1.014-.194 1.231-.271.349-.123.336-.145.312.523-.01.306-.01.556.002.556s.176-.156.364-.347c.37-.375.653-.584.929-.686.14-.052.238-.066.483-.066.274-.001.327.008.477.078.092.043.214.114.27.157.14.106.329.396.385.589.025.086.062.157.081.157.02 0 .134-.1.255-.222.536-.545 1.105-.8 1.71-.768.58.03.885.299 1.042.918.103.404.12.719.121 2.213.001 1.506.016 1.718.127 1.888.067.103.18.157.402.193a.719.719 0 0 1 .211.055c.014.015.022.097.017.185l-.009.158h-1.181c-1.182.002-1.182.002-1.198-.06a.7.7 0 0 1-.006-.178c.009-.107.016-.116.127-.139.404-.083.512-.167.576-.445.057-.253.058-3.225 0-3.51-.054-.27-.188-.484-.356-.574-.12-.063-.161-.07-.429-.06-.282.01-.31.017-.556.139-.205.101-.315.183-.531.392l-.273.264v1.543c0 .937.012 1.617.03 1.733.055.332.165.445.491.502.169.03.176.035.192.13a.52.52 0 0 1-.006.18l-.022.083-1.142.002c-.773 0-1.149-.008-1.163-.03-.03-.042-.028-.256.002-.303.013-.02.108-.051.211-.068a.959.959 0 0 0 .281-.087c.23-.142.253-.364.24-2.248-.011-1.434-.014-1.497-.075-1.68-.074-.223-.167-.36-.318-.466-.089-.064-.146-.078-.336-.087-.197-.01-.252 0-.392.064-.236.108-.394.225-.659.487-.397.394-.368.25-.378 1.894-.009 1.416.007 1.718.096 1.891.06.115.217.205.396.226a.44.44 0 0 1 .193.06c.043.043.057.263.02.317-.015.02-.417.03-1.205.03-1.087 0-1.185-.004-1.21-.05Zm10.296.152c-.507-.081-.885-.349-1.027-.729-.23-.616-.1-1.223.364-1.69.435-.439.841-.635 1.88-.911a5.07 5.07 0 0 0 .57-.172c.032-.026.037-.104.022-.399-.04-.809-.214-1.185-.64-1.378-.32-.145-1.02.009-1.19.262-.074.11-.088.32-.037.586.022.116.02.174-.011.246-.148.344-.683.414-.811.106-.058-.14-.022-.454.074-.643.16-.315.577-.674.97-.833.392-.16.956-.21 1.314-.118.235.06.488.197.67.36.244.22.364.456.47.928.054.24.062.405.08 1.818.017 1.438.023 1.567.076 1.715.073.205.194.294.398.294.117 0 .16-.016.247-.093.12-.105.182-.093.232.045.025.071.012.094-.132.24-.36.366-.86.473-1.259.27-.144-.074-.371-.37-.402-.526-.01-.046-.028-.09-.042-.099-.013-.008-.13.077-.26.19-.319.274-.532.411-.741.476-.208.065-.59.09-.815.055Zm.99-.574c.284-.126.708-.45.786-.601.035-.069.043-.251.043-1.011 0-.87-.003-.926-.051-.911l-.549.164c-.781.234-1.092.435-1.277.826-.177.374-.198.843-.05 1.142.133.272.286.4.546.454a.81.81 0 0 0 .552-.063Zm2.968.422c-.03-.057-.034-.156-.01-.249.014-.051.047-.066.183-.082.263-.032.38-.07.486-.164.186-.164.179-.009.179-3.856 0-3.194-.004-3.499-.049-3.597-.068-.15-.163-.202-.437-.242-.145-.02-.246-.05-.263-.077-.035-.056-.036-.292 0-.292.014 0 .218-.033.453-.073.46-.077.689-.13.981-.225.157-.052.193-.055.226-.021.033.033.034.206.01 1.008-.016.532-.024 2.307-.018 3.945.011 3.13.012 3.158.14 3.368.063.101.232.176.484.214.2.03.226.041.253.11.018.046.02.117.005.18l-.025.102h-1.286c-1.182.001-1.287-.003-1.312-.049Zm4.371.15c-.5-.074-.884-.346-1.026-.727-.323-.861.065-1.681 1.026-2.172.35-.18.557-.252 1.218-.429a5.19 5.19 0 0 0 .569-.173c.033-.025.037-.103.023-.398-.04-.818-.216-1.19-.654-1.383-.119-.053-.176-.06-.376-.045-.272.02-.556.1-.692.196-.165.118-.213.348-.146.702.022.116.02.175-.011.249-.12.286-.537.4-.736.2-.095-.096-.114-.174-.096-.399.019-.24.129-.452.355-.687.405-.422.965-.652 1.59-.652.434 0 .803.136 1.105.408.243.219.363.455.47.927.054.24.06.405.079 1.818.017 1.438.023 1.567.076 1.715.073.205.194.294.398.294.117 0 .16-.016.248-.093.12-.105.182-.093.231.045.025.071.013.094-.132.24-.36.366-.86.473-1.258.27-.145-.074-.372-.37-.403-.526-.01-.046-.028-.09-.041-.099-.014-.008-.131.077-.262.19-.423.365-.625.476-.967.53a1.696 1.696 0 0 1-.588-.001Zm.99-.572c.284-.126.708-.45.786-.601.036-.069.044-.251.044-1.011 0-.87-.003-.926-.052-.911l-.548.164c-.782.234-1.093.435-1.278.826-.177.374-.197.843-.05 1.142.133.272.286.4.546.454a.81.81 0 0 0 .552-.063Zm2.967.404a.335.335 0 0 1-.008-.23c.014-.052.047-.067.183-.083.263-.032.38-.07.485-.164.187-.164.18-.009.18-3.856 0-3.194-.004-3.499-.05-3.597-.067-.15-.162-.202-.436-.242-.146-.02-.246-.05-.263-.077-.029-.044-.04-.292-.014-.292.181 0 1.078-.182 1.403-.284.307-.097.327-.08.302.24-.035.458-.023 7.616.013 7.788.067.318.183.414.57.472.2.03.227.041.254.11.018.046.02.117.005.18l-.025.102h-1.286l-1.286.001-.026-.069Zm4.373.168c-.5-.074-.885-.346-1.027-.727-.327-.873.078-1.702 1.072-2.197.311-.156.542-.235 1.173-.404.29-.078.546-.155.569-.173.06-.046.024-.721-.054-1.024-.107-.415-.261-.618-.577-.757-.12-.053-.176-.06-.377-.045-.43.03-.745.168-.826.36-.047.114-.051.353-.01.536.02.09.02.158-.002.226-.098.297-.541.43-.747.225-.095-.096-.114-.174-.096-.399.02-.24.13-.452.356-.687.406-.424.964-.652 1.595-.652.434 0 .794.134 1.099.408.244.219.364.455.47.927.054.24.061.407.079 1.818.018 1.435.024 1.567.077 1.715.072.205.193.294.397.294.117 0 .16-.016.248-.093.12-.105.182-.093.231.045.025.071.013.094-.132.24-.36.366-.86.473-1.258.27-.145-.074-.372-.37-.403-.526-.009-.046-.028-.09-.043-.1-.014-.009-.121.069-.238.173-.251.223-.519.408-.681.472-.242.094-.575.122-.895.075Zm.99-.572c.283-.126.708-.45.786-.601.035-.069.043-.251.043-1.011 0-.87-.003-.926-.051-.911l-.549.164c-.779.234-1.073.422-1.27.814-.12.241-.163.463-.148.753.015.276.083.45.245.63.136.15.189.18.395.225.198.043.349.026.548-.063Zm2.912.39a.554.554 0 0 1 0-.184c.017-.092.028-.1.157-.118.372-.05.528-.152.596-.387.06-.208.06-6.964 0-7.172-.055-.19-.153-.255-.445-.296-.126-.019-.243-.047-.258-.063a.38.38 0 0 1-.038-.16l-.01-.131.117-.022a72.7 72.7 0 0 1 .528-.095c.347-.062.783-.169.954-.235.024-.01.067 0 .094.02.046.034.048.09.022.668-.015.347-.028 1.663-.028 2.925 0 1.825.007 2.295.036 2.295.152 0 .759-.549 1.295-1.172.3-.349.397-.51.398-.664 0-.117-.067-.176-.264-.226-.14-.036-.162-.052-.183-.133a.435.435 0 0 1 0-.183l.024-.091 1.032-.004c1.136-.006 1.063-.018 1.063.186 0 .173-.022.205-.142.206-.196 0-.501.083-.703.189-.246.13-.382.267-.94.954-.374.46-.442.558-.443.642-.001.142 1.407 2.463 1.61 2.652.149.14.395.249.625.276.188.022.243.105.201.307l-.02.097h-1.764l-.017-.235c-.023-.3-.09-.432-.71-1.407-.595-.935-.691-1.043-.979-1.088l-.12-.02.001.686c.002 1.338.071 1.604.431 1.66a.68.68 0 0 1 .16.042c.063.032.095.191.06.288l-.028.073-1.147.002-1.147.002-.018-.084Zm6.95.183a1.485 1.485 0 0 1-.622-.235c-.312-.208-.469-.52-.496-.983-.03-.509.1-.831.487-1.218.426-.423.804-.607 1.813-.881.303-.082.576-.171.606-.198.05-.044.053-.077.035-.368-.024-.381-.058-.585-.137-.829-.104-.322-.397-.58-.697-.616a1.824 1.824 0 0 0-.75.122c-.29.13-.357.284-.303.706.031.25.03.275-.025.368-.12.206-.398.308-.605.222-.158-.066-.213-.17-.21-.404.004-.58.666-1.19 1.477-1.36.247-.052.638-.058.858-.013.396.082.84.401 1.002.722.083.165.173.469.227.771.02.117.042.78.055 1.716.023 1.67.024 1.682.198 1.835.083.073.123.086.257.086.136 0 .175-.013.26-.088a.44.44 0 0 1 .127-.088c.014 0 .05.04.078.089.05.085.05.09-.008.172-.306.43-.952.607-1.367.375-.142-.08-.321-.312-.383-.496-.025-.077-.055-.14-.066-.14-.01.001-.105.077-.21.17-.595.521-.975.655-1.602.564Zm.937-.547c.15-.048.436-.232.67-.428.23-.194.229-.186.229-1.223 0-.857-.003-.913-.051-.9l-.462.136c-.768.225-1.025.36-1.254.66a1.401 1.401 0 0 0-.258.652c-.09.565.188 1.056.65 1.15.148.03.275.018.476-.047Z"/></svg>