<?xml version="1.0" encoding="UTF-8"?>
<svg width="120px" height="18px" viewBox="0 0 120 18" version="1.1" xmlns="http://www.w3.org/2000/svg" xmlns:xlink="http://www.w3.org/1999/xlink">
    <title>mai-tagline</title>
    <g id="Page-1" stroke="none" stroke-width="1" fill="none" fill-rule="evenodd">
        <path d="M24.1763889,6.53077443 L18.7923831,6.53077443 L18.7923831,7.36244328 C20.0471916,7.36244328 21.1123199,7.82205353 21.987768,8.74127404 C22.8778074,9.64590602 23.322827,10.7475138 23.322827,12.0460975 C23.322827,12.7026835 23.1477374,13.2352466 22.7975582,13.6437868 C22.4619695,14.0377385 22.0680179,14.2347143 21.6157032,14.2347143 C21.2801146,14.2347143 20.9882983,14.1106913 20.7402545,13.8626454 C20.4922113,13.600011 20.3681897,13.3081961 20.3681897,12.9872007 C20.3681897,12.6807939 20.4703251,12.4108652 20.6745959,12.1774147 C20.8934579,11.9439573 21.1415017,11.8272286 21.4187274,11.8272286 C21.6667706,11.8272286 21.8929279,11.9001849 22.0971994,12.0460975 C22.3160614,12.1774147 22.4838557,12.3670928 22.6005824,12.6151319 C22.6589433,12.5275871 22.7027157,12.432748 22.7318996,12.3306147 C22.7610835,12.2284813 22.7756754,12.1263446 22.7756754,12.0242044 C22.7756754,11.1049839 22.3817238,10.3243783 21.5938205,9.68238758 C20.8205084,9.02580151 19.8866974,8.69750847 18.7923872,8.69750847 L18.7923872,17.6927377 L18.3984356,17.3206688 C18.3108908,16.7662161 18.1503917,16.2701277 17.9169384,15.8324036 C17.6980764,15.3800911 17.3551928,14.9058923 16.8882876,14.4098073 C16.3338369,13.7969937 15.6772508,13.3009053 14.9185294,12.9215421 C14.1743985,12.5275905 13.4740397,12.3014342 12.8174529,12.2430733 L11.7669152,10.6016081 C12.3505477,10.163884 12.8904075,9.7918186 13.3864945,9.48541176 C13.8825822,9.16440957 14.3932605,8.85800273 14.9185294,8.56619126 C15.5167518,8.24518906 16.0639069,7.98984889 16.5599946,7.80017075 C17.0706722,7.59589725 17.5083962,7.46458003 17.8731667,7.40621911 L17.8731667,6.53077443 L11.2854191,6.53077443 L10.3661986,5.69909531 L23.3009443,5.69909531 L24.1763889,6.53077443 Z M17.8731626,14.7599831 L17.8731626,8.76316708 C17.5813464,8.82150749 17.2530533,8.92364082 16.8882835,9.06956707 C16.523513,9.21547965 16.1368567,9.39056927 15.7283144,9.59483593 C15.3489534,9.79910944 14.9695926,10.0179715 14.5902322,10.251422 C14.2254618,10.470284 13.8679869,10.703738 13.5178076,10.9517839 C14.3057109,11.2727793 15.0571374,11.7396838 15.7720872,12.3524974 C16.5016268,12.9507226 17.1873944,13.7532178 17.8293899,14.7599831 L17.8731626,14.7599831 Z M54.8625167,5.69598166 L55.760193,6.5275274 L39.927,6.527 L38.1353412,6.53077443 C38.3250214,6.85176978 38.4636339,7.15817662 38.5511787,7.44999493 C38.6533141,7.72721788 38.7043817,8.12116953 38.7043817,8.63184986 C38.7043817,8.99661763 38.6460188,9.34679687 38.5292928,9.68238758 C38.4271567,10.0033829 38.2374762,10.3097898 37.9602512,10.6016081 L37.9602512,18.0429135 L37.5444137,17.6708446 C37.4276871,17.276893 37.2453018,16.9267138 36.997258,16.6203069 C36.7638054,16.3139001 36.3844446,15.9491323 35.8591758,15.5260036 C35.3922699,15.161229 34.9180687,14.8912969 34.4365723,14.7162073 C33.9550758,14.5265292 33.4225117,14.4243958 32.8388798,14.4098073 L31.9196593,13.2498352 C32.1677025,13.0309731 32.4959955,12.7902249 32.9045384,12.5275905 C33.3276719,12.2503675 33.8091684,11.9658469 34.3490278,11.6740286 C34.480345,11.6010723 34.7356842,11.4624608 35.1150452,11.2581942 C35.5089969,11.0539207 35.8154037,10.9007172 36.0342657,10.7985839 C35.7716313,10.6672667 35.5235874,10.5067656 35.2901342,10.3170806 C35.0712721,10.1274025 34.8524101,9.90854045 34.6335481,9.66049454 C34.2250059,9.17899809 33.9404852,8.87259125 33.7799862,8.74127404 C33.6194878,8.5953683 33.4516938,8.50782349 33.2766042,8.47863961 C33.3057881,8.56618442 33.3276743,8.67561543 33.3422628,8.80693264 C33.3714467,8.92366134 33.3860386,9.03309235 33.3860386,9.13522568 C33.3860386,9.60213361 33.2328352,9.98149674 32.9264284,10.2733151 C32.6200216,10.550538 32.262547,10.6891495 31.8540048,10.6891495 C31.4746437,10.6891495 31.1244645,10.550538 30.8034671,10.2733151 C30.482469,9.98149674 30.32197,9.58024741 30.32197,9.06956707 C30.32197,8.60266598 30.5043552,8.21601202 30.8691257,7.90960518 C31.2484861,7.60319835 31.7372778,7.44999493 32.3355009,7.44999493 C32.3646848,7.39165452 32.3792768,7.33329018 32.3792768,7.27490189 C32.3938653,7.2019456 32.4011595,7.12899273 32.4011595,7.05604329 C32.4011595,6.95390311 32.3355009,6.8444721 32.2041837,6.72775025 C32.0874571,6.59643303 31.9488446,6.53077443 31.7883462,6.53077443 L29.7091566,6.53077443 L28.7899361,5.69909531 L38.32,5.699 L54.8625167,5.69598166 Z M39.7600829,6.98717869 L40.5042104,7.38113034 C40.8252057,8.25657844 41.1534988,9.06636793 41.4890895,9.81049881 C41.8392687,10.5400412 42.1967422,11.2039249 42.56151,11.8021501 C43.3348247,13.0715498 44.13732,14.0053588 44.9689957,14.6035772 C45.8152599,15.1872138 46.7344804,15.4790321 47.7266572,15.4790321 C48.4853766,15.4790321 49.090896,15.3112367 49.5432154,14.975646 C49.995528,14.6400553 50.2216843,14.2388094 50.2216843,13.7719083 C50.2216843,13.5092739 50.1633199,13.2831142 50.0465912,13.0934292 C49.9444579,12.8891625 49.776666,12.7213706 49.5432154,12.5900534 C49.4264867,12.7359591 49.2586914,12.8599786 49.0398293,12.962112 C48.8209673,13.0496568 48.6093995,13.0934292 48.405126,13.0934292 C48.0549468,13.0934292 47.74854,12.9694096 47.4859055,12.7213706 C47.2232711,12.4733247 47.0919539,12.1523259 47.0919539,11.7583743 C47.0919539,11.3790111 47.2086826,11.0580124 47.44214,10.7953779 C47.690179,10.518155 48.0184721,10.3795435 48.4270191,10.3795435 C48.6021087,10.3795435 48.7626064,10.4160216 48.9085121,10.4889779 C49.0690132,10.5619274 49.1784442,10.6494722 49.2368052,10.7516124 C49.4264833,10.4743826 49.5723925,10.1898619 49.6745326,9.89805046 C49.776666,9.59164363 49.8277326,9.3508954 49.8277326,9.17580578 C49.8277326,8.84021506 49.6964154,8.57028295 49.433781,8.36600945 C49.1857351,8.14714742 48.872034,8.03771641 48.4926777,8.03771641 C47.7777239,8.03771641 47.0554792,8.24198991 46.3259436,8.65053692 C45.5964013,9.05907709 45.1513796,9.47491493 44.9908785,9.89805046 C45.3410577,9.95639087 45.6036921,10.0877081 45.7787817,10.2920021 C45.9538714,10.4962688 46.0414162,10.7589032 46.0414162,11.0799054 C46.0414162,11.4300846 45.9173966,11.7218995 45.6693576,11.9553501 C45.4213117,12.1888006 45.1221991,12.3055259 44.7720198,12.3055259 C44.3926567,12.3055259 44.0424775,12.137734 43.7214821,11.8021501 C43.4004868,11.4665594 43.2399891,11.0507215 43.2399891,10.5546365 C43.2399891,9.65000455 43.7068936,8.86939552 44.6407026,8.21280945 C45.5745117,7.54163485 46.6323436,7.20604756 47.8141986,7.20604756 C48.6896467,7.20604756 49.3462327,7.44679578 49.7839568,7.92829224 C50.2281247,8.40111134 50.4542109,9.04979986 50.4622156,9.87435778 C50.7264465,9.71556995 51.0410606,9.53294858 51.4040624,9.32875956 C51.8709669,9.06612513 52.4197293,8.76667058 53.047128,8.43108328 C53.1054924,8.43108328 53.1780246,8.46090665 53.2655352,8.51928126 C53.3530766,8.57761483 53.4255678,8.65007526 53.4839424,8.73768846 C53.5568953,8.8544069 53.6740959,9.02921268 53.8346004,9.26267006 C54.0096832,9.48152867 54.1770409,9.65833499 54.3375351,9.7896522 C54.2792323,10.2273797 54.229065,10.8019335 54.1852584,11.5168737 C54.1560198,12.2318241 54.1411441,12.8307332 54.1411441,13.3122262 C54.1411441,14.2022697 54.1764048,14.9387233 54.2493474,15.5223565 C54.3223003,16.1059897 54.4245943,16.552458 54.5559115,16.858858 L54.5559115,17.3177091 C54.4975472,17.2739332 54.3525545,17.1418466 54.1190971,16.9229777 L53.9604179,16.7642998 L53.6758914,16.4797605 C53.632118,16.4359858 53.5901683,16.3940361 53.5500422,16.3539125 C53.4187147,16.193408 53.3164104,15.9014119 53.2434678,15.4782729 C53.1704944,15.0551442 53.1332537,14.523289 53.1332537,13.8812914 C53.1332537,13.2101168 53.148232,12.4662151 53.177368,11.6491245 C53.2211439,10.8174454 53.286228,10.2056405 53.3737386,9.81169913 C53.3591706,9.75331427 53.3313682,9.70868693 53.2875616,9.67944833 C53.2437448,9.65020974 53.1991175,9.63533396 53.1553108,9.63533396 C52.6008649,9.97092126 52.0243003,10.3205226 51.4260786,10.6852972 C50.887679,11.0004554 50.4722579,11.2542948 50.2562798,11.3870063 L50.218,11.41 L50.215555,11.4222042 C50.1175038,11.6930077 50.0101158,11.9217896 49.8933912,12.1085501 C50.2143866,12.3274121 50.477021,12.6484109 50.6812945,13.0715464 C50.885568,13.4946819 50.9877048,13.8813393 50.9877048,14.2315186 C50.9877048,15.0194218 50.7104784,15.6905964 50.1560257,16.2450423 C49.6015729,16.7849066 48.8428501,17.0548387 47.8798572,17.0548387 C46.8293195,17.0548387 45.8225541,16.6900675 44.8595612,15.9605251 C43.9111637,15.2163942 42.9919432,14.0491313 42.1018997,12.4587362 C41.6933596,11.7437823 41.2921137,10.9339928 40.898162,10.0293677 C40.5187989,9.12473569 40.1394392,8.1106727 39.7600829,6.98717869 Z M37.0410307,11.60837 C37.0118502,11.6229722 36.9425445,11.6594546 36.8331135,11.7178172 L36.638873,11.8217714 C36.5640949,11.8618928 36.4792854,11.9074843 36.3844446,11.9585458 C36.0196748,12.1482308 35.6622003,12.3379123 35.312021,12.5275905 C35.0785678,12.6589077 34.8524101,12.7902249 34.6335481,12.9215421 C34.4292773,13.0528593 34.1739385,13.2206547 33.8675317,13.4249282 C34.4219817,13.6000178 34.9326596,13.8845385 35.3995655,14.2784901 C35.8664714,14.6578464 36.3990355,15.1758176 36.997258,15.8324036 L37.0410307,15.8324036 L37.0410307,11.60837 Z M36.9315993,6.53077443 L32.9264243,6.53077443 C32.9993785,6.63290776 33.0577418,6.77151923 33.1015143,6.94660885 C33.1598752,7.12169847 33.1817614,7.3186743 33.1671729,7.53753632 C33.3860349,7.63966965 33.6121922,7.77828113 33.8456448,7.95337075 C34.0790981,8.12846037 34.2687786,8.29625573 34.4146864,8.45675682 C34.589776,8.64643497 34.8670014,8.82152459 35.2463624,8.98202568 C35.6403141,9.12793142 35.9831977,9.20088429 36.2750133,9.20088429 C36.7565097,9.20088429 37.1431661,9.10604522 37.4349823,8.91636708 C37.7413892,8.71209357 37.8945926,8.412981 37.8945926,8.01902936 C37.8945926,7.65426159 37.8070478,7.36974096 37.6319582,7.16546746 C37.4714591,6.9612008 37.2380062,6.74963645 36.9315993,6.53077443 Z M109.385178,5.69912609 C109.954219,5.69912609 110.457602,5.87421571 110.895326,6.22439495 C111.33305,6.55998567 111.668637,7.08525453 111.902088,7.80020153 C112.412768,7.05607064 112.879676,6.52350752 113.302812,6.20251217 C113.72594,5.86692145 114.119892,5.69912609 114.484667,5.69912609 C114.907795,5.69912609 115.3747,5.93987432 115.88538,6.42137077 C116.396061,6.90286723 116.884851,7.5594533 117.351752,8.39112899 L117.350913,4.38600608 C116.559291,3.47332552 115.578599,2.73083366 114.643775,2.05082507 C113.281305,1.13142734 110.911386,0.408604006 109.719414,1.3143291 C109.663168,1.29305816 109.622102,1.27796162 109.585164,1.2644599 L109.504358,1.23484024 C109.476636,1.22457609 109.446574,1.21327701 109.409509,1.19901097 L109.32466,1.16595052 C109.146919,1.09598815 108.833237,0.968820193 108.153765,0.689205391 C108.47967,0.510355152 109.258388,0.186805738 109.588268,0.111290831 C109.926097,0.0397531775 110.30367,6.07973073e-06 110.717013,6.07973073e-06 C111.098561,6.07973073e-06 111.468185,0.031801723 111.829861,0.0953930096 C112.199485,0.151037929 112.549237,0.234499203 112.879118,0.349758156 C113.18515,0.468992327 113.499133,0.620021124 113.817089,0.810794983 C114.142994,1.00156884 114.460949,1.21618893 114.770957,1.44670785 C115.088914,1.66927735 115.394947,1.91569308 115.693031,2.17800764 C115.999064,2.43237279 116.285225,2.68673794 116.551513,2.94110308 C116.82575,3.18751881 117.076141,3.42598715 117.298711,3.65650506 C117.465638,3.8323749 117.610209,3.99259518 117.735777,4.1371659 L117.855138,4.27651951 C117.855138,4.69965504 117.964569,5.04254002 118.183432,5.30517444 C118.416882,5.56780887 118.708697,5.69912609 119.058876,5.69912609 L119.146387,5.69912609 L120,6.53077443 L118.993228,6.53077443 C118.759777,6.53077443 118.577393,6.50888822 118.446076,6.46511582 C118.314759,6.42134341 118.234508,6.36297907 118.205325,6.29002278 L118.161518,6.33382938 L118.336601,18.0429443 L117.220404,16.9048652 L117.264211,9.35412532 C116.855671,8.56622203 116.454425,7.98258883 116.060473,7.60322571 C115.666522,7.22386258 115.30175,7.03418102 114.96616,7.03418102 C114.761886,7.03418102 114.521138,7.13631777 114.243915,7.34059128 C113.981281,7.54486478 113.762419,7.79290727 113.587329,8.08471874 C114.346048,8.56621519 114.885909,9.02582545 115.206911,9.4635495 C115.527907,9.90127355 115.688404,10.3098171 115.688404,10.6891803 C115.688404,11.024771 115.557087,11.3311778 115.294453,11.6084008 C115.046407,11.8856237 114.725408,12.0242352 114.331456,12.0242352 C114.02505,12.0242352 113.711349,11.892918 113.390353,11.6302835 C113.069358,11.3676491 112.770245,10.944517 112.493015,10.3608872 C112.274153,10.944517 112.004225,11.3676491 111.683229,11.6302835 C111.376823,11.892918 111.055824,12.0242352 110.720233,12.0242352 C110.326281,12.0242352 109.976102,11.8856237 109.669695,11.6084008 C109.377884,11.3311778 109.231978,10.9664066 109.231978,10.5140872 C109.231978,10.1785033 109.407068,9.79184937 109.757247,9.35412532 C110.122015,8.90180591 110.66917,8.47137612 111.398712,8.06283596 C111.238211,7.68347283 111.026643,7.4208384 110.764009,7.27493267 C110.515963,7.11443157 110.209556,7.03418102 109.844788,7.03418102 L108.816133,7.03418102 L108.469,6.53 L108.085015,6.53077443 C107.909925,6.53077443 107.749427,6.50888822 107.603522,6.46511582 C107.472204,6.42134341 107.355476,6.36297907 107.253335,6.29002278 L107.209529,6.33382938 L107.384612,18.0429443 L106.246533,16.9048652 L106.290339,8.89451507 C105.998521,8.17956123 105.692114,7.61051997 105.371119,7.18739128 C105.050116,6.74966723 104.765596,6.5308052 104.517557,6.5308052 L99.4977613,6.53077443 L99.4977613,7.36244328 C100.752572,7.36244328 101.817702,7.82205353 102.69315,8.74127404 C103.583187,9.64590602 104.028205,10.7475138 104.028205,12.0460975 C104.028205,12.7026835 103.853116,13.2352466 103.502936,13.6437868 C103.167346,14.0377385 102.773394,14.2347143 102.321081,14.2347143 C101.985491,14.2347143 101.693676,14.1106913 101.445637,13.8626454 C101.197591,13.600011 101.073568,13.3081961 101.073568,12.9872007 C101.073568,12.6807939 101.175705,12.4108652 101.379978,12.1774147 C101.59884,11.9439573 101.846883,11.8272286 102.124106,11.8272286 C102.372151,11.8272286 102.598308,11.9001849 102.802574,12.0460975 C103.021436,12.1774147 103.189232,12.3670928 103.305961,12.6151319 C103.364301,12.5275871 103.408073,12.432748 103.437278,12.3306147 C103.466482,12.2284813 103.481084,12.1263446 103.481084,12.0242044 C103.481084,11.1049839 103.087133,10.3243783 102.299229,9.68238758 C101.525915,9.02580151 100.592102,8.69750847 99.4977921,8.69750847 L99.4977921,17.6927377 L99.1038404,17.3206688 C99.0162956,16.7662161 98.8557979,16.2701277 98.6223474,15.8324036 C98.4034853,15.3800911 98.0606004,14.9058923 97.5936924,14.4098073 C97.0392397,13.7969937 96.3826536,13.3009053 95.6239342,12.9215421 C94.8798033,12.5275905 94.1794448,12.3014342 93.5228588,12.2430733 L92.472319,10.6016081 C93.0559502,10.163884 93.5958082,9.7918186 94.0918932,9.48541176 C94.587985,9.16440957 95.0986654,8.85800273 95.6239342,8.56619126 C96.2221594,8.24518906 96.7693144,7.98984889 97.2653994,7.80017075 C97.7760797,7.59589725 98.2138038,7.46458003 98.5785715,7.40621911 L98.5785715,6.53077443 L93.6473024,6.53077443 C92.5238104,6.53077443 91.6264758,6.65479396 90.9552984,6.90283303 C90.2987123,7.15087894 89.7223758,7.52294438 89.2262888,8.01902936 C88.5405209,8.71938783 88.0225473,9.50729112 87.672368,10.3827392 C87.3221888,11.2435988 87.1470992,12.1774112 87.1470992,13.1841766 C87.1470992,14.3368476 87.3732565,15.2560681 87.8255711,15.9418381 C88.292477,16.627608 88.8031553,16.970493 89.357606,16.970493 C89.4597414,16.970493 89.5545815,16.9486068 89.6421263,16.9048344 C89.7442617,16.861062 89.8391018,16.7954034 89.9266466,16.7078586 C89.7807388,16.6057184 89.6640125,16.4816955 89.5764677,16.3357897 C89.5035134,16.1752886 89.4670363,16.000199 89.4670363,15.8105209 C89.4670363,15.5332979 89.5764673,15.2779577 89.7953293,15.0445004 C90.0287826,14.8110498 90.3133033,14.6943245 90.6488912,14.6943245 C91.0136617,14.6943245 91.3127733,14.8183475 91.5462259,15.0663934 C91.7796792,15.3144325 91.8964058,15.6427255 91.8964058,16.0512725 C91.8964058,16.532769 91.7140206,16.9267206 91.3492501,17.2331274 C90.9844803,17.5395343 90.5321653,17.6927377 89.9923052,17.6927377 C88.9125863,17.6927377 88.0006614,17.2039436 87.2565305,16.2263553 C86.5123997,15.2487739 86.1403342,14.0158523 86.1403342,12.5275905 C86.1403342,11.2581907 86.4102639,10.0836301 86.9501234,9.00390847 C87.4899828,7.9241937 88.1903413,7.11440421 89.0511988,6.57453999 L89.0511988,6.53073339 L84.508447,6.53077443 C84.2749937,6.53077443 84.0926084,6.50888822 83.9612912,6.46511582 C83.829974,6.42134341 83.7497248,6.36297907 83.7205437,6.29002278 L83.6548851,6.33382938 L83.6548851,18.0648271 L83.2390466,17.6927685 C83.1223206,17.2842215 82.8961633,16.8829721 82.5605746,16.4890205 C82.224986,16.0804803 81.8164434,15.7157126 81.3349469,15.3947172 C80.9118141,15.1028989 80.4522039,14.8694449 79.9561162,14.6943553 C79.4746197,14.5192657 78.9712371,14.4098347 78.4459682,14.3660623 L77.7456104,13.3374073 C78.1395621,13.016412 78.6137629,12.6881189 79.1682129,12.3525282 C79.7372542,12.0169443 80.3208863,11.7105375 80.9191094,11.4333077 C81.2255163,11.2728135 81.5246278,11.134202 81.8164441,11.0174733 C82.1082597,10.8861561 82.4219618,10.7548389 82.7575504,10.6235216 L82.7575504,8.91639785 C82.3490082,8.31817271 81.9550566,7.83667625 81.5756955,7.47190849 C81.2109257,7.09254537 80.8972236,6.90286381 80.6345891,6.90286381 C80.4157271,6.90286381 80.1968651,6.97582009 79.9780031,7.12173267 C79.759141,7.25304989 79.5548696,7.44272803 79.3651887,7.6907671 C80.036366,8.04094634 80.5397487,8.40571752 80.8753367,8.78508064 C81.2109254,9.16444376 81.3787197,9.55110115 81.3787197,9.94505279 C81.3787197,10.2806367 81.2474025,10.5724516 80.984768,10.8204975 C80.7221336,11.0685434 80.4157268,11.1925663 80.0655475,11.1925663 C79.7591407,11.1925663 79.4746201,11.0977238 79.2119856,10.9080389 C78.9493512,10.7183607 78.6356491,10.3681815 78.2708793,9.85750114 C78.037426,10.353593 77.7820868,10.7183641 77.5048618,10.9518147 C77.2422274,11.1852652 76.9285253,11.3019905 76.5637555,11.3019905 C76.1843944,11.3019905 75.8488057,11.163379 75.5569895,10.8861561 C75.2797645,10.6089331 75.141152,10.2733458 75.141152,9.87939418 C75.141152,9.55839199 75.3089463,9.20091507 75.644535,8.80696342 C75.980123,8.39842326 76.4908009,7.99717735 77.1765688,7.60322571 C77.030661,7.34059128 76.8190943,7.16550166 76.5418686,7.07795685 C76.2792342,6.99041204 75.8633963,6.94663963 75.2943551,6.94663963 L74.6158831,6.94663963 L74.33,6.53 L73.2220001,6.53077443 L73.2220001,17.6927377 L72.8499354,17.3206688 C72.7477993,16.8245839 72.5654141,16.3503817 72.3027796,15.8980622 C72.0401452,15.4457497 71.6534892,14.9496647 71.1428116,14.4098073 C70.5737703,13.7969937 69.9317748,13.3081995 69.2168251,12.9434249 C68.501876,12.5786572 67.7066774,12.3597951 66.8312293,12.2868388 L65.5837158,10.8423495 C66.8968879,9.87935657 68.173583,9.06956707 69.4138009,8.412981 C70.6540195,7.75639493 71.624308,7.37703522 72.3246665,7.27490189 L72.3246665,6.53077443 L63.7333065,6.53077443 L63.9302823,18.0429135 L62.7922001,16.9048344 L62.8797415,6.53077443 L61.0850732,6.53077443 L60.12208,5.69909531 L62.9016284,5.69909531 C62.6098121,5.42187236 62.3471777,5.09357932 62.1137251,4.7142162 C61.8948631,4.33485308 61.785432,4.00656004 61.785432,3.72933709 C61.785432,3.02897861 62.2377467,2.31402819 63.1423759,1.58448583 C64.0615964,0.840354941 65.141316,0.468289499 66.3815346,0.468289499 C67.3737093,0.468289499 68.4534285,0.760107812 69.6206922,1.34374444 C70.8025471,1.9127857 71.9114482,2.75904992 72.9473984,3.88253709 L72.9473984,4.40780595 C71.8968607,3.38645211 70.8609139,2.66420743 69.839558,2.2410719 C68.8182014,1.81794321 67.8770947,1.60637887 67.0162379,1.60637887 C65.9365183,1.60637887 64.988116,1.92737422 64.1710309,2.56936494 C63.3539457,3.19677397 62.9454032,3.85336004 62.9454032,4.53912316 C62.9454032,4.72880814 62.9964712,4.94037591 63.0986073,5.17382645 C63.2153332,5.39268848 63.3539457,5.5677781 63.5144448,5.69909531 L75.5569895,5.69912609 C75.8925781,5.69912609 76.2573483,5.84503525 76.6512999,6.13685356 C77.0452516,6.42866503 77.417317,6.8372052 77.7674963,7.36247406 C78.2052203,6.76425575 78.6137629,6.3265317 78.993124,6.04930191 C79.3870756,5.75749044 79.7737316,5.6115847 80.153092,5.6115847 C80.5032712,5.6115847 80.8972229,5.83044672 81.3349469,6.26817077 C81.7872622,6.70589482 82.2614634,7.30411655 82.7575504,8.06283596 L82.7571068,4.333 L82.6929774,4.26379832 C82.5326,4.09210172 82.3437342,3.89496503 82.124345,3.67239877 C81.8461331,3.39816123 81.5400993,3.12392369 81.2022714,2.84571586 C80.8723913,2.57147832 80.5186648,2.30518137 80.1371164,2.05082609 C78.774648,1.13142092 76.4047283,0.408601721 75.2127558,1.31432117 C75.1565097,1.29305171 75.1154438,1.27795465 75.0785061,1.26445133 L74.9977,1.23482665 C74.8498513,1.18007374 74.6354294,1.0958765 73.6471068,0.689199936 C73.9730125,0.510352045 74.7517308,0.186798738 75.0816109,0.11129134 C75.4194388,0.0397850124 75.7970127,-2.57571742e-14 76.2103562,-2.57571742e-14 C76.5919035,-2.57571742e-14 76.9615276,0.031803388 77.323204,0.0954101639 C77.692827,0.151014797 78.0425792,0.234514079 78.3724593,0.349775713 C78.678492,0.46900764 78.9924746,0.620032697 79.3104315,0.810811988 C79.6363362,1.00158102 79.9542911,1.21620259 80.2642992,1.44672586 C80.5822562,1.66929828 80.8882889,1.91571298 81.1863728,2.17801912 C81.4924055,2.43238467 81.7785662,2.68675022 82.044855,2.94111577 C82.3190925,3.18753047 82.5694837,3.42600458 82.792053,3.65651759 C82.95898,3.83238776 83.1035505,3.99260759 83.2291186,4.1371814 L83.3484779,4.27651951 C83.3484779,4.71424356 83.4287274,5.0644228 83.5892265,5.32705723 C83.7497248,5.57510314 83.9977684,5.69912609 84.333357,5.69912609 L104.006353,5.69909531 L104.052645,5.74123801 C104.464101,5.80138429 104.794175,5.92595846 105.042867,6.11496052 C105.422223,6.37759495 105.852649,7.0195925 106.334146,8.04095317 L106.377952,8.04095317 L106.377952,3.75125065 L106.881338,4.27651951 C106.881338,4.71424356 106.961586,5.0644228 107.12208,5.32705723 C107.297169,5.57510314 107.545215,5.69912609 107.866218,5.69912609 L109.385178,5.69912609 Z M80.603983,15.9588375 C80.8085485,15.9588375 80.9824296,16.0355486 81.1256263,16.1889709 C81.2688181,16.3321751 81.340414,16.5009416 81.340414,16.6952706 C81.340414,16.8998382 81.2688181,17.0788331 81.1256263,17.2322554 C80.9824296,17.3754459 80.8085485,17.4470411 80.603983,17.4470411 C80.3994209,17.4470411 80.220428,17.3754459 80.0670043,17.2322554 C79.9238084,17.0788331 79.8522104,16.8998382 79.8522104,16.6952706 C79.8522104,16.490703 79.9238084,16.316824 80.0670043,16.1736335 C80.220428,16.0304362 80.3994209,15.9588375 80.603983,15.9588375 Z M68.8228734,14.6286659 C69.1146897,14.6286659 69.3627335,14.7380969 69.567005,14.956959 C69.7712758,15.1612325 69.8734111,15.4019807 69.8734111,15.6792036 C69.8734111,15.971022 69.7712758,16.2263621 69.567005,16.4452242 C69.3627335,16.6494908 69.1146897,16.7516241 68.8228734,16.7516241 C68.5310578,16.7516241 68.275719,16.6494908 68.056857,16.4452242 C67.8525856,16.2263621 67.7504498,15.971022 67.7504498,15.6792036 C67.7504498,15.3873853 67.8525856,15.1393428 68.056857,14.9350762 C68.275719,14.7308027 68.5310578,14.6286659 68.8228734,14.6286659 Z M82.7794363,11.8710044 C82.5459837,12.0023216 82.2541678,12.1482308 81.9039885,12.3087319 C81.5538093,12.4692261 81.327652,12.5713595 81.2255166,12.6151319 C80.8607461,12.7902215 80.5397484,12.9507226 80.2625234,13.0966352 C79.9998889,13.2425409 79.7591407,13.3884466 79.5402787,13.5343524 C79.8904579,13.6364926 80.2406372,13.7969937 80.5908164,14.0158557 C80.9555862,14.2201223 81.3057654,14.4681648 81.6413541,14.7599831 C81.8748067,14.9788452 82.0790778,15.1904129 82.2541674,15.3946864 C82.4438483,15.5843646 82.6116427,15.7813404 82.7575504,15.9856139 L82.7794363,15.9856139 L82.7794363,11.8710044 Z M72.3246665,8.67561543 C71.7556252,8.7777556 70.9896082,9.08416244 70.0266152,9.59483593 C69.0636223,10.1055163 68.2100604,10.6161966 67.4659296,11.1268769 C68.4581036,11.4770562 69.3554379,11.9658469 70.1579325,12.5932491 C70.9604263,13.2060628 71.6680801,13.9866718 72.2808938,14.9350762 L72.3246665,14.9350762 L72.3246665,8.67561543 Z M98.5785408,8.76316708 C98.2867225,8.82150749 97.9584294,8.92364082 97.5936617,9.06956707 C97.2288939,9.21547965 96.8422365,9.39056927 96.4336895,9.59483593 C96.0543264,9.79910944 95.6749667,10.0179715 95.2956104,10.251422 C94.9308358,10.470284 94.5733589,10.703738 94.2231796,10.9517839 C95.0110829,11.2727793 95.7625115,11.7396838 96.4774653,12.3524974 C97.2070077,12.9507226 97.8927742,13.7532178 98.5347649,14.7599831 L98.5785408,14.7599831 L98.5785408,8.76316708 Z M0,11.45517 C0,10.9882621 0.058363218,10.550538 0.175089654,10.1419978 C0.306406869,9.71886231 0.503382691,9.31031872 0.766017121,8.91636708 L1.11619653,9.31031872 C0.970288401,9.52918075 0.853561931,9.80640712 0.766017121,10.1419978 C0.678472311,10.4629932 0.634699906,10.7912862 0.634699906,11.1268769 C0.634699906,11.9585526 0.890038878,12.622433 1.40071682,13.118518 C1.92598568,13.6146029 2.67741219,13.8626454 3.65499636,13.8626454 C3.75713175,13.8626454 4.14378776,13.8407592 4.81496441,13.7969868 C5.48614174,13.7386464 6.00411531,13.7094762 6.36888513,13.7094762 C6.96710822,13.7094762 7.45589996,13.797021 7.83526035,13.9721106 C8.21462142,14.1472002 8.63045927,14.4827875 9.08277389,14.9788725 L9.08277389,7.31870849 C9.08277389,6.9977063 9.00982,6.77884427 8.86391221,6.66212242 C8.71800442,6.54539373 8.53561951,6.48702938 8.31675749,6.48702938 C7.93739642,6.48702938 7.30269655,6.86638908 6.41265787,7.62510849 C5.52261852,8.38383473 5.07759884,9.09149089 5.07759884,9.74807697 C5.07759884,9.80641738 5.07759884,9.8647783 5.07759884,9.92315975 C5.09218736,9.98150016 5.11407356,10.0398645 5.14325745,10.0982528 C5.28916592,9.99611946 5.42048313,9.91586891 5.53720909,9.85750114 C5.66852631,9.79916073 5.79984352,9.76999053 5.93116074,9.76999053 C6.25215883,9.76999053 6.51479326,9.8867158 6.71906403,10.1201663 C6.92333548,10.3390284 7.0254712,10.6016628 7.0254712,10.9080696 C7.0254712,11.3457937 6.85767687,11.6886787 6.5220882,11.9367246 C6.20109079,12.1847705 5.84361627,12.3087934 5.44966462,12.3087934 C4.89521393,12.3087934 4.42830839,12.0899314 4.04894801,11.6522074 C3.68417751,11.199888 3.50179226,10.6746191 3.50179226,10.0764008 C3.50179226,8.98209066 4.06353824,7.94614146 5.18703019,6.96855319 C6.31052215,5.99097176 7.25892414,5.50947531 8.03223617,5.52406383 C8.23650763,5.52406383 8.43348345,5.56783623 8.62316364,5.65538104 C8.82743509,5.72833733 9.03170654,5.85236028 9.23597799,6.0274499 C9.49861242,6.26090045 9.68829262,6.47246821 9.80501857,6.6621532 C9.92174522,6.83724282 9.98010854,7.07069336 9.98010854,7.36250484 L9.98010854,17.8241165 L9.49861242,17.386389 C9.42565819,16.5109409 9.23597765,15.8981272 8.92957082,15.547948 C8.63775456,15.1977687 8.17084902,15.0226791 7.5288542,15.0226791 C6.94522168,15.0226791 6.29593089,15.0664515 5.58098184,15.1539963 C4.88062336,15.2415411 4.4501946,15.2853136 4.28969555,15.2853136 C2.96193283,15.2853136 1.91139511,14.9497263 1.13808239,14.2785517 C0.379360797,13.6073702 0,12.6662635 0,11.4552315 L0,11.45517 Z" id="mai-tagline" fill="#000000" fill-rule="nonzero"></path>
    </g>
</svg>