<svg viewBox="0 0 106 30" xmlns="http://www.w3.org/2000/svg"><path d="m89.072 26.408 2.555 1.62L89.974 30l-2.555-1.55 1.653-2.042zm-4.547 0 2.555 1.62L85.427 30l-2.555-1.55 1.653-2.042zm-21.756 0 2.556 1.62L63.67 30l-2.555-1.55 1.653-2.042zm-4.546 0 2.555 1.62L59.125 30l-2.555-1.55 1.653-2.042zm-18.15 0 2.556 1.62L40.976 30l-2.555-1.55 1.653-2.042zm-4.546 0 2.555 1.62L36.43 30l-2.555-1.55 1.653-2.042zm-21.606 0 2.555 1.62L14.823 30l-2.555-1.55 1.653-2.042zm-4.546 0 2.555 1.62L10.276 30l-2.555-1.55 1.654-2.042zm91.383-15.299c.5 0 .877.059 1.127.176.639.305 1.21.781 1.728 1.426.564.67 1.08 1.53 1.54 2.588.302.634.552 1.48.752 2.535l.038.282.056 1.162-.094 1.373-.056.51c-.15.916-.463 1.88-.94 2.906-.4.915-1.04 1.86-1.916 2.834-.45.563-1.1 1.09-1.935 1.567l-.6.3c-.502.187-1.11.281-1.823.281-.59 0-1.32-.112-2.199-.334-.463-.082-1.37-.387-2.724-.916l-.188-.07.414-.898 3.57-.018h.15c.138 0 .42-.064.845-.193.701-.235 1.46-.657 2.273-1.268.326-.246.87-.775 1.635-1.585.664-.786 1.18-1.5 1.54-2.13.214-.469.32-.827.32-1.074 0-.235-.063-.48-.188-.74-.6.377-1.54.559-2.818.547-.476 0-.87-.024-1.184-.07-.65-.036-1.27-.294-1.84-.776a1.642 1.642 0 0 1-.301-.281c-.338-.387-.576-.968-.714-1.743a2.555 2.555 0 0 1-.057-.493l-.037-.722c.025-.716.113-1.35.263-1.901.113-.54.445-1.13.995-1.778.125-.153.251-.282.376-.388.25-.282.626-.563 1.128-.845.338-.176.626-.264.864-.264zm-51.272 13.24 3.062 2.025-1.973 2.376-3.08-1.866 1.99-2.535zM89.24 9.719c.326.387.683.927 1.07 1.62.338.622.607 1.3.808 2.042.263.95.407 1.89.432 2.817.013.2.02.38.02.546 0 .41-.038.775-.114 1.091-.125.54-.37.992-.732 1.356-.401.387-.87.704-1.41.95-.525.235-1.19.352-1.99.353H82.59v-3.099h4.79c1.33 0 2.1-.194 2.312-.581l.037-.211-.056-.493c-.075-.27-.357-.892-.846-1.866-.514-1.03-.795-1.57-.845-1.62l1.259-2.905zM80.843.899v2.464l-10.654 4.42.451.37 4.134 3.133c1 .75 1.94 1.56 2.8 2.43.337.34 1.1 1.21 2.291 2.623l.282.317c.438.493.833.739 1.184.74h1.24v3.098H22.638c-.514 0-.983-.17-1.41-.51-.25-.189-.47-.488-.657-.899a4.212 4.212 0 0 1-.338-1.18l-.019-.299.038-.915c.025-.211.113-.428.263-.652.075-.093.225-.258.45-.493 0 .387.013.628.038.722.05.293.113.481.188.564.1.117.238.235.413.352.213.14.57.21 1.071.211h5.937c.714 0 1.2-.106 1.447-.317l.169-.264.056-.317c0-.153-.1-.493-.3-1.021a20.99 20.99 0 0 0-1.503-2.482c-1.13-1.43-2.29-2.54-3.476-3.31A96.67 96.67 0 0 1 26.15 6.62c.3.293.607.604.92.933 1.45 1.58 2.62 3.19 3.495 4.824.225.423.451.916.676 1.48l.846 2.306c.025.117.062.24.113.37.2.574.357.862.47.862h8.078v-.51c-.063-.635-.188-1.16-.376-1.585l-1.334-2.623c.075-.27.47-1.23 1.184-2.87a.644.644 0 0 1 .037-.088c.451.493.971 1.43 1.56 2.8l.32.862c.162.528.337 1.21.525 2.042l.263 1.338c.013.07.032.123.057.159.125.317.432.475.92.475h8.192v-.51c-.063-.635-.188-1.16-.376-1.585l-1.334-2.623c.075-.27.47-1.23 1.184-2.87a.644.644 0 0 1 .037-.088c.451.493.971 1.43 1.56 2.8l.319.862c.163.528.338 1.21.526 2.042l.263 1.338c.013.07.031.123.056.159.125.317.432.475.921.475h8.191v-.51c-.062-.635-.188-1.16-.375-1.585l-1.334-2.623c.075-.27.47-1.23 1.183-2.87a.645.645 0 0 1 .038-.088c.451.493.971 1.43 1.56 2.8l.319.862c.163.528.338 1.21.526 2.042l.263 1.338c.012.07.031.123.056.159.125.317.432.475.92.475h8.925c.751 0 1.16-.205 1.24-.616l-.019-.335c-.087-.399-.589-1.01-1.503-1.83l-.075-.071c-.764-.716-1.72-1.47-2.874-2.253h-1.128a6.814 6.814 0 0 1-1.033-.564l-2.01-1.479a683.21 683.21 0 0 1-.094-.528l-.094-1.144.056-.863c.188-.763.896-1.54 2.123-2.342.752-.364 1.63-.763 2.63-1.197L80.842.9zm-66.754 8.82c.327.387.684.927 1.071 1.62.338.622.607 1.3.808 2.042.263.95.407 1.89.432 2.817.013.2.02.38.02.546 0 .41-.038.775-.114 1.091-.125.54-.369.992-.732 1.356a5.026 5.026 0 0 1-1.41.95c-.525.235-1.19.352-1.99.353H7.438v-3.099h4.79c1.33 0 2.1-.194 2.311-.581l.038-.211-.056-.493c-.076-.27-.357-.892-.846-1.866-.514-1.03-.795-1.57-.845-1.62l1.259-2.905zM1.748.001l.15.317c.363.833.752 2.27 1.165 4.313.413 2.08.683 3.62.807 4.613.288 2.28.457 3.66.508 4.155l.357 2.623c.012.094.031.182.056.264.175.739.395 1.11.658 1.11h1.954v3.098H5.109c-.639-.012-1.15-.17-1.521-.476l-.094-.088c-.363-.376-.601-.734-.714-1.074a7.604 7.604 0 0 1-.376-1.46 77.358 77.358 0 0 1-.45-4.156 96.742 96.742 0 0 0-.452-3.873 11.097 11.097 0 0 0-.094-.634L.713 5.16a.488.488 0 0 1-.019-.123c-.1-.458-.332-1.02-.695-1.69L1.747.001zm99.066 13.556c-.564.21-.977.558-1.24 1.038-.025.06-.05.112-.075.159a4.99 4.99 0 0 0-.169 1.215l.019.44c.063.61.288 1.03.676 1.267a.238.238 0 0 0 .094.053 5.22 5.22 0 0 0 1.184.123c.889 0 1.59-.176 2.104-.528-.075-.48-.338-1.24-.789-2.27-.689-.999-1.29-1.5-1.804-1.497z" fill="#000" fill-rule="nonzero"/></svg>