<svg xmlns="http://www.w3.org/2000/svg" width="101" height="14"><path fill="#000" fill-rule="nonzero" d="M1.031 2.482v-.235H4.73v.235h-.312c-.352 0-.609.104-.77.312-.102.136-.153.463-.153.98v4.22c0 .65-.07 1.176-.213 1.579a2.452 2.452 0 0 1-.735 1.053c-.348.3-.768.449-1.26.449-.4 0-.713-.099-.942-.296C.114 10.582 0 10.356 0 10.1c0-.208.053-.365.16-.471a.693.693 0 0 1 .49-.197.56.56 0 0 1 .365.133c.108.09.245.327.41.713.098.23.223.344.376.344.115 0 .222-.07.322-.21.1-.14.15-.388.15-.745V3.774c0-.437-.028-.725-.083-.865a.57.57 0 0 0-.268-.274 1.17 1.17 0 0 0-.579-.153h-.312Zm9.286 2.565V8.58c0 .675.016 1.087.048 1.238.032.15.083.255.153.315.07.06.152.089.245.089.132 0 .28-.036.446-.108l.089.223-1.744.719h-.287V9.82c-.5.543-.882.885-1.145 1.025a1.75 1.75 0 0 1-.834.21c-.327 0-.61-.095-.85-.283a1.465 1.465 0 0 1-.5-.73c-.093-.296-.14-.716-.14-1.26V6.18c0-.276-.03-.466-.089-.573a.593.593 0 0 0-.264-.245c-.117-.057-.328-.083-.633-.08v-.235h2.043V8.95c0 .543.094.9.283 1.07.189.169.417.254.684.254.183 0 .39-.057.621-.172.231-.115.506-.333.824-.656V6.142c0-.33-.06-.555-.181-.671-.121-.117-.373-.18-.754-.188v-.236h1.985Zm-1.152-2.68c.191 0 .354.069.487.204.134.136.2.3.2.49 0 .191-.066.354-.2.487a.663.663 0 0 1-.487.2.673.673 0 0 1-.49-.2.658.658 0 0 1-.203-.486c0-.191.068-.355.203-.49a.668.668 0 0 1 .49-.204Zm-2.246 0c.195 0 .36.069.493.204.134.136.2.3.2.49 0 .191-.068.354-.203.487a.666.666 0 0 1-.484.2.673.673 0 0 1-.49-.2.658.658 0 0 1-.204-.486c0-.191.067-.355.2-.49a.658.658 0 0 1 .488-.204Zm11.724-.528c.445 0 .855.145 1.228.433.246.191.37.405.37.643a.509.509 0 0 1-.166.36.495.495 0 0 1-.357.168.572.572 0 0 1-.308-.105c-.109-.07-.241-.22-.398-.452-.157-.23-.301-.387-.433-.467a.824.824 0 0 0-.44-.121.793.793 0 0 0-.496.156c-.135.104-.233.265-.292.483-.06.219-.09.782-.09 1.69v.42h1.503v.459h-1.502v3.831c0 .543.059.887.178 1.031.157.187.367.28.63.28h.528v.23h-3.481v-.23h.26c.17 0 .325-.042.465-.127.14-.085.237-.2.29-.344.053-.144.08-.424.08-.84V5.506h-1.134v-.459h1.133v-.382c0-.58.094-1.073.28-1.476.187-.403.472-.729.856-.977a2.335 2.335 0 0 1 1.296-.373Zm2.4 3.036v1.312c.487-.874.988-1.312 1.501-1.312.234 0 .427.072.58.214.152.142.229.306.229.493a.583.583 0 0 1-.166.42.53.53 0 0 1-.394.172c-.149 0-.315-.073-.5-.22-.185-.146-.321-.22-.41-.22-.077 0-.16.043-.249.128-.19.174-.388.46-.592.86v2.793c0 .323.04.567.121.732a.66.66 0 0 0 .293.287c.14.076.342.114.605.114v.23h-2.986v-.23c.298 0 .518-.046.662-.14a.543.543 0 0 0 .223-.324c.021-.072.032-.278.032-.618v-2.26c0-.678-.014-1.082-.041-1.212a.475.475 0 0 0-.153-.283.43.43 0 0 0-.277-.089c-.132 0-.28.032-.446.096l-.063-.23 1.763-.713h.267Zm4.13-3.048a.62.62 0 0 1 .455.187.62.62 0 0 1 .188.456.63.63 0 0 1-.188.458.615.615 0 0 1-.455.19.625.625 0 0 1-.458-.19.625.625 0 0 1-.191-.458.62.62 0 0 1 .188-.456.627.627 0 0 1 .461-.187Zm.528 3.048V9.56c0 .365.027.608.08.729.053.12.131.21.235.27.104.06.294.09.57.09v.229h-2.832v-.23c.284 0 .475-.027.573-.082a.568.568 0 0 0 .232-.274c.057-.127.086-.371.086-.732V7.313c0-.632-.02-1.041-.058-1.228-.03-.136-.076-.23-.14-.283a.396.396 0 0 0-.26-.08c-.12 0-.264.032-.433.096l-.09-.23 1.757-.713h.28Zm10.42 3.113h-3.342l-.586 1.362c-.144.335-.216.586-.216.751 0 .132.063.247.188.347.125.1.396.164.811.194v.236H30.26v-.236c.36-.064.594-.146.7-.248.216-.204.456-.618.719-1.241l3.036-7.104h.223l3.004 7.18c.242.577.461.952.659 1.123.197.172.472.269.824.29v.236h-3.405v-.236c.343-.017.576-.074.697-.172a.443.443 0 0 0 .181-.356c0-.187-.085-.482-.254-.885l-.522-1.241Zm-.179-.471-1.464-3.488-1.502 3.488h2.966ZM35.95 0c.19 0 .353.068.487.204.133.135.2.299.2.49a.663.663 0 0 1-.2.487.663.663 0 0 1-.487.2.673.673 0 0 1-.49-.2.658.658 0 0 1-.204-.487c0-.191.068-.355.204-.49a.668.668 0 0 1 .49-.204Zm-2.247 0c.195 0 .36.068.493.204.134.135.2.299.2.49a.658.658 0 0 1-.203.487.666.666 0 0 1-.484.2.673.673 0 0 1-.49-.2.658.658 0 0 1-.203-.487c0-.191.066-.355.2-.49A.658.658 0 0 1 33.702 0Zm7.981 6.11c.684-.823 1.335-1.235 1.955-1.235.318 0 .591.08.82.24.23.158.412.42.548.785.093.255.14.645.14 1.171V9.56c0 .37.03.62.09.751a.523.523 0 0 0 .225.248c.104.06.296.09.576.09v.229h-2.883v-.23h.12c.272 0 .462-.041.57-.124a.65.65 0 0 0 .226-.366c.017-.063.026-.263.026-.598V7.173c0-.53-.07-.915-.207-1.155-.138-.24-.37-.36-.697-.36-.505 0-1.008.276-1.509.828V9.56c0 .395.024.639.07.732.06.123.142.213.246.27.104.058.315.086.633.086v.23h-2.883v-.23h.127c.297 0 .497-.075.601-.226.104-.15.156-.438.156-.862V7.396c0-.7-.016-1.127-.047-1.28-.032-.152-.081-.256-.147-.311a.398.398 0 0 0-.264-.083c-.119 0-.26.032-.426.096l-.096-.23 1.757-.713h.273V6.11Zm8.587-1.235v1.986h-.21c-.162-.623-.368-1.048-.62-1.273-.253-.225-.575-.337-.965-.337-.297 0-.537.079-.72.236-.182.157-.273.33-.273.521 0 .238.068.442.204.611.131.174.398.359.802.554l.929.452c.861.42 1.292.974 1.292 1.661 0 .53-.2.958-.602 1.283-.4.324-.85.487-1.346.487-.356 0-.764-.064-1.222-.191a1.243 1.243 0 0 0-.344-.064c-.097 0-.174.055-.229.166h-.21V8.885h.21c.12.594.346 1.042.681 1.343.336.302.711.452 1.127.452.293 0 .531-.086.716-.257a.818.818 0 0 0 .277-.621.987.987 0 0 0-.309-.738c-.206-.2-.616-.452-1.231-.758-.616-.305-1.019-.581-1.21-.827-.19-.242-.286-.548-.286-.917 0-.48.164-.88.493-1.203.329-.322.754-.484 1.276-.484a3 3 0 0 1 .834.147c.216.064.36.095.433.095.068 0 .12-.014.159-.044a.611.611 0 0 0 .134-.198h.21Zm2.781-3.048a.62.62 0 0 1 .455.187.62.62 0 0 1 .188.456.63.63 0 0 1-.188.458.615.615 0 0 1-.455.19.625.625 0 0 1-.458-.19.625.625 0 0 1-.191-.458.62.62 0 0 1 .188-.456.627.627 0 0 1 .461-.187Zm.528 3.048V9.56c0 .365.027.608.08.729.053.12.132.21.235.27.104.06.294.09.57.09v.229h-2.832v-.23c.284 0 .475-.027.573-.082a.568.568 0 0 0 .232-.274c.057-.127.086-.371.086-.732V7.313c0-.632-.02-1.041-.057-1.228-.03-.136-.077-.23-.14-.283a.396.396 0 0 0-.261-.08c-.12 0-.263.032-.433.096l-.09-.23 1.757-.713h.28Zm3.087-3.048a.62.62 0 0 1 .455.187.62.62 0 0 1 .188.456.63.63 0 0 1-.188.458.615.615 0 0 1-.455.19.625.625 0 0 1-.458-.19.625.625 0 0 1-.19-.458.62.62 0 0 1 .187-.456.627.627 0 0 1 .461-.187Zm.529 3.048V9.56c0 .365.026.608.08.729.052.12.13.21.235.27.104.06.294.09.57.09v.229h-2.833v-.23c.284 0 .475-.027.573-.082a.568.568 0 0 0 .232-.274c.057-.127.086-.371.086-.732V7.313c0-.632-.019-1.041-.057-1.228-.03-.136-.077-.23-.14-.283a.396.396 0 0 0-.261-.08c-.119 0-.263.032-.433.096l-.09-.23 1.758-.713h.28Zm3.328-3.048V7.63l1.483-1.355c.314-.289.497-.471.548-.548a.274.274 0 0 0 .05-.152.283.283 0 0 0-.104-.22c-.07-.061-.186-.096-.347-.105v-.204h2.533v.204c-.348.008-.637.062-.869.16-.231.097-.484.27-.76.521L61.56 7.313l1.496 1.89c.416.523.696.853.84.994.204.199.382.328.535.388.106.042.29.063.553.063v.23h-2.832v-.23c.161-.004.27-.028.328-.073a.224.224 0 0 0 .086-.188c0-.097-.085-.254-.255-.47L60.523 7.63v1.935c0 .378.027.626.08.745a.506.506 0 0 0 .226.255c.098.05.31.078.636.082v.23H58.5v-.23c.297 0 .52-.036.669-.108a.46.46 0 0 0 .203-.216c.064-.14.096-.382.096-.726V4.29c0-.675-.015-1.087-.045-1.238-.03-.15-.078-.255-.146-.312a.4.4 0 0 0-.267-.086c-.09 0-.223.036-.401.108l-.109-.222 1.732-.713h.292Zm6.798 0V9.56c0 .365.027.607.08.726a.564.564 0 0 0 .245.27c.11.062.316.092.617.092v.23h-2.858v-.23c.268 0 .45-.027.548-.082a.552.552 0 0 0 .229-.274c.055-.127.083-.371.083-.732V4.265c0-.658-.015-1.062-.045-1.213-.03-.15-.077-.254-.143-.309a.378.378 0 0 0-.252-.082c-.11 0-.25.034-.42.101l-.108-.222 1.738-.713h.286Zm4.462 3.048c.883 0 1.591.336 2.126 1.006.454.573.68 1.23.68 1.973 0 .522-.124 1.05-.375 1.585-.25.535-.595.938-1.034 1.21-.44.271-.928.407-1.467.407-.878 0-1.576-.35-2.094-1.05a3.254 3.254 0 0 1-.656-1.986c0-.535.133-1.066.398-1.595.265-.528.614-.918 1.047-1.17a2.686 2.686 0 0 1 1.375-.38Zm-.197.414c-.225 0-.451.067-.678.2-.227.134-.41.369-.55.704-.14.335-.21.766-.21 1.292 0 .849.168 1.58.505 2.196.337.615.782.923 1.334.923.411 0 .75-.17 1.018-.51.267-.339.401-.922.401-1.75 0-1.035-.223-1.85-.668-2.444-.302-.407-.686-.61-1.152-.61Zm3.443.338 1.795-.726h.242v1.362c.301-.513.603-.873.907-1.079a1.68 1.68 0 0 1 .958-.309c.585 0 1.073.23 1.464.688.48.56.719 1.29.719 2.19 0 1.005-.289 1.837-.866 2.494a2.291 2.291 0 0 1-1.795.809c-.314 0-.585-.045-.814-.134-.17-.064-.361-.19-.573-.382v1.776c0 .399.024.652.073.76a.544.544 0 0 0 .255.258c.12.064.34.096.658.096v.235h-3.055v-.235h.16c.233.004.432-.04.598-.134a.458.458 0 0 0 .187-.226c.045-.104.067-.368.067-.792V6.766c0-.378-.017-.618-.05-.72a.433.433 0 0 0-.163-.228.527.527 0 0 0-.302-.077c-.102 0-.232.03-.389.09l-.076-.204Zm2.037 1.012v2.176c0 .471.019.781.057.93.06.246.205.462.436.649s.523.28.875.28c.425 0 .768-.166 1.031-.497.344-.432.516-1.041.516-1.826 0-.891-.195-1.577-.586-2.056-.271-.331-.594-.497-.967-.497-.204 0-.405.051-.605.153-.153.077-.405.306-.757.688Zm5.88.604c-.003.866.207 1.545.631 2.037.424.492.923.738 1.496.738.382 0 .714-.105.996-.315.282-.21.519-.57.71-1.079l.197.128c-.09.581-.348 1.11-.777 1.588a2.074 2.074 0 0 1-1.61.716c-.7 0-1.3-.273-1.798-.818-.499-.545-.748-1.278-.748-2.2 0-.996.256-1.774.767-2.332.511-.558 1.153-.837 1.925-.837.654 0 1.19.215 1.61.646.42.43.63 1.007.63 1.728h-4.028Zm0-.369h2.7c-.022-.373-.066-.636-.134-.79a1.264 1.264 0 0 0-.474-.56 1.196 1.196 0 0 0-.659-.203c-.352 0-.667.137-.945.41-.278.274-.44.655-.487 1.143Zm8.918 3.348c-.284.297-.562.51-.834.64-.271.13-.564.194-.878.194-.637 0-1.192-.266-1.668-.799-.475-.533-.713-1.217-.713-2.053 0-.836.264-1.6.79-2.294s1.203-1.04 2.03-1.04c.514 0 .938.162 1.273.49V4.283c0-.667-.016-1.076-.048-1.229-.031-.153-.081-.257-.15-.312a.391.391 0 0 0-.254-.083c-.11 0-.257.034-.439.102l-.083-.222 1.738-.713h.286v6.74c0 .683.016 1.1.048 1.25.032.151.083.256.153.316.07.06.151.089.245.089.114 0 .267-.036.458-.108l.07.222-1.731.72h-.293v-.834Zm0-.446V6.772a2.031 2.031 0 0 0-.23-.789 1.322 1.322 0 0 0-.505-.538 1.228 1.228 0 0 0-.614-.181c-.374 0-.707.167-1 .503-.386.44-.579 1.086-.579 1.934 0 .858.187 1.514.56 1.97.374.457.79.685 1.248.685.386 0 .76-.193 1.12-.58Zm3.883-7.95a.62.62 0 0 1 .455.188.62.62 0 0 1 .187.456.63.63 0 0 1-.187.458.615.615 0 0 1-.455.19.625.625 0 0 1-.459-.19.625.625 0 0 1-.19-.458.62.62 0 0 1 .187-.456.627.627 0 0 1 .462-.187Zm.528 3.05V9.56c0 .365.026.608.08.729.053.12.131.21.235.27.104.06.294.09.57.09v.229h-2.833v-.23c.285 0 .476-.027.573-.082a.568.568 0 0 0 .232-.274c.058-.127.086-.371.086-.732V7.313c0-.632-.019-1.041-.057-1.228-.03-.136-.076-.23-.14-.283a.396.396 0 0 0-.26-.08c-.12 0-.264.032-.434.096l-.089-.23 1.757-.713h.28Zm3.087-3.05a.62.62 0 0 1 .455.188.62.62 0 0 1 .188.456.63.63 0 0 1-.188.458.615.615 0 0 1-.455.19.625.625 0 0 1-.458-.19.625.625 0 0 1-.191-.458.62.62 0 0 1 .187-.456.627.627 0 0 1 .462-.187Zm.528 3.05V9.56c0 .365.027.608.08.729.053.12.131.21.235.27.104.06.294.09.57.09v.229h-2.832v-.23c.284 0 .475-.027.572-.082a.568.568 0 0 0 .233-.274c.057-.127.086-.371.086-.732V7.313c0-.632-.02-1.041-.058-1.228-.03-.136-.076-.23-.14-.283a.396.396 0 0 0-.26-.08c-.12 0-.264.032-.433.096l-.09-.23 1.757-.713h.28Z"/></svg>