<svg xmlns="http://www.w3.org/2000/svg" width="120" height="14"><path fill="#000" fill-rule="nonzero" d="M4.214 1.06c1.95 0 3.427 1.52 3.427 4.502 0 2.566-1.233 4.1-2.867 4.1-1.72 0-3.398-1.591-3.398-4.344 0-3.01 1.534-4.257 2.838-4.257M9.017 5.29C9.017 2.45 6.909.573 4.4.573 1.835.573 0 2.753 0 5.562c0 2.824 2.021 4.587 4.487 4.587 2.738 0 4.53-1.992 4.53-4.86m6.293 3.412c-.057-.129-.172-.186-.3-.2-.488.63-1.105.946-1.721.946-1.046 0-1.92-1.061-1.92-2.738 0-1.577.687-2.523 1.633-2.523.846 0 .96.502 1.018 1.003.043.387.244.516.545.516.3 0 .702-.186.702-.63 0-.789-.817-1.362-2.193-1.362-1.42 0-2.939 1.276-2.939 3.311 0 1.85 1.032 3.125 2.839 3.125.86 0 1.62-.272 2.336-1.448m2.764-2.78c0-.316.13-.488.244-.617.545-.53 1.176-.846 1.749-.846.287 0 .588.2.76.516.143.287.172.674.172 1.104v2.179c0 1.175-.144 1.233-.889 1.304-.072.086-.072.387 0 .473.602-.014.889-.028 1.462-.028.588 0 .903.014 1.52.028.071-.086.071-.387 0-.473-.803-.071-.96-.129-.96-1.304V6.121c0-.788-.058-1.476-.388-1.92-.244-.316-.688-.488-1.19-.488-.716 0-1.476.186-2.35 1.16-.058.058-.144.202-.144 0l.014-3.224c0-.932.058-1.506.058-1.506 0-.1-.058-.143-.187-.143-.358.143-1.433.344-2.007.387-.028.115 0 .344.087.43.745.043.917-.029.917 1.176v6.264c0 1.19-.172 1.247-1.004 1.304-.086.086-.086.387 0 .473.588-.014.96-.028 1.577-.028.56 0 .803.014 1.405.028.086-.086.086-.387 0-.473-.717-.057-.846-.114-.846-1.304V5.92m6.512-4.5c0 .372.344.745.688.745.402 0 .746-.373.746-.688 0-.345-.301-.746-.689-.746-.344 0-.745.344-.745.688m1.305 6.838V5.404c0-.716.057-1.634.057-1.634 0-.057-.072-.1-.186-.1-.416.157-.975.286-1.964.415-.029.086 0 .316.028.402.774.086.932.158.932.975v2.795c0 1.19-.158 1.233-1.032 1.304-.086.086-.086.387 0 .473.602-.014.975-.028 1.605-.028.617 0 .975.014 1.592.028.086-.086.086-.387 0-.473-.875-.057-1.032-.114-1.032-1.304m5.913-3.526c.286.315.344.53.344.874v3.297c0 .258-.015.33-.201.43-.344.172-.731.186-.946.186-.832 0-2.079-.602-2.079-2.766 0-1.491.602-2.552 1.75-2.552.43 0 .816.187 1.132.53m.344 6.867c0 1.19-.158 1.247-1.033 1.29-.086.086-.086.387 0 .473.603-.014.975-.028 1.606-.028.616 0 .975.014 1.591.028.086-.086.086-.387 0-.473-.874-.043-1.032-.1-1.032-1.29V4.028c0-.2-.057-.358-.215-.358-.1 0-.186.114-.301.272-.186.258-.244.301-.416.2-.458-.3-1.018-.43-1.62-.43-1.748 0-3.039 1.434-3.039 3.326 0 1.334.903 3.111 2.968 3.111.387 0 .845-.072 1.104-.215.33-.2.387-.23.387.072v1.591m9.76-6.766h-1.304V1.964c0-.344.172-.63.516-.63h1.505c1.075 0 1.305.573 1.62 1.562.172.028.33 0 .473-.072a50.32 50.32 0 0 0-.315-2.079c0-.028-.015-.043-.058-.043a3.22 3.22 0 0 1-.702.058h-3.656S38.855.745 38.138.73c-.086.086-.086.387 0 .473 1.004.043 1.247.115 1.247 1.305v5.748c0 1.19-.243 1.261-1.247 1.304-.086.086-.086.387 0 .473.703-.014 1.864-.028 1.864-.028h3.082c.688 0 1.835.028 1.835.028.2-.716.415-1.662.53-2.393-.158-.072-.315-.115-.502-.072-.286 1.032-.788 1.878-1.878 1.878h-1.95c-.314 0-.515-.23-.515-.617V5.376h1.304c1.219 0 1.262.33 1.305.974.086.086.387.086.473 0-.014-.501-.029-.774-.029-1.261 0-.487.015-.803.029-1.233-.086-.086-.387-.086-.473 0-.043.789-.086.975-1.305.975m6.592.043c-.043.057-.143.2-.143 0 0-.43.071-1.09.071-1.09 0-.071-.057-.114-.172-.114-.401.157-.989.286-1.978.415-.029.086 0 .316.029.402.774.072.931.143.931.975v2.795c0 1.175-.143 1.233-1.003 1.304-.086.086-.086.387 0 .473.588-.014.96-.028 1.577-.028.559 0 .817.014 1.42.028.085-.086.085-.387 0-.473-.732-.071-.861-.129-.861-1.304V5.906c0-.301.129-.473.244-.602.544-.53 1.103-.846 1.663-.846.286 0 .587.187.76.516.143.287.171.674.171 1.104v2.179c0 1.175-.143 1.233-.888 1.304-.072.086-.072.387 0 .473.602-.014.888-.028 1.462-.028.587 0 .903.014 1.52.028.07-.086.07-.387 0-.473-.804-.071-.961-.129-.961-1.304V6.121c0-.788-.058-1.476-.387-1.92-.244-.316-.688-.488-1.19-.488-.703 0-1.39.186-2.265 1.16m5.722 3.155c.057.702.1 1.376.1 1.978.144-.029.287-.043.359-.043.1 0 .186 0 .286.028.387.1.774.158 1.305.158.803 0 2.279-.387 2.279-1.806 0-.975-.717-1.534-1.677-1.907-.86-.33-1.434-.544-1.434-1.333 0-.587.516-.917 1.004-.917.315 0 1.147.114 1.333 1.333.086.086.373.072.459-.014 0-.516.071-1.047.086-1.52-.445-.072-1.133-.272-1.878-.272-1.061 0-2.021.688-2.021 1.605 0 1.047.473 1.491 1.576 1.95 1.176.502 1.463.788 1.463 1.405 0 .702-.688 1.003-1.219 1.003-.559 0-.874-.186-1.018-.344-.344-.33-.473-.96-.559-1.319-.086-.086-.358-.071-.444.015m6.09-6.609c0 .373.344.746.688.746.401 0 .745-.373.745-.688 0-.345-.301-.746-.688-.746-.344 0-.745.344-.745.688m1.304 6.838V5.404c0-.716.057-1.634.057-1.634 0-.057-.071-.1-.186-.1-.416.157-.975.286-1.964.415-.029.086 0 .316.029.402.774.086.932.158.932.975v2.795c0 1.19-.158 1.233-1.033 1.304-.086.086-.086.387 0 .473.603-.014.975-.028 1.606-.028.616 0 .975.014 1.591.028.086-.086.086-.387 0-.473-.874-.057-1.032-.114-1.032-1.304m2.53 0c0 1.19-.158 1.247-.96 1.304-.087.086-.087.387 0 .473.602-.014.931-.028 1.533-.028.502 0 .688.014 1.305.028.086-.086.086-.387 0-.473-.588-.057-.746-.114-.746-1.304v-1.29c.33.014.53.114.818.516l1.046 1.476c.287.416.33.588.33.774v.23c0 .043.014.071.057.071.287-.014.56-.028.99-.028.444 0 .745.014 1.175.028.086-.086.086-.387 0-.473-.488-.057-.918-.114-1.233-.602l-1.677-2.48a.343.343 0 0 1-.072-.2c0-.058.014-.1.057-.144l1.09-1.204c.415-.43.86-.602 1.577-.63.086-.087.086-.388 0-.474-.53.015-.732.03-1.248.03-.544 0-.788-.015-1.318-.03-.086.086-.086.387 0 .473.86.044.401.588.258.732-.76.831-1.477 1.462-1.85 1.576v-4.96c0-.931.058-1.505.058-1.505 0-.1-.058-.143-.187-.143-.358.143-1.433.344-2.007.387-.028.115 0 .344.087.43.745.043.917-.029.917 1.176v6.264m7.044 0c0 1.19-.157 1.261-1.032 1.304-.086.086-.086.387 0 .473.602-.014.975-.028 1.606-.028.616 0 .975.014 1.591.028.086-.086.086-.387 0-.473-.874-.043-1.032-.114-1.032-1.304V1.649c0-.932.057-1.506.057-1.506 0-.1-.057-.143-.186-.143-.358.143-1.434.344-2.007.387-.029.115 0 .344.086.43.745.043.917-.029.917 1.176v6.264m3.006-1.19c0 1.462.99 3.082 3.01 3.082 2.136 0 3.04-1.777 3.04-3.21 0-1.492-.789-3.226-3.01-3.226-1.936 0-3.04 1.534-3.04 3.354m2.881-2.881c1.233 0 1.936 1.104 1.936 3.21 0 1.893-.875 2.28-1.549 2.28-1.49 0-2.035-1.835-2.035-2.939 0-1.247.444-2.551 1.648-2.551m6.264 1.018c.444-.46 1.017-.832 1.447-.832.918 0 1.706 1.032 1.706 2.652 0 1.176-.416 2.638-2.021 2.638-.258 0-.76-.072-1.018-.301-.3-.258-.344-.33-.344-.86V5.834c0-.3.043-.43.23-.63m-.115-.473c-.058.057-.144.071-.144-.043 0-.517.058-.918.058-.918 0-.057-.072-.1-.187-.1-.4.157-.946.286-1.935.415-.028.086 0 .316.029.402.774.072.932.158.932.975v6.12c0 1.19-.158 1.262-1.032 1.305-.086.086-.086.387 0 .473.602-.014.974-.028 1.605-.028.674 0 1.118.014 1.735.028.086-.086.086-.387 0-.473-1.018-.057-1.176-.115-1.176-1.304v-1.549c0-.186.043-.157.2-.1.345.143.79.215 1.248.215.803 0 1.52-.244 2.107-.803.674-.659 1.061-1.548 1.061-2.709 0-1.52-1.075-2.924-2.537-2.924-.53 0-1.32.358-1.964 1.018m6.943 1.232c.272-1.62 1.276-1.749 1.62-1.749.544 0 1.19.302 1.19 1.506 0 .129-.058.2-.215.2l-2.595.043m3.756 2.71c-.53.544-.946.774-1.778.774-.516 0-1.118-.301-1.562-1.032-.287-.473-.46-1.133-.46-1.964l3.814.028c.172 0 .272-.086.272-.243 0-1.204-.43-2.495-2.422-2.495-1.247 0-2.867 1.19-2.867 3.37 0 .802.2 1.576.673 2.12.488.574 1.162.918 2.194.918 1.09 0 1.863-.502 2.437-1.247-.043-.143-.13-.215-.301-.23m5.907-.444c0 .273-.028.387-.229.56-.53.458-.989.687-1.347.687-.774 0-1.577-.845-1.577-2.637 0-1.032.2-1.606.415-1.907.445-.674 1.047-.717 1.334-.717.516 0 .874.187 1.16.517.201.229.244.33.244.774v2.723m-.157 1.061c.057-.057.172-.086.172.014 0 .344.157.846.157.846.115.043.158.029.273 0 .315-.258.86-.473 1.734-.573.086-.086.086-.301 0-.387-.917-.072-1.046-.344-1.046-1.047V1.65c0-.932.057-1.506.057-1.506 0-.1-.057-.143-.186-.143-.358.143-1.434.344-2.007.387-.029.115 0 .344.086.43.745.043.917-.029.917 1.176v1.834c0 .1-.028.13-.129.13-.057 0-.645-.244-1.118-.244-.946 0-1.577.315-2.15.86-.616.616-.989 1.462-.989 2.523 0 1.763.889 3.053 2.437 3.053.559 0 1.09-.287 1.792-.86m3.754-7.87c0 .373.344.746.688.746.401 0 .745-.373.745-.688 0-.345-.301-.746-.688-.746-.344 0-.745.344-.745.688m1.304 6.838V5.404c0-.716.057-1.634.057-1.634 0-.057-.071-.1-.186-.1-.416.157-.975.286-1.964.415-.029.086 0 .316.029.402.774.086.932.158.932.975v2.795c0 1.19-.158 1.233-1.033 1.304-.086.086-.086.387 0 .473.602-.014.975-.028 1.606-.028.616 0 .975.014 1.591.028.086-.086.086-.387 0-.473-.874-.057-1.032-.114-1.032-1.304m4.279 4.042c.215-.387.401-.802.588-1.232 1.146-2.753 1.777-4.244 2.537-5.85.2-.415.63-.873 1.16-.917.087-.086.087-.387 0-.473-.357.015-.615.03-1.017.03-.502 0-.774-.015-1.304-.03-.086.086-.086.387 0 .473.444.044.903.13.688.646l-1.434 3.282c-.1.244-.215.273-.344-.014l-1.261-2.982c-.258-.602-.416-.86.458-.932.086-.086.086-.387 0-.473-.53.015-1.103.03-1.62.03-.487 0-.874-.015-1.16-.03-.087.086-.087.387 0 .473.63.058.745.173 1.132 1.076l1.62 3.77c.129.3.344.946.2 1.347-.157.488-.344.875-.559 1.319-.157.287-.358.416-.716.416-.201 0-.258-.043-.416-.043-.416 0-.63.43-.63.616 0 .301.286.53.673.53.301 0 .874-.114 1.39-1.032h.015m8.666-5.633v1.906c0 .187-.086.287-.201.373-.373.301-.86.616-1.261.616-.717 0-1.033-.573-1.033-1.017 0-.645.301-1.29 1.362-1.577l1.133-.301m0 2.652c.086.3.33.831 1.104.831.702 0 1.218-.573 1.218-.645 0-.1-.129-.244-.186-.244-.086 0-.144.23-.445.23-.559 0-.573-.56-.573-1.219V6.135c0-2.035-1.118-2.422-2.165-2.422-1.175 0-2.365.817-2.365 1.59 0 .345.172.503.502.503.415 0 .63-.287.63-.473 0-.1-.014-.201-.043-.258a.99.99 0 0 1-.028-.287c0-.444.645-.602 1.19-.602.487 0 1.16.244 1.16 1.863 0 .1-.042.158-.085.172l-1.233.301c-1.376.344-2.365 1.104-2.365 2.079 0 1.132.802 1.548 1.806 1.548.66 0 .932-.115 1.562-.602l.287-.23h.029"/></svg>