<?xml version="1.0" encoding="UTF-8"?>
<svg xmlns="http://www.w3.org/2000/svg" width="50" height="50" viewBox="0 0 50 50">
	<title>
		wikibooks-logo
	</title>
	<g id="wikibooks-logo" fill="none" fill-rule="evenodd" stroke="none" stroke-width="1" transform="translate(0 .5)">
		<path id="path3297" fill="#FDFCF8" d="M23.6281001,16.6520963 C24.5021037,27.5879126 26.4102229,38.174596 32.1080069,48.3682927 L34.2628225,48.384372 L47.8926354,36.2239962 L34.9014902,3.3963597 L25.5368023,12.3417324 L23.6281001,16.6520963 Z"/>
		<path id="path3214" fill="#F4EED7" d="M12.7270807,16.6635512 C13.6010843,27.5993676 15.8373132,38.3256117 21.5350973,48.5193084 L24.903125,48.5495721 L35.1668696,35.6771434 L24.0004709,3.40781544 L14.635783,12.3531881 L12.7270807,16.6635512 Z"/>
		<path id="path2238" fill="#E9DDAF" d="M0.201882409,16.4294642 C1.09241279,27.9048722 4.67636922,38.1832004 8.89064384,48.1813884 L13.3298599,48.1265718 L24.9902724,34.8699977 L11.4752737,3.17372909 L2.11058596,12.1191018 L0.201882409,16.4294642 Z"/>
		<path id="path3272" fill="#5F96D3" fill-rule="nonzero" d="M35.4988401,0.175980988 C30.9958932,4.53235367 26.5445133,8.85080854 26.5445133,8.85080854 C26.5445133,8.85080854 28.14387,12.1064568 28.14387,12.1064568 C30.312547,9.95638736 32.4935039,8.06554592 34.572352,5.96264996 C38.9504708,15.5749717 41.9335878,23.3225194 45.6029943,33.5642502 C46.8042546,36.8914056 46.5593222,37.0402731 43.6879071,38.8385039 C39.0743465,41.1327528 37.6138202,42.6375799 32.1152184,48.4879382 L35.878106,48.4879382 C40.4748852,44.3320524 42.1812117,42.8653763 47.9373304,39.8322789 C49.9735571,38.656663 50.2527549,37.1725114 49.4176411,34.863404 C46.7243154,27.3775007 40.8892164,11.2437548 35.4988401,0.175980988 Z"/>
		<path id="path3138" fill="#2A62A1" d="M23.759873,0.279499217 C20.4659114,2.50296344 17.9249778,5.70293482 15.0591659,8.44708744 C15.0591659,8.44708744 16.2340978,12.1944473 16.2340978,12.1944473 C18.4769105,10.4270738 20.4287508,8.29612358 22.4451915,6.27838056 L33.3197814,33.5554338 C33.9468103,35.4023132 32.9593028,37.0456378 30.9750935,38.8348634 C28.5984409,40.7450165 23.7052038,45.1984287 21.4876479,48.5914565 L24.8623421,48.5914565 C28.4042639,44.9532578 29.0436835,44.4594295 33.0765136,40.9673389 C35.7839442,38.2049028 38.2298994,36.7900521 36.9532712,33.250055 L23.759873,0.279499217 Z"/>
		<path id="path3136" fill="#15304F" d="M12.6420152,0.103518228 C11.7639571,0.398205309 11.0334066,0.964461116 10.3490865,1.56312525 C1.05918543,10.5024646 0.68565986,10.8797658 0.68565986,10.8797658 C0.196811175,11.3340439 0.155980439,11.9981519 0.162892806,12.6654553 L0.201882574,16.4294642 C0.201882574,16.4294642 4.49237758,12.2586376 10.8977331,6.09204775 C14.3458706,15.0753894 17.9445121,24.0108858 21.4876479,32.9602039 C21.9728585,34.3122895 20.8115115,35.4203602 19.3396446,36.8990725 C17.3067868,38.8822466 13.0549023,42.9646378 8.70314666,48.4154755 L13.06644,48.4154755 C13.06644,48.4154755 23.5528349,36.9146003 23.5528365,36.9146003 C24.5498049,35.5435336 25.7893586,34.2030521 25.2660632,32.9602039 C25.2660632,32.9602039 12.6420152,0.103518228 12.6420152,0.103518228 Z"/>
	</g>
</svg>
