<?xml version="1.0" encoding="UTF-8"?>
<svg width="120px" height="14px" viewBox="0 0 120 14" version="1.1" xmlns="http://www.w3.org/2000/svg" xmlns:xlink="http://www.w3.org/1999/xlink">
    <title>fiu-vro-tagline</title>
    <g id="Page-1" stroke="none" stroke-width="1" fill="none" fill-rule="evenodd">
        <path d="M4.33563191,10.0564372 C4.30308715,10.0329745 4.24877479,9.95876925 4.21494687,9.89165902 C4.18112232,9.82452633 3.49993208,8.07322754 2.70120014,5.99993881 C1.06979831,1.76525813 1.10563459,1.85522492 0.949196343,1.60151274 C0.785787742,1.33648456 0.576718808,1.21676834 0.216886468,1.18214673 C0.0802602176,1.16901207 0.0521599106,1.15733682 0.0277530241,1.10378784 C-0.0045110814,1.0329505 -0.0102252184,0.811053385 0.0189965863,0.766013862 C0.0469273777,0.723017507 3.23852547,0.722007149 3.26584556,0.765003503 C3.29484284,0.810581885 3.28999312,1.06545036 3.25899757,1.12329898 C3.2414847,1.15596723 3.20440455,1.17381689 3.15354986,1.17381689 C3.01343338,1.17381689 2.67913504,1.25464554 2.55117766,1.31952177 C2.47816244,1.35656823 2.40982406,1.41471996 2.38658918,1.45962477 C2.33266974,1.56391619 2.33628457,1.81358693 2.39444753,1.9997735 C2.42060458,2.08352097 2.96854429,3.49917876 3.6120897,5.14562482 C4.51238286,7.4489272 4.79216452,8.1391478 4.82551307,8.1391478 C4.85880999,8.1391478 5.1395223,7.4519695 6.03634768,5.17504869 C6.67846737,3.54480204 7.22202437,2.15075469 7.24425225,2.07717816 C7.26648013,2.00364654 7.28530647,1.86121971 7.28609231,1.7607901 C7.28766397,1.5546209 7.24357868,1.44380705 7.12673861,1.36060967 C7.01854047,1.28359792 6.76263807,1.20457668 6.55775314,1.18499818 C6.44153949,1.17377198 6.36578171,1.15311577 6.34477187,1.12662193 C6.31095855,1.08407463 6.30142751,0.890377731 6.32821322,0.79046453 L6.34355944,0.733210898 L7.75614462,0.734333519 C8.78858814,0.735220389 9.17388824,0.743314481 9.1878963,0.765430099 C9.21671396,0.81044717 9.21169585,1.06552894 9.18082379,1.12314181 C9.16597152,1.15087053 9.13322469,1.17365972 9.10804432,1.17365972 C9.00925374,1.17365972 8.74226658,1.2570704 8.56632842,1.34299576 C8.34874553,1.44919563 8.19372964,1.60366817 8.04227133,1.86524991 C7.90305407,2.10568149 8.01128701,1.84425692 6.29843572,6.07704037 C5.4712925,8.12106239 4.77332807,9.83500037 4.7474034,9.88579894 C4.7214821,9.93654137 4.6764538,9.99968876 4.64734426,10.0260142 C4.57243181,10.0937082 4.40942848,10.1096494 4.33553649,10.056325 L4.33553649,10.056325 L4.33563191,10.0564372 Z M11.0922801,10.0286973 C10.6943583,9.95673731 10.2972797,9.75600159 10.1197643,9.53716923 C9.91465482,9.28431024 9.81097635,8.95483243 9.81117365,8.55650432 C9.81152531,7.84490903 10.2755155,7.26775875 11.2049631,6.82279699 C11.5959986,6.63558884 11.7654469,6.58147855 12.6405855,6.36435257 C13.2358347,6.21667188 13.3886761,6.16984739 13.4278297,6.12313516 C13.471466,6.07104558 13.4745644,6.03590757 13.4582527,5.77819887 C13.4155932,5.10405419 13.3027698,4.71935469 13.0753842,4.47267012 C12.7615636,4.13221308 12.3682727,4.05292241 11.7290628,4.20120932 C11.38533,4.28091536 11.2240555,4.38876548 11.1371097,4.59689927 C11.0853793,4.72073551 11.0859294,4.83955364 11.1392426,5.06039549 C11.1956543,5.2941138 11.1739204,5.39992075 11.0395203,5.54571544 C10.9196626,5.67574854 10.7558319,5.73906432 10.5392324,5.73906432 C10.226778,5.73906432 10.0615036,5.5492966 10.0852235,5.21777562 C10.1317336,4.56781218 10.9684697,3.90219942 11.9574925,3.72842904 C12.2112664,3.68386101 12.7877779,3.6832997 12.9879433,3.72736255 C13.3981892,3.81773348 13.8284053,4.05167631 14.0531674,4.30647742 C14.2712072,4.55364472 14.4162699,4.92129162 14.5052016,5.45210014 C14.5382403,5.64931084 14.5506228,6.02763385 14.5658231,7.30431126 C14.5789915,8.4104402 14.5946183,8.94489724 14.6161277,9.0252993 C14.6884132,9.29537928 14.8559957,9.42732084 15.1263205,9.42695037 C15.3008205,9.42672585 15.3726447,9.39798677 15.5006728,9.27729387 L15.5872717,9.19567938 L15.6637109,9.28088625 C15.7754004,9.40536238 15.7637813,9.46947523 15.6031904,9.61480964 C15.1570948,10.0185488 14.6572313,10.1529938 14.1559432,10.0040782 C13.8773639,9.92134109 13.6080462,9.6564364 13.5036594,9.3625232 C13.4787147,9.29224717 13.4507839,9.23481392 13.4416009,9.23481392 C13.4323954,9.23481392 13.321622,9.31743877 13.1953923,9.41841846 C12.7175984,9.80063697 12.4025867,9.97216211 12.0693167,10.0315824 C11.8132447,10.077273 11.3528346,10.0759259 11.0922778,10.0282145 L11.0922778,10.0282145 L11.0922801,10.0286973 Z M12.4497031,9.40729329 C12.7729492,9.26831291 13.3017202,8.90362972 13.4086587,8.74593526 C13.4540238,8.67902709 13.458054,8.60001708 13.465149,7.63692118 C13.4693027,7.0665852 13.4669452,6.59994565 13.4597604,6.59994565 C13.409714,6.59994565 12.1690693,6.94792424 12.0227504,7.00299999 C11.3186014,7.26806185 10.941767,7.80548261 10.9710023,8.50295534 C10.9794219,8.70500453 10.9949478,8.78143251 11.0527964,8.90686287 C11.2476799,9.32939467 11.5419916,9.50304157 12.0357907,9.48685339 C12.2361436,9.48011766 12.3154455,9.46507455 12.4497502,9.40725961 L12.4497502,9.40725961 L12.4497031,9.40729329 Z M16.9864775,10.054989 C16.8810859,9.99784766 16.8652525,9.94755428 16.8916722,9.75405945 C16.9050426,9.65616697 16.9121039,7.79031601 16.9080512,5.42356313 C16.9014278,1.52927213 16.8980599,1.25650909 16.8549064,1.1300796 C16.7743472,0.893824175 16.6316756,0.816441962 16.2280476,0.790071613 C16.0094083,0.775814336 15.9967508,0.771660641 15.9606518,0.701833663 C15.939816,0.661531597 15.9227634,0.570790203 15.9227634,0.500188617 L15.9227634,0.371828219 L16.1118968,0.353304986 C16.4631714,0.318952807 17.0812255,0.207925666 17.51204,0.101894185 C17.9300982,-0.00105009071 18.0427003,-0.00958200448 18.0691526,0.0593468778 C18.0763374,0.0779823736 18.0715101,0.251202675 18.0584877,0.444360713 C18.0241468,0.953704738 18.0408177,4.36248494 18.077707,4.37477763 C18.0935472,4.38039074 18.1874544,4.32100413 18.2864055,4.24368927 C18.789538,3.85025578 19.2373501,3.68928327 19.8098135,3.69608635 C20.4386784,3.70394469 21.0043274,3.95527691 21.494322,4.44571601 C21.7342473,4.68586693 21.8280848,4.81521523 21.9722742,5.10454814 C22.1863781,5.53418613 22.2728513,5.93911525 22.2721306,6.50868785 C22.2702176,7.98825641 21.5719669,9.17115012 20.3459556,9.77166214 C19.8418598,10.0185825 19.2805654,10.1155768 18.7590982,10.045907 C18.4235515,10.0011145 18.2239204,9.93011999 17.9809237,9.76931586 C17.8619046,9.69050792 17.7359522,9.62612565 17.7010298,9.62612565 C17.6562035,9.62612565 17.5671584,9.6951668 17.3981187,9.86091045 C17.2588285,9.99751088 17.1375608,10.0952686 17.1081493,10.0946541 C17.080342,10.0940787 17.025603,10.0762402 16.9865112,10.0550227 L16.9865112,10.0550227 L16.9864775,10.054989 Z M19.6793437,9.5063982 C20.5214671,9.22624833 21.0185421,8.33255281 21.0796115,6.98884375 C21.1094058,6.33330089 21.00599,5.75045892 20.7765119,5.28063113 C20.4194625,4.54962574 19.9284003,4.23275495 19.2672275,4.3067244 C18.7812812,4.36105922 18.2549373,4.65745341 18.1030692,4.96221112 L18.0358355,5.09712762 L18.0359534,7.02898865 L18.0360701,8.9608609 L18.1770611,9.11890338 C18.3625012,9.32676774 18.571029,9.48523681 18.7437868,9.54956295 C18.9518914,9.62702375 19.3753651,9.60749016 19.6793403,9.50634207 L19.6793403,9.50634207 L19.6793437,9.5063982 Z M24.7021779,10.0405521 C24.1548533,9.9608461 23.7023206,9.67819278 23.5160196,9.2997575 C23.3439949,8.95033072 23.3102332,8.42501181 23.4366279,8.06454968 C23.6058494,7.5819577 24.0836523,7.13296574 24.7698494,6.81171673 C25.1408193,6.63804738 25.419833,6.55067385 26.2403135,6.35121791 C26.7056396,6.23809147 26.9557381,6.16544671 26.9772811,6.13715668 C27.0425054,6.05150076 26.9998795,5.41736627 26.9034464,5.03869524 C26.8010971,4.6367972 26.6129347,4.38426378 26.2984664,4.22676016 C26.1053869,4.12999029 25.9308857,4.10935653 25.6063429,4.14469662 C25.2596396,4.18241666 24.9635609,4.27753627 24.8257795,4.39546753 C24.6824153,4.51818114 24.6507259,4.62182144 24.675125,4.88816309 C24.7136421,5.30862927 24.7075013,5.40451227 24.6359455,5.50033913 C24.501313,5.68062071 24.244663,5.76849943 23.9721188,5.72762482 C23.6250832,5.67564751 23.5229169,5.28521142 23.7391314,4.83738698 C23.8363054,4.63612362 24.1660257,4.30361474 24.4323606,4.13830891 C25.108581,3.71857243 26.0039391,3.57321556 26.689466,3.77187444 C27.3536912,3.9643589 27.763836,4.35521036 27.9462326,4.96951938 C28.0800636,5.42026263 28.0870934,5.52019828 28.1058782,7.2391207 C28.1246484,8.95671843 28.1328548,9.06619636 28.2552967,9.23153587 C28.4339393,9.4727645 28.7753472,9.50327732 29.0189322,9.29979118 C29.1435801,9.19561202 29.193558,9.20470524 29.2607367,9.34334884 C29.3124558,9.45011003 29.2984343,9.47664877 29.0910516,9.66432842 C28.6252394,10.0858611 27.8974088,10.1882104 27.459222,9.89380322 C27.3239631,9.80287098 27.1404315,9.56806373 27.06322,9.38706367 C27.0305629,9.31050097 26.9999266,9.24355913 26.9951331,9.23830527 C26.9903058,9.23269217 26.883118,9.3100407 26.7568513,9.40939259 C26.0860374,9.93724862 25.7554774,10.0706945 25.1316014,10.0655192 C24.9809469,10.0643966 24.7877058,10.0530581 24.7021756,10.040597 L24.7021779,10.0405521 Z M25.8638372,9.45436476 C26.2017459,9.35591096 26.8700114,8.907862 26.9714323,8.71172902 C27.0034045,8.64987265 27.0098933,8.4650669 27.0098933,7.61689364 C27.0098933,6.65724419 27.007199,6.59724013 26.9642363,6.61001555 C26.9391233,6.61787389 26.6544492,6.6935385 26.3316173,6.77898112 C25.4812561,7.00410016 25.2055608,7.12605039 24.9335162,7.39745506 C24.451243,7.87857642 24.3687922,8.70411766 24.7569247,9.1655707 C24.9963549,9.45023351 25.4614744,9.57158876 25.8638316,9.45436476 L25.8638316,9.45436476 L25.8638372,9.45436476 Z M35.9359365,10.0528897 C35.9000688,10.0472766 35.7826731,10.0304373 35.6750632,10.0146084 C34.8358866,9.89138959 34.1374641,9.37456891 33.7726013,8.60683139 C33.32486,7.66469481 33.3631424,6.31071377 33.8657114,5.31361371 C33.9897273,5.06756903 34.188485,4.80721095 34.4312224,4.57284152 C35.0980229,3.92901882 35.7622043,3.665349 36.5489871,3.73214491 C37.2770535,3.79388902 37.6992103,3.95440126 38.0520431,4.30340144 C38.2229744,4.47247927 38.2711157,4.54184598 38.3966628,4.79994759 C38.5629128,5.1417181 38.6313881,5.36809447 38.676202,5.72413348 C38.7186034,6.06099813 38.7018988,6.27175885 38.6268741,6.34663762 L38.5690704,6.4043403 L36.6003223,6.39423672 L34.6315753,6.38413314 L34.6315753,6.55830766 C34.6315753,7.94595608 35.3342772,9.10505025 36.3272539,9.35529352 C36.458972,9.38852308 36.5696108,9.39480975 36.8229143,9.38358355 C37.4359963,9.3565284 37.8158416,9.19889007 38.2748664,8.78099469 C38.3663599,8.69769627 38.4598529,8.63476218 38.4920945,8.63476218 C38.557824,8.63476218 38.701205,8.76787126 38.701205,8.82888567 C38.701205,8.85178712 38.5750068,8.99781756 38.4207655,9.15343518 C37.9042064,9.67457794 37.4162763,9.93205089 36.7607773,10.0293821 C36.5158709,10.065755 36.1035785,10.0775425 35.9359433,10.0528448 L35.9359433,10.0528448 L35.9359365,10.0528897 Z M37.3487474,5.8667287 C37.4841533,5.83260104 37.5072366,5.75144683 37.4738959,5.42656053 C37.4092106,4.79618682 37.2191476,4.46586704 36.8113165,4.2750216 C36.3963759,4.08085321 35.9700182,4.12387201 35.4902103,4.40834398 C35.2224081,4.56711616 35.0607384,4.76951336 34.9017271,5.14508596 C34.8149935,5.3499417 34.6837951,5.79114268 34.6837614,5.87806716 C34.6837614,5.92387007 34.7349866,5.92510495 35.9685464,5.90826565 C36.6751876,5.89816206 37.2962783,5.87997562 37.3487474,5.8667287 L37.3487474,5.8667287 L37.3487474,5.8667287 Z M39.6406215,9.87653732 C39.6068306,9.77954293 39.6071449,9.68034821 39.6415746,9.58159131 C39.6683042,9.50491635 39.6735468,9.50289563 39.8849575,9.48796478 C40.2159352,9.46461428 40.4630317,9.35741527 40.5443476,9.20190992 C40.6639168,8.97325463 40.6666223,8.92874274 40.6769717,7.02041183 C40.6835952,5.80744312 40.6775083,5.15060925 40.6586505,5.02908561 C40.5965809,4.62901744 40.4718578,4.52634259 39.9617762,4.45537054 C39.7219025,4.42202872 39.7195911,4.41944669 39.718959,4.18553754 L39.718602,4.05377561 L40.0512165,4.00808496 C40.5345516,3.94173811 41.1311479,3.82049512 41.4149823,3.73092125 C41.8436076,3.59566797 41.8511573,3.60203322 41.809251,4.06367712 C41.7763357,4.42622732 41.7693979,4.91150237 41.7967338,4.93882694 C41.8061638,4.94780791 41.9734926,4.80019457 42.1684782,4.60970837 C42.8624641,3.93172433 43.375991,3.693538 44.1404157,3.69508721 C45.1072454,3.69733246 45.5471778,4.11716997 45.6933609,5.1781359 C45.7146346,5.33255231 45.7318443,6.01115379 45.7436431,7.16077304 C45.7634237,9.0887947 45.7628623,9.08247435 45.9300923,9.27292687 C46.0291299,9.38572776 46.245552,9.46900372 46.4882457,9.48769535 C46.6097233,9.49667631 46.6818101,9.51553633 46.7034991,9.542816 C46.7396138,9.58828212 46.7474272,9.85479217 46.714164,9.90717363 C46.6975043,9.93344294 46.3798926,9.94175033 45.213397,9.94635307 L43.7337611,9.95196617 L43.7166411,9.88674194 C43.6944357,9.80220864 43.6947837,9.65697526 43.7173955,9.57070189 C43.7339093,9.5077229 43.7487054,9.50143622 43.911748,9.48785252 C44.3601416,9.45058153 44.5309876,9.30257528 44.5956797,8.89545705 C44.6386424,8.62506274 44.6301105,5.59237154 44.5856884,5.34757297 C44.5312862,5.04772111 44.4532046,4.87013381 44.3039904,4.70687115 C44.1281342,4.51445404 43.9592147,4.42988706 43.7193051,4.41414793 C43.2500016,4.38338813 42.7210993,4.6253577 42.152088,5.13118792 C42.0103875,5.25714591 41.9426272,5.34160063 41.8781709,5.47256551 L41.7925262,5.64657164 L41.7925262,7.25144707 C41.7925262,8.70164789 41.7969044,8.87229739 41.8383291,9.02208861 C41.8635207,9.11324537 41.9094134,9.22335197 41.9403191,9.26674124 C42.0173982,9.37496183 42.2317558,9.46756677 42.4486741,9.48628085 C42.5649551,9.49638443 42.6387023,9.51603029 42.6599277,9.54274865 C42.6961771,9.58832703 42.7037997,9.85475849 42.670368,9.90746551 C42.6533828,9.93429613 42.3431669,9.94226674 41.1579774,9.94664495 L39.6669604,9.95225806 L39.64059,9.87659345 L39.6406215,9.87653732 Z M49.0057103,10.0355565 C48.6287569,9.92587648 48.412895,9.69733345 48.2850588,9.27248905 C48.2419839,9.12934375 48.2377292,8.9337384 48.2298259,6.73690532 L48.221294,4.35643402 L47.7656763,4.35643402 L47.3100575,4.35643402 L47.3100575,4.17181912 C47.3100575,4.00255044 47.3163442,3.98086142 47.3863171,3.91094463 L47.4625767,3.83471872 L47.8465645,3.83471872 L48.2305523,3.83471872 L48.2174513,2.9720412 L48.2043503,2.10936368 L48.2617386,2.07175591 C48.3805534,1.99395832 49.1885189,1.64337525 49.2491471,1.64337525 C49.3715936,1.64337525 49.3770428,1.67682933 49.3468039,2.24328105 C49.3314015,2.53187303 49.3187945,3.00785279 49.3187945,3.30101383 L49.3187945,3.83403392 L50.2253305,3.84076964 L51.1318666,3.84750536 L51.1396127,4.02310562 C51.1438786,4.11965096 51.1348977,4.22188798 51.1197423,4.25022292 C51.0712339,4.34081837 50.9273667,4.35597375 50.107983,4.35608601 L49.3188394,4.35623195 L49.3190538,6.35843636 C49.319312,8.76582809 49.3371505,8.9972338 49.538013,9.19809301 C49.6475134,9.30754848 49.7698655,9.32956307 50.0472482,9.28958656 C50.3762343,9.24209972 50.6766867,9.12510024 50.9414017,8.94125995 C51.0067607,8.8959061 51.1197894,8.94462781 51.1774932,9.04375518 L51.2258333,9.12649229 L51.0812622,9.27106333 C50.7521661,9.60015945 50.3283141,9.85441048 49.9001164,9.97958263 C49.6213013,10.0610849 49.1872324,10.08814 49.0057934,10.0353769 L49.0057103,10.0355565 Z M53.5683679,10.0396316 C53.4471844,10.026946 53.2123984,9.98597034 53.04662,9.94858709 C52.7907423,9.89088441 52.7067793,9.8829138 52.4908545,9.89571167 L52.2365024,9.91086705 L52.2361151,9.55325637 C52.2357671,9.23162568 52.2220599,8.95795332 52.1683425,8.19987033 L52.151391,7.96063995 L52.2591625,7.92830849 C52.3424722,7.90338632 52.3899691,7.90293727 52.4684156,7.92606325 C52.556878,7.95255709 52.5722355,7.96894734 52.5881655,8.05383989 C52.6287033,8.26992183 52.7940417,8.76248268 52.8826793,8.9312125 C53.0823508,9.31132049 53.35713,9.51369524 53.7768036,9.58974153 C54.5120682,9.7229741 55.172902,9.41905835 55.3310803,8.87494678 C55.3925775,8.66338899 55.3715283,8.32641208 55.2850753,8.13869875 C55.137801,7.81892038 54.7327799,7.53875927 53.9498881,7.21513031 C53.3774472,6.97850442 53.0306967,6.76667721 52.7812169,6.5012112 C52.478234,6.1788059 52.3635875,5.86480902 52.3599267,5.34734845 C52.3581305,5.09944022 52.3680095,5.01807271 52.4166863,4.87877799 C52.5954726,4.36689684 53.0144019,3.995332 53.6321753,3.80070333 C54.1569531,3.63537504 54.6571209,3.65008137 55.737937,3.86267196 C55.9715295,3.90858713 56.1732655,3.95573718 56.1862408,3.96730017 C56.2002398,3.97987352 56.1921907,4.22478435 56.1665276,4.57006865 C56.1427056,4.88997051 56.1232842,5.2187972 56.123374,5.30079339 C56.1235537,5.47893076 56.0937256,5.50388661 55.8806029,5.50388661 C55.7176299,5.50388661 55.6934633,5.4841285 55.6563876,5.32020349 C55.5371462,4.79314452 55.2974287,4.44283087 54.9422922,4.27663817 C54.6705631,4.14947898 54.4592265,4.10887381 54.233801,4.14050924 C53.6138654,4.22751231 53.2605184,4.67279963 53.3554248,5.24748015 C53.4415185,5.76878008 53.7050132,5.98933005 54.6897734,6.36435257 C55.0914368,6.51730957 55.2921602,6.61651552 55.5626454,6.79573062 C56.1424754,7.17992494 56.4160052,7.64199543 56.4194404,8.24305753 C56.4233337,8.93077468 56.1041626,9.46005644 55.5169548,9.7397685 C54.8897323,10.0385314 54.3524137,10.1211114 53.5683712,10.0392387 L53.5683712,10.0392387 L53.5683679,10.0396316 Z M62.2118308,10.0756902 C62.1738189,10.050768 62.0735487,9.61992879 62.0537063,9.39634774 C62.0379223,9.21846857 62.0122592,9.15651116 61.9543881,9.15651116 C61.9365609,9.15651116 61.7914398,9.25395459 61.6318852,9.37304215 C60.927771,9.89859681 60.4432257,10.0914293 59.9043489,10.060546 C59.3558827,10.0291126 58.9522827,9.8737869 58.6897063,9.59308694 C58.5066182,9.39736933 58.3364267,9.08521355 58.2566242,8.79876577 C58.2017842,8.60191431 58.1995389,8.53830665 58.1841253,6.74342774 C58.1693517,5.0238542 58.1646816,4.88004655 58.1187888,4.73518363 C58.0291476,4.45215985 57.8196869,4.30474858 57.4463831,4.26196553 C57.3401383,4.24972897 57.2878848,4.23075668 57.2702934,4.19786391 C57.2405215,4.14218195 57.2375578,3.88717876 57.2661397,3.84217292 C57.2814635,3.81803658 57.5270277,3.81264801 58.3027133,3.81960825 L59.3192033,3.82858921 L59.3061584,4.41205985 C59.2989737,4.73297207 59.2931136,5.72337009 59.2931136,6.61294559 C59.2931136,8.42584255 59.2987267,8.49410909 59.4772671,8.86157637 C59.5829618,9.07908404 59.7079487,9.19849715 59.9583424,9.32119954 C60.1181351,9.39944618 60.1444515,9.40427344 60.4148705,9.40359987 C60.6485922,9.40299366 60.7284958,9.39214914 60.8455526,9.34533588 C61.2099663,9.19959732 61.7970338,8.78501367 61.9357425,8.57545415 L62.0061982,8.46902975 L62.0136075,6.78445951 C62.0184347,5.69016299 62.01125,5.03591114 61.9932993,4.91729509 C61.9555568,4.66844386 61.8581257,4.47497149 61.7297417,4.39392954 C61.6124683,4.3198366 61.374502,4.25206402 61.2320741,4.25206402 C61.1135759,4.25206402 61.080114,4.20323004 61.080114,4.03032407 C61.080114,3.79312564 60.9977922,3.80952712 62.1389222,3.81938373 C62.6921843,3.82387421 63.1540684,3.83835601 63.1653305,3.85092936 C63.1765904,3.8635027 63.1741992,4.04988011 63.1600542,4.26510886 C63.1458643,4.48032639 63.1328419,5.50751267 63.1311355,6.54775503 C63.1282167,8.30623859 63.1313443,8.4498554 63.1753667,8.59239449 C63.2701496,8.89931886 63.4974499,9.04826811 63.9692153,9.11259425 C64.1798177,9.14133333 64.1849122,9.14369083 64.2125814,9.22756179 C64.2502453,9.34167614 64.220552,9.46717385 64.149535,9.49369014 C64.1185844,9.50525313 64.0228182,9.52287827 63.93673,9.53286959 C63.4239542,9.5922562 62.8547531,9.78562754 62.5149685,10.0158769 C62.4021789,10.0923274 62.2752959,10.1173618 62.2118723,10.0757126 L62.2118308,10.0756902 Z M59.1710623,2.36378311 C58.7752904,2.25623609 58.5730392,1.79788147 58.7598218,1.43175011 C58.9074105,1.14245088 59.2238389,1.00698429 59.5441663,1.09596317 C59.6721383,1.13155024 59.8631846,1.30496138 59.9328331,1.44883639 C60.0794855,1.75178669 59.9526025,2.14032555 59.6549745,2.29967027 C59.4963168,2.38465262 59.3292159,2.40676824 59.1710623,2.36377188 L59.1710623,2.36378311 Z M61.6005787,2.36492818 C61.3753743,2.30307181 61.2122553,2.15746796 61.1337539,1.94817787 C61.0851669,1.8186275 61.1009621,1.59030899 61.1683867,1.44769132 C61.429406,0.895564236 62.2207893,0.967995694 62.3864622,1.55916751 C62.5178952,2.02816456 62.0650527,2.49245784 61.6005831,2.36491695 L61.6005787,2.36492818 Z M64.6718768,9.91607601 C64.6318217,9.86780334 64.6335393,9.59097641 64.6742343,9.54198527 C64.6953508,9.51650179 64.7764264,9.49786629 64.9085857,9.48821176 C65.3215236,9.45767649 65.4996689,9.33812866 65.583102,9.03543656 C65.630398,8.86384406 65.6324075,8.70261334 65.6324075,5.07388938 C65.6324075,1.54266499 65.6293764,1.28140881 65.5866832,1.14348369 C65.5094244,0.893846628 65.3729127,0.817126761 64.9577464,0.790037935 L64.7265686,0.774994824 L64.6903528,0.688328542 C64.6704376,0.640617182 64.6541371,0.549954372 64.6541371,0.486784531 L64.6541371,0.371918029 L64.8432706,0.353731581 C65.1827071,0.321063333 65.9229057,0.186943893 66.2987859,0.0900842198 C66.6618716,-0.0034300456 66.7739977,-0.0097167189 66.8016007,0.062243238 C66.8093468,0.0823381401 66.8050809,0.243905644 66.792283,0.421178605 C66.7565612,0.9127291 66.7601873,6.54792343 66.7962122,6.54792343 C66.8464157,6.54792343 67.1131974,6.39526953 67.274866,6.27402654 C67.763299,5.90776047 68.6932574,4.97670415 68.8111538,4.73593579 C68.9008848,4.55266804 68.9009859,4.45487659 68.8115265,4.38451075 C68.7373438,4.3261345 68.5176504,4.25223241 68.4184231,4.25223241 C68.3448915,4.25223241 68.3062284,4.16803589 68.3068122,4.00921881 C68.3075475,3.80803404 68.2097168,3.82192085 69.6352514,3.82067474 L70.9138193,3.81957457 L70.9405713,3.8963618 C70.9738233,3.99178452 70.9738794,4.03197432 70.9409227,4.15061283 L70.9148105,4.24457614 L70.6997569,4.26141544 C70.2828629,4.29419595 69.9197458,4.41353048 69.6307328,4.61286293 C69.4242942,4.75524486 68.2293065,6.05526154 68.1975824,6.17196914 C68.1879278,6.20744394 68.1898363,6.27053519 68.2018483,6.31234157 C68.2292402,6.40787655 69.9244294,8.92021082 70.0666485,9.07607542 C70.1244073,9.1393912 70.2244934,9.22490118 70.2890598,9.2661238 C70.4381067,9.36132199 70.7577402,9.46279563 70.9800336,9.48556237 C71.1795569,9.50599406 71.2081389,9.53675386 71.2081389,9.73140498 C71.2081389,9.95880293 71.2969942,9.94221061 70.0836405,9.94135741 C69.4920207,9.94094204 68.9968621,9.93349907 68.9832863,9.92530394 C68.9697138,9.9174456 68.9585999,9.82482943 68.9585999,9.7206615 C68.9585999,9.47463928 68.9099231,9.31896553 68.7570547,9.076154 C68.4887923,8.65005227 67.5027523,7.28337439 67.3635732,7.14475325 C67.2053185,6.98713737 67.0460423,6.91307811 66.8653049,6.91307811 L66.7639436,6.91307811 L66.7746084,7.92396395 C66.7817932,8.60477699 66.7957474,8.97496101 66.8172905,9.05770935 C66.8846701,9.31660803 67.0589435,9.46148217 67.3344726,9.48762799 C67.4255845,9.49660896 67.4974524,9.518051 67.5172397,9.54297317 C67.5535789,9.58866382 67.561078,9.85508405 67.5275678,9.90799314 C67.4946077,9.95997046 64.7149382,9.96794106 64.6719857,9.91585148 L64.6718768,9.91607601 Z M71.6133172,9.90824012 C71.5785047,9.84324041 71.5848026,9.59021303 71.6224104,9.54259148 C71.6464345,9.51216847 71.7187088,9.49802346 71.8970314,9.48870571 C72.100613,9.47860213 72.1656228,9.46299771 72.306433,9.39361978 C72.4539509,9.32098625 72.4816123,9.29505372 72.5394205,9.17516911 C72.5755015,9.10029034 72.617712,8.96281426 72.6332267,8.86954697 C72.6527827,8.75201986 72.6591143,7.55904502 72.6538716,4.98253055 C72.6467991,1.50964873 72.643319,1.25619476 72.6002441,1.1300796 C72.5195277,0.893521068 72.3770739,0.816441962 71.9716856,0.789981804 L71.7405089,0.774938692 L71.7042932,0.688272411 C71.6843779,0.640561051 71.6680775,0.549898241 71.6680775,0.4867284 L71.6680775,0.371861898 L71.8572109,0.35367545 C72.18204,0.322354346 72.921804,0.18999742 73.2608342,0.102511626 C73.6953781,-0.00963813549 73.7369588,-0.0144541763 73.7923175,0.040879775 C73.8265237,0.0751196921 73.8332482,0.106889845 73.8190246,0.167152099 C73.7861543,0.306660115 73.7745688,8.67705128 73.8069789,8.8696031 C73.8226731,8.96289285 73.8650408,9.10039137 73.9011106,9.17522524 C73.9589143,9.29512108 73.9865757,9.3210536 74.1340981,9.39367591 C74.2749094,9.46294158 74.3399181,9.47809695 74.5435008,9.48876184 C74.7218212,9.4977428 74.7940932,9.5122246 74.8181207,9.54264761 C74.8543476,9.58856278 74.8620039,9.85494933 74.828561,9.90760022 C74.8115982,9.93431858 74.4826739,9.94240145 73.2220151,9.94677967 C71.7591747,9.95239277 71.6349883,9.94902491 71.6132891,9.90838606 L71.6132891,9.90838606 L71.6133172,9.90824012 Z M78.2107295,10.0314926 C77.5106804,9.93101808 76.9874226,9.68588273 76.5724909,9.26405818 C76.157648,8.84232343 75.85265,8.26069389 75.7194646,7.63732533 C75.656755,7.34381627 75.6580236,6.66259908 75.7219344,6.29994784 C75.8450095,5.60180155 76.1780886,4.93163095 76.6232154,4.4865008 C77.3504926,3.75922251 78.502796,3.51452498 79.6768659,3.83803045 C79.9324596,3.90841874 80.2675517,4.0656417 80.4684479,4.20934832 C80.996259,4.58689673 81.4353989,5.34200477 81.6008136,6.15646575 C81.6653418,6.47415605 81.6631976,7.25860939 81.5969967,7.56518575 C81.4150267,8.40755507 80.9134119,9.21093579 80.3364671,9.58400494 C79.7550632,9.95997046 78.9269388,10.1342909 78.2107307,10.0314926 L78.2107307,10.0314926 L78.2107295,10.0314926 Z M79.2537897,9.58667678 C79.4557659,9.53907768 79.5655435,9.48406929 79.7791546,9.32348969 C80.1718101,9.02833038 80.3575701,8.57795759 80.4349826,7.73346652 C80.4850851,7.18693009 80.4281346,6.3676643 80.3044017,5.85395328 C80.1665731,5.28185478 79.9866283,4.92598417 79.6777629,4.61467035 C79.3469368,4.28120724 79.0169617,4.14193497 78.5551315,4.14080474 C77.7390056,4.13856711 77.226946,4.63305887 76.9774246,5.66355689 C76.5974704,7.23272177 77.2199363,9.07769199 78.2709312,9.49747337 C78.5715015,9.61752638 78.9696702,9.65366353 79.2537897,9.58672168 L79.2537897,9.58667678 Z M82.338127,13.1689018 C82.305223,13.0744894 82.305223,13.0340302 82.338109,12.9156387 L82.36421,12.8216754 L82.5923118,12.8067445 C82.8372002,12.7908033 83.0358445,12.7356827 83.1563746,12.6501502 C83.2600822,12.5766186 83.3500636,12.3656221 83.3823535,12.1202735 C83.4003716,11.9834148 83.4068267,10.7409998 83.4015279,8.43125358 C83.3950167,5.59863576 83.38699,4.92910505 83.3584417,4.84423496 C83.2819576,4.61684824 83.0456584,4.48625382 82.6426086,4.44862359 L82.473918,4.43290691 L82.4583136,4.33860681 C82.4497817,4.28674176 82.4425857,4.20233194 82.4424285,4.15106187 L82.4421423,4.0578844 L82.7617118,4.01163244 C83.2680079,3.9384376 83.8229584,3.82269546 84.102236,3.73218981 C84.3573997,3.6494527 84.4659762,3.63598126 84.5111302,3.68111059 C84.5249834,3.69491882 84.5220196,3.89214074 84.5039455,4.16342192 C84.4871062,4.41579818 84.4808083,4.64584552 84.4899464,4.67461827 C84.5134204,4.74859895 84.6114375,4.74085287 84.6876263,4.65901385 C84.7843176,4.55517148 85.1236026,4.27861399 85.2987045,4.16091848 C85.6711629,3.91056294 86.1560215,3.72098606 86.4954782,3.69297669 C86.7137976,3.67501476 87.0613372,3.72867601 87.3429577,3.82396402 C88.1111712,4.08387305 88.7602961,4.85272197 89.004631,5.79211936 C89.1628205,6.40031009 89.115602,7.32743724 88.8951419,7.94177993 C88.4562827,9.16475119 87.5321069,9.91641279 86.3030679,10.0500046 C85.8412623,10.1001857 85.2418729,10.0310323 84.8198789,9.87879379 C84.5734177,9.78988227 84.5354428,9.79291334 84.5147709,9.90304239 C84.5055654,9.95210089 84.5034773,10.4656547 84.5100559,11.0443655 C84.5229885,12.1737102 84.5400074,12.3338969 84.6667636,12.5190955 C84.7805973,12.685423 85.0346238,12.7784208 85.4485204,12.8053188 L85.7027321,12.8218213 L85.7288106,12.9156724 C85.7617258,13.0341762 85.7616809,13.074467 85.728485,13.1696764 L85.7017891,13.2462391 L84.0331354,13.2454196 L82.3644828,13.2446001 L82.3380675,13.1688232 L82.3380675,13.1688232 L82.338127,13.1689018 Z M86.4430642,9.52667273 C87.102195,9.35256555 87.4620969,8.97657759 87.7248159,8.18763377 C87.8523006,7.80478659 87.8965891,7.50618083 87.8959451,7.03383837 C87.8948154,6.18646217 87.7479048,5.57635175 87.4266962,5.0845206 C87.137846,4.6422419 86.8121032,4.41093723 86.3695618,4.33386935 C86.1437052,4.29457764 85.9465821,4.33162411 85.66394,4.46484546 C85.2405999,4.66514336 84.694169,5.12871816 84.5776298,5.38644931 L84.5160989,5.52254456 L84.5160989,7.15300451 C84.5160989,8.39760865 84.5239573,8.8093184 84.5492724,8.89270663 C84.64712,9.21489864 85.0402155,9.49054681 85.5266559,9.57807751 C85.734921,9.61557302 86.2068099,9.58930371 86.4430631,9.5266615 L86.4430642,9.52667273 Z M92.5766851,10.0408889 C92.1106776,9.98666637 91.6126518,9.7899833 91.2567509,9.51970125 C90.7873508,9.1632132 90.4454332,8.58826325 90.2950571,7.90258926 C90.243338,7.66677166 90.2355134,7.55892153 90.2365125,7.09560493 C90.2374813,6.64271748 90.2466161,6.51887002 90.2963033,6.286903 C90.456454,5.53885623 90.719823,5.02382052 91.1638619,4.59034317 C91.8217589,3.94810336 92.530075,3.66469788 93.3083607,3.7323133 C93.9741789,3.79012824 94.4372294,3.95326742 94.7603992,4.24383521 C95.1122554,4.56017837 95.3747083,5.15658159 95.4411011,5.79067118 C95.4758799,6.1228545 95.4589283,6.28679074 95.3826575,6.35564103 C95.3308486,6.4024543 95.2524863,6.4039137 93.3620332,6.39414691 L91.3953137,6.38404333 L91.3953137,6.60847756 C91.3953137,6.90219992 91.4595163,7.35427909 91.541325,7.63657317 C91.6940597,8.16363214 91.8973517,8.51548378 92.2552082,8.872129 C92.6110957,9.22682086 92.9963116,9.39126227 93.4713225,9.39126227 C94.0944935,9.39126227 94.5033697,9.23744085 94.9842531,8.82209382 C95.171377,8.66047018 95.2174359,8.63242713 95.272927,8.64635884 C95.338387,8.6627491 95.4649433,8.77813201 95.4649433,8.82136411 C95.4649433,8.86570761 95.1318327,9.22473279 94.9458976,9.38083313 C94.2889863,9.93234277 93.5096027,10.1494688 92.5766941,10.0408552 L92.5766941,10.0408552 L92.5766851,10.0408889 Z M94.0209641,5.88020014 C94.2305382,5.85864583 94.2492949,5.82350782 94.2314049,5.48508272 C94.2063368,5.0110451 94.0757996,4.6556909 93.855482,4.46175825 C93.5658168,4.20678874 93.1414686,4.09559321 92.7895406,4.18243911 C92.3242898,4.29724948 91.9460105,4.57563685 91.75554,4.94339601 C91.6492391,5.14864467 91.5187716,5.51259814 91.4623981,5.76114626 L91.4248464,5.92669907 L92.6557468,5.91030881 C93.3327418,5.90132785 93.9470889,5.88774415 94.020963,5.88022259 L94.0209641,5.88020014 Z M98.9476009,10.0399796 C98.3417902,9.96375369 97.8491732,9.73365022 97.44677,9.33912779 C96.9350909,8.83745126 96.6953778,8.28458325 96.6136174,7.41758364 C96.5504138,6.74680683 96.7131938,5.88409563 97.0113056,5.3106949 C97.4413589,4.48349218 98.349873,3.82935259 99.2034124,3.73236943 C99.4242879,3.70722274 99.813231,3.72900157 100.111365,3.78299961 C100.668769,3.88403543 101.12581,4.14075622 101.35808,4.48317784 C101.665072,4.93575096 101.830254,5.46661562 101.830254,6.00065729 C101.830254,6.30101433 101.822396,6.3282491 101.72136,6.38055198 C101.654003,6.4153532 101.412033,6.41793523 99.7004638,6.40154498 L97.756108,6.38290948 L97.772835,6.62837039 C97.817403,7.28243139 97.9181021,7.72648383 98.1150096,8.13776697 C98.4102588,8.75444472 98.9140683,9.2108572 99.45635,9.35291357 C99.6581185,9.40578898 100.199884,9.39231754 100.464205,9.32787914 C100.792863,9.24783631 101.165562,9.0299245 101.424966,8.76626591 C101.581504,8.60715695 101.644067,8.59975888 101.769812,8.7255148 L101.860632,8.81633477 L101.802144,8.89851058 C101.69426,9.05003063 101.37291,9.35678661 101.154459,9.51680489 C100.542294,9.96521309 99.7832458,10.1451579 98.9476458,10.0399459 L98.9476009,10.0399796 Z M100.415696,5.87978477 C100.61669,5.8590163 100.642656,5.80883517 100.621271,5.48259051 C100.581418,4.87442222 100.389786,4.50279002 100.009701,4.29654223 C99.8656573,4.21840786 99.5877751,4.1489289 99.4161265,4.14818339 C99.1375258,4.14706535 98.6531826,4.35244872 98.4243027,4.56891235 C98.2565496,4.72754982 98.1340044,4.91914741 98.0230671,5.19619886 C97.9535769,5.36989066 97.8130473,5.84332207 97.8128676,5.90465081 C97.8128003,5.92755226 100.171605,5.90497637 100.415696,5.87972864 L100.415696,5.87978477 Z M107.573152,10.0723896 C107.52937,10.0446609 107.422351,9.61117235 107.397833,9.3623099 C107.37089,9.08843547 107.363144,9.08945705 106.918856,9.42573794 C106.12468,10.0269011 105.589168,10.1725386 104.83745,9.99178551 C103.976187,9.78469576 103.354761,9.07711945 103.119415,8.0355524 C102.952975,7.29897882 102.982197,6.47622167 103.197549,5.83462176 C103.552275,4.77789933 104.406825,3.97612396 105.412153,3.75678642 C105.903165,3.64968845 106.340976,3.67124276 106.893978,3.82998126 C107.086137,3.88510192 107.264802,3.92473041 107.291016,3.91799469 C107.317285,3.91125897 107.350514,3.8751106 107.365108,3.83761508 C107.407993,3.72681246 107.376335,1.43643144 107.328736,1.23120523 C107.256663,0.918869832 107.111385,0.817620714 106.692266,0.787759016 L106.43467,0.769348044 L106.403573,0.678079019 C106.386397,0.627897894 106.371803,0.539457873 106.371017,0.481620478 L106.369894,0.376430962 L106.741639,0.330066747 C107.160006,0.277752644 107.913677,0.131318061 108.169926,0.0524315372 C108.263216,0.0236924592 108.370336,0.000117434331 108.408034,2.56757912e-06 C108.534228,-0.000354066166 108.541659,0.0358167577 108.51109,0.500514177 C108.466747,1.17307596 108.47337,8.37438164 108.517826,8.5434258 C108.612688,8.89919537 108.812054,9.04314897 109.303582,9.11064089 C109.538086,9.14286009 109.57813,9.17238501 109.57813,9.31300442 C109.57813,9.46859958 109.544339,9.48954767 109.199863,9.5478678 C108.581793,9.652496 108.202201,9.78810853 107.833151,10.0361851 C107.742331,10.0972557 107.635727,10.1120743 107.573074,10.0723335 L107.573074,10.0723335 L107.573152,10.0723896 Z M106.069582,9.38198943 C106.275112,9.32720556 106.4387,9.24616361 106.715998,9.06155994 C107.041221,8.84504017 107.294799,8.60989614 107.339715,8.48317477 C107.388549,8.34549662 107.389447,5.1774062 107.340725,5.0170848 C107.271235,4.78838461 106.954948,4.45596553 106.667894,4.30995754 C106.387542,4.16735109 105.856835,4.12155941 105.534665,4.21217732 C105.217514,4.30142563 105.092296,4.37575431 104.856198,4.61520921 C104.449473,5.02771601 104.293283,5.45821842 104.229192,6.34343815 C104.162733,7.26183131 104.329891,8.19211302 104.650646,8.68835607 C104.785002,8.89623166 105.009862,9.13238605 105.173294,9.23726123 C105.431204,9.4027579 105.780092,9.45910221 106.069582,9.38200066 L106.069582,9.38200066 L106.069582,9.38198943 Z M110.071286,9.90824012 C110.036484,9.84312814 110.042771,9.59017935 110.080267,9.54279355 C110.102719,9.51450352 110.174903,9.4974397 110.312211,9.48789742 C110.73563,9.45848477 110.964128,9.32448882 111.055217,9.05219728 C111.099785,8.91894226 111.103827,8.77048696 111.111124,6.96863659 C111.11786,5.29434955 111.113369,5.00990003 111.079466,4.89228311 C111.001893,4.62526789 110.863844,4.53042893 110.452191,4.46120817 L110.191563,4.41742598 L110.170233,4.29035659 C110.13184,4.06129716 110.131952,4.06125226 110.509669,4.00791657 C110.989847,3.94011031 111.586699,3.81684661 111.862437,3.72851885 C112.12403,3.64477138 112.218005,3.63466779 112.260541,3.68597154 C112.280299,3.70988335 112.280973,3.86446816 112.262786,4.21423171 C112.248304,4.49017177 112.240334,5.63695079 112.244937,6.80878669 C112.252795,8.73898624 112.256836,8.91991894 112.299384,9.04614636 C112.396041,9.33232471 112.605455,9.46050549 113.020633,9.48747083 C113.178811,9.49757441 113.252982,9.5138524 113.276119,9.54304053 C113.31238,9.58861891 113.320014,9.85507282 113.286223,9.90773494 C113.269271,9.9344533 112.940332,9.94253616 111.679675,9.94691438 C110.216833,9.95252748 110.092649,9.94915962 110.070949,9.90852077 L110.070949,9.90852077 L110.071286,9.90824012 Z M111.384516,2.04594687 C111.059057,1.88376192 110.879898,1.48165058 111.006058,1.19647136 C111.081947,1.02493499 111.204604,0.899437276 111.384033,0.809773598 C111.669358,0.667189603 111.951753,0.717045167 112.146258,0.944252276 C112.430607,1.27644683 112.415855,1.63613435 112.106517,1.91428597 C111.880635,2.11736797 111.622388,2.16446189 111.384549,2.04594687 L111.384516,2.04594687 Z M115.354572,10.0286973 C114.956648,9.95673731 114.559577,9.75600159 114.382057,9.53716923 C114.088268,9.17498949 113.986671,8.56902154 114.141087,8.09996835 C114.322053,7.55026613 114.835125,7.08621983 115.646655,6.73825246 C115.958654,6.60448104 116.09549,6.5639769 116.95022,6.35237421 C117.505602,6.21488691 117.651094,6.16982493 117.690127,6.12320252 C117.733797,6.07111294 117.736828,6.03586266 117.72055,5.77819887 C117.677891,5.10405419 117.565068,4.71935469 117.337681,4.47267012 C117.100426,4.21527575 116.805469,4.10333929 116.442627,4.13301014 C115.831416,4.18296674 115.527658,4.31354993 115.407549,4.57794944 C115.348387,4.70816216 115.346815,4.83376092 115.401936,5.06039549 C115.460985,5.30516038 115.438196,5.40179553 115.285104,5.55487602 C115.151142,5.68884952 115.017539,5.73906432 114.795114,5.73906432 C114.224082,5.73906432 114.183298,5.01745526 114.723828,4.47696975 C115.08768,4.11310608 115.604378,3.84801054 116.159906,3.74017164 C116.443705,3.68505099 117.029263,3.67809074 117.250678,3.72714925 C117.662129,3.81830601 118.092834,4.05263053 118.314226,4.30571404 C118.534922,4.55800048 118.678381,4.92015777 118.768314,5.45206646 C118.802554,5.65447489 118.811872,5.97244584 118.819057,7.18688519 C118.828038,8.72604243 118.843193,8.97683579 118.937763,9.17641521 C119.013427,9.33626511 119.176701,9.42719735 119.387394,9.42691669 C119.563489,9.42669217 119.635123,9.39817761 119.76336,9.27726019 L119.849914,9.1956457 L119.926364,9.28085257 C120.038065,9.40532871 120.02639,9.46944155 119.865855,9.61477596 C119.41976,10.0185151 118.919902,10.1529601 118.418607,10.0040445 C118.140029,9.92130742 117.870712,9.65640272 117.76632,9.36248952 C117.741397,9.29221349 117.714342,9.23478024 117.706259,9.23478024 C117.698401,9.23478024 117.557142,9.33974523 117.392813,9.46797091 C116.772576,9.95205598 116.459489,10.0719743 115.828812,10.067046 C115.678156,10.0659234 115.464903,10.048635 115.35492,10.0286524 L115.35492,10.0286524 L115.354572,10.0286973 Z M116.712,9.40729329 C117.035247,9.26831291 117.564012,8.90362972 117.670953,8.74593526 C117.716307,8.67902709 117.720348,8.60001708 117.727421,7.63692118 C117.731911,7.0665852 117.729666,6.59994565 117.721808,6.59994565 C117.671739,6.59994565 116.431109,6.94792424 116.284787,7.00299999 C115.580645,7.26806185 115.203804,7.80548261 115.233049,8.50295534 C115.242029,8.70500453 115.25696,8.78143251 115.314888,8.90686287 C115.509774,9.32939467 115.804081,9.50304157 116.297876,9.48685339 C116.49823,9.48011766 116.577532,9.46507455 116.711842,9.40725961 L116.711842,9.40725961 L116.712,9.40729329 Z M117.677992,2.3760758 C117.369777,2.31410716 117.153706,2.04235448 117.153706,1.71678339 C117.153706,1.1513308 117.852818,0.854274264 118.249653,1.25112052 C118.433223,1.43468015 118.496315,1.67292262 118.425702,1.91582396 C118.332749,2.23549007 117.999342,2.4407275 117.677992,2.3760758 L117.677992,2.3760758 Z M115.29367,2.38266558 C115.063331,2.32844302 114.90027,2.20952386 114.807733,2.02813088 C114.588608,1.59862761 114.907421,1.06811097 115.383581,1.06999195 C115.754348,1.07111959 116.036306,1.35890328 116.036913,1.73604755 C116.03735,2.00733996 115.89078,2.2295065 115.644444,2.33093524 C115.538244,2.37471743 115.367056,2.39997638 115.29367,2.38268803 L115.29367,2.38266558 Z" id="fiu-vro-tagline" stroke="#000000" stroke-width="0.00697138" fill="#000000" fill-rule="nonzero"></path>
    </g>
</svg>