<svg xmlns="http://www.w3.org/2000/svg" width="62" height="32" fill="none"><path fill="#666" d="m44.742 27.447 4.503-6.723h-4.218v-1.919h7.516l-4.485 6.91h4.503v1.92h-7.406l-.413-.188ZM48.65 15.93c.343 0 .63.118.866.353.235.235.352.517.352.846 0 .33-.117.613-.35.847a1.18 1.18 0 0 1-.867.351c-.346 0-.635-.116-.868-.35a1.155 1.155 0 0 1-.35-.848c0-.331.118-.614.352-.848.233-.233.522-.35.866-.35ZM0 18.87h2.908c1.688 0 2.97.38 3.846 1.14.876.76 1.314 1.876 1.314 3.348 0 1.358-.414 2.443-1.24 3.253-.827.811-1.94 1.216-3.34 1.216-.643 0-1.11-.11-1.403-.33V32H0V18.87Zm3.616 7.048c.648 0 1.196-.243 1.646-.73.45-.487.675-1.097.675-1.83 0-.805-.213-1.436-.64-1.893-.425-.457-1.004-.686-1.737-.686-.638 0-1.16.018-1.564.055l.09-.008v4.85l.006.002c.382.16.89.24 1.524.24Zm10.205 1.873c-1.452.062-2.693-.394-3.574-1.256-.88-.862-1.321-1.964-1.321-3.306 0-1.346.44-2.452 1.322-3.318.882-.866 2.014-1.299 3.396-1.299 1.38 0 2.513.434 3.399 1.3.886.867 1.329 1.973 1.329 3.317 0 1.34-.443 2.442-1.328 3.305-.885.862-1.972 1.26-3.217 1.26l-.006-.003Zm.029-1.799c.695-.062 1.18-.255 1.665-.765.484-.51.726-1.175.726-1.998 0-.83-.242-1.5-.726-2.012-.485-.513-1.108-.769-1.871-.769-.765 0-1.387.256-1.867.767-.48.512-.72 1.183-.72 2.014 0 .827.239 1.494.718 2.002.48.507 1.17.76 2.075.76v.001Zm9.523 1.643c-1.236 0-2.23-.415-2.983-1.245-.752-.83-1.128-1.917-1.128-3.262 0-1.377.392-2.474 1.177-3.29.784-.817 1.842-1.226 3.173-1.226.753 0 1.3.117 1.641.35v-4.54h2.085v13.213h-3.965Zm.386-7.168c-.695 0-1.263.246-1.704.738-.442.492-.663 1.14-.663 1.941 0 .879.195 1.542.584 1.99.39.448.953.672 1.692.672h1.585V20.73c.023.028.02.037-.006.027-.382-.193-.878-.29-1.488-.29Zm5.096 6.98v-8.642h2.085v1.958c-.088-.285.011-.604.297-.956.599-.796 1.274-1.195 2.024-1.195.807 0 1.534.398 2.182 1.192l-1.107 1.747-.194-.098c-.487-.584-.91-.876-1.267-.876-.565 0-1.014.195-1.348.585-.335.39-.53.964-.587 1.722v4.75h-1.672l-.413-.187Zm11.349.347c-1.452.063-2.63-.397-3.512-1.26-.88-.86-1.32-1.963-1.32-3.305 0-1.346.44-2.452 1.322-3.318.881-.866 2.013-1.299 3.395-1.299 1.38 0 2.513.434 3.4 1.3.885.867 1.328 1.973 1.328 3.317 0 1.34-.442 2.442-1.327 3.305-.885.862-2.035 1.27-3.28 1.27l-.006-.01Zm.093-1.798c.695-.062 1.18-.26 1.663-.769.484-.51.726-1.175.726-1.998 0-.83-.242-1.5-.726-2.012-.484-.513-1.108-.769-1.87-.769-.766 0-1.388.256-1.868.767-.48.512-.72 1.183-.72 2.014 0 .827.24 1.494.718 2.002.48.507 1.171.76 2.075.76l.002.005Zm-1.691-7.846 1.325-3.206h2.23l-2.21 3.206h-1.345Zm19.164 9.677c-1.357 0-2.465-.43-3.326-1.291-.861-.86-1.292-1.963-1.292-3.307 0-1.34.373-2.445 1.12-3.314.746-.868 1.71-1.303 2.89-1.303 1.284 0 2.275.406 2.974 1.218.698.811 1.047 1.944 1.047 3.399v.49h-5.881c.061.507.244.952.547 1.335.575.533 1.24.8 1.994.8a4.01 4.01 0 0 0 1.54-.292c.473-.195 1.074-.526 1.8-.995v2.041c-.595.45-1.154.765-1.677.947a5.264 5.264 0 0 1-1.736.272Zm1.401-5.594a2.541 2.541 0 0 0-.457-1.107c-.33-.452-.817-.678-1.46-.678-.57 0-1.039.245-1.408.736-.252.33-.422.68-.508 1.05h3.833Z"/><path fill="#484848" d="m13.938 13.341-3.805-8.958h2.163l2.049 5.202 2.111-5.33h1.308l2.094 5.302 2.057-5.174h2.167l-3.846 8.958h-.793l-2.36-5.706-2.351 5.707h-.794Zm11.28-.316V4.383h2.085v8.83H25.63l-.412-.188ZM26.26.753c.342 0 .63.118.865.353s.352.517.352.846c0 .33-.116.613-.35.847-.234.234-.523.35-.867.35a1.18 1.18 0 0 1-.868-.349 1.155 1.155 0 0 1-.349-.848c0-.331.117-.614.35-.848a1.18 1.18 0 0 1 .867-.35Zm5.196-.566v13.026h-2.085V0h2.085v.187Zm3.98 12.838-4.31-4.218 3.896-4.424h2.343l-3.712 4.38 4.374 4.45h-2.178l-.413-.188Zm3.243 0V4.383h2.085v8.83H39.09l-.412-.188ZM39.721.753c.342 0 .63.118.865.353s.352.517.352.846c0 .33-.117.613-.35.847-.234.234-.523.35-.867.35a1.18 1.18 0 0 1-.868-.349 1.155 1.155 0 0 1-.35-.848c0-.331.118-.614.352-.848.234-.234.523-.35.866-.35Z"/></svg>