<svg xmlns="http://www.w3.org/2000/svg" width="80" height="16"><path fill="#000" fill-rule="nonzero" d="M80 .856c0 .672-.462 1.008-1.385 1.008-.218 0-.382.035-.491.103-.025.02-.063.062-.116.125a5.68 5.68 0 0 0-.2.258c.004-.06.008-.145.012-.252a3.4 3.4 0 0 1 .042-.392c.025-.186.138-.326.34-.419.203-.093.488-.14.857-.14.137 0 .249-.005.334-.018a.613.613 0 0 0 .413-.222A2.37 2.37 0 0 0 80 .633v.224Zm-1.184 9.358V3.54l.923-.953v6.54l-.923 1.087Zm-3.534-3.759c.194.126.372.286.534.483.162.196.3.419.416.668.115.249.204.51.267.786.063.275.094.553.094.832 0 1.037-.409 1.92-1.226 2.648-.705.627-1.385.941-2.04.941-.83 0-1.64-.545-2.43-1.634.07.053.158.11.268.17.263.11.532.198.807.265.275.066.557.102.844.106 1.312 0 2.34-.706 3.085-2.12a.69.69 0 0 0 .079-.31c0-.55-.409-1.112-1.227-1.687l.529-1.148ZM71.055.547v7.687l-.917 1.3V1.658l.917-1.111Zm2.569 2.362 1.397.795-.56.954-1.365-.796.528-.953ZM67.849 8.78c0 .178-.013.323-.04.434a.501.501 0 0 1-.185.282c-.097.077-.243.141-.437.192-.194.05-.464.102-.808.155-.574.085-1.093.127-1.554.127-.482 0-.806-.05-.972-.152-.222-.133-.334-.429-.334-.886 0-.07.012-.18.037-.331.024-.152.054-.302.09-.45a2.67 2.67 0 0 1 .125-.388c.047-.112.092-.167.137-.167.008 0 .016.002.024.006v.45c0 .307.03.48.091.521.195.11.53.164 1.008.164.166 0 .346-.007.54-.02a9.68 9.68 0 0 0 .638-.07c.62-.086.93-.203.93-.353 0-.202-.138-.69-.414-1.463-.283-.806-.481-1.225-.595-1.257l.68-1.41c.073.021.262.614.565 1.78.316 1.25.474 2.196.474 2.836Zm-27.27-2.818c.207 0 .541.292 1.003.875.575.736.899 1.133.971 1.19.098.077.217.16.359.249.141.089.31.188.504.297l-.31.984c-.259-.024-.54-.042-.844-.055a25.567 25.567 0 0 0-1.014-.018c-1.538 0-2.31.13-2.314.389l.055.225c.016.048.042.152.079.312.036.16.087.378.152.653.125.567.223 1.077.294 1.53.071.454.102.859.094 1.215 0 .437-.158.931-.473 1.482a30.097 30.097 0 0 0-.261-2.053c-.106-.64-.23-1.24-.37-1.803a17.08 17.08 0 0 1-.223-.978 3.609 3.609 0 0 1-.075-.632c0-.538.164-.9.491-1.087.187-.1.604-.198 1.251-.291.571-.085.98-.128 1.227-.128.09 0 .156.008.2.025l-1.02-1.148-1.33.692.013-.431c.004-.138.226-.421.667-.85.438-.43.73-.644.875-.644Zm15.644 5.022 1.396.796-.558.953-1.367-.795.529-.954Zm-8.72-1.451c-.045.42-.161.817-.35 1.187-.188.37-.429.692-.722.966-.294.273-.63.49-1.008.65a3.05 3.05 0 0 1-1.2.24c-.59 0-1.153-.234-1.688-.7-.526-.46-.844-.991-.953-1.59.178.328.534.644 1.069.947.538.308.998.462 1.378.462.312 0 .62-.055.926-.164a3.2 3.2 0 0 0 .841-.45c.255-.19.477-.415.665-.674.188-.259.321-.54.398-.844a.782.782 0 0 1-.164.018c-.251 0-.487-.041-.708-.124a1.826 1.826 0 0 1-.576-.343 1.644 1.644 0 0 1-.389-.51 1.403 1.403 0 0 1-.143-.626c0-.344.164-.797.492-1.36.356-.611.69-.917 1.002-.917.405 0 .729.358.972 1.075.186.534.279 1.065.279 1.59h2.89c-.113-.355-.17-.606-.17-.752 0-.344.154-.729.462-1.154.287-.409.595-.688.923-.838l-.595-.45.322-.77c.17-.401.305-.602.407-.602.307 0 .724.328 1.25.984.903 1.11 1.353 2.225 1.349 3.346 0 .069-.004.148-.012.237h3.297c.065 0 .097-.055.097-.164a1.21 1.21 0 0 0-.076-.35 3.73 3.73 0 0 0-.185-.452 2.947 2.947 0 0 0-.228-.394c-.079-.114-.147-.17-.203-.17l.534-1.263c.247.109.48.55.699 1.323.194.685.291 1.213.291 1.585 0 .7-.097 1.05-.291 1.05H54.14c-.049.102-.093.153-.134.153-.089 0-.461-.1-1.117-.298-.644-.19-1.006-.316-1.087-.376a4.68 4.68 0 0 1-2.138.522h-2.161Zm5.107-3.486-.037.018c.004.04.014.11.03.207a12.61 12.61 0 0 1 .092.656c.012.109.018.194.018.255 0 .218-.06.514-.182.886 0 .004.044.023.133.055l.325.115c.128.045.263.084.407.119.144.034.272.053.386.057a.37.37 0 0 0 .03-.163c0-.22-.158-.634-.474-1.245-.328-.64-.57-.96-.728-.96Zm-6.468 1.063a.356.356 0 0 0-.203.064.75.75 0 0 0-.17.16.85.85 0 0 0-.122.213.596.596 0 0 0-.045.219c0 .077.041.153.124.227.083.075.187.14.31.195.124.054.255.098.395.13.14.033.268.049.385.049.126 0 .189-.049.189-.146a1.307 1.307 0 0 0-.252-.75 1.023 1.023 0 0 0-.277-.26.613.613 0 0 0-.334-.101Zm5.702-.638c-.113 0-.305.146-.576.438-.268.291-.401.491-.401.6 0 .057.041.112.124.165.083.052.183.1.3.142.118.043.239.077.362.104.124.026.226.04.307.04.17 0 .255-.11.255-.329a2.717 2.717 0 0 0-.11-.74 1.782 1.782 0 0 0-.118-.298c-.042-.081-.09-.122-.143-.122Zm-20.595 5.35.82.601-.862 1.07-.832-.608.874-1.063Zm-12.546-.929 1.397.796-.559.953-1.366-.796.528-.953ZM9.17 9.534c-.11.002-.219.002-.323 0h-.12c-.062-.006-.123-.009-.182-.012a1.437 1.437 0 0 1-.601-.189c-.207-.113-.64-.56-1.3-1.342-.17-.238-.433-.315-.79-.23-.732.368-1.139.704-1.22 1.008 0 .097.389.287 1.166.57.559.203.86.324.905.365l.121.395-.115.904c-.024.17-.433.48-1.227.93-.882.457-1.757.686-2.623.686-.4 0-.775-.057-1.123-.17a2.983 2.983 0 0 1-.908-.468 2.182 2.182 0 0 1-.607-.72A1.974 1.974 0 0 1 0 10.33c0-.623.184-1.342.553-2.155.311-.693.52-1.039.625-1.039l.024.055c-.032.097-.084.24-.154.428-.071.188-.138.396-.2.622-.064.227-.12.457-.17.69-.052.232-.077.446-.077.64 0 1.085.707 1.628 2.12 1.628.372 0 .87-.073 1.493-.219.85-.13 1.276-.28 1.276-.45 0-.06-.227-.181-.68-.364-.665-.315-1.01-.514-1.039-.595a.463.463 0 0 1-.018-.133c0-.049.004-.142.012-.28.275-.971.681-1.64 1.217-2.007.537-.366.97-.551 1.297-.555.198 0 .393.11.583.33.19.221.423.482.698.784.276.302.502.487.68.556.179.069.335.103.471.103h2.881c-.113-.356-.17-.607-.17-.753 0-.344.154-.729.462-1.154.287-.409.595-.688.923-.838l-.595-.45.322-.77c.17-.401.305-.602.407-.602.307 0 .724.328 1.25.984.903 1.11 1.353 2.225 1.349 3.346 0 .069-.005.148-.013.237h5.945c0-.037-.041-.108-.124-.216a2.789 2.789 0 0 0-.328-.346 5.353 5.353 0 0 0-.458-.37 4.406 4.406 0 0 0-.505-.319c-.465-.247-.9-.37-1.305-.37-.312 0-.838.15-1.579.449.304-.563.528-.925.674-1.087.292-.316.676-.474 1.154-.474.708 0 1.544.423 2.508 1.27.332.29.71.558 1.132.801a9.8 9.8 0 0 0 1.424.662v1.166h-8.847c-.049.101-.093.152-.134.152-.089 0-.461-.1-1.117-.298-.644-.19-1.006-.316-1.087-.376a4.68 4.68 0 0 1-2.138.522H9.17ZM34.164.547l-.59 1.45-4.226 1.72c.07.064.161.143.277.236.115.093.258.2.428.322a26.589 26.589 0 0 1 2.432 2.068c.666.65 1.193 1.264 1.582 1.843a.85.85 0 0 1 .127.486c0 .36-.056.625-.17.795-.028.045-.25.067-.668.067h-5.27c-.045.42-.162.817-.35 1.187-.188.37-.429.692-.722.966-.294.273-.63.49-1.008.65a3.05 3.05 0 0 1-1.2.24c-.59 0-1.154-.234-1.688-.7-.526-.46-.844-.991-.953-1.59.178.328.534.644 1.068.947.539.308.998.462 1.379.462.312 0 .62-.055.926-.164a3.2 3.2 0 0 0 .841-.45c.255-.19.477-.415.665-.674.188-.259.32-.54.398-.844a.782.782 0 0 1-.164.018c-.251 0-.487-.041-.708-.124a1.826 1.826 0 0 1-.577-.343 1.644 1.644 0 0 1-.388-.51 1.403 1.403 0 0 1-.143-.626c0-.344.164-.797.492-1.36.356-.611.69-.917 1.002-.917.405 0 .729.358.971 1.075.187.534.28 1.065.28 1.59h3.929c.566 0 .85-.038.85-.114 0-.134-.508-.666-1.524-1.598-1.008-.935-1.59-1.402-1.743-1.402-.033.04-.073.176-.122.407a10.14 10.14 0 0 1-.312-.283 72.38 72.38 0 0 1-.428-.404c-.3-.295-.45-.58-.45-.856 0-.283.14-.656.42-1.117.157-.251 1.936-1.069 5.337-2.453Zm-2.957 9.582.868.656-.826 1.038-.893-.65.85-1.044Zm-17.52-4.08-.036.017c.004.04.014.11.03.207a12.61 12.61 0 0 1 .091.656c.013.109.019.194.019.255 0 .218-.061.514-.183.886 0 .004.045.023.134.055l.325.115c.127.045.263.084.407.119.144.034.272.053.385.057a.37.37 0 0 0 .03-.163c0-.22-.157-.634-.473-1.245-.328-.64-.57-.96-.729-.96ZM26.725 7.11a.356.356 0 0 0-.203.064.75.75 0 0 0-.17.16.85.85 0 0 0-.122.213.596.596 0 0 0-.045.219c0 .077.041.153.124.227.083.075.186.14.31.195.123.054.255.098.395.13.14.033.268.049.385.049.126 0 .188-.049.188-.146a1.307 1.307 0 0 0-.252-.75 1.023 1.023 0 0 0-.276-.26.613.613 0 0 0-.334-.101Zm-13.803-.638c-.113 0-.305.146-.577.438-.267.291-.4.491-.4.6 0 .057.041.112.124.165.083.052.183.1.3.142.118.043.239.077.362.104.123.026.226.04.307.04.17 0 .255-.11.255-.329a2.717 2.717 0 0 0-.11-.74 1.782 1.782 0 0 0-.118-.298c-.043-.081-.09-.122-.143-.122ZM32.822 0l.158.328-4.567 2.04-.158-.322L32.822 0Z"/></svg>