<svg xmlns="http://www.w3.org/2000/svg" width="106" height="18"><path fill="#000" fill-rule="nonzero" d="m95.276 5.285-.87-.876h2.235c-.267.288-.45.58-.552.876h-.813zm3.968 2.571c-.322.263-.76.394-1.314.394a1.574 1.574 0 0 1-1.15-.654 2.04 2.04 0 0 1-.412-1.276c0-.525.148-.984.444-1.377.322-.432.737-.652 1.245-.66.68-.009 1.288.471 1.821 1.44.212.39.328.876.35 1.46 0 .047-.009.21-.026.49-.08 1.188-.605 2.176-1.574 2.963l1.701 2.654-.28.222-1.86-2.691c-.27.13-.575.16-.913.088-.698-.152-1.048-.471-1.048-.958 0-.52.216-.827.648-.92.364 0 .523-.004.476-.013.182.025.366.131.552.317.038.038.1.125.187.26.087.136.13.22.13.254.682-.317 1.023-.981 1.023-1.993zM97.93 4.765c-.445.008-.667.377-.667 1.104 0 .322.062.642.184.959.224.584.605.876 1.143.876.347-.072.52-.394.52-.965 0-.49-.078-.916-.235-1.276-.207-.474-.522-.707-.945-.698zm2.196.52a2.804 2.804 0 0 0-.698-.876h5.617l.883.876h-2.19v8.227l-1.041-1.066v-7.16h-2.571zm-8.082.01h-.967l-.896-.89h4.257l.89.89h-2.22v8.359l-1.064-1.071V5.295m.733-.89a22.544 22.544 0 0 0-.824-1.2c-.86-1.148-1.358-1.795-1.493-1.94C89.695.42 88.994 0 88.358 0c-.459 0-.993.09-1.603.27l1.181 1.194c.411-.06.71-.09.896-.09.601 0 1.285.37 2.05 1.109a8.48 8.48 0 0 1 1.506 1.922h.39m-13.375.89-.89-.89h12.129l.89.89h-6.003v2.483c.13-.116.225-.196.285-.239.147-.107.292-.18.435-.219.294-.081.569-.122.824-.122.662 0 1.21.23 1.642.69.432.456.649 1.017.649 1.683 0 .533-.19 1.036-.571 1.51-.286.365-.734.67-1.344.915l-.473-.916c.614-.284 1.025-.507 1.233-.67.458-.357.687-.749.687-1.174 0-.383-.18-.73-.538-1.039-.23-.193-.586-.266-1.07-.219-.23.022-.511.172-.844.451a5.238 5.238 0 0 0-.915 1.013v4.212L84.45 12.57v-1.877c-.186.207-.46.385-.824.536-.363.146-.69.219-.98.219a2.246 2.246 0 0 1-1.609-.639 2.1 2.1 0 0 1-.662-1.573c0-.637.21-1.161.63-1.574.42-.417.95-.626 1.59-.626.813 0 1.431.344 1.855 1.032v.394a1.926 1.926 0 0 0-1.31-.503c-.632 0-1.12.122-1.467.367-.476.336-.735.783-.779 1.342-.026.352.072.636.292.851.182.172.433.258.753.258.459 0 .984-.232 1.577-.696.623-.49.934-.96.934-1.406v-3.38h-5.048M72.485 9.21c-.303-.378-.454-.699-.454-.961 0-.452.175-.7.526-.748h4.107V5.295h-5.613l-.889-.89h8.858l.889.89h-2.207v8.359l-1.038-1.02v-4.12h-2.732v1.444c-.026.245-.1.396-.22.451a.64.64 0 0 1-.461-.245l-.766-.954M68.67 5.295h-.967l-.896-.89h4.257l.89.89h-2.22v8.359l-1.064-1.071V5.295m-3.375 0h-7.236l-.895-.89h7.235l.896.89m-.909 2.548h-3.205c.199.073.53.288.993.645.523.4.839.718.947.954.082.176.123.378.123.606 0 .439-.173.839-.519 1.2-.346.361-.74.574-1.18.638l.674 1.62-.396.406-.785-1.87a2 2 0 0 1-.584.077c-.38 0-.705-.108-.973-.323a1.104 1.104 0 0 1-.435-.903c0-.64.31-.967.928-.98.307-.01.569.097.785.316.16.163.266.35.318.561.25 0 .47-.099.655-.297a.943.943 0 0 0 .286-.67c0-.43-.128-.725-.383-.884l-2.498-1.574V6.85h5.25v.994m0-2.548h-.708l-.882-.89h4.094l.89.89H65.6v8.359l-1.214-1.207V5.295M44.244 8.417v5.224l-1.078-1.077V8.333h-2.128c-.536 0-.96.133-1.272.4-.337.283-.506.688-.506 1.212 0 .71.26 1.387.779 2.032l1.466 1.677h-.428a9.421 9.421 0 0 1-1.92-1.787c-.667-.83-1-1.6-1-2.309 0-.434.186-.843.558-1.225h-.993l-1.064-1.07h6.508V5.294h-6.528l-.895-.89H50.22l.89.89h-6.866v2.09c.277-.013.584-.017.921-.013.355.004.794.026 1.317.064.693.155 1.227.428 1.603.82.51.533.766 1.143.766 1.831 0 .563-.201 1.2-.603 1.91-.195.339-.55.885-1.065 1.637l-.954-.922c.325-.24.755-.602 1.292-1.084.532-.593.798-1.163.798-1.709 0-.451-.18-.832-.539-1.141-.346-.297-.91-.465-1.693-.503-.36-.017-.974.03-1.843.142m-10.065 6.907-.766-.793c.48-.37.997-.542 1.551-.516.467.021.861.245 1.181.67.294.396.441.835.441 1.316 0 .576-.24 1.017-.72 1.322-.406.263-.915.394-1.525.394-.865 0-1.79-.42-2.777-1.258a10.484 10.484 0 0 1-2.05-2.373h.408c.376.64 1.028 1.268 1.953 1.883.974.645 1.813.967 2.518.967 1.164 0 1.746-.335 1.746-1.006 0-.223-.115-.44-.344-.651-.23-.207-.457-.31-.682-.31-.367 0-.679.118-.934.355m-3.33-3.837c-.034.025-.166.038-.395.038-.1 0-.586-.514-1.46-1.541l-.396-.439c-.134-.155-.201-.307-.201-.458 0-.292.188-.438.565-.438.229 0 .549.004.96.013V5.295H27.43l-.889-.89h9.727l.89.89h-2.24v8.359l-1.187-1.18V9.77h-2.764c0 .49.004.924.013 1.303.004.206-.04.344-.13.413m2.881-6.192h-2.764v3.367h2.764V5.295m-25.029 0-.889-.89h12.128l.89.89h-6.003v2.483c.13-.116.225-.195.285-.238.148-.108.292-.181.435-.22.294-.081.57-.122.824-.122.662 0 1.21.23 1.642.69.433.456.649 1.017.649 1.683 0 .533-.19 1.036-.571 1.51-.286.365-.733.67-1.343.915l-.474-.916c.614-.284 1.025-.507 1.233-.67.459-.357.688-.749.688-1.174 0-.383-.18-.73-.539-1.039-.23-.193-.586-.266-1.07-.219-.23.022-.511.172-.844.452a5.238 5.238 0 0 0-.915 1.012v4.212L13.75 12.57v-1.877c-.186.207-.461.385-.824.536-.364.146-.69.219-.98.219a2.246 2.246 0 0 1-1.61-.639 2.1 2.1 0 0 1-.662-1.573c0-.637.21-1.161.63-1.574.42-.417.95-.626 1.59-.626.813 0 1.432.344 1.856 1.032v.394a1.926 1.926 0 0 0-1.311-.503c-.632 0-1.12.122-1.467.367-.476.336-.735.783-.778 1.342-.026.352.071.636.292.851.181.172.432.258.752.258.459 0 .985-.232 1.577-.696.623-.49.935-.96.935-1.406v-3.38H8.702m-3.692 4.78c.056-.044.266-.233.63-.568.19-.211.285-.673.285-1.387V5.295H2.907v4.199c0 .606.182 1.038.545 1.296l3.349 2.36c.268.19.532.383.791.581.269.258.403.544.403.858 0 .25-.139.526-.416.832a1.199 1.199 0 0 1-.512.413l-.656-.62a1.04 1.04 0 0 0 .552-.341.812.812 0 0 0 .234-.574c-.004-.108-.063-.226-.176-.355a3.978 3.978 0 0 0-.383-.29l-3.316-2.367c-.15-.1-.43-.293-.837-.58a1.357 1.357 0 0 1-.467-.581c-.108-.263-.162-.615-.162-1.058V5.295h-.96L0 4.405h8.332l.89.884-2.22.006v3.037c-.004.452-.03.761-.078.93-.082.291-.266.558-.552.799l-1.031.87-.617-.619c.048-.043.143-.122.286-.238"/></svg>