<svg xmlns="http://www.w3.org/2000/svg" width="122.49" height="17.729" version="1.1"><path fill="#000" d="m110.98 10.14h4.5969l-2.5696-7.0504h-0.0516l-2.6471 6.7017q-0.0258 0.077476-0.0258 0.12913 0 0.21952 0.69729 0.21952zm-2.8666 5.3975q-0.0775 0.21952-0.0775 0.38738 0 0.25826 0.15495 0.43903 0.16786 0.16786 0.49068 0.25826t0.58108 0.12913q0.25825 0.02583 0.68437 0.06456 0.11622 0.11621 0.11622 0.43903 0 0.30991-0.11622 0.42612-1.9627-0.05165-3.3831-0.05165-0.40029 0-2.363 0.05165-0.11621-0.11622-0.11621-0.42612 0-0.32282 0.11621-0.43903 0.68438-0.05165 1.0718-0.15495 0.38738-0.11622 0.8135-0.51651 0.42612-0.41321 0.76185-1.2138l5.8753-13.752q0.23243-0.54234 0.41321-0.74894 0.19369-0.2066 0.47777-0.2066 0.42612 0 0.72311 0.80059l5.4234 14.333q0.18077 0.47777 0.40029 0.78768 0.23243 0.29699 0.61981 0.42612 0.4003 0.12913 0.58108 0.15495 0.19369 0.02583 0.77476 0.09039 0.11622 0.11621 0.11622 0.43903 0 0.30991-0.11622 0.42612-1.9627-0.05165-3.0216-0.05165-1.5108 0-3.4606 0.05165-0.11621-0.11622-0.11621-0.42612 0-0.32282 0.11621-0.43903 0.15496-0.01291 0.43904-0.02583 0.29699-0.02582 0.43903-0.03874 0.15495-0.01291 0.37447-0.03874t0.32282-0.06456q0.11621-0.03874 0.23243-0.1033 0.12913-0.07748 0.18078-0.18078 0.0516-0.1033 0.0516-0.24534 0-0.16787-0.0775-0.38738l-1.6141-4.4807h-5.5008q-0.47777 0-0.65855 0.1033-0.16787 0.09039-0.27117 0.34864zm-6.0034-7.4765q0.52943-0.95554 0.30991-1.3171-0.20661-0.37447-1.2913-0.46486-0.12912-0.12913-0.12912-0.43903 0-0.32282 0.12912-0.42612 1.9627 0.051651 2.5438 0.051651 0.58108 0 1.7432-0.051651 0.12912 0.1033 0.12912 0.42612 0 0.30991-0.12912 0.43903-0.30991 0.025825-0.55525 0.090389-0.24534 0.051651-0.45195 0.18078-0.19369 0.12913-0.32282 0.21952-0.12912 0.077476-0.28408 0.29699-0.15495 0.21952-0.21951 0.32282-0.0646 0.1033-0.24535 0.41321-0.16786 0.30991-0.23243 0.43903l-2.3114 4.0933v2.066q0 1.5883 0.30991 1.9627 0.32282 0.36156 1.5883 0.45195 0.1033 0.12913 0.1033 0.45195 0 0.30991-0.1033 0.41321-2.2726-0.05165-2.9312-0.05165-0.73603 0-2.957 0.05165-0.12913-0.1033-0.14204-0.41321 0-0.32282 0.14204-0.45195 1.2654-0.1033 1.5754-0.46486 0.32282-0.36156 0.32282-1.9498v-1.9498l-2.5825-4.2354q-0.12913-0.2066-0.38738-0.63272-0.24534-0.42612-0.33573-0.54234t-0.32282-0.32282q-0.23243-0.21952-0.52942-0.29699-0.28408-0.077476-0.73603-0.14204-0.1033-0.12913-0.1033-0.43903 0-0.32282 0.1033-0.42612 1.9627 0.051651 2.3243 0.051651 0.85224 0 2.8021-0.051651 0.1033 0.1033 0.1033 0.42612 0.01291 0.30991-0.1033 0.43903-1.1492 0.1033-1.2138 0.51651-0.06456 0.41321 0.58107 1.2654l1.9627 3.254h0.0516zm-11.151 0.6327v5.7074q0 1.5883 0.30991 1.9627 0.32282 0.36156 1.6012 0.45195 0.12913 0.12913 0.12913 0.45195 0 0.30991-0.12913 0.41321-2.2726-0.05165-2.9441-0.05165-0.73603 0-2.957 0.05165-0.1033-0.1033-0.1033-0.41321 0-0.32282 0.1033-0.45195 1.2654-0.1033 1.5754-0.46486 0.32282-0.36156 0.32282-1.9498v-5.7074q0-1.5883-0.32282-1.9498-0.30991-0.37447-1.5754-0.46486-0.1033-0.12913-0.1033-0.43903 0-0.32282 0.1033-0.42612 2.2726 0.051651 2.9312 0.051651 0.73603 0 2.9699-0.051651 0.12913 0.1033 0.12913 0.42612 0 0.30991-0.12913 0.43903-1.2654 0.1033-1.5883 0.46486t-0.32282 1.9498zm-14.277 6.9213q0 0.63272 0.38738 0.9168 0.4003 0.28408 1.8078 0.28408 2.3243 0 3.4348-1.0201t1.1105-3.6672q0-1.188-0.16787-2.0919-0.16787-0.9168-0.67146-1.8336-0.5036-0.9168-1.5624-1.4204t-2.6471-0.5036q-1.6916 0-1.6916 0.82642zm-1.0588-10.149q0.23243 0 1.6916-0.025825t1.8207-0.025825q3.2024 0 4.8939 1.7432 1.6916 1.7432 1.6916 4.5195 0 1.6657-0.54234 2.8925-0.54234 1.2138-1.485 1.8594-0.92972 0.64564-1.9627 0.95554-1.033 0.29699-2.221 0.29699-1.2138 0-2.4147-0.02583t-1.4462-0.02583q-0.73603 0-2.957 0.05165-0.12913-0.1033-0.12913-0.41321 0-0.32282 0.12913-0.45195 1.2654-0.1033 1.5754-0.46486 0.32282-0.36156 0.32282-1.9498v-5.7074q0-1.5883-0.32282-1.9498-0.3099-0.37447-1.5754-0.46486-0.12913-0.12913-0.12913-0.43903 0-0.32282 0.12913-0.42612 2.2726 0.051651 2.9312 0.051651zm-6.1302 3.2277v5.7074q0 1.5883 0.30991 1.9627 0.32282 0.36156 1.6012 0.45195 0.12913 0.12913 0.12913 0.45195 0 0.30991-0.12913 0.41321-2.2726-0.05165-2.9441-0.05165-0.73603 0-2.957 0.05165-0.1033-0.1033-0.1033-0.41321 0-0.32282 0.1033-0.45195 1.2654-0.1033 1.5754-0.46486 0.32282-0.36156 0.32282-1.9498v-5.7074q0-1.5883-0.32282-1.9498-0.30991-0.37447-1.5754-0.46486-0.1033-0.12913-0.1033-0.43903 0-0.32282 0.1033-0.42612 2.2726 0.051651 2.9312 0.051651 0.73603 0 2.9699-0.051651 0.12913 0.1033 0.12913 0.42612 0 0.30991-0.12913 0.43903-1.2654 0.1033-1.5883 0.46486t-0.32282 1.9498zm-11.501-1.2138v4.1192q0.73603 0.29699 1.7174 0.29699 2.2726 0 2.2726-2.9441 0-2.6729-2.4018-2.6729-0.92972 0-1.2654 0.27117-0.32282 0.27117-0.32282 0.92972zm0 6.9212q0 1.5883 0.3099 1.9627 0.32282 0.36156 1.6012 0.45195 0.12913 0.12913 0.12913 0.45195 0 0.30991-0.12913 0.41321-2.2726-0.05165-2.9441-0.05165-0.73603 0-2.957 0.05165-0.1033-0.1033-0.1033-0.41321 0-0.32282 0.1033-0.45195 1.2654-0.1033 1.5754-0.46486 0.32282-0.36156 0.32282-1.9498v-5.7074q0-1.5883-0.32282-1.9498-0.30991-0.37447-1.5754-0.46486-0.1033-0.12913-0.1033-0.43903 0-0.32282 0.1033-0.42612 2.2726 0.051651 2.9312 0.051651 0.32282 0 1.2913-0.025825 0.98137-0.025825 1.5108-0.025825 2.5438 0 3.5381 0.96846 1.0072 0.95554 1.0072 2.2597 0 1.5108-1.1234 2.815t-3.4994 1.3042q-0.95554 0-1.6657-0.30991zm-7.214-5.7074v5.7074q0 1.5883 0.30991 1.9627 0.32282 0.36156 1.6012 0.45195 0.12913 0.12913 0.12913 0.45195 0 0.30991-0.12913 0.41321-2.2726-0.05165-2.9441-0.05165-0.73603 0-2.957 0.05165-0.1033-0.1033-0.1033-0.41321 0-0.32282 0.1033-0.45195 1.2654-0.1033 1.5754-0.46486 0.32282-0.36156 0.32282-1.9498v-5.7074q0-1.5883-0.32282-1.9498-0.30991-0.37447-1.5754-0.46486-0.1033-0.12913-0.1033-0.43903 0-0.32282 0.1033-0.42612 2.2726 0.051651 2.9312 0.051651 0.73603 0 2.9699-0.051651 0.12913 0.1033 0.12913 0.42612 0 0.30991-0.12913 0.43903-1.2654 0.1033-1.5883 0.46486-0.32282 0.36156-0.32282 1.9498zm-15.995 0q0-1.5883-0.32282-1.9369-0.30991-0.36156-1.5754-0.47777-0.1033-0.12913-0.1033-0.43903 0-0.32282 0.1033-0.42612 2.221 0.051651 2.957 0.051651 0.25826 0 2.5438-0.051651 0.1033 0.1033 0.1033 0.42612 0 0.30991-0.1033 0.43903-1.0072 0.1033-1.2654 0.46486-0.24534 0.36156-0.24534 1.9498v2.3501q1.2654 0 2.7762-1.6916 1.9627-2.221 1.769-2.7375-0.11621-0.28408-0.78768-0.33573-0.12913-0.12913-0.12913-0.43903 0-0.32282 0.12913-0.42612 2.2726 0.051651 2.9054 0.051651 0.42612 0 1.8594-0.051651 0.12913 0.1033 0.12913 0.42612 0 0.30991-0.12913 0.43903-1.9627 0.1033-2.8408 1.1105l-2.2726 2.6213q-0.6069 0.63272-0.6069 0.98137 0 0.15495 0.24534 0.45195l3.9126 4.5969q0.55525 0.63272 1.6916 0.77476 0.1033 0.12913 0.1033 0.42612 0 0.28408-0.1033 0.41321-1.2913-0.02583-2.0402-0.02583-1.0588 0-1.6399 0.05165v-0.37447q0-0.6069-0.4003-1.0459l-2.9312-3.6543q-0.5036-0.65855-1.6399-0.65855v2.4534q0 1.5883 0.24534 1.9498 0.25826 0.34864 1.2654 0.46486 0.1033 0.12913 0.1033 0.45195 0 0.30991-0.1033 0.41321-2.2726-0.05165-2.5438-0.05165-0.73603 0-2.957 0.05165-0.1033-0.1033-0.1033-0.41321 0-0.32282 0.1033-0.45195 1.2654-0.1033 1.5754-0.46486 0.32282-0.36156 0.32282-1.9498zm-5.174 0v5.7074q0 1.5883 0.30991 1.9627 0.32282 0.36156 1.6012 0.45195 0.12913 0.12913 0.12913 0.45195 0 0.30991-0.12913 0.41321-2.2726-0.05165-2.9441-0.05165-0.73603 0-2.957 0.05165-0.1033-0.1033-0.1033-0.41321 0-0.32282 0.1033-0.45195 1.2654-0.1033 1.5754-0.46486 0.32282-0.36156 0.32282-1.9498v-5.7074q0-1.5883-0.32282-1.9498-0.30991-0.37447-1.5754-0.46486-0.1033-0.12913-0.1033-0.43903 0-0.32282 0.1033-0.42612 2.2726 0.051651 2.9312 0.051651 0.73603 0 2.9699-0.051651 0.12913 0.1033 0.12913 0.42612 0 0.30991-0.12913 0.43903-1.2654 0.1033-1.5883 0.46486-0.32282 0.36156-0.32282 1.9498zm-14.613-7.2957q-0.12913-0.1033-0.14204-0.42612 0-0.32282 0.14204-0.45195 1.9627 0.051651 2.079 0.051651 0.6069 0 1.9369-0.051651 0.12913 0.12913 0.12913 0.45195 0 0.30991-0.12913 0.42612-0.92972 0.14204-1.4591 0.72311-0.52942 0.58107-1.1363 1.7303l-1.9369 3.6801 3.3831 6.9987h0.11622l5.0231-10.86q0.52942-1.0588 0.29699-1.6141-0.21952-0.55525-1.4333-0.65855-0.12913-0.1033-0.12913-0.42612t0.12913-0.45195q2.4922 0.051651 2.6213 0.051651 0.2066 0 2.3243-0.051651 0.1033 0.12913 0.1033 0.45195 0 0.30991-0.1033 0.42612-0.25825 0.025826-0.49068 0.090389-0.21952 0.064564-0.4003 0.11621-0.16787 0.051651-0.33573 0.18078-0.16787 0.12913-0.28408 0.2066-0.1033 0.064564-0.24534 0.25825-0.12913 0.18078-0.19369 0.25825-0.05165 0.064564-0.18078 0.30991-0.11622 0.24534-0.15495 0.32282-0.02583 0.064564-0.15495 0.36156-0.12913 0.28408-0.15495 0.34864l-6.2627 13.481q-0.29699 0.6069-0.63272 0.61981-0.4003 0-0.6069-0.61981l-3.5639-7.6702-3.8996 7.6702q-0.23243 0.6069-0.63272 0.61981-0.37447 0-0.6069-0.61981l-5.7462-13.533q-0.064564-0.14204-0.16787-0.38738-0.52942-1.2396-0.87807-1.5883-0.33573-0.34864-1.33-0.42612-0.12913-0.12913-0.12913-0.43903 0-0.30991 0.1033-0.43903 2.4922 0.051651 2.7504 0.051651 0.45195 0 2.9441-0.051651 0.1033 0.12913 0.1033 0.45195 0 0.30991-0.1033 0.42612-1.2138 0.12913-1.4204 0.55525-0.19369 0.42612 0.33573 1.5495l4.8423 11.027h0.12913l2.957-6.0044-2.2339-4.7261q-0.69729-1.4721-1.0588-1.8853-0.36156-0.41321-1.1751-0.51651-0.12913-0.12913-0.12913-0.43903 0-0.30991 0.1033-0.43903 1.6916 0.051651 2.3501 0.051651 0.5036 0 2.4018-0.051651 0.12913 0.12913 0.12913 0.45195 0.01291 0.30991-0.12913 0.42612-0.80059 0.11621-0.82642 0.55525-0.02583 0.42612 0.55525 1.5495l1.3042 2.6729 0.11621 0.11621 1.3946-2.6213q0.45195-0.8135 0.56816-1.2525 0.11621-0.43903-0.05165-0.68438-0.16787-0.25825-0.72311-0.33573z"/></svg>