<svg xmlns="http://www.w3.org/2000/svg" width="98" height="14" fill="none"><path fill="#0B2645" d="M.495.541H3.61L5.787 9.7 7.947.54h3.131l2.161 9.157L15.416.541h3.09l-2.971 12.6h-3.748L9.5 3.564l-2.262 9.579H3.491L.495.542Zm20.146 0h3.249v12.6h-3.25V.542Zm6.448 0h3.249v4.6l4.684-4.6h3.772l-6.068 5.967 6.693 6.634H35.35l-5.013-4.963v4.963h-3.25V.542Zm13.402 0h3.25v12.6h-3.25V.542Z"/><path fill="#0A4E98" d="M51.044 5.491c.512 0 .9-.112 1.165-.337.264-.225.396-.557.396-.996 0-.433-.132-.764-.396-.992-.265-.228-.653-.341-1.165-.341h-1.798V5.49h1.798Zm.11 5.512c.652 0 1.143-.138 1.472-.414.33-.276.494-.692.494-1.249 0-.546-.163-.955-.49-1.228-.326-.273-.818-.41-1.476-.41h-1.908v3.3h1.908Zm3.021-4.533c.698.203 1.238.577 1.62 1.123.383.546.574 1.215.574 2.009 0 1.215-.41 2.12-1.232 2.717-.821.597-2.07.895-3.747.895h-5.393V.614h4.878c1.75 0 3.017.264 3.802.793.785.529 1.178 1.375 1.178 2.54 0 .613-.144 1.135-.43 1.566-.288.43-.704.75-1.25.957ZM59.163.613h3.25v7.554c0 1.04.17 1.785.51 2.232.34.448.896.671 1.667.671.776 0 1.335-.223 1.675-.67.34-.448.51-1.192.51-2.233V.613h3.25v7.554c0 1.783-.448 3.111-1.342 3.983-.895.873-2.26 1.309-4.093 1.309-1.829 0-3.19-.436-4.085-1.309-.895-.872-1.342-2.2-1.342-3.983V.613Zm14.044 0h3.249v4.6l4.684-4.6h3.772L78.844 6.58l6.693 6.634h-4.068L76.456 8.25v4.963h-3.25V.614Zm13.402 0h3.25v7.554c0 1.04.17 1.785.51 2.232.34.448.896.671 1.667.671.776 0 1.334-.223 1.675-.67.34-.448.51-1.192.51-2.233V.613h3.25v7.554c0 1.783-.448 3.111-1.342 3.983-.895.873-2.26 1.309-4.093 1.309-1.829 0-3.19-.436-4.085-1.309-.895-.872-1.342-2.2-1.342-3.983V.613Z"/></svg>