<svg xmlns="http://www.w3.org/2000/svg" width="118" height="17"><path fill="#0B2645" d="M3.177 16.979v-2.79h.88c.438 0 .792-.053 1.062-.159.27-.11.484-.272.642-.483.164-.217.301-.487.412-.809l.199-.531L.474.522h3.551l3.82 7.99 3.196-7.99h3.503L8.948 13.57a9.691 9.691 0 0 1-.96 1.68 4.161 4.161 0 0 1-1.402 1.253c-.571.317-1.3.476-2.188.476H3.177Zm15.493-4.677 4.384-7.72h3.33v12.175h-3.219V9.012l-4.368 7.745h-3.353V4.581h3.226v7.721Zm10.42 4.455V4.581h3.378v4.725h.95l3.314-4.725h3.964l-4.305 6.04 4.352 6.136h-4.01l-3.005-4.32h-1.26v4.32H29.09Zm16.307-4.455 4.383-7.72h3.33v12.175h-3.22V9.012l-4.368 7.745H42.17V4.581h3.227v7.721Z"/><path fill="#0A4E98" d="M56.683 16.757V4.581h3.377v4.725h.951l3.314-4.725h3.963l-4.304 6.04 4.352 6.136h-4.011l-3.005-4.32h-1.26v4.32h-3.377Zm21.554-7.436v2.656h-6.358V9.321h6.358Zm-5.248-4.74v12.176h-3.227V4.581h3.227Zm7.364 0v12.176h-3.202V4.581h3.202Zm5.847 7.721 4.383-7.72h3.33v12.175h-3.219V9.012l-4.368 7.745h-3.353V4.581h3.226v7.721Zm18.759-7.721v2.656h-5.058v9.52H96.62V4.581h8.339Zm5.285 7.721 4.384-7.72h3.329v12.175h-3.218V9.012l-4.368 7.745h-3.353V4.581h3.226v7.721Z"/></svg>