<?xml version="1.0" encoding="UTF-8"?>
<svg xmlns="http://www.w3.org/2000/svg" width="61" height="15" viewBox="0 0 61 15">
	<title>
		fa-tagline-61-15
	</title>
	<g id="Page-1" fill="none" fill-rule="evenodd" stroke="none" stroke-width="1">
		<g id="fa-tagline-61-15" fill="#000" fill-rule="nonzero">
			<path id="Combined-Shape" d="M11.21078,8.48636 C11.24203,8.49676 11.2863,8.53846 11.34359,8.61136 C11.57796,8.89782 11.79411,9.28584 11.99203,9.77546 C12.20036,10.29108 12.30453,10.72077 12.30453,11.06456 C12.30459,12.03848 11.99469,12.95772 11.3749,13.82232 C10.84365,14.5619 10.40094,14.93172 10.0468,14.93172 C9.28638,14.93172 8.6301,14.89262 8.078,14.81453 C7.89571,14.78853 7.80456,14.74423 7.80456,14.68172 C7.80456,14.61922 7.89831,14.56974 8.08581,14.53328 C8.86706,14.37182 9.65351,13.95776 10.44521,13.29108 C11.28896,12.57754 11.71081,11.89268 11.71081,11.23638 C11.710806,10.79888 11.36185,10.24159 10.66391,9.56448 L11.11703,8.61917 C11.15869,8.53587 11.18994,8.49157 11.21078,8.48636 Z M53.85915,1.42199 C53.88519,1.42199 53.90081,1.47929 53.90602,1.59386 C53.97373,2.89596 54.00759,5.60946 54.00759,9.73446 C54.00759,10.14077 53.92426,10.51316 53.75759,10.85172 C53.65863,11.05485 53.59092,11.15641 53.55447,11.15641 C53.5128,11.15641 53.49197,11.02881 53.49197,10.7736 C53.491968,9.6174 53.28884,6.7944 52.88259,2.3048 L53.71071,1.53136 C53.78363,1.46366 53.8331,1.4272 53.85915,1.42199 Z M15.54734,1.42199 C15.57338,1.42199 15.589,1.47929 15.59421,1.59386 C15.66712,2.83346 15.70359,5.54696 15.70359,9.73446 C15.70359,10.13035 15.61765,10.50275 15.44578,10.85172 C15.34682,11.05485 15.27911,11.15641 15.24266,11.15641 C15.20099,11.15641 15.18016,11.02881 15.18016,10.7736 C15.180157,9.6174 14.97703,6.7944 14.57078,2.3048 L15.3989,1.53136 C15.47181,1.46366 15.52129,1.4272 15.54734,1.42199 Z M7.10915,1.42199 C7.13519,1.42199 7.15081,1.47929 7.15602,1.59386 C7.22373,2.89596 7.25759,5.60946 7.25759,9.73446 C7.25759,10.14077 7.17425,10.51316 7.00759,10.85172 C6.90863,11.05485 6.84092,11.15641 6.80447,11.15641 C6.7628,11.15641 6.74197,11.02881 6.74197,10.7736 C6.741968,9.6174 6.53884,6.7944 6.13259,2.3048 L6.96071,1.53136 C7.03362,1.46366 7.0831,1.4272 7.10915,1.42199 Z M23.20226,4.8473 L23.2136017,4.89189382 C23.269218,5.12799357 23.4919983,6.20431304 23.88195,8.1207 C24.01215,8.76133 24.13194,9.178 24.24133,9.3707 C24.40799,9.66237 24.67101,9.8082 25.03039,9.8082 L25.52259,9.8082 L25.522,9.812 L26.49237,9.81272 C26.69029,9.81272 26.86216,9.77882 27.00799,9.71116 C27.15382,9.64346 27.29965,9.53147 27.44549,9.37522 C27.59132,9.21897 27.75148,9.01585 27.92596,8.76585 C28.10044,8.51585 28.31528,8.21116 28.57049,7.85178 C28.89861,7.39345 29.23455,7.16428 29.57829,7.16428 C30.06787,7.16428 30.4637,7.40908 30.76579,7.89866 C30.98974,8.25283 31.11735,8.61481 31.1486,8.98456 C31.15379,9.03662 31.15639,9.08738 31.15639,9.13686 L31.15639,9.28139 L31.15639,9.28139 C31.15639,9.55743 31.12253,9.80353 31.05483,10.01967 C30.98712,10.23582 30.90378,10.41681 30.80483,10.56264 C30.70587,10.70848 30.6004,10.81915 30.48842,10.89467 C30.37644,10.97017 30.27357,11.00795 30.17983,11.00795 C29.64858,11.00795 28.89333,10.66681 27.91423,9.98455 C27.60694,10.34392 27.396,10.57048 27.28142,10.66423 C27.021,10.86736 26.70069,10.96892 26.32048,10.96892 L25.43767,10.96892 L25.437,10.964 L24.98353,10.96452 C24.12936,10.96452 23.58773,10.43327 23.35853,9.37072 C22.88978,9.83426 22.61894,10.06603 22.54603,10.06603 L21.66322,10.06603 C21.35592,10.06603 21.04603,10.01913 20.73353,9.92541 C20.30645,9.7952 20.09291,9.61291 20.09291,9.37853 C20.09291,8.63374 20.35853,8.02433 20.88979,7.55043 C21.25437,7.23272 21.86635,6.9046 22.72569,6.56605 L22.53038,5.60512 L23.20226,4.8473 Z M2.19533,5.04854 C2.22658,5.04854 2.29168,5.08764 2.39064,5.16572 C4.05734,6.50432 4.89064,7.74382 4.89064,8.88452 C4.890584,10.27512 3.96871,10.97042 2.12499,10.97042 C1.43749,10.97042 0.93489,10.87672 0.61719,10.68917 C0.20573,10.44959 -3.90798505e-14,10.01469 -3.90798505e-14,9.38447 C-3.90798505e-14,9.0876 0.08073,8.78552 0.24219,8.47822 C0.3151,8.3376 0.38281,8.26729 0.44531,8.26729 C0.52343,8.26729 0.55208,8.35319 0.53125,8.5251 C0.51562,8.6501 0.50781,8.75427 0.50781,8.8376 C0.507808,9.25427 0.69531,9.53552 1.07031,9.68135 C1.30468,9.76985 1.67447,9.81416 2.17971,9.81416 C3.63801,9.81416 4.36721,9.5876 4.36721,9.13447 C4.367205,8.42093 3.51564,7.44697 1.81251,6.21257 L2.10939,5.19697 C2.14064,5.09797 2.16928,5.04854 2.19533,5.04854 Z M57.41433,5.04854 C57.44558,5.04854 57.51068,5.08764 57.60964,5.16572 C59.27634,6.50432 60.10964,7.74382 60.10964,8.88452 C60.10958,10.27512 59.18771,10.97042 57.34399,10.97042 C56.65649,10.97042 56.15389,10.87672 55.83619,10.68917 C55.42473,10.44959 55.219,10.01469 55.219,9.38447 C55.219,9.0876 55.29973,8.78552 55.46119,8.47822 C55.53411,8.3376 55.60181,8.26729 55.66431,8.26729 C55.74243,8.26729 55.77108,8.35319 55.75025,8.5251 C55.73462,8.6501 55.72681,8.75427 55.72681,8.8376 C55.726808,9.25427 55.91431,9.53552 56.28931,9.68135 C56.52368,9.76985 56.89347,9.81416 57.39871,9.81416 C58.85701,9.81416 59.58621,9.5876 59.58621,9.13447 C59.586205,8.42093 58.73464,7.44697 57.03151,6.21257 L57.32839,5.19697 C57.35964,5.09797 57.38828,5.04854 57.41433,5.04854 Z M33.13351,1.60522 C33.16476,1.60522 33.1934,1.66772 33.21945,1.79272 C33.24549,1.91773 33.26893,2.08569 33.28976,2.29662 C33.31059,2.50757 33.32882,2.75106 33.34445,3.02709 C33.36007,3.30314 33.37309,3.5909 33.38351,3.89037 C33.39393,4.18986 33.40174,4.49194 33.40695,4.79662 C33.41215,5.10132 33.41475,5.38647 33.41475,5.65209 L33.41475,8.56619 C33.414748,9.39432 33.81319,9.80839 34.61005,9.80839 L35.6092,9.80832 C36.58316,9.80832 37.1144,9.43072 37.203,8.67552 C37.23946,8.37344 37.31498,8.22239 37.42956,8.22239 C37.54414,8.22239 37.61706,8.37865 37.64831,8.69114 C37.71602,9.43594 38.22122,9.80834 39.16391,9.80834 L40.45354,9.80832 C41.1775,9.80832 41.60454,9.4177 41.73474,8.63642 C41.76599,8.44371 41.82849,8.34734 41.92224,8.34734 C42.00557,8.34734 42.05765,8.44635 42.07849,8.64423 C42.15661,9.42027 42.57588,9.80833 43.33629,9.80833 C44.07587,9.80833 44.48729,9.42031 44.57069,8.64423 C44.59152,8.44631 44.6436,8.34734 44.72694,8.34734 C44.82068,8.34734 44.88058,8.44375 44.90663,8.63642 C45.01079,9.41767 45.35975,9.80832 45.95353,9.80832 C46.69311,9.80832 47.10453,9.4203 47.18793,8.64422 C47.20876,8.4463 47.26084,8.34734 47.34418,8.34734 C47.43792,8.34734 47.49782,8.44374 47.52387,8.63641 C47.62282,9.41766 48.01865,9.80831 48.71137,9.80831 L49.07859,9.80831 L49.078,9.812 L49.55529,9.81272 C50.55008,9.81272 51.04749,9.63304 51.04749,9.27366 C51.047488,9.02366 50.82093,8.6096 50.3678,8.03146 L50.77405,7.04709 C50.81572,6.94809 50.84957,6.89865 50.87561,6.89865 C50.90165,6.89865 50.95634,6.95855 51.03967,7.07834 C51.46154,7.69813 51.67248,8.33354 51.67248,8.98454 C51.67259,10.30742 51.01373,10.96892 49.69599,10.96892 L48.53189,10.96892 L48.5303964,10.9555274 C47.9664618,10.9042638 47.5632765,10.6338222 47.32074,10.14421 C47.08115,10.69108 46.63844,10.96452 45.99264,10.96452 C45.43014,10.96452 44.99784,10.69108 44.69574,10.14421 C44.41449,10.69108 43.97178,10.96452 43.36764,10.96452 C42.63847,10.96452 42.15154,10.69108 41.90674,10.14421 C41.52653,10.69108 41.0083,10.96452 40.35204,10.96452 L39.28109,10.96452 C38.35921,10.96452 37.74199,10.66244 37.42949,10.05827 C37.08574,10.66244 36.39819,10.96452 35.36699,10.96452 L34.3748,10.96452 L34.374,10.961 L34.2655575,10.9581124 C34.0218068,10.941026 33.807226,10.88977 33.62181,10.80437 C33.39004,10.69759 33.19863,10.53093 33.04759,10.30437 C32.89655,10.0778 32.78587,9.78614 32.71556,9.42937 C32.64525,9.0726 32.61009,8.64161 32.61009,8.13637 L32.61789,6.23017 C32.617889,5.32392 32.53976,4.02707 32.38351,2.33957 L33.0007,1.68332 C33.05278,1.63122 33.09705,1.60522 33.13351,1.60522 Z M29.42203,8.18764 C29.11994,8.18764 28.77099,8.49233 28.37513,9.1017 C28.44804,9.185 28.57044,9.27749 28.74232,9.37905 C28.91419,9.48061 29.09779,9.57566 29.2931,9.6642 C29.48841,9.7527 29.68112,9.82697 29.87122,9.88686 C30.06132,9.94676 30.21106,9.97666 30.32044,9.97666 C30.47669,9.97666 30.55481,9.89076 30.55484,9.71885 C30.55484,9.56785 30.52098,9.40379 30.45328,9.2267 C30.38557,9.04962 30.29833,8.88426 30.19156,8.73061 C30.08478,8.57697 29.96369,8.44806 29.82828,8.34389 C29.69286,8.23973 29.55744,8.18764 29.42203,8.18764 Z M22.89755,7.33952 C22.56421,7.43852 22.16057,7.60255 21.68665,7.83171 C21.04602,8.14421 20.72571,8.39161 20.72571,8.5739 C20.72571,8.73015 20.9705,8.84734 21.46009,8.92546 C21.78821,8.98276 22.0929,9.01136 22.37415,9.01136 C22.70227,9.01136 22.98873,8.98276 23.23353,8.92546 L22.89755,7.33952 Z M45.67233,5.20675 L46.41453,5.94112 L45.68015,6.66769 L44.94577,5.93331 L45.67233,5.20675 Z M43.89896,5.20675 L44.63333,5.94112 L43.90677,6.66769 L43.16458,5.93331 L43.89896,5.20675 Z M37.24208,4.98792 L38.06239,5.80042 L37.24989,6.61292 L36.42958,5.80042 L37.24208,4.98792 Z M10.75771,4.88482 L11.57021,5.69732 L10.75771,6.50982 L9.94521,5.68951 L10.75771,4.88482 Z M50.78196,3.60951 L51.59446,4.42982 L50.78196,5.24232 L49.96946,4.42201 L50.78196,3.60951 Z M44.78172,3.64425 L45.51609,4.37862 L44.78953,5.113 L44.04734,4.37081 L44.78172,3.64425 Z M21.45126,1.38265 C21.81063,1.38265 22.06845,1.54933 22.2247,1.88265 C22.25074,1.95035 22.26376,1.99985 22.26376,2.03108 C22.263758,2.09878 22.22469,2.13266 22.14657,2.13265 C22.11532,2.13266 22.07625,2.12465 22.02938,2.10925 C21.84709,2.04155 21.63094,2.0077 21.38094,2.00769 C21.32365,2.0077 21.25854,2.01809 21.18563,2.03889 C21.11271,2.05969 21.045,2.08709 20.98251,2.12089 C20.92001,2.15479 20.86793,2.19379 20.82626,2.23808 C20.78459,2.28238 20.76376,2.32798 20.76376,2.37479 C20.763759,2.45289 20.7924,2.53106 20.8497,2.60917 C20.90699,2.68727 20.98381,2.75762 21.08017,2.82011 C21.17652,2.88261 21.2872,2.9347 21.4122,2.97636 C21.5372,3.01806 21.67001,3.03886 21.81064,3.03886 C21.88876,3.03887 21.9747,3.03086 22.06845,3.01546 C22.1622,2.99986 22.26636,2.97896 22.38095,2.95296 C22.40178,2.94256 22.42131,2.93736 22.43954,2.93736 L22.48251,2.93736 L22.48251,2.93736 C22.51376,2.93737 22.52938,2.95296 22.52938,2.98426 C22.52938,3.01026 22.52678,3.03376 22.52158,3.05456 L22.39659,3.54671 C21.67263,3.68734 20.92519,3.89568 20.15439,4.17171 L20.15439,3.80452 C20.21689,3.76282 20.30283,3.71212 20.4122,3.65218 C20.52157,3.59228 20.65178,3.52068 20.80282,3.43733 C20.38094,3.15089 20.17001,2.90609 20.17001,2.70296 C20.17001,2.50505 20.30803,2.24464 20.58407,1.92171 C20.88615,1.56235 21.17521,1.38265 21.45126,1.38265 Z M16.49258,7.99360578e-15 C16.53424,7.99360578e-15 16.55508,0.013 16.55508,0.0391 C16.55508,0.0808 16.48737,0.1563 16.35196,0.26567 L16.35203,0.26572 C15.92494,0.61989 15.38849,0.79698 14.74263,0.79697 C14.64888,0.79698 14.50825,0.78527 14.32075,0.76177 C14.13325,0.73837 13.99262,0.72657 13.89887,0.72657 C13.844702,0.726578 13.7763708,0.7732292 13.6938713,0.86656456 L13.62934,0.94532 C13.51736,1.09117 13.43533,1.16407 13.38325,1.16407 C13.29471,1.16407 13.25044,1.10157 13.25044,0.97657 C13.25044,0.89327 13.30773,0.72398 13.42232,0.46876 C13.54732,0.18752 13.65669,0.0469 13.75044,0.04689 C13.842104,0.046898 13.9796048,0.0610372 14.1629373,0.08937416 L14.30903,0.11329 C14.56684,0.15759 14.76866,0.17969 14.9145,0.17969 C15.48741,0.1797 15.9145,0.14059 16.1957,0.0625 C16.34674,0.0208 16.4457,7.99360578e-15 16.49258,7.99360578e-15 Z"/>
		</g>
	</g>
</svg>
