<svg xmlns="http://www.w3.org/2000/svg" width="146" height="16"><path fill="#666" d="M24.64.697h-3.798L17.425 8.65 13.818.697h-2.933L7.194 8.65 3.797.697H0l6.329 14.577h1.54l4.45-9.388 4.43 9.388h1.54L24.64.697Zm5.252 0h-3.629v14.387h3.628V.697Zm15.32 0h-3.945l-4.578 6.518V.697h-3.607v14.387h3.607v-6.75l5.717 6.75h4.493l-6.37-7.637L45.21.697Zm6.681 0h-3.628v14.387h3.628V.697Zm16.776 0h-3.86L61.2 8.903 57.404.697H53.5l6.962 14.577h1.56L68.67.697Zm12.209 11.75h-6.983v-3.46h6.519v-2.7h-6.519v-2.91h6.835V.696H70.267v14.387h10.61v-2.637ZM83.616.697v14.387h3.629V9.22h.527c1.013 0 1.73 0 2.7 1.814.296.57 1.54 3.417 1.857 4.05h3.945l-.486-1.034c-.38-.822-.991-2.173-1.392-2.995-.317-.739-1.034-2.194-2.067-2.7.611-.296 2.468-1.14 2.468-3.544 0-1.71-1.118-2.89-1.878-3.397-1.16-.717-2.468-.717-3.776-.717h-5.527Zm5.443 2.616c.4 0 2.004 0 2.004 1.645 0 .59-.253 1.118-.78 1.393-.38.21-.612.21-1.54.253h-1.498V3.313h1.814Zm18.515-1.688C105.275.634 103.84.507 102.701.507c-3.607 0-5.443 1.899-5.443 4.093 0 3.037 2.616 4.05 4.683 4.767 1.899.654 2.722.95 2.722 1.899 0 1.287-1.688 1.308-2.152 1.308-2.109 0-3.755-1.013-5-1.793v3.1c.36.254 2.658 1.393 5.084 1.393 2.152 0 5.633-.928 5.633-4.261 0-2.785-2.152-3.882-3.966-4.536-2.067-.738-3.481-1.244-3.481-2.11 0-.147.064-1.18 2.173-1.18 1.835 0 3.628.906 4.62 1.392V1.625Zm6.509-.928h-3.628v14.387h3.628V.697Zm16.396 0H116.43v2.7h5.21v11.687h3.65V3.397h5.189v-2.7Zm15.521 0h-4.303l-3.165 4.514-3.164-4.514h-4.325l5.675 7.658v6.729h3.607v-6.73L146 .698Z"/></svg>