<svg xmlns="http://www.w3.org/2000/svg" width="118" height="12"><path fill="#000" fill-rule="nonzero" d="M3.967 4.875c.455 0 .628.117.668.494l.04.325c0 .039.027.104.094.104h.294l.053-.039c-.04-.52-.053-.87-.053-1.13 0-.26.013-.65.053-1.17l-.053-.053h-.294c-.053 0-.094.052-.094.104l-.04.325c-.04.364-.2.546-.668.546H2.271v-2.73c0-.312.16-.442.48-.442h1.403c1.002 0 1.243.52 1.537 1.417l.387-.065A44.496 44.496 0 0 0 5.784.676c0-.026-.013-.039-.053-.039a2.818 2.818 0 0 1-.628.052h-3.38C1.203.69.655.676.027.663L0 .69v.26c0 .04.013.091.107.091l.4.026c.508.04.682.182.682.585v6.461c0 .364-.147.546-.721.585l-.348.026c-.067 0-.107.04-.107.104v.247L.04 9.1c.628-.013 1.162-.026 1.683-.026.535 0 1.082.013 1.71.026l.027-.026v-.247c0-.065-.04-.104-.107-.104l-.347-.026c-.535-.039-.735-.182-.735-.585V4.875h1.696M8.53 8.138c0 .377-.133.52-.574.559l-.254.026c-.067.013-.094.039-.094.104v.247l.014.026c.494-.013.908-.026 1.39-.026.507 0 1.081.013 1.575.026l.027-.026v-.247c0-.065-.053-.104-.12-.104l-.387-.026c-.428-.026-.575-.182-.575-.559V5.291c0-.169.067-.338.16-.455.321-.442.615-.676.762-.676.093 0 .187.039.267.117.134.13.28.234.548.234.347 0 .574-.208.574-.546 0-.338-.2-.598-.748-.598-.628 0-1.216.663-1.563 1.17h-.04l.04-1.17c0-.026-.027-.039-.053-.039-.374.143-.909.26-1.844.403l.027.312.574.052c.187.026.294.156.294.806v3.237m5.803-6.474a.642.642 0 0 0 1.282 0 .642.642 0 0 0-1.282 0m1.256 1.703c0-.026-.027-.039-.054-.039-.387.143-.948.26-1.883.403l.026.312.575.052c.2.013.294.156.294.806v3.185c0 1.417 0 3.393-.588 3.393-.147 0-.227-.09-.307-.208-.107-.13-.24-.286-.588-.286-.147 0-.4.156-.4.39 0 .39.453.572.694.572.267 0 .721 0 1.216-.403.627-.494.975-1.794.975-3.9V4.901c0-.39.04-1.534.04-1.534M20.923.351l-1.015 1.547c-.107.169-.147.221-.147.364 0 .091.094.169.187.169.094 0 .2-.052.4-.247L21.886.767l-.04-.143a1.104 1.104 0 0 0-.735-.299.713.713 0 0 0-.187.026m.628 5.694v1.73c0 .168-.08.26-.187.337-.347.273-.801.56-1.175.56-.668 0-.989-.52-.989-.924 0-.585.307-1.17 1.296-1.43l1.055-.273m0 2.405c.08.273.294.754 1.002.754.655 0 1.109-.52 1.109-.585 0-.09-.094-.195-.147-.195-.08 0-.12.208-.441.208-.521 0-.534-.533-.534-1.13V5.563c0-1.846-.989-2.197-1.964-2.197-1.095 0-2.204.741-2.204 1.443 0 .312.16.455.467.455.388 0 .588-.26.588-.429a.57.57 0 0 0-.04-.234.875.875 0 0 1-.027-.26c0-.403.601-.585 1.11-.585.453 0 1.081.26 1.081 1.73 0 .09-.04.142-.08.155l-1.149.273c-1.282.312-2.177 1.001-2.177 1.885 0 1.027.721 1.404 1.656 1.404.615 0 .868-.104 1.456-.546l.267-.208h.027m4.436-.312c0 .377-.133.52-.574.559l-.32.026c-.067 0-.094.039-.094.104v.247l.013.026c.668-.013.935-.026 1.456-.026.548 0 .815.013 1.483.026l.027-.026v-.247c0-.065-.054-.104-.107-.104l-.32-.026c-.441-.039-.562-.182-.562-.559V1.495c0-.845.04-1.365.04-1.365 0-.09-.053-.13-.173-.13-.334.13-1.256.299-1.804.338l.027.312c0 .039.04.065.08.065l.428.026c.267 0 .4.17.4 1.014v6.383m3.803-.884c.054.637.094 1.274.094 1.82.134-.026.24-.039.307-.039.094 0 .16 0 .254.026.347.091.735.143 1.202.143.628 0 2.03-.35 2.03-1.638 0-1.04-.868-1.508-1.95-1.898-.734-.26-.948-.52-.948-1.04 0-.715.548-.87 1.055-.87.28 0 .975.207 1.256 1.273l.36-.013c-.026-.468-.066-.91-.146-1.326-.414-.208-.802-.325-1.47-.325-1.055 0-1.87.585-1.87 1.456 0 .975.468 1.248 1.443 1.664 1.055.455 1.376.82 1.376 1.378 0 .637-.695.975-1.162.975-.495 0-.855-.234-.989-.377-.307-.299-.44-.897-.48-1.222l-.362.013m9.22-1.209v1.729c0 .169-.08.26-.187.338-.347.273-.802.559-1.176.559-.668 0-.988-.52-.988-.923 0-.585.307-1.17 1.296-1.43l1.055-.273m0 2.405c.08.273.294.754 1.002.754.654 0 1.109-.52 1.109-.585 0-.09-.094-.195-.147-.195-.08 0-.12.208-.441.208-.521 0-.535-.533-.535-1.131V5.564c0-1.846-.988-2.197-1.963-2.197-1.096 0-2.204.741-2.204 1.443 0 .312.16.455.467.455.388 0 .588-.26.588-.429a.57.57 0 0 0-.04-.234.875.875 0 0 1-.027-.26c0-.403.601-.585 1.109-.585.454 0 1.082.26 1.082 1.729 0 .091-.04.143-.08.156l-1.15.273c-1.281.312-2.177 1.001-2.177 1.885 0 1.027.722 1.404 1.657 1.404.614 0 .868-.104 1.456-.546l.267-.208h.027m11.422-2.405v1.729c0 .169-.08.26-.187.338-.348.273-.802.559-1.176.559-.668 0-.988-.52-.988-.923 0-.585.307-1.17 1.295-1.43l1.056-.273m0 2.405c.08.273.294.754 1.002.754.654 0 1.108-.52 1.108-.585 0-.09-.093-.195-.147-.195-.08 0-.12.208-.44.208-.521 0-.535-.533-.535-1.131V5.564c0-1.846-.988-2.197-1.963-2.197-1.096 0-2.205.741-2.205 1.443 0 .312.16.455.468.455.387 0 .588-.26.588-.429a.57.57 0 0 0-.04-.234.875.875 0 0 1-.027-.26c0-.403.601-.585 1.109-.585.454 0 1.082.26 1.082 1.729 0 .091-.04.143-.08.156l-1.15.273c-1.282.312-2.177 1.001-2.177 1.885 0 1.027.722 1.404 1.657 1.404.614 0 .868-.104 1.456-.546l.267-.208h.027m4.436-.312c0 .377-.134.52-.574.559l-.321.026c-.067 0-.094.039-.094.104v.247l.014.026c.668-.013.935-.026 1.456-.026.548 0 .815.013 1.483.026l.026-.026v-.247c0-.065-.053-.104-.106-.104l-.321-.026c-.44-.039-.561-.182-.561-.559V1.495c0-.845.04-1.365.04-1.365 0-.09-.053-.13-.174-.13-.334.13-1.255.299-1.803.338l.027.312c0 .039.04.065.08.065l.427.026c.267 0 .401.17.401 1.014v6.383m4.511 0c0 .377-.107.507-.574.559l-.254.026c-.067.013-.107.039-.107.104v.247l.027.026c.668-.013.868-.026 1.416-.026.614 0 .921.013 1.59.026l.026-.026v-.247c0-.065-.053-.104-.107-.104l-.44-.026c-.441-.026-.575-.182-.575-.559V4.004h1.269c.12 0 .307-.052.307-.169v-.26c0-.052-.04-.078-.107-.078h-1.47v-.741c0-2.002.642-2.314 1.083-2.314.4 0 .655.169.828.598.107.221.28.364.548.364a.45.45 0 0 0 .454-.468c0-.208-.12-.429-.387-.624C62.572.091 62.224 0 61.716 0c-1.121 0-2.337.949-2.337 2.977v.52h-.681c-.24 0-.308.156-.308.26v.169c0 .065.014.078.067.078h.922v4.134m5.163 0c0 .377-.133.52-.574.559l-.254.026c-.067.013-.093.039-.093.104v.247l.013.026c.494-.013.908-.026 1.39-.026.507 0 1.081.013 1.576.026l.026-.026v-.247c0-.065-.053-.104-.12-.104l-.387-.026c-.428-.026-.575-.182-.575-.559V5.291c0-.169.067-.338.16-.455.321-.442.615-.676.762-.676.093 0 .187.039.267.117.134.13.28.234.548.234.347 0 .574-.208.574-.546 0-.338-.2-.598-.748-.598-.628 0-1.215.663-1.563 1.17h-.04l.04-1.17c0-.026-.027-.039-.053-.039-.374.143-.909.26-1.844.403l.027.312.574.052c.187.026.294.156.294.806v3.237m8.02-4.056c.295.286.428.715.441 1.742-2.27.156-3.46.676-3.46 1.898 0 .884.482 1.482 1.884 1.482.641 0 1.376-.312 1.937-1.17l.2.273c.268.325.842.897 2.058.897.881 0 1.576-.52 1.963-1.222l-.227-.13c-.4.455-.828.715-1.55.715-1.001 0-1.83-.949-1.83-2.327 3.086-.039 3.701-.52 3.701-1.573 0-.442-.588-1.3-2.11-1.3-.762 0-1.457.325-1.898.91-.494-.871-1.522-.91-1.843-.91-1.095 0-2.137.572-2.137 1.326 0 .26.12.585.534.585.334 0 .52-.221.52-.429a.57.57 0 0 0-.04-.234c-.026-.039-.04-.13-.04-.26 0-.403.602-.598 1.123-.598.28 0 .574.13.775.325m.44 2.197c0 .65-.013 1.209-.066 1.456-.361.546-.895.923-1.35.923-.854 0-1.082-.416-1.082-1.001 0-.663.829-1.248 2.498-1.378m.989-.494c.107-1.105.655-1.976 1.563-1.976.641 0 1.109.481 1.109.897 0 .793-.628 1.053-2.672 1.079m8.542 2.912c-.949 0-1.71-1.066-1.71-2.548 0-.988.334-2.327 1.683-2.327.574 0 1.055.247 1.363.624.16.559.213 1.131.213 1.729 0 2.106-.921 2.522-1.55 2.522M79.689 6.37c0 1.352.962 2.834 2.619 2.834 1.496 0 2.885-1.014 2.885-3.211 0-1.898-.868-3.38-2.017-4.498l-.24-.234L84.23.416 83.936 0 82.52.923A9.727 9.727 0 0 0 81.104 0l-.213.273c.32.221.628.481.908.767l.214.208-1.403.923.294.416 1.456-.949c.494.598.908 1.222 1.202 1.911a2.815 2.815 0 0 0-1.028-.182c-1.096 0-2.846.754-2.846 3.003m8.193-4.706a.642.642 0 0 0 1.283 0 .642.642 0 0 0-1.283 0m1.256 1.703c0-.026-.027-.039-.054-.039-.374.143-.935.26-1.883.403l.027.312.574.052c.187.026.294.156.294.806v3.237c0 .377-.12.507-.575.559l-.253.026c-.067.013-.107.04-.107.104v.247l.027.026c.534-.013.908-.026 1.389-.026.507 0 .895.013 1.43.026l.026-.026v-.247c0-.065-.054-.09-.12-.104l-.254-.026c-.414-.039-.561-.182-.561-.559V4.901c0-.65.04-1.534.04-1.534m3.493 4.771c0 .377-.133.52-.574.559l-.254.026c-.067.013-.094.039-.094.104v.247l.014.026c.494-.013.908-.026 1.389-.026.508 0 1.082.013 1.576.026l.027-.026v-.247c0-.065-.053-.104-.12-.104l-.388-.026c-.427-.026-.574-.182-.574-.559V5.291c0-.169.067-.338.16-.455.321-.442.615-.676.762-.676.093 0 .187.039.267.117.134.13.28.234.548.234.347 0 .574-.208.574-.546 0-.338-.2-.598-.748-.598-.628 0-1.216.663-1.563 1.17h-.04l.04-1.17c0-.026-.027-.039-.053-.039-.374.143-.909.26-1.844.403l.027.312.574.052c.187.026.294.156.294.806v3.237m5.63-6.474a.642.642 0 0 0 1.282 0 .642.642 0 0 0-1.283 0m1.256 1.703c0-.026-.027-.039-.053-.039-.374.143-.936.26-1.884.403l.027.312.574.052c.187.026.294.156.294.806v3.237c0 .377-.12.507-.574.559l-.254.026c-.067.013-.107.04-.107.104v.247l.027.026c.534-.013.908-.026 1.389-.026.508 0 .895.013 1.43.026l.026-.026v-.247c0-.065-.053-.09-.12-.104l-.254-.026c-.414-.039-.56-.182-.56-.559V4.901c0-.65.04-1.534.04-1.534m4.387.637h1.256c.134 0 .32-.052.32-.169v-.26c0-.052-.04-.078-.106-.078h-1.47V1.482l-.774.26v.247c0 .988-.214 1.508-1.11 1.508-.026 0-.04.013-.04.052v.403c0 .039.014.052.054.052h.868v3.913c0 .923.361 1.287.976 1.287.614 0 1.148-.286 1.67-.858-.027-.13-.107-.208-.241-.221-.347.26-.615.364-.962.364-.36 0-.44-.39-.44-1.196V4.004m4.029-2.34a.642.642 0 0 0 1.282 0 .642.642 0 0 0-1.282 0m1.256 1.703c0-.026-.027-.039-.054-.039-.374.143-.935.26-1.883.403l.026.312.575.052c.187.026.294.156.294.806v3.237c0 .377-.12.507-.575.559l-.253.026c-.067.013-.107.04-.107.104v.247l.026.026c.535-.013.909-.026 1.39-.026.507 0 .895.013 1.43.026l.026-.026v-.247c0-.065-.054-.09-.12-.104l-.254-.026c-.414-.039-.561-.182-.561-.559V4.901c0-.65.04-1.534.04-1.534m5.497 5.33c-.949 0-1.71-1.066-1.71-2.548 0-.988.334-2.327 1.683-2.327.574 0 1.055.247 1.363.624.16.559.213 1.131.213 1.729 0 2.106-.921 2.522-1.55 2.522M111.84 6.37c0 1.352.962 2.834 2.619 2.834 1.496 0 2.885-1.014 2.885-3.211 0-1.898-.868-3.38-2.017-4.498l-.24-.234 1.295-.845-.294-.416-1.416.923A9.727 9.727 0 0 0 113.256 0l-.213.273c.32.221.628.481.908.767l.214.208-1.403.923.294.416 1.456-.949c.494.598.908 1.222 1.202 1.911a2.815 2.815 0 0 0-1.028-.182c-1.096 0-2.846.754-2.846 3.003"/></svg>