<?xml version="1.0" encoding="UTF-8"?>
<svg width="120px" height="13px" viewBox="0 0 120 13" version="1.1" xmlns="http://www.w3.org/2000/svg" xmlns:xlink="http://www.w3.org/1999/xlink">
    <title>st-tagline</title>
    <g id="Page-1" stroke="none" stroke-width="1" fill="none" fill-rule="evenodd">
        <path d="M2.27092964,1.872 C2.27092964,1.495 2.4639265,1.04 3.39031139,1.04 C4.27809692,1.04 5.16588245,1.339 5.16588245,2.99 C5.16588245,4.394 4.49682669,4.966 3.24878037,4.966 C2.92711894,4.966 2.41246067,4.94 2.27092964,4.901 L2.27092964,1.872 Z M1.17728081,2.275 L1.17728081,7.488 C1.17728081,8.567 0.958551039,8.632 0.057899056,8.671 C-0.0192996853,8.749 -0.0192996853,9.022 0.057899056,9.1 C0.636889617,9.087 1.27120598,9.074 1.73053845,9.074 C2.18601095,9.074 2.9399854,9.087 3.58330825,9.1 C3.66050699,9.022 3.66050699,8.749 3.58330825,8.671 C2.57972461,8.619 2.27092964,8.567 2.27092964,7.488 L2.27092964,5.278 C2.55399169,5.369 2.86278666,5.408 3.31311265,5.408 C5.65480781,5.408 6.36246294,3.861 6.36246294,2.756 C6.36246294,1.989 5.86067112,0.598 3.48037659,0.598 C2.98759125,0.598 2.23233027,0.689 1.717672,0.689 C1.24547307,0.689 0.572557332,0.676 0.057899056,0.663 C-0.0192996853,0.741 -0.0192996853,1.014 0.057899056,1.092 C0.958551039,1.131 1.17728081,1.196 1.17728081,2.275 Z M6.93155622,6.409 C6.93155622,7.735 7.80647529,9.204 9.63351217,9.204 C10.4621119,9.204 11.0848484,8.90890004 11.5235946,8.476 C12.1000121,7.90659996 12.361201,7.08890004 12.361201,6.292 C12.361201,4.94 11.627813,3.367 9.65924509,3.367 C8.81263218,3.367 8.11398353,3.718 7.64307133,4.277 C7.1760189,4.83080008 6.93155622,5.58739984 6.93155622,6.409 Z M9.46624823,3.822 C10.5727635,3.822 11.2546857,4.836 11.2546857,6.708 C11.2546857,8.346 10.418366,8.749 9.81364257,8.749 C8.47553105,8.749 8.03807152,7.111 8.03807152,6.11 C8.03807152,4.979 8.30826711,3.822 9.46624823,3.822 Z M13.5993501,7.488 C13.5993501,8.567 13.4578191,8.619 12.7372975,8.671 C12.6600987,8.749 12.6600987,9.022 12.7372975,9.1 C13.1618905,9.087 13.5993501,9.074 14.1140084,9.074 C14.5643343,9.074 14.9889274,9.087 15.2848559,9.1 C15.3620547,9.022 15.3620547,8.749 15.2848559,8.671 C14.7573312,8.619 14.6158002,8.567 14.6158002,7.488 L14.6158002,6.35830008 C14.8628361,6.36480008 15.0442532,6.38430008 15.1690578,6.4285 C15.3105888,6.526 15.4276737,6.643 15.5807844,6.851 L16.5200358,8.125 C16.8983095,8.6385 17.0437007,8.88290004 17.060427,9.035 C17.0642868,9.074 17.0732934,9.1 17.1118928,9.1 C17.369222,9.087 17.652284,9.074 17.9096131,9.074 C18.3084733,9.074 18.7073335,9.087 18.9646626,9.1 C19.0418613,9.022 19.0418613,8.749 18.9646626,8.671 C18.5272031,8.619 18.2016819,8.56180008 17.8581473,8.125 L16.159775,5.967 C16.1134557,5.9085 16.0697098,5.85 16.0697098,5.785 C16.0697098,5.733 16.0697098,5.707 16.1211756,5.655 L17.2534238,4.472 C17.6394175,4.056 18.0897435,3.952 18.6044018,3.9 C18.6816006,3.822 18.6816006,3.549 18.6044018,3.471 C18.3084733,3.484 17.9482125,3.497 17.4850201,3.497 C16.9960947,3.497 16.5200358,3.484 16.2241073,3.471 C16.1469085,3.549 16.1469085,3.822 16.2241073,3.9 C16.9446289,3.952 16.6396937,4.41089984 16.5200358,4.563 C16.2241073,4.94 15.8213873,5.382 15.4907192,5.629 C15.2050839,5.84219992 14.8589761,5.99559996 14.6158002,6.02940004 L14.6158002,1.4950002 C14.6158002,0.650000198 14.667266,0.130000198 14.667266,0.130000198 C14.667266,0.0390001984 14.6158002,1.98363523e-07 14.5000021,1.98363523e-07 C14.1783406,0.130000198 13.2133564,0.312000198 12.6986981,0.351000198 C12.6729652,0.455000198 12.6986981,0.663000198 12.7758968,0.741000198 C13.4449526,0.780000198 13.5993501,0.715000198 13.5993501,1.8070002 L13.5993501,7.488 Z M20.2800104,5.408 C20.5244731,3.939 21.4251251,3.822 21.73392,3.822 C22.2228454,3.822 22.8018359,4.095 22.8018359,5.187 C22.8018359,5.304 22.7503701,5.36639984 22.6088391,5.369 L20.2800104,5.408 Z M23.6510221,7.865 C23.1749632,8.359 22.8018359,8.567 22.0555814,8.567 C21.592389,8.567 21.0519978,8.294 20.6531376,7.631 C20.3958085,7.202 20.241411,6.604 20.241411,5.85 L23.6638886,5.876 C23.818286,5.876 23.9083512,5.798 23.9083512,5.655 C23.9083512,4.563 23.5223575,3.393 21.73392,3.393 C20.6145383,3.393 19.1606286,4.472 19.1606286,6.448 C19.1606286,7.176 19.340759,7.878 19.7653521,8.372 C20.2028117,8.892 20.8075351,9.204 21.73392,9.204 C22.7117707,9.204 23.4065594,8.749 23.9212177,8.073 C23.8826183,7.943 23.8054196,7.878 23.6510221,7.865 Z M25.2622984,7.488 C25.2622984,8.567 25.1207674,8.632 24.3359135,8.671 C24.2587148,8.749 24.2587148,9.022 24.3359135,9.1 C24.7862395,9.087 25.2622984,9.074 25.7769567,9.074 C26.2916149,9.074 26.7805403,9.087 27.2051334,9.1 C27.2823321,9.022 27.2823321,8.749 27.2051334,8.671 C26.4202795,8.632 26.2787485,8.567 26.2787485,7.488 L26.2787485,1.495 C26.2787485,0.65 26.3302143,0.13 26.3302143,0.13 C26.3302143,0.039 26.2787485,9.09494702e-13 26.1629504,9.09494702e-13 C25.841289,0.13 24.8763047,0.312 24.3616464,0.351 C24.3359135,0.455 24.3616464,0.663 24.4388452,0.741 C25.1850997,0.793 25.2622984,0.832 25.2622984,1.807 L25.2622984,7.488 Z M28.263152,7.488 C28.263152,8.567 28.121621,8.632 27.3367671,8.671 C27.2595684,8.749 27.2595684,9.022 27.3367671,9.1 C27.7870931,9.087 28.263152,9.074 28.7778103,9.074 C29.2924686,9.074 29.7813939,9.087 30.205987,9.1 C30.2831858,9.022 30.2831858,8.749 30.205987,8.671 C29.4211332,8.632 29.2796021,8.567 29.2796021,7.488 L29.2796021,1.495 C29.2796021,0.65 29.331068,0.13 29.331068,0.13 C29.331068,0.039 29.2796021,9.09494702e-13 29.163804,9.09494702e-13 C28.8421426,0.13 27.8771583,0.312 27.3625001,0.351 C27.3367671,0.455 27.3625001,0.663 27.4396988,0.741 C28.1859533,0.793 28.263152,0.832 28.263152,1.807 L28.263152,7.488 Z M30.569217,6.409 C30.569217,7.735 31.4441361,9.204 33.271173,9.204 C34.0997727,9.204 34.7225091,8.90890004 35.1612554,8.476 C35.7376729,7.90659996 35.9988618,7.08890004 35.9988618,6.292 C35.9988618,4.94 35.2654738,3.367 33.2969059,3.367 C32.450293,3.367 31.7516443,3.718 31.2807321,4.277 C30.8136797,4.83080008 30.569217,5.58739984 30.569217,6.409 Z M33.103909,3.822 C34.2104243,3.822 34.8923465,4.836 34.8923465,6.708 C34.8923465,8.346 34.0560268,8.749 33.4513033,8.749 C32.1131918,8.749 31.6757323,7.111 31.6757323,6.11 C31.6757323,4.979 31.9459279,3.822 33.103909,3.822 Z M39.6173054,6.175 C39.7845693,6.175 39.9646997,5.811 39.9646997,5.655 C39.9646997,5.525 39.9132339,5.395 39.7845693,5.395 L36.9668153,5.395 C36.8124178,5.395 36.6451538,5.694 36.6451538,5.928 C36.6451538,6.058 36.7223526,6.175 36.8381507,6.175 L39.6173054,6.175 Z M40.6367247,3.497 C40.4565943,3.497 40.4051284,3.653 40.4051284,3.757 L40.4051284,3.926 C40.4051284,3.991 40.4179949,4.004 40.4694607,4.004 L41.2285817,4.004 L41.2285817,7.917 C41.2285817,8.84 41.6274418,9.204 42.2192989,9.204 C42.8111559,9.204 43.4544787,8.918 43.9562705,8.346 C43.9305376,8.21209996 43.8533389,8.138 43.7246743,8.125 C43.3901464,8.385 43.0041527,8.489 42.6696249,8.489 C42.3222305,8.489 42.2450318,8.099 42.2450318,7.293 L42.2450318,4.004 L43.5831433,4.004 C43.7118079,4.004 43.8919383,3.952 43.8919383,3.835 L43.8919383,3.575 C43.8919383,3.523 43.8533389,3.497 43.7890066,3.497 L42.2450318,3.497 L42.2450318,2.99 C42.2450318,2.145 42.2964976,1.625 42.2964976,1.625 C42.2964976,1.54179968 42.2578982,1.51060016 42.1974259,1.51060016 C42.1395269,1.51060016 42.030162,1.56129968 41.9105039,1.62760016 C41.7651129,1.7095 41.6338751,1.76539984 41.4730444,1.81089984 C41.3186469,1.85510016 41.1899823,1.89929968 41.1899823,1.989 C41.1899823,2.13979968 41.2285817,2.054 41.2285817,3.49569992 L40.6367247,3.497 Z M44.3709663,7.28 C44.4224322,7.917 44.4610315,8.528 44.4610315,9.074 C44.5896961,9.048 44.7183607,9.035 44.782693,9.035 C44.8727582,9.035 44.9499569,9.035 45.0400221,9.061 C45.3874164,9.152 45.7348108,9.204 46.2108697,9.204 C46.9313913,9.204 48.2566363,8.853 48.2566363,7.566 C48.2566363,6.67809996 47.6261799,6.162 46.7512609,5.83440004 C45.9767002,5.5445 45.4646152,5.343 45.4646152,4.628 C45.4646152,4.095 45.9278076,3.796 46.3652672,3.796 C46.6483292,3.796 47.3945837,3.9 47.5618477,5.005 C47.6390464,5.083 47.8963755,5.07 47.9735743,4.992 C48.0121736,4.524 48.0379066,4.043 48.050773,3.614 C47.6519129,3.549 47.0343229,3.367 46.3652672,3.367 C45.4131494,3.367 44.5510967,3.991 44.5510967,4.823 C44.5510967,5.772 44.9756898,6.175 45.966407,6.591 C47.0343229,7.033 47.2787856,7.306 47.2787856,7.865 C47.2787856,8.502 46.6611957,8.775 46.1851368,8.775 C45.6833449,8.775 45.4041429,8.60210016 45.2716183,8.463 C44.9885563,8.164 44.8470253,7.592 44.7698265,7.267 C44.6926278,7.189 44.4481651,7.202 44.3709663,7.28 Z M49.9708443,5.408 C50.215307,3.939 51.1159589,3.822 51.4247539,3.822 C51.9136793,3.822 52.4926698,4.095 52.4926698,5.187 C52.4926698,5.304 52.441204,5.36639984 52.299673,5.369 L49.9708443,5.408 Z M53.341856,7.865 C52.8657971,8.359 52.4926698,8.567 51.7464153,8.567 C51.2832229,8.567 50.7428317,8.294 50.3439715,7.631 C50.0866424,7.202 49.9322449,6.604 49.9322449,5.85 L53.3547224,5.876 C53.5091199,5.876 53.5991851,5.798 53.5991851,5.655 C53.5991851,4.563 53.2131914,3.393 51.4247539,3.393 C50.3053722,3.393 48.8514625,4.472 48.8514625,6.448 C48.8514625,7.176 49.0315929,7.878 49.456186,8.372 C49.8936455,8.892 50.498369,9.204 51.4247539,9.204 C52.4026046,9.204 53.0973933,8.749 53.6120516,8.073 C53.5734522,7.943 53.4962535,7.878 53.341856,7.865 Z M55.9695824,4.355 C56.3041103,4.056 56.690104,3.939 57.0632312,3.939 C57.8480851,3.939 58.4914079,4.901 58.4914079,6.162 C58.4914079,7.644 57.8995509,8.762 56.6772375,8.762 C56.2783773,8.762 56.0081817,8.476 55.7508526,8.151 L55.7508526,4.901 C55.7508526,4.628 55.8036052,4.50319992 55.9695824,4.355 Z M55.8795172,3.952 C55.7984585,4.02610016 55.7508526,4.004 55.7508526,3.887 L55.7508526,1.495 C55.7508526,0.65 55.8023184,0.13 55.8023184,0.13 C55.8023184,0.039 55.7508526,0 55.6350545,0 C55.3133931,0.13 54.3484088,0.312 53.8337505,0.351 C53.8080176,0.455 53.8337505,0.663 53.9109493,0.741 C54.580005,0.78 54.7344025,0.715 54.7344025,1.807 L54.7344025,8.151 C54.7344025,8.658 54.7215361,8.892 54.6829367,9.074 C54.747269,9.178 54.8116013,9.23 54.9659987,9.23 C55.0444842,9.15459996 55.171862,9.03369992 55.2709337,8.918 C55.4034583,8.762 55.480657,8.762 55.622188,8.88159996 C55.9168298,9.1325 56.3002503,9.204 56.7544362,9.204 C58.0668149,9.204 59.5979232,7.995 59.5979232,5.928 C59.5979232,4.342 58.4399421,3.367 57.3205604,3.367 C56.7685894,3.367 56.2783773,3.588 55.8795172,3.952 Z M60.3342804,6.409 C60.3342804,7.735 61.2091995,9.204 63.0362364,9.204 C63.8648361,9.204 64.4875726,8.90890004 64.9263188,8.476 C65.5027363,7.90659996 65.7639253,7.08890004 65.7639253,6.292 C65.7639253,4.94 65.0305372,3.367 63.0619693,3.367 C62.2153564,3.367 61.5167078,3.718 61.0457956,4.277 C60.5787431,4.83080008 60.3342804,5.58739984 60.3342804,6.409 Z M62.8689725,3.822 C63.9754878,3.822 64.65741,4.836 64.65741,6.708 C64.65741,8.346 63.8210903,8.749 63.2163668,8.749 C61.8782553,8.749 61.4407957,7.111 61.4407957,6.11 C61.4407957,4.979 61.7109913,3.822 62.8689725,3.822 Z M71.3410395,11.154 C71.5417563,10.7926 71.7103067,10.4208001 71.8685642,10.036 C72.8978807,7.527 73.4742979,6.19319992 74.1459271,4.732 C74.3993964,4.18210016 74.5833866,3.97410016 75.1881101,3.9 C75.2653088,3.822 75.2653088,3.549 75.1881101,3.471 C74.9307809,3.484 74.6348524,3.497 74.2745916,3.497 C73.8885979,3.497 73.4897378,3.484 73.1037441,3.471 C73.0265453,3.549 73.0265453,3.822 73.1037441,3.9 C73.5103242,3.939 73.9271973,4.017 73.721334,4.485 L72.4449813,7.462 C72.3549161,7.67130008 72.2468379,7.70640004 72.1374731,7.449 L70.9962184,4.745 C70.764622,4.19639984 70.6977164,3.95589984 71.418238,3.9 C71.4954367,3.822 71.4954367,3.549 71.418238,3.471 C70.9421791,3.484 70.4275208,3.497 69.9643284,3.497 C69.5268688,3.497 69.1794745,3.484 68.9221454,3.471 C68.8449466,3.549 68.8449466,3.822 68.9221454,3.9 C69.4329437,3.965 69.6002076,4.082 69.9373087,4.875 L71.3925051,8.294 C71.5044432,8.55530008 71.7013001,9.152 71.5726355,9.516 C71.4195247,9.95019992 71.2638405,10.309 71.0708437,10.712 C70.9293126,10.972 70.7491822,11.089 70.4275208,11.089 C70.2473904,11.089 70.1959246,11.05 70.0543936,11.05 C69.6812663,11.05 69.4882695,11.44 69.4882695,11.609 C69.4882695,11.882 69.7455986,12.09 70.0929929,12.09 C70.3631885,12.09 70.8778468,11.986 71.3410393,11.154 L71.3410395,11.154 Z M78.7164884,6.045 L78.7164884,7.761 C78.7164884,7.93 78.6392897,8.021 78.5363581,8.099 C78.2018302,8.372 77.7643706,8.671 77.4041098,8.671 C76.760787,8.671 76.4777249,8.151 76.4777249,7.748 C76.4777249,7.163 76.7479205,6.565 77.7000384,6.318 L78.7164884,6.045 Z M78.7164884,8.45 C78.7936872,8.853 78.9300717,9.204 79.5785411,9.204 C80.0713262,9.204 80.5345186,8.983 80.8008545,8.723 C80.7789813,8.56310016 80.7275155,8.45390004 80.5821247,8.372 C80.4856263,8.45260016 80.26947,8.58 80.1060658,8.58 C79.7329385,8.58 79.7200721,8.073 79.7200721,7.475 L79.7200721,5.564 C79.7200721,3.718 78.7164884,3.367 77.7772371,3.367 C76.7221876,3.367 75.6542717,4.069 75.6542717,4.81 C75.6542717,5.122 75.8086692,5.278 76.1045977,5.278 C76.4777249,5.278 76.7093212,5.005 76.7093212,4.836 C76.7093212,4.745 76.6964547,4.654 76.6707218,4.602 C76.6578553,4.563 76.6449889,4.485 76.6449889,4.342 C76.6449889,3.939 77.1853801,3.796 77.6743054,3.796 C78.111765,3.796 78.7164884,4.017 78.7164884,5.486 C78.7164884,5.577 78.6778891,5.629 78.6392897,5.642 L77.5327744,5.915 C76.2975945,6.227 75.409809,6.916 75.409809,7.8 C75.409809,8.866 76.1303306,9.204 77.0309826,9.204 C77.4787353,9.204 77.8673023,9.1 78.4334264,8.658 L78.6907555,8.45 L78.7164884,8.45 Z M91.7780208,7.566 C91.8423531,8.619 91.794747,8.632 90.9584273,8.671 C90.8812286,8.749 90.8812286,9.022 90.9584273,9.1 C91.4344862,9.087 91.9491445,9.074 92.3351382,9.074 C92.7211319,9.074 93.3104155,9.087 93.737582,9.1 C93.8147808,9.022 93.8147808,8.749 93.737582,8.671 C92.8626629,8.632 92.8227772,8.57740004 92.7481512,7.501 L92.3647309,2.028 C92.3094053,1.326 92.3737376,1.144 93.2486567,1.092 C93.3258554,1.014 93.3258554,0.741 93.2486567,0.663 L91.5631508,0.689 L88.8354619,7.28 C88.7839961,7.41 88.7453967,7.462 88.7196638,7.462 C88.6939309,7.462 88.6566183,7.39180008 88.6167322,7.293 L85.9791085,0.689 L84.1134723,0.663 C84.0362735,0.741 84.0362735,1.014 84.1134723,1.092 C85.0012578,1.144 85.0784565,1.17 84.9883913,2.145 L84.4724463,7.501 C84.3965343,8.27969992 84.2421368,8.606 83.5087488,8.671 C83.43155,8.749 83.43155,9.022 83.5087488,9.1 C83.8947425,9.087 84.3064691,9.074 84.6152641,9.074 C84.924059,9.074 85.4387173,9.087 85.824711,9.1 C85.9019098,9.022 85.9019098,8.749 85.824711,8.671 C84.9755249,8.606 84.9060461,8.20690004 84.9755249,7.475 L85.4644502,2.262 L85.4901831,2.262 L88.1535397,9.009 C88.1895656,9.10130008 88.2693378,9.204 88.3465366,9.204 C88.4237353,9.204 88.4752011,9.113 88.526667,9.009 L91.4216198,2.132 L91.4473527,2.132 L91.7780208,7.566 Z M101.167466,9.09494702e-13 C101.283264,9.09494702e-13 101.33473,0.039 101.33473,0.13 C101.33473,0.13 101.283264,0.65 101.283264,1.495 L101.272971,4.42 C101.272971,4.602 101.355316,4.46939984 101.399062,4.42 C102.183916,3.536 102.954617,3.367 103.58636,3.367 C104.036686,3.367 104.43812,3.523 104.654276,3.809 C104.954064,4.2055 105.00167,4.836 105.00167,5.551 L105.00167,7.488 C105.00167,8.554 105.143201,8.606 105.863723,8.671 C105.928055,8.749 105.928055,9.022 105.863723,9.1 C105.43913,9.087 105.014537,9.074 104.499878,9.074 C103.98522,9.074 103.547761,9.087 103.1875,9.1 C103.123167,9.022 103.123167,8.749 103.1875,8.671 C103.856556,8.606 103.98522,8.554 103.98522,7.488 L103.98522,5.512 C103.98522,5.122 103.959487,4.76839984 103.830823,4.511 C103.681572,4.21330008 103.411376,4.043 103.1489,4.043 C102.641962,4.043 101.990919,4.32510016 101.501994,4.81 C101.399062,4.92310016 101.283264,5.083 101.283264,5.35730008 L101.283264,7.488 C101.283264,8.567 101.399062,8.619 102.052678,8.671 C102.129877,8.749 102.129877,9.022 102.052678,9.1 C101.692417,9.087 101.270398,9.074 100.781472,9.074 C100.266814,9.074 99.7933284,9.087 99.3687353,9.1 C99.3292383,9.06009302 99.309949,8.96914224 99.3108676,8.87937852 C99.0415947,9.06642606 98.6712134,9.204 98.2824105,9.204 C97.6339411,9.204 97.4975566,8.853 97.4203579,8.45 L97.394625,8.45 L97.1372958,8.658 C96.5711717,9.1 96.1826048,9.204 95.734852,9.204 C94.8342,9.204 94.1136784,8.866 94.1136784,7.8 C94.1136784,6.916 95.001464,6.227 96.2366438,5.915 L97.3431591,5.642 C97.3817585,5.629 97.4203579,5.577 97.4203579,5.486 C97.4203579,4.017 96.8156344,3.796 96.3781749,3.796 C95.8892495,3.796 95.3488583,3.939 95.3488583,4.342 C95.3488583,4.485 95.3617248,4.563 95.3745912,4.602 C95.4003241,4.654 95.4131906,4.745 95.4131906,4.836 C95.4131906,5.005 95.1815944,5.278 94.8084671,5.278 C94.5125386,5.278 94.3581411,5.122 94.3581411,4.81 C94.3581411,4.069 95.426057,3.367 96.4811065,3.367 C97.4203579,3.367 98.4239415,3.718 98.4239415,5.564 L98.4239415,7.475 C98.4239415,8.073 98.436808,8.58 98.8099352,8.58 C98.9733394,8.58 99.1894957,8.45260016 99.2859941,8.372 C99.4313849,8.45390004 99.4828508,8.56310016 99.5047239,8.723 L99.4930749,8.66171861 C100.132147,8.60946887 100.266814,8.50420395 100.266814,7.488 L100.266814,1.807 C100.266814,0.715 100.112417,0.78 99.4433608,0.741 C99.366162,0.663 99.3404291,0.455 99.366162,0.351 C99.8808203,0.312 100.845805,0.13 101.167466,9.09494702e-13 Z M97.4203579,6.045 L96.4039078,6.318 C95.45179,6.565 95.1815944,7.163 95.1815944,7.748 C95.1815944,8.151 95.4646564,8.671 96.1079793,8.671 C96.4682401,8.671 96.9056996,8.372 97.2402275,8.099 C97.3431591,8.021 97.4203579,7.93 97.4203579,7.761 L97.4203579,6.045 Z M113.267874,9.09494702e-13 C113.383672,9.09494702e-13 113.435138,0.039 113.435138,0.13 C113.435138,0.13 113.383672,0.65 113.383672,1.495 L113.383672,7.488 C113.383672,8.567 113.525203,8.632 114.310057,8.671 C114.387256,8.749 114.387256,9.022 114.310057,9.1 C113.885464,9.087 113.396538,9.074 112.88188,9.074 C112.367222,9.074 111.891163,9.087 111.440837,9.1 C111.394159,9.05283721 111.375704,8.93438183 111.385474,8.83084815 C111.114016,9.04234908 110.714208,9.204 110.292753,9.204 C109.644284,9.204 109.507899,8.853 109.430701,8.45 L109.404968,8.45 L109.147638,8.658 C108.581514,9.1 108.192947,9.204 107.745195,9.204 C106.844543,9.204 106.124021,8.866 106.124021,7.8 C106.124021,6.916 107.011807,6.227 108.246986,5.915 L109.353502,5.642 C109.392101,5.629 109.430701,5.577 109.430701,5.486 C109.430701,4.017 108.825977,3.796 108.388518,3.796 C107.899592,3.796 107.359201,3.939 107.359201,4.342 C107.359201,4.485 107.372067,4.563 107.384934,4.602 C107.410667,4.654 107.423533,4.745 107.423533,4.836 C107.423533,5.005 107.191937,5.278 106.81881,5.278 C106.522881,5.278 106.368484,5.122 106.368484,4.81 C106.368484,4.069 107.4364,3.367 108.491449,3.367 C109.430701,3.367 110.434284,3.718 110.434284,5.564 L110.434608,7.6015984 C110.43796,8.14284184 110.473803,8.58 110.820278,8.58 C110.983682,8.58 111.199838,8.45260016 111.296337,8.372 C111.441728,8.45390004 111.493193,8.56310016 111.515067,8.723 L111.505979,8.66760174 C112.233593,8.62750541 112.367222,8.53644425 112.367222,7.488 L112.367222,1.807 C112.367222,0.832 112.290023,0.793 111.543769,0.741 C111.46657,0.663 111.440837,0.455 111.46657,0.351 C111.981228,0.312 112.946212,0.13 113.267874,9.09494702e-13 Z M109.430701,6.045 L108.41425,6.318 C107.462133,6.565 107.191937,7.163 107.191937,7.748 C107.191937,8.151 107.474999,8.671 108.118322,8.671 C108.478583,8.671 108.916042,8.372 109.25057,8.099 C109.353502,8.021 109.430701,7.93 109.430701,7.761 L109.430701,6.045 Z M117.915634,6.045 L117.915634,7.761 C117.915634,7.93 117.838435,8.021 117.735504,8.099 C117.400976,8.372 116.963516,8.671 116.603255,8.671 C115.959933,8.671 115.67687,8.151 115.67687,7.748 C115.67687,7.163 115.947066,6.565 116.899184,6.318 L117.915634,6.045 Z M117.915634,8.45 C117.992833,8.853 118.129217,9.204 118.777687,9.204 C119.270472,9.204 119.733664,8.983 120,8.723 C119.978127,8.56310016 119.926661,8.45390004 119.78127,8.372 C119.684772,8.45260016 119.468615,8.58 119.305211,8.58 C118.932084,8.58 118.919218,8.073 118.919218,7.475 L118.919218,5.564 C118.919218,3.718 117.915634,3.367 116.976383,3.367 C115.921333,3.367 114.853417,4.069 114.853417,4.81 C114.853417,5.122 115.007815,5.278 115.303743,5.278 C115.67687,5.278 115.908467,5.005 115.908467,4.836 C115.908467,4.745 115.8956,4.654 115.869867,4.602 C115.857001,4.563 115.844134,4.485 115.844134,4.342 C115.844134,3.939 116.384526,3.796 116.873451,3.796 C117.310911,3.796 117.915634,4.017 117.915634,5.486 C117.915634,5.577 117.877035,5.629 117.838435,5.642 L116.73192,5.915 C115.49674,6.227 114.608955,6.916 114.608955,7.8 C114.608955,8.866 115.329476,9.204 116.230128,9.204 C116.677881,9.204 117.066448,9.1 117.632572,8.658 L117.889901,8.45 L117.915634,8.45 Z" id="st-tagline" fill="#000000" fill-rule="nonzero"></path>
    </g>
</svg>