<svg xmlns="http://www.w3.org/2000/svg" width="120" height="13"><path fill="#000" fill-rule="nonzero" d="M.015 9.088a.57.57 0 0 1-.005-.196l.018-.098.207-.02c.393-.036.561-.14.657-.409l.058-.16V4.952c0-3.08-.002-3.261-.046-3.42-.08-.293-.254-.41-.676-.456C.03 1.055.029 1.054.008.964a.484.484 0 0 1 0-.183L.03.691 1.4.683c1.078-.006 1.373 0 1.389.028.023.04.026.204.006.29-.013.052-.04.062-.209.078-.521.049-.668.203-.727.76-.03.289-.028 5.891.003 6.197.034.344.109.514.267.61.127.077.347.133.522.133.08 0 .113.014.133.055a.53.53 0 0 1 .004.305c-.017.03-.29.037-1.386.042l-1.364.005-.023-.098Zm3.231.084a.657.657 0 0 1-.017-.294c.02-.078.032-.086.168-.105.225-.032.375-.098.456-.202.139-.178.142-.225.142-2.217 0-1.82 0-1.822-.055-1.957-.047-.113-.076-.144-.19-.203a1.01 1.01 0 0 0-.286-.087L3.31 4.09l-.017-.152c-.009-.084-.007-.162.005-.175.012-.012.146-.043.297-.07.35-.06.745-.164.993-.26.277-.107.28-.102.244.404-.034.497-.034.701.001.726.016.011.055-.022.091-.076.142-.213.598-.69.767-.802.334-.221.713-.316 1.056-.264.386.058.645.256.794.604.18.419.21.789.21 2.579 0 1.454.012 1.677.102 1.888.063.147.237.252.463.278.129.015.156.028.168.078a.765.765 0 0 1 .001.283c-.013.055-.033.056-1.117.051l-1.103-.006v-.382l.075-.008c.154-.017.34-.094.421-.174.152-.15.153-.165.153-2.033 0-1.877.002-1.86-.175-2.163-.155-.266-.332-.364-.611-.338-.315.03-.616.214-.967.591a1.466 1.466 0 0 0-.274.379l-.07.157-.008 1.22c-.012 1.849.021 2.125.27 2.264a.909.909 0 0 0 .25.084c.132.021.138.026.16.125a.448.448 0 0 1 0 .191l-.022.088-1.107.005c-.609.002-1.11-.002-1.115-.01v.001Zm6.914.092a6.641 6.641 0 0 1-.34-.08c-.2-.05-.304-.063-.415-.05l-.149.017-.016-.108a3.476 3.476 0 0 1-.016-.361c0-.139-.013-.49-.029-.781-.032-.598-.036-.585.152-.573l.11.007.083.363c.184.805.405 1.09.907 1.172.485.08.95-.185 1.06-.603.044-.164.05-.518.012-.67-.078-.32-.329-.55-1.007-.931-.536-.301-.77-.484-.928-.724-.184-.282-.26-.58-.26-1.019 0-.523.18-.905.569-1.203.327-.25.701-.344 1.184-.293.225.023 1.058.202 1.085.232.004.005-.01.315-.03.69-.027.471-.048.691-.07.706-.049.035-.237.026-.259-.012a2.372 2.372 0 0 1-.075-.28c-.065-.29-.183-.552-.3-.668-.423-.417-1.051-.347-1.293.144-.07.143-.075.17-.074.46 0 .256.01.331.054.44.112.272.343.457.923.74.432.21.638.356.87.615.287.32.418.676.418 1.136 0 .453-.154.898-.397 1.148-.169.173-.516.37-.793.45-.158.044-.27.055-.55.052a5.526 5.526 0 0 1-.426-.016Zm3.804-.022c-.481-.15-.749-.47-.843-1.009a1.66 1.66 0 0 1 .402-1.432c.384-.437.76-.644 1.684-.924.302-.092.552-.182.57-.207.027-.035.031-.119.02-.367-.027-.646-.137-1.037-.35-1.257-.194-.2-.303-.24-.6-.221-.392.024-.607.121-.734.329-.055.092-.058.113-.041.364.01.146.018.312.02.368.005.202-.219.415-.437.416-.423.002-.487-.56-.123-1.101.202-.3.643-.608 1.039-.723.246-.072.684-.086.886-.029.344.098.663.328.82.592.12.204.191.406.26.743.046.23.052.388.068 1.823.02 1.72.028 1.82.164 1.98.138.16.385.17.519.019.08-.09.118-.087.178.016.053.091.033.131-.172.347-.191.2-.368.288-.629.308-.372.03-.607-.128-.777-.522-.05-.118-.094-.218-.097-.223a3.094 3.094 0 0 0-.276.247 2.645 2.645 0 0 1-.48.374l-.21.117-.364.007c-.261.005-.402-.004-.497-.035Zm1.005-.515c.25-.1.706-.475.794-.656.039-.08.043-.188.043-1.038v-.949l-.055.02-.498.17c-.516.173-.751.297-.933.491-.27.286-.424.803-.364 1.218.087.603.535.932 1.013.744Zm3.572 3.461c-.348-.145-.413-.5-.15-.826.11-.138.244-.18.449-.143.258.048.476-.028.596-.205.07-.103.229-.514.408-1.056.11-.335.116-.365.116-.646 0-.231-.014-.35-.065-.56-.072-.293-1.37-4.071-1.49-4.34-.14-.312-.285-.442-.529-.475-.115-.015-.125-.022-.15-.118a.428.428 0 0 1-.006-.194l.021-.092 1.03-.006c1.138-.005 1.054-.02 1.054.191 0 .17-.02.21-.098.21-.11 0-.325.083-.381.146-.103.116-.066.256.517 1.958.298.87.56 1.606.58 1.633.053.067.122.061.166-.014.08-.14 1.121-3.18 1.132-3.308.009-.095 0-.154-.03-.206-.053-.09-.213-.173-.392-.201-.128-.021-.135-.026-.157-.125a.454.454 0 0 1 0-.195l.024-.09.86.001.861.003.022.085a.486.486 0 0 1 0 .19c-.021.097-.033.11-.14.14-.254.073-.53.343-.685.672-.158.335-.728 1.923-1.342 3.742-.71 2.103-.795 2.345-.939 2.686-.179.424-.328.68-.509.871-.236.251-.555.363-.773.272Zm4.682-3.044a.802.802 0 0 1 .002-.315c.013-.035.045-.05.114-.05.151 0 .35-.079.444-.176a.536.536 0 0 0 .129-.272c.04-.17.043-.427.043-3.617 0-3.685.001-3.669-.125-3.837-.066-.089-.177-.133-.407-.16-.176-.023-.204-.058-.204-.26V.354l.418-.077c.23-.042.569-.122.753-.179.389-.12.418-.114.407.077-.003.067-.013 1.42-.02 3.006l-.015 2.884.059-.02c.127-.045.372-.263.659-.586.64-.72.932-1.179.862-1.352-.031-.077-.139-.142-.275-.167-.09-.016-.105-.03-.13-.12a.423.423 0 0 1-.005-.197l.022-.095.953-.003c.932-.002.952 0 .965.054a.583.583 0 0 1-.011.296c-.02.04-.053.054-.126.054-.148 0-.442.081-.585.161-.248.139-.38.283-.848.925l-.465.639.01.126c.01.106.114.317.65 1.304.352.647.693 1.245.758 1.329.137.177.287.263.585.335.2.048.207.053.228.143a.527.527 0 0 1 .001.19l-.02.097h-.811l-.812-.001-.012-.237a1.02 1.02 0 0 0-.118-.471c-.138-.309-.922-1.681-1.066-1.866-.113-.144-.268-.234-.405-.234h-.058v.764c0 1.354.06 1.574.44 1.638.053.009.11.036.128.06.035.05.041.252.01.308-.017.03-.236.038-1.064.042-.907.005-1.045 0-1.058-.036Zm6.186.097c-.54-.167-.82-.564-.864-1.228-.046-.701.346-1.324 1.101-1.75.243-.137.51-.237 1.098-.414.251-.075.464-.154.483-.18.026-.034.03-.117.02-.368-.037-.81-.198-1.22-.557-1.418-.127-.07-.15-.073-.39-.058-.395.024-.61.12-.737.329-.056.092-.059.112-.042.378.027.418.024.455-.051.565-.125.184-.371.256-.551.16-.12-.064-.17-.182-.17-.403.003-.532.51-1.114 1.168-1.343.638-.22 1.279-.084 1.679.359.191.21.3.467.39.914.046.23.052.39.068 1.837.02 1.776.024 1.816.184 1.981.048.05.126.098.173.108.12.026.285-.03.333-.114.048-.081.088-.087.14-.02.089.118.08.149-.111.359-.213.234-.379.32-.658.342-.372.03-.607-.128-.777-.522-.05-.118-.095-.218-.098-.223a3.094 3.094 0 0 0-.275.247 2.645 2.645 0 0 1-.48.373l-.21.118-.365.007c-.263.005-.402-.004-.501-.036Zm.986-.505c.248-.094.734-.488.817-.662.04-.083.044-.188.044-1.041 0-.89-.003-.948-.044-.934l-.505.172c-.569.194-.732.28-.932.49-.467.49-.517 1.408-.1 1.821a.696.696 0 0 0 .72.154Zm2.82.403c-.032-.069-.027-.257.01-.308.02-.03.09-.05.203-.061.209-.02.38-.11.455-.235.03-.05.066-.171.081-.27.036-.233.039-6.897.003-7.111a1.284 1.284 0 0 0-.056-.221c-.045-.105-.214-.192-.42-.215-.124-.014-.18-.033-.195-.066-.034-.072-.054-.239-.034-.272.01-.017.177-.058.371-.092.194-.034.503-.107.687-.161.458-.136.486-.14.514-.077.013.03.014.21.001.444-.011.216-.018 2.046-.014 4.066.007 3.482.01 3.68.053 3.825.078.26.208.353.54.387.09.009.17.03.18.047.011.017.02.094.02.171a.535.535 0 0 1-.02.168c-.01.018-.436.028-1.187.028-1.07 0-1.171-.004-1.192-.047Zm4.745.093c-.561-.138-.996-.487-1.308-1.05-.388-.699-.509-1.488-.372-2.43.126-.875.556-1.66 1.109-2.027.693-.46 1.738-.392 2.38.155.349.296.636.851.806 1.557.062.255.066.31.066.89 0 .578-.004.633-.066.89-.14.581-.424 1.153-.733 1.48-.205.215-.48.385-.797.491-.304.102-.773.12-1.085.044Zm1.05-.424c.562-.317.756-.861.756-2.117 0-1.676-.41-2.67-1.176-2.848a1 1 0 0 0-.99.343c-.278.347-.454.992-.48 1.764-.026.749.081 1.386.329 1.95.309.701.699 1.008 1.249.98a.657.657 0 0 0 .312-.072Zm2.953.433c-.046-.051-.058-.085-.043-.119.033-.074.042-7.51.01-7.821-.046-.443-.112-.523-.48-.578-.183-.027-.195-.033-.22-.112a.705.705 0 0 1-.025-.174c0-.09 0-.09.156-.109.227-.028.843-.17 1.114-.258.29-.093.317-.082.31.133-.018.607-.036 3.654-.023 3.736.01.056.029.102.042.102.014 0 .114-.081.223-.18.214-.196.481-.353.699-.411.353-.094.798-.01 1.148.219.227.148.584.558.716.821.231.462.347 1.055.323 1.654-.03.774-.229 1.493-.552 2.005a4.237 4.237 0 0 1-.67.74c-.169.13-.498.297-.692.35a2.11 2.11 0 0 1-.842.003.937.937 0 0 1-.444-.242c-.183-.156-.22-.147-.42.102-.102.127-.188.21-.218.21-.027 0-.077-.032-.112-.071Zm1.924-.42c.462-.135.811-.582.995-1.275.228-.854.203-1.924-.06-2.64-.266-.727-.714-1.052-1.253-.91-.32.084-.64.328-.745.57l-.06.134-.007 1.763-.007 1.764.06.1c.103.173.323.401.454.47.15.08.4.09.623.024Zm4.446.421c-.643-.144-1.17-.671-1.418-1.421-.271-.818-.237-1.97.084-2.825.234-.622.754-1.208 1.275-1.435.346-.151.733-.163 1.173-.036.38.11.71.394.88.756.175.375.281.87.281 1.313 0 .18-.007.211-.062.27l-.062.065-1.452-.02-1.451-.018.017.316c.05.92.261 1.556.676 2.029.149.17.245.251.375.321.159.086.199.096.449.105.491.019.776-.102 1.127-.48l.205-.219.075.044c.116.067.12.136.017.294-.125.192-.479.559-.646.671a1.952 1.952 0 0 1-.611.272c-.207.05-.708.048-.932-.001Zm1.302-3.838c.06-.032.062-.039.06-.34-.001-.499-.126-.849-.37-1.046a.718.718 0 0 0-.515-.173c-.18 0-.21.009-.417.126-.145.081-.26.169-.326.25-.173.211-.312.57-.415 1.078l-.036.178.978-.02c.658-.014.999-.03 1.04-.053Zm3.47 3.85c-.649-.143-1.169-.638-1.424-1.355-.316-.886-.28-2.102.09-2.985.14-.335.282-.557.515-.807.494-.527.953-.727 1.504-.656.652.083 1.051.348 1.274.844.176.392.252.72.278 1.192.015.286.015.287-.053.364l-.07.078-1.444-.02-1.445-.018v.195c0 .286.066.8.139 1.085.167.655.524 1.18.96 1.409.115.06.18.074.413.083.477.018.776-.11 1.125-.48.181-.194.212-.216.257-.19a.326.326 0 0 1 .091.1c.038.065.036.073-.072.23-.323.47-.782.813-1.236.92-.183.044-.722.05-.901.01v.001Zm1.272-3.85c.061-.032.062-.038.058-.34-.007-.566-.16-.92-.486-1.122-.123-.077-.153-.083-.383-.083-.235 0-.26.006-.422.097-.377.212-.564.515-.713 1.151a6.722 6.722 0 0 0-.076.346c0 .037 1.947-.01 2.022-.049Zm5.208 3.887c-.025-.048-.092-.434-.107-.62-.015-.18-.022-.2-.071-.2-.03 0-.13.074-.227.17-.223.22-.58.485-.757.565-.118.053-.188.063-.44.064-.25 0-.33-.01-.485-.068-.793-.292-1.274-1.31-1.274-2.698 0-.938.253-1.732.74-2.323.58-.703 1.356-.937 2.127-.643.264.101.341.105.362.02.024-.1.016-1.884-.01-2.205a1.622 1.622 0 0 0-.067-.392c-.059-.135-.206-.217-.433-.243-.197-.022-.223-.053-.223-.26V.353l.418-.077c.23-.042.569-.122.753-.179.242-.074.345-.095.374-.074.034.024.038.08.027.39-.007.198-.012 1.963-.012 3.921v3.561l.066.159c.083.199.206.286.498.355.188.043.21.056.232.125a.262.262 0 0 1 0 .152c-.02.07-.043.08-.299.136a4.336 4.336 0 0 0-.412.11c-.158.057-.487.248-.561.326-.05.052-.197.074-.219.032Zm-1.03-.653c.285-.12.76-.536.854-.748.044-.1.047-.195.047-1.662V4.672l-.068-.157c-.237-.54-.796-.797-1.333-.611-.276.096-.435.245-.638.597-.3.522-.402 1.797-.222 2.78.126.689.451 1.224.838 1.38.127.051.372.04.522-.023Zm2.772.492c-.02-.081-.017-.275.004-.311.01-.017.082-.038.158-.047.334-.037.49-.156.55-.417.029-.123.035-.784.035-3.697V1.11l-.056-.134c-.066-.162-.179-.228-.436-.258-.092-.01-.179-.035-.193-.054a.46.46 0 0 1-.033-.171L61.35.359l.412-.078a7.3 7.3 0 0 0 .988-.254c.193-.063.194-.06.176.489-.012.38-.028 3.771-.019 3.98.005.092.064.05.215-.15.52-.69 1.165-1.023 1.789-.925.487.077.768.376.895.953.08.36.099.803.099 2.26 0 1.45.012 1.673.102 1.871.063.137.24.238.467.265.152.018.154.019.17.116a.6.6 0 0 1-.006.195l-.022.096H64.42l-.017-.094a.636.636 0 0 1 0-.19c.018-.094.025-.1.155-.12.18-.03.348-.126.414-.238.098-.166.11-.37.108-1.944 0-1.605-.012-1.785-.126-2.06-.078-.185-.257-.384-.387-.427-.368-.123-.883.1-1.34.581-.087.091-.19.233-.231.315l-.074.149-.007 1.458c-.007 1.488.003 1.723.087 1.915.057.132.2.223.39.247.101.013.15.033.168.069.029.062.03.25.002.301-.017.03-.243.038-1.122.042-1.081.005-1.1.005-1.114-.05Zm5.748-.009a.422.422 0 0 1 .001-.265c.02-.06.044-.07.198-.088a.818.818 0 0 0 .308-.095c.281-.16.302-.344.288-2.544-.007-1.108-.018-1.57-.04-1.645-.065-.224-.212-.332-.515-.377-.069-.01-.133-.032-.143-.05a.583.583 0 0 1-.019-.173V3.74l.14-.018a6.525 6.525 0 0 0 1.065-.26c.255-.09.299-.099.329-.064.03.034.031.138.01.658-.013.34-.02 1.412-.016 2.383.008 1.501.015 1.788.048 1.914.07.264.225.383.542.416l.178.019.025.102a.432.432 0 0 1 0 .2l-.024.096H67.097l-.022-.065Zm1.07-7.194c-.296-.096-.487-.567-.353-.867.136-.303.447-.465.657-.342.164.095.327.403.326.615a.664.664 0 0 1-.046.198c-.123.302-.366.466-.585.396Zm2.494 10.262c-.33-.137-.387-.55-.12-.85.11-.123.234-.157.438-.12.285.05.512-.044.626-.263.08-.152.25-.613.387-1.04.098-.307.108-.361.108-.604 0-.203-.015-.331-.066-.541-.07-.29-1.334-3.986-1.478-4.323-.12-.28-.211-.392-.375-.461a.738.738 0 0 0-.212-.058c-.057 0-.08-.017-.1-.072-.029-.087-.03-.237-.002-.287.03-.054 2.069-.064 2.087-.01.025.071.013.275-.018.317-.017.024-.104.058-.193.075a.63.63 0 0 0-.225.086c-.057.048-.062.07-.06.245.003.18.037.29.52 1.692.632 1.838.594 1.74.67 1.74.034 0 .073-.016.088-.035.055-.075 1.131-3.21 1.143-3.33a.431.431 0 0 0-.02-.196c-.042-.09-.22-.188-.389-.212-.15-.022-.18-.061-.18-.228 0-.198-.045-.188.896-.19.941-.002.876-.016.876.195 0 .162-.02.21-.084.21-.099 0-.352.159-.475.297-.066.076-.16.202-.206.28-.153.257-.763 1.956-1.694 4.723-.615 1.825-.796 2.26-1.091 2.624-.236.289-.61.438-.851.337Zm5.779-2.947c-.482-.15-.75-.47-.844-1.009a1.66 1.66 0 0 1 .402-1.432c.384-.437.76-.644 1.685-.924.301-.092.551-.182.57-.207.026-.035.03-.119.02-.367-.028-.646-.137-1.037-.351-1.257-.193-.2-.303-.24-.6-.221-.391.024-.607.121-.733.329-.056.092-.059.113-.042.364.01.146.019.312.02.368.005.202-.218.415-.436.416-.424.002-.487-.56-.124-1.101.202-.3.644-.608 1.04-.723.245-.072.684-.086.885-.029.344.098.663.328.82.592.12.204.192.406.26.743.046.23.052.388.069 1.823.02 1.72.027 1.82.164 1.98.137.16.384.17.518.019.08-.09.118-.087.179.016.053.091.033.131-.172.347-.192.2-.37.288-.63.308-.372.03-.607-.128-.776-.522l-.098-.223a3.094 3.094 0 0 0-.276.247 2.645 2.645 0 0 1-.48.374l-.21.117-.364.007c-.26.005-.401-.004-.496-.035Zm1.004-.515c.25-.1.706-.475.794-.656.04-.08.044-.188.044-1.038v-.949l-.055.02-.5.17c-.515.173-.75.297-.932.491-.27.286-.424.803-.364 1.218.087.603.536.932 1.013.744Zm5.26.448c-.025-.029-.008-.282.02-.302a.904.904 0 0 1 .2-.055c.337-.065.628-.286.914-.693.165-.236 1.671-2.802 1.718-2.929.081-.219.08-.224-.828-1.834a79.296 79.296 0 0 0-.964-1.678c-.234-.359-.484-.576-.753-.654a1.122 1.122 0 0 1-.168-.06c-.014-.009-.025-.079-.025-.155V.676h2.396V.83c0 .084-.01.16-.023.169-.013.009-.133.027-.266.042-.307.032-.36.075-.312.254.03.117 1.415 2.69 1.497 2.783.027.031.06.043.088.031.046-.02 1.443-2.352 1.567-2.614a.693.693 0 0 0 .07-.261c0-.099-.009-.115-.081-.148a1.146 1.146 0 0 0-.277-.054 1.135 1.135 0 0 1-.218-.034c-.013-.009-.023-.084-.023-.168V.676h2.1l-.008.161-.008.162-.205.035c-.32.054-.46.126-.662.34-.147.155-.31.412-.999 1.57a45.735 45.735 0 0 0-.857 1.479.62.62 0 0 0 .024.462c.032.068.483.842 1.001 1.721.766 1.298.976 1.635 1.12 1.796.215.239.358.336.594.403.199.057.228.091.216.258l-.007.114h-2.446V8.85l.237-.037c.296-.046.36-.087.341-.217-.008-.058-.326-.649-.824-1.533-.86-1.523-.883-1.558-.988-1.436-.06.068-1.486 2.505-1.567 2.676-.08.168-.072.35.018.424a.788.788 0 0 0 .262.088l.2.037v.327l-1.032.003a22.654 22.654 0 0 1-1.042-.008Zm9.075.055c-.663-.159-1.107-.559-1.436-1.291a3.377 3.377 0 0 1-.304-1.332c-.05-1.297.468-2.497 1.27-2.94.257-.141.43-.198.736-.24.38-.053.882.049 1.256.256.586.324 1.03 1.165 1.15 2.174.037.304.017.928-.037 1.208-.16.828-.567 1.558-1.046 1.879a2.07 2.07 0 0 1-1.59.286Zm1.08-.445a1.3 1.3 0 0 0 .515-.6c.143-.36.205-.8.205-1.47 0-.558-.033-.944-.115-1.36-.206-1.038-.69-1.583-1.361-1.53-.577.045-.922.49-1.112 1.436-.054.27-.077 1.17-.037 1.474.129.993.488 1.743.958 2.003.221.122.35.153.595.143a.65.65 0 0 0 .351-.096Zm2.327.364a.91.91 0 0 1 .006-.33c.01-.017.086-.038.168-.046.347-.034.501-.149.578-.429.043-.155.046-.298.046-1.962 0-1.675-.003-1.803-.046-1.928a.523.523 0 0 0-.126-.202.948.948 0 0 0-.442-.155c-.08 0-.097-.041-.097-.223V3.74l.143-.018a7.3 7.3 0 0 0 1.112-.273c.33-.123.328-.126.293.353a10.19 10.19 0 0 0-.026.568c0 .18.006.207.042.199.024-.005.083-.086.132-.18.282-.542.638-.889.987-.962.506-.107.892.412.667.895-.116.25-.31.376-.497.323-.04-.011-.146-.11-.246-.228-.167-.196-.183-.208-.286-.208-.093 0-.12.015-.2.11a3.788 3.788 0 0 0-.466.816 2.201 2.201 0 0 0-.106.392c-.034.238-.035 2.244 0 2.548.031.285.08.431.177.522.09.084.272.148.492.172.105.01.177.033.196.061.036.05.042.253.01.31-.032.055-2.493.064-2.512.008v.001Zm5.144.094c-.228-.091-.384-.316-.464-.671-.049-.213-.05-.307-.05-2.39V4.013h-.336c-.38 0-.384-.002-.352-.237.028-.214.071-.24.405-.24h.289l-.01-.804-.008-.805.35-.204c.191-.112.373-.205.402-.205.097-.001.105.047.083.49-.012.231-.022.67-.023.974v.553l.667.008.668.008v.196c0 .272.016.266-.732.267h-.606l.009 2.026c.008 1.714.015 2.05.048 2.186.078.325.181.404.467.359.219-.035.416-.117.583-.244.152-.115.237-.106.28.03.024.076.015.09-.202.324-.25.27-.546.465-.824.546-.187.054-.511.056-.643.003Zm3.117-.01c-.578-.195-.843-.612-.842-1.322.001-.542.206-.964.651-1.34.37-.313.692-.465 1.508-.71.264-.08.494-.158.511-.173.02-.018.031-.107.031-.256 0-.428-.074-.896-.177-1.125a1.043 1.043 0 0 0-.407-.436c-.111-.054-.157-.06-.376-.047-.363.021-.596.122-.723.312-.053.08-.06.204-.035.681.007.142 0 .187-.043.252-.223.338-.662.296-.73-.068-.104-.544.436-1.241 1.153-1.49.396-.137.853-.136 1.182.003.18.075.485.308.58.441.097.139.208.393.26.598.099.384.115.664.115 1.96 0 1.647.029 1.947.2 2.11.138.13.38.117.499-.025.077-.092.115-.088.164.018.053.116.022.181-.173.365-.236.222-.419.303-.679.304-.237 0-.397-.066-.536-.223-.116-.13-.249-.377-.249-.461 0-.093-.058-.067-.23.1-.26.254-.414.375-.609.478-.166.088-.183.091-.533.098-.29.006-.392-.004-.512-.044Zm1.03-.51c.235-.093.72-.488.793-.647.05-.108.055-2.002.005-1.98a23.95 23.95 0 0 1-.499.17 5.195 5.195 0 0 0-.639.254c-.445.252-.677.687-.677 1.268 0 .3.053.497.184.691a.688.688 0 0 0 .832.245Zm6.476.517a1.152 1.152 0 0 1-.722-.595c-.135-.278-.181-.778-.104-1.112.14-.605.714-1.179 1.46-1.46.075-.029.367-.122.648-.208.623-.19.585-.144.547-.674-.054-.76-.204-1.122-.543-1.309-.218-.12-.777-.054-1.01.12-.145.107-.204.277-.178.514.036.326.029.485-.026.567-.13.193-.39.273-.562.172-.265-.154-.214-.714.1-1.111.365-.461.912-.725 1.51-.73.313-.002.474.04.739.196.428.252.624.6.738 1.314.032.202.043.564.057 1.795.015 1.34.023 1.561.06 1.688.088.306.392.409.6.203.046-.045.096-.083.111-.083.048 0 .11.136.094.207-.023.102-.282.352-.465.45-.148.079-.184.086-.412.086-.223 0-.263-.008-.377-.075a.792.792 0 0 1-.206-.186c-.08-.113-.202-.383-.203-.447 0-.065-.046-.035-.237.154-.273.27-.514.446-.702.512-.2.068-.685.075-.917.012Zm1.111-.564c.168-.09.513-.367.624-.502.11-.134.12-.242.121-1.198 0-.836-.003-.89-.043-.877l-.48.158c-.754.248-1.013.43-1.196.841-.218.49-.204.984.04 1.38.18.295.588.381.934.198Zm2.64.463c-.033-.069-.028-.257.009-.309.018-.025.088-.05.168-.06.294-.034.438-.126.509-.326.021-.06.05-.247.065-.413.032-.384.033-6.275 0-6.678a1.62 1.62 0 0 0-.068-.392c-.058-.135-.206-.217-.433-.243-.196-.022-.223-.053-.223-.261V.354l.418-.077c.23-.042.57-.122.753-.179.383-.117.418-.112.408.063-.003.06-.013 1.07-.021 2.247-.012 1.62-.008 2.138.014 2.138.016 0 .153-.145.305-.323.316-.37.54-.548.843-.677.43-.181.859-.186 1.19-.012.32.168.485.462.587 1.045.014.085.034.892.044 1.888.02 1.872.026 1.95.155 2.107.081.1.234.172.41.195.082.01.157.033.167.05.01.017.018.094.018.171a.53.53 0 0 1-.018.168c-.012.018-.41.028-1.104.028-.695 0-1.093-.01-1.104-.028-.024-.036-.024-.3 0-.337.01-.016.094-.043.186-.06.342-.065.424-.19.47-.719.043-.499.017-2.972-.034-3.22-.07-.338-.223-.585-.433-.7-.234-.126-.675-.016-1.049.263-.238.179-.511.482-.584.651l-.06.14-.008 1.375c-.01 1.819.013 2.012.251 2.141a.849.849 0 0 0 .247.079c.074.009.142.031.152.048.01.017.018.094.018.171a.53.53 0 0 1-.018.168c-.012.018-.412.028-1.113.028-1 0-1.096-.004-1.117-.047Z"/></svg>