<svg xmlns="http://www.w3.org/2000/svg" width="119" height="13"><path fill="#000" fill-rule="nonzero" d="M4.207.52c.163 0 .233.143.314.39l2.39 7.046c.162.507.395.702.861.754l.117.012.212-.025c.346-.035.475-.154.497-.453l.004-.106V4.901c0-.65-.094-.78-.257-.806l-.5-.052-.024-.312c.816-.143 1.282-.26 1.608-.403.023 0 .047.013.047.039L9.44 4.524h.035c.745-.975 1.305-1.157 1.9-1.157 1.048 0 1.28.897 1.28 2.054v2.717c0 .377.13.52.49.559l.222.026c.058.013.105.04.105.104v.247l-.024.026c-.466-.013-.769-.026-1.247-.026-.454 0-.687.013-1.153.026l-.023-.026v-.247c0-.065.034-.091.093-.104l.163-.026c.373-.065.501-.182.501-.559V5.33c0-.91-.14-1.339-.757-1.339-.513 0-.956.221-1.55 1.001v3.146c0 .377.116.494.5.559l.164.026c.058.013.093.04.093.104v.247l-.023.026c-.466-.013-.711-.026-1.189-.026-.454 0-.746.013-1.212.026l.189-.006c-.035.005-.066.004-.097.003L7.81 9.1a27 27 0 0 0-1.178-.026c-.455 0-1.12.013-1.55.026l-.012-.026v-.247c0-.065.023-.104.082-.104l.326-.026c.443-.039.606-.195.49-.559l-.712-2.197H2.832c-.28 0-.35.052-.408.221l-.676 1.885c-.128.351.035.611.466.65l.338.026c.047 0 .093.04.093.104v.247l-.023.026a56.31 56.31 0 0 0-1.527-.026c-.454 0-.64.013-1.072.026L0 9.074v-.247c0-.065.035-.104.093-.104.513-.039.828-.169 1.13-.975L3.812.988c.14-.351.22-.468.396-.468Zm-.268 1.404h-.024L2.75 5.226c-.047.13.035.169.291.169H5.07l-1.13-3.471Zm12.753 3.523c0 1.209-.536 1.456-.944 1.456-.932 0-1.049-.923-1.049-1.755 0-.91.292-1.378.898-1.378.699 0 1.095.598 1.095 1.677m-2.097 3.757c.128.039.303.065.442.065.35 0 .641-.039.804-.039.56 0 1.038.013 1.364.221.431.286.57.468.57.806 0 .936-1.2 1.43-2.202 1.43-.396 0-1.328-.377-1.328-1.261 0-.442.023-.767.35-1.222M18.09 4.03c.234 0 .397-.182.397-.468a.491.491 0 0 0-.513-.494c-.291 0-.816.221-1.107.663-.128-.104-.513-.364-1.165-.364-.99 0-1.911.78-1.911 1.976 0 .702.268 1.105.582 1.456-.314.312-.49.871-.49 1.313 0 .468.21.832.502 1.001-.594.416-.91 1.014-.91 1.573 0 1.131.922 1.482 1.772 1.482 1.503 0 3.135-.845 3.135-2.249 0-.416-.163-.741-.49-1.053-.43-.416-1.235-.429-1.643-.429-.198 0-.466.026-.734.065-.163.013-.28.026-.338.026-.326 0-.71-.182-.71-.741 0-.26.07-.533.198-.754.268.182.594.273 1.025.273.979 0 1.888-.715 1.888-1.989 0-.611-.152-.962-.478-1.352.082-.13.303-.312.443-.312.081 0 .128.039.198.156a.377.377 0 0 0 .35.221m4.488-.663c0-.026-.023-.039-.046-.039-.338.143-.781.26-1.608.403l.023.312.501.052c.163.026.256.156.256.806v3.237c0 .377-.105.507-.5.559l-.222.026c-.058.013-.093.039-.093.104v.247l.023.026c.466-.013.757-.026 1.212-.026.478 0 .722.013 1.188.026l.024-.026v-.247c0-.065-.047-.09-.094-.104l-.163-.026c-.326-.052-.5-.182-.5-.559V4.914c.547-.637.978-.923 1.386-.923.443 0 .77.312.77 1.183v2.964c0 .377-.152.507-.49.559l-.175.026c-.058.013-.093.039-.093.104v.247L24 9.1c.466-.013.7-.026 1.154-.026.477 0 .722.013 1.188.026l.023-.026v-.247c0-.065-.046-.09-.104-.104l-.14-.026c-.338-.065-.513-.182-.513-.559V5.421c0-.182 0-.364-.012-.52.56-.689.968-.91 1.422-.91.443 0 .77.286.77 1.157v2.99c0 .377-.199.507-.502.559l-.163.026c-.058.013-.093.039-.093.104v.247l.023.026c.466-.013.7-.026 1.154-.026.466 0 .78.013 1.247.026l.023-.026v-.247c0-.065-.047-.104-.093-.104l-.222-.026c-.384-.039-.5-.182-.5-.559V5.434c0-1.157-.199-2.067-1.224-2.067-.63 0-1.247.299-1.912 1.079-.081-.585-.489-1.079-1.141-1.079-.723 0-1.259.442-1.807 1.092h-.035l.035-1.092M35.667 0c.105 0 .151.039.151.13 0 0-.035.52-.035 1.365v6.643c0 .377.105.52.49.559l.28.026c.046 0 .093.04.093.104v.247l-.024.026c-.582-.013-.815-.026-1.293-.026h-.161c-.357.003-.6.015-1.11.026l-.01-.026v-.14c-.17.138-.413.27-.7.27-.618 0-.804-.481-.874-.754h-.024l-.233.208c-.512.442-.734.546-1.27.546-.816 0-1.445-.377-1.445-1.404 0-.884.781-1.573 1.9-1.885l1.002-.273c.035-.013.07-.065.07-.156 0-1.469-.548-1.729-.944-1.729-.443 0-.967.182-.967.585 0 .143.011.221.023.26a.645.645 0 0 1 .035.234c0 .169-.175.429-.513.429-.268 0-.408-.143-.408-.455 0-.702.968-1.443 1.923-1.443.85 0 1.713.351 1.713 2.197V7.62c.004.548.042 1.012.466 1.012.28 0 .315-.208.385-.208.046 0 .128.104.128.195 0 .014-.017.047-.05.09l.143-.012c.385-.039.501-.182.501-.559V1.755c0-.845-.116-1.014-.35-1.014l-.372-.026c-.035 0-.07-.026-.07-.065l-.023-.312C34.57.299 35.375.13 35.667 0Zm-3.193 6.045-.92.273c-.863.26-1.131.845-1.131 1.43 0 .403.28.923.862.923.326 0 .723-.286 1.026-.559a.401.401 0 0 0 .163-.338V6.045Zm14.294-2.574.035.026v.247c0 .065-.047.091-.128.104-.432.04-.665.507-.828.884-.617 1.456-1.13 2.795-2.062 5.304-.35.936-.793 2.054-1.62 2.054-.222 0-.676-.143-.676-.61 0-.39.256-.508.443-.508.175 0 .291.078.361.182.117.13.198.221.315.221.174 0 .606-1.144.897-1.937a.964.964 0 0 0 .093-.403c0-.111-.077-.385-.158-.625l-.04-.116-1.468-3.809c-.187-.494-.326-.598-.711-.637-.052-.01-.092-.027-.108-.057l-.009-.034v-.26l.024-.026c.233.013.582.026.979.026.28 0 .559-.006.842-.013l.428-.013.023.039v.234c0 .065-.07.104-.128.104-.409.036-.58.127-.466.489l.035.096 1.282 3.354 1.293-3.302c.256-.52-.093-.598-.454-.637-.044 0-.088-.015-.107-.05l-.01-.04V3.51l.023-.039c.431.013.688.026 1.096.026.326 0 .512-.013.804-.026Zm-7.936-.104c.818 0 1.647.325 1.71 1.99l.003.207v1.937c0 .598.012 1.131.466 1.131.28 0 .315-.208.385-.208.046 0 .128.104.128.195 0 .065-.396.585-.967.585-.57 0-.773-.41-.856-.688l-.018-.066h-.024l-.233.208c-.513.442-.734.546-1.27.546-.816 0-1.445-.377-1.445-1.404 0-.832.692-1.491 1.706-1.826l.194-.059 1.002-.273c.035-.013.07-.065.07-.156 0-1.469-.548-1.729-.944-1.729-.443 0-.968.182-.968.585 0 .143.012.221.024.26a.645.645 0 0 1 .035.234c0 .169-.175.429-.513.429-.268 0-.408-.143-.408-.455 0-.702.967-1.443 1.923-1.443Zm14.144-.039c.015 0 .03.006.04.017l.006.022-.035 1.157h.035c.746-.975 1.305-1.157 1.9-1.157 1 0 1.259.817 1.28 1.898l.001.156v2.717c0 .34.104.49.388.544l.102.015.221.026c.044.01.081.027.097.062l.008.042v.247l-.023.026c-.466-.013-.77-.026-1.247-.026-.364 0-.585.008-.898.018l-.256.008-.023-.026v-.247c0-.049.02-.076.054-.091l.04-.013.162-.026c.336-.058.473-.16.497-.453l.004-.106V5.33c0-.91-.14-1.339-.757-1.339-.476 0-.892.19-1.425.842l-.125.159v3.146c0 .34.095.468.394.538l.107.021.163.026c.044.01.075.027.087.062l.007.042v.247l-.024.026c-.466-.013-.71-.026-1.188-.026-.364 0-.623.008-.95.018l-.262.008-.024-.026.002-.14c-.17.138-.414.27-.7.27-.571 0-.774-.41-.857-.688l-.018-.066h-.023l-.233.208c-.513.442-.734.546-1.27.546-.816 0-1.445-.377-1.445-1.404 0-.832.691-1.491 1.705-1.826l.194-.059 1.002-.273c.035-.013.07-.065.07-.156 0-1.469-.548-1.729-.944-1.729-.443 0-.967.182-.967.585 0 .143.012.221.023.26a.645.645 0 0 1 .035.234c0 .169-.174.429-.512.429-.268 0-.408-.143-.408-.455 0-.702.967-1.443 1.922-1.443.818 0 1.647.325 1.71 1.99l.003.207V7.62c.004.548.042 1.012.467 1.012.28 0 .314-.208.384-.208.047 0 .128.104.128.195 0 .013-.016.046-.048.089l.095-.011c.346-.035.475-.154.498-.453l.003-.106V4.901c0-.6-.08-.757-.22-.798l-.036-.008-.501-.052-.024-.312c.816-.143 1.282-.26 1.609-.403ZM39.683 6.045l-.921.273c-.862.26-1.13.845-1.13 1.43 0 .403.28.923.862.923.326 0 .722-.286 1.025-.559a.403.403 0 0 0 .156-.245l.008-.093V6.045Zm10.076 0-.92.273c-.863.26-1.13.845-1.13 1.43 0 .403.279.923.862.923.326 0 .722-.286 1.025-.559a.403.403 0 0 0 .155-.245l.008-.093V6.045Zm10.48-.598c0 1.209-.536 1.456-.944 1.456-.933 0-1.049-.923-1.049-1.755 0-.91.291-1.378.897-1.378.7 0 1.096.598 1.096 1.677M58.14 9.204c.128.039.303.065.443.065.35 0 .64-.039.804-.039.56 0 1.037.013 1.363.221.431.286.571.468.571.806 0 .936-1.2 1.43-2.202 1.43-.396 0-1.329-.377-1.329-1.261 0-.442.024-.767.35-1.222m3.496-5.174c.233 0 .396-.182.396-.468a.491.491 0 0 0-.513-.494c-.29 0-.815.221-1.107.663-.128-.104-.512-.364-1.165-.364-.99 0-1.911.78-1.911 1.976 0 .702.268 1.105.583 1.456-.315.312-.49.871-.49 1.313 0 .468.21.832.501 1.001-.594.416-.909 1.014-.909 1.573 0 1.131.921 1.482 1.772 1.482 1.503 0 3.134-.845 3.134-2.249 0-.416-.163-.741-.49-1.053-.43-.416-1.234-.429-1.642-.429-.198 0-.466.026-.734.065-.163.013-.28.026-.338.026-.327 0-.711-.182-.711-.741 0-.26.07-.533.198-.754.268.182.594.273 1.025.273.98 0 1.888-.715 1.888-1.989 0-.611-.151-.962-.478-1.352.082-.13.303-.312.443-.312.082 0 .128.039.198.156a.377.377 0 0 0 .35.221m3.79 1.313c.21-1.469 1.072-1.534 1.34-1.534.42 0 .967.26.967 1.352 0 .117-.047.182-.163.182h-2.144m3.076 2.496c-.408.494-.816.728-1.457.728-.652 0-1.654-.78-1.654-2.717h3.064c.129 0 .21-.078.21-.221 0-1.092-.361-2.262-1.9-2.262-1.106 0-2.307 1.144-2.307 3.12 0 1.495.711 2.717 2.308 2.717.839 0 1.526-.481 1.969-1.157-.035-.13-.105-.195-.233-.208m1.941-4.472c0-.026-.023-.039-.047-.039-.326.143-.792.26-1.608.403l.024.312.5.052c.164.026.257.156.257.806v3.237c0 .377-.116.52-.5.559l-.222.026c-.059.013-.094.039-.094.104v.247l.024.026c.466-.013.757-.026 1.212-.026.477 0 .722.013 1.188.026l.024-.026v-.247c0-.065-.035-.09-.094-.104l-.163-.026c-.384-.065-.5-.182-.5-.559V4.992c.593-.78 1.036-1.001 1.549-1.001.618 0 .757.429.757 1.339v2.808c0 .377-.128.494-.5.559l-.164.026c-.058.013-.093.039-.093.104v.247l.023.026c.466-.013.7-.026 1.154-.026.478 0 .78.013 1.247.026l.023-.026v-.247c0-.065-.047-.09-.105-.104l-.221-.026c-.361-.039-.49-.182-.49-.559V5.421c0-1.157-.233-2.054-1.281-2.054-.595 0-1.154.182-1.9 1.157h-.035l.035-1.157m4.129 3.887c.046.637.081 1.274.081 1.82.117-.026.21-.039.268-.039.082 0 .14 0 .222.026.303.091.64.143 1.048.143.548 0 1.772-.351 1.772-1.638 0-1.04-.758-1.508-1.702-1.898-.64-.26-.827-.52-.827-1.04 0-.715.478-.871.92-.871.245 0 .851.208 1.096 1.274l.314-.013a11.51 11.51 0 0 0-.128-1.326c-.361-.208-.699-.325-1.282-.325-.92 0-1.631.585-1.631 1.456 0 .975.408 1.248 1.259 1.664.92.455 1.2.819 1.2 1.378 0 .637-.606.975-1.014.975-.431 0-.746-.234-.862-.377-.268-.299-.385-.897-.42-1.222l-.314.013m11.315 1.84-.006.006-.084-.003-.133.003-.005-.009-.27-.009a15.883 15.883 0 0 0-.499-.008c-.291 0-.477.009-.666.02l-.114.006-.035-.026v-.247c0-.15-.028-.29-.198-.584l-.07-.118-.851-1.339c-.207-.335-.36-.444-.595-.464l-.093-.004v1.82c0 .494.222.546.525.585.035 0 .07.022.085.06l.008.044v.247l-.023.026c-.39-.011-.531-.022-.864-.025h-.343c-.301.002-.483.011-.865.02l-.147.004V9.1h-.03c-.452-.014-.785-.026-1.217-.026-.336 0-.612.008-.947.018l-.265.008-.023-.026v-.247c0-.049.02-.076.054-.091l.039-.013.221-.026c.36-.047.48-.159.499-.462l.002-.097V4.901c0-.6-.08-.757-.22-.798l-.036-.008-.501-.052-.023-.312c.827-.143 1.316-.26 1.643-.403.023 0 .046.013.046.039 0 0-.03.77-.034 1.401v3.37c0 .34.103.49.387.544l.102.015.221.026a.2.2 0 0 1 .06.022l.013-.01.037-.012.221-.026c.346-.035.475-.154.498-.453l.003-.106V1.755c0-.789-.101-.988-.304-1.012l-.045-.002-.373-.026a.072.072 0 0 1-.064-.038L80.603.65 80.58.338C81.046.299 81.862.13 82.153 0c.105 0 .151.039.151.13 0 0-.03.448-.034 1.189v4.674c.302-.078.897-.663 1.526-1.43.128-.143.548-.676-.152-.715-.043 0-.074-.03-.086-.066l-.007-.038v-.247s.035-.013.035-.026c.431.013.594.026 1.037.026.35 0 .521-.01.818-.02l.196-.006.047.026v.247c0 .049-.04.076-.084.091l-.045.013-.081.013c-.275.045-.702.22-1 .49l-.119.121-.885 1.092a.177.177 0 0 0-.047.13c0 .043.01.087.028.126l.03.056 1.364 2.249c.183.307.492.485.761.56l.113.025.061.009.234-.022c.346-.035.475-.154.498-.453l.003-.106V1.755c0-.845-.116-1.014-.35-1.014l-.372-.026c-.035 0-.07-.026-.07-.065l-.024-.312C86.177.299 86.981.13 87.273 0c.105 0 .151.039.151.13 0 0-.035.52-.035 1.365v6.643c0 .377.105.52.49.559l.28.026c.046 0 .093.04.093.104v.247l-.024.026c-.582-.013-.815-.026-1.293-.026h-.161c-.204.002-.37.007-.571.012l-.315.009ZM79.35 1.04c.303 0 .56.286.56.624s-.257.624-.56.624c-.303 0-.56-.286-.56-.624s.257-.624.56-.624Zm8.966 5.369c0 1.326.827 2.795 2.389 2.795 1.654 0 2.412-1.612 2.412-2.912 0-1.352-.664-2.925-2.389-2.925-1.55 0-2.412 1.261-2.412 3.042M90.6 3.796c.955 0 1.526 1.001 1.526 2.912 0 1.716-.699 2.067-1.223 2.067-1.154 0-1.597-1.664-1.597-2.665 0-1.131.362-2.314 1.294-2.314m4.21 1.235c.256-.689.815-1.066 1.211-1.066.71 0 1.317.936 1.317 2.405 0 1.066-.315 2.392-1.562 2.392-.186 0-.559-.026-.967-.559V5.031m-.874-.13v6.266c0 .364-.128.507-.5.546l-.222.026c-.058.013-.094.039-.094.104v.247l.024.026c.43-.013.792-.026 1.212-.026.442 0 .815.013 1.246.026l.024-.026v-.247c0-.065-.047-.09-.105-.104l-.222-.026c-.36-.039-.489-.182-.489-.546V8.918c.303.182.618.286 1.037.286.618 0 1.177-.221 1.632-.728.524-.598.815-1.404.815-2.457 0-1.378-.827-2.652-1.957-2.652-.373 0-.99.13-1.527 1.04h-.035l.035-1.04c0-.026-.023-.039-.047-.039-.337.143-.78.26-1.608.403l.024.312.5.052c.164.026.257.156.257.806m5.697.442c.21-1.469 1.072-1.534 1.34-1.534.42 0 .968.26.968 1.352 0 .117-.047.182-.164.182h-2.144m3.077 2.496c-.408.494-.816.728-1.457.728-.653 0-1.655-.78-1.655-2.717h3.065c.128 0 .21-.078.21-.221 0-1.092-.362-2.262-1.9-2.262-1.107 0-2.307 1.144-2.307 3.12 0 1.495.71 2.717 2.307 2.717.84 0 1.527-.481 1.97-1.157-.035-.13-.105-.195-.233-.208m11.165-4.368.035.026v.247c0 .065-.046.091-.128.104-.431.04-.664.507-.827.884-.618 1.456-1.13 2.795-2.063 5.304-.35.936-.792 2.054-1.62 2.054-.221 0-.675-.143-.675-.61 0-.39.256-.508.442-.508.175 0 .292.078.362.182.116.13.198.221.314.221.124 0 .375-.57.614-1.184l.118-.308.165-.445a.962.962 0 0 0 .094-.403c0-.111-.077-.385-.158-.625l-.04-.116-1.469-3.809c-.186-.494-.326-.598-.71-.637-.053-.01-.092-.027-.109-.057l-.008-.034v-.26l.023-.026c.233.013.583.026.98.026.279 0 .559-.006.842-.013l.427-.013.024.039v.234c0 .065-.07.104-.129.104-.408.036-.579.127-.465.489l.034.096 1.282 3.354 1.294-3.302c.256-.52-.094-.598-.455-.637-.044 0-.087-.015-.106-.05l-.01-.04V3.51l.023-.039c.431.013.687.026 1.095.026.327 0 .513-.013.804-.026ZM107.54 0c.105 0 .151.039.151.13 0 0-.03.448-.034 1.189v6.247c0 .6.04.713.238.747l.053.007.56.065.034.3c-.642.126-1.118.274-1.396.47l-.095.075h-.268l.023-.91-.023-.013c-.536.481-1.12.897-1.585.897-1.259 0-1.958-1.17-1.958-2.769 0-.962.28-1.729.78-2.288.467-.494.98-.78 1.749-.78.2 0 .605.086.885.217l.129.07V1.754c0-.789-.102-.988-.305-1.011l-.045-.003-.373-.026a.072.072 0 0 1-.064-.038L105.99.65l-.023-.312c.478-.039 1.282-.208 1.573-.338Zm8.477 3.367c.85 0 1.713.351 1.713 2.197V7.62c.004.548.042 1.012.466 1.012.28 0 .315-.208.385-.208.046 0 .128.104.128.195 0 .065-.396.585-.967.585-.618 0-.804-.481-.874-.754h-.024l-.233.208c-.512.442-.734.546-1.27.546-.815 0-1.445-.377-1.445-1.404 0-.884.781-1.573 1.9-1.885l1.002-.273c.035-.013.07-.065.07-.156 0-1.469-.548-1.729-.944-1.729-.443 0-.967.182-.967.585 0 .143.011.221.023.26a.648.648 0 0 1 .035.234c0 .169-.175.429-.513.429-.268 0-.408-.143-.408-.455 0-.702.968-1.443 1.923-1.443Zm.85 2.678-.92.273c-.862.26-1.13.845-1.13 1.43 0 .403.28.923.862.923.326 0 .723-.286 1.026-.559a.4.4 0 0 0 .163-.338V6.045ZM105.64 3.822c-.233 0-.723.039-1.084.65-.175.273-.326.793-.326 1.729 0 1.625.64 2.392 1.27 2.392.272 0 .668-.221 1.126-.607l.156-.134V4.589c-.28-.494-.595-.767-1.142-.767Z"/></svg>