<svg xmlns="http://www.w3.org/2000/svg" width="120" height="36.238" viewBox="0 0 31.75 9.588"><g color="#000"><path d="M-255.45 129.03v2.243h1.517v4.948c1.01-.013 1.78-.346 2.35-.917v-6.274h-1.68zm5.702 0v2.243h9.382c-.328 3.66-4.37 7.04-4.373 12.35h2.5c0-4.45 3.67-7.83 4.183-12.132l.055-2.46zm13.198 0v2.243h1.516v4.948c1.01-.013 1.78-.346 2.35-.917v-6.274h-2.35zm5.718 0v2.243h1.093v12.3h2.336l.002-14.543h-1.244zm-16.17 5.105c-.861.027-2.12.317-2.547 1.057v13.63h2.548zm1.071 7.838h.01-.01z" style="font-feature-settings:normal;font-variant-alternates:normal;font-variant-caps:normal;font-variant-ligatures:normal;font-variant-numeric:normal;font-variant-position:normal;isolation:auto;mix-blend-mode:normal;shape-padding:0;text-decoration-color:#000;text-decoration-line:none;text-decoration-style:solid;text-indent:0;text-orientation:mixed;text-transform:none;white-space:normal" transform="matrix(.48145 0 0 .48291 141.23 -62.276)"/><g fill="#0a4e98"><path d="M-268.98 129.03v2.133c2.08-.011 2.16-.033 2.16-.033l-.003.089c-1.25.748-2.16 3.21-2.157 5.364 0 2.29.51 4.14 1.549 5.52l.003.005c1.07 1.37 2.64 2.06 4.657 2.06 2.01 0 3.58-.69 4.626-2.062 1.06-1.38 1.58-3.23 1.58-5.522 0-2.29-.52-4.13-1.58-5.49-1.02-1.33-2.53-2.02-4.465-2.06-2.16-.01-6.37-.004-6.369-.004zm6.208 2.18c1.27 0 2.17.429 2.793 1.304.621.875.952 2.23.952 4.069 0 1.85-.331 3.21-.952 4.093-.621.88-1.52 1.31-2.793 1.311-1.27 0-2.17-.43-2.794-1.311-.621-.88-.952-2.24-.952-4.093 0-1.84.33-3.19.951-4.07.621-.874 1.52-1.3 2.795-1.303zM-276.66 129.07c-1.61 0-2.97.444-4.057 1.335v.002c-1.07.898-1.62 2.17-1.616 3.743 0 .82.14 1.55.426 2.19l.004.01c.304.605.654 1.08 1.06 1.42a4.65 4.65 0 0 0 1.415.791c.529.191.978.319 1.352.385l.007.002.007.001c.384.043.747.064 1.09.064h.446v-2.086h-.447c-.83 0-1.52-.241-2.105-.729-.55-.475-.826-1.15-.826-2.078 0-.933.277-1.62.83-2.113.576-.499 1.37-.756 2.415-.756 1.29 0 2.21.443 2.84 1.349.632.906.968 2.31.968 4.212 0 1.77-.342 3.06-.986 3.898-.644.839-1.59 1.26-2.916 1.256a23.4 23.4 0 0 1-4.453-.412v2.021c1.81.463 3.31.533 4.487.54 2.16.012 3.79-.698 4.817-2.097v-.001c1.01-1.4 1.51-3.18 1.514-5.298v-.23h-.015c-.035-2.4-.584-4.25-1.703-5.493-1.13-1.28-2.67-1.92-4.553-1.925zM-289.33 128.97c-1.23 0-2.47.181-3.718.54-.094.024-.3.082-.299.082v2.355s.35-.148.536-.178c0 0-1.09.272 0 0 1.32-.33 2.43-.494 3.325-.494 1.16 0 2.01.211 2.543.592.536.38.796.923.796 1.714v10.276h2.335v-10.589c0-1.33-.545-2.41-1.598-3.16-1.05-.762-2.36-1.14-3.92-1.138z" style="font-feature-settings:normal;font-variant-alternates:normal;font-variant-caps:normal;font-variant-ligatures:normal;font-variant-numeric:normal;font-variant-position:normal;isolation:auto;mix-blend-mode:normal;shape-padding:0;text-decoration-color:#000;text-decoration-line:none;text-decoration-style:solid;text-indent:0;text-orientation:mixed;text-transform:none;white-space:normal" transform="matrix(.48145 0 0 .48291 141.23 -62.276)"/></g></g></svg>