<?xml version="1.0" encoding="UTF-8" standalone="no"?>
<svg
   xmlns:dc="http://purl.org/dc/elements/1.1/"
   xmlns:cc="http://creativecommons.org/ns#"
   xmlns:rdf="http://www.w3.org/1999/02/22-rdf-syntax-ns#"
   xmlns:svg="http://www.w3.org/2000/svg"
   xmlns="http://www.w3.org/2000/svg"
   xmlns:sodipodi="http://sodipodi.sourceforge.net/DTD/sodipodi-0.dtd"
   xmlns:inkscape="http://www.inkscape.org/namespaces/inkscape"
   viewBox="0 0 106 21"
   id="svg5396"
   version="1.1"
   inkscape:version="0.48.5 r10040"
   width="100%"
   height="100%"
   sodipodi:docname="wikivoyage-wordmark-bn-2.svg">
  <metadata
     id="metadata5408">
    <rdf:RDF>
      <cc:Work
         rdf:about="">
        <dc:format>image/svg+xml</dc:format>
        <dc:type
           rdf:resource="http://purl.org/dc/dcmitype/StillImage" />
        <dc:title>wiki voyage</dc:title>
      </cc:Work>
    </rdf:RDF>
  </metadata>
  <defs
     id="defs5406" />
  <sodipodi:namedview
     pagecolor="#ffffff"
     bordercolor="#666666"
     borderopacity="1"
     objecttolerance="10"
     gridtolerance="10"
     guidetolerance="10"
     inkscape:pageopacity="0"
     inkscape:pageshadow="2"
     inkscape:window-width="1600"
     inkscape:window-height="837"
     id="namedview5404"
     showgrid="false"
     inkscape:zoom="2"
     inkscape:cx="45.044304"
     inkscape:cy="8.3622036"
     inkscape:window-x="-8"
     inkscape:window-y="-8"
     inkscape:window-maximized="1"
     inkscape:current-layer="svg5396" />
  <title
     id="title5398">wiki voyage</title>
  <g
     id="wiki-voyage"
     style="fill:#54595d;fill-rule:evenodd"
     transform="translate(0,3)">
    <path
       d="m 0.078,3.6444033 7.276,-0.401 0.098,0.167 c -1,1.337 -1.331,2.847 -1.136,4.677 l -6.316,-4.239 0.078,-0.204 z m 8.678,6.6639997 c 1.537,0.162 2.945,-0.15 4.16,-1.1829997 l 0.174,0.113 -0.409,7.0879997 -0.175,0.05 -3.83,-5.878 0.08,-0.19 z m 5.281,-4.2269997 c -0.823,-1.712 -1.96,-2.89 -3.643,-3.516 l -0.03,-0.202 7.01,-3.572 0.163,0.147 -3.5,7.143 z"
       id="Combined-Shape"
       inkscape:connector-curvature="0"
       style="opacity:0.5" />
  </g>
  <text
     xml:space="preserve"
     style="font-size:21px;font-style:normal;font-variant:normal;font-weight:normal;font-stretch:normal;text-align:center;line-height:125%;letter-spacing:0px;word-spacing:0px;writing-mode:lr-tb;text-anchor:middle;fill:#000000;fill-opacity:1;stroke:none;font-family:Siyam Rupali;-inkscape-font-specification:Siyam Rupali"
     x="33.744858"
     y="19.045267"
     id="text5421"
     sodipodi:linespacing="125%"><tspan
       sodipodi:role="line"
       id="tspan5423"
       x="33.744858"
       y="19.045267" /></text>
  <g
     style="font-size:24px;font-style:normal;font-variant:normal;font-weight:normal;font-stretch:normal;text-align:center;line-height:125%;letter-spacing:0px;word-spacing:0px;writing-mode:lr-tb;text-anchor:middle;fill:#54595d;fill-opacity:1;stroke:none;font-family:SolaimanLipi;-inkscape-font-specification:SolaimanLipi"
     id="text5425">
    <path
       d="m 27.703201,10.422953 c 0.0078,0.109383 0.03124,0.220711 0.07031,0.333984 0.03906,0.113289 0.09374,0.216805 0.164062,0.310547 0.07031,0.09376 0.154291,0.16993 0.251953,0.228516 0.09765,0.0586 0.212884,0.0879 0.345704,0.08789 0.07812,8e-6 0.173821,-0.05468 0.287109,-0.164062 0.113274,-0.109367 0.236321,-0.246086 0.369141,-0.410157 0.132804,-0.164054 0.271476,-0.341788 0.416015,-0.533203 0.144523,-0.191397 0.285148,-0.3691312 0.421875,-0.5332028 0.13671,-0.1640531 0.265616,-0.3007717 0.386719,-0.4101563 0.121085,-0.1093652 0.228506,-0.1640526 0.322266,-0.1640625 0.257803,9.9e-6 0.492177,0.068369 0.703125,0.2050781 0.210927,0.1367283 0.40038,0.3164156 0.568359,0.5390625 0.167958,0.222665 0.314442,0.476571 0.439453,0.761719 0.124989,0.285164 0.228505,0.572273 0.310547,0.861328 0.08202,0.28907 0.142567,0.568366 0.181641,0.837891 0.03905,0.269537 0.05858,0.505865 0.05859,0.708984 -1.1e-5,0.585943 -0.0879,1.150395 -0.263672,1.693359 -0.175792,0.542973 -0.445323,1.019535 -0.808593,1.429688 -0.363292,0.410158 -0.820322,0.738283 -1.371094,0.984375 -0.55079,0.246095 -1.20118,0.369142 -1.951172,0.36914 -0.789069,2e-6 -1.478521,-0.148435 -2.068359,-0.445312 -0.589848,-0.296873 -1.095707,-0.699216 -1.517578,-1.207031 -0.421879,-0.507809 -0.773441,-1.095699 -1.054688,-1.763672 -0.281252,-0.667963 -0.515627,-1.371088 -0.703125,-2.109375 -0.187501,-0.738274 -0.335939,-1.490226 -0.445312,-2.2558596 -0.109377,-0.765615 -0.203127,-1.496083 -0.28125,-2.1914062 l 0.714843,0.3867187 c 0.04687,0.4687606 0.126952,0.9785257 0.240235,1.5292969 0.113279,0.5507902 0.269529,1.1054772 0.46875,1.6640622 0.199216,0.558601 0.43945,1.099616 0.720703,1.623047 0.281246,0.523443 0.61523,0.986334 1.001953,1.388672 0.386714,0.402348 0.82812,0.724614 1.324219,0.966797 0.496087,0.242191 1.052728,0.363285 1.669922,0.363281 0.453117,4e-6 0.882804,-0.08398 1.289062,-0.251953 0.406241,-0.167965 0.757803,-0.390621 1.054688,-0.667969 0.296865,-0.277339 0.533193,-0.595698 0.708984,-0.955078 0.175771,-0.359369 0.263661,-0.734369 0.263672,-1.125 -1.1e-5,-0.265618 -0.04103,-0.52929 -0.123047,-0.791015 -0.08204,-0.261712 -0.216807,-0.517571 -0.404297,-0.767579 -0.117197,0.234383 -0.298838,0.492196 -0.544922,0.773438 -0.246103,0.281257 -0.523446,0.541022 -0.832031,0.779297 -0.308602,0.238287 -0.63868,0.439459 -0.990234,0.603515 -0.35157,0.164069 -0.691414,0.2461 -1.019532,0.246094 -0.250006,6e-6 -0.472662,-0.05468 -0.667968,-0.164062 -0.195319,-0.109369 -0.359381,-0.2539 -0.492188,-0.433594 -0.132818,-0.179681 -0.236333,-0.386712 -0.310547,-0.621094 -0.07422,-0.234368 -0.111333,-0.476555 -0.111328,-0.726562 l 0,-4.5351566 -5.296875,0 0,-1.2070312 8.578125,0 0.9375,-0.3867188 0.292969,-0.234375 C 31.007879,4.8799981 30.947333,4.735467 30.826248,4.6104527 30.705145,4.4854672 30.537177,4.3799986 30.322342,4.2940464 30.10749,4.2081238 29.853584,4.1436707 29.560623,4.100687 c -0.292976,-0.042954 -0.611335,-0.064438 -0.955078,-0.064453 -0.468757,1.5e-5 -0.941412,0.027359 -1.417969,0.082031 -0.476567,0.054702 -0.949223,0.082046 -1.417968,0.082031 -0.406254,1.49e-5 -0.818363,-0.058579 -1.236329,-0.1757812 C 24.115308,3.9073428 23.736402,3.7335149 23.396561,3.5030308 23.056715,3.2725778 22.779372,2.9913281 22.564529,2.6592808 22.349685,2.3272663 22.242263,1.9464073 22.242264,1.5167027 c -10e-7,-0.1718573 0.02148,-0.3398259 0.06445,-0.5039063 0.04297,-0.16404429 0.09375,-0.30857539 0.152344,-0.43359375 0.05859,-0.12498139 0.123046,-0.22459067 0.193359,-0.29882812 0.07031,-0.0741999 0.128905,-0.11130924 0.175781,-0.11132813 l 0.574219,0.24609375 c -0.148439,0.0937686 -0.255861,0.20509657 -0.322266,0.33398438 -0.06641,0.12892443 -0.119142,0.28712737 -0.158203,0.47460937 -1e-6,0.2578301 0.07226,0.4707205 0.216797,0.6386719 0.14453,0.1679858 0.330076,0.3007981 0.556641,0.3984375 0.22656,0.097673 0.480466,0.1660322 0.761719,0.2050781 0.281246,0.039079 0.55859,0.05861 0.832031,0.058594 l 3.363281,-0.1875 c 0.42968,1.67e-5 0.851555,0.072282 1.265625,0.2167968 0.414054,0.1445476 0.781241,0.3457193 1.101563,0.6035157 0.320302,0.2578281 0.578114,0.5683747 0.773437,0.9316406 0.195302,0.3632958 0.292958,0.7675923 0.292969,1.2128906 l 0,0.1875 c -1.1e-5,0.039076 -0.0078,0.09767 -0.02344,0.1757813 l 2.929688,0 0,1.2070312 -7.289063,0 z"
       style=""
       id="path6559" />
    <path
       d="m 39.574295,6.8721714 c 0.02343,0.187512 0.08593,0.3496212 0.1875,0.4863281 0.101557,0.1367303 0.222651,0.2519646 0.363281,0.3457032 0.140619,0.093761 0.294916,0.169933 0.462891,0.2285156 0.167962,0.058605 0.333978,0.1035266 0.498047,0.1347656 0.312493,0.070323 0.619133,0.222667 0.919922,0.4570313 0.300773,0.2343853 0.570304,0.5117287 0.808593,0.8320312 0.238273,0.3203219 0.429679,0.6679776 0.574219,1.0429686 0.144522,0.375008 0.216788,0.742196 0.216797,1.101563 -0.03126,0.484382 -0.142587,0.916022 -0.333984,1.294922 -0.191415,0.378912 -0.441415,0.714849 -0.75,1.007812 -0.308602,0.292974 -0.671883,0.542973 -1.089844,0.75 -0.417975,0.207036 -0.869147,0.380864 -1.353516,0.521484 0.570307,0.390629 1.076165,0.744144 1.517578,1.060547 0.441399,0.316409 0.855461,0.630862 1.242188,0.94336 0.38671,0.312501 0.763663,0.634767 1.130859,0.966797 0.367178,0.332031 0.761709,0.708984 1.183594,1.130859 l 0.375,1.640625 C 44.957097,20.200295 44.316473,19.60264 43.605545,19.024515 42.894599,18.446391 42.142647,17.919048 41.349686,17.442484 40.556711,16.965923 39.738352,16.553815 38.894608,16.206156 38.050854,15.858503 37.214917,15.602644 36.386795,15.438578 l -1.441406,-3 c 0.468749,0.289068 0.998045,0.517584 1.58789,0.685547 0.589841,0.167974 1.181638,0.251958 1.775391,0.251953 0.273433,5e-6 0.607417,-0.0332 1.001953,-0.09961 0.394526,-0.0664 0.779291,-0.187494 1.154297,-0.363281 0.374994,-0.175775 0.708978,-0.416009 1.001953,-0.720703 0.292962,-0.30468 0.478508,-0.695305 0.556641,-1.171875 -0.01563,-0.242179 -0.07618,-0.472648 -0.181641,-0.691406 C 41.736397,10.110462 41.605538,9.9190555 41.449295,9.7549839 41.293038,9.5909309 41.115304,9.4600716 40.916092,9.3624058 40.716867,9.2647593 40.519601,9.2159312 40.324295,9.2159214 c -0.148443,9.8e-6 -0.316412,0.042979 -0.503906,0.1289063 -6e-6,0.3125094 -0.07227,0.6015716 -0.216797,0.8671873 -0.144536,0.265634 -0.330083,0.496102 -0.556641,0.691406 -0.226567,0.195321 -0.476566,0.347664 -0.75,0.457032 -0.273441,0.109382 -0.542972,0.16407 -0.808593,0.164062 -0.296878,8e-6 -0.572269,-0.07421 -0.826172,-0.222656 -0.253909,-0.14843 -0.416018,-0.394523 -0.486328,-0.738281 0.0078,-0.359366 0.08398,-0.685538 0.228515,-0.978516 0.144529,-0.292959 0.337888,-0.5566306 0.580078,-0.7910156 0.242185,-0.2343645 0.521482,-0.4374893 0.837891,-0.609375 0.316402,-0.171864 0.654293,-0.3163951 1.013672,-0.4335937 -0.03907,-0.015614 -0.07422,-0.07616 -0.105469,-0.1816407 -0.03125,-0.1054571 -0.101567,-0.2128789 -0.210937,-0.3222656 l -0.433594,-0.375 -4.042969,0 0,-1.2070312 7.042969,0 0.796875,-0.070312 c 0.05468,-0.0078 0.128898,-0.035143 0.222656,-0.082031 0.09374,-0.046861 0.181633,-0.1054551 0.263672,-0.1757812 0.08202,-0.070299 0.154289,-0.1523299 0.216797,-0.2460938 0.06249,-0.093736 0.09374,-0.1913921 0.09375,-0.2929687 -8e-6,-0.1406106 -0.07423,-0.2597512 -0.222656,-0.3574219 -0.148446,-0.097642 -0.324227,-0.1738134 -0.527344,-0.2285156 -0.203133,-0.054673 -0.40821,-0.093735 -0.615235,-0.1171875 -0.207038,-0.023423 -0.369147,-0.035141 -0.486328,-0.035156 -0.05469,-0.0078 -0.105475,-0.013657 -0.152343,-0.017578 -0.04688,-0.00389 -0.09766,-0.00584 -0.152344,-0.00586 l -0.292969,0 -2.765625,0.1640625 C 37.074292,4.2003113 36.664137,4.1475769 36.234451,4.0420933 35.804762,3.9366397 35.408278,3.7745304 35.044998,3.5557652 34.681717,3.3370309 34.382889,3.0616405 34.148514,2.7295933 33.914139,2.3975787 33.796952,2.0010947 33.796951,1.5401402 c 10e-7,-0.1406074 0.01367,-0.2831854 0.04102,-0.4277344 0.02734,-0.14451318 0.07617,-0.27927867 0.146484,-0.4042969 0.07031,-0.12498152 0.169922,-0.22654392 0.298828,-0.3046875 0.128907,-0.0781063 0.294922,-0.11716872 0.498047,-0.1171875 0.04687,1.878e-5 0.09375,0.001972 0.140625,0.005859 0.04687,0.003925 0.09375,0.0136906 0.140625,0.0292969 -0.179688,0.19533104 -0.326172,0.39650272 -0.439453,0.60351563 -0.113281,0.20704922 -0.169922,0.40431462 -0.169922,0.59179692 0,0.1328299 0.03516,0.2578297 0.105469,0.375 0.07031,0.1172045 0.1875,0.2187669 0.351563,0.3046875 0.164061,0.085954 0.376952,0.1543135 0.638671,0.2050781 0.261718,0.050798 0.587889,0.076188 0.978516,0.076172 0.07031,1.65e-5 0.394529,-0.011702 0.972656,-0.035156 0.578122,-0.023421 1.464839,-0.070296 2.660157,-0.140625 0.499993,1.68e-5 0.96093,0.080095 1.382812,0.2402344 0.421867,0.1601726 0.785148,0.3789224 1.089844,0.65625 0.304679,0.2773593 0.54296,0.6015777 0.714844,0.9726562 0.171865,0.3711083 0.257803,0.7675923 0.257812,1.1894532 l -0.02344,0.3046875 3.152343,0 0,1.2070312 -7.160156,0 z"
       style=""
       id="path6561" />
    <path
       d="M 56.109451,2.8174839 C 55.476629,2.3956256 54.78327,2.0655478 54.029373,1.8272495 53.275459,1.5889857 52.472726,1.4698452 51.62117,1.4698277 51.13679,1.4698452 50.683665,1.5557827 50.261795,1.7276402 49.839916,1.8995323 49.455151,2.131954 49.107498,2.4249058 48.759839,2.7178909 48.461011,3.053828 48.211014,3.4327183 47.961011,3.8116398 47.769605,4.21203 47.636795,4.6338902 l 0.457031,1.03125 3.164063,0 0,1.2070312 -2.730469,0 0,12.3984376 -1.207031,-1.125 0,-11.2734376 -2.144531,0 0,-1.2070312 2.25,0 -1.066407,-1.125 c -0.109375,-0.1093604 -0.164063,-0.292954 -0.164062,-0.5507813 0.164062,-0.6640468 0.376952,-1.22264 0.638672,-1.6757812 0.261717,-0.4531078 0.580076,-0.8261544 0.955078,-1.1191407 0.374997,-0.29295056 0.810544,-0.51951284 1.30664,-0.67968747 0.49609,-0.16013755 1.064449,-0.2831843 1.705079,-0.36914063 0.656244,0.0468939 1.31054,0.15626876 1.96289,0.328125 0.652336,0.17189342 1.281242,0.40236194 1.886719,0.6914063 0.605459,0.2890801 1.179677,0.636736 1.722656,1.0429687 0.542958,0.4062664 1.037098,0.8711097 1.482422,1.3945313 l 0.269531,0.7734375 -2.015625,-1.5585938 z"
       style=""
       id="path6563" />
    <path
       d="m 58.546951,7.7745152 c 0.562491,1.12e-5 1.113272,0.1367299 1.652344,0.4101562 0.539052,0.2734481 1.017567,0.636729 1.435547,1.0898438 0.417957,0.4531343 0.755847,0.9726648 1.013672,1.5585938 0.2578,0.585945 0.386706,1.191413 0.386719,1.816406 -1.3e-5,0.320319 -0.05275,0.61524 -0.158204,0.884766 -0.105481,0.269536 -0.250012,0.503911 -0.433593,0.703125 -0.183606,0.199223 -0.39845,0.35352 -0.644532,0.46289 -0.246105,0.10938 -0.50587,0.164067 -0.779296,0.164063 -0.179699,4e-6 -0.357433,-0.04101 -0.533204,-0.123047 -0.175791,-0.08203 -0.3379,-0.195308 -0.486328,-0.339844 -0.148447,-0.144526 -0.267587,-0.316401 -0.357422,-0.515625 -0.08985,-0.199213 -0.134775,-0.412104 -0.134765,-0.638672 -10e-6,-0.187494 0.04296,-0.353509 0.128906,-0.498046 0.08593,-0.144525 0.197256,-0.269525 0.333984,-0.375 0.136709,-0.105462 0.292959,-0.18554 0.46875,-0.240235 0.175771,-0.05468 0.353505,-0.08202 0.533204,-0.08203 0.210926,7e-6 0.416004,0.04884 0.615234,0.146484 0.199207,0.09766 0.361316,0.248054 0.486328,0.451172 0.01561,-0.06249 0.02343,-0.113275 0.02344,-0.152344 l 0,-0.152343 c -1.2e-5,-0.398431 -0.09571,-0.775383 -0.28711,-1.13086 -0.191418,-0.35546 -0.44337,-0.66796 -0.755859,-0.9375 C 60.742253,10.006946 60.392644,9.7921025 60.005936,9.631937 59.619207,9.4717904 59.22663,9.3917123 58.828201,9.3917027 l -0.140625,0 c -0.03126,9.6e-6 -0.07813,0.00782 -0.140625,0.023437 l 0,9.5742188 -0.457031,-0.433594 C 57.839912,17.891704 57.548897,17.268658 57.216873,16.686625 56.884835,16.104596 56.488351,15.587019 56.02742,15.13389 55.566477,14.68077 55.029368,14.307723 54.416092,14.01475 53.802807,13.721786 53.089917,13.532333 52.27742,13.44639 L 50.625076,11.407328 C 51.679762,10.626086 52.75398,9.9171024 53.847733,9.2803745 54.941478,8.6436662 56.105539,8.1495261 57.33992,7.7979527 l 0,-0.9257813 -7.523437,0 0,-1.2070312 14.34375,0 0,1.2070312 -5.613282,0 z M 57.33992,9.4385777 c -0.812506,0.2734468 -1.560552,0.6171963 -2.244141,1.0312503 -0.683598,0.41407 -1.365237,0.871101 -2.044921,1.371093 0.460934,0.203132 0.87109,0.404304 1.230468,0.603516 0.359371,0.199225 0.699214,0.437506 1.019532,0.714844 0.320307,0.277349 0.642572,0.619146 0.966796,1.02539 0.324213,0.406255 0.681634,0.917973 1.072266,1.535157 l 0,-6.2812503 z"
       style=""
       id="path6565" />
    <path
       d="m 69.457108,5.6651402 13.394531,0 0,1.2070312 -13.394531,0 z M 80.02742,18.719828 c -0.148447,-0.125 -0.259775,-0.261718 -0.333984,-0.410157 -0.07423,-0.148436 -0.138682,-0.296874 -0.19336,-0.445312 -0.0547,-0.148436 -0.111337,-0.29492 -0.169922,-0.439453 -0.0586,-0.14453 -0.148446,-0.271483 -0.269531,-0.38086 -0.121103,-0.109372 -0.283212,-0.197263 -0.486328,-0.263671 -0.203133,-0.0664 -0.476571,-0.09961 -0.820312,-0.09961 l -3.339844,0.199219 c -0.546879,2e-6 -1.082035,-0.07422 -1.605469,-0.222656 -0.52344,-0.148435 -0.992189,-0.388669 -1.40625,-0.720703 -0.414064,-0.332028 -0.748048,-0.759762 -1.001953,-1.283204 -0.253907,-0.523432 -0.38086,-1.16015 -0.380859,-1.910156 -1e-6,-0.156243 0.01562,-0.339837 0.04687,-0.550781 0.03125,-0.210931 0.07227,-0.425774 0.123046,-0.644531 0.05078,-0.218743 0.115234,-0.42968 0.19336,-0.632813 0.07812,-0.203117 0.164062,-0.374991 0.257812,-0.515625 l 0.480469,0.28125 c -0.171876,0.421883 -0.257813,0.855476 -0.257812,1.300781 -1e-6,1.007819 0.33203,1.744146 0.996093,2.208985 0.66406,0.464848 1.636715,0.69727 2.917969,0.697265 l 1.21875,0 c 0.687493,5e-6 1.314446,0.09375 1.880859,0.28125 0.566398,0.187504 1.083976,0.531254 1.552735,1.03125 l 0,-5.753906 c -0.296884,0.226571 -0.578134,0.449227 -0.84375,0.667969 -0.265634,0.218758 -0.54493,0.416023 -0.837891,0.591797 -0.292976,0.175788 -0.615241,0.326179 -0.966797,0.451172 -0.351569,0.125006 -0.765631,0.210944 -1.242187,0.257812 -0.312506,7e-6 -0.623052,-0.05468 -0.931641,-0.164062 -0.308598,-0.109368 -0.587895,-0.267571 -0.83789,-0.47461 -0.250004,-0.207023 -0.453129,-0.45507 -0.609375,-0.74414 -0.156254,-0.289055 -0.234378,-0.613273 -0.234375,-0.972657 -3e-6,-0.2656153 0.03711,-0.5292869 0.111328,-0.7910152 0.07421,-0.2617087 0.187496,-0.4921772 0.339843,-0.6914063 0.152341,-0.199208 0.33984,-0.3613173 0.5625,-0.4863281 0.222652,-0.1249889 0.486324,-0.1874888 0.791016,-0.1875 0.226558,1.12e-5 0.431635,0.044933 0.615234,0.1347656 0.183589,0.089855 0.339838,0.2089952 0.46875,0.3574219 0.128901,0.148448 0.22851,0.3203228 0.298829,0.515625 0.07031,0.1953225 0.105462,0.394541 0.105468,0.5976563 -6e-6,0.1796968 -0.03126,0.3593841 -0.09375,0.5390628 -0.06251,0.179696 -0.160162,0.343758 -0.292968,0.492187 l 0.07031,0.01172 c 0.101556,8e-6 0.234369,-0.04101 0.398438,-0.123047 0.164056,-0.08202 0.339837,-0.191397 0.527343,-0.328125 0.187493,-0.1367096 0.376946,-0.2910063 0.56836,-0.4628906 0.191398,-0.1718654 0.369132,-0.3456934 0.533203,-0.5214844 0.164054,-0.1757711 0.304679,-0.3437397 0.421875,-0.5039062 0.117179,-0.1601457 0.195304,-0.3027236 0.234375,-0.4277344 0.02343,-0.046864 0.0664,-0.070302 0.128906,-0.070312 0.109366,1.09e-5 0.263663,0.058605 0.462891,0.1757813 0.199209,0.1171981 0.398428,0.2636823 0.597656,0.4394531 0.199209,0.1757914 0.376943,0.3691506 0.533203,0.5800781 0.15624,0.210947 0.246083,0.4062593 0.269531,0.5859375 l 0,9.2812501 -0.550781,-0.457031 z"
       style=""
       id="path6567" />
    <path
       d="m 92.378983,19.129984 -0.503907,-0.550781 c -0.04688,-0.445312 -0.177743,-0.90039 -0.392578,-1.365235 -0.214852,-0.464841 -0.474618,-0.894528 -0.779297,-1.289062 -0.304695,-0.394528 -0.638679,-0.730465 -1.001953,-1.007813 -0.363288,-0.277339 -0.720709,-0.447261 -1.072265,-0.509765 -0.117194,0.125004 -0.250006,0.250004 -0.398438,0.375 -0.148443,0.125004 -0.310552,0.238285 -0.486328,0.339843 -0.175786,0.101567 -0.365239,0.183598 -0.568359,0.246094 -0.20313,0.0625 -0.414067,0.09375 -0.632813,0.09375 -0.648441,4e-6 -1.138675,-0.195309 -1.470703,-0.585937 -0.332034,-0.390621 -0.498049,-0.89062 -0.498047,-1.5 -2e-6,-0.312494 0.07422,-0.593744 0.222656,-0.84375 0.148435,-0.249994 0.339841,-0.460931 0.574219,-0.632813 0.234372,-0.171868 0.49609,-0.30468 0.785156,-0.398437 0.289059,-0.09374 0.570309,-0.140618 0.84375,-0.140625 0.171871,7e-6 0.335933,0.01759 0.492188,0.05273 0.156245,0.03516 0.296869,0.09571 0.421875,0.181641 -6e-6,-0.796867 -0.23438,-1.464835 -0.703125,-2.0039066 C 86.74226,9.0518689 86.039135,8.7120255 85.101639,8.5713902 84.750074,8.4776507 84.468824,8.385854 84.257889,8.2959995 84.04695,8.2061666 83.867262,8.0987449 83.718826,7.9737339 83.570388,7.8487451 83.443435,7.6983546 83.337967,7.522562 83.232497,7.3467925 83.109451,7.1299958 82.968826,6.8721714 l -0.832031,0 0,-1.2070312 12.46875,0 0,1.2070312 -2.226562,0 z M 85.65242,6.8721714 c 0.453121,0.2968869 0.892574,0.6406365 1.318359,1.03125 0.425777,0.3906358 0.804683,0.8183697 1.136719,1.2832031 0.332025,0.4648532 0.59765,0.9609465 0.796875,1.4882815 0.199212,0.527351 0.298822,1.076179 0.298828,1.646484 l 0,0.257813 c -6e-6,0.03907 -0.002,0.08008 -0.0059,0.123047 -0.0039,0.04298 -0.0098,0.08399 -0.01758,0.123046 0.351555,0.351569 0.707024,0.732428 1.066406,1.142579 0.359367,0.41016 0.683585,0.826176 0.972656,1.248046 l 0,-8.3437496 z"
       style=""
       id="path6569" />
    <path
       d="m 103.18367,19.036234 -1.30078,-1.347656 0,-6.714844 c -1e-5,-0.429679 -0.084,-0.861319 -0.25195,-1.294922 -0.16798,-0.4335839 -0.4004,-0.8242085 -0.69727,-1.171875 -0.29688,-0.3476453 -0.64454,-0.6308482 -1.042969,-0.8496093 -0.398442,-0.2187384 -0.828129,-0.3281133 -1.289062,-0.328125 -0.281254,1.17e-5 -0.550785,0.060558 -0.808594,0.1816406 -0.257816,0.1211052 -0.484378,0.2871206 -0.679687,0.4980469 -0.195316,0.2109483 -0.349612,0.4570418 -0.462891,0.7382812 -0.113284,0.28126 -0.169924,0.582041 -0.169922,0.9023438 -2e-6,0.2734466 0.02539,0.5234468 0.07617,0.7499998 0.05078,0.226571 0.126951,0.423837 0.228516,0.591797 0.101559,0.167977 0.230466,0.300789 0.386718,0.398438 0.156247,0.09766 0.335935,0.150398 0.539063,0.158203 l -0.09375,-0.597657 c -4e-6,-0.343741 0.115231,-0.593741 0.345703,-0.75 0.230465,-0.156241 0.498043,-0.2343655 0.802734,-0.2343746 0.132808,9.1e-6 0.257808,0.00782 0.375,0.023437 0.117183,0.015634 0.228511,0.054696 0.333985,0.1171871 0.105463,0.06251 0.207026,0.156259 0.304687,0.28125 0.09765,0.125009 0.193354,0.296884 0.287107,0.515625 l 0.0937,0.527344 c 0,0.210945 -0.0566,0.416023 -0.169919,0.615235 -0.113287,0.199225 -0.27149,0.375006 -0.47461,0.527343 -0.20313,0.15235 -0.44727,0.275397 -0.732422,0.369141 -0.28516,0.09376 -0.595707,0.140631 -0.93164,0.140625 -0.414066,6e-6 -0.802737,-0.09765 -1.166016,-0.292969 -0.363283,-0.195306 -0.681642,-0.462884 -0.955078,-0.802734 -0.273439,-0.339837 -0.488282,-0.740227 -0.644531,-1.201172 -0.156251,-0.460929 -0.234376,-0.9609284 -0.234375,-1.5000001 -1e-6,-0.4999897 0.08984,-0.9745986 0.269531,-1.4238281 0.179687,-0.4492071 0.429686,-0.8417849 0.75,-1.1777344 0.320311,-0.3359248 0.705076,-0.6015495 1.154297,-0.796875 0.449215,-0.1952991 0.939449,-0.2929553 1.470703,-0.2929687 0.351558,1.34e-5 0.67187,0.064466 0.960938,0.1933593 0.289057,0.1289194 0.552732,0.2988411 0.791012,0.5097657 0.23828,0.21095 0.45507,0.4570435 0.65039,0.7382812 0.19531,0.2812617 0.3789,0.5722771 0.55079,0.8730469 0.17186,0.3007921 0.33593,0.6054793 0.49218,0.9140625 0.15624,0.3086037 0.31249,0.599619 0.46875,0.8730469 -0.0391,-0.2421779 -0.0801,-0.5117089 -0.12304,-0.8085938 -0.043,-0.2968645 -0.084,-0.589833 -0.12305,-0.8789062 -0.0391,-0.2890512 -0.0723,-0.5566291 -0.0996,-0.8027344 -0.0273,-0.2460817 -0.041,-0.4394409 -0.041,-0.5800781 l 0,-2.1328125 0,-0.5742188 c 0,-0.1015473 -0.002,-0.1992034 -0.006,-0.2929687 -0.004,-0.093735 -0.01,-0.1874844 -0.0176,-0.28125 0.14843,0.1093906 0.27147,0.2402498 0.36914,0.3925781 0.0977,0.1523589 0.18554,0.3144681 0.26367,0.4863281 0.0781,0.1718897 0.15038,0.3398582 0.2168,0.5039063 0.0664,0.1640766 0.14647,0.3086077 0.24023,0.4335937 l 0.64453,0.5039063 1.69922,0 0,1.2070312 -2.25,0 z"
       style=""
       id="path6571" />
  </g>
</svg>
