<svg xmlns="http://www.w3.org/2000/svg" width="148" height="28" fill="none"><path fill="#484848" stroke="#484848" stroke-width="1.333" d="M1 6.343v15.14h5.594c3.212 0 4.873-2.021 4.873-4.373 0-1.77-1.02-3.182-2.572-3.602 1.21-.52 2.021-1.691 2.021-3.122 0-1.831-.94-4.043-4.493-4.043H1ZM36.293 1a1.741 1.741 0 0 1 0 3.482 1.742 1.742 0 0 1 0-3.482ZM16.28 1c.96 0 1.741.78 1.741 1.741a1.742 1.742 0 0 1-3.482 0c0-.96.78-1.741 1.74-1.741ZM3.05 8.195h3.242c.47 0 2.572-.03 2.572 2.191 0 1.461-.97 2.402-2.572 2.402H3.051V8.195Zm0 6.454h3.322c2.852 0 3.042 1.851 3.042 2.481 0 1.061-.63 2.492-3.042 2.492H3.051v-4.973Zm12.208 6.834H17.3V6.343h-2.04v15.14Zm8.546 0V6.343h-2.042v15.14h2.042Zm5.983 0h2.632l-6.204-7.835 5.814-7.305h-2.412l-5.923 7.475 6.093 7.665Zm5.474 0h2.051V6.343h-2.05v15.14Z"/><path fill="#666" stroke="#666" stroke-width="1.333" d="M81.854 6.417h-1.928V9.02h-.05c-1.815-2.779-4.618-2.966-5.907-2.966-5.382 0-7.998 4.205-7.998 7.772 0 4.669 3.542 7.96 8.048 7.96 3.266 0 5.006-1.864 5.857-3.154h.05v2.804h1.928V6.416Zm-7.885 1.477c3.404 0 5.957 2.716 5.957 6.12 0 3.304-2.603 5.933-5.907 5.933-3.204 0-6.008-2.529-6.008-5.958 0-3.48 2.691-6.095 5.958-6.095Zm10.05-1.477v15.019h2.028v-6.784h8.398v6.784h2.04V6.416h-2.04v6.396h-8.398V6.417h-2.028Zm23.643 0h-2.19l-5.858 13.18H98.05v5.681h2.04v-3.842h12.954v3.842h2.04v-5.682h-1.565l-5.857-13.18Zm-5.845 13.18 4.756-10.902 4.744 10.901h-9.5Zm14.731 7.108h2.028v-8.073h.063c.513.876 2.052 3.154 5.707 3.154 4.618 0 8.048-3.316 8.048-7.797 0-3.818-2.716-7.935-7.998-7.935-1.364 0-4.005.325-5.87 2.941h-.063V6.417h-1.915v20.288Zm7.848-18.811c3.354 0 5.958 2.665 5.958 6.07 0 3.404-2.691 5.982-6.008 5.982-3.43 0-5.883-2.603-5.883-5.932 0-3.38 2.453-6.12 5.933-6.12Zm9.587-1.477v15.019h2.028l8.949-12.14v12.14H147V6.416h-2.04l-8.949 12.129V6.417h-2.028Zm-70.816 0 2.904 15.019h-2.528L61.14 8.67l-5.244 12.766H54.13L48.887 8.67l-2.404 12.766h-2.54l2.916-15.02h3.129l5.019 12.279 5.031-12.278h3.13Z"/></svg>