<svg xmlns="http://www.w3.org/2000/svg" viewBox="0 0 87.969 21"><path fill="#54595d" fill-rule="evenodd" d="m87.411 6.644-7.276-.4-.098.166c1 1.34 1.33 2.85 1.136 4.677l6.316-4.239zm-8.678 6.664c-1.54.162-2.94-.15-4.16-1.183l-.174.113.409 7.088.175.05 3.83-5.878zm-5.281-4.227c.823-1.71 1.96-2.89 3.643-3.516l.03-.202-7.01-3.572-.163.147z" opacity=".5"/><text xml:space="preserve" x="33.745" y="19.045" font-family="'Siyam Rupali'" letter-spacing="0" style="line-height:0%" text-anchor="middle" word-spacing="0"><tspan x="35.655" y="19.045"> </tspan></text><g fill="#54595d"><path d="M63.988 14.115q0 1.91-1.41 3.79-1.57 2.1-3.629 2.104-.763 0-1.572-.173-.589-.127-1.537-.44-.75-.265-1.502-.52l.196-.404 1.352.312q.717.173 1.283.173 1.41 0 2.67-.716.982-.566 1.965-1.641.497-.543 1.41-1.768-1.56 0-2.335-.497-.878-.566-.878-1.861 0-1.19.554-2.208.647-1.18 1.641-1.178 1.01 0 1.445 1.167.347.913.347 2.543zm-.728-1.26q-.254-1.11-.613-1.537-.312-.37-.762-.37-.324 0-.567.22-.23.208-.23.532 0 .566.508.866.509.29 1.664.29zm-9.5 1.953h-6.588v-2.011h5.744q0-1.36-.323-2.08-.22-.497-1.087-1.433l.902-1.884q.832 1.05 1.04 1.64.312.89.312 2.948zm-.104 2.288-.855 1.676-1.896-.97.879-1.676zm-2.635 1.075-.867 1.653-1.907-.982.902-1.665z"/><path d="M44.156 11.11q.543.659 1.063 1.098.705.589 1.225.59h1.514v2.01h-1.421q-.948 0-1.988-.97-.51-.475-1.445-1.688-.566-.728-.693-.878-.29-.347-.879-.913 0 2.06-1.283 3.213-1.38 1.24-4.09 1.236h-1.191v-2.01h1.248q1.84 0 3.086-.475 1.49-.566 1.49-1.595 0-.774-.566-1.306-.289-.277-1.12-.716l-.382.358-1.364-1.04q-.717-.601-.716-.936 0-1.99.97-3.12.901-1.04 3.11-1.873L43.981.824v2l-2.415.808q-1.44.474-2.335.867-1.13.497-1.132.763t.74.82q.461.347.936.694 1.02.774 1.837 1.525.705.647 1.318 1.34.38.429 1.225 1.469z"/><path d="M35.777 14.808h-6.588v-2.011h5.744q0-1.36-.323-2.08-.22-.497-1.087-1.433l.902-1.884q.832 1.05 1.04 1.64.312.89.312 2.948zm-.104 2.288-.855 1.676-1.896-.97.879-1.676zm-2.635 1.075-.867 1.653-1.907-.982.902-1.665z"/><path d="M29.987 14.808h-.89q-.74 0-1.271-.196-.532-.208-.971-.578-.543.428-.948.566-.589.208-1.618.208h-.751q-.601 0-1.202-.231-.393-.15-.97-.497-.556.416-1.018.578-.462.15-1.502.15h-2.23v-2.011h2.23q.936 0 1.34-.162.67-.266.67-1.063 0-.335-.034-.67-.035-.335-.127-.752l.474-.693q.324 1.06.531 1.549.37.844.81 1.27.531.52 1.27.521h.775q.867 0 1.283-.266.462-.3.462-.96 0-.357-.046-.693-.046-.335-.127-.728l.485-.693.243 1.086q.312 1.28.763 1.78.393.44 1.063.44.312 0 .497-.186.196-.196.196-.497 0-.647-.473-1.363-.081-.116-.567-.752l.752-1.26q.474.718.647 1.237.254.786.254 2.092z"/><path d="M17.401 14.808h-7.027v-2.011h3.964q.717 0 1.214-.046.509-.058 1.098-.231-1.99-.29-2.578-.544-1.33-.578-1.329-1.964 0-1.21.636-2.289.717-1.21 1.745-1.213 1.18 0 1.792 1.502.485 1.19.485 2.809zm-1.04-4.034q-.266-.924-.509-1.375-.474-.867-1.144-.867-.324 0-.555.255-.23.254-.23.6 0 .879.912 1.18.324.103 1.526.207zm.011-8.274-.901 1.675-1.872-.97.855-1.688z"/><path d="M11.194 14.808q0 1.27-1.086 2.635-.948 1.2-2.358 2.069-1.34.832-2.207.832-.797 0-1.722-.231-.705-.173-1.688-.543-.832-.312-1.653-.624l.197-.463q.763.15 1.583.3.832.163 1.503.163 1.48 0 3.086-.948 1.46-.867 2.484-2.184 1.03-1.33 1.029-2.393 0-.913-.532-1.918-.428-.81-1.202-1.665l.66-1.814q.947.878 1.398 1.757.509.994.508 2.219z"/></g></svg>