<svg xmlns="http://www.w3.org/2000/svg" width="120" height="28"><path fill="#000" fill-rule="nonzero" d="m16.939 25.407-4.645-2.977c.594-.81 1.137-1.835 1.63-3.069.63-1.577.946-3.018.946-4.324 0-1.95-.55-3.546-1.643-4.794-1.208-1.365-2.873-2.05-5.003-2.05-1.369 0-2.584.338-3.642 1.014a5.415 5.415 0 0 0-2.234 2.766c-.128.366-.192.82-.192 1.358 0 1.169.24 2.017.726 2.536.31-.54.81-1.14 1.494-1.8.593-.575 1.13-1.005 1.616-1.293l1.575 1.213a9.444 9.444 0 0 0-2.211 1.982c-.72.887-1.077 1.691-1.077 2.414 0 .845.29 1.547.874 2.1.584.56 1.349.837 2.296.837 1.022 0 1.815-.258 2.381-.77.49-.436.738-.978.738-1.633 0-.992-.438-1.625-1.315-1.892l-2.205 2.09-1.445-1.343 5.404-5.09c.256.224.73.664 1.425 1.327-.428.44-.987.97-1.67 1.608 1.241.729 1.861 1.809 1.861 3.237 0 1.304-.501 2.354-1.506 3.144-.97.767-2.19 1.148-3.66 1.148-1.708 0-3.057-.495-4.044-1.49-.886-.875-1.329-1.936-1.329-3.182 0-.252.023-.504.069-.755C.717 16.845 0 15.412 0 13.41c0-.383.032-.776.096-1.174.267-1.715 1.192-3.14 2.782-4.281C4.44 6.828 6.23 6.26 8.25 6.26c2.685 0 4.834.881 6.453 2.635 1.515 1.646 2.277 3.712 2.277 6.199 0 1.173-.234 2.447-.699 3.823-.395 1.16-.851 2.133-1.374 2.923l3.236 1.844c-.218.343-.619.913-1.204 1.723Zm5.053-10.076c.62-.415 1.271-.625 1.944-.625 1.097 0 1.951.41 2.565 1.229.536-.818 1.405-1.23 2.604-1.23 1.069 0 1.927.433 2.576 1.295.575.767.864 1.681.864 2.753 0 1.145-.28 2.108-.848 2.872-.65.869-1.568 1.303-2.755 1.303-1.105 0-1.932-.41-2.48-1.238-.54.827-1.413 1.238-2.617 1.238-1.17 0-2.089-.46-2.752-1.384-.56-.764-.835-1.659-.835-2.675 0-.66.148-1.334.45-2.013-1.16-.715-1.738-1.937-1.738-3.67 0-2.037.923-3.73 2.78-5.08 1.673-1.221 3.541-1.83 5.605-1.83 2.748 0 4.975.842 6.672 2.532 1.653 1.651 2.483 3.772 2.483 6.363 0 2.705-.625 4.912-1.872 6.613l2.873 1.871-1.1 1.468-4.399-2.74a12.89 12.89 0 0 0 1.863-3.39c.441-1.183.658-2.226.658-3.13 0-2.269-.589-4.104-1.766-5.503-1.279-1.531-3.084-2.297-5.412-2.297-1.563 0-2.983.5-4.262 1.499-1.337 1.036-2.001 2.24-2.001 3.624-.004 1.126.299 1.843.9 2.145Zm1.96 1.216c-.504 0-.928.265-1.275.798-.3.48-.453.998-.453 1.554 0 .612.15 1.14.443 1.584.31.47.7.705 1.165.705.566 0 .995-.256 1.29-.771.254-.438.381-.962.381-1.586 0-.61-.137-1.133-.41-1.581-.305-.466-.682-.703-1.141-.703Zm5.125-.054c-.512 0-.915.214-1.218.637-.303.42-.451.975-.451 1.656 0 .583.119 1.097.357 1.544.292.542.696.81 1.206.81 1.004 0 1.509-.777 1.509-2.328 0-.55-.096-1.035-.288-1.452-.252-.576-.62-.867-1.115-.867Zm25.87 1.803-1.906-.785c.62-.776.931-1.763.931-2.96 0-1.82-.615-3.339-1.85-4.555-1.269-1.246-2.911-1.867-4.92-1.867-1.79 0-3.31.551-4.562 1.65-1.254 1.1-1.827 2.361-1.727 3.778.065.89.43 1.43 1.097 1.632.749-.61 1.662-.916 2.742-.916 1.171 0 2.057.372 2.66 1.113.511-.74 1.32-1.113 2.424-1.113.867 0 1.572.261 2.11.773.54.513.808 1.177.808 1.997v6.016h-1.972v-5.67c0-.884-.362-1.324-1.09-1.324-.818 0-1.225.53-1.225 1.591v5.481h-2.03v-2.076c-.555.307-1.215.444-1.976.419-1.09-.034-1.967-.4-2.623-1.083-.66-.688-.99-1.521-.99-2.509 0-.233.064-.612.192-1.13-1.253-.397-1.985-1.333-2.205-2.822a4.866 4.866 0 0 1-.056-.718c0-1.827.858-3.442 2.577-4.847 1.716-1.406 3.661-2.108 5.836-2.108 2.596 0 4.753.795 6.482 2.382 1.726 1.588 2.55 3.567 2.467 5.932-.05 1.41-.446 2.647-1.194 3.72Zm-10.292-2.232c-.513 0-.928.171-1.247.513-.32.343-.479.76-.479 1.256 0 .535.161.974.49 1.312.339.365.804.549 1.398.549.484 0 .88-.18 1.191-.536.301-.33.453-.719.453-1.17 0-.58-.162-1.046-.487-1.399-.321-.35-.762-.525-1.32-.525Zm9.04-11.343c-.32-.809-1.064-1.521-2.237-2.138-1.194-.646-2.442-.969-3.74-.969-1.378 0-2.645.286-3.794.858-1.152.57-1.988 1.334-2.509 2.289l-2.507.143c.741-1.54 1.976-2.756 3.7-3.653A10.824 10.824 0 0 1 47.705 0c1.737 0 3.367.415 4.894 1.251 1.616.898 2.755 2.09 3.41 3.577l-2.315-.107Zm19.588 0c-.32-.809-1.065-1.521-2.237-2.138-1.196-.646-2.443-.969-3.74-.969-1.375 0-2.643.286-3.795.858-1.153.57-1.985 1.334-2.504 2.289l-2.512.143c.74-1.54 1.976-2.756 3.7-3.653A10.835 10.835 0 0 1 67.291 0c1.737 0 3.367.415 4.892 1.251 1.62.898 2.754 2.09 3.413 3.577l-2.313-.107Zm19.895 0c-.319-.809-1.064-1.521-2.232-2.138-1.197-.646-2.446-.969-3.741-.969-1.382 0-2.642.286-3.794.858-1.154.57-1.99 1.334-2.511 2.289l-2.506.143c.739-1.54 1.974-2.756 3.7-3.653A10.826 10.826 0 0 1 87.19 0c1.735 0 3.368.415 4.89 1.251 1.62.898 2.753 2.09 3.415 3.577l-2.317-.107ZM72.67 23.23v-1.725c-1.426 1.011-3.31 1.513-5.651 1.513-1.535 0-2.883-.307-4.034-.914-1.426-.756-2.14-1.835-2.14-3.234 0-.639.225-1.208.671-1.712-1.635-.79-2.45-2.152-2.45-4.085 0-2.017.91-3.687 2.725-5.011 1.71-1.233 3.683-1.834 5.923-1.8 1.973.041 3.626.604 4.959 1.682V6.261h2.358v16.968H72.671Zm.098-12.021c-.394-.998-1.193-1.774-2.401-2.324a7.401 7.401 0 0 0-3.057-.652c-1.588 0-2.998.49-4.234 1.46-1.231.978-1.85 2.109-1.85 3.395 0 .678.218 1.28.658 1.804.383.47.805.739 1.261.81 1.424-.637 3.16-1.028 5.206-1.178l.673 2.076a7.497 7.497 0 0 0-.725-.037c-1.227 0-2.364.229-3.412.68-1.154.487-1.728 1.085-1.728 1.798 0 .584.351 1.09 1.054 1.528.757.468 1.72.703 2.879.703 1.23 0 2.428-.304 3.589-.915 1.288-.668 1.981-1.464 2.085-2.387l.002-6.761Zm21.959 6.59a57.828 57.828 0 0 0-2.11-.676c.504-.776.755-1.9.755-3.369 0-1.635-.64-2.996-1.916-4.078-1.27-1.082-2.85-1.625-4.732-1.625-1.231 0-2.416.354-3.544 1.058-1.127.705-1.893 1.554-2.296 2.544a4.5 4.5 0 0 0-.342 1.696c0 1.116.43 1.918 1.288 2.403.71-1.094 1.79-2.13 3.22-3.106l1.619 1.334c-2.36 1.416-3.538 2.982-3.538 4.696 0 .765.317 1.413.945 1.932.608.508 1.32.758 2.142.758 1.01 0 1.828-.242 2.446-.73.617-.49.923-1.144.923-1.972 0-.832-.403-1.458-1.205-1.865l-2.236 2.008-1.487-1.427 5.844-5.15 1.442 1.268-2.084 1.837c.536.35.976.83 1.316 1.446.338.614.505 1.206.505 1.78 0 1.507-.53 2.677-1.599 3.511-.999.775-2.305 1.163-3.923 1.163-1.468 0-2.706-.428-3.71-1.28-1.05-.899-1.543-2.016-1.468-3.357l.058-1.084a3.998 3.998 0 0 1-1.988-1.735c-.447-.765-.671-1.623-.671-2.572 0-.773.152-1.512.467-2.218.617-1.435 1.678-2.6 3.177-3.5a8.938 8.938 0 0 1 4.71-1.329c2.46 0 4.527.703 6.194 2.112 1.722 1.457 2.577 3.299 2.577 5.534.002 1.307-.258 2.637-.78 3.993Zm-7.806 9.725c-.546 0-1.014-.159-1.41-.485-.397-.319-.592-.71-.592-1.17 0-.485.192-.894.576-1.23.383-.333.857-.5 1.425-.5.575 0 1.06.167 1.453.5.4.336.594.746.594 1.23 0 .506-.213.91-.634 1.223-.393.29-.865.432-1.412.432ZM100.94 9.76a1.83 1.83 0 0 1 .399-.036c.374 0 .699.125.973.376.272.252.411.532.411.847a.916.916 0 0 1-.289.666c-.401.406-.873.612-1.413.612-.43 0-.828-.13-1.2-.39-.367-.264-.6-.565-.693-.913a4.481 4.481 0 0 1-.165-1.175c0-.977.309-1.773.918-2.404.677-.686 1.614-1.033 2.81-1.033.409 0 .833.103 1.274.305.466.225.818.5 1.053.831.56-.82 1.443-1.224 2.66-1.224.976 0 1.82.344 2.532 1.027.716.688 1.074 1.483 1.074 2.39 0 2.527-1.518 4.157-4.557 4.89-1.528.363-2.632.702-3.306 1.013-1.263.583-1.897 1.304-1.897 2.168 0 1.079.537 1.933 1.607 2.57.959.562 2.106.847 3.43.847 1.547 0 2.996-.577 4.349-1.737 1.319-1.141 1.975-2.317 1.975-3.523V6.26h2.22v16.615h-2.22v-2.73c-.619.921-1.535 1.647-2.74 2.168-1.16.494-2.434.741-3.822.741-1.819 0-3.418-.485-4.798-1.458-1.459-1.026-2.19-2.3-2.19-3.82 0-1.506.813-2.683 2.436-3.533.597-.302 2.103-.811 4.524-1.511 1.883-.536 2.826-1.553 2.826-3.043 0-.411-.152-.8-.454-1.153-.299-.351-.658-.528-1.082-.528-.38 0-.736.118-1.054.353-.32.233-.48.515-.48.843v2.16h-2.11V9.143c0-.254-.132-.49-.396-.71-.27-.22-.597-.33-.99-.33-.56 0-.991.2-1.3.608-.264.346-.369.696-.315 1.05Zm16.802 13.063V6.262H120v16.561h-2.258Z"/></svg>