<svg xmlns="http://www.w3.org/2000/svg" width="120" height="16" fill="none"><path fill="#000" d="M1.393 14.001v-3.245h7.748V14H1.393Zm7.748-6.933v3.178H1.393V7.068h7.748Zm0-3.602v3.127H1.393V3.466h7.748Zm.561-1.342-.747.867h-4.64c.63-.68 1.241-1.496 1.649-2.124.357-.017.544-.187.595-.391L4.316.085c-.102.85-.323 2.022-.595 2.906H1.512L0 2.31v13.406h.238c.629 0 1.155-.357 1.155-.527v-.68h7.748v1.173h.204c.493 0 1.173-.357 1.207-.493V3.755c.357-.085.611-.238.73-.374l-1.58-1.257Zm13.946 11.69V9.26h4.281v4.554h-4.281Zm-5.54-4.554h4.146v4.554h-4.146V9.26Zm4.146-4.774V8.75h-4.146V4.486h4.146Zm5.675 0V8.75h-4.281V4.486h4.281Zm.578-1.394-.782.901h-4.078V.918c.425-.068.561-.238.612-.476L22.254.22v3.772h-4.027L16.75 3.33v12.404h.238c.578 0 1.121-.323 1.121-.493v-.934h9.821v1.308h.204c.493 0 1.156-.323 1.173-.459V4.843c.424-.085.764-.255.9-.425l-1.699-1.326ZM62.702 5.54v3.687H54.97V5.54h7.73ZM54.97 13.78V9.72h7.73v4.06h-7.73Zm8.597-12.2H51.334l.153.476h6.185l-.1.764c-.11.79-.24 1.628-.342 2.226h-2.14l-1.496-.645v11.3h.238c.612 0 1.139-.34 1.139-.51v-.918h7.73v1.325h.221c.476 0 1.156-.34 1.173-.442V5.794c.34-.068.595-.22.697-.357l-1.53-1.206-.73.815h-4.775c.527-.781 1.139-1.954 1.614-2.99h6.474c.255 0 .425-.085.476-.272l-.956-.767a94.057 94.057 0 0 0-.828-.643l-.969 1.206Zm12.926.425c.816.629 1.767 1.716 2.056 2.617 1.376.883 2.31-1.903-1.886-2.753l-.17.136Zm-.374 4.078c.833.595 1.818 1.665 2.107 2.532 1.41.866 2.328-1.937-1.954-2.685l-.153.153Zm-2.871-.408h2.447c.22 0 .39-.085.424-.272l-.22-.22c-.51-.492-1.173-1.054-1.173-1.054l-.782 1.053h-.696V2.04c.662-.17 1.274-.34 1.784-.493.442.136.764.136.9-.017L74.336.136c-1.172.782-3.5 1.801-5.42 2.362l.085.255a28.916 28.916 0 0 0 2.922-.442v2.871h-2.99l.136.493h2.6c-.612 2.362-1.666 4.809-3.11 6.61l.238.22a14.464 14.464 0 0 0 3.126-3.89v7.136h.221c.646 0 1.105-.323 1.105-.425V7.221c.594.697 1.223 1.598 1.444 2.362 1.155.85 2.175-1.444-1.444-2.803V5.675Zm9.481 4.146-.595.119V1.121c.425-.068.561-.254.612-.492L80.81.425v9.77l-5.964 1.155.22.442 5.744-1.104V15.7h.255c.51 0 1.07-.323 1.07-.493v-4.774l2.396-.459c.204-.034.374-.17.374-.357l-.51-.39a50.395 50.395 0 0 0-.985-.714l-.68 1.308Zm16.766 4.809H95.18v-3.654h4.809c.238 0 .424-.084.458-.271l-.251-.211c-.616-.504-1.397-1.064-1.397-1.064l-.866 1.054H95.18V7.272h4.078c.238 0 .408-.085.459-.271l-.372-.304a75.274 75.274 0 0 0-1.191-.937l-.85 1.02h-7.731l.136.492h4.06v3.212H89.25l.136.492h4.384v3.654h-6.644l.153.51h14.409c.238 0 .408-.085.442-.272l-.239-.218a28.285 28.285 0 0 0-1.478-1.193l-.917 1.173ZM93.702 0c-.867 2.48-4.265 6.1-7.12 7.867l.12.221c3.245-1.495 6.677-4.384 8.325-6.95 1.156 2.6 3.687 4.86 6.372 6.304.136-.526.595-1.07 1.223-1.206l.017-.255c-2.854-1.138-5.777-2.855-7.306-5.063.442-.034.663-.12.714-.34L93.702 0Zm21.727.799c1.02.713 2.362 2.005 2.923 2.99 1.614.73 2.209-2.362-2.77-3.143l-.153.153ZM110.808.05l1.971.22c-.034.222-.153.375-.544.443v2.973h3.228l.629-.713 1.41 1.138c-.119.136-.255.187-.56.22l-.255 3.705h1.036l.799-.799L120 8.478c-.119.137-.323.222-.663.273l-.035.74c-.137 2.495-.432 3.998-1.052 4.51-.442.374-1.088.56-1.92.56.017-.424-.068-.78-.306-.985-.289-.22-1.003-.442-1.682-.543l.017-.255 1.907.136c.176.01.319.017.404.017.305 0 .441-.034.577-.153.357-.323.544-1.87.629-4.248h-5.641v6.694c0 .187-.629.527-1.156.527h-.271V8.53h-5.862l-.136-.493h5.998v-3.84h-4.588l-.153-.51h4.741V.051Zm4.774 4.146h-3.347v3.84h3.075l.272-3.84ZM33.085 8.564c3.551-1.682 6.559-4.74 8.02-7.34 1.308 2.87 3.636 5.335 6.576 7.017.17-.56.543-1.07 1.155-1.274l.034-.255c-3.143-1.224-5.862-3.33-7.476-5.676.492-.05.662-.152.73-.356l-2.26-.595c-1.036 2.77-3.874 6.219-6.898 8.24l.119.239Zm7.323 7.221c.544 0 1.173-.306 1.173-.459V5.59c.441-.068.594-.238.628-.476l-2.073-.203v10.874h.272Z"/></svg>