<svg xmlns="http://www.w3.org/2000/svg" width="120" height="17"><path fill="#000" fill-rule="nonzero" d="M6.316 5.263v2.9c0 .53-.106 1-.318 1.41-.205.404-.497.655-.874.755l-.596-.695c.53-.146.795-.643.795-1.49v-2.88H1.946v3.774c0 .55.166.98.497 1.29l3.476 3.278c.53.496.794.894.794 1.191 0 .63-.397 1.093-1.192 1.39l-.794-.694c.596-.093.894-.325.894-.696 0-.218-.133-.45-.398-.695L1.55 10.725C1.152 10.36.953 9.81.953 9.076V5.263H0V4.37h19.206v.894h-5.74v2.681c.457-.794 1.152-1.191 2.085-1.191.662 0 1.208.265 1.639.794.43.523.645 1.152.645 1.887 0 1.317-.629 2.51-1.887 3.575l-.893-.596c1.191-.854 1.787-1.847 1.787-2.979 0-.444-.12-.834-.357-1.172-.239-.344-.55-.516-.934-.516-.483 0-.917.179-1.3.536a2.825 2.825 0 0 0-.785 1.35V14.3h-.993v-2.98c-.51.597-1.172.895-1.986.895a2.489 2.489 0 0 1-1.828-.755 2.489 2.489 0 0 1-.754-1.827c0-.815.288-1.497.864-2.046.582-.556 1.287-.834 2.115-.834.503 0 .834.066.993.198l-.199.993a1.608 1.608 0 0 0-.794-.198c-.543 0-1.01.182-1.4.546-.391.364-.586.81-.586 1.34a1.559 1.559 0 0 0 1.589 1.59c.417 0 .79-.106 1.122-.318.33-.219.619-.543.864-.974V5.263H6.316Zm39.781 0V14.3h-.993V8.143h-3.873a.96.96 0 0 0-.784.387 1.384 1.384 0 0 0-.308.904c0 .669.215 1.35.646 2.046.43.695 1.075 1.403 1.936 2.125l-.596.695c-.993-.84-1.738-1.665-2.234-2.473-.497-.814-.745-1.612-.745-2.393 0-.622.199-1.159.596-1.609.397-.45.894-.675 1.49-.675h3.872V5.263h-8.083V14.3h-.993v-3.178c-.55.662-1.245.993-2.086.993-.82 0-1.522-.255-2.105-.764-.582-.51-.874-1.15-.874-1.917 0-.768.292-1.407.874-1.917.583-.51 1.284-.764 2.105-.764.49 0 .92.132 1.291.397l-.496.794c-.252-.198-.517-.298-.795-.298a2.07 2.07 0 0 0-1.4.517c-.39.344-.586.768-.586 1.271 0 .483.196.887.586 1.211.397.318.864.477 1.4.477.41 0 .788-.122 1.132-.367.351-.252.67-.626.954-1.122v-4.37h-8.72v2.681c0 .51-.161.954-.486 1.331-.324.37-.725.556-1.201.556-.305 0-.53-.06-.676-.179.45.729.964 1.424 1.54 2.086a17.892 17.892 0 0 0 1.936 1.867l-.596.695a18.931 18.931 0 0 1-2.87-3 20.49 20.49 0 0 1-2.194-3.654l.893-.496c.245.596.507 1.043.785 1.34.278.298.573.447.884.447.284 0 .52-.092.705-.278a.97.97 0 0 0 .288-.715v-2.68h-3.794v-.895h39.702v.894H60.04V14.3h-.993v-3.674l-3.575 2.383-.497-.794L58.57 9.83c-.927-.927-1.662-1.39-2.205-1.39-.748 0-1.443.265-2.085.794l-.398-.531v.035h-3.078c-.397 0-.595.132-.595.397v1.092c0 .398-.133.596-.398.596-.298 0-.688-.33-1.171-.993-.477-.662-.715-1.158-.715-1.49 0-.33.231-.496.695-.496h5.263l-.001.44c.753-.559 1.58-.837 2.483-.837.729 0 1.622.53 2.682 1.589V5.263h-12.95ZM30.685 8.54v.993h-2.681l-.497-.993h3.178ZM120 4.37v.893h-1.907v2.284c0 .603-.202 1.119-.605 1.55-.398.423-.89.635-1.48.635-.172 0-.437-.066-.794-.199.423.742.923 1.453 1.499 2.135.583.676 1.241 1.321 1.976 1.937l-.596.695a18.93 18.93 0 0 1-2.87-3 20.49 20.49 0 0 1-2.194-3.654l.894-.496c.172.477.446.86.824 1.152.384.291.804.437 1.26.437a.99.99 0 0 0 .776-.348 1.23 1.23 0 0 0 .317-.844V5.263h-5.879V14.3h-.993V5.263h-2.999V14.3h-.993V5.263h-1.886v4.171c0 .682-.219 1.268-.656 1.758-.437.483-.98.725-1.628.725a2.242 2.242 0 0 1-1.699-.725c-.456-.484-.685-1.07-.685-1.758v-4.17H97.24V14.3h-.993v-4.27H92.97v.794c0 .265-.165.397-.496.397-.212 0-.563-.244-1.053-.734s-.735-.841-.735-1.053c0-.132.04-.232.12-.298.085-.066.211-.1.377-.1h.794v-2.88c0-.277-.086-.512-.258-.704a.801.801 0 0 0-.636-.288c-.238 0-.446.066-.625.198a.58.58 0 0 0-.268.497c0 .265.073.463.218.596.152.132.378.198.675.198v.993c-.516 0-.96-.172-1.33-.516a1.666 1.666 0 0 1-.556-1.271c0-.214.037-.412.112-.596h-1.88V14.3h-.993V8.838h-2.88c-.397 0-.596.133-.596.397v.993c0 .398-.165.596-.496.596-.252 0-.646-.344-1.182-1.033-.536-.688-.804-1.171-.804-1.45 0-.33.231-.496.695-.496h5.263V5.263h-7.746V14.3h-.993V5.263h-2.979V14.3h-.993V7.646h-5.76c-.33 0-.496.1-.496.298 0 .285.178.64.536 1.063.364.417.682.626.953.626.219 0 .533-.067.944-.199.417-.132.731-.199.943-.199.331 0 .596.163.795.487.198.324.297.692.297 1.102 0 .695-.288 1.268-.864 1.718-.569.444-1.24.666-2.015.666.251.556.88.92 1.886 1.092l-.695.695c-.913-.258-1.642-.722-2.184-1.39-.49 0-.927-.12-1.311-.358-.384-.238-.576-.55-.576-.933 0-.252.086-.464.258-.636a.864.864 0 0 1 .636-.258c.31 0 .774.364 1.39 1.092a3.995 3.995 0 0 0 1.728-.546c.503-.31.754-.692.754-1.142 0-.463-.165-.695-.496-.695-.14 0-.39.066-.755.199-.357.132-.635.198-.834.198-.45 0-.96-.317-1.53-.953-.569-.636-.853-1.185-.853-1.648 0-.371.145-.676.437-.914a1.61 1.61 0 0 1 1.052-.358h5.76v-1.39H65.54V4.37h24.072l-.002.425a1.977 1.977 0 0 1 1.472-.623c.529 0 .976.195 1.34.586.364.39.546.857.546 1.4v2.88h3.277V5.263h-2.582V4.37H120Zm-16.643.893h-2.682v4.171c0 .404.133.755.397 1.053.272.29.603.437.994.437.37 0 .678-.146.923-.437.245-.292.368-.643.368-1.053v-4.17ZM100.06.794c-.133.775-.474 1.417-1.023 1.927a2.822 2.822 0 0 1-1.957.755 2.787 2.787 0 0 1-1.946-.755c-.556-.51-.9-1.152-1.033-1.927h.993c.093.537.325.987.695 1.351.365.357.795.536 1.291.536.497 0 .93-.179 1.301-.536.364-.364.593-.814.686-1.35h.993ZM97.676.645c0 .43-.215.646-.645.646-.43 0-.646-.215-.646-.646 0-.43.215-.645.646-.645.43 0 .645.215.645.645Z"/></svg>