<svg xmlns="http://www.w3.org/2000/svg" width="119" height="16"><path fill="#000" fill-rule="nonzero" d="M11.385 5.44c.466 0 .846.173 1.14.52.293.333.44.727.44 1.18 0 .36-.114.673-.34.94-.227.253-.527.38-.9.38a.8.8 0 0 1-.5-.04c-.147-.08-.22-.227-.22-.44 0-.147.073-.253.22-.32.146-.067.28-.1.4-.1.24 0 .406-.08.5-.24a.837.837 0 0 0 .12-.58.758.758 0 0 0-.24-.54.759.759 0 0 0-.56-.22c-.454 0-.774.14-.96.42-.187.28-.28.6-.28.96 0 .587.1 1.08.3 1.48.2.387.413.733.64 1.04.2.227.406.48.62.76.213.267.393.54.54.82.146.293.246.607.3.94.066.347.04.713-.08 1.1a2.78 2.78 0 0 1-.38.8c-.147.24-.394.42-.74.54-.254.107-.52.113-.8.02a1.377 1.377 0 0 1-.7-.54c-.12.2-.274.353-.46.46-.187.12-.407.18-.66.18a.912.912 0 0 1-.76-.36c-.2-.24-.3-.54-.3-.9 0-.307.1-.553.3-.74.186-.173.4-.287.64-.34.226-.04.46-.02.7.06.24.093.406.247.5.46.146.453.453.68.92.68.293 0 .54-.127.74-.38.2-.253.3-.527.3-.82 0-.173-.014-.34-.04-.5a1.863 1.863 0 0 0-.18-.52c-.08-.173-.2-.38-.36-.62a7.398 7.398 0 0 0-.64-.86 3.41 3.41 0 0 1-.74-1.32 4.198 4.198 0 0 1-.2-1.5c.04-.533.2-.973.48-1.32.266-.36.68-.54 1.24-.54Zm-2.56 7.7a.352.352 0 0 0-.26.1.303.303 0 0 0-.12.24c0 .16.046.26.14.3a.48.48 0 0 0 .32.06c.12 0 .233-.04.34-.12a.445.445 0 0 0 .18-.24 1.034 1.034 0 0 0-.28-.26.804.804 0 0 0-.32-.08ZM6.66 4.5a2.784 2.784 0 0 1 1.88 1.02c.24.293.413.647.52 1.06.107.4.147.86.12 1.38-.04.347-.12.713-.24 1.1-.107.373-.267.72-.48 1.04-.2.307-.46.56-.78.76-.307.2-.667.3-1.08.3-.533 0-.967-.173-1.3-.52a6.663 6.663 0 0 1-.88-1.14 30.52 30.52 0 0 0-.68-1.12c-.2-.347-.44-.513-.72-.5-.227.027-.4.087-.52.18a.667.667 0 0 0-.24.36.718.718 0 0 0 .02.44c.053.147.14.3.26.46.107.107.227.213.36.32.133.107.253.213.36.32.12.107.2.22.24.34.053.12.047.24-.02.36a.719.719 0 0 1-.34.32c-.147.067-.293.1-.44.1-.227 0-.433-.06-.62-.18a2.034 2.034 0 0 1-.5-.46 2.58 2.58 0 0 1-.34-.62 1.812 1.812 0 0 1-.12-.64c0-.587.133-1.033.4-1.34.267-.32.587-.513.96-.58a1.966 1.966 0 0 1 1.16.16c.4.173.727.44.98.8.253.36.56.633.92.82.36.187.66.28.9.28.427 0 .787-.093 1.08-.28.293-.187.513-.413.66-.68.16-.267.253-.56.28-.88.027-.333-.02-.64-.14-.92a1.595 1.595 0 0 0-.56-.74c-.253-.213-.58-.347-.98-.4-.293-.04-.487-.093-.58-.16-.093-.067-.14-.18-.14-.34a.4.4 0 0 1 .14-.32c.107-.08.26-.113.46-.1ZM4.14 0c.4 0 .7.127.9.38.213.24.353.46.42.66a.365.365 0 0 1-.02.2.364.364 0 0 1-.12.16c-.04.04-.1.06-.18.06-.067 0-.133-.04-.2-.12a3.188 3.188 0 0 0-.3-.3c-.093-.093-.233-.127-.42-.1a.674.674 0 0 0-.38.26.688.688 0 0 0-.14.34c0 .12.02.227.06.32.03.07.075.121.135.154l.011.004.134.022c.293.053.547.147.76.28.213.12.38.3.5.54.12.227.18.527.18.9 0 .987-.573 1.48-1.72 1.48h-.9c-.173 0-.3-.027-.38-.08-.08-.067-.12-.14-.12-.22 0-.08.04-.153.12-.22.093-.08.22-.12.38-.12h.88c.227 0 .4-.047.52-.14a.474.474 0 0 0 .18-.36.418.418 0 0 0-.18-.34c-.107-.107-.28-.16-.52-.16L.5 3.62c-.253 0-.4-.06-.44-.18A2.136 2.136 0 0 1 0 2.86c0-.4.007-.62.02-.66.04-.147.1-.22.18-.22a2.13 2.13 0 0 1 .3-.02h2.64A1.04 1.04 0 0 1 2.94.7c.107-.2.26-.367.46-.5.213-.133.46-.2.74-.2Zm22.514 14.6a.858.858 0 0 1 .16.28c.066.133.106.26.12.38a.685.685 0 0 1-.04.34c-.04.107-.14.16-.3.16-.174 0-.274-.053-.3-.16a.493.493 0 0 1 0-.34c.026-.12.08-.24.16-.36l.2-.3Zm-.02-9.18c.573 0 1.093.18 1.56.54.466.347.846.793 1.14 1.34.306.547.52 1.08.64 1.6s.18 1.113.18 1.78c.026.88-.054 1.687-.24 2.42-.334 1.333-.967 2-1.9 2-.374.013-.674-.047-.9-.18a.93.93 0 0 1-.46-.5c-.08.2-.247.36-.5.48-.254.133-.52.2-.8.2-.534.013-.9-.12-1.1-.4a1.274 1.274 0 0 1-.22-.74c-.014-.28.026-.52.12-.72.093-.187.206-.327.34-.42.12-.08.226-.14.32-.18a.732.732 0 0 1-.18.04 3.65 3.65 0 0 0-.34.06c-.12.027-.22.04-.3.04-.08.013-.127.02-.14.02-.16 0-.24-.14-.24-.42 0-.32.14-.48.42-.48.106 0 .273.027.5.08.213.067.426.14.64.22.2.08.38.173.54.28.16.12.24.227.24.32 0 .107-.154.167-.46.18-.44.04-.674.227-.7.56 0 .267.233.4.7.4.266.013.506-.04.72-.16.2-.12.333-.313.4-.58h.24c.133.493.466.74 1 .74.333 0 .6-.127.8-.38.213-.253.38-.573.5-.96.133-.387.22-.773.26-1.16.04-.373.06-.687.06-.94 0-.56-.067-1.073-.2-1.54a4.8 4.8 0 0 0-.56-1.32 3.133 3.133 0 0 0-.96-1c-.374-.253-.747-.38-1.12-.38-.427 0-.64-.12-.64-.36 0-.32.213-.48.64-.48Zm-5.177.68c.44.373.746.847.92 1.42.186.573.226 1.133.12 1.68a2.645 2.645 0 0 1-.74 1.38c-.387.387-.927.58-1.62.58-.387 0-.754-.087-1.1-.26-.347-.173-.614-.453-.8-.84-.4.733-.98 1.1-1.74 1.1-.614 0-1.08-.16-1.4-.48a1.88 1.88 0 0 1-.56-1.12c-.054-.44.026-.887.24-1.34a2.534 2.534 0 0 1 1.04-1.08c-.16.067-.374.16-.64.28a4.171 4.171 0 0 1-.76.24c-.24.04-.46.027-.66-.04-.187-.067-.28-.247-.28-.54 0-.507.266-.76.8-.76h2.52v.6c-.187.147-.38.3-.58.46-.2.16-.36.347-.48.56-.174.333-.187.647-.04.94.16.293.44.44.84.44.4 0 .733-.14 1-.42.28-.28.426-.587.44-.92 0-.2.086-.3.26-.3.173-.013.273.087.3.3.133.333.333.64.6.92.266.28.586.42.96.42.453 0 .793-.1 1.02-.3.24-.2.38-.44.42-.72.053-.293.02-.6-.1-.92a2.246 2.246 0 0 0-.56-.88 1.961 1.961 0 0 0-.7-.44 3.664 3.664 0 0 0-.82-.26 4.282 4.282 0 0 0-.8-.08l2.334-.001-.156-.076a3.594 3.594 0 0 0-.44-.16l-.238-.063a7.25 7.25 0 0 0-1.84-.22c-.427 0-.614.06-.56.18.053.213.113.32.18.32a.53.53 0 0 0 .16.02h-1.2a.722.722 0 0 1-.42-.16c-.134-.12-.2-.287-.2-.5 0-.307.053-.52.16-.64.12-.12.353-.18.7-.18l5.96-.02c.293 0 .58.027.86.08.293.053.553.14.78.26.226.12.413.293.56.52.117.181.196.393.236.634l.024.186c.04.547-.074.96-.34 1.24a1.351 1.351 0 0 1-.9.44c-.4.027-.707-.04-.92-.2a1.28 1.28 0 0 1-.42-.58 1.369 1.369 0 0 1-.08-.64c.026-.213.073-.36.14-.44l-2.046-.001.044.021c.193.103.367.223.522.36Zm2.52-.4a.75.75 0 0 0-.44.14c-.134.093-.2.253-.2.48 0 .173.06.313.18.42.133.093.28.147.44.16.173 0 .326-.04.46-.12.146-.093.22-.247.22-.46a.533.533 0 0 0-.2-.44.668.668 0 0 0-.46-.18ZM42.43 7.4c0 1.013-.2 1.84-.6 2.48-.507.853-1.213 1.28-2.12 1.28-.893 0-1.567-.367-2.02-1.1-.187.333-.427.6-.72.8-.293.2-.64.3-1.04.3-.507 0-.933-.2-1.28-.6-.347-.4-.52-.86-.52-1.38 0-.493.167-.907.5-1.24.347-.333.767-.5 1.26-.5.56 0 .98.127 1.26.38.293.24.533.52.72.84.4.293.84.44 1.32.44.747 0 1.34-.247 1.78-.74.453-.493.68-1.1.68-1.82 0-1.027-.327-1.847-.98-2.46s-1.5-.96-2.54-1.04c.12.387.133.713.04.98a1.179 1.179 0 0 1-.48.62c-.227.147-.5.233-.82.26a2.045 2.045 0 0 1-.86-.1c-.373-.16-.62-.393-.74-.7a1.288 1.288 0 0 1-.02-.92c.12-.307.353-.573.7-.8.36-.227.827-.34 1.4-.34.8.013 1.513.16 2.14.44.627.28 1.153.66 1.58 1.14.44.467.773 1.027 1 1.68.24.653.36 1.353.36 2.1m-4.82-3.8c0-.173-.04-.367-.12-.58-.293-.12-.553-.087-.78.1-.213.173-.34.387-.38.64-.027.24.06.407.26.5.213.093.413.1.6.02.253-.107.393-.333.42-.68m-.6 5.02c-.187-.44-.547-.653-1.08-.64-.32 0-.553.073-.7.22-.147.133-.22.28-.22.44 0 .16.073.307.22.44.147.12.367.18.66.18.253 0 .493-.06.72-.18.24-.12.373-.273.4-.46M55.018 5.9c.027.547-.093.96-.36 1.24a1.351 1.351 0 0 1-.9.44c-.4.027-.707-.04-.92-.2a1.28 1.28 0 0 1-.42-.58 1.833 1.833 0 0 1-.08-.64c.027-.213.08-.36.16-.44h-3.8a.663.663 0 0 1-.42-.16c-.133-.12-.2-.287-.2-.5 0-.307.053-.52.16-.64.12-.12.353-.18.7-.18l3.6-.02c.293 0 .58.027.86.08.293.053.553.14.78.26.227.12.413.293.56.52.147.227.24.5.28.82m-.84.42a.533.533 0 0 0-.2-.44.599.599 0 0 0-.44-.18.844.844 0 0 0-.46.14c-.133.093-.2.253-.2.48 0 .173.067.313.2.42.133.093.28.147.44.16a.84.84 0 0 0 .44-.12c.147-.093.22-.247.22-.46m-2.84 1.54c.213.28.333.607.36.98a2.05 2.05 0 0 1-.22 1.08c-.16.347-.407.64-.74.88-.32.24-.727.36-1.22.36a2.92 2.92 0 0 1-.74-.08 1.606 1.606 0 0 1-.5-.26 2.923 2.923 0 0 1-.36-.34l-.32-.36c-.187.293-.433.54-.74.74-.307.2-.767.3-1.38.3-.667 0-1.18-.173-1.54-.52-.347-.347-.52-.847-.52-1.5 0-.387.073-.693.22-.92.147-.227.34-.4.58-.52.24-.133.507-.24.8-.32.307-.093.613-.193.92-.3.36-.12.6-.267.72-.44.133-.173.173-.327.12-.46-.053-.147-.187-.273-.4-.38-.2-.107-.453-.16-.76-.16-.293 0-.593.073-.9.22a.868.868 0 0 0-.54.7c-.08.28-.213.42-.4.42-.24 0-.36-.207-.36-.62 0-.547.207-.967.62-1.26.413-.307.9-.46 1.46-.46.56 0 .987.107 1.28.32.293.213.567.52.82.92.2.293.447.52.74.68.307.16.6.267.88.32.293.04.547.027.76-.04.213-.067.34-.18.38-.34.04-.173-.013-.347-.16-.52-.147-.173-.393-.26-.74-.26-.28 0-.48-.007-.6-.02-.12-.013-.2-.093-.24-.24-.04-.147.013-.24.16-.28.147-.04.327-.04.54 0 .627.053 1.093.227 1.4.52.32.28.487.58.5.9.013.307-.1.593-.34.86-.24.253-.607.38-1.1.38a2.965 2.965 0 0 1-1.22-.24c-.427-.187-.813-.527-1.16-1.02a.923.923 0 0 1-.58.72c-.307.133-.64.247-1 .34a6.24 6.24 0 0 0-.96.3c-.28.12-.42.333-.42.64 0 .267.113.46.34.58.24.107.487.16.74.16.4 0 .78-.093 1.14-.28.373-.187.6-.46.68-.82.093-.347.213-.493.36-.44.16.04.26.187.3.44.053.387.24.667.56.84.333.173.653.26.96.26.213 0 .407-.027.58-.08.187-.067.347-.16.48-.28a.94.94 0 0 0 .26-.46.927.927 0 0 0-.06-.56l.56-.08m-1.38 5.58c-.04.4-.207.827-.5 1.28.36.494.54.82.54.98 0 .227-.134.34-.4.34-.12 0-.207-.033-.26-.1a.672.672 0 0 1-.12-.26 2.576 2.576 0 0 1-.06-.34 3.838 3.838 0 0 0-.08-.28c-.56.494-1.247.74-2.06.74-.36 0-.694-.106-1-.32-.307-.2-.46-.473-.46-.82 0-.72.566-1.08 1.7-1.08.573 0 1.126.194 1.66.58.413-.24.62-.513.62-.82 0-.226-.094-.4-.28-.52a1.19 1.19 0 0 0-.62-.18c-.174 0-.367.054-.58.16-.134.04-.22.094-.26.16-.054.067-.1.14-.14.22-.027.134-.074.2-.14.2-.094 0-.147-.06-.16-.18-.014-.133-.08-.273-.2-.42-.134-.133-.347-.18-.64-.14-.6 0-.914.16-.94.48 0 .107-.014.174-.04.2-.04.027-.1.04-.18.04-.12 0-.18-.146-.18-.44 0-.306.12-.586.36-.84.226-.24.493-.36.8-.36.44 0 .84.22 1.2.66.213-.44.62-.66 1.22-.66.653 0 1.046.367 1.18 1.1h.74c-.054-.106-.1-.22-.14-.34a4.03 4.03 0 0 1-.08-.26c-.094-.306.053-.46.44-.46.36 0 .493.154.4.46 0 .04-.02.114-.06.22a4.372 4.372 0 0 1-.22.38h.54c.16 0 .24.1.24.3 0 .214-.08.32-.24.32h-1.6m-1.44.96c-.36-.306-.807-.46-1.34-.46-.64 0-.96.114-.96.34 0 .2.326.3.98.3.586 0 1.026-.06 1.32-.18M62.924 2.6c-.52.347-1.047.707-1.58 1.08-.534.36-1.074.693-1.62 1-.094.04-.174.087-.24.14a.678.678 0 0 1-.24.12c-.054.04-.14.053-.26.04a1.223 1.223 0 0 1-.26-.08 72.483 72.483 0 0 1-.66-.24 9.01 9.01 0 0 1-.72-.34 2.878 2.878 0 0 1-.58-.44c-.16-.16-.24-.333-.24-.52 0-.213.08-.4.24-.56.16-.16.366-.227.62-.2.186.027.353.1.5.22.16.12.306.267.44.44.146.16.273.32.38.48.12.16.233.3.34.42.293-.253.56-.493.8-.72.24-.24.48-.473.72-.7.253-.227.506-.46.76-.7.266-.24.56-.513.88-.82.253-.213.486-.3.7-.26a.918.918 0 0 1 .56.26c.2.28.22.533.06.76a2.391 2.391 0 0 1-.6.62m-2.6 1.86c.693.027 1.306.167 1.84.42.546.24.98.567 1.3.98.333.4.54.893.62 1.48.093.573.026 1.213-.2 1.92a3.358 3.358 0 0 1-.82 1.36c-.374.36-.84.54-1.4.54-.454 0-.82-.093-1.1-.28-.267-.2-.5-.427-.7-.68a6.997 6.997 0 0 1-.42-.72 4.608 4.608 0 0 0-.56-.84 2.66 2.66 0 0 0-.68-.62c-.24-.147-.5-.147-.78 0-.227.12-.347.333-.36.64 0 .293.173.587.52.88.226.2.446.38.66.54.213.147.28.36.2.64a.63.63 0 0 1-.52.42c-.24.027-.5-.027-.78-.16-.267-.133-.507-.353-.72-.66a1.844 1.844 0 0 1-.32-1.08c0-.507.1-.893.3-1.16.213-.28.48-.473.8-.58.386-.12.793-.1 1.22.06.426.147.8.373 1.12.68.386.427.72.713 1 .86.293.147.6.207.92.18.493-.013.886-.18 1.18-.5.306-.32.48-.693.52-1.12a2.25 2.25 0 0 0-.24-1.3c-.214-.427-.574-.74-1.08-.94a3.91 3.91 0 0 0-1.16-.32c-.414-.053-.82-.087-1.22-.1a4.464 4.464 0 0 0-.4-.02c-.12 0-.22-.02-.3-.06-.16-.067-.227-.127-.2-.18a.516.516 0 0 1 .22-.18 1.682 1.682 0 0 1 .62-.16c.173 0 .333.007.48.02.146 0 .293.013.44.04m14.28-1.62a40.66 40.66 0 0 1-1.94 1.28c-.654.413-1.328.793-2.02 1.14-.134-.053-.34-.127-.62-.22a5.278 5.278 0 0 1-.8-.36 4.058 4.058 0 0 1-.72-.5c-.2-.187-.3-.38-.3-.58 0-.213.08-.4.24-.56a.675.675 0 0 1 .62-.2.9.9 0 0 1 .52.22c.16.12.306.26.44.42.132.16.252.327.36.5.12.16.232.3.34.42.292-.253.56-.5.8-.74.252-.24.5-.467.74-.68l.74-.7c.252-.253.54-.527.86-.82.266-.227.512-.32.74-.28.226.027.406.12.54.28.212.28.24.533.08.76-.16.227-.368.433-.62.62m-1.14 1.66c.36.04.712.147 1.06.32.36.173.666.407.92.7.266.293.466.647.6 1.06.146.4.2.86.16 1.38-.028.347-.1.713-.22 1.1-.108.373-.268.72-.48 1.04-.2.307-.46.56-.78.76-.308.2-.668.3-1.08.3-.548 0-.988-.173-1.32-.52a6.45 6.45 0 0 1-.84-1.14c-.24-.413-.474-.787-.7-1.12-.214-.347-.46-.513-.74-.5-.228.027-.4.087-.52.18a.667.667 0 0 0-.24.36.854.854 0 0 0 .04.44c.052.147.14.3.26.46.106.107.22.213.34.32.132.107.252.213.36.32.12.107.206.22.26.34.052.12.046.24-.02.36a.83.83 0 0 1-.36.32c-.148.067-.288.1-.42.1-.228 0-.434-.06-.62-.18a1.748 1.748 0 0 1-.48-.46c-.134-.2-.24-.407-.32-.62a1.812 1.812 0 0 1-.12-.64c0-.587.132-1.033.4-1.34.266-.32.58-.513.94-.58a1.916 1.916 0 0 1 1.14.16c.386.173.712.44.98.8.24.36.54.633.9.82.372.187.68.28.92.28.412 0 .76-.093 1.04-.28.292-.187.506-.413.64-.68.146-.28.22-.587.22-.92a2.043 2.043 0 0 0-.18-.94c-.12-.293-.32-.54-.6-.74-.28-.213-.628-.34-1.04-.38-.294-.027-.494-.067-.6-.12-.094-.067-.14-.18-.14-.34 0-.333.212-.473.64-.42m12.98.94c.466 0 .846.173 1.14.52.293.333.44.727.44 1.18 0 .36-.114.673-.34.94-.227.253-.527.38-.9.38a.8.8 0 0 1-.5-.04c-.147-.08-.22-.227-.22-.44 0-.147.073-.253.22-.32.146-.067.28-.1.4-.1.24 0 .406-.08.5-.24a.837.837 0 0 0 .12-.58.758.758 0 0 0-.24-.54.759.759 0 0 0-.56-.22c-.454 0-.774.14-.96.42-.187.28-.28.6-.28.96 0 .587.1 1.08.3 1.48.2.387.413.733.64 1.04.2.227.406.48.62.76.213.267.393.54.54.82.146.293.246.607.3.94.066.347.04.713-.08 1.1a2.78 2.78 0 0 1-.38.8c-.147.24-.394.42-.74.54-.254.107-.52.113-.8.02a1.377 1.377 0 0 1-.7-.54c-.12.2-.274.353-.46.46-.187.12-.407.18-.66.18a.912.912 0 0 1-.76-.36c-.2-.24-.3-.54-.3-.9 0-.307.1-.553.3-.74.186-.173.4-.287.64-.34.226-.04.46-.02.7.06.24.093.406.247.5.46.146.453.453.68.92.68.293 0 .54-.127.74-.38.2-.253.3-.527.3-.82 0-.173-.014-.34-.04-.5a1.863 1.863 0 0 0-.18-.52c-.08-.173-.2-.38-.36-.62a7.398 7.398 0 0 0-.64-.86 3.41 3.41 0 0 1-.74-1.32 4.198 4.198 0 0 1-.2-1.5c.04-.533.2-.973.48-1.32.266-.36.68-.54 1.24-.54Zm-2.56 7.7a.352.352 0 0 0-.26.1.303.303 0 0 0-.12.24c0 .16.046.26.14.3a.48.48 0 0 0 .32.06c.12 0 .233-.04.34-.12a.445.445 0 0 0 .18-.24 1.034 1.034 0 0 0-.28-.26.804.804 0 0 0-.32-.08Zm.752-11.96c.227.027.407.12.54.28.213.28.24.533.08.76a2.281 2.281 0 0 1-.62.62c-.547.387-1.1.773-1.66 1.16-.373.249-.756.489-1.147.72l-.109.062.083.025c.49.155.94.42 1.353.793.747.653 1.12 1.407 1.12 2.26 0 1.04-.32 1.853-.96 2.44-.627.573-1.46.86-2.5.86-.48 0-.94-.073-1.38-.22a3.515 3.515 0 0 1-1.12-.62c-.32-.267-.58-.6-.78-1-.187-.4-.28-.86-.28-1.38 0-.907.34-1.687 1.02-2.34.347-.32.713-.56 1.1-.72l.203-.073.081-.024-.144-.063a12.266 12.266 0 0 1-.6-.32 2.87 2.87 0 0 1-.48-.38c-.133-.133-.2-.273-.2-.42 0-.213.08-.4.24-.56a.675.675 0 0 1 .62-.2c.2.013.373.087.52.22.16.12.307.26.44.42.147.16.273.327.38.5.12.173.227.32.32.44.307-.267.58-.52.82-.76s.48-.467.72-.68l.74-.7c.253-.253.547-.527.88-.82.253-.227.493-.32.72-.28Zm-3.94 3.46c-.32 0-.622.036-.907.107l-.129.036.074.033c.07.032.136.065.2.1l.182.104c.16.093.32.16.48.2l-.048-.014a2.611 2.611 0 0 0-.712.154 2.811 2.811 0 0 0-.82.42c-.24.173-.433.393-.58.66-.147.253-.22.533-.22.84 0 .293.073.567.22.82.147.24.333.447.56.62a2.952 2.952 0 0 0 1.7.54c.307 0 .607-.04.9-.12a2.83 2.83 0 0 0 .78-.38c.24-.173.427-.38.56-.62.147-.24.227-.527.24-.86 0-.32-.067-.607-.2-.86a1.789 1.789 0 0 0-.56-.66 2.762 2.762 0 0 0-.82-.4 2.62 2.62 0 0 0-.66-.15l-.091-.004.03-.006a1.54 1.54 0 0 0 .232-.08l.129-.06.484-.278-.129-.035a3.621 3.621 0 0 0-.664-.1Zm18.052.8c.467 0 .847.173 1.14.52.293.333.44.727.44 1.18 0 .36-.113.673-.34.94-.227.253-.527.38-.9.38a.8.8 0 0 1-.5-.04c-.147-.08-.22-.227-.22-.44 0-.147.073-.253.22-.32.147-.067.28-.1.4-.1.24 0 .407-.08.5-.24a.837.837 0 0 0 .12-.58.757.757 0 0 0-.24-.54.759.759 0 0 0-.56-.22c-.453 0-.773.14-.96.42-.187.28-.28.6-.28.96 0 .587.1 1.08.3 1.48.2.387.413.733.64 1.04.2.227.407.48.62.76.213.267.393.54.54.82.147.293.247.607.3.94.067.347.04.713-.08 1.1-.093.307-.22.573-.38.8-.147.24-.393.42-.74.54-.253.107-.52.113-.8.02a1.377 1.377 0 0 1-.7-.54c-.12.2-.273.353-.46.46-.187.12-.407.18-.66.18a.912.912 0 0 1-.76-.36c-.2-.24-.3-.54-.3-.9 0-.307.1-.553.3-.74.187-.173.4-.287.64-.34.227-.04.46-.02.7.06.24.093.407.247.5.46.147.453.453.68.92.68.293 0 .54-.127.74-.38.2-.253.3-.527.3-.82 0-.173-.013-.34-.04-.5a1.864 1.864 0 0 0-.18-.52c-.08-.173-.2-.38-.36-.62a7.398 7.398 0 0 0-.64-.86 3.41 3.41 0 0 1-.74-1.32 4.198 4.198 0 0 1-.2-1.5c.04-.533.2-.973.48-1.32.267-.36.68-.54 1.24-.54Zm-2.56 7.7a.352.352 0 0 0-.26.1.303.303 0 0 0-.12.24c0 .16.047.26.14.3a.48.48 0 0 0 .32.06c.12 0 .233-.04.34-.12a.445.445 0 0 0 .18-.24 1.034 1.034 0 0 0-.28-.26.804.804 0 0 0-.32-.08ZM93.795 4.5c.36.04.713.147 1.06.32.36.173.667.407.92.7.267.293.467.647.6 1.06.147.4.2.86.16 1.38-.027.347-.1.713-.22 1.1-.107.373-.267.72-.48 1.04-.2.307-.46.56-.78.76-.307.2-.667.3-1.08.3-.547 0-.987-.173-1.32-.52-.32-.347-.6-.727-.84-1.14-.24-.413-.473-.787-.7-1.12-.213-.347-.46-.513-.74-.5-.227.027-.4.087-.52.18a.667.667 0 0 0-.24.36.854.854 0 0 0 .04.44c.053.147.14.3.26.46.107.107.22.213.34.32.133.107.253.213.36.32.12.107.207.22.26.34.053.12.047.24-.02.36a.83.83 0 0 1-.36.32c-.147.067-.287.1-.42.1-.227 0-.433-.06-.62-.18a1.748 1.748 0 0 1-.48-.46c-.133-.2-.24-.407-.32-.62a1.812 1.812 0 0 1-.12-.64c0-.587.133-1.033.4-1.34.267-.32.58-.513.94-.58a1.916 1.916 0 0 1 1.14.16c.387.173.713.44.98.8.24.36.54.633.9.82.373.187.68.28.92.28.413 0 .76-.093 1.04-.28.293-.187.507-.413.64-.68.147-.28.22-.587.22-.92a2.044 2.044 0 0 0-.18-.94c-.12-.293-.32-.54-.6-.74-.28-.213-.627-.34-1.04-.38-.293-.027-.493-.067-.6-.12-.093-.067-.14-.18-.14-.34 0-.333.213-.473.64-.42Zm1.14-3.32c.227.027.407.12.54.28.213.28.24.533.08.76-.16.227-.367.433-.62.62-.627.44-1.273.867-1.94 1.28-.653.413-1.327.793-2.02 1.14-.133-.053-.34-.127-.62-.22a5.278 5.278 0 0 1-.8-.36 4.058 4.058 0 0 1-.72-.5c-.2-.187-.3-.38-.3-.58 0-.213.08-.4.24-.56a.675.675 0 0 1 .62-.2.9.9 0 0 1 .52.22c.16.12.307.26.44.42.133.16.253.327.36.5.12.16.233.3.34.42.293-.253.56-.5.8-.74.253-.24.5-.467.74-.68l.74-.7c.253-.253.54-.527.86-.82.267-.227.513-.32.74-.28Zm12.845 1.54c-.573.387-1.154.767-1.74 1.14-.573.373-1.16.727-1.76 1.06-.267.133-.473.193-.62.18a1.25 1.25 0 0 1-.42-.18 4.191 4.191 0 0 0-.6-.3 12.271 12.271 0 0 1-.6-.32 3.322 3.322 0 0 1-.46-.38c-.133-.133-.2-.273-.2-.42 0-.213.08-.407.24-.58a.675.675 0 0 1 .62-.2c.187.027.36.1.52.22.16.12.3.26.42.42.133.16.253.327.36.5.12.173.233.32.34.44.293-.28.567-.533.82-.76.253-.24.493-.473.72-.7.24-.227.487-.453.74-.68.267-.24.567-.507.9-.8.24-.24.473-.34.7-.3.24.027.42.127.54.3.213.28.246.533.1.76a2.057 2.057 0 0 1-.62.6m1.1 5.38c0 .84-.227 1.54-.68 2.1-.454.56-1.114.88-1.98.96-.107 0-.253-.013-.44-.04a3.323 3.323 0 0 1-.58-.14 1.9 1.9 0 0 1-.56-.3 1.136 1.136 0 0 1-.36-.56.966.966 0 0 1-.26.52 1.688 1.688 0 0 1-.94.48c-.173.027-.333.04-.48.04-.547-.04-.98-.24-1.3-.6-.307-.373-.46-.847-.46-1.42 0-.52.16-.933.48-1.24.333-.307.76-.46 1.28-.46.453 0 .833.1 1.14.3.32.2.54.493.66.88.093.253.3.427.62.52.32.093.633.14.94.14.28 0 .553-.033.82-.1.266-.08.5-.2.7-.36.2-.16.353-.347.46-.56a1.54 1.54 0 0 0 .12-.8 1.659 1.659 0 0 0-.42-.98 2.935 2.935 0 0 0-.94-.74 4.812 4.812 0 0 0-1.34-.48 6.834 6.834 0 0 0-1.58-.18c-.16 0-.24-.02-.24-.06 0-.053.02-.12.06-.2.027-.093.187-.14.48-.14.92 0 1.687.073 2.3.22.627.147 1.12.367 1.48.66.36.28.62.633.78 1.06.16.427.24.92.24 1.48m-6.24 1.22c.36 0 .613-.067.76-.2.16-.147.233-.3.22-.46-.013-.173-.113-.327-.3-.46-.187-.147-.427-.22-.72-.22s-.52.073-.68.22c-.16.133-.247.287-.26.46-.013.16.06.313.22.46.16.133.413.2.76.2m15.48-1.14c0 .36-.053.72-.16 1.08a2.904 2.904 0 0 1-.46.96c-.2.28-.46.507-.78.68-.307.173-.66.26-1.06.26-.573 0-1.067-.147-1.48-.44a2.666 2.666 0 0 1-.88-1.2 2.165 2.165 0 0 1-.9 1.2c-.44.293-.907.44-1.4.44-.36 0-.7-.067-1.02-.2a3.19 3.19 0 0 1-.82-.56 4.416 4.416 0 0 1-.58-.76 1.92 1.92 0 0 1-.22-.94l.12-.52a5.387 5.387 0 0 1 .34-.58c.013.08.02.16.02.24v.4c.027.2.1.373.22.52.12.133.26.24.42.32.173.067.373.127.6.18.24.04.46.06.66.06.24 0 .48-.047.72-.14.253-.107.473-.233.66-.38.186-.16.34-.347.46-.56.133-.213.2-.453.2-.72 0-.307-.1-.58-.3-.82a2.087 2.087 0 0 0-.68-.6 2.49 2.49 0 0 0-.88-.32 2.558 2.558 0 0 0-.82-.06.336.336 0 0 1-.28-.04.69.69 0 0 1-.18-.22c-.04-.08-.073-.16-.1-.24a.657.657 0 0 1-.04-.2c0-.187.047-.307.14-.36.106-.067.293-.1.56-.1.4 0 .82.093 1.26.28.44.187.82.453 1.14.8.24.267.407.54.5.82.107.28.187.553.24.82.067.267.12.52.16.76.053.24.14.453.26.64.133.187.32.34.56.46.253.12.607.18 1.06.18.52 0 .986-.173 1.4-.52.413-.347.62-.773.62-1.28a1.3 1.3 0 0 0-.28-.82 1.85 1.85 0 0 0-.68-.6 2.486 2.486 0 0 0-.86-.32 2.753 2.753 0 0 0-.86-.06.404.404 0 0 1-.46-.2c-.107-.187-.16-.353-.16-.5 0-.307.253-.46.76-.46.48 0 .92.1 1.32.3.413.2.76.467 1.04.8.293.32.513.7.66 1.14.16.427.24.887.24 1.38"/></svg>