<svg xmlns="http://www.w3.org/2000/svg" width="94" height="18" fill="none"><path fill="#000" fill-rule="evenodd" d="M6.04 2.761c.154.173.256.42.305.74l.323 3.573c.025.29.05.61.074.96.025.352.037.641.037.869 0 .252-.012.514-.037.785-.025.27-.083.6-.176.988-.086.382-.24.776-.461 1.182-.216.4-.6.94-1.155 1.617 1.022-.29 1.841-.927 2.457-1.912.616-.991.923-1.752.923-2.281 0-.665-.089-1.635-.267-2.91-.173-1.274-.259-2.32-.259-3.14 0-.406.046-.778.139-1.117l.277-.96c.037-.191-.013-.432-.148-.72C7.942.144 7.715 0 7.388 0c-.443 0-.87.23-1.283.693-.407.455-.58.96-.518 1.514.154.191.305.376.453.554Zm31.327 8.968c.259-.948.388-1.902.388-2.863 0-.413-.031-.853-.093-1.32a59.272 59.272 0 0 0-.157-1.127 39.75 39.75 0 0 0-.268-1.598 12.512 12.512 0 0 1-.203-2.115 2.184 2.184 0 0 1 .028-.49 4.5 4.5 0 0 0 .046-.554c0-.394-.11-.75-.332-1.071-.216-.32-.437-.48-.665-.48-.351 0-.696.16-1.035.48-.332.32-.498.708-.498 1.164 0 .468.184 1.01.554 1.625.375.61.59 1.047.646 1.312.056.264.139.643.25 1.136.117.486.175 1.046.175 1.68 0 .53-.015 1.1-.046 1.709-.03.61-.065 1.167-.102 1.672a9.55 9.55 0 0 0-.369-.231.82.82 0 0 0-.462-.148h-1.173a22.287 22.287 0 0 1-1.754-.23c-.61-.112-1.106-.321-1.487-.629-.382-.308-.936-.96-1.663-1.958-.726-.997-1.613-1.496-2.66-1.496-.554 0-1.022.12-1.403.36-.376.24-.564.625-.564 1.155 0 .357.068.674.204.95.141.278.446.417.914.417a.87.87 0 0 0 .61-.25c.184-.166.341-.305.47-.415.413.178.828.354 1.247.526.53.265.794.72.794 1.367-.646.061-1.317.114-2.013.157-.69.043-1.413.064-2.17.064l-.176-.004v-.014h-.914a298.43 298.43 0 0 0-.434-1.902c-.425-1.176-1.068-1.764-1.93-1.764-.628 0-1.146.418-1.552 1.256-.4.837-.6 1.496-.6 1.976 0 .671.203 1.207.61 1.607.412.394 1.104.591 2.077.591 0 .967-.443 1.955-1.33 2.965-.88 1.01-1.776 1.514-2.687 1.514-.173-.012-.45-.021-.831-.027-.388-.007-.869-.08-1.441-.222-.57-.135-1.087-.72-1.553-1.756.287-.398.59-.878.906-1.44.647-1.133.97-2.191.97-3.177 0-.93-.215-1.739-.646-2.429-.425-.695-.93-1.043-1.515-1.043-.726 0-1.09.465-1.09 1.394 0 .58.293.989.878 1.229.585.24.883.421.895.545.013.117.019.264.019.443 0 1.014-.318 1.97-.954 2.87l-.034-.1c-.142-.387-.287-.618-.434-.692l-.084.6c.034.28.069.542.106.785-.52.656-.995 1.13-1.426 1.422-.536.37-1.2.656-1.995.86-.794.203-1.625.304-2.494.304-1.625 0-2.952-.35-3.98-1.053-1.028-.702-1.909-1.656-2.641-2.863L0 12.163c.185 1.533 1.04 2.814 2.567 3.842 1.527 1.028 3.128 1.543 4.803 1.543 1.157 0 2.198-.173 3.122-.518a9.816 9.816 0 0 0 2.493-1.32c.08-.073.162-.154.245-.242.026.067.052.13.078.186.234.505.555.951.96 1.34.401.393.752.658 1.054.794.301.141.723.212 1.265.212 1.262 0 2.309-.24 3.14-.72a6.229 6.229 0 0 0 2.05-1.894c.536-.782 1.093-1.8 1.672-3.057H24.4v-.015l.12-.003c.616 0 1.293-.024 2.032-.074.739-.05 1.998-.074 3.777-.074.591 0 1.238.028 1.94.083.708.056 1.102.083 1.182.083H34.763c.166 0 .372.136.618.407.246.27.419.406.517.406.72 0 1.21-.47 1.469-1.413Zm56.152 0c.258-.948.388-1.902.388-2.863 0-.413-.031-.853-.093-1.32a58.336 58.336 0 0 0-.157-1.127 39.69 39.69 0 0 0-.268-1.598 12.513 12.513 0 0 1-.203-2.115 2.186 2.186 0 0 1 .028-.49c.03-.234.046-.418.046-.554 0-.394-.11-.75-.332-1.071-.216-.32-.438-.48-.665-.48-.351 0-.696.16-1.035.48-.332.32-.498.708-.498 1.164 0 .468.184 1.01.554 1.625.375.61.59 1.047.646 1.312.056.264.139.643.25 1.136.117.486.175 1.046.175 1.68 0 .53-.015 1.1-.046 1.709-.03.61-.065 1.167-.102 1.672a9.628 9.628 0 0 0-.37-.231.82.82 0 0 0-.46-.148h-2.374c-.117 0-.364-.345-.74-1.034-.375-.696-.966-1.044-1.773-1.044-.572 0-1.012.212-1.32.637a4.773 4.773 0 0 0-.711 1.441h-1.977a298.43 298.43 0 0 0-.434-1.902c-.425-1.176-1.068-1.764-1.93-1.764-.628 0-1.145.418-1.552 1.256-.4.837-.6 1.496-.6 1.976 0 .671.203 1.207.61 1.607.412.394 1.105.591 2.078.591 0 .967-.444 1.955-1.33 2.965-.88 1.01-1.776 1.514-2.688 1.514-.172-.012-.45-.021-.831-.027-.388-.007-.868-.08-1.44-.222-.573-.136-1.094-.727-1.561-1.773a132.33 132.33 0 0 0-.564-1.69c-.141-.388-.286-.62-.434-.693l-.083.6c.154 1.3.348 2.201.582 2.706.234.505.554.951.96 1.34.4.393.751.658 1.053.794.302.141.724.212 1.265.212 1.263 0 2.31-.24 3.14-.72a6.228 6.228 0 0 0 2.05-1.894c.536-.782 1.094-1.8 1.672-3.057h.952v-.018h.849c.154 0 .259.006.314.018.074 0 .284.268.628.804.351.536.884.803 1.598.803.647 0 1.136-.267 1.468-.803.333-.536.582-.804.749-.804h1.911c.167 0 .373.136.62.407.245.27.418.406.516.406.72 0 1.21-.47 1.469-1.413Zm-6.807.453c-.35 0-.572-.265-.665-.795a1.711 1.711 0 0 1-.037-.286c0-.24.046-.446.139-.619.098-.178.23-.268.397-.268.215 0 .375.096.48.287.105.184.17.41.194.674 0 .302-.03.545-.092.73-.062.184-.2.277-.416.277ZM79.776 9.42a.484.484 0 0 0-.166.379c0 .172.08.338.24.499.166.153.376.23.628.23.105 0 .197-.009.277-.027.08-.019.12-.108.12-.268 0-.345-.095-.582-.286-.711-.185-.136-.348-.203-.49-.203a.588.588 0 0 0-.323.101Zm-6.622 2.66c.228.302.407.44.536.416.831-.148 1.385-.477 1.663-.988a3.24 3.24 0 0 0 .415-1.561 2.35 2.35 0 0 0-.018-.268c0-.53-.21-1.105-.628-1.727-.413-.622-.74-.933-.98-.933-.381 0-.714.154-.997.462-.283.308-.425.588-.425.84 0 .204.102.407.305.61.203.197.431.295.684.295.301 0 .483.019.544.056.062.037.093.15.093.341a.332.332 0 0 1 .028.148v.194c0 .086-.019.216-.056.388-.03.172-.108.271-.23.296-.278.061-.536-.068-.777-.388a9.512 9.512 0 0 1-.738-1.182c-.167 0-.364.215-.591.646-.222.425-.38.68-.472.767a6.567 6.567 0 0 1-.563-.933c-.203-.4-.366-.613-.49-.637-.307-.037-.56.218-.757.766-.19.548-.748.822-1.671.822h-.804c-.012-.062-.157-.696-.434-1.902-.425-1.176-1.068-1.764-1.93-1.764-.628 0-1.145.418-1.552 1.256-.4.837-.6 1.496-.6 1.976 0 .671.203 1.207.61 1.607.412.394 1.105.591 2.078.591 0 .967-.444 1.955-1.33 2.965-.88 1.01-1.777 1.514-2.688 1.514a17.25 17.25 0 0 0-.831-.027c-.388-.007-.868-.08-1.44-.222-.573-.136-1.094-.727-1.562-1.773-.24-.733-.428-1.296-.563-1.69-.141-.388-.286-.62-.434-.693l-.083.6c.154 1.3.348 2.201.582 2.706.234.505.554.951.96 1.34.4.393.751.658 1.053.794.302.141.724.212 1.265.212 1.263 0 2.31-.24 3.14-.72a6.229 6.229 0 0 0 2.05-1.894c.536-.782 1.093-1.8 1.672-3.057h2.208c.098-.024.237-.169.415-.434.179-.264.342-.397.49-.397.117 0 .33.16.637.48.308.32.468.48.48.48.302-.122.563-.298.785-.526.222-.228.37-.372.444-.434.116.086.286.28.507.582ZM64.52 9.42a.484.484 0 0 0-.166.379c0 .172.08.338.24.499.166.153.376.23.628.23.105 0 .197-.009.277-.027.08-.019.12-.108.12-.268 0-.345-.095-.582-.286-.711-.185-.136-.348-.203-.49-.203a.588.588 0 0 0-.323.101Zm-14.38 1.09v.032c.151-.01.32-.029.508-.06.265-.042.555-.113.869-.212-.314-.59-.53-.994-.647-1.21-.11-.215-.166-.52-.166-.914 0-.591.29-1.167.868-1.727.585-.56 1.355-.84 2.309-.84 1.213 0 1.82.504 1.82 1.514 0 .326-.127.61-.38.85-.252.24-.581.36-.987.36-.24 0-.515-.04-.822-.12a2.1 2.1 0 0 1-.786-.397V8.127c0 .265.04.564.12.896.087.327.355.634.804.924.456.29.976.434 1.56.434.413 0 1.01-.065 1.792-.194.782-.135 1.3-.203 1.552-.203.431 0 .751.086.96.258.216.167.324.478.324.933 0 .382-.099.644-.296.785-.19.136-.47.203-.84.203a7.92 7.92 0 0 1-.96-.092 11.65 11.65 0 0 0-.74-.101c-1.157 0-2.197.061-3.121.184-.917.117-1.44.176-1.57.176h-2.165l.327.018h-.831c-.64 0-1.145.2-1.515.6-.363.406-.966.61-1.81.61.05-.154.203-.36.462-.62.258-.258.419-.455.48-.59a2.703 2.703 0 0 0-.332-.019h-.268c-.468 0-.758.004-.868.01a1.062 1.062 0 0 0-.268.046 4.04 4.04 0 0 1-1.469-.545c-.486-.29-.73-.991-.73-2.106 0-1.034.398-1.776 1.192-2.225.924-.253 1.85-.505 2.78-.758.055-.117.052-.295-.01-.535a3.079 3.079 0 0 0-.184-.591c-.068-.148-.262-.32-.582-.518-.314-.203-.47-.4-.47-.59 0-.48.125-.783.378-.906.252-.129.575-.194.97-.194.437 0 .8.185 1.09.555.295.363.443.846.443 1.45 0 .394-.007.79-.019 1.19-.006.395-.01.801-.01 1.22v1.247c.032.64.084 1.117.158 1.431h1.08Zm-7.545-8.487c0-.382.102-.628.305-.74.21-.11.459-.165.748-.165.314 0 .533.046.656.138.129.092.265.296.406.61.16-.388.326-.66.499-.813.172-.16.459-.24.859-.24.264 0 .486.129.665.388.178.258.267.48.267.665 0 .264-.129.483-.387.655a1.5 1.5 0 0 1-.85.259c-.277 0-.477-.065-.6-.194-.13-.172-.231-.311-.305-.416-.351.444-.613.708-.785.795-.166.08-.357.12-.573.12-.228 0-.437-.096-.628-.287-.184-.19-.277-.45-.277-.775Zm2.623 7.998c0 .178.099.298.296.36.197.061.44.092.73.092.289-.012.476-.018.563-.018.541 0 .812-.2.812-.6l-.037-.324-.092-.887c0-.227-.139-.341-.416-.341-.227 0-.495.067-.803.203-.308.13-.533.255-.674.379a.998.998 0 0 0-.296.48 2.415 2.415 0 0 0-.083.655Zm-24.603-.222c0-.154.055-.28.166-.379a.588.588 0 0 1 .323-.101c.142 0 .305.067.49.203.19.13.286.366.286.71 0 .161-.04.25-.12.269-.08.018-.172.027-.277.027a.889.889 0 0 1-.628-.23c-.16-.16-.24-.327-.24-.5Z" clip-rule="evenodd"/></svg>