<?xml version="1.0" encoding="UTF-8"?>
<svg width="129" height="21" version="1.1" viewBox="0 0 129 21" xmlns="http://www.w3.org/2000/svg">
 <path d="m121.33 3.8669q0-1.5368 0.791-2.26 0.8136-0.7232 2.1018-0.7232 0.8136 0 1.5142 0.3164 0.7006 0.2938 1.1074 0.9266 0.4294 0.6102 0.4294 1.6046 0 1.1978-0.6102 1.8532-0.5876 0.6554-1.4916 0.904t-1.8306 0.2486h-0.1582v13.244h-1.8532v-13.244h-1.13v-1.6498h1.13zm2.938-1.3786q-0.4972 0-0.791 0.3164t-0.2938 1.0622v1.2204h0.1808q0.8588 0 1.469-0.2486 0.6102-0.2712 0.6102-1.13 0-0.6328-0.339-0.9266-0.3164-0.2938-0.8362-0.2938zm-21.99 17.492v-9.4468q0-1.0622 0.2486-2.0566 0.2712-0.9944 0.8814-1.7854t1.6272-1.2656q1.0396-0.4746 2.5764-0.4746 1.4012 0 2.373 0.4746 0.9944 0.4746 1.695 1.5594 0.226-1.017 0.9944-1.6724t2.0566-0.6554 2.034 0.6554 1.0848 1.7628q0.3616 1.1074 0.4294 2.5086l-1.7854 0.226q-0.1356-1.7628-0.4746-2.6216-0.339-0.8814-1.3786-0.8814-0.9944 0-1.356 0.8136t-0.3616 2.4182v10.441zm8.7914-9.944q0-0.8588-0.339-1.6272-0.3164-0.791-1.0848-1.2882-0.7458-0.5198-2.0566-0.5198t-2.0792 0.5198q-0.7458 0.5198-1.0622 1.356t-0.3164 1.7628v1.7402h6.9382zm-6.9382 8.3394h6.9382v-4.7686h-6.9382zm-18.555-11.639v-1.6498h14.441v1.6498h-1.13l-2.9606 5.6726-1.695-0.791 2.6216-4.8816h-7.7518q-0.2034 0.4746-0.4746 1.3786t-0.4972 2.0566q-0.2034 1.1526-0.2034 2.3504 0 2.1018 0.7006 3.4126 0.7006 1.2882 1.8532 1.8984 1.1752 0.5876 2.5086 0.5876 1.4238 0 2.6216-0.565 1.1978-0.5876 2.1922-1.469l1.1074 1.3786q-1.2656 1.0848-2.7798 1.7176-1.4916 0.6328-3.164 0.6328-1.356 0-2.599-0.452t-2.2148-1.3786q-0.9492-0.9266-1.5142-2.3278-0.565-1.4238-0.565-3.3448 0-1.0622 0.1582-2.147t0.3842-2.0566q0.2486-0.9718 0.4746-1.6724zm-17.379 0v-1.6498h15.571v1.6498h-1.3786l-2.0566 3.9324-1.6724-0.5876 1.7854-3.3448h-4.6104q-0.1356 0.3842-0.3842 1.1526-0.226 0.7458-0.4068 1.6046-0.1808 0.8362-0.1808 1.5142 0 1.356 0.7684 2.034 0.7684 0.6554 1.7402 0.6554 0.6328 0 1.3334-0.2486 0.7232-0.2712 1.2656-0.7458l1.017 1.3786q-0.8362 0.6554-1.8532 0.9718t-1.8758 0.3164q-1.0622 0-2.034-0.4746t-1.582-1.4464q-0.5876-0.9718-0.5876-2.4182 0-1.0622 0.2712-2.2374 0.2938-1.1978 0.565-2.0566h-2.3504q-0.2034 0.5876-0.4294 1.5368-0.226 0.9266-0.4068 2.0114-0.1582 1.0848-0.1582 2.1244 0 2.1696 0.8136 3.503 0.8136 1.3108 2.147 1.921 1.3334 0.5876 2.8928 0.5876 1.469 0 2.9154-0.4972 1.469-0.5198 2.825-1.6046l1.0622 1.4238q-1.4916 1.1526-3.2996 1.7628-1.7854 0.6102-3.5256 0.6102-1.4238 0-2.8024-0.4294-1.356-0.4294-2.4634-1.356t-1.7628-2.373q-0.6554-1.469-0.6554-3.5256 0-0.9718 0.1356-2.034 0.1582-1.0622 0.3616-2.0114t0.4068-1.6498zm-12.656 13.266q-1.8758-0.0452-3.2996-0.9944-1.4238-0.9718-2.2148-2.7346-0.791-1.7854-0.791-4.2488 0-2.034 0.4068-3.4126t1.0848-2.1922q0.678-0.8362 1.5142-1.1752 0.8588-0.3616 1.7628-0.3616 0.7232 0 1.4464 0.2938t1.3108 0.9944q0.5876 0.678 0.8814 1.8532h0.0904q0.4972-1.7628 1.4916-2.4634t2.3278-0.7006q0.8362 0 1.6272 0.3616t1.4238 1.1752 0.9944 2.1922q0.3842 1.3786 0.3842 3.4126 0 3.6838-1.6498 5.7856t-4.5426 2.2148v-1.7628q2.0792-0.0904 3.2092-1.7176t1.13-4.52q0-2.1696-0.339-3.3222-0.3164-1.1752-0.8814-1.6046-0.565-0.452-1.2882-0.452-0.6102 0-1.1526 0.226-0.5198 0.226-0.9266 0.8362t-0.6554 1.7176q-0.2486 1.0848-0.2712 2.8476h-1.8532q-0.0226-2.3052-0.4294-3.503-0.4068-1.2204-1.0622-1.6498-0.6328-0.452-1.3786-0.452-0.7684 0-1.3786 0.4746-0.6102 0.452-0.9718 1.6272-0.339 1.1526-0.339 3.277 0 2.8928 1.0848 4.5426 1.0848 1.6272 3.2544 1.6724zm-26.397-13.244v-1.6724h18.103v1.6724h-1.13v5.1076h-1.8306v-5.1076h-2.8024v13.221h-11.21v-13.221zm2.9832 11.594h2.8702v-11.594h-2.8702zm4.6782 0h2.8476v-11.594h-2.8476zm-14.848-14.487q0-1.5368 0.791-2.26 0.8136-0.7232 2.1018-0.7232 0.8136 0 1.5142 0.3164 0.7006 0.2938 1.1074 0.9266 0.4294 0.6102 0.4294 1.6046 0 1.1978-0.6102 1.8532-0.5876 0.6554-1.4916 0.904t-1.8306 0.2486h-0.1582v13.244h-1.8532v-13.244h-1.13v-1.6498h1.13zm2.938-1.3786q-0.4972 0-0.791 0.3164t-0.2938 1.0622v1.2204h0.1808q0.8588 0 1.469-0.2486 0.6102-0.2712 0.6102-1.13 0-0.6328-0.339-0.9266-0.3164-0.2938-0.8362-0.2938zm-22.668 17.492-0.4972-1.808q1.4464-0.3164 2.2826-0.9944 0.8588-0.7006 1.2204-1.6272t0.3616-1.921q0-1.0848-0.4294-2.3052t-1.2204-2.4182-1.8758-2.2148v-1.6046h16.611v1.6046q-1.808 1.7854-2.7346 3.6386t-0.9266 3.5256q0 1.4464 0.9266 2.712 0.9266 1.243 2.9606 1.7628l-0.5198 1.6498q-1.4916-0.3616-2.8476-1.2882-1.3334-0.9492-2.486-2.1696-1.13-1.243-2.0792-2.5086-0.9266-1.2882-1.6498-2.3278l1.5142-1.0622q0.5876 0.904 1.1978 1.808 0.6102 0.8814 1.243 1.6724-0.0226-0.1582-0.0226-0.2486 0-0.113 0-0.226 0-2.0114 0.8588-3.6838 0.8814-1.695 2.2374-3.2092h-11.865q1.4238 1.6724 2.1922 3.4352 0.7684 1.7402 0.7684 3.5934 0 1.582-0.4972 2.712-0.4746 1.1074-1.2656 1.8306-0.7684 0.7232-1.695 1.13-0.904 0.3842-1.7628 0.5424z" style="fill:#4d4d4d;stroke-width:2.26"/>
</svg>
