<svg xmlns="http://www.w3.org/2000/svg" width="120" height="28" fill="none"><path fill="#000" d="M0 25.875c1.029-2.373 1.701-5.183 2.018-8.427l2.255.356c.554.396.317.673-.712.831-.712 3.086-1.741 5.618-3.086 7.596-.317.317-.475.198-.475-.356ZM10.801 11.87c1.741-2.215 3.165-5.736 4.273-10.563l2.018.83c.396.317.158.515-.712.594a67.16 67.16 0 0 1-1.306 3.798l.594.594h3.56l1.425-5.816 2.136.712c.633.554.356.83-.83.83l-2.137 4.274h3.917l1.543-1.543 1.899 1.424c.475.396.475.673 0 .83h-6.172v4.749h2.136l1.543-1.543 1.9 1.424c.474.396.474.673 0 .83h-5.58v4.511h3.206l1.305-1.305 1.662 1.187c.475.395.475.672 0 .83h-6.172v5.342h3.56l1.544-1.544 1.899 1.425c.475.395.475.672 0 .83H15.43v2.018c-1.028.95-1.543.99-1.543.12V8.426c-.791 1.504-1.662 2.73-2.611 3.68-.317.237-.475.158-.475-.238Zm-2.492-.593c.712.316 1.424.83 2.136 1.543.712.712 1.068 1.424 1.068 2.136 0 .633-.197.95-.593.95-.317 0-.554-.237-.712-.712-.238-.633-.396-.99-.475-1.068l-2.849.474v12.107c-1.028.95-1.543.99-1.543.119V14.837l-2.967.475c-.158 1.028-.435 1.266-.831.712L.475 13.887l3.56-.118 4.511-8.665 2.018 1.305c.395.475 0 .634-1.187.475L4.629 13.77l4.748-.238a8.521 8.521 0 0 0-1.424-1.899c-.238-.396-.12-.514.356-.356ZM3.205 8.665c-.475-.87-1.187-1.662-2.137-2.374-.316-.317-.277-.475.119-.475.95.237 1.622.514 2.018.83l2.848-5.578 1.9 1.187c.316.475 0 .633-.95.475L3.561 6.884c.87.475 1.305 1.148 1.305 2.018 0 .475-.237.712-.712.712-.316 0-.633-.316-.95-.95Zm8.664 12.937c0 .95-.237 1.425-.712 1.425-.316 0-.514-.198-.593-.594-.396-1.582-1.108-3.125-2.137-4.629-.158-.395 0-.475.475-.237 1.978 1.662 2.967 3.007 2.967 4.035Zm3.561-3.798h4.036v-4.51H15.43v4.51Zm0 6.054h4.036v-5.342H15.43v5.342Zm0-16.024v4.748h4.036V7.834H15.43Zm33.947 7.834c2.295 3.007 5.46 4.906 9.495 5.697-.95.712-1.543 1.266-1.78 1.662-3.482-1.504-6.33-3.957-8.546-7.36h-7.122c-2.215 3.562-5.539 6.647-9.97 9.259-.554.079-.633-.119-.237-.594 3.56-2.453 6.29-5.34 8.19-8.664h-7.36v-.712h6.766V4.273h-5.816v-.712h5.816V.356l2.018.356c.633.396.475.673-.475.831v2.018h7.953V.237l2.017.356c.633.396.475.673-.474.831v2.137h3.68l1.542-1.543 1.9 1.424c.474.396.474.673 0 .831h-7.122v10.683h5.222l1.543-1.543 1.9 1.424c.474.396.474.672 0 .83h-9.14ZM45.223 25.4h7.952l1.78-1.78 2.256 1.66c.474.397.474.674 0 .832H32.997V25.4h10.682v-4.273h-4.866v-.713h4.866v-3.56l2.018.356c.633.395.475.672-.474.83v2.374h3.323l1.306-1.305 1.661 1.187c.475.395.475.672 0 .83h-6.29v4.274Zm3.086-10.445v-3.087h-7.953v3.087h7.953Zm0-6.885h-7.953v3.086h7.953V8.071Zm0-3.798h-7.953v3.086h7.953V4.273Zm25.044-1.187v-.712H85.58l.83-1.068 1.9 1.305c.633.475.356.792-.831.95V23.5c0 .95-.277 1.662-.831 2.137-.475.396-.95.633-1.424.712-.475 0-.713-.237-.713-.712 0-.396-.197-.633-.593-.712l-1.9-.475c-.395-.158-.395-.317 0-.475h2.85c.712 0 1.068-.356 1.068-1.068V3.086H73.353Zm.594 4.392h6.765l1.543-1.543 1.9 1.424c.474.396.474.673 0 .83H73.946v-.711Zm5.934 4.273.713-.95 1.661 1.187c.475.396.317.673-.475.831v7.359c-1.028.95-1.543.99-1.543.119V19.11h-4.035v2.136c-1.029.95-1.543.99-1.543.119V10.801l1.78.95h3.442Zm.356.712h-4.035v5.935h4.035v-5.935Zm-10.92 4.629.713-.95 1.661 1.187c.475.396.317.673-.474.831v7.003c-1.03.95-1.543.99-1.543.119v-.95h-4.51v1.78c-1.03.95-1.544.99-1.544.12v-10.09l1.78.95h3.917Zm.357.712h-4.51v5.816h4.51v-5.816Zm-7.003-4.866h6.053l1.306-1.306 1.661 1.187c.475.396.475.673 0 .83h-9.02v-.711Zm0-3.68h6.172l1.305-1.305 1.662 1.186c.475.396.475.673 0 .831h-9.14v-.712Zm-1.78-3.56h8.783l1.543-1.544 1.899 1.425c.475.395.475.672 0 .83H60.89v-.712Zm1.78-3.443h5.46L69.436.95l1.662 1.186c.475.396.475.673 0 .831H62.67v-.712Zm45.816 19.229c-.317-.238-.277-.396.118-.475 4.352.87 7.28 2.057 8.784 3.56.316.317.474.673.475 1.069-.001.554-.277.83-.831.83-.317 0-.594-.118-.831-.355-2.058-1.979-4.629-3.521-7.715-4.63Zm-16.617 5.34c4.352-2.294 7.24-4.233 8.664-5.815l1.899.95c1.187.712.831.989-1.068.83-3.007 1.979-6.132 3.522-9.377 4.63-.475 0-.514-.198-.118-.594Zm23.026-7.358h1.306l1.543-1.543 1.899 1.424c.475.396.475.673 0 .831H91.988v-.712h3.68V4.629l1.78.95h4.036V0l2.017.356c.634.396.475.673-.474.83V5.58h4.154V.119l2.018.356c.633.395.475.672-.475.83V5.58h4.273l.712-.95 1.662 1.187c.475.396.316.673-.475.83v12.82ZM97.211 6.29v5.934h4.273V6.292h-4.273Zm9.97 0h-4.154v5.934h4.154V6.292Zm-5.697 6.647h-4.273v6.528h4.273v-6.528Zm5.697 0h-4.154v6.528h4.154v-6.528Zm6.172 0h-4.629v6.528h4.629v-6.528Zm-4.629-6.647v5.934h4.629V6.292h-4.629Z"/></svg>