<svg xmlns="http://www.w3.org/2000/svg" width="104" height="18" fill="none"><path fill="gray" d="M3.314 8.022c0-.506.3-1.07.9-1.693a8.694 8.694 0 0 1 1.974-1.551c.705-.412 1.24-.617 1.604-.617.412 0 .729.123.952.37.235.235.353.505.353.81a.941.941 0 0 1-.018.212l-1.85 8.674h-.9a4.71 4.71 0 0 0 .088-.793c0-.611-.176-1.028-.529-1.252-.352-.235-.881-.352-1.586-.352-.06 0-.335.017-.829.053l-.564.035c-.13.012-.3.017-.511.017-.788 0-1.387-.135-1.799-.405C.2 11.26 0 10.778 0 10.084c0-.987.34-2.045 1.023-3.173l.67.423c-.53 1.07-.794 1.91-.794 2.521 0 .458.17.77.511.934.353.165.9.247 1.64.247.259 0 .57-.017.934-.053.376-.047.723-.07 1.04-.07.823 0 1.44.252 1.852.758l1.269-5.977a.246.246 0 0 0 .018-.105.428.428 0 0 0-.212-.37.654.654 0 0 0-.423-.16c-.33 0-.946.36-1.851 1.076-.905.717-1.399 1.264-1.481 1.64-.059.235.035.352.282.352.07 0 .182-.029.335-.088l.247.652c-.294.189-.576.283-.846.283-.6 0-.9-.318-.9-.952Zm14.317 2.256c.212 0 .412-.13.6-.388.2-.27.3-.6.3-.987a1.67 1.67 0 0 0-.653-1.357c-.435-.365-.9-.547-1.393-.547h-.053L14.9 14.227H14l.318-1.551c-.082-.564-.494-1.24-1.234-2.028-.74-.787-1.487-1.18-2.24-1.18h-.105c-.059 0-.1.005-.123.017l-.265-.952A17.7 17.7 0 0 1 15.727 6.1l.159-.811h-5.96l.195-.9h11.124l-.194.9h-4.266l-.159.81c.223.024.464.077.723.16.259.082.558.211.9.387.352.177.64.447.863.811.223.353.335.764.335 1.234 0 .706-.206 1.3-.617 1.781-.4.47-.823.705-1.27.705-.458 0-.887-.217-1.286-.652l.723-.688c.258.294.47.441.634.441ZM15.533 7a3.98 3.98 0 0 0-.476.123l-.705.247-.829.335-.793.37c-.517.224-.881.43-1.093.617.47.083 1.052.382 1.745.9.694.505 1.111 1.04 1.252 1.604l.9-4.196Zm6.194-3.579a.395.395 0 0 0 .07.141c.047.047.124.141.23.282.117.141.246.324.387.547h1.675l-.194.899h-1.569l-1.904 8.938h-.899l1.904-8.938h-1.922l.194-.9h1.675l-.529-1.022c.306-.858.893-1.58 1.763-2.168C23.49.61 24.33.317 25.13.317c1.035 0 1.928.23 2.68.688.764.447 1.563 1.11 2.398 1.992l-.776.67c-1.352-1.634-2.838-2.45-4.46-2.45a3.13 3.13 0 0 0-2.08.775c-.6.506-.988.982-1.164 1.428Zm2.952-2.91c-.423.435-.635.805-.635 1.111 0 .447.517.67 1.552.67l2.732-.194c.54 0 .958.153 1.252.458.294.294.44.688.44 1.182 0 .188-.029.405-.087.652h.828l-.176.899h-5.307l-1.251 5.853a1.895 1.895 0 0 0-.053.423c0 .353.135.529.405.529.729 0 1.51-.476 2.345-1.428.834-.952 1.252-1.775 1.252-2.468 0-.27-.141-.406-.423-.406-.165 0-.412.094-.74.282l-.406-.599c.517-.353.975-.529 1.375-.529.329 0 .593.106.793.317.2.2.3.476.3.83 0 .61-.253 1.304-.758 2.08a7.349 7.349 0 0 1-1.869 1.992c-.74.552-1.422.828-2.045.828-.764 0-1.146-.417-1.146-1.252 0-.2.018-.381.053-.546l1.27-5.906h-1.764l.177-.9h6.117c.141-.199.212-.422.212-.67 0-.446-.476-.687-1.428-.722l-2.75.212c-.2 0-.424-.036-.67-.106-.247-.07-.5-.23-.759-.476a1.267 1.267 0 0 1-.37-.935c0-.552.3-1.116.9-1.692l.634.511Zm10.775 10.243c0-.705.265-1.38.794-2.027.54-.658 1.316-1.087 2.327-1.287-.083-.447-.288-.764-.617-.952-.318-.2-.917-.4-1.798-.6l.123-.6h-1.164l.194-.898h8.604l-.194.899h-1.005l-1.887 8.938h-.899l.635-3.05a.366.366 0 0 0 .017-.14c0-.447-.193-1.006-.581-1.676-.376-.67-.758-1.004-1.146-1.004-.74 0-1.346.229-1.816.687-.458.458-.688 1.028-.688 1.71 0 .67.4 1.082 1.2 1.234l-.583.776h-.07c-.411 0-.758-.212-1.04-.635a2.505 2.505 0 0 1-.406-1.375Zm2.204-5.465c.67.247 1.128.535 1.375.864.259.329.423.787.494 1.375.634.223 1.122.793 1.463 1.71l.829-3.95h-4.161Zm.498 10.313c0-.34.165-.717.494-1.128.329-.411.846-.617 1.551-.617.282 0 .676.147 1.182.44l.052-.176a.81.81 0 0 0 .018-.211c0-.141-.018-.335-.053-.582l.829-.44c.059.552.088.916.088 1.092 0 .236-.03.423-.088.565l-.124.352.441.44c.353.33.658.706.917 1.13.27.434.452.763.546.986l-.828.547c-.376-.764-.946-1.534-1.71-2.31-.811.67-1.57 1.005-2.274 1.005-.318 0-.57-.105-.759-.317-.188-.2-.282-.458-.282-.776Zm1.834-.846c-.33 0-.564.076-.705.23-.141.164-.212.31-.212.44 0 .247.212.37.635.37.258 0 .488-.082.687-.246a1.5 1.5 0 0 0 .423-.459c-.211-.223-.487-.335-.828-.335Zm12.023-4.83a.8.8 0 0 0 .6-.494c.129-.282.194-.535.194-.758 0-.235-.065-.417-.194-.547-.13-.14-.306-.211-.53-.211-.164 0-.281.006-.352.017-.164 0-.511.17-1.04.512-.094.446-.347.793-.758 1.04.435.211.652.552.652 1.022 0 .482-.14.911-.423 1.287a2.713 2.713 0 0 1-1.022.847c-.4.188-.77.329-1.111.423-.34.082-.623.123-.846.123a2.22 2.22 0 0 1-1.04-.247 3.256 3.256 0 0 1-.811-.582c-.212-.223-.418-.54-.617-.952a16.455 16.455 0 0 1-.441-1.075 9.104 9.104 0 0 1-.318-1.234 48.39 48.39 0 0 1-.193-1.146 37.563 37.563 0 0 1-.142-1.11 16.948 16.948 0 0 0-.105-.83l1.005.318c.329 3.973 1.292 5.959 2.89 5.959.765 0 1.329-.188 1.693-.564.365-.376.547-.705.547-.988 0-.364-.235-.599-.705-.705-.2.141-.623.212-1.27.212l.441-.864c.564 0 1.017-.17 1.358-.511.352-.353.529-.77.529-1.252 0-.364-.142-.623-.424-.776-.282-.164-.622-.246-1.022-.246-.6 0-1.11.17-1.534.51-.411.342-.617.67-.617.988 0 .153.13.317.388.494l-.6.67c-.47-.177-.705-.5-.705-.97 0-.6.306-1.175.917-1.728.623-.564 1.405-.846 2.345-.846.681 0 1.193.17 1.534.511.352.341.534.753.546 1.234.54-.293 1.058-.44 1.551-.44.482 0 .817.17 1.005.51.2.33.3.7.3 1.112 0 .634-.223 1.157-.67 1.569-.435.411-.87.617-1.304.617-.153 0-.324-.094-.512-.282l.476-.74.335.123Zm-9.379-4.637.194-.9h12.588l-.194.9H42.634Zm24.497 3.085c0 .306-.065.617-.194.935l.758 1.604 1.181-5.624H59.48l.194-.9h11.548l-.194.9h-1.252l-1.886 8.938h-.9l.336-1.622-.97-2.221c-.787.858-1.575 1.287-2.362 1.287-.694 0-1.293-.17-1.799-.511a3.271 3.271 0 0 1-1.128-1.358 8.044 8.044 0 0 1-.564-1.78 10.541 10.541 0 0 1-.176-1.957v-.018l.97-.282v.123c0 1.528.264 2.727.793 3.597.529.858 1.199 1.287 2.01 1.287.587 0 1.087-.241 1.498-.723.411-.494.617-.987.617-1.48 0-.436-.135-.83-.405-1.182-.259-.364-.594-.547-1.005-.547-.482 0-.888.353-1.217 1.058l-.793-.176c.482-1.187 1.216-1.78 2.204-1.78.61 0 1.116.252 1.516.757.411.494.617 1.052.617 1.675Zm4.42-4.954a.397.397 0 0 0 .071.141c.047.047.123.141.23.282.117.141.246.324.387.547h1.675l-.194.899h-1.57l-1.903 8.938h-.9l1.905-8.938H69.33l.194-.9H71.2l-.529-1.022c.306-.858.893-1.58 1.763-2.168.881-.588 1.722-.882 2.521-.882 1.034 0 1.928.23 2.68.688.764.447 1.563 1.11 2.397 1.992l-.775.67c-1.352-1.634-2.839-2.45-4.46-2.45a3.13 3.13 0 0 0-2.08.775c-.6.506-.988.982-1.164 1.428Zm6.073 3.614a.603.603 0 0 0-.582.353c-.117.235-.176.447-.176.635 0 .505.382.758 1.146.758a1.8 1.8 0 0 0 1.181-.441c.365-.294.835-.858 1.41-1.693.236.188.418.341.547.459.13.117.276.352.44.705.165.34.248.717.248 1.128 0 1.129-.412 2.086-1.234 2.874-.811.776-1.663 1.164-2.557 1.164-.67 0-1.263-.142-1.78-.424a3.78 3.78 0 0 1-1.217-1.093c-.294-.434-.546-.97-.758-1.604-.2-.646-.34-1.246-.423-1.798a24.863 24.863 0 0 1-.194-1.869l.917.388c.082 1.728.452 3.08 1.11 4.055.659.963 1.481 1.445 2.469 1.445.634 0 1.257-.311 1.868-.934.612-.635.917-1.334.917-2.098 0-.388-.117-.705-.352-.952-.858 1.058-1.763 1.587-2.715 1.587-.518 0-.964-.118-1.34-.353-.376-.247-.564-.646-.564-1.199 0-.693.194-1.198.581-1.516.388-.317.74-.476 1.058-.476.235 0 .617.176 1.146.529l-.423.846c-.317-.317-.558-.476-.723-.476Zm-4.39-1.745.194-.9h10.578l-.194.9H73.234Zm11.26.846c0-.423.182-.84.547-1.252.364-.41.805-.617 1.322-.617.494 0 .84.33 1.04.988l-.776.44c-.047-.352-.229-.528-.546-.528-.176 0-.33.088-.459.264-.129.176-.193.34-.193.494 0 .376.47.699 1.41.97l2.398-1.2.282-1.304h2.344l-.194.899h-1.445l-1.904 8.938h-.9l.318-1.516c-.646-.823-1.24-1.457-1.78-1.904-.53-.447-1.223-.8-2.08-1.058l-.336-.723 2.31-1.604c-.905-.235-1.358-.664-1.358-1.287Zm4.513.6c-1.551.693-2.926 1.475-4.125 2.344l.705.406c.788.446 1.41.922 1.869 1.428l.546.564 1.005-4.742Zm3.114-.141c-.13-.682-.47-1.117-1.023-1.305h-1.445l.194-.9h1.727l.194.16c.141.14.27.293.388.458l.212.37.493-2.345h.9l-.283 1.358h1.57l-.195.899h-1.569l-1.886 8.938h-.9l1.623-7.633Zm5.489 1.392c-.635 0-1.175.253-1.622.758-.447.494-.67 1-.67 1.517 0 .34.118.658.353.952l-.723.687a1.694 1.694 0 0 1-.582-1.305c0-.963.364-1.786 1.093-2.468.74-.693 1.47-1.04 2.186-1.04 1.175 0 1.922.6 2.24 1.798l.775-3.596h-6.752l.194-.9h9.061l-.194.9h-1.41l-1.922 8.973h-.899l.74-3.437a3.924 3.924 0 0 0-.123-.723 4.879 4.879 0 0 0-.3-.917 2.062 2.062 0 0 0-.581-.846 1.213 1.213 0 0 0-.864-.353Z"/></svg>