<svg xmlns="http://www.w3.org/2000/svg" width="85" height="29" viewBox="0 0 77.273 26.364"><text xml:space="preserve" x="91.437" y="2.268" fill="gray" font-family="'Lohit Kannada'" font-size="8" letter-spacing="0" word-spacing="0"/><path d="M9.87 23.6q-.414 0-.707-.14-.294-.148-.535-.492-.248.359-.564.5-.315.133-.775.133-.42 0-.707-.148-.285-.155-.429-.394-.135-.238-.135-.499 0-.302.12-.52.128-.217.361-.4.233-.19.557-.38.286-.176.459-.33t.173-.38q0-.225-.143-.352-.135-.126-.466-.126-.324 0-.474.133-.15.127-.15.345 0 .21.15.415l-.527.217q-.233-.344-.233-.696 0-.246.135-.456.136-.211.406-.338.279-.133.7-.133.467 0 .73.154.264.148.369.373.112.225.112.457 0 .386-.255.654-.256.26-.708.534-.346.21-.526.372-.173.162-.173.422 0 .275.195.4.196.12.497.12.504 0 .745-.246.24-.246.27-.653h.572q.038.47.309.688.278.211.647.211.414 0 .587-.19.18-.197.18-.45 0-.217-.09-.407-.083-.197-.233-.359l.534-.323q.195.232.3.492t.106.584q0 .534-.338.871-.331.338-1.046.338zm3.649 0q-.798 0-1.28-.47-.48-.471-.48-1.322 0-.534.21-.942.218-.408.617-.633.406-.232.97-.232.617 0 1.009.24.39.238.579.646.195.401.196.914 0 .52-.211.928-.211.408-.617.64-.398.232-.993.232zm.015-.526q.625 0 .903-.359.285-.359.286-.907 0-.59-.301-.935t-.858-.344q-.421 0-.685.168-.263.162-.383.45-.12.282-.12.64 0 .597.3.942.308.344.858.345zm3.71.527q-.587 0-.949-.408t-.361-1.223q0-.59.248-1.055.249-.47.723-.73h-.971v-.542h3.536q.398 0 .564-.035.173-.035.249-.092.105-.07.135-.154.03-.092.03-.19 0-.45-.489-.907l.49-.302q.353.365.48.66.129.289.129.591 0 .133-.06.33-.06.19-.249.345-.113.091-.278.162-.159.07-.399.105.46.253.722.731.264.47.264 1.083 0 .816-.37 1.223-.36.408-.97.408-.429 0-.714-.148-.279-.148-.512-.485-.248.393-.572.513-.315.12-.677.12zm.082-.556q.376 0 .61-.246.232-.246.27-.653h.572q.038.47.3.688.272.211.58.211.361 0 .572-.239.211-.238.21-.815 0-.492-.21-.9-.203-.415-.617-.668-.414-.253-1.038-.253h-.128q-.617 0-1.046.24-.42.231-.64.639-.21.408-.21.928 0 .576.203.822.203.247.572.246zm4.92.556q-.572 0-1-.267-.43-.275-.768-.682l.384-.38q.316.372.64.577.33.197.767.196.451 0 .7-.274.248-.274.248-.73 0-.74-.414-1.21-.406-.478-1.06-.745l.323-.541q.512.231.91.583t.625.822q.232.471.233 1.055 0 .457-.173.822-.173.36-.527.57-.354.204-.888.204zm5.733 0q-.42 0-.76-.155-.33-.155-.519-.436t-.188-.668q0-.309.136-.555.135-.253.39-.4.256-.149.618-.148.398 0 .64.175.24.176.24.478 0 .113-.023.225-.022.113-.075.19l-.511-.042q.015-.042.03-.105.015-.07.015-.12 0-.31-.339-.31-.233 0-.391.155-.158.148-.158.436 0 .316.233.52.241.204.723.204.519 0 .76-.246.24-.246.278-.653h.572q.037.47.293.688.264.211.624.211.421 0 .587-.253.166-.26.166-.618 0-.527-.24-.942-.242-.422-.618-.69-.368-.274-.76-.358h-3.19v-.541h3.837q.407 0 .572-.035t.24-.092q.106-.07.136-.154.03-.092.03-.19 0-.45-.489-.907l.49-.302q.353.365.48.66.13.289.129.591 0 .133-.06.33-.053.19-.249.345-.15.127-.346.197-.188.063-.474.084.542.344.835.844.294.499.294 1.11 0 .183-.03.352.27.274.564.422.294.148.662.147.451 0 .7-.274.248-.274.248-.73 0-.74-.414-1.21-.406-.478-1.06-.745l.323-.541q.512.231.91.583.399.352.625.822.232.471.233 1.055 0 .457-.173.822-.173.36-.527.57-.354.204-.888.204-.429 0-.774-.155-.347-.161-.632-.415-.181.288-.474.43-.286.14-.61.14-.346 0-.572-.078-.225-.07-.383-.21-.159-.14-.301-.345-.271.387-.602.513-.331.12-.783.12zm7.87 0q-.572 0-1-.267-.43-.275-.768-.682l.384-.38q.315.372.64.577.33.197.767.196.45 0 .7-.274.248-.274.248-.73 0-.74-.414-1.21-.407-.478-1.061-.745l.323-.541q.513.231.91.583.4.352.625.822.233.471.234 1.055 0 .457-.174.822-.172.36-.526.57-.354.204-.888.204zm3.995 0q-.797 0-1.249-.359-.444-.358-.444-.935 0-.604.527-.949l-.692.007v-.485h1.565q.082-.056.135-.14.06-.092.06-.204 0-.099-.037-.19-.03-.092-.083-.162h-1.64v-.541h2.242q.406 0 .572-.035t.24-.092q.098-.07.128-.154.038-.092.038-.19 0-.45-.49-.907l.49-.302q.354.365.481.66.129.289.128.591 0 .134-.06.33-.053.19-.248.345-.189.155-.452.225-.255.07-.692.07h-.135q.113.197.113.359 0 .112-.03.197-.023.077-.068.14h1.527v.485l-.737-.007q.255.134.406.38.158.246.158.555 0 .584-.444.95-.436.358-1.309.358zm.03-.549q.602 0 .858-.239.264-.246.263-.59 0-.394-.286-.626-.278-.232-.835-.232-.572 0-.85.246-.271.24-.27.612 0 .372.278.604.278.226.842.225zm2.92 1.688q0 .266-.098.421-.09.162-.256.282-.211.154-.512.203-.308.057-.782.057H38.67v-.528h2.167q-.037-.084-.06-.196-.023-.106-.023-.246 0-.204.106-.401.105-.197.338-.33.226-.127.58-.127.496 0 .752.253.264.253.263.612zm-1.505.077q0 .183.09.358h.173q.331 0 .504-.098.181-.091.18-.337 0-.148-.12-.267-.12-.12-.338-.12-.226 0-.354.127-.135.133-.135.337zm5.424-1.216q-.82 0-1.309-.295-.481-.303-.481-.9 0-.38.195-.598.196-.217.52-.323.33-.112.722-.162.353-.05.564-.105.21-.064.3-.19.099-.127.099-.352 0-.266-.196-.386t-.482-.12q-.39 0-.549.127-.15.126-.15.33 0 .07.022.155t.076.154l-.565.218q-.09-.161-.128-.288-.037-.126-.037-.281 0-.225.173-.4h-.564v-.542h2.648q.406 0 .557-.035t.233-.092q.098-.07.128-.154.037-.092.037-.19 0-.45-.489-.907l.49-.302q.353.365.48.66.13.289.129.591 0 .134-.06.33-.06.198-.249.345-.082.07-.195.134-.113.056-.294.098.414.295.602.696.196.393.196.837 0 .913-.632 1.434-.625.513-1.79.513zm-1.173-1.195q0 .28.263.464.264.176.91.175.843 0 1.324-.351.481-.359.482-1.048 0-.407-.136-.695-.128-.289-.323-.471-.196-.19-.384-.296h-.052q.112.112.173.26.067.14.067.31 0 .52-.36.759-.355.239-.934.302-.534.064-.782.19-.248.12-.248.4zm8.08 1.195q-.391 0-.685-.14-.285-.149-.526-.493-.249.359-.565.5-.315.133-.775.133-.42 0-.707-.148-.285-.155-.429-.394-.135-.238-.135-.499 0-.302.12-.52.129-.217.361-.4.233-.19.557-.38.286-.176.46-.33t.172-.38q0-.225-.143-.352-.135-.126-.466-.126-.324 0-.474.133-.15.127-.15.345 0 .21.15.415l-.527.217q-.233-.344-.233-.695 0-.247.135-.457t.407-.338q.278-.133.7-.133.466 0 .729.154.264.148.369.373.112.225.113.457 0 .386-.256.654-.256.26-.707.534-.347.21-.527.372-.173.162-.173.422 0 .275.195.4.196.12.497.12.504 0 .745-.246.24-.246.27-.653h.573q.037.47.308.689.278.21.647.21.414 0 .655-.274.248-.274.248-.73 0-.74-.406-1.21-.407-.478-1.069-.745l.324-.541q.512.232.91.583.398.352.625.823.232.47.233 1.054 0 .717-.406 1.16-.407.436-1.144.436zm.15 2.502q-.285 0-.474-.133-.195-.127-.285-.338-.09-.204-.09-.442 0-.394.21-.682.21-.288.594-.45.377-.155.873-.155.512 0 .88.162.377.161.58.45.21.288.21.668 0 .225-.09.435-.083.218-.27.352-.182.133-.482.133-.286 0-.482-.091-.195-.084-.346-.316-.143.21-.339.309t-.489.098zm.083-.45q.384 0 .49-.513h.503q.045.24.18.373.13.14.317.14.39 0 .391-.45 0-.372-.293-.611-.294-.239-.79-.239h-.09q-.49 0-.798.232-.308.232-.309.605 0 .238.106.351.105.112.293.113zm4.198-2.052q-.797 0-1.249-.359-.443-.358-.443-.935 0-.604.526-.949l-.692.007v-.485h1.565q.083-.056.135-.14.06-.092.06-.204 0-.099-.037-.19-.03-.091-.083-.162h-1.64v-.541h1.979q.512 0 .73-.056.225-.064.33-.169.09-.099.12-.218.038-.126.038-.26 0-.295-.195-.457-.196-.17-.504-.169-.226 0-.399.099-.173.091-.248.232h.007q.189 0 .294.084.105.077.105.218 0 .161-.12.253-.113.085-.301.084-.271 0-.392-.168-.112-.176-.112-.387 0-.217.135-.422.143-.21.406-.344.271-.134.662-.134.595 0 .933.338.339.33.339.85 0 .26-.083.471-.083.211-.263.366-.203.17-.504.246t-.723.084q.12.198.12.359 0 .112-.03.197-.022.077-.067.14h1.527v.485l-.737-.007q.256.134.406.38.159.246.158.555 0 .584-.444.95-.436.358-1.309.358zm.03-.549q.603 0 .858-.239.264-.246.263-.59 0-.393-.285-.626-.279-.232-.836-.232-.572 0-.85.246-.27.24-.27.612t.278.605q.278.225.842.225zm2.837.549q-.49 0-.865-.246-.377-.247-.708-.633l.384-.387q.308.366.58.542.278.169.609.168.338 0 .481-.168.15-.176.15-.457 0-.267-.014-.45l-.03-.359q-.015-.169-.015-.372 0-.527.24-.9.249-.38.67-.577.43-.203.978-.203.745 0 1.226.309.49.31.723.83.24.513.24 1.145 0 .83-.42 1.294-.415.464-1.167.464-.421 0-.715-.148-.285-.154-.436-.407-.143-.26-.143-.57 0-.457.24-.689.249-.232.595-.232.278 0 .421.134.15.126.15.337 0 .197-.12.317-.112.12-.293.119-.354 0-.414-.31-.037.12-.037.275 0 .253.165.457.173.197.587.197.451 0 .707-.317.264-.316.264-.907 0-.464-.166-.857-.165-.401-.512-.647-.338-.246-.88-.246-.602 0-.948.316-.338.31-.338.886 0 .225.015.394l.03.33q.015.162.015.394 0 .421-.18.682-.182.253-.467.372-.286.12-.602.12zm7.81-3.107q0 .45-.34.759-.33.31-.977.31-.203 0-.376-.043t-.309-.112q.053.618.459 1.012.407.387 1.023.647l-.323.534q-.512-.232-.91-.562-.399-.338-.625-.78-.226-.444-.226-1.013 0-.52.196-.893.195-.38.534-.583.338-.211.775-.211.534 0 .812.26.286.26.286.675zm-1.13-.443q-.293 0-.54.21-.242.211-.317.612.113.085.263.14.159.057.354.057.398 0 .58-.155.18-.161.18-.4 0-.464-.52-.464zm3.349 3.55q-.82 0-1.31-.295-.48-.303-.48-.9 0-.38.195-.598.195-.217.519-.323.331-.112.722-.162.354-.049.565-.105.21-.064.3-.19.098-.127.098-.352 0-.266-.195-.386-.196-.12-.482-.12-.39 0-.55.127-.15.126-.15.33 0 .07.023.155t.075.155l-.564.217q-.09-.161-.128-.288-.038-.126-.038-.281 0-.225.173-.4h-.564v-.542h2.649q.406 0 .556-.035.15-.035.234-.092.097-.07.127-.154.038-.092.038-.19 0-.45-.489-.907l.489-.302q.354.365.482.66.128.289.127.591 0 .134-.06.33-.06.198-.248.345-.083.07-.196.134-.112.056-.293.098.414.295.602.696.195.393.195.837 0 .913-.632 1.434-.624.513-1.79.513zm-1.174-1.195q0 .281.264.464.263.176.91.175.843 0 1.324-.351.481-.359.482-1.047 0-.408-.136-.696-.128-.288-.323-.471-.196-.19-.384-.296h-.053q.113.112.173.26.068.14.068.31 0 .52-.361.759-.354.239-.933.302-.534.064-.782.19-.249.12-.249.4z" aria-label="ಒಂದು ಮುಕ್ತ ಶಬ್ದಕೋಶ"/><g stroke-width="1.339" aria-label="ವಿಕ್ಷನರಿ"><path d="M10.882 13.078q-1.365 0-2.458-.299-1.07-.299-1.68-.842-.608-.543-.608-1.29 0-.598.438-1.073.438-.49 1.266-.774t1.996-.286q1.29 0 2.069.34.779.34.778.924 0 .217-.073.434-.073.218-.243.367l-1.655-.082q.049-.081.097-.203.049-.136.049-.231 0-.598-1.095-.598-.755 0-1.266.299-.487.285-.487.842 0 .611.755 1.005.755.394 2.312.394 1.673 0 2.458-.475.78-.475.9-1.263h1.85q.122.91.95 1.33.827.408 1.947.408 1.726 0 2.41-.72.705-.72.705-1.86 0-1.114-.584-2.106-.584-1.008-1.607-1.806-1.022-.8-2.336-1.304-.462.866-1.51 1.263-1.046.394-2.384.394-1.58 0-2.507-.421-.925-.422-.925-1.25 0-.692.95-1.168.973-.475 2.604-.475 2.141 0 4.015.543 1.874.53 3.286 1.48 1.406.934 2.215 2.187.803 1.248.803 2.69 0 1.89-1.412 2.757-1.405.866-3.675.869-1.54 0-2.36-.312-.804-.313-1.51-.91-.876.747-1.947.991-1.07.23-2.53.231zm1.46-8.87q0 .326.366.517.39.19 1.07.19.877 0 1.534-.272t.754-.923q-1.046-.218-2.141-.218-.804 0-1.193.204t-.39.503zM32.227 13.078q-2.584 0-4.04-.693-1.433-.692-1.436-1.806 0-1.165 1.703-1.834l-2.239.014v-.937h5.063q.267-.108.438-.272.194-.176.194-.394 0-.19-.121-.366-.098-.177-.268-.313h-5.306V5.431h7.253q1.315 0 1.85-.068.535-.067.779-.176.316-.136.413-.299.122-.176.122-.367 0-.866-1.582-1.752l1.582-.584q1.145.706 1.558 1.277.413.556.413 1.14 0 .259-.194.64-.17.366-.803.665-.61.299-1.46.434-.828.136-2.24.136h-.438q.366.38.365.693 0 .217-.097.38-.073.15-.22.272h4.941v.937l-2.385-.014q.828.258 1.315.734.51.475.51 1.073 0 1.128-1.435 1.833-1.406.693-4.235.693zm.097-1.06q1.941 0 2.775-.461.851-.475.851-1.141 0-.762-.924-1.209-.901-.448-2.702-.448-1.847 0-2.75.475-.877.462-.876 1.182 0 .72.9 1.168.901.435 2.726.435zm-2.044 4.537q-1.486 0-2.458-.462-.974-.448-.974-1.209 0-.665.73-1.073t1.947-.407q.997 0 1.558.258.583.258.584.706 0 .326-.22.598l-1.41-.068q.072-.15.072-.299t-.17-.258q-.17-.108-.56-.109-.316 0-.633.123-.292.136-.292.502 0 .422.487.625.511.204 1.412.204 1.046 0 1.606-.285.584-.286.681-.775h1.607q.073.503.486.775.414.285 1.242.285.779 0 1.095-.204.341-.19.414-.421.073-.23.073-.34 0-.475-.341-.842-.341-.353-.876-.692l1.46-.503q1.217.867 1.63 1.793.438.934.439 1.793 0 .435-.098.815-.073.393-.17.61l-1.68-.148q.147-.3.293-.68.146-.366.146-.8 0-.137-.024-.34-.268.353-.828.584-.56.244-1.558.244-.973 0-1.581-.217-.584-.218-.974-.544-.657.435-1.412.598-.755.163-1.703.163zm20.784-3.477q-1.29 0-2.142-.272-.827-.271-1.411-.692-.56-.435-1.047-.897-.609-.597-1.046-.896-.438-.299-.828-.408-.365-.108-.852-.108-.827 0-1.29.299-.437.285-.438.8 0 .436.341.897.341.449.9.883l-1.898.421q-.56-.435-.925-1.005-.365-.57-.365-1.154 0-.64.487-1.128t1.314-.76q.828-.286 1.85-.286 1.513 0 2.385.394.877.394 1.704 1.21.56.529 1.022.896.462.366 1.022.556.584.177 1.436.177 1.265 0 1.777-.489.535-.503.535-1.182 0-.948-.73-1.765-.705-.815-1.923-1.359-1.192-.556-2.701-.733h-8.13V5.431h10.345q1.314 0 1.825-.068.535-.068.803-.176.316-.136.414-.3.122-.175.122-.366 0-.866-1.582-1.752l1.582-.584q1.144.706 1.557 1.277.414.556.414 1.14 0 .258-.195.64-.194.366-.803.665-.487.23-1.12.366-.609.136-1.533.177 1.727.665 2.677 1.63.974.963.974 2.146 0 1.33-1.193 2.091-1.168.762-3.334.761zm13.484 0q-1.968 0-3.553-.407-1.553-.422-2.459-1.277-.9-.867-.9-2.228 0-.747.487-1.399.487-.665 1.338-1.154-.487-.367-.803-.788-.292-.435-.292-.869 0-.784.657-1.25.657-.461 1.728-.665 1.095-.217 2.337-.217 1.874 0 3.237.393 1.392.38 2.433 1.033 1.095.679 1.68 1.467.583.784.803 1.63.22.844.219 1.684 0 1.942-1.85 3.001-1.82 1.046-5.062 1.046zm-.097-7.66q1.485 0 2.652.298 1.193.286 2.166 1.032l.098-.027q-.512-.777-1.387-1.412-.877-.639-2.07-1.019-1.168-.394-2.652-.394-1.633 0-2.288.313-.633.298-.633.8 0 .517.584.952.78-.258 1.68-.394.9-.15 1.85-.15zm.121 6.56q1.66 0 2.726-.367 1.095-.367 1.63-.992.536-.624.536-1.385 0-.867-.657-1.48-.633-.625-1.728-.951-1.095-.326-2.482-.326-2.263 0-3.627.76-1.338.747-1.338 1.997 0 1.307 1.338 2.024 1.366.72 3.602.72z"/></g></svg>