<svg xmlns="http://www.w3.org/2000/svg" width="120" height="35" fill="none"><path fill="#4D4D4D" d="M114.347 18.41c-.702 0-1.299.317-1.789.95-.268.368-.402.751-.402 1.151 0 .567.284 1.112.853 1.635.524.489 1.857.733 3.997.733 0-2.045-.479-3.396-1.438-4.052-.413-.278-.82-.417-1.221-.417ZM120 22.88c0 3.424-.959 6.025-2.877 7.804-1.059.978-2.107 1.7-3.144 2.168-2.141.956-5.246 1.434-9.316 1.434v-3.069c4.003 0 6.752-.422 8.246-1.267 1.873-1.056 3.155-2.407 3.846-4.052-1.315 0-2.224-.056-2.726-.167-1.672-.367-2.731-.74-3.177-1.117-1.294-1.09-1.94-2.396-1.94-3.92 0-1.567.496-2.834 1.488-3.801 1.16-1.145 2.503-1.718 4.031-1.718.992 0 1.89.284 2.692.85 1.45 1.001 2.314 2.296 2.593 3.886.189 1.134.284 2.123.284 2.968Zm-18.481 1.634c-.803.956-2.08 1.434-3.83 1.434h-1.505v-3.069h.585c1.104 0 1.901-.244 2.392-.733.546-.545.82-1.407.82-2.585v-3.619h3.077v3.619c0 2.079-.513 3.73-1.539 4.953Zm.836 3.935h2.509v2.502h-2.509v-2.502Zm-4.18 0h2.508v2.502h-2.509v-2.502ZM82.77 25.948h-5.52v-3.069h5.185c1.65 0 2.726-.578 3.228-1.734.178-.4.268-.8.268-1.2 0-.768-.301-1.518-.903-2.252l-5.185-6.337a3.617 3.617 0 0 1-.836-2.368c0-.389.055-.767.167-1.134.346-1.311 1.098-2.206 2.258-2.684L93.893 0v3.102L83.942 7.27c-.792.333-1.305.722-1.54 1.167-.066.122-.1.322-.1.6 0 .356.173.74.519 1.151l9.75 11.756c.246.29.58.512 1.004.668.48.178 1.076.266 1.79.266h1.471v3.069H94.63a5.34 5.34 0 0 1-2.058-.4c-1.148-.478-1.906-.945-2.274-1.401l-1.622-2.001c-.235.511-.446.917-.636 1.217-1.06 1.723-2.815 2.585-5.268 2.585Zm-10.554-1.434c-.858.956-2.135 1.434-3.83 1.434h-1.505v-3.069h.586c1.103 0 1.9-.244 2.391-.733.547-.545.82-1.407.82-2.585v-3.619h3.077v3.619c0 1.178.273 2.04.82 2.585.49.489 1.287.733 2.391.733h.92v3.069h-1.84c-1.672 0-2.949-.478-3.83-1.434Zm.837 3.935h2.508v2.502h-2.508v-2.502Zm-4.181 0h2.508v2.502h-2.508v-2.502ZM58 26.281c-.412.1-.814.15-1.204.15-.702 0-1.36-.139-1.973-.417-1.528-.678-2.392-1.75-2.593-3.218-.535 1.734-1.338 2.785-2.408 3.152-.758.267-1.5.4-2.224.4-1.093 0-2.04-.272-2.844-.817-.669-.445-1.232-1.073-1.689-1.884-.48.655-1.031 1.167-1.656 1.534-.847.511-1.822.767-2.926.767h-2.175v-3.069h1.255c1.104 0 1.9-.244 2.391-.733.892-.89 1.338-1.89 1.338-3.002v-3.202h3.078v2.602c0 .711.245 1.623.736 2.735.48 1.1 1.299 1.65 2.458 1.65 1.216 0 2.068-.678 2.559-2.034.413-1.145.619-2.796.619-4.953h3.077c0 2.28.106 3.697.318 4.253.714 1.89 1.684 2.829 2.91 2.818 1.583-.022 2.375-1.579 2.375-4.67v-4.902H62.5v5.703c0 1.078.463 2.079 1.389 3.002.49.489 1.287.733 2.391.733h1.254v3.069H65.36c-1.617 0-3.083-.534-4.398-1.601a5.088 5.088 0 0 1-2.96 1.934Zm-26.726-1.767c-.858.956-2.135 1.434-3.83 1.434H25.94v-3.069h.585c1.104 0 1.902-.244 2.392-.733.546-.545.82-1.407.82-2.585v-3.619h3.077v3.619c0 1.178.273 2.04.82 2.585.49.489 1.287.733 2.391.733h.92v3.069h-1.84c-1.672 0-2.949-.478-3.83-1.434Zm.837 3.935h2.508v2.502h-2.508v-2.502Zm-4.182 0h2.509v2.502H27.93v-2.502ZM19.652 9.272h2.508v2.501h-2.508V9.272Zm1.254 15.242c-.859.956-2.135 1.434-3.83 1.434h-1.505v-3.069h.585c1.104 0 1.901-.244 2.392-.733.546-.545.82-1.407.82-2.585v-3.619h3.077v3.619c0 1.178.273 2.04.82 2.585.49.489 1.287.733 2.39.733h.92v3.069h-1.84c-1.672 0-2.948-.478-3.83-1.434ZM7.04 16.359c-.635-1.356-1.968-2.885-3.997-4.586H6.84c1.082.867 2.08 2.063 2.994 3.585.903 1.49 1.355 2.885 1.355 4.186 0 .812.463 1.679 1.388 2.602.49.489 1.288.733 2.392.733h1.254v3.069h-2.174c-1.64 0-3-.723-4.081-2.168-1.037 1.423-2.71 2.318-5.017 2.685-.513.078-1.02.116-1.522.116A9.875 9.875 0 0 1 0 25.948v-3.069c1.282.467 2.392.7 3.328.7.368 0 .742-.05 1.12-.15 1.919-.544 3.073-1.439 3.463-2.684.089-.3.134-.684.134-1.15 0-.757-.335-1.835-1.004-3.236Z"/></svg>