<svg xmlns="http://www.w3.org/2000/svg" width="120" height="26" fill="none"><path fill="#5D5D5D" d="M120 14.96c0 .463-.077.902-.23 1.315a5.089 5.089 0 0 1-.548 1.087l-3.11 4.882-.691 1.036-.591.923-.201.253-.231.24-.158.102c-.24.152-.567.287-.979.405l-.303.038c-.317 0-.667-.106-1.051-.317-.538-.278-.807-.607-.807-.986v-.443l.015-.265.101-.228.144-.29c.057-.119.12-.211.187-.279l.475-.746.951-1.416-.072-.013c-1.325-.22-2.372-.645-3.14-1.277a5.027 5.027 0 0 1-.993-1.056 5.89 5.89 0 0 1-.656-1.34 4.716 4.716 0 0 1-.28-1.587l.043-.67c.009-.085.029-.19.057-.317a4.45 4.45 0 0 1 .101-.366c.317-1.113 1.023-2.049 2.117-2.808 1.094-.758 2.352-1.138 3.773-1.138a6.9 6.9 0 0 1 2.304.38c.72.252 1.378.64 1.973 1.163 1.2 1.028 1.8 2.268 1.8 3.718Zm-4.219.025c0-.455-.19-.856-.569-1.201-.379-.346-.847-.519-1.404-.519-.547 0-1.015.169-1.404.506-.389.337-.584.742-.584 1.214 0 .464.19.866.569 1.208.38.341.852.512 1.419.512.528 0 .989-.165 1.382-.493.394-.33.591-.738.591-1.227Zm-11.305 2.63c0 .135-.009.257-.029.367-.019.11-.043.198-.072.265a2.487 2.487 0 0 1-.741 1.183c-.351.308-.8.525-1.347.651l-.72.089h-5.14v-3.655h2.951c.183 0 .32-.008.41-.025a.628.628 0 0 0 .296-.17.738.738 0 0 0 .216-.387l.029-.24v-4.287c.057-.388.144-.695.259-.923.355-.615.96-.923 1.814-.923.865 0 1.469.308 1.815.923.106.202.192.51.259.923v6.21Zm.49 6.272c0 .43-.175.805-.526 1.126-.35.32-.794.48-1.332.48-.49 0-.91-.153-1.26-.461a1.464 1.464 0 0 1-.526-1.145c0-.438.176-.817.526-1.138a1.8 1.8 0 0 1 1.26-.48c.499 0 .934.152 1.303.455.37.303.555.691.555 1.163Zm-4.522 0c0 .43-.175.805-.526 1.126-.35.32-.784.48-1.303.48-.509 0-.943-.158-1.303-.474-.36-.316-.54-.693-.54-1.132 0-.455.177-.838.533-1.15.355-.312.792-.468 1.31-.468.49 0 .917.158 1.282.474.365.316.547.698.547 1.144Zm-4.018-3.717H69.93v-3.655h18.13c.5 0 .98-.126 1.44-.38.548-.32.821-.767.821-1.34 0-.649-.21-1.108-.633-1.378a1.752 1.752 0 0 0-.95-.253l-.13.013h-13.09c-.221 0-.5-.026-.836-.076-.643-.101-1.18-.287-1.612-.557-.596-.362-.965-.876-1.11-1.542l-.057-.62c0-.818.317-1.555.95-2.213.212-.21.533-.451.965-.72l7.373-3.896.447-.202a3.82 3.82 0 0 1 .547-.158c.154-.03.322-.044.504-.044.326 0 .605.059.835.177.26.101.497.31.713.626.216.316.324.63.324.942 0 .413-.168.796-.504 1.15-.077.093-.25.237-.518.43l-5.876 3.023h11.002l.23-.013c.231 0 .433.009.606.025.172.017.379.051.619.102a5.183 5.183 0 0 1 1.771.682c.643.397 1.229.966 1.757 1.708.288.43.504.87.648 1.321.144.451.216.862.216 1.233a3.633 3.633 0 0 1-.08.803 2.482 2.482 0 0 1-.251.626 2.177 2.177 0 0 1-.332.518h2.578v3.668Zm-26.511 0h-3.24l-.26.012c-.49 0-.96-.038-1.41-.114-.625-.11-1.117-.312-1.477-.607-.36-.295-.631-.762-.813-1.403l-.116-.607-.043-.708v-.165l.015-.113V2.238c0-.632.196-1.163.59-1.593.393-.43.965-.645 1.714-.645.71 0 1.252.253 1.627.759.278.413.418.957.418 1.631v13.354l.014.329c0 .075.058.172.173.29.067.05.187.097.36.14l.374.012h2.074v3.655ZM53.54 12.91c-.537 0-1 .169-1.39.506-.388.337-.583.746-.583 1.226 0 .481.195.89.584 1.227a2.05 2.05 0 0 0 1.39.506c.527 0 .99-.164 1.389-.493.398-.329.598-.742.598-1.24 0-.472-.19-.878-.57-1.22-.378-.341-.851-.512-1.418-.512Zm-7.805 7.259v-3.655h2.16l-.144-.556-.1-.607-.03-.784c0-.54.116-1.132.346-1.777.23-.645.696-1.25 1.397-1.815.759-.624 1.555-1.045 2.39-1.264.836-.22 1.56-.329 2.175-.329l.763.038c.212 0 .485.055.821.164l.605.19 1.21.658c.816.472 1.45 1.239 1.9 2.301.289.675.433 1.294.433 1.859 0 .236-.03.493-.087.771l-.187.822-.1.316-.634 1.05c-.413.674-1.052 1.24-1.916 1.695a5.923 5.923 0 0 1-1.411.53l-1.426.279-.605.063-.49.025-.431.026h-6.639Zm.015-3.668-.015 3.668h-4.22l-1.266 1.998-1.095 1.72-.086.113-.072.114a3.121 3.121 0 0 1-.605.62l-.432.227-.547.165-.317.038c-.278 0-.629-.102-1.051-.304-.528-.27-.792-.599-.792-.986l.014-.57.086-.366.144-.29.188-.28.475-.745.95-1.43h-.057c-1.335-.201-2.386-.62-3.154-1.257a5.244 5.244 0 0 1-1.642-2.384 6.737 6.737 0 0 1-.216-.822 4.266 4.266 0 0 1-.072-.797l.044-.67a4.2 4.2 0 0 1 .158-.683c.336-1.13 1.051-2.072 2.146-2.826C35.41 10 36.659 9.623 38.06 9.623c1.632 0 3.053.517 4.262 1.55 1.21 1.032 1.815 2.27 1.815 3.71 0 .6-.12 1.139-.36 1.62h1.973Zm-5.818-1.568c0-.472-.19-.878-.569-1.22-.38-.341-.852-.512-1.418-.512-.548 0-1.018.166-1.412.5-.393.332-.59.743-.59 1.232 0 .464.199.867.597 1.208a2.09 2.09 0 0 0 1.405.512c.518 0 .979-.164 1.382-.493.403-.329.605-.738.605-1.227Zm-10.83 2.15c0 .287-.016.506-.05.658a3.906 3.906 0 0 1-.223.632l-.302.468c-.096.143-.24.3-.432.468-.308.244-.716.447-1.224.607l-.778.202-.475.05H13.637l-.389 1.505c-.431 1.139-1.06 2.07-1.886 2.795-1.171 1.003-2.669 1.505-4.493 1.505-1.843 0-3.365-.497-4.565-1.492C1.47 23.774.83 22.846.39 21.7L0 20.195V14.25c.058-.337.14-.585.245-.746.345-.505.95-.758 1.814-.758.864 0 1.464.248 1.8.746.106.152.192.404.26.758l-.03 5.716a4.03 4.03 0 0 0 .217.93c.019.046.057.12.115.221.442.767 1.195 1.15 2.26 1.15 1.095 0 1.883-.379 2.363-1.137.115-.203.225-.582.33-1.138v-9.168c.058-.371.145-.65.26-.835.355-.565.96-.847 1.814-.847.864 0 1.47.278 1.815.834.115.177.201.46.26.848v5.715h3.585v-5.715c.058-.371.144-.65.26-.835.354-.565.96-.847 1.814-.847.864 0 1.468.278 1.814.834.115.177.202.46.26.848v5.715h3.614v-5.715c.029-.194.062-.36.1-.5.039-.139.087-.25.145-.335.355-.565.955-.847 1.8-.847.854 0 1.483.27 1.886.809.115.185.216.46.303.822v6.31Z"/></svg>