<?xml version="1.0" encoding="UTF-8"?>
<svg xmlns="http://www.w3.org/2000/svg" width="50" height="50" viewBox="0 0 50 50">
	<title>
		wikitionary-logo
	</title>
	<defs>
		<linearGradient id="linearGradient-1" x1="91.252%" x2="18.396%" y1="78.586%" y2="20.938%">
			<stop offset="0%" stop-color="#F4E3CA"/>
			<stop offset="100%" stop-color="#E9CC9D"/>
		</linearGradient>
		<linearGradient id="linearGradient-2" x1="91.252%" x2="18.396%" y1="78.586%" y2="20.938%">
			<stop offset="0%" stop-color="#F4E3CA"/>
			<stop offset="100%" stop-color="#E9CC9D"/>
		</linearGradient>
		<linearGradient id="linearGradient-3" x1="91.252%" x2="18.396%" y1="78.586%" y2="20.938%">
			<stop offset="0%" stop-color="#F4E3CA"/>
			<stop offset="100%" stop-color="#E9CC9D"/>
		</linearGradient>
		<linearGradient id="linearGradient-4" x1="91.252%" x2="18.396%" y1="78.586%" y2="20.937%">
			<stop offset="0%" stop-color="#F4E3CA"/>
			<stop offset="100%" stop-color="#E9CC9D"/>
		</linearGradient>
		<linearGradient id="linearGradient-5" x1="91.252%" x2="18.396%" y1="78.586%" y2="20.937%">
			<stop offset="0%" stop-color="#F4E3CA"/>
			<stop offset="100%" stop-color="#E9CC9D"/>
		</linearGradient>
		<linearGradient id="linearGradient-6" x1="91.252%" x2="18.396%" y1="78.586%" y2="20.937%">
			<stop offset="0%" stop-color="#F4E3CA"/>
			<stop offset="100%" stop-color="#E9CC9D"/>
		</linearGradient>
		<linearGradient id="linearGradient-7" x1="91.252%" x2="18.396%" y1="78.586%" y2="20.938%">
			<stop offset="0%" stop-color="#F4E3CA"/>
			<stop offset="100%" stop-color="#E9CC9D"/>
		</linearGradient>
		<linearGradient id="linearGradient-8" x1="91.252%" x2="18.396%" y1="78.586%" y2="20.938%">
			<stop offset="0%" stop-color="#F4E3CA"/>
			<stop offset="100%" stop-color="#E9CC9D"/>
		</linearGradient>
		<linearGradient id="linearGradient-9" x1="91.252%" x2="18.396%" y1="78.586%" y2="20.938%">
			<stop offset="0%" stop-color="#F4E3CA"/>
			<stop offset="100%" stop-color="#E9CC9D"/>
		</linearGradient>
		<linearGradient id="linearGradient-10" x1="25.901%" x2="78.681%" y1="14.621%" y2="85.445%">
			<stop offset="0%" stop-color="#006"/>
			<stop offset="100%" stop-color="#00004F"/>
		</linearGradient>
		<linearGradient id="linearGradient-11" x1="53.425%" x2="49.355%" y1="103.287%" y2="-12.58%">
			<stop offset="0%" stop-color="#006"/>
			<stop offset="100%" stop-color="#00004F"/>
		</linearGradient>
		<linearGradient id="linearGradient-12" x1="38.724%" x2="39.86%" y1="109.956%" y2="-4.226%">
			<stop offset="0%" stop-color="#006"/>
			<stop offset="100%" stop-color="#00004F"/>
		</linearGradient>
		<linearGradient id="linearGradient-13" x1="61.506%" x2="26.642%" y1="105.424%" y2="4.847%">
			<stop offset="0%" stop-color="#D40000"/>
			<stop offset="100%" stop-color="#570000"/>
		</linearGradient>
		<linearGradient id="linearGradient-14" x1="83.793%" x2="16.851%" y1="95.966%" y2="-.27%">
			<stop offset="0%" stop-color="#006"/>
			<stop offset="100%" stop-color="#00004F"/>
		</linearGradient>
		<linearGradient id="linearGradient-15" x1="82.378%" x2="27.9%" y1="94.24%" y2="-2.503%">
			<stop offset="0%" stop-color="#006"/>
			<stop offset="100%" stop-color="#00004F"/>
		</linearGradient>
		<linearGradient id="linearGradient-16" x1="88.706%" x2="13.861%" y1="93.708%" y2="12.144%">
			<stop offset="0%" stop-color="#006"/>
			<stop offset="100%" stop-color="#00004F"/>
		</linearGradient>
		<linearGradient id="linearGradient-17" x1="93.056%" x2="10.841%" y1="68.234%" y2="9.218%">
			<stop offset="0%" stop-color="#006"/>
			<stop offset="100%" stop-color="#00004F"/>
		</linearGradient>
		<linearGradient id="linearGradient-18" x1="47.293%" x2="27.569%" y1="97.686%" y2="-.501%">
			<stop offset="0%" stop-color="#006"/>
			<stop offset="100%" stop-color="#00004F"/>
		</linearGradient>
	</defs>
	<g id="wikitionary-logo" fill="none" fill-rule="evenodd" stroke="none" stroke-width="1">
		<g id="Group-76" fill-rule="nonzero" stroke="#000" stroke-width=".2" transform="translate(1 2)">
			<rect id="rect2525" width="12.156" height="12.109" x="4.087" y="3.29" fill="#E7C78D" stroke-linecap="round" stroke-linejoin="round" rx="1.239" transform="rotate(-6.955 10.165 9.344)"/>
			<rect id="rect3412" width="12.156" height="12.109" x="18.433" y="3.579" fill="#E7C78D" stroke-linecap="round" stroke-linejoin="round" rx="1.239" transform="rotate(38.339 24.51 9.634)"/>
			<rect id="rect3414" width="12.156" height="12.109" x="33.31" y="3.096" fill="#E7C78D" stroke-linecap="round" stroke-linejoin="round" rx="1.239" transform="rotate(-66.447 39.388 9.15)"/>
			<rect id="rect3416" width="12.156" height="12.109" x=".947" y="17.008" fill="#E7C78D" stroke-linecap="round" stroke-linejoin="round" rx="1.239" transform="rotate(8.928 7.025 23.062)"/>
			<rect id="rect3418" width="12.156" height="12.109" x="15.534" y="17.684" fill="#E7C78D" stroke-linecap="round" stroke-linejoin="round" rx="1.239" transform="rotate(30.362 21.612 23.738)"/>
			<rect id="rect3420" width="12.156" height="12.109" x="30.122" y="16.138" fill="#E7C78D" stroke-linecap="round" stroke-linejoin="round" rx="1.239" transform="rotate(8.904 36.2 22.193)"/>
			<rect id="rect3422" width="12.156" height="12.109" x="5.681" y="31.209" fill="#E7C78D" stroke-linecap="round" stroke-linejoin="round" rx="1.239" transform="rotate(-32.281 11.758 37.263)"/>
			<rect id="rect3424" width="12.156" height="12.109" x="19.785" y="31.595" fill="#E7C78D" stroke-linecap="round" stroke-linejoin="round" rx="1.239" transform="rotate(-6.955 25.863 37.65)"/>
			<rect id="rect3426" width="12.156" height="12.109" x="32.731" y="30.339" fill="#E7C78D" stroke-linecap="round" stroke-linejoin="round" rx="1.239" transform="rotate(2.773 38.809 36.394)"/>
			<rect id="rect3428" width="12.156" height="12.109" x="4.176" y="2.222" fill="url(#linearGradient-1)" stroke-linecap="round" stroke-linejoin="round" rx="1.239" transform="rotate(-6.955 10.254 8.277)"/>
			<rect id="rect3430" width="12.156" height="12.109" x="18.522" y="2.512" fill="url(#linearGradient-2)" stroke-linecap="round" stroke-linejoin="round" rx="1.239" transform="rotate(38.339 24.6 8.567)"/>
			<rect id="rect3432" width="12.156" height="12.109" x="33.399" y="2.029" fill="url(#linearGradient-3)" stroke-linecap="round" stroke-linejoin="round" rx="1.239" transform="rotate(-66.447 39.477 8.083)"/>
			<rect id="rect3434" width="12.156" height="12.109" x="1.036" y="15.94" fill="url(#linearGradient-4)" stroke-linecap="round" stroke-linejoin="round" rx="1.239" transform="rotate(8.928 7.114 21.995)"/>
			<rect id="rect3436" width="12.156" height="12.109" x="15.623" y="16.616" fill="url(#linearGradient-5)" stroke-linecap="round" stroke-linejoin="round" rx="1.239" transform="rotate(30.362 21.701 22.67)"/>
			<rect id="rect3438" width="12.156" height="12.109" x="30.211" y="15.071" fill="url(#linearGradient-6)" stroke-linecap="round" stroke-linejoin="round" rx="1.239" transform="rotate(8.904 36.289 21.125)"/>
			<rect id="rect3440" width="12.156" height="12.109" x="5.77" y="30.141" fill="url(#linearGradient-7)" stroke-linecap="round" stroke-linejoin="round" rx="1.239" transform="rotate(-32.281 11.848 36.196)"/>
			<rect id="rect3442" width="12.156" height="12.109" x="19.875" y="30.528" fill="url(#linearGradient-8)" stroke-linecap="round" stroke-linejoin="round" rx="1.239" transform="rotate(-6.955 25.952 36.583)"/>
			<rect id="rect3444" width="12.156" height="12.109" x="32.82" y="29.272" fill="url(#linearGradient-9)" stroke-linecap="round" stroke-linejoin="round" rx="1.239" transform="rotate(2.773 38.898 35.327)"/>
			<path id="flowRoot2762" fill="url(#linearGradient-10)" d="M39.9956764,39.4548075 L36.2569972,39.2346594 C36.1685617,38.4678726 36.0647415,37.77931 35.9455206,37.1689729 C35.7779426,36.2936931 35.7087436,35.5849026 35.7379371,35.0426432 C35.7774786,34.308131 35.9045779,33.650485 36.1192349,33.069685 C35.5717211,32.8544829 35.3110928,32.5028562 35.3373664,32.0148157 C35.3623131,31.5514337 35.4962005,31.1414388 35.7390489,30.784843 L35.9196284,30.7954763 C35.9543862,30.9805056 36.0166022,31.112743 36.1062563,31.1921857 C36.1959091,31.2716664 36.3882553,31.3546811 36.6832721,31.4412867 C37.1235696,31.5710665 37.3259446,31.9662449 37.2903821,32.6268096 C37.2813596,32.794416 37.2608098,32.9267453 37.228753,33.0237435 C36.9378289,33.1104829 36.6719652,33.1467446 36.4311943,33.1325665 C36.3013008,33.6342821 36.2195101,34.1981651 36.1858059,34.8242195 C36.1425464,35.6277658 36.3494103,36.6042811 36.8063841,37.7537465 L37.0141096,37.7585749 C37.686848,36.5618642 38.3053732,35.043003 38.8696714,33.201971 C38.3289904,32.9426574 38.0719192,32.5665222 38.0984592,32.0735477 C38.1212812,31.6496072 38.2555432,31.2742483 38.5012602,30.9474939 L38.6818398,30.9581259 C38.7204778,31.2373401 38.8364325,31.4098317 39.0297079,31.4756035 L39.445482,31.6039375 C39.889714,31.7438422 40.0965576,32.0972474 40.0660575,32.6641533 C40.0551524,32.8662672 40.0256761,33.0400897 39.9775977,33.1856059 C39.7732291,33.2428231 39.5216748,33.2626304 39.2229427,33.2450209 C38.7975064,34.9162148 38.2305329,36.4331622 37.5220223,37.7958875 L39.6488484,37.921123 C39.8942841,37.1839112 40.519477,36.1228677 41.5243933,34.7380157 C41.7800835,34.3920708 41.9146918,34.0933915 41.9282276,33.841971 C41.9420284,33.5856383 41.8309319,33.4060082 41.5949339,33.3031064 L41.5095794,33.2684123 C41.0727172,33.0745499 40.865434,32.7705607 40.8877461,32.3564677 C40.9129404,31.8881722 41.0649417,31.4742943 41.3437204,31.1148677 L41.5176078,31.1251088 C41.5360883,31.363567 41.6412852,31.5280059 41.8332325,31.6184376 L42.20021,31.7809898 C42.6150266,31.9686091 42.8086442,32.3187575 42.7810398,32.8314432 C42.7571574,33.2751125 42.5186912,33.8409053 42.0656842,34.5288038 C41.6126827,35.2167389 41.2049789,35.9765414 40.8426391,36.8082655 C40.480279,37.6399896 40.1979649,38.5221766 39.9956764,39.4548075 L39.9956764,39.4548075 Z"/>
			<path id="flowRoot3743" fill="url(#linearGradient-11)" d="M7.90990265,36.9597205 L8.07956893,36.8462909 C8.30981204,37.2028799 8.50999597,37.394654 8.68012345,37.4216146 C8.85026039,37.4485658 9.14015117,37.3251034 9.54979175,37.0512518 L11.4527923,35.7790003 L11.385269,35.6553066 C11.3217518,35.549029 11.2479909,35.4757279 11.163997,35.4354114 C11.0799977,35.3950868 10.9904004,35.3776059 10.8952051,35.382959 C10.799999,35.388319 10.3178972,35.4443149 9.44890789,35.5509293 L7.235268,35.8309293 L6.34691094,34.3445401 L6.51657586,34.2311119 C6.84094982,34.6091879 7.20469758,34.8061962 7.60782319,34.822088 C8.01095692,34.8379906 8.81850654,34.7824924 10.0304978,34.6556082 C10.4731946,34.6088647 10.8048017,34.6303815 11.0253123,34.7201289 C11.0568186,34.457875 11.1369025,34.2214199 11.2655909,34.0107771 C11.3942617,33.8001316 11.6761985,33.4468265 12.1114134,32.9508576 C12.4537255,32.5571886 12.6569525,32.2977019 12.7211216,32.1723933 C12.7852812,32.0470916 12.7873262,31.9341732 12.7272511,31.8336545 C12.6705965,31.7388623 12.5509211,31.6460109 12.3682398,31.5550936 C12.1920274,31.4678943 12.0730242,31.3725827 12.0112342,31.2691737 C11.9391246,31.1485435 11.917693,31.0231822 11.9469069,30.8931034 C11.9761221,30.7630246 12.047293,30.6601702 12.1604048,30.5845482 C12.2979669,30.4925813 12.4570607,30.4706385 12.6376835,30.5187183 C12.8183104,30.5667994 12.9789988,30.7086043 13.1197718,30.9441208 C13.2570891,31.1739027 13.3175902,31.4218878 13.301271,31.6880654 C13.2849262,31.9542456 13.2158678,32.182322 13.094092,32.3722703 C12.9722932,32.5622361 12.7119557,32.8890337 12.3130688,33.352701 C11.951435,33.7713384 11.7158969,34.0644765 11.6064558,34.2321181 C11.4969972,34.3997543 11.4406266,34.5721066 11.4373495,34.749167 C11.4340751,34.926226 11.490796,35.1124021 11.6075338,35.3077239 C11.6470117,35.3737783 11.7085353,35.4552593 11.7921221,35.5521425 L13.502518,34.4086564 C13.9121451,34.1347845 14.1419595,33.9108021 14.1919314,33.7366943 C14.2418912,33.5625959 14.1639848,33.2890716 13.9582137,32.9161215 L14.1278786,32.8026919 L15.6316393,35.3187697 L15.4619757,35.4322006 C15.2334421,35.0784735 15.0345471,34.8888552 14.8652785,34.8633323 C14.695999,34.8378175 14.4065343,34.96199 13.9969059,35.2358618 L12.2865113,36.3793452 C12.3162174,36.4720275 12.3516852,36.5528295 12.3928863,36.6217688 C12.5216342,36.8371873 12.6618864,36.9805881 12.8136538,37.0519822 C12.9654212,37.1233776 13.1340839,37.1442791 13.3196338,37.1147027 C13.5051784,37.0851142 13.85974,36.9857533 14.3833201,36.8166172 C14.9456612,36.6336045 15.3333103,36.525194 15.5462834,36.4913627 C15.7592213,36.4575233 15.9843967,36.4888769 16.2218174,36.58543 C16.4592044,36.6819778 16.6474242,36.8465709 16.7864876,37.0792241 C16.9203696,37.3032593 16.9731196,37.5132055 16.9447226,37.7090858 C16.9163013,37.9049526 16.8287233,38.0519281 16.6820048,38.1500326 C16.5688849,38.2256437 16.450938,38.2502307 16.3281735,38.2237813 C16.2053982,38.1973144 16.1070922,38.1223375 16.0332947,37.9988319 C15.9749116,37.9011724 15.9445698,37.7466013 15.942257,37.5350983 C15.9412589,37.3186791 15.9115879,37.1616505 15.8532223,37.063995 C15.7965759,36.9692109 15.6974881,36.9269212 15.5559821,36.9371054 C15.4144531,36.9473059 15.1091236,37.0288194 14.6400085,37.1816701 C14.0249214,37.3838449 13.6010269,37.5014172 13.3683128,37.5343991 C13.1355757,37.5673675 12.9004731,37.5426547 12.6629752,37.4602446 C12.6370344,37.6745634 12.5785904,37.8774456 12.4876487,38.0689005 C12.3966949,38.2603352 12.1382956,38.7335754 11.7124602,39.4886091 C11.3038286,40.207995 11.0744376,40.7100731 11.0242912,40.9948596 C10.9741461,41.279615 11.0148156,41.6071754 11.1463185,41.9775369 L10.9766523,42.0909678 L10.088302,40.6045908 C10.1471787,40.516979 10.4567361,40.00049 11.0169742,39.0551227 L11.9405015,37.4970432 C11.9990076,37.4016478 12.0494151,37.285543 12.0917224,37.1487206 C12.134019,37.0119064 12.1096822,36.8673857 12.0187027,36.7151612 C11.9998151,36.6835575 11.9759706,36.6472417 11.9471801,36.6062043 L10.0441796,37.8784559 C9.63453765,38.1523075 9.40430265,38.3755812 9.35347053,38.5482513 C9.30265193,38.7209134 9.379268,38.9922845 9.58333224,39.3623687 L9.41366461,39.4757969 L7.90990265,36.9597205 Z"/>
			<path id="text3751" fill="url(#linearGradient-12)" d="M30.0218621,9.5230679 L28.6460393,8.38156189 L23.8060825,13.7453191 L22.8711591,12.9696207 L27.7111158,7.60586485 L27.0471077,7.05494414 L27.7146864,6.31511523 L30.6894421,8.78324034 L30.0218621,9.5230679 Z M25.4132142,7.59945944 C24.8958327,8.17282749 24.2818682,8.52724981 23.5713221,8.6627291 C22.8607639,8.79820703 22.1477049,8.70655665 21.4321464,8.38777525 L21.6777606,11.5024126 L20.4811946,11.4799193 L20.0280227,5.92907297 L21.2287584,5.94694211 L21.3230448,7.10865572 C21.3275987,7.14478218 21.3741461,7.19957305 21.4626844,7.27302698 C21.8982685,7.63443222 22.4421914,7.74881397 23.0944518,7.61617626 C23.6822103,7.50010661 24.154113,7.24478286 24.5101637,6.85020906 C24.7855327,6.54503104 24.9265938,6.15536409 24.9333508,5.68120822 C24.9418553,5.17078928 24.774353,4.77307229 24.4308467,4.4880586 C24.2041917,4.30001613 23.9698425,4.18913112 23.7278016,4.15540453 C23.456912,4.11932622 23.2338506,4.19838881 23.0586161,4.39258945 C22.8082682,4.6700285 22.8690195,4.96300298 23.2408714,5.27151625 C23.3258567,5.34203662 23.4272869,5.40463138 23.5451635,5.45930188 L22.9193065,6.15288903 C22.7493278,6.08733501 22.5510185,5.96053062 22.3243757,5.77248125 C21.9631503,5.47278218 21.7770688,5.11624862 21.7661258,4.70287922 C21.7526496,4.31976294 21.8877759,3.97098959 22.171502,3.65655888 C22.5358841,3.25273971 23.0105809,3.06981373 23.595598,3.10777403 C24.1446834,3.13750928 24.6511882,3.34482952 25.1151165,3.72973434 C25.7985938,4.29681951 26.1574712,4.94226113 26.1917475,5.66606164 C26.2179074,6.35080213 25.9583977,6.99526806 25.4132142,7.59945944 L25.4132142,7.59945944 Z"/>
			<path id="flowRoot3695" fill="url(#linearGradient-13)" d="M28.0165089,22.3166057 L27.9009532,22.5047754 C27.7304457,22.3994419 27.5723365,22.346205 27.4266188,22.3450405 C27.2808903,22.3438665 27.1056437,22.4016288 26.9008734,22.5183098 C26.7636413,22.5972346 26.4884643,22.8177235 26.0753018,23.1798104 L20.8376619,27.611548 L20.6446421,27.4923135 L21.8613076,22.1619561 L17.6721072,25.6560113 L17.4983889,25.5486949 L19.0703503,18.6209654 C19.1879267,18.1043561 19.2513532,17.7951315 19.2606529,17.6932887 C19.2754276,17.5247139 19.2465775,17.374794 19.1741136,17.243498 C19.1016443,17.1122141 18.9704971,16.9879362 18.7807003,16.8706858 L18.896256,16.6825188 L21.3186709,18.1789759 L21.2031125,18.3671457 L21.0873106,18.2956082 C20.916799,18.1902747 20.7615192,18.1504829 20.6214766,18.1761979 C20.4814245,18.2019291 20.3760112,18.2724184 20.3052311,18.3876982 C20.2323466,18.5063551 20.1355094,18.8230145 20.014725,19.3376451 L18.9264369,24.0037212 L22.0328457,21.3840478 L22.1958617,20.6850547 L22.3256511,20.1268738 C22.3621982,19.9156157 22.3782009,19.7197408 22.3736835,19.5392275 C22.3714208,19.4489796 22.3532609,19.3629286 22.3192065,19.2810987 C22.2762607,19.1703944 22.222894,19.0766341 22.1591388,18.9998138 C22.1105032,18.9417269 22.0202364,18.8719274 21.8883398,18.7904505 L22.0038956,18.6022794 L24.5517799,20.1762493 L24.4362242,20.3644177 L24.2625072,20.2571027 C24.082351,20.1458114 23.9254631,20.1050256 23.791857,20.1347196 C23.6582306,20.164419 23.5487463,20.2487714 23.4633972,20.3877712 C23.3571953,20.560678 23.2442756,20.9071396 23.1246218,21.4271612 L22.0775064,25.9503112 L25.6554824,22.920463 C26.0552038,22.5874912 26.3050242,22.3396373 26.4049857,22.1768917 C26.4528572,22.0989151 26.4742956,22.011613 26.4693008,21.9149935 C26.4642952,21.8183714 26.434727,21.7346304 26.3806191,21.6637895 C26.2875162,21.5408018 26.142844,21.4186933 25.9466188,21.2974733 L26.0621745,21.1093049 L28.0165089,22.3166057 Z"/>
			<path id="flowRoot3683" fill="url(#linearGradient-14)" d="M40.503289,17.5397901 L39.8522499,18.2593722 L39.217292,17.5141266 L39.8534577,16.7898486 L40.503289,17.5397901 Z M41.152118,18.8723115 L40.4998022,19.5788272 L39.854936,18.8304383 L40.4905309,18.1249993 L41.152118,18.8723115 Z M39.8455361,19.0302192 L39.2013001,19.7456248 L38.5527442,19.0087497 L39.1870651,18.2902293 L39.8455361,19.0302192 Z M39.8698783,24.2206097 L39.4780974,24.0969783 C39.2797136,24.0343754 39.1154546,23.94769 38.9853069,23.8369195 C38.8551415,23.7261597 38.734495,23.5772136 38.6233525,23.3900785 C38.4377715,23.492016 38.2824497,23.5507196 38.1573671,23.5661583 C37.9798536,23.5861658 37.7423138,23.5492265 37.4447503,23.4553255 L36.8347513,23.2628332 C36.7216775,23.6157367 36.5389353,23.9361073 36.2865343,24.223945 C35.9591889,24.5979379 35.5615341,24.850489 35.0935929,24.9816079 C34.5055611,25.1466148 33.8462083,25.1138385 33.115525,24.8832599 C32.4542759,24.6745932 31.991431,24.3807139 31.7270131,24.0016004 C31.4381326,23.5851974 31.3913985,23.0720288 31.5868244,22.4620988 C31.6925231,22.132208 31.8341752,21.8094368 32.0117698,21.4937648 C32.1893617,21.1781076 32.392352,20.8683528 32.6207693,20.5645083 C32.7598786,20.380319 32.987525,20.1015727 33.3037326,19.7282763 L33.4689194,19.8944478 C33.0604852,20.3738135 32.7680748,20.7609431 32.5916663,21.0558571 C32.4152565,21.3507737 32.284657,21.6305749 32.1998529,21.8952485 C32.0474404,22.3709286 32.0778945,22.7786365 32.2912355,23.1183883 C32.5045576,23.4581523 32.8823267,23.7135774 33.4245495,23.8846855 C34.0593478,24.0850047 34.6675412,24.135431 35.2491446,24.0359687 C35.9727246,23.9137208 36.4260805,23.566817 36.6092257,22.9952559 C36.7321255,22.6116427 36.7877265,22.2279213 36.7760207,21.8440782 C36.7673877,21.5414672 36.71541,21.2378446 36.6200876,20.9332035 L37.4096531,19.8835102 C37.4741779,20.2502442 37.4974841,20.5638199 37.4795703,20.8242763 C37.4528207,21.1917583 37.3448254,21.6708752 37.1555439,22.2616295 L37.7655442,22.4541245 C38.0796352,22.553238 38.3206266,22.5680397 38.4885319,22.4985296 C38.6349637,22.439147 38.7401471,22.3097242 38.8040633,22.1102436 C38.8397069,21.9989969 38.8698661,21.8849776 38.89456,21.7681614 C38.9192403,21.6513397 38.9415226,21.522155 38.9613988,21.3805895 L39.2703868,21.0979467 L39.1709082,21.6811311 C39.1231855,22.0800153 39.1340771,22.3812238 39.2035588,22.5847822 C39.2801072,22.8116833 39.4423726,22.9642689 39.6903578,23.0425093 C39.7663868,23.0665161 39.8339804,23.0572231 39.8931412,23.0146425 C39.9522776,22.9720579 39.9953803,22.9085773 40.022422,22.8241844 C40.0838766,22.6323778 40.0983835,22.4109813 40.0659561,22.1599829 C40.04153,21.9748711 39.992306,21.7819325 39.9182962,21.5811724 L40.4515385,21.058842 C40.5122763,21.4032518 40.5419743,21.6343876 40.5406762,21.7522195 C40.5359287,22.0168417 40.4598401,22.3793208 40.3123507,22.8396366 L39.8698783,24.2206097 Z"/>
			<path id="text3899" fill="url(#linearGradient-15)" d="M10.6141596,25.1315778 L10.8901874,25.1890317 C10.7570141,25.8162912 10.5284656,26.2454456 10.204542,26.4764921 C9.88060358,26.7075372 9.52184111,26.7820988 9.12825193,26.7001756 C8.80621237,26.6331446 8.51697484,26.4744877 8.26054069,26.2242047 C8.00409302,25.9739203 7.84553748,25.4134118 7.78487138,24.5426804 L7.61598685,22.0948887 L4.47647442,25.6448829 L3.0273248,25.3432525 L7.47460392,20.5357976 C7.45166698,19.7890006 7.35376267,19.2193546 7.18089234,18.8268569 C7.00800984,18.4343727 6.7401106,18.2003589 6.37718921,18.1248113 C6.0858215,18.0641736 5.81318718,18.0975883 5.55928355,18.2250567 C5.30537315,18.3525414 5.12729437,18.5942537 5.02504179,18.9501989 L4.74901271,18.892745 C4.88824111,18.3123548 5.13827391,17.876273 5.49911516,17.5845022 C5.85995506,17.2927477 6.25506174,17.1915514 6.68444331,17.2809161 C6.96046833,17.3383781 7.20368592,17.481238 7.41409876,17.7094956 C7.62450215,17.9377695 7.77513883,18.2841769 7.86600341,18.7487152 C7.95685988,19.2132671 8.05153985,20.1563663 8.15004737,21.5780184 L8.29367814,23.5790652 C8.34743841,24.4069063 8.46769944,24.9780968 8.65445988,25.2926395 C8.8412095,25.6071822 9.10327138,25.7995636 9.44064416,25.8697878 C10.0131412,25.9889479 10.4043121,25.7428792 10.6141596,25.1315778 L10.6141596,25.1315778 Z"/>
			<path id="path3098" fill="url(#linearGradient-16)" d="M25.8836602,41.3558794 C25.8738939,41.3065972 25.7456612,39.993898 25.5986993,38.4387683 C25.4517373,36.8836414 25.3211554,35.5248343 25.3085191,35.4191964 L25.2855415,35.2271301 L25.1778276,35.4349299 C24.9472869,35.879684 24.6840944,36.1887125 24.5358475,36.1887125 C24.4788616,36.1887125 24.4229387,36.1728424 24.4115764,36.1534476 C24.4002127,36.1340501 24.4564102,35.9682831 24.5364562,35.7850743 C25.0148196,34.6902185 25.3705309,33.2735017 25.3712721,32.4601878 C25.3715412,32.1657134 25.4055077,31.9673661 25.455669,31.9673661 C25.5504409,31.9673661 26.5039557,32.4222354 26.5039557,32.4674466 C26.5039557,32.4956326 26.436235,32.5798456 26.3534705,32.6545857 C26.2192396,32.7757989 26.1888896,32.8394608 26.072471,33.2440079 C26.0006888,33.4934483 25.9487868,33.704743 25.9571331,33.7135477 C25.9654793,33.7223551 26.546328,33.6674899 27.2479057,33.5916299 L28.5235074,33.4536998 L28.8035642,33.1485976 C28.9575943,32.980791 29.0951469,32.8434939 29.1092345,32.8434939 C29.1518746,32.8434939 29.7615598,33.3430091 29.8771777,33.4726699 C29.9365549,33.539264 29.977695,33.6173164 29.9685968,33.6461191 C29.9566719,33.6838578 29.675502,33.7279626 28.9621995,33.8039849 C28.4177803,33.8620082 27.966418,33.9160444 27.9591686,33.9240674 C27.9519219,33.9320904 27.9778019,34.2612292 28.0166793,34.6554865 C28.0555568,35.0497452 28.0878245,35.406272 28.0883818,35.4477692 C28.0893069,35.5167017 28.1114134,35.5211257 28.3442019,35.4989543 L28.5990049,35.4746878 L28.8472687,35.1879037 C29.0297322,34.9771392 29.1097809,34.910299 29.1492589,34.9357462 C29.303715,35.0353005 29.9596122,35.6097763 29.9697437,35.6543774 C29.9844548,35.7191443 29.9302712,35.728578 28.9387419,35.8338588 C28.5027453,35.8801533 28.1436352,35.9206916 28.1407179,35.923943 C28.1348318,35.930508 28.2720491,37.3295856 28.2875852,37.4214348 C28.2949806,37.4651501 28.3482418,37.4771629 28.5048146,37.4704315 C28.7103476,37.4615944 28.714704,37.4587839 28.9803013,37.1636157 C29.1277312,36.9997732 29.2721207,36.8659277 29.3011642,36.8661807 C29.3628595,36.8667176 30.1655726,37.5680572 30.1655726,37.6214239 C30.1655726,37.6412664 30.1528322,37.6655166 30.1372622,37.675314 C30.121691,37.6851115 29.7182516,37.7332657 29.2407307,37.7823261 C28.7632112,37.8313851 28.3622374,37.8826703 28.3496781,37.8962912 C28.3216721,37.9266709 28.4760159,39.5574618 28.5102881,39.5932556 C28.5237806,39.6073485 28.6928139,39.6002669 28.8859202,39.577522 L29.2370208,39.5361668 L29.5416524,39.2164562 C29.7091994,39.0406158 29.8673505,38.8967457 29.8930966,38.8967457 C29.951362,38.8967457 30.8450492,39.6441228 30.8450492,39.6928491 C30.8450492,39.7123751 30.830587,39.737779 30.8129086,39.7493036 C30.7952355,39.7608282 29.8497491,39.869286 28.7118327,39.9903193 C27.5739135,40.1113539 26.6344335,40.2193073 26.624095,40.2302151 C26.6137552,40.2411217 26.6239463,40.424935 26.6467439,40.6386885 L26.6881911,41.0273303 L26.5710462,41.1352106 C26.465856,41.2320775 26.0304829,41.4454834 25.9380467,41.4454834 C25.9178986,41.4454834 25.8934239,41.4051616 25.8836602,41.3558794 Z M27.2159774,39.7543389 C27.4934009,39.7231139 27.7267507,39.690842 27.7345383,39.682627 C27.7513363,39.664908 27.5960944,38.0081925 27.5753931,37.9842425 C27.5556169,37.9613638 26.4781921,38.0675927 26.4356873,38.0966118 C26.4102144,38.1140048 26.5420325,39.7274229 26.575082,39.8027433 C26.5830793,39.8209722 26.7074208,39.8115818 27.2159774,39.7543389 Z M27.070184,37.6196752 C27.3089451,37.5949002 27.5118638,37.5669333 27.5211162,37.5575267 C27.5456166,37.5326138 27.408164,36.0542368 27.3784146,36.0227142 C27.3491628,35.9917191 26.2698715,36.1056924 26.2353884,36.1434189 C26.2226276,36.1573793 26.2428433,36.473453 26.2803087,36.8458094 C26.3177742,37.2181631 26.3494482,37.5647139 26.3506952,37.615922 C26.3527551,37.7006233 26.3657349,37.7070273 26.494518,37.6868738 C26.5723743,37.6746892 26.8314242,37.6444515 27.070184,37.6196752 Z M26.7870705,35.6690114 C27.0154486,35.6458933 27.2367733,35.6196143 27.2789049,35.6106135 L27.3555033,35.5942469 L27.2802114,34.7963203 C27.2093988,34.0458946 27.2003426,33.998437 27.1281113,33.9991606 C26.935619,34.0011149 26.0728376,34.1188549 26.0478814,34.1465824 C26.0325278,34.1636414 26.0519659,34.5001729 26.0910759,34.8944315 C26.130186,35.2886889 26.1626431,35.6336654 26.1632017,35.6610425 C26.1644406,35.7218182 26.2540717,35.7229638 26.7870705,35.6690114 Z M21.9219466,40.57931 C21.7301914,40.3415484 21.6729295,40.241779 21.6725509,40.1448444 C21.6721316,40.0195494 21.6732906,40.0188109 21.9458073,39.9708569 C22.3580893,39.8983105 23.4210709,39.605336 24.162301,39.3599585 C24.5249491,39.2399058 24.8349596,39.1503504 24.8512125,39.1609472 C24.8674655,39.1715453 24.8805535,39.2194791 24.8803003,39.2674682 C24.8799219,39.3376072 24.7929241,39.4048762 24.436749,39.6104228 C24.1930567,39.7510578 23.5995432,40.0960343 23.1178337,40.3770351 C22.6361214,40.6580373 22.2259899,40.8879463 22.2064261,40.8879463 C22.186865,40.8879463 22.0588474,40.7490615 21.9219466,40.57931 Z M21.898965,38.4195818 C21.7949677,38.2009472 21.7098783,37.9968004 21.7098783,37.9659217 C21.7098783,37.9350429 21.7538127,37.8981455 21.8075108,37.8839281 C21.9482553,37.8466615 22.2519659,37.5320173 22.4489945,37.2193479 C22.6320639,36.9288309 23.1259392,35.8772725 23.0947601,35.8443785 C23.0843568,35.833403 23.0190584,35.8554202 22.9496524,35.8933049 C22.707387,36.0255477 21.6945951,36.4674804 21.6337965,36.4674804 C21.5732508,36.4674804 21.1436487,35.8445854 21.1436487,35.7567991 C21.1436487,35.73225 21.2255341,35.6683893 21.3256173,35.6148846 C21.4941191,35.5248045 21.5195608,35.4904146 21.6693887,35.1502124 C21.9798063,34.4453685 22.2507757,33.5717401 22.4311713,32.6941529 C22.4879679,32.4178452 22.531809,32.2859582 22.5668602,32.2859582 C22.6524257,32.2859582 23.3674567,32.8188691 23.3683655,32.8833181 C23.3688267,32.9161729 23.3040207,32.9916785 23.2243493,33.0511085 C23.1076426,33.1381671 23.0554188,33.2232904 22.9555939,33.4891717 C22.7815902,33.9526334 22.3928633,34.7873411 22.1481525,35.2229793 C22.0343442,35.4255842 21.9443818,35.5913512 21.9482377,35.5913512 C21.9520937,35.5913512 22.2355317,35.546819 22.5780981,35.4923879 C22.9206658,35.4379568 23.2147669,35.3931541 23.2316541,35.3928268 C23.3002959,35.391496 23.748304,34.2674331 23.748304,34.0965414 C23.748304,33.947878 23.8745174,34.0006997 24.220231,34.2940501 C24.41743,34.4613807 24.5787743,34.6051237 24.5787743,34.6134821 C24.5787743,34.6218405 24.5036217,34.706393 24.4117698,34.8013786 C24.3035229,34.9133164 24.0894759,35.2607342 23.8034019,35.7888086 C23.3342083,36.6549184 22.9748643,37.2584268 22.7054597,37.6327768 C22.6146479,37.7589658 22.5403486,37.8674466 22.5403486,37.8738439 C22.5403486,37.8802439 22.9437867,37.8267135 23.4368775,37.7548894 C23.9299682,37.6830652 24.3971087,37.6238679 24.474965,37.6233377 C24.6111977,37.6224126 24.6165224,37.6275142 24.6165224,37.7589347 C24.6165224,37.8913127 24.6098776,37.897426 24.3994675,37.9586087 C23.8555568,38.116768 22.8646874,38.4755507 22.5226756,38.6381773 C22.3157184,38.736582 22.1332643,38.8170987 22.117221,38.8170987 C22.1011777,38.8170987 22.0029623,38.6382151 21.898965,38.4195818 Z M27.4702367,33.4191504 C27.4381623,33.3853097 27.3936166,33.2822659 27.3712491,33.1901624 C27.2654205,32.754393 27.1032267,32.4544234 26.8077867,32.1480701 C26.6651378,32.0001587 26.6172014,31.9212042 26.6172014,31.8341901 C26.6172014,31.7216789 26.6220298,31.7186168 26.7671686,31.7391545 C27.028208,31.7760924 27.5192322,32.0603555 27.7968464,32.3352512 C28.0512382,32.5871572 28.0516494,32.5879119 28.0514629,32.8051318 C28.0512301,33.0561411 27.9451419,33.2785776 27.7663463,33.4029191 C27.6319787,33.4963629 27.5478022,33.500979 27.4702367,33.4191504 Z"/>
			<path id="path4921" fill="url(#linearGradient-17)" d="M9.06550164,12.881967 C8.97491432,12.839477 8.82815117,12.7321756 8.48865768,12.4602243 C8.23821643,12.2596089 8.02632125,12.0844637 8.01777619,12.0710104 C8.00923249,12.0575585 8.00716318,12.0403534 8.01317907,12.0327808 C8.01919361,12.0252055 8.12324636,11.9563717 8.24440274,11.8798151 C9.48138262,11.0981928 10.5129999,10.192041 11.2264524,9.26043662 C12.0963033,8.12461921 12.779222,6.73366333 13.0972474,5.45004812 C13.1310529,5.31360585 13.1659852,5.18038522 13.1748751,5.15400484 L13.1910401,5.1060373 L13.6871686,5.34793755 C13.9600409,5.48098506 14.18868,5.59891168 14.1952491,5.61000213 C14.2171797,5.64701177 14.0118212,6.36309765 13.8511003,6.81004135 C13.4903023,7.81338472 12.9494577,8.82797948 12.3577755,9.61144659 C11.5736646,10.64971 10.6456876,11.5720823 9.53657383,12.4155947 L9.32011804,12.5802175 L9.3218357,12.6704627 C9.32277974,12.7200978 9.31598211,12.7927673 9.30673241,12.8319531 C9.29266512,12.8915332 9.28148541,12.9061266 9.23845447,12.9210784 C9.19668811,12.9355906 9.16412142,12.928225 9.06550164,12.881967 Z M7.93097045,8.82900737 C7.11005819,8.58306046 6.54171601,8.44702394 5.98640781,8.36356561 C5.87271584,8.34647686 5.77747188,8.32573907 5.77475337,8.31747939 C5.76522235,8.28851033 6.10289674,7.22637542 6.12396723,7.21905437 C6.14900054,7.21035648 7.27652717,7.42390712 7.51507594,7.4825269 C7.78800646,7.54959706 8.63804872,7.7868799 8.65369978,7.80036561 C8.66675675,7.81161566 8.31236554,8.88013839 8.28353985,8.91643121 C8.2771155,8.92452047 8.11845853,8.88517914 7.93097045,8.82900737 Z M8.43368152,6.03702631 C7.87042607,5.87712369 7.54194052,5.79510982 7.14050958,5.71415091 C6.4829177,5.58153079 6.20422421,5.51565217 6.20500162,5.49301008 C6.20664382,5.44546722 6.44911347,4.4624728 6.46437636,4.44150374 C6.47586715,4.42570932 6.49640747,4.42177762 6.53074999,4.42879841 C6.55810282,4.43438962 6.83446867,4.49046265 7.14489843,4.55340365 C7.45532548,4.616346 7.80335591,4.69064659 7.91829758,4.71851811 C8.13657518,4.77144659 8.82676081,4.95288632 8.94932649,4.98956189 L9.02021609,5.01077305 L9.00750401,5.06472808 C8.9646286,5.24669528 8.72528727,6.08828717 8.71332311,6.09915175 C8.70536098,6.10638489 8.57952226,6.07842884 8.43368152,6.03702631 Z"/>
			<path id="flowRoot2865" fill="url(#linearGradient-18)" d="M37.8139946,2.78598725 C37.9040301,2.83991916 38.1228677,3.02618174 38.4705207,3.34475865 C38.584444,3.44978857 38.6923757,3.53282911 38.7943158,3.59388027 C39.0882073,3.76993559 39.5440112,4.0245785 40.1617289,4.35780724 L40.924208,4.69029481 C41.4098844,4.98122918 41.6008863,5.20148683 41.4972095,5.35107398 C41.4566347,5.40960315 41.3380467,5.49494414 41.1414333,5.60711185 L40.992682,5.71131067 L39.5539818,7.1261908 C39.4816761,7.19350847 39.4860906,7.2973624 39.56722,7.43776342 C39.6434763,7.58480247 39.6568579,7.6940285 39.6073593,7.76545234 C39.4947358,7.92793011 39.1265884,7.82238286 38.5029238,7.44880247 L38.3432227,7.3670307 L37.4435547,6.88329917 C36.9621887,6.62275074 36.7215084,6.49247314 36.7215111,6.49247449 C36.6856403,6.47098877 36.5896903,6.52385505 36.4336666,6.6510679 L36.2263672,6.80274194 L36.091621,6.83236967 L36.0216822,6.80436764 C35.8838739,6.72183036 36.0785681,6.26345809 36.6057633,5.42924947 C36.6266688,5.38675547 36.6439375,5.35567787 36.6575517,5.33603696 L37.2659114,4.29299845 C37.4342861,4.02579033 37.5267682,3.8557436 37.5433674,3.78285258 C37.624448,3.51865674 37.5585857,3.25853258 37.3457911,3.00246306 C37.2199929,2.85327976 37.1736322,2.74268649 37.206706,2.67068325 C37.2878354,2.55363493 37.4902644,2.59206982 37.8139946,2.78598725 L37.8139946,2.78598725 Z M36.902042,6.10366908 L38.3705309,6.94203391 C38.6509218,7.06395716 38.880375,7.06340264 39.0588798,6.94038658 C39.1970249,6.83896578 39.4974543,6.46680281 39.9601559,5.82391388 C40.1042573,5.6160072 40.2311726,5.43906587 40.3409018,5.29309393 C40.4233431,5.18610086 40.4429015,5.096605 40.3995838,5.02459959 C40.3784998,4.99373163 40.3409735,4.9621225 40.2869914,4.92978708 L38.4025796,3.82837765 L36.902042,6.10366908 Z M36.4348149,7.71429021 L36.8486401,8.01735293 C37.3536788,8.3659203 37.6601836,8.57254347 37.768164,8.63721295 L38.7846455,9.24609478 L39.832375,9.84632335 L39.850493,9.85717576 L40.2915114,10.0105945 L40.3005704,10.0160207 C40.7022516,10.2566321 40.8579912,10.442013 40.7677948,10.5721553 C40.7317576,10.6241343 40.6289789,10.6866642 40.4594614,10.7597475 C40.4083885,10.7844698 40.3709231,10.8080721 40.3470611,10.830556 C39.9205522,11.2373888 39.6931006,11.4553174 39.6646996,11.4843501 C39.6479963,11.5203913 39.6681011,11.5831146 39.7250195,11.6725117 C39.7624849,11.7409993 39.7714262,11.8015206 39.7518381,11.8540826 C39.7443912,11.8771413 39.7361343,11.8952187 39.7270685,11.9083149 C39.7001092,11.9471937 39.6483628,11.9667386 39.571832,11.9669414 C39.4503456,11.9587426 39.0792497,11.7778642 38.4585444,11.4243061 L36.569695,10.2928681 C36.377906,10.1779845 36.2188961,10.2116048 36.0926665,10.3937276 L35.7616112,10.8713539 C35.576797,11.1379832 35.6852305,11.391615 36.0869224,11.6322331 L37.1170181,12.221474 L37.1348602,12.2321614 C37.6446962,12.5375585 37.9198205,12.6977262 37.9602357,12.7126659 C37.9962797,12.7342557 38.034443,12.7526199 38.0747162,12.7677624 L38.8059027,12.998556 C38.8464869,13.0135971 38.8847165,13.0318625 38.9205914,13.0533523 C39.4064531,13.3443873 39.5817985,13.5874195 39.4466344,13.7824424 C39.3384051,13.9385715 39.1553762,13.9394033 38.8975287,13.7849621 L35.9853948,12.0544586 C35.9193268,12.0148833 35.8533549,11.9753661 35.787479,11.9359058 C35.2717759,11.6269949 35.0110205,11.323544 35.0052075,11.025549 C35.0010256,10.8481181 35.0732528,10.6521851 35.2219067,10.4377242 L35.5463605,9.96962208 C35.6724494,9.78770222 35.6388426,9.59742935 35.4455402,9.39880619 L35.2475852,9.16989799 C35.2253272,9.12877001 35.2276751,9.08876595 35.2546344,9.04987635 C35.3222834,8.95227229 35.5081917,8.99006773 35.81235,9.16328024 C35.8423591,9.18125623 35.8634039,9.19386282 35.8754844,9.20109866 L36.5924994,9.8373766 C36.6285475,9.85897052 36.6615781,9.87875615 36.6915939,9.8967362 C37.123291,10.1553262 37.7814198,10.5402824 38.6659777,11.0516143 C38.9419378,11.2169161 39.174495,11.2182334 39.3636656,11.0555501 C39.4356305,10.9883271 39.5189224,10.8864667 39.6135361,10.7499771 C39.7441613,10.5615058 39.8101779,10.4539311 39.8115845,10.4272545 C39.8281701,10.354366 39.7945579,10.2928221 39.7107493,10.2426202 L37.5519476,9.00464355 C37.5277813,8.99017863 37.362819,8.9281411 37.057054,8.81853907 C36.9941265,8.79909562 36.9417079,8.77682681 36.899809,8.75171777 C36.7557779,8.66545302 36.5916109,8.46140771 36.4072984,8.13958861 L36.2862151,7.87375598 C36.2697552,7.79960145 36.272801,7.74626046 36.2953566,7.71372622 C36.3224457,7.6746378 36.3689309,7.6748258 36.4348149,7.71429021 L36.4348149,7.71429021 Z M42.0838131,8.5451433 C41.5656646,9.29268007 41.1572521,9.69210255 40.8585742,9.74340805 L40.719055,9.74237069 L40.6921539,9.72625572 C40.5841708,9.66158489 40.7277488,9.33823746 41.1228798,8.75622293 L43.0019493,6.04522107 L43.1550137,5.80589461 L43.1618235,5.79607009 C43.3044169,5.57800213 43.2627101,5.24024389 43.0366868,4.78282242 C42.8749691,4.46500453 42.8046137,4.26647334 42.8256152,4.18723885 C42.8796474,4.10927435 42.9996298,4.125979 43.1855706,4.23734739 C43.4434087,4.39180622 43.7131919,4.66373995 43.9949109,5.05316291 C44.1373637,5.23957846 44.2106783,5.38470509 44.2148494,5.48855226 C44.2194032,5.55557643 44.187103,5.63281599 44.1179595,5.72025471 C43.7711706,6.14733298 43.5955128,6.36414448 43.590986,6.3706892 L42.3135923,8.21363222 C42.4513789,8.29618032 42.7347466,8.40148548 43.1636967,8.5295504 C43.3405123,8.58044879 43.482915,8.63823003 43.5908994,8.70290222 C44.0525975,8.979475 44.2204054,9.20872402 44.0943206,9.39064659 C43.9726137,9.56622191 43.6029515,9.46902495 42.9853312,9.09906384 L42.2545532,8.64741887 L42.0838131,8.5451433 Z"/>
		</g>
	</g>
</svg>
