<svg xmlns="http://www.w3.org/2000/svg" width="117" height="25"><path fill="#4D4D4D" d="M111.202 24.115c-.35 0-.783-.083-1.3-.25-.5-.15-1-.35-1.5-.6-.483-.25-.875-.5-1.175-.75l.35-.825c.45.167.925.283 1.425.35a10.2 10.2 0 0 0 1.625.125c1.25 0 2.317-.375 3.2-1.125.9-.733 1.584-1.808 2.05-3.225l-.025-.2a5.287 5.287 0 0 1-1.6 1.075 4.676 4.676 0 0 1-1.75.35c-.966 0-1.733-.292-2.3-.875-.55-.6-.825-1.383-.825-2.35 0-.85.167-1.683.5-2.5.35-.833.8-1.508 1.35-2.025.55-.5 1.109-.75 1.675-.75.65 0 1.267.292 1.85.875.6.567 1.092 1.383 1.475 2.45a8.1 8.1 0 0 1 .425 1.6c.1.517.15 1.033.15 1.55 0 .783-.125 1.567-.375 2.35a7.902 7.902 0 0 1-1 2.15 6.136 6.136 0 0 1-1.475 1.65c-.866.633-1.783.95-2.75.95Zm1.9-7.125c.417 0 .792-.033 1.125-.1.35-.067.817-.217 1.4-.45a7.514 7.514 0 0 0-.85-2.075c-.366-.6-.766-1.042-1.2-1.325-.35-.25-.7-.375-1.05-.375-.35 0-.691.133-1.025.4a3.25 3.25 0 0 0-.85.975c-.216.4-.325.758-.325 1.075 0 .6.242 1.067.725 1.4.484.317 1.167.475 2.05.475Zm-15.044 2.05c-.133 0-.2-.067-.2-.2v-1.5c0-.133.067-.2.2-.2.817 0 1.617-.033 2.4-.1a22.47 22.47 0 0 0 2.175-.325c.65-.15 1.167-.317 1.55-.5-.083-.333-.2-.725-.35-1.175-.15-.467-.342-.992-.575-1.575a37.2 37.2 0 0 1-.35-1.05c-.083-.283-.125-.492-.125-.625 0-.367.15-.742.45-1.125.3-.383.7-.708 1.2-.975.217.967.392 1.767.525 2.4.133.617.233 1.15.3 1.6.067.45.1.925.1 1.425 0 .283-.075.642-.225 1.075-.133.417-.342.908-.625 1.475-.45.267-1.033.508-1.75.725-.7.2-1.458.358-2.275.475-.817.117-1.625.175-2.425.175Zm6.175 4.55c-.7-.55-1.242-1.058-1.625-1.525.367-.35.9-.908 1.6-1.675a8.2 8.2 0 0 1 .5.475c.25.25.6.592 1.05 1.025a9.924 9.924 0 0 1-.625.775c-.25.283-.55.592-.9.925Zm-3.725.375c-.367-.3-.692-.583-.975-.85a9.374 9.374 0 0 1-.7-.675c.233-.2.483-.442.75-.725s.558-.608.875-.975c.067.083.225.25.475.5.267.25.617.583 1.05 1-.15.25-.35.517-.6.8-.25.283-.542.592-.875.925Z"/><path fill="#4D4D4D" d="M86.833 19.04c-.133 0-.2-.067-.2-.2v-1.5c0-.133.067-.2.2-.2 2.05 0 3.825-.217 5.325-.65.634-.167 1.317-.442 2.05-.825a4.969 4.969 0 0 0-.8-1.525 7.5 7.5 0 0 0-1.325-1.425 11.54 11.54 0 0 0-1.4-1 13.42 13.42 0 0 0-1.7-.95c-.716-.35-1.25-.675-1.6-.975-.35-.317-.525-.692-.525-1.125 0-.317.042-.583.125-.8.084-.233.209-.433.375-.6.15-.15.384-.317.7-.5.334-.2.759-.425 1.275-.675a47.665 47.665 0 0 1 1.925-.9c.75-.333 1.617-.7 2.6-1.1.984-.417 2.1-.883 3.35-1.4.25.25.375.567.375.95s-.083.683-.25.9c-.166.217-.433.4-.8.55-.95.383-1.9.775-2.85 1.175-.933.4-1.875.8-2.825 1.2-.933.383-1.875.767-2.825 1.15 1.217.317 2.375.817 3.475 1.5 1.117.683 2 1.458 2.65 2.325.7.9 1.05 1.733 1.05 2.5 0 .367-.05.7-.15 1 1 .8 2.15 1.2 3.45 1.2.15 0 .225.067.225.2v1.5c0 .133-.075.2-.225.2-.8 0-1.566-.142-2.3-.425-.716-.3-1.366-.767-1.95-1.4-.116.117-.25.233-.4.35-.15.1-.308.2-.475.3-1.383.783-3.566 1.175-6.55 1.175Z"/><path fill="#4D4D4D" d="M78.075 19.04c-.134 0-.2-.067-.2-.2v-1.5c0-.133.066-.2.2-.2 1.033 0 1.908-.042 2.624-.125.717-.1 1.225-.258 1.526-.475.183-.117.4-.375.65-.775.25-.417.616-1.083 1.1-2a.878.878 0 0 1 .775-.425c.2 0 .408.067.624.2-.1.25-.241.575-.424.975-.167.383-.326.742-.475 1.075-.15.333-.259.533-.325.6.566.35 1.091.6 1.575.75.483.133 1.008.2 1.575.2.133 0 .2.067.2.2v1.5c0 .133-.067.2-.2.2-1.55 0-2.867-.483-3.95-1.45l-.4.525c-.117.117-.442.25-.975.4-.517.15-1.134.275-1.85.375-.7.1-1.384.15-2.05.15Zm6.75 4.55c-.7-.55-1.242-1.058-1.626-1.525.367-.35.9-.908 1.6-1.675.084.067.25.225.5.475.25.25.6.592 1.05 1.025a9.836 9.836 0 0 1-.624.775c-.25.283-.55.592-.9.925Zm-3.725.375c-.367-.3-.692-.583-.975-.85a9.374 9.374 0 0 1-.7-.675c.233-.2.483-.442.75-.725.266-.283.558-.608.874-.975.067.083.225.25.475.5.267.25.617.583 1.05 1-.15.25-.35.517-.6.8-.25.283-.541.592-.874.925Z"/><path fill="#4D4D4D" d="M68.681 19.04c-.15 0-.224-.075-.224-.225v-1.45c0-.15.075-.225.225-.225.466 0 .874-.008 1.224-.025s.659-.042.925-.075c-.616-.683-.925-1.4-.925-2.15 0-.283.025-.6.075-.95.05-.367.109-.7.175-1 .067-.317.134-.533.2-.65a5.103 5.103 0 0 1 2.4-2.275 3.86 3.86 0 0 1 1.55-.325c.434 0 .85.208 1.25.625.4.417.725.983.975 1.7.267.7.4 1.417.4 2.15 0 1.05-.358 2-1.075 2.85.267.033.626.067 1.076.1.45.017.983.025 1.6.025.15 0 .225.067.225.2v1.5c0 .133-.076.2-.226.2-2.066 0-3.775-.267-5.125-.8-.566.283-1.233.492-2 .625-.75.117-1.658.175-2.725.175Zm4.725-2.575c.95-.35 1.8-.858 2.55-1.525-.05-.417-.191-.875-.425-1.375a4.963 4.963 0 0 0-.75-1.25c-.3-.333-.533-.5-.7-.5-.316 0-.675.133-1.075.4-.4.25-.8.592-1.2 1.025a6.96 6.96 0 0 0-.974 1.425c.35.4.733.75 1.15 1.05.433.3.908.55 1.424.75Zm.3-8.25c-.733-.55-1.333-1.092-1.8-1.625a55.156 55.156 0 0 0 1.75-1.825l.8.85c.284.267.567.525.85.775a8.885 8.885 0 0 1-.7.875c-.266.3-.566.617-.9.95Z"/><path fill="#4D4D4D" d="M69.103 19.04c-1 0-1.817-.192-2.45-.575-.617-.383-.975-.917-1.075-1.6l-.1-.525-.9 1.725a95.45 95.45 0 0 0-1.425-.15 5.8 5.8 0 0 1-.825-.175 11.977 11.977 0 0 1-1.7-.7 6.87 6.87 0 0 1-.925-.625c-.267-.233-.4-.45-.4-.65 0-.15.05-.375.15-.675a14.4 14.4 0 0 1 .375-.925c.15-.317.275-.558.375-.725.133-.233.341-.492.625-.775.433-.417.983-.833 1.65-1.25a11.687 11.687 0 0 1 2.075-1.075l-.1-.675c.2-.183.4-.35.6-.5.2-.15.4-.292.6-.425.216-.133.425-.258.625-.375.033 1.35.075 2.7.125 4.05.05 1.35.083 2.7.1 4.05.783.45 1.65.675 2.6.675.15 0 .225.067.225.2v1.5c0 .133-.075.2-.225.2Zm-3.675-3c-.1-.65-.209-1.317-.325-2-.1-.7-.209-1.392-.325-2.075-1.984.667-3.4 1.542-4.25 2.625.45.4.933.7 1.45.9.533.2 1.091.342 1.675.425.283.033.575.058.875.075l.9.05Zm-14.444 8.1c-.266 0-.608-.075-1.025-.225-.4-.15-.808-.333-1.225-.55a7.49 7.49 0 0 1-1.025-.625l.325-.825c.467.083.892.15 1.275.2.4.05.767.075 1.1.075 1.25 0 2.317-.375 3.2-1.125.9-.75 1.584-1.833 2.05-3.25a11.036 11.036 0 0 0-.375-.775 8.93 8.93 0 0 0-.4-.8c-.566-1.017-.983-1.825-1.25-2.425-.266-.617-.4-1.133-.4-1.55 0-.433.125-.775.375-1.025.25-.267.609-.508 1.075-.725.067.267.167.592.3.975.134.383.275.775.425 1.175.15.383.284.742.4 1.075.217.583.4 1.158.55 1.725.15.567.225 1.083.225 1.55 0 1.3-.25 2.5-.75 3.6-.483 1.117-1.15 1.983-2 2.6a4.805 4.805 0 0 1-2.85.925Zm-5.095-4.65a22.157 22.157 0 0 1-3.025-.575 14.203 14.203 0 0 1-2.5-.975 8.172 8.172 0 0 1-2.1.85c-.733.167-1.567.25-2.5.25-.133 0-.2-.067-.2-.2v-1.525c0-.117.067-.175.2-.175.583 0 1.117-.025 1.6-.075.483-.05.908-.133 1.275-.25-1.033-.9-1.55-1.883-1.55-2.95 0-.517.092-1.042.275-1.575.2-.55.467-1.042.8-1.475.333-.45.708-.775 1.125-.975l.575-1.625c1.417.4 2.675 1.008 3.775 1.825 1.117.8 1.983 1.733 2.6 2.8.633 1.083.95 2.183.95 3.3 0 .367-.125.858-.375 1.475a11.48 11.48 0 0 1-.925 1.875Zm-5.4-3.575c.433-.333.75-.717.95-1.15.217-.433.325-.933.325-1.5 0-.483-.158-.925-.475-1.325-.3-.417-.633-.625-1-.625-.267 0-.558.108-.875.325-.3.217-.583.517-.85.9a3.2 3.2 0 0 0-.35.625 29.47 29.47 0 0 0-.25.675c.383.417.783.8 1.2 1.15.433.333.875.642 1.325.925Zm5.35 1.75c0-.733-.142-1.5-.425-2.3a9.372 9.372 0 0 0-1.175-2.3 9.11 9.11 0 0 0-.775-.95c-.25-.3-.517-.567-.8-.8.367.667.55 1.342.55 2.025 0 1.233-.417 2.333-1.25 3.3.567.25 1.175.458 1.825.625.65.167 1.333.3 2.05.4Z"/><path fill="#4D4D4D" d="M36.21 19.04c-1 0-1.816-.192-2.45-.575-.616-.383-.975-.917-1.075-1.6l-.1-.525-.9 1.725a95.45 95.45 0 0 0-1.425-.15 5.794 5.794 0 0 1-.825-.175 11.962 11.962 0 0 1-1.7-.7 6.86 6.86 0 0 1-.925-.625c-.266-.233-.4-.45-.4-.65 0-.15.05-.375.15-.675.117-.317.242-.625.375-.925.15-.317.275-.558.375-.725.134-.233.342-.492.625-.775.434-.417.984-.833 1.65-1.25a11.68 11.68 0 0 1 2.075-1.075l-.1-.675c.2-.183.4-.35.6-.5.2-.15.4-.292.6-.425.217-.133.425-.258.625-.375.034 1.35.075 2.7.125 4.05.05 1.35.084 2.7.1 4.05.784.45 1.65.675 2.6.675.15 0 .225.067.225.2v1.5c0 .133-.075.2-.225.2Zm-3.675-3a123.9 123.9 0 0 0-.325-2c-.1-.7-.208-1.392-.325-2.075-1.983.667-3.4 1.542-4.25 2.625.45.4.933.7 1.45.9.534.2 1.092.342 1.675.425.284.033.575.058.875.075l.9.05Zm-14.459 3c-.134 0-.2-.067-.2-.2v-1.5c0-.133.066-.2.2-.2.766 0 1.541-.083 2.325-.25.8-.183 1.5-.408 2.1-.675-.117-.383-.25-.8-.4-1.25-.15-.467-.317-.967-.5-1.5a18.13 18.13 0 0 1-.375-1.05 3.063 3.063 0 0 1-.1-.625c0-.367.141-.742.424-1.125.3-.383.7-.708 1.2-.975.034.233.1.592.2 1.075.1.467.226 1.067.376 1.8.133.55.224 1.042.274 1.475.067.417.1.775.1 1.075 0 .25-.083.608-.25 1.075-.15.45-.366.942-.65 1.475-1.516.917-3.091 1.375-4.724 1.375ZM21.5 7.99c-.733-.55-1.333-1.092-1.8-1.625a55.437 55.437 0 0 0 1.75-1.825l.8.85c.284.267.567.525.85.775a8.9 8.9 0 0 1-.7.875c-.266.3-.566.617-.9.95Z"/><path fill="#4D4D4D" d="M6.591 19.04c-1.366 0-2.491-.133-3.375-.4-.883-.267-1.541-.658-1.975-1.175-.433-.533-.65-1.183-.65-1.95a5.5 5.5 0 0 1 .025-.525 6.8 6.8 0 0 1 .125-.55 4.85 4.85 0 0 1 .175-.525h.9a5.175 5.175 0 0 0-.1 1.025c0 .383.092.717.275 1 .2.283.492.508.875.675.384.167.9.3 1.55.4.667.083 1.459.125 2.375.125.7 0 1.367-.017 2-.05.65-.05 1.267-.125 1.85-.225a14.23 14.23 0 0 0 1.7-.45c.55-.2 1.092-.45 1.625-.75a6.235 6.235 0 0 0-.8-1.55 7.5 7.5 0 0 0-1.325-1.425 13.708 13.708 0 0 0-1.4-.975 13.43 13.43 0 0 0-1.7-.95c-.716-.35-1.25-.675-1.6-.975-.35-.317-.525-.692-.525-1.125 0-.317.034-.583.1-.8a1.48 1.48 0 0 1 .4-.6c.134-.133.45-.342.95-.625a41.62 41.62 0 0 1 2.075-1.075c.45-.217.859-.4 1.225-.55.367-.167.775-.342 1.225-.525.467-.2 1.042-.433 1.725-.7.684-.283 1.559-.65 2.625-1.1.134.117.234.267.3.45.067.167.1.333.1.5-.05.367-.15.667-.3.9-.133.217-.391.4-.775.55-.933.383-1.875.775-2.825 1.175-.933.4-1.875.8-2.825 1.2-.933.383-1.875.767-2.825 1.15 1.2.317 2.35.817 3.45 1.5 1.117.683 2.009 1.458 2.675 2.325.7.9 1.05 1.733 1.05 2.5 0 .167-.016.333-.05.5a2.66 2.66 0 0 1-.1.5c1 .8 2.15 1.2 3.45 1.2.15 0 .225.067.225.2v1.5c0 .133-.075.2-.225.2-.8 0-1.566-.142-2.3-.425-.716-.3-1.366-.767-1.95-1.4-.616.617-1.55 1.075-2.8 1.375-1.233.3-2.775.45-4.625.45Zm-.5-12.5a14.496 14.496 0 0 1-.15-.7 2.622 2.622 0 0 1-.05-.45c0-.083.017-.142.05-.175.717-.35 1.492-.717 2.325-1.1.85-.4 1.759-.808 2.725-1.225a201.61 201.61 0 0 0 3.075-1.4c.984-.45 1.909-.875 2.775-1.275.267.2.4.45.4.75-.05.267-.125.475-.225.625-.083.133-.25.25-.5.35l-3.075 1.35c-1.166.483-2.366 1-3.6 1.55-1.216.55-2.466 1.117-3.75 1.7Z"/></svg>