<svg xmlns="http://www.w3.org/2000/svg" width="117" height="22"><path fill="#4D4D4D" d="M106.023 16.304v-.55c0-.095.063-.157.188-.188l.48-.059c.43-.047.715-.137.856-.27.148-.14.222-.386.222-.738V7.855c0-.336-.082-.586-.246-.75-.156-.172-.433-.274-.832-.305l-.48-.047c-.125-.031-.188-.094-.188-.187v-.563l.047-.047c1.149.031 2.02.047 2.613.047l2.403-.047.047.047v.504c0 .156-.075.238-.223.246-.43.047-.746.137-.949.27-.196.125-.293.386-.293.785v2.636c.797 0 1.414-.187 1.851-.562.446-.375.813-.93 1.102-1.664.656-1.617 1.488-2.426 2.496-2.426.867 0 1.297.36 1.289 1.078a.872.872 0 0 1-.293.645.931.931 0 0 1-.668.27c-.25 0-.48-.071-.691-.212a1.145 1.145 0 0 0-.551-.175c-.141 0-.313.125-.516.375s-.375.55-.515.902c-.414 1.117-1.047 1.797-1.899 2.039v.094c1.391 0 2.328.566 2.813 1.699.898 1.984 1.679 3.027 2.343 3.129l.223.023c.18 0 .266.07.258.211v.434l-.07.047-1.817-.024c-.961-.015-1.769-.926-2.426-2.73-.273-.75-.609-1.309-1.007-1.676-.399-.375-1.039-.586-1.922-.633v3.258c0 .563.441.902 1.324 1.02.125.03.187.093.187.187v.55l-.046.048a79.076 79.076 0 0 0-2.45-.047l-2.613.047-.047-.047Zm-2.772-10.301v8.426c0 .351.075.61.223.773.156.156.426.258.809.305l.457.059c.14.015.215.078.222.187v.55l-.058.048a97.262 97.262 0 0 0-2.59-.047l-2.473.047-.047-.047v-.55c0-.11.067-.173.2-.188l.457-.059c.382-.047.648-.149.797-.305.156-.164.234-.422.234-.773V7.855c0-.352-.078-.602-.234-.75-.149-.157-.415-.258-.797-.305l-.457-.047c-.125-.016-.192-.078-.2-.187v-.563l.047-.047c1.086.031 1.91.047 2.473.047l.891-.047.046.047Zm-2.226-4.078c0-.29.133-.55.398-.785.274-.242.555-.364.844-.364.305 0 .57.133.797.399.234.266.352.547.352.844 0 .273-.129.535-.387.785-.25.25-.535.375-.856.375-.289 0-.554-.133-.797-.399-.234-.265-.351-.55-.351-.855Zm-6.487 12.433v-3.14h-5.18v3.14c0 .461.063.762.188.903.133.133.414.215.844.246l.504.059c.093 0 .14.046.14.14v.598l-.047.047a87.831 87.831 0 0 0-2.613-.047c-.781 0-1.683.016-2.707.047l-.023-.047v-.621c0-.078.039-.117.117-.117l.645-.059c.46-.031.75-.113.867-.246.125-.133.187-.434.187-.902V7.924c0-.445-.07-.734-.21-.867-.133-.14-.415-.227-.844-.258l-.645-.047c-.078 0-.117-.039-.117-.117v-.633l.047-.047c1.023.031 1.918.047 2.683.047.735 0 1.614-.016 2.637-.047l.023.047v.61c0 .093-.047.14-.14.14l-.504.047c-.445.031-.73.11-.856.234-.117.117-.175.414-.175.89v2.474h5.18V7.925c0-.445-.067-.734-.2-.867-.133-.14-.41-.227-.832-.258l-.668-.047c-.078 0-.117-.039-.117-.117v-.633l.047-.047c1.023.031 1.926.047 2.707.047.734 0 1.617-.016 2.648-.047l.024.047v.61c0 .093-.051.14-.153.14l-.527.047c-.445.031-.73.11-.856.234-.117.117-.175.414-.175.89v6.434c0 .461.062.762.187.903.133.133.414.215.844.246l.527.059c.094 0 .145.046.153.14v.598l-.059.047a87.832 87.832 0 0 0-2.613-.047c-.797 0-1.707.016-2.73.047l-.024-.047v-.621c0-.078.039-.117.117-.117l.668-.059c.461-.031.746-.113.855-.246.118-.14.176-.441.176-.902ZM82.122 2.405c0 .641-.289 1.149-.867 1.524-.578.375-1.266.562-2.063.562-.796 0-1.476-.191-2.039-.574-.562-.383-.843-.887-.843-1.512a.71.71 0 0 1 .257-.562c.18-.149.407-.223.68-.223.258 0 .457.067.598.2a.66.66 0 0 1 .222.515.73.73 0 0 1-.023.2.61.61 0 0 0-.023.187c0 .273.109.515.328.726.226.203.515.305.867.305.336 0 .617-.098.844-.293.234-.203.351-.441.351-.715a.843.843 0 0 0-.023-.222.403.403 0 0 1-.024-.164c0-.211.082-.387.246-.528a.916.916 0 0 1 .598-.21c.29 0 .512.07.668.21.164.14.246.332.246.574Zm-4.535 17.743c-.64 1.148-1.418 1.722-2.332 1.722-.32 0-.59-.086-.809-.258a.767.767 0 0 1-.316-.632c0-.211.098-.438.293-.68a.967.967 0 0 1 .762-.352c.078 0 .183.012.316.035.14.024.266.036.375.036.547 0 .95-.23 1.207-.692.383-.781.695-1.515.938-2.203.195-.547.082-1.3-.34-2.262l-2.72-6.316c-.233-.539-.425-.918-.573-1.137a1.272 1.272 0 0 0-.493-.468c-.18-.094-.453-.157-.82-.188-.062-.062-.094-.187-.094-.375 0-.195.032-.336.094-.422.64.031 1.29.047 1.945.047.626 0 1.528-.016 2.708-.047.062.078.093.215.093.41 0 .196-.031.325-.093.387a2.969 2.969 0 0 0-.668.117 1.055 1.055 0 0 0-.352.164c-.078.055-.113.153-.105.293.015.133.043.254.082.364.039.101.105.265.199.492.023.054.043.097.058.129l2.133 4.992a.946.946 0 0 0 .14.258c.055.054.106.082.153.082a.266.266 0 0 0 .14-.082.96.96 0 0 0 .141-.235l2.38-5.496c.179-.383.152-.644-.083-.785-.234-.148-.593-.246-1.078-.293-.078-.062-.117-.187-.117-.375 0-.195.039-.336.117-.422 1.188.031 1.918.047 2.192.047.335 0 .902-.016 1.699-.047.078.078.117.215.117.41 0 .196-.04.325-.117.387-.414.031-.793.2-1.137.504a3.498 3.498 0 0 0-.808 1.031c-1.024 2.14-2.438 5.406-4.243 9.797a21.635 21.635 0 0 1-.984 2.063Zm-15.604-8.766c0-1.586.442-2.898 1.324-3.938.953-1.117 2.207-1.675 3.762-1.675 1.148 0 2.117.285 2.906.855.797.563 1.352 1.238 1.664 2.027a6.72 6.72 0 0 1 .47 2.52c0 1.672-.52 3.016-1.56 4.031-.914.899-2.09 1.344-3.527 1.336-1.601 0-2.844-.52-3.726-1.558a5.421 5.421 0 0 1-1.313-3.598Zm4.723-4.77c-1.774 0-2.66 1.407-2.66 4.22 0 .515.058 1.038.175 1.57.125.523.305 1.043.54 1.558.242.508.585.926 1.03 1.254.454.328.977.492 1.571.492.703 0 1.324-.289 1.863-.867.547-.578.82-1.547.82-2.906 0-1.711-.296-3.024-.89-3.938-.594-.922-1.41-1.383-2.45-1.383Zm-18.03 8.59c0-.273.082-.508.246-.703a.86.86 0 0 1 .692-.305c.492 0 .789.305.89.914.047.336.2.504.457.504.461 0 .836-.394 1.125-1.183.352-1.024.528-2.63.528-4.817 0-1.28-.074-2.07-.223-2.367-.14-.297-.562-.46-1.265-.492l-.352-.035c-.07-.008-.121-.027-.152-.059-.032-.03-.047-.09-.047-.175v-.481l.093-.047a90.83 90.83 0 0 0 2.59.047h4.418l2.813-.047.07.047v.586c0 .11-.062.164-.187.164l-.727.047c-.477.031-.77.101-.879.21-.101.102-.152.376-.152.821v6.598c0 .351.078.613.234.785.164.164.446.262.844.293l.48.059c.141 0 .215.062.223.187v.55l-.047.048a105.97 105.97 0 0 0-2.719-.047l-2.636.047-.047-.047v-.55c0-.095.062-.157.187-.188l.48-.059c.43-.047.72-.149.868-.305.156-.164.234-.422.234-.773V8.1c0-.43-.062-.73-.187-.903-.125-.172-.406-.257-.844-.257H54.56c-.445 0-.73.164-.855.492-.118.328-.176.996-.176 2.004 0 2.492-.207 4.238-.621 5.238-.29.672-.621 1.16-.996 1.465-.375.305-.86.457-1.453.457-.532 0-.961-.137-1.29-.41-.328-.274-.492-.602-.492-.985Zm-.568-1.078c-.563.93-1.157 1.567-1.782 1.91-.617.336-1.328.504-2.132.504-1.485 0-2.649-.472-3.493-1.418-.836-.953-1.254-2.222-1.254-3.808 0-1.618.504-2.946 1.512-3.985 1.008-1.039 2.145-1.558 3.41-1.558 1.133 0 2.028.21 2.684.632.656.422.984.97.984 1.641 0 .336-.125.598-.375.785-.25.188-.515.282-.797.282-.546 0-.851-.29-.914-.868-.03-.351-.086-.625-.164-.82-.07-.203-.234-.395-.492-.574-.25-.188-.601-.281-1.055-.281-.796 0-1.453.378-1.968 1.136-.508.758-.762 1.785-.762 3.082 0 1.375.313 2.485.938 3.328.624.836 1.382 1.254 2.273 1.254 1.102 0 2.062-.527 2.883-1.582.258.032.425.145.504.34ZM36.605 6.003v8.426c0 .351.075.61.223.773.156.156.426.258.809.305l.457.059c.14.015.215.078.222.187v.55l-.058.048a97.222 97.222 0 0 0-2.59-.047l-2.473.047-.047-.047v-.55c0-.11.067-.173.2-.188l.457-.059c.383-.047.648-.149.797-.305.156-.164.234-.422.234-.773V7.855c0-.352-.078-.602-.234-.75-.149-.157-.414-.258-.797-.305l-.457-.047c-.125-.016-.192-.078-.2-.187v-.563l.047-.047c1.086.031 1.91.047 2.473.047l.89-.047.047.047ZM34.38 1.925c0-.29.133-.55.398-.785.274-.242.555-.364.844-.364.305 0 .57.133.797.399.234.266.352.547.352.844 0 .273-.13.535-.387.785-.25.25-.535.375-.856.375-.289 0-.554-.133-.797-.399-.234-.265-.351-.55-.351-.855ZM21.06 16.304v-.55c0-.095.063-.157.188-.188l.48-.059c.43-.047.715-.137.856-.27.148-.14.222-.386.222-.738V7.855c0-.336-.082-.586-.246-.75-.156-.172-.433-.274-.832-.305l-.48-.047c-.125-.031-.188-.094-.188-.187v-.563l.047-.047c1.149.031 2.02.047 2.614.047l2.402-.047.047.047v.504c0 .156-.075.238-.223.246-.43.047-.746.137-.95.27-.195.125-.292.386-.292.785v2.636c.797 0 1.414-.187 1.851-.562.446-.375.813-.93 1.102-1.664.656-1.617 1.488-2.426 2.496-2.426.867 0 1.297.36 1.29 1.078a.87.87 0 0 1-.294.645.932.932 0 0 1-.668.27c-.25 0-.48-.071-.691-.212a1.142 1.142 0 0 0-.551-.175c-.14 0-.313.125-.516.375s-.375.55-.515.902c-.414 1.117-1.047 1.797-1.899 2.039v.094c1.39 0 2.328.566 2.813 1.699.898 1.984 1.68 3.027 2.344 3.129l.222.023c.18 0 .266.07.258.211v.434l-.07.047-1.817-.024c-.96-.015-1.77-.926-2.425-2.73-.274-.75-.61-1.309-1.008-1.676-.399-.375-1.04-.586-1.922-.633v3.258c0 .563.441.902 1.324 1.02.125.03.188.093.188.187v.55l-.047.048a79.053 79.053 0 0 0-2.45-.047l-2.613.047-.047-.047ZM18.289 6.003v8.426c0 .351.074.61.222.773.157.156.426.258.809.305l.457.059c.14.015.215.078.223.187v.55l-.059.048a97.215 97.215 0 0 0-2.59-.047l-2.472.047-.047-.047v-.55c0-.11.066-.173.199-.188l.457-.059c.383-.047.648-.149.797-.305.156-.164.234-.422.234-.773V7.855c0-.352-.078-.602-.234-.75-.149-.157-.414-.258-.797-.305l-.457-.047c-.125-.016-.192-.078-.2-.187v-.563l.048-.047c1.085.031 1.91.047 2.472.047l.89-.047.048.047Zm-2.227-4.078c0-.29.133-.55.399-.785.273-.242.554-.364.843-.364.305 0 .57.133.797.399.235.266.352.547.352.844 0 .273-.13.535-.387.785-.25.25-.535.375-.855.375-.29 0-.555-.133-.797-.399-.235-.265-.352-.55-.352-.855Zm-11.619.703v4.887h1.781c2.273 0 3.41-.918 3.41-2.754 0-1.102-.312-1.902-.937-2.402a3.338 3.338 0 0 0-2.168-.762c-.688 0-1.18.035-1.477.105-.289.07-.465.168-.527.293-.055.117-.082.328-.082.633Zm0 5.707v5.613c0 1.07.664 1.61 1.992 1.618 1.68 0 2.82-.286 3.422-.856.601-.57.902-1.36.902-2.367 0-1.172-.39-2.133-1.172-2.883-.773-.75-1.937-1.125-3.492-1.125H4.443ZM3.412.823c.351 0 .87-.007 1.558-.023A74.297 74.297 0 0 1 6.412.776c3.437 0 5.156 1.231 5.156 3.692 0 .625-.219 1.226-.656 1.805A4.564 4.564 0 0 1 9.293 7.62v.047c1.117.32 2.012.832 2.684 1.535.672.703 1.008 1.598 1.008 2.684a4.35 4.35 0 0 1-.293 1.594c-.188.492-.496.964-.926 1.418-.43.445-1.059.8-1.887 1.066-.82.258-1.8.387-2.941.387-.797 0-1.516-.008-2.156-.024a68.332 68.332 0 0 0-1.348-.023c-.516 0-1.555.016-3.117.047C.24 16.288.2 16.163.2 15.976c0-.196.039-.332.117-.41.898-.032 1.468-.165 1.71-.399.25-.234.376-.832.376-1.793V3.753c0-.96-.125-1.555-.375-1.781-.242-.235-.813-.367-1.711-.399C.24 1.511.2 1.382.2 1.187.2.99.24.855.318.777c1.601.03 2.633.046 3.094.046Z"/></svg>