<svg xmlns="http://www.w3.org/2000/svg" width="120" height="13"><defs><clipPath id="a"><path fill="#fff" d="M0 0h120v13H0z"/></clipPath></defs><g clip-path="url(#a)"><path fill="#fff" d="M0 0h120v13H0z"/><path fill="gray" d="m0 12.225.093-.48.155-.008.526-.039c.3-.02.498-.07.596-.147.098-.083.186-.271.264-.565l.2-.767 1.487-7.447.109-.767c.036-.294.023-.482-.039-.565-.062-.083-.24-.134-.534-.155l-.519-.03-.14-.016.094-.473h3.67L6.603.76l.565-.024.557-.007c1.797 0 3.077.475 3.84 1.424.77.95.976 2.315.62 4.096-.367 1.847-1.151 3.306-2.354 4.374-1.197 1.068-2.645 1.603-4.343 1.603H0Zm5.249-10.94L3.461 10.22l-.093.604c-.067.33.018.56.255.69.238.123.697.185 1.378.185 2.922 0 4.728-1.737 5.42-5.21.366-1.838.24-3.164-.38-3.98-.614-.815-1.804-1.223-3.569-1.223H5.25Zm11.512 2.532-1.277 6.402c-.124.61-.158 1.004-.1 1.185.056.175.247.273.572.294l.519.039.14.008-.094.48h-4.397l.093-.48.155-.008.526-.039c.3-.02.498-.07.596-.147.098-.083.186-.271.263-.565l.202-.767.875-4.397.108-.759c.036-.294.023-.482-.039-.565-.062-.083-.24-.134-.534-.155l-.51-.038-.148-.008.093-.48h2.957Zm-1.215-1.525.302-1.526h1.525l-.302 1.526h-1.525Zm8.47 9.646c-.868.32-1.686.48-2.455.48-1.228 0-2.142-.41-2.74-1.23-.6-.822-.767-1.89-.504-3.206.259-1.311.834-2.364 1.727-3.159.893-.795 1.943-1.192 3.15-1.192.646 0 1.449.126 2.409.38L25.2 6.014h-.952l.023-.139c.232-1.156-.155-1.734-1.161-1.734-.749 0-1.41.335-1.982 1.006-.568.671-.968 1.58-1.2 2.726-.233 1.171-.158 2.095.224 2.771.382.676 1.017 1.014 1.905 1.014.764 0 1.463-.129 2.098-.387l-.14.666Zm6.356.24c-.419.16-.803.24-1.154.24-.893 0-1.5-.224-1.82-.673-.32-.45-.381-1.164-.185-2.145l1.03-5.156h-1.24l.125-.627h1.238l.31-1.525 1.603-.38-.38 1.905h2.338l-.123.627h-2.338L28.707 9.8c-.16.78-.18 1.309-.062 1.587.124.274.431.41.922.41.242 0 .552-.08.928-.24l-.123.62Zm1.796-.387.425-2.137h.86l-.008.147-.1.806c-.047.397.092.72.418.967.33.243.782.364 1.354.364.47 0 .88-.14 1.231-.418.357-.284.578-.648.666-1.092.145-.702-.201-1.225-1.037-1.571l-.72-.302c-1.471-.614-2.098-1.471-1.881-2.57.139-.682.523-1.244 1.153-1.688.635-.444 1.373-.666 2.214-.666.82 0 1.639.157 2.454.472l-.402 2.005h-.86l.032-.139.07-.704c.082-.775-.347-1.162-1.286-1.162-.45 0-.852.145-1.208.434-.35.284-.57.645-.658 1.084-.072.36-.01.653.186.874.196.217.625.473 1.285.767l.658.294c.712.32 1.187.653 1.425.999.242.34.31.782.201 1.324-.15.743-.57 1.352-1.262 1.827-.686.475-1.5.712-2.439.712-1.027 0-1.95-.209-2.771-.627ZM43.92 3.817l-1.277 6.402c-.124.61-.158 1.004-.101 1.185.057.175.248.273.573.294l.518.039.14.008-.093.48h-4.397l.093-.48.154-.008.527-.039c.3-.02.498-.07.596-.147.098-.083.186-.271.263-.565l.201-.767.875-4.397.109-.759c.036-.294.023-.482-.04-.565-.061-.083-.24-.134-.533-.155l-.511-.038-.147-.008.093-.48h2.957Zm-1.215-1.525.302-1.526h1.525l-.302 1.526h-1.525Zm5.837 10.126c-1.213 0-2.098-.395-2.656-1.184-.552-.795-.691-1.866-.418-3.213.269-1.358.84-2.429 1.711-3.213.878-.785 1.936-1.177 3.174-1.177 1.24 0 2.137.392 2.695 1.177.562.784.71 1.85.441 3.197-.273 1.378-.849 2.46-1.726 3.244-.878.78-1.951 1.17-3.221 1.17Zm.116-.48c.707 0 1.363-.369 1.966-1.107.604-.738 1.02-1.68 1.247-2.826.222-1.11.178-2.036-.132-2.78-.304-.748-.797-1.122-1.478-1.122-.682 0-1.324.374-1.928 1.123-.604.743-1.017 1.675-1.239 2.795-.227 1.114-.19 2.046.109 2.794.299.749.784 1.123 1.455 1.123Zm9.375-6.542c1.012-1.177 2.142-1.765 3.392-1.765.722 0 1.24.237 1.556.712.314.475.39 1.128.224 1.959l-.782 3.917-.1.767c-.042.294-.031.482.03.565.068.077.248.126.542.147l.52.039.13.008-.092.48h-4.39l.093-.48.147-.008.534-.039c.295-.02.49-.07.589-.147.103-.083.193-.271.27-.565l.202-.767.735-3.677c.145-.723.15-1.223.016-1.502-.129-.284-.434-.426-.913-.426-.692 0-1.626.431-2.803 1.293l-.86 4.312c-.123.61-.157 1.004-.1 1.185.057.175.248.273.573.294l.519.039.139.008-.093.48h-4.397l.093-.48.154-.008.527-.039c.3-.02.498-.07.596-.147.098-.083.186-.271.263-.565l.201-.767.875-4.397.109-.759c.036-.294.023-.482-.04-.565-.061-.083-.24-.134-.533-.155l-.511-.038-.147-.008.093-.48h2.957l-.318 1.58Zm11.621 5.675c-1.089.898-2.077 1.347-2.965 1.347-.712 0-1.262-.224-1.649-.673-.382-.455-.506-1.022-.372-1.704.372-1.858 2.065-2.787 5.08-2.787h.316l.21-1.045c.268-1.326-.101-1.99-1.108-1.99-1 0-1.651.504-1.95 1.51l-.04.147H66.14l.31-1.54c1.166-.47 2.204-.705 3.112-.705 1.838 0 2.589.839 2.253 2.516l-.75 3.747c-.243 1.218-.104 1.827.417 1.827.098 0 .24-.023.426-.07l-.07.574c-.392.129-.735.193-1.03.193-.748 0-1.132-.449-1.153-1.347Zm-.317-.17.635-3.167h-.356c-1.91 0-3.004.697-3.283 2.09-.098.486-.023.888.224 1.208.248.32.607.48 1.076.48.45 0 1.017-.204 1.704-.611Zm7.2-4.793-.82 4.111c-.125.61-.158 1.004-.102 1.185.057.175.248.273.573.294l.52.039.324.008-.093.48h-4.583l.093-.48.155-.008.526-.039c.3-.02.498-.07.597-.147.097-.083.185-.271.263-.565l.201-.767.875-4.397.108-.759c.036-.294.023-.482-.039-.565-.062-.083-.24-.134-.534-.155l-.51-.038-.148-.008.093-.48h2.957l-.317 1.58c.934-1.178 1.964-1.766 3.09-1.766.154 0 .322.028.502.085l-.464 2.3h-.86l.016-.14.047-.58c.03-.274-.08-.41-.334-.41-.769 0-1.48.407-2.136 1.222ZM89.559 0l-2.044 10.22c-.124.608-.158 1.003-.1 1.184.056.175.247.273.572.294l.519.039.14.008-.094.48h-4.397l.093-.48.155-.008.526-.039c.3-.02.498-.07.596-.147.098-.083.186-.271.263-.565l.202-.767 1.641-8.214.108-.766c.036-.294.021-.48-.046-.558-.062-.082-.24-.134-.534-.155l-.511-.038L86.5.48l.1-.48h2.958Zm4.22 3.817L92.5 10.219c-.124.61-.158 1.004-.101 1.185.057.175.248.273.573.294l.519.039.139.008-.093.48H89.14l.093-.48.154-.008.527-.039c.3-.02.498-.07.596-.147.098-.083.186-.271.263-.565l.201-.767.875-4.397.109-.759c.036-.294.023-.482-.039-.565-.062-.083-.24-.134-.534-.155l-.511-.038-.147-.008.093-.48h2.957Zm-1.216-1.525.302-1.526h1.525l-.302 1.526h-1.525Zm2.376 10.025L97 2.005l.108-.766c.036-.294.02-.48-.046-.558-.062-.082-.24-.134-.535-.155l-.51-.038-.148-.008.101-.48h2.958l-1.084 5.396c.996-1.177 2.1-1.765 3.313-1.765.95 0 1.631.374 2.044 1.123.413.748.493 1.754.24 3.019-.279 1.404-.826 2.529-1.641 3.375-.816.847-1.758 1.27-2.826 1.27-.986 0-1.752-.382-2.3-1.146h-.092l-.403 1.045H94.94Zm1.85-1.649c.692.6 1.41.899 2.153.899 1.409 0 2.338-1.126 2.787-3.376.48-2.385.036-3.577-1.332-3.577-.918 0-1.803.439-2.655 1.316l-.952 4.738Zm14.285 1.177c-1.048.382-1.972.573-2.772.573-1.234 0-2.155-.415-2.764-1.246-.604-.831-.772-1.91-.503-3.237.253-1.264.805-2.296 1.657-3.096.851-.805 1.819-1.208 2.903-1.208 1.006 0 1.711.338 2.113 1.014.403.676.478 1.641.225 2.896l-.031.147h-5.133c-.526 2.637.116 3.956 1.928 3.956.944 0 1.788-.194 2.531-.58l-.154.781Zm-4.173-4.637h3.484l.069-.34c.372-1.843.021-2.765-1.053-2.765-.578 0-1.094.282-1.548.844-.449.563-.767 1.316-.952 2.26Zm9.367-1.1-.82 4.111c-.124.61-.158 1.004-.101 1.185.057.175.248.273.573.294l.519.039.325.008-.093.48h-4.583l.093-.48.154-.008.527-.039c.299-.02.498-.07.596-.147.098-.083.186-.271.263-.565l.202-.767.874-4.397.109-.759c.036-.294.023-.482-.039-.565-.062-.083-.24-.134-.534-.155l-.511-.038-.147-.008.093-.48h2.957l-.317 1.58c.934-1.178 1.964-1.766 3.089-1.766.155 0 .322.028.503.085l-.465 2.3h-.859l.016-.14.046-.58c.031-.274-.08-.41-.333-.41-.769 0-1.481.407-2.137 1.222Z"/></g></svg>