<svg viewBox="0 0 114 15" xmlns="http://www.w3.org/2000/svg"><path d="M4.548 14.944 1.697 3.404c-.271-1.06-.445-1.64-.524-1.74-.078-.1-.406-.15-.984-.149L0 1.496v-.57h4.783v.57h-.171c-.584 0-.954.031-1.11.094-.156.062-.235.206-.235.43 0 .206.087.667.262 1.384l1.976 8.052L8.582 1.094h.632l3.078 10.65 2.31-8.332c.259-.948.388-1.48.388-1.59 0-.217-.469-.326-1.408-.327h-.162v-.57h3.673v.57l-.163.019c-.644.037-1 .097-1.07.178-.068.08-.26.652-.572 1.711l-3.267 11.54h-.605L8.266 4.292 5.172 14.943h-.623zM20.892 4.61v7.734c0 .848.067 1.35.199 1.515.132.162.569.268 1.309.318l.171.01v.579h-5.126v-.58l.171-.01c.728-.05 1.16-.156 1.295-.322.135-.165.203-.669.204-1.51V7.032c0-.842-.068-1.34-.204-1.505-.135-.162-.567-.271-1.295-.328l-.171-.01V4.61h3.447zm-1.777-1.842V.925h1.777v1.843h-1.777zm7.445 7.004v2.572c0 .835.062 1.34.185 1.51.123.171.489.28 1.096.323l.172.01v.579h-4.9v-.58l.17-.01c.729-.05 1.16-.156 1.296-.322.135-.165.203-.669.203-1.51V2.422c0-.842-.068-1.35-.203-1.51-.135-.166-.567-.274-1.295-.323l-.172-.01V0h3.448v9.315h.424l2.274-2.263c.975-1.03 1.46-1.58 1.462-1.655 0-.118-.165-.182-.496-.192-.331-.01-.56-.014-.686-.014h-.19v-.58h3.818v.58l-.172.01c-.638.043-1.05.122-1.222.238-.177.115-.742.659-1.692 1.632l-1.715 1.748 2.942 3.582c.746.873 1.21 1.38 1.403 1.52.19.14.52.226.988.257l.172.009v.58h-2.753l-4.133-4.994h-.424zm13.808 4.938c-.451.193-.881.29-1.29.29-1.04 0-1.8-.271-2.28-.814-.477-.542-.716-1.41-.717-2.59V5.368h-1.444V4.61h1.444V2.768l1.787-.459V4.61h2.726v.757h-2.726v6.472c0 .873.111 1.49.334 1.86.223.369.602.553 1.137.553.283 0 .626-.097 1.029-.29v.748zm4.53-10.1v7.734c0 .848.067 1.35.199 1.515.132.162.569.268 1.308.318l.172.009v.58H41.45v-.58l.171-.01c.728-.05 1.16-.156 1.295-.322.135-.165.203-.67.203-1.51V7.032c0-.842-.067-1.34-.203-1.506-.135-.162-.567-.27-1.295-.327l-.171-.01v-.58h3.447zM43.12 2.768V.925h1.778v1.843H43.12zM52.353 15c-1.44 0-2.58-.475-3.42-1.427-.837-.95-1.25-2.25-1.255-3.885 0-1.64.418-2.93 1.254-3.881.836-.948 1.98-1.42 3.42-1.421 1.45 0 2.59.474 3.426 1.42.833.949 1.25 2.24 1.25 3.882 0 1.64-.418 2.93-1.255 3.885-.836.951-1.98 1.43-3.42 1.427zm0-.58c.8 0 1.47-.447 1.994-1.342.53-.895.794-2.02.794-3.39 0-1.35-.265-2.48-.794-3.38-.529-.902-1.19-1.35-1.994-1.352-.794 0-1.46.45-1.986 1.351-.529.901-.794 2.03-.794 3.38 0 1.37.263 2.5.79 3.39.526.896 1.19 1.34 1.99 1.343zm9.367-7.902c.451-.711.972-1.24 1.562-1.6a3.763 3.763 0 0 1 1.976-.533c.842 0 1.5.287 1.985.86.475.575.713 1.36.713 2.367v4.732c.042.929.111 1.45.208 1.57.096.119.529.207 1.3.263l.162.009v.58h-5.117v-.58l.162-.01c.77-.055 1.2-.142 1.3-.261.096-.118.165-.642.208-1.571V7.902c0-.873-.11-1.48-.33-1.82-.22-.34-.612-.51-1.178-.509-.397 0-.842.13-1.335.388-.493.26-1.03.65-1.616 1.174v5.209c0 .848.067 1.35.199 1.515.132.162.569.268 1.309.318l.171.009v.58h-5.126v-.58l.171-.01c.728-.05 1.16-.156 1.295-.322.135-.165.203-.669.204-1.51V7.032c0-.842-.068-1.34-.204-1.506-.135-.162-.567-.27-1.295-.327l-.171-.01v-.58h3.447v1.909zm11.696 0c.451-.711.972-1.24 1.562-1.6a3.763 3.763 0 0 1 1.976-.533c.842 0 1.5.287 1.985.86.475.575.713 1.36.713 2.367v4.732c.042.929.111 1.45.208 1.57.096.119.529.207 1.3.263l.162.009v.58h-5.117v-.58l.162-.01c.77-.055 1.2-.142 1.3-.261.096-.118.165-.642.208-1.571V7.902c0-.873-.11-1.48-.33-1.82-.22-.34-.612-.51-1.178-.509-.397 0-.842.13-1.335.388-.493.26-1.03.65-1.616 1.174v5.209c0 .848.067 1.35.199 1.515.132.162.569.268 1.309.318l.171.009v.58h-5.126v-.58l.171-.01c.728-.05 1.16-.156 1.295-.322.135-.165.203-.669.204-1.51V7.032c0-.842-.068-1.34-.204-1.506-.135-.162-.567-.27-1.295-.327l-.171-.01v-.58h3.447v1.909zm14.864 6.854c-1.06 1.08-2.11 1.63-3.14 1.628-.83 0-1.52-.273-2.076-.819-.554-.546-.83-1.23-.83-2.052 0-.96.36-1.74 1.083-2.338.824-.686 2.22-1.03 4.187-1.03h.37V7.5c0-1.6-.587-2.4-1.76-2.403-.548 0-1.03.175-1.453.524-.247.212-.403.645-.469 1.3l-.009.177h-1.21v-1.86c1.25-.568 2.41-.852 3.484-.852 2.13 0 3.19 1.01 3.195 3.04v4.526c0 .81.068 1.38.203 1.711.135.33.372.496.709.496.12 0 .28-.028.478-.084l.054.692c-.427.156-.809.234-1.146.233-.878 0-1.43-.542-1.67-1.627zm-.406-.205V9.342h-.415c-1.05 0-1.87.224-2.455.673-.59.45-.884 1.07-.884 1.852 0 .586.183 1.07.55 1.458.367.387.824.58 1.372.58.517 0 1.13-.246 1.832-.739zm7.274-8.557v7.734c0 .848.066 1.35.199 1.515.132.162.569.268 1.308.318l.172.009v.58H91.7v-.58l.171-.01c.728-.05 1.16-.156 1.295-.322.135-.165.203-.669.203-1.51V7.032c0-.842-.067-1.34-.203-1.506-.135-.162-.567-.27-1.295-.327l-.171-.01v-.58h3.447zM93.37 2.768V.925h1.778v1.843H93.37zm7.446 4.61v4.966c0 .842.07 1.35.212 1.515.14.168.573.274 1.295.318l.388.009v.58h-5.343v-.58l.172-.01c.728-.05 1.16-.156 1.295-.322.135-.165.203-.67.203-1.51V7.032c0-.842-.068-1.34-.203-1.506-.135-.162-.567-.27-1.295-.327l-.172-.01v-.58h3.448v1.909c.812-1.42 1.87-2.13 3.185-2.133.18 0 .382.035.605.103v2.778h-1.002l-.009-.169c-.066-.58-.125-.924-.176-1.033-.05-.11-.188-.164-.41-.164-.89 0-1.62.493-2.193 1.478zM114 14.308c-1.13.46-2.16.691-3.096.691-1.44 0-2.61-.502-3.506-1.505-.899-1-1.35-2.31-1.35-3.91 0-1.52.404-2.77 1.21-3.74.806-.973 1.84-1.46 3.105-1.459 1.17 0 2.07.408 2.693 1.226.63.817.943 1.98.944 3.497v.178h-5.984c0 1.58.266 2.77.799 3.572.532.804 1.32 1.21 2.369 1.206 1.1 0 2.04-.234 2.816-.7v.944zm-5.948-5.602h4.061l.01-.412c0-1.18-.148-2.03-.443-2.553-.295-.524-.776-.786-1.444-.785-.668 0-1.2.34-1.593 1.02-.394.68-.59 1.59-.59 2.73z" fill="#4D4D4D" fill-rule="nonzero"/></svg>