<svg xmlns="http://www.w3.org/2000/svg" version="1.0" viewBox="0 0 128.84 19"><path fill="#4d4d4d" d="M5.97 18.93 2.227 4.313 1.8 2.749q-.189-.817-.852-.817l-.7-.012L0 1.897v-.723h6.278v.723h-.225l-.64.023c-.75 0-1.13.21-1.125.628q0 .404.343 1.765l2.595 10.2 4.039-13.126h.829l4.04 13.492 3.032-10.554c.34-1.17.509-1.84.509-2.002q0-.402-1.03-.403l-.818-.023h-.213v-.723h4.82v.723l-.212.023-.711.024q-.711.036-.936.746l-.51 1.623-4.287 14.617h-.794L10.85 5.438 6.787 18.93zM27.422 5.841v9.796c0 .932.07 1.54.213 1.813q.213.403.96.45l.805.059.225.012v.734h-6.728v-.734l.225-.012.794-.06q.687-.046.864-.224.189-.19.237-.865l.071-1.173V8.91l-.07-1.16q-.049-.675-.238-.865-.178-.189-.864-.237l-.794-.06-.225-.011V5.84zm-2.334-2.333V1.174h2.334v2.334zm9.773 8.872v3.257l.07 1.173q0 .735.238.912.249.167 1.374.237l.225.012v.734h-6.432v-.734l.225-.012.794-.06q.687-.046.864-.224.189-.19.237-.865l.071-1.173V3.07l-.07-1.172q-.048-.675-.238-.853-.178-.189-.864-.237l-.794-.06-.225-.011V0h4.525V11.8h.556l2.985-2.866 1.742-1.8q.178-.178.177-.297 0-.225-.426-.225l-1.125-.035h-.249V5.84h5.01v.735l-.224.011c-.838.056-1.37.158-1.612.308q-.342.214-2.215 2.061l-2.25 2.216 3.861 4.536 1.28 1.398q.52.58.758.687.249.106 1.101.166l.225.012v.734h-3.612l-5.426-6.325zM49.407 5.84v9.796c0 .932.07 1.54.213 1.813q.213.403.96.45l.805.059.225.012v.734h-6.728v-.734l.225-.012.794-.06q.687-.046.864-.224.189-.19.237-.865l.071-1.173V8.91l-.07-1.16q-.048-.675-.238-.865-.178-.189-.864-.237l-.794-.06-.225-.011V5.84zm-2.334-2.333V1.174h2.334v2.334zm9.773 8.872v3.258l.07 1.172q0 .735.238.912.249.167 1.374.237l.225.012v.734H52.32v-.734l.225-.012.793-.059q.687-.048.865-.225.189-.19.237-.865l.071-1.172V3.07l-.07-1.173q-.05-.675-.238-.853-.177-.189-.865-.237l-.793-.06-.225-.011V.002h4.525V11.8h.556l2.985-2.867 1.742-1.8q.178-.178.177-.297 0-.225-.426-.225l-1.125-.035h-.25V5.84h5.011v.735l-.225.012c-.837.055-1.37.158-1.61.308q-.345.213-2.216 2.06l-2.25 2.216 3.861 4.537 1.28 1.397q.52.58.758.687.249.106 1.101.166l.225.012v.734h-3.612l-5.426-6.325zm18.704 4.56c-1.39 1.37-2.76 2.06-4.123 2.062q-1.636 0-2.724-1.03c-.727-.696-1.09-1.56-1.09-2.607 0-2.84 2.31-4.26 6.918-4.264h.486V9.5c0-2.03-.77-3.04-2.31-3.043q-2.294 0-2.523 2.31l-.012.224h-1.587V6.635c1.64-.719 3.16-1.08 4.548-1.078 2.81 0 4.22 1.28 4.217 3.85v5.733c0 1.86.4 2.8 1.197 2.796q.225 0 .627-.107l.071.877c-.56.197-1.07.296-1.516.296-1.15 0-1.87-.687-2.18-2.061m-.532-.261v-4.845h-.545c-2.92 0-4.38 1.07-4.383 3.198q0 1.114.71 1.848c.483.49 1.08.734 1.801.735.687 0 1.49-.312 2.417-.936m9.547-8.422c1.35-1.8 2.83-2.7 4.454-2.7q2.807 0 3.293 2.7 2.252-2.7 4.584-2.7c2.31 0 3.46 1.26 3.459 3.79v6.29c0 .932.067 1.54.201 1.812q.213.403.971.45l.794.06.225.011v.735h-6.728v-.735l.225-.012.805-.059q.745-.047.948-.45.213-.414.213-1.812V9.774c0-1.01-.13-1.71-.39-2.108q-.392-.592-1.41-.592c-1.15 0-2.39.663-3.743 1.99v6.574l.07 1.172q.036.675.226.865.19.177.865.225l.805.06.225.011v.735h-6.728v-.735l.225-.012.806-.059q.746-.047.947-.45.213-.414.213-1.812V9.774q0-1.501-.39-2.096-.393-.604-1.386-.604-1.845 0-3.779 1.99v6.574c0 .932.071 1.54.213 1.812q.213.403.96.45l.805.06.225.011v.735H80.04v-.735l.225-.012.794-.059q.687-.047.865-.225.19-.19.236-.864l.072-1.173V8.91l-.072-1.161q-.047-.675-.236-.865-.177-.189-.865-.237l-.794-.059-.225-.012v-.734h4.525zm28.346 10.448V16.29c-1.18 1.81-2.73 2.71-4.631 2.712-1.11 0-1.97-.363-2.606-1.09-.632-.733-.948-1.74-.948-3.008V8.91l-.071-1.16q-.048-.675-.237-.865-.178-.189-.865-.237l-.793-.06-.226-.011v-.735h4.525v8.695c0 1.97.703 2.96 2.109 2.961 1.29 0 2.53-.663 3.743-1.99V8.91l-.071-1.16q-.048-.687-.237-.865-.177-.189-.865-.237l-.805-.06-.213-.011v-.734h4.524v9.796l.083 1.172q.036.675.225.865.19.177.865.225l.806.06.225.011v.735zm6.621-.664v-3.27h1.315l.024.226.095 1.232q.082.911.947 1.48.862.558 2.18.557c.719 0 1.3-.213 1.753-.64q.687-.65.687-1.67c0-1.07-.691-1.88-2.073-2.404l-1.196-.462q-3.66-1.41-3.66-3.933 0-1.56 1.243-2.582 1.256-1.02 3.187-1.019c1.26 0 2.55.241 3.897.723v3.068h-1.315v-.213l-.107-1.078c-.11-1.18-.884-1.78-2.321-1.777q-1.03 0-1.718.663-.675.651-.675 1.659 0 .83.545 1.338.556.498 2.215 1.173l1.09.45q1.786.735 2.487 1.528c.474.52.711 1.2.71 2.026q0 1.709-1.361 2.795-1.362 1.09-3.518 1.09c-1.57 0-3.05-.32-4.43-.96"/></svg>