<svg xmlns="http://www.w3.org/2000/svg" width="119" height="19"><path fill="#4D4D4D" d="m110.284 18.161 3.129-3.472-3.006-7.233c-.316-.774-.551-1.254-.703-1.441-.152-.194-.387-.3-.703-.317l-.176-.009v-.545h4.36v.545H113c-.797 0-1.195.106-1.195.317 0 .105.167.589.501 1.45l2.135 5.124 2.277-5.15c.334-.756.501-1.21.501-1.363 0-.252-.355-.378-1.064-.378h-.237v-.545h2.83v.545l-.167.01c-.363.023-.674.354-.932.992a40.03 40.03 0 0 1-.334.756l-4.842 10.714h-2.189Zm-4.105-4.781c-1.031 1.02-2.05 1.53-3.058 1.53-.809 0-1.483-.256-2.022-.766-.539-.515-.808-1.16-.808-1.933 0-.902.351-1.635 1.054-2.197.803-.645 2.163-.967 4.079-.967h.36V7.86c0-1.506-.571-2.259-1.714-2.259-.533 0-1.005.165-1.415.493-.24.199-.393.606-.457 1.221l-.009.167h-1.178V5.733c1.219-.533 2.35-.8 3.393-.8 2.074 0 3.111.953 3.111 2.857v4.254c0 .761.065 1.298.194 1.608.135.31.366.466.694.466.117 0 .273-.026.466-.08l.053.651c-.416.147-.788.22-1.117.22-.855 0-1.397-.51-1.626-1.53Zm-.395-.194V9.592h-.404c-1.02 0-1.817.21-2.391.633-.574.421-.861 1.001-.861 1.74 0 .55.178 1.008.536 1.37.357.364.803.546 1.336.546.504 0 1.098-.232 1.784-.695Zm-9.018.194c-1.031 1.02-2.05 1.53-3.059 1.53-.808 0-1.482-.256-2.021-.766-.539-.515-.809-1.16-.809-1.933 0-.902.352-1.635 1.055-2.197.803-.645 2.162-.967 4.078-.967h.36V7.86c0-1.506-.57-2.259-1.713-2.259-.533 0-1.005.165-1.415.493-.24.199-.393.606-.457 1.221l-.01.167h-1.177V5.733c1.219-.533 2.35-.8 3.393-.8 2.074 0 3.111.953 3.111 2.857v4.254c0 .761.064 1.298.193 1.608.135.31.367.466.695.466.117 0 .272-.026.466-.08l.052.651c-.416.147-.788.22-1.116.22-.855 0-1.397-.51-1.626-1.53Zm-.395-.194V9.592h-.405c-1.02 0-1.816.21-2.39.633-.575.421-.862 1.001-.862 1.74 0 .55.18 1.008.537 1.37.357.364.802.546 1.335.546.504 0 1.1-.232 1.785-.695Zm-13.123-3.19v2.417c0 .785.059 1.26.176 1.424.123.158.48.258 1.072.299l.167.008v.545h-4.772v-.545l.167-.008c.709-.047 1.127-.147 1.256-.3.135-.157.203-.632.203-1.423V3.088c0-.791-.068-1.263-.203-1.415-.128-.158-.547-.261-1.256-.308l-.167-.009V.811h3.357v8.754h.413l2.215-2.127c.95-.966 1.424-1.485 1.424-1.555 0-.112-.161-.17-.484-.176a21.836 21.836 0 0 0-.668-.018h-.184v-.545h3.718v.545l-.167.01c-.621.04-1.02.116-1.196.228-.17.105-.717.615-1.643 1.529l-1.67 1.643 2.865 3.367c.727.82 1.18 1.298 1.362 1.432.188.13.51.208.967.238l.167.008v.545h-2.68L83.66 9.996h-.413Zm-7.014 4.694v-1.794c-.44.668-.946 1.172-1.52 1.512a3.71 3.71 0 0 1-1.916.501c-.82 0-1.465-.272-1.934-.817-.469-.54-.703-1.28-.703-2.224V7.421c0-.791-.067-1.263-.202-1.415-.13-.153-.548-.255-1.257-.308l-.167-.009v-.545h3.357v6.452c0 .732.13 1.283.387 1.652.264.363.656.545 1.178.545.48 0 .952-.123 1.415-.37.463-.245.917-.614 1.362-1.107V7.421c-.04-.873-.108-1.365-.202-1.477-.094-.111-.516-.193-1.266-.246l-.158-.009v-.545h3.358v7.269c.04.873.108 1.365.202 1.476.093.112.515.194 1.265.247l.167.008v.545h-3.366Zm-8.051-.053c-.44.181-.859.272-1.257.272-1.014 0-1.755-.255-2.224-.765-.462-.51-.694-1.32-.694-2.434V5.856h-1.406v-.712h1.406V3.413l1.74-.43v2.161h2.655v.712h-2.655v6.082c0 .82.109 1.404.325 1.75.217.345.586.518 1.108.518.275 0 .61-.09 1.002-.272v.703ZM59.2 13.38c-1.031 1.02-2.05 1.53-3.058 1.53-.809 0-1.483-.256-2.022-.766-.539-.515-.808-1.16-.808-1.933 0-.902.351-1.635 1.054-2.197.803-.645 2.162-.967 4.078-.967h.36V7.86c0-1.506-.57-2.259-1.713-2.259-.533 0-1.005.165-1.415.493-.24.199-.393.606-.457 1.221l-.009.167h-1.178V5.733c1.219-.533 2.35-.8 3.393-.8 2.074 0 3.111.953 3.111 2.857v4.254c0 .761.065 1.298.194 1.608.134.31.366.466.694.466.117 0 .272-.026.466-.08l.052.651c-.416.147-.788.22-1.116.22-.855 0-1.397-.51-1.626-1.53Zm-.395-.194V9.592H58.4c-1.02 0-1.816.21-2.39.633-.575.421-.862 1.001-.862 1.74 0 .55.18 1.008.537 1.37.357.364.802.546 1.335.546.504 0 1.1-.232 1.785-.695Zm-9.018.194c-1.032 1.02-2.051 1.53-3.059 1.53-.809 0-1.482-.256-2.022-.766-.539-.515-.808-1.16-.808-1.933 0-.902.351-1.635 1.055-2.197.802-.645 2.162-.967 4.078-.967h.36V7.86c0-1.506-.571-2.259-1.714-2.259-.533 0-1.005.165-1.415.493-.24.199-.392.606-.457 1.221l-.009.167H44.62V5.733c1.218-.533 2.35-.8 3.392-.8 2.074 0 3.112.953 3.112 2.857v4.254c0 .761.064 1.298.193 1.608.135.31.366.466.694.466.117 0 .273-.026.466-.08l.053.651c-.416.147-.788.22-1.116.22-.856 0-1.398-.51-1.626-1.53Zm-.396-.194V9.592h-.404c-1.02 0-1.817.21-2.39.633-.575.421-.862 1.001-.862 1.74 0 .55.179 1.008.536 1.37.357.364.803.546 1.336.546.504 0 1.099-.232 1.784-.695Zm-15.609 1.609V3.088c0-.791-.068-1.263-.203-1.415-.129-.158-.547-.261-1.257-.308l-.166-.009V.811h3.357v6.126c.434-.668.929-1.169 1.485-1.503a3.598 3.598 0 0 1 1.872-.5c1.079 0 1.937.424 2.576 1.274.638.85.958 1.992.958 3.428 0 1.593-.367 2.87-1.1 3.832-.732.96-1.704 1.441-2.917 1.441a3.738 3.738 0 0 1-1.556-.325 4.059 4.059 0 0 1-1.318-.976h-.105l-.22 1.187H33.78Zm1.73-1.872c.464.34.915.595 1.355.764.439.17.87.255 1.291.255.803 0 1.404-.32 1.802-.958.399-.638.598-1.596.598-2.874 0-1.353-.194-2.367-.58-3.04-.387-.68-.97-1.02-1.75-1.02-.52 0-1.007.126-1.458.378-.451.246-.87.618-1.257 1.116v5.379Zm-9.887-2.927v2.417c0 .785.058 1.26.175 1.424.124.158.481.258 1.073.299l.167.008v.545h-4.773v-.545l.167-.008c.71-.047 1.128-.147 1.257-.3.135-.157.202-.632.202-1.423V3.088c0-.791-.067-1.263-.202-1.415-.129-.158-.548-.261-1.257-.308l-.167-.009V.811h3.358v8.754h.413l2.215-2.127c.949-.966 1.424-1.485 1.424-1.555 0-.112-.162-.17-.484-.176a21.836 21.836 0 0 0-.668-.018h-.184v-.545h3.717v.545l-.167.01c-.62.04-1.02.116-1.195.228-.17.105-.718.615-1.644 1.529l-1.67 1.643 2.866 3.367c.726.82 1.18 1.298 1.362 1.432.188.13.51.208.967.238l.167.008v.545h-2.68l-4.026-4.693h-.413Zm-5.177-4.852v7.269c0 .797.064 1.271.193 1.424.129.152.554.252 1.275.299l.166.008v.545H17.09v-.545l.167-.008c.71-.047 1.128-.147 1.257-.3.135-.157.202-.632.202-1.423V7.421c0-.791-.067-1.263-.202-1.415-.129-.153-.548-.255-1.257-.308l-.167-.009v-.545h3.358Zm-1.732-1.731V1.682h1.732v1.731h-1.732ZM4.908 14.856 2.131 4.011c-.264-.996-.434-1.541-.51-1.635-.076-.094-.395-.14-.958-.14L.48 2.217v-.536h4.658v.536H4.97c-.569 0-.929.029-1.081.088-.153.058-.229.193-.229.404 0 .193.085.627.255 1.3l1.925 7.568L8.837 1.84h.615l2.997 10.01 2.25-7.83c.252-.891.378-1.39.378-1.495 0-.205-.457-.307-1.37-.307h-.159v-.536h3.577v.536l-.158.017c-.627.035-.976.091-1.046.167-.064.076-.249.613-.554 1.609l-3.181 10.845h-.59L8.53 4.846l-3.014 10.01h-.607Z"/></svg>