<svg xmlns="http://www.w3.org/2000/svg" width="52" height="18" fill="none"><path fill="gray" d="M4.73 8.695c-.124-.093-.155-.198-.093-.316a105.206 105.206 0 0 0 .912-1.255c.05-.056.09-.08.12-.075a.298.298 0 0 1 .121.056l.326.27.344.27c.112.08.217.155.316.223.106.062.195.105.27.13.068.019.108.022.12.01.013-.013.047-.053.103-.122.062-.068.152-.176.27-.325l.52-.623c.05-.05.09-.065.121-.047a.326.326 0 0 1 .093.047l.689.558c.167.13.288.226.362.288.08.062.127.1.14.112a.278.278 0 0 1 .037.028.138.138 0 0 1 .065.093c.012.037.003.074-.028.111l-.465.595c-.149.192-.297.388-.446.586-.056.068-.103.1-.14.093a.286.286 0 0 1-.111-.046 4.911 4.911 0 0 1-.605-.447 14.84 14.84 0 0 1-.576-.548c-.162.198-.317.396-.465.595-.15.198-.301.393-.456.586-.062.074-.143.093-.242.055a1.153 1.153 0 0 1-.232-.12 7.595 7.595 0 0 1-.289-.168l-.241-.167-.251-.195a7.655 7.655 0 0 0-.289-.252Zm11.076 6.12a4.62 4.62 0 0 1-.818.056 4.645 4.645 0 0 1-.967-.15 2.052 2.052 0 0 1-.772-.409 1.805 1.805 0 0 1-.503-.734c-.117-.31-.17-.698-.158-1.163-.78.527-1.577.968-2.39 1.32a15.024 15.024 0 0 1-4.1 1.098c-.552.068-1.11.096-1.675.084a8.47 8.47 0 0 1-1.646-.177 4.471 4.471 0 0 1-1.422-.567 2.968 2.968 0 0 1-.986-1.032C.12 12.707 0 12.17.006 11.53a3.572 3.572 0 0 1 .019-.613c.025-.242.065-.496.12-.762.057-.267.125-.53.205-.79.087-.268.18-.503.28-.708.043-.117.108-.176.195-.176.03 0 .055.015.074.046.025.025.031.071.019.14-.112.322-.19.607-.233.855-.043.248-.077.5-.102.753-.037.354 0 .673.111.958.112.286.276.54.493.763.217.217.475.403.772.558.304.155.623.282.958.381.341.1.688.17 1.042.214.36.037.706.05 1.041.037.49-.012.967-.046 1.432-.102a17.36 17.36 0 0 0 1.395-.242c.465-.105.933-.232 1.404-.381.472-.155.958-.332 1.46-.53.224-.087.434-.177.633-.27.198-.093.39-.189.576-.288.192-.106.382-.214.568-.326.192-.117.387-.242.585-.372.075-.05.13-.068.168-.056.037.007.056.056.056.15-.013.464.043.84.167 1.125.13.279.31.499.54.66.229.161.502.273.818.335.316.062.66.102 1.032.12 0 .081-.003.205-.01.373 0 .16-.002.331-.008.51 0 .18-.004.357-.01.531v.39Zm1.618-8.333c.031-.043.087-.114.168-.214.08-.105.167-.213.26-.325a8.396 8.396 0 0 1 .456-.53c.05-.062.093-.09.13-.084.037 0 .074.016.111.047.224.192.447.375.67.548.23.174.418.338.567.493.031.031.044.062.037.093a.26.26 0 0 1-.055.093 8.005 8.005 0 0 1-.428.568c-.149.18-.295.365-.437.558-.062.111-.146.133-.251.065a2.597 2.597 0 0 1-.307-.205 12.973 12.973 0 0 1-.363-.298c-.118-.105-.23-.207-.335-.306a2.354 2.354 0 0 1-.232-.26c-.037-.05-.053-.09-.047-.122a.395.395 0 0 1 .056-.12Zm5.812 6.51c0 .08-.003.205-.009.372 0 .161-.003.335-.01.52 0 .187-.002.367-.008.54v.39a3.072 3.072 0 0 1-.577.057c-.372 0-.713-.025-1.023-.075a3.505 3.505 0 0 1-.856-.25A3.918 3.918 0 0 1 20 14.07a5.13 5.13 0 0 1-.706-.744c-.199.26-.462.493-.791.697a5.271 5.271 0 0 1-1.05.493c-.379.13-.767.226-1.163.289-.39.055-.754.074-1.088.055v-1.869c.266-.019.542-.04.827-.065.285-.031.568-.074.847-.13.285-.056.56-.133.827-.233.267-.099.512-.23.735-.39-.316-.31-.654-.509-1.014-.595a2.47 2.47 0 0 0-1.041-.038c-.05.013-.08.003-.093-.028a.351.351 0 0 1-.019-.111v-.093l.037-.214c.019-.105.038-.217.056-.335a18.824 18.824 0 0 1 .093-.549.763.763 0 0 1 .326-.53c.186-.124.396-.213.632-.27a3.39 3.39 0 0 1 .735-.102 10.065 10.065 0 0 1 1.014-.01c.16.001.33.01.51.029.18.012.357.04.53.084.18.037.342.093.484.167.143.074.258.17.345.288a.691.691 0 0 1 .139.438c0 .347-.075.669-.223.967-.149.297-.31.58-.484.846.118.149.254.273.41.372.154.099.316.183.483.25.174.063.35.112.53.15.186.037.366.068.54.093h.706c.062 0 .096.003.102.009Zm-.632-.01c.025-.005.084-.012.177-.018.093-.006.201-.01.325-.01l.39-.018c.137-.012.264-.021.382-.028a2.16 2.16 0 0 0 .288-.046c.075-.019.112-.04.112-.065a83.458 83.458 0 0 0-.223-2.744c-.087-.88-.174-1.776-.26-2.687a3.2 3.2 0 0 1 0-.846c.018-.13.033-.26.046-.391a.55.55 0 0 0-.14-.195 51.87 51.87 0 0 0-.213-.251 3.044 3.044 0 0 1-.205-.289.634.634 0 0 1-.093-.325.887.887 0 0 1 .084-.428c.074-.161.16-.322.26-.484.1-.16.201-.316.307-.464.105-.155.186-.286.242-.391.08-.1.142-.149.186-.149.043 0 .065.034.065.102a.206.206 0 0 1-.01.066c0 .018-.003.04-.009.065a.73.73 0 0 0 .075.539 1.8 1.8 0 0 0 .362.428c.15.13.307.25.475.362.173.112.316.217.427.317.019.03 0 .102-.055.214-.056.105-.128.232-.214.38-.087.15-.183.31-.289.484a6.336 6.336 0 0 0-.26.484c.037.98.093 1.95.167 2.91.081.962.121 1.935.121 2.92a3.183 3.183 0 0 1-.14.587 6.237 6.237 0 0 1-.232.595c-.08.186-.164.36-.25.52l-.196.391a2.88 2.88 0 0 1-.363.186c-.118.05-.245.09-.381.121-.13.025-.273.04-.428.047a5.235 5.235 0 0 1-.53-.01v-1.878Zm6.798 2.14c.006-.044.015-.1.028-.168.012-.068.028-.16.046-.279.025-.124.053-.279.084-.465.037-.192.08-.434.13-.725.862-.068 1.702-.136 2.52-.205.819-.074 1.659-.145 2.52-.213a11.15 11.15 0 0 0-.195-.791 8.157 8.157 0 0 0-.288-.856 5.952 5.952 0 0 0-.372-.771 2.165 2.165 0 0 0-.437-.568c-.031-.018-.053-.021-.065-.009a.105.105 0 0 0-.037.037l-.047.047c-.019.018-.05.028-.093.028-.161 0-.332-.069-.511-.205a2.808 2.808 0 0 1-.484-.493 3.859 3.859 0 0 1-.381-.595c-.1-.205-.152-.378-.158-.52a7.584 7.584 0 0 1 .353-1.489c.019-.056.059-.077.12-.065a.51.51 0 0 1 .206.075c.074.037.148.08.223.13l.167.111c.372.248.72.552 1.042.912.328.353.616.744.864 1.171.248.422.444.865.586 1.33.143.465.214.927.214 1.386 0 .124-.015.279-.046.465a9.243 9.243 0 0 1-.121.595 10.695 10.695 0 0 1-.353 1.218 3.35 3.35 0 0 1-.186.437c-.056.112-.103.174-.14.186-.019.006-.17.022-.456.047l-1.097.102-1.516.149c-.564.062-1.134.13-1.71.204a.966.966 0 0 1-.15.01.347.347 0 0 1-.14-.01.142.142 0 0 1-.101-.065c-.025-.03-.031-.08-.02-.148Zm7.811-10.128c.038-.192.08-.397.13-.614.056-.223.112-.437.168-.641.056-.205.115-.39.177-.558a2.417 2.417 0 0 1 .232-.484c.019-.03.05-.05.093-.056 0 .18-.003.345-.01.493v.502c.125 1.166.23 2.183.317 3.05.087.869.158 1.616.214 2.242.062.626.111 1.147.149 1.562.037.416.062.753.074 1.014.019.254.031.446.037.576.006.13.01.227.01.289v.102a8.785 8.785 0 0 1-.121 1.58c-.081.51-.22.968-.419 1.377-.025.037-.046.044-.065.019a.282.282 0 0 1-.028-.112c-.093-.986-.17-1.86-.232-2.622a78.781 78.781 0 0 0-.177-2.074c-.08-.769-.152-1.435-.214-2-.056-.564-.105-1.047-.149-1.45-.037-.403-.068-.732-.093-.986a43.492 43.492 0 0 1-.083-.976 2.207 2.207 0 0 1-.01-.168v-.065Zm4.101 2.493c.031-.044.087-.115.168-.214.08-.106.167-.214.26-.326a8.389 8.389 0 0 1 .456-.53c.05-.062.093-.09.13-.084.037 0 .074.016.112.047.223.192.446.375.67.549.229.173.418.337.566.492.032.031.044.062.038.093a.258.258 0 0 1-.056.093 7.948 7.948 0 0 1-.428.568c-.149.18-.294.365-.437.558-.062.111-.146.133-.251.065a2.597 2.597 0 0 1-.307-.205 12.973 12.973 0 0 1-.363-.297c-.117-.106-.23-.208-.334-.307a2.368 2.368 0 0 1-.233-.26c-.037-.05-.053-.09-.047-.122a.395.395 0 0 1 .056-.12Zm-3.822 10.099a7.73 7.73 0 0 0 1.377-.307 8.748 8.748 0 0 0 1.59-.66 7.973 7.973 0 0 0 1.534-1.042c.49-.415.893-.905 1.21-1.47a1.153 1.153 0 0 0-.029-.66 3.335 3.335 0 0 0-.279-.688 5.999 5.999 0 0 0-.362-.604 4.705 4.705 0 0 1-.26-.41c-.013 0-.016-.015-.01-.046a3.21 3.21 0 0 0 .065-.195c.031-.105.078-.254.14-.446.068-.199.154-.462.26-.79.018-.069.04-.113.065-.131a.1.1 0 0 1 .093-.01.218.218 0 0 1 .093.047c.037.025.071.05.102.075.354.427.602.861.744 1.301.143.44.205.884.186 1.33a4.658 4.658 0 0 1-.26 1.34c-.149.44-.341.87-.577 1.292-.142.254-.297.515-.465.781a4.63 4.63 0 0 1-.548.735 3.11 3.11 0 0 1-.68.577 1.817 1.817 0 0 1-.827.27c-.607.061-1.16.102-1.655.12a7.423 7.423 0 0 1-1.516-.102c-.217-.068-.32-.127-.307-.177.006-.05.112-.093.316-.13Zm7.682-14.842a.462.462 0 0 1-.186.074c-.068 0-.1-.03-.093-.093a.378.378 0 0 1 .111-.214 5.215 5.215 0 0 1 1.172-1.023c.41-.254.846-.387 1.311-.4.137 0 .273.016.41.047.136.031.272.065.409.102l.409.093c.136.031.276.047.418.047.242 0 .478-.037.707-.112a3.71 3.71 0 0 0 .651-.279 3.72 3.72 0 0 0 .558-.39c.174-.143.32-.282.437-.419.106-.124.18-.183.223-.177.044 0 .028.081-.046.242a3.984 3.984 0 0 1-.558.847c-.23.272-.49.52-.781.743a4.332 4.332 0 0 1-.93.53 2.465 2.465 0 0 1-.967.205c-.174 0-.332-.018-.475-.056l-.4-.111a13.21 13.21 0 0 0-.38-.121 1.26 1.26 0 0 0-.382-.056c-.316 0-.608.053-.874.158a5.17 5.17 0 0 0-.744.363Zm1.785 3.264c.037-.192.08-.397.13-.614.056-.223.112-.437.168-.642a6.87 6.87 0 0 1 .177-.558c.062-.167.12-.297.176-.39.075-.124.118-.161.13-.112.013.05.02.124.02.223v.363c.005.112.008.223.008.335.007.112.016.23.028.353a40.396 40.396 0 0 1 .177 1.637c.05.477.096.973.14 1.488.05.508.093 1.017.13 1.525a130.411 130.411 0 0 1 .214 2.836 9.489 9.489 0 0 1-.121 1.674c-.08.515-.22.977-.419 1.386-.025.037-.046.043-.065.019a.282.282 0 0 1-.028-.112c-.043-.415-.08-.815-.111-1.2-.031-.384-.062-.753-.093-1.106a99.666 99.666 0 0 0-.168-1.823c-.056-.62-.114-1.23-.176-1.832-.056-.608-.112-1.2-.168-1.776-.056-.583-.105-1.14-.149-1.674Z"/></svg>