<svg xmlns="http://www.w3.org/2000/svg" width="93" height="18" fill="none"><path fill="gray" d="m4.111 10.15-1.096 1.74-.61 1.096a.86.86 0 0 0-.106.274c-.048.242.156.363.61.363l.45.009h.142l-.106.548H0l.106-.548.195-.01.424-.017c.336-.018.66-.28.972-.787l.593-.928L9.088.928h.62l2.377 11.025.274.91c.089.342.18.549.275.62.1.07.35.117.751.14l.195.01-.107.548H8.62l.106-.548h.16l.547-.01c.46 0 .71-.111.752-.335.07-.354.044-.82-.08-1.397l-.389-1.742H4.111Zm.433-.717H9.54L8.25 3.474l-3.705 5.96Zm17.284 4.42c-.99.366-1.924.549-2.802.549-1.403 0-2.446-.469-3.13-1.406-.684-.937-.875-2.157-.575-3.66.295-1.497.952-2.7 1.972-3.607 1.02-.908 2.219-1.362 3.598-1.362.737 0 1.653.145 2.75.434l-.46 2.29h-1.088l.027-.16c.265-1.32-.177-1.98-1.326-1.98-.855 0-1.61.383-2.264 1.15-.648.765-1.105 1.803-1.37 3.111-.265 1.338-.18 2.393.256 3.165.437.772 1.162 1.158 2.175 1.158.873 0 1.671-.147 2.396-.442l-.159.76Zm-5.287 3.961.115-.592c.33.088.61.133.84.133.648 0 1.023-.245 1.123-.734.118-.595-.374-.893-1.477-.893l1.15-1.547h.698l-.795 1.052c1.26.082 1.815.513 1.662 1.29-.083.419-.322.77-.716 1.053a2.25 2.25 0 0 1-1.344.424c-.425 0-.843-.062-1.256-.186ZM28.326 4.58l-1.459 7.311c-.141.695-.18 1.146-.114 1.353.064.2.282.312.654.336l.592.044.16.009-.107.548h-5.021l.106-.548.176-.01.602-.043c.341-.024.568-.08.68-.168.112-.095.213-.31.3-.646l.23-.875 1-5.022.123-.866c.042-.336.027-.551-.044-.645-.07-.095-.274-.154-.61-.177l-.583-.044-.168-.01.106-.547h3.377Zm8.196 7.797c-1.126 1.35-2.384 2.025-3.775 2.025-1.085 0-1.863-.427-2.334-1.282-.472-.86-.563-2.013-.274-3.457.324-1.603.948-2.885 1.874-3.846.931-.966 2.007-1.45 3.227-1.45 1.12 0 1.992.437 2.617 1.309l.22-1.096h1.751l-2.157 10.803c-.142.696-.183 1.143-.124 1.344.065.206.286.321.663.345l.584.044.159.009-.106.548h-5.022l.106-.548.177-.01.61-.043c.371-.024.628-.139.77-.345.147-.2.291-.648.432-1.344l.602-3.006Zm1.202-6.02c-.772-.678-1.588-1.017-2.449-1.017-1.615 0-2.679 1.282-3.191 3.846-.543 2.723-.03 4.084 1.538 4.084 1.067 0 2.075-.5 3.023-1.503l1.079-5.41ZM51.445.22l-2.334 11.67c-.142.695-.18 1.146-.115 1.353.065.2.283.312.654.336l.593.044.159.009-.106.548h-5.022l.106-.548.177-.01.601-.043c.342-.024.569-.08.68-.168.113-.095.213-.31.301-.646l.23-.875 1.875-9.38.123-.875c.042-.336.024-.549-.053-.637-.07-.094-.274-.153-.61-.177l-.583-.044-.168-.009.115-.548h3.377Zm6.94 13.96.363-1.804c-1.156 1.35-2.444 2.025-3.864 2.025-.825 0-1.42-.271-1.786-.814-.36-.548-.445-1.296-.256-2.245l.893-4.474.123-.866c.042-.336.027-.551-.044-.645-.07-.095-.274-.154-.61-.177l-.583-.044-.168-.01.106-.547h3.377l-1.3 6.489c-.294 1.473.083 2.21 1.132 2.21.96 0 1.992-.495 3.094-1.485l.982-4.925.124-.866c.047-.342.032-.557-.045-.645-.07-.095-.274-.154-.61-.177l-.592-.044-.16-.01.107-.547h3.377l-1.459 7.311-.114.875c-.048.336-.036.551.035.646.077.088.283.144.619.168l.592.044.16.009-.107.548h-3.386ZM55.91 2.838l.3-1.53h1.53l-.3 1.53h-1.53Zm3.492 0 .3-1.53h1.53l-.3 1.53h-1.53Zm5.269 10.971c-.601-.306-.849-.724-.743-1.255.118-.601.793-1.182 2.025-1.742-1.185-.577-1.63-1.6-1.335-3.067.2-1.026.69-1.845 1.468-2.458.783-.613 1.726-.92 2.829-.92.665 0 1.249.124 1.75.372l3.421-.266-.654 1.061-2.237-.37c.608.724.814 1.579.62 2.563a4.066 4.066 0 0 1-1.486 2.44 4.192 4.192 0 0 1-2.723.964c-.389 0-.79-.062-1.202-.186-.484.324-.763.684-.84 1.079-.083.418.244.627.981.627h1.53c1.473 0 2.451.156 2.935.469.489.312.651.887.486 1.724-.183.913-.748 1.647-1.697 2.201-.95.56-2.108.84-3.475.84-1.326 0-2.352-.189-3.076-.566-.725-.371-1.026-.866-.902-1.485.159-.796.934-1.47 2.325-2.025Zm1.706-6.17c-.395 1.962.03 2.943 1.273 2.943 1.232 0 2.042-.96 2.431-2.882.372-1.862-.056-2.793-1.281-2.793-1.25 0-2.057.91-2.423 2.732Zm-1.273 6.32a2.7 2.7 0 0 0-.972 1.583c-.242 1.214.539 1.821 2.343 1.821.86 0 1.582-.188 2.166-.565.589-.378.945-.887 1.07-1.53.176-.872-.352-1.308-1.583-1.308h-3.024ZM66.784 0h.575c.059 1.055.742 1.583 2.05 1.583 1.31 0 2.208-.528 2.697-1.583h.566c-.289.866-.749 1.556-1.38 2.069a3.29 3.29 0 0 1-2.13.769c-.79 0-1.4-.256-1.83-.77-.43-.512-.613-1.202-.548-2.068Zm6.56 9.654.15-.795h7.48c.147-1.12-.024-1.975-.513-2.564-.49-.584-1.273-.876-2.352-.876-.625 0-1.244.077-1.856.23a9.745 9.745 0 0 0-1.884.69l.3-1.538a11.387 11.387 0 0 1 1.902-.566 9.505 9.505 0 0 1 1.9-.195c1.58 0 2.741.46 3.484 1.38.748.919.97 2.163.663 3.73-.318 1.621-1.008 2.909-2.069 3.864-1.055.949-2.325 1.423-3.81 1.423-1.332 0-2.305-.427-2.918-1.282-.607-.86-.766-2.027-.477-3.5Zm1.53.478c-.16.89-.045 1.6.344 2.13.377.53.967.796 1.768.796.908 0 1.683-.256 2.325-.77.649-.512 1.105-1.234 1.37-2.165l-5.808.009Zm15.073 3.996c-.478.182-.917.274-1.317.274-1.02 0-1.712-.257-2.078-.77-.365-.512-.436-1.329-.212-2.448l1.176-5.888H86.1l.142-.716h1.414l.354-1.742 1.83-.433-.433 2.175h2.67l-.142.716h-2.67l-1.22 6.118c-.183.89-.206 1.494-.07 1.812.14.312.492.468 1.052.468.276 0 .63-.09 1.06-.274l-.141.708Z"/></svg>