<svg viewBox="0 0 146 20" xmlns="http://www.w3.org/2000/svg"><g fill="#4d4d4d"><path d="M6.465 19.922 2.543 4.539c-.375-1.41-.613-2.19-.723-2.32-.105-.133-.559-.2-1.351-.2l-.262-.027v-.758h6.578v.758h-.234c-.805 0-1.31.043-1.528.125-.215.086-.324.277-.324.574 0 .273.121.891.363 1.848l2.715 10.734 4.235-13.816h.867l4.23 14.2L20.29 4.55c.355-1.27.531-1.97.531-2.121 0-.289-.645-.434-1.933-.434h-.223v-.761h5.05v.761l-.226.024c-.883.05-1.38.129-1.476.238-.09.105-.352.867-.782 2.281l-4.492 15.383h-.832L11.578 5.723l-4.258 14.2zM28.941 6.148V16.46c0 1.13.09 1.8.27 2.02.184.215.785.355 1.8.422l.235.011v.774h-7.047v-.774l.234-.011c1-.067 1.59-.207 1.777-.422.188-.227.285-.898.286-2.02V9.378c0-1.12-.098-1.79-.286-2.007-.184-.215-.773-.363-1.777-.438l-.234-.012v-.773zm-2.445-2.453V1.238h2.445v2.457zM36.73 13.027v3.43c0 1.11.086 1.79.25 2.02.172.222.68.362 1.516.421l.234.016v.77h-6.738v-.77l.234-.016c1-.066 1.59-.207 1.773-.422.191-.227.29-.898.29-2.02V3.23c0-1.12-.098-1.79-.29-2.008-.18-.227-.773-.371-1.773-.438l-.234-.011v-.774h4.738v12.418h.586l3.125-3.02c1.34-1.37 2.01-2.11 2.012-2.206 0-.156-.227-.238-.684-.246-.453-.02-.77-.028-.941-.028h-.262v-.773h5.25v.773l-.234.012c-.88.059-1.44.168-1.688.324-.242.152-1.02.875-2.324 2.172l-2.356 2.332 4.043 4.774c1.03 1.16 1.67 1.84 1.926 2.03.266.185.72.298 1.363.337l.239.011v.774H43l-5.684-6.656zM58.414 19.227c-1.29.516-2.55.773-3.785.773-1.97 0-3.57-.66-4.793-1.98-1.22-1.32-1.84-3.04-1.836-5.164 0-2.12.586-3.81 1.762-5.086 1.18-1.28 2.75-1.92 4.714-1.918 1 0 2.31.203 3.938.61v3.23h-1.527l-.012-.227c0-1.86-.816-2.79-2.445-2.793-1.18 0-2.13.543-2.832 1.621-.695 1.08-1.04 2.54-1.043 4.391 0 1.89.414 3.37 1.242 4.46.828 1.09 1.95 1.63 3.375 1.634 1.23 0 2.3-.207 3.242-.621zM64.93 6.148V16.46c0 1.13.09 1.8.273 2.02.18.215.781.355 1.797.422l.239.011v.774h-7.051v-.774l.238-.011c1-.067 1.59-.207 1.773-.422.192-.227.286-.898.286-2.02V9.378c0-1.12-.094-1.79-.286-2.007-.183-.215-.772-.363-1.773-.438l-.238-.012v-.773zm-2.445-2.453V1.238h2.445v2.457zM75.176 20c-1.98 0-3.55-.633-4.703-1.898-1.15-1.27-1.72-3-1.723-5.184 0-2.19.574-3.91 1.723-5.176 1.15-1.26 2.72-1.89 4.703-1.894 2 0 3.56.633 4.703 1.894 1.15 1.27 1.73 2.99 1.727 5.176 0 2.18-.574 3.91-1.727 5.184-1.15 1.27-2.71 1.9-4.703 1.898zm0-.773c1.1 0 2.02-.594 2.742-1.786.73-1.2 1.09-2.7 1.094-4.523 0-1.8-.363-3.3-1.094-4.5-.727-1.21-1.64-1.81-2.742-1.809-1.09 0-2 .602-2.73 1.809-.728 1.2-1.09 2.7-1.09 4.5 0 1.82.359 3.33 1.078 4.523.727 1.19 1.64 1.79 2.742 1.786zM88.062 8.691c.621-.945 1.34-1.66 2.148-2.129.81-.477 1.71-.71 2.715-.71 1.16 0 2.07.379 2.73 1.144.657.766.98 1.82.981 3.156v6.309c.059 1.24.156 1.93.285 2.094.133.156.73.273 1.79.347l.222.012v.773h-7.035v-.773l.223-.012c1.06-.074 1.66-.19 1.785-.347.133-.16.23-.855.285-2.094v-5.922c0-1.16-.152-1.97-.457-2.422-.297-.457-.836-.684-1.613-.684-.547 0-1.16.176-1.836.524-.68.34-1.42.859-2.223 1.559v6.945c0 1.13.09 1.8.273 2.02.184.214.781.354 1.801.421l.235.012v.773H83.32v-.773l.238-.012c1-.066 1.59-.207 1.773-.422.191-.227.285-.898.286-2.02V9.38c0-1.12-.094-1.79-.286-2.008-.184-.215-.773-.359-1.773-.437l-.238-.012v-.774h4.742zM108.5 17.828c-1.46 1.45-2.9 2.17-4.32 2.168-1.14 0-2.09-.359-2.856-1.082-.762-.734-1.14-1.65-1.14-2.746 0-1.28.496-2.32 1.488-3.113 1.13-.914 3.05-1.37 5.758-1.372h.511V10c0-2.14-.809-3.21-2.421-3.207-.754 0-1.42.234-1.997.7-.34.28-.555.858-.648 1.734l-.012.234h-1.66V6.98c1.72-.755 3.32-1.13 4.79-1.133 2.93 0 4.39 1.35 4.394 4.05v6.036c0 1.08.09 1.84.27 2.28.19.442.52.66.98.661.168 0 .387-.04.66-.113l.074.922c-.59.21-1.11.312-1.578.312-1.21 0-1.97-.723-2.293-2.168zm-.559-.273v-5.102h-.57c-1.44 0-2.57.301-3.379.898-.809.598-1.21 1.42-1.215 2.47 0 .78.254 1.43.758 1.944.504.516 1.13.773 1.887.774.71 0 1.55-.328 2.52-.984zM117.95 9.836v6.621c0 1.12.098 1.79.29 2.02.194.223.792.363 1.784.421l.535.016v.77h-7.347v-.77l.234-.016c1-.066 1.59-.207 1.777-.421.188-.227.285-.898.286-2.02V9.375c0-1.12-.098-1.79-.286-2.008-.184-.215-.777-.359-1.777-.437l-.234-.012v-.773h4.738V8.69c1.12-1.9 2.58-2.84 4.383-2.843a3 3 0 0 1 .832.136v3.703h-1.379l-.012-.226c-.09-.77-.172-1.23-.25-1.371-.062-.148-.25-.223-.558-.223-1.22 0-2.23.656-3.016 1.969zM129.11 6.148V16.46c0 1.13.094 1.8.273 2.02.184.215.781.355 1.801.422l.235.011v.774h-7.047v-.774l.234-.011c1-.067 1.59-.207 1.777-.422.188-.227.285-.898.286-2.02V9.378c0-1.12-.098-1.79-.286-2.007-.184-.215-.777-.363-1.777-.438l-.234-.012v-.773zm-2.441-2.453V1.238h2.441v2.457zM139.36 20c-1.98 0-3.55-.633-4.703-1.898-1.15-1.27-1.73-3-1.727-5.184 0-2.19.574-3.91 1.727-5.176 1.15-1.26 2.72-1.89 4.703-1.894 1.99 0 3.56.633 4.703 1.894 1.15 1.27 1.73 2.99 1.727 5.176 0 2.18-.578 3.91-1.727 5.184-1.15 1.27-2.72 1.9-4.703 1.898zm0-.773c1.1 0 2.02-.594 2.742-1.786.727-1.2 1.09-2.7 1.094-4.523 0-1.8-.367-3.3-1.094-4.5-.727-1.21-1.64-1.81-2.742-1.809-1.09 0-2 .602-2.73 1.809-.727 1.2-1.09 2.7-1.094 4.5 0 1.82.359 3.33 1.082 4.523.727 1.19 1.64 1.79 2.742 1.786z"/></g></svg>