<svg xmlns="http://www.w3.org/2000/svg" width="121" height="16"><path fill="#4D4D4D" d="M113.083 10.452v2.551c0 .829.062 1.33.186 1.503.13.167.507.272 1.132.316l.176.009v.575h-5.038v-.575l.177-.01c.748-.049 1.19-.154 1.326-.315.142-.167.214-.668.214-1.503V3.16c0-.835-.072-1.333-.214-1.494-.136-.167-.578-.275-1.326-.324l-.177-.01V.757h3.544v9.24h.436l2.338-2.245c1.002-1.02 1.503-1.568 1.503-1.642 0-.117-.17-.18-.51-.185a23.02 23.02 0 0 0-.705-.019h-.195v-.575h3.924v.575l-.176.01c-.656.043-1.076.123-1.262.24-.179.112-.757.65-1.735 1.615l-1.762 1.735 3.024 3.553c.767.866 1.246 1.37 1.438 1.512.198.136.538.22 1.021.25l.176.01v.575h-2.83l-4.249-4.954h-.436Zm-7.593 4.954v-1.893c-.464.706-.999 1.237-1.605 1.596-.6.353-1.275.529-2.023.529-.866 0-1.546-.288-2.041-.863-.495-.569-.742-1.351-.742-2.347V7.734c0-.835-.071-1.333-.213-1.494-.137-.16-.579-.269-1.327-.325l-.177-.009v-.575h3.544v6.81c0 .773.137 1.354.409 1.743.278.384.692.576 1.243.576a3.15 3.15 0 0 0 1.494-.39c.488-.26.967-.65 1.438-1.169V7.734c-.044-.922-.115-1.441-.214-1.559-.099-.117-.544-.204-1.336-.26l-.167-.009v-.575h3.544v7.672c.043.922.115 1.441.214 1.559.098.117.544.204 1.335.26l.177.009v.575h-3.553Zm-18.068.111V3.16c0-.835-.071-1.333-.213-1.494-.137-.167-.579-.275-1.327-.324l-.176-.01V.757h3.543v6.466c.458-.705.98-1.234 1.568-1.586a3.798 3.798 0 0 1 1.977-.529c1.138 0 2.044.449 2.718 1.345.674.897 1.01 2.103 1.01 3.619 0 1.682-.386 3.03-1.159 4.045-.773 1.014-1.8 1.52-3.08 1.52a3.946 3.946 0 0 1-1.642-.342 4.285 4.285 0 0 1-1.392-1.03h-.11l-.233 1.252h-1.484Zm1.828-1.976c.488.359.964.628 1.428.807.464.18.919.27 1.364.27.847 0 1.481-.338 1.902-1.012.42-.674.63-1.685.63-3.034 0-1.428-.203-2.498-.612-3.21-.408-.717-1.023-1.076-1.846-1.076-.55 0-1.064.133-1.54.4-.476.26-.918.652-1.326 1.178v5.677Zm-6.295.483c-1.089 1.076-2.165 1.614-3.229 1.614-.853 0-1.565-.27-2.134-.807-.569-.544-.853-1.225-.853-2.041 0-.953.37-1.726 1.113-2.32.847-.68 2.282-1.02 4.305-1.02h.38V8.198c0-1.59-.603-2.385-1.809-2.385-.563 0-1.06.173-1.494.52-.253.21-.414.64-.482 1.29l-.01.176H77.5V5.952c1.287-.562 2.48-.844 3.582-.844 2.189 0 3.284 1.005 3.284 3.015v4.49c0 .805.068 1.37.204 1.698.142.328.386.492.733.492.123 0 .287-.028.491-.084l.056.687c-.439.155-.832.232-1.178.232-.903 0-1.475-.538-1.716-1.614Zm-.418-.204v-3.795h-.427c-1.076 0-1.917.223-2.523.668-.606.445-.91 1.058-.91 1.837 0 .581.19 1.064.567 1.447.377.384.847.575 1.41.575.532 0 1.16-.244 1.883-.732Zm-10.432 1.586v-1.893c-.446.706-.965 1.237-1.56 1.596a3.766 3.766 0 0 1-1.975.529c-1.138 0-2.044-.448-2.718-1.345-.675-.903-1.012-2.112-1.012-3.628 0-1.682.387-3.027 1.16-4.035.773-1.015 1.8-1.522 3.08-1.522.588 0 1.132.115 1.633.343.507.23.97.573 1.392 1.03V3.16c0-.847-.069-1.348-.205-1.503-.13-.16-.575-.266-1.336-.315l-.176-.01V.757h3.553v12.246c0 .841.065 1.342.195 1.503.136.16.585.266 1.345.316l.177.009v.575h-3.553Zm0-8.21a5.646 5.646 0 0 0-1.41-.798 3.788 3.788 0 0 0-1.374-.27c-.847 0-1.484.338-1.91 1.012-.421.668-.632 1.676-.632 3.024 0 1.429.204 2.502.613 3.22.414.71 1.032 1.066 1.855 1.066.557 0 1.073-.13 1.55-.39.476-.265.912-.661 1.308-1.187V7.196Zm-13.829 8.442c-1.484 0-2.656-.47-3.516-1.41-.86-.947-1.29-2.233-1.29-3.86 0-1.626.43-2.91 1.29-3.85.86-.94 2.032-1.41 3.516-1.41 1.49 0 2.663.47 3.516 1.41.86.94 1.29 2.224 1.29 3.85 0 1.627-.43 2.913-1.29 3.86-.86.94-2.031 1.41-3.516 1.41Zm0-.575c.823 0 1.506-.443 2.05-1.327.545-.89.817-2.013.817-3.368 0-1.342-.272-2.458-.816-3.349-.545-.897-1.228-1.345-2.05-1.345-.817 0-1.497.448-2.042 1.345-.544.89-.816 2.007-.816 3.35 0 1.354.269 2.476.807 3.367.544.884 1.228 1.327 2.05 1.327Zm-2.634-11.56V1.898h1.605v1.605h-1.605Zm3.664 0V1.898h1.605v1.605h-1.605ZM47.139 15.517 43.873 7.8c-.34-.81-.587-1.32-.742-1.531a.768.768 0 0 0-.603-.353l-.158-.009v-.575h4.37v.575h-.176c-.804 0-1.212.133-1.225.399-.006.093.183.597.566 1.512l2.273 5.372 2.338-5.363c.371-.847.556-1.351.556-1.512 0-.272-.374-.408-1.122-.408h-.204v-.575h2.987v.575l-.195.01c-.228.018-.405.095-.528.231-.112.124-.387.684-.826 1.68l-3.48 7.69h-.565ZM40.603 5.33v7.673c0 .841.068 1.342.204 1.503.136.16.584.266 1.345.316l.176.009v.575h-5.27v-.575l.177-.01c.748-.049 1.19-.154 1.327-.315.142-.167.213-.668.213-1.503v-5.27c0-.834-.071-1.332-.213-1.493-.136-.16-.578-.269-1.327-.325l-.176-.009v-.575h3.544Zm-1.828-1.827V1.676h1.828v1.827h-1.828ZM29.4 10.452v2.551c0 .829.062 1.33.186 1.503.13.167.507.272 1.132.316l.176.009v.575h-5.038v-.575l.176-.01c.749-.049 1.191-.154 1.327-.315.142-.167.213-.668.213-1.503V3.16c0-.835-.07-1.333-.213-1.494-.136-.167-.578-.275-1.327-.324l-.176-.01V.757H29.4v9.24h.436l2.338-2.245c1.002-1.02 1.503-1.568 1.503-1.642 0-.117-.17-.18-.51-.185-.34-.013-.575-.019-.705-.019h-.195v-.575h3.924v.575l-.176.01c-.656.043-1.076.123-1.262.24-.18.112-.758.65-1.735 1.615l-1.762 1.735 3.024 3.553c.767.866 1.246 1.37 1.438 1.512.198.136.538.22 1.02.25l.177.01v.575h-2.83l-4.249-4.954H29.4Zm-7.594 4.954v-1.893c-.463.706-.998 1.237-1.605 1.596-.6.353-1.274.529-2.022.529-.866 0-1.546-.288-2.041-.863-.495-.569-.742-1.351-.742-2.347V7.734c0-.835-.071-1.333-.214-1.494-.136-.16-.578-.269-1.326-.325l-.177-.009v-.575h3.544v6.81c0 .773.137 1.354.409 1.743.278.384.692.576 1.243.576a3.15 3.15 0 0 0 1.493-.39c.489-.26.968-.65 1.438-1.169V7.734c-.043-.922-.114-1.441-.213-1.559-.099-.117-.544-.204-1.336-.26l-.167-.009v-.575h3.544v7.672c.043.922.114 1.441.213 1.559.1.117.545.204 1.336.26l.177.009v.575h-3.554ZM16.713 3.503V1.898h1.605v1.605h-1.605Zm3.665 0V1.898h1.605v1.605h-1.605Zm-13.3 12.079L2.375 4.125c-.402-.928-.665-1.466-.789-1.615-.123-.148-.392-.231-.807-.25l-.195-.019v-.565h4.982v.565h-.204c-.952 0-1.429.121-1.429.362 0 .1.186.606.557 1.522l3.553 8.646 3.34-8.656c.074-.185.136-.343.186-.473.198-.507.297-.838.297-.992 0-.272-.449-.409-1.346-.409h-.204v-.565h3.544v.565l-.204.019c-.427.019-.69.09-.788.213-.093.118-.334.665-.724 1.642L7.709 15.582h-.63Z"/></svg>