<svg xmlns="http://www.w3.org/2000/svg" width="120" height="17"><defs><clipPath id="a"><path fill="#fff" d="M0 0h120v17H0z"/></clipPath></defs><g clip-path="url(#a)"><path fill="#fff" d="M0 0h120v17H0z"/><path fill="gray" fill-opacity=".906" d="M12.01 12.79H9.824l-1.46-3.786H3.443L2.068 12.79H0L4.835 0h2.04l5.135 12.79Zm-4.2-5.44a564.996 564.996 0 0 1-1.72-4.39c-.127-.339-.26-.777-.399-1.315h.267c-.142.752-.348 1.49-.618 2.215L3.963 7.35h3.846Zm10.297-1.045c-.078-.546-.264-.929-.558-1.148-.295-.22-.713-.329-1.253-.329-.546 0-.977.087-1.29.26-.315.173-.472.416-.472.73 0 .292.124.504.373.637s.784.307 1.605.521c.955.244 1.68.463 2.176.66.496.195.887.475 1.173.841.285.366.428.866.428 1.5 0 .856-.347 1.575-1.041 2.155-.695.58-1.616.87-2.766.87-1.191 0-2.126-.255-2.804-.766-.679-.51-1.095-1.328-1.248-2.452l1.874-.26c.09.688.31 1.172.66 1.454.35.281.851.422 1.501.422.621 0 1.09-.125 1.406-.373.317-.249.475-.548.475-.897a.736.736 0 0 0-.207-.544 1.355 1.355 0 0 0-.541-.319c-.223-.074-.803-.225-1.74-.454-1.244-.297-2.085-.679-2.524-1.145a2.354 2.354 0 0 1-.658-1.672c0-.804.32-1.465.959-1.984.64-.518 1.49-.778 2.55-.778 1.116 0 1.992.225 2.628.674.636.448 1.018 1.171 1.145 2.168l-1.851.23Zm12.058 2.369h-6.748c.058.833.323 1.496.797 1.988.473.492 1.06.738 1.762.738.536 0 .986-.142 1.35-.425.364-.284.662-.761.892-1.434l1.896.225c-.27 1.102-.761 1.917-1.473 2.445-.711.528-1.6.791-2.665.791-1.414 0-2.518-.432-3.312-1.296-.793-.864-1.19-2.038-1.19-3.52 0-1.46.385-2.651 1.154-3.572.77-.92 1.858-1.38 3.263-1.38.684 0 1.346.152 1.987.456.64.304 1.182.817 1.624 1.54.442.721.663 1.87.663 3.444ZM28.214 7.07c-.06-.745-.324-1.305-.793-1.68-.47-.375-.98-.563-1.53-.563-.66 0-1.206.224-1.639.673a2.64 2.64 0 0 0-.75 1.57h4.712Zm11.406 4.334c0 1.297-.134 2.277-.4 2.938-.268.662-.743 1.176-1.427 1.545-.684.37-1.497.554-2.438.554-1.063 0-1.955-.24-2.675-.72-.72-.481-1.081-1.324-1.081-2.53l1.848.255c.061.513.243.875.546 1.085.302.21.75.316 1.344.316.74 0 1.277-.147 1.61-.44.334-.292.54-.661.62-1.108.079-.447.118-1.01.118-1.689-.474.787-1.245 1.18-2.314 1.18-1.236 0-2.225-.451-2.966-1.355-.741-.903-1.112-2.034-1.112-3.393 0-1.361.36-2.503 1.082-3.425.721-.922 1.725-1.383 3.013-1.383 1.128 0 2.026.427 2.694 1.282h-.252V3.438h1.79v7.966Zm-4.104-.208c.594 0 1.126-.24 1.594-.722.468-.481.702-1.309.702-2.483 0-1.032-.225-1.818-.675-2.356-.451-.538-.997-.807-1.638-.807-.66 0-1.2.275-1.626.824-.424.549-.637 1.317-.637 2.305 0 1.144.223 1.97.668 2.477.445.508.982.762 1.612.762Zm13.795 1.594h-8.36v-1.466l5.739-6.343c-.54.04-1.052.06-1.533.06h-3.875V3.437h7.75v1.224l-4.928 5.759a21.8 21.8 0 0 1-.73.816c-.098.091-.153.078-.166-.04a16.329 16.329 0 0 1 1.736-.077h4.367v1.67Zm9.546 0H56.94a2.98 2.98 0 0 1-.337-1.111c-.878.882-1.936 1.323-3.174 1.323-1.003 0-1.797-.253-2.384-.761-.586-.508-.88-1.177-.88-2.009 0-.795.281-1.45.843-1.964.562-.514 1.51-.852 2.847-1.014l1.444-.214c.518-.083.903-.17 1.156-.261 0-.362-.013-.634-.04-.814-.027-.18-.1-.358-.22-.533-.118-.176-.317-.32-.596-.434-.28-.113-.66-.17-1.143-.17-.618 0-1.099.11-1.443.33-.345.219-.594.684-.749 1.394l-1.835-.222c.17-1.082.616-1.869 1.334-2.36.718-.49 1.692-.736 2.922-.736 1.12 0 1.95.171 2.493.514.542.342.875.756 1 1.242.124.485.186 1.087.186 1.804v2.055c0 1.253.023 2.085.07 2.495.045.409.186.891.423 1.446Zm-2.402-4.137v-.379c-.642.265-1.516.472-2.621.62-1.105.15-1.658.584-1.658 1.304 0 .366.136.666.408.901.271.235.675.352 1.21.352a2.93 2.93 0 0 0 1.86-.628c.534-.419.801-1.142.801-2.17ZM72.25 3.438l-2.873 9.352h-1.883l-1.368-5.47c-.048.042-.134-.205-.259-.74-.124-.536-.187-.777-.187-.725h.306l-1.791 6.935h-1.892l-2.81-9.352h1.923l1.804 7.13.126-.972 1.646-6.158h1.867l1.248 4.851c.341 1.308.52 2.002.536 2.084h-.271l2.045-6.935h1.832Zm9.359 9.352h-1.917a2.98 2.98 0 0 1-.337-1.111c-.878.882-1.936 1.323-3.174 1.323-1.003 0-1.797-.253-2.384-.761-.586-.508-.88-1.177-.88-2.009 0-.795.281-1.45.843-1.964.562-.514 1.51-.852 2.847-1.014l1.444-.214c.518-.083.903-.17 1.156-.261 0-.362-.013-.634-.04-.814-.027-.18-.1-.358-.22-.533-.118-.176-.317-.32-.596-.434-.28-.113-.66-.17-1.143-.17-.618 0-1.099.11-1.443.33-.345.219-.594.684-.749 1.394l-1.835-.222c.17-1.082.616-1.869 1.334-2.36.718-.49 1.692-.736 2.922-.736 1.12 0 1.95.171 2.493.514.542.342.875.756 1 1.242.124.485.186 1.087.186 1.804v2.055c0 1.253.023 2.085.07 2.495.045.409.186.891.423 1.446Zm-2.402-4.137v-.379c-.642.265-1.516.472-2.621.62-1.105.15-1.658.584-1.658 1.304 0 .366.136.666.408.901.271.235.675.352 1.21.352a2.93 2.93 0 0 0 1.86-.628c.534-.419.801-1.142.801-2.17Zm6.024 4.137h-1.909V0h1.91v12.79Zm8.935 0h-1.91V3.438h1.91v9.352Zm0-10.712h-1.91V0h1.91v2.078Zm3.982 10.712H96.24V0h1.91v12.79Zm10.281-4.116h-6.748c.058.833.323 1.496.797 1.988.473.492 1.061.738 1.763.738.536 0 .986-.142 1.35-.425.364-.284.661-.761.891-1.434l1.896.225c-.27 1.102-.761 1.917-1.473 2.445-.711.528-1.6.791-2.664.791-1.415 0-2.519-.432-3.312-1.296-.794-.864-1.19-2.038-1.19-3.52 0-1.46.384-2.651 1.154-3.572.769-.92 1.857-1.38 3.263-1.38.683 0 1.345.152 1.986.456.641.304 1.182.817 1.624 1.54.442.721.663 1.87.663 3.444Zm-1.951-1.603c-.059-.745-.324-1.305-.793-1.68-.47-.375-.98-.563-1.529-.563-.661 0-1.207.224-1.64.673a2.64 2.64 0 0 0-.75 1.57h4.712Zm5.557 5.719h-1.909V0h1.909v12.79Zm3.983 0h-1.909V0h1.909v12.79Zm3.982 0h-1.909V3.438H120v9.352Zm0-10.712h-1.909V0H120v2.078Z"/></g></svg>