<svg xmlns="http://www.w3.org/2000/svg" width="120" height="18" fill="none"><path fill="#4D4D4D" d="M5.44 17.25 2.03 3.93l-.39-1.426c-.114-.496-.373-.745-.776-.745l-.637-.01L0 1.727V1.07h5.721v.658h-.205l-.583.022c-.684 0-1.025.19-1.025.572 0 .244.104.78.313 1.608l2.364 9.294 3.68-11.96h.756l3.68 12.295 2.764-9.618c.31-1.065.464-1.673.464-1.824 0-.245-.313-.367-.939-.367l-.745-.022h-.194V1.07h4.393v.658l-.194.022-.648.021c-.431.022-.716.249-.852.68l-.465 1.48-3.907 13.32h-.723L9.888 4.954 6.185 17.249H5.44ZM24.99 5.321v8.927c0 .849.064 1.4.194 1.651.13.245.421.381.874.41l.734.054.206.01v.67h-6.132v-.67l.205-.01.724-.054c.417-.029.68-.097.788-.205.115-.115.187-.378.215-.788l.065-1.069v-6.13l-.064-1.059c-.03-.41-.101-.672-.216-.788-.108-.115-.371-.187-.788-.215l-.724-.054-.205-.011v-.67h4.124Zm-2.127-2.127V1.07h2.127v2.126h-2.127Zm8.906 8.085v2.969l.064 1.068c0 .446.072.723.216.831.151.101.569.173 1.252.216l.205.01v.67h-5.86v-.67l.204-.01.724-.054c.417-.029.68-.097.787-.205.116-.115.188-.378.216-.788l.065-1.069V2.796l-.065-1.069c-.029-.41-.1-.67-.216-.777-.107-.115-.37-.187-.787-.216L27.849.68l-.205-.01V0h4.124v10.751h.507l2.72-2.612 1.587-1.64c.108-.109.162-.199.162-.27 0-.137-.13-.206-.389-.206l-1.025-.032h-.227v-.67h4.566v.67l-.205.01c-.763.051-1.252.145-1.468.281-.209.13-.882.756-2.019 1.878l-2.05 2.019 3.518 4.134 1.166 1.274c.317.353.547.561.691.626.151.065.486.115 1.004.151l.205.01v.67h-3.292l-4.944-5.764h-.507Zm13.255-5.958v8.926c0 .85.065 1.4.194 1.652.13.245.421.381.875.41l.734.054.205.01v.67H40.9v-.67l.205-.01.723-.054c.417-.029.68-.097.788-.205.115-.115.187-.378.216-.788l.065-1.069v-6.13l-.065-1.059c-.03-.41-.101-.672-.216-.788-.108-.115-.37-.187-.788-.215l-.723-.054-.205-.011v-.67h4.123Zm-2.127-2.127V1.07h2.127v2.126h-2.127Zm5.667 13.525v-3.076h1.134l.01.194c.022.36.033.63.033.81 0 .59.302 1.072.907 1.446.604.367 1.385.55 2.342.55 2.022 0 3.033-1.025 3.033-3.076 0-.798-.172-1.435-.518-1.91-.345-.475-1.018-.993-2.018-1.555l-1.134-.647c-2.446-1.382-3.67-2.89-3.67-4.523 0-1.23.44-2.249 1.317-3.055.885-.806 1.993-1.209 3.325-1.209 1.144 0 2.49.227 4.037.68v2.84h-1.198l-.011-.184a12.88 12.88 0 0 1-.043-.853c0-.605-.216-1.047-.648-1.328-.425-.288-1.101-.432-2.03-.432-.776 0-1.403.256-1.877.767-.468.504-.702 1.17-.702 1.997 0 .705.162 1.288.486 1.748.33.461.928.936 1.791 1.425l1.134.648c1.569.892 2.626 1.67 3.173 2.332.547.662.82 1.496.82 2.504 0 1.324-.492 2.428-1.478 3.314-.986.878-2.22 1.317-3.703 1.317-1.741 0-3.245-.241-4.512-.724Zm17.304.594c-1.691 0-3.034-.55-4.027-1.652-.993-1.108-1.49-2.6-1.49-4.48 0-1.892.501-3.385 1.501-4.479 1-1.094 2.364-1.64 4.091-1.64 1.727 0 3.091.546 4.091 1.64 1 1.094 1.5 2.58 1.5 4.458 0 1.922-.503 3.43-1.51 4.523-1 1.087-2.386 1.63-4.156 1.63Zm.032-.67c.986 0 1.796-.514 2.429-1.543.633-1.029.95-2.342.95-3.94 0-1.547-.32-2.839-.961-3.875-.633-1.043-1.425-1.565-2.375-1.565s-1.741.522-2.374 1.565c-.634 1.036-.95 2.335-.95 3.897 0 1.554.313 2.853.939 3.897.626 1.043 1.407 1.565 2.342 1.565ZM62.877 3.196V1.328h1.867v1.867h-1.867Zm4.263 0V1.328h1.868v1.867H67.14Zm6.952 13.85v-.67L81.518 5.99h-3.832L76.65 6c-.468 0-.766.055-.896.163-.13.1-.194.341-.194.723 0 .302-.007.561-.022.777l-.01.227h-1.134V5.32h9.596v.67l-7.34 10.254h4.285l1.317-.054c.59 0 .886-.259.886-.777v-.81l.01-.258h1.134v2.698h-10.19ZM90.316 0v14.248c0 .85.064 1.4.194 1.652.13.245.421.381.874.41l.734.054.206.01v.67h-6.132v-.67l.205-.01.724-.054c.417-.029.68-.097.788-.205.115-.115.187-.378.215-.788l.065-1.069V2.796l-.064-1.069c-.03-.41-.101-.67-.216-.777-.108-.115-.371-.187-.788-.216L86.397.68l-.205-.01V0h4.124ZM102.2 17.044v-2.202c-1.079 1.648-2.486 2.472-4.22 2.472-1.008 0-1.8-.331-2.375-.993-.576-.67-.864-1.583-.864-2.742V8.117l-.064-1.058c-.03-.41-.101-.672-.216-.788-.108-.115-.37-.187-.788-.215l-.724-.054-.204-.011v-.67h4.123v7.924c0 1.799.64 2.698 1.921 2.698 1.173 0 2.31-.604 3.411-1.813V8.117l-.065-1.058c-.028-.417-.1-.68-.215-.788-.108-.115-.371-.187-.788-.215l-.734-.054-.195-.011v-.67h4.124v8.927l.075 1.07c.022.41.09.672.205.787.115.108.378.176.788.205l.734.054.205.01v.67H102.2ZM96.404 3.195V1.328h1.867v1.867h-1.867Zm4.263 0V1.328h1.868v1.867h-1.868Zm10.59 8.085v2.969l.064 1.068c0 .446.072.723.216.831.151.101.569.173 1.252.216l.206.01v.67h-5.862v-.67l.205-.01.724-.054c.417-.029.68-.097.788-.205.115-.115.187-.378.215-.788l.065-1.069V2.796l-.065-1.069c-.028-.41-.1-.67-.215-.777-.108-.115-.371-.187-.788-.216l-.724-.054-.205-.01V0h4.124v10.751h.507l2.72-2.612 1.587-1.64c.108-.109.162-.199.162-.27 0-.137-.13-.206-.389-.206l-1.025-.032h-.227v-.67h4.566v.67l-.205.01c-.763.051-1.252.145-1.468.281-.209.13-.882.756-2.019 1.878l-2.051 2.019 3.519 4.134 1.166 1.274c.317.353.547.561.691.626.151.065.486.115 1.004.151l.205.01v.67h-3.292l-4.944-5.764h-.507Z"/></svg>