<svg xmlns="http://www.w3.org/2000/svg" width="105" height="13" fill="none"><path fill="gray" d="M7.226 6.722c.881.148 1.528.48 1.942.996.413.517.544 1.157.391 1.92-.182.925-.628 1.614-1.336 2.067-.704.453-1.688.679-2.953.679H.988l.089-.458.148-.007.501-.037c.286-.02.475-.066.569-.14.093-.079.177-.259.25-.54l.193-.73L4.155 3.37l.104-.73c.034-.281.022-.46-.037-.54-.06-.078-.23-.127-.51-.147l-.494-.03-.133-.014.088-.45h4.489c1.004 0 1.727.206 2.17.62.443.413.586 1.013.428 1.8-.256 1.285-1.267 2.233-3.034 2.843Zm-2.259.243-.701 3.507-.11.642c-.06.3-.016.505.132.613.148.108.465.162.952.162.675 0 1.26-.201 1.757-.605.502-.408.82-.938.953-1.587.364-1.821-.63-2.732-2.983-2.732Zm.096-.502h.45c1.762 0 2.806-.804 3.13-2.413.153-.773.057-1.314-.287-1.625-.34-.315-1.01-.472-2.008-.472H5.97l-.908 4.51Zm9.08.09-.782 3.919c-.118.58-.15.957-.096 1.13.054.167.236.26.546.28l.495.037.31.007-.089.458h-4.37l.088-.458.148-.007.502-.037c.286-.02.475-.066.569-.14.093-.079.177-.259.25-.54l.192-.73.835-4.193.103-.724c.035-.28.022-.46-.037-.538-.059-.08-.229-.128-.51-.148l-.487-.037-.14-.007.089-.458h2.82l-.303 1.506c.891-1.122 1.873-1.683 2.946-1.683.147 0 .307.027.48.081l-.443 2.192h-.82l.015-.132.044-.554c.03-.26-.076-.391-.317-.391-.734 0-1.413.388-2.038 1.166Zm7.08-2.186-1.218 6.105c-.118.58-.15.957-.096 1.13.054.167.236.26.546.28l.495.037.133.007-.089.458h-4.193l.089-.458.147-.007.502-.037c.285-.02.475-.066.569-.14.093-.079.177-.259.25-.54l.192-.73.835-4.193.103-.724c.034-.28.022-.46-.037-.538-.059-.08-.229-.128-.51-.148l-.486-.037-.14-.007.088-.458h2.82ZM18.24 2.913l.178-.908h4.739l-.177.908h-4.74Zm6.703 9.56L23.57 6.33c-.142-.645-.258-1.051-.347-1.218a.476.476 0 0 0-.42-.281l-.126-.007.089-.458h3.477l-.089.458h-.14l-.399.007c-.384 0-.598.106-.642.317-.02.099.052.498.214 1.196l.952 4.275 2.71-4.267c.428-.674.654-1.076.679-1.204.044-.211-.106-.317-.45-.317l-.37-.007h-.162l.088-.458h2.378l-.089.458-.155.007c-.295.02-.583.251-.864.694l-.524.827-3.986 6.12h-.45Zm10.365-1.189c-1.038.856-1.98 1.284-2.827 1.284-.68 0-1.204-.213-1.573-.642-.364-.433-.482-.974-.354-1.624.354-1.771 1.968-2.657 4.843-2.657h.302l.2-.997c.255-1.265-.096-1.897-1.056-1.897-.955 0-1.575.48-1.86 1.44l-.037.14h-.99l.296-1.47c1.112-.447 2.101-.671 2.967-.671 1.752 0 2.468.8 2.149 2.399l-.717 3.573c-.23 1.161-.098 1.742.4 1.742.093 0 .228-.022.405-.066l-.066.546c-.374.123-.702.184-.982.184-.714 0-1.08-.428-1.1-1.284Zm-.303-.162.606-3.02h-.34c-1.82 0-2.864.665-3.13 1.993-.093.463-.022.847.214 1.152.236.305.578.458 1.026.458.428 0 .97-.195 1.624-.583Zm-1.956-8.21.177-.907h4.74l-.178.908H33.05Zm12.948 9.56-1.373-6.141c-.142-.645-.258-1.051-.347-1.218a.476.476 0 0 0-.42-.281l-.126-.007.089-.458h3.477l-.089.458h-.14l-.399.007c-.384 0-.598.106-.642.317-.02.099.052.498.214 1.196l.952 4.275 2.71-4.267c.428-.674.654-1.076.679-1.204.044-.211-.106-.317-.45-.317l-.37-.007H49.6l.088-.458h2.377l-.088.458-.155.007c-.295.02-.583.251-.864.694l-.524.827-3.986 6.12h-.45Zm10.365-1.188c-1.038.856-1.981 1.284-2.827 1.284-.68 0-1.204-.213-1.573-.642-.364-.433-.482-.974-.354-1.624.354-1.771 1.968-2.657 4.843-2.657h.302l.2-.997c.255-1.265-.097-1.897-1.056-1.897-.955 0-1.575.48-1.86 1.44L54 6.33h-.99l.296-1.47c1.112-.447 2.101-.671 2.967-.671 1.752 0 2.468.8 2.149 2.399l-.716 3.573c-.232 1.161-.099 1.742.398 1.742.094 0 .229-.022.406-.066l-.066.546c-.374.123-.702.184-.982.184-.714 0-1.08-.428-1.1-1.284Zm-.303-.162.606-3.02h-.34c-1.82 0-2.864.665-3.13 1.993-.093.463-.022.847.214 1.152.236.305.578.458 1.026.458.428 0 .97-.195 1.624-.583Zm-1.956-8.21.177-.907h4.74l-.178.908h-4.739Zm8.822 3.64-.783 3.92c-.118.58-.15.957-.096 1.13.054.167.236.26.547.28l.494.037.31.007-.088.458h-4.37l.088-.458.148-.007.502-.037c.285-.02.474-.066.568-.14.094-.079.177-.259.25-.54l.193-.73.834-4.193.103-.724c.035-.28.023-.46-.036-.538-.06-.08-.23-.128-.51-.148l-.487-.037-.14-.007.088-.458h2.82l-.302 1.506c.89-1.122 1.872-1.683 2.945-1.683.148 0 .308.027.48.081l-.443 2.192h-.82l.015-.132.045-.554c.03-.26-.077-.391-.318-.391-.733 0-1.412.388-2.037 1.166Zm8.984 5.832.302-1.506c-.94 1.127-1.99 1.69-3.152 1.69-.905 0-1.555-.356-1.949-1.07-.393-.718-.47-1.68-.228-2.886.27-1.339.792-2.41 1.564-3.212.778-.807 1.676-1.21 2.695-1.21.935 0 1.663.364 2.185 1.092l.532-2.642c.118-.581.15-.955.096-1.123-.054-.172-.234-.268-.54-.287l-.494-.037-.14-.008.096-.457h2.827l-1.949 9.744c-.118.58-.152.957-.103 1.13.054.167.239.26.554.28l.487.037.133.007-.089.458H71.91Zm1.306-6.533C72.571 5.285 71.89 5 71.171 5c-1.349 0-2.237 1.071-2.665 3.212-.453 2.274-.025 3.41 1.284 3.41.404 0 .844-.117 1.322-.354a3.959 3.959 0 0 0 1.203-.9l.9-4.518Zm6.201.022C80.381 4.75 81.46 4.19 82.65 4.19c.689 0 1.183.226 1.484.679.3.453.371 1.075.214 1.868l-.746 3.735-.096.73c-.04.281-.03.461.03.54.064.074.236.12.516.14l.495.037.126.007-.089.458h-4.186l.089-.458.14-.007.51-.037c.28-.02.467-.066.56-.14.099-.079.185-.259.259-.54l.192-.73.701-3.507c.138-.689.143-1.166.015-1.432-.123-.27-.413-.406-.871-.406-.66 0-1.55.411-2.672 1.233l-.82 4.112c-.118.58-.15.957-.096 1.13.054.167.236.26.546.28l.495.037.133.007-.089.458h-4.193l.089-.458.147-.007.502-.037c.286-.02.475-.066.569-.14.093-.079.177-.259.25-.54l.193-.73.834-4.193.103-.724c.035-.28.023-.46-.037-.538-.059-.08-.228-.128-.509-.148l-.487-.037-.14-.007.088-.458h2.82l-.303 1.506Zm9.87-1.506-1.218 6.105c-.118.58-.15.957-.096 1.13.055.167.237.26.547.28l.494.037.133.007-.088.458h-4.194l.09-.458.147-.007.502-.037c.285-.02.475-.066.568-.14.094-.079.177-.259.251-.54l.192-.73.834-4.193.104-.724c.034-.28.022-.46-.037-.538-.06-.08-.23-.128-.51-.148l-.487-.037-.14-.007.088-.458h2.82Zm-2.982-1.454.177-.908h4.74l-.178.908h-4.739Zm9.9 9.198c-.827.305-1.607.457-2.34.457-1.172 0-2.043-.39-2.614-1.173-.57-.783-.73-1.801-.48-3.056.246-1.25.795-2.254 1.646-3.012.852-.758 1.853-1.137 3.005-1.137.615 0 1.38.12 2.296.361l-.384 1.912h-.908l.022-.132c.222-1.103-.148-1.654-1.107-1.654-.714 0-1.344.32-1.89.96-.541.64-.923 1.506-1.144 2.598-.222 1.117-.15 1.998.214 2.643.364.645.97.967 1.816.967.728 0 1.395-.123 2-.369l-.132.635Zm6.636-.827c-1.038.856-1.981 1.284-2.827 1.284-.68 0-1.204-.213-1.573-.642-.364-.433-.482-.974-.354-1.624.354-1.771 1.969-2.657 4.843-2.657h.302l.2-.997c.256-1.265-.096-1.897-1.056-1.897-.955 0-1.575.48-1.86 1.44l-.037.14h-.99l.296-1.47c1.112-.447 2.101-.671 2.967-.671 1.753 0 2.469.8 2.149 2.399l-.716 3.573c-.232 1.161-.099 1.742.398 1.742.094 0 .229-.022.406-.066l-.066.546c-.374.123-.701.184-.982.184-.714 0-1.08-.428-1.1-1.284Zm-.303-.162.606-3.02h-.34c-1.821 0-2.864.665-3.13 1.993-.093.463-.022.847.214 1.152.236.305.578.458 1.026.458.428 0 .97-.195 1.624-.583Z"/></svg>