<?xml version="1.0" encoding="utf-8"?>
<!-- Generator: Adobe Illustrator 27.1.1, SVG Export Plug-In . SVG Version: 6.00 Build 0)  -->
<svg version="1.1" id="Layer_1" xmlns="http://www.w3.org/2000/svg" xmlns:xlink="http://www.w3.org/1999/xlink" x="0px" y="0px"
	 width="104.2px" height="15.8px" viewBox="0 0 104.2 15.8" style="enable-background:new 0 0 104.2 15.8;" xml:space="preserve">
<style type="text/css">
	.st0{fill:#4D4D4D;}
</style>
<g>
	<path class="st0" d="M6.9,15.8l-5-12.2C1.5,2.6,1.2,2,1.1,1.9C0.9,1.7,0.6,1.6,0.2,1.6L0,1.6V1h5.3v0.6H5.1c-1,0-1.5,0.1-1.5,0.4
		c0,0.1,0.2,0.6,0.6,1.6l3.8,9.2l3.5-9.2c0.1-0.2,0.1-0.4,0.2-0.5C11.9,2.5,12,2.2,12,2c0-0.3-0.5-0.4-1.4-0.4h-0.2V1h3.8v0.6
		l-0.2,0c-0.5,0-0.7,0.1-0.8,0.2c-0.1,0.1-0.4,0.7-0.8,1.7L7.6,15.8H6.9z"/>
	<path class="st0" d="M18.2,4.9V13c0,0.9,0.1,1.4,0.2,1.6c0.1,0.2,0.6,0.3,1.4,0.3l0.2,0v0.6h-5.6V15l0.2,0c0.8-0.1,1.3-0.2,1.4-0.3
		c0.1-0.2,0.2-0.7,0.2-1.6V7.4c0-0.9-0.1-1.4-0.2-1.6c-0.1-0.2-0.6-0.3-1.4-0.3l-0.2,0V4.9H18.2z M16.3,2.9V1h1.9v1.9H16.3z"/>
	<path class="st0" d="M24.4,10.3V13c0,0.9,0.1,1.4,0.2,1.6s0.5,0.3,1.2,0.3l0.2,0v0.6h-5.4V15l0.2,0c0.8-0.1,1.3-0.2,1.4-0.3
		c0.1-0.2,0.2-0.7,0.2-1.6V2.6c0-0.9-0.1-1.4-0.2-1.6c-0.1-0.2-0.6-0.3-1.4-0.3l-0.2,0V0h3.8v9.8h0.5l2.5-2.4
		C28.4,6.3,29,5.8,29,5.7c0-0.1-0.2-0.2-0.5-0.2c-0.4,0-0.6,0-0.7,0h-0.2V4.9h4.2v0.6l-0.2,0c-0.7,0-1.1,0.1-1.3,0.3
		c-0.2,0.1-0.8,0.7-1.8,1.7l-1.9,1.8l3.2,3.8c0.8,0.9,1.3,1.5,1.5,1.6c0.2,0.1,0.6,0.2,1.1,0.3l0.2,0v0.6h-3l-4.5-5.3H24.4z"/>
	<path class="st0" d="M36.5,4.9V13c0,0.9,0.1,1.4,0.2,1.6c0.1,0.2,0.6,0.3,1.4,0.3l0.2,0v0.6h-5.6V15l0.2,0c0.8-0.1,1.3-0.2,1.4-0.3
		c0.1-0.2,0.2-0.7,0.2-1.6V7.4c0-0.9-0.1-1.4-0.2-1.6c-0.1-0.2-0.6-0.3-1.4-0.3l-0.2,0V4.9H36.5z M34.6,2.9V1h1.9v1.9H34.6z"/>
	<path class="st0" d="M40,15v-2.7h1.1l0,0.2c0.1,1,0.1,1.5,0.2,1.7s0.2,0.3,0.5,0.5c0.6,0.4,1.3,0.6,2,0.6c0.6,0,1.1-0.2,1.5-0.5
		c0.4-0.4,0.6-0.8,0.6-1.4c0-0.5-0.1-0.9-0.4-1.2c-0.3-0.3-0.7-0.6-1.4-0.8l-1-0.4c-1.1-0.4-1.8-0.9-2.3-1.4C40.3,9,40,8.3,40,7.6
		c0-0.9,0.3-1.6,1-2.2c0.7-0.6,1.6-0.8,2.6-0.8c1,0,2.1,0.2,3.2,0.6v2.6h-1.1V7.6c0-0.6-0.1-1.1-0.2-1.3c-0.1-0.2-0.2-0.4-0.3-0.5
		c-0.4-0.3-0.9-0.5-1.5-0.5c-0.6,0-1,0.2-1.4,0.6s-0.6,0.8-0.6,1.4c0,0.5,0.2,0.8,0.5,1.1c0.3,0.3,0.9,0.6,1.8,1l0.9,0.4
		c1,0.4,1.7,0.8,2.1,1.3c0.4,0.4,0.6,1,0.6,1.7c0,1-0.4,1.7-1.1,2.3c-0.8,0.6-1.7,0.9-3,0.9C42.3,15.8,41.1,15.5,40,15z"/>
	<path class="st0" d="M54.9,15.8c-1.6,0-2.8-0.5-3.7-1.5c-0.9-1-1.4-2.4-1.4-4.1c0-1.7,0.5-3.1,1.4-4.1c0.9-1,2.2-1.5,3.7-1.5
		c1.6,0,2.8,0.5,3.7,1.5c0.9,1,1.4,2.4,1.4,4.1c0,1.7-0.5,3.1-1.4,4.1C57.7,15.3,56.4,15.8,54.9,15.8z M54.9,15.2
		c0.9,0,1.6-0.5,2.2-1.4c0.6-0.9,0.9-2.1,0.9-3.6c0-1.4-0.3-2.6-0.9-3.6c-0.6-1-1.3-1.4-2.2-1.4c-0.9,0-1.6,0.5-2.2,1.4
		c-0.6,1-0.9,2.1-0.9,3.6c0,1.4,0.3,2.6,0.9,3.6C53.3,14.7,54,15.2,54.9,15.2z M52.1,2.9V1.2h1.7v1.7H52.1z M56,2.9V1.2h1.7v1.7H56z
		"/>
	<path class="st0" d="M62.3,15.6V15l6.8-9.5h-3.5c-1,0-1.5,0-1.7,0.1c-0.2,0.1-0.2,0.3-0.2,0.7c0,0.3,0,0.5,0,0.7l0,0.2h-1V4.9h8.8
		v0.6l-6.7,9.4h3.9c1,0,1.6-0.1,1.8-0.2c0.2-0.1,0.2-0.6,0.2-1.3l0-0.2h1v2.5H62.3z"/>
	<path class="st0" d="M77.1,0v13c0,0.9,0.1,1.4,0.2,1.6c0.1,0.2,0.6,0.3,1.4,0.3l0.2,0v0.6h-5.6V15l0.2,0c0.8-0.1,1.3-0.2,1.4-0.3
		c0.1-0.2,0.2-0.7,0.2-1.6V2.6c0-0.9-0.1-1.4-0.2-1.6c-0.1-0.2-0.6-0.3-1.4-0.3l-0.2,0V0H77.1z"/>
	<path class="st0" d="M87.9,15.6v-2c-0.5,0.7-1.1,1.3-1.7,1.7s-1.4,0.6-2.2,0.6c-0.9,0-1.6-0.3-2.2-0.9c-0.5-0.6-0.8-1.4-0.8-2.5v-5
		c0-0.9-0.1-1.4-0.2-1.6c-0.1-0.2-0.6-0.3-1.4-0.3l-0.2,0V4.9h3.8v7.2c0,0.8,0.1,1.4,0.4,1.8c0.3,0.4,0.7,0.6,1.3,0.6
		c0.5,0,1.1-0.1,1.6-0.4c0.5-0.3,1-0.7,1.5-1.2V7.4c0-1-0.1-1.5-0.2-1.7c-0.1-0.1-0.6-0.2-1.4-0.3l-0.2,0V4.9h3.8V13
		c0,1,0.1,1.5,0.2,1.7c0.1,0.1,0.6,0.2,1.4,0.3l0.2,0v0.6H87.9z M82.5,2.9V1.2h1.7v1.7H82.5z M86.4,2.9V1.2h1.7v1.7H86.4z"/>
	<path class="st0" d="M96.2,10.3V13c0,0.9,0.1,1.4,0.2,1.6s0.5,0.3,1.2,0.3l0.2,0v0.6h-5.4V15l0.2,0c0.8-0.1,1.3-0.2,1.4-0.3
		c0.1-0.2,0.2-0.7,0.2-1.6V2.6c0-0.9-0.1-1.4-0.2-1.6c-0.1-0.2-0.6-0.3-1.4-0.3l-0.2,0V0h3.8v9.8h0.5l2.5-2.4
		c1.1-1.1,1.6-1.7,1.6-1.7c0-0.1-0.2-0.2-0.5-0.2s-0.6,0-0.7,0h-0.2V4.9h4.2v0.6l-0.2,0c-0.7,0-1.1,0.1-1.3,0.3
		c-0.2,0.1-0.8,0.7-1.8,1.7l-1.9,1.8l3.2,3.8c0.8,0.9,1.3,1.5,1.5,1.6c0.2,0.1,0.6,0.2,1.1,0.3l0.2,0v0.6h-3l-4.5-5.3H96.2z"/>
</g>
</svg>
