<svg xmlns="http://www.w3.org/2000/svg" width="40" height="33" fill="none"><path fill="#000" d="M32.368 29.412a6.439 6.439 0 0 0-.718.478 2.03 2.03 0 0 0-.347.341c-.07.101-.148.218-.234.35-.054.08-.116.08-.185 0-.07-.082-.105-.155-.105-.22 0-.33.134-.645.403-.949.269-.303.664-.612 1.186-.925.322-.197.559-.357.71-.478.156-.126.271-.24.346-.341.076-.106.156-.223.242-.35.049-.08.108-.08.178 0 .07.077.105.15.105.22 0 .33-.135.645-.404.949-.268.303-.661.612-1.177.925ZM33.86 17.368c.301 0 .56.099.775.296.215.197.392.455.532.773.14.314.242.655.306 1.024.07.364.105.718.105 1.062 0 .435-.07.865-.21 1.29-.134.42-.3.809-.5 1.168a7.531 7.531 0 0 1-.572.917 4.165 4.165 0 0 1-.42.508c-.059.056-.228.117-.508.182-.274.061-.594.12-.96.175-.366.05-.72.093-1.065.129-.338.035-.605.058-.798.068-.086.005-.154-.045-.202-.152-.048-.11-.03-.184.056-.22.248-.096.557-.225.928-.386.371-.167.756-.354 1.154-.562.403-.212.78-.434 1.129-.667.35-.233.635-.463.855-.69.22-.233.33-.453.33-.66 0-.177-.064-.245-.193-.205-.629.207-1.148.283-1.557.228-.408-.056-.672-.286-.79-.69-.113-.405-.051-1.027.185-1.866.156-.546.315-.938.476-1.176.167-.243.328-.394.484-.455.162-.06.315-.091.46-.091ZM28.894 16.45c-.193 0-.37-.027-.532-.083a4.297 4.297 0 0 0-.46-.137.755.755 0 0 0-.435.023c-.146.05-.301.185-.468.402-.038.046-.067.02-.089-.076a2.336 2.336 0 0 1-.04-.394 2.703 2.703 0 0 1 .024-.47c.021-.152.056-.256.105-.311.306-.319.556-.529.75-.63.194-.101.366-.139.516-.114.15.026.307.069.468.13.167.06.371.09.613.09.29 0 .492-.114.605-.341.113-.228.178-.579.194-1.054a41.96 41.96 0 0 0 .032-1.828c0-.946.132-1.818.395-2.617a8.868 8.868 0 0 1 1.057-2.192c.446-.662.941-1.254 1.484-1.774.549-.521 1.105-.971 1.67-1.35a55.02 55.02 0 0 0 1.823-1.275c.457-.333.815-.62 1.073-.857s.468-.46.63-.667c.16-.208.327-.443.5-.706.037-.055.096-.055.177 0 .08.056.118.12.113.19-.033.46-.127.867-.283 1.221-.15.35-.392.69-.726 1.024-.328.329-.766.693-1.315 1.092-.548.395-1.231.867-2.048 1.419-.673.455-1.221.841-1.646 1.16-.42.319-.745.614-.976.887a2.48 2.48 0 0 0-.492.842 4.089 4.089 0 0 0-.162 1.047c-.005.182-.026.485-.064.91-.032.425-.086.915-.161 1.471-.07.557-.17 1.123-.299 1.7-.123.576-.28 1.112-.468 1.607-.183.496-.403.898-.661 1.206-.258.304-.56.455-.904.455ZM25.684 27.266c.021-.283.102-.544.242-.781a3.18 3.18 0 0 1 .315-.47c.064-.061.145-.046.242.045.096.09.115.187.056.288-.054.076-.094.296-.121.66-.016.263-.027.564-.032.902v.979c0 .313-.008.574-.024.781-.027.39-.081.758-.162 1.107-.08.35-.164.645-.25.888-.08.237-.145.394-.194.47-.043.066-.12.056-.233-.03-.119-.086-.165-.172-.138-.258l.121-.296c.054-.136.092-.367.113-.69.027-.309.038-.675.033-1.1v-1.297c-.006-.445.005-.844.032-1.198ZM26.265 22.98c0 .066-.065.177-.194.334a5.122 5.122 0 0 1-.452.508 5.201 5.201 0 0 1-.508.463c-.161.127-.274.19-.339.19-.086 0-.215-.061-.387-.182a4.506 4.506 0 0 1-.532-.448 4.42 4.42 0 0 1-.476-.5c-.13-.162-.194-.284-.194-.364 0-.071.065-.185.194-.342a5.1 5.1 0 0 1 .452-.508c.177-.177.346-.329.508-.455.156-.126.269-.19.339-.19.059 0 .131.071.217.213.086.141.261.338.525.591.263.243.47.405.62.486.151.08.227.149.227.204Zm2.476-.265c0 .066-.064.18-.194.341a5.109 5.109 0 0 1-.451.508 5.203 5.203 0 0 1-.508.463c-.162.127-.275.19-.34.19-.085 0-.214-.06-.386-.182a5.056 5.056 0 0 1-.54-.448 4.401 4.401 0 0 1-.469-.508c-.129-.162-.193-.283-.193-.364 0-.07.064-.184.193-.341.124-.162.274-.331.452-.508a5.76 5.76 0 0 1 .508-.456c.162-.126.277-.19.347-.19.054 0 .124.074.21.22.091.142.269.337.532.585.258.248.463.412.613.493.15.076.226.141.226.197Z"/><path fill="#000" d="M26.999 15.404c.043-.046.072-.016.088.09.017.102.022.236.017.403 0 .161-.011.318-.033.47-.016.146-.04.243-.072.288-.167.233-.355.498-.565.796-.21.294-.438.58-.686.857-.242.273-.5.498-.774.675a1.492 1.492 0 0 1-.83.266c-.582 0-1.082-.392-1.501-1.176-.425-.783-.672-1.883-.742-3.299a1.38 1.38 0 0 1 .105-.546c.07-.197.155-.37.258-.516.102-.146.193-.24.274-.28.08-.046.124-.003.129.129.027.556.1 1.069.218 1.54.118.47.309.849.572 1.137.264.283.627.427 1.09.432a2.54 2.54 0 0 0 1.056-.19 3.2 3.2 0 0 0 .79-.5c.227-.202.428-.394.606-.576Z"/><path fill="#000" d="M22.74 9.715a116.289 116.289 0 0 0-.073 2.7V14.6c0 .384.062.7.185.948.124.248.234.44.331.576.049.066.03.142-.056.228a1.167 1.167 0 0 1-.347.227c-.145.06-.282.096-.412.106-.123.01-.201-.022-.233-.098a7.603 7.603 0 0 1-.815 2.245c-.387.713-.998 1.461-1.831 2.245-.092.086-.167.068-.226-.053a1.312 1.312 0 0 1-.097-.516 2.36 2.36 0 0 1 .056-.645c.049-.212.138-.366.267-.462 1.339-.991 2.016-2.192 2.032-3.603.006-.566.003-1.107-.008-1.623a55.368 55.368 0 0 1-.008-1.654c.006-.591.033-1.279.081-2.063.027-.42.116-.821.266-1.205.156-.385.323-.718.5-1.002.178-.283.32-.48.428-.591.08-.086.15-.068.21.053.059.121.078.217.056.288-.032.111-.086.28-.161.508-.07.228-.119.63-.145 1.206ZM14.834 21.577c.447 0 .81.15 1.09.448.279.298.419.65.419 1.054 0 .268-.08.551-.242.85a2.28 2.28 0 0 1-.654.743c-.274.202-.58.303-.92.303-.333 0-.596-.08-.79-.242a1.325 1.325 0 0 1-.411-.592 2.124 2.124 0 0 1-.121-.683c0-.308.08-.604.242-.887.161-.288.368-.526.621-.713.247-.187.503-.28.766-.28Zm-.451.82a.635.635 0 0 0-.468.22.685.685 0 0 0-.218.508c0 .232.116.41.347.53.231.117.462.175.694.175.236 0 .446-.053.629-.16.182-.106.274-.217.274-.333 0-.121-.07-.255-.21-.402a1.9 1.9 0 0 0-.492-.38 1.159 1.159 0 0 0-.556-.159Z"/><path fill="#000" d="M18.02 17.368c.302 0 .56.099.775.296.215.197.393.455.532.773.14.314.242.655.307 1.024.07.364.105.718.105 1.062a4.1 4.1 0 0 1-.21 1.29c-.134.42-.301.809-.5 1.168a7.531 7.531 0 0 1-.573.917 4.156 4.156 0 0 1-.42.508c-.058.056-.228.117-.508.182-.274.061-.594.12-.96.175-.365.05-.72.093-1.064.129-.339.035-.605.058-.799.068-.086.005-.153-.045-.201-.152-.049-.11-.03-.184.056-.22.247-.096.557-.225.928-.386.37-.167.755-.354 1.153-.562.404-.212.78-.434 1.13-.667.35-.233.634-.463.855-.69.22-.233.33-.453.33-.66 0-.177-.064-.245-.193-.205-.63.207-1.148.283-1.557.228-.409-.056-.672-.286-.79-.69-.114-.405-.052-1.027.185-1.866.156-.546.315-.938.476-1.176.166-.243.328-.394.484-.455.161-.06.314-.091.46-.091ZM15.886 3.177a6.44 6.44 0 0 0-.718.478c-.156.127-.272.24-.347.342-.07.1-.148.217-.234.348-.054.081-.115.081-.185 0-.07-.08-.105-.154-.105-.22 0-.328.134-.644.403-.948.269-.303.664-.611 1.186-.925a7.17 7.17 0 0 0 .71-.478c.156-.126.271-.24.346-.341.076-.106.157-.223.242-.349.049-.08.108-.08.178 0 .07.076.105.15.105.22 0 .329-.135.645-.403.948-.27.303-.662.612-1.178.925ZM17.427 7.455c0 .066-.065.18-.194.341a5.106 5.106 0 0 1-.452.509 5.177 5.177 0 0 1-.508.462c-.161.127-.274.19-.339.19-.086 0-.215-.063-.387-.19a4.522 4.522 0 0 1-.532-.447 4.43 4.43 0 0 1-.476-.5c-.13-.163-.194-.284-.194-.365 0-.07.065-.184.194-.341.123-.162.274-.331.451-.508.178-.177.347-.33.509-.455.156-.127.268-.19.338-.19.06.005.132.078.218.22.086.136.261.331.525.584.263.243.47.404.62.485.151.081.227.15.227.205ZM14.256 17.254a12.98 12.98 0 0 1-1 .88 3.365 3.365 0 0 1-1.016.561c-.344.111-.71.111-1.097 0-.07-.02-.124-.121-.162-.303a3.122 3.122 0 0 1-.056-.614c0-.228.019-.423.056-.584.033-.162.086-.233.162-.213.28.076.494.157.645.243.15.086.298.152.444.197.145.04.35.04.613 0 .22-.035.449-.126.685-.273.237-.152.47-.341.702-.569.479-.47.941-.885 1.388-1.244.446-.359.93-.71 1.452-1.054a52.088 52.088 0 0 1 1.83-1.145c.12-.071.178-.076.178-.015 0 .06-.035.151-.105.273-.07.121-.158.245-.266.371a1.323 1.323 0 0 1-.298.273c-.79.506-1.541 1.032-2.25 1.578a19.856 19.856 0 0 0-1.905 1.638Zm2.13-6.014c.393 0 .691.07.895.212.21.142.337.303.38.486a.54.54 0 0 1-.105.485c-.108.142-.285.212-.533.212a.927.927 0 0 1-.427-.09 3.7 3.7 0 0 0-.404-.175c-.145-.06-.344-.091-.597-.091-.269 0-.497.073-.685.22a1.657 1.657 0 0 0-.436.493c-.102.177-.156.318-.161.424-.01.142.024.322.105.539.086.217.218.417.395.6.183.181.411.297.686.348.28.045.61-.025.992-.212l-2.404 2.04c-.554-.116-.952-.306-1.194-.569-.237-.268-.355-.554-.355-.857 0-.192.065-.417.194-.675.134-.263.406-.63.815-1.1.263-.293.537-.617.822-.97.29-.36.603-.668.936-.926a1.712 1.712 0 0 1 1.081-.394ZM9.376 13.56c0 .066-.064.178-.194.334a5.102 5.102 0 0 1-.451.508 5.182 5.182 0 0 1-.508.463c-.162.127-.275.19-.34.19-.085 0-.214-.061-.386-.182a4.52 4.52 0 0 1-.533-.448 4.424 4.424 0 0 1-.476-.5c-.129-.162-.193-.284-.193-.364 0-.071.064-.185.193-.342.124-.162.274-.33.452-.508.177-.177.347-.329.508-.455.156-.126.269-.19.339-.19.06 0 .132.071.218.213.086.141.26.339.524.591.264.243.47.405.621.486.15.08.226.149.226.205Zm2.476-.265c0 .066-.064.18-.193.341a5.11 5.11 0 0 1-.452.509 5.201 5.201 0 0 1-.508.462c-.161.127-.274.19-.339.19-.086 0-.215-.06-.387-.182a5.025 5.025 0 0 1-.54-.448 4.403 4.403 0 0 1-.468-.508c-.13-.162-.194-.283-.194-.364 0-.07.065-.184.194-.341.123-.162.274-.331.451-.508.178-.177.347-.329.509-.455.16-.127.277-.19.346-.19.054 0 .124.073.21.22.092.141.27.336.533.584.258.248.462.412.613.493.15.076.225.141.225.197Z"/><path fill="#000" d="M11.143 16.754c.134.035.234.149.298.341.07.192.105.402.105.63 0 .227-.035.417-.105.568-.064.152-.164.21-.298.175a3.326 3.326 0 0 0-.96-.144c-.285 0-.57.065-.855.197-.285.126-.605.331-.96.614-.35.278-.77.647-1.259 1.107-.021.02-.072.008-.153-.037-.08-.051-.15-.107-.21-.167-.064-.06-.086-.104-.064-.13.204-.212.435-.47.694-.773.258-.303.535-.612.83-.925.302-.319.613-.604.936-.857.328-.253.659-.44.992-.561a1.604 1.604 0 0 1 1.009-.038Z"/><path fill="#000" d="M5.375 18.475c.333 0 .613.079.839.235.226.152.4.342.524.57.124.222.197.447.218.674.027.223.003.405-.073.546-.021.046-.115.12-.282.22a14.83 14.83 0 0 1-.54.296 5.157 5.157 0 0 1-.468.228c-.124.045-.159.04-.105-.015a.687.687 0 0 0 .202-.57.977.977 0 0 0-.275-.629c-.166-.187-.414-.28-.742-.28-.253 0-.468.136-.645.41a4.4 4.4 0 0 0-.468 1.023 23.36 23.36 0 0 0-.371 1.229c-.113.41-.234.75-.363 1.024-.043.09-.148.192-.315.303a5 5 0 0 1-.952.5c-.102.041-.112.036-.032-.015.188-.121.355-.343.5-.667.146-.329.288-.71.428-1.145.145-.435.298-.88.46-1.335.166-.46.357-.885.572-1.274.22-.395.484-.713.791-.956a1.69 1.69 0 0 1 1.097-.372Zm3.025.842c.468 0 .799.127.992.38.2.252.299.558.299.917 0 .657-.202 1.19-.605 1.6-.398.405-.941.724-1.63.956-.688.233-1.468.415-2.34.546-.87.127-1.776.24-2.718.341-.064.006-.026-.027.113-.098.14-.076.323-.162.549-.258.231-.101.452-.192.661-.273.21-.08.35-.126.42-.137 1.468-.202 2.568-.498 3.3-.887.73-.39 1.096-.768 1.096-1.138 0-.187-.083-.351-.25-.493a.907.907 0 0 0-.621-.212c-.253 0-.519.116-.799.349-.274.227-.588.52-.943.88-.35.359-.767.74-1.25 1.145-.485.405-1.063.786-1.735 1.145-.672.36-1.466.648-2.38.865-.032.005-.078-.023-.137-.084a.63.63 0 0 1-.145-.197c-.032-.07-.022-.114.032-.129a7.847 7.847 0 0 0 1.936-.735c.581-.319 1.11-.675 1.59-1.07.478-.394.919-.791 1.322-1.19.409-.4.793-.767 1.154-1.1.36-.34.71-.61 1.048-.812a2 2 0 0 1 1.041-.31Z"/></svg>