<svg xmlns="http://www.w3.org/2000/svg" width="110" height="16" fill="none"><path fill="gray" d="M10.182 15.393H0l.115-.595.192-.01.653-.047c.37-.026.617-.086.739-.182.121-.103.23-.336.326-.701l.25-.95 1.842-9.232.134-.95c.045-.365.03-.599-.048-.701-.076-.102-.297-.166-.662-.192l-.643-.038-.172-.02.115-.585h5.566l-.115.585-.192.02-.653.038c-.37.026-.617.09-.739.192-.121.102-.23.336-.326.7l-.25.95-1.842 9.233c-.173.85-.208 1.34-.106 1.468.103.128.576.192 1.42.192h1.45c.902 0 1.506-.054 1.814-.163.313-.115.515-.345.604-.691l.22-.97.049-.191h1.008l-.567 2.84Zm6.45-10.422-1.584 7.937c-.154.755-.195 1.244-.125 1.468.07.218.307.34.71.365l.643.048.173.01-.115.595h-5.451l.115-.595.192-.01.653-.048c.37-.026.617-.086.739-.182.121-.103.23-.336.326-.701l.25-.95 1.084-5.451.134-.94c.045-.365.029-.599-.048-.701-.077-.103-.297-.167-.662-.192l-.633-.048-.183-.01.116-.595h3.665Zm-1.507-1.89.374-1.891h1.89l-.374 1.89h-1.89ZM29.597.24l-2.534 12.668c-.153.755-.195 1.244-.124 1.468.07.218.307.34.71.365l.643.048.172.01-.115.595H22.9l.114-.595.192-.01.653-.048c.371-.026.617-.086.739-.182.121-.103.23-.336.326-.701l.25-.95 2.034-10.182.135-.95c.044-.365.025-.596-.058-.692-.077-.102-.297-.166-.662-.191l-.634-.048-.182-.01.125-.595h3.666Zm5.23 4.731-1.583 7.937c-.154.755-.195 1.244-.125 1.468.07.218.307.34.71.365l.643.048.173.01-.115.595h-5.451l.115-.595.192-.01.652-.048c.372-.026.618-.086.74-.182.12-.103.23-.336.326-.701l.25-.95 1.084-5.451.134-.94c.045-.365.029-.599-.048-.701-.077-.103-.297-.167-.662-.192l-.634-.048-.182-.01.115-.595h3.666Zm-1.506-1.89.374-1.891h1.89l-.374 1.89h-1.89Zm2.946 12.428L38.82 2.726l.134-.95c.045-.365.026-.596-.058-.692-.076-.102-.297-.166-.662-.191l-.633-.048-.183-.01.125-.595h3.666l-1.343 6.689C41.1 5.47 42.47 4.741 43.973 4.741c1.177 0 2.022.464 2.534 1.391.512.928.61 2.176.297 3.743-.345 1.74-1.023 3.135-2.034 4.184-1.011 1.05-2.179 1.574-3.503 1.574-1.222 0-2.172-.473-2.85-1.42H38.3l-.499 1.296h-1.535Zm2.293-2.045c.858.743 1.747 1.114 2.668 1.114 1.747 0 2.899-1.395 3.455-4.184.595-2.956.045-4.434-1.65-4.434-1.14 0-2.236.544-3.292 1.631l-1.18 5.873Zm17.707 1.46c-1.299.473-2.444.71-3.436.71-1.529 0-2.671-.516-3.426-1.546-.749-1.03-.956-2.367-.624-4.011.314-1.568.998-2.847 2.054-3.839 1.056-.998 2.255-1.497 3.599-1.497 1.247 0 2.12.419 2.62 1.257.499.838.591 2.035.278 3.59l-.038.182H50.93c-.653 3.269.144 4.904 2.39 4.904 1.17 0 2.216-.24 3.138-.72l-.192.97Zm-5.173-5.75h4.319l.086-.422c.46-2.284.026-3.426-1.305-3.426-.717 0-1.357.349-1.92 1.046-.556.698-.95 1.632-1.18 2.803ZM68.868 6.93c1.388-1.459 2.738-2.188 4.05-2.188 1.516 0 2.258.73 2.226 2.188 1.51-1.459 2.895-2.188 4.155-2.188 1.869 0 2.598 1.024 2.188 3.07l-1.017 5.097c-.153.755-.198 1.244-.134 1.468.07.218.31.34.72.365l.633.048.173.01-.115.595h-5.451l.115-.595.192-.01.662-.048c.403-.026.681-.147.835-.365.16-.224.317-.713.47-1.468l.95-4.75c.16-.82.166-1.389.02-1.709-.148-.32-.497-.48-1.047-.48-.927 0-2.044.538-3.349 1.613l-1.065 5.326-.135.95c-.05.365-.038.598.039.7.083.097.307.157.671.183l.644.048.172.01-.115.595h-5.451l.115-.595.192-.01.662-.048c.403-.026.682-.147.835-.365.16-.224.317-.713.47-1.468l.95-4.75c.16-.813.167-1.38.02-1.7-.147-.326-.49-.489-1.027-.489-.998 0-2.124.538-3.378 1.613l-1.066 5.326c-.153.755-.195 1.244-.124 1.468.07.218.307.34.71.365l.643.048.173.01-.115.595h-5.451l.115-.595.192-.01.652-.048c.371-.026.618-.086.74-.182.12-.103.23-.336.325-.701l.25-.95 1.084-5.451.135-.94c.044-.365.028-.599-.048-.701-.077-.103-.298-.167-.662-.192l-.634-.048-.182-.01.115-.595h3.666l-.393 1.958Zm18.675 8.704c-1.503 0-2.6-.489-3.292-1.468-.684-.985-.857-2.313-.518-3.983.333-1.682 1.04-3.01 2.121-3.982 1.088-.973 2.4-1.46 3.935-1.46 1.535 0 2.649.487 3.34 1.46.697.972.88 2.293.547 3.963-.34 1.708-1.053 3.049-2.14 4.021-1.088.966-2.419 1.45-3.993 1.45Zm.144-.595c.877 0 1.69-.457 2.438-1.372.748-.915 1.263-2.082 1.545-3.503.275-1.375.22-2.524-.163-3.445-.378-.928-.989-1.392-1.833-1.392-.845 0-1.641.464-2.39 1.392-.749.921-1.26 2.076-1.535 3.464-.282 1.382-.237 2.537.134 3.465.371.928.972 1.391 1.804 1.391Zm12.841.298c-.518.198-.995.297-1.43.297-1.107 0-1.859-.278-2.255-.834-.397-.557-.474-1.443-.23-2.659l1.276-6.391h-1.536l.154-.778h1.535l.384-1.89 1.987-.47-.47 2.36h2.898l-.154.778h-2.898l-1.325 6.64c-.198.967-.223 1.623-.076 1.968.153.34.534.509 1.142.509.3 0 .684-.1 1.151-.298l-.153.768Zm6.89-10.365-1.583 7.937c-.154.755-.195 1.244-.125 1.468.071.218.307.34.71.365l.643.048.173.01-.115.595h-5.451l.115-.595.192-.01.653-.048c.371-.026.617-.086.739-.182.121-.103.23-.336.326-.701l.249-.95 1.085-5.451.134-.94c.045-.365.029-.599-.048-.701-.077-.103-.297-.167-.662-.192l-.633-.048-.183-.01.115-.595h3.666Zm-4.165-1.89L106.18 0h2.131L110 3.08h-.825L107.054.95l-2.975 2.13h-.826Z"/></svg>