<svg xmlns="http://www.w3.org/2000/svg" width="121" height="12" fill="none"><path fill="gray" d="M1.063 4.295h3.471l-.073.38-.117.005-.421.03c-.237.017-.395.058-.477.123-.077.065-.145.214-.202.446l-.165.6-.116.604c-.114.567-.12.962-.018 1.186.106.224.346.336.721.336.623 0 1.35-.291 2.182-.874l.25-1.253.086-.599c.029-.232.016-.38-.037-.446-.049-.065-.187-.106-.415-.122l-.41-.03-.11-.007.074-.379H8.75l-.073.38-.11.005-.422.03c-.236.017-.395.058-.477.123-.077.065-.144.214-.202.446l-.165.6-.69 3.47-.08.606c-.032.232-.024.38.025.446.053.06.195.1.428.116l.41.03.103.006-.073.38H3.959l.074-.38.122-.006.416-.03c.236-.016.393-.055.47-.116.078-.066.147-.214.208-.446l.159-.606.36-1.809c-.839.828-1.731 1.241-2.676 1.241-.55 0-.95-.19-1.198-.568-.245-.38-.304-.893-.177-1.54l.158-.795c.098-.48.125-.79.08-.929-.045-.142-.194-.222-.446-.238l-.404-.03-.116-.007.074-.379Zm9.106 3.472c-.114.982-.063 1.717.153 2.206.216.489.597.733 1.142.733.526 0 1.027-.285 1.504-.855.48-.57.805-1.265.972-2.084h-3.771Zm3.856-.453c.147-.733.086-1.38-.183-1.943-.265-.566-.644-.85-1.137-.85-.517 0-.982.235-1.393.703-.408.465-.76 1.161-1.058 2.09h3.771Zm-2.677 3.771c-.957 0-1.656-.312-2.096-.935-.436-.627-.546-1.473-.33-2.536.212-1.072.662-1.917 1.35-2.536.693-.62 1.529-.93 2.506-.93.978 0 1.687.31 2.127.93.444.619.56 1.46.349 2.524-.216 1.087-.67 1.941-1.363 2.56-.693.615-1.54.923-2.543.923Zm4.156-.153.33-1.656h.831l-.012.11a13.2 13.2 0 0 0-.043.3c-.065.431.041.647.318.647.42 0 .76-.22 1.02-.66.261-.444.5-1.208.716-2.291l.3-1.504c.097-.48.123-.79.079-.929-.045-.142-.194-.222-.446-.238l-.404-.03-.116-.007.073-.379h6.369l-.074.38-.11.005-.421.03c-.237.017-.394.058-.471.123-.077.061-.147.21-.208.446l-.165.6-.69 3.47-.08.606c-.032.232-.024.38.025.446.053.06.195.1.427.116l.41.03.104.006-.073.38h-3.466l.074-.38.116-.006.421-.03c.233-.016.387-.055.465-.116.081-.066.153-.214.214-.446l.159-.606.916-4.602h-2.297l-.538 2.702c-.27 1.336-.626 2.25-1.07 2.744-.444.493-1.133.74-2.066.74h-.617Zm10.432-3.165c-.113.982-.063 1.717.153 2.206.216.489.597.733 1.143.733.526 0 1.027-.285 1.504-.855.48-.57.804-1.265.971-2.084h-3.77Zm3.857-.453c.147-.733.085-1.38-.183-1.943-.265-.566-.644-.85-1.137-.85-.518 0-.982.235-1.394.703-.407.465-.76 1.161-1.057 2.09h3.77Zm-2.677 3.771c-.957 0-1.656-.312-2.096-.935-.436-.627-.546-1.473-.33-2.536.212-1.072.662-1.917 1.35-2.536.693-.62 1.528-.93 2.506-.93.978 0 1.687.31 2.127.93.444.619.56 1.46.348 2.524-.216 1.087-.67 1.941-1.363 2.56-.692.615-1.54.923-2.542.923Zm6.374-3.318c-.114.982-.063 1.717.153 2.206.216.489.597.733 1.143.733.526 0 1.027-.285 1.503-.855.481-.57.805-1.265.972-2.084h-3.77Zm3.857-.453c.146-.733.085-1.38-.184-1.943-.264-.566-.643-.85-1.136-.85-.518 0-.982.235-1.394.703-.407.465-.76 1.161-1.057 2.09h3.77Zm-2.677 3.771c-.958 0-1.656-.312-2.096-.935-.436-.627-.546-1.473-.33-2.536.212-1.072.662-1.917 1.35-2.536.693-.62 1.528-.93 2.506-.93.978 0 1.687.31 2.127.93.444.619.56 1.46.348 2.524-.216 1.087-.67 1.941-1.363 2.56-.692.615-1.54.923-2.542.923Zm5.36-.153.073-.379.122-.006.416-.03c.236-.016.393-.055.47-.116.078-.066.147-.214.208-.446l.16-.606.928-4.638h-.77l-.636.012c-.191 0-.32.027-.384.08-.062.052-.113.179-.153.378l-.135.514-.024.11h-.679l.3-1.51h6.331l-.3 1.51h-.677l.012-.11.073-.514c.04-.2.039-.326-.006-.379-.04-.052-.157-.079-.348-.079l-.63-.012h-.77l-.929 4.638c-.098.481-.124.793-.08.935.046.14.196.216.453.233l.41.03.103.006-.073.38H40.03Zm10.292 0 .073-.379.122-.006.416-.03c.236-.016.393-.055.47-.116.078-.066.147-.214.208-.446l.159-.606.929-4.638h-.77l-.636.012c-.191 0-.32.027-.385.08-.06.052-.112.179-.153.378l-.134.514-.024.11h-.679l.3-1.51h6.331l-.3 1.51h-.678l.013-.11.073-.514c.04-.2.039-.326-.006-.379-.04-.052-.157-.079-.349-.079l-.629-.012h-.77l-.929 4.638c-.098.481-.124.793-.08.935.045.14.196.216.453.233l.41.03.103.006-.073.38h-3.465Zm8.672.153c-.958 0-1.656-.312-2.096-.935-.436-.627-.546-1.473-.33-2.536.211-1.072.662-1.917 1.35-2.536.693-.62 1.528-.93 2.506-.93.978 0 1.687.31 2.127.93.444.619.56 1.46.348 2.524-.216 1.087-.67 1.941-1.363 2.56-.692.615-1.54.923-2.542.923Zm.092-.379c.558 0 1.075-.291 1.552-.874.477-.582.805-1.326.984-2.23.175-.876.14-1.608-.104-2.194-.24-.591-.63-.887-1.167-.887-.538 0-1.045.296-1.522.887-.477.586-.803 1.322-.978 2.206-.18.88-.15 1.615.086 2.206.236.59.619.886 1.149.886Zm4.064.226.33-1.656h.83l-.011.11a12.65 12.65 0 0 0-.043.3c-.065.431.04.647.318.647.42 0 .76-.22 1.02-.66.261-.444.5-1.208.715-2.291l.3-1.504c.098-.48.124-.79.08-.929-.046-.142-.194-.222-.447-.238l-.403-.03-.116-.007.073-.379h6.368l-.073.38-.11.005-.422.03c-.236.017-.393.058-.47.123-.078.061-.147.21-.208.446l-.165.6-.69 3.47-.08.606c-.033.232-.025.38.024.446.053.06.196.1.428.116l.41.03.103.006-.073.38h-3.465l.073-.38.116-.006.422-.03c.232-.016.387-.055.464-.116.082-.066.153-.214.214-.446l.16-.606.916-4.602H67.44l-.538 2.702c-.269 1.336-.625 2.25-1.07 2.744-.444.493-1.132.74-2.065.74h-.617Zm8.14 0 .074-.379.122-.006.415-.03c.237-.016.394-.055.471-.116.077-.066.147-.214.208-.446l.159-.606.69-3.47.086-.6c.028-.232.018-.38-.03-.446-.05-.065-.19-.106-.422-.122l-.404-.03-.116-.007.073-.379h3.472l-.073.38-.117.005-.421.03c-.237.017-.396.058-.477.123-.082.065-.149.214-.202.446-.036.147-.091.347-.165.6l-.28 1.423h.366c.986 0 1.693.159 2.12.477.432.314.585.786.459 1.418-.118.578-.404 1.012-.856 1.301-.448.29-1.065.434-1.851.434h-3.3Zm2.983-3.251-.404 2.017-.055.391c-.04.187-.016.312.074.373.093.06.293.091.599.091.427 0 .772-.11 1.032-.33.261-.22.436-.552.526-.996.102-.513.03-.898-.214-1.155-.24-.26-.654-.391-1.24-.391h-.318ZM89.179.524h.293a6.497 6.497 0 0 1-.061.434c-.09.46-.291.807-.605 1.04-.314.227-.738.342-1.271.342h-.404c-.774 0-1.346.075-1.717.226-.37.146-.713.436-1.027.868-.448.631-.8 1.595-1.057 2.89.44-.676.91-1.183 1.412-1.522a2.804 2.804 0 0 1 1.595-.507c.986 0 1.707.3 2.163.899.457.599.583 1.41.38 2.432-.217 1.08-.673 1.927-1.37 2.542-.692.612-1.542.917-2.548.917-1.047 0-1.762-.352-2.145-1.057-.38-.71-.426-1.77-.141-3.184.35-1.748.868-3.093 1.552-4.034.432-.595.887-.998 1.363-1.21.481-.212 1.172-.318 2.072-.318h.342c.404 0 .677-.047.82-.14.146-.094.264-.3.354-.618Zm-4.107 10.182c.554 0 1.07-.289 1.546-.868.477-.582.807-1.324.99-2.224.163-.82.118-1.514-.134-2.084-.253-.57-.642-.856-1.168-.856-.525 0-1.028.285-1.51.856-.476.57-.798 1.269-.965 2.096-.175.876-.145 1.61.092 2.2.236.587.62.88 1.149.88Zm3.99.226.074-.379.122-.006.416-.03c.236-.016.393-.055.47-.116.078-.066.147-.214.208-.446l.159-.606.69-3.47.086-.6c.029-.232.018-.38-.03-.446-.05-.065-.19-.106-.422-.122l-.403-.03-.117-.007.074-.379h3.392l-.074.38-.11.005-.348.03c-.26.021-.442.1-.544.24-.102.138-.202.447-.3.928l-.837 4.187 4.327-5.77h2.335l-.073.38-.117.005-.415.03c-.26.017-.442.097-.544.24-.102.138-.202.447-.3.928l-.69 3.471c-.098.481-.124.793-.08.935.045.14.196.216.453.233l.41.03.103.006-.073.38h-3.392l.073-.38.122-.006.343-.03c.24-.02.397-.061.47-.122.078-.062.145-.208.202-.44l.165-.606.837-4.186-4.327 5.77h-2.334Zm9.54-6.637h3.472l-.073.38-.116.005-.422.03c-.236.017-.395.058-.477.123-.077.065-.144.214-.201.446l-.165.6-.117.604c-.114.567-.12.962-.018 1.186.106.224.346.336.721.336.624 0 1.351-.291 2.182-.874l.251-1.253.085-.599c.029-.232.016-.38-.037-.446-.048-.065-.187-.106-.415-.122l-.41-.03-.11-.007.074-.379h3.465l-.073.38-.11.005-.422.03c-.236.017-.395.058-.477.123-.077.065-.144.214-.201.446l-.165.6-.691 3.47-.079.606c-.033.232-.025.38.024.446.053.06.196.1.428.116l.409.03.104.006-.073.38H101.5l.073-.38.122-.006.416-.03c.236-.016.393-.055.47-.116.078-.066.147-.214.208-.446l.159-.606.361-1.809c-.84.828-1.732 1.241-2.677 1.241-.55 0-.95-.19-1.198-.568-.245-.38-.304-.893-.177-1.54l.158-.795c.098-.48.125-.79.08-.929-.045-.142-.194-.222-.446-.238l-.404-.03-.116-.007.074-.379Zm6.815 6.637.073-.379.123-.006.415-.03c.237-.016.393-.055.471-.116.077-.066.146-.214.208-.446l.158-.606.691-3.47.086-.6c.028-.232.018-.38-.031-.446-.049-.065-.189-.106-.422-.122l-.403-.03-.116-.007.073-.379h3.392l-.073.38-.11.005-.349.03c-.26.021-.442.1-.543.24-.102.138-.202.447-.3.928l-.837 4.187 4.327-5.77h2.334l-.073.38-.116.005-.416.03c-.26.017-.442.097-.544.24-.101.138-.201.447-.299.928l-.691 3.471c-.097.481-.124.793-.079.935.045.14.195.216.452.233l.41.03.104.006-.074.38h-3.392l.074-.38.122-.006.342-.03c.24-.02.397-.061.471-.122.077-.062.144-.208.201-.44l.165-.606.838-4.186-4.327 5.77h-2.335Zm8.287 0 .074-.379.122-.006.415-.03c.237-.016.394-.055.471-.116.077-.066.147-.214.208-.446l.159-.606.69-3.47.086-.6c.028-.232.018-.38-.031-.446-.049-.065-.189-.106-.421-.122l-.404-.03-.116-.007.074-.379h5.958l-.318 1.583h-.678l.018-.11.08-.587c.041-.2.039-.326-.006-.379-.041-.052-.157-.079-.349-.079l-.623-.012h-1.827l-.929 4.638c-.098.481-.125.793-.08.935.045.14.196.216.453.233l.409.03.11.006-.073.38h-3.472Z"/></svg>