<svg xmlns="http://www.w3.org/2000/svg" width="120" height="14" fill="none"><path fill="gray" d="M3.594 13.94 1.326 3.167l-.28-1.108c-.063-.28-.139-.451-.226-.515-.087-.07-.302-.113-.646-.13L0 1.395.105.864h4.684l-.104.532h-.192c-.896 0-1.367.116-1.414.349-.017.087.061.56.236 1.422l1.718 8.13 4.763-8.14c.466-.79.71-1.25.733-1.377.047-.245-.133-.367-.54-.367l-.646-.017H9.15l.105-.532h3.332l-.105.532-.2.017c-.489.023-.835.207-1.038.55l-.733 1.195L4.187 13.94h-.593Zm13.4-1.465c-1.228 1.011-2.341 1.517-3.342 1.517-.802 0-1.422-.253-1.858-.759-.43-.511-.57-1.151-.419-1.919.42-2.093 2.327-3.14 5.723-3.14h.358l.235-1.178c.303-1.494-.113-2.242-1.247-2.242-1.128 0-1.861.567-2.199 1.701l-.043.166h-1.17l.35-1.736c1.314-.53 2.483-.794 3.507-.794 2.07 0 2.916.945 2.538 2.835l-.846 4.223c-.273 1.372-.116 2.058.471 2.058.11 0 .27-.026.48-.078l-.079.645c-.442.146-.828.218-1.16.218-.843 0-1.276-.506-1.3-1.517Zm-.358-.192.715-3.568h-.401c-2.152 0-3.385.785-3.7 2.355-.11.547-.025 1 .254 1.36.28.361.683.542 1.213.542.505 0 1.145-.23 1.919-.69Zm4.457 1.596 2.32-11.62.123-.863c.04-.332.023-.541-.052-.628-.07-.093-.27-.152-.602-.175L22.306.55 22.14.54l.114-.54h3.332l-1.221 6.08c1.122-1.326 2.367-1.989 3.733-1.989 1.07 0 1.838.422 2.303 1.265.465.843.556 1.978.27 3.402-.313 1.582-.93 2.85-1.849 3.804-.918.954-1.98 1.43-3.184 1.43-1.11 0-1.974-.43-2.59-1.29h-.105l-.454 1.177h-1.396Zm2.085-1.858c.78.675 1.588 1.012 2.425 1.012 1.588 0 2.635-1.268 3.14-3.804.542-2.686.042-4.03-1.5-4.03-1.035 0-2.032.495-2.992 1.483l-1.073 5.339Zm14.438.454c-1.227 1.011-2.341 1.517-3.341 1.517-.803 0-1.422-.253-1.859-.759-.43-.511-.57-1.151-.418-1.919.418-2.093 2.326-3.14 5.722-3.14h.358l.235-1.178c.303-1.494-.113-2.242-1.247-2.242-1.128 0-1.861.567-2.198 1.701l-.044.166h-1.169l.35-1.736c1.313-.53 2.482-.794 3.506-.794 2.07 0 2.916.945 2.538 2.835l-.846 4.223c-.273 1.372-.116 2.058.471 2.058.11 0 .27-.026.48-.078l-.078.645c-.442.146-.83.218-1.16.218-.844 0-1.277-.506-1.3-1.517Zm-.358-.192.715-3.568h-.401c-2.152 0-3.385.785-3.699 2.355-.11.547-.026 1 .253 1.36.28.361.684.542 1.213.542.506 0 1.145-.23 1.919-.69Zm9.831 1.003.48-2.408h.968l-.008.166-.114.907c-.052.448.105.811.471 1.09.372.274.881.41 1.527.41.53 0 .992-.156 1.387-.47.401-.32.651-.73.75-1.23.163-.791-.227-1.382-1.169-1.771l-.811-.34c-1.657-.693-2.364-1.658-2.12-2.897.157-.767.59-1.401 1.3-1.901.715-.5 1.547-.75 2.495-.75a7.64 7.64 0 0 1 2.765.531l-.453 2.26h-.969l.035-.157.079-.794c.093-.872-.39-1.309-1.448-1.309a2.1 2.1 0 0 0-1.361.489c-.396.32-.643.727-.742 1.221-.081.407-.011.736.21.986.22.244.703.532 1.448.864l.741.331c.803.36 1.338.736 1.605 1.125.274.384.35.882.227 1.492-.169.838-.642 1.524-1.422 2.059-.773.535-1.69.802-2.748.802-1.157 0-2.198-.235-3.123-.706Zm12.972.706c-1.367 0-2.364-.445-2.992-1.334-.622-.896-.78-2.103-.471-3.62.302-1.53.945-2.737 1.928-3.62.988-.885 2.18-1.327 3.576-1.327s2.408.442 3.036 1.326c.634.884.8 2.085.497 3.603-.308 1.553-.956 2.771-1.945 3.655-.989.878-2.198 1.317-3.629 1.317Zm.13-.54c.798 0 1.536-.416 2.217-1.248.68-.832 1.148-1.893 1.404-3.184.25-1.25.2-2.294-.148-3.132-.343-.843-.899-1.265-1.666-1.265-.768 0-1.492.422-2.172 1.265-.68.838-1.146 1.888-1.396 3.15-.256 1.256-.215 2.305.122 3.149.337.843.884 1.265 1.64 1.265Zm-.662-10.87c.506-1.367 1.308-2.05 2.408-2.05.354 0 .668.11.942.332l.261.218c.274.215.559.322.855.322.582 0 .986-.287 1.213-.863h.532c-.494 1.36-1.294 2.041-2.399 2.041-.349 0-.663-.11-.942-.331l-.27-.21c-.268-.22-.55-.331-.847-.331-.54 0-.945.29-1.212.872h-.541ZM70.756 6.08c1.14-1.326 2.413-1.989 3.82-1.989.815 0 1.4.268 1.754.803.355.535.44 1.27.253 2.207l-.88 4.414-.114.864c-.047.331-.035.543.035.636.075.088.279.143.61.166l.585.044.148.008-.105.541h-4.946l.105-.54.166-.01.602-.043c.331-.023.552-.078.663-.166.116-.093.218-.305.305-.636l.227-.864.828-4.144c.163-.814.17-1.378.018-1.692-.145-.32-.489-.48-1.03-.48-.779 0-1.831.486-3.157 1.457l-.969 4.859c-.14.686-.177 1.131-.113 1.335.064.197.28.308.645.331l.585.044.157.008-.105.541h-4.955l.105-.54.175-.01.593-.043c.337-.023.56-.078.671-.166.11-.093.21-.305.297-.636l.227-.864.986-4.955.122-.855c.04-.331.026-.544-.044-.637-.07-.093-.27-.15-.602-.174l-.576-.044-.165-.008.104-.541h3.333l-.358 1.78Zm13.094 6.395c-1.227 1.011-2.34 1.517-3.341 1.517-.803 0-1.422-.253-1.858-.759-.43-.511-.57-1.151-.419-1.919.419-2.093 2.326-3.14 5.723-3.14h.357l.236-1.178c.302-1.494-.114-2.242-1.248-2.242-1.128 0-1.86.567-2.198 1.701l-.044.166H79.89l.35-1.736c1.314-.53 2.483-.794 3.506-.794 2.07 0 2.917.945 2.539 2.835l-.846 4.223c-.274 1.372-.117 2.058.47 2.058.111 0 .271-.026.48-.078l-.078.645c-.442.146-.829.218-1.16.218-.844 0-1.277-.506-1.3-1.517Zm-.358-.192.716-3.568h-.402c-2.151 0-3.384.785-3.698 2.355-.11.547-.027 1 .253 1.36.279.361.683.542 1.212.542.506 0 1.146-.23 1.92-.69Zm4.388 1.003.48-2.408h.968l-.008.166-.114.907c-.052.448.105.811.471 1.09.372.274.881.41 1.527.41.53 0 .991-.156 1.387-.47.401-.32.651-.73.75-1.23.163-.791-.227-1.382-1.169-1.771l-.811-.34c-1.658-.693-2.364-1.658-2.12-2.897.157-.767.59-1.401 1.3-1.901.715-.5 1.547-.75 2.495-.75.924 0 1.846.177 2.765.531l-.454 2.26h-.968l.035-.157.079-.794c.093-.872-.39-1.309-1.448-1.309-.507 0-.96.163-1.361.489-.396.32-.643.727-.742 1.221-.081.407-.011.736.21.986.22.244.703.532 1.448.864l.741.331c.803.36 1.338.736 1.605 1.125.273.384.35.882.227 1.492-.169.838-.643 1.524-1.422 2.059-.773.535-1.69.802-2.748.802-1.157 0-2.198-.235-3.123-.706Zm13.993.436c-.471.18-.905.27-1.3.27-1.006 0-1.69-.253-2.05-.759-.36-.506-.43-1.31-.21-2.416l1.16-5.81h-1.395l.14-.706h1.395l.35-1.719 1.805-.427-.427 2.146h2.634l-.14.706h-2.634l-1.204 6.037c-.18.878-.204 1.474-.07 1.788.14.308.486.463 1.038.463.274 0 .623-.09 1.047-.27l-.139.697Zm6.263-9.421-1.439 7.214c-.14.686-.178 1.131-.114 1.335.064.197.279.308.646.331l.584.044.157.008-.104.541h-4.955l.104-.54.175-.01.593-.043c.337-.023.561-.078.672-.166.11-.093.209-.305.296-.636l.227-.864.986-4.955.122-.855c.041-.331.026-.544-.044-.637-.069-.093-.27-.15-.601-.174l-.576-.044-.166-.008.105-.541h3.332Zm-1.369-1.719.34-1.718h1.718l-.34 1.718h-1.718Zm5.888 6.534-.48 2.399-.122.864c-.07.36-.055.584.044.671.104.082.43.14.977.175l.157.008-.105.541h-4.737l.105-.54.174-.01.593-.043c.338-.023.562-.078.672-.166.111-.093.209-.305.297-.636l.227-.864 1.849-9.256.122-.863c.041-.332.023-.541-.052-.628-.07-.093-.271-.152-.602-.175l-.576-.043-.166-.01.114-.54h3.332l-1.736 8.689h.41l2.617-2.112 1.544-1.325c.105-.088.163-.16.175-.219.023-.11-.07-.165-.28-.165l-.82-.026h-.183l.105-.541H120l-.105.54-.165.01c-.629.04-1.039.116-1.23.226-.192.105-.838.61-1.937 1.518l-1.989 1.631 2.181 3.341.733 1.03c.197.285.351.453.462.506.11.052.372.093.785.122l.157.008-.105.541h-2.66l-3.062-4.658h-.41Z"/></svg>