<svg xmlns="http://www.w3.org/2000/svg" width="120" height="21"><defs><clipPath id="a"><path fill="#fff" d="M0 0h120v21H0z"/></clipPath></defs><g clip-path="url(#a)"><path fill="#fff" d="M0 0h120v21H0z"/><path fill="#4D4D4D" d="M5.57 17.208 2.079 3.92c-.332-1.22-.545-1.888-.641-2.003-.096-.115-.498-.172-1.205-.172L0 1.723v-.657h5.858v.657h-.21c-.715 0-1.168.036-1.36.108-.191.071-.287.237-.287.495 0 .237.107.768.32 1.594l2.421 9.271 3.77-11.931h.773l3.769 12.265 2.83-9.594c.316-1.092.475-1.702.475-1.831 0-.251-.575-.377-1.725-.377h-.198v-.657h4.498v.657l-.199.022c-.788.043-1.225.11-1.31.204-.085.093-.319.75-.702 1.97l-4 13.29h-.741L10.124 4.942l-3.79 12.265H5.57Zm20.017-11.9v8.907c0 .976.081 1.557.243 1.744.162.187.697.309 1.603.366l.21.011v.668h-6.278v-.668l.21-.01c.892-.058 1.42-.182 1.586-.372.166-.19.249-.77.249-1.74V8.099c0-.97-.083-1.547-.249-1.734-.166-.186-.694-.312-1.586-.377l-.21-.01V5.31h4.222Zm-2.177-2.12V1.066h2.177v2.122H23.41Zm9.118 8.065v2.962c0 .962.076 1.541.227 1.739.151.197.599.32 1.343.371l.21.011v.668h-6.002v-.668l.21-.01c.892-.058 1.42-.182 1.586-.372.166-.19.249-.77.249-1.74V2.79c0-.97-.083-1.549-.249-1.74-.166-.19-.694-.313-1.586-.37l-.21-.011V0h4.222v10.726h.52l2.785-2.606c1.194-1.185 1.79-1.82 1.79-1.907 0-.136-.202-.21-.607-.22a37.7 37.7 0 0 0-.84-.016h-.232v-.668h4.675v.668l-.21.01c-.781.05-1.28.142-1.498.275-.217.133-.908.76-2.072 1.88l-2.1 2.013 3.603 4.124c.914 1.005 1.487 1.588 1.719 1.75.232.162.635.26 1.21.296l.21.011v.668H38.11l-5.062-5.75h-.52ZM49.44 16.94c-.553.223-1.08.334-1.58.334-1.275 0-2.206-.313-2.791-.937-.586-.625-.879-1.619-.879-2.983V6.181h-1.768V5.31h1.768V3.187l2.188-.527v2.649h3.338v.872h-3.338v7.452c0 1.005.137 1.72.41 2.143.272.424.736.635 1.392.635.346 0 .766-.11 1.26-.334v.862Zm5.549-11.63v8.906c0 .976.08 1.557.243 1.744.162.187.696.309 1.602.366l.21.011v.668h-6.278v-.668l.21-.01c.892-.058 1.42-.182 1.587-.372.165-.19.248-.77.248-1.74V8.099c0-.97-.083-1.547-.248-1.734-.166-.186-.695-.312-1.587-.377l-.21-.01V5.31h4.223ZM52.81 3.187v-2.12h2.178v2.12H52.81Zm11.307 14.086c-1.768 0-3.165-.548-4.189-1.642-1.024-1.095-1.536-2.587-1.536-4.475 0-1.888.512-3.377 1.536-4.469 1.024-1.09 2.42-1.637 4.19-1.637 1.775 0 3.173.546 4.194 1.637 1.02 1.092 1.53 2.581 1.53 4.47 0 1.887-.512 3.379-1.536 4.474-1.024 1.094-2.42 1.642-4.189 1.642Zm0-.668c.98 0 1.794-.515 2.443-1.545.648-1.03.972-2.332.972-3.904 0-1.558-.324-2.855-.972-3.893-.649-1.037-1.463-1.556-2.443-1.556-.973 0-1.783.519-2.431 1.556-.649 1.038-.973 2.335-.973 3.893 0 1.572.322 2.874.967 3.904.645 1.03 1.457 1.545 2.437 1.545Zm11.473-9.1c.553-.818 1.19-1.431 1.912-1.84.722-.41 1.529-.615 2.42-.615 1.032 0 1.843.33 2.432.991.582.66.873 1.569.873 2.725v5.449c.052 1.07.137 1.672.255 1.809.118.136.648.237 1.591.301l.2.011v.668h-6.268v-.668l.2-.01c.942-.065 1.473-.166 1.59-.302.119-.137.203-.74.255-1.81V9.1c0-1.005-.135-1.703-.403-2.094-.27-.391-.75-.587-1.443-.587-.486 0-1.031.15-1.636.447-.604.298-1.263.748-1.978 1.351v5.999c0 .976.081 1.557.243 1.744.162.187.696.309 1.603.366l.21.011v.668h-6.278v-.668l.21-.01c.891-.058 1.42-.182 1.586-.372.166-.19.248-.77.248-1.74V8.099c0-.97-.082-1.547-.248-1.734-.166-.186-.695-.312-1.586-.377l-.21-.01V5.31h4.222v2.197ZM93.794 15.4c-1.297 1.25-2.58 1.874-3.846 1.874-1.017 0-1.865-.314-2.543-.942-.677-.629-1.017-1.416-1.017-2.364 0-1.106.443-2.003 1.327-2.692 1.01-.79 2.719-1.185 5.128-1.185h.453V8.636c0-1.845-.718-2.767-2.155-2.767-.67 0-1.264.2-1.78.603-.301.244-.493.743-.574 1.497l-.011.204h-1.481V6.03c1.532-.653 2.955-.98 4.266-.98 2.609 0 3.913 1.167 3.913 3.5v5.212c0 .934.083 1.59.249 1.97.165.381.455.572.867.572.148 0 .343-.033.586-.097l.066.797c-.523.18-.99.269-1.403.269-1.076 0-1.758-.625-2.045-1.874Zm-.498-.237v-4.404h-.508c-1.282 0-2.284.258-3.006.775s-1.084 1.228-1.084 2.132c0 .675.225 1.235.675 1.68.45.445 1.01.668 1.68.668.633 0 1.381-.284 2.243-.85Zm8.909-6.666v5.719c0 .969.087 1.55.26 1.744.173.194.702.316 1.586.366l.475.011v.668h-6.543v-.668l.21-.01c.892-.058 1.42-.182 1.586-.372.166-.19.249-.77.249-1.74V8.099c0-.97-.083-1.547-.249-1.734-.166-.186-.694-.312-1.586-.377l-.21-.01V5.31h4.222v2.197c.995-1.637 2.295-2.456 3.902-2.456.221 0 .468.04.74.119v3.198h-1.227l-.011-.194c-.081-.667-.153-1.064-.215-1.19-.063-.125-.231-.188-.503-.188-1.091 0-1.986.567-2.686 1.701Zm7.151 12.761 3.935-4.253-3.78-8.863c-.398-.948-.693-1.538-.884-1.771-.192-.234-.487-.361-.885-.383l-.221-.01V5.31h5.483v.668h-.233c-1.002 0-1.503.129-1.503.387 0 .13.21.722.63 1.777l2.686 6.278 2.863-6.31c.42-.926.63-1.483.63-1.67 0-.308-.446-.462-1.338-.462h-.298V5.31H120v.668l-.21.01c-.457.03-.847.435-1.172 1.217-.059.137-.199.445-.42.926l-6.09 13.127h-2.752Z"/></g></svg>