<svg xmlns="http://www.w3.org/2000/svg" width="120" height="11"><defs><clipPath id="a"><path fill="#fff" d="M0 0h120v11H0z"/></clipPath></defs><g clip-path="url(#a)"><path fill="#fff" d="M0 0h120v11H0z"/><path fill="gray" d="M7.374 10.718H0l.082-.42.128-.008c.566-.036.909-.112 1.029-.23.12-.118.243-.484.37-1.1L2.91 2.43c.072-.373.108-.695.108-.966 0-.144-.042-.231-.125-.263-.084-.032-.366-.063-.845-.095l-.13-.013.089-.421h3.937l-.082.42-.129.014c-.566.036-.908.112-1.028.227s-.241.481-.363 1.1L3.034 8.96c-.077.402-.115.683-.115.841 0 .15.055.242.166.278.11.036.405.054.884.054H5.16c.81 0 1.282-.046 1.415-.139.134-.092.282-.476.445-1.15l.04-.136h.714l-.4 2.009Zm3.795.17c-.779 0-1.363-.213-1.752-.639-.389-.426-.583-1.062-.583-1.909 0-1.363.452-2.564 1.357-3.604s1.953-1.56 3.143-1.56c.796 0 1.393.212 1.789.636.395.424.594 1.059.594 1.905 0 1.373-.458 2.578-1.372 3.615-.914 1.037-1.973 1.556-3.176 1.556Zm.346-.516c.72 0 1.353-.478 1.9-1.434.548-.956.822-2.057.822-3.302 0-.648-.104-1.134-.312-1.458-.208-.323-.523-.486-.943-.486-.702 0-1.324.49-1.867 1.468-.543.979-.815 2.102-.815 3.37 0 .544.114.987.34 1.329.225.342.517.513.875.513Zm13.861.346.616-3.092c-.56.985-1.186 1.775-1.877 2.37-.691.595-1.335.892-1.931.892-.484 0-.846-.143-1.088-.428-.242-.286-.363-.711-.363-1.278 0-1.471.518-2.84 1.554-4.106 1.036-1.267 2.156-1.9 3.36-1.9.248 0 .648.055 1.2.163l.315-1.581a4.87 4.87 0 0 0 .116-.97c0-.145-.044-.234-.13-.265C27.064.49 26.78.459 26.3.427l-.122-.006.081-.421h2.596L27.07 8.96a4.859 4.859 0 0 0-.115.97c0 .145.043.233.129.265.086.032.369.064.848.095l.123.007-.082.42h-2.596Zm.82-4.118.491-2.392a3.626 3.626 0 0 0-1.654-.4c-.673 0-1.223.31-1.648.93-.338.493-.629 1.147-.87 1.961-.242.815-.363 1.55-.363 2.206 0 .326.054.57.162.733a.55.55 0 0 0 .488.245c.863 0 1.995-1.094 3.395-3.283Zm3.327 4.118 1.12-5.614a5.22 5.22 0 0 0 .109-.964c0-.145-.042-.233-.126-.265-.083-.031-.367-.065-.851-.101l-.123-.007.082-.42h2.604L31.216 8.96c-.072.37-.108.694-.108.97 0 .145.041.233.125.264.084.032.368.064.852.095l.122.007-.081.42h-2.603Zm1.737-8.709.266-1.337h1.344l-.266 1.337H31.26Zm7.176 8.064c-.985.543-1.95.815-2.895.815-.705 0-1.256-.228-1.654-.683-.398-.455-.596-1.086-.596-1.892 0-1.34.467-2.532 1.403-3.574.936-1.042 2.005-1.562 3.207-1.562.271 0 .548.026.83.078.283.052.571.13.865.234l-.373 1.86h-.665l.013-.123c.014-.112.039-.26.075-.44.013-.096.02-.177.02-.245a.644.644 0 0 0-.346-.597c-.23-.131-.575-.197-1.037-.197-.731 0-1.344.41-1.836 1.232-.492.82-.738 1.843-.738 3.064 0 .689.142 1.205.427 1.551.284.347.711.52 1.28.52.493 0 1.204-.204 2.135-.611l-.115.57Zm6.774 0c-.985.543-1.95.815-2.894.815-.706 0-1.257-.228-1.655-.683-.398-.455-.596-1.086-.596-1.892 0-1.34.468-2.532 1.403-3.574.936-1.042 2.005-1.562 3.207-1.562.272 0 .548.026.831.078.282.052.57.13.864.234l-.373 1.86h-.665l.014-.123c.013-.112.038-.26.074-.44.014-.096.02-.177.02-.245a.644.644 0 0 0-.345-.597c-.23-.131-.576-.197-1.037-.197-.732 0-1.344.41-1.837 1.232-.492.82-.738 1.843-.738 3.064 0 .689.142 1.205.427 1.551.285.347.711.52 1.28.52.493 0 1.205-.204 2.135-.611l-.115.57Zm1.88.645 1.12-5.614a5.22 5.22 0 0 0 .109-.964c0-.145-.042-.233-.126-.265-.083-.031-.367-.065-.851-.101l-.123-.007.082-.42h2.604L48.783 8.96c-.072.37-.108.694-.108.97 0 .145.041.233.125.264.084.032.368.064.852.095l.122.007-.081.42H47.09Zm1.737-8.709.266-1.337h1.344l-.266 1.337h-1.344Zm4.4 8.879c-.779 0-1.362-.213-1.752-.639-.389-.426-.583-1.062-.583-1.909 0-1.363.452-2.564 1.357-3.604s1.953-1.56 3.143-1.56c.796 0 1.393.212 1.789.636.396.424.594 1.059.594 1.905 0 1.373-.458 2.578-1.372 3.615-.914 1.037-1.972 1.556-3.176 1.556Zm.346-.516c.72 0 1.353-.478 1.9-1.434.548-.956.822-2.057.822-3.302 0-.648-.104-1.134-.312-1.458-.208-.323-.522-.486-.943-.486-.702 0-1.324.49-1.867 1.468-.543.979-.814 2.102-.814 3.37 0 .544.113.987.339 1.329.225.342.517.513.875.513Zm5.322.346 1.119-5.614a5.25 5.25 0 0 0 .109-.964c0-.145-.042-.233-.126-.265-.083-.031-.367-.065-.852-.101l-.122-.007.082-.42h2.602l-.6 3.008c.584-.978 1.22-1.752 1.907-2.323.687-.57 1.327-.856 1.92-.856.393 0 .688.106.885.317.196.211.295.53.295.957 0 .209-.043.531-.13.967L65.28 8.96a5.108 5.108 0 0 0-.109.97c0 .145.042.233.125.265.084.032.368.063.852.095l.122.007-.081.42h-2.602l1.095-5.49c.045-.242.068-.433.068-.575 0-.16-.04-.278-.12-.355-.079-.078-.198-.116-.356-.116-.734 0-1.857 1.065-3.37 3.196l-.665 3.34h-1.343Zm13.08 0 .62-3.108c-.563.993-1.19 1.787-1.881 2.383-.691.597-1.335.895-1.931.895-.484 0-.847-.143-1.088-.428-.242-.286-.362-.711-.362-1.278 0-1.471.517-2.84 1.552-4.106 1.034-1.267 2.152-1.9 3.354-1.9.126 0 .29.015.488.043.199.028.436.071.712.127h1.335L73.669 8.96a4.865 4.865 0 0 0-.115.971c0 .145.043.233.129.265.085.032.368.064.848.095l.122.007-.081.42h-2.597Zm.822-4.12.469-2.356a3.452 3.452 0 0 0-1.656-.407c-.676 0-1.223.306-1.642.916-.334.489-.62 1.14-.859 1.955-.239.815-.358 1.548-.358 2.2 0 .325.054.57.163.733.108.163.27.244.487.244.863 0 1.995-1.095 3.396-3.285Zm3.326 4.12 1.119-5.614a5.15 5.15 0 0 0 .108-.964c0-.145-.042-.233-.125-.265-.084-.031-.368-.065-.852-.101l-.122-.007.081-.42h2.603l-.601 3.015c1.308-2.124 2.563-3.185 3.767-3.185a.92.92 0 0 1 .333.06l-.57 1.534a1.511 1.511 0 0 0-.618-.135c-.86 0-1.891.88-3.095 2.64l-.685 3.442h-1.343Zm6.53 0 1.12-5.614a5.22 5.22 0 0 0 .108-.964c0-.145-.042-.233-.125-.265-.084-.031-.368-.065-.852-.101l-.122-.007.081-.42h2.604L84.346 8.96a5.1 5.1 0 0 0-.109.97c0 .145.042.233.126.264.083.032.367.064.851.095l.123.007-.082.42h-2.602Zm1.736-8.709.266-1.337H86l-.266 1.337H84.39Zm6.341 8.709 1.786-8.96c.073-.371.109-.695.109-.97 0-.145-.042-.234-.126-.265-.084-.032-.367-.064-.851-.096l-.123-.006.082-.421h2.602l-1.786 8.96a5.198 5.198 0 0 0-.108.97c0 .146.041.234.125.265.084.032.368.064.852.095l.122.007-.081.42H90.73Zm4.188 0 1.12-5.614c.073-.375.11-.697.11-.964 0-.145-.043-.233-.126-.265-.084-.031-.368-.065-.852-.101l-.122-.007.081-.42h2.604L96.612 8.96c-.073.37-.11.694-.11.97 0 .145.043.233.126.264.084.032.368.064.852.095l.122.007-.081.42h-2.603Zm1.737-8.709L96.92.672h1.344l-.266 1.337h-1.344Zm6.429 8.709.6-3.014c-1.171 2.123-2.339 3.184-3.502 3.184-.36 0-.632-.107-.816-.32-.184-.212-.276-.531-.276-.957 0-.212.043-.531.13-.957l.707-3.55a5.16 5.16 0 0 0 .109-.963c0-.145-.043-.233-.126-.265-.084-.032-.368-.066-.852-.102l-.122-.007.081-.42h2.61l-1.086 5.41c-.049.298-.074.49-.074.577 0 .153.037.269.113.346.075.077.183.115.324.115.592 0 1.589-1.05 2.991-3.15l.659-3.298h1.342l-1.103 5.535a5.813 5.813 0 0 0-.109 1.027c0 .154.042.247.126.281.084.033.368.067.852.1l.122.007-.082.421h-2.618Zm4.603 0 1.119-5.614a5.16 5.16 0 0 0 .108-.964c0-.145-.042-.233-.125-.265-.084-.031-.368-.065-.852-.101l-.122-.007.081-.42h2.603l-.601 3.015c1.308-2.124 2.563-3.185 3.767-3.185a.92.92 0 0 1 .333.06l-.571 1.534a1.506 1.506 0 0 0-.617-.135c-.86 0-1.891.88-3.094 2.64l-.687 3.442h-1.342Zm12.123-1.174c-1.353.896-2.548 1.344-3.584 1.344-.688 0-1.237-.233-1.646-.7-.41-.466-.615-1.092-.615-1.88 0-1.321.462-2.507 1.385-3.557.923-1.05 1.964-1.574 3.123-1.574.439 0 .803.132 1.093.397.289.264.434.6.434 1.008 0 .914-.421 1.664-1.263 2.25-.841.586-1.964.913-3.366.98l-.014.347c0 .652.136 1.14.407 1.466.272.326.679.489 1.222.489.91 0 1.891-.39 2.946-1.168l-.122.598Zm-4.412-2.125c1.027-.077 1.834-.343 2.42-.797.586-.455.879-1.042.879-1.762 0-.362-.075-.633-.224-.814-.15-.181-.374-.272-.672-.272-.598 0-1.123.343-1.575 1.029-.453.685-.729 1.557-.828 2.616Z"/></g></svg>