<svg xmlns="http://www.w3.org/2000/svg" width="120" height="17"><path fill="gray" d="m3.475 8.165-1.84-4.549-.43-1.033c-.142-.38-.334-.578-.578-.594l-.472-.017L0 1.956l.098-.496h4.67l-.097.496h-.163l-.578.016c-.401 0-.618.087-.65.26-.033.169.097.63.39 1.384l1.497 3.8 3.109-3.792c.618-.754.946-1.226.984-1.416.027-.157-.184-.236-.635-.236l-.447-.016H8.03l.098-.496h3.263l-.098.496-.162.016-.448.025c-.309.021-.583.176-.822.464l-.96 1.155-3.719 4.549-.642 3.23c-.13.64-.169 1.055-.114 1.245.06.185.26.288.602.31l.545.04.146.008-.097.505H.903l.098-.505.154-.008.562-.04c.342-.022.58-.125.716-.31.136-.19.269-.605.399-1.245l.643-3.23Zm14.223-2.791h-1.301l.138-.708h1.302l.09-.423c.265-1.34.672-2.306 1.22-2.897C19.7.749 20.463.45 21.434.45c.759 0 1.442.2 2.05.602l-.382 1.912h-1.01l.025-.155c.049-.325.09-.577.122-.756.147-.722-.174-1.083-.96-1.083-.429 0-.751.158-.968.472-.212.315-.41.925-.594 1.831l-.277 1.392h2.213l-.13.659H19.31l-1.213 6.07c-.13.64-.163 1.055-.097 1.245.07.185.29.288.659.31l.578.04.244.008-.098.505h-4.817l.097-.505.163-.008.553-.04c.315-.022.524-.074.627-.155.103-.087.195-.285.277-.594l.211-.806 1.204-6.021Zm8.024 8.332c-1.275 0-2.205-.415-2.791-1.245-.58-.835-.727-1.96-.44-3.377.282-1.426.882-2.552 1.799-3.377.922-.824 2.034-1.237 3.336-1.237s2.246.413 2.832 1.237c.591.825.746 1.945.464 3.361-.288 1.448-.893 2.585-1.815 3.41-.922.819-2.05 1.228-3.385 1.228Zm.122-.504c.743 0 1.432-.388 2.067-1.164.634-.776 1.071-1.766 1.31-2.97.233-1.166.187-2.14-.139-2.921-.32-.787-.838-1.18-1.554-1.18-.716 0-1.391.393-2.026 1.18-.635.78-1.069 1.76-1.302 2.937-.238 1.172-.2 2.151.114 2.938.315.786.825 1.18 1.53 1.18Zm12.702 0c-.911.336-1.771.504-2.58.504-1.29 0-2.25-.431-2.88-1.294-.63-.862-.805-1.985-.529-3.368.271-1.378.876-2.485 1.815-3.32.938-.836 2.042-1.254 3.312-1.254.678 0 1.521.133 2.53.4l-.423 2.107h-1l.024-.147c.244-1.215-.163-1.822-1.22-1.822-.788 0-1.482.352-2.084 1.057-.597.706-1.017 1.66-1.261 2.865-.244 1.231-.166 2.202.236 2.913.401.71 1.068 1.066 2.001 1.066.803 0 1.538-.136 2.206-.407l-.147.7Zm5.086-4.044-.448 2.237-.113.806c-.066.336-.052.545.04.626.098.076.402.13.912.163l.146.008-.098.505h-4.418l.098-.505.162-.008.554-.04c.314-.022.523-.074.626-.155.103-.087.195-.285.277-.594l.211-.806 1.725-8.633.114-.806c.038-.31.022-.504-.049-.586-.065-.087-.252-.14-.56-.163l-.538-.04-.155-.008.106-.505h3.109l-1.62 8.105h.383l2.44-1.97 1.441-1.236c.098-.082.152-.15.163-.204.022-.103-.065-.154-.26-.154l-.765-.025h-.171l.097-.504h3.443l-.098.504-.155.008c-.586.038-.968.109-1.147.212-.18.098-.781.57-1.807 1.416l-1.855 1.522 2.034 3.116.684.96c.184.266.328.423.431.472.103.05.347.087.733.114l.146.008-.098.505h-2.481l-2.857-4.345h-.382ZM55.325.654l-2.148 10.741c-.13.64-.166 1.055-.106 1.245.06.185.26.288.602.31l.545.04.147.008-.098.505h-4.622l.098-.505.163-.008.553-.04c.315-.022.524-.074.627-.155.103-.087.195-.285.276-.594l.212-.806 1.725-8.633.114-.806c.038-.31.022-.504-.049-.586-.065-.087-.252-.14-.561-.163l-.537-.04-.155-.008.106-.505h3.108Zm7.316 12.45c-1.102.402-2.073.602-2.914.602-1.296 0-2.264-.436-2.905-1.31-.634-.873-.81-2.007-.529-3.401.266-1.33.847-2.414 1.742-3.255.895-.846 1.912-1.27 3.051-1.27 1.058 0 1.799.356 2.222 1.066.423.711.502 1.726.236 3.044l-.033.154h-5.395c-.553 2.773.122 4.159 2.026 4.159.993 0 1.88-.204 2.661-.61l-.162.821ZM58.255 8.23h3.661l.074-.358c.39-1.937.021-2.905-1.107-2.905-.608 0-1.15.295-1.628.887-.472.591-.805 1.383-1 2.376Zm5.858 8.487 3.54-3.214-1.44-6.697c-.152-.716-.282-1.161-.39-1.335-.104-.179-.3-.276-.587-.293l-.162-.008.097-.504h4.036l-.097.504h-.171l-.53.008c-.384 0-.599.1-.642.301a.92.92 0 0 0 0 .245l.203 1.082 1.026 4.744 3.06-4.769c.45-.7.691-1.125.724-1.277.043-.217-.133-.326-.53-.326l-.39-.008h-.22l.098-.504h2.62l-.098.504-.154.008c-.342.022-.692.329-1.05.92l-.447.7-6.47 9.919h-2.026ZM77.28 7.074l-.862 4.321c-.13.64-.166 1.055-.106 1.245.06.185.26.288.602.31l.546.04.341.008-.097.505h-4.818l.098-.505.163-.008.553-.04c.315-.022.524-.074.627-.155.103-.087.195-.285.276-.594l.212-.806.92-4.622.113-.797c.038-.31.025-.507-.04-.594-.066-.087-.253-.141-.562-.163l-.537-.04-.154-.009.097-.504h3.109l-.334 1.66c.982-1.237 2.064-1.856 3.247-1.856.162 0 .339.03.529.09l-.489 2.417h-.903l.016-.147.05-.61c.032-.288-.085-.431-.35-.431-.809 0-1.558.428-2.247 1.285Zm8.927 5.973.448-2.246h.903l-.008.155-.106.846c-.049.418.097.757.44 1.017.347.255.821.383 1.423.383a2.02 2.02 0 0 0 1.294-.44c.374-.298.608-.68.7-1.147.152-.738-.212-1.288-1.09-1.652l-.757-.317C87.907 9 87.248 8.1 87.475 6.944c.147-.716.551-1.307 1.213-1.774.667-.466 1.443-.7 2.327-.7.863 0 1.722.166 2.58.497l-.424 2.107h-.903l.033-.146.073-.74c.087-.814-.363-1.221-1.35-1.221a1.96 1.96 0 0 0-1.27.456c-.369.298-.6.678-.692 1.139-.076.38-.01.686.195.92.207.227.657.496 1.351.805l.692.309c.749.336 1.248.686 1.497 1.05.255.358.326.822.212 1.391-.158.781-.6 1.421-1.327 1.92-.721.5-1.576.75-2.563.75-1.08 0-2.05-.22-2.913-.66Zm15.233.057c-1.101.402-2.072.602-2.913.602-1.297 0-2.265-.436-2.905-1.31-.635-.873-.811-2.007-.53-3.401.267-1.33.847-2.414 1.742-3.255.895-.846 1.913-1.27 3.052-1.27 1.058 0 1.798.356 2.221 1.066.423.711.502 1.726.236 3.044l-.032.154h-5.395c-.554 2.773.122 4.159 2.026 4.159.992 0 1.879-.204 2.661-.61l-.163.821ZM97.053 8.23h3.662l.073-.358c.391-1.937.022-2.905-1.107-2.905-.607 0-1.15.295-1.627.887-.472.591-.806 1.383-1.001 2.376Zm5.859 8.487 3.539-3.214-1.44-6.697c-.152-.716-.282-1.161-.39-1.335-.103-.179-.299-.276-.586-.293l-.163-.008.098-.504h4.036l-.098.504h-.171l-.529.008c-.385 0-.599.1-.643.301a.993.993 0 0 0 0 .245l.204 1.082 1.025 4.744 3.06-4.769c.45-.7.691-1.125.724-1.277.043-.217-.133-.326-.529-.326l-.391-.008h-.219l.097-.504h2.621l-.098.504-.155.008c-.341.022-.691.329-1.049.92l-.448.7-6.469 9.919h-2.026Zm13.166-9.643-.863 4.321c-.13.64-.165 1.055-.105 1.245.059.185.26.288.602.31l.545.04.342.008-.098.505h-4.817l.097-.505.163-.008.553-.04c.315-.022.524-.074.627-.155.103-.087.195-.285.277-.594l.211-.806.92-4.622.114-.797c.038-.31.024-.507-.041-.594-.065-.087-.252-.141-.561-.163l-.538-.04-.154-.009.098-.504h3.108l-.334 1.66c.982-1.237 2.064-1.856 3.247-1.856.163 0 .339.03.529.09l-.488 2.417h-.903l.016-.147.049-.61c.032-.288-.084-.431-.35-.431-.809 0-1.557.428-2.246 1.285Z"/></svg>