<svg xmlns="http://www.w3.org/2000/svg" width="111" height="21"><path fill="#4D4D4D" d="M104.882 10.44v6.74c0 1.143.097 1.829.292 2.057.203.229.812.373 1.828.432l.546.013v.787h-7.516v-.787l.241-.013c1.024-.068 1.629-.212 1.816-.432.194-.228.292-.914.292-2.056V9.97c0-1.143-.098-1.824-.292-2.044-.187-.22-.792-.368-1.816-.444l-.241-.013v-.787h4.85v2.59c1.142-1.93 2.636-2.895 4.481-2.895.254 0 .537.047.851.14v3.77h-1.41l-.012-.228c-.093-.787-.178-1.253-.254-1.397-.068-.152-.258-.228-.571-.228-1.253 0-2.281.668-3.085 2.006ZM94.49 20.469v-2.59c-.634.965-1.367 1.693-2.196 2.184-.821.482-1.743.723-2.768.723-1.184 0-2.115-.393-2.793-1.18-.677-.78-1.015-1.85-1.015-3.212V9.97c0-1.143-.098-1.824-.292-2.044-.186-.22-.792-.368-1.816-.444l-.24-.013v-.787h4.849V16c0 1.058.186 1.854.558 2.387.381.525.948.787 1.701.787.695 0 1.376-.178 2.044-.533.67-.356 1.325-.889 1.968-1.6V9.97c-.059-1.261-.156-1.972-.292-2.133-.135-.16-.744-.28-1.828-.355l-.228-.013v-.787h4.85V17.18c.058 1.26.156 1.972.291 2.133.136.16.745.279 1.828.355l.242.013v.787H94.49Zm-16.193 0v-2.59c-.61.965-1.32 1.693-2.133 2.184-.804.482-1.705.723-2.704.723-1.557 0-2.797-.613-3.72-1.84-.922-1.236-1.383-2.89-1.383-4.964 0-2.302.529-4.143 1.587-5.523C71 7.071 72.406 6.377 74.158 6.377c.805 0 1.55.157 2.235.47.694.313 1.329.783 1.904 1.409V3.711c0-1.16-.093-1.845-.28-2.057-.177-.22-.786-.364-1.827-.431l-.242-.013V.423h4.863v16.758c0 1.15.089 1.836.266 2.056.187.22.8.364 1.841.432l.241.013v.787h-4.862Zm0-11.235c-.652-.491-1.295-.855-1.93-1.092a5.184 5.184 0 0 0-1.879-.368c-1.159 0-2.03.46-2.615 1.383-.575.914-.863 2.294-.863 4.139 0 1.955.28 3.424.838 4.405.567.974 1.413 1.46 2.539 1.46.762 0 1.468-.178 2.12-.533.652-.364 1.248-.905 1.79-1.625v-7.77Zm-15.431 9.343c-1.49 1.473-2.962 2.21-4.418 2.21-1.168 0-2.142-.369-2.92-1.105-.779-.745-1.168-1.676-1.168-2.793 0-1.304.508-2.361 1.523-3.174 1.16-.931 3.123-1.396 5.89-1.396h.521v-1.714c0-2.176-.825-3.263-2.475-3.263a3.18 3.18 0 0 0-2.044.71c-.347.289-.567.877-.66 1.766l-.013.24h-1.701V7.533c1.76-.77 3.394-1.155 4.9-1.155 2.996 0 4.494 1.375 4.494 4.126v6.145c0 1.1.093 1.874.28 2.323.194.448.529.673 1.003.673.169 0 .393-.038.672-.115l.077.94c-.601.211-1.139.317-1.613.317-1.235 0-2.018-.736-2.348-2.209Zm-.572-.279v-5.192h-.584c-1.472 0-2.623.304-3.453.914-.83.609-1.244 1.447-1.244 2.513 0 .796.258 1.456.775 1.98.516.525 1.16.788 1.93.788.727 0 1.586-.334 2.576-1.003ZM50.672 6.682V17.18c0 1.15.093 1.836.279 2.056.186.22.8.364 1.84.432l.242.013v.787h-7.211v-.787l.241-.013c1.024-.068 1.63-.212 1.816-.432.194-.228.292-.914.292-2.056V9.97c0-1.143-.098-1.824-.292-2.044-.186-.22-.792-.368-1.816-.444l-.241-.013v-.787h4.85ZM48.17 4.18v-2.5h2.5v2.5h-2.5ZM44.292 20c-1.32.524-2.611.786-3.872.786-2.014 0-3.648-.673-4.9-2.018-1.253-1.346-1.88-3.098-1.88-5.256 0-2.158.602-3.885 1.803-5.18 1.21-1.303 2.819-1.955 4.825-1.955 1.024 0 2.365.207 4.024.622v3.288H42.73l-.012-.228c0-1.896-.834-2.844-2.501-2.844-1.21 0-2.175.55-2.895 1.65-.71 1.1-1.066 2.59-1.066 4.47 0 1.92.423 3.435 1.27 4.544.846 1.109 1.997 1.663 3.452 1.663 1.253 0 2.358-.212 3.314-.635V20ZM29.965 6.682V17.18c0 1.15.093 1.836.28 2.056.186.22.8.364 1.84.432l.241.013v.787h-7.21v-.787l.24-.013c1.025-.068 1.63-.212 1.816-.432.195-.228.292-.914.292-2.056V9.97c0-1.143-.097-1.824-.292-2.044-.186-.22-.791-.368-1.815-.444l-.241-.013v-.787h4.85Zm-2.5-2.501V1.68h2.5v2.5h-2.5ZM7.26 20.71 3.246 5.044c-.38-1.439-.626-2.226-.736-2.361-.11-.136-.571-.203-1.384-.203L.86 2.454V1.68h6.728v.774h-.241c-.82 0-1.341.043-1.561.127-.22.085-.33.28-.33.584 0 .28.122.906.368 1.88l2.78 10.93 4.329-14.067h.889l4.329 14.46 3.25-11.311c.364-1.287.546-2.006.546-2.158 0-.297-.66-.445-1.98-.445h-.23V1.68h5.168v.774l-.229.026c-.905.05-1.41.13-1.51.24-.094.11-.36.885-.8 2.324L17.77 20.71h-.85L12.49 6.25 8.135 20.71H7.26Z"/></svg>