<svg xmlns="http://www.w3.org/2000/svg" width="120" height="17"><path fill="#4D4D4D" d="M111.412 11.108v2.686c0 .872.065 1.4.195 1.582.137.176.534.287 1.191.332l.186.01v.605h-5.303v-.605l.186-.01c.787-.052 1.253-.163 1.396-.332.15-.176.225-.703.225-1.582V3.433c0-.88-.075-1.403-.225-1.573-.143-.175-.609-.29-1.396-.341l-.186-.01V.903h3.731v9.727h.459l2.461-2.363c1.054-1.075 1.582-1.65 1.582-1.729 0-.124-.179-.189-.538-.195-.358-.013-.605-.02-.742-.02h-.205v-.605h4.131v.605l-.185.01c-.691.046-1.133.13-1.329.254-.188.117-.797.684-1.826 1.7l-1.855 1.825 3.183 3.74c.808.912 1.312 1.443 1.514 1.592.208.144.566.231 1.074.264l.186.01v.605h-2.979l-4.472-5.215h-.459Zm-9.718 5.459c-1.562 0-2.796-.494-3.7-1.484-.906-.996-1.358-2.35-1.358-4.062 0-1.713.452-3.064 1.357-4.053.905-.99 2.139-1.485 3.701-1.485 1.569 0 2.803.495 3.702 1.485.904.99 1.357 2.34 1.357 4.053 0 1.712-.453 3.066-1.357 4.062-.905.99-2.139 1.484-3.702 1.484Zm0-.605c.866 0 1.586-.466 2.159-1.396.572-.938.859-2.12.859-3.545 0-1.413-.287-2.588-.859-3.526-.573-.944-1.293-1.416-2.159-1.416-.859 0-1.575.472-2.148 1.416-.573.938-.86 2.113-.86 3.526 0 1.425.284 2.607.85 3.544.573.931 1.292 1.397 2.158 1.397Zm.215-15.059h2.227l-3.428 2.891H99.8l2.109-2.89ZM85.405 16.44V3.434c0-.88-.075-1.403-.225-1.573-.143-.175-.609-.29-1.396-.341l-.186-.01V.903h3.73V7.71c.482-.742 1.032-1.299 1.651-1.67a3.998 3.998 0 0 1 2.08-.557c1.198 0 2.152.472 2.861 1.416.71.944 1.065 2.214 1.065 3.81 0 1.77-.407 3.19-1.22 4.257-.815 1.068-1.895 1.601-3.243 1.601-.619 0-1.195-.12-1.729-.36a4.508 4.508 0 0 1-1.464-1.085h-.118l-.244 1.319h-1.562Zm1.924-2.08a6.547 6.547 0 0 0 1.504.85c.488.189.966.283 1.435.283.892 0 1.56-.355 2.002-1.064.443-.71.664-1.774.664-3.194 0-1.503-.215-2.63-.644-3.378-.43-.756-1.078-1.133-1.944-1.133-.58 0-1.12.14-1.62.42-.502.273-.968.686-1.397 1.24v5.976Zm-6.426.508c-1.146 1.133-2.28 1.7-3.399 1.7-.898 0-1.647-.284-2.246-.85-.599-.573-.898-1.29-.898-2.149 0-1.002.39-1.816 1.171-2.441.892-.716 2.403-1.074 4.532-1.074h.4V8.735c0-1.673-.635-2.51-1.904-2.51-.593 0-1.117.183-1.572.548-.267.22-.437.673-.508 1.357l-.01.185H75.16V6.372c1.355-.592 2.611-.889 3.77-.889 2.305 0 3.457 1.058 3.457 3.174v4.727c0 .846.072 1.442.215 1.787.15.345.407.518.771.518.13 0 .303-.03.518-.088l.058.722c-.462.163-.875.244-1.24.244-.95 0-1.553-.566-1.806-1.699Zm-.44-.215V10.66h-.45c-1.132 0-2.017.235-2.655.703-.638.47-.957 1.114-.957 1.934 0 .612.198 1.12.595 1.523.398.404.892.606 1.485.606.56 0 1.22-.257 1.982-.772ZM69.066 5.972a9.554 9.554 0 0 0-2.08-2.48l-2.803 1.904-.351-.518 2.676-1.777c-1.166-.886-2.396-1.384-3.692-1.494V.903c1.693 0 3.36.44 5 1.319l2.05-1.377.343.488-1.924 1.28a10.252 10.252 0 0 1 3.31 3.554c.827 1.445 1.24 2.93 1.24 4.453 0 1.771-.468 3.207-1.406 4.307-.937 1.094-2.164 1.64-3.681 1.64-1.472 0-2.66-.5-3.565-1.504-.898-1.002-1.347-2.32-1.347-3.955 0-1.575.452-2.867 1.357-3.876.912-1.01 2.074-1.514 3.486-1.514.437 0 .899.084 1.387.254Zm-1.103 9.99c.983 0 1.718-.43 2.207-1.29.495-.865.742-2.157.742-3.876 0-1.367-.274-2.454-.82-3.262-.54-.807-1.27-1.21-2.188-1.21-.905 0-1.634.442-2.187 1.327-.554.886-.83 2.058-.83 3.516 0 1.4.286 2.549.859 3.447.58.899 1.318 1.348 2.217 1.348Zm-10.43-7.354v5.186c0 .879.075 1.406.224 1.582.157.176.625.287 1.407.332l.42.01v.605h-5.782v-.605l.186-.01c.788-.052 1.253-.163 1.396-.332.15-.176.225-.703.225-1.582V8.247c0-.879-.075-1.403-.225-1.572-.143-.17-.608-.283-1.396-.342l-.186-.01v-.605h3.73V7.71c.88-1.484 2.029-2.227 3.448-2.227.195 0 .413.036.654.108v2.9H60.55l-.01-.176c-.071-.605-.136-.963-.195-1.074-.052-.117-.198-.176-.44-.176-.963 0-1.754.515-2.372 1.543Zm-9.718 7.959c-1.562 0-2.796-.494-3.7-1.484-.906-.996-1.358-2.35-1.358-4.062 0-1.713.452-3.064 1.357-4.053.905-.99 2.139-1.485 3.701-1.485 1.57 0 2.803.495 3.702 1.485.904.99 1.357 2.34 1.357 4.053 0 1.712-.453 3.066-1.357 4.062-.905.99-2.14 1.484-3.702 1.484Zm0-.605c.866 0 1.586-.466 2.159-1.396.573-.938.859-2.12.859-3.545 0-1.413-.286-2.588-.86-3.526-.572-.944-1.292-1.416-2.158-1.416-.859 0-1.575.472-2.148 1.416-.573.938-.86 2.113-.86 3.526 0 1.425.284 2.607.85 3.544.573.931 1.293 1.397 2.158 1.397ZM40.13 5.718v8.076c0 .885.071 1.413.214 1.582.143.17.615.28 1.416.332l.186.01v.605h-5.547v-.605l.185-.01c.788-.052 1.254-.163 1.397-.332.15-.176.225-.703.225-1.582V8.247c0-.879-.075-1.403-.225-1.572-.143-.17-.609-.283-1.397-.342l-.185-.01v-.605h3.73Zm-1.924-1.924V1.87h1.923v1.924h-1.923Z"/><path fill="#4D4D4D" d="M28.537 11.108v2.686c0 .872.066 1.4.196 1.582.136.176.534.287 1.191.332l.186.01v.605h-5.303v-.605l.185-.01c.788-.052 1.254-.163 1.397-.332.15-.176.224-.703.224-1.582V3.433c0-.88-.074-1.403-.224-1.573-.143-.175-.609-.29-1.397-.341l-.185-.01V.903h3.73v9.727h.46l2.46-2.363c1.055-1.075 1.582-1.65 1.582-1.729 0-.124-.179-.189-.537-.195a24.27 24.27 0 0 0-.742-.02h-.205v-.605h4.13v.605l-.185.01c-.69.046-1.133.13-1.328.254-.189.117-.797.684-1.826 1.7l-1.855 1.825 3.183 3.74c.807.912 1.312 1.443 1.514 1.592.208.144.566.231 1.074.264l.185.01v.605H33.47l-4.473-5.215h-.459Zm-5.752-5.39v8.076c0 .885.072 1.413.215 1.582.143.17.615.28 1.416.332l.185.01v.605h-5.547v-.605l.186-.01c.788-.052 1.253-.163 1.397-.332.15-.176.224-.703.224-1.582V8.247c0-.879-.075-1.403-.224-1.572-.144-.17-.61-.283-1.397-.342l-.186-.01v-.605h3.73ZM20.86 3.794V1.87h1.924v1.924H20.86ZM5.519 16.509 2.433 4.459c-.293-1.108-.482-1.713-.566-1.817-.085-.104-.44-.157-1.065-.157l-.205-.02V1.87h5.176v.596h-.186c-.631 0-1.032.032-1.2.098-.17.065-.255.214-.255.449 0 .215.095.696.283 1.445l2.14 8.408 3.33-10.82h.683l3.33 11.123 2.5-8.701c.28-.99.42-1.543.42-1.66 0-.228-.508-.342-1.524-.342h-.176V1.87h3.975v.596l-.176.02c-.696.038-1.084.1-1.162.185-.071.085-.276.68-.615 1.787l-3.535 12.05h-.654L9.542 5.387 6.192 16.51H5.52Z"/></svg>