<svg xmlns="http://www.w3.org/2000/svg" width="112" height="15" viewBox="0 0 29.633 3.969"><path fill="gray" fill-rule="evenodd" d="m1.533 1.788-.182.906q-.03.154-.03.265 0 .057.036.072.035.013.207.026l.036.002-.023.115H.525l.022-.115.035-.002q.232-.015.28-.063.05-.048.102-.3L1.318.91q.03-.154.03-.265 0-.06-.036-.072Q1.28.56 1.082.548L1.047.544 1.071.43h1.074l-.023.113-.035.004q-.232.014-.282.063-.048.046-.098.3l-.172.865L2.537.911q.324-.313.325-.341 0-.026-.237-.026H2.58L2.602.43h.795l-.024.113-.033.004q-.143.005-.161.01-.052.014-.456.366l-.842.715.729 1.064q.208.308.269.33.046.017.155.024l.034.002-.023.115h-1.01l.022-.115h.041q.217 0 .217-.048 0-.046-.174-.322zm3.121 1.386.169-.845q-.23.404-.514.648-.284.243-.528.243-.198 0-.298-.117-.098-.117-.099-.348 0-.602.425-1.12.424-.518.917-.518.052 0 .134.01.081.012.194.034h.366l-.304 1.533q-.032.152-.032.265 0 .06.035.072.036.013.232.026l.033.002-.022.115zm.224-1.123.132-.645q-.108-.056-.22-.082-.114-.028-.234-.028-.278 0-.45.25-.138.2-.236.534t-.098.6q0 .134.044.201.045.067.134.067.354 0 .928-.897m.907 1.123L6.09 1.64q.03-.154.03-.263 0-.06-.036-.072-.033-.013-.232-.028l-.033-.002.022-.115h.71l-.165.823q.554-.867 1.01-.867.154 0 .23.087.076.085.076.26 0 .062-.04.264l-.053.256q.584-.869 1.025-.87.152 0 .226.093.076.093.076.28 0 .087-.033.254l-.189.953q-.03.154-.03.265 0 .06.034.072.035.013.231.026l.036.002-.024.115h-.708l.307-1.542q.013-.067.013-.106 0-.07-.026-.104-.024-.035-.074-.035-.15 0-.426.263-.276.261-.473.59l-.189.934H7.02l.308-1.542q.013-.067.013-.106 0-.07-.026-.104-.024-.035-.074-.035-.152 0-.427.262-.274.26-.48.6l-.183.925zm4.83 0 .165-.823q-.525.869-1.046.87-.16 0-.242-.088-.08-.087-.08-.261 0-.087.035-.262l.193-.969q.03-.152.03-.263 0-.06-.036-.072-.033-.013-.231-.028l-.034-.002.022-.115h.71l-.294 1.477q-.02.122-.02.158 0 .063.033.094.033.032.098.032.272 0 .917-.86l.182-.901h.365l-.306 1.533q-.03.152-.03.265 0 .06.034.072.035.013.234.026l.033.002-.022.115zm.94-.111.09-.46h.184l-.004.033q-.024.183-.024.21 0 .098.133.18.136.08.303.08.16 0 .27-.1.11-.103.11-.253 0-.148-.154-.311l-.193-.204q-.337-.354-.337-.578 0-.237.19-.39.194-.154.494-.153.145 0 .283.033.14.033.273.102l-.09.447h-.181l.004-.034q.011-.09.018-.131.012-.058.012-.095 0-.106-.088-.158-.085-.051-.257-.051-.137 0-.23.098t-.093.243q0 .146.182.328l.193.19q.317.316.317.575 0 .25-.2.404-.2.152-.53.152-.164 0-.332-.04-.17-.04-.343-.117zm3.028.11.306-1.532q.03-.154.03-.263 0-.06-.036-.072-.033-.013-.231-.028l-.034-.002.023-.115h.71l-.165.823q.239-.4.52-.634t.525-.233q.16 0 .24.087.082.085.082.26 0 .084-.035.262l-.193.968q-.03.152-.03.265 0 .06.034.072.035.013.234.026l.033.002-.022.115h-.71l.298-1.5q.019-.098.019-.155 0-.065-.034-.097-.031-.031-.096-.031-.3 0-.92.871l-.183.912zm2.313.677-.135-.519q.508.452.96.453.191 0 .287-.162.099-.16.193-.628l.152-.773q-.228.398-.517.643t-.532.245q-.174 0-.284-.122-.108-.124-.107-.32 0-.275.144-.601.146-.326.375-.564.37-.386.804-.385.05 0 .132.01.082.012.196.034h.367l-.281 1.4q-.141.69-.275.908-.298.484-.976.483-.211 0-.503-.102m1.52-1.922.102-.524q-.104-.054-.213-.08-.108-.026-.223-.026-.284 0-.452.228-.326.441-.326 1.057 0 .126.043.19.044.064.131.064.343 0 .938-.909m2.026 1.246.168-.845q-.23.404-.513.648-.284.243-.528.243-.198 0-.299-.117-.098-.117-.098-.348 0-.602.425-1.12.424-.518.917-.518.052 0 .134.01.081.012.194.034h.365l-.304 1.533q-.031.152-.031.265 0 .06.035.072.035.013.232.026l.033.002-.022.115zm.224-1.123.132-.645q-.108-.056-.22-.082-.114-.028-.234-.028-.278 0-.45.25-.138.2-.236.534t-.098.6q0 .134.044.201.045.067.134.067.354 0 .928-.897m.85 1.17.496-2.494q.031-.154.031-.263 0-.061-.035-.074t-.232-.026l-.033-.002.022-.115h.708l-.35 1.761q.228-.404.512-.649t.528-.244q.2 0 .298.116.1.115.1.349 0 .6-.424 1.121-.423.52-.914.52-.119 0-.228-.025-.109-.022-.21-.069zm.551-.935-.131.643q.113.056.228.084.115.027.231.027.274 0 .447-.254.135-.196.232-.531.098-.335.098-.603 0-.133-.045-.198-.042-.067-.131-.067-.354 0-.929.899m1.722.888.488-2.447q.03-.152.03-.265 0-.06-.036-.072-.033-.013-.232-.026l-.033-.002.022-.115h.71l-.487 2.447q-.03.152-.03.265 0 .06.033.072.036.013.234.026l.033.002-.022.115zm2.323 0 .168-.845q-.23.404-.513.648-.284.243-.528.243-.198 0-.299-.117-.098-.117-.098-.348 0-.602.424-1.12t.918-.518q.052 0 .133.01.082.012.195.034h.365l-.304 1.533q-.031.152-.031.265 0 .06.035.072.035.013.232.026l.033.002-.022.115zm.224-1.123.131-.645q-.108-.056-.22-.082-.113-.028-.234-.028-.278 0-.45.25-.137.2-.235.534-.099.334-.099.6 0 .134.045.201.044.067.133.067.354 0 .929-.897m.86 1.123.487-2.447q.03-.152.03-.265 0-.06-.035-.072-.034-.013-.232-.026l-.033-.002.022-.115h.71l-.36 1.805h.028q.904-.463.905-.778 0-.067-.058-.113l.37-.022q.027.05.027.09 0 .277-.938.77.373.613.667.945.09.102.282.111l.04.002-.022.117h-.61q-.368-.447-.68-1.04h-.027l-.214 1.04z" aria-label="Kamus ngablak"/></svg>