<svg xmlns="http://www.w3.org/2000/svg" width="120" height="22" fill="none"><path fill="#4D4D4D" d="M5.873 3.41c1.056 0 1.972.358 2.747 1.073.168.162.316.333.443.512a2.84 2.84 0 0 1 .507 1.657c0 1.284-.599 2.226-1.796 2.827a4.26 4.26 0 0 1-1.964.463c-.972 0-1.852-.357-2.641-1.072-.718-.634-1.077-1.39-1.077-2.267 0-1.202.591-2.104 1.774-2.706a4.427 4.427 0 0 1 2.007-.487ZM3.76 6.676c0 .764.373 1.3 1.12 1.608.296.114.591.171.887.171.874 0 1.493-.292 1.86-.877.154-.244.232-.528.232-.853 0-.683-.36-1.21-1.078-1.585a2.117 2.117 0 0 0-.993-.267c-.704 0-1.267.26-1.69.78-.225.308-.338.65-.338 1.023Zm1.733 6.85-1.944.389-1.12.414h-.127c-.38 0-.894-.268-1.542-.804-.507-.422-.76-.772-.76-1.049 0-.308.303-.462.908-.462l1.014.048h.021c.535 0 1.528-.09 2.98-.268 3.83-.439 6.386-.755 7.668-.95.043-.033.064-.106.064-.22V4.897c0-.65-.303-1.308-.909-1.975-.436-.487-.683-.828-.739-1.023a.96.96 0 0 1-.043-.268c0-.341.205-.512.613-.512.536 0 1.155.284 1.86.853.62.504.929 1 .93 1.487l-.044 12.21c0 .797-.155 1.959-.464 3.486-.31 1.511-.627 2.266-.95 2.266-.113 0-.17-.17-.17-.511l.064-1.511v-.024l-.127-2.78c-.014-.487-.021-1.917-.021-4.289l-6.021 1 .612.512c.113.13.17.332.17.609 0 .617-.353 1.584-1.057 2.9-.718 1.348-1.317 2.047-1.796 2.096l-.085-.048h-.02c-.029-.033-.043-.098-.043-.195 0-.033.155-.447.465-1.243.479-1.284.718-2.495.718-3.632 0-.065-.035-.325-.105-.78Zm22.52-3.95c-.154-1.283-.929-2.055-2.323-2.315l-2.451-.268c-.465-.114-.697-.342-.697-.683 0-.584.507-.974 1.52-1.17a2.94 2.94 0 0 1 .614-.073c1.085 0 2.091.35 3.02 1.048.48.358.832.764 1.057 1.219.057.114.106.228.148.341.07.211.162.756.275 1.634.028.26.063.479.105.657l.634 1.804.021.195c0 .78-1.126 1.641-3.38 2.584-1.845.73-3.26 1.137-4.246 1.218-.366 0-.55-.146-.55-.439 0-.113.662-.39 1.986-.828 1.465-.52 2.613-1.243 3.444-2.17.45-.52.725-1.048.824-1.584-.535.049-1.387.236-2.556.561l-1.184.365a2.207 2.207 0 0 1-.317.025c-.338 0-.753-.211-1.246-.634-.352-.292-.528-.56-.528-.804.056-.341.746-.472 2.07-.39.226 0 1.198-.081 2.916-.244.31-.016.591-.032.845-.049Zm4.628-8.213c.492 0 1.105.268 1.838.804.662.488.993.943.993 1.365l-.022 12.162c0 .926-.14 2.104-.422 3.534-.296 1.462-.627 2.193-.993 2.193-.112 0-.169-.13-.169-.39l.063-1.584v-.024l-.147-3.29V5.287c0-.796-.324-1.536-.973-2.218-.408-.455-.64-.764-.697-.926a.91.91 0 0 1-.02-.195c0-.39.182-.585.549-.585Zm22.542 8.31-1.563.098h-.022c-1.957.244-3.105.399-3.443.464l-2.556.536-1.205.317a.704.704 0 0 1-.19.024c-.577 0-.838-.601-.782-1.803l.022-.732c0-.942-.43-1.868-1.29-2.778-.492-.536-.767-.861-.823-.976a.636.636 0 0 1-.064-.243c0-.422.268-.633.803-.633.76 0 1.402.308 1.923.926l.295.462.19.561c.029.13.043.268.043.414l-.106 1.097v.025c0 .86.176 1.356.528 1.486.085.033.184.05.296.05.17 0 .817-.066 1.944-.196l5.916-.683c.028.374.056.902.084 1.585Zm-.401 3.413c.464 0 .873.155 1.225.463.183.163.275.341.275.536 0 .537-.564.845-1.69.926-.268.017-.423.025-.466.025l-2.091.268-1.732.415h-.211c-.423 0-.93-.187-1.522-.561-.437-.276-.655-.553-.655-.829 0-.325.345-.488 1.035-.488l1.374.074H51.507c.366 0 1.127-.195 2.282-.585.464-.163.795-.244.992-.244Zm-4.142 5.508v.342c-.013.487.071.788.254.901.113.081.289.122.528.122 1.141 0 2.486-.097 4.036-.292.24-.033.45.024.634.17a.64.64 0 0 1 .253.536c0 .7-1.07 1.13-3.212 1.292-.337.033-.62.05-.845.05-1.605 0-2.556-1-2.851-2.999l-1.205-.658c-.24-.179-.359-.373-.359-.585 0-.406.338-.609 1.014-.609l1.923.17h.02c.48 0 1.381-.178 2.705-.536.099-.032.19-.056.275-.073.802-.211 1.288-.317 1.458-.317.394 0 .725.187.992.561a.778.778 0 0 1 .17.487c0 .26-.163.472-.487.634-.267.13-.88.211-1.838.244a1.175 1.175 0 0 1-.21.024c-.212.016-1.191.179-2.938.488a13.41 13.41 0 0 0-.317.048Zm5.662-9.285c-.042.747-.225 1.543-.549 2.388-.296.634-.563.983-.803 1.048-.183 0-.26-.496-.232-1.487l-.084-2.071V4.556c0-.536-.296-1.138-.888-1.804-.465-.504-.718-.877-.76-1.12a.618.618 0 0 1-.021-.172c0-.341.225-.512.676-.512.465 0 1.056.276 1.774.829.662.536.98 1.024.951 1.462l-.064.878v4.216l1.564-.706c.14-.05.275-.074.402-.074.478 0 .823.276 1.034.829.07.195.106.399.106.61 0 .422-.232.617-.697.584h-.127c-1.352-.178-2.112-.267-2.282-.267Zm10.775.194c.874 0 1.846-.122 2.916-.365.479-.114.767-.228.866-.341.028-.033.042-.114.042-.244l-.105-2.705c-.015-.196-.113-.285-.296-.269h-.106l-1.838.147c-1.042 0-1.662-.236-1.86-.708a.73.73 0 0 1-.062-.292.41.41 0 0 1 .232-.39c.099-.065.507-.114 1.225-.146.958-.032 1.67-.138 2.134-.317l.93-.365h.105c.38 0 .782.26 1.205.78.281.324.422.617.422.877 0 .536-.197 1.413-.591 2.632-.198.569-.36.926-.486 1.073.324.146.535.406.633.78.015.08.022.154.022.219 0 .617-.451.95-1.352 1l-.57.024a789.79 789.79 0 0 1-1.86.073c-.45 0-.986-.187-1.606-.561-.07.731-.302 1.097-.697 1.097-.31 0-.577-.845-.803-2.535-.14-.991-.239-1.568-.295-1.73l-1.12-2.584a.45.45 0 0 1-.022-.122c0-.26.141-.39.424-.39.549 0 1.14.317 1.774.951.535.52.796 1.023.782 1.51a44.223 44.223 0 0 0-.043 1.585v1.316Zm3.761 8.726c-.55-.098-1.014-.309-1.394-.634-.184-.162-.275-.317-.275-.463.07-.341.711-.488 1.922-.439 1.198 0 2.451-.106 3.761-.317.423-.065.683-.13.782-.195.07-.048.105-.154.105-.317 0-.39-.063-.804-.19-1.242a.628.628 0 0 0-.063-.122c-.705.065-1.486.243-2.346.536-.732.26-1.14.39-1.225.39l-.19.024c-.436 0-.993-.195-1.669-.584l-.528-.366c-.197-.179-.296-.358-.296-.537 0-.276.211-.422.634-.438l1.669.195h.021c1.155 0 2.092-.106 2.81-.317l1.395-.488c.112-.016.21-.023.295-.023.338 0 .712.194 1.12.584.253.228.38.439.38.634 0 .455-.183 1.137-.55 2.047a1.719 1.719 0 0 1-.084.17c.254.13.416.358.487.683.013.049.02.098.02.146 0 .13-.042.244-.126.342-.183.195-.5.292-.951.292-.916 0-2.317.13-4.205.39v.926c0 .504.212.78.634.828.085.017.19.025.317.025.24 0 1.022-.09 2.345-.268.437-.065.81-.097 1.12-.097.465 0 .697.195.697.584 0 .764-.718 1.26-2.154 1.487-.325.049-.62.073-.888.073-2.155 0-3.282-1.17-3.38-3.509Zm6.591-8.92c-.042.747-.225 1.543-.55 2.388-.295.634-.562.983-.802 1.048-.183 0-.26-.496-.232-1.487l-.084-2.071V4.556c0-.536-.296-1.138-.888-1.804-.465-.504-.718-.877-.76-1.12a.618.618 0 0 1-.022-.172c0-.341.226-.512.677-.512.464 0 1.056.276 1.774.829.662.536.979 1.024.951 1.462l-.064.878v4.216l1.564-.706c.14-.05.275-.074.401-.074.48 0 .824.276 1.035.829.07.195.106.399.106.61 0 .422-.232.617-.697.584h-.127c-1.352-.178-2.112-.267-2.282-.267Zm12.803 1.071c-.478.78-1.373 1.61-2.683 2.487-1.197.78-2.14 1.17-2.831 1.17-.197 0-.295-.049-.295-.147 0-.113.049-.21.147-.292 1.888-1.349 3.24-2.56 4.056-3.632.395-.52.733-1.056 1.015-1.608.31-.601.464-1.081.464-1.439 0-.243-.148-.673-.443-1.29-.155-.326-.232-.586-.232-.781 0-.243.176-.373.528-.39.479 0 1.02.358 1.626 1.073.493.584.74 1.096.74 1.535 0 .65-.444 1.487-1.331 2.51l-.105.122 2.598 1.487c.31.276.486.78.528 1.51 0 .684-.183 1.09-.55 1.22a.601.601 0 0 1-.168.025.649.649 0 0 1-.444-.196c-.127-.114-.387-.48-.781-1.096a12.135 12.135 0 0 1-.212-.293c-.76-.975-1.303-1.633-1.627-1.975Zm8.324 3.072v1.974c-.028 1.739-.246 3.299-.655 4.68-.267.86-.493 1.292-.676 1.292-.211 0-.282-.756-.211-2.267-.099-2.26-.14-6.516-.127-12.772V5.117c0-.65-.31-1.317-.93-2-.436-.487-.675-.828-.717-1.023a.811.811 0 0 1-.022-.17c0-.374.197-.561.591-.561.564 0 1.19.284 1.881.853.62.504.923 1.015.909 1.536l-.043 1.023v7.58c.226 0 .634-.146 1.226-.439.31-.162.563-.244.76-.244.451 0 .789.277 1.014.829.085.195.127.398.127.61 0 .39-.19.584-.571.584l-2.535-.243h-.021ZM111.19 5.75c-.07.016-.394.13-.972.34a1.605 1.605 0 0 1-.57.123c-.395 0-.888-.227-1.479-.682-.437-.342-.655-.643-.655-.902 0-.277.225-.415.676-.415l2.408.171h.022c.704 0 1.457-.154 2.26-.463.648-.211.993-.317 1.036-.317.464 0 .88.179 1.246.536.211.195.316.415.316.659-.14.6-1.013.885-2.619.852a.557.557 0 0 0-.19.025c.324.309.514.707.57 1.194 0 .52-.31 1.137-.929 1.852.676.358 1.091.666 1.246.926.169.293.254.756.254 1.39 0 .91-.148 1.665-.444 2.267-.197.373-.422.56-.676.56-.197 0-.331-.333-.401-1a.246.246 0 0 1-.021-.096l-.318-2.365-.21-1.024v-.024l-.994.878a.235.235 0 0 1-.063.048c-1.127.83-2.267 1.471-3.422 1.926-.493.178-.881.267-1.163.267-.169 0-.253-.056-.253-.17 0-.098.035-.17.106-.22l.676-.39 1.077-.706a10.892 10.892 0 0 0 2.641-2.413c.662-.812.993-1.511.993-2.096l-.148-.73Zm.359 9.238c.859 0 1.528.268 2.007.804l.275.39c.099.227.148.47.148.73l-.085 1.098v.024c0 .715.381 1.072 1.141 1.072.521 0 1.437-.106 2.746-.317.719-.13 1.106-.195 1.162-.195.451.065.691.341.719.829 0 .634-.803 1.137-2.409 1.511l-1.267.22h-.19c-.958 0-1.704-.407-2.24-1.22a6.052 6.052 0 0 1-.486-.9c-.464-.96-.746-1.512-.845-1.658-.113-.18-.443-.545-.993-1.097a4.047 4.047 0 0 1-.422-.512.605.605 0 0 1-.106-.317c0-.308.282-.462.845-.462Zm6.74-5.899c-.24.032-.796.244-1.669.634-.212.097-.36.146-.444.146-.352 0-.774-.22-1.267-.658-.339-.309-.508-.593-.508-.853s.233-.39.698-.39c1.591 0 2.605-.106 3.042-.317a.213.213 0 0 0 .084-.049c.056-.048.078-.836.064-2.364 0-1.04-.324-1.91-.972-2.608-.38-.422-.599-.699-.655-.829a.777.777 0 0 1-.064-.316c0-.358.226-.537.677-.537.535 0 1.148.285 1.838.853.591.504.887.992.887 1.463-.028 3.737-.043 6.54-.043 8.408 0 .715-.155 1.69-.464 2.925-.296 1.203-.613 1.804-.951 1.804-.112 0-.169-.138-.169-.415l.042-1.243v-.024l-.105-2.218v-.025l-.021-3.387Z"/></svg>