<svg xmlns="http://www.w3.org/2000/svg" width="120" height="14"><path fill="#4D4D4D" d="M4.175 13.444 1.557 3.222 1.26 2.13c-.088-.381-.287-.572-.596-.572l-.49-.008L0 1.532v-.505h4.39v.505h-.157l-.448.017c-.524 0-.786.146-.786.439 0 .188.08.6.24 1.234l1.814 7.132 2.824-9.178h.58l2.825 9.435 2.12-7.38c.238-.818.357-1.284.357-1.4 0-.188-.24-.282-.721-.282l-.572-.017h-.149v-.505h3.371v.505l-.149.017-.496.017c-.332.016-.55.19-.655.521l-.356 1.135-2.999 10.222h-.555l-2.89-9.435-2.842 9.435h-.571Zm15-9.153v6.85c0 .652.05 1.074.15 1.267.1.188.323.293.67.315l.564.041.157.009v.513h-4.704v-.513l.157-.008.555-.042c.32-.022.522-.074.605-.157.088-.089.143-.29.165-.605l.05-.82V6.436l-.05-.812c-.022-.314-.077-.516-.165-.604-.083-.089-.285-.144-.605-.166l-.555-.041-.157-.009v-.513h3.164Zm-1.631-1.632V1.027h1.632V2.66h-1.632Zm6.834 6.204v2.278l.05.82c0 .342.055.555.165.638.116.077.436.132.96.165l.158.009v.513h-4.497v-.513l.157-.008.555-.042c.32-.022.522-.074.605-.157.088-.089.143-.29.165-.605l.05-.82V2.352l-.05-.82c-.022-.314-.077-.513-.166-.596-.082-.088-.284-.144-.604-.166L21.37.73l-.156-.01V.207h3.164v8.25h.389l2.087-2.004 1.218-1.26c.083-.082.124-.151.124-.206 0-.105-.1-.158-.298-.158l-.787-.025h-.174v-.513h3.504v.513l-.157.009c-.586.038-.961.11-1.127.215-.16.1-.676.58-1.549 1.441l-1.574 1.55 2.7 3.172.895.977c.243.27.42.43.53.48.116.05.373.089.77.117l.158.008v.513h-2.526l-3.794-4.423h-.39ZM34.55 4.291v6.85c0 .652.05 1.074.149 1.267.1.188.323.293.67.315l.564.041.157.009v.513h-4.705v-.513l.158-.008.555-.042c.32-.022.522-.074.604-.157.089-.089.144-.29.166-.605l.05-.82V6.436l-.05-.812c-.022-.314-.077-.516-.166-.604-.082-.089-.284-.144-.604-.166l-.555-.041-.158-.009v-.513h3.165Zm-1.632-1.632V1.027h1.632V2.66h-1.632Zm8.416 10.835c-1.298 0-2.328-.423-3.09-1.268-.762-.85-1.143-1.996-1.143-3.437 0-1.453.384-2.599 1.151-3.438.768-.84 1.814-1.26 3.14-1.26 1.325 0 2.371.42 3.139 1.26.767.84 1.151 1.98 1.151 3.421 0 1.474-.386 2.631-1.16 3.47-.767.835-1.83 1.251-3.188 1.251Zm.024-.514c.757 0 1.378-.395 1.864-1.185.486-.79.73-1.797.73-3.023 0-1.187-.247-2.179-.738-2.974-.486-.8-1.093-1.2-1.822-1.2-.73 0-1.337.4-1.823 1.2-.486.795-.729 1.792-.729 2.99 0 1.193.24 2.19.721 2.99.48.802 1.08 1.202 1.797 1.202Zm8.632-6.237v4.398c0 .652.05 1.074.149 1.267.1.188.323.293.67.315l.564.041.356.009v.513h-4.904v-.513l.158-.008.555-.042c.32-.022.522-.074.605-.157.088-.089.143-.29.165-.605l.05-.82V6.436l-.05-.812c-.022-.314-.077-.516-.166-.604-.082-.089-.284-.144-.604-.166l-.555-.041-.158-.009v-.513h3.165v1.69c.745-1.26 1.72-1.89 2.924-1.89.165 0 .35.031.555.092v2.46h-.92l-.016-.149-.075-.621c-.028-.293-.177-.44-.447-.44-.823 0-1.497.437-2.021 1.31Zm10.105-2.237a8.104 8.104 0 0 0-1.764-2.104l-2.377 1.615-.299-.439 2.27-1.507C56.937 1.32 55.893.897 54.794.803V.207c1.436 0 2.85.373 4.241 1.118l1.74-1.168.29.415-1.632 1.085a8.696 8.696 0 0 1 2.808 3.015c.7 1.226 1.052 2.485 1.052 3.777 0 1.502-.398 2.72-1.193 3.653-.795.928-1.836 1.391-3.123 1.391-1.248 0-2.256-.425-3.023-1.275-.763-.85-1.144-1.969-1.144-3.355 0-1.336.384-2.432 1.152-3.288.773-.856 1.759-1.284 2.957-1.284.37 0 .762.072 1.176.215Zm-.977 8.474c1.695 0 2.543-1.466 2.543-4.399 0-1.148-.232-2.065-.696-2.75-.458-.684-1.074-1.027-1.847-1.027-.773 0-1.395.376-1.864 1.127-.47.75-.704 1.742-.704 2.974 0 1.176.243 2.15.729 2.924.486.767 1.099 1.15 1.839 1.15Zm11.34-.928c-.972.961-1.933 1.441-2.883 1.441-.762 0-1.397-.24-1.905-.72-.508-.486-.762-1.094-.762-1.822 0-1.988 1.612-2.982 4.837-2.982h.34V6.85c0-1.419-.538-2.129-1.615-2.129-1.072 0-1.66.539-1.765 1.616l-.008.157h-1.11V4.846c1.149-.503 2.209-.754 3.18-.754 1.967 0 2.95.897 2.95 2.692v4.01c0 1.302.279 1.954.836 1.954.105 0 .252-.025.44-.075l.049.613a3.233 3.233 0 0 1-1.06.207c-.8 0-1.309-.48-1.524-1.44Zm-.373-.182V8.482h-.381c-2.043 0-3.065.746-3.065 2.237 0 .519.166.95.497 1.292.337.342.757.513 1.26.513.48 0 1.043-.218 1.689-.654Zm4.53 1.516V2.352l-.049-.82c-.022-.314-.077-.513-.166-.596-.082-.088-.284-.144-.604-.166L73.24.73l-.156-.01V.207h3.164v5.774c.811-1.26 1.866-1.89 3.164-1.89 1.016 0 1.825.401 2.427 1.202.602.8.903 1.878.903 3.23 0 1.502-.345 2.706-1.036 3.612-.69.906-1.607 1.358-2.75 1.358-1.054 0-1.957-.408-2.708-1.225h-.1l-.207 1.118h-1.325Zm1.633-1.764c.867.64 1.698.96 2.493.96 1.508 0 2.261-1.204 2.261-3.611 0-2.551-.731-3.827-2.195-3.827-.983 0-1.836.47-2.56 1.408v5.07Zm12.466 1.871c-1.298 0-2.328-.422-3.09-1.267-.762-.85-1.143-1.996-1.143-3.437 0-1.453.384-2.599 1.152-3.438.767-.84 1.814-1.26 3.139-1.26 1.325 0 2.372.42 3.14 1.26.767.84 1.15 1.98 1.15 3.421 0 1.474-.386 2.631-1.159 3.47-.768.835-1.83 1.251-3.189 1.251Zm.025-.513c.756 0 1.378-.395 1.864-1.185.486-.79.729-1.797.729-3.023 0-1.187-.246-2.179-.738-2.974-.486-.8-1.093-1.2-1.822-1.2-.729 0-1.336.4-1.822 1.2-.486.795-.73 1.792-.73 2.99 0 1.193.241 2.19.721 2.99.48.802 1.08 1.202 1.798 1.202Zm-1.45-10.321L89.286 0h2.145L88.06 2.659h-.77ZM97.37 8.863v2.278l.05.82c0 .342.055.555.165.638.116.077.437.132.961.165l.158.009v.513h-4.498v-.513l.157-.008.555-.042c.32-.022.522-.074.605-.157.088-.089.144-.29.166-.605l.05-.82V2.352l-.05-.82c-.022-.314-.078-.513-.166-.596-.083-.088-.284-.144-.605-.166l-.555-.04-.157-.01V.207h3.164v8.25h.39l2.087-2.004 1.217-1.26c.083-.082.125-.151.125-.206 0-.105-.1-.158-.299-.158l-.786-.025h-.174v-.513h3.503v.513l-.157.009c-.585.038-.961.11-1.126.215-.161.1-.677.58-1.549 1.441l-1.574 1.55 2.7 3.172.895.977c.243.27.419.43.53.48.116.05.373.089.77.117l.158.008v.513h-2.527l-3.794-4.423h-.389Zm10.172-4.572v6.85c0 .652.05 1.074.149 1.267.099.188.323.293.671.315l.563.041.158.009v.513h-4.705v-.513l.157-.008.555-.042c.32-.022.522-.074.605-.157.088-.089.143-.29.165-.605l.05-.82V6.436l-.05-.812c-.022-.314-.077-.516-.165-.604-.083-.089-.285-.144-.605-.166l-.555-.041-.157-.009v-.513h3.164Zm-1.632-1.632V1.027h1.632V2.66h-1.632Zm6.834 3.322c.828-1.26 1.911-1.89 3.247-1.89.773 0 1.378.255 1.814.763.442.508.663 1.207.663 2.096v4.191l.058.82c.016.315.069.516.157.605.088.083.29.135.605.157l.563.041.149.009v.513h-4.697v-.513l.149-.008.564-.042c.314-.022.516-.074.604-.157.089-.089.144-.29.166-.605l.05-.82V7.206c0-.773-.102-1.308-.307-1.607-.199-.303-.555-.455-1.068-.455-.74 0-1.646.461-2.717 1.383v4.614c0 .652.05 1.074.149 1.267.099.188.323.293.671.315l.563.041.158.009v.513h-4.705v-.513l.157-.008.555-.042c.32-.022.522-.074.605-.157.088-.089.143-.29.165-.605l.05-.82V6.436l-.05-.812c-.022-.314-.077-.516-.165-.604-.083-.089-.285-.144-.605-.166l-.555-.041-.157-.009v-.513h3.164v1.69Z"/></svg>