<svg width="129" height="21" xmlns="http://www.w3.org/2000/svg"><path d="M121.33 3.867q0-1.537.791-2.26.814-.723 2.102-.723.813 0 1.514.316.7.294 1.107.927.43.61.43 1.604 0 1.198-.61 1.854-.588.655-1.492.904t-1.83.248h-.159v13.244h-1.853V6.737h-1.13v-1.65h1.13zm2.938-1.379q-.497 0-.791.317t-.294 1.062v1.22h.181q.859 0 1.469-.248.61-.272.61-1.13 0-.633-.339-.927-.316-.294-.836-.294zm-21.99 17.492v-9.447q0-1.062.249-2.056.27-.994.881-1.785t1.627-1.266q1.04-.475 2.577-.475 1.4 0 2.373.475.994.475 1.695 1.56.226-1.018.994-1.673t2.057-.655 2.034.655 1.084 1.763q.362 1.107.43 2.508l-1.786.226q-.135-1.762-.474-2.621-.34-.882-1.379-.882-.994 0-1.356.814t-.361 2.418V19.98zm8.791-9.944q0-.859-.339-1.627-.316-.79-1.084-1.288-.746-.52-2.057-.52t-2.08.52q-.745.52-1.061 1.356t-.317 1.763v1.74h6.938zm-6.938 8.34h6.938v-4.769h-6.938zM85.576 6.736v-1.65h14.441v1.65h-1.13l-2.96 5.673-1.695-.79 2.621-4.882h-7.752q-.203.474-.474 1.378t-.497 2.057q-.204 1.152-.204 2.35 0 2.102.7 3.413.701 1.288 1.854 1.898 1.175.588 2.509.588 1.423 0 2.621-.565 1.198-.588 2.192-1.47l1.108 1.38q-1.266 1.084-2.78 1.717-1.492.633-3.164.633-1.356 0-2.599-.452t-2.215-1.379q-.949-.926-1.514-2.328-.565-1.423-.565-3.344 0-1.063.158-2.147t.384-2.057q.249-.972.475-1.672zm-17.379 0v-1.65h15.571v1.65H82.39l-2.057 3.933-1.672-.588 1.785-3.344h-4.61q-.136.384-.385 1.152-.226.746-.406 1.605-.181.836-.181 1.514 0 1.356.768 2.034.769.655 1.74.655.633 0 1.334-.248.723-.271 1.265-.746l1.017 1.379q-.836.655-1.853.971t-1.876.317q-1.062 0-2.034-.475t-1.582-1.446q-.587-.972-.587-2.418 0-1.063.271-2.238.294-1.198.565-2.056h-2.35q-.204.587-.43 1.536-.226.927-.407 2.012-.158 1.085-.158 2.124 0 2.17.814 3.503.813 1.311 2.147 1.921 1.333.588 2.893.588 1.469 0 2.915-.497 1.469-.52 2.825-1.605l1.062 1.424q-1.491 1.152-3.3 1.763-1.785.61-3.525.61-1.424 0-2.802-.43-1.356-.429-2.464-1.356t-1.763-2.373q-.655-1.469-.655-3.525 0-.972.136-2.034.158-1.062.361-2.012t.407-1.65zM55.541 20.004q-1.876-.046-3.3-.995-1.423-.972-2.214-2.734-.791-1.786-.791-4.25 0-2.033.407-3.412t1.084-2.192q.678-.836 1.515-1.175.858-.362 1.762-.362.724 0 1.447.294t1.31.994q.588.678.882 1.854h.09q.498-1.763 1.492-2.464t2.328-.7q.836 0 1.627.361t1.424 1.175.994 2.193q.384 1.378.384 3.412 0 3.684-1.65 5.786t-4.542 2.215V18.24q2.08-.09 3.21-1.718t1.13-4.52q0-2.17-.34-3.322-.316-1.175-.881-1.604-.565-.452-1.288-.452-.61 0-1.153.226-.52.226-.927.836t-.655 1.717q-.249 1.085-.271 2.848h-1.853q-.023-2.305-.43-3.503-.407-1.22-1.062-1.65-.633-.452-1.379-.452-.768 0-1.378.475-.61.452-.972 1.627-.339 1.153-.339 3.277 0 2.893 1.085 4.543 1.085 1.627 3.254 1.672zM29.144 6.759V5.086h18.103V6.76h-1.13v5.107h-1.83V6.76h-2.803v13.22h-11.21V6.76zm2.983 11.594h2.87V6.759h-2.87zm4.679 0h2.847V6.759h-2.847zM21.958 3.866q0-1.537.79-2.26.814-.724 2.102-.724.814 0 1.515.317.7.294 1.107.926.43.61.43 1.605 0 1.198-.61 1.853-.588.656-1.492.904t-1.831.249h-.158V19.98h-1.853V6.736h-1.13v-1.65h1.13zm2.938-1.379q-.498 0-.791.316t-.294 1.063v1.22h.18q.86 0 1.47-.249.61-.27.61-1.13 0-.632-.34-.926-.316-.294-.835-.294zM2.228 19.98l-.498-1.808q1.447-.316 2.283-.994.859-.7 1.22-1.627t.362-1.922q0-1.084-.43-2.305t-1.22-2.418T2.07 6.69V5.086H18.68V6.69q-1.808 1.786-2.734 3.639t-.927 3.525q0 1.447.927 2.712.926 1.243 2.96 1.763l-.52 1.65q-1.491-.362-2.847-1.288-1.333-.95-2.486-2.17-1.13-1.243-2.08-2.508-.926-1.289-1.649-2.328l1.514-1.062q.588.904 1.198 1.808.61.881 1.243 1.672-.023-.158-.023-.249v-.226q0-2.01.86-3.683.88-1.695 2.237-3.21H4.488Q5.91 8.408 6.68 10.171q.768 1.74.768 3.593 0 1.582-.497 2.712-.475 1.107-1.266 1.83-.768.724-1.695 1.13-.904.385-1.762.543z" style="fill:#4d4d4d;stroke-width:2.26"/></svg>