<svg xmlns="http://www.w3.org/2000/svg" width="120" height="16"><path fill="gray" d="M3.183 12.347 1.174 2.805l-.247-.982c-.056-.247-.123-.399-.2-.455-.078-.062-.269-.1-.572-.116L0 1.236.093.765h4.149l-.093.471h-.17c-.793 0-1.21.103-1.252.31-.015.077.055.496.21 1.259l1.521 7.2 4.219-7.208c.412-.7.628-1.107.649-1.22.041-.217-.119-.325-.48-.325l-.57-.016h-.17l.092-.471h2.951l-.092.471-.178.016c-.433.02-.74.183-.92.486L9.31 2.797l-5.601 9.55h-.526Zm11.868-1.298c-1.087.896-2.073 1.344-2.96 1.344-.71 0-1.258-.224-1.645-.672-.381-.453-.505-1.02-.37-1.7.37-1.854 2.06-2.781 5.068-2.781h.317l.208-1.043c.268-1.324-.1-1.986-1.105-1.986-.999 0-1.648.502-1.947 1.507l-.038.146h-1.036l.31-1.537c1.164-.469 2.199-.703 3.106-.703 1.833 0 2.583.837 2.248 2.51l-.75 3.74c-.242 1.216-.103 1.824.418 1.824.098 0 .24-.023.425-.07l-.07.572c-.391.129-.734.193-1.028.193-.747 0-1.13-.448-1.15-1.344Zm-.317-.17.634-3.16h-.355c-1.906 0-2.998.695-3.277 2.086-.097.484-.023.886.225 1.205.247.32.605.48 1.074.48.448 0 1.014-.204 1.7-.611Zm6.158.37-.401 2.002c-.124.608-.157 1-.1 1.174.056.18.246.281.57.302l.519.038.139.008-.093.48h-4.389l.093-.48.155-.008.525-.038c.299-.02.497-.072.595-.155.098-.077.185-.265.263-.564l.2-.757 1.484-7.44.108-.758c.036-.293.023-.481-.038-.564-.062-.082-.24-.134-.534-.154l-.51-.04-.146-.007.092-.479h2.952l-.317 1.576c.994-1.174 2.097-1.761 3.307-1.761.948 0 1.628.373 2.04 1.12.412.747.492 1.751.24 3.013-.279 1.401-.825 2.524-1.639 3.37-.814.844-1.754 1.266-2.82 1.266-.984 0-1.749-.38-2.295-1.143Zm.116-.602c.69.598 1.407.896 2.148.896 1.407 0 2.334-1.122 2.782-3.368.479-2.38.036-3.57-1.33-3.57-.916 0-1.8.438-2.65 1.313l-.95 4.73Zm12.803.402c-1.087.896-2.073 1.344-2.96 1.344-.71 0-1.259-.224-1.645-.672-.381-.453-.505-1.02-.37-1.7.37-1.854 2.06-2.781 5.068-2.781h.317l.208-1.043c.268-1.324-.1-1.986-1.105-1.986-.999 0-1.648.502-1.947 1.507l-.038.146h-1.036l.31-1.537c1.163-.469 2.199-.703 3.105-.703 1.834 0 2.584.837 2.249 2.51l-.75 3.74c-.242 1.216-.103 1.824.418 1.824.097 0 .24-.023.425-.07l-.07.572c-.392.129-.734.193-1.028.193-.747 0-1.13-.448-1.15-1.344Zm-.317-.17.634-3.16h-.355c-1.906 0-2.998.695-3.277 2.086-.097.484-.023.886.225 1.205.247.32.605.48 1.073.48.449 0 1.015-.204 1.7-.611Zm8.909.17c-1.087.896-2.073 1.344-2.96 1.344-.71 0-1.259-.224-1.645-.672-.381-.453-.505-1.02-.37-1.7.37-1.854 2.06-2.781 5.068-2.781h.316l.21-1.043c.267-1.324-.101-1.986-1.106-1.986-1 0-1.648.502-1.947 1.507l-.038.146h-1.036l.31-1.537c1.163-.469 2.199-.703 3.105-.703 1.834 0 2.583.837 2.249 2.51l-.75 3.74c-.242 1.216-.103 1.824.417 1.824.098 0 .24-.023.425-.07l-.07.572c-.39.129-.733.193-1.027.193-.747 0-1.13-.448-1.151-1.344Zm-.317-.17.634-3.16h-.356c-1.906 0-2.998.695-3.276 2.086-.098.484-.023.886.224 1.205.248.32.606.48 1.074.48.448 0 1.015-.204 1.7-.611Zm8.708.888.425-2.132h.858l-.008.147-.1.803c-.047.397.092.719.417.966.33.242.78.363 1.352.363.468 0 .878-.139 1.228-.417a1.8 1.8 0 0 0 .665-1.09c.144-.7-.201-1.223-1.036-1.568l-.718-.301c-1.468-.613-2.094-1.468-1.878-2.565.14-.68.523-1.242 1.151-1.685.634-.443 1.37-.664 2.21-.664.82 0 1.636.157 2.45.471l-.402 2.001h-.858l.031-.139.07-.703c.082-.773-.346-1.159-1.283-1.159-.448 0-.85.144-1.205.433a1.81 1.81 0 0 0-.657 1.081c-.072.361-.01.652.185.874.196.216.624.47 1.283.764l.657.294c.71.32 1.184.652 1.421.997.242.34.31.78.201 1.321-.15.742-.569 1.35-1.26 1.823-.684.474-1.495.711-2.433.711-1.025 0-1.947-.208-2.766-.626Zm12.996-.718c-1.087.896-2.073 1.344-2.96 1.344-.71 0-1.259-.224-1.645-.672-.381-.453-.505-1.02-.371-1.7.37-1.854 2.06-2.781 5.069-2.781h.316l.209-1.043c.268-1.324-.1-1.986-1.105-1.986-1 0-1.648.502-1.947 1.507l-.039.146h-1.035l.31-1.537c1.163-.469 2.199-.703 3.105-.703 1.834 0 2.583.837 2.248 2.51l-.749 3.74c-.242 1.216-.103 1.824.417 1.824.098 0 .24-.023.425-.07l-.07.572c-.39.129-.733.193-1.027.193-.747 0-1.13-.448-1.151-1.344Zm-.317-.17.634-3.16h-.356c-1.906 0-2.998.695-3.276 2.086-.098.484-.023.886.224 1.205.248.32.605.48 1.074.48.448 0 1.015-.204 1.7-.611Zm7.325-5.494c1.01-1.174 2.137-1.761 3.384-1.761.721 0 1.239.237 1.553.71.314.474.389 1.126.224 1.955l-.78 3.91-.1.765c-.042.293-.032.481.03.564.067.077.247.126.541.147l.518.038.131.008-.093.48h-4.38l.092-.48.147-.008.533-.038c.294-.02.49-.07.587-.147.103-.083.193-.27.27-.564l.202-.765.734-3.67c.144-.721.149-1.22.015-1.5-.129-.282-.433-.424-.912-.424-.69 0-1.622.43-2.797 1.29L69.84 10.2c-.124.608-.157 1.002-.1 1.182.056.175.247.273.571.294l.518.038.139.008-.093.48h-4.389l.093-.48.155-.008.525-.038c.299-.02.497-.07.595-.147.098-.083.185-.27.263-.564l.2-.765.874-4.389.108-.757c.036-.293.023-.481-.039-.564-.062-.082-.24-.134-.533-.154l-.51-.04-.147-.007.093-.479h2.952l-.317 1.576Zm11.597 5.664c-1.087.896-2.073 1.344-2.959 1.344-.71 0-1.26-.224-1.646-.672-.38-.453-.505-1.02-.37-1.7.37-1.854 2.06-2.781 5.068-2.781h.317l.208-1.043c.268-1.324-.1-1.986-1.105-1.986-.999 0-1.648.502-1.947 1.507l-.038.146h-1.036l.31-1.537c1.164-.469 2.199-.703 3.105-.703 1.834 0 2.584.837 2.249 2.51l-.75 3.74c-.242 1.216-.103 1.824.418 1.824.098 0 .24-.023.425-.07l-.07.572c-.391.129-.734.193-1.028.193-.746 0-1.13-.448-1.15-1.344Zm-.317-.17.634-3.16h-.355c-1.906 0-2.998.695-3.276 2.086-.098.484-.024.886.224 1.205.247.32.605.48 1.074.48.448 0 1.014-.204 1.7-.611Zm6.792-2.805-.425 2.125-.108.765c-.062.32-.05.518.038.595.093.072.382.123.866.154l.139.008-.093.48h-4.195l.093-.48.154-.008.525-.038c.3-.02.498-.07.595-.147.098-.083.186-.27.263-.564l.2-.765 1.639-8.198.108-.765c.036-.293.02-.479-.046-.556-.062-.082-.24-.134-.533-.155l-.51-.038-.147-.008.1-.479h2.952l-1.538 7.696h.363l2.318-1.87 1.368-1.175c.093-.077.144-.141.154-.193.021-.098-.061-.147-.247-.147l-.726-.023h-.162l.092-.479h3.269l-.093.48-.147.007c-.556.036-.92.103-1.09.2-.17.094-.741.542-1.715 1.345L90.57 7.286l1.931 2.96.65.911c.175.252.311.402.409.448.098.046.33.083.695.108l.14.008-.093.48h-2.357l-2.712-4.127h-.363ZM99.208 3.81l-1.275 6.39c-.124.608-.157 1.002-.1 1.182.056.175.247.273.572.294l.517.038.14.008-.093.48h-4.39l.094-.48.154-.008.526-.038c.298-.02.497-.07.595-.147.097-.083.185-.27.262-.564l.201-.765.873-4.389.108-.757c.036-.293.023-.481-.038-.564-.062-.082-.24-.134-.533-.154l-.51-.04-.147-.007.093-.479h2.951Zm-1.213-1.522.301-1.522h1.522l-.3 1.522h-1.523Zm5.609 3.81-.819 4.102c-.123.608-.157 1.002-.1 1.182.057.175.247.273.572.294l.517.038.325.008-.093.48h-4.574l.093-.48.154-.008.526-.038c.299-.02.497-.07.595-.147.098-.083.185-.27.262-.564l.201-.765.873-4.389.109-.757c.036-.293.023-.481-.039-.564-.062-.082-.24-.134-.533-.154l-.51-.04-.147-.007.093-.479h2.951l-.317 1.576c.933-1.174 1.96-1.761 3.083-1.761.155 0 .322.028.503.085l-.464 2.294h-.858l.016-.139.046-.58c.031-.272-.08-.409-.332-.409-.768 0-1.478.407-2.133 1.221Zm6.916-3.81.301-1.522h1.522l-.301 1.522h-1.522Zm1.213 1.522-1.662 8.298c-.443 2.22-1.599 3.33-3.469 3.33-.505 0-1.058-.1-1.661-.3l.379-1.886h.857l-.023.139c-.118.598-.131 1.01-.038 1.236.097.227.332.34.703.34.772 0 1.249-.445 1.429-1.336l.162-.796 1.399-7.024c.123-.607.157-.999.1-1.174-.056-.18-.244-.28-.564-.301l-.517-.04-.14-.007.093-.479h2.952Zm6.019 7.24c-1.087.896-2.074 1.344-2.96 1.344-.71 0-1.259-.224-1.645-.672-.382-.453-.505-1.02-.371-1.7.371-1.854 2.06-2.781 5.068-2.781h.317l.209-1.043c.268-1.324-.101-1.986-1.105-1.986-.999 0-1.648.502-1.947 1.507l-.039.146h-1.035l.309-1.537c1.164-.469 2.199-.703 3.106-.703 1.834 0 2.583.837 2.248 2.51l-.749 3.74c-.242 1.216-.103 1.824.417 1.824.098 0 .24-.023.425-.07l-.07.572c-.391.129-.734.193-1.027.193-.747 0-1.131-.448-1.151-1.344Zm-.317-.17.633-3.16h-.355c-1.906 0-2.998.695-3.276 2.086-.098.484-.023.886.224 1.205.247.32.605.48 1.074.48.448 0 1.015-.204 1.7-.611Z"/></svg>