<svg xmlns="http://www.w3.org/2000/svg" width="121" height="10" fill="none"><path fill="#4D4D4D" d="M10.489 4.417c0 .663-.168 1.228-.503 1.694-.343.46-.824.689-1.443.689a1.89 1.89 0 0 1-1.323-.525c-.379-.357-.568-.83-.568-1.421v-.83c0-.62-.124-1.076-.372-1.367-.248-.299-.543-.448-.885-.448-.285 0-.54.09-.765.273-.226.175-.34.39-.34.645V6.69h-.94V3.597c0-.401-.094-.71-.284-.93a.934.934 0 0 0-.721-.327c-.379 0-.725.171-1.038.514-.307.342-.46.794-.46 1.355 0 .51.102.973.306 1.388.212.408.54.714.984.918l-.306.285C.855 6.275.366 5.364.366 4.067c0-.722.212-1.305.634-1.75.416-.444.911-.666 1.487-.666.641 0 1.17.277 1.585.83.364-.538.864-.808 1.498-.808.495 0 .932.179 1.311.536.38.35.569.805.569 1.366v.962c0 .495.12.882.36 1.159.234.284.51.426.831.426.416 0 .743-.182.984-.547.233-.371.35-.816.35-1.333 0-.496-.113-.955-.34-1.378a2.04 2.04 0 0 0-1.016-.929l.306-.262c.532.255.926.63 1.18 1.126a3.44 3.44 0 0 1 .383 1.618ZM13.67 7.4h-3.116v-.393h2.197V1.968h.918v5.433ZM22.414 4.515a2.6 2.6 0 0 1-.36 1.323 2.771 2.771 0 0 1-1.006 1.005l-.558-.186c.642-.502.962-1.17.962-2 0-.67-.2-1.253-.6-1.749-.402-.495-.93-.743-1.586-.743-.226 0-.444.05-.656.153.365.306.66.67.886 1.093.233.423.35.86.35 1.312 0 .656-.165 1.17-.492 1.541-.336.372-.726.557-1.17.557-.445 0-.824-.178-1.137-.535-.32-.357-.48-.86-.48-1.509 0-.437.105-.86.316-1.268.219-.415.503-.761.853-1.038a1.823 1.823 0 0 0-.776-.197c-.525 0-.973.23-1.345.689-.379.459-.568.984-.568 1.574 0 .947.35 1.654 1.05 2.12l-.373.186c-.794-.568-1.191-1.392-1.191-2.47 0-.78.237-1.421.71-1.924.481-.503 1.057-.754 1.728-.754.43 0 .856.116 1.279.35.371-.234.794-.35 1.267-.35.868 0 1.567.284 2.1.852.531.569.797 1.225.797 1.968Zm-3.388.197c0-.824-.325-1.509-.973-2.055-.75.605-1.126 1.315-1.126 2.131 0 .423.105.755.317.995.204.24.444.36.721.36.292 0 .543-.127.755-.382.204-.248.306-.597.306-1.05ZM32.23 4.7c0-.823-.32-1.511-.962-2.065-.772.627-1.158 1.344-1.158 2.153 0 .416.105.744.317.984.21.248.462.372.754.372.291 0 .54-.128.743-.383.204-.248.306-.601.306-1.06Zm3.498-.021c0 1.385-.54 2.427-1.618 3.126-1.056.7-2.598 1.05-4.623 1.05-1.924 0-3.433-.365-4.526-1.093-1.151-.78-1.727-1.928-1.727-3.444 0-.91.335-1.778 1.006-2.601l.36.23c-.597.72-.896 1.475-.896 2.262 0 1.319.547 2.328 1.64 3.028 1.013.648 2.372.973 4.077.973 1.916 0 3.323-.321 4.22-.962.794-.569 1.19-1.367 1.19-2.394 0-.685-.203-1.308-.611-1.87-.401-.56-.93-.841-1.585-.841-.314 0-.583.058-.81.175.81.67 1.214 1.468 1.214 2.394 0 .554-.146 1.046-.437 1.475-.292.423-.7.634-1.224.634-.51 0-.908-.204-1.192-.612-.277-.408-.415-.885-.415-1.432a2.846 2.846 0 0 1 1.17-2.306c-.227-.146-.503-.219-.831-.219-.328 0-.627.077-.897.23a.744.744 0 0 0-.404.689v3.563h-.918V3.641c0-.35-.08-.645-.24-.886-.154-.24-.394-.36-.722-.36-.24 0-.467.069-.678.207a1.732 1.732 0 0 0-.678.765 2.55 2.55 0 0 0-.23 1.072c0 .466.117.889.35 1.268.234.378.554.659.962.841l-.306.295a2.6 2.6 0 0 1-1.104-1.05 2.929 2.929 0 0 1-.393-1.497c0-.67.204-1.271.612-1.803.4-.532.925-.798 1.574-.798.605 0 1.126.277 1.563.83.452-.553 1.013-.83 1.684-.83.378 0 .768.116 1.17.35a2.7 2.7 0 0 1 1.322-.35c.801 0 1.494.295 2.077.885.583.59.874 1.29.874 2.099ZM47.184 6.734H42.68v-.273c.335-.204.601-.529.798-.973.197-.445.295-.911.295-1.4 0-.517-.124-.947-.371-1.29-.24-.349-.602-.524-1.083-.524-.291 0-.546.08-.765.24a.75.75 0 0 0-.328.635v3.585h-.918V3.378c0-.299-.135-.55-.404-.754a1.518 1.518 0 0 0-.919-.295c-.612 0-1.089.178-1.431.535-.336.358-.543.93-.623 1.717l.043.021c.32-.532.707-.797 1.159-.797.371 0 .667.156.885.47.219.32.328.692.328 1.114 0 .409-.105.758-.317 1.05-.211.284-.517.426-.918.426-.474 0-.849-.204-1.126-.612-.277-.408-.415-.907-.415-1.497 0-.868.251-1.593.754-2.176.503-.59 1.148-.885 1.935-.885.371 0 .696.073.973.218.277.146.543.372.798.678.19-.277.426-.492.71-.645.284-.153.569-.23.853-.23.663 0 1.173.23 1.53.69.357.451.536 1.005.536 1.66a3.3 3.3 0 0 1-.24 1.258 2.52 2.52 0 0 1-.711.984l.022.043h2.645V1.804h.809v4.93Zm-8.56-1.432c0-.255-.068-.48-.207-.678a.646.646 0 0 0-.546-.284.707.707 0 0 0-.525.24c-.146.168-.219.394-.219.678 0 .306.073.54.219.7a.716.716 0 0 0 .546.251.625.625 0 0 0 .536-.273c.131-.175.197-.386.197-.634ZM58.64 9.642h-9.314c-.364 0-.67-.102-.918-.306-.255-.212-.383-.514-.383-.908 0-.867.485-1.3 1.454-1.3h6.122c.597.007 1.1-.223 1.508-.69.408-.458.612-1.023.612-1.693 0-.649-.204-1.21-.612-1.684-.4-.466-.885-.7-1.454-.7-.48 0-.947.212-1.399.635-.452.422-.678.929-.678 1.519 0 .466.131.89.394 1.268a1.85 1.85 0 0 0 1.093.765v.186h-5.017v-.186c.255-.087.455-.244.6-.47.147-.233.22-.488.22-.765 0-.35-.11-.623-.329-.82a1.188 1.188 0 0 0-.787-.284 1.25 1.25 0 0 0-.852.317c-.24.219-.36.51-.36.874 0 .525.196.915.59 1.17l-.34.273a1.864 1.864 0 0 1-.557-.688 1.998 1.998 0 0 1-.208-.886c0-.554.186-.984.558-1.29.372-.306.812-.459 1.323-.459.51 0 .954.153 1.333.46.379.305.569.72.569 1.246 0 .422-.143.798-.427 1.125h2.569c-.576-.532-.864-1.184-.864-1.956 0-.824.277-1.476.831-1.957.561-.48 1.199-.721 1.913-.721.743 0 1.396.284 1.957.852.568.561.852 1.265.852 2.11 0 .823-.28 1.516-.841 2.077-.562.561-1.2.842-1.913.842h-6.559a.837.837 0 0 0-.492.153.475.475 0 0 0-.218.426c0 .19.073.324.218.404.146.08.31.12.492.12h9.313v.94ZM64.214 5.75c0 .299-.16.561-.48.787-.314.219-.777.328-1.389.328a7.053 7.053 0 0 1-1.629-.197l-.098-.524c.452.138.962.207 1.53.207.365 0 .641-.054.831-.164.197-.116.295-.251.295-.404 0-.11-.05-.211-.153-.306a.848.848 0 0 0-.437-.164 7.117 7.117 0 0 0-.47-.044 17.125 17.125 0 0 1-.426-.033c-.38-.036-.667-.134-.864-.295-.19-.153-.284-.335-.284-.546 0-.24.102-.448.306-.623.204-.175.455-.263.754-.263.117 0 .299.019.547.055.247.036.433.055.557.055a.509.509 0 0 0 .339-.131.416.416 0 0 0 .142-.317c0-.226-.127-.434-.383-.624-.255-.196-.608-.295-1.06-.295-.532 0-.987.204-1.366.612-.38.409-.569 1.05-.569 1.924 0 .481.113 1.133.34 1.957l-.47.098c-.19-.94-.285-1.65-.285-2.131 0-1.02.244-1.778.732-2.274a2.443 2.443 0 0 1 1.793-.743c.67 0 1.206.164 1.607.492.393.328.59.688.59 1.082a.804.804 0 0 1-.262.601c-.168.16-.39.24-.667.24a2.39 2.39 0 0 1-.492-.076 2.114 2.114 0 0 0-.492-.087.944.944 0 0 0-.514.13c-.138.096-.207.205-.207.329 0 .124.073.23.218.317.139.08.354.12.645.12.08 0 .193-.007.34-.022.138-.007.247-.01.327-.01.32 0 .583.09.787.272.212.19.317.412.317.667ZM68.707 4.307c0 .67-.164 1.265-.492 1.782-.32.517-.798.776-1.432.776-.46 0-.853-.175-1.18-.525a1.9 1.9 0 0 1-.514-1.267h.35c.043.313.163.579.36.797a.923.923 0 0 0 .71.328c.307 0 .565-.12.777-.36.211-.248.353-.518.426-.81a3.449 3.449 0 0 0 .022-1.715 1.932 1.932 0 0 0-.394-.744.89.89 0 0 0-.71-.339c-.328 0-.609.132-.842.394-.233.255-.35.554-.35.896v.164h-.35v-.109c0-.503.154-.944.46-1.323a1.503 1.503 0 0 1 1.202-.557c.437 0 .809.142 1.115.426.306.277.521.605.645.984.131.379.197.78.197 1.202ZM79.058 6.734h-7.345v-.077c.539-.342.809-.805.809-1.388 0-.364-.113-.648-.34-.852a1.14 1.14 0 0 0-.808-.306c-.335 0-.63.12-.885.36-.255.234-.383.554-.383.962 0 .488.193.867.58 1.137l-.34.273c-.51-.386-.765-.907-.765-1.563 0-.583.193-1.038.58-1.366a2.044 2.044 0 0 1 1.366-.492c.525 0 .977.16 1.355.48.387.329.58.78.58 1.356 0 .408-.139.773-.416 1.093H75.2V4.745c-.474 0-.89-.164-1.246-.492a1.559 1.559 0 0 1-.536-1.192c0-.371.142-.688.426-.95a1.42 1.42 0 0 1 .995-.394c.277 0 .507.054.689.164a.878.878 0 0 1 .393.448c.088.19.146.379.175.568.03.19.044.416.044.678 0 .095-.004.226-.011.393a9.464 9.464 0 0 0-.011.361c.503-.146 1.031-.477 1.585-.995.546-.517.9-1.027 1.06-1.53h.295v4.93Zm-.885-.383V3.247c-.262.32-.583.62-.962.896-.379.277-.743.456-1.093.536v1.672h2.055ZM75.2 4.362V3.028c0-.459-.204-.688-.612-.688a.484.484 0 0 0-.438.251 1.052 1.052 0 0 0-.153.558c0 .328.117.605.35.83.233.226.518.354.853.383ZM83.551 4.307c0 .67-.164 1.265-.492 1.782-.32.517-.798.776-1.432.776-.459 0-.852-.175-1.18-.525a1.9 1.9 0 0 1-.514-1.267h.35c.043.313.164.579.36.797a.923.923 0 0 0 .71.328c.307 0 .566-.12.777-.36.211-.248.353-.518.426-.81a3.449 3.449 0 0 0 .022-1.715 1.932 1.932 0 0 0-.393-.744.89.89 0 0 0-.71-.339c-.329 0-.61.132-.843.394-.233.255-.35.554-.35.896v.164h-.35v-.109c0-.503.154-.944.46-1.323a1.502 1.502 0 0 1 1.202-.557c.438 0 .81.142 1.115.426.306.277.521.605.645.984.131.379.197.78.197 1.202ZM91.946 4.296c0 .525-.138 1.02-.415 1.487-.277.466-.67.82-1.18 1.06l-.373-.35c.707-.451 1.06-1.202 1.06-2.251 0-.547-.13-1.01-.393-1.388a1.287 1.287 0 0 0-1.115-.58c-.284 0-.525.084-.721.252a.822.822 0 0 0-.284.645v3.563h-.919V3.641c0-.387-.109-.69-.328-.908a1.074 1.074 0 0 0-.787-.328c-.459 0-.83.193-1.115.58-.276.393-.415.86-.415 1.399 0 .459.102.889.306 1.29.204.393.521.688.951.885l-.317.284a2.531 2.531 0 0 1-1.071-1.07 3.147 3.147 0 0 1-.35-1.466c0-.707.204-1.319.612-1.836.408-.517.951-.776 1.629-.776.313 0 .616.076.907.23.299.152.5.356.602.612.327-.562.856-.842 1.584-.842.627 0 1.14.259 1.542.776.393.525.59 1.133.59 1.825ZM94.82 6.734h-.94V1.739c0-.358-.098-.63-.294-.82a.938.938 0 0 0-.689-.284c-.27 0-.503.087-.7.262-.196.175-.291.412-.284.71h-.382c.007-.502.178-.896.513-1.18a1.797 1.797 0 0 1 1.18-.416c.43 0 .806.132 1.127.394.313.262.47.63.47 1.104v5.225ZM107.391 6.734h-6.941V4.93h-2.667v-.076c.547-.328.82-.762.82-1.3 0-.35-.106-.631-.317-.843a1.036 1.036 0 0 0-.743-.306.953.953 0 0 0-.744.35c-.211.233-.317.569-.317 1.006 0 .415.164.747.492.995l-.328.295c-.437-.365-.656-.878-.656-1.542 0-.568.168-1.009.503-1.322.343-.314.75-.47 1.225-.47.488 0 .914.16 1.278.48.358.321.536.766.536 1.334 0 .386-.135.729-.404 1.028h1.322v-.612c0-.67.223-1.214.667-1.63.445-.414.995-.622 1.651-.622.765 0 1.34.244 1.727.732.379.481.572 1.25.579 2.307v.196h-3.695v1.421h5.083V1.804h.929v4.93Zm-2.754-2.405c-.007-.743-.139-1.282-.394-1.618-.262-.335-.656-.502-1.18-.502-.488 0-.889.156-1.203.47-.32.313-.481.736-.481 1.268v.612h3.258v-.23ZM120.366 5.74c0 .356-.204.637-.612.841.365.262.547.616.547 1.06 0 .365-.124.67-.372.918a1.23 1.23 0 0 1-.918.383c-.364 0-.674-.127-.929-.383a1.247 1.247 0 0 1-.372-.918c0-.32.095-.586.284-.798-.495-.043-.874-.127-1.136-.251l-.11-.58c.124.059.35.114.678.165.328.058.638.087.929.087.714 0 1.071-.164 1.071-.492 0-.204-.138-.339-.415-.404a3.465 3.465 0 0 0-.896-.088 1.916 1.916 0 0 1-.897-.164c-.277-.124-.415-.339-.415-.645 0-.298.095-.535.284-.71.19-.182.434-.273.733-.273.131 0 .32.018.568.054.24.037.423.055.547.055a.418.418 0 0 0 .317-.142.498.498 0 0 0 .131-.35c0-.219-.117-.415-.35-.59-.233-.175-.587-.263-1.06-.263-.46 0-.868.099-1.225.295-.357.19-.535.438-.535.744v3.421h-.929V3.62c0-.416-.132-.736-.394-.962a1.349 1.349 0 0 0-.907-.34c-.277 0-.514.07-.711.209a.709.709 0 0 0-.295.6v3.586h-.929V3.356c0-.298-.138-.546-.415-.743a1.726 1.726 0 0 0-1.006-.295c-.503 0-.951.182-1.345.546-.4.372-.641.937-.721 1.695l.033.022c.175-.27.346-.47.514-.602.167-.13.389-.196.666-.196.394 0 .711.167.951.502.241.336.361.718.361 1.148 0 .386-.109.714-.328.984-.226.27-.546.404-.962.404-.532 0-.929-.204-1.191-.612-.263-.408-.394-.892-.394-1.453 0-.875.27-1.607.809-2.198.547-.59 1.181-.885 1.902-.885.7 0 1.319.295 1.858.885.365-.575.889-.863 1.574-.863.343 0 .664.087.962.262.299.168.532.416.7.743.24-.327.554-.575.94-.743a2.983 2.983 0 0 1 1.224-.262c.678 0 1.199.157 1.563.47.372.313.558.663.558 1.05a.89.89 0 0 1-.23.622c-.153.168-.368.252-.645.252-.116 0-.284-.026-.502-.077a2.133 2.133 0 0 0-.503-.087.844.844 0 0 0-.47.142c-.146.102-.219.23-.219.382 0 .285.281.427.842.427.08 0 .2-.008.361-.022.16-.007.276-.011.349-.011.306 0 .565.073.776.219.204.153.306.379.306.677Zm-.688 1.77a.62.62 0 0 0-.197-.47.641.641 0 0 0-.47-.197.655.655 0 0 0-.481.197.62.62 0 0 0-.197.47c0 .182.066.339.197.47a.655.655 0 0 0 .481.197.641.641 0 0 0 .47-.197.642.642 0 0 0 .197-.47Zm-9.543-1.585c.139-.182.208-.4.208-.656 0-.255-.066-.477-.197-.667a.674.674 0 0 0-.568-.273.75.75 0 0 0-.591.263.97.97 0 0 0-.229.644c0 .234.076.452.229.656.153.204.343.306.569.306a.685.685 0 0 0 .579-.273Z"/></svg>