<svg xmlns="http://www.w3.org/2000/svg" width="120" height="12" fill="none"><path fill="gray" d="M6.853.404C6.108 4.262 5.374 8.36 0 11.497l.108.215c4.713-2.34 6.18-5.527 6.986-8.563-.325 3.757.192 6.679 3.065 8.55.229-.467.566-.644.998-.695l.048-.14C7.431 8.842 6.997 5.553 7.623.899c.3-.05.408-.165.469-.342L6.853.404Zm12.023 0c-.745 3.858-1.479 7.956-6.853 11.093l.108.215c4.713-2.34 6.18-5.527 6.985-8.563-.324 3.757.193 6.679 3.066 8.55.229-.467.565-.644.998-.695l.048-.14C19.453 8.842 19.02 5.553 19.645.899c.301-.05.41-.165.47-.342l-1.24-.153Zm9.582 3.808.337-1.759h1.695c-.47.615-.976 1.202-1.515 1.759h-.517Zm1.19 2.2-.312 1.658h-2.61l.29-1.531.168-.127h2.464ZM26.33 10.17l.325-1.72h2.609l-.325 1.72H26.33Zm3.21-8.095h-.673l.263-1.38c.301-.038.445-.164.505-.341l-1.178-.14-.349 1.86h-1.983l.024.38h1.887L27.7 4.212h-2.357l.024.38h3.234c-.482.495-.992.964-1.526 1.403l-.626-.304-.18.936c-.557.424-1.139.813-1.743 1.164l.084.177c.54-.264 1.065-.555 1.575-.872l-.866 4.528h.12c.373 0 .65-.203.662-.279l.156-.796h2.609l-.168.872h.12c.24 0 .661-.19.685-.265l.878-4.592c.24-.05.469-.164.553-.253l-.793-.771-.542.493h-1.9a21.632 21.632 0 0 0 1.684-1.442h2.26c.168 0 .289-.063.349-.202-.289-.392-.818-.898-.818-.898l-.685.72h-.721a20.463 20.463 0 0 0 2.464-2.972c.289.064.421.013.53-.139l-.975-.544c-.306.505-.63.999-.974 1.48a11.132 11.132 0 0 0-.637-.658l-.637.696Zm6.817-1.48-.601.519h-1.924L33.027.62l-2.116 11.106h.108c.397 0 .697-.228.71-.304l1.887-9.941h2.092c-.529 1.062-1.359 2.643-1.864 3.465.854 1.038 1.046 2.075.866 3.036-.108.519-.276.81-.54.949a.715.715 0 0 1-.362.075h-1.13l-.036.203c.325.025.613.1.698.19.084.1.084.366.035.645 1.287-.076 1.876-.67 2.104-1.91.193-1.012-.12-2.15-1.334-3.2.698-.823 1.803-2.39 2.38-3.239.289 0 .457-.025.578-.139l-.746-.96ZM43.042.09c.192.278.313.758.216 1.175.577.658 1.707-.86-.072-1.264l-.144.089Zm4.617 1.732c-.17.43-.358.852-.566 1.265l.145.088c.397-.303.95-.834 1.274-1.214.229-.012.349-.025.47-.114l-.734-.923-.577.531h-8.212a2.79 2.79 0 0 0-.024-.544l-.216.013c-.072.708-.553 1.366-1.034 1.606-.265.14-.47.367-.421.633.072.278.493.266.793.076.361-.215.746-.696.866-1.417h8.236Zm-2.273 4.794c.253 0 .674-.19.71-.278l.54-2.884c.253-.051.47-.152.542-.253l-.794-.76-.541.494h-2.465l.048.367h2.477l-.216 1.113H43.27l.036.367h2.309l-.205 1.113h-5.638l.204-1.1h2.32c.157 0 .29-.064.337-.203-.252-.316-.697-.708-.697-.708l-.541.543h-1.347l.192-.998c.83-.178 1.768-.443 2.357-.658.24.076.433.063.565-.038l-.793-.734c-.421.278-1.143.683-1.84 1l-.926-.317-.77 4.06h.121c.397 0 .661-.202.697-.265l.048-.215h5.64l-.073.354h.12Zm-6.528 1.96c-.216.822-.878 1.556-1.419 1.809-.276.165-.48.418-.409.658.085.278.517.228.842.025.505-.329 1.19-1.176 1.202-2.479l-.216-.013Zm1.154.013c.084.594.084 1.492-.132 2.188.457.721 1.599-.72.312-2.239l-.18.051Zm1.611-.101c.229.544.505 1.391.445 2.024.565.62 1.527-.924-.288-2.088l-.157.064Zm1.515-.152c.517.38 1.154 1.05 1.334 1.593.722.38 1.323-1.226-1.202-1.72l-.132.127Zm3.102-.949h-5.699c.265-.19.505-.392.734-.582.336 0 .505-.05.565-.189l-1.179-.33c-.853.988-2.512 2.202-4.22 2.91l.084.177c1.25-.367 2.465-.974 3.45-1.606h6.289c-.445 1.619-.89 2.631-1.178 2.871-.133.089-.24.114-.445.114-.229 0-.95-.076-1.347-.114l-.048.228c.373.063.734.164.866.303.132.114.144.342.084.57a2.1 2.1 0 0 0 1.215-.368c.564-.404 1.093-1.568 1.586-3.503.253-.038.41-.101.505-.19l-.733-.759-.529.468Zm12.672-6.324-.253 1.328h-3.51l.252-1.328h3.51Zm-4.088 3.023.253-1.315h3.51l-.252 1.315h-3.51Zm-.072.38h3.51l-.084.43h.133c.348 0 .685-.177.697-.228l.673-3.542c.253-.05.385-.126.481-.215l-.745-.695-.47.48h-3.33L54.8.303l-.9 4.718h.12c.385 0 .661-.177.673-.228l.06-.328ZM52.732.152c-.71.986-2.068 2.453-3.27 3.415l.12.151c1.347-.784 2.826-1.973 3.667-2.833.265.063.373.013.481-.126l-.998-.607Zm-.288 2.504c-.806 1.29-2.285 3.2-3.667 4.452l.108.14c.637-.43 1.274-.962 1.875-1.493l-1.13 5.957h.156c.29 0 .638-.215.662-.278l1.178-6.21c.217-.039.349-.114.409-.228l-.349-.152c.45-.465.88-.95 1.287-1.454.276.05.397 0 .493-.14l-1.022-.594Zm.841 5.578c.361.418.818 1.138.89 1.707.71.531 1.623-1.176-.758-1.808l-.132.1Zm5.17-.746h-.697l.276-1.455h1.443c.157 0 .289-.063.36-.202-.324-.392-.865-.911-.865-.911l-.697.746h-5.218l.024.367h4.16l-.276 1.455h-4.846l.036.366h4.749l-.505 2.656c-.036.177-.096.241-.324.241-.241 0-1.443-.088-1.443-.088l-.036.189c.529.076.83.164.974.303.12.127.156.342.12.595 1.13-.114 1.37-.569 1.49-1.227l.518-2.669h1.923c.169 0 .289-.063.349-.202-.3-.38-.818-.898-.818-.898l-.697.734Zm3.487.265 1.154-6.07h1.346l-1.154 6.07h-1.346ZM64.899.822l-.505.48H63.24L62.543.91l-1.66 8.728h.12c.326 0 .626-.202.638-.304l.228-1.214h1.347l-.18 1h.096c.24 0 .601-.203.625-.292l1.334-6.994c.253-.051.457-.152.554-.266l-.746-.746Zm1.623.582h1.431l-.36 1.872h-1.431l.36-1.872Zm-.805 4.212.373-1.96h1.43l-.372 1.96h-1.431Zm.493 1.378c.18.342.384.797.505 1.265-.55.311-1.108.61-1.672.898l.602-3.162h1.43l-.12.632h.096c.229 0 .59-.177.614-.252l.925-4.87a.944.944 0 0 0 .47-.215l-.686-.696-.469.443h-1.178l-.734-.48-1.635 8.575c-.036.24-.108.316-.397.468l.253.986a.73.73 0 0 0 .325-.303c.841-.62 1.67-1.29 2.224-1.746.059.249.083.504.072.76.601.632 1.587-1.05-.469-2.379l-.156.076Zm5.11 2.125h-.145c-.228.633-.493 1.379-.601 1.556-.06.101-.084.114-.156.126h-.553c-.144 0-.156-.037-.132-.177l.66-3.516c.217-.038.361-.152.41-.304l-.842-.1c.216-.43.385-.873.54-1.304h1.564c.156 0 .276-.063.349-.202-.289-.367-.782-.872-.782-.872l-.625.695h-.373c.42-1.201.71-2.428.95-3.605h1.226c.168 0 .289-.063.35-.202-.29-.392-.83-.898-.83-.898l-.686.72h-2.5l.023.38h1.672c-.229 1.151-.481 2.378-.902 3.605h-.866c.216-.746.481-1.745.638-2.416.288-.038.432-.202.48-.354l-1.021-.126c-.133.708-.494 2.1-.734 2.909-.098.044-.19.1-.276.164l.565.48.312-.277h.77c-.77 2.175-2.045 4.325-4.51 6.147l.157.227c2.032-1.328 3.319-2.871 4.22-4.49L69 10.815c-.096.467-.036.682.541.682h.469c.878 0 1.19-.177 1.238-.455.024-.14.012-.24-.192-.33l.265-1.593Zm3.715 1.341.468-2.416h5.711l-.469 2.416h-5.71ZM81.73 5.3l-.444 2.365h-5.712l.445-2.366h5.71Zm.505-2.67-.433 2.303h-5.71l.432-2.302h5.711Zm.517-.923-.565.544h-3.39c.505-.506 1.022-1.1 1.346-1.569.253-.012.41-.126.481-.29L79.303.139a17.24 17.24 0 0 1-.878 2.112h-1.743l-.794-.43-1.876 9.878h.145c.349 0 .685-.214.71-.329l.107-.543h5.711l-.168.847h.12c.289 0 .71-.227.745-.329l1.636-8.55c.24-.05.469-.152.577-.253l-.842-.835Zm7.478 8.601.638-3.377h3.222l-.638 3.377H90.23Zm-3.294-3.377h3.126l-.637 3.377H86.3l.637-3.377Zm3.8-3.554-.602 3.187H87.01l.601-3.187h3.126Zm4.027 0-.601 3.187H90.94l.6-3.187h3.223Zm.529-.962-.59.595h-3.089l.433-2.264c.3-.05.42-.177.493-.354L91.337.24l-.529 2.77h-3.054l-.78-.417-1.732 9.12h.144c.349 0 .685-.203.698-.304l.144-.734h7.153l-.18.936h.12c.276 0 .71-.202.746-.29l1.467-7.704c.3-.063.553-.177.673-.303l-.914-.899Zm8.849.051h4.448c.156 0 .289-.063.337-.202-.277-.38-.757-.86-.757-.86l-.65.683h-3.402l.024.38Zm.36.291c.217.544.409 1.392.301 2.074.517.658 1.575-.872-.132-2.137l-.169.063ZM105.813.14c.204.43.421 1.126.349 1.695.541.632 1.574-.848-.193-1.771l-.156.076Zm-2.128 0c-1.25.48-3.571 1.037-5.434 1.252v.24c1.911-.05 4.111-.38 5.542-.695.252.126.457.114.589.012l-.697-.81Zm-3.15 1.467c.204.342.385.898.349 1.34.48.507 1.346-.733-.181-1.429l-.168.089Zm-1.635.202c.18.304.349.797.288 1.215.481.493 1.359-.708-.132-1.303l-.156.089Zm1.971 5.794-.517.417h-1.586l.036.38h1.491c-.133.24-.253.467-.421.67-.265-.14-.613-.254-1.034-.354l-.133.139a3.7 3.7 0 0 1 .842.62 5.082 5.082 0 0 1-1.49 1.138l.06.202a5.696 5.696 0 0 0 1.719-1.012c.18.19.3.405.372.607.421.228.746-.442.073-1.05.256-.28.478-.59.661-.923.288-.013.408-.05.505-.139l-.578-.695Zm7.287-1.898c.168 0 .3-.063.348-.202a9.917 9.917 0 0 0-.782-.835l-.637.658h-.925a28.144 28.144 0 0 0 1.659-2.113c.252 0 .42-.1.493-.253l-1.083-.329a42.4 42.4 0 0 1-1.334 2.695h-2.452l.024.265-.77-.708-.481.48h-1.022c.217-.138.276-.493-.036-.821.709-.228 1.587-.544 2.08-.797.265-.013.409-.038.529-.127l-.661-.847-.589.493h-.445c.457-.38.974-.86 1.395-1.328.24.038.408-.063.493-.19l-.914-.493c-.445.734-.938 1.492-1.335 2.011h-3.474l.036.38h3.859a43.99 43.99 0 0 1-1.178.733c-.277-.19-.698-.342-1.323-.405l-.132.152c.505.266 1.118.81 1.322 1.24H98.84l-.782-.393-1.275 6.73h.109c.36 0 .637-.178.65-.24l1.081-5.73h1.359c-.277.404-.698.923-1.034 1.112-.06.026-.216.064-.216.064l.132.86a.591.591 0 0 0 .276-.215 33.8 33.8 0 0 0 1.972-.557c.084.19.132.392.132.557.481.43 1.166-.81-.505-1.366l-.156.101c.156.114.288.278.385.455-.529.051-1.046.101-1.467.127.457-.354.914-.772 1.275-1.139h1.49l-.913 4.845c-.037.164-.097.227-.277.227-.216 0-1.058-.075-1.058-.075l-.036.215c.385.05.601.139.721.265.108.114.121.304.097.531.937-.1 1.13-.467 1.238-1.087l.914-4.769c.204-.038.42-.114.529-.202v.025h1.839l-.409 2.138h-1.719l.024.367h1.623l-.673 3.516h.12c.385 0 .673-.177.685-.24l.626-3.276h1.887c.169 0 .289-.064.349-.203-.289-.354-.77-.835-.77-.835l-.625.67h-.769l.408-2.137h2.081Zm.18 6.008c1.671-.455 3.438-1.328 4.472-2.062.277.051.481.013.578-.126l-.987-.595c-.853.835-2.596 1.986-4.111 2.593l.048.19Zm7.057-2.479c1.407.721 2.345 1.568 2.741 2.302.698.784 2.345-1.265-2.621-2.492l-.12.19Zm-3.835-3.77h1.635l-.517 2.746h-1.635l.517-2.745Zm2.188-2.908-.481 2.542h-1.635l.481-2.542h1.635Zm2.441 0-.481 2.542h-1.695l.48-2.542h1.696Zm2.464 0-.481 2.542h-1.719l.481-2.542h1.719Zm-3.535 5.654h-1.695l.517-2.745h1.695l-.517 2.745Zm1.263-2.745h1.719l-.517 2.745h-1.719l.517-2.745Zm2.14 2.745h-.156l1.058-5.54c.312-.026.469-.102.577-.228l-.89-.822-.517.569h-1.587l.289-1.53c.24-.039.36-.14.409-.291L116.633.24l-.372 1.948h-1.695l.288-1.53c.241-.039.361-.14.409-.291l-1.07-.127-.373 1.948h-1.503l-.817-.405-1.227 6.426h-1.527l.037.38h10.844c.145 0 .277-.064.337-.203-.265-.392-.782-.95-.782-.95l-.661.773Z"/></svg>