<svg xmlns="http://www.w3.org/2000/svg" width="120" height="14"><path fill="#4D4D4D" d="M6.6 10.924v-3.18c-.75.468-1.613.702-2.591.702-1.287 0-2.287-.349-2.998-1.046C.337 6.726 0 5.694 0 4.304V3.06h1.425v1.067c0 1.124.204 1.933.611 2.43.407.49 1.065.737 1.973.737.903 0 1.563-.246 1.98-.738.407-.486.61-1.296.61-2.429V.442h1.426v9.254h.498c.698 0 1.269.213 1.713.639.45.426.674 1.039.674 1.84v.49H9.815v-.343c0-.506-.112-.857-.337-1.054-.257-.229-.576-.344-.955-.344H6.6Zm12.735-4.746v4.746h-1.291V6.22c0-.744-.146-1.3-.436-1.67-.29-.37-.725-.555-1.306-.555-.697 0-1.247.222-1.65.667-.402.444-.603 1.05-.603 1.818v7.435h-1.3V0h1.3v4.283c.309-.473.671-.826 1.088-1.06.421-.234.906-.351 1.453-.351.904 0 1.587.28 2.05.842.464.557.695 1.378.695 2.464Zm1.236 6.502v-1.053h1.495V3.06h1.3v1.194c.27-.468.613-.815 1.024-1.04.417-.229.913-.343 1.489-.343.955 0 1.73.379 2.324 1.137.599.758.898 1.755.898 2.99 0 1.236-.3 2.233-.898 2.992-.595.758-1.37 1.137-2.324 1.137-.576 0-1.072-.112-1.489-.337-.412-.23-.753-.578-1.025-1.046v1.882h5.23v1.053h-5.23v1.235h-1.298V12.68H20.57ZM27.761 7c0-.95-.197-1.695-.59-2.233-.389-.543-.925-.814-1.608-.814s-1.222.271-1.615.814c-.388.538-.583 1.283-.583 2.233 0 .95.195 1.696.583 2.24.393.538.931.807 1.615.807.683 0 1.22-.27 1.608-.808.393-.543.59-1.29.59-2.24Zm10.025-.822v4.746h-1.292V6.22c0-.744-.145-1.3-.435-1.67-.29-.37-.725-.555-1.306-.555-.697 0-1.247.222-1.65.667-.402.444-.604 1.05-.604 1.818v7.435h-1.298V0h1.298v4.283c.31-.473.672-.826 1.089-1.06.42-.234.905-.351 1.453-.351.903 0 1.587.28 2.05.842.463.557.695 1.378.695 2.464Zm7.835 1.587V6.22c0-.744-.145-1.3-.435-1.67-.29-.37-.725-.555-1.306-.555-.697 0-1.247.222-1.65.667-.402.444-.603 1.05-.603 1.818v3.216h5.286v1.228h-5.286v2.991h-1.3V3.061h1.3v1.222c.308-.473.671-.826 1.088-1.06.421-.234.905-.351 1.453-.351.903 0 1.587.28 2.05.842.463.557.695 1.378.695 2.464v1.587h-1.292Zm9.142 1.643c-.323.58-.71 1.006-1.159 1.278-.45.28-.978.42-1.587.42-.819 0-1.45-.287-1.895-.863-.445-.575-.667-1.392-.667-2.45V3.047h1.299v4.704c0 .758.133 1.32.4 1.685.266.365.674.548 1.221.548.67 0 1.199-.225 1.587-.674.389-.44.583-1.044.583-1.812V3.047h1.299v4.704c0 .758.133 1.32.4 1.685s.678.548 1.236.548c.66 0 1.184-.225 1.572-.674.389-.45.583-1.054.583-1.812V3.047h1.299v7.863h-1.3V9.69c-.294.486-.647.842-1.06 1.067-.411.234-.9.35-1.467.35-.57 0-1.057-.144-1.46-.434-.398-.29-.693-.712-.884-1.264Zm17.748.288v1.228h-3.749V6.22c0-.744-.145-1.3-.435-1.67-.29-.37-.726-.555-1.306-.555-.698 0-1.248.222-1.65.667-.403.444-.604 1.05-.604 1.818v4.444h-1.299V3.061h1.3v1.222c.308-.473.67-.826 1.087-1.06.422-.234.906-.351 1.454-.351.903 0 1.586.28 2.05.842.463.557.695 1.378.695 2.464v3.518h2.457Zm7.33-.288c-.323.58-.71 1.006-1.159 1.278-.449.28-.978.42-1.586.42-.82 0-1.451-.287-1.896-.863-.445-.575-.667-1.392-.667-2.45V3.047h1.299v4.704c0 .758.133 1.32.4 1.685s.674.548 1.222.548c.67 0 1.198-.225 1.587-.674.388-.44.582-1.044.582-1.812V3.047h1.3v4.704c0 .758.132 1.32.4 1.685.266.365.678.548 1.235.548.66 0 1.184-.225 1.573-.674.388-.45.582-1.054.582-1.812V3.047h1.3v7.863h-1.3V9.69c-.295.486-.648.842-1.06 1.067-.412.234-.9.35-1.467.35-.571 0-1.058-.144-1.46-.434-.398-.29-.693-.712-.885-1.264Zm15.291-3.23v4.746H93.84V6.22c0-.744-.145-1.3-.435-1.67-.29-.37-.725-.555-1.306-.555-.697 0-1.247.222-1.65.667-.402.444-.603 1.05-.603 1.818v7.435h-1.3V3.061h1.3v1.222c.308-.473.671-.826 1.088-1.06.421-.234.905-.351 1.453-.351.903 0 1.587.28 2.05.842.463.557.695 1.378.695 2.464Zm7.85 3.23c-.323.58-.71 1.006-1.159 1.278-.449.28-.978.42-1.587.42-.819 0-1.45-.287-1.895-.863-.445-.575-.667-1.392-.667-2.45V3.047h1.299v4.704c0 .758.133 1.32.4 1.685s.674.548 1.221.548c.67 0 1.199-.225 1.587-.674.389-.44.583-1.044.583-1.812V3.047h1.299v4.704c0 .758.133 1.32.4 1.685s.679.548 1.236.548c.66 0 1.184-.225 1.572-.674.389-.45.583-1.054.583-1.812V3.047h1.299v7.863h-1.299V9.69c-.295.486-.648.842-1.06 1.067-.412.234-.901.35-1.468.35-.571 0-1.057-.144-1.46-.434-.398-.29-.693-.712-.884-1.264Zm9.098-7.316c0 .646.307.97.92.97h1.706v4.71c0 .744.145 1.304.436 1.678.29.37.725.555 1.305.555.698 0 1.248-.223 1.65-.667.408-.445.611-1.051.611-1.819V3.061H120v7.863h-1.292V9.717c-.313.477-.679.833-1.095 1.067-.412.23-.892.344-1.439.344-.904 0-1.589-.28-2.057-.842-.469-.562-.703-1.384-.703-2.465V4.255H113c-.697 0-1.266-.22-1.706-.66-.374-.375-.561-.908-.561-1.601 0-.571.21-1.032.631-1.383C111.87.204 112.415 0 113 0h.625v1.229H113c-.613 0-.92.288-.92.863Z"/></svg>