<svg xmlns="http://www.w3.org/2000/svg" width="120" height="27" fill="none"><path fill="#4D4D4D" d="M18.358.197c1.038 1.185 2.076 3.074 2.076 4.597 1.862 1.58 3.968-2.34-1.71-4.794l-.366.197ZM1.296 17.034c.275-.085.52-.282.733-.592a229.683 229.683 0 0 0 7.142-1.608c.183.592.305 1.157.336 1.692 1.587 1.354 3.235-2.03-1.496-5.104l-.397.169c.489.705.977 1.692 1.343 2.651-2.564.197-5.036.338-6.745.423C5.234 12.183 8.56 8.545 10.3 6.12c.58.14 1.008-.028 1.16-.282L8.896 4.202C8.316 5.33 7.34 6.909 6.21 8.489c-1.526.028-3.022.028-4.212 0C3.83 6.656 5.875 3.92 7.034 1.974c.61.057.977-.17 1.099-.423L5.325.282c-.702 2.115-2.656 6.12-4.303 7.812-.184.14-.703.253-.703.253l1.038 2.426c.255-.105.477-.28.641-.507 1.252-.254 2.534-.593 3.571-.875-1.434 1.918-3.083 3.78-4.517 4.964-.244.14-.824.282-.824.282l1.068 2.397Zm.702 1.354c.153 1.776-.58 3.807-1.374 4.625-.549.423-.823 1.043-.457 1.523.457.536 1.495.253 1.984-.31.732-.988 1.22-3.103.396-5.838h-.549Zm3.113-.48c.336 1.41.52 3.554.183 5.217 1.344 1.608 3.51-1.579.275-5.302l-.458.085Zm3.053-.677c.671 1.213 1.404 3.13 1.343 4.597 1.496 1.438 3.357-1.776-.946-4.737l-.397.14Zm6.837.705h4.609v5.19H15v-5.19ZM19.61 6.514v4.908H15V6.514h4.609Zm0 10.605H15v-4.851h4.609v4.85Zm4.945 6.006h-3.083v-5.189h5.036c.428 0 .702-.14.794-.45-.885-.79-2.35-1.89-2.35-1.89l-1.282 1.523h-2.198v-4.851h5.036c.428 0 .702-.141.794-.452-.885-.817-2.35-1.89-2.35-1.89l-1.282 1.496h-2.198V6.514h5.585c.428 0 .703-.141.764-.451-.916-.818-2.412-1.918-2.412-1.918l-1.251 1.523h-8.76l-.428-.17a33.17 33.17 0 0 0 1.588-3.722c.762.028 1.007-.14 1.129-.48l-3.205-.93c-.672 3.413-2.35 8.46-4.67 11.845l.366.282c1.13-1.1 2.106-2.369 2.961-3.666v17.26h.305c.916 0 1.557-.48 1.557-.621v-1.523h12.514c.397 0 .672-.141.763-.451-.915-.818-2.441-1.918-2.441-1.918l-1.282 1.551Zm28.447 1.439h-7.509v-4.09h6.013c.428 0 .702-.14.794-.422-.916-.79-2.38-1.862-2.38-1.862l-1.283 1.495h-3.144V17.23c.672-.084.916-.338.977-.705l-3.022-.282v3.44h-6.684l.244.79h6.44v4.09H31.972l.274.818H56.42c.428 0 .764-.141.824-.452-1.068-.874-2.777-2.086-2.777-2.086l-1.465 1.72Zm-13.155-10.52V11.31h9.431v2.736h-9.431Zm9.431-9.673v2.651h-9.432v-2.65l9.432-.001ZM39.846 7.84h9.432v2.65h-9.432V7.84Zm17.917 7.022c.459 0 .733-.14.825-.45-1.008-.903-2.687-2.116-2.687-2.116l-1.434 1.749h-3.174V4.37h5.34c.428 0 .733-.14.825-.423-1.007-.846-2.594-2.058-2.594-2.058L53.46 3.58h-2.167V1.354c.732-.113 1.038-.395 1.13-.818l-3.145-.31V3.58h-9.432V1.354c.764-.141 1.008-.423 1.1-.818l-3.114-.31V3.58h-5.89l.243.79h5.647v9.674H30.63l.213.817h7.417c-1.77 2.595-4.517 4.936-7.813 6.6l.305.48c4.365-1.665 7.966-4.006 10.133-7.08h7.967c1.923 2.961 5.158 5.415 8.577 6.684.152-.818.702-1.354 1.526-1.72l.061-.338c-3.205-.706-7.143-2.37-9.218-4.626h7.966Zm19.2-9.447h11.293c.397 0 .702-.141.763-.452-.885-.846-2.35-1.917-2.35-1.917l-1.313 1.523h-8.638l.245.846Zm1.068.648c.793 1.213 1.709 3.102 1.77 4.626 1.618 1.466 3.571-1.947-1.373-4.767l-.397.141ZM80.076.225c.733.959 1.618 2.51 1.71 3.78 1.678 1.41 3.6-1.89-1.344-3.949l-.366.17Zm-5.403 0c-2.93 1.072-8.546 2.313-13.186 2.792l.122.536c4.823-.113 10.256-.846 13.736-1.55.702.281 1.22.253 1.496.028L74.673.225ZM67.41 3.497c.671.761 1.404 2.002 1.526 2.99 1.465 1.128 3.052-1.637-1.16-3.188l-.366.198Zm-4.06.451c.61.677 1.252 1.777 1.313 2.708 1.465 1.1 3.113-1.58-.977-2.905l-.336.197Zm7.784 12.917-1.1.93h-4.028l.274.846h3.785c-.213.537-.427 1.044-.732 1.495-.763-.31-1.68-.564-2.808-.79l-.275.31c.763.311 1.648.818 2.442 1.383-.825 1.015-1.923 1.89-3.236 2.538l.245.451c1.587-.564 2.9-1.354 3.876-2.256.55.423.977.902 1.251 1.353 1.16.508 1.68-.986-.335-2.34a7.702 7.702 0 0 0 1.25-2.06c.703-.027 1.008-.112 1.191-.31l-1.8-1.55Zm17.581-4.231c.427 0 .732-.14.794-.45-.916-.819-2.382-1.862-2.382-1.862l-1.312 1.466h-2.35c1.19-1.494 2.412-3.384 3.205-4.71.64 0 1.007-.225 1.13-.564l-2.9-.732c-.52 1.776-1.405 4.258-2.107 6.006h-6.227l.214.592-2.32-1.579-.976 1.072h-2.595c.489-.31.458-1.1-.488-1.833 1.68-.508 3.754-1.213 4.884-1.777.671-.028 1.038-.084 1.281-.282l-2.075-1.89-1.251 1.1h-1.13a25.474 25.474 0 0 0 2.9-2.96c.61.084 1.007-.142 1.16-.424l-2.564-1.1c-.764 1.636-1.648 3.328-2.412 4.485h-8.82l.274.846h9.798a67.486 67.486 0 0 1-2.655 1.635c-.794-.423-1.924-.761-3.541-.902l-.275.338c1.435.592 3.236 1.805 3.968 2.764h-5.036L62.74 11v15.003h.274c.916 0 1.526-.395 1.526-.536V12.691h3.45c-.52.902-1.344 2.058-2.106 2.481-.123.057-.52.141-.52.141l.764 1.918c.214-.056.427-.226.61-.48a85.734 85.734 0 0 0 4.731-1.24c.306.423.52.875.61 1.24 1.405.96 2.564-1.804-1.953-3.045l-.335.226c.427.253.854.62 1.19 1.015-1.313.113-2.625.226-3.663.282.977-.79 1.954-1.72 2.686-2.538h3.785v10.801c0 .367-.122.508-.58.508-.55 0-2.716-.17-2.716-.17v.48c1.007.113 1.587.31 1.953.593.336.253.458.676.519 1.184 2.32-.226 2.625-1.043 2.625-2.426V13.03c.519-.084 1.007-.254 1.251-.45v.055h4.67V17.4h-4.364l.244.818h4.12v7.84h.306c.976 0 1.617-.394 1.617-.535v-7.305h4.792c.428 0 .703-.14.794-.451-.916-.79-2.35-1.861-2.35-1.861L85.387 17.4h-1.954v-4.766h5.281Zm3.357 13.396c4.03-1.015 8.089-2.96 10.378-4.597.733.113 1.221.029 1.404-.282l-2.808-1.325c-1.74 1.861-5.616 4.428-9.188 5.781l.214.423Zm16.727-5.527c3.937 1.607 6.715 3.497 8.088 5.133 2.137 1.748 5.342-2.82-7.874-5.556l-.214.423ZM97.26 12.098h4.151v6.12h-4.15v-6.12Zm4.151-6.486v5.669h-4.15V5.612h4.15Zm6.197 0v5.669h-4.304V5.612h4.304Zm6.256 0v5.669H109.5V5.612h4.364Zm-6.256 12.606h-4.304v-6.12h4.304v6.12Zm1.892-6.12h4.365v6.12H109.5v-6.12Zm6.746 6.12h-.397V5.866c.793-.057 1.16-.226 1.373-.508l-2.655-1.833-1.038 1.269H109.5V1.382c.58-.085.824-.31.885-.649l-2.778-.282v4.343h-4.303V1.382c.58-.085.824-.31.885-.649l-2.778-.282v4.343h-3.815l-2.29-.902v14.326h-3.875l.274.847h27.532c.366 0 .671-.141.763-.452-.855-.874-2.442-2.115-2.442-2.115l-1.312 1.72Z"/></svg>