<svg viewBox="0 0 141 19" xmlns="http://www.w3.org/2000/svg"><g fill="#4d4d4d"><path d="M5.89 18.8 2.2 4.4c-.352-1.32-.574-2.05-.676-2.17-.102-.125-.527-.188-1.27-.188l-.246-.023v-.715h6.19v.715h-.223c-.758 0-1.23.039-1.44.117s-.305.254-.305.535c0 .258.113.836.34 1.73l2.56 10.1 3.98-13h.82l3.98 13.3L18.9 4.4c.332-1.18.5-1.85.5-1.99 0-.27-.605-.406-1.82-.406h-.211V1.29h4.75v.715l-.211.023c-.832.047-1.3.121-1.39.223-.086.098-.332.812-.734 2.14l-4.23 14.4h-.781l-4.07-13.3-4.01 13.3zM27 5.89v9.67c0 1.06.086 1.69.258 1.89s.738.336 1.7.398l.223.012v.727h-6.64v-.727l.223-.012c.941-.063 1.5-.195 1.67-.398.176-.211.266-.84.266-1.89V8.92c0-1.05-.09-1.68-.266-1.88-.172-.203-.73-.34-1.67-.41l-.223-.012v-.723zm-2.3-2.3v-2.3H27v2.3zM34.4 12.3v3.21c0 1.05.078 1.68.234 1.89.164.211.637.344 1.43.398l.219.012v.727h-6.34v-.727l.223-.012c.941-.062 1.5-.195 1.67-.398.18-.211.27-.84.27-1.89V3.11c0-1.05-.09-1.68-.27-1.88-.172-.211-.727-.348-1.67-.41l-.223-.012V.085h4.46v11.6h.551l2.94-2.83c1.26-1.29 1.89-1.98 1.89-2.07 0-.148-.211-.227-.641-.234a29.04 29.04 0 0 0-.887-.023h-.246v-.723h4.94v.723l-.223.012c-.828.054-1.36.156-1.59.305-.227.14-.953.82-2.18 2.04l-2.22 2.19 3.81 4.48c.965 1.09 1.57 1.73 1.81 1.91.25.172.676.277 1.29.316l.223.011v.727h-3.56l-5.35-6.25zM48.7 5.89v9.67c0 1.06.082 1.69.254 1.89s.738.336 1.7.398l.223.012v.727h-6.64v-.727l.223-.012c.941-.063 1.5-.195 1.67-.398.18-.211.27-.84.27-1.89V8.92c0-1.05-.09-1.68-.27-1.88-.172-.203-.73-.34-1.67-.41l-.223-.012v-.723zm-2.3-2.3v-2.3h2.3v2.3zM52.8 17.9v-3.23h1.3l.023.223c.102 1.16.176 1.82.223 1.98.055.148.258.34.617.574.7.453 1.48.68 2.35.68.7 0 1.27-.211 1.72-.633.45-.43.676-.977.676-1.65 0-.594-.148-1.07-.445-1.41-.3-.344-.836-.664-1.6-.961l-1.18-.457c-1.27-.488-2.19-1.04-2.76-1.66-.566-.609-.852-1.35-.852-2.22 0-1.03.41-1.88 1.23-2.55.824-.668 1.87-1 3.14-1 1.24 0 2.52.238 3.84.715v3.03h-1.3V9.12c-.047-.762-.109-1.29-.188-1.58-.078-.297-.203-.516-.375-.656-.504-.398-1.12-.594-1.83-.594-.676 0-1.24.215-1.7.652-.44.438-.664.988-.664 1.65 0 .547.184.984.551 1.31.355.336 1.08.723 2.17 1.17l1.07.445c1.18.484 2 .984 2.46 1.5.457.523.688 1.2.688 2.01 0 1.13-.453 2.05-1.36 2.77-.895.711-2.06 1.06-3.5 1.06-1.52 0-2.96-.312-4.32-.945zM77.9 18.9c-1.87 0-3.34-.59-4.43-1.78-1.08-1.19-1.62-2.81-1.62-4.86s.543-3.67 1.62-4.86c1.08-1.18 2.56-1.78 4.43-1.78 1.88 0 3.35.594 4.43 1.78 1.08 1.18 1.62 2.8 1.62 4.86s-.543 3.67-1.62 4.86c-1.08 1.19-2.56 1.78-4.43 1.78zm0-.723c1.04 0 1.89-.559 2.58-1.67.684-1.12 1.03-2.54 1.03-4.25 0-1.69-.344-3.1-1.03-4.22-.688-1.13-1.55-1.7-2.58-1.7s-1.88.562-2.57 1.7c-.684 1.12-1.03 2.53-1.03 4.22 0 1.71.34 3.12 1.02 4.25.688 1.11 1.55 1.67 2.58 1.67zM90.1 18.7l-3.12-9.82c-.32-.98-.566-1.6-.746-1.86-.172-.266-.441-.41-.809-.434l-.219-.012v-.723h5.69v.723h-.246c-1.19 0-1.79.18-1.79.54 0 .343.129.933.395 1.77l1.97 6.35 3.68-9.31h.703l3.75 9.54 2.29-6.59c.32-.927.48-1.51.48-1.75 0-.368-.605-.552-1.81-.552h-.258V5.85h4.14v.723l-.258.012c-.535.031-.926.445-1.17 1.24-.07.227-.184.578-.348 1.05l-3.45 9.82h-.645l-3.84-9.66-3.69 9.66zM109 8.27c.582-.891 1.26-1.56 2.02-2 .762-.445 1.62-.668 2.56-.668 1.09 0 1.95.359 2.57 1.07.613.719.922 1.71.922 2.96v5.92c.055 1.16.145 1.82.27 1.96.121.148.684.258 1.68.328l.211.012v.727h-6.62v-.727l.211-.012c.996-.07 1.55-.18 1.68-.328.125-.148.215-.801.27-1.96v-5.55c0-1.09-.145-1.85-.434-2.27-.281-.43-.785-.645-1.52-.645-.516 0-1.09.164-1.73.492-.637.32-1.34.809-2.09 1.46v6.52c0 1.06.086 1.69.258 1.89.168.203.734.336 1.69.398l.223.012v.727h-6.63v-.727l.223-.012c.941-.063 1.5-.195 1.67-.398.18-.211.27-.84.27-1.89v-6.64c0-1.05-.09-1.68-.27-1.88-.172-.203-.727-.34-1.67-.41l-.223-.012v-.723h4.46zM124 5.89v9.67c0 1.06.086 1.69.254 1.89.172.203.738.336 1.7.398l.223.012v.727h-6.63v-.727l.219-.012c.945-.063 1.5-.195 1.67-.398.18-.211.27-.84.27-1.89V8.92c0-1.05-.09-1.68-.27-1.88-.172-.203-.727-.34-1.67-.41l-.219-.012v-.723zm-2.3-2.3v-2.3h2.3v2.3zM132 12.3v3.21c0 1.05.078 1.68.234 1.89.164.211.637.344 1.43.398l.223.012v.727h-6.34v-.727l.223-.012c.941-.062 1.5-.195 1.67-.398.18-.211.27-.84.27-1.89V3.11c0-1.05-.09-1.68-.27-1.88-.168-.211-.727-.348-1.67-.41l-.223-.012V.085h4.46v11.6h.551l2.94-2.83c1.26-1.29 1.89-1.98 1.89-2.07 0-.148-.215-.227-.645-.234a29.04 29.04 0 0 0-.887-.023h-.246v-.723h4.94v.723l-.223.012c-.824.054-1.36.156-1.59.305-.223.14-.953.82-2.18 2.04l-2.22 2.19 3.81 4.48c.965 1.09 1.57 1.73 1.81 1.91.25.172.68.277 1.29.316l.223.011v.727h-3.56l-5.35-6.25zM63.6.121v.723l.219.012c.941.062 1.5.199 1.67.41.18.203.27.832.27 1.88v5.57l-1.73.996v1.33l1.73-.992v5.5c0 1.05-.09 1.68-.27 1.89-.172.203-.73.336-1.67.398l-.219.011v.727h6.63v-.727l-.223-.011c-.957-.063-1.52-.195-1.7-.398s-.254-.832-.254-1.89V8.72l1.72-.996v-1.33l-1.72.996V.12z"/></g></svg>