<svg xmlns="http://www.w3.org/2000/svg" width="120" height="28" fill="none"><path fill="gray" d="M16.102 8.139h-2.9l-2.827 13.203H8.7l1.34-6.26H5.278l-.105.49a7.922 7.922 0 0 1-.543 1.69c-.221.474-.48.867-.775 1.178-.294.311-.62.54-.979.688a2.995 2.995 0 0 1-1.155.223c-.362 0-.665-.084-.912-.25a1.63 1.63 0 0 1-.568-.678 2.75 2.75 0 0 1-.234-.996c-.023-.38.011-.786.104-1.218.073-.342.2-.687.383-1.036s.419-.666.708-.95a3.53 3.53 0 0 1 1.019-.695c.39-.178.829-.267 1.317-.267h.456l1.097-5.122H1.21l.39-1.822h14.89l-.39 1.822Zm-5.67 5.122 1.096-5.122H6.764L5.668 13.26h4.763Zm-6.828 1.821c-.64 0-1.11.099-1.409.296a1.292 1.292 0 0 0-.565.842c-.083.387-.09.714-.02.98.07.265.254.398.552.398.19 0 .358-.055.502-.165.144-.11.266-.253.367-.427.1-.175.185-.37.254-.587.068-.216.125-.43.17-.643l.15-.694Z"/><path fill="gray" d="M11.659 22.742c-.298 1.39-.95 2.478-1.955 3.267-.921.721-1.978 1.082-3.17 1.082-1.293 0-2.746-.645-4.359-1.935l1.163-1.787c1.468 1.138 2.693 1.707 3.675 1.707.685 0 1.29-.178 1.817-.535.62-.41 1.014-1.006 1.18-1.787.111-.516.058-.954-.16-1.315-.217-.36-.541-.54-.972-.54-.755 0-1.426.25-2.016.75l-.305-1.73c.817-.705 1.723-1.058 2.718-1.058.888 0 1.563.383 2.027 1.15.463.766.582 1.677.357 2.732ZM28.681 6.317l-.39 1.822H23.87l-1.036 4.837c.287-.243.553-.448.797-.615.245-.166.482-.303.71-.41a3.075 3.075 0 0 1 1.371-.295c.545 0 1.006.129 1.382.387l-.683 1.9a.57.57 0 0 0-.203-.204c-.095-.06-.2-.114-.313-.16a2.299 2.299 0 0 0-.348-.108 1.47 1.47 0 0 0-.32-.04c-.26 0-.503.044-.73.132a3.288 3.288 0 0 0-.683.364 6.43 6.43 0 0 0-.694.558c-.237.216-.49.453-.761.71l-1.316 6.148H19.37l1.035-4.838c-.18.129-.394.271-.642.427-.25.155-.513.3-.792.432a5.821 5.821 0 0 1-.865.33 3.07 3.07 0 0 1-.865.131c-.62 0-1.118-.114-1.49-.341a2.2 2.2 0 0 1-.835-.877 2.871 2.871 0 0 1-.308-1.183 4.841 4.841 0 0 1 .1-1.264 4.786 4.786 0 0 1 .563-1.457c.262-.44.58-.82.952-1.138.373-.319.79-.567 1.254-.746a4.012 4.012 0 0 1 1.455-.267c.342 0 .647.034.914.102.268.069.506.148.714.24.209.09.39.185.543.284.153.098.284.178.392.239l.701-3.278h-6.78l.39-1.822h12.875Zm-7.618 7.114a9.831 9.831 0 0 1-.36-.295 2.947 2.947 0 0 0-.52-.348 3.76 3.76 0 0 0-.71-.284c-.267-.08-.579-.12-.934-.12-1.204 0-1.924.55-2.16 1.65-.136.638-.086 1.122.15 1.452.238.33.606.495 1.107.495.247 0 .522-.06.824-.182.301-.121.599-.267.892-.438.293-.17.575-.353.845-.546.27-.194.495-.359.676-.496l.19-.888Z"/><path fill="gray" d="M41.26 8.139h-2.71l-2.826 13.203h-1.673l1.566-7.319h-4.792c-.602 0-1.13.213-1.582.638-.452.425-.753.986-.902 1.685a4.125 4.125 0 0 0 .377 2.811c.105.22.59.93 1.456 2.128l-1.602 1.355c-1.666-2.345-2.31-4.397-1.934-6.158.28-1.305.798-2.345 1.557-3.119.758-.774 1.68-1.16 2.763-1.16h5.049l.87-4.064h-9.251l.39-1.822H41.65l-.39 1.822ZM57.718 10.813a10.27 10.27 0 0 1-.62 1.935 8.558 8.558 0 0 1-.978 1.708 7.16 7.16 0 0 1-1.307 1.354 5.326 5.326 0 0 1-1.605.877l2.18 3.984-1.538 1.366-4.031-7.285 1.54-1.377.844 1.525c.028.045.121.068.28.068.367 0 .74-.108 1.115-.324.376-.216.73-.512 1.06-.888.33-.376.623-.816.877-1.32a6.738 6.738 0 0 0 .566-1.623c.018-.083.032-.17.042-.261.01-.091.018-.182.025-.274a4.72 4.72 0 0 1-.627.69 4.221 4.221 0 0 1-.738.534 3.68 3.68 0 0 1-.805.342c-.277.08-.552.12-.824.12-.444 0-.816-.079-1.115-.234a1.769 1.769 0 0 1-.698-.626 2.089 2.089 0 0 1-.302-.922c-.036-.353-.01-.73.076-1.133.102-.478.278-.92.526-1.326a4.55 4.55 0 0 1 .888-1.058 4 4 0 0 1 1.129-.7c.41-.167.827-.25 1.252-.25.596 0 1.107.12 1.533.363.427.243.76.588 1 1.036.24.448.384.985.43 1.61.047.627-.011 1.323-.175 2.09Zm7.504-2.674h-2.9l-2.827 13.203h-1.673L60.648 8.14H59.46l.39-1.822h5.762l-.39 1.822Zm-9.333.512a2.113 2.113 0 0 0-.562-.774 1.201 1.201 0 0 0-.797-.296 1.895 1.895 0 0 0-1.159.393 1.73 1.73 0 0 0-.407.46 1.941 1.941 0 0 0-.24.615.933.933 0 0 0 .004.467.892.892 0 0 0 .557.592c.141.053.294.08.459.08.152 0 .31-.02.473-.057.163-.038.333-.114.51-.228.176-.114.36-.271.553-.472a5.93 5.93 0 0 0 .609-.78Z"/><path fill="gray" d="M73.875 8.139h-9.319l.39-1.822h9.319l-.39 1.822Zm-2.249 8.457c-.438.448-.882.835-1.332 1.16-.45.327-.888.597-1.314.81a6.166 6.166 0 0 1-1.217.466 4.26 4.26 0 0 1-1.044.148c-.514 0-.975-.118-1.385-.353a2.829 2.829 0 0 1-.996-.962 3.697 3.697 0 0 1-.509-1.423 4.82 4.82 0 0 1 .075-1.747c.136-.637.37-1.22.702-1.747a5.61 5.61 0 0 1 1.19-1.36c.461-.38.971-.674 1.53-.883a4.878 4.878 0 0 1 1.72-.313c.305 0 .6.03.884.091.285.061.547.135.785.222.238.088.442.179.612.274.17.094.29.18.364.256l-.366 1.707c-.089-.06-.213-.14-.372-.239a4.277 4.277 0 0 0-.593-.296 4.763 4.763 0 0 0-.826-.25 5.08 5.08 0 0 0-1.071-.103c-.267 0-.593.091-.98.273l2.112 4.075a8.348 8.348 0 0 0 2.573-2.333l-.542 2.527Zm-3.283.5-2.056-3.938c-.438.357-.736.903-.893 1.64-.08.371-.09.719-.028 1.04a2.1 2.1 0 0 0 .347.843c.17.24.389.427.654.564.266.136.56.205.884.205.405 0 .77-.118 1.092-.353Z"/><path fill="gray" d="M85.056 8.139H81.14l-.956 4.462h-2.072c-1.211 0-2.115.182-2.713.546-.85.508-1.43 1.483-1.739 2.925-.173.812-.095 1.497.235 2.055.331.558.82.837 1.466.837.552 0 1.142-.183 1.772-.547.68-.395 1.072-.83 1.174-1.309.023-.106.032-.417.029-.933l1.754-.467.033 7.217-1.754.512-.033-4.155c-.816 1.055-1.956 1.582-3.42 1.582-1.166 0-2.026-.463-2.579-1.388-.553-.926-.679-2.09-.378-3.495.362-1.692 1.061-3.005 2.098-3.938 1.067-.956 2.402-1.434 4.006-1.434h.875l.529-2.47H73.19l.39-1.822h11.866l-.39 1.822Z"/><path fill="gray" d="m100.679 6.317-.39 1.822h-7.464l-1.036 4.837c.287-.243.552-.448.797-.615.245-.166.482-.303.71-.41a3.076 3.076 0 0 1 1.371-.295c.463 0 .863.093 1.2.279.338.186.6.45.787.79.187.342.3.754.34 1.236.039.482-.005 1.019-.132 1.61a6.95 6.95 0 0 1-.375 1.201 9.826 9.826 0 0 1-.572 1.161c-.217.376-.452.73-.704 1.065-.252.333-.504.63-.755.887l-.708-1.536c.153-.152.315-.343.485-.575.17-.231.33-.474.479-.729.15-.254.282-.514.4-.78.116-.265.199-.508.246-.728.082-.387.096-.715.04-.984a1.549 1.549 0 0 0-.283-.655 1.151 1.151 0 0 0-.456-.358 1.238 1.238 0 0 0-.476-.108c-.26 0-.504.043-.732.13a3.278 3.278 0 0 0-.682.365 6.422 6.422 0 0 0-.694.557c-.237.217-.49.454-.761.712l-1.316 6.147h-1.674l1.036-4.838c-.18.129-.394.271-.642.427-.25.155-.513.3-.792.432a5.806 5.806 0 0 1-.865.33c-.298.088-.586.131-.865.131-.62 0-1.118-.114-1.49-.341a2.2 2.2 0 0 1-.835-.877 2.872 2.872 0 0 1-.308-1.183 4.847 4.847 0 0 1 .1-1.264 4.787 4.787 0 0 1 .563-1.457c.262-.44.58-.82.952-1.138a4.28 4.28 0 0 1 1.254-.746 4.016 4.016 0 0 1 1.455-.267c.342 0 .647.034.914.102a4.7 4.7 0 0 1 .714.24c.209.09.39.185.543.284.153.098.284.178.392.239l.701-3.278h-6.78l.39-1.822h15.918Zm-10.661 7.114a9.831 9.831 0 0 1-.36-.295 2.944 2.944 0 0 0-.52-.348 3.759 3.759 0 0 0-.71-.284c-.267-.08-.579-.12-.934-.12-1.204 0-1.924.55-2.16 1.65-.136.638-.086 1.122.15 1.452.238.33.606.495 1.107.495.247 0 .522-.06.824-.182.301-.121.599-.267.892-.438.293-.17.575-.353.844-.546.27-.194.496-.359.677-.496l.19-.888Z"/><path fill="gray" d="M105.386 8.139h-2.901l-2.826 13.203h-1.674l2.827-13.203h-1.188l.389-1.822h.97l-2.889-4.94L99.53 0l3.44 6.317h2.805l-.389 1.822ZM112.106 10.813a10.3 10.3 0 0 1-.619 1.935 8.583 8.583 0 0 1-.979 1.708 7.18 7.18 0 0 1-1.307 1.354 5.333 5.333 0 0 1-1.605.877l2.181 3.984-1.538 1.366-4.032-7.285 1.541-1.377.843 1.525c.028.045.121.068.28.068.368 0 .739-.108 1.115-.324.376-.216.73-.512 1.06-.888a6.2 6.2 0 0 0 .877-1.32 6.699 6.699 0 0 0 .566-1.623 2.58 2.58 0 0 0 .042-.261c.01-.091.018-.182.025-.274-.187.25-.396.48-.627.69a4.23 4.23 0 0 1-.738.534 3.68 3.68 0 0 1-.805.342c-.277.08-.551.12-.824.12-.444 0-.815-.079-1.115-.234a1.763 1.763 0 0 1-.698-.626 2.092 2.092 0 0 1-.302-.922c-.035-.353-.01-.73.076-1.133a4.21 4.21 0 0 1 .526-1.326c.249-.406.545-.759.888-1.058.343-.3.719-.534 1.129-.7.41-.167.827-.25 1.252-.25.596 0 1.107.12 1.534.363.426.243.76.588 1 1.036.24.448.383.985.43 1.61.046.627-.012 1.323-.176 2.09Zm7.504-2.674h-2.9l-2.827 13.203h-1.673l2.827-13.203h-1.189l.39-1.822H120l-.39 1.822Zm-9.333.512a2.106 2.106 0 0 0-.562-.774 1.2 1.2 0 0 0-.797-.296 1.9 1.9 0 0 0-.621.102 1.837 1.837 0 0 0-.537.29c-.16.126-.296.28-.408.462a1.944 1.944 0 0 0-.241.614.938.938 0 0 0 .005.467c.04.136.108.256.204.358.095.103.213.18.354.234.14.053.293.08.458.08.152 0 .31-.02.473-.057.164-.038.334-.114.51-.228.177-.114.361-.271.553-.472.192-.202.395-.461.609-.78Z"/></svg>