<svg xmlns="http://www.w3.org/2000/svg" width="120" height="23" fill="none"><path fill="#4D4D4D" d="M5.365 17.662 2.001 4.023c-.32-1.252-.525-1.938-.617-2.056-.092-.117-.48-.176-1.16-.176L0 1.769v-.675h5.642v.675H5.44c-.689 0-1.125.036-1.31.11-.184.074-.277.243-.277.508 0 .244.103.789.31 1.636l2.33 9.517 3.63-12.247h.745l3.63 12.59 2.726-9.849c.305-1.12.457-1.746.457-1.879 0-.258-.553-.386-1.66-.386h-.192v-.675h4.332v.675l-.191.022c-.76.044-1.182.114-1.267.21-.078.095-.302.77-.67 2.022l-3.854 13.64h-.713L9.75 5.072 6.1 17.663h-.735ZM24.643 5.45v9.14c0 1.002.078 1.599.234 1.79.156.192.67.317 1.544.376l.202.011v.685h-6.046v-.685l.202-.011c.859-.059 1.366-.184 1.522-.376.163-.199.245-.796.245-1.79V8.312c0-.995-.082-1.588-.245-1.78-.156-.191-.663-.32-1.522-.387l-.202-.01v-.686h4.066Zm-2.097-2.178V1.094h2.097v2.178h-2.097Zm8.782 8.278v3.04c0 .987.07 1.584.213 1.79.149.2.582.324 1.299.376l.202.011v.685h-5.78v-.685l.202-.011c.859-.059 1.366-.184 1.522-.376.163-.199.245-.796.245-1.79V2.863c0-.995-.082-1.588-.245-1.78-.156-.199-.663-.328-1.522-.387l-.202-.01V0h4.066v11.008h.5l2.683-2.674c1.15-1.216 1.724-1.868 1.724-1.957 0-.14-.195-.213-.585-.22a25.43 25.43 0 0 0-.81-.023h-.223V5.45h4.503v.685l-.202.011c-.752.052-1.235.148-1.448.288-.206.132-.87.773-1.99 1.923l-2.023 2.067 3.47 4.233c.88 1.031 1.43 1.632 1.65 1.801.227.163.617.262 1.171.299l.202.011v.685h-3.246l-4.876-5.902h-.5ZM44.4 5.45v9.14c0 1.002.078 1.599.234 1.79.156.192.67.317 1.544.376l.202.011v.685h-6.047v-.685l.203-.011c.858-.059 1.366-.184 1.522-.376.163-.199.245-.796.245-1.79V8.312c0-.995-.082-1.588-.245-1.78-.156-.191-.664-.32-1.522-.387l-.203-.01v-.686H44.4Zm-2.097-2.178V1.094H44.4v2.178h-2.097Zm8.782 5.448v5.87c0 .994.081 1.591.245 1.79.17.199.681.324 1.533.376l.457.01v.686h-6.3v-.685l.202-.011c.859-.06 1.366-.184 1.522-.376.163-.199.245-.796.245-1.79V8.31c0-.994-.082-1.587-.245-1.779-.156-.192-.663-.32-1.522-.387l-.202-.01v-.686h4.066v2.255c.958-1.68 2.21-2.52 3.758-2.52.212 0 .45.04.713.121v3.283h-1.182l-.01-.2c-.078-.684-.15-1.09-.213-1.215-.057-.133-.217-.199-.48-.199-1.05 0-1.912.582-2.586 1.746Zm10.57-3.27v11.87c0 1.584-.323 2.774-.968 3.57-.646.796-1.615 1.194-2.906 1.194-.689 0-1.477-.144-2.364-.432v-2.697H56.6l.01.2c0 .847.096 1.433.288 1.757.199.332.553.497 1.065.497.652 0 1.082-.195 1.287-.585.206-.384.31-1.205.31-2.465V8.312c0-1.002-.079-1.596-.235-1.78-.156-.191-.67-.32-1.543-.387l-.192-.01v-.686h4.066Zm-2.097-2.178V1.094h2.097v2.178h-2.097ZM74.174 16.91c-1.335.546-2.552.818-3.652.818-1.696 0-3.076-.593-4.14-1.78-1.058-1.185-1.587-2.725-1.587-4.62 0-1.797.476-3.27 1.427-4.42.95-1.15 2.172-1.724 3.662-1.724 1.376 0 2.434.482 3.172 1.447.745.966 1.118 2.344 1.118 4.134v.21h-7.058c0 1.864.312 3.272.937 4.222.632.95 1.565 1.426 2.8 1.426 1.298 0 2.405-.276 3.32-.829v1.116Zm-7.015-6.62h4.79l.01-.486c0-1.393-.173-2.399-.521-3.018-.348-.619-.916-.928-1.703-.928-.788 0-1.416.401-1.884 1.205-.462.803-.692 1.878-.692 3.227Zm18.149 6.753c-1.107.457-2.189.685-3.246.685-1.69 0-3.059-.585-4.11-1.757-1.05-1.172-1.575-2.697-1.575-4.576 0-1.879.504-3.382 1.512-4.51 1.015-1.134 2.363-1.701 4.045-1.701.859 0 1.983.18 3.374.541v2.863H84l-.01-.2c0-1.65-.7-2.475-2.098-2.475-1.015 0-1.824.479-2.427 1.437-.596.958-.894 2.255-.894 3.89 0 1.673.355 2.992 1.065 3.957.71.966 1.674 1.448 2.895 1.448 1.05 0 1.976-.184 2.778-.552v.95Zm5.589-9.339c.532-.84 1.146-1.47 1.841-1.89a4.422 4.422 0 0 1 2.332-.63c.993 0 1.774.338 2.342 1.016.56.678.84 1.61.84 2.797v5.592c.05 1.098.132 1.717.245 1.857.114.14.625.243 1.533.31l.192.01v.686h-6.036v-.685l.192-.011c.908-.067 1.419-.17 1.532-.31.114-.14.196-.759.245-1.857V9.34c0-1.031-.13-1.746-.394-2.144-.255-.405-.716-.608-1.383-.608-.469 0-.994.155-1.576.464-.582.303-1.217.763-1.905 1.382v6.156c0 1.003.078 1.6.234 1.791.156.192.67.317 1.543.376l.203.01v.686H86.83v-.685l.203-.011c.858-.06 1.366-.184 1.522-.376.163-.199.245-.796.245-1.79V8.31c0-.994-.082-1.587-.245-1.779-.156-.192-.664-.32-1.522-.387l-.203-.01v-.686h4.067v2.255Zm13.796-2.254v9.14c0 1.002.078 1.599.234 1.79.156.192.67.317 1.543.376l.203.011v.685h-6.047v-.685l.202-.011c.859-.059 1.367-.184 1.523-.376.163-.199.245-.796.245-1.79V8.312c0-.995-.082-1.588-.245-1.78-.156-.191-.664-.32-1.523-.387l-.202-.01v-.686h4.067Zm-2.097-2.178V1.094h2.097v2.178h-2.097Zm8.782 8.278v3.04c0 .987.071 1.584.213 1.79.149.2.581.324 1.298.376l.202.011v.685h-5.78v-.685l.203-.011c.858-.059 1.366-.184 1.522-.376.163-.199.245-.796.245-1.79V2.863c0-.995-.082-1.588-.245-1.78-.156-.199-.664-.328-1.522-.387l-.203-.01V0h4.067v11.008h.5l2.682-2.674c1.15-1.216 1.725-1.868 1.725-1.957 0-.14-.195-.213-.586-.22a25.39 25.39 0 0 0-.809-.023h-.223V5.45h4.503v.685l-.203.011c-.752.052-1.234.148-1.447.288-.206.132-.87.773-1.991 1.923l-2.022 2.067 3.47 4.233c.88 1.031 1.43 1.632 1.65 1.801.227.163.617.262 1.171.299l.202.011v.685h-3.247l-4.875-5.902h-.5Z"/></svg>