<svg xmlns="http://www.w3.org/2000/svg" width="120" height="18"><defs><clipPath id="a"><path fill="#fff" d="M0 0h120v18H0z"/></clipPath></defs><g clip-path="url(#a)"><path fill="#fff" d="M0 0h120v18H0z"/><path fill="#4D4D4D" d="m17.456 0-3.698 13.622H11.76L8.83 3.048c-.155-.552-.246-.914-.272-1.088h.306l-.337 1.427-2.86 10.235h-2.09L0 0h2.155l2.078 8.84c.273 1.148.446 1.992.519 2.535.012.116.02.124.02.025h-.335c.221-1.05.402-1.824.542-2.323L7.539 0h2.447l1.919 6.835c.474 1.678.81 3.2 1.006 4.565h-.317c.108-.612.311-1.526.609-2.742L15.326 0h2.13Zm3.441 13.622h-2.033v-9.96h2.033v9.96Zm0-11.41h-2.033V0h2.033v2.213Zm10.561 11.41H29.14l-3.113-4.909-.907.985v3.924h-2.033V0h2.033v7.549l3.557-3.887h2.41l-3.67 3.761 4.04 6.2Zm9.849 0h-2.041a3.175 3.175 0 0 1-.36-1.184c-.934.94-2.06 1.41-3.38 1.41-1.068 0-1.914-.27-2.538-.81-.625-.542-.937-1.255-.937-2.14 0-.848.299-1.545.897-2.092.598-.547 1.609-.907 3.032-1.08l1.538-.229c.552-.087.962-.18 1.232-.277 0-.386-.015-.675-.044-.867a1.372 1.372 0 0 0-.233-.568c-.127-.187-.339-.34-.636-.462-.297-.12-.702-.18-1.217-.18-.657 0-1.17.116-1.537.35-.367.234-.633.729-.797 1.485l-1.955-.236c.182-1.153.656-1.99 1.42-2.513.766-.523 1.803-.785 3.113-.785 1.193 0 2.078.183 2.655.547.578.365.932.806 1.065 1.323.133.518.199 1.158.199 1.922v2.188c0 1.335.024 2.221.073 2.657.05.436.2.95.451 1.541ZM38.75 9.216v-.403c-.685.281-1.615.501-2.792.66-1.177.159-1.766.621-1.766 1.388 0 .39.145.71.434.96.29.25.72.375 1.289.375a3.12 3.12 0 0 0 1.98-.67c.57-.445.855-1.215.855-2.31Zm9.76-2.501c-.082-.582-.28-.99-.594-1.223-.314-.233-.76-.35-1.335-.35-.582 0-1.04.092-1.375.277-.334.184-.502.443-.502.777 0 .311.133.537.398.679.265.141.834.326 1.709.555 1.017.26 1.79.493 2.318.702.528.208.945.507 1.249.896.304.39.456.922.456 1.598 0 .912-.37 1.677-1.11 2.295-.739.618-1.72.927-2.944.927-1.27 0-2.265-.272-2.988-.816-.722-.544-1.165-1.414-1.329-2.612l1.997-.277c.095.733.33 1.25.703 1.549.373.3.906.45 1.599.45.66 0 1.16-.133 1.497-.398.337-.265.506-.583.506-.955a.784.784 0 0 0-.221-.58 1.445 1.445 0 0 0-.577-.339c-.236-.079-.854-.24-1.852-.483-1.325-.317-2.221-.723-2.689-1.22a2.507 2.507 0 0 1-.7-1.78c0-.857.34-1.561 1.02-2.114.682-.552 1.587-.829 2.717-.829 1.189 0 2.122.24 2.8.718.677.478 1.083 1.248 1.218 2.31l-1.971.243Zm12.842 2.523h-7.187c.062.888.345 1.594.849 2.117.504.524 1.13.786 1.877.786.571 0 1.05-.15 1.438-.452.388-.302.704-.811.95-1.527l2.02.239c-.289 1.174-.812 2.042-1.57 2.604-.758.562-1.704.843-2.838.843-1.506 0-2.682-.46-3.527-1.38-.845-.921-1.268-2.17-1.268-3.75 0-1.555.41-2.823 1.23-3.803.82-.98 1.977-1.47 3.475-1.47.728 0 1.433.161 2.115.485.683.324 1.26.87 1.73 1.64.47.768.706 1.991.706 3.668ZM59.274 7.53c-.063-.793-.345-1.39-.845-1.79-.5-.399-1.043-.599-1.628-.599-.704 0-1.286.239-1.746.716a2.813 2.813 0 0 0-.8 1.673h5.02Zm12.148 4.615c0 1.383-.142 2.426-.427 3.13-.284.704-.79 1.253-1.519 1.646-.728.393-1.594.589-2.597.589-1.132 0-2.082-.256-2.849-.767-.767-.512-1.15-1.41-1.15-2.694l1.968.271c.065.547.259.932.58 1.156.323.224.8.336 1.433.336.788 0 1.36-.156 1.715-.467a1.99 1.99 0 0 0 .66-1.181c.084-.476.126-1.075.126-1.799-.505.838-1.326 1.257-2.465 1.257-1.317 0-2.37-.48-3.16-1.443-.788-.962-1.183-2.167-1.183-3.614 0-1.45.384-2.666 1.152-3.648.768-.982 1.838-1.473 3.21-1.473 1.2 0 2.157.456 2.868 1.366h-.269V3.662h1.907v8.483Zm-4.37-.22c.632 0 1.198-.257 1.697-.77.499-.512.748-1.394.748-2.644 0-1.1-.24-1.936-.72-2.51-.48-.572-1.061-.859-1.744-.859-.702 0-1.279.293-1.731.877-.453.585-.679 1.404-.679 2.456 0 1.217.237 2.097.711 2.638.474.541 1.046.812 1.717.812Zm14.692 1.697H72.84v-1.561l6.111-6.756c-.575.042-1.12.063-1.632.063h-4.126V3.662h8.253v1.303L76.198 11.1c-.108.134-.368.424-.779.869-.103.097-.162.083-.175-.043.494-.055 1.11-.082 1.849-.082h4.65v1.78Zm10.166 0h-2.041a3.173 3.173 0 0 1-.36-1.184c-.934.94-2.06 1.41-3.38 1.41-1.068 0-1.914-.27-2.539-.81-.624-.542-.936-1.255-.936-2.14 0-.848.299-1.545.897-2.092.598-.547 1.609-.907 3.032-1.08l1.538-.229c.552-.087.962-.18 1.231-.277a6.34 6.34 0 0 0-.043-.867 1.372 1.372 0 0 0-.233-.568c-.127-.187-.339-.34-.636-.462-.297-.12-.703-.18-1.217-.18-.658 0-1.17.116-1.537.35-.367.234-.633.729-.798 1.485l-1.954-.236c.182-1.153.656-1.99 1.42-2.513.765-.523 1.803-.785 3.113-.785 1.193 0 2.078.183 2.655.547.577.365.932.806 1.065 1.323.132.518.198 1.158.199 1.922v2.188c0 1.335.024 2.221.073 2.657.049.436.2.95.451 1.541Zm-2.558-4.406v-.403c-.684.281-1.615.501-2.791.66-1.177.159-1.766.621-1.766 1.388 0 .39.145.71.434.96.29.25.719.375 1.289.375a3.12 3.12 0 0 0 1.98-.67c.57-.445.854-1.215.854-2.31Zm16.822-5.554-3.06 9.96h-2.005l-1.457-5.826c-.05.045-.143-.218-.275-.788-.133-.57-.2-.828-.2-.772h.326l-1.908 7.386H95.58l-2.993-9.96h2.049l1.921 7.593.134-1.035 1.753-6.558h1.989l1.329 5.166c.363 1.393.554 2.133.571 2.22h-.289l2.178-7.386h1.952Zm9.968 9.96h-2.041a3.178 3.178 0 0 1-.36-1.184c-.934.94-2.061 1.41-3.38 1.41-1.068 0-1.914-.27-2.539-.81-.624-.542-.937-1.255-.937-2.14 0-.848.299-1.545.898-2.092.598-.547 1.608-.907 3.032-1.08l1.538-.229c.551-.087.962-.18 1.231-.277a6.34 6.34 0 0 0-.043-.867 1.385 1.385 0 0 0-.233-.568c-.127-.187-.339-.34-.636-.462-.297-.12-.703-.18-1.217-.18-.658 0-1.17.116-1.537.35-.367.234-.633.729-.798 1.485l-1.955-.236c.183-1.153.657-1.99 1.421-2.513.765-.523 1.802-.785 3.113-.785 1.192 0 2.078.183 2.655.547.577.365.932.806 1.064 1.323.133.518.199 1.158.199 1.922v2.188c0 1.335.025 2.221.074 2.657.049.436.199.95.451 1.541Zm-2.558-4.406v-.403c-.684.281-1.615.501-2.792.66-1.177.159-1.765.621-1.765 1.388 0 .39.145.71.434.96.289.25.719.375 1.288.375.752 0 1.412-.223 1.981-.67.57-.445.854-1.215.854-2.31ZM120 13.622h-2.033V0H120v13.622Z"/></g></svg>