<svg xmlns="http://www.w3.org/2000/svg" width="82" height="28"><path fill="#4D4D4D" d="M76.999 4.406v-.23c0-1.671-.836-2.507-2.507-2.507-1.672 0-2.507.836-2.507 2.507v.253c.705-.399 1.54-.598 2.507-.598.966 0 1.801.192 2.507.575Zm-4.577 1.426c.414.567 1.104.851 2.07.851.966 0 1.656-.284 2.07-.851-.522-.43-1.212-.644-2.07-.644-.86 0-1.55.215-2.07.644Zm2.07-5.681c2.683 0 4.024 1.342 4.024 4.025 0 2.683-1.341 4.025-4.024 4.025-2.684 0-4.025-1.342-4.025-4.025 0-2.683 1.341-4.025 4.025-4.025Zm.234 21.16c-3.45 0-5.175-1.993-5.175-5.98s1.725-5.98 5.175-5.98c3.45 0 5.175 1.993 5.175 5.98v10.741h1.15v1.518h-3.036V15.331c0-2.975-1.096-4.462-3.289-4.462-1.763 0-2.821.966-3.174 2.898.368.061.736.169 1.104.322 1.135.475 1.955 1.296 2.461 2.461.26.598.391 1.22.391 1.863 0 .92-.26 1.886-.782 2.898Zm-.966-1.633a5.04 5.04 0 0 0 .207-1.357c0-.43-.077-.813-.23-1.15-.337-.797-.89-1.357-1.656-1.679a3.488 3.488 0 0 0-.644-.207v.046c0 2.5.774 3.948 2.323 4.347Zm-11.84.115v-.782c0-.981-.637-1.472-1.91-1.472-.659 0-.988.337-.988 1.012 0 .782.965 1.196 2.898 1.242Zm1.886 1.426v6.371H61.92v-6.279c-3.19-.077-4.785-.997-4.785-2.76 0-1.687.959-2.53 2.876-2.53 2.53 0 3.794.997 3.794 2.99v.644c1.196-.291 1.795-.966 1.795-2.024 0-1.15-1.012-2-3.036-2.553-2.7-.736-4.048-1.802-4.048-3.197 0-1.687 1.265-2.53 3.794-2.53 1.703 0 2.968.667 3.796 2.001l-1.564.99c-.537-.982-1.28-1.473-2.232-1.473-1.272 0-1.909.337-1.909 1.012 0 .69.851 1.265 2.553 1.725 3.021.828 4.532 2.17 4.532 4.025 0 2.07-1.227 3.266-3.68 3.588ZM53.64 2.934c-.353-.843-1.12-1.265-2.3-1.265-1.672 0-2.507.836-2.507 2.507 0 1.671.835 2.507 2.507 2.507v1.518c-2.684 0-4.025-1.342-4.025-4.025 0-2.683 1.341-4.025 4.025-4.025 1.962 0 3.204.713 3.726 2.139l-1.426.644ZM48.492 27.59c-2.361 0-3.542-1.02-3.542-3.059v-6.164l1.794-.575c.475 1.334 1.526 2.001 3.151 2.001 2.346 0 3.52-1.487 3.52-4.462 0-2.975-1.174-4.462-3.52-4.462-1.625 0-2.676.667-3.15 2.001l-1.795-.575c.72-1.963 2.37-2.944 4.945-2.944 3.603 0 5.405 1.993 5.405 5.98s-1.801 5.98-5.405 5.98c-1.227 0-2.246-.222-3.059-.667v3.887c0 1.027.552 1.541 1.656 1.541h3.358c1.043 0 1.564-.314 1.564-.943 0-.613-.521-.92-1.564-.92h-1.426v-1.518h1.426c2.3 0 3.45.813 3.45 2.438 0 1.64-1.15 2.461-3.45 2.461h-3.358ZM37.705.151c2.684 0 4.025 1.342 4.025 4.025 0 2.683-1.341 4.025-4.025 4.025-2.683 0-4.025-1.342-4.025-4.025 0-2.683 1.342-4.025 4.025-4.025Zm2.507 4.025c0-1.671-.836-2.507-2.507-2.507-1.671 0-2.507.836-2.507 2.507 0 1.671.836 2.507 2.507 2.507 1.672 0 2.507-.836 2.507-2.507Zm-4.756 11.155c0 1.043-.116 1.947-.346 2.714.522 1.165 1.465 1.748 2.83 1.748 2.192 0 3.288-1.487 3.288-4.462 0-2.975-1.096-4.462-3.288-4.462V9.351c3.45 0 5.175 1.993 5.175 5.98s-1.726 5.98-5.175 5.98c-1.687 0-2.968-.475-3.841-1.426-.86.95-2.2 1.426-4.025 1.426-2.577 0-4.225-.981-4.946-2.944l1.794-.575c.476 1.334 1.526 2.001 3.151 2.001 2.331 0 3.496-1.487 3.496-4.462 0-2.975-1.172-4.462-3.519-4.462-1.625 0-2.675.667-3.15 2.001l-1.794-.575c.72-1.963 2.368-2.944 4.944-2.944 3.604 0 5.405 1.993 5.405 5.98ZM21.61 2.934c-.353-.843-1.12-1.265-2.3-1.265-1.672 0-2.508.836-2.508 2.507 0 1.671.836 2.507 2.507 2.507v1.518c-2.683 0-4.025-1.342-4.025-4.025 0-2.683 1.342-4.025 4.025-4.025 1.963 0 3.205.713 3.726 2.139l-1.426.644Zm-4.941 16.583c.414.184.89.276 1.426.276 2.193 0 3.289-1.487 3.289-4.462 0-2.975-1.096-4.462-3.29-4.462-.536 0-1.011.092-1.425.276 1.257.843 1.886 2.239 1.886 4.186s-.629 3.343-1.886 4.186Zm-1.196-7.314c-.445.736-.667 1.779-.667 3.128 0 1.334.222 2.37.667 3.105 1.043-.613 1.564-1.648 1.564-3.105 0-1.472-.521-2.515-1.564-3.128Zm2.622-2.852c3.45 0 5.175 1.993 5.175 5.98s-1.725 5.98-5.175 5.98c-3.45 0-5.175-1.993-5.175-5.98s1.725-5.98 5.175-5.98ZM5.675.151C8.358.151 9.7 1.493 9.7 4.176c0 2.683-1.342 4.025-4.025 4.025-2.683 0-4.025-1.342-4.025-4.025C1.65 1.493 2.992.151 5.675.151Zm2.507 4.025c0-1.671-.836-2.507-2.507-2.507-1.671 0-2.507.836-2.507 2.507 0 1.671.836 2.507 2.507 2.507 1.671 0 2.507-.836 2.507-2.507ZM5.91 10.87c-2.193 0-3.29 1.486-3.29 4.461 0 2.975 1.097 4.462 3.29 4.462 2.192 0 3.288-1.487 3.288-4.462 0-2.975-1.096-4.462-3.289-4.462Zm0-1.519c3.45 0 5.174 1.993 5.174 5.98s-1.725 5.98-5.175 5.98c-3.45 0-5.175-1.993-5.175-5.98s1.725-5.98 5.175-5.98Z"/></svg>