<svg xmlns="http://www.w3.org/2000/svg" viewBox="0 0 140 21.062"><g fill="#4d4d4d"><path d="m3.809 2.578 3.101 13.18 4.145-14.3h1.457l4.105 14.452 3.7-13.297H18.37V1.308h4.594v1.27h-1.117l-5.117 18.41h-1.344L11.129 6.05 6.758 20.988h-1.27L1.121 2.578H0v-1.27h5.562v1.27zM29.652 6.46v12.958h1.941v1.309h-6.5v-1.31h1.942V7.767h-1.942V6.46zm-2.617-2.577V1.309h2.617v2.574zM38.688 13.703v5.715h1.309v1.308h-5.828v-1.308h1.94V1.308h-1.94V0h4.519v13.07h.598l5.004-5.305h-1.942V6.461h5.04v1.304h-1.305l-4.407 4.707 5.825 6.946h1.308v1.308h-3.586l-5.898-7.023zM55.008 6.46v12.958h1.941v1.309h-6.5v-1.31h1.946V7.767h-1.946V6.46zM52.43 3.884V1.309h2.613v2.574zM60.383 20.016v-3.172h1.606v1.606c.598.445 1.16.746 1.718.968.562.223 1.08.336 1.606.336.824 0 1.5-.223 2.015-.633.523-.449.785-.973.786-1.683 0-1.04-.746-1.83-2.278-2.426l-1.344-.523c-2.69-1.04-4.07-2.5-4.07-4.368 0-1.16.45-2.13 1.383-2.875.934-.75 2.09-1.12 3.508-1.12.71 0 1.42.074 2.129.187.71.109 1.46.336 2.203.597v3.098h-1.606V8.364a6.5 6.5 0 0 0-1.418-.746c-.449-.148-.898-.262-1.344-.262-.672 0-1.27.227-1.718.637-.45.41-.711.934-.711 1.566 0 .562.227 1.05.636 1.383.41.375 1.23.82 2.426 1.308l1.196.485c1.31.559 2.24 1.12 2.765 1.68.52.597.781 1.34.781 2.242 0 1.27-.523 2.31-1.53 3.097-1.01.785-2.31 1.2-3.958 1.196-.859 0-1.68-.075-2.504-.262-.707-.074-1.49-.336-2.277-.672M80.848 21.062c-2.09 0-3.77-.672-4.965-1.98-1.23-1.34-1.83-3.14-1.832-5.454 0-2.31.598-4.11 1.832-5.449 1.23-1.35 2.88-1.98 4.965-1.98s3.77.672 4.969 1.98c1.2 1.34 1.83 3.14 1.828 5.45 0 2.32-.598 4.11-1.828 5.453-1.2 1.31-2.84 1.98-4.969 1.98m0-1.309c1.16 0 2.13-.598 2.914-1.753.746-1.16 1.16-2.65 1.156-4.446 0-1.79-.37-3.25-1.156-4.441-.746-1.16-1.72-1.76-2.914-1.758-1.2 0-2.13.598-2.914 1.758-.746 1.16-1.16 2.65-1.156 4.441 0 1.79.375 3.25 1.156 4.446.785 1.2 1.76 1.75 2.914 1.753M81.821 0h2.984l-3.957 3.883h-1.867zM91.379 20.727v-1.309l8.96-11.652h-7.167V9.56h-1.457V6.462h11.688v1.304L94.59 19.27h7.657v-1.605h1.457v3.062zM111.73 0v19.418h1.941v1.309h-6.496v-1.309h1.942V1.309h-1.942V0zM120.8 6.46v12.958h1.941v1.309h-6.496v-1.31h1.942V7.767h-1.942V6.46zm-2.613-2.577V1.309h2.613v2.574zM129.88 13.703v5.715h1.309v1.308h-5.864v-1.308h1.942V1.308h-1.942V0h4.555v13.07h.598l4.968-5.305h-1.94V6.461h5.038v1.304h-1.305l-4.406 4.707 5.86 6.946H140v1.308h-3.586l-5.898-7.023z"/></g></svg>