<svg xmlns="http://www.w3.org/2000/svg" width="120" height="19" fill="none"><path fill="#4D4D4D" d="M5.838 18.929 2.178 4.312 1.76 2.748c-.124-.545-.402-.817-.834-.817l-.684-.012L0 1.895v-.722h6.14v.722h-.22l-.626.024c-.734 0-1.1.21-1.1.628 0 .268.111.857.335 1.765L7.066 14.51l3.95-13.125h.811l3.95 13.492 2.966-10.554c.332-1.17.498-1.836.498-2.002 0-.269-.336-.403-1.008-.403l-.799-.024h-.208v-.722h4.714v.722l-.208.024-.695.024c-.464.023-.769.272-.915.746l-.498 1.623-4.194 14.617h-.776L10.61 5.437 6.638 18.929h-.8Zm20.98-13.09v9.797c0 .932.069 1.536.208 1.812.139.269.451.419.938.45l.788.06.22.012v.734h-6.58v-.735l.22-.011.776-.06c.448-.031.73-.106.846-.225.124-.126.2-.414.232-.864l.07-1.173V8.908l-.07-1.161c-.031-.45-.108-.738-.232-.865-.116-.126-.398-.205-.846-.237l-.776-.059-.22-.012V5.84h4.425Zm-2.283-2.333V1.173h2.282v2.333h-2.282Zm9.557 8.872v3.258l.07 1.173c0 .49.077.793.231.912.163.11.61.19 1.344.237l.22.012v.734h-6.29v-.735l.22-.011.776-.06c.448-.031.73-.106.846-.225.123-.126.2-.414.232-.864l.069-1.173V3.068l-.07-1.173c-.03-.45-.108-.734-.231-.853-.116-.126-.398-.205-.846-.237l-.776-.059-.22-.012V0h4.425v11.798h.544l2.92-2.867 1.703-1.8c.115-.119.173-.217.173-.296 0-.15-.139-.225-.417-.225l-1.1-.036h-.243V5.84h4.9v.734l-.22.012c-.819.055-1.344.158-1.576.308-.224.142-.946.83-2.166 2.061l-2.201 2.215 3.776 4.537 1.251 1.398c.34.387.587.616.742.687.162.07.521.126 1.077.166l.22.012v.734h-3.533l-5.306-6.326h-.544ZM48.317 5.84v9.796c0 .932.07 1.536.209 1.812.139.269.452.419.938.45l.788.06.22.012v.734h-6.58v-.735l.22-.011.776-.06c.448-.031.73-.106.846-.225.124-.126.2-.414.232-.864l.07-1.173V8.908l-.07-1.161c-.031-.45-.108-.738-.232-.865-.116-.126-.398-.205-.846-.237l-.776-.059-.22-.012V5.84h4.425Zm-2.282-2.334V1.173h2.282v2.333h-2.282Zm6.314 14.535v-3.27h1.286l.023.225.092 1.232c.054.608.363 1.102.927 1.48.564.372 1.274.558 2.132.558.702 0 1.274-.214 1.714-.64.448-.434.672-.991.672-1.67 0-1.074-.676-1.876-2.027-2.405l-1.17-.462c-2.387-.94-3.58-2.25-3.58-3.933 0-1.042.406-1.903 1.217-2.582.818-.679 1.857-1.019 3.116-1.019 1.228 0 2.498.241 3.81.723v3.068h-1.285v-.213l-.104-1.078c-.108-1.185-.865-1.777-2.27-1.777-.673 0-1.233.221-1.68.663-.44.435-.66.988-.66 1.659 0 .553.177.999.532 1.338.363.332 1.085.723 2.166 1.173l1.066.45c1.166.49 1.977 1 2.433 1.528.463.521.695 1.197.695 2.026 0 1.137-.444 2.069-1.332 2.795-.889.727-2.035 1.09-3.44 1.09a10 10 0 0 1-4.333-.96ZM67.547 0v15.636c0 .932.07 1.536.209 1.812.139.269.451.419.938.45l.788.06.22.012v.734h-6.58v-.735l.22-.011.776-.06c.448-.031.73-.106.846-.225.123-.126.2-.414.231-.864l.07-1.173V3.068l-.07-1.173c-.03-.45-.108-.734-.231-.853-.116-.126-.398-.205-.846-.237l-.776-.059-.22-.012V0h4.425Zm9.673 19c-1.815 0-3.255-.604-4.321-1.812-1.066-1.216-1.599-2.855-1.599-4.916 0-2.077.537-3.716 1.61-4.916 1.074-1.2 2.537-1.8 4.39-1.8 1.854 0 3.318.6 4.391 1.8 1.074 1.2 1.61 2.831 1.61 4.892 0 2.109-.54 3.763-1.621 4.963C80.606 18.404 79.12 19 77.22 19Zm.035-.734c1.058 0 1.926-.565 2.606-1.694.68-1.13 1.02-2.57 1.02-4.324 0-1.698-.344-3.115-1.032-4.252-.68-1.145-1.529-1.718-2.548-1.718-1.02 0-1.869.573-2.549 1.718-.68 1.137-1.019 2.562-1.019 4.276 0 1.706.336 3.131 1.008 4.276.672 1.145 1.51 1.718 2.514 1.718Zm13.17.58-4.077-9.855c-.425-1.035-.734-1.686-.927-1.955a.956.956 0 0 0-.753-.45l-.197-.012V5.84h5.457v.734h-.22l-.626.012c-.602 0-.904.17-.904.51 0 .157.236.797.707 1.918l2.838 6.859 2.92-6.847c.455-1.082.683-1.725.683-1.93 0-.34-.27-.51-.811-.51l-.58-.012h-.254V5.84h3.73v.734l-.243.012c-.456.032-.834.403-1.136 1.113l-.556 1.327-4.344 9.82h-.706Zm15.894-1.907C104.96 18.313 103.616 19 102.288 19c-1.066 0-1.954-.343-2.664-1.03-.711-.695-1.066-1.564-1.066-2.606 0-2.843 2.255-4.265 6.765-4.265h.475V9.5c0-2.03-.753-3.044-2.259-3.044-1.498 0-2.321.77-2.467 2.31l-.012.225h-1.552V6.633c1.606-.718 3.089-1.078 4.448-1.078 2.749 0 4.124 1.284 4.124 3.85v5.733c0 1.864.39 2.796 1.17 2.796.147 0 .351-.036.614-.107l.069.877c-.548.197-1.042.296-1.482.296-1.12 0-1.831-.687-2.132-2.061Zm-.521-.26v-4.845h-.533c-2.857 0-4.286 1.066-4.286 3.198 0 .742.232 1.358.695 1.848.471.49 1.058.734 1.761.734.672 0 1.459-.312 2.363-.936Zm9.337-7.333v6.29c0 .932.069 1.536.208 1.812.139.269.452.419.938.45l.788.06.498.012v.734h-6.857v-.735l.22-.011.776-.06c.448-.031.73-.106.845-.225.124-.126.201-.414.232-.864l.07-1.173V8.908l-.07-1.161c-.031-.45-.108-.738-.232-.865-.115-.126-.397-.205-.845-.237l-.776-.059-.22-.012V5.84h4.425v2.416c1.042-1.8 2.405-2.7 4.089-2.7.232 0 .49.043.776.13v3.518h-1.286l-.023-.213-.104-.889c-.039-.418-.247-.628-.626-.628-1.151 0-2.093.624-2.826 1.872Z"/></svg>