<svg xmlns="http://www.w3.org/2000/svg" width="120" height="23"><defs><clipPath id="a"><path fill="#fff" d="M0 0h120v23H0z"/></clipPath></defs><g clip-path="url(#a)"><path fill="#fff" d="M0 0h120v23H0z"/><path fill="#4D4D4D" d="M0 8.81V7.465h2.532c-.134-.18-.246-.433-.336-.762a5.317 5.317 0 0 1-.112-1.166c0-1.196.463-2.212 1.39-3.049.94-.852 2.068-1.277 3.383-1.277 1.569 0 3.108.53 4.616 1.591 1.524 1.061 2.816 2.518 3.877 4.371h-1.77c-.837-1.434-1.853-2.563-3.048-3.385-1.195-.836-2.42-1.255-3.675-1.255-.911 0-1.688.3-2.33.897-.643.583-.964 1.285-.964 2.107 0 .448.037.837.112 1.166.09.329.202.583.336.762h2.555V8.81H4.01v13.585H2.532V8.81H0Zm5.96 0V7.465h12.774V8.81h-2.555v13.585H14.7V17.62a4.348 4.348 0 0 1-1.434 1.12 3.939 3.939 0 0 1-1.703.382c-1.24 0-2.3-.396-3.182-1.188-.867-.792-1.3-1.741-1.3-2.847 0-1.121.433-2.07 1.3-2.847.881-.792 1.942-1.188 3.182-1.188.359 0 .702.052 1.03.157.33.09.636.239.92.448l-.762 1.188a2.322 2.322 0 0 0-.56-.314 1.478 1.478 0 0 0-.628-.134c-.822 0-1.524.261-2.106.784-.583.523-.874 1.159-.874 1.906 0 .687.291 1.285.874 1.793.582.493 1.284.74 2.106.74.583 0 1.15-.194 1.703-.583.553-.403 1.03-.956 1.434-1.659V8.81H5.96Zm12.191 0V7.465h2.532c-.134-.18-.246-.433-.336-.762a5.317 5.317 0 0 1-.112-1.166c0-1.196.463-2.212 1.39-3.049.94-.852 2.069-1.277 3.383-1.277 1.569 0 3.108.53 4.617 1.591C31.148 3.863 32.44 5.32 33.5 7.173h-1.77c-.837-1.434-1.852-2.563-3.048-3.385-1.195-.836-2.42-1.255-3.675-1.255-.91 0-1.688.3-2.33.897-.643.583-.964 1.285-.964 2.107 0 .448.038.837.112 1.166.09.329.202.583.337.762h2.554V8.81h-2.554v13.585h-1.48V8.81H18.15Zm5.961 0V7.465h17.39V8.81h-7.889v4.035a3.57 3.57 0 0 1 1.323-1.3 3.486 3.486 0 0 1 1.815-.493c.956 0 1.763.396 2.42 1.188.672.777 1.008 1.726 1.008 2.847 0 .956-.246 1.905-.74 2.847-.492.926-1.187 1.763-2.083 2.51l-1.345-.896c.837-.583 1.494-1.27 1.972-2.063.478-.792.717-1.591.717-2.398 0-.703-.194-1.3-.582-1.794-.374-.493-.83-.74-1.367-.74-.688 0-1.33.262-1.927.785-.583.523-.986 1.203-1.21 2.04v7.017h-1.48V17.91a3.78 3.78 0 0 1-1.322.987 3.843 3.843 0 0 1-1.658.358c-1.076 0-1.994-.373-2.756-1.12-.747-.763-1.12-1.682-1.12-2.758 0-1.195.433-2.212 1.299-3.049.881-.851 1.935-1.277 3.16-1.277.358 0 .665.03.919.09.268.044.463.111.582.201l-.291 1.502a1.965 1.965 0 0 0-.583-.224 2.781 2.781 0 0 0-.627-.067 3 3 0 0 0-2.107.829c-.582.553-.874 1.218-.874 1.995 0 .658.232 1.226.695 1.704a2.364 2.364 0 0 0 1.703.695c.568 0 1.12-.172 1.658-.516a4.22 4.22 0 0 0 1.323-1.434V8.81h-8.023Zm24.493 13.585-6.7-5.672.74-1.053c.432.358.776.627 1.03.807.254.164.456.246.605.246 1.12 0 2.07-.433 2.846-1.3.792-.882 1.188-1.943 1.188-3.183-.254.463-.628.83-1.12 1.098a3.227 3.227 0 0 1-1.57.404c-.821 0-1.523-.307-2.106-.92a3.155 3.155 0 0 1-.874-2.219c0-.956.314-1.763.941-2.42.643-.673 1.42-1.01 2.331-1.01 1.076 0 1.994.501 2.756 1.502.762.987 1.143 2.175 1.143 3.565 0 1.54-.456 2.847-1.367 3.923s-2.002 1.614-3.272 1.614l4.325 3.564-.896 1.054Zm-2.98-10.155a2.4 2.4 0 0 0 1.389-.449c.433-.299.77-.694 1.008-1.188-.224-.582-.53-1.053-.918-1.412-.374-.359-.77-.538-1.188-.538-.493 0-.919.194-1.277.583-.344.373-.516.83-.516 1.367 0 .464.142.852.426 1.166.299.314.657.47 1.076.47Zm4.033-3.43V7.465h7.014V8.81H54.14v13.585h-1.5V8.81h-2.98Zm11.765 10.738c-1.15 0-2.136-.404-2.958-1.21-.807-.823-1.21-1.81-1.21-2.96 0-1.225.433-2.279 1.3-3.16.881-.882 1.942-1.323 3.182-1.323.269 0 .53.03.784.09.254.044.486.119.695.224v1.48c-.135-.09-.337-.158-.605-.203a3.833 3.833 0 0 0-.874-.09c-.359 0-.688.053-.986.158a2.15 2.15 0 0 0-.807.448l4.616 3.43.605-.762v1.95a4.338 4.338 0 0 1-1.636 1.435 4.645 4.645 0 0 1-2.106.493Zm0-1.48c.448 0 .866-.075 1.255-.224a2.9 2.9 0 0 0 .986-.672l-4.46-3.296c-.149.18-.261.396-.336.65a3.016 3.016 0 0 0-.112.852c0 .732.262 1.368.785 1.906.523.523 1.15.784 1.882.784ZM56.067 8.81V7.465h8.807V8.81h-8.807Zm8.023 0V7.465h12.907V8.81h-2.375v3.878h-5.826a1.98 1.98 0 0 0-1.48.628 1.987 1.987 0 0 0-.605 1.457c0 1.076.568 1.995 1.704 2.757 1.135.762 2.51 1.143 4.123 1.143 0-.702.157-1.3.47-1.793.314-.508.703-.762 1.166-.762.328 0 .605.12.829.359.239.224.358.508.358.851 0 .389-.12.785-.358 1.189a3.236 3.236 0 0 1-.986 1.03l1.636 2.848-1.345.605-1.636-3.004c-2.061 0-3.824-.508-5.288-1.524-1.45-1.032-2.174-2.264-2.174-3.7 0-.985.344-1.822 1.03-2.51.703-.702 1.555-1.053 2.556-1.053h4.324V8.81h-9.03Zm12.325 0V7.465h17.389V8.81h-7.888v4.035a3.56 3.56 0 0 1 1.322-1.3 3.486 3.486 0 0 1 1.815-.493c.956 0 1.763.396 2.42 1.188.673.777 1.009 1.726 1.009 2.847 0 .956-.247 1.905-.74 2.847-.493.926-1.187 1.763-2.084 2.51l-1.344-.896c.836-.583 1.494-1.27 1.972-2.063.478-.792.717-1.591.717-2.398 0-.703-.194-1.3-.583-1.794-.373-.493-.829-.74-1.367-.74-.687 0-1.33.262-1.927.785-.583.523-.986 1.203-1.21 2.04v7.017h-1.479V17.91c-.359.419-.8.748-1.322.987a3.843 3.843 0 0 1-1.658.358c-1.076 0-1.995-.373-2.757-1.12-.747-.763-1.12-1.682-1.12-2.758 0-1.195.433-2.212 1.3-3.049.881-.851 1.934-1.277 3.16-1.277.358 0 .664.03.918.09.269.044.463.111.583.201l-.292 1.502a1.965 1.965 0 0 0-.582-.224 2.782 2.782 0 0 0-.628-.067 3 3 0 0 0-2.106.829c-.583.553-.874 1.218-.874 1.995 0 .658.231 1.226.695 1.704a2.364 2.364 0 0 0 1.703.695c.567 0 1.12-.172 1.658-.516a4.217 4.217 0 0 0 1.322-1.434V8.81h-8.022Zm16.806 0V7.465h2.42l-5.4-6.568L91.27 0l5.85 7.465h2.666V8.81h-2.555v13.585h-1.478V8.81H93.22Zm13.647 13.585-6.7-5.672.74-1.053c.433.358.776.627 1.03.807.254.164.456.246.605.246 1.121 0 2.07-.433 2.846-1.3.792-.882 1.188-1.943 1.188-3.183-.254.463-.627.83-1.12 1.098a3.228 3.228 0 0 1-1.569.404c-.822 0-1.524-.307-2.106-.92a3.153 3.153 0 0 1-.874-2.219c0-.956.313-1.763.941-2.42.642-.673 1.419-1.01 2.33-1.01 1.076 0 1.995.501 2.757 1.502.761.987 1.142 2.175 1.142 3.565 0 1.54-.455 2.847-1.367 3.923-.911 1.076-2.001 1.614-3.271 1.614l4.325 3.564-.897 1.054Zm-2.98-10.155a2.4 2.4 0 0 0 1.389-.449c.434-.299.77-.694 1.009-1.188-.224-.582-.531-1.053-.919-1.412-.374-.359-.769-.538-1.188-.538-.493 0-.918.194-1.277.583-.344.373-.515.83-.515 1.367 0 .464.141.852.425 1.166.299.314.658.47 1.076.47Zm4.034-3.43V7.465h7.014V8.81h-2.533v13.585h-1.501V8.81h-2.98Zm10.42 11.186a1.36 1.36 0 0 1-1.053-.47c-.284-.314-.426-.703-.426-1.166 0-.449.142-.83.426-1.144a1.334 1.334 0 0 1 1.053-.493c.463 0 .851.165 1.165.493.329.314.493.695.493 1.144 0 .463-.164.852-.493 1.165a1.582 1.582 0 0 1-1.165.471Zm0-6.546a1.36 1.36 0 0 1-1.053-.47 1.756 1.756 0 0 1-.426-1.189c0-.448.142-.829.426-1.143a1.335 1.335 0 0 1 1.053-.493c.463 0 .851.164 1.165.493.329.314.493.695.493 1.143 0 .464-.164.86-.493 1.188a1.582 1.582 0 0 1-1.165.471Z"/></g></svg>