<svg viewBox="0 0 107 19" xmlns="http://www.w3.org/2000/svg"><path d="M4.967 15.381 1.853 3.504c-.296-1.09-.486-1.69-.572-1.79C1.196 1.61.838 1.56.207 1.56L0 1.54V.953h5.223v.587h-.187c-.637 0-1.04.033-1.212.097-.171.064-.256.212-.256.442 0 .212.095.687.286 1.425l2.158 8.287 3.36-10.665h.69l3.361 10.963 2.523-8.576c.283-.975.424-1.52.424-1.636 0-.225-.512-.337-1.537-.337h-.178V.953h4.011v.587l-.177.02c-.703.038-1.09.099-1.168.182-.076.084-.284.671-.626 1.762L13.127 15.38h-.66L9.027 4.418 5.648 15.38h-.68zM22.815 4.745v7.96c0 .873.072 1.39.217 1.56.145.166.62.275 1.429.327l.187.01v.596H19.05V14.6l.188-.01c.795-.05 1.27-.161 1.414-.332.148-.17.222-.688.221-1.554V7.238c0-.866-.073-1.38-.221-1.55-.148-.167-.62-.279-1.414-.337l-.188-.01v-.596h3.765zm-1.941-1.896V.953h1.941v1.896h-1.941zm8.13 7.21v2.646c0 .86.068 1.38.202 1.555.135.176.534.287 1.198.332l.187.01v.596h-5.352v-.597l.188-.01c.795-.05 1.27-.161 1.414-.331.148-.17.222-.688.222-1.555V2.493c0-.866-.074-1.38-.222-1.554-.148-.17-.62-.281-1.414-.333l-.188-.01V0h3.765v9.587h.463l2.484-2.33c1.06-1.06 1.6-1.63 1.597-1.703 0-.122-.181-.188-.542-.198-.361-.01-.611-.014-.75-.014h-.206v-.597h4.168v.597l-.187.01c-.696.045-1.14.127-1.335.245-.194.12-.81.68-1.848 1.68l-1.873 1.8 3.213 3.686c.815.898 1.33 1.42 1.533 1.564.207.144.567.233 1.079.265l.187.01v.596h-3.006l-4.513-5.14h-.464zm15.08 5.081a3.773 3.773 0 0 1-1.41.299c-1.14 0-1.97-.28-2.489-.838-.522-.558-.784-1.45-.783-2.666v-6.41h-1.577v-.78h1.577V2.85l1.951-.472v2.368h2.977v.78h-2.977v6.66c0 .898.122 1.54.365 1.916.243.379.657.568 1.242.568.309 0 .683-.1 1.123-.299v.77zM49.03 4.745v7.96c0 .873.072 1.39.217 1.56.145.167.62.276 1.429.327l.187.01v.596h-5.598v-.597l.187-.01c.795-.05 1.27-.161 1.414-.331.148-.17.222-.688.222-1.555V7.238c0-.866-.074-1.38-.222-1.55-.148-.167-.619-.279-1.414-.336l-.187-.01v-.597h3.765zM47.089 2.85V.953h1.942v1.896h-1.942zm10.082 12.59c-1.58 0-2.82-.489-3.735-1.468-.913-.979-1.37-2.31-1.37-3.999 0-1.69.457-3.02 1.37-3.994.913-.975 2.16-1.46 3.735-1.463 1.58 0 2.83.488 3.74 1.463.91.975 1.36 2.31 1.365 3.994 0 1.69-.457 3.02-1.37 4-.913.978-2.16 1.47-3.735 1.467zm0-.597c.874 0 1.6-.46 2.178-1.38.578-.922.867-2.08.867-3.49 0-1.39-.289-2.55-.867-3.48-.578-.926-1.3-1.39-2.178-1.39-.867 0-1.59.464-2.168 1.39-.578.928-.867 2.09-.867 3.48 0 1.41.287 2.57.862 3.49.575.92 1.3 1.38 2.173 1.38zm10.23-8.133c.493-.732 1.06-1.28 1.705-1.646.644-.366 1.36-.549 2.159-.548.92 0 1.64.295 2.168.885.519.59.779 1.4.778 2.435v4.87c.046.957.122 1.5.227 1.618.105.122.578.212 1.42.27l.177.009v.596h-5.588v-.596l.177-.01c.84-.058 1.31-.148 1.42-.27.104-.121.18-.66.226-1.616V8.134c0-.898-.12-1.52-.36-1.872-.24-.35-.669-.525-1.286-.525-.434 0-.92.133-1.459.4-.539.265-1.13.668-1.764 1.207v5.362c0 .873.073 1.39.217 1.559.145.167.621.276 1.43.327l.186.01v.597h-5.598v-.597l.188-.01c.795-.051 1.27-.162 1.414-.332.148-.17.222-.688.222-1.554V7.239c0-.866-.074-1.38-.222-1.55-.148-.167-.62-.279-1.414-.337l-.188-.01v-.596h3.765v1.963zm16.232 7.055c-1.16 1.12-2.3 1.67-3.43 1.675-.906 0-1.66-.28-2.266-.842-.604-.561-.907-1.27-.907-2.113 0-.988.394-1.79 1.183-2.406.9-.706 2.42-1.06 4.573-1.059h.404v-1.3c0-1.65-.641-2.47-1.922-2.473-.598 0-1.13.18-1.587.539-.269.218-.44.664-.512 1.338l-.01.183h-1.32V5.39c1.37-.584 2.63-.876 3.803-.875 2.33 0 3.49 1.04 3.49 3.128V12.3c0 .834.073 1.42.221 1.762.148.34.406.51.774.51.13 0 .306-.029.522-.087l.06.713c-.467.16-.885.24-1.253.24-.959 0-1.57-.558-1.823-1.675zm-.443-.211V9.616h-.454c-1.14 0-2.04.23-2.68.693-.644.462-.966 1.1-.966 1.906 0 .603.2 1.1.601 1.501.401.398.9.597 1.498.597.565 0 1.23-.253 2-.76zm7.943-5.958v5.11c0 .866.077 1.39.232 1.56.154.173.626.282 1.414.327l.424.01v.596h-5.835v-.596l.188-.01c.795-.051 1.27-.162 1.414-.332.148-.17.222-.688.221-1.555V7.238c0-.866-.073-1.38-.221-1.55-.148-.166-.62-.278-1.414-.336l-.188-.01v-.596h3.765v1.963c.887-1.46 2.05-2.19 3.48-2.194.196 0 .416.035.66.105v2.86h-1.095l-.01-.174c-.072-.597-.135-.951-.192-1.064-.055-.112-.205-.168-.448-.168-.972 0-1.77.507-2.395 1.52zM97.51 19l3.508-3.802-3.37-7.922c-.355-.847-.618-1.37-.789-1.583-.17-.21-.434-.322-.788-.342l-.197-.01v-.596h4.888v.597h-.207c-.894 0-1.34.116-1.34.346 0 .116.187.645.561 1.588l2.395 5.612 2.553-5.64c.374-.829.562-1.33.562-1.493 0-.276-.398-.414-1.193-.413h-.266v-.597H107v.597l-.187.01c-.407.025-.756.387-1.045 1.087-.052.122-.177.398-.374.828L99.964 19H97.51z" fill="#4D4D4D" fill-rule="nonzero"/></svg>