<svg xmlns="http://www.w3.org/2000/svg" width="106" height="32"><defs><clipPath id="a"><path fill="#fff" d="M0 0h106v32H0z"/></clipPath></defs><g clip-path="url(#a)"><path fill="#fff" d="M0 0h106v32H0z"/><path fill="#4D4D4D" d="M104.639 20.51a9.42 9.42 0 0 1-2.152.249c-2.912 0-4.367-1.087-4.367-3.26 0-1.69.467-3.2 1.403-4.52.945-1.329 2.016-1.993 3.214-1.993 1.093 0 1.985.597 2.676 1.784.691 1.181 1.036 2.71 1.036 4.588 0 3.213-1.137 6.292-3.41 9.25-2.275 2.95-4.657 4.426-7.15 4.426-1.031 0-1.94-.235-2.728-.697-.787-.456-1.78-1.322-2.978-2.603 1.723.476 3.175.718 4.355.718 2.107 0 4.171-.798 6.192-2.388 2.02-1.59 3.323-3.44 3.909-5.553m-5.601-3.273a6.55 6.55 0 0 0 3.41.945c.752 0 1.583-.067 2.493-.201l.012-.47c0-1.073-.275-1.978-.826-2.71-.542-.737-1.215-1.1-2.02-1.1-1.539 0-2.562 1.175-3.07 3.536ZM83.86 28.645l-8.92 2.388.643-1.55 8.92-2.367-.643 1.53Zm-.657-18.994-1.587 3.119c-3.708.63-6.025 2.22-6.952 4.782.743.342 2.291.51 4.644.51l2.531.04h4.027c3.41 0 5.641.315 6.69.945 1.32.792 1.98 2.02 1.98 3.676 0 1.523-.724 2.555-2.176 3.105-1.75.664-4.867 1-9.353 1-2.912 0-5.287-.134-7.123-.41-1.417-.214-2.44-.556-3.07-1.019-.62-.456-1.154-1.26-1.6-2.414 3.428.851 7.206 1.274 11.334 1.274l5.234-.12c2.387 0 4.39-.148 6.007-.457-.332-1.207-.944-2.005-1.836-2.408-.883-.395-2.497-.59-4.84-.59h-6.336l-2.19.013c-3.227 0-4.841-.972-4.841-2.91 0-1.972.931-3.757 2.794-5.36 1.863-1.603 4.084-2.528 6.663-2.776M69.917 6.05l-1.535 2.502a7.378 7.378 0 0 0-1.351-.155c-2.414 0-4.403.986-5.969 2.972-.035.436-.052.784-.052 1.033 0 1.643 1.124 2.468 3.371 2.468h.695c1.644 0 2.781.147 3.41.443.64.295.959.831.959 1.596 0 1.2-.774 2.636-2.322 4.326-3.026 3.293-7.189 4.937-12.488 4.937-5.886 0-8.829-2.422-8.829-7.258 0-2.428.687-4.856 2.06-7.284h.813c-.953 2.408-1.43 4.367-1.43 5.869 0 4.065 2.694 6.09 8.08 6.09 6.219 0 10.534-1.931 12.948-5.801-1.032-.229-1.885-.343-2.558-.343h-.512c-2.028 0-3.454-.248-4.276-.744-.813-.496-1.22-1.362-1.22-2.596 0-2.066.879-3.97 2.637-5.694 1.758-1.73 3.686-2.596 5.785-2.596.524 0 1.119.08 1.784.235M59.383 30.048 57.494 32c-.892-.47-1.517-1.12-1.876-1.952l1.876-1.925c.402.839 1.032 1.483 1.889 1.925Zm-5.404 0L52.089 32c-.891-.47-1.517-1.12-1.875-1.952l1.89-1.925c.392.839 1.017 1.483 1.875 1.925ZM38.526 3.3l-8.92 2.368.643-1.53 8.92-2.387-.643 1.549m-7.503 13.086c-1.347-1.013-2.02-2.502-2.02-4.467 0-1.583.428-2.884 1.285-3.917.866-1.033 1.96-1.543 3.28-1.543 1.784 0 3.026.952 3.725 2.85-1.224-.18-2.274-.274-3.148-.274-1.697 0-3.118.442-4.264 1.328.115 1.04.399 1.824.853 2.354.464.536 1.347 1.1 2.65 1.69 1.766-1.301 3.603-2.307 5.51-3.011l-.42 2.609c-2.685.637-4.871 1.737-6.559 3.313-1.688 1.563-2.532 3.266-2.532 5.104 0 4.011 3.091 6.017 9.274 6.017 2.02 0 4.132-.195 6.336-.59-.962 1.327-1.863 2.186-2.702 2.581-.831.403-2.169.604-4.014.604-3.516 0-6.191-.677-8.028-2.019-1.828-1.334-2.742-3.286-2.742-5.842 0-2.226 1.172-4.487 3.516-6.787M35.26 1.925l-1.876 1.952c-.9-.47-1.53-1.12-1.889-1.952L33.384 0c.393.825 1.019 1.469 1.876 1.925ZM1.719 11.959h.813c-.639 1.415-.958 2.535-.958 3.354 0 1.133.896 1.965 2.69 2.488 1.792.523 4.638.785 8.539.785 4.503 0 7.682-.43 9.536-1.281.018-.497.026-.852.026-1.06 0-1.939-.441-3.441-1.325-4.507l1.745-2.402c.953 1.094 1.43 2.576 1.43 4.44 0 1.744-.56 3.22-1.679 4.447-1.697 1.858-5.812 2.79-12.344 2.79-3.568 0-6.16-.328-7.778-.972C.804 19.397 0 18.358 0 16.936c0-1.214.573-2.871 1.719-4.977M16.463 7.74l-1.89 1.952c-.892-.47-1.517-1.12-1.876-1.952l1.876-1.925c.403.839 1.033 1.482 1.89 1.925Zm-5.405 0-1.89 1.952c-.891-.47-1.516-1.12-1.875-1.952l1.89-1.925c.393.839 1.018 1.482 1.875 1.925Z"/></g></svg>