<svg xmlns="http://www.w3.org/2000/svg" width="110" height="15"><path fill="gray" fill-rule="nonzero" d="M3.362 1.507h-1.4c-.473 0-.78.036-.92.107-.139.072-.23.24-.274.506-.043.271-.083.488-.118.65l-.03.148H0L.313.916h7.51l-.314 2.002h-.62l.018-.148c.02-.177.049-.394.088-.65a2.31 2.31 0 0 0 .024-.332c0-.187-.34-.281-1.022-.281h-1.4L3.255 9.936a6.97 6.97 0 0 0-.094 1.056c0 .148.046.244.139.289.092.044.33.078.712.103l.254.007-.071.458H.473l.076-.458.255-.007c.31 0 .57-.04.78-.118.157-.06.303-.503.437-1.33l1.34-8.429Zm4.212 10.342 1.554-9.751a6.97 6.97 0 0 0 .095-1.056c0-.158-.037-.254-.11-.288-.072-.035-.32-.07-.741-.104L8.266.643l.07-.458H10.6L9.495 7.107c.508-1.064 1.061-1.906 1.66-2.527.598-.62 1.156-.93 1.672-.93.343 0 .6.114.77.343.172.229.258.575.258 1.038 0 .226-.038.576-.112 1.049l-.615 3.856a6.97 6.97 0 0 0-.094 1.056c0 .158.036.254.109.289.073.034.32.068.741.103l.107.007-.071.458h-2.263l.951-5.976c.04-.261.06-.468.06-.62 0-.173-.035-.301-.104-.385-.069-.083-.172-.125-.31-.125-.638 0-1.615 1.157-2.93 3.472l-.586 3.634H7.574Zm12.502-1.278c-1.177.975-2.217 1.463-3.12 1.463-.598 0-1.076-.254-1.432-.76-.357-.508-.535-1.19-.535-2.047 0-1.438.402-2.729 1.206-3.871.803-1.143 1.709-1.714 2.717-1.714.382 0 .7.144.952.432.252.288.378.654.378 1.097 0 .995-.367 1.811-1.1 2.45-.732.637-1.709.993-2.93 1.067l-.012.376c0 .71.119 1.241.355 1.596s.59.532 1.063.532c.792 0 1.647-.426 2.565-1.278l-.107.657Zm-3.84-2.312c.894-.084 1.596-.373 2.106-.868.51-.495.765-1.134.765-1.917 0-.394-.065-.69-.195-.886-.13-.197-.325-.296-.585-.296-.52 0-.976.373-1.37 1.12-.394.745-.634 1.695-.721 2.847Zm8.531 6.508 1.649-10.342h-.875l.095-.598h.874c.35-1.38.753-2.362 1.206-2.948C28.169.293 28.754 0 29.47 0c.233 0 .453.02.662.063.209.042.406.104.591.188l-.307 1.936h-.58l.013-.133c.027-.256.05-.458.07-.606.02-.128.03-.239.03-.333 0-.206-.066-.36-.198-.461-.132-.101-.332-.152-.6-.152-.374 0-.655.194-.845.58-.189.387-.374 1.144-.555 2.272l-.077.473h1.82l-.089.598H27.58l-1.643 10.342h-1.17Zm4.975-2.918.975-6.109c.063-.404.095-.754.095-1.049 0-.158-.037-.254-.11-.288-.073-.035-.32-.072-.741-.11l-.107-.008.071-.458h2.263l-.526 3.28c1.139-2.31 2.232-3.465 3.28-3.465a.65.65 0 0 1 .289.066l-.496 1.67a1.097 1.097 0 0 0-.538-.148c-.748 0-1.644.958-2.688 2.874l-.603 3.745h-1.164Zm10.564-1.278c-1.178.975-2.217 1.463-3.12 1.463-.598 0-1.076-.254-1.432-.76-.357-.508-.535-1.19-.535-2.047 0-1.438.402-2.729 1.205-3.871.804-1.143 1.71-1.714 2.718-1.714.382 0 .7.144.951.432.253.288.379.654.379 1.097 0 .995-.367 1.811-1.1 2.45-.732.637-1.709.993-2.93 1.067l-.012.376c0 .71.118 1.241.355 1.596.236.355.59.532 1.063.532.792 0 1.647-.426 2.565-1.278l-.107.657Zm-3.84-2.312c.894-.084 1.596-.373 2.106-.868.51-.495.765-1.134.765-1.917 0-.394-.065-.69-.195-.886-.13-.197-.325-.296-.585-.296-.52 0-.977.373-1.37 1.12-.394.745-.635 1.695-.721 2.847Zm10.103 2.312c-1.178.975-2.218 1.463-3.12 1.463-.598 0-1.076-.254-1.432-.76-.357-.508-.535-1.19-.535-2.047 0-1.438.402-2.729 1.205-3.871.804-1.143 1.71-1.714 2.718-1.714.382 0 .7.144.951.432.252.288.378.654.378 1.097 0 .995-.366 1.811-1.099 2.45-.732.637-1.71.993-2.93 1.067l-.012.376c0 .71.118 1.241.355 1.596.236.355.59.532 1.063.532.792 0 1.647-.426 2.564-1.278l-.106.657Zm-3.84-2.312c.894-.084 1.596-.373 2.106-.868.51-.495.765-1.134.765-1.917 0-.394-.065-.69-.195-.886-.13-.197-.325-.296-.585-.296-.52 0-.977.373-1.37 1.12-.395.745-.635 1.695-.721 2.847Zm12.679 3.59.537-3.368c-.488 1.073-1.034 1.934-1.636 2.582-.603.647-1.164.971-1.684.971-.422 0-.738-.155-.948-.465-.211-.31-.316-.774-.316-1.39 0-1.6.45-3.088 1.353-4.465.901-1.376 1.876-2.065 2.924-2.065.217 0 .565.06 1.046.178l.272-1.729c.067-.404.1-.756.1-1.056 0-.158-.037-.254-.112-.288-.075-.035-.321-.07-.739-.104L56.1.643l.07-.458h2.258l-1.548 9.751a6.57 6.57 0 0 0-.1 1.056c0 .158.037.254.112.289.074.034.32.068.738.103l.107.007-.071.458h-2.257Zm.715-4.476.425-2.6a2.664 2.664 0 0 0-1.442-.437c-.587 0-1.065.338-1.435 1.012-.296.537-.549 1.249-.76 2.135-.21.887-.316 1.687-.316 2.401 0 .355.048.62.142.798a.456.456 0 0 0 .426.266c.752 0 1.739-1.192 2.96-3.575Zm2.9 4.476.975-6.109c.063-.409.095-.758.095-1.049 0-.158-.037-.254-.11-.288-.072-.035-.32-.072-.74-.11l-.107-.008.07-.458h2.264l-.975 6.109a6.97 6.97 0 0 0-.095 1.056c0 .158.037.254.11.289.072.034.32.068.74.103l.107.007-.07.458h-2.263Zm1.507-9.478.236-1.455h1.164l-.23 1.455h-1.17Zm6.257 8.777c-.859.59-1.7.886-2.523.886-.614 0-1.095-.247-1.441-.742-.347-.495-.52-1.181-.52-2.058 0-1.458.407-2.753 1.223-3.886.815-1.132 1.746-1.699 2.794-1.699.237 0 .478.029.724.085.246.057.497.142.753.255l-.325 2.024h-.579l.012-.133c.012-.123.034-.283.065-.48.012-.103.018-.192.018-.266 0-.29-.1-.507-.301-.65-.201-.143-.503-.214-.904-.214-.639 0-1.172.447-1.602 1.34-.429.895-.644 2.006-.644 3.336 0 .749.125 1.311.373 1.688s.62.565 1.116.565c.43 0 1.05-.224 1.861-.672l-.1.62Zm4.242.613c-.33.182-.642.273-.933.273-.442 0-.797-.164-1.067-.491-.27-.328-.405-.755-.405-1.282 0-.212.024-.465.071-.76l.81-5.076h-.987l.095-.598h.98l.237-1.456 1.229-.413-.296 1.869H72.4l-.1.598h-1.631l-.845 5.282c-.04.27-.06.527-.06.768 0 .29.056.51.166.658.11.148.276.221.496.221.193 0 .428-.069.704-.206l-.1.613Zm1.702.088.975-6.109c.063-.409.094-.758.094-1.049 0-.158-.036-.254-.11-.288-.072-.035-.32-.072-.74-.11l-.107-.008.07-.458h2.264l-.975 6.109a6.97 6.97 0 0 0-.095 1.056c0 .158.037.254.11.289.072.034.32.068.741.103l.106.007-.07.458H72.73Zm1.506-9.478.237-1.455h1.164l-.23 1.455h-1.17Zm3.835 9.663c-.678 0-1.186-.231-1.525-.694-.338-.463-.508-1.155-.508-2.076 0-1.483.394-2.789 1.182-3.92.788-1.13 1.7-1.695 2.735-1.695.694 0 1.213.23 1.557.691.345.46.517 1.151.517 2.072 0 1.492-.398 2.803-1.193 3.93-.796 1.128-1.718 1.692-2.765 1.692Zm.301-.561c.626 0 1.178-.52 1.654-1.56.477-1.038.715-2.235.715-3.59 0-.704-.09-1.232-.271-1.584-.182-.352-.455-.528-.822-.528-.61 0-1.152.532-1.625 1.595-.472 1.064-.708 2.286-.708 3.665 0 .59.098 1.072.295 1.444.197.372.45.558.762.558Zm4.638.376.975-6.109c.063-.409.094-.758.094-1.049 0-.158-.036-.254-.109-.288-.073-.035-.32-.072-.741-.11l-.107-.008.071-.458h2.263l-.526 3.28c.508-1.064 1.062-1.906 1.66-2.527.6-.62 1.157-.93 1.673-.93.342 0 .6.114.77.343.172.229.258.575.258 1.038 0 .226-.038.576-.113 1.049l-.614 3.856a6.97 6.97 0 0 0-.095 1.056c0 .158.037.254.11.289.072.034.32.068.741.103l.106.007-.07.458h-2.263l.95-5.976c.04-.261.06-.468.06-.62 0-.173-.034-.301-.103-.385-.07-.083-.173-.125-.31-.125-.639 0-1.616 1.157-2.931 3.472l-.585 3.634h-1.164Zm11.391 0 .538-3.368c-.489 1.073-1.034 1.934-1.637 2.582-.602.647-1.164.971-1.684.971-.421 0-.737-.155-.948-.465-.21-.31-.316-.774-.316-1.39 0-1.6.451-3.088 1.353-4.465.902-1.376 1.877-2.065 2.925-2.065.11 0 .252.015.425.045s.38.074.62.133h1.164l-.969 6.109a6.57 6.57 0 0 0-.1 1.056c0 .158.037.254.112.289.075.034.321.068.739.103l.106.007-.07.458h-2.258Zm.715-4.476.42-2.571a2.6 2.6 0 0 0-1.448-.436c-.59 0-1.07.332-1.436.997-.291.532-.541 1.241-.75 2.128-.209.886-.313 1.684-.313 2.393 0 .355.047.62.142.798a.456.456 0 0 0 .425.266c.752 0 1.739-1.192 2.96-3.575Zm2.901 4.476.975-6.109c.063-.404.094-.754.094-1.049 0-.158-.036-.254-.109-.288-.073-.035-.32-.072-.741-.11l-.107-.008.071-.458h2.263l-.526 3.28c1.139-2.31 2.232-3.465 3.28-3.465a.65.65 0 0 1 .289.066l-.496 1.67a1.097 1.097 0 0 0-.538-.148c-.749 0-1.645.958-2.688 2.874l-.603 3.745h-1.164Zm4.425 2.918c.729-.635 1.712-1.67 2.949-3.102a33.545 33.545 0 0 0-.346-3.624c-.187-1.268-.383-2.185-.588-2.752-.173-.468-.311-.743-.414-.827-.102-.084-.374-.14-.815-.17l-.142-.007.071-.458h2.145c.614 1.812.967 3.932 1.058 6.36l.726-1.167c.717-1.143 1.195-1.979 1.433-2.508.238-.53.357-1.018.357-1.466 0-.463-.155-.87-.466-1.22h1.459c.087.222.13.434.13.636 0 .419-.11.856-.328 1.311-.219.456-.676 1.203-1.374 2.242l-2.239 3.354c-.89 1.335-1.556 2.468-1.997 3.398h-1.619Z"/></svg>