<svg xmlns="http://www.w3.org/2000/svg" width="110" height="18" fill="none"><path fill="gray" d="m7.85 5.08-.297.032L7.388 3.1a5.452 5.452 0 0 0-1.517-.197c-1.286 0-2.375.56-3.166 1.715-.858 1.154-1.22 2.506-1.22 4.09 0 1.187.296 2.11.923 2.803.626.693 1.484 1.023 2.54 1.023.692 0 1.418-.132 2.143-.43l.1.298c-.924.66-1.947 1.022-3.068 1.022-1.22 0-2.21-.396-3.002-1.22C.396 11.346 0 10.29 0 8.906c0-1.914.594-3.497 1.781-4.717C2.97 2.969 4.42 2.342 6.234 2.342c.726 0 1.583.099 2.474.297l.033.066-.89 2.374Zm4.486.66c-.165.692-.33 1.318-.462 1.912-.132.594-.23 1.122-.396 1.583-.132.462-.23.924-.363 1.287-.132.363-.23.725-.362.99-.132.296-.231.593-.396.79-.132.199-.231.397-.429.562-.132.131-.297.23-.462.296a1.493 1.493 0 0 1-.527.1c-.33 0-.66-.067-1.023-.198.066-.561.198-1.023.297-1.485l.066-.033c.429.363.726.594 1.022.594.165 0 .33-.066.462-.231.132-.132.231-.363.396-.693.132-.264.23-.626.396-.956.132-.363.23-.726.363-1.089.099-.362.197-.758.296-1.088.1-.33.165-.693.231-.957.066-.263.132-.494.165-.725.033-.165.066-.297.066-.297 0-.099-.033-.165-.132-.198a12.868 12.868 0 0 0-.857-.099l.033-.396c.692-.099 1.352-.198 1.88-.264a10.8 10.8 0 0 1 1.286-.099c.462 0 .792.066.99.165.197.1.296.33.296.66 0 .099 0 .23-.033.363-.033.132-.033.264-.066.429l-.857 5.112c-.033.066-.033.165-.033.297 0 .23.066.363.23.429.166.066.43.099.792.099l-.033.33c-.56.23-1.022.362-1.418.362-.23 0-.462-.066-.594-.23-.132-.165-.197-.396-.197-.792 0-.066 0-.165.033-.264 0-.099.032-.198.032-.33l.825-5.211c0-.066 0-.1.033-.165v-.1c0-.164-.066-.296-.165-.362s-.23-.099-.495-.099a3.992 3.992 0 0 0-.89 0Zm7.586-.792c.858 0 1.517.296 2.045.956.495.66.726 1.517.726 2.606 0 1.385-.33 2.507-.957 3.43-.66.924-1.484 1.352-2.507 1.352-.857 0-1.55-.296-2.045-.956-.494-.66-.725-1.484-.725-2.54 0-1.385.33-2.54.956-3.463.66-.957 1.452-1.385 2.507-1.385Zm-.099.725c-.627 0-1.121.396-1.484 1.22-.396.825-.56 1.815-.56 2.97 0 .857.131 1.483.428 2.011.23.462.66.726 1.154.726.627 0 1.155-.396 1.518-1.254.362-.857.56-1.814.56-2.935 0-.858-.132-1.517-.428-2.012-.297-.495-.693-.726-1.188-.726ZM31.631.165a7.297 7.297 0 0 1-.725 1.65c-.231.329-.561.494-.891.494-.132 0-.23 0-.363-.033-.132-.033-.23-.066-.429-.1-.165-.032-.296-.098-.461-.131-.165-.033-.33-.066-.462-.066-.528 0-1.023.363-1.484 1.121-.462.76-.825 1.749-1.056 2.969.726-.66 1.517-.957 2.21-.957.693 0 1.22.297 1.65.957.428.66.626 1.418.626 2.408 0 1.32-.33 2.473-.99 3.43-.66.957-1.484 1.418-2.506 1.418-.89 0-1.584-.362-2.045-1.088-.462-.759-.693-1.781-.693-3.068 0-.89.099-1.715.23-2.44.133-.726.397-1.419.694-2.078A9.84 9.84 0 0 1 25.892 3c.363-.461.693-.89 1.088-1.22.363-.33.693-.594 1.056-.759.363-.164.627-.23.89-.23.1 0 .166 0 .231.033.1 0 .198.033.297.033.132.033.231.033.396.066.132.033.231.033.396.033s.33-.066.462-.165c.132-.1.33-.363.593-.792l.33.165Zm-6.069 6.564a20.18 20.18 0 0 0-.198 1.418c-.033.396-.066.792-.066 1.121 0 1.089.132 1.946.43 2.474.23.56.659.825 1.187.825.593 0 1.088-.363 1.484-1.155.396-.791.593-1.715.593-2.737 0-.825-.131-1.419-.428-1.913-.297-.462-.693-.693-1.188-.693-.626 0-1.22.198-1.814.66Zm9.302-1.781c.857 0 1.517.296 2.045.956.494.66.725 1.517.725 2.606 0 1.385-.33 2.507-.956 3.43-.66.924-1.485 1.352-2.507 1.352-.858 0-1.55-.296-2.045-.956-.495-.66-.726-1.484-.726-2.54 0-1.385.33-2.54.957-3.463.627-.957 1.418-1.385 2.507-1.385Zm-.132.725c-.627 0-1.122.396-1.485 1.22-.395.825-.56 1.815-.56 2.97 0 .857.132 1.483.428 2.011.231.462.66.726 1.155.726.627 0 1.154-.396 1.517-1.254.363-.857.56-1.814.56-2.935 0-.858-.131-1.517-.428-2.012-.297-.495-.693-.726-1.187-.726Zm10.686 1.814c0-.56-.626-1.352-1.154-1.847-.033-.033-.033-.066-.1-.066-.032-.066-.098-.066-.197-.132-.033-.033-.066-.066-.099-.066-.099-.066-.198-.066-.23-.099-.034 0-.067-.033-.1-.066-.23-.066-.56-.132-.725-.132-.99 0-1.88.495-2.573 1.452-.693.956-1.056 2.144-1.056 3.496 0 .99.231 1.781.66 2.375.462.594 1.056.89 1.814.89.627 0 1.188-.197 1.65-.56l.098-.1c-.066.364 0 .232-.165.825-.33 1.254-.725 2.177-1.187 2.77-.528.628-1.056.825-1.583.595-.198-.066-.33-.165-.495-.264-.165-.1-.23-.231-.363-.363-.066-.099-.165-.231-.23-.363-.067-.132-.1-.23-.166-.297l-.33.297c.199.56.462.99.693 1.32.231.33.396.395.792.593.396.165.725.198 1.154.1.363-.067.726-.298 1.089-.694.362-.362.692-.857.99-1.45.296-.628.56-1.386.725-2.343.198-.99.99-4.716 1.055-5.772l.033-.099Zm-1.385 1.419c-.132.758-.297 1.418-.495 1.946-.198.56-.461.99-.725 1.352-.297.363-.66.56-1.056.56-.462 0-.725-.197-.956-.626-.198-.396-.231-.99-.231-1.814 0-1.155.23-2.243.692-3.233.462-.989 1.023-1.45 1.682-1.45.231 0 .495.065.693.23 0 0 .033 0 .033.033.198.132.396.363.594.726a.102.102 0 0 1 .033.066c-.132.692-.165 1.45-.264 2.21Zm3.628 4.188-1.22.1 1.088-6.597c0-.1.033-.165.033-.264 0-.066.033-.132.033-.198 0-.165-.066-.264-.165-.297-.132-.066-.395-.099-.824-.099l.033-.33c.626-.264 1.121-.396 1.484-.396.23 0 .429.066.56.198.133.132.199.33.199.66 0 .132 0 .23-.033.363l-.396 2.342h2.87l.56-3.299 1.22-.099-1.055 6.432c-.033.132-.033.198-.033.297v.165c0 .23.066.363.23.429.166.066.43.099.727.099l-.034.33c-.593.23-1.055.362-1.418.362-.23 0-.495-.066-.626-.23-.132-.165-.231-.396-.231-.792v-.297c0-.099.033-.264.066-.495l.363-2.243h-2.87l-.56 3.86ZM59.7 5.211l1.22-.099-1.055 6.333c-.033.198-.066.363-.066.462 0 .264.066.429.231.495.132.099.396.132.792.099l-.033.33c-.594.23-1.023.362-1.32.362-.23 0-.495-.099-.626-.296-.165-.198-.231-.462-.231-.891v-.297c-.858 1.023-1.617 1.517-2.276 1.517-.528 0-.924-.198-1.188-.593-.296-.396-.428-.957-.428-1.65 0-.296.033-.66.099-1.022l.56-3.496c0-.1.033-.165.033-.264 0-.066.033-.132.033-.198a.346.346 0 0 0-.165-.297c-.099-.066-.395-.099-.824-.099l.033-.33c.626-.264 1.121-.395 1.484-.395.23 0 .429.066.56.197.133.132.199.33.199.66 0 .132 0 .231-.033.363l-.693 3.925c-.033.264-.066.495-.066.726 0 .428.099.791.23 1.022.133.231.43.33.727.33.461 0 1.022-.363 1.715-1.088L59.7 5.21Zm5.113 11.775.725-.296c.132-.066.198-.132.231-.264.033-.198.066-.462.132-.825.066-.297.099-.693.198-1.121l1.286-7.916c.033-.264.066-.396.066-.462a.346.346 0 0 0-.165-.297c-.099-.066-.395-.099-.824-.099l.033-.33c.626-.264 1.121-.396 1.484-.396.23 0 .429.066.56.198.133.132.199.33.199.627v.198c.99-.693 1.616-1.022 1.913-1.022.527 0 .99.263 1.352.824.363.56.56 1.253.56 2.177 0 1.517-.362 2.804-1.12 3.86-.726 1.054-1.683 1.55-2.903 1.55-.297 0-.627-.034-.99-.133l-.297 1.946c-.066.297-.099.561-.132.759-.033.198-.066.363-.066.462-.033.165.033.264.132.297l.924.297-.033.362c-.693-.033-1.22-.033-1.65-.033-.461 0-.989 0-1.615.033v-.396Zm2.836-4.485c.297.099.627.132.924.132.791 0 1.451-.43 1.946-1.32.494-.89.692-1.88.692-2.968 0-.66-.099-1.155-.296-1.583-.198-.43-.462-.66-.792-.66-.429 0-.957.165-1.55.56l-.924 5.839Zm7.224-3.167c-.033.198-.033.396-.033.594 0 .759.132 1.32.428 1.748.297.396.693.627 1.188.627.593 0 1.187-.198 1.847-.66l.165.297c-.33.396-.693.792-1.188 1.023-.494.263-.99.362-1.45.362-.694 0-1.221-.296-1.65-.89-.429-.594-.627-1.353-.627-2.276 0-.462.033-.924.132-1.352.1-.43.231-.858.396-1.22.165-.364.363-.76.594-1.056.23-.297.494-.627.725-.825.297-.23.594-.396.924-.56.33-.133.66-.198 1.022-.198.561 0 1.023.131 1.32.428.297.297.461.726.461 1.188 0 .89-.428 1.517-1.286 2.012-.825.461-1.814.692-2.968.758Zm.066-.626c.989-.066 1.682-.297 2.176-.66.495-.363.726-.825.726-1.352 0-.297-.066-.561-.23-.726a.826.826 0 0 0-.595-.264c-.461 0-.89.264-1.286.825-.33.494-.56 1.22-.791 2.177Zm4.782-3.002.033-.33c.627-.264 1.089-.396 1.451-.396.231 0 .43.066.561.231.132.165.198.363.198.627 0 .099 0 .198-.033.33l-.23 1.286c-.034.132-.034.264-.034.396 0 .33.1.627.297.825.198.198.429.264.693.264.527 0 1.022-.231 1.484-.693l.528-3.068 1.22-.099-1.088 6.597c-.033.1-.033.198-.033.297 0 .23.066.363.23.429.165.066.396.099.726.099l-.033.33c-.594.23-1.055.362-1.385.362-.231 0-.462-.066-.627-.23-.132-.165-.23-.396-.23-.792v-.264c0-.099.032-.198.032-.33l.429-2.704c-.627.66-1.286.956-2.012.956-.495 0-.858-.165-1.154-.462-.297-.297-.43-.758-.43-1.319 0-.198.034-.429.067-.693l.165-.89c.033-.198.066-.363.066-.429 0-.165-.066-.264-.165-.33 0 .033-.297 0-.726 0Zm8.807 7.388-1.22.1 1.088-6.597c0-.1.033-.165.033-.264 0-.066.033-.132.033-.198 0-.165-.066-.264-.165-.297-.132-.066-.396-.099-.825-.099l.033-.33c.627-.264 1.122-.396 1.485-.396.23 0 .428.066.56.198.132.132.198.33.198.66 0 .132 0 .23-.033.363l-.396 2.342h2.87l.56-3.299 1.221-.099-1.055 6.432c-.033.132-.033.198-.033.297v.165c0 .23.066.363.23.429.165.066.43.099.726.099l-.033.33c-.594.23-1.055.362-1.418.362-.231 0-.495-.066-.627-.23-.132-.165-.23-.396-.23-.792v-.297c0-.132.032-.264.065-.495l.363-2.243h-2.87l-.56 3.86Zm12.039-7.883 1.22-.099-1.055 6.333c-.033.198-.066.363-.066.462 0 .264.066.429.231.495.131.099.395.132.791.099l-.033.33c-.594.23-1.022.362-1.319.362-.231 0-.495-.099-.627-.296-.165-.198-.23-.462-.23-.891v-.297c-.858 1.023-1.617 1.517-2.277 1.517-.527 0-.923-.198-1.187-.593-.297-.396-.429-.957-.429-1.65 0-.296.033-.66.1-1.022l.56-3.496c0-.1.033-.165.033-.264 0-.066.033-.132.033-.198a.346.346 0 0 0-.165-.297c-.099-.066-.396-.099-.825-.099l.033-.33c.627-.264 1.122-.395 1.485-.395.23 0 .428.066.56.197.132.132.198.33.198.66 0 .132 0 .231-.033.363l-.692 3.925c-.033.264-.066.495-.066.726 0 .428.099.791.23 1.022.132.231.43.33.726.33.462 0 1.023-.363 1.715-1.088l1.089-5.806Zm3.859 7.883-1.221.1 1.089-6.597c0-.1.033-.165.033-.264 0-.066.033-.132.033-.198 0-.165-.066-.264-.165-.297-.132-.066-.429-.099-.825-.099l.033-.33c.594-.264 1.089-.396 1.485-.396.23 0 .428.066.56.198.132.132.198.33.198.66 0 .165 0 .264-.033.363l-.626 3.727.032.033c.528-.924 1.023-1.682 1.419-2.309.396-.66.692-1.154.989-1.55.231-.33.495-.627.792-.825.297-.198.66-.264 1.088-.264.231 0 .462.033.693.066-.099.462-.231.99-.396 1.518l-.033.033a2.161 2.161 0 0 0-.824-.165c-.231 0-.528.066-.693.198a2.628 2.628 0 0 0-.561.494c-.198.297-.495.726-.857 1.254.231.66.494 1.22.692 1.814.231.594.495 1.088.693 1.484a1.6 1.6 0 0 0 .297.429c.099.099.198.165.297.23.099.034.231.067.33.1h.494l-.033.33c-.626.263-1.088.362-1.451.362-.198 0-.363-.033-.495-.132-.132-.098-.231-.23-.396-.428a2.937 2.937 0 0 1-.296-.561c-.099-.23-.231-.462-.33-.759-.099-.264-.231-.56-.363-.857-.132-.297-.231-.594-.363-.89-.165.197-.297.428-.462.692-.165.264-.329.462-.494.726l-.33 2.11Z"/></svg>