<svg xmlns="http://www.w3.org/2000/svg" width="120" height="14"><defs><clipPath id="a"><path fill="#fff" d="M0 0h120v14H0z"/></clipPath></defs><g clip-path="url(#a)"><path fill="#fff" d="M0 0h120v14H0z"/><path fill="#4D4D4D" d="m4.339 13.948-2.72-10.77-.31-1.153c-.092-.402-.299-.602-.62-.602L.18 1.414 0 1.397V.864h4.563v.533h-.164l-.465.017c-.545 0-.818.154-.818.463 0 .197.084.63.25 1.3l1.885 7.515 2.936-9.67h.603l2.935 9.94 2.204-7.776c.247-.861.37-1.353.37-1.475 0-.198-.25-.297-.748-.297l-.595-.017h-.154V.864h3.503v.533l-.155.017-.516.017c-.345.018-.571.201-.68.55l-.37 1.196-3.117 10.77h-.577l-3.004-9.94-2.953 9.94h-.594Zm15.59-9.645v7.218c0 .687.052 1.132.156 1.336.103.198.335.308.697.331l.585.044.164.009v.54h-4.89v-.54l.164-.01.576-.043c.333-.023.543-.078.629-.166.092-.093.15-.305.172-.637l.052-.864V6.564l-.052-.856c-.023-.331-.08-.544-.172-.637-.086-.093-.296-.151-.629-.175l-.576-.043-.164-.009v-.541h3.289Zm-1.695-1.72V.865h1.696v1.72h-1.696Zm7.102 6.538v2.4l.052.864c0 .361.057.585.172.672.12.082.453.14.999.175l.163.009v.54h-4.675v-.54l.164-.01.577-.043c.333-.023.542-.078.628-.166.092-.093.15-.305.172-.637l.052-.864v-9.26l-.052-.865c-.023-.331-.08-.54-.172-.628-.086-.093-.295-.151-.628-.174L22.21.55l-.162-.01V0h3.288v8.693h.405l2.17-2.112 1.265-1.327c.086-.087.129-.16.129-.218 0-.11-.104-.166-.31-.166l-.818-.026h-.18v-.541h3.64v.541l-.163.009c-.608.04-.998.116-1.17.227-.167.105-.704.61-1.61 1.518l-1.636 1.633 2.806 3.343.93 1.03c.253.285.436.453.551.506.12.052.388.093.8.122l.164.009v.54h-2.625l-3.943-4.66h-.405Zm10.572-4.818v7.218c0 .687.051 1.132.155 1.336.103.198.336.308.697.331l.586.044.163.009v.54h-4.89v-.54l.164-.01.577-.043c.333-.023.542-.078.628-.166.092-.093.15-.305.172-.637l.052-.864V6.564l-.052-.856c-.023-.331-.08-.544-.172-.637-.086-.093-.295-.151-.628-.175l-.577-.043-.164-.009v-.541h3.289Zm-1.696-1.72V.865h1.696v1.72h-1.696Zm4.666 11.199v-.541l5.923-8.397h-3.056l-.827.009c-.373 0-.61.044-.714.13-.104.082-.155.277-.155.586 0 .244-.006.453-.017.628l-.009.183h-.904V4.303h7.653v.541l-5.854 8.292h3.418l1.05-.044c.47 0 .706-.21.706-.628v-.655l.009-.21h.904v2.183h-8.127Zm10.503 0v-.541l5.923-8.397h-3.056l-.827.009c-.373 0-.611.044-.714.13-.104.082-.155.277-.155.586 0 .244-.006.453-.017.628l-.01.183h-.903V4.303h7.653v.541l-5.854 8.292h3.418l1.05-.044c.47 0 .706-.21.706-.628v-.655l.009-.21h.904v2.183H49.38Zm12.94-9.479v7.218c0 .687.05 1.132.154 1.336.103.198.336.308.697.331l.586.044.163.009v.54h-4.89v-.54l.164-.01.577-.043c.333-.023.542-.078.628-.166.092-.093.15-.305.172-.637l.052-.864V6.564l-.052-.856c-.023-.331-.08-.544-.172-.637-.086-.093-.295-.151-.628-.175l-.577-.043-.163-.009v-.541h3.288Zm-1.697-1.72V.865h1.696v1.72h-1.696Zm11.037 11.199v-1.78C70.8 13.333 69.678 14 68.295 14c-.804 0-1.435-.268-1.894-.803-.46-.541-.689-1.28-.689-2.217V6.564l-.052-.856c-.023-.331-.08-.544-.172-.637-.086-.093-.295-.151-.628-.175l-.577-.043-.164-.009v-.541h3.289v6.407c0 1.454.51 2.181 1.532 2.181.936 0 1.843-.488 2.72-1.466V6.564l-.05-.856c-.024-.337-.081-.55-.173-.637-.086-.093-.296-.151-.629-.175l-.585-.043-.155-.009v-.541h3.289v7.218l.06.864c.017.332.072.544.164.637.091.088.3.143.628.166l.585.044.164.009v.54h-3.297Zm7.223-7.698c.86-1.327 1.986-1.99 3.374-1.99.804 0 1.432.267 1.886.802.459.536.688 1.272.688 2.209v4.416l.06.864c.018.332.073.544.164.637.092.088.302.143.629.166l.585.044.155.009v.54h-4.881v-.54l.155-.01.585-.043c.327-.023.537-.078.629-.166.091-.093.149-.305.172-.637l.052-.864V7.375c0-.814-.107-1.379-.319-1.693-.207-.32-.577-.48-1.11-.48-.77 0-1.71.486-2.824 1.458v4.861c0 .687.051 1.132.155 1.336.103.198.335.308.697.331l.585.044.164.009v.54h-4.89v-.54l.164-.01.576-.043c.333-.023.543-.078.629-.166.092-.093.15-.305.172-.637l.052-.864V6.564l-.052-.856c-.023-.331-.08-.544-.172-.637-.086-.093-.296-.151-.629-.175l-.576-.043-.164-.009v-.541h3.289v1.78Zm14.179 6.397C92.053 13.494 91.053 14 90.067 14c-.792 0-1.452-.253-1.98-.76-.528-.511-.792-1.152-.792-1.92 0-2.094 1.675-3.142 5.027-3.142h.353V7c0-1.495-.56-2.243-1.678-2.243-1.114 0-1.725.567-1.834 1.702l-.009.166h-1.153V4.888c1.193-.53 2.295-.794 3.305-.794 2.044 0 3.065.945 3.065 2.836v4.225c0 1.373.29 2.06.87 2.06.109 0 .26-.027.456-.08l.052.647c-.408.145-.775.218-1.102.218-.833 0-1.36-.506-1.584-1.519Zm-.388-.192V8.72h-.396c-2.123 0-3.185.786-3.185 2.357 0 .547.172 1 .516 1.362.35.36.787.54 1.309.54.5 0 1.085-.229 1.756-.689Zm6.939-5.402v4.634c0 .687.052 1.132.155 1.336.103.198.336.308.697.331l.586.044.37.009v.54h-5.097v-.54l.164-.01.577-.043c.333-.023.542-.078.628-.166.092-.093.15-.305.172-.637l.052-.864V6.564l-.052-.856c-.022-.331-.08-.544-.172-.637-.086-.093-.295-.151-.628-.175l-.577-.043-.164-.009v-.541h3.289v1.78c.775-1.326 1.788-1.99 3.039-1.99.172 0 .364.033.577.097v2.592h-.956l-.017-.157-.078-.655c-.028-.308-.183-.463-.464-.463-.856 0-1.556.46-2.101 1.38Zm7.748-2.584v7.218c0 .687.052 1.132.155 1.336.103.198.336.308.697.331l.586.044.163.009v.54h-4.89v-.54l.164-.01.577-.043c.333-.023.542-.078.628-.166.092-.093.15-.305.172-.637l.052-.864V6.564l-.052-.856c-.022-.331-.08-.544-.172-.637-.086-.093-.295-.151-.628-.175l-.577-.043-.164-.009v-.541h3.289Zm-1.696-1.72V.865h1.696v1.72h-1.696Zm11.037 11.199v-1.78c-.861 1.332-1.983 1.998-3.366 1.998-.804 0-1.435-.268-1.894-.803-.459-.541-.689-1.28-.689-2.217V6.564l-.052-.856c-.023-.331-.08-.544-.172-.637-.086-.093-.295-.151-.628-.175l-.577-.043-.164-.009v-.541h3.289v6.407c0 1.454.511 2.181 1.532 2.181.936 0 1.843-.488 2.721-1.466V6.564l-.052-.856c-.023-.337-.08-.55-.172-.637-.086-.093-.296-.151-.629-.175l-.585-.043-.155-.009v-.541h3.289v7.218l.06.864c.017.332.072.544.164.637.091.088.301.143.628.166l.585.044.164.009v.54h-3.297Z"/></g></svg>