<svg xmlns="http://www.w3.org/2000/svg" width="120" height="12" fill="none"><path fill="gray" d="M14.366 3.582c-.854 0-1.83.215-2.926.656l-.29 1.45h.983l.038-.138c.281-.946.888-1.413 1.829-1.413.945 0 1.286.62 1.034 1.867l-.19.984h-.302c-2.832 0-4.418.864-4.767 2.61-.126.64-.019 1.175.34 1.602.364.422.882.643 1.552.643.834 0 1.764-.43 2.787-1.274.02.844.381 1.274 1.085 1.274.276 0 .602-.068.97-.189l.064-.542a1.978 1.978 0 0 1-.404.075c-.49 0-.619-.57-.39-1.715l.705-3.531c.316-1.576-.392-2.359-2.118-2.359Zm.05 3.86h.34l-.592 2.976c-.645.383-1.18.568-1.602.568-.441 0-.776-.154-1.009-.454-.233-.301-.307-.68-.214-1.136.261-1.309 1.283-1.954 3.077-1.954ZM26.613.169l-1.92 9.603c-.117.572-.149.943-.095 1.113.053.165.233.257.538.276l.488.037.13.007-.087.45h-4.132l.087-.45.146-.008.494-.036c.282-.02.468-.065.56-.138.093-.078.175-.255.248-.531l.19-.72 1.54-7.719.102-.72c.034-.277.02-.451-.043-.524-.059-.077-.226-.126-.502-.145l-.48-.037-.139-.007.095-.451h2.779Zm3.965 3.586-1.2 6.017c-.117.572-.149.943-.095 1.113.053.165.232.257.538.276l.487.037.131.007-.087.45H26.22l.087-.45.146-.008.495-.036c.28-.02.468-.065.56-.138.092-.078.174-.255.247-.531l.19-.72.821-4.132.102-.713c.034-.277.022-.454-.036-.531-.059-.078-.226-.127-.502-.146l-.48-.036-.139-.008.088-.45h2.779Zm-1.142-1.433L29.719.89h1.433l-.283 1.433h-1.433ZM32.64.164l-.101.454.138.013.48.038c.276.02.446.061.504.139.063.072.072.253.038.53l-.101.718-1.93 9.686h1.16l.379-.983h.088c.514.717 1.23 1.084 2.157 1.084 1.004 0 1.895-.402 2.661-1.198.766-.795 1.277-1.859 1.539-3.178.237-1.188.16-2.122-.227-2.825-.388-.703-1.025-1.06-1.917-1.06-1.14 0-2.18.547-3.115 1.652l1.021-5.07H32.64Zm4.161 4.339c1.286 0 1.7 1.127 1.249 3.367-.422 2.115-1.3 3.166-2.623 3.166-.699 0-1.368-.282-2.018-.845l.895-4.452c.8-.824 1.634-1.236 2.497-1.236Zm8.64-.92c-1.019 0-1.924.378-2.724 1.134-.8.752-1.327 1.726-1.564 2.914-.253 1.246-.089 2.258.479 3.04.572.78 1.439 1.172 2.598 1.172.752 0 1.613-.183 2.598-.542l.151-.732c-.698.364-1.496.543-2.383.543-1.703 0-2.311-1.243-1.816-3.72h4.83l.025-.14c.238-1.178.164-2.088-.214-2.724-.378-.635-1.035-.946-1.98-.946Zm-.19.44c1.01 0 1.346.867.997 2.599l-.063.315h-3.28c.175-.887.474-1.59.896-2.119.427-.528.907-.794 1.45-.794Zm6.459 1.886-.771 3.863c-.117.572-.148.943-.095 1.113.053.165.233.257.538.276l.488.037.305.007-.087.45h-4.307l.088-.45.145-.008.495-.036c.281-.02.468-.065.56-.138.092-.078.175-.255.247-.531l.19-.72.822-4.132.101-.713c.034-.277.022-.454-.036-.531-.058-.078-.225-.127-.502-.146l-.48-.036-.138-.008.087-.45h2.779l-.298 1.483c.877-1.105 1.845-1.658 2.902-1.658.146 0 .303.026.473.08l-.436 2.16h-.808l.015-.13.043-.546c.03-.257-.075-.386-.312-.386-.723 0-1.392.383-2.008 1.15Zm8.083-2.327c-.853 0-1.83.215-2.926.656l-.29 1.45h.971l.038-.138c.281-.946.888-1.413 1.829-1.413.946 0 1.299.62 1.047 1.867l-.202.984h-.29c-2.832 0-4.431.864-4.78 2.61-.126.64-.006 1.175.353 1.602.364.422.882.643 1.551.643.834 0 1.764-.43 2.788-1.274.019.844.381 1.274 1.084 1.274.277 0 .59-.068.959-.189l.075-.542a1.978 1.978 0 0 1-.403.075c-.49 0-.62-.57-.391-1.715l.706-3.531c.315-1.576-.392-2.359-2.119-2.359Zm.05 3.86h.329l-.593 2.976c-.645.383-1.18.568-1.602.568-.441 0-.776-.154-1.009-.454-.233-.301-.306-.68-.214-1.136.262-1.309 1.295-1.954 3.09-1.954Zm10.57 4.301L69.061 5.69c-.14-.635-.255-1.035-.342-1.2a.47.47 0 0 0-.414-.276l-.124-.008.087-.45h3.427l-.088.45h-.138l-.393.008c-.378 0-.59.104-.633.313-.02.097.051.49.211 1.178l.939 4.212 2.67-4.205c.421-.664.645-1.06.669-1.185.043-.209-.104-.313-.444-.313l-.364-.008h-.16l.088-.45h2.342l-.087.45-.153.008c-.291.02-.575.247-.851.684l-.517.814-3.928 6.031h-.444Zm10.493-8.16c-1.164 0-2.152.372-2.977 1.11-.82.736-1.362 1.738-1.614 3.013-.257 1.266-.115 2.268.404 3.015.523.742 1.344 1.122 2.484 1.122 1.193 0 2.203-.377 3.027-1.11.825-.737 1.37-1.744 1.627-3.04.252-1.265.112-2.264-.416-3-.524-.738-1.371-1.11-2.535-1.11Zm-.088.44c.64 0 1.113.357 1.4 1.06.29.699.322 1.568.113 2.61-.213 1.078-.593 1.956-1.16 2.65-.568.693-1.19 1.046-1.854 1.046-.63 0-1.081-.356-1.362-1.06-.282-.702-.315-1.575-.101-2.623.208-1.052.593-1.924 1.16-2.623.567-.703 1.163-1.06 1.804-1.06Zm7.178 1.886-.77 3.863c-.117.572-.149.943-.095 1.113.053.165.232.257.538.276l.487.037.306.007-.087.45h-4.307l.087-.45.146-.008.494-.036c.282-.02.468-.065.56-.138.093-.078.175-.255.248-.531l.19-.72.821-4.132.102-.713c.034-.277.022-.454-.036-.531-.059-.078-.226-.127-.502-.146l-.48-.036-.139-.008.088-.45h2.779l-.299 1.483c.878-1.105 1.846-1.658 2.903-1.658.145 0 .303.026.473.08l-.437 2.16h-.807l.014-.13.044-.546c.03-.257-.075-.386-.313-.386-.722 0-1.392.383-2.008 1.15Zm7.602 5.703c-.392.15-.754.226-1.084.226-.838 0-1.408-.211-1.71-.633-.3-.422-.358-1.094-.174-2.015l.968-4.845h-1.164l.116-.59h1.164l.291-1.433 1.506-.356-.356 1.79h2.197l-.117.589H95.04l-1.004 5.034c-.15.732-.17 1.23-.058 1.491.117.257.405.386.866.386.228 0 .519-.075.873-.226l-.117.582Zm6.332-8.03c-.853 0-1.83.215-2.926.656l-.29 1.45h.971l.038-.138c.281-.946.888-1.413 1.829-1.413.946 0 1.299.62 1.047 1.867l-.202.984h-.29c-2.833 0-4.431.864-4.78 2.61-.126.64-.006 1.175.353 1.602.364.422.882.643 1.551.643.834 0 1.764-.43 2.788-1.274.019.844.381 1.274 1.084 1.274.277 0 .59-.068.959-.189l.075-.542a1.968 1.968 0 0 1-.403.075c-.49 0-.619-.57-.391-1.715l.706-3.531c.315-1.576-.392-2.359-2.119-2.359Zm.051 3.86h.328l-.593 2.976c-.645.383-1.18.568-1.602.568-.441 0-.776-.154-1.009-.454-.233-.301-.306-.68-.214-1.136.262-1.309 1.295-1.954 3.09-1.954Zm6.501-1.533-.771 3.863c-.116.572-.148.943-.095 1.113.054.165.233.257.539.276l.487.037.306.007-.088.45h-4.306l.087-.45.145-.008.495-.036c.281-.02.468-.065.56-.138.092-.078.175-.255.248-.531l.189-.72.822-4.132.102-.713c.034-.277.022-.454-.037-.531-.058-.078-.225-.127-.502-.146l-.48-.036-.138-.008.087-.45h2.779l-.298 1.483c.878-1.105 1.845-1.658 2.903-1.658.145 0 .303.026.472.08l-.436 2.16h-.807l.014-.13.044-.546c.029-.257-.075-.386-.313-.386-.723 0-1.392.383-2.008 1.15Zm8.457-2.327c-1.164 0-2.165.373-2.989 1.11-.82.737-1.35 1.739-1.602 3.014-.257 1.266-.128 2.268.391 3.015.524.742 1.357 1.122 2.497 1.122 1.193 0 2.202-.377 3.027-1.11.824-.737 1.357-1.744 1.614-3.04.252-1.265.113-2.264-.416-3-.524-.738-1.358-1.11-2.522-1.11Zm-.089.442c.64 0 1.101.356 1.388 1.06.291.698.334 1.567.126 2.61-.214 1.077-.606 1.955-1.173 2.648-.568.694-1.19 1.047-1.854 1.047-.631 0-1.081-.356-1.362-1.06-.282-.702-.315-1.575-.101-2.623.208-1.052.593-1.924 1.16-2.623.568-.703 1.176-1.06 1.816-1.06ZM8.363 11.666H0l.095-.489.157-.007.536-.04c.305-.02.507-.07.607-.15.1-.084.19-.276.268-.575l.205-.78 1.514-7.583.11-.78c.037-.3.024-.492-.04-.576C3.39.602 3.209.549 2.91.528L2.38.497 2.239.48 2.333 0h4.572l-.094.48-.158.017-.536.031C5.812.55 5.61.602 5.51.686c-.1.084-.19.276-.268.575l-.205.78-1.514 7.584c-.141.698-.17 1.1-.086 1.206.084.105.473.157 1.166.157h1.19c.742 0 1.238-.044 1.49-.134.258-.094.423-.284.497-.567l.181-.796.04-.158h.827l-.465 2.333Z"/></svg>