<?xml version="1.0" encoding="UTF-8" standalone="no"?>
<!-- Created with Inkscape (http://www.inkscape.org/) -->

<svg
   width="146.64958"
   height="25.0047"
   id="svg2047"
   sodipodi:version="0.32"
   inkscape:version="1.1 (c4e8f9e, 2021-05-24)"
   version="1.0"
   sodipodi:docname="WiktprintableYi2.svg"
   inkscape:output_extension="org.inkscape.output.svg.inkscape"
   xmlns:inkscape="http://www.inkscape.org/namespaces/inkscape"
   xmlns:sodipodi="http://sodipodi.sourceforge.net/DTD/sodipodi-0.dtd"
   xmlns:xlink="http://www.w3.org/1999/xlink"
   xmlns="http://www.w3.org/2000/svg"
   xmlns:svg="http://www.w3.org/2000/svg"
   xmlns:rdf="http://www.w3.org/1999/02/22-rdf-syntax-ns#"
   xmlns:cc="http://creativecommons.org/ns#"
   xmlns:dc="http://purl.org/dc/elements/1.1/">
  <defs
     id="defs3">
    <inkscape:perspective
       sodipodi:type="inkscape:persp3d"
       inkscape:vp_x="0 : -211.92388 : 1"
       inkscape:vp_y="0 : 1000 : 0"
       inkscape:vp_z="391 : -211.92388 : 1"
       inkscape:persp3d-origin="195.5 : -290.90007 : 1"
       id="perspective92" />
    <linearGradient
       id="linearGradient3525">
      <stop
         style="stop-color:#006;stop-opacity:1;"
         offset="0"
         id="stop3527" />
      <stop
         style="stop-color:#00004f;stop-opacity:1;"
         offset="1"
         id="stop3529" />
    </linearGradient>
    <linearGradient
       id="linearGradient3446">
      <stop
         style="stop-color:#f4e3ca;stop-opacity:1;"
         offset="0"
         id="stop3448" />
      <stop
         style="stop-color:#e9cc9d;stop-opacity:1;"
         offset="1"
         id="stop3450" />
    </linearGradient>
    <linearGradient
       id="linearGradient3033">
      <stop
         style="stop-color:#557567;stop-opacity:1;"
         offset="0"
         id="stop3035" />
      <stop
         style="stop-color:#002d17;stop-opacity:1;"
         offset="1"
         id="stop3037" />
    </linearGradient>
    <linearGradient
       id="linearGradient3025">
      <stop
         style="stop-color:#4aaf6d;stop-opacity:1;"
         offset="0"
         id="stop3027" />
      <stop
         style="stop-color:#6af297;stop-opacity:1;"
         offset="1"
         id="stop3029" />
    </linearGradient>
    <linearGradient
       id="linearGradient2959">
      <stop
         id="stop2961"
         offset="0"
         style="stop-color:#5500af;stop-opacity:1;" />
      <stop
         id="stop2963"
         offset="1"
         style="stop-color:#000052;stop-opacity:1;" />
    </linearGradient>
    <linearGradient
       id="linearGradient2951">
      <stop
         id="stop2953"
         offset="0"
         style="stop-color:#4aafff;stop-opacity:1;" />
      <stop
         id="stop2955"
         offset="1"
         style="stop-color:#7fe5e5;stop-opacity:1;" />
    </linearGradient>
    <linearGradient
       id="linearGradient2925">
      <stop
         style="stop-color:#fa2f52;stop-opacity:1;"
         offset="0"
         id="stop2927" />
      <stop
         style="stop-color:#f57d5a;stop-opacity:1;"
         offset="1"
         id="stop2929" />
    </linearGradient>
    <linearGradient
       id="linearGradient2917">
      <stop
         style="stop-color:#d40000;stop-opacity:1;"
         offset="0"
         id="stop2919" />
      <stop
         style="stop-color:#570000;stop-opacity:1;"
         offset="1"
         id="stop2921" />
    </linearGradient>
    <linearGradient
       id="linearGradient1977">
      <stop
         style="stop-color:#efefbd;stop-opacity:1;"
         offset="0"
         id="stop1979" />
      <stop
         style="stop-color:#d2c595;stop-opacity:1;"
         offset="1"
         id="stop1981" />
    </linearGradient>
    <linearGradient
       inkscape:collect="always"
       xlink:href="#linearGradient2917"
       id="linearGradient2923"
       x1="27.14286"
       y1="122.6041"
       x2="171.42857"
       y2="125.82186"
       gradientUnits="userSpaceOnUse" />
    <linearGradient
       inkscape:collect="always"
       xlink:href="#linearGradient2925"
       id="linearGradient2931"
       x1="52.857136"
       y1="62.271225"
       x2="131.42856"
       y2="150.75945"
       gradientUnits="userSpaceOnUse" />
    <linearGradient
       inkscape:collect="always"
       xlink:href="#linearGradient2917"
       id="linearGradient2947"
       gradientUnits="userSpaceOnUse"
       x1="27.14286"
       y1="122.6041"
       x2="171.42857"
       y2="125.82186" />
    <linearGradient
       inkscape:collect="always"
       xlink:href="#linearGradient2951"
       id="linearGradient2949"
       gradientUnits="userSpaceOnUse"
       x1="52.857136"
       y1="62.271225"
       x2="131.42856"
       y2="150.75945" />
    <linearGradient
       inkscape:collect="always"
       xlink:href="#linearGradient2959"
       id="linearGradient2965"
       gradientUnits="userSpaceOnUse"
       x1="27.14286"
       y1="122.6041"
       x2="171.42857"
       y2="125.82186" />
    <linearGradient
       inkscape:collect="always"
       xlink:href="#linearGradient2959"
       id="linearGradient2971"
       gradientUnits="userSpaceOnUse"
       x1="27.14286"
       y1="122.6041"
       x2="171.42857"
       y2="125.82186" />
    <linearGradient
       inkscape:collect="always"
       xlink:href="#linearGradient2951"
       id="linearGradient2973"
       gradientUnits="userSpaceOnUse"
       x1="52.857136"
       y1="62.271225"
       x2="131.42856"
       y2="150.75945" />
    <linearGradient
       inkscape:collect="always"
       xlink:href="#linearGradient2959"
       id="linearGradient3019"
       gradientUnits="userSpaceOnUse"
       x1="27.14286"
       y1="122.6041"
       x2="171.42857"
       y2="125.82186" />
    <linearGradient
       inkscape:collect="always"
       xlink:href="#linearGradient2951"
       id="linearGradient3021"
       gradientUnits="userSpaceOnUse"
       x1="52.857136"
       y1="62.271225"
       x2="131.42856"
       y2="150.75945" />
  </defs>
  <sodipodi:namedview
     inkscape:document-units="mm"
     id="base"
     pagecolor="#ffffff"
     bordercolor="#666666"
     borderopacity="1.0"
     inkscape:pageopacity="0.0"
     inkscape:pageshadow="2"
     inkscape:zoom="2.6086214"
     inkscape:cx="96.219405"
     inkscape:cy="63.826816"
     inkscape:current-layer="text4445-3"
     inkscape:window-width="1280"
     inkscape:window-height="693"
     inkscape:window-x="0"
     inkscape:window-y="0"
     showguides="true"
     inkscape:guide-bbox="true"
     showgrid="false"
     inkscape:pagecheckerboard="1"
     inkscape:window-maximized="0" />
  <metadata
     id="metadata4">
    <rdf:RDF>
      <cc:Work
         rdf:about="">
        <dc:format>image/svg+xml</dc:format>
        <dc:type
           rdf:resource="http://purl.org/dc/dcmitype/StillImage" />
      </cc:Work>
    </rdf:RDF>
  </metadata>
  <g
     inkscape:label="Layer 1"
     inkscape:groupmode="layer"
     id="layer1"
     transform="translate(-250.52615,-436.20455)">
    <flowRoot
       xml:space="preserve"
       id="flowRoot2465"
       style="font-style:normal;font-variant:normal;font-weight:normal;font-stretch:normal;line-height:0.01%;font-family:FrankRuehl;-inkscape-font-specification:FrankRuehl;text-align:start;writing-mode:lr-tb;text-anchor:start;fill:#808080;fill-opacity:1;stroke:none;stroke-width:1px;stroke-linecap:butt;stroke-linejoin:miter;stroke-opacity:1"
       transform="translate(-15.557923,-4.0485135)"><flowRegion
         id="flowRegion2467"><rect
           id="rect2469"
           width="406.34705"
           height="212.21176"
           x="-273.75134"
           y="389.00433"
           style="font-style:normal;font-variant:normal;font-weight:normal;font-stretch:normal;font-size:59px;line-height:125%;font-family:FrankRuehl;-inkscape-font-specification:FrankRuehl;text-align:start;writing-mode:lr-tb;text-anchor:start;fill:#808080;fill-opacity:1" /></flowRegion><flowPara
         id="flowPara2471"
         style="font-size:59px;line-height:1.25" /></flowRoot>
    <g
       aria-label="וויקיווערטערבוך
די פֿרײַע וויקיווערטערבוך"
       id="text4445-3"
       style="font-weight:bold;font-size:53.3333px;line-height:1;font-family:FreeSerif;-inkscape-font-specification:'FreeSerif Bold';text-align:end;letter-spacing:-2px;word-spacing:0px;text-anchor:end;fill:#4d4d4d"
       transform="translate(-4.2053095,-127.62651)">
      <path
         d="m 396.32718,566.42414 q 0,-1.00548 0.37044,-1.77282 0.3969,-0.7938 0.76734,-0.7938 0.15876,0 0.29107,0.1323 0.13229,0.1323 0.23813,0.34398 0.10584,0.18522 0.50274,0.42336 0.3969,0.23814 1.00548,0.42336 0.82026,0.18522 1.34946,0.84672 0.5292,0.63504 0.5292,1.7199 0,0.5292 -0.15875,1.00548 -0.1323,0.44982 -0.31753,0.74088 -0.18522,0.2646 -0.34398,0.55566 -0.13229,0.2646 -0.13229,0.44982 v 0.0794 q 0.89963,5.39784 0.89963,6.85314 0,1.1907 -0.42336,2.40786 -0.42336,1.1907 -1.03193,1.1907 -0.23815,0 -0.42336,-0.21168 -0.15877,-0.21168 -0.15877,-0.55566 0.29107,-8.14968 0.29107,-9.7902 0,-0.44982 -0.2646,-0.60858 -0.2646,-0.18522 -0.84672,-0.31752 -0.58212,-0.15876 -1.00549,-0.44982 -1.13777,-0.7938 -1.13777,-2.59308 0,-0.0265 0,-0.0529 0,-0.0265 -10e-6,-0.0265 z"
         style="font-size:60px;stroke-width:0.441"
         id="path54744" />
      <path
         d="m 390.17086,566.42414 q 0,-1.00548 0.37044,-1.77282 0.3969,-0.7938 0.76734,-0.7938 0.15876,0 0.29106,0.1323 0.1323,0.1323 0.23814,0.34398 0.10584,0.18522 0.50274,0.42336 0.3969,0.23814 1.00548,0.42336 0.82026,0.18522 1.34946,0.84672 0.5292,0.63504 0.5292,1.7199 0,0.5292 -0.15876,1.00548 -0.1323,0.44982 -0.31752,0.74088 -0.18522,0.2646 -0.34398,0.55566 -0.1323,0.2646 -0.1323,0.44982 v 0.0794 q 0.89964,5.39784 0.89964,6.85314 0,1.1907 -0.42336,2.40786 -0.42336,1.1907 -1.03194,1.1907 -0.23814,0 -0.42336,-0.21168 -0.15876,-0.21168 -0.15876,-0.55566 0.29106,-8.14968 0.29106,-9.7902 0,-0.44982 -0.2646,-0.60858 -0.2646,-0.18522 -0.84672,-0.31752 -0.58212,-0.15876 -1.00548,-0.44982 -1.13778,-0.7938 -1.13778,-2.59308 0,-0.0265 0,-0.0529 0,-0.0265 0,-0.0265 z"
         style="font-size:60px;stroke-width:0.441"
         id="path54746" />
      <path
         d="m 389.3859,568.51448 q 0,0.74088 -0.18522,1.48176 -0.18522,0.71442 -0.44982,1.24362 -0.2646,0.50274 -0.55566,0.89964 -0.29106,0.3969 -0.5292,0.60858 -0.23814,0.18522 -0.34398,0.18522 -0.10584,0 -0.23814,-0.10584 -0.1323,-0.1323 -0.1323,-0.37044 0,-0.31752 0.34398,-0.9261 0.37044,-0.60858 0.37044,-0.97902 0,-0.50274 -0.3969,-0.7938 -0.37044,-0.29106 -0.9261,-0.47628 -0.55566,-0.18522 -1.11132,-0.47628 -0.5292,-0.29106 -0.9261,-0.97902 -0.37044,-0.68796 -0.37044,-1.79928 0,-0.76734 0.23814,-1.29654 0.23814,-0.55566 0.44982,-0.71442 0.23814,-0.18522 0.3969,-0.18522 0.21168,0 0.34398,0.18522 0.1323,0.15876 0.21168,0.37044 0.10584,0.21168 0.47628,0.47628 0.37044,0.23814 0.95256,0.37044 1.21716,0.23814 1.79928,1.1907 0.58212,0.95256 0.58212,2.09034 z"
         style="font-size:60px;stroke-width:0.441"
         id="path54748" />
      <path
         d="m 370.89923,566.26538 q 0,-0.58212 0.2646,-1.50822 0.2646,-0.9261 0.63505,-0.9261 0.18521,0 0.39689,0.37044 0.23814,0.5292 1.16424,0.71442 0.9261,0.18522 3.8367,0.18522 3.49272,0 4.8951,1.82574 1.42884,1.79928 1.42884,6.00642 0,1.16424 -0.0794,1.87866 -0.0529,0.71442 -0.31752,1.69344 -0.2646,0.95256 -0.89964,1.64052 -0.63504,0.68796 -1.66698,1.13778 -0.6615,0.2646 -1.93158,0.47628 -1.27008,0.21168 -2.16972,0.47628 -0.89964,0.2646 -1.1907,0.7938 -0.18522,0.29106 -0.42336,0.29106 -0.47628,0 -0.5292,-0.68796 0,-2.2491 3.75732,-3.46626 0.55566,-0.18522 1.42884,-0.37044 0.89964,-0.18522 1.323,-0.31752 0.44982,-0.1323 0.95256,-0.47628 0.50274,-0.34398 0.68796,-1.00548 0.21168,-0.68796 0.21168,-1.74636 0,-1.11132 -0.2646,-1.82574 -0.23814,-0.71442 -0.87318,-1.1907 -0.63504,-0.50274 -1.69344,-0.68796 -1.0584,-0.21168 -2.72538,-0.21168 -1.42884,0 -2.30202,-0.0529 -0.84672,-0.0529 -1.69343,-0.21168 -0.84673,-0.18522 -1.27009,-0.50274 -0.42336,-0.34398 -0.68796,-0.89964 -0.2646,-0.55566 -0.2646,-1.40238 z m 2.43432,5.0274 q 0,0.21168 -0.44982,1.34946 -0.42336,1.11132 -0.42336,1.8522 0,1.66698 0.31753,4.65696 0.34398,2.98998 0.34398,3.86316 0,1.323 -0.18523,2.3814 -0.18522,1.08486 -0.44982,1.69344 -0.23814,0.60858 -0.55566,1.03194 -0.29106,0.42336 -0.5292,0.55566 -0.23814,0.15876 -0.37044,0.15876 -0.18522,0 -0.18522,-0.47628 0,-0.0265 0.0529,-0.84672 0.0794,-0.82026 0.0794,-1.82574 0,-0.37044 -0.0794,-4.18068 -0.0794,-3.78378 -0.0794,-4.4982 0,-2.5137 0.74088,-4.26006 0.76734,-1.77282 1.53468,-1.77282 0.23815,0 0.23814,0.31752 z"
         style="font-size:60px;stroke-width:0.441"
         id="path54750" />
      <path
         d="m 369.71736,568.51448 q 0,0.74088 -0.18522,1.48176 -0.18522,0.71442 -0.44982,1.24362 -0.2646,0.50274 -0.55566,0.89964 -0.29106,0.3969 -0.52919,0.60858 -0.23815,0.18522 -0.34398,0.18522 -0.10584,0 -0.23815,-0.10584 -0.1323,-0.1323 -0.1323,-0.37044 0,-0.31752 0.34398,-0.9261 0.37044,-0.60858 0.37044,-0.97902 0,-0.50274 -0.3969,-0.7938 -0.37043,-0.29106 -0.9261,-0.47628 -0.55566,-0.18522 -1.11132,-0.47628 -0.5292,-0.29106 -0.9261,-0.97902 -0.37044,-0.68796 -0.37044,-1.79928 0,-0.76734 0.23814,-1.29654 0.23814,-0.55566 0.44982,-0.71442 0.23814,-0.18522 0.3969,-0.18522 0.21168,0 0.34398,0.18522 0.1323,0.15876 0.21168,0.37044 0.10584,0.21168 0.47628,0.47628 0.37044,0.23814 0.95256,0.37044 1.21716,0.23814 1.79928,1.1907 0.58212,0.95256 0.58212,2.09034 z"
         style="font-size:60px;stroke-width:0.441"
         id="path54752" />
      <path
         d="m 358.18966,566.42414 q 0,-1.00548 0.37044,-1.77282 0.3969,-0.7938 0.76734,-0.7938 0.15876,0 0.29106,0.1323 0.1323,0.1323 0.23815,0.34398 0.10584,0.18522 0.50273,0.42336 0.3969,0.23814 1.00548,0.42336 0.82026,0.18522 1.34946,0.84672 0.5292,0.63504 0.5292,1.7199 0,0.5292 -0.15876,1.00548 -0.1323,0.44982 -0.31752,0.74088 -0.18522,0.2646 -0.34398,0.55566 -0.1323,0.2646 -0.1323,0.44982 v 0.0794 q 0.89964,5.39784 0.89964,6.85314 0,1.1907 -0.42336,2.40786 -0.42336,1.1907 -1.03194,1.1907 -0.23814,0 -0.42336,-0.21168 -0.15876,-0.21168 -0.15876,-0.55566 0.29106,-8.14968 0.29106,-9.7902 0,-0.44982 -0.26459,-0.60858 -0.26461,-0.18522 -0.84673,-0.31752 -0.58212,-0.15876 -1.00548,-0.44982 -1.13777,-0.7938 -1.13777,-2.59308 0,-0.0265 0,-0.0529 0,-0.0265 -10e-6,-0.0265 z"
         style="font-size:60px;stroke-width:0.441"
         id="path54754" />
      <path
         d="m 352.03334,566.42414 q 0,-1.00548 0.37044,-1.77282 0.3969,-0.7938 0.76734,-0.7938 0.15876,0 0.29106,0.1323 0.1323,0.1323 0.23814,0.34398 0.10584,0.18522 0.50274,0.42336 0.3969,0.23814 1.00548,0.42336 0.82026,0.18522 1.34946,0.84672 0.5292,0.63504 0.5292,1.7199 0,0.5292 -0.15876,1.00548 -0.1323,0.44982 -0.31752,0.74088 -0.18522,0.2646 -0.34398,0.55566 -0.1323,0.2646 -0.1323,0.44982 v 0.0794 q 0.89964,5.39784 0.89964,6.85314 0,1.1907 -0.42336,2.40786 -0.42336,1.1907 -1.03194,1.1907 -0.23814,0 -0.42336,-0.21168 -0.15876,-0.21168 -0.15876,-0.55566 0.29106,-8.14968 0.29106,-9.7902 0,-0.44982 -0.2646,-0.60858 -0.2646,-0.18522 -0.84672,-0.31752 -0.58212,-0.15876 -1.00548,-0.44982 -1.13778,-0.7938 -1.13778,-2.59308 0,-0.0265 0,-0.0529 0,-0.0265 0,-0.0265 z"
         style="font-size:60px;stroke-width:0.441"
         id="path54756" />
      <path
         d="m 340.95547,571.76906 q 0,-0.60858 0.0794,-1.16424 0.10584,-0.55566 0.10584,-0.6615 0,-0.3969 -0.29106,-0.55566 -0.29106,-0.15876 -0.68796,-0.18522 -0.3969,-0.0265 -0.87318,-0.37044 -0.47628,-0.34398 -0.76734,-1.0584 -0.2646,-0.68796 -0.2646,-1.50822 0,-0.58212 0.29106,-1.4553 0.31752,-0.89964 0.76734,-0.89964 0.23814,0 0.3969,0.15876 0.18522,0.15876 0.29106,0.34398 0.10584,0.18522 0.5292,0.37044 0.42336,0.18522 1.08486,0.21168 2.80476,0.0794 2.80476,3.06936 0,1.4553 -0.5292,1.4553 -0.0265,0 -0.29106,-0.0529 -0.2646,-0.0794 -0.58212,-0.0794 -0.58212,0 -0.82026,0.23814 -0.21168,0.23814 -0.21168,0.84672 0,0.9261 0.44982,1.8522 0.47628,0.9261 0.95256,2.19618 0.47628,1.24362 0.47628,3.01644 0,0.47628 -0.0265,0.71442 l 2.3814,-1.74636 q 0.47628,-0.5292 0.60858,-0.89964 0.15876,-0.3969 0.34398,-1.13778 0.21168,-0.76734 0.6615,-1.74636 0.87318,-2.03742 1.00548,-2.46078 0,-0.0529 0,-0.0794 0.0265,-0.0529 0.0265,-0.10584 0,-0.2646 -0.34398,-0.42336 -0.34398,-0.18522 -0.7938,-0.29106 -0.42336,-0.1323 -0.95256,-0.58212 -0.50274,-0.47628 -0.76734,-1.24362 -0.15876,-0.47628 -0.15876,-1.40238 0.0529,-0.71442 0.31752,-1.27008 0.2646,-0.55566 0.50274,-0.76734 0.23814,-0.23814 0.3969,-0.23814 0.18522,0 0.29106,0.21168 0.1323,0.18522 0.5292,0.5292 0.42336,0.31752 1.24362,0.58212 2.09034,0.47628 2.09034,2.54016 0,0.68796 -0.34398,1.1907 -0.34398,0.47628 -0.74088,0.82026 -0.3969,0.31752 -0.44982,0.5292 -0.87318,2.61954 -1.27008,4.81572 -0.3969,2.16972 -0.3969,3.14874 0,0.97902 -0.1323,1.69344 -0.1323,0.68796 -0.58212,1.03194 l -7.69986,5.74182 q -0.1323,0.0794 -0.23814,0.0794 -0.2646,0 -0.2646,-0.34398 l 0.2646,-4.18068 q 0.0265,-0.68796 0.55566,-1.0584 l 2.61954,-1.90512 q 0.47628,-0.34398 0.47628,-0.87318 0,-0.82026 -0.31752,-1.5876 -0.31752,-0.76734 -0.71442,-1.29654 -0.3969,-0.55566 -0.71442,-1.53468 -0.31752,-1.00548 -0.31752,-2.22264 z"
         style="font-size:60px;stroke-width:0.441"
         id="path54758" />
      <path
         d="m 336.0163,580.28918 q 0,-3.25458 0.34398,-8.49366 0,-1.03194 -0.71442,-1.77282 -0.71442,-0.76734 -1.82574,-0.76734 h -5.90058 q -0.55566,0 -1.29654,-0.63504 -0.71442,-0.6615 -0.71442,-1.9845 0,-0.6615 0.2646,-1.7199 0.29106,-1.08486 0.71442,-1.08486 0.1323,0 0.23814,0.18522 0.10584,0.18522 0.23814,0.42336 0.1323,0.21168 0.55566,0.3969 0.44982,0.18522 1.16424,0.18522 h 4.07484 q 3.36042,0 3.86316,4.2336 l 0.5292,8.57304 q 0,0.95256 -0.23814,2.09034 -0.23814,1.11132 -0.7938,1.11132 -0.21168,0 -0.37044,-0.21168 -0.1323,-0.21168 -0.1323,-0.5292 z"
         style="font-size:60px;stroke-width:0.441"
         id="path54760" />
      <path
         d="m 324.56798,574.70612 q 0,-1.50822 -0.47628,-2.646 -0.47628,-1.13778 -1.16424,-1.66698 -0.6615,-0.55566 -1.24362,-0.7938 -0.58212,-0.2646 -0.97902,-0.2646 -1.7199,0 -2.43432,4.04838 -0.0265,0.1323 -0.0529,0.23814 -0.0265,0.0794 -0.0794,0.15876 -0.0529,0.0529 -0.1323,0.0794 -0.0529,0.0265 -0.1323,0.0265 -0.3969,0 -0.3969,-0.44982 0,-0.37044 0.1323,-1.50822 0.15876,-1.16424 0.58212,-3.14874 0.44982,-1.9845 1.0584,-3.65148 0,0 0,-0.0265 0.0265,-0.0265 0.0265,-0.0529 0.0265,-0.0529 0.0529,-0.10584 0.0529,-0.0529 0.10584,-0.10584 0.0529,-0.0529 0.10584,-0.0794 0.0794,-0.0529 0.15876,-0.0794 0.10584,-0.0265 0.21168,-0.0265 0.0265,0 0.0794,0 1.40238,0.1323 2.46078,1.03194 1.0584,0.87318 1.5876,1.9845 0.55566,1.11132 0.89964,2.5137 0.34398,1.40238 0.42336,2.30202 0.0794,0.89964 0.0794,1.61406 0,2.98998 -0.82026,6.16518 0,0.0265 -0.0265,0.0794 0,0.0265 -0.0529,0.1323 -0.0529,0.10584 -0.1323,0.21168 -0.0794,0.0794 -0.23814,0.15876 -0.15876,0.0529 -0.34398,0.0529 h -10.3194 q -0.55566,-0.0265 -0.71442,-1.27008 -0.15876,-1.24362 -0.15876,-5.50368 0,-1.8522 1.0584,-4.12776 0.0265,-0.0794 0.0529,-0.15876 0.0265,-0.0794 0.0265,-0.15876 0,-0.31752 -0.37044,-0.42336 -0.76734,-0.21168 -1.29654,-0.9261 -0.5292,-0.71442 -0.5292,-1.90512 0,-1.0584 0.3969,-1.79928 0.3969,-0.76734 0.76734,-0.76734 0.15876,0 0.2646,0.1323 0.1323,0.1323 0.23814,0.34398 0.1323,0.18522 0.5292,0.42336 0.3969,0.23814 1.00548,0.42336 2.01096,0.5292 2.01096,2.67246 0,0.74088 -0.23814,1.4553 -0.21168,0.71442 -0.58212,0.71442 -0.0794,0 -0.42336,-0.0794 -0.34398,-0.10584 -0.55566,-0.10584 -0.37044,0 -0.47628,0.2646 -0.58212,1.24362 -0.58212,2.59308 0.0265,1.66698 0.15876,2.56662 0.1323,0.87318 0.31752,1.13778 0.18522,0.2646 0.5292,0.2646 h 8.94348 q 0.44982,-0.0265 0.55566,-0.47628 0.1323,-0.44982 0.1323,-1.48176 z"
         style="font-size:60px;stroke-width:0.441"
         id="path54762" />
      <path
         d="m 300.47179,571.76906 q 0,-0.60858 0.0794,-1.16424 0.10584,-0.55566 0.10584,-0.6615 0,-0.3969 -0.29106,-0.55566 -0.29106,-0.15876 -0.68796,-0.18522 -0.3969,-0.0265 -0.87318,-0.37044 -0.47628,-0.34398 -0.76734,-1.0584 -0.2646,-0.68796 -0.2646,-1.50822 0,-0.58212 0.29106,-1.4553 0.31752,-0.89964 0.76734,-0.89964 0.23814,0 0.3969,0.15876 0.18522,0.15876 0.29106,0.34398 0.10584,0.18522 0.5292,0.37044 0.42336,0.18522 1.08486,0.21168 2.80476,0.0794 2.80476,3.06936 0,1.4553 -0.5292,1.4553 -0.0265,0 -0.29106,-0.0529 -0.2646,-0.0794 -0.58212,-0.0794 -0.58212,0 -0.82026,0.23814 -0.21168,0.23814 -0.21168,0.84672 0,0.9261 0.44982,1.8522 0.47628,0.9261 0.95256,2.19618 0.47628,1.24362 0.47628,3.01644 0,0.47628 -0.0265,0.71442 l 2.3814,-1.74636 q 0.47628,-0.5292 0.60858,-0.89964 0.15876,-0.3969 0.34398,-1.13778 0.21168,-0.76734 0.6615,-1.74636 0.87318,-2.03742 1.00548,-2.46078 0,-0.0529 0,-0.0794 0.0265,-0.0529 0.0265,-0.10584 0,-0.2646 -0.34398,-0.42336 -0.34398,-0.18522 -0.7938,-0.29106 -0.42336,-0.1323 -0.95256,-0.58212 -0.50274,-0.47628 -0.76734,-1.24362 -0.15876,-0.47628 -0.15876,-1.40238 0.0529,-0.71442 0.31752,-1.27008 0.2646,-0.55566 0.50274,-0.76734 0.23814,-0.23814 0.3969,-0.23814 0.18522,0 0.29106,0.21168 0.1323,0.18522 0.5292,0.5292 0.42336,0.31752 1.24362,0.58212 2.09034,0.47628 2.09034,2.54016 0,0.68796 -0.34398,1.1907 -0.34398,0.47628 -0.74088,0.82026 -0.3969,0.31752 -0.44982,0.5292 -0.87318,2.61954 -1.27008,4.81572 -0.3969,2.16972 -0.3969,3.14874 0,0.97902 -0.1323,1.69344 -0.1323,0.68796 -0.58212,1.03194 l -7.69986,5.74182 q -0.1323,0.0794 -0.23814,0.0794 -0.2646,0 -0.2646,-0.34398 l 0.2646,-4.18068 q 0.0265,-0.68796 0.55566,-1.0584 l 2.61954,-1.90512 q 0.47628,-0.34398 0.47628,-0.87318 0,-0.82026 -0.31752,-1.5876 -0.31752,-0.76734 -0.71442,-1.29654 -0.3969,-0.55566 -0.71442,-1.53468 -0.31752,-1.00548 -0.31752,-2.22264 z"
         style="font-size:60px;stroke-width:0.441"
         id="path54764" />
      <path
         d="m 295.53262,580.28918 q 0,-3.25458 0.34398,-8.49366 0,-1.03194 -0.71442,-1.77282 -0.71442,-0.76734 -1.82574,-0.76734 h -5.90058 q -0.55566,0 -1.29654,-0.63504 -0.71442,-0.6615 -0.71442,-1.9845 0,-0.6615 0.2646,-1.7199 0.29106,-1.08486 0.71442,-1.08486 0.1323,0 0.23814,0.18522 0.10584,0.18522 0.23814,0.42336 0.1323,0.21168 0.55566,0.3969 0.44982,0.18522 1.16424,0.18522 h 4.07484 q 3.36042,0 3.86316,4.2336 l 0.5292,8.57304 q 0,0.95256 -0.23814,2.09034 -0.23814,1.11132 -0.7938,1.11132 -0.21168,0 -0.37044,-0.21168 -0.1323,-0.21168 -0.1323,-0.5292 z"
         style="font-size:60px;stroke-width:0.441"
         id="path54766" />
      <path
         d="m 273.57966,566.26538 q 0,-0.58212 0.2646,-1.50822 0.29106,-0.9261 0.6615,-0.9261 0.18522,0 0.37044,0.37044 0.44982,0.87318 3.59856,0.87318 1.66698,0 2.7783,0.55566 1.11132,0.5292 1.74636,1.7199 0.63504,1.16424 0.87318,2.7783 0.2646,1.5876 0.2646,3.969 0,0.7938 -0.0529,2.19618 0,0.37044 0.3969,0.37044 h 0.42336 q 0.47628,0 0.47628,0.34398 0,0.10584 -0.0529,0.23814 l -1.27008,3.09582 q -0.18522,0.55566 -0.82026,0.55566 h -9.89604 q -0.50274,0 -0.50274,-0.37044 0,-0.0529 0.0529,-0.21168 l 1.27008,-3.09582 q 0.23814,-0.55566 0.82026,-0.55566 h 7.96446 q 0.1323,0 0.21168,-0.0265 0.0794,-0.0265 0.13231,-0.10584 0.0794,-0.10584 0.0794,-0.29106 v -0.3969 q 0,-1.1907 -0.1323,-2.1168 -0.10584,-0.95256 -0.34398,-1.61406 -0.21168,-0.68796 -0.55566,-1.1907 -0.34398,-0.50274 -0.74088,-0.7938 -0.37044,-0.31752 -0.9261,-0.50274 -0.5292,-0.18522 -1.0584,-0.2646 -0.5292,-0.0794 -1.21716,-0.0794 -0.87318,0 -1.42884,-0.0265 -0.55566,-0.0265 -1.27008,-0.18522 -0.71442,-0.18522 -1.13778,-0.47628 -0.3969,-0.31752 -0.68796,-0.89964 -0.29106,-0.60858 -0.29106,-1.42884 z"
         style="font-size:60px;stroke-width:0.441"
         id="path54768" />
      <path
         d="m 266.97352,566.42414 q 0,-1.00548 0.37044,-1.77282 0.3969,-0.7938 0.76734,-0.7938 0.15876,0 0.29106,0.1323 0.1323,0.1323 0.23814,0.34398 0.10584,0.18522 0.50274,0.42336 0.3969,0.23814 1.00548,0.42336 0.82026,0.18522 1.34946,0.84672 0.5292,0.63504 0.5292,1.7199 0,0.5292 -0.15876,1.00548 -0.1323,0.44982 -0.31752,0.74088 -0.18522,0.2646 -0.34398,0.55566 -0.1323,0.2646 -0.1323,0.44982 v 0.0794 q 0.89964,5.39784 0.89964,6.85314 0,1.1907 -0.42336,2.40786 -0.42336,1.1907 -1.03194,1.1907 -0.23814,0 -0.42336,-0.21168 -0.15876,-0.21168 -0.15876,-0.55566 0.29106,-8.14968 0.29106,-9.7902 0,-0.44982 -0.2646,-0.60858 -0.2646,-0.18522 -0.84672,-0.31752 -0.58212,-0.15876 -1.00548,-0.44982 -1.13778,-0.7938 -1.13778,-2.59308 0,-0.0265 0,-0.0529 0,-0.0265 0,-0.0265 z"
         style="font-size:60px;stroke-width:0.441"
         id="path54770" />
      <path
         d="m 255.68396,563.83106 q 0.13229,0 0.23814,0.18522 0.13229,0.18522 0.23813,0.42336 0.1323,0.21168 0.58212,0.3969 0.44983,0.18522 1.16424,0.18522 h 6.29748 q 1.0584,0 1.42885,0.55566 0.37043,0.55566 0.37043,1.66698 0,1.77282 -1.323,1.9845 -0.31752,0.0529 -0.31752,0.37044 l 0.0265,0.3969 q 0.0265,0.47628 0.29106,4.18068 0.29106,3.7044 0.55566,7.1442 0.2646,3.46626 0.2646,3.49272 0,1.21716 -0.50273,2.40786 -0.47629,1.21716 -1.11133,1.21716 -0.3969,0 -0.3969,-0.7938 l 0.0265,-18.01926 q 0,-0.37044 -0.3969,-0.37044 h -6.37687 q -0.58212,0 -1.29654,-0.63504 -0.71442,-0.6615 -0.71442,-2.01096 0,-0.68796 0.2646,-1.7199 0.29106,-1.0584 0.68797,-1.0584 z"
         style="font-size:60px;stroke-width:0.441"
         id="path54772" />
    </g>
    <text
       xml:space="preserve"
       style="font-weight:bold;font-size:30.6667px;line-height:1;font-family:sans-serif;-inkscape-font-specification:'sans-serif Bold';letter-spacing:-2px;word-spacing:0px"
       x="83.247177"
       y="445.33331"
       id="text16097"><tspan
         sodipodi:role="line"
         id="tspan16095"
         x="83.247177"
         y="445.33331"></tspan></text>
    <text
       xml:space="preserve"
       style="font-weight:bold;font-size:30.6667px;line-height:1;font-family:sans-serif;-inkscape-font-specification:'sans-serif Bold';letter-spacing:-2px;word-spacing:0px"
       x="200.31064"
       y="297.96213"
       id="text27637"><tspan
         sodipodi:role="line"
         id="tspan27635"
         x="200.31064"
         y="297.96213"></tspan></text>
  </g>
</svg>
