<svg xmlns="http://www.w3.org/2000/svg" width="110" height="14" fill="none"><path fill="gray" d="M4.415 11.123c-.051.229-.006.38.135.454.147.068.342.102.585.102l-.029.13-1.987.481c-.275-.055-.47-.163-.585-.324-.116-.16-.128-.442-.039-.843.02-.08.083-.256.192-.528.109-.278.24-.599.394-.963.16-.364.326-.75.499-1.158.18-.413.342-.796.49-1.148.07-.167.028-.281-.125-.343-.147-.068-.426-.102-.835-.102-.218 0-.448.025-.692.074-.236.044-.464.093-.681.149a10.13 10.13 0 0 0-.586.148 1.788 1.788 0 0 1-.403.064c-.199 0-.355-.046-.47-.138a.75.75 0 0 1-.231-.39 1.894 1.894 0 0 1-.038-.62c.019-.247.06-.519.124-.815.135-.617.301-1.185.5-1.704.198-.519.464-.966.796-1.343a3.528 3.528 0 0 1 1.249-.908c.505-.228 1.13-.355 1.872-.38.09 0 .281-.009.576-.027.3-.019.64-.037 1.017-.056.384-.024.778-.043 1.181-.055A22.57 22.57 0 0 1 8.371.852c.09 0 .144.04.163.12a.354.354 0 0 1 .01.176.453.453 0 0 1-.077.167 5.6 5.6 0 0 0-.144.232 4.84 4.84 0 0 0-.154.259 1.194 1.194 0 0 0-.096.278c-.02.08-.032.17-.038.268a.82.82 0 0 0 .028.278c.032.087.084.17.154.25a.98.98 0 0 0 .336.195c-.269.16-.531.265-.787.315a4.34 4.34 0 0 1-.72.064c-.474 0-.8-.16-.98-.481-.179-.321-.223-.787-.134-1.399-.595 0-1.094.034-1.498.102a2.07 2.07 0 0 0-1.017.463c-.275.235-.506.58-.691 1.038-.186.45-.365 1.065-.538 1.843-.058.265-.102.49-.134.676a1.51 1.51 0 0 0-.01.444c.02.111.067.195.144.25.083.05.205.075.365.075.256 0 .525-.019.806-.056l.855-.111c.281-.043.553-.084.816-.12.262-.038.502-.056.72-.056a.56.56 0 0 1 .403.167.393.393 0 0 1 .125.407l-1.863 4.427ZM8.38 9.419c.09-.408.291-.793.605-1.158a7.242 7.242 0 0 1 1.056-1c.39-.309.774-.583 1.152-.824.384-.241.688-.442.912-.602-.352.043-.63.08-.835.111-.198.025-.355.043-.47.056a5.878 5.878 0 0 0-.25.018h-.154c-.25 0-.454-.055-.614-.167a.945.945 0 0 1-.336-.463 1.961 1.961 0 0 1-.096-.704c.006-.271.045-.57.115-.898.045-.204.134-.426.269-.667.134-.247.307-.481.518-.704.211-.228.455-.426.73-.592.282-.173.589-.287.921-.343l3.428-.583h.029c.006-.007.016-.01.028-.01.116 0 .24.05.375.148a1.2 1.2 0 0 1 .355.417c.103.185.173.414.211.685.039.266.02.568-.057.908-.058.265-.17.552-.336.861-.16.309-.381.62-.663.936a7.078 7.078 0 0 1-.998.926c-.39.302-.845.583-1.364.843l2.026-.297a.418.418 0 0 1 .077-.01h.038c.192 0 .365.038.519.112a.912.912 0 0 1 .374.333c.103.148.167.334.192.556.032.216.016.466-.048.75l-.47 2.158c-.109.5-.115.864-.02 1.093.103.228.333.352.692.37l-.029.14-2.218.472a1.02 1.02 0 0 1-.384-.232.783.783 0 0 1-.182-.333 1.318 1.318 0 0 1-.029-.426c.013-.161.039-.33.077-.51l.537-2.426c.09-.408.058-.723-.095-.945-.154-.222-.43-.333-.826-.333-.18 0-.413.043-.7.13a3.613 3.613 0 0 0-.855.397 3.306 3.306 0 0 0-.768.658c-.23.26-.384.562-.461.908-.032.16-.051.305-.058.435a.733.733 0 0 0 .058.343.55.55 0 0 0 .24.222c.115.05.269.08.46.092l-.028.14-2.17.472a1.183 1.183 0 0 1-.403-.232.683.683 0 0 1-.163-.315 1.228 1.228 0 0 1-.01-.407c.026-.155.058-.324.096-.51v.001Zm6.039-6.427c.032-.149.045-.29.038-.426a.738.738 0 0 0-.086-.362.596.596 0 0 0-.269-.259.978.978 0 0 0-.46-.093c-.225 0-.455.047-.692.14-.23.086-.448.222-.653.407-.205.185-.39.417-.557.694a3.589 3.589 0 0 0-.432 1.398c-.006.143.007.273.039.39a.61.61 0 0 0 .192.287c.096.068.233.102.412.102.359 0 .676-.065.95-.195.283-.135.526-.311.73-.527.205-.217.372-.46.5-.732.134-.272.23-.547.288-.824Zm19.441.213c-.09 0-.193.015-.308.046a1.169 1.169 0 0 0-.355.157c-.122.074-.25.182-.384.324a2.882 2.882 0 0 0-.384.538l-2.66 4.51a8.886 8.886 0 0 1-.143.213.894.894 0 0 1-.192.185.9.9 0 0 1-.27.14 1.105 1.105 0 0 1-.373.055c-.359 0-.682.03-.97.092-.288.062-.554.13-.797.204-.237.074-.458.145-.662.213a2.058 2.058 0 0 1-.596.093c-.652 0-1.116-.142-1.392-.426-.275-.29-.345-.738-.21-1.343.031-.16.08-.34.143-.537.07-.204.144-.405.221-.602a11.09 11.09 0 0 1 .47-.982c.416-.66.877-1.198 1.383-1.612a6.268 6.268 0 0 1 1.632-.963 7.18 7.18 0 0 1 1.814-.472c.64-.08 1.293-.12 1.959-.12.96-.068 1.773-.124 2.438-.167.666-.05 1.223-.09 1.67-.12.449-.038.8-.065 1.057-.084.262-.018.467-.03.614-.037.148-.012.253-.018.317-.018a2.953 2.953 0 0 1 1.075.111c.263.074.474.2.634.38.16.178.262.42.307.722.051.296.029.666-.067 1.111a6.91 6.91 0 0 1-.432 1.343 4.9 4.9 0 0 1-.672 1.102 3.556 3.556 0 0 1-.912.797 3.05 3.05 0 0 1-1.143.398h-.768a9.64 9.64 0 0 0-1.91.176 8.588 8.588 0 0 0-.557.111 1.603 1.603 0 0 1-.384.056.978.978 0 0 1-.23-.028.444.444 0 0 1-.183-.12.388.388 0 0 1-.077-.223.9.9 0 0 1 .077-.37l1.575-3.946c.128-.333.153-.568.076-.704-.076-.135-.22-.203-.431-.203Zm-3.706.24c-.224 0-.512.078-.864.232-.352.148-.733.432-1.143.852-.582.599-1.03 1.2-1.344 1.806a7.755 7.755 0 0 0-.7 1.954c-.065.29-.049.531.047.723.103.185.333.277.692.277.185 0 .393-.095.624-.287.23-.197.454-.481.672-.852l2.41-4.112c.127-.204.143-.352.047-.444-.096-.1-.243-.149-.441-.149Zm7.757 1.167c.07-.32.096-.586.077-.796-.02-.21-.07-.377-.154-.5a.607.607 0 0 0-.307-.269 1.035 1.035 0 0 0-.394-.074c-.166 0-.323.03-.47.093-.147.061-.24.145-.279.25L34.83 7.437c-.026.08-.045.16-.057.24a.323.323 0 0 0 .047.205c.039.055.112.101.221.139.11.037.263.055.461.055.282 0 .547-.102.797-.305.25-.204.477-.47.682-.797a6.41 6.41 0 0 0 .556-1.12c.16-.414.285-.828.375-1.242Zm6.969-1.167c.135-.456.18-.805.135-1.046-.038-.247-.192-.37-.46-.37l-.356.055a.533.533 0 0 0-.269.13c-.05.055-.093.163-.124.324-.116.525-.359.938-.73 1.24-.371.297-.81.445-1.315.445-.148 0-.298-.018-.452-.055a1.051 1.051 0 0 1-.412-.213c.268-.105.448-.21.537-.315a.846.846 0 0 0 .173-.324 1.11 1.11 0 0 0 .02-.408 4.765 4.765 0 0 1-.02-.407c0-.13.016-.238.048-.324.038-.093.125-.149.26-.167l4.607-.648c.32.049.51.219.567.509.057.284.003.7-.163 1.25l-.807 2.825 3.226-.454.883-2.936c.058-.191.08-.342.067-.454a.394.394 0 0 0-.086-.25.35.35 0 0 0-.182-.12.826.826 0 0 0-.212-.028l.03-.139 1.929-.454c.09 0 .176.022.26.065.082.037.15.096.2.176.058.074.097.17.116.287a.933.933 0 0 1-.038.408l-2.314 7.965c-.115.407-.173.725-.173.954 0 .222.032.385.096.49a.4.4 0 0 0 .24.195c.096.018.176.028.24.028l-.029.13-1.987.48a1.437 1.437 0 0 1-.451-.258.771.771 0 0 1-.202-.399 1.755 1.755 0 0 1 .029-.592c.051-.241.128-.54.23-.899l1.181-3.982-3.245.435-1.017 3.418c-.122.407-.183.725-.183.954.007.222.042.385.106.49.07.105.153.17.25.195.095.018.179.028.249.028l-.029.13-1.997.48a1.437 1.437 0 0 1-.45-.258.715.715 0 0 1-.193-.399 1.755 1.755 0 0 1 .029-.592c.045-.241.118-.54.22-.899l1.969-6.696Zm15.275-1.092-3.84 8.15c-.07.154-.119.287-.144.398-.058.265-.026.463.096.593a.69.69 0 0 0 .499.185l-.029.13-1.872.481a1.219 1.219 0 0 1-.595-.472c-.128-.21-.157-.47-.087-.778.02-.099.045-.195.077-.287.039-.1.074-.183.106-.25l3.725-7.79c.038-.08.07-.17.096-.268.051-.216.029-.398-.067-.546-.096-.155-.263-.232-.5-.232a.653.653 0 0 0-.105.01.654.654 0 0 0-.106.01l-1.565.258a1.35 1.35 0 0 1-.029.575 2.015 2.015 0 0 1-.605 1.056 1.919 1.919 0 0 1-.518.342c-.192.08-.397.12-.614.12-.346 0-.627-.046-.845-.138-.218-.093-.362-.186-.432-.278.262-.074.445-.188.547-.343.109-.16.18-.312.211-.454a.919.919 0 0 0 .02-.315 1.121 1.121 0 0 0-.058-.24 1.7 1.7 0 0 0-.058-.186.24.24 0 0 1-.01-.148.346.346 0 0 1 .078-.13.33.33 0 0 1 .182-.083l4.838-.796a2.193 2.193 0 0 1 .913.046c.185.05.342.124.47.222a.831.831 0 0 1 .298.362.768.768 0 0 1 .028.5l-.038.139a.64.64 0 0 1-.067.157Zm2.025 4.093a18.84 18.84 0 0 1 .778-2.408c.282-.667.64-1.21 1.076-1.63.435-.426.979-.735 1.631-.926.66-.198 1.485-.296 2.477-.296.365 0 .704.018 1.018.055.314.037.57.148.768.334.205.185.336.469.394.852.057.383.01.92-.144 1.611-.026.105-.052.216-.077.334a4.317 4.317 0 0 1-.096.36l-1.479 5.28c-.012.061-.025.12-.038.176l-.038.148c-.07.327-.096.583-.077.769.019.179.06.311.125.398a.38.38 0 0 0 .22.157c.09.012.167.019.23.019l-.028.13-1.987.48a1.696 1.696 0 0 1-.403-.221.71.71 0 0 1-.212-.297 1.19 1.19 0 0 1-.048-.417c.007-.166.036-.367.087-.601.025-.105.05-.207.076-.306.026-.099.052-.2.077-.306l1.71-6.297.086-.37c.032-.118.06-.23.086-.334.051-.235.08-.445.086-.63a.76.76 0 0 0-.096-.463.647.647 0 0 0-.355-.278c-.166-.068-.4-.102-.7-.102a2.03 2.03 0 0 0-.817.176c-.269.117-.528.318-.777.602-.243.278-.474.652-.692 1.12-.217.47-.419 1.057-.604 1.76l-1.22 4.687c-.032.13-.064.29-.096.481a2.647 2.647 0 0 0-.038.547c.013.173.058.324.134.454.077.123.212.185.404.185l-.03.13-1.986.48a1.534 1.534 0 0 1-.384-.203.645.645 0 0 1-.202-.287 1.19 1.19 0 0 1-.048-.417c.013-.16.045-.352.096-.574l.077-.315c.025-.11.054-.228.086-.352l.95-3.695Zm8.64 1.065h4.11v1.686h-4.11V7.51Zm6.73 4.835a.764.764 0 0 0 .01-.269 1.379 1.379 0 0 0-.038-.25 2.6 2.6 0 0 0-.058-.194.414.414 0 0 1-.01-.149c.007-.037.04-.058.097-.064a70.72 70.72 0 0 0 1.968-.186c.5-.055.89-.132 1.171-.231.282-.105.483-.244.605-.417.128-.173.233-.41.317-.713l.49-1.713-2.036.176a.611.611 0 0 1-.096.009h-.048c-.563 0-.966-.164-1.21-.49-.236-.328-.294-.77-.172-1.325l.038-.148c.09-.402.253-.735.49-1 .236-.272.515-.491.835-.658a4.15 4.15 0 0 1 1.037-.39 7.158 7.158 0 0 1 1.104-.166l1.2-.092.509-1.825a.992.992 0 0 0 .028-.398.475.475 0 0 0-.105-.241.318.318 0 0 0-.183-.102.687.687 0 0 0-.192-.028l.03-.13L85.25.9c.082 0 .166.019.249.056a.546.546 0 0 1 .211.166.544.544 0 0 1 .115.26.735.735 0 0 1-.01.352l-.019.092-.662 2.25c.32-.03.63-.049.931-.055.307-.006.58-.01.816-.01.32 0 .605.016.855.047.256.025.464.086.624.185a.695.695 0 0 1 .326.436c.058.191.051.447-.02.768l-.133.593a2.29 2.29 0 0 1-.365.861c-.16.229-.359.414-.596.556a2.89 2.89 0 0 1-.806.306 6.5 6.5 0 0 1-.96.139l-1.776.13-.509 1.842c-.102.377-.218.68-.346.908-.127.228-.33.41-.604.546-.27.136-.637.238-1.104.306-.468.068-1.092.133-1.872.194.012.068.016.161.01.278a1.83 1.83 0 0 1-.058.352c-.103.457-.317.781-.644.973a2.108 2.108 0 0 1-1.113.296c-.307 0-.541-.04-.701-.12a3.554 3.554 0 0 1-.413-.25.633.633 0 0 0 .26-.14c.095-.067.182-.148.259-.24a1.8 1.8 0 0 0 .22-.306c.064-.111.11-.22.135-.324Zm4.686-4.677.854-3.112c-.377.018-.71.058-.998.12a2.006 2.006 0 0 0-.75.297 1.666 1.666 0 0 0-.527.555c-.14.235-.253.544-.336.926-.103.457-.058.778.134.964.192.179.56.268 1.104.268h.26l.259-.018ZM86.71 5.76c.05-.241.073-.439.067-.593a.577.577 0 0 0-.115-.38.552.552 0 0 0-.337-.203 2.057 2.057 0 0 0-.566-.065h-.374c-.077 0-.15.003-.221.01a.995.995 0 0 0-.163.009l-.845 3.028c.358-.024.675-.058.95-.102.282-.05.525-.136.73-.259.211-.124.387-.3.528-.528.147-.228.262-.534.346-.917Zm8.131-1.63c-.25 0-.496.069-.74.204a3.159 3.159 0 0 0-.68.538 5.704 5.704 0 0 0-.615.75 8.845 8.845 0 0 0-.5.843 7.47 7.47 0 0 0-.374.815 4.689 4.689 0 0 0-.201.666c-.09.383-.106.692-.048.927.057.234.191.367.403.398l-.048.139-2.055.398c-.198-.124-.317-.324-.355-.602a2.712 2.712 0 0 1 .058-.898 8.903 8.903 0 0 1 .566-1.732 7.2 7.2 0 0 1 .922-1.5 6.832 6.832 0 0 1 1.286-1.232 7.499 7.499 0 0 1 1.7-.945 1.304 1.304 0 0 1-.135-.25 2.537 2.537 0 0 1-.182-.695 1.063 1.063 0 0 1 .01-.324.382.382 0 0 1 .038-.11c.025-.044.057-.066.096-.066.05 0 .15-.018.297-.055a32.354 32.354 0 0 0 1.075-.324c.186-.068.337-.127.452-.176l.096.083a1.479 1.479 0 0 0-.03.407c.014.173.036.352.068.538.039.179.087.355.144.527.064.167.135.303.211.408.39.5.644 1.025.759 1.574.121.544.163 1.124.125 1.741a14.33 14.33 0 0 1-.27 1.955 56.53 56.53 0 0 0-.402 2.204c-.07.426-.074.74-.01.944.07.204.26.33.566.38l-.048.13-2.217.482c-.244-.124-.388-.33-.432-.621-.039-.29-.016-.62.067-.991.185-.821.336-1.537.451-2.149.115-.61.202-1.139.26-1.583.063-.445.098-.818.105-1.121a4.145 4.145 0 0 0-.029-.778 1.685 1.685 0 0 0-.154-.519 2.092 2.092 0 0 0-.23-.38Zm11.136.399 3.889-.269c.07 0 .112.031.124.093.013.056.013.099 0 .13-.012.08-.067.207-.163.38a2.13 2.13 0 0 0-.221.592 2.298 2.298 0 0 0-.048.25 1.075 1.075 0 0 0 0 .278c.02.093.058.188.116.287.064.099.163.195.297.287-.39.167-.829.25-1.315.25-.173 0-.342-.034-.509-.102a1.084 1.084 0 0 1-.413-.342 1.404 1.404 0 0 1-.22-.593c-.039-.247-.02-.54.057-.88l-1.738.111-1.43 5.01c-.115.408-.173.726-.173.955.007.222.039.385.096.49a.4.4 0 0 0 .24.195c.096.018.179.028.25.028l-.029.13-1.997.48a1.438 1.438 0 0 1-.451-.258.72.72 0 0 1-.192-.399 1.74 1.74 0 0 1 .029-.592c.045-.241.118-.54.221-.899l1.44-4.955-1.69.12c-.16.686-.41 1.205-.749 1.557-.339.352-.771.528-1.296.528-.205 0-.406-.022-.605-.065a2.391 2.391 0 0 1-.46-.14c.275-.178.486-.37.633-.573a1.49 1.49 0 0 0 .288-.575 1.045 1.045 0 0 0 0-.527.836.836 0 0 1-.038-.38.564.564 0 0 1 .057-.102.34.34 0 0 1 .144-.102L104 4.658l.739-2.74-1.901.295c.077-.179.131-.345.163-.5.032-.16.042-.302.029-.426a.479.479 0 0 0-.115-.287.298.298 0 0 0-.25-.111.63.63 0 0 0-.211.037l-.125-.194c.096-.105.205-.201.327-.288.128-.086.259-.163.393-.231a2.46 2.46 0 0 1 .413-.157c.141-.037.272-.056.394-.056.032 0 .061.003.086.01.026 0 .055.003.087.009.428.08.688.235.777.463.096.222.074.562-.067 1.019l1.642-.37a.87.87 0 0 1 .124-.02c.167 0 .253.087.26.26a2.08 2.08 0 0 1-.087.658l-.701 2.5Z"/></svg>