<svg xmlns="http://www.w3.org/2000/svg" width="120" height="15" fill="none"><path fill="gray" d="M113.957.928c.048 0 .091.033.13.101.048.068.092.145.13.232.049.077.155.15.319.217.164.068.377.102.638.102h3.84c.397 0 .657.106.783.319.135.202.203.526.203.97 0 .61-.237.947-.71 1.015-.126.02-.189.068-.189.145v.217c.107.715.203 1.368.29 1.957.097.58.16.961.189 1.145.029.183.048.357.058.522a4.472 4.472 0 0 1-.174 1.84c-.135.425-.314.638-.536.638-.194 0-.29-.145-.29-.435l.014-5.812c0-.135-.077-.202-.232-.202h-3.884c-.212 0-.449-.116-.71-.348-.261-.242-.391-.609-.391-1.102 0-.25.048-.565.145-.942.106-.386.232-.58.377-.58Zm-.711 2.565c0 .27-.033.54-.101.811-.068.261-.15.488-.246.682a3.882 3.882 0 0 1-.305.492 2.146 2.146 0 0 1-.29.334c-.087.067-.149.101-.188.101-.039 0-.082-.02-.13-.058a.272.272 0 0 1-.073-.203c0-.116.063-.285.188-.507.136-.222.203-.401.203-.536a.51.51 0 0 0-.217-.435 1.662 1.662 0 0 0-.507-.261 4.124 4.124 0 0 1-.609-.26c-.193-.107-.362-.286-.507-.537-.135-.251-.203-.58-.203-.986 0-.28.043-.516.13-.71.087-.203.169-.333.247-.391.087-.068.159-.101.217-.101a.22.22 0 0 1 .188.101.68.68 0 0 1 .116.203c.039.077.126.164.261.26.136.088.309.155.522.204.444.087.773.304.986.652.212.348.318.73.318 1.145ZM102.826.217c0-.058.015-.106.044-.145a.177.177 0 0 1 .144-.072h2.769c.058 0 .101.024.13.072a.195.195 0 0 1 .058.145V.58a.248.248 0 0 1-.058.16c-.029.038-.072.057-.13.057h-2.769a.195.195 0 0 1-.144-.058.304.304 0 0 1-.044-.16V.218Zm3.812 7.74c.116 0 .183-.03.203-.087.029-.068.043-.189.043-.363 0-.811-.068-1.468-.203-1.97-.125-.513-.323-.88-.594-1.102-.271-.222-.536-.363-.797-.42-.251-.068-.585-.102-1-.102-.638 0-1.14-.02-1.507-.058-.271.145-.406.338-.406.58 0 .164.072.285.217.362.155.077.435.116.841.116h.275c.097-.01.155-.014.174-.014a.8.8 0 0 1 .681.333c.174.212.261.493.261.84 0 .706-.473 1.058-1.42 1.058-.309 0-.657-.033-1.044-.101a4.968 4.968 0 0 0-.333.26c-.116.098-.208.17-.275.218a.334.334 0 0 1-.189.073.22.22 0 0 1-.159-.073.23.23 0 0 1-.058-.145c0-.058.024-.116.072-.174.049-.058.126-.135.232-.231.116-.107.189-.174.218-.203-.368-.329-.551-.72-.551-1.174 0-.31.072-.604.217-.884.145-.28.271-.469.377-.566.106-.106.256-.241.449-.405-.541-.203-.811-.686-.811-1.45 0-.212.048-.488.145-.826.096-.338.217-.507.362-.507.077 0 .145.063.203.188.096.203.285.339.565.406.28.058.696.087 1.246.087.851 0 1.503.14 1.957.42.454.28.783.773.986 1.479.212.705.318 1.72.318 3.043 0 .86-.038 1.401-.116 1.623l-.739 1.783c-.096.203-.246.304-.449.304h-4.986c-.173 0-.26-.062-.26-.188 0-.039.009-.082.029-.13l.695-1.696c.087-.203.237-.304.45-.304h4.681ZM100 9.942c0-1.188.063-2.74.188-4.652 0-.377-.13-.7-.39-.971a1.31 1.31 0 0 0-1-.42h-3.233c-.203 0-.44-.116-.71-.348-.26-.242-.391-.604-.391-1.087 0-.242.048-.556.145-.942.106-.396.236-.594.391-.594.048 0 .092.033.13.101.04.068.083.145.13.232.05.077.15.15.305.217.165.068.377.102.638.102h2.232c1.227 0 1.932.773 2.116 2.319l.29 4.695c0 .348-.044.73-.131 1.145-.087.406-.232.609-.435.609-.077 0-.145-.039-.203-.116a.54.54 0 0 1-.072-.29Zm-6.145-6.449a3.471 3.471 0 0 1-.348 1.493 3.915 3.915 0 0 1-.304.492 2.162 2.162 0 0 1-.29.334c-.087.067-.15.101-.188.101-.039 0-.082-.02-.13-.058a.274.274 0 0 1-.073-.203c0-.116.063-.285.188-.507.135-.222.203-.401.203-.536a.51.51 0 0 0-.217-.435 1.667 1.667 0 0 0-.508-.261 4.12 4.12 0 0 1-.608-.26c-.194-.107-.363-.286-.508-.537-.135-.251-.203-.58-.203-.986 0-.28.044-.516.131-.71.087-.203.17-.333.246-.391.087-.068.16-.101.218-.101a.22.22 0 0 1 .188.101.695.695 0 0 1 .116.203c.039.077.126.164.261.26.135.088.31.155.522.204.444.087.773.304.985.652.213.348.32.73.32 1.145Zm-3.855 0a3.478 3.478 0 0 1-.348 1.493 3.927 3.927 0 0 1-.304.492 2.162 2.162 0 0 1-.29.334c-.087.067-.15.101-.189.101-.038 0-.082-.02-.13-.058a.274.274 0 0 1-.072-.203c0-.116.062-.285.188-.507.135-.222.203-.401.203-.536a.485.485 0 0 0-.16-.377.832.832 0 0 0-.376-.232 6.95 6.95 0 0 1-.493-.188 4.117 4.117 0 0 1-.493-.29c-.145-.107-.27-.28-.377-.522a2.34 2.34 0 0 1-.145-.87c0-.28.044-.516.13-.71.088-.203.17-.333.247-.391.087-.068.16-.101.218-.101a.22.22 0 0 1 .188.101.695.695 0 0 1 .116.203c.039.077.126.164.26.26.136.088.31.155.523.204.444.087.773.304.985.652.213.348.319.73.319 1.145Zm-.058 7.797a.25.25 0 0 1 .058-.16.25.25 0 0 1 .16-.058h3.188c.058 0 .106.02.145.059a.221.221 0 0 1 .072.159v.362a.178.178 0 0 1-.072.145.178.178 0 0 1-.145.073h-3.189a.221.221 0 0 1-.159-.073.197.197 0 0 1-.058-.145v-.362Z"/><path fill="gray" d="M81.652 5.275c0-.222.015-.434.044-.637.038-.203.058-.324.058-.363 0-.145-.053-.246-.16-.304a.904.904 0 0 0-.377-.101c-.145-.01-.304-.078-.478-.203-.174-.126-.314-.32-.42-.58a2.283 2.283 0 0 1-.145-.826c0-.213.053-.478.16-.797.115-.329.255-.493.42-.493.087 0 .159.029.217.087a.72.72 0 0 1 .16.188c.038.068.135.136.29.203.154.068.352.107.593.116 1.025.03 1.537.59 1.537 1.681 0 .532-.097.797-.29.797-.01 0-.063-.01-.16-.028a1.106 1.106 0 0 0-.318-.044c-.213 0-.363.044-.45.13-.077.087-.116.242-.116.464 0 .338.082.677.247 1.015.174.338.348.739.522 1.203.173.454.26 1.004.26 1.652 0 .174-.004.304-.014.391l1.304-.956c.174-.194.285-.358.334-.493a5.14 5.14 0 0 0 .188-.623c.077-.28.198-.6.362-.957.32-.744.503-1.193.551-1.348v-.043a.128.128 0 0 0 .014-.058c0-.097-.062-.174-.188-.232a1.768 1.768 0 0 0-.435-.16c-.154-.048-.328-.154-.521-.318a1.666 1.666 0 0 1-.42-.681c-.059-.174-.088-.43-.088-.769.02-.26.078-.492.174-.695.097-.203.189-.343.276-.42.087-.087.159-.131.217-.131.068 0 .12.039.16.116.048.068.144.164.29.29.154.116.38.222.68.319.764.174 1.145.637 1.145 1.391 0 .251-.062.469-.188.652-.126.174-.26.324-.406.45-.145.115-.227.212-.246.29a19.24 19.24 0 0 0-.696 2.637c-.145.792-.217 1.367-.217 1.725 0 .357-.024.666-.073.927-.048.251-.154.44-.319.565l-4.217 3.145a.26.26 0 0 1-.13.044c-.097 0-.145-.063-.145-.189l.145-2.29a.7.7 0 0 1 .304-.58l1.435-1.043a.569.569 0 0 0 .26-.478c0-.3-.057-.59-.173-.87a3.26 3.26 0 0 0-.392-.71c-.144-.203-.275-.483-.39-.84a4.026 4.026 0 0 1-.175-1.218Zm-7.478-2.927c0-.367.067-.691.203-.971.145-.29.285-.435.42-.435.058 0 .111.024.16.072a.717.717 0 0 1 .13.189c.039.068.13.145.275.232.145.087.329.164.551.232.3.067.546.222.74.463.192.232.289.546.289.942 0 .194-.029.377-.087.551a1.6 1.6 0 0 1-.174.406 3.44 3.44 0 0 0-.188.304.575.575 0 0 0-.073.247v.043c.329 1.971.493 3.222.493 3.754 0 .435-.077.874-.232 1.319-.154.434-.343.652-.565.652a.302.302 0 0 1-.232-.116.495.495 0 0 1-.087-.304c.106-2.976.16-4.764.16-5.363 0-.164-.049-.275-.145-.333-.097-.068-.252-.126-.464-.174a1.8 1.8 0 0 1-.55-.246c-.416-.29-.624-.764-.624-1.42v-.044Zm-3.131 0c0-.367.068-.691.203-.971.145-.29.285-.435.42-.435.059 0 .112.024.16.072a.717.717 0 0 1 .13.189c.04.068.131.145.276.232.145.087.328.164.55.232.3.067.547.222.74.463.193.232.29.546.29.942 0 .194-.03.377-.087.551a1.6 1.6 0 0 1-.174.406c-.068.097-.13.198-.189.304a.575.575 0 0 0-.072.247v.043c.328 1.971.493 3.222.493 3.754 0 .435-.078.874-.232 1.319-.155.434-.343.652-.566.652a.302.302 0 0 1-.231-.116.495.495 0 0 1-.087-.304c.106-2.976.16-4.764.16-5.363 0-.164-.05-.275-.146-.333-.096-.068-.251-.126-.464-.174a1.8 1.8 0 0 1-.55-.246c-.416-.29-.624-.764-.624-1.42v-.044Zm-.188 1.145a3.471 3.471 0 0 1-.348 1.493 3.915 3.915 0 0 1-.304.492 2.162 2.162 0 0 1-.29.334c-.087.067-.15.101-.188.101-.039 0-.082-.02-.13-.058a.274.274 0 0 1-.073-.203c0-.116.063-.285.188-.507.135-.222.203-.401.203-.536a.51.51 0 0 0-.217-.435 1.669 1.669 0 0 0-.508-.261 4.12 4.12 0 0 1-.608-.26c-.194-.107-.363-.286-.507-.537-.136-.251-.203-.58-.203-.986 0-.28.043-.516.13-.71.087-.203.17-.333.246-.391.087-.068.16-.101.218-.101a.22.22 0 0 1 .188.101.695.695 0 0 1 .116.203c.039.077.126.164.261.26.135.088.31.155.522.204.444.087.773.304.985.652.213.348.32.73.32 1.145ZM60.971 2.26c0-.212.048-.487.145-.825.097-.338.212-.507.348-.507.067 0 .14.067.217.202.087.194.3.324.638.392.338.067 1.038.101 2.101.101 1.276 0 2.17.334 2.681 1 .522.657.783 1.754.783 3.29 0 .425-.014.768-.043 1.029-.02.26-.078.57-.174.928a2.156 2.156 0 0 1-.493.898 2.676 2.676 0 0 1-.913.623c-.242.097-.594.184-1.058.261-.464.078-.86.164-1.189.261-.328.097-.545.242-.652.435-.067.106-.145.16-.232.16-.174 0-.27-.126-.29-.377 0-.822.687-1.455 2.059-1.9a7.41 7.41 0 0 1 .782-.202c.329-.068.57-.126.725-.174.164-.048.338-.135.522-.26a.95.95 0 0 0 .376-.551c.078-.252.116-.57.116-.957 0-.406-.048-.74-.145-1a1.327 1.327 0 0 0-.478-.652c-.232-.184-.54-.31-.927-.377-.387-.077-.885-.116-1.493-.116-.522 0-.942-.01-1.261-.029a7.603 7.603 0 0 1-.928-.116c-.309-.068-.54-.16-.695-.275a1.396 1.396 0 0 1-.377-.493c-.097-.203-.145-.459-.145-.768Zm1.333 2.755c0 .077-.082.323-.246.739-.155.405-.232.744-.232 1.014 0 .609.058 1.46.174 2.55.126 1.093.188 1.798.188 2.117 0 .483-.033.918-.101 1.304-.068.396-.15.705-.246.928a2.39 2.39 0 0 1-.305.565c-.106.155-.203.256-.29.304-.087.058-.154.087-.203.087-.067 0-.101-.087-.101-.26l.029-.464c.029-.3.044-.633.044-1 0-.136-.015-.899-.044-2.29a194.166 194.166 0 0 1-.043-2.464c0-.918.135-1.696.405-2.333.28-.648.56-.971.84-.971.088 0 .131.058.131.174Zm-1.739-1.522a3.484 3.484 0 0 1-.348 1.493 3.916 3.916 0 0 1-.304.492 2.162 2.162 0 0 1-.29.334c-.087.067-.15.101-.188.101-.039 0-.082-.02-.13-.058a.274.274 0 0 1-.073-.203c0-.116.063-.285.188-.507.136-.222.203-.401.203-.536a.51.51 0 0 0-.217-.435 1.669 1.669 0 0 0-.508-.261 4.12 4.12 0 0 1-.608-.26c-.193-.107-.362-.286-.507-.537-.136-.251-.203-.58-.203-.986 0-.28.043-.516.13-.71.087-.203.17-.333.246-.391.087-.068.16-.101.218-.101a.22.22 0 0 1 .188.101.696.696 0 0 1 .116.203c.039.077.126.164.261.26.135.088.31.155.522.204.444.087.773.304.985.652.213.348.32.73.32 1.145Zm-6.072-1.145c0-.367.067-.691.203-.971.145-.29.285-.435.42-.435.058 0 .111.024.16.072a.717.717 0 0 1 .13.189c.038.068.13.145.275.232.145.087.329.164.55.232.3.067.547.222.74.463.193.232.29.546.29.942 0 .194-.03.377-.087.551-.048.164-.106.3-.174.406a3.22 3.22 0 0 0-.188.304.575.575 0 0 0-.073.247v.043c.329 1.971.493 3.222.493 3.754 0 .435-.077.874-.232 1.319-.155.434-.343.652-.565.652a.302.302 0 0 1-.232-.116.495.495 0 0 1-.087-.304c.106-2.976.16-4.764.16-5.363 0-.164-.049-.275-.146-.333-.096-.068-.25-.126-.463-.174a1.8 1.8 0 0 1-.551-.246c-.416-.29-.623-.764-.623-1.42v-.044Zm-3.131 0c0-.367.068-.691.203-.971.145-.29.285-.435.42-.435.059 0 .112.024.16.072a.72.72 0 0 1 .13.189c.039.068.13.145.276.232.145.087.328.164.55.232.3.067.546.222.74.463.193.232.29.546.29.942 0 .194-.03.377-.087.551a1.6 1.6 0 0 1-.174.406c-.068.097-.13.198-.189.304a.575.575 0 0 0-.072.247v.043c.328 1.971.492 3.222.492 3.754 0 .435-.077.874-.231 1.319-.155.434-.343.652-.566.652a.302.302 0 0 1-.232-.116.494.494 0 0 1-.087-.304c.107-2.976.16-4.764.16-5.363 0-.164-.048-.275-.145-.333-.097-.068-.251-.126-.464-.174a1.8 1.8 0 0 1-.55-.246c-.416-.29-.624-.764-.624-1.42v-.044Zm-5.826 2.927c0-.222.015-.434.044-.637.038-.203.058-.324.058-.363 0-.145-.053-.246-.16-.304a.904.904 0 0 0-.377-.101c-.145-.01-.304-.078-.478-.203-.174-.126-.314-.32-.42-.58a2.283 2.283 0 0 1-.145-.826c0-.213.053-.478.16-.797.115-.329.255-.493.42-.493.087 0 .16.029.217.087a.72.72 0 0 1 .16.188c.038.068.135.136.29.203.154.068.352.107.594.116 1.024.03 1.536.59 1.536 1.681 0 .532-.097.797-.29.797-.01 0-.063-.01-.16-.028a1.106 1.106 0 0 0-.318-.044c-.213 0-.363.044-.45.13-.077.087-.115.242-.115.464 0 .338.082.677.246 1.015.174.338.348.739.522 1.203.174.454.26 1.004.26 1.652 0 .174-.004.304-.014.391l1.304-.956c.174-.194.285-.358.334-.493.058-.145.12-.353.188-.623.077-.28.198-.6.362-.957.32-.744.503-1.193.551-1.348v-.043a.128.128 0 0 0 .015-.058c0-.097-.063-.174-.189-.232a1.77 1.77 0 0 0-.435-.16c-.154-.048-.328-.154-.521-.318a1.666 1.666 0 0 1-.42-.681c-.059-.174-.088-.43-.088-.769.02-.26.078-.492.174-.695.097-.203.189-.343.276-.42.087-.087.16-.131.217-.131.068 0 .12.039.16.116.048.068.144.164.29.29.154.116.381.222.68.319.764.174 1.145.637 1.145 1.391 0 .251-.062.469-.188.652-.126.174-.26.324-.406.45-.145.115-.227.212-.246.29-.319.956-.55 1.835-.696 2.637-.145.792-.217 1.367-.217 1.725 0 .357-.024.666-.073.927-.048.251-.154.44-.319.565l-4.217 3.145a.26.26 0 0 1-.13.044c-.097 0-.145-.063-.145-.189l.145-2.29a.7.7 0 0 1 .304-.58l1.435-1.043a.569.569 0 0 0 .26-.478c0-.3-.057-.59-.173-.87a3.26 3.26 0 0 0-.392-.71c-.145-.203-.275-.483-.39-.84a4.026 4.026 0 0 1-.175-1.218Zm-2.464 4.667c0-1.188.063-2.74.189-4.652 0-.377-.13-.7-.391-.971a1.308 1.308 0 0 0-1-.42h-3.232c-.203 0-.44-.116-.71-.348-.261-.242-.392-.604-.392-1.087 0-.242.049-.556.145-.942.107-.396.237-.594.392-.594.048 0 .091.033.13.101l.13.232c.049.077.15.15.305.217.164.068.377.102.637.102h2.232c1.227 0 1.933.773 2.116 2.319l.29 4.695c0 .348-.043.73-.13 1.145-.087.406-.232.609-.435.609-.077 0-.145-.039-.203-.116a.538.538 0 0 1-.073-.29Zm-6.028-3.058c0-.55-.087-1.034-.261-1.45-.174-.415-.387-.719-.638-.912a2.65 2.65 0 0 0-.681-.435c-.213-.097-.392-.145-.536-.145-.628 0-1.073.74-1.334 2.217l-.029.13a.364.364 0 0 1-.043.088.182.182 0 0 1-.073.043.161.161 0 0 1-.072.015c-.145 0-.218-.082-.218-.247 0-.135.025-.41.073-.826.058-.425.164-1 .319-1.724.164-.725.357-1.392.58-2v-.015c.01-.01.014-.02.014-.029l.029-.058.058-.058a.227.227 0 0 1 .058-.043.365.365 0 0 1 .087-.044.477.477 0 0 1 .116-.014h.043c.512.048.962.237 1.348.565.387.319.676.681.87 1.087.203.406.367.865.492 1.377.126.512.203.932.232 1.26.03.33.044.624.044.885 0 1.092-.15 2.217-.45 3.377a.11.11 0 0 1-.014.043c0 .01-.01.034-.029.072a.765.765 0 0 1-.072.116.506.506 0 0 1-.13.087.593.593 0 0 1-.19.03h-5.652c-.202-.01-.333-.242-.39-.696-.059-.454-.088-1.46-.088-3.015 0-.676.194-1.43.58-2.26l.029-.088a.275.275 0 0 0 .014-.087c0-.115-.067-.193-.203-.231a1.306 1.306 0 0 1-.71-.508c-.193-.26-.29-.608-.29-1.043 0-.387.073-.715.218-.986.145-.28.285-.42.42-.42.058 0 .107.024.145.072a.717.717 0 0 1 .13.189.992.992 0 0 0 .29.232c.145.087.329.164.551.232.735.193 1.102.68 1.102 1.463 0 .271-.044.537-.13.798-.078.26-.184.39-.32.39-.029 0-.106-.014-.231-.043a1.093 1.093 0 0 0-.305-.058c-.135 0-.222.049-.26.145a3.313 3.313 0 0 0-.32 1.42c.01.61.039 1.078.087 1.406.049.32.107.527.174.624a.332.332 0 0 0 .29.145h4.899c.164-.01.265-.097.304-.261.048-.165.073-.435.073-.812ZM24.087 5.275c0-.222.015-.434.043-.637a2.92 2.92 0 0 0 .058-.363c0-.145-.053-.246-.159-.304a.904.904 0 0 0-.377-.101c-.145-.01-.304-.078-.478-.203-.174-.126-.314-.32-.42-.58a2.283 2.283 0 0 1-.145-.826c0-.213.053-.478.16-.797.115-.329.255-.493.42-.493.086 0 .159.029.217.087a.72.72 0 0 1 .16.188c.038.068.135.136.29.203.154.068.352.107.593.116 1.024.03 1.536.59 1.536 1.681 0 .532-.096.797-.29.797-.009 0-.062-.01-.159-.028a1.106 1.106 0 0 0-.319-.044c-.212 0-.362.044-.449.13-.077.087-.116.242-.116.464 0 .338.082.677.247 1.015.174.338.347.739.521 1.203.174.454.261 1.004.261 1.652a4.1 4.1 0 0 1-.014.391l1.304-.956c.174-.194.285-.358.333-.493a5.14 5.14 0 0 0 .189-.623c.077-.28.198-.6.362-.957.319-.744.503-1.193.55-1.348v-.043a.128.128 0 0 0 .015-.058c0-.097-.063-.174-.188-.232a1.768 1.768 0 0 0-.435-.16c-.155-.048-.328-.154-.522-.318a1.666 1.666 0 0 1-.42-.681c-.058-.174-.087-.43-.087-.769.02-.26.077-.492.174-.695.097-.203.188-.343.275-.42.087-.087.16-.131.218-.131.067 0 .12.039.16.116.047.068.144.164.29.29.154.116.38.222.68.319.763.174 1.145.637 1.145 1.391 0 .251-.063.469-.188.652a2.653 2.653 0 0 1-.406.45c-.145.115-.227.212-.246.29a19.24 19.24 0 0 0-.696 2.637c-.145.792-.218 1.367-.218 1.725 0 .357-.024.666-.072.927-.048.251-.154.44-.319.565l-4.217 3.145a.26.26 0 0 1-.13.044c-.097 0-.145-.063-.145-.189l.144-2.29a.7.7 0 0 1 .305-.58l1.434-1.043a.569.569 0 0 0 .261-.478c0-.3-.058-.59-.173-.87a3.26 3.26 0 0 0-.392-.71c-.145-.203-.275-.483-.391-.84a4.026 4.026 0 0 1-.174-1.218Zm-2.464 4.667c0-1.188.063-2.74.189-4.652 0-.377-.13-.7-.392-.971-.26-.28-.594-.42-1-.42h-3.232c-.203 0-.44-.116-.71-.348-.26-.242-.391-.604-.391-1.087 0-.242.048-.556.145-.942.106-.396.237-.594.391-.594.049 0 .092.033.13.101.04.068.083.145.131.232.048.077.15.15.304.217.165.068.377.102.638.102h2.232c1.227 0 1.932.773 2.116 2.319l.29 4.695c0 .348-.044.73-.13 1.145-.088.406-.232.609-.435.609-.078 0-.145-.039-.203-.116a.538.538 0 0 1-.073-.29ZM9.84 2.26c0-.212.049-.487.146-.825.106-.338.227-.507.362-.507.067 0 .135.067.203.202.164.32.821.479 1.97.479.61 0 1.117.101 1.522.304.406.193.725.507.957.942.232.425.391.932.478 1.522.097.58.145 1.304.145 2.174 0 .29-.01.69-.029 1.203 0 .135.073.203.218.203h.232c.173 0 .26.062.26.188 0 .039-.01.082-.029.13l-.695 1.696c-.068.203-.218.304-.45.304H9.71c-.183 0-.275-.067-.275-.203 0-.019.01-.057.029-.115l.695-1.696c.087-.203.237-.304.45-.304h4.362a.377.377 0 0 0 .116-.015.14.14 0 0 0 .072-.058.26.26 0 0 0 .044-.16v-.217a8.34 8.34 0 0 0-.072-1.16 3.92 3.92 0 0 0-.189-.883 2.395 2.395 0 0 0-.304-.652 1.77 1.77 0 0 0-.406-.435 1.497 1.497 0 0 0-.507-.276 3.181 3.181 0 0 0-.58-.144 4.537 4.537 0 0 0-.667-.044c-.319 0-.58-.005-.782-.014A4.166 4.166 0 0 1 11 3.797a1.982 1.982 0 0 1-.623-.26A1.446 1.446 0 0 1 10 3.042a1.796 1.796 0 0 1-.16-.782Zm-3.376.088c0-.367.067-.691.203-.971.145-.29.285-.435.42-.435.058 0 .111.024.16.072a.718.718 0 0 1 .13.189c.038.068.13.145.275.232.145.087.329.164.55.232.3.067.547.222.74.463.193.232.29.546.29.942 0 .194-.03.377-.087.551-.048.164-.106.3-.174.406a3.22 3.22 0 0 0-.188.304.575.575 0 0 0-.073.247v.043c.329 1.971.493 3.222.493 3.754 0 .435-.077.874-.232 1.319-.155.434-.343.652-.565.652a.302.302 0 0 1-.232-.116.494.494 0 0 1-.087-.304c.106-2.976.16-4.764.16-5.363 0-.164-.049-.275-.146-.333-.096-.068-.25-.126-.463-.174a1.8 1.8 0 0 1-.551-.246c-.415-.29-.623-.764-.623-1.42v-.044ZM.522.928c.048 0 .092.033.13.101.048.068.092.145.13.232.049.077.155.15.32.217.164.068.376.102.637.102h3.45c.386 0 .647.101.782.304.135.203.203.507.203.913 0 .647-.242 1.01-.725 1.087-.116.02-.174.087-.174.203l.015.217c.01.174.063.938.16 2.29a2387.048 2387.048 0 0 1 .449 5.826c0 .445-.092.884-.276 1.32-.174.444-.377.666-.608.666-.145 0-.218-.145-.218-.435l.015-9.87c0-.135-.073-.202-.218-.202H1.101c-.212 0-.449-.116-.71-.348C.131 3.309 0 2.942 0 2.449c0-.25.048-.565.145-.942.106-.386.232-.58.377-.58Z"/></svg>