<svg xmlns="http://www.w3.org/2000/svg" width="118" height="17"><path fill="#4D4D4D" d="M111.998 16.547c-1.641 0-2.936-.52-3.887-1.558-.95-1.046-1.425-2.468-1.425-4.266s.475-3.216 1.425-4.255c.951-1.04 2.246-1.559 3.887-1.559 1.647 0 2.942.52 3.886 1.559.95 1.039 1.425 2.457 1.425 4.255s-.475 3.22-1.425 4.266c-.95 1.039-2.246 1.558-3.886 1.558Zm0-.635c.909 0 1.664-.49 2.266-1.467.601-.984.902-2.225.902-3.722 0-1.483-.301-2.717-.902-3.702-.602-.99-1.357-1.486-2.266-1.486-.903 0-1.655.495-2.256 1.486-.602.985-.903 2.219-.903 3.702 0 1.497.298 2.738.892 3.722.602.978 1.357 1.467 2.267 1.467Zm-11.07-7.722v5.445c0 .923.079 1.477.236 1.661.164.185.656.301 1.477.349l.441.01v.636h-6.07v-.636l.194-.01c.827-.055 1.316-.17 1.466-.349.158-.184.236-.738.236-1.66V7.81c0-.923-.078-1.473-.236-1.65-.15-.179-.639-.298-1.466-.36l-.195-.01v-.636h3.917v2.092c.923-1.559 2.13-2.338 3.62-2.338.205 0 .434.038.687.113v3.045h-1.138l-.011-.184c-.075-.636-.143-1.012-.205-1.128-.054-.123-.208-.185-.461-.185-1.012 0-1.842.54-2.492 1.62Zm-7.593 6.573c-1.203 1.19-2.393 1.784-3.568 1.784-.944 0-1.73-.297-2.359-.892-.629-.601-.943-1.353-.943-2.256 0-1.052.41-1.907 1.23-2.563.937-.752 2.523-1.128 4.758-1.128h.42V8.324c0-1.757-.666-2.636-1.999-2.636-.622 0-1.172.192-1.65.575-.281.232-.459.707-.534 1.425l-.01.195h-1.374v-2.04c1.422-.623 2.74-.934 3.958-.934 2.42 0 3.63 1.111 3.63 3.333v4.962c0 .89.075 1.515.225 1.877.157.362.427.543.81.543.137 0 .318-.03.544-.092l.061.759c-.485.17-.92.256-1.302.256-.998 0-1.63-.594-1.897-1.784Zm-.461-.226v-4.193h-.472c-1.19 0-2.12.246-2.79.738-.67.492-1.004 1.169-1.004 2.03 0 .643.208 1.176.625 1.6.417.424.937.636 1.559.636.588 0 1.282-.27 2.082-.81Zm-8.055 1.693c-.513.211-1.002.317-1.466.317-1.183 0-2.048-.297-2.595-.892-.54-.595-.81-1.541-.81-2.84v-6.83h-1.64v-.83h1.64v-2.02l2.03-.502v2.522h3.097v.83h-3.097v7.096c0 .958.127 1.638.38 2.041s.683.605 1.292.605c.321 0 .71-.106 1.169-.318v.82ZM72.683 8.19v5.445c0 .923.079 1.477.236 1.661.164.185.656.301 1.477.349l.44.01v.636h-6.07v-.636l.195-.01c.827-.055 1.316-.17 1.466-.349.157-.184.236-.738.236-1.66V7.81c0-.923-.078-1.473-.236-1.65-.15-.179-.639-.298-1.466-.36l-.195-.01v-.636h3.917v2.092c.923-1.559 2.13-2.338 3.62-2.338.205 0 .434.038.687.113v3.045h-1.138l-.01-.184c-.076-.636-.144-1.012-.206-1.128-.054-.123-.208-.185-.461-.185-1.012 0-1.843.54-2.492 1.62ZM62.27 16.547c-1.64 0-2.936-.52-3.886-1.558-.95-1.046-1.425-2.468-1.425-4.266s.475-3.216 1.425-4.255c.95-1.04 2.246-1.559 3.886-1.559 1.648 0 2.943.52 3.886 1.559.95 1.039 1.426 2.457 1.426 4.255s-.475 3.22-1.425 4.266c-.95 1.039-2.246 1.558-3.887 1.558Zm0-.635c.91 0 1.665-.49 2.266-1.467.602-.984.903-2.225.903-3.722 0-1.483-.301-2.717-.903-3.702-.601-.99-1.357-1.486-2.266-1.486-.902 0-1.654.495-2.256 1.486-.601.985-.902 2.219-.902 3.702 0 1.497.297 2.738.892 3.722.602.978 1.357 1.467 2.266 1.467Zm-12.31.502-3.61-8.531c-.375-.896-.649-1.46-.82-1.692a.849.849 0 0 0-.666-.39l-.174-.01v-.636h4.83v.636h-.196c-.888 0-1.34.147-1.353.44-.007.103.202.66.625 1.672l2.513 5.937 2.584-5.926c.41-.937.615-1.494.615-1.672 0-.3-.414-.451-1.24-.451h-.226v-.636h3.301v.636l-.215.01c-.253.02-.448.106-.584.257-.123.136-.428.755-.913 1.856l-3.845 8.5h-.626ZM42.736 5.155v8.48c0 .93.075 1.484.226 1.661.15.178.646.294 1.486.349l.195.01v.636H38.82v-.636l.195-.01c.827-.055 1.316-.17 1.466-.349.158-.184.236-.738.236-1.66V7.81c0-.923-.078-1.473-.236-1.65-.15-.179-.639-.298-1.466-.36l-.195-.01v-.636h3.917Zm-2.02-2.02v-2.02h2.02v2.02h-2.02Zm-10.362 7.68v2.82c0 .916.069 1.47.205 1.661.144.185.56.301 1.251.349l.195.01v.636h-5.568v-.636l.195-.01c.827-.055 1.316-.17 1.466-.349.158-.184.236-.738.236-1.66V2.755c0-.923-.078-1.473-.236-1.651C27.948.92 27.46.8 26.632.746l-.195-.01V.1h3.917v10.213h.482L33.42 7.83c1.108-1.127 1.661-1.732 1.661-1.814 0-.13-.188-.199-.564-.206-.376-.013-.635-.02-.779-.02h-.215v-.636h4.337v.636l-.195.01c-.724.048-1.19.137-1.394.267-.199.123-.838.718-1.918 1.784l-1.948 1.917 3.343 3.928c.848.957 1.377 1.514 1.59 1.671.218.15.594.243 1.127.277l.195.01v.636h-3.127l-4.697-5.476h-.482Zm-6.25-5.66v8.48c0 .93.075 1.484.226 1.661.15.178.646.294 1.487.349l.195.01v.636h-5.825v-.636l.195-.01c.827-.055 1.316-.17 1.466-.349.158-.184.236-.738.236-1.66V7.81c0-.923-.078-1.473-.236-1.65-.15-.179-.639-.298-1.466-.36l-.195-.01v-.636h3.917Zm-2.02-2.02v-2.02h2.02v2.02h-2.02ZM5.765 16.486 2.525 3.832c-.308-1.162-.506-1.797-.595-1.907-.089-.11-.461-.164-1.118-.164l-.215-.02v-.626h5.435v.626h-.195c-.663 0-1.084.034-1.261.102-.178.069-.267.226-.267.472 0 .225.1.731.297 1.517l2.246 8.83L10.348 1.3h.718l3.497 11.679 2.625-9.136c.294-1.04.44-1.62.44-1.743 0-.24-.532-.36-1.599-.36h-.184v-.625h4.173v.626l-.185.02c-.731.041-1.138.106-1.22.195-.075.089-.29.714-.646 1.876l-3.712 12.654h-.687L9.99 4.806l-3.517 11.68h-.708Z"/></svg>