<svg xmlns="http://www.w3.org/2000/svg" width="92.811" height="29.004" version="1.0" viewBox="0 0 222.75 69.61"><path fill="#4d4d4d" d="m220.23 57.22-.814-.26V31.39c0-1.78-.278-3.09-.833-3.941-.555-.851-2.07-1.47-4.533-1.87-3.75-.616-5.63-2.49-5.625-5.624 0-2.27.715-4.08 2.146-5.44h1c.196 1.53 1.22 2.45 3.07 2.775l3.11.481c1.73.271 2.99.938 3.793 1.999.802 1.06 1.2 3.17 1.202 6.328v26.534c0 2.2-.839 3.73-2.516 4.589zm-23.314-18.393-1.036-1.184c2.62-1.95 3.92-4.66 3.923-8.142 0-2.49-1.84-3.81-5.514-3.96-4.1-.148-6.14-1.89-6.144-5.218 0-1.73.58-3.66 1.74-5.81h.999c.247 1.68 1.37 2.6 3.367 2.776l3.368.222c3.31.247 4.96 2.53 4.959 6.846v2.776c0 5.85-1.89 9.75-5.662 11.694zm-18.763 2.294-8.142 5.403c-1.92 1.28-2.89 3.16-2.886 5.625 0 .296.025.728.074 1.296.025.592.037 1.04.037 1.332 0 1.7-.851 2.55-2.554 2.554-1.5 0-2.26-.962-2.257-2.887 0-4.1 2.13-7.57 6.402-10.436l7.069-4.737c1.92-1.28 2.89-3.22 2.886-5.81v-2.665c0-2.12-.487-3.52-1.462-4.2-.975-.678-2.51-1.02-4.607-1.017h-13.767c-3.58 0-5.37-1.55-5.366-4.663 0-2.29.752-4.32 2.257-6.07h.962c.395 1.73 1.63 2.59 3.701 2.59h12.545c3.18.001 5.48.76 6.902 2.277 1.42 1.52 2.13 4.16 2.128 7.938v3.59c0 2.57-.26 4.59-.777 6.069-.518 1.48-1.57 2.75-3.146 3.811zM154.95 69.616l-.777-.296V37.494c0-2.15.888-4 2.664-5.55h.63v34.934c0 .84-.84 1.75-2.517 2.739zm-14.285-30.79-1.036-1.184c2.62-1.95 3.92-4.66 3.923-8.141 0-2.49-1.84-3.81-5.514-3.96-4.1-.148-6.14-1.89-6.144-5.218 0-1.73.58-3.66 1.74-5.81h.999c.247 1.68 1.37 2.6 3.367 2.775l3.368.222c3.31.247 4.96 2.53 4.959 6.847v2.775c0 5.85-1.89 9.75-5.662 11.694zm-16.209 11.361-1.258 6.329H104.73l1.776-7.55h15.654c.715-2.69 1.07-5.95 1.073-9.77.025-3.8-.746-6.87-2.313-9.214-1.57-2.34-3.81-3.5-6.716-3.48-3.9 0-7.51 2.47-10.825 7.42-3.32 4.95-5 12.5-5.052 22.594h-2.48a42.15 42.15 0 0 1-.147-3.22c0-10.3 2.86-18.5 8.585-24.832 0-.937-.247-1.61-.74-2.017-.493-.407-1.64-.808-3.442-1.202-3.11-.666-4.66-2.32-4.663-4.96 0-2.02.518-3.95 1.555-5.772h.999c.444 1.51 1.39 2.37 2.85 2.59l2.294.333c2.07.296 3.11 1.34 3.109 3.146 0 .345-.05.864-.149 1.554-.123.716-.185 1.25-.185 1.591 0 1.01.382 1.76 1.148 2.258 4.1-2.29 6.33-5.3 6.698-9.03 3.97.666 6.98 2.9 9.011 6.698 2.04 3.8 3.05 8.71 3.053 14.73 0 3.36-.456 7.29-1.369 11.804zm-40.93-11.36-1.036-1.185c2.62-1.95 3.92-4.66 3.923-8.141 0-2.49-1.84-3.81-5.514-3.96-4.1-.148-6.14-1.89-6.144-5.218 0-1.73.58-3.66 1.74-5.81h.999c.247 1.68 1.37 2.6 3.367 2.775l3.368.222c3.31.247 4.96 2.53 4.959 6.847v2.775c0 5.85-1.89 9.75-5.662 11.694zm-16.653-.37-7.031 7.882c-1.7 1.9-2.55 3.76-2.554 5.588 0 .296.037.74.111 1.332.099.592.148 1.04.148 1.332 0 1.83-.827 2.74-2.48 2.739-1.65 0-2.48-1.02-2.479-3.072 0-2.89 1.83-6.2 5.477-9.955l5.403-5.588c1.53-1.58 2.29-3.63 2.295-6.143v-2.22c0-1.92-.463-3.2-1.388-3.83-.925-.63-2.74-.944-5.459-.944H48.184c-3.85 0-5.77-1.71-5.773-5.144 0-2.2.456-4.69 1.37-7.476l1.073-3.145c.173-.567.259-.987.259-1.258 0-.715-.444-1.3-1.332-1.74l-2.073-.999c-1.06-.518-1.59-1.25-1.591-2.183 0-1.16.432-2.37 1.295-3.627h.925c.123.765.641 1.33 1.554 1.702l1.407.556c1.55.617 2.33 1.57 2.331 2.849 0 .247-.37 1.76-1.11 4.552l-.518 1.887c-.345 1.31-.518 2.27-.518 2.887 0 .962.259 1.7.777 2.22.518.518 1.71.777 3.59.777h12.064c2.29 0 4.05.555 5.273 1.666 1.22 1.11 1.83 3.82 1.832 8.141v3.997c0 3.21-.716 5.61-2.146 7.216zM32.678 57.218l-.814-.259V31.388c0-1.78-.278-3.09-.833-3.941-.555-.851-2.07-1.47-4.533-1.869-3.75-.617-5.63-2.49-5.625-5.625 0-2.27.715-4.08 2.146-5.44h1c.196 1.53 1.22 2.45 3.07 2.776l3.11.48c1.73.272 2.99.939 3.793 2 .802 1.06 1.2 3.17 1.202 6.327V52.63c0 2.2-.839 3.73-2.516 4.59zM9.586 69.616l-.703-.296V36.532c.05-1.75.728-3.81 2.035-6.18.518-.937.777-1.78.777-2.516 0-1.26-1.46-1.96-4.366-2.11-4.88-.222-7.33-1.99-7.328-5.292 0-2.29.666-4.27 1.999-5.921h.999c.296 1.78 1.42 2.73 3.367 2.85l2.998.148c3.77.222 5.66 2.25 5.662 6.069 0 .814-.493 2.67-1.48 5.57-.987 2.9-1.39 6.06-1.221 9.492l1.184 21.205c.296 5.4-1.01 8.66-3.923 9.77z"/></svg>