<svg xmlns="http://www.w3.org/2000/svg" width="120" height="10" fill="none"><path fill="gray" d="M.054.97.127.6H3.66l-.073.37-.115.012-.412.024c-.259.02-.438.101-.54.243-.1.137-.2.444-.297.921L1.46 6.008c-.186.93-.283 1.535-.291 1.818-.008.283.058.552.2.807.29.509.826.763 1.606.763.732 0 1.362-.222 1.892-.667.295-.25.509-.527.642-.83.138-.303.285-.845.443-1.625L6.77 2.17l.079-.6c.032-.23.022-.378-.03-.442-.049-.065-.186-.106-.413-.122L5.995.982 5.892.97 5.965.6h2.873l-.072.37-.122.012-.412.024c-.259.02-.438.101-.54.243-.096.137-.194.444-.29.921L6.65 5.93c-.166.832-.334 1.443-.503 1.83-.17.389-.429.75-.776 1.086-.651.634-1.532.951-2.643.951C.517 9.796-.35 8.602.127 6.214L.933 2.17l.085-.6c.028-.23.018-.378-.03-.442C.939 1.063.8 1.022.569 1.006L.163.982.054.97Zm16.307 8.602.249-1.237c-.772.926-1.635 1.389-2.589 1.389-.743 0-1.277-.293-1.6-.88-.323-.59-.386-1.38-.188-2.37.222-1.099.65-1.978 1.285-2.637.639-.662 1.376-.994 2.213-.994.768 0 1.366.3 1.794.897l.437-2.17c.097-.477.123-.784.079-.921-.045-.142-.192-.22-.443-.237l-.406-.03-.115-.006.078-.376h2.322l-1.6 8.002c-.097.477-.125.786-.085.928.044.137.196.214.455.23l.4.03.109.006-.073.376h-2.322Zm1.073-5.365c-.529-.465-1.089-.697-1.679-.697-1.107 0-1.837.879-2.188 2.637-.372 1.867-.02 2.8 1.054 2.8.332 0 .694-.096 1.086-.29a3.25 3.25 0 0 0 .988-.74l.74-3.71Zm5.341-1.218-1 5.013c-.097.477-.123.786-.079.928.044.137.194.214.449.23l.406.03.109.006-.073.376h-3.443l.073-.376.12-.006.413-.03c.235-.016.39-.055.467-.115.077-.065.145-.212.206-.443l.158-.6.685-3.443.085-.594c.028-.23.018-.378-.03-.443-.05-.065-.189-.105-.42-.121l-.4-.03-.114-.006.072-.376h2.316Zm-.952-1.195L22.06.6h1.194l-.236 1.194h-1.195Zm1.728 7.778.073-.376 5.34-5.832h-2.151l-.582.007c-.263 0-.437.03-.522.09-.085.057-.15.192-.194.407a5.69 5.69 0 0 1-.097.436l-.03.127h-.637l.285-1.442h5.39l-.073.376-5.274 5.759h2.406l.746-.03c.331 0 .525-.146.582-.437l.091-.455.036-.145h.637l-.303 1.515H23.55Zm7.396 0 .073-.376 5.34-5.832h-2.152l-.582.007c-.262 0-.436.03-.52.09-.086.057-.15.192-.195.407-.032.17-.065.315-.097.436l-.03.127h-.637l.285-1.442h5.39l-.073.376-5.274 5.759h2.406l.746-.03c.331 0 .525-.146.582-.437l.09-.455.037-.145h.637l-.303 1.515h-5.723ZM41.374 2.99l-1 5.013c-.097.477-.124.786-.08.928.045.137.195.214.45.23l.406.03.109.006-.073.376h-3.443l.072-.376.122-.006.412-.03c.234-.016.39-.055.467-.115.076-.065.145-.212.206-.443l.157-.6.685-3.443.085-.594c.029-.23.018-.378-.03-.443-.049-.065-.188-.105-.418-.121l-.4-.03-.116-.006.073-.376h2.316Zm-.952-1.195L40.658.6h1.195l-.237 1.194h-1.194Zm6.214 7.778.248-1.237c-.792.926-1.675 1.389-2.649 1.389-.566 0-.974-.186-1.224-.558-.247-.376-.306-.89-.176-1.54l.612-3.067.085-.594c.028-.23.018-.378-.03-.443-.049-.065-.188-.105-.419-.121l-.4-.03-.115-.006.073-.376h2.316l-.892 4.45c-.202 1.01.057 1.515.776 1.515.66 0 1.366-.34 2.122-1.019l.673-3.376.085-.594c.032-.235.022-.382-.03-.443-.049-.065-.188-.105-.419-.121l-.406-.03-.109-.006.073-.376h2.316l-1 5.013-.08.6c-.032.23-.024.378.025.443.052.06.194.099.424.115l.406.03.11.006-.073.376h-2.322Zm6.153-5.347c.792-.921 1.677-1.382 2.655-1.382.566 0 .972.186 1.219.558.246.372.305.883.175 1.534l-.612 3.067-.079.6c-.032.23-.024.378.025.443.052.06.194.099.424.115l.406.03.103.006-.073.376h-3.437l.073-.376.115-.006.418-.03c.23-.016.384-.055.461-.115.08-.065.152-.212.212-.443l.158-.6.576-2.88c.113-.565.117-.957.012-1.176-.101-.222-.34-.333-.715-.333-.542 0-1.273.338-2.195 1.012l-.673 3.377c-.097.477-.123.786-.079.928.045.137.194.214.449.23l.406.03.11.006-.074.376h-3.443l.073-.376.121-.006.412-.03c.235-.016.39-.055.467-.115.077-.065.146-.212.206-.443l.158-.6.685-3.443.085-.594c.028-.23.018-.378-.03-.443-.049-.065-.188-.105-.419-.121l-.4-.03-.115-.006.073-.376h2.315l-.248 1.236Zm9.1 4.444c-.854.703-1.628 1.055-2.323 1.055-.557 0-.988-.176-1.29-.528-.3-.355-.397-.8-.292-1.333.291-1.455 1.617-2.183 3.977-2.183h.248l.164-.818c.21-1.039-.079-1.558-.867-1.558-.784 0-1.293.394-1.527 1.182l-.03.115h-.813l.242-1.206c.914-.368 1.726-.552 2.437-.552 1.44 0 2.027.657 1.765 1.97l-.588 2.934c-.19.954-.081 1.431.327 1.431.077 0 .188-.018.333-.054l-.054.448a2.633 2.633 0 0 1-.807.152c-.586 0-.887-.352-.903-1.055Zm-.25-.133.498-2.48h-.28c-1.495 0-2.351.546-2.57 1.637-.076.38-.018.695.176.946.194.25.475.375.843.375.352 0 .796-.16 1.334-.478Zm5.638-3.753-.642 3.219c-.097.477-.123.786-.079.928.044.137.194.214.449.23l.406.03.254.006-.072.376h-3.59l.074-.376.12-.006.413-.03c.234-.016.39-.055.467-.115.077-.065.145-.212.206-.443l.158-.6.685-3.443.084-.594c.029-.23.019-.378-.03-.443-.048-.065-.188-.105-.418-.121l-.4-.03-.115-.006.072-.376h2.316l-.249 1.236c.732-.921 1.538-1.382 2.42-1.382.12 0 .252.022.393.067l-.363 1.8h-.673l.012-.109.036-.454c.025-.215-.062-.322-.26-.322-.603 0-1.16.32-1.674.958Zm5.814-1.794-1 5.013c-.097.477-.123.786-.079.928.044.137.194.214.449.23l.406.03.109.006-.073.376H69.46l.073-.376.12-.006.413-.03c.234-.016.39-.055.467-.115.077-.065.145-.212.206-.443l.157-.6.686-3.443.084-.594c.029-.23.019-.378-.03-.443-.048-.065-.188-.105-.418-.121l-.4-.03-.115-.006.072-.376h2.316Zm-.952-1.195L72.376.6h1.194l-.236 1.194h-1.195Zm6.214 7.778.249-1.237c-.793.926-1.676 1.389-2.65 1.389-.565 0-.974-.186-1.224-.558-.247-.376-.305-.89-.176-1.54l.612-3.067.085-.594c.029-.23.018-.378-.03-.443-.049-.065-.188-.105-.418-.121l-.4-.03-.116-.006.073-.376h2.316l-.891 4.45c-.202 1.01.056 1.515.776 1.515.658 0 1.366-.34 2.121-1.019l.673-3.376.085-.594c.032-.235.022-.382-.03-.443-.049-.065-.188-.105-.418-.121l-.407-.03-.109-.006.073-.376h2.316l-1 5.013-.08.6c-.032.23-.024.378.025.443.052.06.194.099.424.115l.406.03.11.006-.073.376h-2.322ZM89.138 0l-1.6 8.002c-.098.477-.124.786-.08.928.045.137.194.214.449.23l.406.03.11.006-.073.376h-3.444l.073-.376.121-.006.412-.03c.235-.016.39-.055.467-.115.077-.065.146-.212.206-.443l.158-.6 1.285-6.432.085-.6c.028-.23.016-.376-.036-.437-.049-.064-.188-.105-.419-.12l-.4-.031-.115-.006.079-.376h2.316Zm3.303 2.989-1 5.013c-.097.477-.123.786-.079.928.045.137.194.214.449.23l.406.03.11.006-.073.376H88.81l.073-.376.121-.006.412-.03c.235-.016.39-.055.467-.115.077-.065.146-.212.206-.443l.158-.6.685-3.443.085-.594c.028-.23.018-.378-.03-.443-.049-.065-.188-.105-.419-.121l-.4-.03-.115-.006.073-.376h2.315Zm-.951-1.195L91.726.6h1.194l-.236 1.194H91.49Zm1.86 7.85 1.613-8.074.085-.6c.028-.23.016-.376-.036-.437-.049-.064-.188-.105-.418-.12l-.4-.031-.116-.006.079-.376h2.316l-.849 4.225c.78-.921 1.645-1.382 2.595-1.382.743 0 1.277.293 1.6.88.323.585.386 1.373.188 2.363-.218 1.1-.647 1.98-1.285 2.643-.639.663-1.376.995-2.213.995-.772 0-1.372-.3-1.8-.898h-.073l-.315.819h-.97Zm1.45-1.29c.541.468 1.103.703 1.685.703 1.103 0 1.83-.881 2.182-2.643.376-1.867.029-2.801-1.042-2.801-.72 0-1.413.344-2.08 1.03l-.745 3.71Zm10.032.315c-.852.703-1.626 1.055-2.321 1.055-.558 0-.988-.176-1.292-.528-.299-.355-.396-.8-.291-1.333.291-1.455 1.617-2.183 3.977-2.183h.249l.163-.818c.211-1.039-.078-1.558-.866-1.558-.784 0-1.294.394-1.528 1.182l-.03.115h-.813l.243-1.206c.913-.368 1.725-.552 2.437-.552 1.438 0 2.027.657 1.764 1.97l-.588 2.934c-.19.954-.081 1.431.327 1.431.077 0 .188-.018.334-.054l-.055.448a2.632 2.632 0 0 1-.806.152c-.586 0-.887-.352-.904-1.055Zm-.248-.133.497-2.48h-.279c-1.495 0-2.352.546-2.57 1.637-.077.38-.018.695.176.946.194.25.474.375.842.375.352 0 .796-.16 1.334-.478Zm5.638-3.753-.643 3.219c-.097.477-.123.786-.079.928.045.137.194.214.449.23l.406.03.255.006-.073.376h-3.589l.073-.376.121-.006.412-.03c.235-.016.39-.055.467-.115.077-.065.146-.212.206-.443l.158-.6.685-3.443.085-.594c.028-.23.018-.378-.031-.443-.048-.065-.187-.105-.418-.121l-.4-.03-.115-.006.073-.376h2.315l-.248 1.236c.731-.921 1.538-1.382 2.419-1.382.121 0 .252.022.394.067l-.364 1.8h-.673l.012-.109.037-.454c.024-.215-.063-.322-.261-.322-.602 0-1.16.32-1.673.958Zm7.268 4.79.249-1.238c-.792.926-1.675 1.389-2.649 1.389-.566 0-.974-.186-1.225-.558-.246-.376-.305-.89-.176-1.54l.613-3.067.084-.594c.029-.23.019-.378-.03-.443-.048-.065-.188-.105-.418-.121l-.4-.03-.115-.006.072-.376h2.316l-.891 4.45c-.202 1.01.056 1.515.776 1.515.659 0 1.366-.34 2.122-1.019l.673-3.376.084-.594c.033-.235.023-.382-.03-.443-.048-.065-.188-.105-.418-.121l-.406-.03-.109-.006.072-.376H120l-1 5.013-.079.6c-.032.23-.024.378.024.443.053.06.194.099.425.115l.406.03.109.006-.073.376h-2.322Z"/></svg>