<svg xmlns="http://www.w3.org/2000/svg" width="120" height="11"><path fill="gray" d="M11.944 3.717c-.84 0-1.6.313-2.26.938-.661.62-1.086 1.426-1.282 2.407-.208 1.029-.073 1.866.396 2.51.472.645 1.179.97 2.136.97.62 0 1.343-.152 2.156-.449l.115-.604c-.577.3-1.226.448-1.959.448-1.405 0-1.909-1.027-1.5-3.073h3.98l.031-.115c.196-.973.135-1.715-.177-2.24-.313-.524-.855-.792-1.636-.792Zm-.156.365c.833 0 1.111.717.823 2.146l-.063.271H9.85c.144-.733.391-1.324.74-1.76.352-.437.75-.657 1.198-.657ZM23.56.904l-.083.376h.115l.406.03c.248.017.393.09.438.23.044.136.012.444-.084.917l-.427 2.156c-.425-.592-1.02-.896-1.782-.896-.829 0-1.555.333-2.187.99-.63.653-1.051 1.526-1.271 2.615-.197.981-.144 1.76.177 2.344.32.58.857.875 1.594.875.945 0 1.798-.458 2.563-1.375l-.25 1.22h2.302l.073-.376h-.104l-.396-.031c-.256-.016-.414-.093-.458-.23-.04-.14-.013-.444.083-.916L25.863.904H23.56Zm-1.385 3.48c.584 0 1.132.227 1.656.688l-.729 3.677c-.26.293-.587.533-.98.73-.388.192-.744.291-1.072.291-1.066 0-1.421-.931-1.053-2.781.349-1.742 1.08-2.605 2.178-2.605Zm6.952-.521-.992 4.968c-.096.473-.122.779-.078.92.044.135.192.211.445.227l.402.03.108.007-.072.372h-3.412l.072-.373.12-.005.409-.03c.232-.017.386-.055.462-.115.077-.064.145-.21.205-.438l.156-.595.679-3.412.084-.588c.028-.229.018-.375-.03-.439s-.186-.104-.415-.12l-.396-.03-.114-.006.072-.373h2.294Zm-.944-1.183.235-1.183H29.6l-.234 1.183h-1.184Zm6.572 7.485c-.673.248-1.308.372-1.904.372-.953 0-1.662-.318-2.127-.955-.464-.637-.594-1.466-.39-2.487.2-1.017.646-1.834 1.34-2.45a3.559 3.559 0 0 1 2.444-.926c.5 0 1.123.098 1.868.295l-.312 1.555h-.739l.018-.108c.18-.897-.12-1.345-.9-1.345-.582 0-1.094.26-1.539.78-.44.521-.75 1.226-.93 2.115-.181.909-.123 1.626.173 2.15.297.525.79.787 1.478.787.593 0 1.135-.1 1.628-.3l-.108.517Zm4.932.185a2.521 2.521 0 0 1-.895.187c-.693 0-1.164-.174-1.412-.523-.248-.348-.297-.903-.144-1.663l.799-4.001h-.961l.096-.487h.96l.241-1.183 1.243-.294-.294 1.477h1.814l-.096.487h-1.814l-.829 4.157c-.124.604-.14 1.015-.048 1.231.096.212.334.319.715.319.188 0 .428-.063.72-.187l-.095.48ZM44 3.863l-.992 4.968c-.096.473-.122.779-.078.92.044.135.193.211.445.227l.402.03.108.007-.072.372h-3.412l.072-.373.12-.005.41-.03c.231-.017.386-.055.462-.115.076-.064.144-.21.204-.438l.156-.595.679-3.412.084-.588c.028-.229.018-.375-.03-.439s-.186-.104-.415-.12l-.396-.03-.114-.006.072-.373h2.294Zm-.944-1.183.235-1.183h1.183L44.24 2.68h-1.184Zm5.935 1.037c-.96 0-1.778.309-2.458.917-.677.609-1.126 1.437-1.334 2.49-.212 1.045-.105 1.873.323 2.49.433.613 1.122.927 2.063.927.985 0 1.82-.301 2.5-.906.681-.609 1.132-1.452 1.344-2.521.208-1.045.093-1.871-.344-2.48-.432-.608-1.133-.917-2.094-.917Zm-.073.365c.529 0 .91.295 1.146.875.24.577.277 1.296.105 2.157-.177.889-.5 1.615-.97 2.188-.468.572-.972.864-1.52.864-.521 0-.904-.294-1.136-.875-.232-.58-.26-1.302-.083-2.167.172-.869.5-1.59.969-2.167.468-.58.96-.875 1.49-.875Zm6.032 1.007c.785-.913 1.662-1.37 2.631-1.37.56 0 .963.184 1.207.553.245.368.303.875.175 1.52l-.607 3.04-.078.594c-.032.228-.024.374.024.438.052.06.192.098.42.114l.403.03.102.006-.072.373h-3.406l.072-.373.114-.006.415-.03c.228-.016.38-.054.456-.114.08-.064.15-.21.21-.438l.157-.595.57-2.853c.112-.56.116-.95.012-1.166-.1-.22-.336-.33-.709-.33-.536 0-1.261.334-2.174 1.003l-.667 3.346c-.096.473-.122.779-.078.92.044.135.192.211.445.227l.402.03.108.006-.072.373h-3.412l.072-.373.12-.006.409-.03c.232-.016.386-.054.462-.114.076-.064.145-.21.205-.438l.156-.595.679-3.412.084-.589c.028-.228.018-.374-.03-.438s-.187-.104-.415-.12l-.396-.03-.114-.006.072-.373h2.294L54.95 5.09Zm8.94-1.372c-.705 0-1.502.188-2.407.553l-.24 1.187h.802l.032-.114c.232-.781.733-1.167 1.51-1.167.781 0 1.073.513.865 1.542l-.167.812h-.25c-2.338 0-3.65.726-3.938 2.167-.104.529-.005.96.292 1.313.3.348.729.531 1.281.531.69 0 1.447-.355 2.292-1.052.016.697.316 1.052.896 1.052.229 0 .498-.056.802-.156l.053-.437a1.478 1.478 0 0 1-.334.052c-.404 0-.511-.472-.323-1.417l.584-2.907c.26-1.301-.325-1.959-1.75-1.959Zm.051 3.188h.271l-.49 2.46c-.532.315-.974.468-1.322.468-.365 0-.642-.127-.834-.375-.192-.248-.253-.561-.177-.938.216-1.081 1.07-1.615 2.552-1.615Zm5.366-1.264-.637 3.19c-.096.473-.122.779-.078.92.044.135.192.211.444.227l.403.03.252.006-.072.373h-3.556l.072-.373.12-.006.409-.03c.232-.016.386-.054.462-.114.076-.064.144-.21.204-.438l.157-.595.678-3.412.084-.589c.029-.228.019-.374-.03-.438-.048-.064-.186-.104-.414-.12l-.397-.03-.114-.006.073-.373h2.294l-.246 1.226c.725-.913 1.524-1.37 2.397-1.37.12 0 .25.022.39.066l-.36 1.784h-.667l.012-.108.036-.45c.024-.213-.062-.319-.258-.319-.597 0-1.15.317-1.658.95Zm5.76-1.778-.991 4.968c-.096.473-.122.779-.078.92.044.135.192.211.444.227l.403.03.108.007-.072.372h-3.412l.072-.373.12-.005.409-.03c.232-.017.386-.055.462-.115.076-.064.144-.21.205-.438l.156-.595.678-3.412.085-.588c.027-.229.017-.375-.03-.439-.049-.064-.187-.104-.415-.12l-.397-.03-.114-.006.072-.373h2.295Zm-.943-1.183.235-1.183h1.183l-.234 1.183h-1.184Zm5.934 1.037c-.96 0-1.778.309-2.458.917-.677.609-1.125 1.437-1.334 2.49-.212 1.045-.105 1.873.323 2.49.433.613 1.122.927 2.063.927.985 0 1.82-.301 2.5-.906.681-.609 1.132-1.452 1.344-2.521.209-1.045.093-1.871-.343-2.48-.433-.608-1.133-.917-2.095-.917Zm-.073.365c.53 0 .91.295 1.147.875.24.577.276 1.296.104 2.157-.177.889-.5 1.615-.97 2.188-.468.572-.972.864-1.52.864-.52 0-.904-.294-1.136-.875-.232-.58-.26-1.302-.083-2.167.172-.869.5-1.59.969-2.167.468-.58.96-.875 1.49-.875ZM90.607.902l-1.586 7.93c-.096.472-.122.778-.078.918.044.136.192.212.445.228l.402.03.108.007-.072.372h-3.412l.072-.373.12-.005.409-.03c.232-.017.386-.055.463-.115.076-.064.144-.21.204-.438l.156-.595 1.273-6.373.084-.595c.029-.228.017-.372-.035-.432-.049-.064-.187-.104-.415-.12l-.397-.03-.114-.007.079-.372h2.294Zm3.273 2.961-.99 4.968c-.096.473-.122.779-.078.92.044.135.192.211.444.227l.403.03.108.007-.072.372h-3.412l.072-.373.12-.005.408-.03c.233-.017.387-.055.463-.115.076-.064.144-.21.204-.438l.156-.595.68-3.412.083-.588c.028-.229.018-.375-.03-.439s-.186-.104-.414-.12l-.397-.03-.114-.006.072-.373h2.295Zm-.942-1.183.234-1.183h1.183l-.234 1.183h-1.183ZM95.582.904l-.084.376h.115l.396.03c.228.017.369.062.417.126.052.06.07.199.041.427l-.083.594-1.605 8.001h.959l.313-.813h.073c.424.593 1.026.896 1.791.896.83 0 1.555-.333 2.188-.99.633-.656 1.055-1.525 1.271-2.614.196-.981.133-1.764-.187-2.344-.321-.581-.847-.876-1.584-.876-.94 0-1.8.463-2.573 1.376l.844-4.189h-2.292Zm3.438 3.574c1.061 0 1.404.931 1.031 2.782-.348 1.746-1.074 2.615-2.167 2.615-.576 0-1.13-.234-1.667-.698l.74-3.678c.66-.68 1.35-1.021 2.063-1.021Zm7.136-.761c-.841 0-1.6.313-2.261.938-.66.62-1.085 1.426-1.281 2.407-.208 1.029-.073 1.866.396 2.51.472.645 1.178.97 2.136.97.62 0 1.343-.152 2.156-.449l.115-.604c-.577.3-1.226.448-1.959.448-1.406 0-1.909-1.027-1.5-3.073h3.99l.021-.115c.196-.973.135-1.715-.177-2.24-.313-.524-.855-.792-1.636-.792Zm-.156.365c.833 0 1.111.717.823 2.146l-.052.271h-2.709c.144-.733.391-1.324.74-1.76.352-.437.749-.657 1.198-.657Zm5.331 1.559-.637 3.19c-.096.473-.122.779-.078.92.044.135.192.211.445.227l.402.03.252.006-.072.373h-3.556l.072-.373.12-.006.409-.03c.232-.016.386-.054.462-.114.076-.064.145-.21.205-.438l.156-.595.679-3.412.084-.589c.028-.228.018-.374-.03-.438s-.187-.104-.415-.12l-.396-.03-.114-.006.072-.373h2.294l-.246 1.226c.725-.913 1.524-1.37 2.397-1.37.12 0 .25.022.39.066l-.36 1.784h-.667l.012-.108.036-.45c.024-.213-.062-.319-.258-.319-.597 0-1.15.317-1.658.95Zm6.743-1.924c-.84 0-1.599.313-2.26.938-.661.62-1.085 1.426-1.282 2.407-.208 1.029-.083 1.866.386 2.51.472.645 1.189.97 2.146.97.621 0 1.344-.152 2.157-.449l.114-.604c-.577.3-1.226.448-1.959.448-1.405 0-1.908-1.027-1.5-3.073h3.98l.031-.115c.196-.973.136-1.715-.177-2.24-.312-.524-.855-.792-1.636-.792Zm-.156.365c.833 0 1.112.717.823 2.146l-.062.271h-2.699c.145-.733.392-1.324.74-1.76.353-.437.75-.657 1.198-.657ZM6.909 10.387H0l.078-.403.13-.007.443-.032c.252-.018.419-.059.502-.124.082-.07.156-.228.22-.475l.17-.645 1.25-6.264.092-.645c.03-.247.02-.406-.033-.475-.052-.07-.202-.113-.45-.13l-.436-.026-.117-.013.078-.398h3.777l-.078.398-.13.013-.443.026c-.252.017-.42.06-.502.13-.082.07-.156.228-.22.475l-.17.645-1.25 6.264c-.118.577-.142.91-.072.996.07.087.39.13.964.13h.983c.612 0 1.022-.037 1.23-.11a.636.636 0 0 0 .41-.47l.15-.657.033-.13h.684l-.384 1.927Z"/></svg>