<svg xmlns="http://www.w3.org/2000/svg" width="120" height="17" fill="none"><path fill="#4D4D4D" d="M5.231 16.937 1.951 4.06l-.373-1.378c-.111-.48-.36-.72-.748-.72l-.612-.01L0 1.93v-.637h5.501v.637h-.197l-.56.02c-.658 0-.987.185-.987.554 0 .236.1.754.301 1.555l2.274 8.985 3.54-11.563h.726l3.54 11.886 2.656-9.298c.298-1.03.447-1.618.447-1.764 0-.236-.301-.354-.903-.354l-.717-.021h-.186v-.637h4.224v.637l-.187.02-.622.021c-.416.021-.689.24-.82.658l-.447 1.43-3.757 12.877h-.696L9.508 5.051l-3.56 11.886H5.23ZM24.03 5.406v8.63c0 .821.062 1.353.187 1.597.124.236.405.369.84.396l.706.053.198.01v.647h-5.896v-.647l.197-.01.696-.053c.401-.027.654-.094.757-.198.111-.111.18-.365.208-.762l.062-1.033V8.11l-.062-1.023c-.028-.397-.097-.65-.208-.762-.103-.111-.356-.18-.757-.209l-.696-.052-.197-.01v-.647h3.965ZM21.984 3.35V1.294h2.045V3.35h-2.045Zm8.563 7.816v2.87l.063 1.033c0 .432.069.7.207.804.146.097.547.167 1.205.209l.197.01v.647h-5.637v-.647l.198-.01.695-.053c.401-.027.654-.094.758-.198.11-.111.18-.365.207-.762l.063-1.033V2.964L28.44 1.93c-.027-.397-.096-.647-.207-.752-.104-.111-.357-.18-.758-.208L26.78.918l-.198-.01V.26h3.965v10.394h.488l2.616-2.525 1.526-1.587c.104-.104.156-.191.156-.26 0-.133-.125-.199-.374-.199l-.986-.031h-.218v-.647h4.39v.647l-.197.01c-.733.049-1.204.14-1.411.272-.201.125-.848.73-1.941 1.815l-1.972 1.952 3.383 3.997 1.121 1.231c.305.341.526.543.665.605.145.063.467.112.965.147l.197.01v.647H35.79l-4.754-5.573h-.488Zm12.747-5.76v8.63c0 .821.062 1.353.187 1.597.124.236.404.369.84.396l.706.053.197.01v.647H39.33v-.647l.197-.01.695-.053c.402-.027.654-.094.758-.198.11-.111.18-.365.208-.762l.062-1.033V8.11l-.062-1.023c-.028-.397-.097-.65-.208-.762-.104-.111-.356-.18-.758-.209l-.695-.052-.197-.01v-.647h3.965ZM41.249 3.35V1.294h2.045V3.35h-2.045Zm5.657 12.805v-2.88h1.152l.02.198.084 1.085c.048.536.325.97.83 1.305.505.326 1.142.49 1.91.49.63 0 1.142-.188 1.536-.564.402-.382.602-.873.602-1.471 0-.946-.605-1.652-1.816-2.118l-1.048-.407c-2.139-.828-3.208-1.983-3.208-3.465 0-.919.363-1.677 1.09-2.275.734-.599 1.664-.898 2.792-.898 1.1 0 2.239.213 3.415.637v2.703h-1.152v-.188l-.093-.95c-.097-1.043-.775-1.565-2.035-1.565-.602 0-1.103.195-1.505.584-.394.383-.591.87-.591 1.461 0 .487.159.88.477 1.18.325.292.972.636 1.941 1.033l.955.396c1.045.432 1.771.88 2.18 1.347.415.459.622 1.054.622 1.784 0 1.002-.398 1.823-1.193 2.463-.796.64-1.824.96-3.083.96a9.089 9.089 0 0 1-3.882-.845ZM60.524.26v13.775c0 .821.062 1.353.187 1.597.125.236.405.369.84.396l.707.053.197.01v.647h-5.896v-.647l.197-.01.696-.053c.401-.027.654-.094.758-.198.11-.111.18-.365.207-.762l.062-1.033V2.964l-.062-1.033c-.028-.397-.097-.647-.208-.752-.103-.111-.356-.18-.757-.208l-.696-.053-.197-.01V.26h3.965ZM69.191 17c-1.626 0-2.916-.532-3.871-1.597-.955-1.071-1.433-2.515-1.433-4.33 0-1.83.481-3.274 1.443-4.331.962-1.058 2.273-1.587 3.934-1.587 1.66 0 2.972.53 3.934 1.587.962 1.057 1.443 2.494 1.443 4.31 0 1.857-.485 3.315-1.454 4.372-.961 1.05-2.293 1.576-3.996 1.576Zm.031-.647c.948 0 1.727-.498 2.336-1.492.609-.995.913-2.265.913-3.81 0-1.495-.308-2.744-.924-3.746-.608-1.009-1.37-1.513-2.283-1.513-.913 0-1.675.504-2.284 1.513-.609 1.002-.913 2.258-.913 3.767 0 1.503.301 2.759.903 3.768.602 1.009 1.353 1.513 2.252 1.513Zm11.802.511-3.653-8.682c-.381-.912-.658-1.486-.83-1.722a.859.859 0 0 0-.676-.397l-.176-.01v-.647h4.889v.647h-.197l-.56.01c-.54 0-.81.15-.81.449 0 .14.21.703.633 1.69l2.543 6.043 2.615-6.032c.409-.953.613-1.52.613-1.701 0-.3-.243-.449-.727-.449l-.519-.01h-.228v-.647h3.342v.647l-.218.01c-.408.028-.747.355-1.017.981l-.498 1.169-3.893 8.651h-.633Zm10.598-9.33c1.038-1.586 2.394-2.379 4.069-2.379.968 0 1.726.32 2.273.96.553.64.83 1.52.83 2.64v5.281l.073 1.033c.02.397.086.65.197.762.11.104.363.17.758.198l.706.053.186.01v.647h-5.885v-.647l.187-.01.706-.053c.394-.027.647-.094.758-.198.11-.111.18-.365.207-.762l.062-1.033V9.08c0-.974-.128-1.649-.384-2.024-.249-.383-.695-.574-1.339-.574-.927 0-2.062.58-3.404 1.742v5.813c0 .821.062 1.353.187 1.597.124.236.404.369.84.396l.706.053.197.01v.647h-5.895v-.647l.197-.01.695-.053c.402-.027.654-.094.758-.198.11-.111.18-.365.208-.762l.062-1.033V8.11l-.062-1.023c-.028-.397-.097-.65-.208-.762-.104-.111-.356-.18-.758-.209l-.695-.052-.197-.01v-.647h3.965v2.129Zm13.452-2.128v8.63c0 .821.062 1.353.187 1.597.124.236.405.369.841.396l.705.053.198.01v.647h-5.896v-.647l.197-.01.696-.053c.401-.027.653-.094.757-.198.111-.111.18-.365.208-.762l.062-1.033V8.11l-.062-1.023c-.028-.397-.097-.65-.208-.762-.104-.111-.356-.18-.757-.209l-.696-.052-.197-.01v-.647h3.965Zm-3.01-2.056L104.565 0h2.689l-4.225 3.35h-.965Zm9.528 7.816v2.87l.063 1.033c0 .432.069.7.207.804.146.097.547.167 1.204.209l.198.01v.647h-5.637v-.647l.198-.01.695-.053c.401-.027.654-.094.758-.198.11-.111.18-.365.207-.762l.063-1.033V2.964l-.063-1.033c-.027-.397-.097-.647-.207-.752-.104-.111-.357-.18-.758-.208l-.695-.053-.198-.01V.26h3.965v10.394h.488l2.616-2.525 1.526-1.587c.104-.104.155-.191.155-.26 0-.133-.124-.199-.373-.199l-.986-.031h-.218v-.647h4.39v.647l-.197.01c-.733.049-1.204.14-1.411.272-.201.125-.848.73-1.941 1.815l-1.973 1.952 3.384 3.997 1.121 1.231c.305.341.526.543.664.605.146.063.468.112.966.147l.197.01v.647h-3.166l-4.754-5.573h-.488Z"/></svg>