<svg viewBox="0 0 114.3 19.262" xmlns="http://www.w3.org/2000/svg"><g fill="#4d4d4d"><path d="M4.8 15.45 1.791 3.7c-.286-1.08-.47-1.67-.552-1.771-.083-.102-.428-.152-1.038-.152l-.2-.02v-.58h5.047v.58h-.181c-.616 0-1.01.032-1.171.096-.165.063-.248.209-.248.438 0 .209.092.679.276 1.409l2.085 8.198 3.247-10.55h.667l3.246 10.845 2.438-8.484c.273-.965.409-1.5.41-1.618 0-.222-.496-.333-1.486-.334h-.171v-.58h3.875v.58l-.172.02c-.679.038-1.06.098-1.128.18-.073.083-.275.663-.605 1.743l-3.446 11.75h-.638L8.723 4.605 5.457 15.45zM22.04 4.93v7.874c0 .863.07 1.38.21 1.543.14.165.6.273 1.38.324l.181.01v.59h-5.408v-.59l.18-.01c.769-.051 1.22-.16 1.367-.329.143-.168.214-.681.214-1.538V7.396c0-.857-.071-1.37-.214-1.533-.143-.165-.598-.276-1.366-.333l-.181-.01v-.59zm-4.332-1.876L19.82.236h2.114l2.114 2.818h-.819L20.878 1.18l-2.351 1.875zM28.02 10.18v2.618c0 .851.065 1.36.195 1.538.13.175.516.284 1.157.329l.181.01v.59h-5.17v-.59l.18-.01c.769-.051 1.22-.16 1.367-.329.143-.168.214-.68.214-1.538V2.696c0-.857-.071-1.37-.214-1.537C25.787.99 25.332.88 24.564.83l-.181-.01V.23h3.637v9.483h.448l2.399-2.304c1.03-1.05 1.54-1.61 1.542-1.685 0-.121-.175-.186-.523-.195a28.89 28.89 0 0 0-.724-.015h-.2v-.59h4.028v.59l-.181.01c-.673.045-1.1.125-1.29.243-.187.117-.782.671-1.786 1.662l-1.809 1.78 3.104 3.647c.787.889 1.28 1.4 1.48 1.547.2.143.548.23 1.043.262l.181.01v.59h-2.904l-4.36-5.084zM39.71 4.93v7.874c0 .863.07 1.38.21 1.543.14.165.6.273 1.38.324l.181.01v.59h-5.408v-.59l.18-.01c.769-.051 1.22-.16 1.367-.329.143-.168.214-.681.214-1.538V7.396c0-.857-.071-1.37-.214-1.533-.143-.165-.598-.276-1.366-.333l-.181-.01v-.59zm-4.332-1.876L37.492.236h2.113l2.114 2.818H40.9L38.548 1.18l-2.351 1.875zM44.06 5.76h-1.523v-.828h1.523v-.495c0-1.57.252-2.7.757-3.395.505-.695 1.33-1.04 2.48-1.042.876 0 1.72.235 2.523.704v2.238h-1.18l-.01-.181a19.038 19.038 0 0 1-.029-.886c0-.844-.46-1.27-1.38-1.266-.501 0-.841.186-1.02.557-.177.37-.266 1.08-.266 2.138v1.628h2.59v.77h-2.59v7.104c0 .857.078 1.37.233 1.542.156.171.646.28 1.472.324l.295.01v.59h-5.637v-.59l.18-.01c.769-.05 1.22-.16 1.367-.328.143-.168.214-.681.214-1.538zM58.92 14.8c-1.19.47-2.28.705-3.266.705-1.52 0-2.75-.511-3.699-1.533-.949-1.02-1.42-2.35-1.424-3.98 0-1.55.425-2.82 1.276-3.809.851-.99 1.94-1.49 3.276-1.485 1.23 0 2.18.416 2.842 1.247.663.832.995 2.02.995 3.56v.182h-6.313c0 1.61.281 2.82.843 3.637.562.819 1.39 1.23 2.5 1.228 1.16 0 2.15-.238 2.97-.714zm-6.275-5.703h4.285l.01-.42c0-1.2-.156-2.07-.466-2.599-.311-.533-.82-.8-1.524-.8-.705 0-1.26.346-1.68 1.038-.416.692-.624 1.62-.624 2.78zM63.9 7.75v5.056c0 .857.075 1.37.224 1.542.149.171.605.28 1.366.324l.41.01v.59h-5.637v-.59l.18-.01c.769-.05 1.22-.16 1.367-.328.143-.168.214-.681.214-1.538V7.398c0-.857-.071-1.37-.214-1.533-.143-.165-.598-.276-1.366-.334l-.181-.01v-.59H63.9v1.943c.857-1.45 1.98-2.17 3.361-2.171.19 0 .403.035.638.104v2.828h-1.057l-.01-.171c-.07-.59-.132-.941-.186-1.052-.054-.111-.198-.167-.433-.167-.939 0-1.71.501-2.313 1.505zM72.47 6.87c.476-.724 1.03-1.27 1.647-1.628a4.074 4.074 0 0 1 2.085-.543c.89 0 1.59.292 2.095.876.501.584.752 1.39.752 2.409v4.818c.045.946.117 1.48.22 1.6.101.12.558.208 1.37.266l.172.01v.59h-5.399v-.59l.171-.01c.812-.057 1.27-.146 1.372-.267.102-.12.175-.654.219-1.6V8.28c0-.889-.116-1.51-.348-1.852-.232-.346-.646-.519-1.243-.519-.419 0-.889.132-1.409.395s-1.09.662-1.704 1.195v5.304c0 .863.07 1.38.21 1.542.14.165.6.273 1.38.324l.18.01v.59h-5.407v-.59l.18-.01c.769-.05 1.22-.16 1.367-.328.143-.168.214-.681.214-1.538V2.7c0-.857-.071-1.37-.214-1.538-.143-.168-.598-.278-1.366-.328l-.181-.01v-.59h3.637zM90.15 14.8c-1.19.47-2.28.705-3.266.705-1.52 0-2.75-.511-3.699-1.533-.949-1.02-1.42-2.35-1.423-3.98 0-1.55.424-2.82 1.275-3.809.851-.99 1.94-1.49 3.276-1.485 1.23 0 2.18.416 2.842 1.247.663.832.995 2.02.995 3.56v.182h-6.313c0 1.61.281 2.82.843 3.637.562.819 1.39 1.23 2.5 1.228 1.16 0 2.15-.238 2.97-.714zm-6.275-5.703h4.285l.01-.42c0-1.2-.156-2.07-.467-2.599-.31-.533-.819-.8-1.523-.8-.705 0-1.26.346-1.68 1.038-.416.692-.624 1.62-.624 2.78zM95.13 6.87c.476-.724 1.03-1.27 1.647-1.628a4.074 4.074 0 0 1 2.085-.543c.89 0 1.59.292 2.095.876.501.584.752 1.39.752 2.409v4.818c.045.946.117 1.48.22 1.6.101.12.558.208 1.37.266l.172.01v.59h-5.399v-.59l.171-.01c.812-.057 1.27-.146 1.372-.267.102-.12.175-.654.219-1.6V8.28c0-.889-.116-1.51-.348-1.852-.232-.346-.646-.519-1.243-.519-.419 0-.889.132-1.409.395s-1.09.662-1.704 1.195v5.304c0 .863.07 1.38.21 1.542.14.165.6.273 1.38.324l.18.01v.59h-5.407v-.59l.18-.01c.769-.05 1.22-.16 1.367-.328.143-.168.214-.681.214-1.538V7.394c0-.857-.071-1.37-.214-1.533-.143-.165-.598-.276-1.366-.333l-.181-.01v-.59h3.637zM106.17 14.87c-.717-.33-1.08-.781-1.076-1.352 0-.324.151-.643.452-.957.302-.314.754-.62 1.357-.919-.698-.31-1.22-.743-1.576-1.295-.352-.552-.528-1.22-.528-2.009 0-1.1.354-1.99 1.062-2.647.708-.66 1.66-.99 2.842-.99.724 0 1.38.133 1.961.4l3.628-.286-.476 1.143-2.485-.4c.812.781 1.22 1.7 1.218 2.761 0 1.06-.357 1.94-1.07 2.628-.715.692-1.62 1.04-2.729 1.038-.419 0-.863-.067-1.333-.2-.222.17-.39.354-.504.547a1.196 1.196 0 0 0-.172.615c0 .45.397.676 1.19.676h1.648c1.58 0 2.67.168 3.266.504.597.336.895.95.895 1.838 0 .997-.451 1.79-1.352 2.394-.901.6-2.09.9-3.58.9-1.42 0-2.55-.202-3.419-.604-.863-.403-1.29-.938-1.295-1.605 0-.432.173-.828.52-1.19.345-.362.864-.692 1.556-.99zm.505-6.608c0 1.04.168 1.82.504 2.347.336.524.838.786 1.505.786.666 0 1.16-.26 1.495-.781.33-.52.495-1.3.495-2.342 0-1.99-.66-2.99-1.98-2.99-.674 0-1.18.248-1.515.742-.336.495-.505 1.24-.504 2.238zm-.01 6.77a2.295 2.295 0 0 0-.529.766 2.43 2.43 0 0 0-.176.938c0 .654.243 1.14.728 1.471.486.327 1.21.49 2.186.49.927 0 1.66-.202 2.213-.609.55-.406.824-.955.824-1.647 0-.47-.165-.822-.495-1.057-.33-.235-.828-.352-1.495-.352z"/></g></svg>