<svg xmlns="http://www.w3.org/2000/svg" fill="none" viewBox="0 0 119.99 19.525"><path fill="#4d4d4d" d="M3.942 2.154v4.07h1.645q3.15 0 3.15-2.544 0-1.527-.867-2.22Q7.005.758 5.868.758q-.973 0-1.363.12-.38.118-.476.356-.087.24-.087.92m0 4.828v4.74q0 1.06.368 1.504.368.434 1.472.434 2.327 0 3.16-.79t.834-2.187q0-1.623-1.083-2.662-1.07-1.039-3.225-1.039zM2.99.044q.4 0 1.396-.022T5.76 0q4.762 0 4.762 3.409 0 .866-.606 1.667-.606.8-1.493 1.244v.044q1.548.444 2.478 1.418t.931 2.478q0 .78-.27 1.472-.26.682-.855 1.31-.595.617-1.744.984-1.135.358-2.715.358-1.06 0-2.014-.022-.952-.022-1.223-.022-1.147 0-2.878.044-.11-.087-.11-.347 0-.27.11-.378 1.244-.044 1.58-.368.346-.325.346-1.656V2.749q0-1.33-.347-1.646Q1.377.78.133.736.023.649.023.379T.134 0q1.73.044 2.856.044m14.145 12.9 3.453-6.905q.28-.562.573-1.255.444.043 1.331.043.683 0 2.458-.043.108.108.108.379.01.27-.108.356-1.06.044-1.385.412-.315.367-.315 1.688v3.93q0 1.33.315 1.698.324.358 1.385.412.108.108.108.378.01.26-.108.347-1.732-.044-2.458-.044-1.569 0-2.587.044-.107-.087-.118-.347 0-.27.12-.378.93-.044 1.254-.422.336-.38.336-1.689V6.516q0-.27-.152-.27l-3.474 6.936q-.39.79-.54 1.202-.489-.044-1.354-.044-.736 0-2.456.044-.109-.087-.12-.347 0-.27.12-.378 1.06-.044 1.374-.412.324-.368.324-1.699V7.62q0-1.331-.324-1.688-.314-.368-1.374-.412-.109-.086-.12-.346 0-.27.12-.39 1.688.044 2.456.044 1.569 0 2.597-.043.11.108.11.379 0 .27-.11.356-.93.044-1.265.423-.336.378-.336 1.677v5.055q.01.27.162.27M34.29 14.34q-.638-.02-1.18-1.125l-.952-2.002q-.356-.737-.822-1.083-.465-.357-1.482-.422v1.927q0 1.33.237 1.644.25.304 1.137.38.086.108.086.378 0 .26-.086.347-.974-.044-2.241-.044-1.017 0-2.478.044-.108-.087-.12-.347 0-.27.12-.378 1.06-.088 1.32-.39.27-.303.27-1.634V7.533q0-1.331-.27-1.635-.26-.313-1.32-.379-.108-.086-.12-.346 0-.27.12-.39 1.46.044 2.456.044 1.202 0 2.263-.043.086.108.086.379 0 .27-.086.356-.909.087-1.148.401-.226.304-.226 1.613v1.396q1.081 0 1.655-.509.585-.51 1.008-1.548.194-.464.356-.8.173-.336.444-.693.28-.368.66-.552.379-.195.844-.195.53 0 .887.314.368.303.368.682 0 .336-.27.606-.26.26-.617.26-.422 0-.66-.152-.217-.152-.509-.162-.574 0-.995 1.115-.293.8-.64 1.266-.335.454-.94.638v.066q1.752 0 2.597 1.569l.995 1.883q.292.551.541.736.26.173.877.206.087.108.087.378 0 .26-.087.347zm6.96-1.396 3.45-6.905q.281-.562.573-1.255.444.043 1.332.043.682 0 2.457-.043.108.108.108.379.01.27-.108.356-1.06.044-1.385.412-.314.367-.314 1.688v3.93q0 1.33.314 1.698.324.358 1.385.412.108.108.108.378.01.26-.108.347-1.731-.044-2.457-.044-1.568 0-2.587.044-.108-.087-.12-.347 0-.27.12-.378.931-.044 1.255-.422.336-.38.336-1.689V6.516q0-.27-.152-.27l-3.473 6.936q-.39.79-.541 1.202-.488-.044-1.353-.044-.737 0-2.457.044-.108-.087-.119-.347 0-.27.119-.378 1.06-.044 1.374-.412.325-.368.325-1.699V7.62q0-1.331-.325-1.688-.314-.368-1.374-.412-.108-.086-.119-.346 0-.27.119-.39 1.688.044 2.457.044 1.569 0 2.597-.043.108.108.108.379 0 .27-.108.356-.93.044-1.266.423-.336.378-.336 1.677v5.055q.01.27.162.27m12.468-5.941q-.356.444-.346.973v4.037q0 .585.087.801.097.217.443.53.52.466 1.57.466.887 0 1.526-.368.65-.368.974-.996.336-.627.476-1.288.152-.67.152-1.428 0-1.818-.77-2.955-.757-1.147-1.87-1.147-.466 0-1.137.41-.661.412-1.105.965m-.422-.823q.021.336.25.098 1.482-1.668 3.041-1.668 1.667 0 2.792 1.354 1.126 1.353 1.126 3.17 0 2.598-1.634 4.188-1.31 1.246-3.269 1.234-1.083 0-1.926-.335-.174-.086-.24-.065-.064.021-.064.228v2.392q0 1.33.292 1.644.304.314 1.527.38.108.108.108.367 0 .27-.108.358-1.461-.044-2.684-.044-.931 0-2.49.044-.086-.087-.086-.358 0-.26.086-.367 1.04-.044 1.32-.37.283-.323.283-1.654v-9.46q0-.93-.26-1.168-.25-.25-1.18-.336-.13-.38-.044-.627 1.646-.218 2.727-.64.174 0 .26.174.11.26.173 1.461m10.79 1.904L68.1 8.02q.336 0 .325-.303 0-1.267-.54-1.798-.542-.53-1.3-.53-.293 0-.573.076t-.693.325q-.412.238-.747.834-.336.595-.488 1.46m5.813 4.2q.379.02.465.346-1.483 1.926-3.777 1.926-2.197 0-3.387-1.417-1.039-1.2-1.039-3.279 0-2.348 1.406-3.778 1.408-1.428 3.02-1.428 3.745 0 3.745 3.852 0 .38-.412.38l-5.898-.044q0 1.862.703 3.041.975 1.592 2.424 1.592.931 0 1.516-.26.596-.27 1.234-.93m4.935-4.752v.379q0 1.439.25 1.958.259.52 1.254.52 1.267 0 2.706-1.255V7.533q0-1.331-.25-1.635-.236-.313-1.125-.379-.086-.086-.086-.346 0-.27.086-.39 1.019.044 2.262.044.975 0 2.48-.043.086.108.086.379 0 .27-.087.356-1.06.087-1.33.39-.26.293-.26 1.624v4.102q0 1.33.26 1.644.27.304 1.33.38.087.108.087.378 0 .26-.087.347-1.418-.044-2.479-.044-1.017 0-2.488.044-.087-.087-.087-.347 0-.27.087-.378 1.06-.088 1.33-.39t.27-1.634v-1.71q-.615.443-1.005.703t-1.082.52q-.682.249-1.32.249-1.505 0-2.025-.64-.51-.649-.51-2.271v-.953q0-1.331-.27-1.635-.259-.313-1.319-.379-.087-.086-.097-.346 0-.27.096-.39 1.462.044 2.436.044 1.2 0 2.262-.043.086.108.086.379 0 .27-.086.356-.91.087-1.148.401-.227.304-.227 1.613m18.962 0v4.102q0 1.33.26 1.644.27.304 1.33.38.11.108.11.378.01.26-.11.347-1.73-.044-2.456-.044-.8 0-2.392.044-.087-.087-.087-.347 0-.27.087-.378 1.04-.088 1.267-.38.238-.292.238-1.644V9.708H87.3v1.927q0 1.352.227 1.656.24.29 1.278.368.086.108.086.378 0 .26-.087.347-1.59-.044-2.37-.044-.714 0-2.479.044-.108-.087-.118-.347 0-.27.118-.378 1.061-.088 1.32-.39.271-.303.271-1.634V7.533q0-1.331-.27-1.635-.26-.313-1.32-.379-.109-.086-.12-.346 0-.27.12-.39 1.775.044 2.457.044.714 0 2.391-.043.087.108.087.379 0 .27-.087.356-1.039.087-1.277.38-.227.28-.227 1.634v1.439h4.74v-1.44q0-1.352-.238-1.644-.227-.303-1.266-.369-.087-.086-.087-.346 0-.27.087-.39 1.731.044 2.37.044 1.71 0 2.478-.043.11.108.11.379.01.27-.11.356-1.06.087-1.33.39-.26.293-.26 1.624m6.765 5.41 3.453-6.904q.28-.562.574-1.255.443.043 1.33.043.682 0 2.457-.043.109.108.109.379.01.27-.11.356-1.059.044-1.384.412-.314.367-.314 1.688v3.93q0 1.33.314 1.698.325.358 1.385.412.109.108.109.378.01.26-.11.347-1.73-.044-2.455-.044-1.57 0-2.587.044-.108-.087-.119-.347 0-.27.119-.378.93-.044 1.256-.422.335-.38.335-1.689V6.516q0-.27-.151-.27l-3.475 6.936q-.39.79-.54 1.202-.488-.044-1.354-.044-.735 0-2.457.044-.108-.087-.119-.347 0-.27.119-.378 1.06-.044 1.375-.412.325-.368.325-1.699V7.62q0-1.331-.325-1.688-.314-.368-1.375-.412-.108-.086-.119-.346 0-.27.119-.39 1.688.044 2.457.044 1.569 0 2.598-.043.108.108.108.379 0 .27-.108.356-.931.044-1.267.423-.335.378-.335 1.677v5.055q.01.27.163.27m17.155 1.396q-.64-.02-1.18-1.125l-.952-2.002q-.358-.737-.823-1.083-.466-.357-1.483-.422v1.927q0 1.33.239 1.644.248.304 1.136.38.086.108.086.378 0 .26-.086.347-.974-.044-2.24-.044-1.019 0-2.48.044-.108-.087-.118-.347 0-.27.118-.378 1.061-.088 1.321-.39.27-.303.27-1.634V7.533q0-1.331-.27-1.635-.26-.313-1.32-.379-.109-.086-.119-.346 0-.27.118-.39 1.462.044 2.458.044 1.2 0 2.262-.043.086.108.086.379 0 .27-.086.356-.91.087-1.147.401-.228.304-.228 1.613v1.396q1.083 0 1.656-.509.584-.51 1.007-1.548.194-.464.356-.8.174-.336.445-.693.28-.368.66-.552.379-.195.843-.195.53 0 .889.314.368.303.368.682 0 .336-.27.606-.26.26-.618.26-.423 0-.66-.152-.217-.152-.51-.162-.572 0-.995 1.115-.292.8-.638 1.266-.336.454-.942.638v.066q1.754 0 2.597 1.569l.997 1.883q.292.551.54.736.26.173.877.206.087.108.087.378 0 .26-.087.347z" aria-label="Викиречник"/></svg>