<svg xmlns="http://www.w3.org/2000/svg" width="116" height="27"><path fill="#4D4D4D" d="M98.697 20.988V7.89h6.36a4.84 4.84 0 0 1-.647-1.136c-.146-.39-.22-.85-.22-1.379 0-.692.155-1.35.464-1.978a5.174 5.174 0 0 1 1.27-1.635 6.207 6.207 0 0 1 1.88-1.123 6.276 6.276 0 0 1 2.282-.415c.717 0 1.335.073 1.856.22.529.138.981.333 1.355.585.382.253.692.554.928.904.244.35.431.728.561 1.135.138.407.232.838.281 1.294.057.456.085.915.085 1.38v15.246h-2.087V7.536c0-.44-.049-.875-.147-1.307a3.375 3.375 0 0 0-.476-1.171 2.41 2.41 0 0 0-.915-.843c-.383-.22-.867-.33-1.453-.33-.203 0-.439.013-.708.037a7.896 7.896 0 0 0-.83.122 5.335 5.335 0 0 0-.83.245 3.48 3.48 0 0 0-.732.39 1.866 1.866 0 0 0-.513.562c-.13.22-.195.476-.195.769 0 .309.073.639.219.989.155.341.354.638.598.89h4.407v2.076h-3.418v10.364l-7.251 6.115-1.172-1.306 4.761-4.712V9.965h-3.638v11.023h-2.075Zm-19.684-5.493c0-.896.143-1.762.427-2.6a8.042 8.042 0 0 1 1.246-2.295c-1.001-.424-2.226-.635-3.675-.635-.512 0-1.05.037-1.611.11a10.22 10.22 0 0 0-1.636.33 7.834 7.834 0 0 0-1.538.597c-.48.253-.903.562-1.27.928a4.19 4.19 0 0 0-.866 1.282c-.212.488-.318 1.05-.318 1.684 0 .57.045 1.07.135 1.502.154-.57.374-1.062.659-1.477a3.98 3.98 0 0 1 1.013-1.013 3.968 3.968 0 0 1 1.245-.586c.456-.13.924-.195 1.404-.195a4.63 4.63 0 0 1 1.563.256c.48.17.895.427 1.245.769.358.334.634.757.83 1.27.203.504.305 1.098.305 1.782 0 .586-.118 1.123-.354 1.61a3.776 3.776 0 0 1-.977 1.258c-.407.342-.887.61-1.44.806a5.28 5.28 0 0 1-1.77.293c-.944 0-1.786-.167-2.527-.5a5.536 5.536 0 0 1-1.855-1.38 6.097 6.097 0 0 1-1.16-2.014 7.45 7.45 0 0 1-.39-2.417c0-1.099.256-2.092.768-2.979a7.07 7.07 0 0 1 2.088-2.258c.879-.618 1.9-1.095 3.064-1.428a13.49 13.49 0 0 1 3.71-.5c.912 0 1.82.097 2.723.292.911.187 1.778.476 2.6.867a6.86 6.86 0 0 1 3.552-.964h10.18v2.075h-3.417v11.023h-3.662V9.965h-3.15c-.48 0-.944.077-1.391.232.415.358.793.753 1.135 1.184.342.423.63.891.867 1.404a7.45 7.45 0 0 1 .561 1.635c.139.578.208 1.2.208 1.868 0 .765-.098 1.449-.293 2.05a4.28 4.28 0 0 1-.855 1.539 3.782 3.782 0 0 1-1.391.964c-.554.22-1.184.33-1.892.33-.733 0-1.36-.167-1.88-.5a4.094 4.094 0 0 1-1.27-1.319 6.28 6.28 0 0 1-.72-1.831 9.535 9.535 0 0 1-.22-2.026Zm2.075.146c0 .301.017.643.05 1.025.04.375.11.729.207 1.063.106.333.248.614.427.842.179.228.41.342.696.342.252 0 .468-.09.647-.269.179-.187.325-.415.44-.684a3.88 3.88 0 0 0 .243-.89 6.04 6.04 0 0 0 .074-.892c0-.944-.118-1.77-.354-2.478a5.05 5.05 0 0 0-1.038-1.83 6.297 6.297 0 0 0-1.038 1.867c-.236.675-.354 1.31-.354 1.904Zm-9.814 2.332c.081.17.191.317.33.44.146.121.297.219.451.292.163.073.322.126.476.159.155.032.29.049.403.049.61 0 1.09-.175 1.44-.525.359-.358.538-.826.538-1.404 0-.537-.135-.969-.403-1.294-.269-.326-.63-.488-1.087-.488-.358 0-.671.069-.94.207-.268.13-.496.31-.683.537-.18.22-.318.472-.415.757-.09.285-.135.578-.135.879v.17c.009.058.017.131.025.22Zm-5.536-2.845H62.32v1.245c0 .855-.15 1.587-.452 2.198a3.829 3.829 0 0 1-1.245 1.49c-.537.381-1.176.662-1.916.841-.741.18-1.555.269-2.442.269-1 0-1.88-.114-2.637-.342-.756-.228-1.387-.545-1.892-.952a3.936 3.936 0 0 1-1.135-1.44 4.332 4.332 0 0 1-.378-1.82c0-.447.093-.882.28-1.306a3.68 3.68 0 0 1 .782-1.147 3.984 3.984 0 0 1 1.22-.806 3.906 3.906 0 0 1 1.563-.305V7.89h11.67v2.075H62.32v3.088h3.418v2.075Zm-9.595-2.075h2.515V9.965h-2.515v3.088Zm-2.075 2.075c-.212 0-.423.033-.635.098-.203.065-.39.163-.561.293-.171.13-.31.297-.416.5a1.541 1.541 0 0 0-.158.72c0 .367.09.684.268.953.188.268.436.496.745.683.31.18.663.314 1.062.403.407.09.834.135 1.282.135.35 0 .704-.041 1.062-.122.358-.09.68-.24.964-.452.293-.212.53-.5.708-.867.18-.374.269-.846.269-1.416v-.928h-4.59Zm-12.079 3.418.464.257c.146.073.317.11.512.11.513 0 .916-.167 1.209-.5.293-.335.44-.86.44-1.576 0-.325-.054-.598-.16-.817a1.368 1.368 0 0 0-.427-.525 1.402 1.402 0 0 0-.598-.281 2.907 2.907 0 0 0-.708-.086h-.879v1.245c0 .855-.15 1.587-.451 2.198a3.828 3.828 0 0 1-1.245 1.49c-.538.381-1.176.662-1.917.841-.74.18-1.554.269-2.441.269-1.001 0-1.88-.114-2.637-.342-.757-.228-1.388-.545-1.892-.952a3.935 3.935 0 0 1-1.136-1.44 4.334 4.334 0 0 1-.378-1.82c0-.447.094-.882.28-1.306.188-.43.449-.813.782-1.147a3.984 3.984 0 0 1 1.22-.806 3.906 3.906 0 0 1 1.563-.305V7.89h11.67v2.075h-3.418v3.088h2.27a5.66 5.66 0 0 1 1.71.244 3.58 3.58 0 0 1 1.306.72 3.1 3.1 0 0 1 .842 1.197c.204.472.305 1.025.305 1.66 0 .66-.101 1.253-.305 1.782-.203.53-.488.98-.854 1.355-.358.366-.79.651-1.294.855a4.432 4.432 0 0 1-1.673.305c-.244 0-.496-.029-.756-.086a5.434 5.434 0 0 1-.733-.22c-.236-.097-.46-.199-.671-.304a4.477 4.477 0 0 1-.513-.306l.513-1.709Zm-6.323-5.493h2.514V9.965h-2.514v3.088Zm-2.076 2.075c-.211 0-.423.033-.634.098a1.85 1.85 0 0 0-.562.293c-.17.13-.31.297-.415.5a1.541 1.541 0 0 0-.159.72c0 .367.09.684.269.953.187.268.435.496.745.683.309.18.663.314 1.061.403.407.09.835.135 1.282.135.35 0 .704-.041 1.062-.122.358-.09.68-.24.965-.452.293-.212.529-.5.708-.867.179-.374.268-.846.268-1.416v-.928h-4.59Zm3.833-12.292c0-.326.061-.63.183-.916.13-.284.306-.533.525-.744.22-.22.476-.39.77-.513a2.51 2.51 0 0 1 .951-.183c.334 0 .648.061.94.183.302.122.562.293.782.513.22.211.394.46.525.744.13.285.195.59.195.916 0 .325-.065.63-.195.915-.13.285-.305.538-.525.757-.22.212-.48.379-.782.5a2.42 2.42 0 0 1-.94.184 2.463 2.463 0 0 1-1.721-.684 2.578 2.578 0 0 1-.525-.757 2.3 2.3 0 0 1-.183-.915Zm-13.47 18.152H12.185l-.659-1.843c.187-.22.366-.473.537-.757.18-.293.334-.61.464-.953.138-.35.244-.72.317-1.11a6.22 6.22 0 0 0 .122-1.245c0-.7-.13-1.36-.39-1.978a5.072 5.072 0 0 0-1.05-1.623 4.811 4.811 0 0 0-1.575-1.1 4.65 4.65 0 0 0-1.965-.414c-.383 0-.781.04-1.196.122a5.768 5.768 0 0 0-1.233.366c-.399.171-.781.39-1.148.66-.358.26-.675.581-.952.964a4.727 4.727 0 0 0-.659 1.33c-.163.497-.244 1.062-.244 1.697 0 .285.012.52.036.708.025.179.057.374.098.586a4.82 4.82 0 0 1 .66-1.477c.292-.415.63-.753 1.012-1.013a3.968 3.968 0 0 1 1.246-.586c.455-.13.923-.195 1.403-.195.562 0 1.083.085 1.563.256.48.17.895.427 1.245.769.358.334.635.757.83 1.27.204.504.305 1.098.305 1.782 0 .586-.11 1.123-.33 1.61-.219.49-.524.908-.915 1.258-.382.35-.842.623-1.38.818a4.968 4.968 0 0 1-1.733.293c-.944 0-1.794-.159-2.55-.476a5.683 5.683 0 0 1-1.917-1.306A5.779 5.779 0 0 1 .906 17.46a6.672 6.672 0 0 1-.427-2.393c0-1.098.19-2.103.573-3.015A6.92 6.92 0 0 1 2.676 9.71a7.18 7.18 0 0 1 2.478-1.526c.968-.358 2.026-.537 3.174-.537 1.253 0 2.388.158 3.405.476 1.026.317 1.9.777 2.625 1.379a6.084 6.084 0 0 1 1.672 2.197c.4.863.598 1.84.598 2.93 0 .374-.024.753-.073 1.135a7.77 7.77 0 0 1-.232 1.135c-.105.367-.248.72-.427 1.062a4.56 4.56 0 0 1-.635.953h5.03v-8.191a1.277 1.277 0 0 1-.244.33 1.92 1.92 0 0 1-.342.268 2.37 2.37 0 0 1-.415.183c-.139.04-.273.061-.403.061-.586 0-1.103-.126-1.55-.379-.44-.252-.81-.59-1.111-1.013a4.807 4.807 0 0 1-.684-1.489 6.985 6.985 0 0 1-.22-1.77c0-.936.175-1.81.525-2.624a6.752 6.752 0 0 1 1.44-2.112A6.6 6.6 0 0 1 19.4.76a6.482 6.482 0 0 1 2.587-.525c.75 0 1.4.085 1.954.256a4.58 4.58 0 0 1 1.44.708 4 4 0 0 1 1.001 1.062c.268.399.476.834.622 1.306.155.464.26.953.318 1.465.065.505.098 1.01.098 1.514v14.44h-2.076V7.768c0-.488-.044-.964-.134-1.428a3.015 3.015 0 0 0-.5-1.233c-.253-.366-.607-.659-1.062-.878-.448-.22-1.038-.33-1.77-.33-.635 0-1.23.098-1.783.293a4.6 4.6 0 0 0-1.416.793 3.715 3.715 0 0 0-.94 1.172 3.13 3.13 0 0 0-.341 1.44c0 .261.032.517.097.77.073.244.175.464.305.659a1.7 1.7 0 0 0 .513.476 1.4 1.4 0 0 0 .696.17c.325 0 .586-.072.781-.219.204-.154.37-.317.5-.488V7.89h3.663v13.098ZM4.055 17.973c.082.17.192.317.33.44.146.121.297.219.452.292.162.073.321.126.476.159.154.032.289.049.402.049.61 0 1.091-.175 1.44-.525.359-.358.538-.826.538-1.404 0-.537-.134-.969-.403-1.294-.268-.326-.63-.488-1.086-.488-.358 0-.672.069-.94.207a2.01 2.01 0 0 0-.684.537c-.179.22-.317.472-.415.757a2.9 2.9 0 0 0-.134.879v.17c.008.058.016.131.024.22Z"/></svg>