<svg xmlns="http://www.w3.org/2000/svg" width="64" height="19" fill="none"><path fill="#000" d="M61.952 6.315a5.088 5.088 0 0 0-.566.36c-.123.094-.214.18-.273.256-.055.076-.116.163-.184.262-.043.06-.091.06-.146 0-.055-.06-.083-.116-.083-.165 0-.247.106-.485.318-.713.212-.228.523-.46.934-.695.254-.148.44-.268.559-.36.123-.094.214-.18.273-.256.06-.08.123-.167.19-.262.039-.06.086-.06.14 0 .056.057.083.112.083.165 0 .247-.106.485-.318.713-.211.228-.52.46-.927.695ZM61.494 11.092c.026-.316.098-.618.216-.907.119-.292.248-.543.388-.752.144-.213.258-.359.343-.439.064-.064.119-.051.165.04.047.091.062.164.045.217-.013.057-.04.13-.083.222-.038.091-.074.22-.108.388-.034.163-.05.39-.05.678 0 .642-.007 1.246-.02 1.812-.008.563-.03 1.104-.063 1.625a11.864 11.864 0 0 1-.255 1.83 10.714 10.714 0 0 1-.4 1.425c-.14.383-.258.636-.356.758-.042.057-.101.047-.178-.029-.072-.076-.101-.139-.088-.188.02-.072.057-.167.108-.285a3.56 3.56 0 0 0 .158-.496c.055-.216.094-.503.115-.86.05-.772.057-1.583.019-2.434-.038-.852-.023-1.72.044-2.605ZM55.707 13.982v-.377c0-.209.002-.456.007-.74v-2.007c0-.946.146-1.769.438-2.468.297-.7.69-1.303 1.182-1.813a9.112 9.112 0 0 1 1.62-1.333c.504-.327.909-.593 1.214-.798.309-.205.554-.382.737-.53.182-.148.332-.295.45-.44.124-.147.253-.322.388-.524.03-.041.077-.041.14 0 .064.042.093.09.09.143a2.6 2.6 0 0 1-.153.77c-.08.22-.227.44-.439.66-.212.221-.517.474-.915.759-.394.28-.913.629-1.556 1.043-.53.342-.945.615-1.246.82-.296.206-.512.386-.648.542a1.089 1.089 0 0 0-.248.513c-.034.186-.05.431-.05.735 0 1.209-.043 2.242-.128 3.1-.084.86-.178 1.508-.28 1.945a.223.223 0 0 1-.183.182.466.466 0 0 1-.28-.017c-.093-.038-.14-.093-.14-.165Z"/><path fill="#000" d="M56.31 13.982a3.99 3.99 0 0 1-.183.575c-.098.27-.23.528-.394.775a.241.241 0 0 1-.223.12c-.093-.004-.163-.038-.21-.102-.05-.065-.037-.14.039-.223.173-.197.277-.376.311-.536.038-.163.057-.366.057-.61 0-.117.053-.191.16-.222a.479.479 0 0 1 .317.017c.106.038.148.107.127.206Z"/><path fill="#000" d="M54.303 14.056c.263 0 .483.059.66.176.179.114.316.257.414.428.097.167.154.336.171.507a.66.66 0 0 1-.057.41c-.017.035-.09.09-.222.166-.131.072-.273.146-.426.222a4.15 4.15 0 0 1-.368.171c-.098.034-.125.03-.083-.011a.503.503 0 0 0 .159-.428.718.718 0 0 0-.216-.473c-.132-.14-.326-.21-.585-.21-.199 0-.368.102-.508.307-.14.205-.263.462-.368.77-.106.303-.204.611-.293.923a4.7 4.7 0 0 1-.286.77c-.034.068-.116.144-.248.227a4.017 4.017 0 0 1-.75.376c-.08.031-.088.027-.025-.01.149-.092.28-.26.394-.502.115-.247.227-.534.337-.861.114-.327.235-.661.362-1.003.131-.346.282-.665.451-.958.174-.296.381-.536.623-.718.241-.186.53-.28.864-.28Zm2.383.632c.368 0 .629.095.781.285.157.19.235.42.235.69 0 .494-.158.895-.476 1.203-.314.304-.741.543-1.284.718-.542.175-1.156.311-1.842.41-.687.095-1.4.18-2.142.257-.05.004-.02-.021.09-.074.11-.057.254-.122.431-.194a13.2 13.2 0 0 1 .522-.205c.165-.061.275-.095.33-.103 1.156-.152 2.023-.374 2.599-.667.576-.292.864-.577.864-.855 0-.14-.066-.264-.197-.37a.736.736 0 0 0-.49-.16c-.199 0-.408.088-.629.262-.215.171-.463.392-.743.662-.275.27-.603.556-.985.86-.38.304-.836.591-1.366.86-.53.27-1.154.487-1.874.65-.026.005-.062-.016-.108-.062a.476.476 0 0 1-.114-.148c-.026-.053-.017-.086.025-.097a6.366 6.366 0 0 0 1.525-.553c.457-.24.874-.507 1.252-.804.377-.296.724-.594 1.041-.895.322-.3.625-.575.91-.826.283-.255.558-.458.825-.61a1.63 1.63 0 0 1 .82-.234ZM40.224 11.092c.026-.316.098-.618.216-.907.119-.292.248-.543.388-.752.144-.213.258-.359.343-.439.063-.064.119-.051.165.04.047.091.062.164.045.217-.013.057-.04.13-.083.222-.038.091-.074.22-.108.388-.034.163-.05.39-.05.678 0 .642-.007 1.246-.02 1.812-.008.563-.03 1.104-.063 1.625a11.862 11.862 0 0 1-.255 1.83 10.714 10.714 0 0 1-.4 1.425c-.14.383-.258.636-.356.758-.042.057-.101.047-.178-.029-.072-.076-.101-.139-.089-.188.022-.072.058-.167.108-.285a3.56 3.56 0 0 0 .16-.496c.054-.216.093-.503.114-.86.05-.772.057-1.583.019-2.434-.038-.852-.023-1.72.044-2.605Zm4.137-5.37c-.526.54-1.01.956-1.455 1.249-.445.289-.854.488-1.227.598a3.223 3.223 0 0 1-1.035.137 3.845 3.845 0 0 1-.87-.148c-.264-.08-.51-.162-.738-.245a2.91 2.91 0 0 0-.654-.16 1.006 1.006 0 0 0-.585.097c-.19.091-.379.276-.565.553-.03.042-.08.027-.153-.046-.072-.072-.1-.135-.083-.188.187-.513.375-.896.566-1.151.186-.258.383-.424.59-.496.204-.076.422-.091.655-.046.23.042.479.109.75.2.275.087.574.169.896.245.326.072.682.103 1.067.091.39-.011.816-.097 1.277-.256.467-.164.975-.44 1.525-.827.039-.026.066-.013.083.04a.384.384 0 0 1 .02.188.245.245 0 0 1-.064.166ZM37.312 13.349c.02-.065.082-.093.184-.086.102.008.148.046.14.114-.043.3-.108.643-.197 1.026a21.577 21.577 0 0 1-.686 2.32 9.288 9.288 0 0 1-.382.93c-.123.258-.233.433-.33.524-.093.087-.246.167-.457.239a6.734 6.734 0 0 1-.712.2c-.267.056-.532.108-.794.153a25.508 25.508 0 0 1-1.087.154c-.068.004-.12-.032-.159-.108-.038-.076-.027-.13.032-.16a22.407 22.407 0 0 0 1.538-.894 7.633 7.633 0 0 0 1.073-.833c.297-.28.549-.587.756-.917.212-.33.4-.71.566-1.14.17-.433.341-.94.515-1.522Zm.864-3.038c0 .05-.051.135-.153.256a4.393 4.393 0 0 1-.756.73c-.127.095-.216.143-.267.143-.067 0-.17-.046-.305-.137a5.15 5.15 0 0 1-.425-.337 4.15 4.15 0 0 1-.369-.381c-.102-.122-.152-.213-.152-.274 0-.053.048-.139.146-.257.101-.121.222-.248.362-.381.14-.133.271-.247.394-.342.127-.095.218-.143.273-.143.047.004.104.059.172.165.067.103.205.25.413.44.207.182.37.303.489.364.119.06.178.112.178.154ZM31.98 11.092c.025-.316.097-.618.215-.907.119-.292.248-.543.388-.752a2.84 2.84 0 0 1 .343-.439c.064-.064.119-.051.165.04.047.091.062.164.045.217-.013.057-.04.13-.083.222-.038.091-.074.22-.108.388-.034.163-.05.39-.05.678 0 .642-.007 1.246-.02 1.812-.008.563-.03 1.104-.063 1.625a11.864 11.864 0 0 1-.254 1.83 10.73 10.73 0 0 1-.4 1.425c-.14.383-.26.636-.357.758-.042.057-.101.047-.177-.029-.072-.076-.102-.139-.09-.188.022-.072.058-.167.109-.285.05-.118.103-.283.159-.496.055-.216.093-.503.114-.86.05-.772.057-1.583.019-2.434-.038-.852-.023-1.72.044-2.605ZM27.862 12.973c.19 0 .394.05.61.148.22.095.426.228.616.399.195.167.354.357.477.57.123.213.184.437.184.672 0 .354-.061.71-.184 1.066a5.601 5.601 0 0 1-.451 1.015c-.182.32-.364.598-.547.838a4.32 4.32 0 0 1-.457.53c-.114.106-.307.201-.578.285a7.679 7.679 0 0 1-.87.21c-.31.058-.585.103-.827.137l-.445.063c-.067.015-.12-.019-.158-.102-.038-.088-.026-.145.038-.171a40.192 40.192 0 0 0 .966-.484 33.018 33.018 0 0 0 1.627-.878c.25-.145.452-.274.61-.388.16-.114.24-.196.24-.245 0-.365-.048-.662-.146-.89a1.446 1.446 0 0 0-.368-.54 1.589 1.589 0 0 0-.439-.297 2.59 2.59 0 0 0-.362-.137c-.097-.03-.146-.06-.146-.091 0-.061.02-.18.057-.36.043-.182.094-.378.153-.587.063-.209.129-.387.197-.535.072-.152.14-.228.203-.228ZM17.88 8.618c0 .426-.006.912-.018 1.46a26.224 26.224 0 0 1-.077 1.63 8.91 8.91 0 0 1-.222 1.447c-.085.35-.227.678-.426.986-.195.304-.41.582-.648.832a7.54 7.54 0 0 1-.674.639c-.215.175-.385.307-.508.399-.08.057-.15.041-.21-.046a.716.716 0 0 1-.101-.365.962.962 0 0 1 .082-.467.659.659 0 0 1 .356-.36c.178-.083.382-.212.61-.387.229-.178.43-.408.604-.69.178-.284.269-.623.273-1.014.004-.3.004-.57 0-.81l-.013-.723c0-.247.002-.526.007-.838.008-.312.027-.69.057-1.134.021-.316.091-.618.21-.907.123-.292.254-.545.394-.758.144-.212.256-.359.336-.439.064-.064.119-.05.166.04.046.092.06.164.044.217-.025.084-.072.21-.14.382-.068.17-.101.473-.101.906ZM11.641 16.387c.352 0 .638.112.858.336.22.224.33.489.33.793a1.3 1.3 0 0 1-.19.638 1.74 1.74 0 0 1-.515.558 1.23 1.23 0 0 1-.724.228c-.263 0-.47-.06-.623-.182a.997.997 0 0 1-.324-.445 1.53 1.53 0 0 1-.095-.512c0-.232.063-.455.19-.667a1.7 1.7 0 0 1 .49-.536c.194-.14.396-.211.603-.211Zm-.356.616a.51.51 0 0 0-.368.165.504.504 0 0 0-.172.382c0 .174.091.308.273.399.183.087.365.13.547.13.186 0 .351-.04.495-.119.144-.08.216-.163.216-.25 0-.092-.055-.193-.165-.303a1.49 1.49 0 0 0-.387-.285.946.946 0 0 0-.439-.12Z"/><path fill="#000" d="M14.15 13.223c.238 0 .441.075.61.223.17.148.31.342.42.581.11.236.19.492.242.77.055.273.082.54.082.798 0 .326-.055.65-.165.969a4.757 4.757 0 0 1-.394.877c-.152.27-.303.5-.451.69a3.169 3.169 0 0 1-.33.382c-.047.042-.18.087-.4.137-.217.045-.469.089-.757.13-.288.039-.567.071-.838.098-.267.026-.477.043-.63.051-.067.004-.12-.034-.158-.114-.039-.084-.024-.139.044-.165.195-.072.438-.17.73-.291.293-.125.596-.266.91-.422.317-.16.614-.327.889-.501.275-.175.5-.348.673-.519.174-.175.26-.34.26-.496 0-.133-.05-.184-.152-.154-.495.156-.904.213-1.226.171-.322-.042-.53-.214-.623-.518-.088-.304-.04-.772.147-1.403.122-.41.247-.704.375-.883.13-.183.258-.296.38-.342.128-.046.248-.069.363-.069ZM12.47 2.56a5.106 5.106 0 0 0-.566.358c-.123.095-.214.18-.273.257a12.56 12.56 0 0 0-.185.262c-.042.06-.09.06-.146 0-.055-.06-.082-.116-.082-.165 0-.247.105-.485.317-.713.212-.228.524-.46.934-.695.255-.148.44-.268.56-.36.122-.094.213-.18.273-.256.059-.08.123-.167.19-.262.038-.06.085-.06.14 0 .055.057.083.112.083.165 0 .247-.106.485-.318.713-.212.228-.521.46-.928.695ZM13.683 5.774c0 .05-.05.135-.153.256a3.898 3.898 0 0 1-.355.382c-.14.137-.274.253-.4.348-.128.095-.217.142-.268.142-.067 0-.169-.047-.304-.142a3.52 3.52 0 0 1-.42-.336 3.405 3.405 0 0 1-.375-.377c-.101-.121-.152-.212-.152-.273 0-.053.05-.139.152-.257.098-.121.216-.248.356-.381.14-.133.273-.248.4-.343.123-.095.212-.142.267-.142.047.004.104.059.172.165.068.103.205.25.413.44.207.182.37.303.489.364.119.06.178.112.178.154ZM11.186 13.138c-.263.243-.525.464-.788.661a2.692 2.692 0 0 1-.8.422c-.272.084-.56.084-.865 0-.055-.015-.097-.091-.127-.228a2.24 2.24 0 0 1-.044-.462c0-.17.015-.317.044-.439.026-.121.068-.174.127-.16.22.058.39.119.509.183.118.065.235.114.349.148.114.03.275.03.483 0a1.52 1.52 0 0 0 .54-.205c.186-.114.37-.256.553-.427.377-.354.741-.665 1.093-.935.351-.27.732-.534 1.143-.792.411-.259.892-.546 1.443-.861.093-.053.14-.057.14-.011a.464.464 0 0 1-.083.205 1.893 1.893 0 0 1-.21.28c-.08.09-.159.159-.235.204-.623.38-1.213.775-1.773 1.186-.559.406-1.059.817-1.5 1.231Zm1.677-4.52c.31 0 .545.053.706.16.165.106.264.228.298.364a.392.392 0 0 1-.082.365c-.085.107-.225.16-.42.16a.76.76 0 0 1-.337-.069 2.98 2.98 0 0 0-.317-.13 1.305 1.305 0 0 0-.47-.07.88.88 0 0 0-.54.166c-.149.11-.263.234-.344.37-.08.134-.122.24-.127.32a.959.959 0 0 0 .083.405c.068.163.171.313.311.45.144.137.324.224.54.262.22.034.481-.019.782-.16l-1.894 1.534c-.436-.088-.75-.23-.94-.428-.186-.201-.28-.416-.28-.644 0-.144.051-.313.153-.507.106-.198.32-.473.642-.827.207-.22.423-.463.648-.73a4.37 4.37 0 0 1 .737-.695c.262-.197.546-.296.851-.296ZM7.342 10.362c0 .05-.051.133-.153.251a3.904 3.904 0 0 1-.355.382c-.14.137-.274.253-.4.348-.128.095-.217.142-.268.142-.067 0-.17-.045-.305-.137a3.525 3.525 0 0 1-.419-.336 3.397 3.397 0 0 1-.375-.376c-.102-.122-.152-.213-.152-.274 0-.053.05-.139.152-.256.098-.122.216-.25.356-.382.14-.133.273-.247.4-.342.123-.095.212-.143.267-.143.047 0 .104.054.172.16.067.106.205.255.413.445.207.182.37.304.489.364.119.061.178.112.178.154Zm1.95-.2c0 .05-.05.136-.152.257a3.904 3.904 0 0 1-.356.382c-.14.137-.273.253-.4.348-.127.095-.216.142-.267.142-.068 0-.17-.045-.305-.136a3.932 3.932 0 0 1-.794-.719c-.102-.121-.153-.213-.153-.273 0-.053.051-.139.153-.257.097-.121.216-.249.356-.382.14-.133.273-.247.4-.342.127-.095.218-.142.273-.142.042 0 .098.055.165.165.072.107.212.253.42.439.203.186.364.31.483.37.118.058.177.107.177.149Z"/><path fill="#000" d="M8.733 12.762c.106.026.185.112.235.256.055.145.083.302.083.473a.98.98 0 0 1-.083.428c-.05.114-.129.158-.235.131a2.734 2.734 0 0 0-.756-.108c-.224 0-.449.05-.673.148a3.625 3.625 0 0 0-.756.462c-.276.209-.606.486-.992.832-.017.015-.057.005-.12-.029a.882.882 0 0 1-.166-.125c-.05-.046-.067-.078-.05-.097.16-.16.343-.353.546-.581.203-.228.422-.46.654-.696.238-.24.483-.454.738-.644.258-.19.518-.33.781-.422.267-.09.532-.1.794-.028Z"/><path fill="#000" d="M4.19 14.056c.263 0 .483.059.661.176.178.114.316.257.413.428.098.167.155.336.172.507a.661.661 0 0 1-.058.41c-.016.035-.09.09-.222.166-.131.072-.273.146-.426.222a4.155 4.155 0 0 1-.368.171c-.098.034-.125.03-.083-.011a.503.503 0 0 0 .16-.428.718.718 0 0 0-.217-.473c-.131-.14-.326-.21-.584-.21-.2 0-.369.102-.509.307-.14.205-.262.462-.368.77-.106.303-.204.611-.293.923a4.69 4.69 0 0 1-.285.77c-.034.068-.117.144-.248.227a4.017 4.017 0 0 1-.75.376c-.08.031-.089.027-.025-.01.148-.092.28-.26.393-.502a8.6 8.6 0 0 0 .337-.861c.115-.327.235-.661.362-1.003.132-.346.282-.665.452-.958.173-.296.38-.536.622-.718.242-.186.53-.28.864-.28Zm2.383.632c.369 0 .629.095.782.285.156.19.235.42.235.69 0 .494-.16.895-.477 1.203-.313.304-.741.543-1.283.718-.543.175-1.157.311-1.843.41-.686.095-1.4.18-2.141.257-.051.004-.021-.021.089-.074.11-.057.254-.122.432-.194.182-.076.356-.145.52-.205.166-.061.276-.095.331-.103 1.157-.152 2.023-.374 2.599-.667.576-.292.864-.577.864-.855 0-.14-.066-.264-.197-.37a.736.736 0 0 0-.49-.16c-.198 0-.408.088-.628.262a10.37 10.37 0 0 0-.744.662c-.275.27-.603.556-.984.86-.382.304-.837.591-1.367.86-.529.27-1.154.487-1.874.65-.025.005-.061-.016-.108-.062a.476.476 0 0 1-.114-.148c-.026-.053-.017-.086.025-.097a6.365 6.365 0 0 0 1.525-.553 8.08 8.08 0 0 0 1.252-.804c.377-.296.724-.594 1.042-.895.322-.3.625-.575.908-.826.284-.255.56-.458.826-.61a1.63 1.63 0 0 1 .82-.234Z"/></svg>