<svg xmlns="http://www.w3.org/2000/svg" fill="none" viewBox="0 0 89 28">
	<mask id="a" width="27" height="28" x="0" y="0" maskUnits="userSpaceOnUse" style="mask-type:luminance">
		<path fill="#fff" d="M14.26 12.3v9.16H12.2V12.3L.31.4v26.95h25.85V.4z"/>
	</mask>
	<g mask="url(#a)">
		<path fill="#396" d="M13.23 21.44a7.25 7.25 0 1 0 0-14.5 7.25 7.25 0 0 0 0 14.5"/>
		<path stroke="#069" stroke-width="2.6" d="M13.23 24.54c5.72 0 10.4-4.64 10.36-10.35 0-5.72-4.64-10.4-10.36-10.36-5.72 0-10.4 4.64-10.35 10.36 0 5.72 4.64 10.4 10.36 10.35z"/>
	</g>
	<path fill="#900" d="M13.23 9.98a3.98 3.98 0 1 0 0-7.95 3.98 3.98 0 0 0 0 7.95"/>
	<path fill="#626968" d="m33.77 11.5-2.14 4.51h-.74l-3.04-7h1.82l1.63 3.82 1.78-3.81h1.38l1.78 3.81 1.61-3.81h1.83l-3.03 7h-.74zm8.47-2.48v6.9h-1.72v-6.9zm7.4 0-2.25 3.24 3.05 3.66H48.3l-2.73-3.23v3.23h-1.73v-6.9h1.73v3.1l2.19-3.1h1.9Zm3.26 0v6.9h-1.72v-6.9zm5.32 2.56 2.22-2.56h1.5v6.9h-1.72v-4.3l-1.87 2.16h-.26l-1.87-2.17v4.31H54.5v-6.9H56l2.22 2.56Zm10.36 3.08v1.26h-5.1v-6.9h5.03v1.26h-3.3v1.45h3.15V13H65.2v1.66zm1.3-5.64h3.05q1.76 0 2.79.96 1.03.97 1.03 2.5 0 1.61-1.05 2.53-1.03.91-2.96.91h-2.85zm1.73 1.26v4.38h1.12q1.09 0 1.67-.6.58-.6.58-1.59 0-1.02-.6-1.6-.58-.59-1.67-.59zm8.2-1.26v6.9h-1.73v-6.9h1.72Zm5.63 0 3.07 6.9h-1.85l-.57-1.36H83l-.51 1.36h-1.82l2.78-6.9zm.14 4.33-1.1-2.68-1.02 2.68z"/>
	<path fill="#818888" d="M59.46 2.75V4.7q0 .23.16.23t.5-.24v.55a2.7 2.7 0 0 1-.49.26q-.18.08-.38.08-.58 0-.68-.46-.58.45-1.23.45a1.07 1.07 0 0 1-1.1-1.1q0-.44.3-.77.31-.34.88-.54l1.15-.4v-.24q0-.82-.82-.82-.73 0-1.43.76v-.98q.52-.62 1.5-.62.74 0 1.19.39a1.2 1.2 0 0 1 .27.33q.11.19.14.4.04.21.04.79Zm-.89 1.84V3.24l-.6.23q-.46.19-.65.37a.62.62 0 0 0-.19.46q0 .28.18.46a.65.65 0 0 0 .47.18q.43 0 .8-.35ZM43.82 27.12v-6.87h1.58q1.21 0 1.89.6.67.6.67 1.69 0 1.02-.64 1.68-.63.66-1.61.66-.44 0-.97-.2v2.44h-.92Zm1.56-6.03h-.64v2.8q.42.21.87.21.64 0 1.04-.44t.4-1.13q0-.45-.19-.79a1.12 1.12 0 0 0-.52-.5q-.33-.15-.96-.15m4.53-.84v1.04l.05-.08q.65-1.05 1.3-1.05.51 0 1.07.51l-.48.8q-.47-.45-.87-.45-.43 0-.75.42c-.22.28-.33.63-.32.98v2.38h-.9v-4.55zm4.98-.01q1.04 0 1.72.67.7.67.7 1.68a2.15 2.15 0 0 1-.7 1.64q-.7.65-1.76.65-1.02 0-1.71-.66t-.69-1.65q0-1 .7-1.66.7-.67 1.74-.67Zm-.05.81q-.65 0-1.06.43-.42.42-.42 1.08 0 .65.43 1.07.42.4 1.09.4.66 0 1.08-.4.43-.43.43-1.08 0-.65-.44-1.07-.44-.43-1.1-.43m3.89-2.71q.22 0 .38.15a.5.5 0 0 1 .16.37.52.52 0 0 1-.16.38.5.5 0 0 1-.37.16.53.53 0 0 1-.38-.16.5.5 0 0 1 0-.74.5.5 0 0 1 .37-.17m-.43 1.92h.9v5.2q0 1.18-.9 1.67l-.68-.66a.96.96 0 0 0 .5-.38 1.1 1.1 0 0 0 .18-.63zm6.1 2.35h-3.2q.04.66.44 1.04.4.39 1.04.39a2.7 2.7 0 0 0 1.65-.56v.88a3 3 0 0 1-.83.4q-.4.12-.96.12-.75 0-1.21-.31a2.3 2.3 0 0 1-.75-.84 2.6 2.6 0 0 1-.28-1.22q0-1.04.6-1.69.58-.65 1.52-.65.9 0 1.44.63.54.64.54 1.7v.11m-3.18-.54h2.3q-.04-.54-.33-.83-.29-.29-.77-.29t-.8.3q-.3.28-.4.82m7.56 1.67v.9a3.8 3.8 0 0 1-1.32.25q-1.07 0-1.7-.64-.64-.63-.64-1.7 0-1.06.62-1.72.62-.66 1.63-.66a2.6 2.6 0 0 1 .62.07q.29.06.7.25v.96Q68 21 67.43 21a1.29 1.29 0 0 0-1 .43q-.39.43-.39 1.09 0 .7.42 1.1.43.42 1.14.42.52 0 1.2-.3m.37-2.77 1.7-1.66v.94h1.44v.81h-1.44v2.23q0 .78.64.78.49 0 1.03-.32v.84a2.3 2.3 0 0 1-1.13.29q-.62 0-1.03-.36a1 1 0 0 1-.22-.25 1.4 1.4 0 0 1-.14-.35q-.05-.22-.05-.84v-2.02h-.8v-.1"/>
</svg>
